{"tracks":[{"instrument":{"family":"piano","number":0,"name":"acoustic grand piano"},"notes":[{"duration":0.22222200000000214,"midi":70,"time":56.888832,"velocity":0.4251968503937008},{"duration":0.22222200000000214,"midi":65,"time":56.888832,"velocity":0.4251968503937008},{"duration":0.22222199999999503,"midi":77,"time":57.111054,"velocity":0.4251968503937008},{"duration":0.22222199999999503,"midi":73,"time":57.111054,"velocity":0.4251968503937008},{"duration":0.22222200000000214,"midi":75,"time":57.333276,"velocity":0.4251968503937008},{"duration":0.22222200000000214,"midi":72,"time":57.333276,"velocity":0.4251968503937008},{"duration":0.22222200000000214,"midi":77,"time":57.555498,"velocity":0.4251968503937008},{"duration":0.22222200000000214,"midi":73,"time":57.555498,"velocity":0.4251968503937008},{"duration":0.22222199999999503,"midi":70,"time":57.77772,"velocity":0.4251968503937008},{"duration":0.22222199999999503,"midi":73,"time":57.77772,"velocity":0.4251968503937008},{"duration":0.22222200000000214,"midi":77,"time":57.999942,"velocity":0.4251968503937008},{"duration":0.22222200000000214,"midi":73,"time":57.999942,"velocity":0.4251968503937008},{"duration":0.22222200000000214,"midi":72,"time":58.222164,"velocity":0.4251968503937008},{"duration":0.22222200000000214,"midi":68,"time":58.222164,"velocity":0.4251968503937008},{"duration":0.22222200000000214,"midi":77,"time":58.444386,"velocity":0.4251968503937008},{"duration":0.22222200000000214,"midi":73,"time":58.444386,"velocity":0.4251968503937008},{"duration":0.22222199999999503,"midi":70,"time":58.666608000000004,"velocity":0.4251968503937008},{"duration":0.22222199999999503,"midi":65,"time":58.666608000000004,"velocity":0.4251968503937008},{"duration":0.22222200000000214,"midi":77,"time":58.88883,"velocity":0.4251968503937008},{"duration":0.22222200000000214,"midi":73,"time":58.88883,"velocity":0.4251968503937008},{"duration":0.22222200000000214,"midi":75,"time":59.111052,"velocity":0.4251968503937008},{"duration":0.22222200000000214,"midi":72,"time":59.111052,"velocity":0.4251968503937008},{"duration":0.22222199999999503,"midi":73,"time":59.333274,"velocity":0.4251968503937008},{"duration":0.22222199999999503,"midi":77,"time":59.333274,"velocity":0.4251968503937008},{"duration":0.22222200000000214,"midi":70,"time":59.555496,"velocity":0.4251968503937008},{"duration":0.22222200000000214,"midi":73,"time":59.555496,"velocity":0.4251968503937008},{"duration":0.22222200000000214,"midi":77,"time":59.777718,"velocity":0.4251968503937008},{"duration":0.22222200000000214,"midi":73,"time":59.777718,"velocity":0.4251968503937008},{"duration":0.22222199999999503,"midi":72,"time":59.99994,"velocity":0.4251968503937008},{"duration":0.22222199999999503,"midi":68,"time":59.99994,"velocity":0.4251968503937008},{"duration":0.22222200000000214,"midi":77,"time":60.222162,"velocity":0.4251968503937008},{"duration":0.22222200000000214,"midi":73,"time":60.222162,"velocity":0.4251968503937008},{"duration":0.22222200000000214,"midi":70,"time":60.444384,"velocity":0.4251968503937008},{"duration":0.22222200000000214,"midi":65,"time":60.444384,"velocity":0.4251968503937008},{"duration":0.22222200000000214,"midi":73,"time":60.666606,"velocity":0.4251968503937008},{"duration":0.22222200000000214,"midi":77,"time":60.666606,"velocity":0.4251968503937008},{"duration":0.22222199999999503,"midi":75,"time":60.888828000000004,"velocity":0.4251968503937008},{"duration":0.22222199999999503,"midi":72,"time":60.888828000000004,"velocity":0.4251968503937008},{"duration":0.22222200000000214,"midi":77,"time":61.11105,"velocity":0.4251968503937008},{"duration":0.22222200000000214,"midi":73,"time":61.11105,"velocity":0.4251968503937008},{"duration":0.22222200000000214,"midi":70,"time":61.333272,"velocity":0.4251968503937008},{"duration":0.22222200000000214,"midi":73,"time":61.333272,"velocity":0.4251968503937008},{"duration":0.22222199999999503,"midi":77,"time":61.555494,"velocity":0.4251968503937008},{"duration":0.22222199999999503,"midi":73,"time":61.555494,"velocity":0.4251968503937008},{"duration":0.22222200000000214,"midi":72,"time":61.777716,"velocity":0.4251968503937008},{"duration":0.22222200000000214,"midi":68,"time":61.777716,"velocity":0.4251968503937008},{"duration":0.22222200000000214,"midi":77,"time":61.999938,"velocity":0.4251968503937008},{"duration":0.22222200000000214,"midi":73,"time":61.999938,"velocity":0.4251968503937008},{"duration":0.22222199999999503,"midi":70,"time":62.22216,"velocity":0.4251968503937008},{"duration":0.22222199999999503,"midi":65,"time":62.22216,"velocity":0.4251968503937008},{"duration":0.22222200000000214,"midi":77,"time":62.444382,"velocity":0.4251968503937008},{"duration":0.22222200000000214,"midi":73,"time":62.444382,"velocity":0.4251968503937008},{"duration":0.22222200000000214,"midi":75,"time":62.666604,"velocity":0.4251968503937008},{"duration":0.22222200000000214,"midi":72,"time":62.666604,"velocity":0.4251968503937008},{"duration":0.22222200000000214,"midi":73,"time":62.888826,"velocity":0.4251968503937008},{"duration":0.22222200000000214,"midi":77,"time":62.888826,"velocity":0.4251968503937008},{"duration":0.22222199999999503,"midi":73,"time":63.111048000000004,"velocity":0.4251968503937008},{"duration":0.22222199999999503,"midi":70,"time":63.111048000000004,"velocity":0.4251968503937008},{"duration":0.22222200000000214,"midi":77,"time":63.33327,"velocity":0.4251968503937008},{"duration":0.22222200000000214,"midi":73,"time":63.33327,"velocity":0.4251968503937008},{"duration":0.22222200000000214,"midi":72,"time":63.555492,"velocity":0.4251968503937008},{"duration":0.22222200000000214,"midi":68,"time":63.555492,"velocity":0.4251968503937008},{"duration":0.22222199999999503,"midi":77,"time":63.777714,"velocity":0.4251968503937008},{"duration":0.22222199999999503,"midi":73,"time":63.777714,"velocity":0.4251968503937008},{"duration":0.22222200000000925,"midi":70,"time":63.999936,"velocity":0.4251968503937008},{"duration":0.22222200000000925,"midi":65,"time":63.999936,"velocity":0.4251968503937008},{"duration":0.22222199999998793,"midi":77,"time":64.22215800000001,"velocity":0.4251968503937008},{"duration":0.22222199999998793,"midi":73,"time":64.22215800000001,"velocity":0.4251968503937008},{"duration":0.22222200000000214,"midi":75,"time":64.44438,"velocity":0.4251968503937008},{"duration":0.22222200000000214,"midi":72,"time":64.44438,"velocity":0.4251968503937008},{"duration":0.22222200000000214,"midi":77,"time":64.666602,"velocity":0.4251968503937008},{"duration":0.22222200000000214,"midi":73,"time":64.666602,"velocity":0.4251968503937008},{"duration":0.22222200000000214,"midi":70,"time":64.888824,"velocity":0.4251968503937008},{"duration":0.22222200000000214,"midi":73,"time":64.888824,"velocity":0.4251968503937008},{"duration":0.22222200000000214,"midi":77,"time":65.111046,"velocity":0.4251968503937008},{"duration":0.22222200000000214,"midi":73,"time":65.111046,"velocity":0.4251968503937008},{"duration":0.22222200000000214,"midi":72,"time":65.333268,"velocity":0.4251968503937008},{"duration":0.22222200000000214,"midi":68,"time":65.333268,"velocity":0.4251968503937008},{"duration":0.22222199999998793,"midi":77,"time":65.55549,"velocity":0.4251968503937008},{"duration":0.22222199999998793,"midi":73,"time":65.55549,"velocity":0.4251968503937008},{"duration":0.22222200000000214,"midi":70,"time":65.777712,"velocity":0.4251968503937008},{"duration":0.22222200000000214,"midi":65,"time":65.777712,"velocity":0.4251968503937008},{"duration":0.22222200000000214,"midi":73,"time":65.999934,"velocity":0.4251968503937008},{"duration":0.22222200000000214,"midi":77,"time":65.999934,"velocity":0.4251968503937008},{"duration":0.22222200000000214,"midi":75,"time":66.222156,"velocity":0.4251968503937008},{"duration":0.22222200000000214,"midi":72,"time":66.222156,"velocity":0.4251968503937008},{"duration":0.22222200000000214,"midi":73,"time":66.444378,"velocity":0.4251968503937008},{"duration":0.22222200000000214,"midi":77,"time":66.444378,"velocity":0.4251968503937008},{"duration":0.22222200000000214,"midi":70,"time":66.6666,"velocity":0.4251968503937008},{"duration":0.22222200000000214,"midi":73,"time":66.6666,"velocity":0.4251968503937008},{"duration":0.22222200000000214,"midi":73,"time":66.888822,"velocity":0.4251968503937008},{"duration":0.22222200000000214,"midi":77,"time":66.888822,"velocity":0.4251968503937008},{"duration":0.22222199999998793,"midi":68,"time":67.111044,"velocity":0.4251968503937008},{"duration":0.22222199999998793,"midi":72,"time":67.111044,"velocity":0.4251968503937008},{"duration":0.22222200000000214,"midi":77,"time":67.333266,"velocity":0.4251968503937008},{"duration":0.22222200000000214,"midi":73,"time":67.333266,"velocity":0.4251968503937008},{"duration":0.22222200000000214,"midi":70,"time":67.555488,"velocity":0.4251968503937008},{"duration":0.22222200000000214,"midi":65,"time":67.555488,"velocity":0.4251968503937008},{"duration":0.22222200000000214,"midi":77,"time":67.77771,"velocity":0.4251968503937008},{"duration":0.22222200000000214,"midi":73,"time":67.77771,"velocity":0.4251968503937008},{"duration":0.22222200000000214,"midi":72,"time":67.999932,"velocity":0.4251968503937008},{"duration":0.22222200000000214,"midi":75,"time":67.999932,"velocity":0.4251968503937008},{"duration":0.22222200000000214,"midi":73,"time":68.222154,"velocity":0.4251968503937008},{"duration":0.22222200000000214,"midi":77,"time":68.222154,"velocity":0.4251968503937008},{"duration":0.22222200000000214,"midi":73,"time":68.444376,"velocity":0.4251968503937008},{"duration":0.22222200000000214,"midi":70,"time":68.444376,"velocity":0.4251968503937008},{"duration":0.22222199999998793,"midi":73,"time":68.66659800000001,"velocity":0.4251968503937008},{"duration":0.22222199999998793,"midi":77,"time":68.66659800000001,"velocity":0.4251968503937008},{"duration":0.22222200000000214,"midi":68,"time":68.88882,"velocity":0.4251968503937008},{"duration":0.22222200000000214,"midi":72,"time":68.88882,"velocity":0.4251968503937008},{"duration":0.22222200000000214,"midi":77,"time":69.111042,"velocity":0.4251968503937008},{"duration":0.22222200000000214,"midi":73,"time":69.111042,"velocity":0.4251968503937008},{"duration":0.22222200000000214,"midi":65,"time":69.333264,"velocity":0.4251968503937008},{"duration":0.22222200000000214,"midi":70,"time":69.333264,"velocity":0.4251968503937008},{"duration":0.22222200000000214,"midi":73,"time":69.555486,"velocity":0.4251968503937008},{"duration":0.22222200000000214,"midi":77,"time":69.555486,"velocity":0.4251968503937008},{"duration":0.22222200000000214,"midi":72,"time":69.777708,"velocity":0.4251968503937008},{"duration":0.22222200000000214,"midi":75,"time":69.777708,"velocity":0.4251968503937008},{"duration":0.22222199999998793,"midi":73,"time":69.99993,"velocity":0.4251968503937008},{"duration":0.22222199999998793,"midi":77,"time":69.99993,"velocity":0.4251968503937008},{"duration":0.22222200000000214,"midi":73,"time":70.222152,"velocity":0.4251968503937008},{"duration":0.22222200000000214,"midi":70,"time":70.222152,"velocity":0.4251968503937008},{"duration":0.22222200000000214,"midi":73,"time":70.444374,"velocity":0.4251968503937008},{"duration":0.22222200000000214,"midi":77,"time":70.444374,"velocity":0.4251968503937008},{"duration":0.22222200000000214,"midi":68,"time":70.666596,"velocity":0.4251968503937008},{"duration":0.22222200000000214,"midi":72,"time":70.666596,"velocity":0.4251968503937008},{"duration":0.22222200000000214,"midi":73,"time":70.888818,"velocity":0.4251968503937008},{"duration":0.22222200000000214,"midi":77,"time":70.888818,"velocity":0.4251968503937008},{"duration":0.22222200000000214,"midi":65,"time":71.11104,"velocity":0.4251968503937008},{"duration":0.22222200000000214,"midi":70,"time":71.11104,"velocity":0.4251968503937008},{"duration":0.22222200000000214,"midi":77,"time":71.333262,"velocity":0.4251968503937008},{"duration":0.22222200000000214,"midi":73,"time":71.333262,"velocity":0.4251968503937008},{"duration":0.22222199999998793,"midi":75,"time":71.555484,"velocity":0.4251968503937008},{"duration":0.22222199999998793,"midi":72,"time":71.555484,"velocity":0.4251968503937008},{"duration":0.22222200000000214,"midi":77,"time":71.777706,"velocity":0.4251968503937008},{"duration":0.22222200000000214,"midi":73,"time":71.777706,"velocity":0.4251968503937008},{"duration":0.22222200000000214,"midi":70,"time":71.999928,"velocity":0.4251968503937008},{"duration":0.22222200000000214,"midi":73,"time":71.999928,"velocity":0.4251968503937008},{"duration":0.22222200000000214,"midi":77,"time":72.22215,"velocity":0.4251968503937008},{"duration":0.22222200000000214,"midi":73,"time":72.22215,"velocity":0.4251968503937008},{"duration":0.22222200000000214,"midi":68,"time":72.444372,"velocity":0.4251968503937008},{"duration":0.22222200000000214,"midi":72,"time":72.444372,"velocity":0.4251968503937008},{"duration":0.22222200000000214,"midi":77,"time":72.666594,"velocity":0.4251968503937008},{"duration":0.22222200000000214,"midi":73,"time":72.666594,"velocity":0.4251968503937008},{"duration":0.22222200000000214,"midi":70,"time":72.888816,"velocity":0.4251968503937008},{"duration":0.22222200000000214,"midi":65,"time":72.888816,"velocity":0.4251968503937008},{"duration":0.22222199999998793,"midi":77,"time":73.11103800000001,"velocity":0.4251968503937008},{"duration":0.22222199999998793,"midi":73,"time":73.11103800000001,"velocity":0.4251968503937008},{"duration":0.22222200000000214,"midi":75,"time":73.33326,"velocity":0.4251968503937008},{"duration":0.22222200000000214,"midi":72,"time":73.33326,"velocity":0.4251968503937008},{"duration":0.22222200000000214,"midi":77,"time":73.555482,"velocity":0.4251968503937008},{"duration":0.22222200000000214,"midi":73,"time":73.555482,"velocity":0.4251968503937008},{"duration":0.22222200000000214,"midi":73,"time":73.777704,"velocity":0.4251968503937008},{"duration":0.22222200000000214,"midi":70,"time":73.777704,"velocity":0.4251968503937008},{"duration":0.22222200000000214,"midi":77,"time":73.999926,"velocity":0.4251968503937008},{"duration":0.22222200000000214,"midi":73,"time":73.999926,"velocity":0.4251968503937008},{"duration":0.22222200000000214,"midi":72,"time":74.222148,"velocity":0.4251968503937008},{"duration":0.22222200000000214,"midi":68,"time":74.222148,"velocity":0.4251968503937008},{"duration":0.22222199999998793,"midi":77,"time":74.44437,"velocity":0.4251968503937008},{"duration":0.22222199999998793,"midi":73,"time":74.44437,"velocity":0.4251968503937008},{"duration":0.22222200000000214,"midi":65,"time":74.666592,"velocity":0.4251968503937008},{"duration":0.22222200000000214,"midi":70,"time":74.666592,"velocity":0.4251968503937008},{"duration":0.22222200000000214,"midi":77,"time":74.888814,"velocity":0.4251968503937008},{"duration":0.22222200000000214,"midi":73,"time":74.888814,"velocity":0.4251968503937008},{"duration":0.22222200000000214,"midi":75,"time":75.111036,"velocity":0.4251968503937008},{"duration":0.22222200000000214,"midi":72,"time":75.111036,"velocity":0.4251968503937008},{"duration":0.22222200000000214,"midi":73,"time":75.333258,"velocity":0.4251968503937008},{"duration":0.22222200000000214,"midi":77,"time":75.333258,"velocity":0.4251968503937008},{"duration":0.22222200000000214,"midi":70,"time":75.55548,"velocity":0.4251968503937008},{"duration":0.22222200000000214,"midi":73,"time":75.55548,"velocity":0.4251968503937008},{"duration":0.22222200000000214,"midi":73,"time":75.777702,"velocity":0.4251968503937008},{"duration":0.22222200000000214,"midi":77,"time":75.777702,"velocity":0.4251968503937008},{"duration":0.22222199999998793,"midi":72,"time":75.99992400000001,"velocity":0.4251968503937008},{"duration":0.22222199999998793,"midi":68,"time":75.99992400000001,"velocity":0.4251968503937008},{"duration":0.22222200000000214,"midi":73,"time":76.222146,"velocity":0.4251968503937008},{"duration":0.22222200000000214,"midi":77,"time":76.222146,"velocity":0.4251968503937008},{"duration":0.22222200000000214,"midi":70,"time":76.444368,"velocity":0.4251968503937008},{"duration":0.22222200000000214,"midi":65,"time":76.444368,"velocity":0.4251968503937008},{"duration":0.22222200000000214,"midi":77,"time":76.66659,"velocity":0.4251968503937008},{"duration":0.22222200000000214,"midi":73,"time":76.66659,"velocity":0.4251968503937008},{"duration":0.22222200000000214,"midi":72,"time":76.888812,"velocity":0.4251968503937008},{"duration":0.22222200000000214,"midi":75,"time":76.888812,"velocity":0.4251968503937008},{"duration":0.22222200000000214,"midi":73,"time":77.111034,"velocity":0.4251968503937008},{"duration":0.22222200000000214,"midi":77,"time":77.111034,"velocity":0.4251968503937008},{"duration":0.22222200000000214,"midi":70,"time":77.333256,"velocity":0.4251968503937008},{"duration":0.22222200000000214,"midi":73,"time":77.333256,"velocity":0.4251968503937008},{"duration":0.22222199999998793,"midi":77,"time":77.55547800000001,"velocity":0.4251968503937008},{"duration":0.22222199999998793,"midi":73,"time":77.55547800000001,"velocity":0.4251968503937008},{"duration":0.22222200000000214,"midi":68,"time":77.7777,"velocity":0.4251968503937008},{"duration":0.22222200000000214,"midi":72,"time":77.7777,"velocity":0.4251968503937008},{"duration":0.22222200000000214,"midi":73,"time":77.999922,"velocity":0.4251968503937008},{"duration":0.22222200000000214,"midi":77,"time":77.999922,"velocity":0.4251968503937008},{"duration":0.22222200000000214,"midi":70,"time":78.222144,"velocity":0.4251968503937008},{"duration":0.22222200000000214,"midi":65,"time":78.222144,"velocity":0.4251968503937008},{"duration":0.22222200000000214,"midi":73,"time":78.444366,"velocity":0.4251968503937008},{"duration":0.22222200000000214,"midi":77,"time":78.444366,"velocity":0.4251968503937008},{"duration":0.22222200000000214,"midi":75,"time":78.666588,"velocity":0.4251968503937008},{"duration":0.22222200000000214,"midi":72,"time":78.666588,"velocity":0.4251968503937008},{"duration":0.22222199999998793,"midi":73,"time":78.88881,"velocity":0.4251968503937008},{"duration":0.22222199999998793,"midi":77,"time":78.88881,"velocity":0.4251968503937008},{"duration":0.22222200000000214,"midi":73,"time":79.111032,"velocity":0.4251968503937008},{"duration":0.22222200000000214,"midi":70,"time":79.111032,"velocity":0.4251968503937008},{"duration":0.22222200000000214,"midi":73,"time":79.333254,"velocity":0.4251968503937008},{"duration":0.22222200000000214,"midi":77,"time":79.333254,"velocity":0.4251968503937008},{"duration":0.22222200000000214,"midi":68,"time":79.555476,"velocity":0.4251968503937008},{"duration":0.22222200000000214,"midi":72,"time":79.555476,"velocity":0.4251968503937008},{"duration":0.22222200000000214,"midi":73,"time":79.777698,"velocity":0.4251968503937008},{"duration":0.22222200000000214,"midi":77,"time":79.777698,"velocity":0.4251968503937008},{"duration":0.22222200000000214,"midi":70,"time":79.99992,"velocity":0.4251968503937008},{"duration":0.22222200000000214,"midi":65,"time":79.99992,"velocity":0.4251968503937008},{"duration":0.22222200000000214,"midi":77,"time":80.222142,"velocity":0.4251968503937008},{"duration":0.22222200000000214,"midi":73,"time":80.222142,"velocity":0.4251968503937008},{"duration":0.22222199999998793,"midi":72,"time":80.44436400000001,"velocity":0.4251968503937008},{"duration":0.22222199999998793,"midi":75,"time":80.44436400000001,"velocity":0.4251968503937008},{"duration":0.22222200000000214,"midi":73,"time":80.666586,"velocity":0.4251968503937008},{"duration":0.22222200000000214,"midi":77,"time":80.666586,"velocity":0.4251968503937008},{"duration":0.22222200000000214,"midi":73,"time":80.888808,"velocity":0.4251968503937008},{"duration":0.22222200000000214,"midi":70,"time":80.888808,"velocity":0.4251968503937008},{"duration":0.22222200000000214,"midi":73,"time":81.11103,"velocity":0.4251968503937008},{"duration":0.22222200000000214,"midi":77,"time":81.11103,"velocity":0.4251968503937008},{"duration":0.22222200000000214,"midi":72,"time":81.333252,"velocity":0.4251968503937008},{"duration":0.22222200000000214,"midi":68,"time":81.333252,"velocity":0.4251968503937008},{"duration":0.22222200000000214,"midi":73,"time":81.555474,"velocity":0.4251968503937008},{"duration":0.22222200000000214,"midi":77,"time":81.555474,"velocity":0.4251968503937008},{"duration":0.22222200000000214,"midi":65,"time":81.777696,"velocity":0.4251968503937008},{"duration":0.22222200000000214,"midi":70,"time":81.777696,"velocity":0.4251968503937008},{"duration":0.22222199999998793,"midi":77,"time":81.99991800000001,"velocity":0.4251968503937008},{"duration":0.22222199999998793,"midi":73,"time":81.99991800000001,"velocity":0.4251968503937008},{"duration":0.22222200000000214,"midi":75,"time":82.22214,"velocity":0.4251968503937008},{"duration":0.22222200000000214,"midi":72,"time":82.22214,"velocity":0.4251968503937008},{"duration":0.22222200000000214,"midi":73,"time":82.444362,"velocity":0.4251968503937008},{"duration":0.22222200000000214,"midi":77,"time":82.444362,"velocity":0.4251968503937008},{"duration":0.22222200000000214,"midi":73,"time":82.666584,"velocity":0.4251968503937008},{"duration":0.22222200000000214,"midi":70,"time":82.666584,"velocity":0.4251968503937008},{"duration":0.22222200000000214,"midi":73,"time":82.888806,"velocity":0.4251968503937008},{"duration":0.22222200000000214,"midi":77,"time":82.888806,"velocity":0.4251968503937008},{"duration":0.22222200000000214,"midi":68,"time":83.111028,"velocity":0.4251968503937008},{"duration":0.22222200000000214,"midi":72,"time":83.111028,"velocity":0.4251968503937008},{"duration":0.22222199999998793,"midi":77,"time":83.33325,"velocity":0.4251968503937008},{"duration":0.22222199999998793,"midi":73,"time":83.33325,"velocity":0.4251968503937008},{"duration":0.22222200000000214,"midi":65,"time":83.555472,"velocity":0.4251968503937008},{"duration":0.22222200000000214,"midi":70,"time":83.555472,"velocity":0.4251968503937008},{"duration":0.22222200000000214,"midi":77,"time":83.777694,"velocity":0.4251968503937008},{"duration":0.22222200000000214,"midi":73,"time":83.777694,"velocity":0.4251968503937008},{"duration":0.22222200000000214,"midi":72,"time":83.999916,"velocity":0.4251968503937008},{"duration":0.22222200000000214,"midi":75,"time":83.999916,"velocity":0.4251968503937008},{"duration":0.22222200000000214,"midi":73,"time":84.222138,"velocity":0.4251968503937008},{"duration":0.22222200000000214,"midi":77,"time":84.222138,"velocity":0.4251968503937008},{"duration":0.22222200000000214,"midi":73,"time":84.44436,"velocity":0.4251968503937008},{"duration":0.22222200000000214,"midi":70,"time":84.44436,"velocity":0.4251968503937008},{"duration":0.22222200000000214,"midi":73,"time":84.666582,"velocity":0.4251968503937008},{"duration":0.22222200000000214,"midi":77,"time":84.666582,"velocity":0.4251968503937008},{"duration":0.22222199999998793,"midi":68,"time":84.88880400000001,"velocity":0.4251968503937008},{"duration":0.22222199999998793,"midi":72,"time":84.88880400000001,"velocity":0.4251968503937008},{"duration":0.22222200000000214,"midi":73,"time":85.111026,"velocity":0.4251968503937008},{"duration":0.22222200000000214,"midi":77,"time":85.111026,"velocity":0.4251968503937008},{"duration":0.05555550000001119,"midi":52,"time":108.3887805,"velocity":0.4251968503937008}]},{"instrument":{"family":"drums","number":0,"name":"standard kit"},"notes":[{"duration":0.111111,"midi":45,"time":0,"velocity":0.7874015748031497},{"duration":0.02777775,"midi":52,"time":0,"velocity":0.7874015748031497},{"duration":0.02777775,"midi":52,"time":0.02777775,"velocity":0.7874015748031497},{"duration":0.027777749999999997,"midi":52,"time":0.0555555,"velocity":0.7874015748031497},{"duration":0.027777750000000004,"midi":52,"time":0.08333325,"velocity":0.7874015748031497},{"duration":0.027777750000000004,"midi":52,"time":0.111111,"velocity":0.7874015748031497},{"duration":0.02777774999999999,"midi":52,"time":0.13888875,"velocity":0.7874015748031497},{"duration":0.027777750000000018,"midi":52,"time":0.1666665,"velocity":0.7874015748031497},{"duration":0.02777774999999999,"midi":52,"time":0.19444425,"velocity":0.7874015748031497},{"duration":0.02777774999999999,"midi":52,"time":0.222222,"velocity":0.7874015748031497},{"duration":0.027777750000000018,"midi":52,"time":0.24999975,"velocity":0.7874015748031497},{"duration":0.02777774999999999,"midi":52,"time":0.2777775,"velocity":0.7874015748031497},{"duration":0.02777774999999999,"midi":52,"time":0.30555525,"velocity":0.7874015748031497},{"duration":0.02777774999999999,"midi":52,"time":0.333333,"velocity":0.7874015748031497},{"duration":0.027777750000000045,"midi":52,"time":0.36111075,"velocity":0.7874015748031497},{"duration":0.02777774999999999,"midi":52,"time":0.3888885,"velocity":0.7874015748031497},{"duration":0.02777774999999999,"midi":52,"time":0.41666625,"velocity":0.7874015748031497},{"duration":0.055555500000000535,"midi":80,"time":20.444424,"velocity":0.7874015748031497},{"duration":0.055555500000000535,"midi":81,"time":20.444424,"velocity":0.7874015748031497},{"duration":0.05555549999999698,"midi":80,"time":20.499979500000002,"velocity":0.7874015748031497},{"duration":0.05555549999999698,"midi":81,"time":20.499979500000002,"velocity":0.7874015748031497},{"duration":0.055555500000000535,"midi":80,"time":20.555535,"velocity":0.7874015748031497},{"duration":0.055555500000000535,"midi":81,"time":20.555535,"velocity":0.7874015748031497},{"duration":0.055555500000000535,"midi":80,"time":20.6110905,"velocity":0.7874015748031497},{"duration":0.055555500000000535,"midi":81,"time":20.6110905,"velocity":0.7874015748031497},{"duration":0.055555500000000535,"midi":80,"time":20.666646,"velocity":0.7874015748031497},{"duration":0.055555500000000535,"midi":81,"time":20.666646,"velocity":0.7874015748031497},{"duration":0.055555500000000535,"midi":81,"time":20.7222015,"velocity":0.7874015748031497},{"duration":0.055555500000000535,"midi":80,"time":20.7222015,"velocity":0.7874015748031497},{"duration":0.055555500000000535,"midi":80,"time":20.777757,"velocity":0.7874015748031497},{"duration":0.055555500000000535,"midi":81,"time":20.777757,"velocity":0.7874015748031497},{"duration":0.055555500000000535,"midi":80,"time":20.888868,"velocity":0.7874015748031497},{"duration":0.055555500000000535,"midi":81,"time":20.888868,"velocity":0.7874015748031497},{"duration":0.055555500000000535,"midi":80,"time":20.9444235,"velocity":0.7874015748031497},{"duration":0.055555500000000535,"midi":81,"time":20.9444235,"velocity":0.7874015748031497},{"duration":0.055555500000000535,"midi":80,"time":20.999979,"velocity":0.7874015748031497},{"duration":0.055555500000000535,"midi":81,"time":20.999979,"velocity":0.7874015748031497},{"duration":0.055555500000000535,"midi":80,"time":21.0555345,"velocity":0.7874015748031497},{"duration":0.055555500000000535,"midi":81,"time":21.0555345,"velocity":0.7874015748031497},{"duration":0.055555500000000535,"midi":81,"time":21.11109,"velocity":0.7874015748031497},{"duration":0.055555500000000535,"midi":80,"time":21.11109,"velocity":0.7874015748031497},{"duration":0.055555500000000535,"midi":80,"time":21.1666455,"velocity":0.7874015748031497},{"duration":0.055555500000000535,"midi":81,"time":21.1666455,"velocity":0.7874015748031497},{"duration":0.05555549999999698,"midi":80,"time":21.222201000000002,"velocity":0.7874015748031497},{"duration":0.05555549999999698,"midi":81,"time":21.222201000000002,"velocity":0.7874015748031497},{"duration":0.22222200000000214,"midi":79,"time":21.333312,"velocity":1.5748031496062993},{"duration":0.22222200000000214,"midi":79,"time":21.333312,"velocity":1.5748031496062993},{"duration":0.22222200000000214,"midi":79,"time":23.111088,"velocity":1.5748031496062993},{"duration":0.22222200000000214,"midi":79,"time":23.111088,"velocity":1.5748031496062993},{"duration":0.2222219999999986,"midi":79,"time":24.888864,"velocity":1.5748031496062993},{"duration":0.2222219999999986,"midi":79,"time":24.888864,"velocity":1.5748031496062993},{"duration":0.2222219999999986,"midi":79,"time":26.66664,"velocity":1.5748031496062993},{"duration":0.2222219999999986,"midi":79,"time":26.66664,"velocity":1.5748031496062993},{"duration":0.055555500000000535,"midi":80,"time":27.555528,"velocity":0.7874015748031497},{"duration":0.055555500000000535,"midi":81,"time":27.555528,"velocity":0.7874015748031497},{"duration":0.055555500000000535,"midi":80,"time":27.6110835,"velocity":0.7874015748031497},{"duration":0.055555500000000535,"midi":81,"time":27.6110835,"velocity":0.7874015748031497},{"duration":0.055555500000000535,"midi":80,"time":27.666639,"velocity":0.7874015748031497},{"duration":0.055555500000000535,"midi":81,"time":27.666639,"velocity":0.7874015748031497},{"duration":0.055555500000000535,"midi":80,"time":27.7221945,"velocity":0.7874015748031497},{"duration":0.055555500000000535,"midi":81,"time":27.7221945,"velocity":0.7874015748031497},{"duration":0.055555500000000535,"midi":81,"time":27.77775,"velocity":0.7874015748031497},{"duration":0.055555500000000535,"midi":80,"time":27.77775,"velocity":0.7874015748031497},{"duration":0.055555500000000535,"midi":80,"time":27.8333055,"velocity":0.7874015748031497},{"duration":0.055555500000000535,"midi":81,"time":27.8333055,"velocity":0.7874015748031497},{"duration":0.05555549999999698,"midi":81,"time":27.888861000000002,"velocity":0.7874015748031497},{"duration":0.05555549999999698,"midi":80,"time":27.888861000000002,"velocity":0.7874015748031497},{"duration":0.055555500000000535,"midi":80,"time":27.999972,"velocity":0.7874015748031497},{"duration":0.055555500000000535,"midi":81,"time":27.999972,"velocity":0.7874015748031497},{"duration":0.055555500000000535,"midi":81,"time":28.0555275,"velocity":0.7874015748031497},{"duration":0.055555500000000535,"midi":80,"time":28.0555275,"velocity":0.7874015748031497},{"duration":0.055555500000000535,"midi":81,"time":28.111083,"velocity":0.7874015748031497},{"duration":0.055555500000000535,"midi":80,"time":28.111083,"velocity":0.7874015748031497},{"duration":0.055555500000000535,"midi":81,"time":28.1666385,"velocity":0.7874015748031497},{"duration":0.055555500000000535,"midi":80,"time":28.1666385,"velocity":0.7874015748031497},{"duration":0.05555549999999698,"midi":81,"time":28.222194000000002,"velocity":0.7874015748031497},{"duration":0.05555549999999698,"midi":80,"time":28.222194000000002,"velocity":0.7874015748031497},{"duration":0.055555500000000535,"midi":80,"time":28.2777495,"velocity":0.7874015748031497},{"duration":0.055555500000000535,"midi":81,"time":28.2777495,"velocity":0.7874015748031497},{"duration":0.055555500000000535,"midi":81,"time":28.333305,"velocity":0.7874015748031497},{"duration":0.055555500000000535,"midi":80,"time":28.333305,"velocity":0.7874015748031497},{"duration":0.05555550000000409,"midi":81,"time":34.666632,"velocity":0.7874015748031497},{"duration":0.05555550000000409,"midi":80,"time":34.666632,"velocity":0.7874015748031497},{"duration":0.05555549999999698,"midi":81,"time":34.722187500000004,"velocity":0.7874015748031497},{"duration":0.05555549999999698,"midi":80,"time":34.722187500000004,"velocity":0.7874015748031497},{"duration":0.05555549999999698,"midi":80,"time":34.777743,"velocity":0.7874015748031497},{"duration":0.05555549999999698,"midi":81,"time":34.777743,"velocity":0.7874015748031497},{"duration":0.05555550000000409,"midi":81,"time":34.8332985,"velocity":0.7874015748031497},{"duration":0.05555550000000409,"midi":80,"time":34.8332985,"velocity":0.7874015748031497},{"duration":0.05555549999999698,"midi":80,"time":34.888854,"velocity":0.7874015748031497},{"duration":0.05555549999999698,"midi":81,"time":34.888854,"velocity":0.7874015748031497},{"duration":0.05555550000000409,"midi":80,"time":34.9444095,"velocity":0.7874015748031497},{"duration":0.05555550000000409,"midi":81,"time":34.9444095,"velocity":0.7874015748031497},{"duration":0.05555549999999698,"midi":80,"time":34.999965,"velocity":0.7874015748031497},{"duration":0.05555549999999698,"midi":81,"time":34.999965,"velocity":0.7874015748031497},{"duration":0.05555550000000409,"midi":80,"time":35.111076,"velocity":0.7874015748031497},{"duration":0.05555550000000409,"midi":81,"time":35.111076,"velocity":0.7874015748031497},{"duration":0.05555549999999698,"midi":80,"time":35.1666315,"velocity":0.7874015748031497},{"duration":0.05555549999999698,"midi":81,"time":35.1666315,"velocity":0.7874015748031497},{"duration":0.05555550000000409,"midi":80,"time":35.222187,"velocity":0.7874015748031497},{"duration":0.05555550000000409,"midi":81,"time":35.222187,"velocity":0.7874015748031497},{"duration":0.05555549999999698,"midi":80,"time":35.2777425,"velocity":0.7874015748031497},{"duration":0.05555549999999698,"midi":81,"time":35.2777425,"velocity":0.7874015748031497},{"duration":0.05555550000000409,"midi":80,"time":35.333298,"velocity":0.7874015748031497},{"duration":0.05555550000000409,"midi":81,"time":35.333298,"velocity":0.7874015748031497},{"duration":0.05555549999999698,"midi":80,"time":35.3888535,"velocity":0.7874015748031497},{"duration":0.05555549999999698,"midi":81,"time":35.3888535,"velocity":0.7874015748031497},{"duration":0.05555549999999698,"midi":80,"time":35.444409,"velocity":0.7874015748031497},{"duration":0.05555549999999698,"midi":81,"time":35.444409,"velocity":0.7874015748031497},{"duration":0.05555550000000409,"midi":80,"time":41.777736,"velocity":0.7874015748031497},{"duration":0.05555550000000409,"midi":81,"time":41.777736,"velocity":0.7874015748031497},{"duration":0.05555549999999698,"midi":81,"time":41.8332915,"velocity":0.7874015748031497},{"duration":0.05555549999999698,"midi":80,"time":41.8332915,"velocity":0.7874015748031497},{"duration":0.05555550000000409,"midi":80,"time":41.888847,"velocity":0.7874015748031497},{"duration":0.05555550000000409,"midi":81,"time":41.888847,"velocity":0.7874015748031497},{"duration":0.05555549999999698,"midi":81,"time":41.9444025,"velocity":0.7874015748031497},{"duration":0.05555549999999698,"midi":80,"time":41.9444025,"velocity":0.7874015748031497},{"duration":0.05555550000000409,"midi":80,"time":41.999958,"velocity":0.7874015748031497},{"duration":0.05555550000000409,"midi":81,"time":41.999958,"velocity":0.7874015748031497},{"duration":0.05555549999999698,"midi":81,"time":42.0555135,"velocity":0.7874015748031497},{"duration":0.05555549999999698,"midi":80,"time":42.0555135,"velocity":0.7874015748031497},{"duration":0.05555549999999698,"midi":81,"time":42.111069,"velocity":0.7874015748031497},{"duration":0.05555549999999698,"midi":80,"time":42.111069,"velocity":0.7874015748031497},{"duration":0.05555549999999698,"midi":81,"time":42.22218,"velocity":0.7874015748031497},{"duration":0.05555549999999698,"midi":80,"time":42.22218,"velocity":0.7874015748031497},{"duration":0.05555550000000409,"midi":80,"time":42.2777355,"velocity":0.7874015748031497},{"duration":0.05555550000000409,"midi":81,"time":42.2777355,"velocity":0.7874015748031497},{"duration":0.05555549999999698,"midi":80,"time":42.333291,"velocity":0.7874015748031497},{"duration":0.05555549999999698,"midi":81,"time":42.333291,"velocity":0.7874015748031497},{"duration":0.05555550000000409,"midi":80,"time":42.3888465,"velocity":0.7874015748031497},{"duration":0.05555550000000409,"midi":81,"time":42.3888465,"velocity":0.7874015748031497},{"duration":0.05555549999999698,"midi":81,"time":42.444402000000004,"velocity":0.7874015748031497},{"duration":0.05555549999999698,"midi":80,"time":42.444402000000004,"velocity":0.7874015748031497},{"duration":0.05555549999999698,"midi":80,"time":42.4999575,"velocity":0.7874015748031497},{"duration":0.05555549999999698,"midi":81,"time":42.4999575,"velocity":0.7874015748031497},{"duration":0.05555550000000409,"midi":80,"time":42.555513,"velocity":0.7874015748031497},{"duration":0.05555550000000409,"midi":81,"time":42.555513,"velocity":0.7874015748031497},{"duration":0.11111100000000107,"midi":79,"time":42.666624,"velocity":1.968503937007874},{"duration":0.11111100000000107,"midi":79,"time":42.666624,"velocity":1.968503937007874},{"duration":0.11111100000000107,"midi":79,"time":42.888846,"velocity":1.2598425196850394},{"duration":0.11111100000000107,"midi":79,"time":42.888846,"velocity":1.968503937007874},{"duration":0.11111099999999396,"midi":79,"time":43.111068,"velocity":1.4881889763779528},{"duration":0.11111099999999396,"midi":79,"time":43.111068,"velocity":1.4881889763779528},{"duration":0.11111100000000107,"midi":79,"time":43.33329,"velocity":1.968503937007874},{"duration":0.11111100000000107,"midi":79,"time":43.33329,"velocity":1.968503937007874},{"duration":0.05555549999999698,"midi":79,"time":43.555512,"velocity":1.2598425196850394},{"duration":0.05555549999999698,"midi":79,"time":43.555512,"velocity":1.2598425196850394},{"duration":0.05555549999999698,"midi":79,"time":43.666623,"velocity":1.2598425196850394},{"duration":0.05555549999999698,"midi":79,"time":43.666623,"velocity":1.2598425196850394},{"duration":0.11111100000000107,"midi":79,"time":43.8332895,"velocity":1.3385826771653544},{"duration":0.11111100000000107,"midi":79,"time":43.8332895,"velocity":1.3385826771653544},{"duration":0.11111100000000107,"midi":79,"time":43.999956,"velocity":1.3385826771653544},{"duration":0.11111100000000107,"midi":79,"time":43.999956,"velocity":1.3385826771653544},{"duration":0.05555549999999698,"midi":79,"time":44.4444,"velocity":1.2598425196850394},{"duration":0.05555549999999698,"midi":79,"time":44.4444,"velocity":1.2598425196850394},{"duration":0.05555549999999698,"midi":79,"time":44.555511,"velocity":1.2598425196850394},{"duration":0.05555549999999698,"midi":79,"time":44.555511,"velocity":1.2598425196850394},{"duration":0.11111100000000107,"midi":79,"time":44.7221775,"velocity":1.4881889763779528},{"duration":0.11111100000000107,"midi":79,"time":44.7221775,"velocity":1.4881889763779528},{"duration":0.05555550000000409,"midi":79,"time":44.888844,"velocity":1.1811023622047243},{"duration":0.05555550000000409,"midi":79,"time":44.888844,"velocity":1.1811023622047243},{"duration":0.05555550000000409,"midi":79,"time":44.999955,"velocity":1.1811023622047243},{"duration":0.05555550000000409,"midi":79,"time":44.999955,"velocity":1.1811023622047243},{"duration":0.11111100000000107,"midi":79,"time":45.1666215,"velocity":1.968503937007874},{"duration":0.11111100000000107,"midi":79,"time":45.1666215,"velocity":1.968503937007874},{"duration":0.05555549999999698,"midi":79,"time":45.333288,"velocity":1.1811023622047243},{"duration":0.05555549999999698,"midi":79,"time":45.333288,"velocity":1.1811023622047243},{"duration":0.05555550000000409,"midi":79,"time":45.444399,"velocity":1.1811023622047243},{"duration":0.05555550000000409,"midi":79,"time":45.444399,"velocity":1.1811023622047243},{"duration":0.11111100000000107,"midi":79,"time":45.6110655,"velocity":1.4881889763779528},{"duration":0.11111100000000107,"midi":79,"time":45.6110655,"velocity":1.4881889763779528},{"duration":0.11111100000000107,"midi":79,"time":45.777732,"velocity":1.968503937007874},{"duration":0.11111100000000107,"midi":79,"time":45.777732,"velocity":1.968503937007874},{"duration":0.05555549999999698,"midi":80,"time":48.88884,"velocity":0.7874015748031497},{"duration":0.05555549999999698,"midi":81,"time":48.88884,"velocity":0.7874015748031497},{"duration":0.05555550000000409,"midi":80,"time":48.9443955,"velocity":0.7874015748031497},{"duration":0.05555550000000409,"midi":81,"time":48.9443955,"velocity":0.7874015748031497},{"duration":0.05555549999999698,"midi":81,"time":48.999951,"velocity":0.7874015748031497},{"duration":0.05555549999999698,"midi":80,"time":48.999951,"velocity":0.7874015748031497},{"duration":0.05555550000000409,"midi":80,"time":49.0555065,"velocity":0.7874015748031497},{"duration":0.05555550000000409,"midi":81,"time":49.0555065,"velocity":0.7874015748031497},{"duration":0.05555549999999698,"midi":80,"time":49.111062000000004,"velocity":0.7874015748031497},{"duration":0.05555549999999698,"midi":81,"time":49.111062000000004,"velocity":0.7874015748031497},{"duration":0.05555549999999698,"midi":80,"time":49.1666175,"velocity":0.7874015748031497},{"duration":0.05555549999999698,"midi":81,"time":49.1666175,"velocity":0.7874015748031497},{"duration":0.05555550000000409,"midi":80,"time":49.222173,"velocity":0.7874015748031497},{"duration":0.05555550000000409,"midi":81,"time":49.222173,"velocity":0.7874015748031497},{"duration":0.05555550000000409,"midi":80,"time":49.333284,"velocity":0.7874015748031497},{"duration":0.05555550000000409,"midi":81,"time":49.333284,"velocity":0.7874015748031497},{"duration":0.05555549999999698,"midi":81,"time":49.3888395,"velocity":0.7874015748031497},{"duration":0.05555549999999698,"midi":80,"time":49.3888395,"velocity":0.7874015748031497},{"duration":0.05555550000000409,"midi":81,"time":49.444395,"velocity":0.7874015748031497},{"duration":0.05555550000000409,"midi":80,"time":49.444395,"velocity":0.7874015748031497},{"duration":0.05555549999999698,"midi":81,"time":49.499950500000004,"velocity":0.7874015748031497},{"duration":0.05555549999999698,"midi":80,"time":49.499950500000004,"velocity":0.7874015748031497},{"duration":0.05555549999999698,"midi":80,"time":49.555506,"velocity":0.7874015748031497},{"duration":0.05555549999999698,"midi":81,"time":49.555506,"velocity":0.7874015748031497},{"duration":0.05555550000000409,"midi":81,"time":49.6110615,"velocity":0.7874015748031497},{"duration":0.05555550000000409,"midi":80,"time":49.6110615,"velocity":0.7874015748031497},{"duration":0.05555549999999698,"midi":81,"time":49.666617,"velocity":0.7874015748031497},{"duration":0.05555549999999698,"midi":80,"time":49.666617,"velocity":0.7874015748031497},{"duration":0.11111099999999396,"midi":79,"time":49.777728,"velocity":1.968503937007874},{"duration":0.11111099999999396,"midi":79,"time":49.777728,"velocity":1.968503937007874},{"duration":0.11111100000000107,"midi":79,"time":49.99995,"velocity":1.968503937007874},{"duration":0.11111100000000107,"midi":79,"time":49.99995,"velocity":1.2598425196850394},{"duration":0.11111100000000107,"midi":79,"time":50.222172,"velocity":1.4881889763779528},{"duration":0.11111100000000107,"midi":79,"time":50.222172,"velocity":1.4881889763779528},{"duration":0.11111100000000107,"midi":79,"time":50.444394,"velocity":1.968503937007874},{"duration":0.11111100000000107,"midi":79,"time":50.444394,"velocity":1.968503937007874},{"duration":0.05555550000000409,"midi":79,"time":50.666616,"velocity":1.2598425196850394},{"duration":0.05555550000000409,"midi":79,"time":50.666616,"velocity":1.2598425196850394},{"duration":0.05555550000000409,"midi":79,"time":50.777727,"velocity":1.2598425196850394},{"duration":0.05555550000000409,"midi":79,"time":50.777727,"velocity":1.2598425196850394},{"duration":0.11111099999999396,"midi":79,"time":50.944393500000004,"velocity":1.3385826771653544},{"duration":0.11111099999999396,"midi":79,"time":50.944393500000004,"velocity":1.3385826771653544},{"duration":0.11111100000000107,"midi":79,"time":51.11106,"velocity":1.3385826771653544},{"duration":0.11111100000000107,"midi":79,"time":51.11106,"velocity":1.3385826771653544},{"duration":0.05555550000000409,"midi":79,"time":51.555504,"velocity":1.2598425196850394},{"duration":0.05555550000000409,"midi":79,"time":51.555504,"velocity":1.2598425196850394},{"duration":0.05555549999999698,"midi":79,"time":51.666615,"velocity":1.2598425196850394},{"duration":0.05555549999999698,"midi":79,"time":51.666615,"velocity":1.2598425196850394},{"duration":0.11111100000000107,"midi":79,"time":51.8332815,"velocity":1.4881889763779528},{"duration":0.11111100000000107,"midi":79,"time":51.8332815,"velocity":1.4881889763779528},{"duration":0.05555549999999698,"midi":79,"time":51.999948,"velocity":1.1811023622047243},{"duration":0.05555549999999698,"midi":79,"time":51.999948,"velocity":1.1811023622047243},{"duration":0.05555550000000409,"midi":79,"time":52.111059,"velocity":1.1811023622047243},{"duration":0.05555550000000409,"midi":79,"time":52.111059,"velocity":1.1811023622047243},{"duration":0.11111100000000107,"midi":79,"time":52.2777255,"velocity":1.968503937007874},{"duration":0.11111100000000107,"midi":79,"time":52.2777255,"velocity":1.968503937007874},{"duration":0.05555549999999698,"midi":79,"time":52.444392,"velocity":1.1811023622047243},{"duration":0.05555549999999698,"midi":79,"time":52.444392,"velocity":1.1811023622047243},{"duration":0.05555549999999698,"midi":79,"time":52.555503,"velocity":1.1811023622047243},{"duration":0.05555549999999698,"midi":79,"time":52.555503,"velocity":1.1811023622047243},{"duration":0.11111100000000107,"midi":79,"time":52.7221695,"velocity":1.4881889763779528},{"duration":0.11111100000000107,"midi":79,"time":52.7221695,"velocity":1.4881889763779528},{"duration":0.11111100000000107,"midi":79,"time":52.888836,"velocity":1.968503937007874},{"duration":0.11111100000000107,"midi":79,"time":52.888836,"velocity":1.968503937007874},{"duration":0.05555550000000409,"midi":81,"time":55.999944,"velocity":0.7874015748031497},{"duration":0.05555550000000409,"midi":80,"time":55.999944,"velocity":0.7874015748031497},{"duration":0.05555549999999698,"midi":81,"time":56.0554995,"velocity":0.7874015748031497},{"duration":0.05555549999999698,"midi":80,"time":56.0554995,"velocity":0.7874015748031497},{"duration":0.05555549999999698,"midi":81,"time":56.111055,"velocity":0.7874015748031497},{"duration":0.05555549999999698,"midi":80,"time":56.111055,"velocity":0.7874015748031497},{"duration":0.05555550000000409,"midi":81,"time":56.1666105,"velocity":0.7874015748031497},{"duration":0.05555550000000409,"midi":80,"time":56.1666105,"velocity":0.7874015748031497},{"duration":0.05555549999999698,"midi":80,"time":56.222166,"velocity":0.7874015748031497},{"duration":0.05555549999999698,"midi":81,"time":56.222166,"velocity":0.7874015748031497},{"duration":0.05555550000000409,"midi":81,"time":56.2777215,"velocity":0.7874015748031497},{"duration":0.05555550000000409,"midi":80,"time":56.2777215,"velocity":0.7874015748031497},{"duration":0.05555549999999698,"midi":81,"time":56.333277,"velocity":0.7874015748031497},{"duration":0.05555549999999698,"midi":80,"time":56.333277,"velocity":0.7874015748031497},{"duration":0.05555549999999698,"midi":80,"time":56.444388000000004,"velocity":0.7874015748031497},{"duration":0.05555549999999698,"midi":81,"time":56.444388000000004,"velocity":0.7874015748031497},{"duration":0.05555549999999698,"midi":81,"time":56.4999435,"velocity":0.7874015748031497},{"duration":0.05555549999999698,"midi":80,"time":56.4999435,"velocity":0.7874015748031497},{"duration":0.05555550000000409,"midi":81,"time":56.555499,"velocity":0.7874015748031497},{"duration":0.05555550000000409,"midi":80,"time":56.555499,"velocity":0.7874015748031497},{"duration":0.05555549999999698,"midi":81,"time":56.6110545,"velocity":0.7874015748031497},{"duration":0.05555549999999698,"midi":80,"time":56.6110545,"velocity":0.7874015748031497},{"duration":0.05555550000000409,"midi":81,"time":56.66661,"velocity":0.7874015748031497},{"duration":0.05555550000000409,"midi":80,"time":56.66661,"velocity":0.7874015748031497},{"duration":0.05555549999999698,"midi":80,"time":56.7221655,"velocity":0.7874015748031497},{"duration":0.05555549999999698,"midi":81,"time":56.7221655,"velocity":0.7874015748031497},{"duration":0.05555550000000409,"midi":81,"time":56.777721,"velocity":0.7874015748031497},{"duration":0.05555550000000409,"midi":80,"time":56.777721,"velocity":0.7874015748031497},{"duration":0.05555549999999698,"midi":81,"time":63.111048000000004,"velocity":0.7874015748031497},{"duration":0.05555549999999698,"midi":80,"time":63.111048000000004,"velocity":0.7874015748031497},{"duration":0.05555549999999698,"midi":81,"time":63.1666035,"velocity":0.7874015748031497},{"duration":0.05555549999999698,"midi":80,"time":63.1666035,"velocity":0.7874015748031497},{"duration":0.05555550000000409,"midi":80,"time":63.222159,"velocity":0.7874015748031497},{"duration":0.05555550000000409,"midi":81,"time":63.222159,"velocity":0.7874015748031497},{"duration":0.05555549999999698,"midi":80,"time":63.2777145,"velocity":0.7874015748031497},{"duration":0.05555549999999698,"midi":81,"time":63.2777145,"velocity":0.7874015748031497},{"duration":0.05555550000000409,"midi":80,"time":63.33327,"velocity":0.7874015748031497},{"duration":0.05555550000000409,"midi":81,"time":63.33327,"velocity":0.7874015748031497},{"duration":0.05555549999999698,"midi":81,"time":63.3888255,"velocity":0.7874015748031497},{"duration":0.05555549999999698,"midi":80,"time":63.3888255,"velocity":0.7874015748031497},{"duration":0.05555550000000409,"midi":81,"time":63.444381,"velocity":0.7874015748031497},{"duration":0.05555550000000409,"midi":80,"time":63.444381,"velocity":0.7874015748031497},{"duration":0.05555549999999698,"midi":81,"time":63.555492,"velocity":0.7874015748031497},{"duration":0.05555549999999698,"midi":80,"time":63.555492,"velocity":0.7874015748031497},{"duration":0.05555550000000409,"midi":80,"time":63.6110475,"velocity":0.7874015748031497},{"duration":0.05555550000000409,"midi":81,"time":63.6110475,"velocity":0.7874015748031497},{"duration":0.05555549999999698,"midi":81,"time":63.666603,"velocity":0.7874015748031497},{"duration":0.05555549999999698,"midi":80,"time":63.666603,"velocity":0.7874015748031497},{"duration":0.05555550000000409,"midi":80,"time":63.7221585,"velocity":0.7874015748031497},{"duration":0.05555550000000409,"midi":81,"time":63.7221585,"velocity":0.7874015748031497},{"duration":0.05555549999999698,"midi":80,"time":63.777714,"velocity":0.7874015748031497},{"duration":0.05555549999999698,"midi":81,"time":63.777714,"velocity":0.7874015748031497},{"duration":0.05555550000000409,"midi":81,"time":63.8332695,"velocity":0.7874015748031497},{"duration":0.05555550000000409,"midi":80,"time":63.8332695,"velocity":0.7874015748031497},{"duration":0.05555549999999698,"midi":80,"time":63.888825000000004,"velocity":0.7874015748031497},{"duration":0.05555549999999698,"midi":81,"time":63.888825000000004,"velocity":0.7874015748031497},{"duration":0.05555550000001119,"midi":81,"time":70.222152,"velocity":0.7874015748031497},{"duration":0.05555550000001119,"midi":80,"time":70.222152,"velocity":0.7874015748031497},{"duration":0.05555549999999698,"midi":80,"time":70.2777075,"velocity":0.7874015748031497},{"duration":0.05555549999999698,"midi":81,"time":70.2777075,"velocity":0.7874015748031497},{"duration":0.05555549999999698,"midi":80,"time":70.333263,"velocity":0.7874015748031497},{"duration":0.05555549999999698,"midi":81,"time":70.333263,"velocity":0.7874015748031497},{"duration":0.05555549999999698,"midi":80,"time":70.3888185,"velocity":0.7874015748031497},{"duration":0.05555549999999698,"midi":81,"time":70.3888185,"velocity":0.7874015748031497},{"duration":0.05555550000001119,"midi":80,"time":70.444374,"velocity":0.7874015748031497},{"duration":0.05555550000001119,"midi":81,"time":70.444374,"velocity":0.7874015748031497},{"duration":0.05555549999999698,"midi":80,"time":70.49992950000001,"velocity":0.7874015748031497},{"duration":0.05555549999999698,"midi":81,"time":70.49992950000001,"velocity":0.7874015748031497},{"duration":0.05555549999999698,"midi":81,"time":70.555485,"velocity":0.7874015748031497},{"duration":0.05555549999999698,"midi":80,"time":70.555485,"velocity":0.7874015748031497},{"duration":0.05555549999999698,"midi":81,"time":70.666596,"velocity":0.7874015748031497},{"duration":0.05555549999999698,"midi":80,"time":70.666596,"velocity":0.7874015748031497},{"duration":0.05555550000001119,"midi":80,"time":70.7221515,"velocity":0.7874015748031497},{"duration":0.05555550000001119,"midi":81,"time":70.7221515,"velocity":0.7874015748031497},{"duration":0.05555549999999698,"midi":81,"time":70.777707,"velocity":0.7874015748031497},{"duration":0.05555549999999698,"midi":80,"time":70.777707,"velocity":0.7874015748031497},{"duration":0.05555549999999698,"midi":81,"time":70.8332625,"velocity":0.7874015748031497},{"duration":0.05555549999999698,"midi":80,"time":70.8332625,"velocity":0.7874015748031497},{"duration":0.05555549999999698,"midi":80,"time":70.888818,"velocity":0.7874015748031497},{"duration":0.05555549999999698,"midi":81,"time":70.888818,"velocity":0.7874015748031497},{"duration":0.05555549999999698,"midi":80,"time":70.9443735,"velocity":0.7874015748031497},{"duration":0.05555549999999698,"midi":81,"time":70.9443735,"velocity":0.7874015748031497},{"duration":0.05555550000001119,"midi":80,"time":70.999929,"velocity":0.7874015748031497},{"duration":0.05555550000001119,"midi":81,"time":70.999929,"velocity":0.7874015748031497},{"duration":0.05555549999999698,"midi":81,"time":77.333256,"velocity":0.7874015748031497},{"duration":0.05555549999999698,"midi":80,"time":77.333256,"velocity":0.7874015748031497},{"duration":0.05555549999999698,"midi":80,"time":77.3888115,"velocity":0.7874015748031497},{"duration":0.05555549999999698,"midi":81,"time":77.3888115,"velocity":0.7874015748031497},{"duration":0.05555549999999698,"midi":81,"time":77.444367,"velocity":0.7874015748031497},{"duration":0.05555549999999698,"midi":80,"time":77.444367,"velocity":0.7874015748031497},{"duration":0.05555550000001119,"midi":80,"time":77.4999225,"velocity":0.7874015748031497},{"duration":0.05555550000001119,"midi":81,"time":77.4999225,"velocity":0.7874015748031497},{"duration":0.05555549999999698,"midi":80,"time":77.55547800000001,"velocity":0.7874015748031497},{"duration":0.05555549999999698,"midi":81,"time":77.55547800000001,"velocity":0.7874015748031497},{"duration":0.05555549999999698,"midi":80,"time":77.6110335,"velocity":0.7874015748031497},{"duration":0.05555549999999698,"midi":81,"time":77.6110335,"velocity":0.7874015748031497},{"duration":0.05555549999999698,"midi":80,"time":77.666589,"velocity":0.7874015748031497},{"duration":0.05555549999999698,"midi":81,"time":77.666589,"velocity":0.7874015748031497},{"duration":0.05555550000001119,"midi":80,"time":77.7777,"velocity":0.7874015748031497},{"duration":0.05555550000001119,"midi":81,"time":77.7777,"velocity":0.7874015748031497},{"duration":0.05555549999999698,"midi":81,"time":77.8332555,"velocity":0.7874015748031497},{"duration":0.05555549999999698,"midi":80,"time":77.8332555,"velocity":0.7874015748031497},{"duration":0.05555549999999698,"midi":81,"time":77.888811,"velocity":0.7874015748031497},{"duration":0.05555549999999698,"midi":80,"time":77.888811,"velocity":0.7874015748031497},{"duration":0.05555549999999698,"midi":81,"time":77.9443665,"velocity":0.7874015748031497},{"duration":0.05555549999999698,"midi":80,"time":77.9443665,"velocity":0.7874015748031497},{"duration":0.05555549999999698,"midi":81,"time":77.999922,"velocity":0.7874015748031497},{"duration":0.05555549999999698,"midi":80,"time":77.999922,"velocity":0.7874015748031497},{"duration":0.05555550000001119,"midi":81,"time":78.0554775,"velocity":0.7874015748031497},{"duration":0.05555550000001119,"midi":80,"time":78.0554775,"velocity":0.7874015748031497},{"duration":0.05555549999999698,"midi":80,"time":78.111033,"velocity":0.7874015748031497},{"duration":0.05555549999999698,"midi":81,"time":78.111033,"velocity":0.7874015748031497},{"duration":0.05555549999999698,"midi":80,"time":84.44436,"velocity":0.7874015748031497},{"duration":0.05555549999999698,"midi":81,"time":84.44436,"velocity":0.7874015748031497},{"duration":0.05555549999999698,"midi":81,"time":84.4999155,"velocity":0.7874015748031497},{"duration":0.05555549999999698,"midi":80,"time":84.4999155,"velocity":0.7874015748031497},{"duration":0.05555549999999698,"midi":81,"time":84.555471,"velocity":0.7874015748031497},{"duration":0.05555549999999698,"midi":80,"time":84.555471,"velocity":0.7874015748031497},{"duration":0.05555550000001119,"midi":80,"time":84.6110265,"velocity":0.7874015748031497},{"duration":0.05555550000001119,"midi":81,"time":84.6110265,"velocity":0.7874015748031497},{"duration":0.05555549999999698,"midi":80,"time":84.666582,"velocity":0.7874015748031497},{"duration":0.05555549999999698,"midi":81,"time":84.666582,"velocity":0.7874015748031497},{"duration":0.05555549999999698,"midi":80,"time":84.7221375,"velocity":0.7874015748031497},{"duration":0.05555549999999698,"midi":81,"time":84.7221375,"velocity":0.7874015748031497},{"duration":0.05555549999999698,"midi":81,"time":84.777693,"velocity":0.7874015748031497},{"duration":0.05555549999999698,"midi":80,"time":84.777693,"velocity":0.7874015748031497},{"duration":0.05555549999999698,"midi":80,"time":84.88880400000001,"velocity":0.7874015748031497},{"duration":0.05555549999999698,"midi":81,"time":84.88880400000001,"velocity":0.7874015748031497},{"duration":0.05555549999999698,"midi":80,"time":84.9443595,"velocity":0.7874015748031497},{"duration":0.05555549999999698,"midi":81,"time":84.9443595,"velocity":0.7874015748031497},{"duration":0.05555549999999698,"midi":81,"time":84.999915,"velocity":0.7874015748031497},{"duration":0.05555549999999698,"midi":80,"time":84.999915,"velocity":0.7874015748031497},{"duration":0.05555549999999698,"midi":81,"time":85.0554705,"velocity":0.7874015748031497},{"duration":0.05555549999999698,"midi":80,"time":85.0554705,"velocity":0.7874015748031497},{"duration":0.05555550000001119,"midi":81,"time":85.111026,"velocity":0.7874015748031497},{"duration":0.05555550000001119,"midi":80,"time":85.111026,"velocity":0.7874015748031497},{"duration":0.05555549999999698,"midi":81,"time":85.1665815,"velocity":0.7874015748031497},{"duration":0.05555549999999698,"midi":80,"time":85.1665815,"velocity":0.7874015748031497},{"duration":0.05555549999999698,"midi":80,"time":85.222137,"velocity":0.7874015748031497},{"duration":0.05555549999999698,"midi":81,"time":85.222137,"velocity":0.7874015748031497},{"duration":0.05555549999999698,"midi":81,"time":91.555464,"velocity":0.7874015748031497},{"duration":0.05555549999999698,"midi":80,"time":91.555464,"velocity":0.7874015748031497},{"duration":0.05555549999999698,"midi":80,"time":91.6110195,"velocity":0.7874015748031497},{"duration":0.05555549999999698,"midi":81,"time":91.6110195,"velocity":0.7874015748031497},{"duration":0.05555550000001119,"midi":80,"time":91.666575,"velocity":0.7874015748031497},{"duration":0.05555550000001119,"midi":81,"time":91.666575,"velocity":0.7874015748031497},{"duration":0.05555549999999698,"midi":80,"time":91.7221305,"velocity":0.7874015748031497},{"duration":0.05555549999999698,"midi":81,"time":91.7221305,"velocity":0.7874015748031497},{"duration":0.05555549999999698,"midi":80,"time":91.777686,"velocity":0.7874015748031497},{"duration":0.05555549999999698,"midi":81,"time":91.777686,"velocity":0.7874015748031497},{"duration":0.05555549999999698,"midi":81,"time":91.8332415,"velocity":0.7874015748031497},{"duration":0.05555549999999698,"midi":80,"time":91.8332415,"velocity":0.7874015748031497},{"duration":0.05555550000001119,"midi":81,"time":91.888797,"velocity":0.7874015748031497},{"duration":0.05555550000001119,"midi":80,"time":91.888797,"velocity":0.7874015748031497},{"duration":0.05555549999999698,"midi":80,"time":91.999908,"velocity":0.7874015748031497},{"duration":0.05555549999999698,"midi":81,"time":91.999908,"velocity":0.7874015748031497},{"duration":0.05555549999999698,"midi":80,"time":92.0554635,"velocity":0.7874015748031497},{"duration":0.05555549999999698,"midi":81,"time":92.0554635,"velocity":0.7874015748031497},{"duration":0.05555549999999698,"midi":81,"time":92.111019,"velocity":0.7874015748031497},{"duration":0.05555549999999698,"midi":80,"time":92.111019,"velocity":0.7874015748031497},{"duration":0.05555550000001119,"midi":80,"time":92.1665745,"velocity":0.7874015748031497},{"duration":0.05555550000001119,"midi":81,"time":92.1665745,"velocity":0.7874015748031497},{"duration":0.05555549999999698,"midi":80,"time":92.22213,"velocity":0.7874015748031497},{"duration":0.05555549999999698,"midi":81,"time":92.22213,"velocity":0.7874015748031497},{"duration":0.05555549999999698,"midi":80,"time":92.2776855,"velocity":0.7874015748031497},{"duration":0.05555549999999698,"midi":81,"time":92.2776855,"velocity":0.7874015748031497},{"duration":0.05555549999999698,"midi":80,"time":92.333241,"velocity":0.7874015748031497},{"duration":0.05555549999999698,"midi":81,"time":92.333241,"velocity":0.7874015748031497},{"duration":0.22222200000000214,"midi":79,"time":92.444352,"velocity":1.5748031496062993},{"duration":0.22222200000000214,"midi":79,"time":92.444352,"velocity":1.5748031496062993},{"duration":0.22222200000000214,"midi":79,"time":94.222128,"velocity":1.5748031496062993},{"duration":0.22222200000000214,"midi":79,"time":94.222128,"velocity":1.5748031496062993},{"duration":0.22222200000000214,"midi":79,"time":95.999904,"velocity":1.5748031496062993},{"duration":0.22222200000000214,"midi":79,"time":95.999904,"velocity":1.5748031496062993},{"duration":0.22222200000000214,"midi":79,"time":97.77768,"velocity":1.5748031496062993},{"duration":0.22222200000000214,"midi":79,"time":97.77768,"velocity":1.5748031496062993},{"duration":0.05555549999999698,"midi":80,"time":98.666568,"velocity":0.7874015748031497},{"duration":0.05555549999999698,"midi":81,"time":98.666568,"velocity":0.7874015748031497},{"duration":0.05555550000001119,"midi":81,"time":98.7221235,"velocity":0.7874015748031497},{"duration":0.05555550000001119,"midi":80,"time":98.7221235,"velocity":0.7874015748031497},{"duration":0.05555549999999698,"midi":80,"time":98.777679,"velocity":0.7874015748031497},{"duration":0.05555549999999698,"midi":81,"time":98.777679,"velocity":0.7874015748031497},{"duration":0.05555549999999698,"midi":80,"time":98.8332345,"velocity":0.7874015748031497},{"duration":0.05555549999999698,"midi":81,"time":98.8332345,"velocity":0.7874015748031497},{"duration":0.05555549999999698,"midi":80,"time":98.88879,"velocity":0.7874015748031497},{"duration":0.05555549999999698,"midi":81,"time":98.88879,"velocity":0.7874015748031497},{"duration":0.05555550000001119,"midi":80,"time":98.9443455,"velocity":0.7874015748031497},{"duration":0.05555550000001119,"midi":81,"time":98.9443455,"velocity":0.7874015748031497},{"duration":0.05555549999999698,"midi":80,"time":98.99990100000001,"velocity":0.7874015748031497},{"duration":0.05555549999999698,"midi":81,"time":98.99990100000001,"velocity":0.7874015748031497},{"duration":0.05555549999999698,"midi":81,"time":99.111012,"velocity":0.7874015748031497},{"duration":0.05555549999999698,"midi":80,"time":99.111012,"velocity":0.7874015748031497},{"duration":0.05555549999999698,"midi":80,"time":99.1665675,"velocity":0.7874015748031497},{"duration":0.05555549999999698,"midi":81,"time":99.1665675,"velocity":0.7874015748031497},{"duration":0.05555550000001119,"midi":81,"time":99.222123,"velocity":0.7874015748031497},{"duration":0.05555550000001119,"midi":80,"time":99.222123,"velocity":0.7874015748031497},{"duration":0.05555549999999698,"midi":81,"time":99.27767850000001,"velocity":0.7874015748031497},{"duration":0.05555549999999698,"midi":80,"time":99.27767850000001,"velocity":0.7874015748031497},{"duration":0.05555549999999698,"midi":81,"time":99.333234,"velocity":0.7874015748031497},{"duration":0.05555549999999698,"midi":80,"time":99.333234,"velocity":0.7874015748031497},{"duration":0.05555549999999698,"midi":80,"time":99.3887895,"velocity":0.7874015748031497},{"duration":0.05555549999999698,"midi":81,"time":99.3887895,"velocity":0.7874015748031497},{"duration":0.05555549999999698,"midi":81,"time":99.444345,"velocity":0.7874015748031497},{"duration":0.05555549999999698,"midi":80,"time":99.444345,"velocity":0.7874015748031497},{"duration":0.05555550000001119,"midi":80,"time":105.777672,"velocity":0.7874015748031497},{"duration":0.05555550000001119,"midi":81,"time":105.777672,"velocity":0.7874015748031497},{"duration":0.05555549999999698,"midi":81,"time":105.8332275,"velocity":0.7874015748031497},{"duration":0.05555549999999698,"midi":80,"time":105.8332275,"velocity":0.7874015748031497},{"duration":0.05555549999999698,"midi":81,"time":105.888783,"velocity":0.7874015748031497},{"duration":0.05555549999999698,"midi":80,"time":105.888783,"velocity":0.7874015748031497},{"duration":0.05555549999999698,"midi":80,"time":105.9443385,"velocity":0.7874015748031497},{"duration":0.05555549999999698,"midi":81,"time":105.9443385,"velocity":0.7874015748031497},{"duration":0.05555549999999698,"midi":81,"time":105.999894,"velocity":0.7874015748031497},{"duration":0.05555549999999698,"midi":80,"time":105.999894,"velocity":0.7874015748031497},{"duration":0.05555550000001119,"midi":81,"time":106.0554495,"velocity":0.7874015748031497},{"duration":0.05555550000001119,"midi":80,"time":106.0554495,"velocity":0.7874015748031497},{"duration":0.05555549999999698,"midi":80,"time":106.111005,"velocity":0.7874015748031497},{"duration":0.05555549999999698,"midi":81,"time":106.111005,"velocity":0.7874015748031497},{"duration":0.05555549999999698,"midi":80,"time":106.222116,"velocity":0.7874015748031497},{"duration":0.05555549999999698,"midi":81,"time":106.222116,"velocity":0.7874015748031497},{"duration":0.05555550000001119,"midi":81,"time":106.2776715,"velocity":0.7874015748031497},{"duration":0.05555550000001119,"midi":80,"time":106.2776715,"velocity":0.7874015748031497},{"duration":0.05555549999999698,"midi":81,"time":106.33322700000001,"velocity":0.7874015748031497},{"duration":0.05555549999999698,"midi":80,"time":106.33322700000001,"velocity":0.7874015748031497},{"duration":0.05555549999999698,"midi":81,"time":106.3887825,"velocity":0.7874015748031497},{"duration":0.05555549999999698,"midi":80,"time":106.3887825,"velocity":0.7874015748031497},{"duration":0.05555549999999698,"midi":80,"time":106.444338,"velocity":0.7874015748031497},{"duration":0.05555549999999698,"midi":81,"time":106.444338,"velocity":0.7874015748031497},{"duration":0.05555549999999698,"midi":81,"time":106.4998935,"velocity":0.7874015748031497},{"duration":0.05555549999999698,"midi":80,"time":106.4998935,"velocity":0.7874015748031497},{"duration":0.05555550000001119,"midi":80,"time":106.555449,"velocity":0.7874015748031497},{"duration":0.05555550000001119,"midi":81,"time":106.555449,"velocity":0.7874015748031497},{"duration":0.11111099999999396,"midi":79,"time":106.66656,"velocity":1.4173228346456692},{"duration":0.11111099999999396,"midi":79,"time":106.66656,"velocity":1.4173228346456692},{"duration":0.11111099999999396,"midi":79,"time":106.888782,"velocity":1.015748031496063},{"duration":0.11111099999999396,"midi":79,"time":106.888782,"velocity":1.015748031496063},{"duration":0.11111099999999396,"midi":58,"time":107.11100400000001,"velocity":1.015748031496063},{"duration":0.11111099999999396,"midi":55,"time":107.11100400000001,"velocity":1.015748031496063},{"duration":0.11111099999999396,"midi":49,"time":107.11100400000001,"velocity":1.015748031496063},{"duration":0.11111100000000818,"midi":79,"time":107.555448,"velocity":1.4173228346456692},{"duration":0.11111100000000818,"midi":79,"time":107.555448,"velocity":1.4173228346456692},{"duration":0.11111099999999396,"midi":79,"time":107.77767,"velocity":1.015748031496063},{"duration":0.11111099999999396,"midi":79,"time":107.77767,"velocity":1.015748031496063},{"duration":0.11111099999999396,"midi":55,"time":107.999892,"velocity":1.015748031496063},{"duration":0.11111099999999396,"midi":59,"time":107.999892,"velocity":1.015748031496063},{"duration":0.11111099999999396,"midi":49,"time":107.999892,"velocity":1.015748031496063},{"duration":0.11111099999999396,"midi":79,"time":108.444336,"velocity":1.4173228346456692},{"duration":0.11111099999999396,"midi":79,"time":108.444336,"velocity":1.4173228346456692},{"duration":0.11111100000000818,"midi":79,"time":108.666558,"velocity":1.015748031496063},{"duration":0.11111100000000818,"midi":79,"time":108.666558,"velocity":1.015748031496063},{"duration":0.11111100000000818,"midi":79,"time":108.88878,"velocity":1.4173228346456692},{"duration":0.11111100000000818,"midi":79,"time":108.88878,"velocity":1.4173228346456692},{"duration":0.11111100000000818,"midi":79,"time":109.111002,"velocity":1.015748031496063},{"duration":0.11111100000000818,"midi":79,"time":109.111002,"velocity":1.015748031496063},{"duration":0.11111099999999396,"midi":79,"time":109.333224,"velocity":1.4173228346456692},{"duration":0.11111099999999396,"midi":79,"time":109.333224,"velocity":1.4173228346456692},{"duration":0.11111099999999396,"midi":79,"time":109.555446,"velocity":1.015748031496063},{"duration":0.11111099999999396,"midi":79,"time":109.555446,"velocity":1.015748031496063},{"duration":0.11111099999999396,"midi":79,"time":109.777668,"velocity":1.4173228346456692},{"duration":0.11111099999999396,"midi":79,"time":109.777668,"velocity":1.4173228346456692},{"duration":0.11111099999999396,"midi":79,"time":109.99989000000001,"velocity":1.015748031496063},{"duration":0.11111099999999396,"midi":79,"time":109.99989000000001,"velocity":1.015748031496063},{"duration":0.11111100000000818,"midi":79,"time":110.222112,"velocity":1.4173228346456692},{"duration":0.11111100000000818,"midi":79,"time":110.222112,"velocity":1.4173228346456692},{"duration":0.11111100000000818,"midi":79,"time":110.444334,"velocity":1.094488188976378},{"duration":0.11111100000000818,"midi":79,"time":110.444334,"velocity":1.094488188976378},{"duration":0.11111100000000818,"midi":55,"time":110.666556,"velocity":1.015748031496063},{"duration":0.11111100000000818,"midi":49,"time":110.666556,"velocity":1.015748031496063},{"duration":0.11111100000000818,"midi":59,"time":110.666556,"velocity":1.015748031496063},{"duration":0.11111099999999396,"midi":49,"time":111.111,"velocity":1.015748031496063},{"duration":0.11111099999999396,"midi":55,"time":111.111,"velocity":1.015748031496063},{"duration":0.11111099999999396,"midi":59,"time":111.111,"velocity":1.015748031496063},{"duration":0.11111099999999396,"midi":79,"time":111.333222,"velocity":1.094488188976378},{"duration":0.11111099999999396,"midi":79,"time":111.333222,"velocity":1.1811023622047243},{"duration":0.11111099999999396,"midi":79,"time":111.55544400000001,"velocity":1.1811023622047243},{"duration":0.11111099999999396,"midi":79,"time":111.55544400000001,"velocity":1.1811023622047243},{"duration":0.11111100000000818,"midi":79,"time":111.777666,"velocity":1.015748031496063},{"duration":0.11111100000000818,"midi":79,"time":111.777666,"velocity":1.015748031496063},{"duration":0.05555549999999698,"midi":81,"time":119.99988,"velocity":0.7874015748031497},{"duration":0.05555549999999698,"midi":80,"time":119.99988,"velocity":0.7874015748031497},{"duration":0.05555549999999698,"midi":81,"time":120.0554355,"velocity":0.7874015748031497},{"duration":0.05555549999999698,"midi":80,"time":120.0554355,"velocity":0.7874015748031497},{"duration":0.05555549999999698,"midi":80,"time":120.110991,"velocity":0.7874015748031497},{"duration":0.05555549999999698,"midi":81,"time":120.110991,"velocity":0.7874015748031497},{"duration":0.05555550000001119,"midi":80,"time":120.1665465,"velocity":0.7874015748031497},{"duration":0.05555550000001119,"midi":81,"time":120.1665465,"velocity":0.7874015748031497},{"duration":0.05555549999999698,"midi":81,"time":120.222102,"velocity":0.7874015748031497},{"duration":0.05555549999999698,"midi":80,"time":120.222102,"velocity":0.7874015748031497},{"duration":0.05555549999999698,"midi":80,"time":120.2776575,"velocity":0.7874015748031497},{"duration":0.05555549999999698,"midi":81,"time":120.2776575,"velocity":0.7874015748031497},{"duration":0.05555549999999698,"midi":81,"time":120.333213,"velocity":0.7874015748031497},{"duration":0.05555549999999698,"midi":80,"time":120.333213,"velocity":0.7874015748031497},{"duration":0.05555550000001119,"midi":81,"time":120.444324,"velocity":0.7874015748031497},{"duration":0.05555550000001119,"midi":80,"time":120.444324,"velocity":0.7874015748031497},{"duration":0.05555549999999698,"midi":80,"time":120.4998795,"velocity":0.7874015748031497},{"duration":0.05555549999999698,"midi":81,"time":120.4998795,"velocity":0.7874015748031497},{"duration":0.05555549999999698,"midi":81,"time":120.555435,"velocity":0.7874015748031497},{"duration":0.05555549999999698,"midi":80,"time":120.555435,"velocity":0.7874015748031497},{"duration":0.05555549999999698,"midi":80,"time":120.6109905,"velocity":0.7874015748031497},{"duration":0.05555549999999698,"midi":81,"time":120.6109905,"velocity":0.7874015748031497},{"duration":0.05555550000001119,"midi":80,"time":120.666546,"velocity":0.7874015748031497},{"duration":0.05555550000001119,"midi":81,"time":120.666546,"velocity":0.7874015748031497},{"duration":0.05555549999999698,"midi":81,"time":120.72210150000001,"velocity":0.7874015748031497},{"duration":0.05555549999999698,"midi":80,"time":120.72210150000001,"velocity":0.7874015748031497},{"duration":0.05555549999999698,"midi":81,"time":120.777657,"velocity":0.7874015748031497},{"duration":0.05555549999999698,"midi":80,"time":120.777657,"velocity":0.7874015748031497},{"duration":0.05555549999999698,"midi":81,"time":127.110984,"velocity":0.7874015748031497},{"duration":0.05555549999999698,"midi":80,"time":127.110984,"velocity":0.7874015748031497},{"duration":0.05555549999999698,"midi":81,"time":127.1665395,"velocity":0.7874015748031497},{"duration":0.05555549999999698,"midi":80,"time":127.1665395,"velocity":0.7874015748031497},{"duration":0.05555550000001119,"midi":80,"time":127.222095,"velocity":0.7874015748031497},{"duration":0.05555550000001119,"midi":81,"time":127.222095,"velocity":0.7874015748031497},{"duration":0.05555549999999698,"midi":81,"time":127.27765050000001,"velocity":0.7874015748031497},{"duration":0.05555549999999698,"midi":80,"time":127.27765050000001,"velocity":0.7874015748031497},{"duration":0.05555549999999698,"midi":80,"time":127.333206,"velocity":0.7874015748031497},{"duration":0.05555549999999698,"midi":81,"time":127.333206,"velocity":0.7874015748031497},{"duration":0.05555549999999698,"midi":81,"time":127.3887615,"velocity":0.7874015748031497},{"duration":0.05555549999999698,"midi":80,"time":127.3887615,"velocity":0.7874015748031497},{"duration":0.05555549999999698,"midi":81,"time":127.444317,"velocity":0.7874015748031497},{"duration":0.05555549999999698,"midi":80,"time":127.444317,"velocity":0.7874015748031497},{"duration":0.05555549999999698,"midi":80,"time":127.555428,"velocity":0.7874015748031497},{"duration":0.05555549999999698,"midi":81,"time":127.555428,"velocity":0.7874015748031497},{"duration":0.05555549999999698,"midi":80,"time":127.6109835,"velocity":0.7874015748031497},{"duration":0.05555549999999698,"midi":81,"time":127.6109835,"velocity":0.7874015748031497},{"duration":0.05555549999999698,"midi":80,"time":127.666539,"velocity":0.7874015748031497},{"duration":0.05555549999999698,"midi":81,"time":127.666539,"velocity":0.7874015748031497},{"duration":0.05555550000001119,"midi":81,"time":127.7220945,"velocity":0.7874015748031497},{"duration":0.05555550000001119,"midi":80,"time":127.7220945,"velocity":0.7874015748031497},{"duration":0.05555549999999698,"midi":81,"time":127.77765000000001,"velocity":0.7874015748031497},{"duration":0.05555549999999698,"midi":80,"time":127.77765000000001,"velocity":0.7874015748031497},{"duration":0.05555549999999698,"midi":80,"time":127.8332055,"velocity":0.7874015748031497},{"duration":0.05555549999999698,"midi":81,"time":127.8332055,"velocity":0.7874015748031497},{"duration":0.05555549999999698,"midi":81,"time":127.888761,"velocity":0.7874015748031497},{"duration":0.05555549999999698,"midi":80,"time":127.888761,"velocity":0.7874015748031497},{"duration":0.05555549999999698,"midi":80,"time":134.222088,"velocity":0.7874015748031497},{"duration":0.05555549999999698,"midi":81,"time":134.222088,"velocity":0.7874015748031497},{"duration":0.05555549999999698,"midi":80,"time":134.2776435,"velocity":0.7874015748031497},{"duration":0.05555549999999698,"midi":81,"time":134.2776435,"velocity":0.7874015748031497},{"duration":0.05555549999999698,"midi":80,"time":134.333199,"velocity":0.7874015748031497},{"duration":0.05555549999999698,"midi":81,"time":134.333199,"velocity":0.7874015748031497},{"duration":0.05555549999999698,"midi":81,"time":134.3887545,"velocity":0.7874015748031497},{"duration":0.05555549999999698,"midi":80,"time":134.3887545,"velocity":0.7874015748031497},{"duration":0.05555549999999698,"midi":81,"time":134.44431,"velocity":0.7874015748031497},{"duration":0.05555549999999698,"midi":80,"time":134.44431,"velocity":0.7874015748031497},{"duration":0.05555549999999698,"midi":80,"time":134.4998655,"velocity":0.7874015748031497},{"duration":0.05555549999999698,"midi":81,"time":134.4998655,"velocity":0.7874015748031497},{"duration":0.05555549999999698,"midi":80,"time":134.555421,"velocity":0.7874015748031497},{"duration":0.05555549999999698,"midi":81,"time":134.555421,"velocity":0.7874015748031497},{"duration":0.055555500000025404,"midi":80,"time":134.666532,"velocity":0.7874015748031497},{"duration":0.055555500000025404,"midi":81,"time":134.666532,"velocity":0.7874015748031497},{"duration":0.05555549999999698,"midi":81,"time":134.72208750000001,"velocity":0.7874015748031497},{"duration":0.05555549999999698,"midi":80,"time":134.72208750000001,"velocity":0.7874015748031497},{"duration":0.05555549999999698,"midi":80,"time":134.777643,"velocity":0.7874015748031497},{"duration":0.05555549999999698,"midi":81,"time":134.777643,"velocity":0.7874015748031497},{"duration":0.05555549999999698,"midi":81,"time":134.8331985,"velocity":0.7874015748031497},{"duration":0.05555549999999698,"midi":80,"time":134.8331985,"velocity":0.7874015748031497},{"duration":0.05555549999999698,"midi":81,"time":134.888754,"velocity":0.7874015748031497},{"duration":0.05555549999999698,"midi":80,"time":134.888754,"velocity":0.7874015748031497},{"duration":0.05555549999999698,"midi":81,"time":134.9443095,"velocity":0.7874015748031497},{"duration":0.05555549999999698,"midi":80,"time":134.9443095,"velocity":0.7874015748031497},{"duration":0.05555549999999698,"midi":81,"time":134.999865,"velocity":0.7874015748031497},{"duration":0.05555549999999698,"midi":80,"time":134.999865,"velocity":0.7874015748031497},{"duration":0.05555549999999698,"midi":81,"time":141.333192,"velocity":0.7874015748031497},{"duration":0.05555549999999698,"midi":80,"time":141.333192,"velocity":0.7874015748031497},{"duration":0.05555549999999698,"midi":80,"time":141.3887475,"velocity":0.7874015748031497},{"duration":0.05555549999999698,"midi":81,"time":141.3887475,"velocity":0.7874015748031497},{"duration":0.05555549999999698,"midi":80,"time":141.444303,"velocity":0.7874015748031497},{"duration":0.05555549999999698,"midi":81,"time":141.444303,"velocity":0.7874015748031497},{"duration":0.055555500000025404,"midi":80,"time":141.4998585,"velocity":0.7874015748031497},{"duration":0.055555500000025404,"midi":81,"time":141.4998585,"velocity":0.7874015748031497},{"duration":0.05555549999999698,"midi":80,"time":141.555414,"velocity":0.7874015748031497},{"duration":0.05555549999999698,"midi":81,"time":141.555414,"velocity":0.7874015748031497},{"duration":0.05555549999999698,"midi":81,"time":141.6109695,"velocity":0.7874015748031497},{"duration":0.05555549999999698,"midi":80,"time":141.6109695,"velocity":0.7874015748031497},{"duration":0.05555549999999698,"midi":81,"time":141.666525,"velocity":0.7874015748031497},{"duration":0.05555549999999698,"midi":80,"time":141.666525,"velocity":0.7874015748031497},{"duration":0.05555549999999698,"midi":81,"time":141.777636,"velocity":0.7874015748031497},{"duration":0.05555549999999698,"midi":80,"time":141.777636,"velocity":0.7874015748031497},{"duration":0.05555549999999698,"midi":81,"time":141.8331915,"velocity":0.7874015748031497},{"duration":0.05555549999999698,"midi":80,"time":141.8331915,"velocity":0.7874015748031497},{"duration":0.05555549999999698,"midi":80,"time":141.888747,"velocity":0.7874015748031497},{"duration":0.05555549999999698,"midi":81,"time":141.888747,"velocity":0.7874015748031497},{"duration":0.05555549999999698,"midi":80,"time":141.9443025,"velocity":0.7874015748031497},{"duration":0.05555549999999698,"midi":81,"time":141.9443025,"velocity":0.7874015748031497},{"duration":0.055555500000025404,"midi":80,"time":141.999858,"velocity":0.7874015748031497},{"duration":0.055555500000025404,"midi":81,"time":141.999858,"velocity":0.7874015748031497},{"duration":0.05555549999999698,"midi":81,"time":142.05541350000001,"velocity":0.7874015748031497},{"duration":0.05555549999999698,"midi":80,"time":142.05541350000001,"velocity":0.7874015748031497},{"duration":0.05555549999999698,"midi":80,"time":142.110969,"velocity":0.7874015748031497},{"duration":0.05555549999999698,"midi":81,"time":142.110969,"velocity":0.7874015748031497}]},{"instrument":{"family":"synth lead","number":80,"name":"lead 1 (square)"},"notes":[{"duration":0.111111,"midi":58,"time":0,"velocity":0.5275590551181102},{"duration":0.111111,"midi":53,"time":0,"velocity":0.5275590551181102},{"duration":0.111111,"midi":58,"time":0.111111,"velocity":0.5275590551181102},{"duration":0.111111,"midi":53,"time":0.111111,"velocity":0.5275590551181102},{"duration":0.11111099999999999,"midi":58,"time":0.222222,"velocity":0.5275590551181102},{"duration":0.11111099999999999,"midi":53,"time":0.222222,"velocity":0.5275590551181102},{"duration":0.11111100000000002,"midi":58,"time":0.333333,"velocity":0.5275590551181102},{"duration":0.11111100000000002,"midi":53,"time":0.333333,"velocity":0.5275590551181102},{"duration":0.11111100000000002,"midi":58,"time":0.444444,"velocity":0.5275590551181102},{"duration":0.11111100000000002,"midi":53,"time":0.444444,"velocity":0.5275590551181102},{"duration":0.11111099999999996,"midi":53,"time":0.555555,"velocity":0.5275590551181102},{"duration":0.11111099999999996,"midi":58,"time":0.555555,"velocity":0.5275590551181102},{"duration":0.11111100000000007,"midi":53,"time":0.666666,"velocity":0.5275590551181102},{"duration":0.11111100000000007,"midi":58,"time":0.666666,"velocity":0.5275590551181102},{"duration":0.11111099999999996,"midi":53,"time":0.777777,"velocity":0.5275590551181102},{"duration":0.11111099999999996,"midi":58,"time":0.777777,"velocity":0.5275590551181102},{"duration":0.11111099999999996,"midi":58,"time":0.888888,"velocity":0.5275590551181102},{"duration":0.11111099999999996,"midi":53,"time":0.888888,"velocity":0.5275590551181102},{"duration":0.11111100000000007,"midi":53,"time":0.999999,"velocity":0.5275590551181102},{"duration":0.11111100000000007,"midi":58,"time":0.999999,"velocity":0.5275590551181102},{"duration":0.11111099999999996,"midi":53,"time":1.11111,"velocity":0.5275590551181102},{"duration":0.11111099999999996,"midi":58,"time":1.11111,"velocity":0.5275590551181102},{"duration":0.11111099999999996,"midi":58,"time":1.222221,"velocity":0.5275590551181102},{"duration":0.11111099999999996,"midi":53,"time":1.222221,"velocity":0.5275590551181102},{"duration":0.11111099999999996,"midi":53,"time":1.333332,"velocity":0.5275590551181102},{"duration":0.11111099999999996,"midi":58,"time":1.333332,"velocity":0.5275590551181102},{"duration":0.11111100000000018,"midi":58,"time":1.444443,"velocity":0.5275590551181102},{"duration":0.11111100000000018,"midi":53,"time":1.444443,"velocity":0.5275590551181102},{"duration":0.11111099999999996,"midi":58,"time":1.555554,"velocity":0.5275590551181102},{"duration":0.11111099999999996,"midi":53,"time":1.555554,"velocity":0.5275590551181102},{"duration":0.11111099999999996,"midi":53,"time":1.666665,"velocity":0.5275590551181102},{"duration":0.11111099999999996,"midi":58,"time":1.666665,"velocity":0.5275590551181102},{"duration":0.11111099999999996,"midi":52,"time":1.777776,"velocity":0.5275590551181102},{"duration":0.11111099999999996,"midi":58,"time":1.777776,"velocity":0.5275590551181102},{"duration":0.11111099999999996,"midi":52,"time":1.888887,"velocity":0.5275590551181102},{"duration":0.11111099999999996,"midi":58,"time":1.888887,"velocity":0.5275590551181102},{"duration":0.11111099999999996,"midi":52,"time":1.999998,"velocity":0.5275590551181102},{"duration":0.11111099999999996,"midi":58,"time":1.999998,"velocity":0.5275590551181102},{"duration":0.11111100000000018,"midi":52,"time":2.111109,"velocity":0.5275590551181102},{"duration":0.11111100000000018,"midi":58,"time":2.111109,"velocity":0.5275590551181102},{"duration":0.11111099999999974,"midi":52,"time":2.22222,"velocity":0.5275590551181102},{"duration":0.11111099999999974,"midi":58,"time":2.22222,"velocity":0.5275590551181102},{"duration":0.11111100000000018,"midi":58,"time":2.333331,"velocity":0.5275590551181102},{"duration":0.11111100000000018,"midi":52,"time":2.333331,"velocity":0.5275590551181102},{"duration":0.11111100000000018,"midi":52,"time":2.444442,"velocity":0.5275590551181102},{"duration":0.11111100000000018,"midi":58,"time":2.444442,"velocity":0.5275590551181102},{"duration":0.11111099999999974,"midi":58,"time":2.555553,"velocity":0.5275590551181102},{"duration":0.11111099999999974,"midi":52,"time":2.555553,"velocity":0.5275590551181102},{"duration":0.11111100000000018,"midi":52,"time":2.666664,"velocity":0.5275590551181102},{"duration":0.11111100000000018,"midi":58,"time":2.666664,"velocity":0.5275590551181102},{"duration":0.11111099999999974,"midi":52,"time":2.777775,"velocity":0.5275590551181102},{"duration":0.11111099999999974,"midi":58,"time":2.777775,"velocity":0.5275590551181102},{"duration":0.11111100000000018,"midi":58,"time":2.888886,"velocity":0.5275590551181102},{"duration":0.11111100000000018,"midi":52,"time":2.888886,"velocity":0.5275590551181102},{"duration":0.11111100000000018,"midi":52,"time":2.999997,"velocity":0.5275590551181102},{"duration":0.11111100000000018,"midi":58,"time":2.999997,"velocity":0.5275590551181102},{"duration":0.11111099999999974,"midi":52,"time":3.111108,"velocity":0.5275590551181102},{"duration":0.11111099999999974,"midi":58,"time":3.111108,"velocity":0.5275590551181102},{"duration":0.11111100000000018,"midi":58,"time":3.222219,"velocity":0.5275590551181102},{"duration":0.11111100000000018,"midi":52,"time":3.222219,"velocity":0.5275590551181102},{"duration":0.11111099999999974,"midi":58,"time":3.33333,"velocity":0.5275590551181102},{"duration":0.11111099999999974,"midi":52,"time":3.33333,"velocity":0.5275590551181102},{"duration":0.11111100000000018,"midi":58,"time":3.444441,"velocity":0.5275590551181102},{"duration":0.11111100000000018,"midi":52,"time":3.444441,"velocity":0.5275590551181102},{"duration":0.11111100000000018,"midi":58,"time":3.555552,"velocity":0.5275590551181102},{"duration":0.11111100000000018,"midi":53,"time":3.555552,"velocity":0.5275590551181102},{"duration":0.11111099999999974,"midi":53,"time":3.6666630000000002,"velocity":0.5275590551181102},{"duration":0.11111099999999974,"midi":58,"time":3.6666630000000002,"velocity":0.5275590551181102},{"duration":0.11111100000000018,"midi":58,"time":3.777774,"velocity":0.5275590551181102},{"duration":0.11111100000000018,"midi":53,"time":3.777774,"velocity":0.5275590551181102},{"duration":0.11111099999999974,"midi":58,"time":3.888885,"velocity":0.5275590551181102},{"duration":0.11111099999999974,"midi":53,"time":3.888885,"velocity":0.5275590551181102},{"duration":0.11111099999999974,"midi":53,"time":3.999996,"velocity":0.5275590551181102},{"duration":0.11111099999999974,"midi":58,"time":3.999996,"velocity":0.5275590551181102},{"duration":0.11111100000000018,"midi":58,"time":4.111107,"velocity":0.5275590551181102},{"duration":0.11111100000000018,"midi":53,"time":4.111107,"velocity":0.5275590551181102},{"duration":0.11111100000000018,"midi":53,"time":4.222218,"velocity":0.5275590551181102},{"duration":0.11111100000000018,"midi":58,"time":4.222218,"velocity":0.5275590551181102},{"duration":0.11111100000000018,"midi":58,"time":4.333329,"velocity":0.5275590551181102},{"duration":0.11111100000000018,"midi":53,"time":4.333329,"velocity":0.5275590551181102},{"duration":0.11111100000000018,"midi":58,"time":4.44444,"velocity":0.5275590551181102},{"duration":0.11111100000000018,"midi":53,"time":4.44444,"velocity":0.5275590551181102},{"duration":0.1111109999999993,"midi":58,"time":4.555551,"velocity":0.5275590551181102},{"duration":0.1111109999999993,"midi":53,"time":4.555551,"velocity":0.5275590551181102},{"duration":0.11111100000000018,"midi":53,"time":4.666662,"velocity":0.5275590551181102},{"duration":0.11111100000000018,"midi":58,"time":4.666662,"velocity":0.5275590551181102},{"duration":0.11111100000000018,"midi":58,"time":4.777773,"velocity":0.5275590551181102},{"duration":0.11111100000000018,"midi":53,"time":4.777773,"velocity":0.5275590551181102},{"duration":0.11111100000000018,"midi":53,"time":4.888884,"velocity":0.5275590551181102},{"duration":0.11111100000000018,"midi":58,"time":4.888884,"velocity":0.5275590551181102},{"duration":0.11111100000000018,"midi":58,"time":4.999995,"velocity":0.5275590551181102},{"duration":0.11111100000000018,"midi":53,"time":4.999995,"velocity":0.5275590551181102},{"duration":0.1111109999999993,"midi":58,"time":5.111106,"velocity":0.5275590551181102},{"duration":0.1111109999999993,"midi":53,"time":5.111106,"velocity":0.5275590551181102},{"duration":0.11111100000000018,"midi":58,"time":5.222217,"velocity":0.5275590551181102},{"duration":0.11111100000000018,"midi":53,"time":5.222217,"velocity":0.5275590551181102},{"duration":0.11111100000000018,"midi":56,"time":5.333328,"velocity":0.5275590551181102},{"duration":0.11111100000000018,"midi":58,"time":5.333328,"velocity":0.5275590551181102},{"duration":0.11111100000000018,"midi":56,"time":5.444439,"velocity":0.5275590551181102},{"duration":0.11111100000000018,"midi":58,"time":5.444439,"velocity":0.5275590551181102},{"duration":0.11111100000000018,"midi":56,"time":5.55555,"velocity":0.5275590551181102},{"duration":0.11111100000000018,"midi":58,"time":5.55555,"velocity":0.5275590551181102},{"duration":0.1111109999999993,"midi":56,"time":5.666661,"velocity":0.5275590551181102},{"duration":0.1111109999999993,"midi":58,"time":5.666661,"velocity":0.5275590551181102},{"duration":0.11111100000000018,"midi":58,"time":5.777772,"velocity":0.5275590551181102},{"duration":0.11111100000000018,"midi":56,"time":5.777772,"velocity":0.5275590551181102},{"duration":0.11111100000000018,"midi":56,"time":5.888883,"velocity":0.5275590551181102},{"duration":0.11111100000000018,"midi":58,"time":5.888883,"velocity":0.5275590551181102},{"duration":0.11111100000000018,"midi":56,"time":5.999994,"velocity":0.5275590551181102},{"duration":0.11111100000000018,"midi":58,"time":5.999994,"velocity":0.5275590551181102},{"duration":0.11111100000000018,"midi":56,"time":6.111105,"velocity":0.5275590551181102},{"duration":0.11111100000000018,"midi":58,"time":6.111105,"velocity":0.5275590551181102},{"duration":0.1111109999999993,"midi":58,"time":6.222216,"velocity":0.5275590551181102},{"duration":0.1111109999999993,"midi":56,"time":6.222216,"velocity":0.5275590551181102},{"duration":0.11111100000000018,"midi":58,"time":6.333327,"velocity":0.5275590551181102},{"duration":0.11111100000000018,"midi":56,"time":6.333327,"velocity":0.5275590551181102},{"duration":0.11111100000000018,"midi":56,"time":6.444438,"velocity":0.5275590551181102},{"duration":0.11111100000000018,"midi":58,"time":6.444438,"velocity":0.5275590551181102},{"duration":0.11111100000000018,"midi":58,"time":6.555549,"velocity":0.5275590551181102},{"duration":0.11111100000000018,"midi":56,"time":6.555549,"velocity":0.5275590551181102},{"duration":0.11111100000000018,"midi":56,"time":6.66666,"velocity":0.5275590551181102},{"duration":0.11111100000000018,"midi":58,"time":6.66666,"velocity":0.5275590551181102},{"duration":0.1111109999999993,"midi":56,"time":6.777771,"velocity":0.5275590551181102},{"duration":0.1111109999999993,"midi":58,"time":6.777771,"velocity":0.5275590551181102},{"duration":0.11111100000000018,"midi":58,"time":6.888882,"velocity":0.5275590551181102},{"duration":0.11111100000000018,"midi":56,"time":6.888882,"velocity":0.5275590551181102},{"duration":0.11111100000000018,"midi":56,"time":6.999993,"velocity":0.5275590551181102},{"duration":0.11111100000000018,"midi":58,"time":6.999993,"velocity":0.5275590551181102},{"duration":0.11111100000000018,"midi":58,"time":7.111104,"velocity":0.5275590551181102},{"duration":0.11111100000000018,"midi":53,"time":7.111104,"velocity":0.5275590551181102},{"duration":0.11111100000000018,"midi":58,"time":7.222215,"velocity":0.5275590551181102},{"duration":0.11111100000000018,"midi":53,"time":7.222215,"velocity":0.5275590551181102},{"duration":0.1111109999999993,"midi":58,"time":7.3333260000000005,"velocity":0.5275590551181102},{"duration":0.1111109999999993,"midi":53,"time":7.3333260000000005,"velocity":0.5275590551181102},{"duration":0.11111100000000018,"midi":53,"time":7.444437,"velocity":0.5275590551181102},{"duration":0.11111100000000018,"midi":58,"time":7.444437,"velocity":0.5275590551181102},{"duration":0.11111100000000018,"midi":53,"time":7.555548,"velocity":0.5275590551181102},{"duration":0.11111100000000018,"midi":58,"time":7.555548,"velocity":0.5275590551181102},{"duration":0.11111100000000018,"midi":53,"time":7.666659,"velocity":0.5275590551181102},{"duration":0.11111100000000018,"midi":58,"time":7.666659,"velocity":0.5275590551181102},{"duration":0.11111100000000018,"midi":58,"time":7.77777,"velocity":0.5275590551181102},{"duration":0.11111100000000018,"midi":53,"time":7.77777,"velocity":0.5275590551181102},{"duration":0.1111109999999993,"midi":53,"time":7.8888810000000005,"velocity":0.5275590551181102},{"duration":0.1111109999999993,"midi":58,"time":7.8888810000000005,"velocity":0.5275590551181102},{"duration":0.11111100000000018,"midi":58,"time":7.999992,"velocity":0.5275590551181102},{"duration":0.11111100000000018,"midi":53,"time":7.999992,"velocity":0.5275590551181102},{"duration":0.1111109999999993,"midi":53,"time":8.111103,"velocity":0.5275590551181102},{"duration":0.1111109999999993,"midi":58,"time":8.111103,"velocity":0.5275590551181102},{"duration":0.11111100000000107,"midi":53,"time":8.222214,"velocity":0.5275590551181102},{"duration":0.11111100000000107,"midi":58,"time":8.222214,"velocity":0.5275590551181102},{"duration":0.1111109999999993,"midi":53,"time":8.333325,"velocity":0.5275590551181102},{"duration":0.1111109999999993,"midi":58,"time":8.333325,"velocity":0.5275590551181102},{"duration":0.11111100000000107,"midi":58,"time":8.444436,"velocity":0.5275590551181102},{"duration":0.11111100000000107,"midi":53,"time":8.444436,"velocity":0.5275590551181102},{"duration":0.1111109999999993,"midi":53,"time":8.555547,"velocity":0.5275590551181102},{"duration":0.1111109999999993,"midi":58,"time":8.555547,"velocity":0.5275590551181102},{"duration":0.1111109999999993,"midi":58,"time":8.666658,"velocity":0.5275590551181102},{"duration":0.1111109999999993,"midi":53,"time":8.666658,"velocity":0.5275590551181102},{"duration":0.11111100000000107,"midi":58,"time":8.777769,"velocity":0.5275590551181102},{"duration":0.11111100000000107,"midi":53,"time":8.777769,"velocity":0.5275590551181102},{"duration":0.1111109999999993,"midi":58,"time":8.88888,"velocity":0.5275590551181102},{"duration":0.1111109999999993,"midi":52,"time":8.88888,"velocity":0.5275590551181102},{"duration":0.11111100000000107,"midi":52,"time":8.999991,"velocity":0.5275590551181102},{"duration":0.11111100000000107,"midi":58,"time":8.999991,"velocity":0.5275590551181102},{"duration":0.1111109999999993,"midi":52,"time":9.111102,"velocity":0.5275590551181102},{"duration":0.1111109999999993,"midi":58,"time":9.111102,"velocity":0.5275590551181102},{"duration":0.1111109999999993,"midi":58,"time":9.222213,"velocity":0.5275590551181102},{"duration":0.1111109999999993,"midi":52,"time":9.222213,"velocity":0.5275590551181102},{"duration":0.11111100000000107,"midi":58,"time":9.333324,"velocity":0.5275590551181102},{"duration":0.11111100000000107,"midi":52,"time":9.333324,"velocity":0.5275590551181102},{"duration":0.1111109999999993,"midi":52,"time":9.444435,"velocity":0.5275590551181102},{"duration":0.1111109999999993,"midi":58,"time":9.444435,"velocity":0.5275590551181102},{"duration":0.11111100000000107,"midi":58,"time":9.555546,"velocity":0.5275590551181102},{"duration":0.11111100000000107,"midi":52,"time":9.555546,"velocity":0.5275590551181102},{"duration":0.1111109999999993,"midi":58,"time":9.666657,"velocity":0.5275590551181102},{"duration":0.1111109999999993,"midi":52,"time":9.666657,"velocity":0.5275590551181102},{"duration":0.1111109999999993,"midi":58,"time":9.777768,"velocity":0.5275590551181102},{"duration":0.1111109999999993,"midi":52,"time":9.777768,"velocity":0.5275590551181102},{"duration":0.11111100000000107,"midi":52,"time":9.888879,"velocity":0.5275590551181102},{"duration":0.11111100000000107,"midi":58,"time":9.888879,"velocity":0.5275590551181102},{"duration":0.1111109999999993,"midi":52,"time":9.99999,"velocity":0.5275590551181102},{"duration":0.1111109999999993,"midi":58,"time":9.99999,"velocity":0.5275590551181102},{"duration":0.11111100000000107,"midi":58,"time":10.111101,"velocity":0.5275590551181102},{"duration":0.11111100000000107,"midi":52,"time":10.111101,"velocity":0.5275590551181102},{"duration":0.1111109999999993,"midi":58,"time":10.222212,"velocity":0.5275590551181102},{"duration":0.1111109999999993,"midi":52,"time":10.222212,"velocity":0.5275590551181102},{"duration":0.1111109999999993,"midi":58,"time":10.333323,"velocity":0.5275590551181102},{"duration":0.1111109999999993,"midi":52,"time":10.333323,"velocity":0.5275590551181102},{"duration":0.11111100000000107,"midi":52,"time":10.444434,"velocity":0.5275590551181102},{"duration":0.11111100000000107,"midi":58,"time":10.444434,"velocity":0.5275590551181102},{"duration":0.1111109999999993,"midi":58,"time":10.555545,"velocity":0.5275590551181102},{"duration":0.1111109999999993,"midi":52,"time":10.555545,"velocity":0.5275590551181102},{"duration":0.11111100000000107,"midi":58,"time":10.666656,"velocity":0.5275590551181102},{"duration":0.11111100000000107,"midi":53,"time":10.666656,"velocity":0.5275590551181102},{"duration":0.1111109999999993,"midi":58,"time":10.777767,"velocity":0.5275590551181102},{"duration":0.1111109999999993,"midi":53,"time":10.777767,"velocity":0.5275590551181102},{"duration":0.1111109999999993,"midi":58,"time":10.888878,"velocity":0.5275590551181102},{"duration":0.1111109999999993,"midi":53,"time":10.888878,"velocity":0.5275590551181102},{"duration":0.11111100000000107,"midi":58,"time":10.999989,"velocity":0.5275590551181102},{"duration":0.11111100000000107,"midi":53,"time":10.999989,"velocity":0.5275590551181102},{"duration":0.1111109999999993,"midi":58,"time":11.1111,"velocity":0.5275590551181102},{"duration":0.1111109999999993,"midi":53,"time":11.1111,"velocity":0.5275590551181102},{"duration":0.11111100000000107,"midi":58,"time":11.222211,"velocity":0.5275590551181102},{"duration":0.11111100000000107,"midi":53,"time":11.222211,"velocity":0.5275590551181102},{"duration":0.1111109999999993,"midi":53,"time":11.333322,"velocity":0.5275590551181102},{"duration":0.1111109999999993,"midi":58,"time":11.333322,"velocity":0.5275590551181102},{"duration":0.1111109999999993,"midi":58,"time":11.444433,"velocity":0.5275590551181102},{"duration":0.1111109999999993,"midi":53,"time":11.444433,"velocity":0.5275590551181102},{"duration":0.11111100000000107,"midi":53,"time":11.555544,"velocity":0.5275590551181102},{"duration":0.11111100000000107,"midi":58,"time":11.555544,"velocity":0.5275590551181102},{"duration":0.1111109999999993,"midi":53,"time":11.666655,"velocity":0.5275590551181102},{"duration":0.1111109999999993,"midi":58,"time":11.666655,"velocity":0.5275590551181102},{"duration":0.11111100000000107,"midi":53,"time":11.777766,"velocity":0.5275590551181102},{"duration":0.11111100000000107,"midi":58,"time":11.777766,"velocity":0.5275590551181102},{"duration":0.1111109999999993,"midi":58,"time":11.888877,"velocity":0.5275590551181102},{"duration":0.1111109999999993,"midi":53,"time":11.888877,"velocity":0.5275590551181102},{"duration":0.1111109999999993,"midi":58,"time":11.999988,"velocity":0.5275590551181102},{"duration":0.1111109999999993,"midi":53,"time":11.999988,"velocity":0.5275590551181102},{"duration":0.11111100000000107,"midi":58,"time":12.111099,"velocity":0.5275590551181102},{"duration":0.11111100000000107,"midi":53,"time":12.111099,"velocity":0.5275590551181102},{"duration":0.1111109999999993,"midi":53,"time":12.22221,"velocity":0.5275590551181102},{"duration":0.1111109999999993,"midi":58,"time":12.22221,"velocity":0.5275590551181102},{"duration":0.11111100000000107,"midi":58,"time":12.333321,"velocity":0.5275590551181102},{"duration":0.11111100000000107,"midi":53,"time":12.333321,"velocity":0.5275590551181102},{"duration":0.1111109999999993,"midi":58,"time":12.444432,"velocity":0.5275590551181102},{"duration":0.1111109999999993,"midi":56,"time":12.444432,"velocity":0.5275590551181102},{"duration":0.1111109999999993,"midi":56,"time":12.555543,"velocity":0.5275590551181102},{"duration":0.1111109999999993,"midi":58,"time":12.555543,"velocity":0.5275590551181102},{"duration":0.11111100000000107,"midi":58,"time":12.666654,"velocity":0.5275590551181102},{"duration":0.11111100000000107,"midi":56,"time":12.666654,"velocity":0.5275590551181102},{"duration":0.1111109999999993,"midi":58,"time":12.777765,"velocity":0.5275590551181102},{"duration":0.1111109999999993,"midi":56,"time":12.777765,"velocity":0.5275590551181102},{"duration":0.11111100000000107,"midi":58,"time":12.888876,"velocity":0.5275590551181102},{"duration":0.11111100000000107,"midi":56,"time":12.888876,"velocity":0.5275590551181102},{"duration":0.1111109999999993,"midi":58,"time":12.999987,"velocity":0.5275590551181102},{"duration":0.1111109999999993,"midi":56,"time":12.999987,"velocity":0.5275590551181102},{"duration":0.1111109999999993,"midi":58,"time":13.111098,"velocity":0.5275590551181102},{"duration":0.1111109999999993,"midi":56,"time":13.111098,"velocity":0.5275590551181102},{"duration":0.11111100000000107,"midi":56,"time":13.222209,"velocity":0.5275590551181102},{"duration":0.11111100000000107,"midi":58,"time":13.222209,"velocity":0.5275590551181102},{"duration":0.1111109999999993,"midi":58,"time":13.33332,"velocity":0.5275590551181102},{"duration":0.1111109999999993,"midi":56,"time":13.33332,"velocity":0.5275590551181102},{"duration":0.11111100000000107,"midi":56,"time":13.444431,"velocity":0.5275590551181102},{"duration":0.11111100000000107,"midi":58,"time":13.444431,"velocity":0.5275590551181102},{"duration":0.1111109999999993,"midi":56,"time":13.555542,"velocity":0.5275590551181102},{"duration":0.1111109999999993,"midi":58,"time":13.555542,"velocity":0.5275590551181102},{"duration":0.1111109999999993,"midi":58,"time":13.666653,"velocity":0.5275590551181102},{"duration":0.1111109999999993,"midi":56,"time":13.666653,"velocity":0.5275590551181102},{"duration":0.11111100000000107,"midi":58,"time":13.777764,"velocity":0.5275590551181102},{"duration":0.11111100000000107,"midi":56,"time":13.777764,"velocity":0.5275590551181102},{"duration":0.1111109999999993,"midi":58,"time":13.888875,"velocity":0.5275590551181102},{"duration":0.1111109999999993,"midi":56,"time":13.888875,"velocity":0.5275590551181102},{"duration":0.11111100000000107,"midi":56,"time":13.999986,"velocity":0.5275590551181102},{"duration":0.11111100000000107,"midi":58,"time":13.999986,"velocity":0.5275590551181102},{"duration":0.1111109999999993,"midi":56,"time":14.111097000000001,"velocity":0.5275590551181102},{"duration":0.1111109999999993,"midi":58,"time":14.111097000000001,"velocity":0.5275590551181102},{"duration":0.11111100000000107,"midi":58,"time":28.444416,"velocity":0.5275590551181102},{"duration":0.11111100000000107,"midi":53,"time":28.444416,"velocity":0.5275590551181102},{"duration":0.11111099999999752,"midi":53,"time":28.555527,"velocity":0.5275590551181102},{"duration":0.11111099999999752,"midi":58,"time":28.555527,"velocity":0.5275590551181102},{"duration":0.11111100000000107,"midi":53,"time":28.666638,"velocity":0.5275590551181102},{"duration":0.11111100000000107,"midi":58,"time":28.666638,"velocity":0.5275590551181102},{"duration":0.11111100000000107,"midi":77,"time":28.666638,"velocity":0.5275590551181102},{"duration":0.11111100000000107,"midi":53,"time":28.777749,"velocity":0.5275590551181102},{"duration":0.11111100000000107,"midi":58,"time":28.777749,"velocity":0.5275590551181102},{"duration":0.11111099999999752,"midi":53,"time":28.88886,"velocity":0.5275590551181102},{"duration":0.11111099999999752,"midi":58,"time":28.88886,"velocity":0.5275590551181102},{"duration":0.11111100000000107,"midi":53,"time":28.999971,"velocity":0.5275590551181102},{"duration":0.11111100000000107,"midi":58,"time":28.999971,"velocity":0.5275590551181102},{"duration":0.11111100000000107,"midi":77,"time":28.999971,"velocity":0.5275590551181102},{"duration":0.11111100000000107,"midi":58,"time":29.111082,"velocity":0.5275590551181102},{"duration":0.11111100000000107,"midi":53,"time":29.111082,"velocity":0.5275590551181102},{"duration":0.11111100000000107,"midi":58,"time":29.222193,"velocity":0.5275590551181102},{"duration":0.11111100000000107,"midi":53,"time":29.222193,"velocity":0.5275590551181102},{"duration":0.11111099999999752,"midi":53,"time":29.333304000000002,"velocity":0.5275590551181102},{"duration":0.11111099999999752,"midi":77,"time":29.333304000000002,"velocity":0.5275590551181102},{"duration":0.11111099999999752,"midi":58,"time":29.333304000000002,"velocity":0.5275590551181102},{"duration":0.11111100000000107,"midi":53,"time":29.444415,"velocity":0.5275590551181102},{"duration":0.11111100000000107,"midi":58,"time":29.444415,"velocity":0.5275590551181102},{"duration":0.11111100000000107,"midi":58,"time":29.555526,"velocity":0.5275590551181102},{"duration":0.11111100000000107,"midi":53,"time":29.555526,"velocity":0.5275590551181102},{"duration":0.11111099999999752,"midi":80,"time":29.666637,"velocity":0.5275590551181102},{"duration":0.11111099999999752,"midi":58,"time":29.666637,"velocity":0.5275590551181102},{"duration":0.11111099999999752,"midi":53,"time":29.666637,"velocity":0.5275590551181102},{"duration":0.11111100000000107,"midi":53,"time":29.777748,"velocity":0.5275590551181102},{"duration":0.11111100000000107,"midi":58,"time":29.777748,"velocity":0.5275590551181102},{"duration":0.11111100000000107,"midi":53,"time":29.888859,"velocity":0.5275590551181102},{"duration":0.11111100000000107,"midi":58,"time":29.888859,"velocity":0.5275590551181102},{"duration":0.11111099999999752,"midi":58,"time":29.99997,"velocity":0.5275590551181102},{"duration":0.11111099999999752,"midi":53,"time":29.99997,"velocity":0.5275590551181102},{"duration":0.11111099999999752,"midi":82,"time":29.99997,"velocity":0.5275590551181102},{"duration":0.11111100000000107,"midi":53,"time":30.111081,"velocity":0.5275590551181102},{"duration":0.11111100000000107,"midi":58,"time":30.111081,"velocity":0.5275590551181102},{"duration":0.11111100000000107,"midi":58,"time":30.222192,"velocity":0.5275590551181102},{"duration":0.11111100000000107,"midi":52,"time":30.222192,"velocity":0.5275590551181102},{"duration":0.11111100000000107,"midi":52,"time":30.333303,"velocity":0.5275590551181102},{"duration":0.11111100000000107,"midi":58,"time":30.333303,"velocity":0.5275590551181102},{"duration":0.11111099999999752,"midi":77,"time":30.444414000000002,"velocity":0.5275590551181102},{"duration":0.11111099999999752,"midi":58,"time":30.444414000000002,"velocity":0.5275590551181102},{"duration":0.11111099999999752,"midi":52,"time":30.444414000000002,"velocity":0.5275590551181102},{"duration":0.11111100000000107,"midi":58,"time":30.555525,"velocity":0.5275590551181102},{"duration":0.11111100000000107,"midi":52,"time":30.555525,"velocity":0.5275590551181102},{"duration":0.11111100000000107,"midi":52,"time":30.666636,"velocity":0.5275590551181102},{"duration":0.11111100000000107,"midi":58,"time":30.666636,"velocity":0.5275590551181102},{"duration":0.11111099999999752,"midi":77,"time":30.777747,"velocity":0.5275590551181102},{"duration":0.11111099999999752,"midi":58,"time":30.777747,"velocity":0.5275590551181102},{"duration":0.11111099999999752,"midi":52,"time":30.777747,"velocity":0.5275590551181102},{"duration":0.11111100000000107,"midi":58,"time":30.888858,"velocity":0.5275590551181102},{"duration":0.11111100000000107,"midi":52,"time":30.888858,"velocity":0.5275590551181102},{"duration":0.11111100000000107,"midi":58,"time":30.999969,"velocity":0.5275590551181102},{"duration":0.11111100000000107,"midi":52,"time":30.999969,"velocity":0.5275590551181102},{"duration":0.11111099999999752,"midi":52,"time":31.11108,"velocity":0.5275590551181102},{"duration":0.11111099999999752,"midi":58,"time":31.11108,"velocity":0.5275590551181102},{"duration":0.11111099999999752,"midi":83,"time":31.11108,"velocity":0.5275590551181102},{"duration":0.11111100000000107,"midi":52,"time":31.222191,"velocity":0.5275590551181102},{"duration":0.11111100000000107,"midi":58,"time":31.222191,"velocity":0.5275590551181102},{"duration":0.11111100000000107,"midi":52,"time":31.333302,"velocity":0.5275590551181102},{"duration":0.11111100000000107,"midi":58,"time":31.333302,"velocity":0.5275590551181102},{"duration":0.11111100000000107,"midi":52,"time":31.444413,"velocity":0.5275590551181102},{"duration":0.11111100000000107,"midi":80,"time":31.444413,"velocity":0.5275590551181102},{"duration":0.11111100000000107,"midi":58,"time":31.444413,"velocity":0.5275590551181102},{"duration":0.11111099999999752,"midi":58,"time":31.555524000000002,"velocity":0.5275590551181102},{"duration":0.11111099999999752,"midi":52,"time":31.555524000000002,"velocity":0.5275590551181102},{"duration":0.11111100000000107,"midi":58,"time":31.666635,"velocity":0.5275590551181102},{"duration":0.11111100000000107,"midi":52,"time":31.666635,"velocity":0.5275590551181102},{"duration":0.11111100000000107,"midi":52,"time":31.777746,"velocity":0.5275590551181102},{"duration":0.11111100000000107,"midi":82,"time":31.777746,"velocity":0.5275590551181102},{"duration":0.11111100000000107,"midi":58,"time":31.777746,"velocity":0.5275590551181102},{"duration":0.11111099999999752,"midi":58,"time":31.888857,"velocity":0.5275590551181102},{"duration":0.11111099999999752,"midi":52,"time":31.888857,"velocity":0.5275590551181102},{"duration":0.11111100000000462,"midi":53,"time":31.999968,"velocity":0.5275590551181102},{"duration":0.11111100000000462,"midi":58,"time":31.999968,"velocity":0.5275590551181102},{"duration":0.11111099999999396,"midi":53,"time":32.111079000000004,"velocity":0.5275590551181102},{"duration":0.11111099999999396,"midi":58,"time":32.111079000000004,"velocity":0.5275590551181102},{"duration":0.11111100000000107,"midi":58,"time":32.22219,"velocity":0.5275590551181102},{"duration":0.11111100000000107,"midi":53,"time":32.22219,"velocity":0.5275590551181102},{"duration":0.11111100000000107,"midi":77,"time":32.22219,"velocity":0.5275590551181102},{"duration":0.11111100000000107,"midi":58,"time":32.333301,"velocity":0.5275590551181102},{"duration":0.11111100000000107,"midi":53,"time":32.333301,"velocity":0.5275590551181102},{"duration":0.11111100000000107,"midi":53,"time":32.444412,"velocity":0.5275590551181102},{"duration":0.11111100000000107,"midi":58,"time":32.444412,"velocity":0.5275590551181102},{"duration":0.11111100000000107,"midi":77,"time":32.555523,"velocity":0.5275590551181102},{"duration":0.11111100000000107,"midi":53,"time":32.555523,"velocity":0.5275590551181102},{"duration":0.11111100000000107,"midi":58,"time":32.555523,"velocity":0.5275590551181102},{"duration":0.11111100000000107,"midi":53,"time":32.666634,"velocity":0.5275590551181102},{"duration":0.11111100000000107,"midi":58,"time":32.666634,"velocity":0.5275590551181102},{"duration":0.11111099999999396,"midi":53,"time":32.777745,"velocity":0.5275590551181102},{"duration":0.11111099999999396,"midi":58,"time":32.777745,"velocity":0.5275590551181102},{"duration":0.11111100000000107,"midi":77,"time":32.888856,"velocity":0.5275590551181102},{"duration":0.11111100000000107,"midi":53,"time":32.888856,"velocity":0.5275590551181102},{"duration":0.11111100000000107,"midi":58,"time":32.888856,"velocity":0.5275590551181102},{"duration":0.11111100000000107,"midi":53,"time":32.999967,"velocity":0.5275590551181102},{"duration":0.11111100000000107,"midi":58,"time":32.999967,"velocity":0.5275590551181102},{"duration":0.11111100000000107,"midi":58,"time":33.111078,"velocity":0.5275590551181102},{"duration":0.11111100000000107,"midi":53,"time":33.111078,"velocity":0.5275590551181102},{"duration":0.11111100000000107,"midi":58,"time":33.222189,"velocity":0.5275590551181102},{"duration":0.11111100000000107,"midi":53,"time":33.222189,"velocity":0.5275590551181102},{"duration":0.11111100000000107,"midi":80,"time":33.222189,"velocity":0.5275590551181102},{"duration":0.11111100000000107,"midi":58,"time":33.3333,"velocity":0.5275590551181102},{"duration":0.11111100000000107,"midi":53,"time":33.3333,"velocity":0.5275590551181102},{"duration":0.11111100000000107,"midi":53,"time":33.444411,"velocity":0.5275590551181102},{"duration":0.11111100000000107,"midi":58,"time":33.444411,"velocity":0.5275590551181102},{"duration":0.11111099999999396,"midi":82,"time":33.555522,"velocity":0.5275590551181102},{"duration":0.11111099999999396,"midi":58,"time":33.555522,"velocity":0.5275590551181102},{"duration":0.11111099999999396,"midi":53,"time":33.555522,"velocity":0.5275590551181102},{"duration":0.11111100000000107,"midi":53,"time":33.666633,"velocity":0.5275590551181102},{"duration":0.11111100000000107,"midi":58,"time":33.666633,"velocity":0.5275590551181102},{"duration":0.11111100000000107,"midi":56,"time":33.777744,"velocity":0.5275590551181102},{"duration":0.11111100000000107,"midi":58,"time":33.777744,"velocity":0.5275590551181102},{"duration":0.11111100000000107,"midi":56,"time":33.888855,"velocity":0.5275590551181102},{"duration":0.11111100000000107,"midi":58,"time":33.888855,"velocity":0.5275590551181102},{"duration":0.11111100000000107,"midi":56,"time":33.999966,"velocity":0.5275590551181102},{"duration":0.11111100000000107,"midi":77,"time":33.999966,"velocity":0.5275590551181102},{"duration":0.11111100000000107,"midi":58,"time":33.999966,"velocity":0.5275590551181102},{"duration":0.11111100000000107,"midi":56,"time":34.111077,"velocity":0.5275590551181102},{"duration":0.11111100000000107,"midi":58,"time":34.111077,"velocity":0.5275590551181102},{"duration":0.11111100000000107,"midi":56,"time":34.222188,"velocity":0.5275590551181102},{"duration":0.11111100000000107,"midi":58,"time":34.222188,"velocity":0.5275590551181102},{"duration":0.11111099999999396,"midi":56,"time":34.333299000000004,"velocity":0.5275590551181102},{"duration":0.11111099999999396,"midi":58,"time":34.333299000000004,"velocity":0.5275590551181102},{"duration":0.11111099999999396,"midi":77,"time":34.333299000000004,"velocity":0.5275590551181102},{"duration":0.11111100000000107,"midi":56,"time":34.44441,"velocity":0.5275590551181102},{"duration":0.11111100000000107,"midi":58,"time":34.44441,"velocity":0.5275590551181102},{"duration":0.11111100000000107,"midi":58,"time":34.555521,"velocity":0.5275590551181102},{"duration":0.11111100000000107,"midi":56,"time":34.555521,"velocity":0.5275590551181102},{"duration":0.11111100000000107,"midi":58,"time":34.666632,"velocity":0.5275590551181102},{"duration":0.11111100000000107,"midi":56,"time":34.666632,"velocity":0.5275590551181102},{"duration":0.11111100000000107,"midi":75,"time":34.666632,"velocity":0.5275590551181102},{"duration":0.11111100000000107,"midi":56,"time":34.777743,"velocity":0.5275590551181102},{"duration":0.11111100000000107,"midi":58,"time":34.777743,"velocity":0.5275590551181102},{"duration":0.11111100000000107,"midi":58,"time":34.888854,"velocity":0.5275590551181102},{"duration":0.11111100000000107,"midi":56,"time":34.888854,"velocity":0.5275590551181102},{"duration":0.11111099999999396,"midi":56,"time":34.999965,"velocity":0.5275590551181102},{"duration":0.11111099999999396,"midi":58,"time":34.999965,"velocity":0.5275590551181102},{"duration":0.11111099999999396,"midi":76,"time":34.999965,"velocity":0.5275590551181102},{"duration":0.11111100000000107,"midi":56,"time":35.111076,"velocity":0.5275590551181102},{"duration":0.11111100000000107,"midi":58,"time":35.111076,"velocity":0.5275590551181102},{"duration":0.11111100000000107,"midi":58,"time":35.222187,"velocity":0.5275590551181102},{"duration":0.11111100000000107,"midi":56,"time":35.222187,"velocity":0.5275590551181102},{"duration":0.11111100000000107,"midi":77,"time":35.333298,"velocity":0.5275590551181102},{"duration":0.11111100000000107,"midi":58,"time":35.333298,"velocity":0.5275590551181102},{"duration":0.11111100000000107,"midi":56,"time":35.333298,"velocity":0.5275590551181102},{"duration":0.11111100000000107,"midi":56,"time":35.444409,"velocity":0.5275590551181102},{"duration":0.11111100000000107,"midi":58,"time":35.444409,"velocity":0.5275590551181102},{"duration":0.11111100000000107,"midi":53,"time":35.55552,"velocity":0.5275590551181102},{"duration":0.11111100000000107,"midi":58,"time":35.55552,"velocity":0.5275590551181102},{"duration":0.11111100000000107,"midi":58,"time":35.666631,"velocity":0.5275590551181102},{"duration":0.11111100000000107,"midi":53,"time":35.666631,"velocity":0.5275590551181102},{"duration":0.11111099999999396,"midi":77,"time":35.777742,"velocity":0.5275590551181102},{"duration":0.11111099999999396,"midi":58,"time":35.777742,"velocity":0.5275590551181102},{"duration":0.11111099999999396,"midi":53,"time":35.777742,"velocity":0.5275590551181102},{"duration":0.11111100000000107,"midi":58,"time":35.888853,"velocity":0.5275590551181102},{"duration":0.11111100000000107,"midi":53,"time":35.888853,"velocity":0.5275590551181102},{"duration":0.11111100000000107,"midi":58,"time":35.999964,"velocity":0.5275590551181102},{"duration":0.11111100000000107,"midi":53,"time":35.999964,"velocity":0.5275590551181102},{"duration":0.11111100000000107,"midi":58,"time":36.111075,"velocity":0.5275590551181102},{"duration":0.11111100000000107,"midi":77,"time":36.111075,"velocity":0.5275590551181102},{"duration":0.11111100000000107,"midi":53,"time":36.111075,"velocity":0.5275590551181102},{"duration":0.11111100000000107,"midi":53,"time":36.222186,"velocity":0.5275590551181102},{"duration":0.11111100000000107,"midi":58,"time":36.222186,"velocity":0.5275590551181102},{"duration":0.11111100000000107,"midi":58,"time":36.333297,"velocity":0.5275590551181102},{"duration":0.11111100000000107,"midi":53,"time":36.333297,"velocity":0.5275590551181102},{"duration":0.11111100000000107,"midi":77,"time":36.444408,"velocity":0.5275590551181102},{"duration":0.11111100000000107,"midi":53,"time":36.444408,"velocity":0.5275590551181102},{"duration":0.11111100000000107,"midi":58,"time":36.444408,"velocity":0.5275590551181102},{"duration":0.11111099999999396,"midi":58,"time":36.555519000000004,"velocity":0.5275590551181102},{"duration":0.11111099999999396,"midi":53,"time":36.555519000000004,"velocity":0.5275590551181102},{"duration":0.11111100000000107,"midi":58,"time":36.66663,"velocity":0.5275590551181102},{"duration":0.11111100000000107,"midi":53,"time":36.66663,"velocity":0.5275590551181102},{"duration":0.11111100000000107,"midi":53,"time":36.777741,"velocity":0.5275590551181102},{"duration":0.11111100000000107,"midi":58,"time":36.777741,"velocity":0.5275590551181102},{"duration":0.11111100000000107,"midi":80,"time":36.777741,"velocity":0.5275590551181102},{"duration":0.11111100000000107,"midi":53,"time":36.888852,"velocity":0.5275590551181102},{"duration":0.11111100000000107,"midi":58,"time":36.888852,"velocity":0.5275590551181102},{"duration":0.11111100000000107,"midi":58,"time":36.999963,"velocity":0.5275590551181102},{"duration":0.11111100000000107,"midi":53,"time":36.999963,"velocity":0.5275590551181102},{"duration":0.11111100000000107,"midi":53,"time":37.111074,"velocity":0.5275590551181102},{"duration":0.11111100000000107,"midi":58,"time":37.111074,"velocity":0.5275590551181102},{"duration":0.11111100000000107,"midi":82,"time":37.111074,"velocity":0.5275590551181102},{"duration":0.11111099999999396,"midi":53,"time":37.222185,"velocity":0.5275590551181102},{"duration":0.11111099999999396,"midi":58,"time":37.222185,"velocity":0.5275590551181102},{"duration":0.11111100000000107,"midi":52,"time":37.333296,"velocity":0.5275590551181102},{"duration":0.11111100000000107,"midi":58,"time":37.333296,"velocity":0.5275590551181102},{"duration":0.11111100000000107,"midi":58,"time":37.444407,"velocity":0.5275590551181102},{"duration":0.11111100000000107,"midi":52,"time":37.444407,"velocity":0.5275590551181102},{"duration":0.11111100000000107,"midi":52,"time":37.555518,"velocity":0.5275590551181102},{"duration":0.11111100000000107,"midi":77,"time":37.555518,"velocity":0.5275590551181102},{"duration":0.11111100000000107,"midi":58,"time":37.555518,"velocity":0.5275590551181102},{"duration":0.11111100000000107,"midi":52,"time":37.666629,"velocity":0.5275590551181102},{"duration":0.11111100000000107,"midi":58,"time":37.666629,"velocity":0.5275590551181102},{"duration":0.11111100000000107,"midi":58,"time":37.77774,"velocity":0.5275590551181102},{"duration":0.11111100000000107,"midi":52,"time":37.77774,"velocity":0.5275590551181102},{"duration":0.11111100000000107,"midi":58,"time":37.888851,"velocity":0.5275590551181102},{"duration":0.11111100000000107,"midi":52,"time":37.888851,"velocity":0.5275590551181102},{"duration":0.11111100000000107,"midi":77,"time":37.888851,"velocity":0.5275590551181102},{"duration":0.11111099999999396,"midi":58,"time":37.999962000000004,"velocity":0.5275590551181102},{"duration":0.11111099999999396,"midi":52,"time":37.999962000000004,"velocity":0.5275590551181102},{"duration":0.11111100000000107,"midi":52,"time":38.111073,"velocity":0.5275590551181102},{"duration":0.11111100000000107,"midi":58,"time":38.111073,"velocity":0.5275590551181102},{"duration":0.11111100000000107,"midi":83,"time":38.222184,"velocity":0.5275590551181102},{"duration":0.11111100000000107,"midi":52,"time":38.222184,"velocity":0.5275590551181102},{"duration":0.11111100000000107,"midi":58,"time":38.222184,"velocity":0.5275590551181102},{"duration":0.11111100000000107,"midi":52,"time":38.333295,"velocity":0.5275590551181102},{"duration":0.11111100000000107,"midi":58,"time":38.333295,"velocity":0.5275590551181102},{"duration":0.11111100000000107,"midi":52,"time":38.444406,"velocity":0.5275590551181102},{"duration":0.11111100000000107,"midi":58,"time":38.444406,"velocity":0.5275590551181102},{"duration":0.11111100000000107,"midi":58,"time":38.555517,"velocity":0.5275590551181102},{"duration":0.11111100000000107,"midi":52,"time":38.555517,"velocity":0.5275590551181102},{"duration":0.11111100000000107,"midi":80,"time":38.555517,"velocity":0.5275590551181102},{"duration":0.11111100000000107,"midi":58,"time":38.666628,"velocity":0.5275590551181102},{"duration":0.11111100000000107,"midi":52,"time":38.666628,"velocity":0.5275590551181102},{"duration":0.11111099999999396,"midi":58,"time":38.777739000000004,"velocity":0.5275590551181102},{"duration":0.11111099999999396,"midi":52,"time":38.777739000000004,"velocity":0.5275590551181102},{"duration":0.11111100000000107,"midi":58,"time":38.88885,"velocity":0.5275590551181102},{"duration":0.11111100000000107,"midi":82,"time":38.88885,"velocity":0.5275590551181102},{"duration":0.11111100000000107,"midi":52,"time":38.88885,"velocity":0.5275590551181102},{"duration":0.11111100000000107,"midi":52,"time":38.999961,"velocity":0.5275590551181102},{"duration":0.11111100000000107,"midi":58,"time":38.999961,"velocity":0.5275590551181102},{"duration":0.11111100000000107,"midi":53,"time":39.111072,"velocity":0.5275590551181102},{"duration":0.11111100000000107,"midi":58,"time":39.111072,"velocity":0.5275590551181102},{"duration":0.11111100000000107,"midi":53,"time":39.222183,"velocity":0.5275590551181102},{"duration":0.11111100000000107,"midi":58,"time":39.222183,"velocity":0.5275590551181102},{"duration":0.11111100000000107,"midi":77,"time":39.333294,"velocity":0.5275590551181102},{"duration":0.11111100000000107,"midi":58,"time":39.333294,"velocity":0.5275590551181102},{"duration":0.11111100000000107,"midi":53,"time":39.333294,"velocity":0.5275590551181102},{"duration":0.11111099999999396,"midi":58,"time":39.444405,"velocity":0.5275590551181102},{"duration":0.11111099999999396,"midi":53,"time":39.444405,"velocity":0.5275590551181102},{"duration":0.11111100000000107,"midi":58,"time":39.555516,"velocity":0.5275590551181102},{"duration":0.11111100000000107,"midi":53,"time":39.555516,"velocity":0.5275590551181102},{"duration":0.11111100000000107,"midi":53,"time":39.666627,"velocity":0.5275590551181102},{"duration":0.11111100000000107,"midi":58,"time":39.666627,"velocity":0.5275590551181102},{"duration":0.11111100000000107,"midi":77,"time":39.666627,"velocity":0.5275590551181102},{"duration":0.11111100000000107,"midi":53,"time":39.777738,"velocity":0.5275590551181102},{"duration":0.11111100000000107,"midi":58,"time":39.777738,"velocity":0.5275590551181102},{"duration":0.11111100000000107,"midi":53,"time":39.888849,"velocity":0.5275590551181102},{"duration":0.11111100000000107,"midi":58,"time":39.888849,"velocity":0.5275590551181102},{"duration":0.11111100000000107,"midi":58,"time":39.99996,"velocity":0.5275590551181102},{"duration":0.11111100000000107,"midi":77,"time":39.99996,"velocity":0.5275590551181102},{"duration":0.11111100000000107,"midi":53,"time":39.99996,"velocity":0.5275590551181102},{"duration":0.11111100000000107,"midi":53,"time":40.111071,"velocity":0.5275590551181102},{"duration":0.11111100000000107,"midi":58,"time":40.111071,"velocity":0.5275590551181102},{"duration":0.11111099999999396,"midi":58,"time":40.222182000000004,"velocity":0.5275590551181102},{"duration":0.11111099999999396,"midi":53,"time":40.222182000000004,"velocity":0.5275590551181102},{"duration":0.11111100000000107,"midi":80,"time":40.333293,"velocity":0.5275590551181102},{"duration":0.11111100000000107,"midi":58,"time":40.333293,"velocity":0.5275590551181102},{"duration":0.11111100000000107,"midi":53,"time":40.333293,"velocity":0.5275590551181102},{"duration":0.11111100000000107,"midi":58,"time":40.444404,"velocity":0.5275590551181102},{"duration":0.11111100000000107,"midi":53,"time":40.444404,"velocity":0.5275590551181102},{"duration":0.11111100000000107,"midi":53,"time":40.555515,"velocity":0.5275590551181102},{"duration":0.11111100000000107,"midi":58,"time":40.555515,"velocity":0.5275590551181102},{"duration":0.11111100000000107,"midi":53,"time":40.666626,"velocity":0.5275590551181102},{"duration":0.11111100000000107,"midi":58,"time":40.666626,"velocity":0.5275590551181102},{"duration":0.11111100000000107,"midi":82,"time":40.666626,"velocity":0.5275590551181102},{"duration":0.11111100000000107,"midi":53,"time":40.777737,"velocity":0.5275590551181102},{"duration":0.11111100000000107,"midi":58,"time":40.777737,"velocity":0.5275590551181102},{"duration":0.11111100000000107,"midi":56,"time":40.888848,"velocity":0.5275590551181102},{"duration":0.11111100000000107,"midi":58,"time":40.888848,"velocity":0.5275590551181102},{"duration":0.11111099999999396,"midi":58,"time":40.999959000000004,"velocity":0.5275590551181102},{"duration":0.11111099999999396,"midi":56,"time":40.999959000000004,"velocity":0.5275590551181102},{"duration":0.11111100000000107,"midi":77,"time":41.11107,"velocity":0.5275590551181102},{"duration":0.11111100000000107,"midi":56,"time":41.11107,"velocity":0.5275590551181102},{"duration":0.11111100000000107,"midi":58,"time":41.11107,"velocity":0.5275590551181102},{"duration":0.11111100000000107,"midi":58,"time":41.222181,"velocity":0.5275590551181102},{"duration":0.11111100000000107,"midi":56,"time":41.222181,"velocity":0.5275590551181102},{"duration":0.11111100000000107,"midi":58,"time":41.333292,"velocity":0.5275590551181102},{"duration":0.11111100000000107,"midi":56,"time":41.333292,"velocity":0.5275590551181102},{"duration":0.11111100000000107,"midi":77,"time":41.444403,"velocity":0.5275590551181102},{"duration":0.11111100000000107,"midi":58,"time":41.444403,"velocity":0.5275590551181102},{"duration":0.11111100000000107,"midi":56,"time":41.444403,"velocity":0.5275590551181102},{"duration":0.11111100000000107,"midi":58,"time":41.555514,"velocity":0.5275590551181102},{"duration":0.11111100000000107,"midi":56,"time":41.555514,"velocity":0.5275590551181102},{"duration":0.11111099999999396,"midi":58,"time":41.666625,"velocity":0.5275590551181102},{"duration":0.11111099999999396,"midi":56,"time":41.666625,"velocity":0.5275590551181102},{"duration":0.11111100000000107,"midi":56,"time":41.777736,"velocity":0.5275590551181102},{"duration":0.11111100000000107,"midi":58,"time":41.777736,"velocity":0.5275590551181102},{"duration":0.11111100000000107,"midi":75,"time":41.777736,"velocity":0.5275590551181102},{"duration":0.11111100000000107,"midi":56,"time":41.888847,"velocity":0.5275590551181102},{"duration":0.11111100000000107,"midi":58,"time":41.888847,"velocity":0.5275590551181102},{"duration":0.11111100000000107,"midi":58,"time":41.999958,"velocity":0.5275590551181102},{"duration":0.11111100000000107,"midi":56,"time":41.999958,"velocity":0.5275590551181102},{"duration":0.11111100000000107,"midi":76,"time":42.111069,"velocity":0.5275590551181102},{"duration":0.11111100000000107,"midi":58,"time":42.111069,"velocity":0.5275590551181102},{"duration":0.11111100000000107,"midi":56,"time":42.111069,"velocity":0.5275590551181102},{"duration":0.11111100000000107,"midi":56,"time":42.22218,"velocity":0.5275590551181102},{"duration":0.11111100000000107,"midi":58,"time":42.22218,"velocity":0.5275590551181102},{"duration":0.11111100000000107,"midi":58,"time":42.333291,"velocity":0.5275590551181102},{"duration":0.11111100000000107,"midi":56,"time":42.333291,"velocity":0.5275590551181102},{"duration":0.11111099999999396,"midi":56,"time":42.444402000000004,"velocity":0.5275590551181102},{"duration":0.11111099999999396,"midi":58,"time":42.444402000000004,"velocity":0.5275590551181102},{"duration":0.11111099999999396,"midi":77,"time":42.444402000000004,"velocity":0.5275590551181102},{"duration":0.11111100000000107,"midi":58,"time":42.555513,"velocity":0.5275590551181102},{"duration":0.11111100000000107,"midi":56,"time":42.555513,"velocity":0.5275590551181102},{"duration":0.11111100000000107,"midi":80,"time":46.222176,"velocity":0.5275590551181102},{"duration":0.11111100000000107,"midi":68,"time":46.222176,"velocity":0.5275590551181102},{"duration":0.05555549999999698,"midi":65,"time":46.555509,"velocity":0.5275590551181102},{"duration":0.05555549999999698,"midi":77,"time":46.555509,"velocity":0.5275590551181102},{"duration":0.05555550000000409,"midi":68,"time":47.111064,"velocity":0.5275590551181102},{"duration":0.05555550000000409,"midi":80,"time":47.111064,"velocity":0.5275590551181102},{"duration":0.05555549999999698,"midi":77,"time":47.444397,"velocity":0.5275590551181102},{"duration":0.05555549999999698,"midi":65,"time":47.444397,"velocity":0.5275590551181102},{"duration":0.05555549999999698,"midi":80,"time":47.999952,"velocity":0.5275590551181102},{"duration":0.05555549999999698,"midi":68,"time":47.999952,"velocity":0.5275590551181102},{"duration":0.05555549999999698,"midi":77,"time":48.333285000000004,"velocity":0.5275590551181102},{"duration":0.05555549999999698,"midi":65,"time":48.333285000000004,"velocity":0.5275590551181102},{"duration":0.05555549999999698,"midi":80,"time":48.88884,"velocity":0.5275590551181102},{"duration":0.05555549999999698,"midi":68,"time":48.88884,"velocity":0.5275590551181102},{"duration":0.05555550000000409,"midi":70,"time":49.333284,"velocity":0.5275590551181102},{"duration":0.05555550000000409,"midi":82,"time":49.333284,"velocity":0.5275590551181102},{"duration":0.05555549999999698,"midi":80,"time":53.33328,"velocity":0.5275590551181102},{"duration":0.05555549999999698,"midi":68,"time":53.33328,"velocity":0.5275590551181102},{"duration":0.05555550000000409,"midi":65,"time":53.666613,"velocity":0.5275590551181102},{"duration":0.05555550000000409,"midi":77,"time":53.666613,"velocity":0.5275590551181102},{"duration":0.05555549999999698,"midi":68,"time":54.222168,"velocity":0.5275590551181102},{"duration":0.05555549999999698,"midi":80,"time":54.222168,"velocity":0.5275590551181102},{"duration":0.05555550000000409,"midi":77,"time":54.555501,"velocity":0.5275590551181102},{"duration":0.05555550000000409,"midi":65,"time":54.555501,"velocity":0.5275590551181102},{"duration":0.05555550000000409,"midi":80,"time":55.111056,"velocity":0.5275590551181102},{"duration":0.05555550000000409,"midi":68,"time":55.111056,"velocity":0.5275590551181102},{"duration":0.05555549999999698,"midi":77,"time":55.444389,"velocity":0.5275590551181102},{"duration":0.05555549999999698,"midi":65,"time":55.444389,"velocity":0.5275590551181102},{"duration":0.05555550000000409,"midi":68,"time":55.999944,"velocity":0.5275590551181102},{"duration":0.05555550000000409,"midi":80,"time":55.999944,"velocity":0.5275590551181102},{"duration":0.05555549999999698,"midi":82,"time":56.444388000000004,"velocity":0.5275590551181102},{"duration":0.05555549999999698,"midi":70,"time":56.444388000000004,"velocity":0.5275590551181102},{"duration":0.11111100000000107,"midi":68,"time":56.888832,"velocity":0.5275590551181102},{"duration":0.11111100000000107,"midi":80,"time":56.888832,"velocity":0.5275590551181102},{"duration":0.11111099999999396,"midi":70,"time":57.222165000000004,"velocity":0.5275590551181102},{"duration":0.11111099999999396,"midi":82,"time":57.222165000000004,"velocity":0.5275590551181102},{"duration":0.11111100000000107,"midi":63,"time":57.555498,"velocity":0.5275590551181102},{"duration":0.11111100000000107,"midi":75,"time":57.555498,"velocity":0.5275590551181102},{"duration":0.11111099999999396,"midi":77,"time":57.888831,"velocity":0.5275590551181102},{"duration":0.11111099999999396,"midi":65,"time":57.888831,"velocity":0.5275590551181102},{"duration":0.11111100000000107,"midi":73,"time":58.222164,"velocity":0.5275590551181102},{"duration":0.11111100000000107,"midi":61,"time":58.222164,"velocity":0.5275590551181102},{"duration":0.11111100000000107,"midi":58,"time":58.444386,"velocity":0.5275590551181102},{"duration":0.11111100000000107,"midi":70,"time":58.444386,"velocity":0.5275590551181102},{"duration":0.11111099999999396,"midi":68,"time":58.666608000000004,"velocity":0.5275590551181102},{"duration":0.11111099999999396,"midi":80,"time":58.666608000000004,"velocity":0.5275590551181102},{"duration":0.11111100000000107,"midi":70,"time":58.999941,"velocity":0.5275590551181102},{"duration":0.11111100000000107,"midi":82,"time":58.999941,"velocity":0.5275590551181102},{"duration":0.11111100000000107,"midi":75,"time":59.333274,"velocity":0.5275590551181102},{"duration":0.11111100000000107,"midi":63,"time":59.333274,"velocity":0.5275590551181102},{"duration":0.11111100000000107,"midi":77,"time":59.666607,"velocity":0.5275590551181102},{"duration":0.11111100000000107,"midi":65,"time":59.666607,"velocity":0.5275590551181102},{"duration":0.11111100000000107,"midi":73,"time":59.99994,"velocity":0.5275590551181102},{"duration":0.11111100000000107,"midi":61,"time":59.99994,"velocity":0.5275590551181102},{"duration":0.11111100000000107,"midi":58,"time":60.222162,"velocity":0.5275590551181102},{"duration":0.11111100000000107,"midi":70,"time":60.222162,"velocity":0.5275590551181102},{"duration":0.11111100000000107,"midi":68,"time":60.444384,"velocity":0.5275590551181102},{"duration":0.11111100000000107,"midi":80,"time":60.444384,"velocity":0.5275590551181102},{"duration":0.11111100000000107,"midi":70,"time":60.777717,"velocity":0.5275590551181102},{"duration":0.11111100000000107,"midi":82,"time":60.777717,"velocity":0.5275590551181102},{"duration":0.11111100000000107,"midi":63,"time":61.11105,"velocity":0.5275590551181102},{"duration":0.11111100000000107,"midi":75,"time":61.11105,"velocity":0.5275590551181102},{"duration":0.11111100000000107,"midi":65,"time":61.444383,"velocity":0.5275590551181102},{"duration":0.11111100000000107,"midi":77,"time":61.444383,"velocity":0.5275590551181102},{"duration":0.11111100000000107,"midi":73,"time":61.777716,"velocity":0.5275590551181102},{"duration":0.11111100000000107,"midi":61,"time":61.777716,"velocity":0.5275590551181102},{"duration":0.11111100000000107,"midi":58,"time":61.999938,"velocity":0.5275590551181102},{"duration":0.11111100000000107,"midi":70,"time":61.999938,"velocity":0.5275590551181102},{"duration":0.11111100000000107,"midi":68,"time":62.22216,"velocity":0.5275590551181102},{"duration":0.11111100000000107,"midi":80,"time":62.22216,"velocity":0.5275590551181102},{"duration":0.11111100000000107,"midi":82,"time":62.555493,"velocity":0.5275590551181102},{"duration":0.11111100000000107,"midi":70,"time":62.555493,"velocity":0.5275590551181102},{"duration":0.11111100000000107,"midi":70,"time":62.555493,"velocity":0.5275590551181102},{"duration":0.11111100000000107,"midi":82,"time":62.555493,"velocity":0.5275590551181102},{"duration":0.11111100000000107,"midi":61,"time":62.888826,"velocity":0.5275590551181102},{"duration":0.11111100000000107,"midi":73,"time":62.888826,"velocity":0.5275590551181102},{"duration":0.11111100000000107,"midi":60,"time":63.222159,"velocity":0.5275590551181102},{"duration":0.11111100000000107,"midi":72,"time":63.222159,"velocity":0.5275590551181102},{"duration":0.11111100000000107,"midi":68,"time":63.555492,"velocity":0.5275590551181102},{"duration":0.11111100000000107,"midi":56,"time":63.555492,"velocity":0.5275590551181102},{"duration":0.11111100000000107,"midi":65,"time":63.777714,"velocity":0.5275590551181102},{"duration":0.11111100000000107,"midi":53,"time":63.777714,"velocity":0.5275590551181102},{"duration":0.11111100000000107,"midi":80,"time":63.999936,"velocity":0.5275590551181102},{"duration":0.11111100000000107,"midi":68,"time":63.999936,"velocity":0.5275590551181102},{"duration":0.11111099999999396,"midi":82,"time":64.333269,"velocity":0.5275590551181102},{"duration":0.11111099999999396,"midi":70,"time":64.333269,"velocity":0.5275590551181102},{"duration":0.11111100000000818,"midi":63,"time":64.666602,"velocity":0.5275590551181102},{"duration":0.11111100000000818,"midi":75,"time":64.666602,"velocity":0.5275590551181102},{"duration":0.11111099999999396,"midi":77,"time":64.99993500000001,"velocity":0.5275590551181102},{"duration":0.11111099999999396,"midi":65,"time":64.99993500000001,"velocity":0.5275590551181102},{"duration":0.11111099999999396,"midi":61,"time":65.333268,"velocity":0.5275590551181102},{"duration":0.11111099999999396,"midi":73,"time":65.333268,"velocity":0.5275590551181102},{"duration":0.11111099999999396,"midi":58,"time":65.55549,"velocity":0.5275590551181102},{"duration":0.11111099999999396,"midi":70,"time":65.55549,"velocity":0.5275590551181102},{"duration":0.11111100000000818,"midi":68,"time":65.777712,"velocity":0.5275590551181102},{"duration":0.11111100000000818,"midi":80,"time":65.777712,"velocity":0.5275590551181102},{"duration":0.11111099999999396,"midi":82,"time":66.111045,"velocity":0.5275590551181102},{"duration":0.11111099999999396,"midi":70,"time":66.111045,"velocity":0.5275590551181102},{"duration":0.11111099999999396,"midi":63,"time":66.444378,"velocity":0.5275590551181102},{"duration":0.11111099999999396,"midi":75,"time":66.444378,"velocity":0.5275590551181102},{"duration":0.11111100000000818,"midi":77,"time":66.777711,"velocity":0.5275590551181102},{"duration":0.11111100000000818,"midi":65,"time":66.777711,"velocity":0.5275590551181102},{"duration":0.11111099999999396,"midi":61,"time":67.111044,"velocity":0.5275590551181102},{"duration":0.11111099999999396,"midi":73,"time":67.111044,"velocity":0.5275590551181102},{"duration":0.11111100000000818,"midi":70,"time":67.333266,"velocity":0.5275590551181102},{"duration":0.11111100000000818,"midi":58,"time":67.333266,"velocity":0.5275590551181102},{"duration":0.11111100000000818,"midi":80,"time":67.555488,"velocity":0.5275590551181102},{"duration":0.11111100000000818,"midi":68,"time":67.555488,"velocity":0.5275590551181102},{"duration":0.11111099999999396,"midi":82,"time":67.88882100000001,"velocity":0.5275590551181102},{"duration":0.11111099999999396,"midi":70,"time":67.88882100000001,"velocity":0.5275590551181102},{"duration":0.11111099999999396,"midi":75,"time":68.222154,"velocity":0.5275590551181102},{"duration":0.11111099999999396,"midi":63,"time":68.222154,"velocity":0.5275590551181102},{"duration":0.11111100000000818,"midi":65,"time":68.555487,"velocity":0.5275590551181102},{"duration":0.11111100000000818,"midi":77,"time":68.555487,"velocity":0.5275590551181102},{"duration":0.11111100000000818,"midi":61,"time":68.88882,"velocity":0.5275590551181102},{"duration":0.11111100000000818,"midi":73,"time":68.88882,"velocity":0.5275590551181102},{"duration":0.11111100000000818,"midi":70,"time":69.111042,"velocity":0.5275590551181102},{"duration":0.11111100000000818,"midi":58,"time":69.111042,"velocity":0.5275590551181102},{"duration":0.11111100000000818,"midi":80,"time":69.333264,"velocity":0.5275590551181102},{"duration":0.11111100000000818,"midi":68,"time":69.333264,"velocity":0.5275590551181102},{"duration":0.11111100000000818,"midi":82,"time":69.666597,"velocity":0.5275590551181102},{"duration":0.11111100000000818,"midi":70,"time":69.666597,"velocity":0.5275590551181102},{"duration":0.11111100000000818,"midi":70,"time":69.666597,"velocity":0.5275590551181102},{"duration":0.11111100000000818,"midi":82,"time":69.666597,"velocity":0.5275590551181102},{"duration":0.11111099999999396,"midi":73,"time":69.99993,"velocity":0.5275590551181102},{"duration":0.11111099999999396,"midi":61,"time":69.99993,"velocity":0.5275590551181102},{"duration":0.11111099999999396,"midi":72,"time":70.333263,"velocity":0.5275590551181102},{"duration":0.11111099999999396,"midi":60,"time":70.333263,"velocity":0.5275590551181102},{"duration":0.11111100000000818,"midi":56,"time":70.666596,"velocity":0.5275590551181102},{"duration":0.11111100000000818,"midi":68,"time":70.666596,"velocity":0.5275590551181102},{"duration":0.11111099999999396,"midi":65,"time":70.888818,"velocity":0.5275590551181102},{"duration":0.11111099999999396,"midi":53,"time":70.888818,"velocity":0.5275590551181102},{"duration":0.11111099999999396,"midi":80,"time":71.11104,"velocity":0.5275590551181102},{"duration":0.11111099999999396,"midi":68,"time":71.11104,"velocity":0.5275590551181102},{"duration":0.11111100000000818,"midi":82,"time":71.444373,"velocity":0.5275590551181102},{"duration":0.11111100000000818,"midi":70,"time":71.444373,"velocity":0.5275590551181102},{"duration":0.11111100000000818,"midi":63,"time":71.777706,"velocity":0.5275590551181102},{"duration":0.11111100000000818,"midi":75,"time":71.777706,"velocity":0.5275590551181102},{"duration":0.11111099999999396,"midi":77,"time":72.111039,"velocity":0.5275590551181102},{"duration":0.11111099999999396,"midi":65,"time":72.111039,"velocity":0.5275590551181102},{"duration":0.11111099999999396,"midi":61,"time":72.444372,"velocity":0.5275590551181102},{"duration":0.11111099999999396,"midi":73,"time":72.444372,"velocity":0.5275590551181102},{"duration":0.11111099999999396,"midi":70,"time":72.666594,"velocity":0.5275590551181102},{"duration":0.11111099999999396,"midi":58,"time":72.666594,"velocity":0.5275590551181102},{"duration":0.11111099999999396,"midi":80,"time":72.888816,"velocity":0.5275590551181102},{"duration":0.11111099999999396,"midi":68,"time":72.888816,"velocity":0.5275590551181102},{"duration":0.11111099999999396,"midi":70,"time":73.222149,"velocity":0.5275590551181102},{"duration":0.11111099999999396,"midi":82,"time":73.222149,"velocity":0.5275590551181102},{"duration":0.11111100000000818,"midi":75,"time":73.555482,"velocity":0.5275590551181102},{"duration":0.11111100000000818,"midi":63,"time":73.555482,"velocity":0.5275590551181102},{"duration":0.11111100000000818,"midi":77,"time":73.888815,"velocity":0.5275590551181102},{"duration":0.11111100000000818,"midi":65,"time":73.888815,"velocity":0.5275590551181102},{"duration":0.11111099999999396,"midi":61,"time":74.222148,"velocity":0.5275590551181102},{"duration":0.11111099999999396,"midi":73,"time":74.222148,"velocity":0.5275590551181102},{"duration":0.11111099999999396,"midi":70,"time":74.44437,"velocity":0.5275590551181102},{"duration":0.11111099999999396,"midi":58,"time":74.44437,"velocity":0.5275590551181102},{"duration":0.11111100000000818,"midi":68,"time":74.666592,"velocity":0.5275590551181102},{"duration":0.11111100000000818,"midi":80,"time":74.666592,"velocity":0.5275590551181102},{"duration":0.11111099999999396,"midi":70,"time":74.999925,"velocity":0.5275590551181102},{"duration":0.11111099999999396,"midi":82,"time":74.999925,"velocity":0.5275590551181102},{"duration":0.11111099999999396,"midi":75,"time":75.333258,"velocity":0.5275590551181102},{"duration":0.11111099999999396,"midi":63,"time":75.333258,"velocity":0.5275590551181102},{"duration":0.11111100000000818,"midi":65,"time":75.666591,"velocity":0.5275590551181102},{"duration":0.11111100000000818,"midi":77,"time":75.666591,"velocity":0.5275590551181102},{"duration":0.11111099999999396,"midi":73,"time":75.99992400000001,"velocity":0.5275590551181102},{"duration":0.11111099999999396,"midi":61,"time":75.99992400000001,"velocity":0.5275590551181102},{"duration":0.11111100000000818,"midi":70,"time":76.222146,"velocity":0.5275590551181102},{"duration":0.11111100000000818,"midi":58,"time":76.222146,"velocity":0.5275590551181102},{"duration":0.11111100000000818,"midi":80,"time":76.444368,"velocity":0.5275590551181102},{"duration":0.11111100000000818,"midi":68,"time":76.444368,"velocity":0.5275590551181102},{"duration":0.11111099999999396,"midi":82,"time":76.77770100000001,"velocity":0.5275590551181102},{"duration":0.11111099999999396,"midi":82,"time":76.77770100000001,"velocity":0.5275590551181102},{"duration":0.11111099999999396,"midi":70,"time":76.77770100000001,"velocity":0.5275590551181102},{"duration":0.11111099999999396,"midi":70,"time":76.77770100000001,"velocity":0.5275590551181102},{"duration":0.11111099999999396,"midi":73,"time":77.111034,"velocity":0.5275590551181102},{"duration":0.11111099999999396,"midi":61,"time":77.111034,"velocity":0.5275590551181102},{"duration":0.11111100000000818,"midi":72,"time":77.444367,"velocity":0.5275590551181102},{"duration":0.11111100000000818,"midi":60,"time":77.444367,"velocity":0.5275590551181102},{"duration":0.11111100000000818,"midi":68,"time":77.7777,"velocity":0.5275590551181102},{"duration":0.11111100000000818,"midi":56,"time":77.7777,"velocity":0.5275590551181102},{"duration":0.11111100000000818,"midi":53,"time":77.999922,"velocity":0.5275590551181102},{"duration":0.11111100000000818,"midi":65,"time":77.999922,"velocity":0.5275590551181102},{"duration":0.11111099999999396,"midi":80,"time":78.222144,"velocity":0.5275590551181102},{"duration":0.11111099999999396,"midi":68,"time":78.222144,"velocity":0.5275590551181102},{"duration":0.11111100000000818,"midi":70,"time":78.555477,"velocity":0.5275590551181102},{"duration":0.11111100000000818,"midi":82,"time":78.555477,"velocity":0.5275590551181102},{"duration":0.11111099999999396,"midi":63,"time":78.88881,"velocity":0.5275590551181102},{"duration":0.11111099999999396,"midi":75,"time":78.88881,"velocity":0.5275590551181102},{"duration":0.11111099999999396,"midi":65,"time":79.222143,"velocity":0.5275590551181102},{"duration":0.11111099999999396,"midi":77,"time":79.222143,"velocity":0.5275590551181102},{"duration":0.11111100000000818,"midi":73,"time":79.555476,"velocity":0.5275590551181102},{"duration":0.11111100000000818,"midi":61,"time":79.555476,"velocity":0.5275590551181102},{"duration":0.11111099999999396,"midi":70,"time":79.777698,"velocity":0.5275590551181102},{"duration":0.11111099999999396,"midi":58,"time":79.777698,"velocity":0.5275590551181102},{"duration":0.11111099999999396,"midi":68,"time":79.99992,"velocity":0.5275590551181102},{"duration":0.11111099999999396,"midi":80,"time":79.99992,"velocity":0.5275590551181102},{"duration":0.11111100000000818,"midi":82,"time":80.333253,"velocity":0.5275590551181102},{"duration":0.11111100000000818,"midi":70,"time":80.333253,"velocity":0.5275590551181102},{"duration":0.11111100000000818,"midi":75,"time":80.666586,"velocity":0.5275590551181102},{"duration":0.11111100000000818,"midi":63,"time":80.666586,"velocity":0.5275590551181102},{"duration":0.11111099999999396,"midi":77,"time":80.999919,"velocity":0.5275590551181102},{"duration":0.11111099999999396,"midi":65,"time":80.999919,"velocity":0.5275590551181102},{"duration":0.11111099999999396,"midi":73,"time":81.333252,"velocity":0.5275590551181102},{"duration":0.11111099999999396,"midi":61,"time":81.333252,"velocity":0.5275590551181102},{"duration":0.11111099999999396,"midi":58,"time":81.555474,"velocity":0.5275590551181102},{"duration":0.11111099999999396,"midi":70,"time":81.555474,"velocity":0.5275590551181102},{"duration":0.11111099999999396,"midi":80,"time":81.777696,"velocity":0.5275590551181102},{"duration":0.11111099999999396,"midi":68,"time":81.777696,"velocity":0.5275590551181102},{"duration":0.11111099999999396,"midi":82,"time":82.111029,"velocity":0.5275590551181102},{"duration":0.11111099999999396,"midi":70,"time":82.111029,"velocity":0.5275590551181102},{"duration":0.11111100000000818,"midi":75,"time":82.444362,"velocity":0.5275590551181102},{"duration":0.11111100000000818,"midi":63,"time":82.444362,"velocity":0.5275590551181102},{"duration":0.11111100000000818,"midi":77,"time":82.777695,"velocity":0.5275590551181102},{"duration":0.11111100000000818,"midi":65,"time":82.777695,"velocity":0.5275590551181102},{"duration":0.11111099999999396,"midi":61,"time":83.111028,"velocity":0.5275590551181102},{"duration":0.11111099999999396,"midi":73,"time":83.111028,"velocity":0.5275590551181102},{"duration":0.11111099999999396,"midi":58,"time":83.33325,"velocity":0.5275590551181102},{"duration":0.11111099999999396,"midi":70,"time":83.33325,"velocity":0.5275590551181102},{"duration":0.11111100000000818,"midi":80,"time":83.555472,"velocity":0.5275590551181102},{"duration":0.11111100000000818,"midi":68,"time":83.555472,"velocity":0.5275590551181102},{"duration":0.11111099999999396,"midi":82,"time":83.888805,"velocity":0.5275590551181102},{"duration":0.11111099999999396,"midi":82,"time":83.888805,"velocity":0.5275590551181102},{"duration":0.11111099999999396,"midi":70,"time":83.888805,"velocity":0.5275590551181102},{"duration":0.11111099999999396,"midi":70,"time":83.888805,"velocity":0.5275590551181102},{"duration":0.11111099999999396,"midi":61,"time":84.222138,"velocity":0.5275590551181102},{"duration":0.11111099999999396,"midi":73,"time":84.222138,"velocity":0.5275590551181102},{"duration":0.11111100000000818,"midi":60,"time":84.555471,"velocity":0.5275590551181102},{"duration":0.11111100000000818,"midi":72,"time":84.555471,"velocity":0.5275590551181102},{"duration":0.11111099999999396,"midi":68,"time":84.88880400000001,"velocity":0.5275590551181102},{"duration":0.11111099999999396,"midi":56,"time":84.88880400000001,"velocity":0.5275590551181102},{"duration":0.11111100000000818,"midi":65,"time":85.111026,"velocity":0.5275590551181102},{"duration":0.11111100000000818,"midi":53,"time":85.111026,"velocity":0.5275590551181102},{"duration":0.11111099999999396,"midi":58,"time":113.777664,"velocity":0.5275590551181102},{"duration":0.11111099999999396,"midi":53,"time":113.777664,"velocity":0.5275590551181102},{"duration":0.11111100000000818,"midi":53,"time":113.888775,"velocity":0.5275590551181102},{"duration":0.11111100000000818,"midi":58,"time":113.888775,"velocity":0.5275590551181102},{"duration":0.11111099999999396,"midi":58,"time":113.999886,"velocity":0.5275590551181102},{"duration":0.11111099999999396,"midi":53,"time":113.999886,"velocity":0.5275590551181102},{"duration":0.11111099999999396,"midi":77,"time":113.999886,"velocity":0.5275590551181102},{"duration":0.11111100000000818,"midi":58,"time":114.110997,"velocity":0.5275590551181102},{"duration":0.11111100000000818,"midi":53,"time":114.110997,"velocity":0.5275590551181102},{"duration":0.11111099999999396,"midi":58,"time":114.222108,"velocity":0.5275590551181102},{"duration":0.11111099999999396,"midi":53,"time":114.222108,"velocity":0.5275590551181102},{"duration":0.11111100000000818,"midi":77,"time":114.333219,"velocity":0.5275590551181102},{"duration":0.11111100000000818,"midi":53,"time":114.333219,"velocity":0.5275590551181102},{"duration":0.11111100000000818,"midi":58,"time":114.333219,"velocity":0.5275590551181102},{"duration":0.11111099999999396,"midi":53,"time":114.44433000000001,"velocity":0.5275590551181102},{"duration":0.11111099999999396,"midi":58,"time":114.44433000000001,"velocity":0.5275590551181102},{"duration":0.11111099999999396,"midi":58,"time":114.555441,"velocity":0.5275590551181102},{"duration":0.11111099999999396,"midi":53,"time":114.555441,"velocity":0.5275590551181102},{"duration":0.11111100000000818,"midi":58,"time":114.666552,"velocity":0.5275590551181102},{"duration":0.11111100000000818,"midi":77,"time":114.666552,"velocity":0.5275590551181102},{"duration":0.11111100000000818,"midi":53,"time":114.666552,"velocity":0.5275590551181102},{"duration":0.11111099999999396,"midi":53,"time":114.777663,"velocity":0.5275590551181102},{"duration":0.11111099999999396,"midi":58,"time":114.777663,"velocity":0.5275590551181102},{"duration":0.11111100000000818,"midi":58,"time":114.888774,"velocity":0.5275590551181102},{"duration":0.11111100000000818,"midi":53,"time":114.888774,"velocity":0.5275590551181102},{"duration":0.11111099999999396,"midi":80,"time":114.999885,"velocity":0.5275590551181102},{"duration":0.11111099999999396,"midi":58,"time":114.999885,"velocity":0.5275590551181102},{"duration":0.11111099999999396,"midi":53,"time":114.999885,"velocity":0.5275590551181102},{"duration":0.11111100000000818,"midi":53,"time":115.110996,"velocity":0.5275590551181102},{"duration":0.11111100000000818,"midi":58,"time":115.110996,"velocity":0.5275590551181102},{"duration":0.11111099999999396,"midi":58,"time":115.22210700000001,"velocity":0.5275590551181102},{"duration":0.11111099999999396,"midi":53,"time":115.22210700000001,"velocity":0.5275590551181102},{"duration":0.11111099999999396,"midi":82,"time":115.333218,"velocity":0.5275590551181102},{"duration":0.11111099999999396,"midi":58,"time":115.333218,"velocity":0.5275590551181102},{"duration":0.11111099999999396,"midi":53,"time":115.333218,"velocity":0.5275590551181102},{"duration":0.11111100000000818,"midi":53,"time":115.444329,"velocity":0.5275590551181102},{"duration":0.11111100000000818,"midi":58,"time":115.444329,"velocity":0.5275590551181102},{"duration":0.11111099999999396,"midi":58,"time":115.55544,"velocity":0.5275590551181102},{"duration":0.11111099999999396,"midi":52,"time":115.55544,"velocity":0.5275590551181102},{"duration":0.11111100000000818,"midi":58,"time":115.666551,"velocity":0.5275590551181102},{"duration":0.11111100000000818,"midi":52,"time":115.666551,"velocity":0.5275590551181102},{"duration":0.11111099999999396,"midi":52,"time":115.777662,"velocity":0.5275590551181102},{"duration":0.11111099999999396,"midi":77,"time":115.777662,"velocity":0.5275590551181102},{"duration":0.11111099999999396,"midi":58,"time":115.777662,"velocity":0.5275590551181102},{"duration":0.11111099999999396,"midi":58,"time":115.888773,"velocity":0.5275590551181102},{"duration":0.11111099999999396,"midi":52,"time":115.888773,"velocity":0.5275590551181102},{"duration":0.11111100000000818,"midi":58,"time":115.999884,"velocity":0.5275590551181102},{"duration":0.11111100000000818,"midi":52,"time":115.999884,"velocity":0.5275590551181102},{"duration":0.11111099999999396,"midi":77,"time":116.110995,"velocity":0.5275590551181102},{"duration":0.11111099999999396,"midi":52,"time":116.110995,"velocity":0.5275590551181102},{"duration":0.11111099999999396,"midi":58,"time":116.110995,"velocity":0.5275590551181102},{"duration":0.11111100000000818,"midi":58,"time":116.222106,"velocity":0.5275590551181102},{"duration":0.11111100000000818,"midi":52,"time":116.222106,"velocity":0.5275590551181102},{"duration":0.11111099999999396,"midi":58,"time":116.333217,"velocity":0.5275590551181102},{"duration":0.11111099999999396,"midi":52,"time":116.333217,"velocity":0.5275590551181102},{"duration":0.11111100000000818,"midi":83,"time":116.444328,"velocity":0.5275590551181102},{"duration":0.11111100000000818,"midi":52,"time":116.444328,"velocity":0.5275590551181102},{"duration":0.11111100000000818,"midi":58,"time":116.444328,"velocity":0.5275590551181102},{"duration":0.11111099999999396,"midi":52,"time":116.555439,"velocity":0.5275590551181102},{"duration":0.11111099999999396,"midi":58,"time":116.555439,"velocity":0.5275590551181102},{"duration":0.11111099999999396,"midi":52,"time":116.66655,"velocity":0.5275590551181102},{"duration":0.11111099999999396,"midi":58,"time":116.66655,"velocity":0.5275590551181102},{"duration":0.11111100000000818,"midi":58,"time":116.777661,"velocity":0.5275590551181102},{"duration":0.11111100000000818,"midi":80,"time":116.777661,"velocity":0.5275590551181102},{"duration":0.11111100000000818,"midi":52,"time":116.777661,"velocity":0.5275590551181102},{"duration":0.11111099999999396,"midi":52,"time":116.888772,"velocity":0.5275590551181102},{"duration":0.11111099999999396,"midi":58,"time":116.888772,"velocity":0.5275590551181102},{"duration":0.11111100000000818,"midi":58,"time":116.999883,"velocity":0.5275590551181102},{"duration":0.11111100000000818,"midi":52,"time":116.999883,"velocity":0.5275590551181102},{"duration":0.11111099999999396,"midi":82,"time":117.110994,"velocity":0.5275590551181102},{"duration":0.11111099999999396,"midi":58,"time":117.110994,"velocity":0.5275590551181102},{"duration":0.11111099999999396,"midi":52,"time":117.110994,"velocity":0.5275590551181102},{"duration":0.11111100000000818,"midi":58,"time":117.222105,"velocity":0.5275590551181102},{"duration":0.11111100000000818,"midi":52,"time":117.222105,"velocity":0.5275590551181102},{"duration":0.11111099999999396,"midi":53,"time":117.33321600000001,"velocity":0.5275590551181102},{"duration":0.11111099999999396,"midi":58,"time":117.33321600000001,"velocity":0.5275590551181102},{"duration":0.11111099999999396,"midi":53,"time":117.444327,"velocity":0.5275590551181102},{"duration":0.11111099999999396,"midi":58,"time":117.444327,"velocity":0.5275590551181102},{"duration":0.11111100000000818,"midi":58,"time":117.555438,"velocity":0.5275590551181102},{"duration":0.11111100000000818,"midi":53,"time":117.555438,"velocity":0.5275590551181102},{"duration":0.11111100000000818,"midi":77,"time":117.555438,"velocity":0.5275590551181102},{"duration":0.11111099999999396,"midi":53,"time":117.666549,"velocity":0.5275590551181102},{"duration":0.11111099999999396,"midi":58,"time":117.666549,"velocity":0.5275590551181102},{"duration":0.11111100000000818,"midi":53,"time":117.77766,"velocity":0.5275590551181102},{"duration":0.11111100000000818,"midi":58,"time":117.77766,"velocity":0.5275590551181102},{"duration":0.11111099999999396,"midi":58,"time":117.888771,"velocity":0.5275590551181102},{"duration":0.11111099999999396,"midi":77,"time":117.888771,"velocity":0.5275590551181102},{"duration":0.11111099999999396,"midi":53,"time":117.888771,"velocity":0.5275590551181102},{"duration":0.11111100000000818,"midi":53,"time":117.999882,"velocity":0.5275590551181102},{"duration":0.11111100000000818,"midi":58,"time":117.999882,"velocity":0.5275590551181102},{"duration":0.11111099999999396,"midi":53,"time":118.11099300000001,"velocity":0.5275590551181102},{"duration":0.11111099999999396,"midi":58,"time":118.11099300000001,"velocity":0.5275590551181102},{"duration":0.11111099999999396,"midi":58,"time":118.222104,"velocity":0.5275590551181102},{"duration":0.11111099999999396,"midi":53,"time":118.222104,"velocity":0.5275590551181102},{"duration":0.11111099999999396,"midi":77,"time":118.222104,"velocity":0.5275590551181102},{"duration":0.11111100000000818,"midi":58,"time":118.333215,"velocity":0.5275590551181102},{"duration":0.11111100000000818,"midi":53,"time":118.333215,"velocity":0.5275590551181102},{"duration":0.11111099999999396,"midi":58,"time":118.444326,"velocity":0.5275590551181102},{"duration":0.11111099999999396,"midi":53,"time":118.444326,"velocity":0.5275590551181102},{"duration":0.11111100000000818,"midi":58,"time":118.555437,"velocity":0.5275590551181102},{"duration":0.11111100000000818,"midi":53,"time":118.555437,"velocity":0.5275590551181102},{"duration":0.11111100000000818,"midi":80,"time":118.555437,"velocity":0.5275590551181102},{"duration":0.11111099999999396,"midi":58,"time":118.666548,"velocity":0.5275590551181102},{"duration":0.11111099999999396,"midi":53,"time":118.666548,"velocity":0.5275590551181102},{"duration":0.11111100000000818,"midi":53,"time":118.777659,"velocity":0.5275590551181102},{"duration":0.11111100000000818,"midi":58,"time":118.777659,"velocity":0.5275590551181102},{"duration":0.11111099999999396,"midi":53,"time":118.88877000000001,"velocity":0.5275590551181102},{"duration":0.11111099999999396,"midi":58,"time":118.88877000000001,"velocity":0.5275590551181102},{"duration":0.11111099999999396,"midi":82,"time":118.88877000000001,"velocity":0.5275590551181102},{"duration":0.11111099999999396,"midi":53,"time":118.999881,"velocity":0.5275590551181102},{"duration":0.11111099999999396,"midi":58,"time":118.999881,"velocity":0.5275590551181102},{"duration":0.11111100000000818,"midi":58,"time":119.110992,"velocity":0.5275590551181102},{"duration":0.11111100000000818,"midi":56,"time":119.110992,"velocity":0.5275590551181102},{"duration":0.11111099999999396,"midi":58,"time":119.222103,"velocity":0.5275590551181102},{"duration":0.11111099999999396,"midi":56,"time":119.222103,"velocity":0.5275590551181102},{"duration":0.11111100000000818,"midi":56,"time":119.333214,"velocity":0.5275590551181102},{"duration":0.11111100000000818,"midi":58,"time":119.333214,"velocity":0.5275590551181102},{"duration":0.11111100000000818,"midi":77,"time":119.333214,"velocity":0.5275590551181102},{"duration":0.11111099999999396,"midi":58,"time":119.444325,"velocity":0.5275590551181102},{"duration":0.11111099999999396,"midi":56,"time":119.444325,"velocity":0.5275590551181102},{"duration":0.11111100000000818,"midi":58,"time":119.555436,"velocity":0.5275590551181102},{"duration":0.11111100000000818,"midi":56,"time":119.555436,"velocity":0.5275590551181102},{"duration":0.11111099999999396,"midi":56,"time":119.66654700000001,"velocity":0.5275590551181102},{"duration":0.11111099999999396,"midi":77,"time":119.66654700000001,"velocity":0.5275590551181102},{"duration":0.11111099999999396,"midi":58,"time":119.66654700000001,"velocity":0.5275590551181102},{"duration":0.11111099999999396,"midi":58,"time":119.777658,"velocity":0.5275590551181102},{"duration":0.11111099999999396,"midi":56,"time":119.777658,"velocity":0.5275590551181102},{"duration":0.11111100000000818,"midi":56,"time":119.888769,"velocity":0.5275590551181102},{"duration":0.11111100000000818,"midi":58,"time":119.888769,"velocity":0.5275590551181102},{"duration":0.11111099999999396,"midi":58,"time":119.99988,"velocity":0.5275590551181102},{"duration":0.11111099999999396,"midi":56,"time":119.99988,"velocity":0.5275590551181102},{"duration":0.11111099999999396,"midi":75,"time":119.99988,"velocity":0.5275590551181102},{"duration":0.11111100000000818,"midi":56,"time":120.110991,"velocity":0.5275590551181102},{"duration":0.11111100000000818,"midi":58,"time":120.110991,"velocity":0.5275590551181102},{"duration":0.11111099999999396,"midi":58,"time":120.222102,"velocity":0.5275590551181102},{"duration":0.11111099999999396,"midi":56,"time":120.222102,"velocity":0.5275590551181102},{"duration":0.11111099999999396,"midi":56,"time":120.333213,"velocity":0.5275590551181102},{"duration":0.11111099999999396,"midi":76,"time":120.333213,"velocity":0.5275590551181102},{"duration":0.11111099999999396,"midi":58,"time":120.333213,"velocity":0.5275590551181102},{"duration":0.11111100000000818,"midi":56,"time":120.444324,"velocity":0.5275590551181102},{"duration":0.11111100000000818,"midi":58,"time":120.444324,"velocity":0.5275590551181102},{"duration":0.11111099999999396,"midi":58,"time":120.555435,"velocity":0.5275590551181102},{"duration":0.11111099999999396,"midi":56,"time":120.555435,"velocity":0.5275590551181102},{"duration":0.11111100000000818,"midi":56,"time":120.666546,"velocity":0.5275590551181102},{"duration":0.11111100000000818,"midi":58,"time":120.666546,"velocity":0.5275590551181102},{"duration":0.11111100000000818,"midi":77,"time":120.666546,"velocity":0.5275590551181102},{"duration":0.11111099999999396,"midi":58,"time":120.777657,"velocity":0.5275590551181102},{"duration":0.11111099999999396,"midi":56,"time":120.777657,"velocity":0.5275590551181102},{"duration":0.11111100000000818,"midi":53,"time":120.888768,"velocity":0.5275590551181102},{"duration":0.11111100000000818,"midi":58,"time":120.888768,"velocity":0.5275590551181102},{"duration":0.11111099999999396,"midi":58,"time":120.999879,"velocity":0.5275590551181102},{"duration":0.11111099999999396,"midi":53,"time":120.999879,"velocity":0.5275590551181102},{"duration":0.11111099999999396,"midi":53,"time":121.11099,"velocity":0.5275590551181102},{"duration":0.11111099999999396,"midi":58,"time":121.11099,"velocity":0.5275590551181102},{"duration":0.11111099999999396,"midi":77,"time":121.11099,"velocity":0.5275590551181102},{"duration":0.11111100000000818,"midi":58,"time":121.222101,"velocity":0.5275590551181102},{"duration":0.11111100000000818,"midi":53,"time":121.222101,"velocity":0.5275590551181102},{"duration":0.11111099999999396,"midi":53,"time":121.333212,"velocity":0.5275590551181102},{"duration":0.11111099999999396,"midi":58,"time":121.333212,"velocity":0.5275590551181102},{"duration":0.11111100000000818,"midi":58,"time":121.444323,"velocity":0.5275590551181102},{"duration":0.11111100000000818,"midi":53,"time":121.444323,"velocity":0.5275590551181102},{"duration":0.11111100000000818,"midi":77,"time":121.444323,"velocity":0.5275590551181102},{"duration":0.11111099999999396,"midi":53,"time":121.555434,"velocity":0.5275590551181102},{"duration":0.11111099999999396,"midi":58,"time":121.555434,"velocity":0.5275590551181102},{"duration":0.11111100000000818,"midi":58,"time":121.666545,"velocity":0.5275590551181102},{"duration":0.11111100000000818,"midi":53,"time":121.666545,"velocity":0.5275590551181102},{"duration":0.11111099999999396,"midi":53,"time":121.77765600000001,"velocity":0.5275590551181102},{"duration":0.11111099999999396,"midi":58,"time":121.77765600000001,"velocity":0.5275590551181102},{"duration":0.11111099999999396,"midi":77,"time":121.77765600000001,"velocity":0.5275590551181102},{"duration":0.11111099999999396,"midi":58,"time":121.888767,"velocity":0.5275590551181102},{"duration":0.11111099999999396,"midi":53,"time":121.888767,"velocity":0.5275590551181102},{"duration":0.11111100000000818,"midi":58,"time":121.999878,"velocity":0.5275590551181102},{"duration":0.11111100000000818,"midi":53,"time":121.999878,"velocity":0.5275590551181102},{"duration":0.11111099999999396,"midi":80,"time":122.110989,"velocity":0.5275590551181102},{"duration":0.11111099999999396,"midi":58,"time":122.110989,"velocity":0.5275590551181102},{"duration":0.11111099999999396,"midi":53,"time":122.110989,"velocity":0.5275590551181102},{"duration":0.11111100000000818,"midi":53,"time":122.2221,"velocity":0.5275590551181102},{"duration":0.11111100000000818,"midi":58,"time":122.2221,"velocity":0.5275590551181102},{"duration":0.11111099999999396,"midi":58,"time":122.333211,"velocity":0.5275590551181102},{"duration":0.11111099999999396,"midi":53,"time":122.333211,"velocity":0.5275590551181102},{"duration":0.11111100000000818,"midi":82,"time":122.444322,"velocity":0.5275590551181102},{"duration":0.11111100000000818,"midi":53,"time":122.444322,"velocity":0.5275590551181102},{"duration":0.11111100000000818,"midi":58,"time":122.444322,"velocity":0.5275590551181102},{"duration":0.11111099999999396,"midi":53,"time":122.55543300000001,"velocity":0.5275590551181102},{"duration":0.11111099999999396,"midi":58,"time":122.55543300000001,"velocity":0.5275590551181102},{"duration":0.11111099999999396,"midi":52,"time":122.666544,"velocity":0.5275590551181102},{"duration":0.11111099999999396,"midi":58,"time":122.666544,"velocity":0.5275590551181102},{"duration":0.11111100000000818,"midi":52,"time":122.777655,"velocity":0.5275590551181102},{"duration":0.11111100000000818,"midi":58,"time":122.777655,"velocity":0.5275590551181102},{"duration":0.11111099999999396,"midi":58,"time":122.888766,"velocity":0.5275590551181102},{"duration":0.11111099999999396,"midi":52,"time":122.888766,"velocity":0.5275590551181102},{"duration":0.11111099999999396,"midi":77,"time":122.888766,"velocity":0.5275590551181102},{"duration":0.11111100000000818,"midi":52,"time":122.999877,"velocity":0.5275590551181102},{"duration":0.11111100000000818,"midi":58,"time":122.999877,"velocity":0.5275590551181102},{"duration":0.11111099999999396,"midi":58,"time":123.110988,"velocity":0.5275590551181102},{"duration":0.11111099999999396,"midi":52,"time":123.110988,"velocity":0.5275590551181102},{"duration":0.11111100000000818,"midi":58,"time":123.222099,"velocity":0.5275590551181102},{"duration":0.11111100000000818,"midi":77,"time":123.222099,"velocity":0.5275590551181102},{"duration":0.11111100000000818,"midi":52,"time":123.222099,"velocity":0.5275590551181102},{"duration":0.11111099999999396,"midi":58,"time":123.33321000000001,"velocity":0.5275590551181102},{"duration":0.11111099999999396,"midi":52,"time":123.33321000000001,"velocity":0.5275590551181102},{"duration":0.11111099999999396,"midi":58,"time":123.444321,"velocity":0.5275590551181102},{"duration":0.11111099999999396,"midi":52,"time":123.444321,"velocity":0.5275590551181102},{"duration":0.11111100000000818,"midi":83,"time":123.555432,"velocity":0.5275590551181102},{"duration":0.11111100000000818,"midi":58,"time":123.555432,"velocity":0.5275590551181102},{"duration":0.11111100000000818,"midi":52,"time":123.555432,"velocity":0.5275590551181102},{"duration":0.11111099999999396,"midi":58,"time":123.666543,"velocity":0.5275590551181102},{"duration":0.11111099999999396,"midi":52,"time":123.666543,"velocity":0.5275590551181102},{"duration":0.11111100000000818,"midi":58,"time":123.777654,"velocity":0.5275590551181102},{"duration":0.11111100000000818,"midi":52,"time":123.777654,"velocity":0.5275590551181102},{"duration":0.11111099999999396,"midi":80,"time":123.888765,"velocity":0.5275590551181102},{"duration":0.11111099999999396,"midi":52,"time":123.888765,"velocity":0.5275590551181102},{"duration":0.11111099999999396,"midi":58,"time":123.888765,"velocity":0.5275590551181102},{"duration":0.11111100000000818,"midi":52,"time":123.999876,"velocity":0.5275590551181102},{"duration":0.11111100000000818,"midi":58,"time":123.999876,"velocity":0.5275590551181102},{"duration":0.11111099999999396,"midi":52,"time":124.11098700000001,"velocity":0.5275590551181102},{"duration":0.11111099999999396,"midi":58,"time":124.11098700000001,"velocity":0.5275590551181102},{"duration":0.11111099999999396,"midi":52,"time":124.222098,"velocity":0.5275590551181102},{"duration":0.11111099999999396,"midi":58,"time":124.222098,"velocity":0.5275590551181102},{"duration":0.11111099999999396,"midi":82,"time":124.222098,"velocity":0.5275590551181102},{"duration":0.11111100000000818,"midi":52,"time":124.333209,"velocity":0.5275590551181102},{"duration":0.11111100000000818,"midi":58,"time":124.333209,"velocity":0.5275590551181102},{"duration":0.11111099999999396,"midi":53,"time":124.44432,"velocity":0.5275590551181102},{"duration":0.11111099999999396,"midi":58,"time":124.44432,"velocity":0.5275590551181102},{"duration":0.11111100000000818,"midi":53,"time":124.555431,"velocity":0.5275590551181102},{"duration":0.11111100000000818,"midi":58,"time":124.555431,"velocity":0.5275590551181102},{"duration":0.11111099999999396,"midi":58,"time":124.666542,"velocity":0.5275590551181102},{"duration":0.11111099999999396,"midi":53,"time":124.666542,"velocity":0.5275590551181102},{"duration":0.11111099999999396,"midi":77,"time":124.666542,"velocity":0.5275590551181102},{"duration":0.11111099999999396,"midi":58,"time":124.777653,"velocity":0.5275590551181102},{"duration":0.11111099999999396,"midi":53,"time":124.777653,"velocity":0.5275590551181102},{"duration":0.11111100000000818,"midi":53,"time":124.888764,"velocity":0.5275590551181102},{"duration":0.11111100000000818,"midi":58,"time":124.888764,"velocity":0.5275590551181102},{"duration":0.11111099999999396,"midi":77,"time":124.999875,"velocity":0.5275590551181102},{"duration":0.11111099999999396,"midi":58,"time":124.999875,"velocity":0.5275590551181102},{"duration":0.11111099999999396,"midi":53,"time":124.999875,"velocity":0.5275590551181102},{"duration":0.11111100000000818,"midi":53,"time":125.110986,"velocity":0.5275590551181102},{"duration":0.11111100000000818,"midi":58,"time":125.110986,"velocity":0.5275590551181102},{"duration":0.11111099999999396,"midi":53,"time":125.222097,"velocity":0.5275590551181102},{"duration":0.11111099999999396,"midi":58,"time":125.222097,"velocity":0.5275590551181102},{"duration":0.11111100000000818,"midi":53,"time":125.333208,"velocity":0.5275590551181102},{"duration":0.11111100000000818,"midi":77,"time":125.333208,"velocity":0.5275590551181102},{"duration":0.11111100000000818,"midi":58,"time":125.333208,"velocity":0.5275590551181102},{"duration":0.11111099999999396,"midi":53,"time":125.44431900000001,"velocity":0.5275590551181102},{"duration":0.11111099999999396,"midi":58,"time":125.44431900000001,"velocity":0.5275590551181102},{"duration":0.11111099999999396,"midi":58,"time":125.55543,"velocity":0.5275590551181102},{"duration":0.11111099999999396,"midi":53,"time":125.55543,"velocity":0.5275590551181102},{"duration":0.11111100000000818,"midi":80,"time":125.666541,"velocity":0.5275590551181102},{"duration":0.11111100000000818,"midi":58,"time":125.666541,"velocity":0.5275590551181102},{"duration":0.11111100000000818,"midi":53,"time":125.666541,"velocity":0.5275590551181102},{"duration":0.11111099999999396,"midi":58,"time":125.777652,"velocity":0.5275590551181102},{"duration":0.11111099999999396,"midi":53,"time":125.777652,"velocity":0.5275590551181102},{"duration":0.11111100000000818,"midi":53,"time":125.888763,"velocity":0.5275590551181102},{"duration":0.11111100000000818,"midi":58,"time":125.888763,"velocity":0.5275590551181102},{"duration":0.11111099999999396,"midi":58,"time":125.999874,"velocity":0.5275590551181102},{"duration":0.11111099999999396,"midi":82,"time":125.999874,"velocity":0.5275590551181102},{"duration":0.11111099999999396,"midi":53,"time":125.999874,"velocity":0.5275590551181102},{"duration":0.11111100000000818,"midi":58,"time":126.110985,"velocity":0.5275590551181102},{"duration":0.11111100000000818,"midi":53,"time":126.110985,"velocity":0.5275590551181102},{"duration":0.11111099999999396,"midi":56,"time":126.22209600000001,"velocity":0.5275590551181102},{"duration":0.11111099999999396,"midi":58,"time":126.22209600000001,"velocity":0.5275590551181102},{"duration":0.11111099999999396,"midi":56,"time":126.333207,"velocity":0.5275590551181102},{"duration":0.11111099999999396,"midi":58,"time":126.333207,"velocity":0.5275590551181102},{"duration":0.11111100000000818,"midi":56,"time":126.444318,"velocity":0.5275590551181102},{"duration":0.11111100000000818,"midi":58,"time":126.444318,"velocity":0.5275590551181102},{"duration":0.11111100000000818,"midi":77,"time":126.444318,"velocity":0.5275590551181102},{"duration":0.11111099999999396,"midi":56,"time":126.555429,"velocity":0.5275590551181102},{"duration":0.11111099999999396,"midi":58,"time":126.555429,"velocity":0.5275590551181102},{"duration":0.11111100000000818,"midi":56,"time":126.66654,"velocity":0.5275590551181102},{"duration":0.11111100000000818,"midi":58,"time":126.66654,"velocity":0.5275590551181102},{"duration":0.11111099999999396,"midi":77,"time":126.777651,"velocity":0.5275590551181102},{"duration":0.11111099999999396,"midi":56,"time":126.777651,"velocity":0.5275590551181102},{"duration":0.11111099999999396,"midi":58,"time":126.777651,"velocity":0.5275590551181102},{"duration":0.11111100000000818,"midi":58,"time":126.888762,"velocity":0.5275590551181102},{"duration":0.11111100000000818,"midi":56,"time":126.888762,"velocity":0.5275590551181102},{"duration":0.11111099999999396,"midi":56,"time":126.99987300000001,"velocity":0.5275590551181102},{"duration":0.11111099999999396,"midi":58,"time":126.99987300000001,"velocity":0.5275590551181102},{"duration":0.11111099999999396,"midi":75,"time":127.110984,"velocity":0.5275590551181102},{"duration":0.11111099999999396,"midi":58,"time":127.110984,"velocity":0.5275590551181102},{"duration":0.11111099999999396,"midi":56,"time":127.110984,"velocity":0.5275590551181102},{"duration":0.11111100000000818,"midi":56,"time":127.222095,"velocity":0.5275590551181102},{"duration":0.11111100000000818,"midi":58,"time":127.222095,"velocity":0.5275590551181102},{"duration":0.11111099999999396,"midi":58,"time":127.333206,"velocity":0.5275590551181102},{"duration":0.11111099999999396,"midi":56,"time":127.333206,"velocity":0.5275590551181102},{"duration":0.11111100000000818,"midi":76,"time":127.444317,"velocity":0.5275590551181102},{"duration":0.11111100000000818,"midi":56,"time":127.444317,"velocity":0.5275590551181102},{"duration":0.11111100000000818,"midi":58,"time":127.444317,"velocity":0.5275590551181102},{"duration":0.11111099999999396,"midi":56,"time":127.555428,"velocity":0.5275590551181102},{"duration":0.11111099999999396,"midi":58,"time":127.555428,"velocity":0.5275590551181102},{"duration":0.11111100000000818,"midi":56,"time":127.666539,"velocity":0.5275590551181102},{"duration":0.11111100000000818,"midi":58,"time":127.666539,"velocity":0.5275590551181102},{"duration":0.11111099999999396,"midi":58,"time":127.77765000000001,"velocity":0.5275590551181102},{"duration":0.11111099999999396,"midi":77,"time":127.77765000000001,"velocity":0.5275590551181102},{"duration":0.11111099999999396,"midi":56,"time":127.77765000000001,"velocity":0.5275590551181102},{"duration":0.11111099999999396,"midi":58,"time":127.888761,"velocity":0.5275590551181102},{"duration":0.11111099999999396,"midi":56,"time":127.888761,"velocity":0.5275590551181102}]},{"instrument":{"family":"synth lead","number":87,"name":"lead 8 (bass + lead)"},"notes":[{"duration":1.7777760000000002,"midi":41,"time":7.111104,"velocity":0.3937007874015748},{"duration":1.7777759999999994,"midi":40,"time":8.88888,"velocity":0.3937007874015748},{"duration":1.7777760000000011,"midi":41,"time":10.666656,"velocity":0.3937007874015748},{"duration":1.7777759999999994,"midi":44,"time":12.444432,"velocity":0.3937007874015748},{"duration":0.1111109999999993,"midi":34,"time":14.222208,"velocity":0.3937007874015748},{"duration":0.11111100000000107,"midi":29,"time":14.333319,"velocity":0.3937007874015748},{"duration":0.1111109999999993,"midi":32,"time":14.44443,"velocity":0.3937007874015748},{"duration":0.11111100000000107,"midi":34,"time":14.555541,"velocity":0.3937007874015748},{"duration":0.1111109999999993,"midi":29,"time":14.777763,"velocity":0.3937007874015748},{"duration":0.11111100000000107,"midi":32,"time":14.888874,"velocity":0.3937007874015748},{"duration":0.1111109999999993,"midi":27,"time":14.999985,"velocity":0.3937007874015748},{"duration":0.11111100000000107,"midi":34,"time":15.111096,"velocity":0.3937007874015748},{"duration":0.1111109999999993,"midi":29,"time":15.222207000000001,"velocity":0.3937007874015748},{"duration":0.1111109999999993,"midi":32,"time":15.333318,"velocity":0.3937007874015748},{"duration":0.11111100000000107,"midi":34,"time":15.444429,"velocity":0.3937007874015748},{"duration":0.11111100000000107,"midi":29,"time":15.666651,"velocity":0.3937007874015748},{"duration":0.1111109999999993,"midi":32,"time":15.777762000000001,"velocity":0.3937007874015748},{"duration":0.1111109999999993,"midi":27,"time":15.888873,"velocity":0.3937007874015748},{"duration":0.1111109999999993,"midi":34,"time":15.999984,"velocity":0.3937007874015748},{"duration":0.11111100000000107,"midi":29,"time":16.111095,"velocity":0.3937007874015748},{"duration":0.11111100000000107,"midi":32,"time":16.222206,"velocity":0.3937007874015748},{"duration":0.11111099999999752,"midi":34,"time":16.333317,"velocity":0.3937007874015748},{"duration":0.11111100000000107,"midi":29,"time":16.555539,"velocity":0.3937007874015748},{"duration":0.11111100000000107,"midi":32,"time":16.66665,"velocity":0.3937007874015748},{"duration":0.11111099999999752,"midi":27,"time":16.777761,"velocity":0.3937007874015748},{"duration":0.11111100000000107,"midi":34,"time":16.888872,"velocity":0.3937007874015748},{"duration":0.11111100000000107,"midi":29,"time":16.999983,"velocity":0.3937007874015748},{"duration":0.11111099999999752,"midi":32,"time":17.111094,"velocity":0.3937007874015748},{"duration":0.11111100000000107,"midi":41,"time":17.222205,"velocity":0.3937007874015748},{"duration":0.11111099999999752,"midi":39,"time":17.444427,"velocity":0.3937007874015748},{"duration":0.11111100000000107,"midi":37,"time":17.555538,"velocity":0.3937007874015748},{"duration":0.11111100000000107,"midi":32,"time":17.666649,"velocity":0.3937007874015748},{"duration":0.11111100000000107,"midi":34,"time":17.77776,"velocity":0.3937007874015748},{"duration":0.11111099999999752,"midi":29,"time":17.888871,"velocity":0.3937007874015748},{"duration":0.11111100000000107,"midi":32,"time":17.999982,"velocity":0.3937007874015748},{"duration":0.11111100000000107,"midi":34,"time":18.111093,"velocity":0.3937007874015748},{"duration":0.11111100000000107,"midi":29,"time":18.333315,"velocity":0.3937007874015748},{"duration":0.11111100000000107,"midi":32,"time":18.444426,"velocity":0.3937007874015748},{"duration":0.11111099999999752,"midi":27,"time":18.555537,"velocity":0.3937007874015748},{"duration":0.11111100000000107,"midi":34,"time":18.666648,"velocity":0.3937007874015748},{"duration":0.11111100000000107,"midi":29,"time":18.777759,"velocity":0.3937007874015748},{"duration":0.11111100000000107,"midi":32,"time":18.88887,"velocity":0.3937007874015748},{"duration":0.11111099999999752,"midi":34,"time":18.999981000000002,"velocity":0.3937007874015748},{"duration":0.11111100000000107,"midi":29,"time":19.222203,"velocity":0.3937007874015748},{"duration":0.11111099999999752,"midi":32,"time":19.333314,"velocity":0.3937007874015748},{"duration":0.11111100000000107,"midi":27,"time":19.444425,"velocity":0.3937007874015748},{"duration":0.11111100000000107,"midi":34,"time":19.555536,"velocity":0.3937007874015748},{"duration":0.11111099999999752,"midi":29,"time":19.666647,"velocity":0.3937007874015748},{"duration":0.11111100000000107,"midi":32,"time":19.777758,"velocity":0.3937007874015748},{"duration":0.11111100000000107,"midi":34,"time":19.888869,"velocity":0.3937007874015748},{"duration":0.11111099999999752,"midi":29,"time":20.111091000000002,"velocity":0.3937007874015748},{"duration":0.11111100000000107,"midi":32,"time":20.222202,"velocity":0.3937007874015748},{"duration":0.11111100000000107,"midi":27,"time":20.333313,"velocity":0.3937007874015748},{"duration":0.11111099999999752,"midi":34,"time":20.444424,"velocity":0.3937007874015748},{"duration":0.11111100000000107,"midi":29,"time":20.555535,"velocity":0.3937007874015748},{"duration":0.11111100000000107,"midi":32,"time":20.666646,"velocity":0.3937007874015748},{"duration":0.11111099999999752,"midi":41,"time":20.777757,"velocity":0.3937007874015748},{"duration":0.11111100000000107,"midi":39,"time":20.999979,"velocity":0.3937007874015748},{"duration":0.11111100000000107,"midi":37,"time":21.11109,"velocity":0.3937007874015748},{"duration":0.11111099999999752,"midi":32,"time":21.222201000000002,"velocity":0.3937007874015748},{"duration":0.11111100000000107,"midi":34,"time":21.333312,"velocity":0.3937007874015748},{"duration":0.11111100000000107,"midi":29,"time":21.444423,"velocity":0.3937007874015748},{"duration":0.11111099999999752,"midi":32,"time":21.555534,"velocity":0.3937007874015748},{"duration":0.11111100000000107,"midi":34,"time":21.666645,"velocity":0.3937007874015748},{"duration":0.11111099999999752,"midi":29,"time":21.888867,"velocity":0.3937007874015748},{"duration":0.11111100000000107,"midi":32,"time":21.999978,"velocity":0.3937007874015748},{"duration":0.11111100000000107,"midi":27,"time":22.111089,"velocity":0.3937007874015748},{"duration":0.11111100000000107,"midi":34,"time":22.2222,"velocity":0.3937007874015748},{"duration":0.11111099999999752,"midi":29,"time":22.333311000000002,"velocity":0.3937007874015748},{"duration":0.11111100000000107,"midi":32,"time":22.444422,"velocity":0.3937007874015748},{"duration":0.11111100000000107,"midi":34,"time":22.555533,"velocity":0.3937007874015748},{"duration":0.11111100000000107,"midi":29,"time":22.777755,"velocity":0.3937007874015748},{"duration":0.11111100000000107,"midi":32,"time":22.888866,"velocity":0.3937007874015748},{"duration":0.11111099999999752,"midi":27,"time":22.999977,"velocity":0.3937007874015748},{"duration":0.11111100000000107,"midi":34,"time":23.111088,"velocity":0.3937007874015748},{"duration":0.11111100000000107,"midi":29,"time":23.222199,"velocity":0.3937007874015748},{"duration":0.11111100000000107,"midi":32,"time":23.33331,"velocity":0.3937007874015748},{"duration":0.11111099999999752,"midi":34,"time":23.444421000000002,"velocity":0.3937007874015748},{"duration":0.11111100000000107,"midi":29,"time":23.666643,"velocity":0.3937007874015748},{"duration":0.11111099999999752,"midi":32,"time":23.777754,"velocity":0.3937007874015748},{"duration":0.11111100000000107,"midi":27,"time":23.888865,"velocity":0.3937007874015748},{"duration":0.11111100000000107,"midi":34,"time":23.999976,"velocity":0.3937007874015748},{"duration":0.11111099999999752,"midi":29,"time":24.111087,"velocity":0.3937007874015748},{"duration":0.11111100000000107,"midi":32,"time":24.222198,"velocity":0.3937007874015748},{"duration":0.11111100000000107,"midi":41,"time":24.333309,"velocity":0.3937007874015748},{"duration":0.11111099999999752,"midi":39,"time":24.555531000000002,"velocity":0.3937007874015748},{"duration":0.11111100000000107,"midi":37,"time":24.666642,"velocity":0.3937007874015748},{"duration":0.11111100000000107,"midi":32,"time":24.777753,"velocity":0.3937007874015748},{"duration":0.11111099999999752,"midi":34,"time":24.888864,"velocity":0.3937007874015748},{"duration":0.11111100000000107,"midi":29,"time":24.999975,"velocity":0.3937007874015748},{"duration":0.11111100000000107,"midi":32,"time":25.111086,"velocity":0.3937007874015748},{"duration":0.11111099999999752,"midi":34,"time":25.222197,"velocity":0.3937007874015748},{"duration":0.11111100000000107,"midi":29,"time":25.444419,"velocity":0.3937007874015748},{"duration":0.11111100000000107,"midi":32,"time":25.55553,"velocity":0.3937007874015748},{"duration":0.11111099999999752,"midi":27,"time":25.666641000000002,"velocity":0.3937007874015748},{"duration":0.11111100000000107,"midi":34,"time":25.777752,"velocity":0.3937007874015748},{"duration":0.11111100000000107,"midi":29,"time":25.888863,"velocity":0.3937007874015748},{"duration":0.11111099999999752,"midi":32,"time":25.999974,"velocity":0.3937007874015748},{"duration":0.11111100000000107,"midi":34,"time":26.111085,"velocity":0.3937007874015748},{"duration":0.11111099999999752,"midi":29,"time":26.333307,"velocity":0.3937007874015748},{"duration":0.11111100000000107,"midi":32,"time":26.444418,"velocity":0.3937007874015748},{"duration":0.11111100000000107,"midi":27,"time":26.555529,"velocity":0.3937007874015748},{"duration":0.11111100000000107,"midi":34,"time":26.66664,"velocity":0.3937007874015748},{"duration":0.11111099999999752,"midi":29,"time":26.777751000000002,"velocity":0.3937007874015748},{"duration":0.11111100000000107,"midi":32,"time":26.888862,"velocity":0.3937007874015748},{"duration":0.11111100000000107,"midi":34,"time":26.999973,"velocity":0.3937007874015748},{"duration":0.11111100000000107,"midi":29,"time":27.222195,"velocity":0.3937007874015748},{"duration":0.11111100000000107,"midi":32,"time":27.333306,"velocity":0.3937007874015748},{"duration":0.11111099999999752,"midi":27,"time":27.444417,"velocity":0.3937007874015748},{"duration":0.11111100000000107,"midi":34,"time":27.555528,"velocity":0.3937007874015748},{"duration":0.11111100000000107,"midi":29,"time":27.666639,"velocity":0.3937007874015748},{"duration":0.11111100000000107,"midi":32,"time":27.77775,"velocity":0.3937007874015748},{"duration":0.11111099999999752,"midi":41,"time":27.888861000000002,"velocity":0.3937007874015748},{"duration":0.11111100000000107,"midi":39,"time":28.111083,"velocity":0.3937007874015748},{"duration":0.11111099999999752,"midi":37,"time":28.222194000000002,"velocity":0.3937007874015748},{"duration":0.11111100000000107,"midi":32,"time":28.333305,"velocity":0.3937007874015748},{"duration":0.11111100000000107,"midi":34,"time":28.444416,"velocity":0.3937007874015748},{"duration":0.11111099999999752,"midi":29,"time":28.555527,"velocity":0.3937007874015748},{"duration":0.11111100000000107,"midi":32,"time":28.666638,"velocity":0.3937007874015748},{"duration":0.11111100000000107,"midi":34,"time":28.777749,"velocity":0.3937007874015748},{"duration":0.11111100000000107,"midi":29,"time":28.999971,"velocity":0.3937007874015748},{"duration":0.11111100000000107,"midi":32,"time":29.111082,"velocity":0.3937007874015748},{"duration":0.11111100000000107,"midi":27,"time":29.222193,"velocity":0.3937007874015748},{"duration":0.11111099999999752,"midi":34,"time":29.333304000000002,"velocity":0.3937007874015748},{"duration":0.11111100000000107,"midi":29,"time":29.444415,"velocity":0.3937007874015748},{"duration":0.11111100000000107,"midi":32,"time":29.555526,"velocity":0.3937007874015748},{"duration":0.11111099999999752,"midi":34,"time":29.666637,"velocity":0.3937007874015748},{"duration":0.11111100000000107,"midi":29,"time":29.888859,"velocity":0.3937007874015748},{"duration":0.11111099999999752,"midi":32,"time":29.99997,"velocity":0.3937007874015748},{"duration":0.11111100000000107,"midi":27,"time":30.111081,"velocity":0.3937007874015748},{"duration":0.11111100000000107,"midi":34,"time":30.222192,"velocity":0.3937007874015748},{"duration":0.11111100000000107,"midi":29,"time":30.333303,"velocity":0.3937007874015748},{"duration":0.11111099999999752,"midi":32,"time":30.444414000000002,"velocity":0.3937007874015748},{"duration":0.11111100000000107,"midi":34,"time":30.555525,"velocity":0.3937007874015748},{"duration":0.11111099999999752,"midi":29,"time":30.777747,"velocity":0.3937007874015748},{"duration":0.11111100000000107,"midi":32,"time":30.888858,"velocity":0.3937007874015748},{"duration":0.11111100000000107,"midi":27,"time":30.999969,"velocity":0.3937007874015748},{"duration":0.11111099999999752,"midi":34,"time":31.11108,"velocity":0.3937007874015748},{"duration":0.11111100000000107,"midi":29,"time":31.222191,"velocity":0.3937007874015748},{"duration":0.11111100000000107,"midi":32,"time":31.333302,"velocity":0.3937007874015748},{"duration":0.11111100000000107,"midi":41,"time":31.444413,"velocity":0.3937007874015748},{"duration":0.11111100000000107,"midi":39,"time":31.666635,"velocity":0.3937007874015748},{"duration":0.11111100000000107,"midi":37,"time":31.777746,"velocity":0.3937007874015748},{"duration":0.11111099999999752,"midi":32,"time":31.888857,"velocity":0.3937007874015748},{"duration":0.11111100000000462,"midi":34,"time":31.999968,"velocity":0.3937007874015748},{"duration":0.11111099999999396,"midi":29,"time":32.111079000000004,"velocity":0.3937007874015748},{"duration":0.11111100000000107,"midi":32,"time":32.22219,"velocity":0.3937007874015748},{"duration":0.11111100000000107,"midi":34,"time":32.333301,"velocity":0.3937007874015748},{"duration":0.11111100000000107,"midi":29,"time":32.555523,"velocity":0.3937007874015748},{"duration":0.11111100000000107,"midi":32,"time":32.666634,"velocity":0.3937007874015748},{"duration":0.11111099999999396,"midi":27,"time":32.777745,"velocity":0.3937007874015748},{"duration":0.11111100000000107,"midi":34,"time":32.888856,"velocity":0.3937007874015748},{"duration":0.11111100000000107,"midi":29,"time":32.999967,"velocity":0.3937007874015748},{"duration":0.11111100000000107,"midi":32,"time":33.111078,"velocity":0.3937007874015748},{"duration":0.11111100000000107,"midi":34,"time":33.222189,"velocity":0.3937007874015748},{"duration":0.11111100000000107,"midi":29,"time":33.444411,"velocity":0.3937007874015748},{"duration":0.11111099999999396,"midi":32,"time":33.555522,"velocity":0.3937007874015748},{"duration":0.11111100000000107,"midi":27,"time":33.666633,"velocity":0.3937007874015748},{"duration":0.11111100000000107,"midi":34,"time":33.777744,"velocity":0.3937007874015748},{"duration":0.11111100000000107,"midi":29,"time":33.888855,"velocity":0.3937007874015748},{"duration":0.11111100000000107,"midi":32,"time":33.999966,"velocity":0.3937007874015748},{"duration":0.11111100000000107,"midi":34,"time":34.111077,"velocity":0.3937007874015748},{"duration":0.11111099999999396,"midi":29,"time":34.333299000000004,"velocity":0.3937007874015748},{"duration":0.11111100000000107,"midi":32,"time":34.44441,"velocity":0.3937007874015748},{"duration":0.11111100000000107,"midi":27,"time":34.555521,"velocity":0.3937007874015748},{"duration":0.11111100000000107,"midi":34,"time":34.666632,"velocity":0.3937007874015748},{"duration":0.11111100000000107,"midi":29,"time":34.777743,"velocity":0.3937007874015748},{"duration":0.11111100000000107,"midi":32,"time":34.888854,"velocity":0.3937007874015748},{"duration":0.11111099999999396,"midi":41,"time":34.999965,"velocity":0.3937007874015748},{"duration":0.11111100000000107,"midi":39,"time":35.222187,"velocity":0.3937007874015748},{"duration":0.11111100000000107,"midi":37,"time":35.333298,"velocity":0.3937007874015748},{"duration":0.11111100000000107,"midi":32,"time":35.444409,"velocity":0.3937007874015748},{"duration":0.11111100000000107,"midi":34,"time":35.55552,"velocity":0.3937007874015748},{"duration":0.11111100000000107,"midi":29,"time":35.666631,"velocity":0.3937007874015748},{"duration":0.11111099999999396,"midi":32,"time":35.777742,"velocity":0.3937007874015748},{"duration":0.11111100000000107,"midi":34,"time":35.888853,"velocity":0.3937007874015748},{"duration":0.11111100000000107,"midi":29,"time":36.111075,"velocity":0.3937007874015748},{"duration":0.11111100000000107,"midi":32,"time":36.222186,"velocity":0.3937007874015748},{"duration":0.11111100000000107,"midi":27,"time":36.333297,"velocity":0.3937007874015748},{"duration":0.11111100000000107,"midi":34,"time":36.444408,"velocity":0.3937007874015748},{"duration":0.11111099999999396,"midi":29,"time":36.555519000000004,"velocity":0.3937007874015748},{"duration":0.11111100000000107,"midi":32,"time":36.66663,"velocity":0.3937007874015748},{"duration":0.11111100000000107,"midi":34,"time":36.777741,"velocity":0.3937007874015748},{"duration":0.11111100000000107,"midi":29,"time":36.999963,"velocity":0.3937007874015748},{"duration":0.11111100000000107,"midi":32,"time":37.111074,"velocity":0.3937007874015748},{"duration":0.11111099999999396,"midi":27,"time":37.222185,"velocity":0.3937007874015748},{"duration":0.11111100000000107,"midi":34,"time":37.333296,"velocity":0.3937007874015748},{"duration":0.11111100000000107,"midi":29,"time":37.444407,"velocity":0.3937007874015748},{"duration":0.11111100000000107,"midi":32,"time":37.555518,"velocity":0.3937007874015748},{"duration":0.11111100000000107,"midi":34,"time":37.666629,"velocity":0.3937007874015748},{"duration":0.11111100000000107,"midi":29,"time":37.888851,"velocity":0.3937007874015748},{"duration":0.11111099999999396,"midi":32,"time":37.999962000000004,"velocity":0.3937007874015748},{"duration":0.11111100000000107,"midi":27,"time":38.111073,"velocity":0.3937007874015748},{"duration":0.11111100000000107,"midi":34,"time":38.222184,"velocity":0.3937007874015748},{"duration":0.11111100000000107,"midi":29,"time":38.333295,"velocity":0.3937007874015748},{"duration":0.11111100000000107,"midi":32,"time":38.444406,"velocity":0.3937007874015748},{"duration":0.11111100000000107,"midi":41,"time":38.555517,"velocity":0.3937007874015748},{"duration":0.11111099999999396,"midi":39,"time":38.777739000000004,"velocity":0.3937007874015748},{"duration":0.11111100000000107,"midi":37,"time":38.88885,"velocity":0.3937007874015748},{"duration":0.11111100000000107,"midi":32,"time":38.999961,"velocity":0.3937007874015748},{"duration":0.11111100000000107,"midi":34,"time":39.111072,"velocity":0.3937007874015748},{"duration":0.11111100000000107,"midi":29,"time":39.222183,"velocity":0.3937007874015748},{"duration":0.11111100000000107,"midi":32,"time":39.333294,"velocity":0.3937007874015748},{"duration":0.11111099999999396,"midi":34,"time":39.444405,"velocity":0.3937007874015748},{"duration":0.11111100000000107,"midi":29,"time":39.666627,"velocity":0.3937007874015748},{"duration":0.11111100000000107,"midi":32,"time":39.777738,"velocity":0.3937007874015748},{"duration":0.11111100000000107,"midi":27,"time":39.888849,"velocity":0.3937007874015748},{"duration":0.11111100000000107,"midi":34,"time":39.99996,"velocity":0.3937007874015748},{"duration":0.11111100000000107,"midi":29,"time":40.111071,"velocity":0.3937007874015748},{"duration":0.11111099999999396,"midi":32,"time":40.222182000000004,"velocity":0.3937007874015748},{"duration":0.11111100000000107,"midi":34,"time":40.333293,"velocity":0.3937007874015748},{"duration":0.11111100000000107,"midi":29,"time":40.555515,"velocity":0.3937007874015748},{"duration":0.11111100000000107,"midi":32,"time":40.666626,"velocity":0.3937007874015748},{"duration":0.11111100000000107,"midi":27,"time":40.777737,"velocity":0.3937007874015748},{"duration":0.11111100000000107,"midi":34,"time":40.888848,"velocity":0.3937007874015748},{"duration":0.11111099999999396,"midi":29,"time":40.999959000000004,"velocity":0.3937007874015748},{"duration":0.11111100000000107,"midi":32,"time":41.11107,"velocity":0.3937007874015748},{"duration":0.11111100000000107,"midi":34,"time":41.222181,"velocity":0.3937007874015748},{"duration":0.11111100000000107,"midi":29,"time":41.444403,"velocity":0.3937007874015748},{"duration":0.11111100000000107,"midi":32,"time":41.555514,"velocity":0.3937007874015748},{"duration":0.11111099999999396,"midi":27,"time":41.666625,"velocity":0.3937007874015748},{"duration":0.11111100000000107,"midi":34,"time":41.777736,"velocity":0.3937007874015748},{"duration":0.11111100000000107,"midi":29,"time":41.888847,"velocity":0.3937007874015748},{"duration":0.11111100000000107,"midi":32,"time":41.999958,"velocity":0.3937007874015748},{"duration":0.11111100000000107,"midi":41,"time":42.111069,"velocity":0.3937007874015748},{"duration":0.11111100000000107,"midi":39,"time":42.333291,"velocity":0.3937007874015748},{"duration":0.11111099999999396,"midi":37,"time":42.444402000000004,"velocity":0.3937007874015748},{"duration":0.11111100000000107,"midi":32,"time":42.555513,"velocity":0.3937007874015748},{"duration":0.11111100000000107,"midi":34,"time":42.666624,"velocity":0.3937007874015748},{"duration":0.11111100000000107,"midi":29,"time":42.888846,"velocity":0.3937007874015748},{"duration":0.11111100000000107,"midi":34,"time":42.999957,"velocity":0.3937007874015748},{"duration":0.11111100000000107,"midi":29,"time":43.222179,"velocity":0.3937007874015748},{"duration":0.11111100000000107,"midi":34,"time":43.33329,"velocity":0.3937007874015748},{"duration":0.11111100000000107,"midi":29,"time":43.444401,"velocity":0.3937007874015748},{"duration":0.11111100000000107,"midi":29,"time":43.555512,"velocity":0.3937007874015748},{"duration":0.11111100000000107,"midi":32,"time":43.777734,"velocity":0.3937007874015748},{"duration":0.11111099999999396,"midi":37,"time":43.888845,"velocity":0.3937007874015748},{"duration":0.11111100000000107,"midi":32,"time":44.111067,"velocity":0.3937007874015748},{"duration":0.11111100000000107,"midi":37,"time":44.222178,"velocity":0.3937007874015748},{"duration":0.11111100000000107,"midi":39,"time":44.333289,"velocity":0.3937007874015748},{"duration":0.11111100000000107,"midi":36,"time":44.4444,"velocity":0.3937007874015748},{"duration":0.11111099999999396,"midi":31,"time":44.666622000000004,"velocity":0.3937007874015748},{"duration":0.11111100000000107,"midi":36,"time":44.777733,"velocity":0.3937007874015748},{"duration":0.11111100000000107,"midi":30,"time":44.999955,"velocity":0.3937007874015748},{"duration":0.11111100000000107,"midi":32,"time":45.111066,"velocity":0.3937007874015748},{"duration":0.11111100000000107,"midi":37,"time":45.222177,"velocity":0.3937007874015748},{"duration":0.11111099999999396,"midi":40,"time":45.333288,"velocity":0.3937007874015748},{"duration":0.11111100000000107,"midi":37,"time":45.55551,"velocity":0.3937007874015748},{"duration":0.11111100000000107,"midi":40,"time":45.666621,"velocity":0.3937007874015748},{"duration":0.11111100000000107,"midi":39,"time":45.888843,"velocity":0.3937007874015748},{"duration":0.11111100000000107,"midi":32,"time":45.999954,"velocity":0.3937007874015748},{"duration":0.11111099999999396,"midi":37,"time":46.111065,"velocity":0.3937007874015748},{"duration":0.11111100000000107,"midi":34,"time":46.222176,"velocity":0.3937007874015748},{"duration":0.11111100000000107,"midi":29,"time":46.333287,"velocity":0.3937007874015748},{"duration":0.11111100000000107,"midi":32,"time":46.444398,"velocity":0.3937007874015748},{"duration":0.11111100000000107,"midi":34,"time":46.555509,"velocity":0.3937007874015748},{"duration":0.11111100000000107,"midi":29,"time":46.777731,"velocity":0.3937007874015748},{"duration":0.11111099999999396,"midi":32,"time":46.888842000000004,"velocity":0.3937007874015748},{"duration":0.11111100000000107,"midi":27,"time":46.999953,"velocity":0.3937007874015748},{"duration":0.11111100000000107,"midi":34,"time":47.111064,"velocity":0.3937007874015748},{"duration":0.11111100000000107,"midi":29,"time":47.222175,"velocity":0.3937007874015748},{"duration":0.11111100000000107,"midi":32,"time":47.333286,"velocity":0.3937007874015748},{"duration":0.11111100000000107,"midi":34,"time":47.444397,"velocity":0.3937007874015748},{"duration":0.11111100000000107,"midi":29,"time":47.666619,"velocity":0.3937007874015748},{"duration":0.11111100000000107,"midi":32,"time":47.77773,"velocity":0.3937007874015748},{"duration":0.11111100000000107,"midi":27,"time":47.888841,"velocity":0.3937007874015748},{"duration":0.11111100000000107,"midi":34,"time":47.999952,"velocity":0.3937007874015748},{"duration":0.11111100000000107,"midi":29,"time":48.111063,"velocity":0.3937007874015748},{"duration":0.11111100000000107,"midi":32,"time":48.222174,"velocity":0.3937007874015748},{"duration":0.11111099999999396,"midi":34,"time":48.333285000000004,"velocity":0.3937007874015748},{"duration":0.11111100000000107,"midi":29,"time":48.555507,"velocity":0.3937007874015748},{"duration":0.11111100000000107,"midi":32,"time":48.666618,"velocity":0.3937007874015748},{"duration":0.11111100000000107,"midi":27,"time":48.777729,"velocity":0.3937007874015748},{"duration":0.11111100000000107,"midi":34,"time":48.88884,"velocity":0.3937007874015748},{"duration":0.11111100000000107,"midi":29,"time":48.999951,"velocity":0.3937007874015748},{"duration":0.11111099999999396,"midi":32,"time":49.111062000000004,"velocity":0.3937007874015748},{"duration":0.11111100000000107,"midi":41,"time":49.222173,"velocity":0.3937007874015748},{"duration":0.11111100000000107,"midi":39,"time":49.444395,"velocity":0.3937007874015748},{"duration":0.11111100000000107,"midi":37,"time":49.555506,"velocity":0.3937007874015748},{"duration":0.11111100000000107,"midi":32,"time":49.666617,"velocity":0.3937007874015748},{"duration":0.11111099999999396,"midi":34,"time":49.777728,"velocity":0.3937007874015748},{"duration":0.11111100000000107,"midi":29,"time":49.99995,"velocity":0.3937007874015748},{"duration":0.11111100000000107,"midi":34,"time":50.111061,"velocity":0.3937007874015748},{"duration":0.11111100000000107,"midi":29,"time":50.333283,"velocity":0.3937007874015748},{"duration":0.11111100000000107,"midi":34,"time":50.444394,"velocity":0.3937007874015748},{"duration":0.11111099999999396,"midi":29,"time":50.555505000000004,"velocity":0.3937007874015748},{"duration":0.11111100000000107,"midi":29,"time":50.666616,"velocity":0.3937007874015748},{"duration":0.11111100000000107,"midi":32,"time":50.888838,"velocity":0.3937007874015748},{"duration":0.11111100000000107,"midi":37,"time":50.999949,"velocity":0.3937007874015748},{"duration":0.11111100000000107,"midi":32,"time":51.222171,"velocity":0.3937007874015748},{"duration":0.11111099999999396,"midi":37,"time":51.333282000000004,"velocity":0.3937007874015748},{"duration":0.11111100000000107,"midi":39,"time":51.444393,"velocity":0.3937007874015748},{"duration":0.11111100000000107,"midi":36,"time":51.555504,"velocity":0.3937007874015748},{"duration":0.11111100000000107,"midi":31,"time":51.777726,"velocity":0.3937007874015748},{"duration":0.11111100000000107,"midi":36,"time":51.888837,"velocity":0.3937007874015748},{"duration":0.11111100000000107,"midi":30,"time":52.111059,"velocity":0.3937007874015748},{"duration":0.11111100000000107,"midi":32,"time":52.22217,"velocity":0.3937007874015748},{"duration":0.11111100000000107,"midi":37,"time":52.333281,"velocity":0.3937007874015748},{"duration":0.11111100000000107,"midi":40,"time":52.444392,"velocity":0.3937007874015748},{"duration":0.11111100000000107,"midi":37,"time":52.666614,"velocity":0.3937007874015748},{"duration":0.11111099999999396,"midi":40,"time":52.777725000000004,"velocity":0.3937007874015748},{"duration":0.11111100000000107,"midi":39,"time":52.999947,"velocity":0.3937007874015748},{"duration":0.11111100000000107,"midi":32,"time":53.111058,"velocity":0.3937007874015748},{"duration":0.11111100000000107,"midi":37,"time":53.222169,"velocity":0.3937007874015748},{"duration":0.11111100000000107,"midi":34,"time":53.33328,"velocity":0.3937007874015748},{"duration":0.11111100000000107,"midi":29,"time":53.444391,"velocity":0.3937007874015748},{"duration":0.11111099999999396,"midi":32,"time":53.555502000000004,"velocity":0.3937007874015748},{"duration":0.11111100000000107,"midi":34,"time":53.666613,"velocity":0.3937007874015748},{"duration":0.11111100000000107,"midi":29,"time":53.888835,"velocity":0.3937007874015748},{"duration":0.11111100000000107,"midi":32,"time":53.999946,"velocity":0.3937007874015748},{"duration":0.11111100000000107,"midi":27,"time":54.111057,"velocity":0.3937007874015748},{"duration":0.11111099999999396,"midi":34,"time":54.222168,"velocity":0.3937007874015748},{"duration":0.11111100000000107,"midi":29,"time":54.333279,"velocity":0.3937007874015748},{"duration":0.11111100000000107,"midi":32,"time":54.44439,"velocity":0.3937007874015748},{"duration":0.11111100000000107,"midi":34,"time":54.555501,"velocity":0.3937007874015748},{"duration":0.11111100000000107,"midi":29,"time":54.777723,"velocity":0.3937007874015748},{"duration":0.11111100000000107,"midi":32,"time":54.888834,"velocity":0.3937007874015748},{"duration":0.11111099999999396,"midi":27,"time":54.999945000000004,"velocity":0.3937007874015748},{"duration":0.11111100000000107,"midi":34,"time":55.111056,"velocity":0.3937007874015748},{"duration":0.11111100000000107,"midi":29,"time":55.222167,"velocity":0.3937007874015748},{"duration":0.11111100000000107,"midi":32,"time":55.333278,"velocity":0.3937007874015748},{"duration":0.11111100000000107,"midi":34,"time":55.444389,"velocity":0.3937007874015748},{"duration":0.11111100000000107,"midi":29,"time":55.666611,"velocity":0.3937007874015748},{"duration":0.11111099999999396,"midi":32,"time":55.777722000000004,"velocity":0.3937007874015748},{"duration":0.11111100000000107,"midi":27,"time":55.888833,"velocity":0.3937007874015748},{"duration":0.11111100000000107,"midi":34,"time":55.999944,"velocity":0.3937007874015748},{"duration":0.11111100000000107,"midi":29,"time":56.111055,"velocity":0.3937007874015748},{"duration":0.11111100000000107,"midi":32,"time":56.222166,"velocity":0.3937007874015748},{"duration":0.11111100000000107,"midi":41,"time":56.333277,"velocity":0.3937007874015748},{"duration":0.11111100000000107,"midi":39,"time":56.555499,"velocity":0.3937007874015748},{"duration":0.11111100000000107,"midi":37,"time":56.66661,"velocity":0.3937007874015748},{"duration":0.11111100000000107,"midi":32,"time":56.777721,"velocity":0.3937007874015748},{"duration":0.11111100000000107,"midi":34,"time":56.888832,"velocity":0.3937007874015748},{"duration":0.11111100000000107,"midi":29,"time":56.999943,"velocity":0.3937007874015748},{"duration":0.11111100000000107,"midi":32,"time":57.111054,"velocity":0.3937007874015748},{"duration":0.11111099999999396,"midi":34,"time":57.222165000000004,"velocity":0.3937007874015748},{"duration":0.11111100000000107,"midi":29,"time":57.444387,"velocity":0.3937007874015748},{"duration":0.11111100000000107,"midi":32,"time":57.555498,"velocity":0.3937007874015748},{"duration":0.11111100000000107,"midi":27,"time":57.666609,"velocity":0.3937007874015748},{"duration":0.11111100000000107,"midi":34,"time":57.77772,"velocity":0.3937007874015748},{"duration":0.11111099999999396,"midi":29,"time":57.888831,"velocity":0.3937007874015748},{"duration":0.11111100000000107,"midi":32,"time":57.999942,"velocity":0.3937007874015748},{"duration":0.11111100000000107,"midi":34,"time":58.111053,"velocity":0.3937007874015748},{"duration":0.11111100000000107,"midi":29,"time":58.333275,"velocity":0.3937007874015748},{"duration":0.11111100000000107,"midi":32,"time":58.444386,"velocity":0.3937007874015748},{"duration":0.11111100000000107,"midi":27,"time":58.555497,"velocity":0.3937007874015748},{"duration":0.11111099999999396,"midi":34,"time":58.666608000000004,"velocity":0.3937007874015748},{"duration":0.11111100000000107,"midi":29,"time":58.777719,"velocity":0.3937007874015748},{"duration":0.11111100000000107,"midi":32,"time":58.88883,"velocity":0.3937007874015748},{"duration":0.11111100000000107,"midi":34,"time":58.999941,"velocity":0.3937007874015748},{"duration":0.11111100000000107,"midi":29,"time":59.222163,"velocity":0.3937007874015748},{"duration":0.11111100000000107,"midi":32,"time":59.333274,"velocity":0.3937007874015748},{"duration":0.11111099999999396,"midi":27,"time":59.444385000000004,"velocity":0.3937007874015748},{"duration":0.11111100000000107,"midi":34,"time":59.555496,"velocity":0.3937007874015748},{"duration":0.11111100000000107,"midi":29,"time":59.666607,"velocity":0.3937007874015748},{"duration":0.11111100000000107,"midi":32,"time":59.777718,"velocity":0.3937007874015748},{"duration":0.11111100000000107,"midi":41,"time":59.888829,"velocity":0.3937007874015748},{"duration":0.11111099999999396,"midi":39,"time":60.111051,"velocity":0.3937007874015748},{"duration":0.11111100000000107,"midi":37,"time":60.222162,"velocity":0.3937007874015748},{"duration":0.11111100000000107,"midi":32,"time":60.333273,"velocity":0.3937007874015748},{"duration":0.11111100000000107,"midi":34,"time":60.444384,"velocity":0.3937007874015748},{"duration":0.11111100000000107,"midi":29,"time":60.555495,"velocity":0.3937007874015748},{"duration":0.11111100000000107,"midi":32,"time":60.666606,"velocity":0.3937007874015748},{"duration":0.11111100000000107,"midi":34,"time":60.777717,"velocity":0.3937007874015748},{"duration":0.11111100000000107,"midi":29,"time":60.999939,"velocity":0.3937007874015748},{"duration":0.11111100000000107,"midi":32,"time":61.11105,"velocity":0.3937007874015748},{"duration":0.11111100000000107,"midi":27,"time":61.222161,"velocity":0.3937007874015748},{"duration":0.11111100000000107,"midi":34,"time":61.333272,"velocity":0.3937007874015748},{"duration":0.11111100000000107,"midi":29,"time":61.444383,"velocity":0.3937007874015748},{"duration":0.11111100000000107,"midi":32,"time":61.555494,"velocity":0.3937007874015748},{"duration":0.11111099999999396,"midi":34,"time":61.666605000000004,"velocity":0.3937007874015748},{"duration":0.11111100000000107,"midi":29,"time":61.888827,"velocity":0.3937007874015748},{"duration":0.11111100000000107,"midi":32,"time":61.999938,"velocity":0.3937007874015748},{"duration":0.11111100000000107,"midi":27,"time":62.111049,"velocity":0.3937007874015748},{"duration":0.11111100000000107,"midi":34,"time":62.22216,"velocity":0.3937007874015748},{"duration":0.11111099999999396,"midi":29,"time":62.333271,"velocity":0.3937007874015748},{"duration":0.11111100000000107,"midi":32,"time":62.444382,"velocity":0.3937007874015748},{"duration":0.11111100000000107,"midi":34,"time":62.555493,"velocity":0.3937007874015748},{"duration":0.11111100000000107,"midi":29,"time":62.777715,"velocity":0.3937007874015748},{"duration":0.11111100000000107,"midi":32,"time":62.888826,"velocity":0.3937007874015748},{"duration":0.11111100000000107,"midi":27,"time":62.999937,"velocity":0.3937007874015748},{"duration":0.11111099999999396,"midi":34,"time":63.111048000000004,"velocity":0.3937007874015748},{"duration":0.11111100000000107,"midi":29,"time":63.222159,"velocity":0.3937007874015748},{"duration":0.11111100000000107,"midi":32,"time":63.33327,"velocity":0.3937007874015748},{"duration":0.11111100000000107,"midi":41,"time":63.444381,"velocity":0.3937007874015748},{"duration":0.11111100000000107,"midi":39,"time":63.666603,"velocity":0.3937007874015748},{"duration":0.11111100000000107,"midi":37,"time":63.777714,"velocity":0.3937007874015748},{"duration":0.11111099999999396,"midi":32,"time":63.888825000000004,"velocity":0.3937007874015748},{"duration":0.11111100000000107,"midi":34,"time":63.999936,"velocity":0.3937007874015748},{"duration":0.11111100000000818,"midi":29,"time":64.111047,"velocity":0.3937007874015748},{"duration":0.11111099999999396,"midi":32,"time":64.22215800000001,"velocity":0.3937007874015748},{"duration":0.11111099999999396,"midi":34,"time":64.333269,"velocity":0.3937007874015748},{"duration":0.11111099999999396,"midi":29,"time":64.555491,"velocity":0.3937007874015748},{"duration":0.11111100000000818,"midi":32,"time":64.666602,"velocity":0.3937007874015748},{"duration":0.11111099999999396,"midi":27,"time":64.777713,"velocity":0.3937007874015748},{"duration":0.11111100000000818,"midi":34,"time":64.888824,"velocity":0.3937007874015748},{"duration":0.11111099999999396,"midi":29,"time":64.99993500000001,"velocity":0.3937007874015748},{"duration":0.11111099999999396,"midi":32,"time":65.111046,"velocity":0.3937007874015748},{"duration":0.11111100000000818,"midi":34,"time":65.222157,"velocity":0.3937007874015748},{"duration":0.11111100000000818,"midi":29,"time":65.444379,"velocity":0.3937007874015748},{"duration":0.11111099999999396,"midi":32,"time":65.55549,"velocity":0.3937007874015748},{"duration":0.11111099999999396,"midi":27,"time":65.666601,"velocity":0.3937007874015748},{"duration":0.11111100000000818,"midi":34,"time":65.777712,"velocity":0.3937007874015748},{"duration":0.11111099999999396,"midi":29,"time":65.888823,"velocity":0.3937007874015748},{"duration":0.11111100000000818,"midi":32,"time":65.999934,"velocity":0.3937007874015748},{"duration":0.11111099999999396,"midi":34,"time":66.111045,"velocity":0.3937007874015748},{"duration":0.11111099999999396,"midi":29,"time":66.333267,"velocity":0.3937007874015748},{"duration":0.11111099999999396,"midi":32,"time":66.444378,"velocity":0.3937007874015748},{"duration":0.11111100000000818,"midi":27,"time":66.555489,"velocity":0.3937007874015748},{"duration":0.11111099999999396,"midi":34,"time":66.6666,"velocity":0.3937007874015748},{"duration":0.11111100000000818,"midi":29,"time":66.777711,"velocity":0.3937007874015748},{"duration":0.11111099999999396,"midi":32,"time":66.888822,"velocity":0.3937007874015748},{"duration":0.11111100000000818,"midi":41,"time":66.999933,"velocity":0.3937007874015748},{"duration":0.11111099999999396,"midi":39,"time":67.222155,"velocity":0.3937007874015748},{"duration":0.11111100000000818,"midi":37,"time":67.333266,"velocity":0.3937007874015748},{"duration":0.11111099999999396,"midi":32,"time":67.444377,"velocity":0.3937007874015748},{"duration":0.11111100000000818,"midi":34,"time":67.555488,"velocity":0.3937007874015748},{"duration":0.11111099999999396,"midi":29,"time":67.666599,"velocity":0.3937007874015748},{"duration":0.11111100000000818,"midi":32,"time":67.77771,"velocity":0.3937007874015748},{"duration":0.11111099999999396,"midi":34,"time":67.88882100000001,"velocity":0.3937007874015748},{"duration":0.11111100000000818,"midi":29,"time":68.111043,"velocity":0.3937007874015748},{"duration":0.11111099999999396,"midi":32,"time":68.222154,"velocity":0.3937007874015748},{"duration":0.11111100000000818,"midi":27,"time":68.333265,"velocity":0.3937007874015748},{"duration":0.11111099999999396,"midi":34,"time":68.444376,"velocity":0.3937007874015748},{"duration":0.11111100000000818,"midi":29,"time":68.555487,"velocity":0.3937007874015748},{"duration":0.11111099999999396,"midi":32,"time":68.66659800000001,"velocity":0.3937007874015748},{"duration":0.11111099999999396,"midi":34,"time":68.777709,"velocity":0.3937007874015748},{"duration":0.11111099999999396,"midi":29,"time":68.999931,"velocity":0.3937007874015748},{"duration":0.11111100000000818,"midi":32,"time":69.111042,"velocity":0.3937007874015748},{"duration":0.11111099999999396,"midi":27,"time":69.222153,"velocity":0.3937007874015748},{"duration":0.11111100000000818,"midi":34,"time":69.333264,"velocity":0.3937007874015748},{"duration":0.11111099999999396,"midi":29,"time":69.44437500000001,"velocity":0.3937007874015748},{"duration":0.11111099999999396,"midi":32,"time":69.555486,"velocity":0.3937007874015748},{"duration":0.11111100000000818,"midi":34,"time":69.666597,"velocity":0.3937007874015748},{"duration":0.11111100000000818,"midi":29,"time":69.888819,"velocity":0.3937007874015748},{"duration":0.11111099999999396,"midi":32,"time":69.99993,"velocity":0.3937007874015748},{"duration":0.11111099999999396,"midi":27,"time":70.111041,"velocity":0.3937007874015748},{"duration":0.11111100000000818,"midi":34,"time":70.222152,"velocity":0.3937007874015748},{"duration":0.11111099999999396,"midi":29,"time":70.333263,"velocity":0.3937007874015748},{"duration":0.11111100000000818,"midi":32,"time":70.444374,"velocity":0.3937007874015748},{"duration":0.11111099999999396,"midi":41,"time":70.555485,"velocity":0.3937007874015748},{"duration":0.11111099999999396,"midi":39,"time":70.777707,"velocity":0.3937007874015748},{"duration":0.11111099999999396,"midi":37,"time":70.888818,"velocity":0.3937007874015748},{"duration":0.11111100000000818,"midi":32,"time":70.999929,"velocity":0.3937007874015748},{"duration":0.11111099999999396,"midi":34,"time":71.11104,"velocity":0.3937007874015748},{"duration":0.11111100000000818,"midi":29,"time":71.222151,"velocity":0.3937007874015748},{"duration":0.11111099999999396,"midi":32,"time":71.333262,"velocity":0.3937007874015748},{"duration":0.11111100000000818,"midi":34,"time":71.444373,"velocity":0.3937007874015748},{"duration":0.11111099999999396,"midi":29,"time":71.666595,"velocity":0.3937007874015748},{"duration":0.11111100000000818,"midi":32,"time":71.777706,"velocity":0.3937007874015748},{"duration":0.11111099999999396,"midi":27,"time":71.888817,"velocity":0.3937007874015748},{"duration":0.11111100000000818,"midi":34,"time":71.999928,"velocity":0.3937007874015748},{"duration":0.11111099999999396,"midi":29,"time":72.111039,"velocity":0.3937007874015748},{"duration":0.11111100000000818,"midi":32,"time":72.22215,"velocity":0.3937007874015748},{"duration":0.11111099999999396,"midi":34,"time":72.33326100000001,"velocity":0.3937007874015748},{"duration":0.11111100000000818,"midi":29,"time":72.555483,"velocity":0.3937007874015748},{"duration":0.11111099999999396,"midi":32,"time":72.666594,"velocity":0.3937007874015748},{"duration":0.11111100000000818,"midi":27,"time":72.777705,"velocity":0.3937007874015748},{"duration":0.11111099999999396,"midi":34,"time":72.888816,"velocity":0.3937007874015748},{"duration":0.11111100000000818,"midi":29,"time":72.999927,"velocity":0.3937007874015748},{"duration":0.11111099999999396,"midi":32,"time":73.11103800000001,"velocity":0.3937007874015748},{"duration":0.11111099999999396,"midi":34,"time":73.222149,"velocity":0.3937007874015748},{"duration":0.11111099999999396,"midi":29,"time":73.444371,"velocity":0.3937007874015748},{"duration":0.11111100000000818,"midi":32,"time":73.555482,"velocity":0.3937007874015748},{"duration":0.11111099999999396,"midi":27,"time":73.666593,"velocity":0.3937007874015748},{"duration":0.11111099999999396,"midi":34,"time":73.777704,"velocity":0.3937007874015748},{"duration":0.11111100000000818,"midi":29,"time":73.888815,"velocity":0.3937007874015748},{"duration":0.11111099999999396,"midi":32,"time":73.999926,"velocity":0.3937007874015748},{"duration":0.11111100000000818,"midi":41,"time":74.111037,"velocity":0.3937007874015748},{"duration":0.11111100000000818,"midi":39,"time":74.333259,"velocity":0.3937007874015748},{"duration":0.11111099999999396,"midi":37,"time":74.44437,"velocity":0.3937007874015748},{"duration":0.11111099999999396,"midi":32,"time":74.555481,"velocity":0.3937007874015748},{"duration":0.11111100000000818,"midi":34,"time":74.666592,"velocity":0.3937007874015748},{"duration":0.11111099999999396,"midi":29,"time":74.777703,"velocity":0.3937007874015748},{"duration":0.11111100000000818,"midi":32,"time":74.888814,"velocity":0.3937007874015748},{"duration":0.11111099999999396,"midi":34,"time":74.999925,"velocity":0.3937007874015748},{"duration":0.11111099999999396,"midi":29,"time":75.222147,"velocity":0.3937007874015748},{"duration":0.11111099999999396,"midi":32,"time":75.333258,"velocity":0.3937007874015748},{"duration":0.11111100000000818,"midi":27,"time":75.444369,"velocity":0.3937007874015748},{"duration":0.11111099999999396,"midi":34,"time":75.55548,"velocity":0.3937007874015748},{"duration":0.11111100000000818,"midi":29,"time":75.666591,"velocity":0.3937007874015748},{"duration":0.11111099999999396,"midi":32,"time":75.777702,"velocity":0.3937007874015748},{"duration":0.11111100000000818,"midi":34,"time":75.888813,"velocity":0.3937007874015748},{"duration":0.11111099999999396,"midi":29,"time":76.111035,"velocity":0.3937007874015748},{"duration":0.11111100000000818,"midi":32,"time":76.222146,"velocity":0.3937007874015748},{"duration":0.11111099999999396,"midi":27,"time":76.333257,"velocity":0.3937007874015748},{"duration":0.11111100000000818,"midi":34,"time":76.444368,"velocity":0.3937007874015748},{"duration":0.11111099999999396,"midi":29,"time":76.555479,"velocity":0.3937007874015748},{"duration":0.11111100000000818,"midi":32,"time":76.66659,"velocity":0.3937007874015748},{"duration":0.11111099999999396,"midi":34,"time":76.77770100000001,"velocity":0.3937007874015748},{"duration":0.11111100000000818,"midi":29,"time":76.999923,"velocity":0.3937007874015748},{"duration":0.11111099999999396,"midi":32,"time":77.111034,"velocity":0.3937007874015748},{"duration":0.11111100000000818,"midi":27,"time":77.222145,"velocity":0.3937007874015748},{"duration":0.11111099999999396,"midi":34,"time":77.333256,"velocity":0.3937007874015748},{"duration":0.11111100000000818,"midi":29,"time":77.444367,"velocity":0.3937007874015748},{"duration":0.11111099999999396,"midi":32,"time":77.55547800000001,"velocity":0.3937007874015748},{"duration":0.11111099999999396,"midi":41,"time":77.666589,"velocity":0.3937007874015748},{"duration":0.11111099999999396,"midi":39,"time":77.888811,"velocity":0.3937007874015748},{"duration":0.11111100000000818,"midi":37,"time":77.999922,"velocity":0.3937007874015748},{"duration":0.11111099999999396,"midi":32,"time":78.111033,"velocity":0.3937007874015748},{"duration":0.11111099999999396,"midi":34,"time":78.222144,"velocity":0.3937007874015748},{"duration":0.11111100000000818,"midi":29,"time":78.333255,"velocity":0.3937007874015748},{"duration":0.11111099999999396,"midi":32,"time":78.444366,"velocity":0.3937007874015748},{"duration":0.11111100000000818,"midi":34,"time":78.555477,"velocity":0.3937007874015748},{"duration":0.11111100000000818,"midi":29,"time":78.777699,"velocity":0.3937007874015748},{"duration":0.11111099999999396,"midi":32,"time":78.88881,"velocity":0.3937007874015748},{"duration":0.11111099999999396,"midi":27,"time":78.999921,"velocity":0.3937007874015748},{"duration":0.11111100000000818,"midi":34,"time":79.111032,"velocity":0.3937007874015748},{"duration":0.11111099999999396,"midi":29,"time":79.222143,"velocity":0.3937007874015748},{"duration":0.11111100000000818,"midi":32,"time":79.333254,"velocity":0.3937007874015748},{"duration":0.11111099999999396,"midi":34,"time":79.444365,"velocity":0.3937007874015748},{"duration":0.11111099999999396,"midi":29,"time":79.666587,"velocity":0.3937007874015748},{"duration":0.11111099999999396,"midi":32,"time":79.777698,"velocity":0.3937007874015748},{"duration":0.11111100000000818,"midi":27,"time":79.888809,"velocity":0.3937007874015748},{"duration":0.11111099999999396,"midi":34,"time":79.99992,"velocity":0.3937007874015748},{"duration":0.11111100000000818,"midi":29,"time":80.111031,"velocity":0.3937007874015748},{"duration":0.11111099999999396,"midi":32,"time":80.222142,"velocity":0.3937007874015748},{"duration":0.11111100000000818,"midi":34,"time":80.333253,"velocity":0.3937007874015748},{"duration":0.11111099999999396,"midi":29,"time":80.555475,"velocity":0.3937007874015748},{"duration":0.11111100000000818,"midi":32,"time":80.666586,"velocity":0.3937007874015748},{"duration":0.11111099999999396,"midi":27,"time":80.777697,"velocity":0.3937007874015748},{"duration":0.11111100000000818,"midi":34,"time":80.888808,"velocity":0.3937007874015748},{"duration":0.11111099999999396,"midi":29,"time":80.999919,"velocity":0.3937007874015748},{"duration":0.11111100000000818,"midi":32,"time":81.11103,"velocity":0.3937007874015748},{"duration":0.11111099999999396,"midi":41,"time":81.22214100000001,"velocity":0.3937007874015748},{"duration":0.11111100000000818,"midi":39,"time":81.444363,"velocity":0.3937007874015748},{"duration":0.11111099999999396,"midi":37,"time":81.555474,"velocity":0.3937007874015748},{"duration":0.11111100000000818,"midi":32,"time":81.666585,"velocity":0.3937007874015748},{"duration":0.11111099999999396,"midi":34,"time":81.777696,"velocity":0.3937007874015748},{"duration":0.11111100000000818,"midi":29,"time":81.888807,"velocity":0.3937007874015748},{"duration":0.11111099999999396,"midi":32,"time":81.99991800000001,"velocity":0.3937007874015748},{"duration":0.11111099999999396,"midi":34,"time":82.111029,"velocity":0.3937007874015748},{"duration":0.11111099999999396,"midi":29,"time":82.333251,"velocity":0.3937007874015748},{"duration":0.11111100000000818,"midi":32,"time":82.444362,"velocity":0.3937007874015748},{"duration":0.11111099999999396,"midi":27,"time":82.555473,"velocity":0.3937007874015748},{"duration":0.11111099999999396,"midi":34,"time":82.666584,"velocity":0.3937007874015748},{"duration":0.11111100000000818,"midi":29,"time":82.777695,"velocity":0.3937007874015748},{"duration":0.11111099999999396,"midi":32,"time":82.888806,"velocity":0.3937007874015748},{"duration":0.11111100000000818,"midi":34,"time":82.999917,"velocity":0.3937007874015748},{"duration":0.11111100000000818,"midi":29,"time":83.222139,"velocity":0.3937007874015748},{"duration":0.11111099999999396,"midi":32,"time":83.33325,"velocity":0.3937007874015748},{"duration":0.11111099999999396,"midi":27,"time":83.444361,"velocity":0.3937007874015748},{"duration":0.11111100000000818,"midi":34,"time":83.555472,"velocity":0.3937007874015748},{"duration":0.11111099999999396,"midi":29,"time":83.666583,"velocity":0.3937007874015748},{"duration":0.11111100000000818,"midi":32,"time":83.777694,"velocity":0.3937007874015748},{"duration":0.11111099999999396,"midi":34,"time":83.888805,"velocity":0.3937007874015748},{"duration":0.11111099999999396,"midi":29,"time":84.111027,"velocity":0.3937007874015748},{"duration":0.11111099999999396,"midi":32,"time":84.222138,"velocity":0.3937007874015748},{"duration":0.11111100000000818,"midi":27,"time":84.333249,"velocity":0.3937007874015748},{"duration":0.11111099999999396,"midi":34,"time":84.44436,"velocity":0.3937007874015748},{"duration":0.11111100000000818,"midi":29,"time":84.555471,"velocity":0.3937007874015748},{"duration":0.11111099999999396,"midi":32,"time":84.666582,"velocity":0.3937007874015748},{"duration":0.11111100000000818,"midi":41,"time":84.777693,"velocity":0.3937007874015748},{"duration":0.11111099999999396,"midi":39,"time":84.999915,"velocity":0.3937007874015748},{"duration":0.11111100000000818,"midi":37,"time":85.111026,"velocity":0.3937007874015748},{"duration":0.11111099999999396,"midi":32,"time":85.222137,"velocity":0.3937007874015748},{"duration":0.11111100000000818,"midi":34,"time":85.333248,"velocity":0.3937007874015748},{"duration":0.11111099999999396,"midi":29,"time":85.444359,"velocity":0.3937007874015748},{"duration":0.11111100000000818,"midi":32,"time":85.55547,"velocity":0.3937007874015748},{"duration":0.11111099999999396,"midi":34,"time":85.66658100000001,"velocity":0.3937007874015748},{"duration":0.11111100000000818,"midi":29,"time":85.888803,"velocity":0.3937007874015748},{"duration":0.11111099999999396,"midi":32,"time":85.999914,"velocity":0.3937007874015748},{"duration":0.11111100000000818,"midi":27,"time":86.111025,"velocity":0.3937007874015748},{"duration":0.11111099999999396,"midi":34,"time":86.222136,"velocity":0.3937007874015748},{"duration":0.11111099999999396,"midi":29,"time":86.333247,"velocity":0.3937007874015748},{"duration":0.11111100000000818,"midi":32,"time":86.444358,"velocity":0.3937007874015748},{"duration":0.11111099999999396,"midi":34,"time":86.555469,"velocity":0.3937007874015748},{"duration":0.11111099999999396,"midi":29,"time":86.777691,"velocity":0.3937007874015748},{"duration":0.11111100000000818,"midi":32,"time":86.888802,"velocity":0.3937007874015748},{"duration":0.11111099999999396,"midi":27,"time":86.999913,"velocity":0.3937007874015748},{"duration":0.11111099999999396,"midi":34,"time":87.111024,"velocity":0.3937007874015748},{"duration":0.11111100000000818,"midi":29,"time":87.222135,"velocity":0.3937007874015748},{"duration":0.11111099999999396,"midi":32,"time":87.333246,"velocity":0.3937007874015748},{"duration":0.11111100000000818,"midi":34,"time":87.444357,"velocity":0.3937007874015748},{"duration":0.11111100000000818,"midi":29,"time":87.666579,"velocity":0.3937007874015748},{"duration":0.11111099999999396,"midi":32,"time":87.77769,"velocity":0.3937007874015748},{"duration":0.11111099999999396,"midi":27,"time":87.888801,"velocity":0.3937007874015748},{"duration":0.11111100000000818,"midi":34,"time":87.999912,"velocity":0.3937007874015748},{"duration":0.11111099999999396,"midi":29,"time":88.111023,"velocity":0.3937007874015748},{"duration":0.11111100000000818,"midi":32,"time":88.222134,"velocity":0.3937007874015748},{"duration":0.11111099999999396,"midi":41,"time":88.333245,"velocity":0.3937007874015748},{"duration":0.11111099999999396,"midi":39,"time":88.55546700000001,"velocity":0.3937007874015748},{"duration":0.11111099999999396,"midi":37,"time":88.666578,"velocity":0.3937007874015748},{"duration":0.11111100000000818,"midi":32,"time":88.777689,"velocity":0.3937007874015748},{"duration":0.11111099999999396,"midi":34,"time":88.8888,"velocity":0.3937007874015748},{"duration":0.11111100000000818,"midi":29,"time":88.999911,"velocity":0.3937007874015748},{"duration":0.11111099999999396,"midi":32,"time":89.111022,"velocity":0.3937007874015748},{"duration":0.11111100000000818,"midi":34,"time":89.222133,"velocity":0.3937007874015748},{"duration":0.11111099999999396,"midi":29,"time":89.444355,"velocity":0.3937007874015748},{"duration":0.11111100000000818,"midi":32,"time":89.555466,"velocity":0.3937007874015748},{"duration":0.11111099999999396,"midi":27,"time":89.666577,"velocity":0.3937007874015748},{"duration":0.11111100000000818,"midi":34,"time":89.777688,"velocity":0.3937007874015748},{"duration":0.11111099999999396,"midi":29,"time":89.888799,"velocity":0.3937007874015748},{"duration":0.11111100000000818,"midi":32,"time":89.99991,"velocity":0.3937007874015748},{"duration":0.11111099999999396,"midi":34,"time":90.11102100000001,"velocity":0.3937007874015748},{"duration":0.11111100000000818,"midi":29,"time":90.333243,"velocity":0.3937007874015748},{"duration":0.11111099999999396,"midi":32,"time":90.444354,"velocity":0.3937007874015748},{"duration":0.11111100000000818,"midi":27,"time":90.555465,"velocity":0.3937007874015748},{"duration":0.11111099999999396,"midi":34,"time":90.666576,"velocity":0.3937007874015748},{"duration":0.11111099999999396,"midi":29,"time":90.777687,"velocity":0.3937007874015748},{"duration":0.11111100000000818,"midi":32,"time":90.888798,"velocity":0.3937007874015748},{"duration":0.11111099999999396,"midi":34,"time":90.999909,"velocity":0.3937007874015748},{"duration":0.11111099999999396,"midi":29,"time":91.222131,"velocity":0.3937007874015748},{"duration":0.11111100000000818,"midi":32,"time":91.333242,"velocity":0.3937007874015748},{"duration":0.11111099999999396,"midi":27,"time":91.444353,"velocity":0.3937007874015748},{"duration":0.11111099999999396,"midi":34,"time":91.555464,"velocity":0.3937007874015748},{"duration":0.11111100000000818,"midi":29,"time":91.666575,"velocity":0.3937007874015748},{"duration":0.11111099999999396,"midi":32,"time":91.777686,"velocity":0.3937007874015748},{"duration":0.11111100000000818,"midi":41,"time":91.888797,"velocity":0.3937007874015748},{"duration":0.11111100000000818,"midi":39,"time":92.111019,"velocity":0.3937007874015748},{"duration":0.11111099999999396,"midi":37,"time":92.22213,"velocity":0.3937007874015748},{"duration":0.11111099999999396,"midi":32,"time":92.333241,"velocity":0.3937007874015748},{"duration":0.11111100000000818,"midi":34,"time":92.444352,"velocity":0.3937007874015748},{"duration":0.11111099999999396,"midi":29,"time":92.555463,"velocity":0.3937007874015748},{"duration":0.11111100000000818,"midi":32,"time":92.666574,"velocity":0.3937007874015748},{"duration":0.11111099999999396,"midi":34,"time":92.777685,"velocity":0.3937007874015748},{"duration":0.11111099999999396,"midi":29,"time":92.99990700000001,"velocity":0.3937007874015748},{"duration":0.11111099999999396,"midi":32,"time":93.111018,"velocity":0.3937007874015748},{"duration":0.11111100000000818,"midi":27,"time":93.222129,"velocity":0.3937007874015748},{"duration":0.11111099999999396,"midi":34,"time":93.33324,"velocity":0.3937007874015748},{"duration":0.11111100000000818,"midi":29,"time":93.444351,"velocity":0.3937007874015748},{"duration":0.11111099999999396,"midi":32,"time":93.555462,"velocity":0.3937007874015748},{"duration":0.11111100000000818,"midi":34,"time":93.666573,"velocity":0.3937007874015748},{"duration":0.11111099999999396,"midi":29,"time":93.888795,"velocity":0.3937007874015748},{"duration":0.11111100000000818,"midi":32,"time":93.999906,"velocity":0.3937007874015748},{"duration":0.11111099999999396,"midi":27,"time":94.111017,"velocity":0.3937007874015748},{"duration":0.11111100000000818,"midi":34,"time":94.222128,"velocity":0.3937007874015748},{"duration":0.11111099999999396,"midi":29,"time":94.333239,"velocity":0.3937007874015748},{"duration":0.11111100000000818,"midi":32,"time":94.44435,"velocity":0.3937007874015748},{"duration":0.11111099999999396,"midi":34,"time":94.55546100000001,"velocity":0.3937007874015748},{"duration":0.11111100000000818,"midi":29,"time":94.777683,"velocity":0.3937007874015748},{"duration":0.11111099999999396,"midi":32,"time":94.888794,"velocity":0.3937007874015748},{"duration":0.11111100000000818,"midi":27,"time":94.999905,"velocity":0.3937007874015748},{"duration":0.11111099999999396,"midi":34,"time":95.111016,"velocity":0.3937007874015748},{"duration":0.11111099999999396,"midi":29,"time":95.222127,"velocity":0.3937007874015748},{"duration":0.11111100000000818,"midi":32,"time":95.333238,"velocity":0.3937007874015748},{"duration":0.11111099999999396,"midi":41,"time":95.444349,"velocity":0.3937007874015748},{"duration":0.11111099999999396,"midi":39,"time":95.666571,"velocity":0.3937007874015748},{"duration":0.11111100000000818,"midi":37,"time":95.777682,"velocity":0.3937007874015748},{"duration":0.11111099999999396,"midi":32,"time":95.888793,"velocity":0.3937007874015748},{"duration":0.11111099999999396,"midi":34,"time":95.999904,"velocity":0.3937007874015748},{"duration":0.11111100000000818,"midi":29,"time":96.111015,"velocity":0.3937007874015748},{"duration":0.11111099999999396,"midi":32,"time":96.222126,"velocity":0.3937007874015748},{"duration":0.11111100000000818,"midi":34,"time":96.333237,"velocity":0.3937007874015748},{"duration":0.11111100000000818,"midi":29,"time":96.555459,"velocity":0.3937007874015748},{"duration":0.11111099999999396,"midi":32,"time":96.66657000000001,"velocity":0.3937007874015748},{"duration":0.11111099999999396,"midi":27,"time":96.777681,"velocity":0.3937007874015748},{"duration":0.11111100000000818,"midi":34,"time":96.888792,"velocity":0.3937007874015748},{"duration":0.11111099999999396,"midi":29,"time":96.999903,"velocity":0.3937007874015748},{"duration":0.11111100000000818,"midi":32,"time":97.111014,"velocity":0.3937007874015748},{"duration":0.11111099999999396,"midi":34,"time":97.222125,"velocity":0.3937007874015748},{"duration":0.11111099999999396,"midi":29,"time":97.44434700000001,"velocity":0.3937007874015748},{"duration":0.11111099999999396,"midi":32,"time":97.555458,"velocity":0.3937007874015748},{"duration":0.11111100000000818,"midi":27,"time":97.666569,"velocity":0.3937007874015748},{"duration":0.11111099999999396,"midi":34,"time":97.77768,"velocity":0.3937007874015748},{"duration":0.11111100000000818,"midi":29,"time":97.888791,"velocity":0.3937007874015748},{"duration":0.11111099999999396,"midi":32,"time":97.999902,"velocity":0.3937007874015748},{"duration":0.11111100000000818,"midi":34,"time":98.111013,"velocity":0.3937007874015748},{"duration":0.11111099999999396,"midi":29,"time":98.333235,"velocity":0.3937007874015748},{"duration":0.11111100000000818,"midi":32,"time":98.444346,"velocity":0.3937007874015748},{"duration":0.11111099999999396,"midi":27,"time":98.555457,"velocity":0.3937007874015748},{"duration":0.11111100000000818,"midi":34,"time":98.666568,"velocity":0.3937007874015748},{"duration":0.11111099999999396,"midi":29,"time":98.777679,"velocity":0.3937007874015748},{"duration":0.11111100000000818,"midi":32,"time":98.88879,"velocity":0.3937007874015748},{"duration":0.11111099999999396,"midi":41,"time":98.99990100000001,"velocity":0.3937007874015748},{"duration":0.11111100000000818,"midi":39,"time":99.222123,"velocity":0.3937007874015748},{"duration":0.11111099999999396,"midi":37,"time":99.333234,"velocity":0.3937007874015748},{"duration":0.11111100000000818,"midi":32,"time":99.444345,"velocity":0.3937007874015748},{"duration":0.11111099999999396,"midi":34,"time":99.555456,"velocity":0.3937007874015748},{"duration":0.11111099999999396,"midi":29,"time":99.666567,"velocity":0.3937007874015748},{"duration":0.11111100000000818,"midi":32,"time":99.777678,"velocity":0.3937007874015748},{"duration":0.11111099999999396,"midi":34,"time":99.888789,"velocity":0.3937007874015748},{"duration":0.11111099999999396,"midi":29,"time":100.111011,"velocity":0.3937007874015748},{"duration":0.11111100000000818,"midi":32,"time":100.222122,"velocity":0.3937007874015748},{"duration":0.11111099999999396,"midi":27,"time":100.333233,"velocity":0.3937007874015748},{"duration":0.11111099999999396,"midi":34,"time":100.444344,"velocity":0.3937007874015748},{"duration":0.11111100000000818,"midi":29,"time":100.555455,"velocity":0.3937007874015748},{"duration":0.11111099999999396,"midi":32,"time":100.666566,"velocity":0.3937007874015748},{"duration":0.11111100000000818,"midi":34,"time":100.777677,"velocity":0.3937007874015748},{"duration":0.11111100000000818,"midi":29,"time":100.999899,"velocity":0.3937007874015748},{"duration":0.11111099999999396,"midi":32,"time":101.11101000000001,"velocity":0.3937007874015748},{"duration":0.11111099999999396,"midi":27,"time":101.222121,"velocity":0.3937007874015748},{"duration":0.11111100000000818,"midi":34,"time":101.333232,"velocity":0.3937007874015748},{"duration":0.11111099999999396,"midi":29,"time":101.444343,"velocity":0.3937007874015748},{"duration":0.11111100000000818,"midi":32,"time":101.555454,"velocity":0.3937007874015748},{"duration":0.11111099999999396,"midi":34,"time":101.666565,"velocity":0.3937007874015748},{"duration":0.11111099999999396,"midi":29,"time":101.88878700000001,"velocity":0.3937007874015748},{"duration":0.11111099999999396,"midi":32,"time":101.999898,"velocity":0.3937007874015748},{"duration":0.11111100000000818,"midi":27,"time":102.111009,"velocity":0.3937007874015748},{"duration":0.11111099999999396,"midi":34,"time":102.22212,"velocity":0.3937007874015748},{"duration":0.11111100000000818,"midi":29,"time":102.333231,"velocity":0.3937007874015748},{"duration":0.11111099999999396,"midi":32,"time":102.444342,"velocity":0.3937007874015748},{"duration":0.11111100000000818,"midi":41,"time":102.555453,"velocity":0.3937007874015748},{"duration":0.11111099999999396,"midi":39,"time":102.777675,"velocity":0.3937007874015748},{"duration":0.11111100000000818,"midi":37,"time":102.888786,"velocity":0.3937007874015748},{"duration":0.11111099999999396,"midi":32,"time":102.999897,"velocity":0.3937007874015748},{"duration":0.11111100000000818,"midi":34,"time":103.111008,"velocity":0.3937007874015748},{"duration":0.11111099999999396,"midi":29,"time":103.222119,"velocity":0.3937007874015748},{"duration":0.11111099999999396,"midi":32,"time":103.33323,"velocity":0.3937007874015748},{"duration":0.11111100000000818,"midi":34,"time":103.444341,"velocity":0.3937007874015748},{"duration":0.11111100000000818,"midi":29,"time":103.666563,"velocity":0.3937007874015748},{"duration":0.11111099999999396,"midi":32,"time":103.777674,"velocity":0.3937007874015748},{"duration":0.11111100000000818,"midi":27,"time":103.888785,"velocity":0.3937007874015748},{"duration":0.11111099999999396,"midi":34,"time":103.999896,"velocity":0.3937007874015748},{"duration":0.11111099999999396,"midi":29,"time":104.111007,"velocity":0.3937007874015748},{"duration":0.11111100000000818,"midi":32,"time":104.222118,"velocity":0.3937007874015748},{"duration":0.11111099999999396,"midi":34,"time":104.333229,"velocity":0.3937007874015748},{"duration":0.11111099999999396,"midi":29,"time":104.555451,"velocity":0.3937007874015748},{"duration":0.11111100000000818,"midi":32,"time":104.666562,"velocity":0.3937007874015748},{"duration":0.11111099999999396,"midi":27,"time":104.77767300000001,"velocity":0.3937007874015748},{"duration":0.11111099999999396,"midi":34,"time":104.888784,"velocity":0.3937007874015748},{"duration":0.11111100000000818,"midi":29,"time":104.999895,"velocity":0.3937007874015748},{"duration":0.11111099999999396,"midi":32,"time":105.111006,"velocity":0.3937007874015748},{"duration":0.11111100000000818,"midi":34,"time":105.222117,"velocity":0.3937007874015748},{"duration":0.11111100000000818,"midi":29,"time":105.444339,"velocity":0.3937007874015748},{"duration":0.11111099999999396,"midi":32,"time":105.55545000000001,"velocity":0.3937007874015748},{"duration":0.11111099999999396,"midi":27,"time":105.666561,"velocity":0.3937007874015748},{"duration":0.11111100000000818,"midi":34,"time":105.777672,"velocity":0.3937007874015748},{"duration":0.11111099999999396,"midi":29,"time":105.888783,"velocity":0.3937007874015748},{"duration":0.11111100000000818,"midi":32,"time":105.999894,"velocity":0.3937007874015748},{"duration":0.11111099999999396,"midi":41,"time":106.111005,"velocity":0.3937007874015748},{"duration":0.11111099999999396,"midi":39,"time":106.33322700000001,"velocity":0.3937007874015748},{"duration":0.11111099999999396,"midi":37,"time":106.444338,"velocity":0.3937007874015748},{"duration":0.11111100000000818,"midi":32,"time":106.555449,"velocity":0.3937007874015748},{"duration":0.11111099999999396,"midi":34,"time":106.66656,"velocity":0.3937007874015748},{"duration":0.11111100000000818,"midi":29,"time":106.777671,"velocity":0.3937007874015748},{"duration":0.11111099999999396,"midi":32,"time":106.888782,"velocity":0.3937007874015748},{"duration":0.11111100000000818,"midi":34,"time":106.999893,"velocity":0.3937007874015748},{"duration":0.11111099999999396,"midi":29,"time":107.222115,"velocity":0.3937007874015748},{"duration":0.11111100000000818,"midi":32,"time":107.333226,"velocity":0.3937007874015748},{"duration":0.11111099999999396,"midi":27,"time":107.444337,"velocity":0.3937007874015748},{"duration":0.11111100000000818,"midi":34,"time":107.555448,"velocity":0.3937007874015748},{"duration":0.11111099999999396,"midi":29,"time":107.666559,"velocity":0.3937007874015748},{"duration":0.11111099999999396,"midi":32,"time":107.77767,"velocity":0.3937007874015748},{"duration":0.11111100000000818,"midi":34,"time":107.888781,"velocity":0.3937007874015748},{"duration":0.11111100000000818,"midi":29,"time":108.111003,"velocity":0.3937007874015748},{"duration":0.11111099999999396,"midi":32,"time":108.222114,"velocity":0.3937007874015748},{"duration":0.11111100000000818,"midi":27,"time":108.333225,"velocity":0.3937007874015748},{"duration":0.11111099999999396,"midi":34,"time":108.444336,"velocity":0.3937007874015748},{"duration":0.11111099999999396,"midi":29,"time":108.555447,"velocity":0.3937007874015748},{"duration":0.11111100000000818,"midi":32,"time":108.666558,"velocity":0.3937007874015748},{"duration":0.11111099999999396,"midi":34,"time":108.777669,"velocity":0.3937007874015748},{"duration":0.11111099999999396,"midi":29,"time":108.999891,"velocity":0.3937007874015748},{"duration":0.11111100000000818,"midi":32,"time":109.111002,"velocity":0.3937007874015748},{"duration":0.11111099999999396,"midi":27,"time":109.22211300000001,"velocity":0.3937007874015748},{"duration":0.11111099999999396,"midi":34,"time":109.333224,"velocity":0.3937007874015748},{"duration":0.11111100000000818,"midi":29,"time":109.444335,"velocity":0.3937007874015748},{"duration":0.11111099999999396,"midi":32,"time":109.555446,"velocity":0.3937007874015748},{"duration":0.11111100000000818,"midi":41,"time":109.666557,"velocity":0.3937007874015748},{"duration":0.11111100000000818,"midi":39,"time":109.888779,"velocity":0.3937007874015748},{"duration":0.11111099999999396,"midi":37,"time":109.99989000000001,"velocity":0.3937007874015748},{"duration":0.11111099999999396,"midi":32,"time":110.111001,"velocity":0.3937007874015748},{"duration":0.11111100000000818,"midi":34,"time":110.222112,"velocity":0.3937007874015748},{"duration":0.11111099999999396,"midi":29,"time":110.333223,"velocity":0.3937007874015748},{"duration":0.11111100000000818,"midi":32,"time":110.444334,"velocity":0.3937007874015748},{"duration":0.11111099999999396,"midi":34,"time":110.555445,"velocity":0.3937007874015748},{"duration":0.11111099999999396,"midi":29,"time":110.77766700000001,"velocity":0.3937007874015748},{"duration":0.11111099999999396,"midi":32,"time":110.888778,"velocity":0.3937007874015748},{"duration":0.11111100000000818,"midi":27,"time":110.999889,"velocity":0.3937007874015748},{"duration":0.11111099999999396,"midi":34,"time":111.111,"velocity":0.3937007874015748},{"duration":0.11111100000000818,"midi":29,"time":111.222111,"velocity":0.3937007874015748},{"duration":0.11111099999999396,"midi":32,"time":111.333222,"velocity":0.3937007874015748},{"duration":0.11111100000000818,"midi":34,"time":111.444333,"velocity":0.3937007874015748},{"duration":0.11111099999999396,"midi":29,"time":111.666555,"velocity":0.3937007874015748},{"duration":0.11111100000000818,"midi":32,"time":111.777666,"velocity":0.3937007874015748},{"duration":0.11111099999999396,"midi":27,"time":111.888777,"velocity":0.3937007874015748},{"duration":0.11111099999999396,"midi":34,"time":113.777664,"velocity":0.3937007874015748},{"duration":0.11111100000000818,"midi":29,"time":113.888775,"velocity":0.3937007874015748},{"duration":0.11111099999999396,"midi":32,"time":113.999886,"velocity":0.3937007874015748},{"duration":0.11111100000000818,"midi":34,"time":114.110997,"velocity":0.3937007874015748},{"duration":0.11111100000000818,"midi":29,"time":114.333219,"velocity":0.3937007874015748},{"duration":0.11111099999999396,"midi":32,"time":114.44433000000001,"velocity":0.3937007874015748},{"duration":0.11111099999999396,"midi":27,"time":114.555441,"velocity":0.3937007874015748},{"duration":0.11111100000000818,"midi":34,"time":114.666552,"velocity":0.3937007874015748},{"duration":0.11111099999999396,"midi":29,"time":114.777663,"velocity":0.3937007874015748},{"duration":0.11111100000000818,"midi":32,"time":114.888774,"velocity":0.3937007874015748},{"duration":0.11111099999999396,"midi":34,"time":114.999885,"velocity":0.3937007874015748},{"duration":0.11111099999999396,"midi":29,"time":115.22210700000001,"velocity":0.3937007874015748},{"duration":0.11111099999999396,"midi":32,"time":115.333218,"velocity":0.3937007874015748},{"duration":0.11111100000000818,"midi":27,"time":115.444329,"velocity":0.3937007874015748},{"duration":0.11111099999999396,"midi":34,"time":115.55544,"velocity":0.3937007874015748},{"duration":0.11111100000000818,"midi":29,"time":115.666551,"velocity":0.3937007874015748},{"duration":0.11111099999999396,"midi":32,"time":115.777662,"velocity":0.3937007874015748},{"duration":0.11111099999999396,"midi":34,"time":115.888773,"velocity":0.3937007874015748},{"duration":0.11111099999999396,"midi":29,"time":116.110995,"velocity":0.3937007874015748},{"duration":0.11111100000000818,"midi":32,"time":116.222106,"velocity":0.3937007874015748},{"duration":0.11111099999999396,"midi":27,"time":116.333217,"velocity":0.3937007874015748},{"duration":0.11111100000000818,"midi":34,"time":116.444328,"velocity":0.3937007874015748},{"duration":0.11111099999999396,"midi":29,"time":116.555439,"velocity":0.3937007874015748},{"duration":0.11111099999999396,"midi":32,"time":116.66655,"velocity":0.3937007874015748},{"duration":0.11111100000000818,"midi":41,"time":116.777661,"velocity":0.3937007874015748},{"duration":0.11111100000000818,"midi":39,"time":116.999883,"velocity":0.3937007874015748},{"duration":0.11111099999999396,"midi":37,"time":117.110994,"velocity":0.3937007874015748},{"duration":0.11111100000000818,"midi":32,"time":117.222105,"velocity":0.3937007874015748},{"duration":0.11111099999999396,"midi":34,"time":117.33321600000001,"velocity":0.3937007874015748},{"duration":0.11111099999999396,"midi":29,"time":117.444327,"velocity":0.3937007874015748},{"duration":0.11111100000000818,"midi":32,"time":117.555438,"velocity":0.3937007874015748},{"duration":0.11111099999999396,"midi":34,"time":117.666549,"velocity":0.3937007874015748},{"duration":0.11111099999999396,"midi":29,"time":117.888771,"velocity":0.3937007874015748},{"duration":0.11111100000000818,"midi":32,"time":117.999882,"velocity":0.3937007874015748},{"duration":0.11111099999999396,"midi":27,"time":118.11099300000001,"velocity":0.3937007874015748},{"duration":0.11111099999999396,"midi":34,"time":118.222104,"velocity":0.3937007874015748},{"duration":0.11111100000000818,"midi":29,"time":118.333215,"velocity":0.3937007874015748},{"duration":0.11111099999999396,"midi":32,"time":118.444326,"velocity":0.3937007874015748},{"duration":0.11111100000000818,"midi":34,"time":118.555437,"velocity":0.3937007874015748},{"duration":0.11111100000000818,"midi":29,"time":118.777659,"velocity":0.3937007874015748},{"duration":0.11111099999999396,"midi":32,"time":118.88877000000001,"velocity":0.3937007874015748},{"duration":0.11111099999999396,"midi":27,"time":118.999881,"velocity":0.3937007874015748},{"duration":0.11111100000000818,"midi":34,"time":119.110992,"velocity":0.3937007874015748},{"duration":0.11111099999999396,"midi":29,"time":119.222103,"velocity":0.3937007874015748},{"duration":0.11111100000000818,"midi":32,"time":119.333214,"velocity":0.3937007874015748},{"duration":0.11111099999999396,"midi":34,"time":119.444325,"velocity":0.3937007874015748},{"duration":0.11111099999999396,"midi":29,"time":119.66654700000001,"velocity":0.3937007874015748},{"duration":0.11111099999999396,"midi":32,"time":119.777658,"velocity":0.3937007874015748},{"duration":0.11111100000000818,"midi":27,"time":119.888769,"velocity":0.3937007874015748},{"duration":0.11111099999999396,"midi":34,"time":119.99988,"velocity":0.3937007874015748},{"duration":0.11111100000000818,"midi":29,"time":120.110991,"velocity":0.3937007874015748},{"duration":0.11111099999999396,"midi":32,"time":120.222102,"velocity":0.3937007874015748},{"duration":0.11111099999999396,"midi":41,"time":120.333213,"velocity":0.3937007874015748},{"duration":0.11111099999999396,"midi":39,"time":120.555435,"velocity":0.3937007874015748},{"duration":0.11111100000000818,"midi":37,"time":120.666546,"velocity":0.3937007874015748},{"duration":0.11111099999999396,"midi":32,"time":120.777657,"velocity":0.3937007874015748},{"duration":0.11111100000000818,"midi":34,"time":120.888768,"velocity":0.3937007874015748},{"duration":0.11111099999999396,"midi":29,"time":120.999879,"velocity":0.3937007874015748},{"duration":0.11111099999999396,"midi":32,"time":121.11099,"velocity":0.3937007874015748},{"duration":0.11111100000000818,"midi":34,"time":121.222101,"velocity":0.3937007874015748},{"duration":0.11111100000000818,"midi":29,"time":121.444323,"velocity":0.3937007874015748},{"duration":0.11111099999999396,"midi":32,"time":121.555434,"velocity":0.3937007874015748},{"duration":0.11111100000000818,"midi":27,"time":121.666545,"velocity":0.3937007874015748},{"duration":0.11111099999999396,"midi":34,"time":121.77765600000001,"velocity":0.3937007874015748},{"duration":0.11111099999999396,"midi":29,"time":121.888767,"velocity":0.3937007874015748},{"duration":0.11111100000000818,"midi":32,"time":121.999878,"velocity":0.3937007874015748},{"duration":0.11111099999999396,"midi":34,"time":122.110989,"velocity":0.3937007874015748},{"duration":0.11111099999999396,"midi":29,"time":122.333211,"velocity":0.3937007874015748},{"duration":0.11111100000000818,"midi":32,"time":122.444322,"velocity":0.3937007874015748},{"duration":0.11111099999999396,"midi":27,"time":122.55543300000001,"velocity":0.3937007874015748},{"duration":0.11111099999999396,"midi":34,"time":122.666544,"velocity":0.3937007874015748},{"duration":0.11111100000000818,"midi":29,"time":122.777655,"velocity":0.3937007874015748},{"duration":0.11111099999999396,"midi":32,"time":122.888766,"velocity":0.3937007874015748},{"duration":0.11111100000000818,"midi":34,"time":122.999877,"velocity":0.3937007874015748},{"duration":0.11111100000000818,"midi":29,"time":123.222099,"velocity":0.3937007874015748},{"duration":0.11111099999999396,"midi":32,"time":123.33321000000001,"velocity":0.3937007874015748},{"duration":0.11111099999999396,"midi":27,"time":123.444321,"velocity":0.3937007874015748},{"duration":0.11111100000000818,"midi":34,"time":123.555432,"velocity":0.3937007874015748},{"duration":0.11111099999999396,"midi":29,"time":123.666543,"velocity":0.3937007874015748},{"duration":0.11111100000000818,"midi":32,"time":123.777654,"velocity":0.3937007874015748},{"duration":0.11111099999999396,"midi":41,"time":123.888765,"velocity":0.3937007874015748},{"duration":0.11111099999999396,"midi":39,"time":124.11098700000001,"velocity":0.3937007874015748},{"duration":0.11111099999999396,"midi":37,"time":124.222098,"velocity":0.3937007874015748},{"duration":0.11111100000000818,"midi":32,"time":124.333209,"velocity":0.3937007874015748},{"duration":0.11111099999999396,"midi":34,"time":124.44432,"velocity":0.3937007874015748},{"duration":0.11111100000000818,"midi":29,"time":124.555431,"velocity":0.3937007874015748},{"duration":0.11111099999999396,"midi":32,"time":124.666542,"velocity":0.3937007874015748},{"duration":0.11111099999999396,"midi":34,"time":124.777653,"velocity":0.3937007874015748},{"duration":0.11111099999999396,"midi":29,"time":124.999875,"velocity":0.3937007874015748},{"duration":0.11111100000000818,"midi":32,"time":125.110986,"velocity":0.3937007874015748},{"duration":0.11111099999999396,"midi":27,"time":125.222097,"velocity":0.3937007874015748},{"duration":0.11111100000000818,"midi":34,"time":125.333208,"velocity":0.3937007874015748},{"duration":0.11111099999999396,"midi":29,"time":125.44431900000001,"velocity":0.3937007874015748},{"duration":0.11111099999999396,"midi":32,"time":125.55543,"velocity":0.3937007874015748},{"duration":0.11111100000000818,"midi":34,"time":125.666541,"velocity":0.3937007874015748},{"duration":0.11111100000000818,"midi":29,"time":125.888763,"velocity":0.3937007874015748},{"duration":0.11111099999999396,"midi":32,"time":125.999874,"velocity":0.3937007874015748},{"duration":0.11111100000000818,"midi":27,"time":126.110985,"velocity":0.3937007874015748},{"duration":0.11111099999999396,"midi":34,"time":126.22209600000001,"velocity":0.3937007874015748},{"duration":0.11111099999999396,"midi":29,"time":126.333207,"velocity":0.3937007874015748},{"duration":0.11111100000000818,"midi":32,"time":126.444318,"velocity":0.3937007874015748},{"duration":0.11111099999999396,"midi":34,"time":126.555429,"velocity":0.3937007874015748},{"duration":0.11111099999999396,"midi":29,"time":126.777651,"velocity":0.3937007874015748},{"duration":0.11111100000000818,"midi":32,"time":126.888762,"velocity":0.3937007874015748},{"duration":0.11111099999999396,"midi":27,"time":126.99987300000001,"velocity":0.3937007874015748},{"duration":0.11111099999999396,"midi":34,"time":127.110984,"velocity":0.3937007874015748},{"duration":0.11111100000000818,"midi":29,"time":127.222095,"velocity":0.3937007874015748},{"duration":0.11111099999999396,"midi":32,"time":127.333206,"velocity":0.3937007874015748},{"duration":0.11111100000000818,"midi":41,"time":127.444317,"velocity":0.3937007874015748},{"duration":0.11111100000000818,"midi":39,"time":127.666539,"velocity":0.3937007874015748},{"duration":0.11111099999999396,"midi":37,"time":127.77765000000001,"velocity":0.3937007874015748},{"duration":0.11111099999999396,"midi":32,"time":127.888761,"velocity":0.3937007874015748},{"duration":0.11111100000000818,"midi":27,"time":127.999872,"velocity":0.3937007874015748},{"duration":0.11111099999999396,"midi":34,"time":128.110983,"velocity":0.3937007874015748},{"duration":0.11111099999999396,"midi":37,"time":128.222094,"velocity":0.3937007874015748},{"duration":0.11111100000002239,"midi":39,"time":128.333205,"velocity":0.3937007874015748},{"duration":0.11111099999999396,"midi":27,"time":128.44431600000001,"velocity":0.3937007874015748},{"duration":0.11111099999999396,"midi":34,"time":128.555427,"velocity":0.3937007874015748},{"duration":0.11111099999999396,"midi":37,"time":128.666538,"velocity":0.3937007874015748},{"duration":0.11111099999999396,"midi":32,"time":128.777649,"velocity":0.3937007874015748},{"duration":0.11111100000002239,"midi":27,"time":128.88876,"velocity":0.3937007874015748},{"duration":0.11111099999999396,"midi":34,"time":128.999871,"velocity":0.3937007874015748},{"duration":0.11111099999999396,"midi":37,"time":129.110982,"velocity":0.3937007874015748},{"duration":0.11111099999999396,"midi":39,"time":129.222093,"velocity":0.3937007874015748},{"duration":0.11111099999999396,"midi":27,"time":129.333204,"velocity":0.3937007874015748},{"duration":0.11111100000002239,"midi":34,"time":129.444315,"velocity":0.3937007874015748},{"duration":0.11111099999999396,"midi":37,"time":129.555426,"velocity":0.3937007874015748},{"duration":0.11111099999999396,"midi":32,"time":129.666537,"velocity":0.3937007874015748},{"duration":0.11111099999999396,"midi":27,"time":129.777648,"velocity":0.3937007874015748},{"duration":0.11111100000002239,"midi":34,"time":129.888759,"velocity":0.3937007874015748},{"duration":0.11111099999999396,"midi":37,"time":129.99987000000002,"velocity":0.3937007874015748},{"duration":0.11111099999999396,"midi":39,"time":130.110981,"velocity":0.3937007874015748},{"duration":0.11111099999999396,"midi":27,"time":130.222092,"velocity":0.3937007874015748},{"duration":0.11111099999999396,"midi":34,"time":130.333203,"velocity":0.3937007874015748},{"duration":0.11111100000002239,"midi":37,"time":130.444314,"velocity":0.3937007874015748},{"duration":0.11111099999999396,"midi":32,"time":130.555425,"velocity":0.3937007874015748},{"duration":0.11111099999999396,"midi":35,"time":130.666536,"velocity":0.3937007874015748},{"duration":0.11111099999999396,"midi":30,"time":130.777647,"velocity":0.3937007874015748},{"duration":0.11111099999999396,"midi":35,"time":130.888758,"velocity":0.3937007874015748},{"duration":0.11111100000002239,"midi":33,"time":130.999869,"velocity":0.3937007874015748},{"duration":0.11111099999999396,"midi":32,"time":131.11098,"velocity":0.3937007874015748},{"duration":0.11111099999999396,"midi":39,"time":131.222091,"velocity":0.3937007874015748},{"duration":0.11111099999999396,"midi":37,"time":131.333202,"velocity":0.3937007874015748},{"duration":0.11111099999999396,"midi":34,"time":131.444313,"velocity":0.3937007874015748},{"duration":0.11111100000002239,"midi":27,"time":131.555424,"velocity":0.3937007874015748},{"duration":0.11111099999999396,"midi":34,"time":131.666535,"velocity":0.3937007874015748},{"duration":0.11111099999999396,"midi":37,"time":131.777646,"velocity":0.3937007874015748},{"duration":0.11111099999999396,"midi":39,"time":131.888757,"velocity":0.3937007874015748},{"duration":0.11111100000002239,"midi":27,"time":131.999868,"velocity":0.3937007874015748},{"duration":0.11111099999999396,"midi":34,"time":132.11097900000001,"velocity":0.3937007874015748},{"duration":0.11111099999999396,"midi":37,"time":132.22209,"velocity":0.3937007874015748},{"duration":0.11111099999999396,"midi":32,"time":132.333201,"velocity":0.3937007874015748},{"duration":0.11111099999999396,"midi":27,"time":132.444312,"velocity":0.3937007874015748},{"duration":0.11111100000002239,"midi":34,"time":132.555423,"velocity":0.3937007874015748},{"duration":0.11111099999999396,"midi":37,"time":132.666534,"velocity":0.3937007874015748},{"duration":0.11111099999999396,"midi":39,"time":132.777645,"velocity":0.3937007874015748},{"duration":0.11111099999999396,"midi":34,"time":132.999867,"velocity":0.3937007874015748},{"duration":0.11111100000002239,"midi":37,"time":133.110978,"velocity":0.3937007874015748},{"duration":0.11111099999999396,"midi":32,"time":133.222089,"velocity":0.3937007874015748},{"duration":0.11111099999999396,"midi":27,"time":133.3332,"velocity":0.3937007874015748},{"duration":0.11111099999999396,"midi":34,"time":133.444311,"velocity":0.3937007874015748},{"duration":0.11111100000002239,"midi":37,"time":133.555422,"velocity":0.3937007874015748},{"duration":0.11111099999999396,"midi":39,"time":133.66653300000002,"velocity":0.3937007874015748},{"duration":0.11111099999999396,"midi":27,"time":133.777644,"velocity":0.3937007874015748},{"duration":0.11111099999999396,"midi":34,"time":133.888755,"velocity":0.3937007874015748},{"duration":0.11111099999999396,"midi":37,"time":133.999866,"velocity":0.3937007874015748},{"duration":0.11111100000002239,"midi":32,"time":134.110977,"velocity":0.3937007874015748},{"duration":0.11111099999999396,"midi":27,"time":134.222088,"velocity":0.3937007874015748},{"duration":0.11111099999999396,"midi":29,"time":134.333199,"velocity":0.3937007874015748},{"duration":0.11111099999999396,"midi":30,"time":134.44431,"velocity":0.3937007874015748},{"duration":0.11111099999999396,"midi":39,"time":134.555421,"velocity":0.3937007874015748},{"duration":0.11111099999999396,"midi":39,"time":134.777643,"velocity":0.3937007874015748},{"duration":0.11111099999999396,"midi":37,"time":134.888754,"velocity":0.3937007874015748},{"duration":0.11111099999999396,"midi":34,"time":134.999865,"velocity":0.3937007874015748},{"duration":0.11111099999999396,"midi":27,"time":135.110976,"velocity":0.3937007874015748},{"duration":0.11111100000002239,"midi":34,"time":135.222087,"velocity":0.3937007874015748},{"duration":0.11111099999999396,"midi":37,"time":135.333198,"velocity":0.3937007874015748},{"duration":0.11111099999999396,"midi":39,"time":135.444309,"velocity":0.3937007874015748},{"duration":0.11111099999999396,"midi":27,"time":135.55542,"velocity":0.3937007874015748},{"duration":0.11111100000002239,"midi":34,"time":135.666531,"velocity":0.3937007874015748},{"duration":0.11111099999999396,"midi":37,"time":135.77764200000001,"velocity":0.3937007874015748},{"duration":0.11111099999999396,"midi":32,"time":135.888753,"velocity":0.3937007874015748},{"duration":0.11111099999999396,"midi":27,"time":135.999864,"velocity":0.3937007874015748},{"duration":0.11111099999999396,"midi":34,"time":136.110975,"velocity":0.3937007874015748},{"duration":0.11111100000002239,"midi":37,"time":136.222086,"velocity":0.3937007874015748},{"duration":0.11111099999999396,"midi":39,"time":136.333197,"velocity":0.3937007874015748},{"duration":0.11111099999999396,"midi":27,"time":136.444308,"velocity":0.3937007874015748},{"duration":0.11111099999999396,"midi":34,"time":136.555419,"velocity":0.3937007874015748},{"duration":0.11111099999999396,"midi":37,"time":136.66653,"velocity":0.3937007874015748},{"duration":0.11111100000002239,"midi":32,"time":136.777641,"velocity":0.3937007874015748},{"duration":0.11111099999999396,"midi":27,"time":136.888752,"velocity":0.3937007874015748},{"duration":0.11111099999999396,"midi":34,"time":136.999863,"velocity":0.3937007874015748},{"duration":0.11111099999999396,"midi":37,"time":137.110974,"velocity":0.3937007874015748},{"duration":0.11111100000002239,"midi":39,"time":137.222085,"velocity":0.3937007874015748},{"duration":0.11111099999999396,"midi":27,"time":137.33319600000002,"velocity":0.3937007874015748},{"duration":0.11111099999999396,"midi":34,"time":137.444307,"velocity":0.3937007874015748},{"duration":0.11111099999999396,"midi":37,"time":137.555418,"velocity":0.3937007874015748},{"duration":0.11111099999999396,"midi":32,"time":137.666529,"velocity":0.3937007874015748},{"duration":0.11111100000002239,"midi":35,"time":137.77764,"velocity":0.3937007874015748},{"duration":0.11111099999999396,"midi":30,"time":137.888751,"velocity":0.3937007874015748},{"duration":0.11111099999999396,"midi":35,"time":137.999862,"velocity":0.3937007874015748},{"duration":0.11111099999999396,"midi":33,"time":138.110973,"velocity":0.3937007874015748},{"duration":0.11111099999999396,"midi":32,"time":138.222084,"velocity":0.3937007874015748},{"duration":0.11111100000002239,"midi":39,"time":138.333195,"velocity":0.3937007874015748},{"duration":0.11111099999999396,"midi":37,"time":138.444306,"velocity":0.3937007874015748},{"duration":0.11111099999999396,"midi":34,"time":138.555417,"velocity":0.3937007874015748},{"duration":0.11111099999999396,"midi":27,"time":138.666528,"velocity":0.3937007874015748},{"duration":0.11111100000002239,"midi":34,"time":138.777639,"velocity":0.3937007874015748},{"duration":0.11111099999999396,"midi":37,"time":138.88875000000002,"velocity":0.3937007874015748},{"duration":0.11111099999999396,"midi":39,"time":138.999861,"velocity":0.3937007874015748},{"duration":0.11111099999999396,"midi":27,"time":139.110972,"velocity":0.3937007874015748},{"duration":0.11111099999999396,"midi":34,"time":139.222083,"velocity":0.3937007874015748},{"duration":0.11111100000002239,"midi":37,"time":139.333194,"velocity":0.3937007874015748},{"duration":0.11111099999999396,"midi":32,"time":139.444305,"velocity":0.3937007874015748},{"duration":0.11111099999999396,"midi":27,"time":139.555416,"velocity":0.3937007874015748},{"duration":0.11111099999999396,"midi":34,"time":139.666527,"velocity":0.3937007874015748},{"duration":0.11111099999999396,"midi":37,"time":139.777638,"velocity":0.3937007874015748},{"duration":0.11111100000002239,"midi":39,"time":139.888749,"velocity":0.3937007874015748},{"duration":0.11111099999999396,"midi":34,"time":140.110971,"velocity":0.3937007874015748},{"duration":0.11111099999999396,"midi":37,"time":140.222082,"velocity":0.3937007874015748},{"duration":0.11111099999999396,"midi":32,"time":140.333193,"velocity":0.3937007874015748},{"duration":0.11111100000002239,"midi":27,"time":140.444304,"velocity":0.3937007874015748},{"duration":0.11111099999999396,"midi":34,"time":140.555415,"velocity":0.3937007874015748},{"duration":0.11111099999999396,"midi":37,"time":140.666526,"velocity":0.3937007874015748},{"duration":0.11111099999999396,"midi":39,"time":140.777637,"velocity":0.3937007874015748},{"duration":0.11111100000002239,"midi":27,"time":140.888748,"velocity":0.3937007874015748},{"duration":0.11111099999999396,"midi":34,"time":140.99985900000001,"velocity":0.3937007874015748},{"duration":0.11111099999999396,"midi":37,"time":141.11097,"velocity":0.3937007874015748},{"duration":0.11111099999999396,"midi":32,"time":141.222081,"velocity":0.3937007874015748},{"duration":0.11111099999999396,"midi":27,"time":141.333192,"velocity":0.3937007874015748},{"duration":0.11111100000002239,"midi":29,"time":141.444303,"velocity":0.3937007874015748},{"duration":0.11111099999999396,"midi":30,"time":141.555414,"velocity":0.3937007874015748},{"duration":0.11111099999999396,"midi":39,"time":141.666525,"velocity":0.3937007874015748},{"duration":0.11111099999999396,"midi":39,"time":141.888747,"velocity":0.3937007874015748},{"duration":0.11111100000002239,"midi":37,"time":141.999858,"velocity":0.3937007874015748},{"duration":0.11111099999999396,"midi":34,"time":142.110969,"velocity":0.3937007874015748}]},{"instrument":{"family":"brass","number":57,"name":"trombone"},"notes":[{"duration":0.11111099999999999,"midi":65,"time":0.222222,"velocity":0.5511811023622047},{"duration":0.11111099999999999,"midi":58,"time":0.222222,"velocity":0.5511811023622047},{"duration":0.11111099999999996,"midi":58,"time":0.555555,"velocity":0.5511811023622047},{"duration":0.11111099999999996,"midi":65,"time":0.555555,"velocity":0.5511811023622047},{"duration":0.11111099999999996,"midi":65,"time":0.888888,"velocity":0.5511811023622047},{"duration":0.11111099999999996,"midi":58,"time":0.888888,"velocity":0.5511811023622047},{"duration":0.11111099999999996,"midi":58,"time":1.222221,"velocity":0.5511811023622047},{"duration":0.11111099999999996,"midi":65,"time":1.222221,"velocity":0.5511811023622047},{"duration":0.11111099999999996,"midi":58,"time":1.555554,"velocity":0.5511811023622047},{"duration":0.11111099999999996,"midi":65,"time":1.555554,"velocity":0.5511811023622047},{"duration":0.11111099999999996,"midi":64,"time":1.999998,"velocity":0.5511811023622047},{"duration":0.11111099999999996,"midi":58,"time":1.999998,"velocity":0.5511811023622047},{"duration":0.11111100000000018,"midi":64,"time":2.333331,"velocity":0.5511811023622047},{"duration":0.11111100000000018,"midi":58,"time":2.333331,"velocity":0.5511811023622047},{"duration":0.11111100000000018,"midi":64,"time":2.666664,"velocity":0.5511811023622047},{"duration":0.11111100000000018,"midi":58,"time":2.666664,"velocity":0.5511811023622047},{"duration":0.11111100000000018,"midi":58,"time":2.999997,"velocity":0.5511811023622047},{"duration":0.11111100000000018,"midi":64,"time":2.999997,"velocity":0.5511811023622047},{"duration":0.11111099999999974,"midi":64,"time":3.33333,"velocity":0.5511811023622047},{"duration":0.11111099999999974,"midi":58,"time":3.33333,"velocity":0.5511811023622047},{"duration":0.11111100000000018,"midi":58,"time":3.777774,"velocity":0.5511811023622047},{"duration":0.11111100000000018,"midi":65,"time":3.777774,"velocity":0.5511811023622047},{"duration":0.11111100000000018,"midi":58,"time":4.111107,"velocity":0.5511811023622047},{"duration":0.11111100000000018,"midi":65,"time":4.111107,"velocity":0.5511811023622047},{"duration":0.11111100000000018,"midi":58,"time":4.44444,"velocity":0.5511811023622047},{"duration":0.11111100000000018,"midi":65,"time":4.44444,"velocity":0.5511811023622047},{"duration":0.11111100000000018,"midi":58,"time":4.777773,"velocity":0.5511811023622047},{"duration":0.11111100000000018,"midi":65,"time":4.777773,"velocity":0.5511811023622047},{"duration":0.1111109999999993,"midi":65,"time":5.111106,"velocity":0.5511811023622047},{"duration":0.1111109999999993,"midi":58,"time":5.111106,"velocity":0.5511811023622047},{"duration":0.11111100000000018,"midi":58,"time":5.55555,"velocity":0.5511811023622047},{"duration":0.11111100000000018,"midi":64,"time":5.55555,"velocity":0.5511811023622047},{"duration":0.11111100000000018,"midi":58,"time":5.888883,"velocity":0.5511811023622047},{"duration":0.11111100000000018,"midi":64,"time":5.888883,"velocity":0.5511811023622047},{"duration":0.1111109999999993,"midi":64,"time":6.222216,"velocity":0.5511811023622047},{"duration":0.1111109999999993,"midi":58,"time":6.222216,"velocity":0.5511811023622047},{"duration":0.11111100000000018,"midi":58,"time":6.555549,"velocity":0.5511811023622047},{"duration":0.11111100000000018,"midi":64,"time":6.555549,"velocity":0.5511811023622047},{"duration":0.11111100000000018,"midi":58,"time":6.888882,"velocity":0.5511811023622047},{"duration":0.11111100000000018,"midi":65,"time":6.888882,"velocity":0.5511811023622047},{"duration":0.1111109999999993,"midi":70,"time":7.3333260000000005,"velocity":0.5511811023622047},{"duration":0.1111109999999993,"midi":58,"time":7.3333260000000005,"velocity":0.5511811023622047},{"duration":0.1111109999999993,"midi":65,"time":7.3333260000000005,"velocity":0.5511811023622047},{"duration":0.1111109999999993,"midi":61,"time":7.3333260000000005,"velocity":0.5511811023622047},{"duration":0.11111100000000018,"midi":61,"time":7.666659,"velocity":0.5511811023622047},{"duration":0.11111100000000018,"midi":58,"time":7.666659,"velocity":0.5511811023622047},{"duration":0.11111100000000018,"midi":70,"time":7.666659,"velocity":0.5511811023622047},{"duration":0.11111100000000018,"midi":65,"time":7.666659,"velocity":0.5511811023622047},{"duration":0.11111100000000018,"midi":70,"time":7.999992,"velocity":0.5511811023622047},{"duration":0.11111100000000018,"midi":65,"time":7.999992,"velocity":0.5511811023622047},{"duration":0.11111100000000018,"midi":61,"time":7.999992,"velocity":0.5511811023622047},{"duration":0.11111100000000018,"midi":58,"time":7.999992,"velocity":0.5511811023622047},{"duration":0.1111109999999993,"midi":65,"time":8.333325,"velocity":0.5511811023622047},{"duration":0.1111109999999993,"midi":58,"time":8.333325,"velocity":0.5511811023622047},{"duration":0.1111109999999993,"midi":73,"time":8.333325,"velocity":0.5511811023622047},{"duration":0.1111109999999993,"midi":61,"time":8.333325,"velocity":0.5511811023622047},{"duration":0.1111109999999993,"midi":65,"time":8.666658,"velocity":0.5511811023622047},{"duration":0.1111109999999993,"midi":61,"time":8.666658,"velocity":0.5511811023622047},{"duration":0.1111109999999993,"midi":58,"time":8.666658,"velocity":0.5511811023622047},{"duration":0.1111109999999993,"midi":75,"time":8.666658,"velocity":0.5511811023622047},{"duration":0.1111109999999993,"midi":70,"time":9.111102,"velocity":0.5511811023622047},{"duration":0.1111109999999993,"midi":64,"time":9.111102,"velocity":0.5511811023622047},{"duration":0.1111109999999993,"midi":61,"time":9.111102,"velocity":0.5511811023622047},{"duration":0.1111109999999993,"midi":58,"time":9.111102,"velocity":0.5511811023622047},{"duration":0.1111109999999993,"midi":70,"time":9.444435,"velocity":0.5511811023622047},{"duration":0.1111109999999993,"midi":61,"time":9.444435,"velocity":0.5511811023622047},{"duration":0.1111109999999993,"midi":64,"time":9.444435,"velocity":0.5511811023622047},{"duration":0.1111109999999993,"midi":58,"time":9.444435,"velocity":0.5511811023622047},{"duration":0.1111109999999993,"midi":58,"time":9.777768,"velocity":0.5511811023622047},{"duration":0.1111109999999993,"midi":61,"time":9.777768,"velocity":0.5511811023622047},{"duration":0.1111109999999993,"midi":70,"time":9.777768,"velocity":0.5511811023622047},{"duration":0.1111109999999993,"midi":76,"time":9.777768,"velocity":0.5511811023622047},{"duration":0.1111109999999993,"midi":64,"time":9.777768,"velocity":0.5511811023622047},{"duration":0.11111100000000107,"midi":61,"time":10.111101,"velocity":0.5511811023622047},{"duration":0.11111100000000107,"midi":58,"time":10.111101,"velocity":0.5511811023622047},{"duration":0.11111100000000107,"midi":73,"time":10.111101,"velocity":0.5511811023622047},{"duration":0.11111100000000107,"midi":64,"time":10.111101,"velocity":0.5511811023622047},{"duration":0.11111100000000107,"midi":75,"time":10.444434,"velocity":0.5511811023622047},{"duration":0.11111100000000107,"midi":61,"time":10.444434,"velocity":0.5511811023622047},{"duration":0.11111100000000107,"midi":58,"time":10.444434,"velocity":0.5511811023622047},{"duration":0.11111100000000107,"midi":64,"time":10.444434,"velocity":0.5511811023622047},{"duration":0.1111109999999993,"midi":65,"time":10.888878,"velocity":0.5511811023622047},{"duration":0.1111109999999993,"midi":70,"time":10.888878,"velocity":0.5511811023622047},{"duration":0.1111109999999993,"midi":61,"time":10.888878,"velocity":0.5511811023622047},{"duration":0.1111109999999993,"midi":58,"time":10.888878,"velocity":0.5511811023622047},{"duration":0.11111100000000107,"midi":58,"time":11.222211,"velocity":0.5511811023622047},{"duration":0.11111100000000107,"midi":65,"time":11.222211,"velocity":0.5511811023622047},{"duration":0.11111100000000107,"midi":70,"time":11.222211,"velocity":0.5511811023622047},{"duration":0.11111100000000107,"midi":61,"time":11.222211,"velocity":0.5511811023622047},{"duration":0.11111100000000107,"midi":58,"time":11.555544,"velocity":0.5511811023622047},{"duration":0.11111100000000107,"midi":70,"time":11.555544,"velocity":0.5511811023622047},{"duration":0.11111100000000107,"midi":65,"time":11.555544,"velocity":0.5511811023622047},{"duration":0.11111100000000107,"midi":61,"time":11.555544,"velocity":0.5511811023622047},{"duration":0.1111109999999993,"midi":58,"time":11.888877,"velocity":0.5511811023622047},{"duration":0.1111109999999993,"midi":61,"time":11.888877,"velocity":0.5511811023622047},{"duration":0.1111109999999993,"midi":65,"time":11.888877,"velocity":0.5511811023622047},{"duration":0.1111109999999993,"midi":73,"time":11.888877,"velocity":0.5511811023622047},{"duration":0.1111109999999993,"midi":61,"time":12.22221,"velocity":0.5511811023622047},{"duration":0.1111109999999993,"midi":58,"time":12.22221,"velocity":0.5511811023622047},{"duration":0.1111109999999993,"midi":65,"time":12.22221,"velocity":0.5511811023622047},{"duration":0.1111109999999993,"midi":75,"time":12.22221,"velocity":0.5511811023622047},{"duration":0.11111100000000107,"midi":58,"time":12.666654,"velocity":0.5511811023622047},{"duration":0.11111100000000107,"midi":64,"time":12.666654,"velocity":0.5511811023622047},{"duration":0.11111100000000107,"midi":70,"time":12.666654,"velocity":0.5511811023622047},{"duration":0.11111100000000107,"midi":61,"time":12.666654,"velocity":0.5511811023622047},{"duration":0.1111109999999993,"midi":61,"time":12.999987,"velocity":0.5511811023622047},{"duration":0.1111109999999993,"midi":64,"time":12.999987,"velocity":0.5511811023622047},{"duration":0.1111109999999993,"midi":58,"time":12.999987,"velocity":0.5511811023622047},{"duration":0.1111109999999993,"midi":70,"time":12.999987,"velocity":0.5511811023622047},{"duration":0.1111109999999993,"midi":61,"time":13.33332,"velocity":0.5511811023622047},{"duration":0.1111109999999993,"midi":58,"time":13.33332,"velocity":0.5511811023622047},{"duration":0.1111109999999993,"midi":64,"time":13.33332,"velocity":0.5511811023622047},{"duration":0.1111109999999993,"midi":68,"time":13.33332,"velocity":0.5511811023622047},{"duration":0.1111109999999993,"midi":58,"time":13.666653,"velocity":0.5511811023622047},{"duration":0.1111109999999993,"midi":61,"time":13.666653,"velocity":0.5511811023622047},{"duration":0.1111109999999993,"midi":69,"time":13.666653,"velocity":0.5511811023622047},{"duration":0.1111109999999993,"midi":64,"time":13.666653,"velocity":0.5511811023622047},{"duration":0.11111100000000107,"midi":65,"time":13.999986,"velocity":0.5511811023622047},{"duration":0.11111100000000107,"midi":70,"time":13.999986,"velocity":0.5511811023622047},{"duration":0.11111100000000107,"midi":58,"time":13.999986,"velocity":0.5511811023622047},{"duration":0.11111100000000107,"midi":61,"time":13.999986,"velocity":0.5511811023622047},{"duration":0.11111100000000107,"midi":58,"time":28.666638,"velocity":0.5511811023622047},{"duration":0.11111100000000107,"midi":65,"time":28.666638,"velocity":0.5511811023622047},{"duration":0.11111100000000107,"midi":70,"time":28.666638,"velocity":0.5511811023622047},{"duration":0.11111100000000107,"midi":70,"time":28.999971,"velocity":0.5511811023622047},{"duration":0.11111100000000107,"midi":65,"time":28.999971,"velocity":0.5511811023622047},{"duration":0.11111100000000107,"midi":58,"time":28.999971,"velocity":0.5511811023622047},{"duration":0.11111099999999752,"midi":70,"time":29.333304000000002,"velocity":0.5511811023622047},{"duration":0.11111099999999752,"midi":65,"time":29.333304000000002,"velocity":0.5511811023622047},{"duration":0.11111099999999752,"midi":58,"time":29.333304000000002,"velocity":0.5511811023622047},{"duration":0.11111099999999752,"midi":58,"time":29.666637,"velocity":0.5511811023622047},{"duration":0.11111099999999752,"midi":73,"time":29.666637,"velocity":0.5511811023622047},{"duration":0.11111099999999752,"midi":65,"time":29.666637,"velocity":0.5511811023622047},{"duration":0.11111099999999752,"midi":65,"time":29.99997,"velocity":0.5511811023622047},{"duration":0.11111099999999752,"midi":75,"time":29.99997,"velocity":0.5511811023622047},{"duration":0.11111099999999752,"midi":58,"time":29.99997,"velocity":0.5511811023622047},{"duration":0.11111099999999752,"midi":58,"time":30.444414000000002,"velocity":0.5511811023622047},{"duration":0.11111099999999752,"midi":70,"time":30.444414000000002,"velocity":0.5511811023622047},{"duration":0.11111099999999752,"midi":64,"time":30.444414000000002,"velocity":0.5511811023622047},{"duration":0.11111099999999752,"midi":58,"time":30.777747,"velocity":0.5511811023622047},{"duration":0.11111099999999752,"midi":70,"time":30.777747,"velocity":0.5511811023622047},{"duration":0.11111099999999752,"midi":64,"time":30.777747,"velocity":0.5511811023622047},{"duration":0.11111099999999752,"midi":64,"time":31.11108,"velocity":0.5511811023622047},{"duration":0.11111099999999752,"midi":76,"time":31.11108,"velocity":0.5511811023622047},{"duration":0.11111099999999752,"midi":58,"time":31.11108,"velocity":0.5511811023622047},{"duration":0.11111100000000107,"midi":58,"time":31.444413,"velocity":0.5511811023622047},{"duration":0.11111100000000107,"midi":64,"time":31.444413,"velocity":0.5511811023622047},{"duration":0.11111100000000107,"midi":73,"time":31.444413,"velocity":0.5511811023622047},{"duration":0.11111100000000107,"midi":75,"time":31.777746,"velocity":0.5511811023622047},{"duration":0.11111100000000107,"midi":58,"time":31.777746,"velocity":0.5511811023622047},{"duration":0.11111100000000107,"midi":64,"time":31.777746,"velocity":0.5511811023622047},{"duration":0.11111100000000107,"midi":58,"time":32.22219,"velocity":0.5511811023622047},{"duration":0.11111100000000107,"midi":65,"time":32.22219,"velocity":0.5511811023622047},{"duration":0.11111100000000107,"midi":70,"time":32.22219,"velocity":0.5511811023622047},{"duration":0.11111100000000107,"midi":70,"time":32.555523,"velocity":0.5511811023622047},{"duration":0.11111100000000107,"midi":58,"time":32.555523,"velocity":0.5511811023622047},{"duration":0.11111100000000107,"midi":65,"time":32.555523,"velocity":0.5511811023622047},{"duration":0.11111100000000107,"midi":70,"time":32.888856,"velocity":0.5511811023622047},{"duration":0.11111100000000107,"midi":65,"time":32.888856,"velocity":0.5511811023622047},{"duration":0.11111100000000107,"midi":58,"time":32.888856,"velocity":0.5511811023622047},{"duration":0.11111100000000107,"midi":65,"time":33.222189,"velocity":0.5511811023622047},{"duration":0.11111100000000107,"midi":58,"time":33.222189,"velocity":0.5511811023622047},{"duration":0.11111100000000107,"midi":73,"time":33.222189,"velocity":0.5511811023622047},{"duration":0.11111099999999396,"midi":65,"time":33.555522,"velocity":0.5511811023622047},{"duration":0.11111099999999396,"midi":75,"time":33.555522,"velocity":0.5511811023622047},{"duration":0.11111099999999396,"midi":58,"time":33.555522,"velocity":0.5511811023622047},{"duration":0.11111100000000107,"midi":70,"time":33.999966,"velocity":0.5511811023622047},{"duration":0.11111100000000107,"midi":64,"time":33.999966,"velocity":0.5511811023622047},{"duration":0.11111100000000107,"midi":58,"time":33.999966,"velocity":0.5511811023622047},{"duration":0.11111099999999396,"midi":58,"time":34.333299000000004,"velocity":0.5511811023622047},{"duration":0.11111099999999396,"midi":64,"time":34.333299000000004,"velocity":0.5511811023622047},{"duration":0.11111099999999396,"midi":70,"time":34.333299000000004,"velocity":0.5511811023622047},{"duration":0.11111100000000107,"midi":68,"time":34.666632,"velocity":0.5511811023622047},{"duration":0.11111100000000107,"midi":64,"time":34.666632,"velocity":0.5511811023622047},{"duration":0.11111100000000107,"midi":58,"time":34.666632,"velocity":0.5511811023622047},{"duration":0.11111099999999396,"midi":69,"time":34.999965,"velocity":0.5511811023622047},{"duration":0.11111099999999396,"midi":64,"time":34.999965,"velocity":0.5511811023622047},{"duration":0.11111099999999396,"midi":58,"time":34.999965,"velocity":0.5511811023622047},{"duration":0.11111100000000107,"midi":58,"time":35.333298,"velocity":0.5511811023622047},{"duration":0.11111100000000107,"midi":70,"time":35.333298,"velocity":0.5511811023622047},{"duration":0.11111100000000107,"midi":65,"time":35.333298,"velocity":0.5511811023622047},{"duration":0.11111099999999396,"midi":70,"time":35.777742,"velocity":0.5511811023622047},{"duration":0.11111099999999396,"midi":65,"time":35.777742,"velocity":0.5511811023622047},{"duration":0.11111099999999396,"midi":58,"time":35.777742,"velocity":0.5511811023622047},{"duration":0.11111100000000107,"midi":58,"time":36.111075,"velocity":0.5511811023622047},{"duration":0.11111100000000107,"midi":70,"time":36.111075,"velocity":0.5511811023622047},{"duration":0.11111100000000107,"midi":65,"time":36.111075,"velocity":0.5511811023622047},{"duration":0.11111100000000107,"midi":70,"time":36.444408,"velocity":0.5511811023622047},{"duration":0.11111100000000107,"midi":65,"time":36.444408,"velocity":0.5511811023622047},{"duration":0.11111100000000107,"midi":58,"time":36.444408,"velocity":0.5511811023622047},{"duration":0.11111100000000107,"midi":58,"time":36.777741,"velocity":0.5511811023622047},{"duration":0.11111100000000107,"midi":73,"time":36.777741,"velocity":0.5511811023622047},{"duration":0.11111100000000107,"midi":65,"time":36.777741,"velocity":0.5511811023622047},{"duration":0.11111100000000107,"midi":58,"time":37.111074,"velocity":0.5511811023622047},{"duration":0.11111100000000107,"midi":65,"time":37.111074,"velocity":0.5511811023622047},{"duration":0.11111100000000107,"midi":75,"time":37.111074,"velocity":0.5511811023622047},{"duration":0.11111100000000107,"midi":58,"time":37.555518,"velocity":0.5511811023622047},{"duration":0.11111100000000107,"midi":64,"time":37.555518,"velocity":0.5511811023622047},{"duration":0.11111100000000107,"midi":70,"time":37.555518,"velocity":0.5511811023622047},{"duration":0.11111100000000107,"midi":64,"time":37.888851,"velocity":0.5511811023622047},{"duration":0.11111100000000107,"midi":58,"time":37.888851,"velocity":0.5511811023622047},{"duration":0.11111100000000107,"midi":70,"time":37.888851,"velocity":0.5511811023622047},{"duration":0.11111100000000107,"midi":76,"time":38.222184,"velocity":0.5511811023622047},{"duration":0.11111100000000107,"midi":58,"time":38.222184,"velocity":0.5511811023622047},{"duration":0.11111100000000107,"midi":64,"time":38.222184,"velocity":0.5511811023622047},{"duration":0.11111100000000107,"midi":64,"time":38.555517,"velocity":0.5511811023622047},{"duration":0.11111100000000107,"midi":73,"time":38.555517,"velocity":0.5511811023622047},{"duration":0.11111100000000107,"midi":58,"time":38.555517,"velocity":0.5511811023622047},{"duration":0.11111100000000107,"midi":75,"time":38.88885,"velocity":0.5511811023622047},{"duration":0.11111100000000107,"midi":64,"time":38.88885,"velocity":0.5511811023622047},{"duration":0.11111100000000107,"midi":58,"time":38.88885,"velocity":0.5511811023622047},{"duration":0.11111100000000107,"midi":65,"time":39.333294,"velocity":0.5511811023622047},{"duration":0.11111100000000107,"midi":70,"time":39.333294,"velocity":0.5511811023622047},{"duration":0.11111100000000107,"midi":58,"time":39.333294,"velocity":0.5511811023622047},{"duration":0.11111100000000107,"midi":58,"time":39.666627,"velocity":0.5511811023622047},{"duration":0.11111100000000107,"midi":65,"time":39.666627,"velocity":0.5511811023622047},{"duration":0.11111100000000107,"midi":70,"time":39.666627,"velocity":0.5511811023622047},{"duration":0.11111100000000107,"midi":65,"time":39.99996,"velocity":0.5511811023622047},{"duration":0.11111100000000107,"midi":70,"time":39.99996,"velocity":0.5511811023622047},{"duration":0.11111100000000107,"midi":58,"time":39.99996,"velocity":0.5511811023622047},{"duration":0.11111100000000107,"midi":58,"time":40.333293,"velocity":0.5511811023622047},{"duration":0.11111100000000107,"midi":65,"time":40.333293,"velocity":0.5511811023622047},{"duration":0.11111100000000107,"midi":73,"time":40.333293,"velocity":0.5511811023622047},{"duration":0.11111100000000107,"midi":65,"time":40.666626,"velocity":0.5511811023622047},{"duration":0.11111100000000107,"midi":75,"time":40.666626,"velocity":0.5511811023622047},{"duration":0.11111100000000107,"midi":58,"time":40.666626,"velocity":0.5511811023622047},{"duration":0.11111100000000107,"midi":64,"time":41.11107,"velocity":0.5511811023622047},{"duration":0.11111100000000107,"midi":58,"time":41.11107,"velocity":0.5511811023622047},{"duration":0.11111100000000107,"midi":70,"time":41.11107,"velocity":0.5511811023622047},{"duration":0.11111100000000107,"midi":58,"time":41.444403,"velocity":0.5511811023622047},{"duration":0.11111100000000107,"midi":64,"time":41.444403,"velocity":0.5511811023622047},{"duration":0.11111100000000107,"midi":70,"time":41.444403,"velocity":0.5511811023622047},{"duration":0.11111100000000107,"midi":64,"time":41.777736,"velocity":0.5511811023622047},{"duration":0.11111100000000107,"midi":58,"time":41.777736,"velocity":0.5511811023622047},{"duration":0.11111100000000107,"midi":68,"time":41.777736,"velocity":0.5511811023622047},{"duration":0.11111100000000107,"midi":64,"time":42.111069,"velocity":0.5511811023622047},{"duration":0.11111100000000107,"midi":69,"time":42.111069,"velocity":0.5511811023622047},{"duration":0.11111100000000107,"midi":58,"time":42.111069,"velocity":0.5511811023622047},{"duration":0.11111099999999396,"midi":65,"time":42.444402000000004,"velocity":0.5511811023622047},{"duration":0.11111099999999396,"midi":58,"time":42.444402000000004,"velocity":0.5511811023622047},{"duration":0.11111099999999396,"midi":70,"time":42.444402000000004,"velocity":0.5511811023622047},{"duration":0.11111100000000107,"midi":73,"time":46.222176,"velocity":0.5511811023622047},{"duration":0.11111100000000107,"midi":61,"time":46.222176,"velocity":0.5511811023622047},{"duration":0.11111100000000107,"midi":58,"time":46.222176,"velocity":0.5511811023622047},{"duration":0.11111100000000107,"midi":65,"time":46.222176,"velocity":0.5511811023622047},{"duration":0.11111100000000107,"midi":70,"time":46.555509,"velocity":0.5511811023622047},{"duration":0.11111100000000107,"midi":61,"time":46.555509,"velocity":0.5511811023622047},{"duration":0.11111100000000107,"midi":58,"time":46.555509,"velocity":0.5511811023622047},{"duration":0.11111100000000107,"midi":65,"time":46.555509,"velocity":0.5511811023622047},{"duration":0.11111100000000107,"midi":58,"time":47.111064,"velocity":0.5511811023622047},{"duration":0.11111100000000107,"midi":61,"time":47.111064,"velocity":0.5511811023622047},{"duration":0.11111100000000107,"midi":73,"time":47.111064,"velocity":0.5511811023622047},{"duration":0.11111100000000107,"midi":65,"time":47.111064,"velocity":0.5511811023622047},{"duration":0.11111100000000107,"midi":58,"time":47.444397,"velocity":0.5511811023622047},{"duration":0.11111100000000107,"midi":65,"time":47.444397,"velocity":0.5511811023622047},{"duration":0.11111100000000107,"midi":70,"time":47.444397,"velocity":0.5511811023622047},{"duration":0.11111100000000107,"midi":61,"time":47.444397,"velocity":0.5511811023622047},{"duration":0.11111100000000107,"midi":65,"time":47.999952,"velocity":0.5511811023622047},{"duration":0.11111100000000107,"midi":58,"time":47.999952,"velocity":0.5511811023622047},{"duration":0.11111100000000107,"midi":61,"time":47.999952,"velocity":0.5511811023622047},{"duration":0.11111100000000107,"midi":73,"time":47.999952,"velocity":0.5511811023622047},{"duration":0.11111099999999396,"midi":65,"time":48.333285000000004,"velocity":0.5511811023622047},{"duration":0.11111099999999396,"midi":61,"time":48.333285000000004,"velocity":0.5511811023622047},{"duration":0.11111099999999396,"midi":70,"time":48.333285000000004,"velocity":0.5511811023622047},{"duration":0.11111099999999396,"midi":58,"time":48.333285000000004,"velocity":0.5511811023622047},{"duration":0.11111100000000107,"midi":65,"time":48.88884,"velocity":0.5511811023622047},{"duration":0.11111100000000107,"midi":61,"time":48.88884,"velocity":0.5511811023622047},{"duration":0.11111100000000107,"midi":58,"time":48.88884,"velocity":0.5511811023622047},{"duration":0.11111100000000107,"midi":73,"time":48.88884,"velocity":0.5511811023622047},{"duration":0.11111100000000107,"midi":65,"time":49.333284,"velocity":0.5511811023622047},{"duration":0.11111100000000107,"midi":58,"time":49.333284,"velocity":0.5511811023622047},{"duration":0.11111100000000107,"midi":75,"time":49.333284,"velocity":0.5511811023622047},{"duration":0.11111100000000107,"midi":61,"time":49.333284,"velocity":0.5511811023622047},{"duration":0.11111100000000107,"midi":65,"time":53.33328,"velocity":0.5511811023622047},{"duration":0.11111100000000107,"midi":61,"time":53.33328,"velocity":0.5511811023622047},{"duration":0.11111100000000107,"midi":58,"time":53.33328,"velocity":0.5511811023622047},{"duration":0.11111100000000107,"midi":73,"time":53.33328,"velocity":0.5511811023622047},{"duration":0.11111100000000107,"midi":70,"time":53.666613,"velocity":0.5511811023622047},{"duration":0.11111100000000107,"midi":61,"time":53.666613,"velocity":0.5511811023622047},{"duration":0.11111100000000107,"midi":58,"time":53.666613,"velocity":0.5511811023622047},{"duration":0.11111100000000107,"midi":65,"time":53.666613,"velocity":0.5511811023622047},{"duration":0.11111099999999396,"midi":73,"time":54.222168,"velocity":0.5511811023622047},{"duration":0.11111099999999396,"midi":61,"time":54.222168,"velocity":0.5511811023622047},{"duration":0.11111099999999396,"midi":65,"time":54.222168,"velocity":0.5511811023622047},{"duration":0.11111099999999396,"midi":58,"time":54.222168,"velocity":0.5511811023622047},{"duration":0.11111100000000107,"midi":61,"time":54.555501,"velocity":0.5511811023622047},{"duration":0.11111100000000107,"midi":65,"time":54.555501,"velocity":0.5511811023622047},{"duration":0.11111100000000107,"midi":70,"time":54.555501,"velocity":0.5511811023622047},{"duration":0.11111100000000107,"midi":58,"time":54.555501,"velocity":0.5511811023622047},{"duration":0.11111100000000107,"midi":65,"time":55.111056,"velocity":0.5511811023622047},{"duration":0.11111100000000107,"midi":58,"time":55.111056,"velocity":0.5511811023622047},{"duration":0.11111100000000107,"midi":73,"time":55.111056,"velocity":0.5511811023622047},{"duration":0.11111100000000107,"midi":61,"time":55.111056,"velocity":0.5511811023622047},{"duration":0.11111100000000107,"midi":70,"time":55.444389,"velocity":0.5511811023622047},{"duration":0.11111100000000107,"midi":61,"time":55.444389,"velocity":0.5511811023622047},{"duration":0.11111100000000107,"midi":65,"time":55.444389,"velocity":0.5511811023622047},{"duration":0.11111100000000107,"midi":58,"time":55.444389,"velocity":0.5511811023622047},{"duration":0.11111100000000107,"midi":58,"time":55.999944,"velocity":0.5511811023622047},{"duration":0.11111100000000107,"midi":73,"time":55.999944,"velocity":0.5511811023622047},{"duration":0.11111100000000107,"midi":65,"time":55.999944,"velocity":0.5511811023622047},{"duration":0.11111100000000107,"midi":61,"time":55.999944,"velocity":0.5511811023622047},{"duration":0.11111099999999396,"midi":58,"time":56.444388000000004,"velocity":0.5511811023622047},{"duration":0.11111099999999396,"midi":61,"time":56.444388000000004,"velocity":0.5511811023622047},{"duration":0.11111099999999396,"midi":75,"time":56.444388000000004,"velocity":0.5511811023622047},{"duration":0.11111099999999396,"midi":65,"time":56.444388000000004,"velocity":0.5511811023622047},{"duration":0.11111099999999396,"midi":65,"time":113.999886,"velocity":0.5511811023622047},{"duration":0.11111099999999396,"midi":70,"time":113.999886,"velocity":0.5511811023622047},{"duration":0.11111100000000818,"midi":70,"time":114.333219,"velocity":0.5511811023622047},{"duration":0.11111100000000818,"midi":65,"time":114.333219,"velocity":0.5511811023622047},{"duration":0.11111100000000818,"midi":65,"time":114.666552,"velocity":0.5511811023622047},{"duration":0.11111100000000818,"midi":70,"time":114.666552,"velocity":0.5511811023622047},{"duration":0.11111099999999396,"midi":65,"time":114.999885,"velocity":0.5511811023622047},{"duration":0.11111099999999396,"midi":73,"time":114.999885,"velocity":0.5511811023622047},{"duration":0.11111099999999396,"midi":65,"time":115.333218,"velocity":0.5511811023622047},{"duration":0.11111099999999396,"midi":75,"time":115.333218,"velocity":0.5511811023622047},{"duration":0.11111099999999396,"midi":70,"time":115.777662,"velocity":0.5511811023622047},{"duration":0.11111099999999396,"midi":64,"time":115.777662,"velocity":0.5511811023622047},{"duration":0.11111099999999396,"midi":70,"time":116.110995,"velocity":0.5511811023622047},{"duration":0.11111099999999396,"midi":64,"time":116.110995,"velocity":0.5511811023622047},{"duration":0.11111100000000818,"midi":76,"time":116.444328,"velocity":0.5511811023622047},{"duration":0.11111100000000818,"midi":64,"time":116.444328,"velocity":0.5511811023622047},{"duration":0.11111100000000818,"midi":64,"time":116.777661,"velocity":0.5511811023622047},{"duration":0.11111100000000818,"midi":73,"time":116.777661,"velocity":0.5511811023622047},{"duration":0.11111099999999396,"midi":64,"time":117.110994,"velocity":0.5511811023622047},{"duration":0.11111099999999396,"midi":75,"time":117.110994,"velocity":0.5511811023622047},{"duration":0.11111100000000818,"midi":65,"time":117.555438,"velocity":0.5511811023622047},{"duration":0.11111100000000818,"midi":70,"time":117.555438,"velocity":0.5511811023622047},{"duration":0.11111099999999396,"midi":70,"time":117.888771,"velocity":0.5511811023622047},{"duration":0.11111099999999396,"midi":65,"time":117.888771,"velocity":0.5511811023622047},{"duration":0.11111099999999396,"midi":70,"time":118.222104,"velocity":0.5511811023622047},{"duration":0.11111099999999396,"midi":65,"time":118.222104,"velocity":0.5511811023622047},{"duration":0.11111100000000818,"midi":65,"time":118.555437,"velocity":0.5511811023622047},{"duration":0.11111100000000818,"midi":73,"time":118.555437,"velocity":0.5511811023622047},{"duration":0.11111099999999396,"midi":75,"time":118.88877000000001,"velocity":0.5511811023622047},{"duration":0.11111099999999396,"midi":65,"time":118.88877000000001,"velocity":0.5511811023622047},{"duration":0.11111100000000818,"midi":58,"time":119.333214,"velocity":0.5511811023622047},{"duration":0.11111100000000818,"midi":64,"time":119.333214,"velocity":0.5511811023622047},{"duration":0.11111100000000818,"midi":70,"time":119.333214,"velocity":0.5511811023622047},{"duration":0.11111099999999396,"midi":64,"time":119.66654700000001,"velocity":0.5511811023622047},{"duration":0.11111099999999396,"midi":70,"time":119.66654700000001,"velocity":0.5511811023622047},{"duration":0.11111099999999396,"midi":58,"time":119.66654700000001,"velocity":0.5511811023622047},{"duration":0.11111099999999396,"midi":58,"time":119.99988,"velocity":0.5511811023622047},{"duration":0.11111099999999396,"midi":68,"time":119.99988,"velocity":0.5511811023622047},{"duration":0.11111099999999396,"midi":64,"time":119.99988,"velocity":0.5511811023622047},{"duration":0.11111099999999396,"midi":69,"time":120.333213,"velocity":0.5511811023622047},{"duration":0.11111099999999396,"midi":64,"time":120.333213,"velocity":0.5511811023622047},{"duration":0.11111099999999396,"midi":58,"time":120.333213,"velocity":0.5511811023622047},{"duration":0.11111100000000818,"midi":58,"time":120.666546,"velocity":0.5511811023622047},{"duration":0.11111100000000818,"midi":65,"time":120.666546,"velocity":0.5511811023622047},{"duration":0.11111100000000818,"midi":70,"time":120.666546,"velocity":0.5511811023622047},{"duration":0.11111099999999396,"midi":70,"time":121.11099,"velocity":0.5511811023622047},{"duration":0.11111099999999396,"midi":65,"time":121.11099,"velocity":0.5511811023622047},{"duration":0.11111099999999396,"midi":58,"time":121.11099,"velocity":0.5511811023622047},{"duration":0.11111100000000818,"midi":70,"time":121.444323,"velocity":0.5511811023622047},{"duration":0.11111100000000818,"midi":65,"time":121.444323,"velocity":0.5511811023622047},{"duration":0.11111100000000818,"midi":58,"time":121.444323,"velocity":0.5511811023622047},{"duration":0.11111099999999396,"midi":70,"time":121.77765600000001,"velocity":0.5511811023622047},{"duration":0.11111099999999396,"midi":58,"time":121.77765600000001,"velocity":0.5511811023622047},{"duration":0.11111099999999396,"midi":65,"time":121.77765600000001,"velocity":0.5511811023622047},{"duration":0.11111099999999396,"midi":73,"time":122.110989,"velocity":0.5511811023622047},{"duration":0.11111099999999396,"midi":65,"time":122.110989,"velocity":0.5511811023622047},{"duration":0.11111099999999396,"midi":58,"time":122.110989,"velocity":0.5511811023622047},{"duration":0.11111100000000818,"midi":75,"time":122.444322,"velocity":0.5511811023622047},{"duration":0.11111100000000818,"midi":58,"time":122.444322,"velocity":0.5511811023622047},{"duration":0.11111100000000818,"midi":65,"time":122.444322,"velocity":0.5511811023622047},{"duration":0.11111099999999396,"midi":64,"time":122.888766,"velocity":0.5511811023622047},{"duration":0.11111099999999396,"midi":58,"time":122.888766,"velocity":0.5511811023622047},{"duration":0.11111099999999396,"midi":70,"time":122.888766,"velocity":0.5511811023622047},{"duration":0.11111100000000818,"midi":58,"time":123.222099,"velocity":0.5511811023622047},{"duration":0.11111100000000818,"midi":70,"time":123.222099,"velocity":0.5511811023622047},{"duration":0.11111100000000818,"midi":64,"time":123.222099,"velocity":0.5511811023622047},{"duration":0.11111100000000818,"midi":76,"time":123.555432,"velocity":0.5511811023622047},{"duration":0.11111100000000818,"midi":64,"time":123.555432,"velocity":0.5511811023622047},{"duration":0.11111100000000818,"midi":58,"time":123.555432,"velocity":0.5511811023622047},{"duration":0.11111099999999396,"midi":64,"time":123.888765,"velocity":0.5511811023622047},{"duration":0.11111099999999396,"midi":73,"time":123.888765,"velocity":0.5511811023622047},{"duration":0.11111099999999396,"midi":58,"time":123.888765,"velocity":0.5511811023622047},{"duration":0.11111099999999396,"midi":58,"time":124.222098,"velocity":0.5511811023622047},{"duration":0.11111099999999396,"midi":75,"time":124.222098,"velocity":0.5511811023622047},{"duration":0.11111099999999396,"midi":64,"time":124.222098,"velocity":0.5511811023622047},{"duration":0.11111099999999396,"midi":65,"time":124.666542,"velocity":0.5511811023622047},{"duration":0.11111099999999396,"midi":70,"time":124.666542,"velocity":0.5511811023622047},{"duration":0.11111099999999396,"midi":58,"time":124.666542,"velocity":0.5511811023622047},{"duration":0.11111099999999396,"midi":58,"time":124.999875,"velocity":0.5511811023622047},{"duration":0.11111099999999396,"midi":70,"time":124.999875,"velocity":0.5511811023622047},{"duration":0.11111099999999396,"midi":65,"time":124.999875,"velocity":0.5511811023622047},{"duration":0.11111100000000818,"midi":65,"time":125.333208,"velocity":0.5511811023622047},{"duration":0.11111100000000818,"midi":70,"time":125.333208,"velocity":0.5511811023622047},{"duration":0.11111100000000818,"midi":58,"time":125.333208,"velocity":0.5511811023622047},{"duration":0.11111100000000818,"midi":58,"time":125.666541,"velocity":0.5511811023622047},{"duration":0.11111100000000818,"midi":65,"time":125.666541,"velocity":0.5511811023622047},{"duration":0.11111100000000818,"midi":73,"time":125.666541,"velocity":0.5511811023622047},{"duration":0.11111099999999396,"midi":65,"time":125.999874,"velocity":0.5511811023622047},{"duration":0.11111099999999396,"midi":75,"time":125.999874,"velocity":0.5511811023622047},{"duration":0.11111099999999396,"midi":58,"time":125.999874,"velocity":0.5511811023622047},{"duration":0.11111100000000818,"midi":64,"time":126.444318,"velocity":0.5511811023622047},{"duration":0.11111100000000818,"midi":58,"time":126.444318,"velocity":0.5511811023622047},{"duration":0.11111100000000818,"midi":70,"time":126.444318,"velocity":0.5511811023622047},{"duration":0.11111099999999396,"midi":70,"time":126.777651,"velocity":0.5511811023622047},{"duration":0.11111099999999396,"midi":58,"time":126.777651,"velocity":0.5511811023622047},{"duration":0.11111099999999396,"midi":64,"time":126.777651,"velocity":0.5511811023622047},{"duration":0.11111099999999396,"midi":58,"time":127.110984,"velocity":0.5511811023622047},{"duration":0.11111099999999396,"midi":68,"time":127.110984,"velocity":0.5511811023622047},{"duration":0.11111099999999396,"midi":64,"time":127.110984,"velocity":0.5511811023622047},{"duration":0.11111100000000818,"midi":64,"time":127.444317,"velocity":0.5511811023622047},{"duration":0.11111100000000818,"midi":58,"time":127.444317,"velocity":0.5511811023622047},{"duration":0.11111100000000818,"midi":69,"time":127.444317,"velocity":0.5511811023622047},{"duration":0.11111099999999396,"midi":70,"time":127.77765000000001,"velocity":0.5511811023622047},{"duration":0.11111099999999396,"midi":65,"time":127.77765000000001,"velocity":0.5511811023622047},{"duration":0.11111099999999396,"midi":58,"time":127.77765000000001,"velocity":0.5511811023622047},{"duration":0.11111099999999396,"midi":70,"time":128.222094,"velocity":0.5511811023622047},{"duration":0.11111099999999396,"midi":75,"time":128.222094,"velocity":0.5511811023622047},{"duration":0.11111099999999396,"midi":66,"time":128.222094,"velocity":0.5511811023622047},{"duration":0.11111099999999396,"midi":66,"time":128.555427,"velocity":0.5511811023622047},{"duration":0.11111099999999396,"midi":70,"time":128.555427,"velocity":0.5511811023622047},{"duration":0.11111099999999396,"midi":75,"time":128.555427,"velocity":0.5511811023622047},{"duration":0.11111100000002239,"midi":70,"time":128.88876,"velocity":0.5511811023622047},{"duration":0.11111100000002239,"midi":75,"time":128.88876,"velocity":0.5511811023622047},{"duration":0.11111100000002239,"midi":66,"time":128.88876,"velocity":0.5511811023622047},{"duration":0.11111099999999396,"midi":66,"time":129.222093,"velocity":0.5511811023622047},{"duration":0.11111099999999396,"midi":70,"time":129.222093,"velocity":0.5511811023622047},{"duration":0.11111099999999396,"midi":78,"time":129.222093,"velocity":0.5511811023622047},{"duration":0.11111099999999396,"midi":80,"time":129.555426,"velocity":0.5511811023622047},{"duration":0.11111099999999396,"midi":66,"time":129.555426,"velocity":0.5511811023622047},{"duration":0.11111099999999396,"midi":70,"time":129.555426,"velocity":0.5511811023622047},{"duration":0.11111099999999396,"midi":69,"time":129.99987000000002,"velocity":0.5511811023622047},{"duration":0.11111099999999396,"midi":66,"time":129.99987000000002,"velocity":0.5511811023622047},{"duration":0.11111099999999396,"midi":75,"time":129.99987000000002,"velocity":0.5511811023622047},{"duration":0.11111099999999396,"midi":69,"time":130.333203,"velocity":0.5511811023622047},{"duration":0.11111099999999396,"midi":66,"time":130.333203,"velocity":0.5511811023622047},{"duration":0.11111099999999396,"midi":75,"time":130.333203,"velocity":0.5511811023622047},{"duration":0.11111099999999396,"midi":63,"time":130.666536,"velocity":0.5511811023622047},{"duration":0.11111099999999396,"midi":69,"time":130.666536,"velocity":0.5511811023622047},{"duration":0.11111099999999396,"midi":59,"time":130.666536,"velocity":0.5511811023622047},{"duration":0.11111100000002239,"midi":63,"time":130.999869,"velocity":0.5511811023622047},{"duration":0.11111100000002239,"midi":66,"time":130.999869,"velocity":0.5511811023622047},{"duration":0.11111100000002239,"midi":59,"time":130.999869,"velocity":0.5511811023622047},{"duration":0.11111099999999396,"midi":68,"time":131.333202,"velocity":0.5511811023622047},{"duration":0.11111099999999396,"midi":59,"time":131.333202,"velocity":0.5511811023622047},{"duration":0.11111099999999396,"midi":63,"time":131.333202,"velocity":0.5511811023622047},{"duration":0.11111099999999396,"midi":70,"time":131.777646,"velocity":0.5511811023622047},{"duration":0.11111099999999396,"midi":66,"time":131.777646,"velocity":0.5511811023622047},{"duration":0.11111099999999396,"midi":75,"time":131.777646,"velocity":0.5511811023622047},{"duration":0.11111099999999396,"midi":70,"time":132.11097900000001,"velocity":0.5511811023622047},{"duration":0.11111099999999396,"midi":66,"time":132.11097900000001,"velocity":0.5511811023622047},{"duration":0.11111099999999396,"midi":75,"time":132.11097900000001,"velocity":0.5511811023622047},{"duration":0.11111099999999396,"midi":75,"time":132.444312,"velocity":0.5511811023622047},{"duration":0.11111099999999396,"midi":66,"time":132.444312,"velocity":0.5511811023622047},{"duration":0.11111099999999396,"midi":70,"time":132.444312,"velocity":0.5511811023622047},{"duration":0.11111099999999396,"midi":78,"time":132.777645,"velocity":0.5511811023622047},{"duration":0.11111099999999396,"midi":66,"time":132.777645,"velocity":0.5511811023622047},{"duration":0.11111099999999396,"midi":70,"time":132.777645,"velocity":0.5511811023622047},{"duration":0.11111100000002239,"midi":66,"time":133.110978,"velocity":0.5511811023622047},{"duration":0.11111100000002239,"midi":80,"time":133.110978,"velocity":0.5511811023622047},{"duration":0.11111100000002239,"midi":70,"time":133.110978,"velocity":0.5511811023622047},{"duration":0.11111099999999396,"midi":71,"time":133.3332,"velocity":0.5511811023622047},{"duration":0.11111099999999396,"midi":63,"time":133.3332,"velocity":0.5511811023622047},{"duration":0.11111099999999396,"midi":59,"time":133.3332,"velocity":0.5511811023622047},{"duration":0.11111099999999396,"midi":63,"time":133.66653300000002,"velocity":0.5511811023622047},{"duration":0.11111099999999396,"midi":59,"time":133.66653300000002,"velocity":0.5511811023622047},{"duration":0.11111099999999396,"midi":66,"time":133.66653300000002,"velocity":0.5511811023622047},{"duration":0.11111099999999396,"midi":73,"time":133.999866,"velocity":0.5511811023622047},{"duration":0.11111099999999396,"midi":61,"time":133.999866,"velocity":0.5511811023622047},{"duration":0.11111099999999396,"midi":58,"time":133.999866,"velocity":0.5511811023622047},{"duration":0.05555549999999698,"midi":58,"time":134.44431,"velocity":0.5511811023622047},{"duration":0.05555549999999698,"midi":61,"time":134.44431,"velocity":0.5511811023622047},{"duration":0.05555549999999698,"midi":66,"time":134.44431,"velocity":0.5511811023622047},{"duration":0.027777750000012702,"midi":66,"time":134.555421,"velocity":0.33070866141732286},{"duration":0.027777750000012702,"midi":61,"time":134.555421,"velocity":0.33070866141732286},{"duration":0.027777750000012702,"midi":58,"time":134.555421,"velocity":0.33070866141732286},{"duration":0.11111100000002239,"midi":58,"time":134.666532,"velocity":0.5511811023622047},{"duration":0.11111100000002239,"midi":61,"time":134.666532,"velocity":0.5511811023622047},{"duration":0.11111100000002239,"midi":65,"time":134.666532,"velocity":0.5511811023622047},{"duration":0.11111099999999396,"midi":58,"time":134.888754,"velocity":0.5511811023622047},{"duration":0.11111099999999396,"midi":61,"time":134.888754,"velocity":0.5511811023622047},{"duration":0.11111099999999396,"midi":75,"time":135.333198,"velocity":0.5511811023622047},{"duration":0.11111099999999396,"midi":70,"time":135.333198,"velocity":0.5511811023622047},{"duration":0.11111099999999396,"midi":66,"time":135.333198,"velocity":0.5511811023622047},{"duration":0.11111100000002239,"midi":75,"time":135.666531,"velocity":0.5511811023622047},{"duration":0.11111100000002239,"midi":66,"time":135.666531,"velocity":0.5511811023622047},{"duration":0.11111100000002239,"midi":70,"time":135.666531,"velocity":0.5511811023622047},{"duration":0.11111099999999396,"midi":70,"time":135.999864,"velocity":0.5511811023622047},{"duration":0.11111099999999396,"midi":75,"time":135.999864,"velocity":0.5511811023622047},{"duration":0.11111099999999396,"midi":66,"time":135.999864,"velocity":0.5511811023622047},{"duration":0.11111099999999396,"midi":70,"time":136.333197,"velocity":0.5511811023622047},{"duration":0.11111099999999396,"midi":78,"time":136.333197,"velocity":0.5511811023622047},{"duration":0.11111099999999396,"midi":66,"time":136.333197,"velocity":0.5511811023622047},{"duration":0.11111099999999396,"midi":80,"time":136.66653,"velocity":0.5511811023622047},{"duration":0.11111099999999396,"midi":66,"time":136.66653,"velocity":0.5511811023622047},{"duration":0.11111099999999396,"midi":70,"time":136.66653,"velocity":0.5511811023622047},{"duration":0.11111099999999396,"midi":69,"time":137.110974,"velocity":0.5511811023622047},{"duration":0.11111099999999396,"midi":66,"time":137.110974,"velocity":0.5511811023622047},{"duration":0.11111099999999396,"midi":75,"time":137.110974,"velocity":0.5511811023622047},{"duration":0.11111099999999396,"midi":75,"time":137.444307,"velocity":0.5511811023622047},{"duration":0.11111099999999396,"midi":69,"time":137.444307,"velocity":0.5511811023622047},{"duration":0.11111099999999396,"midi":66,"time":137.444307,"velocity":0.5511811023622047},{"duration":0.11111100000002239,"midi":69,"time":137.77764,"velocity":0.5511811023622047},{"duration":0.11111100000002239,"midi":63,"time":137.77764,"velocity":0.5511811023622047},{"duration":0.11111100000002239,"midi":59,"time":137.77764,"velocity":0.5511811023622047},{"duration":0.11111099999999396,"midi":66,"time":138.110973,"velocity":0.5511811023622047},{"duration":0.11111099999999396,"midi":59,"time":138.110973,"velocity":0.5511811023622047},{"duration":0.11111099999999396,"midi":63,"time":138.110973,"velocity":0.5511811023622047},{"duration":0.11111099999999396,"midi":59,"time":138.444306,"velocity":0.5511811023622047},{"duration":0.11111099999999396,"midi":68,"time":138.444306,"velocity":0.5511811023622047},{"duration":0.11111099999999396,"midi":63,"time":138.444306,"velocity":0.5511811023622047},{"duration":0.11111099999999396,"midi":75,"time":138.88875000000002,"velocity":0.5511811023622047},{"duration":0.11111099999999396,"midi":66,"time":138.88875000000002,"velocity":0.5511811023622047},{"duration":0.11111099999999396,"midi":70,"time":138.88875000000002,"velocity":0.5511811023622047},{"duration":0.11111099999999396,"midi":66,"time":139.222083,"velocity":0.5511811023622047},{"duration":0.11111099999999396,"midi":70,"time":139.222083,"velocity":0.5511811023622047},{"duration":0.11111099999999396,"midi":75,"time":139.222083,"velocity":0.5511811023622047},{"duration":0.11111099999999396,"midi":66,"time":139.555416,"velocity":0.5511811023622047},{"duration":0.11111099999999396,"midi":75,"time":139.555416,"velocity":0.5511811023622047},{"duration":0.11111099999999396,"midi":70,"time":139.555416,"velocity":0.5511811023622047},{"duration":0.11111100000002239,"midi":78,"time":139.888749,"velocity":0.5511811023622047},{"duration":0.11111100000002239,"midi":66,"time":139.888749,"velocity":0.5511811023622047},{"duration":0.11111100000002239,"midi":70,"time":139.888749,"velocity":0.5511811023622047},{"duration":0.11111099999999396,"midi":75,"time":140.222082,"velocity":0.5511811023622047},{"duration":0.11111099999999396,"midi":70,"time":140.222082,"velocity":0.5511811023622047},{"duration":0.11111099999999396,"midi":80,"time":140.222082,"velocity":0.5511811023622047},{"duration":0.11111100000002239,"midi":80,"time":140.444304,"velocity":0.5511811023622047},{"duration":0.11111100000002239,"midi":70,"time":140.444304,"velocity":0.5511811023622047},{"duration":0.11111100000002239,"midi":75,"time":140.444304,"velocity":0.5511811023622047},{"duration":0.11111099999999396,"midi":80,"time":140.666526,"velocity":0.5511811023622047},{"duration":0.11111099999999396,"midi":70,"time":140.666526,"velocity":0.5511811023622047},{"duration":0.11111099999999396,"midi":75,"time":140.666526,"velocity":0.5511811023622047},{"duration":0.11111100000002239,"midi":75,"time":140.888748,"velocity":0.5511811023622047},{"duration":0.11111100000002239,"midi":80,"time":140.888748,"velocity":0.5511811023622047},{"duration":0.11111100000002239,"midi":70,"time":140.888748,"velocity":0.5511811023622047},{"duration":0.11111099999999396,"midi":80,"time":141.11097,"velocity":0.5511811023622047},{"duration":0.11111099999999396,"midi":75,"time":141.11097,"velocity":0.5511811023622047},{"duration":0.11111099999999396,"midi":70,"time":141.11097,"velocity":0.5511811023622047},{"duration":0.11111099999999396,"midi":75,"time":141.333192,"velocity":0.5511811023622047},{"duration":0.11111099999999396,"midi":70,"time":141.333192,"velocity":0.5511811023622047},{"duration":0.11111099999999396,"midi":80,"time":141.333192,"velocity":0.5511811023622047},{"duration":0.11111099999999396,"midi":70,"time":141.555414,"velocity":0.5511811023622047},{"duration":0.11111099999999396,"midi":75,"time":141.555414,"velocity":0.5511811023622047},{"duration":0.11111099999999396,"midi":80,"time":141.555414,"velocity":0.5511811023622047},{"duration":0.11111099999999396,"midi":75,"time":141.777636,"velocity":0.5511811023622047},{"duration":0.11111099999999396,"midi":70,"time":141.777636,"velocity":0.5511811023622047},{"duration":0.11111099999999396,"midi":80,"time":141.777636,"velocity":0.5511811023622047},{"duration":0.11111100000002239,"midi":75,"time":141.999858,"velocity":0.5511811023622047},{"duration":0.11111100000002239,"midi":70,"time":141.999858,"velocity":0.5511811023622047},{"duration":0.11111100000002239,"midi":80,"time":141.999858,"velocity":0.5511811023622047}]},{"instrument":{"family":"strings","number":40,"name":"violin"},"notes":[{"duration":0.1111109999999993,"midi":82,"time":7.3333260000000005,"velocity":0.6535433070866141},{"duration":0.1111109999999993,"midi":70,"time":7.3333260000000005,"velocity":0.6535433070866141},{"duration":0.1111109999999993,"midi":77,"time":7.3333260000000005,"velocity":0.6535433070866141},{"duration":0.11111100000000018,"midi":82,"time":7.666659,"velocity":0.6535433070866141},{"duration":0.11111100000000018,"midi":70,"time":7.666659,"velocity":0.6535433070866141},{"duration":0.11111100000000018,"midi":77,"time":7.666659,"velocity":0.6535433070866141},{"duration":0.11111100000000018,"midi":82,"time":7.999992,"velocity":0.6535433070866141},{"duration":0.11111100000000018,"midi":77,"time":7.999992,"velocity":0.6535433070866141},{"duration":0.11111100000000018,"midi":70,"time":7.999992,"velocity":0.6535433070866141},{"duration":0.1111109999999993,"midi":85,"time":8.333325,"velocity":0.6535433070866141},{"duration":0.1111109999999993,"midi":80,"time":8.333325,"velocity":0.6535433070866141},{"duration":0.1111109999999993,"midi":73,"time":8.333325,"velocity":0.6535433070866141},{"duration":0.1111109999999993,"midi":87,"time":8.666658,"velocity":0.6535433070866141},{"duration":0.1111109999999993,"midi":75,"time":8.666658,"velocity":0.6535433070866141},{"duration":0.1111109999999993,"midi":82,"time":8.666658,"velocity":0.6535433070866141},{"duration":0.1111109999999993,"midi":82,"time":9.111102,"velocity":0.6535433070866141},{"duration":0.1111109999999993,"midi":77,"time":9.111102,"velocity":0.6535433070866141},{"duration":0.1111109999999993,"midi":70,"time":9.111102,"velocity":0.6535433070866141},{"duration":0.1111109999999993,"midi":82,"time":9.444435,"velocity":0.6535433070866141},{"duration":0.1111109999999993,"midi":77,"time":9.444435,"velocity":0.6535433070866141},{"duration":0.1111109999999993,"midi":70,"time":9.444435,"velocity":0.6535433070866141},{"duration":0.1111109999999993,"midi":88,"time":9.777768,"velocity":0.6535433070866141},{"duration":0.1111109999999993,"midi":83,"time":9.777768,"velocity":0.6535433070866141},{"duration":0.1111109999999993,"midi":76,"time":9.777768,"velocity":0.6535433070866141},{"duration":0.11111100000000107,"midi":73,"time":10.111101,"velocity":0.6535433070866141},{"duration":0.11111100000000107,"midi":80,"time":10.111101,"velocity":0.6535433070866141},{"duration":0.11111100000000107,"midi":85,"time":10.111101,"velocity":0.6535433070866141},{"duration":0.11111100000000107,"midi":87,"time":10.444434,"velocity":0.6535433070866141},{"duration":0.11111100000000107,"midi":75,"time":10.444434,"velocity":0.6535433070866141},{"duration":0.11111100000000107,"midi":82,"time":10.444434,"velocity":0.6535433070866141},{"duration":0.1111109999999993,"midi":82,"time":10.888878,"velocity":0.6535433070866141},{"duration":0.1111109999999993,"midi":77,"time":10.888878,"velocity":0.6535433070866141},{"duration":0.1111109999999993,"midi":70,"time":10.888878,"velocity":0.6535433070866141},{"duration":0.11111100000000107,"midi":77,"time":11.222211,"velocity":0.6535433070866141},{"duration":0.11111100000000107,"midi":70,"time":11.222211,"velocity":0.6535433070866141},{"duration":0.11111100000000107,"midi":82,"time":11.222211,"velocity":0.6535433070866141},{"duration":0.11111100000000107,"midi":77,"time":11.555544,"velocity":0.6535433070866141},{"duration":0.11111100000000107,"midi":82,"time":11.555544,"velocity":0.6535433070866141},{"duration":0.11111100000000107,"midi":70,"time":11.555544,"velocity":0.6535433070866141},{"duration":0.1111109999999993,"midi":80,"time":11.888877,"velocity":0.6535433070866141},{"duration":0.1111109999999993,"midi":73,"time":11.888877,"velocity":0.6535433070866141},{"duration":0.1111109999999993,"midi":85,"time":11.888877,"velocity":0.6535433070866141},{"duration":0.1111109999999993,"midi":75,"time":12.22221,"velocity":0.6535433070866141},{"duration":0.1111109999999993,"midi":82,"time":12.22221,"velocity":0.6535433070866141},{"duration":0.1111109999999993,"midi":87,"time":12.22221,"velocity":0.6535433070866141},{"duration":0.11111100000000107,"midi":77,"time":12.666654,"velocity":0.6535433070866141},{"duration":0.11111100000000107,"midi":82,"time":12.666654,"velocity":0.6535433070866141},{"duration":0.11111100000000107,"midi":70,"time":12.666654,"velocity":0.6535433070866141},{"duration":0.1111109999999993,"midi":70,"time":12.999987,"velocity":0.6535433070866141},{"duration":0.1111109999999993,"midi":82,"time":12.999987,"velocity":0.6535433070866141},{"duration":0.1111109999999993,"midi":77,"time":12.999987,"velocity":0.6535433070866141},{"duration":0.1111109999999993,"midi":75,"time":13.33332,"velocity":0.6535433070866141},{"duration":0.1111109999999993,"midi":80,"time":13.33332,"velocity":0.6535433070866141},{"duration":0.1111109999999993,"midi":68,"time":13.33332,"velocity":0.6535433070866141},{"duration":0.1111109999999993,"midi":69,"time":13.666653,"velocity":0.6535433070866141},{"duration":0.1111109999999993,"midi":81,"time":13.666653,"velocity":0.6535433070866141},{"duration":0.1111109999999993,"midi":76,"time":13.666653,"velocity":0.6535433070866141},{"duration":0.11111100000000107,"midi":82,"time":13.999986,"velocity":0.6535433070866141},{"duration":0.11111100000000107,"midi":70,"time":13.999986,"velocity":0.6535433070866141},{"duration":0.11111100000000107,"midi":77,"time":13.999986,"velocity":0.6535433070866141},{"duration":0.11111100000000107,"midi":82,"time":28.666638,"velocity":0.6535433070866141},{"duration":0.11111100000000107,"midi":70,"time":28.666638,"velocity":0.6535433070866141},{"duration":0.11111100000000107,"midi":70,"time":28.999971,"velocity":0.6535433070866141},{"duration":0.11111100000000107,"midi":82,"time":28.999971,"velocity":0.6535433070866141},{"duration":0.11111099999999752,"midi":82,"time":29.333304000000002,"velocity":0.6535433070866141},{"duration":0.11111099999999752,"midi":70,"time":29.333304000000002,"velocity":0.6535433070866141},{"duration":0.11111099999999752,"midi":73,"time":29.666637,"velocity":0.6535433070866141},{"duration":0.11111099999999752,"midi":85,"time":29.666637,"velocity":0.6535433070866141},{"duration":0.11111099999999752,"midi":75,"time":29.99997,"velocity":0.6535433070866141},{"duration":0.11111099999999752,"midi":87,"time":29.99997,"velocity":0.6535433070866141},{"duration":0.11111099999999752,"midi":70,"time":30.444414000000002,"velocity":0.6535433070866141},{"duration":0.11111099999999752,"midi":82,"time":30.444414000000002,"velocity":0.6535433070866141},{"duration":0.11111099999999752,"midi":70,"time":30.777747,"velocity":0.6535433070866141},{"duration":0.11111099999999752,"midi":82,"time":30.777747,"velocity":0.6535433070866141},{"duration":0.11111099999999752,"midi":88,"time":31.11108,"velocity":0.6535433070866141},{"duration":0.11111099999999752,"midi":76,"time":31.11108,"velocity":0.6535433070866141},{"duration":0.11111100000000107,"midi":85,"time":31.444413,"velocity":0.6535433070866141},{"duration":0.11111100000000107,"midi":73,"time":31.444413,"velocity":0.6535433070866141},{"duration":0.11111100000000107,"midi":87,"time":31.777746,"velocity":0.6535433070866141},{"duration":0.11111100000000107,"midi":75,"time":31.777746,"velocity":0.6535433070866141},{"duration":0.11111100000000107,"midi":70,"time":32.22219,"velocity":0.6535433070866141},{"duration":0.11111100000000107,"midi":82,"time":32.22219,"velocity":0.6535433070866141},{"duration":0.11111100000000107,"midi":70,"time":32.555523,"velocity":0.6535433070866141},{"duration":0.11111100000000107,"midi":82,"time":32.555523,"velocity":0.6535433070866141},{"duration":0.11111100000000107,"midi":82,"time":32.888856,"velocity":0.6535433070866141},{"duration":0.11111100000000107,"midi":70,"time":32.888856,"velocity":0.6535433070866141},{"duration":0.11111100000000107,"midi":73,"time":33.222189,"velocity":0.6535433070866141},{"duration":0.11111100000000107,"midi":85,"time":33.222189,"velocity":0.6535433070866141},{"duration":0.11111099999999396,"midi":87,"time":33.555522,"velocity":0.6535433070866141},{"duration":0.11111099999999396,"midi":75,"time":33.555522,"velocity":0.6535433070866141},{"duration":0.11111100000000107,"midi":82,"time":33.999966,"velocity":0.6535433070866141},{"duration":0.11111100000000107,"midi":70,"time":33.999966,"velocity":0.6535433070866141},{"duration":0.11111099999999396,"midi":70,"time":34.333299000000004,"velocity":0.6535433070866141},{"duration":0.11111099999999396,"midi":82,"time":34.333299000000004,"velocity":0.6535433070866141},{"duration":0.11111100000000107,"midi":68,"time":34.666632,"velocity":0.6535433070866141},{"duration":0.11111100000000107,"midi":80,"time":34.666632,"velocity":0.6535433070866141},{"duration":0.11111099999999396,"midi":69,"time":34.999965,"velocity":0.6535433070866141},{"duration":0.11111099999999396,"midi":81,"time":34.999965,"velocity":0.6535433070866141},{"duration":0.11111100000000107,"midi":70,"time":35.333298,"velocity":0.6535433070866141},{"duration":0.11111100000000107,"midi":82,"time":35.333298,"velocity":0.6535433070866141},{"duration":0.11111099999999396,"midi":70,"time":35.777742,"velocity":0.6535433070866141},{"duration":0.11111099999999396,"midi":77,"time":35.777742,"velocity":0.6535433070866141},{"duration":0.11111099999999396,"midi":82,"time":35.777742,"velocity":0.6535433070866141},{"duration":0.11111100000000107,"midi":77,"time":36.111075,"velocity":0.6535433070866141},{"duration":0.11111100000000107,"midi":82,"time":36.111075,"velocity":0.6535433070866141},{"duration":0.11111100000000107,"midi":70,"time":36.111075,"velocity":0.6535433070866141},{"duration":0.11111100000000107,"midi":77,"time":36.444408,"velocity":0.6535433070866141},{"duration":0.11111100000000107,"midi":82,"time":36.444408,"velocity":0.6535433070866141},{"duration":0.11111100000000107,"midi":70,"time":36.444408,"velocity":0.6535433070866141},{"duration":0.11111100000000107,"midi":80,"time":36.777741,"velocity":0.6535433070866141},{"duration":0.11111100000000107,"midi":73,"time":36.777741,"velocity":0.6535433070866141},{"duration":0.11111100000000107,"midi":85,"time":36.777741,"velocity":0.6535433070866141},{"duration":0.11111100000000107,"midi":87,"time":37.111074,"velocity":0.6535433070866141},{"duration":0.11111100000000107,"midi":75,"time":37.111074,"velocity":0.6535433070866141},{"duration":0.11111100000000107,"midi":82,"time":37.111074,"velocity":0.6535433070866141},{"duration":0.11111100000000107,"midi":70,"time":37.555518,"velocity":0.6535433070866141},{"duration":0.11111100000000107,"midi":77,"time":37.555518,"velocity":0.6535433070866141},{"duration":0.11111100000000107,"midi":82,"time":37.555518,"velocity":0.6535433070866141},{"duration":0.11111100000000107,"midi":77,"time":37.888851,"velocity":0.6535433070866141},{"duration":0.11111100000000107,"midi":82,"time":37.888851,"velocity":0.6535433070866141},{"duration":0.11111100000000107,"midi":70,"time":37.888851,"velocity":0.6535433070866141},{"duration":0.11111100000000107,"midi":83,"time":38.222184,"velocity":0.6535433070866141},{"duration":0.11111100000000107,"midi":88,"time":38.222184,"velocity":0.6535433070866141},{"duration":0.11111100000000107,"midi":76,"time":38.222184,"velocity":0.6535433070866141},{"duration":0.11111100000000107,"midi":80,"time":38.555517,"velocity":0.6535433070866141},{"duration":0.11111100000000107,"midi":85,"time":38.555517,"velocity":0.6535433070866141},{"duration":0.11111100000000107,"midi":73,"time":38.555517,"velocity":0.6535433070866141},{"duration":0.11111100000000107,"midi":75,"time":38.88885,"velocity":0.6535433070866141},{"duration":0.11111100000000107,"midi":87,"time":38.88885,"velocity":0.6535433070866141},{"duration":0.11111100000000107,"midi":82,"time":38.88885,"velocity":0.6535433070866141},{"duration":0.11111100000000107,"midi":82,"time":39.333294,"velocity":0.6535433070866141},{"duration":0.11111100000000107,"midi":77,"time":39.333294,"velocity":0.6535433070866141},{"duration":0.11111100000000107,"midi":70,"time":39.333294,"velocity":0.6535433070866141},{"duration":0.11111100000000107,"midi":77,"time":39.666627,"velocity":0.6535433070866141},{"duration":0.11111100000000107,"midi":82,"time":39.666627,"velocity":0.6535433070866141},{"duration":0.11111100000000107,"midi":70,"time":39.666627,"velocity":0.6535433070866141},{"duration":0.11111100000000107,"midi":77,"time":39.99996,"velocity":0.6535433070866141},{"duration":0.11111100000000107,"midi":70,"time":39.99996,"velocity":0.6535433070866141},{"duration":0.11111100000000107,"midi":82,"time":39.99996,"velocity":0.6535433070866141},{"duration":0.11111100000000107,"midi":85,"time":40.333293,"velocity":0.6535433070866141},{"duration":0.11111100000000107,"midi":80,"time":40.333293,"velocity":0.6535433070866141},{"duration":0.11111100000000107,"midi":73,"time":40.333293,"velocity":0.6535433070866141},{"duration":0.11111100000000107,"midi":75,"time":40.666626,"velocity":0.6535433070866141},{"duration":0.11111100000000107,"midi":87,"time":40.666626,"velocity":0.6535433070866141},{"duration":0.11111100000000107,"midi":82,"time":40.666626,"velocity":0.6535433070866141},{"duration":0.11111100000000107,"midi":77,"time":41.11107,"velocity":0.6535433070866141},{"duration":0.11111100000000107,"midi":82,"time":41.11107,"velocity":0.6535433070866141},{"duration":0.11111100000000107,"midi":70,"time":41.11107,"velocity":0.6535433070866141},{"duration":0.11111100000000107,"midi":70,"time":41.444403,"velocity":0.6535433070866141},{"duration":0.11111100000000107,"midi":77,"time":41.444403,"velocity":0.6535433070866141},{"duration":0.11111100000000107,"midi":82,"time":41.444403,"velocity":0.6535433070866141},{"duration":0.11111100000000107,"midi":75,"time":41.777736,"velocity":0.6535433070866141},{"duration":0.11111100000000107,"midi":68,"time":41.777736,"velocity":0.6535433070866141},{"duration":0.11111100000000107,"midi":80,"time":41.777736,"velocity":0.6535433070866141},{"duration":0.11111100000000107,"midi":81,"time":42.111069,"velocity":0.6535433070866141},{"duration":0.11111100000000107,"midi":69,"time":42.111069,"velocity":0.6535433070866141},{"duration":0.11111100000000107,"midi":76,"time":42.111069,"velocity":0.6535433070866141},{"duration":0.11111099999999396,"midi":77,"time":42.444402000000004,"velocity":0.6535433070866141},{"duration":0.11111099999999396,"midi":70,"time":42.444402000000004,"velocity":0.6535433070866141},{"duration":0.11111099999999396,"midi":82,"time":42.444402000000004,"velocity":0.6535433070866141},{"duration":0.11111100000000107,"midi":73,"time":46.222176,"velocity":0.6535433070866141},{"duration":0.11111100000000107,"midi":85,"time":46.222176,"velocity":0.6535433070866141},{"duration":0.11111100000000107,"midi":70,"time":46.555509,"velocity":0.6535433070866141},{"duration":0.11111100000000107,"midi":82,"time":46.555509,"velocity":0.6535433070866141},{"duration":0.11111100000000107,"midi":73,"time":47.111064,"velocity":0.6535433070866141},{"duration":0.11111100000000107,"midi":85,"time":47.111064,"velocity":0.6535433070866141},{"duration":0.11111100000000107,"midi":82,"time":47.444397,"velocity":0.6535433070866141},{"duration":0.11111100000000107,"midi":70,"time":47.444397,"velocity":0.6535433070866141},{"duration":0.11111100000000107,"midi":85,"time":47.999952,"velocity":0.6535433070866141},{"duration":0.11111100000000107,"midi":73,"time":47.999952,"velocity":0.6535433070866141},{"duration":0.11111099999999396,"midi":82,"time":48.333285000000004,"velocity":0.6535433070866141},{"duration":0.11111099999999396,"midi":70,"time":48.333285000000004,"velocity":0.6535433070866141},{"duration":0.11111100000000107,"midi":85,"time":48.88884,"velocity":0.6535433070866141},{"duration":0.11111100000000107,"midi":73,"time":48.88884,"velocity":0.6535433070866141},{"duration":0.11111100000000107,"midi":75,"time":49.333284,"velocity":0.6535433070866141},{"duration":0.11111100000000107,"midi":87,"time":49.333284,"velocity":0.6535433070866141},{"duration":0.11111100000000107,"midi":73,"time":53.33328,"velocity":0.6535433070866141},{"duration":0.11111100000000107,"midi":85,"time":53.33328,"velocity":0.6535433070866141},{"duration":0.11111100000000107,"midi":70,"time":53.666613,"velocity":0.6535433070866141},{"duration":0.11111100000000107,"midi":82,"time":53.666613,"velocity":0.6535433070866141},{"duration":0.11111099999999396,"midi":85,"time":54.222168,"velocity":0.6535433070866141},{"duration":0.11111099999999396,"midi":73,"time":54.222168,"velocity":0.6535433070866141},{"duration":0.11111100000000107,"midi":70,"time":54.555501,"velocity":0.6535433070866141},{"duration":0.11111100000000107,"midi":82,"time":54.555501,"velocity":0.6535433070866141},{"duration":0.11111100000000107,"midi":85,"time":55.111056,"velocity":0.6535433070866141},{"duration":0.11111100000000107,"midi":73,"time":55.111056,"velocity":0.6535433070866141},{"duration":0.11111100000000107,"midi":70,"time":55.444389,"velocity":0.6535433070866141},{"duration":0.11111100000000107,"midi":82,"time":55.444389,"velocity":0.6535433070866141},{"duration":0.11111100000000107,"midi":73,"time":55.999944,"velocity":0.6535433070866141},{"duration":0.11111100000000107,"midi":85,"time":55.999944,"velocity":0.6535433070866141},{"duration":0.11111099999999396,"midi":87,"time":56.444388000000004,"velocity":0.6535433070866141},{"duration":0.11111099999999396,"midi":75,"time":56.444388000000004,"velocity":0.6535433070866141},{"duration":0.11111100000000107,"midi":80,"time":56.888832,"velocity":0.6535433070866141},{"duration":0.11111100000000107,"midi":92,"time":56.888832,"velocity":0.6535433070866141},{"duration":0.11111099999999396,"midi":82,"time":57.222165000000004,"velocity":0.6535433070866141},{"duration":0.11111099999999396,"midi":94,"time":57.222165000000004,"velocity":0.6535433070866141},{"duration":0.11111100000000107,"midi":75,"time":57.555498,"velocity":0.6535433070866141},{"duration":0.11111100000000107,"midi":87,"time":57.555498,"velocity":0.6535433070866141},{"duration":0.11111099999999396,"midi":89,"time":57.888831,"velocity":0.6535433070866141},{"duration":0.11111099999999396,"midi":77,"time":57.888831,"velocity":0.6535433070866141},{"duration":0.11111100000000107,"midi":73,"time":58.222164,"velocity":0.6535433070866141},{"duration":0.11111100000000107,"midi":85,"time":58.222164,"velocity":0.6535433070866141},{"duration":0.11111100000000107,"midi":70,"time":58.444386,"velocity":0.6535433070866141},{"duration":0.11111100000000107,"midi":82,"time":58.444386,"velocity":0.6535433070866141},{"duration":0.11111099999999396,"midi":80,"time":58.666608000000004,"velocity":0.6535433070866141},{"duration":0.11111099999999396,"midi":92,"time":58.666608000000004,"velocity":0.6535433070866141},{"duration":0.11111100000000107,"midi":94,"time":58.999941,"velocity":0.6535433070866141},{"duration":0.11111100000000107,"midi":82,"time":58.999941,"velocity":0.6535433070866141},{"duration":0.11111100000000107,"midi":87,"time":59.333274,"velocity":0.6535433070866141},{"duration":0.11111100000000107,"midi":75,"time":59.333274,"velocity":0.6535433070866141},{"duration":0.11111100000000107,"midi":89,"time":59.666607,"velocity":0.6535433070866141},{"duration":0.11111100000000107,"midi":77,"time":59.666607,"velocity":0.6535433070866141},{"duration":0.11111100000000107,"midi":73,"time":59.99994,"velocity":0.6535433070866141},{"duration":0.11111100000000107,"midi":85,"time":59.99994,"velocity":0.6535433070866141},{"duration":0.11111100000000107,"midi":82,"time":60.222162,"velocity":0.6535433070866141},{"duration":0.11111100000000107,"midi":70,"time":60.222162,"velocity":0.6535433070866141},{"duration":0.11111100000000107,"midi":92,"time":60.444384,"velocity":0.6535433070866141},{"duration":0.11111100000000107,"midi":80,"time":60.444384,"velocity":0.6535433070866141},{"duration":0.11111100000000107,"midi":82,"time":60.777717,"velocity":0.6535433070866141},{"duration":0.11111100000000107,"midi":94,"time":60.777717,"velocity":0.6535433070866141},{"duration":0.11111100000000107,"midi":87,"time":61.11105,"velocity":0.6535433070866141},{"duration":0.11111100000000107,"midi":75,"time":61.11105,"velocity":0.6535433070866141},{"duration":0.11111100000000107,"midi":89,"time":61.444383,"velocity":0.6535433070866141},{"duration":0.11111100000000107,"midi":77,"time":61.444383,"velocity":0.6535433070866141},{"duration":0.11111100000000107,"midi":73,"time":61.777716,"velocity":0.6535433070866141},{"duration":0.11111100000000107,"midi":85,"time":61.777716,"velocity":0.6535433070866141},{"duration":0.11111100000000107,"midi":82,"time":61.999938,"velocity":0.6535433070866141},{"duration":0.11111100000000107,"midi":70,"time":61.999938,"velocity":0.6535433070866141},{"duration":0.11111100000000107,"midi":80,"time":62.22216,"velocity":0.6535433070866141},{"duration":0.11111100000000107,"midi":92,"time":62.22216,"velocity":0.6535433070866141},{"duration":0.11111100000000107,"midi":94,"time":62.555493,"velocity":0.6535433070866141},{"duration":0.11111100000000107,"midi":82,"time":62.555493,"velocity":0.6535433070866141},{"duration":0.11111100000000107,"midi":85,"time":62.888826,"velocity":0.6535433070866141},{"duration":0.11111100000000107,"midi":73,"time":62.888826,"velocity":0.6535433070866141},{"duration":0.11111100000000107,"midi":72,"time":63.222159,"velocity":0.6535433070866141},{"duration":0.11111100000000107,"midi":84,"time":63.222159,"velocity":0.6535433070866141},{"duration":0.11111100000000107,"midi":80,"time":63.555492,"velocity":0.6535433070866141},{"duration":0.11111100000000107,"midi":68,"time":63.555492,"velocity":0.6535433070866141},{"duration":0.11111100000000107,"midi":65,"time":63.777714,"velocity":0.6535433070866141},{"duration":0.11111100000000107,"midi":77,"time":63.777714,"velocity":0.6535433070866141},{"duration":0.11111100000000107,"midi":92,"time":63.999936,"velocity":0.6535433070866141},{"duration":0.11111100000000107,"midi":80,"time":63.999936,"velocity":0.6535433070866141},{"duration":0.11111099999999396,"midi":94,"time":64.333269,"velocity":0.6535433070866141},{"duration":0.11111099999999396,"midi":82,"time":64.333269,"velocity":0.6535433070866141},{"duration":0.11111100000000818,"midi":87,"time":64.666602,"velocity":0.6535433070866141},{"duration":0.11111100000000818,"midi":75,"time":64.666602,"velocity":0.6535433070866141},{"duration":0.11111099999999396,"midi":77,"time":64.99993500000001,"velocity":0.6535433070866141},{"duration":0.11111099999999396,"midi":89,"time":64.99993500000001,"velocity":0.6535433070866141},{"duration":0.11111099999999396,"midi":73,"time":65.333268,"velocity":0.6535433070866141},{"duration":0.11111099999999396,"midi":85,"time":65.333268,"velocity":0.6535433070866141},{"duration":0.11111099999999396,"midi":82,"time":65.55549,"velocity":0.6535433070866141},{"duration":0.11111099999999396,"midi":70,"time":65.55549,"velocity":0.6535433070866141},{"duration":0.11111100000000818,"midi":92,"time":65.777712,"velocity":0.6535433070866141},{"duration":0.11111100000000818,"midi":80,"time":65.777712,"velocity":0.6535433070866141},{"duration":0.11111099999999396,"midi":94,"time":66.111045,"velocity":0.6535433070866141},{"duration":0.11111099999999396,"midi":82,"time":66.111045,"velocity":0.6535433070866141},{"duration":0.11111099999999396,"midi":75,"time":66.444378,"velocity":0.6535433070866141},{"duration":0.11111099999999396,"midi":87,"time":66.444378,"velocity":0.6535433070866141},{"duration":0.11111100000000818,"midi":89,"time":66.777711,"velocity":0.6535433070866141},{"duration":0.11111100000000818,"midi":77,"time":66.777711,"velocity":0.6535433070866141},{"duration":0.11111099999999396,"midi":73,"time":67.111044,"velocity":0.6535433070866141},{"duration":0.11111099999999396,"midi":85,"time":67.111044,"velocity":0.6535433070866141},{"duration":0.11111100000000818,"midi":70,"time":67.333266,"velocity":0.6535433070866141},{"duration":0.11111100000000818,"midi":82,"time":67.333266,"velocity":0.6535433070866141},{"duration":0.11111100000000818,"midi":80,"time":67.555488,"velocity":0.6535433070866141},{"duration":0.11111100000000818,"midi":92,"time":67.555488,"velocity":0.6535433070866141},{"duration":0.11111099999999396,"midi":94,"time":67.88882100000001,"velocity":0.6535433070866141},{"duration":0.11111099999999396,"midi":82,"time":67.88882100000001,"velocity":0.6535433070866141},{"duration":0.11111099999999396,"midi":87,"time":68.222154,"velocity":0.6535433070866141},{"duration":0.11111099999999396,"midi":75,"time":68.222154,"velocity":0.6535433070866141},{"duration":0.11111100000000818,"midi":89,"time":68.555487,"velocity":0.6535433070866141},{"duration":0.11111100000000818,"midi":77,"time":68.555487,"velocity":0.6535433070866141},{"duration":0.11111100000000818,"midi":73,"time":68.88882,"velocity":0.6535433070866141},{"duration":0.11111100000000818,"midi":85,"time":68.88882,"velocity":0.6535433070866141},{"duration":0.11111100000000818,"midi":82,"time":69.111042,"velocity":0.6535433070866141},{"duration":0.11111100000000818,"midi":70,"time":69.111042,"velocity":0.6535433070866141},{"duration":0.11111100000000818,"midi":80,"time":69.333264,"velocity":0.6535433070866141},{"duration":0.11111100000000818,"midi":92,"time":69.333264,"velocity":0.6535433070866141},{"duration":0.11111100000000818,"midi":82,"time":69.666597,"velocity":0.6535433070866141},{"duration":0.11111100000000818,"midi":94,"time":69.666597,"velocity":0.6535433070866141},{"duration":0.11111099999999396,"midi":73,"time":69.99993,"velocity":0.6535433070866141},{"duration":0.11111099999999396,"midi":85,"time":69.99993,"velocity":0.6535433070866141},{"duration":0.11111099999999396,"midi":84,"time":70.333263,"velocity":0.6535433070866141},{"duration":0.11111099999999396,"midi":72,"time":70.333263,"velocity":0.6535433070866141},{"duration":0.11111100000000818,"midi":80,"time":70.666596,"velocity":0.6535433070866141},{"duration":0.11111100000000818,"midi":68,"time":70.666596,"velocity":0.6535433070866141},{"duration":0.11111099999999396,"midi":65,"time":70.888818,"velocity":0.6535433070866141},{"duration":0.11111099999999396,"midi":77,"time":70.888818,"velocity":0.6535433070866141},{"duration":0.11111099999999396,"midi":80,"time":71.11104,"velocity":0.6535433070866141},{"duration":0.11111099999999396,"midi":92,"time":71.11104,"velocity":0.6535433070866141},{"duration":0.11111100000000818,"midi":82,"time":71.444373,"velocity":0.6535433070866141},{"duration":0.11111100000000818,"midi":94,"time":71.444373,"velocity":0.6535433070866141},{"duration":0.11111100000000818,"midi":87,"time":71.777706,"velocity":0.6535433070866141},{"duration":0.11111100000000818,"midi":75,"time":71.777706,"velocity":0.6535433070866141},{"duration":0.11111099999999396,"midi":77,"time":72.111039,"velocity":0.6535433070866141},{"duration":0.11111099999999396,"midi":89,"time":72.111039,"velocity":0.6535433070866141},{"duration":0.11111099999999396,"midi":73,"time":72.444372,"velocity":0.6535433070866141},{"duration":0.11111099999999396,"midi":85,"time":72.444372,"velocity":0.6535433070866141},{"duration":0.11111099999999396,"midi":82,"time":72.666594,"velocity":0.6535433070866141},{"duration":0.11111099999999396,"midi":70,"time":72.666594,"velocity":0.6535433070866141},{"duration":0.11111099999999396,"midi":92,"time":72.888816,"velocity":0.6535433070866141},{"duration":0.11111099999999396,"midi":80,"time":72.888816,"velocity":0.6535433070866141},{"duration":0.11111099999999396,"midi":82,"time":73.222149,"velocity":0.6535433070866141},{"duration":0.11111099999999396,"midi":94,"time":73.222149,"velocity":0.6535433070866141},{"duration":0.11111100000000818,"midi":87,"time":73.555482,"velocity":0.6535433070866141},{"duration":0.11111100000000818,"midi":75,"time":73.555482,"velocity":0.6535433070866141},{"duration":0.11111100000000818,"midi":77,"time":73.888815,"velocity":0.6535433070866141},{"duration":0.11111100000000818,"midi":89,"time":73.888815,"velocity":0.6535433070866141},{"duration":0.11111099999999396,"midi":73,"time":74.222148,"velocity":0.6535433070866141},{"duration":0.11111099999999396,"midi":85,"time":74.222148,"velocity":0.6535433070866141},{"duration":0.11111099999999396,"midi":82,"time":74.44437,"velocity":0.6535433070866141},{"duration":0.11111099999999396,"midi":70,"time":74.44437,"velocity":0.6535433070866141},{"duration":0.11111100000000818,"midi":80,"time":74.666592,"velocity":0.6535433070866141},{"duration":0.11111100000000818,"midi":92,"time":74.666592,"velocity":0.6535433070866141},{"duration":0.11111099999999396,"midi":82,"time":74.999925,"velocity":0.6535433070866141},{"duration":0.11111099999999396,"midi":94,"time":74.999925,"velocity":0.6535433070866141},{"duration":0.11111099999999396,"midi":87,"time":75.333258,"velocity":0.6535433070866141},{"duration":0.11111099999999396,"midi":75,"time":75.333258,"velocity":0.6535433070866141},{"duration":0.11111100000000818,"midi":89,"time":75.666591,"velocity":0.6535433070866141},{"duration":0.11111100000000818,"midi":77,"time":75.666591,"velocity":0.6535433070866141},{"duration":0.11111099999999396,"midi":73,"time":75.99992400000001,"velocity":0.6535433070866141},{"duration":0.11111099999999396,"midi":85,"time":75.99992400000001,"velocity":0.6535433070866141},{"duration":0.11111100000000818,"midi":82,"time":76.222146,"velocity":0.6535433070866141},{"duration":0.11111100000000818,"midi":70,"time":76.222146,"velocity":0.6535433070866141},{"duration":0.11111100000000818,"midi":92,"time":76.444368,"velocity":0.6535433070866141},{"duration":0.11111100000000818,"midi":80,"time":76.444368,"velocity":0.6535433070866141},{"duration":0.11111099999999396,"midi":94,"time":76.77770100000001,"velocity":0.6535433070866141},{"duration":0.11111099999999396,"midi":82,"time":76.77770100000001,"velocity":0.6535433070866141},{"duration":0.11111099999999396,"midi":73,"time":77.111034,"velocity":0.6535433070866141},{"duration":0.11111099999999396,"midi":85,"time":77.111034,"velocity":0.6535433070866141},{"duration":0.11111100000000818,"midi":84,"time":77.444367,"velocity":0.6535433070866141},{"duration":0.11111100000000818,"midi":72,"time":77.444367,"velocity":0.6535433070866141},{"duration":0.11111100000000818,"midi":80,"time":77.7777,"velocity":0.6535433070866141},{"duration":0.11111100000000818,"midi":68,"time":77.7777,"velocity":0.6535433070866141},{"duration":0.11111100000000818,"midi":65,"time":77.999922,"velocity":0.6535433070866141},{"duration":0.11111100000000818,"midi":77,"time":77.999922,"velocity":0.6535433070866141},{"duration":0.11111099999999396,"midi":92,"time":78.222144,"velocity":0.6535433070866141},{"duration":0.11111099999999396,"midi":80,"time":78.222144,"velocity":0.6535433070866141},{"duration":0.11111100000000818,"midi":94,"time":78.555477,"velocity":0.6535433070866141},{"duration":0.11111100000000818,"midi":82,"time":78.555477,"velocity":0.6535433070866141},{"duration":0.11111099999999396,"midi":87,"time":78.88881,"velocity":0.6535433070866141},{"duration":0.11111099999999396,"midi":75,"time":78.88881,"velocity":0.6535433070866141},{"duration":0.11111099999999396,"midi":89,"time":79.222143,"velocity":0.6535433070866141},{"duration":0.11111099999999396,"midi":77,"time":79.222143,"velocity":0.6535433070866141},{"duration":0.11111100000000818,"midi":73,"time":79.555476,"velocity":0.6535433070866141},{"duration":0.11111100000000818,"midi":85,"time":79.555476,"velocity":0.6535433070866141},{"duration":0.11111099999999396,"midi":82,"time":79.777698,"velocity":0.6535433070866141},{"duration":0.11111099999999396,"midi":70,"time":79.777698,"velocity":0.6535433070866141},{"duration":0.11111099999999396,"midi":92,"time":79.99992,"velocity":0.6535433070866141},{"duration":0.11111099999999396,"midi":80,"time":79.99992,"velocity":0.6535433070866141},{"duration":0.11111100000000818,"midi":82,"time":80.333253,"velocity":0.6535433070866141},{"duration":0.11111100000000818,"midi":94,"time":80.333253,"velocity":0.6535433070866141},{"duration":0.11111100000000818,"midi":75,"time":80.666586,"velocity":0.6535433070866141},{"duration":0.11111100000000818,"midi":87,"time":80.666586,"velocity":0.6535433070866141},{"duration":0.11111099999999396,"midi":77,"time":80.999919,"velocity":0.6535433070866141},{"duration":0.11111099999999396,"midi":89,"time":80.999919,"velocity":0.6535433070866141},{"duration":0.11111099999999396,"midi":73,"time":81.333252,"velocity":0.6535433070866141},{"duration":0.11111099999999396,"midi":85,"time":81.333252,"velocity":0.6535433070866141},{"duration":0.11111099999999396,"midi":82,"time":81.555474,"velocity":0.6535433070866141},{"duration":0.11111099999999396,"midi":70,"time":81.555474,"velocity":0.6535433070866141},{"duration":0.11111099999999396,"midi":92,"time":81.777696,"velocity":0.6535433070866141},{"duration":0.11111099999999396,"midi":80,"time":81.777696,"velocity":0.6535433070866141},{"duration":0.11111099999999396,"midi":82,"time":82.111029,"velocity":0.6535433070866141},{"duration":0.11111099999999396,"midi":94,"time":82.111029,"velocity":0.6535433070866141},{"duration":0.11111100000000818,"midi":87,"time":82.444362,"velocity":0.6535433070866141},{"duration":0.11111100000000818,"midi":75,"time":82.444362,"velocity":0.6535433070866141},{"duration":0.11111100000000818,"midi":77,"time":82.777695,"velocity":0.6535433070866141},{"duration":0.11111100000000818,"midi":89,"time":82.777695,"velocity":0.6535433070866141},{"duration":0.11111099999999396,"midi":73,"time":83.111028,"velocity":0.6535433070866141},{"duration":0.11111099999999396,"midi":85,"time":83.111028,"velocity":0.6535433070866141},{"duration":0.11111099999999396,"midi":70,"time":83.33325,"velocity":0.6535433070866141},{"duration":0.11111099999999396,"midi":82,"time":83.33325,"velocity":0.6535433070866141},{"duration":0.11111100000000818,"midi":92,"time":83.555472,"velocity":0.6535433070866141},{"duration":0.11111100000000818,"midi":80,"time":83.555472,"velocity":0.6535433070866141},{"duration":0.11111099999999396,"midi":94,"time":83.888805,"velocity":0.6535433070866141},{"duration":0.11111099999999396,"midi":82,"time":83.888805,"velocity":0.6535433070866141},{"duration":0.11111099999999396,"midi":85,"time":84.222138,"velocity":0.6535433070866141},{"duration":0.11111099999999396,"midi":73,"time":84.222138,"velocity":0.6535433070866141},{"duration":0.11111100000000818,"midi":84,"time":84.555471,"velocity":0.6535433070866141},{"duration":0.11111100000000818,"midi":72,"time":84.555471,"velocity":0.6535433070866141},{"duration":0.11111099999999396,"midi":68,"time":84.88880400000001,"velocity":0.6535433070866141},{"duration":0.11111099999999396,"midi":80,"time":84.88880400000001,"velocity":0.6535433070866141},{"duration":0.11111100000000818,"midi":65,"time":85.111026,"velocity":0.6535433070866141},{"duration":0.11111100000000818,"midi":77,"time":85.111026,"velocity":0.6535433070866141},{"duration":0.11111099999999396,"midi":70,"time":113.999886,"velocity":0.6535433070866141},{"duration":0.11111099999999396,"midi":82,"time":113.999886,"velocity":0.6535433070866141},{"duration":0.11111100000000818,"midi":70,"time":114.333219,"velocity":0.6535433070866141},{"duration":0.11111100000000818,"midi":82,"time":114.333219,"velocity":0.6535433070866141},{"duration":0.11111100000000818,"midi":70,"time":114.666552,"velocity":0.6535433070866141},{"duration":0.11111100000000818,"midi":82,"time":114.666552,"velocity":0.6535433070866141},{"duration":0.11111099999999396,"midi":85,"time":114.999885,"velocity":0.6535433070866141},{"duration":0.11111099999999396,"midi":73,"time":114.999885,"velocity":0.6535433070866141},{"duration":0.11111099999999396,"midi":87,"time":115.333218,"velocity":0.6535433070866141},{"duration":0.11111099999999396,"midi":75,"time":115.333218,"velocity":0.6535433070866141},{"duration":0.11111099999999396,"midi":70,"time":115.777662,"velocity":0.6535433070866141},{"duration":0.11111099999999396,"midi":82,"time":115.777662,"velocity":0.6535433070866141},{"duration":0.11111099999999396,"midi":82,"time":116.110995,"velocity":0.6535433070866141},{"duration":0.11111099999999396,"midi":70,"time":116.110995,"velocity":0.6535433070866141},{"duration":0.11111100000000818,"midi":88,"time":116.444328,"velocity":0.6535433070866141},{"duration":0.11111100000000818,"midi":76,"time":116.444328,"velocity":0.6535433070866141},{"duration":0.11111100000000818,"midi":85,"time":116.777661,"velocity":0.6535433070866141},{"duration":0.11111100000000818,"midi":73,"time":116.777661,"velocity":0.6535433070866141},{"duration":0.11111099999999396,"midi":75,"time":117.110994,"velocity":0.6535433070866141},{"duration":0.11111099999999396,"midi":87,"time":117.110994,"velocity":0.6535433070866141},{"duration":0.11111100000000818,"midi":70,"time":117.555438,"velocity":0.6535433070866141},{"duration":0.11111100000000818,"midi":82,"time":117.555438,"velocity":0.6535433070866141},{"duration":0.11111099999999396,"midi":70,"time":117.888771,"velocity":0.6535433070866141},{"duration":0.11111099999999396,"midi":82,"time":117.888771,"velocity":0.6535433070866141},{"duration":0.11111099999999396,"midi":70,"time":118.222104,"velocity":0.6535433070866141},{"duration":0.11111099999999396,"midi":82,"time":118.222104,"velocity":0.6535433070866141},{"duration":0.11111100000000818,"midi":85,"time":118.555437,"velocity":0.6535433070866141},{"duration":0.11111100000000818,"midi":73,"time":118.555437,"velocity":0.6535433070866141},{"duration":0.11111099999999396,"midi":75,"time":118.88877000000001,"velocity":0.6535433070866141},{"duration":0.11111099999999396,"midi":87,"time":118.88877000000001,"velocity":0.6535433070866141},{"duration":0.11111100000000818,"midi":82,"time":119.333214,"velocity":0.6535433070866141},{"duration":0.11111100000000818,"midi":70,"time":119.333214,"velocity":0.6535433070866141},{"duration":0.11111099999999396,"midi":70,"time":119.66654700000001,"velocity":0.6535433070866141},{"duration":0.11111099999999396,"midi":82,"time":119.66654700000001,"velocity":0.6535433070866141},{"duration":0.11111099999999396,"midi":68,"time":119.99988,"velocity":0.6535433070866141},{"duration":0.11111099999999396,"midi":80,"time":119.99988,"velocity":0.6535433070866141},{"duration":0.11111099999999396,"midi":69,"time":120.333213,"velocity":0.6535433070866141},{"duration":0.11111099999999396,"midi":81,"time":120.333213,"velocity":0.6535433070866141},{"duration":0.11111100000000818,"midi":70,"time":120.666546,"velocity":0.6535433070866141},{"duration":0.11111100000000818,"midi":82,"time":120.666546,"velocity":0.6535433070866141},{"duration":0.11111099999999396,"midi":70,"time":121.11099,"velocity":0.6535433070866141},{"duration":0.11111099999999396,"midi":77,"time":121.11099,"velocity":0.6535433070866141},{"duration":0.11111099999999396,"midi":82,"time":121.11099,"velocity":0.6535433070866141},{"duration":0.11111100000000818,"midi":77,"time":121.444323,"velocity":0.6535433070866141},{"duration":0.11111100000000818,"midi":82,"time":121.444323,"velocity":0.6535433070866141},{"duration":0.11111100000000818,"midi":70,"time":121.444323,"velocity":0.6535433070866141},{"duration":0.11111099999999396,"midi":70,"time":121.77765600000001,"velocity":0.6535433070866141},{"duration":0.11111099999999396,"midi":82,"time":121.77765600000001,"velocity":0.6535433070866141},{"duration":0.11111099999999396,"midi":77,"time":121.77765600000001,"velocity":0.6535433070866141},{"duration":0.11111099999999396,"midi":73,"time":122.110989,"velocity":0.6535433070866141},{"duration":0.11111099999999396,"midi":85,"time":122.110989,"velocity":0.6535433070866141},{"duration":0.11111099999999396,"midi":80,"time":122.110989,"velocity":0.6535433070866141},{"duration":0.11111100000000818,"midi":75,"time":122.444322,"velocity":0.6535433070866141},{"duration":0.11111100000000818,"midi":82,"time":122.444322,"velocity":0.6535433070866141},{"duration":0.11111100000000818,"midi":87,"time":122.444322,"velocity":0.6535433070866141},{"duration":0.11111099999999396,"midi":82,"time":122.888766,"velocity":0.6535433070866141},{"duration":0.11111099999999396,"midi":70,"time":122.888766,"velocity":0.6535433070866141},{"duration":0.11111099999999396,"midi":77,"time":122.888766,"velocity":0.6535433070866141},{"duration":0.11111100000000818,"midi":70,"time":123.222099,"velocity":0.6535433070866141},{"duration":0.11111100000000818,"midi":82,"time":123.222099,"velocity":0.6535433070866141},{"duration":0.11111100000000818,"midi":77,"time":123.222099,"velocity":0.6535433070866141},{"duration":0.11111100000000818,"midi":83,"time":123.555432,"velocity":0.6535433070866141},{"duration":0.11111100000000818,"midi":88,"time":123.555432,"velocity":0.6535433070866141},{"duration":0.11111100000000818,"midi":76,"time":123.555432,"velocity":0.6535433070866141},{"duration":0.11111099999999396,"midi":80,"time":123.888765,"velocity":0.6535433070866141},{"duration":0.11111099999999396,"midi":85,"time":123.888765,"velocity":0.6535433070866141},{"duration":0.11111099999999396,"midi":73,"time":123.888765,"velocity":0.6535433070866141},{"duration":0.11111099999999396,"midi":82,"time":124.222098,"velocity":0.6535433070866141},{"duration":0.11111099999999396,"midi":75,"time":124.222098,"velocity":0.6535433070866141},{"duration":0.11111099999999396,"midi":87,"time":124.222098,"velocity":0.6535433070866141},{"duration":0.11111099999999396,"midi":70,"time":124.666542,"velocity":0.6535433070866141},{"duration":0.11111099999999396,"midi":82,"time":124.666542,"velocity":0.6535433070866141},{"duration":0.11111099999999396,"midi":77,"time":124.666542,"velocity":0.6535433070866141},{"duration":0.11111099999999396,"midi":77,"time":124.999875,"velocity":0.6535433070866141},{"duration":0.11111099999999396,"midi":82,"time":124.999875,"velocity":0.6535433070866141},{"duration":0.11111099999999396,"midi":70,"time":124.999875,"velocity":0.6535433070866141},{"duration":0.11111100000000818,"midi":77,"time":125.333208,"velocity":0.6535433070866141},{"duration":0.11111100000000818,"midi":82,"time":125.333208,"velocity":0.6535433070866141},{"duration":0.11111100000000818,"midi":70,"time":125.333208,"velocity":0.6535433070866141},{"duration":0.11111100000000818,"midi":80,"time":125.666541,"velocity":0.6535433070866141},{"duration":0.11111100000000818,"midi":85,"time":125.666541,"velocity":0.6535433070866141},{"duration":0.11111100000000818,"midi":73,"time":125.666541,"velocity":0.6535433070866141},{"duration":0.11111099999999396,"midi":82,"time":125.999874,"velocity":0.6535433070866141},{"duration":0.11111099999999396,"midi":75,"time":125.999874,"velocity":0.6535433070866141},{"duration":0.11111099999999396,"midi":87,"time":125.999874,"velocity":0.6535433070866141},{"duration":0.11111100000000818,"midi":70,"time":126.444318,"velocity":0.6535433070866141},{"duration":0.11111100000000818,"midi":82,"time":126.444318,"velocity":0.6535433070866141},{"duration":0.11111100000000818,"midi":77,"time":126.444318,"velocity":0.6535433070866141},{"duration":0.11111099999999396,"midi":70,"time":126.777651,"velocity":0.6535433070866141},{"duration":0.11111099999999396,"midi":82,"time":126.777651,"velocity":0.6535433070866141},{"duration":0.11111099999999396,"midi":77,"time":126.777651,"velocity":0.6535433070866141},{"duration":0.11111099999999396,"midi":75,"time":127.110984,"velocity":0.6535433070866141},{"duration":0.11111099999999396,"midi":80,"time":127.110984,"velocity":0.6535433070866141},{"duration":0.11111099999999396,"midi":68,"time":127.110984,"velocity":0.6535433070866141},{"duration":0.11111100000000818,"midi":76,"time":127.444317,"velocity":0.6535433070866141},{"duration":0.11111100000000818,"midi":81,"time":127.444317,"velocity":0.6535433070866141},{"duration":0.11111100000000818,"midi":69,"time":127.444317,"velocity":0.6535433070866141},{"duration":0.11111099999999396,"midi":77,"time":127.77765000000001,"velocity":0.6535433070866141},{"duration":0.11111099999999396,"midi":82,"time":127.77765000000001,"velocity":0.6535433070866141},{"duration":0.11111099999999396,"midi":70,"time":127.77765000000001,"velocity":0.6535433070866141},{"duration":0.11111099999999396,"midi":75,"time":128.222094,"velocity":0.6535433070866141},{"duration":0.11111099999999396,"midi":87,"time":128.222094,"velocity":0.6535433070866141},{"duration":0.11111099999999396,"midi":82,"time":128.222094,"velocity":0.6535433070866141},{"duration":0.11111099999999396,"midi":82,"time":128.555427,"velocity":0.6535433070866141},{"duration":0.11111099999999396,"midi":87,"time":128.555427,"velocity":0.6535433070866141},{"duration":0.11111099999999396,"midi":75,"time":128.555427,"velocity":0.6535433070866141},{"duration":0.11111100000002239,"midi":87,"time":128.88876,"velocity":0.6535433070866141},{"duration":0.11111100000002239,"midi":75,"time":128.88876,"velocity":0.6535433070866141},{"duration":0.11111100000002239,"midi":82,"time":128.88876,"velocity":0.6535433070866141},{"duration":0.11111099999999396,"midi":78,"time":129.222093,"velocity":0.6535433070866141},{"duration":0.11111099999999396,"midi":90,"time":129.222093,"velocity":0.6535433070866141},{"duration":0.11111099999999396,"midi":85,"time":129.222093,"velocity":0.6535433070866141},{"duration":0.11111099999999396,"midi":80,"time":129.555426,"velocity":0.6535433070866141},{"duration":0.11111099999999396,"midi":87,"time":129.555426,"velocity":0.6535433070866141},{"duration":0.11111099999999396,"midi":92,"time":129.555426,"velocity":0.6535433070866141},{"duration":0.11111099999999396,"midi":75,"time":129.99987000000002,"velocity":0.6535433070866141},{"duration":0.11111099999999396,"midi":87,"time":129.99987000000002,"velocity":0.6535433070866141},{"duration":0.11111099999999396,"midi":82,"time":129.99987000000002,"velocity":0.6535433070866141},{"duration":0.11111099999999396,"midi":82,"time":130.333203,"velocity":0.6535433070866141},{"duration":0.11111099999999396,"midi":87,"time":130.333203,"velocity":0.6535433070866141},{"duration":0.11111099999999396,"midi":75,"time":130.333203,"velocity":0.6535433070866141},{"duration":0.11111099999999396,"midi":76,"time":130.666536,"velocity":0.6535433070866141},{"duration":0.11111099999999396,"midi":69,"time":130.666536,"velocity":0.6535433070866141},{"duration":0.11111099999999396,"midi":81,"time":130.666536,"velocity":0.6535433070866141},{"duration":0.11111100000002239,"midi":78,"time":130.999869,"velocity":0.6535433070866141},{"duration":0.11111100000002239,"midi":66,"time":130.999869,"velocity":0.6535433070866141},{"duration":0.11111100000002239,"midi":73,"time":130.999869,"velocity":0.6535433070866141},{"duration":0.11111099999999396,"midi":75,"time":131.333202,"velocity":0.6535433070866141},{"duration":0.11111099999999396,"midi":80,"time":131.333202,"velocity":0.6535433070866141},{"duration":0.11111099999999396,"midi":68,"time":131.333202,"velocity":0.6535433070866141},{"duration":0.11111099999999396,"midi":75,"time":131.777646,"velocity":0.6535433070866141},{"duration":0.11111099999999396,"midi":82,"time":131.777646,"velocity":0.6535433070866141},{"duration":0.11111099999999396,"midi":87,"time":131.777646,"velocity":0.6535433070866141},{"duration":0.11111099999999396,"midi":82,"time":132.11097900000001,"velocity":0.6535433070866141},{"duration":0.11111099999999396,"midi":87,"time":132.11097900000001,"velocity":0.6535433070866141},{"duration":0.11111099999999396,"midi":75,"time":132.11097900000001,"velocity":0.6535433070866141},{"duration":0.11111099999999396,"midi":87,"time":132.444312,"velocity":0.6535433070866141},{"duration":0.11111099999999396,"midi":75,"time":132.444312,"velocity":0.6535433070866141},{"duration":0.11111099999999396,"midi":82,"time":132.444312,"velocity":0.6535433070866141},{"duration":0.11111099999999396,"midi":78,"time":132.777645,"velocity":0.6535433070866141},{"duration":0.11111099999999396,"midi":90,"time":132.777645,"velocity":0.6535433070866141},{"duration":0.11111099999999396,"midi":85,"time":132.777645,"velocity":0.6535433070866141},{"duration":0.11111100000002239,"midi":92,"time":133.110978,"velocity":0.6535433070866141},{"duration":0.11111100000002239,"midi":87,"time":133.110978,"velocity":0.6535433070866141},{"duration":0.11111100000002239,"midi":80,"time":133.110978,"velocity":0.6535433070866141},{"duration":0.11111099999999396,"midi":78,"time":133.3332,"velocity":0.6535433070866141},{"duration":0.11111099999999396,"midi":71,"time":133.3332,"velocity":0.6535433070866141},{"duration":0.11111099999999396,"midi":83,"time":133.3332,"velocity":0.6535433070866141},{"duration":0.11111099999999396,"midi":73,"time":133.66653300000002,"velocity":0.6535433070866141},{"duration":0.11111099999999396,"midi":66,"time":133.66653300000002,"velocity":0.6535433070866141},{"duration":0.11111099999999396,"midi":78,"time":133.66653300000002,"velocity":0.6535433070866141},{"duration":0.11111099999999396,"midi":73,"time":133.999866,"velocity":0.6535433070866141},{"duration":0.11111099999999396,"midi":80,"time":133.999866,"velocity":0.6535433070866141},{"duration":0.11111099999999396,"midi":85,"time":133.999866,"velocity":0.6535433070866141},{"duration":0.05555549999999698,"midi":73,"time":134.44431,"velocity":0.6535433070866141},{"duration":0.05555549999999698,"midi":78,"time":134.44431,"velocity":0.6535433070866141},{"duration":0.05555549999999698,"midi":66,"time":134.44431,"velocity":0.6535433070866141},{"duration":0.027777750000012702,"midi":73,"time":134.555421,"velocity":0.3937007874015748},{"duration":0.027777750000012702,"midi":78,"time":134.555421,"velocity":0.3937007874015748},{"duration":0.027777750000012702,"midi":66,"time":134.555421,"velocity":0.3937007874015748},{"duration":0.11111100000002239,"midi":77,"time":134.666532,"velocity":0.6535433070866141},{"duration":0.11111100000002239,"midi":65,"time":134.666532,"velocity":0.6535433070866141},{"duration":0.11111100000002239,"midi":73,"time":134.666532,"velocity":0.6535433070866141},{"duration":0.11111099999999396,"midi":61,"time":134.888754,"velocity":0.6535433070866141},{"duration":0.11111099999999396,"midi":73,"time":134.888754,"velocity":0.6535433070866141},{"duration":0.11111099999999396,"midi":68,"time":134.888754,"velocity":0.6535433070866141},{"duration":0.11111099999999396,"midi":87,"time":135.333198,"velocity":0.6535433070866141},{"duration":0.11111099999999396,"midi":75,"time":135.333198,"velocity":0.6535433070866141},{"duration":0.11111099999999396,"midi":82,"time":135.333198,"velocity":0.6535433070866141},{"duration":0.11111100000002239,"midi":87,"time":135.666531,"velocity":0.6535433070866141},{"duration":0.11111100000002239,"midi":75,"time":135.666531,"velocity":0.6535433070866141},{"duration":0.11111100000002239,"midi":82,"time":135.666531,"velocity":0.6535433070866141},{"duration":0.11111099999999396,"midi":75,"time":135.999864,"velocity":0.6535433070866141},{"duration":0.11111099999999396,"midi":87,"time":135.999864,"velocity":0.6535433070866141},{"duration":0.11111099999999396,"midi":82,"time":135.999864,"velocity":0.6535433070866141},{"duration":0.11111099999999396,"midi":90,"time":136.333197,"velocity":0.6535433070866141},{"duration":0.11111099999999396,"midi":85,"time":136.333197,"velocity":0.6535433070866141},{"duration":0.11111099999999396,"midi":78,"time":136.333197,"velocity":0.6535433070866141},{"duration":0.11111099999999396,"midi":80,"time":136.66653,"velocity":0.6535433070866141},{"duration":0.11111099999999396,"midi":92,"time":136.66653,"velocity":0.6535433070866141},{"duration":0.11111099999999396,"midi":87,"time":136.66653,"velocity":0.6535433070866141},{"duration":0.11111099999999396,"midi":82,"time":137.110974,"velocity":0.6535433070866141},{"duration":0.11111099999999396,"midi":87,"time":137.110974,"velocity":0.6535433070866141},{"duration":0.11111099999999396,"midi":75,"time":137.110974,"velocity":0.6535433070866141},{"duration":0.11111099999999396,"midi":87,"time":137.444307,"velocity":0.6535433070866141},{"duration":0.11111099999999396,"midi":75,"time":137.444307,"velocity":0.6535433070866141},{"duration":0.11111099999999396,"midi":82,"time":137.444307,"velocity":0.6535433070866141},{"duration":0.11111100000002239,"midi":76,"time":137.77764,"velocity":0.6535433070866141},{"duration":0.11111100000002239,"midi":81,"time":137.77764,"velocity":0.6535433070866141},{"duration":0.11111100000002239,"midi":69,"time":137.77764,"velocity":0.6535433070866141},{"duration":0.11111099999999396,"midi":78,"time":138.110973,"velocity":0.6535433070866141},{"duration":0.11111099999999396,"midi":73,"time":138.110973,"velocity":0.6535433070866141},{"duration":0.11111099999999396,"midi":66,"time":138.110973,"velocity":0.6535433070866141},{"duration":0.11111099999999396,"midi":75,"time":138.444306,"velocity":0.6535433070866141},{"duration":0.11111099999999396,"midi":80,"time":138.444306,"velocity":0.6535433070866141},{"duration":0.11111099999999396,"midi":68,"time":138.444306,"velocity":0.6535433070866141},{"duration":0.11111099999999396,"midi":75,"time":138.88875000000002,"velocity":0.6535433070866141},{"duration":0.11111099999999396,"midi":87,"time":138.88875000000002,"velocity":0.6535433070866141},{"duration":0.11111099999999396,"midi":82,"time":138.88875000000002,"velocity":0.6535433070866141},{"duration":0.11111099999999396,"midi":87,"time":139.222083,"velocity":0.6535433070866141},{"duration":0.11111099999999396,"midi":82,"time":139.222083,"velocity":0.6535433070866141},{"duration":0.11111099999999396,"midi":75,"time":139.222083,"velocity":0.6535433070866141},{"duration":0.11111099999999396,"midi":82,"time":139.555416,"velocity":0.6535433070866141},{"duration":0.11111099999999396,"midi":87,"time":139.555416,"velocity":0.6535433070866141},{"duration":0.11111099999999396,"midi":75,"time":139.555416,"velocity":0.6535433070866141},{"duration":0.11111100000002239,"midi":78,"time":139.888749,"velocity":0.6535433070866141},{"duration":0.11111100000002239,"midi":90,"time":139.888749,"velocity":0.6535433070866141},{"duration":0.11111100000002239,"midi":85,"time":139.888749,"velocity":0.6535433070866141},{"duration":0.11111099999999396,"midi":87,"time":140.222082,"velocity":0.6535433070866141},{"duration":0.11111099999999396,"midi":80,"time":140.222082,"velocity":0.6535433070866141},{"duration":0.11111099999999396,"midi":92,"time":140.222082,"velocity":0.6535433070866141},{"duration":0.11111100000002239,"midi":80,"time":140.444304,"velocity":0.6535433070866141},{"duration":0.11111100000002239,"midi":92,"time":140.444304,"velocity":0.6535433070866141},{"duration":0.11111099999999396,"midi":92,"time":140.666526,"velocity":0.6535433070866141},{"duration":0.11111099999999396,"midi":80,"time":140.666526,"velocity":0.6535433070866141},{"duration":0.11111100000002239,"midi":80,"time":140.888748,"velocity":0.6535433070866141},{"duration":0.11111100000002239,"midi":92,"time":140.888748,"velocity":0.6535433070866141},{"duration":0.11111099999999396,"midi":92,"time":141.11097,"velocity":0.6535433070866141},{"duration":0.11111099999999396,"midi":80,"time":141.11097,"velocity":0.6535433070866141},{"duration":0.11111099999999396,"midi":92,"time":141.333192,"velocity":0.6535433070866141},{"duration":0.11111099999999396,"midi":80,"time":141.333192,"velocity":0.6535433070866141},{"duration":0.11111099999999396,"midi":92,"time":141.555414,"velocity":0.6535433070866141},{"duration":0.11111099999999396,"midi":80,"time":141.555414,"velocity":0.6535433070866141},{"duration":0.11111099999999396,"midi":80,"time":141.777636,"velocity":0.6535433070866141},{"duration":0.11111099999999396,"midi":92,"time":141.777636,"velocity":0.6535433070866141},{"duration":0.11111100000002239,"midi":80,"time":141.999858,"velocity":0.6535433070866141},{"duration":0.11111100000002239,"midi":92,"time":141.999858,"velocity":0.6535433070866141}]},{"instrument":{"family":"synth lead","number":82,"name":"lead 3 (calliope)"},"notes":[{"duration":1.777776,"midi":53,"time":0,"velocity":0.3228346456692913},{"duration":1.777776,"midi":58,"time":0,"velocity":0.3228346456692913},{"duration":1.777776,"midi":58,"time":1.777776,"velocity":0.3228346456692913},{"duration":1.777776,"midi":52,"time":1.777776,"velocity":0.3228346456692913},{"duration":1.7777759999999998,"midi":58,"time":3.555552,"velocity":0.3228346456692913},{"duration":1.7777759999999998,"midi":53,"time":3.555552,"velocity":0.3228346456692913},{"duration":1.7777760000000002,"midi":52,"time":5.333328,"velocity":0.3228346456692913},{"duration":1.7777760000000002,"midi":58,"time":5.333328,"velocity":0.3228346456692913},{"duration":1.7777760000000002,"midi":53,"time":7.111104,"velocity":0.3228346456692913},{"duration":1.7777760000000002,"midi":58,"time":7.111104,"velocity":0.3228346456692913},{"duration":1.7777759999999994,"midi":52,"time":8.88888,"velocity":0.3228346456692913},{"duration":1.7777759999999994,"midi":58,"time":8.88888,"velocity":0.3228346456692913},{"duration":1.7777760000000011,"midi":58,"time":10.666656,"velocity":0.3228346456692913},{"duration":1.7777760000000011,"midi":53,"time":10.666656,"velocity":0.3228346456692913},{"duration":1.7777759999999994,"midi":58,"time":12.444432,"velocity":0.3228346456692913},{"duration":1.7777759999999994,"midi":52,"time":12.444432,"velocity":0.3228346456692913},{"duration":0.2222219999999986,"midi":81,"time":15.777762000000001,"velocity":0.3228346456692913},{"duration":0.22222200000000214,"midi":77,"time":17.555538,"velocity":0.3228346456692913},{"duration":0.2222219999999986,"midi":81,"time":19.333314,"velocity":0.3228346456692913},{"duration":0.2222219999999986,"midi":81,"time":20.666646,"velocity":0.3228346456692913},{"duration":0.2222219999999986,"midi":81,"time":21.11109,"velocity":0.3228346456692913},{"duration":0.2222219999999986,"midi":81,"time":22.888866,"velocity":0.3228346456692913},{"duration":0.22222200000000214,"midi":77,"time":24.666642,"velocity":0.3228346456692913},{"duration":0.22222200000000214,"midi":81,"time":26.444418,"velocity":0.3228346456692913},{"duration":0.2222219999999986,"midi":81,"time":27.77775,"velocity":0.3228346456692913},{"duration":0.2222219999999986,"midi":81,"time":28.222194000000002,"velocity":0.3228346456692913},{"duration":1.7777759999999994,"midi":58,"time":28.444416,"velocity":0.3228346456692913},{"duration":1.7777759999999994,"midi":53,"time":28.444416,"velocity":0.3228346456692913},{"duration":1.7777759999999994,"midi":52,"time":30.222192,"velocity":0.3228346456692913},{"duration":1.7777759999999994,"midi":58,"time":30.222192,"velocity":0.3228346456692913},{"duration":1.7777759999999994,"midi":58,"time":31.999968,"velocity":0.3228346456692913},{"duration":1.7777759999999994,"midi":53,"time":31.999968,"velocity":0.3228346456692913},{"duration":1.777776000000003,"midi":58,"time":33.777744,"velocity":0.3228346456692913},{"duration":1.777776000000003,"midi":52,"time":33.777744,"velocity":0.3228346456692913},{"duration":1.7777759999999958,"midi":53,"time":35.55552,"velocity":0.3228346456692913},{"duration":1.7777759999999958,"midi":58,"time":35.55552,"velocity":0.3228346456692913},{"duration":1.777776000000003,"midi":52,"time":37.333296,"velocity":0.3228346456692913},{"duration":1.777776000000003,"midi":58,"time":37.333296,"velocity":0.3228346456692913},{"duration":1.777776000000003,"midi":58,"time":39.111072,"velocity":0.3228346456692913},{"duration":1.777776000000003,"midi":53,"time":39.111072,"velocity":0.3228346456692913},{"duration":1.7777759999999958,"midi":52,"time":40.888848,"velocity":0.3228346456692913},{"duration":1.7777759999999958,"midi":58,"time":40.888848,"velocity":0.3228346456692913},{"duration":3.5555519999999987,"midi":65,"time":56.888832,"velocity":0.3228346456692913},{"duration":3.5555519999999987,"midi":73,"time":56.888832,"velocity":0.3228346456692913},{"duration":3.5555519999999987,"midi":61,"time":56.888832,"velocity":0.3228346456692913},{"duration":3.5555519999999987,"midi":56,"time":56.888832,"velocity":0.3228346456692913},{"duration":1.777776000000003,"midi":75,"time":60.444384,"velocity":0.3228346456692913},{"duration":1.777776000000003,"midi":68,"time":60.444384,"velocity":0.3228346456692913},{"duration":1.777776000000003,"midi":63,"time":60.444384,"velocity":0.3228346456692913},{"duration":1.777776000000003,"midi":56,"time":60.444384,"velocity":0.3228346456692913},{"duration":1.7777759999999958,"midi":67,"time":62.22216,"velocity":0.3228346456692913},{"duration":1.7777759999999958,"midi":58,"time":62.22216,"velocity":0.3228346456692913},{"duration":1.7777759999999958,"midi":73,"time":62.22216,"velocity":0.3228346456692913},{"duration":1.7777759999999958,"midi":63,"time":62.22216,"velocity":0.3228346456692913},{"duration":3.5555519999999987,"midi":65,"time":63.999936,"velocity":0.3228346456692913},{"duration":3.5555519999999987,"midi":73,"time":63.999936,"velocity":0.3228346456692913},{"duration":3.5555519999999987,"midi":56,"time":63.999936,"velocity":0.3228346456692913},{"duration":3.5555519999999987,"midi":61,"time":63.999936,"velocity":0.3228346456692913},{"duration":1.777776000000003,"midi":61,"time":67.555488,"velocity":0.3228346456692913},{"duration":1.777776000000003,"midi":75,"time":67.555488,"velocity":0.3228346456692913},{"duration":1.777776000000003,"midi":63,"time":67.555488,"velocity":0.3228346456692913},{"duration":1.777776000000003,"midi":68,"time":67.555488,"velocity":0.3228346456692913},{"duration":1.777776000000003,"midi":56,"time":67.555488,"velocity":0.3228346456692913},{"duration":1.777776000000003,"midi":58,"time":69.333264,"velocity":0.3228346456692913},{"duration":1.777776000000003,"midi":67,"time":69.333264,"velocity":0.3228346456692913},{"duration":1.777776000000003,"midi":73,"time":69.333264,"velocity":0.3228346456692913},{"duration":1.777776000000003,"midi":63,"time":69.333264,"velocity":0.3228346456692913},{"duration":3.5555519999999916,"midi":65,"time":71.11104,"velocity":0.3228346456692913},{"duration":3.5555519999999916,"midi":61,"time":71.11104,"velocity":0.3228346456692913},{"duration":3.5555519999999916,"midi":56,"time":71.11104,"velocity":0.3228346456692913},{"duration":3.5555519999999916,"midi":73,"time":71.11104,"velocity":0.3228346456692913},{"duration":1.777776000000003,"midi":75,"time":74.666592,"velocity":0.3228346456692913},{"duration":1.777776000000003,"midi":63,"time":74.666592,"velocity":0.3228346456692913},{"duration":1.777776000000003,"midi":68,"time":74.666592,"velocity":0.3228346456692913},{"duration":1.777776000000003,"midi":56,"time":74.666592,"velocity":0.3228346456692913},{"duration":1.777776000000003,"midi":63,"time":76.444368,"velocity":0.3228346456692913},{"duration":1.777776000000003,"midi":67,"time":76.444368,"velocity":0.3228346456692913},{"duration":1.777776000000003,"midi":58,"time":76.444368,"velocity":0.3228346456692913},{"duration":1.777776000000003,"midi":73,"time":76.444368,"velocity":0.3228346456692913},{"duration":3.555552000000006,"midi":56,"time":78.222144,"velocity":0.3228346456692913},{"duration":3.555552000000006,"midi":65,"time":78.222144,"velocity":0.3228346456692913},{"duration":3.555552000000006,"midi":73,"time":78.222144,"velocity":0.3228346456692913},{"duration":3.555552000000006,"midi":61,"time":78.222144,"velocity":0.3228346456692913},{"duration":1.7777759999999887,"midi":61,"time":81.777696,"velocity":0.3228346456692913},{"duration":1.7777759999999887,"midi":56,"time":81.777696,"velocity":0.3228346456692913},{"duration":1.7777759999999887,"midi":63,"time":81.777696,"velocity":0.3228346456692913},{"duration":1.7777759999999887,"midi":68,"time":81.777696,"velocity":0.3228346456692913},{"duration":1.7777759999999887,"midi":75,"time":81.777696,"velocity":0.3228346456692913},{"duration":1.777776000000003,"midi":67,"time":83.555472,"velocity":0.3228346456692913},{"duration":1.777776000000003,"midi":58,"time":83.555472,"velocity":0.3228346456692913},{"duration":1.777776000000003,"midi":73,"time":83.555472,"velocity":0.3228346456692913},{"duration":1.777776000000003,"midi":63,"time":83.555472,"velocity":0.3228346456692913},{"duration":0.22222200000000214,"midi":81,"time":86.888802,"velocity":0.3228346456692913},{"duration":0.22222200000000214,"midi":77,"time":88.666578,"velocity":0.3228346456692913},{"duration":0.22222200000000214,"midi":81,"time":90.444354,"velocity":0.3228346456692913},{"duration":0.22222200000000214,"midi":81,"time":91.777686,"velocity":0.3228346456692913},{"duration":0.22222199999998793,"midi":81,"time":92.22213,"velocity":0.3228346456692913},{"duration":0.22222200000000214,"midi":81,"time":93.999906,"velocity":0.3228346456692913},{"duration":0.22222200000000214,"midi":77,"time":95.777682,"velocity":0.3228346456692913},{"duration":0.22222200000000214,"midi":81,"time":97.555458,"velocity":0.3228346456692913},{"duration":0.22222200000000214,"midi":81,"time":98.88879,"velocity":0.3228346456692913},{"duration":0.22222200000000214,"midi":81,"time":99.333234,"velocity":0.3228346456692913},{"duration":1.777776000000003,"midi":58,"time":113.777664,"velocity":0.3228346456692913},{"duration":1.777776000000003,"midi":53,"time":113.777664,"velocity":0.3228346456692913},{"duration":1.777776000000003,"midi":52,"time":115.55544,"velocity":0.3228346456692913},{"duration":1.777776000000003,"midi":58,"time":115.55544,"velocity":0.3228346456692913},{"duration":1.7777759999999887,"midi":53,"time":117.33321600000001,"velocity":0.3228346456692913},{"duration":1.7777759999999887,"midi":58,"time":117.33321600000001,"velocity":0.3228346456692913},{"duration":1.777776000000003,"midi":58,"time":119.110992,"velocity":0.3228346456692913},{"duration":1.777776000000003,"midi":52,"time":119.110992,"velocity":0.3228346456692913},{"duration":1.777776000000003,"midi":53,"time":120.888768,"velocity":0.3228346456692913},{"duration":1.777776000000003,"midi":58,"time":120.888768,"velocity":0.3228346456692913},{"duration":1.777776000000003,"midi":58,"time":122.666544,"velocity":0.3228346456692913},{"duration":1.777776000000003,"midi":52,"time":122.666544,"velocity":0.3228346456692913},{"duration":1.777776000000003,"midi":58,"time":124.44432,"velocity":0.3228346456692913},{"duration":1.777776000000003,"midi":53,"time":124.44432,"velocity":0.3228346456692913},{"duration":1.7777759999999887,"midi":52,"time":126.22209600000001,"velocity":0.3228346456692913},{"duration":1.7777759999999887,"midi":58,"time":126.22209600000001,"velocity":0.3228346456692913}]},{"instrument":{"family":"synth lead","number":80,"name":"lead 1 (square)"},"notes":[{"duration":0.1111109999999993,"midi":52,"time":14.44443,"velocity":0.4330708661417323},{"duration":0.1111109999999993,"midi":40,"time":14.44443,"velocity":0.4330708661417323},{"duration":0.055555500000000535,"midi":52,"time":14.777763,"velocity":0.4330708661417323},{"duration":0.055555500000000535,"midi":40,"time":14.777763,"velocity":0.4330708661417323},{"duration":0.11111100000000107,"midi":40,"time":15.111096,"velocity":0.4330708661417323},{"duration":0.11111100000000107,"midi":52,"time":15.111096,"velocity":0.4330708661417323},{"duration":0.33333299999999966,"midi":53,"time":15.55554,"velocity":0.4330708661417323},{"duration":0.11111100000000107,"midi":52,"time":16.222206,"velocity":0.4330708661417323},{"duration":0.11111100000000107,"midi":40,"time":16.222206,"velocity":0.4330708661417323},{"duration":0.055555500000000535,"midi":52,"time":16.555539,"velocity":0.4330708661417323},{"duration":0.055555500000000535,"midi":40,"time":16.555539,"velocity":0.4330708661417323},{"duration":0.11111100000000107,"midi":52,"time":16.888872,"velocity":0.4330708661417323},{"duration":0.11111100000000107,"midi":40,"time":16.888872,"velocity":0.4330708661417323},{"duration":0.33333299999999966,"midi":48,"time":17.333316,"velocity":0.4330708661417323},{"duration":0.11111100000000107,"midi":52,"time":17.999982,"velocity":0.4330708661417323},{"duration":0.11111100000000107,"midi":40,"time":17.999982,"velocity":0.4330708661417323},{"duration":0.11111100000000107,"midi":46,"time":18.111093,"velocity":0.4330708661417323},{"duration":0.11111100000000107,"midi":34,"time":18.111093,"velocity":0.4330708661417323},{"duration":0.055555500000000535,"midi":40,"time":18.333315,"velocity":0.4330708661417323},{"duration":0.055555500000000535,"midi":52,"time":18.333315,"velocity":0.4330708661417323},{"duration":0.11111100000000107,"midi":40,"time":18.666648,"velocity":0.4330708661417323},{"duration":0.11111100000000107,"midi":52,"time":18.666648,"velocity":0.4330708661417323},{"duration":0.33333299999999966,"midi":53,"time":19.111092,"velocity":0.4330708661417323},{"duration":0.11111100000000107,"midi":40,"time":19.777758,"velocity":0.4330708661417323},{"duration":0.11111100000000107,"midi":52,"time":19.777758,"velocity":0.4330708661417323},{"duration":0.05555549999999698,"midi":40,"time":20.111091000000002,"velocity":0.4330708661417323},{"duration":0.05555549999999698,"midi":52,"time":20.111091000000002,"velocity":0.4330708661417323},{"duration":0.055555500000000535,"midi":57,"time":20.444424,"velocity":0.4330708661417323},{"duration":0.055555500000000535,"midi":57,"time":20.555535,"velocity":0.4330708661417323},{"duration":0.055555500000000535,"midi":57,"time":20.666646,"velocity":0.4330708661417323},{"duration":0.055555500000000535,"midi":57,"time":20.777757,"velocity":0.4330708661417323},{"duration":0.055555500000000535,"midi":53,"time":20.888868,"velocity":0.4330708661417323},{"duration":0.055555500000000535,"midi":53,"time":20.999979,"velocity":0.4330708661417323},{"duration":0.055555500000000535,"midi":53,"time":21.11109,"velocity":0.4330708661417323},{"duration":0.05555549999999698,"midi":53,"time":21.222201000000002,"velocity":0.4330708661417323},{"duration":0.11111099999999752,"midi":40,"time":21.555534,"velocity":0.4330708661417323},{"duration":0.11111099999999752,"midi":52,"time":21.555534,"velocity":0.4330708661417323},{"duration":0.055555500000000535,"midi":40,"time":21.888867,"velocity":0.4330708661417323},{"duration":0.055555500000000535,"midi":52,"time":21.888867,"velocity":0.4330708661417323},{"duration":0.11111100000000107,"midi":40,"time":22.2222,"velocity":0.4330708661417323},{"duration":0.11111100000000107,"midi":52,"time":22.2222,"velocity":0.4330708661417323},{"duration":0.33333299999999966,"midi":53,"time":22.666644,"velocity":0.4330708661417323},{"duration":0.11111100000000107,"midi":40,"time":23.33331,"velocity":0.4330708661417323},{"duration":0.11111100000000107,"midi":52,"time":23.33331,"velocity":0.4330708661417323},{"duration":0.055555500000000535,"midi":40,"time":23.666643,"velocity":0.4330708661417323},{"duration":0.055555500000000535,"midi":52,"time":23.666643,"velocity":0.4330708661417323},{"duration":0.11111100000000107,"midi":40,"time":23.999976,"velocity":0.4330708661417323},{"duration":0.11111100000000107,"midi":52,"time":23.999976,"velocity":0.4330708661417323},{"duration":0.33333299999999966,"midi":48,"time":24.44442,"velocity":0.4330708661417323},{"duration":0.11111100000000107,"midi":52,"time":25.111086,"velocity":0.4330708661417323},{"duration":0.11111100000000107,"midi":40,"time":25.111086,"velocity":0.4330708661417323},{"duration":0.11111099999999752,"midi":34,"time":25.222197,"velocity":0.4330708661417323},{"duration":0.11111099999999752,"midi":46,"time":25.222197,"velocity":0.4330708661417323},{"duration":0.055555500000000535,"midi":52,"time":25.444419,"velocity":0.4330708661417323},{"duration":0.055555500000000535,"midi":40,"time":25.444419,"velocity":0.4330708661417323},{"duration":0.11111100000000107,"midi":52,"time":25.777752,"velocity":0.4330708661417323},{"duration":0.11111100000000107,"midi":40,"time":25.777752,"velocity":0.4330708661417323},{"duration":0.33333299999999966,"midi":53,"time":26.222196,"velocity":0.4330708661417323},{"duration":0.11111100000000107,"midi":40,"time":26.888862,"velocity":0.4330708661417323},{"duration":0.11111100000000107,"midi":52,"time":26.888862,"velocity":0.4330708661417323},{"duration":0.055555500000000535,"midi":52,"time":27.222195,"velocity":0.4330708661417323},{"duration":0.055555500000000535,"midi":40,"time":27.222195,"velocity":0.4330708661417323},{"duration":0.055555500000000535,"midi":57,"time":27.555528,"velocity":0.4330708661417323},{"duration":0.055555500000000535,"midi":57,"time":27.666639,"velocity":0.4330708661417323},{"duration":0.055555500000000535,"midi":57,"time":27.77775,"velocity":0.4330708661417323},{"duration":0.05555549999999698,"midi":57,"time":27.888861000000002,"velocity":0.4330708661417323},{"duration":0.055555500000000535,"midi":53,"time":27.999972,"velocity":0.4330708661417323},{"duration":0.055555500000000535,"midi":53,"time":28.111083,"velocity":0.4330708661417323},{"duration":0.05555549999999698,"midi":53,"time":28.222194000000002,"velocity":0.4330708661417323},{"duration":0.055555500000000535,"midi":53,"time":28.333305,"velocity":0.4330708661417323},{"duration":1.8888869999999969,"midi":49,"time":56.888832,"velocity":0.4330708661417323},{"duration":0.22222200000000214,"midi":49,"time":58.88883,"velocity":0.4330708661417323},{"duration":0.22222200000000214,"midi":48,"time":59.111052,"velocity":0.4330708661417323},{"duration":0.22222199999999503,"midi":49,"time":59.333274,"velocity":0.4330708661417323},{"duration":0.4444440000000043,"midi":56,"time":59.555496,"velocity":0.4330708661417323},{"duration":0.22222199999999503,"midi":48,"time":59.99994,"velocity":0.4330708661417323},{"duration":2.111109000000006,"midi":49,"time":60.222162,"velocity":0.4330708661417323},{"duration":0.22222200000000214,"midi":49,"time":62.444382,"velocity":0.4330708661417323},{"duration":0.22222200000000214,"midi":48,"time":62.666604,"velocity":0.4330708661417323},{"duration":0.22222200000000214,"midi":46,"time":62.888826,"velocity":0.4330708661417323},{"duration":0.4444439999999972,"midi":44,"time":63.111048000000004,"velocity":0.4330708661417323},{"duration":0.4444439999999972,"midi":48,"time":63.555492,"velocity":0.4330708661417323},{"duration":0.22222200000000925,"midi":49,"time":63.999936,"velocity":0.4330708661417323},{"duration":0.22222199999998793,"midi":48,"time":64.22215800000001,"velocity":0.4330708661417323},{"duration":0.22222200000000214,"midi":49,"time":64.44438,"velocity":0.4330708661417323},{"duration":0.5555549999999982,"midi":56,"time":64.666602,"velocity":0.4330708661417323},{"duration":0.22222200000000214,"midi":56,"time":65.333268,"velocity":0.4330708661417323},{"duration":0.22222199999998793,"midi":58,"time":65.55549,"velocity":0.4330708661417323},{"duration":0.4444440000000043,"midi":56,"time":65.777712,"velocity":0.4330708661417323},{"duration":0.4444440000000043,"midi":54,"time":66.222156,"velocity":0.4330708661417323},{"duration":0.3333329999999961,"midi":53,"time":66.6666,"velocity":0.4330708661417323},{"duration":0.3333329999999961,"midi":49,"time":66.999933,"velocity":0.4330708661417323},{"duration":1.5555540000000008,"midi":51,"time":67.333266,"velocity":0.4330708661417323},{"duration":0.4444440000000043,"midi":53,"time":68.88882,"velocity":0.4330708661417323},{"duration":0.8888879999999943,"midi":51,"time":69.333264,"velocity":0.4330708661417323},{"duration":0.7777770000000004,"midi":49,"time":70.222152,"velocity":0.4330708661417323},{"duration":1.8888869999999969,"midi":49,"time":71.11104,"velocity":0.4330708661417323},{"duration":0.22222199999998793,"midi":49,"time":73.11103800000001,"velocity":0.4330708661417323},{"duration":0.22222200000000214,"midi":48,"time":73.33326,"velocity":0.4330708661417323},{"duration":0.22222200000000214,"midi":49,"time":73.555482,"velocity":0.4330708661417323},{"duration":0.4444440000000043,"midi":56,"time":73.777704,"velocity":0.4330708661417323},{"duration":0.22222200000000214,"midi":48,"time":74.222148,"velocity":0.4330708661417323},{"duration":2.111108999999999,"midi":49,"time":74.44437,"velocity":0.4330708661417323},{"duration":0.22222200000000214,"midi":49,"time":76.66659,"velocity":0.4330708661417323},{"duration":0.22222200000000214,"midi":48,"time":76.888812,"velocity":0.4330708661417323},{"duration":0.22222200000000214,"midi":46,"time":77.111034,"velocity":0.4330708661417323},{"duration":0.44444399999999007,"midi":44,"time":77.333256,"velocity":0.4330708661417323},{"duration":0.4444440000000043,"midi":48,"time":77.7777,"velocity":0.4330708661417323},{"duration":0.22222200000000214,"midi":49,"time":78.222144,"velocity":0.4330708661417323},{"duration":0.22222200000000214,"midi":48,"time":78.444366,"velocity":0.4330708661417323},{"duration":0.22222200000000214,"midi":49,"time":78.666588,"velocity":0.4330708661417323},{"duration":0.5555549999999982,"midi":56,"time":78.88881,"velocity":0.4330708661417323},{"duration":0.22222200000000214,"midi":56,"time":79.555476,"velocity":0.4330708661417323},{"duration":0.22222200000000214,"midi":58,"time":79.777698,"velocity":0.4330708661417323},{"duration":0.4444440000000043,"midi":56,"time":79.99992,"velocity":0.4330708661417323},{"duration":0.44444399999999007,"midi":54,"time":80.44436400000001,"velocity":0.4330708661417323},{"duration":0.3333330000000103,"midi":53,"time":80.888808,"velocity":0.4330708661417323},{"duration":0.3333329999999961,"midi":49,"time":81.22214100000001,"velocity":0.4330708661417323},{"duration":1.5555540000000008,"midi":51,"time":81.555474,"velocity":0.4330708661417323},{"duration":0.44444399999999007,"midi":53,"time":83.111028,"velocity":0.4330708661417323},{"duration":0.8888880000000086,"midi":51,"time":83.555472,"velocity":0.4330708661417323},{"duration":0.7777770000000004,"midi":49,"time":84.44436,"velocity":0.4330708661417323},{"duration":0.11111100000000818,"midi":40,"time":85.55547,"velocity":0.4330708661417323},{"duration":0.11111100000000818,"midi":52,"time":85.55547,"velocity":0.4330708661417323},{"duration":0.05555550000001119,"midi":40,"time":85.888803,"velocity":0.4330708661417323},{"duration":0.05555550000001119,"midi":52,"time":85.888803,"velocity":0.4330708661417323},{"duration":0.11111099999999396,"midi":40,"time":86.222136,"velocity":0.4330708661417323},{"duration":0.11111099999999396,"midi":52,"time":86.222136,"velocity":0.4330708661417323},{"duration":0.3333330000000103,"midi":53,"time":86.66658,"velocity":0.4330708661417323},{"duration":0.11111099999999396,"midi":40,"time":87.333246,"velocity":0.4330708661417323},{"duration":0.11111099999999396,"midi":52,"time":87.333246,"velocity":0.4330708661417323},{"duration":0.05555549999999698,"midi":52,"time":87.666579,"velocity":0.4330708661417323},{"duration":0.05555549999999698,"midi":40,"time":87.666579,"velocity":0.4330708661417323},{"duration":0.11111100000000818,"midi":40,"time":87.999912,"velocity":0.4330708661417323},{"duration":0.11111100000000818,"midi":52,"time":87.999912,"velocity":0.4330708661417323},{"duration":0.3333329999999961,"midi":48,"time":88.444356,"velocity":0.4330708661417323},{"duration":0.11111099999999396,"midi":52,"time":89.111022,"velocity":0.4330708661417323},{"duration":0.11111099999999396,"midi":40,"time":89.111022,"velocity":0.4330708661417323},{"duration":0.11111100000000818,"midi":34,"time":89.222133,"velocity":0.4330708661417323},{"duration":0.11111100000000818,"midi":46,"time":89.222133,"velocity":0.4330708661417323},{"duration":0.05555549999999698,"midi":52,"time":89.444355,"velocity":0.4330708661417323},{"duration":0.05555549999999698,"midi":40,"time":89.444355,"velocity":0.4330708661417323},{"duration":0.11111100000000818,"midi":52,"time":89.777688,"velocity":0.4330708661417323},{"duration":0.11111100000000818,"midi":40,"time":89.777688,"velocity":0.4330708661417323},{"duration":0.3333329999999961,"midi":53,"time":90.222132,"velocity":0.4330708661417323},{"duration":0.22222199999998793,"midi":54,"time":90.666576,"velocity":0.4330708661417323},{"duration":0.22222199999998793,"midi":42,"time":90.666576,"velocity":0.4330708661417323},{"duration":0.05555550000001119,"midi":56,"time":90.888798,"velocity":0.4330708661417323},{"duration":0.05555550000001119,"midi":44,"time":90.888798,"velocity":0.4330708661417323},{"duration":0.22222200000000214,"midi":39,"time":90.999909,"velocity":0.4330708661417323},{"duration":0.22222200000000214,"midi":51,"time":90.999909,"velocity":0.4330708661417323},{"duration":0.05555549999999698,"midi":56,"time":91.222131,"velocity":0.4330708661417323},{"duration":0.05555549999999698,"midi":44,"time":91.222131,"velocity":0.4330708661417323},{"duration":0.22222200000000214,"midi":46,"time":91.333242,"velocity":0.4330708661417323},{"duration":0.22222200000000214,"midi":34,"time":91.333242,"velocity":0.4330708661417323},{"duration":0.22222200000000214,"midi":41,"time":91.555464,"velocity":0.4330708661417323},{"duration":0.22222200000000214,"midi":53,"time":91.555464,"velocity":0.4330708661417323},{"duration":0.05555549999999698,"midi":56,"time":91.777686,"velocity":0.4330708661417323},{"duration":0.05555549999999698,"midi":44,"time":91.777686,"velocity":0.4330708661417323},{"duration":0.11111100000000818,"midi":37,"time":91.888797,"velocity":0.4330708661417323},{"duration":0.11111100000000818,"midi":49,"time":91.888797,"velocity":0.4330708661417323},{"duration":0.11111100000000818,"midi":52,"time":92.666574,"velocity":0.4330708661417323},{"duration":0.11111100000000818,"midi":40,"time":92.666574,"velocity":0.4330708661417323},{"duration":0.05555549999999698,"midi":52,"time":92.99990700000001,"velocity":0.4330708661417323},{"duration":0.05555549999999698,"midi":40,"time":92.99990700000001,"velocity":0.4330708661417323},{"duration":0.11111099999999396,"midi":52,"time":93.33324,"velocity":0.4330708661417323},{"duration":0.11111099999999396,"midi":40,"time":93.33324,"velocity":0.4330708661417323},{"duration":0.22222199999998793,"midi":53,"time":93.77768400000001,"velocity":0.4330708661417323},{"duration":0.11111100000000818,"midi":54,"time":93.999906,"velocity":0.4330708661417323},{"duration":0.11111100000000818,"midi":42,"time":93.999906,"velocity":0.4330708661417323},{"duration":0.16666650000000516,"midi":43,"time":94.222128,"velocity":0.4330708661417323},{"duration":0.16666650000000516,"midi":55,"time":94.222128,"velocity":0.4330708661417323},{"duration":0.05555549999999698,"midi":57,"time":94.44435,"velocity":0.4330708661417323},{"duration":0.05555549999999698,"midi":45,"time":94.44435,"velocity":0.4330708661417323},{"duration":0.16666650000000516,"midi":42,"time":94.666572,"velocity":0.4330708661417323},{"duration":0.16666650000000516,"midi":54,"time":94.666572,"velocity":0.4330708661417323},{"duration":0.05555549999999698,"midi":56,"time":94.888794,"velocity":0.4330708661417323},{"duration":0.05555549999999698,"midi":44,"time":94.888794,"velocity":0.4330708661417323},{"duration":0.16666649999999095,"midi":53,"time":95.111016,"velocity":0.4330708661417323},{"duration":0.16666649999999095,"midi":41,"time":95.111016,"velocity":0.4330708661417323},{"duration":0.05555550000001119,"midi":43,"time":95.333238,"velocity":0.4330708661417323},{"duration":0.05555550000001119,"midi":55,"time":95.333238,"velocity":0.4330708661417323},{"duration":0.16666650000000516,"midi":49,"time":95.55546,"velocity":0.4330708661417323},{"duration":0.16666650000000516,"midi":37,"time":95.55546,"velocity":0.4330708661417323},{"duration":0.05555549999999698,"midi":41,"time":95.777682,"velocity":0.4330708661417323},{"duration":0.05555549999999698,"midi":53,"time":95.777682,"velocity":0.4330708661417323},{"duration":0.16666650000000516,"midi":41,"time":95.999904,"velocity":0.4330708661417323},{"duration":0.16666650000000516,"midi":53,"time":95.999904,"velocity":0.4330708661417323},{"duration":0.05555549999999698,"midi":49,"time":96.222126,"velocity":0.4330708661417323},{"duration":0.05555549999999698,"midi":37,"time":96.222126,"velocity":0.4330708661417323},{"duration":0.11111099999999396,"midi":49,"time":96.444348,"velocity":0.4330708661417323},{"duration":0.11111099999999396,"midi":61,"time":96.444348,"velocity":0.4330708661417323},{"duration":0.05555549999999698,"midi":60,"time":96.555459,"velocity":0.4330708661417323},{"duration":0.05555549999999698,"midi":48,"time":96.555459,"velocity":0.4330708661417323},{"duration":0.16666650000000516,"midi":42,"time":96.777681,"velocity":0.4330708661417323},{"duration":0.16666650000000516,"midi":54,"time":96.777681,"velocity":0.4330708661417323},{"duration":0.11111099999999396,"midi":32,"time":96.999903,"velocity":0.4330708661417323},{"duration":0.11111099999999396,"midi":44,"time":96.999903,"velocity":0.4330708661417323},{"duration":0.05555549999999698,"midi":34,"time":97.111014,"velocity":0.4330708661417323},{"duration":0.05555549999999698,"midi":46,"time":97.111014,"velocity":0.4330708661417323},{"duration":0.11111099999999396,"midi":59,"time":97.222125,"velocity":0.4330708661417323},{"duration":0.11111099999999396,"midi":47,"time":97.222125,"velocity":0.4330708661417323},{"duration":0.11111100000000818,"midi":52,"time":97.333236,"velocity":0.4330708661417323},{"duration":0.11111100000000818,"midi":40,"time":97.333236,"velocity":0.4330708661417323},{"duration":0.11111099999999396,"midi":41,"time":97.555458,"velocity":0.4330708661417323},{"duration":0.11111099999999396,"midi":53,"time":97.555458,"velocity":0.4330708661417323},{"duration":0.22222200000000214,"midi":42,"time":97.77768,"velocity":0.4330708661417323},{"duration":0.22222200000000214,"midi":42,"time":97.77768,"velocity":0.4330708661417323},{"duration":0.22222200000000214,"midi":54,"time":97.77768,"velocity":0.4330708661417323},{"duration":0.22222200000000214,"midi":54,"time":97.77768,"velocity":0.4330708661417323},{"duration":0.05555549999999698,"midi":56,"time":97.999902,"velocity":0.4330708661417323},{"duration":0.05555549999999698,"midi":44,"time":97.999902,"velocity":0.4330708661417323},{"duration":0.05555549999999698,"midi":44,"time":97.999902,"velocity":0.4330708661417323},{"duration":0.05555549999999698,"midi":56,"time":97.999902,"velocity":0.4330708661417323},{"duration":0.22222200000000214,"midi":39,"time":98.111013,"velocity":0.4330708661417323},{"duration":0.22222200000000214,"midi":39,"time":98.111013,"velocity":0.4330708661417323},{"duration":0.22222200000000214,"midi":51,"time":98.111013,"velocity":0.4330708661417323},{"duration":0.22222200000000214,"midi":51,"time":98.111013,"velocity":0.4330708661417323},{"duration":0.05555549999999698,"midi":44,"time":98.333235,"velocity":0.4330708661417323},{"duration":0.05555549999999698,"midi":56,"time":98.333235,"velocity":0.4330708661417323},{"duration":0.05555549999999698,"midi":56,"time":98.333235,"velocity":0.4330708661417323},{"duration":0.05555549999999698,"midi":44,"time":98.333235,"velocity":0.4330708661417323},{"duration":0.22222200000000214,"midi":46,"time":98.444346,"velocity":0.4330708661417323},{"duration":0.22222200000000214,"midi":46,"time":98.444346,"velocity":0.4330708661417323},{"duration":0.22222200000000214,"midi":34,"time":98.444346,"velocity":0.4330708661417323},{"duration":0.22222200000000214,"midi":34,"time":98.444346,"velocity":0.4330708661417323},{"duration":0.22222200000000214,"midi":41,"time":98.666568,"velocity":0.4330708661417323},{"duration":0.22222200000000214,"midi":53,"time":98.666568,"velocity":0.4330708661417323},{"duration":0.05555549999999698,"midi":56,"time":98.88879,"velocity":0.4330708661417323},{"duration":0.05555549999999698,"midi":44,"time":98.88879,"velocity":0.4330708661417323},{"duration":0.11111099999999396,"midi":37,"time":98.99990100000001,"velocity":0.4330708661417323},{"duration":0.11111099999999396,"midi":49,"time":98.99990100000001,"velocity":0.4330708661417323},{"duration":0.3888884999999931,"midi":49,"time":99.555456,"velocity":0.4330708661417323},{"duration":0.3888884999999931,"midi":37,"time":99.555456,"velocity":0.4330708661417323},{"duration":0.3888885000000073,"midi":36,"time":99.9999,"velocity":0.4330708661417323},{"duration":0.3888885000000073,"midi":48,"time":99.9999,"velocity":0.4330708661417323},{"duration":0.11111099999999396,"midi":46,"time":100.444344,"velocity":0.4330708661417323},{"duration":0.11111099999999396,"midi":46,"time":100.444344,"velocity":0.4330708661417323},{"duration":0.11111099999999396,"midi":34,"time":100.444344,"velocity":0.4330708661417323},{"duration":0.11111099999999396,"midi":34,"time":100.444344,"velocity":0.4330708661417323},{"duration":0.11111100000000818,"midi":48,"time":100.555455,"velocity":0.4330708661417323},{"duration":0.11111100000000818,"midi":48,"time":100.555455,"velocity":0.4330708661417323},{"duration":0.11111100000000818,"midi":36,"time":100.555455,"velocity":0.4330708661417323},{"duration":0.11111100000000818,"midi":36,"time":100.555455,"velocity":0.4330708661417323},{"duration":0.11111100000000818,"midi":41,"time":100.777677,"velocity":0.4330708661417323},{"duration":0.11111100000000818,"midi":29,"time":100.777677,"velocity":0.4330708661417323},{"duration":0.11111100000000818,"midi":41,"time":100.999899,"velocity":0.4330708661417323},{"duration":0.11111100000000818,"midi":29,"time":100.999899,"velocity":0.4330708661417323},{"duration":0.11111099999999396,"midi":42,"time":101.11101000000001,"velocity":0.4330708661417323},{"duration":0.11111099999999396,"midi":30,"time":101.11101000000001,"velocity":0.4330708661417323},{"duration":0.11111099999999396,"midi":43,"time":101.222121,"velocity":0.4330708661417323},{"duration":0.11111099999999396,"midi":31,"time":101.222121,"velocity":0.4330708661417323},{"duration":0.3888885000000073,"midi":49,"time":101.333232,"velocity":0.4330708661417323},{"duration":0.3888885000000073,"midi":37,"time":101.333232,"velocity":0.4330708661417323},{"duration":0.3888885000000073,"midi":36,"time":101.777676,"velocity":0.4330708661417323},{"duration":0.3888885000000073,"midi":48,"time":101.777676,"velocity":0.4330708661417323},{"duration":0.11111099999999396,"midi":46,"time":102.22212,"velocity":0.4330708661417323},{"duration":0.11111099999999396,"midi":34,"time":102.22212,"velocity":0.4330708661417323},{"duration":0.11111100000000818,"midi":48,"time":102.333231,"velocity":0.4330708661417323},{"duration":0.11111100000000818,"midi":36,"time":102.333231,"velocity":0.4330708661417323},{"duration":0.16666650000000516,"midi":40,"time":102.555453,"velocity":0.4330708661417323},{"duration":0.16666650000000516,"midi":52,"time":102.555453,"velocity":0.4330708661417323},{"duration":0.02777774999999849,"midi":52,"time":102.777675,"velocity":0.4330708661417323},{"duration":0.02777774999999849,"midi":40,"time":102.777675,"velocity":0.4330708661417323},{"duration":0.05555550000001119,"midi":52,"time":102.888786,"velocity":0.4330708661417323},{"duration":0.05555550000001119,"midi":40,"time":102.888786,"velocity":0.4330708661417323},{"duration":0.02777774999999849,"midi":52,"time":102.999897,"velocity":0.4330708661417323},{"duration":0.02777774999999849,"midi":40,"time":102.999897,"velocity":0.4330708661417323},{"duration":0.3888885000000073,"midi":49,"time":103.111008,"velocity":0.4330708661417323},{"duration":0.3888885000000073,"midi":37,"time":103.111008,"velocity":0.4330708661417323},{"duration":0.3888884999999931,"midi":36,"time":103.555452,"velocity":0.4330708661417323},{"duration":0.3888884999999931,"midi":48,"time":103.555452,"velocity":0.4330708661417323},{"duration":0.11111099999999396,"midi":34,"time":103.999896,"velocity":0.4330708661417323},{"duration":0.11111099999999396,"midi":46,"time":103.999896,"velocity":0.4330708661417323},{"duration":0.11111099999999396,"midi":34,"time":103.999896,"velocity":0.4330708661417323},{"duration":0.11111099999999396,"midi":46,"time":103.999896,"velocity":0.4330708661417323},{"duration":0.11111099999999396,"midi":36,"time":104.111007,"velocity":0.4330708661417323},{"duration":0.11111099999999396,"midi":48,"time":104.111007,"velocity":0.4330708661417323},{"duration":0.11111099999999396,"midi":48,"time":104.111007,"velocity":0.4330708661417323},{"duration":0.11111099999999396,"midi":36,"time":104.111007,"velocity":0.4330708661417323},{"duration":0.11111099999999396,"midi":41,"time":104.333229,"velocity":0.4330708661417323},{"duration":0.11111099999999396,"midi":29,"time":104.333229,"velocity":0.4330708661417323},{"duration":0.11111099999999396,"midi":29,"time":104.555451,"velocity":0.4330708661417323},{"duration":0.11111099999999396,"midi":41,"time":104.555451,"velocity":0.4330708661417323},{"duration":0.11111100000000818,"midi":42,"time":104.666562,"velocity":0.4330708661417323},{"duration":0.11111100000000818,"midi":30,"time":104.666562,"velocity":0.4330708661417323},{"duration":0.11111099999999396,"midi":43,"time":104.77767300000001,"velocity":0.4330708661417323},{"duration":0.11111099999999396,"midi":31,"time":104.77767300000001,"velocity":0.4330708661417323},{"duration":0.11111099999999396,"midi":49,"time":104.888784,"velocity":0.4330708661417323},{"duration":0.11111099999999396,"midi":37,"time":104.888784,"velocity":0.4330708661417323},{"duration":0.11111099999999396,"midi":53,"time":105.111006,"velocity":0.4330708661417323},{"duration":0.11111099999999396,"midi":41,"time":105.111006,"velocity":0.4330708661417323},{"duration":0.11111099999999396,"midi":36,"time":105.333228,"velocity":0.4330708661417323},{"duration":0.11111099999999396,"midi":48,"time":105.333228,"velocity":0.4330708661417323},{"duration":0.11111099999999396,"midi":52,"time":105.55545000000001,"velocity":0.4330708661417323},{"duration":0.11111099999999396,"midi":40,"time":105.55545000000001,"velocity":0.4330708661417323},{"duration":0.11111100000000818,"midi":35,"time":105.777672,"velocity":0.4330708661417323},{"duration":0.11111100000000818,"midi":47,"time":105.777672,"velocity":0.4330708661417323},{"duration":0.11111100000000818,"midi":39,"time":105.999894,"velocity":0.4330708661417323},{"duration":0.11111100000000818,"midi":51,"time":105.999894,"velocity":0.4330708661417323},{"duration":0.11111100000000818,"midi":34,"time":106.222116,"velocity":0.4330708661417323},{"duration":0.11111100000000818,"midi":46,"time":106.222116,"velocity":0.4330708661417323},{"duration":0.11111099999999396,"midi":50,"time":106.444338,"velocity":0.4330708661417323},{"duration":0.11111099999999396,"midi":38,"time":106.444338,"velocity":0.4330708661417323},{"duration":0.3888884999999931,"midi":37,"time":106.66656,"velocity":0.4330708661417323},{"duration":0.3888884999999931,"midi":49,"time":106.66656,"velocity":0.4330708661417323},{"duration":0.3888884999999931,"midi":36,"time":107.11100400000001,"velocity":0.4330708661417323},{"duration":0.3888884999999931,"midi":48,"time":107.11100400000001,"velocity":0.4330708661417323},{"duration":0.11111100000000818,"midi":34,"time":107.555448,"velocity":0.4330708661417323},{"duration":0.11111100000000818,"midi":34,"time":107.555448,"velocity":0.4330708661417323},{"duration":0.11111100000000818,"midi":46,"time":107.555448,"velocity":0.4330708661417323},{"duration":0.11111100000000818,"midi":46,"time":107.555448,"velocity":0.4330708661417323},{"duration":0.11111099999999396,"midi":36,"time":107.666559,"velocity":0.4330708661417323},{"duration":0.11111099999999396,"midi":48,"time":107.666559,"velocity":0.4330708661417323},{"duration":0.11111099999999396,"midi":36,"time":107.666559,"velocity":0.4330708661417323},{"duration":0.11111099999999396,"midi":48,"time":107.666559,"velocity":0.4330708661417323},{"duration":0.11111100000000818,"midi":29,"time":107.888781,"velocity":0.4330708661417323},{"duration":0.11111100000000818,"midi":41,"time":107.888781,"velocity":0.4330708661417323},{"duration":0.11111100000000818,"midi":41,"time":108.111003,"velocity":0.4330708661417323},{"duration":0.11111100000000818,"midi":29,"time":108.111003,"velocity":0.4330708661417323},{"duration":0.11111099999999396,"midi":42,"time":108.222114,"velocity":0.4330708661417323},{"duration":0.11111099999999396,"midi":30,"time":108.222114,"velocity":0.4330708661417323},{"duration":0.11111100000000818,"midi":31,"time":108.333225,"velocity":0.4330708661417323},{"duration":0.11111100000000818,"midi":43,"time":108.333225,"velocity":0.4330708661417323},{"duration":0.3888884999999931,"midi":37,"time":108.444336,"velocity":0.4330708661417323},{"duration":0.3888884999999931,"midi":49,"time":108.444336,"velocity":0.4330708661417323},{"duration":0.3888885000000073,"midi":36,"time":108.88878,"velocity":0.4330708661417323},{"duration":0.3888885000000073,"midi":48,"time":108.88878,"velocity":0.4330708661417323},{"duration":0.11111099999999396,"midi":46,"time":109.333224,"velocity":0.4330708661417323},{"duration":0.11111099999999396,"midi":34,"time":109.333224,"velocity":0.4330708661417323},{"duration":0.11111100000000818,"midi":36,"time":109.444335,"velocity":0.4330708661417323},{"duration":0.11111100000000818,"midi":48,"time":109.444335,"velocity":0.4330708661417323},{"duration":0.16666650000000516,"midi":52,"time":109.666557,"velocity":0.4330708661417323},{"duration":0.16666650000000516,"midi":40,"time":109.666557,"velocity":0.4330708661417323},{"duration":0.02777774999999849,"midi":52,"time":109.888779,"velocity":0.4330708661417323},{"duration":0.02777774999999849,"midi":40,"time":109.888779,"velocity":0.4330708661417323},{"duration":0.05555549999999698,"midi":40,"time":109.99989000000001,"velocity":0.4330708661417323},{"duration":0.05555549999999698,"midi":52,"time":109.99989000000001,"velocity":0.4330708661417323},{"duration":0.02777774999999849,"midi":40,"time":110.111001,"velocity":0.4330708661417323},{"duration":0.02777774999999849,"midi":52,"time":110.111001,"velocity":0.4330708661417323},{"duration":0.3888885000000073,"midi":37,"time":110.222112,"velocity":0.4330708661417323},{"duration":0.3888885000000073,"midi":49,"time":110.222112,"velocity":0.4330708661417323},{"duration":0.3888885000000073,"midi":36,"time":110.666556,"velocity":0.4330708661417323},{"duration":0.3888885000000073,"midi":48,"time":110.666556,"velocity":0.4330708661417323},{"duration":0.11111099999999396,"midi":34,"time":111.111,"velocity":0.4330708661417323},{"duration":0.11111099999999396,"midi":46,"time":111.111,"velocity":0.4330708661417323},{"duration":0.11111099999999396,"midi":34,"time":111.111,"velocity":0.4330708661417323},{"duration":0.11111099999999396,"midi":46,"time":111.111,"velocity":0.4330708661417323},{"duration":0.11111100000000818,"midi":48,"time":111.222111,"velocity":0.4330708661417323},{"duration":0.11111100000000818,"midi":36,"time":111.222111,"velocity":0.4330708661417323},{"duration":0.11111100000000818,"midi":36,"time":111.222111,"velocity":0.4330708661417323},{"duration":0.11111100000000818,"midi":48,"time":111.222111,"velocity":0.4330708661417323},{"duration":0.11111100000000818,"midi":29,"time":111.444333,"velocity":0.4330708661417323},{"duration":0.11111100000000818,"midi":41,"time":111.444333,"velocity":0.4330708661417323},{"duration":0.11111099999999396,"midi":29,"time":111.666555,"velocity":0.4330708661417323},{"duration":0.11111099999999396,"midi":41,"time":111.666555,"velocity":0.4330708661417323},{"duration":0.11111100000000818,"midi":42,"time":111.777666,"velocity":0.4330708661417323},{"duration":0.11111100000000818,"midi":30,"time":111.777666,"velocity":0.4330708661417323},{"duration":0.11111099999999396,"midi":43,"time":111.888777,"velocity":0.4330708661417323},{"duration":0.11111099999999396,"midi":31,"time":111.888777,"velocity":0.4330708661417323}]},{"instrument":{"family":"synth lead","number":81,"name":"lead 2 (sawtooth)"},"notes":[{"duration":1.777776,"midi":53,"time":0,"velocity":0.3543307086614173},{"duration":1.777776,"midi":46,"time":0,"velocity":0.3543307086614173},{"duration":1.777776,"midi":34,"time":0,"velocity":0.3543307086614173},{"duration":1.777776,"midi":41,"time":0,"velocity":0.3543307086614173},{"duration":1.777776,"midi":52,"time":1.777776,"velocity":0.3543307086614173},{"duration":1.777776,"midi":40,"time":1.777776,"velocity":0.3543307086614173},{"duration":1.777776,"midi":46,"time":1.777776,"velocity":0.3543307086614173},{"duration":1.777776,"midi":34,"time":1.777776,"velocity":0.3543307086614173},{"duration":1.7777759999999998,"midi":46,"time":3.555552,"velocity":0.3543307086614173},{"duration":1.7777759999999998,"midi":41,"time":3.555552,"velocity":0.3543307086614173},{"duration":1.7777759999999998,"midi":53,"time":3.555552,"velocity":0.3543307086614173},{"duration":1.7777759999999998,"midi":34,"time":3.555552,"velocity":0.3543307086614173},{"duration":1.7777760000000002,"midi":40,"time":5.333328,"velocity":0.3543307086614173},{"duration":1.7777760000000002,"midi":46,"time":5.333328,"velocity":0.3543307086614173},{"duration":1.7777760000000002,"midi":56,"time":5.333328,"velocity":0.3543307086614173},{"duration":1.7777760000000002,"midi":34,"time":5.333328,"velocity":0.3543307086614173},{"duration":1.7777760000000002,"midi":41,"time":7.111104,"velocity":0.3543307086614173},{"duration":1.7777760000000002,"midi":53,"time":7.111104,"velocity":0.3543307086614173},{"duration":1.7777760000000002,"midi":34,"time":7.111104,"velocity":0.3543307086614173},{"duration":1.7777760000000002,"midi":49,"time":7.111104,"velocity":0.3543307086614173},{"duration":1.7777760000000002,"midi":46,"time":7.111104,"velocity":0.3543307086614173},{"duration":1.7777759999999994,"midi":40,"time":8.88888,"velocity":0.3543307086614173},{"duration":1.7777759999999994,"midi":52,"time":8.88888,"velocity":0.3543307086614173},{"duration":1.7777759999999994,"midi":34,"time":8.88888,"velocity":0.3543307086614173},{"duration":1.7777759999999994,"midi":48,"time":8.88888,"velocity":0.3543307086614173},{"duration":1.7777759999999994,"midi":46,"time":8.88888,"velocity":0.3543307086614173},{"duration":1.7777760000000011,"midi":46,"time":10.666656,"velocity":0.3543307086614173},{"duration":1.7777760000000011,"midi":49,"time":10.666656,"velocity":0.3543307086614173},{"duration":1.7777760000000011,"midi":41,"time":10.666656,"velocity":0.3543307086614173},{"duration":1.7777760000000011,"midi":53,"time":10.666656,"velocity":0.3543307086614173},{"duration":1.7777760000000011,"midi":34,"time":10.666656,"velocity":0.3543307086614173},{"duration":1.7777759999999994,"midi":46,"time":12.444432,"velocity":0.3543307086614173},{"duration":1.7777759999999994,"midi":34,"time":12.444432,"velocity":0.3543307086614173},{"duration":1.7777759999999994,"midi":52,"time":12.444432,"velocity":0.3543307086614173},{"duration":1.7777759999999994,"midi":44,"time":12.444432,"velocity":0.3543307086614173},{"duration":1.7777759999999994,"midi":56,"time":12.444432,"velocity":0.3543307086614173},{"duration":1.7777759999999994,"midi":40,"time":12.444432,"velocity":0.3543307086614173},{"duration":0.16666649999999983,"midi":34,"time":14.222208,"velocity":0.3543307086614173},{"duration":0.16666649999999983,"midi":46,"time":14.222208,"velocity":0.3543307086614173},{"duration":0.1111109999999993,"midi":53,"time":14.44443,"velocity":0.3543307086614173},{"duration":0.1111109999999993,"midi":41,"time":14.44443,"velocity":0.3543307086614173},{"duration":0.16666649999999983,"midi":46,"time":14.555541,"velocity":0.3543307086614173},{"duration":0.16666649999999983,"midi":34,"time":14.555541,"velocity":0.3543307086614173},{"duration":0.055555500000000535,"midi":53,"time":14.777763,"velocity":0.3543307086614173},{"duration":0.055555500000000535,"midi":41,"time":14.777763,"velocity":0.3543307086614173},{"duration":0.11111100000000107,"midi":53,"time":15.111096,"velocity":0.3543307086614173},{"duration":0.11111100000000107,"midi":41,"time":15.111096,"velocity":0.3543307086614173},{"duration":0.1111109999999993,"midi":40,"time":15.222207000000001,"velocity":0.3543307086614173},{"duration":0.1111109999999993,"midi":52,"time":15.222207000000001,"velocity":0.3543307086614173},{"duration":0.1111109999999993,"midi":46,"time":15.333318,"velocity":0.3543307086614173},{"duration":0.1111109999999993,"midi":34,"time":15.333318,"velocity":0.3543307086614173},{"duration":0.11111100000000107,"midi":41,"time":15.444429,"velocity":0.3543307086614173},{"duration":0.11111100000000107,"midi":53,"time":15.444429,"velocity":0.3543307086614173},{"duration":0.33333299999999966,"midi":56,"time":15.55554,"velocity":0.3543307086614173},{"duration":0.33333299999999966,"midi":44,"time":15.55554,"velocity":0.3543307086614173},{"duration":0.16666649999999983,"midi":34,"time":15.999984,"velocity":0.3543307086614173},{"duration":0.16666649999999983,"midi":46,"time":15.999984,"velocity":0.3543307086614173},{"duration":0.11111100000000107,"midi":41,"time":16.222206,"velocity":0.3543307086614173},{"duration":0.11111100000000107,"midi":53,"time":16.222206,"velocity":0.3543307086614173},{"duration":0.16666649999999805,"midi":34,"time":16.333317,"velocity":0.3543307086614173},{"duration":0.16666649999999805,"midi":46,"time":16.333317,"velocity":0.3543307086614173},{"duration":0.055555500000000535,"midi":53,"time":16.555539,"velocity":0.3543307086614173},{"duration":0.055555500000000535,"midi":41,"time":16.555539,"velocity":0.3543307086614173},{"duration":0.11111100000000107,"midi":41,"time":16.888872,"velocity":0.3543307086614173},{"duration":0.11111100000000107,"midi":53,"time":16.888872,"velocity":0.3543307086614173},{"duration":0.11111100000000107,"midi":52,"time":16.999983,"velocity":0.3543307086614173},{"duration":0.11111100000000107,"midi":40,"time":16.999983,"velocity":0.3543307086614173},{"duration":0.11111099999999752,"midi":34,"time":17.111094,"velocity":0.3543307086614173},{"duration":0.11111099999999752,"midi":46,"time":17.111094,"velocity":0.3543307086614173},{"duration":0.11111100000000107,"midi":37,"time":17.222205,"velocity":0.3543307086614173},{"duration":0.11111100000000107,"midi":49,"time":17.222205,"velocity":0.3543307086614173},{"duration":0.33333299999999966,"midi":39,"time":17.333316,"velocity":0.3543307086614173},{"duration":0.33333299999999966,"midi":51,"time":17.333316,"velocity":0.3543307086614173},{"duration":0.16666649999999805,"midi":46,"time":17.77776,"velocity":0.3543307086614173},{"duration":0.16666649999999805,"midi":34,"time":17.77776,"velocity":0.3543307086614173},{"duration":0.11111100000000107,"midi":53,"time":17.999982,"velocity":0.3543307086614173},{"duration":0.11111100000000107,"midi":41,"time":17.999982,"velocity":0.3543307086614173},{"duration":0.055555500000000535,"midi":53,"time":18.333315,"velocity":0.3543307086614173},{"duration":0.055555500000000535,"midi":41,"time":18.333315,"velocity":0.3543307086614173},{"duration":0.11111100000000107,"midi":53,"time":18.666648,"velocity":0.3543307086614173},{"duration":0.11111100000000107,"midi":41,"time":18.666648,"velocity":0.3543307086614173},{"duration":0.11111100000000107,"midi":52,"time":18.777759,"velocity":0.3543307086614173},{"duration":0.11111100000000107,"midi":40,"time":18.777759,"velocity":0.3543307086614173},{"duration":0.11111100000000107,"midi":46,"time":18.88887,"velocity":0.3543307086614173},{"duration":0.11111100000000107,"midi":34,"time":18.88887,"velocity":0.3543307086614173},{"duration":0.11111099999999752,"midi":53,"time":18.999981000000002,"velocity":0.3543307086614173},{"duration":0.11111099999999752,"midi":41,"time":18.999981000000002,"velocity":0.3543307086614173},{"duration":0.33333299999999966,"midi":44,"time":19.111092,"velocity":0.3543307086614173},{"duration":0.33333299999999966,"midi":56,"time":19.111092,"velocity":0.3543307086614173},{"duration":0.1666665000000016,"midi":46,"time":19.555536,"velocity":0.3543307086614173},{"duration":0.1666665000000016,"midi":34,"time":19.555536,"velocity":0.3543307086614173},{"duration":0.11111100000000107,"midi":41,"time":19.777758,"velocity":0.3543307086614173},{"duration":0.11111100000000107,"midi":53,"time":19.777758,"velocity":0.3543307086614173},{"duration":0.1666665000000016,"midi":34,"time":19.888869,"velocity":0.3543307086614173},{"duration":0.1666665000000016,"midi":46,"time":19.888869,"velocity":0.3543307086614173},{"duration":0.05555549999999698,"midi":41,"time":20.111091000000002,"velocity":0.3543307086614173},{"duration":0.05555549999999698,"midi":53,"time":20.111091000000002,"velocity":0.3543307086614173},{"duration":0.055555500000000535,"midi":58,"time":20.444424,"velocity":0.3543307086614173},{"duration":0.055555500000000535,"midi":46,"time":20.444424,"velocity":0.3543307086614173},{"duration":0.055555500000000535,"midi":58,"time":20.555535,"velocity":0.3543307086614173},{"duration":0.055555500000000535,"midi":46,"time":20.555535,"velocity":0.3543307086614173},{"duration":0.055555500000000535,"midi":58,"time":20.666646,"velocity":0.3543307086614173},{"duration":0.055555500000000535,"midi":46,"time":20.666646,"velocity":0.3543307086614173},{"duration":0.055555500000000535,"midi":58,"time":20.777757,"velocity":0.3543307086614173},{"duration":0.055555500000000535,"midi":46,"time":20.777757,"velocity":0.3543307086614173},{"duration":0.055555500000000535,"midi":42,"time":20.888868,"velocity":0.3543307086614173},{"duration":0.055555500000000535,"midi":54,"time":20.888868,"velocity":0.3543307086614173},{"duration":0.055555500000000535,"midi":42,"time":20.999979,"velocity":0.3543307086614173},{"duration":0.055555500000000535,"midi":54,"time":20.999979,"velocity":0.3543307086614173},{"duration":0.055555500000000535,"midi":42,"time":21.11109,"velocity":0.3543307086614173},{"duration":0.055555500000000535,"midi":54,"time":21.11109,"velocity":0.3543307086614173},{"duration":0.05555549999999698,"midi":54,"time":21.222201000000002,"velocity":0.3543307086614173},{"duration":0.05555549999999698,"midi":42,"time":21.222201000000002,"velocity":0.3543307086614173},{"duration":0.1666665000000016,"midi":46,"time":21.333312,"velocity":0.3543307086614173},{"duration":0.1666665000000016,"midi":34,"time":21.333312,"velocity":0.3543307086614173},{"duration":0.11111099999999752,"midi":53,"time":21.555534,"velocity":0.3543307086614173},{"duration":0.11111099999999752,"midi":41,"time":21.555534,"velocity":0.3543307086614173},{"duration":0.1666665000000016,"midi":34,"time":21.666645,"velocity":0.3543307086614173},{"duration":0.1666665000000016,"midi":46,"time":21.666645,"velocity":0.3543307086614173},{"duration":0.055555500000000535,"midi":53,"time":21.888867,"velocity":0.3543307086614173},{"duration":0.055555500000000535,"midi":41,"time":21.888867,"velocity":0.3543307086614173},{"duration":0.11111100000000107,"midi":53,"time":22.2222,"velocity":0.3543307086614173},{"duration":0.11111100000000107,"midi":41,"time":22.2222,"velocity":0.3543307086614173},{"duration":0.11111099999999752,"midi":52,"time":22.333311000000002,"velocity":0.3543307086614173},{"duration":0.11111099999999752,"midi":40,"time":22.333311000000002,"velocity":0.3543307086614173},{"duration":0.11111100000000107,"midi":34,"time":22.444422,"velocity":0.3543307086614173},{"duration":0.11111100000000107,"midi":46,"time":22.444422,"velocity":0.3543307086614173},{"duration":0.11111100000000107,"midi":41,"time":22.555533,"velocity":0.3543307086614173},{"duration":0.11111100000000107,"midi":53,"time":22.555533,"velocity":0.3543307086614173},{"duration":0.33333299999999966,"midi":56,"time":22.666644,"velocity":0.3543307086614173},{"duration":0.33333299999999966,"midi":44,"time":22.666644,"velocity":0.3543307086614173},{"duration":0.1666665000000016,"midi":34,"time":23.111088,"velocity":0.3543307086614173},{"duration":0.1666665000000016,"midi":46,"time":23.111088,"velocity":0.3543307086614173},{"duration":0.11111100000000107,"midi":53,"time":23.33331,"velocity":0.3543307086614173},{"duration":0.11111100000000107,"midi":41,"time":23.33331,"velocity":0.3543307086614173},{"duration":0.16666649999999805,"midi":46,"time":23.444421000000002,"velocity":0.3543307086614173},{"duration":0.16666649999999805,"midi":34,"time":23.444421000000002,"velocity":0.3543307086614173},{"duration":0.055555500000000535,"midi":41,"time":23.666643,"velocity":0.3543307086614173},{"duration":0.055555500000000535,"midi":53,"time":23.666643,"velocity":0.3543307086614173},{"duration":0.11111100000000107,"midi":53,"time":23.999976,"velocity":0.3543307086614173},{"duration":0.11111100000000107,"midi":41,"time":23.999976,"velocity":0.3543307086614173},{"duration":0.11111099999999752,"midi":52,"time":24.111087,"velocity":0.3543307086614173},{"duration":0.11111099999999752,"midi":40,"time":24.111087,"velocity":0.3543307086614173},{"duration":0.11111100000000107,"midi":34,"time":24.222198,"velocity":0.3543307086614173},{"duration":0.11111100000000107,"midi":46,"time":24.222198,"velocity":0.3543307086614173},{"duration":0.11111100000000107,"midi":49,"time":24.333309,"velocity":0.3543307086614173},{"duration":0.11111100000000107,"midi":37,"time":24.333309,"velocity":0.3543307086614173},{"duration":0.33333299999999966,"midi":51,"time":24.44442,"velocity":0.3543307086614173},{"duration":0.33333299999999966,"midi":39,"time":24.44442,"velocity":0.3543307086614173},{"duration":0.16666649999999805,"midi":34,"time":24.888864,"velocity":0.3543307086614173},{"duration":0.16666649999999805,"midi":46,"time":24.888864,"velocity":0.3543307086614173},{"duration":0.11111100000000107,"midi":53,"time":25.111086,"velocity":0.3543307086614173},{"duration":0.11111100000000107,"midi":41,"time":25.111086,"velocity":0.3543307086614173},{"duration":0.055555500000000535,"midi":41,"time":25.444419,"velocity":0.3543307086614173},{"duration":0.055555500000000535,"midi":53,"time":25.444419,"velocity":0.3543307086614173},{"duration":0.11111100000000107,"midi":41,"time":25.777752,"velocity":0.3543307086614173},{"duration":0.11111100000000107,"midi":53,"time":25.777752,"velocity":0.3543307086614173},{"duration":0.11111100000000107,"midi":52,"time":25.888863,"velocity":0.3543307086614173},{"duration":0.11111100000000107,"midi":40,"time":25.888863,"velocity":0.3543307086614173},{"duration":0.11111099999999752,"midi":46,"time":25.999974,"velocity":0.3543307086614173},{"duration":0.11111099999999752,"midi":34,"time":25.999974,"velocity":0.3543307086614173},{"duration":0.11111100000000107,"midi":53,"time":26.111085,"velocity":0.3543307086614173},{"duration":0.11111100000000107,"midi":41,"time":26.111085,"velocity":0.3543307086614173},{"duration":0.33333299999999966,"midi":56,"time":26.222196,"velocity":0.3543307086614173},{"duration":0.33333299999999966,"midi":44,"time":26.222196,"velocity":0.3543307086614173},{"duration":0.16666649999999805,"midi":34,"time":26.66664,"velocity":0.3543307086614173},{"duration":0.16666649999999805,"midi":46,"time":26.66664,"velocity":0.3543307086614173},{"duration":0.11111100000000107,"midi":41,"time":26.888862,"velocity":0.3543307086614173},{"duration":0.11111100000000107,"midi":53,"time":26.888862,"velocity":0.3543307086614173},{"duration":0.16666649999999805,"midi":46,"time":26.999973,"velocity":0.3543307086614173},{"duration":0.16666649999999805,"midi":34,"time":26.999973,"velocity":0.3543307086614173},{"duration":0.055555500000000535,"midi":53,"time":27.222195,"velocity":0.3543307086614173},{"duration":0.055555500000000535,"midi":41,"time":27.222195,"velocity":0.3543307086614173},{"duration":0.055555500000000535,"midi":58,"time":27.555528,"velocity":0.3543307086614173},{"duration":0.055555500000000535,"midi":46,"time":27.555528,"velocity":0.3543307086614173},{"duration":0.055555500000000535,"midi":58,"time":27.666639,"velocity":0.3543307086614173},{"duration":0.055555500000000535,"midi":46,"time":27.666639,"velocity":0.3543307086614173},{"duration":0.055555500000000535,"midi":58,"time":27.77775,"velocity":0.3543307086614173},{"duration":0.055555500000000535,"midi":46,"time":27.77775,"velocity":0.3543307086614173},{"duration":0.05555549999999698,"midi":58,"time":27.888861000000002,"velocity":0.3543307086614173},{"duration":0.05555549999999698,"midi":46,"time":27.888861000000002,"velocity":0.3543307086614173},{"duration":0.055555500000000535,"midi":54,"time":27.999972,"velocity":0.3543307086614173},{"duration":0.055555500000000535,"midi":42,"time":27.999972,"velocity":0.3543307086614173},{"duration":0.055555500000000535,"midi":42,"time":28.111083,"velocity":0.3543307086614173},{"duration":0.055555500000000535,"midi":54,"time":28.111083,"velocity":0.3543307086614173},{"duration":0.05555549999999698,"midi":54,"time":28.222194000000002,"velocity":0.3543307086614173},{"duration":0.05555549999999698,"midi":42,"time":28.222194000000002,"velocity":0.3543307086614173},{"duration":0.055555500000000535,"midi":54,"time":28.333305,"velocity":0.3543307086614173},{"duration":0.055555500000000535,"midi":42,"time":28.333305,"velocity":0.3543307086614173},{"duration":1.7777759999999994,"midi":41,"time":28.444416,"velocity":0.3543307086614173},{"duration":1.7777759999999994,"midi":34,"time":28.444416,"velocity":0.3543307086614173},{"duration":1.7777759999999994,"midi":46,"time":28.444416,"velocity":0.3543307086614173},{"duration":1.7777759999999994,"midi":53,"time":28.444416,"velocity":0.3543307086614173},{"duration":1.7777759999999994,"midi":52,"time":30.222192,"velocity":0.3543307086614173},{"duration":1.7777759999999994,"midi":46,"time":30.222192,"velocity":0.3543307086614173},{"duration":1.7777759999999994,"midi":40,"time":30.222192,"velocity":0.3543307086614173},{"duration":1.7777759999999994,"midi":34,"time":30.222192,"velocity":0.3543307086614173},{"duration":1.7777759999999994,"midi":41,"time":31.999968,"velocity":0.3543307086614173},{"duration":1.7777759999999994,"midi":53,"time":31.999968,"velocity":0.3543307086614173},{"duration":1.7777759999999994,"midi":34,"time":31.999968,"velocity":0.3543307086614173},{"duration":1.7777759999999994,"midi":46,"time":31.999968,"velocity":0.3543307086614173},{"duration":1.777776000000003,"midi":56,"time":33.777744,"velocity":0.3543307086614173},{"duration":1.777776000000003,"midi":40,"time":33.777744,"velocity":0.3543307086614173},{"duration":1.777776000000003,"midi":34,"time":33.777744,"velocity":0.3543307086614173},{"duration":1.777776000000003,"midi":46,"time":33.777744,"velocity":0.3543307086614173},{"duration":1.7777759999999958,"midi":53,"time":35.55552,"velocity":0.3543307086614173},{"duration":1.7777759999999958,"midi":49,"time":35.55552,"velocity":0.3543307086614173},{"duration":1.7777759999999958,"midi":46,"time":35.55552,"velocity":0.3543307086614173},{"duration":1.7777759999999958,"midi":34,"time":35.55552,"velocity":0.3543307086614173},{"duration":1.7777759999999958,"midi":41,"time":35.55552,"velocity":0.3543307086614173},{"duration":1.777776000000003,"midi":48,"time":37.333296,"velocity":0.3543307086614173},{"duration":1.777776000000003,"midi":52,"time":37.333296,"velocity":0.3543307086614173},{"duration":1.777776000000003,"midi":40,"time":37.333296,"velocity":0.3543307086614173},{"duration":1.777776000000003,"midi":34,"time":37.333296,"velocity":0.3543307086614173},{"duration":1.777776000000003,"midi":46,"time":37.333296,"velocity":0.3543307086614173},{"duration":1.777776000000003,"midi":34,"time":39.111072,"velocity":0.3543307086614173},{"duration":1.777776000000003,"midi":53,"time":39.111072,"velocity":0.3543307086614173},{"duration":1.777776000000003,"midi":46,"time":39.111072,"velocity":0.3543307086614173},{"duration":1.777776000000003,"midi":41,"time":39.111072,"velocity":0.3543307086614173},{"duration":1.777776000000003,"midi":49,"time":39.111072,"velocity":0.3543307086614173},{"duration":1.7777759999999958,"midi":56,"time":40.888848,"velocity":0.3543307086614173},{"duration":1.7777759999999958,"midi":34,"time":40.888848,"velocity":0.3543307086614173},{"duration":1.7777759999999958,"midi":40,"time":40.888848,"velocity":0.3543307086614173},{"duration":1.7777759999999958,"midi":52,"time":40.888848,"velocity":0.3543307086614173},{"duration":1.7777759999999958,"midi":46,"time":40.888848,"velocity":0.3543307086614173},{"duration":0.16666650000000516,"midi":46,"time":42.666624,"velocity":0.3543307086614173},{"duration":0.16666650000000516,"midi":58,"time":42.666624,"velocity":0.3543307086614173},{"duration":0.16666650000000516,"midi":55,"time":42.666624,"velocity":0.3543307086614173},{"duration":0.16666650000000516,"midi":43,"time":42.666624,"velocity":0.3543307086614173},{"duration":0.05555549999999698,"midi":61,"time":42.888846,"velocity":0.3543307086614173},{"duration":0.05555549999999698,"midi":61,"time":42.888846,"velocity":0.3543307086614173},{"duration":0.05555549999999698,"midi":53,"time":42.888846,"velocity":0.3543307086614173},{"duration":0.05555549999999698,"midi":49,"time":42.888846,"velocity":0.3543307086614173},{"duration":0.05555549999999698,"midi":65,"time":42.888846,"velocity":0.3543307086614173},{"duration":0.05555549999999698,"midi":49,"time":42.888846,"velocity":0.3543307086614173},{"duration":0.05555550000000409,"midi":61,"time":43.222179,"velocity":0.3543307086614173},{"duration":0.05555550000000409,"midi":53,"time":43.222179,"velocity":0.3543307086614173},{"duration":0.05555550000000409,"midi":65,"time":43.222179,"velocity":0.3543307086614173},{"duration":0.05555550000000409,"midi":49,"time":43.222179,"velocity":0.3543307086614173},{"duration":0.16666649999999805,"midi":61,"time":43.555512,"velocity":0.3543307086614173},{"duration":0.16666649999999805,"midi":46,"time":43.555512,"velocity":0.3543307086614173},{"duration":0.16666649999999805,"midi":49,"time":43.555512,"velocity":0.3543307086614173},{"duration":0.16666649999999805,"midi":58,"time":43.555512,"velocity":0.3543307086614173},{"duration":0.05555549999999698,"midi":56,"time":43.777734,"velocity":0.3543307086614173},{"duration":0.05555549999999698,"midi":68,"time":43.777734,"velocity":0.3543307086614173},{"duration":0.05555549999999698,"midi":64,"time":43.777734,"velocity":0.3543307086614173},{"duration":0.05555549999999698,"midi":52,"time":43.777734,"velocity":0.3543307086614173},{"duration":0.05555549999999698,"midi":64,"time":43.777734,"velocity":0.3543307086614173},{"duration":0.05555549999999698,"midi":52,"time":43.777734,"velocity":0.3543307086614173},{"duration":0.05555550000000409,"midi":68,"time":44.111067,"velocity":0.3543307086614173},{"duration":0.05555550000000409,"midi":64,"time":44.111067,"velocity":0.3543307086614173},{"duration":0.05555550000000409,"midi":56,"time":44.111067,"velocity":0.3543307086614173},{"duration":0.05555550000000409,"midi":52,"time":44.111067,"velocity":0.3543307086614173},{"duration":0.16666649999999805,"midi":60,"time":44.4444,"velocity":0.3543307086614173},{"duration":0.16666649999999805,"midi":57,"time":44.4444,"velocity":0.3543307086614173},{"duration":0.16666649999999805,"midi":48,"time":44.4444,"velocity":0.3543307086614173},{"duration":0.16666649999999805,"midi":45,"time":44.4444,"velocity":0.3543307086614173},{"duration":0.05555549999999698,"midi":67,"time":44.666622000000004,"velocity":0.3543307086614173},{"duration":0.05555549999999698,"midi":55,"time":44.666622000000004,"velocity":0.3543307086614173},{"duration":0.05555549999999698,"midi":52,"time":44.666622000000004,"velocity":0.3543307086614173},{"duration":0.05555549999999698,"midi":64,"time":44.666622000000004,"velocity":0.3543307086614173},{"duration":0.05555550000000409,"midi":67,"time":44.999955,"velocity":0.3543307086614173},{"duration":0.05555550000000409,"midi":64,"time":44.999955,"velocity":0.3543307086614173},{"duration":0.05555550000000409,"midi":55,"time":44.999955,"velocity":0.3543307086614173},{"duration":0.05555550000000409,"midi":52,"time":44.999955,"velocity":0.3543307086614173},{"duration":0.16666649999999805,"midi":61,"time":45.333288,"velocity":0.3543307086614173},{"duration":0.16666649999999805,"midi":52,"time":45.333288,"velocity":0.3543307086614173},{"duration":0.16666649999999805,"midi":64,"time":45.333288,"velocity":0.3543307086614173},{"duration":0.16666649999999805,"midi":49,"time":45.333288,"velocity":0.3543307086614173},{"duration":0.05555550000000409,"midi":56,"time":45.55551,"velocity":0.3543307086614173},{"duration":0.05555550000000409,"midi":71,"time":45.55551,"velocity":0.3543307086614173},{"duration":0.05555550000000409,"midi":68,"time":45.55551,"velocity":0.3543307086614173},{"duration":0.05555550000000409,"midi":59,"time":45.55551,"velocity":0.3543307086614173},{"duration":0.05555549999999698,"midi":68,"time":45.888843,"velocity":0.3543307086614173},{"duration":0.05555549999999698,"midi":59,"time":45.888843,"velocity":0.3543307086614173},{"duration":0.05555549999999698,"midi":71,"time":45.888843,"velocity":0.3543307086614173},{"duration":0.05555549999999698,"midi":56,"time":45.888843,"velocity":0.3543307086614173},{"duration":0.11111100000000107,"midi":58,"time":46.222176,"velocity":0.3543307086614173},{"duration":0.11111100000000107,"midi":56,"time":46.222176,"velocity":0.3543307086614173},{"duration":0.11111100000000107,"midi":46,"time":46.222176,"velocity":0.3543307086614173},{"duration":0.11111100000000107,"midi":53,"time":46.555509,"velocity":0.3543307086614173},{"duration":0.11111100000000107,"midi":46,"time":46.555509,"velocity":0.3543307086614173},{"duration":0.11111100000000107,"midi":58,"time":46.555509,"velocity":0.3543307086614173},{"duration":0.11111100000000107,"midi":56,"time":47.111064,"velocity":0.3543307086614173},{"duration":0.11111100000000107,"midi":46,"time":47.111064,"velocity":0.3543307086614173},{"duration":0.11111100000000107,"midi":58,"time":47.111064,"velocity":0.3543307086614173},{"duration":0.11111100000000107,"midi":46,"time":47.444397,"velocity":0.3543307086614173},{"duration":0.11111100000000107,"midi":58,"time":47.444397,"velocity":0.3543307086614173},{"duration":0.11111100000000107,"midi":53,"time":47.444397,"velocity":0.3543307086614173},{"duration":0.11111100000000107,"midi":58,"time":47.999952,"velocity":0.3543307086614173},{"duration":0.11111100000000107,"midi":46,"time":47.999952,"velocity":0.3543307086614173},{"duration":0.11111100000000107,"midi":56,"time":47.999952,"velocity":0.3543307086614173},{"duration":0.11111099999999396,"midi":46,"time":48.333285000000004,"velocity":0.3543307086614173},{"duration":0.11111099999999396,"midi":58,"time":48.333285000000004,"velocity":0.3543307086614173},{"duration":0.11111099999999396,"midi":53,"time":48.333285000000004,"velocity":0.3543307086614173},{"duration":0.11111100000000107,"midi":58,"time":48.88884,"velocity":0.3543307086614173},{"duration":0.11111100000000107,"midi":46,"time":48.88884,"velocity":0.3543307086614173},{"duration":0.11111100000000107,"midi":56,"time":48.88884,"velocity":0.3543307086614173},{"duration":0.11111100000000107,"midi":53,"time":49.333284,"velocity":0.3543307086614173},{"duration":0.11111100000000107,"midi":46,"time":49.333284,"velocity":0.3543307086614173},{"duration":0.11111100000000107,"midi":58,"time":49.333284,"velocity":0.3543307086614173},{"duration":0.16666649999999805,"midi":43,"time":49.777728,"velocity":0.3543307086614173},{"duration":0.16666649999999805,"midi":58,"time":49.777728,"velocity":0.3543307086614173},{"duration":0.16666649999999805,"midi":55,"time":49.777728,"velocity":0.3543307086614173},{"duration":0.16666649999999805,"midi":46,"time":49.777728,"velocity":0.3543307086614173},{"duration":0.05555550000000409,"midi":61,"time":49.99995,"velocity":0.3543307086614173},{"duration":0.05555550000000409,"midi":53,"time":49.99995,"velocity":0.3543307086614173},{"duration":0.05555550000000409,"midi":65,"time":49.99995,"velocity":0.3543307086614173},{"duration":0.05555550000000409,"midi":49,"time":49.99995,"velocity":0.3543307086614173},{"duration":0.05555550000000409,"midi":61,"time":49.99995,"velocity":0.3543307086614173},{"duration":0.05555550000000409,"midi":49,"time":49.99995,"velocity":0.3543307086614173},{"duration":0.05555549999999698,"midi":53,"time":50.333283,"velocity":0.3543307086614173},{"duration":0.05555549999999698,"midi":49,"time":50.333283,"velocity":0.3543307086614173},{"duration":0.05555549999999698,"midi":61,"time":50.333283,"velocity":0.3543307086614173},{"duration":0.05555549999999698,"midi":65,"time":50.333283,"velocity":0.3543307086614173},{"duration":0.16666650000000516,"midi":58,"time":50.666616,"velocity":0.3543307086614173},{"duration":0.16666650000000516,"midi":46,"time":50.666616,"velocity":0.3543307086614173},{"duration":0.16666650000000516,"midi":61,"time":50.666616,"velocity":0.3543307086614173},{"duration":0.16666650000000516,"midi":49,"time":50.666616,"velocity":0.3543307086614173},{"duration":0.05555550000000409,"midi":64,"time":50.888838,"velocity":0.3543307086614173},{"duration":0.05555550000000409,"midi":52,"time":50.888838,"velocity":0.3543307086614173},{"duration":0.05555550000000409,"midi":64,"time":50.888838,"velocity":0.3543307086614173},{"duration":0.05555550000000409,"midi":52,"time":50.888838,"velocity":0.3543307086614173},{"duration":0.05555550000000409,"midi":56,"time":50.888838,"velocity":0.3543307086614173},{"duration":0.05555550000000409,"midi":68,"time":50.888838,"velocity":0.3543307086614173},{"duration":0.05555549999999698,"midi":56,"time":51.222171,"velocity":0.3543307086614173},{"duration":0.05555549999999698,"midi":52,"time":51.222171,"velocity":0.3543307086614173},{"duration":0.05555549999999698,"midi":68,"time":51.222171,"velocity":0.3543307086614173},{"duration":0.05555549999999698,"midi":64,"time":51.222171,"velocity":0.3543307086614173},{"duration":0.16666649999999805,"midi":57,"time":51.555504,"velocity":0.3543307086614173},{"duration":0.16666649999999805,"midi":48,"time":51.555504,"velocity":0.3543307086614173},{"duration":0.16666649999999805,"midi":60,"time":51.555504,"velocity":0.3543307086614173},{"duration":0.16666649999999805,"midi":45,"time":51.555504,"velocity":0.3543307086614173},{"duration":0.05555549999999698,"midi":67,"time":51.777726,"velocity":0.3543307086614173},{"duration":0.05555549999999698,"midi":64,"time":51.777726,"velocity":0.3543307086614173},{"duration":0.05555549999999698,"midi":52,"time":51.777726,"velocity":0.3543307086614173},{"duration":0.05555549999999698,"midi":55,"time":51.777726,"velocity":0.3543307086614173},{"duration":0.05555550000000409,"midi":64,"time":52.111059,"velocity":0.3543307086614173},{"duration":0.05555550000000409,"midi":55,"time":52.111059,"velocity":0.3543307086614173},{"duration":0.05555550000000409,"midi":52,"time":52.111059,"velocity":0.3543307086614173},{"duration":0.05555550000000409,"midi":67,"time":52.111059,"velocity":0.3543307086614173},{"duration":0.16666649999999805,"midi":49,"time":52.444392,"velocity":0.3543307086614173},{"duration":0.16666649999999805,"midi":52,"time":52.444392,"velocity":0.3543307086614173},{"duration":0.16666649999999805,"midi":64,"time":52.444392,"velocity":0.3543307086614173},{"duration":0.16666649999999805,"midi":61,"time":52.444392,"velocity":0.3543307086614173},{"duration":0.05555549999999698,"midi":56,"time":52.666614,"velocity":0.3543307086614173},{"duration":0.05555549999999698,"midi":59,"time":52.666614,"velocity":0.3543307086614173},{"duration":0.05555549999999698,"midi":71,"time":52.666614,"velocity":0.3543307086614173},{"duration":0.05555549999999698,"midi":68,"time":52.666614,"velocity":0.3543307086614173},{"duration":0.05555550000000409,"midi":59,"time":52.999947,"velocity":0.3543307086614173},{"duration":0.05555550000000409,"midi":71,"time":52.999947,"velocity":0.3543307086614173},{"duration":0.05555550000000409,"midi":68,"time":52.999947,"velocity":0.3543307086614173},{"duration":0.05555550000000409,"midi":56,"time":52.999947,"velocity":0.3543307086614173},{"duration":0.11111100000000107,"midi":56,"time":53.33328,"velocity":0.3543307086614173},{"duration":0.11111100000000107,"midi":58,"time":53.33328,"velocity":0.3543307086614173},{"duration":0.11111100000000107,"midi":46,"time":53.33328,"velocity":0.3543307086614173},{"duration":0.11111100000000107,"midi":46,"time":53.666613,"velocity":0.3543307086614173},{"duration":0.11111100000000107,"midi":58,"time":53.666613,"velocity":0.3543307086614173},{"duration":0.11111100000000107,"midi":53,"time":53.666613,"velocity":0.3543307086614173},{"duration":0.11111099999999396,"midi":58,"time":54.222168,"velocity":0.3543307086614173},{"duration":0.11111099999999396,"midi":46,"time":54.222168,"velocity":0.3543307086614173},{"duration":0.11111099999999396,"midi":56,"time":54.222168,"velocity":0.3543307086614173},{"duration":0.11111100000000107,"midi":53,"time":54.555501,"velocity":0.3543307086614173},{"duration":0.11111100000000107,"midi":58,"time":54.555501,"velocity":0.3543307086614173},{"duration":0.11111100000000107,"midi":46,"time":54.555501,"velocity":0.3543307086614173},{"duration":0.11111100000000107,"midi":46,"time":55.111056,"velocity":0.3543307086614173},{"duration":0.11111100000000107,"midi":58,"time":55.111056,"velocity":0.3543307086614173},{"duration":0.11111100000000107,"midi":56,"time":55.111056,"velocity":0.3543307086614173},{"duration":0.11111100000000107,"midi":46,"time":55.444389,"velocity":0.3543307086614173},{"duration":0.11111100000000107,"midi":58,"time":55.444389,"velocity":0.3543307086614173},{"duration":0.11111100000000107,"midi":53,"time":55.444389,"velocity":0.3543307086614173},{"duration":0.11111100000000107,"midi":58,"time":55.999944,"velocity":0.3543307086614173},{"duration":0.11111100000000107,"midi":46,"time":55.999944,"velocity":0.3543307086614173},{"duration":0.11111100000000107,"midi":56,"time":55.999944,"velocity":0.3543307086614173},{"duration":0.11111099999999396,"midi":58,"time":56.444388000000004,"velocity":0.3543307086614173},{"duration":0.11111099999999396,"midi":53,"time":56.444388000000004,"velocity":0.3543307086614173},{"duration":0.11111099999999396,"midi":46,"time":56.444388000000004,"velocity":0.3543307086614173},{"duration":1.8888869999999969,"midi":49,"time":56.888832,"velocity":0.3543307086614173},{"duration":0.22222200000000214,"midi":49,"time":58.88883,"velocity":0.3543307086614173},{"duration":0.22222200000000214,"midi":48,"time":59.111052,"velocity":0.3543307086614173},{"duration":0.22222199999999503,"midi":49,"time":59.333274,"velocity":0.3543307086614173},{"duration":0.4444440000000043,"midi":56,"time":59.555496,"velocity":0.3543307086614173},{"duration":0.22222199999999503,"midi":48,"time":59.99994,"velocity":0.3543307086614173},{"duration":2.111109000000006,"midi":49,"time":60.222162,"velocity":0.3543307086614173},{"duration":0.22222200000000214,"midi":49,"time":62.444382,"velocity":0.3543307086614173},{"duration":0.22222200000000214,"midi":48,"time":62.666604,"velocity":0.3543307086614173},{"duration":0.22222200000000214,"midi":46,"time":62.888826,"velocity":0.3543307086614173},{"duration":0.4444439999999972,"midi":44,"time":63.111048000000004,"velocity":0.3543307086614173},{"duration":0.4444439999999972,"midi":48,"time":63.555492,"velocity":0.3543307086614173},{"duration":0.22222200000000925,"midi":49,"time":63.999936,"velocity":0.3543307086614173},{"duration":0.22222199999998793,"midi":48,"time":64.22215800000001,"velocity":0.3543307086614173},{"duration":0.22222200000000214,"midi":49,"time":64.44438,"velocity":0.3543307086614173},{"duration":0.5555549999999982,"midi":56,"time":64.666602,"velocity":0.3543307086614173},{"duration":0.22222200000000214,"midi":56,"time":65.333268,"velocity":0.3543307086614173},{"duration":0.22222199999998793,"midi":58,"time":65.55549,"velocity":0.3543307086614173},{"duration":0.4444440000000043,"midi":56,"time":65.777712,"velocity":0.3543307086614173},{"duration":0.4444440000000043,"midi":54,"time":66.222156,"velocity":0.3543307086614173},{"duration":0.3333329999999961,"midi":53,"time":66.6666,"velocity":0.3543307086614173},{"duration":0.3333329999999961,"midi":49,"time":66.999933,"velocity":0.3543307086614173},{"duration":1.5555540000000008,"midi":51,"time":67.333266,"velocity":0.3543307086614173},{"duration":0.4444440000000043,"midi":53,"time":68.88882,"velocity":0.3543307086614173},{"duration":0.8888879999999943,"midi":51,"time":69.333264,"velocity":0.3543307086614173},{"duration":0.7777770000000004,"midi":49,"time":70.222152,"velocity":0.3543307086614173},{"duration":1.8888869999999969,"midi":46,"time":71.11104,"velocity":0.3543307086614173},{"duration":1.8888869999999969,"midi":49,"time":71.11104,"velocity":0.3543307086614173},{"duration":0.22222199999998793,"midi":46,"time":73.11103800000001,"velocity":0.3543307086614173},{"duration":0.22222199999998793,"midi":49,"time":73.11103800000001,"velocity":0.3543307086614173},{"duration":0.22222200000000214,"midi":44,"time":73.33326,"velocity":0.3543307086614173},{"duration":0.22222200000000214,"midi":48,"time":73.33326,"velocity":0.3543307086614173},{"duration":0.22222200000000214,"midi":49,"time":73.555482,"velocity":0.3543307086614173},{"duration":0.22222200000000214,"midi":46,"time":73.555482,"velocity":0.3543307086614173},{"duration":0.4444440000000043,"midi":56,"time":73.777704,"velocity":0.3543307086614173},{"duration":0.4444440000000043,"midi":53,"time":73.777704,"velocity":0.3543307086614173},{"duration":0.22222200000000214,"midi":44,"time":74.222148,"velocity":0.3543307086614173},{"duration":0.22222200000000214,"midi":48,"time":74.222148,"velocity":0.3543307086614173},{"duration":2.111108999999999,"midi":46,"time":74.44437,"velocity":0.3543307086614173},{"duration":2.111108999999999,"midi":49,"time":74.44437,"velocity":0.3543307086614173},{"duration":0.22222200000000214,"midi":46,"time":76.66659,"velocity":0.3543307086614173},{"duration":0.22222200000000214,"midi":49,"time":76.66659,"velocity":0.3543307086614173},{"duration":0.22222200000000214,"midi":48,"time":76.888812,"velocity":0.3543307086614173},{"duration":0.22222200000000214,"midi":44,"time":76.888812,"velocity":0.3543307086614173},{"duration":0.22222200000000214,"midi":46,"time":77.111034,"velocity":0.3543307086614173},{"duration":0.22222200000000214,"midi":42,"time":77.111034,"velocity":0.3543307086614173},{"duration":0.44444399999999007,"midi":41,"time":77.333256,"velocity":0.3543307086614173},{"duration":0.44444399999999007,"midi":44,"time":77.333256,"velocity":0.3543307086614173},{"duration":0.4444440000000043,"midi":44,"time":77.7777,"velocity":0.3543307086614173},{"duration":0.4444440000000043,"midi":48,"time":77.7777,"velocity":0.3543307086614173},{"duration":0.22222200000000214,"midi":46,"time":78.222144,"velocity":0.3543307086614173},{"duration":0.22222200000000214,"midi":49,"time":78.222144,"velocity":0.3543307086614173},{"duration":0.22222200000000214,"midi":48,"time":78.444366,"velocity":0.3543307086614173},{"duration":0.22222200000000214,"midi":44,"time":78.444366,"velocity":0.3543307086614173},{"duration":0.22222200000000214,"midi":46,"time":78.666588,"velocity":0.3543307086614173},{"duration":0.22222200000000214,"midi":49,"time":78.666588,"velocity":0.3543307086614173},{"duration":0.5555549999999982,"midi":56,"time":78.88881,"velocity":0.3543307086614173},{"duration":0.5555549999999982,"midi":53,"time":78.88881,"velocity":0.3543307086614173},{"duration":0.22222200000000214,"midi":53,"time":79.555476,"velocity":0.3543307086614173},{"duration":0.22222200000000214,"midi":56,"time":79.555476,"velocity":0.3543307086614173},{"duration":0.22222200000000214,"midi":54,"time":79.777698,"velocity":0.3543307086614173},{"duration":0.22222200000000214,"midi":58,"time":79.777698,"velocity":0.3543307086614173},{"duration":0.4444440000000043,"midi":56,"time":79.99992,"velocity":0.3543307086614173},{"duration":0.4444440000000043,"midi":53,"time":79.99992,"velocity":0.3543307086614173},{"duration":0.44444399999999007,"midi":54,"time":80.44436400000001,"velocity":0.3543307086614173},{"duration":0.44444399999999007,"midi":51,"time":80.44436400000001,"velocity":0.3543307086614173},{"duration":0.3333330000000103,"midi":53,"time":80.888808,"velocity":0.3543307086614173},{"duration":0.3333330000000103,"midi":49,"time":80.888808,"velocity":0.3543307086614173},{"duration":0.3333329999999961,"midi":49,"time":81.22214100000001,"velocity":0.3543307086614173},{"duration":0.3333329999999961,"midi":46,"time":81.22214100000001,"velocity":0.3543307086614173},{"duration":1.5555540000000008,"midi":48,"time":81.555474,"velocity":0.3543307086614173},{"duration":1.5555540000000008,"midi":51,"time":81.555474,"velocity":0.3543307086614173},{"duration":0.44444399999999007,"midi":49,"time":83.111028,"velocity":0.3543307086614173},{"duration":0.44444399999999007,"midi":53,"time":83.111028,"velocity":0.3543307086614173},{"duration":0.8888880000000086,"midi":51,"time":83.555472,"velocity":0.3543307086614173},{"duration":0.8888880000000086,"midi":48,"time":83.555472,"velocity":0.3543307086614173},{"duration":0.7777770000000004,"midi":46,"time":84.44436,"velocity":0.3543307086614173},{"duration":0.7777770000000004,"midi":49,"time":84.44436,"velocity":0.3543307086614173},{"duration":0.16666650000000516,"midi":46,"time":85.333248,"velocity":0.3543307086614173},{"duration":0.16666650000000516,"midi":34,"time":85.333248,"velocity":0.3543307086614173},{"duration":0.11111100000000818,"midi":41,"time":85.55547,"velocity":0.3543307086614173},{"duration":0.11111100000000818,"midi":53,"time":85.55547,"velocity":0.3543307086614173},{"duration":0.16666649999999095,"midi":34,"time":85.66658100000001,"velocity":0.3543307086614173},{"duration":0.16666649999999095,"midi":46,"time":85.66658100000001,"velocity":0.3543307086614173},{"duration":0.05555550000001119,"midi":41,"time":85.888803,"velocity":0.3543307086614173},{"duration":0.05555550000001119,"midi":53,"time":85.888803,"velocity":0.3543307086614173},{"duration":0.11111099999999396,"midi":53,"time":86.222136,"velocity":0.3543307086614173},{"duration":0.11111099999999396,"midi":41,"time":86.222136,"velocity":0.3543307086614173},{"duration":0.11111099999999396,"midi":40,"time":86.333247,"velocity":0.3543307086614173},{"duration":0.11111099999999396,"midi":52,"time":86.333247,"velocity":0.3543307086614173},{"duration":0.11111100000000818,"midi":34,"time":86.444358,"velocity":0.3543307086614173},{"duration":0.11111100000000818,"midi":46,"time":86.444358,"velocity":0.3543307086614173},{"duration":0.11111099999999396,"midi":53,"time":86.555469,"velocity":0.3543307086614173},{"duration":0.11111099999999396,"midi":41,"time":86.555469,"velocity":0.3543307086614173},{"duration":0.3333330000000103,"midi":44,"time":86.66658,"velocity":0.3543307086614173},{"duration":0.3333330000000103,"midi":56,"time":86.66658,"velocity":0.3543307086614173},{"duration":0.16666650000000516,"midi":34,"time":87.111024,"velocity":0.3543307086614173},{"duration":0.16666650000000516,"midi":46,"time":87.111024,"velocity":0.3543307086614173},{"duration":0.11111099999999396,"midi":53,"time":87.333246,"velocity":0.3543307086614173},{"duration":0.11111099999999396,"midi":41,"time":87.333246,"velocity":0.3543307086614173},{"duration":0.16666650000000516,"midi":34,"time":87.444357,"velocity":0.3543307086614173},{"duration":0.16666650000000516,"midi":46,"time":87.444357,"velocity":0.3543307086614173},{"duration":0.05555549999999698,"midi":41,"time":87.666579,"velocity":0.3543307086614173},{"duration":0.05555549999999698,"midi":53,"time":87.666579,"velocity":0.3543307086614173},{"duration":0.11111100000000818,"midi":53,"time":87.999912,"velocity":0.3543307086614173},{"duration":0.11111100000000818,"midi":41,"time":87.999912,"velocity":0.3543307086614173},{"duration":0.11111099999999396,"midi":40,"time":88.111023,"velocity":0.3543307086614173},{"duration":0.11111099999999396,"midi":52,"time":88.111023,"velocity":0.3543307086614173},{"duration":0.11111100000000818,"midi":34,"time":88.222134,"velocity":0.3543307086614173},{"duration":0.11111100000000818,"midi":46,"time":88.222134,"velocity":0.3543307086614173},{"duration":0.11111099999999396,"midi":37,"time":88.333245,"velocity":0.3543307086614173},{"duration":0.11111099999999396,"midi":49,"time":88.333245,"velocity":0.3543307086614173},{"duration":0.3333329999999961,"midi":51,"time":88.444356,"velocity":0.3543307086614173},{"duration":0.3333329999999961,"midi":39,"time":88.444356,"velocity":0.3543307086614173},{"duration":0.16666649999999095,"midi":34,"time":88.8888,"velocity":0.3543307086614173},{"duration":0.16666649999999095,"midi":46,"time":88.8888,"velocity":0.3543307086614173},{"duration":0.11111099999999396,"midi":53,"time":89.111022,"velocity":0.3543307086614173},{"duration":0.11111099999999396,"midi":41,"time":89.111022,"velocity":0.3543307086614173},{"duration":0.05555549999999698,"midi":53,"time":89.444355,"velocity":0.3543307086614173},{"duration":0.05555549999999698,"midi":41,"time":89.444355,"velocity":0.3543307086614173},{"duration":0.11111100000000818,"midi":53,"time":89.777688,"velocity":0.3543307086614173},{"duration":0.11111100000000818,"midi":41,"time":89.777688,"velocity":0.3543307086614173},{"duration":0.11111099999999396,"midi":52,"time":89.888799,"velocity":0.3543307086614173},{"duration":0.11111099999999396,"midi":40,"time":89.888799,"velocity":0.3543307086614173},{"duration":0.11111100000000818,"midi":34,"time":89.99991,"velocity":0.3543307086614173},{"duration":0.11111100000000818,"midi":46,"time":89.99991,"velocity":0.3543307086614173},{"duration":0.11111099999999396,"midi":41,"time":90.11102100000001,"velocity":0.3543307086614173},{"duration":0.11111099999999396,"midi":53,"time":90.11102100000001,"velocity":0.3543307086614173},{"duration":0.3333329999999961,"midi":44,"time":90.222132,"velocity":0.3543307086614173},{"duration":0.3333329999999961,"midi":56,"time":90.222132,"velocity":0.3543307086614173},{"duration":0.22222199999998793,"midi":46,"time":90.666576,"velocity":0.3543307086614173},{"duration":0.22222199999998793,"midi":58,"time":90.666576,"velocity":0.3543307086614173},{"duration":0.05555550000001119,"midi":60,"time":90.888798,"velocity":0.3543307086614173},{"duration":0.05555550000001119,"midi":48,"time":90.888798,"velocity":0.3543307086614173},{"duration":0.22222200000000214,"midi":53,"time":90.999909,"velocity":0.3543307086614173},{"duration":0.22222200000000214,"midi":41,"time":90.999909,"velocity":0.3543307086614173},{"duration":0.05555549999999698,"midi":48,"time":91.222131,"velocity":0.3543307086614173},{"duration":0.05555549999999698,"midi":60,"time":91.222131,"velocity":0.3543307086614173},{"duration":0.22222200000000214,"midi":51,"time":91.333242,"velocity":0.3543307086614173},{"duration":0.22222200000000214,"midi":39,"time":91.333242,"velocity":0.3543307086614173},{"duration":0.22222200000000214,"midi":56,"time":91.555464,"velocity":0.3543307086614173},{"duration":0.22222200000000214,"midi":44,"time":91.555464,"velocity":0.3543307086614173},{"duration":0.05555549999999698,"midi":48,"time":91.777686,"velocity":0.3543307086614173},{"duration":0.05555549999999698,"midi":60,"time":91.777686,"velocity":0.3543307086614173},{"duration":0.11111100000000818,"midi":40,"time":91.888797,"velocity":0.3543307086614173},{"duration":0.11111100000000818,"midi":52,"time":91.888797,"velocity":0.3543307086614173},{"duration":0.05555549999999698,"midi":42,"time":91.999908,"velocity":0.3543307086614173},{"duration":0.05555549999999698,"midi":54,"time":91.999908,"velocity":0.3543307086614173},{"duration":0.05555549999999698,"midi":52,"time":92.0554635,"velocity":0.3543307086614173},{"duration":0.05555549999999698,"midi":40,"time":92.0554635,"velocity":0.3543307086614173},{"duration":0.05555549999999698,"midi":39,"time":92.111019,"velocity":0.3543307086614173},{"duration":0.05555549999999698,"midi":51,"time":92.111019,"velocity":0.3543307086614173},{"duration":0.05555550000001119,"midi":40,"time":92.1665745,"velocity":0.3543307086614173},{"duration":0.05555550000001119,"midi":52,"time":92.1665745,"velocity":0.3543307086614173},{"duration":0.05555549999999698,"midi":49,"time":92.22213,"velocity":0.3543307086614173},{"duration":0.05555549999999698,"midi":37,"time":92.22213,"velocity":0.3543307086614173},{"duration":0.05555549999999698,"midi":35,"time":92.2776855,"velocity":0.3543307086614173},{"duration":0.05555549999999698,"midi":47,"time":92.2776855,"velocity":0.3543307086614173},{"duration":0.05555549999999698,"midi":34,"time":92.333241,"velocity":0.3543307086614173},{"duration":0.05555549999999698,"midi":46,"time":92.333241,"velocity":0.3543307086614173},{"duration":0.05555549999999698,"midi":32,"time":92.3887965,"velocity":0.3543307086614173},{"duration":0.05555549999999698,"midi":44,"time":92.3887965,"velocity":0.3543307086614173},{"duration":0.16666650000000516,"midi":34,"time":92.444352,"velocity":0.3543307086614173},{"duration":0.16666650000000516,"midi":46,"time":92.444352,"velocity":0.3543307086614173},{"duration":0.11111100000000818,"midi":41,"time":92.666574,"velocity":0.3543307086614173},{"duration":0.11111100000000818,"midi":53,"time":92.666574,"velocity":0.3543307086614173},{"duration":0.16666649999999095,"midi":46,"time":92.777685,"velocity":0.3543307086614173},{"duration":0.16666649999999095,"midi":34,"time":92.777685,"velocity":0.3543307086614173},{"duration":0.05555549999999698,"midi":53,"time":92.99990700000001,"velocity":0.3543307086614173},{"duration":0.05555549999999698,"midi":41,"time":92.99990700000001,"velocity":0.3543307086614173},{"duration":0.11111099999999396,"midi":53,"time":93.33324,"velocity":0.3543307086614173},{"duration":0.11111099999999396,"midi":41,"time":93.33324,"velocity":0.3543307086614173},{"duration":0.11111100000000818,"midi":52,"time":93.444351,"velocity":0.3543307086614173},{"duration":0.11111100000000818,"midi":40,"time":93.444351,"velocity":0.3543307086614173},{"duration":0.11111099999999396,"midi":46,"time":93.555462,"velocity":0.3543307086614173},{"duration":0.11111099999999396,"midi":34,"time":93.555462,"velocity":0.3543307086614173},{"duration":0.11111100000000818,"midi":53,"time":93.666573,"velocity":0.3543307086614173},{"duration":0.11111100000000818,"midi":41,"time":93.666573,"velocity":0.3543307086614173},{"duration":0.22222199999998793,"midi":44,"time":93.77768400000001,"velocity":0.3543307086614173},{"duration":0.22222199999998793,"midi":56,"time":93.77768400000001,"velocity":0.3543307086614173},{"duration":0.11111100000000818,"midi":57,"time":93.999906,"velocity":0.3543307086614173},{"duration":0.11111100000000818,"midi":45,"time":93.999906,"velocity":0.3543307086614173},{"duration":0.16666650000000516,"midi":46,"time":94.222128,"velocity":0.3543307086614173},{"duration":0.16666650000000516,"midi":58,"time":94.222128,"velocity":0.3543307086614173},{"duration":0.05555549999999698,"midi":61,"time":94.44435,"velocity":0.3543307086614173},{"duration":0.05555549999999698,"midi":49,"time":94.44435,"velocity":0.3543307086614173},{"duration":0.16666650000000516,"midi":57,"time":94.666572,"velocity":0.3543307086614173},{"duration":0.16666650000000516,"midi":45,"time":94.666572,"velocity":0.3543307086614173},{"duration":0.05555549999999698,"midi":49,"time":94.888794,"velocity":0.3543307086614173},{"duration":0.05555549999999698,"midi":61,"time":94.888794,"velocity":0.3543307086614173},{"duration":0.16666649999999095,"midi":56,"time":95.111016,"velocity":0.3543307086614173},{"duration":0.16666649999999095,"midi":44,"time":95.111016,"velocity":0.3543307086614173},{"duration":0.05555550000001119,"midi":47,"time":95.333238,"velocity":0.3543307086614173},{"duration":0.05555550000001119,"midi":59,"time":95.333238,"velocity":0.3543307086614173},{"duration":0.16666650000000516,"midi":53,"time":95.55546,"velocity":0.3543307086614173},{"duration":0.16666650000000516,"midi":41,"time":95.55546,"velocity":0.3543307086614173},{"duration":0.05555549999999698,"midi":56,"time":95.777682,"velocity":0.3543307086614173},{"duration":0.05555549999999698,"midi":44,"time":95.777682,"velocity":0.3543307086614173},{"duration":0.16666650000000516,"midi":58,"time":95.999904,"velocity":0.3543307086614173},{"duration":0.16666650000000516,"midi":46,"time":95.999904,"velocity":0.3543307086614173},{"duration":0.05555549999999698,"midi":53,"time":96.222126,"velocity":0.3543307086614173},{"duration":0.05555549999999698,"midi":41,"time":96.222126,"velocity":0.3543307086614173},{"duration":0.11111099999999396,"midi":53,"time":96.444348,"velocity":0.3543307086614173},{"duration":0.11111099999999396,"midi":65,"time":96.444348,"velocity":0.3543307086614173},{"duration":0.05555549999999698,"midi":52,"time":96.555459,"velocity":0.3543307086614173},{"duration":0.05555549999999698,"midi":64,"time":96.555459,"velocity":0.3543307086614173},{"duration":0.16666650000000516,"midi":63,"time":96.777681,"velocity":0.3543307086614173},{"duration":0.16666650000000516,"midi":51,"time":96.777681,"velocity":0.3543307086614173},{"duration":0.11111099999999396,"midi":52,"time":96.999903,"velocity":0.3543307086614173},{"duration":0.11111099999999396,"midi":40,"time":96.999903,"velocity":0.3543307086614173},{"duration":0.05555549999999698,"midi":44,"time":97.111014,"velocity":0.3543307086614173},{"duration":0.05555549999999698,"midi":56,"time":97.111014,"velocity":0.3543307086614173},{"duration":0.11111099999999396,"midi":56,"time":97.222125,"velocity":0.3543307086614173},{"duration":0.11111099999999396,"midi":68,"time":97.222125,"velocity":0.3543307086614173},{"duration":0.11111100000000818,"midi":44,"time":97.333236,"velocity":0.3543307086614173},{"duration":0.11111100000000818,"midi":56,"time":97.333236,"velocity":0.3543307086614173},{"duration":0.11111099999999396,"midi":61,"time":97.555458,"velocity":0.3543307086614173},{"duration":0.11111099999999396,"midi":49,"time":97.555458,"velocity":0.3543307086614173},{"duration":0.22222200000000214,"midi":46,"time":97.77768,"velocity":0.3543307086614173},{"duration":0.22222200000000214,"midi":58,"time":97.77768,"velocity":0.3543307086614173},{"duration":0.22222200000000214,"midi":58,"time":97.77768,"velocity":0.3543307086614173},{"duration":0.22222200000000214,"midi":46,"time":97.77768,"velocity":0.3543307086614173},{"duration":0.05555549999999698,"midi":60,"time":97.999902,"velocity":0.3543307086614173},{"duration":0.05555549999999698,"midi":60,"time":97.999902,"velocity":0.3543307086614173},{"duration":0.05555549999999698,"midi":48,"time":97.999902,"velocity":0.3543307086614173},{"duration":0.05555549999999698,"midi":48,"time":97.999902,"velocity":0.3543307086614173},{"duration":0.22222200000000214,"midi":53,"time":98.111013,"velocity":0.3543307086614173},{"duration":0.22222200000000214,"midi":41,"time":98.111013,"velocity":0.3543307086614173},{"duration":0.22222200000000214,"midi":41,"time":98.111013,"velocity":0.3543307086614173},{"duration":0.22222200000000214,"midi":53,"time":98.111013,"velocity":0.3543307086614173},{"duration":0.05555549999999698,"midi":48,"time":98.333235,"velocity":0.3543307086614173},{"duration":0.05555549999999698,"midi":60,"time":98.333235,"velocity":0.3543307086614173},{"duration":0.05555549999999698,"midi":48,"time":98.333235,"velocity":0.3543307086614173},{"duration":0.05555549999999698,"midi":60,"time":98.333235,"velocity":0.3543307086614173},{"duration":0.22222200000000214,"midi":51,"time":98.444346,"velocity":0.3543307086614173},{"duration":0.22222200000000214,"midi":39,"time":98.444346,"velocity":0.3543307086614173},{"duration":0.22222200000000214,"midi":39,"time":98.444346,"velocity":0.3543307086614173},{"duration":0.22222200000000214,"midi":51,"time":98.444346,"velocity":0.3543307086614173},{"duration":0.22222200000000214,"midi":56,"time":98.666568,"velocity":0.3543307086614173},{"duration":0.22222200000000214,"midi":44,"time":98.666568,"velocity":0.3543307086614173},{"duration":0.05555549999999698,"midi":48,"time":98.88879,"velocity":0.3543307086614173},{"duration":0.05555549999999698,"midi":60,"time":98.88879,"velocity":0.3543307086614173},{"duration":0.11111099999999396,"midi":52,"time":98.99990100000001,"velocity":0.3543307086614173},{"duration":0.11111099999999396,"midi":40,"time":98.99990100000001,"velocity":0.3543307086614173},{"duration":0.05555549999999698,"midi":42,"time":99.111012,"velocity":0.3543307086614173},{"duration":0.05555549999999698,"midi":54,"time":99.111012,"velocity":0.3543307086614173},{"duration":0.05555549999999698,"midi":52,"time":99.1665675,"velocity":0.3543307086614173},{"duration":0.05555549999999698,"midi":40,"time":99.1665675,"velocity":0.3543307086614173},{"duration":0.05555550000001119,"midi":39,"time":99.222123,"velocity":0.3543307086614173},{"duration":0.05555550000001119,"midi":51,"time":99.222123,"velocity":0.3543307086614173},{"duration":0.05555549999999698,"midi":40,"time":99.27767850000001,"velocity":0.3543307086614173},{"duration":0.05555549999999698,"midi":52,"time":99.27767850000001,"velocity":0.3543307086614173},{"duration":0.05555549999999698,"midi":49,"time":99.333234,"velocity":0.3543307086614173},{"duration":0.05555549999999698,"midi":37,"time":99.333234,"velocity":0.3543307086614173},{"duration":0.05555549999999698,"midi":47,"time":99.3887895,"velocity":0.3543307086614173},{"duration":0.05555549999999698,"midi":35,"time":99.3887895,"velocity":0.3543307086614173},{"duration":0.05555549999999698,"midi":46,"time":99.444345,"velocity":0.3543307086614173},{"duration":0.05555549999999698,"midi":34,"time":99.444345,"velocity":0.3543307086614173},{"duration":0.05555550000001119,"midi":44,"time":99.4999005,"velocity":0.3543307086614173},{"duration":0.05555550000001119,"midi":32,"time":99.4999005,"velocity":0.3543307086614173},{"duration":0.3888884999999931,"midi":52,"time":99.555456,"velocity":0.3543307086614173},{"duration":0.3888884999999931,"midi":40,"time":99.555456,"velocity":0.3543307086614173},{"duration":0.3888885000000073,"midi":51,"time":99.9999,"velocity":0.3543307086614173},{"duration":0.3888885000000073,"midi":39,"time":99.9999,"velocity":0.3543307086614173},{"duration":0.11111099999999396,"midi":37,"time":100.444344,"velocity":0.3543307086614173},{"duration":0.11111099999999396,"midi":49,"time":100.444344,"velocity":0.3543307086614173},{"duration":0.11111100000000818,"midi":39,"time":100.555455,"velocity":0.3543307086614173},{"duration":0.11111100000000818,"midi":51,"time":100.555455,"velocity":0.3543307086614173},{"duration":0.11111100000000818,"midi":46,"time":100.777677,"velocity":0.3543307086614173},{"duration":0.11111100000000818,"midi":34,"time":100.777677,"velocity":0.3543307086614173},{"duration":0.11111100000000818,"midi":44,"time":100.999899,"velocity":0.3543307086614173},{"duration":0.11111100000000818,"midi":32,"time":100.999899,"velocity":0.3543307086614173},{"duration":0.11111099999999396,"midi":33,"time":101.11101000000001,"velocity":0.3543307086614173},{"duration":0.11111099999999396,"midi":45,"time":101.11101000000001,"velocity":0.3543307086614173},{"duration":0.11111099999999396,"midi":46,"time":101.222121,"velocity":0.3543307086614173},{"duration":0.11111099999999396,"midi":34,"time":101.222121,"velocity":0.3543307086614173},{"duration":0.3888885000000073,"midi":52,"time":101.333232,"velocity":0.3543307086614173},{"duration":0.3888885000000073,"midi":40,"time":101.333232,"velocity":0.3543307086614173},{"duration":0.3888885000000073,"midi":39,"time":101.777676,"velocity":0.3543307086614173},{"duration":0.3888885000000073,"midi":51,"time":101.777676,"velocity":0.3543307086614173},{"duration":0.11111099999999396,"midi":49,"time":102.22212,"velocity":0.3543307086614173},{"duration":0.11111100000000818,"midi":51,"time":102.333231,"velocity":0.3543307086614173},{"duration":0.16666650000000516,"midi":44,"time":102.555453,"velocity":0.3543307086614173},{"duration":0.16666650000000516,"midi":56,"time":102.555453,"velocity":0.3543307086614173},{"duration":0.02777774999999849,"midi":56,"time":102.777675,"velocity":0.3543307086614173},{"duration":0.02777774999999849,"midi":44,"time":102.777675,"velocity":0.3543307086614173},{"duration":0.05555550000001119,"midi":44,"time":102.888786,"velocity":0.3543307086614173},{"duration":0.05555550000001119,"midi":56,"time":102.888786,"velocity":0.3543307086614173},{"duration":0.02777774999999849,"midi":56,"time":102.999897,"velocity":0.3543307086614173},{"duration":0.02777774999999849,"midi":44,"time":102.999897,"velocity":0.3543307086614173},{"duration":0.3888885000000073,"midi":40,"time":103.111008,"velocity":0.3543307086614173},{"duration":0.3888885000000073,"midi":52,"time":103.111008,"velocity":0.3543307086614173},{"duration":0.3888884999999931,"midi":39,"time":103.555452,"velocity":0.3543307086614173},{"duration":0.3888884999999931,"midi":51,"time":103.555452,"velocity":0.3543307086614173},{"duration":0.11111099999999396,"midi":49,"time":103.999896,"velocity":0.3543307086614173},{"duration":0.11111099999999396,"midi":37,"time":103.999896,"velocity":0.3543307086614173},{"duration":0.11111099999999396,"midi":39,"time":104.111007,"velocity":0.3543307086614173},{"duration":0.11111099999999396,"midi":51,"time":104.111007,"velocity":0.3543307086614173},{"duration":0.11111099999999396,"midi":34,"time":104.333229,"velocity":0.3543307086614173},{"duration":0.11111099999999396,"midi":46,"time":104.333229,"velocity":0.3543307086614173},{"duration":0.11111099999999396,"midi":32,"time":104.555451,"velocity":0.3543307086614173},{"duration":0.11111099999999396,"midi":44,"time":104.555451,"velocity":0.3543307086614173},{"duration":0.11111100000000818,"midi":45,"time":104.666562,"velocity":0.3543307086614173},{"duration":0.11111100000000818,"midi":33,"time":104.666562,"velocity":0.3543307086614173},{"duration":0.11111099999999396,"midi":46,"time":104.77767300000001,"velocity":0.3543307086614173},{"duration":0.11111099999999396,"midi":34,"time":104.77767300000001,"velocity":0.3543307086614173},{"duration":0.11111099999999396,"midi":52,"time":104.888784,"velocity":0.3543307086614173},{"duration":0.11111099999999396,"midi":40,"time":104.888784,"velocity":0.3543307086614173},{"duration":0.11111099999999396,"midi":44,"time":105.111006,"velocity":0.3543307086614173},{"duration":0.11111099999999396,"midi":56,"time":105.111006,"velocity":0.3543307086614173},{"duration":0.11111099999999396,"midi":51,"time":105.333228,"velocity":0.3543307086614173},{"duration":0.11111099999999396,"midi":39,"time":105.333228,"velocity":0.3543307086614173},{"duration":0.11111099999999396,"midi":55,"time":105.55545000000001,"velocity":0.3543307086614173},{"duration":0.11111099999999396,"midi":43,"time":105.55545000000001,"velocity":0.3543307086614173},{"duration":0.11111100000000818,"midi":50,"time":105.777672,"velocity":0.3543307086614173},{"duration":0.11111100000000818,"midi":38,"time":105.777672,"velocity":0.3543307086614173},{"duration":0.11111100000000818,"midi":54,"time":105.999894,"velocity":0.3543307086614173},{"duration":0.11111100000000818,"midi":42,"time":105.999894,"velocity":0.3543307086614173},{"duration":0.11111100000000818,"midi":37,"time":106.222116,"velocity":0.3543307086614173},{"duration":0.11111100000000818,"midi":49,"time":106.222116,"velocity":0.3543307086614173},{"duration":0.11111099999999396,"midi":53,"time":106.444338,"velocity":0.3543307086614173},{"duration":0.11111099999999396,"midi":41,"time":106.444338,"velocity":0.3543307086614173},{"duration":0.3888884999999931,"midi":52,"time":106.66656,"velocity":0.3543307086614173},{"duration":0.3888884999999931,"midi":40,"time":106.66656,"velocity":0.3543307086614173},{"duration":0.3888884999999931,"midi":39,"time":107.11100400000001,"velocity":0.3543307086614173},{"duration":0.3888884999999931,"midi":51,"time":107.11100400000001,"velocity":0.3543307086614173},{"duration":0.11111100000000818,"midi":49,"time":107.555448,"velocity":0.3543307086614173},{"duration":0.11111100000000818,"midi":37,"time":107.555448,"velocity":0.3543307086614173},{"duration":0.11111099999999396,"midi":39,"time":107.666559,"velocity":0.3543307086614173},{"duration":0.11111099999999396,"midi":51,"time":107.666559,"velocity":0.3543307086614173},{"duration":0.11111100000000818,"midi":46,"time":107.888781,"velocity":0.3543307086614173},{"duration":0.11111100000000818,"midi":34,"time":107.888781,"velocity":0.3543307086614173},{"duration":0.11111100000000818,"midi":32,"time":108.111003,"velocity":0.3543307086614173},{"duration":0.11111100000000818,"midi":44,"time":108.111003,"velocity":0.3543307086614173},{"duration":0.11111099999999396,"midi":33,"time":108.222114,"velocity":0.3543307086614173},{"duration":0.11111099999999396,"midi":45,"time":108.222114,"velocity":0.3543307086614173},{"duration":0.11111100000000818,"midi":46,"time":108.333225,"velocity":0.3543307086614173},{"duration":0.11111100000000818,"midi":34,"time":108.333225,"velocity":0.3543307086614173},{"duration":0.3888884999999931,"midi":40,"time":108.444336,"velocity":0.3543307086614173},{"duration":0.3888884999999931,"midi":52,"time":108.444336,"velocity":0.3543307086614173},{"duration":0.3888885000000073,"midi":51,"time":108.88878,"velocity":0.3543307086614173},{"duration":0.3888885000000073,"midi":39,"time":108.88878,"velocity":0.3543307086614173},{"duration":0.11111099999999396,"midi":49,"time":109.333224,"velocity":0.3543307086614173},{"duration":0.11111100000000818,"midi":51,"time":109.444335,"velocity":0.3543307086614173},{"duration":0.16666650000000516,"midi":56,"time":109.666557,"velocity":0.3543307086614173},{"duration":0.16666650000000516,"midi":44,"time":109.666557,"velocity":0.3543307086614173},{"duration":0.02777774999999849,"midi":56,"time":109.888779,"velocity":0.3543307086614173},{"duration":0.02777774999999849,"midi":44,"time":109.888779,"velocity":0.3543307086614173},{"duration":0.05555549999999698,"midi":44,"time":109.99989000000001,"velocity":0.3543307086614173},{"duration":0.05555549999999698,"midi":56,"time":109.99989000000001,"velocity":0.3543307086614173},{"duration":0.02777774999999849,"midi":56,"time":110.111001,"velocity":0.3543307086614173},{"duration":0.02777774999999849,"midi":44,"time":110.111001,"velocity":0.3543307086614173},{"duration":0.3888885000000073,"midi":52,"time":110.222112,"velocity":0.3543307086614173},{"duration":0.3888885000000073,"midi":40,"time":110.222112,"velocity":0.3543307086614173},{"duration":0.3888885000000073,"midi":39,"time":110.666556,"velocity":0.3543307086614173},{"duration":0.3888885000000073,"midi":51,"time":110.666556,"velocity":0.3543307086614173},{"duration":0.11111099999999396,"midi":49,"time":111.111,"velocity":0.3543307086614173},{"duration":0.11111099999999396,"midi":37,"time":111.111,"velocity":0.3543307086614173},{"duration":0.11111100000000818,"midi":51,"time":111.222111,"velocity":0.3543307086614173},{"duration":0.11111100000000818,"midi":39,"time":111.222111,"velocity":0.3543307086614173},{"duration":0.11111100000000818,"midi":34,"time":111.444333,"velocity":0.3543307086614173},{"duration":0.11111100000000818,"midi":46,"time":111.444333,"velocity":0.3543307086614173},{"duration":0.11111099999999396,"midi":44,"time":111.666555,"velocity":0.3543307086614173},{"duration":0.11111099999999396,"midi":32,"time":111.666555,"velocity":0.3543307086614173},{"duration":0.11111100000000818,"midi":33,"time":111.777666,"velocity":0.3543307086614173},{"duration":0.11111100000000818,"midi":45,"time":111.777666,"velocity":0.3543307086614173},{"duration":0.11111099999999396,"midi":34,"time":111.888777,"velocity":0.3543307086614173},{"duration":0.11111099999999396,"midi":46,"time":111.888777,"velocity":0.3543307086614173},{"duration":0.11111100000000818,"midi":70,"time":111.999888,"velocity":0.3543307086614173},{"duration":0.11111100000000818,"midi":58,"time":111.999888,"velocity":0.3543307086614173},{"duration":0.11111099999999396,"midi":65,"time":112.22211,"velocity":0.3543307086614173},{"duration":0.11111099999999396,"midi":73,"time":112.22211,"velocity":0.3543307086614173},{"duration":0.11111099999999396,"midi":61,"time":112.22211,"velocity":0.3543307086614173},{"duration":0.11111099999999396,"midi":53,"time":112.444332,"velocity":0.3543307086614173},{"duration":0.11111099999999396,"midi":77,"time":112.444332,"velocity":0.3543307086614173},{"duration":0.11111099999999396,"midi":79,"time":112.666554,"velocity":0.3543307086614173},{"duration":0.11111099999999396,"midi":65,"time":112.666554,"velocity":0.3543307086614173},{"duration":0.11111099999999396,"midi":61,"time":112.666554,"velocity":0.3543307086614173},{"duration":0.05555550000001119,"midi":80,"time":112.8332205,"velocity":0.3543307086614173},{"duration":0.22222199999998793,"midi":81,"time":112.88877600000001,"velocity":0.3543307086614173},{"duration":0.11111099999999396,"midi":57,"time":112.88877600000001,"velocity":0.3543307086614173},{"duration":0.11111100000000818,"midi":65,"time":113.110998,"velocity":0.3543307086614173},{"duration":0.11111100000000818,"midi":60,"time":113.110998,"velocity":0.3543307086614173},{"duration":0.05555549999999698,"midi":80,"time":113.1665535,"velocity":0.3543307086614173},{"duration":0.11111099999999396,"midi":79,"time":113.222109,"velocity":0.3543307086614173},{"duration":0.11111100000000818,"midi":53,"time":113.33322,"velocity":0.3543307086614173},{"duration":0.11111100000000818,"midi":77,"time":113.555442,"velocity":0.3543307086614173},{"duration":0.11111100000000818,"midi":60,"time":113.555442,"velocity":0.3543307086614173},{"duration":0.11111100000000818,"midi":65,"time":113.555442,"velocity":0.3543307086614173},{"duration":1.777776000000003,"midi":41,"time":113.777664,"velocity":0.3543307086614173},{"duration":1.777776000000003,"midi":53,"time":113.777664,"velocity":0.3543307086614173},{"duration":1.777776000000003,"midi":34,"time":113.777664,"velocity":0.3543307086614173},{"duration":1.777776000000003,"midi":46,"time":113.777664,"velocity":0.3543307086614173},{"duration":1.777776000000003,"midi":52,"time":115.55544,"velocity":0.3543307086614173},{"duration":1.777776000000003,"midi":40,"time":115.55544,"velocity":0.3543307086614173},{"duration":1.777776000000003,"midi":34,"time":115.55544,"velocity":0.3543307086614173},{"duration":1.777776000000003,"midi":46,"time":115.55544,"velocity":0.3543307086614173},{"duration":1.7777759999999887,"midi":34,"time":117.33321600000001,"velocity":0.3543307086614173},{"duration":1.7777759999999887,"midi":46,"time":117.33321600000001,"velocity":0.3543307086614173},{"duration":1.7777759999999887,"midi":41,"time":117.33321600000001,"velocity":0.3543307086614173},{"duration":1.7777759999999887,"midi":53,"time":117.33321600000001,"velocity":0.3543307086614173},{"duration":1.777776000000003,"midi":34,"time":119.110992,"velocity":0.3543307086614173},{"duration":1.777776000000003,"midi":56,"time":119.110992,"velocity":0.3543307086614173},{"duration":1.777776000000003,"midi":40,"time":119.110992,"velocity":0.3543307086614173},{"duration":1.777776000000003,"midi":46,"time":119.110992,"velocity":0.3543307086614173},{"duration":1.777776000000003,"midi":53,"time":120.888768,"velocity":0.3543307086614173},{"duration":1.777776000000003,"midi":49,"time":120.888768,"velocity":0.3543307086614173},{"duration":1.777776000000003,"midi":34,"time":120.888768,"velocity":0.3543307086614173},{"duration":1.777776000000003,"midi":46,"time":120.888768,"velocity":0.3543307086614173},{"duration":1.777776000000003,"midi":41,"time":120.888768,"velocity":0.3543307086614173},{"duration":1.777776000000003,"midi":34,"time":122.666544,"velocity":0.3543307086614173},{"duration":1.777776000000003,"midi":40,"time":122.666544,"velocity":0.3543307086614173},{"duration":1.777776000000003,"midi":46,"time":122.666544,"velocity":0.3543307086614173},{"duration":1.777776000000003,"midi":52,"time":122.666544,"velocity":0.3543307086614173},{"duration":1.777776000000003,"midi":48,"time":122.666544,"velocity":0.3543307086614173},{"duration":1.777776000000003,"midi":34,"time":124.44432,"velocity":0.3543307086614173},{"duration":1.777776000000003,"midi":53,"time":124.44432,"velocity":0.3543307086614173},{"duration":1.777776000000003,"midi":41,"time":124.44432,"velocity":0.3543307086614173},{"duration":1.777776000000003,"midi":49,"time":124.44432,"velocity":0.3543307086614173},{"duration":1.777776000000003,"midi":46,"time":124.44432,"velocity":0.3543307086614173},{"duration":1.7777759999999887,"midi":40,"time":126.22209600000001,"velocity":0.3543307086614173},{"duration":1.7777759999999887,"midi":52,"time":126.22209600000001,"velocity":0.3543307086614173},{"duration":1.7777759999999887,"midi":56,"time":126.22209600000001,"velocity":0.3543307086614173},{"duration":1.7777759999999887,"midi":34,"time":126.22209600000001,"velocity":0.3543307086614173},{"duration":1.7777759999999887,"midi":46,"time":126.22209600000001,"velocity":0.3543307086614173},{"duration":0.11111099999999396,"midi":51,"time":128.222094,"velocity":0.3543307086614173},{"duration":0.11111099999999396,"midi":63,"time":128.222094,"velocity":0.3543307086614173},{"duration":0.11111099999999396,"midi":51,"time":128.555427,"velocity":0.3543307086614173},{"duration":0.11111099999999396,"midi":63,"time":128.555427,"velocity":0.3543307086614173},{"duration":0.11111100000002239,"midi":63,"time":128.88876,"velocity":0.3543307086614173},{"duration":0.11111100000002239,"midi":51,"time":128.88876,"velocity":0.3543307086614173},{"duration":0.11111099999999396,"midi":66,"time":129.222093,"velocity":0.3543307086614173},{"duration":0.11111099999999396,"midi":54,"time":129.222093,"velocity":0.3543307086614173},{"duration":0.11111099999999396,"midi":68,"time":129.555426,"velocity":0.3543307086614173},{"duration":0.11111099999999396,"midi":56,"time":129.555426,"velocity":0.3543307086614173},{"duration":0.11111099999999396,"midi":63,"time":129.99987000000002,"velocity":0.3543307086614173},{"duration":0.11111099999999396,"midi":51,"time":129.99987000000002,"velocity":0.3543307086614173},{"duration":0.11111099999999396,"midi":51,"time":130.333203,"velocity":0.3543307086614173},{"duration":0.11111099999999396,"midi":63,"time":130.333203,"velocity":0.3543307086614173},{"duration":0.11111099999999396,"midi":57,"time":130.666536,"velocity":0.3543307086614173},{"duration":0.11111099999999396,"midi":45,"time":130.666536,"velocity":0.3543307086614173},{"duration":0.11111100000002239,"midi":54,"time":130.999869,"velocity":0.3543307086614173},{"duration":0.11111100000002239,"midi":42,"time":130.999869,"velocity":0.3543307086614173},{"duration":0.11111099999999396,"midi":56,"time":131.333202,"velocity":0.3543307086614173},{"duration":0.11111099999999396,"midi":44,"time":131.333202,"velocity":0.3543307086614173},{"duration":0.11111099999999396,"midi":63,"time":131.777646,"velocity":0.3543307086614173},{"duration":0.11111099999999396,"midi":51,"time":131.777646,"velocity":0.3543307086614173},{"duration":0.11111099999999396,"midi":51,"time":132.11097900000001,"velocity":0.3543307086614173},{"duration":0.11111099999999396,"midi":63,"time":132.11097900000001,"velocity":0.3543307086614173},{"duration":0.11111099999999396,"midi":51,"time":132.444312,"velocity":0.3543307086614173},{"duration":0.11111099999999396,"midi":63,"time":132.444312,"velocity":0.3543307086614173},{"duration":0.11111099999999396,"midi":66,"time":132.777645,"velocity":0.3543307086614173},{"duration":0.11111099999999396,"midi":54,"time":132.777645,"velocity":0.3543307086614173},{"duration":0.11111100000002239,"midi":56,"time":133.110978,"velocity":0.3543307086614173},{"duration":0.11111100000002239,"midi":68,"time":133.110978,"velocity":0.3543307086614173},{"duration":0.11111099999999396,"midi":59,"time":133.3332,"velocity":0.3543307086614173},{"duration":0.11111099999999396,"midi":47,"time":133.3332,"velocity":0.3543307086614173},{"duration":0.11111099999999396,"midi":42,"time":133.66653300000002,"velocity":0.3543307086614173},{"duration":0.11111099999999396,"midi":54,"time":133.66653300000002,"velocity":0.3543307086614173},{"duration":0.11111099999999396,"midi":61,"time":133.999866,"velocity":0.3543307086614173},{"duration":0.11111099999999396,"midi":49,"time":133.999866,"velocity":0.3543307086614173},{"duration":0.05555549999999698,"midi":42,"time":134.44431,"velocity":0.3543307086614173},{"duration":0.05555549999999698,"midi":54,"time":134.44431,"velocity":0.3543307086614173},{"duration":0.027777750000012702,"midi":42,"time":134.555421,"velocity":0.2125984251968504},{"duration":0.027777750000012702,"midi":54,"time":134.555421,"velocity":0.2125984251968504},{"duration":0.11111100000002239,"midi":41,"time":134.666532,"velocity":0.3543307086614173},{"duration":0.11111100000002239,"midi":53,"time":134.666532,"velocity":0.3543307086614173},{"duration":0.11111099999999396,"midi":49,"time":134.888754,"velocity":0.3543307086614173},{"duration":0.11111099999999396,"midi":37,"time":134.888754,"velocity":0.3543307086614173},{"duration":0.11111099999999396,"midi":51,"time":135.333198,"velocity":0.3543307086614173},{"duration":0.11111099999999396,"midi":63,"time":135.333198,"velocity":0.3543307086614173},{"duration":0.11111100000002239,"midi":63,"time":135.666531,"velocity":0.3543307086614173},{"duration":0.11111100000002239,"midi":51,"time":135.666531,"velocity":0.3543307086614173},{"duration":0.11111099999999396,"midi":63,"time":135.999864,"velocity":0.3543307086614173},{"duration":0.11111099999999396,"midi":51,"time":135.999864,"velocity":0.3543307086614173},{"duration":0.11111099999999396,"midi":54,"time":136.333197,"velocity":0.3543307086614173},{"duration":0.11111099999999396,"midi":66,"time":136.333197,"velocity":0.3543307086614173},{"duration":0.11111099999999396,"midi":56,"time":136.66653,"velocity":0.3543307086614173},{"duration":0.11111099999999396,"midi":68,"time":136.66653,"velocity":0.3543307086614173},{"duration":0.11111099999999396,"midi":51,"time":137.110974,"velocity":0.3543307086614173},{"duration":0.11111099999999396,"midi":63,"time":137.110974,"velocity":0.3543307086614173},{"duration":0.11111099999999396,"midi":63,"time":137.444307,"velocity":0.3543307086614173},{"duration":0.11111099999999396,"midi":51,"time":137.444307,"velocity":0.3543307086614173},{"duration":0.11111100000002239,"midi":45,"time":137.77764,"velocity":0.3543307086614173},{"duration":0.11111100000002239,"midi":57,"time":137.77764,"velocity":0.3543307086614173},{"duration":0.11111099999999396,"midi":54,"time":138.110973,"velocity":0.3543307086614173},{"duration":0.11111099999999396,"midi":42,"time":138.110973,"velocity":0.3543307086614173},{"duration":0.11111099999999396,"midi":44,"time":138.444306,"velocity":0.3543307086614173},{"duration":0.11111099999999396,"midi":56,"time":138.444306,"velocity":0.3543307086614173},{"duration":0.11111099999999396,"midi":51,"time":138.88875000000002,"velocity":0.3543307086614173},{"duration":0.11111099999999396,"midi":63,"time":138.88875000000002,"velocity":0.3543307086614173},{"duration":0.11111099999999396,"midi":51,"time":139.222083,"velocity":0.3543307086614173},{"duration":0.11111099999999396,"midi":63,"time":139.222083,"velocity":0.3543307086614173},{"duration":0.11111099999999396,"midi":63,"time":139.555416,"velocity":0.3543307086614173},{"duration":0.11111099999999396,"midi":51,"time":139.555416,"velocity":0.3543307086614173},{"duration":0.11111100000002239,"midi":54,"time":139.888749,"velocity":0.3543307086614173},{"duration":0.11111100000002239,"midi":66,"time":139.888749,"velocity":0.3543307086614173},{"duration":0.11111099999999396,"midi":68,"time":140.222082,"velocity":0.3543307086614173},{"duration":0.11111099999999396,"midi":56,"time":140.222082,"velocity":0.3543307086614173},{"duration":0.11111099999999396,"midi":58,"time":142.22208,"velocity":0.3543307086614173},{"duration":0.11111099999999396,"midi":70,"time":142.22208,"velocity":0.3543307086614173},{"duration":0.11111100000002239,"midi":65,"time":142.444302,"velocity":0.3543307086614173},{"duration":0.11111100000002239,"midi":73,"time":142.444302,"velocity":0.3543307086614173},{"duration":0.11111100000002239,"midi":61,"time":142.444302,"velocity":0.3543307086614173},{"duration":0.11111099999999396,"midi":53,"time":142.666524,"velocity":0.3543307086614173},{"duration":0.11111099999999396,"midi":77,"time":142.666524,"velocity":0.3543307086614173},{"duration":0.11111099999999396,"midi":65,"time":142.888746,"velocity":0.3543307086614173},{"duration":0.11111099999999396,"midi":79,"time":142.888746,"velocity":0.3543307086614173},{"duration":0.11111099999999396,"midi":61,"time":142.888746,"velocity":0.3543307086614173},{"duration":0.055555500000025404,"midi":80,"time":143.0554125,"velocity":0.3543307086614173},{"duration":0.11111099999999396,"midi":57,"time":143.110968,"velocity":0.3543307086614173},{"duration":0.22222199999998793,"midi":81,"time":143.110968,"velocity":0.3543307086614173},{"duration":0.11111099999999396,"midi":65,"time":143.33319,"velocity":0.3543307086614173},{"duration":0.11111099999999396,"midi":60,"time":143.33319,"velocity":0.3543307086614173},{"duration":0.05555549999999698,"midi":80,"time":143.3887455,"velocity":0.3543307086614173},{"duration":0.11111099999999396,"midi":79,"time":143.444301,"velocity":0.3543307086614173},{"duration":0.11111100000002239,"midi":53,"time":143.555412,"velocity":0.3543307086614173},{"duration":0.11111099999999396,"midi":77,"time":143.777634,"velocity":0.3543307086614173},{"duration":0.11111099999999396,"midi":65,"time":143.777634,"velocity":0.3543307086614173},{"duration":0.11111099999999396,"midi":60,"time":143.777634,"velocity":0.3543307086614173},{"duration":0.11111099999999396,"midi":58,"time":143.999856,"velocity":0.3543307086614173},{"duration":0.11111099999999396,"midi":70,"time":143.999856,"velocity":0.3543307086614173},{"duration":0.11111099999999396,"midi":65,"time":144.222078,"velocity":0.3543307086614173},{"duration":0.11111099999999396,"midi":73,"time":144.222078,"velocity":0.3543307086614173},{"duration":0.11111099999999396,"midi":61,"time":144.222078,"velocity":0.3543307086614173},{"duration":0.11111099999999396,"midi":53,"time":144.4443,"velocity":0.3543307086614173},{"duration":0.11111099999999396,"midi":77,"time":144.4443,"velocity":0.3543307086614173},{"duration":0.11111099999999396,"midi":65,"time":144.66652200000001,"velocity":0.3543307086614173},{"duration":0.11111099999999396,"midi":61,"time":144.66652200000001,"velocity":0.3543307086614173},{"duration":0.11111099999999396,"midi":79,"time":144.66652200000001,"velocity":0.3543307086614173},{"duration":0.05555549999999698,"midi":80,"time":144.8331885,"velocity":0.3543307086614173},{"duration":0.22222199999998793,"midi":81,"time":144.888744,"velocity":0.3543307086614173},{"duration":0.11111099999999396,"midi":57,"time":144.888744,"velocity":0.3543307086614173},{"duration":0.11111100000002239,"midi":65,"time":145.110966,"velocity":0.3543307086614173},{"duration":0.11111100000002239,"midi":60,"time":145.110966,"velocity":0.3543307086614173},{"duration":0.05555549999999698,"midi":80,"time":145.16652150000002,"velocity":0.3543307086614173},{"duration":0.11111099999999396,"midi":79,"time":145.222077,"velocity":0.3543307086614173},{"duration":0.11111099999999396,"midi":53,"time":145.333188,"velocity":0.3543307086614173},{"duration":0.11111099999999396,"midi":81,"time":145.55541,"velocity":0.3543307086614173},{"duration":0.11111099999999396,"midi":60,"time":145.55541,"velocity":0.3543307086614173},{"duration":0.11111099999999396,"midi":65,"time":145.55541,"velocity":0.3543307086614173}]},{"instrument":{"family":"synth lead","number":87,"name":"lead 8 (bass + lead)"},"notes":[{"duration":0.16666650000000516,"midi":46,"time":42.666624,"velocity":0.5118110236220472},{"duration":0.16666650000000516,"midi":34,"time":42.666624,"velocity":0.5118110236220472},{"duration":0.16666650000000516,"midi":43,"time":42.666624,"velocity":0.5118110236220472},{"duration":0.16666650000000516,"midi":31,"time":42.666624,"velocity":0.5118110236220472},{"duration":0.05555549999999698,"midi":41,"time":42.888846,"velocity":0.5118110236220472},{"duration":0.05555549999999698,"midi":53,"time":42.888846,"velocity":0.5118110236220472},{"duration":0.05555549999999698,"midi":49,"time":42.888846,"velocity":0.5118110236220472},{"duration":0.05555549999999698,"midi":37,"time":42.888846,"velocity":0.5118110236220472},{"duration":0.05555549999999698,"midi":37,"time":42.888846,"velocity":0.5118110236220472},{"duration":0.05555549999999698,"midi":49,"time":42.888846,"velocity":0.5118110236220472},{"duration":0.05555550000000409,"midi":53,"time":43.222179,"velocity":0.5118110236220472},{"duration":0.05555550000000409,"midi":41,"time":43.222179,"velocity":0.5118110236220472},{"duration":0.05555550000000409,"midi":49,"time":43.222179,"velocity":0.5118110236220472},{"duration":0.05555550000000409,"midi":37,"time":43.222179,"velocity":0.5118110236220472},{"duration":0.16666649999999805,"midi":37,"time":43.555512,"velocity":0.5118110236220472},{"duration":0.16666649999999805,"midi":34,"time":43.555512,"velocity":0.5118110236220472},{"duration":0.16666649999999805,"midi":46,"time":43.555512,"velocity":0.5118110236220472},{"duration":0.16666649999999805,"midi":49,"time":43.555512,"velocity":0.5118110236220472},{"duration":0.05555549999999698,"midi":40,"time":43.777734,"velocity":0.5118110236220472},{"duration":0.05555549999999698,"midi":40,"time":43.777734,"velocity":0.5118110236220472},{"duration":0.05555549999999698,"midi":56,"time":43.777734,"velocity":0.5118110236220472},{"duration":0.05555549999999698,"midi":52,"time":43.777734,"velocity":0.5118110236220472},{"duration":0.05555549999999698,"midi":52,"time":43.777734,"velocity":0.5118110236220472},{"duration":0.05555549999999698,"midi":44,"time":43.777734,"velocity":0.5118110236220472},{"duration":0.05555550000000409,"midi":52,"time":44.111067,"velocity":0.5118110236220472},{"duration":0.05555550000000409,"midi":40,"time":44.111067,"velocity":0.5118110236220472},{"duration":0.05555550000000409,"midi":44,"time":44.111067,"velocity":0.5118110236220472},{"duration":0.05555550000000409,"midi":56,"time":44.111067,"velocity":0.5118110236220472},{"duration":0.16666649999999805,"midi":36,"time":44.4444,"velocity":0.5118110236220472},{"duration":0.16666649999999805,"midi":48,"time":44.4444,"velocity":0.5118110236220472},{"duration":0.16666649999999805,"midi":45,"time":44.4444,"velocity":0.5118110236220472},{"duration":0.16666649999999805,"midi":33,"time":44.4444,"velocity":0.5118110236220472},{"duration":0.05555549999999698,"midi":43,"time":44.666622000000004,"velocity":0.5118110236220472},{"duration":0.05555549999999698,"midi":55,"time":44.666622000000004,"velocity":0.5118110236220472},{"duration":0.05555549999999698,"midi":52,"time":44.666622000000004,"velocity":0.5118110236220472},{"duration":0.05555549999999698,"midi":40,"time":44.666622000000004,"velocity":0.5118110236220472},{"duration":0.05555550000000409,"midi":55,"time":44.999955,"velocity":0.5118110236220472},{"duration":0.05555550000000409,"midi":43,"time":44.999955,"velocity":0.5118110236220472},{"duration":0.05555550000000409,"midi":52,"time":44.999955,"velocity":0.5118110236220472},{"duration":0.05555550000000409,"midi":40,"time":44.999955,"velocity":0.5118110236220472},{"duration":0.16666649999999805,"midi":40,"time":45.333288,"velocity":0.5118110236220472},{"duration":0.16666649999999805,"midi":37,"time":45.333288,"velocity":0.5118110236220472},{"duration":0.16666649999999805,"midi":49,"time":45.333288,"velocity":0.5118110236220472},{"duration":0.16666649999999805,"midi":52,"time":45.333288,"velocity":0.5118110236220472},{"duration":0.05555550000000409,"midi":44,"time":45.55551,"velocity":0.5118110236220472},{"duration":0.05555550000000409,"midi":56,"time":45.55551,"velocity":0.5118110236220472},{"duration":0.05555550000000409,"midi":59,"time":45.55551,"velocity":0.5118110236220472},{"duration":0.05555550000000409,"midi":47,"time":45.55551,"velocity":0.5118110236220472},{"duration":0.05555549999999698,"midi":56,"time":45.888843,"velocity":0.5118110236220472},{"duration":0.05555549999999698,"midi":59,"time":45.888843,"velocity":0.5118110236220472},{"duration":0.05555549999999698,"midi":47,"time":45.888843,"velocity":0.5118110236220472},{"duration":0.05555549999999698,"midi":44,"time":45.888843,"velocity":0.5118110236220472},{"duration":0.16666649999999805,"midi":34,"time":49.777728,"velocity":0.5118110236220472},{"duration":0.16666649999999805,"midi":46,"time":49.777728,"velocity":0.5118110236220472},{"duration":0.16666649999999805,"midi":31,"time":49.777728,"velocity":0.5118110236220472},{"duration":0.16666649999999805,"midi":43,"time":49.777728,"velocity":0.5118110236220472},{"duration":0.05555550000000409,"midi":49,"time":49.99995,"velocity":0.5118110236220472},{"duration":0.05555550000000409,"midi":49,"time":49.99995,"velocity":0.5118110236220472},{"duration":0.05555550000000409,"midi":53,"time":49.99995,"velocity":0.5118110236220472},{"duration":0.05555550000000409,"midi":37,"time":49.99995,"velocity":0.5118110236220472},{"duration":0.05555550000000409,"midi":37,"time":49.99995,"velocity":0.5118110236220472},{"duration":0.05555550000000409,"midi":41,"time":49.99995,"velocity":0.5118110236220472},{"duration":0.05555549999999698,"midi":37,"time":50.333283,"velocity":0.5118110236220472},{"duration":0.05555549999999698,"midi":49,"time":50.333283,"velocity":0.5118110236220472},{"duration":0.05555549999999698,"midi":41,"time":50.333283,"velocity":0.5118110236220472},{"duration":0.05555549999999698,"midi":53,"time":50.333283,"velocity":0.5118110236220472},{"duration":0.16666650000000516,"midi":37,"time":50.666616,"velocity":0.5118110236220472},{"duration":0.16666650000000516,"midi":34,"time":50.666616,"velocity":0.5118110236220472},{"duration":0.16666650000000516,"midi":46,"time":50.666616,"velocity":0.5118110236220472},{"duration":0.16666650000000516,"midi":49,"time":50.666616,"velocity":0.5118110236220472},{"duration":0.05555550000000409,"midi":40,"time":50.888838,"velocity":0.5118110236220472},{"duration":0.05555550000000409,"midi":40,"time":50.888838,"velocity":0.5118110236220472},{"duration":0.05555550000000409,"midi":56,"time":50.888838,"velocity":0.5118110236220472},{"duration":0.05555550000000409,"midi":52,"time":50.888838,"velocity":0.5118110236220472},{"duration":0.05555550000000409,"midi":52,"time":50.888838,"velocity":0.5118110236220472},{"duration":0.05555550000000409,"midi":44,"time":50.888838,"velocity":0.5118110236220472},{"duration":0.05555549999999698,"midi":52,"time":51.222171,"velocity":0.5118110236220472},{"duration":0.05555549999999698,"midi":40,"time":51.222171,"velocity":0.5118110236220472},{"duration":0.05555549999999698,"midi":44,"time":51.222171,"velocity":0.5118110236220472},{"duration":0.05555549999999698,"midi":56,"time":51.222171,"velocity":0.5118110236220472},{"duration":0.16666649999999805,"midi":36,"time":51.555504,"velocity":0.5118110236220472},{"duration":0.16666649999999805,"midi":48,"time":51.555504,"velocity":0.5118110236220472},{"duration":0.16666649999999805,"midi":45,"time":51.555504,"velocity":0.5118110236220472},{"duration":0.16666649999999805,"midi":33,"time":51.555504,"velocity":0.5118110236220472},{"duration":0.05555549999999698,"midi":43,"time":51.777726,"velocity":0.5118110236220472},{"duration":0.05555549999999698,"midi":55,"time":51.777726,"velocity":0.5118110236220472},{"duration":0.05555549999999698,"midi":52,"time":51.777726,"velocity":0.5118110236220472},{"duration":0.05555549999999698,"midi":40,"time":51.777726,"velocity":0.5118110236220472},{"duration":0.05555550000000409,"midi":55,"time":52.111059,"velocity":0.5118110236220472},{"duration":0.05555550000000409,"midi":43,"time":52.111059,"velocity":0.5118110236220472},{"duration":0.05555550000000409,"midi":52,"time":52.111059,"velocity":0.5118110236220472},{"duration":0.05555550000000409,"midi":40,"time":52.111059,"velocity":0.5118110236220472},{"duration":0.16666649999999805,"midi":40,"time":52.444392,"velocity":0.5118110236220472},{"duration":0.16666649999999805,"midi":37,"time":52.444392,"velocity":0.5118110236220472},{"duration":0.16666649999999805,"midi":49,"time":52.444392,"velocity":0.5118110236220472},{"duration":0.16666649999999805,"midi":52,"time":52.444392,"velocity":0.5118110236220472},{"duration":0.05555549999999698,"midi":44,"time":52.666614,"velocity":0.5118110236220472},{"duration":0.05555549999999698,"midi":56,"time":52.666614,"velocity":0.5118110236220472},{"duration":0.05555549999999698,"midi":59,"time":52.666614,"velocity":0.5118110236220472},{"duration":0.05555549999999698,"midi":47,"time":52.666614,"velocity":0.5118110236220472},{"duration":0.05555550000000409,"midi":56,"time":52.999947,"velocity":0.5118110236220472},{"duration":0.05555550000000409,"midi":59,"time":52.999947,"velocity":0.5118110236220472},{"duration":0.05555550000000409,"midi":47,"time":52.999947,"velocity":0.5118110236220472},{"duration":0.05555550000000409,"midi":44,"time":52.999947,"velocity":0.5118110236220472}]},{"instrument":{"family":"pipe","number":73,"name":"flute"},"notes":[{"duration":0.27777750000000623,"midi":65,"time":46.222176,"velocity":0.4409448818897638},{"duration":0.27777750000000623,"midi":82,"time":46.222176,"velocity":0.4409448818897638},{"duration":0.27777750000000623,"midi":80,"time":46.222176,"velocity":0.4409448818897638},{"duration":0.27777750000000623,"midi":68,"time":46.222176,"velocity":0.4409448818897638},{"duration":0.49999950000000126,"midi":77,"time":46.555509,"velocity":0.4409448818897638},{"duration":0.49999950000000126,"midi":65,"time":46.555509,"velocity":0.4409448818897638},{"duration":0.49999950000000126,"midi":68,"time":46.555509,"velocity":0.4409448818897638},{"duration":0.49999950000000126,"midi":82,"time":46.555509,"velocity":0.4409448818897638},{"duration":0.2777774999999991,"midi":82,"time":47.111064,"velocity":0.4409448818897638},{"duration":0.2777774999999991,"midi":65,"time":47.111064,"velocity":0.4409448818897638},{"duration":0.2777774999999991,"midi":80,"time":47.111064,"velocity":0.4409448818897638},{"duration":0.2777774999999991,"midi":68,"time":47.111064,"velocity":0.4409448818897638},{"duration":0.49999950000000126,"midi":68,"time":47.444397,"velocity":0.4409448818897638},{"duration":0.49999950000000126,"midi":65,"time":47.444397,"velocity":0.4409448818897638},{"duration":0.49999950000000126,"midi":82,"time":47.444397,"velocity":0.4409448818897638},{"duration":0.49999950000000126,"midi":77,"time":47.444397,"velocity":0.4409448818897638},{"duration":0.2777774999999991,"midi":65,"time":47.999952,"velocity":0.4409448818897638},{"duration":0.2777774999999991,"midi":68,"time":47.999952,"velocity":0.4409448818897638},{"duration":0.2777774999999991,"midi":82,"time":47.999952,"velocity":0.4409448818897638},{"duration":0.2777774999999991,"midi":80,"time":47.999952,"velocity":0.4409448818897638},{"duration":0.49999949999999416,"midi":82,"time":48.333285000000004,"velocity":0.4409448818897638},{"duration":0.49999949999999416,"midi":68,"time":48.333285000000004,"velocity":0.4409448818897638},{"duration":0.49999949999999416,"midi":77,"time":48.333285000000004,"velocity":0.4409448818897638},{"duration":0.49999949999999416,"midi":65,"time":48.333285000000004,"velocity":0.4409448818897638},{"duration":0.3888885000000002,"midi":82,"time":48.88884,"velocity":0.4409448818897638},{"duration":0.3888885000000002,"midi":68,"time":48.88884,"velocity":0.4409448818897638},{"duration":0.3888885000000002,"midi":65,"time":48.88884,"velocity":0.4409448818897638},{"duration":0.3888885000000002,"midi":80,"time":48.88884,"velocity":0.4409448818897638},{"duration":0.3888885000000002,"midi":65,"time":49.333284,"velocity":0.4409448818897638},{"duration":0.3888885000000002,"midi":82,"time":49.333284,"velocity":0.4409448818897638},{"duration":0.3888885000000002,"midi":70,"time":49.333284,"velocity":0.4409448818897638},{"duration":0.3888885000000002,"midi":77,"time":49.333284,"velocity":0.4409448818897638},{"duration":0.2777774999999991,"midi":65,"time":53.33328,"velocity":0.4409448818897638},{"duration":0.2777774999999991,"midi":82,"time":53.33328,"velocity":0.4409448818897638},{"duration":0.2777774999999991,"midi":68,"time":53.33328,"velocity":0.4409448818897638},{"duration":0.2777774999999991,"midi":80,"time":53.33328,"velocity":0.4409448818897638},{"duration":0.49999950000000126,"midi":68,"time":53.666613,"velocity":0.4409448818897638},{"duration":0.49999950000000126,"midi":65,"time":53.666613,"velocity":0.4409448818897638},{"duration":0.49999950000000126,"midi":82,"time":53.666613,"velocity":0.4409448818897638},{"duration":0.49999950000000126,"midi":77,"time":53.666613,"velocity":0.4409448818897638},{"duration":0.2777774999999991,"midi":82,"time":54.222168,"velocity":0.4409448818897638},{"duration":0.2777774999999991,"midi":65,"time":54.222168,"velocity":0.4409448818897638},{"duration":0.2777774999999991,"midi":80,"time":54.222168,"velocity":0.4409448818897638},{"duration":0.2777774999999991,"midi":68,"time":54.222168,"velocity":0.4409448818897638},{"duration":0.49999950000000126,"midi":82,"time":54.555501,"velocity":0.4409448818897638},{"duration":0.49999950000000126,"midi":65,"time":54.555501,"velocity":0.4409448818897638},{"duration":0.49999950000000126,"midi":68,"time":54.555501,"velocity":0.4409448818897638},{"duration":0.49999950000000126,"midi":77,"time":54.555501,"velocity":0.4409448818897638},{"duration":0.27777750000000623,"midi":82,"time":55.111056,"velocity":0.4409448818897638},{"duration":0.27777750000000623,"midi":80,"time":55.111056,"velocity":0.4409448818897638},{"duration":0.27777750000000623,"midi":65,"time":55.111056,"velocity":0.4409448818897638},{"duration":0.27777750000000623,"midi":68,"time":55.111056,"velocity":0.4409448818897638},{"duration":0.49999950000000126,"midi":77,"time":55.444389,"velocity":0.4409448818897638},{"duration":0.49999950000000126,"midi":82,"time":55.444389,"velocity":0.4409448818897638},{"duration":0.49999950000000126,"midi":65,"time":55.444389,"velocity":0.4409448818897638},{"duration":0.49999950000000126,"midi":68,"time":55.444389,"velocity":0.4409448818897638},{"duration":0.3888885000000002,"midi":68,"time":55.999944,"velocity":0.4409448818897638},{"duration":0.3888885000000002,"midi":82,"time":55.999944,"velocity":0.4409448818897638},{"duration":0.3888885000000002,"midi":65,"time":55.999944,"velocity":0.4409448818897638},{"duration":0.3888885000000002,"midi":80,"time":55.999944,"velocity":0.4409448818897638},{"duration":0.3888885000000002,"midi":65,"time":56.444388000000004,"velocity":0.4409448818897638},{"duration":0.3888885000000002,"midi":70,"time":56.444388000000004,"velocity":0.4409448818897638},{"duration":0.3888885000000002,"midi":77,"time":56.444388000000004,"velocity":0.4409448818897638},{"duration":0.3888885000000002,"midi":82,"time":56.444388000000004,"velocity":0.4409448818897638},{"duration":0.4444439999999972,"midi":65,"time":56.888832,"velocity":0.4409448818897638},{"duration":0.4444439999999972,"midi":82,"time":56.888832,"velocity":0.4409448818897638},{"duration":0.4444440000000043,"midi":82,"time":57.333276,"velocity":0.4409448818897638},{"duration":0.4444440000000043,"midi":65,"time":57.333276,"velocity":0.4409448818897638},{"duration":0.4444439999999972,"midi":65,"time":57.77772,"velocity":0.4409448818897638},{"duration":0.4444439999999972,"midi":82,"time":57.77772,"velocity":0.4409448818897638},{"duration":0.4444440000000043,"midi":65,"time":58.222164,"velocity":0.4409448818897638},{"duration":0.4444440000000043,"midi":82,"time":58.222164,"velocity":0.4409448818897638},{"duration":0.4444439999999972,"midi":65,"time":58.666608000000004,"velocity":0.4409448818897638},{"duration":0.4444439999999972,"midi":82,"time":58.666608000000004,"velocity":0.4409448818897638},{"duration":0.4444439999999972,"midi":82,"time":59.111052,"velocity":0.4409448818897638},{"duration":0.4444439999999972,"midi":65,"time":59.111052,"velocity":0.4409448818897638},{"duration":0.4444440000000043,"midi":82,"time":59.555496,"velocity":0.4409448818897638},{"duration":0.4444440000000043,"midi":65,"time":59.555496,"velocity":0.4409448818897638},{"duration":0.4444439999999972,"midi":65,"time":59.99994,"velocity":0.4409448818897638},{"duration":0.4444439999999972,"midi":82,"time":59.99994,"velocity":0.4409448818897638},{"duration":0.4444440000000043,"midi":65,"time":60.444384,"velocity":0.4409448818897638},{"duration":0.4444440000000043,"midi":82,"time":60.444384,"velocity":0.4409448818897638},{"duration":0.4444439999999972,"midi":82,"time":60.888828000000004,"velocity":0.4409448818897638},{"duration":0.4444439999999972,"midi":65,"time":60.888828000000004,"velocity":0.4409448818897638},{"duration":0.4444439999999972,"midi":82,"time":61.333272,"velocity":0.4409448818897638},{"duration":0.4444439999999972,"midi":65,"time":61.333272,"velocity":0.4409448818897638},{"duration":0.4444440000000043,"midi":65,"time":61.777716,"velocity":0.4409448818897638},{"duration":0.4444440000000043,"midi":82,"time":61.777716,"velocity":0.4409448818897638},{"duration":0.4444439999999972,"midi":82,"time":62.22216,"velocity":0.4409448818897638},{"duration":0.4444439999999972,"midi":65,"time":62.22216,"velocity":0.4409448818897638},{"duration":0.4444440000000043,"midi":82,"time":62.666604,"velocity":0.4409448818897638},{"duration":0.4444440000000043,"midi":65,"time":62.666604,"velocity":0.4409448818897638},{"duration":0.4444439999999972,"midi":82,"time":63.111048000000004,"velocity":0.4409448818897638},{"duration":0.4444439999999972,"midi":65,"time":63.111048000000004,"velocity":0.4409448818897638},{"duration":0.4444439999999972,"midi":82,"time":63.555492,"velocity":0.4409448818897638},{"duration":0.4444439999999972,"midi":65,"time":63.555492,"velocity":0.4409448818897638},{"duration":0.4444439999999972,"midi":82,"time":63.999936,"velocity":0.4409448818897638},{"duration":0.4444439999999972,"midi":65,"time":63.999936,"velocity":0.4409448818897638},{"duration":0.4444440000000043,"midi":82,"time":64.44438,"velocity":0.4409448818897638},{"duration":0.4444440000000043,"midi":65,"time":64.44438,"velocity":0.4409448818897638},{"duration":0.4444440000000043,"midi":82,"time":64.888824,"velocity":0.4409448818897638},{"duration":0.4444440000000043,"midi":65,"time":64.888824,"velocity":0.4409448818897638},{"duration":0.44444399999999007,"midi":82,"time":65.333268,"velocity":0.4409448818897638},{"duration":0.44444399999999007,"midi":65,"time":65.333268,"velocity":0.4409448818897638},{"duration":0.4444440000000043,"midi":65,"time":65.777712,"velocity":0.4409448818897638},{"duration":0.4444440000000043,"midi":82,"time":65.777712,"velocity":0.4409448818897638},{"duration":0.4444440000000043,"midi":65,"time":66.222156,"velocity":0.4409448818897638},{"duration":0.4444440000000043,"midi":82,"time":66.222156,"velocity":0.4409448818897638},{"duration":0.4444440000000043,"midi":82,"time":66.6666,"velocity":0.4409448818897638},{"duration":0.4444440000000043,"midi":65,"time":66.6666,"velocity":0.4409448818897638},{"duration":0.44444399999999007,"midi":65,"time":67.111044,"velocity":0.4409448818897638},{"duration":0.44444399999999007,"midi":82,"time":67.111044,"velocity":0.4409448818897638},{"duration":0.4444440000000043,"midi":82,"time":67.555488,"velocity":0.4409448818897638},{"duration":0.4444440000000043,"midi":65,"time":67.555488,"velocity":0.4409448818897638},{"duration":0.4444440000000043,"midi":82,"time":67.999932,"velocity":0.4409448818897638},{"duration":0.4444440000000043,"midi":65,"time":67.999932,"velocity":0.4409448818897638},{"duration":0.44444399999999007,"midi":65,"time":68.444376,"velocity":0.4409448818897638},{"duration":0.44444399999999007,"midi":82,"time":68.444376,"velocity":0.4409448818897638},{"duration":0.4444440000000043,"midi":82,"time":68.88882,"velocity":0.4409448818897638},{"duration":0.4444440000000043,"midi":65,"time":68.88882,"velocity":0.4409448818897638},{"duration":0.4444440000000043,"midi":65,"time":69.333264,"velocity":0.4409448818897638},{"duration":0.4444440000000043,"midi":82,"time":69.333264,"velocity":0.4409448818897638},{"duration":0.44444399999999007,"midi":65,"time":69.777708,"velocity":0.4409448818897638},{"duration":0.44444399999999007,"midi":82,"time":69.777708,"velocity":0.4409448818897638},{"duration":0.4444440000000043,"midi":65,"time":70.222152,"velocity":0.4409448818897638},{"duration":0.4444440000000043,"midi":82,"time":70.222152,"velocity":0.4409448818897638},{"duration":0.4444440000000043,"midi":82,"time":70.666596,"velocity":0.4409448818897638},{"duration":0.4444440000000043,"midi":65,"time":70.666596,"velocity":0.4409448818897638},{"duration":0.4444440000000043,"midi":82,"time":71.11104,"velocity":0.4409448818897638},{"duration":0.4444440000000043,"midi":65,"time":71.11104,"velocity":0.4409448818897638},{"duration":0.44444399999999007,"midi":82,"time":71.555484,"velocity":0.4409448818897638},{"duration":0.44444399999999007,"midi":65,"time":71.555484,"velocity":0.4409448818897638},{"duration":0.4444440000000043,"midi":65,"time":71.999928,"velocity":0.4409448818897638},{"duration":0.4444440000000043,"midi":82,"time":71.999928,"velocity":0.4409448818897638},{"duration":0.4444440000000043,"midi":82,"time":72.444372,"velocity":0.4409448818897638},{"duration":0.4444440000000043,"midi":65,"time":72.444372,"velocity":0.4409448818897638},{"duration":0.44444399999999007,"midi":82,"time":72.888816,"velocity":0.4409448818897638},{"duration":0.44444399999999007,"midi":65,"time":72.888816,"velocity":0.4409448818897638},{"duration":0.4444440000000043,"midi":82,"time":73.33326,"velocity":0.4409448818897638},{"duration":0.4444440000000043,"midi":65,"time":73.33326,"velocity":0.4409448818897638},{"duration":0.4444440000000043,"midi":65,"time":73.777704,"velocity":0.4409448818897638},{"duration":0.4444440000000043,"midi":82,"time":73.777704,"velocity":0.4409448818897638},{"duration":0.44444399999999007,"midi":65,"time":74.222148,"velocity":0.4409448818897638},{"duration":0.44444399999999007,"midi":82,"time":74.222148,"velocity":0.4409448818897638},{"duration":0.4444440000000043,"midi":82,"time":74.666592,"velocity":0.4409448818897638},{"duration":0.4444440000000043,"midi":65,"time":74.666592,"velocity":0.4409448818897638},{"duration":0.4444440000000043,"midi":65,"time":75.111036,"velocity":0.4409448818897638},{"duration":0.4444440000000043,"midi":82,"time":75.111036,"velocity":0.4409448818897638},{"duration":0.4444440000000043,"midi":65,"time":75.55548,"velocity":0.4409448818897638},{"duration":0.4444440000000043,"midi":82,"time":75.55548,"velocity":0.4409448818897638},{"duration":0.44444399999999007,"midi":65,"time":75.99992400000001,"velocity":0.4409448818897638},{"duration":0.44444399999999007,"midi":82,"time":75.99992400000001,"velocity":0.4409448818897638},{"duration":0.4444440000000043,"midi":82,"time":76.444368,"velocity":0.4409448818897638},{"duration":0.4444440000000043,"midi":65,"time":76.444368,"velocity":0.4409448818897638},{"duration":0.4444440000000043,"midi":82,"time":76.888812,"velocity":0.4409448818897638},{"duration":0.4444440000000043,"midi":65,"time":76.888812,"velocity":0.4409448818897638},{"duration":0.44444399999999007,"midi":65,"time":77.333256,"velocity":0.4409448818897638},{"duration":0.44444399999999007,"midi":82,"time":77.333256,"velocity":0.4409448818897638},{"duration":0.4444440000000043,"midi":65,"time":77.7777,"velocity":0.4409448818897638},{"duration":0.4444440000000043,"midi":82,"time":77.7777,"velocity":0.4409448818897638},{"duration":0.4444440000000043,"midi":82,"time":78.222144,"velocity":0.4409448818897638},{"duration":0.4444440000000043,"midi":65,"time":78.222144,"velocity":0.4409448818897638},{"duration":0.44444399999999007,"midi":82,"time":78.666588,"velocity":0.4409448818897638},{"duration":0.44444399999999007,"midi":65,"time":78.666588,"velocity":0.4409448818897638},{"duration":0.4444440000000043,"midi":82,"time":79.111032,"velocity":0.4409448818897638},{"duration":0.4444440000000043,"midi":65,"time":79.111032,"velocity":0.4409448818897638},{"duration":0.4444440000000043,"midi":65,"time":79.555476,"velocity":0.4409448818897638},{"duration":0.4444440000000043,"midi":82,"time":79.555476,"velocity":0.4409448818897638},{"duration":0.4444440000000043,"midi":82,"time":79.99992,"velocity":0.4409448818897638},{"duration":0.4444440000000043,"midi":65,"time":79.99992,"velocity":0.4409448818897638},{"duration":0.44444399999999007,"midi":65,"time":80.44436400000001,"velocity":0.4409448818897638},{"duration":0.44444399999999007,"midi":82,"time":80.44436400000001,"velocity":0.4409448818897638},{"duration":0.4444440000000043,"midi":82,"time":80.888808,"velocity":0.4409448818897638},{"duration":0.4444440000000043,"midi":65,"time":80.888808,"velocity":0.4409448818897638},{"duration":0.4444440000000043,"midi":82,"time":81.333252,"velocity":0.4409448818897638},{"duration":0.4444440000000043,"midi":65,"time":81.333252,"velocity":0.4409448818897638},{"duration":0.44444399999999007,"midi":82,"time":81.777696,"velocity":0.4409448818897638},{"duration":0.44444399999999007,"midi":65,"time":81.777696,"velocity":0.4409448818897638},{"duration":0.4444440000000043,"midi":82,"time":82.22214,"velocity":0.4409448818897638},{"duration":0.4444440000000043,"midi":65,"time":82.22214,"velocity":0.4409448818897638},{"duration":0.4444440000000043,"midi":65,"time":82.666584,"velocity":0.4409448818897638},{"duration":0.4444440000000043,"midi":82,"time":82.666584,"velocity":0.4409448818897638},{"duration":0.44444399999999007,"midi":65,"time":83.111028,"velocity":0.4409448818897638},{"duration":0.44444399999999007,"midi":82,"time":83.111028,"velocity":0.4409448818897638},{"duration":0.4444440000000043,"midi":65,"time":83.555472,"velocity":0.4409448818897638},{"duration":0.4444440000000043,"midi":82,"time":83.555472,"velocity":0.4409448818897638},{"duration":0.4444440000000043,"midi":82,"time":83.999916,"velocity":0.4409448818897638},{"duration":0.4444440000000043,"midi":65,"time":83.999916,"velocity":0.4409448818897638},{"duration":0.4444440000000043,"midi":65,"time":84.44436,"velocity":0.4409448818897638},{"duration":0.4444440000000043,"midi":82,"time":84.44436,"velocity":0.4409448818897638},{"duration":0.44444399999999007,"midi":82,"time":84.88880400000001,"velocity":0.4409448818897638},{"duration":0.44444399999999007,"midi":65,"time":84.88880400000001,"velocity":0.4409448818897638},{"duration":0.3888884999999931,"midi":73,"time":99.555456,"velocity":0.4409448818897638},{"duration":0.3888884999999931,"midi":76,"time":99.555456,"velocity":0.4409448818897638},{"duration":0.3888885000000073,"midi":75,"time":99.9999,"velocity":0.4409448818897638},{"duration":0.3888885000000073,"midi":72,"time":99.9999,"velocity":0.4409448818897638},{"duration":0.11111099999999396,"midi":70,"time":100.444344,"velocity":0.4409448818897638},{"duration":0.11111099999999396,"midi":70,"time":100.444344,"velocity":0.4409448818897638},{"duration":0.11111099999999396,"midi":73,"time":100.444344,"velocity":0.4409448818897638},{"duration":0.11111100000000818,"midi":72,"time":100.555455,"velocity":0.4409448818897638},{"duration":0.11111100000000818,"midi":72,"time":100.555455,"velocity":0.4409448818897638},{"duration":0.11111100000000818,"midi":75,"time":100.555455,"velocity":0.4409448818897638},{"duration":0.11111100000000818,"midi":70,"time":100.777677,"velocity":0.4409448818897638},{"duration":0.11111100000000818,"midi":65,"time":100.777677,"velocity":0.4409448818897638},{"duration":0.11111100000000818,"midi":65,"time":100.999899,"velocity":0.4409448818897638},{"duration":0.11111100000000818,"midi":68,"time":100.999899,"velocity":0.4409448818897638},{"duration":0.11111099999999396,"midi":69,"time":101.11101000000001,"velocity":0.4409448818897638},{"duration":0.11111099999999396,"midi":66,"time":101.11101000000001,"velocity":0.4409448818897638},{"duration":0.11111099999999396,"midi":67,"time":101.222121,"velocity":0.4409448818897638},{"duration":0.11111099999999396,"midi":70,"time":101.222121,"velocity":0.4409448818897638},{"duration":0.3888885000000073,"midi":76,"time":101.333232,"velocity":0.4409448818897638},{"duration":0.3888885000000073,"midi":73,"time":101.333232,"velocity":0.4409448818897638},{"duration":0.3888885000000073,"midi":75,"time":101.777676,"velocity":0.4409448818897638},{"duration":0.3888885000000073,"midi":72,"time":101.777676,"velocity":0.4409448818897638},{"duration":0.11111099999999396,"midi":70,"time":102.22212,"velocity":0.4409448818897638},{"duration":0.11111099999999396,"midi":73,"time":102.22212,"velocity":0.4409448818897638},{"duration":0.11111100000000818,"midi":75,"time":102.333231,"velocity":0.4409448818897638},{"duration":0.11111100000000818,"midi":72,"time":102.333231,"velocity":0.4409448818897638},{"duration":0.16666650000000516,"midi":80,"time":102.555453,"velocity":0.4409448818897638},{"duration":0.16666650000000516,"midi":76,"time":102.555453,"velocity":0.4409448818897638},{"duration":0.05555549999999698,"midi":80,"time":102.777675,"velocity":0.4409448818897638},{"duration":0.05555549999999698,"midi":76,"time":102.777675,"velocity":0.4409448818897638},{"duration":0.05555550000001119,"midi":80,"time":102.888786,"velocity":0.4409448818897638},{"duration":0.05555550000001119,"midi":76,"time":102.888786,"velocity":0.4409448818897638},{"duration":0.05555549999999698,"midi":76,"time":102.999897,"velocity":0.4409448818897638},{"duration":0.05555549999999698,"midi":80,"time":102.999897,"velocity":0.4409448818897638},{"duration":0.3888885000000073,"midi":76,"time":103.111008,"velocity":0.4409448818897638},{"duration":0.3888885000000073,"midi":73,"time":103.111008,"velocity":0.4409448818897638},{"duration":0.3888884999999931,"midi":75,"time":103.555452,"velocity":0.4409448818897638},{"duration":0.3888884999999931,"midi":72,"time":103.555452,"velocity":0.4409448818897638},{"duration":0.11111099999999396,"midi":70,"time":103.999896,"velocity":0.4409448818897638},{"duration":0.11111099999999396,"midi":70,"time":103.999896,"velocity":0.4409448818897638},{"duration":0.11111099999999396,"midi":73,"time":103.999896,"velocity":0.4409448818897638},{"duration":0.11111099999999396,"midi":72,"time":104.111007,"velocity":0.4409448818897638},{"duration":0.11111099999999396,"midi":72,"time":104.111007,"velocity":0.4409448818897638},{"duration":0.11111099999999396,"midi":75,"time":104.111007,"velocity":0.4409448818897638},{"duration":0.11111099999999396,"midi":65,"time":104.333229,"velocity":0.4409448818897638},{"duration":0.11111099999999396,"midi":70,"time":104.333229,"velocity":0.4409448818897638},{"duration":0.11111099999999396,"midi":65,"time":104.555451,"velocity":0.4409448818897638},{"duration":0.11111099999999396,"midi":68,"time":104.555451,"velocity":0.4409448818897638},{"duration":0.11111100000000818,"midi":69,"time":104.666562,"velocity":0.4409448818897638},{"duration":0.11111100000000818,"midi":66,"time":104.666562,"velocity":0.4409448818897638},{"duration":0.11111099999999396,"midi":70,"time":104.77767300000001,"velocity":0.4409448818897638},{"duration":0.11111099999999396,"midi":67,"time":104.77767300000001,"velocity":0.4409448818897638},{"duration":0.11111099999999396,"midi":73,"time":104.888784,"velocity":0.4409448818897638},{"duration":0.11111099999999396,"midi":76,"time":104.888784,"velocity":0.4409448818897638},{"duration":0.11111099999999396,"midi":77,"time":105.111006,"velocity":0.4409448818897638},{"duration":0.11111099999999396,"midi":80,"time":105.111006,"velocity":0.4409448818897638},{"duration":0.11111099999999396,"midi":75,"time":105.333228,"velocity":0.4409448818897638},{"duration":0.11111099999999396,"midi":72,"time":105.333228,"velocity":0.4409448818897638},{"duration":0.11111099999999396,"midi":79,"time":105.55545000000001,"velocity":0.4409448818897638},{"duration":0.11111099999999396,"midi":76,"time":105.55545000000001,"velocity":0.4409448818897638},{"duration":0.11111100000000818,"midi":74,"time":105.777672,"velocity":0.4409448818897638},{"duration":0.11111100000000818,"midi":71,"time":105.777672,"velocity":0.4409448818897638},{"duration":0.11111100000000818,"midi":78,"time":105.999894,"velocity":0.4409448818897638},{"duration":0.11111100000000818,"midi":75,"time":105.999894,"velocity":0.4409448818897638},{"duration":0.11111100000000818,"midi":73,"time":106.222116,"velocity":0.4409448818897638},{"duration":0.11111100000000818,"midi":70,"time":106.222116,"velocity":0.4409448818897638},{"duration":0.11111099999999396,"midi":74,"time":106.444338,"velocity":0.4409448818897638},{"duration":0.11111099999999396,"midi":77,"time":106.444338,"velocity":0.4409448818897638},{"duration":0.3888884999999931,"midi":76,"time":106.66656,"velocity":0.4409448818897638},{"duration":0.3888884999999931,"midi":73,"time":106.66656,"velocity":0.4409448818897638},{"duration":0.3888884999999931,"midi":72,"time":107.11100400000001,"velocity":0.4409448818897638},{"duration":0.3888884999999931,"midi":75,"time":107.11100400000001,"velocity":0.4409448818897638},{"duration":0.11111100000000818,"midi":70,"time":107.555448,"velocity":0.4409448818897638},{"duration":0.11111100000000818,"midi":70,"time":107.555448,"velocity":0.4409448818897638},{"duration":0.11111100000000818,"midi":73,"time":107.555448,"velocity":0.4409448818897638},{"duration":0.11111099999999396,"midi":75,"time":107.666559,"velocity":0.4409448818897638},{"duration":0.11111099999999396,"midi":72,"time":107.666559,"velocity":0.4409448818897638},{"duration":0.11111099999999396,"midi":72,"time":107.666559,"velocity":0.4409448818897638},{"duration":0.11111100000000818,"midi":65,"time":107.888781,"velocity":0.4409448818897638},{"duration":0.11111100000000818,"midi":70,"time":107.888781,"velocity":0.4409448818897638},{"duration":0.11111100000000818,"midi":65,"time":108.111003,"velocity":0.4409448818897638},{"duration":0.11111100000000818,"midi":68,"time":108.111003,"velocity":0.4409448818897638},{"duration":0.11111099999999396,"midi":66,"time":108.222114,"velocity":0.4409448818897638},{"duration":0.11111099999999396,"midi":69,"time":108.222114,"velocity":0.4409448818897638},{"duration":0.11111100000000818,"midi":70,"time":108.333225,"velocity":0.4409448818897638},{"duration":0.11111100000000818,"midi":67,"time":108.333225,"velocity":0.4409448818897638},{"duration":0.3888884999999931,"midi":73,"time":108.444336,"velocity":0.4409448818897638},{"duration":0.3888884999999931,"midi":76,"time":108.444336,"velocity":0.4409448818897638},{"duration":0.3888885000000073,"midi":75,"time":108.88878,"velocity":0.4409448818897638},{"duration":0.3888885000000073,"midi":72,"time":108.88878,"velocity":0.4409448818897638},{"duration":0.11111099999999396,"midi":73,"time":109.333224,"velocity":0.4409448818897638},{"duration":0.11111099999999396,"midi":70,"time":109.333224,"velocity":0.4409448818897638},{"duration":0.11111100000000818,"midi":75,"time":109.444335,"velocity":0.4409448818897638},{"duration":0.11111100000000818,"midi":72,"time":109.444335,"velocity":0.4409448818897638},{"duration":0.16666650000000516,"midi":80,"time":109.666557,"velocity":0.4409448818897638},{"duration":0.16666650000000516,"midi":76,"time":109.666557,"velocity":0.4409448818897638},{"duration":0.05555549999999698,"midi":76,"time":109.888779,"velocity":0.4409448818897638},{"duration":0.05555549999999698,"midi":80,"time":109.888779,"velocity":0.4409448818897638},{"duration":0.05555549999999698,"midi":76,"time":109.99989000000001,"velocity":0.4409448818897638},{"duration":0.05555549999999698,"midi":80,"time":109.99989000000001,"velocity":0.4409448818897638},{"duration":0.05555549999999698,"midi":80,"time":110.111001,"velocity":0.4409448818897638},{"duration":0.05555549999999698,"midi":76,"time":110.111001,"velocity":0.4409448818897638},{"duration":0.3888885000000073,"midi":73,"time":110.222112,"velocity":0.4409448818897638},{"duration":0.3888885000000073,"midi":76,"time":110.222112,"velocity":0.4409448818897638},{"duration":0.3888885000000073,"midi":72,"time":110.666556,"velocity":0.4409448818897638},{"duration":0.3888885000000073,"midi":75,"time":110.666556,"velocity":0.4409448818897638},{"duration":0.11111099999999396,"midi":73,"time":111.111,"velocity":0.4409448818897638},{"duration":0.11111099999999396,"midi":70,"time":111.111,"velocity":0.4409448818897638},{"duration":0.11111099999999396,"midi":70,"time":111.111,"velocity":0.4409448818897638},{"duration":0.11111100000000818,"midi":72,"time":111.222111,"velocity":0.4409448818897638},{"duration":0.11111100000000818,"midi":72,"time":111.222111,"velocity":0.4409448818897638},{"duration":0.11111100000000818,"midi":75,"time":111.222111,"velocity":0.4409448818897638},{"duration":0.11111100000000818,"midi":65,"time":111.444333,"velocity":0.4409448818897638},{"duration":0.11111100000000818,"midi":70,"time":111.444333,"velocity":0.4409448818897638},{"duration":0.11111099999999396,"midi":65,"time":111.666555,"velocity":0.4409448818897638},{"duration":0.11111099999999396,"midi":68,"time":111.666555,"velocity":0.4409448818897638},{"duration":0.11111100000000818,"midi":69,"time":111.777666,"velocity":0.4409448818897638},{"duration":0.11111100000000818,"midi":66,"time":111.777666,"velocity":0.4409448818897638},{"duration":0.11111099999999396,"midi":70,"time":111.888777,"velocity":0.4409448818897638},{"duration":0.11111099999999396,"midi":67,"time":111.888777,"velocity":0.4409448818897638}]},{"instrument":{"family":"reed","number":64,"name":"soprano sax"},"notes":[{"duration":0.055555500000000535,"midi":58,"time":14.222208,"velocity":0.4409448818897638},{"duration":0.05555549999999876,"midi":65,"time":14.44443,"velocity":0.4409448818897638},{"duration":0.055555500000000535,"midi":65,"time":14.777763,"velocity":0.4409448818897638},{"duration":0.055555500000000535,"midi":65,"time":15.111096,"velocity":0.4409448818897638},{"duration":0.05555549999999876,"midi":64,"time":15.222207000000001,"velocity":0.4409448818897638},{"duration":0.055555500000000535,"midi":58,"time":15.333318,"velocity":0.4409448818897638},{"duration":0.055555500000000535,"midi":65,"time":15.444429,"velocity":0.4409448818897638},{"duration":0.22222200000000036,"midi":68,"time":15.55554,"velocity":0.4409448818897638},{"duration":0.05555550000000231,"midi":58,"time":15.999984,"velocity":0.4409448818897638},{"duration":0.055555500000000535,"midi":65,"time":16.222206,"velocity":0.4409448818897638},{"duration":0.055555500000000535,"midi":65,"time":16.555539,"velocity":0.4409448818897638},{"duration":0.055555500000000535,"midi":65,"time":16.888872,"velocity":0.4409448818897638},{"duration":0.055555500000000535,"midi":64,"time":16.999983,"velocity":0.4409448818897638},{"duration":0.055555500000000535,"midi":58,"time":17.111094,"velocity":0.4409448818897638},{"duration":0.055555500000000535,"midi":61,"time":17.222205,"velocity":0.4409448818897638},{"duration":0.2222219999999986,"midi":63,"time":17.333316,"velocity":0.4409448818897638},{"duration":0.055555500000000535,"midi":58,"time":17.77776,"velocity":0.4409448818897638},{"duration":0.055555500000000535,"midi":65,"time":17.999982,"velocity":0.4409448818897638},{"duration":0.055555500000000535,"midi":65,"time":18.333315,"velocity":0.4409448818897638},{"duration":0.055555500000000535,"midi":65,"time":18.666648,"velocity":0.4409448818897638},{"duration":0.055555500000000535,"midi":64,"time":18.777759,"velocity":0.4409448818897638},{"duration":0.055555500000000535,"midi":58,"time":18.88887,"velocity":0.4409448818897638},{"duration":0.05555549999999698,"midi":65,"time":18.999981000000002,"velocity":0.4409448818897638},{"duration":0.22222200000000214,"midi":68,"time":19.111092,"velocity":0.4409448818897638},{"duration":0.055555500000000535,"midi":58,"time":19.555536,"velocity":0.4409448818897638},{"duration":0.055555500000000535,"midi":65,"time":19.777758,"velocity":0.4409448818897638},{"duration":0.05555549999999698,"midi":65,"time":20.111091000000002,"velocity":0.4409448818897638},{"duration":0.055555500000000535,"midi":70,"time":20.444424,"velocity":0.4409448818897638},{"duration":0.055555500000000535,"midi":70,"time":20.555535,"velocity":0.4409448818897638},{"duration":0.055555500000000535,"midi":70,"time":20.666646,"velocity":0.4409448818897638},{"duration":0.055555500000000535,"midi":70,"time":20.777757,"velocity":0.4409448818897638},{"duration":0.055555500000000535,"midi":66,"time":20.888868,"velocity":0.4409448818897638},{"duration":0.055555500000000535,"midi":66,"time":20.999979,"velocity":0.4409448818897638},{"duration":0.055555500000000535,"midi":66,"time":21.11109,"velocity":0.4409448818897638},{"duration":0.05555549999999698,"midi":66,"time":21.222201000000002,"velocity":0.4409448818897638},{"duration":0.055555500000000535,"midi":58,"time":21.333312,"velocity":0.4409448818897638},{"duration":0.05555549999999698,"midi":65,"time":21.555534,"velocity":0.4409448818897638},{"duration":0.055555500000000535,"midi":65,"time":21.888867,"velocity":0.4409448818897638},{"duration":0.055555500000000535,"midi":65,"time":22.2222,"velocity":0.4409448818897638},{"duration":0.05555549999999698,"midi":64,"time":22.333311000000002,"velocity":0.4409448818897638},{"duration":0.055555500000000535,"midi":58,"time":22.444422,"velocity":0.4409448818897638},{"duration":0.055555500000000535,"midi":65,"time":22.555533,"velocity":0.4409448818897638},{"duration":0.2222219999999986,"midi":68,"time":22.666644,"velocity":0.4409448818897638},{"duration":0.055555500000000535,"midi":58,"time":23.111088,"velocity":0.4409448818897638},{"duration":0.055555500000000535,"midi":65,"time":23.33331,"velocity":0.4409448818897638},{"duration":0.055555500000000535,"midi":65,"time":23.666643,"velocity":0.4409448818897638},{"duration":0.055555500000000535,"midi":65,"time":23.999976,"velocity":0.4409448818897638},{"duration":0.055555500000000535,"midi":64,"time":24.111087,"velocity":0.4409448818897638},{"duration":0.055555500000000535,"midi":58,"time":24.222198,"velocity":0.4409448818897638},{"duration":0.055555500000000535,"midi":61,"time":24.333309,"velocity":0.4409448818897638},{"duration":0.2222219999999986,"midi":63,"time":24.44442,"velocity":0.4409448818897638},{"duration":0.05555549999999698,"midi":58,"time":24.888864,"velocity":0.4409448818897638},{"duration":0.055555500000000535,"midi":65,"time":25.111086,"velocity":0.4409448818897638},{"duration":0.055555500000000535,"midi":65,"time":25.444419,"velocity":0.4409448818897638},{"duration":0.055555500000000535,"midi":65,"time":25.777752,"velocity":0.4409448818897638},{"duration":0.055555500000000535,"midi":64,"time":25.888863,"velocity":0.4409448818897638},{"duration":0.05555549999999698,"midi":58,"time":25.999974,"velocity":0.4409448818897638},{"duration":0.055555500000000535,"midi":65,"time":26.111085,"velocity":0.4409448818897638},{"duration":0.2222219999999986,"midi":68,"time":26.222196,"velocity":0.4409448818897638},{"duration":0.055555500000000535,"midi":58,"time":26.66664,"velocity":0.4409448818897638},{"duration":0.055555500000000535,"midi":65,"time":26.888862,"velocity":0.4409448818897638},{"duration":0.055555500000000535,"midi":65,"time":27.222195,"velocity":0.4409448818897638},{"duration":0.055555500000000535,"midi":70,"time":27.555528,"velocity":0.4409448818897638},{"duration":0.055555500000000535,"midi":70,"time":27.666639,"velocity":0.4409448818897638},{"duration":0.055555500000000535,"midi":70,"time":27.77775,"velocity":0.4409448818897638},{"duration":0.05555549999999698,"midi":70,"time":27.888861000000002,"velocity":0.4409448818897638},{"duration":0.055555500000000535,"midi":66,"time":27.999972,"velocity":0.4409448818897638},{"duration":0.055555500000000535,"midi":66,"time":28.111083,"velocity":0.4409448818897638},{"duration":0.05555549999999698,"midi":66,"time":28.222194000000002,"velocity":0.4409448818897638},{"duration":0.055555500000000535,"midi":66,"time":28.333305,"velocity":0.4409448818897638},{"duration":0.05555550000000409,"midi":58,"time":42.666624,"velocity":0.4409448818897638},{"duration":0.05555549999999698,"midi":65,"time":42.888846,"velocity":0.4409448818897638},{"duration":0.05555550000000409,"midi":65,"time":43.222179,"velocity":0.4409448818897638},{"duration":0.05555549999999698,"midi":61,"time":43.555512,"velocity":0.4409448818897638},{"duration":0.05555549999999698,"midi":68,"time":43.777734,"velocity":0.4409448818897638},{"duration":0.05555550000000409,"midi":68,"time":44.111067,"velocity":0.4409448818897638},{"duration":0.05555549999999698,"midi":60,"time":44.4444,"velocity":0.4409448818897638},{"duration":0.05555549999999698,"midi":67,"time":44.666622000000004,"velocity":0.4409448818897638},{"duration":0.05555550000000409,"midi":67,"time":44.999955,"velocity":0.4409448818897638},{"duration":0.05555549999999698,"midi":64,"time":45.333288,"velocity":0.4409448818897638},{"duration":0.05555550000000409,"midi":71,"time":45.55551,"velocity":0.4409448818897638},{"duration":0.05555549999999698,"midi":71,"time":45.888843,"velocity":0.4409448818897638},{"duration":0.05555549999999698,"midi":58,"time":49.777728,"velocity":0.4409448818897638},{"duration":0.05555550000000409,"midi":65,"time":49.99995,"velocity":0.4409448818897638},{"duration":0.05555549999999698,"midi":65,"time":50.333283,"velocity":0.4409448818897638},{"duration":0.05555550000000409,"midi":61,"time":50.666616,"velocity":0.4409448818897638},{"duration":0.05555550000000409,"midi":68,"time":50.888838,"velocity":0.4409448818897638},{"duration":0.05555549999999698,"midi":68,"time":51.222171,"velocity":0.4409448818897638},{"duration":0.05555550000000409,"midi":60,"time":51.555504,"velocity":0.4409448818897638},{"duration":0.05555549999999698,"midi":67,"time":51.777726,"velocity":0.4409448818897638},{"duration":0.05555550000000409,"midi":67,"time":52.111059,"velocity":0.4409448818897638},{"duration":0.05555549999999698,"midi":64,"time":52.444392,"velocity":0.4409448818897638},{"duration":0.05555549999999698,"midi":71,"time":52.666614,"velocity":0.4409448818897638},{"duration":0.05555550000000409,"midi":71,"time":52.999947,"velocity":0.4409448818897638},{"duration":0.05555549999999698,"midi":58,"time":85.333248,"velocity":0.4409448818897638},{"duration":0.05555549999999698,"midi":65,"time":85.55547,"velocity":0.4409448818897638},{"duration":0.05555550000001119,"midi":65,"time":85.888803,"velocity":0.4409448818897638},{"duration":0.05555549999999698,"midi":65,"time":86.222136,"velocity":0.4409448818897638},{"duration":0.05555549999999698,"midi":64,"time":86.333247,"velocity":0.4409448818897638},{"duration":0.05555550000001119,"midi":58,"time":86.444358,"velocity":0.4409448818897638},{"duration":0.05555549999999698,"midi":65,"time":86.555469,"velocity":0.4409448818897638},{"duration":0.22222200000000214,"midi":68,"time":86.66658,"velocity":0.4409448818897638},{"duration":0.05555549999999698,"midi":58,"time":87.111024,"velocity":0.4409448818897638},{"duration":0.05555549999999698,"midi":65,"time":87.333246,"velocity":0.4409448818897638},{"duration":0.05555549999999698,"midi":65,"time":87.666579,"velocity":0.4409448818897638},{"duration":0.05555550000001119,"midi":65,"time":87.999912,"velocity":0.4409448818897638},{"duration":0.05555549999999698,"midi":64,"time":88.111023,"velocity":0.4409448818897638},{"duration":0.05555550000001119,"midi":58,"time":88.222134,"velocity":0.4409448818897638},{"duration":0.05555549999999698,"midi":61,"time":88.333245,"velocity":0.4409448818897638},{"duration":0.22222200000000214,"midi":63,"time":88.444356,"velocity":0.4409448818897638},{"duration":0.05555549999999698,"midi":58,"time":88.8888,"velocity":0.4409448818897638},{"duration":0.05555549999999698,"midi":65,"time":89.111022,"velocity":0.4409448818897638},{"duration":0.05555549999999698,"midi":65,"time":89.444355,"velocity":0.4409448818897638},{"duration":0.05555549999999698,"midi":65,"time":89.777688,"velocity":0.4409448818897638},{"duration":0.05555549999999698,"midi":64,"time":89.888799,"velocity":0.4409448818897638},{"duration":0.05555549999999698,"midi":58,"time":89.99991,"velocity":0.4409448818897638},{"duration":0.05555549999999698,"midi":65,"time":90.11102100000001,"velocity":0.4409448818897638},{"duration":0.22222200000000214,"midi":68,"time":90.222132,"velocity":0.4409448818897638},{"duration":0.05555549999999698,"midi":70,"time":90.666576,"velocity":0.4409448818897638},{"duration":0.05555550000001119,"midi":72,"time":90.888798,"velocity":0.4409448818897638},{"duration":0.05555549999999698,"midi":65,"time":90.999909,"velocity":0.4409448818897638},{"duration":0.05555549999999698,"midi":72,"time":91.222131,"velocity":0.4409448818897638},{"duration":0.05555549999999698,"midi":63,"time":91.333242,"velocity":0.4409448818897638},{"duration":0.05555549999999698,"midi":68,"time":91.555464,"velocity":0.4409448818897638},{"duration":0.05555549999999698,"midi":72,"time":91.777686,"velocity":0.4409448818897638},{"duration":0.11111100000000818,"midi":64,"time":91.888797,"velocity":0.4409448818897638},{"duration":0.05555549999999698,"midi":66,"time":91.999908,"velocity":0.4409448818897638},{"duration":0.05555549999999698,"midi":64,"time":92.0554635,"velocity":0.4409448818897638},{"duration":0.05555549999999698,"midi":63,"time":92.111019,"velocity":0.4409448818897638},{"duration":0.05555550000001119,"midi":64,"time":92.1665745,"velocity":0.4409448818897638},{"duration":0.05555549999999698,"midi":61,"time":92.22213,"velocity":0.4409448818897638},{"duration":0.05555549999999698,"midi":59,"time":92.2776855,"velocity":0.4409448818897638},{"duration":0.05555549999999698,"midi":58,"time":92.333241,"velocity":0.4409448818897638},{"duration":0.05555549999999698,"midi":56,"time":92.3887965,"velocity":0.4409448818897638},{"duration":0.05555550000001119,"midi":58,"time":92.444352,"velocity":0.4409448818897638},{"duration":0.05555549999999698,"midi":65,"time":92.666574,"velocity":0.4409448818897638},{"duration":0.05555549999999698,"midi":65,"time":92.99990700000001,"velocity":0.4409448818897638},{"duration":0.05555549999999698,"midi":65,"time":93.33324,"velocity":0.4409448818897638},{"duration":0.05555549999999698,"midi":64,"time":93.444351,"velocity":0.4409448818897638},{"duration":0.05555549999999698,"midi":58,"time":93.555462,"velocity":0.4409448818897638},{"duration":0.05555549999999698,"midi":65,"time":93.666573,"velocity":0.4409448818897638},{"duration":0.22222199999998793,"midi":68,"time":93.77768400000001,"velocity":0.4409448818897638},{"duration":0.05555550000001119,"midi":69,"time":93.999906,"velocity":0.4409448818897638},{"duration":0.05555549999999698,"midi":70,"time":94.222128,"velocity":0.4409448818897638},{"duration":0.05555549999999698,"midi":73,"time":94.44435,"velocity":0.4409448818897638},{"duration":0.05555549999999698,"midi":69,"time":94.666572,"velocity":0.4409448818897638},{"duration":0.05555549999999698,"midi":72,"time":94.888794,"velocity":0.4409448818897638},{"duration":0.05555549999999698,"midi":68,"time":95.111016,"velocity":0.4409448818897638},{"duration":0.05555550000001119,"midi":71,"time":95.333238,"velocity":0.4409448818897638},{"duration":0.05555550000001119,"midi":65,"time":95.55546,"velocity":0.4409448818897638},{"duration":0.05555549999999698,"midi":68,"time":95.777682,"velocity":0.4409448818897638},{"duration":0.05555549999999698,"midi":70,"time":95.999904,"velocity":0.4409448818897638},{"duration":0.05555549999999698,"midi":65,"time":96.222126,"velocity":0.4409448818897638},{"duration":0.05555549999999698,"midi":77,"time":96.444348,"velocity":0.4409448818897638},{"duration":0.05555549999999698,"midi":76,"time":96.555459,"velocity":0.4409448818897638},{"duration":0.05555549999999698,"midi":75,"time":96.777681,"velocity":0.4409448818897638},{"duration":0.05555549999999698,"midi":65,"time":96.999903,"velocity":0.4409448818897638},{"duration":0.05555549999999698,"midi":68,"time":97.111014,"velocity":0.4409448818897638},{"duration":0.05555549999999698,"midi":80,"time":97.222125,"velocity":0.4409448818897638},{"duration":0.05555549999999698,"midi":68,"time":97.555458,"velocity":0.4409448818897638},{"duration":0.05555549999999698,"midi":70,"time":97.77768,"velocity":0.4409448818897638},{"duration":0.05555549999999698,"midi":72,"time":97.999902,"velocity":0.4409448818897638},{"duration":0.05555549999999698,"midi":65,"time":98.111013,"velocity":0.4409448818897638},{"duration":0.05555549999999698,"midi":72,"time":98.333235,"velocity":0.4409448818897638},{"duration":0.05555550000001119,"midi":63,"time":98.444346,"velocity":0.4409448818897638},{"duration":0.05555549999999698,"midi":68,"time":98.666568,"velocity":0.4409448818897638},{"duration":0.05555549999999698,"midi":72,"time":98.88879,"velocity":0.4409448818897638},{"duration":0.11111099999999396,"midi":64,"time":98.99990100000001,"velocity":0.4409448818897638},{"duration":0.05555549999999698,"midi":66,"time":99.111012,"velocity":0.4409448818897638},{"duration":0.05555549999999698,"midi":64,"time":99.1665675,"velocity":0.4409448818897638},{"duration":0.05555550000001119,"midi":63,"time":99.222123,"velocity":0.4409448818897638},{"duration":0.05555549999999698,"midi":64,"time":99.27767850000001,"velocity":0.4409448818897638},{"duration":0.05555549999999698,"midi":61,"time":99.333234,"velocity":0.4409448818897638},{"duration":0.05555549999999698,"midi":59,"time":99.3887895,"velocity":0.4409448818897638},{"duration":0.05555549999999698,"midi":58,"time":99.444345,"velocity":0.4409448818897638},{"duration":0.05555550000001119,"midi":56,"time":99.4999005,"velocity":0.4409448818897638},{"duration":0.3888884999999931,"midi":64,"time":99.555456,"velocity":0.4409448818897638},{"duration":0.3888885000000073,"midi":63,"time":99.9999,"velocity":0.4409448818897638},{"duration":0.05555549999999698,"midi":61,"time":100.444344,"velocity":0.4409448818897638},{"duration":0.05555550000001119,"midi":63,"time":100.555455,"velocity":0.4409448818897638},{"duration":0.05555550000001119,"midi":58,"time":100.777677,"velocity":0.4409448818897638},{"duration":0.05555549999999698,"midi":56,"time":100.999899,"velocity":0.4409448818897638},{"duration":0.05555549999999698,"midi":57,"time":101.11101000000001,"velocity":0.4409448818897638},{"duration":0.05555549999999698,"midi":58,"time":101.222121,"velocity":0.4409448818897638},{"duration":0.3888885000000073,"midi":64,"time":101.333232,"velocity":0.4409448818897638},{"duration":0.3888885000000073,"midi":63,"time":101.777676,"velocity":0.4409448818897638},{"duration":0.05555549999999698,"midi":61,"time":102.22212,"velocity":0.4409448818897638},{"duration":0.05555549999999698,"midi":63,"time":102.333231,"velocity":0.4409448818897638},{"duration":0.05555549999999698,"midi":68,"time":102.555453,"velocity":0.4409448818897638},{"duration":0.05555549999999698,"midi":68,"time":102.777675,"velocity":0.4409448818897638},{"duration":0.05555550000001119,"midi":68,"time":102.888786,"velocity":0.4409448818897638},{"duration":0.05555549999999698,"midi":68,"time":102.999897,"velocity":0.4409448818897638},{"duration":0.3888885000000073,"midi":64,"time":103.111008,"velocity":0.4409448818897638},{"duration":0.3888884999999931,"midi":63,"time":103.555452,"velocity":0.4409448818897638},{"duration":0.05555549999999698,"midi":61,"time":103.999896,"velocity":0.4409448818897638},{"duration":0.05555549999999698,"midi":63,"time":104.111007,"velocity":0.4409448818897638},{"duration":0.05555549999999698,"midi":58,"time":104.333229,"velocity":0.4409448818897638},{"duration":0.05555549999999698,"midi":56,"time":104.555451,"velocity":0.4409448818897638},{"duration":0.05555549999999698,"midi":57,"time":104.666562,"velocity":0.4409448818897638},{"duration":0.05555549999999698,"midi":58,"time":104.77767300000001,"velocity":0.4409448818897638},{"duration":0.05555549999999698,"midi":64,"time":104.888784,"velocity":0.4409448818897638},{"duration":0.05555549999999698,"midi":68,"time":105.111006,"velocity":0.4409448818897638},{"duration":0.05555549999999698,"midi":63,"time":105.333228,"velocity":0.4409448818897638},{"duration":0.05555549999999698,"midi":67,"time":105.55545000000001,"velocity":0.4409448818897638},{"duration":0.05555550000001119,"midi":62,"time":105.777672,"velocity":0.4409448818897638},{"duration":0.05555549999999698,"midi":66,"time":105.999894,"velocity":0.4409448818897638},{"duration":0.05555549999999698,"midi":61,"time":106.222116,"velocity":0.4409448818897638},{"duration":0.05555549999999698,"midi":65,"time":106.444338,"velocity":0.4409448818897638},{"duration":0.3888884999999931,"midi":64,"time":106.66656,"velocity":0.4409448818897638},{"duration":0.3888884999999931,"midi":63,"time":107.11100400000001,"velocity":0.4409448818897638},{"duration":0.05555549999999698,"midi":61,"time":107.555448,"velocity":0.4409448818897638},{"duration":0.05555549999999698,"midi":63,"time":107.666559,"velocity":0.4409448818897638},{"duration":0.05555550000001119,"midi":58,"time":107.888781,"velocity":0.4409448818897638},{"duration":0.05555550000001119,"midi":56,"time":108.111003,"velocity":0.4409448818897638},{"duration":0.05555549999999698,"midi":57,"time":108.222114,"velocity":0.4409448818897638},{"duration":0.05555549999999698,"midi":58,"time":108.333225,"velocity":0.4409448818897638},{"duration":0.3888884999999931,"midi":64,"time":108.444336,"velocity":0.4409448818897638},{"duration":0.3888885000000073,"midi":63,"time":108.88878,"velocity":0.4409448818897638},{"duration":0.05555549999999698,"midi":61,"time":109.333224,"velocity":0.4409448818897638},{"duration":0.05555550000001119,"midi":63,"time":109.444335,"velocity":0.4409448818897638},{"duration":0.05555549999999698,"midi":68,"time":109.666557,"velocity":0.4409448818897638},{"duration":0.05555549999999698,"midi":68,"time":109.888779,"velocity":0.4409448818897638},{"duration":0.05555549999999698,"midi":68,"time":109.99989000000001,"velocity":0.4409448818897638},{"duration":0.05555549999999698,"midi":68,"time":110.111001,"velocity":0.4409448818897638},{"duration":0.3888885000000073,"midi":64,"time":110.222112,"velocity":0.4409448818897638},{"duration":0.3888885000000073,"midi":63,"time":110.666556,"velocity":0.4409448818897638},{"duration":0.05555549999999698,"midi":61,"time":111.111,"velocity":0.4409448818897638},{"duration":0.05555549999999698,"midi":63,"time":111.222111,"velocity":0.4409448818897638},{"duration":0.05555549999999698,"midi":58,"time":111.444333,"velocity":0.4409448818897638},{"duration":0.05555549999999698,"midi":56,"time":111.666555,"velocity":0.4409448818897638},{"duration":0.05555550000001119,"midi":57,"time":111.777666,"velocity":0.4409448818897638},{"duration":0.05555549999999698,"midi":58,"time":111.888777,"velocity":0.4409448818897638}]},{"instrument":{"family":"drums","number":0,"name":"standard kit"},"notes":[{"duration":0.1111109999999993,"midi":35,"time":14.222208,"velocity":0.5748031496062992},{"duration":0.1111109999999993,"midi":46,"time":14.222208,"velocity":0.5748031496062992},{"duration":0.1111109999999993,"midi":46,"time":14.44443,"velocity":0.5748031496062992},{"duration":0.1111109999999993,"midi":40,"time":14.44443,"velocity":0.5748031496062992},{"duration":0.11111100000000107,"midi":35,"time":14.555541,"velocity":0.5748031496062992},{"duration":0.1111109999999993,"midi":46,"time":14.666652000000001,"velocity":0.5748031496062992},{"duration":0.1111109999999993,"midi":35,"time":14.777763,"velocity":0.5748031496062992},{"duration":0.11111100000000107,"midi":46,"time":14.888874,"velocity":0.5748031496062992},{"duration":0.11111100000000107,"midi":40,"time":14.888874,"velocity":0.5748031496062992},{"duration":0.11111100000000107,"midi":46,"time":15.111096,"velocity":0.5748031496062992},{"duration":0.11111100000000107,"midi":35,"time":15.111096,"velocity":0.5748031496062992},{"duration":0.1111109999999993,"midi":40,"time":15.333318,"velocity":0.5748031496062992},{"duration":0.1111109999999993,"midi":35,"time":15.333318,"velocity":0.5748031496062992},{"duration":0.1111109999999993,"midi":46,"time":15.333318,"velocity":0.5748031496062992},{"duration":0.1111109999999993,"midi":35,"time":15.55554,"velocity":0.5748031496062992},{"duration":0.1111109999999993,"midi":46,"time":15.55554,"velocity":0.5748031496062992},{"duration":0.1111109999999993,"midi":40,"time":15.777762000000001,"velocity":0.5748031496062992},{"duration":0.1111109999999993,"midi":46,"time":15.777762000000001,"velocity":0.5748031496062992},{"duration":0.1111109999999993,"midi":35,"time":15.999984,"velocity":0.5748031496062992},{"duration":0.1111109999999993,"midi":46,"time":15.999984,"velocity":0.5748031496062992},{"duration":0.11111100000000107,"midi":40,"time":16.222206,"velocity":0.5748031496062992},{"duration":0.11111100000000107,"midi":46,"time":16.222206,"velocity":0.5748031496062992},{"duration":0.11111099999999752,"midi":35,"time":16.333317,"velocity":0.5748031496062992},{"duration":0.11111100000000107,"midi":46,"time":16.444428,"velocity":0.5748031496062992},{"duration":0.11111100000000107,"midi":35,"time":16.555539,"velocity":0.5748031496062992},{"duration":0.11111100000000107,"midi":46,"time":16.66665,"velocity":0.5748031496062992},{"duration":0.11111100000000107,"midi":40,"time":16.66665,"velocity":0.5748031496062992},{"duration":0.11111100000000107,"midi":35,"time":16.888872,"velocity":0.5748031496062992},{"duration":0.11111100000000107,"midi":46,"time":16.888872,"velocity":0.5748031496062992},{"duration":0.11111099999999752,"midi":40,"time":17.111094,"velocity":0.5748031496062992},{"duration":0.11111099999999752,"midi":35,"time":17.111094,"velocity":0.5748031496062992},{"duration":0.11111099999999752,"midi":46,"time":17.111094,"velocity":0.5748031496062992},{"duration":0.11111100000000107,"midi":46,"time":17.333316,"velocity":0.5748031496062992},{"duration":0.11111100000000107,"midi":35,"time":17.333316,"velocity":0.5748031496062992},{"duration":0.11111100000000107,"midi":46,"time":17.555538,"velocity":0.5748031496062992},{"duration":0.11111100000000107,"midi":40,"time":17.555538,"velocity":0.5748031496062992},{"duration":0.11111100000000107,"midi":35,"time":17.77776,"velocity":0.5748031496062992},{"duration":0.11111100000000107,"midi":46,"time":17.77776,"velocity":0.5748031496062992},{"duration":0.11111100000000107,"midi":46,"time":17.999982,"velocity":0.5748031496062992},{"duration":0.11111100000000107,"midi":40,"time":17.999982,"velocity":0.5748031496062992},{"duration":0.11111100000000107,"midi":35,"time":18.111093,"velocity":0.5748031496062992},{"duration":0.11111099999999752,"midi":46,"time":18.222204,"velocity":0.5748031496062992},{"duration":0.11111100000000107,"midi":35,"time":18.333315,"velocity":0.5748031496062992},{"duration":0.11111100000000107,"midi":40,"time":18.444426,"velocity":0.5748031496062992},{"duration":0.11111100000000107,"midi":46,"time":18.444426,"velocity":0.5748031496062992},{"duration":0.11111100000000107,"midi":46,"time":18.666648,"velocity":0.5748031496062992},{"duration":0.11111100000000107,"midi":35,"time":18.666648,"velocity":0.5748031496062992},{"duration":0.11111100000000107,"midi":46,"time":18.88887,"velocity":0.5748031496062992},{"duration":0.11111100000000107,"midi":40,"time":18.88887,"velocity":0.5748031496062992},{"duration":0.11111100000000107,"midi":35,"time":18.88887,"velocity":0.5748031496062992},{"duration":0.11111100000000107,"midi":46,"time":19.111092,"velocity":0.5748031496062992},{"duration":0.11111100000000107,"midi":35,"time":19.111092,"velocity":0.5748031496062992},{"duration":0.11111099999999752,"midi":46,"time":19.333314,"velocity":0.5748031496062992},{"duration":0.11111099999999752,"midi":40,"time":19.333314,"velocity":0.5748031496062992},{"duration":0.11111100000000107,"midi":35,"time":19.555536,"velocity":0.5748031496062992},{"duration":0.11111100000000107,"midi":46,"time":19.555536,"velocity":0.5748031496062992},{"duration":0.11111100000000107,"midi":40,"time":19.777758,"velocity":0.5748031496062992},{"duration":0.11111100000000107,"midi":46,"time":19.777758,"velocity":0.5748031496062992},{"duration":0.11111100000000107,"midi":35,"time":19.888869,"velocity":0.5748031496062992},{"duration":0.11111100000000107,"midi":46,"time":19.99998,"velocity":0.5748031496062992},{"duration":0.11111099999999752,"midi":35,"time":20.111091000000002,"velocity":0.5748031496062992},{"duration":0.11111100000000107,"midi":46,"time":20.222202,"velocity":0.5748031496062992},{"duration":0.11111100000000107,"midi":40,"time":20.222202,"velocity":0.5748031496062992},{"duration":0.11111099999999752,"midi":46,"time":20.444424,"velocity":0.5748031496062992},{"duration":0.11111099999999752,"midi":35,"time":20.444424,"velocity":0.5748031496062992},{"duration":0.11111100000000107,"midi":40,"time":20.666646,"velocity":0.5748031496062992},{"duration":0.11111100000000107,"midi":35,"time":20.666646,"velocity":0.5748031496062992},{"duration":0.11111100000000107,"midi":46,"time":20.666646,"velocity":0.5748031496062992},{"duration":0.11111100000000107,"midi":46,"time":20.888868,"velocity":0.5748031496062992},{"duration":0.11111100000000107,"midi":35,"time":20.888868,"velocity":0.5748031496062992},{"duration":0.11111100000000107,"midi":46,"time":21.11109,"velocity":0.5748031496062992},{"duration":0.11111100000000107,"midi":40,"time":21.11109,"velocity":0.5748031496062992},{"duration":0.11111100000000107,"midi":46,"time":21.333312,"velocity":0.5748031496062992},{"duration":0.11111100000000107,"midi":35,"time":21.333312,"velocity":0.5748031496062992},{"duration":0.11111099999999752,"midi":40,"time":21.555534,"velocity":0.5748031496062992},{"duration":0.11111099999999752,"midi":46,"time":21.555534,"velocity":0.5748031496062992},{"duration":0.11111100000000107,"midi":35,"time":21.666645,"velocity":0.5748031496062992},{"duration":0.11111100000000107,"midi":46,"time":21.777756,"velocity":0.5748031496062992},{"duration":0.11111099999999752,"midi":35,"time":21.888867,"velocity":0.5748031496062992},{"duration":0.11111100000000107,"midi":46,"time":21.999978,"velocity":0.5748031496062992},{"duration":0.11111100000000107,"midi":40,"time":21.999978,"velocity":0.5748031496062992},{"duration":0.11111100000000107,"midi":35,"time":22.2222,"velocity":0.5748031496062992},{"duration":0.11111100000000107,"midi":46,"time":22.2222,"velocity":0.5748031496062992},{"duration":0.11111100000000107,"midi":40,"time":22.444422,"velocity":0.5748031496062992},{"duration":0.11111100000000107,"midi":35,"time":22.444422,"velocity":0.5748031496062992},{"duration":0.11111100000000107,"midi":46,"time":22.444422,"velocity":0.5748031496062992},{"duration":0.11111099999999752,"midi":46,"time":22.666644,"velocity":0.5748031496062992},{"duration":0.11111099999999752,"midi":35,"time":22.666644,"velocity":0.5748031496062992},{"duration":0.11111100000000107,"midi":40,"time":22.888866,"velocity":0.5748031496062992},{"duration":0.11111100000000107,"midi":46,"time":22.888866,"velocity":0.5748031496062992},{"duration":0.11111100000000107,"midi":46,"time":23.111088,"velocity":0.5748031496062992},{"duration":0.11111100000000107,"midi":35,"time":23.111088,"velocity":0.5748031496062992},{"duration":0.11111100000000107,"midi":46,"time":23.33331,"velocity":0.5748031496062992},{"duration":0.11111100000000107,"midi":40,"time":23.33331,"velocity":0.5748031496062992},{"duration":0.11111099999999752,"midi":35,"time":23.444421000000002,"velocity":0.5748031496062992},{"duration":0.11111100000000107,"midi":46,"time":23.555532,"velocity":0.5748031496062992},{"duration":0.11111100000000107,"midi":35,"time":23.666643,"velocity":0.5748031496062992},{"duration":0.11111099999999752,"midi":46,"time":23.777754,"velocity":0.5748031496062992},{"duration":0.11111099999999752,"midi":40,"time":23.777754,"velocity":0.5748031496062992},{"duration":0.11111100000000107,"midi":46,"time":23.999976,"velocity":0.5748031496062992},{"duration":0.11111100000000107,"midi":35,"time":23.999976,"velocity":0.5748031496062992},{"duration":0.11111100000000107,"midi":40,"time":24.222198,"velocity":0.5748031496062992},{"duration":0.11111100000000107,"midi":35,"time":24.222198,"velocity":0.5748031496062992},{"duration":0.11111100000000107,"midi":46,"time":24.222198,"velocity":0.5748031496062992},{"duration":0.11111100000000107,"midi":35,"time":24.44442,"velocity":0.5748031496062992},{"duration":0.11111100000000107,"midi":46,"time":24.44442,"velocity":0.5748031496062992},{"duration":0.11111100000000107,"midi":46,"time":24.666642,"velocity":0.5748031496062992},{"duration":0.11111100000000107,"midi":40,"time":24.666642,"velocity":0.5748031496062992},{"duration":0.11111099999999752,"midi":35,"time":24.888864,"velocity":0.5748031496062992},{"duration":0.11111099999999752,"midi":46,"time":24.888864,"velocity":0.5748031496062992},{"duration":0.11111100000000107,"midi":46,"time":25.111086,"velocity":0.5748031496062992},{"duration":0.11111100000000107,"midi":40,"time":25.111086,"velocity":0.5748031496062992},{"duration":0.11111099999999752,"midi":35,"time":25.222197,"velocity":0.5748031496062992},{"duration":0.11111100000000107,"midi":46,"time":25.333308,"velocity":0.5748031496062992},{"duration":0.11111100000000107,"midi":35,"time":25.444419,"velocity":0.5748031496062992},{"duration":0.11111100000000107,"midi":46,"time":25.55553,"velocity":0.5748031496062992},{"duration":0.11111100000000107,"midi":40,"time":25.55553,"velocity":0.5748031496062992},{"duration":0.11111100000000107,"midi":46,"time":25.777752,"velocity":0.5748031496062992},{"duration":0.11111100000000107,"midi":35,"time":25.777752,"velocity":0.5748031496062992},{"duration":0.11111099999999752,"midi":40,"time":25.999974,"velocity":0.5748031496062992},{"duration":0.11111099999999752,"midi":35,"time":25.999974,"velocity":0.5748031496062992},{"duration":0.11111099999999752,"midi":46,"time":25.999974,"velocity":0.5748031496062992},{"duration":0.11111100000000107,"midi":46,"time":26.222196,"velocity":0.5748031496062992},{"duration":0.11111100000000107,"midi":35,"time":26.222196,"velocity":0.5748031496062992},{"duration":0.11111100000000107,"midi":40,"time":26.444418,"velocity":0.5748031496062992},{"duration":0.11111100000000107,"midi":46,"time":26.444418,"velocity":0.5748031496062992},{"duration":0.11111100000000107,"midi":35,"time":26.66664,"velocity":0.5748031496062992},{"duration":0.11111100000000107,"midi":46,"time":26.66664,"velocity":0.5748031496062992},{"duration":0.11111100000000107,"midi":46,"time":26.888862,"velocity":0.5748031496062992},{"duration":0.11111100000000107,"midi":40,"time":26.888862,"velocity":0.5748031496062992},{"duration":0.11111100000000107,"midi":35,"time":26.999973,"velocity":0.5748031496062992},{"duration":0.11111099999999752,"midi":46,"time":27.111084,"velocity":0.5748031496062992},{"duration":0.11111100000000107,"midi":35,"time":27.222195,"velocity":0.5748031496062992},{"duration":0.11111100000000107,"midi":40,"time":27.333306,"velocity":0.5748031496062992},{"duration":0.11111100000000107,"midi":46,"time":27.333306,"velocity":0.5748031496062992},{"duration":0.11111100000000107,"midi":35,"time":27.555528,"velocity":0.5748031496062992},{"duration":0.11111100000000107,"midi":46,"time":27.555528,"velocity":0.5748031496062992},{"duration":0.11111100000000107,"midi":40,"time":27.77775,"velocity":0.5748031496062992},{"duration":0.11111100000000107,"midi":35,"time":27.77775,"velocity":0.5748031496062992},{"duration":0.11111100000000107,"midi":46,"time":27.77775,"velocity":0.5748031496062992},{"duration":0.11111100000000107,"midi":46,"time":27.999972,"velocity":0.5748031496062992},{"duration":0.11111100000000107,"midi":35,"time":27.999972,"velocity":0.5748031496062992},{"duration":0.11111099999999752,"midi":46,"time":28.222194000000002,"velocity":0.5748031496062992},{"duration":0.11111099999999752,"midi":40,"time":28.222194000000002,"velocity":0.5748031496062992},{"duration":0.11111100000000107,"midi":35,"time":28.444416,"velocity":0.5748031496062992},{"duration":0.11111100000000107,"midi":49,"time":28.444416,"velocity":0.5748031496062992},{"duration":0.11111100000000107,"midi":46,"time":28.444416,"velocity":0.5748031496062992},{"duration":0.11111100000000107,"midi":40,"time":28.666638,"velocity":0.5748031496062992},{"duration":0.11111100000000107,"midi":46,"time":28.666638,"velocity":0.5748031496062992},{"duration":0.11111100000000107,"midi":35,"time":28.777749,"velocity":0.5748031496062992},{"duration":0.11111099999999752,"midi":46,"time":28.88886,"velocity":0.5748031496062992},{"duration":0.11111100000000107,"midi":35,"time":28.999971,"velocity":0.5748031496062992},{"duration":0.11111100000000107,"midi":46,"time":29.111082,"velocity":0.5748031496062992},{"duration":0.11111100000000107,"midi":40,"time":29.111082,"velocity":0.5748031496062992},{"duration":0.11111099999999752,"midi":46,"time":29.333304000000002,"velocity":0.5748031496062992},{"duration":0.11111099999999752,"midi":35,"time":29.333304000000002,"velocity":0.5748031496062992},{"duration":0.11111100000000107,"midi":35,"time":29.555526,"velocity":0.5748031496062992},{"duration":0.11111100000000107,"midi":46,"time":29.555526,"velocity":0.5748031496062992},{"duration":0.11111100000000107,"midi":40,"time":29.555526,"velocity":0.5748031496062992},{"duration":0.11111100000000107,"midi":46,"time":29.777748,"velocity":0.5748031496062992},{"duration":0.11111100000000107,"midi":35,"time":29.777748,"velocity":0.5748031496062992},{"duration":0.11111099999999752,"midi":40,"time":29.99997,"velocity":0.5748031496062992},{"duration":0.11111099999999752,"midi":46,"time":29.99997,"velocity":0.5748031496062992},{"duration":0.11111100000000107,"midi":46,"time":30.222192,"velocity":0.5748031496062992},{"duration":0.11111100000000107,"midi":35,"time":30.222192,"velocity":0.5748031496062992},{"duration":0.11111099999999752,"midi":40,"time":30.444414000000002,"velocity":0.5748031496062992},{"duration":0.11111099999999752,"midi":46,"time":30.444414000000002,"velocity":0.5748031496062992},{"duration":0.11111100000000107,"midi":35,"time":30.555525,"velocity":0.5748031496062992},{"duration":0.11111100000000107,"midi":46,"time":30.666636,"velocity":0.5748031496062992},{"duration":0.11111099999999752,"midi":35,"time":30.777747,"velocity":0.5748031496062992},{"duration":0.11111100000000107,"midi":46,"time":30.888858,"velocity":0.5748031496062992},{"duration":0.11111100000000107,"midi":40,"time":30.888858,"velocity":0.5748031496062992},{"duration":0.11111099999999752,"midi":35,"time":31.11108,"velocity":0.5748031496062992},{"duration":0.11111099999999752,"midi":46,"time":31.11108,"velocity":0.5748031496062992},{"duration":0.11111100000000107,"midi":35,"time":31.333302,"velocity":0.5748031496062992},{"duration":0.11111100000000107,"midi":40,"time":31.333302,"velocity":0.5748031496062992},{"duration":0.11111100000000107,"midi":46,"time":31.333302,"velocity":0.5748031496062992},{"duration":0.11111099999999752,"midi":46,"time":31.555524000000002,"velocity":0.5748031496062992},{"duration":0.11111099999999752,"midi":35,"time":31.555524000000002,"velocity":0.5748031496062992},{"duration":0.11111100000000107,"midi":40,"time":31.777746,"velocity":0.5748031496062992},{"duration":0.11111100000000107,"midi":46,"time":31.777746,"velocity":0.5748031496062992},{"duration":0.11111100000000462,"midi":46,"time":31.999968,"velocity":0.5748031496062992},{"duration":0.11111100000000462,"midi":35,"time":31.999968,"velocity":0.5748031496062992},{"duration":0.11111100000000107,"midi":46,"time":32.22219,"velocity":0.5748031496062992},{"duration":0.11111100000000107,"midi":40,"time":32.22219,"velocity":0.5748031496062992},{"duration":0.11111100000000107,"midi":35,"time":32.333301,"velocity":0.5748031496062992},{"duration":0.11111100000000107,"midi":46,"time":32.444412,"velocity":0.5748031496062992},{"duration":0.11111100000000107,"midi":35,"time":32.555523,"velocity":0.5748031496062992},{"duration":0.11111100000000107,"midi":46,"time":32.666634,"velocity":0.5748031496062992},{"duration":0.11111100000000107,"midi":40,"time":32.666634,"velocity":0.5748031496062992},{"duration":0.11111100000000107,"midi":35,"time":32.888856,"velocity":0.5748031496062992},{"duration":0.11111100000000107,"midi":46,"time":32.888856,"velocity":0.5748031496062992},{"duration":0.11111100000000107,"midi":46,"time":33.111078,"velocity":0.5748031496062992},{"duration":0.11111100000000107,"midi":35,"time":33.111078,"velocity":0.5748031496062992},{"duration":0.11111100000000107,"midi":40,"time":33.111078,"velocity":0.5748031496062992},{"duration":0.11111100000000107,"midi":46,"time":33.3333,"velocity":0.5748031496062992},{"duration":0.11111100000000107,"midi":35,"time":33.3333,"velocity":0.5748031496062992},{"duration":0.11111099999999396,"midi":46,"time":33.555522,"velocity":0.5748031496062992},{"duration":0.11111099999999396,"midi":40,"time":33.555522,"velocity":0.5748031496062992},{"duration":0.11111100000000107,"midi":35,"time":33.777744,"velocity":0.5748031496062992},{"duration":0.11111100000000107,"midi":46,"time":33.777744,"velocity":0.5748031496062992},{"duration":0.11111100000000107,"midi":46,"time":33.999966,"velocity":0.5748031496062992},{"duration":0.11111100000000107,"midi":40,"time":33.999966,"velocity":0.5748031496062992},{"duration":0.11111100000000107,"midi":35,"time":34.111077,"velocity":0.5748031496062992},{"duration":0.11111100000000107,"midi":46,"time":34.222188,"velocity":0.5748031496062992},{"duration":0.11111099999999396,"midi":35,"time":34.333299000000004,"velocity":0.5748031496062992},{"duration":0.11111100000000107,"midi":40,"time":34.44441,"velocity":0.5748031496062992},{"duration":0.11111100000000107,"midi":46,"time":34.44441,"velocity":0.5748031496062992},{"duration":0.11111100000000107,"midi":35,"time":34.666632,"velocity":0.5748031496062992},{"duration":0.11111100000000107,"midi":46,"time":34.666632,"velocity":0.5748031496062992},{"duration":0.11111100000000107,"midi":35,"time":34.888854,"velocity":0.5748031496062992},{"duration":0.11111100000000107,"midi":40,"time":34.888854,"velocity":0.5748031496062992},{"duration":0.11111100000000107,"midi":46,"time":34.888854,"velocity":0.5748031496062992},{"duration":0.11111100000000107,"midi":35,"time":35.111076,"velocity":0.5748031496062992},{"duration":0.11111100000000107,"midi":46,"time":35.111076,"velocity":0.5748031496062992},{"duration":0.11111100000000107,"midi":40,"time":35.333298,"velocity":0.5748031496062992},{"duration":0.11111100000000107,"midi":46,"time":35.333298,"velocity":0.5748031496062992},{"duration":0.11111100000000107,"midi":35,"time":35.55552,"velocity":0.5748031496062992},{"duration":0.11111100000000107,"midi":46,"time":35.55552,"velocity":0.5748031496062992},{"duration":0.11111099999999396,"midi":40,"time":35.777742,"velocity":0.5748031496062992},{"duration":0.11111099999999396,"midi":46,"time":35.777742,"velocity":0.5748031496062992},{"duration":0.11111100000000107,"midi":35,"time":35.888853,"velocity":0.5748031496062992},{"duration":0.11111100000000107,"midi":46,"time":35.999964,"velocity":0.5748031496062992},{"duration":0.11111100000000107,"midi":35,"time":36.111075,"velocity":0.5748031496062992},{"duration":0.11111100000000107,"midi":40,"time":36.222186,"velocity":0.5748031496062992},{"duration":0.11111100000000107,"midi":46,"time":36.222186,"velocity":0.5748031496062992},{"duration":0.11111100000000107,"midi":46,"time":36.444408,"velocity":0.5748031496062992},{"duration":0.11111100000000107,"midi":35,"time":36.444408,"velocity":0.5748031496062992},{"duration":0.11111100000000107,"midi":40,"time":36.66663,"velocity":0.5748031496062992},{"duration":0.11111100000000107,"midi":46,"time":36.66663,"velocity":0.5748031496062992},{"duration":0.11111100000000107,"midi":35,"time":36.66663,"velocity":0.5748031496062992},{"duration":0.11111100000000107,"midi":35,"time":36.888852,"velocity":0.5748031496062992},{"duration":0.11111100000000107,"midi":46,"time":36.888852,"velocity":0.5748031496062992},{"duration":0.11111100000000107,"midi":40,"time":37.111074,"velocity":0.5748031496062992},{"duration":0.11111100000000107,"midi":46,"time":37.111074,"velocity":0.5748031496062992},{"duration":0.11111100000000107,"midi":46,"time":37.333296,"velocity":0.5748031496062992},{"duration":0.11111100000000107,"midi":35,"time":37.333296,"velocity":0.5748031496062992},{"duration":0.11111100000000107,"midi":46,"time":37.555518,"velocity":0.5748031496062992},{"duration":0.11111100000000107,"midi":40,"time":37.555518,"velocity":0.5748031496062992},{"duration":0.11111100000000107,"midi":35,"time":37.666629,"velocity":0.5748031496062992},{"duration":0.11111100000000107,"midi":46,"time":37.77774,"velocity":0.5748031496062992},{"duration":0.11111100000000107,"midi":35,"time":37.888851,"velocity":0.5748031496062992},{"duration":0.11111099999999396,"midi":40,"time":37.999962000000004,"velocity":0.5748031496062992},{"duration":0.11111099999999396,"midi":46,"time":37.999962000000004,"velocity":0.5748031496062992},{"duration":0.11111100000000107,"midi":46,"time":38.222184,"velocity":0.5748031496062992},{"duration":0.11111100000000107,"midi":35,"time":38.222184,"velocity":0.5748031496062992},{"duration":0.11111100000000107,"midi":40,"time":38.444406,"velocity":0.5748031496062992},{"duration":0.11111100000000107,"midi":35,"time":38.444406,"velocity":0.5748031496062992},{"duration":0.11111100000000107,"midi":46,"time":38.444406,"velocity":0.5748031496062992},{"duration":0.11111100000000107,"midi":35,"time":38.666628,"velocity":0.5748031496062992},{"duration":0.11111100000000107,"midi":46,"time":38.666628,"velocity":0.5748031496062992},{"duration":0.11111100000000107,"midi":46,"time":38.88885,"velocity":0.5748031496062992},{"duration":0.11111100000000107,"midi":40,"time":38.88885,"velocity":0.5748031496062992},{"duration":0.11111100000000107,"midi":46,"time":39.111072,"velocity":0.5748031496062992},{"duration":0.11111100000000107,"midi":35,"time":39.111072,"velocity":0.5748031496062992},{"duration":0.11111100000000107,"midi":40,"time":39.333294,"velocity":0.5748031496062992},{"duration":0.11111100000000107,"midi":46,"time":39.333294,"velocity":0.5748031496062992},{"duration":0.11111099999999396,"midi":35,"time":39.444405,"velocity":0.5748031496062992},{"duration":0.11111100000000107,"midi":46,"time":39.555516,"velocity":0.5748031496062992},{"duration":0.11111100000000107,"midi":35,"time":39.666627,"velocity":0.5748031496062992},{"duration":0.11111100000000107,"midi":40,"time":39.777738,"velocity":0.5748031496062992},{"duration":0.11111100000000107,"midi":46,"time":39.777738,"velocity":0.5748031496062992},{"duration":0.11111100000000107,"midi":46,"time":39.99996,"velocity":0.5748031496062992},{"duration":0.11111100000000107,"midi":35,"time":39.99996,"velocity":0.5748031496062992},{"duration":0.11111099999999396,"midi":35,"time":40.222182000000004,"velocity":0.5748031496062992},{"duration":0.11111099999999396,"midi":46,"time":40.222182000000004,"velocity":0.5748031496062992},{"duration":0.11111099999999396,"midi":40,"time":40.222182000000004,"velocity":0.5748031496062992},{"duration":0.11111100000000107,"midi":35,"time":40.444404,"velocity":0.5748031496062992},{"duration":0.11111100000000107,"midi":46,"time":40.444404,"velocity":0.5748031496062992},{"duration":0.11111100000000107,"midi":46,"time":40.666626,"velocity":0.5748031496062992},{"duration":0.11111100000000107,"midi":40,"time":40.666626,"velocity":0.5748031496062992},{"duration":0.11111100000000107,"midi":35,"time":40.888848,"velocity":0.5748031496062992},{"duration":0.11111100000000107,"midi":46,"time":40.888848,"velocity":0.5748031496062992},{"duration":0.11111100000000107,"midi":46,"time":41.11107,"velocity":0.5748031496062992},{"duration":0.11111100000000107,"midi":40,"time":41.11107,"velocity":0.5748031496062992},{"duration":0.11111100000000107,"midi":35,"time":41.222181,"velocity":0.5748031496062992},{"duration":0.11111100000000107,"midi":46,"time":41.333292,"velocity":0.5748031496062992},{"duration":0.11111100000000107,"midi":35,"time":41.444403,"velocity":0.5748031496062992},{"duration":0.11111100000000107,"midi":40,"time":41.555514,"velocity":0.5748031496062992},{"duration":0.11111100000000107,"midi":46,"time":41.555514,"velocity":0.5748031496062992},{"duration":0.11111100000000107,"midi":35,"time":41.777736,"velocity":0.5748031496062992},{"duration":0.11111100000000107,"midi":46,"time":41.777736,"velocity":0.5748031496062992},{"duration":0.11111100000000107,"midi":46,"time":41.999958,"velocity":0.5748031496062992},{"duration":0.11111100000000107,"midi":35,"time":41.999958,"velocity":0.5748031496062992},{"duration":0.11111100000000107,"midi":40,"time":41.999958,"velocity":0.5748031496062992},{"duration":0.11111100000000107,"midi":46,"time":42.22218,"velocity":0.5748031496062992},{"duration":0.11111100000000107,"midi":35,"time":42.22218,"velocity":0.5748031496062992},{"duration":0.11111099999999396,"midi":46,"time":42.444402000000004,"velocity":0.5748031496062992},{"duration":0.11111099999999396,"midi":40,"time":42.444402000000004,"velocity":0.5748031496062992},{"duration":0.11111100000000107,"midi":46,"time":42.666624,"velocity":0.5748031496062992},{"duration":0.11111100000000107,"midi":35,"time":42.666624,"velocity":0.5748031496062992},{"duration":0.11111100000000107,"midi":40,"time":42.888846,"velocity":0.5748031496062992},{"duration":0.11111100000000107,"midi":46,"time":42.888846,"velocity":0.5748031496062992},{"duration":0.11111100000000107,"midi":35,"time":42.999957,"velocity":0.5748031496062992},{"duration":0.11111099999999396,"midi":46,"time":43.111068,"velocity":0.5748031496062992},{"duration":0.11111100000000107,"midi":35,"time":43.222179,"velocity":0.5748031496062992},{"duration":0.11111100000000107,"midi":40,"time":43.33329,"velocity":0.5748031496062992},{"duration":0.11111100000000107,"midi":46,"time":43.33329,"velocity":0.5748031496062992},{"duration":0.11111100000000107,"midi":46,"time":43.555512,"velocity":0.5748031496062992},{"duration":0.11111100000000107,"midi":35,"time":43.555512,"velocity":0.5748031496062992},{"duration":0.11111100000000107,"midi":35,"time":43.777734,"velocity":0.5748031496062992},{"duration":0.11111100000000107,"midi":46,"time":43.777734,"velocity":0.5748031496062992},{"duration":0.11111100000000107,"midi":40,"time":43.777734,"velocity":0.5748031496062992},{"duration":0.11111100000000107,"midi":35,"time":43.999956,"velocity":0.5748031496062992},{"duration":0.11111100000000107,"midi":46,"time":43.999956,"velocity":0.5748031496062992},{"duration":0.11111100000000107,"midi":40,"time":44.222178,"velocity":0.5748031496062992},{"duration":0.11111100000000107,"midi":46,"time":44.222178,"velocity":0.5748031496062992},{"duration":0.11111100000000107,"midi":46,"time":44.4444,"velocity":0.5748031496062992},{"duration":0.11111100000000107,"midi":35,"time":44.4444,"velocity":0.5748031496062992},{"duration":0.11111099999999396,"midi":40,"time":44.666622000000004,"velocity":0.5748031496062992},{"duration":0.11111099999999396,"midi":46,"time":44.666622000000004,"velocity":0.5748031496062992},{"duration":0.11111100000000107,"midi":35,"time":44.777733,"velocity":0.5748031496062992},{"duration":0.11111100000000107,"midi":46,"time":44.888844,"velocity":0.5748031496062992},{"duration":0.11111100000000107,"midi":35,"time":44.999955,"velocity":0.5748031496062992},{"duration":0.11111100000000107,"midi":46,"time":45.111066,"velocity":0.5748031496062992},{"duration":0.11111100000000107,"midi":40,"time":45.111066,"velocity":0.5748031496062992},{"duration":0.11111099999999396,"midi":35,"time":45.333288,"velocity":0.5748031496062992},{"duration":0.11111099999999396,"midi":46,"time":45.333288,"velocity":0.5748031496062992},{"duration":0.11111100000000107,"midi":35,"time":45.55551,"velocity":0.5748031496062992},{"duration":0.11111100000000107,"midi":40,"time":45.55551,"velocity":0.5748031496062992},{"duration":0.11111100000000107,"midi":46,"time":45.55551,"velocity":0.5748031496062992},{"duration":0.11111100000000107,"midi":46,"time":45.777732,"velocity":0.5748031496062992},{"duration":0.11111100000000107,"midi":35,"time":45.777732,"velocity":0.5748031496062992},{"duration":0.11111100000000107,"midi":40,"time":45.999954,"velocity":0.5748031496062992},{"duration":0.11111100000000107,"midi":46,"time":45.999954,"velocity":0.5748031496062992},{"duration":0.11111100000000107,"midi":35,"time":46.222176,"velocity":0.5748031496062992},{"duration":0.11111100000000107,"midi":57,"time":46.222176,"velocity":0.5748031496062992},{"duration":0.11111100000000107,"midi":52,"time":46.222176,"velocity":0.5748031496062992},{"duration":0.11111100000000107,"midi":46,"time":46.222176,"velocity":0.5748031496062992},{"duration":0.11111100000000107,"midi":46,"time":46.444398,"velocity":0.5748031496062992},{"duration":0.11111100000000107,"midi":40,"time":46.444398,"velocity":0.5748031496062992},{"duration":0.11111100000000107,"midi":52,"time":46.555509,"velocity":0.5748031496062992},{"duration":0.11111100000000107,"midi":35,"time":46.555509,"velocity":0.5748031496062992},{"duration":0.11111100000000107,"midi":57,"time":46.555509,"velocity":0.5748031496062992},{"duration":0.11111100000000107,"midi":46,"time":46.66662,"velocity":0.5748031496062992},{"duration":0.05555549999999698,"midi":35,"time":46.777731,"velocity":0.5748031496062992},{"duration":0.11111099999999396,"midi":46,"time":46.888842000000004,"velocity":0.5748031496062992},{"duration":0.05555549999999698,"midi":35,"time":46.888842000000004,"velocity":0.5748031496062992},{"duration":0.11111099999999396,"midi":40,"time":46.888842000000004,"velocity":0.5748031496062992},{"duration":0.05555550000000409,"midi":35,"time":46.999953,"velocity":0.5748031496062992},{"duration":0.11111100000000107,"midi":46,"time":47.111064,"velocity":0.5748031496062992},{"duration":0.11111100000000107,"midi":52,"time":47.111064,"velocity":0.5748031496062992},{"duration":0.11111100000000107,"midi":35,"time":47.111064,"velocity":0.5748031496062992},{"duration":0.11111100000000107,"midi":57,"time":47.111064,"velocity":0.5748031496062992},{"duration":0.11111100000000107,"midi":40,"time":47.333286,"velocity":0.5748031496062992},{"duration":0.11111100000000107,"midi":46,"time":47.333286,"velocity":0.5748031496062992},{"duration":0.11111100000000107,"midi":35,"time":47.444397,"velocity":0.5748031496062992},{"duration":0.11111100000000107,"midi":52,"time":47.444397,"velocity":0.5748031496062992},{"duration":0.11111100000000107,"midi":57,"time":47.444397,"velocity":0.5748031496062992},{"duration":0.11111099999999396,"midi":46,"time":47.555508,"velocity":0.5748031496062992},{"duration":0.05555550000000409,"midi":35,"time":47.666619,"velocity":0.5748031496062992},{"duration":0.05555550000000409,"midi":35,"time":47.77773,"velocity":0.5748031496062992},{"duration":0.11111100000000107,"midi":46,"time":47.77773,"velocity":0.5748031496062992},{"duration":0.11111100000000107,"midi":40,"time":47.77773,"velocity":0.5748031496062992},{"duration":0.05555550000000409,"midi":35,"time":47.888841,"velocity":0.5748031496062992},{"duration":0.11111100000000107,"midi":35,"time":47.999952,"velocity":0.5748031496062992},{"duration":0.11111100000000107,"midi":52,"time":47.999952,"velocity":0.5748031496062992},{"duration":0.11111100000000107,"midi":57,"time":47.999952,"velocity":0.5748031496062992},{"duration":0.11111100000000107,"midi":46,"time":47.999952,"velocity":0.5748031496062992},{"duration":0.11111100000000107,"midi":46,"time":48.222174,"velocity":0.5748031496062992},{"duration":0.11111100000000107,"midi":40,"time":48.222174,"velocity":0.5748031496062992},{"duration":0.11111099999999396,"midi":35,"time":48.333285000000004,"velocity":0.5748031496062992},{"duration":0.11111099999999396,"midi":57,"time":48.333285000000004,"velocity":0.5748031496062992},{"duration":0.11111099999999396,"midi":52,"time":48.333285000000004,"velocity":0.5748031496062992},{"duration":0.11111100000000107,"midi":46,"time":48.444396,"velocity":0.5748031496062992},{"duration":0.05555550000000409,"midi":35,"time":48.555507,"velocity":0.5748031496062992},{"duration":0.05555550000000409,"midi":35,"time":48.666618,"velocity":0.5748031496062992},{"duration":0.11111100000000107,"midi":40,"time":48.666618,"velocity":0.5748031496062992},{"duration":0.11111100000000107,"midi":46,"time":48.666618,"velocity":0.5748031496062992},{"duration":0.05555549999999698,"midi":35,"time":48.777729,"velocity":0.5748031496062992},{"duration":0.11111100000000107,"midi":57,"time":48.88884,"velocity":0.5748031496062992},{"duration":0.11111100000000107,"midi":35,"time":48.88884,"velocity":0.5748031496062992},{"duration":0.11111100000000107,"midi":52,"time":48.88884,"velocity":0.5748031496062992},{"duration":0.11111100000000107,"midi":46,"time":48.88884,"velocity":0.5748031496062992},{"duration":0.11111099999999396,"midi":35,"time":49.111062000000004,"velocity":0.5748031496062992},{"duration":0.11111099999999396,"midi":40,"time":49.111062000000004,"velocity":0.5748031496062992},{"duration":0.11111099999999396,"midi":46,"time":49.111062000000004,"velocity":0.5748031496062992},{"duration":0.11111100000000107,"midi":46,"time":49.333284,"velocity":0.5748031496062992},{"duration":0.11111100000000107,"midi":52,"time":49.333284,"velocity":0.5748031496062992},{"duration":0.11111100000000107,"midi":35,"time":49.333284,"velocity":0.5748031496062992},{"duration":0.11111100000000107,"midi":57,"time":49.333284,"velocity":0.5748031496062992},{"duration":0.11111100000000107,"midi":40,"time":49.555506,"velocity":0.5748031496062992},{"duration":0.11111100000000107,"midi":35,"time":49.555506,"velocity":0.5748031496062992},{"duration":0.11111100000000107,"midi":46,"time":49.555506,"velocity":0.5748031496062992},{"duration":0.11111099999999396,"midi":46,"time":49.777728,"velocity":0.5748031496062992},{"duration":0.11111099999999396,"midi":35,"time":49.777728,"velocity":0.5748031496062992},{"duration":0.11111100000000107,"midi":46,"time":49.99995,"velocity":0.5748031496062992},{"duration":0.11111100000000107,"midi":40,"time":49.99995,"velocity":0.5748031496062992},{"duration":0.11111100000000107,"midi":35,"time":50.111061,"velocity":0.5748031496062992},{"duration":0.11111100000000107,"midi":46,"time":50.222172,"velocity":0.5748031496062992},{"duration":0.11111100000000107,"midi":35,"time":50.333283,"velocity":0.5748031496062992},{"duration":0.11111100000000107,"midi":40,"time":50.444394,"velocity":0.5748031496062992},{"duration":0.11111100000000107,"midi":46,"time":50.444394,"velocity":0.5748031496062992},{"duration":0.11111100000000107,"midi":35,"time":50.666616,"velocity":0.5748031496062992},{"duration":0.11111100000000107,"midi":46,"time":50.666616,"velocity":0.5748031496062992},{"duration":0.11111100000000107,"midi":35,"time":50.888838,"velocity":0.5748031496062992},{"duration":0.11111100000000107,"midi":40,"time":50.888838,"velocity":0.5748031496062992},{"duration":0.11111100000000107,"midi":46,"time":50.888838,"velocity":0.5748031496062992},{"duration":0.11111100000000107,"midi":46,"time":51.11106,"velocity":0.5748031496062992},{"duration":0.11111100000000107,"midi":35,"time":51.11106,"velocity":0.5748031496062992},{"duration":0.11111099999999396,"midi":40,"time":51.333282000000004,"velocity":0.5748031496062992},{"duration":0.11111099999999396,"midi":46,"time":51.333282000000004,"velocity":0.5748031496062992},{"duration":0.11111100000000107,"midi":46,"time":51.555504,"velocity":0.5748031496062992},{"duration":0.11111100000000107,"midi":35,"time":51.555504,"velocity":0.5748031496062992},{"duration":0.11111100000000107,"midi":46,"time":51.777726,"velocity":0.5748031496062992},{"duration":0.11111100000000107,"midi":40,"time":51.777726,"velocity":0.5748031496062992},{"duration":0.11111100000000107,"midi":35,"time":51.888837,"velocity":0.5748031496062992},{"duration":0.11111099999999396,"midi":46,"time":51.999948,"velocity":0.5748031496062992},{"duration":0.11111100000000107,"midi":35,"time":52.111059,"velocity":0.5748031496062992},{"duration":0.11111100000000107,"midi":46,"time":52.22217,"velocity":0.5748031496062992},{"duration":0.11111100000000107,"midi":40,"time":52.22217,"velocity":0.5748031496062992},{"duration":0.11111100000000107,"midi":35,"time":52.444392,"velocity":0.5748031496062992},{"duration":0.11111100000000107,"midi":46,"time":52.444392,"velocity":0.5748031496062992},{"duration":0.11111100000000107,"midi":35,"time":52.666614,"velocity":0.5748031496062992},{"duration":0.11111100000000107,"midi":46,"time":52.666614,"velocity":0.5748031496062992},{"duration":0.11111100000000107,"midi":40,"time":52.666614,"velocity":0.5748031496062992},{"duration":0.11111100000000107,"midi":35,"time":52.888836,"velocity":0.5748031496062992},{"duration":0.11111100000000107,"midi":46,"time":52.888836,"velocity":0.5748031496062992},{"duration":0.11111100000000107,"midi":46,"time":53.111058,"velocity":0.5748031496062992},{"duration":0.11111100000000107,"midi":40,"time":53.111058,"velocity":0.5748031496062992},{"duration":0.11111100000000107,"midi":35,"time":53.33328,"velocity":0.5748031496062992},{"duration":0.11111100000000107,"midi":57,"time":53.33328,"velocity":0.5748031496062992},{"duration":0.11111100000000107,"midi":46,"time":53.33328,"velocity":0.5748031496062992},{"duration":0.11111100000000107,"midi":52,"time":53.33328,"velocity":0.5748031496062992},{"duration":0.11111099999999396,"midi":40,"time":53.555502000000004,"velocity":0.5748031496062992},{"duration":0.11111099999999396,"midi":46,"time":53.555502000000004,"velocity":0.5748031496062992},{"duration":0.11111100000000107,"midi":52,"time":53.666613,"velocity":0.5748031496062992},{"duration":0.11111100000000107,"midi":57,"time":53.666613,"velocity":0.5748031496062992},{"duration":0.11111100000000107,"midi":35,"time":53.666613,"velocity":0.5748031496062992},{"duration":0.11111100000000107,"midi":46,"time":53.777724,"velocity":0.5748031496062992},{"duration":0.05555549999999698,"midi":35,"time":53.888835,"velocity":0.5748031496062992},{"duration":0.11111100000000107,"midi":40,"time":53.999946,"velocity":0.5748031496062992},{"duration":0.11111100000000107,"midi":46,"time":53.999946,"velocity":0.5748031496062992},{"duration":0.05555549999999698,"midi":35,"time":53.999946,"velocity":0.5748031496062992},{"duration":0.05555549999999698,"midi":35,"time":54.111057,"velocity":0.5748031496062992},{"duration":0.11111099999999396,"midi":46,"time":54.222168,"velocity":0.5748031496062992},{"duration":0.11111099999999396,"midi":57,"time":54.222168,"velocity":0.5748031496062992},{"duration":0.11111099999999396,"midi":35,"time":54.222168,"velocity":0.5748031496062992},{"duration":0.11111099999999396,"midi":52,"time":54.222168,"velocity":0.5748031496062992},{"duration":0.11111100000000107,"midi":46,"time":54.44439,"velocity":0.5748031496062992},{"duration":0.11111100000000107,"midi":40,"time":54.44439,"velocity":0.5748031496062992},{"duration":0.11111100000000107,"midi":57,"time":54.555501,"velocity":0.5748031496062992},{"duration":0.11111100000000107,"midi":52,"time":54.555501,"velocity":0.5748031496062992},{"duration":0.11111100000000107,"midi":35,"time":54.555501,"velocity":0.5748031496062992},{"duration":0.11111100000000107,"midi":46,"time":54.666612,"velocity":0.5748031496062992},{"duration":0.05555549999999698,"midi":35,"time":54.777723,"velocity":0.5748031496062992},{"duration":0.11111100000000107,"midi":40,"time":54.888834,"velocity":0.5748031496062992},{"duration":0.11111100000000107,"midi":46,"time":54.888834,"velocity":0.5748031496062992},{"duration":0.05555549999999698,"midi":35,"time":54.888834,"velocity":0.5748031496062992},{"duration":0.05555549999999698,"midi":35,"time":54.999945000000004,"velocity":0.5748031496062992},{"duration":0.11111100000000107,"midi":57,"time":55.111056,"velocity":0.5748031496062992},{"duration":0.11111100000000107,"midi":35,"time":55.111056,"velocity":0.5748031496062992},{"duration":0.11111100000000107,"midi":46,"time":55.111056,"velocity":0.5748031496062992},{"duration":0.11111100000000107,"midi":52,"time":55.111056,"velocity":0.5748031496062992},{"duration":0.11111100000000107,"midi":46,"time":55.333278,"velocity":0.5748031496062992},{"duration":0.11111100000000107,"midi":40,"time":55.333278,"velocity":0.5748031496062992},{"duration":0.11111100000000107,"midi":52,"time":55.444389,"velocity":0.5748031496062992},{"duration":0.11111100000000107,"midi":57,"time":55.444389,"velocity":0.5748031496062992},{"duration":0.11111100000000107,"midi":35,"time":55.444389,"velocity":0.5748031496062992},{"duration":0.11111100000000107,"midi":46,"time":55.5555,"velocity":0.5748031496062992},{"duration":0.05555549999999698,"midi":35,"time":55.666611,"velocity":0.5748031496062992},{"duration":0.05555549999999698,"midi":35,"time":55.777722000000004,"velocity":0.5748031496062992},{"duration":0.11111099999999396,"midi":40,"time":55.777722000000004,"velocity":0.5748031496062992},{"duration":0.11111099999999396,"midi":46,"time":55.777722000000004,"velocity":0.5748031496062992},{"duration":0.05555550000000409,"midi":35,"time":55.888833,"velocity":0.5748031496062992},{"duration":0.11111100000000107,"midi":57,"time":55.999944,"velocity":0.5748031496062992},{"duration":0.11111100000000107,"midi":46,"time":55.999944,"velocity":0.5748031496062992},{"duration":0.11111100000000107,"midi":52,"time":55.999944,"velocity":0.5748031496062992},{"duration":0.11111100000000107,"midi":35,"time":55.999944,"velocity":0.5748031496062992},{"duration":0.11111100000000107,"midi":40,"time":56.222166,"velocity":0.5748031496062992},{"duration":0.11111100000000107,"midi":46,"time":56.222166,"velocity":0.5748031496062992},{"duration":0.11111100000000107,"midi":35,"time":56.222166,"velocity":0.5748031496062992},{"duration":0.11111099999999396,"midi":46,"time":56.444388000000004,"velocity":0.5748031496062992},{"duration":0.11111099999999396,"midi":52,"time":56.444388000000004,"velocity":0.5748031496062992},{"duration":0.11111099999999396,"midi":57,"time":56.444388000000004,"velocity":0.5748031496062992},{"duration":0.11111099999999396,"midi":35,"time":56.444388000000004,"velocity":0.5748031496062992},{"duration":0.11111100000000107,"midi":35,"time":56.66661,"velocity":0.5748031496062992},{"duration":0.11111100000000107,"midi":46,"time":56.66661,"velocity":0.5748031496062992},{"duration":0.11111100000000107,"midi":40,"time":56.66661,"velocity":0.5748031496062992},{"duration":0.11111100000000107,"midi":46,"time":56.888832,"velocity":0.5748031496062992},{"duration":0.11111100000000107,"midi":35,"time":56.888832,"velocity":0.5748031496062992},{"duration":0.11111100000000107,"midi":40,"time":57.111054,"velocity":0.5748031496062992},{"duration":0.11111100000000107,"midi":46,"time":57.111054,"velocity":0.5748031496062992},{"duration":0.11111099999999396,"midi":35,"time":57.222165000000004,"velocity":0.5748031496062992},{"duration":0.11111100000000107,"midi":46,"time":57.333276,"velocity":0.5748031496062992},{"duration":0.11111100000000107,"midi":35,"time":57.444387,"velocity":0.5748031496062992},{"duration":0.11111100000000107,"midi":40,"time":57.555498,"velocity":0.5748031496062992},{"duration":0.11111100000000107,"midi":46,"time":57.555498,"velocity":0.5748031496062992},{"duration":0.11111100000000107,"midi":46,"time":57.77772,"velocity":0.5748031496062992},{"duration":0.11111100000000107,"midi":35,"time":57.77772,"velocity":0.5748031496062992},{"duration":0.11111100000000107,"midi":46,"time":57.999942,"velocity":0.5748031496062992},{"duration":0.11111100000000107,"midi":35,"time":57.999942,"velocity":0.5748031496062992},{"duration":0.11111100000000107,"midi":40,"time":57.999942,"velocity":0.5748031496062992},{"duration":0.11111100000000107,"midi":35,"time":58.222164,"velocity":0.5748031496062992},{"duration":0.11111100000000107,"midi":46,"time":58.222164,"velocity":0.5748031496062992},{"duration":0.11111100000000107,"midi":46,"time":58.444386,"velocity":0.5748031496062992},{"duration":0.11111100000000107,"midi":40,"time":58.444386,"velocity":0.5748031496062992},{"duration":0.11111099999999396,"midi":35,"time":58.666608000000004,"velocity":0.5748031496062992},{"duration":0.11111099999999396,"midi":46,"time":58.666608000000004,"velocity":0.5748031496062992},{"duration":0.11111100000000107,"midi":40,"time":58.88883,"velocity":0.5748031496062992},{"duration":0.11111100000000107,"midi":46,"time":58.88883,"velocity":0.5748031496062992},{"duration":0.11111100000000107,"midi":35,"time":58.999941,"velocity":0.5748031496062992},{"duration":0.11111100000000107,"midi":46,"time":59.111052,"velocity":0.5748031496062992},{"duration":0.11111100000000107,"midi":35,"time":59.222163,"velocity":0.5748031496062992},{"duration":0.11111100000000107,"midi":46,"time":59.333274,"velocity":0.5748031496062992},{"duration":0.11111100000000107,"midi":40,"time":59.333274,"velocity":0.5748031496062992},{"duration":0.11111100000000107,"midi":35,"time":59.555496,"velocity":0.5748031496062992},{"duration":0.11111100000000107,"midi":46,"time":59.555496,"velocity":0.5748031496062992},{"duration":0.11111100000000107,"midi":46,"time":59.777718,"velocity":0.5748031496062992},{"duration":0.11111100000000107,"midi":40,"time":59.777718,"velocity":0.5748031496062992},{"duration":0.11111100000000107,"midi":35,"time":59.777718,"velocity":0.5748031496062992},{"duration":0.11111100000000107,"midi":46,"time":59.99994,"velocity":0.5748031496062992},{"duration":0.11111100000000107,"midi":35,"time":59.99994,"velocity":0.5748031496062992},{"duration":0.11111100000000107,"midi":40,"time":60.222162,"velocity":0.5748031496062992},{"duration":0.11111100000000107,"midi":46,"time":60.222162,"velocity":0.5748031496062992},{"duration":0.11111100000000107,"midi":35,"time":60.444384,"velocity":0.5748031496062992},{"duration":0.11111100000000107,"midi":46,"time":60.444384,"velocity":0.5748031496062992},{"duration":0.11111100000000107,"midi":46,"time":60.666606,"velocity":0.5748031496062992},{"duration":0.11111100000000107,"midi":40,"time":60.666606,"velocity":0.5748031496062992},{"duration":0.11111100000000107,"midi":35,"time":60.777717,"velocity":0.5748031496062992},{"duration":0.11111099999999396,"midi":46,"time":60.888828000000004,"velocity":0.5748031496062992},{"duration":0.11111100000000107,"midi":35,"time":60.999939,"velocity":0.5748031496062992},{"duration":0.11111100000000107,"midi":46,"time":61.11105,"velocity":0.5748031496062992},{"duration":0.11111100000000107,"midi":40,"time":61.11105,"velocity":0.5748031496062992},{"duration":0.11111100000000107,"midi":35,"time":61.333272,"velocity":0.5748031496062992},{"duration":0.11111100000000107,"midi":46,"time":61.333272,"velocity":0.5748031496062992},{"duration":0.11111100000000107,"midi":40,"time":61.555494,"velocity":0.5748031496062992},{"duration":0.11111100000000107,"midi":46,"time":61.555494,"velocity":0.5748031496062992},{"duration":0.11111100000000107,"midi":35,"time":61.555494,"velocity":0.5748031496062992},{"duration":0.11111100000000107,"midi":46,"time":61.777716,"velocity":0.5748031496062992},{"duration":0.11111100000000107,"midi":35,"time":61.777716,"velocity":0.5748031496062992},{"duration":0.11111100000000107,"midi":40,"time":61.999938,"velocity":0.5748031496062992},{"duration":0.11111100000000107,"midi":46,"time":61.999938,"velocity":0.5748031496062992},{"duration":0.11111100000000107,"midi":35,"time":62.22216,"velocity":0.5748031496062992},{"duration":0.11111100000000107,"midi":46,"time":62.22216,"velocity":0.5748031496062992},{"duration":0.11111100000000107,"midi":40,"time":62.444382,"velocity":0.5748031496062992},{"duration":0.11111100000000107,"midi":46,"time":62.444382,"velocity":0.5748031496062992},{"duration":0.11111100000000107,"midi":35,"time":62.555493,"velocity":0.5748031496062992},{"duration":0.11111100000000107,"midi":46,"time":62.666604,"velocity":0.5748031496062992},{"duration":0.11111100000000107,"midi":35,"time":62.777715,"velocity":0.5748031496062992},{"duration":0.11111100000000107,"midi":46,"time":62.888826,"velocity":0.5748031496062992},{"duration":0.11111100000000107,"midi":40,"time":62.888826,"velocity":0.5748031496062992},{"duration":0.11111099999999396,"midi":46,"time":63.111048000000004,"velocity":0.5748031496062992},{"duration":0.11111099999999396,"midi":35,"time":63.111048000000004,"velocity":0.5748031496062992},{"duration":0.11111100000000107,"midi":35,"time":63.33327,"velocity":0.5748031496062992},{"duration":0.11111100000000107,"midi":40,"time":63.33327,"velocity":0.5748031496062992},{"duration":0.11111100000000107,"midi":46,"time":63.33327,"velocity":0.5748031496062992},{"duration":0.11111100000000107,"midi":35,"time":63.555492,"velocity":0.5748031496062992},{"duration":0.11111100000000107,"midi":46,"time":63.555492,"velocity":0.5748031496062992},{"duration":0.11111100000000107,"midi":40,"time":63.777714,"velocity":0.5748031496062992},{"duration":0.11111100000000107,"midi":46,"time":63.777714,"velocity":0.5748031496062992},{"duration":0.11111100000000107,"midi":46,"time":63.999936,"velocity":0.5748031496062992},{"duration":0.11111100000000107,"midi":35,"time":63.999936,"velocity":0.5748031496062992},{"duration":0.11111099999999396,"midi":40,"time":64.22215800000001,"velocity":0.5748031496062992},{"duration":0.11111099999999396,"midi":46,"time":64.22215800000001,"velocity":0.5748031496062992},{"duration":0.11111099999999396,"midi":35,"time":64.333269,"velocity":0.5748031496062992},{"duration":0.11111100000000818,"midi":46,"time":64.44438,"velocity":0.5748031496062992},{"duration":0.11111099999999396,"midi":35,"time":64.555491,"velocity":0.5748031496062992},{"duration":0.11111100000000818,"midi":46,"time":64.666602,"velocity":0.5748031496062992},{"duration":0.11111100000000818,"midi":40,"time":64.666602,"velocity":0.5748031496062992},{"duration":0.11111100000000818,"midi":35,"time":64.888824,"velocity":0.5748031496062992},{"duration":0.11111100000000818,"midi":46,"time":64.888824,"velocity":0.5748031496062992},{"duration":0.11111099999999396,"midi":46,"time":65.111046,"velocity":0.5748031496062992},{"duration":0.11111099999999396,"midi":35,"time":65.111046,"velocity":0.5748031496062992},{"duration":0.11111099999999396,"midi":40,"time":65.111046,"velocity":0.5748031496062992},{"duration":0.11111099999999396,"midi":35,"time":65.333268,"velocity":0.5748031496062992},{"duration":0.11111099999999396,"midi":46,"time":65.333268,"velocity":0.5748031496062992},{"duration":0.11111099999999396,"midi":46,"time":65.55549,"velocity":0.5748031496062992},{"duration":0.11111099999999396,"midi":40,"time":65.55549,"velocity":0.5748031496062992},{"duration":0.11111100000000818,"midi":46,"time":65.777712,"velocity":0.5748031496062992},{"duration":0.11111100000000818,"midi":35,"time":65.777712,"velocity":0.5748031496062992},{"duration":0.11111100000000818,"midi":40,"time":65.999934,"velocity":0.5748031496062992},{"duration":0.11111100000000818,"midi":46,"time":65.999934,"velocity":0.5748031496062992},{"duration":0.11111099999999396,"midi":35,"time":66.111045,"velocity":0.5748031496062992},{"duration":0.11111100000000818,"midi":46,"time":66.222156,"velocity":0.5748031496062992},{"duration":0.11111099999999396,"midi":35,"time":66.333267,"velocity":0.5748031496062992},{"duration":0.11111099999999396,"midi":46,"time":66.444378,"velocity":0.5748031496062992},{"duration":0.11111099999999396,"midi":40,"time":66.444378,"velocity":0.5748031496062992},{"duration":0.11111099999999396,"midi":46,"time":66.6666,"velocity":0.5748031496062992},{"duration":0.11111099999999396,"midi":35,"time":66.6666,"velocity":0.5748031496062992},{"duration":0.11111099999999396,"midi":40,"time":66.888822,"velocity":0.5748031496062992},{"duration":0.11111099999999396,"midi":46,"time":66.888822,"velocity":0.5748031496062992},{"duration":0.11111099999999396,"midi":35,"time":66.888822,"velocity":0.5748031496062992},{"duration":0.11111099999999396,"midi":35,"time":67.111044,"velocity":0.5748031496062992},{"duration":0.11111099999999396,"midi":46,"time":67.111044,"velocity":0.5748031496062992},{"duration":0.11111100000000818,"midi":40,"time":67.333266,"velocity":0.5748031496062992},{"duration":0.11111100000000818,"midi":46,"time":67.333266,"velocity":0.5748031496062992},{"duration":0.11111100000000818,"midi":35,"time":67.555488,"velocity":0.5748031496062992},{"duration":0.11111100000000818,"midi":46,"time":67.555488,"velocity":0.5748031496062992},{"duration":0.11111100000000818,"midi":40,"time":67.77771,"velocity":0.5748031496062992},{"duration":0.11111100000000818,"midi":46,"time":67.77771,"velocity":0.5748031496062992},{"duration":0.11111099999999396,"midi":35,"time":67.88882100000001,"velocity":0.5748031496062992},{"duration":0.11111099999999396,"midi":46,"time":67.999932,"velocity":0.5748031496062992},{"duration":0.11111100000000818,"midi":35,"time":68.111043,"velocity":0.5748031496062992},{"duration":0.11111099999999396,"midi":46,"time":68.222154,"velocity":0.5748031496062992},{"duration":0.11111099999999396,"midi":40,"time":68.222154,"velocity":0.5748031496062992},{"duration":0.11111099999999396,"midi":46,"time":68.444376,"velocity":0.5748031496062992},{"duration":0.11111099999999396,"midi":35,"time":68.444376,"velocity":0.5748031496062992},{"duration":0.11111099999999396,"midi":46,"time":68.66659800000001,"velocity":0.5748031496062992},{"duration":0.11111099999999396,"midi":40,"time":68.66659800000001,"velocity":0.5748031496062992},{"duration":0.11111099999999396,"midi":35,"time":68.66659800000001,"velocity":0.5748031496062992},{"duration":0.11111100000000818,"midi":35,"time":68.88882,"velocity":0.5748031496062992},{"duration":0.11111100000000818,"midi":46,"time":68.88882,"velocity":0.5748031496062992},{"duration":0.11111100000000818,"midi":40,"time":69.111042,"velocity":0.5748031496062992},{"duration":0.11111100000000818,"midi":46,"time":69.111042,"velocity":0.5748031496062992},{"duration":0.11111100000000818,"midi":35,"time":69.333264,"velocity":0.5748031496062992},{"duration":0.11111100000000818,"midi":46,"time":69.333264,"velocity":0.5748031496062992},{"duration":0.11111099999999396,"midi":46,"time":69.555486,"velocity":0.5748031496062992},{"duration":0.11111099999999396,"midi":40,"time":69.555486,"velocity":0.5748031496062992},{"duration":0.11111100000000818,"midi":35,"time":69.666597,"velocity":0.5748031496062992},{"duration":0.11111099999999396,"midi":46,"time":69.777708,"velocity":0.5748031496062992},{"duration":0.11111100000000818,"midi":35,"time":69.888819,"velocity":0.5748031496062992},{"duration":0.11111099999999396,"midi":46,"time":69.99993,"velocity":0.5748031496062992},{"duration":0.11111099999999396,"midi":40,"time":69.99993,"velocity":0.5748031496062992},{"duration":0.11111100000000818,"midi":35,"time":70.222152,"velocity":0.5748031496062992},{"duration":0.11111100000000818,"midi":46,"time":70.222152,"velocity":0.5748031496062992},{"duration":0.11111100000000818,"midi":35,"time":70.444374,"velocity":0.5748031496062992},{"duration":0.11111100000000818,"midi":40,"time":70.444374,"velocity":0.5748031496062992},{"duration":0.11111100000000818,"midi":46,"time":70.444374,"velocity":0.5748031496062992},{"duration":0.11111100000000818,"midi":35,"time":70.666596,"velocity":0.5748031496062992},{"duration":0.11111100000000818,"midi":46,"time":70.666596,"velocity":0.5748031496062992},{"duration":0.11111099999999396,"midi":40,"time":70.888818,"velocity":0.5748031496062992},{"duration":0.11111099999999396,"midi":46,"time":70.888818,"velocity":0.5748031496062992},{"duration":0.11111099999999396,"midi":35,"time":71.11104,"velocity":0.5748031496062992},{"duration":0.11111099999999396,"midi":46,"time":71.11104,"velocity":0.5748031496062992},{"duration":0.11111099999999396,"midi":40,"time":71.333262,"velocity":0.5748031496062992},{"duration":0.11111099999999396,"midi":46,"time":71.333262,"velocity":0.5748031496062992},{"duration":0.11111100000000818,"midi":35,"time":71.444373,"velocity":0.5748031496062992},{"duration":0.11111099999999396,"midi":46,"time":71.555484,"velocity":0.5748031496062992},{"duration":0.11111099999999396,"midi":35,"time":71.666595,"velocity":0.5748031496062992},{"duration":0.11111100000000818,"midi":46,"time":71.777706,"velocity":0.5748031496062992},{"duration":0.11111100000000818,"midi":40,"time":71.777706,"velocity":0.5748031496062992},{"duration":0.11111100000000818,"midi":35,"time":71.999928,"velocity":0.5748031496062992},{"duration":0.11111100000000818,"midi":46,"time":71.999928,"velocity":0.5748031496062992},{"duration":0.11111100000000818,"midi":46,"time":72.22215,"velocity":0.5748031496062992},{"duration":0.11111100000000818,"midi":40,"time":72.22215,"velocity":0.5748031496062992},{"duration":0.11111100000000818,"midi":35,"time":72.22215,"velocity":0.5748031496062992},{"duration":0.11111099999999396,"midi":35,"time":72.444372,"velocity":0.5748031496062992},{"duration":0.11111099999999396,"midi":46,"time":72.444372,"velocity":0.5748031496062992},{"duration":0.11111099999999396,"midi":40,"time":72.666594,"velocity":0.5748031496062992},{"duration":0.11111099999999396,"midi":46,"time":72.666594,"velocity":0.5748031496062992},{"duration":0.11111099999999396,"midi":35,"time":72.888816,"velocity":0.5748031496062992},{"duration":0.11111099999999396,"midi":46,"time":72.888816,"velocity":0.5748031496062992},{"duration":0.11111099999999396,"midi":40,"time":73.11103800000001,"velocity":0.5748031496062992},{"duration":0.11111099999999396,"midi":46,"time":73.11103800000001,"velocity":0.5748031496062992},{"duration":0.11111099999999396,"midi":35,"time":73.222149,"velocity":0.5748031496062992},{"duration":0.11111100000000818,"midi":46,"time":73.33326,"velocity":0.5748031496062992},{"duration":0.11111099999999396,"midi":35,"time":73.444371,"velocity":0.5748031496062992},{"duration":0.11111100000000818,"midi":46,"time":73.555482,"velocity":0.5748031496062992},{"duration":0.11111100000000818,"midi":40,"time":73.555482,"velocity":0.5748031496062992},{"duration":0.11111099999999396,"midi":46,"time":73.777704,"velocity":0.5748031496062992},{"duration":0.11111099999999396,"midi":35,"time":73.777704,"velocity":0.5748031496062992},{"duration":0.11111099999999396,"midi":46,"time":73.999926,"velocity":0.5748031496062992},{"duration":0.11111099999999396,"midi":35,"time":73.999926,"velocity":0.5748031496062992},{"duration":0.11111099999999396,"midi":40,"time":73.999926,"velocity":0.5748031496062992},{"duration":0.11111099999999396,"midi":35,"time":74.222148,"velocity":0.5748031496062992},{"duration":0.11111099999999396,"midi":46,"time":74.222148,"velocity":0.5748031496062992},{"duration":0.11111099999999396,"midi":46,"time":74.44437,"velocity":0.5748031496062992},{"duration":0.11111099999999396,"midi":40,"time":74.44437,"velocity":0.5748031496062992},{"duration":0.11111100000000818,"midi":35,"time":74.666592,"velocity":0.5748031496062992},{"duration":0.11111100000000818,"midi":46,"time":74.666592,"velocity":0.5748031496062992},{"duration":0.11111100000000818,"midi":40,"time":74.888814,"velocity":0.5748031496062992},{"duration":0.11111100000000818,"midi":46,"time":74.888814,"velocity":0.5748031496062992},{"duration":0.11111099999999396,"midi":35,"time":74.999925,"velocity":0.5748031496062992},{"duration":0.11111100000000818,"midi":46,"time":75.111036,"velocity":0.5748031496062992},{"duration":0.11111099999999396,"midi":35,"time":75.222147,"velocity":0.5748031496062992},{"duration":0.11111099999999396,"midi":46,"time":75.333258,"velocity":0.5748031496062992},{"duration":0.11111099999999396,"midi":40,"time":75.333258,"velocity":0.5748031496062992},{"duration":0.11111099999999396,"midi":46,"time":75.55548,"velocity":0.5748031496062992},{"duration":0.11111099999999396,"midi":35,"time":75.55548,"velocity":0.5748031496062992},{"duration":0.11111099999999396,"midi":46,"time":75.777702,"velocity":0.5748031496062992},{"duration":0.11111099999999396,"midi":35,"time":75.777702,"velocity":0.5748031496062992},{"duration":0.11111099999999396,"midi":40,"time":75.777702,"velocity":0.5748031496062992},{"duration":0.11111099999999396,"midi":35,"time":75.99992400000001,"velocity":0.5748031496062992},{"duration":0.11111099999999396,"midi":46,"time":75.99992400000001,"velocity":0.5748031496062992},{"duration":0.11111100000000818,"midi":40,"time":76.222146,"velocity":0.5748031496062992},{"duration":0.11111100000000818,"midi":46,"time":76.222146,"velocity":0.5748031496062992},{"duration":0.11111100000000818,"midi":46,"time":76.444368,"velocity":0.5748031496062992},{"duration":0.11111100000000818,"midi":35,"time":76.444368,"velocity":0.5748031496062992},{"duration":0.11111100000000818,"midi":40,"time":76.66659,"velocity":0.5748031496062992},{"duration":0.11111100000000818,"midi":46,"time":76.66659,"velocity":0.5748031496062992},{"duration":0.11111099999999396,"midi":35,"time":76.77770100000001,"velocity":0.5748031496062992},{"duration":0.11111099999999396,"midi":46,"time":76.888812,"velocity":0.5748031496062992},{"duration":0.11111100000000818,"midi":35,"time":76.999923,"velocity":0.5748031496062992},{"duration":0.11111099999999396,"midi":46,"time":77.111034,"velocity":0.5748031496062992},{"duration":0.11111099999999396,"midi":40,"time":77.111034,"velocity":0.5748031496062992},{"duration":0.11111099999999396,"midi":35,"time":77.333256,"velocity":0.5748031496062992},{"duration":0.11111099999999396,"midi":46,"time":77.333256,"velocity":0.5748031496062992},{"duration":0.11111099999999396,"midi":35,"time":77.55547800000001,"velocity":0.5748031496062992},{"duration":0.11111099999999396,"midi":46,"time":77.55547800000001,"velocity":0.5748031496062992},{"duration":0.11111099999999396,"midi":40,"time":77.55547800000001,"velocity":0.5748031496062992},{"duration":0.11111100000000818,"midi":46,"time":77.7777,"velocity":0.5748031496062992},{"duration":0.11111100000000818,"midi":35,"time":77.7777,"velocity":0.5748031496062992},{"duration":0.11111100000000818,"midi":40,"time":77.999922,"velocity":0.5748031496062992},{"duration":0.11111100000000818,"midi":46,"time":77.999922,"velocity":0.5748031496062992},{"duration":0.11111099999999396,"midi":35,"time":78.222144,"velocity":0.5748031496062992},{"duration":0.11111099999999396,"midi":46,"time":78.222144,"velocity":0.5748031496062992},{"duration":0.11111099999999396,"midi":40,"time":78.444366,"velocity":0.5748031496062992},{"duration":0.11111099999999396,"midi":46,"time":78.444366,"velocity":0.5748031496062992},{"duration":0.11111100000000818,"midi":35,"time":78.555477,"velocity":0.5748031496062992},{"duration":0.11111099999999396,"midi":46,"time":78.666588,"velocity":0.5748031496062992},{"duration":0.11111100000000818,"midi":35,"time":78.777699,"velocity":0.5748031496062992},{"duration":0.11111099999999396,"midi":40,"time":78.88881,"velocity":0.5748031496062992},{"duration":0.11111099999999396,"midi":46,"time":78.88881,"velocity":0.5748031496062992},{"duration":0.11111100000000818,"midi":35,"time":79.111032,"velocity":0.5748031496062992},{"duration":0.11111100000000818,"midi":46,"time":79.111032,"velocity":0.5748031496062992},{"duration":0.11111100000000818,"midi":35,"time":79.333254,"velocity":0.5748031496062992},{"duration":0.11111100000000818,"midi":46,"time":79.333254,"velocity":0.5748031496062992},{"duration":0.11111100000000818,"midi":40,"time":79.333254,"velocity":0.5748031496062992},{"duration":0.11111100000000818,"midi":46,"time":79.555476,"velocity":0.5748031496062992},{"duration":0.11111100000000818,"midi":35,"time":79.555476,"velocity":0.5748031496062992},{"duration":0.11111099999999396,"midi":40,"time":79.777698,"velocity":0.5748031496062992},{"duration":0.11111099999999396,"midi":46,"time":79.777698,"velocity":0.5748031496062992},{"duration":0.11111099999999396,"midi":46,"time":79.99992,"velocity":0.5748031496062992},{"duration":0.11111099999999396,"midi":35,"time":79.99992,"velocity":0.5748031496062992},{"duration":0.11111099999999396,"midi":46,"time":80.222142,"velocity":0.5748031496062992},{"duration":0.11111099999999396,"midi":40,"time":80.222142,"velocity":0.5748031496062992},{"duration":0.11111100000000818,"midi":35,"time":80.333253,"velocity":0.5748031496062992},{"duration":0.11111099999999396,"midi":46,"time":80.44436400000001,"velocity":0.5748031496062992},{"duration":0.11111099999999396,"midi":35,"time":80.555475,"velocity":0.5748031496062992},{"duration":0.11111100000000818,"midi":46,"time":80.666586,"velocity":0.5748031496062992},{"duration":0.11111100000000818,"midi":40,"time":80.666586,"velocity":0.5748031496062992},{"duration":0.11111100000000818,"midi":46,"time":80.888808,"velocity":0.5748031496062992},{"duration":0.11111100000000818,"midi":35,"time":80.888808,"velocity":0.5748031496062992},{"duration":0.11111100000000818,"midi":35,"time":81.11103,"velocity":0.5748031496062992},{"duration":0.11111100000000818,"midi":46,"time":81.11103,"velocity":0.5748031496062992},{"duration":0.11111100000000818,"midi":40,"time":81.11103,"velocity":0.5748031496062992},{"duration":0.11111099999999396,"midi":35,"time":81.333252,"velocity":0.5748031496062992},{"duration":0.11111099999999396,"midi":46,"time":81.333252,"velocity":0.5748031496062992},{"duration":0.11111099999999396,"midi":40,"time":81.555474,"velocity":0.5748031496062992},{"duration":0.11111099999999396,"midi":46,"time":81.555474,"velocity":0.5748031496062992},{"duration":0.11111099999999396,"midi":46,"time":81.777696,"velocity":0.5748031496062992},{"duration":0.11111099999999396,"midi":35,"time":81.777696,"velocity":0.5748031496062992},{"duration":0.11111099999999396,"midi":40,"time":81.99991800000001,"velocity":0.5748031496062992},{"duration":0.11111099999999396,"midi":46,"time":81.99991800000001,"velocity":0.5748031496062992},{"duration":0.11111099999999396,"midi":35,"time":82.111029,"velocity":0.5748031496062992},{"duration":0.11111100000000818,"midi":46,"time":82.22214,"velocity":0.5748031496062992},{"duration":0.11111099999999396,"midi":35,"time":82.333251,"velocity":0.5748031496062992},{"duration":0.11111100000000818,"midi":46,"time":82.444362,"velocity":0.5748031496062992},{"duration":0.11111100000000818,"midi":40,"time":82.444362,"velocity":0.5748031496062992},{"duration":0.11111099999999396,"midi":46,"time":82.666584,"velocity":0.5748031496062992},{"duration":0.11111099999999396,"midi":35,"time":82.666584,"velocity":0.5748031496062992},{"duration":0.11111099999999396,"midi":40,"time":82.888806,"velocity":0.5748031496062992},{"duration":0.11111099999999396,"midi":46,"time":82.888806,"velocity":0.5748031496062992},{"duration":0.11111099999999396,"midi":35,"time":82.888806,"velocity":0.5748031496062992},{"duration":0.11111099999999396,"midi":35,"time":83.111028,"velocity":0.5748031496062992},{"duration":0.11111099999999396,"midi":46,"time":83.111028,"velocity":0.5748031496062992},{"duration":0.11111099999999396,"midi":46,"time":83.33325,"velocity":0.5748031496062992},{"duration":0.11111099999999396,"midi":40,"time":83.33325,"velocity":0.5748031496062992},{"duration":0.11111100000000818,"midi":35,"time":83.555472,"velocity":0.5748031496062992},{"duration":0.11111100000000818,"midi":46,"time":83.555472,"velocity":0.5748031496062992},{"duration":0.11111100000000818,"midi":46,"time":83.777694,"velocity":0.5748031496062992},{"duration":0.11111100000000818,"midi":40,"time":83.777694,"velocity":0.5748031496062992},{"duration":0.11111099999999396,"midi":35,"time":83.888805,"velocity":0.5748031496062992},{"duration":0.11111100000000818,"midi":46,"time":83.999916,"velocity":0.5748031496062992},{"duration":0.11111099999999396,"midi":35,"time":84.111027,"velocity":0.5748031496062992},{"duration":0.11111099999999396,"midi":40,"time":84.222138,"velocity":0.5748031496062992},{"duration":0.11111099999999396,"midi":46,"time":84.222138,"velocity":0.5748031496062992},{"duration":0.11111099999999396,"midi":35,"time":84.44436,"velocity":0.5748031496062992},{"duration":0.11111099999999396,"midi":46,"time":84.44436,"velocity":0.5748031496062992},{"duration":0.11111099999999396,"midi":46,"time":84.666582,"velocity":0.5748031496062992},{"duration":0.11111099999999396,"midi":35,"time":84.666582,"velocity":0.5748031496062992},{"duration":0.11111099999999396,"midi":40,"time":84.666582,"velocity":0.5748031496062992},{"duration":0.11111099999999396,"midi":46,"time":84.88880400000001,"velocity":0.5748031496062992},{"duration":0.11111099999999396,"midi":35,"time":84.88880400000001,"velocity":0.5748031496062992},{"duration":0.11111100000000818,"midi":46,"time":85.111026,"velocity":0.5748031496062992},{"duration":0.11111100000000818,"midi":40,"time":85.111026,"velocity":0.5748031496062992},{"duration":0.11111100000000818,"midi":46,"time":85.333248,"velocity":0.5748031496062992},{"duration":0.11111100000000818,"midi":35,"time":85.333248,"velocity":0.5748031496062992},{"duration":0.11111100000000818,"midi":49,"time":85.333248,"velocity":0.5748031496062992},{"duration":0.11111100000000818,"midi":40,"time":85.55547,"velocity":0.5748031496062992},{"duration":0.11111100000000818,"midi":46,"time":85.55547,"velocity":0.5748031496062992},{"duration":0.11111099999999396,"midi":35,"time":85.66658100000001,"velocity":0.5748031496062992},{"duration":0.11111099999999396,"midi":46,"time":85.777692,"velocity":0.5748031496062992},{"duration":0.11111100000000818,"midi":35,"time":85.888803,"velocity":0.5748031496062992},{"duration":0.11111099999999396,"midi":40,"time":85.999914,"velocity":0.5748031496062992},{"duration":0.11111099999999396,"midi":46,"time":85.999914,"velocity":0.5748031496062992},{"duration":0.11111099999999396,"midi":35,"time":86.222136,"velocity":0.5748031496062992},{"duration":0.11111099999999396,"midi":46,"time":86.222136,"velocity":0.5748031496062992},{"duration":0.11111100000000818,"midi":46,"time":86.444358,"velocity":0.5748031496062992},{"duration":0.11111100000000818,"midi":40,"time":86.444358,"velocity":0.5748031496062992},{"duration":0.11111100000000818,"midi":35,"time":86.444358,"velocity":0.5748031496062992},{"duration":0.11111100000000818,"midi":35,"time":86.66658,"velocity":0.5748031496062992},{"duration":0.11111100000000818,"midi":46,"time":86.66658,"velocity":0.5748031496062992},{"duration":0.11111100000000818,"midi":46,"time":86.888802,"velocity":0.5748031496062992},{"duration":0.11111100000000818,"midi":40,"time":86.888802,"velocity":0.5748031496062992},{"duration":0.11111099999999396,"midi":46,"time":87.111024,"velocity":0.5748031496062992},{"duration":0.11111099999999396,"midi":35,"time":87.111024,"velocity":0.5748031496062992},{"duration":0.11111099999999396,"midi":46,"time":87.333246,"velocity":0.5748031496062992},{"duration":0.11111099999999396,"midi":40,"time":87.333246,"velocity":0.5748031496062992},{"duration":0.11111100000000818,"midi":35,"time":87.444357,"velocity":0.5748031496062992},{"duration":0.11111099999999396,"midi":46,"time":87.555468,"velocity":0.5748031496062992},{"duration":0.11111100000000818,"midi":35,"time":87.666579,"velocity":0.5748031496062992},{"duration":0.11111099999999396,"midi":46,"time":87.77769,"velocity":0.5748031496062992},{"duration":0.11111099999999396,"midi":40,"time":87.77769,"velocity":0.5748031496062992},{"duration":0.11111100000000818,"midi":35,"time":87.999912,"velocity":0.5748031496062992},{"duration":0.11111100000000818,"midi":46,"time":87.999912,"velocity":0.5748031496062992},{"duration":0.11111100000000818,"midi":40,"time":88.222134,"velocity":0.5748031496062992},{"duration":0.11111100000000818,"midi":35,"time":88.222134,"velocity":0.5748031496062992},{"duration":0.11111100000000818,"midi":46,"time":88.222134,"velocity":0.5748031496062992},{"duration":0.11111100000000818,"midi":46,"time":88.444356,"velocity":0.5748031496062992},{"duration":0.11111100000000818,"midi":35,"time":88.444356,"velocity":0.5748031496062992},{"duration":0.11111099999999396,"midi":46,"time":88.666578,"velocity":0.5748031496062992},{"duration":0.11111099999999396,"midi":40,"time":88.666578,"velocity":0.5748031496062992},{"duration":0.11111099999999396,"midi":35,"time":88.8888,"velocity":0.5748031496062992},{"duration":0.11111099999999396,"midi":46,"time":88.8888,"velocity":0.5748031496062992},{"duration":0.11111099999999396,"midi":46,"time":89.111022,"velocity":0.5748031496062992},{"duration":0.11111099999999396,"midi":40,"time":89.111022,"velocity":0.5748031496062992},{"duration":0.11111100000000818,"midi":35,"time":89.222133,"velocity":0.5748031496062992},{"duration":0.11111099999999396,"midi":46,"time":89.33324400000001,"velocity":0.5748031496062992},{"duration":0.11111099999999396,"midi":35,"time":89.444355,"velocity":0.5748031496062992},{"duration":0.11111100000000818,"midi":46,"time":89.555466,"velocity":0.5748031496062992},{"duration":0.11111100000000818,"midi":40,"time":89.555466,"velocity":0.5748031496062992},{"duration":0.11111100000000818,"midi":35,"time":89.777688,"velocity":0.5748031496062992},{"duration":0.11111100000000818,"midi":46,"time":89.777688,"velocity":0.5748031496062992},{"duration":0.11111100000000818,"midi":46,"time":89.99991,"velocity":0.5748031496062992},{"duration":0.11111100000000818,"midi":35,"time":89.99991,"velocity":0.5748031496062992},{"duration":0.11111100000000818,"midi":40,"time":89.99991,"velocity":0.5748031496062992},{"duration":0.11111099999999396,"midi":35,"time":90.222132,"velocity":0.5748031496062992},{"duration":0.11111099999999396,"midi":46,"time":90.222132,"velocity":0.5748031496062992},{"duration":0.11111099999999396,"midi":46,"time":90.444354,"velocity":0.5748031496062992},{"duration":0.11111099999999396,"midi":40,"time":90.444354,"velocity":0.5748031496062992},{"duration":0.11111099999999396,"midi":46,"time":90.666576,"velocity":0.5748031496062992},{"duration":0.11111099999999396,"midi":35,"time":90.666576,"velocity":0.5748031496062992},{"duration":0.11111100000000818,"midi":46,"time":90.888798,"velocity":0.5748031496062992},{"duration":0.11111100000000818,"midi":40,"time":90.888798,"velocity":0.5748031496062992},{"duration":0.11111099999999396,"midi":35,"time":90.999909,"velocity":0.5748031496062992},{"duration":0.11111100000000818,"midi":46,"time":91.11102,"velocity":0.5748031496062992},{"duration":0.11111099999999396,"midi":35,"time":91.222131,"velocity":0.5748031496062992},{"duration":0.11111100000000818,"midi":46,"time":91.333242,"velocity":0.5748031496062992},{"duration":0.11111100000000818,"midi":40,"time":91.333242,"velocity":0.5748031496062992},{"duration":0.11111099999999396,"midi":46,"time":91.555464,"velocity":0.5748031496062992},{"duration":0.11111099999999396,"midi":35,"time":91.555464,"velocity":0.5748031496062992},{"duration":0.11111099999999396,"midi":35,"time":91.777686,"velocity":0.5748031496062992},{"duration":0.11111099999999396,"midi":40,"time":91.777686,"velocity":0.5748031496062992},{"duration":0.11111099999999396,"midi":46,"time":91.777686,"velocity":0.5748031496062992},{"duration":0.11111099999999396,"midi":46,"time":91.999908,"velocity":0.5748031496062992},{"duration":0.11111099999999396,"midi":35,"time":91.999908,"velocity":0.5748031496062992},{"duration":0.11111099999999396,"midi":40,"time":92.22213,"velocity":0.5748031496062992},{"duration":0.11111099999999396,"midi":46,"time":92.22213,"velocity":0.5748031496062992},{"duration":0.11111100000000818,"midi":46,"time":92.444352,"velocity":0.5748031496062992},{"duration":0.11111100000000818,"midi":35,"time":92.444352,"velocity":0.5748031496062992},{"duration":0.11111100000000818,"midi":46,"time":92.666574,"velocity":0.5748031496062992},{"duration":0.11111100000000818,"midi":40,"time":92.666574,"velocity":0.5748031496062992},{"duration":0.11111099999999396,"midi":35,"time":92.777685,"velocity":0.5748031496062992},{"duration":0.11111100000000818,"midi":46,"time":92.888796,"velocity":0.5748031496062992},{"duration":0.11111099999999396,"midi":35,"time":92.99990700000001,"velocity":0.5748031496062992},{"duration":0.11111099999999396,"midi":46,"time":93.111018,"velocity":0.5748031496062992},{"duration":0.11111099999999396,"midi":40,"time":93.111018,"velocity":0.5748031496062992},{"duration":0.11111099999999396,"midi":46,"time":93.33324,"velocity":0.5748031496062992},{"duration":0.11111099999999396,"midi":35,"time":93.33324,"velocity":0.5748031496062992},{"duration":0.11111099999999396,"midi":35,"time":93.555462,"velocity":0.5748031496062992},{"duration":0.11111099999999396,"midi":40,"time":93.555462,"velocity":0.5748031496062992},{"duration":0.11111099999999396,"midi":46,"time":93.555462,"velocity":0.5748031496062992},{"duration":0.11111099999999396,"midi":35,"time":93.77768400000001,"velocity":0.5748031496062992},{"duration":0.11111099999999396,"midi":46,"time":93.77768400000001,"velocity":0.5748031496062992},{"duration":0.11111100000000818,"midi":46,"time":93.999906,"velocity":0.5748031496062992},{"duration":0.11111100000000818,"midi":40,"time":93.999906,"velocity":0.5748031496062992},{"duration":0.11111100000000818,"midi":46,"time":94.222128,"velocity":0.5748031496062992},{"duration":0.11111100000000818,"midi":35,"time":94.222128,"velocity":0.5748031496062992},{"duration":0.11111100000000818,"midi":46,"time":94.44435,"velocity":0.5748031496062992},{"duration":0.11111100000000818,"midi":40,"time":94.44435,"velocity":0.5748031496062992},{"duration":0.11111099999999396,"midi":35,"time":94.55546100000001,"velocity":0.5748031496062992},{"duration":0.11111099999999396,"midi":46,"time":94.666572,"velocity":0.5748031496062992},{"duration":0.11111100000000818,"midi":35,"time":94.777683,"velocity":0.5748031496062992},{"duration":0.11111099999999396,"midi":40,"time":94.888794,"velocity":0.5748031496062992},{"duration":0.11111099999999396,"midi":46,"time":94.888794,"velocity":0.5748031496062992},{"duration":0.11111099999999396,"midi":35,"time":95.111016,"velocity":0.5748031496062992},{"duration":0.11111099999999396,"midi":46,"time":95.111016,"velocity":0.5748031496062992},{"duration":0.11111100000000818,"midi":46,"time":95.333238,"velocity":0.5748031496062992},{"duration":0.11111100000000818,"midi":40,"time":95.333238,"velocity":0.5748031496062992},{"duration":0.11111100000000818,"midi":35,"time":95.333238,"velocity":0.5748031496062992},{"duration":0.11111100000000818,"midi":35,"time":95.55546,"velocity":0.5748031496062992},{"duration":0.11111100000000818,"midi":46,"time":95.55546,"velocity":0.5748031496062992},{"duration":0.11111100000000818,"midi":46,"time":95.777682,"velocity":0.5748031496062992},{"duration":0.11111100000000818,"midi":40,"time":95.777682,"velocity":0.5748031496062992},{"duration":0.11111099999999396,"midi":46,"time":95.999904,"velocity":0.5748031496062992},{"duration":0.11111099999999396,"midi":35,"time":95.999904,"velocity":0.5748031496062992},{"duration":0.11111099999999396,"midi":40,"time":96.222126,"velocity":0.5748031496062992},{"duration":0.11111099999999396,"midi":46,"time":96.222126,"velocity":0.5748031496062992},{"duration":0.11111100000000818,"midi":35,"time":96.333237,"velocity":0.5748031496062992},{"duration":0.11111099999999396,"midi":46,"time":96.444348,"velocity":0.5748031496062992},{"duration":0.11111100000000818,"midi":35,"time":96.555459,"velocity":0.5748031496062992},{"duration":0.11111099999999396,"midi":46,"time":96.66657000000001,"velocity":0.5748031496062992},{"duration":0.11111099999999396,"midi":40,"time":96.66657000000001,"velocity":0.5748031496062992},{"duration":0.11111100000000818,"midi":35,"time":96.888792,"velocity":0.5748031496062992},{"duration":0.11111100000000818,"midi":46,"time":96.888792,"velocity":0.5748031496062992},{"duration":0.11111100000000818,"midi":46,"time":97.111014,"velocity":0.5748031496062992},{"duration":0.11111100000000818,"midi":40,"time":97.111014,"velocity":0.5748031496062992},{"duration":0.11111100000000818,"midi":35,"time":97.111014,"velocity":0.5748031496062992},{"duration":0.11111100000000818,"midi":35,"time":97.333236,"velocity":0.5748031496062992},{"duration":0.11111100000000818,"midi":46,"time":97.333236,"velocity":0.5748031496062992},{"duration":0.11111099999999396,"midi":40,"time":97.555458,"velocity":0.5748031496062992},{"duration":0.11111099999999396,"midi":46,"time":97.555458,"velocity":0.5748031496062992},{"duration":0.11111099999999396,"midi":35,"time":97.77768,"velocity":0.5748031496062992},{"duration":0.11111099999999396,"midi":46,"time":97.77768,"velocity":0.5748031496062992},{"duration":0.11111099999999396,"midi":46,"time":97.999902,"velocity":0.5748031496062992},{"duration":0.11111099999999396,"midi":40,"time":97.999902,"velocity":0.5748031496062992},{"duration":0.11111100000000818,"midi":35,"time":98.111013,"velocity":0.5748031496062992},{"duration":0.11111099999999396,"midi":46,"time":98.22212400000001,"velocity":0.5748031496062992},{"duration":0.11111099999999396,"midi":35,"time":98.333235,"velocity":0.5748031496062992},{"duration":0.11111100000000818,"midi":46,"time":98.444346,"velocity":0.5748031496062992},{"duration":0.11111100000000818,"midi":40,"time":98.444346,"velocity":0.5748031496062992},{"duration":0.11111100000000818,"midi":35,"time":98.666568,"velocity":0.5748031496062992},{"duration":0.11111100000000818,"midi":46,"time":98.666568,"velocity":0.5748031496062992},{"duration":0.11111100000000818,"midi":46,"time":98.88879,"velocity":0.5748031496062992},{"duration":0.11111100000000818,"midi":35,"time":98.88879,"velocity":0.5748031496062992},{"duration":0.11111100000000818,"midi":40,"time":98.88879,"velocity":0.5748031496062992},{"duration":0.11111099999999396,"midi":46,"time":99.111012,"velocity":0.5748031496062992},{"duration":0.11111099999999396,"midi":35,"time":99.111012,"velocity":0.5748031496062992},{"duration":0.11111099999999396,"midi":40,"time":99.333234,"velocity":0.5748031496062992},{"duration":0.11111099999999396,"midi":46,"time":99.333234,"velocity":0.5748031496062992},{"duration":0.11111099999999396,"midi":35,"time":99.555456,"velocity":0.5748031496062992},{"duration":0.11111099999999396,"midi":46,"time":99.555456,"velocity":0.5748031496062992},{"duration":0.11111100000000818,"midi":40,"time":99.777678,"velocity":0.5748031496062992},{"duration":0.11111100000000818,"midi":46,"time":99.777678,"velocity":0.5748031496062992},{"duration":0.11111099999999396,"midi":35,"time":99.888789,"velocity":0.5748031496062992},{"duration":0.11111100000000818,"midi":46,"time":99.9999,"velocity":0.5748031496062992},{"duration":0.11111099999999396,"midi":35,"time":100.111011,"velocity":0.5748031496062992},{"duration":0.11111100000000818,"midi":46,"time":100.222122,"velocity":0.5748031496062992},{"duration":0.11111100000000818,"midi":40,"time":100.222122,"velocity":0.5748031496062992},{"duration":0.11111099999999396,"midi":35,"time":100.444344,"velocity":0.5748031496062992},{"duration":0.11111099999999396,"midi":46,"time":100.444344,"velocity":0.5748031496062992},{"duration":0.11111099999999396,"midi":35,"time":100.666566,"velocity":0.5748031496062992},{"duration":0.11111099999999396,"midi":46,"time":100.666566,"velocity":0.5748031496062992},{"duration":0.11111099999999396,"midi":40,"time":100.666566,"velocity":0.5748031496062992},{"duration":0.11111099999999396,"midi":46,"time":100.888788,"velocity":0.5748031496062992},{"duration":0.11111099999999396,"midi":35,"time":100.888788,"velocity":0.5748031496062992},{"duration":0.11111099999999396,"midi":40,"time":101.11101000000001,"velocity":0.5748031496062992},{"duration":0.11111099999999396,"midi":46,"time":101.11101000000001,"velocity":0.5748031496062992},{"duration":0.11111100000000818,"midi":35,"time":101.333232,"velocity":0.5748031496062992},{"duration":0.11111100000000818,"midi":46,"time":101.333232,"velocity":0.5748031496062992},{"duration":0.11111100000000818,"midi":46,"time":101.555454,"velocity":0.5748031496062992},{"duration":0.11111100000000818,"midi":40,"time":101.555454,"velocity":0.5748031496062992},{"duration":0.11111099999999396,"midi":35,"time":101.666565,"velocity":0.5748031496062992},{"duration":0.11111100000000818,"midi":46,"time":101.777676,"velocity":0.5748031496062992},{"duration":0.11111099999999396,"midi":35,"time":101.88878700000001,"velocity":0.5748031496062992},{"duration":0.11111099999999396,"midi":46,"time":101.999898,"velocity":0.5748031496062992},{"duration":0.11111099999999396,"midi":40,"time":101.999898,"velocity":0.5748031496062992},{"duration":0.11111099999999396,"midi":35,"time":102.22212,"velocity":0.5748031496062992},{"duration":0.11111099999999396,"midi":46,"time":102.22212,"velocity":0.5748031496062992},{"duration":0.11111099999999396,"midi":40,"time":102.444342,"velocity":0.5748031496062992},{"duration":0.11111099999999396,"midi":35,"time":102.444342,"velocity":0.5748031496062992},{"duration":0.11111099999999396,"midi":46,"time":102.444342,"velocity":0.5748031496062992},{"duration":0.11111099999999396,"midi":35,"time":102.66656400000001,"velocity":0.5748031496062992},{"duration":0.11111099999999396,"midi":46,"time":102.66656400000001,"velocity":0.5748031496062992},{"duration":0.11111100000000818,"midi":40,"time":102.888786,"velocity":0.5748031496062992},{"duration":0.11111100000000818,"midi":46,"time":102.888786,"velocity":0.5748031496062992},{"duration":0.11111100000000818,"midi":35,"time":103.111008,"velocity":0.5748031496062992},{"duration":0.11111100000000818,"midi":46,"time":103.111008,"velocity":0.5748031496062992},{"duration":0.11111099999999396,"midi":40,"time":103.33323,"velocity":0.5748031496062992},{"duration":0.11111099999999396,"midi":46,"time":103.33323,"velocity":0.5748031496062992},{"duration":0.11111100000000818,"midi":35,"time":103.444341,"velocity":0.5748031496062992},{"duration":0.11111099999999396,"midi":46,"time":103.555452,"velocity":0.5748031496062992},{"duration":0.11111100000000818,"midi":35,"time":103.666563,"velocity":0.5748031496062992},{"duration":0.11111099999999396,"midi":40,"time":103.777674,"velocity":0.5748031496062992},{"duration":0.11111099999999396,"midi":46,"time":103.777674,"velocity":0.5748031496062992},{"duration":0.11111099999999396,"midi":46,"time":103.999896,"velocity":0.5748031496062992},{"duration":0.11111099999999396,"midi":35,"time":103.999896,"velocity":0.5748031496062992},{"duration":0.11111100000000818,"midi":46,"time":104.222118,"velocity":0.5748031496062992},{"duration":0.11111100000000818,"midi":40,"time":104.222118,"velocity":0.5748031496062992},{"duration":0.11111100000000818,"midi":35,"time":104.222118,"velocity":0.5748031496062992},{"duration":0.11111100000000818,"midi":46,"time":104.44434,"velocity":0.5748031496062992},{"duration":0.11111100000000818,"midi":35,"time":104.44434,"velocity":0.5748031496062992},{"duration":0.11111100000000818,"midi":40,"time":104.666562,"velocity":0.5748031496062992},{"duration":0.11111100000000818,"midi":46,"time":104.666562,"velocity":0.5748031496062992},{"duration":0.11111099999999396,"midi":46,"time":104.888784,"velocity":0.5748031496062992},{"duration":0.11111099999999396,"midi":35,"time":104.888784,"velocity":0.5748031496062992},{"duration":0.11111099999999396,"midi":46,"time":105.111006,"velocity":0.5748031496062992},{"duration":0.11111099999999396,"midi":40,"time":105.111006,"velocity":0.5748031496062992},{"duration":0.11111100000000818,"midi":35,"time":105.222117,"velocity":0.5748031496062992},{"duration":0.11111099999999396,"midi":46,"time":105.333228,"velocity":0.5748031496062992},{"duration":0.11111100000000818,"midi":35,"time":105.444339,"velocity":0.5748031496062992},{"duration":0.11111099999999396,"midi":40,"time":105.55545000000001,"velocity":0.5748031496062992},{"duration":0.11111099999999396,"midi":46,"time":105.55545000000001,"velocity":0.5748031496062992},{"duration":0.11111100000000818,"midi":35,"time":105.777672,"velocity":0.5748031496062992},{"duration":0.11111100000000818,"midi":46,"time":105.777672,"velocity":0.5748031496062992},{"duration":0.11111100000000818,"midi":40,"time":105.999894,"velocity":0.5748031496062992},{"duration":0.11111100000000818,"midi":35,"time":105.999894,"velocity":0.5748031496062992},{"duration":0.11111100000000818,"midi":46,"time":105.999894,"velocity":0.5748031496062992},{"duration":0.11111100000000818,"midi":35,"time":106.222116,"velocity":0.5748031496062992},{"duration":0.11111100000000818,"midi":46,"time":106.222116,"velocity":0.5748031496062992},{"duration":0.11111099999999396,"midi":46,"time":106.444338,"velocity":0.5748031496062992},{"duration":0.11111099999999396,"midi":40,"time":106.444338,"velocity":0.5748031496062992},{"duration":0.11111099999999396,"midi":35,"time":106.66656,"velocity":0.5748031496062992},{"duration":0.11111099999999396,"midi":46,"time":106.66656,"velocity":0.5748031496062992},{"duration":0.11111099999999396,"midi":46,"time":106.888782,"velocity":0.5748031496062992},{"duration":0.11111099999999396,"midi":40,"time":106.888782,"velocity":0.5748031496062992},{"duration":0.11111100000000818,"midi":35,"time":106.999893,"velocity":0.5748031496062992},{"duration":0.11111099999999396,"midi":46,"time":107.11100400000001,"velocity":0.5748031496062992},{"duration":0.11111099999999396,"midi":35,"time":107.222115,"velocity":0.5748031496062992},{"duration":0.11111100000000818,"midi":40,"time":107.333226,"velocity":0.5748031496062992},{"duration":0.11111100000000818,"midi":46,"time":107.333226,"velocity":0.5748031496062992},{"duration":0.11111100000000818,"midi":46,"time":107.555448,"velocity":0.5748031496062992},{"duration":0.11111100000000818,"midi":35,"time":107.555448,"velocity":0.5748031496062992},{"duration":0.11111099999999396,"midi":40,"time":107.77767,"velocity":0.5748031496062992},{"duration":0.11111099999999396,"midi":46,"time":107.77767,"velocity":0.5748031496062992},{"duration":0.11111099999999396,"midi":35,"time":107.77767,"velocity":0.5748031496062992},{"duration":0.11111099999999396,"midi":46,"time":107.999892,"velocity":0.5748031496062992},{"duration":0.11111099999999396,"midi":35,"time":107.999892,"velocity":0.5748031496062992},{"duration":0.11111099999999396,"midi":46,"time":108.222114,"velocity":0.5748031496062992},{"duration":0.11111099999999396,"midi":40,"time":108.222114,"velocity":0.5748031496062992},{"duration":0.11111099999999396,"midi":46,"time":108.444336,"velocity":0.5748031496062992},{"duration":0.11111099999999396,"midi":35,"time":108.444336,"velocity":0.5748031496062992},{"duration":0.11111100000000818,"midi":40,"time":108.666558,"velocity":0.5748031496062992},{"duration":0.11111100000000818,"midi":46,"time":108.666558,"velocity":0.5748031496062992},{"duration":0.11111099999999396,"midi":35,"time":108.777669,"velocity":0.5748031496062992},{"duration":0.11111100000000818,"midi":46,"time":108.88878,"velocity":0.5748031496062992},{"duration":0.11111099999999396,"midi":35,"time":108.999891,"velocity":0.5748031496062992},{"duration":0.11111100000000818,"midi":46,"time":109.111002,"velocity":0.5748031496062992},{"duration":0.11111100000000818,"midi":40,"time":109.111002,"velocity":0.5748031496062992},{"duration":0.11111099999999396,"midi":35,"time":109.333224,"velocity":0.5748031496062992},{"duration":0.11111099999999396,"midi":46,"time":109.333224,"velocity":0.5748031496062992},{"duration":0.11111099999999396,"midi":35,"time":109.555446,"velocity":0.5748031496062992},{"duration":0.11111099999999396,"midi":46,"time":109.555446,"velocity":0.5748031496062992},{"duration":0.11111099999999396,"midi":40,"time":109.555446,"velocity":0.5748031496062992},{"duration":0.11111099999999396,"midi":46,"time":109.777668,"velocity":0.5748031496062992},{"duration":0.11111099999999396,"midi":35,"time":109.777668,"velocity":0.5748031496062992},{"duration":0.11111099999999396,"midi":40,"time":109.99989000000001,"velocity":0.5748031496062992},{"duration":0.11111099999999396,"midi":46,"time":109.99989000000001,"velocity":0.5748031496062992},{"duration":0.11111100000000818,"midi":46,"time":110.222112,"velocity":0.5748031496062992},{"duration":0.11111100000000818,"midi":35,"time":110.222112,"velocity":0.5748031496062992},{"duration":0.11111100000000818,"midi":46,"time":110.444334,"velocity":0.5748031496062992},{"duration":0.11111100000000818,"midi":40,"time":110.444334,"velocity":0.5748031496062992},{"duration":0.11111099999999396,"midi":35,"time":110.555445,"velocity":0.5748031496062992},{"duration":0.11111100000000818,"midi":46,"time":110.666556,"velocity":0.5748031496062992},{"duration":0.11111099999999396,"midi":35,"time":110.77766700000001,"velocity":0.5748031496062992},{"duration":0.11111099999999396,"midi":46,"time":110.888778,"velocity":0.5748031496062992},{"duration":0.11111099999999396,"midi":40,"time":110.888778,"velocity":0.5748031496062992},{"duration":0.11111099999999396,"midi":35,"time":111.111,"velocity":0.5748031496062992},{"duration":0.11111099999999396,"midi":46,"time":111.111,"velocity":0.5748031496062992},{"duration":0.11111099999999396,"midi":35,"time":111.333222,"velocity":0.5748031496062992},{"duration":0.11111099999999396,"midi":40,"time":111.333222,"velocity":0.5748031496062992},{"duration":0.11111099999999396,"midi":46,"time":111.333222,"velocity":0.5748031496062992},{"duration":0.11111099999999396,"midi":46,"time":111.55544400000001,"velocity":0.5748031496062992},{"duration":0.11111099999999396,"midi":35,"time":111.55544400000001,"velocity":0.5748031496062992},{"duration":0.11111100000000818,"midi":46,"time":111.777666,"velocity":0.5748031496062992},{"duration":0.11111100000000818,"midi":40,"time":111.777666,"velocity":0.5748031496062992},{"duration":0.11111099999999396,"midi":49,"time":113.777664,"velocity":0.5748031496062992},{"duration":0.11111099999999396,"midi":46,"time":113.777664,"velocity":0.5748031496062992},{"duration":0.11111099999999396,"midi":35,"time":113.777664,"velocity":0.5748031496062992},{"duration":0.11111099999999396,"midi":46,"time":113.999886,"velocity":0.5748031496062992},{"duration":0.11111099999999396,"midi":40,"time":113.999886,"velocity":0.5748031496062992},{"duration":0.11111100000000818,"midi":35,"time":114.110997,"velocity":0.5748031496062992},{"duration":0.11111099999999396,"midi":46,"time":114.222108,"velocity":0.5748031496062992},{"duration":0.11111100000000818,"midi":35,"time":114.333219,"velocity":0.5748031496062992},{"duration":0.11111099999999396,"midi":46,"time":114.44433000000001,"velocity":0.5748031496062992},{"duration":0.11111099999999396,"midi":40,"time":114.44433000000001,"velocity":0.5748031496062992},{"duration":0.11111100000000818,"midi":35,"time":114.666552,"velocity":0.5748031496062992},{"duration":0.11111100000000818,"midi":46,"time":114.666552,"velocity":0.5748031496062992},{"duration":0.11111100000000818,"midi":35,"time":114.888774,"velocity":0.5748031496062992},{"duration":0.11111100000000818,"midi":46,"time":114.888774,"velocity":0.5748031496062992},{"duration":0.11111100000000818,"midi":40,"time":114.888774,"velocity":0.5748031496062992},{"duration":0.11111100000000818,"midi":46,"time":115.110996,"velocity":0.5748031496062992},{"duration":0.11111100000000818,"midi":35,"time":115.110996,"velocity":0.5748031496062992},{"duration":0.11111099999999396,"midi":46,"time":115.333218,"velocity":0.5748031496062992},{"duration":0.11111099999999396,"midi":40,"time":115.333218,"velocity":0.5748031496062992},{"duration":0.11111099999999396,"midi":35,"time":115.55544,"velocity":0.5748031496062992},{"duration":0.11111099999999396,"midi":46,"time":115.55544,"velocity":0.5748031496062992},{"duration":0.11111099999999396,"midi":40,"time":115.777662,"velocity":0.5748031496062992},{"duration":0.11111099999999396,"midi":46,"time":115.777662,"velocity":0.5748031496062992},{"duration":0.11111099999999396,"midi":35,"time":115.888773,"velocity":0.5748031496062992},{"duration":0.11111100000000818,"midi":46,"time":115.999884,"velocity":0.5748031496062992},{"duration":0.11111099999999396,"midi":35,"time":116.110995,"velocity":0.5748031496062992},{"duration":0.11111100000000818,"midi":40,"time":116.222106,"velocity":0.5748031496062992},{"duration":0.11111100000000818,"midi":46,"time":116.222106,"velocity":0.5748031496062992},{"duration":0.11111100000000818,"midi":35,"time":116.444328,"velocity":0.5748031496062992},{"duration":0.11111100000000818,"midi":46,"time":116.444328,"velocity":0.5748031496062992},{"duration":0.11111099999999396,"midi":35,"time":116.66655,"velocity":0.5748031496062992},{"duration":0.11111099999999396,"midi":40,"time":116.66655,"velocity":0.5748031496062992},{"duration":0.11111099999999396,"midi":46,"time":116.66655,"velocity":0.5748031496062992},{"duration":0.11111099999999396,"midi":35,"time":116.888772,"velocity":0.5748031496062992},{"duration":0.11111099999999396,"midi":46,"time":116.888772,"velocity":0.5748031496062992},{"duration":0.11111099999999396,"midi":40,"time":117.110994,"velocity":0.5748031496062992},{"duration":0.11111099999999396,"midi":46,"time":117.110994,"velocity":0.5748031496062992},{"duration":0.11111099999999396,"midi":46,"time":117.33321600000001,"velocity":0.5748031496062992},{"duration":0.11111099999999396,"midi":35,"time":117.33321600000001,"velocity":0.5748031496062992},{"duration":0.11111100000000818,"midi":40,"time":117.555438,"velocity":0.5748031496062992},{"duration":0.11111100000000818,"midi":46,"time":117.555438,"velocity":0.5748031496062992},{"duration":0.11111099999999396,"midi":35,"time":117.666549,"velocity":0.5748031496062992},{"duration":0.11111100000000818,"midi":46,"time":117.77766,"velocity":0.5748031496062992},{"duration":0.11111099999999396,"midi":35,"time":117.888771,"velocity":0.5748031496062992},{"duration":0.11111100000000818,"midi":40,"time":117.999882,"velocity":0.5748031496062992},{"duration":0.11111100000000818,"midi":46,"time":117.999882,"velocity":0.5748031496062992},{"duration":0.11111099999999396,"midi":35,"time":118.222104,"velocity":0.5748031496062992},{"duration":0.11111099999999396,"midi":46,"time":118.222104,"velocity":0.5748031496062992},{"duration":0.11111099999999396,"midi":46,"time":118.444326,"velocity":0.5748031496062992},{"duration":0.11111099999999396,"midi":40,"time":118.444326,"velocity":0.5748031496062992},{"duration":0.11111099999999396,"midi":35,"time":118.444326,"velocity":0.5748031496062992},{"duration":0.11111099999999396,"midi":46,"time":118.666548,"velocity":0.5748031496062992},{"duration":0.11111099999999396,"midi":35,"time":118.666548,"velocity":0.5748031496062992},{"duration":0.11111099999999396,"midi":40,"time":118.88877000000001,"velocity":0.5748031496062992},{"duration":0.11111099999999396,"midi":46,"time":118.88877000000001,"velocity":0.5748031496062992},{"duration":0.11111100000000818,"midi":35,"time":119.110992,"velocity":0.5748031496062992},{"duration":0.11111100000000818,"midi":46,"time":119.110992,"velocity":0.5748031496062992},{"duration":0.11111100000000818,"midi":46,"time":119.333214,"velocity":0.5748031496062992},{"duration":0.11111100000000818,"midi":40,"time":119.333214,"velocity":0.5748031496062992},{"duration":0.11111099999999396,"midi":35,"time":119.444325,"velocity":0.5748031496062992},{"duration":0.11111100000000818,"midi":46,"time":119.555436,"velocity":0.5748031496062992},{"duration":0.11111099999999396,"midi":35,"time":119.66654700000001,"velocity":0.5748031496062992},{"duration":0.11111099999999396,"midi":40,"time":119.777658,"velocity":0.5748031496062992},{"duration":0.11111099999999396,"midi":46,"time":119.777658,"velocity":0.5748031496062992},{"duration":0.11111099999999396,"midi":35,"time":119.99988,"velocity":0.5748031496062992},{"duration":0.11111099999999396,"midi":46,"time":119.99988,"velocity":0.5748031496062992},{"duration":0.11111099999999396,"midi":46,"time":120.222102,"velocity":0.5748031496062992},{"duration":0.11111099999999396,"midi":35,"time":120.222102,"velocity":0.5748031496062992},{"duration":0.11111099999999396,"midi":40,"time":120.222102,"velocity":0.5748031496062992},{"duration":0.11111100000000818,"midi":35,"time":120.444324,"velocity":0.5748031496062992},{"duration":0.11111100000000818,"midi":46,"time":120.444324,"velocity":0.5748031496062992},{"duration":0.11111100000000818,"midi":40,"time":120.666546,"velocity":0.5748031496062992},{"duration":0.11111100000000818,"midi":46,"time":120.666546,"velocity":0.5748031496062992},{"duration":0.11111100000000818,"midi":46,"time":120.888768,"velocity":0.5748031496062992},{"duration":0.11111100000000818,"midi":35,"time":120.888768,"velocity":0.5748031496062992},{"duration":0.11111099999999396,"midi":46,"time":121.11099,"velocity":0.5748031496062992},{"duration":0.11111099999999396,"midi":40,"time":121.11099,"velocity":0.5748031496062992},{"duration":0.11111100000000818,"midi":35,"time":121.222101,"velocity":0.5748031496062992},{"duration":0.11111099999999396,"midi":46,"time":121.333212,"velocity":0.5748031496062992},{"duration":0.11111100000000818,"midi":35,"time":121.444323,"velocity":0.5748031496062992},{"duration":0.11111099999999396,"midi":46,"time":121.555434,"velocity":0.5748031496062992},{"duration":0.11111099999999396,"midi":40,"time":121.555434,"velocity":0.5748031496062992},{"duration":0.11111099999999396,"midi":35,"time":121.77765600000001,"velocity":0.5748031496062992},{"duration":0.11111099999999396,"midi":46,"time":121.77765600000001,"velocity":0.5748031496062992},{"duration":0.11111100000000818,"midi":46,"time":121.999878,"velocity":0.5748031496062992},{"duration":0.11111100000000818,"midi":40,"time":121.999878,"velocity":0.5748031496062992},{"duration":0.11111100000000818,"midi":35,"time":121.999878,"velocity":0.5748031496062992},{"duration":0.11111100000000818,"midi":46,"time":122.2221,"velocity":0.5748031496062992},{"duration":0.11111100000000818,"midi":35,"time":122.2221,"velocity":0.5748031496062992},{"duration":0.11111100000000818,"midi":46,"time":122.444322,"velocity":0.5748031496062992},{"duration":0.11111100000000818,"midi":40,"time":122.444322,"velocity":0.5748031496062992},{"duration":0.11111099999999396,"midi":46,"time":122.666544,"velocity":0.5748031496062992},{"duration":0.11111099999999396,"midi":35,"time":122.666544,"velocity":0.5748031496062992},{"duration":0.11111099999999396,"midi":40,"time":122.888766,"velocity":0.5748031496062992},{"duration":0.11111099999999396,"midi":46,"time":122.888766,"velocity":0.5748031496062992},{"duration":0.11111100000000818,"midi":35,"time":122.999877,"velocity":0.5748031496062992},{"duration":0.11111099999999396,"midi":46,"time":123.110988,"velocity":0.5748031496062992},{"duration":0.11111100000000818,"midi":35,"time":123.222099,"velocity":0.5748031496062992},{"duration":0.11111099999999396,"midi":46,"time":123.33321000000001,"velocity":0.5748031496062992},{"duration":0.11111099999999396,"midi":40,"time":123.33321000000001,"velocity":0.5748031496062992},{"duration":0.11111100000000818,"midi":35,"time":123.555432,"velocity":0.5748031496062992},{"duration":0.11111100000000818,"midi":46,"time":123.555432,"velocity":0.5748031496062992},{"duration":0.11111100000000818,"midi":35,"time":123.777654,"velocity":0.5748031496062992},{"duration":0.11111100000000818,"midi":40,"time":123.777654,"velocity":0.5748031496062992},{"duration":0.11111100000000818,"midi":46,"time":123.777654,"velocity":0.5748031496062992},{"duration":0.11111100000000818,"midi":35,"time":123.999876,"velocity":0.5748031496062992},{"duration":0.11111100000000818,"midi":46,"time":123.999876,"velocity":0.5748031496062992},{"duration":0.11111099999999396,"midi":40,"time":124.222098,"velocity":0.5748031496062992},{"duration":0.11111099999999396,"midi":46,"time":124.222098,"velocity":0.5748031496062992},{"duration":0.11111099999999396,"midi":46,"time":124.44432,"velocity":0.5748031496062992},{"duration":0.11111099999999396,"midi":35,"time":124.44432,"velocity":0.5748031496062992},{"duration":0.11111099999999396,"midi":46,"time":124.666542,"velocity":0.5748031496062992},{"duration":0.11111099999999396,"midi":40,"time":124.666542,"velocity":0.5748031496062992},{"duration":0.11111099999999396,"midi":35,"time":124.777653,"velocity":0.5748031496062992},{"duration":0.11111100000000818,"midi":46,"time":124.888764,"velocity":0.5748031496062992},{"duration":0.11111099999999396,"midi":35,"time":124.999875,"velocity":0.5748031496062992},{"duration":0.11111100000000818,"midi":40,"time":125.110986,"velocity":0.5748031496062992},{"duration":0.11111100000000818,"midi":46,"time":125.110986,"velocity":0.5748031496062992},{"duration":0.11111100000000818,"midi":46,"time":125.333208,"velocity":0.5748031496062992},{"duration":0.11111100000000818,"midi":35,"time":125.333208,"velocity":0.5748031496062992},{"duration":0.11111099999999396,"midi":46,"time":125.55543,"velocity":0.5748031496062992},{"duration":0.11111099999999396,"midi":40,"time":125.55543,"velocity":0.5748031496062992},{"duration":0.11111099999999396,"midi":35,"time":125.55543,"velocity":0.5748031496062992},{"duration":0.11111099999999396,"midi":35,"time":125.777652,"velocity":0.5748031496062992},{"duration":0.11111099999999396,"midi":46,"time":125.777652,"velocity":0.5748031496062992},{"duration":0.11111099999999396,"midi":46,"time":125.999874,"velocity":0.5748031496062992},{"duration":0.11111099999999396,"midi":40,"time":125.999874,"velocity":0.5748031496062992},{"duration":0.11111099999999396,"midi":35,"time":126.22209600000001,"velocity":0.5748031496062992},{"duration":0.11111099999999396,"midi":46,"time":126.22209600000001,"velocity":0.5748031496062992},{"duration":0.11111100000000818,"midi":46,"time":126.444318,"velocity":0.5748031496062992},{"duration":0.11111100000000818,"midi":40,"time":126.444318,"velocity":0.5748031496062992},{"duration":0.11111099999999396,"midi":35,"time":126.555429,"velocity":0.5748031496062992},{"duration":0.11111100000000818,"midi":46,"time":126.66654,"velocity":0.5748031496062992},{"duration":0.11111099999999396,"midi":35,"time":126.777651,"velocity":0.5748031496062992},{"duration":0.11111100000000818,"midi":46,"time":126.888762,"velocity":0.5748031496062992},{"duration":0.11111100000000818,"midi":40,"time":126.888762,"velocity":0.5748031496062992},{"duration":0.11111099999999396,"midi":46,"time":127.110984,"velocity":0.5748031496062992},{"duration":0.11111099999999396,"midi":35,"time":127.110984,"velocity":0.5748031496062992},{"duration":0.11111099999999396,"midi":35,"time":127.333206,"velocity":0.5748031496062992},{"duration":0.11111099999999396,"midi":40,"time":127.333206,"velocity":0.5748031496062992},{"duration":0.11111099999999396,"midi":46,"time":127.333206,"velocity":0.5748031496062992},{"duration":0.11111099999999396,"midi":46,"time":127.555428,"velocity":0.5748031496062992},{"duration":0.11111099999999396,"midi":35,"time":127.555428,"velocity":0.5748031496062992},{"duration":0.11111099999999396,"midi":46,"time":127.77765000000001,"velocity":0.5748031496062992},{"duration":0.11111099999999396,"midi":40,"time":127.77765000000001,"velocity":0.5748031496062992},{"duration":0.11111100000000818,"midi":35,"time":127.999872,"velocity":0.5748031496062992},{"duration":0.11111100000000818,"midi":46,"time":127.999872,"velocity":0.5748031496062992},{"duration":0.11111099999999396,"midi":40,"time":128.222094,"velocity":0.5748031496062992},{"duration":0.11111099999999396,"midi":46,"time":128.222094,"velocity":0.5748031496062992},{"duration":0.11111100000002239,"midi":35,"time":128.333205,"velocity":0.5748031496062992},{"duration":0.11111099999999396,"midi":46,"time":128.44431600000001,"velocity":0.5748031496062992},{"duration":0.11111099999999396,"midi":35,"time":128.555427,"velocity":0.5748031496062992},{"duration":0.11111099999999396,"midi":46,"time":128.666538,"velocity":0.5748031496062992},{"duration":0.11111099999999396,"midi":40,"time":128.666538,"velocity":0.5748031496062992},{"duration":0.11111100000002239,"midi":35,"time":128.88876,"velocity":0.5748031496062992},{"duration":0.11111100000002239,"midi":46,"time":128.88876,"velocity":0.5748031496062992},{"duration":0.11111099999999396,"midi":46,"time":129.110982,"velocity":0.5748031496062992},{"duration":0.11111099999999396,"midi":35,"time":129.110982,"velocity":0.5748031496062992},{"duration":0.11111099999999396,"midi":40,"time":129.110982,"velocity":0.5748031496062992},{"duration":0.11111099999999396,"midi":46,"time":129.333204,"velocity":0.5748031496062992},{"duration":0.11111099999999396,"midi":35,"time":129.333204,"velocity":0.5748031496062992},{"duration":0.11111099999999396,"midi":40,"time":129.555426,"velocity":0.5748031496062992},{"duration":0.11111099999999396,"midi":46,"time":129.555426,"velocity":0.5748031496062992},{"duration":0.11111099999999396,"midi":35,"time":129.777648,"velocity":0.5748031496062992},{"duration":0.11111099999999396,"midi":46,"time":129.777648,"velocity":0.5748031496062992},{"duration":0.11111099999999396,"midi":40,"time":129.99987000000002,"velocity":0.5748031496062992},{"duration":0.11111099999999396,"midi":46,"time":129.99987000000002,"velocity":0.5748031496062992},{"duration":0.11111099999999396,"midi":35,"time":130.110981,"velocity":0.5748031496062992},{"duration":0.11111099999999396,"midi":46,"time":130.222092,"velocity":0.5748031496062992},{"duration":0.11111099999999396,"midi":35,"time":130.333203,"velocity":0.5748031496062992},{"duration":0.11111100000002239,"midi":46,"time":130.444314,"velocity":0.5748031496062992},{"duration":0.11111100000002239,"midi":40,"time":130.444314,"velocity":0.5748031496062992},{"duration":0.11111099999999396,"midi":46,"time":130.666536,"velocity":0.5748031496062992},{"duration":0.11111099999999396,"midi":35,"time":130.666536,"velocity":0.5748031496062992},{"duration":0.11111099999999396,"midi":46,"time":130.888758,"velocity":0.5748031496062992},{"duration":0.11111099999999396,"midi":35,"time":130.888758,"velocity":0.5748031496062992},{"duration":0.11111099999999396,"midi":40,"time":130.888758,"velocity":0.5748031496062992},{"duration":0.11111099999999396,"midi":46,"time":131.11098,"velocity":0.5748031496062992},{"duration":0.11111099999999396,"midi":35,"time":131.11098,"velocity":0.5748031496062992},{"duration":0.11111099999999396,"midi":46,"time":131.333202,"velocity":0.5748031496062992},{"duration":0.11111099999999396,"midi":40,"time":131.333202,"velocity":0.5748031496062992},{"duration":0.11111100000002239,"midi":46,"time":131.555424,"velocity":0.5748031496062992},{"duration":0.11111100000002239,"midi":35,"time":131.555424,"velocity":0.5748031496062992},{"duration":0.11111099999999396,"midi":40,"time":131.777646,"velocity":0.5748031496062992},{"duration":0.11111099999999396,"midi":46,"time":131.777646,"velocity":0.5748031496062992},{"duration":0.11111099999999396,"midi":35,"time":131.888757,"velocity":0.5748031496062992},{"duration":0.11111100000002239,"midi":46,"time":131.999868,"velocity":0.5748031496062992},{"duration":0.11111099999999396,"midi":35,"time":132.11097900000001,"velocity":0.5748031496062992},{"duration":0.11111099999999396,"midi":40,"time":132.22209,"velocity":0.5748031496062992},{"duration":0.11111099999999396,"midi":46,"time":132.22209,"velocity":0.5748031496062992},{"duration":0.11111099999999396,"midi":46,"time":132.444312,"velocity":0.5748031496062992},{"duration":0.11111099999999396,"midi":35,"time":132.444312,"velocity":0.5748031496062992},{"duration":0.11111099999999396,"midi":35,"time":132.666534,"velocity":0.5748031496062992},{"duration":0.11111099999999396,"midi":40,"time":132.666534,"velocity":0.5748031496062992},{"duration":0.11111099999999396,"midi":46,"time":132.666534,"velocity":0.5748031496062992},{"duration":0.11111099999999396,"midi":35,"time":132.888756,"velocity":0.5748031496062992},{"duration":0.11111099999999396,"midi":46,"time":132.888756,"velocity":0.5748031496062992},{"duration":0.11111100000002239,"midi":46,"time":133.110978,"velocity":0.5748031496062992},{"duration":0.11111100000002239,"midi":40,"time":133.110978,"velocity":0.5748031496062992},{"duration":0.11111099999999396,"midi":46,"time":133.3332,"velocity":0.5748031496062992},{"duration":0.11111099999999396,"midi":35,"time":133.3332,"velocity":0.5748031496062992},{"duration":0.11111100000002239,"midi":40,"time":133.555422,"velocity":0.5748031496062992},{"duration":0.11111100000002239,"midi":46,"time":133.555422,"velocity":0.5748031496062992},{"duration":0.11111099999999396,"midi":35,"time":133.66653300000002,"velocity":0.5748031496062992},{"duration":0.11111099999999396,"midi":46,"time":133.777644,"velocity":0.5748031496062992},{"duration":0.11111099999999396,"midi":35,"time":133.888755,"velocity":0.5748031496062992},{"duration":0.11111099999999396,"midi":46,"time":133.999866,"velocity":0.5748031496062992},{"duration":0.11111099999999396,"midi":40,"time":133.999866,"velocity":0.5748031496062992},{"duration":0.11111099999999396,"midi":46,"time":134.222088,"velocity":0.5748031496062992},{"duration":0.11111099999999396,"midi":35,"time":134.222088,"velocity":0.5748031496062992},{"duration":0.11111099999999396,"midi":46,"time":134.44431,"velocity":0.5748031496062992},{"duration":0.11111099999999396,"midi":35,"time":134.44431,"velocity":0.5748031496062992},{"duration":0.11111099999999396,"midi":40,"time":134.44431,"velocity":0.5748031496062992},{"duration":0.11111100000002239,"midi":46,"time":134.666532,"velocity":0.5748031496062992},{"duration":0.11111100000002239,"midi":35,"time":134.666532,"velocity":0.5748031496062992},{"duration":0.11111099999999396,"midi":46,"time":134.888754,"velocity":0.5748031496062992},{"duration":0.11111099999999396,"midi":40,"time":134.888754,"velocity":0.5748031496062992},{"duration":0.11111099999999396,"midi":35,"time":135.110976,"velocity":0.5748031496062992},{"duration":0.11111099999999396,"midi":46,"time":135.110976,"velocity":0.5748031496062992},{"duration":0.11111099999999396,"midi":40,"time":135.333198,"velocity":0.5748031496062992},{"duration":0.11111099999999396,"midi":46,"time":135.333198,"velocity":0.5748031496062992},{"duration":0.11111099999999396,"midi":35,"time":135.444309,"velocity":0.5748031496062992},{"duration":0.11111099999999396,"midi":46,"time":135.55542,"velocity":0.5748031496062992},{"duration":0.11111100000002239,"midi":35,"time":135.666531,"velocity":0.5748031496062992},{"duration":0.11111099999999396,"midi":40,"time":135.77764200000001,"velocity":0.5748031496062992},{"duration":0.11111099999999396,"midi":46,"time":135.77764200000001,"velocity":0.5748031496062992},{"duration":0.11111099999999396,"midi":35,"time":135.999864,"velocity":0.5748031496062992},{"duration":0.11111099999999396,"midi":46,"time":135.999864,"velocity":0.5748031496062992},{"duration":0.11111100000002239,"midi":35,"time":136.222086,"velocity":0.5748031496062992},{"duration":0.11111100000002239,"midi":46,"time":136.222086,"velocity":0.5748031496062992},{"duration":0.11111100000002239,"midi":40,"time":136.222086,"velocity":0.5748031496062992},{"duration":0.11111099999999396,"midi":46,"time":136.444308,"velocity":0.5748031496062992},{"duration":0.11111099999999396,"midi":35,"time":136.444308,"velocity":0.5748031496062992},{"duration":0.11111099999999396,"midi":40,"time":136.66653,"velocity":0.5748031496062992},{"duration":0.11111099999999396,"midi":46,"time":136.66653,"velocity":0.5748031496062992},{"duration":0.11111099999999396,"midi":35,"time":136.888752,"velocity":0.5748031496062992},{"duration":0.11111099999999396,"midi":46,"time":136.888752,"velocity":0.5748031496062992},{"duration":0.11111099999999396,"midi":40,"time":137.110974,"velocity":0.5748031496062992},{"duration":0.11111099999999396,"midi":46,"time":137.110974,"velocity":0.5748031496062992},{"duration":0.11111100000002239,"midi":35,"time":137.222085,"velocity":0.5748031496062992},{"duration":0.11111099999999396,"midi":46,"time":137.33319600000002,"velocity":0.5748031496062992},{"duration":0.11111099999999396,"midi":35,"time":137.444307,"velocity":0.5748031496062992},{"duration":0.11111099999999396,"midi":46,"time":137.555418,"velocity":0.5748031496062992},{"duration":0.11111099999999396,"midi":40,"time":137.555418,"velocity":0.5748031496062992},{"duration":0.11111100000002239,"midi":46,"time":137.77764,"velocity":0.5748031496062992},{"duration":0.11111100000002239,"midi":35,"time":137.77764,"velocity":0.5748031496062992},{"duration":0.11111099999999396,"midi":35,"time":137.999862,"velocity":0.5748031496062992},{"duration":0.11111099999999396,"midi":40,"time":137.999862,"velocity":0.5748031496062992},{"duration":0.11111099999999396,"midi":46,"time":137.999862,"velocity":0.5748031496062992},{"duration":0.11111099999999396,"midi":35,"time":138.222084,"velocity":0.5748031496062992},{"duration":0.11111099999999396,"midi":46,"time":138.222084,"velocity":0.5748031496062992},{"duration":0.11111099999999396,"midi":40,"time":138.444306,"velocity":0.5748031496062992},{"duration":0.11111099999999396,"midi":46,"time":138.444306,"velocity":0.5748031496062992},{"duration":0.11111099999999396,"midi":46,"time":138.666528,"velocity":0.5748031496062992},{"duration":0.11111099999999396,"midi":35,"time":138.666528,"velocity":0.5748031496062992},{"duration":0.11111099999999396,"midi":40,"time":138.88875000000002,"velocity":0.5748031496062992},{"duration":0.11111099999999396,"midi":46,"time":138.88875000000002,"velocity":0.5748031496062992},{"duration":0.11111099999999396,"midi":35,"time":138.999861,"velocity":0.5748031496062992},{"duration":0.11111099999999396,"midi":46,"time":139.110972,"velocity":0.5748031496062992},{"duration":0.11111099999999396,"midi":35,"time":139.222083,"velocity":0.5748031496062992},{"duration":0.11111100000002239,"midi":40,"time":139.333194,"velocity":0.5748031496062992},{"duration":0.11111100000002239,"midi":46,"time":139.333194,"velocity":0.5748031496062992},{"duration":0.11111099999999396,"midi":35,"time":139.555416,"velocity":0.5748031496062992},{"duration":0.11111099999999396,"midi":46,"time":139.555416,"velocity":0.5748031496062992},{"duration":0.11111099999999396,"midi":46,"time":139.777638,"velocity":0.5748031496062992},{"duration":0.11111099999999396,"midi":40,"time":139.777638,"velocity":0.5748031496062992},{"duration":0.11111099999999396,"midi":35,"time":139.777638,"velocity":0.5748031496062992},{"duration":0.11111099999999396,"midi":35,"time":139.99986,"velocity":0.5748031496062992},{"duration":0.11111099999999396,"midi":46,"time":139.99986,"velocity":0.5748031496062992},{"duration":0.11111099999999396,"midi":40,"time":140.222082,"velocity":0.5748031496062992},{"duration":0.11111099999999396,"midi":46,"time":140.222082,"velocity":0.5748031496062992},{"duration":0.11111100000002239,"midi":35,"time":140.444304,"velocity":0.5748031496062992},{"duration":0.11111100000002239,"midi":46,"time":140.444304,"velocity":0.5748031496062992},{"duration":0.11111099999999396,"midi":46,"time":140.666526,"velocity":0.5748031496062992},{"duration":0.11111099999999396,"midi":40,"time":140.666526,"velocity":0.5748031496062992},{"duration":0.11111099999999396,"midi":35,"time":140.777637,"velocity":0.5748031496062992},{"duration":0.11111100000002239,"midi":46,"time":140.888748,"velocity":0.5748031496062992},{"duration":0.11111099999999396,"midi":35,"time":140.99985900000001,"velocity":0.5748031496062992},{"duration":0.11111099999999396,"midi":46,"time":141.11097,"velocity":0.5748031496062992},{"duration":0.11111099999999396,"midi":40,"time":141.11097,"velocity":0.5748031496062992},{"duration":0.11111099999999396,"midi":46,"time":141.333192,"velocity":0.5748031496062992},{"duration":0.11111099999999396,"midi":35,"time":141.333192,"velocity":0.5748031496062992},{"duration":0.11111099999999396,"midi":35,"time":141.555414,"velocity":0.5748031496062992},{"duration":0.11111099999999396,"midi":40,"time":141.555414,"velocity":0.5748031496062992},{"duration":0.11111099999999396,"midi":46,"time":141.555414,"velocity":0.5748031496062992},{"duration":0.11111099999999396,"midi":35,"time":141.777636,"velocity":0.5748031496062992},{"duration":0.11111099999999396,"midi":46,"time":141.777636,"velocity":0.5748031496062992},{"duration":0.11111100000002239,"midi":40,"time":141.999858,"velocity":0.5748031496062992},{"duration":0.11111100000002239,"midi":46,"time":141.999858,"velocity":0.5748031496062992}]},{"instrument":{"family":"drums","number":0,"name":"standard kit"},"notes":[{"duration":0.11111099999999396,"midi":38,"time":107.11100400000001,"velocity":0.3937007874015748},{"duration":0.11111099999999396,"midi":52,"time":107.11100400000001,"velocity":0.3937007874015748},{"duration":0.11111099999999396,"midi":38,"time":107.999892,"velocity":0.3937007874015748},{"duration":0.11111099999999396,"midi":52,"time":107.999892,"velocity":0.3937007874015748},{"duration":0.11111100000000818,"midi":52,"time":110.666556,"velocity":0.3937007874015748},{"duration":0.11111100000000818,"midi":38,"time":110.666556,"velocity":0.3937007874015748},{"duration":0.11111099999999396,"midi":38,"time":111.111,"velocity":0.3937007874015748}]},{"instrument":{"family":"drums","number":255},"notes":[{"duration":0.027777750000000268,"midi":46,"time":13.33332,"velocity":0.6850393700787402},{"duration":0.027777750000000268,"midi":46,"time":13.36109775,"velocity":0.6850393700787402},{"duration":0.02777774999999849,"midi":46,"time":13.388875500000001,"velocity":0.6850393700787402},{"duration":0.027777750000000268,"midi":46,"time":13.41665325,"velocity":0.6850393700787402},{"duration":0.027777750000000268,"midi":46,"time":13.444431,"velocity":0.6850393700787402},{"duration":0.027777750000000268,"midi":46,"time":13.47220875,"velocity":0.6850393700787402},{"duration":0.027777750000000268,"midi":46,"time":13.4999865,"velocity":0.6850393700787402},{"duration":0.027777750000000268,"midi":46,"time":13.52776425,"velocity":0.6850393700787402},{"duration":0.02777774999999849,"midi":46,"time":13.555542,"velocity":0.6850393700787402},{"duration":0.027777750000000268,"midi":46,"time":13.58331975,"velocity":0.6850393700787402},{"duration":0.027777750000000268,"midi":46,"time":13.6110975,"velocity":0.6850393700787402},{"duration":0.027777750000000268,"midi":46,"time":13.63887525,"velocity":0.6850393700787402},{"duration":0.027777750000000268,"midi":46,"time":13.666653,"velocity":0.6850393700787402},{"duration":0.027777750000000268,"midi":46,"time":13.69443075,"velocity":0.6850393700787402},{"duration":0.027777750000000268,"midi":46,"time":13.7222085,"velocity":0.6850393700787402},{"duration":0.02777774999999849,"midi":46,"time":13.749986250000001,"velocity":0.6850393700787402},{"duration":0.027777750000000268,"midi":46,"time":13.777764,"velocity":0.6850393700787402},{"duration":0.027777750000000268,"midi":46,"time":13.80554175,"velocity":0.6850393700787402},{"duration":0.027777750000000268,"midi":46,"time":13.8333195,"velocity":0.6850393700787402},{"duration":0.027777750000000268,"midi":46,"time":13.86109725,"velocity":0.6850393700787402},{"duration":0.027777750000000268,"midi":46,"time":13.888875,"velocity":0.6850393700787402},{"duration":0.027777750000000268,"midi":46,"time":13.91665275,"velocity":0.6850393700787402},{"duration":0.02777774999999849,"midi":46,"time":13.944430500000001,"velocity":0.6850393700787402},{"duration":0.027777750000000268,"midi":46,"time":13.97220825,"velocity":0.6850393700787402},{"duration":0.027777750000000268,"midi":46,"time":13.999986,"velocity":0.6850393700787402},{"duration":0.027777750000000268,"midi":46,"time":14.02776375,"velocity":0.6850393700787402},{"duration":0.027777750000000268,"midi":46,"time":14.0555415,"velocity":0.6850393700787402},{"duration":0.027777750000000268,"midi":46,"time":14.08331925,"velocity":0.6850393700787402},{"duration":0.02777774999999849,"midi":46,"time":14.111097000000001,"velocity":0.6850393700787402},{"duration":0.027777750000000268,"midi":46,"time":14.13887475,"velocity":0.6850393700787402},{"duration":0.027777750000000268,"midi":46,"time":14.1666525,"velocity":0.6850393700787402},{"duration":0.027777750000000268,"midi":46,"time":14.19443025,"velocity":0.6850393700787402},{"duration":0.055555500000000535,"midi":46,"time":14.222208,"velocity":0.6850393700787402},{"duration":0.11111100000000107,"midi":52,"time":28.444416,"velocity":0.6850393700787402},{"duration":0.11111100000000107,"midi":57,"time":28.444416,"velocity":0.5433070866141733},{"duration":0.11111100000000818,"midi":52,"time":85.333248,"velocity":0.6850393700787402},{"duration":0.11111100000000818,"midi":57,"time":85.333248,"velocity":0.5433070866141733},{"duration":0.11111099999999396,"midi":52,"time":113.777664,"velocity":0.6850393700787402},{"duration":0.11111099999999396,"midi":57,"time":113.777664,"velocity":0.5433070866141733}]},{"instrument":{"family":"strings","number":43,"name":"contrabass"},"notes":[{"duration":0.16666650000000002,"midi":82,"time":0.222222,"velocity":0.3937007874015748},{"duration":0.16666650000000002,"midi":70,"time":0.222222,"velocity":0.3937007874015748},{"duration":0.22222199999999998,"midi":70,"time":0.444444,"velocity":0.3937007874015748},{"duration":0.22222199999999998,"midi":82,"time":0.444444,"velocity":0.3937007874015748},{"duration":0.22222199999999992,"midi":85,"time":0.8333325,"velocity":0.3937007874015748},{"duration":0.22222199999999992,"midi":73,"time":0.8333325,"velocity":0.3937007874015748},{"duration":0.22222200000000014,"midi":72,"time":1.1666655,"velocity":0.3937007874015748},{"duration":0.22222200000000014,"midi":84,"time":1.1666655,"velocity":0.3937007874015748},{"duration":0.22222199999999992,"midi":70,"time":1.3888875,"velocity":0.3937007874015748},{"duration":0.22222199999999992,"midi":82,"time":1.3888875,"velocity":0.3937007874015748},{"duration":0.22222200000000014,"midi":68,"time":1.6111095,"velocity":0.3937007874015748},{"duration":0.22222200000000014,"midi":80,"time":1.6111095,"velocity":0.3937007874015748},{"duration":0.2222219999999997,"midi":70,"time":1.8333315000000001,"velocity":0.3937007874015748},{"duration":0.2222219999999997,"midi":82,"time":1.8333315000000001,"velocity":0.3937007874015748},{"duration":0.22222199999999992,"midi":82,"time":2.111109,"velocity":0.3937007874015748},{"duration":0.22222199999999992,"midi":70,"time":2.111109,"velocity":0.3937007874015748},{"duration":0.22222200000000036,"midi":80,"time":2.333331,"velocity":0.3937007874015748},{"duration":0.22222200000000036,"midi":68,"time":2.333331,"velocity":0.3937007874015748},{"duration":0.22222199999999992,"midi":77,"time":2.666664,"velocity":0.3937007874015748},{"duration":0.22222199999999992,"midi":89,"time":2.666664,"velocity":0.3937007874015748},{"duration":0.22222200000000036,"midi":88,"time":2.888886,"velocity":0.3937007874015748},{"duration":0.22222200000000036,"midi":76,"time":2.888886,"velocity":0.3937007874015748},{"duration":0.22222199999999992,"midi":75,"time":3.111108,"velocity":0.3937007874015748},{"duration":0.22222199999999992,"midi":87,"time":3.111108,"velocity":0.3937007874015748},{"duration":0.22222199999999992,"midi":85,"time":3.33333,"velocity":0.3937007874015748},{"duration":0.22222199999999992,"midi":73,"time":3.33333,"velocity":0.3937007874015748},{"duration":0.22222199999999992,"midi":70,"time":3.555552,"velocity":0.3937007874015748},{"duration":0.22222199999999992,"midi":82,"time":3.555552,"velocity":0.3937007874015748},{"duration":0.22222199999999992,"midi":82,"time":3.8333295,"velocity":0.3937007874015748},{"duration":0.22222199999999992,"midi":70,"time":3.8333295,"velocity":0.3937007874015748},{"duration":0.22222200000000036,"midi":68,"time":4.0555515,"velocity":0.3937007874015748},{"duration":0.22222200000000036,"midi":80,"time":4.0555515,"velocity":0.3937007874015748},{"duration":0.22222200000000036,"midi":85,"time":4.333329,"velocity":0.3937007874015748},{"duration":0.22222200000000036,"midi":73,"time":4.333329,"velocity":0.3937007874015748},{"duration":0.22222199999999948,"midi":84,"time":4.555551,"velocity":0.3937007874015748},{"duration":0.22222199999999948,"midi":72,"time":4.555551,"velocity":0.3937007874015748},{"duration":0.22222200000000036,"midi":70,"time":4.777773,"velocity":0.3937007874015748},{"duration":0.22222200000000036,"midi":82,"time":4.777773,"velocity":0.3937007874015748},{"duration":0.22222199999999948,"midi":68,"time":4.999995,"velocity":0.3937007874015748},{"duration":0.22222199999999948,"midi":80,"time":4.999995,"velocity":0.3937007874015748},{"duration":0.22222200000000036,"midi":82,"time":5.222217,"velocity":0.3937007874015748},{"duration":0.22222200000000036,"midi":70,"time":5.222217,"velocity":0.3937007874015748},{"duration":0.22222200000000036,"midi":82,"time":5.4999945,"velocity":0.3937007874015748},{"duration":0.22222200000000036,"midi":70,"time":5.4999945,"velocity":0.3937007874015748},{"duration":0.22222200000000036,"midi":80,"time":5.7222165,"velocity":0.3937007874015748},{"duration":0.22222200000000036,"midi":68,"time":5.7222165,"velocity":0.3937007874015748},{"duration":0.22222199999999948,"midi":75,"time":5.9444385,"velocity":0.3937007874015748},{"duration":0.22222199999999948,"midi":87,"time":5.9444385,"velocity":0.3937007874015748},{"duration":0.22222200000000036,"midi":73,"time":6.2777715,"velocity":0.3937007874015748},{"duration":0.22222200000000036,"midi":85,"time":6.2777715,"velocity":0.3937007874015748},{"duration":0.22222199999999948,"midi":84,"time":6.4999935,"velocity":0.3937007874015748},{"duration":0.22222199999999948,"midi":72,"time":6.4999935,"velocity":0.3937007874015748},{"duration":0.22222200000000036,"midi":85,"time":6.7222155,"velocity":0.3937007874015748},{"duration":0.22222200000000036,"midi":73,"time":6.7222155,"velocity":0.3937007874015748},{"duration":0.22222199999999948,"midi":82,"time":6.9444375,"velocity":0.3937007874015748},{"duration":0.22222199999999948,"midi":70,"time":6.9444375,"velocity":0.3937007874015748}]}]}
