{"tracks":[{"instrument":{"family":"guitar","number":24,"name":"acoustic guitar (nylon)"},"notes":[{"duration":0.142857,"midi":62,"time":0,"velocity":0.3937007874015748},{"duration":0.142857,"midi":62,"time":0.285714,"velocity":0.3937007874015748},{"duration":0.142857,"midi":62,"time":0.42857100000000004,"velocity":0.3937007874015748},{"duration":0.142857,"midi":62,"time":0.7142850000000001,"velocity":0.3937007874015748},{"duration":0.14285700000000012,"midi":62,"time":0.8571420000000001,"velocity":0.3937007874015748},{"duration":0.142857,"midi":62,"time":1.142856,"velocity":0.3937007874015748},{"duration":0.142857,"midi":62,"time":1.285713,"velocity":0.3937007874015748},{"duration":0.142857,"midi":62,"time":1.4285700000000001,"velocity":0.3937007874015748},{"duration":0.142857,"midi":62,"time":1.5714270000000001,"velocity":0.3937007874015748},{"duration":0.1428569999999998,"midi":62,"time":1.7142840000000001,"velocity":0.3937007874015748},{"duration":0.14285699999999957,"midi":62,"time":1.9999980000000004,"velocity":0.3937007874015748},{"duration":0.14285700000000023,"midi":62,"time":2.142855,"velocity":0.3937007874015748},{"duration":0.1428569999999998,"midi":62,"time":2.4285690000000004,"velocity":0.3937007874015748},{"duration":0.1428569999999998,"midi":62,"time":2.571426,"velocity":0.3937007874015748},{"duration":0.14285700000000023,"midi":62,"time":2.8571400000000002,"velocity":0.3937007874015748},{"duration":0.1428569999999998,"midi":62,"time":2.9999970000000005,"velocity":0.3937007874015748},{"duration":0.14285700000000023,"midi":62,"time":3.1428540000000003,"velocity":0.3937007874015748},{"duration":0.1428569999999998,"midi":62,"time":3.2857110000000005,"velocity":0.3937007874015748},{"duration":0.14285700000000023,"midi":62,"time":3.4285680000000003,"velocity":0.3937007874015748},{"duration":0.8571419999999996,"midi":50,"time":3.4285680000000003,"velocity":0.3937007874015748},{"duration":0.8571419999999996,"midi":38,"time":3.4285680000000003,"velocity":0.3937007874015748},{"duration":0.14285700000000023,"midi":62,"time":3.714282,"velocity":0.3937007874015748},{"duration":0.14285700000000068,"midi":62,"time":3.857139,"velocity":0.3937007874015748},{"duration":0.14285700000000023,"midi":62,"time":4.142853,"velocity":0.3937007874015748},{"duration":0.14285700000000112,"midi":62,"time":4.28571,"velocity":0.3937007874015748},{"duration":0.4285710000000007,"midi":38,"time":4.28571,"velocity":0.3937007874015748},{"duration":0.4285710000000007,"midi":50,"time":4.28571,"velocity":0.3937007874015748},{"duration":0.14285700000000023,"midi":62,"time":4.571424,"velocity":0.3937007874015748},{"duration":0.4285709999999998,"midi":38,"time":4.714281000000001,"velocity":0.3937007874015748},{"duration":0.4285709999999998,"midi":50,"time":4.714281000000001,"velocity":0.3937007874015748},{"duration":0.14285700000000023,"midi":62,"time":4.714281000000001,"velocity":0.3937007874015748},{"duration":0.14285699999999935,"midi":57,"time":4.857138000000001,"velocity":0.3937007874015748},{"duration":0.14285700000000023,"midi":60,"time":4.999995,"velocity":0.3937007874015748},{"duration":0.2857139999999996,"midi":38,"time":5.142852,"velocity":0.3937007874015748},{"duration":0.14285700000000023,"midi":62,"time":5.142852,"velocity":0.3937007874015748},{"duration":0.14285700000000023,"midi":53,"time":5.142852,"velocity":0.3937007874015748},{"duration":0.2857139999999996,"midi":50,"time":5.142852,"velocity":0.3937007874015748},{"duration":0.14285700000000023,"midi":57,"time":5.142852,"velocity":0.3937007874015748},{"duration":0.14285700000000023,"midi":57,"time":5.428566,"velocity":0.3937007874015748},{"duration":0.14285700000000023,"midi":62,"time":5.428566,"velocity":0.3937007874015748},{"duration":0.14285700000000023,"midi":53,"time":5.428566,"velocity":0.3937007874015748},{"duration":0.14285700000000023,"midi":50,"time":5.428566,"velocity":0.3937007874015748},{"duration":0.14285700000000023,"midi":38,"time":5.428566,"velocity":0.3937007874015748},{"duration":0.2857139999999996,"midi":50,"time":5.571423,"velocity":0.3937007874015748},{"duration":0.2857139999999996,"midi":38,"time":5.571423,"velocity":0.3937007874015748},{"duration":0.14285699999999935,"midi":62,"time":5.7142800000000005,"velocity":0.3937007874015748},{"duration":0.14285699999999935,"midi":53,"time":5.7142800000000005,"velocity":0.3937007874015748},{"duration":0.14285699999999935,"midi":57,"time":5.7142800000000005,"velocity":0.3937007874015748},{"duration":0.14285700000000112,"midi":48,"time":5.857137,"velocity":0.3937007874015748},{"duration":0.14285700000000112,"midi":64,"time":5.857137,"velocity":0.3937007874015748},{"duration":0.14285700000000112,"midi":36,"time":5.857137,"velocity":0.3937007874015748},{"duration":0.14285700000000023,"midi":65,"time":5.999994000000001,"velocity":0.3937007874015748},{"duration":0.14285700000000023,"midi":62,"time":5.999994000000001,"velocity":0.3937007874015748},{"duration":0.2857139999999996,"midi":46,"time":5.999994000000001,"velocity":0.3937007874015748},{"duration":0.14285700000000023,"midi":58,"time":5.999994000000001,"velocity":0.3937007874015748},{"duration":0.2857139999999996,"midi":34,"time":5.999994000000001,"velocity":0.3937007874015748},{"duration":0.14285700000000023,"midi":58,"time":6.2857080000000005,"velocity":0.3937007874015748},{"duration":0.14285700000000023,"midi":65,"time":6.2857080000000005,"velocity":0.3937007874015748},{"duration":0.14285700000000023,"midi":46,"time":6.2857080000000005,"velocity":0.3937007874015748},{"duration":0.14285700000000023,"midi":62,"time":6.2857080000000005,"velocity":0.3937007874015748},{"duration":0.14285700000000023,"midi":34,"time":6.2857080000000005,"velocity":0.3937007874015748},{"duration":0.2857139999999996,"midi":34,"time":6.428565000000001,"velocity":0.3937007874015748},{"duration":0.2857139999999996,"midi":46,"time":6.428565000000001,"velocity":0.3937007874015748},{"duration":0.14285699999999935,"midi":58,"time":6.571422000000001,"velocity":0.3937007874015748},{"duration":0.14285699999999935,"midi":62,"time":6.571422000000001,"velocity":0.3937007874015748},{"duration":0.14285699999999935,"midi":65,"time":6.571422000000001,"velocity":0.3937007874015748},{"duration":0.14285700000000023,"midi":34,"time":6.714279,"velocity":0.3937007874015748},{"duration":0.14285700000000023,"midi":46,"time":6.714279,"velocity":0.3937007874015748},{"duration":0.14285700000000023,"midi":67,"time":6.714279,"velocity":0.3937007874015748},{"duration":0.14285699999999935,"midi":64,"time":6.857136000000001,"velocity":0.3937007874015748},{"duration":0.14285699999999935,"midi":60,"time":6.857136000000001,"velocity":0.3937007874015748},{"duration":0.28571400000000047,"midi":45,"time":6.857136000000001,"velocity":0.3937007874015748},{"duration":0.28571400000000047,"midi":33,"time":6.857136000000001,"velocity":0.3937007874015748},{"duration":0.14285699999999935,"midi":57,"time":6.857136000000001,"velocity":0.3937007874015748},{"duration":0.14285699999999935,"midi":60,"time":7.142850000000001,"velocity":0.3937007874015748},{"duration":0.14285699999999935,"midi":57,"time":7.142850000000001,"velocity":0.3937007874015748},{"duration":0.14285699999999935,"midi":64,"time":7.142850000000001,"velocity":0.3937007874015748},{"duration":0.14285699999999935,"midi":33,"time":7.142850000000001,"velocity":0.3937007874015748},{"duration":0.14285699999999935,"midi":45,"time":7.142850000000001,"velocity":0.3937007874015748},{"duration":0.28571400000000047,"midi":45,"time":7.285707,"velocity":0.3937007874015748},{"duration":0.28571400000000047,"midi":33,"time":7.285707,"velocity":0.3937007874015748},{"duration":0.14285700000000112,"midi":57,"time":7.428564,"velocity":0.3937007874015748},{"duration":0.14285700000000112,"midi":62,"time":7.428564,"velocity":0.3937007874015748},{"duration":0.14285699999999935,"midi":60,"time":7.571421000000001,"velocity":0.3937007874015748},{"duration":0.14285699999999935,"midi":33,"time":7.571421000000001,"velocity":0.3937007874015748},{"duration":0.14285699999999935,"midi":45,"time":7.571421000000001,"velocity":0.3937007874015748},{"duration":0.14285700000000023,"midi":53,"time":7.714278,"velocity":0.3937007874015748},{"duration":0.28571400000000136,"midi":50,"time":7.714278,"velocity":0.3937007874015748},{"duration":0.14285700000000023,"midi":60,"time":7.714278,"velocity":0.3937007874015748},{"duration":0.28571400000000136,"midi":38,"time":7.714278,"velocity":0.3937007874015748},{"duration":0.4285709999999989,"midi":53,"time":7.857135,"velocity":0.3937007874015748},{"duration":0.4285709999999989,"midi":57,"time":7.857135,"velocity":0.3937007874015748},{"duration":0.4285709999999989,"midi":62,"time":7.857135,"velocity":0.3937007874015748},{"duration":0.14285699999999846,"midi":38,"time":7.9999920000000015,"velocity":0.3937007874015748},{"duration":0.14285699999999846,"midi":50,"time":7.9999920000000015,"velocity":0.3937007874015748},{"duration":0.28571400000000047,"midi":38,"time":8.142849,"velocity":0.3937007874015748},{"duration":0.28571400000000047,"midi":45,"time":8.142849,"velocity":0.3937007874015748},{"duration":0.14285700000000112,"midi":57,"time":8.285706,"velocity":0.3937007874015748},{"duration":0.14285699999999935,"midi":45,"time":8.428563,"velocity":0.3937007874015748},{"duration":0.14285699999999935,"midi":38,"time":8.428563,"velocity":0.3937007874015748},{"duration":0.14285699999999935,"midi":60,"time":8.428563,"velocity":0.3937007874015748},{"duration":0.28571400000000224,"midi":34,"time":8.57142,"velocity":0.3937007874015748},{"duration":0.28571400000000224,"midi":46,"time":8.57142,"velocity":0.3937007874015748},{"duration":0.14285700000000112,"midi":53,"time":8.57142,"velocity":0.3937007874015748},{"duration":0.14285700000000112,"midi":62,"time":8.57142,"velocity":0.3937007874015748},{"duration":0.14285700000000112,"midi":58,"time":8.57142,"velocity":0.3937007874015748},{"duration":0.14285699999999935,"midi":34,"time":8.857134000000002,"velocity":0.3937007874015748},{"duration":0.14285699999999935,"midi":58,"time":8.857134000000002,"velocity":0.3937007874015748},{"duration":0.14285699999999935,"midi":53,"time":8.857134000000002,"velocity":0.3937007874015748},{"duration":0.14285699999999935,"midi":62,"time":8.857134000000002,"velocity":0.3937007874015748},{"duration":0.14285699999999935,"midi":46,"time":8.857134000000002,"velocity":0.3937007874015748},{"duration":0.28571400000000047,"midi":46,"time":8.999991000000001,"velocity":0.3937007874015748},{"duration":0.28571400000000047,"midi":34,"time":8.999991000000001,"velocity":0.3937007874015748},{"duration":0.14285700000000112,"midi":53,"time":9.142848,"velocity":0.3937007874015748},{"duration":0.14285700000000112,"midi":58,"time":9.142848,"velocity":0.3937007874015748},{"duration":0.14285700000000112,"midi":62,"time":9.142848,"velocity":0.3937007874015748},{"duration":0.14285699999999935,"midi":34,"time":9.285705000000002,"velocity":0.3937007874015748},{"duration":0.14285699999999935,"midi":64,"time":9.285705000000002,"velocity":0.3937007874015748},{"duration":0.14285699999999935,"midi":46,"time":9.285705000000002,"velocity":0.3937007874015748},{"duration":0.14285699999999935,"midi":57,"time":9.428562000000001,"velocity":0.3937007874015748},{"duration":0.28571400000000047,"midi":29,"time":9.428562000000001,"velocity":0.3937007874015748},{"duration":0.14285699999999935,"midi":60,"time":9.428562000000001,"velocity":0.3937007874015748},{"duration":0.28571400000000047,"midi":41,"time":9.428562000000001,"velocity":0.3937007874015748},{"duration":0.14285699999999935,"midi":65,"time":9.428562000000001,"velocity":0.3937007874015748},{"duration":0.14285699999999935,"midi":57,"time":9.714276000000002,"velocity":0.3937007874015748},{"duration":0.14285699999999935,"midi":41,"time":9.714276000000002,"velocity":0.3937007874015748},{"duration":0.14285699999999935,"midi":60,"time":9.714276000000002,"velocity":0.3937007874015748},{"duration":0.14285699999999935,"midi":65,"time":9.714276000000002,"velocity":0.3937007874015748},{"duration":0.14285699999999935,"midi":29,"time":9.714276000000002,"velocity":0.3937007874015748},{"duration":0.28571400000000047,"midi":41,"time":9.857133000000001,"velocity":0.3937007874015748},{"duration":0.28571400000000047,"midi":29,"time":9.857133000000001,"velocity":0.3937007874015748},{"duration":0.14285700000000112,"midi":60,"time":9.99999,"velocity":0.3937007874015748},{"duration":0.14285700000000112,"midi":57,"time":9.99999,"velocity":0.3937007874015748},{"duration":0.14285700000000112,"midi":65,"time":9.99999,"velocity":0.3937007874015748},{"duration":0.14285699999999935,"midi":41,"time":10.142847000000002,"velocity":0.3937007874015748},{"duration":0.14285699999999935,"midi":29,"time":10.142847000000002,"velocity":0.3937007874015748},{"duration":0.14285699999999935,"midi":67,"time":10.142847000000002,"velocity":0.3937007874015748},{"duration":0.14285699999999935,"midi":60,"time":10.285704,"velocity":0.3937007874015748},{"duration":0.14285699999999935,"midi":64,"time":10.285704,"velocity":0.3937007874015748},{"duration":0.28571400000000047,"midi":36,"time":10.285704,"velocity":0.3937007874015748},{"duration":0.14285699999999935,"midi":57,"time":10.285704,"velocity":0.3937007874015748},{"duration":0.28571400000000047,"midi":48,"time":10.285704,"velocity":0.3937007874015748},{"duration":0.14285699999999935,"midi":48,"time":10.571418000000001,"velocity":0.3937007874015748},{"duration":0.14285699999999935,"midi":57,"time":10.571418000000001,"velocity":0.3937007874015748},{"duration":0.14285699999999935,"midi":64,"time":10.571418000000001,"velocity":0.3937007874015748},{"duration":0.14285699999999935,"midi":60,"time":10.571418000000001,"velocity":0.3937007874015748},{"duration":0.14285699999999935,"midi":36,"time":10.571418000000001,"velocity":0.3937007874015748},{"duration":0.28571400000000047,"midi":45,"time":10.714275,"velocity":0.3937007874015748},{"duration":0.28571400000000047,"midi":33,"time":10.714275,"velocity":0.3937007874015748},{"duration":0.14285700000000112,"midi":62,"time":10.857132,"velocity":0.3937007874015748},{"duration":0.14285700000000112,"midi":57,"time":10.857132,"velocity":0.3937007874015748},{"duration":0.14285699999999935,"midi":60,"time":10.999989000000001,"velocity":0.3937007874015748},{"duration":0.14285699999999935,"midi":45,"time":10.999989000000001,"velocity":0.3937007874015748},{"duration":0.14285699999999935,"midi":33,"time":10.999989000000001,"velocity":0.3937007874015748},{"duration":0.4285709999999998,"midi":53,"time":11.142846,"velocity":0.3937007874015748},{"duration":0.4285709999999998,"midi":57,"time":11.142846,"velocity":0.3937007874015748},{"duration":0.28571400000000047,"midi":50,"time":11.142846,"velocity":0.3937007874015748},{"duration":0.4285709999999998,"midi":62,"time":11.142846,"velocity":0.3937007874015748},{"duration":0.28571400000000047,"midi":38,"time":11.142846,"velocity":0.3937007874015748},{"duration":0.14285699999999935,"midi":38,"time":11.428560000000001,"velocity":0.3937007874015748},{"duration":0.14285699999999935,"midi":50,"time":11.428560000000001,"velocity":0.3937007874015748},{"duration":0.28571400000000047,"midi":38,"time":11.571417,"velocity":0.3937007874015748},{"duration":0.28571400000000047,"midi":45,"time":11.571417,"velocity":0.3937007874015748},{"duration":0.14285700000000112,"midi":57,"time":11.714274,"velocity":0.3937007874015748},{"duration":0.14285700000000112,"midi":38,"time":11.857131,"velocity":0.3937007874015748},{"duration":0.14285700000000112,"midi":60,"time":11.857131,"velocity":0.3937007874015748},{"duration":0.14285700000000112,"midi":45,"time":11.857131,"velocity":0.3937007874015748},{"duration":0.14285699999999935,"midi":53,"time":11.999988000000002,"velocity":0.3937007874015748},{"duration":0.14285699999999935,"midi":57,"time":11.999988000000002,"velocity":0.3937007874015748},{"duration":0.28571400000000047,"midi":38,"time":11.999988000000002,"velocity":0.3937007874015748},{"duration":0.28571400000000047,"midi":50,"time":11.999988000000002,"velocity":0.3937007874015748},{"duration":0.14285699999999935,"midi":62,"time":11.999988000000002,"velocity":0.3937007874015748},{"duration":0.14285699999999935,"midi":62,"time":12.285702000000002,"velocity":0.3937007874015748},{"duration":0.14285699999999935,"midi":38,"time":12.285702000000002,"velocity":0.3937007874015748},{"duration":0.14285699999999935,"midi":53,"time":12.285702000000002,"velocity":0.3937007874015748},{"duration":0.14285699999999935,"midi":50,"time":12.285702000000002,"velocity":0.3937007874015748},{"duration":0.14285699999999935,"midi":57,"time":12.285702000000002,"velocity":0.3937007874015748},{"duration":0.28571400000000047,"midi":50,"time":12.428559000000002,"velocity":0.3937007874015748},{"duration":0.28571400000000047,"midi":38,"time":12.428559000000002,"velocity":0.3937007874015748},{"duration":0.14285700000000112,"midi":53,"time":12.571416000000001,"velocity":0.3937007874015748},{"duration":0.14285700000000112,"midi":62,"time":12.571416000000001,"velocity":0.3937007874015748},{"duration":0.14285699999999935,"midi":65,"time":12.714273000000002,"velocity":0.3937007874015748},{"duration":0.14285699999999935,"midi":53,"time":12.714273000000002,"velocity":0.3937007874015748},{"duration":0.14285699999999935,"midi":38,"time":12.714273000000002,"velocity":0.3937007874015748},{"duration":0.14285699999999935,"midi":50,"time":12.714273000000002,"velocity":0.3937007874015748},{"duration":0.28571400000000047,"midi":34,"time":12.857130000000002,"velocity":0.3937007874015748},{"duration":0.14285699999999935,"midi":62,"time":12.857130000000002,"velocity":0.3937007874015748},{"duration":0.28571400000000047,"midi":46,"time":12.857130000000002,"velocity":0.3937007874015748},{"duration":0.14285699999999935,"midi":67,"time":12.857130000000002,"velocity":0.3937007874015748},{"duration":0.14285699999999935,"midi":58,"time":12.857130000000002,"velocity":0.3937007874015748},{"duration":0.14285699999999935,"midi":34,"time":13.142844000000002,"velocity":0.3937007874015748},{"duration":0.14285699999999935,"midi":67,"time":13.142844000000002,"velocity":0.3937007874015748},{"duration":0.14285699999999935,"midi":46,"time":13.142844000000002,"velocity":0.3937007874015748},{"duration":0.14285699999999935,"midi":58,"time":13.142844000000002,"velocity":0.3937007874015748},{"duration":0.14285699999999935,"midi":62,"time":13.142844000000002,"velocity":0.3937007874015748},{"duration":0.28571400000000047,"midi":34,"time":13.285701000000001,"velocity":0.3937007874015748},{"duration":0.28571400000000047,"midi":46,"time":13.285701000000001,"velocity":0.3937007874015748},{"duration":0.14285700000000112,"midi":58,"time":13.428558,"velocity":0.3937007874015748},{"duration":0.14285700000000112,"midi":67,"time":13.428558,"velocity":0.3937007874015748},{"duration":0.14285700000000112,"midi":62,"time":13.428558,"velocity":0.3937007874015748},{"duration":0.14285699999999935,"midi":34,"time":13.571415000000002,"velocity":0.3937007874015748},{"duration":0.14285699999999935,"midi":46,"time":13.571415000000002,"velocity":0.3937007874015748},{"duration":0.14285699999999935,"midi":69,"time":13.571415000000002,"velocity":0.3937007874015748},{"duration":0.14285700000000112,"midi":62,"time":13.714272000000001,"velocity":0.3937007874015748},{"duration":0.14285700000000112,"midi":70,"time":13.714272000000001,"velocity":0.3937007874015748},{"duration":0.14285700000000112,"midi":67,"time":13.714272000000001,"velocity":0.3937007874015748},{"duration":0.2857139999999987,"midi":43,"time":13.714272000000001,"velocity":0.3937007874015748},{"duration":0.2857139999999987,"midi":31,"time":13.714272000000001,"velocity":0.3937007874015748},{"duration":0.14285700000000112,"midi":67,"time":13.999986,"velocity":0.3937007874015748},{"duration":0.14285700000000112,"midi":70,"time":13.999986,"velocity":0.3937007874015748},{"duration":0.14285700000000112,"midi":62,"time":13.999986,"velocity":0.3937007874015748},{"duration":0.14285700000000112,"midi":43,"time":13.999986,"velocity":0.3937007874015748},{"duration":0.14285700000000112,"midi":31,"time":13.999986,"velocity":0.3937007874015748},{"duration":0.2857139999999987,"midi":31,"time":14.142843000000001,"velocity":0.3937007874015748},{"duration":0.2857139999999987,"midi":43,"time":14.142843000000001,"velocity":0.3937007874015748},{"duration":0.14285699999999757,"midi":69,"time":14.285700000000002,"velocity":0.3937007874015748},{"duration":0.14285699999999757,"midi":62,"time":14.285700000000002,"velocity":0.3937007874015748},{"duration":0.14285700000000112,"midi":31,"time":14.428557,"velocity":0.3937007874015748},{"duration":0.14285700000000112,"midi":67,"time":14.428557,"velocity":0.3937007874015748},{"duration":0.14285700000000112,"midi":43,"time":14.428557,"velocity":0.3937007874015748},{"duration":0.2857139999999987,"midi":50,"time":14.571414,"velocity":0.3937007874015748},{"duration":0.14285700000000112,"midi":62,"time":14.571414,"velocity":0.3937007874015748},{"duration":0.2857139999999987,"midi":38,"time":14.571414,"velocity":0.3937007874015748},{"duration":0.14285700000000112,"midi":69,"time":14.571414,"velocity":0.3937007874015748},{"duration":0.4285709999999998,"midi":53,"time":14.714271000000002,"velocity":0.3937007874015748},{"duration":0.4285709999999998,"midi":57,"time":14.714271000000002,"velocity":0.3937007874015748},{"duration":0.4285709999999998,"midi":62,"time":14.714271000000002,"velocity":0.3937007874015748},{"duration":0.14285700000000112,"midi":38,"time":14.857128,"velocity":0.3937007874015748},{"duration":0.14285700000000112,"midi":50,"time":14.857128,"velocity":0.3937007874015748},{"duration":0.28571400000000047,"midi":38,"time":14.999985,"velocity":0.3937007874015748},{"duration":0.28571400000000047,"midi":45,"time":14.999985,"velocity":0.3937007874015748},{"duration":0.14285699999999935,"midi":62,"time":15.142842000000002,"velocity":0.3937007874015748},{"duration":0.14285699999999935,"midi":38,"time":15.285699000000001,"velocity":0.3937007874015748},{"duration":0.14285699999999935,"midi":64,"time":15.285699000000001,"velocity":0.3937007874015748},{"duration":0.14285699999999935,"midi":45,"time":15.285699000000001,"velocity":0.3937007874015748},{"duration":0.28571400000000047,"midi":46,"time":15.428556,"velocity":0.3937007874015748},{"duration":0.14285700000000112,"midi":58,"time":15.428556,"velocity":0.3937007874015748},{"duration":0.28571400000000047,"midi":34,"time":15.428556,"velocity":0.3937007874015748},{"duration":0.14285700000000112,"midi":62,"time":15.428556,"velocity":0.3937007874015748},{"duration":0.14285700000000112,"midi":65,"time":15.428556,"velocity":0.3937007874015748},{"duration":0.14285700000000112,"midi":65,"time":15.71427,"velocity":0.3937007874015748},{"duration":0.14285700000000112,"midi":34,"time":15.71427,"velocity":0.3937007874015748},{"duration":0.14285700000000112,"midi":58,"time":15.71427,"velocity":0.3937007874015748},{"duration":0.14285700000000112,"midi":46,"time":15.71427,"velocity":0.3937007874015748},{"duration":0.14285700000000112,"midi":62,"time":15.71427,"velocity":0.3937007874015748},{"duration":0.2857139999999987,"midi":46,"time":15.857127000000002,"velocity":0.3937007874015748},{"duration":0.2857139999999987,"midi":34,"time":15.857127000000002,"velocity":0.3937007874015748},{"duration":0.14285699999999757,"midi":62,"time":15.999984000000003,"velocity":0.3937007874015748},{"duration":0.14285699999999757,"midi":67,"time":15.999984000000003,"velocity":0.3937007874015748},{"duration":0.14285699999999757,"midi":58,"time":15.999984000000003,"velocity":0.3937007874015748},{"duration":0.14285699999999935,"midi":34,"time":16.142841,"velocity":0.3937007874015748},{"duration":0.14285699999999935,"midi":46,"time":16.142841,"velocity":0.3937007874015748},{"duration":0.1428570000000029,"midi":65,"time":16.285698,"velocity":0.3937007874015748},{"duration":0.2857139999999987,"midi":50,"time":16.285698,"velocity":0.3937007874015748},{"duration":0.1428570000000029,"midi":62,"time":16.285698,"velocity":0.3937007874015748},{"duration":0.1428570000000029,"midi":69,"time":16.285698,"velocity":0.3937007874015748},{"duration":0.2857139999999987,"midi":38,"time":16.285698,"velocity":0.3937007874015748},{"duration":0.1428570000000029,"midi":38,"time":16.571412,"velocity":0.3937007874015748},{"duration":0.1428570000000029,"midi":50,"time":16.571412,"velocity":0.3937007874015748},{"duration":0.2857139999999987,"midi":38,"time":16.714269,"velocity":0.3937007874015748},{"duration":0.2857139999999987,"midi":50,"time":16.714269,"velocity":0.3937007874015748},{"duration":0.14285699999999935,"midi":62,"time":16.857126,"velocity":0.3937007874015748},{"duration":0.14285699999999935,"midi":50,"time":16.999983,"velocity":0.3937007874015748},{"duration":0.14285699999999935,"midi":65,"time":16.999983,"velocity":0.3937007874015748},{"duration":0.14285699999999935,"midi":38,"time":16.999983,"velocity":0.3937007874015748},{"duration":0.28571400000000224,"midi":45,"time":17.14284,"velocity":0.3937007874015748},{"duration":0.28571400000000224,"midi":33,"time":17.14284,"velocity":0.3937007874015748},{"duration":0.1428570000000029,"midi":64,"time":17.14284,"velocity":0.3937007874015748},{"duration":0.1428570000000029,"midi":57,"time":17.14284,"velocity":0.3937007874015748},{"duration":0.1428570000000029,"midi":61,"time":17.14284,"velocity":0.3937007874015748},{"duration":0.14285699999999935,"midi":61,"time":17.428554000000002,"velocity":0.3937007874015748},{"duration":0.14285699999999935,"midi":33,"time":17.428554000000002,"velocity":0.3937007874015748},{"duration":0.14285699999999935,"midi":45,"time":17.428554000000002,"velocity":0.3937007874015748},{"duration":0.14285699999999935,"midi":64,"time":17.428554000000002,"velocity":0.3937007874015748},{"duration":0.14285699999999935,"midi":57,"time":17.428554000000002,"velocity":0.3937007874015748},{"duration":0.2857139999999987,"midi":45,"time":17.571411,"velocity":0.3937007874015748},{"duration":0.2857139999999987,"midi":33,"time":17.571411,"velocity":0.3937007874015748},{"duration":0.1428569999999958,"midi":65,"time":17.714268000000004,"velocity":0.3937007874015748},{"duration":0.1428570000000029,"midi":62,"time":17.857125,"velocity":0.3937007874015748},{"duration":0.1428570000000029,"midi":33,"time":17.857125,"velocity":0.3937007874015748},{"duration":0.1428570000000029,"midi":45,"time":17.857125,"velocity":0.3937007874015748},{"duration":0.42857099999999804,"midi":64,"time":17.999982000000003,"velocity":0.3937007874015748},{"duration":0.2857139999999987,"midi":33,"time":17.999982000000003,"velocity":0.3937007874015748},{"duration":0.42857099999999804,"midi":61,"time":17.999982000000003,"velocity":0.3937007874015748},{"duration":0.42857099999999804,"midi":57,"time":17.999982000000003,"velocity":0.3937007874015748},{"duration":0.2857139999999987,"midi":45,"time":17.999982000000003,"velocity":0.3937007874015748},{"duration":0.14285699999999935,"midi":33,"time":18.285696,"velocity":0.3937007874015748},{"duration":0.14285699999999935,"midi":45,"time":18.285696,"velocity":0.3937007874015748},{"duration":0.2857139999999987,"midi":33,"time":18.428553,"velocity":0.3937007874015748},{"duration":0.2857139999999987,"midi":45,"time":18.428553,"velocity":0.3937007874015748},{"duration":0.1428569999999958,"midi":69,"time":18.571410000000004,"velocity":0.3937007874015748},{"duration":0.1428570000000029,"midi":33,"time":18.714267,"velocity":0.3937007874015748},{"duration":0.1428570000000029,"midi":72,"time":18.714267,"velocity":0.3937007874015748},{"duration":0.1428570000000029,"midi":45,"time":18.714267,"velocity":0.3937007874015748},{"duration":0.14285699999999935,"midi":65,"time":18.857124000000002,"velocity":0.3937007874015748},{"duration":0.14285699999999935,"midi":69,"time":18.857124000000002,"velocity":0.3937007874015748},{"duration":0.2857139999999987,"midi":38,"time":18.857124000000002,"velocity":0.3937007874015748},{"duration":0.2857139999999987,"midi":50,"time":18.857124000000002,"velocity":0.3937007874015748},{"duration":0.14285699999999935,"midi":74,"time":18.857124000000002,"velocity":0.3937007874015748},{"duration":0.14285699999999935,"midi":74,"time":19.142838,"velocity":0.3937007874015748},{"duration":0.14285699999999935,"midi":69,"time":19.142838,"velocity":0.3937007874015748},{"duration":0.14285699999999935,"midi":50,"time":19.142838,"velocity":0.3937007874015748},{"duration":0.14285699999999935,"midi":38,"time":19.142838,"velocity":0.3937007874015748},{"duration":0.14285699999999935,"midi":65,"time":19.142838,"velocity":0.3937007874015748},{"duration":0.2857139999999987,"midi":38,"time":19.285695,"velocity":0.3937007874015748},{"duration":0.2857139999999987,"midi":50,"time":19.285695,"velocity":0.3937007874015748},{"duration":0.1428569999999958,"midi":74,"time":19.428552000000003,"velocity":0.3937007874015748},{"duration":0.1428569999999958,"midi":65,"time":19.428552000000003,"velocity":0.3937007874015748},{"duration":0.1428569999999958,"midi":69,"time":19.428552000000003,"velocity":0.3937007874015748},{"duration":0.1428570000000029,"midi":36,"time":19.571409,"velocity":0.3937007874015748},{"duration":0.1428570000000029,"midi":76,"time":19.571409,"velocity":0.3937007874015748},{"duration":0.1428570000000029,"midi":48,"time":19.571409,"velocity":0.3937007874015748},{"duration":0.2857139999999987,"midi":46,"time":19.714266000000002,"velocity":0.3937007874015748},{"duration":0.14285699999999935,"midi":70,"time":19.714266000000002,"velocity":0.3937007874015748},{"duration":0.14285699999999935,"midi":77,"time":19.714266000000002,"velocity":0.3937007874015748},{"duration":0.2857139999999987,"midi":34,"time":19.714266000000002,"velocity":0.3937007874015748},{"duration":0.14285699999999935,"midi":74,"time":19.714266000000002,"velocity":0.3937007874015748},{"duration":0.14285699999999935,"midi":74,"time":19.99998,"velocity":0.3937007874015748},{"duration":0.14285699999999935,"midi":46,"time":19.99998,"velocity":0.3937007874015748},{"duration":0.14285699999999935,"midi":77,"time":19.99998,"velocity":0.3937007874015748},{"duration":0.14285699999999935,"midi":70,"time":19.99998,"velocity":0.3937007874015748},{"duration":0.14285699999999935,"midi":34,"time":19.99998,"velocity":0.3937007874015748},{"duration":0.28571400000000224,"midi":46,"time":20.142837,"velocity":0.3937007874015748},{"duration":0.28571400000000224,"midi":34,"time":20.142837,"velocity":0.3937007874015748},{"duration":0.14285699999999935,"midi":77,"time":20.285694000000003,"velocity":0.3937007874015748},{"duration":0.14285699999999935,"midi":74,"time":20.285694000000003,"velocity":0.3937007874015748},{"duration":0.14285699999999935,"midi":70,"time":20.285694000000003,"velocity":0.3937007874015748},{"duration":0.14285699999999935,"midi":79,"time":20.428551000000002,"velocity":0.3937007874015748},{"duration":0.14285699999999935,"midi":46,"time":20.428551000000002,"velocity":0.3937007874015748},{"duration":0.14285699999999935,"midi":34,"time":20.428551000000002,"velocity":0.3937007874015748},{"duration":0.14285699999999935,"midi":76,"time":20.571408,"velocity":0.3937007874015748},{"duration":0.14285699999999935,"midi":69,"time":20.571408,"velocity":0.3937007874015748},{"duration":0.2857139999999987,"midi":33,"time":20.571408,"velocity":0.3937007874015748},{"duration":0.2857139999999987,"midi":45,"time":20.571408,"velocity":0.3937007874015748},{"duration":0.14285699999999935,"midi":72,"time":20.571408,"velocity":0.3937007874015748},{"duration":0.1428570000000029,"midi":72,"time":20.857122,"velocity":0.3937007874015748},{"duration":0.1428570000000029,"midi":45,"time":20.857122,"velocity":0.3937007874015748},{"duration":0.1428570000000029,"midi":69,"time":20.857122,"velocity":0.3937007874015748},{"duration":0.1428570000000029,"midi":76,"time":20.857122,"velocity":0.3937007874015748},{"duration":0.1428570000000029,"midi":33,"time":20.857122,"velocity":0.3937007874015748},{"duration":0.2857139999999987,"midi":45,"time":20.999979000000003,"velocity":0.3937007874015748},{"duration":0.2857139999999987,"midi":33,"time":20.999979000000003,"velocity":0.3937007874015748},{"duration":0.14285699999999935,"midi":74,"time":21.142836000000003,"velocity":0.3937007874015748},{"duration":0.14285699999999935,"midi":69,"time":21.142836000000003,"velocity":0.3937007874015748},{"duration":0.14285699999999935,"midi":72,"time":21.285693000000002,"velocity":0.3937007874015748},{"duration":0.14285699999999935,"midi":45,"time":21.285693000000002,"velocity":0.3937007874015748},{"duration":0.14285699999999935,"midi":33,"time":21.285693000000002,"velocity":0.3937007874015748},{"duration":0.2857139999999987,"midi":50,"time":21.42855,"velocity":0.3937007874015748},{"duration":0.1428570000000029,"midi":72,"time":21.42855,"velocity":0.3937007874015748},{"duration":0.2857139999999987,"midi":38,"time":21.42855,"velocity":0.3937007874015748},{"duration":0.1428570000000029,"midi":65,"time":21.42855,"velocity":0.3937007874015748},{"duration":0.42857099999999804,"midi":65,"time":21.571407000000004,"velocity":0.3937007874015748},{"duration":0.42857099999999804,"midi":74,"time":21.571407000000004,"velocity":0.3937007874015748},{"duration":0.42857099999999804,"midi":69,"time":21.571407000000004,"velocity":0.3937007874015748},{"duration":0.1428570000000029,"midi":50,"time":21.714264,"velocity":0.3937007874015748},{"duration":0.1428570000000029,"midi":38,"time":21.714264,"velocity":0.3937007874015748},{"duration":0.2857139999999987,"midi":38,"time":21.857121000000003,"velocity":0.3937007874015748},{"duration":0.2857139999999987,"midi":45,"time":21.857121000000003,"velocity":0.3937007874015748},{"duration":0.14285699999999935,"midi":69,"time":21.999978000000002,"velocity":0.3937007874015748},{"duration":0.14285699999999935,"midi":38,"time":22.142835,"velocity":0.3937007874015748},{"duration":0.14285699999999935,"midi":45,"time":22.142835,"velocity":0.3937007874015748},{"duration":0.14285699999999935,"midi":72,"time":22.142835,"velocity":0.3937007874015748},{"duration":0.1428570000000029,"midi":74,"time":22.285692,"velocity":0.3937007874015748},{"duration":0.2857139999999987,"midi":34,"time":22.285692,"velocity":0.3937007874015748},{"duration":0.1428570000000029,"midi":70,"time":22.285692,"velocity":0.3937007874015748},{"duration":0.2857139999999987,"midi":46,"time":22.285692,"velocity":0.3937007874015748},{"duration":0.1428570000000029,"midi":65,"time":22.285692,"velocity":0.3937007874015748},{"duration":0.1428570000000029,"midi":70,"time":22.571406,"velocity":0.3937007874015748},{"duration":0.1428570000000029,"midi":34,"time":22.571406,"velocity":0.3937007874015748},{"duration":0.1428570000000029,"midi":65,"time":22.571406,"velocity":0.3937007874015748},{"duration":0.1428570000000029,"midi":46,"time":22.571406,"velocity":0.3937007874015748},{"duration":0.1428570000000029,"midi":74,"time":22.571406,"velocity":0.3937007874015748},{"duration":0.2857139999999987,"midi":34,"time":22.714263000000003,"velocity":0.3937007874015748},{"duration":0.2857139999999987,"midi":46,"time":22.714263000000003,"velocity":0.3937007874015748},{"duration":0.14285699999999935,"midi":74,"time":22.857120000000002,"velocity":0.3937007874015748},{"duration":0.14285699999999935,"midi":70,"time":22.857120000000002,"velocity":0.3937007874015748},{"duration":0.14285699999999935,"midi":65,"time":22.857120000000002,"velocity":0.3937007874015748},{"duration":0.14285699999999935,"midi":46,"time":22.999977,"velocity":0.3937007874015748},{"duration":0.14285699999999935,"midi":34,"time":22.999977,"velocity":0.3937007874015748},{"duration":0.14285699999999935,"midi":76,"time":22.999977,"velocity":0.3937007874015748},{"duration":0.2857139999999987,"midi":41,"time":23.142834,"velocity":0.3937007874015748},{"duration":0.2857139999999987,"midi":29,"time":23.142834,"velocity":0.3937007874015748},{"duration":0.1428570000000029,"midi":77,"time":23.142834,"velocity":0.3937007874015748},{"duration":0.1428570000000029,"midi":72,"time":23.142834,"velocity":0.3937007874015748},{"duration":0.1428570000000029,"midi":69,"time":23.142834,"velocity":0.3937007874015748},{"duration":0.1428570000000029,"midi":69,"time":23.428548,"velocity":0.3937007874015748},{"duration":0.1428570000000029,"midi":77,"time":23.428548,"velocity":0.3937007874015748},{"duration":0.1428570000000029,"midi":29,"time":23.428548,"velocity":0.3937007874015748},{"duration":0.1428570000000029,"midi":41,"time":23.428548,"velocity":0.3937007874015748},{"duration":0.1428570000000029,"midi":72,"time":23.428548,"velocity":0.3937007874015748},{"duration":0.2857139999999987,"midi":29,"time":23.571405000000002,"velocity":0.3937007874015748},{"duration":0.2857139999999987,"midi":41,"time":23.571405000000002,"velocity":0.3937007874015748},{"duration":0.14285699999999935,"midi":69,"time":23.714262,"velocity":0.3937007874015748},{"duration":0.14285699999999935,"midi":77,"time":23.714262,"velocity":0.3937007874015748},{"duration":0.14285699999999935,"midi":72,"time":23.714262,"velocity":0.3937007874015748},{"duration":0.1428570000000029,"midi":41,"time":23.857119,"velocity":0.3937007874015748},{"duration":0.1428570000000029,"midi":79,"time":23.857119,"velocity":0.3937007874015748},{"duration":0.1428570000000029,"midi":29,"time":23.857119,"velocity":0.3937007874015748},{"duration":0.14285699999999935,"midi":72,"time":23.999976000000004,"velocity":0.3937007874015748},{"duration":0.2857139999999987,"midi":36,"time":23.999976000000004,"velocity":0.3937007874015748},{"duration":0.14285699999999935,"midi":76,"time":23.999976000000004,"velocity":0.3937007874015748},{"duration":0.2857139999999987,"midi":48,"time":23.999976000000004,"velocity":0.3937007874015748},{"duration":0.14285699999999935,"midi":69,"time":23.999976000000004,"velocity":0.3937007874015748},{"duration":0.14285699999999935,"midi":72,"time":24.285690000000002,"velocity":0.3937007874015748},{"duration":0.14285699999999935,"midi":76,"time":24.285690000000002,"velocity":0.3937007874015748},{"duration":0.14285699999999935,"midi":69,"time":24.285690000000002,"velocity":0.3937007874015748},{"duration":0.14285699999999935,"midi":48,"time":24.285690000000002,"velocity":0.3937007874015748},{"duration":0.14285699999999935,"midi":36,"time":24.285690000000002,"velocity":0.3937007874015748},{"duration":0.2857139999999987,"midi":33,"time":24.428547000000002,"velocity":0.3937007874015748},{"duration":0.2857139999999987,"midi":45,"time":24.428547000000002,"velocity":0.3937007874015748},{"duration":0.1428569999999958,"midi":69,"time":24.571404000000005,"velocity":0.3937007874015748},{"duration":0.1428569999999958,"midi":74,"time":24.571404000000005,"velocity":0.3937007874015748},{"duration":0.1428570000000029,"midi":33,"time":24.714261,"velocity":0.3937007874015748},{"duration":0.1428570000000029,"midi":45,"time":24.714261,"velocity":0.3937007874015748},{"duration":0.1428570000000029,"midi":72,"time":24.714261,"velocity":0.3937007874015748},{"duration":0.2857139999999987,"midi":50,"time":24.857118000000003,"velocity":0.3937007874015748},{"duration":0.42857099999999804,"midi":74,"time":24.857118000000003,"velocity":0.3937007874015748},{"duration":0.42857099999999804,"midi":69,"time":24.857118000000003,"velocity":0.3937007874015748},{"duration":0.2857139999999987,"midi":38,"time":24.857118000000003,"velocity":0.3937007874015748},{"duration":0.42857099999999804,"midi":65,"time":24.857118000000003,"velocity":0.3937007874015748},{"duration":0.14285699999999935,"midi":50,"time":25.142832000000002,"velocity":0.3937007874015748},{"duration":0.14285699999999935,"midi":38,"time":25.142832000000002,"velocity":0.3937007874015748},{"duration":0.2857139999999987,"midi":38,"time":25.285689,"velocity":0.3937007874015748},{"duration":0.2857139999999987,"midi":45,"time":25.285689,"velocity":0.3937007874015748},{"duration":0.1428569999999958,"midi":69,"time":25.428546000000004,"velocity":0.3937007874015748},{"duration":0.1428570000000029,"midi":72,"time":25.571403,"velocity":0.3937007874015748},{"duration":0.1428570000000029,"midi":45,"time":25.571403,"velocity":0.3937007874015748},{"duration":0.1428570000000029,"midi":38,"time":25.571403,"velocity":0.3937007874015748},{"duration":0.14285699999999935,"midi":74,"time":25.714260000000003,"velocity":0.3937007874015748},{"duration":0.2857139999999987,"midi":38,"time":25.714260000000003,"velocity":0.3937007874015748},{"duration":0.14285699999999935,"midi":65,"time":25.714260000000003,"velocity":0.3937007874015748},{"duration":0.2857139999999987,"midi":50,"time":25.714260000000003,"velocity":0.3937007874015748},{"duration":0.14285699999999935,"midi":69,"time":25.714260000000003,"velocity":0.3937007874015748},{"duration":0.14285699999999935,"midi":69,"time":25.999974,"velocity":0.3937007874015748},{"duration":0.14285699999999935,"midi":65,"time":25.999974,"velocity":0.3937007874015748},{"duration":0.14285699999999935,"midi":74,"time":25.999974,"velocity":0.3937007874015748},{"duration":0.14285699999999935,"midi":50,"time":25.999974,"velocity":0.3937007874015748},{"duration":0.14285699999999935,"midi":38,"time":25.999974,"velocity":0.3937007874015748},{"duration":0.2857139999999987,"midi":38,"time":26.142831,"velocity":0.3937007874015748},{"duration":0.2857139999999987,"midi":50,"time":26.142831,"velocity":0.3937007874015748},{"duration":0.1428569999999958,"midi":74,"time":26.285688000000004,"velocity":0.3937007874015748},{"duration":0.1428569999999958,"midi":65,"time":26.285688000000004,"velocity":0.3937007874015748},{"duration":0.1428570000000029,"midi":77,"time":26.428545,"velocity":0.3937007874015748},{"duration":0.1428570000000029,"midi":38,"time":26.428545,"velocity":0.3937007874015748},{"duration":0.1428570000000029,"midi":65,"time":26.428545,"velocity":0.3937007874015748},{"duration":0.1428570000000029,"midi":50,"time":26.428545,"velocity":0.3937007874015748},{"duration":0.14285699999999935,"midi":74,"time":26.571402000000003,"velocity":0.3937007874015748},{"duration":0.2857139999999987,"midi":34,"time":26.571402000000003,"velocity":0.3937007874015748},{"duration":0.14285699999999935,"midi":79,"time":26.571402000000003,"velocity":0.3937007874015748},{"duration":0.2857139999999987,"midi":46,"time":26.571402000000003,"velocity":0.3937007874015748},{"duration":0.14285699999999935,"midi":70,"time":26.571402000000003,"velocity":0.3937007874015748},{"duration":0.14285699999999935,"midi":46,"time":26.857116,"velocity":0.3937007874015748},{"duration":0.14285699999999935,"midi":34,"time":26.857116,"velocity":0.3937007874015748},{"duration":0.14285699999999935,"midi":74,"time":26.857116,"velocity":0.3937007874015748},{"duration":0.14285699999999935,"midi":70,"time":26.857116,"velocity":0.3937007874015748},{"duration":0.14285699999999935,"midi":79,"time":26.857116,"velocity":0.3937007874015748},{"duration":0.28571400000000224,"midi":34,"time":26.999973,"velocity":0.3937007874015748},{"duration":0.28571400000000224,"midi":46,"time":26.999973,"velocity":0.3937007874015748},{"duration":0.14285699999999935,"midi":74,"time":27.142830000000004,"velocity":0.3937007874015748},{"duration":0.14285699999999935,"midi":70,"time":27.142830000000004,"velocity":0.3937007874015748},{"duration":0.14285699999999935,"midi":79,"time":27.142830000000004,"velocity":0.3937007874015748},{"duration":0.14285699999999935,"midi":81,"time":27.285687000000003,"velocity":0.3937007874015748},{"duration":0.14285699999999935,"midi":34,"time":27.285687000000003,"velocity":0.3937007874015748},{"duration":0.14285699999999935,"midi":46,"time":27.285687000000003,"velocity":0.3937007874015748},{"duration":0.28571400000000224,"midi":43,"time":27.428544000000002,"velocity":0.3937007874015748},{"duration":0.14285699999999935,"midi":79,"time":27.428544000000002,"velocity":0.3937007874015748},{"duration":0.28571400000000224,"midi":31,"time":27.428544000000002,"velocity":0.3937007874015748},{"duration":0.14285699999999935,"midi":82,"time":27.428544000000002,"velocity":0.3937007874015748},{"duration":0.14285699999999935,"midi":74,"time":27.428544000000002,"velocity":0.3937007874015748},{"duration":0.14285699999999935,"midi":82,"time":27.714258000000005,"velocity":0.3937007874015748},{"duration":0.14285699999999935,"midi":31,"time":27.714258000000005,"velocity":0.3937007874015748},{"duration":0.14285699999999935,"midi":79,"time":27.714258000000005,"velocity":0.3937007874015748},{"duration":0.14285699999999935,"midi":74,"time":27.714258000000005,"velocity":0.3937007874015748},{"duration":0.14285699999999935,"midi":43,"time":27.714258000000005,"velocity":0.3937007874015748},{"duration":0.28571400000000224,"midi":43,"time":27.857115000000004,"velocity":0.3937007874015748},{"duration":0.28571400000000224,"midi":31,"time":27.857115000000004,"velocity":0.3937007874015748},{"duration":0.14285700000000645,"midi":81,"time":27.999972,"velocity":0.3937007874015748},{"duration":0.14285700000000645,"midi":74,"time":27.999972,"velocity":0.3937007874015748},{"duration":0.1428569999999958,"midi":79,"time":28.142829000000006,"velocity":0.3937007874015748},{"duration":0.1428569999999958,"midi":31,"time":28.142829000000006,"velocity":0.3937007874015748},{"duration":0.1428569999999958,"midi":43,"time":28.142829000000006,"velocity":0.3937007874015748},{"duration":0.14285699999999935,"midi":81,"time":28.285686000000002,"velocity":0.3937007874015748},{"duration":0.14285699999999935,"midi":74,"time":28.285686000000002,"velocity":0.3937007874015748},{"duration":0.28571400000000224,"midi":50,"time":28.285686000000002,"velocity":0.3937007874015748},{"duration":0.28571400000000224,"midi":38,"time":28.285686000000002,"velocity":0.3937007874015748},{"duration":0.42857099999999804,"midi":65,"time":28.428543,"velocity":0.3937007874015748},{"duration":0.42857099999999804,"midi":74,"time":28.428543,"velocity":0.3937007874015748},{"duration":0.42857099999999804,"midi":69,"time":28.428543,"velocity":0.3937007874015748},{"duration":0.14285699999999935,"midi":38,"time":28.571400000000004,"velocity":0.3937007874015748},{"duration":0.14285699999999935,"midi":50,"time":28.571400000000004,"velocity":0.3937007874015748},{"duration":0.28571400000000224,"midi":38,"time":28.714257000000003,"velocity":0.3937007874015748},{"duration":0.28571400000000224,"midi":45,"time":28.714257000000003,"velocity":0.3937007874015748},{"duration":0.14285700000000645,"midi":74,"time":28.857114,"velocity":0.3937007874015748},{"duration":0.1428569999999958,"midi":38,"time":28.999971000000006,"velocity":0.3937007874015748},{"duration":0.1428569999999958,"midi":45,"time":28.999971000000006,"velocity":0.3937007874015748},{"duration":0.1428569999999958,"midi":76,"time":28.999971000000006,"velocity":0.3937007874015748},{"duration":0.14285699999999935,"midi":72,"time":29.142828,"velocity":0.3937007874015748},{"duration":0.28571400000000224,"midi":46,"time":29.142828,"velocity":0.3937007874015748},{"duration":0.14285699999999935,"midi":69,"time":29.142828,"velocity":0.3937007874015748},{"duration":0.28571400000000224,"midi":34,"time":29.142828,"velocity":0.3937007874015748},{"duration":0.14285699999999935,"midi":77,"time":29.142828,"velocity":0.3937007874015748},{"duration":0.14285699999999935,"midi":77,"time":29.428542000000004,"velocity":0.3937007874015748},{"duration":0.14285699999999935,"midi":69,"time":29.428542000000004,"velocity":0.3937007874015748},{"duration":0.14285699999999935,"midi":72,"time":29.428542000000004,"velocity":0.3937007874015748},{"duration":0.14285699999999935,"midi":46,"time":29.428542000000004,"velocity":0.3937007874015748},{"duration":0.14285699999999935,"midi":34,"time":29.428542000000004,"velocity":0.3937007874015748},{"duration":0.28571400000000224,"midi":46,"time":29.571399000000003,"velocity":0.3937007874015748},{"duration":0.28571400000000224,"midi":34,"time":29.571399000000003,"velocity":0.3937007874015748},{"duration":0.14285700000000645,"midi":69,"time":29.714256,"velocity":0.3937007874015748},{"duration":0.14285700000000645,"midi":79,"time":29.714256,"velocity":0.3937007874015748},{"duration":0.14285700000000645,"midi":72,"time":29.714256,"velocity":0.3937007874015748},{"duration":0.1428569999999958,"midi":34,"time":29.857113000000005,"velocity":0.3937007874015748},{"duration":0.1428569999999958,"midi":46,"time":29.857113000000005,"velocity":0.3937007874015748},{"duration":0.14285699999999935,"midi":77,"time":29.99997,"velocity":0.3937007874015748},{"duration":0.28571400000000224,"midi":38,"time":29.99997,"velocity":0.3937007874015748},{"duration":0.14285699999999935,"midi":74,"time":29.99997,"velocity":0.3937007874015748},{"duration":0.14285699999999935,"midi":81,"time":29.99997,"velocity":0.3937007874015748},{"duration":0.28571400000000224,"midi":50,"time":29.99997,"velocity":0.3937007874015748},{"duration":0.1428570000000029,"midi":74,"time":30.142827,"velocity":0.3937007874015748},{"duration":0.14285699999999935,"midi":38,"time":30.285684000000003,"velocity":0.3937007874015748},{"duration":0.14285699999999935,"midi":50,"time":30.285684000000003,"velocity":0.3937007874015748},{"duration":0.28571400000000224,"midi":50,"time":30.428541000000003,"velocity":0.3937007874015748},{"duration":0.28571400000000224,"midi":38,"time":30.428541000000003,"velocity":0.3937007874015748},{"duration":0.1428570000000029,"midi":74,"time":30.571398000000002,"velocity":0.3937007874015748},{"duration":0.1428569999999958,"midi":77,"time":30.714255000000005,"velocity":0.3937007874015748},{"duration":0.1428569999999958,"midi":50,"time":30.714255000000005,"velocity":0.3937007874015748},{"duration":0.1428569999999958,"midi":38,"time":30.714255000000005,"velocity":0.3937007874015748},{"duration":0.28571400000000224,"midi":45,"time":30.857112,"velocity":0.3937007874015748},{"duration":0.28571400000000224,"midi":33,"time":30.857112,"velocity":0.3937007874015748},{"duration":0.14285699999999935,"midi":76,"time":30.857112,"velocity":0.3937007874015748},{"duration":0.14285699999999935,"midi":73,"time":30.857112,"velocity":0.3937007874015748},{"duration":0.14285699999999935,"midi":69,"time":30.857112,"velocity":0.3937007874015748},{"duration":0.14285699999999935,"midi":73,"time":31.142826000000003,"velocity":0.3937007874015748},{"duration":0.14285699999999935,"midi":33,"time":31.142826000000003,"velocity":0.3937007874015748},{"duration":0.14285699999999935,"midi":76,"time":31.142826000000003,"velocity":0.3937007874015748},{"duration":0.14285699999999935,"midi":45,"time":31.142826000000003,"velocity":0.3937007874015748},{"duration":0.14285699999999935,"midi":69,"time":31.142826000000003,"velocity":0.3937007874015748},{"duration":0.28571400000000224,"midi":33,"time":31.285683000000002,"velocity":0.3937007874015748},{"duration":0.28571400000000224,"midi":45,"time":31.285683000000002,"velocity":0.3937007874015748},{"duration":0.1428570000000029,"midi":74,"time":31.42854,"velocity":0.3937007874015748},{"duration":0.14285699999999935,"midi":33,"time":31.571397000000005,"velocity":0.3937007874015748},{"duration":0.14285699999999935,"midi":45,"time":31.571397000000005,"velocity":0.3937007874015748},{"duration":0.14285699999999935,"midi":73,"time":31.571397000000005,"velocity":0.3937007874015748},{"duration":0.28571400000000224,"midi":74,"time":31.714254000000004,"velocity":0.3937007874015748},{"duration":0.28571400000000224,"midi":50,"time":31.714254000000004,"velocity":0.3937007874015748},{"duration":0.28571400000000224,"midi":38,"time":31.714254000000004,"velocity":0.3937007874015748},{"duration":0.28571400000000224,"midi":69,"time":31.714254000000004,"velocity":0.3937007874015748},{"duration":0.28571399999999514,"midi":74,"time":31.999968000000006,"velocity":0.3937007874015748},{"duration":0.28571399999999514,"midi":69,"time":31.999968000000006,"velocity":0.3937007874015748},{"duration":0.28571399999999514,"midi":38,"time":31.999968000000006,"velocity":0.3937007874015748},{"duration":0.28571399999999514,"midi":50,"time":31.999968000000006,"velocity":0.3937007874015748},{"duration":0.2857139999999987,"midi":69,"time":32.285682,"velocity":0.3937007874015748},{"duration":0.2857139999999987,"midi":76,"time":32.285682,"velocity":0.3937007874015748},{"duration":0.2857139999999987,"midi":48,"time":32.285682,"velocity":0.3937007874015748},{"duration":0.2857139999999987,"midi":72,"time":32.285682,"velocity":0.3937007874015748},{"duration":0.2857139999999987,"midi":36,"time":32.285682,"velocity":0.3937007874015748},{"duration":0.2857140000000058,"midi":74,"time":32.571396,"velocity":0.3937007874015748},{"duration":0.2857140000000058,"midi":48,"time":32.571396,"velocity":0.3937007874015748},{"duration":0.2857140000000058,"midi":72,"time":32.571396,"velocity":0.3937007874015748},{"duration":0.2857140000000058,"midi":36,"time":32.571396,"velocity":0.3937007874015748},{"duration":0.2857140000000058,"midi":77,"time":32.571396,"velocity":0.3937007874015748},{"duration":0.2857139999999916,"midi":48,"time":32.857110000000006,"velocity":0.3937007874015748},{"duration":0.14285699999999935,"midi":77,"time":32.857110000000006,"velocity":0.3937007874015748},{"duration":0.2857139999999916,"midi":36,"time":32.857110000000006,"velocity":0.3937007874015748},{"duration":0.14285699999999224,"midi":77,"time":32.999967000000005,"velocity":0.3937007874015748},{"duration":0.2857140000000058,"midi":74,"time":33.142824,"velocity":0.3937007874015748},{"duration":0.2857140000000058,"midi":70,"time":33.142824,"velocity":0.3937007874015748},{"duration":0.2857140000000058,"midi":46,"time":33.142824,"velocity":0.3937007874015748},{"duration":0.2857140000000058,"midi":34,"time":33.142824,"velocity":0.3937007874015748},{"duration":0.2857140000000058,"midi":79,"time":33.142824,"velocity":0.3937007874015748},{"duration":0.5714279999999974,"midi":74,"time":33.428538,"velocity":0.3937007874015748},{"duration":0.2857139999999987,"midi":33,"time":33.428538,"velocity":0.3937007874015748},{"duration":0.2857139999999987,"midi":45,"time":33.428538,"velocity":0.3937007874015748},{"duration":0.5714279999999974,"midi":77,"time":33.428538,"velocity":0.3937007874015748},{"duration":0.5714279999999974,"midi":81,"time":33.428538,"velocity":0.3937007874015748},{"duration":0.14285699999999935,"midi":45,"time":33.714252,"velocity":0.3937007874015748},{"duration":0.14285699999999935,"midi":33,"time":33.714252,"velocity":0.3937007874015748},{"duration":0.2857140000000058,"midi":33,"time":33.857109,"velocity":0.3937007874015748},{"duration":0.2857140000000058,"midi":45,"time":33.857109,"velocity":0.3937007874015748},{"duration":0.14285700000000645,"midi":77,"time":33.999966,"velocity":0.3937007874015748},{"duration":0.14285699999999224,"midi":45,"time":34.14282300000001,"velocity":0.3937007874015748},{"duration":0.14285699999999224,"midi":33,"time":34.14282300000001,"velocity":0.3937007874015748},{"duration":0.14285699999999224,"midi":74,"time":34.14282300000001,"velocity":0.3937007874015748},{"duration":0.8571420000000032,"midi":69,"time":34.28568,"velocity":0.3937007874015748},{"duration":0.2857140000000058,"midi":45,"time":34.28568,"velocity":0.3937007874015748},{"duration":0.2857140000000058,"midi":33,"time":34.28568,"velocity":0.3937007874015748},{"duration":0.14285699999999935,"midi":45,"time":34.571394000000005,"velocity":0.3937007874015748},{"duration":0.14285699999999935,"midi":33,"time":34.571394000000005,"velocity":0.3937007874015748},{"duration":0.2857139999999987,"midi":45,"time":34.714251000000004,"velocity":0.3937007874015748},{"duration":0.2857139999999987,"midi":33,"time":34.714251000000004,"velocity":0.3937007874015748},{"duration":0.14285699999999935,"midi":33,"time":34.999965,"velocity":0.3937007874015748},{"duration":0.14285699999999935,"midi":45,"time":34.999965,"velocity":0.3937007874015748},{"duration":0.5714279999999974,"midi":74,"time":35.142822,"velocity":0.3937007874015748},{"duration":0.2857140000000058,"midi":43,"time":35.142822,"velocity":0.3937007874015748},{"duration":0.2857140000000058,"midi":31,"time":35.142822,"velocity":0.3937007874015748},{"duration":0.5714279999999974,"midi":77,"time":35.142822,"velocity":0.3937007874015748},{"duration":0.5714279999999974,"midi":82,"time":35.142822,"velocity":0.3937007874015748},{"duration":0.14285699999999224,"midi":31,"time":35.42853600000001,"velocity":0.3937007874015748},{"duration":0.14285699999999224,"midi":43,"time":35.42853600000001,"velocity":0.3937007874015748},{"duration":0.2857140000000058,"midi":43,"time":35.571393,"velocity":0.3937007874015748},{"duration":0.2857140000000058,"midi":31,"time":35.571393,"velocity":0.3937007874015748},{"duration":0.14285700000000645,"midi":77,"time":35.71425,"velocity":0.3937007874015748},{"duration":0.14285699999999935,"midi":43,"time":35.857107000000006,"velocity":0.3937007874015748},{"duration":0.14285699999999935,"midi":31,"time":35.857107000000006,"velocity":0.3937007874015748},{"duration":0.14285699999999935,"midi":74,"time":35.857107000000006,"velocity":0.3937007874015748},{"duration":0.8571419999999961,"midi":70,"time":35.999964000000006,"velocity":0.3937007874015748},{"duration":0.2857139999999987,"midi":43,"time":35.999964000000006,"velocity":0.3937007874015748},{"duration":0.2857139999999987,"midi":31,"time":35.999964000000006,"velocity":0.3937007874015748},{"duration":0.14285699999999935,"midi":43,"time":36.285678000000004,"velocity":0.3937007874015748},{"duration":0.14285699999999935,"midi":31,"time":36.285678000000004,"velocity":0.3937007874015748},{"duration":0.2857139999999987,"midi":31,"time":36.428535000000004,"velocity":0.3937007874015748},{"duration":0.2857139999999987,"midi":43,"time":36.428535000000004,"velocity":0.3937007874015748},{"duration":0.14285699999999935,"midi":43,"time":36.714249,"velocity":0.3937007874015748},{"duration":0.14285699999999935,"midi":31,"time":36.714249,"velocity":0.3937007874015748},{"duration":0.14285699999999935,"midi":76,"time":36.857106,"velocity":0.3937007874015748},{"duration":0.14285699999999935,"midi":69,"time":36.857106,"velocity":0.3937007874015748},{"duration":0.2857140000000058,"midi":33,"time":36.857106,"velocity":0.3937007874015748},{"duration":0.2857140000000058,"midi":45,"time":36.857106,"velocity":0.3937007874015748},{"duration":0.2857139999999987,"midi":76,"time":36.999963,"velocity":0.3937007874015748},{"duration":0.14285699999999224,"midi":45,"time":37.14282000000001,"velocity":0.3937007874015748},{"duration":0.14285699999999224,"midi":33,"time":37.14282000000001,"velocity":0.3937007874015748},{"duration":0.42857100000000514,"midi":74,"time":37.285677,"velocity":0.3937007874015748},{"duration":0.42857100000000514,"midi":69,"time":37.285677,"velocity":0.3937007874015748},{"duration":0.42857100000000514,"midi":65,"time":37.285677,"velocity":0.3937007874015748},{"duration":0.2857140000000058,"midi":33,"time":37.285677,"velocity":0.3937007874015748},{"duration":0.2857140000000058,"midi":45,"time":37.285677,"velocity":0.3937007874015748},{"duration":0.14285699999999935,"midi":33,"time":37.571391000000006,"velocity":0.3937007874015748},{"duration":0.14285699999999935,"midi":45,"time":37.571391000000006,"velocity":0.3937007874015748},{"duration":0.2857139999999987,"midi":33,"time":37.714248000000005,"velocity":0.3937007874015748},{"duration":0.42857099999999804,"midi":73,"time":37.714248000000005,"velocity":0.3937007874015748},{"duration":0.42857099999999804,"midi":69,"time":37.714248000000005,"velocity":0.3937007874015748},{"duration":0.42857099999999804,"midi":77,"time":37.714248000000005,"velocity":0.3937007874015748},{"duration":0.2857139999999987,"midi":45,"time":37.714248000000005,"velocity":0.3937007874015748},{"duration":0.14285699999999935,"midi":33,"time":37.999962000000004,"velocity":0.3937007874015748},{"duration":0.14285699999999935,"midi":45,"time":37.999962000000004,"velocity":0.3937007874015748},{"duration":0.2857140000000058,"midi":33,"time":38.142819,"velocity":0.3937007874015748},{"duration":0.2857140000000058,"midi":45,"time":38.142819,"velocity":0.3937007874015748},{"duration":0.14285700000000645,"midi":65,"time":38.285676,"velocity":0.3937007874015748},{"duration":0.14285699999999224,"midi":45,"time":38.42853300000001,"velocity":0.3937007874015748},{"duration":0.14285699999999224,"midi":67,"time":38.42853300000001,"velocity":0.3937007874015748},{"duration":0.14285699999999224,"midi":33,"time":38.42853300000001,"velocity":0.3937007874015748},{"duration":0.14285699999999935,"midi":65,"time":38.57139,"velocity":0.3937007874015748},{"duration":0.2857140000000058,"midi":38,"time":38.57139,"velocity":0.3937007874015748},{"duration":0.14285699999999935,"midi":69,"time":38.57139,"velocity":0.3937007874015748},{"duration":0.14285699999999935,"midi":62,"time":38.57139,"velocity":0.3937007874015748},{"duration":0.2857140000000058,"midi":50,"time":38.57139,"velocity":0.3937007874015748},{"duration":0.14285699999999935,"midi":62,"time":38.85710400000001,"velocity":0.3937007874015748},{"duration":0.14285699999999935,"midi":50,"time":38.85710400000001,"velocity":0.3937007874015748},{"duration":0.14285699999999935,"midi":38,"time":38.85710400000001,"velocity":0.3937007874015748},{"duration":0.14285699999999935,"midi":65,"time":38.85710400000001,"velocity":0.3937007874015748},{"duration":0.14285699999999935,"midi":69,"time":38.85710400000001,"velocity":0.3937007874015748},{"duration":0.2857139999999987,"midi":50,"time":38.999961000000006,"velocity":0.3937007874015748},{"duration":0.2857139999999987,"midi":38,"time":38.999961000000006,"velocity":0.3937007874015748},{"duration":0.14285700000000645,"midi":62,"time":39.142818,"velocity":0.3937007874015748},{"duration":0.14285700000000645,"midi":65,"time":39.142818,"velocity":0.3937007874015748},{"duration":0.14285700000000645,"midi":69,"time":39.142818,"velocity":0.3937007874015748},{"duration":0.14285699999999935,"midi":50,"time":39.285675000000005,"velocity":0.3937007874015748},{"duration":0.14285699999999935,"midi":38,"time":39.285675000000005,"velocity":0.3937007874015748},{"duration":0.14285699999999935,"midi":62,"time":39.428532000000004,"velocity":0.3937007874015748},{"duration":0.2857139999999987,"midi":50,"time":39.428532000000004,"velocity":0.3937007874015748},{"duration":0.14285699999999935,"midi":67,"time":39.428532000000004,"velocity":0.3937007874015748},{"duration":0.2857139999999987,"midi":38,"time":39.428532000000004,"velocity":0.3937007874015748},{"duration":0.14285699999999935,"midi":70,"time":39.428532000000004,"velocity":0.3937007874015748},{"duration":0.14285699999999935,"midi":62,"time":39.571389,"velocity":0.3937007874015748},{"duration":0.14285699999999935,"midi":65,"time":39.571389,"velocity":0.3937007874015748},{"duration":0.14285699999999935,"midi":69,"time":39.571389,"velocity":0.3937007874015748},{"duration":0.14285699999999935,"midi":50,"time":39.714246,"velocity":0.3937007874015748},{"duration":0.14285699999999935,"midi":38,"time":39.714246,"velocity":0.3937007874015748},{"duration":0.2857140000000058,"midi":50,"time":39.857103,"velocity":0.3937007874015748},{"duration":0.2857140000000058,"midi":38,"time":39.857103,"velocity":0.3937007874015748},{"duration":0.14285699999999224,"midi":38,"time":40.14281700000001,"velocity":0.3937007874015748},{"duration":0.14285699999999224,"midi":50,"time":40.14281700000001,"velocity":0.3937007874015748},{"duration":0.2857140000000058,"midi":36,"time":40.285674,"velocity":0.3937007874015748},{"duration":0.14285699999999935,"midi":60,"time":40.285674,"velocity":0.3937007874015748},{"duration":0.2857140000000058,"midi":48,"time":40.285674,"velocity":0.3937007874015748},{"duration":0.14285699999999935,"midi":64,"time":40.285674,"velocity":0.3937007874015748},{"duration":0.14285699999999935,"midi":67,"time":40.285674,"velocity":0.3937007874015748},{"duration":0.14285699999999935,"midi":67,"time":40.571388000000006,"velocity":0.3937007874015748},{"duration":0.14285699999999935,"midi":36,"time":40.571388000000006,"velocity":0.3937007874015748},{"duration":0.14285699999999935,"midi":48,"time":40.571388000000006,"velocity":0.3937007874015748},{"duration":0.14285699999999935,"midi":64,"time":40.571388000000006,"velocity":0.3937007874015748},{"duration":0.14285699999999935,"midi":60,"time":40.571388000000006,"velocity":0.3937007874015748},{"duration":0.2857139999999987,"midi":36,"time":40.714245000000005,"velocity":0.3937007874015748},{"duration":0.2857139999999987,"midi":48,"time":40.714245000000005,"velocity":0.3937007874015748},{"duration":0.14285699999999935,"midi":67,"time":40.857102000000005,"velocity":0.3937007874015748},{"duration":0.14285699999999935,"midi":64,"time":40.857102000000005,"velocity":0.3937007874015748},{"duration":0.14285699999999935,"midi":60,"time":40.857102000000005,"velocity":0.3937007874015748},{"duration":0.14285699999999935,"midi":48,"time":40.999959000000004,"velocity":0.3937007874015748},{"duration":0.14285699999999935,"midi":36,"time":40.999959000000004,"velocity":0.3937007874015748},{"duration":0.14285699999999935,"midi":64,"time":41.142816,"velocity":0.3937007874015748},{"duration":0.14285699999999935,"midi":67,"time":41.142816,"velocity":0.3937007874015748},{"duration":0.2857139999999987,"midi":53,"time":41.142816,"velocity":0.3937007874015748},{"duration":0.2857139999999987,"midi":41,"time":41.142816,"velocity":0.3937007874015748},{"duration":0.14285699999999935,"midi":60,"time":41.142816,"velocity":0.3937007874015748},{"duration":0.14285699999999935,"midi":65,"time":41.285673,"velocity":0.3937007874015748},{"duration":0.14285699999999935,"midi":60,"time":41.285673,"velocity":0.3937007874015748},{"duration":0.14285699999999935,"midi":69,"time":41.285673,"velocity":0.3937007874015748},{"duration":0.14285699999999935,"midi":53,"time":41.42853,"velocity":0.3937007874015748},{"duration":0.14285699999999935,"midi":41,"time":41.42853,"velocity":0.3937007874015748},{"duration":0.2857140000000058,"midi":53,"time":41.571387,"velocity":0.3937007874015748},{"duration":0.2857140000000058,"midi":41,"time":41.571387,"velocity":0.3937007874015748},{"duration":0.14285699999999935,"midi":53,"time":41.85710100000001,"velocity":0.3937007874015748},{"duration":0.14285699999999935,"midi":41,"time":41.85710100000001,"velocity":0.3937007874015748},{"duration":0.14285699999999224,"midi":69,"time":41.99995800000001,"velocity":0.3937007874015748},{"duration":0.14285699999999224,"midi":62,"time":41.99995800000001,"velocity":0.3937007874015748},{"duration":0.2857139999999987,"midi":38,"time":41.99995800000001,"velocity":0.3937007874015748},{"duration":0.14285699999999224,"midi":65,"time":41.99995800000001,"velocity":0.3937007874015748},{"duration":0.2857139999999987,"midi":50,"time":41.99995800000001,"velocity":0.3937007874015748},{"duration":0.14285699999999935,"midi":65,"time":42.285672000000005,"velocity":0.3937007874015748},{"duration":0.14285699999999935,"midi":69,"time":42.285672000000005,"velocity":0.3937007874015748},{"duration":0.14285699999999935,"midi":62,"time":42.285672000000005,"velocity":0.3937007874015748},{"duration":0.14285699999999935,"midi":38,"time":42.285672000000005,"velocity":0.3937007874015748},{"duration":0.14285699999999935,"midi":50,"time":42.285672000000005,"velocity":0.3937007874015748},{"duration":0.2857139999999987,"midi":38,"time":42.428529000000005,"velocity":0.3937007874015748},{"duration":0.2857139999999987,"midi":50,"time":42.428529000000005,"velocity":0.3937007874015748},{"duration":0.14285699999999935,"midi":65,"time":42.571386000000004,"velocity":0.3937007874015748},{"duration":0.14285699999999935,"midi":62,"time":42.571386000000004,"velocity":0.3937007874015748},{"duration":0.14285699999999935,"midi":69,"time":42.571386000000004,"velocity":0.3937007874015748},{"duration":0.14285699999999935,"midi":38,"time":42.714243,"velocity":0.3937007874015748},{"duration":0.14285699999999935,"midi":50,"time":42.714243,"velocity":0.3937007874015748},{"duration":0.14285699999999935,"midi":62,"time":42.8571,"velocity":0.3937007874015748},{"duration":0.2857140000000058,"midi":38,"time":42.8571,"velocity":0.3937007874015748},{"duration":0.14285699999999935,"midi":67,"time":42.8571,"velocity":0.3937007874015748},{"duration":0.2857140000000058,"midi":50,"time":42.8571,"velocity":0.3937007874015748},{"duration":0.14285699999999935,"midi":70,"time":42.8571,"velocity":0.3937007874015748},{"duration":0.14285700000000645,"midi":65,"time":42.999957,"velocity":0.3937007874015748},{"duration":0.14285700000000645,"midi":69,"time":42.999957,"velocity":0.3937007874015748},{"duration":0.14285700000000645,"midi":62,"time":42.999957,"velocity":0.3937007874015748},{"duration":0.14285699999999224,"midi":38,"time":43.14281400000001,"velocity":0.3937007874015748},{"duration":0.14285699999999224,"midi":50,"time":43.14281400000001,"velocity":0.3937007874015748},{"duration":0.2857140000000058,"midi":38,"time":43.285671,"velocity":0.3937007874015748},{"duration":0.2857140000000058,"midi":50,"time":43.285671,"velocity":0.3937007874015748},{"duration":0.14285699999999935,"midi":38,"time":43.57138500000001,"velocity":0.3937007874015748},{"duration":0.14285699999999935,"midi":50,"time":43.57138500000001,"velocity":0.3937007874015748},{"duration":0.2857139999999987,"midi":33,"time":43.714242000000006,"velocity":0.3937007874015748},{"duration":0.2857139999999987,"midi":45,"time":43.714242000000006,"velocity":0.3937007874015748},{"duration":0.14285699999999224,"midi":64,"time":43.714242000000006,"velocity":0.3937007874015748},{"duration":0.14285699999999224,"midi":67,"time":43.714242000000006,"velocity":0.3937007874015748},{"duration":0.14285699999999224,"midi":61,"time":43.714242000000006,"velocity":0.3937007874015748},{"duration":0.14285699999999935,"midi":61,"time":43.999956000000005,"velocity":0.3937007874015748},{"duration":0.14285699999999935,"midi":65,"time":43.999956000000005,"velocity":0.3937007874015748},{"duration":0.14285699999999935,"midi":33,"time":43.999956000000005,"velocity":0.3937007874015748},{"duration":0.14285699999999935,"midi":45,"time":43.999956000000005,"velocity":0.3937007874015748},{"duration":0.2857139999999987,"midi":33,"time":44.142813000000004,"velocity":0.3937007874015748},{"duration":0.2857139999999987,"midi":45,"time":44.142813000000004,"velocity":0.3937007874015748},{"duration":0.14285699999999935,"midi":64,"time":44.28567,"velocity":0.3937007874015748},{"duration":0.14285699999999935,"midi":61,"time":44.28567,"velocity":0.3937007874015748},{"duration":0.14285699999999935,"midi":33,"time":44.428527,"velocity":0.3937007874015748},{"duration":0.14285699999999935,"midi":45,"time":44.428527,"velocity":0.3937007874015748},{"duration":0.14285699999999935,"midi":62,"time":44.571384,"velocity":0.3937007874015748},{"duration":0.14285699999999935,"midi":53,"time":44.571384,"velocity":0.3937007874015748},{"duration":0.2857140000000058,"midi":38,"time":44.571384,"velocity":0.3937007874015748},{"duration":0.14285699999999935,"midi":57,"time":44.571384,"velocity":0.3937007874015748},{"duration":0.2857140000000058,"midi":50,"time":44.571384,"velocity":0.3937007874015748},{"duration":0.14285699999999935,"midi":38,"time":44.85709800000001,"velocity":0.3937007874015748},{"duration":0.14285699999999935,"midi":50,"time":44.85709800000001,"velocity":0.3937007874015748},{"duration":0.2857139999999987,"midi":50,"time":44.99995500000001,"velocity":0.3937007874015748},{"duration":0.2857139999999987,"midi":38,"time":44.99995500000001,"velocity":0.3937007874015748},{"duration":0.14285700000000645,"midi":62,"time":45.142812,"velocity":0.3937007874015748},{"duration":0.14285699999999935,"midi":64,"time":45.285669000000006,"velocity":0.3937007874015748},{"duration":0.14285699999999935,"midi":38,"time":45.285669000000006,"velocity":0.3937007874015748},{"duration":0.14285699999999935,"midi":50,"time":45.285669000000006,"velocity":0.3937007874015748},{"duration":0.5714279999999974,"midi":62,"time":45.428526000000005,"velocity":0.3937007874015748},{"duration":0.5714279999999974,"midi":65,"time":45.428526000000005,"velocity":0.3937007874015748},{"duration":0.2857139999999987,"midi":50,"time":45.428526000000005,"velocity":0.3937007874015748},{"duration":0.2857139999999987,"midi":38,"time":45.428526000000005,"velocity":0.3937007874015748},{"duration":0.5714279999999974,"midi":57,"time":45.428526000000005,"velocity":0.3937007874015748},{"duration":0.14285699999999935,"midi":38,"time":45.714240000000004,"velocity":0.3937007874015748},{"duration":0.14285699999999935,"midi":50,"time":45.714240000000004,"velocity":0.3937007874015748},{"duration":0.2857140000000058,"midi":38,"time":45.857097,"velocity":0.3937007874015748},{"duration":0.2857140000000058,"midi":50,"time":45.857097,"velocity":0.3937007874015748},{"duration":0.14285700000000645,"midi":67,"time":45.999954,"velocity":0.3937007874015748},{"duration":0.14285699999999224,"midi":69,"time":46.14281100000001,"velocity":0.3937007874015748},{"duration":0.14285699999999224,"midi":50,"time":46.14281100000001,"velocity":0.3937007874015748},{"duration":0.14285699999999224,"midi":38,"time":46.14281100000001,"velocity":0.3937007874015748},{"duration":0.2857140000000058,"midi":36,"time":46.285668,"velocity":0.3937007874015748},{"duration":0.2857140000000058,"midi":55,"time":46.285668,"velocity":0.3937007874015748},{"duration":0.2857140000000058,"midi":60,"time":46.285668,"velocity":0.3937007874015748},{"duration":0.2857140000000058,"midi":48,"time":46.285668,"velocity":0.3937007874015748},{"duration":0.2857140000000058,"midi":67,"time":46.285668,"velocity":0.3937007874015748},{"duration":0.14285699999999935,"midi":48,"time":46.57138200000001,"velocity":0.3937007874015748},{"duration":0.2857139999999916,"midi":55,"time":46.57138200000001,"velocity":0.3937007874015748},{"duration":0.2857139999999916,"midi":65,"time":46.57138200000001,"velocity":0.3937007874015748},{"duration":0.2857139999999916,"midi":60,"time":46.57138200000001,"velocity":0.3937007874015748},{"duration":0.14285699999999935,"midi":36,"time":46.57138200000001,"velocity":0.3937007874015748},{"duration":0.2857139999999987,"midi":36,"time":46.714239000000006,"velocity":0.3937007874015748},{"duration":0.2857139999999987,"midi":48,"time":46.714239000000006,"velocity":0.3937007874015748},{"duration":0.2857140000000058,"midi":64,"time":46.857096,"velocity":0.3937007874015748},{"duration":0.2857140000000058,"midi":55,"time":46.857096,"velocity":0.3937007874015748},{"duration":0.2857140000000058,"midi":60,"time":46.857096,"velocity":0.3937007874015748},{"duration":0.14285699999999935,"midi":48,"time":46.999953000000005,"velocity":0.3937007874015748},{"duration":0.14285699999999935,"midi":36,"time":46.999953000000005,"velocity":0.3937007874015748},{"duration":0.2857139999999987,"midi":65,"time":47.142810000000004,"velocity":0.3937007874015748},{"duration":0.2857139999999987,"midi":60,"time":47.142810000000004,"velocity":0.3937007874015748},{"duration":0.2857139999999987,"midi":53,"time":47.142810000000004,"velocity":0.3937007874015748},{"duration":0.2857139999999987,"midi":57,"time":47.142810000000004,"velocity":0.3937007874015748},{"duration":0.2857139999999987,"midi":41,"time":47.142810000000004,"velocity":0.3937007874015748},{"duration":0.2857139999999987,"midi":60,"time":47.428524,"velocity":0.3937007874015748},{"duration":0.2857139999999987,"midi":57,"time":47.428524,"velocity":0.3937007874015748},{"duration":0.14285699999999935,"midi":41,"time":47.428524,"velocity":0.3937007874015748},{"duration":0.14285699999999935,"midi":53,"time":47.428524,"velocity":0.3937007874015748},{"duration":0.2857139999999987,"midi":67,"time":47.428524,"velocity":0.3937007874015748},{"duration":0.2857140000000058,"midi":53,"time":47.571381,"velocity":0.3937007874015748},{"duration":0.2857140000000058,"midi":41,"time":47.571381,"velocity":0.3937007874015748},{"duration":0.2857140000000058,"midi":69,"time":47.714238,"velocity":0.3937007874015748},{"duration":0.2857140000000058,"midi":60,"time":47.714238,"velocity":0.3937007874015748},{"duration":0.2857140000000058,"midi":57,"time":47.714238,"velocity":0.3937007874015748},{"duration":0.14285699999999935,"midi":41,"time":47.85709500000001,"velocity":0.3937007874015748},{"duration":0.14285699999999935,"midi":53,"time":47.85709500000001,"velocity":0.3937007874015748},{"duration":0.5714279999999974,"midi":60,"time":47.99995200000001,"velocity":0.3937007874015748},{"duration":0.5714279999999974,"midi":64,"time":47.99995200000001,"velocity":0.3937007874015748},{"duration":0.2857139999999987,"midi":36,"time":47.99995200000001,"velocity":0.3937007874015748},{"duration":0.2857139999999987,"midi":48,"time":47.99995200000001,"velocity":0.3937007874015748},{"duration":0.5714279999999974,"midi":67,"time":47.99995200000001,"velocity":0.3937007874015748},{"duration":0.14285699999999935,"midi":48,"time":48.285666000000006,"velocity":0.3937007874015748},{"duration":0.14285699999999935,"midi":36,"time":48.285666000000006,"velocity":0.3937007874015748},{"duration":0.2857139999999987,"midi":36,"time":48.428523000000006,"velocity":0.3937007874015748},{"duration":0.2857139999999987,"midi":48,"time":48.428523000000006,"velocity":0.3937007874015748},{"duration":0.14285699999999935,"midi":65,"time":48.571380000000005,"velocity":0.3937007874015748},{"duration":0.14285699999999935,"midi":48,"time":48.714237000000004,"velocity":0.3937007874015748},{"duration":0.14285699999999935,"midi":36,"time":48.714237000000004,"velocity":0.3937007874015748},{"duration":0.14285699999999935,"midi":67,"time":48.714237000000004,"velocity":0.3937007874015748},{"duration":0.5714279999999974,"midi":62,"time":48.857094000000004,"velocity":0.3937007874015748},{"duration":0.2857140000000058,"midi":38,"time":48.857094000000004,"velocity":0.3937007874015748},{"duration":0.2857140000000058,"midi":50,"time":48.857094000000004,"velocity":0.3937007874015748},{"duration":0.5714279999999974,"midi":69,"time":48.857094000000004,"velocity":0.3937007874015748},{"duration":0.5714279999999974,"midi":65,"time":48.857094000000004,"velocity":0.3937007874015748},{"duration":0.14285699999999224,"midi":38,"time":49.14280800000001,"velocity":0.3937007874015748},{"duration":0.14285699999999224,"midi":50,"time":49.14280800000001,"velocity":0.3937007874015748},{"duration":0.2857140000000058,"midi":38,"time":49.285665,"velocity":0.3937007874015748},{"duration":0.2857140000000058,"midi":50,"time":49.285665,"velocity":0.3937007874015748},{"duration":0.14285700000000645,"midi":67,"time":49.428522,"velocity":0.3937007874015748},{"duration":0.14285699999999935,"midi":65,"time":49.57137900000001,"velocity":0.3937007874015748},{"duration":0.14285699999999935,"midi":38,"time":49.57137900000001,"velocity":0.3937007874015748},{"duration":0.14285699999999935,"midi":50,"time":49.57137900000001,"velocity":0.3937007874015748},{"duration":0.2857139999999987,"midi":64,"time":49.71423600000001,"velocity":0.3937007874015748},{"duration":0.2857139999999987,"midi":33,"time":49.71423600000001,"velocity":0.3937007874015748},{"duration":0.2857139999999987,"midi":61,"time":49.71423600000001,"velocity":0.3937007874015748},{"duration":0.2857139999999987,"midi":45,"time":49.71423600000001,"velocity":0.3937007874015748},{"duration":0.14285699999999935,"midi":33,"time":49.999950000000005,"velocity":0.3937007874015748},{"duration":0.14285699999999935,"midi":45,"time":49.999950000000005,"velocity":0.3937007874015748},{"duration":0.2857139999999987,"midi":61,"time":49.999950000000005,"velocity":0.3937007874015748},{"duration":0.2857139999999987,"midi":65,"time":49.999950000000005,"velocity":0.3937007874015748},{"duration":0.2857139999999987,"midi":45,"time":50.142807000000005,"velocity":0.3937007874015748},{"duration":0.2857139999999987,"midi":33,"time":50.142807000000005,"velocity":0.3937007874015748},{"duration":0.2857139999999987,"midi":64,"time":50.285664000000004,"velocity":0.3937007874015748},{"duration":0.2857139999999987,"midi":61,"time":50.285664000000004,"velocity":0.3937007874015748},{"duration":0.14285699999999935,"midi":33,"time":50.428521,"velocity":0.3937007874015748},{"duration":0.14285699999999935,"midi":45,"time":50.428521,"velocity":0.3937007874015748},{"duration":0.2857140000000058,"midi":57,"time":50.571378,"velocity":0.3937007874015748},{"duration":0.2857140000000058,"midi":53,"time":50.571378,"velocity":0.3937007874015748},{"duration":0.2857140000000058,"midi":50,"time":50.571378,"velocity":0.3937007874015748},{"duration":0.2857140000000058,"midi":62,"time":50.571378,"velocity":0.3937007874015748},{"duration":0.2857140000000058,"midi":38,"time":50.571378,"velocity":0.3937007874015748},{"duration":0.14285699999999224,"midi":38,"time":50.85709200000001,"velocity":0.3937007874015748},{"duration":0.14285699999999224,"midi":50,"time":50.85709200000001,"velocity":0.3937007874015748},{"duration":0.2857140000000058,"midi":38,"time":50.999949,"velocity":0.3937007874015748},{"duration":0.2857140000000058,"midi":50,"time":50.999949,"velocity":0.3937007874015748},{"duration":0.14285700000000645,"midi":64,"time":51.142806,"velocity":0.3937007874015748},{"duration":0.14285699999999935,"midi":38,"time":51.28566300000001,"velocity":0.3937007874015748},{"duration":0.14285699999999935,"midi":50,"time":51.28566300000001,"velocity":0.3937007874015748},{"duration":0.14285699999999935,"midi":60,"time":51.28566300000001,"velocity":0.3937007874015748},{"duration":0.2857139999999987,"midi":57,"time":51.428520000000006,"velocity":0.3937007874015748},{"duration":0.2857139999999987,"midi":38,"time":51.428520000000006,"velocity":0.3937007874015748},{"duration":0.2857139999999987,"midi":50,"time":51.428520000000006,"velocity":0.3937007874015748},{"duration":0.2857139999999987,"midi":53,"time":51.428520000000006,"velocity":0.3937007874015748},{"duration":0.2857139999999987,"midi":62,"time":51.428520000000006,"velocity":0.3937007874015748},{"duration":0.14285699999999935,"midi":50,"time":51.714234000000005,"velocity":0.3937007874015748},{"duration":0.14285699999999935,"midi":38,"time":51.714234000000005,"velocity":0.3937007874015748},{"duration":0.2857140000000058,"midi":38,"time":51.857091000000004,"velocity":0.3937007874015748},{"duration":0.2857140000000058,"midi":50,"time":51.857091000000004,"velocity":0.3937007874015748},{"duration":0.14285700000000645,"midi":74,"time":51.999948,"velocity":0.3937007874015748},{"duration":0.14285699999999224,"midi":38,"time":52.14280500000001,"velocity":0.3937007874015748},{"duration":0.14285699999999224,"midi":76,"time":52.14280500000001,"velocity":0.3937007874015748},{"duration":0.14285699999999224,"midi":50,"time":52.14280500000001,"velocity":0.3937007874015748},{"duration":0.2857140000000058,"midi":38,"time":52.285662,"velocity":0.3937007874015748},{"duration":0.5714279999999974,"midi":77,"time":52.285662,"velocity":0.3937007874015748},{"duration":0.5714279999999974,"midi":74,"time":52.285662,"velocity":0.3937007874015748},{"duration":0.2857140000000058,"midi":50,"time":52.285662,"velocity":0.3937007874015748},{"duration":0.5714279999999974,"midi":69,"time":52.285662,"velocity":0.3937007874015748},{"duration":0.14285699999999935,"midi":50,"time":52.57137600000001,"velocity":0.3937007874015748},{"duration":0.14285699999999935,"midi":38,"time":52.57137600000001,"velocity":0.3937007874015748},{"duration":0.2857139999999987,"midi":50,"time":52.71423300000001,"velocity":0.3937007874015748},{"duration":0.2857139999999987,"midi":38,"time":52.71423300000001,"velocity":0.3937007874015748},{"duration":0.14285700000000645,"midi":76,"time":52.85709,"velocity":0.3937007874015748},{"duration":0.14285699999999935,"midi":50,"time":52.999947000000006,"velocity":0.3937007874015748},{"duration":0.14285699999999935,"midi":38,"time":52.999947000000006,"velocity":0.3937007874015748},{"duration":0.14285699999999935,"midi":77,"time":52.999947000000006,"velocity":0.3937007874015748},{"duration":0.2857139999999987,"midi":72,"time":53.142804000000005,"velocity":0.3937007874015748},{"duration":0.2857139999999987,"midi":79,"time":53.142804000000005,"velocity":0.3937007874015748},{"duration":0.2857139999999987,"midi":48,"time":53.142804000000005,"velocity":0.3937007874015748},{"duration":0.2857139999999987,"midi":36,"time":53.142804000000005,"velocity":0.3937007874015748},{"duration":0.2857139999999987,"midi":67,"time":53.142804000000005,"velocity":0.3937007874015748},{"duration":0.14285699999999935,"midi":36,"time":53.428518000000004,"velocity":0.3937007874015748},{"duration":0.2857139999999987,"midi":77,"time":53.428518000000004,"velocity":0.3937007874015748},{"duration":0.2857139999999987,"midi":67,"time":53.428518000000004,"velocity":0.3937007874015748},{"duration":0.2857139999999987,"midi":72,"time":53.428518000000004,"velocity":0.3937007874015748},{"duration":0.14285699999999935,"midi":48,"time":53.428518000000004,"velocity":0.3937007874015748},{"duration":0.2857140000000058,"midi":48,"time":53.571375,"velocity":0.3937007874015748},{"duration":0.2857140000000058,"midi":36,"time":53.571375,"velocity":0.3937007874015748},{"duration":0.2857139999999987,"midi":67,"time":53.714232,"velocity":0.3937007874015748},{"duration":0.2857139999999987,"midi":72,"time":53.714232,"velocity":0.3937007874015748},{"duration":0.2857139999999987,"midi":79,"time":53.714232,"velocity":0.3937007874015748},{"duration":0.14285699999999224,"midi":48,"time":53.85708900000001,"velocity":0.3937007874015748},{"duration":0.14285699999999224,"midi":36,"time":53.85708900000001,"velocity":0.3937007874015748},{"duration":0.2857140000000058,"midi":53,"time":53.999946,"velocity":0.3937007874015748},{"duration":0.2857140000000058,"midi":41,"time":53.999946,"velocity":0.3937007874015748},{"duration":0.2857140000000058,"midi":77,"time":53.999946,"velocity":0.3937007874015748},{"duration":0.2857140000000058,"midi":81,"time":53.999946,"velocity":0.3937007874015748},{"duration":0.14285699999999935,"midi":53,"time":54.28566000000001,"velocity":0.3937007874015748},{"duration":0.2857139999999987,"midi":79,"time":54.28566000000001,"velocity":0.3937007874015748},{"duration":0.2857139999999987,"midi":72,"time":54.28566000000001,"velocity":0.3937007874015748},{"duration":0.14285699999999935,"midi":41,"time":54.28566000000001,"velocity":0.3937007874015748},{"duration":0.2857139999999987,"midi":41,"time":54.42851700000001,"velocity":0.3937007874015748},{"duration":0.2857139999999987,"midi":53,"time":54.42851700000001,"velocity":0.3937007874015748},{"duration":0.2857139999999987,"midi":72,"time":54.571374000000006,"velocity":0.3937007874015748},{"duration":0.2857139999999987,"midi":77,"time":54.571374000000006,"velocity":0.3937007874015748},{"duration":0.14285699999999935,"midi":53,"time":54.714231000000005,"velocity":0.3937007874015748},{"duration":0.14285699999999935,"midi":41,"time":54.714231000000005,"velocity":0.3937007874015748},{"duration":0.2857139999999987,"midi":34,"time":54.857088000000005,"velocity":0.3937007874015748},{"duration":0.2857139999999987,"midi":70,"time":54.857088000000005,"velocity":0.3937007874015748},{"duration":0.2857139999999987,"midi":46,"time":54.857088000000005,"velocity":0.3937007874015748},{"duration":0.2857139999999987,"midi":74,"time":54.857088000000005,"velocity":0.3937007874015748},{"duration":0.2857139999999987,"midi":65,"time":54.857088000000005,"velocity":0.3937007874015748},{"duration":0.14285699999999935,"midi":34,"time":55.142802,"velocity":0.3937007874015748},{"duration":0.14285699999999935,"midi":46,"time":55.142802,"velocity":0.3937007874015748},{"duration":0.2857139999999987,"midi":46,"time":55.285659,"velocity":0.3937007874015748},{"duration":0.2857139999999987,"midi":34,"time":55.285659,"velocity":0.3937007874015748},{"duration":0.14285699999999224,"midi":74,"time":55.42851600000001,"velocity":0.3937007874015748},{"duration":0.14285700000000645,"midi":76,"time":55.571373,"velocity":0.3937007874015748},{"duration":0.14285700000000645,"midi":34,"time":55.571373,"velocity":0.3937007874015748},{"duration":0.14285700000000645,"midi":46,"time":55.571373,"velocity":0.3937007874015748},{"duration":0.2857139999999916,"midi":77,"time":55.71423000000001,"velocity":0.3937007874015748},{"duration":0.2857139999999916,"midi":38,"time":55.71423000000001,"velocity":0.3937007874015748},{"duration":0.2857139999999916,"midi":74,"time":55.71423000000001,"velocity":0.3937007874015748},{"duration":0.2857139999999916,"midi":69,"time":55.71423000000001,"velocity":0.3937007874015748},{"duration":0.2857139999999916,"midi":50,"time":55.71423000000001,"velocity":0.3937007874015748},{"duration":0.14285700000000645,"midi":50,"time":55.999944,"velocity":0.3937007874015748},{"duration":0.14285700000000645,"midi":38,"time":55.999944,"velocity":0.3937007874015748},{"duration":0.2857140000000129,"midi":74,"time":55.999944,"velocity":0.3937007874015748},{"duration":0.2857140000000129,"midi":69,"time":55.999944,"velocity":0.3937007874015748},{"duration":0.2857140000000129,"midi":79,"time":55.999944,"velocity":0.3937007874015748},{"duration":0.2857139999999916,"midi":38,"time":56.142801000000006,"velocity":0.3937007874015748},{"duration":0.2857139999999916,"midi":50,"time":56.142801000000006,"velocity":0.3937007874015748},{"duration":0.2857139999999916,"midi":81,"time":56.28565800000001,"velocity":0.3937007874015748},{"duration":0.2857139999999916,"midi":74,"time":56.28565800000001,"velocity":0.3937007874015748},{"duration":0.14285700000000645,"midi":38,"time":56.428515,"velocity":0.3937007874015748},{"duration":0.14285700000000645,"midi":50,"time":56.428515,"velocity":0.3937007874015748},{"duration":0.2857139999999987,"midi":82,"time":56.571372000000004,"velocity":0.3937007874015748},{"duration":0.2857139999999987,"midi":70,"time":56.571372000000004,"velocity":0.3937007874015748},{"duration":0.2857139999999987,"midi":46,"time":56.571372000000004,"velocity":0.3937007874015748},{"duration":0.2857139999999987,"midi":34,"time":56.571372000000004,"velocity":0.3937007874015748},{"duration":0.2857139999999987,"midi":74,"time":56.571372000000004,"velocity":0.3937007874015748},{"duration":0.2857140000000058,"midi":70,"time":56.857086,"velocity":0.3937007874015748},{"duration":0.2857140000000058,"midi":74,"time":56.857086,"velocity":0.3937007874015748},{"duration":0.14285699999999935,"midi":34,"time":56.857086,"velocity":0.3937007874015748},{"duration":0.14285699999999935,"midi":46,"time":56.857086,"velocity":0.3937007874015748},{"duration":0.2857139999999987,"midi":46,"time":56.999943,"velocity":0.3937007874015748},{"duration":0.2857139999999987,"midi":34,"time":56.999943,"velocity":0.3937007874015748},{"duration":0.2857139999999987,"midi":79,"time":57.14280000000001,"velocity":0.3937007874015748},{"duration":0.2857139999999987,"midi":74,"time":57.14280000000001,"velocity":0.3937007874015748},{"duration":0.14285700000000645,"midi":34,"time":57.285657,"velocity":0.3937007874015748},{"duration":0.14285700000000645,"midi":46,"time":57.285657,"velocity":0.3937007874015748},{"duration":0.2857139999999916,"midi":33,"time":57.42851400000001,"velocity":0.3937007874015748},{"duration":0.2857139999999916,"midi":69,"time":57.42851400000001,"velocity":0.3937007874015748},{"duration":0.2857139999999916,"midi":77,"time":57.42851400000001,"velocity":0.3937007874015748},{"duration":0.2857139999999916,"midi":45,"time":57.42851400000001,"velocity":0.3937007874015748},{"duration":0.14285700000000645,"midi":33,"time":57.714228,"velocity":0.3937007874015748},{"duration":0.14285700000000645,"midi":45,"time":57.714228,"velocity":0.3937007874015748},{"duration":0.2857139999999987,"midi":33,"time":57.857085000000005,"velocity":0.3937007874015748},{"duration":0.2857139999999987,"midi":45,"time":57.857085000000005,"velocity":0.3937007874015748},{"duration":0.14285699999999224,"midi":79,"time":57.99994200000001,"velocity":0.3937007874015748},{"duration":0.14285699999999935,"midi":76,"time":58.142799000000004,"velocity":0.3937007874015748},{"duration":0.14285699999999935,"midi":33,"time":58.142799000000004,"velocity":0.3937007874015748},{"duration":0.14285699999999935,"midi":45,"time":58.142799000000004,"velocity":0.3937007874015748},{"duration":0.2857139999999987,"midi":74,"time":58.285656,"velocity":0.3937007874015748},{"duration":0.2857139999999987,"midi":33,"time":58.285656,"velocity":0.3937007874015748},{"duration":0.2857139999999987,"midi":69,"time":58.285656,"velocity":0.3937007874015748},{"duration":0.2857139999999987,"midi":45,"time":58.285656,"velocity":0.3937007874015748},{"duration":0.14285700000000645,"midi":33,"time":58.57137,"velocity":0.3937007874015748},{"duration":0.14285700000000645,"midi":45,"time":58.57137,"velocity":0.3937007874015748},{"duration":0.2857139999999916,"midi":33,"time":58.71422700000001,"velocity":0.3937007874015748},{"duration":0.2857139999999916,"midi":45,"time":58.71422700000001,"velocity":0.3937007874015748},{"duration":0.14285699999999224,"midi":76,"time":58.85708400000001,"velocity":0.3937007874015748},{"duration":0.14285700000000645,"midi":45,"time":58.999941,"velocity":0.3937007874015748},{"duration":0.14285700000000645,"midi":33,"time":58.999941,"velocity":0.3937007874015748},{"duration":0.14285700000000645,"midi":73,"time":58.999941,"velocity":0.3937007874015748},{"duration":0.2857139999999916,"midi":38,"time":59.142798000000006,"velocity":0.3937007874015748},{"duration":0.2857139999999916,"midi":50,"time":59.142798000000006,"velocity":0.3937007874015748},{"duration":0.8571419999999961,"midi":74,"time":59.142798000000006,"velocity":0.3937007874015748},{"duration":0.8571419999999961,"midi":81,"time":59.142798000000006,"velocity":0.3937007874015748},{"duration":0.8571419999999961,"midi":77,"time":59.142798000000006,"velocity":0.3937007874015748},{"duration":0.14285700000000645,"midi":38,"time":59.428512,"velocity":0.3937007874015748},{"duration":0.14285700000000645,"midi":50,"time":59.428512,"velocity":0.3937007874015748},{"duration":0.14285700000000645,"midi":50,"time":59.571369000000004,"velocity":0.3937007874015748},{"duration":0.14285700000000645,"midi":38,"time":59.571369000000004,"velocity":0.3937007874015748},{"duration":0.14285699999999224,"midi":50,"time":59.71422600000001,"velocity":0.3937007874015748},{"duration":0.14285699999999224,"midi":38,"time":59.71422600000001,"velocity":0.3937007874015748},{"duration":0.14285699999999935,"midi":50,"time":59.857083,"velocity":0.3937007874015748},{"duration":0.14285699999999935,"midi":38,"time":59.857083,"velocity":0.3937007874015748},{"duration":0.2857139999999987,"midi":31,"time":59.99994,"velocity":0.3937007874015748},{"duration":0.8571420000000032,"midi":74,"time":59.99994,"velocity":0.3937007874015748},{"duration":0.8571420000000032,"midi":77,"time":59.99994,"velocity":0.3937007874015748},{"duration":0.8571420000000032,"midi":82,"time":59.99994,"velocity":0.3937007874015748},{"duration":0.2857139999999987,"midi":43,"time":59.99994,"velocity":0.3937007874015748},{"duration":0.14285700000000645,"midi":43,"time":60.285654,"velocity":0.3937007874015748},{"duration":0.14285700000000645,"midi":31,"time":60.285654,"velocity":0.3937007874015748},{"duration":0.14285699999999935,"midi":31,"time":60.42851100000001,"velocity":0.3937007874015748},{"duration":0.14285699999999935,"midi":43,"time":60.42851100000001,"velocity":0.3937007874015748},{"duration":0.14285699999999224,"midi":43,"time":60.57136800000001,"velocity":0.3937007874015748},{"duration":0.14285699999999224,"midi":31,"time":60.57136800000001,"velocity":0.3937007874015748},{"duration":0.14285700000000645,"midi":43,"time":60.714225,"velocity":0.3937007874015748},{"duration":0.14285700000000645,"midi":31,"time":60.714225,"velocity":0.3937007874015748},{"duration":0.2857139999999987,"midi":72,"time":60.857082000000005,"velocity":0.3937007874015748},{"duration":0.2857139999999987,"midi":41,"time":60.857082000000005,"velocity":0.3937007874015748},{"duration":0.2857139999999987,"midi":53,"time":60.857082000000005,"velocity":0.3937007874015748},{"duration":0.2857139999999987,"midi":81,"time":60.857082000000005,"velocity":0.3937007874015748},{"duration":0.2857139999999987,"midi":77,"time":60.857082000000005,"velocity":0.3937007874015748},{"duration":0.2857140000000058,"midi":77,"time":61.142796000000004,"velocity":0.3937007874015748},{"duration":0.14285699999999935,"midi":53,"time":61.142796000000004,"velocity":0.3937007874015748},{"duration":0.2857140000000058,"midi":72,"time":61.142796000000004,"velocity":0.3937007874015748},{"duration":0.2857140000000058,"midi":81,"time":61.142796000000004,"velocity":0.3937007874015748},{"duration":0.14285699999999935,"midi":41,"time":61.142796000000004,"velocity":0.3937007874015748},{"duration":0.14285700000000645,"midi":41,"time":61.285653,"velocity":0.3937007874015748},{"duration":0.14285700000000645,"midi":53,"time":61.285653,"velocity":0.3937007874015748},{"duration":0.14285699999999224,"midi":53,"time":61.42851000000001,"velocity":0.3937007874015748},{"duration":0.14285699999999224,"midi":41,"time":61.42851000000001,"velocity":0.3937007874015748},{"duration":0.2857139999999916,"midi":77,"time":61.42851000000001,"velocity":0.3937007874015748},{"duration":0.2857139999999916,"midi":81,"time":61.42851000000001,"velocity":0.3937007874015748},{"duration":0.2857139999999916,"midi":72,"time":61.42851000000001,"velocity":0.3937007874015748},{"duration":0.14285699999999935,"midi":53,"time":61.571367,"velocity":0.3937007874015748},{"duration":0.14285699999999935,"midi":41,"time":61.571367,"velocity":0.3937007874015748},{"duration":0.2857139999999987,"midi":36,"time":61.714224,"velocity":0.3937007874015748},{"duration":0.2857139999999987,"midi":48,"time":61.714224,"velocity":0.3937007874015748},{"duration":0.14285700000000645,"midi":72,"time":61.714224,"velocity":0.3937007874015748},{"duration":0.14285700000000645,"midi":77,"time":61.714224,"velocity":0.3937007874015748},{"duration":0.14285700000000645,"midi":81,"time":61.714224,"velocity":0.3937007874015748},{"duration":0.2857139999999987,"midi":72,"time":61.85708100000001,"velocity":0.3937007874015748},{"duration":0.2857139999999987,"midi":76,"time":61.85708100000001,"velocity":0.3937007874015748},{"duration":0.2857139999999987,"midi":79,"time":61.85708100000001,"velocity":0.3937007874015748},{"duration":0.14285700000000645,"midi":36,"time":61.999938,"velocity":0.3937007874015748},{"duration":0.14285700000000645,"midi":48,"time":61.999938,"velocity":0.3937007874015748},{"duration":0.14285699999999935,"midi":48,"time":62.14279500000001,"velocity":0.3937007874015748},{"duration":0.14285699999999935,"midi":36,"time":62.14279500000001,"velocity":0.3937007874015748},{"duration":0.14285699999999224,"midi":36,"time":62.285652000000006,"velocity":0.3937007874015748},{"duration":0.14285699999999224,"midi":48,"time":62.285652000000006,"velocity":0.3937007874015748},{"duration":0.14285700000000645,"midi":36,"time":62.428509,"velocity":0.3937007874015748},{"duration":0.14285700000000645,"midi":48,"time":62.428509,"velocity":0.3937007874015748},{"duration":0.2857139999999987,"midi":31,"time":62.571366000000005,"velocity":0.3937007874015748},{"duration":0.2857139999999987,"midi":43,"time":62.571366000000005,"velocity":0.3937007874015748},{"duration":0.8571420000000032,"midi":70,"time":62.571366000000005,"velocity":0.3937007874015748},{"duration":0.8571420000000032,"midi":79,"time":62.571366000000005,"velocity":0.3937007874015748},{"duration":0.8571420000000032,"midi":74,"time":62.571366000000005,"velocity":0.3937007874015748},{"duration":0.14285699999999935,"midi":31,"time":62.85708,"velocity":0.3937007874015748},{"duration":0.14285699999999935,"midi":43,"time":62.85708,"velocity":0.3937007874015748},{"duration":0.14285700000000645,"midi":43,"time":62.999937,"velocity":0.3937007874015748},{"duration":0.14285700000000645,"midi":31,"time":62.999937,"velocity":0.3937007874015748},{"duration":0.14285699999999224,"midi":31,"time":63.14279400000001,"velocity":0.3937007874015748},{"duration":0.14285699999999224,"midi":43,"time":63.14279400000001,"velocity":0.3937007874015748},{"duration":0.14285700000000645,"midi":43,"time":63.285651,"velocity":0.3937007874015748},{"duration":0.14285700000000645,"midi":31,"time":63.285651,"velocity":0.3937007874015748},{"duration":0.8571419999999961,"midi":69,"time":63.42850800000001,"velocity":0.3937007874015748},{"duration":0.8571419999999961,"midi":74,"time":63.42850800000001,"velocity":0.3937007874015748},{"duration":0.8571419999999961,"midi":77,"time":63.42850800000001,"velocity":0.3937007874015748},{"duration":0.2857139999999916,"midi":33,"time":63.42850800000001,"velocity":0.3937007874015748},{"duration":0.2857139999999916,"midi":45,"time":63.42850800000001,"velocity":0.3937007874015748},{"duration":0.14285700000000645,"midi":45,"time":63.714222,"velocity":0.3937007874015748},{"duration":0.14285700000000645,"midi":33,"time":63.714222,"velocity":0.3937007874015748},{"duration":0.14285700000000645,"midi":33,"time":63.857079000000006,"velocity":0.3937007874015748},{"duration":0.14285700000000645,"midi":45,"time":63.857079000000006,"velocity":0.3937007874015748},{"duration":0.14285699999998513,"midi":45,"time":63.99993600000001,"velocity":0.3937007874015748},{"duration":0.14285699999998513,"midi":33,"time":63.99993600000001,"velocity":0.3937007874015748},{"duration":0.14285700000000645,"midi":45,"time":64.142793,"velocity":0.3937007874015748},{"duration":0.14285700000000645,"midi":33,"time":64.142793,"velocity":0.3937007874015748},{"duration":0.2857139999999987,"midi":76,"time":64.28565,"velocity":0.3937007874015748},{"duration":0.2857139999999987,"midi":73,"time":64.28565,"velocity":0.3937007874015748},{"duration":0.2857139999999987,"midi":33,"time":64.28565,"velocity":0.3937007874015748},{"duration":0.2857139999999987,"midi":45,"time":64.28565,"velocity":0.3937007874015748},{"duration":0.2857139999999987,"midi":69,"time":64.28565,"velocity":0.3937007874015748},{"duration":0.14285700000000645,"midi":45,"time":64.571364,"velocity":0.3937007874015748},{"duration":0.2857140000000129,"midi":73,"time":64.571364,"velocity":0.3937007874015748},{"duration":0.2857140000000129,"midi":69,"time":64.571364,"velocity":0.3937007874015748},{"duration":0.14285700000000645,"midi":33,"time":64.571364,"velocity":0.3937007874015748},{"duration":0.2857140000000129,"midi":77,"time":64.571364,"velocity":0.3937007874015748},{"duration":0.14285700000000645,"midi":45,"time":64.71422100000001,"velocity":0.3937007874015748},{"duration":0.14285700000000645,"midi":33,"time":64.71422100000001,"velocity":0.3937007874015748},{"duration":0.14285699999999224,"midi":33,"time":64.85707800000002,"velocity":0.3937007874015748},{"duration":0.2857139999999845,"midi":73,"time":64.85707800000002,"velocity":0.3937007874015748},{"duration":0.14285699999999224,"midi":45,"time":64.85707800000002,"velocity":0.3937007874015748},{"duration":0.2857139999999845,"midi":69,"time":64.85707800000002,"velocity":0.3937007874015748},{"duration":0.2857139999999845,"midi":76,"time":64.85707800000002,"velocity":0.3937007874015748},{"duration":0.14285699999999224,"midi":33,"time":64.99993500000001,"velocity":0.3937007874015748},{"duration":0.14285699999999224,"midi":45,"time":64.99993500000001,"velocity":0.3937007874015748},{"duration":0.14285700000000645,"midi":76,"time":65.142792,"velocity":0.3937007874015748},{"duration":0.2857139999999987,"midi":38,"time":65.142792,"velocity":0.3937007874015748},{"duration":0.2857139999999987,"midi":50,"time":65.142792,"velocity":0.3937007874015748},{"duration":0.42857100000000514,"midi":69,"time":65.142792,"velocity":0.3937007874015748},{"duration":0.2857139999999987,"midi":74,"time":65.285649,"velocity":0.3937007874015748},{"duration":0.14285700000000645,"midi":38,"time":65.428506,"velocity":0.3937007874015748},{"duration":0.14285700000000645,"midi":50,"time":65.428506,"velocity":0.3937007874015748},{"duration":0.14285700000000645,"midi":74,"time":65.571363,"velocity":0.3937007874015748},{"duration":0.14285700000000645,"midi":62,"time":65.571363,"velocity":0.3937007874015748},{"duration":0.14285700000000645,"midi":38,"time":65.571363,"velocity":0.3937007874015748},{"duration":0.14285700000000645,"midi":50,"time":65.571363,"velocity":0.3937007874015748},{"duration":0.14285699999999224,"midi":64,"time":65.71422000000001,"velocity":0.3937007874015748},{"duration":0.14285699999999224,"midi":76,"time":65.71422000000001,"velocity":0.3937007874015748},{"duration":0.14285699999999224,"midi":50,"time":65.71422000000001,"velocity":0.3937007874015748},{"duration":0.14285699999999224,"midi":38,"time":65.71422000000001,"velocity":0.3937007874015748},{"duration":0.14285700000000645,"midi":77,"time":65.857077,"velocity":0.3937007874015748},{"duration":0.14285700000000645,"midi":65,"time":65.857077,"velocity":0.3937007874015748},{"duration":0.14285700000000645,"midi":50,"time":65.857077,"velocity":0.3937007874015748},{"duration":0.14285700000000645,"midi":38,"time":65.857077,"velocity":0.3937007874015748},{"duration":0.42857099999999093,"midi":77,"time":65.99993400000001,"velocity":0.3937007874015748},{"duration":0.42857099999999093,"midi":69,"time":65.99993400000001,"velocity":0.3937007874015748},{"duration":0.42857099999999093,"midi":74,"time":65.99993400000001,"velocity":0.3937007874015748},{"duration":0.42857099999999093,"midi":81,"time":65.99993400000001,"velocity":0.3937007874015748},{"duration":0.2857139999999845,"midi":50,"time":65.99993400000001,"velocity":0.3937007874015748},{"duration":0.2857139999999845,"midi":38,"time":65.99993400000001,"velocity":0.3937007874015748},{"duration":0.14285700000000645,"midi":38,"time":66.285648,"velocity":0.3937007874015748},{"duration":0.14285700000000645,"midi":50,"time":66.285648,"velocity":0.3937007874015748},{"duration":0.14285700000000645,"midi":62,"time":66.428505,"velocity":0.3937007874015748},{"duration":0.14285700000000645,"midi":50,"time":66.428505,"velocity":0.3937007874015748},{"duration":0.14285700000000645,"midi":74,"time":66.428505,"velocity":0.3937007874015748},{"duration":0.14285700000000645,"midi":38,"time":66.428505,"velocity":0.3937007874015748},{"duration":0.14285699999999224,"midi":64,"time":66.57136200000001,"velocity":0.3937007874015748},{"duration":0.14285699999999224,"midi":76,"time":66.57136200000001,"velocity":0.3937007874015748},{"duration":0.14285699999999224,"midi":50,"time":66.57136200000001,"velocity":0.3937007874015748},{"duration":0.14285699999999224,"midi":38,"time":66.57136200000001,"velocity":0.3937007874015748},{"duration":0.14285700000000645,"midi":38,"time":66.714219,"velocity":0.3937007874015748},{"duration":0.14285700000000645,"midi":50,"time":66.714219,"velocity":0.3937007874015748},{"duration":0.14285700000000645,"midi":65,"time":66.714219,"velocity":0.3937007874015748},{"duration":0.14285700000000645,"midi":77,"time":66.714219,"velocity":0.3937007874015748},{"duration":0.42857100000000514,"midi":74,"time":66.857076,"velocity":0.3937007874015748},{"duration":0.2857139999999987,"midi":46,"time":66.857076,"velocity":0.3937007874015748},{"duration":0.2857139999999987,"midi":34,"time":66.857076,"velocity":0.3937007874015748},{"duration":0.42857100000000514,"midi":82,"time":66.857076,"velocity":0.3937007874015748},{"duration":0.42857100000000514,"midi":77,"time":66.857076,"velocity":0.3937007874015748},{"duration":0.42857100000000514,"midi":70,"time":66.857076,"velocity":0.3937007874015748},{"duration":0.14285700000000645,"midi":46,"time":67.14279,"velocity":0.3937007874015748},{"duration":0.14285700000000645,"midi":34,"time":67.14279,"velocity":0.3937007874015748},{"duration":0.14285699999999224,"midi":62,"time":67.28564700000001,"velocity":0.3937007874015748},{"duration":0.14285699999999224,"midi":46,"time":67.28564700000001,"velocity":0.3937007874015748},{"duration":0.14285699999999224,"midi":74,"time":67.28564700000001,"velocity":0.3937007874015748},{"duration":0.14285699999999224,"midi":34,"time":67.28564700000001,"velocity":0.3937007874015748},{"duration":0.14285699999999224,"midi":46,"time":67.428504,"velocity":0.3937007874015748},{"duration":0.14285699999999224,"midi":76,"time":67.428504,"velocity":0.3937007874015748},{"duration":0.14285699999999224,"midi":34,"time":67.428504,"velocity":0.3937007874015748},{"duration":0.14285699999999224,"midi":64,"time":67.428504,"velocity":0.3937007874015748},{"duration":0.14285700000000645,"midi":77,"time":67.571361,"velocity":0.3937007874015748},{"duration":0.14285700000000645,"midi":46,"time":67.571361,"velocity":0.3937007874015748},{"duration":0.14285700000000645,"midi":34,"time":67.571361,"velocity":0.3937007874015748},{"duration":0.14285700000000645,"midi":65,"time":67.571361,"velocity":0.3937007874015748},{"duration":0.2857139999999987,"midi":81,"time":67.714218,"velocity":0.3937007874015748},{"duration":0.2857139999999987,"midi":72,"time":67.714218,"velocity":0.3937007874015748},{"duration":0.2857139999999987,"midi":41,"time":67.714218,"velocity":0.3937007874015748},{"duration":0.2857139999999987,"midi":53,"time":67.714218,"velocity":0.3937007874015748},{"duration":0.2857139999999987,"midi":69,"time":67.714218,"velocity":0.3937007874015748},{"duration":0.2857139999999987,"midi":77,"time":67.714218,"velocity":0.3937007874015748},{"duration":0.2857140000000129,"midi":77,"time":67.999932,"velocity":0.3937007874015748},{"duration":0.2857140000000129,"midi":81,"time":67.999932,"velocity":0.3937007874015748},{"duration":0.14285700000000645,"midi":53,"time":67.999932,"velocity":0.3937007874015748},{"duration":0.2857140000000129,"midi":69,"time":67.999932,"velocity":0.3937007874015748},{"duration":0.14285700000000645,"midi":41,"time":67.999932,"velocity":0.3937007874015748},{"duration":0.2857140000000129,"midi":72,"time":67.999932,"velocity":0.3937007874015748},{"duration":0.14285700000000645,"midi":53,"time":68.14278900000001,"velocity":0.3937007874015748},{"duration":0.14285700000000645,"midi":41,"time":68.14278900000001,"velocity":0.3937007874015748},{"duration":0.14285699999999224,"midi":41,"time":68.28564600000001,"velocity":0.3937007874015748},{"duration":0.2857139999999845,"midi":72,"time":68.28564600000001,"velocity":0.3937007874015748},{"duration":0.14285699999999224,"midi":53,"time":68.28564600000001,"velocity":0.3937007874015748},{"duration":0.2857139999999845,"midi":84,"time":68.28564600000001,"velocity":0.3937007874015748},{"duration":0.2857139999999845,"midi":77,"time":68.28564600000001,"velocity":0.3937007874015748},{"duration":0.2857139999999845,"midi":81,"time":68.28564600000001,"velocity":0.3937007874015748},{"duration":0.14285699999999224,"midi":41,"time":68.428503,"velocity":0.3937007874015748},{"duration":0.14285699999999224,"midi":53,"time":68.428503,"velocity":0.3937007874015748},{"duration":0.14285700000000645,"midi":72,"time":68.57136,"velocity":0.3937007874015748},{"duration":0.14285700000000645,"midi":77,"time":68.57136,"velocity":0.3937007874015748},{"duration":0.14285700000000645,"midi":69,"time":68.57136,"velocity":0.3937007874015748},{"duration":0.14285700000000645,"midi":81,"time":68.57136,"velocity":0.3937007874015748},{"duration":0.2857139999999987,"midi":36,"time":68.57136,"velocity":0.3937007874015748},{"duration":0.2857139999999987,"midi":48,"time":68.57136,"velocity":0.3937007874015748},{"duration":0.14285699999999224,"midi":67,"time":68.714217,"velocity":0.3937007874015748},{"duration":0.14285699999999224,"midi":79,"time":68.714217,"velocity":0.3937007874015748},{"duration":0.14285700000000645,"midi":36,"time":68.857074,"velocity":0.3937007874015748},{"duration":0.14285700000000645,"midi":48,"time":68.857074,"velocity":0.3937007874015748},{"duration":0.14285700000000645,"midi":48,"time":68.999931,"velocity":0.3937007874015748},{"duration":0.14285700000000645,"midi":36,"time":68.999931,"velocity":0.3937007874015748},{"duration":0.14285699999999224,"midi":36,"time":69.14278800000001,"velocity":0.3937007874015748},{"duration":0.14285699999999224,"midi":48,"time":69.14278800000001,"velocity":0.3937007874015748},{"duration":0.14285700000000645,"midi":48,"time":69.285645,"velocity":0.3937007874015748},{"duration":0.14285700000000645,"midi":36,"time":69.285645,"velocity":0.3937007874015748},{"duration":0.2857139999999987,"midi":43,"time":69.42850200000001,"velocity":0.3937007874015748},{"duration":0.8571419999999961,"midi":70,"time":69.42850200000001,"velocity":0.3937007874015748},{"duration":0.8571419999999961,"midi":67,"time":69.42850200000001,"velocity":0.3937007874015748},{"duration":0.2857139999999987,"midi":31,"time":69.42850200000001,"velocity":0.3937007874015748},{"duration":0.8571419999999961,"midi":79,"time":69.42850200000001,"velocity":0.3937007874015748},{"duration":0.8571419999999961,"midi":74,"time":69.42850200000001,"velocity":0.3937007874015748},{"duration":0.14285699999999224,"midi":31,"time":69.71421600000001,"velocity":0.3937007874015748},{"duration":0.14285699999999224,"midi":43,"time":69.71421600000001,"velocity":0.3937007874015748},{"duration":0.2857139999999987,"midi":31,"time":69.857073,"velocity":0.3937007874015748},{"duration":0.14285700000000645,"midi":43,"time":69.857073,"velocity":0.3937007874015748},{"duration":0.14285699999999224,"midi":55,"time":69.99993,"velocity":0.3937007874015748},{"duration":0.14285699999999224,"midi":43,"time":69.99993,"velocity":0.3937007874015748},{"duration":0.14285700000000645,"midi":43,"time":70.142787,"velocity":0.3937007874015748},{"duration":0.14285700000000645,"midi":31,"time":70.142787,"velocity":0.3937007874015748},{"duration":0.8571419999999961,"midi":77,"time":70.285644,"velocity":0.3937007874015748},{"duration":0.8571419999999961,"midi":65,"time":70.285644,"velocity":0.3937007874015748},{"duration":0.8571419999999961,"midi":74,"time":70.285644,"velocity":0.3937007874015748},{"duration":0.2857139999999987,"midi":45,"time":70.285644,"velocity":0.3937007874015748},{"duration":0.8571419999999961,"midi":69,"time":70.285644,"velocity":0.3937007874015748},{"duration":0.2857139999999987,"midi":33,"time":70.285644,"velocity":0.3937007874015748},{"duration":0.14285700000000645,"midi":33,"time":70.571358,"velocity":0.3937007874015748},{"duration":0.14285700000000645,"midi":45,"time":70.571358,"velocity":0.3937007874015748},{"duration":0.2857139999999987,"midi":33,"time":70.71421500000001,"velocity":0.3937007874015748},{"duration":0.14285700000000645,"midi":45,"time":70.71421500000001,"velocity":0.3937007874015748},{"duration":0.14285699999999224,"midi":45,"time":70.85707200000002,"velocity":0.3937007874015748},{"duration":0.14285699999999224,"midi":45,"time":70.99992900000001,"velocity":0.3937007874015748},{"duration":0.14285699999999224,"midi":33,"time":70.99992900000001,"velocity":0.3937007874015748},{"duration":0.2857139999999987,"midi":76,"time":71.142786,"velocity":0.3937007874015748},{"duration":0.2857139999999987,"midi":33,"time":71.142786,"velocity":0.3937007874015748},{"duration":0.2857139999999987,"midi":73,"time":71.142786,"velocity":0.3937007874015748},{"duration":0.2857139999999987,"midi":64,"time":71.142786,"velocity":0.3937007874015748},{"duration":0.2857139999999987,"midi":45,"time":71.142786,"velocity":0.3937007874015748},{"duration":0.2857139999999987,"midi":69,"time":71.142786,"velocity":0.3937007874015748},{"duration":0.2857140000000129,"midi":77,"time":71.4285,"velocity":0.3937007874015748},{"duration":0.2857140000000129,"midi":65,"time":71.4285,"velocity":0.3937007874015748},{"duration":0.14285700000000645,"midi":33,"time":71.4285,"velocity":0.3937007874015748},{"duration":0.2857140000000129,"midi":69,"time":71.4285,"velocity":0.3937007874015748},{"duration":0.14285700000000645,"midi":45,"time":71.4285,"velocity":0.3937007874015748},{"duration":0.2857140000000129,"midi":73,"time":71.4285,"velocity":0.3937007874015748},{"duration":0.2857139999999987,"midi":33,"time":71.571357,"velocity":0.3937007874015748},{"duration":0.14285700000000645,"midi":45,"time":71.571357,"velocity":0.3937007874015748},{"duration":0.14285699999999224,"midi":45,"time":71.71421400000001,"velocity":0.3937007874015748},{"duration":0.2857139999999987,"midi":69,"time":71.71421400000001,"velocity":0.3937007874015748},{"duration":0.2857139999999987,"midi":64,"time":71.71421400000001,"velocity":0.3937007874015748},{"duration":0.2857139999999987,"midi":73,"time":71.71421400000001,"velocity":0.3937007874015748},{"duration":0.2857139999999987,"midi":76,"time":71.71421400000001,"velocity":0.3937007874015748},{"duration":0.14285700000000645,"midi":45,"time":71.857071,"velocity":0.3937007874015748},{"duration":0.14285700000000645,"midi":33,"time":71.857071,"velocity":0.3937007874015748},{"duration":0.42857099999999093,"midi":74,"time":71.99992800000001,"velocity":0.3937007874015748},{"duration":0.42857099999999093,"midi":62,"time":71.99992800000001,"velocity":0.3937007874015748},{"duration":0.42857099999999093,"midi":69,"time":71.99992800000001,"velocity":0.3937007874015748},{"duration":0.2857139999999845,"midi":38,"time":71.99992800000001,"velocity":0.3937007874015748},{"duration":0.42857099999999093,"midi":65,"time":71.99992800000001,"velocity":0.3937007874015748},{"duration":0.2857139999999845,"midi":50,"time":71.99992800000001,"velocity":0.3937007874015748},{"duration":0.14285700000000645,"midi":50,"time":72.285642,"velocity":0.3937007874015748},{"duration":0.14285700000000645,"midi":38,"time":72.285642,"velocity":0.3937007874015748},{"duration":0.2857139999999987,"midi":50,"time":72.428499,"velocity":0.3937007874015748},{"duration":0.2857139999999987,"midi":38,"time":72.428499,"velocity":0.3937007874015748},{"duration":0.14285699999999224,"midi":57,"time":72.57135600000001,"velocity":0.3937007874015748},{"duration":0.14285700000000645,"midi":50,"time":72.714213,"velocity":0.3937007874015748},{"duration":0.14285700000000645,"midi":38,"time":72.714213,"velocity":0.3937007874015748},{"duration":0.14285700000000645,"midi":60,"time":72.714213,"velocity":0.3937007874015748},{"duration":0.2857139999999987,"midi":50,"time":72.85707000000001,"velocity":0.3937007874015748},{"duration":0.2857139999999987,"midi":38,"time":72.85707000000001,"velocity":0.3937007874015748},{"duration":0.14285700000000645,"midi":62,"time":72.85707000000001,"velocity":0.3937007874015748},{"duration":0.14285700000000645,"midi":57,"time":72.85707000000001,"velocity":0.3937007874015748},{"duration":0.14285700000000645,"midi":53,"time":72.85707000000001,"velocity":0.3937007874015748},{"duration":0.14285700000000645,"midi":62,"time":73.142784,"velocity":0.3937007874015748},{"duration":0.14285700000000645,"midi":50,"time":73.142784,"velocity":0.3937007874015748},{"duration":0.14285700000000645,"midi":57,"time":73.142784,"velocity":0.3937007874015748},{"duration":0.14285700000000645,"midi":38,"time":73.142784,"velocity":0.3937007874015748},{"duration":0.14285700000000645,"midi":53,"time":73.142784,"velocity":0.3937007874015748},{"duration":0.2857139999999845,"midi":50,"time":73.28564100000001,"velocity":0.3937007874015748},{"duration":0.2857139999999845,"midi":38,"time":73.28564100000001,"velocity":0.3937007874015748},{"duration":0.14285699999999224,"midi":53,"time":73.428498,"velocity":0.3937007874015748},{"duration":0.14285699999999224,"midi":62,"time":73.428498,"velocity":0.3937007874015748},{"duration":0.14285699999999224,"midi":57,"time":73.428498,"velocity":0.3937007874015748},{"duration":0.14285700000000645,"midi":64,"time":73.571355,"velocity":0.3937007874015748},{"duration":0.14285700000000645,"midi":36,"time":73.571355,"velocity":0.3937007874015748},{"duration":0.14285700000000645,"midi":48,"time":73.571355,"velocity":0.3937007874015748},{"duration":0.14285700000000645,"midi":62,"time":73.714212,"velocity":0.3937007874015748},{"duration":0.14285700000000645,"midi":65,"time":73.714212,"velocity":0.3937007874015748},{"duration":0.2857139999999987,"midi":34,"time":73.714212,"velocity":0.3937007874015748},{"duration":0.2857139999999987,"midi":46,"time":73.714212,"velocity":0.3937007874015748},{"duration":0.14285700000000645,"midi":58,"time":73.714212,"velocity":0.3937007874015748},{"duration":0.14285700000000645,"midi":62,"time":73.999926,"velocity":0.3937007874015748},{"duration":0.14285700000000645,"midi":65,"time":73.999926,"velocity":0.3937007874015748},{"duration":0.14285700000000645,"midi":34,"time":73.999926,"velocity":0.3937007874015748},{"duration":0.14285700000000645,"midi":46,"time":73.999926,"velocity":0.3937007874015748},{"duration":0.14285700000000645,"midi":58,"time":73.999926,"velocity":0.3937007874015748},{"duration":0.2857139999999987,"midi":46,"time":74.14278300000001,"velocity":0.3937007874015748},{"duration":0.2857139999999987,"midi":34,"time":74.14278300000001,"velocity":0.3937007874015748},{"duration":0.14285699999999224,"midi":58,"time":74.28564000000001,"velocity":0.3937007874015748},{"duration":0.14285699999999224,"midi":65,"time":74.28564000000001,"velocity":0.3937007874015748},{"duration":0.14285699999999224,"midi":62,"time":74.28564000000001,"velocity":0.3937007874015748},{"duration":0.14285699999999224,"midi":67,"time":74.42849700000001,"velocity":0.3937007874015748},{"duration":0.14285699999999224,"midi":34,"time":74.42849700000001,"velocity":0.3937007874015748},{"duration":0.14285699999999224,"midi":46,"time":74.42849700000001,"velocity":0.3937007874015748},{"duration":0.2857139999999987,"midi":45,"time":74.571354,"velocity":0.3937007874015748},{"duration":0.14285700000000645,"midi":60,"time":74.571354,"velocity":0.3937007874015748},{"duration":0.2857139999999987,"midi":33,"time":74.571354,"velocity":0.3937007874015748},{"duration":0.14285700000000645,"midi":57,"time":74.571354,"velocity":0.3937007874015748},{"duration":0.14285700000000645,"midi":64,"time":74.571354,"velocity":0.3937007874015748},{"duration":0.14285700000000645,"midi":33,"time":74.857068,"velocity":0.3937007874015748},{"duration":0.14285700000000645,"midi":57,"time":74.857068,"velocity":0.3937007874015748},{"duration":0.14285700000000645,"midi":64,"time":74.857068,"velocity":0.3937007874015748},{"duration":0.14285700000000645,"midi":60,"time":74.857068,"velocity":0.3937007874015748},{"duration":0.14285700000000645,"midi":45,"time":74.857068,"velocity":0.3937007874015748},{"duration":0.2857139999999987,"midi":33,"time":74.999925,"velocity":0.3937007874015748},{"duration":0.2857139999999987,"midi":45,"time":74.999925,"velocity":0.3937007874015748},{"duration":0.14285699999999224,"midi":62,"time":75.14278200000001,"velocity":0.3937007874015748},{"duration":0.14285699999999224,"midi":57,"time":75.14278200000001,"velocity":0.3937007874015748},{"duration":0.14285700000000645,"midi":60,"time":75.285639,"velocity":0.3937007874015748},{"duration":0.14285700000000645,"midi":45,"time":75.285639,"velocity":0.3937007874015748},{"duration":0.14285700000000645,"midi":33,"time":75.285639,"velocity":0.3937007874015748},{"duration":0.14285700000000645,"midi":60,"time":75.42849600000001,"velocity":0.3937007874015748},{"duration":0.2857139999999987,"midi":50,"time":75.42849600000001,"velocity":0.3937007874015748},{"duration":0.2857139999999987,"midi":38,"time":75.42849600000001,"velocity":0.3937007874015748},{"duration":0.14285700000000645,"midi":53,"time":75.42849600000001,"velocity":0.3937007874015748},{"duration":0.42857099999999093,"midi":53,"time":75.57135300000002,"velocity":0.3937007874015748},{"duration":0.42857099999999093,"midi":62,"time":75.57135300000002,"velocity":0.3937007874015748},{"duration":0.42857099999999093,"midi":57,"time":75.57135300000002,"velocity":0.3937007874015748},{"duration":0.14285699999999224,"midi":50,"time":75.71421000000001,"velocity":0.3937007874015748},{"duration":0.14285699999999224,"midi":38,"time":75.71421000000001,"velocity":0.3937007874015748},{"duration":0.2857139999999987,"midi":38,"time":75.857067,"velocity":0.3937007874015748},{"duration":0.2857139999999987,"midi":45,"time":75.857067,"velocity":0.3937007874015748},{"duration":0.14285699999999224,"midi":57,"time":75.99992400000001,"velocity":0.3937007874015748},{"duration":0.14285700000000645,"midi":45,"time":76.142781,"velocity":0.3937007874015748},{"duration":0.14285700000000645,"midi":60,"time":76.142781,"velocity":0.3937007874015748},{"duration":0.14285700000000645,"midi":38,"time":76.142781,"velocity":0.3937007874015748},{"duration":0.2857139999999987,"midi":34,"time":76.285638,"velocity":0.3937007874015748},{"duration":0.2857139999999987,"midi":46,"time":76.285638,"velocity":0.3937007874015748},{"duration":0.14285700000000645,"midi":58,"time":76.285638,"velocity":0.3937007874015748},{"duration":0.14285700000000645,"midi":62,"time":76.285638,"velocity":0.3937007874015748},{"duration":0.14285700000000645,"midi":53,"time":76.285638,"velocity":0.3937007874015748},{"duration":0.14285700000000645,"midi":46,"time":76.571352,"velocity":0.3937007874015748},{"duration":0.14285700000000645,"midi":53,"time":76.571352,"velocity":0.3937007874015748},{"duration":0.14285700000000645,"midi":58,"time":76.571352,"velocity":0.3937007874015748},{"duration":0.14285700000000645,"midi":62,"time":76.571352,"velocity":0.3937007874015748},{"duration":0.14285700000000645,"midi":34,"time":76.571352,"velocity":0.3937007874015748},{"duration":0.2857139999999845,"midi":46,"time":76.71420900000001,"velocity":0.3937007874015748},{"duration":0.2857139999999845,"midi":34,"time":76.71420900000001,"velocity":0.3937007874015748},{"duration":0.14285699999997803,"midi":62,"time":76.85706600000002,"velocity":0.3937007874015748},{"duration":0.14285699999997803,"midi":58,"time":76.85706600000002,"velocity":0.3937007874015748},{"duration":0.14285699999997803,"midi":53,"time":76.85706600000002,"velocity":0.3937007874015748},{"duration":0.14285700000000645,"midi":34,"time":76.999923,"velocity":0.3937007874015748},{"duration":0.14285700000000645,"midi":46,"time":76.999923,"velocity":0.3937007874015748},{"duration":0.14285700000000645,"midi":64,"time":76.999923,"velocity":0.3937007874015748},{"duration":0.2857139999999987,"midi":29,"time":77.14278,"velocity":0.3937007874015748},{"duration":0.14285700000000645,"midi":65,"time":77.14278,"velocity":0.3937007874015748},{"duration":0.14285700000000645,"midi":57,"time":77.14278,"velocity":0.3937007874015748},{"duration":0.2857139999999987,"midi":41,"time":77.14278,"velocity":0.3937007874015748},{"duration":0.14285700000000645,"midi":60,"time":77.14278,"velocity":0.3937007874015748},{"duration":0.14285700000000645,"midi":60,"time":77.428494,"velocity":0.3937007874015748},{"duration":0.14285700000000645,"midi":41,"time":77.428494,"velocity":0.3937007874015748},{"duration":0.14285700000000645,"midi":29,"time":77.428494,"velocity":0.3937007874015748},{"duration":0.14285700000000645,"midi":57,"time":77.428494,"velocity":0.3937007874015748},{"duration":0.14285700000000645,"midi":65,"time":77.428494,"velocity":0.3937007874015748},{"duration":0.2857139999999987,"midi":41,"time":77.571351,"velocity":0.3937007874015748},{"duration":0.2857139999999987,"midi":29,"time":77.571351,"velocity":0.3937007874015748},{"duration":0.14285699999999224,"midi":60,"time":77.71420800000001,"velocity":0.3937007874015748},{"duration":0.14285699999999224,"midi":57,"time":77.71420800000001,"velocity":0.3937007874015748},{"duration":0.14285699999999224,"midi":65,"time":77.71420800000001,"velocity":0.3937007874015748},{"duration":0.14285700000000645,"midi":67,"time":77.857065,"velocity":0.3937007874015748},{"duration":0.14285700000000645,"midi":29,"time":77.857065,"velocity":0.3937007874015748},{"duration":0.14285700000000645,"midi":41,"time":77.857065,"velocity":0.3937007874015748},{"duration":0.2857139999999845,"midi":36,"time":77.99992200000001,"velocity":0.3937007874015748},{"duration":0.14285699999999224,"midi":60,"time":77.99992200000001,"velocity":0.3937007874015748},{"duration":0.14285699999999224,"midi":57,"time":77.99992200000001,"velocity":0.3937007874015748},{"duration":0.2857139999999845,"midi":48,"time":77.99992200000001,"velocity":0.3937007874015748},{"duration":0.14285699999999224,"midi":64,"time":77.99992200000001,"velocity":0.3937007874015748},{"duration":0.14285700000000645,"midi":60,"time":78.285636,"velocity":0.3937007874015748},{"duration":0.14285700000000645,"midi":64,"time":78.285636,"velocity":0.3937007874015748},{"duration":0.14285700000000645,"midi":48,"time":78.285636,"velocity":0.3937007874015748},{"duration":0.14285700000000645,"midi":57,"time":78.285636,"velocity":0.3937007874015748},{"duration":0.14285700000000645,"midi":36,"time":78.285636,"velocity":0.3937007874015748},{"duration":0.2857139999999987,"midi":45,"time":78.428493,"velocity":0.3937007874015748},{"duration":0.2857139999999987,"midi":33,"time":78.428493,"velocity":0.3937007874015748},{"duration":0.14285699999999224,"midi":62,"time":78.57135000000001,"velocity":0.3937007874015748},{"duration":0.14285699999999224,"midi":57,"time":78.57135000000001,"velocity":0.3937007874015748},{"duration":0.14285700000000645,"midi":45,"time":78.714207,"velocity":0.3937007874015748},{"duration":0.14285700000000645,"midi":60,"time":78.714207,"velocity":0.3937007874015748},{"duration":0.14285700000000645,"midi":33,"time":78.714207,"velocity":0.3937007874015748},{"duration":0.42857100000000514,"midi":53,"time":78.85706400000001,"velocity":0.3937007874015748},{"duration":0.2857139999999987,"midi":38,"time":78.85706400000001,"velocity":0.3937007874015748},{"duration":0.42857100000000514,"midi":57,"time":78.85706400000001,"velocity":0.3937007874015748},{"duration":0.2857139999999987,"midi":50,"time":78.85706400000001,"velocity":0.3937007874015748},{"duration":0.42857100000000514,"midi":62,"time":78.85706400000001,"velocity":0.3937007874015748},{"duration":0.14285700000000645,"midi":50,"time":79.142778,"velocity":0.3937007874015748},{"duration":0.14285700000000645,"midi":38,"time":79.142778,"velocity":0.3937007874015748},{"duration":0.2857139999999845,"midi":38,"time":79.28563500000001,"velocity":0.3937007874015748},{"duration":0.2857139999999845,"midi":45,"time":79.28563500000001,"velocity":0.3937007874015748},{"duration":0.14285699999999224,"midi":57,"time":79.428492,"velocity":0.3937007874015748},{"duration":0.14285700000000645,"midi":60,"time":79.571349,"velocity":0.3937007874015748},{"duration":0.14285700000000645,"midi":45,"time":79.571349,"velocity":0.3937007874015748},{"duration":0.14285700000000645,"midi":38,"time":79.571349,"velocity":0.3937007874015748},{"duration":0.14285700000000645,"midi":62,"time":79.714206,"velocity":0.3937007874015748},{"duration":0.2857139999999987,"midi":38,"time":79.714206,"velocity":0.3937007874015748},{"duration":0.14285700000000645,"midi":53,"time":79.714206,"velocity":0.3937007874015748},{"duration":0.14285700000000645,"midi":57,"time":79.714206,"velocity":0.3937007874015748},{"duration":0.2857139999999987,"midi":50,"time":79.714206,"velocity":0.3937007874015748},{"duration":0.14285700000000645,"midi":38,"time":79.99992,"velocity":0.3937007874015748},{"duration":0.14285700000000645,"midi":50,"time":79.99992,"velocity":0.3937007874015748},{"duration":0.14285700000000645,"midi":62,"time":79.99992,"velocity":0.3937007874015748},{"duration":0.14285700000000645,"midi":57,"time":79.99992,"velocity":0.3937007874015748},{"duration":0.14285700000000645,"midi":53,"time":79.99992,"velocity":0.3937007874015748},{"duration":0.2857139999999987,"midi":38,"time":80.14277700000001,"velocity":0.3937007874015748},{"duration":0.2857139999999987,"midi":50,"time":80.14277700000001,"velocity":0.3937007874015748},{"duration":0.14285699999999224,"midi":62,"time":80.28563400000002,"velocity":0.3937007874015748},{"duration":0.14285699999999224,"midi":53,"time":80.28563400000002,"velocity":0.3937007874015748},{"duration":0.14285699999999224,"midi":65,"time":80.42849100000001,"velocity":0.3937007874015748},{"duration":0.14285699999999224,"midi":38,"time":80.42849100000001,"velocity":0.3937007874015748},{"duration":0.14285699999999224,"midi":53,"time":80.42849100000001,"velocity":0.3937007874015748},{"duration":0.14285699999999224,"midi":50,"time":80.42849100000001,"velocity":0.3937007874015748},{"duration":0.2857139999999987,"midi":34,"time":80.571348,"velocity":0.3937007874015748},{"duration":0.2857139999999987,"midi":46,"time":80.571348,"velocity":0.3937007874015748},{"duration":0.14285700000000645,"midi":67,"time":80.571348,"velocity":0.3937007874015748},{"duration":0.14285700000000645,"midi":62,"time":80.571348,"velocity":0.3937007874015748},{"duration":0.14285700000000645,"midi":58,"time":80.571348,"velocity":0.3937007874015748},{"duration":0.14285700000000645,"midi":46,"time":80.857062,"velocity":0.3937007874015748},{"duration":0.14285700000000645,"midi":62,"time":80.857062,"velocity":0.3937007874015748},{"duration":0.14285700000000645,"midi":34,"time":80.857062,"velocity":0.3937007874015748},{"duration":0.14285700000000645,"midi":58,"time":80.857062,"velocity":0.3937007874015748},{"duration":0.14285700000000645,"midi":67,"time":80.857062,"velocity":0.3937007874015748},{"duration":0.2857139999999987,"midi":46,"time":80.999919,"velocity":0.3937007874015748},{"duration":0.2857139999999987,"midi":34,"time":80.999919,"velocity":0.3937007874015748},{"duration":0.14285699999999224,"midi":62,"time":81.14277600000001,"velocity":0.3937007874015748},{"duration":0.14285699999999224,"midi":58,"time":81.14277600000001,"velocity":0.3937007874015748},{"duration":0.14285699999999224,"midi":67,"time":81.14277600000001,"velocity":0.3937007874015748},{"duration":0.14285700000000645,"midi":69,"time":81.285633,"velocity":0.3937007874015748},{"duration":0.14285700000000645,"midi":46,"time":81.285633,"velocity":0.3937007874015748},{"duration":0.14285700000000645,"midi":34,"time":81.285633,"velocity":0.3937007874015748},{"duration":0.14285700000000645,"midi":70,"time":81.42849000000001,"velocity":0.3937007874015748},{"duration":0.14285700000000645,"midi":62,"time":81.42849000000001,"velocity":0.3937007874015748},{"duration":0.2857139999999987,"midi":43,"time":81.42849000000001,"velocity":0.3937007874015748},{"duration":0.14285700000000645,"midi":67,"time":81.42849000000001,"velocity":0.3937007874015748},{"duration":0.2857139999999987,"midi":31,"time":81.42849000000001,"velocity":0.3937007874015748},{"duration":0.14285699999999224,"midi":31,"time":81.71420400000001,"velocity":0.3937007874015748},{"duration":0.14285699999999224,"midi":70,"time":81.71420400000001,"velocity":0.3937007874015748},{"duration":0.14285699999999224,"midi":43,"time":81.71420400000001,"velocity":0.3937007874015748},{"duration":0.14285699999999224,"midi":62,"time":81.71420400000001,"velocity":0.3937007874015748},{"duration":0.14285699999999224,"midi":67,"time":81.71420400000001,"velocity":0.3937007874015748},{"duration":0.2857139999999987,"midi":31,"time":81.857061,"velocity":0.3937007874015748},{"duration":0.2857139999999987,"midi":43,"time":81.857061,"velocity":0.3937007874015748},{"duration":0.14285699999999224,"midi":62,"time":81.99991800000001,"velocity":0.3937007874015748},{"duration":0.14285699999999224,"midi":69,"time":81.99991800000001,"velocity":0.3937007874015748},{"duration":0.14285700000000645,"midi":43,"time":82.142775,"velocity":0.3937007874015748},{"duration":0.14285700000000645,"midi":67,"time":82.142775,"velocity":0.3937007874015748},{"duration":0.14285700000000645,"midi":31,"time":82.142775,"velocity":0.3937007874015748},{"duration":0.14285700000000645,"midi":69,"time":82.285632,"velocity":0.3937007874015748},{"duration":0.2857139999999987,"midi":38,"time":82.285632,"velocity":0.3937007874015748},{"duration":0.2857139999999987,"midi":50,"time":82.285632,"velocity":0.3937007874015748},{"duration":0.14285700000000645,"midi":62,"time":82.285632,"velocity":0.3937007874015748},{"duration":0.42857099999999093,"midi":62,"time":82.42848900000001,"velocity":0.3937007874015748},{"duration":0.42857099999999093,"midi":57,"time":82.42848900000001,"velocity":0.3937007874015748},{"duration":0.42857099999999093,"midi":53,"time":82.42848900000001,"velocity":0.3937007874015748},{"duration":0.14285700000000645,"midi":50,"time":82.571346,"velocity":0.3937007874015748},{"duration":0.14285700000000645,"midi":38,"time":82.571346,"velocity":0.3937007874015748},{"duration":0.2857139999999845,"midi":38,"time":82.71420300000001,"velocity":0.3937007874015748},{"duration":0.2857139999999845,"midi":45,"time":82.71420300000001,"velocity":0.3937007874015748},{"duration":0.14285699999999224,"midi":62,"time":82.85706,"velocity":0.3937007874015748},{"duration":0.14285700000000645,"midi":45,"time":82.999917,"velocity":0.3937007874015748},{"duration":0.14285700000000645,"midi":38,"time":82.999917,"velocity":0.3937007874015748},{"duration":0.14285700000000645,"midi":64,"time":82.999917,"velocity":0.3937007874015748},{"duration":0.14285700000000645,"midi":58,"time":83.142774,"velocity":0.3937007874015748},{"duration":0.14285700000000645,"midi":65,"time":83.142774,"velocity":0.3937007874015748},{"duration":0.14285700000000645,"midi":62,"time":83.142774,"velocity":0.3937007874015748},{"duration":0.2857139999999987,"midi":46,"time":83.142774,"velocity":0.3937007874015748},{"duration":0.2857139999999987,"midi":34,"time":83.142774,"velocity":0.3937007874015748},{"duration":0.14285700000000645,"midi":34,"time":83.428488,"velocity":0.3937007874015748},{"duration":0.14285700000000645,"midi":58,"time":83.428488,"velocity":0.3937007874015748},{"duration":0.14285700000000645,"midi":65,"time":83.428488,"velocity":0.3937007874015748},{"duration":0.14285700000000645,"midi":62,"time":83.428488,"velocity":0.3937007874015748},{"duration":0.14285700000000645,"midi":46,"time":83.428488,"velocity":0.3937007874015748},{"duration":0.2857139999999987,"midi":46,"time":83.57134500000001,"velocity":0.3937007874015748},{"duration":0.2857139999999987,"midi":34,"time":83.57134500000001,"velocity":0.3937007874015748},{"duration":0.14285699999999224,"midi":67,"time":83.71420200000001,"velocity":0.3937007874015748},{"duration":0.14285699999999224,"midi":58,"time":83.71420200000001,"velocity":0.3937007874015748},{"duration":0.14285699999999224,"midi":62,"time":83.71420200000001,"velocity":0.3937007874015748},{"duration":0.14285700000000645,"midi":46,"time":83.857059,"velocity":0.3937007874015748},{"duration":0.14285700000000645,"midi":34,"time":83.857059,"velocity":0.3937007874015748},{"duration":0.14285699999999224,"midi":69,"time":83.99991600000001,"velocity":0.3937007874015748},{"duration":0.2857139999999845,"midi":38,"time":83.99991600000001,"velocity":0.3937007874015748},{"duration":0.14285699999999224,"midi":65,"time":83.99991600000001,"velocity":0.3937007874015748},{"duration":0.2857139999999845,"midi":50,"time":83.99991600000001,"velocity":0.3937007874015748},{"duration":0.14285699999999224,"midi":62,"time":83.99991600000001,"velocity":0.3937007874015748},{"duration":0.14285700000000645,"midi":50,"time":84.28563,"velocity":0.3937007874015748},{"duration":0.14285700000000645,"midi":38,"time":84.28563,"velocity":0.3937007874015748},{"duration":0.2857139999999987,"midi":38,"time":84.428487,"velocity":0.3937007874015748},{"duration":0.2857139999999987,"midi":50,"time":84.428487,"velocity":0.3937007874015748},{"duration":0.14285699999999224,"midi":62,"time":84.57134400000001,"velocity":0.3937007874015748},{"duration":0.14285700000000645,"midi":38,"time":84.714201,"velocity":0.3937007874015748},{"duration":0.14285700000000645,"midi":50,"time":84.714201,"velocity":0.3937007874015748},{"duration":0.14285700000000645,"midi":65,"time":84.714201,"velocity":0.3937007874015748},{"duration":0.2857139999999987,"midi":45,"time":84.85705800000001,"velocity":0.3937007874015748},{"duration":0.2857139999999987,"midi":33,"time":84.85705800000001,"velocity":0.3937007874015748},{"duration":0.14285700000000645,"midi":57,"time":84.85705800000001,"velocity":0.3937007874015748},{"duration":0.14285700000000645,"midi":64,"time":84.85705800000001,"velocity":0.3937007874015748},{"duration":0.14285700000000645,"midi":61,"time":84.85705800000001,"velocity":0.3937007874015748},{"duration":0.14285699999999224,"midi":64,"time":85.14277200000001,"velocity":0.3937007874015748},{"duration":0.14285699999999224,"midi":45,"time":85.14277200000001,"velocity":0.3937007874015748},{"duration":0.14285699999999224,"midi":57,"time":85.14277200000001,"velocity":0.3937007874015748},{"duration":0.14285699999999224,"midi":61,"time":85.14277200000001,"velocity":0.3937007874015748},{"duration":0.14285699999999224,"midi":33,"time":85.14277200000001,"velocity":0.3937007874015748},{"duration":0.2857139999999987,"midi":33,"time":85.285629,"velocity":0.3937007874015748},{"duration":0.2857139999999987,"midi":45,"time":85.285629,"velocity":0.3937007874015748},{"duration":0.14285699999999224,"midi":65,"time":85.428486,"velocity":0.3937007874015748},{"duration":0.14285700000000645,"midi":62,"time":85.571343,"velocity":0.3937007874015748},{"duration":0.14285700000000645,"midi":33,"time":85.571343,"velocity":0.3937007874015748},{"duration":0.14285700000000645,"midi":45,"time":85.571343,"velocity":0.3937007874015748},{"duration":0.42857100000000514,"midi":61,"time":85.7142,"velocity":0.3937007874015748},{"duration":0.2857139999999987,"midi":45,"time":85.7142,"velocity":0.3937007874015748},{"duration":0.42857100000000514,"midi":64,"time":85.7142,"velocity":0.3937007874015748},{"duration":0.42857100000000514,"midi":57,"time":85.7142,"velocity":0.3937007874015748},{"duration":0.2857139999999987,"midi":33,"time":85.7142,"velocity":0.3937007874015748},{"duration":0.14285700000000645,"midi":45,"time":85.999914,"velocity":0.3937007874015748},{"duration":0.14285700000000645,"midi":33,"time":85.999914,"velocity":0.3937007874015748},{"duration":0.2857139999999987,"midi":33,"time":86.14277100000001,"velocity":0.3937007874015748},{"duration":0.2857139999999987,"midi":45,"time":86.14277100000001,"velocity":0.3937007874015748},{"duration":0.14285699999999224,"midi":69,"time":86.28562800000002,"velocity":0.3937007874015748},{"duration":0.14285699999999224,"midi":45,"time":86.42848500000001,"velocity":0.3937007874015748},{"duration":0.14285699999999224,"midi":33,"time":86.42848500000001,"velocity":0.3937007874015748},{"duration":0.14285699999999224,"midi":72,"time":86.42848500000001,"velocity":0.3937007874015748},{"duration":0.2857139999999987,"midi":50,"time":86.571342,"velocity":0.3937007874015748},{"duration":0.2857139999999987,"midi":38,"time":86.571342,"velocity":0.3937007874015748},{"duration":0.14285700000000645,"midi":69,"time":86.571342,"velocity":0.3937007874015748},{"duration":0.14285700000000645,"midi":65,"time":86.571342,"velocity":0.3937007874015748},{"duration":0.14285700000000645,"midi":74,"time":86.571342,"velocity":0.3937007874015748},{"duration":0.14285700000000645,"midi":69,"time":86.857056,"velocity":0.3937007874015748},{"duration":0.14285700000000645,"midi":38,"time":86.857056,"velocity":0.3937007874015748},{"duration":0.14285700000000645,"midi":50,"time":86.857056,"velocity":0.3937007874015748},{"duration":0.14285700000000645,"midi":74,"time":86.857056,"velocity":0.3937007874015748},{"duration":0.14285700000000645,"midi":65,"time":86.857056,"velocity":0.3937007874015748},{"duration":0.2857139999999987,"midi":50,"time":86.999913,"velocity":0.3937007874015748},{"duration":0.2857139999999987,"midi":38,"time":86.999913,"velocity":0.3937007874015748},{"duration":0.14285699999999224,"midi":74,"time":87.14277000000001,"velocity":0.3937007874015748},{"duration":0.14285699999999224,"midi":65,"time":87.14277000000001,"velocity":0.3937007874015748},{"duration":0.14285699999999224,"midi":69,"time":87.14277000000001,"velocity":0.3937007874015748},{"duration":0.14285700000000645,"midi":36,"time":87.285627,"velocity":0.3937007874015748},{"duration":0.14285700000000645,"midi":48,"time":87.285627,"velocity":0.3937007874015748},{"duration":0.14285700000000645,"midi":76,"time":87.285627,"velocity":0.3937007874015748},{"duration":0.14285700000000645,"midi":74,"time":87.42848400000001,"velocity":0.3937007874015748},{"duration":0.14285700000000645,"midi":70,"time":87.42848400000001,"velocity":0.3937007874015748},{"duration":0.2857139999999845,"midi":46,"time":87.42848400000001,"velocity":0.3937007874015748},{"duration":0.14285700000000645,"midi":77,"time":87.42848400000001,"velocity":0.3937007874015748},{"duration":0.2857139999999845,"midi":34,"time":87.42848400000001,"velocity":0.3937007874015748},{"duration":0.14285700000000645,"midi":34,"time":87.714198,"velocity":0.3937007874015748},{"duration":0.14285700000000645,"midi":46,"time":87.714198,"velocity":0.3937007874015748},{"duration":0.14285700000000645,"midi":74,"time":87.714198,"velocity":0.3937007874015748},{"duration":0.14285700000000645,"midi":77,"time":87.714198,"velocity":0.3937007874015748},{"duration":0.14285700000000645,"midi":70,"time":87.714198,"velocity":0.3937007874015748},{"duration":0.2857139999999987,"midi":34,"time":87.857055,"velocity":0.3937007874015748},{"duration":0.2857139999999987,"midi":46,"time":87.857055,"velocity":0.3937007874015748},{"duration":0.14285699999999224,"midi":77,"time":87.99991200000001,"velocity":0.3937007874015748},{"duration":0.14285699999999224,"midi":74,"time":87.99991200000001,"velocity":0.3937007874015748},{"duration":0.14285699999999224,"midi":70,"time":87.99991200000001,"velocity":0.3937007874015748},{"duration":0.14285700000000645,"midi":46,"time":88.142769,"velocity":0.3937007874015748},{"duration":0.14285700000000645,"midi":34,"time":88.142769,"velocity":0.3937007874015748},{"duration":0.14285700000000645,"midi":79,"time":88.142769,"velocity":0.3937007874015748},{"duration":0.14285700000000645,"midi":72,"time":88.28562600000001,"velocity":0.3937007874015748},{"duration":0.14285700000000645,"midi":69,"time":88.28562600000001,"velocity":0.3937007874015748},{"duration":0.2857139999999987,"midi":33,"time":88.28562600000001,"velocity":0.3937007874015748},{"duration":0.14285700000000645,"midi":76,"time":88.28562600000001,"velocity":0.3937007874015748},{"duration":0.2857139999999987,"midi":45,"time":88.28562600000001,"velocity":0.3937007874015748},{"duration":0.14285700000000645,"midi":45,"time":88.57134,"velocity":0.3937007874015748},{"duration":0.14285700000000645,"midi":72,"time":88.57134,"velocity":0.3937007874015748},{"duration":0.14285700000000645,"midi":33,"time":88.57134,"velocity":0.3937007874015748},{"duration":0.14285700000000645,"midi":69,"time":88.57134,"velocity":0.3937007874015748},{"duration":0.14285700000000645,"midi":76,"time":88.57134,"velocity":0.3937007874015748},{"duration":0.2857139999999845,"midi":45,"time":88.71419700000001,"velocity":0.3937007874015748},{"duration":0.2857139999999845,"midi":33,"time":88.71419700000001,"velocity":0.3937007874015748},{"duration":0.14285699999999224,"midi":69,"time":88.857054,"velocity":0.3937007874015748},{"duration":0.14285699999999224,"midi":74,"time":88.857054,"velocity":0.3937007874015748},{"duration":0.14285700000000645,"midi":45,"time":88.999911,"velocity":0.3937007874015748},{"duration":0.14285700000000645,"midi":33,"time":88.999911,"velocity":0.3937007874015748},{"duration":0.14285700000000645,"midi":72,"time":88.999911,"velocity":0.3937007874015748},{"duration":0.2857139999999987,"midi":50,"time":89.142768,"velocity":0.3937007874015748},{"duration":0.14285700000000645,"midi":65,"time":89.142768,"velocity":0.3937007874015748},{"duration":0.2857139999999987,"midi":38,"time":89.142768,"velocity":0.3937007874015748},{"duration":0.14285700000000645,"midi":72,"time":89.142768,"velocity":0.3937007874015748},{"duration":0.42857100000000514,"midi":69,"time":89.28562500000001,"velocity":0.3937007874015748},{"duration":0.42857100000000514,"midi":74,"time":89.28562500000001,"velocity":0.3937007874015748},{"duration":0.42857100000000514,"midi":65,"time":89.28562500000001,"velocity":0.3937007874015748},{"duration":0.14285700000000645,"midi":38,"time":89.428482,"velocity":0.3937007874015748},{"duration":0.14285700000000645,"midi":50,"time":89.428482,"velocity":0.3937007874015748},{"duration":0.2857139999999987,"midi":45,"time":89.57133900000001,"velocity":0.3937007874015748},{"duration":0.2857139999999987,"midi":38,"time":89.57133900000001,"velocity":0.3937007874015748},{"duration":0.14285699999999224,"midi":69,"time":89.71419600000002,"velocity":0.3937007874015748},{"duration":0.14285700000000645,"midi":38,"time":89.85705300000001,"velocity":0.3937007874015748},{"duration":0.14285700000000645,"midi":72,"time":89.85705300000001,"velocity":0.3937007874015748},{"duration":0.14285700000000645,"midi":45,"time":89.85705300000001,"velocity":0.3937007874015748},{"duration":0.2857139999999845,"midi":46,"time":89.99991000000001,"velocity":0.3937007874015748},{"duration":0.2857139999999845,"midi":34,"time":89.99991000000001,"velocity":0.3937007874015748},{"duration":0.14285699999999224,"midi":65,"time":89.99991000000001,"velocity":0.3937007874015748},{"duration":0.14285699999999224,"midi":70,"time":89.99991000000001,"velocity":0.3937007874015748},{"duration":0.14285699999999224,"midi":74,"time":89.99991000000001,"velocity":0.3937007874015748},{"duration":0.14285700000000645,"midi":74,"time":90.285624,"velocity":0.3937007874015748},{"duration":0.14285700000000645,"midi":46,"time":90.285624,"velocity":0.3937007874015748},{"duration":0.14285700000000645,"midi":34,"time":90.285624,"velocity":0.3937007874015748},{"duration":0.14285700000000645,"midi":65,"time":90.285624,"velocity":0.3937007874015748},{"duration":0.14285700000000645,"midi":70,"time":90.285624,"velocity":0.3937007874015748},{"duration":0.2857139999999987,"midi":46,"time":90.428481,"velocity":0.3937007874015748},{"duration":0.2857139999999987,"midi":34,"time":90.428481,"velocity":0.3937007874015748},{"duration":0.14285699999999224,"midi":74,"time":90.57133800000001,"velocity":0.3937007874015748},{"duration":0.14285699999999224,"midi":65,"time":90.57133800000001,"velocity":0.3937007874015748},{"duration":0.14285699999999224,"midi":70,"time":90.57133800000001,"velocity":0.3937007874015748},{"duration":0.14285700000000645,"midi":34,"time":90.714195,"velocity":0.3937007874015748},{"duration":0.14285700000000645,"midi":76,"time":90.714195,"velocity":0.3937007874015748},{"duration":0.14285700000000645,"midi":46,"time":90.714195,"velocity":0.3937007874015748},{"duration":0.2857139999999987,"midi":41,"time":90.85705200000001,"velocity":0.3937007874015748},{"duration":0.2857139999999987,"midi":29,"time":90.85705200000001,"velocity":0.3937007874015748},{"duration":0.14285700000000645,"midi":77,"time":90.85705200000001,"velocity":0.3937007874015748},{"duration":0.14285700000000645,"midi":72,"time":90.85705200000001,"velocity":0.3937007874015748},{"duration":0.14285700000000645,"midi":69,"time":90.85705200000001,"velocity":0.3937007874015748},{"duration":0.14285699999999224,"midi":41,"time":91.14276600000001,"velocity":0.3937007874015748},{"duration":0.14285699999999224,"midi":77,"time":91.14276600000001,"velocity":0.3937007874015748},{"duration":0.14285699999999224,"midi":29,"time":91.14276600000001,"velocity":0.3937007874015748},{"duration":0.14285699999999224,"midi":69,"time":91.14276600000001,"velocity":0.3937007874015748},{"duration":0.14285699999999224,"midi":72,"time":91.14276600000001,"velocity":0.3937007874015748},{"duration":0.2857139999999987,"midi":29,"time":91.285623,"velocity":0.3937007874015748},{"duration":0.2857139999999987,"midi":41,"time":91.285623,"velocity":0.3937007874015748},{"duration":0.14285699999999224,"midi":77,"time":91.42848000000001,"velocity":0.3937007874015748},{"duration":0.14285699999999224,"midi":69,"time":91.42848000000001,"velocity":0.3937007874015748},{"duration":0.14285699999999224,"midi":72,"time":91.42848000000001,"velocity":0.3937007874015748},{"duration":0.14285700000000645,"midi":41,"time":91.571337,"velocity":0.3937007874015748},{"duration":0.14285700000000645,"midi":79,"time":91.571337,"velocity":0.3937007874015748},{"duration":0.14285700000000645,"midi":29,"time":91.571337,"velocity":0.3937007874015748},{"duration":0.14285700000000645,"midi":69,"time":91.714194,"velocity":0.3937007874015748},{"duration":0.2857139999999987,"midi":48,"time":91.714194,"velocity":0.3937007874015748},{"duration":0.2857139999999987,"midi":36,"time":91.714194,"velocity":0.3937007874015748},{"duration":0.14285700000000645,"midi":76,"time":91.714194,"velocity":0.3937007874015748},{"duration":0.14285700000000645,"midi":72,"time":91.714194,"velocity":0.3937007874015748},{"duration":0.14285700000000645,"midi":76,"time":91.999908,"velocity":0.3937007874015748},{"duration":0.14285700000000645,"midi":72,"time":91.999908,"velocity":0.3937007874015748},{"duration":0.14285700000000645,"midi":36,"time":91.999908,"velocity":0.3937007874015748},{"duration":0.14285700000000645,"midi":69,"time":91.999908,"velocity":0.3937007874015748},{"duration":0.14285700000000645,"midi":48,"time":91.999908,"velocity":0.3937007874015748},{"duration":0.2857139999999987,"midi":33,"time":92.14276500000001,"velocity":0.3937007874015748},{"duration":0.2857139999999987,"midi":45,"time":92.14276500000001,"velocity":0.3937007874015748},{"duration":0.14285699999999224,"midi":74,"time":92.28562200000002,"velocity":0.3937007874015748},{"duration":0.14285699999999224,"midi":69,"time":92.28562200000002,"velocity":0.3937007874015748},{"duration":0.14285699999999224,"midi":45,"time":92.42847900000001,"velocity":0.3937007874015748},{"duration":0.14285699999999224,"midi":72,"time":92.42847900000001,"velocity":0.3937007874015748},{"duration":0.14285699999999224,"midi":33,"time":92.42847900000001,"velocity":0.3937007874015748},{"duration":0.42857100000000514,"midi":69,"time":92.571336,"velocity":0.3937007874015748},{"duration":0.2857139999999987,"midi":50,"time":92.571336,"velocity":0.3937007874015748},{"duration":0.2857139999999987,"midi":38,"time":92.571336,"velocity":0.3937007874015748},{"duration":0.42857100000000514,"midi":65,"time":92.571336,"velocity":0.3937007874015748},{"duration":0.42857100000000514,"midi":74,"time":92.571336,"velocity":0.3937007874015748},{"duration":0.14285700000000645,"midi":38,"time":92.85705,"velocity":0.3937007874015748},{"duration":0.14285700000000645,"midi":50,"time":92.85705,"velocity":0.3937007874015748},{"duration":0.2857139999999987,"midi":45,"time":92.99990700000001,"velocity":0.3937007874015748},{"duration":0.2857139999999987,"midi":38,"time":92.99990700000001,"velocity":0.3937007874015748},{"duration":0.14285699999999224,"midi":69,"time":93.14276400000001,"velocity":0.3937007874015748},{"duration":0.14285700000000645,"midi":38,"time":93.285621,"velocity":0.3937007874015748},{"duration":0.14285700000000645,"midi":72,"time":93.285621,"velocity":0.3937007874015748},{"duration":0.14285700000000645,"midi":45,"time":93.285621,"velocity":0.3937007874015748},{"duration":0.2857139999999845,"midi":50,"time":93.42847800000001,"velocity":0.3937007874015748},{"duration":0.14285699999999224,"midi":69,"time":93.42847800000001,"velocity":0.3937007874015748},{"duration":0.14285699999999224,"midi":65,"time":93.42847800000001,"velocity":0.3937007874015748},{"duration":0.2857139999999845,"midi":38,"time":93.42847800000001,"velocity":0.3937007874015748},{"duration":0.14285699999999224,"midi":74,"time":93.42847800000001,"velocity":0.3937007874015748},{"duration":0.14285700000000645,"midi":74,"time":93.714192,"velocity":0.3937007874015748},{"duration":0.14285700000000645,"midi":38,"time":93.714192,"velocity":0.3937007874015748},{"duration":0.14285700000000645,"midi":69,"time":93.714192,"velocity":0.3937007874015748},{"duration":0.14285700000000645,"midi":65,"time":93.714192,"velocity":0.3937007874015748},{"duration":0.14285700000000645,"midi":50,"time":93.714192,"velocity":0.3937007874015748},{"duration":0.2857139999999987,"midi":50,"time":93.857049,"velocity":0.3937007874015748},{"duration":0.2857139999999987,"midi":38,"time":93.857049,"velocity":0.3937007874015748},{"duration":0.14285699999999224,"midi":65,"time":93.99990600000001,"velocity":0.3937007874015748},{"duration":0.14285699999999224,"midi":74,"time":93.99990600000001,"velocity":0.3937007874015748},{"duration":0.14285700000000645,"midi":50,"time":94.142763,"velocity":0.3937007874015748},{"duration":0.14285700000000645,"midi":65,"time":94.142763,"velocity":0.3937007874015748},{"duration":0.14285700000000645,"midi":38,"time":94.142763,"velocity":0.3937007874015748},{"duration":0.14285700000000645,"midi":77,"time":94.142763,"velocity":0.3937007874015748},{"duration":0.2857139999999987,"midi":34,"time":94.28562000000001,"velocity":0.3937007874015748},{"duration":0.2857139999999987,"midi":46,"time":94.28562000000001,"velocity":0.3937007874015748},{"duration":0.14285700000000645,"midi":70,"time":94.28562000000001,"velocity":0.3937007874015748},{"duration":0.14285700000000645,"midi":79,"time":94.28562000000001,"velocity":0.3937007874015748},{"duration":0.14285700000000645,"midi":74,"time":94.28562000000001,"velocity":0.3937007874015748},{"duration":0.14285700000000645,"midi":46,"time":94.57133400000001,"velocity":0.3937007874015748},{"duration":0.14285700000000645,"midi":34,"time":94.57133400000001,"velocity":0.3937007874015748},{"duration":0.14285700000000645,"midi":74,"time":94.57133400000001,"velocity":0.3937007874015748},{"duration":0.14285700000000645,"midi":70,"time":94.57133400000001,"velocity":0.3937007874015748},{"duration":0.14285700000000645,"midi":79,"time":94.57133400000001,"velocity":0.3937007874015748},{"duration":0.2857139999999845,"midi":34,"time":94.71419100000001,"velocity":0.3937007874015748},{"duration":0.2857139999999845,"midi":46,"time":94.71419100000001,"velocity":0.3937007874015748},{"duration":0.14285699999999224,"midi":79,"time":94.857048,"velocity":0.3937007874015748},{"duration":0.14285699999999224,"midi":74,"time":94.857048,"velocity":0.3937007874015748},{"duration":0.14285699999999224,"midi":70,"time":94.857048,"velocity":0.3937007874015748},{"duration":0.14285700000000645,"midi":81,"time":94.999905,"velocity":0.3937007874015748},{"duration":0.14285700000000645,"midi":34,"time":94.999905,"velocity":0.3937007874015748},{"duration":0.14285700000000645,"midi":46,"time":94.999905,"velocity":0.3937007874015748},{"duration":0.14285700000000645,"midi":74,"time":95.142762,"velocity":0.3937007874015748},{"duration":0.2857139999999987,"midi":31,"time":95.142762,"velocity":0.3937007874015748},{"duration":0.2857139999999987,"midi":43,"time":95.142762,"velocity":0.3937007874015748},{"duration":0.14285700000000645,"midi":82,"time":95.142762,"velocity":0.3937007874015748},{"duration":0.14285700000000645,"midi":79,"time":95.142762,"velocity":0.3937007874015748},{"duration":0.14285700000000645,"midi":74,"time":95.428476,"velocity":0.3937007874015748},{"duration":0.14285700000000645,"midi":82,"time":95.428476,"velocity":0.3937007874015748},{"duration":0.14285700000000645,"midi":31,"time":95.428476,"velocity":0.3937007874015748},{"duration":0.14285700000000645,"midi":79,"time":95.428476,"velocity":0.3937007874015748},{"duration":0.14285700000000645,"midi":43,"time":95.428476,"velocity":0.3937007874015748},{"duration":0.2857139999999987,"midi":31,"time":95.57133300000001,"velocity":0.3937007874015748},{"duration":0.2857139999999987,"midi":43,"time":95.57133300000001,"velocity":0.3937007874015748},{"duration":0.14285699999999224,"midi":81,"time":95.71419000000002,"velocity":0.3937007874015748},{"duration":0.14285699999999224,"midi":74,"time":95.71419000000002,"velocity":0.3937007874015748},{"duration":0.14285700000000645,"midi":79,"time":95.85704700000001,"velocity":0.3937007874015748},{"duration":0.14285700000000645,"midi":31,"time":95.85704700000001,"velocity":0.3937007874015748},{"duration":0.14285700000000645,"midi":43,"time":95.85704700000001,"velocity":0.3937007874015748},{"duration":0.14285699999999224,"midi":81,"time":95.99990400000002,"velocity":0.3937007874015748},{"duration":0.14285699999999224,"midi":74,"time":95.99990400000002,"velocity":0.3937007874015748},{"duration":0.2857139999999845,"midi":38,"time":95.99990400000002,"velocity":0.3937007874015748},{"duration":0.2857139999999845,"midi":50,"time":95.99990400000002,"velocity":0.3937007874015748},{"duration":0.42857100000000514,"midi":69,"time":96.14276100000001,"velocity":0.3937007874015748},{"duration":0.42857100000000514,"midi":74,"time":96.14276100000001,"velocity":0.3937007874015748},{"duration":0.42857100000000514,"midi":65,"time":96.14276100000001,"velocity":0.3937007874015748},{"duration":0.14285700000000645,"midi":50,"time":96.285618,"velocity":0.3937007874015748},{"duration":0.14285700000000645,"midi":38,"time":96.285618,"velocity":0.3937007874015748},{"duration":0.2857139999999987,"midi":38,"time":96.428475,"velocity":0.3937007874015748},{"duration":0.2857139999999987,"midi":45,"time":96.428475,"velocity":0.3937007874015748},{"duration":0.14285699999999224,"midi":74,"time":96.57133200000001,"velocity":0.3937007874015748},{"duration":0.14285700000000645,"midi":76,"time":96.714189,"velocity":0.3937007874015748},{"duration":0.14285700000000645,"midi":45,"time":96.714189,"velocity":0.3937007874015748},{"duration":0.14285700000000645,"midi":38,"time":96.714189,"velocity":0.3937007874015748},{"duration":0.14285700000000645,"midi":70,"time":96.85704600000001,"velocity":0.3937007874015748},{"duration":0.14285700000000645,"midi":77,"time":96.85704600000001,"velocity":0.3937007874015748},{"duration":0.14285700000000645,"midi":74,"time":96.85704600000001,"velocity":0.3937007874015748},{"duration":0.2857139999999987,"midi":34,"time":96.85704600000001,"velocity":0.3937007874015748},{"duration":0.2857139999999987,"midi":46,"time":96.85704600000001,"velocity":0.3937007874015748},{"duration":0.14285699999999224,"midi":70,"time":97.14276000000001,"velocity":0.3937007874015748},{"duration":0.14285699999999224,"midi":74,"time":97.14276000000001,"velocity":0.3937007874015748},{"duration":0.14285699999999224,"midi":34,"time":97.14276000000001,"velocity":0.3937007874015748},{"duration":0.14285699999999224,"midi":77,"time":97.14276000000001,"velocity":0.3937007874015748},{"duration":0.14285699999999224,"midi":46,"time":97.14276000000001,"velocity":0.3937007874015748},{"duration":0.2857139999999987,"midi":46,"time":97.285617,"velocity":0.3937007874015748},{"duration":0.2857139999999987,"midi":34,"time":97.285617,"velocity":0.3937007874015748},{"duration":0.14285699999999224,"midi":70,"time":97.42847400000001,"velocity":0.3937007874015748},{"duration":0.14285699999999224,"midi":79,"time":97.42847400000001,"velocity":0.3937007874015748},{"duration":0.14285699999999224,"midi":74,"time":97.42847400000001,"velocity":0.3937007874015748},{"duration":0.14285700000000645,"midi":34,"time":97.571331,"velocity":0.3937007874015748},{"duration":0.14285700000000645,"midi":46,"time":97.571331,"velocity":0.3937007874015748},{"duration":0.14285700000000645,"midi":81,"time":97.71418800000001,"velocity":0.3937007874015748},{"duration":0.2857139999999987,"midi":50,"time":97.71418800000001,"velocity":0.3937007874015748},{"duration":0.14285700000000645,"midi":74,"time":97.71418800000001,"velocity":0.3937007874015748},{"duration":0.2857139999999987,"midi":38,"time":97.71418800000001,"velocity":0.3937007874015748},{"duration":0.14285700000000645,"midi":77,"time":97.71418800000001,"velocity":0.3937007874015748},{"duration":0.14285699999999224,"midi":74,"time":97.85704500000001,"velocity":0.3937007874015748},{"duration":0.14285700000000645,"midi":38,"time":97.999902,"velocity":0.3937007874015748},{"duration":0.14285700000000645,"midi":50,"time":97.999902,"velocity":0.3937007874015748},{"duration":0.2857139999999987,"midi":38,"time":98.14275900000001,"velocity":0.3937007874015748},{"duration":0.2857139999999987,"midi":50,"time":98.14275900000001,"velocity":0.3937007874015748},{"duration":0.14285699999999224,"midi":74,"time":98.28561600000002,"velocity":0.3937007874015748},{"duration":0.14285699999999224,"midi":50,"time":98.42847300000001,"velocity":0.3937007874015748},{"duration":0.14285699999999224,"midi":38,"time":98.42847300000001,"velocity":0.3937007874015748},{"duration":0.14285699999999224,"midi":77,"time":98.42847300000001,"velocity":0.3937007874015748},{"duration":0.14285700000000645,"midi":73,"time":98.57133,"velocity":0.3937007874015748},{"duration":0.14285700000000645,"midi":69,"time":98.57133,"velocity":0.3937007874015748},{"duration":0.2857139999999987,"midi":45,"time":98.57133,"velocity":0.3937007874015748},{"duration":0.2857139999999987,"midi":33,"time":98.57133,"velocity":0.3937007874015748},{"duration":0.14285700000000645,"midi":76,"time":98.57133,"velocity":0.3937007874015748},{"duration":0.14285700000000645,"midi":33,"time":98.857044,"velocity":0.3937007874015748},{"duration":0.14285700000000645,"midi":76,"time":98.857044,"velocity":0.3937007874015748},{"duration":0.14285700000000645,"midi":45,"time":98.857044,"velocity":0.3937007874015748},{"duration":0.14285700000000645,"midi":69,"time":98.857044,"velocity":0.3937007874015748},{"duration":0.14285700000000645,"midi":73,"time":98.857044,"velocity":0.3937007874015748},{"duration":0.2857139999999987,"midi":45,"time":98.99990100000001,"velocity":0.3937007874015748},{"duration":0.2857139999999987,"midi":33,"time":98.99990100000001,"velocity":0.3937007874015748},{"duration":0.14285699999999224,"midi":74,"time":99.14275800000001,"velocity":0.3937007874015748},{"duration":0.14285700000000645,"midi":73,"time":99.285615,"velocity":0.3937007874015748},{"duration":0.14285700000000645,"midi":33,"time":99.285615,"velocity":0.3937007874015748},{"duration":0.14285700000000645,"midi":45,"time":99.285615,"velocity":0.3937007874015748},{"duration":0.2857139999999845,"midi":74,"time":99.42847200000001,"velocity":0.3937007874015748},{"duration":0.2857139999999845,"midi":50,"time":99.42847200000001,"velocity":0.3937007874015748},{"duration":0.2857139999999845,"midi":69,"time":99.42847200000001,"velocity":0.3937007874015748},{"duration":0.2857139999999845,"midi":38,"time":99.42847200000001,"velocity":0.3937007874015748},{"duration":0.2857140000000129,"midi":38,"time":99.714186,"velocity":0.3937007874015748},{"duration":0.2857140000000129,"midi":69,"time":99.714186,"velocity":0.3937007874015748},{"duration":0.2857140000000129,"midi":74,"time":99.714186,"velocity":0.3937007874015748},{"duration":0.2857140000000129,"midi":50,"time":99.714186,"velocity":0.3937007874015748},{"duration":0.2857139999999987,"midi":69,"time":99.99990000000001,"velocity":0.3937007874015748},{"duration":0.2857139999999987,"midi":72,"time":99.99990000000001,"velocity":0.3937007874015748},{"duration":0.2857139999999987,"midi":36,"time":99.99990000000001,"velocity":0.3937007874015748},{"duration":0.2857139999999987,"midi":76,"time":99.99990000000001,"velocity":0.3937007874015748},{"duration":0.2857139999999987,"midi":48,"time":99.99990000000001,"velocity":0.3937007874015748},{"duration":0.2857139999999987,"midi":48,"time":100.28561400000001,"velocity":0.3937007874015748},{"duration":0.2857139999999987,"midi":74,"time":100.28561400000001,"velocity":0.3937007874015748},{"duration":0.2857139999999987,"midi":77,"time":100.28561400000001,"velocity":0.3937007874015748},{"duration":0.2857139999999987,"midi":72,"time":100.28561400000001,"velocity":0.3937007874015748},{"duration":0.2857139999999987,"midi":36,"time":100.28561400000001,"velocity":0.3937007874015748},{"duration":0.2857139999999987,"midi":36,"time":100.57132800000001,"velocity":0.3937007874015748},{"duration":0.14285700000000645,"midi":77,"time":100.57132800000001,"velocity":0.3937007874015748},{"duration":0.2857139999999987,"midi":48,"time":100.57132800000001,"velocity":0.3937007874015748},{"duration":0.14285699999999224,"midi":77,"time":100.71418500000001,"velocity":0.3937007874015748},{"duration":0.2857139999999987,"midi":74,"time":100.857042,"velocity":0.3937007874015748},{"duration":0.2857139999999987,"midi":70,"time":100.857042,"velocity":0.3937007874015748},{"duration":0.2857139999999987,"midi":46,"time":100.857042,"velocity":0.3937007874015748},{"duration":0.2857139999999987,"midi":34,"time":100.857042,"velocity":0.3937007874015748},{"duration":0.2857139999999987,"midi":79,"time":100.857042,"velocity":0.3937007874015748},{"duration":0.5714280000000116,"midi":74,"time":101.142756,"velocity":0.3937007874015748},{"duration":0.5714280000000116,"midi":77,"time":101.142756,"velocity":0.3937007874015748},{"duration":0.5714280000000116,"midi":81,"time":101.142756,"velocity":0.3937007874015748},{"duration":0.2857139999999987,"midi":45,"time":101.142756,"velocity":0.3937007874015748},{"duration":0.2857139999999987,"midi":33,"time":101.142756,"velocity":0.3937007874015748},{"duration":0.14285700000000645,"midi":45,"time":101.42847,"velocity":0.3937007874015748},{"duration":0.14285700000000645,"midi":33,"time":101.42847,"velocity":0.3937007874015748},{"duration":0.2857139999999987,"midi":33,"time":101.57132700000001,"velocity":0.3937007874015748},{"duration":0.2857139999999987,"midi":45,"time":101.57132700000001,"velocity":0.3937007874015748},{"duration":0.14285699999999224,"midi":77,"time":101.71418400000002,"velocity":0.3937007874015748},{"duration":0.14285699999999224,"midi":74,"time":101.85704100000001,"velocity":0.3937007874015748},{"duration":0.14285699999999224,"midi":33,"time":101.85704100000001,"velocity":0.3937007874015748},{"duration":0.14285699999999224,"midi":45,"time":101.85704100000001,"velocity":0.3937007874015748},{"duration":0.2857139999999987,"midi":33,"time":101.999898,"velocity":0.3937007874015748},{"duration":0.2857139999999987,"midi":45,"time":101.999898,"velocity":0.3937007874015748},{"duration":0.8571420000000103,"midi":69,"time":101.999898,"velocity":0.3937007874015748},{"duration":0.14285700000000645,"midi":45,"time":102.285612,"velocity":0.3937007874015748},{"duration":0.14285700000000645,"midi":33,"time":102.285612,"velocity":0.3937007874015748},{"duration":0.2857139999999987,"midi":45,"time":102.428469,"velocity":0.3937007874015748},{"duration":0.2857139999999987,"midi":33,"time":102.428469,"velocity":0.3937007874015748},{"duration":0.14285700000000645,"midi":45,"time":102.714183,"velocity":0.3937007874015748},{"duration":0.14285700000000645,"midi":33,"time":102.714183,"velocity":0.3937007874015748},{"duration":0.5714279999999974,"midi":77,"time":102.85704000000001,"velocity":0.3937007874015748},{"duration":0.2857139999999987,"midi":31,"time":102.85704000000001,"velocity":0.3937007874015748},{"duration":0.2857139999999987,"midi":43,"time":102.85704000000001,"velocity":0.3937007874015748},{"duration":0.5714279999999974,"midi":82,"time":102.85704000000001,"velocity":0.3937007874015748},{"duration":0.5714279999999974,"midi":74,"time":102.85704000000001,"velocity":0.3937007874015748},{"duration":0.14285699999999224,"midi":31,"time":103.14275400000001,"velocity":0.3937007874015748},{"duration":0.14285699999999224,"midi":43,"time":103.14275400000001,"velocity":0.3937007874015748},{"duration":0.2857139999999987,"midi":31,"time":103.285611,"velocity":0.3937007874015748},{"duration":0.2857139999999987,"midi":43,"time":103.285611,"velocity":0.3937007874015748},{"duration":0.14285699999999224,"midi":77,"time":103.42846800000001,"velocity":0.3937007874015748},{"duration":0.14285700000000645,"midi":43,"time":103.571325,"velocity":0.3937007874015748},{"duration":0.14285700000000645,"midi":74,"time":103.571325,"velocity":0.3937007874015748},{"duration":0.14285700000000645,"midi":31,"time":103.571325,"velocity":0.3937007874015748},{"duration":0.2857139999999987,"midi":43,"time":103.71418200000001,"velocity":0.3937007874015748},{"duration":0.2857139999999987,"midi":31,"time":103.71418200000001,"velocity":0.3937007874015748},{"duration":0.8571419999999961,"midi":70,"time":103.71418200000001,"velocity":0.3937007874015748},{"duration":0.14285700000000645,"midi":43,"time":103.999896,"velocity":0.3937007874015748},{"duration":0.14285700000000645,"midi":31,"time":103.999896,"velocity":0.3937007874015748},{"duration":0.2857139999999845,"midi":43,"time":104.14275300000001,"velocity":0.3937007874015748},{"duration":0.2857139999999845,"midi":31,"time":104.14275300000001,"velocity":0.3937007874015748},{"duration":0.14285700000000645,"midi":31,"time":104.428467,"velocity":0.3937007874015748},{"duration":0.14285700000000645,"midi":43,"time":104.428467,"velocity":0.3937007874015748},{"duration":0.14285700000000645,"midi":76,"time":104.571324,"velocity":0.3937007874015748},{"duration":0.14285700000000645,"midi":69,"time":104.571324,"velocity":0.3937007874015748},{"duration":0.2857139999999987,"midi":45,"time":104.571324,"velocity":0.3937007874015748},{"duration":0.2857139999999987,"midi":33,"time":104.571324,"velocity":0.3937007874015748},{"duration":0.2857139999999987,"midi":76,"time":104.71418100000001,"velocity":0.3937007874015748},{"duration":0.14285700000000645,"midi":45,"time":104.857038,"velocity":0.3937007874015748},{"duration":0.14285700000000645,"midi":33,"time":104.857038,"velocity":0.3937007874015748},{"duration":0.2857139999999987,"midi":33,"time":104.99989500000001,"velocity":0.3937007874015748},{"duration":0.42857100000000514,"midi":74,"time":104.99989500000001,"velocity":0.3937007874015748},{"duration":0.2857139999999987,"midi":45,"time":104.99989500000001,"velocity":0.3937007874015748},{"duration":0.42857100000000514,"midi":69,"time":104.99989500000001,"velocity":0.3937007874015748},{"duration":0.42857100000000514,"midi":65,"time":104.99989500000001,"velocity":0.3937007874015748},{"duration":0.14285700000000645,"midi":33,"time":105.28560900000001,"velocity":0.3937007874015748},{"duration":0.14285700000000645,"midi":45,"time":105.28560900000001,"velocity":0.3937007874015748},{"duration":0.2857139999999845,"midi":45,"time":105.42846600000001,"velocity":0.3937007874015748},{"duration":0.42857099999999093,"midi":69,"time":105.42846600000001,"velocity":0.3937007874015748},{"duration":0.2857139999999845,"midi":33,"time":105.42846600000001,"velocity":0.3937007874015748},{"duration":0.42857099999999093,"midi":77,"time":105.42846600000001,"velocity":0.3937007874015748},{"duration":0.42857099999999093,"midi":73,"time":105.42846600000001,"velocity":0.3937007874015748},{"duration":0.14285700000000645,"midi":45,"time":105.71418,"velocity":0.3937007874015748},{"duration":0.14285700000000645,"midi":33,"time":105.71418,"velocity":0.3937007874015748},{"duration":0.2857139999999987,"midi":45,"time":105.857037,"velocity":0.3937007874015748},{"duration":0.2857139999999987,"midi":33,"time":105.857037,"velocity":0.3937007874015748},{"duration":0.14285699999999224,"midi":65,"time":105.99989400000001,"velocity":0.3937007874015748},{"duration":0.14285700000000645,"midi":67,"time":106.142751,"velocity":0.3937007874015748},{"duration":0.14285700000000645,"midi":45,"time":106.142751,"velocity":0.3937007874015748},{"duration":0.14285700000000645,"midi":33,"time":106.142751,"velocity":0.3937007874015748},{"duration":0.14285700000000645,"midi":69,"time":106.28560800000001,"velocity":0.3937007874015748},{"duration":0.2857139999999987,"midi":50,"time":106.28560800000001,"velocity":0.3937007874015748},{"duration":0.14285700000000645,"midi":65,"time":106.28560800000001,"velocity":0.3937007874015748},{"duration":0.14285700000000645,"midi":62,"time":106.28560800000001,"velocity":0.3937007874015748},{"duration":0.2857139999999987,"midi":38,"time":106.28560800000001,"velocity":0.3937007874015748},{"duration":0.14285700000000645,"midi":50,"time":106.57132200000001,"velocity":0.3937007874015748},{"duration":0.14285700000000645,"midi":62,"time":106.57132200000001,"velocity":0.3937007874015748},{"duration":0.14285700000000645,"midi":69,"time":106.57132200000001,"velocity":0.3937007874015748},{"duration":0.14285700000000645,"midi":38,"time":106.57132200000001,"velocity":0.3937007874015748},{"duration":0.14285700000000645,"midi":65,"time":106.57132200000001,"velocity":0.3937007874015748},{"duration":0.2857139999999845,"midi":38,"time":106.71417900000002,"velocity":0.3937007874015748},{"duration":0.2857139999999845,"midi":50,"time":106.71417900000002,"velocity":0.3937007874015748},{"duration":0.14285699999999224,"midi":69,"time":106.85703600000001,"velocity":0.3937007874015748},{"duration":0.14285699999999224,"midi":62,"time":106.85703600000001,"velocity":0.3937007874015748},{"duration":0.14285699999999224,"midi":65,"time":106.85703600000001,"velocity":0.3937007874015748},{"duration":0.14285700000000645,"midi":50,"time":106.999893,"velocity":0.3937007874015748},{"duration":0.14285700000000645,"midi":38,"time":106.999893,"velocity":0.3937007874015748},{"duration":0.2857139999999987,"midi":50,"time":107.14275,"velocity":0.3937007874015748},{"duration":0.2857139999999987,"midi":38,"time":107.14275,"velocity":0.3937007874015748},{"duration":0.14285700000000645,"midi":70,"time":107.14275,"velocity":0.3937007874015748},{"duration":0.14285700000000645,"midi":62,"time":107.14275,"velocity":0.3937007874015748},{"duration":0.14285700000000645,"midi":67,"time":107.14275,"velocity":0.3937007874015748},{"duration":0.14285699999999224,"midi":69,"time":107.28560700000001,"velocity":0.3937007874015748},{"duration":0.14285699999999224,"midi":62,"time":107.28560700000001,"velocity":0.3937007874015748},{"duration":0.14285699999999224,"midi":65,"time":107.28560700000001,"velocity":0.3937007874015748},{"duration":0.14285700000000645,"midi":38,"time":107.428464,"velocity":0.3937007874015748},{"duration":0.14285700000000645,"midi":50,"time":107.428464,"velocity":0.3937007874015748},{"duration":0.2857139999999987,"midi":50,"time":107.57132100000001,"velocity":0.3937007874015748},{"duration":0.2857139999999987,"midi":38,"time":107.57132100000001,"velocity":0.3937007874015748},{"duration":0.14285699999999224,"midi":38,"time":107.85703500000001,"velocity":0.3937007874015748},{"duration":0.14285699999999224,"midi":50,"time":107.85703500000001,"velocity":0.3937007874015748},{"duration":0.14285700000000645,"midi":64,"time":107.999892,"velocity":0.3937007874015748},{"duration":0.2857139999999987,"midi":36,"time":107.999892,"velocity":0.3937007874015748},{"duration":0.14285700000000645,"midi":67,"time":107.999892,"velocity":0.3937007874015748},{"duration":0.14285700000000645,"midi":60,"time":107.999892,"velocity":0.3937007874015748},{"duration":0.2857139999999987,"midi":48,"time":107.999892,"velocity":0.3937007874015748},{"duration":0.14285700000000645,"midi":36,"time":108.285606,"velocity":0.3937007874015748},{"duration":0.14285700000000645,"midi":60,"time":108.285606,"velocity":0.3937007874015748},{"duration":0.14285700000000645,"midi":67,"time":108.285606,"velocity":0.3937007874015748},{"duration":0.14285700000000645,"midi":48,"time":108.285606,"velocity":0.3937007874015748},{"duration":0.14285700000000645,"midi":64,"time":108.285606,"velocity":0.3937007874015748},{"duration":0.2857139999999987,"midi":36,"time":108.42846300000001,"velocity":0.3937007874015748},{"duration":0.2857139999999987,"midi":48,"time":108.42846300000001,"velocity":0.3937007874015748},{"duration":0.14285699999999224,"midi":60,"time":108.57132000000001,"velocity":0.3937007874015748},{"duration":0.14285699999999224,"midi":67,"time":108.57132000000001,"velocity":0.3937007874015748},{"duration":0.14285699999999224,"midi":64,"time":108.57132000000001,"velocity":0.3937007874015748},{"duration":0.14285700000000645,"midi":48,"time":108.714177,"velocity":0.3937007874015748},{"duration":0.14285700000000645,"midi":36,"time":108.714177,"velocity":0.3937007874015748},{"duration":0.14285700000000645,"midi":60,"time":108.85703400000001,"velocity":0.3937007874015748},{"duration":0.14285700000000645,"midi":67,"time":108.85703400000001,"velocity":0.3937007874015748},{"duration":0.2857139999999987,"midi":41,"time":108.85703400000001,"velocity":0.3937007874015748},{"duration":0.2857139999999987,"midi":53,"time":108.85703400000001,"velocity":0.3937007874015748},{"duration":0.14285700000000645,"midi":64,"time":108.85703400000001,"velocity":0.3937007874015748},{"duration":0.14285699999999224,"midi":69,"time":108.99989100000002,"velocity":0.3937007874015748},{"duration":0.14285699999999224,"midi":65,"time":108.99989100000002,"velocity":0.3937007874015748},{"duration":0.14285699999999224,"midi":60,"time":108.99989100000002,"velocity":0.3937007874015748},{"duration":0.14285699999999224,"midi":53,"time":109.14274800000001,"velocity":0.3937007874015748},{"duration":0.14285699999999224,"midi":41,"time":109.14274800000001,"velocity":0.3937007874015748},{"duration":0.2857139999999987,"midi":53,"time":109.285605,"velocity":0.3937007874015748},{"duration":0.2857139999999987,"midi":41,"time":109.285605,"velocity":0.3937007874015748},{"duration":0.14285700000000645,"midi":41,"time":109.571319,"velocity":0.3937007874015748},{"duration":0.14285700000000645,"midi":53,"time":109.571319,"velocity":0.3937007874015748},{"duration":0.14285699999999224,"midi":62,"time":109.71417600000001,"velocity":0.3937007874015748},{"duration":0.2857140000000129,"midi":50,"time":109.71417600000001,"velocity":0.3937007874015748},{"duration":0.14285699999999224,"midi":69,"time":109.71417600000001,"velocity":0.3937007874015748},{"duration":0.14285699999999224,"midi":65,"time":109.71417600000001,"velocity":0.3937007874015748},{"duration":0.2857140000000129,"midi":38,"time":109.71417600000001,"velocity":0.3937007874015748},{"duration":0.14285699999999224,"midi":50,"time":109.99989000000002,"velocity":0.3937007874015748},{"duration":0.14285699999999224,"midi":65,"time":109.99989000000002,"velocity":0.3937007874015748},{"duration":0.14285699999999224,"midi":69,"time":109.99989000000002,"velocity":0.3937007874015748},{"duration":0.14285699999999224,"midi":38,"time":109.99989000000002,"velocity":0.3937007874015748},{"duration":0.14285699999999224,"midi":62,"time":109.99989000000002,"velocity":0.3937007874015748},{"duration":0.2857139999999987,"midi":50,"time":110.14274700000001,"velocity":0.3937007874015748},{"duration":0.2857139999999987,"midi":38,"time":110.14274700000001,"velocity":0.3937007874015748},{"duration":0.14285700000000645,"midi":65,"time":110.285604,"velocity":0.3937007874015748},{"duration":0.14285700000000645,"midi":62,"time":110.285604,"velocity":0.3937007874015748},{"duration":0.14285700000000645,"midi":69,"time":110.285604,"velocity":0.3937007874015748},{"duration":0.14285699999999224,"midi":50,"time":110.42846100000001,"velocity":0.3937007874015748},{"duration":0.14285699999999224,"midi":38,"time":110.42846100000001,"velocity":0.3937007874015748},{"duration":0.14285699999999224,"midi":70,"time":110.571318,"velocity":0.3937007874015748},{"duration":0.2857140000000129,"midi":38,"time":110.571318,"velocity":0.3937007874015748},{"duration":0.14285699999999224,"midi":67,"time":110.571318,"velocity":0.3937007874015748},{"duration":0.2857140000000129,"midi":50,"time":110.571318,"velocity":0.3937007874015748},{"duration":0.14285699999999224,"midi":62,"time":110.571318,"velocity":0.3937007874015748},{"duration":0.14285700000002066,"midi":62,"time":110.714175,"velocity":0.3937007874015748},{"duration":0.14285700000002066,"midi":65,"time":110.714175,"velocity":0.3937007874015748},{"duration":0.14285700000002066,"midi":69,"time":110.714175,"velocity":0.3937007874015748},{"duration":0.14285699999999224,"midi":50,"time":110.85703200000002,"velocity":0.3937007874015748},{"duration":0.14285699999999224,"midi":38,"time":110.85703200000002,"velocity":0.3937007874015748},{"duration":0.2857140000000129,"midi":50,"time":110.99988900000001,"velocity":0.3937007874015748},{"duration":0.2857140000000129,"midi":38,"time":110.99988900000001,"velocity":0.3937007874015748},{"duration":0.14285699999999224,"midi":38,"time":111.28560300000002,"velocity":0.3937007874015748},{"duration":0.14285699999999224,"midi":50,"time":111.28560300000002,"velocity":0.3937007874015748},{"duration":0.2857139999999987,"midi":33,"time":111.42846000000002,"velocity":0.3937007874015748},{"duration":0.2857139999999987,"midi":45,"time":111.42846000000002,"velocity":0.3937007874015748},{"duration":0.14285699999999224,"midi":67,"time":111.42846000000002,"velocity":0.3937007874015748},{"duration":0.14285699999999224,"midi":61,"time":111.42846000000002,"velocity":0.3937007874015748},{"duration":0.14285699999999224,"midi":64,"time":111.42846000000002,"velocity":0.3937007874015748},{"duration":0.14285699999999224,"midi":65,"time":111.71417400000001,"velocity":0.3937007874015748},{"duration":0.14285699999999224,"midi":45,"time":111.71417400000001,"velocity":0.3937007874015748},{"duration":0.14285699999999224,"midi":33,"time":111.71417400000001,"velocity":0.3937007874015748},{"duration":0.14285699999999224,"midi":61,"time":111.71417400000001,"velocity":0.3937007874015748},{"duration":0.2857140000000129,"midi":45,"time":111.857031,"velocity":0.3937007874015748},{"duration":0.2857140000000129,"midi":33,"time":111.857031,"velocity":0.3937007874015748},{"duration":0.14285700000002066,"midi":64,"time":111.999888,"velocity":0.3937007874015748},{"duration":0.14285700000002066,"midi":61,"time":111.999888,"velocity":0.3937007874015748},{"duration":0.14285699999999224,"midi":33,"time":112.14274500000002,"velocity":0.3937007874015748},{"duration":0.14285699999999224,"midi":45,"time":112.14274500000002,"velocity":0.3937007874015748},{"duration":0.14285699999999224,"midi":62,"time":112.28560200000001,"velocity":0.3937007874015748},{"duration":0.14285699999999224,"midi":57,"time":112.28560200000001,"velocity":0.3937007874015748},{"duration":0.2857140000000129,"midi":50,"time":112.28560200000001,"velocity":0.3937007874015748},{"duration":0.2857140000000129,"midi":38,"time":112.28560200000001,"velocity":0.3937007874015748},{"duration":0.14285699999999224,"midi":53,"time":112.28560200000001,"velocity":0.3937007874015748},{"duration":0.14285699999997803,"midi":38,"time":112.57131600000002,"velocity":0.3937007874015748},{"duration":0.14285699999997803,"midi":50,"time":112.57131600000002,"velocity":0.3937007874015748},{"duration":0.2857140000000129,"midi":38,"time":112.714173,"velocity":0.3937007874015748},{"duration":0.2857140000000129,"midi":50,"time":112.714173,"velocity":0.3937007874015748},{"duration":0.14285700000002066,"midi":62,"time":112.85703,"velocity":0.3937007874015748},{"duration":0.14285699999999224,"midi":64,"time":112.99988700000002,"velocity":0.3937007874015748},{"duration":0.14285699999999224,"midi":50,"time":112.99988700000002,"velocity":0.3937007874015748},{"duration":0.14285699999999224,"midi":38,"time":112.99988700000002,"velocity":0.3937007874015748},{"duration":0.2857140000000129,"midi":50,"time":113.14274400000001,"velocity":0.3937007874015748},{"duration":0.5714279999999974,"midi":62,"time":113.14274400000001,"velocity":0.3937007874015748},{"duration":0.2857140000000129,"midi":38,"time":113.14274400000001,"velocity":0.3937007874015748},{"duration":0.5714279999999974,"midi":65,"time":113.14274400000001,"velocity":0.3937007874015748},{"duration":0.5714279999999974,"midi":57,"time":113.14274400000001,"velocity":0.3937007874015748},{"duration":0.14285699999999224,"midi":38,"time":113.42845800000002,"velocity":0.3937007874015748},{"duration":0.14285699999999224,"midi":50,"time":113.42845800000002,"velocity":0.3937007874015748},{"duration":0.2857139999999987,"midi":38,"time":113.57131500000001,"velocity":0.3937007874015748},{"duration":0.2857139999999987,"midi":50,"time":113.57131500000001,"velocity":0.3937007874015748},{"duration":0.14285700000000645,"midi":67,"time":113.714172,"velocity":0.3937007874015748},{"duration":0.14285699999999224,"midi":69,"time":113.85702900000001,"velocity":0.3937007874015748},{"duration":0.14285699999999224,"midi":38,"time":113.85702900000001,"velocity":0.3937007874015748},{"duration":0.14285699999999224,"midi":50,"time":113.85702900000001,"velocity":0.3937007874015748},{"duration":0.2857140000000129,"midi":60,"time":113.999886,"velocity":0.3937007874015748},{"duration":0.2857140000000129,"midi":36,"time":113.999886,"velocity":0.3937007874015748},{"duration":0.2857140000000129,"midi":48,"time":113.999886,"velocity":0.3937007874015748},{"duration":0.2857140000000129,"midi":55,"time":113.999886,"velocity":0.3937007874015748},{"duration":0.2857140000000129,"midi":67,"time":113.999886,"velocity":0.3937007874015748},{"duration":0.14285699999999224,"midi":48,"time":114.28560000000002,"velocity":0.3937007874015748},{"duration":0.2857139999999845,"midi":65,"time":114.28560000000002,"velocity":0.3937007874015748},{"duration":0.14285699999999224,"midi":36,"time":114.28560000000002,"velocity":0.3937007874015748},{"duration":0.2857139999999845,"midi":60,"time":114.28560000000002,"velocity":0.3937007874015748},{"duration":0.2857139999999845,"midi":55,"time":114.28560000000002,"velocity":0.3937007874015748},{"duration":0.2857140000000129,"midi":48,"time":114.42845700000001,"velocity":0.3937007874015748},{"duration":0.2857140000000129,"midi":36,"time":114.42845700000001,"velocity":0.3937007874015748},{"duration":0.2857140000000129,"midi":64,"time":114.571314,"velocity":0.3937007874015748},{"duration":0.2857140000000129,"midi":55,"time":114.571314,"velocity":0.3937007874015748},{"duration":0.2857140000000129,"midi":60,"time":114.571314,"velocity":0.3937007874015748},{"duration":0.14285699999999224,"midi":36,"time":114.71417100000002,"velocity":0.3937007874015748},{"duration":0.14285699999999224,"midi":48,"time":114.71417100000002,"velocity":0.3937007874015748},{"duration":0.2857139999999987,"midi":60,"time":114.85702800000001,"velocity":0.3937007874015748},{"duration":0.2857139999999987,"midi":53,"time":114.85702800000001,"velocity":0.3937007874015748},{"duration":0.2857139999999987,"midi":41,"time":114.85702800000001,"velocity":0.3937007874015748},{"duration":0.2857139999999987,"midi":57,"time":114.85702800000001,"velocity":0.3937007874015748},{"duration":0.2857139999999987,"midi":65,"time":114.85702800000001,"velocity":0.3937007874015748},{"duration":0.14285699999999224,"midi":41,"time":115.14274200000001,"velocity":0.3937007874015748},{"duration":0.2857139999999845,"midi":60,"time":115.14274200000001,"velocity":0.3937007874015748},{"duration":0.14285699999999224,"midi":53,"time":115.14274200000001,"velocity":0.3937007874015748},{"duration":0.2857139999999845,"midi":67,"time":115.14274200000001,"velocity":0.3937007874015748},{"duration":0.2857139999999845,"midi":57,"time":115.14274200000001,"velocity":0.3937007874015748},{"duration":0.2857140000000129,"midi":41,"time":115.285599,"velocity":0.3937007874015748},{"duration":0.2857140000000129,"midi":53,"time":115.285599,"velocity":0.3937007874015748},{"duration":0.2857140000000129,"midi":57,"time":115.428456,"velocity":0.3937007874015748},{"duration":0.2857140000000129,"midi":60,"time":115.428456,"velocity":0.3937007874015748},{"duration":0.2857140000000129,"midi":69,"time":115.428456,"velocity":0.3937007874015748},{"duration":0.14285699999999224,"midi":53,"time":115.57131300000002,"velocity":0.3937007874015748},{"duration":0.14285699999999224,"midi":41,"time":115.57131300000002,"velocity":0.3937007874015748},{"duration":0.5714279999999974,"midi":67,"time":115.71417000000001,"velocity":0.3937007874015748},{"duration":0.2857140000000129,"midi":36,"time":115.71417000000001,"velocity":0.3937007874015748},{"duration":0.5714279999999974,"midi":60,"time":115.71417000000001,"velocity":0.3937007874015748},{"duration":0.5714279999999974,"midi":64,"time":115.71417000000001,"velocity":0.3937007874015748},{"duration":0.2857140000000129,"midi":48,"time":115.71417000000001,"velocity":0.3937007874015748},{"duration":0.14285699999999224,"midi":36,"time":115.99988400000002,"velocity":0.3937007874015748},{"duration":0.14285699999999224,"midi":48,"time":115.99988400000002,"velocity":0.3937007874015748},{"duration":0.2857139999999987,"midi":36,"time":116.14274100000002,"velocity":0.3937007874015748},{"duration":0.2857139999999987,"midi":48,"time":116.14274100000002,"velocity":0.3937007874015748},{"duration":0.14285700000000645,"midi":65,"time":116.28559800000001,"velocity":0.3937007874015748},{"duration":0.14285699999999224,"midi":36,"time":116.42845500000001,"velocity":0.3937007874015748},{"duration":0.14285699999999224,"midi":48,"time":116.42845500000001,"velocity":0.3937007874015748},{"duration":0.14285699999999224,"midi":67,"time":116.42845500000001,"velocity":0.3937007874015748},{"duration":0.5714279999999974,"midi":65,"time":116.571312,"velocity":0.3937007874015748},{"duration":0.5714279999999974,"midi":62,"time":116.571312,"velocity":0.3937007874015748},{"duration":0.2857140000000129,"midi":50,"time":116.571312,"velocity":0.3937007874015748},{"duration":0.5714279999999974,"midi":69,"time":116.571312,"velocity":0.3937007874015748},{"duration":0.2857140000000129,"midi":38,"time":116.571312,"velocity":0.3937007874015748},{"duration":0.14285699999999224,"midi":50,"time":116.85702600000002,"velocity":0.3937007874015748},{"duration":0.14285699999999224,"midi":38,"time":116.85702600000002,"velocity":0.3937007874015748},{"duration":0.2857140000000129,"midi":38,"time":116.99988300000001,"velocity":0.3937007874015748},{"duration":0.2857140000000129,"midi":50,"time":116.99988300000001,"velocity":0.3937007874015748},{"duration":0.14285700000002066,"midi":67,"time":117.14274,"velocity":0.3937007874015748},{"duration":0.14285699999999224,"midi":65,"time":117.28559700000002,"velocity":0.3937007874015748},{"duration":0.14285699999999224,"midi":50,"time":117.28559700000002,"velocity":0.3937007874015748},{"duration":0.14285699999999224,"midi":38,"time":117.28559700000002,"velocity":0.3937007874015748},{"duration":0.2857139999999987,"midi":45,"time":117.42845400000002,"velocity":0.3937007874015748},{"duration":0.2857139999999987,"midi":64,"time":117.42845400000002,"velocity":0.3937007874015748},{"duration":0.2857139999999987,"midi":61,"time":117.42845400000002,"velocity":0.3937007874015748},{"duration":0.2857139999999987,"midi":33,"time":117.42845400000002,"velocity":0.3937007874015748},{"duration":0.2857139999999845,"midi":61,"time":117.71416800000002,"velocity":0.3937007874015748},{"duration":0.2857139999999845,"midi":65,"time":117.71416800000002,"velocity":0.3937007874015748},{"duration":0.14285699999999224,"midi":45,"time":117.71416800000002,"velocity":0.3937007874015748},{"duration":0.14285699999999224,"midi":33,"time":117.71416800000002,"velocity":0.3937007874015748},{"duration":0.2857140000000129,"midi":33,"time":117.85702500000001,"velocity":0.3937007874015748},{"duration":0.2857140000000129,"midi":45,"time":117.85702500000001,"velocity":0.3937007874015748},{"duration":0.2857140000000129,"midi":61,"time":117.999882,"velocity":0.3937007874015748},{"duration":0.2857140000000129,"midi":64,"time":117.999882,"velocity":0.3937007874015748},{"duration":0.14285699999999224,"midi":33,"time":118.14273900000002,"velocity":0.3937007874015748},{"duration":0.14285699999999224,"midi":45,"time":118.14273900000002,"velocity":0.3937007874015748},{"duration":0.2857139999999987,"midi":38,"time":118.28559600000001,"velocity":0.3937007874015748},{"duration":0.2857139999999987,"midi":53,"time":118.28559600000001,"velocity":0.3937007874015748},{"duration":0.2857139999999987,"midi":62,"time":118.28559600000001,"velocity":0.3937007874015748},{"duration":0.2857139999999987,"midi":50,"time":118.28559600000001,"velocity":0.3937007874015748},{"duration":0.2857139999999987,"midi":57,"time":118.28559600000001,"velocity":0.3937007874015748},{"duration":0.14285699999999224,"midi":50,"time":118.57131000000001,"velocity":0.3937007874015748},{"duration":0.14285699999999224,"midi":38,"time":118.57131000000001,"velocity":0.3937007874015748},{"duration":0.2857140000000129,"midi":38,"time":118.714167,"velocity":0.3937007874015748},{"duration":0.2857140000000129,"midi":50,"time":118.714167,"velocity":0.3937007874015748},{"duration":0.14285700000002066,"midi":64,"time":118.857024,"velocity":0.3937007874015748},{"duration":0.14285699999999224,"midi":38,"time":118.99988100000002,"velocity":0.3937007874015748},{"duration":0.14285699999999224,"midi":60,"time":118.99988100000002,"velocity":0.3937007874015748},{"duration":0.14285699999999224,"midi":50,"time":118.99988100000002,"velocity":0.3937007874015748},{"duration":0.2857140000000129,"midi":50,"time":119.14273800000001,"velocity":0.3937007874015748},{"duration":0.2857140000000129,"midi":57,"time":119.14273800000001,"velocity":0.3937007874015748},{"duration":0.2857140000000129,"midi":38,"time":119.14273800000001,"velocity":0.3937007874015748},{"duration":0.2857140000000129,"midi":53,"time":119.14273800000001,"velocity":0.3937007874015748},{"duration":0.2857140000000129,"midi":62,"time":119.14273800000001,"velocity":0.3937007874015748},{"duration":0.14285699999999224,"midi":38,"time":119.42845200000002,"velocity":0.3937007874015748},{"duration":0.14285699999999224,"midi":50,"time":119.42845200000002,"velocity":0.3937007874015748},{"duration":0.2857139999999987,"midi":38,"time":119.57130900000001,"velocity":0.3937007874015748},{"duration":0.2857139999999987,"midi":50,"time":119.57130900000001,"velocity":0.3937007874015748},{"duration":0.14285700000000645,"midi":74,"time":119.714166,"velocity":0.3937007874015748},{"duration":0.14285699999999224,"midi":38,"time":119.85702300000001,"velocity":0.3937007874015748},{"duration":0.14285699999999224,"midi":76,"time":119.85702300000001,"velocity":0.3937007874015748},{"duration":0.14285699999999224,"midi":50,"time":119.85702300000001,"velocity":0.3937007874015748},{"duration":0.2857140000000129,"midi":50,"time":119.99988,"velocity":0.3937007874015748},{"duration":0.2857140000000129,"midi":38,"time":119.99988,"velocity":0.3937007874015748},{"duration":0.5714279999999974,"midi":74,"time":119.99988,"velocity":0.3937007874015748},{"duration":0.5714279999999974,"midi":69,"time":119.99988,"velocity":0.3937007874015748},{"duration":0.5714279999999974,"midi":77,"time":119.99988,"velocity":0.3937007874015748},{"duration":0.14285699999999224,"midi":50,"time":120.28559400000002,"velocity":0.3937007874015748},{"duration":0.14285699999999224,"midi":38,"time":120.28559400000002,"velocity":0.3937007874015748},{"duration":0.2857140000000129,"midi":50,"time":120.42845100000001,"velocity":0.3937007874015748},{"duration":0.2857140000000129,"midi":38,"time":120.42845100000001,"velocity":0.3937007874015748},{"duration":0.14285700000002066,"midi":76,"time":120.571308,"velocity":0.3937007874015748},{"duration":0.14285699999999224,"midi":77,"time":120.71416500000002,"velocity":0.3937007874015748},{"duration":0.14285699999999224,"midi":38,"time":120.71416500000002,"velocity":0.3937007874015748},{"duration":0.14285699999999224,"midi":50,"time":120.71416500000002,"velocity":0.3937007874015748},{"duration":0.2857139999999987,"midi":36,"time":120.85702200000001,"velocity":0.3937007874015748},{"duration":0.2857139999999987,"midi":67,"time":120.85702200000001,"velocity":0.3937007874015748},{"duration":0.2857139999999987,"midi":79,"time":120.85702200000001,"velocity":0.3937007874015748},{"duration":0.2857139999999987,"midi":72,"time":120.85702200000001,"velocity":0.3937007874015748},{"duration":0.2857139999999987,"midi":48,"time":120.85702200000001,"velocity":0.3937007874015748},{"duration":0.2857139999999845,"midi":72,"time":121.14273600000001,"velocity":0.3937007874015748},{"duration":0.14285699999999224,"midi":48,"time":121.14273600000001,"velocity":0.3937007874015748},{"duration":0.2857139999999845,"midi":77,"time":121.14273600000001,"velocity":0.3937007874015748},{"duration":0.14285699999999224,"midi":36,"time":121.14273600000001,"velocity":0.3937007874015748},{"duration":0.2857139999999845,"midi":67,"time":121.14273600000001,"velocity":0.3937007874015748},{"duration":0.2857140000000129,"midi":36,"time":121.285593,"velocity":0.3937007874015748},{"duration":0.2857140000000129,"midi":48,"time":121.285593,"velocity":0.3937007874015748},{"duration":0.2857140000000129,"midi":79,"time":121.42845,"velocity":0.3937007874015748},{"duration":0.2857140000000129,"midi":67,"time":121.42845,"velocity":0.3937007874015748},{"duration":0.2857140000000129,"midi":72,"time":121.42845,"velocity":0.3937007874015748},{"duration":0.14285699999999224,"midi":36,"time":121.57130700000002,"velocity":0.3937007874015748},{"duration":0.14285699999999224,"midi":48,"time":121.57130700000002,"velocity":0.3937007874015748},{"duration":0.2857140000000129,"midi":77,"time":121.71416400000001,"velocity":0.3937007874015748},{"duration":0.2857140000000129,"midi":53,"time":121.71416400000001,"velocity":0.3937007874015748},{"duration":0.2857140000000129,"midi":41,"time":121.71416400000001,"velocity":0.3937007874015748},{"duration":0.2857140000000129,"midi":81,"time":121.71416400000001,"velocity":0.3937007874015748},{"duration":0.2857139999999845,"midi":79,"time":121.99987800000002,"velocity":0.3937007874015748},{"duration":0.2857139999999845,"midi":72,"time":121.99987800000002,"velocity":0.3937007874015748},{"duration":0.14285699999999224,"midi":53,"time":121.99987800000002,"velocity":0.3937007874015748},{"duration":0.14285699999999224,"midi":41,"time":121.99987800000002,"velocity":0.3937007874015748},{"duration":0.2857139999999987,"midi":41,"time":122.14273500000002,"velocity":0.3937007874015748},{"duration":0.2857139999999987,"midi":53,"time":122.14273500000002,"velocity":0.3937007874015748},{"duration":0.2857139999999987,"midi":77,"time":122.28559200000001,"velocity":0.3937007874015748},{"duration":0.2857139999999987,"midi":72,"time":122.28559200000001,"velocity":0.3937007874015748},{"duration":0.14285699999999224,"midi":53,"time":122.42844900000001,"velocity":0.3937007874015748},{"duration":0.14285699999999224,"midi":41,"time":122.42844900000001,"velocity":0.3937007874015748},{"duration":0.2857140000000129,"midi":46,"time":122.571306,"velocity":0.3937007874015748},{"duration":0.2857140000000129,"midi":74,"time":122.571306,"velocity":0.3937007874015748},{"duration":0.2857140000000129,"midi":65,"time":122.571306,"velocity":0.3937007874015748},{"duration":0.2857140000000129,"midi":70,"time":122.571306,"velocity":0.3937007874015748},{"duration":0.2857140000000129,"midi":34,"time":122.571306,"velocity":0.3937007874015748},{"duration":0.14285699999999224,"midi":46,"time":122.85702000000002,"velocity":0.3937007874015748},{"duration":0.14285699999999224,"midi":34,"time":122.85702000000002,"velocity":0.3937007874015748},{"duration":0.2857140000000129,"midi":34,"time":122.99987700000001,"velocity":0.3937007874015748},{"duration":0.2857140000000129,"midi":46,"time":122.99987700000001,"velocity":0.3937007874015748},{"duration":0.14285700000002066,"midi":74,"time":123.142734,"velocity":0.3937007874015748},{"duration":0.14285699999997803,"midi":76,"time":123.28559100000003,"velocity":0.3937007874015748},{"duration":0.14285699999997803,"midi":46,"time":123.28559100000003,"velocity":0.3937007874015748},{"duration":0.14285699999997803,"midi":34,"time":123.28559100000003,"velocity":0.3937007874015748},{"duration":0.2857140000000129,"midi":77,"time":123.428448,"velocity":0.3937007874015748},{"duration":0.2857140000000129,"midi":50,"time":123.428448,"velocity":0.3937007874015748},{"duration":0.2857140000000129,"midi":69,"time":123.428448,"velocity":0.3937007874015748},{"duration":0.2857140000000129,"midi":38,"time":123.428448,"velocity":0.3937007874015748},{"duration":0.2857140000000129,"midi":74,"time":123.428448,"velocity":0.3937007874015748},{"duration":0.14285699999999224,"midi":38,"time":123.71416200000002,"velocity":0.3937007874015748},{"duration":0.14285699999999224,"midi":50,"time":123.71416200000002,"velocity":0.3937007874015748},{"duration":0.2857139999999845,"midi":74,"time":123.71416200000002,"velocity":0.3937007874015748},{"duration":0.2857139999999845,"midi":69,"time":123.71416200000002,"velocity":0.3937007874015748},{"duration":0.2857139999999845,"midi":79,"time":123.71416200000002,"velocity":0.3937007874015748},{"duration":0.2857140000000129,"midi":38,"time":123.85701900000001,"velocity":0.3937007874015748},{"duration":0.2857140000000129,"midi":50,"time":123.85701900000001,"velocity":0.3937007874015748},{"duration":0.2857140000000129,"midi":81,"time":123.999876,"velocity":0.3937007874015748},{"duration":0.2857140000000129,"midi":74,"time":123.999876,"velocity":0.3937007874015748},{"duration":0.14285699999999224,"midi":38,"time":124.14273300000002,"velocity":0.3937007874015748},{"duration":0.14285699999999224,"midi":50,"time":124.14273300000002,"velocity":0.3937007874015748},{"duration":0.2857139999999987,"midi":70,"time":124.28559000000001,"velocity":0.3937007874015748},{"duration":0.2857139999999987,"midi":46,"time":124.28559000000001,"velocity":0.3937007874015748},{"duration":0.2857139999999987,"midi":82,"time":124.28559000000001,"velocity":0.3937007874015748},{"duration":0.2857139999999987,"midi":74,"time":124.28559000000001,"velocity":0.3937007874015748},{"duration":0.2857139999999987,"midi":34,"time":124.28559000000001,"velocity":0.3937007874015748},{"duration":0.2857139999999845,"midi":70,"time":124.57130400000001,"velocity":0.3937007874015748},{"duration":0.14285699999999224,"midi":46,"time":124.57130400000001,"velocity":0.3937007874015748},{"duration":0.2857139999999845,"midi":74,"time":124.57130400000001,"velocity":0.3937007874015748},{"duration":0.14285699999999224,"midi":34,"time":124.57130400000001,"velocity":0.3937007874015748},{"duration":0.2857140000000129,"midi":34,"time":124.714161,"velocity":0.3937007874015748},{"duration":0.2857140000000129,"midi":46,"time":124.714161,"velocity":0.3937007874015748},{"duration":0.2857140000000129,"midi":74,"time":124.857018,"velocity":0.3937007874015748},{"duration":0.2857140000000129,"midi":79,"time":124.857018,"velocity":0.3937007874015748},{"duration":0.14285699999999224,"midi":34,"time":124.99987500000002,"velocity":0.3937007874015748},{"duration":0.14285699999999224,"midi":46,"time":124.99987500000002,"velocity":0.3937007874015748},{"duration":0.2857140000000129,"midi":33,"time":125.14273200000001,"velocity":0.3937007874015748},{"duration":0.2857140000000129,"midi":69,"time":125.14273200000001,"velocity":0.3937007874015748},{"duration":0.2857140000000129,"midi":45,"time":125.14273200000001,"velocity":0.3937007874015748},{"duration":0.2857140000000129,"midi":77,"time":125.14273200000001,"velocity":0.3937007874015748},{"duration":0.14285699999999224,"midi":33,"time":125.42844600000002,"velocity":0.3937007874015748},{"duration":0.14285699999999224,"midi":45,"time":125.42844600000002,"velocity":0.3937007874015748},{"duration":0.2857139999999987,"midi":45,"time":125.57130300000001,"velocity":0.3937007874015748},{"duration":0.2857139999999987,"midi":33,"time":125.57130300000001,"velocity":0.3937007874015748},{"duration":0.14285700000000645,"midi":79,"time":125.71416,"velocity":0.3937007874015748},{"duration":0.14285699999999224,"midi":33,"time":125.85701700000001,"velocity":0.3937007874015748},{"duration":0.14285699999999224,"midi":45,"time":125.85701700000001,"velocity":0.3937007874015748},{"duration":0.14285699999999224,"midi":76,"time":125.85701700000001,"velocity":0.3937007874015748},{"duration":0.2857140000000129,"midi":33,"time":125.999874,"velocity":0.3937007874015748},{"duration":0.2857140000000129,"midi":74,"time":125.999874,"velocity":0.3937007874015748},{"duration":0.2857140000000129,"midi":69,"time":125.999874,"velocity":0.3937007874015748},{"duration":0.2857140000000129,"midi":45,"time":125.999874,"velocity":0.3937007874015748},{"duration":0.14285699999999224,"midi":33,"time":126.28558800000002,"velocity":0.3937007874015748},{"duration":0.14285699999999224,"midi":45,"time":126.28558800000002,"velocity":0.3937007874015748},{"duration":0.2857140000000129,"midi":45,"time":126.42844500000001,"velocity":0.3937007874015748},{"duration":0.2857140000000129,"midi":33,"time":126.42844500000001,"velocity":0.3937007874015748},{"duration":0.14285700000002066,"midi":76,"time":126.571302,"velocity":0.3937007874015748},{"duration":0.14285699999999224,"midi":45,"time":126.71415900000002,"velocity":0.3937007874015748},{"duration":0.14285699999999224,"midi":33,"time":126.71415900000002,"velocity":0.3937007874015748},{"duration":0.14285699999999224,"midi":73,"time":126.71415900000002,"velocity":0.3937007874015748},{"duration":0.14285699999999224,"midi":74,"time":126.85701600000002,"velocity":0.3937007874015748},{"duration":0.2857139999999987,"midi":38,"time":126.85701600000002,"velocity":0.3937007874015748},{"duration":0.2857139999999987,"midi":50,"time":126.85701600000002,"velocity":0.3937007874015748},{"duration":0.14285699999999224,"midi":62,"time":126.85701600000002,"velocity":0.3937007874015748},{"duration":0.14285700000000645,"midi":60,"time":126.99987300000001,"velocity":0.3937007874015748},{"duration":0.14285700000000645,"midi":72,"time":126.99987300000001,"velocity":0.3937007874015748},{"duration":0.14285699999999224,"midi":62,"time":127.14273000000001,"velocity":0.3937007874015748},{"duration":0.14285699999999224,"midi":38,"time":127.14273000000001,"velocity":0.3937007874015748},{"duration":0.14285699999999224,"midi":50,"time":127.14273000000001,"velocity":0.3937007874015748},{"duration":0.14285699999999224,"midi":74,"time":127.14273000000001,"velocity":0.3937007874015748},{"duration":0.14285699999999224,"midi":76,"time":127.285587,"velocity":0.3937007874015748},{"duration":0.2857140000000129,"midi":52,"time":127.285587,"velocity":0.3937007874015748},{"duration":0.14285699999999224,"midi":64,"time":127.285587,"velocity":0.3937007874015748},{"duration":0.2857140000000129,"midi":40,"time":127.285587,"velocity":0.3937007874015748},{"duration":0.14285700000002066,"midi":62,"time":127.428444,"velocity":0.3937007874015748},{"duration":0.14285700000002066,"midi":74,"time":127.428444,"velocity":0.3937007874015748},{"duration":0.14285699999999224,"midi":40,"time":127.57130100000002,"velocity":0.3937007874015748},{"duration":0.14285699999999224,"midi":64,"time":127.57130100000002,"velocity":0.3937007874015748},{"duration":0.14285699999999224,"midi":76,"time":127.57130100000002,"velocity":0.3937007874015748},{"duration":0.14285699999999224,"midi":52,"time":127.57130100000002,"velocity":0.3937007874015748},{"duration":0.2857140000000129,"midi":41,"time":127.71415800000001,"velocity":0.3937007874015748},{"duration":0.14285699999999224,"midi":77,"time":127.71415800000001,"velocity":0.3937007874015748},{"duration":0.2857140000000129,"midi":53,"time":127.71415800000001,"velocity":0.3937007874015748},{"duration":0.14285699999999224,"midi":65,"time":127.71415800000001,"velocity":0.3937007874015748},{"duration":0.14285700000002066,"midi":64,"time":127.857015,"velocity":0.3937007874015748},{"duration":0.14285700000002066,"midi":76,"time":127.857015,"velocity":0.3937007874015748},{"duration":0.14285699999997803,"midi":65,"time":127.99987200000002,"velocity":0.3937007874015748},{"duration":0.14285699999997803,"midi":53,"time":127.99987200000002,"velocity":0.3937007874015748},{"duration":0.14285699999997803,"midi":41,"time":127.99987200000002,"velocity":0.3937007874015748},{"duration":0.14285699999997803,"midi":77,"time":127.99987200000002,"velocity":0.3937007874015748},{"duration":0.14285699999999224,"midi":79,"time":128.142729,"velocity":0.3937007874015748},{"duration":0.2857140000000129,"midi":43,"time":128.142729,"velocity":0.3937007874015748},{"duration":0.2857140000000129,"midi":55,"time":128.142729,"velocity":0.3937007874015748},{"duration":0.14285699999999224,"midi":67,"time":128.142729,"velocity":0.3937007874015748},{"duration":0.14285700000002066,"midi":65,"time":128.285586,"velocity":0.3937007874015748},{"duration":0.14285700000002066,"midi":77,"time":128.285586,"velocity":0.3937007874015748},{"duration":0.14285699999999224,"midi":67,"time":128.42844300000002,"velocity":0.3937007874015748},{"duration":0.14285699999999224,"midi":55,"time":128.42844300000002,"velocity":0.3937007874015748},{"duration":0.14285699999999224,"midi":79,"time":128.42844300000002,"velocity":0.3937007874015748},{"duration":0.14285699999999224,"midi":43,"time":128.42844300000002,"velocity":0.3937007874015748},{"duration":0.2857140000000129,"midi":45,"time":128.5713,"velocity":0.3937007874015748},{"duration":0.2857140000000129,"midi":50,"time":128.5713,"velocity":0.3937007874015748},{"duration":0.14285699999999224,"midi":69,"time":128.5713,"velocity":0.3937007874015748},{"duration":0.14285699999999224,"midi":81,"time":128.5713,"velocity":0.3937007874015748},{"duration":0.2857140000000129,"midi":57,"time":128.5713,"velocity":0.3937007874015748},{"duration":0.2857140000000129,"midi":53,"time":128.5713,"velocity":0.3937007874015748},{"duration":0.5714279999999974,"midi":57,"time":128.85701400000002,"velocity":0.3937007874015748},{"duration":0.5714279999999974,"midi":50,"time":128.85701400000002,"velocity":0.3937007874015748},{"duration":0.5714279999999974,"midi":45,"time":128.85701400000002,"velocity":0.3937007874015748},{"duration":0.5714279999999974,"midi":53,"time":128.85701400000002,"velocity":0.3937007874015748},{"duration":0.14285699999999224,"midi":81,"time":128.85701400000002,"velocity":0.3937007874015748},{"duration":0.14285699999999224,"midi":69,"time":128.85701400000002,"velocity":0.3937007874015748},{"duration":0.14285699999999224,"midi":69,"time":128.999871,"velocity":0.3937007874015748},{"duration":0.14285699999999224,"midi":81,"time":128.999871,"velocity":0.3937007874015748},{"duration":0.14285700000002066,"midi":81,"time":129.142728,"velocity":0.3937007874015748},{"duration":0.14285700000002066,"midi":69,"time":129.142728,"velocity":0.3937007874015748},{"duration":0.5714279999999974,"midi":45,"time":129.42844200000002,"velocity":0.3937007874015748},{"duration":0.14285699999999224,"midi":81,"time":129.42844200000002,"velocity":0.3937007874015748},{"duration":0.5714279999999974,"midi":53,"time":129.42844200000002,"velocity":0.3937007874015748},{"duration":0.5714279999999974,"midi":57,"time":129.42844200000002,"velocity":0.3937007874015748},{"duration":0.14285699999999224,"midi":69,"time":129.42844200000002,"velocity":0.3937007874015748},{"duration":0.5714279999999974,"midi":50,"time":129.42844200000002,"velocity":0.3937007874015748},{"duration":0.14285699999999224,"midi":81,"time":129.71415600000003,"velocity":0.3937007874015748},{"duration":0.14285699999999224,"midi":69,"time":129.71415600000003,"velocity":0.3937007874015748},{"duration":0.14285699999999224,"midi":82,"time":129.99987000000002,"velocity":0.3937007874015748},{"duration":0.2857139999999845,"midi":57,"time":129.99987000000002,"velocity":0.3937007874015748},{"duration":0.2857139999999845,"midi":45,"time":129.99987000000002,"velocity":0.3937007874015748},{"duration":0.14285699999999224,"midi":70,"time":129.99987000000002,"velocity":0.3937007874015748},{"duration":0.2857140000000129,"midi":57,"time":130.285584,"velocity":0.3937007874015748},{"duration":0.2857140000000129,"midi":52,"time":130.285584,"velocity":0.3937007874015748},{"duration":0.2857140000000129,"midi":49,"time":130.285584,"velocity":0.3937007874015748},{"duration":0.14285699999999224,"midi":81,"time":130.285584,"velocity":0.3937007874015748},{"duration":0.14285699999999224,"midi":69,"time":130.285584,"velocity":0.3937007874015748},{"duration":0.2857140000000129,"midi":45,"time":130.285584,"velocity":0.3937007874015748},{"duration":0.5714279999999974,"midi":45,"time":130.571298,"velocity":0.3937007874015748},{"duration":0.14285699999999224,"midi":81,"time":130.571298,"velocity":0.3937007874015748},{"duration":0.14285699999999224,"midi":69,"time":130.571298,"velocity":0.3937007874015748},{"duration":0.5714279999999974,"midi":49,"time":130.571298,"velocity":0.3937007874015748},{"duration":0.5714279999999974,"midi":52,"time":130.571298,"velocity":0.3937007874015748},{"duration":0.5714279999999974,"midi":57,"time":130.571298,"velocity":0.3937007874015748},{"duration":0.14285699999999224,"midi":69,"time":130.714155,"velocity":0.3937007874015748},{"duration":0.14285699999999224,"midi":81,"time":130.714155,"velocity":0.3937007874015748},{"duration":0.14285700000002066,"midi":81,"time":130.857012,"velocity":0.3937007874015748},{"duration":0.14285700000002066,"midi":69,"time":130.857012,"velocity":0.3937007874015748},{"duration":0.14285699999999224,"midi":69,"time":131.142726,"velocity":0.3937007874015748},{"duration":0.5714279999999974,"midi":45,"time":131.142726,"velocity":0.3937007874015748},{"duration":0.5714279999999974,"midi":57,"time":131.142726,"velocity":0.3937007874015748},{"duration":0.5714279999999974,"midi":52,"time":131.142726,"velocity":0.3937007874015748},{"duration":0.5714279999999974,"midi":49,"time":131.142726,"velocity":0.3937007874015748},{"duration":0.14285699999999224,"midi":81,"time":131.142726,"velocity":0.3937007874015748},{"duration":0.14285699999999224,"midi":69,"time":131.42844000000002,"velocity":0.3937007874015748},{"duration":0.14285699999999224,"midi":81,"time":131.42844000000002,"velocity":0.3937007874015748},{"duration":0.2857140000000129,"midi":48,"time":131.714154,"velocity":0.3937007874015748},{"duration":0.14285700000002066,"midi":84,"time":131.714154,"velocity":0.3937007874015748},{"duration":0.2857140000000129,"midi":60,"time":131.714154,"velocity":0.3937007874015748},{"duration":0.14285700000002066,"midi":72,"time":131.714154,"velocity":0.3937007874015748},{"duration":0.8571419999999819,"midi":74,"time":131.99986800000002,"velocity":0.3937007874015748},{"duration":0.8571419999999819,"midi":77,"time":131.99986800000002,"velocity":0.3937007874015748},{"duration":0.2857139999999845,"midi":38,"time":131.99986800000002,"velocity":0.3937007874015748},{"duration":0.2857139999999845,"midi":50,"time":131.99986800000002,"velocity":0.3937007874015748},{"duration":0.8571419999999819,"midi":81,"time":131.99986800000002,"velocity":0.3937007874015748},{"duration":0.14285699999999224,"midi":50,"time":132.285582,"velocity":0.3937007874015748},{"duration":0.14285699999999224,"midi":38,"time":132.285582,"velocity":0.3937007874015748},{"duration":0.14285699999999224,"midi":38,"time":132.428439,"velocity":0.3937007874015748},{"duration":0.14285699999999224,"midi":50,"time":132.428439,"velocity":0.3937007874015748},{"duration":0.14285700000002066,"midi":50,"time":132.571296,"velocity":0.3937007874015748},{"duration":0.14285700000002066,"midi":38,"time":132.571296,"velocity":0.3937007874015748},{"duration":0.14285699999999224,"midi":38,"time":132.714153,"velocity":0.3937007874015748},{"duration":0.14285699999999224,"midi":50,"time":132.714153,"velocity":0.3937007874015748},{"duration":0.2857140000000129,"midi":43,"time":132.85701,"velocity":0.3937007874015748},{"duration":0.8571420000000103,"midi":77,"time":132.85701,"velocity":0.3937007874015748},{"duration":0.8571420000000103,"midi":82,"time":132.85701,"velocity":0.3937007874015748},{"duration":0.2857140000000129,"midi":31,"time":132.85701,"velocity":0.3937007874015748},{"duration":0.8571420000000103,"midi":74,"time":132.85701,"velocity":0.3937007874015748},{"duration":0.14285699999999224,"midi":43,"time":133.14272400000002,"velocity":0.3937007874015748},{"duration":0.14285699999999224,"midi":31,"time":133.14272400000002,"velocity":0.3937007874015748},{"duration":0.14285699999999224,"midi":31,"time":133.285581,"velocity":0.3937007874015748},{"duration":0.14285699999999224,"midi":43,"time":133.285581,"velocity":0.3937007874015748},{"duration":0.14285700000002066,"midi":31,"time":133.428438,"velocity":0.3937007874015748},{"duration":0.14285700000002066,"midi":43,"time":133.428438,"velocity":0.3937007874015748},{"duration":0.14285699999999224,"midi":43,"time":133.57129500000002,"velocity":0.3937007874015748},{"duration":0.14285699999999224,"midi":31,"time":133.57129500000002,"velocity":0.3937007874015748},{"duration":0.2857140000000129,"midi":81,"time":133.714152,"velocity":0.3937007874015748},{"duration":0.2857140000000129,"midi":41,"time":133.714152,"velocity":0.3937007874015748},{"duration":0.2857140000000129,"midi":53,"time":133.714152,"velocity":0.3937007874015748},{"duration":0.2857140000000129,"midi":77,"time":133.714152,"velocity":0.3937007874015748},{"duration":0.2857140000000129,"midi":72,"time":133.714152,"velocity":0.3937007874015748},{"duration":0.14285699999999224,"midi":53,"time":133.99986600000003,"velocity":0.3937007874015748},{"duration":0.2857139999999845,"midi":81,"time":133.99986600000003,"velocity":0.3937007874015748},{"duration":0.2857139999999845,"midi":72,"time":133.99986600000003,"velocity":0.3937007874015748},{"duration":0.14285699999999224,"midi":41,"time":133.99986600000003,"velocity":0.3937007874015748},{"duration":0.2857139999999845,"midi":77,"time":133.99986600000003,"velocity":0.3937007874015748},{"duration":0.14285699999999224,"midi":53,"time":134.14272300000002,"velocity":0.3937007874015748},{"duration":0.14285699999999224,"midi":41,"time":134.14272300000002,"velocity":0.3937007874015748},{"duration":0.14285700000002066,"midi":41,"time":134.28558,"velocity":0.3937007874015748},{"duration":0.2857140000000129,"midi":77,"time":134.28558,"velocity":0.3937007874015748},{"duration":0.2857140000000129,"midi":81,"time":134.28558,"velocity":0.3937007874015748},{"duration":0.2857140000000129,"midi":72,"time":134.28558,"velocity":0.3937007874015748},{"duration":0.14285700000002066,"midi":53,"time":134.28558,"velocity":0.3937007874015748},{"duration":0.14285699999999224,"midi":41,"time":134.42843700000003,"velocity":0.3937007874015748},{"duration":0.14285699999999224,"midi":53,"time":134.42843700000003,"velocity":0.3937007874015748},{"duration":0.2857139999999845,"midi":36,"time":134.57129400000002,"velocity":0.3937007874015748},{"duration":0.14285699999999224,"midi":81,"time":134.57129400000002,"velocity":0.3937007874015748},{"duration":0.14285699999999224,"midi":72,"time":134.57129400000002,"velocity":0.3937007874015748},{"duration":0.14285699999999224,"midi":77,"time":134.57129400000002,"velocity":0.3937007874015748},{"duration":0.2857139999999845,"midi":48,"time":134.57129400000002,"velocity":0.3937007874015748},{"duration":0.2857139999999845,"midi":79,"time":134.71415100000002,"velocity":0.3937007874015748},{"duration":0.2857139999999845,"midi":76,"time":134.71415100000002,"velocity":0.3937007874015748},{"duration":0.2857139999999845,"midi":72,"time":134.71415100000002,"velocity":0.3937007874015748},{"duration":0.14285699999999224,"midi":48,"time":134.857008,"velocity":0.3937007874015748},{"duration":0.14285699999999224,"midi":36,"time":134.857008,"velocity":0.3937007874015748},{"duration":0.14285699999999224,"midi":48,"time":134.999865,"velocity":0.3937007874015748},{"duration":0.14285699999999224,"midi":36,"time":134.999865,"velocity":0.3937007874015748},{"duration":0.14285700000002066,"midi":36,"time":135.142722,"velocity":0.3937007874015748},{"duration":0.14285700000002066,"midi":48,"time":135.142722,"velocity":0.3937007874015748},{"duration":0.14285699999999224,"midi":48,"time":135.285579,"velocity":0.3937007874015748},{"duration":0.14285699999999224,"midi":36,"time":135.285579,"velocity":0.3937007874015748},{"duration":0.2857140000000129,"midi":43,"time":135.428436,"velocity":0.3937007874015748},{"duration":0.2857140000000129,"midi":31,"time":135.428436,"velocity":0.3937007874015748},{"duration":0.8571420000000103,"midi":79,"time":135.428436,"velocity":0.3937007874015748},{"duration":0.8571420000000103,"midi":70,"time":135.428436,"velocity":0.3937007874015748},{"duration":0.8571420000000103,"midi":74,"time":135.428436,"velocity":0.3937007874015748},{"duration":0.14285699999999224,"midi":43,"time":135.71415000000002,"velocity":0.3937007874015748},{"duration":0.14285699999999224,"midi":31,"time":135.71415000000002,"velocity":0.3937007874015748},{"duration":0.14285699999999224,"midi":43,"time":135.857007,"velocity":0.3937007874015748},{"duration":0.2857140000000129,"midi":31,"time":135.857007,"velocity":0.3937007874015748},{"duration":0.14285700000002066,"midi":43,"time":135.999864,"velocity":0.3937007874015748},{"duration":0.14285699999999224,"midi":43,"time":136.14272100000002,"velocity":0.3937007874015748},{"duration":0.14285699999999224,"midi":31,"time":136.14272100000002,"velocity":0.3937007874015748},{"duration":0.8571419999999819,"midi":77,"time":136.28557800000002,"velocity":0.3937007874015748},{"duration":0.2857140000000129,"midi":45,"time":136.28557800000002,"velocity":0.3937007874015748},{"duration":0.2857140000000129,"midi":33,"time":136.28557800000002,"velocity":0.3937007874015748},{"duration":0.8571419999999819,"midi":74,"time":136.28557800000002,"velocity":0.3937007874015748},{"duration":0.8571419999999819,"midi":69,"time":136.28557800000002,"velocity":0.3937007874015748},{"duration":0.14285699999999224,"midi":33,"time":136.57129200000003,"velocity":0.3937007874015748},{"duration":0.14285699999999224,"midi":45,"time":136.57129200000003,"velocity":0.3937007874015748},{"duration":0.14285699999999224,"midi":45,"time":136.71414900000002,"velocity":0.3937007874015748},{"duration":0.14285699999999224,"midi":33,"time":136.71414900000002,"velocity":0.3937007874015748},{"duration":0.14285700000002066,"midi":33,"time":136.857006,"velocity":0.3937007874015748},{"duration":0.14285700000002066,"midi":45,"time":136.857006,"velocity":0.3937007874015748},{"duration":0.14285699999996382,"midi":33,"time":136.99986300000003,"velocity":0.3937007874015748},{"duration":0.14285699999996382,"midi":45,"time":136.99986300000003,"velocity":0.3937007874015748},{"duration":0.2857140000000129,"midi":33,"time":137.14272,"velocity":0.3937007874015748},{"duration":0.2857140000000129,"midi":73,"time":137.14272,"velocity":0.3937007874015748},{"duration":0.2857140000000129,"midi":69,"time":137.14272,"velocity":0.3937007874015748},{"duration":0.2857140000000129,"midi":45,"time":137.14272,"velocity":0.3937007874015748},{"duration":0.2857140000000129,"midi":76,"time":137.14272,"velocity":0.3937007874015748},{"duration":0.14285699999999224,"midi":45,"time":137.428434,"velocity":0.3937007874015748},{"duration":0.2857139999999845,"midi":69,"time":137.428434,"velocity":0.3937007874015748},{"duration":0.14285699999999224,"midi":33,"time":137.428434,"velocity":0.3937007874015748},{"duration":0.2857139999999845,"midi":73,"time":137.428434,"velocity":0.3937007874015748},{"duration":0.2857139999999845,"midi":77,"time":137.428434,"velocity":0.3937007874015748},{"duration":0.14285699999999224,"midi":45,"time":137.571291,"velocity":0.3937007874015748},{"duration":0.14285699999999224,"midi":33,"time":137.571291,"velocity":0.3937007874015748},{"duration":0.14285700000002066,"midi":45,"time":137.714148,"velocity":0.3937007874015748},{"duration":0.2857140000000129,"midi":73,"time":137.714148,"velocity":0.3937007874015748},{"duration":0.2857140000000129,"midi":69,"time":137.714148,"velocity":0.3937007874015748},{"duration":0.2857140000000129,"midi":76,"time":137.714148,"velocity":0.3937007874015748},{"duration":0.14285700000002066,"midi":33,"time":137.714148,"velocity":0.3937007874015748},{"duration":0.14285699999999224,"midi":45,"time":137.85700500000002,"velocity":0.3937007874015748},{"duration":0.14285699999999224,"midi":33,"time":137.85700500000002,"velocity":0.3937007874015748},{"duration":0.42857100000000514,"midi":69,"time":137.999862,"velocity":0.3937007874015748},{"duration":0.2857140000000129,"midi":50,"time":137.999862,"velocity":0.3937007874015748},{"duration":0.2857140000000129,"midi":38,"time":137.999862,"velocity":0.3937007874015748},{"duration":0.14285699999999224,"midi":76,"time":137.999862,"velocity":0.3937007874015748},{"duration":0.2857140000000129,"midi":74,"time":138.142719,"velocity":0.3937007874015748},{"duration":0.14285699999999224,"midi":38,"time":138.28557600000002,"velocity":0.3937007874015748},{"duration":0.14285699999999224,"midi":50,"time":138.28557600000002,"velocity":0.3937007874015748},{"duration":0.14285699999999224,"midi":50,"time":138.428433,"velocity":0.3937007874015748},{"duration":0.14285699999999224,"midi":38,"time":138.428433,"velocity":0.3937007874015748},{"duration":0.14285699999999224,"midi":74,"time":138.428433,"velocity":0.3937007874015748},{"duration":0.14285699999999224,"midi":62,"time":138.428433,"velocity":0.3937007874015748},{"duration":0.14285700000002066,"midi":38,"time":138.57129,"velocity":0.3937007874015748},{"duration":0.14285700000002066,"midi":50,"time":138.57129,"velocity":0.3937007874015748},{"duration":0.14285700000002066,"midi":76,"time":138.57129,"velocity":0.3937007874015748},{"duration":0.14285700000002066,"midi":64,"time":138.57129,"velocity":0.3937007874015748},{"duration":0.14285699999999224,"midi":50,"time":138.71414700000003,"velocity":0.3937007874015748},{"duration":0.14285699999999224,"midi":38,"time":138.71414700000003,"velocity":0.3937007874015748},{"duration":0.14285699999999224,"midi":77,"time":138.71414700000003,"velocity":0.3937007874015748},{"duration":0.14285699999999224,"midi":65,"time":138.71414700000003,"velocity":0.3937007874015748},{"duration":0.2857140000000129,"midi":50,"time":138.85700400000002,"velocity":0.3937007874015748},{"duration":0.42857100000000514,"midi":77,"time":138.85700400000002,"velocity":0.3937007874015748},{"duration":0.2857140000000129,"midi":38,"time":138.85700400000002,"velocity":0.3937007874015748},{"duration":0.42857100000000514,"midi":74,"time":138.85700400000002,"velocity":0.3937007874015748},{"duration":0.42857100000000514,"midi":81,"time":138.85700400000002,"velocity":0.3937007874015748},{"duration":0.42857100000000514,"midi":69,"time":138.85700400000002,"velocity":0.3937007874015748},{"duration":0.14285699999999224,"midi":38,"time":139.14271800000003,"velocity":0.3937007874015748},{"duration":0.14285699999999224,"midi":50,"time":139.14271800000003,"velocity":0.3937007874015748},{"duration":0.14285699999999224,"midi":50,"time":139.28557500000002,"velocity":0.3937007874015748},{"duration":0.14285699999999224,"midi":38,"time":139.28557500000002,"velocity":0.3937007874015748},{"duration":0.14285699999999224,"midi":62,"time":139.28557500000002,"velocity":0.3937007874015748},{"duration":0.14285699999999224,"midi":74,"time":139.28557500000002,"velocity":0.3937007874015748},{"duration":0.14285699999999224,"midi":64,"time":139.42843200000002,"velocity":0.3937007874015748},{"duration":0.14285699999999224,"midi":38,"time":139.42843200000002,"velocity":0.3937007874015748},{"duration":0.14285699999999224,"midi":50,"time":139.42843200000002,"velocity":0.3937007874015748},{"duration":0.14285699999999224,"midi":76,"time":139.42843200000002,"velocity":0.3937007874015748},{"duration":0.14285699999999224,"midi":38,"time":139.571289,"velocity":0.3937007874015748},{"duration":0.14285699999999224,"midi":65,"time":139.571289,"velocity":0.3937007874015748},{"duration":0.14285699999999224,"midi":77,"time":139.571289,"velocity":0.3937007874015748},{"duration":0.14285699999999224,"midi":50,"time":139.571289,"velocity":0.3937007874015748},{"duration":0.42857100000000514,"midi":70,"time":139.714146,"velocity":0.3937007874015748},{"duration":0.42857100000000514,"midi":82,"time":139.714146,"velocity":0.3937007874015748},{"duration":0.2857140000000129,"midi":34,"time":139.714146,"velocity":0.3937007874015748},{"duration":0.42857100000000514,"midi":74,"time":139.714146,"velocity":0.3937007874015748},{"duration":0.2857140000000129,"midi":46,"time":139.714146,"velocity":0.3937007874015748},{"duration":0.42857100000000514,"midi":77,"time":139.714146,"velocity":0.3937007874015748},{"duration":0.14285699999999224,"midi":46,"time":139.99986,"velocity":0.3937007874015748},{"duration":0.14285699999999224,"midi":34,"time":139.99986,"velocity":0.3937007874015748},{"duration":0.14285699999999224,"midi":46,"time":140.142717,"velocity":0.3937007874015748},{"duration":0.14285699999999224,"midi":34,"time":140.142717,"velocity":0.3937007874015748},{"duration":0.14285699999999224,"midi":62,"time":140.142717,"velocity":0.3937007874015748},{"duration":0.14285699999999224,"midi":74,"time":140.142717,"velocity":0.3937007874015748},{"duration":0.14285700000002066,"midi":76,"time":140.285574,"velocity":0.3937007874015748},{"duration":0.14285700000002066,"midi":64,"time":140.285574,"velocity":0.3937007874015748},{"duration":0.14285700000002066,"midi":46,"time":140.285574,"velocity":0.3937007874015748},{"duration":0.14285700000002066,"midi":34,"time":140.285574,"velocity":0.3937007874015748},{"duration":0.14285699999999224,"midi":46,"time":140.42843100000002,"velocity":0.3937007874015748},{"duration":0.14285699999999224,"midi":77,"time":140.42843100000002,"velocity":0.3937007874015748},{"duration":0.14285699999999224,"midi":34,"time":140.42843100000002,"velocity":0.3937007874015748},{"duration":0.14285699999999224,"midi":65,"time":140.42843100000002,"velocity":0.3937007874015748},{"duration":0.2857140000000129,"midi":72,"time":140.571288,"velocity":0.3937007874015748},{"duration":0.2857140000000129,"midi":77,"time":140.571288,"velocity":0.3937007874015748},{"duration":0.2857140000000129,"midi":69,"time":140.571288,"velocity":0.3937007874015748},{"duration":0.2857140000000129,"midi":41,"time":140.571288,"velocity":0.3937007874015748},{"duration":0.2857140000000129,"midi":53,"time":140.571288,"velocity":0.3937007874015748},{"duration":0.2857140000000129,"midi":81,"time":140.571288,"velocity":0.3937007874015748},{"duration":0.2857139999999845,"midi":81,"time":140.85700200000002,"velocity":0.3937007874015748},{"duration":0.2857139999999845,"midi":69,"time":140.85700200000002,"velocity":0.3937007874015748},{"duration":0.14285699999999224,"midi":53,"time":140.85700200000002,"velocity":0.3937007874015748},{"duration":0.2857139999999845,"midi":72,"time":140.85700200000002,"velocity":0.3937007874015748},{"duration":0.2857139999999845,"midi":77,"time":140.85700200000002,"velocity":0.3937007874015748},{"duration":0.14285699999999224,"midi":41,"time":140.85700200000002,"velocity":0.3937007874015748},{"duration":0.14285699999999224,"midi":53,"time":140.99985900000001,"velocity":0.3937007874015748},{"duration":0.14285699999999224,"midi":41,"time":140.99985900000001,"velocity":0.3937007874015748},{"duration":0.2857140000000129,"midi":84,"time":141.142716,"velocity":0.3937007874015748},{"duration":0.2857140000000129,"midi":72,"time":141.142716,"velocity":0.3937007874015748},{"duration":0.2857140000000129,"midi":81,"time":141.142716,"velocity":0.3937007874015748},{"duration":0.2857140000000129,"midi":77,"time":141.142716,"velocity":0.3937007874015748},{"duration":0.14285700000002066,"midi":41,"time":141.142716,"velocity":0.3937007874015748},{"duration":0.14285700000002066,"midi":53,"time":141.142716,"velocity":0.3937007874015748},{"duration":0.14285699999999224,"midi":41,"time":141.28557300000003,"velocity":0.3937007874015748},{"duration":0.14285699999999224,"midi":53,"time":141.28557300000003,"velocity":0.3937007874015748},{"duration":0.14285699999999224,"midi":69,"time":141.42843000000002,"velocity":0.3937007874015748},{"duration":0.14285699999999224,"midi":77,"time":141.42843000000002,"velocity":0.3937007874015748},{"duration":0.14285699999999224,"midi":72,"time":141.42843000000002,"velocity":0.3937007874015748},{"duration":0.2857140000000129,"midi":36,"time":141.42843000000002,"velocity":0.3937007874015748},{"duration":0.14285699999999224,"midi":81,"time":141.42843000000002,"velocity":0.3937007874015748},{"duration":0.2857140000000129,"midi":48,"time":141.42843000000002,"velocity":0.3937007874015748},{"duration":0.14285700000002066,"midi":67,"time":141.571287,"velocity":0.3937007874015748},{"duration":0.14285700000002066,"midi":79,"time":141.571287,"velocity":0.3937007874015748},{"duration":0.14285699999999224,"midi":36,"time":141.71414400000003,"velocity":0.3937007874015748},{"duration":0.14285699999999224,"midi":48,"time":141.71414400000003,"velocity":0.3937007874015748},{"duration":0.14285699999999224,"midi":48,"time":141.85700100000003,"velocity":0.3937007874015748},{"duration":0.14285699999999224,"midi":36,"time":141.85700100000003,"velocity":0.3937007874015748},{"duration":0.14285699999999224,"midi":48,"time":141.99985800000002,"velocity":0.3937007874015748},{"duration":0.14285699999999224,"midi":36,"time":141.99985800000002,"velocity":0.3937007874015748},{"duration":0.14285699999999224,"midi":36,"time":142.142715,"velocity":0.3937007874015748},{"duration":0.14285699999999224,"midi":48,"time":142.142715,"velocity":0.3937007874015748},{"duration":0.2857140000000129,"midi":43,"time":142.285572,"velocity":0.3937007874015748},{"duration":0.2857140000000129,"midi":31,"time":142.285572,"velocity":0.3937007874015748},{"duration":0.8571420000000103,"midi":74,"time":142.285572,"velocity":0.3937007874015748},{"duration":0.8571420000000103,"midi":67,"time":142.285572,"velocity":0.3937007874015748},{"duration":0.8571420000000103,"midi":79,"time":142.285572,"velocity":0.3937007874015748},{"duration":0.8571420000000103,"midi":70,"time":142.285572,"velocity":0.3937007874015748},{"duration":0.14285699999999224,"midi":43,"time":142.57128600000001,"velocity":0.3937007874015748},{"duration":0.14285699999999224,"midi":31,"time":142.57128600000001,"velocity":0.3937007874015748},{"duration":0.14285699999999224,"midi":31,"time":142.714143,"velocity":0.3937007874015748},{"duration":0.14285699999999224,"midi":43,"time":142.714143,"velocity":0.3937007874015748},{"duration":0.14285700000002066,"midi":43,"time":142.857,"velocity":0.3937007874015748},{"duration":0.14285700000002066,"midi":31,"time":142.857,"velocity":0.3937007874015748},{"duration":0.14285699999999224,"midi":31,"time":142.99985700000002,"velocity":0.3937007874015748},{"duration":0.14285699999999224,"midi":43,"time":142.99985700000002,"velocity":0.3937007874015748},{"duration":0.2857140000000129,"midi":45,"time":143.142714,"velocity":0.3937007874015748},{"duration":0.2857140000000129,"midi":33,"time":143.142714,"velocity":0.3937007874015748},{"duration":0.8571420000000103,"midi":77,"time":143.142714,"velocity":0.3937007874015748},{"duration":0.8571420000000103,"midi":69,"time":143.142714,"velocity":0.3937007874015748},{"duration":0.8571420000000103,"midi":65,"time":143.142714,"velocity":0.3937007874015748},{"duration":0.8571420000000103,"midi":74,"time":143.142714,"velocity":0.3937007874015748},{"duration":0.14285699999999224,"midi":45,"time":143.42842800000003,"velocity":0.3937007874015748},{"duration":0.14285699999999224,"midi":33,"time":143.42842800000003,"velocity":0.3937007874015748},{"duration":0.14285699999999224,"midi":33,"time":143.57128500000002,"velocity":0.3937007874015748},{"duration":0.14285699999999224,"midi":45,"time":143.57128500000002,"velocity":0.3937007874015748},{"duration":0.14285700000002066,"midi":33,"time":143.714142,"velocity":0.3937007874015748},{"duration":0.14285700000002066,"midi":45,"time":143.714142,"velocity":0.3937007874015748},{"duration":0.14285699999999224,"midi":45,"time":143.85699900000003,"velocity":0.3937007874015748},{"duration":0.14285699999999224,"midi":33,"time":143.85699900000003,"velocity":0.3937007874015748},{"duration":0.2857139999999845,"midi":45,"time":143.99985600000002,"velocity":0.3937007874015748},{"duration":0.2857139999999845,"midi":69,"time":143.99985600000002,"velocity":0.3937007874015748},{"duration":0.2857139999999845,"midi":73,"time":143.99985600000002,"velocity":0.3937007874015748},{"duration":0.2857139999999845,"midi":64,"time":143.99985600000002,"velocity":0.3937007874015748},{"duration":0.2857139999999845,"midi":33,"time":143.99985600000002,"velocity":0.3937007874015748},{"duration":0.2857139999999845,"midi":76,"time":143.99985600000002,"velocity":0.3937007874015748},{"duration":0.14285699999999224,"midi":45,"time":144.28557,"velocity":0.3937007874015748},{"duration":0.2857139999999845,"midi":73,"time":144.28557,"velocity":0.3937007874015748},{"duration":0.2857139999999845,"midi":65,"time":144.28557,"velocity":0.3937007874015748},{"duration":0.2857139999999845,"midi":77,"time":144.28557,"velocity":0.3937007874015748},{"duration":0.14285699999999224,"midi":33,"time":144.28557,"velocity":0.3937007874015748},{"duration":0.2857139999999845,"midi":69,"time":144.28557,"velocity":0.3937007874015748},{"duration":0.14285699999999224,"midi":45,"time":144.428427,"velocity":0.3937007874015748},{"duration":0.14285699999999224,"midi":33,"time":144.428427,"velocity":0.3937007874015748},{"duration":0.14285700000002066,"midi":45,"time":144.571284,"velocity":0.3937007874015748},{"duration":0.14285700000002066,"midi":33,"time":144.571284,"velocity":0.3937007874015748},{"duration":0.2857140000000129,"midi":64,"time":144.571284,"velocity":0.3937007874015748},{"duration":0.2857140000000129,"midi":73,"time":144.571284,"velocity":0.3937007874015748},{"duration":0.2857140000000129,"midi":76,"time":144.571284,"velocity":0.3937007874015748},{"duration":0.2857140000000129,"midi":69,"time":144.571284,"velocity":0.3937007874015748},{"duration":0.14285699999999224,"midi":45,"time":144.714141,"velocity":0.3937007874015748},{"duration":0.14285699999999224,"midi":33,"time":144.714141,"velocity":0.3937007874015748},{"duration":0.42857100000000514,"midi":74,"time":144.856998,"velocity":0.3937007874015748},{"duration":0.42857100000000514,"midi":62,"time":144.856998,"velocity":0.3937007874015748},{"duration":0.42857100000000514,"midi":65,"time":144.856998,"velocity":0.3937007874015748},{"duration":0.42857100000000514,"midi":69,"time":144.856998,"velocity":0.3937007874015748},{"duration":0.42857100000000514,"midi":50,"time":144.856998,"velocity":0.3937007874015748},{"duration":0.42857100000000514,"midi":38,"time":144.856998,"velocity":0.3937007874015748},{"duration":0.42857100000000514,"midi":50,"time":145.285569,"velocity":0.3937007874015748},{"duration":0.42857100000000514,"midi":38,"time":145.285569,"velocity":0.3937007874015748},{"duration":1.7142839999999921,"midi":62,"time":145.71414000000001,"velocity":0.3937007874015748},{"duration":1.7142839999999921,"midi":38,"time":145.71414000000001,"velocity":0.3937007874015748},{"duration":1.7142839999999921,"midi":50,"time":145.71414000000001,"velocity":0.3937007874015748}]},{"instrument":{"family":"bass","number":32,"name":"acoustic bass"},"notes":[{"duration":0.8571419999999996,"midi":50,"time":3.4285680000000003,"velocity":0.3937007874015748},{"duration":0.8571419999999996,"midi":38,"time":3.4285680000000003,"velocity":0.3937007874015748},{"duration":0.4285710000000007,"midi":50,"time":4.28571,"velocity":0.3937007874015748},{"duration":0.4285710000000007,"midi":38,"time":4.28571,"velocity":0.3937007874015748},{"duration":0.4285709999999998,"midi":38,"time":4.714281000000001,"velocity":0.3937007874015748},{"duration":0.4285709999999998,"midi":50,"time":4.714281000000001,"velocity":0.3937007874015748},{"duration":0.2857139999999996,"midi":50,"time":5.142852,"velocity":0.3937007874015748},{"duration":0.2857139999999996,"midi":38,"time":5.142852,"velocity":0.3937007874015748},{"duration":0.14285700000000023,"midi":50,"time":5.428566,"velocity":0.3937007874015748},{"duration":0.14285700000000023,"midi":38,"time":5.428566,"velocity":0.3937007874015748},{"duration":0.2857139999999996,"midi":38,"time":5.571423,"velocity":0.3937007874015748},{"duration":0.2857139999999996,"midi":50,"time":5.571423,"velocity":0.3937007874015748},{"duration":0.14285700000000112,"midi":48,"time":5.857137,"velocity":0.3937007874015748},{"duration":0.14285700000000112,"midi":36,"time":5.857137,"velocity":0.3937007874015748},{"duration":0.2857139999999996,"midi":34,"time":5.999994000000001,"velocity":0.3937007874015748},{"duration":0.2857139999999996,"midi":46,"time":5.999994000000001,"velocity":0.3937007874015748},{"duration":0.14285700000000023,"midi":46,"time":6.2857080000000005,"velocity":0.3937007874015748},{"duration":0.14285700000000023,"midi":34,"time":6.2857080000000005,"velocity":0.3937007874015748},{"duration":0.2857139999999996,"midi":34,"time":6.428565000000001,"velocity":0.3937007874015748},{"duration":0.2857139999999996,"midi":46,"time":6.428565000000001,"velocity":0.3937007874015748},{"duration":0.14285700000000023,"midi":34,"time":6.714279,"velocity":0.3937007874015748},{"duration":0.14285700000000023,"midi":46,"time":6.714279,"velocity":0.3937007874015748},{"duration":0.28571400000000047,"midi":33,"time":6.857136000000001,"velocity":0.3937007874015748},{"duration":0.28571400000000047,"midi":45,"time":6.857136000000001,"velocity":0.3937007874015748},{"duration":0.14285699999999935,"midi":45,"time":7.142850000000001,"velocity":0.3937007874015748},{"duration":0.14285699999999935,"midi":33,"time":7.142850000000001,"velocity":0.3937007874015748},{"duration":0.28571400000000047,"midi":33,"time":7.285707,"velocity":0.3937007874015748},{"duration":0.28571400000000047,"midi":45,"time":7.285707,"velocity":0.3937007874015748},{"duration":0.14285699999999935,"midi":45,"time":7.571421000000001,"velocity":0.3937007874015748},{"duration":0.14285699999999935,"midi":33,"time":7.571421000000001,"velocity":0.3937007874015748},{"duration":0.28571400000000136,"midi":38,"time":7.714278,"velocity":0.3937007874015748},{"duration":0.28571400000000136,"midi":50,"time":7.714278,"velocity":0.3937007874015748},{"duration":0.14285699999999846,"midi":38,"time":7.9999920000000015,"velocity":0.3937007874015748},{"duration":0.14285699999999846,"midi":50,"time":7.9999920000000015,"velocity":0.3937007874015748},{"duration":0.28571400000000047,"midi":38,"time":8.142849,"velocity":0.3937007874015748},{"duration":0.28571400000000047,"midi":45,"time":8.142849,"velocity":0.3937007874015748},{"duration":0.14285699999999935,"midi":45,"time":8.428563,"velocity":0.3937007874015748},{"duration":0.14285699999999935,"midi":38,"time":8.428563,"velocity":0.3937007874015748},{"duration":0.28571400000000224,"midi":46,"time":8.57142,"velocity":0.3937007874015748},{"duration":0.28571400000000224,"midi":34,"time":8.57142,"velocity":0.3937007874015748},{"duration":0.14285699999999935,"midi":46,"time":8.857134000000002,"velocity":0.3937007874015748},{"duration":0.14285699999999935,"midi":34,"time":8.857134000000002,"velocity":0.3937007874015748},{"duration":0.28571400000000047,"midi":34,"time":8.999991000000001,"velocity":0.3937007874015748},{"duration":0.28571400000000047,"midi":46,"time":8.999991000000001,"velocity":0.3937007874015748},{"duration":0.14285699999999935,"midi":46,"time":9.285705000000002,"velocity":0.3937007874015748},{"duration":0.14285699999999935,"midi":34,"time":9.285705000000002,"velocity":0.3937007874015748},{"duration":0.28571400000000047,"midi":29,"time":9.428562000000001,"velocity":0.3937007874015748},{"duration":0.28571400000000047,"midi":41,"time":9.428562000000001,"velocity":0.3937007874015748},{"duration":0.14285699999999935,"midi":41,"time":9.714276000000002,"velocity":0.3937007874015748},{"duration":0.14285699999999935,"midi":29,"time":9.714276000000002,"velocity":0.3937007874015748},{"duration":0.28571400000000047,"midi":29,"time":9.857133000000001,"velocity":0.3937007874015748},{"duration":0.28571400000000047,"midi":41,"time":9.857133000000001,"velocity":0.3937007874015748},{"duration":0.14285699999999935,"midi":29,"time":10.142847000000002,"velocity":0.3937007874015748},{"duration":0.14285699999999935,"midi":41,"time":10.142847000000002,"velocity":0.3937007874015748},{"duration":0.28571400000000047,"midi":48,"time":10.285704,"velocity":0.3937007874015748},{"duration":0.28571400000000047,"midi":36,"time":10.285704,"velocity":0.3937007874015748},{"duration":0.14285699999999935,"midi":36,"time":10.571418000000001,"velocity":0.3937007874015748},{"duration":0.14285699999999935,"midi":48,"time":10.571418000000001,"velocity":0.3937007874015748},{"duration":0.28571400000000047,"midi":45,"time":10.714275,"velocity":0.3937007874015748},{"duration":0.28571400000000047,"midi":33,"time":10.714275,"velocity":0.3937007874015748},{"duration":0.14285699999999935,"midi":45,"time":10.999989000000001,"velocity":0.3937007874015748},{"duration":0.14285699999999935,"midi":33,"time":10.999989000000001,"velocity":0.3937007874015748},{"duration":0.28571400000000047,"midi":50,"time":11.142846,"velocity":0.3937007874015748},{"duration":0.28571400000000047,"midi":38,"time":11.142846,"velocity":0.3937007874015748},{"duration":0.14285699999999935,"midi":50,"time":11.428560000000001,"velocity":0.3937007874015748},{"duration":0.14285699999999935,"midi":38,"time":11.428560000000001,"velocity":0.3937007874015748},{"duration":0.28571400000000047,"midi":38,"time":11.571417,"velocity":0.3937007874015748},{"duration":0.28571400000000047,"midi":45,"time":11.571417,"velocity":0.3937007874015748},{"duration":0.14285700000000112,"midi":45,"time":11.857131,"velocity":0.3937007874015748},{"duration":0.14285700000000112,"midi":38,"time":11.857131,"velocity":0.3937007874015748},{"duration":0.28571400000000047,"midi":50,"time":11.999988000000002,"velocity":0.3937007874015748},{"duration":0.28571400000000047,"midi":38,"time":11.999988000000002,"velocity":0.3937007874015748},{"duration":0.14285699999999935,"midi":38,"time":12.285702000000002,"velocity":0.3937007874015748},{"duration":0.14285699999999935,"midi":50,"time":12.285702000000002,"velocity":0.3937007874015748},{"duration":0.28571400000000047,"midi":50,"time":12.428559000000002,"velocity":0.3937007874015748},{"duration":0.28571400000000047,"midi":38,"time":12.428559000000002,"velocity":0.3937007874015748},{"duration":0.14285699999999935,"midi":50,"time":12.714273000000002,"velocity":0.3937007874015748},{"duration":0.14285699999999935,"midi":38,"time":12.714273000000002,"velocity":0.3937007874015748},{"duration":0.28571400000000047,"midi":34,"time":12.857130000000002,"velocity":0.3937007874015748},{"duration":0.28571400000000047,"midi":46,"time":12.857130000000002,"velocity":0.3937007874015748},{"duration":0.14285699999999935,"midi":34,"time":13.142844000000002,"velocity":0.3937007874015748},{"duration":0.14285699999999935,"midi":46,"time":13.142844000000002,"velocity":0.3937007874015748},{"duration":0.28571400000000047,"midi":34,"time":13.285701000000001,"velocity":0.3937007874015748},{"duration":0.28571400000000047,"midi":46,"time":13.285701000000001,"velocity":0.3937007874015748},{"duration":0.14285699999999935,"midi":46,"time":13.571415000000002,"velocity":0.3937007874015748},{"duration":0.14285699999999935,"midi":34,"time":13.571415000000002,"velocity":0.3937007874015748},{"duration":0.2857139999999987,"midi":31,"time":13.714272000000001,"velocity":0.3937007874015748},{"duration":0.2857139999999987,"midi":43,"time":13.714272000000001,"velocity":0.3937007874015748},{"duration":0.14285700000000112,"midi":31,"time":13.999986,"velocity":0.3937007874015748},{"duration":0.14285700000000112,"midi":43,"time":13.999986,"velocity":0.3937007874015748},{"duration":0.2857139999999987,"midi":31,"time":14.142843000000001,"velocity":0.3937007874015748},{"duration":0.2857139999999987,"midi":43,"time":14.142843000000001,"velocity":0.3937007874015748},{"duration":0.14285700000000112,"midi":43,"time":14.428557,"velocity":0.3937007874015748},{"duration":0.14285700000000112,"midi":31,"time":14.428557,"velocity":0.3937007874015748},{"duration":0.2857139999999987,"midi":38,"time":14.571414,"velocity":0.3937007874015748},{"duration":0.2857139999999987,"midi":50,"time":14.571414,"velocity":0.3937007874015748},{"duration":0.14285700000000112,"midi":50,"time":14.857128,"velocity":0.3937007874015748},{"duration":0.14285700000000112,"midi":38,"time":14.857128,"velocity":0.3937007874015748},{"duration":0.28571400000000047,"midi":45,"time":14.999985,"velocity":0.3937007874015748},{"duration":0.28571400000000047,"midi":38,"time":14.999985,"velocity":0.3937007874015748},{"duration":0.14285699999999935,"midi":45,"time":15.285699000000001,"velocity":0.3937007874015748},{"duration":0.14285699999999935,"midi":38,"time":15.285699000000001,"velocity":0.3937007874015748},{"duration":0.28571400000000047,"midi":46,"time":15.428556,"velocity":0.3937007874015748},{"duration":0.28571400000000047,"midi":34,"time":15.428556,"velocity":0.3937007874015748},{"duration":0.14285700000000112,"midi":34,"time":15.71427,"velocity":0.3937007874015748},{"duration":0.14285700000000112,"midi":46,"time":15.71427,"velocity":0.3937007874015748},{"duration":0.2857139999999987,"midi":46,"time":15.857127000000002,"velocity":0.3937007874015748},{"duration":0.2857139999999987,"midi":34,"time":15.857127000000002,"velocity":0.3937007874015748},{"duration":0.14285699999999935,"midi":46,"time":16.142841,"velocity":0.3937007874015748},{"duration":0.14285699999999935,"midi":34,"time":16.142841,"velocity":0.3937007874015748},{"duration":0.2857139999999987,"midi":50,"time":16.285698,"velocity":0.3937007874015748},{"duration":0.2857139999999987,"midi":38,"time":16.285698,"velocity":0.3937007874015748},{"duration":0.1428570000000029,"midi":38,"time":16.571412,"velocity":0.3937007874015748},{"duration":0.1428570000000029,"midi":50,"time":16.571412,"velocity":0.3937007874015748},{"duration":0.2857139999999987,"midi":50,"time":16.714269,"velocity":0.3937007874015748},{"duration":0.2857139999999987,"midi":38,"time":16.714269,"velocity":0.3937007874015748},{"duration":0.14285699999999935,"midi":38,"time":16.999983,"velocity":0.3937007874015748},{"duration":0.14285699999999935,"midi":50,"time":16.999983,"velocity":0.3937007874015748},{"duration":0.28571400000000224,"midi":33,"time":17.14284,"velocity":0.3937007874015748},{"duration":0.28571400000000224,"midi":45,"time":17.14284,"velocity":0.3937007874015748},{"duration":0.14285699999999935,"midi":45,"time":17.428554000000002,"velocity":0.3937007874015748},{"duration":0.14285699999999935,"midi":33,"time":17.428554000000002,"velocity":0.3937007874015748},{"duration":0.2857139999999987,"midi":45,"time":17.571411,"velocity":0.3937007874015748},{"duration":0.2857139999999987,"midi":33,"time":17.571411,"velocity":0.3937007874015748},{"duration":0.1428570000000029,"midi":45,"time":17.857125,"velocity":0.3937007874015748},{"duration":0.1428570000000029,"midi":33,"time":17.857125,"velocity":0.3937007874015748},{"duration":0.2857139999999987,"midi":45,"time":17.999982000000003,"velocity":0.3937007874015748},{"duration":0.2857139999999987,"midi":33,"time":17.999982000000003,"velocity":0.3937007874015748},{"duration":0.14285699999999935,"midi":33,"time":18.285696,"velocity":0.3937007874015748},{"duration":0.14285699999999935,"midi":45,"time":18.285696,"velocity":0.3937007874015748},{"duration":0.2857139999999987,"midi":33,"time":18.428553,"velocity":0.3937007874015748},{"duration":0.2857139999999987,"midi":45,"time":18.428553,"velocity":0.3937007874015748},{"duration":0.1428570000000029,"midi":33,"time":18.714267,"velocity":0.3937007874015748},{"duration":0.1428570000000029,"midi":45,"time":18.714267,"velocity":0.3937007874015748},{"duration":0.2857139999999987,"midi":38,"time":18.857124000000002,"velocity":0.3937007874015748},{"duration":0.2857139999999987,"midi":50,"time":18.857124000000002,"velocity":0.3937007874015748},{"duration":0.14285699999999935,"midi":38,"time":19.142838,"velocity":0.3937007874015748},{"duration":0.14285699999999935,"midi":50,"time":19.142838,"velocity":0.3937007874015748},{"duration":0.2857139999999987,"midi":38,"time":19.285695,"velocity":0.3937007874015748},{"duration":0.2857139999999987,"midi":50,"time":19.285695,"velocity":0.3937007874015748},{"duration":0.1428570000000029,"midi":48,"time":19.571409,"velocity":0.3937007874015748},{"duration":0.1428570000000029,"midi":36,"time":19.571409,"velocity":0.3937007874015748},{"duration":0.2857139999999987,"midi":46,"time":19.714266000000002,"velocity":0.3937007874015748},{"duration":0.2857139999999987,"midi":34,"time":19.714266000000002,"velocity":0.3937007874015748},{"duration":0.14285699999999935,"midi":34,"time":19.99998,"velocity":0.3937007874015748},{"duration":0.14285699999999935,"midi":46,"time":19.99998,"velocity":0.3937007874015748},{"duration":0.28571400000000224,"midi":46,"time":20.142837,"velocity":0.3937007874015748},{"duration":0.28571400000000224,"midi":34,"time":20.142837,"velocity":0.3937007874015748},{"duration":0.14285699999999935,"midi":34,"time":20.428551000000002,"velocity":0.3937007874015748},{"duration":0.14285699999999935,"midi":46,"time":20.428551000000002,"velocity":0.3937007874015748},{"duration":0.2857139999999987,"midi":33,"time":20.571408,"velocity":0.3937007874015748},{"duration":0.2857139999999987,"midi":45,"time":20.571408,"velocity":0.3937007874015748},{"duration":0.1428570000000029,"midi":33,"time":20.857122,"velocity":0.3937007874015748},{"duration":0.1428570000000029,"midi":45,"time":20.857122,"velocity":0.3937007874015748},{"duration":0.2857139999999987,"midi":45,"time":20.999979000000003,"velocity":0.3937007874015748},{"duration":0.2857139999999987,"midi":33,"time":20.999979000000003,"velocity":0.3937007874015748},{"duration":0.14285699999999935,"midi":33,"time":21.285693000000002,"velocity":0.3937007874015748},{"duration":0.14285699999999935,"midi":45,"time":21.285693000000002,"velocity":0.3937007874015748},{"duration":0.2857139999999987,"midi":50,"time":21.42855,"velocity":0.3937007874015748},{"duration":0.2857139999999987,"midi":38,"time":21.42855,"velocity":0.3937007874015748},{"duration":0.1428570000000029,"midi":38,"time":21.714264,"velocity":0.3937007874015748},{"duration":0.1428570000000029,"midi":50,"time":21.714264,"velocity":0.3937007874015748},{"duration":0.2857139999999987,"midi":45,"time":21.857121000000003,"velocity":0.3937007874015748},{"duration":0.2857139999999987,"midi":38,"time":21.857121000000003,"velocity":0.3937007874015748},{"duration":0.14285699999999935,"midi":45,"time":22.142835,"velocity":0.3937007874015748},{"duration":0.14285699999999935,"midi":38,"time":22.142835,"velocity":0.3937007874015748},{"duration":0.2857139999999987,"midi":34,"time":22.285692,"velocity":0.3937007874015748},{"duration":0.2857139999999987,"midi":46,"time":22.285692,"velocity":0.3937007874015748},{"duration":0.1428570000000029,"midi":46,"time":22.571406,"velocity":0.3937007874015748},{"duration":0.1428570000000029,"midi":34,"time":22.571406,"velocity":0.3937007874015748},{"duration":0.2857139999999987,"midi":34,"time":22.714263000000003,"velocity":0.3937007874015748},{"duration":0.2857139999999987,"midi":46,"time":22.714263000000003,"velocity":0.3937007874015748},{"duration":0.14285699999999935,"midi":46,"time":22.999977,"velocity":0.3937007874015748},{"duration":0.14285699999999935,"midi":34,"time":22.999977,"velocity":0.3937007874015748},{"duration":0.2857139999999987,"midi":41,"time":23.142834,"velocity":0.3937007874015748},{"duration":0.2857139999999987,"midi":29,"time":23.142834,"velocity":0.3937007874015748},{"duration":0.1428570000000029,"midi":29,"time":23.428548,"velocity":0.3937007874015748},{"duration":0.1428570000000029,"midi":41,"time":23.428548,"velocity":0.3937007874015748},{"duration":0.2857139999999987,"midi":41,"time":23.571405000000002,"velocity":0.3937007874015748},{"duration":0.2857139999999987,"midi":29,"time":23.571405000000002,"velocity":0.3937007874015748},{"duration":0.1428570000000029,"midi":41,"time":23.857119,"velocity":0.3937007874015748},{"duration":0.1428570000000029,"midi":29,"time":23.857119,"velocity":0.3937007874015748},{"duration":0.2857139999999987,"midi":36,"time":23.999976000000004,"velocity":0.3937007874015748},{"duration":0.2857139999999987,"midi":48,"time":23.999976000000004,"velocity":0.3937007874015748},{"duration":0.14285699999999935,"midi":48,"time":24.285690000000002,"velocity":0.3937007874015748},{"duration":0.14285699999999935,"midi":36,"time":24.285690000000002,"velocity":0.3937007874015748},{"duration":0.2857139999999987,"midi":45,"time":24.428547000000002,"velocity":0.3937007874015748},{"duration":0.2857139999999987,"midi":33,"time":24.428547000000002,"velocity":0.3937007874015748},{"duration":0.1428570000000029,"midi":33,"time":24.714261,"velocity":0.3937007874015748},{"duration":0.1428570000000029,"midi":45,"time":24.714261,"velocity":0.3937007874015748},{"duration":0.2857139999999987,"midi":38,"time":24.857118000000003,"velocity":0.3937007874015748},{"duration":0.2857139999999987,"midi":50,"time":24.857118000000003,"velocity":0.3937007874015748},{"duration":0.14285699999999935,"midi":38,"time":25.142832000000002,"velocity":0.3937007874015748},{"duration":0.14285699999999935,"midi":50,"time":25.142832000000002,"velocity":0.3937007874015748},{"duration":0.2857139999999987,"midi":45,"time":25.285689,"velocity":0.3937007874015748},{"duration":0.2857139999999987,"midi":38,"time":25.285689,"velocity":0.3937007874015748},{"duration":0.1428570000000029,"midi":45,"time":25.571403,"velocity":0.3937007874015748},{"duration":0.1428570000000029,"midi":38,"time":25.571403,"velocity":0.3937007874015748},{"duration":0.2857139999999987,"midi":50,"time":25.714260000000003,"velocity":0.3937007874015748},{"duration":0.2857139999999987,"midi":38,"time":25.714260000000003,"velocity":0.3937007874015748},{"duration":0.14285699999999935,"midi":50,"time":25.999974,"velocity":0.3937007874015748},{"duration":0.14285699999999935,"midi":38,"time":25.999974,"velocity":0.3937007874015748},{"duration":0.2857139999999987,"midi":38,"time":26.142831,"velocity":0.3937007874015748},{"duration":0.2857139999999987,"midi":50,"time":26.142831,"velocity":0.3937007874015748},{"duration":0.1428570000000029,"midi":38,"time":26.428545,"velocity":0.3937007874015748},{"duration":0.1428570000000029,"midi":50,"time":26.428545,"velocity":0.3937007874015748},{"duration":0.2857139999999987,"midi":46,"time":26.571402000000003,"velocity":0.3937007874015748},{"duration":0.2857139999999987,"midi":34,"time":26.571402000000003,"velocity":0.3937007874015748},{"duration":0.14285699999999935,"midi":34,"time":26.857116,"velocity":0.3937007874015748},{"duration":0.14285699999999935,"midi":46,"time":26.857116,"velocity":0.3937007874015748},{"duration":0.28571400000000224,"midi":34,"time":26.999973,"velocity":0.3937007874015748},{"duration":0.28571400000000224,"midi":46,"time":26.999973,"velocity":0.3937007874015748},{"duration":0.14285699999999935,"midi":46,"time":27.285687000000003,"velocity":0.3937007874015748},{"duration":0.14285699999999935,"midi":34,"time":27.285687000000003,"velocity":0.3937007874015748},{"duration":0.28571400000000224,"midi":43,"time":27.428544000000002,"velocity":0.3937007874015748},{"duration":0.28571400000000224,"midi":31,"time":27.428544000000002,"velocity":0.3937007874015748},{"duration":0.14285699999999935,"midi":31,"time":27.714258000000005,"velocity":0.3937007874015748},{"duration":0.14285699999999935,"midi":43,"time":27.714258000000005,"velocity":0.3937007874015748},{"duration":0.28571400000000224,"midi":31,"time":27.857115000000004,"velocity":0.3937007874015748},{"duration":0.28571400000000224,"midi":43,"time":27.857115000000004,"velocity":0.3937007874015748},{"duration":0.1428569999999958,"midi":31,"time":28.142829000000006,"velocity":0.3937007874015748},{"duration":0.1428569999999958,"midi":43,"time":28.142829000000006,"velocity":0.3937007874015748},{"duration":0.28571400000000224,"midi":38,"time":28.285686000000002,"velocity":0.3937007874015748},{"duration":0.28571400000000224,"midi":50,"time":28.285686000000002,"velocity":0.3937007874015748},{"duration":0.14285699999999935,"midi":38,"time":28.571400000000004,"velocity":0.3937007874015748},{"duration":0.14285699999999935,"midi":50,"time":28.571400000000004,"velocity":0.3937007874015748},{"duration":0.28571400000000224,"midi":45,"time":28.714257000000003,"velocity":0.3937007874015748},{"duration":0.28571400000000224,"midi":38,"time":28.714257000000003,"velocity":0.3937007874015748},{"duration":0.1428569999999958,"midi":45,"time":28.999971000000006,"velocity":0.3937007874015748},{"duration":0.1428569999999958,"midi":38,"time":28.999971000000006,"velocity":0.3937007874015748},{"duration":0.28571400000000224,"midi":46,"time":29.142828,"velocity":0.3937007874015748},{"duration":0.28571400000000224,"midi":34,"time":29.142828,"velocity":0.3937007874015748},{"duration":0.14285699999999935,"midi":46,"time":29.428542000000004,"velocity":0.3937007874015748},{"duration":0.14285699999999935,"midi":34,"time":29.428542000000004,"velocity":0.3937007874015748},{"duration":0.28571400000000224,"midi":34,"time":29.571399000000003,"velocity":0.3937007874015748},{"duration":0.28571400000000224,"midi":46,"time":29.571399000000003,"velocity":0.3937007874015748},{"duration":0.1428569999999958,"midi":34,"time":29.857113000000005,"velocity":0.3937007874015748},{"duration":0.1428569999999958,"midi":46,"time":29.857113000000005,"velocity":0.3937007874015748},{"duration":0.28571400000000224,"midi":38,"time":29.99997,"velocity":0.3937007874015748},{"duration":0.28571400000000224,"midi":50,"time":29.99997,"velocity":0.3937007874015748},{"duration":0.14285699999999935,"midi":38,"time":30.285684000000003,"velocity":0.3937007874015748},{"duration":0.14285699999999935,"midi":50,"time":30.285684000000003,"velocity":0.3937007874015748},{"duration":0.28571400000000224,"midi":50,"time":30.428541000000003,"velocity":0.3937007874015748},{"duration":0.28571400000000224,"midi":38,"time":30.428541000000003,"velocity":0.3937007874015748},{"duration":0.1428569999999958,"midi":50,"time":30.714255000000005,"velocity":0.3937007874015748},{"duration":0.1428569999999958,"midi":38,"time":30.714255000000005,"velocity":0.3937007874015748},{"duration":0.28571400000000224,"midi":33,"time":30.857112,"velocity":0.3937007874015748},{"duration":0.28571400000000224,"midi":45,"time":30.857112,"velocity":0.3937007874015748},{"duration":0.14285699999999935,"midi":45,"time":31.142826000000003,"velocity":0.3937007874015748},{"duration":0.14285699999999935,"midi":33,"time":31.142826000000003,"velocity":0.3937007874015748},{"duration":0.28571400000000224,"midi":45,"time":31.285683000000002,"velocity":0.3937007874015748},{"duration":0.28571400000000224,"midi":33,"time":31.285683000000002,"velocity":0.3937007874015748},{"duration":0.14285699999999935,"midi":33,"time":31.571397000000005,"velocity":0.3937007874015748},{"duration":0.14285699999999935,"midi":45,"time":31.571397000000005,"velocity":0.3937007874015748},{"duration":0.28571400000000224,"midi":50,"time":31.714254000000004,"velocity":0.3937007874015748},{"duration":0.28571400000000224,"midi":38,"time":31.714254000000004,"velocity":0.3937007874015748},{"duration":0.28571399999999514,"midi":38,"time":31.999968000000006,"velocity":0.3937007874015748},{"duration":0.28571399999999514,"midi":50,"time":31.999968000000006,"velocity":0.3937007874015748},{"duration":0.2857139999999987,"midi":36,"time":32.285682,"velocity":0.3937007874015748},{"duration":0.2857139999999987,"midi":48,"time":32.285682,"velocity":0.3937007874015748},{"duration":0.2857140000000058,"midi":36,"time":32.571396,"velocity":0.3937007874015748},{"duration":0.2857140000000058,"midi":48,"time":32.571396,"velocity":0.3937007874015748},{"duration":0.2857139999999916,"midi":36,"time":32.857110000000006,"velocity":0.3937007874015748},{"duration":0.2857139999999916,"midi":48,"time":32.857110000000006,"velocity":0.3937007874015748},{"duration":0.2857140000000058,"midi":46,"time":33.142824,"velocity":0.3937007874015748},{"duration":0.2857140000000058,"midi":34,"time":33.142824,"velocity":0.3937007874015748},{"duration":0.2857139999999987,"midi":33,"time":33.428538,"velocity":0.3937007874015748},{"duration":0.2857139999999987,"midi":45,"time":33.428538,"velocity":0.3937007874015748},{"duration":0.14285699999999935,"midi":33,"time":33.714252,"velocity":0.3937007874015748},{"duration":0.14285699999999935,"midi":45,"time":33.714252,"velocity":0.3937007874015748},{"duration":0.2857140000000058,"midi":33,"time":33.857109,"velocity":0.3937007874015748},{"duration":0.2857140000000058,"midi":45,"time":33.857109,"velocity":0.3937007874015748},{"duration":0.14285699999999224,"midi":33,"time":34.14282300000001,"velocity":0.3937007874015748},{"duration":0.14285699999999224,"midi":45,"time":34.14282300000001,"velocity":0.3937007874015748},{"duration":0.2857140000000058,"midi":45,"time":34.28568,"velocity":0.3937007874015748},{"duration":0.2857140000000058,"midi":33,"time":34.28568,"velocity":0.3937007874015748},{"duration":0.14285699999999935,"midi":33,"time":34.571394000000005,"velocity":0.3937007874015748},{"duration":0.14285699999999935,"midi":45,"time":34.571394000000005,"velocity":0.3937007874015748},{"duration":0.2857139999999987,"midi":45,"time":34.714251000000004,"velocity":0.3937007874015748},{"duration":0.2857139999999987,"midi":33,"time":34.714251000000004,"velocity":0.3937007874015748},{"duration":0.14285699999999935,"midi":33,"time":34.999965,"velocity":0.3937007874015748},{"duration":0.14285699999999935,"midi":45,"time":34.999965,"velocity":0.3937007874015748},{"duration":0.2857140000000058,"midi":31,"time":35.142822,"velocity":0.3937007874015748},{"duration":0.2857140000000058,"midi":43,"time":35.142822,"velocity":0.3937007874015748},{"duration":0.14285699999999224,"midi":43,"time":35.42853600000001,"velocity":0.3937007874015748},{"duration":0.14285699999999224,"midi":31,"time":35.42853600000001,"velocity":0.3937007874015748},{"duration":0.2857140000000058,"midi":43,"time":35.571393,"velocity":0.3937007874015748},{"duration":0.2857140000000058,"midi":31,"time":35.571393,"velocity":0.3937007874015748},{"duration":0.14285699999999935,"midi":43,"time":35.857107000000006,"velocity":0.3937007874015748},{"duration":0.14285699999999935,"midi":31,"time":35.857107000000006,"velocity":0.3937007874015748},{"duration":0.2857139999999987,"midi":43,"time":35.999964000000006,"velocity":0.3937007874015748},{"duration":0.2857139999999987,"midi":31,"time":35.999964000000006,"velocity":0.3937007874015748},{"duration":0.14285699999999935,"midi":31,"time":36.285678000000004,"velocity":0.3937007874015748},{"duration":0.14285699999999935,"midi":43,"time":36.285678000000004,"velocity":0.3937007874015748},{"duration":0.2857139999999987,"midi":43,"time":36.428535000000004,"velocity":0.3937007874015748},{"duration":0.2857139999999987,"midi":31,"time":36.428535000000004,"velocity":0.3937007874015748},{"duration":0.14285699999999935,"midi":31,"time":36.714249,"velocity":0.3937007874015748},{"duration":0.14285699999999935,"midi":43,"time":36.714249,"velocity":0.3937007874015748},{"duration":0.2857140000000058,"midi":45,"time":36.857106,"velocity":0.3937007874015748},{"duration":0.2857140000000058,"midi":33,"time":36.857106,"velocity":0.3937007874015748},{"duration":0.14285699999999224,"midi":33,"time":37.14282000000001,"velocity":0.3937007874015748},{"duration":0.14285699999999224,"midi":45,"time":37.14282000000001,"velocity":0.3937007874015748},{"duration":0.2857140000000058,"midi":33,"time":37.285677,"velocity":0.3937007874015748},{"duration":0.2857140000000058,"midi":45,"time":37.285677,"velocity":0.3937007874015748},{"duration":0.14285699999999935,"midi":45,"time":37.571391000000006,"velocity":0.3937007874015748},{"duration":0.14285699999999935,"midi":33,"time":37.571391000000006,"velocity":0.3937007874015748},{"duration":0.2857139999999987,"midi":45,"time":37.714248000000005,"velocity":0.3937007874015748},{"duration":0.2857139999999987,"midi":33,"time":37.714248000000005,"velocity":0.3937007874015748},{"duration":0.14285699999999935,"midi":33,"time":37.999962000000004,"velocity":0.3937007874015748},{"duration":0.14285699999999935,"midi":45,"time":37.999962000000004,"velocity":0.3937007874015748},{"duration":0.2857140000000058,"midi":45,"time":38.142819,"velocity":0.3937007874015748},{"duration":0.2857140000000058,"midi":33,"time":38.142819,"velocity":0.3937007874015748},{"duration":0.14285699999999224,"midi":33,"time":38.42853300000001,"velocity":0.3937007874015748},{"duration":0.14285699999999224,"midi":45,"time":38.42853300000001,"velocity":0.3937007874015748},{"duration":0.2857140000000058,"midi":50,"time":38.57139,"velocity":0.3937007874015748},{"duration":0.2857140000000058,"midi":38,"time":38.57139,"velocity":0.3937007874015748},{"duration":0.14285699999999935,"midi":50,"time":38.85710400000001,"velocity":0.3937007874015748},{"duration":0.14285699999999935,"midi":38,"time":38.85710400000001,"velocity":0.3937007874015748},{"duration":0.2857139999999987,"midi":38,"time":38.999961000000006,"velocity":0.3937007874015748},{"duration":0.2857139999999987,"midi":50,"time":38.999961000000006,"velocity":0.3937007874015748},{"duration":0.14285699999999935,"midi":38,"time":39.285675000000005,"velocity":0.3937007874015748},{"duration":0.14285699999999935,"midi":50,"time":39.285675000000005,"velocity":0.3937007874015748},{"duration":0.2857139999999987,"midi":38,"time":39.428532000000004,"velocity":0.3937007874015748},{"duration":0.2857139999999987,"midi":50,"time":39.428532000000004,"velocity":0.3937007874015748},{"duration":0.14285699999999935,"midi":38,"time":39.714246,"velocity":0.3937007874015748},{"duration":0.14285699999999935,"midi":50,"time":39.714246,"velocity":0.3937007874015748},{"duration":0.2857140000000058,"midi":50,"time":39.857103,"velocity":0.3937007874015748},{"duration":0.2857140000000058,"midi":38,"time":39.857103,"velocity":0.3937007874015748},{"duration":0.14285699999999224,"midi":50,"time":40.14281700000001,"velocity":0.3937007874015748},{"duration":0.14285699999999224,"midi":38,"time":40.14281700000001,"velocity":0.3937007874015748},{"duration":0.2857140000000058,"midi":48,"time":40.285674,"velocity":0.3937007874015748},{"duration":0.2857140000000058,"midi":36,"time":40.285674,"velocity":0.3937007874015748},{"duration":0.14285699999999935,"midi":48,"time":40.571388000000006,"velocity":0.3937007874015748},{"duration":0.14285699999999935,"midi":36,"time":40.571388000000006,"velocity":0.3937007874015748},{"duration":0.2857139999999987,"midi":48,"time":40.714245000000005,"velocity":0.3937007874015748},{"duration":0.2857139999999987,"midi":36,"time":40.714245000000005,"velocity":0.3937007874015748},{"duration":0.14285699999999935,"midi":36,"time":40.999959000000004,"velocity":0.3937007874015748},{"duration":0.14285699999999935,"midi":48,"time":40.999959000000004,"velocity":0.3937007874015748},{"duration":0.2857139999999987,"midi":41,"time":41.142816,"velocity":0.3937007874015748},{"duration":0.2857139999999987,"midi":53,"time":41.142816,"velocity":0.3937007874015748},{"duration":0.14285699999999935,"midi":53,"time":41.42853,"velocity":0.3937007874015748},{"duration":0.14285699999999935,"midi":41,"time":41.42853,"velocity":0.3937007874015748},{"duration":0.2857140000000058,"midi":41,"time":41.571387,"velocity":0.3937007874015748},{"duration":0.2857140000000058,"midi":53,"time":41.571387,"velocity":0.3937007874015748},{"duration":0.14285699999999935,"midi":41,"time":41.85710100000001,"velocity":0.3937007874015748},{"duration":0.14285699999999935,"midi":53,"time":41.85710100000001,"velocity":0.3937007874015748},{"duration":0.2857139999999987,"midi":50,"time":41.99995800000001,"velocity":0.3937007874015748},{"duration":0.2857139999999987,"midi":38,"time":41.99995800000001,"velocity":0.3937007874015748},{"duration":0.14285699999999935,"midi":38,"time":42.285672000000005,"velocity":0.3937007874015748},{"duration":0.14285699999999935,"midi":50,"time":42.285672000000005,"velocity":0.3937007874015748},{"duration":0.2857139999999987,"midi":50,"time":42.428529000000005,"velocity":0.3937007874015748},{"duration":0.2857139999999987,"midi":38,"time":42.428529000000005,"velocity":0.3937007874015748},{"duration":0.14285699999999935,"midi":38,"time":42.714243,"velocity":0.3937007874015748},{"duration":0.14285699999999935,"midi":50,"time":42.714243,"velocity":0.3937007874015748},{"duration":0.2857140000000058,"midi":38,"time":42.8571,"velocity":0.3937007874015748},{"duration":0.2857140000000058,"midi":50,"time":42.8571,"velocity":0.3937007874015748},{"duration":0.14285699999999224,"midi":38,"time":43.14281400000001,"velocity":0.3937007874015748},{"duration":0.14285699999999224,"midi":50,"time":43.14281400000001,"velocity":0.3937007874015748},{"duration":0.2857140000000058,"midi":50,"time":43.285671,"velocity":0.3937007874015748},{"duration":0.2857140000000058,"midi":38,"time":43.285671,"velocity":0.3937007874015748},{"duration":0.14285699999999935,"midi":38,"time":43.57138500000001,"velocity":0.3937007874015748},{"duration":0.14285699999999935,"midi":50,"time":43.57138500000001,"velocity":0.3937007874015748},{"duration":0.2857139999999987,"midi":33,"time":43.714242000000006,"velocity":0.3937007874015748},{"duration":0.2857139999999987,"midi":45,"time":43.714242000000006,"velocity":0.3937007874015748},{"duration":0.14285699999999935,"midi":33,"time":43.999956000000005,"velocity":0.3937007874015748},{"duration":0.14285699999999935,"midi":45,"time":43.999956000000005,"velocity":0.3937007874015748},{"duration":0.2857139999999987,"midi":45,"time":44.142813000000004,"velocity":0.3937007874015748},{"duration":0.2857139999999987,"midi":33,"time":44.142813000000004,"velocity":0.3937007874015748},{"duration":0.14285699999999935,"midi":45,"time":44.428527,"velocity":0.3937007874015748},{"duration":0.14285699999999935,"midi":33,"time":44.428527,"velocity":0.3937007874015748},{"duration":0.2857140000000058,"midi":50,"time":44.571384,"velocity":0.3937007874015748},{"duration":0.2857140000000058,"midi":38,"time":44.571384,"velocity":0.3937007874015748},{"duration":0.14285699999999935,"midi":38,"time":44.85709800000001,"velocity":0.3937007874015748},{"duration":0.14285699999999935,"midi":50,"time":44.85709800000001,"velocity":0.3937007874015748},{"duration":0.2857139999999987,"midi":38,"time":44.99995500000001,"velocity":0.3937007874015748},{"duration":0.2857139999999987,"midi":50,"time":44.99995500000001,"velocity":0.3937007874015748},{"duration":0.14285699999999935,"midi":38,"time":45.285669000000006,"velocity":0.3937007874015748},{"duration":0.14285699999999935,"midi":50,"time":45.285669000000006,"velocity":0.3937007874015748},{"duration":0.2857139999999987,"midi":50,"time":45.428526000000005,"velocity":0.3937007874015748},{"duration":0.2857139999999987,"midi":38,"time":45.428526000000005,"velocity":0.3937007874015748},{"duration":0.14285699999999935,"midi":50,"time":45.714240000000004,"velocity":0.3937007874015748},{"duration":0.14285699999999935,"midi":38,"time":45.714240000000004,"velocity":0.3937007874015748},{"duration":0.2857140000000058,"midi":50,"time":45.857097,"velocity":0.3937007874015748},{"duration":0.2857140000000058,"midi":38,"time":45.857097,"velocity":0.3937007874015748},{"duration":0.14285699999999224,"midi":50,"time":46.14281100000001,"velocity":0.3937007874015748},{"duration":0.14285699999999224,"midi":38,"time":46.14281100000001,"velocity":0.3937007874015748},{"duration":0.2857140000000058,"midi":36,"time":46.285668,"velocity":0.3937007874015748},{"duration":0.2857140000000058,"midi":48,"time":46.285668,"velocity":0.3937007874015748},{"duration":0.14285699999999935,"midi":36,"time":46.57138200000001,"velocity":0.3937007874015748},{"duration":0.14285699999999935,"midi":48,"time":46.57138200000001,"velocity":0.3937007874015748},{"duration":0.2857139999999987,"midi":36,"time":46.714239000000006,"velocity":0.3937007874015748},{"duration":0.2857139999999987,"midi":48,"time":46.714239000000006,"velocity":0.3937007874015748},{"duration":0.14285699999999935,"midi":48,"time":46.999953000000005,"velocity":0.3937007874015748},{"duration":0.14285699999999935,"midi":36,"time":46.999953000000005,"velocity":0.3937007874015748},{"duration":0.2857139999999987,"midi":41,"time":47.142810000000004,"velocity":0.3937007874015748},{"duration":0.2857139999999987,"midi":53,"time":47.142810000000004,"velocity":0.3937007874015748},{"duration":0.14285699999999935,"midi":53,"time":47.428524,"velocity":0.3937007874015748},{"duration":0.14285699999999935,"midi":41,"time":47.428524,"velocity":0.3937007874015748},{"duration":0.2857140000000058,"midi":53,"time":47.571381,"velocity":0.3937007874015748},{"duration":0.2857140000000058,"midi":41,"time":47.571381,"velocity":0.3937007874015748},{"duration":0.14285699999999935,"midi":41,"time":47.85709500000001,"velocity":0.3937007874015748},{"duration":0.14285699999999935,"midi":53,"time":47.85709500000001,"velocity":0.3937007874015748},{"duration":0.2857139999999987,"midi":48,"time":47.99995200000001,"velocity":0.3937007874015748},{"duration":0.2857139999999987,"midi":36,"time":47.99995200000001,"velocity":0.3937007874015748},{"duration":0.14285699999999935,"midi":48,"time":48.285666000000006,"velocity":0.3937007874015748},{"duration":0.14285699999999935,"midi":36,"time":48.285666000000006,"velocity":0.3937007874015748},{"duration":0.2857139999999987,"midi":36,"time":48.428523000000006,"velocity":0.3937007874015748},{"duration":0.2857139999999987,"midi":48,"time":48.428523000000006,"velocity":0.3937007874015748},{"duration":0.14285699999999935,"midi":36,"time":48.714237000000004,"velocity":0.3937007874015748},{"duration":0.14285699999999935,"midi":48,"time":48.714237000000004,"velocity":0.3937007874015748},{"duration":0.2857140000000058,"midi":38,"time":48.857094000000004,"velocity":0.3937007874015748},{"duration":0.2857140000000058,"midi":50,"time":48.857094000000004,"velocity":0.3937007874015748},{"duration":0.14285699999999224,"midi":50,"time":49.14280800000001,"velocity":0.3937007874015748},{"duration":0.14285699999999224,"midi":38,"time":49.14280800000001,"velocity":0.3937007874015748},{"duration":0.2857140000000058,"midi":50,"time":49.285665,"velocity":0.3937007874015748},{"duration":0.2857140000000058,"midi":38,"time":49.285665,"velocity":0.3937007874015748},{"duration":0.14285699999999935,"midi":50,"time":49.57137900000001,"velocity":0.3937007874015748},{"duration":0.14285699999999935,"midi":38,"time":49.57137900000001,"velocity":0.3937007874015748},{"duration":0.2857139999999987,"midi":33,"time":49.71423600000001,"velocity":0.3937007874015748},{"duration":0.2857139999999987,"midi":45,"time":49.71423600000001,"velocity":0.3937007874015748},{"duration":0.14285699999999935,"midi":33,"time":49.999950000000005,"velocity":0.3937007874015748},{"duration":0.14285699999999935,"midi":45,"time":49.999950000000005,"velocity":0.3937007874015748},{"duration":0.2857139999999987,"midi":45,"time":50.142807000000005,"velocity":0.3937007874015748},{"duration":0.2857139999999987,"midi":33,"time":50.142807000000005,"velocity":0.3937007874015748},{"duration":0.14285699999999935,"midi":33,"time":50.428521,"velocity":0.3937007874015748},{"duration":0.14285699999999935,"midi":45,"time":50.428521,"velocity":0.3937007874015748},{"duration":0.2857140000000058,"midi":38,"time":50.571378,"velocity":0.3937007874015748},{"duration":0.2857140000000058,"midi":50,"time":50.571378,"velocity":0.3937007874015748},{"duration":0.14285699999999224,"midi":50,"time":50.85709200000001,"velocity":0.3937007874015748},{"duration":0.14285699999999224,"midi":38,"time":50.85709200000001,"velocity":0.3937007874015748},{"duration":0.2857140000000058,"midi":38,"time":50.999949,"velocity":0.3937007874015748},{"duration":0.2857140000000058,"midi":50,"time":50.999949,"velocity":0.3937007874015748},{"duration":0.14285699999999935,"midi":38,"time":51.28566300000001,"velocity":0.3937007874015748},{"duration":0.14285699999999935,"midi":50,"time":51.28566300000001,"velocity":0.3937007874015748},{"duration":0.2857139999999987,"midi":38,"time":51.428520000000006,"velocity":0.3937007874015748},{"duration":0.2857139999999987,"midi":50,"time":51.428520000000006,"velocity":0.3937007874015748},{"duration":0.14285699999999935,"midi":50,"time":51.714234000000005,"velocity":0.3937007874015748},{"duration":0.14285699999999935,"midi":38,"time":51.714234000000005,"velocity":0.3937007874015748},{"duration":0.2857140000000058,"midi":50,"time":51.857091000000004,"velocity":0.3937007874015748},{"duration":0.2857140000000058,"midi":38,"time":51.857091000000004,"velocity":0.3937007874015748},{"duration":0.14285699999999224,"midi":38,"time":52.14280500000001,"velocity":0.3937007874015748},{"duration":0.14285699999999224,"midi":50,"time":52.14280500000001,"velocity":0.3937007874015748},{"duration":0.2857140000000058,"midi":38,"time":52.285662,"velocity":0.3937007874015748},{"duration":0.2857140000000058,"midi":50,"time":52.285662,"velocity":0.3937007874015748},{"duration":0.14285699999999935,"midi":38,"time":52.57137600000001,"velocity":0.3937007874015748},{"duration":0.14285699999999935,"midi":50,"time":52.57137600000001,"velocity":0.3937007874015748},{"duration":0.2857139999999987,"midi":50,"time":52.71423300000001,"velocity":0.3937007874015748},{"duration":0.2857139999999987,"midi":38,"time":52.71423300000001,"velocity":0.3937007874015748},{"duration":0.14285699999999935,"midi":50,"time":52.999947000000006,"velocity":0.3937007874015748},{"duration":0.14285699999999935,"midi":38,"time":52.999947000000006,"velocity":0.3937007874015748},{"duration":0.2857139999999987,"midi":48,"time":53.142804000000005,"velocity":0.3937007874015748},{"duration":0.2857139999999987,"midi":36,"time":53.142804000000005,"velocity":0.3937007874015748},{"duration":0.14285699999999935,"midi":48,"time":53.428518000000004,"velocity":0.3937007874015748},{"duration":0.14285699999999935,"midi":36,"time":53.428518000000004,"velocity":0.3937007874015748},{"duration":0.2857140000000058,"midi":48,"time":53.571375,"velocity":0.3937007874015748},{"duration":0.2857140000000058,"midi":36,"time":53.571375,"velocity":0.3937007874015748},{"duration":0.14285699999999224,"midi":36,"time":53.85708900000001,"velocity":0.3937007874015748},{"duration":0.14285699999999224,"midi":48,"time":53.85708900000001,"velocity":0.3937007874015748},{"duration":0.2857140000000058,"midi":41,"time":53.999946,"velocity":0.3937007874015748},{"duration":0.2857140000000058,"midi":53,"time":53.999946,"velocity":0.3937007874015748},{"duration":0.14285699999999935,"midi":41,"time":54.28566000000001,"velocity":0.3937007874015748},{"duration":0.14285699999999935,"midi":53,"time":54.28566000000001,"velocity":0.3937007874015748},{"duration":0.2857139999999987,"midi":41,"time":54.42851700000001,"velocity":0.3937007874015748},{"duration":0.2857139999999987,"midi":53,"time":54.42851700000001,"velocity":0.3937007874015748},{"duration":0.14285699999999935,"midi":53,"time":54.714231000000005,"velocity":0.3937007874015748},{"duration":0.14285699999999935,"midi":41,"time":54.714231000000005,"velocity":0.3937007874015748},{"duration":0.2857139999999987,"midi":46,"time":54.857088000000005,"velocity":0.3937007874015748},{"duration":0.2857139999999987,"midi":34,"time":54.857088000000005,"velocity":0.3937007874015748},{"duration":0.14285699999999935,"midi":34,"time":55.142802,"velocity":0.3937007874015748},{"duration":0.14285699999999935,"midi":46,"time":55.142802,"velocity":0.3937007874015748},{"duration":0.2857139999999987,"midi":46,"time":55.285659,"velocity":0.3937007874015748},{"duration":0.2857139999999987,"midi":34,"time":55.285659,"velocity":0.3937007874015748},{"duration":0.14285700000000645,"midi":46,"time":55.571373,"velocity":0.3937007874015748},{"duration":0.14285700000000645,"midi":34,"time":55.571373,"velocity":0.3937007874015748},{"duration":0.2857139999999916,"midi":50,"time":55.71423000000001,"velocity":0.3937007874015748},{"duration":0.2857139999999916,"midi":38,"time":55.71423000000001,"velocity":0.3937007874015748},{"duration":0.14285700000000645,"midi":38,"time":55.999944,"velocity":0.3937007874015748},{"duration":0.14285700000000645,"midi":50,"time":55.999944,"velocity":0.3937007874015748},{"duration":0.2857139999999916,"midi":50,"time":56.142801000000006,"velocity":0.3937007874015748},{"duration":0.2857139999999916,"midi":38,"time":56.142801000000006,"velocity":0.3937007874015748},{"duration":0.14285700000000645,"midi":50,"time":56.428515,"velocity":0.3937007874015748},{"duration":0.14285700000000645,"midi":38,"time":56.428515,"velocity":0.3937007874015748},{"duration":0.2857139999999987,"midi":46,"time":56.571372000000004,"velocity":0.3937007874015748},{"duration":0.2857139999999987,"midi":34,"time":56.571372000000004,"velocity":0.3937007874015748},{"duration":0.14285699999999935,"midi":46,"time":56.857086,"velocity":0.3937007874015748},{"duration":0.14285699999999935,"midi":34,"time":56.857086,"velocity":0.3937007874015748},{"duration":0.2857139999999987,"midi":34,"time":56.999943,"velocity":0.3937007874015748},{"duration":0.2857139999999987,"midi":46,"time":56.999943,"velocity":0.3937007874015748},{"duration":0.14285700000000645,"midi":46,"time":57.285657,"velocity":0.3937007874015748},{"duration":0.14285700000000645,"midi":34,"time":57.285657,"velocity":0.3937007874015748},{"duration":0.2857139999999916,"midi":33,"time":57.42851400000001,"velocity":0.3937007874015748},{"duration":0.2857139999999916,"midi":45,"time":57.42851400000001,"velocity":0.3937007874015748},{"duration":0.14285700000000645,"midi":45,"time":57.714228,"velocity":0.3937007874015748},{"duration":0.14285700000000645,"midi":33,"time":57.714228,"velocity":0.3937007874015748},{"duration":0.2857139999999987,"midi":33,"time":57.857085000000005,"velocity":0.3937007874015748},{"duration":0.2857139999999987,"midi":45,"time":57.857085000000005,"velocity":0.3937007874015748},{"duration":0.14285699999999935,"midi":45,"time":58.142799000000004,"velocity":0.3937007874015748},{"duration":0.14285699999999935,"midi":33,"time":58.142799000000004,"velocity":0.3937007874015748},{"duration":0.2857139999999987,"midi":45,"time":58.285656,"velocity":0.3937007874015748},{"duration":0.2857139999999987,"midi":33,"time":58.285656,"velocity":0.3937007874015748},{"duration":0.14285700000000645,"midi":33,"time":58.57137,"velocity":0.3937007874015748},{"duration":0.14285700000000645,"midi":45,"time":58.57137,"velocity":0.3937007874015748},{"duration":0.2857139999999916,"midi":45,"time":58.71422700000001,"velocity":0.3937007874015748},{"duration":0.2857139999999916,"midi":33,"time":58.71422700000001,"velocity":0.3937007874015748},{"duration":0.14285700000000645,"midi":45,"time":58.999941,"velocity":0.3937007874015748},{"duration":0.14285700000000645,"midi":33,"time":58.999941,"velocity":0.3937007874015748},{"duration":0.2857139999999916,"midi":38,"time":59.142798000000006,"velocity":0.3937007874015748},{"duration":0.2857139999999916,"midi":50,"time":59.142798000000006,"velocity":0.3937007874015748},{"duration":0.14285700000000645,"midi":38,"time":59.428512,"velocity":0.3937007874015748},{"duration":0.14285700000000645,"midi":50,"time":59.428512,"velocity":0.3937007874015748},{"duration":0.14285700000000645,"midi":50,"time":59.571369000000004,"velocity":0.3937007874015748},{"duration":0.14285700000000645,"midi":38,"time":59.571369000000004,"velocity":0.3937007874015748},{"duration":0.14285699999999224,"midi":38,"time":59.71422600000001,"velocity":0.3937007874015748},{"duration":0.14285699999999224,"midi":50,"time":59.71422600000001,"velocity":0.3937007874015748},{"duration":0.14285699999999935,"midi":50,"time":59.857083,"velocity":0.3937007874015748},{"duration":0.14285699999999935,"midi":38,"time":59.857083,"velocity":0.3937007874015748},{"duration":0.2857139999999987,"midi":43,"time":59.99994,"velocity":0.3937007874015748},{"duration":0.2857139999999987,"midi":31,"time":59.99994,"velocity":0.3937007874015748},{"duration":0.14285700000000645,"midi":43,"time":60.285654,"velocity":0.3937007874015748},{"duration":0.14285700000000645,"midi":31,"time":60.285654,"velocity":0.3937007874015748},{"duration":0.14285699999999935,"midi":43,"time":60.42851100000001,"velocity":0.3937007874015748},{"duration":0.14285699999999935,"midi":31,"time":60.42851100000001,"velocity":0.3937007874015748},{"duration":0.14285699999999224,"midi":31,"time":60.57136800000001,"velocity":0.3937007874015748},{"duration":0.14285699999999224,"midi":43,"time":60.57136800000001,"velocity":0.3937007874015748},{"duration":0.14285700000000645,"midi":43,"time":60.714225,"velocity":0.3937007874015748},{"duration":0.14285700000000645,"midi":31,"time":60.714225,"velocity":0.3937007874015748},{"duration":0.2857139999999987,"midi":41,"time":60.857082000000005,"velocity":0.3937007874015748},{"duration":0.2857139999999987,"midi":53,"time":60.857082000000005,"velocity":0.3937007874015748},{"duration":0.14285699999999935,"midi":53,"time":61.142796000000004,"velocity":0.3937007874015748},{"duration":0.14285699999999935,"midi":41,"time":61.142796000000004,"velocity":0.3937007874015748},{"duration":0.14285700000000645,"midi":53,"time":61.285653,"velocity":0.3937007874015748},{"duration":0.14285700000000645,"midi":41,"time":61.285653,"velocity":0.3937007874015748},{"duration":0.14285699999999224,"midi":53,"time":61.42851000000001,"velocity":0.3937007874015748},{"duration":0.14285699999999224,"midi":41,"time":61.42851000000001,"velocity":0.3937007874015748},{"duration":0.14285699999999935,"midi":41,"time":61.571367,"velocity":0.3937007874015748},{"duration":0.14285699999999935,"midi":53,"time":61.571367,"velocity":0.3937007874015748},{"duration":0.2857139999999987,"midi":36,"time":61.714224,"velocity":0.3937007874015748},{"duration":0.2857139999999987,"midi":48,"time":61.714224,"velocity":0.3937007874015748},{"duration":0.14285700000000645,"midi":48,"time":61.999938,"velocity":0.3937007874015748},{"duration":0.14285700000000645,"midi":36,"time":61.999938,"velocity":0.3937007874015748},{"duration":0.14285699999999935,"midi":48,"time":62.14279500000001,"velocity":0.3937007874015748},{"duration":0.14285699999999935,"midi":36,"time":62.14279500000001,"velocity":0.3937007874015748},{"duration":0.14285699999999224,"midi":36,"time":62.285652000000006,"velocity":0.3937007874015748},{"duration":0.14285699999999224,"midi":48,"time":62.285652000000006,"velocity":0.3937007874015748},{"duration":0.14285700000000645,"midi":48,"time":62.428509,"velocity":0.3937007874015748},{"duration":0.14285700000000645,"midi":36,"time":62.428509,"velocity":0.3937007874015748},{"duration":0.2857139999999987,"midi":43,"time":62.571366000000005,"velocity":0.3937007874015748},{"duration":0.2857139999999987,"midi":31,"time":62.571366000000005,"velocity":0.3937007874015748},{"duration":0.14285699999999935,"midi":43,"time":62.85708,"velocity":0.3937007874015748},{"duration":0.14285699999999935,"midi":31,"time":62.85708,"velocity":0.3937007874015748},{"duration":0.14285700000000645,"midi":43,"time":62.999937,"velocity":0.3937007874015748},{"duration":0.14285700000000645,"midi":31,"time":62.999937,"velocity":0.3937007874015748},{"duration":0.14285699999999224,"midi":43,"time":63.14279400000001,"velocity":0.3937007874015748},{"duration":0.14285699999999224,"midi":31,"time":63.14279400000001,"velocity":0.3937007874015748},{"duration":0.14285700000000645,"midi":31,"time":63.285651,"velocity":0.3937007874015748},{"duration":0.14285700000000645,"midi":43,"time":63.285651,"velocity":0.3937007874015748},{"duration":0.2857139999999916,"midi":33,"time":63.42850800000001,"velocity":0.3937007874015748},{"duration":0.2857139999999916,"midi":45,"time":63.42850800000001,"velocity":0.3937007874015748},{"duration":0.14285700000000645,"midi":45,"time":63.714222,"velocity":0.3937007874015748},{"duration":0.14285700000000645,"midi":33,"time":63.714222,"velocity":0.3937007874015748},{"duration":0.14285700000000645,"midi":45,"time":63.857079000000006,"velocity":0.3937007874015748},{"duration":0.14285700000000645,"midi":33,"time":63.857079000000006,"velocity":0.3937007874015748},{"duration":0.14285699999998513,"midi":33,"time":63.99993600000001,"velocity":0.3937007874015748},{"duration":0.14285699999998513,"midi":45,"time":63.99993600000001,"velocity":0.3937007874015748},{"duration":0.14285700000000645,"midi":45,"time":64.142793,"velocity":0.3937007874015748},{"duration":0.14285700000000645,"midi":33,"time":64.142793,"velocity":0.3937007874015748},{"duration":0.2857139999999987,"midi":45,"time":64.28565,"velocity":0.3937007874015748},{"duration":0.2857139999999987,"midi":33,"time":64.28565,"velocity":0.3937007874015748},{"duration":0.14285700000000645,"midi":33,"time":64.571364,"velocity":0.3937007874015748},{"duration":0.14285700000000645,"midi":45,"time":64.571364,"velocity":0.3937007874015748},{"duration":0.14285700000000645,"midi":45,"time":64.71422100000001,"velocity":0.3937007874015748},{"duration":0.14285700000000645,"midi":33,"time":64.71422100000001,"velocity":0.3937007874015748},{"duration":0.14285699999999224,"midi":45,"time":64.85707800000002,"velocity":0.3937007874015748},{"duration":0.14285699999999224,"midi":33,"time":64.85707800000002,"velocity":0.3937007874015748},{"duration":0.14285699999999224,"midi":33,"time":64.99993500000001,"velocity":0.3937007874015748},{"duration":0.14285699999999224,"midi":45,"time":64.99993500000001,"velocity":0.3937007874015748},{"duration":0.2857139999999987,"midi":38,"time":65.142792,"velocity":0.3937007874015748},{"duration":0.2857139999999987,"midi":50,"time":65.142792,"velocity":0.3937007874015748},{"duration":0.14285700000000645,"midi":38,"time":65.428506,"velocity":0.3937007874015748},{"duration":0.14285700000000645,"midi":50,"time":65.428506,"velocity":0.3937007874015748},{"duration":0.14285700000000645,"midi":38,"time":65.571363,"velocity":0.3937007874015748},{"duration":0.14285700000000645,"midi":50,"time":65.571363,"velocity":0.3937007874015748},{"duration":0.14285699999999224,"midi":50,"time":65.71422000000001,"velocity":0.3937007874015748},{"duration":0.14285699999999224,"midi":38,"time":65.71422000000001,"velocity":0.3937007874015748},{"duration":0.14285700000000645,"midi":38,"time":65.857077,"velocity":0.3937007874015748},{"duration":0.14285700000000645,"midi":50,"time":65.857077,"velocity":0.3937007874015748},{"duration":0.2857139999999845,"midi":50,"time":65.99993400000001,"velocity":0.3937007874015748},{"duration":0.2857139999999845,"midi":38,"time":65.99993400000001,"velocity":0.3937007874015748},{"duration":0.14285700000000645,"midi":38,"time":66.285648,"velocity":0.3937007874015748},{"duration":0.14285700000000645,"midi":50,"time":66.285648,"velocity":0.3937007874015748},{"duration":0.14285700000000645,"midi":38,"time":66.428505,"velocity":0.3937007874015748},{"duration":0.14285700000000645,"midi":50,"time":66.428505,"velocity":0.3937007874015748},{"duration":0.14285699999999224,"midi":50,"time":66.57136200000001,"velocity":0.3937007874015748},{"duration":0.14285699999999224,"midi":38,"time":66.57136200000001,"velocity":0.3937007874015748},{"duration":0.14285700000000645,"midi":50,"time":66.714219,"velocity":0.3937007874015748},{"duration":0.14285700000000645,"midi":38,"time":66.714219,"velocity":0.3937007874015748},{"duration":0.2857139999999987,"midi":46,"time":66.857076,"velocity":0.3937007874015748},{"duration":0.2857139999999987,"midi":34,"time":66.857076,"velocity":0.3937007874015748},{"duration":0.14285700000000645,"midi":34,"time":67.14279,"velocity":0.3937007874015748},{"duration":0.14285700000000645,"midi":46,"time":67.14279,"velocity":0.3937007874015748},{"duration":0.14285699999999224,"midi":34,"time":67.28564700000001,"velocity":0.3937007874015748},{"duration":0.14285699999999224,"midi":46,"time":67.28564700000001,"velocity":0.3937007874015748},{"duration":0.14285699999999224,"midi":46,"time":67.428504,"velocity":0.3937007874015748},{"duration":0.14285699999999224,"midi":34,"time":67.428504,"velocity":0.3937007874015748},{"duration":0.14285700000000645,"midi":34,"time":67.571361,"velocity":0.3937007874015748},{"duration":0.14285700000000645,"midi":46,"time":67.571361,"velocity":0.3937007874015748},{"duration":0.2857139999999987,"midi":41,"time":67.714218,"velocity":0.3937007874015748},{"duration":0.2857139999999987,"midi":53,"time":67.714218,"velocity":0.3937007874015748},{"duration":0.14285700000000645,"midi":41,"time":67.999932,"velocity":0.3937007874015748},{"duration":0.14285700000000645,"midi":53,"time":67.999932,"velocity":0.3937007874015748},{"duration":0.14285700000000645,"midi":53,"time":68.14278900000001,"velocity":0.3937007874015748},{"duration":0.14285700000000645,"midi":41,"time":68.14278900000001,"velocity":0.3937007874015748},{"duration":0.14285699999999224,"midi":41,"time":68.28564600000001,"velocity":0.3937007874015748},{"duration":0.14285699999999224,"midi":53,"time":68.28564600000001,"velocity":0.3937007874015748},{"duration":0.14285699999999224,"midi":41,"time":68.428503,"velocity":0.3937007874015748},{"duration":0.14285699999999224,"midi":53,"time":68.428503,"velocity":0.3937007874015748},{"duration":0.2857139999999987,"midi":36,"time":68.57136,"velocity":0.3937007874015748},{"duration":0.2857139999999987,"midi":48,"time":68.57136,"velocity":0.3937007874015748},{"duration":0.14285700000000645,"midi":36,"time":68.857074,"velocity":0.3937007874015748},{"duration":0.14285700000000645,"midi":48,"time":68.857074,"velocity":0.3937007874015748},{"duration":0.14285700000000645,"midi":48,"time":68.999931,"velocity":0.3937007874015748},{"duration":0.14285700000000645,"midi":36,"time":68.999931,"velocity":0.3937007874015748},{"duration":0.14285699999999224,"midi":36,"time":69.14278800000001,"velocity":0.3937007874015748},{"duration":0.14285699999999224,"midi":48,"time":69.14278800000001,"velocity":0.3937007874015748},{"duration":0.14285700000000645,"midi":48,"time":69.285645,"velocity":0.3937007874015748},{"duration":0.14285700000000645,"midi":36,"time":69.285645,"velocity":0.3937007874015748},{"duration":0.2857139999999987,"midi":43,"time":69.42850200000001,"velocity":0.3937007874015748},{"duration":0.2857139999999987,"midi":31,"time":69.42850200000001,"velocity":0.3937007874015748},{"duration":0.14285699999999224,"midi":43,"time":69.71421600000001,"velocity":0.3937007874015748},{"duration":0.14285699999999224,"midi":31,"time":69.71421600000001,"velocity":0.3937007874015748},{"duration":0.2857139999999987,"midi":31,"time":69.857073,"velocity":0.3937007874015748},{"duration":0.14285700000000645,"midi":43,"time":69.857073,"velocity":0.3937007874015748},{"duration":0.14285700000000645,"midi":31,"time":70.142787,"velocity":0.3937007874015748},{"duration":0.14285700000000645,"midi":43,"time":70.142787,"velocity":0.3937007874015748},{"duration":0.2857139999999987,"midi":33,"time":70.285644,"velocity":0.3937007874015748},{"duration":0.2857139999999987,"midi":45,"time":70.285644,"velocity":0.3937007874015748},{"duration":0.14285700000000645,"midi":33,"time":70.571358,"velocity":0.3937007874015748},{"duration":0.14285700000000645,"midi":45,"time":70.571358,"velocity":0.3937007874015748},{"duration":0.14285700000000645,"midi":45,"time":70.71421500000001,"velocity":0.3937007874015748},{"duration":0.2857139999999987,"midi":33,"time":70.71421500000001,"velocity":0.3937007874015748},{"duration":0.14285699999999224,"midi":45,"time":70.85707200000002,"velocity":0.3937007874015748},{"duration":0.14285699999999224,"midi":33,"time":70.99992900000001,"velocity":0.3937007874015748},{"duration":0.14285699999999224,"midi":45,"time":70.99992900000001,"velocity":0.3937007874015748},{"duration":0.2857139999999987,"midi":45,"time":71.142786,"velocity":0.3937007874015748},{"duration":0.2857139999999987,"midi":33,"time":71.142786,"velocity":0.3937007874015748},{"duration":0.14285700000000645,"midi":45,"time":71.4285,"velocity":0.3937007874015748},{"duration":0.14285700000000645,"midi":33,"time":71.4285,"velocity":0.3937007874015748},{"duration":0.14285700000000645,"midi":45,"time":71.571357,"velocity":0.3937007874015748},{"duration":0.2857139999999987,"midi":33,"time":71.571357,"velocity":0.3937007874015748},{"duration":0.14285699999999224,"midi":45,"time":71.71421400000001,"velocity":0.3937007874015748},{"duration":0.14285700000000645,"midi":45,"time":71.857071,"velocity":0.3937007874015748},{"duration":0.14285700000000645,"midi":33,"time":71.857071,"velocity":0.3937007874015748},{"duration":0.2857139999999845,"midi":50,"time":71.99992800000001,"velocity":0.3937007874015748},{"duration":0.2857139999999845,"midi":38,"time":71.99992800000001,"velocity":0.3937007874015748},{"duration":0.14285700000000645,"midi":50,"time":72.285642,"velocity":0.3937007874015748},{"duration":0.14285700000000645,"midi":38,"time":72.285642,"velocity":0.3937007874015748},{"duration":0.2857139999999987,"midi":38,"time":72.428499,"velocity":0.3937007874015748},{"duration":0.2857139999999987,"midi":50,"time":72.428499,"velocity":0.3937007874015748},{"duration":0.14285700000000645,"midi":50,"time":72.714213,"velocity":0.3937007874015748},{"duration":0.14285700000000645,"midi":38,"time":72.714213,"velocity":0.3937007874015748},{"duration":0.2857139999999987,"midi":50,"time":72.85707000000001,"velocity":0.3937007874015748},{"duration":0.2857139999999987,"midi":38,"time":72.85707000000001,"velocity":0.3937007874015748},{"duration":0.14285700000000645,"midi":50,"time":73.142784,"velocity":0.3937007874015748},{"duration":0.14285700000000645,"midi":38,"time":73.142784,"velocity":0.3937007874015748},{"duration":0.2857139999999845,"midi":38,"time":73.28564100000001,"velocity":0.3937007874015748},{"duration":0.2857139999999845,"midi":50,"time":73.28564100000001,"velocity":0.3937007874015748},{"duration":0.14285700000000645,"midi":48,"time":73.571355,"velocity":0.3937007874015748},{"duration":0.14285700000000645,"midi":36,"time":73.571355,"velocity":0.3937007874015748},{"duration":0.2857139999999987,"midi":46,"time":73.714212,"velocity":0.3937007874015748},{"duration":0.2857139999999987,"midi":34,"time":73.714212,"velocity":0.3937007874015748},{"duration":0.14285700000000645,"midi":34,"time":73.999926,"velocity":0.3937007874015748},{"duration":0.14285700000000645,"midi":46,"time":73.999926,"velocity":0.3937007874015748},{"duration":0.2857139999999987,"midi":46,"time":74.14278300000001,"velocity":0.3937007874015748},{"duration":0.2857139999999987,"midi":34,"time":74.14278300000001,"velocity":0.3937007874015748},{"duration":0.14285699999999224,"midi":34,"time":74.42849700000001,"velocity":0.3937007874015748},{"duration":0.14285699999999224,"midi":46,"time":74.42849700000001,"velocity":0.3937007874015748},{"duration":0.2857139999999987,"midi":33,"time":74.571354,"velocity":0.3937007874015748},{"duration":0.2857139999999987,"midi":45,"time":74.571354,"velocity":0.3937007874015748},{"duration":0.14285700000000645,"midi":33,"time":74.857068,"velocity":0.3937007874015748},{"duration":0.14285700000000645,"midi":45,"time":74.857068,"velocity":0.3937007874015748},{"duration":0.2857139999999987,"midi":45,"time":74.999925,"velocity":0.3937007874015748},{"duration":0.2857139999999987,"midi":33,"time":74.999925,"velocity":0.3937007874015748},{"duration":0.14285700000000645,"midi":33,"time":75.285639,"velocity":0.3937007874015748},{"duration":0.14285700000000645,"midi":45,"time":75.285639,"velocity":0.3937007874015748},{"duration":0.2857139999999987,"midi":38,"time":75.42849600000001,"velocity":0.3937007874015748},{"duration":0.2857139999999987,"midi":50,"time":75.42849600000001,"velocity":0.3937007874015748},{"duration":0.14285699999999224,"midi":38,"time":75.71421000000001,"velocity":0.3937007874015748},{"duration":0.14285699999999224,"midi":50,"time":75.71421000000001,"velocity":0.3937007874015748},{"duration":0.2857139999999987,"midi":45,"time":75.857067,"velocity":0.3937007874015748},{"duration":0.2857139999999987,"midi":38,"time":75.857067,"velocity":0.3937007874015748},{"duration":0.14285700000000645,"midi":45,"time":76.142781,"velocity":0.3937007874015748},{"duration":0.14285700000000645,"midi":38,"time":76.142781,"velocity":0.3937007874015748},{"duration":0.2857139999999987,"midi":46,"time":76.285638,"velocity":0.3937007874015748},{"duration":0.2857139999999987,"midi":34,"time":76.285638,"velocity":0.3937007874015748},{"duration":0.14285700000000645,"midi":46,"time":76.571352,"velocity":0.3937007874015748},{"duration":0.14285700000000645,"midi":34,"time":76.571352,"velocity":0.3937007874015748},{"duration":0.2857139999999845,"midi":46,"time":76.71420900000001,"velocity":0.3937007874015748},{"duration":0.2857139999999845,"midi":34,"time":76.71420900000001,"velocity":0.3937007874015748},{"duration":0.14285700000000645,"midi":34,"time":76.999923,"velocity":0.3937007874015748},{"duration":0.14285700000000645,"midi":46,"time":76.999923,"velocity":0.3937007874015748},{"duration":0.2857139999999987,"midi":41,"time":77.14278,"velocity":0.3937007874015748},{"duration":0.2857139999999987,"midi":29,"time":77.14278,"velocity":0.3937007874015748},{"duration":0.14285700000000645,"midi":41,"time":77.428494,"velocity":0.3937007874015748},{"duration":0.14285700000000645,"midi":29,"time":77.428494,"velocity":0.3937007874015748},{"duration":0.2857139999999987,"midi":29,"time":77.571351,"velocity":0.3937007874015748},{"duration":0.2857139999999987,"midi":41,"time":77.571351,"velocity":0.3937007874015748},{"duration":0.14285700000000645,"midi":41,"time":77.857065,"velocity":0.3937007874015748},{"duration":0.14285700000000645,"midi":29,"time":77.857065,"velocity":0.3937007874015748},{"duration":0.2857139999999845,"midi":48,"time":77.99992200000001,"velocity":0.3937007874015748},{"duration":0.2857139999999845,"midi":36,"time":77.99992200000001,"velocity":0.3937007874015748},{"duration":0.14285700000000645,"midi":48,"time":78.285636,"velocity":0.3937007874015748},{"duration":0.14285700000000645,"midi":36,"time":78.285636,"velocity":0.3937007874015748},{"duration":0.2857139999999987,"midi":33,"time":78.428493,"velocity":0.3937007874015748},{"duration":0.2857139999999987,"midi":45,"time":78.428493,"velocity":0.3937007874015748},{"duration":0.14285700000000645,"midi":33,"time":78.714207,"velocity":0.3937007874015748},{"duration":0.14285700000000645,"midi":45,"time":78.714207,"velocity":0.3937007874015748},{"duration":0.2857139999999987,"midi":50,"time":78.85706400000001,"velocity":0.3937007874015748},{"duration":0.2857139999999987,"midi":38,"time":78.85706400000001,"velocity":0.3937007874015748},{"duration":0.14285700000000645,"midi":50,"time":79.142778,"velocity":0.3937007874015748},{"duration":0.14285700000000645,"midi":38,"time":79.142778,"velocity":0.3937007874015748},{"duration":0.2857139999999845,"midi":45,"time":79.28563500000001,"velocity":0.3937007874015748},{"duration":0.2857139999999845,"midi":38,"time":79.28563500000001,"velocity":0.3937007874015748},{"duration":0.14285700000000645,"midi":45,"time":79.571349,"velocity":0.3937007874015748},{"duration":0.14285700000000645,"midi":38,"time":79.571349,"velocity":0.3937007874015748},{"duration":0.2857139999999987,"midi":50,"time":79.714206,"velocity":0.3937007874015748},{"duration":0.2857139999999987,"midi":38,"time":79.714206,"velocity":0.3937007874015748},{"duration":0.14285700000000645,"midi":38,"time":79.99992,"velocity":0.3937007874015748},{"duration":0.14285700000000645,"midi":50,"time":79.99992,"velocity":0.3937007874015748},{"duration":0.2857139999999987,"midi":50,"time":80.14277700000001,"velocity":0.3937007874015748},{"duration":0.2857139999999987,"midi":38,"time":80.14277700000001,"velocity":0.3937007874015748},{"duration":0.14285699999999224,"midi":50,"time":80.42849100000001,"velocity":0.3937007874015748},{"duration":0.14285699999999224,"midi":38,"time":80.42849100000001,"velocity":0.3937007874015748},{"duration":0.2857139999999987,"midi":34,"time":80.571348,"velocity":0.3937007874015748},{"duration":0.2857139999999987,"midi":46,"time":80.571348,"velocity":0.3937007874015748},{"duration":0.14285700000000645,"midi":46,"time":80.857062,"velocity":0.3937007874015748},{"duration":0.14285700000000645,"midi":34,"time":80.857062,"velocity":0.3937007874015748},{"duration":0.2857139999999987,"midi":46,"time":80.999919,"velocity":0.3937007874015748},{"duration":0.2857139999999987,"midi":34,"time":80.999919,"velocity":0.3937007874015748},{"duration":0.14285700000000645,"midi":46,"time":81.285633,"velocity":0.3937007874015748},{"duration":0.14285700000000645,"midi":34,"time":81.285633,"velocity":0.3937007874015748},{"duration":0.2857139999999987,"midi":43,"time":81.42849000000001,"velocity":0.3937007874015748},{"duration":0.2857139999999987,"midi":31,"time":81.42849000000001,"velocity":0.3937007874015748},{"duration":0.14285699999999224,"midi":43,"time":81.71420400000001,"velocity":0.3937007874015748},{"duration":0.14285699999999224,"midi":31,"time":81.71420400000001,"velocity":0.3937007874015748},{"duration":0.2857139999999987,"midi":31,"time":81.857061,"velocity":0.3937007874015748},{"duration":0.2857139999999987,"midi":43,"time":81.857061,"velocity":0.3937007874015748},{"duration":0.14285700000000645,"midi":31,"time":82.142775,"velocity":0.3937007874015748},{"duration":0.14285700000000645,"midi":43,"time":82.142775,"velocity":0.3937007874015748},{"duration":0.2857139999999987,"midi":50,"time":82.285632,"velocity":0.3937007874015748},{"duration":0.2857139999999987,"midi":38,"time":82.285632,"velocity":0.3937007874015748},{"duration":0.14285700000000645,"midi":38,"time":82.571346,"velocity":0.3937007874015748},{"duration":0.14285700000000645,"midi":50,"time":82.571346,"velocity":0.3937007874015748},{"duration":0.2857139999999845,"midi":38,"time":82.71420300000001,"velocity":0.3937007874015748},{"duration":0.2857139999999845,"midi":45,"time":82.71420300000001,"velocity":0.3937007874015748},{"duration":0.14285700000000645,"midi":45,"time":82.999917,"velocity":0.3937007874015748},{"duration":0.14285700000000645,"midi":38,"time":82.999917,"velocity":0.3937007874015748},{"duration":0.2857139999999987,"midi":34,"time":83.142774,"velocity":0.3937007874015748},{"duration":0.2857139999999987,"midi":46,"time":83.142774,"velocity":0.3937007874015748},{"duration":0.14285700000000645,"midi":46,"time":83.428488,"velocity":0.3937007874015748},{"duration":0.14285700000000645,"midi":34,"time":83.428488,"velocity":0.3937007874015748},{"duration":0.2857139999999987,"midi":34,"time":83.57134500000001,"velocity":0.3937007874015748},{"duration":0.2857139999999987,"midi":46,"time":83.57134500000001,"velocity":0.3937007874015748},{"duration":0.14285700000000645,"midi":46,"time":83.857059,"velocity":0.3937007874015748},{"duration":0.14285700000000645,"midi":34,"time":83.857059,"velocity":0.3937007874015748},{"duration":0.2857139999999845,"midi":50,"time":83.99991600000001,"velocity":0.3937007874015748},{"duration":0.2857139999999845,"midi":38,"time":83.99991600000001,"velocity":0.3937007874015748},{"duration":0.14285700000000645,"midi":38,"time":84.28563,"velocity":0.3937007874015748},{"duration":0.14285700000000645,"midi":50,"time":84.28563,"velocity":0.3937007874015748},{"duration":0.2857139999999987,"midi":50,"time":84.428487,"velocity":0.3937007874015748},{"duration":0.2857139999999987,"midi":38,"time":84.428487,"velocity":0.3937007874015748},{"duration":0.14285700000000645,"midi":38,"time":84.714201,"velocity":0.3937007874015748},{"duration":0.14285700000000645,"midi":50,"time":84.714201,"velocity":0.3937007874015748},{"duration":0.2857139999999987,"midi":33,"time":84.85705800000001,"velocity":0.3937007874015748},{"duration":0.2857139999999987,"midi":45,"time":84.85705800000001,"velocity":0.3937007874015748},{"duration":0.14285699999999224,"midi":45,"time":85.14277200000001,"velocity":0.3937007874015748},{"duration":0.14285699999999224,"midi":33,"time":85.14277200000001,"velocity":0.3937007874015748},{"duration":0.2857139999999987,"midi":45,"time":85.285629,"velocity":0.3937007874015748},{"duration":0.2857139999999987,"midi":33,"time":85.285629,"velocity":0.3937007874015748},{"duration":0.14285700000000645,"midi":33,"time":85.571343,"velocity":0.3937007874015748},{"duration":0.14285700000000645,"midi":45,"time":85.571343,"velocity":0.3937007874015748},{"duration":0.2857139999999987,"midi":33,"time":85.7142,"velocity":0.3937007874015748},{"duration":0.2857139999999987,"midi":45,"time":85.7142,"velocity":0.3937007874015748},{"duration":0.14285700000000645,"midi":33,"time":85.999914,"velocity":0.3937007874015748},{"duration":0.14285700000000645,"midi":45,"time":85.999914,"velocity":0.3937007874015748},{"duration":0.2857139999999987,"midi":33,"time":86.14277100000001,"velocity":0.3937007874015748},{"duration":0.2857139999999987,"midi":45,"time":86.14277100000001,"velocity":0.3937007874015748},{"duration":0.14285699999999224,"midi":33,"time":86.42848500000001,"velocity":0.3937007874015748},{"duration":0.14285699999999224,"midi":45,"time":86.42848500000001,"velocity":0.3937007874015748},{"duration":0.2857139999999987,"midi":50,"time":86.571342,"velocity":0.3937007874015748},{"duration":0.2857139999999987,"midi":38,"time":86.571342,"velocity":0.3937007874015748},{"duration":0.14285700000000645,"midi":38,"time":86.857056,"velocity":0.3937007874015748},{"duration":0.14285700000000645,"midi":50,"time":86.857056,"velocity":0.3937007874015748},{"duration":0.2857139999999987,"midi":50,"time":86.999913,"velocity":0.3937007874015748},{"duration":0.2857139999999987,"midi":38,"time":86.999913,"velocity":0.3937007874015748},{"duration":0.14285700000000645,"midi":48,"time":87.285627,"velocity":0.3937007874015748},{"duration":0.14285700000000645,"midi":36,"time":87.285627,"velocity":0.3937007874015748},{"duration":0.2857139999999845,"midi":34,"time":87.42848400000001,"velocity":0.3937007874015748},{"duration":0.2857139999999845,"midi":46,"time":87.42848400000001,"velocity":0.3937007874015748},{"duration":0.14285700000000645,"midi":46,"time":87.714198,"velocity":0.3937007874015748},{"duration":0.14285700000000645,"midi":34,"time":87.714198,"velocity":0.3937007874015748},{"duration":0.2857139999999987,"midi":34,"time":87.857055,"velocity":0.3937007874015748},{"duration":0.2857139999999987,"midi":46,"time":87.857055,"velocity":0.3937007874015748},{"duration":0.14285700000000645,"midi":46,"time":88.142769,"velocity":0.3937007874015748},{"duration":0.14285700000000645,"midi":34,"time":88.142769,"velocity":0.3937007874015748},{"duration":0.2857139999999987,"midi":33,"time":88.28562600000001,"velocity":0.3937007874015748},{"duration":0.2857139999999987,"midi":45,"time":88.28562600000001,"velocity":0.3937007874015748},{"duration":0.14285700000000645,"midi":33,"time":88.57134,"velocity":0.3937007874015748},{"duration":0.14285700000000645,"midi":45,"time":88.57134,"velocity":0.3937007874015748},{"duration":0.2857139999999845,"midi":45,"time":88.71419700000001,"velocity":0.3937007874015748},{"duration":0.2857139999999845,"midi":33,"time":88.71419700000001,"velocity":0.3937007874015748},{"duration":0.14285700000000645,"midi":45,"time":88.999911,"velocity":0.3937007874015748},{"duration":0.14285700000000645,"midi":33,"time":88.999911,"velocity":0.3937007874015748},{"duration":0.2857139999999987,"midi":50,"time":89.142768,"velocity":0.3937007874015748},{"duration":0.2857139999999987,"midi":38,"time":89.142768,"velocity":0.3937007874015748},{"duration":0.14285700000000645,"midi":38,"time":89.428482,"velocity":0.3937007874015748},{"duration":0.14285700000000645,"midi":50,"time":89.428482,"velocity":0.3937007874015748},{"duration":0.2857139999999987,"midi":45,"time":89.57133900000001,"velocity":0.3937007874015748},{"duration":0.2857139999999987,"midi":38,"time":89.57133900000001,"velocity":0.3937007874015748},{"duration":0.14285700000000645,"midi":38,"time":89.85705300000001,"velocity":0.3937007874015748},{"duration":0.14285700000000645,"midi":45,"time":89.85705300000001,"velocity":0.3937007874015748},{"duration":0.2857139999999845,"midi":46,"time":89.99991000000001,"velocity":0.3937007874015748},{"duration":0.2857139999999845,"midi":34,"time":89.99991000000001,"velocity":0.3937007874015748},{"duration":0.14285700000000645,"midi":46,"time":90.285624,"velocity":0.3937007874015748},{"duration":0.14285700000000645,"midi":34,"time":90.285624,"velocity":0.3937007874015748},{"duration":0.2857139999999987,"midi":46,"time":90.428481,"velocity":0.3937007874015748},{"duration":0.2857139999999987,"midi":34,"time":90.428481,"velocity":0.3937007874015748},{"duration":0.14285700000000645,"midi":34,"time":90.714195,"velocity":0.3937007874015748},{"duration":0.14285700000000645,"midi":46,"time":90.714195,"velocity":0.3937007874015748},{"duration":0.2857139999999987,"midi":29,"time":90.85705200000001,"velocity":0.3937007874015748},{"duration":0.2857139999999987,"midi":41,"time":90.85705200000001,"velocity":0.3937007874015748},{"duration":0.14285699999999224,"midi":41,"time":91.14276600000001,"velocity":0.3937007874015748},{"duration":0.14285699999999224,"midi":29,"time":91.14276600000001,"velocity":0.3937007874015748},{"duration":0.2857139999999987,"midi":29,"time":91.285623,"velocity":0.3937007874015748},{"duration":0.2857139999999987,"midi":41,"time":91.285623,"velocity":0.3937007874015748},{"duration":0.14285700000000645,"midi":41,"time":91.571337,"velocity":0.3937007874015748},{"duration":0.14285700000000645,"midi":29,"time":91.571337,"velocity":0.3937007874015748},{"duration":0.2857139999999987,"midi":48,"time":91.714194,"velocity":0.3937007874015748},{"duration":0.2857139999999987,"midi":36,"time":91.714194,"velocity":0.3937007874015748},{"duration":0.14285700000000645,"midi":36,"time":91.999908,"velocity":0.3937007874015748},{"duration":0.14285700000000645,"midi":48,"time":91.999908,"velocity":0.3937007874015748},{"duration":0.2857139999999987,"midi":45,"time":92.14276500000001,"velocity":0.3937007874015748},{"duration":0.2857139999999987,"midi":33,"time":92.14276500000001,"velocity":0.3937007874015748},{"duration":0.14285699999999224,"midi":45,"time":92.42847900000001,"velocity":0.3937007874015748},{"duration":0.14285699999999224,"midi":33,"time":92.42847900000001,"velocity":0.3937007874015748},{"duration":0.2857139999999987,"midi":50,"time":92.571336,"velocity":0.3937007874015748},{"duration":0.2857139999999987,"midi":38,"time":92.571336,"velocity":0.3937007874015748},{"duration":0.14285700000000645,"midi":38,"time":92.85705,"velocity":0.3937007874015748},{"duration":0.14285700000000645,"midi":50,"time":92.85705,"velocity":0.3937007874015748},{"duration":0.2857139999999987,"midi":45,"time":92.99990700000001,"velocity":0.3937007874015748},{"duration":0.2857139999999987,"midi":38,"time":92.99990700000001,"velocity":0.3937007874015748},{"duration":0.14285700000000645,"midi":45,"time":93.285621,"velocity":0.3937007874015748},{"duration":0.14285700000000645,"midi":38,"time":93.285621,"velocity":0.3937007874015748},{"duration":0.2857139999999845,"midi":50,"time":93.42847800000001,"velocity":0.3937007874015748},{"duration":0.2857139999999845,"midi":38,"time":93.42847800000001,"velocity":0.3937007874015748},{"duration":0.14285700000000645,"midi":38,"time":93.714192,"velocity":0.3937007874015748},{"duration":0.14285700000000645,"midi":50,"time":93.714192,"velocity":0.3937007874015748},{"duration":0.2857139999999987,"midi":50,"time":93.857049,"velocity":0.3937007874015748},{"duration":0.2857139999999987,"midi":38,"time":93.857049,"velocity":0.3937007874015748},{"duration":0.14285700000000645,"midi":50,"time":94.142763,"velocity":0.3937007874015748},{"duration":0.14285700000000645,"midi":38,"time":94.142763,"velocity":0.3937007874015748},{"duration":0.2857139999999987,"midi":46,"time":94.28562000000001,"velocity":0.3937007874015748},{"duration":0.2857139999999987,"midi":34,"time":94.28562000000001,"velocity":0.3937007874015748},{"duration":0.14285700000000645,"midi":46,"time":94.57133400000001,"velocity":0.3937007874015748},{"duration":0.14285700000000645,"midi":34,"time":94.57133400000001,"velocity":0.3937007874015748},{"duration":0.2857139999999845,"midi":46,"time":94.71419100000001,"velocity":0.3937007874015748},{"duration":0.2857139999999845,"midi":34,"time":94.71419100000001,"velocity":0.3937007874015748},{"duration":0.14285700000000645,"midi":46,"time":94.999905,"velocity":0.3937007874015748},{"duration":0.14285700000000645,"midi":34,"time":94.999905,"velocity":0.3937007874015748},{"duration":0.2857139999999987,"midi":43,"time":95.142762,"velocity":0.3937007874015748},{"duration":0.2857139999999987,"midi":31,"time":95.142762,"velocity":0.3937007874015748},{"duration":0.14285700000000645,"midi":43,"time":95.428476,"velocity":0.3937007874015748},{"duration":0.14285700000000645,"midi":31,"time":95.428476,"velocity":0.3937007874015748},{"duration":0.2857139999999987,"midi":43,"time":95.57133300000001,"velocity":0.3937007874015748},{"duration":0.2857139999999987,"midi":31,"time":95.57133300000001,"velocity":0.3937007874015748},{"duration":0.14285700000000645,"midi":43,"time":95.85704700000001,"velocity":0.3937007874015748},{"duration":0.14285700000000645,"midi":31,"time":95.85704700000001,"velocity":0.3937007874015748},{"duration":0.2857139999999845,"midi":50,"time":95.99990400000002,"velocity":0.3937007874015748},{"duration":0.2857139999999845,"midi":38,"time":95.99990400000002,"velocity":0.3937007874015748},{"duration":0.14285700000000645,"midi":50,"time":96.285618,"velocity":0.3937007874015748},{"duration":0.14285700000000645,"midi":38,"time":96.285618,"velocity":0.3937007874015748},{"duration":0.2857139999999987,"midi":38,"time":96.428475,"velocity":0.3937007874015748},{"duration":0.2857139999999987,"midi":45,"time":96.428475,"velocity":0.3937007874015748},{"duration":0.14285700000000645,"midi":38,"time":96.714189,"velocity":0.3937007874015748},{"duration":0.14285700000000645,"midi":45,"time":96.714189,"velocity":0.3937007874015748},{"duration":0.2857139999999987,"midi":46,"time":96.85704600000001,"velocity":0.3937007874015748},{"duration":0.2857139999999987,"midi":34,"time":96.85704600000001,"velocity":0.3937007874015748},{"duration":0.14285699999999224,"midi":46,"time":97.14276000000001,"velocity":0.3937007874015748},{"duration":0.14285699999999224,"midi":34,"time":97.14276000000001,"velocity":0.3937007874015748},{"duration":0.2857139999999987,"midi":34,"time":97.285617,"velocity":0.3937007874015748},{"duration":0.2857139999999987,"midi":46,"time":97.285617,"velocity":0.3937007874015748},{"duration":0.14285700000000645,"midi":34,"time":97.571331,"velocity":0.3937007874015748},{"duration":0.14285700000000645,"midi":46,"time":97.571331,"velocity":0.3937007874015748},{"duration":0.2857139999999987,"midi":50,"time":97.71418800000001,"velocity":0.3937007874015748},{"duration":0.2857139999999987,"midi":38,"time":97.71418800000001,"velocity":0.3937007874015748},{"duration":0.14285700000000645,"midi":38,"time":97.999902,"velocity":0.3937007874015748},{"duration":0.14285700000000645,"midi":50,"time":97.999902,"velocity":0.3937007874015748},{"duration":0.2857139999999987,"midi":50,"time":98.14275900000001,"velocity":0.3937007874015748},{"duration":0.2857139999999987,"midi":38,"time":98.14275900000001,"velocity":0.3937007874015748},{"duration":0.14285699999999224,"midi":38,"time":98.42847300000001,"velocity":0.3937007874015748},{"duration":0.14285699999999224,"midi":50,"time":98.42847300000001,"velocity":0.3937007874015748},{"duration":0.2857139999999987,"midi":45,"time":98.57133,"velocity":0.3937007874015748},{"duration":0.2857139999999987,"midi":33,"time":98.57133,"velocity":0.3937007874015748},{"duration":0.14285700000000645,"midi":33,"time":98.857044,"velocity":0.3937007874015748},{"duration":0.14285700000000645,"midi":45,"time":98.857044,"velocity":0.3937007874015748},{"duration":0.2857139999999987,"midi":33,"time":98.99990100000001,"velocity":0.3937007874015748},{"duration":0.2857139999999987,"midi":45,"time":98.99990100000001,"velocity":0.3937007874015748},{"duration":0.14285700000000645,"midi":45,"time":99.285615,"velocity":0.3937007874015748},{"duration":0.14285700000000645,"midi":33,"time":99.285615,"velocity":0.3937007874015748},{"duration":0.2857139999999845,"midi":50,"time":99.42847200000001,"velocity":0.3937007874015748},{"duration":0.2857139999999845,"midi":38,"time":99.42847200000001,"velocity":0.3937007874015748},{"duration":0.2857140000000129,"midi":50,"time":99.714186,"velocity":0.3937007874015748},{"duration":0.2857140000000129,"midi":38,"time":99.714186,"velocity":0.3937007874015748},{"duration":0.2857139999999987,"midi":36,"time":99.99990000000001,"velocity":0.3937007874015748},{"duration":0.2857139999999987,"midi":48,"time":99.99990000000001,"velocity":0.3937007874015748},{"duration":0.2857139999999987,"midi":48,"time":100.28561400000001,"velocity":0.3937007874015748},{"duration":0.2857139999999987,"midi":36,"time":100.28561400000001,"velocity":0.3937007874015748},{"duration":0.2857139999999987,"midi":48,"time":100.57132800000001,"velocity":0.3937007874015748},{"duration":0.2857139999999987,"midi":36,"time":100.57132800000001,"velocity":0.3937007874015748},{"duration":0.2857139999999987,"midi":34,"time":100.857042,"velocity":0.3937007874015748},{"duration":0.2857139999999987,"midi":46,"time":100.857042,"velocity":0.3937007874015748},{"duration":0.2857139999999987,"midi":45,"time":101.142756,"velocity":0.3937007874015748},{"duration":0.2857139999999987,"midi":33,"time":101.142756,"velocity":0.3937007874015748},{"duration":0.14285700000000645,"midi":45,"time":101.42847,"velocity":0.3937007874015748},{"duration":0.14285700000000645,"midi":33,"time":101.42847,"velocity":0.3937007874015748},{"duration":0.2857139999999987,"midi":33,"time":101.57132700000001,"velocity":0.3937007874015748},{"duration":0.2857139999999987,"midi":45,"time":101.57132700000001,"velocity":0.3937007874015748},{"duration":0.14285699999999224,"midi":33,"time":101.85704100000001,"velocity":0.3937007874015748},{"duration":0.14285699999999224,"midi":45,"time":101.85704100000001,"velocity":0.3937007874015748},{"duration":0.2857139999999987,"midi":45,"time":101.999898,"velocity":0.3937007874015748},{"duration":0.2857139999999987,"midi":33,"time":101.999898,"velocity":0.3937007874015748},{"duration":0.14285700000000645,"midi":33,"time":102.285612,"velocity":0.3937007874015748},{"duration":0.14285700000000645,"midi":45,"time":102.285612,"velocity":0.3937007874015748},{"duration":0.2857139999999987,"midi":33,"time":102.428469,"velocity":0.3937007874015748},{"duration":0.2857139999999987,"midi":45,"time":102.428469,"velocity":0.3937007874015748},{"duration":0.14285700000000645,"midi":45,"time":102.714183,"velocity":0.3937007874015748},{"duration":0.14285700000000645,"midi":33,"time":102.714183,"velocity":0.3937007874015748},{"duration":0.2857139999999987,"midi":31,"time":102.85704000000001,"velocity":0.3937007874015748},{"duration":0.2857139999999987,"midi":43,"time":102.85704000000001,"velocity":0.3937007874015748},{"duration":0.14285699999999224,"midi":43,"time":103.14275400000001,"velocity":0.3937007874015748},{"duration":0.14285699999999224,"midi":31,"time":103.14275400000001,"velocity":0.3937007874015748},{"duration":0.2857139999999987,"midi":43,"time":103.285611,"velocity":0.3937007874015748},{"duration":0.2857139999999987,"midi":31,"time":103.285611,"velocity":0.3937007874015748},{"duration":0.14285700000000645,"midi":43,"time":103.571325,"velocity":0.3937007874015748},{"duration":0.14285700000000645,"midi":31,"time":103.571325,"velocity":0.3937007874015748},{"duration":0.2857139999999987,"midi":31,"time":103.71418200000001,"velocity":0.3937007874015748},{"duration":0.2857139999999987,"midi":43,"time":103.71418200000001,"velocity":0.3937007874015748},{"duration":0.14285700000000645,"midi":43,"time":103.999896,"velocity":0.3937007874015748},{"duration":0.14285700000000645,"midi":31,"time":103.999896,"velocity":0.3937007874015748},{"duration":0.2857139999999845,"midi":31,"time":104.14275300000001,"velocity":0.3937007874015748},{"duration":0.2857139999999845,"midi":43,"time":104.14275300000001,"velocity":0.3937007874015748},{"duration":0.14285700000000645,"midi":43,"time":104.428467,"velocity":0.3937007874015748},{"duration":0.14285700000000645,"midi":31,"time":104.428467,"velocity":0.3937007874015748},{"duration":0.2857139999999987,"midi":45,"time":104.571324,"velocity":0.3937007874015748},{"duration":0.2857139999999987,"midi":33,"time":104.571324,"velocity":0.3937007874015748},{"duration":0.14285700000000645,"midi":45,"time":104.857038,"velocity":0.3937007874015748},{"duration":0.14285700000000645,"midi":33,"time":104.857038,"velocity":0.3937007874015748},{"duration":0.2857139999999987,"midi":33,"time":104.99989500000001,"velocity":0.3937007874015748},{"duration":0.2857139999999987,"midi":45,"time":104.99989500000001,"velocity":0.3937007874015748},{"duration":0.14285700000000645,"midi":45,"time":105.28560900000001,"velocity":0.3937007874015748},{"duration":0.14285700000000645,"midi":33,"time":105.28560900000001,"velocity":0.3937007874015748},{"duration":0.2857139999999845,"midi":33,"time":105.42846600000001,"velocity":0.3937007874015748},{"duration":0.2857139999999845,"midi":45,"time":105.42846600000001,"velocity":0.3937007874015748},{"duration":0.14285700000000645,"midi":45,"time":105.71418,"velocity":0.3937007874015748},{"duration":0.14285700000000645,"midi":33,"time":105.71418,"velocity":0.3937007874015748},{"duration":0.2857139999999987,"midi":33,"time":105.857037,"velocity":0.3937007874015748},{"duration":0.2857139999999987,"midi":45,"time":105.857037,"velocity":0.3937007874015748},{"duration":0.14285700000000645,"midi":33,"time":106.142751,"velocity":0.3937007874015748},{"duration":0.14285700000000645,"midi":45,"time":106.142751,"velocity":0.3937007874015748},{"duration":0.2857139999999987,"midi":38,"time":106.28560800000001,"velocity":0.3937007874015748},{"duration":0.2857139999999987,"midi":50,"time":106.28560800000001,"velocity":0.3937007874015748},{"duration":0.14285700000000645,"midi":50,"time":106.57132200000001,"velocity":0.3937007874015748},{"duration":0.14285700000000645,"midi":38,"time":106.57132200000001,"velocity":0.3937007874015748},{"duration":0.2857139999999845,"midi":38,"time":106.71417900000002,"velocity":0.3937007874015748},{"duration":0.2857139999999845,"midi":50,"time":106.71417900000002,"velocity":0.3937007874015748},{"duration":0.14285700000000645,"midi":38,"time":106.999893,"velocity":0.3937007874015748},{"duration":0.14285700000000645,"midi":50,"time":106.999893,"velocity":0.3937007874015748},{"duration":0.2857139999999987,"midi":38,"time":107.14275,"velocity":0.3937007874015748},{"duration":0.2857139999999987,"midi":50,"time":107.14275,"velocity":0.3937007874015748},{"duration":0.14285700000000645,"midi":38,"time":107.428464,"velocity":0.3937007874015748},{"duration":0.14285700000000645,"midi":50,"time":107.428464,"velocity":0.3937007874015748},{"duration":0.2857139999999987,"midi":50,"time":107.57132100000001,"velocity":0.3937007874015748},{"duration":0.2857139999999987,"midi":38,"time":107.57132100000001,"velocity":0.3937007874015748},{"duration":0.14285699999999224,"midi":50,"time":107.85703500000001,"velocity":0.3937007874015748},{"duration":0.14285699999999224,"midi":38,"time":107.85703500000001,"velocity":0.3937007874015748},{"duration":0.2857139999999987,"midi":48,"time":107.999892,"velocity":0.3937007874015748},{"duration":0.2857139999999987,"midi":36,"time":107.999892,"velocity":0.3937007874015748},{"duration":0.14285700000000645,"midi":48,"time":108.285606,"velocity":0.3937007874015748},{"duration":0.14285700000000645,"midi":36,"time":108.285606,"velocity":0.3937007874015748},{"duration":0.2857139999999987,"midi":48,"time":108.42846300000001,"velocity":0.3937007874015748},{"duration":0.2857139999999987,"midi":36,"time":108.42846300000001,"velocity":0.3937007874015748},{"duration":0.14285700000000645,"midi":48,"time":108.714177,"velocity":0.3937007874015748},{"duration":0.14285700000000645,"midi":36,"time":108.714177,"velocity":0.3937007874015748},{"duration":0.2857139999999987,"midi":53,"time":108.85703400000001,"velocity":0.3937007874015748},{"duration":0.2857139999999987,"midi":41,"time":108.85703400000001,"velocity":0.3937007874015748},{"duration":0.14285699999999224,"midi":41,"time":109.14274800000001,"velocity":0.3937007874015748},{"duration":0.14285699999999224,"midi":53,"time":109.14274800000001,"velocity":0.3937007874015748},{"duration":0.2857139999999987,"midi":53,"time":109.285605,"velocity":0.3937007874015748},{"duration":0.2857139999999987,"midi":41,"time":109.285605,"velocity":0.3937007874015748},{"duration":0.14285700000000645,"midi":53,"time":109.571319,"velocity":0.3937007874015748},{"duration":0.14285700000000645,"midi":41,"time":109.571319,"velocity":0.3937007874015748},{"duration":0.2857140000000129,"midi":50,"time":109.71417600000001,"velocity":0.3937007874015748},{"duration":0.2857140000000129,"midi":38,"time":109.71417600000001,"velocity":0.3937007874015748},{"duration":0.14285699999999224,"midi":38,"time":109.99989000000002,"velocity":0.3937007874015748},{"duration":0.14285699999999224,"midi":50,"time":109.99989000000002,"velocity":0.3937007874015748},{"duration":0.2857139999999987,"midi":38,"time":110.14274700000001,"velocity":0.3937007874015748},{"duration":0.2857139999999987,"midi":50,"time":110.14274700000001,"velocity":0.3937007874015748},{"duration":0.14285699999999224,"midi":50,"time":110.42846100000001,"velocity":0.3937007874015748},{"duration":0.14285699999999224,"midi":38,"time":110.42846100000001,"velocity":0.3937007874015748},{"duration":0.2857140000000129,"midi":50,"time":110.571318,"velocity":0.3937007874015748},{"duration":0.2857140000000129,"midi":38,"time":110.571318,"velocity":0.3937007874015748},{"duration":0.14285699999999224,"midi":38,"time":110.85703200000002,"velocity":0.3937007874015748},{"duration":0.14285699999999224,"midi":50,"time":110.85703200000002,"velocity":0.3937007874015748},{"duration":0.2857140000000129,"midi":50,"time":110.99988900000001,"velocity":0.3937007874015748},{"duration":0.2857140000000129,"midi":38,"time":110.99988900000001,"velocity":0.3937007874015748},{"duration":0.14285699999999224,"midi":38,"time":111.28560300000002,"velocity":0.3937007874015748},{"duration":0.14285699999999224,"midi":50,"time":111.28560300000002,"velocity":0.3937007874015748},{"duration":0.2857139999999987,"midi":33,"time":111.42846000000002,"velocity":0.3937007874015748},{"duration":0.2857139999999987,"midi":45,"time":111.42846000000002,"velocity":0.3937007874015748},{"duration":0.14285699999999224,"midi":45,"time":111.71417400000001,"velocity":0.3937007874015748},{"duration":0.14285699999999224,"midi":33,"time":111.71417400000001,"velocity":0.3937007874015748},{"duration":0.2857140000000129,"midi":33,"time":111.857031,"velocity":0.3937007874015748},{"duration":0.2857140000000129,"midi":45,"time":111.857031,"velocity":0.3937007874015748},{"duration":0.14285699999999224,"midi":33,"time":112.14274500000002,"velocity":0.3937007874015748},{"duration":0.14285699999999224,"midi":45,"time":112.14274500000002,"velocity":0.3937007874015748},{"duration":0.2857140000000129,"midi":50,"time":112.28560200000001,"velocity":0.3937007874015748},{"duration":0.2857140000000129,"midi":38,"time":112.28560200000001,"velocity":0.3937007874015748},{"duration":0.14285699999997803,"midi":38,"time":112.57131600000002,"velocity":0.3937007874015748},{"duration":0.14285699999997803,"midi":50,"time":112.57131600000002,"velocity":0.3937007874015748},{"duration":0.2857140000000129,"midi":50,"time":112.714173,"velocity":0.3937007874015748},{"duration":0.2857140000000129,"midi":38,"time":112.714173,"velocity":0.3937007874015748},{"duration":0.14285699999999224,"midi":38,"time":112.99988700000002,"velocity":0.3937007874015748},{"duration":0.14285699999999224,"midi":50,"time":112.99988700000002,"velocity":0.3937007874015748},{"duration":0.2857140000000129,"midi":38,"time":113.14274400000001,"velocity":0.3937007874015748},{"duration":0.2857140000000129,"midi":50,"time":113.14274400000001,"velocity":0.3937007874015748},{"duration":0.14285699999999224,"midi":50,"time":113.42845800000002,"velocity":0.3937007874015748},{"duration":0.14285699999999224,"midi":38,"time":113.42845800000002,"velocity":0.3937007874015748},{"duration":0.2857139999999987,"midi":38,"time":113.57131500000001,"velocity":0.3937007874015748},{"duration":0.2857139999999987,"midi":50,"time":113.57131500000001,"velocity":0.3937007874015748},{"duration":0.14285699999999224,"midi":50,"time":113.85702900000001,"velocity":0.3937007874015748},{"duration":0.14285699999999224,"midi":38,"time":113.85702900000001,"velocity":0.3937007874015748},{"duration":0.2857140000000129,"midi":48,"time":113.999886,"velocity":0.3937007874015748},{"duration":0.2857140000000129,"midi":36,"time":113.999886,"velocity":0.3937007874015748},{"duration":0.14285699999999224,"midi":36,"time":114.28560000000002,"velocity":0.3937007874015748},{"duration":0.14285699999999224,"midi":48,"time":114.28560000000002,"velocity":0.3937007874015748},{"duration":0.2857140000000129,"midi":48,"time":114.42845700000001,"velocity":0.3937007874015748},{"duration":0.2857140000000129,"midi":36,"time":114.42845700000001,"velocity":0.3937007874015748},{"duration":0.14285699999999224,"midi":36,"time":114.71417100000002,"velocity":0.3937007874015748},{"duration":0.14285699999999224,"midi":48,"time":114.71417100000002,"velocity":0.3937007874015748},{"duration":0.2857139999999987,"midi":53,"time":114.85702800000001,"velocity":0.3937007874015748},{"duration":0.2857139999999987,"midi":41,"time":114.85702800000001,"velocity":0.3937007874015748},{"duration":0.14285699999999224,"midi":53,"time":115.14274200000001,"velocity":0.3937007874015748},{"duration":0.14285699999999224,"midi":41,"time":115.14274200000001,"velocity":0.3937007874015748},{"duration":0.2857140000000129,"midi":41,"time":115.285599,"velocity":0.3937007874015748},{"duration":0.2857140000000129,"midi":53,"time":115.285599,"velocity":0.3937007874015748},{"duration":0.14285699999999224,"midi":41,"time":115.57131300000002,"velocity":0.3937007874015748},{"duration":0.14285699999999224,"midi":53,"time":115.57131300000002,"velocity":0.3937007874015748},{"duration":0.2857140000000129,"midi":48,"time":115.71417000000001,"velocity":0.3937007874015748},{"duration":0.2857140000000129,"midi":36,"time":115.71417000000001,"velocity":0.3937007874015748},{"duration":0.14285699999999224,"midi":48,"time":115.99988400000002,"velocity":0.3937007874015748},{"duration":0.14285699999999224,"midi":36,"time":115.99988400000002,"velocity":0.3937007874015748},{"duration":0.2857139999999987,"midi":48,"time":116.14274100000002,"velocity":0.3937007874015748},{"duration":0.2857139999999987,"midi":36,"time":116.14274100000002,"velocity":0.3937007874015748},{"duration":0.14285699999999224,"midi":36,"time":116.42845500000001,"velocity":0.3937007874015748},{"duration":0.14285699999999224,"midi":48,"time":116.42845500000001,"velocity":0.3937007874015748},{"duration":0.2857140000000129,"midi":38,"time":116.571312,"velocity":0.3937007874015748},{"duration":0.2857140000000129,"midi":50,"time":116.571312,"velocity":0.3937007874015748},{"duration":0.14285699999999224,"midi":38,"time":116.85702600000002,"velocity":0.3937007874015748},{"duration":0.14285699999999224,"midi":50,"time":116.85702600000002,"velocity":0.3937007874015748},{"duration":0.2857140000000129,"midi":50,"time":116.99988300000001,"velocity":0.3937007874015748},{"duration":0.2857140000000129,"midi":38,"time":116.99988300000001,"velocity":0.3937007874015748},{"duration":0.14285699999999224,"midi":38,"time":117.28559700000002,"velocity":0.3937007874015748},{"duration":0.14285699999999224,"midi":50,"time":117.28559700000002,"velocity":0.3937007874015748},{"duration":0.2857139999999987,"midi":45,"time":117.42845400000002,"velocity":0.3937007874015748},{"duration":0.2857139999999987,"midi":33,"time":117.42845400000002,"velocity":0.3937007874015748},{"duration":0.14285699999999224,"midi":45,"time":117.71416800000002,"velocity":0.3937007874015748},{"duration":0.14285699999999224,"midi":33,"time":117.71416800000002,"velocity":0.3937007874015748},{"duration":0.2857140000000129,"midi":33,"time":117.85702500000001,"velocity":0.3937007874015748},{"duration":0.2857140000000129,"midi":45,"time":117.85702500000001,"velocity":0.3937007874015748},{"duration":0.14285699999999224,"midi":45,"time":118.14273900000002,"velocity":0.3937007874015748},{"duration":0.14285699999999224,"midi":33,"time":118.14273900000002,"velocity":0.3937007874015748},{"duration":0.2857139999999987,"midi":38,"time":118.28559600000001,"velocity":0.3937007874015748},{"duration":0.2857139999999987,"midi":50,"time":118.28559600000001,"velocity":0.3937007874015748},{"duration":0.14285699999999224,"midi":50,"time":118.57131000000001,"velocity":0.3937007874015748},{"duration":0.14285699999999224,"midi":38,"time":118.57131000000001,"velocity":0.3937007874015748},{"duration":0.2857140000000129,"midi":50,"time":118.714167,"velocity":0.3937007874015748},{"duration":0.2857140000000129,"midi":38,"time":118.714167,"velocity":0.3937007874015748},{"duration":0.14285699999999224,"midi":38,"time":118.99988100000002,"velocity":0.3937007874015748},{"duration":0.14285699999999224,"midi":50,"time":118.99988100000002,"velocity":0.3937007874015748},{"duration":0.2857140000000129,"midi":38,"time":119.14273800000001,"velocity":0.3937007874015748},{"duration":0.2857140000000129,"midi":50,"time":119.14273800000001,"velocity":0.3937007874015748},{"duration":0.14285699999999224,"midi":38,"time":119.42845200000002,"velocity":0.3937007874015748},{"duration":0.14285699999999224,"midi":50,"time":119.42845200000002,"velocity":0.3937007874015748},{"duration":0.2857139999999987,"midi":50,"time":119.57130900000001,"velocity":0.3937007874015748},{"duration":0.2857139999999987,"midi":38,"time":119.57130900000001,"velocity":0.3937007874015748},{"duration":0.14285699999999224,"midi":50,"time":119.85702300000001,"velocity":0.3937007874015748},{"duration":0.14285699999999224,"midi":38,"time":119.85702300000001,"velocity":0.3937007874015748},{"duration":0.2857140000000129,"midi":50,"time":119.99988,"velocity":0.3937007874015748},{"duration":0.2857140000000129,"midi":38,"time":119.99988,"velocity":0.3937007874015748},{"duration":0.14285699999999224,"midi":50,"time":120.28559400000002,"velocity":0.3937007874015748},{"duration":0.14285699999999224,"midi":38,"time":120.28559400000002,"velocity":0.3937007874015748},{"duration":0.2857140000000129,"midi":38,"time":120.42845100000001,"velocity":0.3937007874015748},{"duration":0.2857140000000129,"midi":50,"time":120.42845100000001,"velocity":0.3937007874015748},{"duration":0.14285699999999224,"midi":38,"time":120.71416500000002,"velocity":0.3937007874015748},{"duration":0.14285699999999224,"midi":50,"time":120.71416500000002,"velocity":0.3937007874015748},{"duration":0.2857139999999987,"midi":36,"time":120.85702200000001,"velocity":0.3937007874015748},{"duration":0.2857139999999987,"midi":48,"time":120.85702200000001,"velocity":0.3937007874015748},{"duration":0.14285699999999224,"midi":48,"time":121.14273600000001,"velocity":0.3937007874015748},{"duration":0.14285699999999224,"midi":36,"time":121.14273600000001,"velocity":0.3937007874015748},{"duration":0.2857140000000129,"midi":36,"time":121.285593,"velocity":0.3937007874015748},{"duration":0.2857140000000129,"midi":48,"time":121.285593,"velocity":0.3937007874015748},{"duration":0.14285699999999224,"midi":48,"time":121.57130700000002,"velocity":0.3937007874015748},{"duration":0.14285699999999224,"midi":36,"time":121.57130700000002,"velocity":0.3937007874015748},{"duration":0.2857140000000129,"midi":41,"time":121.71416400000001,"velocity":0.3937007874015748},{"duration":0.2857140000000129,"midi":53,"time":121.71416400000001,"velocity":0.3937007874015748},{"duration":0.14285699999999224,"midi":53,"time":121.99987800000002,"velocity":0.3937007874015748},{"duration":0.14285699999999224,"midi":41,"time":121.99987800000002,"velocity":0.3937007874015748},{"duration":0.2857139999999987,"midi":41,"time":122.14273500000002,"velocity":0.3937007874015748},{"duration":0.2857139999999987,"midi":53,"time":122.14273500000002,"velocity":0.3937007874015748},{"duration":0.14285699999999224,"midi":53,"time":122.42844900000001,"velocity":0.3937007874015748},{"duration":0.14285699999999224,"midi":41,"time":122.42844900000001,"velocity":0.3937007874015748},{"duration":0.2857140000000129,"midi":46,"time":122.571306,"velocity":0.3937007874015748},{"duration":0.2857140000000129,"midi":34,"time":122.571306,"velocity":0.3937007874015748},{"duration":0.14285699999999224,"midi":34,"time":122.85702000000002,"velocity":0.3937007874015748},{"duration":0.14285699999999224,"midi":46,"time":122.85702000000002,"velocity":0.3937007874015748},{"duration":0.2857140000000129,"midi":34,"time":122.99987700000001,"velocity":0.3937007874015748},{"duration":0.2857140000000129,"midi":46,"time":122.99987700000001,"velocity":0.3937007874015748},{"duration":0.14285699999997803,"midi":34,"time":123.28559100000003,"velocity":0.3937007874015748},{"duration":0.14285699999997803,"midi":46,"time":123.28559100000003,"velocity":0.3937007874015748},{"duration":0.2857140000000129,"midi":38,"time":123.428448,"velocity":0.3937007874015748},{"duration":0.2857140000000129,"midi":50,"time":123.428448,"velocity":0.3937007874015748},{"duration":0.14285699999999224,"midi":50,"time":123.71416200000002,"velocity":0.3937007874015748},{"duration":0.14285699999999224,"midi":38,"time":123.71416200000002,"velocity":0.3937007874015748},{"duration":0.2857140000000129,"midi":38,"time":123.85701900000001,"velocity":0.3937007874015748},{"duration":0.2857140000000129,"midi":50,"time":123.85701900000001,"velocity":0.3937007874015748},{"duration":0.14285699999999224,"midi":50,"time":124.14273300000002,"velocity":0.3937007874015748},{"duration":0.14285699999999224,"midi":38,"time":124.14273300000002,"velocity":0.3937007874015748},{"duration":0.2857139999999987,"midi":46,"time":124.28559000000001,"velocity":0.3937007874015748},{"duration":0.2857139999999987,"midi":34,"time":124.28559000000001,"velocity":0.3937007874015748},{"duration":0.14285699999999224,"midi":46,"time":124.57130400000001,"velocity":0.3937007874015748},{"duration":0.14285699999999224,"midi":34,"time":124.57130400000001,"velocity":0.3937007874015748},{"duration":0.2857140000000129,"midi":34,"time":124.714161,"velocity":0.3937007874015748},{"duration":0.2857140000000129,"midi":46,"time":124.714161,"velocity":0.3937007874015748},{"duration":0.14285699999999224,"midi":46,"time":124.99987500000002,"velocity":0.3937007874015748},{"duration":0.14285699999999224,"midi":34,"time":124.99987500000002,"velocity":0.3937007874015748},{"duration":0.2857140000000129,"midi":33,"time":125.14273200000001,"velocity":0.3937007874015748},{"duration":0.2857140000000129,"midi":45,"time":125.14273200000001,"velocity":0.3937007874015748},{"duration":0.14285699999999224,"midi":33,"time":125.42844600000002,"velocity":0.3937007874015748},{"duration":0.14285699999999224,"midi":45,"time":125.42844600000002,"velocity":0.3937007874015748},{"duration":0.2857139999999987,"midi":33,"time":125.57130300000001,"velocity":0.3937007874015748},{"duration":0.2857139999999987,"midi":45,"time":125.57130300000001,"velocity":0.3937007874015748},{"duration":0.14285699999999224,"midi":33,"time":125.85701700000001,"velocity":0.3937007874015748},{"duration":0.14285699999999224,"midi":45,"time":125.85701700000001,"velocity":0.3937007874015748},{"duration":0.2857140000000129,"midi":45,"time":125.999874,"velocity":0.3937007874015748},{"duration":0.2857140000000129,"midi":33,"time":125.999874,"velocity":0.3937007874015748},{"duration":0.14285699999999224,"midi":45,"time":126.28558800000002,"velocity":0.3937007874015748},{"duration":0.14285699999999224,"midi":33,"time":126.28558800000002,"velocity":0.3937007874015748},{"duration":0.2857140000000129,"midi":45,"time":126.42844500000001,"velocity":0.3937007874015748},{"duration":0.2857140000000129,"midi":33,"time":126.42844500000001,"velocity":0.3937007874015748},{"duration":0.14285699999999224,"midi":45,"time":126.71415900000002,"velocity":0.3937007874015748},{"duration":0.14285699999999224,"midi":33,"time":126.71415900000002,"velocity":0.3937007874015748},{"duration":0.2857139999999987,"midi":38,"time":126.85701600000002,"velocity":0.3937007874015748},{"duration":0.2857139999999987,"midi":50,"time":126.85701600000002,"velocity":0.3937007874015748},{"duration":0.14285699999999224,"midi":38,"time":127.14273000000001,"velocity":0.3937007874015748},{"duration":0.14285699999999224,"midi":50,"time":127.14273000000001,"velocity":0.3937007874015748},{"duration":0.2857140000000129,"midi":52,"time":127.285587,"velocity":0.3937007874015748},{"duration":0.2857140000000129,"midi":40,"time":127.285587,"velocity":0.3937007874015748},{"duration":0.14285699999999224,"midi":52,"time":127.57130100000002,"velocity":0.3937007874015748},{"duration":0.14285699999999224,"midi":40,"time":127.57130100000002,"velocity":0.3937007874015748},{"duration":0.2857140000000129,"midi":41,"time":127.71415800000001,"velocity":0.3937007874015748},{"duration":0.2857140000000129,"midi":53,"time":127.71415800000001,"velocity":0.3937007874015748},{"duration":0.14285699999997803,"midi":53,"time":127.99987200000002,"velocity":0.3937007874015748},{"duration":0.14285699999997803,"midi":41,"time":127.99987200000002,"velocity":0.3937007874015748},{"duration":0.2857140000000129,"midi":43,"time":128.142729,"velocity":0.3937007874015748},{"duration":0.2857140000000129,"midi":55,"time":128.142729,"velocity":0.3937007874015748},{"duration":0.14285699999999224,"midi":43,"time":128.42844300000002,"velocity":0.3937007874015748},{"duration":0.14285699999999224,"midi":55,"time":128.42844300000002,"velocity":0.3937007874015748},{"duration":0.2857140000000129,"midi":50,"time":128.5713,"velocity":0.3937007874015748},{"duration":0.2857140000000129,"midi":57,"time":128.5713,"velocity":0.3937007874015748},{"duration":0.2857140000000129,"midi":45,"time":128.5713,"velocity":0.3937007874015748},{"duration":0.2857140000000129,"midi":53,"time":128.5713,"velocity":0.3937007874015748},{"duration":0.5714279999999974,"midi":57,"time":128.85701400000002,"velocity":0.3937007874015748},{"duration":0.5714279999999974,"midi":53,"time":128.85701400000002,"velocity":0.3937007874015748},{"duration":0.5714279999999974,"midi":45,"time":128.85701400000002,"velocity":0.3937007874015748},{"duration":0.5714279999999974,"midi":50,"time":128.85701400000002,"velocity":0.3937007874015748},{"duration":0.5714279999999974,"midi":53,"time":129.42844200000002,"velocity":0.3937007874015748},{"duration":0.5714279999999974,"midi":45,"time":129.42844200000002,"velocity":0.3937007874015748},{"duration":0.5714279999999974,"midi":57,"time":129.42844200000002,"velocity":0.3937007874015748},{"duration":0.5714279999999974,"midi":50,"time":129.42844200000002,"velocity":0.3937007874015748},{"duration":0.2857139999999845,"midi":57,"time":129.99987000000002,"velocity":0.3937007874015748},{"duration":0.2857139999999845,"midi":45,"time":129.99987000000002,"velocity":0.3937007874015748},{"duration":0.2857140000000129,"midi":49,"time":130.285584,"velocity":0.3937007874015748},{"duration":0.2857140000000129,"midi":45,"time":130.285584,"velocity":0.3937007874015748},{"duration":0.2857140000000129,"midi":57,"time":130.285584,"velocity":0.3937007874015748},{"duration":0.2857140000000129,"midi":52,"time":130.285584,"velocity":0.3937007874015748},{"duration":0.5714279999999974,"midi":52,"time":130.571298,"velocity":0.3937007874015748},{"duration":0.5714279999999974,"midi":45,"time":130.571298,"velocity":0.3937007874015748},{"duration":0.5714279999999974,"midi":49,"time":130.571298,"velocity":0.3937007874015748},{"duration":0.5714279999999974,"midi":57,"time":130.571298,"velocity":0.3937007874015748},{"duration":0.5714279999999974,"midi":49,"time":131.142726,"velocity":0.3937007874015748},{"duration":0.5714279999999974,"midi":52,"time":131.142726,"velocity":0.3937007874015748},{"duration":0.5714279999999974,"midi":57,"time":131.142726,"velocity":0.3937007874015748},{"duration":0.5714279999999974,"midi":45,"time":131.142726,"velocity":0.3937007874015748},{"duration":0.2857140000000129,"midi":48,"time":131.714154,"velocity":0.3937007874015748},{"duration":0.2857140000000129,"midi":60,"time":131.714154,"velocity":0.3937007874015748},{"duration":0.2857139999999845,"midi":38,"time":131.99986800000002,"velocity":0.3937007874015748},{"duration":0.2857139999999845,"midi":50,"time":131.99986800000002,"velocity":0.3937007874015748},{"duration":0.14285699999999224,"midi":50,"time":132.285582,"velocity":0.3937007874015748},{"duration":0.14285699999999224,"midi":38,"time":132.285582,"velocity":0.3937007874015748},{"duration":0.14285699999999224,"midi":50,"time":132.428439,"velocity":0.3937007874015748},{"duration":0.14285699999999224,"midi":38,"time":132.428439,"velocity":0.3937007874015748},{"duration":0.14285700000002066,"midi":38,"time":132.571296,"velocity":0.3937007874015748},{"duration":0.14285700000002066,"midi":50,"time":132.571296,"velocity":0.3937007874015748},{"duration":0.14285699999999224,"midi":50,"time":132.714153,"velocity":0.3937007874015748},{"duration":0.14285699999999224,"midi":38,"time":132.714153,"velocity":0.3937007874015748},{"duration":0.2857140000000129,"midi":31,"time":132.85701,"velocity":0.3937007874015748},{"duration":0.2857140000000129,"midi":43,"time":132.85701,"velocity":0.3937007874015748},{"duration":0.14285699999999224,"midi":43,"time":133.14272400000002,"velocity":0.3937007874015748},{"duration":0.14285699999999224,"midi":31,"time":133.14272400000002,"velocity":0.3937007874015748},{"duration":0.14285699999999224,"midi":31,"time":133.285581,"velocity":0.3937007874015748},{"duration":0.14285699999999224,"midi":43,"time":133.285581,"velocity":0.3937007874015748},{"duration":0.14285700000002066,"midi":31,"time":133.428438,"velocity":0.3937007874015748},{"duration":0.14285700000002066,"midi":43,"time":133.428438,"velocity":0.3937007874015748},{"duration":0.14285699999999224,"midi":43,"time":133.57129500000002,"velocity":0.3937007874015748},{"duration":0.14285699999999224,"midi":31,"time":133.57129500000002,"velocity":0.3937007874015748},{"duration":0.2857140000000129,"midi":53,"time":133.714152,"velocity":0.3937007874015748},{"duration":0.2857140000000129,"midi":41,"time":133.714152,"velocity":0.3937007874015748},{"duration":0.14285699999999224,"midi":41,"time":133.99986600000003,"velocity":0.3937007874015748},{"duration":0.14285699999999224,"midi":53,"time":133.99986600000003,"velocity":0.3937007874015748},{"duration":0.14285699999999224,"midi":41,"time":134.14272300000002,"velocity":0.3937007874015748},{"duration":0.14285699999999224,"midi":53,"time":134.14272300000002,"velocity":0.3937007874015748},{"duration":0.14285700000002066,"midi":41,"time":134.28558,"velocity":0.3937007874015748},{"duration":0.14285700000002066,"midi":53,"time":134.28558,"velocity":0.3937007874015748},{"duration":0.14285699999999224,"midi":41,"time":134.42843700000003,"velocity":0.3937007874015748},{"duration":0.14285699999999224,"midi":53,"time":134.42843700000003,"velocity":0.3937007874015748},{"duration":0.2857139999999845,"midi":48,"time":134.57129400000002,"velocity":0.3937007874015748},{"duration":0.2857139999999845,"midi":36,"time":134.57129400000002,"velocity":0.3937007874015748},{"duration":0.14285699999999224,"midi":48,"time":134.857008,"velocity":0.3937007874015748},{"duration":0.14285699999999224,"midi":36,"time":134.857008,"velocity":0.3937007874015748},{"duration":0.14285699999999224,"midi":36,"time":134.999865,"velocity":0.3937007874015748},{"duration":0.14285699999999224,"midi":48,"time":134.999865,"velocity":0.3937007874015748},{"duration":0.14285700000002066,"midi":36,"time":135.142722,"velocity":0.3937007874015748},{"duration":0.14285700000002066,"midi":48,"time":135.142722,"velocity":0.3937007874015748},{"duration":0.14285699999999224,"midi":36,"time":135.285579,"velocity":0.3937007874015748},{"duration":0.14285699999999224,"midi":48,"time":135.285579,"velocity":0.3937007874015748},{"duration":0.2857140000000129,"midi":43,"time":135.428436,"velocity":0.3937007874015748},{"duration":0.2857140000000129,"midi":31,"time":135.428436,"velocity":0.3937007874015748},{"duration":0.14285699999999224,"midi":31,"time":135.71415000000002,"velocity":0.3937007874015748},{"duration":0.14285699999999224,"midi":43,"time":135.71415000000002,"velocity":0.3937007874015748},{"duration":0.2857140000000129,"midi":31,"time":135.857007,"velocity":0.3937007874015748},{"duration":0.14285699999999224,"midi":43,"time":135.857007,"velocity":0.3937007874015748},{"duration":0.14285700000002066,"midi":43,"time":135.999864,"velocity":0.3937007874015748},{"duration":0.14285699999999224,"midi":31,"time":136.14272100000002,"velocity":0.3937007874015748},{"duration":0.14285699999999224,"midi":43,"time":136.14272100000002,"velocity":0.3937007874015748},{"duration":0.2857140000000129,"midi":45,"time":136.28557800000002,"velocity":0.3937007874015748},{"duration":0.2857140000000129,"midi":33,"time":136.28557800000002,"velocity":0.3937007874015748},{"duration":0.14285699999999224,"midi":33,"time":136.57129200000003,"velocity":0.3937007874015748},{"duration":0.14285699999999224,"midi":45,"time":136.57129200000003,"velocity":0.3937007874015748},{"duration":0.14285699999999224,"midi":33,"time":136.71414900000002,"velocity":0.3937007874015748},{"duration":0.14285699999999224,"midi":45,"time":136.71414900000002,"velocity":0.3937007874015748},{"duration":0.14285700000002066,"midi":33,"time":136.857006,"velocity":0.3937007874015748},{"duration":0.14285700000002066,"midi":45,"time":136.857006,"velocity":0.3937007874015748},{"duration":0.14285699999996382,"midi":45,"time":136.99986300000003,"velocity":0.3937007874015748},{"duration":0.14285699999996382,"midi":33,"time":136.99986300000003,"velocity":0.3937007874015748},{"duration":0.2857140000000129,"midi":45,"time":137.14272,"velocity":0.3937007874015748},{"duration":0.2857140000000129,"midi":33,"time":137.14272,"velocity":0.3937007874015748},{"duration":0.14285699999999224,"midi":33,"time":137.428434,"velocity":0.3937007874015748},{"duration":0.14285699999999224,"midi":45,"time":137.428434,"velocity":0.3937007874015748},{"duration":0.14285699999999224,"midi":45,"time":137.571291,"velocity":0.3937007874015748},{"duration":0.14285699999999224,"midi":33,"time":137.571291,"velocity":0.3937007874015748},{"duration":0.14285700000002066,"midi":33,"time":137.714148,"velocity":0.3937007874015748},{"duration":0.14285700000002066,"midi":45,"time":137.714148,"velocity":0.3937007874015748},{"duration":0.14285699999999224,"midi":33,"time":137.85700500000002,"velocity":0.3937007874015748},{"duration":0.14285699999999224,"midi":45,"time":137.85700500000002,"velocity":0.3937007874015748},{"duration":0.2857140000000129,"midi":50,"time":137.999862,"velocity":0.3937007874015748},{"duration":0.2857140000000129,"midi":38,"time":137.999862,"velocity":0.3937007874015748},{"duration":0.14285699999999224,"midi":50,"time":138.28557600000002,"velocity":0.3937007874015748},{"duration":0.14285699999999224,"midi":38,"time":138.28557600000002,"velocity":0.3937007874015748},{"duration":0.14285699999999224,"midi":50,"time":138.428433,"velocity":0.3937007874015748},{"duration":0.14285699999999224,"midi":38,"time":138.428433,"velocity":0.3937007874015748},{"duration":0.14285700000002066,"midi":38,"time":138.57129,"velocity":0.3937007874015748},{"duration":0.14285700000002066,"midi":50,"time":138.57129,"velocity":0.3937007874015748},{"duration":0.14285699999999224,"midi":50,"time":138.71414700000003,"velocity":0.3937007874015748},{"duration":0.14285699999999224,"midi":38,"time":138.71414700000003,"velocity":0.3937007874015748},{"duration":0.2857140000000129,"midi":38,"time":138.85700400000002,"velocity":0.3937007874015748},{"duration":0.2857140000000129,"midi":50,"time":138.85700400000002,"velocity":0.3937007874015748},{"duration":0.14285699999999224,"midi":38,"time":139.14271800000003,"velocity":0.3937007874015748},{"duration":0.14285699999999224,"midi":50,"time":139.14271800000003,"velocity":0.3937007874015748},{"duration":0.14285699999999224,"midi":50,"time":139.28557500000002,"velocity":0.3937007874015748},{"duration":0.14285699999999224,"midi":38,"time":139.28557500000002,"velocity":0.3937007874015748},{"duration":0.14285699999999224,"midi":38,"time":139.42843200000002,"velocity":0.3937007874015748},{"duration":0.14285699999999224,"midi":50,"time":139.42843200000002,"velocity":0.3937007874015748},{"duration":0.14285699999999224,"midi":50,"time":139.571289,"velocity":0.3937007874015748},{"duration":0.14285699999999224,"midi":38,"time":139.571289,"velocity":0.3937007874015748},{"duration":0.2857140000000129,"midi":34,"time":139.714146,"velocity":0.3937007874015748},{"duration":0.2857140000000129,"midi":46,"time":139.714146,"velocity":0.3937007874015748},{"duration":0.14285699999999224,"midi":46,"time":139.99986,"velocity":0.3937007874015748},{"duration":0.14285699999999224,"midi":34,"time":139.99986,"velocity":0.3937007874015748},{"duration":0.14285699999999224,"midi":34,"time":140.142717,"velocity":0.3937007874015748},{"duration":0.14285699999999224,"midi":46,"time":140.142717,"velocity":0.3937007874015748},{"duration":0.14285700000002066,"midi":34,"time":140.285574,"velocity":0.3937007874015748},{"duration":0.14285700000002066,"midi":46,"time":140.285574,"velocity":0.3937007874015748},{"duration":0.14285699999999224,"midi":34,"time":140.42843100000002,"velocity":0.3937007874015748},{"duration":0.14285699999999224,"midi":46,"time":140.42843100000002,"velocity":0.3937007874015748},{"duration":0.2857140000000129,"midi":53,"time":140.571288,"velocity":0.3937007874015748},{"duration":0.2857140000000129,"midi":41,"time":140.571288,"velocity":0.3937007874015748},{"duration":0.14285699999999224,"midi":53,"time":140.85700200000002,"velocity":0.3937007874015748},{"duration":0.14285699999999224,"midi":41,"time":140.85700200000002,"velocity":0.3937007874015748},{"duration":0.14285699999999224,"midi":41,"time":140.99985900000001,"velocity":0.3937007874015748},{"duration":0.14285699999999224,"midi":53,"time":140.99985900000001,"velocity":0.3937007874015748},{"duration":0.14285700000002066,"midi":53,"time":141.142716,"velocity":0.3937007874015748},{"duration":0.14285700000002066,"midi":41,"time":141.142716,"velocity":0.3937007874015748},{"duration":0.14285699999999224,"midi":41,"time":141.28557300000003,"velocity":0.3937007874015748},{"duration":0.14285699999999224,"midi":53,"time":141.28557300000003,"velocity":0.3937007874015748},{"duration":0.2857140000000129,"midi":48,"time":141.42843000000002,"velocity":0.3937007874015748},{"duration":0.2857140000000129,"midi":36,"time":141.42843000000002,"velocity":0.3937007874015748},{"duration":0.14285699999999224,"midi":36,"time":141.71414400000003,"velocity":0.3937007874015748},{"duration":0.14285699999999224,"midi":48,"time":141.71414400000003,"velocity":0.3937007874015748},{"duration":0.14285699999999224,"midi":36,"time":141.85700100000003,"velocity":0.3937007874015748},{"duration":0.14285699999999224,"midi":48,"time":141.85700100000003,"velocity":0.3937007874015748},{"duration":0.14285699999999224,"midi":36,"time":141.99985800000002,"velocity":0.3937007874015748},{"duration":0.14285699999999224,"midi":48,"time":141.99985800000002,"velocity":0.3937007874015748},{"duration":0.14285699999999224,"midi":48,"time":142.142715,"velocity":0.3937007874015748},{"duration":0.14285699999999224,"midi":36,"time":142.142715,"velocity":0.3937007874015748},{"duration":0.2857140000000129,"midi":31,"time":142.285572,"velocity":0.3937007874015748},{"duration":0.2857140000000129,"midi":43,"time":142.285572,"velocity":0.3937007874015748},{"duration":0.14285699999999224,"midi":31,"time":142.57128600000001,"velocity":0.3937007874015748},{"duration":0.14285699999999224,"midi":43,"time":142.57128600000001,"velocity":0.3937007874015748},{"duration":0.14285699999999224,"midi":43,"time":142.714143,"velocity":0.3937007874015748},{"duration":0.14285699999999224,"midi":31,"time":142.714143,"velocity":0.3937007874015748},{"duration":0.14285700000002066,"midi":31,"time":142.857,"velocity":0.3937007874015748},{"duration":0.14285700000002066,"midi":43,"time":142.857,"velocity":0.3937007874015748},{"duration":0.14285699999999224,"midi":43,"time":142.99985700000002,"velocity":0.3937007874015748},{"duration":0.14285699999999224,"midi":31,"time":142.99985700000002,"velocity":0.3937007874015748},{"duration":0.2857140000000129,"midi":45,"time":143.142714,"velocity":0.3937007874015748},{"duration":0.2857140000000129,"midi":33,"time":143.142714,"velocity":0.3937007874015748},{"duration":0.14285699999999224,"midi":33,"time":143.42842800000003,"velocity":0.3937007874015748},{"duration":0.14285699999999224,"midi":45,"time":143.42842800000003,"velocity":0.3937007874015748},{"duration":0.14285699999999224,"midi":33,"time":143.57128500000002,"velocity":0.3937007874015748},{"duration":0.14285699999999224,"midi":45,"time":143.57128500000002,"velocity":0.3937007874015748},{"duration":0.14285700000002066,"midi":33,"time":143.714142,"velocity":0.3937007874015748},{"duration":0.14285700000002066,"midi":45,"time":143.714142,"velocity":0.3937007874015748},{"duration":0.14285699999999224,"midi":45,"time":143.85699900000003,"velocity":0.3937007874015748},{"duration":0.14285699999999224,"midi":33,"time":143.85699900000003,"velocity":0.3937007874015748},{"duration":0.2857139999999845,"midi":45,"time":143.99985600000002,"velocity":0.3937007874015748},{"duration":0.2857139999999845,"midi":33,"time":143.99985600000002,"velocity":0.3937007874015748},{"duration":0.14285699999999224,"midi":33,"time":144.28557,"velocity":0.3937007874015748},{"duration":0.14285699999999224,"midi":45,"time":144.28557,"velocity":0.3937007874015748},{"duration":0.14285699999999224,"midi":33,"time":144.428427,"velocity":0.3937007874015748},{"duration":0.14285699999999224,"midi":45,"time":144.428427,"velocity":0.3937007874015748},{"duration":0.14285700000002066,"midi":33,"time":144.571284,"velocity":0.3937007874015748},{"duration":0.14285700000002066,"midi":45,"time":144.571284,"velocity":0.3937007874015748},{"duration":0.14285699999999224,"midi":45,"time":144.714141,"velocity":0.3937007874015748},{"duration":0.14285699999999224,"midi":33,"time":144.714141,"velocity":0.3937007874015748},{"duration":0.42857100000000514,"midi":38,"time":144.856998,"velocity":0.3937007874015748},{"duration":0.42857100000000514,"midi":50,"time":144.856998,"velocity":0.3937007874015748},{"duration":0.42857100000000514,"midi":50,"time":145.285569,"velocity":0.3937007874015748},{"duration":0.42857100000000514,"midi":38,"time":145.285569,"velocity":0.3937007874015748},{"duration":1.7142839999999921,"midi":38,"time":145.71414000000001,"velocity":0.3937007874015748},{"duration":1.7142839999999921,"midi":50,"time":145.71414000000001,"velocity":0.3937007874015748}]},{"instrument":{"family":"brass","number":60,"name":"french horn"},"notes":[{"duration":0.8571419999999996,"midi":62,"time":3.4285680000000003,"velocity":0.3937007874015748},{"duration":0.8571419999999996,"midi":50,"time":3.4285680000000003,"velocity":0.3937007874015748},{"duration":0.4285710000000007,"midi":62,"time":4.28571,"velocity":0.3937007874015748},{"duration":0.4285710000000007,"midi":50,"time":4.28571,"velocity":0.3937007874015748},{"duration":0.4285709999999998,"midi":62,"time":4.714281000000001,"velocity":0.3937007874015748},{"duration":0.4285709999999998,"midi":50,"time":4.714281000000001,"velocity":0.3937007874015748},{"duration":0.2857139999999996,"midi":62,"time":5.142852,"velocity":0.3937007874015748},{"duration":0.2857139999999996,"midi":50,"time":5.142852,"velocity":0.3937007874015748},{"duration":0.14285700000000023,"midi":62,"time":5.428566,"velocity":0.3937007874015748},{"duration":0.14285700000000023,"midi":50,"time":5.428566,"velocity":0.3937007874015748},{"duration":0.2857139999999996,"midi":50,"time":5.571423,"velocity":0.3937007874015748},{"duration":0.2857139999999996,"midi":62,"time":5.571423,"velocity":0.3937007874015748},{"duration":0.14285700000000112,"midi":60,"time":5.857137,"velocity":0.3937007874015748},{"duration":0.14285700000000112,"midi":48,"time":5.857137,"velocity":0.3937007874015748},{"duration":0.2857139999999996,"midi":46,"time":5.999994000000001,"velocity":0.3937007874015748},{"duration":0.2857139999999996,"midi":58,"time":5.999994000000001,"velocity":0.3937007874015748},{"duration":0.14285700000000023,"midi":58,"time":6.2857080000000005,"velocity":0.3937007874015748},{"duration":0.14285700000000023,"midi":46,"time":6.2857080000000005,"velocity":0.3937007874015748},{"duration":0.2857139999999996,"midi":46,"time":6.428565000000001,"velocity":0.3937007874015748},{"duration":0.2857139999999996,"midi":58,"time":6.428565000000001,"velocity":0.3937007874015748},{"duration":0.14285700000000023,"midi":58,"time":6.714279,"velocity":0.3937007874015748},{"duration":0.14285700000000023,"midi":46,"time":6.714279,"velocity":0.3937007874015748},{"duration":0.28571400000000047,"midi":57,"time":6.857136000000001,"velocity":0.3937007874015748},{"duration":0.28571400000000047,"midi":45,"time":6.857136000000001,"velocity":0.3937007874015748},{"duration":0.14285699999999935,"midi":45,"time":7.142850000000001,"velocity":0.3937007874015748},{"duration":0.14285699999999935,"midi":57,"time":7.142850000000001,"velocity":0.3937007874015748},{"duration":0.28571400000000047,"midi":45,"time":7.285707,"velocity":0.3937007874015748},{"duration":0.28571400000000047,"midi":57,"time":7.285707,"velocity":0.3937007874015748},{"duration":0.14285699999999935,"midi":57,"time":7.571421000000001,"velocity":0.3937007874015748},{"duration":0.14285699999999935,"midi":45,"time":7.571421000000001,"velocity":0.3937007874015748},{"duration":0.28571400000000136,"midi":62,"time":7.714278,"velocity":0.3937007874015748},{"duration":0.28571400000000136,"midi":50,"time":7.714278,"velocity":0.3937007874015748},{"duration":0.14285699999999846,"midi":50,"time":7.9999920000000015,"velocity":0.3937007874015748},{"duration":0.14285699999999846,"midi":62,"time":7.9999920000000015,"velocity":0.3937007874015748},{"duration":0.28571400000000047,"midi":50,"time":8.142849,"velocity":0.3937007874015748},{"duration":0.28571400000000047,"midi":57,"time":8.142849,"velocity":0.3937007874015748},{"duration":0.14285699999999935,"midi":50,"time":8.428563,"velocity":0.3937007874015748},{"duration":0.14285699999999935,"midi":57,"time":8.428563,"velocity":0.3937007874015748},{"duration":0.28571400000000224,"midi":58,"time":8.57142,"velocity":0.3937007874015748},{"duration":0.28571400000000224,"midi":46,"time":8.57142,"velocity":0.3937007874015748},{"duration":0.14285699999999935,"midi":58,"time":8.857134000000002,"velocity":0.3937007874015748},{"duration":0.14285699999999935,"midi":46,"time":8.857134000000002,"velocity":0.3937007874015748},{"duration":0.28571400000000047,"midi":46,"time":8.999991000000001,"velocity":0.3937007874015748},{"duration":0.28571400000000047,"midi":58,"time":8.999991000000001,"velocity":0.3937007874015748},{"duration":0.14285699999999935,"midi":58,"time":9.285705000000002,"velocity":0.3937007874015748},{"duration":0.14285699999999935,"midi":46,"time":9.285705000000002,"velocity":0.3937007874015748},{"duration":0.28571400000000047,"midi":53,"time":9.428562000000001,"velocity":0.3937007874015748},{"duration":0.28571400000000047,"midi":41,"time":9.428562000000001,"velocity":0.3937007874015748},{"duration":0.14285699999999935,"midi":53,"time":9.714276000000002,"velocity":0.3937007874015748},{"duration":0.14285699999999935,"midi":41,"time":9.714276000000002,"velocity":0.3937007874015748},{"duration":0.28571400000000047,"midi":53,"time":9.857133000000001,"velocity":0.3937007874015748},{"duration":0.28571400000000047,"midi":41,"time":9.857133000000001,"velocity":0.3937007874015748},{"duration":0.14285699999999935,"midi":41,"time":10.142847000000002,"velocity":0.3937007874015748},{"duration":0.14285699999999935,"midi":53,"time":10.142847000000002,"velocity":0.3937007874015748},{"duration":0.28571400000000047,"midi":48,"time":10.285704,"velocity":0.3937007874015748},{"duration":0.28571400000000047,"midi":60,"time":10.285704,"velocity":0.3937007874015748},{"duration":0.14285699999999935,"midi":60,"time":10.571418000000001,"velocity":0.3937007874015748},{"duration":0.14285699999999935,"midi":48,"time":10.571418000000001,"velocity":0.3937007874015748},{"duration":0.28571400000000047,"midi":57,"time":10.714275,"velocity":0.3937007874015748},{"duration":0.28571400000000047,"midi":45,"time":10.714275,"velocity":0.3937007874015748},{"duration":0.14285699999999935,"midi":57,"time":10.999989000000001,"velocity":0.3937007874015748},{"duration":0.14285699999999935,"midi":45,"time":10.999989000000001,"velocity":0.3937007874015748},{"duration":0.28571400000000047,"midi":50,"time":11.142846,"velocity":0.3937007874015748},{"duration":0.28571400000000047,"midi":62,"time":11.142846,"velocity":0.3937007874015748},{"duration":0.14285699999999935,"midi":62,"time":11.428560000000001,"velocity":0.3937007874015748},{"duration":0.14285699999999935,"midi":50,"time":11.428560000000001,"velocity":0.3937007874015748},{"duration":0.28571400000000047,"midi":50,"time":11.571417,"velocity":0.3937007874015748},{"duration":0.28571400000000047,"midi":57,"time":11.571417,"velocity":0.3937007874015748},{"duration":0.14285700000000112,"midi":57,"time":11.857131,"velocity":0.3937007874015748},{"duration":0.14285700000000112,"midi":50,"time":11.857131,"velocity":0.3937007874015748},{"duration":0.28571400000000047,"midi":62,"time":11.999988000000002,"velocity":0.3937007874015748},{"duration":0.28571400000000047,"midi":50,"time":11.999988000000002,"velocity":0.3937007874015748},{"duration":0.14285699999999935,"midi":50,"time":12.285702000000002,"velocity":0.3937007874015748},{"duration":0.14285699999999935,"midi":62,"time":12.285702000000002,"velocity":0.3937007874015748},{"duration":0.28571400000000047,"midi":62,"time":12.428559000000002,"velocity":0.3937007874015748},{"duration":0.28571400000000047,"midi":50,"time":12.428559000000002,"velocity":0.3937007874015748},{"duration":0.14285699999999935,"midi":62,"time":12.714273000000002,"velocity":0.3937007874015748},{"duration":0.14285699999999935,"midi":50,"time":12.714273000000002,"velocity":0.3937007874015748},{"duration":0.28571400000000047,"midi":46,"time":12.857130000000002,"velocity":0.3937007874015748},{"duration":0.28571400000000047,"midi":58,"time":12.857130000000002,"velocity":0.3937007874015748},{"duration":0.14285699999999935,"midi":46,"time":13.142844000000002,"velocity":0.3937007874015748},{"duration":0.14285699999999935,"midi":58,"time":13.142844000000002,"velocity":0.3937007874015748},{"duration":0.28571400000000047,"midi":46,"time":13.285701000000001,"velocity":0.3937007874015748},{"duration":0.28571400000000047,"midi":58,"time":13.285701000000001,"velocity":0.3937007874015748},{"duration":0.14285699999999935,"midi":46,"time":13.571415000000002,"velocity":0.3937007874015748},{"duration":0.14285699999999935,"midi":58,"time":13.571415000000002,"velocity":0.3937007874015748},{"duration":0.2857139999999987,"midi":55,"time":13.714272000000001,"velocity":0.3937007874015748},{"duration":0.2857139999999987,"midi":43,"time":13.714272000000001,"velocity":0.3937007874015748},{"duration":0.14285700000000112,"midi":55,"time":13.999986,"velocity":0.3937007874015748},{"duration":0.14285700000000112,"midi":43,"time":13.999986,"velocity":0.3937007874015748},{"duration":0.2857139999999987,"midi":55,"time":14.142843000000001,"velocity":0.3937007874015748},{"duration":0.2857139999999987,"midi":43,"time":14.142843000000001,"velocity":0.3937007874015748},{"duration":0.14285700000000112,"midi":55,"time":14.428557,"velocity":0.3937007874015748},{"duration":0.14285700000000112,"midi":43,"time":14.428557,"velocity":0.3937007874015748},{"duration":0.2857139999999987,"midi":50,"time":14.571414,"velocity":0.3937007874015748},{"duration":0.2857139999999987,"midi":62,"time":14.571414,"velocity":0.3937007874015748},{"duration":0.14285700000000112,"midi":50,"time":14.857128,"velocity":0.3937007874015748},{"duration":0.14285700000000112,"midi":62,"time":14.857128,"velocity":0.3937007874015748},{"duration":0.28571400000000047,"midi":50,"time":14.999985,"velocity":0.3937007874015748},{"duration":0.28571400000000047,"midi":57,"time":14.999985,"velocity":0.3937007874015748},{"duration":0.14285699999999935,"midi":50,"time":15.285699000000001,"velocity":0.3937007874015748},{"duration":0.14285699999999935,"midi":57,"time":15.285699000000001,"velocity":0.3937007874015748},{"duration":0.28571400000000047,"midi":58,"time":15.428556,"velocity":0.3937007874015748},{"duration":0.28571400000000047,"midi":46,"time":15.428556,"velocity":0.3937007874015748},{"duration":0.14285700000000112,"midi":46,"time":15.71427,"velocity":0.3937007874015748},{"duration":0.14285700000000112,"midi":58,"time":15.71427,"velocity":0.3937007874015748},{"duration":0.2857139999999987,"midi":58,"time":15.857127000000002,"velocity":0.3937007874015748},{"duration":0.2857139999999987,"midi":46,"time":15.857127000000002,"velocity":0.3937007874015748},{"duration":0.14285699999999935,"midi":58,"time":16.142841,"velocity":0.3937007874015748},{"duration":0.14285699999999935,"midi":46,"time":16.142841,"velocity":0.3937007874015748},{"duration":0.2857139999999987,"midi":62,"time":16.285698,"velocity":0.3937007874015748},{"duration":0.2857139999999987,"midi":50,"time":16.285698,"velocity":0.3937007874015748},{"duration":0.1428570000000029,"midi":62,"time":16.571412,"velocity":0.3937007874015748},{"duration":0.1428570000000029,"midi":50,"time":16.571412,"velocity":0.3937007874015748},{"duration":0.2857139999999987,"midi":50,"time":16.714269,"velocity":0.3937007874015748},{"duration":0.2857139999999987,"midi":62,"time":16.714269,"velocity":0.3937007874015748},{"duration":0.14285699999999935,"midi":62,"time":16.999983,"velocity":0.3937007874015748},{"duration":0.14285699999999935,"midi":50,"time":16.999983,"velocity":0.3937007874015748},{"duration":0.28571400000000224,"midi":45,"time":17.14284,"velocity":0.3937007874015748},{"duration":0.28571400000000224,"midi":57,"time":17.14284,"velocity":0.3937007874015748},{"duration":0.14285699999999935,"midi":45,"time":17.428554000000002,"velocity":0.3937007874015748},{"duration":0.14285699999999935,"midi":57,"time":17.428554000000002,"velocity":0.3937007874015748},{"duration":0.2857139999999987,"midi":57,"time":17.571411,"velocity":0.3937007874015748},{"duration":0.2857139999999987,"midi":45,"time":17.571411,"velocity":0.3937007874015748},{"duration":0.1428570000000029,"midi":57,"time":17.857125,"velocity":0.3937007874015748},{"duration":0.1428570000000029,"midi":45,"time":17.857125,"velocity":0.3937007874015748},{"duration":0.2857139999999987,"midi":57,"time":17.999982000000003,"velocity":0.3937007874015748},{"duration":0.2857139999999987,"midi":45,"time":17.999982000000003,"velocity":0.3937007874015748},{"duration":0.14285699999999935,"midi":45,"time":18.285696,"velocity":0.3937007874015748},{"duration":0.14285699999999935,"midi":57,"time":18.285696,"velocity":0.3937007874015748},{"duration":0.2857139999999987,"midi":45,"time":18.428553,"velocity":0.3937007874015748},{"duration":0.2857139999999987,"midi":57,"time":18.428553,"velocity":0.3937007874015748},{"duration":0.1428570000000029,"midi":57,"time":18.714267,"velocity":0.3937007874015748},{"duration":0.1428570000000029,"midi":45,"time":18.714267,"velocity":0.3937007874015748},{"duration":0.2857139999999987,"midi":50,"time":18.857124000000002,"velocity":0.3937007874015748},{"duration":0.2857139999999987,"midi":62,"time":18.857124000000002,"velocity":0.3937007874015748},{"duration":0.14285699999999935,"midi":50,"time":19.142838,"velocity":0.3937007874015748},{"duration":0.14285699999999935,"midi":62,"time":19.142838,"velocity":0.3937007874015748},{"duration":0.2857139999999987,"midi":62,"time":19.285695,"velocity":0.3937007874015748},{"duration":0.2857139999999987,"midi":50,"time":19.285695,"velocity":0.3937007874015748},{"duration":0.1428570000000029,"midi":60,"time":19.571409,"velocity":0.3937007874015748},{"duration":0.1428570000000029,"midi":48,"time":19.571409,"velocity":0.3937007874015748},{"duration":0.2857139999999987,"midi":58,"time":19.714266000000002,"velocity":0.3937007874015748},{"duration":0.2857139999999987,"midi":46,"time":19.714266000000002,"velocity":0.3937007874015748},{"duration":0.14285699999999935,"midi":58,"time":19.99998,"velocity":0.3937007874015748},{"duration":0.14285699999999935,"midi":46,"time":19.99998,"velocity":0.3937007874015748},{"duration":0.28571400000000224,"midi":58,"time":20.142837,"velocity":0.3937007874015748},{"duration":0.28571400000000224,"midi":46,"time":20.142837,"velocity":0.3937007874015748},{"duration":0.14285699999999935,"midi":46,"time":20.428551000000002,"velocity":0.3937007874015748},{"duration":0.14285699999999935,"midi":58,"time":20.428551000000002,"velocity":0.3937007874015748},{"duration":0.2857139999999987,"midi":45,"time":20.571408,"velocity":0.3937007874015748},{"duration":0.2857139999999987,"midi":57,"time":20.571408,"velocity":0.3937007874015748},{"duration":0.1428570000000029,"midi":45,"time":20.857122,"velocity":0.3937007874015748},{"duration":0.1428570000000029,"midi":57,"time":20.857122,"velocity":0.3937007874015748},{"duration":0.2857139999999987,"midi":57,"time":20.999979000000003,"velocity":0.3937007874015748},{"duration":0.2857139999999987,"midi":45,"time":20.999979000000003,"velocity":0.3937007874015748},{"duration":0.14285699999999935,"midi":45,"time":21.285693000000002,"velocity":0.3937007874015748},{"duration":0.14285699999999935,"midi":57,"time":21.285693000000002,"velocity":0.3937007874015748},{"duration":0.2857139999999987,"midi":62,"time":21.42855,"velocity":0.3937007874015748},{"duration":0.2857139999999987,"midi":50,"time":21.42855,"velocity":0.3937007874015748},{"duration":0.1428570000000029,"midi":62,"time":21.714264,"velocity":0.3937007874015748},{"duration":0.1428570000000029,"midi":50,"time":21.714264,"velocity":0.3937007874015748},{"duration":0.2857139999999987,"midi":50,"time":21.857121000000003,"velocity":0.3937007874015748},{"duration":0.2857139999999987,"midi":57,"time":21.857121000000003,"velocity":0.3937007874015748},{"duration":0.14285699999999935,"midi":57,"time":22.142835,"velocity":0.3937007874015748},{"duration":0.14285699999999935,"midi":50,"time":22.142835,"velocity":0.3937007874015748},{"duration":0.2857139999999987,"midi":46,"time":22.285692,"velocity":0.3937007874015748},{"duration":0.2857139999999987,"midi":58,"time":22.285692,"velocity":0.3937007874015748},{"duration":0.1428570000000029,"midi":46,"time":22.571406,"velocity":0.3937007874015748},{"duration":0.1428570000000029,"midi":58,"time":22.571406,"velocity":0.3937007874015748},{"duration":0.2857139999999987,"midi":58,"time":22.714263000000003,"velocity":0.3937007874015748},{"duration":0.2857139999999987,"midi":46,"time":22.714263000000003,"velocity":0.3937007874015748},{"duration":0.14285699999999935,"midi":58,"time":22.999977,"velocity":0.3937007874015748},{"duration":0.14285699999999935,"midi":46,"time":22.999977,"velocity":0.3937007874015748},{"duration":0.2857139999999987,"midi":53,"time":23.142834,"velocity":0.3937007874015748},{"duration":0.2857139999999987,"midi":41,"time":23.142834,"velocity":0.3937007874015748},{"duration":0.1428570000000029,"midi":53,"time":23.428548,"velocity":0.3937007874015748},{"duration":0.1428570000000029,"midi":41,"time":23.428548,"velocity":0.3937007874015748},{"duration":0.2857139999999987,"midi":53,"time":23.571405000000002,"velocity":0.3937007874015748},{"duration":0.2857139999999987,"midi":41,"time":23.571405000000002,"velocity":0.3937007874015748},{"duration":0.1428570000000029,"midi":53,"time":23.857119,"velocity":0.3937007874015748},{"duration":0.1428570000000029,"midi":41,"time":23.857119,"velocity":0.3937007874015748},{"duration":0.2857139999999987,"midi":48,"time":23.999976000000004,"velocity":0.3937007874015748},{"duration":0.2857139999999987,"midi":60,"time":23.999976000000004,"velocity":0.3937007874015748},{"duration":0.14285699999999935,"midi":60,"time":24.285690000000002,"velocity":0.3937007874015748},{"duration":0.14285699999999935,"midi":48,"time":24.285690000000002,"velocity":0.3937007874015748},{"duration":0.2857139999999987,"midi":57,"time":24.428547000000002,"velocity":0.3937007874015748},{"duration":0.2857139999999987,"midi":45,"time":24.428547000000002,"velocity":0.3937007874015748},{"duration":0.1428570000000029,"midi":45,"time":24.714261,"velocity":0.3937007874015748},{"duration":0.1428570000000029,"midi":57,"time":24.714261,"velocity":0.3937007874015748},{"duration":0.2857139999999987,"midi":62,"time":24.857118000000003,"velocity":0.3937007874015748},{"duration":0.2857139999999987,"midi":50,"time":24.857118000000003,"velocity":0.3937007874015748},{"duration":0.14285699999999935,"midi":50,"time":25.142832000000002,"velocity":0.3937007874015748},{"duration":0.14285699999999935,"midi":62,"time":25.142832000000002,"velocity":0.3937007874015748},{"duration":0.2857139999999987,"midi":57,"time":25.285689,"velocity":0.3937007874015748},{"duration":0.2857139999999987,"midi":50,"time":25.285689,"velocity":0.3937007874015748},{"duration":0.1428570000000029,"midi":50,"time":25.571403,"velocity":0.3937007874015748},{"duration":0.1428570000000029,"midi":57,"time":25.571403,"velocity":0.3937007874015748},{"duration":0.2857139999999987,"midi":62,"time":25.714260000000003,"velocity":0.3937007874015748},{"duration":0.2857139999999987,"midi":50,"time":25.714260000000003,"velocity":0.3937007874015748},{"duration":0.14285699999999935,"midi":50,"time":25.999974,"velocity":0.3937007874015748},{"duration":0.14285699999999935,"midi":62,"time":25.999974,"velocity":0.3937007874015748},{"duration":0.2857139999999987,"midi":50,"time":26.142831,"velocity":0.3937007874015748},{"duration":0.2857139999999987,"midi":62,"time":26.142831,"velocity":0.3937007874015748},{"duration":0.1428570000000029,"midi":62,"time":26.428545,"velocity":0.3937007874015748},{"duration":0.1428570000000029,"midi":50,"time":26.428545,"velocity":0.3937007874015748},{"duration":0.2857139999999987,"midi":58,"time":26.571402000000003,"velocity":0.3937007874015748},{"duration":0.2857139999999987,"midi":46,"time":26.571402000000003,"velocity":0.3937007874015748},{"duration":0.14285699999999935,"midi":46,"time":26.857116,"velocity":0.3937007874015748},{"duration":0.14285699999999935,"midi":58,"time":26.857116,"velocity":0.3937007874015748},{"duration":0.28571400000000224,"midi":58,"time":26.999973,"velocity":0.3937007874015748},{"duration":0.28571400000000224,"midi":46,"time":26.999973,"velocity":0.3937007874015748},{"duration":0.14285699999999935,"midi":46,"time":27.285687000000003,"velocity":0.3937007874015748},{"duration":0.14285699999999935,"midi":58,"time":27.285687000000003,"velocity":0.3937007874015748},{"duration":0.28571400000000224,"midi":55,"time":27.428544000000002,"velocity":0.3937007874015748},{"duration":0.28571400000000224,"midi":43,"time":27.428544000000002,"velocity":0.3937007874015748},{"duration":0.14285699999999935,"midi":55,"time":27.714258000000005,"velocity":0.3937007874015748},{"duration":0.14285699999999935,"midi":43,"time":27.714258000000005,"velocity":0.3937007874015748},{"duration":0.28571400000000224,"midi":55,"time":27.857115000000004,"velocity":0.3937007874015748},{"duration":0.28571400000000224,"midi":43,"time":27.857115000000004,"velocity":0.3937007874015748},{"duration":0.1428569999999958,"midi":55,"time":28.142829000000006,"velocity":0.3937007874015748},{"duration":0.1428569999999958,"midi":43,"time":28.142829000000006,"velocity":0.3937007874015748},{"duration":0.28571400000000224,"midi":62,"time":28.285686000000002,"velocity":0.3937007874015748},{"duration":0.28571400000000224,"midi":50,"time":28.285686000000002,"velocity":0.3937007874015748},{"duration":0.14285699999999935,"midi":62,"time":28.571400000000004,"velocity":0.3937007874015748},{"duration":0.14285699999999935,"midi":50,"time":28.571400000000004,"velocity":0.3937007874015748},{"duration":0.28571400000000224,"midi":50,"time":28.714257000000003,"velocity":0.3937007874015748},{"duration":0.28571400000000224,"midi":57,"time":28.714257000000003,"velocity":0.3937007874015748},{"duration":0.1428569999999958,"midi":57,"time":28.999971000000006,"velocity":0.3937007874015748},{"duration":0.1428569999999958,"midi":50,"time":28.999971000000006,"velocity":0.3937007874015748},{"duration":0.28571400000000224,"midi":46,"time":29.142828,"velocity":0.3937007874015748},{"duration":0.28571400000000224,"midi":58,"time":29.142828,"velocity":0.3937007874015748},{"duration":0.14285699999999935,"midi":58,"time":29.428542000000004,"velocity":0.3937007874015748},{"duration":0.14285699999999935,"midi":46,"time":29.428542000000004,"velocity":0.3937007874015748},{"duration":0.28571400000000224,"midi":58,"time":29.571399000000003,"velocity":0.3937007874015748},{"duration":0.28571400000000224,"midi":46,"time":29.571399000000003,"velocity":0.3937007874015748},{"duration":0.1428569999999958,"midi":58,"time":29.857113000000005,"velocity":0.3937007874015748},{"duration":0.1428569999999958,"midi":46,"time":29.857113000000005,"velocity":0.3937007874015748},{"duration":0.28571400000000224,"midi":62,"time":29.99997,"velocity":0.3937007874015748},{"duration":0.28571400000000224,"midi":50,"time":29.99997,"velocity":0.3937007874015748},{"duration":0.14285699999999935,"midi":62,"time":30.285684000000003,"velocity":0.3937007874015748},{"duration":0.14285699999999935,"midi":50,"time":30.285684000000003,"velocity":0.3937007874015748},{"duration":0.28571400000000224,"midi":50,"time":30.428541000000003,"velocity":0.3937007874015748},{"duration":0.28571400000000224,"midi":62,"time":30.428541000000003,"velocity":0.3937007874015748},{"duration":0.1428569999999958,"midi":62,"time":30.714255000000005,"velocity":0.3937007874015748},{"duration":0.1428569999999958,"midi":50,"time":30.714255000000005,"velocity":0.3937007874015748},{"duration":0.28571400000000224,"midi":57,"time":30.857112,"velocity":0.3937007874015748},{"duration":0.28571400000000224,"midi":45,"time":30.857112,"velocity":0.3937007874015748},{"duration":0.14285699999999935,"midi":57,"time":31.142826000000003,"velocity":0.3937007874015748},{"duration":0.14285699999999935,"midi":45,"time":31.142826000000003,"velocity":0.3937007874015748},{"duration":0.28571400000000224,"midi":57,"time":31.285683000000002,"velocity":0.3937007874015748},{"duration":0.28571400000000224,"midi":45,"time":31.285683000000002,"velocity":0.3937007874015748},{"duration":0.14285699999999935,"midi":45,"time":31.571397000000005,"velocity":0.3937007874015748},{"duration":0.14285699999999935,"midi":57,"time":31.571397000000005,"velocity":0.3937007874015748},{"duration":0.28571400000000224,"midi":62,"time":31.714254000000004,"velocity":0.3937007874015748},{"duration":0.28571400000000224,"midi":50,"time":31.714254000000004,"velocity":0.3937007874015748},{"duration":0.28571399999999514,"midi":50,"time":31.999968000000006,"velocity":0.3937007874015748},{"duration":0.28571399999999514,"midi":62,"time":31.999968000000006,"velocity":0.3937007874015748},{"duration":0.2857139999999987,"midi":60,"time":32.285682,"velocity":0.3937007874015748},{"duration":0.2857139999999987,"midi":48,"time":32.285682,"velocity":0.3937007874015748},{"duration":0.2857140000000058,"midi":48,"time":32.571396,"velocity":0.3937007874015748},{"duration":0.2857140000000058,"midi":60,"time":32.571396,"velocity":0.3937007874015748},{"duration":0.2857139999999916,"midi":48,"time":32.857110000000006,"velocity":0.3937007874015748},{"duration":0.2857139999999916,"midi":60,"time":32.857110000000006,"velocity":0.3937007874015748},{"duration":0.2857140000000058,"midi":58,"time":33.142824,"velocity":0.3937007874015748},{"duration":0.2857140000000058,"midi":46,"time":33.142824,"velocity":0.3937007874015748},{"duration":0.2857139999999987,"midi":57,"time":33.428538,"velocity":0.3937007874015748},{"duration":0.2857139999999987,"midi":45,"time":33.428538,"velocity":0.3937007874015748},{"duration":0.14285699999999935,"midi":45,"time":33.714252,"velocity":0.3937007874015748},{"duration":0.14285699999999935,"midi":57,"time":33.714252,"velocity":0.3937007874015748},{"duration":0.2857140000000058,"midi":57,"time":33.857109,"velocity":0.3937007874015748},{"duration":0.2857140000000058,"midi":45,"time":33.857109,"velocity":0.3937007874015748},{"duration":0.14285699999999224,"midi":57,"time":34.14282300000001,"velocity":0.3937007874015748},{"duration":0.14285699999999224,"midi":45,"time":34.14282300000001,"velocity":0.3937007874015748},{"duration":0.2857140000000058,"midi":45,"time":34.28568,"velocity":0.3937007874015748},{"duration":0.2857140000000058,"midi":57,"time":34.28568,"velocity":0.3937007874015748},{"duration":0.14285699999999935,"midi":45,"time":34.571394000000005,"velocity":0.3937007874015748},{"duration":0.14285699999999935,"midi":57,"time":34.571394000000005,"velocity":0.3937007874015748},{"duration":0.2857139999999987,"midi":57,"time":34.714251000000004,"velocity":0.3937007874015748},{"duration":0.2857139999999987,"midi":45,"time":34.714251000000004,"velocity":0.3937007874015748},{"duration":0.14285699999999935,"midi":57,"time":34.999965,"velocity":0.3937007874015748},{"duration":0.14285699999999935,"midi":45,"time":34.999965,"velocity":0.3937007874015748},{"duration":0.2857140000000058,"midi":55,"time":35.142822,"velocity":0.3937007874015748},{"duration":0.2857140000000058,"midi":43,"time":35.142822,"velocity":0.3937007874015748},{"duration":0.14285699999999224,"midi":55,"time":35.42853600000001,"velocity":0.3937007874015748},{"duration":0.14285699999999224,"midi":43,"time":35.42853600000001,"velocity":0.3937007874015748},{"duration":0.2857140000000058,"midi":43,"time":35.571393,"velocity":0.3937007874015748},{"duration":0.2857140000000058,"midi":55,"time":35.571393,"velocity":0.3937007874015748},{"duration":0.14285699999999935,"midi":55,"time":35.857107000000006,"velocity":0.3937007874015748},{"duration":0.14285699999999935,"midi":43,"time":35.857107000000006,"velocity":0.3937007874015748},{"duration":0.2857139999999987,"midi":55,"time":35.999964000000006,"velocity":0.3937007874015748},{"duration":0.2857139999999987,"midi":43,"time":35.999964000000006,"velocity":0.3937007874015748},{"duration":0.14285699999999935,"midi":43,"time":36.285678000000004,"velocity":0.3937007874015748},{"duration":0.14285699999999935,"midi":55,"time":36.285678000000004,"velocity":0.3937007874015748},{"duration":0.2857139999999987,"midi":43,"time":36.428535000000004,"velocity":0.3937007874015748},{"duration":0.2857139999999987,"midi":55,"time":36.428535000000004,"velocity":0.3937007874015748},{"duration":0.14285699999999935,"midi":43,"time":36.714249,"velocity":0.3937007874015748},{"duration":0.14285699999999935,"midi":55,"time":36.714249,"velocity":0.3937007874015748},{"duration":0.2857140000000058,"midi":45,"time":36.857106,"velocity":0.3937007874015748},{"duration":0.2857140000000058,"midi":57,"time":36.857106,"velocity":0.3937007874015748},{"duration":0.14285699999999224,"midi":57,"time":37.14282000000001,"velocity":0.3937007874015748},{"duration":0.14285699999999224,"midi":45,"time":37.14282000000001,"velocity":0.3937007874015748},{"duration":0.2857140000000058,"midi":45,"time":37.285677,"velocity":0.3937007874015748},{"duration":0.2857140000000058,"midi":57,"time":37.285677,"velocity":0.3937007874015748},{"duration":0.14285699999999935,"midi":45,"time":37.571391000000006,"velocity":0.3937007874015748},{"duration":0.14285699999999935,"midi":57,"time":37.571391000000006,"velocity":0.3937007874015748},{"duration":0.2857139999999987,"midi":45,"time":37.714248000000005,"velocity":0.3937007874015748},{"duration":0.2857139999999987,"midi":57,"time":37.714248000000005,"velocity":0.3937007874015748},{"duration":0.14285699999999935,"midi":45,"time":37.999962000000004,"velocity":0.3937007874015748},{"duration":0.14285699999999935,"midi":57,"time":37.999962000000004,"velocity":0.3937007874015748},{"duration":0.2857140000000058,"midi":45,"time":38.142819,"velocity":0.3937007874015748},{"duration":0.2857140000000058,"midi":57,"time":38.142819,"velocity":0.3937007874015748},{"duration":0.14285699999999224,"midi":45,"time":38.42853300000001,"velocity":0.3937007874015748},{"duration":0.14285699999999224,"midi":57,"time":38.42853300000001,"velocity":0.3937007874015748},{"duration":0.2857140000000058,"midi":50,"time":38.57139,"velocity":0.3937007874015748},{"duration":0.2857140000000058,"midi":62,"time":38.57139,"velocity":0.3937007874015748},{"duration":0.14285699999999935,"midi":50,"time":38.85710400000001,"velocity":0.3937007874015748},{"duration":0.14285699999999935,"midi":62,"time":38.85710400000001,"velocity":0.3937007874015748},{"duration":0.2857139999999987,"midi":62,"time":38.999961000000006,"velocity":0.3937007874015748},{"duration":0.2857139999999987,"midi":50,"time":38.999961000000006,"velocity":0.3937007874015748},{"duration":0.14285699999999935,"midi":50,"time":39.285675000000005,"velocity":0.3937007874015748},{"duration":0.14285699999999935,"midi":62,"time":39.285675000000005,"velocity":0.3937007874015748},{"duration":0.2857139999999987,"midi":62,"time":39.428532000000004,"velocity":0.3937007874015748},{"duration":0.2857139999999987,"midi":50,"time":39.428532000000004,"velocity":0.3937007874015748},{"duration":0.14285699999999935,"midi":62,"time":39.714246,"velocity":0.3937007874015748},{"duration":0.14285699999999935,"midi":50,"time":39.714246,"velocity":0.3937007874015748},{"duration":0.2857140000000058,"midi":62,"time":39.857103,"velocity":0.3937007874015748},{"duration":0.2857140000000058,"midi":50,"time":39.857103,"velocity":0.3937007874015748},{"duration":0.14285699999999224,"midi":62,"time":40.14281700000001,"velocity":0.3937007874015748},{"duration":0.14285699999999224,"midi":50,"time":40.14281700000001,"velocity":0.3937007874015748},{"duration":0.2857140000000058,"midi":48,"time":40.285674,"velocity":0.3937007874015748},{"duration":0.2857140000000058,"midi":60,"time":40.285674,"velocity":0.3937007874015748},{"duration":0.14285699999999935,"midi":48,"time":40.571388000000006,"velocity":0.3937007874015748},{"duration":0.14285699999999935,"midi":60,"time":40.571388000000006,"velocity":0.3937007874015748},{"duration":0.2857139999999987,"midi":60,"time":40.714245000000005,"velocity":0.3937007874015748},{"duration":0.2857139999999987,"midi":48,"time":40.714245000000005,"velocity":0.3937007874015748},{"duration":0.14285699999999935,"midi":60,"time":40.999959000000004,"velocity":0.3937007874015748},{"duration":0.14285699999999935,"midi":48,"time":40.999959000000004,"velocity":0.3937007874015748},{"duration":0.2857139999999987,"midi":53,"time":41.142816,"velocity":0.3937007874015748},{"duration":0.2857139999999987,"midi":65,"time":41.142816,"velocity":0.3937007874015748},{"duration":0.14285699999999935,"midi":65,"time":41.42853,"velocity":0.3937007874015748},{"duration":0.14285699999999935,"midi":53,"time":41.42853,"velocity":0.3937007874015748},{"duration":0.2857140000000058,"midi":53,"time":41.571387,"velocity":0.3937007874015748},{"duration":0.2857140000000058,"midi":65,"time":41.571387,"velocity":0.3937007874015748},{"duration":0.14285699999999935,"midi":53,"time":41.85710100000001,"velocity":0.3937007874015748},{"duration":0.14285699999999935,"midi":65,"time":41.85710100000001,"velocity":0.3937007874015748},{"duration":0.2857139999999987,"midi":62,"time":41.99995800000001,"velocity":0.3937007874015748},{"duration":0.2857139999999987,"midi":50,"time":41.99995800000001,"velocity":0.3937007874015748},{"duration":0.14285699999999935,"midi":62,"time":42.285672000000005,"velocity":0.3937007874015748},{"duration":0.14285699999999935,"midi":50,"time":42.285672000000005,"velocity":0.3937007874015748},{"duration":0.2857139999999987,"midi":62,"time":42.428529000000005,"velocity":0.3937007874015748},{"duration":0.2857139999999987,"midi":50,"time":42.428529000000005,"velocity":0.3937007874015748},{"duration":0.14285699999999935,"midi":62,"time":42.714243,"velocity":0.3937007874015748},{"duration":0.14285699999999935,"midi":50,"time":42.714243,"velocity":0.3937007874015748},{"duration":0.2857140000000058,"midi":50,"time":42.8571,"velocity":0.3937007874015748},{"duration":0.2857140000000058,"midi":62,"time":42.8571,"velocity":0.3937007874015748},{"duration":0.14285699999999224,"midi":50,"time":43.14281400000001,"velocity":0.3937007874015748},{"duration":0.14285699999999224,"midi":62,"time":43.14281400000001,"velocity":0.3937007874015748},{"duration":0.2857140000000058,"midi":62,"time":43.285671,"velocity":0.3937007874015748},{"duration":0.2857140000000058,"midi":50,"time":43.285671,"velocity":0.3937007874015748},{"duration":0.14285699999999935,"midi":62,"time":43.57138500000001,"velocity":0.3937007874015748},{"duration":0.14285699999999935,"midi":50,"time":43.57138500000001,"velocity":0.3937007874015748},{"duration":0.2857139999999987,"midi":45,"time":43.714242000000006,"velocity":0.3937007874015748},{"duration":0.2857139999999987,"midi":57,"time":43.714242000000006,"velocity":0.3937007874015748},{"duration":0.14285699999999935,"midi":45,"time":43.999956000000005,"velocity":0.3937007874015748},{"duration":0.14285699999999935,"midi":57,"time":43.999956000000005,"velocity":0.3937007874015748},{"duration":0.2857139999999987,"midi":57,"time":44.142813000000004,"velocity":0.3937007874015748},{"duration":0.2857139999999987,"midi":45,"time":44.142813000000004,"velocity":0.3937007874015748},{"duration":0.14285699999999935,"midi":57,"time":44.428527,"velocity":0.3937007874015748},{"duration":0.14285699999999935,"midi":45,"time":44.428527,"velocity":0.3937007874015748},{"duration":0.2857140000000058,"midi":50,"time":44.571384,"velocity":0.3937007874015748},{"duration":0.2857140000000058,"midi":62,"time":44.571384,"velocity":0.3937007874015748},{"duration":0.14285699999999935,"midi":62,"time":44.85709800000001,"velocity":0.3937007874015748},{"duration":0.14285699999999935,"midi":50,"time":44.85709800000001,"velocity":0.3937007874015748},{"duration":0.2857139999999987,"midi":50,"time":44.99995500000001,"velocity":0.3937007874015748},{"duration":0.2857139999999987,"midi":62,"time":44.99995500000001,"velocity":0.3937007874015748},{"duration":0.14285699999999935,"midi":62,"time":45.285669000000006,"velocity":0.3937007874015748},{"duration":0.14285699999999935,"midi":50,"time":45.285669000000006,"velocity":0.3937007874015748},{"duration":0.2857139999999987,"midi":50,"time":45.428526000000005,"velocity":0.3937007874015748},{"duration":0.2857139999999987,"midi":62,"time":45.428526000000005,"velocity":0.3937007874015748},{"duration":0.14285699999999935,"midi":62,"time":45.714240000000004,"velocity":0.3937007874015748},{"duration":0.14285699999999935,"midi":50,"time":45.714240000000004,"velocity":0.3937007874015748},{"duration":0.2857140000000058,"midi":50,"time":45.857097,"velocity":0.3937007874015748},{"duration":0.2857140000000058,"midi":62,"time":45.857097,"velocity":0.3937007874015748},{"duration":0.14285699999999224,"midi":50,"time":46.14281100000001,"velocity":0.3937007874015748},{"duration":0.14285699999999224,"midi":62,"time":46.14281100000001,"velocity":0.3937007874015748},{"duration":0.2857140000000058,"midi":60,"time":46.285668,"velocity":0.3937007874015748},{"duration":0.2857140000000058,"midi":48,"time":46.285668,"velocity":0.3937007874015748},{"duration":0.14285699999999935,"midi":60,"time":46.57138200000001,"velocity":0.3937007874015748},{"duration":0.14285699999999935,"midi":48,"time":46.57138200000001,"velocity":0.3937007874015748},{"duration":0.2857139999999987,"midi":60,"time":46.714239000000006,"velocity":0.3937007874015748},{"duration":0.2857139999999987,"midi":48,"time":46.714239000000006,"velocity":0.3937007874015748},{"duration":0.14285699999999935,"midi":60,"time":46.999953000000005,"velocity":0.3937007874015748},{"duration":0.14285699999999935,"midi":48,"time":46.999953000000005,"velocity":0.3937007874015748},{"duration":0.2857139999999987,"midi":53,"time":47.142810000000004,"velocity":0.3937007874015748},{"duration":0.2857139999999987,"midi":65,"time":47.142810000000004,"velocity":0.3937007874015748},{"duration":0.14285699999999935,"midi":65,"time":47.428524,"velocity":0.3937007874015748},{"duration":0.14285699999999935,"midi":53,"time":47.428524,"velocity":0.3937007874015748},{"duration":0.2857140000000058,"midi":53,"time":47.571381,"velocity":0.3937007874015748},{"duration":0.2857140000000058,"midi":65,"time":47.571381,"velocity":0.3937007874015748},{"duration":0.14285699999999935,"midi":65,"time":47.85709500000001,"velocity":0.3937007874015748},{"duration":0.14285699999999935,"midi":53,"time":47.85709500000001,"velocity":0.3937007874015748},{"duration":0.2857139999999987,"midi":60,"time":47.99995200000001,"velocity":0.3937007874015748},{"duration":0.2857139999999987,"midi":48,"time":47.99995200000001,"velocity":0.3937007874015748},{"duration":0.14285699999999935,"midi":48,"time":48.285666000000006,"velocity":0.3937007874015748},{"duration":0.14285699999999935,"midi":60,"time":48.285666000000006,"velocity":0.3937007874015748},{"duration":0.2857139999999987,"midi":60,"time":48.428523000000006,"velocity":0.3937007874015748},{"duration":0.2857139999999987,"midi":48,"time":48.428523000000006,"velocity":0.3937007874015748},{"duration":0.14285699999999935,"midi":60,"time":48.714237000000004,"velocity":0.3937007874015748},{"duration":0.14285699999999935,"midi":48,"time":48.714237000000004,"velocity":0.3937007874015748},{"duration":0.2857140000000058,"midi":50,"time":48.857094000000004,"velocity":0.3937007874015748},{"duration":0.2857140000000058,"midi":62,"time":48.857094000000004,"velocity":0.3937007874015748},{"duration":0.14285699999999224,"midi":62,"time":49.14280800000001,"velocity":0.3937007874015748},{"duration":0.14285699999999224,"midi":50,"time":49.14280800000001,"velocity":0.3937007874015748},{"duration":0.2857140000000058,"midi":62,"time":49.285665,"velocity":0.3937007874015748},{"duration":0.2857140000000058,"midi":50,"time":49.285665,"velocity":0.3937007874015748},{"duration":0.14285699999999935,"midi":62,"time":49.57137900000001,"velocity":0.3937007874015748},{"duration":0.14285699999999935,"midi":50,"time":49.57137900000001,"velocity":0.3937007874015748},{"duration":0.2857139999999987,"midi":57,"time":49.71423600000001,"velocity":0.3937007874015748},{"duration":0.2857139999999987,"midi":45,"time":49.71423600000001,"velocity":0.3937007874015748},{"duration":0.14285699999999935,"midi":45,"time":49.999950000000005,"velocity":0.3937007874015748},{"duration":0.14285699999999935,"midi":57,"time":49.999950000000005,"velocity":0.3937007874015748},{"duration":0.2857139999999987,"midi":57,"time":50.142807000000005,"velocity":0.3937007874015748},{"duration":0.2857139999999987,"midi":45,"time":50.142807000000005,"velocity":0.3937007874015748},{"duration":0.14285699999999935,"midi":57,"time":50.428521,"velocity":0.3937007874015748},{"duration":0.14285699999999935,"midi":45,"time":50.428521,"velocity":0.3937007874015748},{"duration":0.2857140000000058,"midi":50,"time":50.571378,"velocity":0.3937007874015748},{"duration":0.2857140000000058,"midi":62,"time":50.571378,"velocity":0.3937007874015748},{"duration":0.14285699999999224,"midi":62,"time":50.85709200000001,"velocity":0.3937007874015748},{"duration":0.14285699999999224,"midi":50,"time":50.85709200000001,"velocity":0.3937007874015748},{"duration":0.2857140000000058,"midi":62,"time":50.999949,"velocity":0.3937007874015748},{"duration":0.2857140000000058,"midi":50,"time":50.999949,"velocity":0.3937007874015748},{"duration":0.14285699999999935,"midi":62,"time":51.28566300000001,"velocity":0.3937007874015748},{"duration":0.14285699999999935,"midi":50,"time":51.28566300000001,"velocity":0.3937007874015748},{"duration":0.2857139999999987,"midi":50,"time":51.428520000000006,"velocity":0.3937007874015748},{"duration":0.2857139999999987,"midi":62,"time":51.428520000000006,"velocity":0.3937007874015748},{"duration":0.14285699999999935,"midi":62,"time":51.714234000000005,"velocity":0.3937007874015748},{"duration":0.14285699999999935,"midi":50,"time":51.714234000000005,"velocity":0.3937007874015748},{"duration":0.2857140000000058,"midi":50,"time":51.857091000000004,"velocity":0.3937007874015748},{"duration":0.2857140000000058,"midi":62,"time":51.857091000000004,"velocity":0.3937007874015748},{"duration":0.14285699999999224,"midi":50,"time":52.14280500000001,"velocity":0.3937007874015748},{"duration":0.14285699999999224,"midi":62,"time":52.14280500000001,"velocity":0.3937007874015748},{"duration":0.2857140000000058,"midi":62,"time":52.285662,"velocity":0.3937007874015748},{"duration":0.2857140000000058,"midi":50,"time":52.285662,"velocity":0.3937007874015748},{"duration":0.14285699999999935,"midi":50,"time":52.57137600000001,"velocity":0.3937007874015748},{"duration":0.14285699999999935,"midi":62,"time":52.57137600000001,"velocity":0.3937007874015748},{"duration":0.2857139999999987,"midi":50,"time":52.71423300000001,"velocity":0.3937007874015748},{"duration":0.2857139999999987,"midi":62,"time":52.71423300000001,"velocity":0.3937007874015748},{"duration":0.14285699999999935,"midi":62,"time":52.999947000000006,"velocity":0.3937007874015748},{"duration":0.14285699999999935,"midi":50,"time":52.999947000000006,"velocity":0.3937007874015748},{"duration":0.2857139999999987,"midi":60,"time":53.142804000000005,"velocity":0.3937007874015748},{"duration":0.2857139999999987,"midi":48,"time":53.142804000000005,"velocity":0.3937007874015748},{"duration":0.14285699999999935,"midi":48,"time":53.428518000000004,"velocity":0.3937007874015748},{"duration":0.14285699999999935,"midi":60,"time":53.428518000000004,"velocity":0.3937007874015748},{"duration":0.2857140000000058,"midi":60,"time":53.571375,"velocity":0.3937007874015748},{"duration":0.2857140000000058,"midi":48,"time":53.571375,"velocity":0.3937007874015748},{"duration":0.14285699999999224,"midi":60,"time":53.85708900000001,"velocity":0.3937007874015748},{"duration":0.14285699999999224,"midi":48,"time":53.85708900000001,"velocity":0.3937007874015748},{"duration":0.2857140000000058,"midi":53,"time":53.999946,"velocity":0.3937007874015748},{"duration":0.2857140000000058,"midi":65,"time":53.999946,"velocity":0.3937007874015748},{"duration":0.14285699999999935,"midi":65,"time":54.28566000000001,"velocity":0.3937007874015748},{"duration":0.14285699999999935,"midi":53,"time":54.28566000000001,"velocity":0.3937007874015748},{"duration":0.2857139999999987,"midi":65,"time":54.42851700000001,"velocity":0.3937007874015748},{"duration":0.2857139999999987,"midi":53,"time":54.42851700000001,"velocity":0.3937007874015748},{"duration":0.14285699999999935,"midi":65,"time":54.714231000000005,"velocity":0.3937007874015748},{"duration":0.14285699999999935,"midi":53,"time":54.714231000000005,"velocity":0.3937007874015748},{"duration":0.2857139999999987,"midi":46,"time":54.857088000000005,"velocity":0.3937007874015748},{"duration":0.2857139999999987,"midi":58,"time":54.857088000000005,"velocity":0.3937007874015748},{"duration":0.14285699999999935,"midi":58,"time":55.142802,"velocity":0.3937007874015748},{"duration":0.14285699999999935,"midi":46,"time":55.142802,"velocity":0.3937007874015748},{"duration":0.2857139999999987,"midi":46,"time":55.285659,"velocity":0.3937007874015748},{"duration":0.2857139999999987,"midi":58,"time":55.285659,"velocity":0.3937007874015748},{"duration":0.14285700000000645,"midi":46,"time":55.571373,"velocity":0.3937007874015748},{"duration":0.14285700000000645,"midi":58,"time":55.571373,"velocity":0.3937007874015748},{"duration":0.2857139999999916,"midi":50,"time":55.71423000000001,"velocity":0.3937007874015748},{"duration":0.2857139999999916,"midi":62,"time":55.71423000000001,"velocity":0.3937007874015748},{"duration":0.14285700000000645,"midi":62,"time":55.999944,"velocity":0.3937007874015748},{"duration":0.14285700000000645,"midi":50,"time":55.999944,"velocity":0.3937007874015748},{"duration":0.2857139999999916,"midi":62,"time":56.142801000000006,"velocity":0.3937007874015748},{"duration":0.2857139999999916,"midi":50,"time":56.142801000000006,"velocity":0.3937007874015748},{"duration":0.14285700000000645,"midi":50,"time":56.428515,"velocity":0.3937007874015748},{"duration":0.14285700000000645,"midi":62,"time":56.428515,"velocity":0.3937007874015748},{"duration":0.2857139999999987,"midi":58,"time":56.571372000000004,"velocity":0.3937007874015748},{"duration":0.2857139999999987,"midi":46,"time":56.571372000000004,"velocity":0.3937007874015748},{"duration":0.14285699999999935,"midi":46,"time":56.857086,"velocity":0.3937007874015748},{"duration":0.14285699999999935,"midi":58,"time":56.857086,"velocity":0.3937007874015748},{"duration":0.2857139999999987,"midi":58,"time":56.999943,"velocity":0.3937007874015748},{"duration":0.2857139999999987,"midi":46,"time":56.999943,"velocity":0.3937007874015748},{"duration":0.14285700000000645,"midi":58,"time":57.285657,"velocity":0.3937007874015748},{"duration":0.14285700000000645,"midi":46,"time":57.285657,"velocity":0.3937007874015748},{"duration":0.2857139999999916,"midi":45,"time":57.42851400000001,"velocity":0.3937007874015748},{"duration":0.2857139999999916,"midi":57,"time":57.42851400000001,"velocity":0.3937007874015748},{"duration":0.14285700000000645,"midi":45,"time":57.714228,"velocity":0.3937007874015748},{"duration":0.14285700000000645,"midi":57,"time":57.714228,"velocity":0.3937007874015748},{"duration":0.2857139999999987,"midi":57,"time":57.857085000000005,"velocity":0.3937007874015748},{"duration":0.2857139999999987,"midi":45,"time":57.857085000000005,"velocity":0.3937007874015748},{"duration":0.14285699999999935,"midi":57,"time":58.142799000000004,"velocity":0.3937007874015748},{"duration":0.14285699999999935,"midi":45,"time":58.142799000000004,"velocity":0.3937007874015748},{"duration":0.2857139999999987,"midi":45,"time":58.285656,"velocity":0.3937007874015748},{"duration":0.2857139999999987,"midi":57,"time":58.285656,"velocity":0.3937007874015748},{"duration":0.14285700000000645,"midi":45,"time":58.57137,"velocity":0.3937007874015748},{"duration":0.14285700000000645,"midi":57,"time":58.57137,"velocity":0.3937007874015748},{"duration":0.2857139999999916,"midi":45,"time":58.71422700000001,"velocity":0.3937007874015748},{"duration":0.2857139999999916,"midi":57,"time":58.71422700000001,"velocity":0.3937007874015748},{"duration":0.14285700000000645,"midi":45,"time":58.999941,"velocity":0.3937007874015748},{"duration":0.14285700000000645,"midi":57,"time":58.999941,"velocity":0.3937007874015748},{"duration":0.2857139999999916,"midi":50,"time":59.142798000000006,"velocity":0.3937007874015748},{"duration":0.2857139999999916,"midi":62,"time":59.142798000000006,"velocity":0.3937007874015748},{"duration":0.14285700000000645,"midi":62,"time":59.428512,"velocity":0.3937007874015748},{"duration":0.14285700000000645,"midi":50,"time":59.428512,"velocity":0.3937007874015748},{"duration":0.14285700000000645,"midi":62,"time":59.571369000000004,"velocity":0.3937007874015748},{"duration":0.14285700000000645,"midi":50,"time":59.571369000000004,"velocity":0.3937007874015748},{"duration":0.14285699999999224,"midi":62,"time":59.71422600000001,"velocity":0.3937007874015748},{"duration":0.14285699999999224,"midi":50,"time":59.71422600000001,"velocity":0.3937007874015748},{"duration":0.14285699999999935,"midi":50,"time":59.857083,"velocity":0.3937007874015748},{"duration":0.14285699999999935,"midi":62,"time":59.857083,"velocity":0.3937007874015748},{"duration":0.2857139999999987,"midi":43,"time":59.99994,"velocity":0.3937007874015748},{"duration":0.2857139999999987,"midi":55,"time":59.99994,"velocity":0.3937007874015748},{"duration":0.14285700000000645,"midi":55,"time":60.285654,"velocity":0.3937007874015748},{"duration":0.14285700000000645,"midi":43,"time":60.285654,"velocity":0.3937007874015748},{"duration":0.14285699999999935,"midi":55,"time":60.42851100000001,"velocity":0.3937007874015748},{"duration":0.14285699999999935,"midi":43,"time":60.42851100000001,"velocity":0.3937007874015748},{"duration":0.14285699999999224,"midi":43,"time":60.57136800000001,"velocity":0.3937007874015748},{"duration":0.14285699999999224,"midi":55,"time":60.57136800000001,"velocity":0.3937007874015748},{"duration":0.14285700000000645,"midi":43,"time":60.714225,"velocity":0.3937007874015748},{"duration":0.14285700000000645,"midi":55,"time":60.714225,"velocity":0.3937007874015748},{"duration":0.2857139999999987,"midi":65,"time":60.857082000000005,"velocity":0.3937007874015748},{"duration":0.2857139999999987,"midi":53,"time":60.857082000000005,"velocity":0.3937007874015748},{"duration":0.14285699999999935,"midi":65,"time":61.142796000000004,"velocity":0.3937007874015748},{"duration":0.14285699999999935,"midi":53,"time":61.142796000000004,"velocity":0.3937007874015748},{"duration":0.14285700000000645,"midi":65,"time":61.285653,"velocity":0.3937007874015748},{"duration":0.14285700000000645,"midi":53,"time":61.285653,"velocity":0.3937007874015748},{"duration":0.14285699999999224,"midi":53,"time":61.42851000000001,"velocity":0.3937007874015748},{"duration":0.14285699999999224,"midi":65,"time":61.42851000000001,"velocity":0.3937007874015748},{"duration":0.14285699999999935,"midi":53,"time":61.571367,"velocity":0.3937007874015748},{"duration":0.14285699999999935,"midi":65,"time":61.571367,"velocity":0.3937007874015748},{"duration":0.2857139999999987,"midi":60,"time":61.714224,"velocity":0.3937007874015748},{"duration":0.2857139999999987,"midi":48,"time":61.714224,"velocity":0.3937007874015748},{"duration":0.14285700000000645,"midi":60,"time":61.999938,"velocity":0.3937007874015748},{"duration":0.14285700000000645,"midi":48,"time":61.999938,"velocity":0.3937007874015748},{"duration":0.14285699999999935,"midi":60,"time":62.14279500000001,"velocity":0.3937007874015748},{"duration":0.14285699999999935,"midi":48,"time":62.14279500000001,"velocity":0.3937007874015748},{"duration":0.14285699999999224,"midi":60,"time":62.285652000000006,"velocity":0.3937007874015748},{"duration":0.14285699999999224,"midi":48,"time":62.285652000000006,"velocity":0.3937007874015748},{"duration":0.14285700000000645,"midi":60,"time":62.428509,"velocity":0.3937007874015748},{"duration":0.14285700000000645,"midi":48,"time":62.428509,"velocity":0.3937007874015748},{"duration":0.2857139999999987,"midi":55,"time":62.571366000000005,"velocity":0.3937007874015748},{"duration":0.2857139999999987,"midi":43,"time":62.571366000000005,"velocity":0.3937007874015748},{"duration":0.14285699999999935,"midi":43,"time":62.85708,"velocity":0.3937007874015748},{"duration":0.14285699999999935,"midi":55,"time":62.85708,"velocity":0.3937007874015748},{"duration":0.14285700000000645,"midi":43,"time":62.999937,"velocity":0.3937007874015748},{"duration":0.2857139999999987,"midi":55,"time":62.999937,"velocity":0.3937007874015748},{"duration":0.14285699999999224,"midi":43,"time":63.14279400000001,"velocity":0.3937007874015748},{"duration":0.14285700000000645,"midi":43,"time":63.285651,"velocity":0.3937007874015748},{"duration":0.14285700000000645,"midi":55,"time":63.285651,"velocity":0.3937007874015748},{"duration":0.2857139999999916,"midi":57,"time":63.42850800000001,"velocity":0.3937007874015748},{"duration":0.2857139999999916,"midi":45,"time":63.42850800000001,"velocity":0.3937007874015748},{"duration":0.14285700000000645,"midi":45,"time":63.714222,"velocity":0.3937007874015748},{"duration":0.14285700000000645,"midi":57,"time":63.714222,"velocity":0.3937007874015748},{"duration":0.2857139999999916,"midi":57,"time":63.857079000000006,"velocity":0.3937007874015748},{"duration":0.14285700000000645,"midi":45,"time":63.857079000000006,"velocity":0.3937007874015748},{"duration":0.14285699999998513,"midi":45,"time":63.99993600000001,"velocity":0.3937007874015748},{"duration":0.14285700000000645,"midi":45,"time":64.142793,"velocity":0.3937007874015748},{"duration":0.14285700000000645,"midi":57,"time":64.142793,"velocity":0.3937007874015748},{"duration":0.2857139999999987,"midi":57,"time":64.28565,"velocity":0.3937007874015748},{"duration":0.2857139999999987,"midi":45,"time":64.28565,"velocity":0.3937007874015748},{"duration":0.14285700000000645,"midi":57,"time":64.571364,"velocity":0.3937007874015748},{"duration":0.14285700000000645,"midi":45,"time":64.571364,"velocity":0.3937007874015748},{"duration":0.2857139999999987,"midi":57,"time":64.71422100000001,"velocity":0.3937007874015748},{"duration":0.14285700000000645,"midi":45,"time":64.71422100000001,"velocity":0.3937007874015748},{"duration":0.14285699999999224,"midi":45,"time":64.85707800000002,"velocity":0.3937007874015748},{"duration":0.14285699999999224,"midi":45,"time":64.99993500000001,"velocity":0.3937007874015748},{"duration":0.14285699999999224,"midi":57,"time":64.99993500000001,"velocity":0.3937007874015748},{"duration":0.2857139999999987,"midi":50,"time":65.142792,"velocity":0.3937007874015748},{"duration":0.2857139999999987,"midi":62,"time":65.142792,"velocity":0.3937007874015748},{"duration":0.14285700000000645,"midi":62,"time":65.428506,"velocity":0.3937007874015748},{"duration":0.14285700000000645,"midi":50,"time":65.428506,"velocity":0.3937007874015748},{"duration":0.2857139999999987,"midi":62,"time":65.571363,"velocity":0.3937007874015748},{"duration":0.14285700000000645,"midi":50,"time":65.571363,"velocity":0.3937007874015748},{"duration":0.14285699999999224,"midi":50,"time":65.71422000000001,"velocity":0.3937007874015748},{"duration":0.14285700000000645,"midi":50,"time":65.857077,"velocity":0.3937007874015748},{"duration":0.14285700000000645,"midi":62,"time":65.857077,"velocity":0.3937007874015748},{"duration":0.2857139999999845,"midi":62,"time":65.99993400000001,"velocity":0.3937007874015748},{"duration":0.2857139999999845,"midi":50,"time":65.99993400000001,"velocity":0.3937007874015748},{"duration":0.14285700000000645,"midi":50,"time":66.285648,"velocity":0.3937007874015748},{"duration":0.14285700000000645,"midi":62,"time":66.285648,"velocity":0.3937007874015748},{"duration":0.14285700000000645,"midi":50,"time":66.428505,"velocity":0.3937007874015748},{"duration":0.2857139999999987,"midi":62,"time":66.428505,"velocity":0.3937007874015748},{"duration":0.14285699999999224,"midi":50,"time":66.57136200000001,"velocity":0.3937007874015748},{"duration":0.14285700000000645,"midi":62,"time":66.714219,"velocity":0.3937007874015748},{"duration":0.14285700000000645,"midi":50,"time":66.714219,"velocity":0.3937007874015748},{"duration":0.2857139999999987,"midi":46,"time":66.857076,"velocity":0.3937007874015748},{"duration":0.2857139999999987,"midi":58,"time":66.857076,"velocity":0.3937007874015748},{"duration":0.14285700000000645,"midi":46,"time":67.14279,"velocity":0.3937007874015748},{"duration":0.14285700000000645,"midi":58,"time":67.14279,"velocity":0.3937007874015748},{"duration":0.2857139999999845,"midi":58,"time":67.28564700000001,"velocity":0.3937007874015748},{"duration":0.14285699999999224,"midi":46,"time":67.28564700000001,"velocity":0.3937007874015748},{"duration":0.14285699999999224,"midi":46,"time":67.428504,"velocity":0.3937007874015748},{"duration":0.14285700000000645,"midi":58,"time":67.571361,"velocity":0.3937007874015748},{"duration":0.14285700000000645,"midi":46,"time":67.571361,"velocity":0.3937007874015748},{"duration":0.2857139999999987,"midi":53,"time":67.714218,"velocity":0.3937007874015748},{"duration":0.2857139999999987,"midi":65,"time":67.714218,"velocity":0.3937007874015748},{"duration":0.14285700000000645,"midi":65,"time":67.999932,"velocity":0.3937007874015748},{"duration":0.14285700000000645,"midi":53,"time":67.999932,"velocity":0.3937007874015748},{"duration":0.14285700000000645,"midi":53,"time":68.14278900000001,"velocity":0.3937007874015748},{"duration":0.2857139999999987,"midi":65,"time":68.14278900000001,"velocity":0.3937007874015748},{"duration":0.14285699999999224,"midi":53,"time":68.28564600000001,"velocity":0.3937007874015748},{"duration":0.14285699999999224,"midi":53,"time":68.428503,"velocity":0.3937007874015748},{"duration":0.14285699999999224,"midi":65,"time":68.428503,"velocity":0.3937007874015748},{"duration":0.2857139999999987,"midi":60,"time":68.57136,"velocity":0.3937007874015748},{"duration":0.2857139999999987,"midi":48,"time":68.57136,"velocity":0.3937007874015748},{"duration":0.14285700000000645,"midi":48,"time":68.857074,"velocity":0.3937007874015748},{"duration":0.14285700000000645,"midi":60,"time":68.857074,"velocity":0.3937007874015748},{"duration":0.2857139999999987,"midi":60,"time":68.999931,"velocity":0.3937007874015748},{"duration":0.14285700000000645,"midi":48,"time":68.999931,"velocity":0.3937007874015748},{"duration":0.14285699999999224,"midi":48,"time":69.14278800000001,"velocity":0.3937007874015748},{"duration":0.14285700000000645,"midi":60,"time":69.285645,"velocity":0.3937007874015748},{"duration":0.14285700000000645,"midi":48,"time":69.285645,"velocity":0.3937007874015748},{"duration":0.2857139999999987,"midi":55,"time":69.42850200000001,"velocity":0.3937007874015748},{"duration":0.2857139999999987,"midi":43,"time":69.42850200000001,"velocity":0.3937007874015748},{"duration":0.14285699999999224,"midi":55,"time":69.71421600000001,"velocity":0.3937007874015748},{"duration":0.14285699999999224,"midi":43,"time":69.71421600000001,"velocity":0.3937007874015748},{"duration":0.2857139999999987,"midi":55,"time":69.857073,"velocity":0.3937007874015748},{"duration":0.14285700000000645,"midi":43,"time":69.857073,"velocity":0.3937007874015748},{"duration":0.14285700000000645,"midi":55,"time":70.142787,"velocity":0.3937007874015748},{"duration":0.14285700000000645,"midi":43,"time":70.142787,"velocity":0.3937007874015748},{"duration":0.2857139999999987,"midi":57,"time":70.285644,"velocity":0.3937007874015748},{"duration":0.2857139999999987,"midi":45,"time":70.285644,"velocity":0.3937007874015748},{"duration":0.14285700000000645,"midi":57,"time":70.571358,"velocity":0.3937007874015748},{"duration":0.14285700000000645,"midi":45,"time":70.571358,"velocity":0.3937007874015748},{"duration":0.14285700000000645,"midi":45,"time":70.71421500000001,"velocity":0.3937007874015748},{"duration":0.2857139999999987,"midi":57,"time":70.71421500000001,"velocity":0.3937007874015748},{"duration":0.14285699999999224,"midi":45,"time":70.85707200000002,"velocity":0.3937007874015748},{"duration":0.14285699999999224,"midi":45,"time":70.99992900000001,"velocity":0.3937007874015748},{"duration":0.14285699999999224,"midi":57,"time":70.99992900000001,"velocity":0.3937007874015748},{"duration":0.2857139999999987,"midi":45,"time":71.142786,"velocity":0.3937007874015748},{"duration":0.2857139999999987,"midi":57,"time":71.142786,"velocity":0.3937007874015748},{"duration":0.14285700000000645,"midi":57,"time":71.4285,"velocity":0.3937007874015748},{"duration":0.14285700000000645,"midi":45,"time":71.4285,"velocity":0.3937007874015748},{"duration":0.14285700000000645,"midi":45,"time":71.571357,"velocity":0.3937007874015748},{"duration":0.2857139999999987,"midi":57,"time":71.571357,"velocity":0.3937007874015748},{"duration":0.14285699999999224,"midi":45,"time":71.71421400000001,"velocity":0.3937007874015748},{"duration":0.14285700000000645,"midi":45,"time":71.857071,"velocity":0.3937007874015748},{"duration":0.14285700000000645,"midi":57,"time":71.857071,"velocity":0.3937007874015748},{"duration":0.2857139999999845,"midi":62,"time":71.99992800000001,"velocity":0.3937007874015748},{"duration":0.2857139999999845,"midi":50,"time":71.99992800000001,"velocity":0.3937007874015748},{"duration":0.14285700000000645,"midi":62,"time":72.285642,"velocity":0.3937007874015748},{"duration":0.14285700000000645,"midi":50,"time":72.285642,"velocity":0.3937007874015748},{"duration":0.2857139999999987,"midi":62,"time":72.428499,"velocity":0.3937007874015748},{"duration":0.2857139999999987,"midi":50,"time":72.428499,"velocity":0.3937007874015748},{"duration":0.14285700000000645,"midi":50,"time":72.714213,"velocity":0.3937007874015748},{"duration":0.14285700000000645,"midi":62,"time":72.714213,"velocity":0.3937007874015748},{"duration":0.2857139999999987,"midi":62,"time":72.85707000000001,"velocity":0.3937007874015748},{"duration":0.2857139999999987,"midi":50,"time":72.85707000000001,"velocity":0.3937007874015748},{"duration":0.14285700000000645,"midi":62,"time":73.142784,"velocity":0.3937007874015748},{"duration":0.14285700000000645,"midi":50,"time":73.142784,"velocity":0.3937007874015748},{"duration":0.2857139999999845,"midi":62,"time":73.28564100000001,"velocity":0.3937007874015748},{"duration":0.2857139999999845,"midi":50,"time":73.28564100000001,"velocity":0.3937007874015748},{"duration":0.14285700000000645,"midi":60,"time":73.571355,"velocity":0.3937007874015748},{"duration":0.14285700000000645,"midi":48,"time":73.571355,"velocity":0.3937007874015748},{"duration":0.2857139999999987,"midi":46,"time":73.714212,"velocity":0.3937007874015748},{"duration":0.2857139999999987,"midi":58,"time":73.714212,"velocity":0.3937007874015748},{"duration":0.14285700000000645,"midi":46,"time":73.999926,"velocity":0.3937007874015748},{"duration":0.14285700000000645,"midi":58,"time":73.999926,"velocity":0.3937007874015748},{"duration":0.2857139999999987,"midi":58,"time":74.14278300000001,"velocity":0.3937007874015748},{"duration":0.2857139999999987,"midi":46,"time":74.14278300000001,"velocity":0.3937007874015748},{"duration":0.14285699999999224,"midi":58,"time":74.42849700000001,"velocity":0.3937007874015748},{"duration":0.14285699999999224,"midi":46,"time":74.42849700000001,"velocity":0.3937007874015748},{"duration":0.2857139999999987,"midi":45,"time":74.571354,"velocity":0.3937007874015748},{"duration":0.2857139999999987,"midi":57,"time":74.571354,"velocity":0.3937007874015748},{"duration":0.14285700000000645,"midi":57,"time":74.857068,"velocity":0.3937007874015748},{"duration":0.14285700000000645,"midi":45,"time":74.857068,"velocity":0.3937007874015748},{"duration":0.2857139999999987,"midi":57,"time":74.999925,"velocity":0.3937007874015748},{"duration":0.2857139999999987,"midi":45,"time":74.999925,"velocity":0.3937007874015748},{"duration":0.14285700000000645,"midi":45,"time":75.285639,"velocity":0.3937007874015748},{"duration":0.14285700000000645,"midi":57,"time":75.285639,"velocity":0.3937007874015748},{"duration":0.2857139999999987,"midi":62,"time":75.42849600000001,"velocity":0.3937007874015748},{"duration":0.2857139999999987,"midi":50,"time":75.42849600000001,"velocity":0.3937007874015748},{"duration":0.14285699999999224,"midi":50,"time":75.71421000000001,"velocity":0.3937007874015748},{"duration":0.14285699999999224,"midi":62,"time":75.71421000000001,"velocity":0.3937007874015748},{"duration":0.2857139999999987,"midi":57,"time":75.857067,"velocity":0.3937007874015748},{"duration":0.2857139999999987,"midi":50,"time":75.857067,"velocity":0.3937007874015748},{"duration":0.14285700000000645,"midi":57,"time":76.142781,"velocity":0.3937007874015748},{"duration":0.14285700000000645,"midi":50,"time":76.142781,"velocity":0.3937007874015748},{"duration":0.2857139999999987,"midi":58,"time":76.285638,"velocity":0.3937007874015748},{"duration":0.2857139999999987,"midi":46,"time":76.285638,"velocity":0.3937007874015748},{"duration":0.14285700000000645,"midi":46,"time":76.571352,"velocity":0.3937007874015748},{"duration":0.14285700000000645,"midi":58,"time":76.571352,"velocity":0.3937007874015748},{"duration":0.2857139999999845,"midi":46,"time":76.71420900000001,"velocity":0.3937007874015748},{"duration":0.2857139999999845,"midi":58,"time":76.71420900000001,"velocity":0.3937007874015748},{"duration":0.14285700000000645,"midi":46,"time":76.999923,"velocity":0.3937007874015748},{"duration":0.14285700000000645,"midi":58,"time":76.999923,"velocity":0.3937007874015748},{"duration":0.2857139999999987,"midi":53,"time":77.14278,"velocity":0.3937007874015748},{"duration":0.2857139999999987,"midi":41,"time":77.14278,"velocity":0.3937007874015748},{"duration":0.14285700000000645,"midi":53,"time":77.428494,"velocity":0.3937007874015748},{"duration":0.14285700000000645,"midi":41,"time":77.428494,"velocity":0.3937007874015748},{"duration":0.2857139999999987,"midi":53,"time":77.571351,"velocity":0.3937007874015748},{"duration":0.2857139999999987,"midi":41,"time":77.571351,"velocity":0.3937007874015748},{"duration":0.14285700000000645,"midi":41,"time":77.857065,"velocity":0.3937007874015748},{"duration":0.14285700000000645,"midi":53,"time":77.857065,"velocity":0.3937007874015748},{"duration":0.2857139999999845,"midi":60,"time":77.99992200000001,"velocity":0.3937007874015748},{"duration":0.2857139999999845,"midi":48,"time":77.99992200000001,"velocity":0.3937007874015748},{"duration":0.14285700000000645,"midi":60,"time":78.285636,"velocity":0.3937007874015748},{"duration":0.14285700000000645,"midi":48,"time":78.285636,"velocity":0.3937007874015748},{"duration":0.2857139999999987,"midi":57,"time":78.428493,"velocity":0.3937007874015748},{"duration":0.2857139999999987,"midi":45,"time":78.428493,"velocity":0.3937007874015748},{"duration":0.14285700000000645,"midi":57,"time":78.714207,"velocity":0.3937007874015748},{"duration":0.14285700000000645,"midi":45,"time":78.714207,"velocity":0.3937007874015748},{"duration":0.2857139999999987,"midi":62,"time":78.85706400000001,"velocity":0.3937007874015748},{"duration":0.2857139999999987,"midi":50,"time":78.85706400000001,"velocity":0.3937007874015748},{"duration":0.14285700000000645,"midi":62,"time":79.142778,"velocity":0.3937007874015748},{"duration":0.14285700000000645,"midi":50,"time":79.142778,"velocity":0.3937007874015748},{"duration":0.2857139999999845,"midi":50,"time":79.28563500000001,"velocity":0.3937007874015748},{"duration":0.2857139999999845,"midi":57,"time":79.28563500000001,"velocity":0.3937007874015748},{"duration":0.14285700000000645,"midi":57,"time":79.571349,"velocity":0.3937007874015748},{"duration":0.14285700000000645,"midi":50,"time":79.571349,"velocity":0.3937007874015748},{"duration":0.2857139999999987,"midi":50,"time":79.714206,"velocity":0.3937007874015748},{"duration":0.2857139999999987,"midi":62,"time":79.714206,"velocity":0.3937007874015748},{"duration":0.14285700000000645,"midi":62,"time":79.99992,"velocity":0.3937007874015748},{"duration":0.14285700000000645,"midi":50,"time":79.99992,"velocity":0.3937007874015748},{"duration":0.2857139999999987,"midi":62,"time":80.14277700000001,"velocity":0.3937007874015748},{"duration":0.2857139999999987,"midi":50,"time":80.14277700000001,"velocity":0.3937007874015748},{"duration":0.14285699999999224,"midi":62,"time":80.42849100000001,"velocity":0.3937007874015748},{"duration":0.14285699999999224,"midi":50,"time":80.42849100000001,"velocity":0.3937007874015748},{"duration":0.2857139999999987,"midi":58,"time":80.571348,"velocity":0.3937007874015748},{"duration":0.2857139999999987,"midi":46,"time":80.571348,"velocity":0.3937007874015748},{"duration":0.14285700000000645,"midi":58,"time":80.857062,"velocity":0.3937007874015748},{"duration":0.14285700000000645,"midi":46,"time":80.857062,"velocity":0.3937007874015748},{"duration":0.2857139999999987,"midi":58,"time":80.999919,"velocity":0.3937007874015748},{"duration":0.2857139999999987,"midi":46,"time":80.999919,"velocity":0.3937007874015748},{"duration":0.14285700000000645,"midi":58,"time":81.285633,"velocity":0.3937007874015748},{"duration":0.14285700000000645,"midi":46,"time":81.285633,"velocity":0.3937007874015748},{"duration":0.2857139999999987,"midi":55,"time":81.42849000000001,"velocity":0.3937007874015748},{"duration":0.2857139999999987,"midi":43,"time":81.42849000000001,"velocity":0.3937007874015748},{"duration":0.14285699999999224,"midi":43,"time":81.71420400000001,"velocity":0.3937007874015748},{"duration":0.14285699999999224,"midi":55,"time":81.71420400000001,"velocity":0.3937007874015748},{"duration":0.2857139999999987,"midi":55,"time":81.857061,"velocity":0.3937007874015748},{"duration":0.2857139999999987,"midi":43,"time":81.857061,"velocity":0.3937007874015748},{"duration":0.14285700000000645,"midi":43,"time":82.142775,"velocity":0.3937007874015748},{"duration":0.14285700000000645,"midi":55,"time":82.142775,"velocity":0.3937007874015748},{"duration":0.2857139999999987,"midi":62,"time":82.285632,"velocity":0.3937007874015748},{"duration":0.2857139999999987,"midi":50,"time":82.285632,"velocity":0.3937007874015748},{"duration":0.14285700000000645,"midi":50,"time":82.571346,"velocity":0.3937007874015748},{"duration":0.14285700000000645,"midi":62,"time":82.571346,"velocity":0.3937007874015748},{"duration":0.2857139999999845,"midi":50,"time":82.71420300000001,"velocity":0.3937007874015748},{"duration":0.2857139999999845,"midi":57,"time":82.71420300000001,"velocity":0.3937007874015748},{"duration":0.14285700000000645,"midi":57,"time":82.999917,"velocity":0.3937007874015748},{"duration":0.14285700000000645,"midi":50,"time":82.999917,"velocity":0.3937007874015748},{"duration":0.2857139999999987,"midi":58,"time":83.142774,"velocity":0.3937007874015748},{"duration":0.2857139999999987,"midi":46,"time":83.142774,"velocity":0.3937007874015748},{"duration":0.14285700000000645,"midi":46,"time":83.428488,"velocity":0.3937007874015748},{"duration":0.14285700000000645,"midi":58,"time":83.428488,"velocity":0.3937007874015748},{"duration":0.2857139999999987,"midi":58,"time":83.57134500000001,"velocity":0.3937007874015748},{"duration":0.2857139999999987,"midi":46,"time":83.57134500000001,"velocity":0.3937007874015748},{"duration":0.14285700000000645,"midi":58,"time":83.857059,"velocity":0.3937007874015748},{"duration":0.14285700000000645,"midi":46,"time":83.857059,"velocity":0.3937007874015748},{"duration":0.2857139999999845,"midi":50,"time":83.99991600000001,"velocity":0.3937007874015748},{"duration":0.2857139999999845,"midi":62,"time":83.99991600000001,"velocity":0.3937007874015748},{"duration":0.14285700000000645,"midi":50,"time":84.28563,"velocity":0.3937007874015748},{"duration":0.14285700000000645,"midi":62,"time":84.28563,"velocity":0.3937007874015748},{"duration":0.2857139999999987,"midi":62,"time":84.428487,"velocity":0.3937007874015748},{"duration":0.2857139999999987,"midi":50,"time":84.428487,"velocity":0.3937007874015748},{"duration":0.14285700000000645,"midi":62,"time":84.714201,"velocity":0.3937007874015748},{"duration":0.14285700000000645,"midi":50,"time":84.714201,"velocity":0.3937007874015748},{"duration":0.2857139999999987,"midi":45,"time":84.85705800000001,"velocity":0.3937007874015748},{"duration":0.2857139999999987,"midi":57,"time":84.85705800000001,"velocity":0.3937007874015748},{"duration":0.14285699999999224,"midi":57,"time":85.14277200000001,"velocity":0.3937007874015748},{"duration":0.14285699999999224,"midi":45,"time":85.14277200000001,"velocity":0.3937007874015748},{"duration":0.2857139999999987,"midi":57,"time":85.285629,"velocity":0.3937007874015748},{"duration":0.2857139999999987,"midi":45,"time":85.285629,"velocity":0.3937007874015748},{"duration":0.14285700000000645,"midi":57,"time":85.571343,"velocity":0.3937007874015748},{"duration":0.14285700000000645,"midi":45,"time":85.571343,"velocity":0.3937007874015748},{"duration":0.2857139999999987,"midi":57,"time":85.7142,"velocity":0.3937007874015748},{"duration":0.2857139999999987,"midi":45,"time":85.7142,"velocity":0.3937007874015748},{"duration":0.14285700000000645,"midi":57,"time":85.999914,"velocity":0.3937007874015748},{"duration":0.14285700000000645,"midi":45,"time":85.999914,"velocity":0.3937007874015748},{"duration":0.2857139999999987,"midi":45,"time":86.14277100000001,"velocity":0.3937007874015748},{"duration":0.2857139999999987,"midi":57,"time":86.14277100000001,"velocity":0.3937007874015748},{"duration":0.14285699999999224,"midi":45,"time":86.42848500000001,"velocity":0.3937007874015748},{"duration":0.14285699999999224,"midi":57,"time":86.42848500000001,"velocity":0.3937007874015748},{"duration":0.2857139999999987,"midi":50,"time":86.571342,"velocity":0.3937007874015748},{"duration":0.2857139999999987,"midi":62,"time":86.571342,"velocity":0.3937007874015748},{"duration":0.14285700000000645,"midi":50,"time":86.857056,"velocity":0.3937007874015748},{"duration":0.14285700000000645,"midi":62,"time":86.857056,"velocity":0.3937007874015748},{"duration":0.2857139999999987,"midi":50,"time":86.999913,"velocity":0.3937007874015748},{"duration":0.2857139999999987,"midi":62,"time":86.999913,"velocity":0.3937007874015748},{"duration":0.14285700000000645,"midi":60,"time":87.285627,"velocity":0.3937007874015748},{"duration":0.14285700000000645,"midi":48,"time":87.285627,"velocity":0.3937007874015748},{"duration":0.2857139999999845,"midi":58,"time":87.42848400000001,"velocity":0.3937007874015748},{"duration":0.2857139999999845,"midi":46,"time":87.42848400000001,"velocity":0.3937007874015748},{"duration":0.14285700000000645,"midi":46,"time":87.714198,"velocity":0.3937007874015748},{"duration":0.14285700000000645,"midi":58,"time":87.714198,"velocity":0.3937007874015748},{"duration":0.2857139999999987,"midi":58,"time":87.857055,"velocity":0.3937007874015748},{"duration":0.2857139999999987,"midi":46,"time":87.857055,"velocity":0.3937007874015748},{"duration":0.14285700000000645,"midi":46,"time":88.142769,"velocity":0.3937007874015748},{"duration":0.14285700000000645,"midi":58,"time":88.142769,"velocity":0.3937007874015748},{"duration":0.2857139999999987,"midi":57,"time":88.28562600000001,"velocity":0.3937007874015748},{"duration":0.2857139999999987,"midi":45,"time":88.28562600000001,"velocity":0.3937007874015748},{"duration":0.14285700000000645,"midi":57,"time":88.57134,"velocity":0.3937007874015748},{"duration":0.14285700000000645,"midi":45,"time":88.57134,"velocity":0.3937007874015748},{"duration":0.2857139999999845,"midi":57,"time":88.71419700000001,"velocity":0.3937007874015748},{"duration":0.2857139999999845,"midi":45,"time":88.71419700000001,"velocity":0.3937007874015748},{"duration":0.14285700000000645,"midi":57,"time":88.999911,"velocity":0.3937007874015748},{"duration":0.14285700000000645,"midi":45,"time":88.999911,"velocity":0.3937007874015748},{"duration":0.2857139999999987,"midi":62,"time":89.142768,"velocity":0.3937007874015748},{"duration":0.2857139999999987,"midi":50,"time":89.142768,"velocity":0.3937007874015748},{"duration":0.14285700000000645,"midi":50,"time":89.428482,"velocity":0.3937007874015748},{"duration":0.14285700000000645,"midi":62,"time":89.428482,"velocity":0.3937007874015748},{"duration":0.2857139999999987,"midi":57,"time":89.57133900000001,"velocity":0.3937007874015748},{"duration":0.2857139999999987,"midi":50,"time":89.57133900000001,"velocity":0.3937007874015748},{"duration":0.14285700000000645,"midi":57,"time":89.85705300000001,"velocity":0.3937007874015748},{"duration":0.14285700000000645,"midi":50,"time":89.85705300000001,"velocity":0.3937007874015748},{"duration":0.2857139999999845,"midi":46,"time":89.99991000000001,"velocity":0.3937007874015748},{"duration":0.2857139999999845,"midi":58,"time":89.99991000000001,"velocity":0.3937007874015748},{"duration":0.14285700000000645,"midi":58,"time":90.285624,"velocity":0.3937007874015748},{"duration":0.14285700000000645,"midi":46,"time":90.285624,"velocity":0.3937007874015748},{"duration":0.2857139999999987,"midi":58,"time":90.428481,"velocity":0.3937007874015748},{"duration":0.2857139999999987,"midi":46,"time":90.428481,"velocity":0.3937007874015748},{"duration":0.14285700000000645,"midi":58,"time":90.714195,"velocity":0.3937007874015748},{"duration":0.14285700000000645,"midi":46,"time":90.714195,"velocity":0.3937007874015748},{"duration":0.2857139999999987,"midi":41,"time":90.85705200000001,"velocity":0.3937007874015748},{"duration":0.2857139999999987,"midi":53,"time":90.85705200000001,"velocity":0.3937007874015748},{"duration":0.14285699999999224,"midi":41,"time":91.14276600000001,"velocity":0.3937007874015748},{"duration":0.14285699999999224,"midi":53,"time":91.14276600000001,"velocity":0.3937007874015748},{"duration":0.2857139999999987,"midi":53,"time":91.285623,"velocity":0.3937007874015748},{"duration":0.2857139999999987,"midi":41,"time":91.285623,"velocity":0.3937007874015748},{"duration":0.14285700000000645,"midi":53,"time":91.571337,"velocity":0.3937007874015748},{"duration":0.14285700000000645,"midi":41,"time":91.571337,"velocity":0.3937007874015748},{"duration":0.2857139999999987,"midi":60,"time":91.714194,"velocity":0.3937007874015748},{"duration":0.2857139999999987,"midi":48,"time":91.714194,"velocity":0.3937007874015748},{"duration":0.14285700000000645,"midi":60,"time":91.999908,"velocity":0.3937007874015748},{"duration":0.14285700000000645,"midi":48,"time":91.999908,"velocity":0.3937007874015748},{"duration":0.2857139999999987,"midi":57,"time":92.14276500000001,"velocity":0.3937007874015748},{"duration":0.2857139999999987,"midi":45,"time":92.14276500000001,"velocity":0.3937007874015748},{"duration":0.14285699999999224,"midi":45,"time":92.42847900000001,"velocity":0.3937007874015748},{"duration":0.14285699999999224,"midi":57,"time":92.42847900000001,"velocity":0.3937007874015748},{"duration":0.2857139999999987,"midi":50,"time":92.571336,"velocity":0.3937007874015748},{"duration":0.2857139999999987,"midi":62,"time":92.571336,"velocity":0.3937007874015748},{"duration":0.14285700000000645,"midi":50,"time":92.85705,"velocity":0.3937007874015748},{"duration":0.14285700000000645,"midi":62,"time":92.85705,"velocity":0.3937007874015748},{"duration":0.2857139999999987,"midi":57,"time":92.99990700000001,"velocity":0.3937007874015748},{"duration":0.2857139999999987,"midi":50,"time":92.99990700000001,"velocity":0.3937007874015748},{"duration":0.14285700000000645,"midi":57,"time":93.285621,"velocity":0.3937007874015748},{"duration":0.14285700000000645,"midi":50,"time":93.285621,"velocity":0.3937007874015748},{"duration":0.2857139999999845,"midi":62,"time":93.42847800000001,"velocity":0.3937007874015748},{"duration":0.2857139999999845,"midi":50,"time":93.42847800000001,"velocity":0.3937007874015748},{"duration":0.14285700000000645,"midi":62,"time":93.714192,"velocity":0.3937007874015748},{"duration":0.14285700000000645,"midi":50,"time":93.714192,"velocity":0.3937007874015748},{"duration":0.2857139999999987,"midi":62,"time":93.857049,"velocity":0.3937007874015748},{"duration":0.2857139999999987,"midi":50,"time":93.857049,"velocity":0.3937007874015748},{"duration":0.14285700000000645,"midi":50,"time":94.142763,"velocity":0.3937007874015748},{"duration":0.14285700000000645,"midi":62,"time":94.142763,"velocity":0.3937007874015748},{"duration":0.2857139999999987,"midi":46,"time":94.28562000000001,"velocity":0.3937007874015748},{"duration":0.2857139999999987,"midi":58,"time":94.28562000000001,"velocity":0.3937007874015748},{"duration":0.14285700000000645,"midi":46,"time":94.57133400000001,"velocity":0.3937007874015748},{"duration":0.14285700000000645,"midi":58,"time":94.57133400000001,"velocity":0.3937007874015748},{"duration":0.2857139999999845,"midi":58,"time":94.71419100000001,"velocity":0.3937007874015748},{"duration":0.2857139999999845,"midi":46,"time":94.71419100000001,"velocity":0.3937007874015748},{"duration":0.14285700000000645,"midi":58,"time":94.999905,"velocity":0.3937007874015748},{"duration":0.14285700000000645,"midi":46,"time":94.999905,"velocity":0.3937007874015748},{"duration":0.2857139999999987,"midi":55,"time":95.142762,"velocity":0.3937007874015748},{"duration":0.2857139999999987,"midi":43,"time":95.142762,"velocity":0.3937007874015748},{"duration":0.14285700000000645,"midi":43,"time":95.428476,"velocity":0.3937007874015748},{"duration":0.14285700000000645,"midi":55,"time":95.428476,"velocity":0.3937007874015748},{"duration":0.2857139999999987,"midi":43,"time":95.57133300000001,"velocity":0.3937007874015748},{"duration":0.2857139999999987,"midi":55,"time":95.57133300000001,"velocity":0.3937007874015748},{"duration":0.14285700000000645,"midi":55,"time":95.85704700000001,"velocity":0.3937007874015748},{"duration":0.14285700000000645,"midi":43,"time":95.85704700000001,"velocity":0.3937007874015748},{"duration":0.2857139999999845,"midi":50,"time":95.99990400000002,"velocity":0.3937007874015748},{"duration":0.2857139999999845,"midi":62,"time":95.99990400000002,"velocity":0.3937007874015748},{"duration":0.14285700000000645,"midi":50,"time":96.285618,"velocity":0.3937007874015748},{"duration":0.14285700000000645,"midi":62,"time":96.285618,"velocity":0.3937007874015748},{"duration":0.2857139999999987,"midi":57,"time":96.428475,"velocity":0.3937007874015748},{"duration":0.2857139999999987,"midi":50,"time":96.428475,"velocity":0.3937007874015748},{"duration":0.14285700000000645,"midi":50,"time":96.714189,"velocity":0.3937007874015748},{"duration":0.14285700000000645,"midi":57,"time":96.714189,"velocity":0.3937007874015748},{"duration":0.2857139999999987,"midi":46,"time":96.85704600000001,"velocity":0.3937007874015748},{"duration":0.2857139999999987,"midi":58,"time":96.85704600000001,"velocity":0.3937007874015748},{"duration":0.14285699999999224,"midi":46,"time":97.14276000000001,"velocity":0.3937007874015748},{"duration":0.14285699999999224,"midi":58,"time":97.14276000000001,"velocity":0.3937007874015748},{"duration":0.2857139999999987,"midi":46,"time":97.285617,"velocity":0.3937007874015748},{"duration":0.2857139999999987,"midi":58,"time":97.285617,"velocity":0.3937007874015748},{"duration":0.14285700000000645,"midi":58,"time":97.571331,"velocity":0.3937007874015748},{"duration":0.14285700000000645,"midi":46,"time":97.571331,"velocity":0.3937007874015748},{"duration":0.2857139999999987,"midi":62,"time":97.71418800000001,"velocity":0.3937007874015748},{"duration":0.2857139999999987,"midi":50,"time":97.71418800000001,"velocity":0.3937007874015748},{"duration":0.14285700000000645,"midi":62,"time":97.999902,"velocity":0.3937007874015748},{"duration":0.14285700000000645,"midi":50,"time":97.999902,"velocity":0.3937007874015748},{"duration":0.2857139999999987,"midi":62,"time":98.14275900000001,"velocity":0.3937007874015748},{"duration":0.2857139999999987,"midi":50,"time":98.14275900000001,"velocity":0.3937007874015748},{"duration":0.14285699999999224,"midi":62,"time":98.42847300000001,"velocity":0.3937007874015748},{"duration":0.14285699999999224,"midi":50,"time":98.42847300000001,"velocity":0.3937007874015748},{"duration":0.2857139999999987,"midi":45,"time":98.57133,"velocity":0.3937007874015748},{"duration":0.2857139999999987,"midi":57,"time":98.57133,"velocity":0.3937007874015748},{"duration":0.14285700000000645,"midi":45,"time":98.857044,"velocity":0.3937007874015748},{"duration":0.14285700000000645,"midi":57,"time":98.857044,"velocity":0.3937007874015748},{"duration":0.2857139999999987,"midi":45,"time":98.99990100000001,"velocity":0.3937007874015748},{"duration":0.2857139999999987,"midi":57,"time":98.99990100000001,"velocity":0.3937007874015748},{"duration":0.14285700000000645,"midi":57,"time":99.285615,"velocity":0.3937007874015748},{"duration":0.14285700000000645,"midi":45,"time":99.285615,"velocity":0.3937007874015748},{"duration":0.2857139999999845,"midi":50,"time":99.42847200000001,"velocity":0.3937007874015748},{"duration":0.2857139999999845,"midi":62,"time":99.42847200000001,"velocity":0.3937007874015748},{"duration":0.2857140000000129,"midi":62,"time":99.714186,"velocity":0.3937007874015748},{"duration":0.2857140000000129,"midi":50,"time":99.714186,"velocity":0.3937007874015748},{"duration":0.2857139999999987,"midi":48,"time":99.99990000000001,"velocity":0.3937007874015748},{"duration":0.2857139999999987,"midi":60,"time":99.99990000000001,"velocity":0.3937007874015748},{"duration":0.2857139999999987,"midi":60,"time":100.28561400000001,"velocity":0.3937007874015748},{"duration":0.2857139999999987,"midi":48,"time":100.28561400000001,"velocity":0.3937007874015748},{"duration":0.2857139999999987,"midi":48,"time":100.57132800000001,"velocity":0.3937007874015748},{"duration":0.2857139999999987,"midi":60,"time":100.57132800000001,"velocity":0.3937007874015748},{"duration":0.2857139999999987,"midi":46,"time":100.857042,"velocity":0.3937007874015748},{"duration":0.2857139999999987,"midi":58,"time":100.857042,"velocity":0.3937007874015748},{"duration":0.2857139999999987,"midi":57,"time":101.142756,"velocity":0.3937007874015748},{"duration":0.2857139999999987,"midi":45,"time":101.142756,"velocity":0.3937007874015748},{"duration":0.14285700000000645,"midi":45,"time":101.42847,"velocity":0.3937007874015748},{"duration":0.14285700000000645,"midi":57,"time":101.42847,"velocity":0.3937007874015748},{"duration":0.2857139999999987,"midi":57,"time":101.57132700000001,"velocity":0.3937007874015748},{"duration":0.2857139999999987,"midi":45,"time":101.57132700000001,"velocity":0.3937007874015748},{"duration":0.14285699999999224,"midi":45,"time":101.85704100000001,"velocity":0.3937007874015748},{"duration":0.14285699999999224,"midi":57,"time":101.85704100000001,"velocity":0.3937007874015748},{"duration":0.2857139999999987,"midi":45,"time":101.999898,"velocity":0.3937007874015748},{"duration":0.2857139999999987,"midi":57,"time":101.999898,"velocity":0.3937007874015748},{"duration":0.14285700000000645,"midi":45,"time":102.285612,"velocity":0.3937007874015748},{"duration":0.14285700000000645,"midi":57,"time":102.285612,"velocity":0.3937007874015748},{"duration":0.2857139999999987,"midi":45,"time":102.428469,"velocity":0.3937007874015748},{"duration":0.2857139999999987,"midi":57,"time":102.428469,"velocity":0.3937007874015748},{"duration":0.14285700000000645,"midi":45,"time":102.714183,"velocity":0.3937007874015748},{"duration":0.14285700000000645,"midi":57,"time":102.714183,"velocity":0.3937007874015748},{"duration":0.2857139999999987,"midi":55,"time":102.85704000000001,"velocity":0.3937007874015748},{"duration":0.2857139999999987,"midi":43,"time":102.85704000000001,"velocity":0.3937007874015748},{"duration":0.14285699999999224,"midi":55,"time":103.14275400000001,"velocity":0.3937007874015748},{"duration":0.14285699999999224,"midi":43,"time":103.14275400000001,"velocity":0.3937007874015748},{"duration":0.2857139999999987,"midi":43,"time":103.285611,"velocity":0.3937007874015748},{"duration":0.2857139999999987,"midi":55,"time":103.285611,"velocity":0.3937007874015748},{"duration":0.14285700000000645,"midi":43,"time":103.571325,"velocity":0.3937007874015748},{"duration":0.14285700000000645,"midi":55,"time":103.571325,"velocity":0.3937007874015748},{"duration":0.2857139999999987,"midi":43,"time":103.71418200000001,"velocity":0.3937007874015748},{"duration":0.2857139999999987,"midi":55,"time":103.71418200000001,"velocity":0.3937007874015748},{"duration":0.14285700000000645,"midi":55,"time":103.999896,"velocity":0.3937007874015748},{"duration":0.14285700000000645,"midi":43,"time":103.999896,"velocity":0.3937007874015748},{"duration":0.2857139999999845,"midi":55,"time":104.14275300000001,"velocity":0.3937007874015748},{"duration":0.2857139999999845,"midi":43,"time":104.14275300000001,"velocity":0.3937007874015748},{"duration":0.14285700000000645,"midi":55,"time":104.428467,"velocity":0.3937007874015748},{"duration":0.14285700000000645,"midi":43,"time":104.428467,"velocity":0.3937007874015748},{"duration":0.2857139999999987,"midi":45,"time":104.571324,"velocity":0.3937007874015748},{"duration":0.2857139999999987,"midi":57,"time":104.571324,"velocity":0.3937007874015748},{"duration":0.14285700000000645,"midi":45,"time":104.857038,"velocity":0.3937007874015748},{"duration":0.14285700000000645,"midi":57,"time":104.857038,"velocity":0.3937007874015748},{"duration":0.2857139999999987,"midi":57,"time":104.99989500000001,"velocity":0.3937007874015748},{"duration":0.2857139999999987,"midi":45,"time":104.99989500000001,"velocity":0.3937007874015748},{"duration":0.14285700000000645,"midi":45,"time":105.28560900000001,"velocity":0.3937007874015748},{"duration":0.14285700000000645,"midi":57,"time":105.28560900000001,"velocity":0.3937007874015748},{"duration":0.2857139999999845,"midi":57,"time":105.42846600000001,"velocity":0.3937007874015748},{"duration":0.2857139999999845,"midi":45,"time":105.42846600000001,"velocity":0.3937007874015748},{"duration":0.14285700000000645,"midi":45,"time":105.71418,"velocity":0.3937007874015748},{"duration":0.14285700000000645,"midi":57,"time":105.71418,"velocity":0.3937007874015748},{"duration":0.2857139999999987,"midi":57,"time":105.857037,"velocity":0.3937007874015748},{"duration":0.2857139999999987,"midi":45,"time":105.857037,"velocity":0.3937007874015748},{"duration":0.14285700000000645,"midi":45,"time":106.142751,"velocity":0.3937007874015748},{"duration":0.14285700000000645,"midi":57,"time":106.142751,"velocity":0.3937007874015748},{"duration":0.2857139999999987,"midi":62,"time":106.28560800000001,"velocity":0.3937007874015748},{"duration":0.2857139999999987,"midi":50,"time":106.28560800000001,"velocity":0.3937007874015748},{"duration":0.14285700000000645,"midi":50,"time":106.57132200000001,"velocity":0.3937007874015748},{"duration":0.14285700000000645,"midi":62,"time":106.57132200000001,"velocity":0.3937007874015748},{"duration":0.2857139999999845,"midi":62,"time":106.71417900000002,"velocity":0.3937007874015748},{"duration":0.2857139999999845,"midi":50,"time":106.71417900000002,"velocity":0.3937007874015748},{"duration":0.14285700000000645,"midi":50,"time":106.999893,"velocity":0.3937007874015748},{"duration":0.14285700000000645,"midi":62,"time":106.999893,"velocity":0.3937007874015748},{"duration":0.2857139999999987,"midi":62,"time":107.14275,"velocity":0.3937007874015748},{"duration":0.2857139999999987,"midi":50,"time":107.14275,"velocity":0.3937007874015748},{"duration":0.14285700000000645,"midi":50,"time":107.428464,"velocity":0.3937007874015748},{"duration":0.14285700000000645,"midi":62,"time":107.428464,"velocity":0.3937007874015748},{"duration":0.2857139999999987,"midi":62,"time":107.57132100000001,"velocity":0.3937007874015748},{"duration":0.2857139999999987,"midi":50,"time":107.57132100000001,"velocity":0.3937007874015748},{"duration":0.14285699999999224,"midi":50,"time":107.85703500000001,"velocity":0.3937007874015748},{"duration":0.14285699999999224,"midi":62,"time":107.85703500000001,"velocity":0.3937007874015748},{"duration":0.2857139999999987,"midi":60,"time":107.999892,"velocity":0.3937007874015748},{"duration":0.2857139999999987,"midi":48,"time":107.999892,"velocity":0.3937007874015748},{"duration":0.14285700000000645,"midi":60,"time":108.285606,"velocity":0.3937007874015748},{"duration":0.14285700000000645,"midi":48,"time":108.285606,"velocity":0.3937007874015748},{"duration":0.2857139999999987,"midi":48,"time":108.42846300000001,"velocity":0.3937007874015748},{"duration":0.2857139999999987,"midi":60,"time":108.42846300000001,"velocity":0.3937007874015748},{"duration":0.14285700000000645,"midi":48,"time":108.714177,"velocity":0.3937007874015748},{"duration":0.14285700000000645,"midi":60,"time":108.714177,"velocity":0.3937007874015748},{"duration":0.2857139999999987,"midi":65,"time":108.85703400000001,"velocity":0.3937007874015748},{"duration":0.2857139999999987,"midi":53,"time":108.85703400000001,"velocity":0.3937007874015748},{"duration":0.14285699999999224,"midi":65,"time":109.14274800000001,"velocity":0.3937007874015748},{"duration":0.14285699999999224,"midi":53,"time":109.14274800000001,"velocity":0.3937007874015748},{"duration":0.2857139999999987,"midi":65,"time":109.285605,"velocity":0.3937007874015748},{"duration":0.2857139999999987,"midi":53,"time":109.285605,"velocity":0.3937007874015748},{"duration":0.14285700000000645,"midi":53,"time":109.571319,"velocity":0.3937007874015748},{"duration":0.14285700000000645,"midi":65,"time":109.571319,"velocity":0.3937007874015748},{"duration":0.2857140000000129,"midi":62,"time":109.71417600000001,"velocity":0.3937007874015748},{"duration":0.2857140000000129,"midi":50,"time":109.71417600000001,"velocity":0.3937007874015748},{"duration":0.14285699999999224,"midi":62,"time":109.99989000000002,"velocity":0.3937007874015748},{"duration":0.14285699999999224,"midi":50,"time":109.99989000000002,"velocity":0.3937007874015748},{"duration":0.2857139999999987,"midi":62,"time":110.14274700000001,"velocity":0.3937007874015748},{"duration":0.2857139999999987,"midi":50,"time":110.14274700000001,"velocity":0.3937007874015748},{"duration":0.14285699999999224,"midi":62,"time":110.42846100000001,"velocity":0.3937007874015748},{"duration":0.14285699999999224,"midi":50,"time":110.42846100000001,"velocity":0.3937007874015748},{"duration":0.2857140000000129,"midi":62,"time":110.571318,"velocity":0.3937007874015748},{"duration":0.2857140000000129,"midi":50,"time":110.571318,"velocity":0.3937007874015748},{"duration":0.14285699999999224,"midi":62,"time":110.85703200000002,"velocity":0.3937007874015748},{"duration":0.14285699999999224,"midi":50,"time":110.85703200000002,"velocity":0.3937007874015748},{"duration":0.2857140000000129,"midi":50,"time":110.99988900000001,"velocity":0.3937007874015748},{"duration":0.2857140000000129,"midi":62,"time":110.99988900000001,"velocity":0.3937007874015748},{"duration":0.14285699999999224,"midi":50,"time":111.28560300000002,"velocity":0.3937007874015748},{"duration":0.14285699999999224,"midi":62,"time":111.28560300000002,"velocity":0.3937007874015748},{"duration":0.2857139999999987,"midi":45,"time":111.42846000000002,"velocity":0.3937007874015748},{"duration":0.2857139999999987,"midi":57,"time":111.42846000000002,"velocity":0.3937007874015748},{"duration":0.14285699999999224,"midi":57,"time":111.71417400000001,"velocity":0.3937007874015748},{"duration":0.14285699999999224,"midi":45,"time":111.71417400000001,"velocity":0.3937007874015748},{"duration":0.2857140000000129,"midi":45,"time":111.857031,"velocity":0.3937007874015748},{"duration":0.2857140000000129,"midi":57,"time":111.857031,"velocity":0.3937007874015748},{"duration":0.14285699999999224,"midi":57,"time":112.14274500000002,"velocity":0.3937007874015748},{"duration":0.14285699999999224,"midi":45,"time":112.14274500000002,"velocity":0.3937007874015748},{"duration":0.2857140000000129,"midi":62,"time":112.28560200000001,"velocity":0.3937007874015748},{"duration":0.2857140000000129,"midi":50,"time":112.28560200000001,"velocity":0.3937007874015748},{"duration":0.14285699999997803,"midi":50,"time":112.57131600000002,"velocity":0.3937007874015748},{"duration":0.14285699999997803,"midi":62,"time":112.57131600000002,"velocity":0.3937007874015748},{"duration":0.2857140000000129,"midi":50,"time":112.714173,"velocity":0.3937007874015748},{"duration":0.2857140000000129,"midi":62,"time":112.714173,"velocity":0.3937007874015748},{"duration":0.14285699999999224,"midi":62,"time":112.99988700000002,"velocity":0.3937007874015748},{"duration":0.14285699999999224,"midi":50,"time":112.99988700000002,"velocity":0.3937007874015748},{"duration":0.2857140000000129,"midi":50,"time":113.14274400000001,"velocity":0.3937007874015748},{"duration":0.2857140000000129,"midi":62,"time":113.14274400000001,"velocity":0.3937007874015748},{"duration":0.14285699999999224,"midi":62,"time":113.42845800000002,"velocity":0.3937007874015748},{"duration":0.14285699999999224,"midi":50,"time":113.42845800000002,"velocity":0.3937007874015748},{"duration":0.2857139999999987,"midi":62,"time":113.57131500000001,"velocity":0.3937007874015748},{"duration":0.2857139999999987,"midi":50,"time":113.57131500000001,"velocity":0.3937007874015748},{"duration":0.14285699999999224,"midi":50,"time":113.85702900000001,"velocity":0.3937007874015748},{"duration":0.14285699999999224,"midi":62,"time":113.85702900000001,"velocity":0.3937007874015748},{"duration":0.2857140000000129,"midi":48,"time":113.999886,"velocity":0.3937007874015748},{"duration":0.2857140000000129,"midi":60,"time":113.999886,"velocity":0.3937007874015748},{"duration":0.14285699999999224,"midi":60,"time":114.28560000000002,"velocity":0.3937007874015748},{"duration":0.14285699999999224,"midi":48,"time":114.28560000000002,"velocity":0.3937007874015748},{"duration":0.2857140000000129,"midi":48,"time":114.42845700000001,"velocity":0.3937007874015748},{"duration":0.2857140000000129,"midi":60,"time":114.42845700000001,"velocity":0.3937007874015748},{"duration":0.14285699999999224,"midi":60,"time":114.71417100000002,"velocity":0.3937007874015748},{"duration":0.14285699999999224,"midi":48,"time":114.71417100000002,"velocity":0.3937007874015748},{"duration":0.2857139999999987,"midi":65,"time":114.85702800000001,"velocity":0.3937007874015748},{"duration":0.2857139999999987,"midi":53,"time":114.85702800000001,"velocity":0.3937007874015748},{"duration":0.14285699999999224,"midi":65,"time":115.14274200000001,"velocity":0.3937007874015748},{"duration":0.14285699999999224,"midi":53,"time":115.14274200000001,"velocity":0.3937007874015748},{"duration":0.2857140000000129,"midi":53,"time":115.285599,"velocity":0.3937007874015748},{"duration":0.2857140000000129,"midi":65,"time":115.285599,"velocity":0.3937007874015748},{"duration":0.14285699999999224,"midi":65,"time":115.57131300000002,"velocity":0.3937007874015748},{"duration":0.14285699999999224,"midi":53,"time":115.57131300000002,"velocity":0.3937007874015748},{"duration":0.2857140000000129,"midi":60,"time":115.71417000000001,"velocity":0.3937007874015748},{"duration":0.2857140000000129,"midi":48,"time":115.71417000000001,"velocity":0.3937007874015748},{"duration":0.14285699999999224,"midi":48,"time":115.99988400000002,"velocity":0.3937007874015748},{"duration":0.14285699999999224,"midi":60,"time":115.99988400000002,"velocity":0.3937007874015748},{"duration":0.2857139999999987,"midi":60,"time":116.14274100000002,"velocity":0.3937007874015748},{"duration":0.2857139999999987,"midi":48,"time":116.14274100000002,"velocity":0.3937007874015748},{"duration":0.14285699999999224,"midi":60,"time":116.42845500000001,"velocity":0.3937007874015748},{"duration":0.14285699999999224,"midi":48,"time":116.42845500000001,"velocity":0.3937007874015748},{"duration":0.2857140000000129,"midi":50,"time":116.571312,"velocity":0.3937007874015748},{"duration":0.2857140000000129,"midi":62,"time":116.571312,"velocity":0.3937007874015748},{"duration":0.14285699999999224,"midi":62,"time":116.85702600000002,"velocity":0.3937007874015748},{"duration":0.14285699999999224,"midi":50,"time":116.85702600000002,"velocity":0.3937007874015748},{"duration":0.2857140000000129,"midi":50,"time":116.99988300000001,"velocity":0.3937007874015748},{"duration":0.2857140000000129,"midi":62,"time":116.99988300000001,"velocity":0.3937007874015748},{"duration":0.14285699999999224,"midi":50,"time":117.28559700000002,"velocity":0.3937007874015748},{"duration":0.14285699999999224,"midi":62,"time":117.28559700000002,"velocity":0.3937007874015748},{"duration":0.2857139999999987,"midi":57,"time":117.42845400000002,"velocity":0.3937007874015748},{"duration":0.2857139999999987,"midi":45,"time":117.42845400000002,"velocity":0.3937007874015748},{"duration":0.14285699999999224,"midi":45,"time":117.71416800000002,"velocity":0.3937007874015748},{"duration":0.14285699999999224,"midi":57,"time":117.71416800000002,"velocity":0.3937007874015748},{"duration":0.2857140000000129,"midi":57,"time":117.85702500000001,"velocity":0.3937007874015748},{"duration":0.2857140000000129,"midi":45,"time":117.85702500000001,"velocity":0.3937007874015748},{"duration":0.14285699999999224,"midi":45,"time":118.14273900000002,"velocity":0.3937007874015748},{"duration":0.14285699999999224,"midi":57,"time":118.14273900000002,"velocity":0.3937007874015748},{"duration":0.2857139999999987,"midi":62,"time":118.28559600000001,"velocity":0.3937007874015748},{"duration":0.2857139999999987,"midi":50,"time":118.28559600000001,"velocity":0.3937007874015748},{"duration":0.14285699999999224,"midi":62,"time":118.57131000000001,"velocity":0.3937007874015748},{"duration":0.14285699999999224,"midi":50,"time":118.57131000000001,"velocity":0.3937007874015748},{"duration":0.2857140000000129,"midi":50,"time":118.714167,"velocity":0.3937007874015748},{"duration":0.2857140000000129,"midi":62,"time":118.714167,"velocity":0.3937007874015748},{"duration":0.14285699999999224,"midi":50,"time":118.99988100000002,"velocity":0.3937007874015748},{"duration":0.14285699999999224,"midi":62,"time":118.99988100000002,"velocity":0.3937007874015748},{"duration":0.2857140000000129,"midi":62,"time":119.14273800000001,"velocity":0.3937007874015748},{"duration":0.2857140000000129,"midi":50,"time":119.14273800000001,"velocity":0.3937007874015748},{"duration":0.14285699999999224,"midi":50,"time":119.42845200000002,"velocity":0.3937007874015748},{"duration":0.14285699999999224,"midi":62,"time":119.42845200000002,"velocity":0.3937007874015748},{"duration":0.2857139999999987,"midi":50,"time":119.57130900000001,"velocity":0.3937007874015748},{"duration":0.2857139999999987,"midi":62,"time":119.57130900000001,"velocity":0.3937007874015748},{"duration":0.14285699999999224,"midi":62,"time":119.85702300000001,"velocity":0.3937007874015748},{"duration":0.14285699999999224,"midi":50,"time":119.85702300000001,"velocity":0.3937007874015748},{"duration":0.2857140000000129,"midi":50,"time":119.99988,"velocity":0.3937007874015748},{"duration":0.2857140000000129,"midi":62,"time":119.99988,"velocity":0.3937007874015748},{"duration":0.14285699999999224,"midi":50,"time":120.28559400000002,"velocity":0.3937007874015748},{"duration":0.14285699999999224,"midi":62,"time":120.28559400000002,"velocity":0.3937007874015748},{"duration":0.2857140000000129,"midi":62,"time":120.42845100000001,"velocity":0.3937007874015748},{"duration":0.2857140000000129,"midi":50,"time":120.42845100000001,"velocity":0.3937007874015748},{"duration":0.14285699999999224,"midi":62,"time":120.71416500000002,"velocity":0.3937007874015748},{"duration":0.14285699999999224,"midi":50,"time":120.71416500000002,"velocity":0.3937007874015748},{"duration":0.2857139999999987,"midi":48,"time":120.85702200000001,"velocity":0.3937007874015748},{"duration":0.2857139999999987,"midi":60,"time":120.85702200000001,"velocity":0.3937007874015748},{"duration":0.14285699999999224,"midi":60,"time":121.14273600000001,"velocity":0.3937007874015748},{"duration":0.14285699999999224,"midi":48,"time":121.14273600000001,"velocity":0.3937007874015748},{"duration":0.2857140000000129,"midi":60,"time":121.285593,"velocity":0.3937007874015748},{"duration":0.2857140000000129,"midi":48,"time":121.285593,"velocity":0.3937007874015748},{"duration":0.14285699999999224,"midi":48,"time":121.57130700000002,"velocity":0.3937007874015748},{"duration":0.14285699999999224,"midi":60,"time":121.57130700000002,"velocity":0.3937007874015748},{"duration":0.2857140000000129,"midi":53,"time":121.71416400000001,"velocity":0.3937007874015748},{"duration":0.2857140000000129,"midi":65,"time":121.71416400000001,"velocity":0.3937007874015748},{"duration":0.14285699999999224,"midi":53,"time":121.99987800000002,"velocity":0.3937007874015748},{"duration":0.14285699999999224,"midi":65,"time":121.99987800000002,"velocity":0.3937007874015748},{"duration":0.2857139999999987,"midi":65,"time":122.14273500000002,"velocity":0.3937007874015748},{"duration":0.2857139999999987,"midi":53,"time":122.14273500000002,"velocity":0.3937007874015748},{"duration":0.14285699999999224,"midi":65,"time":122.42844900000001,"velocity":0.3937007874015748},{"duration":0.14285699999999224,"midi":53,"time":122.42844900000001,"velocity":0.3937007874015748},{"duration":0.2857140000000129,"midi":46,"time":122.571306,"velocity":0.3937007874015748},{"duration":0.2857140000000129,"midi":58,"time":122.571306,"velocity":0.3937007874015748},{"duration":0.14285699999999224,"midi":58,"time":122.85702000000002,"velocity":0.3937007874015748},{"duration":0.14285699999999224,"midi":46,"time":122.85702000000002,"velocity":0.3937007874015748},{"duration":0.2857140000000129,"midi":46,"time":122.99987700000001,"velocity":0.3937007874015748},{"duration":0.2857140000000129,"midi":58,"time":122.99987700000001,"velocity":0.3937007874015748},{"duration":0.14285699999997803,"midi":58,"time":123.28559100000003,"velocity":0.3937007874015748},{"duration":0.14285699999997803,"midi":46,"time":123.28559100000003,"velocity":0.3937007874015748},{"duration":0.2857140000000129,"midi":50,"time":123.428448,"velocity":0.3937007874015748},{"duration":0.2857140000000129,"midi":62,"time":123.428448,"velocity":0.3937007874015748},{"duration":0.14285699999999224,"midi":62,"time":123.71416200000002,"velocity":0.3937007874015748},{"duration":0.14285699999999224,"midi":50,"time":123.71416200000002,"velocity":0.3937007874015748},{"duration":0.2857140000000129,"midi":62,"time":123.85701900000001,"velocity":0.3937007874015748},{"duration":0.2857140000000129,"midi":50,"time":123.85701900000001,"velocity":0.3937007874015748},{"duration":0.14285699999999224,"midi":50,"time":124.14273300000002,"velocity":0.3937007874015748},{"duration":0.14285699999999224,"midi":62,"time":124.14273300000002,"velocity":0.3937007874015748},{"duration":0.2857139999999987,"midi":58,"time":124.28559000000001,"velocity":0.3937007874015748},{"duration":0.2857139999999987,"midi":46,"time":124.28559000000001,"velocity":0.3937007874015748},{"duration":0.14285699999999224,"midi":46,"time":124.57130400000001,"velocity":0.3937007874015748},{"duration":0.14285699999999224,"midi":58,"time":124.57130400000001,"velocity":0.3937007874015748},{"duration":0.2857140000000129,"midi":58,"time":124.714161,"velocity":0.3937007874015748},{"duration":0.2857140000000129,"midi":46,"time":124.714161,"velocity":0.3937007874015748},{"duration":0.14285699999999224,"midi":46,"time":124.99987500000002,"velocity":0.3937007874015748},{"duration":0.14285699999999224,"midi":58,"time":124.99987500000002,"velocity":0.3937007874015748},{"duration":0.2857140000000129,"midi":45,"time":125.14273200000001,"velocity":0.3937007874015748},{"duration":0.2857140000000129,"midi":57,"time":125.14273200000001,"velocity":0.3937007874015748},{"duration":0.14285699999999224,"midi":57,"time":125.42844600000002,"velocity":0.3937007874015748},{"duration":0.14285699999999224,"midi":45,"time":125.42844600000002,"velocity":0.3937007874015748},{"duration":0.2857139999999987,"midi":57,"time":125.57130300000001,"velocity":0.3937007874015748},{"duration":0.2857139999999987,"midi":45,"time":125.57130300000001,"velocity":0.3937007874015748},{"duration":0.14285699999999224,"midi":45,"time":125.85701700000001,"velocity":0.3937007874015748},{"duration":0.14285699999999224,"midi":57,"time":125.85701700000001,"velocity":0.3937007874015748},{"duration":0.2857140000000129,"midi":45,"time":125.999874,"velocity":0.3937007874015748},{"duration":0.2857140000000129,"midi":57,"time":125.999874,"velocity":0.3937007874015748},{"duration":0.14285699999999224,"midi":57,"time":126.28558800000002,"velocity":0.3937007874015748},{"duration":0.14285699999999224,"midi":45,"time":126.28558800000002,"velocity":0.3937007874015748},{"duration":0.2857140000000129,"midi":57,"time":126.42844500000001,"velocity":0.3937007874015748},{"duration":0.2857140000000129,"midi":45,"time":126.42844500000001,"velocity":0.3937007874015748},{"duration":0.14285699999999224,"midi":57,"time":126.71415900000002,"velocity":0.3937007874015748},{"duration":0.14285699999999224,"midi":45,"time":126.71415900000002,"velocity":0.3937007874015748},{"duration":0.2857139999999987,"midi":62,"time":126.85701600000002,"velocity":0.3937007874015748},{"duration":0.2857139999999987,"midi":50,"time":126.85701600000002,"velocity":0.3937007874015748},{"duration":0.2857139999999987,"midi":74,"time":126.85701600000002,"velocity":0.3937007874015748},{"duration":0.14285699999999224,"midi":50,"time":127.14273000000001,"velocity":0.3937007874015748},{"duration":0.14285699999999224,"midi":62,"time":127.14273000000001,"velocity":0.3937007874015748},{"duration":0.14285699999999224,"midi":74,"time":127.14273000000001,"velocity":0.3937007874015748},{"duration":0.2857140000000129,"midi":64,"time":127.285587,"velocity":0.3937007874015748},{"duration":0.2857140000000129,"midi":52,"time":127.285587,"velocity":0.3937007874015748},{"duration":0.2857140000000129,"midi":76,"time":127.285587,"velocity":0.3937007874015748},{"duration":0.14285699999999224,"midi":76,"time":127.57130100000002,"velocity":0.3937007874015748},{"duration":0.14285699999999224,"midi":64,"time":127.57130100000002,"velocity":0.3937007874015748},{"duration":0.14285699999999224,"midi":52,"time":127.57130100000002,"velocity":0.3937007874015748},{"duration":0.2857140000000129,"midi":65,"time":127.71415800000001,"velocity":0.3937007874015748},{"duration":0.2857140000000129,"midi":77,"time":127.71415800000001,"velocity":0.3937007874015748},{"duration":0.2857140000000129,"midi":53,"time":127.71415800000001,"velocity":0.3937007874015748},{"duration":0.14285699999997803,"midi":77,"time":127.99987200000002,"velocity":0.3937007874015748},{"duration":0.14285699999997803,"midi":53,"time":127.99987200000002,"velocity":0.3937007874015748},{"duration":0.14285699999997803,"midi":65,"time":127.99987200000002,"velocity":0.3937007874015748},{"duration":0.2857140000000129,"midi":67,"time":128.142729,"velocity":0.3937007874015748},{"duration":0.2857140000000129,"midi":79,"time":128.142729,"velocity":0.3937007874015748},{"duration":0.2857140000000129,"midi":55,"time":128.142729,"velocity":0.3937007874015748},{"duration":0.14285699999999224,"midi":79,"time":128.42844300000002,"velocity":0.3937007874015748},{"duration":0.14285699999999224,"midi":55,"time":128.42844300000002,"velocity":0.3937007874015748},{"duration":0.14285699999999224,"midi":67,"time":128.42844300000002,"velocity":0.3937007874015748},{"duration":0.2857140000000129,"midi":57,"time":128.5713,"velocity":0.3937007874015748},{"duration":0.2857140000000129,"midi":65,"time":128.5713,"velocity":0.3937007874015748},{"duration":0.2857140000000129,"midi":69,"time":128.5713,"velocity":0.3937007874015748},{"duration":0.2857140000000129,"midi":81,"time":128.5713,"velocity":0.3937007874015748},{"duration":0.2857140000000129,"midi":62,"time":128.5713,"velocity":0.3937007874015748},{"duration":0.5714279999999974,"midi":81,"time":128.85701400000002,"velocity":0.3937007874015748},{"duration":0.5714279999999974,"midi":62,"time":128.85701400000002,"velocity":0.3937007874015748},{"duration":0.5714279999999974,"midi":57,"time":128.85701400000002,"velocity":0.3937007874015748},{"duration":0.5714279999999974,"midi":69,"time":128.85701400000002,"velocity":0.3937007874015748},{"duration":0.5714279999999974,"midi":65,"time":128.85701400000002,"velocity":0.3937007874015748},{"duration":0.5714279999999974,"midi":57,"time":129.42844200000002,"velocity":0.3937007874015748},{"duration":0.5714279999999974,"midi":69,"time":129.42844200000002,"velocity":0.3937007874015748},{"duration":0.5714279999999974,"midi":81,"time":129.42844200000002,"velocity":0.3937007874015748},{"duration":0.5714279999999974,"midi":62,"time":129.42844200000002,"velocity":0.3937007874015748},{"duration":0.5714279999999974,"midi":65,"time":129.42844200000002,"velocity":0.3937007874015748},{"duration":0.2857139999999845,"midi":57,"time":129.99987000000002,"velocity":0.3937007874015748},{"duration":0.2857139999999845,"midi":81,"time":129.99987000000002,"velocity":0.3937007874015748},{"duration":0.2857139999999845,"midi":69,"time":129.99987000000002,"velocity":0.3937007874015748},{"duration":0.2857140000000129,"midi":64,"time":130.285584,"velocity":0.3937007874015748},{"duration":0.2857140000000129,"midi":69,"time":130.285584,"velocity":0.3937007874015748},{"duration":0.2857140000000129,"midi":57,"time":130.285584,"velocity":0.3937007874015748},{"duration":0.2857140000000129,"midi":81,"time":130.285584,"velocity":0.3937007874015748},{"duration":0.2857140000000129,"midi":61,"time":130.285584,"velocity":0.3937007874015748},{"duration":0.5714279999999974,"midi":61,"time":130.571298,"velocity":0.3937007874015748},{"duration":0.5714279999999974,"midi":57,"time":130.571298,"velocity":0.3937007874015748},{"duration":0.5714279999999974,"midi":81,"time":130.571298,"velocity":0.3937007874015748},{"duration":0.5714279999999974,"midi":69,"time":130.571298,"velocity":0.3937007874015748},{"duration":0.5714279999999974,"midi":64,"time":130.571298,"velocity":0.3937007874015748},{"duration":0.5714279999999974,"midi":69,"time":131.142726,"velocity":0.3937007874015748},{"duration":0.5714279999999974,"midi":57,"time":131.142726,"velocity":0.3937007874015748},{"duration":0.5714279999999974,"midi":64,"time":131.142726,"velocity":0.3937007874015748},{"duration":0.5714279999999974,"midi":61,"time":131.142726,"velocity":0.3937007874015748},{"duration":0.5714279999999974,"midi":81,"time":131.142726,"velocity":0.3937007874015748},{"duration":0.2857140000000129,"midi":84,"time":131.714154,"velocity":0.3937007874015748},{"duration":0.2857140000000129,"midi":72,"time":131.714154,"velocity":0.3937007874015748},{"duration":0.2857140000000129,"midi":60,"time":131.714154,"velocity":0.3937007874015748},{"duration":0.2857139999999845,"midi":50,"time":131.99986800000002,"velocity":0.3937007874015748},{"duration":0.2857139999999845,"midi":62,"time":131.99986800000002,"velocity":0.3937007874015748},{"duration":0.14285699999999224,"midi":62,"time":132.285582,"velocity":0.3937007874015748},{"duration":0.14285699999999224,"midi":50,"time":132.285582,"velocity":0.3937007874015748},{"duration":0.14285699999999224,"midi":50,"time":132.428439,"velocity":0.3937007874015748},{"duration":0.14285699999999224,"midi":62,"time":132.428439,"velocity":0.3937007874015748},{"duration":0.14285700000002066,"midi":62,"time":132.571296,"velocity":0.3937007874015748},{"duration":0.14285700000002066,"midi":50,"time":132.571296,"velocity":0.3937007874015748},{"duration":0.14285699999999224,"midi":62,"time":132.714153,"velocity":0.3937007874015748},{"duration":0.14285699999999224,"midi":50,"time":132.714153,"velocity":0.3937007874015748},{"duration":0.2857140000000129,"midi":43,"time":132.85701,"velocity":0.3937007874015748},{"duration":0.2857140000000129,"midi":55,"time":132.85701,"velocity":0.3937007874015748},{"duration":0.14285699999999224,"midi":55,"time":133.14272400000002,"velocity":0.3937007874015748},{"duration":0.14285699999999224,"midi":43,"time":133.14272400000002,"velocity":0.3937007874015748},{"duration":0.14285699999999224,"midi":43,"time":133.285581,"velocity":0.3937007874015748},{"duration":0.14285699999999224,"midi":55,"time":133.285581,"velocity":0.3937007874015748},{"duration":0.14285700000002066,"midi":43,"time":133.428438,"velocity":0.3937007874015748},{"duration":0.14285700000002066,"midi":55,"time":133.428438,"velocity":0.3937007874015748},{"duration":0.14285699999999224,"midi":55,"time":133.57129500000002,"velocity":0.3937007874015748},{"duration":0.14285699999999224,"midi":43,"time":133.57129500000002,"velocity":0.3937007874015748},{"duration":0.2857140000000129,"midi":65,"time":133.714152,"velocity":0.3937007874015748},{"duration":0.2857140000000129,"midi":53,"time":133.714152,"velocity":0.3937007874015748},{"duration":0.14285699999999224,"midi":65,"time":133.99986600000003,"velocity":0.3937007874015748},{"duration":0.14285699999999224,"midi":53,"time":133.99986600000003,"velocity":0.3937007874015748},{"duration":0.14285699999999224,"midi":53,"time":134.14272300000002,"velocity":0.3937007874015748},{"duration":0.14285699999999224,"midi":65,"time":134.14272300000002,"velocity":0.3937007874015748},{"duration":0.14285700000002066,"midi":65,"time":134.28558,"velocity":0.3937007874015748},{"duration":0.14285700000002066,"midi":53,"time":134.28558,"velocity":0.3937007874015748},{"duration":0.14285699999999224,"midi":65,"time":134.42843700000003,"velocity":0.3937007874015748},{"duration":0.14285699999999224,"midi":53,"time":134.42843700000003,"velocity":0.3937007874015748},{"duration":0.2857139999999845,"midi":60,"time":134.57129400000002,"velocity":0.3937007874015748},{"duration":0.2857139999999845,"midi":48,"time":134.57129400000002,"velocity":0.3937007874015748},{"duration":0.14285699999999224,"midi":48,"time":134.857008,"velocity":0.3937007874015748},{"duration":0.14285699999999224,"midi":60,"time":134.857008,"velocity":0.3937007874015748},{"duration":0.14285699999999224,"midi":48,"time":134.999865,"velocity":0.3937007874015748},{"duration":0.14285699999999224,"midi":60,"time":134.999865,"velocity":0.3937007874015748},{"duration":0.14285700000002066,"midi":48,"time":135.142722,"velocity":0.3937007874015748},{"duration":0.14285700000002066,"midi":60,"time":135.142722,"velocity":0.3937007874015748},{"duration":0.14285699999999224,"midi":48,"time":135.285579,"velocity":0.3937007874015748},{"duration":0.14285699999999224,"midi":60,"time":135.285579,"velocity":0.3937007874015748},{"duration":0.2857140000000129,"midi":55,"time":135.428436,"velocity":0.3937007874015748},{"duration":0.2857140000000129,"midi":43,"time":135.428436,"velocity":0.3937007874015748},{"duration":0.14285699999999224,"midi":43,"time":135.71415000000002,"velocity":0.3937007874015748},{"duration":0.14285699999999224,"midi":55,"time":135.71415000000002,"velocity":0.3937007874015748},{"duration":0.14285699999999224,"midi":55,"time":135.857007,"velocity":0.3937007874015748},{"duration":0.14285699999999224,"midi":43,"time":135.857007,"velocity":0.3937007874015748},{"duration":0.14285700000002066,"midi":43,"time":135.999864,"velocity":0.3937007874015748},{"duration":0.14285700000002066,"midi":55,"time":135.999864,"velocity":0.3937007874015748},{"duration":0.14285699999999224,"midi":43,"time":136.14272100000002,"velocity":0.3937007874015748},{"duration":0.14285699999999224,"midi":55,"time":136.14272100000002,"velocity":0.3937007874015748},{"duration":0.2857140000000129,"midi":57,"time":136.28557800000002,"velocity":0.3937007874015748},{"duration":0.2857140000000129,"midi":45,"time":136.28557800000002,"velocity":0.3937007874015748},{"duration":0.14285699999999224,"midi":57,"time":136.57129200000003,"velocity":0.3937007874015748},{"duration":0.14285699999999224,"midi":45,"time":136.57129200000003,"velocity":0.3937007874015748},{"duration":0.14285699999999224,"midi":45,"time":136.71414900000002,"velocity":0.3937007874015748},{"duration":0.2857140000000129,"midi":57,"time":136.71414900000002,"velocity":0.3937007874015748},{"duration":0.14285700000002066,"midi":45,"time":136.857006,"velocity":0.3937007874015748},{"duration":0.14285699999996382,"midi":57,"time":136.99986300000003,"velocity":0.3937007874015748},{"duration":0.14285699999996382,"midi":45,"time":136.99986300000003,"velocity":0.3937007874015748},{"duration":0.2857140000000129,"midi":57,"time":137.14272,"velocity":0.3937007874015748},{"duration":0.2857140000000129,"midi":45,"time":137.14272,"velocity":0.3937007874015748},{"duration":0.14285699999999224,"midi":57,"time":137.428434,"velocity":0.3937007874015748},{"duration":0.14285699999999224,"midi":45,"time":137.428434,"velocity":0.3937007874015748},{"duration":0.14285699999999224,"midi":45,"time":137.571291,"velocity":0.3937007874015748},{"duration":0.2857140000000129,"midi":57,"time":137.571291,"velocity":0.3937007874015748},{"duration":0.14285700000002066,"midi":45,"time":137.714148,"velocity":0.3937007874015748},{"duration":0.14285699999999224,"midi":45,"time":137.85700500000002,"velocity":0.3937007874015748},{"duration":0.14285699999999224,"midi":57,"time":137.85700500000002,"velocity":0.3937007874015748},{"duration":0.2857140000000129,"midi":50,"time":137.999862,"velocity":0.3937007874015748},{"duration":0.2857140000000129,"midi":62,"time":137.999862,"velocity":0.3937007874015748},{"duration":0.14285699999999224,"midi":62,"time":138.28557600000002,"velocity":0.3937007874015748},{"duration":0.14285699999999224,"midi":50,"time":138.28557600000002,"velocity":0.3937007874015748},{"duration":0.14285699999999224,"midi":50,"time":138.428433,"velocity":0.3937007874015748},{"duration":0.2857140000000129,"midi":62,"time":138.428433,"velocity":0.3937007874015748},{"duration":0.14285700000002066,"midi":50,"time":138.57129,"velocity":0.3937007874015748},{"duration":0.14285699999999224,"midi":62,"time":138.71414700000003,"velocity":0.3937007874015748},{"duration":0.14285699999999224,"midi":50,"time":138.71414700000003,"velocity":0.3937007874015748},{"duration":0.2857140000000129,"midi":62,"time":138.85700400000002,"velocity":0.3937007874015748},{"duration":0.2857140000000129,"midi":50,"time":138.85700400000002,"velocity":0.3937007874015748},{"duration":0.14285699999999224,"midi":62,"time":139.14271800000003,"velocity":0.3937007874015748},{"duration":0.14285699999999224,"midi":50,"time":139.14271800000003,"velocity":0.3937007874015748},{"duration":0.2857139999999845,"midi":62,"time":139.28557500000002,"velocity":0.3937007874015748},{"duration":0.14285699999999224,"midi":50,"time":139.28557500000002,"velocity":0.3937007874015748},{"duration":0.14285699999999224,"midi":50,"time":139.42843200000002,"velocity":0.3937007874015748},{"duration":0.14285699999999224,"midi":62,"time":139.571289,"velocity":0.3937007874015748},{"duration":0.14285699999999224,"midi":50,"time":139.571289,"velocity":0.3937007874015748},{"duration":0.2857140000000129,"midi":58,"time":139.714146,"velocity":0.3937007874015748},{"duration":0.2857140000000129,"midi":46,"time":139.714146,"velocity":0.3937007874015748},{"duration":0.14285699999999224,"midi":58,"time":139.99986,"velocity":0.3937007874015748},{"duration":0.14285699999999224,"midi":46,"time":139.99986,"velocity":0.3937007874015748},{"duration":0.14285699999999224,"midi":46,"time":140.142717,"velocity":0.3937007874015748},{"duration":0.2857140000000129,"midi":58,"time":140.142717,"velocity":0.3937007874015748},{"duration":0.14285700000002066,"midi":46,"time":140.285574,"velocity":0.3937007874015748},{"duration":0.14285699999999224,"midi":58,"time":140.42843100000002,"velocity":0.3937007874015748},{"duration":0.14285699999999224,"midi":46,"time":140.42843100000002,"velocity":0.3937007874015748},{"duration":0.2857140000000129,"midi":65,"time":140.571288,"velocity":0.3937007874015748},{"duration":0.2857140000000129,"midi":53,"time":140.571288,"velocity":0.3937007874015748},{"duration":0.14285699999999224,"midi":65,"time":140.85700200000002,"velocity":0.3937007874015748},{"duration":0.14285699999999224,"midi":53,"time":140.85700200000002,"velocity":0.3937007874015748},{"duration":0.14285699999999224,"midi":53,"time":140.99985900000001,"velocity":0.3937007874015748},{"duration":0.2857140000000129,"midi":65,"time":140.99985900000001,"velocity":0.3937007874015748},{"duration":0.14285700000002066,"midi":53,"time":141.142716,"velocity":0.3937007874015748},{"duration":0.14285699999999224,"midi":65,"time":141.28557300000003,"velocity":0.3937007874015748},{"duration":0.14285699999999224,"midi":53,"time":141.28557300000003,"velocity":0.3937007874015748},{"duration":0.2857140000000129,"midi":48,"time":141.42843000000002,"velocity":0.3937007874015748},{"duration":0.2857140000000129,"midi":60,"time":141.42843000000002,"velocity":0.3937007874015748},{"duration":0.14285699999999224,"midi":60,"time":141.71414400000003,"velocity":0.3937007874015748},{"duration":0.14285699999999224,"midi":48,"time":141.71414400000003,"velocity":0.3937007874015748},{"duration":0.2857139999999845,"midi":60,"time":141.85700100000003,"velocity":0.3937007874015748},{"duration":0.14285699999999224,"midi":48,"time":141.85700100000003,"velocity":0.3937007874015748},{"duration":0.14285699999999224,"midi":48,"time":141.99985800000002,"velocity":0.3937007874015748},{"duration":0.14285699999999224,"midi":60,"time":142.142715,"velocity":0.3937007874015748},{"duration":0.14285699999999224,"midi":48,"time":142.142715,"velocity":0.3937007874015748},{"duration":0.2857140000000129,"midi":43,"time":142.285572,"velocity":0.3937007874015748},{"duration":0.2857140000000129,"midi":55,"time":142.285572,"velocity":0.3937007874015748},{"duration":0.14285699999999224,"midi":43,"time":142.57128600000001,"velocity":0.3937007874015748},{"duration":0.14285699999999224,"midi":55,"time":142.57128600000001,"velocity":0.3937007874015748},{"duration":0.14285699999999224,"midi":43,"time":142.714143,"velocity":0.3937007874015748},{"duration":0.2857140000000129,"midi":55,"time":142.714143,"velocity":0.3937007874015748},{"duration":0.14285700000002066,"midi":43,"time":142.857,"velocity":0.3937007874015748},{"duration":0.14285699999999224,"midi":43,"time":142.99985700000002,"velocity":0.3937007874015748},{"duration":0.14285699999999224,"midi":55,"time":142.99985700000002,"velocity":0.3937007874015748},{"duration":0.2857140000000129,"midi":45,"time":143.142714,"velocity":0.3937007874015748},{"duration":0.2857140000000129,"midi":57,"time":143.142714,"velocity":0.3937007874015748},{"duration":0.14285699999999224,"midi":45,"time":143.42842800000003,"velocity":0.3937007874015748},{"duration":0.14285699999999224,"midi":57,"time":143.42842800000003,"velocity":0.3937007874015748},{"duration":0.2857140000000129,"midi":57,"time":143.57128500000002,"velocity":0.3937007874015748},{"duration":0.14285699999999224,"midi":45,"time":143.57128500000002,"velocity":0.3937007874015748},{"duration":0.14285700000002066,"midi":45,"time":143.714142,"velocity":0.3937007874015748},{"duration":0.14285699999999224,"midi":45,"time":143.85699900000003,"velocity":0.3937007874015748},{"duration":0.14285699999999224,"midi":57,"time":143.85699900000003,"velocity":0.3937007874015748},{"duration":0.2857139999999845,"midi":45,"time":143.99985600000002,"velocity":0.3937007874015748},{"duration":0.2857139999999845,"midi":57,"time":143.99985600000002,"velocity":0.3937007874015748},{"duration":0.14285699999999224,"midi":57,"time":144.28557,"velocity":0.3937007874015748},{"duration":0.14285699999999224,"midi":45,"time":144.28557,"velocity":0.3937007874015748},{"duration":0.14285699999999224,"midi":45,"time":144.428427,"velocity":0.3937007874015748},{"duration":0.2857140000000129,"midi":57,"time":144.428427,"velocity":0.3937007874015748},{"duration":0.14285700000002066,"midi":45,"time":144.571284,"velocity":0.3937007874015748},{"duration":0.14285699999999224,"midi":57,"time":144.714141,"velocity":0.3937007874015748},{"duration":0.14285699999999224,"midi":45,"time":144.714141,"velocity":0.3937007874015748},{"duration":0.42857100000000514,"midi":50,"time":144.856998,"velocity":0.3937007874015748},{"duration":0.42857100000000514,"midi":62,"time":144.856998,"velocity":0.3937007874015748},{"duration":0.42857100000000514,"midi":62,"time":145.285569,"velocity":0.3937007874015748},{"duration":0.42857100000000514,"midi":50,"time":145.285569,"velocity":0.3937007874015748},{"duration":1.7142839999999921,"midi":62,"time":145.71414000000001,"velocity":0.3937007874015748},{"duration":1.7142839999999921,"midi":50,"time":145.71414000000001,"velocity":0.3937007874015748}]},{"instrument":{"family":"brass","number":57,"name":"trombone"},"notes":[{"duration":0.142857,"midi":50,"time":0,"velocity":0.3937007874015748},{"duration":0.142857,"midi":50,"time":0.285714,"velocity":0.3937007874015748},{"duration":0.142857,"midi":50,"time":0.42857100000000004,"velocity":0.3937007874015748},{"duration":0.142857,"midi":50,"time":0.7142850000000001,"velocity":0.3937007874015748},{"duration":0.14285700000000012,"midi":50,"time":0.8571420000000001,"velocity":0.3937007874015748},{"duration":0.142857,"midi":50,"time":1.142856,"velocity":0.3937007874015748},{"duration":0.142857,"midi":50,"time":1.285713,"velocity":0.3937007874015748},{"duration":0.142857,"midi":50,"time":1.4285700000000001,"velocity":0.3937007874015748},{"duration":0.142857,"midi":50,"time":1.5714270000000001,"velocity":0.3937007874015748},{"duration":0.1428569999999998,"midi":50,"time":1.7142840000000001,"velocity":0.3937007874015748},{"duration":0.14285699999999957,"midi":50,"time":1.9999980000000004,"velocity":0.3937007874015748},{"duration":0.14285700000000023,"midi":50,"time":2.142855,"velocity":0.3937007874015748},{"duration":0.1428569999999998,"midi":50,"time":2.4285690000000004,"velocity":0.3937007874015748},{"duration":0.1428569999999998,"midi":50,"time":2.571426,"velocity":0.3937007874015748},{"duration":0.14285700000000023,"midi":50,"time":2.8571400000000002,"velocity":0.3937007874015748},{"duration":0.1428569999999998,"midi":50,"time":2.9999970000000005,"velocity":0.3937007874015748},{"duration":0.14285700000000023,"midi":50,"time":3.1428540000000003,"velocity":0.3937007874015748},{"duration":0.1428569999999998,"midi":50,"time":3.2857110000000005,"velocity":0.3937007874015748},{"duration":0.14285700000000023,"midi":50,"time":3.4285680000000003,"velocity":0.3937007874015748},{"duration":0.14285700000000023,"midi":50,"time":3.714282,"velocity":0.3937007874015748},{"duration":0.14285700000000068,"midi":50,"time":3.857139,"velocity":0.3937007874015748},{"duration":0.14285700000000023,"midi":50,"time":4.142853,"velocity":0.3937007874015748},{"duration":0.14285700000000112,"midi":50,"time":4.28571,"velocity":0.3937007874015748},{"duration":0.14285700000000023,"midi":50,"time":4.571424,"velocity":0.3937007874015748},{"duration":0.14285700000000023,"midi":50,"time":4.714281000000001,"velocity":0.3937007874015748},{"duration":0.14285699999999935,"midi":45,"time":4.857138000000001,"velocity":0.3937007874015748},{"duration":0.14285700000000023,"midi":48,"time":4.999995,"velocity":0.3937007874015748},{"duration":0.14285700000000023,"midi":45,"time":5.142852,"velocity":0.3937007874015748},{"duration":0.14285700000000023,"midi":41,"time":5.142852,"velocity":0.3937007874015748},{"duration":0.14285700000000023,"midi":50,"time":5.142852,"velocity":0.3937007874015748},{"duration":0.14285700000000023,"midi":50,"time":5.428566,"velocity":0.3937007874015748},{"duration":0.14285700000000023,"midi":41,"time":5.428566,"velocity":0.3937007874015748},{"duration":0.14285700000000023,"midi":45,"time":5.428566,"velocity":0.3937007874015748},{"duration":0.14285699999999935,"midi":50,"time":5.7142800000000005,"velocity":0.3937007874015748},{"duration":0.14285699999999935,"midi":45,"time":5.7142800000000005,"velocity":0.3937007874015748},{"duration":0.14285699999999935,"midi":41,"time":5.7142800000000005,"velocity":0.3937007874015748},{"duration":0.14285700000000112,"midi":52,"time":5.857137,"velocity":0.3937007874015748},{"duration":0.14285700000000023,"midi":50,"time":5.999994000000001,"velocity":0.3937007874015748},{"duration":0.14285700000000023,"midi":46,"time":5.999994000000001,"velocity":0.3937007874015748},{"duration":0.14285700000000023,"midi":53,"time":5.999994000000001,"velocity":0.3937007874015748},{"duration":0.14285700000000023,"midi":50,"time":6.2857080000000005,"velocity":0.3937007874015748},{"duration":0.14285700000000023,"midi":46,"time":6.2857080000000005,"velocity":0.3937007874015748},{"duration":0.14285700000000023,"midi":53,"time":6.2857080000000005,"velocity":0.3937007874015748},{"duration":0.14285699999999935,"midi":53,"time":6.571422000000001,"velocity":0.3937007874015748},{"duration":0.14285699999999935,"midi":50,"time":6.571422000000001,"velocity":0.3937007874015748},{"duration":0.14285699999999935,"midi":46,"time":6.571422000000001,"velocity":0.3937007874015748},{"duration":0.14285700000000023,"midi":55,"time":6.714279,"velocity":0.3937007874015748},{"duration":0.14285699999999935,"midi":52,"time":6.857136000000001,"velocity":0.3937007874015748},{"duration":0.14285699999999935,"midi":48,"time":6.857136000000001,"velocity":0.3937007874015748},{"duration":0.14285699999999935,"midi":45,"time":6.857136000000001,"velocity":0.3937007874015748},{"duration":0.14285699999999935,"midi":45,"time":7.142850000000001,"velocity":0.3937007874015748},{"duration":0.14285699999999935,"midi":48,"time":7.142850000000001,"velocity":0.3937007874015748},{"duration":0.14285699999999935,"midi":52,"time":7.142850000000001,"velocity":0.3937007874015748},{"duration":0.14285700000000112,"midi":50,"time":7.428564,"velocity":0.3937007874015748},{"duration":0.14285700000000112,"midi":45,"time":7.428564,"velocity":0.3937007874015748},{"duration":0.14285699999999935,"midi":48,"time":7.571421000000001,"velocity":0.3937007874015748},{"duration":0.14285700000000023,"midi":48,"time":7.714278,"velocity":0.3937007874015748},{"duration":0.14285700000000023,"midi":41,"time":7.714278,"velocity":0.3937007874015748},{"duration":0.4285709999999989,"midi":41,"time":7.857135,"velocity":0.3937007874015748},{"duration":0.4285709999999989,"midi":45,"time":7.857135,"velocity":0.3937007874015748},{"duration":0.4285709999999989,"midi":50,"time":7.857135,"velocity":0.3937007874015748},{"duration":0.14285700000000112,"midi":45,"time":8.285706,"velocity":0.3937007874015748},{"duration":0.14285699999999935,"midi":48,"time":8.428563,"velocity":0.3937007874015748},{"duration":0.14285700000000112,"midi":41,"time":8.57142,"velocity":0.3937007874015748},{"duration":0.14285700000000112,"midi":46,"time":8.57142,"velocity":0.3937007874015748},{"duration":0.14285700000000112,"midi":50,"time":8.57142,"velocity":0.3937007874015748},{"duration":0.14285699999999935,"midi":46,"time":8.857134000000002,"velocity":0.3937007874015748},{"duration":0.14285699999999935,"midi":41,"time":8.857134000000002,"velocity":0.3937007874015748},{"duration":0.14285699999999935,"midi":50,"time":8.857134000000002,"velocity":0.3937007874015748},{"duration":0.14285700000000112,"midi":41,"time":9.142848,"velocity":0.3937007874015748},{"duration":0.14285700000000112,"midi":50,"time":9.142848,"velocity":0.3937007874015748},{"duration":0.14285700000000112,"midi":46,"time":9.142848,"velocity":0.3937007874015748},{"duration":0.14285699999999935,"midi":52,"time":9.285705000000002,"velocity":0.3937007874015748},{"duration":0.14285699999999935,"midi":48,"time":9.428562000000001,"velocity":0.3937007874015748},{"duration":0.14285699999999935,"midi":45,"time":9.428562000000001,"velocity":0.3937007874015748},{"duration":0.14285699999999935,"midi":53,"time":9.428562000000001,"velocity":0.3937007874015748},{"duration":0.14285699999999935,"midi":48,"time":9.714276000000002,"velocity":0.3937007874015748},{"duration":0.14285699999999935,"midi":53,"time":9.714276000000002,"velocity":0.3937007874015748},{"duration":0.14285699999999935,"midi":45,"time":9.714276000000002,"velocity":0.3937007874015748},{"duration":0.14285700000000112,"midi":48,"time":9.99999,"velocity":0.3937007874015748},{"duration":0.14285700000000112,"midi":45,"time":9.99999,"velocity":0.3937007874015748},{"duration":0.14285700000000112,"midi":53,"time":9.99999,"velocity":0.3937007874015748},{"duration":0.14285699999999935,"midi":55,"time":10.142847000000002,"velocity":0.3937007874015748},{"duration":0.14285699999999935,"midi":48,"time":10.285704,"velocity":0.3937007874015748},{"duration":0.14285699999999935,"midi":52,"time":10.285704,"velocity":0.3937007874015748},{"duration":0.14285699999999935,"midi":45,"time":10.285704,"velocity":0.3937007874015748},{"duration":0.14285699999999935,"midi":52,"time":10.571418000000001,"velocity":0.3937007874015748},{"duration":0.14285699999999935,"midi":48,"time":10.571418000000001,"velocity":0.3937007874015748},{"duration":0.14285699999999935,"midi":45,"time":10.571418000000001,"velocity":0.3937007874015748},{"duration":0.14285700000000112,"midi":45,"time":10.857132,"velocity":0.3937007874015748},{"duration":0.14285700000000112,"midi":50,"time":10.857132,"velocity":0.3937007874015748},{"duration":0.14285699999999935,"midi":48,"time":10.999989000000001,"velocity":0.3937007874015748},{"duration":0.4285709999999998,"midi":41,"time":11.142846,"velocity":0.3937007874015748},{"duration":0.4285709999999998,"midi":45,"time":11.142846,"velocity":0.3937007874015748},{"duration":0.4285709999999998,"midi":50,"time":11.142846,"velocity":0.3937007874015748},{"duration":0.14285700000000112,"midi":45,"time":11.714274,"velocity":0.3937007874015748},{"duration":0.14285700000000112,"midi":48,"time":11.857131,"velocity":0.3937007874015748},{"duration":0.14285699999999935,"midi":41,"time":11.999988000000002,"velocity":0.3937007874015748},{"duration":0.14285699999999935,"midi":45,"time":11.999988000000002,"velocity":0.3937007874015748},{"duration":0.14285699999999935,"midi":50,"time":11.999988000000002,"velocity":0.3937007874015748},{"duration":0.14285699999999935,"midi":50,"time":12.285702000000002,"velocity":0.3937007874015748},{"duration":0.14285699999999935,"midi":45,"time":12.285702000000002,"velocity":0.3937007874015748},{"duration":0.14285699999999935,"midi":41,"time":12.285702000000002,"velocity":0.3937007874015748},{"duration":0.14285700000000112,"midi":50,"time":12.571416000000001,"velocity":0.3937007874015748},{"duration":0.14285700000000112,"midi":41,"time":12.571416000000001,"velocity":0.3937007874015748},{"duration":0.14285699999999935,"midi":41,"time":12.714273000000002,"velocity":0.3937007874015748},{"duration":0.14285699999999935,"midi":53,"time":12.714273000000002,"velocity":0.3937007874015748},{"duration":0.14285699999999935,"midi":55,"time":12.857130000000002,"velocity":0.3937007874015748},{"duration":0.14285699999999935,"midi":50,"time":12.857130000000002,"velocity":0.3937007874015748},{"duration":0.14285699999999935,"midi":46,"time":12.857130000000002,"velocity":0.3937007874015748},{"duration":0.14285699999999935,"midi":46,"time":13.142844000000002,"velocity":0.3937007874015748},{"duration":0.14285699999999935,"midi":50,"time":13.142844000000002,"velocity":0.3937007874015748},{"duration":0.14285699999999935,"midi":55,"time":13.142844000000002,"velocity":0.3937007874015748},{"duration":0.14285700000000112,"midi":55,"time":13.428558,"velocity":0.3937007874015748},{"duration":0.14285700000000112,"midi":50,"time":13.428558,"velocity":0.3937007874015748},{"duration":0.14285700000000112,"midi":46,"time":13.428558,"velocity":0.3937007874015748},{"duration":0.14285699999999935,"midi":57,"time":13.571415000000002,"velocity":0.3937007874015748},{"duration":0.14285700000000112,"midi":55,"time":13.714272000000001,"velocity":0.3937007874015748},{"duration":0.14285700000000112,"midi":58,"time":13.714272000000001,"velocity":0.3937007874015748},{"duration":0.14285700000000112,"midi":50,"time":13.714272000000001,"velocity":0.3937007874015748},{"duration":0.14285700000000112,"midi":55,"time":13.999986,"velocity":0.3937007874015748},{"duration":0.14285700000000112,"midi":50,"time":13.999986,"velocity":0.3937007874015748},{"duration":0.14285700000000112,"midi":58,"time":13.999986,"velocity":0.3937007874015748},{"duration":0.14285699999999757,"midi":57,"time":14.285700000000002,"velocity":0.3937007874015748},{"duration":0.14285699999999757,"midi":50,"time":14.285700000000002,"velocity":0.3937007874015748},{"duration":0.14285700000000112,"midi":55,"time":14.428557,"velocity":0.3937007874015748},{"duration":0.14285700000000112,"midi":57,"time":14.571414,"velocity":0.3937007874015748},{"duration":0.14285700000000112,"midi":50,"time":14.571414,"velocity":0.3937007874015748},{"duration":0.4285709999999998,"midi":41,"time":14.714271000000002,"velocity":0.3937007874015748},{"duration":0.4285709999999998,"midi":45,"time":14.714271000000002,"velocity":0.3937007874015748},{"duration":0.4285709999999998,"midi":50,"time":14.714271000000002,"velocity":0.3937007874015748},{"duration":0.14285699999999935,"midi":50,"time":15.142842000000002,"velocity":0.3937007874015748},{"duration":0.14285699999999935,"midi":52,"time":15.285699000000001,"velocity":0.3937007874015748},{"duration":0.14285700000000112,"midi":46,"time":15.428556,"velocity":0.3937007874015748},{"duration":0.14285700000000112,"midi":53,"time":15.428556,"velocity":0.3937007874015748},{"duration":0.14285700000000112,"midi":50,"time":15.428556,"velocity":0.3937007874015748},{"duration":0.14285700000000112,"midi":53,"time":15.71427,"velocity":0.3937007874015748},{"duration":0.14285700000000112,"midi":46,"time":15.71427,"velocity":0.3937007874015748},{"duration":0.14285700000000112,"midi":50,"time":15.71427,"velocity":0.3937007874015748},{"duration":0.14285699999999757,"midi":50,"time":15.999984000000003,"velocity":0.3937007874015748},{"duration":0.14285699999999757,"midi":46,"time":15.999984000000003,"velocity":0.3937007874015748},{"duration":0.14285699999999757,"midi":55,"time":15.999984000000003,"velocity":0.3937007874015748},{"duration":0.1428570000000029,"midi":53,"time":16.285698,"velocity":0.3937007874015748},{"duration":0.1428570000000029,"midi":50,"time":16.285698,"velocity":0.3937007874015748},{"duration":0.1428570000000029,"midi":57,"time":16.285698,"velocity":0.3937007874015748},{"duration":0.14285699999999935,"midi":50,"time":16.857126,"velocity":0.3937007874015748},{"duration":0.14285699999999935,"midi":53,"time":16.999983,"velocity":0.3937007874015748},{"duration":0.1428570000000029,"midi":52,"time":17.14284,"velocity":0.3937007874015748},{"duration":0.1428570000000029,"midi":45,"time":17.14284,"velocity":0.3937007874015748},{"duration":0.1428570000000029,"midi":49,"time":17.14284,"velocity":0.3937007874015748},{"duration":0.14285699999999935,"midi":45,"time":17.428554000000002,"velocity":0.3937007874015748},{"duration":0.14285699999999935,"midi":49,"time":17.428554000000002,"velocity":0.3937007874015748},{"duration":0.14285699999999935,"midi":52,"time":17.428554000000002,"velocity":0.3937007874015748},{"duration":0.1428569999999958,"midi":53,"time":17.714268000000004,"velocity":0.3937007874015748},{"duration":0.1428570000000029,"midi":50,"time":17.857125,"velocity":0.3937007874015748},{"duration":0.42857099999999804,"midi":52,"time":17.999982000000003,"velocity":0.3937007874015748},{"duration":0.42857099999999804,"midi":49,"time":17.999982000000003,"velocity":0.3937007874015748},{"duration":0.42857099999999804,"midi":45,"time":17.999982000000003,"velocity":0.3937007874015748},{"duration":0.1428569999999958,"midi":57,"time":18.571410000000004,"velocity":0.3937007874015748},{"duration":0.1428570000000029,"midi":60,"time":18.714267,"velocity":0.3937007874015748},{"duration":0.14285699999999935,"midi":62,"time":18.857124000000002,"velocity":0.3937007874015748},{"duration":0.14285699999999935,"midi":57,"time":18.857124000000002,"velocity":0.3937007874015748},{"duration":0.14285699999999935,"midi":53,"time":18.857124000000002,"velocity":0.3937007874015748},{"duration":0.14285699999999935,"midi":53,"time":19.142838,"velocity":0.3937007874015748},{"duration":0.14285699999999935,"midi":62,"time":19.142838,"velocity":0.3937007874015748},{"duration":0.14285699999999935,"midi":57,"time":19.142838,"velocity":0.3937007874015748},{"duration":0.1428569999999958,"midi":53,"time":19.428552000000003,"velocity":0.3937007874015748},{"duration":0.1428569999999958,"midi":57,"time":19.428552000000003,"velocity":0.3937007874015748},{"duration":0.1428569999999958,"midi":62,"time":19.428552000000003,"velocity":0.3937007874015748},{"duration":0.1428570000000029,"midi":64,"time":19.571409,"velocity":0.3937007874015748},{"duration":0.14285699999999935,"midi":65,"time":19.714266000000002,"velocity":0.3937007874015748},{"duration":0.14285699999999935,"midi":62,"time":19.714266000000002,"velocity":0.3937007874015748},{"duration":0.14285699999999935,"midi":58,"time":19.714266000000002,"velocity":0.3937007874015748},{"duration":0.14285699999999935,"midi":65,"time":19.99998,"velocity":0.3937007874015748},{"duration":0.14285699999999935,"midi":62,"time":19.99998,"velocity":0.3937007874015748},{"duration":0.14285699999999935,"midi":58,"time":19.99998,"velocity":0.3937007874015748},{"duration":0.14285699999999935,"midi":65,"time":20.285694000000003,"velocity":0.3937007874015748},{"duration":0.14285699999999935,"midi":62,"time":20.285694000000003,"velocity":0.3937007874015748},{"duration":0.14285699999999935,"midi":58,"time":20.285694000000003,"velocity":0.3937007874015748},{"duration":0.14285699999999935,"midi":67,"time":20.428551000000002,"velocity":0.3937007874015748},{"duration":0.14285699999999935,"midi":57,"time":20.571408,"velocity":0.3937007874015748},{"duration":0.14285699999999935,"midi":64,"time":20.571408,"velocity":0.3937007874015748},{"duration":0.14285699999999935,"midi":60,"time":20.571408,"velocity":0.3937007874015748},{"duration":0.1428570000000029,"midi":60,"time":20.857122,"velocity":0.3937007874015748},{"duration":0.1428570000000029,"midi":57,"time":20.857122,"velocity":0.3937007874015748},{"duration":0.1428570000000029,"midi":64,"time":20.857122,"velocity":0.3937007874015748},{"duration":0.14285699999999935,"midi":62,"time":21.142836000000003,"velocity":0.3937007874015748},{"duration":0.14285699999999935,"midi":57,"time":21.142836000000003,"velocity":0.3937007874015748},{"duration":0.14285699999999935,"midi":60,"time":21.285693000000002,"velocity":0.3937007874015748},{"duration":0.1428570000000029,"midi":53,"time":21.42855,"velocity":0.3937007874015748},{"duration":0.1428570000000029,"midi":60,"time":21.42855,"velocity":0.3937007874015748},{"duration":0.42857099999999804,"midi":57,"time":21.571407000000004,"velocity":0.3937007874015748},{"duration":0.42857099999999804,"midi":62,"time":21.571407000000004,"velocity":0.3937007874015748},{"duration":0.42857099999999804,"midi":53,"time":21.571407000000004,"velocity":0.3937007874015748},{"duration":0.14285699999999935,"midi":57,"time":21.999978000000002,"velocity":0.3937007874015748},{"duration":0.14285699999999935,"midi":60,"time":22.142835,"velocity":0.3937007874015748},{"duration":0.1428570000000029,"midi":58,"time":22.285692,"velocity":0.3937007874015748},{"duration":0.1428570000000029,"midi":53,"time":22.285692,"velocity":0.3937007874015748},{"duration":0.1428570000000029,"midi":62,"time":22.285692,"velocity":0.3937007874015748},{"duration":0.1428570000000029,"midi":58,"time":22.571406,"velocity":0.3937007874015748},{"duration":0.1428570000000029,"midi":53,"time":22.571406,"velocity":0.3937007874015748},{"duration":0.1428570000000029,"midi":62,"time":22.571406,"velocity":0.3937007874015748},{"duration":0.14285699999999935,"midi":62,"time":22.857120000000002,"velocity":0.3937007874015748},{"duration":0.14285699999999935,"midi":58,"time":22.857120000000002,"velocity":0.3937007874015748},{"duration":0.14285699999999935,"midi":53,"time":22.857120000000002,"velocity":0.3937007874015748},{"duration":0.14285699999999935,"midi":64,"time":22.999977,"velocity":0.3937007874015748},{"duration":0.1428570000000029,"midi":60,"time":23.142834,"velocity":0.3937007874015748},{"duration":0.1428570000000029,"midi":65,"time":23.142834,"velocity":0.3937007874015748},{"duration":0.1428570000000029,"midi":57,"time":23.142834,"velocity":0.3937007874015748},{"duration":0.1428570000000029,"midi":65,"time":23.428548,"velocity":0.3937007874015748},{"duration":0.1428570000000029,"midi":60,"time":23.428548,"velocity":0.3937007874015748},{"duration":0.1428570000000029,"midi":57,"time":23.428548,"velocity":0.3937007874015748},{"duration":0.14285699999999935,"midi":65,"time":23.714262,"velocity":0.3937007874015748},{"duration":0.14285699999999935,"midi":60,"time":23.714262,"velocity":0.3937007874015748},{"duration":0.14285699999999935,"midi":57,"time":23.714262,"velocity":0.3937007874015748},{"duration":0.1428570000000029,"midi":67,"time":23.857119,"velocity":0.3937007874015748},{"duration":0.14285699999999935,"midi":64,"time":23.999976000000004,"velocity":0.3937007874015748},{"duration":0.14285699999999935,"midi":60,"time":23.999976000000004,"velocity":0.3937007874015748},{"duration":0.14285699999999935,"midi":57,"time":23.999976000000004,"velocity":0.3937007874015748},{"duration":0.14285699999999935,"midi":64,"time":24.285690000000002,"velocity":0.3937007874015748},{"duration":0.14285699999999935,"midi":60,"time":24.285690000000002,"velocity":0.3937007874015748},{"duration":0.14285699999999935,"midi":57,"time":24.285690000000002,"velocity":0.3937007874015748},{"duration":0.1428569999999958,"midi":62,"time":24.571404000000005,"velocity":0.3937007874015748},{"duration":0.1428569999999958,"midi":57,"time":24.571404000000005,"velocity":0.3937007874015748},{"duration":0.1428570000000029,"midi":60,"time":24.714261,"velocity":0.3937007874015748},{"duration":0.42857099999999804,"midi":62,"time":24.857118000000003,"velocity":0.3937007874015748},{"duration":0.42857099999999804,"midi":57,"time":24.857118000000003,"velocity":0.3937007874015748},{"duration":0.42857099999999804,"midi":53,"time":24.857118000000003,"velocity":0.3937007874015748},{"duration":0.1428569999999958,"midi":57,"time":25.428546000000004,"velocity":0.3937007874015748},{"duration":0.1428570000000029,"midi":60,"time":25.571403,"velocity":0.3937007874015748},{"duration":0.14285699999999935,"midi":62,"time":25.714260000000003,"velocity":0.3937007874015748},{"duration":0.14285699999999935,"midi":57,"time":25.714260000000003,"velocity":0.3937007874015748},{"duration":0.14285699999999935,"midi":53,"time":25.714260000000003,"velocity":0.3937007874015748},{"duration":0.14285699999999935,"midi":57,"time":25.999974,"velocity":0.3937007874015748},{"duration":0.14285699999999935,"midi":53,"time":25.999974,"velocity":0.3937007874015748},{"duration":0.14285699999999935,"midi":62,"time":25.999974,"velocity":0.3937007874015748},{"duration":0.1428569999999958,"midi":53,"time":26.285688000000004,"velocity":0.3937007874015748},{"duration":0.1428569999999958,"midi":62,"time":26.285688000000004,"velocity":0.3937007874015748},{"duration":0.1428570000000029,"midi":53,"time":26.428545,"velocity":0.3937007874015748},{"duration":0.1428570000000029,"midi":65,"time":26.428545,"velocity":0.3937007874015748},{"duration":0.14285699999999935,"midi":67,"time":26.571402000000003,"velocity":0.3937007874015748},{"duration":0.14285699999999935,"midi":62,"time":26.571402000000003,"velocity":0.3937007874015748},{"duration":0.14285699999999935,"midi":58,"time":26.571402000000003,"velocity":0.3937007874015748},{"duration":0.14285699999999935,"midi":67,"time":26.857116,"velocity":0.3937007874015748},{"duration":0.14285699999999935,"midi":58,"time":26.857116,"velocity":0.3937007874015748},{"duration":0.14285699999999935,"midi":62,"time":26.857116,"velocity":0.3937007874015748},{"duration":0.14285699999999935,"midi":67,"time":27.142830000000004,"velocity":0.3937007874015748},{"duration":0.14285699999999935,"midi":62,"time":27.142830000000004,"velocity":0.3937007874015748},{"duration":0.14285699999999935,"midi":58,"time":27.142830000000004,"velocity":0.3937007874015748},{"duration":0.14285699999999935,"midi":69,"time":27.285687000000003,"velocity":0.3937007874015748},{"duration":0.14285699999999935,"midi":67,"time":27.428544000000002,"velocity":0.3937007874015748},{"duration":0.14285699999999935,"midi":62,"time":27.428544000000002,"velocity":0.3937007874015748},{"duration":0.14285699999999935,"midi":70,"time":27.428544000000002,"velocity":0.3937007874015748},{"duration":0.14285699999999935,"midi":62,"time":27.714258000000005,"velocity":0.3937007874015748},{"duration":0.14285699999999935,"midi":70,"time":27.714258000000005,"velocity":0.3937007874015748},{"duration":0.14285699999999935,"midi":67,"time":27.714258000000005,"velocity":0.3937007874015748},{"duration":0.14285700000000645,"midi":69,"time":27.999972,"velocity":0.3937007874015748},{"duration":0.14285700000000645,"midi":62,"time":27.999972,"velocity":0.3937007874015748},{"duration":0.1428569999999958,"midi":67,"time":28.142829000000006,"velocity":0.3937007874015748},{"duration":0.14285699999999935,"midi":69,"time":28.285686000000002,"velocity":0.3937007874015748},{"duration":0.14285699999999935,"midi":62,"time":28.285686000000002,"velocity":0.3937007874015748},{"duration":0.42857099999999804,"midi":62,"time":28.428543,"velocity":0.3937007874015748},{"duration":0.42857099999999804,"midi":57,"time":28.428543,"velocity":0.3937007874015748},{"duration":0.42857099999999804,"midi":53,"time":28.428543,"velocity":0.3937007874015748},{"duration":0.14285700000000645,"midi":62,"time":28.857114,"velocity":0.3937007874015748},{"duration":0.1428569999999958,"midi":64,"time":28.999971000000006,"velocity":0.3937007874015748},{"duration":0.14285699999999935,"midi":65,"time":29.142828,"velocity":0.3937007874015748},{"duration":0.14285699999999935,"midi":60,"time":29.142828,"velocity":0.3937007874015748},{"duration":0.14285699999999935,"midi":57,"time":29.142828,"velocity":0.3937007874015748},{"duration":0.14285699999999935,"midi":65,"time":29.428542000000004,"velocity":0.3937007874015748},{"duration":0.14285699999999935,"midi":60,"time":29.428542000000004,"velocity":0.3937007874015748},{"duration":0.14285699999999935,"midi":57,"time":29.428542000000004,"velocity":0.3937007874015748},{"duration":0.14285700000000645,"midi":57,"time":29.714256,"velocity":0.3937007874015748},{"duration":0.14285700000000645,"midi":67,"time":29.714256,"velocity":0.3937007874015748},{"duration":0.14285700000000645,"midi":60,"time":29.714256,"velocity":0.3937007874015748},{"duration":0.14285699999999935,"midi":65,"time":29.99997,"velocity":0.3937007874015748},{"duration":0.14285699999999935,"midi":62,"time":29.99997,"velocity":0.3937007874015748},{"duration":0.14285699999999935,"midi":69,"time":29.99997,"velocity":0.3937007874015748},{"duration":0.1428570000000029,"midi":62,"time":30.142827,"velocity":0.3937007874015748},{"duration":0.1428570000000029,"midi":62,"time":30.571398000000002,"velocity":0.3937007874015748},{"duration":0.1428569999999958,"midi":65,"time":30.714255000000005,"velocity":0.3937007874015748},{"duration":0.14285699999999935,"midi":61,"time":30.857112,"velocity":0.3937007874015748},{"duration":0.14285699999999935,"midi":57,"time":30.857112,"velocity":0.3937007874015748},{"duration":0.14285699999999935,"midi":64,"time":30.857112,"velocity":0.3937007874015748},{"duration":0.14285699999999935,"midi":61,"time":31.142826000000003,"velocity":0.3937007874015748},{"duration":0.14285699999999935,"midi":57,"time":31.142826000000003,"velocity":0.3937007874015748},{"duration":0.14285699999999935,"midi":64,"time":31.142826000000003,"velocity":0.3937007874015748},{"duration":0.1428570000000029,"midi":62,"time":31.42854,"velocity":0.3937007874015748},{"duration":0.14285699999999935,"midi":61,"time":31.571397000000005,"velocity":0.3937007874015748},{"duration":0.28571400000000224,"midi":57,"time":31.714254000000004,"velocity":0.3937007874015748},{"duration":0.28571400000000224,"midi":62,"time":31.714254000000004,"velocity":0.3937007874015748},{"duration":0.28571399999999514,"midi":62,"time":31.999968000000006,"velocity":0.3937007874015748},{"duration":0.28571399999999514,"midi":57,"time":31.999968000000006,"velocity":0.3937007874015748},{"duration":0.2857139999999987,"midi":60,"time":32.285682,"velocity":0.3937007874015748},{"duration":0.2857139999999987,"midi":64,"time":32.285682,"velocity":0.3937007874015748},{"duration":0.2857139999999987,"midi":57,"time":32.285682,"velocity":0.3937007874015748},{"duration":0.2857140000000058,"midi":60,"time":32.571396,"velocity":0.3937007874015748},{"duration":0.2857140000000058,"midi":62,"time":32.571396,"velocity":0.3937007874015748},{"duration":0.2857140000000058,"midi":65,"time":32.571396,"velocity":0.3937007874015748},{"duration":0.14285699999999935,"midi":65,"time":32.857110000000006,"velocity":0.3937007874015748},{"duration":0.14285699999999224,"midi":65,"time":32.999967000000005,"velocity":0.3937007874015748},{"duration":0.2857140000000058,"midi":58,"time":33.142824,"velocity":0.3937007874015748},{"duration":0.2857140000000058,"midi":67,"time":33.142824,"velocity":0.3937007874015748},{"duration":0.2857140000000058,"midi":62,"time":33.142824,"velocity":0.3937007874015748},{"duration":0.5714279999999974,"midi":62,"time":33.428538,"velocity":0.3937007874015748},{"duration":0.5714279999999974,"midi":65,"time":33.428538,"velocity":0.3937007874015748},{"duration":0.5714279999999974,"midi":69,"time":33.428538,"velocity":0.3937007874015748},{"duration":0.14285700000000645,"midi":65,"time":33.999966,"velocity":0.3937007874015748},{"duration":0.14285699999999224,"midi":62,"time":34.14282300000001,"velocity":0.3937007874015748},{"duration":0.8571420000000032,"midi":57,"time":34.28568,"velocity":0.3937007874015748},{"duration":0.5714279999999974,"midi":62,"time":35.142822,"velocity":0.3937007874015748},{"duration":0.5714279999999974,"midi":70,"time":35.142822,"velocity":0.3937007874015748},{"duration":0.5714279999999974,"midi":65,"time":35.142822,"velocity":0.3937007874015748},{"duration":0.14285700000000645,"midi":65,"time":35.71425,"velocity":0.3937007874015748},{"duration":0.14285699999999935,"midi":62,"time":35.857107000000006,"velocity":0.3937007874015748},{"duration":0.8571419999999961,"midi":58,"time":35.999964000000006,"velocity":0.3937007874015748},{"duration":0.14285699999999935,"midi":64,"time":36.857106,"velocity":0.3937007874015748},{"duration":0.14285699999999935,"midi":57,"time":36.857106,"velocity":0.3937007874015748},{"duration":0.2857139999999987,"midi":64,"time":36.999963,"velocity":0.3937007874015748},{"duration":0.42857100000000514,"midi":53,"time":37.285677,"velocity":0.3937007874015748},{"duration":0.42857100000000514,"midi":57,"time":37.285677,"velocity":0.3937007874015748},{"duration":0.42857100000000514,"midi":62,"time":37.285677,"velocity":0.3937007874015748},{"duration":0.42857099999999804,"midi":65,"time":37.714248000000005,"velocity":0.3937007874015748},{"duration":0.42857099999999804,"midi":57,"time":37.714248000000005,"velocity":0.3937007874015748},{"duration":0.42857099999999804,"midi":61,"time":37.714248000000005,"velocity":0.3937007874015748},{"duration":0.14285700000000645,"midi":53,"time":38.285676,"velocity":0.3937007874015748},{"duration":0.14285699999999224,"midi":55,"time":38.42853300000001,"velocity":0.3937007874015748},{"duration":0.14285699999999935,"midi":53,"time":38.57139,"velocity":0.3937007874015748},{"duration":0.14285699999999935,"midi":50,"time":38.57139,"velocity":0.3937007874015748},{"duration":0.14285699999999935,"midi":57,"time":38.57139,"velocity":0.3937007874015748},{"duration":0.14285699999999935,"midi":57,"time":38.85710400000001,"velocity":0.3937007874015748},{"duration":0.14285699999999935,"midi":53,"time":38.85710400000001,"velocity":0.3937007874015748},{"duration":0.14285699999999935,"midi":50,"time":38.85710400000001,"velocity":0.3937007874015748},{"duration":0.14285700000000645,"midi":53,"time":39.142818,"velocity":0.3937007874015748},{"duration":0.14285700000000645,"midi":50,"time":39.142818,"velocity":0.3937007874015748},{"duration":0.14285700000000645,"midi":57,"time":39.142818,"velocity":0.3937007874015748},{"duration":0.14285699999999935,"midi":50,"time":39.428532000000004,"velocity":0.3937007874015748},{"duration":0.14285699999999935,"midi":58,"time":39.428532000000004,"velocity":0.3937007874015748},{"duration":0.14285699999999935,"midi":55,"time":39.428532000000004,"velocity":0.3937007874015748},{"duration":0.14285699999999935,"midi":50,"time":39.571389,"velocity":0.3937007874015748},{"duration":0.14285699999999935,"midi":57,"time":39.571389,"velocity":0.3937007874015748},{"duration":0.14285699999999935,"midi":53,"time":39.571389,"velocity":0.3937007874015748},{"duration":0.14285699999999935,"midi":52,"time":40.285674,"velocity":0.3937007874015748},{"duration":0.14285699999999935,"midi":48,"time":40.285674,"velocity":0.3937007874015748},{"duration":0.14285699999999935,"midi":55,"time":40.285674,"velocity":0.3937007874015748},{"duration":0.14285699999999935,"midi":55,"time":40.571388000000006,"velocity":0.3937007874015748},{"duration":0.14285699999999935,"midi":52,"time":40.571388000000006,"velocity":0.3937007874015748},{"duration":0.14285699999999935,"midi":48,"time":40.571388000000006,"velocity":0.3937007874015748},{"duration":0.14285699999999935,"midi":52,"time":40.857102000000005,"velocity":0.3937007874015748},{"duration":0.14285699999999935,"midi":55,"time":40.857102000000005,"velocity":0.3937007874015748},{"duration":0.14285699999999935,"midi":48,"time":40.857102000000005,"velocity":0.3937007874015748},{"duration":0.14285699999999935,"midi":55,"time":41.142816,"velocity":0.3937007874015748},{"duration":0.14285699999999935,"midi":48,"time":41.142816,"velocity":0.3937007874015748},{"duration":0.14285699999999935,"midi":52,"time":41.142816,"velocity":0.3937007874015748},{"duration":0.14285699999999935,"midi":57,"time":41.285673,"velocity":0.3937007874015748},{"duration":0.14285699999999935,"midi":53,"time":41.285673,"velocity":0.3937007874015748},{"duration":0.14285699999999935,"midi":48,"time":41.285673,"velocity":0.3937007874015748},{"duration":0.14285699999999224,"midi":57,"time":41.99995800000001,"velocity":0.3937007874015748},{"duration":0.14285699999999224,"midi":50,"time":41.99995800000001,"velocity":0.3937007874015748},{"duration":0.14285699999999224,"midi":53,"time":41.99995800000001,"velocity":0.3937007874015748},{"duration":0.14285699999999935,"midi":57,"time":42.285672000000005,"velocity":0.3937007874015748},{"duration":0.14285699999999935,"midi":53,"time":42.285672000000005,"velocity":0.3937007874015748},{"duration":0.14285699999999935,"midi":50,"time":42.285672000000005,"velocity":0.3937007874015748},{"duration":0.14285699999999935,"midi":50,"time":42.571386000000004,"velocity":0.3937007874015748},{"duration":0.14285699999999935,"midi":53,"time":42.571386000000004,"velocity":0.3937007874015748},{"duration":0.14285699999999935,"midi":57,"time":42.571386000000004,"velocity":0.3937007874015748},{"duration":0.14285699999999935,"midi":58,"time":42.8571,"velocity":0.3937007874015748},{"duration":0.14285699999999935,"midi":50,"time":42.8571,"velocity":0.3937007874015748},{"duration":0.14285699999999935,"midi":55,"time":42.8571,"velocity":0.3937007874015748},{"duration":0.14285700000000645,"midi":50,"time":42.999957,"velocity":0.3937007874015748},{"duration":0.14285700000000645,"midi":53,"time":42.999957,"velocity":0.3937007874015748},{"duration":0.14285700000000645,"midi":57,"time":42.999957,"velocity":0.3937007874015748},{"duration":0.14285699999999224,"midi":52,"time":43.714242000000006,"velocity":0.3937007874015748},{"duration":0.14285699999999224,"midi":55,"time":43.714242000000006,"velocity":0.3937007874015748},{"duration":0.14285699999999224,"midi":49,"time":43.714242000000006,"velocity":0.3937007874015748},{"duration":0.14285699999999935,"midi":53,"time":43.999956000000005,"velocity":0.3937007874015748},{"duration":0.14285699999999935,"midi":49,"time":43.999956000000005,"velocity":0.3937007874015748},{"duration":0.14285699999999935,"midi":49,"time":44.28567,"velocity":0.3937007874015748},{"duration":0.14285699999999935,"midi":52,"time":44.28567,"velocity":0.3937007874015748},{"duration":0.14285699999999935,"midi":45,"time":44.571384,"velocity":0.3937007874015748},{"duration":0.14285699999999935,"midi":50,"time":44.571384,"velocity":0.3937007874015748},{"duration":0.14285699999999935,"midi":41,"time":44.571384,"velocity":0.3937007874015748},{"duration":0.14285700000000645,"midi":50,"time":45.142812,"velocity":0.3937007874015748},{"duration":0.14285699999999935,"midi":52,"time":45.285669000000006,"velocity":0.3937007874015748},{"duration":0.5714279999999974,"midi":50,"time":45.428526000000005,"velocity":0.3937007874015748},{"duration":0.5714279999999974,"midi":45,"time":45.428526000000005,"velocity":0.3937007874015748},{"duration":0.5714279999999974,"midi":53,"time":45.428526000000005,"velocity":0.3937007874015748},{"duration":0.14285700000000645,"midi":55,"time":45.999954,"velocity":0.3937007874015748},{"duration":0.14285699999999224,"midi":57,"time":46.14281100000001,"velocity":0.3937007874015748},{"duration":0.2857140000000058,"midi":43,"time":46.285668,"velocity":0.3937007874015748},{"duration":0.2857140000000058,"midi":48,"time":46.285668,"velocity":0.3937007874015748},{"duration":0.2857140000000058,"midi":55,"time":46.285668,"velocity":0.3937007874015748},{"duration":0.2857139999999916,"midi":53,"time":46.57138200000001,"velocity":0.3937007874015748},{"duration":0.2857139999999916,"midi":43,"time":46.57138200000001,"velocity":0.3937007874015748},{"duration":0.2857139999999916,"midi":48,"time":46.57138200000001,"velocity":0.3937007874015748},{"duration":0.2857140000000058,"midi":43,"time":46.857096,"velocity":0.3937007874015748},{"duration":0.2857140000000058,"midi":48,"time":46.857096,"velocity":0.3937007874015748},{"duration":0.2857140000000058,"midi":52,"time":46.857096,"velocity":0.3937007874015748},{"duration":0.2857139999999987,"midi":45,"time":47.142810000000004,"velocity":0.3937007874015748},{"duration":0.2857139999999987,"midi":48,"time":47.142810000000004,"velocity":0.3937007874015748},{"duration":0.2857139999999987,"midi":53,"time":47.142810000000004,"velocity":0.3937007874015748},{"duration":0.2857139999999987,"midi":48,"time":47.428524,"velocity":0.3937007874015748},{"duration":0.2857139999999987,"midi":55,"time":47.428524,"velocity":0.3937007874015748},{"duration":0.2857139999999987,"midi":45,"time":47.428524,"velocity":0.3937007874015748},{"duration":0.2857140000000058,"midi":45,"time":47.714238,"velocity":0.3937007874015748},{"duration":0.2857140000000058,"midi":48,"time":47.714238,"velocity":0.3937007874015748},{"duration":0.2857140000000058,"midi":57,"time":47.714238,"velocity":0.3937007874015748},{"duration":0.5714279999999974,"midi":52,"time":47.99995200000001,"velocity":0.3937007874015748},{"duration":0.5714279999999974,"midi":48,"time":47.99995200000001,"velocity":0.3937007874015748},{"duration":0.5714279999999974,"midi":55,"time":47.99995200000001,"velocity":0.3937007874015748},{"duration":0.14285699999999935,"midi":53,"time":48.571380000000005,"velocity":0.3937007874015748},{"duration":0.14285699999999935,"midi":55,"time":48.714237000000004,"velocity":0.3937007874015748},{"duration":0.5714279999999974,"midi":53,"time":48.857094000000004,"velocity":0.3937007874015748},{"duration":0.5714279999999974,"midi":57,"time":48.857094000000004,"velocity":0.3937007874015748},{"duration":0.5714279999999974,"midi":50,"time":48.857094000000004,"velocity":0.3937007874015748},{"duration":0.14285700000000645,"midi":55,"time":49.428522,"velocity":0.3937007874015748},{"duration":0.14285699999999935,"midi":53,"time":49.57137900000001,"velocity":0.3937007874015748},{"duration":0.2857139999999987,"midi":52,"time":49.71423600000001,"velocity":0.3937007874015748},{"duration":0.2857139999999987,"midi":49,"time":49.71423600000001,"velocity":0.3937007874015748},{"duration":0.2857139999999987,"midi":49,"time":49.999950000000005,"velocity":0.3937007874015748},{"duration":0.2857139999999987,"midi":53,"time":49.999950000000005,"velocity":0.3937007874015748},{"duration":0.2857139999999987,"midi":49,"time":50.285664000000004,"velocity":0.3937007874015748},{"duration":0.2857139999999987,"midi":52,"time":50.285664000000004,"velocity":0.3937007874015748},{"duration":0.2857140000000058,"midi":50,"time":50.571378,"velocity":0.3937007874015748},{"duration":0.2857140000000058,"midi":45,"time":50.571378,"velocity":0.3937007874015748},{"duration":0.2857140000000058,"midi":41,"time":50.571378,"velocity":0.3937007874015748},{"duration":0.14285700000000645,"midi":52,"time":51.142806,"velocity":0.3937007874015748},{"duration":0.14285699999999935,"midi":48,"time":51.28566300000001,"velocity":0.3937007874015748},{"duration":0.2857139999999987,"midi":45,"time":51.428520000000006,"velocity":0.3937007874015748},{"duration":0.2857139999999987,"midi":41,"time":51.428520000000006,"velocity":0.3937007874015748},{"duration":0.2857139999999987,"midi":50,"time":51.428520000000006,"velocity":0.3937007874015748},{"duration":0.14285700000000645,"midi":62,"time":51.999948,"velocity":0.3937007874015748},{"duration":0.14285699999999224,"midi":64,"time":52.14280500000001,"velocity":0.3937007874015748},{"duration":0.5714279999999974,"midi":57,"time":52.285662,"velocity":0.3937007874015748},{"duration":0.5714279999999974,"midi":62,"time":52.285662,"velocity":0.3937007874015748},{"duration":0.5714279999999974,"midi":65,"time":52.285662,"velocity":0.3937007874015748},{"duration":0.14285700000000645,"midi":64,"time":52.85709,"velocity":0.3937007874015748},{"duration":0.14285699999999935,"midi":65,"time":52.999947000000006,"velocity":0.3937007874015748},{"duration":0.2857139999999987,"midi":67,"time":53.142804000000005,"velocity":0.3937007874015748},{"duration":0.2857139999999987,"midi":55,"time":53.142804000000005,"velocity":0.3937007874015748},{"duration":0.2857139999999987,"midi":60,"time":53.142804000000005,"velocity":0.3937007874015748},{"duration":0.2857139999999987,"midi":55,"time":53.428518000000004,"velocity":0.3937007874015748},{"duration":0.2857139999999987,"midi":60,"time":53.428518000000004,"velocity":0.3937007874015748},{"duration":0.2857139999999987,"midi":65,"time":53.428518000000004,"velocity":0.3937007874015748},{"duration":0.2857139999999987,"midi":60,"time":53.714232,"velocity":0.3937007874015748},{"duration":0.2857139999999987,"midi":55,"time":53.714232,"velocity":0.3937007874015748},{"duration":0.2857139999999987,"midi":67,"time":53.714232,"velocity":0.3937007874015748},{"duration":0.2857140000000058,"midi":65,"time":53.999946,"velocity":0.3937007874015748},{"duration":0.2857140000000058,"midi":69,"time":53.999946,"velocity":0.3937007874015748},{"duration":0.2857139999999987,"midi":67,"time":54.28566000000001,"velocity":0.3937007874015748},{"duration":0.2857139999999987,"midi":60,"time":54.28566000000001,"velocity":0.3937007874015748},{"duration":0.2857139999999987,"midi":65,"time":54.571374000000006,"velocity":0.3937007874015748},{"duration":0.2857139999999987,"midi":60,"time":54.571374000000006,"velocity":0.3937007874015748},{"duration":0.2857139999999987,"midi":53,"time":54.857088000000005,"velocity":0.3937007874015748},{"duration":0.2857139999999987,"midi":62,"time":54.857088000000005,"velocity":0.3937007874015748},{"duration":0.2857139999999987,"midi":58,"time":54.857088000000005,"velocity":0.3937007874015748},{"duration":0.14285699999999224,"midi":62,"time":55.42851600000001,"velocity":0.3937007874015748},{"duration":0.14285700000000645,"midi":64,"time":55.571373,"velocity":0.3937007874015748},{"duration":0.2857139999999916,"midi":62,"time":55.71423000000001,"velocity":0.3937007874015748},{"duration":0.2857139999999916,"midi":57,"time":55.71423000000001,"velocity":0.3937007874015748},{"duration":0.2857139999999916,"midi":65,"time":55.71423000000001,"velocity":0.3937007874015748},{"duration":0.2857140000000129,"midi":67,"time":55.999944,"velocity":0.3937007874015748},{"duration":0.2857140000000129,"midi":62,"time":55.999944,"velocity":0.3937007874015748},{"duration":0.2857140000000129,"midi":57,"time":55.999944,"velocity":0.3937007874015748},{"duration":0.2857139999999916,"midi":62,"time":56.28565800000001,"velocity":0.3937007874015748},{"duration":0.2857139999999916,"midi":69,"time":56.28565800000001,"velocity":0.3937007874015748},{"duration":0.2857139999999987,"midi":58,"time":56.571372000000004,"velocity":0.3937007874015748},{"duration":0.2857139999999987,"midi":62,"time":56.571372000000004,"velocity":0.3937007874015748},{"duration":0.2857139999999987,"midi":70,"time":56.571372000000004,"velocity":0.3937007874015748},{"duration":0.2857140000000058,"midi":62,"time":56.857086,"velocity":0.3937007874015748},{"duration":0.2857140000000058,"midi":58,"time":56.857086,"velocity":0.3937007874015748},{"duration":0.2857139999999987,"midi":62,"time":57.14280000000001,"velocity":0.3937007874015748},{"duration":0.2857139999999987,"midi":67,"time":57.14280000000001,"velocity":0.3937007874015748},{"duration":0.2857139999999916,"midi":65,"time":57.42851400000001,"velocity":0.3937007874015748},{"duration":0.2857139999999916,"midi":57,"time":57.42851400000001,"velocity":0.3937007874015748},{"duration":0.14285699999999224,"midi":67,"time":57.99994200000001,"velocity":0.3937007874015748},{"duration":0.14285699999999935,"midi":64,"time":58.142799000000004,"velocity":0.3937007874015748},{"duration":0.2857139999999987,"midi":62,"time":58.285656,"velocity":0.3937007874015748},{"duration":0.2857139999999987,"midi":57,"time":58.285656,"velocity":0.3937007874015748},{"duration":0.14285699999999224,"midi":64,"time":58.85708400000001,"velocity":0.3937007874015748},{"duration":0.14285700000000645,"midi":61,"time":58.999941,"velocity":0.3937007874015748},{"duration":0.8571419999999961,"midi":62,"time":59.142798000000006,"velocity":0.3937007874015748},{"duration":0.8571419999999961,"midi":69,"time":59.142798000000006,"velocity":0.3937007874015748},{"duration":0.8571419999999961,"midi":65,"time":59.142798000000006,"velocity":0.3937007874015748},{"duration":0.8571420000000032,"midi":70,"time":59.99994,"velocity":0.3937007874015748},{"duration":0.8571420000000032,"midi":62,"time":59.99994,"velocity":0.3937007874015748},{"duration":0.8571420000000032,"midi":65,"time":59.99994,"velocity":0.3937007874015748},{"duration":0.2857139999999987,"midi":60,"time":60.857082000000005,"velocity":0.3937007874015748},{"duration":0.2857139999999987,"midi":65,"time":60.857082000000005,"velocity":0.3937007874015748},{"duration":0.2857139999999987,"midi":69,"time":60.857082000000005,"velocity":0.3937007874015748},{"duration":0.2857140000000058,"midi":65,"time":61.142796000000004,"velocity":0.3937007874015748},{"duration":0.2857140000000058,"midi":60,"time":61.142796000000004,"velocity":0.3937007874015748},{"duration":0.2857140000000058,"midi":69,"time":61.142796000000004,"velocity":0.3937007874015748},{"duration":0.2857139999999916,"midi":65,"time":61.42851000000001,"velocity":0.3937007874015748},{"duration":0.2857139999999916,"midi":69,"time":61.42851000000001,"velocity":0.3937007874015748},{"duration":0.2857139999999916,"midi":60,"time":61.42851000000001,"velocity":0.3937007874015748},{"duration":0.14285700000000645,"midi":65,"time":61.714224,"velocity":0.3937007874015748},{"duration":0.14285700000000645,"midi":69,"time":61.714224,"velocity":0.3937007874015748},{"duration":0.14285700000000645,"midi":60,"time":61.714224,"velocity":0.3937007874015748},{"duration":0.2857139999999987,"midi":64,"time":61.85708100000001,"velocity":0.3937007874015748},{"duration":0.2857139999999987,"midi":67,"time":61.85708100000001,"velocity":0.3937007874015748},{"duration":0.2857139999999987,"midi":60,"time":61.85708100000001,"velocity":0.3937007874015748},{"duration":0.8571420000000032,"midi":62,"time":62.571366000000005,"velocity":0.3937007874015748},{"duration":0.8571420000000032,"midi":67,"time":62.571366000000005,"velocity":0.3937007874015748},{"duration":0.8571420000000032,"midi":58,"time":62.571366000000005,"velocity":0.3937007874015748},{"duration":0.8571419999999961,"midi":65,"time":63.42850800000001,"velocity":0.3937007874015748},{"duration":0.8571419999999961,"midi":57,"time":63.42850800000001,"velocity":0.3937007874015748},{"duration":0.8571419999999961,"midi":62,"time":63.42850800000001,"velocity":0.3937007874015748},{"duration":0.2857139999999987,"midi":57,"time":64.28565,"velocity":0.3937007874015748},{"duration":0.2857139999999987,"midi":64,"time":64.28565,"velocity":0.3937007874015748},{"duration":0.2857139999999987,"midi":61,"time":64.28565,"velocity":0.3937007874015748},{"duration":0.2857140000000129,"midi":65,"time":64.571364,"velocity":0.3937007874015748},{"duration":0.2857140000000129,"midi":61,"time":64.571364,"velocity":0.3937007874015748},{"duration":0.2857140000000129,"midi":57,"time":64.571364,"velocity":0.3937007874015748},{"duration":0.2857139999999845,"midi":64,"time":64.85707800000002,"velocity":0.3937007874015748},{"duration":0.2857139999999845,"midi":57,"time":64.85707800000002,"velocity":0.3937007874015748},{"duration":0.2857139999999845,"midi":61,"time":64.85707800000002,"velocity":0.3937007874015748},{"duration":0.42857100000000514,"midi":57,"time":65.142792,"velocity":0.3937007874015748},{"duration":0.14285700000000645,"midi":64,"time":65.142792,"velocity":0.3937007874015748},{"duration":0.2857139999999987,"midi":62,"time":65.285649,"velocity":0.3937007874015748},{"duration":0.14285700000000645,"midi":62,"time":65.571363,"velocity":0.3937007874015748},{"duration":0.14285700000000645,"midi":50,"time":65.571363,"velocity":0.3937007874015748},{"duration":0.14285699999999224,"midi":64,"time":65.71422000000001,"velocity":0.3937007874015748},{"duration":0.14285699999999224,"midi":52,"time":65.71422000000001,"velocity":0.3937007874015748},{"duration":0.14285699999999224,"midi":50,"time":65.71422000000001,"velocity":0.3937007874015748},{"duration":0.14285700000000645,"midi":53,"time":65.857077,"velocity":0.3937007874015748},{"duration":0.14285700000000645,"midi":65,"time":65.857077,"velocity":0.3937007874015748},{"duration":0.42857099999999093,"midi":65,"time":65.99993400000001,"velocity":0.3937007874015748},{"duration":0.42857099999999093,"midi":69,"time":65.99993400000001,"velocity":0.3937007874015748},{"duration":0.42857099999999093,"midi":57,"time":65.99993400000001,"velocity":0.3937007874015748},{"duration":0.42857099999999093,"midi":62,"time":65.99993400000001,"velocity":0.3937007874015748},{"duration":0.14285700000000645,"midi":50,"time":66.428505,"velocity":0.3937007874015748},{"duration":0.14285700000000645,"midi":62,"time":66.428505,"velocity":0.3937007874015748},{"duration":0.14285699999999224,"midi":52,"time":66.57136200000001,"velocity":0.3937007874015748},{"duration":0.14285699999999224,"midi":64,"time":66.57136200000001,"velocity":0.3937007874015748},{"duration":0.14285699999999224,"midi":50,"time":66.57136200000001,"velocity":0.3937007874015748},{"duration":0.14285700000000645,"midi":53,"time":66.714219,"velocity":0.3937007874015748},{"duration":0.14285700000000645,"midi":65,"time":66.714219,"velocity":0.3937007874015748},{"duration":0.42857100000000514,"midi":58,"time":66.857076,"velocity":0.3937007874015748},{"duration":0.42857100000000514,"midi":62,"time":66.857076,"velocity":0.3937007874015748},{"duration":0.42857100000000514,"midi":70,"time":66.857076,"velocity":0.3937007874015748},{"duration":0.42857100000000514,"midi":65,"time":66.857076,"velocity":0.3937007874015748},{"duration":0.14285699999999224,"midi":62,"time":67.28564700000001,"velocity":0.3937007874015748},{"duration":0.14285699999999224,"midi":50,"time":67.28564700000001,"velocity":0.3937007874015748},{"duration":0.14285699999999224,"midi":52,"time":67.428504,"velocity":0.3937007874015748},{"duration":0.14285699999999224,"midi":64,"time":67.428504,"velocity":0.3937007874015748},{"duration":0.14285700000000645,"midi":65,"time":67.571361,"velocity":0.3937007874015748},{"duration":0.14285700000000645,"midi":53,"time":67.571361,"velocity":0.3937007874015748},{"duration":0.2857139999999987,"midi":57,"time":67.714218,"velocity":0.3937007874015748},{"duration":0.2857139999999987,"midi":60,"time":67.714218,"velocity":0.3937007874015748},{"duration":0.2857139999999987,"midi":65,"time":67.714218,"velocity":0.3937007874015748},{"duration":0.2857139999999987,"midi":69,"time":67.714218,"velocity":0.3937007874015748},{"duration":0.2857140000000129,"midi":60,"time":67.999932,"velocity":0.3937007874015748},{"duration":0.2857140000000129,"midi":69,"time":67.999932,"velocity":0.3937007874015748},{"duration":0.2857140000000129,"midi":57,"time":67.999932,"velocity":0.3937007874015748},{"duration":0.2857140000000129,"midi":65,"time":67.999932,"velocity":0.3937007874015748},{"duration":0.2857139999999845,"midi":72,"time":68.28564600000001,"velocity":0.3937007874015748},{"duration":0.2857139999999845,"midi":60,"time":68.28564600000001,"velocity":0.3937007874015748},{"duration":0.2857139999999845,"midi":69,"time":68.28564600000001,"velocity":0.3937007874015748},{"duration":0.2857139999999845,"midi":65,"time":68.28564600000001,"velocity":0.3937007874015748},{"duration":0.14285700000000645,"midi":69,"time":68.57136,"velocity":0.3937007874015748},{"duration":0.14285700000000645,"midi":60,"time":68.57136,"velocity":0.3937007874015748},{"duration":0.14285700000000645,"midi":57,"time":68.57136,"velocity":0.3937007874015748},{"duration":0.14285700000000645,"midi":65,"time":68.57136,"velocity":0.3937007874015748},{"duration":0.14285699999999224,"midi":67,"time":68.714217,"velocity":0.3937007874015748},{"duration":0.14285699999999224,"midi":55,"time":68.714217,"velocity":0.3937007874015748},{"duration":0.8571419999999961,"midi":67,"time":69.42850200000001,"velocity":0.3937007874015748},{"duration":0.8571419999999961,"midi":58,"time":69.42850200000001,"velocity":0.3937007874015748},{"duration":0.8571419999999961,"midi":62,"time":69.42850200000001,"velocity":0.3937007874015748},{"duration":0.8571419999999961,"midi":55,"time":69.42850200000001,"velocity":0.3937007874015748},{"duration":0.8571419999999961,"midi":57,"time":70.285644,"velocity":0.3937007874015748},{"duration":0.8571419999999961,"midi":62,"time":70.285644,"velocity":0.3937007874015748},{"duration":0.8571419999999961,"midi":65,"time":70.285644,"velocity":0.3937007874015748},{"duration":0.8571419999999961,"midi":53,"time":70.285644,"velocity":0.3937007874015748},{"duration":0.2857139999999987,"midi":61,"time":71.142786,"velocity":0.3937007874015748},{"duration":0.2857139999999987,"midi":57,"time":71.142786,"velocity":0.3937007874015748},{"duration":0.2857139999999987,"midi":64,"time":71.142786,"velocity":0.3937007874015748},{"duration":0.2857139999999987,"midi":52,"time":71.142786,"velocity":0.3937007874015748},{"duration":0.2857140000000129,"midi":57,"time":71.4285,"velocity":0.3937007874015748},{"duration":0.2857140000000129,"midi":65,"time":71.4285,"velocity":0.3937007874015748},{"duration":0.2857140000000129,"midi":61,"time":71.4285,"velocity":0.3937007874015748},{"duration":0.2857140000000129,"midi":53,"time":71.4285,"velocity":0.3937007874015748},{"duration":0.2857139999999987,"midi":57,"time":71.71421400000001,"velocity":0.3937007874015748},{"duration":0.2857139999999987,"midi":52,"time":71.71421400000001,"velocity":0.3937007874015748},{"duration":0.2857139999999987,"midi":64,"time":71.71421400000001,"velocity":0.3937007874015748},{"duration":0.2857139999999987,"midi":61,"time":71.71421400000001,"velocity":0.3937007874015748},{"duration":0.42857099999999093,"midi":62,"time":71.99992800000001,"velocity":0.3937007874015748},{"duration":0.42857099999999093,"midi":53,"time":71.99992800000001,"velocity":0.3937007874015748},{"duration":0.42857099999999093,"midi":50,"time":71.99992800000001,"velocity":0.3937007874015748},{"duration":0.42857099999999093,"midi":57,"time":71.99992800000001,"velocity":0.3937007874015748},{"duration":0.14285699999999224,"midi":45,"time":72.57135600000001,"velocity":0.3937007874015748},{"duration":0.14285700000000645,"midi":48,"time":72.714213,"velocity":0.3937007874015748},{"duration":0.14285700000000645,"midi":41,"time":72.85707000000001,"velocity":0.3937007874015748},{"duration":0.14285700000000645,"midi":50,"time":72.85707000000001,"velocity":0.3937007874015748},{"duration":0.14285700000000645,"midi":45,"time":72.85707000000001,"velocity":0.3937007874015748},{"duration":0.14285700000000645,"midi":45,"time":73.142784,"velocity":0.3937007874015748},{"duration":0.14285700000000645,"midi":41,"time":73.142784,"velocity":0.3937007874015748},{"duration":0.14285700000000645,"midi":50,"time":73.142784,"velocity":0.3937007874015748},{"duration":0.14285699999999224,"midi":41,"time":73.428498,"velocity":0.3937007874015748},{"duration":0.14285699999999224,"midi":50,"time":73.428498,"velocity":0.3937007874015748},{"duration":0.14285699999999224,"midi":45,"time":73.428498,"velocity":0.3937007874015748},{"duration":0.14285700000000645,"midi":52,"time":73.571355,"velocity":0.3937007874015748},{"duration":0.14285700000000645,"midi":53,"time":73.714212,"velocity":0.3937007874015748},{"duration":0.14285700000000645,"midi":50,"time":73.714212,"velocity":0.3937007874015748},{"duration":0.14285700000000645,"midi":46,"time":73.714212,"velocity":0.3937007874015748},{"duration":0.14285700000000645,"midi":46,"time":73.999926,"velocity":0.3937007874015748},{"duration":0.14285700000000645,"midi":53,"time":73.999926,"velocity":0.3937007874015748},{"duration":0.14285700000000645,"midi":50,"time":73.999926,"velocity":0.3937007874015748},{"duration":0.14285699999999224,"midi":53,"time":74.28564000000001,"velocity":0.3937007874015748},{"duration":0.14285699999999224,"midi":50,"time":74.28564000000001,"velocity":0.3937007874015748},{"duration":0.14285699999999224,"midi":46,"time":74.28564000000001,"velocity":0.3937007874015748},{"duration":0.14285699999999224,"midi":55,"time":74.42849700000001,"velocity":0.3937007874015748},{"duration":0.14285700000000645,"midi":48,"time":74.571354,"velocity":0.3937007874015748},{"duration":0.14285700000000645,"midi":45,"time":74.571354,"velocity":0.3937007874015748},{"duration":0.14285700000000645,"midi":52,"time":74.571354,"velocity":0.3937007874015748},{"duration":0.14285700000000645,"midi":52,"time":74.857068,"velocity":0.3937007874015748},{"duration":0.14285700000000645,"midi":45,"time":74.857068,"velocity":0.3937007874015748},{"duration":0.14285700000000645,"midi":48,"time":74.857068,"velocity":0.3937007874015748},{"duration":0.14285699999999224,"midi":45,"time":75.14278200000001,"velocity":0.3937007874015748},{"duration":0.14285699999999224,"midi":50,"time":75.14278200000001,"velocity":0.3937007874015748},{"duration":0.14285700000000645,"midi":48,"time":75.285639,"velocity":0.3937007874015748},{"duration":0.14285700000000645,"midi":41,"time":75.42849600000001,"velocity":0.3937007874015748},{"duration":0.14285700000000645,"midi":48,"time":75.42849600000001,"velocity":0.3937007874015748},{"duration":0.42857099999999093,"midi":50,"time":75.57135300000002,"velocity":0.3937007874015748},{"duration":0.42857099999999093,"midi":45,"time":75.57135300000002,"velocity":0.3937007874015748},{"duration":0.42857099999999093,"midi":41,"time":75.57135300000002,"velocity":0.3937007874015748},{"duration":0.14285699999999224,"midi":45,"time":75.99992400000001,"velocity":0.3937007874015748},{"duration":0.14285700000000645,"midi":48,"time":76.142781,"velocity":0.3937007874015748},{"duration":0.14285700000000645,"midi":41,"time":76.285638,"velocity":0.3937007874015748},{"duration":0.14285700000000645,"midi":50,"time":76.285638,"velocity":0.3937007874015748},{"duration":0.14285700000000645,"midi":46,"time":76.285638,"velocity":0.3937007874015748},{"duration":0.14285700000000645,"midi":46,"time":76.571352,"velocity":0.3937007874015748},{"duration":0.14285700000000645,"midi":41,"time":76.571352,"velocity":0.3937007874015748},{"duration":0.14285700000000645,"midi":50,"time":76.571352,"velocity":0.3937007874015748},{"duration":0.14285699999997803,"midi":50,"time":76.85706600000002,"velocity":0.3937007874015748},{"duration":0.14285699999997803,"midi":46,"time":76.85706600000002,"velocity":0.3937007874015748},{"duration":0.14285699999997803,"midi":41,"time":76.85706600000002,"velocity":0.3937007874015748},{"duration":0.14285700000000645,"midi":52,"time":76.999923,"velocity":0.3937007874015748},{"duration":0.14285700000000645,"midi":45,"time":77.14278,"velocity":0.3937007874015748},{"duration":0.14285700000000645,"midi":48,"time":77.14278,"velocity":0.3937007874015748},{"duration":0.14285700000000645,"midi":53,"time":77.14278,"velocity":0.3937007874015748},{"duration":0.14285700000000645,"midi":48,"time":77.428494,"velocity":0.3937007874015748},{"duration":0.14285700000000645,"midi":53,"time":77.428494,"velocity":0.3937007874015748},{"duration":0.14285700000000645,"midi":45,"time":77.428494,"velocity":0.3937007874015748},{"duration":0.14285699999999224,"midi":53,"time":77.71420800000001,"velocity":0.3937007874015748},{"duration":0.14285699999999224,"midi":48,"time":77.71420800000001,"velocity":0.3937007874015748},{"duration":0.14285699999999224,"midi":45,"time":77.71420800000001,"velocity":0.3937007874015748},{"duration":0.14285700000000645,"midi":55,"time":77.857065,"velocity":0.3937007874015748},{"duration":0.14285699999999224,"midi":52,"time":77.99992200000001,"velocity":0.3937007874015748},{"duration":0.14285699999999224,"midi":48,"time":77.99992200000001,"velocity":0.3937007874015748},{"duration":0.14285699999999224,"midi":45,"time":77.99992200000001,"velocity":0.3937007874015748},{"duration":0.14285700000000645,"midi":48,"time":78.285636,"velocity":0.3937007874015748},{"duration":0.14285700000000645,"midi":52,"time":78.285636,"velocity":0.3937007874015748},{"duration":0.14285700000000645,"midi":45,"time":78.285636,"velocity":0.3937007874015748},{"duration":0.14285699999999224,"midi":45,"time":78.57135000000001,"velocity":0.3937007874015748},{"duration":0.14285699999999224,"midi":50,"time":78.57135000000001,"velocity":0.3937007874015748},{"duration":0.14285700000000645,"midi":48,"time":78.714207,"velocity":0.3937007874015748},{"duration":0.42857100000000514,"midi":45,"time":78.85706400000001,"velocity":0.3937007874015748},{"duration":0.42857100000000514,"midi":50,"time":78.85706400000001,"velocity":0.3937007874015748},{"duration":0.42857100000000514,"midi":41,"time":78.85706400000001,"velocity":0.3937007874015748},{"duration":0.14285699999999224,"midi":45,"time":79.428492,"velocity":0.3937007874015748},{"duration":0.14285700000000645,"midi":48,"time":79.571349,"velocity":0.3937007874015748},{"duration":0.14285700000000645,"midi":50,"time":79.714206,"velocity":0.3937007874015748},{"duration":0.14285700000000645,"midi":41,"time":79.714206,"velocity":0.3937007874015748},{"duration":0.14285700000000645,"midi":45,"time":79.714206,"velocity":0.3937007874015748},{"duration":0.14285700000000645,"midi":41,"time":79.99992,"velocity":0.3937007874015748},{"duration":0.14285700000000645,"midi":45,"time":79.99992,"velocity":0.3937007874015748},{"duration":0.14285700000000645,"midi":50,"time":79.99992,"velocity":0.3937007874015748},{"duration":0.14285699999999224,"midi":41,"time":80.28563400000002,"velocity":0.3937007874015748},{"duration":0.14285699999999224,"midi":50,"time":80.28563400000002,"velocity":0.3937007874015748},{"duration":0.14285699999999224,"midi":53,"time":80.42849100000001,"velocity":0.3937007874015748},{"duration":0.14285699999999224,"midi":41,"time":80.42849100000001,"velocity":0.3937007874015748},{"duration":0.14285700000000645,"midi":55,"time":80.571348,"velocity":0.3937007874015748},{"duration":0.14285700000000645,"midi":50,"time":80.571348,"velocity":0.3937007874015748},{"duration":0.14285700000000645,"midi":46,"time":80.571348,"velocity":0.3937007874015748},{"duration":0.14285700000000645,"midi":55,"time":80.857062,"velocity":0.3937007874015748},{"duration":0.14285700000000645,"midi":50,"time":80.857062,"velocity":0.3937007874015748},{"duration":0.14285700000000645,"midi":46,"time":80.857062,"velocity":0.3937007874015748},{"duration":0.14285699999999224,"midi":50,"time":81.14277600000001,"velocity":0.3937007874015748},{"duration":0.14285699999999224,"midi":55,"time":81.14277600000001,"velocity":0.3937007874015748},{"duration":0.14285699999999224,"midi":46,"time":81.14277600000001,"velocity":0.3937007874015748},{"duration":0.14285700000000645,"midi":57,"time":81.285633,"velocity":0.3937007874015748},{"duration":0.14285700000000645,"midi":55,"time":81.42849000000001,"velocity":0.3937007874015748},{"duration":0.14285700000000645,"midi":58,"time":81.42849000000001,"velocity":0.3937007874015748},{"duration":0.14285700000000645,"midi":50,"time":81.42849000000001,"velocity":0.3937007874015748},{"duration":0.14285699999999224,"midi":55,"time":81.71420400000001,"velocity":0.3937007874015748},{"duration":0.14285699999999224,"midi":50,"time":81.71420400000001,"velocity":0.3937007874015748},{"duration":0.14285699999999224,"midi":58,"time":81.71420400000001,"velocity":0.3937007874015748},{"duration":0.14285699999999224,"midi":57,"time":81.99991800000001,"velocity":0.3937007874015748},{"duration":0.14285699999999224,"midi":50,"time":81.99991800000001,"velocity":0.3937007874015748},{"duration":0.14285700000000645,"midi":55,"time":82.142775,"velocity":0.3937007874015748},{"duration":0.14285700000000645,"midi":50,"time":82.285632,"velocity":0.3937007874015748},{"duration":0.14285700000000645,"midi":57,"time":82.285632,"velocity":0.3937007874015748},{"duration":0.42857099999999093,"midi":50,"time":82.42848900000001,"velocity":0.3937007874015748},{"duration":0.42857099999999093,"midi":45,"time":82.42848900000001,"velocity":0.3937007874015748},{"duration":0.42857099999999093,"midi":41,"time":82.42848900000001,"velocity":0.3937007874015748},{"duration":0.14285699999999224,"midi":50,"time":82.85706,"velocity":0.3937007874015748},{"duration":0.14285700000000645,"midi":52,"time":82.999917,"velocity":0.3937007874015748},{"duration":0.14285700000000645,"midi":50,"time":83.142774,"velocity":0.3937007874015748},{"duration":0.14285700000000645,"midi":46,"time":83.142774,"velocity":0.3937007874015748},{"duration":0.14285700000000645,"midi":53,"time":83.142774,"velocity":0.3937007874015748},{"duration":0.14285700000000645,"midi":50,"time":83.428488,"velocity":0.3937007874015748},{"duration":0.14285700000000645,"midi":53,"time":83.428488,"velocity":0.3937007874015748},{"duration":0.14285700000000645,"midi":46,"time":83.428488,"velocity":0.3937007874015748},{"duration":0.14285699999999224,"midi":55,"time":83.71420200000001,"velocity":0.3937007874015748},{"duration":0.14285699999999224,"midi":46,"time":83.71420200000001,"velocity":0.3937007874015748},{"duration":0.14285699999999224,"midi":50,"time":83.71420200000001,"velocity":0.3937007874015748},{"duration":0.14285699999999224,"midi":53,"time":83.99991600000001,"velocity":0.3937007874015748},{"duration":0.14285699999999224,"midi":50,"time":83.99991600000001,"velocity":0.3937007874015748},{"duration":0.14285699999999224,"midi":57,"time":83.99991600000001,"velocity":0.3937007874015748},{"duration":0.14285699999999224,"midi":50,"time":84.57134400000001,"velocity":0.3937007874015748},{"duration":0.14285700000000645,"midi":53,"time":84.714201,"velocity":0.3937007874015748},{"duration":0.14285700000000645,"midi":49,"time":84.85705800000001,"velocity":0.3937007874015748},{"duration":0.14285700000000645,"midi":52,"time":84.85705800000001,"velocity":0.3937007874015748},{"duration":0.14285700000000645,"midi":45,"time":84.85705800000001,"velocity":0.3937007874015748},{"duration":0.14285699999999224,"midi":49,"time":85.14277200000001,"velocity":0.3937007874015748},{"duration":0.14285699999999224,"midi":45,"time":85.14277200000001,"velocity":0.3937007874015748},{"duration":0.14285699999999224,"midi":52,"time":85.14277200000001,"velocity":0.3937007874015748},{"duration":0.14285699999999224,"midi":53,"time":85.428486,"velocity":0.3937007874015748},{"duration":0.14285700000000645,"midi":50,"time":85.571343,"velocity":0.3937007874015748},{"duration":0.42857100000000514,"midi":52,"time":85.7142,"velocity":0.3937007874015748},{"duration":0.42857100000000514,"midi":45,"time":85.7142,"velocity":0.3937007874015748},{"duration":0.42857100000000514,"midi":49,"time":85.7142,"velocity":0.3937007874015748},{"duration":0.14285699999999224,"midi":57,"time":86.28562800000002,"velocity":0.3937007874015748},{"duration":0.14285699999999224,"midi":60,"time":86.42848500000001,"velocity":0.3937007874015748},{"duration":0.14285700000000645,"midi":62,"time":86.571342,"velocity":0.3937007874015748},{"duration":0.14285700000000645,"midi":57,"time":86.571342,"velocity":0.3937007874015748},{"duration":0.14285700000000645,"midi":53,"time":86.571342,"velocity":0.3937007874015748},{"duration":0.14285700000000645,"midi":57,"time":86.857056,"velocity":0.3937007874015748},{"duration":0.14285700000000645,"midi":53,"time":86.857056,"velocity":0.3937007874015748},{"duration":0.14285700000000645,"midi":62,"time":86.857056,"velocity":0.3937007874015748},{"duration":0.14285699999999224,"midi":62,"time":87.14277000000001,"velocity":0.3937007874015748},{"duration":0.14285699999999224,"midi":57,"time":87.14277000000001,"velocity":0.3937007874015748},{"duration":0.14285699999999224,"midi":53,"time":87.14277000000001,"velocity":0.3937007874015748},{"duration":0.14285700000000645,"midi":64,"time":87.285627,"velocity":0.3937007874015748},{"duration":0.14285700000000645,"midi":58,"time":87.42848400000001,"velocity":0.3937007874015748},{"duration":0.14285700000000645,"midi":65,"time":87.42848400000001,"velocity":0.3937007874015748},{"duration":0.14285700000000645,"midi":62,"time":87.42848400000001,"velocity":0.3937007874015748},{"duration":0.14285700000000645,"midi":62,"time":87.714198,"velocity":0.3937007874015748},{"duration":0.14285700000000645,"midi":65,"time":87.714198,"velocity":0.3937007874015748},{"duration":0.14285700000000645,"midi":58,"time":87.714198,"velocity":0.3937007874015748},{"duration":0.14285699999999224,"midi":62,"time":87.99991200000001,"velocity":0.3937007874015748},{"duration":0.14285699999999224,"midi":65,"time":87.99991200000001,"velocity":0.3937007874015748},{"duration":0.14285699999999224,"midi":58,"time":87.99991200000001,"velocity":0.3937007874015748},{"duration":0.14285700000000645,"midi":67,"time":88.142769,"velocity":0.3937007874015748},{"duration":0.14285700000000645,"midi":64,"time":88.28562600000001,"velocity":0.3937007874015748},{"duration":0.14285700000000645,"midi":57,"time":88.28562600000001,"velocity":0.3937007874015748},{"duration":0.14285700000000645,"midi":60,"time":88.28562600000001,"velocity":0.3937007874015748},{"duration":0.14285700000000645,"midi":64,"time":88.57134,"velocity":0.3937007874015748},{"duration":0.14285700000000645,"midi":60,"time":88.57134,"velocity":0.3937007874015748},{"duration":0.14285700000000645,"midi":57,"time":88.57134,"velocity":0.3937007874015748},{"duration":0.14285699999999224,"midi":57,"time":88.857054,"velocity":0.3937007874015748},{"duration":0.14285699999999224,"midi":62,"time":88.857054,"velocity":0.3937007874015748},{"duration":0.14285700000000645,"midi":60,"time":88.999911,"velocity":0.3937007874015748},{"duration":0.14285700000000645,"midi":53,"time":89.142768,"velocity":0.3937007874015748},{"duration":0.14285700000000645,"midi":60,"time":89.142768,"velocity":0.3937007874015748},{"duration":0.42857100000000514,"midi":53,"time":89.28562500000001,"velocity":0.3937007874015748},{"duration":0.42857100000000514,"midi":62,"time":89.28562500000001,"velocity":0.3937007874015748},{"duration":0.42857100000000514,"midi":57,"time":89.28562500000001,"velocity":0.3937007874015748},{"duration":0.14285699999999224,"midi":57,"time":89.71419600000002,"velocity":0.3937007874015748},{"duration":0.14285700000000645,"midi":60,"time":89.85705300000001,"velocity":0.3937007874015748},{"duration":0.14285699999999224,"midi":62,"time":89.99991000000001,"velocity":0.3937007874015748},{"duration":0.14285699999999224,"midi":58,"time":89.99991000000001,"velocity":0.3937007874015748},{"duration":0.14285699999999224,"midi":53,"time":89.99991000000001,"velocity":0.3937007874015748},{"duration":0.14285700000000645,"midi":58,"time":90.285624,"velocity":0.3937007874015748},{"duration":0.14285700000000645,"midi":62,"time":90.285624,"velocity":0.3937007874015748},{"duration":0.14285700000000645,"midi":53,"time":90.285624,"velocity":0.3937007874015748},{"duration":0.14285699999999224,"midi":53,"time":90.57133800000001,"velocity":0.3937007874015748},{"duration":0.14285699999999224,"midi":62,"time":90.57133800000001,"velocity":0.3937007874015748},{"duration":0.14285699999999224,"midi":58,"time":90.57133800000001,"velocity":0.3937007874015748},{"duration":0.14285700000000645,"midi":64,"time":90.714195,"velocity":0.3937007874015748},{"duration":0.14285700000000645,"midi":60,"time":90.85705200000001,"velocity":0.3937007874015748},{"duration":0.14285700000000645,"midi":65,"time":90.85705200000001,"velocity":0.3937007874015748},{"duration":0.14285700000000645,"midi":57,"time":90.85705200000001,"velocity":0.3937007874015748},{"duration":0.14285699999999224,"midi":57,"time":91.14276600000001,"velocity":0.3937007874015748},{"duration":0.14285699999999224,"midi":60,"time":91.14276600000001,"velocity":0.3937007874015748},{"duration":0.14285699999999224,"midi":65,"time":91.14276600000001,"velocity":0.3937007874015748},{"duration":0.14285699999999224,"midi":65,"time":91.42848000000001,"velocity":0.3937007874015748},{"duration":0.14285699999999224,"midi":60,"time":91.42848000000001,"velocity":0.3937007874015748},{"duration":0.14285699999999224,"midi":57,"time":91.42848000000001,"velocity":0.3937007874015748},{"duration":0.14285700000000645,"midi":67,"time":91.571337,"velocity":0.3937007874015748},{"duration":0.14285700000000645,"midi":64,"time":91.714194,"velocity":0.3937007874015748},{"duration":0.14285700000000645,"midi":60,"time":91.714194,"velocity":0.3937007874015748},{"duration":0.14285700000000645,"midi":57,"time":91.714194,"velocity":0.3937007874015748},{"duration":0.14285700000000645,"midi":57,"time":91.999908,"velocity":0.3937007874015748},{"duration":0.14285700000000645,"midi":60,"time":91.999908,"velocity":0.3937007874015748},{"duration":0.14285700000000645,"midi":64,"time":91.999908,"velocity":0.3937007874015748},{"duration":0.14285699999999224,"midi":57,"time":92.28562200000002,"velocity":0.3937007874015748},{"duration":0.14285699999999224,"midi":62,"time":92.28562200000002,"velocity":0.3937007874015748},{"duration":0.14285699999999224,"midi":60,"time":92.42847900000001,"velocity":0.3937007874015748},{"duration":0.42857100000000514,"midi":57,"time":92.571336,"velocity":0.3937007874015748},{"duration":0.42857100000000514,"midi":53,"time":92.571336,"velocity":0.3937007874015748},{"duration":0.42857100000000514,"midi":62,"time":92.571336,"velocity":0.3937007874015748},{"duration":0.14285699999999224,"midi":57,"time":93.14276400000001,"velocity":0.3937007874015748},{"duration":0.14285700000000645,"midi":60,"time":93.285621,"velocity":0.3937007874015748},{"duration":0.14285699999999224,"midi":62,"time":93.42847800000001,"velocity":0.3937007874015748},{"duration":0.14285699999999224,"midi":57,"time":93.42847800000001,"velocity":0.3937007874015748},{"duration":0.14285699999999224,"midi":53,"time":93.42847800000001,"velocity":0.3937007874015748},{"duration":0.14285700000000645,"midi":62,"time":93.714192,"velocity":0.3937007874015748},{"duration":0.14285700000000645,"midi":53,"time":93.714192,"velocity":0.3937007874015748},{"duration":0.14285700000000645,"midi":57,"time":93.714192,"velocity":0.3937007874015748},{"duration":0.14285699999999224,"midi":53,"time":93.99990600000001,"velocity":0.3937007874015748},{"duration":0.14285699999999224,"midi":62,"time":93.99990600000001,"velocity":0.3937007874015748},{"duration":0.14285700000000645,"midi":65,"time":94.142763,"velocity":0.3937007874015748},{"duration":0.14285700000000645,"midi":53,"time":94.142763,"velocity":0.3937007874015748},{"duration":0.14285700000000645,"midi":58,"time":94.28562000000001,"velocity":0.3937007874015748},{"duration":0.14285700000000645,"midi":62,"time":94.28562000000001,"velocity":0.3937007874015748},{"duration":0.14285700000000645,"midi":67,"time":94.28562000000001,"velocity":0.3937007874015748},{"duration":0.14285700000000645,"midi":67,"time":94.57133400000001,"velocity":0.3937007874015748},{"duration":0.14285700000000645,"midi":62,"time":94.57133400000001,"velocity":0.3937007874015748},{"duration":0.14285700000000645,"midi":58,"time":94.57133400000001,"velocity":0.3937007874015748},{"duration":0.14285699999999224,"midi":62,"time":94.857048,"velocity":0.3937007874015748},{"duration":0.14285699999999224,"midi":67,"time":94.857048,"velocity":0.3937007874015748},{"duration":0.14285699999999224,"midi":58,"time":94.857048,"velocity":0.3937007874015748},{"duration":0.14285700000000645,"midi":69,"time":94.999905,"velocity":0.3937007874015748},{"duration":0.14285700000000645,"midi":70,"time":95.142762,"velocity":0.3937007874015748},{"duration":0.14285700000000645,"midi":67,"time":95.142762,"velocity":0.3937007874015748},{"duration":0.14285700000000645,"midi":62,"time":95.142762,"velocity":0.3937007874015748},{"duration":0.14285700000000645,"midi":62,"time":95.428476,"velocity":0.3937007874015748},{"duration":0.14285700000000645,"midi":67,"time":95.428476,"velocity":0.3937007874015748},{"duration":0.14285700000000645,"midi":70,"time":95.428476,"velocity":0.3937007874015748},{"duration":0.14285699999999224,"midi":62,"time":95.71419000000002,"velocity":0.3937007874015748},{"duration":0.14285699999999224,"midi":69,"time":95.71419000000002,"velocity":0.3937007874015748},{"duration":0.14285700000000645,"midi":67,"time":95.85704700000001,"velocity":0.3937007874015748},{"duration":0.14285699999999224,"midi":69,"time":95.99990400000002,"velocity":0.3937007874015748},{"duration":0.14285699999999224,"midi":62,"time":95.99990400000002,"velocity":0.3937007874015748},{"duration":0.42857100000000514,"midi":62,"time":96.14276100000001,"velocity":0.3937007874015748},{"duration":0.42857100000000514,"midi":57,"time":96.14276100000001,"velocity":0.3937007874015748},{"duration":0.42857100000000514,"midi":53,"time":96.14276100000001,"velocity":0.3937007874015748},{"duration":0.14285699999999224,"midi":62,"time":96.57133200000001,"velocity":0.3937007874015748},{"duration":0.14285700000000645,"midi":64,"time":96.714189,"velocity":0.3937007874015748},{"duration":0.14285700000000645,"midi":58,"time":96.85704600000001,"velocity":0.3937007874015748},{"duration":0.14285700000000645,"midi":62,"time":96.85704600000001,"velocity":0.3937007874015748},{"duration":0.14285700000000645,"midi":65,"time":96.85704600000001,"velocity":0.3937007874015748},{"duration":0.14285699999999224,"midi":58,"time":97.14276000000001,"velocity":0.3937007874015748},{"duration":0.14285699999999224,"midi":65,"time":97.14276000000001,"velocity":0.3937007874015748},{"duration":0.14285699999999224,"midi":62,"time":97.14276000000001,"velocity":0.3937007874015748},{"duration":0.14285699999999224,"midi":58,"time":97.42847400000001,"velocity":0.3937007874015748},{"duration":0.14285699999999224,"midi":67,"time":97.42847400000001,"velocity":0.3937007874015748},{"duration":0.14285699999999224,"midi":62,"time":97.42847400000001,"velocity":0.3937007874015748},{"duration":0.14285700000000645,"midi":62,"time":97.71418800000001,"velocity":0.3937007874015748},{"duration":0.14285700000000645,"midi":65,"time":97.71418800000001,"velocity":0.3937007874015748},{"duration":0.14285700000000645,"midi":69,"time":97.71418800000001,"velocity":0.3937007874015748},{"duration":0.14285699999999224,"midi":62,"time":97.85704500000001,"velocity":0.3937007874015748},{"duration":0.14285699999999224,"midi":62,"time":98.28561600000002,"velocity":0.3937007874015748},{"duration":0.14285699999999224,"midi":65,"time":98.42847300000001,"velocity":0.3937007874015748},{"duration":0.14285700000000645,"midi":57,"time":98.57133,"velocity":0.3937007874015748},{"duration":0.14285700000000645,"midi":64,"time":98.57133,"velocity":0.3937007874015748},{"duration":0.14285700000000645,"midi":61,"time":98.57133,"velocity":0.3937007874015748},{"duration":0.14285700000000645,"midi":57,"time":98.857044,"velocity":0.3937007874015748},{"duration":0.14285700000000645,"midi":64,"time":98.857044,"velocity":0.3937007874015748},{"duration":0.14285700000000645,"midi":61,"time":98.857044,"velocity":0.3937007874015748},{"duration":0.14285699999999224,"midi":62,"time":99.14275800000001,"velocity":0.3937007874015748},{"duration":0.14285700000000645,"midi":61,"time":99.285615,"velocity":0.3937007874015748},{"duration":0.2857139999999845,"midi":62,"time":99.42847200000001,"velocity":0.3937007874015748},{"duration":0.2857139999999845,"midi":57,"time":99.42847200000001,"velocity":0.3937007874015748},{"duration":0.2857140000000129,"midi":57,"time":99.714186,"velocity":0.3937007874015748},{"duration":0.2857140000000129,"midi":62,"time":99.714186,"velocity":0.3937007874015748},{"duration":0.2857139999999987,"midi":57,"time":99.99990000000001,"velocity":0.3937007874015748},{"duration":0.2857139999999987,"midi":60,"time":99.99990000000001,"velocity":0.3937007874015748},{"duration":0.2857139999999987,"midi":64,"time":99.99990000000001,"velocity":0.3937007874015748},{"duration":0.2857139999999987,"midi":62,"time":100.28561400000001,"velocity":0.3937007874015748},{"duration":0.2857139999999987,"midi":65,"time":100.28561400000001,"velocity":0.3937007874015748},{"duration":0.2857139999999987,"midi":60,"time":100.28561400000001,"velocity":0.3937007874015748},{"duration":0.14285700000000645,"midi":65,"time":100.57132800000001,"velocity":0.3937007874015748},{"duration":0.14285699999999224,"midi":65,"time":100.71418500000001,"velocity":0.3937007874015748},{"duration":0.2857139999999987,"midi":62,"time":100.857042,"velocity":0.3937007874015748},{"duration":0.2857139999999987,"midi":58,"time":100.857042,"velocity":0.3937007874015748},{"duration":0.2857139999999987,"midi":67,"time":100.857042,"velocity":0.3937007874015748},{"duration":0.5714280000000116,"midi":69,"time":101.142756,"velocity":0.3937007874015748},{"duration":0.5714280000000116,"midi":62,"time":101.142756,"velocity":0.3937007874015748},{"duration":0.5714280000000116,"midi":65,"time":101.142756,"velocity":0.3937007874015748},{"duration":0.14285699999999224,"midi":65,"time":101.71418400000002,"velocity":0.3937007874015748},{"duration":0.14285699999999224,"midi":62,"time":101.85704100000001,"velocity":0.3937007874015748},{"duration":0.8571420000000103,"midi":57,"time":101.999898,"velocity":0.3937007874015748},{"duration":0.5714279999999974,"midi":65,"time":102.85704000000001,"velocity":0.3937007874015748},{"duration":0.5714279999999974,"midi":62,"time":102.85704000000001,"velocity":0.3937007874015748},{"duration":0.5714279999999974,"midi":70,"time":102.85704000000001,"velocity":0.3937007874015748},{"duration":0.14285699999999224,"midi":65,"time":103.42846800000001,"velocity":0.3937007874015748},{"duration":0.14285700000000645,"midi":62,"time":103.571325,"velocity":0.3937007874015748},{"duration":0.8571419999999961,"midi":58,"time":103.71418200000001,"velocity":0.3937007874015748},{"duration":0.14285700000000645,"midi":64,"time":104.571324,"velocity":0.3937007874015748},{"duration":0.14285700000000645,"midi":57,"time":104.571324,"velocity":0.3937007874015748},{"duration":0.2857139999999987,"midi":64,"time":104.71418100000001,"velocity":0.3937007874015748},{"duration":0.42857100000000514,"midi":53,"time":104.99989500000001,"velocity":0.3937007874015748},{"duration":0.42857100000000514,"midi":62,"time":104.99989500000001,"velocity":0.3937007874015748},{"duration":0.42857100000000514,"midi":57,"time":104.99989500000001,"velocity":0.3937007874015748},{"duration":0.42857099999999093,"midi":65,"time":105.42846600000001,"velocity":0.3937007874015748},{"duration":0.42857099999999093,"midi":61,"time":105.42846600000001,"velocity":0.3937007874015748},{"duration":0.42857099999999093,"midi":57,"time":105.42846600000001,"velocity":0.3937007874015748},{"duration":0.14285699999999224,"midi":53,"time":105.99989400000001,"velocity":0.3937007874015748},{"duration":0.14285700000000645,"midi":55,"time":106.142751,"velocity":0.3937007874015748},{"duration":0.14285700000000645,"midi":53,"time":106.28560800000001,"velocity":0.3937007874015748},{"duration":0.14285700000000645,"midi":57,"time":106.28560800000001,"velocity":0.3937007874015748},{"duration":0.14285700000000645,"midi":50,"time":106.28560800000001,"velocity":0.3937007874015748},{"duration":0.14285700000000645,"midi":50,"time":106.57132200000001,"velocity":0.3937007874015748},{"duration":0.14285700000000645,"midi":53,"time":106.57132200000001,"velocity":0.3937007874015748},{"duration":0.14285700000000645,"midi":57,"time":106.57132200000001,"velocity":0.3937007874015748},{"duration":0.14285699999999224,"midi":57,"time":106.85703600000001,"velocity":0.3937007874015748},{"duration":0.14285699999999224,"midi":53,"time":106.85703600000001,"velocity":0.3937007874015748},{"duration":0.14285699999999224,"midi":50,"time":106.85703600000001,"velocity":0.3937007874015748},{"duration":0.14285700000000645,"midi":55,"time":107.14275,"velocity":0.3937007874015748},{"duration":0.14285700000000645,"midi":58,"time":107.14275,"velocity":0.3937007874015748},{"duration":0.14285700000000645,"midi":50,"time":107.14275,"velocity":0.3937007874015748},{"duration":0.14285699999999224,"midi":57,"time":107.28560700000001,"velocity":0.3937007874015748},{"duration":0.14285699999999224,"midi":53,"time":107.28560700000001,"velocity":0.3937007874015748},{"duration":0.14285699999999224,"midi":50,"time":107.28560700000001,"velocity":0.3937007874015748},{"duration":0.14285700000000645,"midi":48,"time":107.999892,"velocity":0.3937007874015748},{"duration":0.14285700000000645,"midi":52,"time":107.999892,"velocity":0.3937007874015748},{"duration":0.14285700000000645,"midi":55,"time":107.999892,"velocity":0.3937007874015748},{"duration":0.14285700000000645,"midi":55,"time":108.285606,"velocity":0.3937007874015748},{"duration":0.14285700000000645,"midi":48,"time":108.285606,"velocity":0.3937007874015748},{"duration":0.14285700000000645,"midi":52,"time":108.285606,"velocity":0.3937007874015748},{"duration":0.14285699999999224,"midi":52,"time":108.57132000000001,"velocity":0.3937007874015748},{"duration":0.14285699999999224,"midi":48,"time":108.57132000000001,"velocity":0.3937007874015748},{"duration":0.14285699999999224,"midi":55,"time":108.57132000000001,"velocity":0.3937007874015748},{"duration":0.14285700000000645,"midi":52,"time":108.85703400000001,"velocity":0.3937007874015748},{"duration":0.14285700000000645,"midi":48,"time":108.85703400000001,"velocity":0.3937007874015748},{"duration":0.14285700000000645,"midi":55,"time":108.85703400000001,"velocity":0.3937007874015748},{"duration":0.14285699999999224,"midi":53,"time":108.99989100000002,"velocity":0.3937007874015748},{"duration":0.14285699999999224,"midi":48,"time":108.99989100000002,"velocity":0.3937007874015748},{"duration":0.14285699999999224,"midi":57,"time":108.99989100000002,"velocity":0.3937007874015748},{"duration":0.14285699999999224,"midi":53,"time":109.71417600000001,"velocity":0.3937007874015748},{"duration":0.14285699999999224,"midi":57,"time":109.71417600000001,"velocity":0.3937007874015748},{"duration":0.14285699999999224,"midi":50,"time":109.71417600000001,"velocity":0.3937007874015748},{"duration":0.14285699999999224,"midi":57,"time":109.99989000000002,"velocity":0.3937007874015748},{"duration":0.14285699999999224,"midi":53,"time":109.99989000000002,"velocity":0.3937007874015748},{"duration":0.14285699999999224,"midi":50,"time":109.99989000000002,"velocity":0.3937007874015748},{"duration":0.14285700000000645,"midi":50,"time":110.285604,"velocity":0.3937007874015748},{"duration":0.14285700000000645,"midi":53,"time":110.285604,"velocity":0.3937007874015748},{"duration":0.14285700000000645,"midi":57,"time":110.285604,"velocity":0.3937007874015748},{"duration":0.14285699999999224,"midi":58,"time":110.571318,"velocity":0.3937007874015748},{"duration":0.14285699999999224,"midi":50,"time":110.571318,"velocity":0.3937007874015748},{"duration":0.14285699999999224,"midi":55,"time":110.571318,"velocity":0.3937007874015748},{"duration":0.14285700000002066,"midi":50,"time":110.714175,"velocity":0.3937007874015748},{"duration":0.14285700000002066,"midi":53,"time":110.714175,"velocity":0.3937007874015748},{"duration":0.14285700000002066,"midi":57,"time":110.714175,"velocity":0.3937007874015748},{"duration":0.14285699999999224,"midi":52,"time":111.42846000000002,"velocity":0.3937007874015748},{"duration":0.14285699999999224,"midi":55,"time":111.42846000000002,"velocity":0.3937007874015748},{"duration":0.14285699999999224,"midi":49,"time":111.42846000000002,"velocity":0.3937007874015748},{"duration":0.14285699999999224,"midi":49,"time":111.71417400000001,"velocity":0.3937007874015748},{"duration":0.14285699999999224,"midi":53,"time":111.71417400000001,"velocity":0.3937007874015748},{"duration":0.14285700000002066,"midi":49,"time":111.999888,"velocity":0.3937007874015748},{"duration":0.14285700000002066,"midi":52,"time":111.999888,"velocity":0.3937007874015748},{"duration":0.14285699999999224,"midi":45,"time":112.28560200000001,"velocity":0.3937007874015748},{"duration":0.14285699999999224,"midi":41,"time":112.28560200000001,"velocity":0.3937007874015748},{"duration":0.14285699999999224,"midi":50,"time":112.28560200000001,"velocity":0.3937007874015748},{"duration":0.14285700000002066,"midi":50,"time":112.85703,"velocity":0.3937007874015748},{"duration":0.14285699999999224,"midi":52,"time":112.99988700000002,"velocity":0.3937007874015748},{"duration":0.5714279999999974,"midi":50,"time":113.14274400000001,"velocity":0.3937007874015748},{"duration":0.5714279999999974,"midi":45,"time":113.14274400000001,"velocity":0.3937007874015748},{"duration":0.5714279999999974,"midi":53,"time":113.14274400000001,"velocity":0.3937007874015748},{"duration":0.14285700000000645,"midi":55,"time":113.714172,"velocity":0.3937007874015748},{"duration":0.14285699999999224,"midi":57,"time":113.85702900000001,"velocity":0.3937007874015748},{"duration":0.2857140000000129,"midi":48,"time":113.999886,"velocity":0.3937007874015748},{"duration":0.2857140000000129,"midi":55,"time":113.999886,"velocity":0.3937007874015748},{"duration":0.2857140000000129,"midi":43,"time":113.999886,"velocity":0.3937007874015748},{"duration":0.2857139999999845,"midi":53,"time":114.28560000000002,"velocity":0.3937007874015748},{"duration":0.2857139999999845,"midi":43,"time":114.28560000000002,"velocity":0.3937007874015748},{"duration":0.2857139999999845,"midi":48,"time":114.28560000000002,"velocity":0.3937007874015748},{"duration":0.2857140000000129,"midi":43,"time":114.571314,"velocity":0.3937007874015748},{"duration":0.2857140000000129,"midi":48,"time":114.571314,"velocity":0.3937007874015748},{"duration":0.2857140000000129,"midi":52,"time":114.571314,"velocity":0.3937007874015748},{"duration":0.2857139999999987,"midi":45,"time":114.85702800000001,"velocity":0.3937007874015748},{"duration":0.2857139999999987,"midi":48,"time":114.85702800000001,"velocity":0.3937007874015748},{"duration":0.2857139999999987,"midi":53,"time":114.85702800000001,"velocity":0.3937007874015748},{"duration":0.2857139999999845,"midi":48,"time":115.14274200000001,"velocity":0.3937007874015748},{"duration":0.2857139999999845,"midi":45,"time":115.14274200000001,"velocity":0.3937007874015748},{"duration":0.2857139999999845,"midi":55,"time":115.14274200000001,"velocity":0.3937007874015748},{"duration":0.2857140000000129,"midi":45,"time":115.428456,"velocity":0.3937007874015748},{"duration":0.2857140000000129,"midi":57,"time":115.428456,"velocity":0.3937007874015748},{"duration":0.2857140000000129,"midi":48,"time":115.428456,"velocity":0.3937007874015748},{"duration":0.5714279999999974,"midi":55,"time":115.71417000000001,"velocity":0.3937007874015748},{"duration":0.5714279999999974,"midi":52,"time":115.71417000000001,"velocity":0.3937007874015748},{"duration":0.5714279999999974,"midi":48,"time":115.71417000000001,"velocity":0.3937007874015748},{"duration":0.14285700000000645,"midi":53,"time":116.28559800000001,"velocity":0.3937007874015748},{"duration":0.14285699999999224,"midi":55,"time":116.42845500000001,"velocity":0.3937007874015748},{"duration":0.5714279999999974,"midi":50,"time":116.571312,"velocity":0.3937007874015748},{"duration":0.5714279999999974,"midi":57,"time":116.571312,"velocity":0.3937007874015748},{"duration":0.5714279999999974,"midi":53,"time":116.571312,"velocity":0.3937007874015748},{"duration":0.14285700000002066,"midi":55,"time":117.14274,"velocity":0.3937007874015748},{"duration":0.14285699999999224,"midi":53,"time":117.28559700000002,"velocity":0.3937007874015748},{"duration":0.2857139999999987,"midi":52,"time":117.42845400000002,"velocity":0.3937007874015748},{"duration":0.2857139999999987,"midi":49,"time":117.42845400000002,"velocity":0.3937007874015748},{"duration":0.2857139999999845,"midi":53,"time":117.71416800000002,"velocity":0.3937007874015748},{"duration":0.2857139999999845,"midi":49,"time":117.71416800000002,"velocity":0.3937007874015748},{"duration":0.2857140000000129,"midi":52,"time":117.999882,"velocity":0.3937007874015748},{"duration":0.2857140000000129,"midi":49,"time":117.999882,"velocity":0.3937007874015748},{"duration":0.2857139999999987,"midi":50,"time":118.28559600000001,"velocity":0.3937007874015748},{"duration":0.2857139999999987,"midi":41,"time":118.28559600000001,"velocity":0.3937007874015748},{"duration":0.2857139999999987,"midi":45,"time":118.28559600000001,"velocity":0.3937007874015748},{"duration":0.14285700000002066,"midi":52,"time":118.857024,"velocity":0.3937007874015748},{"duration":0.14285699999999224,"midi":48,"time":118.99988100000002,"velocity":0.3937007874015748},{"duration":0.2857140000000129,"midi":50,"time":119.14273800000001,"velocity":0.3937007874015748},{"duration":0.2857140000000129,"midi":41,"time":119.14273800000001,"velocity":0.3937007874015748},{"duration":0.2857140000000129,"midi":45,"time":119.14273800000001,"velocity":0.3937007874015748},{"duration":0.14285700000000645,"midi":62,"time":119.714166,"velocity":0.3937007874015748},{"duration":0.14285699999999224,"midi":64,"time":119.85702300000001,"velocity":0.3937007874015748},{"duration":0.5714279999999974,"midi":65,"time":119.99988,"velocity":0.3937007874015748},{"duration":0.5714279999999974,"midi":57,"time":119.99988,"velocity":0.3937007874015748},{"duration":0.5714279999999974,"midi":62,"time":119.99988,"velocity":0.3937007874015748},{"duration":0.14285700000002066,"midi":64,"time":120.571308,"velocity":0.3937007874015748},{"duration":0.14285699999999224,"midi":65,"time":120.71416500000002,"velocity":0.3937007874015748},{"duration":0.2857139999999987,"midi":60,"time":120.85702200000001,"velocity":0.3937007874015748},{"duration":0.2857139999999987,"midi":67,"time":120.85702200000001,"velocity":0.3937007874015748},{"duration":0.2857139999999987,"midi":55,"time":120.85702200000001,"velocity":0.3937007874015748},{"duration":0.2857139999999845,"midi":65,"time":121.14273600000001,"velocity":0.3937007874015748},{"duration":0.2857139999999845,"midi":55,"time":121.14273600000001,"velocity":0.3937007874015748},{"duration":0.2857139999999845,"midi":60,"time":121.14273600000001,"velocity":0.3937007874015748},{"duration":0.2857140000000129,"midi":67,"time":121.42845,"velocity":0.3937007874015748},{"duration":0.2857140000000129,"midi":55,"time":121.42845,"velocity":0.3937007874015748},{"duration":0.2857140000000129,"midi":60,"time":121.42845,"velocity":0.3937007874015748},{"duration":0.2857140000000129,"midi":69,"time":121.71416400000001,"velocity":0.3937007874015748},{"duration":0.2857140000000129,"midi":65,"time":121.71416400000001,"velocity":0.3937007874015748},{"duration":0.2857139999999845,"midi":67,"time":121.99987800000002,"velocity":0.3937007874015748},{"duration":0.2857139999999845,"midi":60,"time":121.99987800000002,"velocity":0.3937007874015748},{"duration":0.2857139999999987,"midi":65,"time":122.28559200000001,"velocity":0.3937007874015748},{"duration":0.2857139999999987,"midi":60,"time":122.28559200000001,"velocity":0.3937007874015748},{"duration":0.2857140000000129,"midi":58,"time":122.571306,"velocity":0.3937007874015748},{"duration":0.2857140000000129,"midi":62,"time":122.571306,"velocity":0.3937007874015748},{"duration":0.2857140000000129,"midi":53,"time":122.571306,"velocity":0.3937007874015748},{"duration":0.14285700000002066,"midi":62,"time":123.142734,"velocity":0.3937007874015748},{"duration":0.14285699999997803,"midi":64,"time":123.28559100000003,"velocity":0.3937007874015748},{"duration":0.2857140000000129,"midi":57,"time":123.428448,"velocity":0.3937007874015748},{"duration":0.2857140000000129,"midi":65,"time":123.428448,"velocity":0.3937007874015748},{"duration":0.2857140000000129,"midi":62,"time":123.428448,"velocity":0.3937007874015748},{"duration":0.2857139999999845,"midi":57,"time":123.71416200000002,"velocity":0.3937007874015748},{"duration":0.2857139999999845,"midi":62,"time":123.71416200000002,"velocity":0.3937007874015748},{"duration":0.2857139999999845,"midi":67,"time":123.71416200000002,"velocity":0.3937007874015748},{"duration":0.2857140000000129,"midi":62,"time":123.999876,"velocity":0.3937007874015748},{"duration":0.2857140000000129,"midi":69,"time":123.999876,"velocity":0.3937007874015748},{"duration":0.2857139999999987,"midi":62,"time":124.28559000000001,"velocity":0.3937007874015748},{"duration":0.2857139999999987,"midi":58,"time":124.28559000000001,"velocity":0.3937007874015748},{"duration":0.2857139999999987,"midi":70,"time":124.28559000000001,"velocity":0.3937007874015748},{"duration":0.2857139999999845,"midi":58,"time":124.57130400000001,"velocity":0.3937007874015748},{"duration":0.2857139999999845,"midi":62,"time":124.57130400000001,"velocity":0.3937007874015748},{"duration":0.2857140000000129,"midi":62,"time":124.857018,"velocity":0.3937007874015748},{"duration":0.2857140000000129,"midi":67,"time":124.857018,"velocity":0.3937007874015748},{"duration":0.2857140000000129,"midi":65,"time":125.14273200000001,"velocity":0.3937007874015748},{"duration":0.2857140000000129,"midi":57,"time":125.14273200000001,"velocity":0.3937007874015748},{"duration":0.14285700000000645,"midi":67,"time":125.71416,"velocity":0.3937007874015748},{"duration":0.14285699999999224,"midi":64,"time":125.85701700000001,"velocity":0.3937007874015748},{"duration":0.2857140000000129,"midi":62,"time":125.999874,"velocity":0.3937007874015748},{"duration":0.2857140000000129,"midi":57,"time":125.999874,"velocity":0.3937007874015748},{"duration":0.14285700000002066,"midi":64,"time":126.571302,"velocity":0.3937007874015748},{"duration":0.14285699999999224,"midi":61,"time":126.71415900000002,"velocity":0.3937007874015748},{"duration":0.14285699999999224,"midi":62,"time":126.85701600000002,"velocity":0.3937007874015748},{"duration":0.14285699999999224,"midi":50,"time":126.85701600000002,"velocity":0.3937007874015748},{"duration":0.14285700000000645,"midi":48,"time":126.99987300000001,"velocity":0.3937007874015748},{"duration":0.14285700000000645,"midi":60,"time":126.99987300000001,"velocity":0.3937007874015748},{"duration":0.14285699999999224,"midi":50,"time":127.14273000000001,"velocity":0.3937007874015748},{"duration":0.14285699999999224,"midi":62,"time":127.14273000000001,"velocity":0.3937007874015748},{"duration":0.14285699999999224,"midi":64,"time":127.285587,"velocity":0.3937007874015748},{"duration":0.14285699999999224,"midi":52,"time":127.285587,"velocity":0.3937007874015748},{"duration":0.14285700000002066,"midi":50,"time":127.428444,"velocity":0.3937007874015748},{"duration":0.14285700000002066,"midi":62,"time":127.428444,"velocity":0.3937007874015748},{"duration":0.14285699999999224,"midi":64,"time":127.57130100000002,"velocity":0.3937007874015748},{"duration":0.14285699999999224,"midi":52,"time":127.57130100000002,"velocity":0.3937007874015748},{"duration":0.14285699999999224,"midi":65,"time":127.71415800000001,"velocity":0.3937007874015748},{"duration":0.14285699999999224,"midi":53,"time":127.71415800000001,"velocity":0.3937007874015748},{"duration":0.14285700000002066,"midi":64,"time":127.857015,"velocity":0.3937007874015748},{"duration":0.14285700000002066,"midi":52,"time":127.857015,"velocity":0.3937007874015748},{"duration":0.14285699999997803,"midi":65,"time":127.99987200000002,"velocity":0.3937007874015748},{"duration":0.14285699999997803,"midi":53,"time":127.99987200000002,"velocity":0.3937007874015748},{"duration":0.14285699999999224,"midi":55,"time":128.142729,"velocity":0.3937007874015748},{"duration":0.14285699999999224,"midi":67,"time":128.142729,"velocity":0.3937007874015748},{"duration":0.14285700000002066,"midi":65,"time":128.285586,"velocity":0.3937007874015748},{"duration":0.14285700000002066,"midi":53,"time":128.285586,"velocity":0.3937007874015748},{"duration":0.14285699999999224,"midi":67,"time":128.42844300000002,"velocity":0.3937007874015748},{"duration":0.14285699999999224,"midi":55,"time":128.42844300000002,"velocity":0.3937007874015748},{"duration":0.14285699999999224,"midi":69,"time":128.5713,"velocity":0.3937007874015748},{"duration":0.14285699999999224,"midi":57,"time":128.5713,"velocity":0.3937007874015748},{"duration":0.14285699999999224,"midi":57,"time":128.85701400000002,"velocity":0.3937007874015748},{"duration":0.14285699999999224,"midi":69,"time":128.85701400000002,"velocity":0.3937007874015748},{"duration":0.14285699999999224,"midi":57,"time":128.999871,"velocity":0.3937007874015748},{"duration":0.14285699999999224,"midi":69,"time":128.999871,"velocity":0.3937007874015748},{"duration":0.14285700000002066,"midi":57,"time":129.142728,"velocity":0.3937007874015748},{"duration":0.14285700000002066,"midi":69,"time":129.142728,"velocity":0.3937007874015748},{"duration":0.14285699999999224,"midi":69,"time":129.42844200000002,"velocity":0.3937007874015748},{"duration":0.14285699999999224,"midi":57,"time":129.42844200000002,"velocity":0.3937007874015748},{"duration":0.14285699999999224,"midi":69,"time":129.71415600000003,"velocity":0.3937007874015748},{"duration":0.14285699999999224,"midi":57,"time":129.71415600000003,"velocity":0.3937007874015748},{"duration":0.14285699999999224,"midi":70,"time":129.99987000000002,"velocity":0.3937007874015748},{"duration":0.14285699999999224,"midi":58,"time":129.99987000000002,"velocity":0.3937007874015748},{"duration":0.14285699999999224,"midi":57,"time":130.285584,"velocity":0.3937007874015748},{"duration":0.14285699999999224,"midi":69,"time":130.285584,"velocity":0.3937007874015748},{"duration":0.14285699999999224,"midi":69,"time":130.571298,"velocity":0.3937007874015748},{"duration":0.14285699999999224,"midi":57,"time":130.571298,"velocity":0.3937007874015748},{"duration":0.14285699999999224,"midi":57,"time":130.714155,"velocity":0.3937007874015748},{"duration":0.14285699999999224,"midi":69,"time":130.714155,"velocity":0.3937007874015748},{"duration":0.14285700000002066,"midi":69,"time":130.857012,"velocity":0.3937007874015748},{"duration":0.14285700000002066,"midi":57,"time":130.857012,"velocity":0.3937007874015748},{"duration":0.14285699999999224,"midi":69,"time":131.142726,"velocity":0.3937007874015748},{"duration":0.14285699999999224,"midi":57,"time":131.142726,"velocity":0.3937007874015748},{"duration":0.14285699999999224,"midi":57,"time":131.42844000000002,"velocity":0.3937007874015748},{"duration":0.14285699999999224,"midi":69,"time":131.42844000000002,"velocity":0.3937007874015748},{"duration":0.14285700000002066,"midi":72,"time":131.714154,"velocity":0.3937007874015748},{"duration":0.14285700000002066,"midi":60,"time":131.714154,"velocity":0.3937007874015748},{"duration":0.8571419999999819,"midi":69,"time":131.99986800000002,"velocity":0.3937007874015748},{"duration":0.8571419999999819,"midi":62,"time":131.99986800000002,"velocity":0.3937007874015748},{"duration":0.8571419999999819,"midi":65,"time":131.99986800000002,"velocity":0.3937007874015748},{"duration":0.8571420000000103,"midi":65,"time":132.85701,"velocity":0.3937007874015748},{"duration":0.8571420000000103,"midi":62,"time":132.85701,"velocity":0.3937007874015748},{"duration":0.8571420000000103,"midi":70,"time":132.85701,"velocity":0.3937007874015748},{"duration":0.2857140000000129,"midi":69,"time":133.714152,"velocity":0.3937007874015748},{"duration":0.2857140000000129,"midi":65,"time":133.714152,"velocity":0.3937007874015748},{"duration":0.2857140000000129,"midi":60,"time":133.714152,"velocity":0.3937007874015748},{"duration":0.2857139999999845,"midi":65,"time":133.99986600000003,"velocity":0.3937007874015748},{"duration":0.2857139999999845,"midi":60,"time":133.99986600000003,"velocity":0.3937007874015748},{"duration":0.2857139999999845,"midi":69,"time":133.99986600000003,"velocity":0.3937007874015748},{"duration":0.2857140000000129,"midi":60,"time":134.28558,"velocity":0.3937007874015748},{"duration":0.2857140000000129,"midi":65,"time":134.28558,"velocity":0.3937007874015748},{"duration":0.2857140000000129,"midi":69,"time":134.28558,"velocity":0.3937007874015748},{"duration":0.14285699999999224,"midi":69,"time":134.57129400000002,"velocity":0.3937007874015748},{"duration":0.14285699999999224,"midi":60,"time":134.57129400000002,"velocity":0.3937007874015748},{"duration":0.14285699999999224,"midi":65,"time":134.57129400000002,"velocity":0.3937007874015748},{"duration":0.2857139999999845,"midi":64,"time":134.71415100000002,"velocity":0.3937007874015748},{"duration":0.2857139999999845,"midi":67,"time":134.71415100000002,"velocity":0.3937007874015748},{"duration":0.2857139999999845,"midi":60,"time":134.71415100000002,"velocity":0.3937007874015748},{"duration":0.8571420000000103,"midi":62,"time":135.428436,"velocity":0.3937007874015748},{"duration":0.8571420000000103,"midi":67,"time":135.428436,"velocity":0.3937007874015748},{"duration":0.8571420000000103,"midi":58,"time":135.428436,"velocity":0.3937007874015748},{"duration":0.8571419999999819,"midi":57,"time":136.28557800000002,"velocity":0.3937007874015748},{"duration":0.8571419999999819,"midi":62,"time":136.28557800000002,"velocity":0.3937007874015748},{"duration":0.8571419999999819,"midi":65,"time":136.28557800000002,"velocity":0.3937007874015748},{"duration":0.2857140000000129,"midi":57,"time":137.14272,"velocity":0.3937007874015748},{"duration":0.2857140000000129,"midi":61,"time":137.14272,"velocity":0.3937007874015748},{"duration":0.2857140000000129,"midi":64,"time":137.14272,"velocity":0.3937007874015748},{"duration":0.2857139999999845,"midi":65,"time":137.428434,"velocity":0.3937007874015748},{"duration":0.2857139999999845,"midi":61,"time":137.428434,"velocity":0.3937007874015748},{"duration":0.2857139999999845,"midi":57,"time":137.428434,"velocity":0.3937007874015748},{"duration":0.2857140000000129,"midi":64,"time":137.714148,"velocity":0.3937007874015748},{"duration":0.2857140000000129,"midi":61,"time":137.714148,"velocity":0.3937007874015748},{"duration":0.2857140000000129,"midi":57,"time":137.714148,"velocity":0.3937007874015748},{"duration":0.42857100000000514,"midi":57,"time":137.999862,"velocity":0.3937007874015748},{"duration":0.14285699999999224,"midi":64,"time":137.999862,"velocity":0.3937007874015748},{"duration":0.2857140000000129,"midi":62,"time":138.142719,"velocity":0.3937007874015748},{"duration":0.14285699999999224,"midi":62,"time":138.428433,"velocity":0.3937007874015748},{"duration":0.14285699999999224,"midi":50,"time":138.428433,"velocity":0.3937007874015748},{"duration":0.14285700000002066,"midi":52,"time":138.57129,"velocity":0.3937007874015748},{"duration":0.14285700000002066,"midi":64,"time":138.57129,"velocity":0.3937007874015748},{"duration":0.14285699999999224,"midi":53,"time":138.71414700000003,"velocity":0.3937007874015748},{"duration":0.14285699999999224,"midi":65,"time":138.71414700000003,"velocity":0.3937007874015748},{"duration":0.42857100000000514,"midi":57,"time":138.85700400000002,"velocity":0.3937007874015748},{"duration":0.42857100000000514,"midi":69,"time":138.85700400000002,"velocity":0.3937007874015748},{"duration":0.42857100000000514,"midi":65,"time":138.85700400000002,"velocity":0.3937007874015748},{"duration":0.42857100000000514,"midi":62,"time":138.85700400000002,"velocity":0.3937007874015748},{"duration":0.14285699999999224,"midi":62,"time":139.28557500000002,"velocity":0.3937007874015748},{"duration":0.14285699999999224,"midi":50,"time":139.28557500000002,"velocity":0.3937007874015748},{"duration":0.14285699999999224,"midi":50,"time":139.42843200000002,"velocity":0.3937007874015748},{"duration":0.14285699999999224,"midi":52,"time":139.42843200000002,"velocity":0.3937007874015748},{"duration":0.14285699999999224,"midi":64,"time":139.42843200000002,"velocity":0.3937007874015748},{"duration":0.14285699999999224,"midi":65,"time":139.571289,"velocity":0.3937007874015748},{"duration":0.14285699999999224,"midi":53,"time":139.571289,"velocity":0.3937007874015748},{"duration":0.42857100000000514,"midi":62,"time":139.714146,"velocity":0.3937007874015748},{"duration":0.42857100000000514,"midi":65,"time":139.714146,"velocity":0.3937007874015748},{"duration":0.42857100000000514,"midi":58,"time":139.714146,"velocity":0.3937007874015748},{"duration":0.42857100000000514,"midi":70,"time":139.714146,"velocity":0.3937007874015748},{"duration":0.14285699999999224,"midi":62,"time":140.142717,"velocity":0.3937007874015748},{"duration":0.14285699999999224,"midi":50,"time":140.142717,"velocity":0.3937007874015748},{"duration":0.14285700000002066,"midi":52,"time":140.285574,"velocity":0.3937007874015748},{"duration":0.14285700000002066,"midi":64,"time":140.285574,"velocity":0.3937007874015748},{"duration":0.14285699999999224,"midi":65,"time":140.42843100000002,"velocity":0.3937007874015748},{"duration":0.14285699999999224,"midi":53,"time":140.42843100000002,"velocity":0.3937007874015748},{"duration":0.2857140000000129,"midi":60,"time":140.571288,"velocity":0.3937007874015748},{"duration":0.2857140000000129,"midi":69,"time":140.571288,"velocity":0.3937007874015748},{"duration":0.2857140000000129,"midi":57,"time":140.571288,"velocity":0.3937007874015748},{"duration":0.2857140000000129,"midi":65,"time":140.571288,"velocity":0.3937007874015748},{"duration":0.2857139999999845,"midi":65,"time":140.85700200000002,"velocity":0.3937007874015748},{"duration":0.2857139999999845,"midi":60,"time":140.85700200000002,"velocity":0.3937007874015748},{"duration":0.2857139999999845,"midi":57,"time":140.85700200000002,"velocity":0.3937007874015748},{"duration":0.2857139999999845,"midi":69,"time":140.85700200000002,"velocity":0.3937007874015748},{"duration":0.2857140000000129,"midi":65,"time":141.142716,"velocity":0.3937007874015748},{"duration":0.2857140000000129,"midi":69,"time":141.142716,"velocity":0.3937007874015748},{"duration":0.2857140000000129,"midi":60,"time":141.142716,"velocity":0.3937007874015748},{"duration":0.2857140000000129,"midi":72,"time":141.142716,"velocity":0.3937007874015748},{"duration":0.14285699999999224,"midi":57,"time":141.42843000000002,"velocity":0.3937007874015748},{"duration":0.14285699999999224,"midi":60,"time":141.42843000000002,"velocity":0.3937007874015748},{"duration":0.14285699999999224,"midi":69,"time":141.42843000000002,"velocity":0.3937007874015748},{"duration":0.14285699999999224,"midi":65,"time":141.42843000000002,"velocity":0.3937007874015748},{"duration":0.14285700000002066,"midi":67,"time":141.571287,"velocity":0.3937007874015748},{"duration":0.14285700000002066,"midi":55,"time":141.571287,"velocity":0.3937007874015748},{"duration":0.8571420000000103,"midi":62,"time":142.285572,"velocity":0.3937007874015748},{"duration":0.8571420000000103,"midi":67,"time":142.285572,"velocity":0.3937007874015748},{"duration":0.8571420000000103,"midi":55,"time":142.285572,"velocity":0.3937007874015748},{"duration":0.8571420000000103,"midi":58,"time":142.285572,"velocity":0.3937007874015748},{"duration":0.8571420000000103,"midi":57,"time":143.142714,"velocity":0.3937007874015748},{"duration":0.8571420000000103,"midi":62,"time":143.142714,"velocity":0.3937007874015748},{"duration":0.8571420000000103,"midi":53,"time":143.142714,"velocity":0.3937007874015748},{"duration":0.8571420000000103,"midi":65,"time":143.142714,"velocity":0.3937007874015748},{"duration":0.2857139999999845,"midi":57,"time":143.99985600000002,"velocity":0.3937007874015748},{"duration":0.2857139999999845,"midi":52,"time":143.99985600000002,"velocity":0.3937007874015748},{"duration":0.2857139999999845,"midi":64,"time":143.99985600000002,"velocity":0.3937007874015748},{"duration":0.2857139999999845,"midi":61,"time":143.99985600000002,"velocity":0.3937007874015748},{"duration":0.2857139999999845,"midi":57,"time":144.28557,"velocity":0.3937007874015748},{"duration":0.2857139999999845,"midi":65,"time":144.28557,"velocity":0.3937007874015748},{"duration":0.2857139999999845,"midi":53,"time":144.28557,"velocity":0.3937007874015748},{"duration":0.2857139999999845,"midi":61,"time":144.28557,"velocity":0.3937007874015748},{"duration":0.2857140000000129,"midi":64,"time":144.571284,"velocity":0.3937007874015748},{"duration":0.2857140000000129,"midi":57,"time":144.571284,"velocity":0.3937007874015748},{"duration":0.2857140000000129,"midi":61,"time":144.571284,"velocity":0.3937007874015748},{"duration":0.2857140000000129,"midi":52,"time":144.571284,"velocity":0.3937007874015748},{"duration":0.42857100000000514,"midi":62,"time":144.856998,"velocity":0.3937007874015748},{"duration":0.42857100000000514,"midi":57,"time":144.856998,"velocity":0.3937007874015748},{"duration":0.42857100000000514,"midi":53,"time":144.856998,"velocity":0.3937007874015748},{"duration":0.42857100000000514,"midi":50,"time":144.856998,"velocity":0.3937007874015748},{"duration":1.7142839999999921,"midi":50,"time":145.71414000000001,"velocity":0.3937007874015748}]},{"instrument":{"family":"strings","number":40,"name":"violin"},"notes":[{"duration":0.142857,"midi":62,"time":0,"velocity":0.3937007874015748},{"duration":0.142857,"midi":62,"time":0,"velocity":0.3937007874015748},{"duration":0.142857,"midi":62,"time":0.285714,"velocity":0.3937007874015748},{"duration":0.142857,"midi":62,"time":0.285714,"velocity":0.3937007874015748},{"duration":0.142857,"midi":62,"time":0.42857100000000004,"velocity":0.3937007874015748},{"duration":0.142857,"midi":62,"time":0.42857100000000004,"velocity":0.3937007874015748},{"duration":0.142857,"midi":62,"time":0.7142850000000001,"velocity":0.3937007874015748},{"duration":0.142857,"midi":62,"time":0.7142850000000001,"velocity":0.3937007874015748},{"duration":0.14285700000000012,"midi":62,"time":0.8571420000000001,"velocity":0.3937007874015748},{"duration":0.14285700000000012,"midi":62,"time":0.8571420000000001,"velocity":0.3937007874015748},{"duration":0.142857,"midi":62,"time":1.142856,"velocity":0.3937007874015748},{"duration":0.142857,"midi":62,"time":1.142856,"velocity":0.3937007874015748},{"duration":0.142857,"midi":62,"time":1.285713,"velocity":0.3937007874015748},{"duration":0.142857,"midi":62,"time":1.285713,"velocity":0.3937007874015748},{"duration":0.142857,"midi":62,"time":1.4285700000000001,"velocity":0.3937007874015748},{"duration":0.142857,"midi":62,"time":1.4285700000000001,"velocity":0.3937007874015748},{"duration":0.142857,"midi":62,"time":1.5714270000000001,"velocity":0.3937007874015748},{"duration":0.142857,"midi":62,"time":1.5714270000000001,"velocity":0.3937007874015748},{"duration":0.1428569999999998,"midi":62,"time":1.7142840000000001,"velocity":0.3937007874015748},{"duration":0.1428569999999998,"midi":62,"time":1.7142840000000001,"velocity":0.3937007874015748},{"duration":0.14285699999999957,"midi":62,"time":1.9999980000000004,"velocity":0.3937007874015748},{"duration":0.14285699999999957,"midi":62,"time":1.9999980000000004,"velocity":0.3937007874015748},{"duration":0.14285700000000023,"midi":62,"time":2.142855,"velocity":0.3937007874015748},{"duration":0.14285700000000023,"midi":62,"time":2.142855,"velocity":0.3937007874015748},{"duration":0.1428569999999998,"midi":62,"time":2.4285690000000004,"velocity":0.3937007874015748},{"duration":0.1428569999999998,"midi":62,"time":2.4285690000000004,"velocity":0.3937007874015748},{"duration":0.1428569999999998,"midi":62,"time":2.571426,"velocity":0.3937007874015748},{"duration":0.1428569999999998,"midi":62,"time":2.571426,"velocity":0.3937007874015748},{"duration":0.14285700000000023,"midi":62,"time":2.8571400000000002,"velocity":0.3937007874015748},{"duration":0.14285700000000023,"midi":62,"time":2.8571400000000002,"velocity":0.3937007874015748},{"duration":0.1428569999999998,"midi":62,"time":2.9999970000000005,"velocity":0.3937007874015748},{"duration":0.1428569999999998,"midi":62,"time":2.9999970000000005,"velocity":0.3937007874015748},{"duration":0.14285700000000023,"midi":62,"time":3.1428540000000003,"velocity":0.3937007874015748},{"duration":0.14285700000000023,"midi":62,"time":3.1428540000000003,"velocity":0.3937007874015748},{"duration":0.1428569999999998,"midi":62,"time":3.2857110000000005,"velocity":0.3937007874015748},{"duration":0.1428569999999998,"midi":62,"time":3.2857110000000005,"velocity":0.3937007874015748},{"duration":0.14285700000000023,"midi":62,"time":3.4285680000000003,"velocity":0.3937007874015748},{"duration":0.14285700000000023,"midi":62,"time":3.4285680000000003,"velocity":0.3937007874015748},{"duration":0.14285700000000023,"midi":62,"time":3.714282,"velocity":0.3937007874015748},{"duration":0.14285700000000023,"midi":62,"time":3.714282,"velocity":0.3937007874015748},{"duration":0.14285700000000068,"midi":62,"time":3.857139,"velocity":0.3937007874015748},{"duration":0.14285700000000068,"midi":62,"time":3.857139,"velocity":0.3937007874015748},{"duration":0.14285700000000023,"midi":62,"time":4.142853,"velocity":0.3937007874015748},{"duration":0.14285700000000023,"midi":62,"time":4.142853,"velocity":0.3937007874015748},{"duration":0.14285700000000112,"midi":62,"time":4.28571,"velocity":0.3937007874015748},{"duration":0.14285700000000112,"midi":62,"time":4.28571,"velocity":0.3937007874015748},{"duration":0.14285700000000023,"midi":62,"time":4.571424,"velocity":0.3937007874015748},{"duration":0.14285700000000023,"midi":62,"time":4.571424,"velocity":0.3937007874015748},{"duration":0.14285700000000023,"midi":62,"time":4.714281000000001,"velocity":0.3937007874015748},{"duration":0.14285700000000023,"midi":62,"time":4.714281000000001,"velocity":0.3937007874015748},{"duration":0.14285699999999935,"midi":57,"time":4.857138000000001,"velocity":0.3937007874015748},{"duration":0.14285699999999935,"midi":57,"time":4.857138000000001,"velocity":0.3937007874015748},{"duration":0.14285700000000023,"midi":60,"time":4.999995,"velocity":0.3937007874015748},{"duration":0.14285700000000023,"midi":60,"time":4.999995,"velocity":0.3937007874015748},{"duration":0.14285700000000023,"midi":57,"time":5.142852,"velocity":0.3937007874015748},{"duration":0.14285700000000023,"midi":62,"time":5.142852,"velocity":0.3937007874015748},{"duration":0.14285700000000023,"midi":62,"time":5.142852,"velocity":0.3937007874015748},{"duration":0.14285700000000023,"midi":57,"time":5.142852,"velocity":0.3937007874015748},{"duration":0.14285700000000023,"midi":53,"time":5.142852,"velocity":0.3937007874015748},{"duration":0.14285700000000023,"midi":53,"time":5.142852,"velocity":0.3937007874015748},{"duration":0.14285700000000023,"midi":62,"time":5.428566,"velocity":0.3937007874015748},{"duration":0.14285700000000023,"midi":53,"time":5.428566,"velocity":0.3937007874015748},{"duration":0.14285700000000023,"midi":53,"time":5.428566,"velocity":0.3937007874015748},{"duration":0.14285700000000023,"midi":62,"time":5.428566,"velocity":0.3937007874015748},{"duration":0.14285700000000023,"midi":57,"time":5.428566,"velocity":0.3937007874015748},{"duration":0.14285700000000023,"midi":57,"time":5.428566,"velocity":0.3937007874015748},{"duration":0.14285699999999935,"midi":57,"time":5.7142800000000005,"velocity":0.3937007874015748},{"duration":0.14285699999999935,"midi":62,"time":5.7142800000000005,"velocity":0.3937007874015748},{"duration":0.14285699999999935,"midi":53,"time":5.7142800000000005,"velocity":0.3937007874015748},{"duration":0.14285699999999935,"midi":62,"time":5.7142800000000005,"velocity":0.3937007874015748},{"duration":0.14285699999999935,"midi":57,"time":5.7142800000000005,"velocity":0.3937007874015748},{"duration":0.14285699999999935,"midi":53,"time":5.7142800000000005,"velocity":0.3937007874015748},{"duration":0.14285700000000112,"midi":64,"time":5.857137,"velocity":0.3937007874015748},{"duration":0.14285700000000112,"midi":64,"time":5.857137,"velocity":0.3937007874015748},{"duration":0.14285700000000023,"midi":65,"time":5.999994000000001,"velocity":0.3937007874015748},{"duration":0.14285700000000023,"midi":65,"time":5.999994000000001,"velocity":0.3937007874015748},{"duration":0.14285700000000023,"midi":62,"time":5.999994000000001,"velocity":0.3937007874015748},{"duration":0.14285700000000023,"midi":58,"time":5.999994000000001,"velocity":0.3937007874015748},{"duration":0.14285700000000023,"midi":58,"time":5.999994000000001,"velocity":0.3937007874015748},{"duration":0.14285700000000023,"midi":62,"time":5.999994000000001,"velocity":0.3937007874015748},{"duration":0.14285700000000023,"midi":65,"time":6.2857080000000005,"velocity":0.3937007874015748},{"duration":0.14285700000000023,"midi":65,"time":6.2857080000000005,"velocity":0.3937007874015748},{"duration":0.14285700000000023,"midi":58,"time":6.2857080000000005,"velocity":0.3937007874015748},{"duration":0.14285700000000023,"midi":62,"time":6.2857080000000005,"velocity":0.3937007874015748},{"duration":0.14285700000000023,"midi":62,"time":6.2857080000000005,"velocity":0.3937007874015748},{"duration":0.14285700000000023,"midi":58,"time":6.2857080000000005,"velocity":0.3937007874015748},{"duration":0.14285699999999935,"midi":62,"time":6.571422000000001,"velocity":0.3937007874015748},{"duration":0.14285699999999935,"midi":62,"time":6.571422000000001,"velocity":0.3937007874015748},{"duration":0.14285699999999935,"midi":65,"time":6.571422000000001,"velocity":0.3937007874015748},{"duration":0.14285699999999935,"midi":65,"time":6.571422000000001,"velocity":0.3937007874015748},{"duration":0.14285699999999935,"midi":58,"time":6.571422000000001,"velocity":0.3937007874015748},{"duration":0.14285699999999935,"midi":58,"time":6.571422000000001,"velocity":0.3937007874015748},{"duration":0.14285700000000023,"midi":67,"time":6.714279,"velocity":0.3937007874015748},{"duration":0.14285700000000023,"midi":67,"time":6.714279,"velocity":0.3937007874015748},{"duration":0.14285699999999935,"midi":64,"time":6.857136000000001,"velocity":0.3937007874015748},{"duration":0.14285699999999935,"midi":57,"time":6.857136000000001,"velocity":0.3937007874015748},{"duration":0.14285699999999935,"midi":60,"time":6.857136000000001,"velocity":0.3937007874015748},{"duration":0.14285699999999935,"midi":64,"time":6.857136000000001,"velocity":0.3937007874015748},{"duration":0.14285699999999935,"midi":60,"time":6.857136000000001,"velocity":0.3937007874015748},{"duration":0.14285699999999935,"midi":57,"time":6.857136000000001,"velocity":0.3937007874015748},{"duration":0.14285699999999935,"midi":60,"time":7.142850000000001,"velocity":0.3937007874015748},{"duration":0.14285699999999935,"midi":57,"time":7.142850000000001,"velocity":0.3937007874015748},{"duration":0.14285699999999935,"midi":57,"time":7.142850000000001,"velocity":0.3937007874015748},{"duration":0.14285699999999935,"midi":64,"time":7.142850000000001,"velocity":0.3937007874015748},{"duration":0.14285699999999935,"midi":60,"time":7.142850000000001,"velocity":0.3937007874015748},{"duration":0.14285699999999935,"midi":64,"time":7.142850000000001,"velocity":0.3937007874015748},{"duration":0.14285700000000112,"midi":62,"time":7.428564,"velocity":0.3937007874015748},{"duration":0.14285700000000112,"midi":62,"time":7.428564,"velocity":0.3937007874015748},{"duration":0.14285700000000112,"midi":57,"time":7.428564,"velocity":0.3937007874015748},{"duration":0.14285700000000112,"midi":57,"time":7.428564,"velocity":0.3937007874015748},{"duration":0.14285699999999935,"midi":60,"time":7.571421000000001,"velocity":0.3937007874015748},{"duration":0.14285699999999935,"midi":60,"time":7.571421000000001,"velocity":0.3937007874015748},{"duration":0.14285700000000023,"midi":53,"time":7.714278,"velocity":0.3937007874015748},{"duration":0.14285700000000023,"midi":60,"time":7.714278,"velocity":0.3937007874015748},{"duration":0.14285700000000023,"midi":60,"time":7.714278,"velocity":0.3937007874015748},{"duration":0.14285700000000023,"midi":53,"time":7.714278,"velocity":0.3937007874015748},{"duration":0.4285709999999989,"midi":62,"time":7.857135,"velocity":0.3937007874015748},{"duration":0.4285709999999989,"midi":57,"time":7.857135,"velocity":0.3937007874015748},{"duration":0.4285709999999989,"midi":57,"time":7.857135,"velocity":0.3937007874015748},{"duration":0.4285709999999989,"midi":62,"time":7.857135,"velocity":0.3937007874015748},{"duration":0.4285709999999989,"midi":53,"time":7.857135,"velocity":0.3937007874015748},{"duration":0.4285709999999989,"midi":53,"time":7.857135,"velocity":0.3937007874015748},{"duration":0.14285700000000112,"midi":57,"time":8.285706,"velocity":0.3937007874015748},{"duration":0.14285700000000112,"midi":57,"time":8.285706,"velocity":0.3937007874015748},{"duration":0.14285699999999935,"midi":60,"time":8.428563,"velocity":0.3937007874015748},{"duration":0.14285699999999935,"midi":60,"time":8.428563,"velocity":0.3937007874015748},{"duration":0.14285700000000112,"midi":62,"time":8.57142,"velocity":0.3937007874015748},{"duration":0.14285700000000112,"midi":62,"time":8.57142,"velocity":0.3937007874015748},{"duration":0.14285700000000112,"midi":58,"time":8.57142,"velocity":0.3937007874015748},{"duration":0.14285700000000112,"midi":58,"time":8.57142,"velocity":0.3937007874015748},{"duration":0.14285700000000112,"midi":53,"time":8.57142,"velocity":0.3937007874015748},{"duration":0.14285700000000112,"midi":53,"time":8.57142,"velocity":0.3937007874015748},{"duration":0.14285699999999935,"midi":62,"time":8.857134000000002,"velocity":0.3937007874015748},{"duration":0.14285699999999935,"midi":58,"time":8.857134000000002,"velocity":0.3937007874015748},{"duration":0.14285699999999935,"midi":53,"time":8.857134000000002,"velocity":0.3937007874015748},{"duration":0.14285699999999935,"midi":53,"time":8.857134000000002,"velocity":0.3937007874015748},{"duration":0.14285699999999935,"midi":58,"time":8.857134000000002,"velocity":0.3937007874015748},{"duration":0.14285699999999935,"midi":62,"time":8.857134000000002,"velocity":0.3937007874015748},{"duration":0.14285700000000112,"midi":58,"time":9.142848,"velocity":0.3937007874015748},{"duration":0.14285700000000112,"midi":62,"time":9.142848,"velocity":0.3937007874015748},{"duration":0.14285700000000112,"midi":53,"time":9.142848,"velocity":0.3937007874015748},{"duration":0.14285700000000112,"midi":53,"time":9.142848,"velocity":0.3937007874015748},{"duration":0.14285700000000112,"midi":62,"time":9.142848,"velocity":0.3937007874015748},{"duration":0.14285700000000112,"midi":58,"time":9.142848,"velocity":0.3937007874015748},{"duration":0.14285699999999935,"midi":64,"time":9.285705000000002,"velocity":0.3937007874015748},{"duration":0.14285699999999935,"midi":64,"time":9.285705000000002,"velocity":0.3937007874015748},{"duration":0.14285699999999935,"midi":60,"time":9.428562000000001,"velocity":0.3937007874015748},{"duration":0.14285699999999935,"midi":57,"time":9.428562000000001,"velocity":0.3937007874015748},{"duration":0.14285699999999935,"midi":65,"time":9.428562000000001,"velocity":0.3937007874015748},{"duration":0.14285699999999935,"midi":65,"time":9.428562000000001,"velocity":0.3937007874015748},{"duration":0.14285699999999935,"midi":60,"time":9.428562000000001,"velocity":0.3937007874015748},{"duration":0.14285699999999935,"midi":57,"time":9.428562000000001,"velocity":0.3937007874015748},{"duration":0.14285699999999935,"midi":57,"time":9.714276000000002,"velocity":0.3937007874015748},{"duration":0.14285699999999935,"midi":57,"time":9.714276000000002,"velocity":0.3937007874015748},{"duration":0.14285699999999935,"midi":60,"time":9.714276000000002,"velocity":0.3937007874015748},{"duration":0.14285699999999935,"midi":60,"time":9.714276000000002,"velocity":0.3937007874015748},{"duration":0.14285699999999935,"midi":65,"time":9.714276000000002,"velocity":0.3937007874015748},{"duration":0.14285699999999935,"midi":65,"time":9.714276000000002,"velocity":0.3937007874015748},{"duration":0.14285700000000112,"midi":57,"time":9.99999,"velocity":0.3937007874015748},{"duration":0.14285700000000112,"midi":60,"time":9.99999,"velocity":0.3937007874015748},{"duration":0.14285700000000112,"midi":65,"time":9.99999,"velocity":0.3937007874015748},{"duration":0.14285700000000112,"midi":65,"time":9.99999,"velocity":0.3937007874015748},{"duration":0.14285700000000112,"midi":60,"time":9.99999,"velocity":0.3937007874015748},{"duration":0.14285700000000112,"midi":57,"time":9.99999,"velocity":0.3937007874015748},{"duration":0.14285699999999935,"midi":67,"time":10.142847000000002,"velocity":0.3937007874015748},{"duration":0.14285699999999935,"midi":67,"time":10.142847000000002,"velocity":0.3937007874015748},{"duration":0.14285699999999935,"midi":60,"time":10.285704,"velocity":0.3937007874015748},{"duration":0.14285699999999935,"midi":64,"time":10.285704,"velocity":0.3937007874015748},{"duration":0.14285699999999935,"midi":57,"time":10.285704,"velocity":0.3937007874015748},{"duration":0.14285699999999935,"midi":60,"time":10.285704,"velocity":0.3937007874015748},{"duration":0.14285699999999935,"midi":57,"time":10.285704,"velocity":0.3937007874015748},{"duration":0.14285699999999935,"midi":64,"time":10.285704,"velocity":0.3937007874015748},{"duration":0.14285699999999935,"midi":60,"time":10.571418000000001,"velocity":0.3937007874015748},{"duration":0.14285699999999935,"midi":64,"time":10.571418000000001,"velocity":0.3937007874015748},{"duration":0.14285699999999935,"midi":57,"time":10.571418000000001,"velocity":0.3937007874015748},{"duration":0.14285699999999935,"midi":64,"time":10.571418000000001,"velocity":0.3937007874015748},{"duration":0.14285699999999935,"midi":60,"time":10.571418000000001,"velocity":0.3937007874015748},{"duration":0.14285699999999935,"midi":57,"time":10.571418000000001,"velocity":0.3937007874015748},{"duration":0.14285700000000112,"midi":62,"time":10.857132,"velocity":0.3937007874015748},{"duration":0.14285700000000112,"midi":62,"time":10.857132,"velocity":0.3937007874015748},{"duration":0.14285700000000112,"midi":57,"time":10.857132,"velocity":0.3937007874015748},{"duration":0.14285700000000112,"midi":57,"time":10.857132,"velocity":0.3937007874015748},{"duration":0.14285699999999935,"midi":60,"time":10.999989000000001,"velocity":0.3937007874015748},{"duration":0.14285699999999935,"midi":60,"time":10.999989000000001,"velocity":0.3937007874015748},{"duration":0.4285709999999998,"midi":53,"time":11.142846,"velocity":0.3937007874015748},{"duration":0.4285709999999998,"midi":57,"time":11.142846,"velocity":0.3937007874015748},{"duration":0.4285709999999998,"midi":62,"time":11.142846,"velocity":0.3937007874015748},{"duration":0.4285709999999998,"midi":53,"time":11.142846,"velocity":0.3937007874015748},{"duration":0.4285709999999998,"midi":62,"time":11.142846,"velocity":0.3937007874015748},{"duration":0.4285709999999998,"midi":57,"time":11.142846,"velocity":0.3937007874015748},{"duration":0.14285700000000112,"midi":57,"time":11.714274,"velocity":0.3937007874015748},{"duration":0.14285700000000112,"midi":57,"time":11.714274,"velocity":0.3937007874015748},{"duration":0.14285700000000112,"midi":60,"time":11.857131,"velocity":0.3937007874015748},{"duration":0.14285700000000112,"midi":60,"time":11.857131,"velocity":0.3937007874015748},{"duration":0.14285699999999935,"midi":53,"time":11.999988000000002,"velocity":0.3937007874015748},{"duration":0.14285699999999935,"midi":57,"time":11.999988000000002,"velocity":0.3937007874015748},{"duration":0.14285699999999935,"midi":62,"time":11.999988000000002,"velocity":0.3937007874015748},{"duration":0.14285699999999935,"midi":57,"time":11.999988000000002,"velocity":0.3937007874015748},{"duration":0.14285699999999935,"midi":53,"time":11.999988000000002,"velocity":0.3937007874015748},{"duration":0.14285699999999935,"midi":62,"time":11.999988000000002,"velocity":0.3937007874015748},{"duration":0.14285699999999935,"midi":62,"time":12.285702000000002,"velocity":0.3937007874015748},{"duration":0.14285699999999935,"midi":57,"time":12.285702000000002,"velocity":0.3937007874015748},{"duration":0.14285699999999935,"midi":62,"time":12.285702000000002,"velocity":0.3937007874015748},{"duration":0.14285699999999935,"midi":53,"time":12.285702000000002,"velocity":0.3937007874015748},{"duration":0.14285699999999935,"midi":57,"time":12.285702000000002,"velocity":0.3937007874015748},{"duration":0.14285699999999935,"midi":53,"time":12.285702000000002,"velocity":0.3937007874015748},{"duration":0.14285700000000112,"midi":62,"time":12.571416000000001,"velocity":0.3937007874015748},{"duration":0.14285700000000112,"midi":53,"time":12.571416000000001,"velocity":0.3937007874015748},{"duration":0.14285700000000112,"midi":62,"time":12.571416000000001,"velocity":0.3937007874015748},{"duration":0.14285700000000112,"midi":53,"time":12.571416000000001,"velocity":0.3937007874015748},{"duration":0.14285699999999935,"midi":53,"time":12.714273000000002,"velocity":0.3937007874015748},{"duration":0.14285699999999935,"midi":65,"time":12.714273000000002,"velocity":0.3937007874015748},{"duration":0.14285699999999935,"midi":53,"time":12.714273000000002,"velocity":0.3937007874015748},{"duration":0.14285699999999935,"midi":65,"time":12.714273000000002,"velocity":0.3937007874015748},{"duration":0.14285699999999935,"midi":58,"time":12.857130000000002,"velocity":0.3937007874015748},{"duration":0.14285699999999935,"midi":67,"time":12.857130000000002,"velocity":0.3937007874015748},{"duration":0.14285699999999935,"midi":62,"time":12.857130000000002,"velocity":0.3937007874015748},{"duration":0.14285699999999935,"midi":67,"time":12.857130000000002,"velocity":0.3937007874015748},{"duration":0.14285699999999935,"midi":58,"time":12.857130000000002,"velocity":0.3937007874015748},{"duration":0.14285699999999935,"midi":62,"time":12.857130000000002,"velocity":0.3937007874015748},{"duration":0.14285699999999935,"midi":62,"time":13.142844000000002,"velocity":0.3937007874015748},{"duration":0.14285699999999935,"midi":58,"time":13.142844000000002,"velocity":0.3937007874015748},{"duration":0.14285699999999935,"midi":62,"time":13.142844000000002,"velocity":0.3937007874015748},{"duration":0.14285699999999935,"midi":58,"time":13.142844000000002,"velocity":0.3937007874015748},{"duration":0.14285699999999935,"midi":67,"time":13.142844000000002,"velocity":0.3937007874015748},{"duration":0.14285699999999935,"midi":67,"time":13.142844000000002,"velocity":0.3937007874015748},{"duration":0.14285700000000112,"midi":67,"time":13.428558,"velocity":0.3937007874015748},{"duration":0.14285700000000112,"midi":58,"time":13.428558,"velocity":0.3937007874015748},{"duration":0.14285700000000112,"midi":67,"time":13.428558,"velocity":0.3937007874015748},{"duration":0.14285700000000112,"midi":62,"time":13.428558,"velocity":0.3937007874015748},{"duration":0.14285700000000112,"midi":58,"time":13.428558,"velocity":0.3937007874015748},{"duration":0.14285700000000112,"midi":62,"time":13.428558,"velocity":0.3937007874015748},{"duration":0.14285699999999935,"midi":69,"time":13.571415000000002,"velocity":0.3937007874015748},{"duration":0.14285699999999935,"midi":69,"time":13.571415000000002,"velocity":0.3937007874015748},{"duration":0.14285700000000112,"midi":70,"time":13.714272000000001,"velocity":0.3937007874015748},{"duration":0.14285700000000112,"midi":70,"time":13.714272000000001,"velocity":0.3937007874015748},{"duration":0.14285700000000112,"midi":67,"time":13.714272000000001,"velocity":0.3937007874015748},{"duration":0.14285700000000112,"midi":62,"time":13.714272000000001,"velocity":0.3937007874015748},{"duration":0.14285700000000112,"midi":67,"time":13.714272000000001,"velocity":0.3937007874015748},{"duration":0.14285700000000112,"midi":62,"time":13.714272000000001,"velocity":0.3937007874015748},{"duration":0.14285700000000112,"midi":70,"time":13.999986,"velocity":0.3937007874015748},{"duration":0.14285700000000112,"midi":62,"time":13.999986,"velocity":0.3937007874015748},{"duration":0.14285700000000112,"midi":67,"time":13.999986,"velocity":0.3937007874015748},{"duration":0.14285700000000112,"midi":62,"time":13.999986,"velocity":0.3937007874015748},{"duration":0.14285700000000112,"midi":70,"time":13.999986,"velocity":0.3937007874015748},{"duration":0.14285700000000112,"midi":67,"time":13.999986,"velocity":0.3937007874015748},{"duration":0.14285699999999757,"midi":69,"time":14.285700000000002,"velocity":0.3937007874015748},{"duration":0.14285699999999757,"midi":62,"time":14.285700000000002,"velocity":0.3937007874015748},{"duration":0.14285699999999757,"midi":69,"time":14.285700000000002,"velocity":0.3937007874015748},{"duration":0.14285699999999757,"midi":62,"time":14.285700000000002,"velocity":0.3937007874015748},{"duration":0.14285700000000112,"midi":67,"time":14.428557,"velocity":0.3937007874015748},{"duration":0.14285700000000112,"midi":67,"time":14.428557,"velocity":0.3937007874015748},{"duration":0.14285700000000112,"midi":69,"time":14.571414,"velocity":0.3937007874015748},{"duration":0.14285700000000112,"midi":62,"time":14.571414,"velocity":0.3937007874015748},{"duration":0.14285700000000112,"midi":62,"time":14.571414,"velocity":0.3937007874015748},{"duration":0.14285700000000112,"midi":69,"time":14.571414,"velocity":0.3937007874015748},{"duration":0.4285709999999998,"midi":62,"time":14.714271000000002,"velocity":0.3937007874015748},{"duration":0.4285709999999998,"midi":57,"time":14.714271000000002,"velocity":0.3937007874015748},{"duration":0.4285709999999998,"midi":53,"time":14.714271000000002,"velocity":0.3937007874015748},{"duration":0.4285709999999998,"midi":62,"time":14.714271000000002,"velocity":0.3937007874015748},{"duration":0.4285709999999998,"midi":57,"time":14.714271000000002,"velocity":0.3937007874015748},{"duration":0.4285709999999998,"midi":53,"time":14.714271000000002,"velocity":0.3937007874015748},{"duration":0.14285699999999935,"midi":62,"time":15.142842000000002,"velocity":0.3937007874015748},{"duration":0.14285699999999935,"midi":62,"time":15.142842000000002,"velocity":0.3937007874015748},{"duration":0.14285699999999935,"midi":64,"time":15.285699000000001,"velocity":0.3937007874015748},{"duration":0.14285699999999935,"midi":64,"time":15.285699000000001,"velocity":0.3937007874015748},{"duration":0.14285700000000112,"midi":65,"time":15.428556,"velocity":0.3937007874015748},{"duration":0.14285700000000112,"midi":58,"time":15.428556,"velocity":0.3937007874015748},{"duration":0.14285700000000112,"midi":58,"time":15.428556,"velocity":0.3937007874015748},{"duration":0.14285700000000112,"midi":65,"time":15.428556,"velocity":0.3937007874015748},{"duration":0.14285700000000112,"midi":62,"time":15.428556,"velocity":0.3937007874015748},{"duration":0.14285700000000112,"midi":62,"time":15.428556,"velocity":0.3937007874015748},{"duration":0.14285700000000112,"midi":62,"time":15.71427,"velocity":0.3937007874015748},{"duration":0.14285700000000112,"midi":62,"time":15.71427,"velocity":0.3937007874015748},{"duration":0.14285700000000112,"midi":65,"time":15.71427,"velocity":0.3937007874015748},{"duration":0.14285700000000112,"midi":65,"time":15.71427,"velocity":0.3937007874015748},{"duration":0.14285700000000112,"midi":58,"time":15.71427,"velocity":0.3937007874015748},{"duration":0.14285700000000112,"midi":58,"time":15.71427,"velocity":0.3937007874015748},{"duration":0.14285699999999757,"midi":62,"time":15.999984000000003,"velocity":0.3937007874015748},{"duration":0.14285699999999757,"midi":62,"time":15.999984000000003,"velocity":0.3937007874015748},{"duration":0.14285699999999757,"midi":58,"time":15.999984000000003,"velocity":0.3937007874015748},{"duration":0.14285699999999757,"midi":67,"time":15.999984000000003,"velocity":0.3937007874015748},{"duration":0.14285699999999757,"midi":58,"time":15.999984000000003,"velocity":0.3937007874015748},{"duration":0.14285699999999757,"midi":67,"time":15.999984000000003,"velocity":0.3937007874015748},{"duration":0.1428570000000029,"midi":65,"time":16.285698,"velocity":0.3937007874015748},{"duration":0.1428570000000029,"midi":69,"time":16.285698,"velocity":0.3937007874015748},{"duration":0.1428570000000029,"midi":62,"time":16.285698,"velocity":0.3937007874015748},{"duration":0.1428570000000029,"midi":62,"time":16.285698,"velocity":0.3937007874015748},{"duration":0.1428570000000029,"midi":65,"time":16.285698,"velocity":0.3937007874015748},{"duration":0.1428570000000029,"midi":69,"time":16.285698,"velocity":0.3937007874015748},{"duration":0.14285699999999935,"midi":62,"time":16.857126,"velocity":0.3937007874015748},{"duration":0.14285699999999935,"midi":62,"time":16.857126,"velocity":0.3937007874015748},{"duration":0.14285699999999935,"midi":65,"time":16.999983,"velocity":0.3937007874015748},{"duration":0.14285699999999935,"midi":65,"time":16.999983,"velocity":0.3937007874015748},{"duration":0.1428570000000029,"midi":57,"time":17.14284,"velocity":0.3937007874015748},{"duration":0.1428570000000029,"midi":61,"time":17.14284,"velocity":0.3937007874015748},{"duration":0.1428570000000029,"midi":64,"time":17.14284,"velocity":0.3937007874015748},{"duration":0.1428570000000029,"midi":64,"time":17.14284,"velocity":0.3937007874015748},{"duration":0.1428570000000029,"midi":61,"time":17.14284,"velocity":0.3937007874015748},{"duration":0.1428570000000029,"midi":57,"time":17.14284,"velocity":0.3937007874015748},{"duration":0.14285699999999935,"midi":64,"time":17.428554000000002,"velocity":0.3937007874015748},{"duration":0.14285699999999935,"midi":57,"time":17.428554000000002,"velocity":0.3937007874015748},{"duration":0.14285699999999935,"midi":61,"time":17.428554000000002,"velocity":0.3937007874015748},{"duration":0.14285699999999935,"midi":57,"time":17.428554000000002,"velocity":0.3937007874015748},{"duration":0.14285699999999935,"midi":64,"time":17.428554000000002,"velocity":0.3937007874015748},{"duration":0.14285699999999935,"midi":61,"time":17.428554000000002,"velocity":0.3937007874015748},{"duration":0.1428569999999958,"midi":65,"time":17.714268000000004,"velocity":0.3937007874015748},{"duration":0.1428569999999958,"midi":65,"time":17.714268000000004,"velocity":0.3937007874015748},{"duration":0.1428570000000029,"midi":62,"time":17.857125,"velocity":0.3937007874015748},{"duration":0.1428570000000029,"midi":62,"time":17.857125,"velocity":0.3937007874015748},{"duration":0.42857099999999804,"midi":64,"time":17.999982000000003,"velocity":0.3937007874015748},{"duration":0.42857099999999804,"midi":57,"time":17.999982000000003,"velocity":0.3937007874015748},{"duration":0.42857099999999804,"midi":61,"time":17.999982000000003,"velocity":0.3937007874015748},{"duration":0.42857099999999804,"midi":64,"time":17.999982000000003,"velocity":0.3937007874015748},{"duration":0.42857099999999804,"midi":61,"time":17.999982000000003,"velocity":0.3937007874015748},{"duration":0.42857099999999804,"midi":57,"time":17.999982000000003,"velocity":0.3937007874015748},{"duration":0.1428569999999958,"midi":69,"time":18.571410000000004,"velocity":0.3937007874015748},{"duration":0.1428569999999958,"midi":69,"time":18.571410000000004,"velocity":0.3937007874015748},{"duration":0.1428570000000029,"midi":72,"time":18.714267,"velocity":0.3937007874015748},{"duration":0.1428570000000029,"midi":72,"time":18.714267,"velocity":0.3937007874015748},{"duration":0.14285699999999935,"midi":69,"time":18.857124000000002,"velocity":0.3937007874015748},{"duration":0.14285699999999935,"midi":74,"time":18.857124000000002,"velocity":0.3937007874015748},{"duration":0.14285699999999935,"midi":65,"time":18.857124000000002,"velocity":0.3937007874015748},{"duration":0.14285699999999935,"midi":69,"time":18.857124000000002,"velocity":0.3937007874015748},{"duration":0.14285699999999935,"midi":74,"time":18.857124000000002,"velocity":0.3937007874015748},{"duration":0.14285699999999935,"midi":65,"time":18.857124000000002,"velocity":0.3937007874015748},{"duration":0.14285699999999935,"midi":69,"time":19.142838,"velocity":0.3937007874015748},{"duration":0.14285699999999935,"midi":65,"time":19.142838,"velocity":0.3937007874015748},{"duration":0.14285699999999935,"midi":74,"time":19.142838,"velocity":0.3937007874015748},{"duration":0.14285699999999935,"midi":74,"time":19.142838,"velocity":0.3937007874015748},{"duration":0.14285699999999935,"midi":69,"time":19.142838,"velocity":0.3937007874015748},{"duration":0.14285699999999935,"midi":65,"time":19.142838,"velocity":0.3937007874015748},{"duration":0.1428569999999958,"midi":74,"time":19.428552000000003,"velocity":0.3937007874015748},{"duration":0.1428569999999958,"midi":69,"time":19.428552000000003,"velocity":0.3937007874015748},{"duration":0.1428569999999958,"midi":65,"time":19.428552000000003,"velocity":0.3937007874015748},{"duration":0.1428569999999958,"midi":65,"time":19.428552000000003,"velocity":0.3937007874015748},{"duration":0.1428569999999958,"midi":74,"time":19.428552000000003,"velocity":0.3937007874015748},{"duration":0.1428569999999958,"midi":69,"time":19.428552000000003,"velocity":0.3937007874015748},{"duration":0.1428570000000029,"midi":76,"time":19.571409,"velocity":0.3937007874015748},{"duration":0.1428570000000029,"midi":76,"time":19.571409,"velocity":0.3937007874015748},{"duration":0.14285699999999935,"midi":70,"time":19.714266000000002,"velocity":0.3937007874015748},{"duration":0.14285699999999935,"midi":74,"time":19.714266000000002,"velocity":0.3937007874015748},{"duration":0.14285699999999935,"midi":74,"time":19.714266000000002,"velocity":0.3937007874015748},{"duration":0.14285699999999935,"midi":70,"time":19.714266000000002,"velocity":0.3937007874015748},{"duration":0.14285699999999935,"midi":77,"time":19.714266000000002,"velocity":0.3937007874015748},{"duration":0.14285699999999935,"midi":77,"time":19.714266000000002,"velocity":0.3937007874015748},{"duration":0.14285699999999935,"midi":70,"time":19.99998,"velocity":0.3937007874015748},{"duration":0.14285699999999935,"midi":74,"time":19.99998,"velocity":0.3937007874015748},{"duration":0.14285699999999935,"midi":74,"time":19.99998,"velocity":0.3937007874015748},{"duration":0.14285699999999935,"midi":77,"time":19.99998,"velocity":0.3937007874015748},{"duration":0.14285699999999935,"midi":77,"time":19.99998,"velocity":0.3937007874015748},{"duration":0.14285699999999935,"midi":70,"time":19.99998,"velocity":0.3937007874015748},{"duration":0.14285699999999935,"midi":77,"time":20.285694000000003,"velocity":0.3937007874015748},{"duration":0.14285699999999935,"midi":70,"time":20.285694000000003,"velocity":0.3937007874015748},{"duration":0.14285699999999935,"midi":77,"time":20.285694000000003,"velocity":0.3937007874015748},{"duration":0.14285699999999935,"midi":74,"time":20.285694000000003,"velocity":0.3937007874015748},{"duration":0.14285699999999935,"midi":74,"time":20.285694000000003,"velocity":0.3937007874015748},{"duration":0.14285699999999935,"midi":70,"time":20.285694000000003,"velocity":0.3937007874015748},{"duration":0.14285699999999935,"midi":79,"time":20.428551000000002,"velocity":0.3937007874015748},{"duration":0.14285699999999935,"midi":79,"time":20.428551000000002,"velocity":0.3937007874015748},{"duration":0.14285699999999935,"midi":72,"time":20.571408,"velocity":0.3937007874015748},{"duration":0.14285699999999935,"midi":69,"time":20.571408,"velocity":0.3937007874015748},{"duration":0.14285699999999935,"midi":72,"time":20.571408,"velocity":0.3937007874015748},{"duration":0.14285699999999935,"midi":76,"time":20.571408,"velocity":0.3937007874015748},{"duration":0.14285699999999935,"midi":76,"time":20.571408,"velocity":0.3937007874015748},{"duration":0.14285699999999935,"midi":69,"time":20.571408,"velocity":0.3937007874015748},{"duration":0.1428570000000029,"midi":69,"time":20.857122,"velocity":0.3937007874015748},{"duration":0.1428570000000029,"midi":72,"time":20.857122,"velocity":0.3937007874015748},{"duration":0.1428570000000029,"midi":72,"time":20.857122,"velocity":0.3937007874015748},{"duration":0.1428570000000029,"midi":76,"time":20.857122,"velocity":0.3937007874015748},{"duration":0.1428570000000029,"midi":69,"time":20.857122,"velocity":0.3937007874015748},{"duration":0.1428570000000029,"midi":76,"time":20.857122,"velocity":0.3937007874015748},{"duration":0.14285699999999935,"midi":74,"time":21.142836000000003,"velocity":0.3937007874015748},{"duration":0.14285699999999935,"midi":69,"time":21.142836000000003,"velocity":0.3937007874015748},{"duration":0.14285699999999935,"midi":69,"time":21.142836000000003,"velocity":0.3937007874015748},{"duration":0.14285699999999935,"midi":74,"time":21.142836000000003,"velocity":0.3937007874015748},{"duration":0.14285699999999935,"midi":72,"time":21.285693000000002,"velocity":0.3937007874015748},{"duration":0.14285699999999935,"midi":72,"time":21.285693000000002,"velocity":0.3937007874015748},{"duration":0.1428570000000029,"midi":72,"time":21.42855,"velocity":0.3937007874015748},{"duration":0.1428570000000029,"midi":65,"time":21.42855,"velocity":0.3937007874015748},{"duration":0.1428570000000029,"midi":72,"time":21.42855,"velocity":0.3937007874015748},{"duration":0.1428570000000029,"midi":65,"time":21.42855,"velocity":0.3937007874015748},{"duration":0.42857099999999804,"midi":65,"time":21.571407000000004,"velocity":0.3937007874015748},{"duration":0.42857099999999804,"midi":74,"time":21.571407000000004,"velocity":0.3937007874015748},{"duration":0.42857099999999804,"midi":65,"time":21.571407000000004,"velocity":0.3937007874015748},{"duration":0.42857099999999804,"midi":74,"time":21.571407000000004,"velocity":0.3937007874015748},{"duration":0.42857099999999804,"midi":69,"time":21.571407000000004,"velocity":0.3937007874015748},{"duration":0.42857099999999804,"midi":69,"time":21.571407000000004,"velocity":0.3937007874015748},{"duration":0.14285699999999935,"midi":69,"time":21.999978000000002,"velocity":0.3937007874015748},{"duration":0.14285699999999935,"midi":69,"time":21.999978000000002,"velocity":0.3937007874015748},{"duration":0.14285699999999935,"midi":72,"time":22.142835,"velocity":0.3937007874015748},{"duration":0.14285699999999935,"midi":72,"time":22.142835,"velocity":0.3937007874015748},{"duration":0.1428570000000029,"midi":74,"time":22.285692,"velocity":0.3937007874015748},{"duration":0.1428570000000029,"midi":74,"time":22.285692,"velocity":0.3937007874015748},{"duration":0.1428570000000029,"midi":65,"time":22.285692,"velocity":0.3937007874015748},{"duration":0.1428570000000029,"midi":70,"time":22.285692,"velocity":0.3937007874015748},{"duration":0.1428570000000029,"midi":70,"time":22.285692,"velocity":0.3937007874015748},{"duration":0.1428570000000029,"midi":65,"time":22.285692,"velocity":0.3937007874015748},{"duration":0.1428570000000029,"midi":74,"time":22.571406,"velocity":0.3937007874015748},{"duration":0.1428570000000029,"midi":65,"time":22.571406,"velocity":0.3937007874015748},{"duration":0.1428570000000029,"midi":70,"time":22.571406,"velocity":0.3937007874015748},{"duration":0.1428570000000029,"midi":74,"time":22.571406,"velocity":0.3937007874015748},{"duration":0.1428570000000029,"midi":65,"time":22.571406,"velocity":0.3937007874015748},{"duration":0.1428570000000029,"midi":70,"time":22.571406,"velocity":0.3937007874015748},{"duration":0.14285699999999935,"midi":65,"time":22.857120000000002,"velocity":0.3937007874015748},{"duration":0.14285699999999935,"midi":70,"time":22.857120000000002,"velocity":0.3937007874015748},{"duration":0.14285699999999935,"midi":70,"time":22.857120000000002,"velocity":0.3937007874015748},{"duration":0.14285699999999935,"midi":74,"time":22.857120000000002,"velocity":0.3937007874015748},{"duration":0.14285699999999935,"midi":65,"time":22.857120000000002,"velocity":0.3937007874015748},{"duration":0.14285699999999935,"midi":74,"time":22.857120000000002,"velocity":0.3937007874015748},{"duration":0.14285699999999935,"midi":76,"time":22.999977,"velocity":0.3937007874015748},{"duration":0.14285699999999935,"midi":76,"time":22.999977,"velocity":0.3937007874015748},{"duration":0.1428570000000029,"midi":72,"time":23.142834,"velocity":0.3937007874015748},{"duration":0.1428570000000029,"midi":72,"time":23.142834,"velocity":0.3937007874015748},{"duration":0.1428570000000029,"midi":69,"time":23.142834,"velocity":0.3937007874015748},{"duration":0.1428570000000029,"midi":77,"time":23.142834,"velocity":0.3937007874015748},{"duration":0.1428570000000029,"midi":77,"time":23.142834,"velocity":0.3937007874015748},{"duration":0.1428570000000029,"midi":69,"time":23.142834,"velocity":0.3937007874015748},{"duration":0.1428570000000029,"midi":72,"time":23.428548,"velocity":0.3937007874015748},{"duration":0.1428570000000029,"midi":69,"time":23.428548,"velocity":0.3937007874015748},{"duration":0.1428570000000029,"midi":69,"time":23.428548,"velocity":0.3937007874015748},{"duration":0.1428570000000029,"midi":72,"time":23.428548,"velocity":0.3937007874015748},{"duration":0.1428570000000029,"midi":77,"time":23.428548,"velocity":0.3937007874015748},{"duration":0.1428570000000029,"midi":77,"time":23.428548,"velocity":0.3937007874015748},{"duration":0.14285699999999935,"midi":77,"time":23.714262,"velocity":0.3937007874015748},{"duration":0.14285699999999935,"midi":72,"time":23.714262,"velocity":0.3937007874015748},{"duration":0.14285699999999935,"midi":77,"time":23.714262,"velocity":0.3937007874015748},{"duration":0.14285699999999935,"midi":72,"time":23.714262,"velocity":0.3937007874015748},{"duration":0.14285699999999935,"midi":69,"time":23.714262,"velocity":0.3937007874015748},{"duration":0.14285699999999935,"midi":69,"time":23.714262,"velocity":0.3937007874015748},{"duration":0.1428570000000029,"midi":79,"time":23.857119,"velocity":0.3937007874015748},{"duration":0.1428570000000029,"midi":79,"time":23.857119,"velocity":0.3937007874015748},{"duration":0.14285699999999935,"midi":72,"time":23.999976000000004,"velocity":0.3937007874015748},{"duration":0.14285699999999935,"midi":69,"time":23.999976000000004,"velocity":0.3937007874015748},{"duration":0.14285699999999935,"midi":69,"time":23.999976000000004,"velocity":0.3937007874015748},{"duration":0.14285699999999935,"midi":76,"time":23.999976000000004,"velocity":0.3937007874015748},{"duration":0.14285699999999935,"midi":72,"time":23.999976000000004,"velocity":0.3937007874015748},{"duration":0.14285699999999935,"midi":76,"time":23.999976000000004,"velocity":0.3937007874015748},{"duration":0.14285699999999935,"midi":69,"time":24.285690000000002,"velocity":0.3937007874015748},{"duration":0.14285699999999935,"midi":76,"time":24.285690000000002,"velocity":0.3937007874015748},{"duration":0.14285699999999935,"midi":76,"time":24.285690000000002,"velocity":0.3937007874015748},{"duration":0.14285699999999935,"midi":72,"time":24.285690000000002,"velocity":0.3937007874015748},{"duration":0.14285699999999935,"midi":72,"time":24.285690000000002,"velocity":0.3937007874015748},{"duration":0.14285699999999935,"midi":69,"time":24.285690000000002,"velocity":0.3937007874015748},{"duration":0.1428569999999958,"midi":69,"time":24.571404000000005,"velocity":0.3937007874015748},{"duration":0.1428569999999958,"midi":69,"time":24.571404000000005,"velocity":0.3937007874015748},{"duration":0.1428569999999958,"midi":74,"time":24.571404000000005,"velocity":0.3937007874015748},{"duration":0.1428569999999958,"midi":74,"time":24.571404000000005,"velocity":0.3937007874015748},{"duration":0.1428570000000029,"midi":72,"time":24.714261,"velocity":0.3937007874015748},{"duration":0.1428570000000029,"midi":72,"time":24.714261,"velocity":0.3937007874015748},{"duration":0.42857099999999804,"midi":69,"time":24.857118000000003,"velocity":0.3937007874015748},{"duration":0.42857099999999804,"midi":65,"time":24.857118000000003,"velocity":0.3937007874015748},{"duration":0.42857099999999804,"midi":69,"time":24.857118000000003,"velocity":0.3937007874015748},{"duration":0.42857099999999804,"midi":74,"time":24.857118000000003,"velocity":0.3937007874015748},{"duration":0.42857099999999804,"midi":65,"time":24.857118000000003,"velocity":0.3937007874015748},{"duration":0.42857099999999804,"midi":74,"time":24.857118000000003,"velocity":0.3937007874015748},{"duration":0.1428569999999958,"midi":69,"time":25.428546000000004,"velocity":0.3937007874015748},{"duration":0.1428569999999958,"midi":69,"time":25.428546000000004,"velocity":0.3937007874015748},{"duration":0.1428570000000029,"midi":72,"time":25.571403,"velocity":0.3937007874015748},{"duration":0.1428570000000029,"midi":72,"time":25.571403,"velocity":0.3937007874015748},{"duration":0.14285699999999935,"midi":65,"time":25.714260000000003,"velocity":0.3937007874015748},{"duration":0.14285699999999935,"midi":69,"time":25.714260000000003,"velocity":0.3937007874015748},{"duration":0.14285699999999935,"midi":74,"time":25.714260000000003,"velocity":0.3937007874015748},{"duration":0.14285699999999935,"midi":74,"time":25.714260000000003,"velocity":0.3937007874015748},{"duration":0.14285699999999935,"midi":65,"time":25.714260000000003,"velocity":0.3937007874015748},{"duration":0.14285699999999935,"midi":69,"time":25.714260000000003,"velocity":0.3937007874015748},{"duration":0.14285699999999935,"midi":65,"time":25.999974,"velocity":0.3937007874015748},{"duration":0.14285699999999935,"midi":74,"time":25.999974,"velocity":0.3937007874015748},{"duration":0.14285699999999935,"midi":74,"time":25.999974,"velocity":0.3937007874015748},{"duration":0.14285699999999935,"midi":69,"time":25.999974,"velocity":0.3937007874015748},{"duration":0.14285699999999935,"midi":69,"time":25.999974,"velocity":0.3937007874015748},{"duration":0.14285699999999935,"midi":65,"time":25.999974,"velocity":0.3937007874015748},{"duration":0.1428569999999958,"midi":74,"time":26.285688000000004,"velocity":0.3937007874015748},{"duration":0.1428569999999958,"midi":65,"time":26.285688000000004,"velocity":0.3937007874015748},{"duration":0.1428569999999958,"midi":65,"time":26.285688000000004,"velocity":0.3937007874015748},{"duration":0.1428569999999958,"midi":74,"time":26.285688000000004,"velocity":0.3937007874015748},{"duration":0.1428570000000029,"midi":65,"time":26.428545,"velocity":0.3937007874015748},{"duration":0.1428570000000029,"midi":65,"time":26.428545,"velocity":0.3937007874015748},{"duration":0.1428570000000029,"midi":77,"time":26.428545,"velocity":0.3937007874015748},{"duration":0.1428570000000029,"midi":77,"time":26.428545,"velocity":0.3937007874015748},{"duration":0.14285699999999935,"midi":70,"time":26.571402000000003,"velocity":0.3937007874015748},{"duration":0.14285699999999935,"midi":79,"time":26.571402000000003,"velocity":0.3937007874015748},{"duration":0.14285699999999935,"midi":74,"time":26.571402000000003,"velocity":0.3937007874015748},{"duration":0.14285699999999935,"midi":70,"time":26.571402000000003,"velocity":0.3937007874015748},{"duration":0.14285699999999935,"midi":74,"time":26.571402000000003,"velocity":0.3937007874015748},{"duration":0.14285699999999935,"midi":79,"time":26.571402000000003,"velocity":0.3937007874015748},{"duration":0.14285699999999935,"midi":70,"time":26.857116,"velocity":0.3937007874015748},{"duration":0.14285699999999935,"midi":70,"time":26.857116,"velocity":0.3937007874015748},{"duration":0.14285699999999935,"midi":79,"time":26.857116,"velocity":0.3937007874015748},{"duration":0.14285699999999935,"midi":79,"time":26.857116,"velocity":0.3937007874015748},{"duration":0.14285699999999935,"midi":74,"time":26.857116,"velocity":0.3937007874015748},{"duration":0.14285699999999935,"midi":74,"time":26.857116,"velocity":0.3937007874015748},{"duration":0.14285699999999935,"midi":79,"time":27.142830000000004,"velocity":0.3937007874015748},{"duration":0.14285699999999935,"midi":74,"time":27.142830000000004,"velocity":0.3937007874015748},{"duration":0.14285699999999935,"midi":70,"time":27.142830000000004,"velocity":0.3937007874015748},{"duration":0.14285699999999935,"midi":79,"time":27.142830000000004,"velocity":0.3937007874015748},{"duration":0.14285699999999935,"midi":74,"time":27.142830000000004,"velocity":0.3937007874015748},{"duration":0.14285699999999935,"midi":70,"time":27.142830000000004,"velocity":0.3937007874015748},{"duration":0.14285699999999935,"midi":81,"time":27.285687000000003,"velocity":0.3937007874015748},{"duration":0.14285699999999935,"midi":81,"time":27.285687000000003,"velocity":0.3937007874015748},{"duration":0.14285699999999935,"midi":74,"time":27.428544000000002,"velocity":0.3937007874015748},{"duration":0.14285699999999935,"midi":79,"time":27.428544000000002,"velocity":0.3937007874015748},{"duration":0.14285699999999935,"midi":79,"time":27.428544000000002,"velocity":0.3937007874015748},{"duration":0.14285699999999935,"midi":82,"time":27.428544000000002,"velocity":0.3937007874015748},{"duration":0.14285699999999935,"midi":74,"time":27.428544000000002,"velocity":0.3937007874015748},{"duration":0.14285699999999935,"midi":82,"time":27.428544000000002,"velocity":0.3937007874015748},{"duration":0.14285699999999935,"midi":82,"time":27.714258000000005,"velocity":0.3937007874015748},{"duration":0.14285699999999935,"midi":82,"time":27.714258000000005,"velocity":0.3937007874015748},{"duration":0.14285699999999935,"midi":79,"time":27.714258000000005,"velocity":0.3937007874015748},{"duration":0.14285699999999935,"midi":79,"time":27.714258000000005,"velocity":0.3937007874015748},{"duration":0.14285699999999935,"midi":74,"time":27.714258000000005,"velocity":0.3937007874015748},{"duration":0.14285699999999935,"midi":74,"time":27.714258000000005,"velocity":0.3937007874015748},{"duration":0.14285700000000645,"midi":81,"time":27.999972,"velocity":0.3937007874015748},{"duration":0.14285700000000645,"midi":81,"time":27.999972,"velocity":0.3937007874015748},{"duration":0.14285700000000645,"midi":74,"time":27.999972,"velocity":0.3937007874015748},{"duration":0.14285700000000645,"midi":74,"time":27.999972,"velocity":0.3937007874015748},{"duration":0.1428569999999958,"midi":79,"time":28.142829000000006,"velocity":0.3937007874015748},{"duration":0.1428569999999958,"midi":79,"time":28.142829000000006,"velocity":0.3937007874015748},{"duration":0.14285699999999935,"midi":74,"time":28.285686000000002,"velocity":0.3937007874015748},{"duration":0.14285699999999935,"midi":81,"time":28.285686000000002,"velocity":0.3937007874015748},{"duration":0.14285699999999935,"midi":81,"time":28.285686000000002,"velocity":0.3937007874015748},{"duration":0.14285699999999935,"midi":74,"time":28.285686000000002,"velocity":0.3937007874015748},{"duration":0.42857099999999804,"midi":69,"time":28.428543,"velocity":0.3937007874015748},{"duration":0.42857099999999804,"midi":74,"time":28.428543,"velocity":0.3937007874015748},{"duration":0.42857099999999804,"midi":74,"time":28.428543,"velocity":0.3937007874015748},{"duration":0.42857099999999804,"midi":69,"time":28.428543,"velocity":0.3937007874015748},{"duration":0.42857099999999804,"midi":65,"time":28.428543,"velocity":0.3937007874015748},{"duration":0.42857099999999804,"midi":65,"time":28.428543,"velocity":0.3937007874015748},{"duration":0.14285700000000645,"midi":74,"time":28.857114,"velocity":0.3937007874015748},{"duration":0.14285700000000645,"midi":74,"time":28.857114,"velocity":0.3937007874015748},{"duration":0.1428569999999958,"midi":76,"time":28.999971000000006,"velocity":0.3937007874015748},{"duration":0.1428569999999958,"midi":76,"time":28.999971000000006,"velocity":0.3937007874015748},{"duration":0.14285699999999935,"midi":72,"time":29.142828,"velocity":0.3937007874015748},{"duration":0.14285699999999935,"midi":69,"time":29.142828,"velocity":0.3937007874015748},{"duration":0.14285699999999935,"midi":77,"time":29.142828,"velocity":0.3937007874015748},{"duration":0.14285699999999935,"midi":69,"time":29.142828,"velocity":0.3937007874015748},{"duration":0.14285699999999935,"midi":72,"time":29.142828,"velocity":0.3937007874015748},{"duration":0.14285699999999935,"midi":77,"time":29.142828,"velocity":0.3937007874015748},{"duration":0.14285699999999935,"midi":72,"time":29.428542000000004,"velocity":0.3937007874015748},{"duration":0.14285699999999935,"midi":69,"time":29.428542000000004,"velocity":0.3937007874015748},{"duration":0.14285699999999935,"midi":77,"time":29.428542000000004,"velocity":0.3937007874015748},{"duration":0.14285699999999935,"midi":72,"time":29.428542000000004,"velocity":0.3937007874015748},{"duration":0.14285699999999935,"midi":77,"time":29.428542000000004,"velocity":0.3937007874015748},{"duration":0.14285699999999935,"midi":69,"time":29.428542000000004,"velocity":0.3937007874015748},{"duration":0.14285700000000645,"midi":79,"time":29.714256,"velocity":0.3937007874015748},{"duration":0.14285700000000645,"midi":72,"time":29.714256,"velocity":0.3937007874015748},{"duration":0.14285700000000645,"midi":79,"time":29.714256,"velocity":0.3937007874015748},{"duration":0.14285700000000645,"midi":72,"time":29.714256,"velocity":0.3937007874015748},{"duration":0.14285700000000645,"midi":69,"time":29.714256,"velocity":0.3937007874015748},{"duration":0.14285700000000645,"midi":69,"time":29.714256,"velocity":0.3937007874015748},{"duration":0.14285699999999935,"midi":81,"time":29.99997,"velocity":0.3937007874015748},{"duration":0.14285699999999935,"midi":81,"time":29.99997,"velocity":0.3937007874015748},{"duration":0.14285699999999935,"midi":74,"time":29.99997,"velocity":0.3937007874015748},{"duration":0.14285699999999935,"midi":74,"time":29.99997,"velocity":0.3937007874015748},{"duration":0.14285699999999935,"midi":77,"time":29.99997,"velocity":0.3937007874015748},{"duration":0.14285699999999935,"midi":77,"time":29.99997,"velocity":0.3937007874015748},{"duration":0.1428570000000029,"midi":74,"time":30.142827,"velocity":0.3937007874015748},{"duration":0.1428570000000029,"midi":74,"time":30.142827,"velocity":0.3937007874015748},{"duration":0.1428570000000029,"midi":74,"time":30.571398000000002,"velocity":0.3937007874015748},{"duration":0.1428570000000029,"midi":74,"time":30.571398000000002,"velocity":0.3937007874015748},{"duration":0.1428569999999958,"midi":77,"time":30.714255000000005,"velocity":0.3937007874015748},{"duration":0.1428569999999958,"midi":77,"time":30.714255000000005,"velocity":0.3937007874015748},{"duration":0.14285699999999935,"midi":73,"time":30.857112,"velocity":0.3937007874015748},{"duration":0.14285699999999935,"midi":69,"time":30.857112,"velocity":0.3937007874015748},{"duration":0.14285699999999935,"midi":76,"time":30.857112,"velocity":0.3937007874015748},{"duration":0.14285699999999935,"midi":73,"time":30.857112,"velocity":0.3937007874015748},{"duration":0.14285699999999935,"midi":76,"time":30.857112,"velocity":0.3937007874015748},{"duration":0.14285699999999935,"midi":69,"time":30.857112,"velocity":0.3937007874015748},{"duration":0.14285699999999935,"midi":69,"time":31.142826000000003,"velocity":0.3937007874015748},{"duration":0.14285699999999935,"midi":76,"time":31.142826000000003,"velocity":0.3937007874015748},{"duration":0.14285699999999935,"midi":73,"time":31.142826000000003,"velocity":0.3937007874015748},{"duration":0.14285699999999935,"midi":69,"time":31.142826000000003,"velocity":0.3937007874015748},{"duration":0.14285699999999935,"midi":76,"time":31.142826000000003,"velocity":0.3937007874015748},{"duration":0.14285699999999935,"midi":73,"time":31.142826000000003,"velocity":0.3937007874015748},{"duration":0.1428570000000029,"midi":74,"time":31.42854,"velocity":0.3937007874015748},{"duration":0.1428570000000029,"midi":74,"time":31.42854,"velocity":0.3937007874015748},{"duration":0.14285699999999935,"midi":73,"time":31.571397000000005,"velocity":0.3937007874015748},{"duration":0.14285699999999935,"midi":73,"time":31.571397000000005,"velocity":0.3937007874015748},{"duration":0.28571400000000224,"midi":69,"time":31.714254000000004,"velocity":0.3937007874015748},{"duration":0.28571400000000224,"midi":74,"time":31.714254000000004,"velocity":0.3937007874015748},{"duration":0.28571400000000224,"midi":69,"time":31.714254000000004,"velocity":0.3937007874015748},{"duration":0.28571400000000224,"midi":74,"time":31.714254000000004,"velocity":0.3937007874015748},{"duration":0.28571399999999514,"midi":74,"time":31.999968000000006,"velocity":0.3937007874015748},{"duration":0.28571399999999514,"midi":74,"time":31.999968000000006,"velocity":0.3937007874015748},{"duration":0.28571399999999514,"midi":69,"time":31.999968000000006,"velocity":0.3937007874015748},{"duration":0.28571399999999514,"midi":69,"time":31.999968000000006,"velocity":0.3937007874015748},{"duration":0.2857139999999987,"midi":69,"time":32.285682,"velocity":0.3937007874015748},{"duration":0.2857139999999987,"midi":72,"time":32.285682,"velocity":0.3937007874015748},{"duration":0.2857139999999987,"midi":76,"time":32.285682,"velocity":0.3937007874015748},{"duration":0.2857139999999987,"midi":76,"time":32.285682,"velocity":0.3937007874015748},{"duration":0.2857139999999987,"midi":69,"time":32.285682,"velocity":0.3937007874015748},{"duration":0.2857139999999987,"midi":72,"time":32.285682,"velocity":0.3937007874015748},{"duration":0.2857140000000058,"midi":72,"time":32.571396,"velocity":0.3937007874015748},{"duration":0.2857140000000058,"midi":74,"time":32.571396,"velocity":0.3937007874015748},{"duration":0.2857140000000058,"midi":72,"time":32.571396,"velocity":0.3937007874015748},{"duration":0.2857140000000058,"midi":77,"time":32.571396,"velocity":0.3937007874015748},{"duration":0.2857140000000058,"midi":74,"time":32.571396,"velocity":0.3937007874015748},{"duration":0.2857140000000058,"midi":77,"time":32.571396,"velocity":0.3937007874015748},{"duration":0.14285699999999935,"midi":77,"time":32.857110000000006,"velocity":0.3937007874015748},{"duration":0.14285699999999935,"midi":77,"time":32.857110000000006,"velocity":0.3937007874015748},{"duration":0.14285699999999224,"midi":77,"time":32.999967000000005,"velocity":0.3937007874015748},{"duration":0.14285699999999224,"midi":77,"time":32.999967000000005,"velocity":0.3937007874015748},{"duration":0.2857140000000058,"midi":70,"time":33.142824,"velocity":0.3937007874015748},{"duration":0.2857140000000058,"midi":74,"time":33.142824,"velocity":0.3937007874015748},{"duration":0.2857140000000058,"midi":70,"time":33.142824,"velocity":0.3937007874015748},{"duration":0.2857140000000058,"midi":79,"time":33.142824,"velocity":0.3937007874015748},{"duration":0.2857140000000058,"midi":79,"time":33.142824,"velocity":0.3937007874015748},{"duration":0.2857140000000058,"midi":74,"time":33.142824,"velocity":0.3937007874015748},{"duration":0.5714279999999974,"midi":81,"time":33.428538,"velocity":0.3937007874015748},{"duration":0.5714279999999974,"midi":74,"time":33.428538,"velocity":0.3937007874015748},{"duration":0.5714279999999974,"midi":81,"time":33.428538,"velocity":0.3937007874015748},{"duration":0.5714279999999974,"midi":77,"time":33.428538,"velocity":0.3937007874015748},{"duration":0.5714279999999974,"midi":77,"time":33.428538,"velocity":0.3937007874015748},{"duration":0.5714279999999974,"midi":74,"time":33.428538,"velocity":0.3937007874015748},{"duration":0.14285700000000645,"midi":77,"time":33.999966,"velocity":0.3937007874015748},{"duration":0.14285700000000645,"midi":77,"time":33.999966,"velocity":0.3937007874015748},{"duration":0.14285699999999224,"midi":74,"time":34.14282300000001,"velocity":0.3937007874015748},{"duration":0.14285699999999224,"midi":74,"time":34.14282300000001,"velocity":0.3937007874015748},{"duration":0.8571420000000032,"midi":69,"time":34.28568,"velocity":0.3937007874015748},{"duration":0.8571420000000032,"midi":69,"time":34.28568,"velocity":0.3937007874015748},{"duration":0.5714279999999974,"midi":77,"time":35.142822,"velocity":0.3937007874015748},{"duration":0.5714279999999974,"midi":74,"time":35.142822,"velocity":0.3937007874015748},{"duration":0.5714279999999974,"midi":82,"time":35.142822,"velocity":0.3937007874015748},{"duration":0.5714279999999974,"midi":77,"time":35.142822,"velocity":0.3937007874015748},{"duration":0.5714279999999974,"midi":82,"time":35.142822,"velocity":0.3937007874015748},{"duration":0.5714279999999974,"midi":74,"time":35.142822,"velocity":0.3937007874015748},{"duration":0.14285700000000645,"midi":77,"time":35.71425,"velocity":0.3937007874015748},{"duration":0.14285700000000645,"midi":77,"time":35.71425,"velocity":0.3937007874015748},{"duration":0.14285699999999935,"midi":74,"time":35.857107000000006,"velocity":0.3937007874015748},{"duration":0.14285699999999935,"midi":74,"time":35.857107000000006,"velocity":0.3937007874015748},{"duration":0.8571419999999961,"midi":70,"time":35.999964000000006,"velocity":0.3937007874015748},{"duration":0.8571419999999961,"midi":70,"time":35.999964000000006,"velocity":0.3937007874015748},{"duration":0.14285699999999935,"midi":69,"time":36.857106,"velocity":0.3937007874015748},{"duration":0.14285699999999935,"midi":69,"time":36.857106,"velocity":0.3937007874015748},{"duration":0.14285699999999935,"midi":76,"time":36.857106,"velocity":0.3937007874015748},{"duration":0.14285699999999935,"midi":76,"time":36.857106,"velocity":0.3937007874015748},{"duration":0.2857139999999987,"midi":76,"time":36.999963,"velocity":0.3937007874015748},{"duration":0.2857139999999987,"midi":76,"time":36.999963,"velocity":0.3937007874015748},{"duration":0.42857100000000514,"midi":65,"time":37.285677,"velocity":0.3937007874015748},{"duration":0.42857100000000514,"midi":74,"time":37.285677,"velocity":0.3937007874015748},{"duration":0.42857100000000514,"midi":74,"time":37.285677,"velocity":0.3937007874015748},{"duration":0.42857100000000514,"midi":69,"time":37.285677,"velocity":0.3937007874015748},{"duration":0.42857100000000514,"midi":65,"time":37.285677,"velocity":0.3937007874015748},{"duration":0.42857100000000514,"midi":69,"time":37.285677,"velocity":0.3937007874015748},{"duration":0.42857099999999804,"midi":73,"time":37.714248000000005,"velocity":0.3937007874015748},{"duration":0.42857099999999804,"midi":69,"time":37.714248000000005,"velocity":0.3937007874015748},{"duration":0.42857099999999804,"midi":73,"time":37.714248000000005,"velocity":0.3937007874015748},{"duration":0.42857099999999804,"midi":69,"time":37.714248000000005,"velocity":0.3937007874015748},{"duration":0.42857099999999804,"midi":77,"time":37.714248000000005,"velocity":0.3937007874015748},{"duration":0.42857099999999804,"midi":77,"time":37.714248000000005,"velocity":0.3937007874015748},{"duration":0.14285700000000645,"midi":65,"time":38.285676,"velocity":0.3937007874015748},{"duration":0.14285700000000645,"midi":65,"time":38.285676,"velocity":0.3937007874015748},{"duration":0.14285699999999224,"midi":67,"time":38.42853300000001,"velocity":0.3937007874015748},{"duration":0.14285699999999224,"midi":67,"time":38.42853300000001,"velocity":0.3937007874015748},{"duration":0.14285699999999935,"midi":65,"time":38.57139,"velocity":0.3937007874015748},{"duration":0.14285699999999935,"midi":62,"time":38.57139,"velocity":0.3937007874015748},{"duration":0.14285699999999935,"midi":69,"time":38.57139,"velocity":0.3937007874015748},{"duration":0.14285699999999935,"midi":69,"time":38.57139,"velocity":0.3937007874015748},{"duration":0.14285699999999935,"midi":62,"time":38.57139,"velocity":0.3937007874015748},{"duration":0.14285699999999935,"midi":65,"time":38.57139,"velocity":0.3937007874015748},{"duration":0.14285699999999935,"midi":65,"time":38.85710400000001,"velocity":0.3937007874015748},{"duration":0.14285699999999935,"midi":69,"time":38.85710400000001,"velocity":0.3937007874015748},{"duration":0.14285699999999935,"midi":69,"time":38.85710400000001,"velocity":0.3937007874015748},{"duration":0.14285699999999935,"midi":62,"time":38.85710400000001,"velocity":0.3937007874015748},{"duration":0.14285699999999935,"midi":62,"time":38.85710400000001,"velocity":0.3937007874015748},{"duration":0.14285699999999935,"midi":65,"time":38.85710400000001,"velocity":0.3937007874015748},{"duration":0.14285700000000645,"midi":62,"time":39.142818,"velocity":0.3937007874015748},{"duration":0.14285700000000645,"midi":65,"time":39.142818,"velocity":0.3937007874015748},{"duration":0.14285700000000645,"midi":65,"time":39.142818,"velocity":0.3937007874015748},{"duration":0.14285700000000645,"midi":69,"time":39.142818,"velocity":0.3937007874015748},{"duration":0.14285700000000645,"midi":62,"time":39.142818,"velocity":0.3937007874015748},{"duration":0.14285700000000645,"midi":69,"time":39.142818,"velocity":0.3937007874015748},{"duration":0.14285699999999935,"midi":70,"time":39.428532000000004,"velocity":0.3937007874015748},{"duration":0.14285699999999935,"midi":62,"time":39.428532000000004,"velocity":0.3937007874015748},{"duration":0.14285699999999935,"midi":67,"time":39.428532000000004,"velocity":0.3937007874015748},{"duration":0.14285699999999935,"midi":70,"time":39.428532000000004,"velocity":0.3937007874015748},{"duration":0.14285699999999935,"midi":62,"time":39.428532000000004,"velocity":0.3937007874015748},{"duration":0.14285699999999935,"midi":67,"time":39.428532000000004,"velocity":0.3937007874015748},{"duration":0.14285699999999935,"midi":62,"time":39.571389,"velocity":0.3937007874015748},{"duration":0.14285699999999935,"midi":65,"time":39.571389,"velocity":0.3937007874015748},{"duration":0.14285699999999935,"midi":69,"time":39.571389,"velocity":0.3937007874015748},{"duration":0.14285699999999935,"midi":65,"time":39.571389,"velocity":0.3937007874015748},{"duration":0.14285699999999935,"midi":62,"time":39.571389,"velocity":0.3937007874015748},{"duration":0.14285699999999935,"midi":69,"time":39.571389,"velocity":0.3937007874015748},{"duration":0.14285699999999935,"midi":60,"time":40.285674,"velocity":0.3937007874015748},{"duration":0.14285699999999935,"midi":64,"time":40.285674,"velocity":0.3937007874015748},{"duration":0.14285699999999935,"midi":67,"time":40.285674,"velocity":0.3937007874015748},{"duration":0.14285699999999935,"midi":60,"time":40.285674,"velocity":0.3937007874015748},{"duration":0.14285699999999935,"midi":67,"time":40.285674,"velocity":0.3937007874015748},{"duration":0.14285699999999935,"midi":64,"time":40.285674,"velocity":0.3937007874015748},{"duration":0.14285699999999935,"midi":67,"time":40.571388000000006,"velocity":0.3937007874015748},{"duration":0.14285699999999935,"midi":60,"time":40.571388000000006,"velocity":0.3937007874015748},{"duration":0.14285699999999935,"midi":64,"time":40.571388000000006,"velocity":0.3937007874015748},{"duration":0.14285699999999935,"midi":60,"time":40.571388000000006,"velocity":0.3937007874015748},{"duration":0.14285699999999935,"midi":67,"time":40.571388000000006,"velocity":0.3937007874015748},{"duration":0.14285699999999935,"midi":64,"time":40.571388000000006,"velocity":0.3937007874015748},{"duration":0.14285699999999935,"midi":60,"time":40.857102000000005,"velocity":0.3937007874015748},{"duration":0.14285699999999935,"midi":67,"time":40.857102000000005,"velocity":0.3937007874015748},{"duration":0.14285699999999935,"midi":64,"time":40.857102000000005,"velocity":0.3937007874015748},{"duration":0.14285699999999935,"midi":67,"time":40.857102000000005,"velocity":0.3937007874015748},{"duration":0.14285699999999935,"midi":64,"time":40.857102000000005,"velocity":0.3937007874015748},{"duration":0.14285699999999935,"midi":60,"time":40.857102000000005,"velocity":0.3937007874015748},{"duration":0.14285699999999935,"midi":60,"time":41.142816,"velocity":0.3937007874015748},{"duration":0.14285699999999935,"midi":64,"time":41.142816,"velocity":0.3937007874015748},{"duration":0.14285699999999935,"midi":64,"time":41.142816,"velocity":0.3937007874015748},{"duration":0.14285699999999935,"midi":60,"time":41.142816,"velocity":0.3937007874015748},{"duration":0.14285699999999935,"midi":67,"time":41.142816,"velocity":0.3937007874015748},{"duration":0.14285699999999935,"midi":67,"time":41.142816,"velocity":0.3937007874015748},{"duration":0.14285699999999935,"midi":65,"time":41.285673,"velocity":0.3937007874015748},{"duration":0.14285699999999935,"midi":65,"time":41.285673,"velocity":0.3937007874015748},{"duration":0.14285699999999935,"midi":60,"time":41.285673,"velocity":0.3937007874015748},{"duration":0.14285699999999935,"midi":60,"time":41.285673,"velocity":0.3937007874015748},{"duration":0.14285699999999935,"midi":69,"time":41.285673,"velocity":0.3937007874015748},{"duration":0.14285699999999935,"midi":69,"time":41.285673,"velocity":0.3937007874015748},{"duration":0.14285699999999224,"midi":69,"time":41.99995800000001,"velocity":0.3937007874015748},{"duration":0.14285699999999224,"midi":69,"time":41.99995800000001,"velocity":0.3937007874015748},{"duration":0.14285699999999224,"midi":65,"time":41.99995800000001,"velocity":0.3937007874015748},{"duration":0.14285699999999224,"midi":62,"time":41.99995800000001,"velocity":0.3937007874015748},{"duration":0.14285699999999224,"midi":62,"time":41.99995800000001,"velocity":0.3937007874015748},{"duration":0.14285699999999224,"midi":65,"time":41.99995800000001,"velocity":0.3937007874015748},{"duration":0.14285699999999935,"midi":69,"time":42.285672000000005,"velocity":0.3937007874015748},{"duration":0.14285699999999935,"midi":65,"time":42.285672000000005,"velocity":0.3937007874015748},{"duration":0.14285699999999935,"midi":62,"time":42.285672000000005,"velocity":0.3937007874015748},{"duration":0.14285699999999935,"midi":62,"time":42.285672000000005,"velocity":0.3937007874015748},{"duration":0.14285699999999935,"midi":65,"time":42.285672000000005,"velocity":0.3937007874015748},{"duration":0.14285699999999935,"midi":69,"time":42.285672000000005,"velocity":0.3937007874015748},{"duration":0.14285699999999935,"midi":62,"time":42.571386000000004,"velocity":0.3937007874015748},{"duration":0.14285699999999935,"midi":65,"time":42.571386000000004,"velocity":0.3937007874015748},{"duration":0.14285699999999935,"midi":62,"time":42.571386000000004,"velocity":0.3937007874015748},{"duration":0.14285699999999935,"midi":69,"time":42.571386000000004,"velocity":0.3937007874015748},{"duration":0.14285699999999935,"midi":65,"time":42.571386000000004,"velocity":0.3937007874015748},{"duration":0.14285699999999935,"midi":69,"time":42.571386000000004,"velocity":0.3937007874015748},{"duration":0.14285699999999935,"midi":62,"time":42.8571,"velocity":0.3937007874015748},{"duration":0.14285699999999935,"midi":70,"time":42.8571,"velocity":0.3937007874015748},{"duration":0.14285699999999935,"midi":62,"time":42.8571,"velocity":0.3937007874015748},{"duration":0.14285699999999935,"midi":70,"time":42.8571,"velocity":0.3937007874015748},{"duration":0.14285699999999935,"midi":67,"time":42.8571,"velocity":0.3937007874015748},{"duration":0.14285699999999935,"midi":67,"time":42.8571,"velocity":0.3937007874015748},{"duration":0.14285700000000645,"midi":69,"time":42.999957,"velocity":0.3937007874015748},{"duration":0.14285700000000645,"midi":65,"time":42.999957,"velocity":0.3937007874015748},{"duration":0.14285700000000645,"midi":62,"time":42.999957,"velocity":0.3937007874015748},{"duration":0.14285700000000645,"midi":69,"time":42.999957,"velocity":0.3937007874015748},{"duration":0.14285700000000645,"midi":62,"time":42.999957,"velocity":0.3937007874015748},{"duration":0.14285700000000645,"midi":65,"time":42.999957,"velocity":0.3937007874015748},{"duration":0.14285699999999224,"midi":64,"time":43.714242000000006,"velocity":0.3937007874015748},{"duration":0.14285699999999224,"midi":61,"time":43.714242000000006,"velocity":0.3937007874015748},{"duration":0.14285699999999224,"midi":67,"time":43.714242000000006,"velocity":0.3937007874015748},{"duration":0.14285699999999224,"midi":67,"time":43.714242000000006,"velocity":0.3937007874015748},{"duration":0.14285699999999224,"midi":61,"time":43.714242000000006,"velocity":0.3937007874015748},{"duration":0.14285699999999224,"midi":64,"time":43.714242000000006,"velocity":0.3937007874015748},{"duration":0.14285699999999935,"midi":65,"time":43.999956000000005,"velocity":0.3937007874015748},{"duration":0.14285699999999935,"midi":65,"time":43.999956000000005,"velocity":0.3937007874015748},{"duration":0.14285699999999935,"midi":61,"time":43.999956000000005,"velocity":0.3937007874015748},{"duration":0.14285699999999935,"midi":61,"time":43.999956000000005,"velocity":0.3937007874015748},{"duration":0.14285699999999935,"midi":64,"time":44.28567,"velocity":0.3937007874015748},{"duration":0.14285699999999935,"midi":64,"time":44.28567,"velocity":0.3937007874015748},{"duration":0.14285699999999935,"midi":61,"time":44.28567,"velocity":0.3937007874015748},{"duration":0.14285699999999935,"midi":61,"time":44.28567,"velocity":0.3937007874015748},{"duration":0.14285699999999935,"midi":62,"time":44.571384,"velocity":0.3937007874015748},{"duration":0.14285699999999935,"midi":57,"time":44.571384,"velocity":0.3937007874015748},{"duration":0.14285699999999935,"midi":57,"time":44.571384,"velocity":0.3937007874015748},{"duration":0.14285699999999935,"midi":53,"time":44.571384,"velocity":0.3937007874015748},{"duration":0.14285699999999935,"midi":53,"time":44.571384,"velocity":0.3937007874015748},{"duration":0.14285699999999935,"midi":62,"time":44.571384,"velocity":0.3937007874015748},{"duration":0.14285700000000645,"midi":62,"time":45.142812,"velocity":0.3937007874015748},{"duration":0.14285700000000645,"midi":62,"time":45.142812,"velocity":0.3937007874015748},{"duration":0.14285699999999935,"midi":64,"time":45.285669000000006,"velocity":0.3937007874015748},{"duration":0.14285699999999935,"midi":64,"time":45.285669000000006,"velocity":0.3937007874015748},{"duration":0.5714279999999974,"midi":57,"time":45.428526000000005,"velocity":0.3937007874015748},{"duration":0.5714279999999974,"midi":65,"time":45.428526000000005,"velocity":0.3937007874015748},{"duration":0.5714279999999974,"midi":57,"time":45.428526000000005,"velocity":0.3937007874015748},{"duration":0.5714279999999974,"midi":62,"time":45.428526000000005,"velocity":0.3937007874015748},{"duration":0.5714279999999974,"midi":62,"time":45.428526000000005,"velocity":0.3937007874015748},{"duration":0.5714279999999974,"midi":65,"time":45.428526000000005,"velocity":0.3937007874015748},{"duration":0.14285700000000645,"midi":67,"time":45.999954,"velocity":0.3937007874015748},{"duration":0.14285700000000645,"midi":67,"time":45.999954,"velocity":0.3937007874015748},{"duration":0.14285699999999224,"midi":69,"time":46.14281100000001,"velocity":0.3937007874015748},{"duration":0.14285699999999224,"midi":69,"time":46.14281100000001,"velocity":0.3937007874015748},{"duration":0.2857140000000058,"midi":60,"time":46.285668,"velocity":0.3937007874015748},{"duration":0.2857140000000058,"midi":55,"time":46.285668,"velocity":0.3937007874015748},{"duration":0.2857140000000058,"midi":60,"time":46.285668,"velocity":0.3937007874015748},{"duration":0.2857140000000058,"midi":55,"time":46.285668,"velocity":0.3937007874015748},{"duration":0.2857140000000058,"midi":67,"time":46.285668,"velocity":0.3937007874015748},{"duration":0.2857140000000058,"midi":67,"time":46.285668,"velocity":0.3937007874015748},{"duration":0.2857139999999916,"midi":65,"time":46.57138200000001,"velocity":0.3937007874015748},{"duration":0.2857139999999916,"midi":60,"time":46.57138200000001,"velocity":0.3937007874015748},{"duration":0.2857139999999916,"midi":65,"time":46.57138200000001,"velocity":0.3937007874015748},{"duration":0.2857139999999916,"midi":60,"time":46.57138200000001,"velocity":0.3937007874015748},{"duration":0.2857139999999916,"midi":55,"time":46.57138200000001,"velocity":0.3937007874015748},{"duration":0.2857139999999916,"midi":55,"time":46.57138200000001,"velocity":0.3937007874015748},{"duration":0.2857140000000058,"midi":55,"time":46.857096,"velocity":0.3937007874015748},{"duration":0.2857140000000058,"midi":55,"time":46.857096,"velocity":0.3937007874015748},{"duration":0.2857140000000058,"midi":64,"time":46.857096,"velocity":0.3937007874015748},{"duration":0.2857140000000058,"midi":60,"time":46.857096,"velocity":0.3937007874015748},{"duration":0.2857140000000058,"midi":60,"time":46.857096,"velocity":0.3937007874015748},{"duration":0.2857140000000058,"midi":64,"time":46.857096,"velocity":0.3937007874015748},{"duration":0.2857139999999987,"midi":57,"time":47.142810000000004,"velocity":0.3937007874015748},{"duration":0.2857139999999987,"midi":65,"time":47.142810000000004,"velocity":0.3937007874015748},{"duration":0.2857139999999987,"midi":60,"time":47.142810000000004,"velocity":0.3937007874015748},{"duration":0.2857139999999987,"midi":57,"time":47.142810000000004,"velocity":0.3937007874015748},{"duration":0.2857139999999987,"midi":60,"time":47.142810000000004,"velocity":0.3937007874015748},{"duration":0.2857139999999987,"midi":65,"time":47.142810000000004,"velocity":0.3937007874015748},{"duration":0.2857139999999987,"midi":67,"time":47.428524,"velocity":0.3937007874015748},{"duration":0.2857139999999987,"midi":67,"time":47.428524,"velocity":0.3937007874015748},{"duration":0.2857139999999987,"midi":57,"time":47.428524,"velocity":0.3937007874015748},{"duration":0.2857139999999987,"midi":57,"time":47.428524,"velocity":0.3937007874015748},{"duration":0.2857139999999987,"midi":60,"time":47.428524,"velocity":0.3937007874015748},{"duration":0.2857139999999987,"midi":60,"time":47.428524,"velocity":0.3937007874015748},{"duration":0.2857140000000058,"midi":69,"time":47.714238,"velocity":0.3937007874015748},{"duration":0.2857140000000058,"midi":57,"time":47.714238,"velocity":0.3937007874015748},{"duration":0.2857140000000058,"midi":57,"time":47.714238,"velocity":0.3937007874015748},{"duration":0.2857140000000058,"midi":60,"time":47.714238,"velocity":0.3937007874015748},{"duration":0.2857140000000058,"midi":69,"time":47.714238,"velocity":0.3937007874015748},{"duration":0.2857140000000058,"midi":60,"time":47.714238,"velocity":0.3937007874015748},{"duration":0.5714279999999974,"midi":64,"time":47.99995200000001,"velocity":0.3937007874015748},{"duration":0.5714279999999974,"midi":67,"time":47.99995200000001,"velocity":0.3937007874015748},{"duration":0.5714279999999974,"midi":67,"time":47.99995200000001,"velocity":0.3937007874015748},{"duration":0.5714279999999974,"midi":64,"time":47.99995200000001,"velocity":0.3937007874015748},{"duration":0.5714279999999974,"midi":60,"time":47.99995200000001,"velocity":0.3937007874015748},{"duration":0.5714279999999974,"midi":60,"time":47.99995200000001,"velocity":0.3937007874015748},{"duration":0.14285699999999935,"midi":65,"time":48.571380000000005,"velocity":0.3937007874015748},{"duration":0.14285699999999935,"midi":65,"time":48.571380000000005,"velocity":0.3937007874015748},{"duration":0.14285699999999935,"midi":67,"time":48.714237000000004,"velocity":0.3937007874015748},{"duration":0.14285699999999935,"midi":67,"time":48.714237000000004,"velocity":0.3937007874015748},{"duration":0.5714279999999974,"midi":62,"time":48.857094000000004,"velocity":0.3937007874015748},{"duration":0.5714279999999974,"midi":69,"time":48.857094000000004,"velocity":0.3937007874015748},{"duration":0.5714279999999974,"midi":69,"time":48.857094000000004,"velocity":0.3937007874015748},{"duration":0.5714279999999974,"midi":65,"time":48.857094000000004,"velocity":0.3937007874015748},{"duration":0.5714279999999974,"midi":65,"time":48.857094000000004,"velocity":0.3937007874015748},{"duration":0.5714279999999974,"midi":62,"time":48.857094000000004,"velocity":0.3937007874015748},{"duration":0.14285700000000645,"midi":67,"time":49.428522,"velocity":0.3937007874015748},{"duration":0.14285700000000645,"midi":67,"time":49.428522,"velocity":0.3937007874015748},{"duration":0.14285699999999935,"midi":65,"time":49.57137900000001,"velocity":0.3937007874015748},{"duration":0.14285699999999935,"midi":65,"time":49.57137900000001,"velocity":0.3937007874015748},{"duration":0.2857139999999987,"midi":64,"time":49.71423600000001,"velocity":0.3937007874015748},{"duration":0.2857139999999987,"midi":64,"time":49.71423600000001,"velocity":0.3937007874015748},{"duration":0.2857139999999987,"midi":61,"time":49.71423600000001,"velocity":0.3937007874015748},{"duration":0.2857139999999987,"midi":61,"time":49.71423600000001,"velocity":0.3937007874015748},{"duration":0.2857139999999987,"midi":61,"time":49.999950000000005,"velocity":0.3937007874015748},{"duration":0.2857139999999987,"midi":65,"time":49.999950000000005,"velocity":0.3937007874015748},{"duration":0.2857139999999987,"midi":61,"time":49.999950000000005,"velocity":0.3937007874015748},{"duration":0.2857139999999987,"midi":65,"time":49.999950000000005,"velocity":0.3937007874015748},{"duration":0.2857139999999987,"midi":64,"time":50.285664000000004,"velocity":0.3937007874015748},{"duration":0.2857139999999987,"midi":64,"time":50.285664000000004,"velocity":0.3937007874015748},{"duration":0.2857139999999987,"midi":61,"time":50.285664000000004,"velocity":0.3937007874015748},{"duration":0.2857139999999987,"midi":61,"time":50.285664000000004,"velocity":0.3937007874015748},{"duration":0.2857140000000058,"midi":53,"time":50.571378,"velocity":0.3937007874015748},{"duration":0.2857140000000058,"midi":62,"time":50.571378,"velocity":0.3937007874015748},{"duration":0.2857140000000058,"midi":62,"time":50.571378,"velocity":0.3937007874015748},{"duration":0.2857140000000058,"midi":57,"time":50.571378,"velocity":0.3937007874015748},{"duration":0.2857140000000058,"midi":53,"time":50.571378,"velocity":0.3937007874015748},{"duration":0.2857140000000058,"midi":57,"time":50.571378,"velocity":0.3937007874015748},{"duration":0.14285700000000645,"midi":64,"time":51.142806,"velocity":0.3937007874015748},{"duration":0.14285700000000645,"midi":64,"time":51.142806,"velocity":0.3937007874015748},{"duration":0.14285699999999935,"midi":60,"time":51.28566300000001,"velocity":0.3937007874015748},{"duration":0.14285699999999935,"midi":60,"time":51.28566300000001,"velocity":0.3937007874015748},{"duration":0.2857139999999987,"midi":57,"time":51.428520000000006,"velocity":0.3937007874015748},{"duration":0.2857139999999987,"midi":53,"time":51.428520000000006,"velocity":0.3937007874015748},{"duration":0.2857139999999987,"midi":62,"time":51.428520000000006,"velocity":0.3937007874015748},{"duration":0.2857139999999987,"midi":53,"time":51.428520000000006,"velocity":0.3937007874015748},{"duration":0.2857139999999987,"midi":62,"time":51.428520000000006,"velocity":0.3937007874015748},{"duration":0.2857139999999987,"midi":57,"time":51.428520000000006,"velocity":0.3937007874015748},{"duration":0.14285700000000645,"midi":74,"time":51.999948,"velocity":0.3937007874015748},{"duration":0.14285700000000645,"midi":74,"time":51.999948,"velocity":0.3937007874015748},{"duration":0.14285699999999224,"midi":76,"time":52.14280500000001,"velocity":0.3937007874015748},{"duration":0.14285699999999224,"midi":76,"time":52.14280500000001,"velocity":0.3937007874015748},{"duration":0.5714279999999974,"midi":69,"time":52.285662,"velocity":0.3937007874015748},{"duration":0.5714279999999974,"midi":74,"time":52.285662,"velocity":0.3937007874015748},{"duration":0.5714279999999974,"midi":74,"time":52.285662,"velocity":0.3937007874015748},{"duration":0.5714279999999974,"midi":77,"time":52.285662,"velocity":0.3937007874015748},{"duration":0.5714279999999974,"midi":69,"time":52.285662,"velocity":0.3937007874015748},{"duration":0.5714279999999974,"midi":77,"time":52.285662,"velocity":0.3937007874015748},{"duration":0.14285700000000645,"midi":76,"time":52.85709,"velocity":0.3937007874015748},{"duration":0.14285700000000645,"midi":76,"time":52.85709,"velocity":0.3937007874015748},{"duration":0.14285699999999935,"midi":77,"time":52.999947000000006,"velocity":0.3937007874015748},{"duration":0.14285699999999935,"midi":77,"time":52.999947000000006,"velocity":0.3937007874015748},{"duration":0.2857139999999987,"midi":72,"time":53.142804000000005,"velocity":0.3937007874015748},{"duration":0.2857139999999987,"midi":67,"time":53.142804000000005,"velocity":0.3937007874015748},{"duration":0.2857139999999987,"midi":72,"time":53.142804000000005,"velocity":0.3937007874015748},{"duration":0.2857139999999987,"midi":79,"time":53.142804000000005,"velocity":0.3937007874015748},{"duration":0.2857139999999987,"midi":67,"time":53.142804000000005,"velocity":0.3937007874015748},{"duration":0.2857139999999987,"midi":79,"time":53.142804000000005,"velocity":0.3937007874015748},{"duration":0.2857139999999987,"midi":67,"time":53.428518000000004,"velocity":0.3937007874015748},{"duration":0.2857139999999987,"midi":67,"time":53.428518000000004,"velocity":0.3937007874015748},{"duration":0.2857139999999987,"midi":72,"time":53.428518000000004,"velocity":0.3937007874015748},{"duration":0.2857139999999987,"midi":77,"time":53.428518000000004,"velocity":0.3937007874015748},{"duration":0.2857139999999987,"midi":72,"time":53.428518000000004,"velocity":0.3937007874015748},{"duration":0.2857139999999987,"midi":77,"time":53.428518000000004,"velocity":0.3937007874015748},{"duration":0.2857139999999987,"midi":67,"time":53.714232,"velocity":0.3937007874015748},{"duration":0.2857139999999987,"midi":72,"time":53.714232,"velocity":0.3937007874015748},{"duration":0.2857139999999987,"midi":79,"time":53.714232,"velocity":0.3937007874015748},{"duration":0.2857139999999987,"midi":79,"time":53.714232,"velocity":0.3937007874015748},{"duration":0.2857139999999987,"midi":72,"time":53.714232,"velocity":0.3937007874015748},{"duration":0.2857139999999987,"midi":67,"time":53.714232,"velocity":0.3937007874015748},{"duration":0.2857140000000058,"midi":77,"time":53.999946,"velocity":0.3937007874015748},{"duration":0.2857140000000058,"midi":81,"time":53.999946,"velocity":0.3937007874015748},{"duration":0.2857140000000058,"midi":77,"time":53.999946,"velocity":0.3937007874015748},{"duration":0.2857140000000058,"midi":81,"time":53.999946,"velocity":0.3937007874015748},{"duration":0.2857139999999987,"midi":72,"time":54.28566000000001,"velocity":0.3937007874015748},{"duration":0.2857139999999987,"midi":79,"time":54.28566000000001,"velocity":0.3937007874015748},{"duration":0.2857139999999987,"midi":79,"time":54.28566000000001,"velocity":0.3937007874015748},{"duration":0.2857139999999987,"midi":72,"time":54.28566000000001,"velocity":0.3937007874015748},{"duration":0.2857139999999987,"midi":72,"time":54.571374000000006,"velocity":0.3937007874015748},{"duration":0.2857139999999987,"midi":77,"time":54.571374000000006,"velocity":0.3937007874015748},{"duration":0.2857139999999987,"midi":77,"time":54.571374000000006,"velocity":0.3937007874015748},{"duration":0.2857139999999987,"midi":72,"time":54.571374000000006,"velocity":0.3937007874015748},{"duration":0.2857139999999987,"midi":65,"time":54.857088000000005,"velocity":0.3937007874015748},{"duration":0.2857139999999987,"midi":65,"time":54.857088000000005,"velocity":0.3937007874015748},{"duration":0.2857139999999987,"midi":70,"time":54.857088000000005,"velocity":0.3937007874015748},{"duration":0.2857139999999987,"midi":74,"time":54.857088000000005,"velocity":0.3937007874015748},{"duration":0.2857139999999987,"midi":70,"time":54.857088000000005,"velocity":0.3937007874015748},{"duration":0.2857139999999987,"midi":74,"time":54.857088000000005,"velocity":0.3937007874015748},{"duration":0.14285699999999224,"midi":74,"time":55.42851600000001,"velocity":0.3937007874015748},{"duration":0.14285699999999224,"midi":74,"time":55.42851600000001,"velocity":0.3937007874015748},{"duration":0.14285700000000645,"midi":76,"time":55.571373,"velocity":0.3937007874015748},{"duration":0.14285700000000645,"midi":76,"time":55.571373,"velocity":0.3937007874015748},{"duration":0.2857139999999916,"midi":77,"time":55.71423000000001,"velocity":0.3937007874015748},{"duration":0.2857139999999916,"midi":74,"time":55.71423000000001,"velocity":0.3937007874015748},{"duration":0.2857139999999916,"midi":74,"time":55.71423000000001,"velocity":0.3937007874015748},{"duration":0.2857139999999916,"midi":69,"time":55.71423000000001,"velocity":0.3937007874015748},{"duration":0.2857139999999916,"midi":69,"time":55.71423000000001,"velocity":0.3937007874015748},{"duration":0.2857139999999916,"midi":77,"time":55.71423000000001,"velocity":0.3937007874015748},{"duration":0.2857140000000129,"midi":79,"time":55.999944,"velocity":0.3937007874015748},{"duration":0.2857140000000129,"midi":69,"time":55.999944,"velocity":0.3937007874015748},{"duration":0.2857140000000129,"midi":79,"time":55.999944,"velocity":0.3937007874015748},{"duration":0.2857140000000129,"midi":74,"time":55.999944,"velocity":0.3937007874015748},{"duration":0.2857140000000129,"midi":74,"time":55.999944,"velocity":0.3937007874015748},{"duration":0.2857140000000129,"midi":69,"time":55.999944,"velocity":0.3937007874015748},{"duration":0.2857139999999916,"midi":74,"time":56.28565800000001,"velocity":0.3937007874015748},{"duration":0.2857139999999916,"midi":74,"time":56.28565800000001,"velocity":0.3937007874015748},{"duration":0.2857139999999916,"midi":81,"time":56.28565800000001,"velocity":0.3937007874015748},{"duration":0.2857139999999916,"midi":81,"time":56.28565800000001,"velocity":0.3937007874015748},{"duration":0.2857139999999987,"midi":70,"time":56.571372000000004,"velocity":0.3937007874015748},{"duration":0.2857139999999987,"midi":74,"time":56.571372000000004,"velocity":0.3937007874015748},{"duration":0.2857139999999987,"midi":82,"time":56.571372000000004,"velocity":0.3937007874015748},{"duration":0.2857139999999987,"midi":82,"time":56.571372000000004,"velocity":0.3937007874015748},{"duration":0.2857139999999987,"midi":74,"time":56.571372000000004,"velocity":0.3937007874015748},{"duration":0.2857139999999987,"midi":70,"time":56.571372000000004,"velocity":0.3937007874015748},{"duration":0.2857140000000058,"midi":70,"time":56.857086,"velocity":0.3937007874015748},{"duration":0.2857140000000058,"midi":70,"time":56.857086,"velocity":0.3937007874015748},{"duration":0.2857140000000058,"midi":74,"time":56.857086,"velocity":0.3937007874015748},{"duration":0.2857140000000058,"midi":74,"time":56.857086,"velocity":0.3937007874015748},{"duration":0.2857139999999987,"midi":79,"time":57.14280000000001,"velocity":0.3937007874015748},{"duration":0.2857139999999987,"midi":79,"time":57.14280000000001,"velocity":0.3937007874015748},{"duration":0.2857139999999987,"midi":74,"time":57.14280000000001,"velocity":0.3937007874015748},{"duration":0.2857139999999987,"midi":74,"time":57.14280000000001,"velocity":0.3937007874015748},{"duration":0.2857139999999916,"midi":77,"time":57.42851400000001,"velocity":0.3937007874015748},{"duration":0.2857139999999916,"midi":69,"time":57.42851400000001,"velocity":0.3937007874015748},{"duration":0.2857139999999916,"midi":69,"time":57.42851400000001,"velocity":0.3937007874015748},{"duration":0.2857139999999916,"midi":77,"time":57.42851400000001,"velocity":0.3937007874015748},{"duration":0.14285699999999224,"midi":79,"time":57.99994200000001,"velocity":0.3937007874015748},{"duration":0.14285699999999224,"midi":79,"time":57.99994200000001,"velocity":0.3937007874015748},{"duration":0.14285699999999935,"midi":76,"time":58.142799000000004,"velocity":0.3937007874015748},{"duration":0.14285699999999935,"midi":76,"time":58.142799000000004,"velocity":0.3937007874015748},{"duration":0.2857139999999987,"midi":69,"time":58.285656,"velocity":0.3937007874015748},{"duration":0.2857139999999987,"midi":74,"time":58.285656,"velocity":0.3937007874015748},{"duration":0.2857139999999987,"midi":69,"time":58.285656,"velocity":0.3937007874015748},{"duration":0.2857139999999987,"midi":74,"time":58.285656,"velocity":0.3937007874015748},{"duration":0.14285699999999224,"midi":76,"time":58.85708400000001,"velocity":0.3937007874015748},{"duration":0.14285699999999224,"midi":76,"time":58.85708400000001,"velocity":0.3937007874015748},{"duration":0.14285700000000645,"midi":73,"time":58.999941,"velocity":0.3937007874015748},{"duration":0.14285700000000645,"midi":73,"time":58.999941,"velocity":0.3937007874015748},{"duration":0.8571419999999961,"midi":74,"time":59.142798000000006,"velocity":0.3937007874015748},{"duration":0.8571419999999961,"midi":77,"time":59.142798000000006,"velocity":0.3937007874015748},{"duration":0.8571419999999961,"midi":81,"time":59.142798000000006,"velocity":0.3937007874015748},{"duration":0.8571419999999961,"midi":74,"time":59.142798000000006,"velocity":0.3937007874015748},{"duration":0.8571419999999961,"midi":81,"time":59.142798000000006,"velocity":0.3937007874015748},{"duration":0.8571419999999961,"midi":77,"time":59.142798000000006,"velocity":0.3937007874015748},{"duration":0.8571420000000032,"midi":74,"time":59.99994,"velocity":0.3937007874015748},{"duration":0.8571420000000032,"midi":74,"time":59.99994,"velocity":0.3937007874015748},{"duration":0.8571420000000032,"midi":77,"time":59.99994,"velocity":0.3937007874015748},{"duration":0.8571420000000032,"midi":82,"time":59.99994,"velocity":0.3937007874015748},{"duration":0.8571420000000032,"midi":77,"time":59.99994,"velocity":0.3937007874015748},{"duration":0.8571420000000032,"midi":82,"time":59.99994,"velocity":0.3937007874015748},{"duration":0.2857139999999987,"midi":81,"time":60.857082000000005,"velocity":0.3937007874015748},{"duration":0.2857139999999987,"midi":72,"time":60.857082000000005,"velocity":0.3937007874015748},{"duration":0.2857139999999987,"midi":77,"time":60.857082000000005,"velocity":0.3937007874015748},{"duration":0.2857139999999987,"midi":81,"time":60.857082000000005,"velocity":0.3937007874015748},{"duration":0.2857139999999987,"midi":72,"time":60.857082000000005,"velocity":0.3937007874015748},{"duration":0.2857139999999987,"midi":77,"time":60.857082000000005,"velocity":0.3937007874015748},{"duration":0.2857140000000058,"midi":81,"time":61.142796000000004,"velocity":0.3937007874015748},{"duration":0.2857140000000058,"midi":77,"time":61.142796000000004,"velocity":0.3937007874015748},{"duration":0.2857140000000058,"midi":72,"time":61.142796000000004,"velocity":0.3937007874015748},{"duration":0.2857140000000058,"midi":72,"time":61.142796000000004,"velocity":0.3937007874015748},{"duration":0.2857140000000058,"midi":81,"time":61.142796000000004,"velocity":0.3937007874015748},{"duration":0.2857140000000058,"midi":77,"time":61.142796000000004,"velocity":0.3937007874015748},{"duration":0.2857139999999916,"midi":77,"time":61.42851000000001,"velocity":0.3937007874015748},{"duration":0.2857139999999916,"midi":81,"time":61.42851000000001,"velocity":0.3937007874015748},{"duration":0.2857139999999916,"midi":72,"time":61.42851000000001,"velocity":0.3937007874015748},{"duration":0.2857139999999916,"midi":72,"time":61.42851000000001,"velocity":0.3937007874015748},{"duration":0.2857139999999916,"midi":81,"time":61.42851000000001,"velocity":0.3937007874015748},{"duration":0.2857139999999916,"midi":77,"time":61.42851000000001,"velocity":0.3937007874015748},{"duration":0.14285700000000645,"midi":81,"time":61.714224,"velocity":0.3937007874015748},{"duration":0.14285700000000645,"midi":77,"time":61.714224,"velocity":0.3937007874015748},{"duration":0.14285700000000645,"midi":72,"time":61.714224,"velocity":0.3937007874015748},{"duration":0.14285700000000645,"midi":81,"time":61.714224,"velocity":0.3937007874015748},{"duration":0.14285700000000645,"midi":72,"time":61.714224,"velocity":0.3937007874015748},{"duration":0.14285700000000645,"midi":77,"time":61.714224,"velocity":0.3937007874015748},{"duration":0.2857139999999987,"midi":72,"time":61.85708100000001,"velocity":0.3937007874015748},{"duration":0.2857139999999987,"midi":79,"time":61.85708100000001,"velocity":0.3937007874015748},{"duration":0.2857139999999987,"midi":79,"time":61.85708100000001,"velocity":0.3937007874015748},{"duration":0.2857139999999987,"midi":72,"time":61.85708100000001,"velocity":0.3937007874015748},{"duration":0.2857139999999987,"midi":76,"time":61.85708100000001,"velocity":0.3937007874015748},{"duration":0.2857139999999987,"midi":76,"time":61.85708100000001,"velocity":0.3937007874015748},{"duration":0.8571420000000032,"midi":74,"time":62.571366000000005,"velocity":0.3937007874015748},{"duration":0.8571420000000032,"midi":70,"time":62.571366000000005,"velocity":0.3937007874015748},{"duration":0.8571420000000032,"midi":79,"time":62.571366000000005,"velocity":0.3937007874015748},{"duration":0.8571420000000032,"midi":74,"time":62.571366000000005,"velocity":0.3937007874015748},{"duration":0.8571420000000032,"midi":70,"time":62.571366000000005,"velocity":0.3937007874015748},{"duration":0.8571420000000032,"midi":79,"time":62.571366000000005,"velocity":0.3937007874015748},{"duration":0.8571419999999961,"midi":74,"time":63.42850800000001,"velocity":0.3937007874015748},{"duration":0.8571419999999961,"midi":69,"time":63.42850800000001,"velocity":0.3937007874015748},{"duration":0.8571419999999961,"midi":77,"time":63.42850800000001,"velocity":0.3937007874015748},{"duration":0.8571419999999961,"midi":69,"time":63.42850800000001,"velocity":0.3937007874015748},{"duration":0.8571419999999961,"midi":74,"time":63.42850800000001,"velocity":0.3937007874015748},{"duration":0.8571419999999961,"midi":77,"time":63.42850800000001,"velocity":0.3937007874015748},{"duration":0.2857139999999987,"midi":73,"time":64.28565,"velocity":0.3937007874015748},{"duration":0.2857139999999987,"midi":76,"time":64.28565,"velocity":0.3937007874015748},{"duration":0.2857139999999987,"midi":73,"time":64.28565,"velocity":0.3937007874015748},{"duration":0.2857139999999987,"midi":69,"time":64.28565,"velocity":0.3937007874015748},{"duration":0.2857139999999987,"midi":76,"time":64.28565,"velocity":0.3937007874015748},{"duration":0.2857139999999987,"midi":69,"time":64.28565,"velocity":0.3937007874015748},{"duration":0.2857140000000129,"midi":77,"time":64.571364,"velocity":0.3937007874015748},{"duration":0.2857140000000129,"midi":73,"time":64.571364,"velocity":0.3937007874015748},{"duration":0.2857140000000129,"midi":77,"time":64.571364,"velocity":0.3937007874015748},{"duration":0.2857140000000129,"midi":69,"time":64.571364,"velocity":0.3937007874015748},{"duration":0.2857140000000129,"midi":73,"time":64.571364,"velocity":0.3937007874015748},{"duration":0.2857140000000129,"midi":69,"time":64.571364,"velocity":0.3937007874015748},{"duration":0.2857139999999845,"midi":69,"time":64.85707800000002,"velocity":0.3937007874015748},{"duration":0.2857139999999845,"midi":76,"time":64.85707800000002,"velocity":0.3937007874015748},{"duration":0.2857139999999845,"midi":73,"time":64.85707800000002,"velocity":0.3937007874015748},{"duration":0.2857139999999845,"midi":76,"time":64.85707800000002,"velocity":0.3937007874015748},{"duration":0.2857139999999845,"midi":73,"time":64.85707800000002,"velocity":0.3937007874015748},{"duration":0.2857139999999845,"midi":69,"time":64.85707800000002,"velocity":0.3937007874015748},{"duration":0.42857100000000514,"midi":69,"time":65.142792,"velocity":0.3937007874015748},{"duration":0.14285700000000645,"midi":76,"time":65.142792,"velocity":0.3937007874015748},{"duration":0.14285700000000645,"midi":76,"time":65.142792,"velocity":0.3937007874015748},{"duration":0.42857100000000514,"midi":69,"time":65.142792,"velocity":0.3937007874015748},{"duration":0.2857139999999987,"midi":74,"time":65.285649,"velocity":0.3937007874015748},{"duration":0.2857139999999987,"midi":74,"time":65.285649,"velocity":0.3937007874015748},{"duration":0.14285700000000645,"midi":62,"time":65.571363,"velocity":0.3937007874015748},{"duration":0.14285700000000645,"midi":74,"time":65.571363,"velocity":0.3937007874015748},{"duration":0.14285700000000645,"midi":62,"time":65.571363,"velocity":0.3937007874015748},{"duration":0.14285700000000645,"midi":74,"time":65.571363,"velocity":0.3937007874015748},{"duration":0.14285699999999224,"midi":64,"time":65.71422000000001,"velocity":0.3937007874015748},{"duration":0.14285699999999224,"midi":76,"time":65.71422000000001,"velocity":0.3937007874015748},{"duration":0.14285699999999224,"midi":76,"time":65.71422000000001,"velocity":0.3937007874015748},{"duration":0.14285699999999224,"midi":64,"time":65.71422000000001,"velocity":0.3937007874015748},{"duration":0.14285700000000645,"midi":77,"time":65.857077,"velocity":0.3937007874015748},{"duration":0.14285700000000645,"midi":65,"time":65.857077,"velocity":0.3937007874015748},{"duration":0.14285700000000645,"midi":65,"time":65.857077,"velocity":0.3937007874015748},{"duration":0.14285700000000645,"midi":77,"time":65.857077,"velocity":0.3937007874015748},{"duration":0.42857099999999093,"midi":69,"time":65.99993400000001,"velocity":0.3937007874015748},{"duration":0.42857099999999093,"midi":69,"time":65.99993400000001,"velocity":0.3937007874015748},{"duration":0.42857099999999093,"midi":77,"time":65.99993400000001,"velocity":0.3937007874015748},{"duration":0.42857099999999093,"midi":74,"time":65.99993400000001,"velocity":0.3937007874015748},{"duration":0.42857099999999093,"midi":81,"time":65.99993400000001,"velocity":0.3937007874015748},{"duration":0.42857099999999093,"midi":74,"time":65.99993400000001,"velocity":0.3937007874015748},{"duration":0.42857099999999093,"midi":77,"time":65.99993400000001,"velocity":0.3937007874015748},{"duration":0.42857099999999093,"midi":81,"time":65.99993400000001,"velocity":0.3937007874015748},{"duration":0.14285700000000645,"midi":62,"time":66.428505,"velocity":0.3937007874015748},{"duration":0.14285700000000645,"midi":74,"time":66.428505,"velocity":0.3937007874015748},{"duration":0.14285700000000645,"midi":62,"time":66.428505,"velocity":0.3937007874015748},{"duration":0.14285700000000645,"midi":74,"time":66.428505,"velocity":0.3937007874015748},{"duration":0.14285699999999224,"midi":76,"time":66.57136200000001,"velocity":0.3937007874015748},{"duration":0.14285699999999224,"midi":64,"time":66.57136200000001,"velocity":0.3937007874015748},{"duration":0.14285699999999224,"midi":64,"time":66.57136200000001,"velocity":0.3937007874015748},{"duration":0.14285699999999224,"midi":76,"time":66.57136200000001,"velocity":0.3937007874015748},{"duration":0.14285700000000645,"midi":65,"time":66.714219,"velocity":0.3937007874015748},{"duration":0.14285700000000645,"midi":77,"time":66.714219,"velocity":0.3937007874015748},{"duration":0.14285700000000645,"midi":77,"time":66.714219,"velocity":0.3937007874015748},{"duration":0.14285700000000645,"midi":65,"time":66.714219,"velocity":0.3937007874015748},{"duration":0.42857100000000514,"midi":77,"time":66.857076,"velocity":0.3937007874015748},{"duration":0.42857100000000514,"midi":70,"time":66.857076,"velocity":0.3937007874015748},{"duration":0.42857100000000514,"midi":74,"time":66.857076,"velocity":0.3937007874015748},{"duration":0.42857100000000514,"midi":82,"time":66.857076,"velocity":0.3937007874015748},{"duration":0.42857100000000514,"midi":70,"time":66.857076,"velocity":0.3937007874015748},{"duration":0.42857100000000514,"midi":82,"time":66.857076,"velocity":0.3937007874015748},{"duration":0.42857100000000514,"midi":74,"time":66.857076,"velocity":0.3937007874015748},{"duration":0.42857100000000514,"midi":77,"time":66.857076,"velocity":0.3937007874015748},{"duration":0.14285699999999224,"midi":74,"time":67.28564700000001,"velocity":0.3937007874015748},{"duration":0.14285699999999224,"midi":74,"time":67.28564700000001,"velocity":0.3937007874015748},{"duration":0.14285699999999224,"midi":62,"time":67.28564700000001,"velocity":0.3937007874015748},{"duration":0.14285699999999224,"midi":62,"time":67.28564700000001,"velocity":0.3937007874015748},{"duration":0.14285699999999224,"midi":64,"time":67.428504,"velocity":0.3937007874015748},{"duration":0.14285699999999224,"midi":64,"time":67.428504,"velocity":0.3937007874015748},{"duration":0.14285699999999224,"midi":76,"time":67.428504,"velocity":0.3937007874015748},{"duration":0.14285699999999224,"midi":76,"time":67.428504,"velocity":0.3937007874015748},{"duration":0.14285700000000645,"midi":65,"time":67.571361,"velocity":0.3937007874015748},{"duration":0.14285700000000645,"midi":77,"time":67.571361,"velocity":0.3937007874015748},{"duration":0.14285700000000645,"midi":65,"time":67.571361,"velocity":0.3937007874015748},{"duration":0.14285700000000645,"midi":77,"time":67.571361,"velocity":0.3937007874015748},{"duration":0.2857139999999987,"midi":81,"time":67.714218,"velocity":0.3937007874015748},{"duration":0.2857139999999987,"midi":69,"time":67.714218,"velocity":0.3937007874015748},{"duration":0.2857139999999987,"midi":72,"time":67.714218,"velocity":0.3937007874015748},{"duration":0.2857139999999987,"midi":81,"time":67.714218,"velocity":0.3937007874015748},{"duration":0.2857139999999987,"midi":69,"time":67.714218,"velocity":0.3937007874015748},{"duration":0.2857139999999987,"midi":77,"time":67.714218,"velocity":0.3937007874015748},{"duration":0.2857139999999987,"midi":77,"time":67.714218,"velocity":0.3937007874015748},{"duration":0.2857139999999987,"midi":72,"time":67.714218,"velocity":0.3937007874015748},{"duration":0.2857140000000129,"midi":69,"time":67.999932,"velocity":0.3937007874015748},{"duration":0.2857140000000129,"midi":77,"time":67.999932,"velocity":0.3937007874015748},{"duration":0.2857140000000129,"midi":77,"time":67.999932,"velocity":0.3937007874015748},{"duration":0.2857140000000129,"midi":72,"time":67.999932,"velocity":0.3937007874015748},{"duration":0.2857140000000129,"midi":81,"time":67.999932,"velocity":0.3937007874015748},{"duration":0.2857140000000129,"midi":69,"time":67.999932,"velocity":0.3937007874015748},{"duration":0.2857140000000129,"midi":81,"time":67.999932,"velocity":0.3937007874015748},{"duration":0.2857140000000129,"midi":72,"time":67.999932,"velocity":0.3937007874015748},{"duration":0.2857139999999845,"midi":77,"time":68.28564600000001,"velocity":0.3937007874015748},{"duration":0.2857139999999845,"midi":84,"time":68.28564600000001,"velocity":0.3937007874015748},{"duration":0.2857139999999845,"midi":81,"time":68.28564600000001,"velocity":0.3937007874015748},{"duration":0.2857139999999845,"midi":84,"time":68.28564600000001,"velocity":0.3937007874015748},{"duration":0.2857139999999845,"midi":77,"time":68.28564600000001,"velocity":0.3937007874015748},{"duration":0.2857139999999845,"midi":72,"time":68.28564600000001,"velocity":0.3937007874015748},{"duration":0.2857139999999845,"midi":72,"time":68.28564600000001,"velocity":0.3937007874015748},{"duration":0.2857139999999845,"midi":81,"time":68.28564600000001,"velocity":0.3937007874015748},{"duration":0.14285700000000645,"midi":72,"time":68.57136,"velocity":0.3937007874015748},{"duration":0.14285700000000645,"midi":81,"time":68.57136,"velocity":0.3937007874015748},{"duration":0.14285700000000645,"midi":81,"time":68.57136,"velocity":0.3937007874015748},{"duration":0.14285700000000645,"midi":69,"time":68.57136,"velocity":0.3937007874015748},{"duration":0.14285700000000645,"midi":69,"time":68.57136,"velocity":0.3937007874015748},{"duration":0.14285700000000645,"midi":77,"time":68.57136,"velocity":0.3937007874015748},{"duration":0.14285700000000645,"midi":77,"time":68.57136,"velocity":0.3937007874015748},{"duration":0.14285700000000645,"midi":72,"time":68.57136,"velocity":0.3937007874015748},{"duration":0.14285699999999224,"midi":79,"time":68.714217,"velocity":0.3937007874015748},{"duration":0.14285699999999224,"midi":67,"time":68.714217,"velocity":0.3937007874015748},{"duration":0.14285699999999224,"midi":67,"time":68.714217,"velocity":0.3937007874015748},{"duration":0.14285699999999224,"midi":79,"time":68.714217,"velocity":0.3937007874015748},{"duration":0.8571419999999961,"midi":70,"time":69.42850200000001,"velocity":0.3937007874015748},{"duration":0.8571419999999961,"midi":79,"time":69.42850200000001,"velocity":0.3937007874015748},{"duration":0.8571419999999961,"midi":67,"time":69.42850200000001,"velocity":0.3937007874015748},{"duration":0.8571419999999961,"midi":79,"time":69.42850200000001,"velocity":0.3937007874015748},{"duration":0.8571419999999961,"midi":67,"time":69.42850200000001,"velocity":0.3937007874015748},{"duration":0.8571419999999961,"midi":74,"time":69.42850200000001,"velocity":0.3937007874015748},{"duration":0.8571419999999961,"midi":74,"time":69.42850200000001,"velocity":0.3937007874015748},{"duration":0.8571419999999961,"midi":70,"time":69.42850200000001,"velocity":0.3937007874015748},{"duration":0.8571419999999961,"midi":65,"time":70.285644,"velocity":0.3937007874015748},{"duration":0.8571419999999961,"midi":65,"time":70.285644,"velocity":0.3937007874015748},{"duration":0.8571419999999961,"midi":69,"time":70.285644,"velocity":0.3937007874015748},{"duration":0.8571419999999961,"midi":74,"time":70.285644,"velocity":0.3937007874015748},{"duration":0.8571419999999961,"midi":69,"time":70.285644,"velocity":0.3937007874015748},{"duration":0.8571419999999961,"midi":77,"time":70.285644,"velocity":0.3937007874015748},{"duration":0.8571419999999961,"midi":74,"time":70.285644,"velocity":0.3937007874015748},{"duration":0.8571419999999961,"midi":77,"time":70.285644,"velocity":0.3937007874015748},{"duration":0.2857139999999987,"midi":64,"time":71.142786,"velocity":0.3937007874015748},{"duration":0.2857139999999987,"midi":64,"time":71.142786,"velocity":0.3937007874015748},{"duration":0.2857139999999987,"midi":69,"time":71.142786,"velocity":0.3937007874015748},{"duration":0.2857139999999987,"midi":76,"time":71.142786,"velocity":0.3937007874015748},{"duration":0.2857139999999987,"midi":73,"time":71.142786,"velocity":0.3937007874015748},{"duration":0.2857139999999987,"midi":69,"time":71.142786,"velocity":0.3937007874015748},{"duration":0.2857139999999987,"midi":73,"time":71.142786,"velocity":0.3937007874015748},{"duration":0.2857139999999987,"midi":76,"time":71.142786,"velocity":0.3937007874015748},{"duration":0.2857140000000129,"midi":77,"time":71.4285,"velocity":0.3937007874015748},{"duration":0.2857140000000129,"midi":65,"time":71.4285,"velocity":0.3937007874015748},{"duration":0.2857140000000129,"midi":77,"time":71.4285,"velocity":0.3937007874015748},{"duration":0.2857140000000129,"midi":69,"time":71.4285,"velocity":0.3937007874015748},{"duration":0.2857140000000129,"midi":73,"time":71.4285,"velocity":0.3937007874015748},{"duration":0.2857140000000129,"midi":69,"time":71.4285,"velocity":0.3937007874015748},{"duration":0.2857140000000129,"midi":73,"time":71.4285,"velocity":0.3937007874015748},{"duration":0.2857140000000129,"midi":65,"time":71.4285,"velocity":0.3937007874015748},{"duration":0.2857139999999987,"midi":64,"time":71.71421400000001,"velocity":0.3937007874015748},{"duration":0.2857139999999987,"midi":76,"time":71.71421400000001,"velocity":0.3937007874015748},{"duration":0.2857139999999987,"midi":73,"time":71.71421400000001,"velocity":0.3937007874015748},{"duration":0.2857139999999987,"midi":69,"time":71.71421400000001,"velocity":0.3937007874015748},{"duration":0.2857139999999987,"midi":64,"time":71.71421400000001,"velocity":0.3937007874015748},{"duration":0.2857139999999987,"midi":73,"time":71.71421400000001,"velocity":0.3937007874015748},{"duration":0.2857139999999987,"midi":76,"time":71.71421400000001,"velocity":0.3937007874015748},{"duration":0.2857139999999987,"midi":69,"time":71.71421400000001,"velocity":0.3937007874015748},{"duration":0.42857099999999093,"midi":65,"time":71.99992800000001,"velocity":0.3937007874015748},{"duration":0.42857099999999093,"midi":65,"time":71.99992800000001,"velocity":0.3937007874015748},{"duration":0.42857099999999093,"midi":74,"time":71.99992800000001,"velocity":0.3937007874015748},{"duration":0.42857099999999093,"midi":74,"time":71.99992800000001,"velocity":0.3937007874015748},{"duration":0.42857099999999093,"midi":62,"time":71.99992800000001,"velocity":0.3937007874015748},{"duration":0.42857099999999093,"midi":69,"time":71.99992800000001,"velocity":0.3937007874015748},{"duration":0.42857099999999093,"midi":62,"time":71.99992800000001,"velocity":0.3937007874015748},{"duration":0.42857099999999093,"midi":69,"time":71.99992800000001,"velocity":0.3937007874015748},{"duration":0.14285699999999224,"midi":57,"time":72.57135600000001,"velocity":0.3937007874015748},{"duration":0.14285699999999224,"midi":57,"time":72.57135600000001,"velocity":0.3937007874015748},{"duration":0.14285700000000645,"midi":60,"time":72.714213,"velocity":0.3937007874015748},{"duration":0.14285700000000645,"midi":60,"time":72.714213,"velocity":0.3937007874015748},{"duration":0.14285700000000645,"midi":53,"time":72.85707000000001,"velocity":0.3937007874015748},{"duration":0.14285700000000645,"midi":62,"time":72.85707000000001,"velocity":0.3937007874015748},{"duration":0.14285700000000645,"midi":53,"time":72.85707000000001,"velocity":0.3937007874015748},{"duration":0.14285700000000645,"midi":57,"time":72.85707000000001,"velocity":0.3937007874015748},{"duration":0.14285700000000645,"midi":62,"time":72.85707000000001,"velocity":0.3937007874015748},{"duration":0.14285700000000645,"midi":57,"time":72.85707000000001,"velocity":0.3937007874015748},{"duration":0.14285700000000645,"midi":53,"time":73.142784,"velocity":0.3937007874015748},{"duration":0.14285700000000645,"midi":57,"time":73.142784,"velocity":0.3937007874015748},{"duration":0.14285700000000645,"midi":62,"time":73.142784,"velocity":0.3937007874015748},{"duration":0.14285700000000645,"midi":62,"time":73.142784,"velocity":0.3937007874015748},{"duration":0.14285700000000645,"midi":57,"time":73.142784,"velocity":0.3937007874015748},{"duration":0.14285700000000645,"midi":53,"time":73.142784,"velocity":0.3937007874015748},{"duration":0.14285699999999224,"midi":62,"time":73.428498,"velocity":0.3937007874015748},{"duration":0.14285699999999224,"midi":57,"time":73.428498,"velocity":0.3937007874015748},{"duration":0.14285699999999224,"midi":57,"time":73.428498,"velocity":0.3937007874015748},{"duration":0.14285699999999224,"midi":53,"time":73.428498,"velocity":0.3937007874015748},{"duration":0.14285699999999224,"midi":62,"time":73.428498,"velocity":0.3937007874015748},{"duration":0.14285699999999224,"midi":53,"time":73.428498,"velocity":0.3937007874015748},{"duration":0.14285700000000645,"midi":64,"time":73.571355,"velocity":0.3937007874015748},{"duration":0.14285700000000645,"midi":64,"time":73.571355,"velocity":0.3937007874015748},{"duration":0.14285700000000645,"midi":62,"time":73.714212,"velocity":0.3937007874015748},{"duration":0.14285700000000645,"midi":58,"time":73.714212,"velocity":0.3937007874015748},{"duration":0.14285700000000645,"midi":65,"time":73.714212,"velocity":0.3937007874015748},{"duration":0.14285700000000645,"midi":58,"time":73.714212,"velocity":0.3937007874015748},{"duration":0.14285700000000645,"midi":65,"time":73.714212,"velocity":0.3937007874015748},{"duration":0.14285700000000645,"midi":62,"time":73.714212,"velocity":0.3937007874015748},{"duration":0.14285700000000645,"midi":65,"time":73.999926,"velocity":0.3937007874015748},{"duration":0.14285700000000645,"midi":65,"time":73.999926,"velocity":0.3937007874015748},{"duration":0.14285700000000645,"midi":58,"time":73.999926,"velocity":0.3937007874015748},{"duration":0.14285700000000645,"midi":62,"time":73.999926,"velocity":0.3937007874015748},{"duration":0.14285700000000645,"midi":62,"time":73.999926,"velocity":0.3937007874015748},{"duration":0.14285700000000645,"midi":58,"time":73.999926,"velocity":0.3937007874015748},{"duration":0.14285699999999224,"midi":62,"time":74.28564000000001,"velocity":0.3937007874015748},{"duration":0.14285699999999224,"midi":65,"time":74.28564000000001,"velocity":0.3937007874015748},{"duration":0.14285699999999224,"midi":62,"time":74.28564000000001,"velocity":0.3937007874015748},{"duration":0.14285699999999224,"midi":58,"time":74.28564000000001,"velocity":0.3937007874015748},{"duration":0.14285699999999224,"midi":58,"time":74.28564000000001,"velocity":0.3937007874015748},{"duration":0.14285699999999224,"midi":65,"time":74.28564000000001,"velocity":0.3937007874015748},{"duration":0.14285699999999224,"midi":67,"time":74.42849700000001,"velocity":0.3937007874015748},{"duration":0.14285699999999224,"midi":67,"time":74.42849700000001,"velocity":0.3937007874015748},{"duration":0.14285700000000645,"midi":64,"time":74.571354,"velocity":0.3937007874015748},{"duration":0.14285700000000645,"midi":60,"time":74.571354,"velocity":0.3937007874015748},{"duration":0.14285700000000645,"midi":57,"time":74.571354,"velocity":0.3937007874015748},{"duration":0.14285700000000645,"midi":64,"time":74.571354,"velocity":0.3937007874015748},{"duration":0.14285700000000645,"midi":57,"time":74.571354,"velocity":0.3937007874015748},{"duration":0.14285700000000645,"midi":60,"time":74.571354,"velocity":0.3937007874015748},{"duration":0.14285700000000645,"midi":60,"time":74.857068,"velocity":0.3937007874015748},{"duration":0.14285700000000645,"midi":57,"time":74.857068,"velocity":0.3937007874015748},{"duration":0.14285700000000645,"midi":57,"time":74.857068,"velocity":0.3937007874015748},{"duration":0.14285700000000645,"midi":60,"time":74.857068,"velocity":0.3937007874015748},{"duration":0.14285700000000645,"midi":64,"time":74.857068,"velocity":0.3937007874015748},{"duration":0.14285700000000645,"midi":64,"time":74.857068,"velocity":0.3937007874015748},{"duration":0.14285699999999224,"midi":62,"time":75.14278200000001,"velocity":0.3937007874015748},{"duration":0.14285699999999224,"midi":62,"time":75.14278200000001,"velocity":0.3937007874015748},{"duration":0.14285699999999224,"midi":57,"time":75.14278200000001,"velocity":0.3937007874015748},{"duration":0.14285699999999224,"midi":57,"time":75.14278200000001,"velocity":0.3937007874015748},{"duration":0.14285700000000645,"midi":60,"time":75.285639,"velocity":0.3937007874015748},{"duration":0.14285700000000645,"midi":60,"time":75.285639,"velocity":0.3937007874015748},{"duration":0.14285700000000645,"midi":60,"time":75.42849600000001,"velocity":0.3937007874015748},{"duration":0.14285700000000645,"midi":53,"time":75.42849600000001,"velocity":0.3937007874015748},{"duration":0.14285700000000645,"midi":53,"time":75.42849600000001,"velocity":0.3937007874015748},{"duration":0.14285700000000645,"midi":60,"time":75.42849600000001,"velocity":0.3937007874015748},{"duration":0.42857099999999093,"midi":57,"time":75.57135300000002,"velocity":0.3937007874015748},{"duration":0.42857099999999093,"midi":62,"time":75.57135300000002,"velocity":0.3937007874015748},{"duration":0.42857099999999093,"midi":62,"time":75.57135300000002,"velocity":0.3937007874015748},{"duration":0.42857099999999093,"midi":57,"time":75.57135300000002,"velocity":0.3937007874015748},{"duration":0.42857099999999093,"midi":53,"time":75.57135300000002,"velocity":0.3937007874015748},{"duration":0.42857099999999093,"midi":53,"time":75.57135300000002,"velocity":0.3937007874015748},{"duration":0.14285699999999224,"midi":57,"time":75.99992400000001,"velocity":0.3937007874015748},{"duration":0.14285699999999224,"midi":57,"time":75.99992400000001,"velocity":0.3937007874015748},{"duration":0.14285700000000645,"midi":60,"time":76.142781,"velocity":0.3937007874015748},{"duration":0.14285700000000645,"midi":60,"time":76.142781,"velocity":0.3937007874015748},{"duration":0.14285700000000645,"midi":62,"time":76.285638,"velocity":0.3937007874015748},{"duration":0.14285700000000645,"midi":53,"time":76.285638,"velocity":0.3937007874015748},{"duration":0.14285700000000645,"midi":53,"time":76.285638,"velocity":0.3937007874015748},{"duration":0.14285700000000645,"midi":62,"time":76.285638,"velocity":0.3937007874015748},{"duration":0.14285700000000645,"midi":58,"time":76.285638,"velocity":0.3937007874015748},{"duration":0.14285700000000645,"midi":58,"time":76.285638,"velocity":0.3937007874015748},{"duration":0.14285700000000645,"midi":62,"time":76.571352,"velocity":0.3937007874015748},{"duration":0.14285700000000645,"midi":58,"time":76.571352,"velocity":0.3937007874015748},{"duration":0.14285700000000645,"midi":62,"time":76.571352,"velocity":0.3937007874015748},{"duration":0.14285700000000645,"midi":53,"time":76.571352,"velocity":0.3937007874015748},{"duration":0.14285700000000645,"midi":53,"time":76.571352,"velocity":0.3937007874015748},{"duration":0.14285700000000645,"midi":58,"time":76.571352,"velocity":0.3937007874015748},{"duration":0.14285699999997803,"midi":58,"time":76.85706600000002,"velocity":0.3937007874015748},{"duration":0.14285699999997803,"midi":53,"time":76.85706600000002,"velocity":0.3937007874015748},{"duration":0.14285699999997803,"midi":58,"time":76.85706600000002,"velocity":0.3937007874015748},{"duration":0.14285699999997803,"midi":62,"time":76.85706600000002,"velocity":0.3937007874015748},{"duration":0.14285699999997803,"midi":62,"time":76.85706600000002,"velocity":0.3937007874015748},{"duration":0.14285699999997803,"midi":53,"time":76.85706600000002,"velocity":0.3937007874015748},{"duration":0.14285700000000645,"midi":64,"time":76.999923,"velocity":0.3937007874015748},{"duration":0.14285700000000645,"midi":64,"time":76.999923,"velocity":0.3937007874015748},{"duration":0.14285700000000645,"midi":65,"time":77.14278,"velocity":0.3937007874015748},{"duration":0.14285700000000645,"midi":65,"time":77.14278,"velocity":0.3937007874015748},{"duration":0.14285700000000645,"midi":60,"time":77.14278,"velocity":0.3937007874015748},{"duration":0.14285700000000645,"midi":57,"time":77.14278,"velocity":0.3937007874015748},{"duration":0.14285700000000645,"midi":57,"time":77.14278,"velocity":0.3937007874015748},{"duration":0.14285700000000645,"midi":60,"time":77.14278,"velocity":0.3937007874015748},{"duration":0.14285700000000645,"midi":57,"time":77.428494,"velocity":0.3937007874015748},{"duration":0.14285700000000645,"midi":60,"time":77.428494,"velocity":0.3937007874015748},{"duration":0.14285700000000645,"midi":65,"time":77.428494,"velocity":0.3937007874015748},{"duration":0.14285700000000645,"midi":57,"time":77.428494,"velocity":0.3937007874015748},{"duration":0.14285700000000645,"midi":65,"time":77.428494,"velocity":0.3937007874015748},{"duration":0.14285700000000645,"midi":60,"time":77.428494,"velocity":0.3937007874015748},{"duration":0.14285699999999224,"midi":65,"time":77.71420800000001,"velocity":0.3937007874015748},{"duration":0.14285699999999224,"midi":57,"time":77.71420800000001,"velocity":0.3937007874015748},{"duration":0.14285699999999224,"midi":60,"time":77.71420800000001,"velocity":0.3937007874015748},{"duration":0.14285699999999224,"midi":65,"time":77.71420800000001,"velocity":0.3937007874015748},{"duration":0.14285699999999224,"midi":57,"time":77.71420800000001,"velocity":0.3937007874015748},{"duration":0.14285699999999224,"midi":60,"time":77.71420800000001,"velocity":0.3937007874015748},{"duration":0.14285700000000645,"midi":67,"time":77.857065,"velocity":0.3937007874015748},{"duration":0.14285700000000645,"midi":67,"time":77.857065,"velocity":0.3937007874015748},{"duration":0.14285699999999224,"midi":60,"time":77.99992200000001,"velocity":0.3937007874015748},{"duration":0.14285699999999224,"midi":64,"time":77.99992200000001,"velocity":0.3937007874015748},{"duration":0.14285699999999224,"midi":60,"time":77.99992200000001,"velocity":0.3937007874015748},{"duration":0.14285699999999224,"midi":64,"time":77.99992200000001,"velocity":0.3937007874015748},{"duration":0.14285699999999224,"midi":57,"time":77.99992200000001,"velocity":0.3937007874015748},{"duration":0.14285699999999224,"midi":57,"time":77.99992200000001,"velocity":0.3937007874015748},{"duration":0.14285700000000645,"midi":57,"time":78.285636,"velocity":0.3937007874015748},{"duration":0.14285700000000645,"midi":57,"time":78.285636,"velocity":0.3937007874015748},{"duration":0.14285700000000645,"midi":60,"time":78.285636,"velocity":0.3937007874015748},{"duration":0.14285700000000645,"midi":64,"time":78.285636,"velocity":0.3937007874015748},{"duration":0.14285700000000645,"midi":60,"time":78.285636,"velocity":0.3937007874015748},{"duration":0.14285700000000645,"midi":64,"time":78.285636,"velocity":0.3937007874015748},{"duration":0.14285699999999224,"midi":62,"time":78.57135000000001,"velocity":0.3937007874015748},{"duration":0.14285699999999224,"midi":62,"time":78.57135000000001,"velocity":0.3937007874015748},{"duration":0.14285699999999224,"midi":57,"time":78.57135000000001,"velocity":0.3937007874015748},{"duration":0.14285699999999224,"midi":57,"time":78.57135000000001,"velocity":0.3937007874015748},{"duration":0.14285700000000645,"midi":60,"time":78.714207,"velocity":0.3937007874015748},{"duration":0.14285700000000645,"midi":60,"time":78.714207,"velocity":0.3937007874015748},{"duration":0.42857100000000514,"midi":62,"time":78.85706400000001,"velocity":0.3937007874015748},{"duration":0.42857100000000514,"midi":53,"time":78.85706400000001,"velocity":0.3937007874015748},{"duration":0.42857100000000514,"midi":53,"time":78.85706400000001,"velocity":0.3937007874015748},{"duration":0.42857100000000514,"midi":57,"time":78.85706400000001,"velocity":0.3937007874015748},{"duration":0.42857100000000514,"midi":62,"time":78.85706400000001,"velocity":0.3937007874015748},{"duration":0.42857100000000514,"midi":57,"time":78.85706400000001,"velocity":0.3937007874015748},{"duration":0.14285699999999224,"midi":57,"time":79.428492,"velocity":0.3937007874015748},{"duration":0.14285699999999224,"midi":57,"time":79.428492,"velocity":0.3937007874015748},{"duration":0.14285700000000645,"midi":60,"time":79.571349,"velocity":0.3937007874015748},{"duration":0.14285700000000645,"midi":60,"time":79.571349,"velocity":0.3937007874015748},{"duration":0.14285700000000645,"midi":57,"time":79.714206,"velocity":0.3937007874015748},{"duration":0.14285700000000645,"midi":62,"time":79.714206,"velocity":0.3937007874015748},{"duration":0.14285700000000645,"midi":53,"time":79.714206,"velocity":0.3937007874015748},{"duration":0.14285700000000645,"midi":53,"time":79.714206,"velocity":0.3937007874015748},{"duration":0.14285700000000645,"midi":57,"time":79.714206,"velocity":0.3937007874015748},{"duration":0.14285700000000645,"midi":62,"time":79.714206,"velocity":0.3937007874015748},{"duration":0.14285700000000645,"midi":57,"time":79.99992,"velocity":0.3937007874015748},{"duration":0.14285700000000645,"midi":53,"time":79.99992,"velocity":0.3937007874015748},{"duration":0.14285700000000645,"midi":57,"time":79.99992,"velocity":0.3937007874015748},{"duration":0.14285700000000645,"midi":62,"time":79.99992,"velocity":0.3937007874015748},{"duration":0.14285700000000645,"midi":53,"time":79.99992,"velocity":0.3937007874015748},{"duration":0.14285700000000645,"midi":62,"time":79.99992,"velocity":0.3937007874015748},{"duration":0.14285699999999224,"midi":53,"time":80.28563400000002,"velocity":0.3937007874015748},{"duration":0.14285699999999224,"midi":62,"time":80.28563400000002,"velocity":0.3937007874015748},{"duration":0.14285699999999224,"midi":62,"time":80.28563400000002,"velocity":0.3937007874015748},{"duration":0.14285699999999224,"midi":53,"time":80.28563400000002,"velocity":0.3937007874015748},{"duration":0.14285699999999224,"midi":53,"time":80.42849100000001,"velocity":0.3937007874015748},{"duration":0.14285699999999224,"midi":53,"time":80.42849100000001,"velocity":0.3937007874015748},{"duration":0.14285699999999224,"midi":65,"time":80.42849100000001,"velocity":0.3937007874015748},{"duration":0.14285699999999224,"midi":65,"time":80.42849100000001,"velocity":0.3937007874015748},{"duration":0.14285700000000645,"midi":62,"time":80.571348,"velocity":0.3937007874015748},{"duration":0.14285700000000645,"midi":62,"time":80.571348,"velocity":0.3937007874015748},{"duration":0.14285700000000645,"midi":67,"time":80.571348,"velocity":0.3937007874015748},{"duration":0.14285700000000645,"midi":58,"time":80.571348,"velocity":0.3937007874015748},{"duration":0.14285700000000645,"midi":58,"time":80.571348,"velocity":0.3937007874015748},{"duration":0.14285700000000645,"midi":67,"time":80.571348,"velocity":0.3937007874015748},{"duration":0.14285700000000645,"midi":58,"time":80.857062,"velocity":0.3937007874015748},{"duration":0.14285700000000645,"midi":62,"time":80.857062,"velocity":0.3937007874015748},{"duration":0.14285700000000645,"midi":58,"time":80.857062,"velocity":0.3937007874015748},{"duration":0.14285700000000645,"midi":67,"time":80.857062,"velocity":0.3937007874015748},{"duration":0.14285700000000645,"midi":67,"time":80.857062,"velocity":0.3937007874015748},{"duration":0.14285700000000645,"midi":62,"time":80.857062,"velocity":0.3937007874015748},{"duration":0.14285699999999224,"midi":67,"time":81.14277600000001,"velocity":0.3937007874015748},{"duration":0.14285699999999224,"midi":67,"time":81.14277600000001,"velocity":0.3937007874015748},{"duration":0.14285699999999224,"midi":62,"time":81.14277600000001,"velocity":0.3937007874015748},{"duration":0.14285699999999224,"midi":62,"time":81.14277600000001,"velocity":0.3937007874015748},{"duration":0.14285699999999224,"midi":58,"time":81.14277600000001,"velocity":0.3937007874015748},{"duration":0.14285699999999224,"midi":58,"time":81.14277600000001,"velocity":0.3937007874015748},{"duration":0.14285700000000645,"midi":69,"time":81.285633,"velocity":0.3937007874015748},{"duration":0.14285700000000645,"midi":69,"time":81.285633,"velocity":0.3937007874015748},{"duration":0.14285700000000645,"midi":67,"time":81.42849000000001,"velocity":0.3937007874015748},{"duration":0.14285700000000645,"midi":62,"time":81.42849000000001,"velocity":0.3937007874015748},{"duration":0.14285700000000645,"midi":62,"time":81.42849000000001,"velocity":0.3937007874015748},{"duration":0.14285700000000645,"midi":70,"time":81.42849000000001,"velocity":0.3937007874015748},{"duration":0.14285700000000645,"midi":70,"time":81.42849000000001,"velocity":0.3937007874015748},{"duration":0.14285700000000645,"midi":67,"time":81.42849000000001,"velocity":0.3937007874015748},{"duration":0.14285699999999224,"midi":62,"time":81.71420400000001,"velocity":0.3937007874015748},{"duration":0.14285699999999224,"midi":67,"time":81.71420400000001,"velocity":0.3937007874015748},{"duration":0.14285699999999224,"midi":62,"time":81.71420400000001,"velocity":0.3937007874015748},{"duration":0.14285699999999224,"midi":70,"time":81.71420400000001,"velocity":0.3937007874015748},{"duration":0.14285699999999224,"midi":67,"time":81.71420400000001,"velocity":0.3937007874015748},{"duration":0.14285699999999224,"midi":70,"time":81.71420400000001,"velocity":0.3937007874015748},{"duration":0.14285699999999224,"midi":62,"time":81.99991800000001,"velocity":0.3937007874015748},{"duration":0.14285699999999224,"midi":69,"time":81.99991800000001,"velocity":0.3937007874015748},{"duration":0.14285699999999224,"midi":62,"time":81.99991800000001,"velocity":0.3937007874015748},{"duration":0.14285699999999224,"midi":69,"time":81.99991800000001,"velocity":0.3937007874015748},{"duration":0.14285700000000645,"midi":67,"time":82.142775,"velocity":0.3937007874015748},{"duration":0.14285700000000645,"midi":67,"time":82.142775,"velocity":0.3937007874015748},{"duration":0.14285700000000645,"midi":62,"time":82.285632,"velocity":0.3937007874015748},{"duration":0.14285700000000645,"midi":62,"time":82.285632,"velocity":0.3937007874015748},{"duration":0.14285700000000645,"midi":69,"time":82.285632,"velocity":0.3937007874015748},{"duration":0.14285700000000645,"midi":69,"time":82.285632,"velocity":0.3937007874015748},{"duration":0.42857099999999093,"midi":62,"time":82.42848900000001,"velocity":0.3937007874015748},{"duration":0.42857099999999093,"midi":57,"time":82.42848900000001,"velocity":0.3937007874015748},{"duration":0.42857099999999093,"midi":53,"time":82.42848900000001,"velocity":0.3937007874015748},{"duration":0.42857099999999093,"midi":57,"time":82.42848900000001,"velocity":0.3937007874015748},{"duration":0.42857099999999093,"midi":62,"time":82.42848900000001,"velocity":0.3937007874015748},{"duration":0.42857099999999093,"midi":53,"time":82.42848900000001,"velocity":0.3937007874015748},{"duration":0.14285699999999224,"midi":62,"time":82.85706,"velocity":0.3937007874015748},{"duration":0.14285699999999224,"midi":62,"time":82.85706,"velocity":0.3937007874015748},{"duration":0.14285700000000645,"midi":64,"time":82.999917,"velocity":0.3937007874015748},{"duration":0.14285700000000645,"midi":64,"time":82.999917,"velocity":0.3937007874015748},{"duration":0.14285700000000645,"midi":58,"time":83.142774,"velocity":0.3937007874015748},{"duration":0.14285700000000645,"midi":62,"time":83.142774,"velocity":0.3937007874015748},{"duration":0.14285700000000645,"midi":62,"time":83.142774,"velocity":0.3937007874015748},{"duration":0.14285700000000645,"midi":65,"time":83.142774,"velocity":0.3937007874015748},{"duration":0.14285700000000645,"midi":58,"time":83.142774,"velocity":0.3937007874015748},{"duration":0.14285700000000645,"midi":65,"time":83.142774,"velocity":0.3937007874015748},{"duration":0.14285700000000645,"midi":62,"time":83.428488,"velocity":0.3937007874015748},{"duration":0.14285700000000645,"midi":58,"time":83.428488,"velocity":0.3937007874015748},{"duration":0.14285700000000645,"midi":65,"time":83.428488,"velocity":0.3937007874015748},{"duration":0.14285700000000645,"midi":65,"time":83.428488,"velocity":0.3937007874015748},{"duration":0.14285700000000645,"midi":58,"time":83.428488,"velocity":0.3937007874015748},{"duration":0.14285700000000645,"midi":62,"time":83.428488,"velocity":0.3937007874015748},{"duration":0.14285699999999224,"midi":58,"time":83.71420200000001,"velocity":0.3937007874015748},{"duration":0.14285699999999224,"midi":62,"time":83.71420200000001,"velocity":0.3937007874015748},{"duration":0.14285699999999224,"midi":67,"time":83.71420200000001,"velocity":0.3937007874015748},{"duration":0.14285699999999224,"midi":67,"time":83.71420200000001,"velocity":0.3937007874015748},{"duration":0.14285699999999224,"midi":58,"time":83.71420200000001,"velocity":0.3937007874015748},{"duration":0.14285699999999224,"midi":62,"time":83.71420200000001,"velocity":0.3937007874015748},{"duration":0.14285699999999224,"midi":65,"time":83.99991600000001,"velocity":0.3937007874015748},{"duration":0.14285699999999224,"midi":62,"time":83.99991600000001,"velocity":0.3937007874015748},{"duration":0.14285699999999224,"midi":62,"time":83.99991600000001,"velocity":0.3937007874015748},{"duration":0.14285699999999224,"midi":69,"time":83.99991600000001,"velocity":0.3937007874015748},{"duration":0.14285699999999224,"midi":65,"time":83.99991600000001,"velocity":0.3937007874015748},{"duration":0.14285699999999224,"midi":69,"time":83.99991600000001,"velocity":0.3937007874015748},{"duration":0.14285699999999224,"midi":62,"time":84.57134400000001,"velocity":0.3937007874015748},{"duration":0.14285699999999224,"midi":62,"time":84.57134400000001,"velocity":0.3937007874015748},{"duration":0.14285700000000645,"midi":65,"time":84.714201,"velocity":0.3937007874015748},{"duration":0.14285700000000645,"midi":65,"time":84.714201,"velocity":0.3937007874015748},{"duration":0.14285700000000645,"midi":57,"time":84.85705800000001,"velocity":0.3937007874015748},{"duration":0.14285700000000645,"midi":61,"time":84.85705800000001,"velocity":0.3937007874015748},{"duration":0.14285700000000645,"midi":61,"time":84.85705800000001,"velocity":0.3937007874015748},{"duration":0.14285700000000645,"midi":64,"time":84.85705800000001,"velocity":0.3937007874015748},{"duration":0.14285700000000645,"midi":64,"time":84.85705800000001,"velocity":0.3937007874015748},{"duration":0.14285700000000645,"midi":57,"time":84.85705800000001,"velocity":0.3937007874015748},{"duration":0.14285699999999224,"midi":61,"time":85.14277200000001,"velocity":0.3937007874015748},{"duration":0.14285699999999224,"midi":57,"time":85.14277200000001,"velocity":0.3937007874015748},{"duration":0.14285699999999224,"midi":64,"time":85.14277200000001,"velocity":0.3937007874015748},{"duration":0.14285699999999224,"midi":57,"time":85.14277200000001,"velocity":0.3937007874015748},{"duration":0.14285699999999224,"midi":64,"time":85.14277200000001,"velocity":0.3937007874015748},{"duration":0.14285699999999224,"midi":61,"time":85.14277200000001,"velocity":0.3937007874015748},{"duration":0.14285699999999224,"midi":65,"time":85.428486,"velocity":0.3937007874015748},{"duration":0.14285699999999224,"midi":65,"time":85.428486,"velocity":0.3937007874015748},{"duration":0.14285700000000645,"midi":62,"time":85.571343,"velocity":0.3937007874015748},{"duration":0.14285700000000645,"midi":62,"time":85.571343,"velocity":0.3937007874015748},{"duration":0.42857100000000514,"midi":64,"time":85.7142,"velocity":0.3937007874015748},{"duration":0.42857100000000514,"midi":57,"time":85.7142,"velocity":0.3937007874015748},{"duration":0.42857100000000514,"midi":57,"time":85.7142,"velocity":0.3937007874015748},{"duration":0.42857100000000514,"midi":61,"time":85.7142,"velocity":0.3937007874015748},{"duration":0.42857100000000514,"midi":64,"time":85.7142,"velocity":0.3937007874015748},{"duration":0.42857100000000514,"midi":61,"time":85.7142,"velocity":0.3937007874015748},{"duration":0.14285699999999224,"midi":69,"time":86.28562800000002,"velocity":0.3937007874015748},{"duration":0.14285699999999224,"midi":69,"time":86.28562800000002,"velocity":0.3937007874015748},{"duration":0.14285699999999224,"midi":72,"time":86.42848500000001,"velocity":0.3937007874015748},{"duration":0.14285699999999224,"midi":72,"time":86.42848500000001,"velocity":0.3937007874015748},{"duration":0.14285700000000645,"midi":69,"time":86.571342,"velocity":0.3937007874015748},{"duration":0.14285700000000645,"midi":65,"time":86.571342,"velocity":0.3937007874015748},{"duration":0.14285700000000645,"midi":74,"time":86.571342,"velocity":0.3937007874015748},{"duration":0.14285700000000645,"midi":65,"time":86.571342,"velocity":0.3937007874015748},{"duration":0.14285700000000645,"midi":74,"time":86.571342,"velocity":0.3937007874015748},{"duration":0.14285700000000645,"midi":69,"time":86.571342,"velocity":0.3937007874015748},{"duration":0.14285700000000645,"midi":69,"time":86.857056,"velocity":0.3937007874015748},{"duration":0.14285700000000645,"midi":74,"time":86.857056,"velocity":0.3937007874015748},{"duration":0.14285700000000645,"midi":69,"time":86.857056,"velocity":0.3937007874015748},{"duration":0.14285700000000645,"midi":65,"time":86.857056,"velocity":0.3937007874015748},{"duration":0.14285700000000645,"midi":74,"time":86.857056,"velocity":0.3937007874015748},{"duration":0.14285700000000645,"midi":65,"time":86.857056,"velocity":0.3937007874015748},{"duration":0.14285699999999224,"midi":74,"time":87.14277000000001,"velocity":0.3937007874015748},{"duration":0.14285699999999224,"midi":69,"time":87.14277000000001,"velocity":0.3937007874015748},{"duration":0.14285699999999224,"midi":74,"time":87.14277000000001,"velocity":0.3937007874015748},{"duration":0.14285699999999224,"midi":65,"time":87.14277000000001,"velocity":0.3937007874015748},{"duration":0.14285699999999224,"midi":69,"time":87.14277000000001,"velocity":0.3937007874015748},{"duration":0.14285699999999224,"midi":65,"time":87.14277000000001,"velocity":0.3937007874015748},{"duration":0.14285700000000645,"midi":76,"time":87.285627,"velocity":0.3937007874015748},{"duration":0.14285700000000645,"midi":76,"time":87.285627,"velocity":0.3937007874015748},{"duration":0.14285700000000645,"midi":77,"time":87.42848400000001,"velocity":0.3937007874015748},{"duration":0.14285700000000645,"midi":77,"time":87.42848400000001,"velocity":0.3937007874015748},{"duration":0.14285700000000645,"midi":74,"time":87.42848400000001,"velocity":0.3937007874015748},{"duration":0.14285700000000645,"midi":74,"time":87.42848400000001,"velocity":0.3937007874015748},{"duration":0.14285700000000645,"midi":70,"time":87.42848400000001,"velocity":0.3937007874015748},{"duration":0.14285700000000645,"midi":70,"time":87.42848400000001,"velocity":0.3937007874015748},{"duration":0.14285700000000645,"midi":77,"time":87.714198,"velocity":0.3937007874015748},{"duration":0.14285700000000645,"midi":74,"time":87.714198,"velocity":0.3937007874015748},{"duration":0.14285700000000645,"midi":70,"time":87.714198,"velocity":0.3937007874015748},{"duration":0.14285700000000645,"midi":77,"time":87.714198,"velocity":0.3937007874015748},{"duration":0.14285700000000645,"midi":70,"time":87.714198,"velocity":0.3937007874015748},{"duration":0.14285700000000645,"midi":74,"time":87.714198,"velocity":0.3937007874015748},{"duration":0.14285699999999224,"midi":74,"time":87.99991200000001,"velocity":0.3937007874015748},{"duration":0.14285699999999224,"midi":77,"time":87.99991200000001,"velocity":0.3937007874015748},{"duration":0.14285699999999224,"midi":70,"time":87.99991200000001,"velocity":0.3937007874015748},{"duration":0.14285699999999224,"midi":70,"time":87.99991200000001,"velocity":0.3937007874015748},{"duration":0.14285699999999224,"midi":74,"time":87.99991200000001,"velocity":0.3937007874015748},{"duration":0.14285699999999224,"midi":77,"time":87.99991200000001,"velocity":0.3937007874015748},{"duration":0.14285700000000645,"midi":79,"time":88.142769,"velocity":0.3937007874015748},{"duration":0.14285700000000645,"midi":79,"time":88.142769,"velocity":0.3937007874015748},{"duration":0.14285700000000645,"midi":69,"time":88.28562600000001,"velocity":0.3937007874015748},{"duration":0.14285700000000645,"midi":76,"time":88.28562600000001,"velocity":0.3937007874015748},{"duration":0.14285700000000645,"midi":76,"time":88.28562600000001,"velocity":0.3937007874015748},{"duration":0.14285700000000645,"midi":69,"time":88.28562600000001,"velocity":0.3937007874015748},{"duration":0.14285700000000645,"midi":72,"time":88.28562600000001,"velocity":0.3937007874015748},{"duration":0.14285700000000645,"midi":72,"time":88.28562600000001,"velocity":0.3937007874015748},{"duration":0.14285700000000645,"midi":72,"time":88.57134,"velocity":0.3937007874015748},{"duration":0.14285700000000645,"midi":69,"time":88.57134,"velocity":0.3937007874015748},{"duration":0.14285700000000645,"midi":76,"time":88.57134,"velocity":0.3937007874015748},{"duration":0.14285700000000645,"midi":72,"time":88.57134,"velocity":0.3937007874015748},{"duration":0.14285700000000645,"midi":76,"time":88.57134,"velocity":0.3937007874015748},{"duration":0.14285700000000645,"midi":69,"time":88.57134,"velocity":0.3937007874015748},{"duration":0.14285699999999224,"midi":74,"time":88.857054,"velocity":0.3937007874015748},{"duration":0.14285699999999224,"midi":69,"time":88.857054,"velocity":0.3937007874015748},{"duration":0.14285699999999224,"midi":74,"time":88.857054,"velocity":0.3937007874015748},{"duration":0.14285699999999224,"midi":69,"time":88.857054,"velocity":0.3937007874015748},{"duration":0.14285700000000645,"midi":72,"time":88.999911,"velocity":0.3937007874015748},{"duration":0.14285700000000645,"midi":72,"time":88.999911,"velocity":0.3937007874015748},{"duration":0.14285700000000645,"midi":72,"time":89.142768,"velocity":0.3937007874015748},{"duration":0.14285700000000645,"midi":72,"time":89.142768,"velocity":0.3937007874015748},{"duration":0.14285700000000645,"midi":65,"time":89.142768,"velocity":0.3937007874015748},{"duration":0.14285700000000645,"midi":65,"time":89.142768,"velocity":0.3937007874015748},{"duration":0.42857100000000514,"midi":65,"time":89.28562500000001,"velocity":0.3937007874015748},{"duration":0.42857100000000514,"midi":74,"time":89.28562500000001,"velocity":0.3937007874015748},{"duration":0.42857100000000514,"midi":74,"time":89.28562500000001,"velocity":0.3937007874015748},{"duration":0.42857100000000514,"midi":69,"time":89.28562500000001,"velocity":0.3937007874015748},{"duration":0.42857100000000514,"midi":65,"time":89.28562500000001,"velocity":0.3937007874015748},{"duration":0.42857100000000514,"midi":69,"time":89.28562500000001,"velocity":0.3937007874015748},{"duration":0.14285699999999224,"midi":69,"time":89.71419600000002,"velocity":0.3937007874015748},{"duration":0.14285699999999224,"midi":69,"time":89.71419600000002,"velocity":0.3937007874015748},{"duration":0.14285700000000645,"midi":72,"time":89.85705300000001,"velocity":0.3937007874015748},{"duration":0.14285700000000645,"midi":72,"time":89.85705300000001,"velocity":0.3937007874015748},{"duration":0.14285699999999224,"midi":70,"time":89.99991000000001,"velocity":0.3937007874015748},{"duration":0.14285699999999224,"midi":70,"time":89.99991000000001,"velocity":0.3937007874015748},{"duration":0.14285699999999224,"midi":65,"time":89.99991000000001,"velocity":0.3937007874015748},{"duration":0.14285699999999224,"midi":65,"time":89.99991000000001,"velocity":0.3937007874015748},{"duration":0.14285699999999224,"midi":74,"time":89.99991000000001,"velocity":0.3937007874015748},{"duration":0.14285699999999224,"midi":74,"time":89.99991000000001,"velocity":0.3937007874015748},{"duration":0.14285700000000645,"midi":70,"time":90.285624,"velocity":0.3937007874015748},{"duration":0.14285700000000645,"midi":74,"time":90.285624,"velocity":0.3937007874015748},{"duration":0.14285700000000645,"midi":65,"time":90.285624,"velocity":0.3937007874015748},{"duration":0.14285700000000645,"midi":70,"time":90.285624,"velocity":0.3937007874015748},{"duration":0.14285700000000645,"midi":65,"time":90.285624,"velocity":0.3937007874015748},{"duration":0.14285700000000645,"midi":74,"time":90.285624,"velocity":0.3937007874015748},{"duration":0.14285699999999224,"midi":74,"time":90.57133800000001,"velocity":0.3937007874015748},{"duration":0.14285699999999224,"midi":65,"time":90.57133800000001,"velocity":0.3937007874015748},{"duration":0.14285699999999224,"midi":70,"time":90.57133800000001,"velocity":0.3937007874015748},{"duration":0.14285699999999224,"midi":70,"time":90.57133800000001,"velocity":0.3937007874015748},{"duration":0.14285699999999224,"midi":74,"time":90.57133800000001,"velocity":0.3937007874015748},{"duration":0.14285699999999224,"midi":65,"time":90.57133800000001,"velocity":0.3937007874015748},{"duration":0.14285700000000645,"midi":76,"time":90.714195,"velocity":0.3937007874015748},{"duration":0.14285700000000645,"midi":76,"time":90.714195,"velocity":0.3937007874015748},{"duration":0.14285700000000645,"midi":77,"time":90.85705200000001,"velocity":0.3937007874015748},{"duration":0.14285700000000645,"midi":72,"time":90.85705200000001,"velocity":0.3937007874015748},{"duration":0.14285700000000645,"midi":69,"time":90.85705200000001,"velocity":0.3937007874015748},{"duration":0.14285700000000645,"midi":77,"time":90.85705200000001,"velocity":0.3937007874015748},{"duration":0.14285700000000645,"midi":72,"time":90.85705200000001,"velocity":0.3937007874015748},{"duration":0.14285700000000645,"midi":69,"time":90.85705200000001,"velocity":0.3937007874015748},{"duration":0.14285699999999224,"midi":77,"time":91.14276600000001,"velocity":0.3937007874015748},{"duration":0.14285699999999224,"midi":72,"time":91.14276600000001,"velocity":0.3937007874015748},{"duration":0.14285699999999224,"midi":69,"time":91.14276600000001,"velocity":0.3937007874015748},{"duration":0.14285699999999224,"midi":77,"time":91.14276600000001,"velocity":0.3937007874015748},{"duration":0.14285699999999224,"midi":69,"time":91.14276600000001,"velocity":0.3937007874015748},{"duration":0.14285699999999224,"midi":72,"time":91.14276600000001,"velocity":0.3937007874015748},{"duration":0.14285699999999224,"midi":69,"time":91.42848000000001,"velocity":0.3937007874015748},{"duration":0.14285699999999224,"midi":77,"time":91.42848000000001,"velocity":0.3937007874015748},{"duration":0.14285699999999224,"midi":77,"time":91.42848000000001,"velocity":0.3937007874015748},{"duration":0.14285699999999224,"midi":69,"time":91.42848000000001,"velocity":0.3937007874015748},{"duration":0.14285699999999224,"midi":72,"time":91.42848000000001,"velocity":0.3937007874015748},{"duration":0.14285699999999224,"midi":72,"time":91.42848000000001,"velocity":0.3937007874015748},{"duration":0.14285700000000645,"midi":79,"time":91.571337,"velocity":0.3937007874015748},{"duration":0.14285700000000645,"midi":79,"time":91.571337,"velocity":0.3937007874015748},{"duration":0.14285700000000645,"midi":76,"time":91.714194,"velocity":0.3937007874015748},{"duration":0.14285700000000645,"midi":72,"time":91.714194,"velocity":0.3937007874015748},{"duration":0.14285700000000645,"midi":69,"time":91.714194,"velocity":0.3937007874015748},{"duration":0.14285700000000645,"midi":72,"time":91.714194,"velocity":0.3937007874015748},{"duration":0.14285700000000645,"midi":69,"time":91.714194,"velocity":0.3937007874015748},{"duration":0.14285700000000645,"midi":76,"time":91.714194,"velocity":0.3937007874015748},{"duration":0.14285700000000645,"midi":69,"time":91.999908,"velocity":0.3937007874015748},{"duration":0.14285700000000645,"midi":72,"time":91.999908,"velocity":0.3937007874015748},{"duration":0.14285700000000645,"midi":76,"time":91.999908,"velocity":0.3937007874015748},{"duration":0.14285700000000645,"midi":76,"time":91.999908,"velocity":0.3937007874015748},{"duration":0.14285700000000645,"midi":72,"time":91.999908,"velocity":0.3937007874015748},{"duration":0.14285700000000645,"midi":69,"time":91.999908,"velocity":0.3937007874015748},{"duration":0.14285699999999224,"midi":69,"time":92.28562200000002,"velocity":0.3937007874015748},{"duration":0.14285699999999224,"midi":74,"time":92.28562200000002,"velocity":0.3937007874015748},{"duration":0.14285699999999224,"midi":74,"time":92.28562200000002,"velocity":0.3937007874015748},{"duration":0.14285699999999224,"midi":69,"time":92.28562200000002,"velocity":0.3937007874015748},{"duration":0.14285699999999224,"midi":72,"time":92.42847900000001,"velocity":0.3937007874015748},{"duration":0.14285699999999224,"midi":72,"time":92.42847900000001,"velocity":0.3937007874015748},{"duration":0.42857100000000514,"midi":69,"time":92.571336,"velocity":0.3937007874015748},{"duration":0.42857100000000514,"midi":74,"time":92.571336,"velocity":0.3937007874015748},{"duration":0.42857100000000514,"midi":74,"time":92.571336,"velocity":0.3937007874015748},{"duration":0.42857100000000514,"midi":65,"time":92.571336,"velocity":0.3937007874015748},{"duration":0.42857100000000514,"midi":65,"time":92.571336,"velocity":0.3937007874015748},{"duration":0.42857100000000514,"midi":69,"time":92.571336,"velocity":0.3937007874015748},{"duration":0.14285699999999224,"midi":69,"time":93.14276400000001,"velocity":0.3937007874015748},{"duration":0.14285699999999224,"midi":69,"time":93.14276400000001,"velocity":0.3937007874015748},{"duration":0.14285700000000645,"midi":72,"time":93.285621,"velocity":0.3937007874015748},{"duration":0.14285700000000645,"midi":72,"time":93.285621,"velocity":0.3937007874015748},{"duration":0.14285699999999224,"midi":69,"time":93.42847800000001,"velocity":0.3937007874015748},{"duration":0.14285699999999224,"midi":65,"time":93.42847800000001,"velocity":0.3937007874015748},{"duration":0.14285699999999224,"midi":74,"time":93.42847800000001,"velocity":0.3937007874015748},{"duration":0.14285699999999224,"midi":69,"time":93.42847800000001,"velocity":0.3937007874015748},{"duration":0.14285699999999224,"midi":74,"time":93.42847800000001,"velocity":0.3937007874015748},{"duration":0.14285699999999224,"midi":65,"time":93.42847800000001,"velocity":0.3937007874015748},{"duration":0.14285700000000645,"midi":69,"time":93.714192,"velocity":0.3937007874015748},{"duration":0.14285700000000645,"midi":65,"time":93.714192,"velocity":0.3937007874015748},{"duration":0.14285700000000645,"midi":74,"time":93.714192,"velocity":0.3937007874015748},{"duration":0.14285700000000645,"midi":74,"time":93.714192,"velocity":0.3937007874015748},{"duration":0.14285700000000645,"midi":65,"time":93.714192,"velocity":0.3937007874015748},{"duration":0.14285700000000645,"midi":69,"time":93.714192,"velocity":0.3937007874015748},{"duration":0.14285699999999224,"midi":74,"time":93.99990600000001,"velocity":0.3937007874015748},{"duration":0.14285699999999224,"midi":65,"time":93.99990600000001,"velocity":0.3937007874015748},{"duration":0.14285699999999224,"midi":74,"time":93.99990600000001,"velocity":0.3937007874015748},{"duration":0.14285699999999224,"midi":65,"time":93.99990600000001,"velocity":0.3937007874015748},{"duration":0.14285700000000645,"midi":77,"time":94.142763,"velocity":0.3937007874015748},{"duration":0.14285700000000645,"midi":65,"time":94.142763,"velocity":0.3937007874015748},{"duration":0.14285700000000645,"midi":65,"time":94.142763,"velocity":0.3937007874015748},{"duration":0.14285700000000645,"midi":77,"time":94.142763,"velocity":0.3937007874015748},{"duration":0.14285700000000645,"midi":70,"time":94.28562000000001,"velocity":0.3937007874015748},{"duration":0.14285700000000645,"midi":79,"time":94.28562000000001,"velocity":0.3937007874015748},{"duration":0.14285700000000645,"midi":74,"time":94.28562000000001,"velocity":0.3937007874015748},{"duration":0.14285700000000645,"midi":70,"time":94.28562000000001,"velocity":0.3937007874015748},{"duration":0.14285700000000645,"midi":79,"time":94.28562000000001,"velocity":0.3937007874015748},{"duration":0.14285700000000645,"midi":74,"time":94.28562000000001,"velocity":0.3937007874015748},{"duration":0.14285700000000645,"midi":79,"time":94.57133400000001,"velocity":0.3937007874015748},{"duration":0.14285700000000645,"midi":74,"time":94.57133400000001,"velocity":0.3937007874015748},{"duration":0.14285700000000645,"midi":70,"time":94.57133400000001,"velocity":0.3937007874015748},{"duration":0.14285700000000645,"midi":79,"time":94.57133400000001,"velocity":0.3937007874015748},{"duration":0.14285700000000645,"midi":74,"time":94.57133400000001,"velocity":0.3937007874015748},{"duration":0.14285700000000645,"midi":70,"time":94.57133400000001,"velocity":0.3937007874015748},{"duration":0.14285699999999224,"midi":70,"time":94.857048,"velocity":0.3937007874015748},{"duration":0.14285699999999224,"midi":79,"time":94.857048,"velocity":0.3937007874015748},{"duration":0.14285699999999224,"midi":74,"time":94.857048,"velocity":0.3937007874015748},{"duration":0.14285699999999224,"midi":70,"time":94.857048,"velocity":0.3937007874015748},{"duration":0.14285699999999224,"midi":74,"time":94.857048,"velocity":0.3937007874015748},{"duration":0.14285699999999224,"midi":79,"time":94.857048,"velocity":0.3937007874015748},{"duration":0.14285700000000645,"midi":81,"time":94.999905,"velocity":0.3937007874015748},{"duration":0.14285700000000645,"midi":81,"time":94.999905,"velocity":0.3937007874015748},{"duration":0.14285700000000645,"midi":82,"time":95.142762,"velocity":0.3937007874015748},{"duration":0.14285700000000645,"midi":74,"time":95.142762,"velocity":0.3937007874015748},{"duration":0.14285700000000645,"midi":82,"time":95.142762,"velocity":0.3937007874015748},{"duration":0.14285700000000645,"midi":79,"time":95.142762,"velocity":0.3937007874015748},{"duration":0.14285700000000645,"midi":74,"time":95.142762,"velocity":0.3937007874015748},{"duration":0.14285700000000645,"midi":79,"time":95.142762,"velocity":0.3937007874015748},{"duration":0.14285700000000645,"midi":74,"time":95.428476,"velocity":0.3937007874015748},{"duration":0.14285700000000645,"midi":82,"time":95.428476,"velocity":0.3937007874015748},{"duration":0.14285700000000645,"midi":82,"time":95.428476,"velocity":0.3937007874015748},{"duration":0.14285700000000645,"midi":74,"time":95.428476,"velocity":0.3937007874015748},{"duration":0.14285700000000645,"midi":79,"time":95.428476,"velocity":0.3937007874015748},{"duration":0.14285700000000645,"midi":79,"time":95.428476,"velocity":0.3937007874015748},{"duration":0.14285699999999224,"midi":81,"time":95.71419000000002,"velocity":0.3937007874015748},{"duration":0.14285699999999224,"midi":81,"time":95.71419000000002,"velocity":0.3937007874015748},{"duration":0.14285699999999224,"midi":74,"time":95.71419000000002,"velocity":0.3937007874015748},{"duration":0.14285699999999224,"midi":74,"time":95.71419000000002,"velocity":0.3937007874015748},{"duration":0.14285700000000645,"midi":79,"time":95.85704700000001,"velocity":0.3937007874015748},{"duration":0.14285700000000645,"midi":79,"time":95.85704700000001,"velocity":0.3937007874015748},{"duration":0.14285699999999224,"midi":74,"time":95.99990400000002,"velocity":0.3937007874015748},{"duration":0.14285699999999224,"midi":74,"time":95.99990400000002,"velocity":0.3937007874015748},{"duration":0.14285699999999224,"midi":81,"time":95.99990400000002,"velocity":0.3937007874015748},{"duration":0.14285699999999224,"midi":81,"time":95.99990400000002,"velocity":0.3937007874015748},{"duration":0.42857100000000514,"midi":69,"time":96.14276100000001,"velocity":0.3937007874015748},{"duration":0.42857100000000514,"midi":74,"time":96.14276100000001,"velocity":0.3937007874015748},{"duration":0.42857100000000514,"midi":74,"time":96.14276100000001,"velocity":0.3937007874015748},{"duration":0.42857100000000514,"midi":69,"time":96.14276100000001,"velocity":0.3937007874015748},{"duration":0.42857100000000514,"midi":65,"time":96.14276100000001,"velocity":0.3937007874015748},{"duration":0.42857100000000514,"midi":65,"time":96.14276100000001,"velocity":0.3937007874015748},{"duration":0.14285699999999224,"midi":74,"time":96.57133200000001,"velocity":0.3937007874015748},{"duration":0.14285699999999224,"midi":74,"time":96.57133200000001,"velocity":0.3937007874015748},{"duration":0.14285700000000645,"midi":76,"time":96.714189,"velocity":0.3937007874015748},{"duration":0.14285700000000645,"midi":76,"time":96.714189,"velocity":0.3937007874015748},{"duration":0.14285700000000645,"midi":70,"time":96.85704600000001,"velocity":0.3937007874015748},{"duration":0.14285700000000645,"midi":70,"time":96.85704600000001,"velocity":0.3937007874015748},{"duration":0.14285700000000645,"midi":77,"time":96.85704600000001,"velocity":0.3937007874015748},{"duration":0.14285700000000645,"midi":74,"time":96.85704600000001,"velocity":0.3937007874015748},{"duration":0.14285700000000645,"midi":77,"time":96.85704600000001,"velocity":0.3937007874015748},{"duration":0.14285700000000645,"midi":74,"time":96.85704600000001,"velocity":0.3937007874015748},{"duration":0.14285699999999224,"midi":70,"time":97.14276000000001,"velocity":0.3937007874015748},{"duration":0.14285699999999224,"midi":70,"time":97.14276000000001,"velocity":0.3937007874015748},{"duration":0.14285699999999224,"midi":74,"time":97.14276000000001,"velocity":0.3937007874015748},{"duration":0.14285699999999224,"midi":74,"time":97.14276000000001,"velocity":0.3937007874015748},{"duration":0.14285699999999224,"midi":77,"time":97.14276000000001,"velocity":0.3937007874015748},{"duration":0.14285699999999224,"midi":77,"time":97.14276000000001,"velocity":0.3937007874015748},{"duration":0.14285699999999224,"midi":70,"time":97.42847400000001,"velocity":0.3937007874015748},{"duration":0.14285699999999224,"midi":70,"time":97.42847400000001,"velocity":0.3937007874015748},{"duration":0.14285699999999224,"midi":74,"time":97.42847400000001,"velocity":0.3937007874015748},{"duration":0.14285699999999224,"midi":74,"time":97.42847400000001,"velocity":0.3937007874015748},{"duration":0.14285699999999224,"midi":79,"time":97.42847400000001,"velocity":0.3937007874015748},{"duration":0.14285699999999224,"midi":79,"time":97.42847400000001,"velocity":0.3937007874015748},{"duration":0.14285700000000645,"midi":81,"time":97.71418800000001,"velocity":0.3937007874015748},{"duration":0.14285700000000645,"midi":74,"time":97.71418800000001,"velocity":0.3937007874015748},{"duration":0.14285700000000645,"midi":77,"time":97.71418800000001,"velocity":0.3937007874015748},{"duration":0.14285700000000645,"midi":77,"time":97.71418800000001,"velocity":0.3937007874015748},{"duration":0.14285700000000645,"midi":74,"time":97.71418800000001,"velocity":0.3937007874015748},{"duration":0.14285700000000645,"midi":81,"time":97.71418800000001,"velocity":0.3937007874015748},{"duration":0.14285699999999224,"midi":74,"time":97.85704500000001,"velocity":0.3937007874015748},{"duration":0.14285699999999224,"midi":74,"time":97.85704500000001,"velocity":0.3937007874015748},{"duration":0.14285699999999224,"midi":74,"time":98.28561600000002,"velocity":0.3937007874015748},{"duration":0.14285699999999224,"midi":74,"time":98.28561600000002,"velocity":0.3937007874015748},{"duration":0.14285699999999224,"midi":77,"time":98.42847300000001,"velocity":0.3937007874015748},{"duration":0.14285699999999224,"midi":77,"time":98.42847300000001,"velocity":0.3937007874015748},{"duration":0.14285700000000645,"midi":73,"time":98.57133,"velocity":0.3937007874015748},{"duration":0.14285700000000645,"midi":76,"time":98.57133,"velocity":0.3937007874015748},{"duration":0.14285700000000645,"midi":76,"time":98.57133,"velocity":0.3937007874015748},{"duration":0.14285700000000645,"midi":69,"time":98.57133,"velocity":0.3937007874015748},{"duration":0.14285700000000645,"midi":73,"time":98.57133,"velocity":0.3937007874015748},{"duration":0.14285700000000645,"midi":69,"time":98.57133,"velocity":0.3937007874015748},{"duration":0.14285700000000645,"midi":69,"time":98.857044,"velocity":0.3937007874015748},{"duration":0.14285700000000645,"midi":73,"time":98.857044,"velocity":0.3937007874015748},{"duration":0.14285700000000645,"midi":69,"time":98.857044,"velocity":0.3937007874015748},{"duration":0.14285700000000645,"midi":76,"time":98.857044,"velocity":0.3937007874015748},{"duration":0.14285700000000645,"midi":76,"time":98.857044,"velocity":0.3937007874015748},{"duration":0.14285700000000645,"midi":73,"time":98.857044,"velocity":0.3937007874015748},{"duration":0.14285699999999224,"midi":74,"time":99.14275800000001,"velocity":0.3937007874015748},{"duration":0.14285699999999224,"midi":74,"time":99.14275800000001,"velocity":0.3937007874015748},{"duration":0.14285700000000645,"midi":73,"time":99.285615,"velocity":0.3937007874015748},{"duration":0.14285700000000645,"midi":73,"time":99.285615,"velocity":0.3937007874015748},{"duration":0.2857139999999845,"midi":74,"time":99.42847200000001,"velocity":0.3937007874015748},{"duration":0.2857139999999845,"midi":69,"time":99.42847200000001,"velocity":0.3937007874015748},{"duration":0.2857139999999845,"midi":74,"time":99.42847200000001,"velocity":0.3937007874015748},{"duration":0.2857139999999845,"midi":69,"time":99.42847200000001,"velocity":0.3937007874015748},{"duration":0.2857140000000129,"midi":74,"time":99.714186,"velocity":0.3937007874015748},{"duration":0.2857140000000129,"midi":69,"time":99.714186,"velocity":0.3937007874015748},{"duration":0.2857140000000129,"midi":69,"time":99.714186,"velocity":0.3937007874015748},{"duration":0.2857140000000129,"midi":74,"time":99.714186,"velocity":0.3937007874015748},{"duration":0.2857139999999987,"midi":76,"time":99.99990000000001,"velocity":0.3937007874015748},{"duration":0.2857139999999987,"midi":69,"time":99.99990000000001,"velocity":0.3937007874015748},{"duration":0.2857139999999987,"midi":69,"time":99.99990000000001,"velocity":0.3937007874015748},{"duration":0.2857139999999987,"midi":76,"time":99.99990000000001,"velocity":0.3937007874015748},{"duration":0.2857139999999987,"midi":72,"time":99.99990000000001,"velocity":0.3937007874015748},{"duration":0.2857139999999987,"midi":72,"time":99.99990000000001,"velocity":0.3937007874015748},{"duration":0.2857139999999987,"midi":77,"time":100.28561400000001,"velocity":0.3937007874015748},{"duration":0.2857139999999987,"midi":74,"time":100.28561400000001,"velocity":0.3937007874015748},{"duration":0.2857139999999987,"midi":74,"time":100.28561400000001,"velocity":0.3937007874015748},{"duration":0.2857139999999987,"midi":77,"time":100.28561400000001,"velocity":0.3937007874015748},{"duration":0.2857139999999987,"midi":72,"time":100.28561400000001,"velocity":0.3937007874015748},{"duration":0.2857139999999987,"midi":72,"time":100.28561400000001,"velocity":0.3937007874015748},{"duration":0.14285700000000645,"midi":77,"time":100.57132800000001,"velocity":0.3937007874015748},{"duration":0.14285700000000645,"midi":77,"time":100.57132800000001,"velocity":0.3937007874015748},{"duration":0.14285699999999224,"midi":77,"time":100.71418500000001,"velocity":0.3937007874015748},{"duration":0.14285699999999224,"midi":77,"time":100.71418500000001,"velocity":0.3937007874015748},{"duration":0.2857139999999987,"midi":74,"time":100.857042,"velocity":0.3937007874015748},{"duration":0.2857139999999987,"midi":74,"time":100.857042,"velocity":0.3937007874015748},{"duration":0.2857139999999987,"midi":79,"time":100.857042,"velocity":0.3937007874015748},{"duration":0.2857139999999987,"midi":70,"time":100.857042,"velocity":0.3937007874015748},{"duration":0.2857139999999987,"midi":79,"time":100.857042,"velocity":0.3937007874015748},{"duration":0.2857139999999987,"midi":70,"time":100.857042,"velocity":0.3937007874015748},{"duration":0.5714280000000116,"midi":81,"time":101.142756,"velocity":0.3937007874015748},{"duration":0.5714280000000116,"midi":77,"time":101.142756,"velocity":0.3937007874015748},{"duration":0.5714280000000116,"midi":74,"time":101.142756,"velocity":0.3937007874015748},{"duration":0.5714280000000116,"midi":81,"time":101.142756,"velocity":0.3937007874015748},{"duration":0.5714280000000116,"midi":74,"time":101.142756,"velocity":0.3937007874015748},{"duration":0.5714280000000116,"midi":77,"time":101.142756,"velocity":0.3937007874015748},{"duration":0.14285699999999224,"midi":77,"time":101.71418400000002,"velocity":0.3937007874015748},{"duration":0.14285699999999224,"midi":77,"time":101.71418400000002,"velocity":0.3937007874015748},{"duration":0.14285699999999224,"midi":74,"time":101.85704100000001,"velocity":0.3937007874015748},{"duration":0.14285699999999224,"midi":74,"time":101.85704100000001,"velocity":0.3937007874015748},{"duration":0.8571420000000103,"midi":69,"time":101.999898,"velocity":0.3937007874015748},{"duration":0.8571420000000103,"midi":69,"time":101.999898,"velocity":0.3937007874015748},{"duration":0.5714279999999974,"midi":77,"time":102.85704000000001,"velocity":0.3937007874015748},{"duration":0.5714279999999974,"midi":74,"time":102.85704000000001,"velocity":0.3937007874015748},{"duration":0.5714279999999974,"midi":82,"time":102.85704000000001,"velocity":0.3937007874015748},{"duration":0.5714279999999974,"midi":74,"time":102.85704000000001,"velocity":0.3937007874015748},{"duration":0.5714279999999974,"midi":77,"time":102.85704000000001,"velocity":0.3937007874015748},{"duration":0.5714279999999974,"midi":82,"time":102.85704000000001,"velocity":0.3937007874015748},{"duration":0.14285699999999224,"midi":77,"time":103.42846800000001,"velocity":0.3937007874015748},{"duration":0.14285699999999224,"midi":77,"time":103.42846800000001,"velocity":0.3937007874015748},{"duration":0.14285700000000645,"midi":74,"time":103.571325,"velocity":0.3937007874015748},{"duration":0.14285700000000645,"midi":74,"time":103.571325,"velocity":0.3937007874015748},{"duration":0.8571419999999961,"midi":70,"time":103.71418200000001,"velocity":0.3937007874015748},{"duration":0.8571419999999961,"midi":70,"time":103.71418200000001,"velocity":0.3937007874015748},{"duration":0.14285700000000645,"midi":69,"time":104.571324,"velocity":0.3937007874015748},{"duration":0.14285700000000645,"midi":69,"time":104.571324,"velocity":0.3937007874015748},{"duration":0.14285700000000645,"midi":76,"time":104.571324,"velocity":0.3937007874015748},{"duration":0.14285700000000645,"midi":76,"time":104.571324,"velocity":0.3937007874015748},{"duration":0.2857139999999987,"midi":76,"time":104.71418100000001,"velocity":0.3937007874015748},{"duration":0.2857139999999987,"midi":76,"time":104.71418100000001,"velocity":0.3937007874015748},{"duration":0.42857100000000514,"midi":74,"time":104.99989500000001,"velocity":0.3937007874015748},{"duration":0.42857100000000514,"midi":69,"time":104.99989500000001,"velocity":0.3937007874015748},{"duration":0.42857100000000514,"midi":69,"time":104.99989500000001,"velocity":0.3937007874015748},{"duration":0.42857100000000514,"midi":65,"time":104.99989500000001,"velocity":0.3937007874015748},{"duration":0.42857100000000514,"midi":74,"time":104.99989500000001,"velocity":0.3937007874015748},{"duration":0.42857100000000514,"midi":65,"time":104.99989500000001,"velocity":0.3937007874015748},{"duration":0.42857099999999093,"midi":77,"time":105.42846600000001,"velocity":0.3937007874015748},{"duration":0.42857099999999093,"midi":73,"time":105.42846600000001,"velocity":0.3937007874015748},{"duration":0.42857099999999093,"midi":69,"time":105.42846600000001,"velocity":0.3937007874015748},{"duration":0.42857099999999093,"midi":69,"time":105.42846600000001,"velocity":0.3937007874015748},{"duration":0.42857099999999093,"midi":77,"time":105.42846600000001,"velocity":0.3937007874015748},{"duration":0.42857099999999093,"midi":73,"time":105.42846600000001,"velocity":0.3937007874015748},{"duration":0.14285699999999224,"midi":65,"time":105.99989400000001,"velocity":0.3937007874015748},{"duration":0.14285699999999224,"midi":65,"time":105.99989400000001,"velocity":0.3937007874015748},{"duration":0.14285700000000645,"midi":67,"time":106.142751,"velocity":0.3937007874015748},{"duration":0.14285700000000645,"midi":67,"time":106.142751,"velocity":0.3937007874015748},{"duration":0.14285700000000645,"midi":65,"time":106.28560800000001,"velocity":0.3937007874015748},{"duration":0.14285700000000645,"midi":62,"time":106.28560800000001,"velocity":0.3937007874015748},{"duration":0.14285700000000645,"midi":65,"time":106.28560800000001,"velocity":0.3937007874015748},{"duration":0.14285700000000645,"midi":69,"time":106.28560800000001,"velocity":0.3937007874015748},{"duration":0.14285700000000645,"midi":62,"time":106.28560800000001,"velocity":0.3937007874015748},{"duration":0.14285700000000645,"midi":69,"time":106.28560800000001,"velocity":0.3937007874015748},{"duration":0.14285700000000645,"midi":62,"time":106.57132200000001,"velocity":0.3937007874015748},{"duration":0.14285700000000645,"midi":65,"time":106.57132200000001,"velocity":0.3937007874015748},{"duration":0.14285700000000645,"midi":62,"time":106.57132200000001,"velocity":0.3937007874015748},{"duration":0.14285700000000645,"midi":69,"time":106.57132200000001,"velocity":0.3937007874015748},{"duration":0.14285700000000645,"midi":65,"time":106.57132200000001,"velocity":0.3937007874015748},{"duration":0.14285700000000645,"midi":69,"time":106.57132200000001,"velocity":0.3937007874015748},{"duration":0.14285699999999224,"midi":62,"time":106.85703600000001,"velocity":0.3937007874015748},{"duration":0.14285699999999224,"midi":69,"time":106.85703600000001,"velocity":0.3937007874015748},{"duration":0.14285699999999224,"midi":62,"time":106.85703600000001,"velocity":0.3937007874015748},{"duration":0.14285699999999224,"midi":65,"time":106.85703600000001,"velocity":0.3937007874015748},{"duration":0.14285699999999224,"midi":65,"time":106.85703600000001,"velocity":0.3937007874015748},{"duration":0.14285699999999224,"midi":69,"time":106.85703600000001,"velocity":0.3937007874015748},{"duration":0.14285700000000645,"midi":62,"time":107.14275,"velocity":0.3937007874015748},{"duration":0.14285700000000645,"midi":67,"time":107.14275,"velocity":0.3937007874015748},{"duration":0.14285700000000645,"midi":62,"time":107.14275,"velocity":0.3937007874015748},{"duration":0.14285700000000645,"midi":70,"time":107.14275,"velocity":0.3937007874015748},{"duration":0.14285700000000645,"midi":70,"time":107.14275,"velocity":0.3937007874015748},{"duration":0.14285700000000645,"midi":67,"time":107.14275,"velocity":0.3937007874015748},{"duration":0.14285699999999224,"midi":65,"time":107.28560700000001,"velocity":0.3937007874015748},{"duration":0.14285699999999224,"midi":69,"time":107.28560700000001,"velocity":0.3937007874015748},{"duration":0.14285699999999224,"midi":69,"time":107.28560700000001,"velocity":0.3937007874015748},{"duration":0.14285699999999224,"midi":65,"time":107.28560700000001,"velocity":0.3937007874015748},{"duration":0.14285699999999224,"midi":62,"time":107.28560700000001,"velocity":0.3937007874015748},{"duration":0.14285699999999224,"midi":62,"time":107.28560700000001,"velocity":0.3937007874015748},{"duration":0.14285700000000645,"midi":67,"time":107.999892,"velocity":0.3937007874015748},{"duration":0.14285700000000645,"midi":64,"time":107.999892,"velocity":0.3937007874015748},{"duration":0.14285700000000645,"midi":60,"time":107.999892,"velocity":0.3937007874015748},{"duration":0.14285700000000645,"midi":60,"time":107.999892,"velocity":0.3937007874015748},{"duration":0.14285700000000645,"midi":67,"time":107.999892,"velocity":0.3937007874015748},{"duration":0.14285700000000645,"midi":64,"time":107.999892,"velocity":0.3937007874015748},{"duration":0.14285700000000645,"midi":60,"time":108.285606,"velocity":0.3937007874015748},{"duration":0.14285700000000645,"midi":60,"time":108.285606,"velocity":0.3937007874015748},{"duration":0.14285700000000645,"midi":67,"time":108.285606,"velocity":0.3937007874015748},{"duration":0.14285700000000645,"midi":67,"time":108.285606,"velocity":0.3937007874015748},{"duration":0.14285700000000645,"midi":64,"time":108.285606,"velocity":0.3937007874015748},{"duration":0.14285700000000645,"midi":64,"time":108.285606,"velocity":0.3937007874015748},{"duration":0.14285699999999224,"midi":64,"time":108.57132000000001,"velocity":0.3937007874015748},{"duration":0.14285699999999224,"midi":67,"time":108.57132000000001,"velocity":0.3937007874015748},{"duration":0.14285699999999224,"midi":67,"time":108.57132000000001,"velocity":0.3937007874015748},{"duration":0.14285699999999224,"midi":60,"time":108.57132000000001,"velocity":0.3937007874015748},{"duration":0.14285699999999224,"midi":60,"time":108.57132000000001,"velocity":0.3937007874015748},{"duration":0.14285699999999224,"midi":64,"time":108.57132000000001,"velocity":0.3937007874015748},{"duration":0.14285700000000645,"midi":60,"time":108.85703400000001,"velocity":0.3937007874015748},{"duration":0.14285700000000645,"midi":64,"time":108.85703400000001,"velocity":0.3937007874015748},{"duration":0.14285700000000645,"midi":60,"time":108.85703400000001,"velocity":0.3937007874015748},{"duration":0.14285700000000645,"midi":64,"time":108.85703400000001,"velocity":0.3937007874015748},{"duration":0.14285700000000645,"midi":67,"time":108.85703400000001,"velocity":0.3937007874015748},{"duration":0.14285700000000645,"midi":67,"time":108.85703400000001,"velocity":0.3937007874015748},{"duration":0.14285699999999224,"midi":69,"time":108.99989100000002,"velocity":0.3937007874015748},{"duration":0.14285699999999224,"midi":65,"time":108.99989100000002,"velocity":0.3937007874015748},{"duration":0.14285699999999224,"midi":60,"time":108.99989100000002,"velocity":0.3937007874015748},{"duration":0.14285699999999224,"midi":60,"time":108.99989100000002,"velocity":0.3937007874015748},{"duration":0.14285699999999224,"midi":65,"time":108.99989100000002,"velocity":0.3937007874015748},{"duration":0.14285699999999224,"midi":69,"time":108.99989100000002,"velocity":0.3937007874015748},{"duration":0.14285699999999224,"midi":69,"time":109.71417600000001,"velocity":0.3937007874015748},{"duration":0.14285699999999224,"midi":62,"time":109.71417600000001,"velocity":0.3937007874015748},{"duration":0.14285699999999224,"midi":62,"time":109.71417600000001,"velocity":0.3937007874015748},{"duration":0.14285699999999224,"midi":65,"time":109.71417600000001,"velocity":0.3937007874015748},{"duration":0.14285699999999224,"midi":69,"time":109.71417600000001,"velocity":0.3937007874015748},{"duration":0.14285699999999224,"midi":65,"time":109.71417600000001,"velocity":0.3937007874015748},{"duration":0.14285699999999224,"midi":62,"time":109.99989000000002,"velocity":0.3937007874015748},{"duration":0.14285699999999224,"midi":65,"time":109.99989000000002,"velocity":0.3937007874015748},{"duration":0.14285699999999224,"midi":69,"time":109.99989000000002,"velocity":0.3937007874015748},{"duration":0.14285699999999224,"midi":69,"time":109.99989000000002,"velocity":0.3937007874015748},{"duration":0.14285699999999224,"midi":65,"time":109.99989000000002,"velocity":0.3937007874015748},{"duration":0.14285699999999224,"midi":62,"time":109.99989000000002,"velocity":0.3937007874015748},{"duration":0.14285700000000645,"midi":65,"time":110.285604,"velocity":0.3937007874015748},{"duration":0.14285700000000645,"midi":62,"time":110.285604,"velocity":0.3937007874015748},{"duration":0.14285700000000645,"midi":65,"time":110.285604,"velocity":0.3937007874015748},{"duration":0.14285700000000645,"midi":69,"time":110.285604,"velocity":0.3937007874015748},{"duration":0.14285700000000645,"midi":62,"time":110.285604,"velocity":0.3937007874015748},{"duration":0.14285700000000645,"midi":69,"time":110.285604,"velocity":0.3937007874015748},{"duration":0.14285699999999224,"midi":70,"time":110.571318,"velocity":0.3937007874015748},{"duration":0.14285699999999224,"midi":67,"time":110.571318,"velocity":0.3937007874015748},{"duration":0.14285699999999224,"midi":67,"time":110.571318,"velocity":0.3937007874015748},{"duration":0.14285699999999224,"midi":62,"time":110.571318,"velocity":0.3937007874015748},{"duration":0.14285699999999224,"midi":70,"time":110.571318,"velocity":0.3937007874015748},{"duration":0.14285699999999224,"midi":62,"time":110.571318,"velocity":0.3937007874015748},{"duration":0.14285700000002066,"midi":65,"time":110.714175,"velocity":0.3937007874015748},{"duration":0.14285700000002066,"midi":69,"time":110.714175,"velocity":0.3937007874015748},{"duration":0.14285700000002066,"midi":62,"time":110.714175,"velocity":0.3937007874015748},{"duration":0.14285700000002066,"midi":69,"time":110.714175,"velocity":0.3937007874015748},{"duration":0.14285700000002066,"midi":65,"time":110.714175,"velocity":0.3937007874015748},{"duration":0.14285700000002066,"midi":62,"time":110.714175,"velocity":0.3937007874015748},{"duration":0.14285699999999224,"midi":64,"time":111.42846000000002,"velocity":0.3937007874015748},{"duration":0.14285699999999224,"midi":67,"time":111.42846000000002,"velocity":0.3937007874015748},{"duration":0.14285699999999224,"midi":67,"time":111.42846000000002,"velocity":0.3937007874015748},{"duration":0.14285699999999224,"midi":61,"time":111.42846000000002,"velocity":0.3937007874015748},{"duration":0.14285699999999224,"midi":64,"time":111.42846000000002,"velocity":0.3937007874015748},{"duration":0.14285699999999224,"midi":61,"time":111.42846000000002,"velocity":0.3937007874015748},{"duration":0.14285699999999224,"midi":61,"time":111.71417400000001,"velocity":0.3937007874015748},{"duration":0.14285699999999224,"midi":65,"time":111.71417400000001,"velocity":0.3937007874015748},{"duration":0.14285699999999224,"midi":61,"time":111.71417400000001,"velocity":0.3937007874015748},{"duration":0.14285699999999224,"midi":65,"time":111.71417400000001,"velocity":0.3937007874015748},{"duration":0.14285700000002066,"midi":61,"time":111.999888,"velocity":0.3937007874015748},{"duration":0.14285700000002066,"midi":64,"time":111.999888,"velocity":0.3937007874015748},{"duration":0.14285700000002066,"midi":64,"time":111.999888,"velocity":0.3937007874015748},{"duration":0.14285700000002066,"midi":61,"time":111.999888,"velocity":0.3937007874015748},{"duration":0.14285699999999224,"midi":62,"time":112.28560200000001,"velocity":0.3937007874015748},{"duration":0.14285699999999224,"midi":53,"time":112.28560200000001,"velocity":0.3937007874015748},{"duration":0.14285699999999224,"midi":57,"time":112.28560200000001,"velocity":0.3937007874015748},{"duration":0.14285699999999224,"midi":53,"time":112.28560200000001,"velocity":0.3937007874015748},{"duration":0.14285699999999224,"midi":57,"time":112.28560200000001,"velocity":0.3937007874015748},{"duration":0.14285699999999224,"midi":62,"time":112.28560200000001,"velocity":0.3937007874015748},{"duration":0.14285700000002066,"midi":62,"time":112.85703,"velocity":0.3937007874015748},{"duration":0.14285700000002066,"midi":62,"time":112.85703,"velocity":0.3937007874015748},{"duration":0.14285699999999224,"midi":64,"time":112.99988700000002,"velocity":0.3937007874015748},{"duration":0.14285699999999224,"midi":64,"time":112.99988700000002,"velocity":0.3937007874015748},{"duration":0.5714279999999974,"midi":65,"time":113.14274400000001,"velocity":0.3937007874015748},{"duration":0.5714279999999974,"midi":57,"time":113.14274400000001,"velocity":0.3937007874015748},{"duration":0.5714279999999974,"midi":57,"time":113.14274400000001,"velocity":0.3937007874015748},{"duration":0.5714279999999974,"midi":65,"time":113.14274400000001,"velocity":0.3937007874015748},{"duration":0.5714279999999974,"midi":62,"time":113.14274400000001,"velocity":0.3937007874015748},{"duration":0.5714279999999974,"midi":62,"time":113.14274400000001,"velocity":0.3937007874015748},{"duration":0.14285700000000645,"midi":67,"time":113.714172,"velocity":0.3937007874015748},{"duration":0.14285700000000645,"midi":67,"time":113.714172,"velocity":0.3937007874015748},{"duration":0.14285699999999224,"midi":69,"time":113.85702900000001,"velocity":0.3937007874015748},{"duration":0.14285699999999224,"midi":69,"time":113.85702900000001,"velocity":0.3937007874015748},{"duration":0.2857140000000129,"midi":67,"time":113.999886,"velocity":0.3937007874015748},{"duration":0.2857140000000129,"midi":60,"time":113.999886,"velocity":0.3937007874015748},{"duration":0.2857140000000129,"midi":67,"time":113.999886,"velocity":0.3937007874015748},{"duration":0.2857140000000129,"midi":55,"time":113.999886,"velocity":0.3937007874015748},{"duration":0.2857140000000129,"midi":60,"time":113.999886,"velocity":0.3937007874015748},{"duration":0.2857140000000129,"midi":55,"time":113.999886,"velocity":0.3937007874015748},{"duration":0.2857139999999845,"midi":60,"time":114.28560000000002,"velocity":0.3937007874015748},{"duration":0.2857139999999845,"midi":55,"time":114.28560000000002,"velocity":0.3937007874015748},{"duration":0.2857139999999845,"midi":65,"time":114.28560000000002,"velocity":0.3937007874015748},{"duration":0.2857139999999845,"midi":65,"time":114.28560000000002,"velocity":0.3937007874015748},{"duration":0.2857139999999845,"midi":55,"time":114.28560000000002,"velocity":0.3937007874015748},{"duration":0.2857139999999845,"midi":60,"time":114.28560000000002,"velocity":0.3937007874015748},{"duration":0.2857140000000129,"midi":55,"time":114.571314,"velocity":0.3937007874015748},{"duration":0.2857140000000129,"midi":64,"time":114.571314,"velocity":0.3937007874015748},{"duration":0.2857140000000129,"midi":64,"time":114.571314,"velocity":0.3937007874015748},{"duration":0.2857140000000129,"midi":60,"time":114.571314,"velocity":0.3937007874015748},{"duration":0.2857140000000129,"midi":60,"time":114.571314,"velocity":0.3937007874015748},{"duration":0.2857140000000129,"midi":55,"time":114.571314,"velocity":0.3937007874015748},{"duration":0.2857139999999987,"midi":60,"time":114.85702800000001,"velocity":0.3937007874015748},{"duration":0.2857139999999987,"midi":60,"time":114.85702800000001,"velocity":0.3937007874015748},{"duration":0.2857139999999987,"midi":57,"time":114.85702800000001,"velocity":0.3937007874015748},{"duration":0.2857139999999987,"midi":57,"time":114.85702800000001,"velocity":0.3937007874015748},{"duration":0.2857139999999987,"midi":65,"time":114.85702800000001,"velocity":0.3937007874015748},{"duration":0.2857139999999987,"midi":65,"time":114.85702800000001,"velocity":0.3937007874015748},{"duration":0.2857139999999845,"midi":57,"time":115.14274200000001,"velocity":0.3937007874015748},{"duration":0.2857139999999845,"midi":60,"time":115.14274200000001,"velocity":0.3937007874015748},{"duration":0.2857139999999845,"midi":57,"time":115.14274200000001,"velocity":0.3937007874015748},{"duration":0.2857139999999845,"midi":60,"time":115.14274200000001,"velocity":0.3937007874015748},{"duration":0.2857139999999845,"midi":67,"time":115.14274200000001,"velocity":0.3937007874015748},{"duration":0.2857139999999845,"midi":67,"time":115.14274200000001,"velocity":0.3937007874015748},{"duration":0.2857140000000129,"midi":69,"time":115.428456,"velocity":0.3937007874015748},{"duration":0.2857140000000129,"midi":69,"time":115.428456,"velocity":0.3937007874015748},{"duration":0.2857140000000129,"midi":60,"time":115.428456,"velocity":0.3937007874015748},{"duration":0.2857140000000129,"midi":57,"time":115.428456,"velocity":0.3937007874015748},{"duration":0.2857140000000129,"midi":57,"time":115.428456,"velocity":0.3937007874015748},{"duration":0.2857140000000129,"midi":60,"time":115.428456,"velocity":0.3937007874015748},{"duration":0.5714279999999974,"midi":64,"time":115.71417000000001,"velocity":0.3937007874015748},{"duration":0.5714279999999974,"midi":60,"time":115.71417000000001,"velocity":0.3937007874015748},{"duration":0.5714279999999974,"midi":64,"time":115.71417000000001,"velocity":0.3937007874015748},{"duration":0.5714279999999974,"midi":67,"time":115.71417000000001,"velocity":0.3937007874015748},{"duration":0.5714279999999974,"midi":67,"time":115.71417000000001,"velocity":0.3937007874015748},{"duration":0.5714279999999974,"midi":60,"time":115.71417000000001,"velocity":0.3937007874015748},{"duration":0.14285700000000645,"midi":65,"time":116.28559800000001,"velocity":0.3937007874015748},{"duration":0.14285700000000645,"midi":65,"time":116.28559800000001,"velocity":0.3937007874015748},{"duration":0.14285699999999224,"midi":67,"time":116.42845500000001,"velocity":0.3937007874015748},{"duration":0.14285699999999224,"midi":67,"time":116.42845500000001,"velocity":0.3937007874015748},{"duration":0.5714279999999974,"midi":69,"time":116.571312,"velocity":0.3937007874015748},{"duration":0.5714279999999974,"midi":62,"time":116.571312,"velocity":0.3937007874015748},{"duration":0.5714279999999974,"midi":65,"time":116.571312,"velocity":0.3937007874015748},{"duration":0.5714279999999974,"midi":65,"time":116.571312,"velocity":0.3937007874015748},{"duration":0.5714279999999974,"midi":69,"time":116.571312,"velocity":0.3937007874015748},{"duration":0.5714279999999974,"midi":62,"time":116.571312,"velocity":0.3937007874015748},{"duration":0.14285700000002066,"midi":67,"time":117.14274,"velocity":0.3937007874015748},{"duration":0.14285700000002066,"midi":67,"time":117.14274,"velocity":0.3937007874015748},{"duration":0.14285699999999224,"midi":65,"time":117.28559700000002,"velocity":0.3937007874015748},{"duration":0.14285699999999224,"midi":65,"time":117.28559700000002,"velocity":0.3937007874015748},{"duration":0.2857139999999987,"midi":64,"time":117.42845400000002,"velocity":0.3937007874015748},{"duration":0.2857139999999987,"midi":61,"time":117.42845400000002,"velocity":0.3937007874015748},{"duration":0.2857139999999987,"midi":64,"time":117.42845400000002,"velocity":0.3937007874015748},{"duration":0.2857139999999987,"midi":61,"time":117.42845400000002,"velocity":0.3937007874015748},{"duration":0.2857139999999845,"midi":61,"time":117.71416800000002,"velocity":0.3937007874015748},{"duration":0.2857139999999845,"midi":65,"time":117.71416800000002,"velocity":0.3937007874015748},{"duration":0.2857139999999845,"midi":65,"time":117.71416800000002,"velocity":0.3937007874015748},{"duration":0.2857139999999845,"midi":61,"time":117.71416800000002,"velocity":0.3937007874015748},{"duration":0.2857140000000129,"midi":64,"time":117.999882,"velocity":0.3937007874015748},{"duration":0.2857140000000129,"midi":61,"time":117.999882,"velocity":0.3937007874015748},{"duration":0.2857140000000129,"midi":61,"time":117.999882,"velocity":0.3937007874015748},{"duration":0.2857140000000129,"midi":64,"time":117.999882,"velocity":0.3937007874015748},{"duration":0.2857139999999987,"midi":57,"time":118.28559600000001,"velocity":0.3937007874015748},{"duration":0.2857139999999987,"midi":62,"time":118.28559600000001,"velocity":0.3937007874015748},{"duration":0.2857139999999987,"midi":62,"time":118.28559600000001,"velocity":0.3937007874015748},{"duration":0.2857139999999987,"midi":57,"time":118.28559600000001,"velocity":0.3937007874015748},{"duration":0.2857139999999987,"midi":53,"time":118.28559600000001,"velocity":0.3937007874015748},{"duration":0.2857139999999987,"midi":53,"time":118.28559600000001,"velocity":0.3937007874015748},{"duration":0.14285700000002066,"midi":64,"time":118.857024,"velocity":0.3937007874015748},{"duration":0.14285700000002066,"midi":64,"time":118.857024,"velocity":0.3937007874015748},{"duration":0.14285699999999224,"midi":60,"time":118.99988100000002,"velocity":0.3937007874015748},{"duration":0.14285699999999224,"midi":60,"time":118.99988100000002,"velocity":0.3937007874015748},{"duration":0.2857140000000129,"midi":62,"time":119.14273800000001,"velocity":0.3937007874015748},{"duration":0.2857140000000129,"midi":57,"time":119.14273800000001,"velocity":0.3937007874015748},{"duration":0.2857140000000129,"midi":57,"time":119.14273800000001,"velocity":0.3937007874015748},{"duration":0.2857140000000129,"midi":62,"time":119.14273800000001,"velocity":0.3937007874015748},{"duration":0.2857140000000129,"midi":53,"time":119.14273800000001,"velocity":0.3937007874015748},{"duration":0.2857140000000129,"midi":53,"time":119.14273800000001,"velocity":0.3937007874015748},{"duration":0.14285700000000645,"midi":74,"time":119.714166,"velocity":0.3937007874015748},{"duration":0.14285700000000645,"midi":74,"time":119.714166,"velocity":0.3937007874015748},{"duration":0.14285699999999224,"midi":76,"time":119.85702300000001,"velocity":0.3937007874015748},{"duration":0.14285699999999224,"midi":76,"time":119.85702300000001,"velocity":0.3937007874015748},{"duration":0.5714279999999974,"midi":74,"time":119.99988,"velocity":0.3937007874015748},{"duration":0.5714279999999974,"midi":74,"time":119.99988,"velocity":0.3937007874015748},{"duration":0.5714279999999974,"midi":77,"time":119.99988,"velocity":0.3937007874015748},{"duration":0.5714279999999974,"midi":77,"time":119.99988,"velocity":0.3937007874015748},{"duration":0.5714279999999974,"midi":69,"time":119.99988,"velocity":0.3937007874015748},{"duration":0.5714279999999974,"midi":69,"time":119.99988,"velocity":0.3937007874015748},{"duration":0.14285700000002066,"midi":76,"time":120.571308,"velocity":0.3937007874015748},{"duration":0.14285700000002066,"midi":76,"time":120.571308,"velocity":0.3937007874015748},{"duration":0.14285699999999224,"midi":77,"time":120.71416500000002,"velocity":0.3937007874015748},{"duration":0.14285699999999224,"midi":77,"time":120.71416500000002,"velocity":0.3937007874015748},{"duration":0.2857139999999987,"midi":79,"time":120.85702200000001,"velocity":0.3937007874015748},{"duration":0.2857139999999987,"midi":72,"time":120.85702200000001,"velocity":0.3937007874015748},{"duration":0.2857139999999987,"midi":67,"time":120.85702200000001,"velocity":0.3937007874015748},{"duration":0.2857139999999987,"midi":79,"time":120.85702200000001,"velocity":0.3937007874015748},{"duration":0.2857139999999987,"midi":67,"time":120.85702200000001,"velocity":0.3937007874015748},{"duration":0.2857139999999987,"midi":72,"time":120.85702200000001,"velocity":0.3937007874015748},{"duration":0.2857139999999845,"midi":77,"time":121.14273600000001,"velocity":0.3937007874015748},{"duration":0.2857139999999845,"midi":72,"time":121.14273600000001,"velocity":0.3937007874015748},{"duration":0.2857139999999845,"midi":67,"time":121.14273600000001,"velocity":0.3937007874015748},{"duration":0.2857139999999845,"midi":77,"time":121.14273600000001,"velocity":0.3937007874015748},{"duration":0.2857139999999845,"midi":67,"time":121.14273600000001,"velocity":0.3937007874015748},{"duration":0.2857139999999845,"midi":72,"time":121.14273600000001,"velocity":0.3937007874015748},{"duration":0.2857140000000129,"midi":67,"time":121.42845,"velocity":0.3937007874015748},{"duration":0.2857140000000129,"midi":79,"time":121.42845,"velocity":0.3937007874015748},{"duration":0.2857140000000129,"midi":72,"time":121.42845,"velocity":0.3937007874015748},{"duration":0.2857140000000129,"midi":67,"time":121.42845,"velocity":0.3937007874015748},{"duration":0.2857140000000129,"midi":72,"time":121.42845,"velocity":0.3937007874015748},{"duration":0.2857140000000129,"midi":79,"time":121.42845,"velocity":0.3937007874015748},{"duration":0.2857140000000129,"midi":77,"time":121.71416400000001,"velocity":0.3937007874015748},{"duration":0.2857140000000129,"midi":81,"time":121.71416400000001,"velocity":0.3937007874015748},{"duration":0.2857140000000129,"midi":81,"time":121.71416400000001,"velocity":0.3937007874015748},{"duration":0.2857140000000129,"midi":77,"time":121.71416400000001,"velocity":0.3937007874015748},{"duration":0.2857139999999845,"midi":72,"time":121.99987800000002,"velocity":0.3937007874015748},{"duration":0.2857139999999845,"midi":79,"time":121.99987800000002,"velocity":0.3937007874015748},{"duration":0.2857139999999845,"midi":79,"time":121.99987800000002,"velocity":0.3937007874015748},{"duration":0.2857139999999845,"midi":72,"time":121.99987800000002,"velocity":0.3937007874015748},{"duration":0.2857139999999987,"midi":72,"time":122.28559200000001,"velocity":0.3937007874015748},{"duration":0.2857139999999987,"midi":72,"time":122.28559200000001,"velocity":0.3937007874015748},{"duration":0.2857139999999987,"midi":77,"time":122.28559200000001,"velocity":0.3937007874015748},{"duration":0.2857139999999987,"midi":77,"time":122.28559200000001,"velocity":0.3937007874015748},{"duration":0.2857140000000129,"midi":70,"time":122.571306,"velocity":0.3937007874015748},{"duration":0.2857140000000129,"midi":74,"time":122.571306,"velocity":0.3937007874015748},{"duration":0.2857140000000129,"midi":65,"time":122.571306,"velocity":0.3937007874015748},{"duration":0.2857140000000129,"midi":74,"time":122.571306,"velocity":0.3937007874015748},{"duration":0.2857140000000129,"midi":70,"time":122.571306,"velocity":0.3937007874015748},{"duration":0.2857140000000129,"midi":65,"time":122.571306,"velocity":0.3937007874015748},{"duration":0.14285700000002066,"midi":74,"time":123.142734,"velocity":0.3937007874015748},{"duration":0.14285700000002066,"midi":74,"time":123.142734,"velocity":0.3937007874015748},{"duration":0.14285699999997803,"midi":76,"time":123.28559100000003,"velocity":0.3937007874015748},{"duration":0.14285699999997803,"midi":76,"time":123.28559100000003,"velocity":0.3937007874015748},{"duration":0.2857140000000129,"midi":69,"time":123.428448,"velocity":0.3937007874015748},{"duration":0.2857140000000129,"midi":74,"time":123.428448,"velocity":0.3937007874015748},{"duration":0.2857140000000129,"midi":74,"time":123.428448,"velocity":0.3937007874015748},{"duration":0.2857140000000129,"midi":77,"time":123.428448,"velocity":0.3937007874015748},{"duration":0.2857140000000129,"midi":77,"time":123.428448,"velocity":0.3937007874015748},{"duration":0.2857140000000129,"midi":69,"time":123.428448,"velocity":0.3937007874015748},{"duration":0.2857139999999845,"midi":69,"time":123.71416200000002,"velocity":0.3937007874015748},{"duration":0.2857139999999845,"midi":74,"time":123.71416200000002,"velocity":0.3937007874015748},{"duration":0.2857139999999845,"midi":79,"time":123.71416200000002,"velocity":0.3937007874015748},{"duration":0.2857139999999845,"midi":69,"time":123.71416200000002,"velocity":0.3937007874015748},{"duration":0.2857139999999845,"midi":79,"time":123.71416200000002,"velocity":0.3937007874015748},{"duration":0.2857139999999845,"midi":74,"time":123.71416200000002,"velocity":0.3937007874015748},{"duration":0.2857140000000129,"midi":74,"time":123.999876,"velocity":0.3937007874015748},{"duration":0.2857140000000129,"midi":81,"time":123.999876,"velocity":0.3937007874015748},{"duration":0.2857140000000129,"midi":74,"time":123.999876,"velocity":0.3937007874015748},{"duration":0.2857140000000129,"midi":81,"time":123.999876,"velocity":0.3937007874015748},{"duration":0.2857139999999987,"midi":74,"time":124.28559000000001,"velocity":0.3937007874015748},{"duration":0.2857139999999987,"midi":82,"time":124.28559000000001,"velocity":0.3937007874015748},{"duration":0.2857139999999987,"midi":82,"time":124.28559000000001,"velocity":0.3937007874015748},{"duration":0.2857139999999987,"midi":70,"time":124.28559000000001,"velocity":0.3937007874015748},{"duration":0.2857139999999987,"midi":74,"time":124.28559000000001,"velocity":0.3937007874015748},{"duration":0.2857139999999987,"midi":70,"time":124.28559000000001,"velocity":0.3937007874015748},{"duration":0.2857139999999845,"midi":74,"time":124.57130400000001,"velocity":0.3937007874015748},{"duration":0.2857139999999845,"midi":74,"time":124.57130400000001,"velocity":0.3937007874015748},{"duration":0.2857139999999845,"midi":70,"time":124.57130400000001,"velocity":0.3937007874015748},{"duration":0.2857139999999845,"midi":70,"time":124.57130400000001,"velocity":0.3937007874015748},{"duration":0.2857140000000129,"midi":79,"time":124.857018,"velocity":0.3937007874015748},{"duration":0.2857140000000129,"midi":74,"time":124.857018,"velocity":0.3937007874015748},{"duration":0.2857140000000129,"midi":74,"time":124.857018,"velocity":0.3937007874015748},{"duration":0.2857140000000129,"midi":79,"time":124.857018,"velocity":0.3937007874015748},{"duration":0.2857140000000129,"midi":77,"time":125.14273200000001,"velocity":0.3937007874015748},{"duration":0.2857140000000129,"midi":69,"time":125.14273200000001,"velocity":0.3937007874015748},{"duration":0.2857140000000129,"midi":69,"time":125.14273200000001,"velocity":0.3937007874015748},{"duration":0.2857140000000129,"midi":77,"time":125.14273200000001,"velocity":0.3937007874015748},{"duration":0.14285700000000645,"midi":79,"time":125.71416,"velocity":0.3937007874015748},{"duration":0.14285700000000645,"midi":79,"time":125.71416,"velocity":0.3937007874015748},{"duration":0.14285699999999224,"midi":76,"time":125.85701700000001,"velocity":0.3937007874015748},{"duration":0.14285699999999224,"midi":76,"time":125.85701700000001,"velocity":0.3937007874015748},{"duration":0.2857140000000129,"midi":74,"time":125.999874,"velocity":0.3937007874015748},{"duration":0.2857140000000129,"midi":74,"time":125.999874,"velocity":0.3937007874015748},{"duration":0.2857140000000129,"midi":69,"time":125.999874,"velocity":0.3937007874015748},{"duration":0.2857140000000129,"midi":69,"time":125.999874,"velocity":0.3937007874015748},{"duration":0.14285700000002066,"midi":76,"time":126.571302,"velocity":0.3937007874015748},{"duration":0.14285700000002066,"midi":76,"time":126.571302,"velocity":0.3937007874015748},{"duration":0.14285699999999224,"midi":73,"time":126.71415900000002,"velocity":0.3937007874015748},{"duration":0.14285699999999224,"midi":73,"time":126.71415900000002,"velocity":0.3937007874015748},{"duration":0.14285699999999224,"midi":62,"time":126.85701600000002,"velocity":0.3937007874015748},{"duration":0.14285699999999224,"midi":62,"time":126.85701600000002,"velocity":0.3937007874015748},{"duration":0.14285699999999224,"midi":74,"time":126.85701600000002,"velocity":0.3937007874015748},{"duration":0.14285699999999224,"midi":74,"time":126.85701600000002,"velocity":0.3937007874015748},{"duration":0.14285700000000645,"midi":60,"time":126.99987300000001,"velocity":0.3937007874015748},{"duration":0.14285700000000645,"midi":72,"time":126.99987300000001,"velocity":0.3937007874015748},{"duration":0.14285700000000645,"midi":60,"time":126.99987300000001,"velocity":0.3937007874015748},{"duration":0.14285700000000645,"midi":72,"time":126.99987300000001,"velocity":0.3937007874015748},{"duration":0.14285699999999224,"midi":62,"time":127.14273000000001,"velocity":0.3937007874015748},{"duration":0.14285699999999224,"midi":74,"time":127.14273000000001,"velocity":0.3937007874015748},{"duration":0.14285699999999224,"midi":62,"time":127.14273000000001,"velocity":0.3937007874015748},{"duration":0.14285699999999224,"midi":74,"time":127.14273000000001,"velocity":0.3937007874015748},{"duration":0.14285699999999224,"midi":64,"time":127.285587,"velocity":0.3937007874015748},{"duration":0.14285699999999224,"midi":64,"time":127.285587,"velocity":0.3937007874015748},{"duration":0.14285699999999224,"midi":76,"time":127.285587,"velocity":0.3937007874015748},{"duration":0.14285699999999224,"midi":76,"time":127.285587,"velocity":0.3937007874015748},{"duration":0.14285700000002066,"midi":74,"time":127.428444,"velocity":0.3937007874015748},{"duration":0.14285700000002066,"midi":74,"time":127.428444,"velocity":0.3937007874015748},{"duration":0.14285700000002066,"midi":62,"time":127.428444,"velocity":0.3937007874015748},{"duration":0.14285700000002066,"midi":62,"time":127.428444,"velocity":0.3937007874015748},{"duration":0.14285699999999224,"midi":76,"time":127.57130100000002,"velocity":0.3937007874015748},{"duration":0.14285699999999224,"midi":76,"time":127.57130100000002,"velocity":0.3937007874015748},{"duration":0.14285699999999224,"midi":64,"time":127.57130100000002,"velocity":0.3937007874015748},{"duration":0.14285699999999224,"midi":64,"time":127.57130100000002,"velocity":0.3937007874015748},{"duration":0.14285699999999224,"midi":65,"time":127.71415800000001,"velocity":0.3937007874015748},{"duration":0.14285699999999224,"midi":65,"time":127.71415800000001,"velocity":0.3937007874015748},{"duration":0.14285699999999224,"midi":77,"time":127.71415800000001,"velocity":0.3937007874015748},{"duration":0.14285699999999224,"midi":77,"time":127.71415800000001,"velocity":0.3937007874015748},{"duration":0.14285700000002066,"midi":64,"time":127.857015,"velocity":0.3937007874015748},{"duration":0.14285700000002066,"midi":76,"time":127.857015,"velocity":0.3937007874015748},{"duration":0.14285700000002066,"midi":64,"time":127.857015,"velocity":0.3937007874015748},{"duration":0.14285700000002066,"midi":76,"time":127.857015,"velocity":0.3937007874015748},{"duration":0.14285699999997803,"midi":77,"time":127.99987200000002,"velocity":0.3937007874015748},{"duration":0.14285699999997803,"midi":65,"time":127.99987200000002,"velocity":0.3937007874015748},{"duration":0.14285699999997803,"midi":65,"time":127.99987200000002,"velocity":0.3937007874015748},{"duration":0.14285699999997803,"midi":77,"time":127.99987200000002,"velocity":0.3937007874015748},{"duration":0.14285699999999224,"midi":67,"time":128.142729,"velocity":0.3937007874015748},{"duration":0.14285699999999224,"midi":79,"time":128.142729,"velocity":0.3937007874015748},{"duration":0.14285699999999224,"midi":79,"time":128.142729,"velocity":0.3937007874015748},{"duration":0.14285699999999224,"midi":67,"time":128.142729,"velocity":0.3937007874015748},{"duration":0.14285700000002066,"midi":77,"time":128.285586,"velocity":0.3937007874015748},{"duration":0.14285700000002066,"midi":65,"time":128.285586,"velocity":0.3937007874015748},{"duration":0.14285700000002066,"midi":77,"time":128.285586,"velocity":0.3937007874015748},{"duration":0.14285700000002066,"midi":65,"time":128.285586,"velocity":0.3937007874015748},{"duration":0.14285699999999224,"midi":79,"time":128.42844300000002,"velocity":0.3937007874015748},{"duration":0.14285699999999224,"midi":79,"time":128.42844300000002,"velocity":0.3937007874015748},{"duration":0.14285699999999224,"midi":67,"time":128.42844300000002,"velocity":0.3937007874015748},{"duration":0.14285699999999224,"midi":67,"time":128.42844300000002,"velocity":0.3937007874015748},{"duration":0.14285699999999224,"midi":81,"time":128.5713,"velocity":0.3937007874015748},{"duration":0.14285699999999224,"midi":69,"time":128.5713,"velocity":0.3937007874015748},{"duration":0.14285699999999224,"midi":81,"time":128.5713,"velocity":0.3937007874015748},{"duration":0.14285699999999224,"midi":69,"time":128.5713,"velocity":0.3937007874015748},{"duration":0.14285699999999224,"midi":81,"time":128.85701400000002,"velocity":0.3937007874015748},{"duration":0.14285699999999224,"midi":81,"time":128.85701400000002,"velocity":0.3937007874015748},{"duration":0.14285699999999224,"midi":69,"time":128.85701400000002,"velocity":0.3937007874015748},{"duration":0.14285699999999224,"midi":69,"time":128.85701400000002,"velocity":0.3937007874015748},{"duration":0.14285699999999224,"midi":81,"time":128.999871,"velocity":0.3937007874015748},{"duration":0.14285699999999224,"midi":69,"time":128.999871,"velocity":0.3937007874015748},{"duration":0.14285699999999224,"midi":69,"time":128.999871,"velocity":0.3937007874015748},{"duration":0.14285699999999224,"midi":81,"time":128.999871,"velocity":0.3937007874015748},{"duration":0.14285700000002066,"midi":69,"time":129.142728,"velocity":0.3937007874015748},{"duration":0.14285700000002066,"midi":81,"time":129.142728,"velocity":0.3937007874015748},{"duration":0.14285700000002066,"midi":81,"time":129.142728,"velocity":0.3937007874015748},{"duration":0.14285700000002066,"midi":69,"time":129.142728,"velocity":0.3937007874015748},{"duration":0.14285699999999224,"midi":81,"time":129.42844200000002,"velocity":0.3937007874015748},{"duration":0.14285699999999224,"midi":69,"time":129.42844200000002,"velocity":0.3937007874015748},{"duration":0.14285699999999224,"midi":81,"time":129.42844200000002,"velocity":0.3937007874015748},{"duration":0.14285699999999224,"midi":69,"time":129.42844200000002,"velocity":0.3937007874015748},{"duration":0.14285699999999224,"midi":81,"time":129.71415600000003,"velocity":0.3937007874015748},{"duration":0.14285699999999224,"midi":69,"time":129.71415600000003,"velocity":0.3937007874015748},{"duration":0.14285699999999224,"midi":81,"time":129.71415600000003,"velocity":0.3937007874015748},{"duration":0.14285699999999224,"midi":69,"time":129.71415600000003,"velocity":0.3937007874015748},{"duration":0.14285699999999224,"midi":82,"time":129.99987000000002,"velocity":0.3937007874015748},{"duration":0.14285699999999224,"midi":70,"time":129.99987000000002,"velocity":0.3937007874015748},{"duration":0.14285699999999224,"midi":70,"time":129.99987000000002,"velocity":0.3937007874015748},{"duration":0.14285699999999224,"midi":82,"time":129.99987000000002,"velocity":0.3937007874015748},{"duration":0.14285699999999224,"midi":81,"time":130.285584,"velocity":0.3937007874015748},{"duration":0.14285699999999224,"midi":69,"time":130.285584,"velocity":0.3937007874015748},{"duration":0.14285699999999224,"midi":81,"time":130.285584,"velocity":0.3937007874015748},{"duration":0.14285699999999224,"midi":69,"time":130.285584,"velocity":0.3937007874015748},{"duration":0.14285699999999224,"midi":69,"time":130.571298,"velocity":0.3937007874015748},{"duration":0.14285699999999224,"midi":81,"time":130.571298,"velocity":0.3937007874015748},{"duration":0.14285699999999224,"midi":81,"time":130.571298,"velocity":0.3937007874015748},{"duration":0.14285699999999224,"midi":69,"time":130.571298,"velocity":0.3937007874015748},{"duration":0.14285699999999224,"midi":81,"time":130.714155,"velocity":0.3937007874015748},{"duration":0.14285699999999224,"midi":69,"time":130.714155,"velocity":0.3937007874015748},{"duration":0.14285699999999224,"midi":69,"time":130.714155,"velocity":0.3937007874015748},{"duration":0.14285699999999224,"midi":81,"time":130.714155,"velocity":0.3937007874015748},{"duration":0.14285700000002066,"midi":81,"time":130.857012,"velocity":0.3937007874015748},{"duration":0.14285700000002066,"midi":69,"time":130.857012,"velocity":0.3937007874015748},{"duration":0.14285700000002066,"midi":81,"time":130.857012,"velocity":0.3937007874015748},{"duration":0.14285700000002066,"midi":69,"time":130.857012,"velocity":0.3937007874015748},{"duration":0.14285699999999224,"midi":69,"time":131.142726,"velocity":0.3937007874015748},{"duration":0.14285699999999224,"midi":81,"time":131.142726,"velocity":0.3937007874015748},{"duration":0.14285699999999224,"midi":69,"time":131.142726,"velocity":0.3937007874015748},{"duration":0.14285699999999224,"midi":81,"time":131.142726,"velocity":0.3937007874015748},{"duration":0.14285699999999224,"midi":69,"time":131.42844000000002,"velocity":0.3937007874015748},{"duration":0.14285699999999224,"midi":81,"time":131.42844000000002,"velocity":0.3937007874015748},{"duration":0.14285699999999224,"midi":81,"time":131.42844000000002,"velocity":0.3937007874015748},{"duration":0.14285699999999224,"midi":69,"time":131.42844000000002,"velocity":0.3937007874015748},{"duration":0.14285700000002066,"midi":84,"time":131.714154,"velocity":0.3937007874015748},{"duration":0.14285700000002066,"midi":72,"time":131.714154,"velocity":0.3937007874015748},{"duration":0.14285700000002066,"midi":72,"time":131.714154,"velocity":0.3937007874015748},{"duration":0.14285700000002066,"midi":84,"time":131.714154,"velocity":0.3937007874015748},{"duration":0.8571419999999819,"midi":81,"time":131.99986800000002,"velocity":0.3937007874015748},{"duration":0.8571419999999819,"midi":74,"time":131.99986800000002,"velocity":0.3937007874015748},{"duration":0.8571419999999819,"midi":81,"time":131.99986800000002,"velocity":0.3937007874015748},{"duration":0.8571419999999819,"midi":77,"time":131.99986800000002,"velocity":0.3937007874015748},{"duration":0.8571419999999819,"midi":74,"time":131.99986800000002,"velocity":0.3937007874015748},{"duration":0.8571419999999819,"midi":77,"time":131.99986800000002,"velocity":0.3937007874015748},{"duration":0.8571420000000103,"midi":82,"time":132.85701,"velocity":0.3937007874015748},{"duration":0.8571420000000103,"midi":77,"time":132.85701,"velocity":0.3937007874015748},{"duration":0.8571420000000103,"midi":77,"time":132.85701,"velocity":0.3937007874015748},{"duration":0.8571420000000103,"midi":74,"time":132.85701,"velocity":0.3937007874015748},{"duration":0.8571420000000103,"midi":82,"time":132.85701,"velocity":0.3937007874015748},{"duration":0.8571420000000103,"midi":74,"time":132.85701,"velocity":0.3937007874015748},{"duration":0.2857140000000129,"midi":81,"time":133.714152,"velocity":0.3937007874015748},{"duration":0.2857140000000129,"midi":72,"time":133.714152,"velocity":0.3937007874015748},{"duration":0.2857140000000129,"midi":72,"time":133.714152,"velocity":0.3937007874015748},{"duration":0.2857140000000129,"midi":77,"time":133.714152,"velocity":0.3937007874015748},{"duration":0.2857140000000129,"midi":81,"time":133.714152,"velocity":0.3937007874015748},{"duration":0.2857140000000129,"midi":77,"time":133.714152,"velocity":0.3937007874015748},{"duration":0.2857139999999845,"midi":81,"time":133.99986600000003,"velocity":0.3937007874015748},{"duration":0.2857139999999845,"midi":72,"time":133.99986600000003,"velocity":0.3937007874015748},{"duration":0.2857139999999845,"midi":81,"time":133.99986600000003,"velocity":0.3937007874015748},{"duration":0.2857139999999845,"midi":77,"time":133.99986600000003,"velocity":0.3937007874015748},{"duration":0.2857139999999845,"midi":77,"time":133.99986600000003,"velocity":0.3937007874015748},{"duration":0.2857139999999845,"midi":72,"time":133.99986600000003,"velocity":0.3937007874015748},{"duration":0.2857140000000129,"midi":77,"time":134.28558,"velocity":0.3937007874015748},{"duration":0.2857140000000129,"midi":81,"time":134.28558,"velocity":0.3937007874015748},{"duration":0.2857140000000129,"midi":77,"time":134.28558,"velocity":0.3937007874015748},{"duration":0.2857140000000129,"midi":72,"time":134.28558,"velocity":0.3937007874015748},{"duration":0.2857140000000129,"midi":72,"time":134.28558,"velocity":0.3937007874015748},{"duration":0.2857140000000129,"midi":81,"time":134.28558,"velocity":0.3937007874015748},{"duration":0.14285699999999224,"midi":77,"time":134.57129400000002,"velocity":0.3937007874015748},{"duration":0.14285699999999224,"midi":77,"time":134.57129400000002,"velocity":0.3937007874015748},{"duration":0.14285699999999224,"midi":72,"time":134.57129400000002,"velocity":0.3937007874015748},{"duration":0.14285699999999224,"midi":72,"time":134.57129400000002,"velocity":0.3937007874015748},{"duration":0.14285699999999224,"midi":81,"time":134.57129400000002,"velocity":0.3937007874015748},{"duration":0.14285699999999224,"midi":81,"time":134.57129400000002,"velocity":0.3937007874015748},{"duration":0.2857139999999845,"midi":79,"time":134.71415100000002,"velocity":0.3937007874015748},{"duration":0.2857139999999845,"midi":72,"time":134.71415100000002,"velocity":0.3937007874015748},{"duration":0.2857139999999845,"midi":79,"time":134.71415100000002,"velocity":0.3937007874015748},{"duration":0.2857139999999845,"midi":72,"time":134.71415100000002,"velocity":0.3937007874015748},{"duration":0.2857139999999845,"midi":76,"time":134.71415100000002,"velocity":0.3937007874015748},{"duration":0.2857139999999845,"midi":76,"time":134.71415100000002,"velocity":0.3937007874015748},{"duration":0.8571420000000103,"midi":79,"time":135.428436,"velocity":0.3937007874015748},{"duration":0.8571420000000103,"midi":74,"time":135.428436,"velocity":0.3937007874015748},{"duration":0.8571420000000103,"midi":70,"time":135.428436,"velocity":0.3937007874015748},{"duration":0.8571420000000103,"midi":70,"time":135.428436,"velocity":0.3937007874015748},{"duration":0.8571420000000103,"midi":74,"time":135.428436,"velocity":0.3937007874015748},{"duration":0.8571420000000103,"midi":79,"time":135.428436,"velocity":0.3937007874015748},{"duration":0.8571419999999819,"midi":74,"time":136.28557800000002,"velocity":0.3937007874015748},{"duration":0.8571419999999819,"midi":69,"time":136.28557800000002,"velocity":0.3937007874015748},{"duration":0.8571419999999819,"midi":77,"time":136.28557800000002,"velocity":0.3937007874015748},{"duration":0.8571419999999819,"midi":77,"time":136.28557800000002,"velocity":0.3937007874015748},{"duration":0.8571419999999819,"midi":74,"time":136.28557800000002,"velocity":0.3937007874015748},{"duration":0.8571419999999819,"midi":69,"time":136.28557800000002,"velocity":0.3937007874015748},{"duration":0.2857140000000129,"midi":73,"time":137.14272,"velocity":0.3937007874015748},{"duration":0.2857140000000129,"midi":76,"time":137.14272,"velocity":0.3937007874015748},{"duration":0.2857140000000129,"midi":76,"time":137.14272,"velocity":0.3937007874015748},{"duration":0.2857140000000129,"midi":73,"time":137.14272,"velocity":0.3937007874015748},{"duration":0.2857140000000129,"midi":69,"time":137.14272,"velocity":0.3937007874015748},{"duration":0.2857140000000129,"midi":69,"time":137.14272,"velocity":0.3937007874015748},{"duration":0.2857139999999845,"midi":69,"time":137.428434,"velocity":0.3937007874015748},{"duration":0.2857139999999845,"midi":73,"time":137.428434,"velocity":0.3937007874015748},{"duration":0.2857139999999845,"midi":77,"time":137.428434,"velocity":0.3937007874015748},{"duration":0.2857139999999845,"midi":77,"time":137.428434,"velocity":0.3937007874015748},{"duration":0.2857139999999845,"midi":73,"time":137.428434,"velocity":0.3937007874015748},{"duration":0.2857139999999845,"midi":69,"time":137.428434,"velocity":0.3937007874015748},{"duration":0.2857140000000129,"midi":69,"time":137.714148,"velocity":0.3937007874015748},{"duration":0.2857140000000129,"midi":73,"time":137.714148,"velocity":0.3937007874015748},{"duration":0.2857140000000129,"midi":76,"time":137.714148,"velocity":0.3937007874015748},{"duration":0.2857140000000129,"midi":76,"time":137.714148,"velocity":0.3937007874015748},{"duration":0.2857140000000129,"midi":69,"time":137.714148,"velocity":0.3937007874015748},{"duration":0.2857140000000129,"midi":73,"time":137.714148,"velocity":0.3937007874015748},{"duration":0.42857100000000514,"midi":69,"time":137.999862,"velocity":0.3937007874015748},{"duration":0.14285699999999224,"midi":76,"time":137.999862,"velocity":0.3937007874015748},{"duration":0.42857100000000514,"midi":69,"time":137.999862,"velocity":0.3937007874015748},{"duration":0.14285699999999224,"midi":76,"time":137.999862,"velocity":0.3937007874015748},{"duration":0.2857140000000129,"midi":74,"time":138.142719,"velocity":0.3937007874015748},{"duration":0.2857140000000129,"midi":74,"time":138.142719,"velocity":0.3937007874015748},{"duration":0.14285699999999224,"midi":62,"time":138.428433,"velocity":0.3937007874015748},{"duration":0.14285699999999224,"midi":74,"time":138.428433,"velocity":0.3937007874015748},{"duration":0.14285699999999224,"midi":74,"time":138.428433,"velocity":0.3937007874015748},{"duration":0.14285699999999224,"midi":62,"time":138.428433,"velocity":0.3937007874015748},{"duration":0.14285700000002066,"midi":76,"time":138.57129,"velocity":0.3937007874015748},{"duration":0.14285700000002066,"midi":64,"time":138.57129,"velocity":0.3937007874015748},{"duration":0.14285700000002066,"midi":64,"time":138.57129,"velocity":0.3937007874015748},{"duration":0.14285700000002066,"midi":76,"time":138.57129,"velocity":0.3937007874015748},{"duration":0.14285699999999224,"midi":65,"time":138.71414700000003,"velocity":0.3937007874015748},{"duration":0.14285699999999224,"midi":77,"time":138.71414700000003,"velocity":0.3937007874015748},{"duration":0.14285699999999224,"midi":77,"time":138.71414700000003,"velocity":0.3937007874015748},{"duration":0.14285699999999224,"midi":65,"time":138.71414700000003,"velocity":0.3937007874015748},{"duration":0.42857100000000514,"midi":74,"time":138.85700400000002,"velocity":0.3937007874015748},{"duration":0.42857100000000514,"midi":69,"time":138.85700400000002,"velocity":0.3937007874015748},{"duration":0.42857100000000514,"midi":77,"time":138.85700400000002,"velocity":0.3937007874015748},{"duration":0.42857100000000514,"midi":77,"time":138.85700400000002,"velocity":0.3937007874015748},{"duration":0.42857100000000514,"midi":74,"time":138.85700400000002,"velocity":0.3937007874015748},{"duration":0.42857100000000514,"midi":81,"time":138.85700400000002,"velocity":0.3937007874015748},{"duration":0.42857100000000514,"midi":69,"time":138.85700400000002,"velocity":0.3937007874015748},{"duration":0.42857100000000514,"midi":81,"time":138.85700400000002,"velocity":0.3937007874015748},{"duration":0.14285699999999224,"midi":62,"time":139.28557500000002,"velocity":0.3937007874015748},{"duration":0.14285699999999224,"midi":74,"time":139.28557500000002,"velocity":0.3937007874015748},{"duration":0.14285699999999224,"midi":74,"time":139.28557500000002,"velocity":0.3937007874015748},{"duration":0.14285699999999224,"midi":62,"time":139.28557500000002,"velocity":0.3937007874015748},{"duration":0.14285699999999224,"midi":64,"time":139.42843200000002,"velocity":0.3937007874015748},{"duration":0.14285699999999224,"midi":64,"time":139.42843200000002,"velocity":0.3937007874015748},{"duration":0.14285699999999224,"midi":76,"time":139.42843200000002,"velocity":0.3937007874015748},{"duration":0.14285699999999224,"midi":76,"time":139.42843200000002,"velocity":0.3937007874015748},{"duration":0.14285699999999224,"midi":65,"time":139.571289,"velocity":0.3937007874015748},{"duration":0.14285699999999224,"midi":77,"time":139.571289,"velocity":0.3937007874015748},{"duration":0.14285699999999224,"midi":65,"time":139.571289,"velocity":0.3937007874015748},{"duration":0.14285699999999224,"midi":77,"time":139.571289,"velocity":0.3937007874015748},{"duration":0.42857100000000514,"midi":74,"time":139.714146,"velocity":0.3937007874015748},{"duration":0.42857100000000514,"midi":77,"time":139.714146,"velocity":0.3937007874015748},{"duration":0.42857100000000514,"midi":74,"time":139.714146,"velocity":0.3937007874015748},{"duration":0.42857100000000514,"midi":82,"time":139.714146,"velocity":0.3937007874015748},{"duration":0.42857100000000514,"midi":70,"time":139.714146,"velocity":0.3937007874015748},{"duration":0.42857100000000514,"midi":70,"time":139.714146,"velocity":0.3937007874015748},{"duration":0.42857100000000514,"midi":77,"time":139.714146,"velocity":0.3937007874015748},{"duration":0.42857100000000514,"midi":82,"time":139.714146,"velocity":0.3937007874015748},{"duration":0.14285699999999224,"midi":74,"time":140.142717,"velocity":0.3937007874015748},{"duration":0.14285699999999224,"midi":62,"time":140.142717,"velocity":0.3937007874015748},{"duration":0.14285699999999224,"midi":74,"time":140.142717,"velocity":0.3937007874015748},{"duration":0.14285699999999224,"midi":62,"time":140.142717,"velocity":0.3937007874015748},{"duration":0.14285700000002066,"midi":76,"time":140.285574,"velocity":0.3937007874015748},{"duration":0.14285700000002066,"midi":76,"time":140.285574,"velocity":0.3937007874015748},{"duration":0.14285700000002066,"midi":64,"time":140.285574,"velocity":0.3937007874015748},{"duration":0.14285700000002066,"midi":64,"time":140.285574,"velocity":0.3937007874015748},{"duration":0.14285699999999224,"midi":65,"time":140.42843100000002,"velocity":0.3937007874015748},{"duration":0.14285699999999224,"midi":77,"time":140.42843100000002,"velocity":0.3937007874015748},{"duration":0.14285699999999224,"midi":65,"time":140.42843100000002,"velocity":0.3937007874015748},{"duration":0.14285699999999224,"midi":77,"time":140.42843100000002,"velocity":0.3937007874015748},{"duration":0.2857140000000129,"midi":77,"time":140.571288,"velocity":0.3937007874015748},{"duration":0.2857140000000129,"midi":69,"time":140.571288,"velocity":0.3937007874015748},{"duration":0.2857140000000129,"midi":72,"time":140.571288,"velocity":0.3937007874015748},{"duration":0.2857140000000129,"midi":77,"time":140.571288,"velocity":0.3937007874015748},{"duration":0.2857140000000129,"midi":72,"time":140.571288,"velocity":0.3937007874015748},{"duration":0.2857140000000129,"midi":81,"time":140.571288,"velocity":0.3937007874015748},{"duration":0.2857140000000129,"midi":69,"time":140.571288,"velocity":0.3937007874015748},{"duration":0.2857140000000129,"midi":81,"time":140.571288,"velocity":0.3937007874015748},{"duration":0.2857139999999845,"midi":72,"time":140.85700200000002,"velocity":0.3937007874015748},{"duration":0.2857139999999845,"midi":81,"time":140.85700200000002,"velocity":0.3937007874015748},{"duration":0.2857139999999845,"midi":72,"time":140.85700200000002,"velocity":0.3937007874015748},{"duration":0.2857139999999845,"midi":77,"time":140.85700200000002,"velocity":0.3937007874015748},{"duration":0.2857139999999845,"midi":81,"time":140.85700200000002,"velocity":0.3937007874015748},{"duration":0.2857139999999845,"midi":69,"time":140.85700200000002,"velocity":0.3937007874015748},{"duration":0.2857139999999845,"midi":69,"time":140.85700200000002,"velocity":0.3937007874015748},{"duration":0.2857139999999845,"midi":77,"time":140.85700200000002,"velocity":0.3937007874015748},{"duration":0.2857140000000129,"midi":84,"time":141.142716,"velocity":0.3937007874015748},{"duration":0.2857140000000129,"midi":81,"time":141.142716,"velocity":0.3937007874015748},{"duration":0.2857140000000129,"midi":77,"time":141.142716,"velocity":0.3937007874015748},{"duration":0.2857140000000129,"midi":72,"time":141.142716,"velocity":0.3937007874015748},{"duration":0.2857140000000129,"midi":84,"time":141.142716,"velocity":0.3937007874015748},{"duration":0.2857140000000129,"midi":81,"time":141.142716,"velocity":0.3937007874015748},{"duration":0.2857140000000129,"midi":77,"time":141.142716,"velocity":0.3937007874015748},{"duration":0.2857140000000129,"midi":72,"time":141.142716,"velocity":0.3937007874015748},{"duration":0.14285699999999224,"midi":81,"time":141.42843000000002,"velocity":0.3937007874015748},{"duration":0.14285699999999224,"midi":77,"time":141.42843000000002,"velocity":0.3937007874015748},{"duration":0.14285699999999224,"midi":69,"time":141.42843000000002,"velocity":0.3937007874015748},{"duration":0.14285699999999224,"midi":72,"time":141.42843000000002,"velocity":0.3937007874015748},{"duration":0.14285699999999224,"midi":69,"time":141.42843000000002,"velocity":0.3937007874015748},{"duration":0.14285699999999224,"midi":81,"time":141.42843000000002,"velocity":0.3937007874015748},{"duration":0.14285699999999224,"midi":72,"time":141.42843000000002,"velocity":0.3937007874015748},{"duration":0.14285699999999224,"midi":77,"time":141.42843000000002,"velocity":0.3937007874015748},{"duration":0.14285700000002066,"midi":79,"time":141.571287,"velocity":0.3937007874015748},{"duration":0.14285700000002066,"midi":67,"time":141.571287,"velocity":0.3937007874015748},{"duration":0.14285700000002066,"midi":79,"time":141.571287,"velocity":0.3937007874015748},{"duration":0.14285700000002066,"midi":67,"time":141.571287,"velocity":0.3937007874015748},{"duration":0.8571420000000103,"midi":70,"time":142.285572,"velocity":0.3937007874015748},{"duration":0.8571420000000103,"midi":70,"time":142.285572,"velocity":0.3937007874015748},{"duration":0.8571420000000103,"midi":67,"time":142.285572,"velocity":0.3937007874015748},{"duration":0.8571420000000103,"midi":74,"time":142.285572,"velocity":0.3937007874015748},{"duration":0.8571420000000103,"midi":74,"time":142.285572,"velocity":0.3937007874015748},{"duration":0.8571420000000103,"midi":79,"time":142.285572,"velocity":0.3937007874015748},{"duration":0.8571420000000103,"midi":67,"time":142.285572,"velocity":0.3937007874015748},{"duration":0.8571420000000103,"midi":79,"time":142.285572,"velocity":0.3937007874015748},{"duration":0.8571420000000103,"midi":69,"time":143.142714,"velocity":0.3937007874015748},{"duration":0.8571420000000103,"midi":74,"time":143.142714,"velocity":0.3937007874015748},{"duration":0.8571420000000103,"midi":69,"time":143.142714,"velocity":0.3937007874015748},{"duration":0.8571420000000103,"midi":77,"time":143.142714,"velocity":0.3937007874015748},{"duration":0.8571420000000103,"midi":65,"time":143.142714,"velocity":0.3937007874015748},{"duration":0.8571420000000103,"midi":77,"time":143.142714,"velocity":0.3937007874015748},{"duration":0.8571420000000103,"midi":65,"time":143.142714,"velocity":0.3937007874015748},{"duration":0.8571420000000103,"midi":74,"time":143.142714,"velocity":0.3937007874015748},{"duration":0.2857139999999845,"midi":73,"time":143.99985600000002,"velocity":0.3937007874015748},{"duration":0.2857139999999845,"midi":76,"time":143.99985600000002,"velocity":0.3937007874015748},{"duration":0.2857139999999845,"midi":64,"time":143.99985600000002,"velocity":0.3937007874015748},{"duration":0.2857139999999845,"midi":69,"time":143.99985600000002,"velocity":0.3937007874015748},{"duration":0.2857139999999845,"midi":69,"time":143.99985600000002,"velocity":0.3937007874015748},{"duration":0.2857139999999845,"midi":76,"time":143.99985600000002,"velocity":0.3937007874015748},{"duration":0.2857139999999845,"midi":64,"time":143.99985600000002,"velocity":0.3937007874015748},{"duration":0.2857139999999845,"midi":73,"time":143.99985600000002,"velocity":0.3937007874015748},{"duration":0.2857139999999845,"midi":65,"time":144.28557,"velocity":0.3937007874015748},{"duration":0.2857139999999845,"midi":69,"time":144.28557,"velocity":0.3937007874015748},{"duration":0.2857139999999845,"midi":65,"time":144.28557,"velocity":0.3937007874015748},{"duration":0.2857139999999845,"midi":77,"time":144.28557,"velocity":0.3937007874015748},{"duration":0.2857139999999845,"midi":73,"time":144.28557,"velocity":0.3937007874015748},{"duration":0.2857139999999845,"midi":69,"time":144.28557,"velocity":0.3937007874015748},{"duration":0.2857139999999845,"midi":77,"time":144.28557,"velocity":0.3937007874015748},{"duration":0.2857139999999845,"midi":73,"time":144.28557,"velocity":0.3937007874015748},{"duration":0.2857140000000129,"midi":64,"time":144.571284,"velocity":0.3937007874015748},{"duration":0.2857140000000129,"midi":76,"time":144.571284,"velocity":0.3937007874015748},{"duration":0.2857140000000129,"midi":73,"time":144.571284,"velocity":0.3937007874015748},{"duration":0.2857140000000129,"midi":76,"time":144.571284,"velocity":0.3937007874015748},{"duration":0.2857140000000129,"midi":69,"time":144.571284,"velocity":0.3937007874015748},{"duration":0.2857140000000129,"midi":73,"time":144.571284,"velocity":0.3937007874015748},{"duration":0.2857140000000129,"midi":69,"time":144.571284,"velocity":0.3937007874015748},{"duration":0.2857140000000129,"midi":64,"time":144.571284,"velocity":0.3937007874015748},{"duration":0.42857100000000514,"midi":69,"time":144.856998,"velocity":0.3937007874015748},{"duration":0.42857100000000514,"midi":74,"time":144.856998,"velocity":0.3937007874015748},{"duration":0.42857100000000514,"midi":69,"time":144.856998,"velocity":0.3937007874015748},{"duration":0.42857100000000514,"midi":74,"time":144.856998,"velocity":0.3937007874015748},{"duration":0.42857100000000514,"midi":62,"time":144.856998,"velocity":0.3937007874015748},{"duration":0.42857100000000514,"midi":65,"time":144.856998,"velocity":0.3937007874015748},{"duration":0.42857100000000514,"midi":65,"time":144.856998,"velocity":0.3937007874015748},{"duration":0.42857100000000514,"midi":62,"time":144.856998,"velocity":0.3937007874015748},{"duration":1.7142839999999921,"midi":62,"time":145.71414000000001,"velocity":0.3937007874015748},{"duration":1.7142839999999921,"midi":62,"time":145.71414000000001,"velocity":0.3937007874015748}]},{"instrument":{"family":"strings","number":42,"name":"cello"},"notes":[{"duration":0.142857,"midi":50,"time":0,"velocity":0.3937007874015748},{"duration":0.142857,"midi":50,"time":0,"velocity":0.3937007874015748},{"duration":0.142857,"midi":50,"time":0.285714,"velocity":0.3937007874015748},{"duration":0.142857,"midi":50,"time":0.285714,"velocity":0.3937007874015748},{"duration":0.142857,"midi":50,"time":0.42857100000000004,"velocity":0.3937007874015748},{"duration":0.142857,"midi":50,"time":0.42857100000000004,"velocity":0.3937007874015748},{"duration":0.142857,"midi":50,"time":0.7142850000000001,"velocity":0.3937007874015748},{"duration":0.142857,"midi":50,"time":0.7142850000000001,"velocity":0.3937007874015748},{"duration":0.14285700000000012,"midi":50,"time":0.8571420000000001,"velocity":0.3937007874015748},{"duration":0.14285700000000012,"midi":50,"time":0.8571420000000001,"velocity":0.3937007874015748},{"duration":0.142857,"midi":50,"time":1.142856,"velocity":0.3937007874015748},{"duration":0.142857,"midi":50,"time":1.142856,"velocity":0.3937007874015748},{"duration":0.142857,"midi":50,"time":1.285713,"velocity":0.3937007874015748},{"duration":0.142857,"midi":50,"time":1.285713,"velocity":0.3937007874015748},{"duration":0.142857,"midi":50,"time":1.4285700000000001,"velocity":0.3937007874015748},{"duration":0.142857,"midi":50,"time":1.4285700000000001,"velocity":0.3937007874015748},{"duration":0.142857,"midi":50,"time":1.5714270000000001,"velocity":0.3937007874015748},{"duration":0.142857,"midi":50,"time":1.5714270000000001,"velocity":0.3937007874015748},{"duration":0.1428569999999998,"midi":50,"time":1.7142840000000001,"velocity":0.3937007874015748},{"duration":0.1428569999999998,"midi":50,"time":1.7142840000000001,"velocity":0.3937007874015748},{"duration":0.14285699999999957,"midi":50,"time":1.9999980000000004,"velocity":0.3937007874015748},{"duration":0.14285699999999957,"midi":50,"time":1.9999980000000004,"velocity":0.3937007874015748},{"duration":0.14285700000000023,"midi":50,"time":2.142855,"velocity":0.3937007874015748},{"duration":0.14285700000000023,"midi":50,"time":2.142855,"velocity":0.3937007874015748},{"duration":0.1428569999999998,"midi":50,"time":2.4285690000000004,"velocity":0.3937007874015748},{"duration":0.1428569999999998,"midi":50,"time":2.4285690000000004,"velocity":0.3937007874015748},{"duration":0.1428569999999998,"midi":50,"time":2.571426,"velocity":0.3937007874015748},{"duration":0.1428569999999998,"midi":50,"time":2.571426,"velocity":0.3937007874015748},{"duration":0.14285700000000023,"midi":50,"time":2.8571400000000002,"velocity":0.3937007874015748},{"duration":0.14285700000000023,"midi":50,"time":2.8571400000000002,"velocity":0.3937007874015748},{"duration":0.1428569999999998,"midi":50,"time":2.9999970000000005,"velocity":0.3937007874015748},{"duration":0.1428569999999998,"midi":50,"time":2.9999970000000005,"velocity":0.3937007874015748},{"duration":0.14285700000000023,"midi":50,"time":3.1428540000000003,"velocity":0.3937007874015748},{"duration":0.14285700000000023,"midi":50,"time":3.1428540000000003,"velocity":0.3937007874015748},{"duration":0.1428569999999998,"midi":50,"time":3.2857110000000005,"velocity":0.3937007874015748},{"duration":0.1428569999999998,"midi":50,"time":3.2857110000000005,"velocity":0.3937007874015748},{"duration":0.14285700000000023,"midi":50,"time":3.4285680000000003,"velocity":0.3937007874015748},{"duration":0.14285700000000023,"midi":50,"time":3.4285680000000003,"velocity":0.3937007874015748},{"duration":0.14285700000000023,"midi":50,"time":3.714282,"velocity":0.3937007874015748},{"duration":0.14285700000000023,"midi":50,"time":3.714282,"velocity":0.3937007874015748},{"duration":0.14285700000000068,"midi":50,"time":3.857139,"velocity":0.3937007874015748},{"duration":0.14285700000000068,"midi":50,"time":3.857139,"velocity":0.3937007874015748},{"duration":0.14285700000000023,"midi":50,"time":4.142853,"velocity":0.3937007874015748},{"duration":0.14285700000000023,"midi":50,"time":4.142853,"velocity":0.3937007874015748},{"duration":0.14285700000000112,"midi":50,"time":4.28571,"velocity":0.3937007874015748},{"duration":0.14285700000000112,"midi":50,"time":4.28571,"velocity":0.3937007874015748},{"duration":0.14285700000000023,"midi":50,"time":4.571424,"velocity":0.3937007874015748},{"duration":0.14285700000000023,"midi":50,"time":4.571424,"velocity":0.3937007874015748},{"duration":0.14285700000000023,"midi":50,"time":4.714281000000001,"velocity":0.3937007874015748},{"duration":0.14285700000000023,"midi":50,"time":4.714281000000001,"velocity":0.3937007874015748},{"duration":0.14285699999999935,"midi":45,"time":4.857138000000001,"velocity":0.3937007874015748},{"duration":0.14285699999999935,"midi":45,"time":4.857138000000001,"velocity":0.3937007874015748},{"duration":0.14285700000000023,"midi":48,"time":4.999995,"velocity":0.3937007874015748},{"duration":0.14285700000000023,"midi":48,"time":4.999995,"velocity":0.3937007874015748},{"duration":0.14285700000000023,"midi":45,"time":5.142852,"velocity":0.3937007874015748},{"duration":0.14285700000000023,"midi":50,"time":5.142852,"velocity":0.3937007874015748},{"duration":0.14285700000000023,"midi":50,"time":5.142852,"velocity":0.3937007874015748},{"duration":0.14285700000000023,"midi":41,"time":5.142852,"velocity":0.3937007874015748},{"duration":0.14285700000000023,"midi":45,"time":5.142852,"velocity":0.3937007874015748},{"duration":0.14285700000000023,"midi":41,"time":5.142852,"velocity":0.3937007874015748},{"duration":0.14285700000000023,"midi":50,"time":5.428566,"velocity":0.3937007874015748},{"duration":0.14285700000000023,"midi":45,"time":5.428566,"velocity":0.3937007874015748},{"duration":0.14285700000000023,"midi":41,"time":5.428566,"velocity":0.3937007874015748},{"duration":0.14285700000000023,"midi":50,"time":5.428566,"velocity":0.3937007874015748},{"duration":0.14285700000000023,"midi":45,"time":5.428566,"velocity":0.3937007874015748},{"duration":0.14285700000000023,"midi":41,"time":5.428566,"velocity":0.3937007874015748},{"duration":0.14285699999999935,"midi":50,"time":5.7142800000000005,"velocity":0.3937007874015748},{"duration":0.14285699999999935,"midi":45,"time":5.7142800000000005,"velocity":0.3937007874015748},{"duration":0.14285699999999935,"midi":45,"time":5.7142800000000005,"velocity":0.3937007874015748},{"duration":0.14285699999999935,"midi":41,"time":5.7142800000000005,"velocity":0.3937007874015748},{"duration":0.14285699999999935,"midi":50,"time":5.7142800000000005,"velocity":0.3937007874015748},{"duration":0.14285699999999935,"midi":41,"time":5.7142800000000005,"velocity":0.3937007874015748},{"duration":0.14285700000000112,"midi":52,"time":5.857137,"velocity":0.3937007874015748},{"duration":0.14285700000000112,"midi":52,"time":5.857137,"velocity":0.3937007874015748},{"duration":0.14285700000000023,"midi":50,"time":5.999994000000001,"velocity":0.3937007874015748},{"duration":0.14285700000000023,"midi":46,"time":5.999994000000001,"velocity":0.3937007874015748},{"duration":0.14285700000000023,"midi":46,"time":5.999994000000001,"velocity":0.3937007874015748},{"duration":0.14285700000000023,"midi":53,"time":5.999994000000001,"velocity":0.3937007874015748},{"duration":0.14285700000000023,"midi":50,"time":5.999994000000001,"velocity":0.3937007874015748},{"duration":0.14285700000000023,"midi":53,"time":5.999994000000001,"velocity":0.3937007874015748},{"duration":0.14285700000000023,"midi":50,"time":6.2857080000000005,"velocity":0.3937007874015748},{"duration":0.14285700000000023,"midi":53,"time":6.2857080000000005,"velocity":0.3937007874015748},{"duration":0.14285700000000023,"midi":46,"time":6.2857080000000005,"velocity":0.3937007874015748},{"duration":0.14285700000000023,"midi":53,"time":6.2857080000000005,"velocity":0.3937007874015748},{"duration":0.14285700000000023,"midi":50,"time":6.2857080000000005,"velocity":0.3937007874015748},{"duration":0.14285700000000023,"midi":46,"time":6.2857080000000005,"velocity":0.3937007874015748},{"duration":0.14285699999999935,"midi":50,"time":6.571422000000001,"velocity":0.3937007874015748},{"duration":0.14285699999999935,"midi":53,"time":6.571422000000001,"velocity":0.3937007874015748},{"duration":0.14285699999999935,"midi":53,"time":6.571422000000001,"velocity":0.3937007874015748},{"duration":0.14285699999999935,"midi":46,"time":6.571422000000001,"velocity":0.3937007874015748},{"duration":0.14285699999999935,"midi":50,"time":6.571422000000001,"velocity":0.3937007874015748},{"duration":0.14285699999999935,"midi":46,"time":6.571422000000001,"velocity":0.3937007874015748},{"duration":0.14285700000000023,"midi":55,"time":6.714279,"velocity":0.3937007874015748},{"duration":0.14285700000000023,"midi":55,"time":6.714279,"velocity":0.3937007874015748},{"duration":0.14285699999999935,"midi":52,"time":6.857136000000001,"velocity":0.3937007874015748},{"duration":0.14285699999999935,"midi":45,"time":6.857136000000001,"velocity":0.3937007874015748},{"duration":0.14285699999999935,"midi":48,"time":6.857136000000001,"velocity":0.3937007874015748},{"duration":0.14285699999999935,"midi":45,"time":6.857136000000001,"velocity":0.3937007874015748},{"duration":0.14285699999999935,"midi":48,"time":6.857136000000001,"velocity":0.3937007874015748},{"duration":0.14285699999999935,"midi":52,"time":6.857136000000001,"velocity":0.3937007874015748},{"duration":0.14285699999999935,"midi":48,"time":7.142850000000001,"velocity":0.3937007874015748},{"duration":0.14285699999999935,"midi":52,"time":7.142850000000001,"velocity":0.3937007874015748},{"duration":0.14285699999999935,"midi":45,"time":7.142850000000001,"velocity":0.3937007874015748},{"duration":0.14285699999999935,"midi":48,"time":7.142850000000001,"velocity":0.3937007874015748},{"duration":0.14285699999999935,"midi":52,"time":7.142850000000001,"velocity":0.3937007874015748},{"duration":0.14285699999999935,"midi":45,"time":7.142850000000001,"velocity":0.3937007874015748},{"duration":0.14285700000000112,"midi":50,"time":7.428564,"velocity":0.3937007874015748},{"duration":0.14285700000000112,"midi":45,"time":7.428564,"velocity":0.3937007874015748},{"duration":0.14285700000000112,"midi":50,"time":7.428564,"velocity":0.3937007874015748},{"duration":0.14285700000000112,"midi":45,"time":7.428564,"velocity":0.3937007874015748},{"duration":0.14285699999999935,"midi":48,"time":7.571421000000001,"velocity":0.3937007874015748},{"duration":0.14285699999999935,"midi":48,"time":7.571421000000001,"velocity":0.3937007874015748},{"duration":0.14285700000000023,"midi":48,"time":7.714278,"velocity":0.3937007874015748},{"duration":0.14285700000000023,"midi":48,"time":7.714278,"velocity":0.3937007874015748},{"duration":0.14285700000000023,"midi":41,"time":7.714278,"velocity":0.3937007874015748},{"duration":0.14285700000000023,"midi":41,"time":7.714278,"velocity":0.3937007874015748},{"duration":0.4285709999999989,"midi":41,"time":7.857135,"velocity":0.3937007874015748},{"duration":0.4285709999999989,"midi":45,"time":7.857135,"velocity":0.3937007874015748},{"duration":0.4285709999999989,"midi":41,"time":7.857135,"velocity":0.3937007874015748},{"duration":0.4285709999999989,"midi":50,"time":7.857135,"velocity":0.3937007874015748},{"duration":0.4285709999999989,"midi":50,"time":7.857135,"velocity":0.3937007874015748},{"duration":0.4285709999999989,"midi":45,"time":7.857135,"velocity":0.3937007874015748},{"duration":0.14285700000000112,"midi":45,"time":8.285706,"velocity":0.3937007874015748},{"duration":0.14285700000000112,"midi":45,"time":8.285706,"velocity":0.3937007874015748},{"duration":0.14285699999999935,"midi":48,"time":8.428563,"velocity":0.3937007874015748},{"duration":0.14285699999999935,"midi":48,"time":8.428563,"velocity":0.3937007874015748},{"duration":0.14285700000000112,"midi":46,"time":8.57142,"velocity":0.3937007874015748},{"duration":0.14285700000000112,"midi":41,"time":8.57142,"velocity":0.3937007874015748},{"duration":0.14285700000000112,"midi":50,"time":8.57142,"velocity":0.3937007874015748},{"duration":0.14285700000000112,"midi":50,"time":8.57142,"velocity":0.3937007874015748},{"duration":0.14285700000000112,"midi":46,"time":8.57142,"velocity":0.3937007874015748},{"duration":0.14285700000000112,"midi":41,"time":8.57142,"velocity":0.3937007874015748},{"duration":0.14285699999999935,"midi":46,"time":8.857134000000002,"velocity":0.3937007874015748},{"duration":0.14285699999999935,"midi":41,"time":8.857134000000002,"velocity":0.3937007874015748},{"duration":0.14285699999999935,"midi":50,"time":8.857134000000002,"velocity":0.3937007874015748},{"duration":0.14285699999999935,"midi":46,"time":8.857134000000002,"velocity":0.3937007874015748},{"duration":0.14285699999999935,"midi":50,"time":8.857134000000002,"velocity":0.3937007874015748},{"duration":0.14285699999999935,"midi":41,"time":8.857134000000002,"velocity":0.3937007874015748},{"duration":0.14285700000000112,"midi":50,"time":9.142848,"velocity":0.3937007874015748},{"duration":0.14285700000000112,"midi":50,"time":9.142848,"velocity":0.3937007874015748},{"duration":0.14285700000000112,"midi":41,"time":9.142848,"velocity":0.3937007874015748},{"duration":0.14285700000000112,"midi":41,"time":9.142848,"velocity":0.3937007874015748},{"duration":0.14285700000000112,"midi":46,"time":9.142848,"velocity":0.3937007874015748},{"duration":0.14285700000000112,"midi":46,"time":9.142848,"velocity":0.3937007874015748},{"duration":0.14285699999999935,"midi":52,"time":9.285705000000002,"velocity":0.3937007874015748},{"duration":0.14285699999999935,"midi":52,"time":9.285705000000002,"velocity":0.3937007874015748},{"duration":0.14285699999999935,"midi":45,"time":9.428562000000001,"velocity":0.3937007874015748},{"duration":0.14285699999999935,"midi":48,"time":9.428562000000001,"velocity":0.3937007874015748},{"duration":0.14285699999999935,"midi":45,"time":9.428562000000001,"velocity":0.3937007874015748},{"duration":0.14285699999999935,"midi":48,"time":9.428562000000001,"velocity":0.3937007874015748},{"duration":0.14285699999999935,"midi":53,"time":9.428562000000001,"velocity":0.3937007874015748},{"duration":0.14285699999999935,"midi":53,"time":9.428562000000001,"velocity":0.3937007874015748},{"duration":0.14285699999999935,"midi":53,"time":9.714276000000002,"velocity":0.3937007874015748},{"duration":0.14285699999999935,"midi":45,"time":9.714276000000002,"velocity":0.3937007874015748},{"duration":0.14285699999999935,"midi":53,"time":9.714276000000002,"velocity":0.3937007874015748},{"duration":0.14285699999999935,"midi":45,"time":9.714276000000002,"velocity":0.3937007874015748},{"duration":0.14285699999999935,"midi":48,"time":9.714276000000002,"velocity":0.3937007874015748},{"duration":0.14285699999999935,"midi":48,"time":9.714276000000002,"velocity":0.3937007874015748},{"duration":0.14285700000000112,"midi":48,"time":9.99999,"velocity":0.3937007874015748},{"duration":0.14285700000000112,"midi":53,"time":9.99999,"velocity":0.3937007874015748},{"duration":0.14285700000000112,"midi":45,"time":9.99999,"velocity":0.3937007874015748},{"duration":0.14285700000000112,"midi":45,"time":9.99999,"velocity":0.3937007874015748},{"duration":0.14285700000000112,"midi":48,"time":9.99999,"velocity":0.3937007874015748},{"duration":0.14285700000000112,"midi":53,"time":9.99999,"velocity":0.3937007874015748},{"duration":0.14285699999999935,"midi":55,"time":10.142847000000002,"velocity":0.3937007874015748},{"duration":0.14285699999999935,"midi":55,"time":10.142847000000002,"velocity":0.3937007874015748},{"duration":0.14285699999999935,"midi":52,"time":10.285704,"velocity":0.3937007874015748},{"duration":0.14285699999999935,"midi":52,"time":10.285704,"velocity":0.3937007874015748},{"duration":0.14285699999999935,"midi":45,"time":10.285704,"velocity":0.3937007874015748},{"duration":0.14285699999999935,"midi":48,"time":10.285704,"velocity":0.3937007874015748},{"duration":0.14285699999999935,"midi":45,"time":10.285704,"velocity":0.3937007874015748},{"duration":0.14285699999999935,"midi":48,"time":10.285704,"velocity":0.3937007874015748},{"duration":0.14285699999999935,"midi":48,"time":10.571418000000001,"velocity":0.3937007874015748},{"duration":0.14285699999999935,"midi":45,"time":10.571418000000001,"velocity":0.3937007874015748},{"duration":0.14285699999999935,"midi":52,"time":10.571418000000001,"velocity":0.3937007874015748},{"duration":0.14285699999999935,"midi":52,"time":10.571418000000001,"velocity":0.3937007874015748},{"duration":0.14285699999999935,"midi":45,"time":10.571418000000001,"velocity":0.3937007874015748},{"duration":0.14285699999999935,"midi":48,"time":10.571418000000001,"velocity":0.3937007874015748},{"duration":0.14285700000000112,"midi":45,"time":10.857132,"velocity":0.3937007874015748},{"duration":0.14285700000000112,"midi":45,"time":10.857132,"velocity":0.3937007874015748},{"duration":0.14285700000000112,"midi":50,"time":10.857132,"velocity":0.3937007874015748},{"duration":0.14285700000000112,"midi":50,"time":10.857132,"velocity":0.3937007874015748},{"duration":0.14285699999999935,"midi":48,"time":10.999989000000001,"velocity":0.3937007874015748},{"duration":0.14285699999999935,"midi":48,"time":10.999989000000001,"velocity":0.3937007874015748},{"duration":0.4285709999999998,"midi":45,"time":11.142846,"velocity":0.3937007874015748},{"duration":0.4285709999999998,"midi":41,"time":11.142846,"velocity":0.3937007874015748},{"duration":0.4285709999999998,"midi":45,"time":11.142846,"velocity":0.3937007874015748},{"duration":0.4285709999999998,"midi":50,"time":11.142846,"velocity":0.3937007874015748},{"duration":0.4285709999999998,"midi":50,"time":11.142846,"velocity":0.3937007874015748},{"duration":0.4285709999999998,"midi":41,"time":11.142846,"velocity":0.3937007874015748},{"duration":0.14285700000000112,"midi":45,"time":11.714274,"velocity":0.3937007874015748},{"duration":0.14285700000000112,"midi":45,"time":11.714274,"velocity":0.3937007874015748},{"duration":0.14285700000000112,"midi":48,"time":11.857131,"velocity":0.3937007874015748},{"duration":0.14285700000000112,"midi":48,"time":11.857131,"velocity":0.3937007874015748},{"duration":0.14285699999999935,"midi":50,"time":11.999988000000002,"velocity":0.3937007874015748},{"duration":0.14285699999999935,"midi":41,"time":11.999988000000002,"velocity":0.3937007874015748},{"duration":0.14285699999999935,"midi":45,"time":11.999988000000002,"velocity":0.3937007874015748},{"duration":0.14285699999999935,"midi":50,"time":11.999988000000002,"velocity":0.3937007874015748},{"duration":0.14285699999999935,"midi":41,"time":11.999988000000002,"velocity":0.3937007874015748},{"duration":0.14285699999999935,"midi":45,"time":11.999988000000002,"velocity":0.3937007874015748},{"duration":0.14285699999999935,"midi":50,"time":12.285702000000002,"velocity":0.3937007874015748},{"duration":0.14285699999999935,"midi":45,"time":12.285702000000002,"velocity":0.3937007874015748},{"duration":0.14285699999999935,"midi":41,"time":12.285702000000002,"velocity":0.3937007874015748},{"duration":0.14285699999999935,"midi":50,"time":12.285702000000002,"velocity":0.3937007874015748},{"duration":0.14285699999999935,"midi":41,"time":12.285702000000002,"velocity":0.3937007874015748},{"duration":0.14285699999999935,"midi":45,"time":12.285702000000002,"velocity":0.3937007874015748},{"duration":0.14285700000000112,"midi":50,"time":12.571416000000001,"velocity":0.3937007874015748},{"duration":0.14285700000000112,"midi":41,"time":12.571416000000001,"velocity":0.3937007874015748},{"duration":0.14285700000000112,"midi":41,"time":12.571416000000001,"velocity":0.3937007874015748},{"duration":0.14285700000000112,"midi":50,"time":12.571416000000001,"velocity":0.3937007874015748},{"duration":0.14285699999999935,"midi":41,"time":12.714273000000002,"velocity":0.3937007874015748},{"duration":0.14285699999999935,"midi":53,"time":12.714273000000002,"velocity":0.3937007874015748},{"duration":0.14285699999999935,"midi":53,"time":12.714273000000002,"velocity":0.3937007874015748},{"duration":0.14285699999999935,"midi":41,"time":12.714273000000002,"velocity":0.3937007874015748},{"duration":0.14285699999999935,"midi":55,"time":12.857130000000002,"velocity":0.3937007874015748},{"duration":0.14285699999999935,"midi":50,"time":12.857130000000002,"velocity":0.3937007874015748},{"duration":0.14285699999999935,"midi":50,"time":12.857130000000002,"velocity":0.3937007874015748},{"duration":0.14285699999999935,"midi":46,"time":12.857130000000002,"velocity":0.3937007874015748},{"duration":0.14285699999999935,"midi":46,"time":12.857130000000002,"velocity":0.3937007874015748},{"duration":0.14285699999999935,"midi":55,"time":12.857130000000002,"velocity":0.3937007874015748},{"duration":0.14285699999999935,"midi":55,"time":13.142844000000002,"velocity":0.3937007874015748},{"duration":0.14285699999999935,"midi":46,"time":13.142844000000002,"velocity":0.3937007874015748},{"duration":0.14285699999999935,"midi":46,"time":13.142844000000002,"velocity":0.3937007874015748},{"duration":0.14285699999999935,"midi":55,"time":13.142844000000002,"velocity":0.3937007874015748},{"duration":0.14285699999999935,"midi":50,"time":13.142844000000002,"velocity":0.3937007874015748},{"duration":0.14285699999999935,"midi":50,"time":13.142844000000002,"velocity":0.3937007874015748},{"duration":0.14285700000000112,"midi":55,"time":13.428558,"velocity":0.3937007874015748},{"duration":0.14285700000000112,"midi":50,"time":13.428558,"velocity":0.3937007874015748},{"duration":0.14285700000000112,"midi":46,"time":13.428558,"velocity":0.3937007874015748},{"duration":0.14285700000000112,"midi":55,"time":13.428558,"velocity":0.3937007874015748},{"duration":0.14285700000000112,"midi":50,"time":13.428558,"velocity":0.3937007874015748},{"duration":0.14285700000000112,"midi":46,"time":13.428558,"velocity":0.3937007874015748},{"duration":0.14285699999999935,"midi":57,"time":13.571415000000002,"velocity":0.3937007874015748},{"duration":0.14285699999999935,"midi":57,"time":13.571415000000002,"velocity":0.3937007874015748},{"duration":0.14285700000000112,"midi":50,"time":13.714272000000001,"velocity":0.3937007874015748},{"duration":0.14285700000000112,"midi":58,"time":13.714272000000001,"velocity":0.3937007874015748},{"duration":0.14285700000000112,"midi":55,"time":13.714272000000001,"velocity":0.3937007874015748},{"duration":0.14285700000000112,"midi":50,"time":13.714272000000001,"velocity":0.3937007874015748},{"duration":0.14285700000000112,"midi":58,"time":13.714272000000001,"velocity":0.3937007874015748},{"duration":0.14285700000000112,"midi":55,"time":13.714272000000001,"velocity":0.3937007874015748},{"duration":0.14285700000000112,"midi":50,"time":13.999986,"velocity":0.3937007874015748},{"duration":0.14285700000000112,"midi":58,"time":13.999986,"velocity":0.3937007874015748},{"duration":0.14285700000000112,"midi":58,"time":13.999986,"velocity":0.3937007874015748},{"duration":0.14285700000000112,"midi":55,"time":13.999986,"velocity":0.3937007874015748},{"duration":0.14285700000000112,"midi":50,"time":13.999986,"velocity":0.3937007874015748},{"duration":0.14285700000000112,"midi":55,"time":13.999986,"velocity":0.3937007874015748},{"duration":0.14285699999999757,"midi":57,"time":14.285700000000002,"velocity":0.3937007874015748},{"duration":0.14285699999999757,"midi":50,"time":14.285700000000002,"velocity":0.3937007874015748},{"duration":0.14285699999999757,"midi":50,"time":14.285700000000002,"velocity":0.3937007874015748},{"duration":0.14285699999999757,"midi":57,"time":14.285700000000002,"velocity":0.3937007874015748},{"duration":0.14285700000000112,"midi":55,"time":14.428557,"velocity":0.3937007874015748},{"duration":0.14285700000000112,"midi":55,"time":14.428557,"velocity":0.3937007874015748},{"duration":0.14285700000000112,"midi":57,"time":14.571414,"velocity":0.3937007874015748},{"duration":0.14285700000000112,"midi":50,"time":14.571414,"velocity":0.3937007874015748},{"duration":0.14285700000000112,"midi":57,"time":14.571414,"velocity":0.3937007874015748},{"duration":0.14285700000000112,"midi":50,"time":14.571414,"velocity":0.3937007874015748},{"duration":0.4285709999999998,"midi":41,"time":14.714271000000002,"velocity":0.3937007874015748},{"duration":0.4285709999999998,"midi":50,"time":14.714271000000002,"velocity":0.3937007874015748},{"duration":0.4285709999999998,"midi":45,"time":14.714271000000002,"velocity":0.3937007874015748},{"duration":0.4285709999999998,"midi":50,"time":14.714271000000002,"velocity":0.3937007874015748},{"duration":0.4285709999999998,"midi":41,"time":14.714271000000002,"velocity":0.3937007874015748},{"duration":0.4285709999999998,"midi":45,"time":14.714271000000002,"velocity":0.3937007874015748},{"duration":0.14285699999999935,"midi":50,"time":15.142842000000002,"velocity":0.3937007874015748},{"duration":0.14285699999999935,"midi":50,"time":15.142842000000002,"velocity":0.3937007874015748},{"duration":0.14285699999999935,"midi":52,"time":15.285699000000001,"velocity":0.3937007874015748},{"duration":0.14285699999999935,"midi":52,"time":15.285699000000001,"velocity":0.3937007874015748},{"duration":0.14285700000000112,"midi":46,"time":15.428556,"velocity":0.3937007874015748},{"duration":0.14285700000000112,"midi":46,"time":15.428556,"velocity":0.3937007874015748},{"duration":0.14285700000000112,"midi":53,"time":15.428556,"velocity":0.3937007874015748},{"duration":0.14285700000000112,"midi":50,"time":15.428556,"velocity":0.3937007874015748},{"duration":0.14285700000000112,"midi":50,"time":15.428556,"velocity":0.3937007874015748},{"duration":0.14285700000000112,"midi":53,"time":15.428556,"velocity":0.3937007874015748},{"duration":0.14285700000000112,"midi":53,"time":15.71427,"velocity":0.3937007874015748},{"duration":0.14285700000000112,"midi":46,"time":15.71427,"velocity":0.3937007874015748},{"duration":0.14285700000000112,"midi":53,"time":15.71427,"velocity":0.3937007874015748},{"duration":0.14285700000000112,"midi":50,"time":15.71427,"velocity":0.3937007874015748},{"duration":0.14285700000000112,"midi":50,"time":15.71427,"velocity":0.3937007874015748},{"duration":0.14285700000000112,"midi":46,"time":15.71427,"velocity":0.3937007874015748},{"duration":0.14285699999999757,"midi":46,"time":15.999984000000003,"velocity":0.3937007874015748},{"duration":0.14285699999999757,"midi":55,"time":15.999984000000003,"velocity":0.3937007874015748},{"duration":0.14285699999999757,"midi":50,"time":15.999984000000003,"velocity":0.3937007874015748},{"duration":0.14285699999999757,"midi":46,"time":15.999984000000003,"velocity":0.3937007874015748},{"duration":0.14285699999999757,"midi":55,"time":15.999984000000003,"velocity":0.3937007874015748},{"duration":0.14285699999999757,"midi":50,"time":15.999984000000003,"velocity":0.3937007874015748},{"duration":0.1428570000000029,"midi":53,"time":16.285698,"velocity":0.3937007874015748},{"duration":0.1428570000000029,"midi":50,"time":16.285698,"velocity":0.3937007874015748},{"duration":0.1428570000000029,"midi":57,"time":16.285698,"velocity":0.3937007874015748},{"duration":0.1428570000000029,"midi":53,"time":16.285698,"velocity":0.3937007874015748},{"duration":0.1428570000000029,"midi":50,"time":16.285698,"velocity":0.3937007874015748},{"duration":0.1428570000000029,"midi":57,"time":16.285698,"velocity":0.3937007874015748},{"duration":0.14285699999999935,"midi":50,"time":16.857126,"velocity":0.3937007874015748},{"duration":0.14285699999999935,"midi":50,"time":16.857126,"velocity":0.3937007874015748},{"duration":0.14285699999999935,"midi":53,"time":16.999983,"velocity":0.3937007874015748},{"duration":0.14285699999999935,"midi":53,"time":16.999983,"velocity":0.3937007874015748},{"duration":0.1428570000000029,"midi":52,"time":17.14284,"velocity":0.3937007874015748},{"duration":0.1428570000000029,"midi":49,"time":17.14284,"velocity":0.3937007874015748},{"duration":0.1428570000000029,"midi":49,"time":17.14284,"velocity":0.3937007874015748},{"duration":0.1428570000000029,"midi":45,"time":17.14284,"velocity":0.3937007874015748},{"duration":0.1428570000000029,"midi":45,"time":17.14284,"velocity":0.3937007874015748},{"duration":0.1428570000000029,"midi":52,"time":17.14284,"velocity":0.3937007874015748},{"duration":0.14285699999999935,"midi":52,"time":17.428554000000002,"velocity":0.3937007874015748},{"duration":0.14285699999999935,"midi":45,"time":17.428554000000002,"velocity":0.3937007874015748},{"duration":0.14285699999999935,"midi":49,"time":17.428554000000002,"velocity":0.3937007874015748},{"duration":0.14285699999999935,"midi":45,"time":17.428554000000002,"velocity":0.3937007874015748},{"duration":0.14285699999999935,"midi":49,"time":17.428554000000002,"velocity":0.3937007874015748},{"duration":0.14285699999999935,"midi":52,"time":17.428554000000002,"velocity":0.3937007874015748},{"duration":0.1428569999999958,"midi":53,"time":17.714268000000004,"velocity":0.3937007874015748},{"duration":0.1428569999999958,"midi":53,"time":17.714268000000004,"velocity":0.3937007874015748},{"duration":0.1428570000000029,"midi":50,"time":17.857125,"velocity":0.3937007874015748},{"duration":0.1428570000000029,"midi":50,"time":17.857125,"velocity":0.3937007874015748},{"duration":0.42857099999999804,"midi":45,"time":17.999982000000003,"velocity":0.3937007874015748},{"duration":0.42857099999999804,"midi":49,"time":17.999982000000003,"velocity":0.3937007874015748},{"duration":0.42857099999999804,"midi":45,"time":17.999982000000003,"velocity":0.3937007874015748},{"duration":0.42857099999999804,"midi":52,"time":17.999982000000003,"velocity":0.3937007874015748},{"duration":0.42857099999999804,"midi":52,"time":17.999982000000003,"velocity":0.3937007874015748},{"duration":0.42857099999999804,"midi":49,"time":17.999982000000003,"velocity":0.3937007874015748},{"duration":0.1428569999999958,"midi":57,"time":18.571410000000004,"velocity":0.3937007874015748},{"duration":0.1428569999999958,"midi":57,"time":18.571410000000004,"velocity":0.3937007874015748},{"duration":0.1428570000000029,"midi":60,"time":18.714267,"velocity":0.3937007874015748},{"duration":0.1428570000000029,"midi":60,"time":18.714267,"velocity":0.3937007874015748},{"duration":0.14285699999999935,"midi":53,"time":18.857124000000002,"velocity":0.3937007874015748},{"duration":0.14285699999999935,"midi":57,"time":18.857124000000002,"velocity":0.3937007874015748},{"duration":0.14285699999999935,"midi":53,"time":18.857124000000002,"velocity":0.3937007874015748},{"duration":0.14285699999999935,"midi":62,"time":18.857124000000002,"velocity":0.3937007874015748},{"duration":0.14285699999999935,"midi":57,"time":18.857124000000002,"velocity":0.3937007874015748},{"duration":0.14285699999999935,"midi":62,"time":18.857124000000002,"velocity":0.3937007874015748},{"duration":0.14285699999999935,"midi":53,"time":19.142838,"velocity":0.3937007874015748},{"duration":0.14285699999999935,"midi":53,"time":19.142838,"velocity":0.3937007874015748},{"duration":0.14285699999999935,"midi":57,"time":19.142838,"velocity":0.3937007874015748},{"duration":0.14285699999999935,"midi":57,"time":19.142838,"velocity":0.3937007874015748},{"duration":0.14285699999999935,"midi":62,"time":19.142838,"velocity":0.3937007874015748},{"duration":0.14285699999999935,"midi":62,"time":19.142838,"velocity":0.3937007874015748},{"duration":0.1428569999999958,"midi":53,"time":19.428552000000003,"velocity":0.3937007874015748},{"duration":0.1428569999999958,"midi":62,"time":19.428552000000003,"velocity":0.3937007874015748},{"duration":0.1428569999999958,"midi":62,"time":19.428552000000003,"velocity":0.3937007874015748},{"duration":0.1428569999999958,"midi":57,"time":19.428552000000003,"velocity":0.3937007874015748},{"duration":0.1428569999999958,"midi":53,"time":19.428552000000003,"velocity":0.3937007874015748},{"duration":0.1428569999999958,"midi":57,"time":19.428552000000003,"velocity":0.3937007874015748},{"duration":0.1428570000000029,"midi":64,"time":19.571409,"velocity":0.3937007874015748},{"duration":0.1428570000000029,"midi":64,"time":19.571409,"velocity":0.3937007874015748},{"duration":0.14285699999999935,"midi":58,"time":19.714266000000002,"velocity":0.3937007874015748},{"duration":0.14285699999999935,"midi":62,"time":19.714266000000002,"velocity":0.3937007874015748},{"duration":0.14285699999999935,"midi":58,"time":19.714266000000002,"velocity":0.3937007874015748},{"duration":0.14285699999999935,"midi":65,"time":19.714266000000002,"velocity":0.3937007874015748},{"duration":0.14285699999999935,"midi":65,"time":19.714266000000002,"velocity":0.3937007874015748},{"duration":0.14285699999999935,"midi":62,"time":19.714266000000002,"velocity":0.3937007874015748},{"duration":0.14285699999999935,"midi":62,"time":19.99998,"velocity":0.3937007874015748},{"duration":0.14285699999999935,"midi":58,"time":19.99998,"velocity":0.3937007874015748},{"duration":0.14285699999999935,"midi":65,"time":19.99998,"velocity":0.3937007874015748},{"duration":0.14285699999999935,"midi":62,"time":19.99998,"velocity":0.3937007874015748},{"duration":0.14285699999999935,"midi":65,"time":19.99998,"velocity":0.3937007874015748},{"duration":0.14285699999999935,"midi":58,"time":19.99998,"velocity":0.3937007874015748},{"duration":0.14285699999999935,"midi":58,"time":20.285694000000003,"velocity":0.3937007874015748},{"duration":0.14285699999999935,"midi":58,"time":20.285694000000003,"velocity":0.3937007874015748},{"duration":0.14285699999999935,"midi":65,"time":20.285694000000003,"velocity":0.3937007874015748},{"duration":0.14285699999999935,"midi":62,"time":20.285694000000003,"velocity":0.3937007874015748},{"duration":0.14285699999999935,"midi":65,"time":20.285694000000003,"velocity":0.3937007874015748},{"duration":0.14285699999999935,"midi":62,"time":20.285694000000003,"velocity":0.3937007874015748},{"duration":0.14285699999999935,"midi":67,"time":20.428551000000002,"velocity":0.3937007874015748},{"duration":0.14285699999999935,"midi":67,"time":20.428551000000002,"velocity":0.3937007874015748},{"duration":0.14285699999999935,"midi":57,"time":20.571408,"velocity":0.3937007874015748},{"duration":0.14285699999999935,"midi":64,"time":20.571408,"velocity":0.3937007874015748},{"duration":0.14285699999999935,"midi":60,"time":20.571408,"velocity":0.3937007874015748},{"duration":0.14285699999999935,"midi":64,"time":20.571408,"velocity":0.3937007874015748},{"duration":0.14285699999999935,"midi":60,"time":20.571408,"velocity":0.3937007874015748},{"duration":0.14285699999999935,"midi":57,"time":20.571408,"velocity":0.3937007874015748},{"duration":0.1428570000000029,"midi":57,"time":20.857122,"velocity":0.3937007874015748},{"duration":0.1428570000000029,"midi":64,"time":20.857122,"velocity":0.3937007874015748},{"duration":0.1428570000000029,"midi":60,"time":20.857122,"velocity":0.3937007874015748},{"duration":0.1428570000000029,"midi":60,"time":20.857122,"velocity":0.3937007874015748},{"duration":0.1428570000000029,"midi":57,"time":20.857122,"velocity":0.3937007874015748},{"duration":0.1428570000000029,"midi":64,"time":20.857122,"velocity":0.3937007874015748},{"duration":0.14285699999999935,"midi":57,"time":21.142836000000003,"velocity":0.3937007874015748},{"duration":0.14285699999999935,"midi":62,"time":21.142836000000003,"velocity":0.3937007874015748},{"duration":0.14285699999999935,"midi":62,"time":21.142836000000003,"velocity":0.3937007874015748},{"duration":0.14285699999999935,"midi":57,"time":21.142836000000003,"velocity":0.3937007874015748},{"duration":0.14285699999999935,"midi":60,"time":21.285693000000002,"velocity":0.3937007874015748},{"duration":0.14285699999999935,"midi":60,"time":21.285693000000002,"velocity":0.3937007874015748},{"duration":0.1428570000000029,"midi":60,"time":21.42855,"velocity":0.3937007874015748},{"duration":0.1428570000000029,"midi":53,"time":21.42855,"velocity":0.3937007874015748},{"duration":0.1428570000000029,"midi":60,"time":21.42855,"velocity":0.3937007874015748},{"duration":0.1428570000000029,"midi":53,"time":21.42855,"velocity":0.3937007874015748},{"duration":0.42857099999999804,"midi":53,"time":21.571407000000004,"velocity":0.3937007874015748},{"duration":0.42857099999999804,"midi":57,"time":21.571407000000004,"velocity":0.3937007874015748},{"duration":0.42857099999999804,"midi":62,"time":21.571407000000004,"velocity":0.3937007874015748},{"duration":0.42857099999999804,"midi":53,"time":21.571407000000004,"velocity":0.3937007874015748},{"duration":0.42857099999999804,"midi":62,"time":21.571407000000004,"velocity":0.3937007874015748},{"duration":0.42857099999999804,"midi":57,"time":21.571407000000004,"velocity":0.3937007874015748},{"duration":0.14285699999999935,"midi":57,"time":21.999978000000002,"velocity":0.3937007874015748},{"duration":0.14285699999999935,"midi":57,"time":21.999978000000002,"velocity":0.3937007874015748},{"duration":0.14285699999999935,"midi":60,"time":22.142835,"velocity":0.3937007874015748},{"duration":0.14285699999999935,"midi":60,"time":22.142835,"velocity":0.3937007874015748},{"duration":0.1428570000000029,"midi":58,"time":22.285692,"velocity":0.3937007874015748},{"duration":0.1428570000000029,"midi":53,"time":22.285692,"velocity":0.3937007874015748},{"duration":0.1428570000000029,"midi":58,"time":22.285692,"velocity":0.3937007874015748},{"duration":0.1428570000000029,"midi":62,"time":22.285692,"velocity":0.3937007874015748},{"duration":0.1428570000000029,"midi":53,"time":22.285692,"velocity":0.3937007874015748},{"duration":0.1428570000000029,"midi":62,"time":22.285692,"velocity":0.3937007874015748},{"duration":0.1428570000000029,"midi":62,"time":22.571406,"velocity":0.3937007874015748},{"duration":0.1428570000000029,"midi":53,"time":22.571406,"velocity":0.3937007874015748},{"duration":0.1428570000000029,"midi":53,"time":22.571406,"velocity":0.3937007874015748},{"duration":0.1428570000000029,"midi":58,"time":22.571406,"velocity":0.3937007874015748},{"duration":0.1428570000000029,"midi":62,"time":22.571406,"velocity":0.3937007874015748},{"duration":0.1428570000000029,"midi":58,"time":22.571406,"velocity":0.3937007874015748},{"duration":0.14285699999999935,"midi":53,"time":22.857120000000002,"velocity":0.3937007874015748},{"duration":0.14285699999999935,"midi":58,"time":22.857120000000002,"velocity":0.3937007874015748},{"duration":0.14285699999999935,"midi":62,"time":22.857120000000002,"velocity":0.3937007874015748},{"duration":0.14285699999999935,"midi":53,"time":22.857120000000002,"velocity":0.3937007874015748},{"duration":0.14285699999999935,"midi":58,"time":22.857120000000002,"velocity":0.3937007874015748},{"duration":0.14285699999999935,"midi":62,"time":22.857120000000002,"velocity":0.3937007874015748},{"duration":0.14285699999999935,"midi":64,"time":22.999977,"velocity":0.3937007874015748},{"duration":0.14285699999999935,"midi":64,"time":22.999977,"velocity":0.3937007874015748},{"duration":0.1428570000000029,"midi":60,"time":23.142834,"velocity":0.3937007874015748},{"duration":0.1428570000000029,"midi":57,"time":23.142834,"velocity":0.3937007874015748},{"duration":0.1428570000000029,"midi":57,"time":23.142834,"velocity":0.3937007874015748},{"duration":0.1428570000000029,"midi":65,"time":23.142834,"velocity":0.3937007874015748},{"duration":0.1428570000000029,"midi":65,"time":23.142834,"velocity":0.3937007874015748},{"duration":0.1428570000000029,"midi":60,"time":23.142834,"velocity":0.3937007874015748},{"duration":0.1428570000000029,"midi":60,"time":23.428548,"velocity":0.3937007874015748},{"duration":0.1428570000000029,"midi":60,"time":23.428548,"velocity":0.3937007874015748},{"duration":0.1428570000000029,"midi":57,"time":23.428548,"velocity":0.3937007874015748},{"duration":0.1428570000000029,"midi":57,"time":23.428548,"velocity":0.3937007874015748},{"duration":0.1428570000000029,"midi":65,"time":23.428548,"velocity":0.3937007874015748},{"duration":0.1428570000000029,"midi":65,"time":23.428548,"velocity":0.3937007874015748},{"duration":0.14285699999999935,"midi":65,"time":23.714262,"velocity":0.3937007874015748},{"duration":0.14285699999999935,"midi":57,"time":23.714262,"velocity":0.3937007874015748},{"duration":0.14285699999999935,"midi":60,"time":23.714262,"velocity":0.3937007874015748},{"duration":0.14285699999999935,"midi":60,"time":23.714262,"velocity":0.3937007874015748},{"duration":0.14285699999999935,"midi":65,"time":23.714262,"velocity":0.3937007874015748},{"duration":0.14285699999999935,"midi":57,"time":23.714262,"velocity":0.3937007874015748},{"duration":0.1428570000000029,"midi":67,"time":23.857119,"velocity":0.3937007874015748},{"duration":0.1428570000000029,"midi":67,"time":23.857119,"velocity":0.3937007874015748},{"duration":0.14285699999999935,"midi":64,"time":23.999976000000004,"velocity":0.3937007874015748},{"duration":0.14285699999999935,"midi":57,"time":23.999976000000004,"velocity":0.3937007874015748},{"duration":0.14285699999999935,"midi":60,"time":23.999976000000004,"velocity":0.3937007874015748},{"duration":0.14285699999999935,"midi":60,"time":23.999976000000004,"velocity":0.3937007874015748},{"duration":0.14285699999999935,"midi":64,"time":23.999976000000004,"velocity":0.3937007874015748},{"duration":0.14285699999999935,"midi":57,"time":23.999976000000004,"velocity":0.3937007874015748},{"duration":0.14285699999999935,"midi":57,"time":24.285690000000002,"velocity":0.3937007874015748},{"duration":0.14285699999999935,"midi":57,"time":24.285690000000002,"velocity":0.3937007874015748},{"duration":0.14285699999999935,"midi":64,"time":24.285690000000002,"velocity":0.3937007874015748},{"duration":0.14285699999999935,"midi":60,"time":24.285690000000002,"velocity":0.3937007874015748},{"duration":0.14285699999999935,"midi":64,"time":24.285690000000002,"velocity":0.3937007874015748},{"duration":0.14285699999999935,"midi":60,"time":24.285690000000002,"velocity":0.3937007874015748},{"duration":0.1428569999999958,"midi":57,"time":24.571404000000005,"velocity":0.3937007874015748},{"duration":0.1428569999999958,"midi":62,"time":24.571404000000005,"velocity":0.3937007874015748},{"duration":0.1428569999999958,"midi":57,"time":24.571404000000005,"velocity":0.3937007874015748},{"duration":0.1428569999999958,"midi":62,"time":24.571404000000005,"velocity":0.3937007874015748},{"duration":0.1428570000000029,"midi":60,"time":24.714261,"velocity":0.3937007874015748},{"duration":0.1428570000000029,"midi":60,"time":24.714261,"velocity":0.3937007874015748},{"duration":0.42857099999999804,"midi":53,"time":24.857118000000003,"velocity":0.3937007874015748},{"duration":0.42857099999999804,"midi":57,"time":24.857118000000003,"velocity":0.3937007874015748},{"duration":0.42857099999999804,"midi":57,"time":24.857118000000003,"velocity":0.3937007874015748},{"duration":0.42857099999999804,"midi":62,"time":24.857118000000003,"velocity":0.3937007874015748},{"duration":0.42857099999999804,"midi":62,"time":24.857118000000003,"velocity":0.3937007874015748},{"duration":0.42857099999999804,"midi":53,"time":24.857118000000003,"velocity":0.3937007874015748},{"duration":0.1428569999999958,"midi":57,"time":25.428546000000004,"velocity":0.3937007874015748},{"duration":0.1428569999999958,"midi":57,"time":25.428546000000004,"velocity":0.3937007874015748},{"duration":0.1428570000000029,"midi":60,"time":25.571403,"velocity":0.3937007874015748},{"duration":0.1428570000000029,"midi":60,"time":25.571403,"velocity":0.3937007874015748},{"duration":0.14285699999999935,"midi":57,"time":25.714260000000003,"velocity":0.3937007874015748},{"duration":0.14285699999999935,"midi":53,"time":25.714260000000003,"velocity":0.3937007874015748},{"duration":0.14285699999999935,"midi":53,"time":25.714260000000003,"velocity":0.3937007874015748},{"duration":0.14285699999999935,"midi":62,"time":25.714260000000003,"velocity":0.3937007874015748},{"duration":0.14285699999999935,"midi":57,"time":25.714260000000003,"velocity":0.3937007874015748},{"duration":0.14285699999999935,"midi":62,"time":25.714260000000003,"velocity":0.3937007874015748},{"duration":0.14285699999999935,"midi":53,"time":25.999974,"velocity":0.3937007874015748},{"duration":0.14285699999999935,"midi":62,"time":25.999974,"velocity":0.3937007874015748},{"duration":0.14285699999999935,"midi":57,"time":25.999974,"velocity":0.3937007874015748},{"duration":0.14285699999999935,"midi":57,"time":25.999974,"velocity":0.3937007874015748},{"duration":0.14285699999999935,"midi":62,"time":25.999974,"velocity":0.3937007874015748},{"duration":0.14285699999999935,"midi":53,"time":25.999974,"velocity":0.3937007874015748},{"duration":0.1428569999999958,"midi":53,"time":26.285688000000004,"velocity":0.3937007874015748},{"duration":0.1428569999999958,"midi":53,"time":26.285688000000004,"velocity":0.3937007874015748},{"duration":0.1428569999999958,"midi":62,"time":26.285688000000004,"velocity":0.3937007874015748},{"duration":0.1428569999999958,"midi":62,"time":26.285688000000004,"velocity":0.3937007874015748},{"duration":0.1428570000000029,"midi":65,"time":26.428545,"velocity":0.3937007874015748},{"duration":0.1428570000000029,"midi":53,"time":26.428545,"velocity":0.3937007874015748},{"duration":0.1428570000000029,"midi":65,"time":26.428545,"velocity":0.3937007874015748},{"duration":0.1428570000000029,"midi":53,"time":26.428545,"velocity":0.3937007874015748},{"duration":0.14285699999999935,"midi":62,"time":26.571402000000003,"velocity":0.3937007874015748},{"duration":0.14285699999999935,"midi":58,"time":26.571402000000003,"velocity":0.3937007874015748},{"duration":0.14285699999999935,"midi":58,"time":26.571402000000003,"velocity":0.3937007874015748},{"duration":0.14285699999999935,"midi":67,"time":26.571402000000003,"velocity":0.3937007874015748},{"duration":0.14285699999999935,"midi":62,"time":26.571402000000003,"velocity":0.3937007874015748},{"duration":0.14285699999999935,"midi":67,"time":26.571402000000003,"velocity":0.3937007874015748},{"duration":0.14285699999999935,"midi":58,"time":26.857116,"velocity":0.3937007874015748},{"duration":0.14285699999999935,"midi":67,"time":26.857116,"velocity":0.3937007874015748},{"duration":0.14285699999999935,"midi":58,"time":26.857116,"velocity":0.3937007874015748},{"duration":0.14285699999999935,"midi":62,"time":26.857116,"velocity":0.3937007874015748},{"duration":0.14285699999999935,"midi":62,"time":26.857116,"velocity":0.3937007874015748},{"duration":0.14285699999999935,"midi":67,"time":26.857116,"velocity":0.3937007874015748},{"duration":0.14285699999999935,"midi":62,"time":27.142830000000004,"velocity":0.3937007874015748},{"duration":0.14285699999999935,"midi":58,"time":27.142830000000004,"velocity":0.3937007874015748},{"duration":0.14285699999999935,"midi":58,"time":27.142830000000004,"velocity":0.3937007874015748},{"duration":0.14285699999999935,"midi":67,"time":27.142830000000004,"velocity":0.3937007874015748},{"duration":0.14285699999999935,"midi":62,"time":27.142830000000004,"velocity":0.3937007874015748},{"duration":0.14285699999999935,"midi":67,"time":27.142830000000004,"velocity":0.3937007874015748},{"duration":0.14285699999999935,"midi":69,"time":27.285687000000003,"velocity":0.3937007874015748},{"duration":0.14285699999999935,"midi":69,"time":27.285687000000003,"velocity":0.3937007874015748},{"duration":0.14285699999999935,"midi":67,"time":27.428544000000002,"velocity":0.3937007874015748},{"duration":0.14285699999999935,"midi":70,"time":27.428544000000002,"velocity":0.3937007874015748},{"duration":0.14285699999999935,"midi":67,"time":27.428544000000002,"velocity":0.3937007874015748},{"duration":0.14285699999999935,"midi":62,"time":27.428544000000002,"velocity":0.3937007874015748},{"duration":0.14285699999999935,"midi":70,"time":27.428544000000002,"velocity":0.3937007874015748},{"duration":0.14285699999999935,"midi":62,"time":27.428544000000002,"velocity":0.3937007874015748},{"duration":0.14285699999999935,"midi":62,"time":27.714258000000005,"velocity":0.3937007874015748},{"duration":0.14285699999999935,"midi":70,"time":27.714258000000005,"velocity":0.3937007874015748},{"duration":0.14285699999999935,"midi":62,"time":27.714258000000005,"velocity":0.3937007874015748},{"duration":0.14285699999999935,"midi":67,"time":27.714258000000005,"velocity":0.3937007874015748},{"duration":0.14285699999999935,"midi":70,"time":27.714258000000005,"velocity":0.3937007874015748},{"duration":0.14285699999999935,"midi":67,"time":27.714258000000005,"velocity":0.3937007874015748},{"duration":0.14285700000000645,"midi":62,"time":27.999972,"velocity":0.3937007874015748},{"duration":0.14285700000000645,"midi":69,"time":27.999972,"velocity":0.3937007874015748},{"duration":0.14285700000000645,"midi":62,"time":27.999972,"velocity":0.3937007874015748},{"duration":0.14285700000000645,"midi":69,"time":27.999972,"velocity":0.3937007874015748},{"duration":0.1428569999999958,"midi":67,"time":28.142829000000006,"velocity":0.3937007874015748},{"duration":0.1428569999999958,"midi":67,"time":28.142829000000006,"velocity":0.3937007874015748},{"duration":0.14285699999999935,"midi":69,"time":28.285686000000002,"velocity":0.3937007874015748},{"duration":0.14285699999999935,"midi":69,"time":28.285686000000002,"velocity":0.3937007874015748},{"duration":0.14285699999999935,"midi":62,"time":28.285686000000002,"velocity":0.3937007874015748},{"duration":0.14285699999999935,"midi":62,"time":28.285686000000002,"velocity":0.3937007874015748},{"duration":0.42857099999999804,"midi":57,"time":28.428543,"velocity":0.3937007874015748},{"duration":0.42857099999999804,"midi":62,"time":28.428543,"velocity":0.3937007874015748},{"duration":0.42857099999999804,"midi":53,"time":28.428543,"velocity":0.3937007874015748},{"duration":0.42857099999999804,"midi":62,"time":28.428543,"velocity":0.3937007874015748},{"duration":0.42857099999999804,"midi":57,"time":28.428543,"velocity":0.3937007874015748},{"duration":0.42857099999999804,"midi":53,"time":28.428543,"velocity":0.3937007874015748},{"duration":0.14285700000000645,"midi":62,"time":28.857114,"velocity":0.3937007874015748},{"duration":0.14285700000000645,"midi":62,"time":28.857114,"velocity":0.3937007874015748},{"duration":0.1428569999999958,"midi":64,"time":28.999971000000006,"velocity":0.3937007874015748},{"duration":0.1428569999999958,"midi":64,"time":28.999971000000006,"velocity":0.3937007874015748},{"duration":0.14285699999999935,"midi":65,"time":29.142828,"velocity":0.3937007874015748},{"duration":0.14285699999999935,"midi":60,"time":29.142828,"velocity":0.3937007874015748},{"duration":0.14285699999999935,"midi":60,"time":29.142828,"velocity":0.3937007874015748},{"duration":0.14285699999999935,"midi":57,"time":29.142828,"velocity":0.3937007874015748},{"duration":0.14285699999999935,"midi":65,"time":29.142828,"velocity":0.3937007874015748},{"duration":0.14285699999999935,"midi":57,"time":29.142828,"velocity":0.3937007874015748},{"duration":0.14285699999999935,"midi":65,"time":29.428542000000004,"velocity":0.3937007874015748},{"duration":0.14285699999999935,"midi":65,"time":29.428542000000004,"velocity":0.3937007874015748},{"duration":0.14285699999999935,"midi":57,"time":29.428542000000004,"velocity":0.3937007874015748},{"duration":0.14285699999999935,"midi":60,"time":29.428542000000004,"velocity":0.3937007874015748},{"duration":0.14285699999999935,"midi":57,"time":29.428542000000004,"velocity":0.3937007874015748},{"duration":0.14285699999999935,"midi":60,"time":29.428542000000004,"velocity":0.3937007874015748},{"duration":0.14285700000000645,"midi":57,"time":29.714256,"velocity":0.3937007874015748},{"duration":0.14285700000000645,"midi":60,"time":29.714256,"velocity":0.3937007874015748},{"duration":0.14285700000000645,"midi":60,"time":29.714256,"velocity":0.3937007874015748},{"duration":0.14285700000000645,"midi":67,"time":29.714256,"velocity":0.3937007874015748},{"duration":0.14285700000000645,"midi":57,"time":29.714256,"velocity":0.3937007874015748},{"duration":0.14285700000000645,"midi":67,"time":29.714256,"velocity":0.3937007874015748},{"duration":0.14285699999999935,"midi":65,"time":29.99997,"velocity":0.3937007874015748},{"duration":0.14285699999999935,"midi":65,"time":29.99997,"velocity":0.3937007874015748},{"duration":0.14285699999999935,"midi":69,"time":29.99997,"velocity":0.3937007874015748},{"duration":0.14285699999999935,"midi":69,"time":29.99997,"velocity":0.3937007874015748},{"duration":0.14285699999999935,"midi":62,"time":29.99997,"velocity":0.3937007874015748},{"duration":0.14285699999999935,"midi":62,"time":29.99997,"velocity":0.3937007874015748},{"duration":0.1428570000000029,"midi":62,"time":30.142827,"velocity":0.3937007874015748},{"duration":0.1428570000000029,"midi":62,"time":30.142827,"velocity":0.3937007874015748},{"duration":0.1428570000000029,"midi":62,"time":30.571398000000002,"velocity":0.3937007874015748},{"duration":0.1428570000000029,"midi":62,"time":30.571398000000002,"velocity":0.3937007874015748},{"duration":0.1428569999999958,"midi":65,"time":30.714255000000005,"velocity":0.3937007874015748},{"duration":0.1428569999999958,"midi":65,"time":30.714255000000005,"velocity":0.3937007874015748},{"duration":0.14285699999999935,"midi":61,"time":30.857112,"velocity":0.3937007874015748},{"duration":0.14285699999999935,"midi":57,"time":30.857112,"velocity":0.3937007874015748},{"duration":0.14285699999999935,"midi":61,"time":30.857112,"velocity":0.3937007874015748},{"duration":0.14285699999999935,"midi":64,"time":30.857112,"velocity":0.3937007874015748},{"duration":0.14285699999999935,"midi":57,"time":30.857112,"velocity":0.3937007874015748},{"duration":0.14285699999999935,"midi":64,"time":30.857112,"velocity":0.3937007874015748},{"duration":0.14285699999999935,"midi":57,"time":31.142826000000003,"velocity":0.3937007874015748},{"duration":0.14285699999999935,"midi":61,"time":31.142826000000003,"velocity":0.3937007874015748},{"duration":0.14285699999999935,"midi":64,"time":31.142826000000003,"velocity":0.3937007874015748},{"duration":0.14285699999999935,"midi":64,"time":31.142826000000003,"velocity":0.3937007874015748},{"duration":0.14285699999999935,"midi":61,"time":31.142826000000003,"velocity":0.3937007874015748},{"duration":0.14285699999999935,"midi":57,"time":31.142826000000003,"velocity":0.3937007874015748},{"duration":0.1428570000000029,"midi":62,"time":31.42854,"velocity":0.3937007874015748},{"duration":0.1428570000000029,"midi":62,"time":31.42854,"velocity":0.3937007874015748},{"duration":0.14285699999999935,"midi":61,"time":31.571397000000005,"velocity":0.3937007874015748},{"duration":0.14285699999999935,"midi":61,"time":31.571397000000005,"velocity":0.3937007874015748},{"duration":0.28571400000000224,"midi":57,"time":31.714254000000004,"velocity":0.3937007874015748},{"duration":0.28571400000000224,"midi":57,"time":31.714254000000004,"velocity":0.3937007874015748},{"duration":0.28571400000000224,"midi":62,"time":31.714254000000004,"velocity":0.3937007874015748},{"duration":0.28571400000000224,"midi":62,"time":31.714254000000004,"velocity":0.3937007874015748},{"duration":0.28571399999999514,"midi":57,"time":31.999968000000006,"velocity":0.3937007874015748},{"duration":0.28571399999999514,"midi":57,"time":31.999968000000006,"velocity":0.3937007874015748},{"duration":0.28571399999999514,"midi":62,"time":31.999968000000006,"velocity":0.3937007874015748},{"duration":0.28571399999999514,"midi":62,"time":31.999968000000006,"velocity":0.3937007874015748},{"duration":0.2857139999999987,"midi":60,"time":32.285682,"velocity":0.3937007874015748},{"duration":0.2857139999999987,"midi":60,"time":32.285682,"velocity":0.3937007874015748},{"duration":0.2857139999999987,"midi":64,"time":32.285682,"velocity":0.3937007874015748},{"duration":0.2857139999999987,"midi":57,"time":32.285682,"velocity":0.3937007874015748},{"duration":0.2857139999999987,"midi":64,"time":32.285682,"velocity":0.3937007874015748},{"duration":0.2857139999999987,"midi":57,"time":32.285682,"velocity":0.3937007874015748},{"duration":0.2857140000000058,"midi":60,"time":32.571396,"velocity":0.3937007874015748},{"duration":0.2857140000000058,"midi":60,"time":32.571396,"velocity":0.3937007874015748},{"duration":0.2857140000000058,"midi":65,"time":32.571396,"velocity":0.3937007874015748},{"duration":0.2857140000000058,"midi":65,"time":32.571396,"velocity":0.3937007874015748},{"duration":0.2857140000000058,"midi":62,"time":32.571396,"velocity":0.3937007874015748},{"duration":0.2857140000000058,"midi":62,"time":32.571396,"velocity":0.3937007874015748},{"duration":0.14285699999999935,"midi":65,"time":32.857110000000006,"velocity":0.3937007874015748},{"duration":0.14285699999999935,"midi":65,"time":32.857110000000006,"velocity":0.3937007874015748},{"duration":0.14285699999999224,"midi":65,"time":32.999967000000005,"velocity":0.3937007874015748},{"duration":0.14285699999999224,"midi":65,"time":32.999967000000005,"velocity":0.3937007874015748},{"duration":0.2857140000000058,"midi":62,"time":33.142824,"velocity":0.3937007874015748},{"duration":0.2857140000000058,"midi":58,"time":33.142824,"velocity":0.3937007874015748},{"duration":0.2857140000000058,"midi":67,"time":33.142824,"velocity":0.3937007874015748},{"duration":0.2857140000000058,"midi":67,"time":33.142824,"velocity":0.3937007874015748},{"duration":0.2857140000000058,"midi":62,"time":33.142824,"velocity":0.3937007874015748},{"duration":0.2857140000000058,"midi":58,"time":33.142824,"velocity":0.3937007874015748},{"duration":0.5714279999999974,"midi":62,"time":33.428538,"velocity":0.3937007874015748},{"duration":0.5714279999999974,"midi":62,"time":33.428538,"velocity":0.3937007874015748},{"duration":0.5714279999999974,"midi":69,"time":33.428538,"velocity":0.3937007874015748},{"duration":0.5714279999999974,"midi":65,"time":33.428538,"velocity":0.3937007874015748},{"duration":0.5714279999999974,"midi":65,"time":33.428538,"velocity":0.3937007874015748},{"duration":0.5714279999999974,"midi":69,"time":33.428538,"velocity":0.3937007874015748},{"duration":0.14285700000000645,"midi":65,"time":33.999966,"velocity":0.3937007874015748},{"duration":0.14285700000000645,"midi":65,"time":33.999966,"velocity":0.3937007874015748},{"duration":0.14285699999999224,"midi":62,"time":34.14282300000001,"velocity":0.3937007874015748},{"duration":0.14285699999999224,"midi":62,"time":34.14282300000001,"velocity":0.3937007874015748},{"duration":0.8571420000000032,"midi":57,"time":34.28568,"velocity":0.3937007874015748},{"duration":0.8571420000000032,"midi":57,"time":34.28568,"velocity":0.3937007874015748},{"duration":0.5714279999999974,"midi":70,"time":35.142822,"velocity":0.3937007874015748},{"duration":0.5714279999999974,"midi":62,"time":35.142822,"velocity":0.3937007874015748},{"duration":0.5714279999999974,"midi":62,"time":35.142822,"velocity":0.3937007874015748},{"duration":0.5714279999999974,"midi":65,"time":35.142822,"velocity":0.3937007874015748},{"duration":0.5714279999999974,"midi":65,"time":35.142822,"velocity":0.3937007874015748},{"duration":0.5714279999999974,"midi":70,"time":35.142822,"velocity":0.3937007874015748},{"duration":0.14285700000000645,"midi":65,"time":35.71425,"velocity":0.3937007874015748},{"duration":0.14285700000000645,"midi":65,"time":35.71425,"velocity":0.3937007874015748},{"duration":0.14285699999999935,"midi":62,"time":35.857107000000006,"velocity":0.3937007874015748},{"duration":0.14285699999999935,"midi":62,"time":35.857107000000006,"velocity":0.3937007874015748},{"duration":0.8571419999999961,"midi":58,"time":35.999964000000006,"velocity":0.3937007874015748},{"duration":0.8571419999999961,"midi":58,"time":35.999964000000006,"velocity":0.3937007874015748},{"duration":0.14285699999999935,"midi":57,"time":36.857106,"velocity":0.3937007874015748},{"duration":0.14285699999999935,"midi":64,"time":36.857106,"velocity":0.3937007874015748},{"duration":0.14285699999999935,"midi":57,"time":36.857106,"velocity":0.3937007874015748},{"duration":0.14285699999999935,"midi":64,"time":36.857106,"velocity":0.3937007874015748},{"duration":0.2857139999999987,"midi":64,"time":36.999963,"velocity":0.3937007874015748},{"duration":0.2857139999999987,"midi":64,"time":36.999963,"velocity":0.3937007874015748},{"duration":0.42857100000000514,"midi":57,"time":37.285677,"velocity":0.3937007874015748},{"duration":0.42857100000000514,"midi":53,"time":37.285677,"velocity":0.3937007874015748},{"duration":0.42857100000000514,"midi":53,"time":37.285677,"velocity":0.3937007874015748},{"duration":0.42857100000000514,"midi":57,"time":37.285677,"velocity":0.3937007874015748},{"duration":0.42857100000000514,"midi":62,"time":37.285677,"velocity":0.3937007874015748},{"duration":0.42857100000000514,"midi":62,"time":37.285677,"velocity":0.3937007874015748},{"duration":0.42857099999999804,"midi":61,"time":37.714248000000005,"velocity":0.3937007874015748},{"duration":0.42857099999999804,"midi":65,"time":37.714248000000005,"velocity":0.3937007874015748},{"duration":0.42857099999999804,"midi":61,"time":37.714248000000005,"velocity":0.3937007874015748},{"duration":0.42857099999999804,"midi":57,"time":37.714248000000005,"velocity":0.3937007874015748},{"duration":0.42857099999999804,"midi":57,"time":37.714248000000005,"velocity":0.3937007874015748},{"duration":0.42857099999999804,"midi":65,"time":37.714248000000005,"velocity":0.3937007874015748},{"duration":0.14285700000000645,"midi":53,"time":38.285676,"velocity":0.3937007874015748},{"duration":0.14285700000000645,"midi":53,"time":38.285676,"velocity":0.3937007874015748},{"duration":0.14285699999999224,"midi":55,"time":38.42853300000001,"velocity":0.3937007874015748},{"duration":0.14285699999999224,"midi":55,"time":38.42853300000001,"velocity":0.3937007874015748},{"duration":0.14285699999999935,"midi":53,"time":38.57139,"velocity":0.3937007874015748},{"duration":0.14285699999999935,"midi":53,"time":38.57139,"velocity":0.3937007874015748},{"duration":0.14285699999999935,"midi":57,"time":38.57139,"velocity":0.3937007874015748},{"duration":0.14285699999999935,"midi":50,"time":38.57139,"velocity":0.3937007874015748},{"duration":0.14285699999999935,"midi":57,"time":38.57139,"velocity":0.3937007874015748},{"duration":0.14285699999999935,"midi":50,"time":38.57139,"velocity":0.3937007874015748},{"duration":0.14285699999999935,"midi":53,"time":38.85710400000001,"velocity":0.3937007874015748},{"duration":0.14285699999999935,"midi":57,"time":38.85710400000001,"velocity":0.3937007874015748},{"duration":0.14285699999999935,"midi":50,"time":38.85710400000001,"velocity":0.3937007874015748},{"duration":0.14285699999999935,"midi":53,"time":38.85710400000001,"velocity":0.3937007874015748},{"duration":0.14285699999999935,"midi":50,"time":38.85710400000001,"velocity":0.3937007874015748},{"duration":0.14285699999999935,"midi":57,"time":38.85710400000001,"velocity":0.3937007874015748},{"duration":0.14285700000000645,"midi":57,"time":39.142818,"velocity":0.3937007874015748},{"duration":0.14285700000000645,"midi":53,"time":39.142818,"velocity":0.3937007874015748},{"duration":0.14285700000000645,"midi":50,"time":39.142818,"velocity":0.3937007874015748},{"duration":0.14285700000000645,"midi":53,"time":39.142818,"velocity":0.3937007874015748},{"duration":0.14285700000000645,"midi":57,"time":39.142818,"velocity":0.3937007874015748},{"duration":0.14285700000000645,"midi":50,"time":39.142818,"velocity":0.3937007874015748},{"duration":0.14285699999999935,"midi":58,"time":39.428532000000004,"velocity":0.3937007874015748},{"duration":0.14285699999999935,"midi":50,"time":39.428532000000004,"velocity":0.3937007874015748},{"duration":0.14285699999999935,"midi":55,"time":39.428532000000004,"velocity":0.3937007874015748},{"duration":0.14285699999999935,"midi":55,"time":39.428532000000004,"velocity":0.3937007874015748},{"duration":0.14285699999999935,"midi":50,"time":39.428532000000004,"velocity":0.3937007874015748},{"duration":0.14285699999999935,"midi":58,"time":39.428532000000004,"velocity":0.3937007874015748},{"duration":0.14285699999999935,"midi":53,"time":39.571389,"velocity":0.3937007874015748},{"duration":0.14285699999999935,"midi":50,"time":39.571389,"velocity":0.3937007874015748},{"duration":0.14285699999999935,"midi":57,"time":39.571389,"velocity":0.3937007874015748},{"duration":0.14285699999999935,"midi":50,"time":39.571389,"velocity":0.3937007874015748},{"duration":0.14285699999999935,"midi":57,"time":39.571389,"velocity":0.3937007874015748},{"duration":0.14285699999999935,"midi":53,"time":39.571389,"velocity":0.3937007874015748},{"duration":0.14285699999999935,"midi":55,"time":40.285674,"velocity":0.3937007874015748},{"duration":0.14285699999999935,"midi":48,"time":40.285674,"velocity":0.3937007874015748},{"duration":0.14285699999999935,"midi":52,"time":40.285674,"velocity":0.3937007874015748},{"duration":0.14285699999999935,"midi":48,"time":40.285674,"velocity":0.3937007874015748},{"duration":0.14285699999999935,"midi":55,"time":40.285674,"velocity":0.3937007874015748},{"duration":0.14285699999999935,"midi":52,"time":40.285674,"velocity":0.3937007874015748},{"duration":0.14285699999999935,"midi":48,"time":40.571388000000006,"velocity":0.3937007874015748},{"duration":0.14285699999999935,"midi":55,"time":40.571388000000006,"velocity":0.3937007874015748},{"duration":0.14285699999999935,"midi":52,"time":40.571388000000006,"velocity":0.3937007874015748},{"duration":0.14285699999999935,"midi":52,"time":40.571388000000006,"velocity":0.3937007874015748},{"duration":0.14285699999999935,"midi":55,"time":40.571388000000006,"velocity":0.3937007874015748},{"duration":0.14285699999999935,"midi":48,"time":40.571388000000006,"velocity":0.3937007874015748},{"duration":0.14285699999999935,"midi":52,"time":40.857102000000005,"velocity":0.3937007874015748},{"duration":0.14285699999999935,"midi":55,"time":40.857102000000005,"velocity":0.3937007874015748},{"duration":0.14285699999999935,"midi":48,"time":40.857102000000005,"velocity":0.3937007874015748},{"duration":0.14285699999999935,"midi":48,"time":40.857102000000005,"velocity":0.3937007874015748},{"duration":0.14285699999999935,"midi":52,"time":40.857102000000005,"velocity":0.3937007874015748},{"duration":0.14285699999999935,"midi":55,"time":40.857102000000005,"velocity":0.3937007874015748},{"duration":0.14285699999999935,"midi":48,"time":41.142816,"velocity":0.3937007874015748},{"duration":0.14285699999999935,"midi":52,"time":41.142816,"velocity":0.3937007874015748},{"duration":0.14285699999999935,"midi":55,"time":41.142816,"velocity":0.3937007874015748},{"duration":0.14285699999999935,"midi":52,"time":41.142816,"velocity":0.3937007874015748},{"duration":0.14285699999999935,"midi":55,"time":41.142816,"velocity":0.3937007874015748},{"duration":0.14285699999999935,"midi":48,"time":41.142816,"velocity":0.3937007874015748},{"duration":0.14285699999999935,"midi":57,"time":41.285673,"velocity":0.3937007874015748},{"duration":0.14285699999999935,"midi":48,"time":41.285673,"velocity":0.3937007874015748},{"duration":0.14285699999999935,"midi":53,"time":41.285673,"velocity":0.3937007874015748},{"duration":0.14285699999999935,"midi":57,"time":41.285673,"velocity":0.3937007874015748},{"duration":0.14285699999999935,"midi":53,"time":41.285673,"velocity":0.3937007874015748},{"duration":0.14285699999999935,"midi":48,"time":41.285673,"velocity":0.3937007874015748},{"duration":0.14285699999999224,"midi":53,"time":41.99995800000001,"velocity":0.3937007874015748},{"duration":0.14285699999999224,"midi":57,"time":41.99995800000001,"velocity":0.3937007874015748},{"duration":0.14285699999999224,"midi":50,"time":41.99995800000001,"velocity":0.3937007874015748},{"duration":0.14285699999999224,"midi":50,"time":41.99995800000001,"velocity":0.3937007874015748},{"duration":0.14285699999999224,"midi":53,"time":41.99995800000001,"velocity":0.3937007874015748},{"duration":0.14285699999999224,"midi":57,"time":41.99995800000001,"velocity":0.3937007874015748},{"duration":0.14285699999999935,"midi":53,"time":42.285672000000005,"velocity":0.3937007874015748},{"duration":0.14285699999999935,"midi":50,"time":42.285672000000005,"velocity":0.3937007874015748},{"duration":0.14285699999999935,"midi":57,"time":42.285672000000005,"velocity":0.3937007874015748},{"duration":0.14285699999999935,"midi":57,"time":42.285672000000005,"velocity":0.3937007874015748},{"duration":0.14285699999999935,"midi":53,"time":42.285672000000005,"velocity":0.3937007874015748},{"duration":0.14285699999999935,"midi":50,"time":42.285672000000005,"velocity":0.3937007874015748},{"duration":0.14285699999999935,"midi":50,"time":42.571386000000004,"velocity":0.3937007874015748},{"duration":0.14285699999999935,"midi":57,"time":42.571386000000004,"velocity":0.3937007874015748},{"duration":0.14285699999999935,"midi":57,"time":42.571386000000004,"velocity":0.3937007874015748},{"duration":0.14285699999999935,"midi":50,"time":42.571386000000004,"velocity":0.3937007874015748},{"duration":0.14285699999999935,"midi":53,"time":42.571386000000004,"velocity":0.3937007874015748},{"duration":0.14285699999999935,"midi":53,"time":42.571386000000004,"velocity":0.3937007874015748},{"duration":0.14285699999999935,"midi":55,"time":42.8571,"velocity":0.3937007874015748},{"duration":0.14285699999999935,"midi":50,"time":42.8571,"velocity":0.3937007874015748},{"duration":0.14285699999999935,"midi":58,"time":42.8571,"velocity":0.3937007874015748},{"duration":0.14285699999999935,"midi":55,"time":42.8571,"velocity":0.3937007874015748},{"duration":0.14285699999999935,"midi":58,"time":42.8571,"velocity":0.3937007874015748},{"duration":0.14285699999999935,"midi":50,"time":42.8571,"velocity":0.3937007874015748},{"duration":0.14285700000000645,"midi":53,"time":42.999957,"velocity":0.3937007874015748},{"duration":0.14285700000000645,"midi":57,"time":42.999957,"velocity":0.3937007874015748},{"duration":0.14285700000000645,"midi":57,"time":42.999957,"velocity":0.3937007874015748},{"duration":0.14285700000000645,"midi":53,"time":42.999957,"velocity":0.3937007874015748},{"duration":0.14285700000000645,"midi":50,"time":42.999957,"velocity":0.3937007874015748},{"duration":0.14285700000000645,"midi":50,"time":42.999957,"velocity":0.3937007874015748},{"duration":0.14285699999999224,"midi":55,"time":43.714242000000006,"velocity":0.3937007874015748},{"duration":0.14285699999999224,"midi":49,"time":43.714242000000006,"velocity":0.3937007874015748},{"duration":0.14285699999999224,"midi":52,"time":43.714242000000006,"velocity":0.3937007874015748},{"duration":0.14285699999999224,"midi":49,"time":43.714242000000006,"velocity":0.3937007874015748},{"duration":0.14285699999999224,"midi":55,"time":43.714242000000006,"velocity":0.3937007874015748},{"duration":0.14285699999999224,"midi":52,"time":43.714242000000006,"velocity":0.3937007874015748},{"duration":0.14285699999999935,"midi":53,"time":43.999956000000005,"velocity":0.3937007874015748},{"duration":0.14285699999999935,"midi":53,"time":43.999956000000005,"velocity":0.3937007874015748},{"duration":0.14285699999999935,"midi":49,"time":43.999956000000005,"velocity":0.3937007874015748},{"duration":0.14285699999999935,"midi":49,"time":43.999956000000005,"velocity":0.3937007874015748},{"duration":0.14285699999999935,"midi":52,"time":44.28567,"velocity":0.3937007874015748},{"duration":0.14285699999999935,"midi":52,"time":44.28567,"velocity":0.3937007874015748},{"duration":0.14285699999999935,"midi":49,"time":44.28567,"velocity":0.3937007874015748},{"duration":0.14285699999999935,"midi":49,"time":44.28567,"velocity":0.3937007874015748},{"duration":0.14285699999999935,"midi":41,"time":44.571384,"velocity":0.3937007874015748},{"duration":0.14285699999999935,"midi":50,"time":44.571384,"velocity":0.3937007874015748},{"duration":0.14285699999999935,"midi":45,"time":44.571384,"velocity":0.3937007874015748},{"duration":0.14285699999999935,"midi":50,"time":44.571384,"velocity":0.3937007874015748},{"duration":0.14285699999999935,"midi":41,"time":44.571384,"velocity":0.3937007874015748},{"duration":0.14285699999999935,"midi":45,"time":44.571384,"velocity":0.3937007874015748},{"duration":0.14285700000000645,"midi":50,"time":45.142812,"velocity":0.3937007874015748},{"duration":0.14285700000000645,"midi":50,"time":45.142812,"velocity":0.3937007874015748},{"duration":0.14285699999999935,"midi":52,"time":45.285669000000006,"velocity":0.3937007874015748},{"duration":0.14285699999999935,"midi":52,"time":45.285669000000006,"velocity":0.3937007874015748},{"duration":0.5714279999999974,"midi":50,"time":45.428526000000005,"velocity":0.3937007874015748},{"duration":0.5714279999999974,"midi":53,"time":45.428526000000005,"velocity":0.3937007874015748},{"duration":0.5714279999999974,"midi":53,"time":45.428526000000005,"velocity":0.3937007874015748},{"duration":0.5714279999999974,"midi":50,"time":45.428526000000005,"velocity":0.3937007874015748},{"duration":0.5714279999999974,"midi":45,"time":45.428526000000005,"velocity":0.3937007874015748},{"duration":0.5714279999999974,"midi":45,"time":45.428526000000005,"velocity":0.3937007874015748},{"duration":0.14285700000000645,"midi":55,"time":45.999954,"velocity":0.3937007874015748},{"duration":0.14285700000000645,"midi":55,"time":45.999954,"velocity":0.3937007874015748},{"duration":0.14285699999999224,"midi":57,"time":46.14281100000001,"velocity":0.3937007874015748},{"duration":0.14285699999999224,"midi":57,"time":46.14281100000001,"velocity":0.3937007874015748},{"duration":0.2857140000000058,"midi":48,"time":46.285668,"velocity":0.3937007874015748},{"duration":0.2857140000000058,"midi":43,"time":46.285668,"velocity":0.3937007874015748},{"duration":0.2857140000000058,"midi":43,"time":46.285668,"velocity":0.3937007874015748},{"duration":0.2857140000000058,"midi":55,"time":46.285668,"velocity":0.3937007874015748},{"duration":0.2857140000000058,"midi":55,"time":46.285668,"velocity":0.3937007874015748},{"duration":0.2857140000000058,"midi":48,"time":46.285668,"velocity":0.3937007874015748},{"duration":0.2857139999999916,"midi":53,"time":46.57138200000001,"velocity":0.3937007874015748},{"duration":0.2857139999999916,"midi":48,"time":46.57138200000001,"velocity":0.3937007874015748},{"duration":0.2857139999999916,"midi":53,"time":46.57138200000001,"velocity":0.3937007874015748},{"duration":0.2857139999999916,"midi":43,"time":46.57138200000001,"velocity":0.3937007874015748},{"duration":0.2857139999999916,"midi":43,"time":46.57138200000001,"velocity":0.3937007874015748},{"duration":0.2857139999999916,"midi":48,"time":46.57138200000001,"velocity":0.3937007874015748},{"duration":0.2857140000000058,"midi":48,"time":46.857096,"velocity":0.3937007874015748},{"duration":0.2857140000000058,"midi":43,"time":46.857096,"velocity":0.3937007874015748},{"duration":0.2857140000000058,"midi":52,"time":46.857096,"velocity":0.3937007874015748},{"duration":0.2857140000000058,"midi":43,"time":46.857096,"velocity":0.3937007874015748},{"duration":0.2857140000000058,"midi":52,"time":46.857096,"velocity":0.3937007874015748},{"duration":0.2857140000000058,"midi":48,"time":46.857096,"velocity":0.3937007874015748},{"duration":0.2857139999999987,"midi":53,"time":47.142810000000004,"velocity":0.3937007874015748},{"duration":0.2857139999999987,"midi":45,"time":47.142810000000004,"velocity":0.3937007874015748},{"duration":0.2857139999999987,"midi":48,"time":47.142810000000004,"velocity":0.3937007874015748},{"duration":0.2857139999999987,"midi":53,"time":47.142810000000004,"velocity":0.3937007874015748},{"duration":0.2857139999999987,"midi":48,"time":47.142810000000004,"velocity":0.3937007874015748},{"duration":0.2857139999999987,"midi":45,"time":47.142810000000004,"velocity":0.3937007874015748},{"duration":0.2857139999999987,"midi":45,"time":47.428524,"velocity":0.3937007874015748},{"duration":0.2857139999999987,"midi":55,"time":47.428524,"velocity":0.3937007874015748},{"duration":0.2857139999999987,"midi":48,"time":47.428524,"velocity":0.3937007874015748},{"duration":0.2857139999999987,"midi":45,"time":47.428524,"velocity":0.3937007874015748},{"duration":0.2857139999999987,"midi":48,"time":47.428524,"velocity":0.3937007874015748},{"duration":0.2857139999999987,"midi":55,"time":47.428524,"velocity":0.3937007874015748},{"duration":0.2857140000000058,"midi":48,"time":47.714238,"velocity":0.3937007874015748},{"duration":0.2857140000000058,"midi":48,"time":47.714238,"velocity":0.3937007874015748},{"duration":0.2857140000000058,"midi":45,"time":47.714238,"velocity":0.3937007874015748},{"duration":0.2857140000000058,"midi":57,"time":47.714238,"velocity":0.3937007874015748},{"duration":0.2857140000000058,"midi":45,"time":47.714238,"velocity":0.3937007874015748},{"duration":0.2857140000000058,"midi":57,"time":47.714238,"velocity":0.3937007874015748},{"duration":0.5714279999999974,"midi":52,"time":47.99995200000001,"velocity":0.3937007874015748},{"duration":0.5714279999999974,"midi":52,"time":47.99995200000001,"velocity":0.3937007874015748},{"duration":0.5714279999999974,"midi":55,"time":47.99995200000001,"velocity":0.3937007874015748},{"duration":0.5714279999999974,"midi":48,"time":47.99995200000001,"velocity":0.3937007874015748},{"duration":0.5714279999999974,"midi":55,"time":47.99995200000001,"velocity":0.3937007874015748},{"duration":0.5714279999999974,"midi":48,"time":47.99995200000001,"velocity":0.3937007874015748},{"duration":0.14285699999999935,"midi":53,"time":48.571380000000005,"velocity":0.3937007874015748},{"duration":0.14285699999999935,"midi":53,"time":48.571380000000005,"velocity":0.3937007874015748},{"duration":0.14285699999999935,"midi":55,"time":48.714237000000004,"velocity":0.3937007874015748},{"duration":0.14285699999999935,"midi":55,"time":48.714237000000004,"velocity":0.3937007874015748},{"duration":0.5714279999999974,"midi":57,"time":48.857094000000004,"velocity":0.3937007874015748},{"duration":0.5714279999999974,"midi":53,"time":48.857094000000004,"velocity":0.3937007874015748},{"duration":0.5714279999999974,"midi":57,"time":48.857094000000004,"velocity":0.3937007874015748},{"duration":0.5714279999999974,"midi":53,"time":48.857094000000004,"velocity":0.3937007874015748},{"duration":0.5714279999999974,"midi":50,"time":48.857094000000004,"velocity":0.3937007874015748},{"duration":0.5714279999999974,"midi":50,"time":48.857094000000004,"velocity":0.3937007874015748},{"duration":0.14285700000000645,"midi":55,"time":49.428522,"velocity":0.3937007874015748},{"duration":0.14285700000000645,"midi":55,"time":49.428522,"velocity":0.3937007874015748},{"duration":0.14285699999999935,"midi":53,"time":49.57137900000001,"velocity":0.3937007874015748},{"duration":0.14285699999999935,"midi":53,"time":49.57137900000001,"velocity":0.3937007874015748},{"duration":0.2857139999999987,"midi":49,"time":49.71423600000001,"velocity":0.3937007874015748},{"duration":0.2857139999999987,"midi":52,"time":49.71423600000001,"velocity":0.3937007874015748},{"duration":0.2857139999999987,"midi":52,"time":49.71423600000001,"velocity":0.3937007874015748},{"duration":0.2857139999999987,"midi":49,"time":49.71423600000001,"velocity":0.3937007874015748},{"duration":0.2857139999999987,"midi":49,"time":49.999950000000005,"velocity":0.3937007874015748},{"duration":0.2857139999999987,"midi":53,"time":49.999950000000005,"velocity":0.3937007874015748},{"duration":0.2857139999999987,"midi":53,"time":49.999950000000005,"velocity":0.3937007874015748},{"duration":0.2857139999999987,"midi":49,"time":49.999950000000005,"velocity":0.3937007874015748},{"duration":0.2857139999999987,"midi":49,"time":50.285664000000004,"velocity":0.3937007874015748},{"duration":0.2857139999999987,"midi":52,"time":50.285664000000004,"velocity":0.3937007874015748},{"duration":0.2857139999999987,"midi":49,"time":50.285664000000004,"velocity":0.3937007874015748},{"duration":0.2857139999999987,"midi":52,"time":50.285664000000004,"velocity":0.3937007874015748},{"duration":0.2857140000000058,"midi":41,"time":50.571378,"velocity":0.3937007874015748},{"duration":0.2857140000000058,"midi":45,"time":50.571378,"velocity":0.3937007874015748},{"duration":0.2857140000000058,"midi":50,"time":50.571378,"velocity":0.3937007874015748},{"duration":0.2857140000000058,"midi":45,"time":50.571378,"velocity":0.3937007874015748},{"duration":0.2857140000000058,"midi":50,"time":50.571378,"velocity":0.3937007874015748},{"duration":0.2857140000000058,"midi":41,"time":50.571378,"velocity":0.3937007874015748},{"duration":0.14285700000000645,"midi":52,"time":51.142806,"velocity":0.3937007874015748},{"duration":0.14285700000000645,"midi":52,"time":51.142806,"velocity":0.3937007874015748},{"duration":0.14285699999999935,"midi":48,"time":51.28566300000001,"velocity":0.3937007874015748},{"duration":0.14285699999999935,"midi":48,"time":51.28566300000001,"velocity":0.3937007874015748},{"duration":0.2857139999999987,"midi":41,"time":51.428520000000006,"velocity":0.3937007874015748},{"duration":0.2857139999999987,"midi":50,"time":51.428520000000006,"velocity":0.3937007874015748},{"duration":0.2857139999999987,"midi":41,"time":51.428520000000006,"velocity":0.3937007874015748},{"duration":0.2857139999999987,"midi":45,"time":51.428520000000006,"velocity":0.3937007874015748},{"duration":0.2857139999999987,"midi":50,"time":51.428520000000006,"velocity":0.3937007874015748},{"duration":0.2857139999999987,"midi":45,"time":51.428520000000006,"velocity":0.3937007874015748},{"duration":0.14285700000000645,"midi":62,"time":51.999948,"velocity":0.3937007874015748},{"duration":0.14285700000000645,"midi":62,"time":51.999948,"velocity":0.3937007874015748},{"duration":0.14285699999999224,"midi":64,"time":52.14280500000001,"velocity":0.3937007874015748},{"duration":0.14285699999999224,"midi":64,"time":52.14280500000001,"velocity":0.3937007874015748},{"duration":0.5714279999999974,"midi":57,"time":52.285662,"velocity":0.3937007874015748},{"duration":0.5714279999999974,"midi":57,"time":52.285662,"velocity":0.3937007874015748},{"duration":0.5714279999999974,"midi":65,"time":52.285662,"velocity":0.3937007874015748},{"duration":0.5714279999999974,"midi":65,"time":52.285662,"velocity":0.3937007874015748},{"duration":0.5714279999999974,"midi":62,"time":52.285662,"velocity":0.3937007874015748},{"duration":0.5714279999999974,"midi":62,"time":52.285662,"velocity":0.3937007874015748},{"duration":0.14285700000000645,"midi":64,"time":52.85709,"velocity":0.3937007874015748},{"duration":0.14285700000000645,"midi":64,"time":52.85709,"velocity":0.3937007874015748},{"duration":0.14285699999999935,"midi":65,"time":52.999947000000006,"velocity":0.3937007874015748},{"duration":0.14285699999999935,"midi":65,"time":52.999947000000006,"velocity":0.3937007874015748},{"duration":0.2857139999999987,"midi":67,"time":53.142804000000005,"velocity":0.3937007874015748},{"duration":0.2857139999999987,"midi":60,"time":53.142804000000005,"velocity":0.3937007874015748},{"duration":0.2857139999999987,"midi":55,"time":53.142804000000005,"velocity":0.3937007874015748},{"duration":0.2857139999999987,"midi":60,"time":53.142804000000005,"velocity":0.3937007874015748},{"duration":0.2857139999999987,"midi":55,"time":53.142804000000005,"velocity":0.3937007874015748},{"duration":0.2857139999999987,"midi":67,"time":53.142804000000005,"velocity":0.3937007874015748},{"duration":0.2857139999999987,"midi":60,"time":53.428518000000004,"velocity":0.3937007874015748},{"duration":0.2857139999999987,"midi":55,"time":53.428518000000004,"velocity":0.3937007874015748},{"duration":0.2857139999999987,"midi":55,"time":53.428518000000004,"velocity":0.3937007874015748},{"duration":0.2857139999999987,"midi":65,"time":53.428518000000004,"velocity":0.3937007874015748},{"duration":0.2857139999999987,"midi":60,"time":53.428518000000004,"velocity":0.3937007874015748},{"duration":0.2857139999999987,"midi":65,"time":53.428518000000004,"velocity":0.3937007874015748},{"duration":0.2857139999999987,"midi":67,"time":53.714232,"velocity":0.3937007874015748},{"duration":0.2857139999999987,"midi":67,"time":53.714232,"velocity":0.3937007874015748},{"duration":0.2857139999999987,"midi":60,"time":53.714232,"velocity":0.3937007874015748},{"duration":0.2857139999999987,"midi":55,"time":53.714232,"velocity":0.3937007874015748},{"duration":0.2857139999999987,"midi":60,"time":53.714232,"velocity":0.3937007874015748},{"duration":0.2857139999999987,"midi":55,"time":53.714232,"velocity":0.3937007874015748},{"duration":0.2857140000000058,"midi":65,"time":53.999946,"velocity":0.3937007874015748},{"duration":0.2857140000000058,"midi":69,"time":53.999946,"velocity":0.3937007874015748},{"duration":0.2857140000000058,"midi":69,"time":53.999946,"velocity":0.3937007874015748},{"duration":0.2857140000000058,"midi":65,"time":53.999946,"velocity":0.3937007874015748},{"duration":0.2857139999999987,"midi":67,"time":54.28566000000001,"velocity":0.3937007874015748},{"duration":0.2857139999999987,"midi":60,"time":54.28566000000001,"velocity":0.3937007874015748},{"duration":0.2857139999999987,"midi":67,"time":54.28566000000001,"velocity":0.3937007874015748},{"duration":0.2857139999999987,"midi":60,"time":54.28566000000001,"velocity":0.3937007874015748},{"duration":0.2857139999999987,"midi":60,"time":54.571374000000006,"velocity":0.3937007874015748},{"duration":0.2857139999999987,"midi":65,"time":54.571374000000006,"velocity":0.3937007874015748},{"duration":0.2857139999999987,"midi":60,"time":54.571374000000006,"velocity":0.3937007874015748},{"duration":0.2857139999999987,"midi":65,"time":54.571374000000006,"velocity":0.3937007874015748},{"duration":0.2857139999999987,"midi":62,"time":54.857088000000005,"velocity":0.3937007874015748},{"duration":0.2857139999999987,"midi":53,"time":54.857088000000005,"velocity":0.3937007874015748},{"duration":0.2857139999999987,"midi":62,"time":54.857088000000005,"velocity":0.3937007874015748},{"duration":0.2857139999999987,"midi":58,"time":54.857088000000005,"velocity":0.3937007874015748},{"duration":0.2857139999999987,"midi":53,"time":54.857088000000005,"velocity":0.3937007874015748},{"duration":0.2857139999999987,"midi":58,"time":54.857088000000005,"velocity":0.3937007874015748},{"duration":0.14285699999999224,"midi":62,"time":55.42851600000001,"velocity":0.3937007874015748},{"duration":0.14285699999999224,"midi":62,"time":55.42851600000001,"velocity":0.3937007874015748},{"duration":0.14285700000000645,"midi":64,"time":55.571373,"velocity":0.3937007874015748},{"duration":0.14285700000000645,"midi":64,"time":55.571373,"velocity":0.3937007874015748},{"duration":0.2857139999999916,"midi":57,"time":55.71423000000001,"velocity":0.3937007874015748},{"duration":0.2857139999999916,"midi":57,"time":55.71423000000001,"velocity":0.3937007874015748},{"duration":0.2857139999999916,"midi":65,"time":55.71423000000001,"velocity":0.3937007874015748},{"duration":0.2857139999999916,"midi":62,"time":55.71423000000001,"velocity":0.3937007874015748},{"duration":0.2857139999999916,"midi":62,"time":55.71423000000001,"velocity":0.3937007874015748},{"duration":0.2857139999999916,"midi":65,"time":55.71423000000001,"velocity":0.3937007874015748},{"duration":0.2857140000000129,"midi":57,"time":55.999944,"velocity":0.3937007874015748},{"duration":0.2857140000000129,"midi":62,"time":55.999944,"velocity":0.3937007874015748},{"duration":0.2857140000000129,"midi":67,"time":55.999944,"velocity":0.3937007874015748},{"duration":0.2857140000000129,"midi":57,"time":55.999944,"velocity":0.3937007874015748},{"duration":0.2857140000000129,"midi":67,"time":55.999944,"velocity":0.3937007874015748},{"duration":0.2857140000000129,"midi":62,"time":55.999944,"velocity":0.3937007874015748},{"duration":0.2857139999999916,"midi":69,"time":56.28565800000001,"velocity":0.3937007874015748},{"duration":0.2857139999999916,"midi":62,"time":56.28565800000001,"velocity":0.3937007874015748},{"duration":0.2857139999999916,"midi":69,"time":56.28565800000001,"velocity":0.3937007874015748},{"duration":0.2857139999999916,"midi":62,"time":56.28565800000001,"velocity":0.3937007874015748},{"duration":0.2857139999999987,"midi":70,"time":56.571372000000004,"velocity":0.3937007874015748},{"duration":0.2857139999999987,"midi":58,"time":56.571372000000004,"velocity":0.3937007874015748},{"duration":0.2857139999999987,"midi":62,"time":56.571372000000004,"velocity":0.3937007874015748},{"duration":0.2857139999999987,"midi":62,"time":56.571372000000004,"velocity":0.3937007874015748},{"duration":0.2857139999999987,"midi":58,"time":56.571372000000004,"velocity":0.3937007874015748},{"duration":0.2857139999999987,"midi":70,"time":56.571372000000004,"velocity":0.3937007874015748},{"duration":0.2857140000000058,"midi":62,"time":56.857086,"velocity":0.3937007874015748},{"duration":0.2857140000000058,"midi":62,"time":56.857086,"velocity":0.3937007874015748},{"duration":0.2857140000000058,"midi":58,"time":56.857086,"velocity":0.3937007874015748},{"duration":0.2857140000000058,"midi":58,"time":56.857086,"velocity":0.3937007874015748},{"duration":0.2857139999999987,"midi":62,"time":57.14280000000001,"velocity":0.3937007874015748},{"duration":0.2857139999999987,"midi":62,"time":57.14280000000001,"velocity":0.3937007874015748},{"duration":0.2857139999999987,"midi":67,"time":57.14280000000001,"velocity":0.3937007874015748},{"duration":0.2857139999999987,"midi":67,"time":57.14280000000001,"velocity":0.3937007874015748},{"duration":0.2857139999999916,"midi":65,"time":57.42851400000001,"velocity":0.3937007874015748},{"duration":0.2857139999999916,"midi":57,"time":57.42851400000001,"velocity":0.3937007874015748},{"duration":0.2857139999999916,"midi":65,"time":57.42851400000001,"velocity":0.3937007874015748},{"duration":0.2857139999999916,"midi":57,"time":57.42851400000001,"velocity":0.3937007874015748},{"duration":0.14285699999999224,"midi":67,"time":57.99994200000001,"velocity":0.3937007874015748},{"duration":0.14285699999999224,"midi":67,"time":57.99994200000001,"velocity":0.3937007874015748},{"duration":0.14285699999999935,"midi":64,"time":58.142799000000004,"velocity":0.3937007874015748},{"duration":0.14285699999999935,"midi":64,"time":58.142799000000004,"velocity":0.3937007874015748},{"duration":0.2857139999999987,"midi":57,"time":58.285656,"velocity":0.3937007874015748},{"duration":0.2857139999999987,"midi":57,"time":58.285656,"velocity":0.3937007874015748},{"duration":0.2857139999999987,"midi":62,"time":58.285656,"velocity":0.3937007874015748},{"duration":0.2857139999999987,"midi":62,"time":58.285656,"velocity":0.3937007874015748},{"duration":0.14285699999999224,"midi":64,"time":58.85708400000001,"velocity":0.3937007874015748},{"duration":0.14285699999999224,"midi":64,"time":58.85708400000001,"velocity":0.3937007874015748},{"duration":0.14285700000000645,"midi":61,"time":58.999941,"velocity":0.3937007874015748},{"duration":0.14285700000000645,"midi":61,"time":58.999941,"velocity":0.3937007874015748},{"duration":0.8571419999999961,"midi":62,"time":59.142798000000006,"velocity":0.3937007874015748},{"duration":0.8571419999999961,"midi":69,"time":59.142798000000006,"velocity":0.3937007874015748},{"duration":0.8571419999999961,"midi":69,"time":59.142798000000006,"velocity":0.3937007874015748},{"duration":0.8571419999999961,"midi":65,"time":59.142798000000006,"velocity":0.3937007874015748},{"duration":0.8571419999999961,"midi":62,"time":59.142798000000006,"velocity":0.3937007874015748},{"duration":0.8571419999999961,"midi":65,"time":59.142798000000006,"velocity":0.3937007874015748},{"duration":0.8571420000000032,"midi":70,"time":59.99994,"velocity":0.3937007874015748},{"duration":0.8571420000000032,"midi":70,"time":59.99994,"velocity":0.3937007874015748},{"duration":0.8571420000000032,"midi":65,"time":59.99994,"velocity":0.3937007874015748},{"duration":0.8571420000000032,"midi":62,"time":59.99994,"velocity":0.3937007874015748},{"duration":0.8571420000000032,"midi":65,"time":59.99994,"velocity":0.3937007874015748},{"duration":0.8571420000000032,"midi":62,"time":59.99994,"velocity":0.3937007874015748},{"duration":0.2857139999999987,"midi":65,"time":60.857082000000005,"velocity":0.3937007874015748},{"duration":0.2857139999999987,"midi":69,"time":60.857082000000005,"velocity":0.3937007874015748},{"duration":0.2857139999999987,"midi":69,"time":60.857082000000005,"velocity":0.3937007874015748},{"duration":0.2857139999999987,"midi":65,"time":60.857082000000005,"velocity":0.3937007874015748},{"duration":0.2857139999999987,"midi":60,"time":60.857082000000005,"velocity":0.3937007874015748},{"duration":0.2857139999999987,"midi":60,"time":60.857082000000005,"velocity":0.3937007874015748},{"duration":0.2857140000000058,"midi":60,"time":61.142796000000004,"velocity":0.3937007874015748},{"duration":0.2857140000000058,"midi":60,"time":61.142796000000004,"velocity":0.3937007874015748},{"duration":0.2857140000000058,"midi":65,"time":61.142796000000004,"velocity":0.3937007874015748},{"duration":0.2857140000000058,"midi":69,"time":61.142796000000004,"velocity":0.3937007874015748},{"duration":0.2857140000000058,"midi":65,"time":61.142796000000004,"velocity":0.3937007874015748},{"duration":0.2857140000000058,"midi":69,"time":61.142796000000004,"velocity":0.3937007874015748},{"duration":0.2857139999999916,"midi":65,"time":61.42851000000001,"velocity":0.3937007874015748},{"duration":0.2857139999999916,"midi":60,"time":61.42851000000001,"velocity":0.3937007874015748},{"duration":0.2857139999999916,"midi":60,"time":61.42851000000001,"velocity":0.3937007874015748},{"duration":0.2857139999999916,"midi":69,"time":61.42851000000001,"velocity":0.3937007874015748},{"duration":0.2857139999999916,"midi":65,"time":61.42851000000001,"velocity":0.3937007874015748},{"duration":0.2857139999999916,"midi":69,"time":61.42851000000001,"velocity":0.3937007874015748},{"duration":0.14285700000000645,"midi":69,"time":61.714224,"velocity":0.3937007874015748},{"duration":0.14285700000000645,"midi":65,"time":61.714224,"velocity":0.3937007874015748},{"duration":0.14285700000000645,"midi":60,"time":61.714224,"velocity":0.3937007874015748},{"duration":0.14285700000000645,"midi":65,"time":61.714224,"velocity":0.3937007874015748},{"duration":0.14285700000000645,"midi":69,"time":61.714224,"velocity":0.3937007874015748},{"duration":0.14285700000000645,"midi":60,"time":61.714224,"velocity":0.3937007874015748},{"duration":0.2857139999999987,"midi":67,"time":61.85708100000001,"velocity":0.3937007874015748},{"duration":0.2857139999999987,"midi":64,"time":61.85708100000001,"velocity":0.3937007874015748},{"duration":0.2857139999999987,"midi":64,"time":61.85708100000001,"velocity":0.3937007874015748},{"duration":0.2857139999999987,"midi":60,"time":61.85708100000001,"velocity":0.3937007874015748},{"duration":0.2857139999999987,"midi":67,"time":61.85708100000001,"velocity":0.3937007874015748},{"duration":0.2857139999999987,"midi":60,"time":61.85708100000001,"velocity":0.3937007874015748},{"duration":0.8571420000000032,"midi":62,"time":62.571366000000005,"velocity":0.3937007874015748},{"duration":0.8571420000000032,"midi":58,"time":62.571366000000005,"velocity":0.3937007874015748},{"duration":0.8571420000000032,"midi":58,"time":62.571366000000005,"velocity":0.3937007874015748},{"duration":0.8571420000000032,"midi":67,"time":62.571366000000005,"velocity":0.3937007874015748},{"duration":0.8571420000000032,"midi":62,"time":62.571366000000005,"velocity":0.3937007874015748},{"duration":0.8571420000000032,"midi":67,"time":62.571366000000005,"velocity":0.3937007874015748},{"duration":0.8571419999999961,"midi":65,"time":63.42850800000001,"velocity":0.3937007874015748},{"duration":0.8571419999999961,"midi":62,"time":63.42850800000001,"velocity":0.3937007874015748},{"duration":0.8571419999999961,"midi":65,"time":63.42850800000001,"velocity":0.3937007874015748},{"duration":0.8571419999999961,"midi":57,"time":63.42850800000001,"velocity":0.3937007874015748},{"duration":0.8571419999999961,"midi":62,"time":63.42850800000001,"velocity":0.3937007874015748},{"duration":0.8571419999999961,"midi":57,"time":63.42850800000001,"velocity":0.3937007874015748},{"duration":0.2857139999999987,"midi":64,"time":64.28565,"velocity":0.3937007874015748},{"duration":0.2857139999999987,"midi":64,"time":64.28565,"velocity":0.3937007874015748},{"duration":0.2857139999999987,"midi":61,"time":64.28565,"velocity":0.3937007874015748},{"duration":0.2857139999999987,"midi":61,"time":64.28565,"velocity":0.3937007874015748},{"duration":0.2857139999999987,"midi":57,"time":64.28565,"velocity":0.3937007874015748},{"duration":0.2857139999999987,"midi":57,"time":64.28565,"velocity":0.3937007874015748},{"duration":0.2857140000000129,"midi":65,"time":64.571364,"velocity":0.3937007874015748},{"duration":0.2857140000000129,"midi":57,"time":64.571364,"velocity":0.3937007874015748},{"duration":0.2857140000000129,"midi":65,"time":64.571364,"velocity":0.3937007874015748},{"duration":0.2857140000000129,"midi":57,"time":64.571364,"velocity":0.3937007874015748},{"duration":0.2857140000000129,"midi":61,"time":64.571364,"velocity":0.3937007874015748},{"duration":0.2857140000000129,"midi":61,"time":64.571364,"velocity":0.3937007874015748},{"duration":0.2857139999999845,"midi":61,"time":64.85707800000002,"velocity":0.3937007874015748},{"duration":0.2857139999999845,"midi":57,"time":64.85707800000002,"velocity":0.3937007874015748},{"duration":0.2857139999999845,"midi":61,"time":64.85707800000002,"velocity":0.3937007874015748},{"duration":0.2857139999999845,"midi":57,"time":64.85707800000002,"velocity":0.3937007874015748},{"duration":0.2857139999999845,"midi":64,"time":64.85707800000002,"velocity":0.3937007874015748},{"duration":0.2857139999999845,"midi":64,"time":64.85707800000002,"velocity":0.3937007874015748},{"duration":0.14285700000000645,"midi":64,"time":65.142792,"velocity":0.3937007874015748},{"duration":0.42857100000000514,"midi":57,"time":65.142792,"velocity":0.3937007874015748},{"duration":0.14285700000000645,"midi":64,"time":65.142792,"velocity":0.3937007874015748},{"duration":0.42857100000000514,"midi":57,"time":65.142792,"velocity":0.3937007874015748},{"duration":0.2857139999999987,"midi":62,"time":65.285649,"velocity":0.3937007874015748},{"duration":0.2857139999999987,"midi":62,"time":65.285649,"velocity":0.3937007874015748},{"duration":0.14285700000000645,"midi":50,"time":65.571363,"velocity":0.3937007874015748},{"duration":0.14285700000000645,"midi":62,"time":65.571363,"velocity":0.3937007874015748},{"duration":0.14285700000000645,"midi":62,"time":65.571363,"velocity":0.3937007874015748},{"duration":0.14285700000000645,"midi":50,"time":65.571363,"velocity":0.3937007874015748},{"duration":0.14285699999999224,"midi":52,"time":65.71422000000001,"velocity":0.3937007874015748},{"duration":0.14285699999999224,"midi":50,"time":65.71422000000001,"velocity":0.3937007874015748},{"duration":0.14285699999999224,"midi":64,"time":65.71422000000001,"velocity":0.3937007874015748},{"duration":0.14285699999999224,"midi":50,"time":65.71422000000001,"velocity":0.3937007874015748},{"duration":0.14285699999999224,"midi":52,"time":65.71422000000001,"velocity":0.3937007874015748},{"duration":0.14285699999999224,"midi":64,"time":65.71422000000001,"velocity":0.3937007874015748},{"duration":0.14285700000000645,"midi":65,"time":65.857077,"velocity":0.3937007874015748},{"duration":0.14285700000000645,"midi":53,"time":65.857077,"velocity":0.3937007874015748},{"duration":0.14285700000000645,"midi":65,"time":65.857077,"velocity":0.3937007874015748},{"duration":0.14285700000000645,"midi":53,"time":65.857077,"velocity":0.3937007874015748},{"duration":0.42857099999999093,"midi":57,"time":65.99993400000001,"velocity":0.3937007874015748},{"duration":0.42857099999999093,"midi":62,"time":65.99993400000001,"velocity":0.3937007874015748},{"duration":0.42857099999999093,"midi":69,"time":65.99993400000001,"velocity":0.3937007874015748},{"duration":0.42857099999999093,"midi":65,"time":65.99993400000001,"velocity":0.3937007874015748},{"duration":0.42857099999999093,"midi":65,"time":65.99993400000001,"velocity":0.3937007874015748},{"duration":0.42857099999999093,"midi":62,"time":65.99993400000001,"velocity":0.3937007874015748},{"duration":0.42857099999999093,"midi":69,"time":65.99993400000001,"velocity":0.3937007874015748},{"duration":0.42857099999999093,"midi":57,"time":65.99993400000001,"velocity":0.3937007874015748},{"duration":0.14285700000000645,"midi":50,"time":66.428505,"velocity":0.3937007874015748},{"duration":0.14285700000000645,"midi":62,"time":66.428505,"velocity":0.3937007874015748},{"duration":0.14285700000000645,"midi":62,"time":66.428505,"velocity":0.3937007874015748},{"duration":0.14285700000000645,"midi":50,"time":66.428505,"velocity":0.3937007874015748},{"duration":0.14285699999999224,"midi":50,"time":66.57136200000001,"velocity":0.3937007874015748},{"duration":0.14285699999999224,"midi":64,"time":66.57136200000001,"velocity":0.3937007874015748},{"duration":0.14285699999999224,"midi":52,"time":66.57136200000001,"velocity":0.3937007874015748},{"duration":0.14285699999999224,"midi":50,"time":66.57136200000001,"velocity":0.3937007874015748},{"duration":0.14285699999999224,"midi":64,"time":66.57136200000001,"velocity":0.3937007874015748},{"duration":0.14285699999999224,"midi":52,"time":66.57136200000001,"velocity":0.3937007874015748},{"duration":0.14285700000000645,"midi":53,"time":66.714219,"velocity":0.3937007874015748},{"duration":0.14285700000000645,"midi":53,"time":66.714219,"velocity":0.3937007874015748},{"duration":0.14285700000000645,"midi":65,"time":66.714219,"velocity":0.3937007874015748},{"duration":0.14285700000000645,"midi":65,"time":66.714219,"velocity":0.3937007874015748},{"duration":0.42857100000000514,"midi":70,"time":66.857076,"velocity":0.3937007874015748},{"duration":0.42857100000000514,"midi":65,"time":66.857076,"velocity":0.3937007874015748},{"duration":0.42857100000000514,"midi":65,"time":66.857076,"velocity":0.3937007874015748},{"duration":0.42857100000000514,"midi":62,"time":66.857076,"velocity":0.3937007874015748},{"duration":0.42857100000000514,"midi":58,"time":66.857076,"velocity":0.3937007874015748},{"duration":0.42857100000000514,"midi":62,"time":66.857076,"velocity":0.3937007874015748},{"duration":0.42857100000000514,"midi":58,"time":66.857076,"velocity":0.3937007874015748},{"duration":0.42857100000000514,"midi":70,"time":66.857076,"velocity":0.3937007874015748},{"duration":0.14285699999999224,"midi":62,"time":67.28564700000001,"velocity":0.3937007874015748},{"duration":0.14285699999999224,"midi":50,"time":67.28564700000001,"velocity":0.3937007874015748},{"duration":0.14285699999999224,"midi":62,"time":67.28564700000001,"velocity":0.3937007874015748},{"duration":0.14285699999999224,"midi":50,"time":67.28564700000001,"velocity":0.3937007874015748},{"duration":0.14285699999999224,"midi":52,"time":67.428504,"velocity":0.3937007874015748},{"duration":0.14285699999999224,"midi":64,"time":67.428504,"velocity":0.3937007874015748},{"duration":0.14285699999999224,"midi":64,"time":67.428504,"velocity":0.3937007874015748},{"duration":0.14285699999999224,"midi":52,"time":67.428504,"velocity":0.3937007874015748},{"duration":0.14285700000000645,"midi":53,"time":67.571361,"velocity":0.3937007874015748},{"duration":0.14285700000000645,"midi":65,"time":67.571361,"velocity":0.3937007874015748},{"duration":0.14285700000000645,"midi":53,"time":67.571361,"velocity":0.3937007874015748},{"duration":0.14285700000000645,"midi":65,"time":67.571361,"velocity":0.3937007874015748},{"duration":0.2857139999999987,"midi":69,"time":67.714218,"velocity":0.3937007874015748},{"duration":0.2857139999999987,"midi":69,"time":67.714218,"velocity":0.3937007874015748},{"duration":0.2857139999999987,"midi":60,"time":67.714218,"velocity":0.3937007874015748},{"duration":0.2857139999999987,"midi":57,"time":67.714218,"velocity":0.3937007874015748},{"duration":0.2857139999999987,"midi":60,"time":67.714218,"velocity":0.3937007874015748},{"duration":0.2857139999999987,"midi":65,"time":67.714218,"velocity":0.3937007874015748},{"duration":0.2857139999999987,"midi":57,"time":67.714218,"velocity":0.3937007874015748},{"duration":0.2857139999999987,"midi":65,"time":67.714218,"velocity":0.3937007874015748},{"duration":0.2857140000000129,"midi":57,"time":67.999932,"velocity":0.3937007874015748},{"duration":0.2857140000000129,"midi":69,"time":67.999932,"velocity":0.3937007874015748},{"duration":0.2857140000000129,"midi":65,"time":67.999932,"velocity":0.3937007874015748},{"duration":0.2857140000000129,"midi":57,"time":67.999932,"velocity":0.3937007874015748},{"duration":0.2857140000000129,"midi":60,"time":67.999932,"velocity":0.3937007874015748},{"duration":0.2857140000000129,"midi":65,"time":67.999932,"velocity":0.3937007874015748},{"duration":0.2857140000000129,"midi":60,"time":67.999932,"velocity":0.3937007874015748},{"duration":0.2857140000000129,"midi":69,"time":67.999932,"velocity":0.3937007874015748},{"duration":0.2857139999999845,"midi":69,"time":68.28564600000001,"velocity":0.3937007874015748},{"duration":0.2857139999999845,"midi":72,"time":68.28564600000001,"velocity":0.3937007874015748},{"duration":0.2857139999999845,"midi":60,"time":68.28564600000001,"velocity":0.3937007874015748},{"duration":0.2857139999999845,"midi":69,"time":68.28564600000001,"velocity":0.3937007874015748},{"duration":0.2857139999999845,"midi":65,"time":68.28564600000001,"velocity":0.3937007874015748},{"duration":0.2857139999999845,"midi":72,"time":68.28564600000001,"velocity":0.3937007874015748},{"duration":0.2857139999999845,"midi":65,"time":68.28564600000001,"velocity":0.3937007874015748},{"duration":0.2857139999999845,"midi":60,"time":68.28564600000001,"velocity":0.3937007874015748},{"duration":0.14285700000000645,"midi":57,"time":68.57136,"velocity":0.3937007874015748},{"duration":0.14285700000000645,"midi":65,"time":68.57136,"velocity":0.3937007874015748},{"duration":0.14285700000000645,"midi":57,"time":68.57136,"velocity":0.3937007874015748},{"duration":0.14285700000000645,"midi":60,"time":68.57136,"velocity":0.3937007874015748},{"duration":0.14285700000000645,"midi":60,"time":68.57136,"velocity":0.3937007874015748},{"duration":0.14285700000000645,"midi":69,"time":68.57136,"velocity":0.3937007874015748},{"duration":0.14285700000000645,"midi":69,"time":68.57136,"velocity":0.3937007874015748},{"duration":0.14285700000000645,"midi":65,"time":68.57136,"velocity":0.3937007874015748},{"duration":0.14285699999999224,"midi":67,"time":68.714217,"velocity":0.3937007874015748},{"duration":0.14285699999999224,"midi":67,"time":68.714217,"velocity":0.3937007874015748},{"duration":0.14285699999999224,"midi":55,"time":68.714217,"velocity":0.3937007874015748},{"duration":0.14285699999999224,"midi":55,"time":68.714217,"velocity":0.3937007874015748},{"duration":0.8571419999999961,"midi":67,"time":69.42850200000001,"velocity":0.3937007874015748},{"duration":0.8571419999999961,"midi":62,"time":69.42850200000001,"velocity":0.3937007874015748},{"duration":0.7142849999999896,"midi":55,"time":69.42850200000001,"velocity":0.3937007874015748},{"duration":0.8571419999999961,"midi":67,"time":69.42850200000001,"velocity":0.3937007874015748},{"duration":0.7142849999999896,"midi":55,"time":69.42850200000001,"velocity":0.3937007874015748},{"duration":0.8571419999999961,"midi":62,"time":69.42850200000001,"velocity":0.3937007874015748},{"duration":0.8571419999999961,"midi":58,"time":69.42850200000001,"velocity":0.3937007874015748},{"duration":0.8571419999999961,"midi":58,"time":69.42850200000001,"velocity":0.3937007874015748},{"duration":0.8571419999999961,"midi":57,"time":70.285644,"velocity":0.3937007874015748},{"duration":0.8571419999999961,"midi":57,"time":70.285644,"velocity":0.3937007874015748},{"duration":0.8571419999999961,"midi":65,"time":70.285644,"velocity":0.3937007874015748},{"duration":0.8571419999999961,"midi":62,"time":70.285644,"velocity":0.3937007874015748},{"duration":0.8571419999999961,"midi":53,"time":70.285644,"velocity":0.3937007874015748},{"duration":0.8571419999999961,"midi":62,"time":70.285644,"velocity":0.3937007874015748},{"duration":0.8571419999999961,"midi":65,"time":70.285644,"velocity":0.3937007874015748},{"duration":0.8571419999999961,"midi":53,"time":70.285644,"velocity":0.3937007874015748},{"duration":0.2857139999999987,"midi":57,"time":71.142786,"velocity":0.3937007874015748},{"duration":0.2857139999999987,"midi":57,"time":71.142786,"velocity":0.3937007874015748},{"duration":0.2857139999999987,"midi":61,"time":71.142786,"velocity":0.3937007874015748},{"duration":0.2857139999999987,"midi":52,"time":71.142786,"velocity":0.3937007874015748},{"duration":0.2857139999999987,"midi":61,"time":71.142786,"velocity":0.3937007874015748},{"duration":0.2857139999999987,"midi":64,"time":71.142786,"velocity":0.3937007874015748},{"duration":0.2857139999999987,"midi":64,"time":71.142786,"velocity":0.3937007874015748},{"duration":0.2857139999999987,"midi":52,"time":71.142786,"velocity":0.3937007874015748},{"duration":0.2857140000000129,"midi":65,"time":71.4285,"velocity":0.3937007874015748},{"duration":0.2857140000000129,"midi":57,"time":71.4285,"velocity":0.3937007874015748},{"duration":0.2857140000000129,"midi":53,"time":71.4285,"velocity":0.3937007874015748},{"duration":0.2857140000000129,"midi":61,"time":71.4285,"velocity":0.3937007874015748},{"duration":0.2857140000000129,"midi":53,"time":71.4285,"velocity":0.3937007874015748},{"duration":0.2857140000000129,"midi":65,"time":71.4285,"velocity":0.3937007874015748},{"duration":0.2857140000000129,"midi":61,"time":71.4285,"velocity":0.3937007874015748},{"duration":0.2857140000000129,"midi":57,"time":71.4285,"velocity":0.3937007874015748},{"duration":0.2857139999999987,"midi":52,"time":71.71421400000001,"velocity":0.3937007874015748},{"duration":0.2857139999999987,"midi":61,"time":71.71421400000001,"velocity":0.3937007874015748},{"duration":0.2857139999999987,"midi":57,"time":71.71421400000001,"velocity":0.3937007874015748},{"duration":0.2857139999999987,"midi":64,"time":71.71421400000001,"velocity":0.3937007874015748},{"duration":0.2857139999999987,"midi":57,"time":71.71421400000001,"velocity":0.3937007874015748},{"duration":0.2857139999999987,"midi":64,"time":71.71421400000001,"velocity":0.3937007874015748},{"duration":0.2857139999999987,"midi":52,"time":71.71421400000001,"velocity":0.3937007874015748},{"duration":0.2857139999999987,"midi":61,"time":71.71421400000001,"velocity":0.3937007874015748},{"duration":0.42857099999999093,"midi":57,"time":71.99992800000001,"velocity":0.3937007874015748},{"duration":0.42857099999999093,"midi":50,"time":71.99992800000001,"velocity":0.3937007874015748},{"duration":0.42857099999999093,"midi":62,"time":71.99992800000001,"velocity":0.3937007874015748},{"duration":0.42857099999999093,"midi":53,"time":71.99992800000001,"velocity":0.3937007874015748},{"duration":0.42857099999999093,"midi":53,"time":71.99992800000001,"velocity":0.3937007874015748},{"duration":0.42857099999999093,"midi":50,"time":71.99992800000001,"velocity":0.3937007874015748},{"duration":0.42857099999999093,"midi":57,"time":71.99992800000001,"velocity":0.3937007874015748},{"duration":0.42857099999999093,"midi":62,"time":71.99992800000001,"velocity":0.3937007874015748},{"duration":0.14285699999999224,"midi":45,"time":72.57135600000001,"velocity":0.3937007874015748},{"duration":0.14285699999999224,"midi":45,"time":72.57135600000001,"velocity":0.3937007874015748},{"duration":0.14285700000000645,"midi":48,"time":72.714213,"velocity":0.3937007874015748},{"duration":0.14285700000000645,"midi":48,"time":72.714213,"velocity":0.3937007874015748},{"duration":0.14285700000000645,"midi":50,"time":72.85707000000001,"velocity":0.3937007874015748},{"duration":0.14285700000000645,"midi":45,"time":72.85707000000001,"velocity":0.3937007874015748},{"duration":0.14285700000000645,"midi":41,"time":72.85707000000001,"velocity":0.3937007874015748},{"duration":0.14285700000000645,"midi":41,"time":72.85707000000001,"velocity":0.3937007874015748},{"duration":0.14285700000000645,"midi":45,"time":72.85707000000001,"velocity":0.3937007874015748},{"duration":0.14285700000000645,"midi":50,"time":72.85707000000001,"velocity":0.3937007874015748},{"duration":0.14285700000000645,"midi":50,"time":73.142784,"velocity":0.3937007874015748},{"duration":0.14285700000000645,"midi":50,"time":73.142784,"velocity":0.3937007874015748},{"duration":0.14285700000000645,"midi":45,"time":73.142784,"velocity":0.3937007874015748},{"duration":0.14285700000000645,"midi":41,"time":73.142784,"velocity":0.3937007874015748},{"duration":0.14285700000000645,"midi":45,"time":73.142784,"velocity":0.3937007874015748},{"duration":0.14285700000000645,"midi":41,"time":73.142784,"velocity":0.3937007874015748},{"duration":0.14285699999999224,"midi":41,"time":73.428498,"velocity":0.3937007874015748},{"duration":0.14285699999999224,"midi":45,"time":73.428498,"velocity":0.3937007874015748},{"duration":0.14285699999999224,"midi":41,"time":73.428498,"velocity":0.3937007874015748},{"duration":0.14285699999999224,"midi":50,"time":73.428498,"velocity":0.3937007874015748},{"duration":0.14285699999999224,"midi":45,"time":73.428498,"velocity":0.3937007874015748},{"duration":0.14285699999999224,"midi":50,"time":73.428498,"velocity":0.3937007874015748},{"duration":0.14285700000000645,"midi":52,"time":73.571355,"velocity":0.3937007874015748},{"duration":0.14285700000000645,"midi":52,"time":73.571355,"velocity":0.3937007874015748},{"duration":0.14285700000000645,"midi":46,"time":73.714212,"velocity":0.3937007874015748},{"duration":0.14285700000000645,"midi":50,"time":73.714212,"velocity":0.3937007874015748},{"duration":0.14285700000000645,"midi":53,"time":73.714212,"velocity":0.3937007874015748},{"duration":0.14285700000000645,"midi":46,"time":73.714212,"velocity":0.3937007874015748},{"duration":0.14285700000000645,"midi":50,"time":73.714212,"velocity":0.3937007874015748},{"duration":0.14285700000000645,"midi":53,"time":73.714212,"velocity":0.3937007874015748},{"duration":0.14285700000000645,"midi":53,"time":73.999926,"velocity":0.3937007874015748},{"duration":0.14285700000000645,"midi":53,"time":73.999926,"velocity":0.3937007874015748},{"duration":0.14285700000000645,"midi":50,"time":73.999926,"velocity":0.3937007874015748},{"duration":0.14285700000000645,"midi":46,"time":73.999926,"velocity":0.3937007874015748},{"duration":0.14285700000000645,"midi":50,"time":73.999926,"velocity":0.3937007874015748},{"duration":0.14285700000000645,"midi":46,"time":73.999926,"velocity":0.3937007874015748},{"duration":0.14285699999999224,"midi":53,"time":74.28564000000001,"velocity":0.3937007874015748},{"duration":0.14285699999999224,"midi":53,"time":74.28564000000001,"velocity":0.3937007874015748},{"duration":0.14285699999999224,"midi":50,"time":74.28564000000001,"velocity":0.3937007874015748},{"duration":0.14285699999999224,"midi":46,"time":74.28564000000001,"velocity":0.3937007874015748},{"duration":0.14285699999999224,"midi":46,"time":74.28564000000001,"velocity":0.3937007874015748},{"duration":0.14285699999999224,"midi":50,"time":74.28564000000001,"velocity":0.3937007874015748},{"duration":0.14285699999999224,"midi":55,"time":74.42849700000001,"velocity":0.3937007874015748},{"duration":0.14285699999999224,"midi":55,"time":74.42849700000001,"velocity":0.3937007874015748},{"duration":0.14285700000000645,"midi":52,"time":74.571354,"velocity":0.3937007874015748},{"duration":0.14285700000000645,"midi":45,"time":74.571354,"velocity":0.3937007874015748},{"duration":0.14285700000000645,"midi":48,"time":74.571354,"velocity":0.3937007874015748},{"duration":0.14285700000000645,"midi":48,"time":74.571354,"velocity":0.3937007874015748},{"duration":0.14285700000000645,"midi":52,"time":74.571354,"velocity":0.3937007874015748},{"duration":0.14285700000000645,"midi":45,"time":74.571354,"velocity":0.3937007874015748},{"duration":0.14285700000000645,"midi":52,"time":74.857068,"velocity":0.3937007874015748},{"duration":0.14285700000000645,"midi":48,"time":74.857068,"velocity":0.3937007874015748},{"duration":0.14285700000000645,"midi":48,"time":74.857068,"velocity":0.3937007874015748},{"duration":0.14285700000000645,"midi":45,"time":74.857068,"velocity":0.3937007874015748},{"duration":0.14285700000000645,"midi":45,"time":74.857068,"velocity":0.3937007874015748},{"duration":0.14285700000000645,"midi":52,"time":74.857068,"velocity":0.3937007874015748},{"duration":0.14285699999999224,"midi":50,"time":75.14278200000001,"velocity":0.3937007874015748},{"duration":0.14285699999999224,"midi":45,"time":75.14278200000001,"velocity":0.3937007874015748},{"duration":0.14285699999999224,"midi":50,"time":75.14278200000001,"velocity":0.3937007874015748},{"duration":0.14285699999999224,"midi":45,"time":75.14278200000001,"velocity":0.3937007874015748},{"duration":0.14285700000000645,"midi":48,"time":75.285639,"velocity":0.3937007874015748},{"duration":0.14285700000000645,"midi":48,"time":75.285639,"velocity":0.3937007874015748},{"duration":0.14285700000000645,"midi":41,"time":75.42849600000001,"velocity":0.3937007874015748},{"duration":0.14285700000000645,"midi":48,"time":75.42849600000001,"velocity":0.3937007874015748},{"duration":0.14285700000000645,"midi":48,"time":75.42849600000001,"velocity":0.3937007874015748},{"duration":0.14285700000000645,"midi":41,"time":75.42849600000001,"velocity":0.3937007874015748},{"duration":0.42857099999999093,"midi":41,"time":75.57135300000002,"velocity":0.3937007874015748},{"duration":0.42857099999999093,"midi":50,"time":75.57135300000002,"velocity":0.3937007874015748},{"duration":0.42857099999999093,"midi":45,"time":75.57135300000002,"velocity":0.3937007874015748},{"duration":0.42857099999999093,"midi":41,"time":75.57135300000002,"velocity":0.3937007874015748},{"duration":0.42857099999999093,"midi":50,"time":75.57135300000002,"velocity":0.3937007874015748},{"duration":0.42857099999999093,"midi":45,"time":75.57135300000002,"velocity":0.3937007874015748},{"duration":0.14285699999999224,"midi":45,"time":75.99992400000001,"velocity":0.3937007874015748},{"duration":0.14285699999999224,"midi":45,"time":75.99992400000001,"velocity":0.3937007874015748},{"duration":0.14285700000000645,"midi":48,"time":76.142781,"velocity":0.3937007874015748},{"duration":0.14285700000000645,"midi":48,"time":76.142781,"velocity":0.3937007874015748},{"duration":0.14285700000000645,"midi":50,"time":76.285638,"velocity":0.3937007874015748},{"duration":0.14285700000000645,"midi":50,"time":76.285638,"velocity":0.3937007874015748},{"duration":0.14285700000000645,"midi":41,"time":76.285638,"velocity":0.3937007874015748},{"duration":0.14285700000000645,"midi":46,"time":76.285638,"velocity":0.3937007874015748},{"duration":0.14285700000000645,"midi":41,"time":76.285638,"velocity":0.3937007874015748},{"duration":0.14285700000000645,"midi":46,"time":76.285638,"velocity":0.3937007874015748},{"duration":0.14285700000000645,"midi":46,"time":76.571352,"velocity":0.3937007874015748},{"duration":0.14285700000000645,"midi":50,"time":76.571352,"velocity":0.3937007874015748},{"duration":0.14285700000000645,"midi":41,"time":76.571352,"velocity":0.3937007874015748},{"duration":0.14285700000000645,"midi":50,"time":76.571352,"velocity":0.3937007874015748},{"duration":0.14285700000000645,"midi":41,"time":76.571352,"velocity":0.3937007874015748},{"duration":0.14285700000000645,"midi":46,"time":76.571352,"velocity":0.3937007874015748},{"duration":0.14285699999997803,"midi":41,"time":76.85706600000002,"velocity":0.3937007874015748},{"duration":0.14285699999997803,"midi":46,"time":76.85706600000002,"velocity":0.3937007874015748},{"duration":0.14285699999997803,"midi":41,"time":76.85706600000002,"velocity":0.3937007874015748},{"duration":0.14285699999997803,"midi":50,"time":76.85706600000002,"velocity":0.3937007874015748},{"duration":0.14285699999997803,"midi":50,"time":76.85706600000002,"velocity":0.3937007874015748},{"duration":0.14285699999997803,"midi":46,"time":76.85706600000002,"velocity":0.3937007874015748},{"duration":0.14285700000000645,"midi":52,"time":76.999923,"velocity":0.3937007874015748},{"duration":0.14285700000000645,"midi":52,"time":76.999923,"velocity":0.3937007874015748},{"duration":0.14285700000000645,"midi":53,"time":77.14278,"velocity":0.3937007874015748},{"duration":0.14285700000000645,"midi":48,"time":77.14278,"velocity":0.3937007874015748},{"duration":0.14285700000000645,"midi":53,"time":77.14278,"velocity":0.3937007874015748},{"duration":0.14285700000000645,"midi":45,"time":77.14278,"velocity":0.3937007874015748},{"duration":0.14285700000000645,"midi":45,"time":77.14278,"velocity":0.3937007874015748},{"duration":0.14285700000000645,"midi":48,"time":77.14278,"velocity":0.3937007874015748},{"duration":0.14285700000000645,"midi":48,"time":77.428494,"velocity":0.3937007874015748},{"duration":0.14285700000000645,"midi":48,"time":77.428494,"velocity":0.3937007874015748},{"duration":0.14285700000000645,"midi":45,"time":77.428494,"velocity":0.3937007874015748},{"duration":0.14285700000000645,"midi":45,"time":77.428494,"velocity":0.3937007874015748},{"duration":0.14285700000000645,"midi":53,"time":77.428494,"velocity":0.3937007874015748},{"duration":0.14285700000000645,"midi":53,"time":77.428494,"velocity":0.3937007874015748},{"duration":0.14285699999999224,"midi":45,"time":77.71420800000001,"velocity":0.3937007874015748},{"duration":0.14285699999999224,"midi":53,"time":77.71420800000001,"velocity":0.3937007874015748},{"duration":0.14285699999999224,"midi":53,"time":77.71420800000001,"velocity":0.3937007874015748},{"duration":0.14285699999999224,"midi":48,"time":77.71420800000001,"velocity":0.3937007874015748},{"duration":0.14285699999999224,"midi":48,"time":77.71420800000001,"velocity":0.3937007874015748},{"duration":0.14285699999999224,"midi":45,"time":77.71420800000001,"velocity":0.3937007874015748},{"duration":0.14285700000000645,"midi":55,"time":77.857065,"velocity":0.3937007874015748},{"duration":0.14285700000000645,"midi":55,"time":77.857065,"velocity":0.3937007874015748},{"duration":0.14285699999999224,"midi":52,"time":77.99992200000001,"velocity":0.3937007874015748},{"duration":0.14285699999999224,"midi":52,"time":77.99992200000001,"velocity":0.3937007874015748},{"duration":0.14285699999999224,"midi":45,"time":77.99992200000001,"velocity":0.3937007874015748},{"duration":0.14285699999999224,"midi":45,"time":77.99992200000001,"velocity":0.3937007874015748},{"duration":0.14285699999999224,"midi":48,"time":77.99992200000001,"velocity":0.3937007874015748},{"duration":0.14285699999999224,"midi":48,"time":77.99992200000001,"velocity":0.3937007874015748},{"duration":0.14285700000000645,"midi":52,"time":78.285636,"velocity":0.3937007874015748},{"duration":0.14285700000000645,"midi":48,"time":78.285636,"velocity":0.3937007874015748},{"duration":0.14285700000000645,"midi":48,"time":78.285636,"velocity":0.3937007874015748},{"duration":0.14285700000000645,"midi":52,"time":78.285636,"velocity":0.3937007874015748},{"duration":0.14285700000000645,"midi":45,"time":78.285636,"velocity":0.3937007874015748},{"duration":0.14285700000000645,"midi":45,"time":78.285636,"velocity":0.3937007874015748},{"duration":0.14285699999999224,"midi":50,"time":78.57135000000001,"velocity":0.3937007874015748},{"duration":0.14285699999999224,"midi":45,"time":78.57135000000001,"velocity":0.3937007874015748},{"duration":0.14285699999999224,"midi":50,"time":78.57135000000001,"velocity":0.3937007874015748},{"duration":0.14285699999999224,"midi":45,"time":78.57135000000001,"velocity":0.3937007874015748},{"duration":0.14285700000000645,"midi":48,"time":78.714207,"velocity":0.3937007874015748},{"duration":0.14285700000000645,"midi":48,"time":78.714207,"velocity":0.3937007874015748},{"duration":0.42857100000000514,"midi":45,"time":78.85706400000001,"velocity":0.3937007874015748},{"duration":0.42857100000000514,"midi":50,"time":78.85706400000001,"velocity":0.3937007874015748},{"duration":0.42857100000000514,"midi":41,"time":78.85706400000001,"velocity":0.3937007874015748},{"duration":0.42857100000000514,"midi":50,"time":78.85706400000001,"velocity":0.3937007874015748},{"duration":0.42857100000000514,"midi":45,"time":78.85706400000001,"velocity":0.3937007874015748},{"duration":0.42857100000000514,"midi":41,"time":78.85706400000001,"velocity":0.3937007874015748},{"duration":0.14285699999999224,"midi":45,"time":79.428492,"velocity":0.3937007874015748},{"duration":0.14285699999999224,"midi":45,"time":79.428492,"velocity":0.3937007874015748},{"duration":0.14285700000000645,"midi":48,"time":79.571349,"velocity":0.3937007874015748},{"duration":0.14285700000000645,"midi":48,"time":79.571349,"velocity":0.3937007874015748},{"duration":0.14285700000000645,"midi":41,"time":79.714206,"velocity":0.3937007874015748},{"duration":0.14285700000000645,"midi":45,"time":79.714206,"velocity":0.3937007874015748},{"duration":0.14285700000000645,"midi":45,"time":79.714206,"velocity":0.3937007874015748},{"duration":0.14285700000000645,"midi":50,"time":79.714206,"velocity":0.3937007874015748},{"duration":0.14285700000000645,"midi":50,"time":79.714206,"velocity":0.3937007874015748},{"duration":0.14285700000000645,"midi":41,"time":79.714206,"velocity":0.3937007874015748},{"duration":0.14285700000000645,"midi":50,"time":79.99992,"velocity":0.3937007874015748},{"duration":0.14285700000000645,"midi":45,"time":79.99992,"velocity":0.3937007874015748},{"duration":0.14285700000000645,"midi":45,"time":79.99992,"velocity":0.3937007874015748},{"duration":0.14285700000000645,"midi":50,"time":79.99992,"velocity":0.3937007874015748},{"duration":0.14285700000000645,"midi":41,"time":79.99992,"velocity":0.3937007874015748},{"duration":0.14285700000000645,"midi":41,"time":79.99992,"velocity":0.3937007874015748},{"duration":0.14285699999999224,"midi":50,"time":80.28563400000002,"velocity":0.3937007874015748},{"duration":0.14285699999999224,"midi":41,"time":80.28563400000002,"velocity":0.3937007874015748},{"duration":0.14285699999999224,"midi":50,"time":80.28563400000002,"velocity":0.3937007874015748},{"duration":0.14285699999999224,"midi":41,"time":80.28563400000002,"velocity":0.3937007874015748},{"duration":0.14285699999999224,"midi":41,"time":80.42849100000001,"velocity":0.3937007874015748},{"duration":0.14285699999999224,"midi":41,"time":80.42849100000001,"velocity":0.3937007874015748},{"duration":0.14285699999999224,"midi":53,"time":80.42849100000001,"velocity":0.3937007874015748},{"duration":0.14285699999999224,"midi":53,"time":80.42849100000001,"velocity":0.3937007874015748},{"duration":0.14285700000000645,"midi":55,"time":80.571348,"velocity":0.3937007874015748},{"duration":0.14285700000000645,"midi":50,"time":80.571348,"velocity":0.3937007874015748},{"duration":0.14285700000000645,"midi":55,"time":80.571348,"velocity":0.3937007874015748},{"duration":0.14285700000000645,"midi":50,"time":80.571348,"velocity":0.3937007874015748},{"duration":0.14285700000000645,"midi":46,"time":80.571348,"velocity":0.3937007874015748},{"duration":0.14285700000000645,"midi":46,"time":80.571348,"velocity":0.3937007874015748},{"duration":0.14285700000000645,"midi":50,"time":80.857062,"velocity":0.3937007874015748},{"duration":0.14285700000000645,"midi":46,"time":80.857062,"velocity":0.3937007874015748},{"duration":0.14285700000000645,"midi":55,"time":80.857062,"velocity":0.3937007874015748},{"duration":0.14285700000000645,"midi":50,"time":80.857062,"velocity":0.3937007874015748},{"duration":0.14285700000000645,"midi":55,"time":80.857062,"velocity":0.3937007874015748},{"duration":0.14285700000000645,"midi":46,"time":80.857062,"velocity":0.3937007874015748},{"duration":0.14285699999999224,"midi":55,"time":81.14277600000001,"velocity":0.3937007874015748},{"duration":0.14285699999999224,"midi":46,"time":81.14277600000001,"velocity":0.3937007874015748},{"duration":0.14285699999999224,"midi":55,"time":81.14277600000001,"velocity":0.3937007874015748},{"duration":0.14285699999999224,"midi":50,"time":81.14277600000001,"velocity":0.3937007874015748},{"duration":0.14285699999999224,"midi":46,"time":81.14277600000001,"velocity":0.3937007874015748},{"duration":0.14285699999999224,"midi":50,"time":81.14277600000001,"velocity":0.3937007874015748},{"duration":0.14285700000000645,"midi":57,"time":81.285633,"velocity":0.3937007874015748},{"duration":0.14285700000000645,"midi":57,"time":81.285633,"velocity":0.3937007874015748},{"duration":0.14285700000000645,"midi":55,"time":81.42849000000001,"velocity":0.3937007874015748},{"duration":0.14285700000000645,"midi":50,"time":81.42849000000001,"velocity":0.3937007874015748},{"duration":0.14285700000000645,"midi":58,"time":81.42849000000001,"velocity":0.3937007874015748},{"duration":0.14285700000000645,"midi":50,"time":81.42849000000001,"velocity":0.3937007874015748},{"duration":0.14285700000000645,"midi":58,"time":81.42849000000001,"velocity":0.3937007874015748},{"duration":0.14285700000000645,"midi":55,"time":81.42849000000001,"velocity":0.3937007874015748},{"duration":0.14285699999999224,"midi":58,"time":81.71420400000001,"velocity":0.3937007874015748},{"duration":0.14285699999999224,"midi":50,"time":81.71420400000001,"velocity":0.3937007874015748},{"duration":0.14285699999999224,"midi":50,"time":81.71420400000001,"velocity":0.3937007874015748},{"duration":0.14285699999999224,"midi":55,"time":81.71420400000001,"velocity":0.3937007874015748},{"duration":0.14285699999999224,"midi":58,"time":81.71420400000001,"velocity":0.3937007874015748},{"duration":0.14285699999999224,"midi":55,"time":81.71420400000001,"velocity":0.3937007874015748},{"duration":0.14285699999999224,"midi":50,"time":81.99991800000001,"velocity":0.3937007874015748},{"duration":0.14285699999999224,"midi":57,"time":81.99991800000001,"velocity":0.3937007874015748},{"duration":0.14285699999999224,"midi":57,"time":81.99991800000001,"velocity":0.3937007874015748},{"duration":0.14285699999999224,"midi":50,"time":81.99991800000001,"velocity":0.3937007874015748},{"duration":0.14285700000000645,"midi":55,"time":82.142775,"velocity":0.3937007874015748},{"duration":0.14285700000000645,"midi":55,"time":82.142775,"velocity":0.3937007874015748},{"duration":0.14285700000000645,"midi":57,"time":82.285632,"velocity":0.3937007874015748},{"duration":0.14285700000000645,"midi":57,"time":82.285632,"velocity":0.3937007874015748},{"duration":0.14285700000000645,"midi":50,"time":82.285632,"velocity":0.3937007874015748},{"duration":0.14285700000000645,"midi":50,"time":82.285632,"velocity":0.3937007874015748},{"duration":0.42857099999999093,"midi":45,"time":82.42848900000001,"velocity":0.3937007874015748},{"duration":0.42857099999999093,"midi":50,"time":82.42848900000001,"velocity":0.3937007874015748},{"duration":0.42857099999999093,"midi":41,"time":82.42848900000001,"velocity":0.3937007874015748},{"duration":0.42857099999999093,"midi":41,"time":82.42848900000001,"velocity":0.3937007874015748},{"duration":0.42857099999999093,"midi":45,"time":82.42848900000001,"velocity":0.3937007874015748},{"duration":0.42857099999999093,"midi":50,"time":82.42848900000001,"velocity":0.3937007874015748},{"duration":0.14285699999999224,"midi":50,"time":82.85706,"velocity":0.3937007874015748},{"duration":0.14285699999999224,"midi":50,"time":82.85706,"velocity":0.3937007874015748},{"duration":0.14285700000000645,"midi":52,"time":82.999917,"velocity":0.3937007874015748},{"duration":0.14285700000000645,"midi":52,"time":82.999917,"velocity":0.3937007874015748},{"duration":0.14285700000000645,"midi":53,"time":83.142774,"velocity":0.3937007874015748},{"duration":0.14285700000000645,"midi":50,"time":83.142774,"velocity":0.3937007874015748},{"duration":0.14285700000000645,"midi":50,"time":83.142774,"velocity":0.3937007874015748},{"duration":0.14285700000000645,"midi":53,"time":83.142774,"velocity":0.3937007874015748},{"duration":0.14285700000000645,"midi":46,"time":83.142774,"velocity":0.3937007874015748},{"duration":0.14285700000000645,"midi":46,"time":83.142774,"velocity":0.3937007874015748},{"duration":0.14285700000000645,"midi":53,"time":83.428488,"velocity":0.3937007874015748},{"duration":0.14285700000000645,"midi":46,"time":83.428488,"velocity":0.3937007874015748},{"duration":0.14285700000000645,"midi":50,"time":83.428488,"velocity":0.3937007874015748},{"duration":0.14285700000000645,"midi":46,"time":83.428488,"velocity":0.3937007874015748},{"duration":0.14285700000000645,"midi":53,"time":83.428488,"velocity":0.3937007874015748},{"duration":0.14285700000000645,"midi":50,"time":83.428488,"velocity":0.3937007874015748},{"duration":0.14285699999999224,"midi":46,"time":83.71420200000001,"velocity":0.3937007874015748},{"duration":0.14285699999999224,"midi":50,"time":83.71420200000001,"velocity":0.3937007874015748},{"duration":0.14285699999999224,"midi":50,"time":83.71420200000001,"velocity":0.3937007874015748},{"duration":0.14285699999999224,"midi":46,"time":83.71420200000001,"velocity":0.3937007874015748},{"duration":0.14285699999999224,"midi":55,"time":83.71420200000001,"velocity":0.3937007874015748},{"duration":0.14285699999999224,"midi":55,"time":83.71420200000001,"velocity":0.3937007874015748},{"duration":0.14285699999999224,"midi":53,"time":83.99991600000001,"velocity":0.3937007874015748},{"duration":0.14285699999999224,"midi":53,"time":83.99991600000001,"velocity":0.3937007874015748},{"duration":0.14285699999999224,"midi":57,"time":83.99991600000001,"velocity":0.3937007874015748},{"duration":0.14285699999999224,"midi":57,"time":83.99991600000001,"velocity":0.3937007874015748},{"duration":0.14285699999999224,"midi":50,"time":83.99991600000001,"velocity":0.3937007874015748},{"duration":0.14285699999999224,"midi":50,"time":83.99991600000001,"velocity":0.3937007874015748},{"duration":0.14285699999999224,"midi":50,"time":84.57134400000001,"velocity":0.3937007874015748},{"duration":0.14285699999999224,"midi":50,"time":84.57134400000001,"velocity":0.3937007874015748},{"duration":0.14285700000000645,"midi":53,"time":84.714201,"velocity":0.3937007874015748},{"duration":0.14285700000000645,"midi":53,"time":84.714201,"velocity":0.3937007874015748},{"duration":0.14285700000000645,"midi":52,"time":84.85705800000001,"velocity":0.3937007874015748},{"duration":0.14285700000000645,"midi":49,"time":84.85705800000001,"velocity":0.3937007874015748},{"duration":0.14285700000000645,"midi":49,"time":84.85705800000001,"velocity":0.3937007874015748},{"duration":0.14285700000000645,"midi":52,"time":84.85705800000001,"velocity":0.3937007874015748},{"duration":0.14285700000000645,"midi":45,"time":84.85705800000001,"velocity":0.3937007874015748},{"duration":0.14285700000000645,"midi":45,"time":84.85705800000001,"velocity":0.3937007874015748},{"duration":0.14285699999999224,"midi":45,"time":85.14277200000001,"velocity":0.3937007874015748},{"duration":0.14285699999999224,"midi":49,"time":85.14277200000001,"velocity":0.3937007874015748},{"duration":0.14285699999999224,"midi":52,"time":85.14277200000001,"velocity":0.3937007874015748},{"duration":0.14285699999999224,"midi":45,"time":85.14277200000001,"velocity":0.3937007874015748},{"duration":0.14285699999999224,"midi":52,"time":85.14277200000001,"velocity":0.3937007874015748},{"duration":0.14285699999999224,"midi":49,"time":85.14277200000001,"velocity":0.3937007874015748},{"duration":0.14285699999999224,"midi":53,"time":85.428486,"velocity":0.3937007874015748},{"duration":0.14285699999999224,"midi":53,"time":85.428486,"velocity":0.3937007874015748},{"duration":0.14285700000000645,"midi":50,"time":85.571343,"velocity":0.3937007874015748},{"duration":0.14285700000000645,"midi":50,"time":85.571343,"velocity":0.3937007874015748},{"duration":0.42857100000000514,"midi":52,"time":85.7142,"velocity":0.3937007874015748},{"duration":0.42857100000000514,"midi":49,"time":85.7142,"velocity":0.3937007874015748},{"duration":0.42857100000000514,"midi":45,"time":85.7142,"velocity":0.3937007874015748},{"duration":0.42857100000000514,"midi":45,"time":85.7142,"velocity":0.3937007874015748},{"duration":0.42857100000000514,"midi":49,"time":85.7142,"velocity":0.3937007874015748},{"duration":0.42857100000000514,"midi":52,"time":85.7142,"velocity":0.3937007874015748},{"duration":0.14285699999999224,"midi":57,"time":86.28562800000002,"velocity":0.3937007874015748},{"duration":0.14285699999999224,"midi":57,"time":86.28562800000002,"velocity":0.3937007874015748},{"duration":0.14285699999999224,"midi":60,"time":86.42848500000001,"velocity":0.3937007874015748},{"duration":0.14285699999999224,"midi":60,"time":86.42848500000001,"velocity":0.3937007874015748},{"duration":0.14285700000000645,"midi":57,"time":86.571342,"velocity":0.3937007874015748},{"duration":0.14285700000000645,"midi":53,"time":86.571342,"velocity":0.3937007874015748},{"duration":0.14285700000000645,"midi":53,"time":86.571342,"velocity":0.3937007874015748},{"duration":0.14285700000000645,"midi":62,"time":86.571342,"velocity":0.3937007874015748},{"duration":0.14285700000000645,"midi":57,"time":86.571342,"velocity":0.3937007874015748},{"duration":0.14285700000000645,"midi":62,"time":86.571342,"velocity":0.3937007874015748},{"duration":0.14285700000000645,"midi":53,"time":86.857056,"velocity":0.3937007874015748},{"duration":0.14285700000000645,"midi":57,"time":86.857056,"velocity":0.3937007874015748},{"duration":0.14285700000000645,"midi":62,"time":86.857056,"velocity":0.3937007874015748},{"duration":0.14285700000000645,"midi":62,"time":86.857056,"velocity":0.3937007874015748},{"duration":0.14285700000000645,"midi":53,"time":86.857056,"velocity":0.3937007874015748},{"duration":0.14285700000000645,"midi":57,"time":86.857056,"velocity":0.3937007874015748},{"duration":0.14285699999999224,"midi":53,"time":87.14277000000001,"velocity":0.3937007874015748},{"duration":0.14285699999999224,"midi":57,"time":87.14277000000001,"velocity":0.3937007874015748},{"duration":0.14285699999999224,"midi":62,"time":87.14277000000001,"velocity":0.3937007874015748},{"duration":0.14285699999999224,"midi":53,"time":87.14277000000001,"velocity":0.3937007874015748},{"duration":0.14285699999999224,"midi":57,"time":87.14277000000001,"velocity":0.3937007874015748},{"duration":0.14285699999999224,"midi":62,"time":87.14277000000001,"velocity":0.3937007874015748},{"duration":0.14285700000000645,"midi":64,"time":87.285627,"velocity":0.3937007874015748},{"duration":0.14285700000000645,"midi":64,"time":87.285627,"velocity":0.3937007874015748},{"duration":0.14285700000000645,"midi":62,"time":87.42848400000001,"velocity":0.3937007874015748},{"duration":0.14285700000000645,"midi":65,"time":87.42848400000001,"velocity":0.3937007874015748},{"duration":0.14285700000000645,"midi":65,"time":87.42848400000001,"velocity":0.3937007874015748},{"duration":0.14285700000000645,"midi":58,"time":87.42848400000001,"velocity":0.3937007874015748},{"duration":0.14285700000000645,"midi":58,"time":87.42848400000001,"velocity":0.3937007874015748},{"duration":0.14285700000000645,"midi":62,"time":87.42848400000001,"velocity":0.3937007874015748},{"duration":0.14285700000000645,"midi":65,"time":87.714198,"velocity":0.3937007874015748},{"duration":0.14285700000000645,"midi":62,"time":87.714198,"velocity":0.3937007874015748},{"duration":0.14285700000000645,"midi":58,"time":87.714198,"velocity":0.3937007874015748},{"duration":0.14285700000000645,"midi":58,"time":87.714198,"velocity":0.3937007874015748},{"duration":0.14285700000000645,"midi":65,"time":87.714198,"velocity":0.3937007874015748},{"duration":0.14285700000000645,"midi":62,"time":87.714198,"velocity":0.3937007874015748},{"duration":0.14285699999999224,"midi":62,"time":87.99991200000001,"velocity":0.3937007874015748},{"duration":0.14285699999999224,"midi":58,"time":87.99991200000001,"velocity":0.3937007874015748},{"duration":0.14285699999999224,"midi":65,"time":87.99991200000001,"velocity":0.3937007874015748},{"duration":0.14285699999999224,"midi":65,"time":87.99991200000001,"velocity":0.3937007874015748},{"duration":0.14285699999999224,"midi":62,"time":87.99991200000001,"velocity":0.3937007874015748},{"duration":0.14285699999999224,"midi":58,"time":87.99991200000001,"velocity":0.3937007874015748},{"duration":0.14285700000000645,"midi":67,"time":88.142769,"velocity":0.3937007874015748},{"duration":0.14285700000000645,"midi":67,"time":88.142769,"velocity":0.3937007874015748},{"duration":0.14285700000000645,"midi":57,"time":88.28562600000001,"velocity":0.3937007874015748},{"duration":0.14285700000000645,"midi":64,"time":88.28562600000001,"velocity":0.3937007874015748},{"duration":0.14285700000000645,"midi":57,"time":88.28562600000001,"velocity":0.3937007874015748},{"duration":0.14285700000000645,"midi":64,"time":88.28562600000001,"velocity":0.3937007874015748},{"duration":0.14285700000000645,"midi":60,"time":88.28562600000001,"velocity":0.3937007874015748},{"duration":0.14285700000000645,"midi":60,"time":88.28562600000001,"velocity":0.3937007874015748},{"duration":0.14285700000000645,"midi":64,"time":88.57134,"velocity":0.3937007874015748},{"duration":0.14285700000000645,"midi":57,"time":88.57134,"velocity":0.3937007874015748},{"duration":0.14285700000000645,"midi":60,"time":88.57134,"velocity":0.3937007874015748},{"duration":0.14285700000000645,"midi":64,"time":88.57134,"velocity":0.3937007874015748},{"duration":0.14285700000000645,"midi":60,"time":88.57134,"velocity":0.3937007874015748},{"duration":0.14285700000000645,"midi":57,"time":88.57134,"velocity":0.3937007874015748},{"duration":0.14285699999999224,"midi":57,"time":88.857054,"velocity":0.3937007874015748},{"duration":0.14285699999999224,"midi":57,"time":88.857054,"velocity":0.3937007874015748},{"duration":0.14285699999999224,"midi":62,"time":88.857054,"velocity":0.3937007874015748},{"duration":0.14285699999999224,"midi":62,"time":88.857054,"velocity":0.3937007874015748},{"duration":0.14285700000000645,"midi":60,"time":88.999911,"velocity":0.3937007874015748},{"duration":0.14285700000000645,"midi":60,"time":88.999911,"velocity":0.3937007874015748},{"duration":0.14285700000000645,"midi":60,"time":89.142768,"velocity":0.3937007874015748},{"duration":0.14285700000000645,"midi":53,"time":89.142768,"velocity":0.3937007874015748},{"duration":0.14285700000000645,"midi":53,"time":89.142768,"velocity":0.3937007874015748},{"duration":0.14285700000000645,"midi":60,"time":89.142768,"velocity":0.3937007874015748},{"duration":0.42857100000000514,"midi":53,"time":89.28562500000001,"velocity":0.3937007874015748},{"duration":0.42857100000000514,"midi":57,"time":89.28562500000001,"velocity":0.3937007874015748},{"duration":0.42857100000000514,"midi":57,"time":89.28562500000001,"velocity":0.3937007874015748},{"duration":0.42857100000000514,"midi":53,"time":89.28562500000001,"velocity":0.3937007874015748},{"duration":0.42857100000000514,"midi":62,"time":89.28562500000001,"velocity":0.3937007874015748},{"duration":0.42857100000000514,"midi":62,"time":89.28562500000001,"velocity":0.3937007874015748},{"duration":0.14285699999999224,"midi":57,"time":89.71419600000002,"velocity":0.3937007874015748},{"duration":0.14285699999999224,"midi":57,"time":89.71419600000002,"velocity":0.3937007874015748},{"duration":0.14285700000000645,"midi":60,"time":89.85705300000001,"velocity":0.3937007874015748},{"duration":0.14285700000000645,"midi":60,"time":89.85705300000001,"velocity":0.3937007874015748},{"duration":0.14285699999999224,"midi":53,"time":89.99991000000001,"velocity":0.3937007874015748},{"duration":0.14285699999999224,"midi":62,"time":89.99991000000001,"velocity":0.3937007874015748},{"duration":0.14285699999999224,"midi":53,"time":89.99991000000001,"velocity":0.3937007874015748},{"duration":0.14285699999999224,"midi":58,"time":89.99991000000001,"velocity":0.3937007874015748},{"duration":0.14285699999999224,"midi":62,"time":89.99991000000001,"velocity":0.3937007874015748},{"duration":0.14285699999999224,"midi":58,"time":89.99991000000001,"velocity":0.3937007874015748},{"duration":0.14285700000000645,"midi":53,"time":90.285624,"velocity":0.3937007874015748},{"duration":0.14285700000000645,"midi":58,"time":90.285624,"velocity":0.3937007874015748},{"duration":0.14285700000000645,"midi":53,"time":90.285624,"velocity":0.3937007874015748},{"duration":0.14285700000000645,"midi":62,"time":90.285624,"velocity":0.3937007874015748},{"duration":0.14285700000000645,"midi":62,"time":90.285624,"velocity":0.3937007874015748},{"duration":0.14285700000000645,"midi":58,"time":90.285624,"velocity":0.3937007874015748},{"duration":0.14285699999999224,"midi":62,"time":90.57133800000001,"velocity":0.3937007874015748},{"duration":0.14285699999999224,"midi":58,"time":90.57133800000001,"velocity":0.3937007874015748},{"duration":0.14285699999999224,"midi":58,"time":90.57133800000001,"velocity":0.3937007874015748},{"duration":0.14285699999999224,"midi":53,"time":90.57133800000001,"velocity":0.3937007874015748},{"duration":0.14285699999999224,"midi":62,"time":90.57133800000001,"velocity":0.3937007874015748},{"duration":0.14285699999999224,"midi":53,"time":90.57133800000001,"velocity":0.3937007874015748},{"duration":0.14285700000000645,"midi":64,"time":90.714195,"velocity":0.3937007874015748},{"duration":0.14285700000000645,"midi":64,"time":90.714195,"velocity":0.3937007874015748},{"duration":0.14285700000000645,"midi":65,"time":90.85705200000001,"velocity":0.3937007874015748},{"duration":0.14285700000000645,"midi":65,"time":90.85705200000001,"velocity":0.3937007874015748},{"duration":0.14285700000000645,"midi":57,"time":90.85705200000001,"velocity":0.3937007874015748},{"duration":0.14285700000000645,"midi":60,"time":90.85705200000001,"velocity":0.3937007874015748},{"duration":0.14285700000000645,"midi":57,"time":90.85705200000001,"velocity":0.3937007874015748},{"duration":0.14285700000000645,"midi":60,"time":90.85705200000001,"velocity":0.3937007874015748},{"duration":0.14285699999999224,"midi":57,"time":91.14276600000001,"velocity":0.3937007874015748},{"duration":0.14285699999999224,"midi":65,"time":91.14276600000001,"velocity":0.3937007874015748},{"duration":0.14285699999999224,"midi":57,"time":91.14276600000001,"velocity":0.3937007874015748},{"duration":0.14285699999999224,"midi":65,"time":91.14276600000001,"velocity":0.3937007874015748},{"duration":0.14285699999999224,"midi":60,"time":91.14276600000001,"velocity":0.3937007874015748},{"duration":0.14285699999999224,"midi":60,"time":91.14276600000001,"velocity":0.3937007874015748},{"duration":0.14285699999999224,"midi":65,"time":91.42848000000001,"velocity":0.3937007874015748},{"duration":0.14285699999999224,"midi":57,"time":91.42848000000001,"velocity":0.3937007874015748},{"duration":0.14285699999999224,"midi":57,"time":91.42848000000001,"velocity":0.3937007874015748},{"duration":0.14285699999999224,"midi":65,"time":91.42848000000001,"velocity":0.3937007874015748},{"duration":0.14285699999999224,"midi":60,"time":91.42848000000001,"velocity":0.3937007874015748},{"duration":0.14285699999999224,"midi":60,"time":91.42848000000001,"velocity":0.3937007874015748},{"duration":0.14285700000000645,"midi":67,"time":91.571337,"velocity":0.3937007874015748},{"duration":0.14285700000000645,"midi":67,"time":91.571337,"velocity":0.3937007874015748},{"duration":0.14285700000000645,"midi":57,"time":91.714194,"velocity":0.3937007874015748},{"duration":0.14285700000000645,"midi":64,"time":91.714194,"velocity":0.3937007874015748},{"duration":0.14285700000000645,"midi":60,"time":91.714194,"velocity":0.3937007874015748},{"duration":0.14285700000000645,"midi":64,"time":91.714194,"velocity":0.3937007874015748},{"duration":0.14285700000000645,"midi":60,"time":91.714194,"velocity":0.3937007874015748},{"duration":0.14285700000000645,"midi":57,"time":91.714194,"velocity":0.3937007874015748},{"duration":0.14285700000000645,"midi":64,"time":91.999908,"velocity":0.3937007874015748},{"duration":0.14285700000000645,"midi":60,"time":91.999908,"velocity":0.3937007874015748},{"duration":0.14285700000000645,"midi":60,"time":91.999908,"velocity":0.3937007874015748},{"duration":0.14285700000000645,"midi":64,"time":91.999908,"velocity":0.3937007874015748},{"duration":0.14285700000000645,"midi":57,"time":91.999908,"velocity":0.3937007874015748},{"duration":0.14285700000000645,"midi":57,"time":91.999908,"velocity":0.3937007874015748},{"duration":0.14285699999999224,"midi":57,"time":92.28562200000002,"velocity":0.3937007874015748},{"duration":0.14285699999999224,"midi":57,"time":92.28562200000002,"velocity":0.3937007874015748},{"duration":0.14285699999999224,"midi":62,"time":92.28562200000002,"velocity":0.3937007874015748},{"duration":0.14285699999999224,"midi":62,"time":92.28562200000002,"velocity":0.3937007874015748},{"duration":0.14285699999999224,"midi":60,"time":92.42847900000001,"velocity":0.3937007874015748},{"duration":0.14285699999999224,"midi":60,"time":92.42847900000001,"velocity":0.3937007874015748},{"duration":0.42857100000000514,"midi":53,"time":92.571336,"velocity":0.3937007874015748},{"duration":0.42857100000000514,"midi":53,"time":92.571336,"velocity":0.3937007874015748},{"duration":0.42857100000000514,"midi":62,"time":92.571336,"velocity":0.3937007874015748},{"duration":0.42857100000000514,"midi":57,"time":92.571336,"velocity":0.3937007874015748},{"duration":0.42857100000000514,"midi":57,"time":92.571336,"velocity":0.3937007874015748},{"duration":0.42857100000000514,"midi":62,"time":92.571336,"velocity":0.3937007874015748},{"duration":0.14285699999999224,"midi":57,"time":93.14276400000001,"velocity":0.3937007874015748},{"duration":0.14285699999999224,"midi":57,"time":93.14276400000001,"velocity":0.3937007874015748},{"duration":0.14285700000000645,"midi":60,"time":93.285621,"velocity":0.3937007874015748},{"duration":0.14285700000000645,"midi":60,"time":93.285621,"velocity":0.3937007874015748},{"duration":0.14285699999999224,"midi":62,"time":93.42847800000001,"velocity":0.3937007874015748},{"duration":0.14285699999999224,"midi":53,"time":93.42847800000001,"velocity":0.3937007874015748},{"duration":0.14285699999999224,"midi":53,"time":93.42847800000001,"velocity":0.3937007874015748},{"duration":0.14285699999999224,"midi":57,"time":93.42847800000001,"velocity":0.3937007874015748},{"duration":0.14285699999999224,"midi":62,"time":93.42847800000001,"velocity":0.3937007874015748},{"duration":0.14285699999999224,"midi":57,"time":93.42847800000001,"velocity":0.3937007874015748},{"duration":0.14285700000000645,"midi":57,"time":93.714192,"velocity":0.3937007874015748},{"duration":0.14285700000000645,"midi":53,"time":93.714192,"velocity":0.3937007874015748},{"duration":0.14285700000000645,"midi":62,"time":93.714192,"velocity":0.3937007874015748},{"duration":0.14285700000000645,"midi":57,"time":93.714192,"velocity":0.3937007874015748},{"duration":0.14285700000000645,"midi":62,"time":93.714192,"velocity":0.3937007874015748},{"duration":0.14285700000000645,"midi":53,"time":93.714192,"velocity":0.3937007874015748},{"duration":0.14285699999999224,"midi":53,"time":93.99990600000001,"velocity":0.3937007874015748},{"duration":0.14285699999999224,"midi":62,"time":93.99990600000001,"velocity":0.3937007874015748},{"duration":0.14285699999999224,"midi":62,"time":93.99990600000001,"velocity":0.3937007874015748},{"duration":0.14285699999999224,"midi":53,"time":93.99990600000001,"velocity":0.3937007874015748},{"duration":0.14285700000000645,"midi":65,"time":94.142763,"velocity":0.3937007874015748},{"duration":0.14285700000000645,"midi":65,"time":94.142763,"velocity":0.3937007874015748},{"duration":0.14285700000000645,"midi":53,"time":94.142763,"velocity":0.3937007874015748},{"duration":0.14285700000000645,"midi":53,"time":94.142763,"velocity":0.3937007874015748},{"duration":0.14285700000000645,"midi":58,"time":94.28562000000001,"velocity":0.3937007874015748},{"duration":0.14285700000000645,"midi":67,"time":94.28562000000001,"velocity":0.3937007874015748},{"duration":0.14285700000000645,"midi":58,"time":94.28562000000001,"velocity":0.3937007874015748},{"duration":0.14285700000000645,"midi":62,"time":94.28562000000001,"velocity":0.3937007874015748},{"duration":0.14285700000000645,"midi":67,"time":94.28562000000001,"velocity":0.3937007874015748},{"duration":0.14285700000000645,"midi":62,"time":94.28562000000001,"velocity":0.3937007874015748},{"duration":0.14285700000000645,"midi":62,"time":94.57133400000001,"velocity":0.3937007874015748},{"duration":0.14285700000000645,"midi":58,"time":94.57133400000001,"velocity":0.3937007874015748},{"duration":0.14285700000000645,"midi":58,"time":94.57133400000001,"velocity":0.3937007874015748},{"duration":0.14285700000000645,"midi":62,"time":94.57133400000001,"velocity":0.3937007874015748},{"duration":0.14285700000000645,"midi":67,"time":94.57133400000001,"velocity":0.3937007874015748},{"duration":0.14285700000000645,"midi":67,"time":94.57133400000001,"velocity":0.3937007874015748},{"duration":0.14285699999999224,"midi":62,"time":94.857048,"velocity":0.3937007874015748},{"duration":0.14285699999999224,"midi":58,"time":94.857048,"velocity":0.3937007874015748},{"duration":0.14285699999999224,"midi":58,"time":94.857048,"velocity":0.3937007874015748},{"duration":0.14285699999999224,"midi":67,"time":94.857048,"velocity":0.3937007874015748},{"duration":0.14285699999999224,"midi":62,"time":94.857048,"velocity":0.3937007874015748},{"duration":0.14285699999999224,"midi":67,"time":94.857048,"velocity":0.3937007874015748},{"duration":0.14285700000000645,"midi":69,"time":94.999905,"velocity":0.3937007874015748},{"duration":0.14285700000000645,"midi":69,"time":94.999905,"velocity":0.3937007874015748},{"duration":0.14285700000000645,"midi":67,"time":95.142762,"velocity":0.3937007874015748},{"duration":0.14285700000000645,"midi":70,"time":95.142762,"velocity":0.3937007874015748},{"duration":0.14285700000000645,"midi":67,"time":95.142762,"velocity":0.3937007874015748},{"duration":0.14285700000000645,"midi":62,"time":95.142762,"velocity":0.3937007874015748},{"duration":0.14285700000000645,"midi":70,"time":95.142762,"velocity":0.3937007874015748},{"duration":0.14285700000000645,"midi":62,"time":95.142762,"velocity":0.3937007874015748},{"duration":0.14285700000000645,"midi":62,"time":95.428476,"velocity":0.3937007874015748},{"duration":0.14285700000000645,"midi":62,"time":95.428476,"velocity":0.3937007874015748},{"duration":0.14285700000000645,"midi":67,"time":95.428476,"velocity":0.3937007874015748},{"duration":0.14285700000000645,"midi":70,"time":95.428476,"velocity":0.3937007874015748},{"duration":0.14285700000000645,"midi":70,"time":95.428476,"velocity":0.3937007874015748},{"duration":0.14285700000000645,"midi":67,"time":95.428476,"velocity":0.3937007874015748},{"duration":0.14285699999999224,"midi":69,"time":95.71419000000002,"velocity":0.3937007874015748},{"duration":0.14285699999999224,"midi":62,"time":95.71419000000002,"velocity":0.3937007874015748},{"duration":0.14285699999999224,"midi":69,"time":95.71419000000002,"velocity":0.3937007874015748},{"duration":0.14285699999999224,"midi":62,"time":95.71419000000002,"velocity":0.3937007874015748},{"duration":0.14285700000000645,"midi":67,"time":95.85704700000001,"velocity":0.3937007874015748},{"duration":0.14285700000000645,"midi":67,"time":95.85704700000001,"velocity":0.3937007874015748},{"duration":0.14285699999999224,"midi":62,"time":95.99990400000002,"velocity":0.3937007874015748},{"duration":0.14285699999999224,"midi":69,"time":95.99990400000002,"velocity":0.3937007874015748},{"duration":0.14285699999999224,"midi":62,"time":95.99990400000002,"velocity":0.3937007874015748},{"duration":0.14285699999999224,"midi":69,"time":95.99990400000002,"velocity":0.3937007874015748},{"duration":0.42857100000000514,"midi":62,"time":96.14276100000001,"velocity":0.3937007874015748},{"duration":0.42857100000000514,"midi":57,"time":96.14276100000001,"velocity":0.3937007874015748},{"duration":0.42857100000000514,"midi":53,"time":96.14276100000001,"velocity":0.3937007874015748},{"duration":0.42857100000000514,"midi":57,"time":96.14276100000001,"velocity":0.3937007874015748},{"duration":0.42857100000000514,"midi":62,"time":96.14276100000001,"velocity":0.3937007874015748},{"duration":0.42857100000000514,"midi":53,"time":96.14276100000001,"velocity":0.3937007874015748},{"duration":0.14285699999999224,"midi":62,"time":96.57133200000001,"velocity":0.3937007874015748},{"duration":0.14285699999999224,"midi":62,"time":96.57133200000001,"velocity":0.3937007874015748},{"duration":0.14285700000000645,"midi":64,"time":96.714189,"velocity":0.3937007874015748},{"duration":0.14285700000000645,"midi":64,"time":96.714189,"velocity":0.3937007874015748},{"duration":0.14285700000000645,"midi":58,"time":96.85704600000001,"velocity":0.3937007874015748},{"duration":0.14285700000000645,"midi":58,"time":96.85704600000001,"velocity":0.3937007874015748},{"duration":0.14285700000000645,"midi":65,"time":96.85704600000001,"velocity":0.3937007874015748},{"duration":0.14285700000000645,"midi":65,"time":96.85704600000001,"velocity":0.3937007874015748},{"duration":0.14285700000000645,"midi":62,"time":96.85704600000001,"velocity":0.3937007874015748},{"duration":0.14285700000000645,"midi":62,"time":96.85704600000001,"velocity":0.3937007874015748},{"duration":0.14285699999999224,"midi":58,"time":97.14276000000001,"velocity":0.3937007874015748},{"duration":0.14285699999999224,"midi":58,"time":97.14276000000001,"velocity":0.3937007874015748},{"duration":0.14285699999999224,"midi":62,"time":97.14276000000001,"velocity":0.3937007874015748},{"duration":0.14285699999999224,"midi":65,"time":97.14276000000001,"velocity":0.3937007874015748},{"duration":0.14285699999999224,"midi":62,"time":97.14276000000001,"velocity":0.3937007874015748},{"duration":0.14285699999999224,"midi":65,"time":97.14276000000001,"velocity":0.3937007874015748},{"duration":0.14285699999999224,"midi":58,"time":97.42847400000001,"velocity":0.3937007874015748},{"duration":0.14285699999999224,"midi":58,"time":97.42847400000001,"velocity":0.3937007874015748},{"duration":0.14285699999999224,"midi":62,"time":97.42847400000001,"velocity":0.3937007874015748},{"duration":0.14285699999999224,"midi":67,"time":97.42847400000001,"velocity":0.3937007874015748},{"duration":0.14285699999999224,"midi":62,"time":97.42847400000001,"velocity":0.3937007874015748},{"duration":0.14285699999999224,"midi":67,"time":97.42847400000001,"velocity":0.3937007874015748},{"duration":0.14285700000000645,"midi":69,"time":97.71418800000001,"velocity":0.3937007874015748},{"duration":0.14285700000000645,"midi":69,"time":97.71418800000001,"velocity":0.3937007874015748},{"duration":0.14285700000000645,"midi":65,"time":97.71418800000001,"velocity":0.3937007874015748},{"duration":0.14285700000000645,"midi":62,"time":97.71418800000001,"velocity":0.3937007874015748},{"duration":0.14285700000000645,"midi":62,"time":97.71418800000001,"velocity":0.3937007874015748},{"duration":0.14285700000000645,"midi":65,"time":97.71418800000001,"velocity":0.3937007874015748},{"duration":0.14285699999999224,"midi":62,"time":97.85704500000001,"velocity":0.3937007874015748},{"duration":0.14285699999999224,"midi":62,"time":97.85704500000001,"velocity":0.3937007874015748},{"duration":0.14285699999999224,"midi":62,"time":98.28561600000002,"velocity":0.3937007874015748},{"duration":0.14285699999999224,"midi":62,"time":98.28561600000002,"velocity":0.3937007874015748},{"duration":0.14285699999999224,"midi":65,"time":98.42847300000001,"velocity":0.3937007874015748},{"duration":0.14285699999999224,"midi":65,"time":98.42847300000001,"velocity":0.3937007874015748},{"duration":0.14285700000000645,"midi":64,"time":98.57133,"velocity":0.3937007874015748},{"duration":0.14285700000000645,"midi":61,"time":98.57133,"velocity":0.3937007874015748},{"duration":0.14285700000000645,"midi":61,"time":98.57133,"velocity":0.3937007874015748},{"duration":0.14285700000000645,"midi":64,"time":98.57133,"velocity":0.3937007874015748},{"duration":0.14285700000000645,"midi":57,"time":98.57133,"velocity":0.3937007874015748},{"duration":0.14285700000000645,"midi":57,"time":98.57133,"velocity":0.3937007874015748},{"duration":0.14285700000000645,"midi":64,"time":98.857044,"velocity":0.3937007874015748},{"duration":0.14285700000000645,"midi":61,"time":98.857044,"velocity":0.3937007874015748},{"duration":0.14285700000000645,"midi":57,"time":98.857044,"velocity":0.3937007874015748},{"duration":0.14285700000000645,"midi":64,"time":98.857044,"velocity":0.3937007874015748},{"duration":0.14285700000000645,"midi":61,"time":98.857044,"velocity":0.3937007874015748},{"duration":0.14285700000000645,"midi":57,"time":98.857044,"velocity":0.3937007874015748},{"duration":0.14285699999999224,"midi":62,"time":99.14275800000001,"velocity":0.3937007874015748},{"duration":0.14285699999999224,"midi":62,"time":99.14275800000001,"velocity":0.3937007874015748},{"duration":0.14285700000000645,"midi":61,"time":99.285615,"velocity":0.3937007874015748},{"duration":0.14285700000000645,"midi":61,"time":99.285615,"velocity":0.3937007874015748},{"duration":0.2857139999999845,"midi":62,"time":99.42847200000001,"velocity":0.3937007874015748},{"duration":0.2857139999999845,"midi":57,"time":99.42847200000001,"velocity":0.3937007874015748},{"duration":0.2857139999999845,"midi":57,"time":99.42847200000001,"velocity":0.3937007874015748},{"duration":0.2857139999999845,"midi":62,"time":99.42847200000001,"velocity":0.3937007874015748},{"duration":0.2857140000000129,"midi":57,"time":99.714186,"velocity":0.3937007874015748},{"duration":0.2857140000000129,"midi":57,"time":99.714186,"velocity":0.3937007874015748},{"duration":0.2857140000000129,"midi":62,"time":99.714186,"velocity":0.3937007874015748},{"duration":0.2857140000000129,"midi":62,"time":99.714186,"velocity":0.3937007874015748},{"duration":0.2857139999999987,"midi":57,"time":99.99990000000001,"velocity":0.3937007874015748},{"duration":0.2857139999999987,"midi":60,"time":99.99990000000001,"velocity":0.3937007874015748},{"duration":0.2857139999999987,"midi":64,"time":99.99990000000001,"velocity":0.3937007874015748},{"duration":0.2857139999999987,"midi":57,"time":99.99990000000001,"velocity":0.3937007874015748},{"duration":0.2857139999999987,"midi":60,"time":99.99990000000001,"velocity":0.3937007874015748},{"duration":0.2857139999999987,"midi":64,"time":99.99990000000001,"velocity":0.3937007874015748},{"duration":0.2857139999999987,"midi":65,"time":100.28561400000001,"velocity":0.3937007874015748},{"duration":0.2857139999999987,"midi":65,"time":100.28561400000001,"velocity":0.3937007874015748},{"duration":0.2857139999999987,"midi":62,"time":100.28561400000001,"velocity":0.3937007874015748},{"duration":0.2857139999999987,"midi":62,"time":100.28561400000001,"velocity":0.3937007874015748},{"duration":0.2857139999999987,"midi":60,"time":100.28561400000001,"velocity":0.3937007874015748},{"duration":0.2857139999999987,"midi":60,"time":100.28561400000001,"velocity":0.3937007874015748},{"duration":0.14285700000000645,"midi":65,"time":100.57132800000001,"velocity":0.3937007874015748},{"duration":0.14285700000000645,"midi":65,"time":100.57132800000001,"velocity":0.3937007874015748},{"duration":0.14285699999999224,"midi":65,"time":100.71418500000001,"velocity":0.3937007874015748},{"duration":0.14285699999999224,"midi":65,"time":100.71418500000001,"velocity":0.3937007874015748},{"duration":0.2857139999999987,"midi":67,"time":100.857042,"velocity":0.3937007874015748},{"duration":0.2857139999999987,"midi":62,"time":100.857042,"velocity":0.3937007874015748},{"duration":0.2857139999999987,"midi":62,"time":100.857042,"velocity":0.3937007874015748},{"duration":0.2857139999999987,"midi":58,"time":100.857042,"velocity":0.3937007874015748},{"duration":0.2857139999999987,"midi":58,"time":100.857042,"velocity":0.3937007874015748},{"duration":0.2857139999999987,"midi":67,"time":100.857042,"velocity":0.3937007874015748},{"duration":0.5714280000000116,"midi":69,"time":101.142756,"velocity":0.3937007874015748},{"duration":0.5714280000000116,"midi":65,"time":101.142756,"velocity":0.3937007874015748},{"duration":0.5714280000000116,"midi":62,"time":101.142756,"velocity":0.3937007874015748},{"duration":0.5714280000000116,"midi":65,"time":101.142756,"velocity":0.3937007874015748},{"duration":0.5714280000000116,"midi":69,"time":101.142756,"velocity":0.3937007874015748},{"duration":0.5714280000000116,"midi":62,"time":101.142756,"velocity":0.3937007874015748},{"duration":0.14285699999999224,"midi":65,"time":101.71418400000002,"velocity":0.3937007874015748},{"duration":0.14285699999999224,"midi":65,"time":101.71418400000002,"velocity":0.3937007874015748},{"duration":0.14285699999999224,"midi":62,"time":101.85704100000001,"velocity":0.3937007874015748},{"duration":0.14285699999999224,"midi":62,"time":101.85704100000001,"velocity":0.3937007874015748},{"duration":0.8571420000000103,"midi":57,"time":101.999898,"velocity":0.3937007874015748},{"duration":0.8571420000000103,"midi":57,"time":101.999898,"velocity":0.3937007874015748},{"duration":0.5714279999999974,"midi":62,"time":102.85704000000001,"velocity":0.3937007874015748},{"duration":0.5714279999999974,"midi":70,"time":102.85704000000001,"velocity":0.3937007874015748},{"duration":0.5714279999999974,"midi":65,"time":102.85704000000001,"velocity":0.3937007874015748},{"duration":0.5714279999999974,"midi":62,"time":102.85704000000001,"velocity":0.3937007874015748},{"duration":0.5714279999999974,"midi":65,"time":102.85704000000001,"velocity":0.3937007874015748},{"duration":0.5714279999999974,"midi":70,"time":102.85704000000001,"velocity":0.3937007874015748},{"duration":0.14285699999999224,"midi":65,"time":103.42846800000001,"velocity":0.3937007874015748},{"duration":0.14285699999999224,"midi":65,"time":103.42846800000001,"velocity":0.3937007874015748},{"duration":0.14285700000000645,"midi":62,"time":103.571325,"velocity":0.3937007874015748},{"duration":0.14285700000000645,"midi":62,"time":103.571325,"velocity":0.3937007874015748},{"duration":0.8571419999999961,"midi":58,"time":103.71418200000001,"velocity":0.3937007874015748},{"duration":0.8571419999999961,"midi":58,"time":103.71418200000001,"velocity":0.3937007874015748},{"duration":0.14285700000000645,"midi":64,"time":104.571324,"velocity":0.3937007874015748},{"duration":0.14285700000000645,"midi":57,"time":104.571324,"velocity":0.3937007874015748},{"duration":0.14285700000000645,"midi":57,"time":104.571324,"velocity":0.3937007874015748},{"duration":0.14285700000000645,"midi":64,"time":104.571324,"velocity":0.3937007874015748},{"duration":0.2857139999999987,"midi":64,"time":104.71418100000001,"velocity":0.3937007874015748},{"duration":0.2857139999999987,"midi":64,"time":104.71418100000001,"velocity":0.3937007874015748},{"duration":0.42857100000000514,"midi":53,"time":104.99989500000001,"velocity":0.3937007874015748},{"duration":0.42857100000000514,"midi":57,"time":104.99989500000001,"velocity":0.3937007874015748},{"duration":0.42857100000000514,"midi":57,"time":104.99989500000001,"velocity":0.3937007874015748},{"duration":0.42857100000000514,"midi":62,"time":104.99989500000001,"velocity":0.3937007874015748},{"duration":0.42857100000000514,"midi":53,"time":104.99989500000001,"velocity":0.3937007874015748},{"duration":0.42857100000000514,"midi":62,"time":104.99989500000001,"velocity":0.3937007874015748},{"duration":0.42857099999999093,"midi":61,"time":105.42846600000001,"velocity":0.3937007874015748},{"duration":0.42857099999999093,"midi":61,"time":105.42846600000001,"velocity":0.3937007874015748},{"duration":0.42857099999999093,"midi":57,"time":105.42846600000001,"velocity":0.3937007874015748},{"duration":0.42857099999999093,"midi":65,"time":105.42846600000001,"velocity":0.3937007874015748},{"duration":0.42857099999999093,"midi":65,"time":105.42846600000001,"velocity":0.3937007874015748},{"duration":0.42857099999999093,"midi":57,"time":105.42846600000001,"velocity":0.3937007874015748},{"duration":0.14285699999999224,"midi":53,"time":105.99989400000001,"velocity":0.3937007874015748},{"duration":0.14285699999999224,"midi":53,"time":105.99989400000001,"velocity":0.3937007874015748},{"duration":0.14285700000000645,"midi":55,"time":106.142751,"velocity":0.3937007874015748},{"duration":0.14285700000000645,"midi":55,"time":106.142751,"velocity":0.3937007874015748},{"duration":0.14285700000000645,"midi":50,"time":106.28560800000001,"velocity":0.3937007874015748},{"duration":0.14285700000000645,"midi":57,"time":106.28560800000001,"velocity":0.3937007874015748},{"duration":0.14285700000000645,"midi":53,"time":106.28560800000001,"velocity":0.3937007874015748},{"duration":0.14285700000000645,"midi":53,"time":106.28560800000001,"velocity":0.3937007874015748},{"duration":0.14285700000000645,"midi":50,"time":106.28560800000001,"velocity":0.3937007874015748},{"duration":0.14285700000000645,"midi":57,"time":106.28560800000001,"velocity":0.3937007874015748},{"duration":0.14285700000000645,"midi":50,"time":106.57132200000001,"velocity":0.3937007874015748},{"duration":0.14285700000000645,"midi":57,"time":106.57132200000001,"velocity":0.3937007874015748},{"duration":0.14285700000000645,"midi":53,"time":106.57132200000001,"velocity":0.3937007874015748},{"duration":0.14285700000000645,"midi":53,"time":106.57132200000001,"velocity":0.3937007874015748},{"duration":0.14285700000000645,"midi":57,"time":106.57132200000001,"velocity":0.3937007874015748},{"duration":0.14285700000000645,"midi":50,"time":106.57132200000001,"velocity":0.3937007874015748},{"duration":0.14285699999999224,"midi":53,"time":106.85703600000001,"velocity":0.3937007874015748},{"duration":0.14285699999999224,"midi":57,"time":106.85703600000001,"velocity":0.3937007874015748},{"duration":0.14285699999999224,"midi":50,"time":106.85703600000001,"velocity":0.3937007874015748},{"duration":0.14285699999999224,"midi":57,"time":106.85703600000001,"velocity":0.3937007874015748},{"duration":0.14285699999999224,"midi":53,"time":106.85703600000001,"velocity":0.3937007874015748},{"duration":0.14285699999999224,"midi":50,"time":106.85703600000001,"velocity":0.3937007874015748},{"duration":0.14285700000000645,"midi":50,"time":107.14275,"velocity":0.3937007874015748},{"duration":0.14285700000000645,"midi":55,"time":107.14275,"velocity":0.3937007874015748},{"duration":0.14285700000000645,"midi":58,"time":107.14275,"velocity":0.3937007874015748},{"duration":0.14285700000000645,"midi":50,"time":107.14275,"velocity":0.3937007874015748},{"duration":0.14285700000000645,"midi":58,"time":107.14275,"velocity":0.3937007874015748},{"duration":0.14285700000000645,"midi":55,"time":107.14275,"velocity":0.3937007874015748},{"duration":0.14285699999999224,"midi":57,"time":107.28560700000001,"velocity":0.3937007874015748},{"duration":0.14285699999999224,"midi":50,"time":107.28560700000001,"velocity":0.3937007874015748},{"duration":0.14285699999999224,"midi":50,"time":107.28560700000001,"velocity":0.3937007874015748},{"duration":0.14285699999999224,"midi":53,"time":107.28560700000001,"velocity":0.3937007874015748},{"duration":0.14285699999999224,"midi":53,"time":107.28560700000001,"velocity":0.3937007874015748},{"duration":0.14285699999999224,"midi":57,"time":107.28560700000001,"velocity":0.3937007874015748},{"duration":0.14285700000000645,"midi":55,"time":107.999892,"velocity":0.3937007874015748},{"duration":0.14285700000000645,"midi":55,"time":107.999892,"velocity":0.3937007874015748},{"duration":0.14285700000000645,"midi":52,"time":107.999892,"velocity":0.3937007874015748},{"duration":0.14285700000000645,"midi":48,"time":107.999892,"velocity":0.3937007874015748},{"duration":0.14285700000000645,"midi":52,"time":107.999892,"velocity":0.3937007874015748},{"duration":0.14285700000000645,"midi":48,"time":107.999892,"velocity":0.3937007874015748},{"duration":0.14285700000000645,"midi":48,"time":108.285606,"velocity":0.3937007874015748},{"duration":0.14285700000000645,"midi":55,"time":108.285606,"velocity":0.3937007874015748},{"duration":0.14285700000000645,"midi":52,"time":108.285606,"velocity":0.3937007874015748},{"duration":0.14285700000000645,"midi":52,"time":108.285606,"velocity":0.3937007874015748},{"duration":0.14285700000000645,"midi":48,"time":108.285606,"velocity":0.3937007874015748},{"duration":0.14285700000000645,"midi":55,"time":108.285606,"velocity":0.3937007874015748},{"duration":0.14285699999999224,"midi":48,"time":108.57132000000001,"velocity":0.3937007874015748},{"duration":0.14285699999999224,"midi":52,"time":108.57132000000001,"velocity":0.3937007874015748},{"duration":0.14285699999999224,"midi":55,"time":108.57132000000001,"velocity":0.3937007874015748},{"duration":0.14285699999999224,"midi":52,"time":108.57132000000001,"velocity":0.3937007874015748},{"duration":0.14285699999999224,"midi":48,"time":108.57132000000001,"velocity":0.3937007874015748},{"duration":0.14285699999999224,"midi":55,"time":108.57132000000001,"velocity":0.3937007874015748},{"duration":0.14285700000000645,"midi":52,"time":108.85703400000001,"velocity":0.3937007874015748},{"duration":0.14285700000000645,"midi":52,"time":108.85703400000001,"velocity":0.3937007874015748},{"duration":0.14285700000000645,"midi":55,"time":108.85703400000001,"velocity":0.3937007874015748},{"duration":0.14285700000000645,"midi":48,"time":108.85703400000001,"velocity":0.3937007874015748},{"duration":0.14285700000000645,"midi":48,"time":108.85703400000001,"velocity":0.3937007874015748},{"duration":0.14285700000000645,"midi":55,"time":108.85703400000001,"velocity":0.3937007874015748},{"duration":0.14285699999999224,"midi":57,"time":108.99989100000002,"velocity":0.3937007874015748},{"duration":0.14285699999999224,"midi":48,"time":108.99989100000002,"velocity":0.3937007874015748},{"duration":0.14285699999999224,"midi":53,"time":108.99989100000002,"velocity":0.3937007874015748},{"duration":0.14285699999999224,"midi":53,"time":108.99989100000002,"velocity":0.3937007874015748},{"duration":0.14285699999999224,"midi":57,"time":108.99989100000002,"velocity":0.3937007874015748},{"duration":0.14285699999999224,"midi":48,"time":108.99989100000002,"velocity":0.3937007874015748},{"duration":0.14285699999999224,"midi":57,"time":109.71417600000001,"velocity":0.3937007874015748},{"duration":0.14285699999999224,"midi":50,"time":109.71417600000001,"velocity":0.3937007874015748},{"duration":0.14285699999999224,"midi":57,"time":109.71417600000001,"velocity":0.3937007874015748},{"duration":0.14285699999999224,"midi":53,"time":109.71417600000001,"velocity":0.3937007874015748},{"duration":0.14285699999999224,"midi":50,"time":109.71417600000001,"velocity":0.3937007874015748},{"duration":0.14285699999999224,"midi":53,"time":109.71417600000001,"velocity":0.3937007874015748},{"duration":0.14285699999999224,"midi":53,"time":109.99989000000002,"velocity":0.3937007874015748},{"duration":0.14285699999999224,"midi":57,"time":109.99989000000002,"velocity":0.3937007874015748},{"duration":0.14285699999999224,"midi":57,"time":109.99989000000002,"velocity":0.3937007874015748},{"duration":0.14285699999999224,"midi":53,"time":109.99989000000002,"velocity":0.3937007874015748},{"duration":0.14285699999999224,"midi":50,"time":109.99989000000002,"velocity":0.3937007874015748},{"duration":0.14285699999999224,"midi":50,"time":109.99989000000002,"velocity":0.3937007874015748},{"duration":0.14285700000000645,"midi":53,"time":110.285604,"velocity":0.3937007874015748},{"duration":0.14285700000000645,"midi":50,"time":110.285604,"velocity":0.3937007874015748},{"duration":0.14285700000000645,"midi":53,"time":110.285604,"velocity":0.3937007874015748},{"duration":0.14285700000000645,"midi":57,"time":110.285604,"velocity":0.3937007874015748},{"duration":0.14285700000000645,"midi":57,"time":110.285604,"velocity":0.3937007874015748},{"duration":0.14285700000000645,"midi":50,"time":110.285604,"velocity":0.3937007874015748},{"duration":0.14285699999999224,"midi":58,"time":110.571318,"velocity":0.3937007874015748},{"duration":0.14285699999999224,"midi":55,"time":110.571318,"velocity":0.3937007874015748},{"duration":0.14285699999999224,"midi":58,"time":110.571318,"velocity":0.3937007874015748},{"duration":0.14285699999999224,"midi":55,"time":110.571318,"velocity":0.3937007874015748},{"duration":0.14285699999999224,"midi":50,"time":110.571318,"velocity":0.3937007874015748},{"duration":0.14285699999999224,"midi":50,"time":110.571318,"velocity":0.3937007874015748},{"duration":0.14285700000002066,"midi":53,"time":110.714175,"velocity":0.3937007874015748},{"duration":0.14285700000002066,"midi":50,"time":110.714175,"velocity":0.3937007874015748},{"duration":0.14285700000002066,"midi":57,"time":110.714175,"velocity":0.3937007874015748},{"duration":0.14285700000002066,"midi":57,"time":110.714175,"velocity":0.3937007874015748},{"duration":0.14285700000002066,"midi":53,"time":110.714175,"velocity":0.3937007874015748},{"duration":0.14285700000002066,"midi":50,"time":110.714175,"velocity":0.3937007874015748},{"duration":0.14285699999999224,"midi":49,"time":111.42846000000002,"velocity":0.3937007874015748},{"duration":0.14285699999999224,"midi":55,"time":111.42846000000002,"velocity":0.3937007874015748},{"duration":0.14285699999999224,"midi":49,"time":111.42846000000002,"velocity":0.3937007874015748},{"duration":0.14285699999999224,"midi":52,"time":111.42846000000002,"velocity":0.3937007874015748},{"duration":0.14285699999999224,"midi":55,"time":111.42846000000002,"velocity":0.3937007874015748},{"duration":0.14285699999999224,"midi":52,"time":111.42846000000002,"velocity":0.3937007874015748},{"duration":0.14285699999999224,"midi":53,"time":111.71417400000001,"velocity":0.3937007874015748},{"duration":0.14285699999999224,"midi":53,"time":111.71417400000001,"velocity":0.3937007874015748},{"duration":0.14285699999999224,"midi":49,"time":111.71417400000001,"velocity":0.3937007874015748},{"duration":0.14285699999999224,"midi":49,"time":111.71417400000001,"velocity":0.3937007874015748},{"duration":0.14285700000002066,"midi":49,"time":111.999888,"velocity":0.3937007874015748},{"duration":0.14285700000002066,"midi":52,"time":111.999888,"velocity":0.3937007874015748},{"duration":0.14285700000002066,"midi":52,"time":111.999888,"velocity":0.3937007874015748},{"duration":0.14285700000002066,"midi":49,"time":111.999888,"velocity":0.3937007874015748},{"duration":0.14285699999999224,"midi":50,"time":112.28560200000001,"velocity":0.3937007874015748},{"duration":0.14285699999999224,"midi":41,"time":112.28560200000001,"velocity":0.3937007874015748},{"duration":0.14285699999999224,"midi":45,"time":112.28560200000001,"velocity":0.3937007874015748},{"duration":0.14285699999999224,"midi":41,"time":112.28560200000001,"velocity":0.3937007874015748},{"duration":0.14285699999999224,"midi":45,"time":112.28560200000001,"velocity":0.3937007874015748},{"duration":0.14285699999999224,"midi":50,"time":112.28560200000001,"velocity":0.3937007874015748},{"duration":0.14285700000002066,"midi":50,"time":112.85703,"velocity":0.3937007874015748},{"duration":0.14285700000002066,"midi":50,"time":112.85703,"velocity":0.3937007874015748},{"duration":0.14285699999999224,"midi":52,"time":112.99988700000002,"velocity":0.3937007874015748},{"duration":0.14285699999999224,"midi":52,"time":112.99988700000002,"velocity":0.3937007874015748},{"duration":0.5714279999999974,"midi":50,"time":113.14274400000001,"velocity":0.3937007874015748},{"duration":0.5714279999999974,"midi":53,"time":113.14274400000001,"velocity":0.3937007874015748},{"duration":0.5714279999999974,"midi":45,"time":113.14274400000001,"velocity":0.3937007874015748},{"duration":0.5714279999999974,"midi":50,"time":113.14274400000001,"velocity":0.3937007874015748},{"duration":0.5714279999999974,"midi":45,"time":113.14274400000001,"velocity":0.3937007874015748},{"duration":0.5714279999999974,"midi":53,"time":113.14274400000001,"velocity":0.3937007874015748},{"duration":0.14285700000000645,"midi":55,"time":113.714172,"velocity":0.3937007874015748},{"duration":0.14285700000000645,"midi":55,"time":113.714172,"velocity":0.3937007874015748},{"duration":0.14285699999999224,"midi":57,"time":113.85702900000001,"velocity":0.3937007874015748},{"duration":0.14285699999999224,"midi":57,"time":113.85702900000001,"velocity":0.3937007874015748},{"duration":0.2857140000000129,"midi":48,"time":113.999886,"velocity":0.3937007874015748},{"duration":0.2857140000000129,"midi":55,"time":113.999886,"velocity":0.3937007874015748},{"duration":0.2857140000000129,"midi":55,"time":113.999886,"velocity":0.3937007874015748},{"duration":0.2857140000000129,"midi":43,"time":113.999886,"velocity":0.3937007874015748},{"duration":0.2857140000000129,"midi":48,"time":113.999886,"velocity":0.3937007874015748},{"duration":0.2857140000000129,"midi":43,"time":113.999886,"velocity":0.3937007874015748},{"duration":0.2857139999999845,"midi":43,"time":114.28560000000002,"velocity":0.3937007874015748},{"duration":0.2857139999999845,"midi":53,"time":114.28560000000002,"velocity":0.3937007874015748},{"duration":0.2857139999999845,"midi":43,"time":114.28560000000002,"velocity":0.3937007874015748},{"duration":0.2857139999999845,"midi":48,"time":114.28560000000002,"velocity":0.3937007874015748},{"duration":0.2857139999999845,"midi":53,"time":114.28560000000002,"velocity":0.3937007874015748},{"duration":0.2857139999999845,"midi":48,"time":114.28560000000002,"velocity":0.3937007874015748},{"duration":0.2857140000000129,"midi":52,"time":114.571314,"velocity":0.3937007874015748},{"duration":0.2857140000000129,"midi":43,"time":114.571314,"velocity":0.3937007874015748},{"duration":0.2857140000000129,"midi":48,"time":114.571314,"velocity":0.3937007874015748},{"duration":0.2857140000000129,"midi":48,"time":114.571314,"velocity":0.3937007874015748},{"duration":0.2857140000000129,"midi":43,"time":114.571314,"velocity":0.3937007874015748},{"duration":0.2857140000000129,"midi":52,"time":114.571314,"velocity":0.3937007874015748},{"duration":0.2857139999999987,"midi":48,"time":114.85702800000001,"velocity":0.3937007874015748},{"duration":0.2857139999999987,"midi":45,"time":114.85702800000001,"velocity":0.3937007874015748},{"duration":0.2857139999999987,"midi":53,"time":114.85702800000001,"velocity":0.3937007874015748},{"duration":0.2857139999999987,"midi":45,"time":114.85702800000001,"velocity":0.3937007874015748},{"duration":0.2857139999999987,"midi":48,"time":114.85702800000001,"velocity":0.3937007874015748},{"duration":0.2857139999999987,"midi":53,"time":114.85702800000001,"velocity":0.3937007874015748},{"duration":0.2857139999999845,"midi":45,"time":115.14274200000001,"velocity":0.3937007874015748},{"duration":0.2857139999999845,"midi":45,"time":115.14274200000001,"velocity":0.3937007874015748},{"duration":0.2857139999999845,"midi":55,"time":115.14274200000001,"velocity":0.3937007874015748},{"duration":0.2857139999999845,"midi":48,"time":115.14274200000001,"velocity":0.3937007874015748},{"duration":0.2857139999999845,"midi":55,"time":115.14274200000001,"velocity":0.3937007874015748},{"duration":0.2857139999999845,"midi":48,"time":115.14274200000001,"velocity":0.3937007874015748},{"duration":0.2857140000000129,"midi":45,"time":115.428456,"velocity":0.3937007874015748},{"duration":0.2857140000000129,"midi":57,"time":115.428456,"velocity":0.3937007874015748},{"duration":0.2857140000000129,"midi":45,"time":115.428456,"velocity":0.3937007874015748},{"duration":0.2857140000000129,"midi":48,"time":115.428456,"velocity":0.3937007874015748},{"duration":0.2857140000000129,"midi":48,"time":115.428456,"velocity":0.3937007874015748},{"duration":0.2857140000000129,"midi":57,"time":115.428456,"velocity":0.3937007874015748},{"duration":0.5714279999999974,"midi":48,"time":115.71417000000001,"velocity":0.3937007874015748},{"duration":0.5714279999999974,"midi":55,"time":115.71417000000001,"velocity":0.3937007874015748},{"duration":0.5714279999999974,"midi":52,"time":115.71417000000001,"velocity":0.3937007874015748},{"duration":0.5714279999999974,"midi":48,"time":115.71417000000001,"velocity":0.3937007874015748},{"duration":0.5714279999999974,"midi":52,"time":115.71417000000001,"velocity":0.3937007874015748},{"duration":0.5714279999999974,"midi":55,"time":115.71417000000001,"velocity":0.3937007874015748},{"duration":0.14285700000000645,"midi":53,"time":116.28559800000001,"velocity":0.3937007874015748},{"duration":0.14285700000000645,"midi":53,"time":116.28559800000001,"velocity":0.3937007874015748},{"duration":0.14285699999999224,"midi":55,"time":116.42845500000001,"velocity":0.3937007874015748},{"duration":0.14285699999999224,"midi":55,"time":116.42845500000001,"velocity":0.3937007874015748},{"duration":0.5714279999999974,"midi":57,"time":116.571312,"velocity":0.3937007874015748},{"duration":0.5714279999999974,"midi":50,"time":116.571312,"velocity":0.3937007874015748},{"duration":0.5714279999999974,"midi":53,"time":116.571312,"velocity":0.3937007874015748},{"duration":0.5714279999999974,"midi":50,"time":116.571312,"velocity":0.3937007874015748},{"duration":0.5714279999999974,"midi":53,"time":116.571312,"velocity":0.3937007874015748},{"duration":0.5714279999999974,"midi":57,"time":116.571312,"velocity":0.3937007874015748},{"duration":0.14285700000002066,"midi":55,"time":117.14274,"velocity":0.3937007874015748},{"duration":0.14285700000002066,"midi":55,"time":117.14274,"velocity":0.3937007874015748},{"duration":0.14285699999999224,"midi":53,"time":117.28559700000002,"velocity":0.3937007874015748},{"duration":0.14285699999999224,"midi":53,"time":117.28559700000002,"velocity":0.3937007874015748},{"duration":0.2857139999999987,"midi":49,"time":117.42845400000002,"velocity":0.3937007874015748},{"duration":0.2857139999999987,"midi":52,"time":117.42845400000002,"velocity":0.3937007874015748},{"duration":0.2857139999999987,"midi":49,"time":117.42845400000002,"velocity":0.3937007874015748},{"duration":0.2857139999999987,"midi":52,"time":117.42845400000002,"velocity":0.3937007874015748},{"duration":0.2857139999999845,"midi":53,"time":117.71416800000002,"velocity":0.3937007874015748},{"duration":0.2857139999999845,"midi":49,"time":117.71416800000002,"velocity":0.3937007874015748},{"duration":0.2857139999999845,"midi":53,"time":117.71416800000002,"velocity":0.3937007874015748},{"duration":0.2857139999999845,"midi":49,"time":117.71416800000002,"velocity":0.3937007874015748},{"duration":0.2857140000000129,"midi":49,"time":117.999882,"velocity":0.3937007874015748},{"duration":0.2857140000000129,"midi":52,"time":117.999882,"velocity":0.3937007874015748},{"duration":0.2857140000000129,"midi":49,"time":117.999882,"velocity":0.3937007874015748},{"duration":0.2857140000000129,"midi":52,"time":117.999882,"velocity":0.3937007874015748},{"duration":0.2857139999999987,"midi":50,"time":118.28559600000001,"velocity":0.3937007874015748},{"duration":0.2857139999999987,"midi":45,"time":118.28559600000001,"velocity":0.3937007874015748},{"duration":0.2857139999999987,"midi":41,"time":118.28559600000001,"velocity":0.3937007874015748},{"duration":0.2857139999999987,"midi":41,"time":118.28559600000001,"velocity":0.3937007874015748},{"duration":0.2857139999999987,"midi":45,"time":118.28559600000001,"velocity":0.3937007874015748},{"duration":0.2857139999999987,"midi":50,"time":118.28559600000001,"velocity":0.3937007874015748},{"duration":0.14285700000002066,"midi":52,"time":118.857024,"velocity":0.3937007874015748},{"duration":0.14285700000002066,"midi":52,"time":118.857024,"velocity":0.3937007874015748},{"duration":0.14285699999999224,"midi":48,"time":118.99988100000002,"velocity":0.3937007874015748},{"duration":0.14285699999999224,"midi":48,"time":118.99988100000002,"velocity":0.3937007874015748},{"duration":0.2857140000000129,"midi":50,"time":119.14273800000001,"velocity":0.3937007874015748},{"duration":0.2857140000000129,"midi":50,"time":119.14273800000001,"velocity":0.3937007874015748},{"duration":0.2857140000000129,"midi":41,"time":119.14273800000001,"velocity":0.3937007874015748},{"duration":0.2857140000000129,"midi":45,"time":119.14273800000001,"velocity":0.3937007874015748},{"duration":0.2857140000000129,"midi":41,"time":119.14273800000001,"velocity":0.3937007874015748},{"duration":0.2857140000000129,"midi":45,"time":119.14273800000001,"velocity":0.3937007874015748},{"duration":0.14285700000000645,"midi":62,"time":119.714166,"velocity":0.3937007874015748},{"duration":0.14285700000000645,"midi":62,"time":119.714166,"velocity":0.3937007874015748},{"duration":0.14285699999999224,"midi":64,"time":119.85702300000001,"velocity":0.3937007874015748},{"duration":0.14285699999999224,"midi":64,"time":119.85702300000001,"velocity":0.3937007874015748},{"duration":0.5714279999999974,"midi":65,"time":119.99988,"velocity":0.3937007874015748},{"duration":0.5714279999999974,"midi":62,"time":119.99988,"velocity":0.3937007874015748},{"duration":0.5714279999999974,"midi":57,"time":119.99988,"velocity":0.3937007874015748},{"duration":0.5714279999999974,"midi":57,"time":119.99988,"velocity":0.3937007874015748},{"duration":0.5714279999999974,"midi":62,"time":119.99988,"velocity":0.3937007874015748},{"duration":0.5714279999999974,"midi":65,"time":119.99988,"velocity":0.3937007874015748},{"duration":0.14285700000002066,"midi":64,"time":120.571308,"velocity":0.3937007874015748},{"duration":0.14285700000002066,"midi":64,"time":120.571308,"velocity":0.3937007874015748},{"duration":0.14285699999999224,"midi":65,"time":120.71416500000002,"velocity":0.3937007874015748},{"duration":0.14285699999999224,"midi":65,"time":120.71416500000002,"velocity":0.3937007874015748},{"duration":0.2857139999999987,"midi":55,"time":120.85702200000001,"velocity":0.3937007874015748},{"duration":0.2857139999999987,"midi":60,"time":120.85702200000001,"velocity":0.3937007874015748},{"duration":0.2857139999999987,"midi":60,"time":120.85702200000001,"velocity":0.3937007874015748},{"duration":0.2857139999999987,"midi":67,"time":120.85702200000001,"velocity":0.3937007874015748},{"duration":0.2857139999999987,"midi":67,"time":120.85702200000001,"velocity":0.3937007874015748},{"duration":0.2857139999999987,"midi":55,"time":120.85702200000001,"velocity":0.3937007874015748},{"duration":0.2857139999999845,"midi":65,"time":121.14273600000001,"velocity":0.3937007874015748},{"duration":0.2857139999999845,"midi":60,"time":121.14273600000001,"velocity":0.3937007874015748},{"duration":0.2857139999999845,"midi":55,"time":121.14273600000001,"velocity":0.3937007874015748},{"duration":0.2857139999999845,"midi":65,"time":121.14273600000001,"velocity":0.3937007874015748},{"duration":0.2857139999999845,"midi":55,"time":121.14273600000001,"velocity":0.3937007874015748},{"duration":0.2857139999999845,"midi":60,"time":121.14273600000001,"velocity":0.3937007874015748},{"duration":0.2857140000000129,"midi":55,"time":121.42845,"velocity":0.3937007874015748},{"duration":0.2857140000000129,"midi":60,"time":121.42845,"velocity":0.3937007874015748},{"duration":0.2857140000000129,"midi":55,"time":121.42845,"velocity":0.3937007874015748},{"duration":0.2857140000000129,"midi":67,"time":121.42845,"velocity":0.3937007874015748},{"duration":0.2857140000000129,"midi":67,"time":121.42845,"velocity":0.3937007874015748},{"duration":0.2857140000000129,"midi":60,"time":121.42845,"velocity":0.3937007874015748},{"duration":0.2857140000000129,"midi":69,"time":121.71416400000001,"velocity":0.3937007874015748},{"duration":0.2857140000000129,"midi":65,"time":121.71416400000001,"velocity":0.3937007874015748},{"duration":0.2857140000000129,"midi":69,"time":121.71416400000001,"velocity":0.3937007874015748},{"duration":0.2857140000000129,"midi":65,"time":121.71416400000001,"velocity":0.3937007874015748},{"duration":0.2857139999999845,"midi":67,"time":121.99987800000002,"velocity":0.3937007874015748},{"duration":0.2857139999999845,"midi":60,"time":121.99987800000002,"velocity":0.3937007874015748},{"duration":0.2857139999999845,"midi":60,"time":121.99987800000002,"velocity":0.3937007874015748},{"duration":0.2857139999999845,"midi":67,"time":121.99987800000002,"velocity":0.3937007874015748},{"duration":0.2857139999999987,"midi":65,"time":122.28559200000001,"velocity":0.3937007874015748},{"duration":0.2857139999999987,"midi":60,"time":122.28559200000001,"velocity":0.3937007874015748},{"duration":0.2857139999999987,"midi":60,"time":122.28559200000001,"velocity":0.3937007874015748},{"duration":0.2857139999999987,"midi":65,"time":122.28559200000001,"velocity":0.3937007874015748},{"duration":0.2857140000000129,"midi":62,"time":122.571306,"velocity":0.3937007874015748},{"duration":0.2857140000000129,"midi":58,"time":122.571306,"velocity":0.3937007874015748},{"duration":0.2857140000000129,"midi":58,"time":122.571306,"velocity":0.3937007874015748},{"duration":0.2857140000000129,"midi":62,"time":122.571306,"velocity":0.3937007874015748},{"duration":0.2857140000000129,"midi":53,"time":122.571306,"velocity":0.3937007874015748},{"duration":0.2857140000000129,"midi":53,"time":122.571306,"velocity":0.3937007874015748},{"duration":0.14285700000002066,"midi":62,"time":123.142734,"velocity":0.3937007874015748},{"duration":0.14285700000002066,"midi":62,"time":123.142734,"velocity":0.3937007874015748},{"duration":0.14285699999997803,"midi":64,"time":123.28559100000003,"velocity":0.3937007874015748},{"duration":0.14285699999997803,"midi":64,"time":123.28559100000003,"velocity":0.3937007874015748},{"duration":0.2857140000000129,"midi":65,"time":123.428448,"velocity":0.3937007874015748},{"duration":0.2857140000000129,"midi":57,"time":123.428448,"velocity":0.3937007874015748},{"duration":0.2857140000000129,"midi":65,"time":123.428448,"velocity":0.3937007874015748},{"duration":0.2857140000000129,"midi":62,"time":123.428448,"velocity":0.3937007874015748},{"duration":0.2857140000000129,"midi":62,"time":123.428448,"velocity":0.3937007874015748},{"duration":0.2857140000000129,"midi":57,"time":123.428448,"velocity":0.3937007874015748},{"duration":0.2857139999999845,"midi":57,"time":123.71416200000002,"velocity":0.3937007874015748},{"duration":0.2857139999999845,"midi":62,"time":123.71416200000002,"velocity":0.3937007874015748},{"duration":0.2857139999999845,"midi":57,"time":123.71416200000002,"velocity":0.3937007874015748},{"duration":0.2857139999999845,"midi":67,"time":123.71416200000002,"velocity":0.3937007874015748},{"duration":0.2857139999999845,"midi":62,"time":123.71416200000002,"velocity":0.3937007874015748},{"duration":0.2857139999999845,"midi":67,"time":123.71416200000002,"velocity":0.3937007874015748},{"duration":0.2857140000000129,"midi":69,"time":123.999876,"velocity":0.3937007874015748},{"duration":0.2857140000000129,"midi":62,"time":123.999876,"velocity":0.3937007874015748},{"duration":0.2857140000000129,"midi":62,"time":123.999876,"velocity":0.3937007874015748},{"duration":0.2857140000000129,"midi":69,"time":123.999876,"velocity":0.3937007874015748},{"duration":0.2857139999999987,"midi":62,"time":124.28559000000001,"velocity":0.3937007874015748},{"duration":0.2857139999999987,"midi":62,"time":124.28559000000001,"velocity":0.3937007874015748},{"duration":0.2857139999999987,"midi":58,"time":124.28559000000001,"velocity":0.3937007874015748},{"duration":0.2857139999999987,"midi":70,"time":124.28559000000001,"velocity":0.3937007874015748},{"duration":0.2857139999999987,"midi":58,"time":124.28559000000001,"velocity":0.3937007874015748},{"duration":0.2857139999999987,"midi":70,"time":124.28559000000001,"velocity":0.3937007874015748},{"duration":0.2857139999999845,"midi":62,"time":124.57130400000001,"velocity":0.3937007874015748},{"duration":0.2857139999999845,"midi":58,"time":124.57130400000001,"velocity":0.3937007874015748},{"duration":0.2857139999999845,"midi":62,"time":124.57130400000001,"velocity":0.3937007874015748},{"duration":0.2857139999999845,"midi":58,"time":124.57130400000001,"velocity":0.3937007874015748},{"duration":0.2857140000000129,"midi":67,"time":124.857018,"velocity":0.3937007874015748},{"duration":0.2857140000000129,"midi":67,"time":124.857018,"velocity":0.3937007874015748},{"duration":0.2857140000000129,"midi":62,"time":124.857018,"velocity":0.3937007874015748},{"duration":0.2857140000000129,"midi":62,"time":124.857018,"velocity":0.3937007874015748},{"duration":0.2857140000000129,"midi":57,"time":125.14273200000001,"velocity":0.3937007874015748},{"duration":0.2857140000000129,"midi":65,"time":125.14273200000001,"velocity":0.3937007874015748},{"duration":0.2857140000000129,"midi":57,"time":125.14273200000001,"velocity":0.3937007874015748},{"duration":0.2857140000000129,"midi":65,"time":125.14273200000001,"velocity":0.3937007874015748},{"duration":0.14285700000000645,"midi":67,"time":125.71416,"velocity":0.3937007874015748},{"duration":0.14285700000000645,"midi":67,"time":125.71416,"velocity":0.3937007874015748},{"duration":0.14285699999999224,"midi":64,"time":125.85701700000001,"velocity":0.3937007874015748},{"duration":0.14285699999999224,"midi":64,"time":125.85701700000001,"velocity":0.3937007874015748},{"duration":0.2857140000000129,"midi":57,"time":125.999874,"velocity":0.3937007874015748},{"duration":0.2857140000000129,"midi":62,"time":125.999874,"velocity":0.3937007874015748},{"duration":0.2857140000000129,"midi":57,"time":125.999874,"velocity":0.3937007874015748},{"duration":0.2857140000000129,"midi":62,"time":125.999874,"velocity":0.3937007874015748},{"duration":0.14285700000002066,"midi":64,"time":126.571302,"velocity":0.3937007874015748},{"duration":0.14285700000002066,"midi":64,"time":126.571302,"velocity":0.3937007874015748},{"duration":0.14285699999999224,"midi":61,"time":126.71415900000002,"velocity":0.3937007874015748},{"duration":0.14285699999999224,"midi":61,"time":126.71415900000002,"velocity":0.3937007874015748},{"duration":0.14285699999999224,"midi":50,"time":126.85701600000002,"velocity":0.3937007874015748},{"duration":0.14285699999999224,"midi":50,"time":126.85701600000002,"velocity":0.3937007874015748},{"duration":0.14285699999999224,"midi":62,"time":126.85701600000002,"velocity":0.3937007874015748},{"duration":0.14285699999999224,"midi":62,"time":126.85701600000002,"velocity":0.3937007874015748},{"duration":0.14285700000000645,"midi":48,"time":126.99987300000001,"velocity":0.3937007874015748},{"duration":0.14285700000000645,"midi":48,"time":126.99987300000001,"velocity":0.3937007874015748},{"duration":0.14285700000000645,"midi":60,"time":126.99987300000001,"velocity":0.3937007874015748},{"duration":0.14285700000000645,"midi":60,"time":126.99987300000001,"velocity":0.3937007874015748},{"duration":0.14285699999999224,"midi":62,"time":127.14273000000001,"velocity":0.3937007874015748},{"duration":0.14285699999999224,"midi":50,"time":127.14273000000001,"velocity":0.3937007874015748},{"duration":0.14285699999999224,"midi":62,"time":127.14273000000001,"velocity":0.3937007874015748},{"duration":0.14285699999999224,"midi":50,"time":127.14273000000001,"velocity":0.3937007874015748},{"duration":0.14285699999999224,"midi":52,"time":127.285587,"velocity":0.3937007874015748},{"duration":0.14285699999999224,"midi":52,"time":127.285587,"velocity":0.3937007874015748},{"duration":0.14285699999999224,"midi":64,"time":127.285587,"velocity":0.3937007874015748},{"duration":0.14285699999999224,"midi":64,"time":127.285587,"velocity":0.3937007874015748},{"duration":0.14285700000002066,"midi":50,"time":127.428444,"velocity":0.3937007874015748},{"duration":0.14285700000002066,"midi":62,"time":127.428444,"velocity":0.3937007874015748},{"duration":0.14285700000002066,"midi":50,"time":127.428444,"velocity":0.3937007874015748},{"duration":0.14285700000002066,"midi":62,"time":127.428444,"velocity":0.3937007874015748},{"duration":0.14285699999999224,"midi":64,"time":127.57130100000002,"velocity":0.3937007874015748},{"duration":0.14285699999999224,"midi":52,"time":127.57130100000002,"velocity":0.3937007874015748},{"duration":0.14285699999999224,"midi":52,"time":127.57130100000002,"velocity":0.3937007874015748},{"duration":0.14285699999999224,"midi":64,"time":127.57130100000002,"velocity":0.3937007874015748},{"duration":0.14285699999999224,"midi":65,"time":127.71415800000001,"velocity":0.3937007874015748},{"duration":0.14285699999999224,"midi":53,"time":127.71415800000001,"velocity":0.3937007874015748},{"duration":0.14285699999999224,"midi":53,"time":127.71415800000001,"velocity":0.3937007874015748},{"duration":0.14285699999999224,"midi":65,"time":127.71415800000001,"velocity":0.3937007874015748},{"duration":0.14285700000002066,"midi":64,"time":127.857015,"velocity":0.3937007874015748},{"duration":0.14285700000002066,"midi":64,"time":127.857015,"velocity":0.3937007874015748},{"duration":0.14285700000002066,"midi":52,"time":127.857015,"velocity":0.3937007874015748},{"duration":0.14285700000002066,"midi":52,"time":127.857015,"velocity":0.3937007874015748},{"duration":0.14285699999997803,"midi":53,"time":127.99987200000002,"velocity":0.3937007874015748},{"duration":0.14285699999997803,"midi":65,"time":127.99987200000002,"velocity":0.3937007874015748},{"duration":0.14285699999997803,"midi":53,"time":127.99987200000002,"velocity":0.3937007874015748},{"duration":0.14285699999997803,"midi":65,"time":127.99987200000002,"velocity":0.3937007874015748},{"duration":0.14285699999999224,"midi":55,"time":128.142729,"velocity":0.3937007874015748},{"duration":0.14285699999999224,"midi":55,"time":128.142729,"velocity":0.3937007874015748},{"duration":0.14285699999999224,"midi":67,"time":128.142729,"velocity":0.3937007874015748},{"duration":0.14285699999999224,"midi":67,"time":128.142729,"velocity":0.3937007874015748},{"duration":0.14285700000002066,"midi":53,"time":128.285586,"velocity":0.3937007874015748},{"duration":0.14285700000002066,"midi":65,"time":128.285586,"velocity":0.3937007874015748},{"duration":0.14285700000002066,"midi":53,"time":128.285586,"velocity":0.3937007874015748},{"duration":0.14285700000002066,"midi":65,"time":128.285586,"velocity":0.3937007874015748},{"duration":0.14285699999999224,"midi":55,"time":128.42844300000002,"velocity":0.3937007874015748},{"duration":0.14285699999999224,"midi":67,"time":128.42844300000002,"velocity":0.3937007874015748},{"duration":0.14285699999999224,"midi":55,"time":128.42844300000002,"velocity":0.3937007874015748},{"duration":0.14285699999999224,"midi":67,"time":128.42844300000002,"velocity":0.3937007874015748},{"duration":0.14285699999999224,"midi":69,"time":128.5713,"velocity":0.3937007874015748},{"duration":0.14285699999999224,"midi":69,"time":128.5713,"velocity":0.3937007874015748},{"duration":0.14285699999999224,"midi":57,"time":128.5713,"velocity":0.3937007874015748},{"duration":0.14285699999999224,"midi":57,"time":128.5713,"velocity":0.3937007874015748},{"duration":0.14285699999999224,"midi":69,"time":128.85701400000002,"velocity":0.3937007874015748},{"duration":0.14285699999999224,"midi":69,"time":128.85701400000002,"velocity":0.3937007874015748},{"duration":0.14285699999999224,"midi":57,"time":128.85701400000002,"velocity":0.3937007874015748},{"duration":0.14285699999999224,"midi":57,"time":128.85701400000002,"velocity":0.3937007874015748},{"duration":0.14285699999999224,"midi":57,"time":128.999871,"velocity":0.3937007874015748},{"duration":0.14285699999999224,"midi":57,"time":128.999871,"velocity":0.3937007874015748},{"duration":0.14285699999999224,"midi":69,"time":128.999871,"velocity":0.3937007874015748},{"duration":0.14285699999999224,"midi":69,"time":128.999871,"velocity":0.3937007874015748},{"duration":0.14285700000002066,"midi":57,"time":129.142728,"velocity":0.3937007874015748},{"duration":0.14285700000002066,"midi":57,"time":129.142728,"velocity":0.3937007874015748},{"duration":0.14285700000002066,"midi":69,"time":129.142728,"velocity":0.3937007874015748},{"duration":0.14285700000002066,"midi":69,"time":129.142728,"velocity":0.3937007874015748},{"duration":0.14285699999999224,"midi":57,"time":129.42844200000002,"velocity":0.3937007874015748},{"duration":0.14285699999999224,"midi":69,"time":129.42844200000002,"velocity":0.3937007874015748},{"duration":0.14285699999999224,"midi":57,"time":129.42844200000002,"velocity":0.3937007874015748},{"duration":0.14285699999999224,"midi":69,"time":129.42844200000002,"velocity":0.3937007874015748},{"duration":0.14285699999999224,"midi":69,"time":129.71415600000003,"velocity":0.3937007874015748},{"duration":0.14285699999999224,"midi":57,"time":129.71415600000003,"velocity":0.3937007874015748},{"duration":0.14285699999999224,"midi":69,"time":129.71415600000003,"velocity":0.3937007874015748},{"duration":0.14285699999999224,"midi":57,"time":129.71415600000003,"velocity":0.3937007874015748},{"duration":0.14285699999999224,"midi":70,"time":129.99987000000002,"velocity":0.3937007874015748},{"duration":0.14285699999999224,"midi":58,"time":129.99987000000002,"velocity":0.3937007874015748},{"duration":0.14285699999999224,"midi":58,"time":129.99987000000002,"velocity":0.3937007874015748},{"duration":0.14285699999999224,"midi":70,"time":129.99987000000002,"velocity":0.3937007874015748},{"duration":0.14285699999999224,"midi":57,"time":130.285584,"velocity":0.3937007874015748},{"duration":0.14285699999999224,"midi":57,"time":130.285584,"velocity":0.3937007874015748},{"duration":0.14285699999999224,"midi":69,"time":130.285584,"velocity":0.3937007874015748},{"duration":0.14285699999999224,"midi":69,"time":130.285584,"velocity":0.3937007874015748},{"duration":0.14285699999999224,"midi":57,"time":130.571298,"velocity":0.3937007874015748},{"duration":0.14285699999999224,"midi":69,"time":130.571298,"velocity":0.3937007874015748},{"duration":0.14285699999999224,"midi":69,"time":130.571298,"velocity":0.3937007874015748},{"duration":0.14285699999999224,"midi":57,"time":130.571298,"velocity":0.3937007874015748},{"duration":0.14285699999999224,"midi":69,"time":130.714155,"velocity":0.3937007874015748},{"duration":0.14285699999999224,"midi":69,"time":130.714155,"velocity":0.3937007874015748},{"duration":0.14285699999999224,"midi":57,"time":130.714155,"velocity":0.3937007874015748},{"duration":0.14285699999999224,"midi":57,"time":130.714155,"velocity":0.3937007874015748},{"duration":0.14285700000002066,"midi":69,"time":130.857012,"velocity":0.3937007874015748},{"duration":0.14285700000002066,"midi":69,"time":130.857012,"velocity":0.3937007874015748},{"duration":0.14285700000002066,"midi":57,"time":130.857012,"velocity":0.3937007874015748},{"duration":0.14285700000002066,"midi":57,"time":130.857012,"velocity":0.3937007874015748},{"duration":0.14285699999999224,"midi":69,"time":131.142726,"velocity":0.3937007874015748},{"duration":0.14285699999999224,"midi":57,"time":131.142726,"velocity":0.3937007874015748},{"duration":0.14285699999999224,"midi":69,"time":131.142726,"velocity":0.3937007874015748},{"duration":0.14285699999999224,"midi":57,"time":131.142726,"velocity":0.3937007874015748},{"duration":0.14285699999999224,"midi":57,"time":131.42844000000002,"velocity":0.3937007874015748},{"duration":0.14285699999999224,"midi":69,"time":131.42844000000002,"velocity":0.3937007874015748},{"duration":0.14285699999999224,"midi":57,"time":131.42844000000002,"velocity":0.3937007874015748},{"duration":0.14285699999999224,"midi":69,"time":131.42844000000002,"velocity":0.3937007874015748},{"duration":0.14285700000002066,"midi":60,"time":131.714154,"velocity":0.3937007874015748},{"duration":0.14285700000002066,"midi":72,"time":131.714154,"velocity":0.3937007874015748},{"duration":0.14285700000002066,"midi":60,"time":131.714154,"velocity":0.3937007874015748},{"duration":0.14285700000002066,"midi":72,"time":131.714154,"velocity":0.3937007874015748},{"duration":0.8571419999999819,"midi":62,"time":131.99986800000002,"velocity":0.3937007874015748},{"duration":0.8571419999999819,"midi":69,"time":131.99986800000002,"velocity":0.3937007874015748},{"duration":0.8571419999999819,"midi":65,"time":131.99986800000002,"velocity":0.3937007874015748},{"duration":0.8571419999999819,"midi":65,"time":131.99986800000002,"velocity":0.3937007874015748},{"duration":0.8571419999999819,"midi":69,"time":131.99986800000002,"velocity":0.3937007874015748},{"duration":0.8571419999999819,"midi":62,"time":131.99986800000002,"velocity":0.3937007874015748},{"duration":0.8571420000000103,"midi":65,"time":132.85701,"velocity":0.3937007874015748},{"duration":0.8571420000000103,"midi":62,"time":132.85701,"velocity":0.3937007874015748},{"duration":0.8571420000000103,"midi":70,"time":132.85701,"velocity":0.3937007874015748},{"duration":0.8571420000000103,"midi":70,"time":132.85701,"velocity":0.3937007874015748},{"duration":0.8571420000000103,"midi":65,"time":132.85701,"velocity":0.3937007874015748},{"duration":0.8571420000000103,"midi":62,"time":132.85701,"velocity":0.3937007874015748},{"duration":0.2857140000000129,"midi":69,"time":133.714152,"velocity":0.3937007874015748},{"duration":0.2857140000000129,"midi":60,"time":133.714152,"velocity":0.3937007874015748},{"duration":0.2857140000000129,"midi":69,"time":133.714152,"velocity":0.3937007874015748},{"duration":0.2857140000000129,"midi":65,"time":133.714152,"velocity":0.3937007874015748},{"duration":0.2857140000000129,"midi":65,"time":133.714152,"velocity":0.3937007874015748},{"duration":0.2857140000000129,"midi":60,"time":133.714152,"velocity":0.3937007874015748},{"duration":0.2857139999999845,"midi":69,"time":133.99986600000003,"velocity":0.3937007874015748},{"duration":0.2857139999999845,"midi":65,"time":133.99986600000003,"velocity":0.3937007874015748},{"duration":0.2857139999999845,"midi":60,"time":133.99986600000003,"velocity":0.3937007874015748},{"duration":0.2857139999999845,"midi":69,"time":133.99986600000003,"velocity":0.3937007874015748},{"duration":0.2857139999999845,"midi":65,"time":133.99986600000003,"velocity":0.3937007874015748},{"duration":0.2857139999999845,"midi":60,"time":133.99986600000003,"velocity":0.3937007874015748},{"duration":0.2857140000000129,"midi":65,"time":134.28558,"velocity":0.3937007874015748},{"duration":0.2857140000000129,"midi":69,"time":134.28558,"velocity":0.3937007874015748},{"duration":0.2857140000000129,"midi":69,"time":134.28558,"velocity":0.3937007874015748},{"duration":0.2857140000000129,"midi":60,"time":134.28558,"velocity":0.3937007874015748},{"duration":0.2857140000000129,"midi":65,"time":134.28558,"velocity":0.3937007874015748},{"duration":0.2857140000000129,"midi":60,"time":134.28558,"velocity":0.3937007874015748},{"duration":0.14285699999999224,"midi":69,"time":134.57129400000002,"velocity":0.3937007874015748},{"duration":0.14285699999999224,"midi":60,"time":134.57129400000002,"velocity":0.3937007874015748},{"duration":0.14285699999999224,"midi":65,"time":134.57129400000002,"velocity":0.3937007874015748},{"duration":0.14285699999999224,"midi":60,"time":134.57129400000002,"velocity":0.3937007874015748},{"duration":0.14285699999999224,"midi":65,"time":134.57129400000002,"velocity":0.3937007874015748},{"duration":0.14285699999999224,"midi":69,"time":134.57129400000002,"velocity":0.3937007874015748},{"duration":0.2857139999999845,"midi":67,"time":134.71415100000002,"velocity":0.3937007874015748},{"duration":0.2857139999999845,"midi":64,"time":134.71415100000002,"velocity":0.3937007874015748},{"duration":0.2857139999999845,"midi":67,"time":134.71415100000002,"velocity":0.3937007874015748},{"duration":0.2857139999999845,"midi":64,"time":134.71415100000002,"velocity":0.3937007874015748},{"duration":0.2857139999999845,"midi":60,"time":134.71415100000002,"velocity":0.3937007874015748},{"duration":0.2857139999999845,"midi":60,"time":134.71415100000002,"velocity":0.3937007874015748},{"duration":0.8571420000000103,"midi":67,"time":135.428436,"velocity":0.3937007874015748},{"duration":0.8571420000000103,"midi":67,"time":135.428436,"velocity":0.3937007874015748},{"duration":0.8571420000000103,"midi":58,"time":135.428436,"velocity":0.3937007874015748},{"duration":0.8571420000000103,"midi":58,"time":135.428436,"velocity":0.3937007874015748},{"duration":0.8571420000000103,"midi":62,"time":135.428436,"velocity":0.3937007874015748},{"duration":0.8571420000000103,"midi":62,"time":135.428436,"velocity":0.3937007874015748},{"duration":0.8571419999999819,"midi":65,"time":136.28557800000002,"velocity":0.3937007874015748},{"duration":0.8571419999999819,"midi":62,"time":136.28557800000002,"velocity":0.3937007874015748},{"duration":0.8571419999999819,"midi":57,"time":136.28557800000002,"velocity":0.3937007874015748},{"duration":0.8571419999999819,"midi":57,"time":136.28557800000002,"velocity":0.3937007874015748},{"duration":0.8571419999999819,"midi":65,"time":136.28557800000002,"velocity":0.3937007874015748},{"duration":0.8571419999999819,"midi":62,"time":136.28557800000002,"velocity":0.3937007874015748},{"duration":0.2857140000000129,"midi":64,"time":137.14272,"velocity":0.3937007874015748},{"duration":0.2857140000000129,"midi":61,"time":137.14272,"velocity":0.3937007874015748},{"duration":0.2857140000000129,"midi":57,"time":137.14272,"velocity":0.3937007874015748},{"duration":0.2857140000000129,"midi":64,"time":137.14272,"velocity":0.3937007874015748},{"duration":0.2857140000000129,"midi":57,"time":137.14272,"velocity":0.3937007874015748},{"duration":0.2857140000000129,"midi":61,"time":137.14272,"velocity":0.3937007874015748},{"duration":0.2857139999999845,"midi":65,"time":137.428434,"velocity":0.3937007874015748},{"duration":0.2857139999999845,"midi":57,"time":137.428434,"velocity":0.3937007874015748},{"duration":0.2857139999999845,"midi":65,"time":137.428434,"velocity":0.3937007874015748},{"duration":0.2857139999999845,"midi":61,"time":137.428434,"velocity":0.3937007874015748},{"duration":0.2857139999999845,"midi":57,"time":137.428434,"velocity":0.3937007874015748},{"duration":0.2857139999999845,"midi":61,"time":137.428434,"velocity":0.3937007874015748},{"duration":0.2857140000000129,"midi":61,"time":137.714148,"velocity":0.3937007874015748},{"duration":0.2857140000000129,"midi":57,"time":137.714148,"velocity":0.3937007874015748},{"duration":0.2857140000000129,"midi":57,"time":137.714148,"velocity":0.3937007874015748},{"duration":0.2857140000000129,"midi":61,"time":137.714148,"velocity":0.3937007874015748},{"duration":0.2857140000000129,"midi":64,"time":137.714148,"velocity":0.3937007874015748},{"duration":0.2857140000000129,"midi":64,"time":137.714148,"velocity":0.3937007874015748},{"duration":0.14285699999999224,"midi":64,"time":137.999862,"velocity":0.3937007874015748},{"duration":0.42857100000000514,"midi":57,"time":137.999862,"velocity":0.3937007874015748},{"duration":0.42857100000000514,"midi":57,"time":137.999862,"velocity":0.3937007874015748},{"duration":0.14285699999999224,"midi":64,"time":137.999862,"velocity":0.3937007874015748},{"duration":0.2857140000000129,"midi":62,"time":138.142719,"velocity":0.3937007874015748},{"duration":0.2857140000000129,"midi":62,"time":138.142719,"velocity":0.3937007874015748},{"duration":0.14285699999999224,"midi":62,"time":138.428433,"velocity":0.3937007874015748},{"duration":0.14285699999999224,"midi":50,"time":138.428433,"velocity":0.3937007874015748},{"duration":0.14285699999999224,"midi":62,"time":138.428433,"velocity":0.3937007874015748},{"duration":0.14285699999999224,"midi":50,"time":138.428433,"velocity":0.3937007874015748},{"duration":0.14285700000002066,"midi":64,"time":138.57129,"velocity":0.3937007874015748},{"duration":0.14285700000002066,"midi":52,"time":138.57129,"velocity":0.3937007874015748},{"duration":0.14285700000002066,"midi":52,"time":138.57129,"velocity":0.3937007874015748},{"duration":0.14285700000002066,"midi":64,"time":138.57129,"velocity":0.3937007874015748},{"duration":0.14285699999999224,"midi":53,"time":138.71414700000003,"velocity":0.3937007874015748},{"duration":0.14285699999999224,"midi":65,"time":138.71414700000003,"velocity":0.3937007874015748},{"duration":0.14285699999999224,"midi":53,"time":138.71414700000003,"velocity":0.3937007874015748},{"duration":0.14285699999999224,"midi":65,"time":138.71414700000003,"velocity":0.3937007874015748},{"duration":0.42857100000000514,"midi":65,"time":138.85700400000002,"velocity":0.3937007874015748},{"duration":0.42857100000000514,"midi":62,"time":138.85700400000002,"velocity":0.3937007874015748},{"duration":0.42857100000000514,"midi":62,"time":138.85700400000002,"velocity":0.3937007874015748},{"duration":0.42857100000000514,"midi":69,"time":138.85700400000002,"velocity":0.3937007874015748},{"duration":0.42857100000000514,"midi":57,"time":138.85700400000002,"velocity":0.3937007874015748},{"duration":0.42857100000000514,"midi":65,"time":138.85700400000002,"velocity":0.3937007874015748},{"duration":0.42857100000000514,"midi":69,"time":138.85700400000002,"velocity":0.3937007874015748},{"duration":0.42857100000000514,"midi":57,"time":138.85700400000002,"velocity":0.3937007874015748},{"duration":0.14285699999999224,"midi":62,"time":139.28557500000002,"velocity":0.3937007874015748},{"duration":0.14285699999999224,"midi":50,"time":139.28557500000002,"velocity":0.3937007874015748},{"duration":0.14285699999999224,"midi":62,"time":139.28557500000002,"velocity":0.3937007874015748},{"duration":0.14285699999999224,"midi":50,"time":139.28557500000002,"velocity":0.3937007874015748},{"duration":0.14285699999999224,"midi":52,"time":139.42843200000002,"velocity":0.3937007874015748},{"duration":0.14285699999999224,"midi":50,"time":139.42843200000002,"velocity":0.3937007874015748},{"duration":0.14285699999999224,"midi":64,"time":139.42843200000002,"velocity":0.3937007874015748},{"duration":0.14285699999999224,"midi":64,"time":139.42843200000002,"velocity":0.3937007874015748},{"duration":0.14285699999999224,"midi":52,"time":139.42843200000002,"velocity":0.3937007874015748},{"duration":0.14285699999999224,"midi":50,"time":139.42843200000002,"velocity":0.3937007874015748},{"duration":0.14285699999999224,"midi":53,"time":139.571289,"velocity":0.3937007874015748},{"duration":0.14285699999999224,"midi":53,"time":139.571289,"velocity":0.3937007874015748},{"duration":0.14285699999999224,"midi":65,"time":139.571289,"velocity":0.3937007874015748},{"duration":0.14285699999999224,"midi":65,"time":139.571289,"velocity":0.3937007874015748},{"duration":0.42857100000000514,"midi":58,"time":139.714146,"velocity":0.3937007874015748},{"duration":0.42857100000000514,"midi":65,"time":139.714146,"velocity":0.3937007874015748},{"duration":0.42857100000000514,"midi":62,"time":139.714146,"velocity":0.3937007874015748},{"duration":0.42857100000000514,"midi":65,"time":139.714146,"velocity":0.3937007874015748},{"duration":0.42857100000000514,"midi":62,"time":139.714146,"velocity":0.3937007874015748},{"duration":0.42857100000000514,"midi":70,"time":139.714146,"velocity":0.3937007874015748},{"duration":0.42857100000000514,"midi":58,"time":139.714146,"velocity":0.3937007874015748},{"duration":0.42857100000000514,"midi":70,"time":139.714146,"velocity":0.3937007874015748},{"duration":0.14285699999999224,"midi":62,"time":140.142717,"velocity":0.3937007874015748},{"duration":0.14285699999999224,"midi":50,"time":140.142717,"velocity":0.3937007874015748},{"duration":0.14285699999999224,"midi":62,"time":140.142717,"velocity":0.3937007874015748},{"duration":0.14285699999999224,"midi":50,"time":140.142717,"velocity":0.3937007874015748},{"duration":0.14285700000002066,"midi":52,"time":140.285574,"velocity":0.3937007874015748},{"duration":0.14285700000002066,"midi":64,"time":140.285574,"velocity":0.3937007874015748},{"duration":0.14285700000002066,"midi":64,"time":140.285574,"velocity":0.3937007874015748},{"duration":0.14285700000002066,"midi":52,"time":140.285574,"velocity":0.3937007874015748},{"duration":0.14285699999999224,"midi":65,"time":140.42843100000002,"velocity":0.3937007874015748},{"duration":0.14285699999999224,"midi":53,"time":140.42843100000002,"velocity":0.3937007874015748},{"duration":0.14285699999999224,"midi":65,"time":140.42843100000002,"velocity":0.3937007874015748},{"duration":0.14285699999999224,"midi":53,"time":140.42843100000002,"velocity":0.3937007874015748},{"duration":0.2857140000000129,"midi":60,"time":140.571288,"velocity":0.3937007874015748},{"duration":0.2857140000000129,"midi":69,"time":140.571288,"velocity":0.3937007874015748},{"duration":0.2857140000000129,"midi":57,"time":140.571288,"velocity":0.3937007874015748},{"duration":0.2857140000000129,"midi":57,"time":140.571288,"velocity":0.3937007874015748},{"duration":0.2857140000000129,"midi":65,"time":140.571288,"velocity":0.3937007874015748},{"duration":0.2857140000000129,"midi":65,"time":140.571288,"velocity":0.3937007874015748},{"duration":0.2857140000000129,"midi":69,"time":140.571288,"velocity":0.3937007874015748},{"duration":0.2857140000000129,"midi":60,"time":140.571288,"velocity":0.3937007874015748},{"duration":0.2857139999999845,"midi":57,"time":140.85700200000002,"velocity":0.3937007874015748},{"duration":0.2857139999999845,"midi":65,"time":140.85700200000002,"velocity":0.3937007874015748},{"duration":0.2857139999999845,"midi":69,"time":140.85700200000002,"velocity":0.3937007874015748},{"duration":0.2857139999999845,"midi":69,"time":140.85700200000002,"velocity":0.3937007874015748},{"duration":0.2857139999999845,"midi":57,"time":140.85700200000002,"velocity":0.3937007874015748},{"duration":0.2857139999999845,"midi":65,"time":140.85700200000002,"velocity":0.3937007874015748},{"duration":0.2857139999999845,"midi":60,"time":140.85700200000002,"velocity":0.3937007874015748},{"duration":0.2857139999999845,"midi":60,"time":140.85700200000002,"velocity":0.3937007874015748},{"duration":0.2857140000000129,"midi":65,"time":141.142716,"velocity":0.3937007874015748},{"duration":0.2857140000000129,"midi":69,"time":141.142716,"velocity":0.3937007874015748},{"duration":0.2857140000000129,"midi":65,"time":141.142716,"velocity":0.3937007874015748},{"duration":0.2857140000000129,"midi":60,"time":141.142716,"velocity":0.3937007874015748},{"duration":0.2857140000000129,"midi":60,"time":141.142716,"velocity":0.3937007874015748},{"duration":0.2857140000000129,"midi":72,"time":141.142716,"velocity":0.3937007874015748},{"duration":0.2857140000000129,"midi":69,"time":141.142716,"velocity":0.3937007874015748},{"duration":0.2857140000000129,"midi":72,"time":141.142716,"velocity":0.3937007874015748},{"duration":0.14285699999999224,"midi":69,"time":141.42843000000002,"velocity":0.3937007874015748},{"duration":0.14285699999999224,"midi":65,"time":141.42843000000002,"velocity":0.3937007874015748},{"duration":0.14285699999999224,"midi":57,"time":141.42843000000002,"velocity":0.3937007874015748},{"duration":0.14285699999999224,"midi":60,"time":141.42843000000002,"velocity":0.3937007874015748},{"duration":0.14285699999999224,"midi":69,"time":141.42843000000002,"velocity":0.3937007874015748},{"duration":0.14285699999999224,"midi":65,"time":141.42843000000002,"velocity":0.3937007874015748},{"duration":0.14285699999999224,"midi":57,"time":141.42843000000002,"velocity":0.3937007874015748},{"duration":0.14285699999999224,"midi":60,"time":141.42843000000002,"velocity":0.3937007874015748},{"duration":0.14285700000002066,"midi":67,"time":141.571287,"velocity":0.3937007874015748},{"duration":0.14285700000002066,"midi":55,"time":141.571287,"velocity":0.3937007874015748},{"duration":0.14285700000002066,"midi":55,"time":141.571287,"velocity":0.3937007874015748},{"duration":0.14285700000002066,"midi":67,"time":141.571287,"velocity":0.3937007874015748},{"duration":0.8571420000000103,"midi":67,"time":142.285572,"velocity":0.3937007874015748},{"duration":0.8571420000000103,"midi":55,"time":142.285572,"velocity":0.3937007874015748},{"duration":0.8571420000000103,"midi":58,"time":142.285572,"velocity":0.3937007874015748},{"duration":0.8571420000000103,"midi":62,"time":142.285572,"velocity":0.3937007874015748},{"duration":0.8571420000000103,"midi":62,"time":142.285572,"velocity":0.3937007874015748},{"duration":0.8571420000000103,"midi":67,"time":142.285572,"velocity":0.3937007874015748},{"duration":0.8571420000000103,"midi":58,"time":142.285572,"velocity":0.3937007874015748},{"duration":0.8571420000000103,"midi":55,"time":142.285572,"velocity":0.3937007874015748},{"duration":0.8571420000000103,"midi":57,"time":143.142714,"velocity":0.3937007874015748},{"duration":0.8571420000000103,"midi":62,"time":143.142714,"velocity":0.3937007874015748},{"duration":0.8571420000000103,"midi":65,"time":143.142714,"velocity":0.3937007874015748},{"duration":0.8571420000000103,"midi":53,"time":143.142714,"velocity":0.3937007874015748},{"duration":0.8571420000000103,"midi":57,"time":143.142714,"velocity":0.3937007874015748},{"duration":0.8571420000000103,"midi":65,"time":143.142714,"velocity":0.3937007874015748},{"duration":0.8571420000000103,"midi":53,"time":143.142714,"velocity":0.3937007874015748},{"duration":0.8571420000000103,"midi":62,"time":143.142714,"velocity":0.3937007874015748},{"duration":0.2857139999999845,"midi":61,"time":143.99985600000002,"velocity":0.3937007874015748},{"duration":0.2857139999999845,"midi":52,"time":143.99985600000002,"velocity":0.3937007874015748},{"duration":0.2857139999999845,"midi":64,"time":143.99985600000002,"velocity":0.3937007874015748},{"duration":0.2857139999999845,"midi":52,"time":143.99985600000002,"velocity":0.3937007874015748},{"duration":0.2857139999999845,"midi":61,"time":143.99985600000002,"velocity":0.3937007874015748},{"duration":0.2857139999999845,"midi":57,"time":143.99985600000002,"velocity":0.3937007874015748},{"duration":0.2857139999999845,"midi":64,"time":143.99985600000002,"velocity":0.3937007874015748},{"duration":0.2857139999999845,"midi":57,"time":143.99985600000002,"velocity":0.3937007874015748},{"duration":0.2857139999999845,"midi":53,"time":144.28557,"velocity":0.3937007874015748},{"duration":0.2857139999999845,"midi":53,"time":144.28557,"velocity":0.3937007874015748},{"duration":0.2857139999999845,"midi":61,"time":144.28557,"velocity":0.3937007874015748},{"duration":0.2857139999999845,"midi":57,"time":144.28557,"velocity":0.3937007874015748},{"duration":0.2857139999999845,"midi":65,"time":144.28557,"velocity":0.3937007874015748},{"duration":0.2857139999999845,"midi":57,"time":144.28557,"velocity":0.3937007874015748},{"duration":0.2857139999999845,"midi":61,"time":144.28557,"velocity":0.3937007874015748},{"duration":0.2857139999999845,"midi":65,"time":144.28557,"velocity":0.3937007874015748},{"duration":0.2857140000000129,"midi":57,"time":144.571284,"velocity":0.3937007874015748},{"duration":0.2857140000000129,"midi":61,"time":144.571284,"velocity":0.3937007874015748},{"duration":0.2857140000000129,"midi":52,"time":144.571284,"velocity":0.3937007874015748},{"duration":0.2857140000000129,"midi":57,"time":144.571284,"velocity":0.3937007874015748},{"duration":0.2857140000000129,"midi":52,"time":144.571284,"velocity":0.3937007874015748},{"duration":0.2857140000000129,"midi":64,"time":144.571284,"velocity":0.3937007874015748},{"duration":0.2857140000000129,"midi":61,"time":144.571284,"velocity":0.3937007874015748},{"duration":0.2857140000000129,"midi":64,"time":144.571284,"velocity":0.3937007874015748},{"duration":0.42857100000000514,"midi":53,"time":144.856998,"velocity":0.3937007874015748},{"duration":0.42857100000000514,"midi":62,"time":144.856998,"velocity":0.3937007874015748},{"duration":0.42857100000000514,"midi":57,"time":144.856998,"velocity":0.3937007874015748},{"duration":0.42857100000000514,"midi":50,"time":144.856998,"velocity":0.3937007874015748},{"duration":0.42857100000000514,"midi":57,"time":144.856998,"velocity":0.3937007874015748},{"duration":0.42857100000000514,"midi":50,"time":144.856998,"velocity":0.3937007874015748},{"duration":0.42857100000000514,"midi":62,"time":144.856998,"velocity":0.3937007874015748},{"duration":0.42857100000000514,"midi":53,"time":144.856998,"velocity":0.3937007874015748},{"duration":1.7142839999999921,"midi":50,"time":145.71414000000001,"velocity":0.3937007874015748},{"duration":1.7142839999999921,"midi":50,"time":145.71414000000001,"velocity":0.3937007874015748}]},{"instrument":{"family":"piano","number":6,"name":"harpsichord"},"notes":[{"duration":0.142857,"midi":62,"time":0,"velocity":0.3937007874015748},{"duration":0.142857,"midi":62,"time":0,"velocity":0.3937007874015748},{"duration":0.142857,"midi":62,"time":0.285714,"velocity":0.3937007874015748},{"duration":0.142857,"midi":62,"time":0.285714,"velocity":0.3937007874015748},{"duration":0.142857,"midi":62,"time":0.42857100000000004,"velocity":0.3937007874015748},{"duration":0.142857,"midi":62,"time":0.42857100000000004,"velocity":0.3937007874015748},{"duration":0.142857,"midi":62,"time":0.7142850000000001,"velocity":0.3937007874015748},{"duration":0.142857,"midi":62,"time":0.7142850000000001,"velocity":0.3937007874015748},{"duration":0.14285700000000012,"midi":62,"time":0.8571420000000001,"velocity":0.3937007874015748},{"duration":0.14285700000000012,"midi":62,"time":0.8571420000000001,"velocity":0.3937007874015748},{"duration":0.142857,"midi":62,"time":1.142856,"velocity":0.3937007874015748},{"duration":0.142857,"midi":62,"time":1.142856,"velocity":0.3937007874015748},{"duration":0.142857,"midi":62,"time":1.285713,"velocity":0.3937007874015748},{"duration":0.142857,"midi":62,"time":1.285713,"velocity":0.3937007874015748},{"duration":0.142857,"midi":62,"time":1.4285700000000001,"velocity":0.3937007874015748},{"duration":0.142857,"midi":62,"time":1.4285700000000001,"velocity":0.3937007874015748},{"duration":0.142857,"midi":62,"time":1.5714270000000001,"velocity":0.3937007874015748},{"duration":0.142857,"midi":62,"time":1.5714270000000001,"velocity":0.3937007874015748},{"duration":0.1428569999999998,"midi":62,"time":1.7142840000000001,"velocity":0.3937007874015748},{"duration":0.1428569999999998,"midi":62,"time":1.7142840000000001,"velocity":0.3937007874015748},{"duration":0.14285699999999957,"midi":62,"time":1.9999980000000004,"velocity":0.3937007874015748},{"duration":0.14285699999999957,"midi":62,"time":1.9999980000000004,"velocity":0.3937007874015748},{"duration":0.14285700000000023,"midi":62,"time":2.142855,"velocity":0.3937007874015748},{"duration":0.14285700000000023,"midi":62,"time":2.142855,"velocity":0.3937007874015748},{"duration":0.1428569999999998,"midi":62,"time":2.4285690000000004,"velocity":0.3937007874015748},{"duration":0.1428569999999998,"midi":62,"time":2.4285690000000004,"velocity":0.3937007874015748},{"duration":0.1428569999999998,"midi":62,"time":2.571426,"velocity":0.3937007874015748},{"duration":0.1428569999999998,"midi":62,"time":2.571426,"velocity":0.3937007874015748},{"duration":0.14285700000000023,"midi":62,"time":2.8571400000000002,"velocity":0.3937007874015748},{"duration":0.14285700000000023,"midi":62,"time":2.8571400000000002,"velocity":0.3937007874015748},{"duration":0.1428569999999998,"midi":62,"time":2.9999970000000005,"velocity":0.3937007874015748},{"duration":0.1428569999999998,"midi":62,"time":2.9999970000000005,"velocity":0.3937007874015748},{"duration":0.14285700000000023,"midi":62,"time":3.1428540000000003,"velocity":0.3937007874015748},{"duration":0.14285700000000023,"midi":62,"time":3.1428540000000003,"velocity":0.3937007874015748},{"duration":0.1428569999999998,"midi":62,"time":3.2857110000000005,"velocity":0.3937007874015748},{"duration":0.1428569999999998,"midi":62,"time":3.2857110000000005,"velocity":0.3937007874015748},{"duration":0.14285700000000023,"midi":62,"time":3.4285680000000003,"velocity":0.3937007874015748},{"duration":0.14285700000000023,"midi":62,"time":3.4285680000000003,"velocity":0.3937007874015748},{"duration":0.14285700000000023,"midi":62,"time":3.714282,"velocity":0.3937007874015748},{"duration":0.14285700000000023,"midi":62,"time":3.714282,"velocity":0.3937007874015748},{"duration":0.14285700000000068,"midi":62,"time":3.857139,"velocity":0.3937007874015748},{"duration":0.14285700000000068,"midi":62,"time":3.857139,"velocity":0.3937007874015748},{"duration":0.14285700000000023,"midi":62,"time":4.142853,"velocity":0.3937007874015748},{"duration":0.14285700000000023,"midi":62,"time":4.142853,"velocity":0.3937007874015748},{"duration":0.14285700000000112,"midi":62,"time":4.28571,"velocity":0.3937007874015748},{"duration":0.14285700000000112,"midi":62,"time":4.28571,"velocity":0.3937007874015748},{"duration":0.14285700000000023,"midi":62,"time":4.571424,"velocity":0.3937007874015748},{"duration":0.14285700000000023,"midi":62,"time":4.571424,"velocity":0.3937007874015748},{"duration":0.14285700000000023,"midi":62,"time":4.714281000000001,"velocity":0.3937007874015748},{"duration":0.14285700000000023,"midi":62,"time":4.714281000000001,"velocity":0.3937007874015748},{"duration":0.14285699999999935,"midi":57,"time":4.857138000000001,"velocity":0.3937007874015748},{"duration":0.14285699999999935,"midi":57,"time":4.857138000000001,"velocity":0.3937007874015748},{"duration":0.14285700000000023,"midi":60,"time":4.999995,"velocity":0.3937007874015748},{"duration":0.14285700000000023,"midi":60,"time":4.999995,"velocity":0.3937007874015748},{"duration":0.14285700000000023,"midi":57,"time":5.142852,"velocity":0.3937007874015748},{"duration":0.14285700000000023,"midi":62,"time":5.142852,"velocity":0.3937007874015748},{"duration":0.14285700000000023,"midi":62,"time":5.142852,"velocity":0.3937007874015748},{"duration":0.14285700000000023,"midi":57,"time":5.142852,"velocity":0.3937007874015748},{"duration":0.14285700000000023,"midi":53,"time":5.142852,"velocity":0.3937007874015748},{"duration":0.14285700000000023,"midi":53,"time":5.142852,"velocity":0.3937007874015748},{"duration":0.14285700000000023,"midi":62,"time":5.428566,"velocity":0.3937007874015748},{"duration":0.14285700000000023,"midi":53,"time":5.428566,"velocity":0.3937007874015748},{"duration":0.14285700000000023,"midi":53,"time":5.428566,"velocity":0.3937007874015748},{"duration":0.14285700000000023,"midi":62,"time":5.428566,"velocity":0.3937007874015748},{"duration":0.14285700000000023,"midi":57,"time":5.428566,"velocity":0.3937007874015748},{"duration":0.14285700000000023,"midi":57,"time":5.428566,"velocity":0.3937007874015748},{"duration":0.14285699999999935,"midi":57,"time":5.7142800000000005,"velocity":0.3937007874015748},{"duration":0.14285699999999935,"midi":62,"time":5.7142800000000005,"velocity":0.3937007874015748},{"duration":0.14285699999999935,"midi":53,"time":5.7142800000000005,"velocity":0.3937007874015748},{"duration":0.14285699999999935,"midi":62,"time":5.7142800000000005,"velocity":0.3937007874015748},{"duration":0.14285699999999935,"midi":57,"time":5.7142800000000005,"velocity":0.3937007874015748},{"duration":0.14285699999999935,"midi":53,"time":5.7142800000000005,"velocity":0.3937007874015748},{"duration":0.14285700000000112,"midi":64,"time":5.857137,"velocity":0.3937007874015748},{"duration":0.14285700000000112,"midi":64,"time":5.857137,"velocity":0.3937007874015748},{"duration":0.14285700000000023,"midi":65,"time":5.999994000000001,"velocity":0.3937007874015748},{"duration":0.14285700000000023,"midi":65,"time":5.999994000000001,"velocity":0.3937007874015748},{"duration":0.14285700000000023,"midi":62,"time":5.999994000000001,"velocity":0.3937007874015748},{"duration":0.14285700000000023,"midi":58,"time":5.999994000000001,"velocity":0.3937007874015748},{"duration":0.14285700000000023,"midi":58,"time":5.999994000000001,"velocity":0.3937007874015748},{"duration":0.14285700000000023,"midi":62,"time":5.999994000000001,"velocity":0.3937007874015748},{"duration":0.14285700000000023,"midi":65,"time":6.2857080000000005,"velocity":0.3937007874015748},{"duration":0.14285700000000023,"midi":65,"time":6.2857080000000005,"velocity":0.3937007874015748},{"duration":0.14285700000000023,"midi":58,"time":6.2857080000000005,"velocity":0.3937007874015748},{"duration":0.14285700000000023,"midi":62,"time":6.2857080000000005,"velocity":0.3937007874015748},{"duration":0.14285700000000023,"midi":62,"time":6.2857080000000005,"velocity":0.3937007874015748},{"duration":0.14285700000000023,"midi":58,"time":6.2857080000000005,"velocity":0.3937007874015748},{"duration":0.14285699999999935,"midi":62,"time":6.571422000000001,"velocity":0.3937007874015748},{"duration":0.14285699999999935,"midi":62,"time":6.571422000000001,"velocity":0.3937007874015748},{"duration":0.14285699999999935,"midi":65,"time":6.571422000000001,"velocity":0.3937007874015748},{"duration":0.14285699999999935,"midi":65,"time":6.571422000000001,"velocity":0.3937007874015748},{"duration":0.14285699999999935,"midi":58,"time":6.571422000000001,"velocity":0.3937007874015748},{"duration":0.14285699999999935,"midi":58,"time":6.571422000000001,"velocity":0.3937007874015748},{"duration":0.14285700000000023,"midi":67,"time":6.714279,"velocity":0.3937007874015748},{"duration":0.14285700000000023,"midi":67,"time":6.714279,"velocity":0.3937007874015748},{"duration":0.14285699999999935,"midi":64,"time":6.857136000000001,"velocity":0.3937007874015748},{"duration":0.14285699999999935,"midi":57,"time":6.857136000000001,"velocity":0.3937007874015748},{"duration":0.14285699999999935,"midi":60,"time":6.857136000000001,"velocity":0.3937007874015748},{"duration":0.14285699999999935,"midi":64,"time":6.857136000000001,"velocity":0.3937007874015748},{"duration":0.14285699999999935,"midi":60,"time":6.857136000000001,"velocity":0.3937007874015748},{"duration":0.14285699999999935,"midi":57,"time":6.857136000000001,"velocity":0.3937007874015748},{"duration":0.14285699999999935,"midi":60,"time":7.142850000000001,"velocity":0.3937007874015748},{"duration":0.14285699999999935,"midi":57,"time":7.142850000000001,"velocity":0.3937007874015748},{"duration":0.14285699999999935,"midi":57,"time":7.142850000000001,"velocity":0.3937007874015748},{"duration":0.14285699999999935,"midi":64,"time":7.142850000000001,"velocity":0.3937007874015748},{"duration":0.14285699999999935,"midi":60,"time":7.142850000000001,"velocity":0.3937007874015748},{"duration":0.14285699999999935,"midi":64,"time":7.142850000000001,"velocity":0.3937007874015748},{"duration":0.14285700000000112,"midi":62,"time":7.428564,"velocity":0.3937007874015748},{"duration":0.14285700000000112,"midi":62,"time":7.428564,"velocity":0.3937007874015748},{"duration":0.14285700000000112,"midi":57,"time":7.428564,"velocity":0.3937007874015748},{"duration":0.14285700000000112,"midi":57,"time":7.428564,"velocity":0.3937007874015748},{"duration":0.14285699999999935,"midi":60,"time":7.571421000000001,"velocity":0.3937007874015748},{"duration":0.14285699999999935,"midi":60,"time":7.571421000000001,"velocity":0.3937007874015748},{"duration":0.14285700000000023,"midi":53,"time":7.714278,"velocity":0.3937007874015748},{"duration":0.14285700000000023,"midi":60,"time":7.714278,"velocity":0.3937007874015748},{"duration":0.14285700000000023,"midi":60,"time":7.714278,"velocity":0.3937007874015748},{"duration":0.14285700000000023,"midi":53,"time":7.714278,"velocity":0.3937007874015748},{"duration":0.4285709999999989,"midi":62,"time":7.857135,"velocity":0.3937007874015748},{"duration":0.4285709999999989,"midi":57,"time":7.857135,"velocity":0.3937007874015748},{"duration":0.4285709999999989,"midi":57,"time":7.857135,"velocity":0.3937007874015748},{"duration":0.4285709999999989,"midi":62,"time":7.857135,"velocity":0.3937007874015748},{"duration":0.4285709999999989,"midi":53,"time":7.857135,"velocity":0.3937007874015748},{"duration":0.4285709999999989,"midi":53,"time":7.857135,"velocity":0.3937007874015748},{"duration":0.14285700000000112,"midi":57,"time":8.285706,"velocity":0.3937007874015748},{"duration":0.14285700000000112,"midi":57,"time":8.285706,"velocity":0.3937007874015748},{"duration":0.14285699999999935,"midi":60,"time":8.428563,"velocity":0.3937007874015748},{"duration":0.14285699999999935,"midi":60,"time":8.428563,"velocity":0.3937007874015748},{"duration":0.14285700000000112,"midi":62,"time":8.57142,"velocity":0.3937007874015748},{"duration":0.14285700000000112,"midi":62,"time":8.57142,"velocity":0.3937007874015748},{"duration":0.14285700000000112,"midi":58,"time":8.57142,"velocity":0.3937007874015748},{"duration":0.14285700000000112,"midi":58,"time":8.57142,"velocity":0.3937007874015748},{"duration":0.14285700000000112,"midi":53,"time":8.57142,"velocity":0.3937007874015748},{"duration":0.14285700000000112,"midi":53,"time":8.57142,"velocity":0.3937007874015748},{"duration":0.14285699999999935,"midi":62,"time":8.857134000000002,"velocity":0.3937007874015748},{"duration":0.14285699999999935,"midi":58,"time":8.857134000000002,"velocity":0.3937007874015748},{"duration":0.14285699999999935,"midi":53,"time":8.857134000000002,"velocity":0.3937007874015748},{"duration":0.14285699999999935,"midi":53,"time":8.857134000000002,"velocity":0.3937007874015748},{"duration":0.14285699999999935,"midi":58,"time":8.857134000000002,"velocity":0.3937007874015748},{"duration":0.14285699999999935,"midi":62,"time":8.857134000000002,"velocity":0.3937007874015748},{"duration":0.14285700000000112,"midi":58,"time":9.142848,"velocity":0.3937007874015748},{"duration":0.14285700000000112,"midi":62,"time":9.142848,"velocity":0.3937007874015748},{"duration":0.14285700000000112,"midi":53,"time":9.142848,"velocity":0.3937007874015748},{"duration":0.14285700000000112,"midi":53,"time":9.142848,"velocity":0.3937007874015748},{"duration":0.14285700000000112,"midi":62,"time":9.142848,"velocity":0.3937007874015748},{"duration":0.14285700000000112,"midi":58,"time":9.142848,"velocity":0.3937007874015748},{"duration":0.14285699999999935,"midi":64,"time":9.285705000000002,"velocity":0.3937007874015748},{"duration":0.14285699999999935,"midi":64,"time":9.285705000000002,"velocity":0.3937007874015748},{"duration":0.14285699999999935,"midi":60,"time":9.428562000000001,"velocity":0.3937007874015748},{"duration":0.14285699999999935,"midi":57,"time":9.428562000000001,"velocity":0.3937007874015748},{"duration":0.14285699999999935,"midi":65,"time":9.428562000000001,"velocity":0.3937007874015748},{"duration":0.14285699999999935,"midi":65,"time":9.428562000000001,"velocity":0.3937007874015748},{"duration":0.14285699999999935,"midi":60,"time":9.428562000000001,"velocity":0.3937007874015748},{"duration":0.14285699999999935,"midi":57,"time":9.428562000000001,"velocity":0.3937007874015748},{"duration":0.14285699999999935,"midi":57,"time":9.714276000000002,"velocity":0.3937007874015748},{"duration":0.14285699999999935,"midi":57,"time":9.714276000000002,"velocity":0.3937007874015748},{"duration":0.14285699999999935,"midi":60,"time":9.714276000000002,"velocity":0.3937007874015748},{"duration":0.14285699999999935,"midi":60,"time":9.714276000000002,"velocity":0.3937007874015748},{"duration":0.14285699999999935,"midi":65,"time":9.714276000000002,"velocity":0.3937007874015748},{"duration":0.14285699999999935,"midi":65,"time":9.714276000000002,"velocity":0.3937007874015748},{"duration":0.14285700000000112,"midi":57,"time":9.99999,"velocity":0.3937007874015748},{"duration":0.14285700000000112,"midi":60,"time":9.99999,"velocity":0.3937007874015748},{"duration":0.14285700000000112,"midi":65,"time":9.99999,"velocity":0.3937007874015748},{"duration":0.14285700000000112,"midi":65,"time":9.99999,"velocity":0.3937007874015748},{"duration":0.14285700000000112,"midi":60,"time":9.99999,"velocity":0.3937007874015748},{"duration":0.14285700000000112,"midi":57,"time":9.99999,"velocity":0.3937007874015748},{"duration":0.14285699999999935,"midi":67,"time":10.142847000000002,"velocity":0.3937007874015748},{"duration":0.14285699999999935,"midi":67,"time":10.142847000000002,"velocity":0.3937007874015748},{"duration":0.14285699999999935,"midi":60,"time":10.285704,"velocity":0.3937007874015748},{"duration":0.14285699999999935,"midi":64,"time":10.285704,"velocity":0.3937007874015748},{"duration":0.14285699999999935,"midi":57,"time":10.285704,"velocity":0.3937007874015748},{"duration":0.14285699999999935,"midi":60,"time":10.285704,"velocity":0.3937007874015748},{"duration":0.14285699999999935,"midi":57,"time":10.285704,"velocity":0.3937007874015748},{"duration":0.14285699999999935,"midi":64,"time":10.285704,"velocity":0.3937007874015748},{"duration":0.14285699999999935,"midi":60,"time":10.571418000000001,"velocity":0.3937007874015748},{"duration":0.14285699999999935,"midi":64,"time":10.571418000000001,"velocity":0.3937007874015748},{"duration":0.14285699999999935,"midi":57,"time":10.571418000000001,"velocity":0.3937007874015748},{"duration":0.14285699999999935,"midi":64,"time":10.571418000000001,"velocity":0.3937007874015748},{"duration":0.14285699999999935,"midi":60,"time":10.571418000000001,"velocity":0.3937007874015748},{"duration":0.14285699999999935,"midi":57,"time":10.571418000000001,"velocity":0.3937007874015748},{"duration":0.14285700000000112,"midi":62,"time":10.857132,"velocity":0.3937007874015748},{"duration":0.14285700000000112,"midi":62,"time":10.857132,"velocity":0.3937007874015748},{"duration":0.14285700000000112,"midi":57,"time":10.857132,"velocity":0.3937007874015748},{"duration":0.14285700000000112,"midi":57,"time":10.857132,"velocity":0.3937007874015748},{"duration":0.14285699999999935,"midi":60,"time":10.999989000000001,"velocity":0.3937007874015748},{"duration":0.14285699999999935,"midi":60,"time":10.999989000000001,"velocity":0.3937007874015748},{"duration":0.4285709999999998,"midi":53,"time":11.142846,"velocity":0.3937007874015748},{"duration":0.4285709999999998,"midi":57,"time":11.142846,"velocity":0.3937007874015748},{"duration":0.4285709999999998,"midi":62,"time":11.142846,"velocity":0.3937007874015748},{"duration":0.4285709999999998,"midi":53,"time":11.142846,"velocity":0.3937007874015748},{"duration":0.4285709999999998,"midi":62,"time":11.142846,"velocity":0.3937007874015748},{"duration":0.4285709999999998,"midi":57,"time":11.142846,"velocity":0.3937007874015748},{"duration":0.14285700000000112,"midi":57,"time":11.714274,"velocity":0.3937007874015748},{"duration":0.14285700000000112,"midi":57,"time":11.714274,"velocity":0.3937007874015748},{"duration":0.14285700000000112,"midi":60,"time":11.857131,"velocity":0.3937007874015748},{"duration":0.14285700000000112,"midi":60,"time":11.857131,"velocity":0.3937007874015748},{"duration":0.14285699999999935,"midi":53,"time":11.999988000000002,"velocity":0.3937007874015748},{"duration":0.14285699999999935,"midi":57,"time":11.999988000000002,"velocity":0.3937007874015748},{"duration":0.14285699999999935,"midi":62,"time":11.999988000000002,"velocity":0.3937007874015748},{"duration":0.14285699999999935,"midi":57,"time":11.999988000000002,"velocity":0.3937007874015748},{"duration":0.14285699999999935,"midi":53,"time":11.999988000000002,"velocity":0.3937007874015748},{"duration":0.14285699999999935,"midi":62,"time":11.999988000000002,"velocity":0.3937007874015748},{"duration":0.14285699999999935,"midi":62,"time":12.285702000000002,"velocity":0.3937007874015748},{"duration":0.14285699999999935,"midi":57,"time":12.285702000000002,"velocity":0.3937007874015748},{"duration":0.14285699999999935,"midi":62,"time":12.285702000000002,"velocity":0.3937007874015748},{"duration":0.14285699999999935,"midi":53,"time":12.285702000000002,"velocity":0.3937007874015748},{"duration":0.14285699999999935,"midi":57,"time":12.285702000000002,"velocity":0.3937007874015748},{"duration":0.14285699999999935,"midi":53,"time":12.285702000000002,"velocity":0.3937007874015748},{"duration":0.14285700000000112,"midi":62,"time":12.571416000000001,"velocity":0.3937007874015748},{"duration":0.14285700000000112,"midi":53,"time":12.571416000000001,"velocity":0.3937007874015748},{"duration":0.14285700000000112,"midi":62,"time":12.571416000000001,"velocity":0.3937007874015748},{"duration":0.14285700000000112,"midi":53,"time":12.571416000000001,"velocity":0.3937007874015748},{"duration":0.14285699999999935,"midi":53,"time":12.714273000000002,"velocity":0.3937007874015748},{"duration":0.14285699999999935,"midi":65,"time":12.714273000000002,"velocity":0.3937007874015748},{"duration":0.14285699999999935,"midi":53,"time":12.714273000000002,"velocity":0.3937007874015748},{"duration":0.14285699999999935,"midi":65,"time":12.714273000000002,"velocity":0.3937007874015748},{"duration":0.14285699999999935,"midi":58,"time":12.857130000000002,"velocity":0.3937007874015748},{"duration":0.14285699999999935,"midi":67,"time":12.857130000000002,"velocity":0.3937007874015748},{"duration":0.14285699999999935,"midi":62,"time":12.857130000000002,"velocity":0.3937007874015748},{"duration":0.14285699999999935,"midi":67,"time":12.857130000000002,"velocity":0.3937007874015748},{"duration":0.14285699999999935,"midi":58,"time":12.857130000000002,"velocity":0.3937007874015748},{"duration":0.14285699999999935,"midi":62,"time":12.857130000000002,"velocity":0.3937007874015748},{"duration":0.14285699999999935,"midi":62,"time":13.142844000000002,"velocity":0.3937007874015748},{"duration":0.14285699999999935,"midi":58,"time":13.142844000000002,"velocity":0.3937007874015748},{"duration":0.14285699999999935,"midi":62,"time":13.142844000000002,"velocity":0.3937007874015748},{"duration":0.14285699999999935,"midi":58,"time":13.142844000000002,"velocity":0.3937007874015748},{"duration":0.14285699999999935,"midi":67,"time":13.142844000000002,"velocity":0.3937007874015748},{"duration":0.14285699999999935,"midi":67,"time":13.142844000000002,"velocity":0.3937007874015748},{"duration":0.14285700000000112,"midi":67,"time":13.428558,"velocity":0.3937007874015748},{"duration":0.14285700000000112,"midi":58,"time":13.428558,"velocity":0.3937007874015748},{"duration":0.14285700000000112,"midi":67,"time":13.428558,"velocity":0.3937007874015748},{"duration":0.14285700000000112,"midi":62,"time":13.428558,"velocity":0.3937007874015748},{"duration":0.14285700000000112,"midi":58,"time":13.428558,"velocity":0.3937007874015748},{"duration":0.14285700000000112,"midi":62,"time":13.428558,"velocity":0.3937007874015748},{"duration":0.14285699999999935,"midi":69,"time":13.571415000000002,"velocity":0.3937007874015748},{"duration":0.14285699999999935,"midi":69,"time":13.571415000000002,"velocity":0.3937007874015748},{"duration":0.14285700000000112,"midi":70,"time":13.714272000000001,"velocity":0.3937007874015748},{"duration":0.14285700000000112,"midi":70,"time":13.714272000000001,"velocity":0.3937007874015748},{"duration":0.14285700000000112,"midi":67,"time":13.714272000000001,"velocity":0.3937007874015748},{"duration":0.14285700000000112,"midi":62,"time":13.714272000000001,"velocity":0.3937007874015748},{"duration":0.14285700000000112,"midi":67,"time":13.714272000000001,"velocity":0.3937007874015748},{"duration":0.14285700000000112,"midi":62,"time":13.714272000000001,"velocity":0.3937007874015748},{"duration":0.14285700000000112,"midi":70,"time":13.999986,"velocity":0.3937007874015748},{"duration":0.14285700000000112,"midi":62,"time":13.999986,"velocity":0.3937007874015748},{"duration":0.14285700000000112,"midi":67,"time":13.999986,"velocity":0.3937007874015748},{"duration":0.14285700000000112,"midi":62,"time":13.999986,"velocity":0.3937007874015748},{"duration":0.14285700000000112,"midi":70,"time":13.999986,"velocity":0.3937007874015748},{"duration":0.14285700000000112,"midi":67,"time":13.999986,"velocity":0.3937007874015748},{"duration":0.14285699999999757,"midi":69,"time":14.285700000000002,"velocity":0.3937007874015748},{"duration":0.14285699999999757,"midi":62,"time":14.285700000000002,"velocity":0.3937007874015748},{"duration":0.14285699999999757,"midi":69,"time":14.285700000000002,"velocity":0.3937007874015748},{"duration":0.14285699999999757,"midi":62,"time":14.285700000000002,"velocity":0.3937007874015748},{"duration":0.14285700000000112,"midi":67,"time":14.428557,"velocity":0.3937007874015748},{"duration":0.14285700000000112,"midi":67,"time":14.428557,"velocity":0.3937007874015748},{"duration":0.14285700000000112,"midi":69,"time":14.571414,"velocity":0.3937007874015748},{"duration":0.14285700000000112,"midi":62,"time":14.571414,"velocity":0.3937007874015748},{"duration":0.14285700000000112,"midi":62,"time":14.571414,"velocity":0.3937007874015748},{"duration":0.14285700000000112,"midi":69,"time":14.571414,"velocity":0.3937007874015748},{"duration":0.4285709999999998,"midi":62,"time":14.714271000000002,"velocity":0.3937007874015748},{"duration":0.4285709999999998,"midi":57,"time":14.714271000000002,"velocity":0.3937007874015748},{"duration":0.4285709999999998,"midi":53,"time":14.714271000000002,"velocity":0.3937007874015748},{"duration":0.4285709999999998,"midi":62,"time":14.714271000000002,"velocity":0.3937007874015748},{"duration":0.4285709999999998,"midi":57,"time":14.714271000000002,"velocity":0.3937007874015748},{"duration":0.4285709999999998,"midi":53,"time":14.714271000000002,"velocity":0.3937007874015748},{"duration":0.14285699999999935,"midi":62,"time":15.142842000000002,"velocity":0.3937007874015748},{"duration":0.14285699999999935,"midi":62,"time":15.142842000000002,"velocity":0.3937007874015748},{"duration":0.14285699999999935,"midi":64,"time":15.285699000000001,"velocity":0.3937007874015748},{"duration":0.14285699999999935,"midi":64,"time":15.285699000000001,"velocity":0.3937007874015748},{"duration":0.14285700000000112,"midi":65,"time":15.428556,"velocity":0.3937007874015748},{"duration":0.14285700000000112,"midi":58,"time":15.428556,"velocity":0.3937007874015748},{"duration":0.14285700000000112,"midi":58,"time":15.428556,"velocity":0.3937007874015748},{"duration":0.14285700000000112,"midi":65,"time":15.428556,"velocity":0.3937007874015748},{"duration":0.14285700000000112,"midi":62,"time":15.428556,"velocity":0.3937007874015748},{"duration":0.14285700000000112,"midi":62,"time":15.428556,"velocity":0.3937007874015748},{"duration":0.14285700000000112,"midi":62,"time":15.71427,"velocity":0.3937007874015748},{"duration":0.14285700000000112,"midi":62,"time":15.71427,"velocity":0.3937007874015748},{"duration":0.14285700000000112,"midi":65,"time":15.71427,"velocity":0.3937007874015748},{"duration":0.14285700000000112,"midi":65,"time":15.71427,"velocity":0.3937007874015748},{"duration":0.14285700000000112,"midi":58,"time":15.71427,"velocity":0.3937007874015748},{"duration":0.14285700000000112,"midi":58,"time":15.71427,"velocity":0.3937007874015748},{"duration":0.14285699999999757,"midi":62,"time":15.999984000000003,"velocity":0.3937007874015748},{"duration":0.14285699999999757,"midi":62,"time":15.999984000000003,"velocity":0.3937007874015748},{"duration":0.14285699999999757,"midi":58,"time":15.999984000000003,"velocity":0.3937007874015748},{"duration":0.14285699999999757,"midi":67,"time":15.999984000000003,"velocity":0.3937007874015748},{"duration":0.14285699999999757,"midi":58,"time":15.999984000000003,"velocity":0.3937007874015748},{"duration":0.14285699999999757,"midi":67,"time":15.999984000000003,"velocity":0.3937007874015748},{"duration":0.1428570000000029,"midi":65,"time":16.285698,"velocity":0.3937007874015748},{"duration":0.1428570000000029,"midi":69,"time":16.285698,"velocity":0.3937007874015748},{"duration":0.1428570000000029,"midi":62,"time":16.285698,"velocity":0.3937007874015748},{"duration":0.1428570000000029,"midi":62,"time":16.285698,"velocity":0.3937007874015748},{"duration":0.1428570000000029,"midi":65,"time":16.285698,"velocity":0.3937007874015748},{"duration":0.1428570000000029,"midi":69,"time":16.285698,"velocity":0.3937007874015748},{"duration":0.14285699999999935,"midi":62,"time":16.857126,"velocity":0.3937007874015748},{"duration":0.14285699999999935,"midi":62,"time":16.857126,"velocity":0.3937007874015748},{"duration":0.14285699999999935,"midi":65,"time":16.999983,"velocity":0.3937007874015748},{"duration":0.14285699999999935,"midi":65,"time":16.999983,"velocity":0.3937007874015748},{"duration":0.1428570000000029,"midi":57,"time":17.14284,"velocity":0.3937007874015748},{"duration":0.1428570000000029,"midi":61,"time":17.14284,"velocity":0.3937007874015748},{"duration":0.1428570000000029,"midi":64,"time":17.14284,"velocity":0.3937007874015748},{"duration":0.1428570000000029,"midi":64,"time":17.14284,"velocity":0.3937007874015748},{"duration":0.1428570000000029,"midi":61,"time":17.14284,"velocity":0.3937007874015748},{"duration":0.1428570000000029,"midi":57,"time":17.14284,"velocity":0.3937007874015748},{"duration":0.14285699999999935,"midi":64,"time":17.428554000000002,"velocity":0.3937007874015748},{"duration":0.14285699999999935,"midi":57,"time":17.428554000000002,"velocity":0.3937007874015748},{"duration":0.14285699999999935,"midi":61,"time":17.428554000000002,"velocity":0.3937007874015748},{"duration":0.14285699999999935,"midi":57,"time":17.428554000000002,"velocity":0.3937007874015748},{"duration":0.14285699999999935,"midi":64,"time":17.428554000000002,"velocity":0.3937007874015748},{"duration":0.14285699999999935,"midi":61,"time":17.428554000000002,"velocity":0.3937007874015748},{"duration":0.1428569999999958,"midi":65,"time":17.714268000000004,"velocity":0.3937007874015748},{"duration":0.1428569999999958,"midi":65,"time":17.714268000000004,"velocity":0.3937007874015748},{"duration":0.1428570000000029,"midi":62,"time":17.857125,"velocity":0.3937007874015748},{"duration":0.1428570000000029,"midi":62,"time":17.857125,"velocity":0.3937007874015748},{"duration":0.42857099999999804,"midi":64,"time":17.999982000000003,"velocity":0.3937007874015748},{"duration":0.42857099999999804,"midi":57,"time":17.999982000000003,"velocity":0.3937007874015748},{"duration":0.42857099999999804,"midi":61,"time":17.999982000000003,"velocity":0.3937007874015748},{"duration":0.42857099999999804,"midi":64,"time":17.999982000000003,"velocity":0.3937007874015748},{"duration":0.42857099999999804,"midi":61,"time":17.999982000000003,"velocity":0.3937007874015748},{"duration":0.42857099999999804,"midi":57,"time":17.999982000000003,"velocity":0.3937007874015748},{"duration":0.1428569999999958,"midi":69,"time":18.571410000000004,"velocity":0.3937007874015748},{"duration":0.1428569999999958,"midi":69,"time":18.571410000000004,"velocity":0.3937007874015748},{"duration":0.1428570000000029,"midi":72,"time":18.714267,"velocity":0.3937007874015748},{"duration":0.1428570000000029,"midi":72,"time":18.714267,"velocity":0.3937007874015748},{"duration":0.14285699999999935,"midi":69,"time":18.857124000000002,"velocity":0.3937007874015748},{"duration":0.14285699999999935,"midi":74,"time":18.857124000000002,"velocity":0.3937007874015748},{"duration":0.14285699999999935,"midi":65,"time":18.857124000000002,"velocity":0.3937007874015748},{"duration":0.14285699999999935,"midi":69,"time":18.857124000000002,"velocity":0.3937007874015748},{"duration":0.14285699999999935,"midi":74,"time":18.857124000000002,"velocity":0.3937007874015748},{"duration":0.14285699999999935,"midi":65,"time":18.857124000000002,"velocity":0.3937007874015748},{"duration":0.14285699999999935,"midi":69,"time":19.142838,"velocity":0.3937007874015748},{"duration":0.14285699999999935,"midi":65,"time":19.142838,"velocity":0.3937007874015748},{"duration":0.14285699999999935,"midi":74,"time":19.142838,"velocity":0.3937007874015748},{"duration":0.14285699999999935,"midi":74,"time":19.142838,"velocity":0.3937007874015748},{"duration":0.14285699999999935,"midi":69,"time":19.142838,"velocity":0.3937007874015748},{"duration":0.14285699999999935,"midi":65,"time":19.142838,"velocity":0.3937007874015748},{"duration":0.1428569999999958,"midi":74,"time":19.428552000000003,"velocity":0.3937007874015748},{"duration":0.1428569999999958,"midi":69,"time":19.428552000000003,"velocity":0.3937007874015748},{"duration":0.1428569999999958,"midi":65,"time":19.428552000000003,"velocity":0.3937007874015748},{"duration":0.1428569999999958,"midi":65,"time":19.428552000000003,"velocity":0.3937007874015748},{"duration":0.1428569999999958,"midi":74,"time":19.428552000000003,"velocity":0.3937007874015748},{"duration":0.1428569999999958,"midi":69,"time":19.428552000000003,"velocity":0.3937007874015748},{"duration":0.1428570000000029,"midi":76,"time":19.571409,"velocity":0.3937007874015748},{"duration":0.1428570000000029,"midi":76,"time":19.571409,"velocity":0.3937007874015748},{"duration":0.14285699999999935,"midi":70,"time":19.714266000000002,"velocity":0.3937007874015748},{"duration":0.14285699999999935,"midi":74,"time":19.714266000000002,"velocity":0.3937007874015748},{"duration":0.14285699999999935,"midi":74,"time":19.714266000000002,"velocity":0.3937007874015748},{"duration":0.14285699999999935,"midi":70,"time":19.714266000000002,"velocity":0.3937007874015748},{"duration":0.14285699999999935,"midi":77,"time":19.714266000000002,"velocity":0.3937007874015748},{"duration":0.14285699999999935,"midi":77,"time":19.714266000000002,"velocity":0.3937007874015748},{"duration":0.14285699999999935,"midi":70,"time":19.99998,"velocity":0.3937007874015748},{"duration":0.14285699999999935,"midi":74,"time":19.99998,"velocity":0.3937007874015748},{"duration":0.14285699999999935,"midi":74,"time":19.99998,"velocity":0.3937007874015748},{"duration":0.14285699999999935,"midi":77,"time":19.99998,"velocity":0.3937007874015748},{"duration":0.14285699999999935,"midi":77,"time":19.99998,"velocity":0.3937007874015748},{"duration":0.14285699999999935,"midi":70,"time":19.99998,"velocity":0.3937007874015748},{"duration":0.14285699999999935,"midi":77,"time":20.285694000000003,"velocity":0.3937007874015748},{"duration":0.14285699999999935,"midi":70,"time":20.285694000000003,"velocity":0.3937007874015748},{"duration":0.14285699999999935,"midi":77,"time":20.285694000000003,"velocity":0.3937007874015748},{"duration":0.14285699999999935,"midi":74,"time":20.285694000000003,"velocity":0.3937007874015748},{"duration":0.14285699999999935,"midi":74,"time":20.285694000000003,"velocity":0.3937007874015748},{"duration":0.14285699999999935,"midi":70,"time":20.285694000000003,"velocity":0.3937007874015748},{"duration":0.14285699999999935,"midi":79,"time":20.428551000000002,"velocity":0.3937007874015748},{"duration":0.14285699999999935,"midi":79,"time":20.428551000000002,"velocity":0.3937007874015748},{"duration":0.14285699999999935,"midi":72,"time":20.571408,"velocity":0.3937007874015748},{"duration":0.14285699999999935,"midi":69,"time":20.571408,"velocity":0.3937007874015748},{"duration":0.14285699999999935,"midi":72,"time":20.571408,"velocity":0.3937007874015748},{"duration":0.14285699999999935,"midi":76,"time":20.571408,"velocity":0.3937007874015748},{"duration":0.14285699999999935,"midi":76,"time":20.571408,"velocity":0.3937007874015748},{"duration":0.14285699999999935,"midi":69,"time":20.571408,"velocity":0.3937007874015748},{"duration":0.1428570000000029,"midi":69,"time":20.857122,"velocity":0.3937007874015748},{"duration":0.1428570000000029,"midi":72,"time":20.857122,"velocity":0.3937007874015748},{"duration":0.1428570000000029,"midi":72,"time":20.857122,"velocity":0.3937007874015748},{"duration":0.1428570000000029,"midi":76,"time":20.857122,"velocity":0.3937007874015748},{"duration":0.1428570000000029,"midi":69,"time":20.857122,"velocity":0.3937007874015748},{"duration":0.1428570000000029,"midi":76,"time":20.857122,"velocity":0.3937007874015748},{"duration":0.14285699999999935,"midi":74,"time":21.142836000000003,"velocity":0.3937007874015748},{"duration":0.14285699999999935,"midi":69,"time":21.142836000000003,"velocity":0.3937007874015748},{"duration":0.14285699999999935,"midi":69,"time":21.142836000000003,"velocity":0.3937007874015748},{"duration":0.14285699999999935,"midi":74,"time":21.142836000000003,"velocity":0.3937007874015748},{"duration":0.14285699999999935,"midi":72,"time":21.285693000000002,"velocity":0.3937007874015748},{"duration":0.14285699999999935,"midi":72,"time":21.285693000000002,"velocity":0.3937007874015748},{"duration":0.1428570000000029,"midi":72,"time":21.42855,"velocity":0.3937007874015748},{"duration":0.1428570000000029,"midi":65,"time":21.42855,"velocity":0.3937007874015748},{"duration":0.1428570000000029,"midi":72,"time":21.42855,"velocity":0.3937007874015748},{"duration":0.1428570000000029,"midi":65,"time":21.42855,"velocity":0.3937007874015748},{"duration":0.42857099999999804,"midi":65,"time":21.571407000000004,"velocity":0.3937007874015748},{"duration":0.42857099999999804,"midi":74,"time":21.571407000000004,"velocity":0.3937007874015748},{"duration":0.42857099999999804,"midi":65,"time":21.571407000000004,"velocity":0.3937007874015748},{"duration":0.42857099999999804,"midi":74,"time":21.571407000000004,"velocity":0.3937007874015748},{"duration":0.42857099999999804,"midi":69,"time":21.571407000000004,"velocity":0.3937007874015748},{"duration":0.42857099999999804,"midi":69,"time":21.571407000000004,"velocity":0.3937007874015748},{"duration":0.14285699999999935,"midi":69,"time":21.999978000000002,"velocity":0.3937007874015748},{"duration":0.14285699999999935,"midi":69,"time":21.999978000000002,"velocity":0.3937007874015748},{"duration":0.14285699999999935,"midi":72,"time":22.142835,"velocity":0.3937007874015748},{"duration":0.14285699999999935,"midi":72,"time":22.142835,"velocity":0.3937007874015748},{"duration":0.1428570000000029,"midi":74,"time":22.285692,"velocity":0.3937007874015748},{"duration":0.1428570000000029,"midi":74,"time":22.285692,"velocity":0.3937007874015748},{"duration":0.1428570000000029,"midi":65,"time":22.285692,"velocity":0.3937007874015748},{"duration":0.1428570000000029,"midi":70,"time":22.285692,"velocity":0.3937007874015748},{"duration":0.1428570000000029,"midi":70,"time":22.285692,"velocity":0.3937007874015748},{"duration":0.1428570000000029,"midi":65,"time":22.285692,"velocity":0.3937007874015748},{"duration":0.1428570000000029,"midi":74,"time":22.571406,"velocity":0.3937007874015748},{"duration":0.1428570000000029,"midi":65,"time":22.571406,"velocity":0.3937007874015748},{"duration":0.1428570000000029,"midi":70,"time":22.571406,"velocity":0.3937007874015748},{"duration":0.1428570000000029,"midi":74,"time":22.571406,"velocity":0.3937007874015748},{"duration":0.1428570000000029,"midi":65,"time":22.571406,"velocity":0.3937007874015748},{"duration":0.1428570000000029,"midi":70,"time":22.571406,"velocity":0.3937007874015748},{"duration":0.14285699999999935,"midi":65,"time":22.857120000000002,"velocity":0.3937007874015748},{"duration":0.14285699999999935,"midi":70,"time":22.857120000000002,"velocity":0.3937007874015748},{"duration":0.14285699999999935,"midi":70,"time":22.857120000000002,"velocity":0.3937007874015748},{"duration":0.14285699999999935,"midi":74,"time":22.857120000000002,"velocity":0.3937007874015748},{"duration":0.14285699999999935,"midi":65,"time":22.857120000000002,"velocity":0.3937007874015748},{"duration":0.14285699999999935,"midi":74,"time":22.857120000000002,"velocity":0.3937007874015748},{"duration":0.14285699999999935,"midi":76,"time":22.999977,"velocity":0.3937007874015748},{"duration":0.14285699999999935,"midi":76,"time":22.999977,"velocity":0.3937007874015748},{"duration":0.1428570000000029,"midi":72,"time":23.142834,"velocity":0.3937007874015748},{"duration":0.1428570000000029,"midi":72,"time":23.142834,"velocity":0.3937007874015748},{"duration":0.1428570000000029,"midi":69,"time":23.142834,"velocity":0.3937007874015748},{"duration":0.1428570000000029,"midi":77,"time":23.142834,"velocity":0.3937007874015748},{"duration":0.1428570000000029,"midi":77,"time":23.142834,"velocity":0.3937007874015748},{"duration":0.1428570000000029,"midi":69,"time":23.142834,"velocity":0.3937007874015748},{"duration":0.1428570000000029,"midi":72,"time":23.428548,"velocity":0.3937007874015748},{"duration":0.1428570000000029,"midi":69,"time":23.428548,"velocity":0.3937007874015748},{"duration":0.1428570000000029,"midi":69,"time":23.428548,"velocity":0.3937007874015748},{"duration":0.1428570000000029,"midi":72,"time":23.428548,"velocity":0.3937007874015748},{"duration":0.1428570000000029,"midi":77,"time":23.428548,"velocity":0.3937007874015748},{"duration":0.1428570000000029,"midi":77,"time":23.428548,"velocity":0.3937007874015748},{"duration":0.14285699999999935,"midi":77,"time":23.714262,"velocity":0.3937007874015748},{"duration":0.14285699999999935,"midi":72,"time":23.714262,"velocity":0.3937007874015748},{"duration":0.14285699999999935,"midi":77,"time":23.714262,"velocity":0.3937007874015748},{"duration":0.14285699999999935,"midi":72,"time":23.714262,"velocity":0.3937007874015748},{"duration":0.14285699999999935,"midi":69,"time":23.714262,"velocity":0.3937007874015748},{"duration":0.14285699999999935,"midi":69,"time":23.714262,"velocity":0.3937007874015748},{"duration":0.1428570000000029,"midi":79,"time":23.857119,"velocity":0.3937007874015748},{"duration":0.1428570000000029,"midi":79,"time":23.857119,"velocity":0.3937007874015748},{"duration":0.14285699999999935,"midi":72,"time":23.999976000000004,"velocity":0.3937007874015748},{"duration":0.14285699999999935,"midi":69,"time":23.999976000000004,"velocity":0.3937007874015748},{"duration":0.14285699999999935,"midi":69,"time":23.999976000000004,"velocity":0.3937007874015748},{"duration":0.14285699999999935,"midi":76,"time":23.999976000000004,"velocity":0.3937007874015748},{"duration":0.14285699999999935,"midi":72,"time":23.999976000000004,"velocity":0.3937007874015748},{"duration":0.14285699999999935,"midi":76,"time":23.999976000000004,"velocity":0.3937007874015748},{"duration":0.14285699999999935,"midi":69,"time":24.285690000000002,"velocity":0.3937007874015748},{"duration":0.14285699999999935,"midi":76,"time":24.285690000000002,"velocity":0.3937007874015748},{"duration":0.14285699999999935,"midi":76,"time":24.285690000000002,"velocity":0.3937007874015748},{"duration":0.14285699999999935,"midi":72,"time":24.285690000000002,"velocity":0.3937007874015748},{"duration":0.14285699999999935,"midi":72,"time":24.285690000000002,"velocity":0.3937007874015748},{"duration":0.14285699999999935,"midi":69,"time":24.285690000000002,"velocity":0.3937007874015748},{"duration":0.1428569999999958,"midi":69,"time":24.571404000000005,"velocity":0.3937007874015748},{"duration":0.1428569999999958,"midi":69,"time":24.571404000000005,"velocity":0.3937007874015748},{"duration":0.1428569999999958,"midi":74,"time":24.571404000000005,"velocity":0.3937007874015748},{"duration":0.1428569999999958,"midi":74,"time":24.571404000000005,"velocity":0.3937007874015748},{"duration":0.1428570000000029,"midi":72,"time":24.714261,"velocity":0.3937007874015748},{"duration":0.1428570000000029,"midi":72,"time":24.714261,"velocity":0.3937007874015748},{"duration":0.42857099999999804,"midi":69,"time":24.857118000000003,"velocity":0.3937007874015748},{"duration":0.42857099999999804,"midi":65,"time":24.857118000000003,"velocity":0.3937007874015748},{"duration":0.42857099999999804,"midi":69,"time":24.857118000000003,"velocity":0.3937007874015748},{"duration":0.42857099999999804,"midi":74,"time":24.857118000000003,"velocity":0.3937007874015748},{"duration":0.42857099999999804,"midi":65,"time":24.857118000000003,"velocity":0.3937007874015748},{"duration":0.42857099999999804,"midi":74,"time":24.857118000000003,"velocity":0.3937007874015748},{"duration":0.1428569999999958,"midi":69,"time":25.428546000000004,"velocity":0.3937007874015748},{"duration":0.1428569999999958,"midi":69,"time":25.428546000000004,"velocity":0.3937007874015748},{"duration":0.1428570000000029,"midi":72,"time":25.571403,"velocity":0.3937007874015748},{"duration":0.1428570000000029,"midi":72,"time":25.571403,"velocity":0.3937007874015748},{"duration":0.14285699999999935,"midi":65,"time":25.714260000000003,"velocity":0.3937007874015748},{"duration":0.14285699999999935,"midi":69,"time":25.714260000000003,"velocity":0.3937007874015748},{"duration":0.14285699999999935,"midi":74,"time":25.714260000000003,"velocity":0.3937007874015748},{"duration":0.14285699999999935,"midi":74,"time":25.714260000000003,"velocity":0.3937007874015748},{"duration":0.14285699999999935,"midi":65,"time":25.714260000000003,"velocity":0.3937007874015748},{"duration":0.14285699999999935,"midi":69,"time":25.714260000000003,"velocity":0.3937007874015748},{"duration":0.14285699999999935,"midi":65,"time":25.999974,"velocity":0.3937007874015748},{"duration":0.14285699999999935,"midi":74,"time":25.999974,"velocity":0.3937007874015748},{"duration":0.14285699999999935,"midi":74,"time":25.999974,"velocity":0.3937007874015748},{"duration":0.14285699999999935,"midi":69,"time":25.999974,"velocity":0.3937007874015748},{"duration":0.14285699999999935,"midi":69,"time":25.999974,"velocity":0.3937007874015748},{"duration":0.14285699999999935,"midi":65,"time":25.999974,"velocity":0.3937007874015748},{"duration":0.1428569999999958,"midi":74,"time":26.285688000000004,"velocity":0.3937007874015748},{"duration":0.1428569999999958,"midi":65,"time":26.285688000000004,"velocity":0.3937007874015748},{"duration":0.1428569999999958,"midi":65,"time":26.285688000000004,"velocity":0.3937007874015748},{"duration":0.1428569999999958,"midi":74,"time":26.285688000000004,"velocity":0.3937007874015748},{"duration":0.1428570000000029,"midi":65,"time":26.428545,"velocity":0.3937007874015748},{"duration":0.1428570000000029,"midi":65,"time":26.428545,"velocity":0.3937007874015748},{"duration":0.1428570000000029,"midi":77,"time":26.428545,"velocity":0.3937007874015748},{"duration":0.1428570000000029,"midi":77,"time":26.428545,"velocity":0.3937007874015748},{"duration":0.14285699999999935,"midi":70,"time":26.571402000000003,"velocity":0.3937007874015748},{"duration":0.14285699999999935,"midi":79,"time":26.571402000000003,"velocity":0.3937007874015748},{"duration":0.14285699999999935,"midi":74,"time":26.571402000000003,"velocity":0.3937007874015748},{"duration":0.14285699999999935,"midi":70,"time":26.571402000000003,"velocity":0.3937007874015748},{"duration":0.14285699999999935,"midi":74,"time":26.571402000000003,"velocity":0.3937007874015748},{"duration":0.14285699999999935,"midi":79,"time":26.571402000000003,"velocity":0.3937007874015748},{"duration":0.14285699999999935,"midi":70,"time":26.857116,"velocity":0.3937007874015748},{"duration":0.14285699999999935,"midi":70,"time":26.857116,"velocity":0.3937007874015748},{"duration":0.14285699999999935,"midi":79,"time":26.857116,"velocity":0.3937007874015748},{"duration":0.14285699999999935,"midi":79,"time":26.857116,"velocity":0.3937007874015748},{"duration":0.14285699999999935,"midi":74,"time":26.857116,"velocity":0.3937007874015748},{"duration":0.14285699999999935,"midi":74,"time":26.857116,"velocity":0.3937007874015748},{"duration":0.14285699999999935,"midi":79,"time":27.142830000000004,"velocity":0.3937007874015748},{"duration":0.14285699999999935,"midi":74,"time":27.142830000000004,"velocity":0.3937007874015748},{"duration":0.14285699999999935,"midi":70,"time":27.142830000000004,"velocity":0.3937007874015748},{"duration":0.14285699999999935,"midi":79,"time":27.142830000000004,"velocity":0.3937007874015748},{"duration":0.14285699999999935,"midi":74,"time":27.142830000000004,"velocity":0.3937007874015748},{"duration":0.14285699999999935,"midi":70,"time":27.142830000000004,"velocity":0.3937007874015748},{"duration":0.14285699999999935,"midi":81,"time":27.285687000000003,"velocity":0.3937007874015748},{"duration":0.14285699999999935,"midi":81,"time":27.285687000000003,"velocity":0.3937007874015748},{"duration":0.14285699999999935,"midi":74,"time":27.428544000000002,"velocity":0.3937007874015748},{"duration":0.14285699999999935,"midi":79,"time":27.428544000000002,"velocity":0.3937007874015748},{"duration":0.14285699999999935,"midi":79,"time":27.428544000000002,"velocity":0.3937007874015748},{"duration":0.14285699999999935,"midi":82,"time":27.428544000000002,"velocity":0.3937007874015748},{"duration":0.14285699999999935,"midi":74,"time":27.428544000000002,"velocity":0.3937007874015748},{"duration":0.14285699999999935,"midi":82,"time":27.428544000000002,"velocity":0.3937007874015748},{"duration":0.14285699999999935,"midi":82,"time":27.714258000000005,"velocity":0.3937007874015748},{"duration":0.14285699999999935,"midi":82,"time":27.714258000000005,"velocity":0.3937007874015748},{"duration":0.14285699999999935,"midi":79,"time":27.714258000000005,"velocity":0.3937007874015748},{"duration":0.14285699999999935,"midi":79,"time":27.714258000000005,"velocity":0.3937007874015748},{"duration":0.14285699999999935,"midi":74,"time":27.714258000000005,"velocity":0.3937007874015748},{"duration":0.14285699999999935,"midi":74,"time":27.714258000000005,"velocity":0.3937007874015748},{"duration":0.14285700000000645,"midi":81,"time":27.999972,"velocity":0.3937007874015748},{"duration":0.14285700000000645,"midi":81,"time":27.999972,"velocity":0.3937007874015748},{"duration":0.14285700000000645,"midi":74,"time":27.999972,"velocity":0.3937007874015748},{"duration":0.14285700000000645,"midi":74,"time":27.999972,"velocity":0.3937007874015748},{"duration":0.1428569999999958,"midi":79,"time":28.142829000000006,"velocity":0.3937007874015748},{"duration":0.1428569999999958,"midi":79,"time":28.142829000000006,"velocity":0.3937007874015748},{"duration":0.14285699999999935,"midi":74,"time":28.285686000000002,"velocity":0.3937007874015748},{"duration":0.14285699999999935,"midi":81,"time":28.285686000000002,"velocity":0.3937007874015748},{"duration":0.14285699999999935,"midi":81,"time":28.285686000000002,"velocity":0.3937007874015748},{"duration":0.14285699999999935,"midi":74,"time":28.285686000000002,"velocity":0.3937007874015748},{"duration":0.42857099999999804,"midi":69,"time":28.428543,"velocity":0.3937007874015748},{"duration":0.42857099999999804,"midi":74,"time":28.428543,"velocity":0.3937007874015748},{"duration":0.42857099999999804,"midi":74,"time":28.428543,"velocity":0.3937007874015748},{"duration":0.42857099999999804,"midi":69,"time":28.428543,"velocity":0.3937007874015748},{"duration":0.42857099999999804,"midi":65,"time":28.428543,"velocity":0.3937007874015748},{"duration":0.42857099999999804,"midi":65,"time":28.428543,"velocity":0.3937007874015748},{"duration":0.14285700000000645,"midi":74,"time":28.857114,"velocity":0.3937007874015748},{"duration":0.14285700000000645,"midi":74,"time":28.857114,"velocity":0.3937007874015748},{"duration":0.1428569999999958,"midi":76,"time":28.999971000000006,"velocity":0.3937007874015748},{"duration":0.1428569999999958,"midi":76,"time":28.999971000000006,"velocity":0.3937007874015748},{"duration":0.14285699999999935,"midi":72,"time":29.142828,"velocity":0.3937007874015748},{"duration":0.14285699999999935,"midi":69,"time":29.142828,"velocity":0.3937007874015748},{"duration":0.14285699999999935,"midi":77,"time":29.142828,"velocity":0.3937007874015748},{"duration":0.14285699999999935,"midi":69,"time":29.142828,"velocity":0.3937007874015748},{"duration":0.14285699999999935,"midi":72,"time":29.142828,"velocity":0.3937007874015748},{"duration":0.14285699999999935,"midi":77,"time":29.142828,"velocity":0.3937007874015748},{"duration":0.14285699999999935,"midi":72,"time":29.428542000000004,"velocity":0.3937007874015748},{"duration":0.14285699999999935,"midi":69,"time":29.428542000000004,"velocity":0.3937007874015748},{"duration":0.14285699999999935,"midi":77,"time":29.428542000000004,"velocity":0.3937007874015748},{"duration":0.14285699999999935,"midi":72,"time":29.428542000000004,"velocity":0.3937007874015748},{"duration":0.14285699999999935,"midi":77,"time":29.428542000000004,"velocity":0.3937007874015748},{"duration":0.14285699999999935,"midi":69,"time":29.428542000000004,"velocity":0.3937007874015748},{"duration":0.14285700000000645,"midi":79,"time":29.714256,"velocity":0.3937007874015748},{"duration":0.14285700000000645,"midi":72,"time":29.714256,"velocity":0.3937007874015748},{"duration":0.14285700000000645,"midi":79,"time":29.714256,"velocity":0.3937007874015748},{"duration":0.14285700000000645,"midi":72,"time":29.714256,"velocity":0.3937007874015748},{"duration":0.14285700000000645,"midi":69,"time":29.714256,"velocity":0.3937007874015748},{"duration":0.14285700000000645,"midi":69,"time":29.714256,"velocity":0.3937007874015748},{"duration":0.14285699999999935,"midi":81,"time":29.99997,"velocity":0.3937007874015748},{"duration":0.14285699999999935,"midi":81,"time":29.99997,"velocity":0.3937007874015748},{"duration":0.14285699999999935,"midi":74,"time":29.99997,"velocity":0.3937007874015748},{"duration":0.14285699999999935,"midi":74,"time":29.99997,"velocity":0.3937007874015748},{"duration":0.14285699999999935,"midi":77,"time":29.99997,"velocity":0.3937007874015748},{"duration":0.14285699999999935,"midi":77,"time":29.99997,"velocity":0.3937007874015748},{"duration":0.1428570000000029,"midi":74,"time":30.142827,"velocity":0.3937007874015748},{"duration":0.1428570000000029,"midi":74,"time":30.142827,"velocity":0.3937007874015748},{"duration":0.1428570000000029,"midi":74,"time":30.571398000000002,"velocity":0.3937007874015748},{"duration":0.1428570000000029,"midi":74,"time":30.571398000000002,"velocity":0.3937007874015748},{"duration":0.1428569999999958,"midi":77,"time":30.714255000000005,"velocity":0.3937007874015748},{"duration":0.1428569999999958,"midi":77,"time":30.714255000000005,"velocity":0.3937007874015748},{"duration":0.14285699999999935,"midi":73,"time":30.857112,"velocity":0.3937007874015748},{"duration":0.14285699999999935,"midi":69,"time":30.857112,"velocity":0.3937007874015748},{"duration":0.14285699999999935,"midi":76,"time":30.857112,"velocity":0.3937007874015748},{"duration":0.14285699999999935,"midi":73,"time":30.857112,"velocity":0.3937007874015748},{"duration":0.14285699999999935,"midi":76,"time":30.857112,"velocity":0.3937007874015748},{"duration":0.14285699999999935,"midi":69,"time":30.857112,"velocity":0.3937007874015748},{"duration":0.14285699999999935,"midi":69,"time":31.142826000000003,"velocity":0.3937007874015748},{"duration":0.14285699999999935,"midi":76,"time":31.142826000000003,"velocity":0.3937007874015748},{"duration":0.14285699999999935,"midi":73,"time":31.142826000000003,"velocity":0.3937007874015748},{"duration":0.14285699999999935,"midi":69,"time":31.142826000000003,"velocity":0.3937007874015748},{"duration":0.14285699999999935,"midi":76,"time":31.142826000000003,"velocity":0.3937007874015748},{"duration":0.14285699999999935,"midi":73,"time":31.142826000000003,"velocity":0.3937007874015748},{"duration":0.1428570000000029,"midi":74,"time":31.42854,"velocity":0.3937007874015748},{"duration":0.1428570000000029,"midi":74,"time":31.42854,"velocity":0.3937007874015748},{"duration":0.14285699999999935,"midi":73,"time":31.571397000000005,"velocity":0.3937007874015748},{"duration":0.14285699999999935,"midi":73,"time":31.571397000000005,"velocity":0.3937007874015748},{"duration":0.28571400000000224,"midi":69,"time":31.714254000000004,"velocity":0.3937007874015748},{"duration":0.28571400000000224,"midi":74,"time":31.714254000000004,"velocity":0.3937007874015748},{"duration":0.28571400000000224,"midi":69,"time":31.714254000000004,"velocity":0.3937007874015748},{"duration":0.28571400000000224,"midi":74,"time":31.714254000000004,"velocity":0.3937007874015748},{"duration":0.28571399999999514,"midi":74,"time":31.999968000000006,"velocity":0.3937007874015748},{"duration":0.28571399999999514,"midi":74,"time":31.999968000000006,"velocity":0.3937007874015748},{"duration":0.28571399999999514,"midi":69,"time":31.999968000000006,"velocity":0.3937007874015748},{"duration":0.28571399999999514,"midi":69,"time":31.999968000000006,"velocity":0.3937007874015748},{"duration":0.2857139999999987,"midi":69,"time":32.285682,"velocity":0.3937007874015748},{"duration":0.2857139999999987,"midi":72,"time":32.285682,"velocity":0.3937007874015748},{"duration":0.2857139999999987,"midi":76,"time":32.285682,"velocity":0.3937007874015748},{"duration":0.2857139999999987,"midi":76,"time":32.285682,"velocity":0.3937007874015748},{"duration":0.2857139999999987,"midi":69,"time":32.285682,"velocity":0.3937007874015748},{"duration":0.2857139999999987,"midi":72,"time":32.285682,"velocity":0.3937007874015748},{"duration":0.2857140000000058,"midi":72,"time":32.571396,"velocity":0.3937007874015748},{"duration":0.2857140000000058,"midi":74,"time":32.571396,"velocity":0.3937007874015748},{"duration":0.2857140000000058,"midi":72,"time":32.571396,"velocity":0.3937007874015748},{"duration":0.2857140000000058,"midi":77,"time":32.571396,"velocity":0.3937007874015748},{"duration":0.2857140000000058,"midi":74,"time":32.571396,"velocity":0.3937007874015748},{"duration":0.2857140000000058,"midi":77,"time":32.571396,"velocity":0.3937007874015748},{"duration":0.14285699999999935,"midi":77,"time":32.857110000000006,"velocity":0.3937007874015748},{"duration":0.14285699999999935,"midi":77,"time":32.857110000000006,"velocity":0.3937007874015748},{"duration":0.14285699999999224,"midi":77,"time":32.999967000000005,"velocity":0.3937007874015748},{"duration":0.14285699999999224,"midi":77,"time":32.999967000000005,"velocity":0.3937007874015748},{"duration":0.2857140000000058,"midi":70,"time":33.142824,"velocity":0.3937007874015748},{"duration":0.2857140000000058,"midi":74,"time":33.142824,"velocity":0.3937007874015748},{"duration":0.2857140000000058,"midi":70,"time":33.142824,"velocity":0.3937007874015748},{"duration":0.2857140000000058,"midi":79,"time":33.142824,"velocity":0.3937007874015748},{"duration":0.2857140000000058,"midi":79,"time":33.142824,"velocity":0.3937007874015748},{"duration":0.2857140000000058,"midi":74,"time":33.142824,"velocity":0.3937007874015748},{"duration":0.5714279999999974,"midi":81,"time":33.428538,"velocity":0.3937007874015748},{"duration":0.5714279999999974,"midi":74,"time":33.428538,"velocity":0.3937007874015748},{"duration":0.5714279999999974,"midi":81,"time":33.428538,"velocity":0.3937007874015748},{"duration":0.5714279999999974,"midi":77,"time":33.428538,"velocity":0.3937007874015748},{"duration":0.5714279999999974,"midi":77,"time":33.428538,"velocity":0.3937007874015748},{"duration":0.5714279999999974,"midi":74,"time":33.428538,"velocity":0.3937007874015748},{"duration":0.14285700000000645,"midi":77,"time":33.999966,"velocity":0.3937007874015748},{"duration":0.14285700000000645,"midi":77,"time":33.999966,"velocity":0.3937007874015748},{"duration":0.14285699999999224,"midi":74,"time":34.14282300000001,"velocity":0.3937007874015748},{"duration":0.14285699999999224,"midi":74,"time":34.14282300000001,"velocity":0.3937007874015748},{"duration":0.8571420000000032,"midi":69,"time":34.28568,"velocity":0.3937007874015748},{"duration":0.8571420000000032,"midi":69,"time":34.28568,"velocity":0.3937007874015748},{"duration":0.5714279999999974,"midi":77,"time":35.142822,"velocity":0.3937007874015748},{"duration":0.5714279999999974,"midi":74,"time":35.142822,"velocity":0.3937007874015748},{"duration":0.5714279999999974,"midi":82,"time":35.142822,"velocity":0.3937007874015748},{"duration":0.5714279999999974,"midi":77,"time":35.142822,"velocity":0.3937007874015748},{"duration":0.5714279999999974,"midi":82,"time":35.142822,"velocity":0.3937007874015748},{"duration":0.5714279999999974,"midi":74,"time":35.142822,"velocity":0.3937007874015748},{"duration":0.14285700000000645,"midi":77,"time":35.71425,"velocity":0.3937007874015748},{"duration":0.14285700000000645,"midi":77,"time":35.71425,"velocity":0.3937007874015748},{"duration":0.14285699999999935,"midi":74,"time":35.857107000000006,"velocity":0.3937007874015748},{"duration":0.14285699999999935,"midi":74,"time":35.857107000000006,"velocity":0.3937007874015748},{"duration":0.8571419999999961,"midi":70,"time":35.999964000000006,"velocity":0.3937007874015748},{"duration":0.8571419999999961,"midi":70,"time":35.999964000000006,"velocity":0.3937007874015748},{"duration":0.14285699999999935,"midi":69,"time":36.857106,"velocity":0.3937007874015748},{"duration":0.14285699999999935,"midi":69,"time":36.857106,"velocity":0.3937007874015748},{"duration":0.14285699999999935,"midi":76,"time":36.857106,"velocity":0.3937007874015748},{"duration":0.14285699999999935,"midi":76,"time":36.857106,"velocity":0.3937007874015748},{"duration":0.2857139999999987,"midi":76,"time":36.999963,"velocity":0.3937007874015748},{"duration":0.2857139999999987,"midi":76,"time":36.999963,"velocity":0.3937007874015748},{"duration":0.42857100000000514,"midi":65,"time":37.285677,"velocity":0.3937007874015748},{"duration":0.42857100000000514,"midi":74,"time":37.285677,"velocity":0.3937007874015748},{"duration":0.42857100000000514,"midi":74,"time":37.285677,"velocity":0.3937007874015748},{"duration":0.42857100000000514,"midi":69,"time":37.285677,"velocity":0.3937007874015748},{"duration":0.42857100000000514,"midi":65,"time":37.285677,"velocity":0.3937007874015748},{"duration":0.42857100000000514,"midi":69,"time":37.285677,"velocity":0.3937007874015748},{"duration":0.42857099999999804,"midi":73,"time":37.714248000000005,"velocity":0.3937007874015748},{"duration":0.42857099999999804,"midi":69,"time":37.714248000000005,"velocity":0.3937007874015748},{"duration":0.42857099999999804,"midi":73,"time":37.714248000000005,"velocity":0.3937007874015748},{"duration":0.42857099999999804,"midi":69,"time":37.714248000000005,"velocity":0.3937007874015748},{"duration":0.42857099999999804,"midi":77,"time":37.714248000000005,"velocity":0.3937007874015748},{"duration":0.42857099999999804,"midi":77,"time":37.714248000000005,"velocity":0.3937007874015748},{"duration":0.14285700000000645,"midi":65,"time":38.285676,"velocity":0.3937007874015748},{"duration":0.14285700000000645,"midi":65,"time":38.285676,"velocity":0.3937007874015748},{"duration":0.14285699999999224,"midi":67,"time":38.42853300000001,"velocity":0.3937007874015748},{"duration":0.14285699999999224,"midi":67,"time":38.42853300000001,"velocity":0.3937007874015748},{"duration":0.14285699999999935,"midi":65,"time":38.57139,"velocity":0.3937007874015748},{"duration":0.14285699999999935,"midi":62,"time":38.57139,"velocity":0.3937007874015748},{"duration":0.14285699999999935,"midi":69,"time":38.57139,"velocity":0.3937007874015748},{"duration":0.14285699999999935,"midi":69,"time":38.57139,"velocity":0.3937007874015748},{"duration":0.14285699999999935,"midi":62,"time":38.57139,"velocity":0.3937007874015748},{"duration":0.14285699999999935,"midi":65,"time":38.57139,"velocity":0.3937007874015748},{"duration":0.14285699999999935,"midi":65,"time":38.85710400000001,"velocity":0.3937007874015748},{"duration":0.14285699999999935,"midi":69,"time":38.85710400000001,"velocity":0.3937007874015748},{"duration":0.14285699999999935,"midi":69,"time":38.85710400000001,"velocity":0.3937007874015748},{"duration":0.14285699999999935,"midi":62,"time":38.85710400000001,"velocity":0.3937007874015748},{"duration":0.14285699999999935,"midi":62,"time":38.85710400000001,"velocity":0.3937007874015748},{"duration":0.14285699999999935,"midi":65,"time":38.85710400000001,"velocity":0.3937007874015748},{"duration":0.14285700000000645,"midi":62,"time":39.142818,"velocity":0.3937007874015748},{"duration":0.14285700000000645,"midi":65,"time":39.142818,"velocity":0.3937007874015748},{"duration":0.14285700000000645,"midi":65,"time":39.142818,"velocity":0.3937007874015748},{"duration":0.14285700000000645,"midi":69,"time":39.142818,"velocity":0.3937007874015748},{"duration":0.14285700000000645,"midi":62,"time":39.142818,"velocity":0.3937007874015748},{"duration":0.14285700000000645,"midi":69,"time":39.142818,"velocity":0.3937007874015748},{"duration":0.14285699999999935,"midi":70,"time":39.428532000000004,"velocity":0.3937007874015748},{"duration":0.14285699999999935,"midi":62,"time":39.428532000000004,"velocity":0.3937007874015748},{"duration":0.14285699999999935,"midi":67,"time":39.428532000000004,"velocity":0.3937007874015748},{"duration":0.14285699999999935,"midi":70,"time":39.428532000000004,"velocity":0.3937007874015748},{"duration":0.14285699999999935,"midi":62,"time":39.428532000000004,"velocity":0.3937007874015748},{"duration":0.14285699999999935,"midi":67,"time":39.428532000000004,"velocity":0.3937007874015748},{"duration":0.14285699999999935,"midi":62,"time":39.571389,"velocity":0.3937007874015748},{"duration":0.14285699999999935,"midi":65,"time":39.571389,"velocity":0.3937007874015748},{"duration":0.14285699999999935,"midi":69,"time":39.571389,"velocity":0.3937007874015748},{"duration":0.14285699999999935,"midi":65,"time":39.571389,"velocity":0.3937007874015748},{"duration":0.14285699999999935,"midi":62,"time":39.571389,"velocity":0.3937007874015748},{"duration":0.14285699999999935,"midi":69,"time":39.571389,"velocity":0.3937007874015748},{"duration":0.14285699999999935,"midi":60,"time":40.285674,"velocity":0.3937007874015748},{"duration":0.14285699999999935,"midi":64,"time":40.285674,"velocity":0.3937007874015748},{"duration":0.14285699999999935,"midi":67,"time":40.285674,"velocity":0.3937007874015748},{"duration":0.14285699999999935,"midi":60,"time":40.285674,"velocity":0.3937007874015748},{"duration":0.14285699999999935,"midi":67,"time":40.285674,"velocity":0.3937007874015748},{"duration":0.14285699999999935,"midi":64,"time":40.285674,"velocity":0.3937007874015748},{"duration":0.14285699999999935,"midi":67,"time":40.571388000000006,"velocity":0.3937007874015748},{"duration":0.14285699999999935,"midi":60,"time":40.571388000000006,"velocity":0.3937007874015748},{"duration":0.14285699999999935,"midi":64,"time":40.571388000000006,"velocity":0.3937007874015748},{"duration":0.14285699999999935,"midi":60,"time":40.571388000000006,"velocity":0.3937007874015748},{"duration":0.14285699999999935,"midi":67,"time":40.571388000000006,"velocity":0.3937007874015748},{"duration":0.14285699999999935,"midi":64,"time":40.571388000000006,"velocity":0.3937007874015748},{"duration":0.14285699999999935,"midi":60,"time":40.857102000000005,"velocity":0.3937007874015748},{"duration":0.14285699999999935,"midi":67,"time":40.857102000000005,"velocity":0.3937007874015748},{"duration":0.14285699999999935,"midi":64,"time":40.857102000000005,"velocity":0.3937007874015748},{"duration":0.14285699999999935,"midi":67,"time":40.857102000000005,"velocity":0.3937007874015748},{"duration":0.14285699999999935,"midi":64,"time":40.857102000000005,"velocity":0.3937007874015748},{"duration":0.14285699999999935,"midi":60,"time":40.857102000000005,"velocity":0.3937007874015748},{"duration":0.14285699999999935,"midi":60,"time":41.142816,"velocity":0.3937007874015748},{"duration":0.14285699999999935,"midi":64,"time":41.142816,"velocity":0.3937007874015748},{"duration":0.14285699999999935,"midi":64,"time":41.142816,"velocity":0.3937007874015748},{"duration":0.14285699999999935,"midi":60,"time":41.142816,"velocity":0.3937007874015748},{"duration":0.14285699999999935,"midi":67,"time":41.142816,"velocity":0.3937007874015748},{"duration":0.14285699999999935,"midi":67,"time":41.142816,"velocity":0.3937007874015748},{"duration":0.14285699999999935,"midi":65,"time":41.285673,"velocity":0.3937007874015748},{"duration":0.14285699999999935,"midi":65,"time":41.285673,"velocity":0.3937007874015748},{"duration":0.14285699999999935,"midi":60,"time":41.285673,"velocity":0.3937007874015748},{"duration":0.14285699999999935,"midi":60,"time":41.285673,"velocity":0.3937007874015748},{"duration":0.14285699999999935,"midi":69,"time":41.285673,"velocity":0.3937007874015748},{"duration":0.14285699999999935,"midi":69,"time":41.285673,"velocity":0.3937007874015748},{"duration":0.14285699999999224,"midi":69,"time":41.99995800000001,"velocity":0.3937007874015748},{"duration":0.14285699999999224,"midi":69,"time":41.99995800000001,"velocity":0.3937007874015748},{"duration":0.14285699999999224,"midi":65,"time":41.99995800000001,"velocity":0.3937007874015748},{"duration":0.14285699999999224,"midi":62,"time":41.99995800000001,"velocity":0.3937007874015748},{"duration":0.14285699999999224,"midi":62,"time":41.99995800000001,"velocity":0.3937007874015748},{"duration":0.14285699999999224,"midi":65,"time":41.99995800000001,"velocity":0.3937007874015748},{"duration":0.14285699999999935,"midi":69,"time":42.285672000000005,"velocity":0.3937007874015748},{"duration":0.14285699999999935,"midi":65,"time":42.285672000000005,"velocity":0.3937007874015748},{"duration":0.14285699999999935,"midi":62,"time":42.285672000000005,"velocity":0.3937007874015748},{"duration":0.14285699999999935,"midi":62,"time":42.285672000000005,"velocity":0.3937007874015748},{"duration":0.14285699999999935,"midi":65,"time":42.285672000000005,"velocity":0.3937007874015748},{"duration":0.14285699999999935,"midi":69,"time":42.285672000000005,"velocity":0.3937007874015748},{"duration":0.14285699999999935,"midi":62,"time":42.571386000000004,"velocity":0.3937007874015748},{"duration":0.14285699999999935,"midi":65,"time":42.571386000000004,"velocity":0.3937007874015748},{"duration":0.14285699999999935,"midi":62,"time":42.571386000000004,"velocity":0.3937007874015748},{"duration":0.14285699999999935,"midi":69,"time":42.571386000000004,"velocity":0.3937007874015748},{"duration":0.14285699999999935,"midi":65,"time":42.571386000000004,"velocity":0.3937007874015748},{"duration":0.14285699999999935,"midi":69,"time":42.571386000000004,"velocity":0.3937007874015748},{"duration":0.14285699999999935,"midi":62,"time":42.8571,"velocity":0.3937007874015748},{"duration":0.14285699999999935,"midi":70,"time":42.8571,"velocity":0.3937007874015748},{"duration":0.14285699999999935,"midi":62,"time":42.8571,"velocity":0.3937007874015748},{"duration":0.14285699999999935,"midi":70,"time":42.8571,"velocity":0.3937007874015748},{"duration":0.14285699999999935,"midi":67,"time":42.8571,"velocity":0.3937007874015748},{"duration":0.14285699999999935,"midi":67,"time":42.8571,"velocity":0.3937007874015748},{"duration":0.14285700000000645,"midi":69,"time":42.999957,"velocity":0.3937007874015748},{"duration":0.14285700000000645,"midi":65,"time":42.999957,"velocity":0.3937007874015748},{"duration":0.14285700000000645,"midi":62,"time":42.999957,"velocity":0.3937007874015748},{"duration":0.14285700000000645,"midi":69,"time":42.999957,"velocity":0.3937007874015748},{"duration":0.14285700000000645,"midi":62,"time":42.999957,"velocity":0.3937007874015748},{"duration":0.14285700000000645,"midi":65,"time":42.999957,"velocity":0.3937007874015748},{"duration":0.14285699999999224,"midi":64,"time":43.714242000000006,"velocity":0.3937007874015748},{"duration":0.14285699999999224,"midi":61,"time":43.714242000000006,"velocity":0.3937007874015748},{"duration":0.14285699999999224,"midi":67,"time":43.714242000000006,"velocity":0.3937007874015748},{"duration":0.14285699999999224,"midi":67,"time":43.714242000000006,"velocity":0.3937007874015748},{"duration":0.14285699999999224,"midi":61,"time":43.714242000000006,"velocity":0.3937007874015748},{"duration":0.14285699999999224,"midi":64,"time":43.714242000000006,"velocity":0.3937007874015748},{"duration":0.14285699999999935,"midi":65,"time":43.999956000000005,"velocity":0.3937007874015748},{"duration":0.14285699999999935,"midi":65,"time":43.999956000000005,"velocity":0.3937007874015748},{"duration":0.14285699999999935,"midi":61,"time":43.999956000000005,"velocity":0.3937007874015748},{"duration":0.14285699999999935,"midi":61,"time":43.999956000000005,"velocity":0.3937007874015748},{"duration":0.14285699999999935,"midi":64,"time":44.28567,"velocity":0.3937007874015748},{"duration":0.14285699999999935,"midi":64,"time":44.28567,"velocity":0.3937007874015748},{"duration":0.14285699999999935,"midi":61,"time":44.28567,"velocity":0.3937007874015748},{"duration":0.14285699999999935,"midi":61,"time":44.28567,"velocity":0.3937007874015748},{"duration":0.14285699999999935,"midi":62,"time":44.571384,"velocity":0.3937007874015748},{"duration":0.14285699999999935,"midi":57,"time":44.571384,"velocity":0.3937007874015748},{"duration":0.14285699999999935,"midi":57,"time":44.571384,"velocity":0.3937007874015748},{"duration":0.14285699999999935,"midi":53,"time":44.571384,"velocity":0.3937007874015748},{"duration":0.14285699999999935,"midi":53,"time":44.571384,"velocity":0.3937007874015748},{"duration":0.14285699999999935,"midi":62,"time":44.571384,"velocity":0.3937007874015748},{"duration":0.14285700000000645,"midi":62,"time":45.142812,"velocity":0.3937007874015748},{"duration":0.14285700000000645,"midi":62,"time":45.142812,"velocity":0.3937007874015748},{"duration":0.14285699999999935,"midi":64,"time":45.285669000000006,"velocity":0.3937007874015748},{"duration":0.14285699999999935,"midi":64,"time":45.285669000000006,"velocity":0.3937007874015748},{"duration":0.5714279999999974,"midi":57,"time":45.428526000000005,"velocity":0.3937007874015748},{"duration":0.5714279999999974,"midi":65,"time":45.428526000000005,"velocity":0.3937007874015748},{"duration":0.5714279999999974,"midi":57,"time":45.428526000000005,"velocity":0.3937007874015748},{"duration":0.5714279999999974,"midi":62,"time":45.428526000000005,"velocity":0.3937007874015748},{"duration":0.5714279999999974,"midi":62,"time":45.428526000000005,"velocity":0.3937007874015748},{"duration":0.5714279999999974,"midi":65,"time":45.428526000000005,"velocity":0.3937007874015748},{"duration":0.14285700000000645,"midi":67,"time":45.999954,"velocity":0.3937007874015748},{"duration":0.14285700000000645,"midi":67,"time":45.999954,"velocity":0.3937007874015748},{"duration":0.14285699999999224,"midi":69,"time":46.14281100000001,"velocity":0.3937007874015748},{"duration":0.14285699999999224,"midi":69,"time":46.14281100000001,"velocity":0.3937007874015748},{"duration":0.2857140000000058,"midi":60,"time":46.285668,"velocity":0.3937007874015748},{"duration":0.2857140000000058,"midi":55,"time":46.285668,"velocity":0.3937007874015748},{"duration":0.2857140000000058,"midi":60,"time":46.285668,"velocity":0.3937007874015748},{"duration":0.2857140000000058,"midi":55,"time":46.285668,"velocity":0.3937007874015748},{"duration":0.2857140000000058,"midi":67,"time":46.285668,"velocity":0.3937007874015748},{"duration":0.2857140000000058,"midi":67,"time":46.285668,"velocity":0.3937007874015748},{"duration":0.2857139999999916,"midi":65,"time":46.57138200000001,"velocity":0.3937007874015748},{"duration":0.2857139999999916,"midi":60,"time":46.57138200000001,"velocity":0.3937007874015748},{"duration":0.2857139999999916,"midi":65,"time":46.57138200000001,"velocity":0.3937007874015748},{"duration":0.2857139999999916,"midi":60,"time":46.57138200000001,"velocity":0.3937007874015748},{"duration":0.2857139999999916,"midi":55,"time":46.57138200000001,"velocity":0.3937007874015748},{"duration":0.2857139999999916,"midi":55,"time":46.57138200000001,"velocity":0.3937007874015748},{"duration":0.2857140000000058,"midi":55,"time":46.857096,"velocity":0.3937007874015748},{"duration":0.2857140000000058,"midi":55,"time":46.857096,"velocity":0.3937007874015748},{"duration":0.2857140000000058,"midi":64,"time":46.857096,"velocity":0.3937007874015748},{"duration":0.2857140000000058,"midi":60,"time":46.857096,"velocity":0.3937007874015748},{"duration":0.2857140000000058,"midi":60,"time":46.857096,"velocity":0.3937007874015748},{"duration":0.2857140000000058,"midi":64,"time":46.857096,"velocity":0.3937007874015748},{"duration":0.2857139999999987,"midi":57,"time":47.142810000000004,"velocity":0.3937007874015748},{"duration":0.2857139999999987,"midi":65,"time":47.142810000000004,"velocity":0.3937007874015748},{"duration":0.2857139999999987,"midi":60,"time":47.142810000000004,"velocity":0.3937007874015748},{"duration":0.2857139999999987,"midi":57,"time":47.142810000000004,"velocity":0.3937007874015748},{"duration":0.2857139999999987,"midi":60,"time":47.142810000000004,"velocity":0.3937007874015748},{"duration":0.2857139999999987,"midi":65,"time":47.142810000000004,"velocity":0.3937007874015748},{"duration":0.2857139999999987,"midi":67,"time":47.428524,"velocity":0.3937007874015748},{"duration":0.2857139999999987,"midi":67,"time":47.428524,"velocity":0.3937007874015748},{"duration":0.2857139999999987,"midi":57,"time":47.428524,"velocity":0.3937007874015748},{"duration":0.2857139999999987,"midi":57,"time":47.428524,"velocity":0.3937007874015748},{"duration":0.2857139999999987,"midi":60,"time":47.428524,"velocity":0.3937007874015748},{"duration":0.2857139999999987,"midi":60,"time":47.428524,"velocity":0.3937007874015748},{"duration":0.2857140000000058,"midi":69,"time":47.714238,"velocity":0.3937007874015748},{"duration":0.2857140000000058,"midi":57,"time":47.714238,"velocity":0.3937007874015748},{"duration":0.2857140000000058,"midi":57,"time":47.714238,"velocity":0.3937007874015748},{"duration":0.2857140000000058,"midi":60,"time":47.714238,"velocity":0.3937007874015748},{"duration":0.2857140000000058,"midi":69,"time":47.714238,"velocity":0.3937007874015748},{"duration":0.2857140000000058,"midi":60,"time":47.714238,"velocity":0.3937007874015748},{"duration":0.5714279999999974,"midi":64,"time":47.99995200000001,"velocity":0.3937007874015748},{"duration":0.5714279999999974,"midi":67,"time":47.99995200000001,"velocity":0.3937007874015748},{"duration":0.5714279999999974,"midi":67,"time":47.99995200000001,"velocity":0.3937007874015748},{"duration":0.5714279999999974,"midi":64,"time":47.99995200000001,"velocity":0.3937007874015748},{"duration":0.5714279999999974,"midi":60,"time":47.99995200000001,"velocity":0.3937007874015748},{"duration":0.5714279999999974,"midi":60,"time":47.99995200000001,"velocity":0.3937007874015748},{"duration":0.14285699999999935,"midi":65,"time":48.571380000000005,"velocity":0.3937007874015748},{"duration":0.14285699999999935,"midi":65,"time":48.571380000000005,"velocity":0.3937007874015748},{"duration":0.14285699999999935,"midi":67,"time":48.714237000000004,"velocity":0.3937007874015748},{"duration":0.14285699999999935,"midi":67,"time":48.714237000000004,"velocity":0.3937007874015748},{"duration":0.5714279999999974,"midi":62,"time":48.857094000000004,"velocity":0.3937007874015748},{"duration":0.5714279999999974,"midi":69,"time":48.857094000000004,"velocity":0.3937007874015748},{"duration":0.5714279999999974,"midi":69,"time":48.857094000000004,"velocity":0.3937007874015748},{"duration":0.5714279999999974,"midi":65,"time":48.857094000000004,"velocity":0.3937007874015748},{"duration":0.5714279999999974,"midi":65,"time":48.857094000000004,"velocity":0.3937007874015748},{"duration":0.5714279999999974,"midi":62,"time":48.857094000000004,"velocity":0.3937007874015748},{"duration":0.14285700000000645,"midi":67,"time":49.428522,"velocity":0.3937007874015748},{"duration":0.14285700000000645,"midi":67,"time":49.428522,"velocity":0.3937007874015748},{"duration":0.14285699999999935,"midi":65,"time":49.57137900000001,"velocity":0.3937007874015748},{"duration":0.14285699999999935,"midi":65,"time":49.57137900000001,"velocity":0.3937007874015748},{"duration":0.2857139999999987,"midi":64,"time":49.71423600000001,"velocity":0.3937007874015748},{"duration":0.2857139999999987,"midi":64,"time":49.71423600000001,"velocity":0.3937007874015748},{"duration":0.2857139999999987,"midi":61,"time":49.71423600000001,"velocity":0.3937007874015748},{"duration":0.2857139999999987,"midi":61,"time":49.71423600000001,"velocity":0.3937007874015748},{"duration":0.2857139999999987,"midi":61,"time":49.999950000000005,"velocity":0.3937007874015748},{"duration":0.2857139999999987,"midi":65,"time":49.999950000000005,"velocity":0.3937007874015748},{"duration":0.2857139999999987,"midi":61,"time":49.999950000000005,"velocity":0.3937007874015748},{"duration":0.2857139999999987,"midi":65,"time":49.999950000000005,"velocity":0.3937007874015748},{"duration":0.2857139999999987,"midi":64,"time":50.285664000000004,"velocity":0.3937007874015748},{"duration":0.2857139999999987,"midi":64,"time":50.285664000000004,"velocity":0.3937007874015748},{"duration":0.2857139999999987,"midi":61,"time":50.285664000000004,"velocity":0.3937007874015748},{"duration":0.2857139999999987,"midi":61,"time":50.285664000000004,"velocity":0.3937007874015748},{"duration":0.2857140000000058,"midi":53,"time":50.571378,"velocity":0.3937007874015748},{"duration":0.2857140000000058,"midi":62,"time":50.571378,"velocity":0.3937007874015748},{"duration":0.2857140000000058,"midi":62,"time":50.571378,"velocity":0.3937007874015748},{"duration":0.2857140000000058,"midi":57,"time":50.571378,"velocity":0.3937007874015748},{"duration":0.2857140000000058,"midi":53,"time":50.571378,"velocity":0.3937007874015748},{"duration":0.2857140000000058,"midi":57,"time":50.571378,"velocity":0.3937007874015748},{"duration":0.14285700000000645,"midi":64,"time":51.142806,"velocity":0.3937007874015748},{"duration":0.14285700000000645,"midi":64,"time":51.142806,"velocity":0.3937007874015748},{"duration":0.14285699999999935,"midi":60,"time":51.28566300000001,"velocity":0.3937007874015748},{"duration":0.14285699999999935,"midi":60,"time":51.28566300000001,"velocity":0.3937007874015748},{"duration":0.2857139999999987,"midi":57,"time":51.428520000000006,"velocity":0.3937007874015748},{"duration":0.2857139999999987,"midi":53,"time":51.428520000000006,"velocity":0.3937007874015748},{"duration":0.2857139999999987,"midi":62,"time":51.428520000000006,"velocity":0.3937007874015748},{"duration":0.2857139999999987,"midi":53,"time":51.428520000000006,"velocity":0.3937007874015748},{"duration":0.2857139999999987,"midi":62,"time":51.428520000000006,"velocity":0.3937007874015748},{"duration":0.2857139999999987,"midi":57,"time":51.428520000000006,"velocity":0.3937007874015748},{"duration":0.14285700000000645,"midi":74,"time":51.999948,"velocity":0.3937007874015748},{"duration":0.14285700000000645,"midi":74,"time":51.999948,"velocity":0.3937007874015748},{"duration":0.14285699999999224,"midi":76,"time":52.14280500000001,"velocity":0.3937007874015748},{"duration":0.14285699999999224,"midi":76,"time":52.14280500000001,"velocity":0.3937007874015748},{"duration":0.5714279999999974,"midi":69,"time":52.285662,"velocity":0.3937007874015748},{"duration":0.5714279999999974,"midi":74,"time":52.285662,"velocity":0.3937007874015748},{"duration":0.5714279999999974,"midi":74,"time":52.285662,"velocity":0.3937007874015748},{"duration":0.5714279999999974,"midi":77,"time":52.285662,"velocity":0.3937007874015748},{"duration":0.5714279999999974,"midi":69,"time":52.285662,"velocity":0.3937007874015748},{"duration":0.5714279999999974,"midi":77,"time":52.285662,"velocity":0.3937007874015748},{"duration":0.14285700000000645,"midi":76,"time":52.85709,"velocity":0.3937007874015748},{"duration":0.14285700000000645,"midi":76,"time":52.85709,"velocity":0.3937007874015748},{"duration":0.14285699999999935,"midi":77,"time":52.999947000000006,"velocity":0.3937007874015748},{"duration":0.14285699999999935,"midi":77,"time":52.999947000000006,"velocity":0.3937007874015748},{"duration":0.2857139999999987,"midi":72,"time":53.142804000000005,"velocity":0.3937007874015748},{"duration":0.2857139999999987,"midi":67,"time":53.142804000000005,"velocity":0.3937007874015748},{"duration":0.2857139999999987,"midi":72,"time":53.142804000000005,"velocity":0.3937007874015748},{"duration":0.2857139999999987,"midi":79,"time":53.142804000000005,"velocity":0.3937007874015748},{"duration":0.2857139999999987,"midi":67,"time":53.142804000000005,"velocity":0.3937007874015748},{"duration":0.2857139999999987,"midi":79,"time":53.142804000000005,"velocity":0.3937007874015748},{"duration":0.2857139999999987,"midi":67,"time":53.428518000000004,"velocity":0.3937007874015748},{"duration":0.2857139999999987,"midi":67,"time":53.428518000000004,"velocity":0.3937007874015748},{"duration":0.2857139999999987,"midi":72,"time":53.428518000000004,"velocity":0.3937007874015748},{"duration":0.2857139999999987,"midi":77,"time":53.428518000000004,"velocity":0.3937007874015748},{"duration":0.2857139999999987,"midi":72,"time":53.428518000000004,"velocity":0.3937007874015748},{"duration":0.2857139999999987,"midi":77,"time":53.428518000000004,"velocity":0.3937007874015748},{"duration":0.2857139999999987,"midi":67,"time":53.714232,"velocity":0.3937007874015748},{"duration":0.2857139999999987,"midi":72,"time":53.714232,"velocity":0.3937007874015748},{"duration":0.2857139999999987,"midi":79,"time":53.714232,"velocity":0.3937007874015748},{"duration":0.2857139999999987,"midi":79,"time":53.714232,"velocity":0.3937007874015748},{"duration":0.2857139999999987,"midi":72,"time":53.714232,"velocity":0.3937007874015748},{"duration":0.2857139999999987,"midi":67,"time":53.714232,"velocity":0.3937007874015748},{"duration":0.2857140000000058,"midi":77,"time":53.999946,"velocity":0.3937007874015748},{"duration":0.2857140000000058,"midi":81,"time":53.999946,"velocity":0.3937007874015748},{"duration":0.2857140000000058,"midi":77,"time":53.999946,"velocity":0.3937007874015748},{"duration":0.2857140000000058,"midi":81,"time":53.999946,"velocity":0.3937007874015748},{"duration":0.2857139999999987,"midi":72,"time":54.28566000000001,"velocity":0.3937007874015748},{"duration":0.2857139999999987,"midi":79,"time":54.28566000000001,"velocity":0.3937007874015748},{"duration":0.2857139999999987,"midi":79,"time":54.28566000000001,"velocity":0.3937007874015748},{"duration":0.2857139999999987,"midi":72,"time":54.28566000000001,"velocity":0.3937007874015748},{"duration":0.2857139999999987,"midi":72,"time":54.571374000000006,"velocity":0.3937007874015748},{"duration":0.2857139999999987,"midi":77,"time":54.571374000000006,"velocity":0.3937007874015748},{"duration":0.2857139999999987,"midi":77,"time":54.571374000000006,"velocity":0.3937007874015748},{"duration":0.2857139999999987,"midi":72,"time":54.571374000000006,"velocity":0.3937007874015748},{"duration":0.2857139999999987,"midi":65,"time":54.857088000000005,"velocity":0.3937007874015748},{"duration":0.2857139999999987,"midi":65,"time":54.857088000000005,"velocity":0.3937007874015748},{"duration":0.2857139999999987,"midi":70,"time":54.857088000000005,"velocity":0.3937007874015748},{"duration":0.2857139999999987,"midi":74,"time":54.857088000000005,"velocity":0.3937007874015748},{"duration":0.2857139999999987,"midi":70,"time":54.857088000000005,"velocity":0.3937007874015748},{"duration":0.2857139999999987,"midi":74,"time":54.857088000000005,"velocity":0.3937007874015748},{"duration":0.14285699999999224,"midi":74,"time":55.42851600000001,"velocity":0.3937007874015748},{"duration":0.14285699999999224,"midi":74,"time":55.42851600000001,"velocity":0.3937007874015748},{"duration":0.14285700000000645,"midi":76,"time":55.571373,"velocity":0.3937007874015748},{"duration":0.14285700000000645,"midi":76,"time":55.571373,"velocity":0.3937007874015748},{"duration":0.2857139999999916,"midi":77,"time":55.71423000000001,"velocity":0.3937007874015748},{"duration":0.2857139999999916,"midi":74,"time":55.71423000000001,"velocity":0.3937007874015748},{"duration":0.2857139999999916,"midi":74,"time":55.71423000000001,"velocity":0.3937007874015748},{"duration":0.2857139999999916,"midi":69,"time":55.71423000000001,"velocity":0.3937007874015748},{"duration":0.2857139999999916,"midi":69,"time":55.71423000000001,"velocity":0.3937007874015748},{"duration":0.2857139999999916,"midi":77,"time":55.71423000000001,"velocity":0.3937007874015748},{"duration":0.2857140000000129,"midi":79,"time":55.999944,"velocity":0.3937007874015748},{"duration":0.2857140000000129,"midi":69,"time":55.999944,"velocity":0.3937007874015748},{"duration":0.2857140000000129,"midi":79,"time":55.999944,"velocity":0.3937007874015748},{"duration":0.2857140000000129,"midi":74,"time":55.999944,"velocity":0.3937007874015748},{"duration":0.2857140000000129,"midi":74,"time":55.999944,"velocity":0.3937007874015748},{"duration":0.2857140000000129,"midi":69,"time":55.999944,"velocity":0.3937007874015748},{"duration":0.2857139999999916,"midi":74,"time":56.28565800000001,"velocity":0.3937007874015748},{"duration":0.2857139999999916,"midi":74,"time":56.28565800000001,"velocity":0.3937007874015748},{"duration":0.2857139999999916,"midi":81,"time":56.28565800000001,"velocity":0.3937007874015748},{"duration":0.2857139999999916,"midi":81,"time":56.28565800000001,"velocity":0.3937007874015748},{"duration":0.2857139999999987,"midi":70,"time":56.571372000000004,"velocity":0.3937007874015748},{"duration":0.2857139999999987,"midi":74,"time":56.571372000000004,"velocity":0.3937007874015748},{"duration":0.2857139999999987,"midi":82,"time":56.571372000000004,"velocity":0.3937007874015748},{"duration":0.2857139999999987,"midi":82,"time":56.571372000000004,"velocity":0.3937007874015748},{"duration":0.2857139999999987,"midi":74,"time":56.571372000000004,"velocity":0.3937007874015748},{"duration":0.2857139999999987,"midi":70,"time":56.571372000000004,"velocity":0.3937007874015748},{"duration":0.2857140000000058,"midi":70,"time":56.857086,"velocity":0.3937007874015748},{"duration":0.2857140000000058,"midi":70,"time":56.857086,"velocity":0.3937007874015748},{"duration":0.2857140000000058,"midi":74,"time":56.857086,"velocity":0.3937007874015748},{"duration":0.2857140000000058,"midi":74,"time":56.857086,"velocity":0.3937007874015748},{"duration":0.2857139999999987,"midi":79,"time":57.14280000000001,"velocity":0.3937007874015748},{"duration":0.2857139999999987,"midi":79,"time":57.14280000000001,"velocity":0.3937007874015748},{"duration":0.2857139999999987,"midi":74,"time":57.14280000000001,"velocity":0.3937007874015748},{"duration":0.2857139999999987,"midi":74,"time":57.14280000000001,"velocity":0.3937007874015748},{"duration":0.2857139999999916,"midi":77,"time":57.42851400000001,"velocity":0.3937007874015748},{"duration":0.2857139999999916,"midi":69,"time":57.42851400000001,"velocity":0.3937007874015748},{"duration":0.2857139999999916,"midi":69,"time":57.42851400000001,"velocity":0.3937007874015748},{"duration":0.2857139999999916,"midi":77,"time":57.42851400000001,"velocity":0.3937007874015748},{"duration":0.14285699999999224,"midi":79,"time":57.99994200000001,"velocity":0.3937007874015748},{"duration":0.14285699999999224,"midi":79,"time":57.99994200000001,"velocity":0.3937007874015748},{"duration":0.14285699999999935,"midi":76,"time":58.142799000000004,"velocity":0.3937007874015748},{"duration":0.14285699999999935,"midi":76,"time":58.142799000000004,"velocity":0.3937007874015748},{"duration":0.2857139999999987,"midi":69,"time":58.285656,"velocity":0.3937007874015748},{"duration":0.2857139999999987,"midi":74,"time":58.285656,"velocity":0.3937007874015748},{"duration":0.2857139999999987,"midi":69,"time":58.285656,"velocity":0.3937007874015748},{"duration":0.2857139999999987,"midi":74,"time":58.285656,"velocity":0.3937007874015748},{"duration":0.14285699999999224,"midi":76,"time":58.85708400000001,"velocity":0.3937007874015748},{"duration":0.14285699999999224,"midi":76,"time":58.85708400000001,"velocity":0.3937007874015748},{"duration":0.14285700000000645,"midi":73,"time":58.999941,"velocity":0.3937007874015748},{"duration":0.14285700000000645,"midi":73,"time":58.999941,"velocity":0.3937007874015748},{"duration":0.8571419999999961,"midi":74,"time":59.142798000000006,"velocity":0.3937007874015748},{"duration":0.8571419999999961,"midi":77,"time":59.142798000000006,"velocity":0.3937007874015748},{"duration":0.8571419999999961,"midi":81,"time":59.142798000000006,"velocity":0.3937007874015748},{"duration":0.8571419999999961,"midi":74,"time":59.142798000000006,"velocity":0.3937007874015748},{"duration":0.8571419999999961,"midi":81,"time":59.142798000000006,"velocity":0.3937007874015748},{"duration":0.8571419999999961,"midi":77,"time":59.142798000000006,"velocity":0.3937007874015748},{"duration":0.8571420000000032,"midi":74,"time":59.99994,"velocity":0.3937007874015748},{"duration":0.8571420000000032,"midi":74,"time":59.99994,"velocity":0.3937007874015748},{"duration":0.8571420000000032,"midi":77,"time":59.99994,"velocity":0.3937007874015748},{"duration":0.8571420000000032,"midi":82,"time":59.99994,"velocity":0.3937007874015748},{"duration":0.8571420000000032,"midi":77,"time":59.99994,"velocity":0.3937007874015748},{"duration":0.8571420000000032,"midi":82,"time":59.99994,"velocity":0.3937007874015748},{"duration":0.2857139999999987,"midi":81,"time":60.857082000000005,"velocity":0.3937007874015748},{"duration":0.2857139999999987,"midi":72,"time":60.857082000000005,"velocity":0.3937007874015748},{"duration":0.2857139999999987,"midi":77,"time":60.857082000000005,"velocity":0.3937007874015748},{"duration":0.2857139999999987,"midi":81,"time":60.857082000000005,"velocity":0.3937007874015748},{"duration":0.2857139999999987,"midi":72,"time":60.857082000000005,"velocity":0.3937007874015748},{"duration":0.2857139999999987,"midi":77,"time":60.857082000000005,"velocity":0.3937007874015748},{"duration":0.2857140000000058,"midi":81,"time":61.142796000000004,"velocity":0.3937007874015748},{"duration":0.2857140000000058,"midi":77,"time":61.142796000000004,"velocity":0.3937007874015748},{"duration":0.2857140000000058,"midi":72,"time":61.142796000000004,"velocity":0.3937007874015748},{"duration":0.2857140000000058,"midi":72,"time":61.142796000000004,"velocity":0.3937007874015748},{"duration":0.2857140000000058,"midi":81,"time":61.142796000000004,"velocity":0.3937007874015748},{"duration":0.2857140000000058,"midi":77,"time":61.142796000000004,"velocity":0.3937007874015748},{"duration":0.2857139999999916,"midi":77,"time":61.42851000000001,"velocity":0.3937007874015748},{"duration":0.2857139999999916,"midi":81,"time":61.42851000000001,"velocity":0.3937007874015748},{"duration":0.2857139999999916,"midi":72,"time":61.42851000000001,"velocity":0.3937007874015748},{"duration":0.2857139999999916,"midi":72,"time":61.42851000000001,"velocity":0.3937007874015748},{"duration":0.2857139999999916,"midi":81,"time":61.42851000000001,"velocity":0.3937007874015748},{"duration":0.2857139999999916,"midi":77,"time":61.42851000000001,"velocity":0.3937007874015748},{"duration":0.14285700000000645,"midi":81,"time":61.714224,"velocity":0.3937007874015748},{"duration":0.14285700000000645,"midi":77,"time":61.714224,"velocity":0.3937007874015748},{"duration":0.14285700000000645,"midi":72,"time":61.714224,"velocity":0.3937007874015748},{"duration":0.14285700000000645,"midi":81,"time":61.714224,"velocity":0.3937007874015748},{"duration":0.14285700000000645,"midi":72,"time":61.714224,"velocity":0.3937007874015748},{"duration":0.14285700000000645,"midi":77,"time":61.714224,"velocity":0.3937007874015748},{"duration":0.2857139999999987,"midi":72,"time":61.85708100000001,"velocity":0.3937007874015748},{"duration":0.2857139999999987,"midi":79,"time":61.85708100000001,"velocity":0.3937007874015748},{"duration":0.2857139999999987,"midi":79,"time":61.85708100000001,"velocity":0.3937007874015748},{"duration":0.2857139999999987,"midi":72,"time":61.85708100000001,"velocity":0.3937007874015748},{"duration":0.2857139999999987,"midi":76,"time":61.85708100000001,"velocity":0.3937007874015748},{"duration":0.2857139999999987,"midi":76,"time":61.85708100000001,"velocity":0.3937007874015748},{"duration":0.8571420000000032,"midi":74,"time":62.571366000000005,"velocity":0.3937007874015748},{"duration":0.8571420000000032,"midi":70,"time":62.571366000000005,"velocity":0.3937007874015748},{"duration":0.8571420000000032,"midi":79,"time":62.571366000000005,"velocity":0.3937007874015748},{"duration":0.8571420000000032,"midi":74,"time":62.571366000000005,"velocity":0.3937007874015748},{"duration":0.8571420000000032,"midi":70,"time":62.571366000000005,"velocity":0.3937007874015748},{"duration":0.8571420000000032,"midi":79,"time":62.571366000000005,"velocity":0.3937007874015748},{"duration":0.8571419999999961,"midi":74,"time":63.42850800000001,"velocity":0.3937007874015748},{"duration":0.8571419999999961,"midi":69,"time":63.42850800000001,"velocity":0.3937007874015748},{"duration":0.8571419999999961,"midi":77,"time":63.42850800000001,"velocity":0.3937007874015748},{"duration":0.8571419999999961,"midi":69,"time":63.42850800000001,"velocity":0.3937007874015748},{"duration":0.8571419999999961,"midi":74,"time":63.42850800000001,"velocity":0.3937007874015748},{"duration":0.8571419999999961,"midi":77,"time":63.42850800000001,"velocity":0.3937007874015748},{"duration":0.2857139999999987,"midi":73,"time":64.28565,"velocity":0.3937007874015748},{"duration":0.2857139999999987,"midi":76,"time":64.28565,"velocity":0.3937007874015748},{"duration":0.2857139999999987,"midi":73,"time":64.28565,"velocity":0.3937007874015748},{"duration":0.2857139999999987,"midi":69,"time":64.28565,"velocity":0.3937007874015748},{"duration":0.2857139999999987,"midi":76,"time":64.28565,"velocity":0.3937007874015748},{"duration":0.2857139999999987,"midi":69,"time":64.28565,"velocity":0.3937007874015748},{"duration":0.2857140000000129,"midi":77,"time":64.571364,"velocity":0.3937007874015748},{"duration":0.2857140000000129,"midi":73,"time":64.571364,"velocity":0.3937007874015748},{"duration":0.2857140000000129,"midi":77,"time":64.571364,"velocity":0.3937007874015748},{"duration":0.2857140000000129,"midi":69,"time":64.571364,"velocity":0.3937007874015748},{"duration":0.2857140000000129,"midi":73,"time":64.571364,"velocity":0.3937007874015748},{"duration":0.2857140000000129,"midi":69,"time":64.571364,"velocity":0.3937007874015748},{"duration":0.2857139999999845,"midi":69,"time":64.85707800000002,"velocity":0.3937007874015748},{"duration":0.2857139999999845,"midi":76,"time":64.85707800000002,"velocity":0.3937007874015748},{"duration":0.2857139999999845,"midi":73,"time":64.85707800000002,"velocity":0.3937007874015748},{"duration":0.2857139999999845,"midi":76,"time":64.85707800000002,"velocity":0.3937007874015748},{"duration":0.2857139999999845,"midi":73,"time":64.85707800000002,"velocity":0.3937007874015748},{"duration":0.2857139999999845,"midi":69,"time":64.85707800000002,"velocity":0.3937007874015748},{"duration":0.42857100000000514,"midi":69,"time":65.142792,"velocity":0.3937007874015748},{"duration":0.14285700000000645,"midi":76,"time":65.142792,"velocity":0.3937007874015748},{"duration":0.14285700000000645,"midi":76,"time":65.142792,"velocity":0.3937007874015748},{"duration":0.42857100000000514,"midi":69,"time":65.142792,"velocity":0.3937007874015748},{"duration":0.2857139999999987,"midi":74,"time":65.285649,"velocity":0.3937007874015748},{"duration":0.2857139999999987,"midi":74,"time":65.285649,"velocity":0.3937007874015748},{"duration":0.14285700000000645,"midi":62,"time":65.571363,"velocity":0.3937007874015748},{"duration":0.14285700000000645,"midi":74,"time":65.571363,"velocity":0.3937007874015748},{"duration":0.14285700000000645,"midi":62,"time":65.571363,"velocity":0.3937007874015748},{"duration":0.14285700000000645,"midi":74,"time":65.571363,"velocity":0.3937007874015748},{"duration":0.14285699999999224,"midi":64,"time":65.71422000000001,"velocity":0.3937007874015748},{"duration":0.14285699999999224,"midi":76,"time":65.71422000000001,"velocity":0.3937007874015748},{"duration":0.14285699999999224,"midi":76,"time":65.71422000000001,"velocity":0.3937007874015748},{"duration":0.14285699999999224,"midi":64,"time":65.71422000000001,"velocity":0.3937007874015748},{"duration":0.14285700000000645,"midi":77,"time":65.857077,"velocity":0.3937007874015748},{"duration":0.14285700000000645,"midi":65,"time":65.857077,"velocity":0.3937007874015748},{"duration":0.14285700000000645,"midi":65,"time":65.857077,"velocity":0.3937007874015748},{"duration":0.14285700000000645,"midi":77,"time":65.857077,"velocity":0.3937007874015748},{"duration":0.42857099999999093,"midi":69,"time":65.99993400000001,"velocity":0.3937007874015748},{"duration":0.42857099999999093,"midi":69,"time":65.99993400000001,"velocity":0.3937007874015748},{"duration":0.42857099999999093,"midi":77,"time":65.99993400000001,"velocity":0.3937007874015748},{"duration":0.42857099999999093,"midi":74,"time":65.99993400000001,"velocity":0.3937007874015748},{"duration":0.42857099999999093,"midi":81,"time":65.99993400000001,"velocity":0.3937007874015748},{"duration":0.42857099999999093,"midi":74,"time":65.99993400000001,"velocity":0.3937007874015748},{"duration":0.42857099999999093,"midi":77,"time":65.99993400000001,"velocity":0.3937007874015748},{"duration":0.42857099999999093,"midi":81,"time":65.99993400000001,"velocity":0.3937007874015748},{"duration":0.14285700000000645,"midi":62,"time":66.428505,"velocity":0.3937007874015748},{"duration":0.14285700000000645,"midi":74,"time":66.428505,"velocity":0.3937007874015748},{"duration":0.14285700000000645,"midi":62,"time":66.428505,"velocity":0.3937007874015748},{"duration":0.14285700000000645,"midi":74,"time":66.428505,"velocity":0.3937007874015748},{"duration":0.14285699999999224,"midi":76,"time":66.57136200000001,"velocity":0.3937007874015748},{"duration":0.14285699999999224,"midi":64,"time":66.57136200000001,"velocity":0.3937007874015748},{"duration":0.14285699999999224,"midi":64,"time":66.57136200000001,"velocity":0.3937007874015748},{"duration":0.14285699999999224,"midi":76,"time":66.57136200000001,"velocity":0.3937007874015748},{"duration":0.14285700000000645,"midi":65,"time":66.714219,"velocity":0.3937007874015748},{"duration":0.14285700000000645,"midi":77,"time":66.714219,"velocity":0.3937007874015748},{"duration":0.14285700000000645,"midi":77,"time":66.714219,"velocity":0.3937007874015748},{"duration":0.14285700000000645,"midi":65,"time":66.714219,"velocity":0.3937007874015748},{"duration":0.42857100000000514,"midi":77,"time":66.857076,"velocity":0.3937007874015748},{"duration":0.42857100000000514,"midi":70,"time":66.857076,"velocity":0.3937007874015748},{"duration":0.42857100000000514,"midi":74,"time":66.857076,"velocity":0.3937007874015748},{"duration":0.42857100000000514,"midi":82,"time":66.857076,"velocity":0.3937007874015748},{"duration":0.42857100000000514,"midi":70,"time":66.857076,"velocity":0.3937007874015748},{"duration":0.42857100000000514,"midi":82,"time":66.857076,"velocity":0.3937007874015748},{"duration":0.42857100000000514,"midi":74,"time":66.857076,"velocity":0.3937007874015748},{"duration":0.42857100000000514,"midi":77,"time":66.857076,"velocity":0.3937007874015748},{"duration":0.14285699999999224,"midi":74,"time":67.28564700000001,"velocity":0.3937007874015748},{"duration":0.14285699999999224,"midi":74,"time":67.28564700000001,"velocity":0.3937007874015748},{"duration":0.14285699999999224,"midi":62,"time":67.28564700000001,"velocity":0.3937007874015748},{"duration":0.14285699999999224,"midi":62,"time":67.28564700000001,"velocity":0.3937007874015748},{"duration":0.14285699999999224,"midi":64,"time":67.428504,"velocity":0.3937007874015748},{"duration":0.14285699999999224,"midi":64,"time":67.428504,"velocity":0.3937007874015748},{"duration":0.14285699999999224,"midi":76,"time":67.428504,"velocity":0.3937007874015748},{"duration":0.14285699999999224,"midi":76,"time":67.428504,"velocity":0.3937007874015748},{"duration":0.14285700000000645,"midi":65,"time":67.571361,"velocity":0.3937007874015748},{"duration":0.14285700000000645,"midi":77,"time":67.571361,"velocity":0.3937007874015748},{"duration":0.14285700000000645,"midi":65,"time":67.571361,"velocity":0.3937007874015748},{"duration":0.14285700000000645,"midi":77,"time":67.571361,"velocity":0.3937007874015748},{"duration":0.2857139999999987,"midi":81,"time":67.714218,"velocity":0.3937007874015748},{"duration":0.2857139999999987,"midi":69,"time":67.714218,"velocity":0.3937007874015748},{"duration":0.2857139999999987,"midi":72,"time":67.714218,"velocity":0.3937007874015748},{"duration":0.2857139999999987,"midi":81,"time":67.714218,"velocity":0.3937007874015748},{"duration":0.2857139999999987,"midi":69,"time":67.714218,"velocity":0.3937007874015748},{"duration":0.2857139999999987,"midi":77,"time":67.714218,"velocity":0.3937007874015748},{"duration":0.2857139999999987,"midi":77,"time":67.714218,"velocity":0.3937007874015748},{"duration":0.2857139999999987,"midi":72,"time":67.714218,"velocity":0.3937007874015748},{"duration":0.2857140000000129,"midi":69,"time":67.999932,"velocity":0.3937007874015748},{"duration":0.2857140000000129,"midi":77,"time":67.999932,"velocity":0.3937007874015748},{"duration":0.2857140000000129,"midi":77,"time":67.999932,"velocity":0.3937007874015748},{"duration":0.2857140000000129,"midi":72,"time":67.999932,"velocity":0.3937007874015748},{"duration":0.2857140000000129,"midi":81,"time":67.999932,"velocity":0.3937007874015748},{"duration":0.2857140000000129,"midi":69,"time":67.999932,"velocity":0.3937007874015748},{"duration":0.2857140000000129,"midi":81,"time":67.999932,"velocity":0.3937007874015748},{"duration":0.2857140000000129,"midi":72,"time":67.999932,"velocity":0.3937007874015748},{"duration":0.2857139999999845,"midi":77,"time":68.28564600000001,"velocity":0.3937007874015748},{"duration":0.2857139999999845,"midi":84,"time":68.28564600000001,"velocity":0.3937007874015748},{"duration":0.2857139999999845,"midi":81,"time":68.28564600000001,"velocity":0.3937007874015748},{"duration":0.2857139999999845,"midi":84,"time":68.28564600000001,"velocity":0.3937007874015748},{"duration":0.2857139999999845,"midi":77,"time":68.28564600000001,"velocity":0.3937007874015748},{"duration":0.2857139999999845,"midi":72,"time":68.28564600000001,"velocity":0.3937007874015748},{"duration":0.2857139999999845,"midi":72,"time":68.28564600000001,"velocity":0.3937007874015748},{"duration":0.2857139999999845,"midi":81,"time":68.28564600000001,"velocity":0.3937007874015748},{"duration":0.14285700000000645,"midi":72,"time":68.57136,"velocity":0.3937007874015748},{"duration":0.14285700000000645,"midi":81,"time":68.57136,"velocity":0.3937007874015748},{"duration":0.14285700000000645,"midi":81,"time":68.57136,"velocity":0.3937007874015748},{"duration":0.14285700000000645,"midi":69,"time":68.57136,"velocity":0.3937007874015748},{"duration":0.14285700000000645,"midi":69,"time":68.57136,"velocity":0.3937007874015748},{"duration":0.14285700000000645,"midi":77,"time":68.57136,"velocity":0.3937007874015748},{"duration":0.14285700000000645,"midi":77,"time":68.57136,"velocity":0.3937007874015748},{"duration":0.14285700000000645,"midi":72,"time":68.57136,"velocity":0.3937007874015748},{"duration":0.14285699999999224,"midi":79,"time":68.714217,"velocity":0.3937007874015748},{"duration":0.14285699999999224,"midi":67,"time":68.714217,"velocity":0.3937007874015748},{"duration":0.14285699999999224,"midi":67,"time":68.714217,"velocity":0.3937007874015748},{"duration":0.14285699999999224,"midi":79,"time":68.714217,"velocity":0.3937007874015748},{"duration":0.8571419999999961,"midi":70,"time":69.42850200000001,"velocity":0.3937007874015748},{"duration":0.8571419999999961,"midi":79,"time":69.42850200000001,"velocity":0.3937007874015748},{"duration":0.8571419999999961,"midi":67,"time":69.42850200000001,"velocity":0.3937007874015748},{"duration":0.8571419999999961,"midi":79,"time":69.42850200000001,"velocity":0.3937007874015748},{"duration":0.8571419999999961,"midi":67,"time":69.42850200000001,"velocity":0.3937007874015748},{"duration":0.8571419999999961,"midi":74,"time":69.42850200000001,"velocity":0.3937007874015748},{"duration":0.8571419999999961,"midi":74,"time":69.42850200000001,"velocity":0.3937007874015748},{"duration":0.8571419999999961,"midi":70,"time":69.42850200000001,"velocity":0.3937007874015748},{"duration":0.8571419999999961,"midi":65,"time":70.285644,"velocity":0.3937007874015748},{"duration":0.8571419999999961,"midi":65,"time":70.285644,"velocity":0.3937007874015748},{"duration":0.8571419999999961,"midi":69,"time":70.285644,"velocity":0.3937007874015748},{"duration":0.8571419999999961,"midi":74,"time":70.285644,"velocity":0.3937007874015748},{"duration":0.8571419999999961,"midi":69,"time":70.285644,"velocity":0.3937007874015748},{"duration":0.8571419999999961,"midi":77,"time":70.285644,"velocity":0.3937007874015748},{"duration":0.8571419999999961,"midi":74,"time":70.285644,"velocity":0.3937007874015748},{"duration":0.8571419999999961,"midi":77,"time":70.285644,"velocity":0.3937007874015748},{"duration":0.2857139999999987,"midi":64,"time":71.142786,"velocity":0.3937007874015748},{"duration":0.2857139999999987,"midi":64,"time":71.142786,"velocity":0.3937007874015748},{"duration":0.2857139999999987,"midi":69,"time":71.142786,"velocity":0.3937007874015748},{"duration":0.2857139999999987,"midi":76,"time":71.142786,"velocity":0.3937007874015748},{"duration":0.2857139999999987,"midi":73,"time":71.142786,"velocity":0.3937007874015748},{"duration":0.2857139999999987,"midi":69,"time":71.142786,"velocity":0.3937007874015748},{"duration":0.2857139999999987,"midi":73,"time":71.142786,"velocity":0.3937007874015748},{"duration":0.2857139999999987,"midi":76,"time":71.142786,"velocity":0.3937007874015748},{"duration":0.2857140000000129,"midi":77,"time":71.4285,"velocity":0.3937007874015748},{"duration":0.2857140000000129,"midi":65,"time":71.4285,"velocity":0.3937007874015748},{"duration":0.2857140000000129,"midi":77,"time":71.4285,"velocity":0.3937007874015748},{"duration":0.2857140000000129,"midi":69,"time":71.4285,"velocity":0.3937007874015748},{"duration":0.2857140000000129,"midi":73,"time":71.4285,"velocity":0.3937007874015748},{"duration":0.2857140000000129,"midi":69,"time":71.4285,"velocity":0.3937007874015748},{"duration":0.2857140000000129,"midi":73,"time":71.4285,"velocity":0.3937007874015748},{"duration":0.2857140000000129,"midi":65,"time":71.4285,"velocity":0.3937007874015748},{"duration":0.2857139999999987,"midi":64,"time":71.71421400000001,"velocity":0.3937007874015748},{"duration":0.2857139999999987,"midi":76,"time":71.71421400000001,"velocity":0.3937007874015748},{"duration":0.2857139999999987,"midi":73,"time":71.71421400000001,"velocity":0.3937007874015748},{"duration":0.2857139999999987,"midi":69,"time":71.71421400000001,"velocity":0.3937007874015748},{"duration":0.2857139999999987,"midi":64,"time":71.71421400000001,"velocity":0.3937007874015748},{"duration":0.2857139999999987,"midi":73,"time":71.71421400000001,"velocity":0.3937007874015748},{"duration":0.2857139999999987,"midi":76,"time":71.71421400000001,"velocity":0.3937007874015748},{"duration":0.2857139999999987,"midi":69,"time":71.71421400000001,"velocity":0.3937007874015748},{"duration":0.42857099999999093,"midi":65,"time":71.99992800000001,"velocity":0.3937007874015748},{"duration":0.42857099999999093,"midi":65,"time":71.99992800000001,"velocity":0.3937007874015748},{"duration":0.42857099999999093,"midi":74,"time":71.99992800000001,"velocity":0.3937007874015748},{"duration":0.42857099999999093,"midi":74,"time":71.99992800000001,"velocity":0.3937007874015748},{"duration":0.42857099999999093,"midi":62,"time":71.99992800000001,"velocity":0.3937007874015748},{"duration":0.42857099999999093,"midi":69,"time":71.99992800000001,"velocity":0.3937007874015748},{"duration":0.42857099999999093,"midi":62,"time":71.99992800000001,"velocity":0.3937007874015748},{"duration":0.42857099999999093,"midi":69,"time":71.99992800000001,"velocity":0.3937007874015748},{"duration":0.14285699999999224,"midi":57,"time":72.57135600000001,"velocity":0.3937007874015748},{"duration":0.14285699999999224,"midi":57,"time":72.57135600000001,"velocity":0.3937007874015748},{"duration":0.14285700000000645,"midi":60,"time":72.714213,"velocity":0.3937007874015748},{"duration":0.14285700000000645,"midi":60,"time":72.714213,"velocity":0.3937007874015748},{"duration":0.14285700000000645,"midi":53,"time":72.85707000000001,"velocity":0.3937007874015748},{"duration":0.14285700000000645,"midi":62,"time":72.85707000000001,"velocity":0.3937007874015748},{"duration":0.14285700000000645,"midi":53,"time":72.85707000000001,"velocity":0.3937007874015748},{"duration":0.14285700000000645,"midi":57,"time":72.85707000000001,"velocity":0.3937007874015748},{"duration":0.14285700000000645,"midi":62,"time":72.85707000000001,"velocity":0.3937007874015748},{"duration":0.14285700000000645,"midi":57,"time":72.85707000000001,"velocity":0.3937007874015748},{"duration":0.14285700000000645,"midi":53,"time":73.142784,"velocity":0.3937007874015748},{"duration":0.14285700000000645,"midi":57,"time":73.142784,"velocity":0.3937007874015748},{"duration":0.14285700000000645,"midi":62,"time":73.142784,"velocity":0.3937007874015748},{"duration":0.14285700000000645,"midi":62,"time":73.142784,"velocity":0.3937007874015748},{"duration":0.14285700000000645,"midi":57,"time":73.142784,"velocity":0.3937007874015748},{"duration":0.14285700000000645,"midi":53,"time":73.142784,"velocity":0.3937007874015748},{"duration":0.14285699999999224,"midi":62,"time":73.428498,"velocity":0.3937007874015748},{"duration":0.14285699999999224,"midi":57,"time":73.428498,"velocity":0.3937007874015748},{"duration":0.14285699999999224,"midi":57,"time":73.428498,"velocity":0.3937007874015748},{"duration":0.14285699999999224,"midi":53,"time":73.428498,"velocity":0.3937007874015748},{"duration":0.14285699999999224,"midi":62,"time":73.428498,"velocity":0.3937007874015748},{"duration":0.14285699999999224,"midi":53,"time":73.428498,"velocity":0.3937007874015748},{"duration":0.14285700000000645,"midi":64,"time":73.571355,"velocity":0.3937007874015748},{"duration":0.14285700000000645,"midi":64,"time":73.571355,"velocity":0.3937007874015748},{"duration":0.14285700000000645,"midi":62,"time":73.714212,"velocity":0.3937007874015748},{"duration":0.14285700000000645,"midi":58,"time":73.714212,"velocity":0.3937007874015748},{"duration":0.14285700000000645,"midi":65,"time":73.714212,"velocity":0.3937007874015748},{"duration":0.14285700000000645,"midi":58,"time":73.714212,"velocity":0.3937007874015748},{"duration":0.14285700000000645,"midi":65,"time":73.714212,"velocity":0.3937007874015748},{"duration":0.14285700000000645,"midi":62,"time":73.714212,"velocity":0.3937007874015748},{"duration":0.14285700000000645,"midi":65,"time":73.999926,"velocity":0.3937007874015748},{"duration":0.14285700000000645,"midi":65,"time":73.999926,"velocity":0.3937007874015748},{"duration":0.14285700000000645,"midi":58,"time":73.999926,"velocity":0.3937007874015748},{"duration":0.14285700000000645,"midi":62,"time":73.999926,"velocity":0.3937007874015748},{"duration":0.14285700000000645,"midi":62,"time":73.999926,"velocity":0.3937007874015748},{"duration":0.14285700000000645,"midi":58,"time":73.999926,"velocity":0.3937007874015748},{"duration":0.14285699999999224,"midi":62,"time":74.28564000000001,"velocity":0.3937007874015748},{"duration":0.14285699999999224,"midi":65,"time":74.28564000000001,"velocity":0.3937007874015748},{"duration":0.14285699999999224,"midi":62,"time":74.28564000000001,"velocity":0.3937007874015748},{"duration":0.14285699999999224,"midi":58,"time":74.28564000000001,"velocity":0.3937007874015748},{"duration":0.14285699999999224,"midi":58,"time":74.28564000000001,"velocity":0.3937007874015748},{"duration":0.14285699999999224,"midi":65,"time":74.28564000000001,"velocity":0.3937007874015748},{"duration":0.14285699999999224,"midi":67,"time":74.42849700000001,"velocity":0.3937007874015748},{"duration":0.14285699999999224,"midi":67,"time":74.42849700000001,"velocity":0.3937007874015748},{"duration":0.14285700000000645,"midi":64,"time":74.571354,"velocity":0.3937007874015748},{"duration":0.14285700000000645,"midi":60,"time":74.571354,"velocity":0.3937007874015748},{"duration":0.14285700000000645,"midi":57,"time":74.571354,"velocity":0.3937007874015748},{"duration":0.14285700000000645,"midi":64,"time":74.571354,"velocity":0.3937007874015748},{"duration":0.14285700000000645,"midi":57,"time":74.571354,"velocity":0.3937007874015748},{"duration":0.14285700000000645,"midi":60,"time":74.571354,"velocity":0.3937007874015748},{"duration":0.14285700000000645,"midi":60,"time":74.857068,"velocity":0.3937007874015748},{"duration":0.14285700000000645,"midi":57,"time":74.857068,"velocity":0.3937007874015748},{"duration":0.14285700000000645,"midi":57,"time":74.857068,"velocity":0.3937007874015748},{"duration":0.14285700000000645,"midi":60,"time":74.857068,"velocity":0.3937007874015748},{"duration":0.14285700000000645,"midi":64,"time":74.857068,"velocity":0.3937007874015748},{"duration":0.14285700000000645,"midi":64,"time":74.857068,"velocity":0.3937007874015748},{"duration":0.14285699999999224,"midi":62,"time":75.14278200000001,"velocity":0.3937007874015748},{"duration":0.14285699999999224,"midi":62,"time":75.14278200000001,"velocity":0.3937007874015748},{"duration":0.14285699999999224,"midi":57,"time":75.14278200000001,"velocity":0.3937007874015748},{"duration":0.14285699999999224,"midi":57,"time":75.14278200000001,"velocity":0.3937007874015748},{"duration":0.14285700000000645,"midi":60,"time":75.285639,"velocity":0.3937007874015748},{"duration":0.14285700000000645,"midi":60,"time":75.285639,"velocity":0.3937007874015748},{"duration":0.14285700000000645,"midi":60,"time":75.42849600000001,"velocity":0.3937007874015748},{"duration":0.14285700000000645,"midi":53,"time":75.42849600000001,"velocity":0.3937007874015748},{"duration":0.14285700000000645,"midi":53,"time":75.42849600000001,"velocity":0.3937007874015748},{"duration":0.14285700000000645,"midi":60,"time":75.42849600000001,"velocity":0.3937007874015748},{"duration":0.42857099999999093,"midi":57,"time":75.57135300000002,"velocity":0.3937007874015748},{"duration":0.42857099999999093,"midi":62,"time":75.57135300000002,"velocity":0.3937007874015748},{"duration":0.42857099999999093,"midi":62,"time":75.57135300000002,"velocity":0.3937007874015748},{"duration":0.42857099999999093,"midi":57,"time":75.57135300000002,"velocity":0.3937007874015748},{"duration":0.42857099999999093,"midi":53,"time":75.57135300000002,"velocity":0.3937007874015748},{"duration":0.42857099999999093,"midi":53,"time":75.57135300000002,"velocity":0.3937007874015748},{"duration":0.14285699999999224,"midi":57,"time":75.99992400000001,"velocity":0.3937007874015748},{"duration":0.14285699999999224,"midi":57,"time":75.99992400000001,"velocity":0.3937007874015748},{"duration":0.14285700000000645,"midi":60,"time":76.142781,"velocity":0.3937007874015748},{"duration":0.14285700000000645,"midi":60,"time":76.142781,"velocity":0.3937007874015748},{"duration":0.14285700000000645,"midi":62,"time":76.285638,"velocity":0.3937007874015748},{"duration":0.14285700000000645,"midi":53,"time":76.285638,"velocity":0.3937007874015748},{"duration":0.14285700000000645,"midi":53,"time":76.285638,"velocity":0.3937007874015748},{"duration":0.14285700000000645,"midi":62,"time":76.285638,"velocity":0.3937007874015748},{"duration":0.14285700000000645,"midi":58,"time":76.285638,"velocity":0.3937007874015748},{"duration":0.14285700000000645,"midi":58,"time":76.285638,"velocity":0.3937007874015748},{"duration":0.14285700000000645,"midi":62,"time":76.571352,"velocity":0.3937007874015748},{"duration":0.14285700000000645,"midi":58,"time":76.571352,"velocity":0.3937007874015748},{"duration":0.14285700000000645,"midi":62,"time":76.571352,"velocity":0.3937007874015748},{"duration":0.14285700000000645,"midi":53,"time":76.571352,"velocity":0.3937007874015748},{"duration":0.14285700000000645,"midi":53,"time":76.571352,"velocity":0.3937007874015748},{"duration":0.14285700000000645,"midi":58,"time":76.571352,"velocity":0.3937007874015748},{"duration":0.14285699999997803,"midi":58,"time":76.85706600000002,"velocity":0.3937007874015748},{"duration":0.14285699999997803,"midi":53,"time":76.85706600000002,"velocity":0.3937007874015748},{"duration":0.14285699999997803,"midi":58,"time":76.85706600000002,"velocity":0.3937007874015748},{"duration":0.14285699999997803,"midi":62,"time":76.85706600000002,"velocity":0.3937007874015748},{"duration":0.14285699999997803,"midi":62,"time":76.85706600000002,"velocity":0.3937007874015748},{"duration":0.14285699999997803,"midi":53,"time":76.85706600000002,"velocity":0.3937007874015748},{"duration":0.14285700000000645,"midi":64,"time":76.999923,"velocity":0.3937007874015748},{"duration":0.14285700000000645,"midi":64,"time":76.999923,"velocity":0.3937007874015748},{"duration":0.14285700000000645,"midi":65,"time":77.14278,"velocity":0.3937007874015748},{"duration":0.14285700000000645,"midi":65,"time":77.14278,"velocity":0.3937007874015748},{"duration":0.14285700000000645,"midi":60,"time":77.14278,"velocity":0.3937007874015748},{"duration":0.14285700000000645,"midi":57,"time":77.14278,"velocity":0.3937007874015748},{"duration":0.14285700000000645,"midi":57,"time":77.14278,"velocity":0.3937007874015748},{"duration":0.14285700000000645,"midi":60,"time":77.14278,"velocity":0.3937007874015748},{"duration":0.14285700000000645,"midi":57,"time":77.428494,"velocity":0.3937007874015748},{"duration":0.14285700000000645,"midi":60,"time":77.428494,"velocity":0.3937007874015748},{"duration":0.14285700000000645,"midi":65,"time":77.428494,"velocity":0.3937007874015748},{"duration":0.14285700000000645,"midi":57,"time":77.428494,"velocity":0.3937007874015748},{"duration":0.14285700000000645,"midi":65,"time":77.428494,"velocity":0.3937007874015748},{"duration":0.14285700000000645,"midi":60,"time":77.428494,"velocity":0.3937007874015748},{"duration":0.14285699999999224,"midi":65,"time":77.71420800000001,"velocity":0.3937007874015748},{"duration":0.14285699999999224,"midi":57,"time":77.71420800000001,"velocity":0.3937007874015748},{"duration":0.14285699999999224,"midi":60,"time":77.71420800000001,"velocity":0.3937007874015748},{"duration":0.14285699999999224,"midi":65,"time":77.71420800000001,"velocity":0.3937007874015748},{"duration":0.14285699999999224,"midi":57,"time":77.71420800000001,"velocity":0.3937007874015748},{"duration":0.14285699999999224,"midi":60,"time":77.71420800000001,"velocity":0.3937007874015748},{"duration":0.14285700000000645,"midi":67,"time":77.857065,"velocity":0.3937007874015748},{"duration":0.14285700000000645,"midi":67,"time":77.857065,"velocity":0.3937007874015748},{"duration":0.14285699999999224,"midi":60,"time":77.99992200000001,"velocity":0.3937007874015748},{"duration":0.14285699999999224,"midi":64,"time":77.99992200000001,"velocity":0.3937007874015748},{"duration":0.14285699999999224,"midi":60,"time":77.99992200000001,"velocity":0.3937007874015748},{"duration":0.14285699999999224,"midi":64,"time":77.99992200000001,"velocity":0.3937007874015748},{"duration":0.14285699999999224,"midi":57,"time":77.99992200000001,"velocity":0.3937007874015748},{"duration":0.14285699999999224,"midi":57,"time":77.99992200000001,"velocity":0.3937007874015748},{"duration":0.14285700000000645,"midi":57,"time":78.285636,"velocity":0.3937007874015748},{"duration":0.14285700000000645,"midi":57,"time":78.285636,"velocity":0.3937007874015748},{"duration":0.14285700000000645,"midi":60,"time":78.285636,"velocity":0.3937007874015748},{"duration":0.14285700000000645,"midi":64,"time":78.285636,"velocity":0.3937007874015748},{"duration":0.14285700000000645,"midi":60,"time":78.285636,"velocity":0.3937007874015748},{"duration":0.14285700000000645,"midi":64,"time":78.285636,"velocity":0.3937007874015748},{"duration":0.14285699999999224,"midi":62,"time":78.57135000000001,"velocity":0.3937007874015748},{"duration":0.14285699999999224,"midi":62,"time":78.57135000000001,"velocity":0.3937007874015748},{"duration":0.14285699999999224,"midi":57,"time":78.57135000000001,"velocity":0.3937007874015748},{"duration":0.14285699999999224,"midi":57,"time":78.57135000000001,"velocity":0.3937007874015748},{"duration":0.14285700000000645,"midi":60,"time":78.714207,"velocity":0.3937007874015748},{"duration":0.14285700000000645,"midi":60,"time":78.714207,"velocity":0.3937007874015748},{"duration":0.42857100000000514,"midi":62,"time":78.85706400000001,"velocity":0.3937007874015748},{"duration":0.42857100000000514,"midi":53,"time":78.85706400000001,"velocity":0.3937007874015748},{"duration":0.42857100000000514,"midi":53,"time":78.85706400000001,"velocity":0.3937007874015748},{"duration":0.42857100000000514,"midi":57,"time":78.85706400000001,"velocity":0.3937007874015748},{"duration":0.42857100000000514,"midi":62,"time":78.85706400000001,"velocity":0.3937007874015748},{"duration":0.42857100000000514,"midi":57,"time":78.85706400000001,"velocity":0.3937007874015748},{"duration":0.14285699999999224,"midi":57,"time":79.428492,"velocity":0.3937007874015748},{"duration":0.14285699999999224,"midi":57,"time":79.428492,"velocity":0.3937007874015748},{"duration":0.14285700000000645,"midi":60,"time":79.571349,"velocity":0.3937007874015748},{"duration":0.14285700000000645,"midi":60,"time":79.571349,"velocity":0.3937007874015748},{"duration":0.14285700000000645,"midi":57,"time":79.714206,"velocity":0.3937007874015748},{"duration":0.14285700000000645,"midi":62,"time":79.714206,"velocity":0.3937007874015748},{"duration":0.14285700000000645,"midi":53,"time":79.714206,"velocity":0.3937007874015748},{"duration":0.14285700000000645,"midi":53,"time":79.714206,"velocity":0.3937007874015748},{"duration":0.14285700000000645,"midi":57,"time":79.714206,"velocity":0.3937007874015748},{"duration":0.14285700000000645,"midi":62,"time":79.714206,"velocity":0.3937007874015748},{"duration":0.14285700000000645,"midi":57,"time":79.99992,"velocity":0.3937007874015748},{"duration":0.14285700000000645,"midi":53,"time":79.99992,"velocity":0.3937007874015748},{"duration":0.14285700000000645,"midi":57,"time":79.99992,"velocity":0.3937007874015748},{"duration":0.14285700000000645,"midi":62,"time":79.99992,"velocity":0.3937007874015748},{"duration":0.14285700000000645,"midi":53,"time":79.99992,"velocity":0.3937007874015748},{"duration":0.14285700000000645,"midi":62,"time":79.99992,"velocity":0.3937007874015748},{"duration":0.14285699999999224,"midi":53,"time":80.28563400000002,"velocity":0.3937007874015748},{"duration":0.14285699999999224,"midi":62,"time":80.28563400000002,"velocity":0.3937007874015748},{"duration":0.14285699999999224,"midi":62,"time":80.28563400000002,"velocity":0.3937007874015748},{"duration":0.14285699999999224,"midi":53,"time":80.28563400000002,"velocity":0.3937007874015748},{"duration":0.14285699999999224,"midi":53,"time":80.42849100000001,"velocity":0.3937007874015748},{"duration":0.14285699999999224,"midi":53,"time":80.42849100000001,"velocity":0.3937007874015748},{"duration":0.14285699999999224,"midi":65,"time":80.42849100000001,"velocity":0.3937007874015748},{"duration":0.14285699999999224,"midi":65,"time":80.42849100000001,"velocity":0.3937007874015748},{"duration":0.14285700000000645,"midi":62,"time":80.571348,"velocity":0.3937007874015748},{"duration":0.14285700000000645,"midi":62,"time":80.571348,"velocity":0.3937007874015748},{"duration":0.14285700000000645,"midi":67,"time":80.571348,"velocity":0.3937007874015748},{"duration":0.14285700000000645,"midi":58,"time":80.571348,"velocity":0.3937007874015748},{"duration":0.14285700000000645,"midi":58,"time":80.571348,"velocity":0.3937007874015748},{"duration":0.14285700000000645,"midi":67,"time":80.571348,"velocity":0.3937007874015748},{"duration":0.14285700000000645,"midi":58,"time":80.857062,"velocity":0.3937007874015748},{"duration":0.14285700000000645,"midi":62,"time":80.857062,"velocity":0.3937007874015748},{"duration":0.14285700000000645,"midi":58,"time":80.857062,"velocity":0.3937007874015748},{"duration":0.14285700000000645,"midi":67,"time":80.857062,"velocity":0.3937007874015748},{"duration":0.14285700000000645,"midi":67,"time":80.857062,"velocity":0.3937007874015748},{"duration":0.14285700000000645,"midi":62,"time":80.857062,"velocity":0.3937007874015748},{"duration":0.14285699999999224,"midi":67,"time":81.14277600000001,"velocity":0.3937007874015748},{"duration":0.14285699999999224,"midi":67,"time":81.14277600000001,"velocity":0.3937007874015748},{"duration":0.14285699999999224,"midi":62,"time":81.14277600000001,"velocity":0.3937007874015748},{"duration":0.14285699999999224,"midi":62,"time":81.14277600000001,"velocity":0.3937007874015748},{"duration":0.14285699999999224,"midi":58,"time":81.14277600000001,"velocity":0.3937007874015748},{"duration":0.14285699999999224,"midi":58,"time":81.14277600000001,"velocity":0.3937007874015748},{"duration":0.14285700000000645,"midi":69,"time":81.285633,"velocity":0.3937007874015748},{"duration":0.14285700000000645,"midi":69,"time":81.285633,"velocity":0.3937007874015748},{"duration":0.14285700000000645,"midi":67,"time":81.42849000000001,"velocity":0.3937007874015748},{"duration":0.14285700000000645,"midi":62,"time":81.42849000000001,"velocity":0.3937007874015748},{"duration":0.14285700000000645,"midi":62,"time":81.42849000000001,"velocity":0.3937007874015748},{"duration":0.14285700000000645,"midi":70,"time":81.42849000000001,"velocity":0.3937007874015748},{"duration":0.14285700000000645,"midi":70,"time":81.42849000000001,"velocity":0.3937007874015748},{"duration":0.14285700000000645,"midi":67,"time":81.42849000000001,"velocity":0.3937007874015748},{"duration":0.14285699999999224,"midi":62,"time":81.71420400000001,"velocity":0.3937007874015748},{"duration":0.14285699999999224,"midi":67,"time":81.71420400000001,"velocity":0.3937007874015748},{"duration":0.14285699999999224,"midi":62,"time":81.71420400000001,"velocity":0.3937007874015748},{"duration":0.14285699999999224,"midi":70,"time":81.71420400000001,"velocity":0.3937007874015748},{"duration":0.14285699999999224,"midi":67,"time":81.71420400000001,"velocity":0.3937007874015748},{"duration":0.14285699999999224,"midi":70,"time":81.71420400000001,"velocity":0.3937007874015748},{"duration":0.14285699999999224,"midi":62,"time":81.99991800000001,"velocity":0.3937007874015748},{"duration":0.14285699999999224,"midi":69,"time":81.99991800000001,"velocity":0.3937007874015748},{"duration":0.14285699999999224,"midi":62,"time":81.99991800000001,"velocity":0.3937007874015748},{"duration":0.14285699999999224,"midi":69,"time":81.99991800000001,"velocity":0.3937007874015748},{"duration":0.14285700000000645,"midi":67,"time":82.142775,"velocity":0.3937007874015748},{"duration":0.14285700000000645,"midi":67,"time":82.142775,"velocity":0.3937007874015748},{"duration":0.14285700000000645,"midi":62,"time":82.285632,"velocity":0.3937007874015748},{"duration":0.14285700000000645,"midi":62,"time":82.285632,"velocity":0.3937007874015748},{"duration":0.14285700000000645,"midi":69,"time":82.285632,"velocity":0.3937007874015748},{"duration":0.14285700000000645,"midi":69,"time":82.285632,"velocity":0.3937007874015748},{"duration":0.42857099999999093,"midi":62,"time":82.42848900000001,"velocity":0.3937007874015748},{"duration":0.42857099999999093,"midi":57,"time":82.42848900000001,"velocity":0.3937007874015748},{"duration":0.42857099999999093,"midi":53,"time":82.42848900000001,"velocity":0.3937007874015748},{"duration":0.42857099999999093,"midi":57,"time":82.42848900000001,"velocity":0.3937007874015748},{"duration":0.42857099999999093,"midi":62,"time":82.42848900000001,"velocity":0.3937007874015748},{"duration":0.42857099999999093,"midi":53,"time":82.42848900000001,"velocity":0.3937007874015748},{"duration":0.14285699999999224,"midi":62,"time":82.85706,"velocity":0.3937007874015748},{"duration":0.14285699999999224,"midi":62,"time":82.85706,"velocity":0.3937007874015748},{"duration":0.14285700000000645,"midi":64,"time":82.999917,"velocity":0.3937007874015748},{"duration":0.14285700000000645,"midi":64,"time":82.999917,"velocity":0.3937007874015748},{"duration":0.14285700000000645,"midi":58,"time":83.142774,"velocity":0.3937007874015748},{"duration":0.14285700000000645,"midi":62,"time":83.142774,"velocity":0.3937007874015748},{"duration":0.14285700000000645,"midi":62,"time":83.142774,"velocity":0.3937007874015748},{"duration":0.14285700000000645,"midi":65,"time":83.142774,"velocity":0.3937007874015748},{"duration":0.14285700000000645,"midi":58,"time":83.142774,"velocity":0.3937007874015748},{"duration":0.14285700000000645,"midi":65,"time":83.142774,"velocity":0.3937007874015748},{"duration":0.14285700000000645,"midi":62,"time":83.428488,"velocity":0.3937007874015748},{"duration":0.14285700000000645,"midi":58,"time":83.428488,"velocity":0.3937007874015748},{"duration":0.14285700000000645,"midi":65,"time":83.428488,"velocity":0.3937007874015748},{"duration":0.14285700000000645,"midi":65,"time":83.428488,"velocity":0.3937007874015748},{"duration":0.14285700000000645,"midi":58,"time":83.428488,"velocity":0.3937007874015748},{"duration":0.14285700000000645,"midi":62,"time":83.428488,"velocity":0.3937007874015748},{"duration":0.14285699999999224,"midi":58,"time":83.71420200000001,"velocity":0.3937007874015748},{"duration":0.14285699999999224,"midi":62,"time":83.71420200000001,"velocity":0.3937007874015748},{"duration":0.14285699999999224,"midi":67,"time":83.71420200000001,"velocity":0.3937007874015748},{"duration":0.14285699999999224,"midi":67,"time":83.71420200000001,"velocity":0.3937007874015748},{"duration":0.14285699999999224,"midi":58,"time":83.71420200000001,"velocity":0.3937007874015748},{"duration":0.14285699999999224,"midi":62,"time":83.71420200000001,"velocity":0.3937007874015748},{"duration":0.14285699999999224,"midi":65,"time":83.99991600000001,"velocity":0.3937007874015748},{"duration":0.14285699999999224,"midi":62,"time":83.99991600000001,"velocity":0.3937007874015748},{"duration":0.14285699999999224,"midi":62,"time":83.99991600000001,"velocity":0.3937007874015748},{"duration":0.14285699999999224,"midi":69,"time":83.99991600000001,"velocity":0.3937007874015748},{"duration":0.14285699999999224,"midi":65,"time":83.99991600000001,"velocity":0.3937007874015748},{"duration":0.14285699999999224,"midi":69,"time":83.99991600000001,"velocity":0.3937007874015748},{"duration":0.14285699999999224,"midi":62,"time":84.57134400000001,"velocity":0.3937007874015748},{"duration":0.14285699999999224,"midi":62,"time":84.57134400000001,"velocity":0.3937007874015748},{"duration":0.14285700000000645,"midi":65,"time":84.714201,"velocity":0.3937007874015748},{"duration":0.14285700000000645,"midi":65,"time":84.714201,"velocity":0.3937007874015748},{"duration":0.14285700000000645,"midi":57,"time":84.85705800000001,"velocity":0.3937007874015748},{"duration":0.14285700000000645,"midi":61,"time":84.85705800000001,"velocity":0.3937007874015748},{"duration":0.14285700000000645,"midi":61,"time":84.85705800000001,"velocity":0.3937007874015748},{"duration":0.14285700000000645,"midi":64,"time":84.85705800000001,"velocity":0.3937007874015748},{"duration":0.14285700000000645,"midi":64,"time":84.85705800000001,"velocity":0.3937007874015748},{"duration":0.14285700000000645,"midi":57,"time":84.85705800000001,"velocity":0.3937007874015748},{"duration":0.14285699999999224,"midi":61,"time":85.14277200000001,"velocity":0.3937007874015748},{"duration":0.14285699999999224,"midi":57,"time":85.14277200000001,"velocity":0.3937007874015748},{"duration":0.14285699999999224,"midi":64,"time":85.14277200000001,"velocity":0.3937007874015748},{"duration":0.14285699999999224,"midi":57,"time":85.14277200000001,"velocity":0.3937007874015748},{"duration":0.14285699999999224,"midi":64,"time":85.14277200000001,"velocity":0.3937007874015748},{"duration":0.14285699999999224,"midi":61,"time":85.14277200000001,"velocity":0.3937007874015748},{"duration":0.14285699999999224,"midi":65,"time":85.428486,"velocity":0.3937007874015748},{"duration":0.14285699999999224,"midi":65,"time":85.428486,"velocity":0.3937007874015748},{"duration":0.14285700000000645,"midi":62,"time":85.571343,"velocity":0.3937007874015748},{"duration":0.14285700000000645,"midi":62,"time":85.571343,"velocity":0.3937007874015748},{"duration":0.42857100000000514,"midi":64,"time":85.7142,"velocity":0.3937007874015748},{"duration":0.42857100000000514,"midi":57,"time":85.7142,"velocity":0.3937007874015748},{"duration":0.42857100000000514,"midi":57,"time":85.7142,"velocity":0.3937007874015748},{"duration":0.42857100000000514,"midi":61,"time":85.7142,"velocity":0.3937007874015748},{"duration":0.42857100000000514,"midi":64,"time":85.7142,"velocity":0.3937007874015748},{"duration":0.42857100000000514,"midi":61,"time":85.7142,"velocity":0.3937007874015748},{"duration":0.14285699999999224,"midi":69,"time":86.28562800000002,"velocity":0.3937007874015748},{"duration":0.14285699999999224,"midi":69,"time":86.28562800000002,"velocity":0.3937007874015748},{"duration":0.14285699999999224,"midi":72,"time":86.42848500000001,"velocity":0.3937007874015748},{"duration":0.14285699999999224,"midi":72,"time":86.42848500000001,"velocity":0.3937007874015748},{"duration":0.14285700000000645,"midi":69,"time":86.571342,"velocity":0.3937007874015748},{"duration":0.14285700000000645,"midi":65,"time":86.571342,"velocity":0.3937007874015748},{"duration":0.14285700000000645,"midi":74,"time":86.571342,"velocity":0.3937007874015748},{"duration":0.14285700000000645,"midi":65,"time":86.571342,"velocity":0.3937007874015748},{"duration":0.14285700000000645,"midi":74,"time":86.571342,"velocity":0.3937007874015748},{"duration":0.14285700000000645,"midi":69,"time":86.571342,"velocity":0.3937007874015748},{"duration":0.14285700000000645,"midi":69,"time":86.857056,"velocity":0.3937007874015748},{"duration":0.14285700000000645,"midi":74,"time":86.857056,"velocity":0.3937007874015748},{"duration":0.14285700000000645,"midi":69,"time":86.857056,"velocity":0.3937007874015748},{"duration":0.14285700000000645,"midi":65,"time":86.857056,"velocity":0.3937007874015748},{"duration":0.14285700000000645,"midi":74,"time":86.857056,"velocity":0.3937007874015748},{"duration":0.14285700000000645,"midi":65,"time":86.857056,"velocity":0.3937007874015748},{"duration":0.14285699999999224,"midi":74,"time":87.14277000000001,"velocity":0.3937007874015748},{"duration":0.14285699999999224,"midi":69,"time":87.14277000000001,"velocity":0.3937007874015748},{"duration":0.14285699999999224,"midi":74,"time":87.14277000000001,"velocity":0.3937007874015748},{"duration":0.14285699999999224,"midi":65,"time":87.14277000000001,"velocity":0.3937007874015748},{"duration":0.14285699999999224,"midi":69,"time":87.14277000000001,"velocity":0.3937007874015748},{"duration":0.14285699999999224,"midi":65,"time":87.14277000000001,"velocity":0.3937007874015748},{"duration":0.14285700000000645,"midi":76,"time":87.285627,"velocity":0.3937007874015748},{"duration":0.14285700000000645,"midi":76,"time":87.285627,"velocity":0.3937007874015748},{"duration":0.14285700000000645,"midi":77,"time":87.42848400000001,"velocity":0.3937007874015748},{"duration":0.14285700000000645,"midi":77,"time":87.42848400000001,"velocity":0.3937007874015748},{"duration":0.14285700000000645,"midi":74,"time":87.42848400000001,"velocity":0.3937007874015748},{"duration":0.14285700000000645,"midi":74,"time":87.42848400000001,"velocity":0.3937007874015748},{"duration":0.14285700000000645,"midi":70,"time":87.42848400000001,"velocity":0.3937007874015748},{"duration":0.14285700000000645,"midi":70,"time":87.42848400000001,"velocity":0.3937007874015748},{"duration":0.14285700000000645,"midi":77,"time":87.714198,"velocity":0.3937007874015748},{"duration":0.14285700000000645,"midi":74,"time":87.714198,"velocity":0.3937007874015748},{"duration":0.14285700000000645,"midi":70,"time":87.714198,"velocity":0.3937007874015748},{"duration":0.14285700000000645,"midi":77,"time":87.714198,"velocity":0.3937007874015748},{"duration":0.14285700000000645,"midi":70,"time":87.714198,"velocity":0.3937007874015748},{"duration":0.14285700000000645,"midi":74,"time":87.714198,"velocity":0.3937007874015748},{"duration":0.14285699999999224,"midi":74,"time":87.99991200000001,"velocity":0.3937007874015748},{"duration":0.14285699999999224,"midi":77,"time":87.99991200000001,"velocity":0.3937007874015748},{"duration":0.14285699999999224,"midi":70,"time":87.99991200000001,"velocity":0.3937007874015748},{"duration":0.14285699999999224,"midi":70,"time":87.99991200000001,"velocity":0.3937007874015748},{"duration":0.14285699999999224,"midi":74,"time":87.99991200000001,"velocity":0.3937007874015748},{"duration":0.14285699999999224,"midi":77,"time":87.99991200000001,"velocity":0.3937007874015748},{"duration":0.14285700000000645,"midi":79,"time":88.142769,"velocity":0.3937007874015748},{"duration":0.14285700000000645,"midi":79,"time":88.142769,"velocity":0.3937007874015748},{"duration":0.14285700000000645,"midi":69,"time":88.28562600000001,"velocity":0.3937007874015748},{"duration":0.14285700000000645,"midi":76,"time":88.28562600000001,"velocity":0.3937007874015748},{"duration":0.14285700000000645,"midi":76,"time":88.28562600000001,"velocity":0.3937007874015748},{"duration":0.14285700000000645,"midi":69,"time":88.28562600000001,"velocity":0.3937007874015748},{"duration":0.14285700000000645,"midi":72,"time":88.28562600000001,"velocity":0.3937007874015748},{"duration":0.14285700000000645,"midi":72,"time":88.28562600000001,"velocity":0.3937007874015748},{"duration":0.14285700000000645,"midi":72,"time":88.57134,"velocity":0.3937007874015748},{"duration":0.14285700000000645,"midi":69,"time":88.57134,"velocity":0.3937007874015748},{"duration":0.14285700000000645,"midi":76,"time":88.57134,"velocity":0.3937007874015748},{"duration":0.14285700000000645,"midi":72,"time":88.57134,"velocity":0.3937007874015748},{"duration":0.14285700000000645,"midi":76,"time":88.57134,"velocity":0.3937007874015748},{"duration":0.14285700000000645,"midi":69,"time":88.57134,"velocity":0.3937007874015748},{"duration":0.14285699999999224,"midi":74,"time":88.857054,"velocity":0.3937007874015748},{"duration":0.14285699999999224,"midi":69,"time":88.857054,"velocity":0.3937007874015748},{"duration":0.14285699999999224,"midi":74,"time":88.857054,"velocity":0.3937007874015748},{"duration":0.14285699999999224,"midi":69,"time":88.857054,"velocity":0.3937007874015748},{"duration":0.14285700000000645,"midi":72,"time":88.999911,"velocity":0.3937007874015748},{"duration":0.14285700000000645,"midi":72,"time":88.999911,"velocity":0.3937007874015748},{"duration":0.14285700000000645,"midi":72,"time":89.142768,"velocity":0.3937007874015748},{"duration":0.14285700000000645,"midi":72,"time":89.142768,"velocity":0.3937007874015748},{"duration":0.14285700000000645,"midi":65,"time":89.142768,"velocity":0.3937007874015748},{"duration":0.14285700000000645,"midi":65,"time":89.142768,"velocity":0.3937007874015748},{"duration":0.42857100000000514,"midi":65,"time":89.28562500000001,"velocity":0.3937007874015748},{"duration":0.42857100000000514,"midi":74,"time":89.28562500000001,"velocity":0.3937007874015748},{"duration":0.42857100000000514,"midi":74,"time":89.28562500000001,"velocity":0.3937007874015748},{"duration":0.42857100000000514,"midi":69,"time":89.28562500000001,"velocity":0.3937007874015748},{"duration":0.42857100000000514,"midi":65,"time":89.28562500000001,"velocity":0.3937007874015748},{"duration":0.42857100000000514,"midi":69,"time":89.28562500000001,"velocity":0.3937007874015748},{"duration":0.14285699999999224,"midi":69,"time":89.71419600000002,"velocity":0.3937007874015748},{"duration":0.14285699999999224,"midi":69,"time":89.71419600000002,"velocity":0.3937007874015748},{"duration":0.14285700000000645,"midi":72,"time":89.85705300000001,"velocity":0.3937007874015748},{"duration":0.14285700000000645,"midi":72,"time":89.85705300000001,"velocity":0.3937007874015748},{"duration":0.14285699999999224,"midi":70,"time":89.99991000000001,"velocity":0.3937007874015748},{"duration":0.14285699999999224,"midi":70,"time":89.99991000000001,"velocity":0.3937007874015748},{"duration":0.14285699999999224,"midi":65,"time":89.99991000000001,"velocity":0.3937007874015748},{"duration":0.14285699999999224,"midi":65,"time":89.99991000000001,"velocity":0.3937007874015748},{"duration":0.14285699999999224,"midi":74,"time":89.99991000000001,"velocity":0.3937007874015748},{"duration":0.14285699999999224,"midi":74,"time":89.99991000000001,"velocity":0.3937007874015748},{"duration":0.14285700000000645,"midi":70,"time":90.285624,"velocity":0.3937007874015748},{"duration":0.14285700000000645,"midi":74,"time":90.285624,"velocity":0.3937007874015748},{"duration":0.14285700000000645,"midi":65,"time":90.285624,"velocity":0.3937007874015748},{"duration":0.14285700000000645,"midi":70,"time":90.285624,"velocity":0.3937007874015748},{"duration":0.14285700000000645,"midi":65,"time":90.285624,"velocity":0.3937007874015748},{"duration":0.14285700000000645,"midi":74,"time":90.285624,"velocity":0.3937007874015748},{"duration":0.14285699999999224,"midi":74,"time":90.57133800000001,"velocity":0.3937007874015748},{"duration":0.14285699999999224,"midi":65,"time":90.57133800000001,"velocity":0.3937007874015748},{"duration":0.14285699999999224,"midi":70,"time":90.57133800000001,"velocity":0.3937007874015748},{"duration":0.14285699999999224,"midi":70,"time":90.57133800000001,"velocity":0.3937007874015748},{"duration":0.14285699999999224,"midi":74,"time":90.57133800000001,"velocity":0.3937007874015748},{"duration":0.14285699999999224,"midi":65,"time":90.57133800000001,"velocity":0.3937007874015748},{"duration":0.14285700000000645,"midi":76,"time":90.714195,"velocity":0.3937007874015748},{"duration":0.14285700000000645,"midi":76,"time":90.714195,"velocity":0.3937007874015748},{"duration":0.14285700000000645,"midi":77,"time":90.85705200000001,"velocity":0.3937007874015748},{"duration":0.14285700000000645,"midi":72,"time":90.85705200000001,"velocity":0.3937007874015748},{"duration":0.14285700000000645,"midi":69,"time":90.85705200000001,"velocity":0.3937007874015748},{"duration":0.14285700000000645,"midi":77,"time":90.85705200000001,"velocity":0.3937007874015748},{"duration":0.14285700000000645,"midi":72,"time":90.85705200000001,"velocity":0.3937007874015748},{"duration":0.14285700000000645,"midi":69,"time":90.85705200000001,"velocity":0.3937007874015748},{"duration":0.14285699999999224,"midi":77,"time":91.14276600000001,"velocity":0.3937007874015748},{"duration":0.14285699999999224,"midi":72,"time":91.14276600000001,"velocity":0.3937007874015748},{"duration":0.14285699999999224,"midi":69,"time":91.14276600000001,"velocity":0.3937007874015748},{"duration":0.14285699999999224,"midi":77,"time":91.14276600000001,"velocity":0.3937007874015748},{"duration":0.14285699999999224,"midi":69,"time":91.14276600000001,"velocity":0.3937007874015748},{"duration":0.14285699999999224,"midi":72,"time":91.14276600000001,"velocity":0.3937007874015748},{"duration":0.14285699999999224,"midi":69,"time":91.42848000000001,"velocity":0.3937007874015748},{"duration":0.14285699999999224,"midi":77,"time":91.42848000000001,"velocity":0.3937007874015748},{"duration":0.14285699999999224,"midi":77,"time":91.42848000000001,"velocity":0.3937007874015748},{"duration":0.14285699999999224,"midi":69,"time":91.42848000000001,"velocity":0.3937007874015748},{"duration":0.14285699999999224,"midi":72,"time":91.42848000000001,"velocity":0.3937007874015748},{"duration":0.14285699999999224,"midi":72,"time":91.42848000000001,"velocity":0.3937007874015748},{"duration":0.14285700000000645,"midi":79,"time":91.571337,"velocity":0.3937007874015748},{"duration":0.14285700000000645,"midi":79,"time":91.571337,"velocity":0.3937007874015748},{"duration":0.14285700000000645,"midi":76,"time":91.714194,"velocity":0.3937007874015748},{"duration":0.14285700000000645,"midi":72,"time":91.714194,"velocity":0.3937007874015748},{"duration":0.14285700000000645,"midi":69,"time":91.714194,"velocity":0.3937007874015748},{"duration":0.14285700000000645,"midi":72,"time":91.714194,"velocity":0.3937007874015748},{"duration":0.14285700000000645,"midi":69,"time":91.714194,"velocity":0.3937007874015748},{"duration":0.14285700000000645,"midi":76,"time":91.714194,"velocity":0.3937007874015748},{"duration":0.14285700000000645,"midi":69,"time":91.999908,"velocity":0.3937007874015748},{"duration":0.14285700000000645,"midi":72,"time":91.999908,"velocity":0.3937007874015748},{"duration":0.14285700000000645,"midi":76,"time":91.999908,"velocity":0.3937007874015748},{"duration":0.14285700000000645,"midi":76,"time":91.999908,"velocity":0.3937007874015748},{"duration":0.14285700000000645,"midi":72,"time":91.999908,"velocity":0.3937007874015748},{"duration":0.14285700000000645,"midi":69,"time":91.999908,"velocity":0.3937007874015748},{"duration":0.14285699999999224,"midi":69,"time":92.28562200000002,"velocity":0.3937007874015748},{"duration":0.14285699999999224,"midi":74,"time":92.28562200000002,"velocity":0.3937007874015748},{"duration":0.14285699999999224,"midi":74,"time":92.28562200000002,"velocity":0.3937007874015748},{"duration":0.14285699999999224,"midi":69,"time":92.28562200000002,"velocity":0.3937007874015748},{"duration":0.14285699999999224,"midi":72,"time":92.42847900000001,"velocity":0.3937007874015748},{"duration":0.14285699999999224,"midi":72,"time":92.42847900000001,"velocity":0.3937007874015748},{"duration":0.42857100000000514,"midi":69,"time":92.571336,"velocity":0.3937007874015748},{"duration":0.42857100000000514,"midi":74,"time":92.571336,"velocity":0.3937007874015748},{"duration":0.42857100000000514,"midi":74,"time":92.571336,"velocity":0.3937007874015748},{"duration":0.42857100000000514,"midi":65,"time":92.571336,"velocity":0.3937007874015748},{"duration":0.42857100000000514,"midi":65,"time":92.571336,"velocity":0.3937007874015748},{"duration":0.42857100000000514,"midi":69,"time":92.571336,"velocity":0.3937007874015748},{"duration":0.14285699999999224,"midi":69,"time":93.14276400000001,"velocity":0.3937007874015748},{"duration":0.14285699999999224,"midi":69,"time":93.14276400000001,"velocity":0.3937007874015748},{"duration":0.14285700000000645,"midi":72,"time":93.285621,"velocity":0.3937007874015748},{"duration":0.14285700000000645,"midi":72,"time":93.285621,"velocity":0.3937007874015748},{"duration":0.14285699999999224,"midi":69,"time":93.42847800000001,"velocity":0.3937007874015748},{"duration":0.14285699999999224,"midi":65,"time":93.42847800000001,"velocity":0.3937007874015748},{"duration":0.14285699999999224,"midi":74,"time":93.42847800000001,"velocity":0.3937007874015748},{"duration":0.14285699999999224,"midi":69,"time":93.42847800000001,"velocity":0.3937007874015748},{"duration":0.14285699999999224,"midi":74,"time":93.42847800000001,"velocity":0.3937007874015748},{"duration":0.14285699999999224,"midi":65,"time":93.42847800000001,"velocity":0.3937007874015748},{"duration":0.14285700000000645,"midi":69,"time":93.714192,"velocity":0.3937007874015748},{"duration":0.14285700000000645,"midi":65,"time":93.714192,"velocity":0.3937007874015748},{"duration":0.14285700000000645,"midi":74,"time":93.714192,"velocity":0.3937007874015748},{"duration":0.14285700000000645,"midi":74,"time":93.714192,"velocity":0.3937007874015748},{"duration":0.14285700000000645,"midi":65,"time":93.714192,"velocity":0.3937007874015748},{"duration":0.14285700000000645,"midi":69,"time":93.714192,"velocity":0.3937007874015748},{"duration":0.14285699999999224,"midi":74,"time":93.99990600000001,"velocity":0.3937007874015748},{"duration":0.14285699999999224,"midi":65,"time":93.99990600000001,"velocity":0.3937007874015748},{"duration":0.14285699999999224,"midi":74,"time":93.99990600000001,"velocity":0.3937007874015748},{"duration":0.14285699999999224,"midi":65,"time":93.99990600000001,"velocity":0.3937007874015748},{"duration":0.14285700000000645,"midi":77,"time":94.142763,"velocity":0.3937007874015748},{"duration":0.14285700000000645,"midi":65,"time":94.142763,"velocity":0.3937007874015748},{"duration":0.14285700000000645,"midi":65,"time":94.142763,"velocity":0.3937007874015748},{"duration":0.14285700000000645,"midi":77,"time":94.142763,"velocity":0.3937007874015748},{"duration":0.14285700000000645,"midi":70,"time":94.28562000000001,"velocity":0.3937007874015748},{"duration":0.14285700000000645,"midi":79,"time":94.28562000000001,"velocity":0.3937007874015748},{"duration":0.14285700000000645,"midi":74,"time":94.28562000000001,"velocity":0.3937007874015748},{"duration":0.14285700000000645,"midi":70,"time":94.28562000000001,"velocity":0.3937007874015748},{"duration":0.14285700000000645,"midi":79,"time":94.28562000000001,"velocity":0.3937007874015748},{"duration":0.14285700000000645,"midi":74,"time":94.28562000000001,"velocity":0.3937007874015748},{"duration":0.14285700000000645,"midi":79,"time":94.57133400000001,"velocity":0.3937007874015748},{"duration":0.14285700000000645,"midi":74,"time":94.57133400000001,"velocity":0.3937007874015748},{"duration":0.14285700000000645,"midi":70,"time":94.57133400000001,"velocity":0.3937007874015748},{"duration":0.14285700000000645,"midi":79,"time":94.57133400000001,"velocity":0.3937007874015748},{"duration":0.14285700000000645,"midi":74,"time":94.57133400000001,"velocity":0.3937007874015748},{"duration":0.14285700000000645,"midi":70,"time":94.57133400000001,"velocity":0.3937007874015748},{"duration":0.14285699999999224,"midi":70,"time":94.857048,"velocity":0.3937007874015748},{"duration":0.14285699999999224,"midi":79,"time":94.857048,"velocity":0.3937007874015748},{"duration":0.14285699999999224,"midi":74,"time":94.857048,"velocity":0.3937007874015748},{"duration":0.14285699999999224,"midi":70,"time":94.857048,"velocity":0.3937007874015748},{"duration":0.14285699999999224,"midi":74,"time":94.857048,"velocity":0.3937007874015748},{"duration":0.14285699999999224,"midi":79,"time":94.857048,"velocity":0.3937007874015748},{"duration":0.14285700000000645,"midi":81,"time":94.999905,"velocity":0.3937007874015748},{"duration":0.14285700000000645,"midi":81,"time":94.999905,"velocity":0.3937007874015748},{"duration":0.14285700000000645,"midi":82,"time":95.142762,"velocity":0.3937007874015748},{"duration":0.14285700000000645,"midi":74,"time":95.142762,"velocity":0.3937007874015748},{"duration":0.14285700000000645,"midi":82,"time":95.142762,"velocity":0.3937007874015748},{"duration":0.14285700000000645,"midi":79,"time":95.142762,"velocity":0.3937007874015748},{"duration":0.14285700000000645,"midi":74,"time":95.142762,"velocity":0.3937007874015748},{"duration":0.14285700000000645,"midi":79,"time":95.142762,"velocity":0.3937007874015748},{"duration":0.14285700000000645,"midi":74,"time":95.428476,"velocity":0.3937007874015748},{"duration":0.14285700000000645,"midi":82,"time":95.428476,"velocity":0.3937007874015748},{"duration":0.14285700000000645,"midi":82,"time":95.428476,"velocity":0.3937007874015748},{"duration":0.14285700000000645,"midi":74,"time":95.428476,"velocity":0.3937007874015748},{"duration":0.14285700000000645,"midi":79,"time":95.428476,"velocity":0.3937007874015748},{"duration":0.14285700000000645,"midi":79,"time":95.428476,"velocity":0.3937007874015748},{"duration":0.14285699999999224,"midi":81,"time":95.71419000000002,"velocity":0.3937007874015748},{"duration":0.14285699999999224,"midi":81,"time":95.71419000000002,"velocity":0.3937007874015748},{"duration":0.14285699999999224,"midi":74,"time":95.71419000000002,"velocity":0.3937007874015748},{"duration":0.14285699999999224,"midi":74,"time":95.71419000000002,"velocity":0.3937007874015748},{"duration":0.14285700000000645,"midi":79,"time":95.85704700000001,"velocity":0.3937007874015748},{"duration":0.14285700000000645,"midi":79,"time":95.85704700000001,"velocity":0.3937007874015748},{"duration":0.14285699999999224,"midi":74,"time":95.99990400000002,"velocity":0.3937007874015748},{"duration":0.14285699999999224,"midi":74,"time":95.99990400000002,"velocity":0.3937007874015748},{"duration":0.14285699999999224,"midi":81,"time":95.99990400000002,"velocity":0.3937007874015748},{"duration":0.14285699999999224,"midi":81,"time":95.99990400000002,"velocity":0.3937007874015748},{"duration":0.42857100000000514,"midi":69,"time":96.14276100000001,"velocity":0.3937007874015748},{"duration":0.42857100000000514,"midi":74,"time":96.14276100000001,"velocity":0.3937007874015748},{"duration":0.42857100000000514,"midi":74,"time":96.14276100000001,"velocity":0.3937007874015748},{"duration":0.42857100000000514,"midi":69,"time":96.14276100000001,"velocity":0.3937007874015748},{"duration":0.42857100000000514,"midi":65,"time":96.14276100000001,"velocity":0.3937007874015748},{"duration":0.42857100000000514,"midi":65,"time":96.14276100000001,"velocity":0.3937007874015748},{"duration":0.14285699999999224,"midi":74,"time":96.57133200000001,"velocity":0.3937007874015748},{"duration":0.14285699999999224,"midi":74,"time":96.57133200000001,"velocity":0.3937007874015748},{"duration":0.14285700000000645,"midi":76,"time":96.714189,"velocity":0.3937007874015748},{"duration":0.14285700000000645,"midi":76,"time":96.714189,"velocity":0.3937007874015748},{"duration":0.14285700000000645,"midi":70,"time":96.85704600000001,"velocity":0.3937007874015748},{"duration":0.14285700000000645,"midi":70,"time":96.85704600000001,"velocity":0.3937007874015748},{"duration":0.14285700000000645,"midi":77,"time":96.85704600000001,"velocity":0.3937007874015748},{"duration":0.14285700000000645,"midi":74,"time":96.85704600000001,"velocity":0.3937007874015748},{"duration":0.14285700000000645,"midi":77,"time":96.85704600000001,"velocity":0.3937007874015748},{"duration":0.14285700000000645,"midi":74,"time":96.85704600000001,"velocity":0.3937007874015748},{"duration":0.14285699999999224,"midi":70,"time":97.14276000000001,"velocity":0.3937007874015748},{"duration":0.14285699999999224,"midi":70,"time":97.14276000000001,"velocity":0.3937007874015748},{"duration":0.14285699999999224,"midi":74,"time":97.14276000000001,"velocity":0.3937007874015748},{"duration":0.14285699999999224,"midi":74,"time":97.14276000000001,"velocity":0.3937007874015748},{"duration":0.14285699999999224,"midi":77,"time":97.14276000000001,"velocity":0.3937007874015748},{"duration":0.14285699999999224,"midi":77,"time":97.14276000000001,"velocity":0.3937007874015748},{"duration":0.14285699999999224,"midi":70,"time":97.42847400000001,"velocity":0.3937007874015748},{"duration":0.14285699999999224,"midi":70,"time":97.42847400000001,"velocity":0.3937007874015748},{"duration":0.14285699999999224,"midi":74,"time":97.42847400000001,"velocity":0.3937007874015748},{"duration":0.14285699999999224,"midi":74,"time":97.42847400000001,"velocity":0.3937007874015748},{"duration":0.14285699999999224,"midi":79,"time":97.42847400000001,"velocity":0.3937007874015748},{"duration":0.14285699999999224,"midi":79,"time":97.42847400000001,"velocity":0.3937007874015748},{"duration":0.14285700000000645,"midi":81,"time":97.71418800000001,"velocity":0.3937007874015748},{"duration":0.14285700000000645,"midi":74,"time":97.71418800000001,"velocity":0.3937007874015748},{"duration":0.14285700000000645,"midi":77,"time":97.71418800000001,"velocity":0.3937007874015748},{"duration":0.14285700000000645,"midi":77,"time":97.71418800000001,"velocity":0.3937007874015748},{"duration":0.14285700000000645,"midi":74,"time":97.71418800000001,"velocity":0.3937007874015748},{"duration":0.14285700000000645,"midi":81,"time":97.71418800000001,"velocity":0.3937007874015748},{"duration":0.14285699999999224,"midi":74,"time":97.85704500000001,"velocity":0.3937007874015748},{"duration":0.14285699999999224,"midi":74,"time":97.85704500000001,"velocity":0.3937007874015748},{"duration":0.14285699999999224,"midi":74,"time":98.28561600000002,"velocity":0.3937007874015748},{"duration":0.14285699999999224,"midi":74,"time":98.28561600000002,"velocity":0.3937007874015748},{"duration":0.14285699999999224,"midi":77,"time":98.42847300000001,"velocity":0.3937007874015748},{"duration":0.14285699999999224,"midi":77,"time":98.42847300000001,"velocity":0.3937007874015748},{"duration":0.14285700000000645,"midi":73,"time":98.57133,"velocity":0.3937007874015748},{"duration":0.14285700000000645,"midi":76,"time":98.57133,"velocity":0.3937007874015748},{"duration":0.14285700000000645,"midi":76,"time":98.57133,"velocity":0.3937007874015748},{"duration":0.14285700000000645,"midi":69,"time":98.57133,"velocity":0.3937007874015748},{"duration":0.14285700000000645,"midi":73,"time":98.57133,"velocity":0.3937007874015748},{"duration":0.14285700000000645,"midi":69,"time":98.57133,"velocity":0.3937007874015748},{"duration":0.14285700000000645,"midi":69,"time":98.857044,"velocity":0.3937007874015748},{"duration":0.14285700000000645,"midi":73,"time":98.857044,"velocity":0.3937007874015748},{"duration":0.14285700000000645,"midi":69,"time":98.857044,"velocity":0.3937007874015748},{"duration":0.14285700000000645,"midi":76,"time":98.857044,"velocity":0.3937007874015748},{"duration":0.14285700000000645,"midi":76,"time":98.857044,"velocity":0.3937007874015748},{"duration":0.14285700000000645,"midi":73,"time":98.857044,"velocity":0.3937007874015748},{"duration":0.14285699999999224,"midi":74,"time":99.14275800000001,"velocity":0.3937007874015748},{"duration":0.14285699999999224,"midi":74,"time":99.14275800000001,"velocity":0.3937007874015748},{"duration":0.14285700000000645,"midi":73,"time":99.285615,"velocity":0.3937007874015748},{"duration":0.14285700000000645,"midi":73,"time":99.285615,"velocity":0.3937007874015748},{"duration":0.2857139999999845,"midi":74,"time":99.42847200000001,"velocity":0.3937007874015748},{"duration":0.2857139999999845,"midi":69,"time":99.42847200000001,"velocity":0.3937007874015748},{"duration":0.2857139999999845,"midi":74,"time":99.42847200000001,"velocity":0.3937007874015748},{"duration":0.2857139999999845,"midi":69,"time":99.42847200000001,"velocity":0.3937007874015748},{"duration":0.2857140000000129,"midi":74,"time":99.714186,"velocity":0.3937007874015748},{"duration":0.2857140000000129,"midi":69,"time":99.714186,"velocity":0.3937007874015748},{"duration":0.2857140000000129,"midi":69,"time":99.714186,"velocity":0.3937007874015748},{"duration":0.2857140000000129,"midi":74,"time":99.714186,"velocity":0.3937007874015748},{"duration":0.2857139999999987,"midi":76,"time":99.99990000000001,"velocity":0.3937007874015748},{"duration":0.2857139999999987,"midi":69,"time":99.99990000000001,"velocity":0.3937007874015748},{"duration":0.2857139999999987,"midi":69,"time":99.99990000000001,"velocity":0.3937007874015748},{"duration":0.2857139999999987,"midi":76,"time":99.99990000000001,"velocity":0.3937007874015748},{"duration":0.2857139999999987,"midi":72,"time":99.99990000000001,"velocity":0.3937007874015748},{"duration":0.2857139999999987,"midi":72,"time":99.99990000000001,"velocity":0.3937007874015748},{"duration":0.2857139999999987,"midi":77,"time":100.28561400000001,"velocity":0.3937007874015748},{"duration":0.2857139999999987,"midi":74,"time":100.28561400000001,"velocity":0.3937007874015748},{"duration":0.2857139999999987,"midi":74,"time":100.28561400000001,"velocity":0.3937007874015748},{"duration":0.2857139999999987,"midi":77,"time":100.28561400000001,"velocity":0.3937007874015748},{"duration":0.2857139999999987,"midi":72,"time":100.28561400000001,"velocity":0.3937007874015748},{"duration":0.2857139999999987,"midi":72,"time":100.28561400000001,"velocity":0.3937007874015748},{"duration":0.14285700000000645,"midi":77,"time":100.57132800000001,"velocity":0.3937007874015748},{"duration":0.14285700000000645,"midi":77,"time":100.57132800000001,"velocity":0.3937007874015748},{"duration":0.14285699999999224,"midi":77,"time":100.71418500000001,"velocity":0.3937007874015748},{"duration":0.14285699999999224,"midi":77,"time":100.71418500000001,"velocity":0.3937007874015748},{"duration":0.2857139999999987,"midi":74,"time":100.857042,"velocity":0.3937007874015748},{"duration":0.2857139999999987,"midi":74,"time":100.857042,"velocity":0.3937007874015748},{"duration":0.2857139999999987,"midi":79,"time":100.857042,"velocity":0.3937007874015748},{"duration":0.2857139999999987,"midi":70,"time":100.857042,"velocity":0.3937007874015748},{"duration":0.2857139999999987,"midi":79,"time":100.857042,"velocity":0.3937007874015748},{"duration":0.2857139999999987,"midi":70,"time":100.857042,"velocity":0.3937007874015748},{"duration":0.5714280000000116,"midi":81,"time":101.142756,"velocity":0.3937007874015748},{"duration":0.5714280000000116,"midi":77,"time":101.142756,"velocity":0.3937007874015748},{"duration":0.5714280000000116,"midi":74,"time":101.142756,"velocity":0.3937007874015748},{"duration":0.5714280000000116,"midi":81,"time":101.142756,"velocity":0.3937007874015748},{"duration":0.5714280000000116,"midi":74,"time":101.142756,"velocity":0.3937007874015748},{"duration":0.5714280000000116,"midi":77,"time":101.142756,"velocity":0.3937007874015748},{"duration":0.14285699999999224,"midi":77,"time":101.71418400000002,"velocity":0.3937007874015748},{"duration":0.14285699999999224,"midi":77,"time":101.71418400000002,"velocity":0.3937007874015748},{"duration":0.14285699999999224,"midi":74,"time":101.85704100000001,"velocity":0.3937007874015748},{"duration":0.14285699999999224,"midi":74,"time":101.85704100000001,"velocity":0.3937007874015748},{"duration":0.8571420000000103,"midi":69,"time":101.999898,"velocity":0.3937007874015748},{"duration":0.8571420000000103,"midi":69,"time":101.999898,"velocity":0.3937007874015748},{"duration":0.5714279999999974,"midi":77,"time":102.85704000000001,"velocity":0.3937007874015748},{"duration":0.5714279999999974,"midi":74,"time":102.85704000000001,"velocity":0.3937007874015748},{"duration":0.5714279999999974,"midi":82,"time":102.85704000000001,"velocity":0.3937007874015748},{"duration":0.5714279999999974,"midi":74,"time":102.85704000000001,"velocity":0.3937007874015748},{"duration":0.5714279999999974,"midi":77,"time":102.85704000000001,"velocity":0.3937007874015748},{"duration":0.5714279999999974,"midi":82,"time":102.85704000000001,"velocity":0.3937007874015748},{"duration":0.14285699999999224,"midi":77,"time":103.42846800000001,"velocity":0.3937007874015748},{"duration":0.14285699999999224,"midi":77,"time":103.42846800000001,"velocity":0.3937007874015748},{"duration":0.14285700000000645,"midi":74,"time":103.571325,"velocity":0.3937007874015748},{"duration":0.14285700000000645,"midi":74,"time":103.571325,"velocity":0.3937007874015748},{"duration":0.8571419999999961,"midi":70,"time":103.71418200000001,"velocity":0.3937007874015748},{"duration":0.8571419999999961,"midi":70,"time":103.71418200000001,"velocity":0.3937007874015748},{"duration":0.14285700000000645,"midi":69,"time":104.571324,"velocity":0.3937007874015748},{"duration":0.14285700000000645,"midi":69,"time":104.571324,"velocity":0.3937007874015748},{"duration":0.14285700000000645,"midi":76,"time":104.571324,"velocity":0.3937007874015748},{"duration":0.14285700000000645,"midi":76,"time":104.571324,"velocity":0.3937007874015748},{"duration":0.2857139999999987,"midi":76,"time":104.71418100000001,"velocity":0.3937007874015748},{"duration":0.2857139999999987,"midi":76,"time":104.71418100000001,"velocity":0.3937007874015748},{"duration":0.42857100000000514,"midi":74,"time":104.99989500000001,"velocity":0.3937007874015748},{"duration":0.42857100000000514,"midi":69,"time":104.99989500000001,"velocity":0.3937007874015748},{"duration":0.42857100000000514,"midi":69,"time":104.99989500000001,"velocity":0.3937007874015748},{"duration":0.42857100000000514,"midi":65,"time":104.99989500000001,"velocity":0.3937007874015748},{"duration":0.42857100000000514,"midi":74,"time":104.99989500000001,"velocity":0.3937007874015748},{"duration":0.42857100000000514,"midi":65,"time":104.99989500000001,"velocity":0.3937007874015748},{"duration":0.42857099999999093,"midi":77,"time":105.42846600000001,"velocity":0.3937007874015748},{"duration":0.42857099999999093,"midi":73,"time":105.42846600000001,"velocity":0.3937007874015748},{"duration":0.42857099999999093,"midi":69,"time":105.42846600000001,"velocity":0.3937007874015748},{"duration":0.42857099999999093,"midi":69,"time":105.42846600000001,"velocity":0.3937007874015748},{"duration":0.42857099999999093,"midi":77,"time":105.42846600000001,"velocity":0.3937007874015748},{"duration":0.42857099999999093,"midi":73,"time":105.42846600000001,"velocity":0.3937007874015748},{"duration":0.14285699999999224,"midi":65,"time":105.99989400000001,"velocity":0.3937007874015748},{"duration":0.14285699999999224,"midi":65,"time":105.99989400000001,"velocity":0.3937007874015748},{"duration":0.14285700000000645,"midi":67,"time":106.142751,"velocity":0.3937007874015748},{"duration":0.14285700000000645,"midi":67,"time":106.142751,"velocity":0.3937007874015748},{"duration":0.14285700000000645,"midi":65,"time":106.28560800000001,"velocity":0.3937007874015748},{"duration":0.14285700000000645,"midi":62,"time":106.28560800000001,"velocity":0.3937007874015748},{"duration":0.14285700000000645,"midi":65,"time":106.28560800000001,"velocity":0.3937007874015748},{"duration":0.14285700000000645,"midi":69,"time":106.28560800000001,"velocity":0.3937007874015748},{"duration":0.14285700000000645,"midi":62,"time":106.28560800000001,"velocity":0.3937007874015748},{"duration":0.14285700000000645,"midi":69,"time":106.28560800000001,"velocity":0.3937007874015748},{"duration":0.14285700000000645,"midi":62,"time":106.57132200000001,"velocity":0.3937007874015748},{"duration":0.14285700000000645,"midi":65,"time":106.57132200000001,"velocity":0.3937007874015748},{"duration":0.14285700000000645,"midi":62,"time":106.57132200000001,"velocity":0.3937007874015748},{"duration":0.14285700000000645,"midi":69,"time":106.57132200000001,"velocity":0.3937007874015748},{"duration":0.14285700000000645,"midi":65,"time":106.57132200000001,"velocity":0.3937007874015748},{"duration":0.14285700000000645,"midi":69,"time":106.57132200000001,"velocity":0.3937007874015748},{"duration":0.14285699999999224,"midi":62,"time":106.85703600000001,"velocity":0.3937007874015748},{"duration":0.14285699999999224,"midi":69,"time":106.85703600000001,"velocity":0.3937007874015748},{"duration":0.14285699999999224,"midi":62,"time":106.85703600000001,"velocity":0.3937007874015748},{"duration":0.14285699999999224,"midi":65,"time":106.85703600000001,"velocity":0.3937007874015748},{"duration":0.14285699999999224,"midi":65,"time":106.85703600000001,"velocity":0.3937007874015748},{"duration":0.14285699999999224,"midi":69,"time":106.85703600000001,"velocity":0.3937007874015748},{"duration":0.14285700000000645,"midi":62,"time":107.14275,"velocity":0.3937007874015748},{"duration":0.14285700000000645,"midi":67,"time":107.14275,"velocity":0.3937007874015748},{"duration":0.14285700000000645,"midi":62,"time":107.14275,"velocity":0.3937007874015748},{"duration":0.14285700000000645,"midi":70,"time":107.14275,"velocity":0.3937007874015748},{"duration":0.14285700000000645,"midi":70,"time":107.14275,"velocity":0.3937007874015748},{"duration":0.14285700000000645,"midi":67,"time":107.14275,"velocity":0.3937007874015748},{"duration":0.14285699999999224,"midi":65,"time":107.28560700000001,"velocity":0.3937007874015748},{"duration":0.14285699999999224,"midi":69,"time":107.28560700000001,"velocity":0.3937007874015748},{"duration":0.14285699999999224,"midi":69,"time":107.28560700000001,"velocity":0.3937007874015748},{"duration":0.14285699999999224,"midi":65,"time":107.28560700000001,"velocity":0.3937007874015748},{"duration":0.14285699999999224,"midi":62,"time":107.28560700000001,"velocity":0.3937007874015748},{"duration":0.14285699999999224,"midi":62,"time":107.28560700000001,"velocity":0.3937007874015748},{"duration":0.14285700000000645,"midi":67,"time":107.999892,"velocity":0.3937007874015748},{"duration":0.14285700000000645,"midi":64,"time":107.999892,"velocity":0.3937007874015748},{"duration":0.14285700000000645,"midi":60,"time":107.999892,"velocity":0.3937007874015748},{"duration":0.14285700000000645,"midi":60,"time":107.999892,"velocity":0.3937007874015748},{"duration":0.14285700000000645,"midi":67,"time":107.999892,"velocity":0.3937007874015748},{"duration":0.14285700000000645,"midi":64,"time":107.999892,"velocity":0.3937007874015748},{"duration":0.14285700000000645,"midi":60,"time":108.285606,"velocity":0.3937007874015748},{"duration":0.14285700000000645,"midi":60,"time":108.285606,"velocity":0.3937007874015748},{"duration":0.14285700000000645,"midi":67,"time":108.285606,"velocity":0.3937007874015748},{"duration":0.14285700000000645,"midi":67,"time":108.285606,"velocity":0.3937007874015748},{"duration":0.14285700000000645,"midi":64,"time":108.285606,"velocity":0.3937007874015748},{"duration":0.14285700000000645,"midi":64,"time":108.285606,"velocity":0.3937007874015748},{"duration":0.14285699999999224,"midi":64,"time":108.57132000000001,"velocity":0.3937007874015748},{"duration":0.14285699999999224,"midi":67,"time":108.57132000000001,"velocity":0.3937007874015748},{"duration":0.14285699999999224,"midi":67,"time":108.57132000000001,"velocity":0.3937007874015748},{"duration":0.14285699999999224,"midi":60,"time":108.57132000000001,"velocity":0.3937007874015748},{"duration":0.14285699999999224,"midi":60,"time":108.57132000000001,"velocity":0.3937007874015748},{"duration":0.14285699999999224,"midi":64,"time":108.57132000000001,"velocity":0.3937007874015748},{"duration":0.14285700000000645,"midi":60,"time":108.85703400000001,"velocity":0.3937007874015748},{"duration":0.14285700000000645,"midi":64,"time":108.85703400000001,"velocity":0.3937007874015748},{"duration":0.14285700000000645,"midi":60,"time":108.85703400000001,"velocity":0.3937007874015748},{"duration":0.14285700000000645,"midi":64,"time":108.85703400000001,"velocity":0.3937007874015748},{"duration":0.14285700000000645,"midi":67,"time":108.85703400000001,"velocity":0.3937007874015748},{"duration":0.14285700000000645,"midi":67,"time":108.85703400000001,"velocity":0.3937007874015748},{"duration":0.14285699999999224,"midi":69,"time":108.99989100000002,"velocity":0.3937007874015748},{"duration":0.14285699999999224,"midi":65,"time":108.99989100000002,"velocity":0.3937007874015748},{"duration":0.14285699999999224,"midi":60,"time":108.99989100000002,"velocity":0.3937007874015748},{"duration":0.14285699999999224,"midi":60,"time":108.99989100000002,"velocity":0.3937007874015748},{"duration":0.14285699999999224,"midi":65,"time":108.99989100000002,"velocity":0.3937007874015748},{"duration":0.14285699999999224,"midi":69,"time":108.99989100000002,"velocity":0.3937007874015748},{"duration":0.14285699999999224,"midi":69,"time":109.71417600000001,"velocity":0.3937007874015748},{"duration":0.14285699999999224,"midi":62,"time":109.71417600000001,"velocity":0.3937007874015748},{"duration":0.14285699999999224,"midi":62,"time":109.71417600000001,"velocity":0.3937007874015748},{"duration":0.14285699999999224,"midi":65,"time":109.71417600000001,"velocity":0.3937007874015748},{"duration":0.14285699999999224,"midi":69,"time":109.71417600000001,"velocity":0.3937007874015748},{"duration":0.14285699999999224,"midi":65,"time":109.71417600000001,"velocity":0.3937007874015748},{"duration":0.14285699999999224,"midi":62,"time":109.99989000000002,"velocity":0.3937007874015748},{"duration":0.14285699999999224,"midi":65,"time":109.99989000000002,"velocity":0.3937007874015748},{"duration":0.14285699999999224,"midi":69,"time":109.99989000000002,"velocity":0.3937007874015748},{"duration":0.14285699999999224,"midi":69,"time":109.99989000000002,"velocity":0.3937007874015748},{"duration":0.14285699999999224,"midi":65,"time":109.99989000000002,"velocity":0.3937007874015748},{"duration":0.14285699999999224,"midi":62,"time":109.99989000000002,"velocity":0.3937007874015748},{"duration":0.14285700000000645,"midi":65,"time":110.285604,"velocity":0.3937007874015748},{"duration":0.14285700000000645,"midi":62,"time":110.285604,"velocity":0.3937007874015748},{"duration":0.14285700000000645,"midi":65,"time":110.285604,"velocity":0.3937007874015748},{"duration":0.14285700000000645,"midi":69,"time":110.285604,"velocity":0.3937007874015748},{"duration":0.14285700000000645,"midi":62,"time":110.285604,"velocity":0.3937007874015748},{"duration":0.14285700000000645,"midi":69,"time":110.285604,"velocity":0.3937007874015748},{"duration":0.14285699999999224,"midi":70,"time":110.571318,"velocity":0.3937007874015748},{"duration":0.14285699999999224,"midi":67,"time":110.571318,"velocity":0.3937007874015748},{"duration":0.14285699999999224,"midi":67,"time":110.571318,"velocity":0.3937007874015748},{"duration":0.14285699999999224,"midi":62,"time":110.571318,"velocity":0.3937007874015748},{"duration":0.14285699999999224,"midi":70,"time":110.571318,"velocity":0.3937007874015748},{"duration":0.14285699999999224,"midi":62,"time":110.571318,"velocity":0.3937007874015748},{"duration":0.14285700000002066,"midi":65,"time":110.714175,"velocity":0.3937007874015748},{"duration":0.14285700000002066,"midi":69,"time":110.714175,"velocity":0.3937007874015748},{"duration":0.14285700000002066,"midi":62,"time":110.714175,"velocity":0.3937007874015748},{"duration":0.14285700000002066,"midi":69,"time":110.714175,"velocity":0.3937007874015748},{"duration":0.14285700000002066,"midi":65,"time":110.714175,"velocity":0.3937007874015748},{"duration":0.14285700000002066,"midi":62,"time":110.714175,"velocity":0.3937007874015748},{"duration":0.14285699999999224,"midi":64,"time":111.42846000000002,"velocity":0.3937007874015748},{"duration":0.14285699999999224,"midi":67,"time":111.42846000000002,"velocity":0.3937007874015748},{"duration":0.14285699999999224,"midi":67,"time":111.42846000000002,"velocity":0.3937007874015748},{"duration":0.14285699999999224,"midi":61,"time":111.42846000000002,"velocity":0.3937007874015748},{"duration":0.14285699999999224,"midi":64,"time":111.42846000000002,"velocity":0.3937007874015748},{"duration":0.14285699999999224,"midi":61,"time":111.42846000000002,"velocity":0.3937007874015748},{"duration":0.14285699999999224,"midi":61,"time":111.71417400000001,"velocity":0.3937007874015748},{"duration":0.14285699999999224,"midi":65,"time":111.71417400000001,"velocity":0.3937007874015748},{"duration":0.14285699999999224,"midi":61,"time":111.71417400000001,"velocity":0.3937007874015748},{"duration":0.14285699999999224,"midi":65,"time":111.71417400000001,"velocity":0.3937007874015748},{"duration":0.14285700000002066,"midi":61,"time":111.999888,"velocity":0.3937007874015748},{"duration":0.14285700000002066,"midi":64,"time":111.999888,"velocity":0.3937007874015748},{"duration":0.14285700000002066,"midi":64,"time":111.999888,"velocity":0.3937007874015748},{"duration":0.14285700000002066,"midi":61,"time":111.999888,"velocity":0.3937007874015748},{"duration":0.14285699999999224,"midi":62,"time":112.28560200000001,"velocity":0.3937007874015748},{"duration":0.14285699999999224,"midi":53,"time":112.28560200000001,"velocity":0.3937007874015748},{"duration":0.14285699999999224,"midi":57,"time":112.28560200000001,"velocity":0.3937007874015748},{"duration":0.14285699999999224,"midi":53,"time":112.28560200000001,"velocity":0.3937007874015748},{"duration":0.14285699999999224,"midi":57,"time":112.28560200000001,"velocity":0.3937007874015748},{"duration":0.14285699999999224,"midi":62,"time":112.28560200000001,"velocity":0.3937007874015748},{"duration":0.14285700000002066,"midi":62,"time":112.85703,"velocity":0.3937007874015748},{"duration":0.14285700000002066,"midi":62,"time":112.85703,"velocity":0.3937007874015748},{"duration":0.14285699999999224,"midi":64,"time":112.99988700000002,"velocity":0.3937007874015748},{"duration":0.14285699999999224,"midi":64,"time":112.99988700000002,"velocity":0.3937007874015748},{"duration":0.5714279999999974,"midi":65,"time":113.14274400000001,"velocity":0.3937007874015748},{"duration":0.5714279999999974,"midi":57,"time":113.14274400000001,"velocity":0.3937007874015748},{"duration":0.5714279999999974,"midi":57,"time":113.14274400000001,"velocity":0.3937007874015748},{"duration":0.5714279999999974,"midi":65,"time":113.14274400000001,"velocity":0.3937007874015748},{"duration":0.5714279999999974,"midi":62,"time":113.14274400000001,"velocity":0.3937007874015748},{"duration":0.5714279999999974,"midi":62,"time":113.14274400000001,"velocity":0.3937007874015748},{"duration":0.14285700000000645,"midi":67,"time":113.714172,"velocity":0.3937007874015748},{"duration":0.14285700000000645,"midi":67,"time":113.714172,"velocity":0.3937007874015748},{"duration":0.14285699999999224,"midi":69,"time":113.85702900000001,"velocity":0.3937007874015748},{"duration":0.14285699999999224,"midi":69,"time":113.85702900000001,"velocity":0.3937007874015748},{"duration":0.2857140000000129,"midi":67,"time":113.999886,"velocity":0.3937007874015748},{"duration":0.2857140000000129,"midi":60,"time":113.999886,"velocity":0.3937007874015748},{"duration":0.2857140000000129,"midi":67,"time":113.999886,"velocity":0.3937007874015748},{"duration":0.2857140000000129,"midi":55,"time":113.999886,"velocity":0.3937007874015748},{"duration":0.2857140000000129,"midi":60,"time":113.999886,"velocity":0.3937007874015748},{"duration":0.2857140000000129,"midi":55,"time":113.999886,"velocity":0.3937007874015748},{"duration":0.2857139999999845,"midi":60,"time":114.28560000000002,"velocity":0.3937007874015748},{"duration":0.2857139999999845,"midi":55,"time":114.28560000000002,"velocity":0.3937007874015748},{"duration":0.2857139999999845,"midi":65,"time":114.28560000000002,"velocity":0.3937007874015748},{"duration":0.2857139999999845,"midi":65,"time":114.28560000000002,"velocity":0.3937007874015748},{"duration":0.2857139999999845,"midi":55,"time":114.28560000000002,"velocity":0.3937007874015748},{"duration":0.2857139999999845,"midi":60,"time":114.28560000000002,"velocity":0.3937007874015748},{"duration":0.2857140000000129,"midi":55,"time":114.571314,"velocity":0.3937007874015748},{"duration":0.2857140000000129,"midi":64,"time":114.571314,"velocity":0.3937007874015748},{"duration":0.2857140000000129,"midi":64,"time":114.571314,"velocity":0.3937007874015748},{"duration":0.2857140000000129,"midi":60,"time":114.571314,"velocity":0.3937007874015748},{"duration":0.2857140000000129,"midi":60,"time":114.571314,"velocity":0.3937007874015748},{"duration":0.2857140000000129,"midi":55,"time":114.571314,"velocity":0.3937007874015748},{"duration":0.2857139999999987,"midi":60,"time":114.85702800000001,"velocity":0.3937007874015748},{"duration":0.2857139999999987,"midi":60,"time":114.85702800000001,"velocity":0.3937007874015748},{"duration":0.2857139999999987,"midi":57,"time":114.85702800000001,"velocity":0.3937007874015748},{"duration":0.2857139999999987,"midi":57,"time":114.85702800000001,"velocity":0.3937007874015748},{"duration":0.2857139999999987,"midi":65,"time":114.85702800000001,"velocity":0.3937007874015748},{"duration":0.2857139999999987,"midi":65,"time":114.85702800000001,"velocity":0.3937007874015748},{"duration":0.2857139999999845,"midi":57,"time":115.14274200000001,"velocity":0.3937007874015748},{"duration":0.2857139999999845,"midi":60,"time":115.14274200000001,"velocity":0.3937007874015748},{"duration":0.2857139999999845,"midi":57,"time":115.14274200000001,"velocity":0.3937007874015748},{"duration":0.2857139999999845,"midi":60,"time":115.14274200000001,"velocity":0.3937007874015748},{"duration":0.2857139999999845,"midi":67,"time":115.14274200000001,"velocity":0.3937007874015748},{"duration":0.2857139999999845,"midi":67,"time":115.14274200000001,"velocity":0.3937007874015748},{"duration":0.2857140000000129,"midi":69,"time":115.428456,"velocity":0.3937007874015748},{"duration":0.2857140000000129,"midi":69,"time":115.428456,"velocity":0.3937007874015748},{"duration":0.2857140000000129,"midi":60,"time":115.428456,"velocity":0.3937007874015748},{"duration":0.2857140000000129,"midi":57,"time":115.428456,"velocity":0.3937007874015748},{"duration":0.2857140000000129,"midi":57,"time":115.428456,"velocity":0.3937007874015748},{"duration":0.2857140000000129,"midi":60,"time":115.428456,"velocity":0.3937007874015748},{"duration":0.5714279999999974,"midi":64,"time":115.71417000000001,"velocity":0.3937007874015748},{"duration":0.5714279999999974,"midi":60,"time":115.71417000000001,"velocity":0.3937007874015748},{"duration":0.5714279999999974,"midi":64,"time":115.71417000000001,"velocity":0.3937007874015748},{"duration":0.5714279999999974,"midi":67,"time":115.71417000000001,"velocity":0.3937007874015748},{"duration":0.5714279999999974,"midi":67,"time":115.71417000000001,"velocity":0.3937007874015748},{"duration":0.5714279999999974,"midi":60,"time":115.71417000000001,"velocity":0.3937007874015748},{"duration":0.14285700000000645,"midi":65,"time":116.28559800000001,"velocity":0.3937007874015748},{"duration":0.14285700000000645,"midi":65,"time":116.28559800000001,"velocity":0.3937007874015748},{"duration":0.14285699999999224,"midi":67,"time":116.42845500000001,"velocity":0.3937007874015748},{"duration":0.14285699999999224,"midi":67,"time":116.42845500000001,"velocity":0.3937007874015748},{"duration":0.5714279999999974,"midi":69,"time":116.571312,"velocity":0.3937007874015748},{"duration":0.5714279999999974,"midi":62,"time":116.571312,"velocity":0.3937007874015748},{"duration":0.5714279999999974,"midi":65,"time":116.571312,"velocity":0.3937007874015748},{"duration":0.5714279999999974,"midi":65,"time":116.571312,"velocity":0.3937007874015748},{"duration":0.5714279999999974,"midi":69,"time":116.571312,"velocity":0.3937007874015748},{"duration":0.5714279999999974,"midi":62,"time":116.571312,"velocity":0.3937007874015748},{"duration":0.14285700000002066,"midi":67,"time":117.14274,"velocity":0.3937007874015748},{"duration":0.14285700000002066,"midi":67,"time":117.14274,"velocity":0.3937007874015748},{"duration":0.14285699999999224,"midi":65,"time":117.28559700000002,"velocity":0.3937007874015748},{"duration":0.14285699999999224,"midi":65,"time":117.28559700000002,"velocity":0.3937007874015748},{"duration":0.2857139999999987,"midi":64,"time":117.42845400000002,"velocity":0.3937007874015748},{"duration":0.2857139999999987,"midi":61,"time":117.42845400000002,"velocity":0.3937007874015748},{"duration":0.2857139999999987,"midi":64,"time":117.42845400000002,"velocity":0.3937007874015748},{"duration":0.2857139999999987,"midi":61,"time":117.42845400000002,"velocity":0.3937007874015748},{"duration":0.2857139999999845,"midi":61,"time":117.71416800000002,"velocity":0.3937007874015748},{"duration":0.2857139999999845,"midi":65,"time":117.71416800000002,"velocity":0.3937007874015748},{"duration":0.2857139999999845,"midi":65,"time":117.71416800000002,"velocity":0.3937007874015748},{"duration":0.2857139999999845,"midi":61,"time":117.71416800000002,"velocity":0.3937007874015748},{"duration":0.2857140000000129,"midi":64,"time":117.999882,"velocity":0.3937007874015748},{"duration":0.2857140000000129,"midi":61,"time":117.999882,"velocity":0.3937007874015748},{"duration":0.2857140000000129,"midi":61,"time":117.999882,"velocity":0.3937007874015748},{"duration":0.2857140000000129,"midi":64,"time":117.999882,"velocity":0.3937007874015748},{"duration":0.2857139999999987,"midi":57,"time":118.28559600000001,"velocity":0.3937007874015748},{"duration":0.2857139999999987,"midi":62,"time":118.28559600000001,"velocity":0.3937007874015748},{"duration":0.2857139999999987,"midi":62,"time":118.28559600000001,"velocity":0.3937007874015748},{"duration":0.2857139999999987,"midi":57,"time":118.28559600000001,"velocity":0.3937007874015748},{"duration":0.2857139999999987,"midi":53,"time":118.28559600000001,"velocity":0.3937007874015748},{"duration":0.2857139999999987,"midi":53,"time":118.28559600000001,"velocity":0.3937007874015748},{"duration":0.14285700000002066,"midi":64,"time":118.857024,"velocity":0.3937007874015748},{"duration":0.14285700000002066,"midi":64,"time":118.857024,"velocity":0.3937007874015748},{"duration":0.14285699999999224,"midi":60,"time":118.99988100000002,"velocity":0.3937007874015748},{"duration":0.14285699999999224,"midi":60,"time":118.99988100000002,"velocity":0.3937007874015748},{"duration":0.2857140000000129,"midi":62,"time":119.14273800000001,"velocity":0.3937007874015748},{"duration":0.2857140000000129,"midi":57,"time":119.14273800000001,"velocity":0.3937007874015748},{"duration":0.2857140000000129,"midi":57,"time":119.14273800000001,"velocity":0.3937007874015748},{"duration":0.2857140000000129,"midi":62,"time":119.14273800000001,"velocity":0.3937007874015748},{"duration":0.2857140000000129,"midi":53,"time":119.14273800000001,"velocity":0.3937007874015748},{"duration":0.2857140000000129,"midi":53,"time":119.14273800000001,"velocity":0.3937007874015748},{"duration":0.14285700000000645,"midi":74,"time":119.714166,"velocity":0.3937007874015748},{"duration":0.14285700000000645,"midi":74,"time":119.714166,"velocity":0.3937007874015748},{"duration":0.14285699999999224,"midi":76,"time":119.85702300000001,"velocity":0.3937007874015748},{"duration":0.14285699999999224,"midi":76,"time":119.85702300000001,"velocity":0.3937007874015748},{"duration":0.5714279999999974,"midi":74,"time":119.99988,"velocity":0.3937007874015748},{"duration":0.5714279999999974,"midi":74,"time":119.99988,"velocity":0.3937007874015748},{"duration":0.5714279999999974,"midi":77,"time":119.99988,"velocity":0.3937007874015748},{"duration":0.5714279999999974,"midi":77,"time":119.99988,"velocity":0.3937007874015748},{"duration":0.5714279999999974,"midi":69,"time":119.99988,"velocity":0.3937007874015748},{"duration":0.5714279999999974,"midi":69,"time":119.99988,"velocity":0.3937007874015748},{"duration":0.14285700000002066,"midi":76,"time":120.571308,"velocity":0.3937007874015748},{"duration":0.14285700000002066,"midi":76,"time":120.571308,"velocity":0.3937007874015748},{"duration":0.14285699999999224,"midi":77,"time":120.71416500000002,"velocity":0.3937007874015748},{"duration":0.14285699999999224,"midi":77,"time":120.71416500000002,"velocity":0.3937007874015748},{"duration":0.2857139999999987,"midi":79,"time":120.85702200000001,"velocity":0.3937007874015748},{"duration":0.2857139999999987,"midi":72,"time":120.85702200000001,"velocity":0.3937007874015748},{"duration":0.2857139999999987,"midi":67,"time":120.85702200000001,"velocity":0.3937007874015748},{"duration":0.2857139999999987,"midi":79,"time":120.85702200000001,"velocity":0.3937007874015748},{"duration":0.2857139999999987,"midi":67,"time":120.85702200000001,"velocity":0.3937007874015748},{"duration":0.2857139999999987,"midi":72,"time":120.85702200000001,"velocity":0.3937007874015748},{"duration":0.2857139999999845,"midi":77,"time":121.14273600000001,"velocity":0.3937007874015748},{"duration":0.2857139999999845,"midi":72,"time":121.14273600000001,"velocity":0.3937007874015748},{"duration":0.2857139999999845,"midi":67,"time":121.14273600000001,"velocity":0.3937007874015748},{"duration":0.2857139999999845,"midi":77,"time":121.14273600000001,"velocity":0.3937007874015748},{"duration":0.2857139999999845,"midi":67,"time":121.14273600000001,"velocity":0.3937007874015748},{"duration":0.2857139999999845,"midi":72,"time":121.14273600000001,"velocity":0.3937007874015748},{"duration":0.2857140000000129,"midi":67,"time":121.42845,"velocity":0.3937007874015748},{"duration":0.2857140000000129,"midi":79,"time":121.42845,"velocity":0.3937007874015748},{"duration":0.2857140000000129,"midi":72,"time":121.42845,"velocity":0.3937007874015748},{"duration":0.2857140000000129,"midi":67,"time":121.42845,"velocity":0.3937007874015748},{"duration":0.2857140000000129,"midi":72,"time":121.42845,"velocity":0.3937007874015748},{"duration":0.2857140000000129,"midi":79,"time":121.42845,"velocity":0.3937007874015748},{"duration":0.2857140000000129,"midi":77,"time":121.71416400000001,"velocity":0.3937007874015748},{"duration":0.2857140000000129,"midi":81,"time":121.71416400000001,"velocity":0.3937007874015748},{"duration":0.2857140000000129,"midi":81,"time":121.71416400000001,"velocity":0.3937007874015748},{"duration":0.2857140000000129,"midi":77,"time":121.71416400000001,"velocity":0.3937007874015748},{"duration":0.2857139999999845,"midi":72,"time":121.99987800000002,"velocity":0.3937007874015748},{"duration":0.2857139999999845,"midi":79,"time":121.99987800000002,"velocity":0.3937007874015748},{"duration":0.2857139999999845,"midi":79,"time":121.99987800000002,"velocity":0.3937007874015748},{"duration":0.2857139999999845,"midi":72,"time":121.99987800000002,"velocity":0.3937007874015748},{"duration":0.2857139999999987,"midi":72,"time":122.28559200000001,"velocity":0.3937007874015748},{"duration":0.2857139999999987,"midi":72,"time":122.28559200000001,"velocity":0.3937007874015748},{"duration":0.2857139999999987,"midi":77,"time":122.28559200000001,"velocity":0.3937007874015748},{"duration":0.2857139999999987,"midi":77,"time":122.28559200000001,"velocity":0.3937007874015748},{"duration":0.2857140000000129,"midi":70,"time":122.571306,"velocity":0.3937007874015748},{"duration":0.2857140000000129,"midi":74,"time":122.571306,"velocity":0.3937007874015748},{"duration":0.2857140000000129,"midi":65,"time":122.571306,"velocity":0.3937007874015748},{"duration":0.2857140000000129,"midi":74,"time":122.571306,"velocity":0.3937007874015748},{"duration":0.2857140000000129,"midi":70,"time":122.571306,"velocity":0.3937007874015748},{"duration":0.2857140000000129,"midi":65,"time":122.571306,"velocity":0.3937007874015748},{"duration":0.14285700000002066,"midi":74,"time":123.142734,"velocity":0.3937007874015748},{"duration":0.14285700000002066,"midi":74,"time":123.142734,"velocity":0.3937007874015748},{"duration":0.14285699999997803,"midi":76,"time":123.28559100000003,"velocity":0.3937007874015748},{"duration":0.14285699999997803,"midi":76,"time":123.28559100000003,"velocity":0.3937007874015748},{"duration":0.2857140000000129,"midi":69,"time":123.428448,"velocity":0.3937007874015748},{"duration":0.2857140000000129,"midi":74,"time":123.428448,"velocity":0.3937007874015748},{"duration":0.2857140000000129,"midi":74,"time":123.428448,"velocity":0.3937007874015748},{"duration":0.2857140000000129,"midi":77,"time":123.428448,"velocity":0.3937007874015748},{"duration":0.2857140000000129,"midi":77,"time":123.428448,"velocity":0.3937007874015748},{"duration":0.2857140000000129,"midi":69,"time":123.428448,"velocity":0.3937007874015748},{"duration":0.2857139999999845,"midi":69,"time":123.71416200000002,"velocity":0.3937007874015748},{"duration":0.2857139999999845,"midi":74,"time":123.71416200000002,"velocity":0.3937007874015748},{"duration":0.2857139999999845,"midi":79,"time":123.71416200000002,"velocity":0.3937007874015748},{"duration":0.2857139999999845,"midi":69,"time":123.71416200000002,"velocity":0.3937007874015748},{"duration":0.2857139999999845,"midi":79,"time":123.71416200000002,"velocity":0.3937007874015748},{"duration":0.2857139999999845,"midi":74,"time":123.71416200000002,"velocity":0.3937007874015748},{"duration":0.2857140000000129,"midi":74,"time":123.999876,"velocity":0.3937007874015748},{"duration":0.2857140000000129,"midi":81,"time":123.999876,"velocity":0.3937007874015748},{"duration":0.2857140000000129,"midi":74,"time":123.999876,"velocity":0.3937007874015748},{"duration":0.2857140000000129,"midi":81,"time":123.999876,"velocity":0.3937007874015748},{"duration":0.2857139999999987,"midi":74,"time":124.28559000000001,"velocity":0.3937007874015748},{"duration":0.2857139999999987,"midi":82,"time":124.28559000000001,"velocity":0.3937007874015748},{"duration":0.2857139999999987,"midi":82,"time":124.28559000000001,"velocity":0.3937007874015748},{"duration":0.2857139999999987,"midi":70,"time":124.28559000000001,"velocity":0.3937007874015748},{"duration":0.2857139999999987,"midi":74,"time":124.28559000000001,"velocity":0.3937007874015748},{"duration":0.2857139999999987,"midi":70,"time":124.28559000000001,"velocity":0.3937007874015748},{"duration":0.2857139999999845,"midi":74,"time":124.57130400000001,"velocity":0.3937007874015748},{"duration":0.2857139999999845,"midi":74,"time":124.57130400000001,"velocity":0.3937007874015748},{"duration":0.2857139999999845,"midi":70,"time":124.57130400000001,"velocity":0.3937007874015748},{"duration":0.2857139999999845,"midi":70,"time":124.57130400000001,"velocity":0.3937007874015748},{"duration":0.2857140000000129,"midi":79,"time":124.857018,"velocity":0.3937007874015748},{"duration":0.2857140000000129,"midi":74,"time":124.857018,"velocity":0.3937007874015748},{"duration":0.2857140000000129,"midi":74,"time":124.857018,"velocity":0.3937007874015748},{"duration":0.2857140000000129,"midi":79,"time":124.857018,"velocity":0.3937007874015748},{"duration":0.2857140000000129,"midi":77,"time":125.14273200000001,"velocity":0.3937007874015748},{"duration":0.2857140000000129,"midi":69,"time":125.14273200000001,"velocity":0.3937007874015748},{"duration":0.2857140000000129,"midi":69,"time":125.14273200000001,"velocity":0.3937007874015748},{"duration":0.2857140000000129,"midi":77,"time":125.14273200000001,"velocity":0.3937007874015748},{"duration":0.14285700000000645,"midi":79,"time":125.71416,"velocity":0.3937007874015748},{"duration":0.14285700000000645,"midi":79,"time":125.71416,"velocity":0.3937007874015748},{"duration":0.14285699999999224,"midi":76,"time":125.85701700000001,"velocity":0.3937007874015748},{"duration":0.14285699999999224,"midi":76,"time":125.85701700000001,"velocity":0.3937007874015748},{"duration":0.2857140000000129,"midi":74,"time":125.999874,"velocity":0.3937007874015748},{"duration":0.2857140000000129,"midi":74,"time":125.999874,"velocity":0.3937007874015748},{"duration":0.2857140000000129,"midi":69,"time":125.999874,"velocity":0.3937007874015748},{"duration":0.2857140000000129,"midi":69,"time":125.999874,"velocity":0.3937007874015748},{"duration":0.14285700000002066,"midi":76,"time":126.571302,"velocity":0.3937007874015748},{"duration":0.14285700000002066,"midi":76,"time":126.571302,"velocity":0.3937007874015748},{"duration":0.14285699999999224,"midi":73,"time":126.71415900000002,"velocity":0.3937007874015748},{"duration":0.14285699999999224,"midi":73,"time":126.71415900000002,"velocity":0.3937007874015748},{"duration":0.14285699999999224,"midi":62,"time":126.85701600000002,"velocity":0.3937007874015748},{"duration":0.14285699999999224,"midi":62,"time":126.85701600000002,"velocity":0.3937007874015748},{"duration":0.14285699999999224,"midi":74,"time":126.85701600000002,"velocity":0.3937007874015748},{"duration":0.14285699999999224,"midi":74,"time":126.85701600000002,"velocity":0.3937007874015748},{"duration":0.14285700000000645,"midi":60,"time":126.99987300000001,"velocity":0.3937007874015748},{"duration":0.14285700000000645,"midi":72,"time":126.99987300000001,"velocity":0.3937007874015748},{"duration":0.14285700000000645,"midi":60,"time":126.99987300000001,"velocity":0.3937007874015748},{"duration":0.14285700000000645,"midi":72,"time":126.99987300000001,"velocity":0.3937007874015748},{"duration":0.14285699999999224,"midi":62,"time":127.14273000000001,"velocity":0.3937007874015748},{"duration":0.14285699999999224,"midi":74,"time":127.14273000000001,"velocity":0.3937007874015748},{"duration":0.14285699999999224,"midi":62,"time":127.14273000000001,"velocity":0.3937007874015748},{"duration":0.14285699999999224,"midi":74,"time":127.14273000000001,"velocity":0.3937007874015748},{"duration":0.14285699999999224,"midi":64,"time":127.285587,"velocity":0.3937007874015748},{"duration":0.14285699999999224,"midi":64,"time":127.285587,"velocity":0.3937007874015748},{"duration":0.14285699999999224,"midi":76,"time":127.285587,"velocity":0.3937007874015748},{"duration":0.14285699999999224,"midi":76,"time":127.285587,"velocity":0.3937007874015748},{"duration":0.14285700000002066,"midi":74,"time":127.428444,"velocity":0.3937007874015748},{"duration":0.14285700000002066,"midi":74,"time":127.428444,"velocity":0.3937007874015748},{"duration":0.14285700000002066,"midi":62,"time":127.428444,"velocity":0.3937007874015748},{"duration":0.14285700000002066,"midi":62,"time":127.428444,"velocity":0.3937007874015748},{"duration":0.14285699999999224,"midi":76,"time":127.57130100000002,"velocity":0.3937007874015748},{"duration":0.14285699999999224,"midi":76,"time":127.57130100000002,"velocity":0.3937007874015748},{"duration":0.14285699999999224,"midi":64,"time":127.57130100000002,"velocity":0.3937007874015748},{"duration":0.14285699999999224,"midi":64,"time":127.57130100000002,"velocity":0.3937007874015748},{"duration":0.14285699999999224,"midi":65,"time":127.71415800000001,"velocity":0.3937007874015748},{"duration":0.14285699999999224,"midi":65,"time":127.71415800000001,"velocity":0.3937007874015748},{"duration":0.14285699999999224,"midi":77,"time":127.71415800000001,"velocity":0.3937007874015748},{"duration":0.14285699999999224,"midi":77,"time":127.71415800000001,"velocity":0.3937007874015748},{"duration":0.14285700000002066,"midi":64,"time":127.857015,"velocity":0.3937007874015748},{"duration":0.14285700000002066,"midi":76,"time":127.857015,"velocity":0.3937007874015748},{"duration":0.14285700000002066,"midi":64,"time":127.857015,"velocity":0.3937007874015748},{"duration":0.14285700000002066,"midi":76,"time":127.857015,"velocity":0.3937007874015748},{"duration":0.14285699999997803,"midi":77,"time":127.99987200000002,"velocity":0.3937007874015748},{"duration":0.14285699999997803,"midi":65,"time":127.99987200000002,"velocity":0.3937007874015748},{"duration":0.14285699999997803,"midi":65,"time":127.99987200000002,"velocity":0.3937007874015748},{"duration":0.14285699999997803,"midi":77,"time":127.99987200000002,"velocity":0.3937007874015748},{"duration":0.14285699999999224,"midi":67,"time":128.142729,"velocity":0.3937007874015748},{"duration":0.14285699999999224,"midi":79,"time":128.142729,"velocity":0.3937007874015748},{"duration":0.14285699999999224,"midi":79,"time":128.142729,"velocity":0.3937007874015748},{"duration":0.14285699999999224,"midi":67,"time":128.142729,"velocity":0.3937007874015748},{"duration":0.14285700000002066,"midi":77,"time":128.285586,"velocity":0.3937007874015748},{"duration":0.14285700000002066,"midi":65,"time":128.285586,"velocity":0.3937007874015748},{"duration":0.14285700000002066,"midi":77,"time":128.285586,"velocity":0.3937007874015748},{"duration":0.14285700000002066,"midi":65,"time":128.285586,"velocity":0.3937007874015748},{"duration":0.14285699999999224,"midi":79,"time":128.42844300000002,"velocity":0.3937007874015748},{"duration":0.14285699999999224,"midi":79,"time":128.42844300000002,"velocity":0.3937007874015748},{"duration":0.14285699999999224,"midi":67,"time":128.42844300000002,"velocity":0.3937007874015748},{"duration":0.14285699999999224,"midi":67,"time":128.42844300000002,"velocity":0.3937007874015748},{"duration":0.14285699999999224,"midi":81,"time":128.5713,"velocity":0.3937007874015748},{"duration":0.14285699999999224,"midi":69,"time":128.5713,"velocity":0.3937007874015748},{"duration":0.14285699999999224,"midi":81,"time":128.5713,"velocity":0.3937007874015748},{"duration":0.14285699999999224,"midi":69,"time":128.5713,"velocity":0.3937007874015748},{"duration":0.14285699999999224,"midi":81,"time":128.85701400000002,"velocity":0.3937007874015748},{"duration":0.14285699999999224,"midi":81,"time":128.85701400000002,"velocity":0.3937007874015748},{"duration":0.14285699999999224,"midi":69,"time":128.85701400000002,"velocity":0.3937007874015748},{"duration":0.14285699999999224,"midi":69,"time":128.85701400000002,"velocity":0.3937007874015748},{"duration":0.14285699999999224,"midi":81,"time":128.999871,"velocity":0.3937007874015748},{"duration":0.14285699999999224,"midi":69,"time":128.999871,"velocity":0.3937007874015748},{"duration":0.14285699999999224,"midi":69,"time":128.999871,"velocity":0.3937007874015748},{"duration":0.14285699999999224,"midi":81,"time":128.999871,"velocity":0.3937007874015748},{"duration":0.14285700000002066,"midi":69,"time":129.142728,"velocity":0.3937007874015748},{"duration":0.14285700000002066,"midi":81,"time":129.142728,"velocity":0.3937007874015748},{"duration":0.14285700000002066,"midi":81,"time":129.142728,"velocity":0.3937007874015748},{"duration":0.14285700000002066,"midi":69,"time":129.142728,"velocity":0.3937007874015748},{"duration":0.14285699999999224,"midi":81,"time":129.42844200000002,"velocity":0.3937007874015748},{"duration":0.14285699999999224,"midi":69,"time":129.42844200000002,"velocity":0.3937007874015748},{"duration":0.14285699999999224,"midi":81,"time":129.42844200000002,"velocity":0.3937007874015748},{"duration":0.14285699999999224,"midi":69,"time":129.42844200000002,"velocity":0.3937007874015748},{"duration":0.14285699999999224,"midi":81,"time":129.71415600000003,"velocity":0.3937007874015748},{"duration":0.14285699999999224,"midi":69,"time":129.71415600000003,"velocity":0.3937007874015748},{"duration":0.14285699999999224,"midi":81,"time":129.71415600000003,"velocity":0.3937007874015748},{"duration":0.14285699999999224,"midi":69,"time":129.71415600000003,"velocity":0.3937007874015748},{"duration":0.14285699999999224,"midi":82,"time":129.99987000000002,"velocity":0.3937007874015748},{"duration":0.14285699999999224,"midi":70,"time":129.99987000000002,"velocity":0.3937007874015748},{"duration":0.14285699999999224,"midi":70,"time":129.99987000000002,"velocity":0.3937007874015748},{"duration":0.14285699999999224,"midi":82,"time":129.99987000000002,"velocity":0.3937007874015748},{"duration":0.14285699999999224,"midi":81,"time":130.285584,"velocity":0.3937007874015748},{"duration":0.14285699999999224,"midi":69,"time":130.285584,"velocity":0.3937007874015748},{"duration":0.14285699999999224,"midi":81,"time":130.285584,"velocity":0.3937007874015748},{"duration":0.14285699999999224,"midi":69,"time":130.285584,"velocity":0.3937007874015748},{"duration":0.14285699999999224,"midi":69,"time":130.571298,"velocity":0.3937007874015748},{"duration":0.14285699999999224,"midi":81,"time":130.571298,"velocity":0.3937007874015748},{"duration":0.14285699999999224,"midi":81,"time":130.571298,"velocity":0.3937007874015748},{"duration":0.14285699999999224,"midi":69,"time":130.571298,"velocity":0.3937007874015748},{"duration":0.14285699999999224,"midi":81,"time":130.714155,"velocity":0.3937007874015748},{"duration":0.14285699999999224,"midi":69,"time":130.714155,"velocity":0.3937007874015748},{"duration":0.14285699999999224,"midi":69,"time":130.714155,"velocity":0.3937007874015748},{"duration":0.14285699999999224,"midi":81,"time":130.714155,"velocity":0.3937007874015748},{"duration":0.14285700000002066,"midi":81,"time":130.857012,"velocity":0.3937007874015748},{"duration":0.14285700000002066,"midi":69,"time":130.857012,"velocity":0.3937007874015748},{"duration":0.14285700000002066,"midi":81,"time":130.857012,"velocity":0.3937007874015748},{"duration":0.14285700000002066,"midi":69,"time":130.857012,"velocity":0.3937007874015748},{"duration":0.14285699999999224,"midi":69,"time":131.142726,"velocity":0.3937007874015748},{"duration":0.14285699999999224,"midi":81,"time":131.142726,"velocity":0.3937007874015748},{"duration":0.14285699999999224,"midi":69,"time":131.142726,"velocity":0.3937007874015748},{"duration":0.14285699999999224,"midi":81,"time":131.142726,"velocity":0.3937007874015748},{"duration":0.14285699999999224,"midi":69,"time":131.42844000000002,"velocity":0.3937007874015748},{"duration":0.14285699999999224,"midi":81,"time":131.42844000000002,"velocity":0.3937007874015748},{"duration":0.14285699999999224,"midi":81,"time":131.42844000000002,"velocity":0.3937007874015748},{"duration":0.14285699999999224,"midi":69,"time":131.42844000000002,"velocity":0.3937007874015748},{"duration":0.14285700000002066,"midi":84,"time":131.714154,"velocity":0.3937007874015748},{"duration":0.14285700000002066,"midi":72,"time":131.714154,"velocity":0.3937007874015748},{"duration":0.14285700000002066,"midi":72,"time":131.714154,"velocity":0.3937007874015748},{"duration":0.14285700000002066,"midi":84,"time":131.714154,"velocity":0.3937007874015748},{"duration":0.8571419999999819,"midi":81,"time":131.99986800000002,"velocity":0.3937007874015748},{"duration":0.8571419999999819,"midi":74,"time":131.99986800000002,"velocity":0.3937007874015748},{"duration":0.8571419999999819,"midi":81,"time":131.99986800000002,"velocity":0.3937007874015748},{"duration":0.8571419999999819,"midi":77,"time":131.99986800000002,"velocity":0.3937007874015748},{"duration":0.8571419999999819,"midi":74,"time":131.99986800000002,"velocity":0.3937007874015748},{"duration":0.8571419999999819,"midi":77,"time":131.99986800000002,"velocity":0.3937007874015748},{"duration":0.8571420000000103,"midi":82,"time":132.85701,"velocity":0.3937007874015748},{"duration":0.8571420000000103,"midi":77,"time":132.85701,"velocity":0.3937007874015748},{"duration":0.8571420000000103,"midi":77,"time":132.85701,"velocity":0.3937007874015748},{"duration":0.8571420000000103,"midi":74,"time":132.85701,"velocity":0.3937007874015748},{"duration":0.8571420000000103,"midi":82,"time":132.85701,"velocity":0.3937007874015748},{"duration":0.8571420000000103,"midi":74,"time":132.85701,"velocity":0.3937007874015748},{"duration":0.2857140000000129,"midi":81,"time":133.714152,"velocity":0.3937007874015748},{"duration":0.2857140000000129,"midi":72,"time":133.714152,"velocity":0.3937007874015748},{"duration":0.2857140000000129,"midi":72,"time":133.714152,"velocity":0.3937007874015748},{"duration":0.2857140000000129,"midi":77,"time":133.714152,"velocity":0.3937007874015748},{"duration":0.2857140000000129,"midi":81,"time":133.714152,"velocity":0.3937007874015748},{"duration":0.2857140000000129,"midi":77,"time":133.714152,"velocity":0.3937007874015748},{"duration":0.2857139999999845,"midi":81,"time":133.99986600000003,"velocity":0.3937007874015748},{"duration":0.2857139999999845,"midi":72,"time":133.99986600000003,"velocity":0.3937007874015748},{"duration":0.2857139999999845,"midi":81,"time":133.99986600000003,"velocity":0.3937007874015748},{"duration":0.2857139999999845,"midi":77,"time":133.99986600000003,"velocity":0.3937007874015748},{"duration":0.2857139999999845,"midi":77,"time":133.99986600000003,"velocity":0.3937007874015748},{"duration":0.2857139999999845,"midi":72,"time":133.99986600000003,"velocity":0.3937007874015748},{"duration":0.2857140000000129,"midi":77,"time":134.28558,"velocity":0.3937007874015748},{"duration":0.2857140000000129,"midi":81,"time":134.28558,"velocity":0.3937007874015748},{"duration":0.2857140000000129,"midi":77,"time":134.28558,"velocity":0.3937007874015748},{"duration":0.2857140000000129,"midi":72,"time":134.28558,"velocity":0.3937007874015748},{"duration":0.2857140000000129,"midi":72,"time":134.28558,"velocity":0.3937007874015748},{"duration":0.2857140000000129,"midi":81,"time":134.28558,"velocity":0.3937007874015748},{"duration":0.14285699999999224,"midi":77,"time":134.57129400000002,"velocity":0.3937007874015748},{"duration":0.14285699999999224,"midi":77,"time":134.57129400000002,"velocity":0.3937007874015748},{"duration":0.14285699999999224,"midi":72,"time":134.57129400000002,"velocity":0.3937007874015748},{"duration":0.14285699999999224,"midi":72,"time":134.57129400000002,"velocity":0.3937007874015748},{"duration":0.14285699999999224,"midi":81,"time":134.57129400000002,"velocity":0.3937007874015748},{"duration":0.14285699999999224,"midi":81,"time":134.57129400000002,"velocity":0.3937007874015748},{"duration":0.2857139999999845,"midi":79,"time":134.71415100000002,"velocity":0.3937007874015748},{"duration":0.2857139999999845,"midi":72,"time":134.71415100000002,"velocity":0.3937007874015748},{"duration":0.2857139999999845,"midi":79,"time":134.71415100000002,"velocity":0.3937007874015748},{"duration":0.2857139999999845,"midi":72,"time":134.71415100000002,"velocity":0.3937007874015748},{"duration":0.2857139999999845,"midi":76,"time":134.71415100000002,"velocity":0.3937007874015748},{"duration":0.2857139999999845,"midi":76,"time":134.71415100000002,"velocity":0.3937007874015748},{"duration":0.8571420000000103,"midi":79,"time":135.428436,"velocity":0.3937007874015748},{"duration":0.8571420000000103,"midi":74,"time":135.428436,"velocity":0.3937007874015748},{"duration":0.8571420000000103,"midi":70,"time":135.428436,"velocity":0.3937007874015748},{"duration":0.8571420000000103,"midi":70,"time":135.428436,"velocity":0.3937007874015748},{"duration":0.8571420000000103,"midi":74,"time":135.428436,"velocity":0.3937007874015748},{"duration":0.8571420000000103,"midi":79,"time":135.428436,"velocity":0.3937007874015748},{"duration":0.8571419999999819,"midi":74,"time":136.28557800000002,"velocity":0.3937007874015748},{"duration":0.8571419999999819,"midi":69,"time":136.28557800000002,"velocity":0.3937007874015748},{"duration":0.8571419999999819,"midi":77,"time":136.28557800000002,"velocity":0.3937007874015748},{"duration":0.8571419999999819,"midi":77,"time":136.28557800000002,"velocity":0.3937007874015748},{"duration":0.8571419999999819,"midi":74,"time":136.28557800000002,"velocity":0.3937007874015748},{"duration":0.8571419999999819,"midi":69,"time":136.28557800000002,"velocity":0.3937007874015748},{"duration":0.2857140000000129,"midi":73,"time":137.14272,"velocity":0.3937007874015748},{"duration":0.2857140000000129,"midi":76,"time":137.14272,"velocity":0.3937007874015748},{"duration":0.2857140000000129,"midi":76,"time":137.14272,"velocity":0.3937007874015748},{"duration":0.2857140000000129,"midi":73,"time":137.14272,"velocity":0.3937007874015748},{"duration":0.2857140000000129,"midi":69,"time":137.14272,"velocity":0.3937007874015748},{"duration":0.2857140000000129,"midi":69,"time":137.14272,"velocity":0.3937007874015748},{"duration":0.2857139999999845,"midi":69,"time":137.428434,"velocity":0.3937007874015748},{"duration":0.2857139999999845,"midi":73,"time":137.428434,"velocity":0.3937007874015748},{"duration":0.2857139999999845,"midi":77,"time":137.428434,"velocity":0.3937007874015748},{"duration":0.2857139999999845,"midi":77,"time":137.428434,"velocity":0.3937007874015748},{"duration":0.2857139999999845,"midi":73,"time":137.428434,"velocity":0.3937007874015748},{"duration":0.2857139999999845,"midi":69,"time":137.428434,"velocity":0.3937007874015748},{"duration":0.2857140000000129,"midi":69,"time":137.714148,"velocity":0.3937007874015748},{"duration":0.2857140000000129,"midi":73,"time":137.714148,"velocity":0.3937007874015748},{"duration":0.2857140000000129,"midi":76,"time":137.714148,"velocity":0.3937007874015748},{"duration":0.2857140000000129,"midi":76,"time":137.714148,"velocity":0.3937007874015748},{"duration":0.2857140000000129,"midi":69,"time":137.714148,"velocity":0.3937007874015748},{"duration":0.2857140000000129,"midi":73,"time":137.714148,"velocity":0.3937007874015748},{"duration":0.42857100000000514,"midi":69,"time":137.999862,"velocity":0.3937007874015748},{"duration":0.14285699999999224,"midi":76,"time":137.999862,"velocity":0.3937007874015748},{"duration":0.42857100000000514,"midi":69,"time":137.999862,"velocity":0.3937007874015748},{"duration":0.14285699999999224,"midi":76,"time":137.999862,"velocity":0.3937007874015748},{"duration":0.2857140000000129,"midi":74,"time":138.142719,"velocity":0.3937007874015748},{"duration":0.2857140000000129,"midi":74,"time":138.142719,"velocity":0.3937007874015748},{"duration":0.14285699999999224,"midi":62,"time":138.428433,"velocity":0.3937007874015748},{"duration":0.14285699999999224,"midi":74,"time":138.428433,"velocity":0.3937007874015748},{"duration":0.14285699999999224,"midi":74,"time":138.428433,"velocity":0.3937007874015748},{"duration":0.14285699999999224,"midi":62,"time":138.428433,"velocity":0.3937007874015748},{"duration":0.14285700000002066,"midi":76,"time":138.57129,"velocity":0.3937007874015748},{"duration":0.14285700000002066,"midi":64,"time":138.57129,"velocity":0.3937007874015748},{"duration":0.14285700000002066,"midi":64,"time":138.57129,"velocity":0.3937007874015748},{"duration":0.14285700000002066,"midi":76,"time":138.57129,"velocity":0.3937007874015748},{"duration":0.14285699999999224,"midi":65,"time":138.71414700000003,"velocity":0.3937007874015748},{"duration":0.14285699999999224,"midi":77,"time":138.71414700000003,"velocity":0.3937007874015748},{"duration":0.14285699999999224,"midi":77,"time":138.71414700000003,"velocity":0.3937007874015748},{"duration":0.14285699999999224,"midi":65,"time":138.71414700000003,"velocity":0.3937007874015748},{"duration":0.42857100000000514,"midi":74,"time":138.85700400000002,"velocity":0.3937007874015748},{"duration":0.42857100000000514,"midi":69,"time":138.85700400000002,"velocity":0.3937007874015748},{"duration":0.42857100000000514,"midi":77,"time":138.85700400000002,"velocity":0.3937007874015748},{"duration":0.42857100000000514,"midi":77,"time":138.85700400000002,"velocity":0.3937007874015748},{"duration":0.42857100000000514,"midi":74,"time":138.85700400000002,"velocity":0.3937007874015748},{"duration":0.42857100000000514,"midi":81,"time":138.85700400000002,"velocity":0.3937007874015748},{"duration":0.42857100000000514,"midi":69,"time":138.85700400000002,"velocity":0.3937007874015748},{"duration":0.42857100000000514,"midi":81,"time":138.85700400000002,"velocity":0.3937007874015748},{"duration":0.14285699999999224,"midi":62,"time":139.28557500000002,"velocity":0.3937007874015748},{"duration":0.14285699999999224,"midi":74,"time":139.28557500000002,"velocity":0.3937007874015748},{"duration":0.14285699999999224,"midi":74,"time":139.28557500000002,"velocity":0.3937007874015748},{"duration":0.14285699999999224,"midi":62,"time":139.28557500000002,"velocity":0.3937007874015748},{"duration":0.14285699999999224,"midi":64,"time":139.42843200000002,"velocity":0.3937007874015748},{"duration":0.14285699999999224,"midi":64,"time":139.42843200000002,"velocity":0.3937007874015748},{"duration":0.14285699999999224,"midi":76,"time":139.42843200000002,"velocity":0.3937007874015748},{"duration":0.14285699999999224,"midi":76,"time":139.42843200000002,"velocity":0.3937007874015748},{"duration":0.14285699999999224,"midi":65,"time":139.571289,"velocity":0.3937007874015748},{"duration":0.14285699999999224,"midi":77,"time":139.571289,"velocity":0.3937007874015748},{"duration":0.14285699999999224,"midi":65,"time":139.571289,"velocity":0.3937007874015748},{"duration":0.14285699999999224,"midi":77,"time":139.571289,"velocity":0.3937007874015748},{"duration":0.42857100000000514,"midi":74,"time":139.714146,"velocity":0.3937007874015748},{"duration":0.42857100000000514,"midi":77,"time":139.714146,"velocity":0.3937007874015748},{"duration":0.42857100000000514,"midi":74,"time":139.714146,"velocity":0.3937007874015748},{"duration":0.42857100000000514,"midi":82,"time":139.714146,"velocity":0.3937007874015748},{"duration":0.42857100000000514,"midi":70,"time":139.714146,"velocity":0.3937007874015748},{"duration":0.42857100000000514,"midi":70,"time":139.714146,"velocity":0.3937007874015748},{"duration":0.42857100000000514,"midi":77,"time":139.714146,"velocity":0.3937007874015748},{"duration":0.42857100000000514,"midi":82,"time":139.714146,"velocity":0.3937007874015748},{"duration":0.14285699999999224,"midi":74,"time":140.142717,"velocity":0.3937007874015748},{"duration":0.14285699999999224,"midi":62,"time":140.142717,"velocity":0.3937007874015748},{"duration":0.14285699999999224,"midi":74,"time":140.142717,"velocity":0.3937007874015748},{"duration":0.14285699999999224,"midi":62,"time":140.142717,"velocity":0.3937007874015748},{"duration":0.14285700000002066,"midi":76,"time":140.285574,"velocity":0.3937007874015748},{"duration":0.14285700000002066,"midi":76,"time":140.285574,"velocity":0.3937007874015748},{"duration":0.14285700000002066,"midi":64,"time":140.285574,"velocity":0.3937007874015748},{"duration":0.14285700000002066,"midi":64,"time":140.285574,"velocity":0.3937007874015748},{"duration":0.14285699999999224,"midi":65,"time":140.42843100000002,"velocity":0.3937007874015748},{"duration":0.14285699999999224,"midi":77,"time":140.42843100000002,"velocity":0.3937007874015748},{"duration":0.14285699999999224,"midi":65,"time":140.42843100000002,"velocity":0.3937007874015748},{"duration":0.14285699999999224,"midi":77,"time":140.42843100000002,"velocity":0.3937007874015748},{"duration":0.2857140000000129,"midi":77,"time":140.571288,"velocity":0.3937007874015748},{"duration":0.2857140000000129,"midi":69,"time":140.571288,"velocity":0.3937007874015748},{"duration":0.2857140000000129,"midi":72,"time":140.571288,"velocity":0.3937007874015748},{"duration":0.2857140000000129,"midi":77,"time":140.571288,"velocity":0.3937007874015748},{"duration":0.2857140000000129,"midi":72,"time":140.571288,"velocity":0.3937007874015748},{"duration":0.2857140000000129,"midi":81,"time":140.571288,"velocity":0.3937007874015748},{"duration":0.2857140000000129,"midi":69,"time":140.571288,"velocity":0.3937007874015748},{"duration":0.2857140000000129,"midi":81,"time":140.571288,"velocity":0.3937007874015748},{"duration":0.2857139999999845,"midi":72,"time":140.85700200000002,"velocity":0.3937007874015748},{"duration":0.2857139999999845,"midi":81,"time":140.85700200000002,"velocity":0.3937007874015748},{"duration":0.2857139999999845,"midi":72,"time":140.85700200000002,"velocity":0.3937007874015748},{"duration":0.2857139999999845,"midi":77,"time":140.85700200000002,"velocity":0.3937007874015748},{"duration":0.2857139999999845,"midi":81,"time":140.85700200000002,"velocity":0.3937007874015748},{"duration":0.2857139999999845,"midi":69,"time":140.85700200000002,"velocity":0.3937007874015748},{"duration":0.2857139999999845,"midi":69,"time":140.85700200000002,"velocity":0.3937007874015748},{"duration":0.2857139999999845,"midi":77,"time":140.85700200000002,"velocity":0.3937007874015748},{"duration":0.2857140000000129,"midi":84,"time":141.142716,"velocity":0.3937007874015748},{"duration":0.2857140000000129,"midi":81,"time":141.142716,"velocity":0.3937007874015748},{"duration":0.2857140000000129,"midi":77,"time":141.142716,"velocity":0.3937007874015748},{"duration":0.2857140000000129,"midi":72,"time":141.142716,"velocity":0.3937007874015748},{"duration":0.2857140000000129,"midi":84,"time":141.142716,"velocity":0.3937007874015748},{"duration":0.2857140000000129,"midi":81,"time":141.142716,"velocity":0.3937007874015748},{"duration":0.2857140000000129,"midi":77,"time":141.142716,"velocity":0.3937007874015748},{"duration":0.2857140000000129,"midi":72,"time":141.142716,"velocity":0.3937007874015748},{"duration":0.14285699999999224,"midi":81,"time":141.42843000000002,"velocity":0.3937007874015748},{"duration":0.14285699999999224,"midi":77,"time":141.42843000000002,"velocity":0.3937007874015748},{"duration":0.14285699999999224,"midi":69,"time":141.42843000000002,"velocity":0.3937007874015748},{"duration":0.14285699999999224,"midi":72,"time":141.42843000000002,"velocity":0.3937007874015748},{"duration":0.14285699999999224,"midi":69,"time":141.42843000000002,"velocity":0.3937007874015748},{"duration":0.14285699999999224,"midi":81,"time":141.42843000000002,"velocity":0.3937007874015748},{"duration":0.14285699999999224,"midi":72,"time":141.42843000000002,"velocity":0.3937007874015748},{"duration":0.14285699999999224,"midi":77,"time":141.42843000000002,"velocity":0.3937007874015748},{"duration":0.14285700000002066,"midi":79,"time":141.571287,"velocity":0.3937007874015748},{"duration":0.14285700000002066,"midi":67,"time":141.571287,"velocity":0.3937007874015748},{"duration":0.14285700000002066,"midi":79,"time":141.571287,"velocity":0.3937007874015748},{"duration":0.14285700000002066,"midi":67,"time":141.571287,"velocity":0.3937007874015748},{"duration":0.8571420000000103,"midi":70,"time":142.285572,"velocity":0.3937007874015748},{"duration":0.8571420000000103,"midi":70,"time":142.285572,"velocity":0.3937007874015748},{"duration":0.8571420000000103,"midi":67,"time":142.285572,"velocity":0.3937007874015748},{"duration":0.8571420000000103,"midi":74,"time":142.285572,"velocity":0.3937007874015748},{"duration":0.8571420000000103,"midi":74,"time":142.285572,"velocity":0.3937007874015748},{"duration":0.8571420000000103,"midi":79,"time":142.285572,"velocity":0.3937007874015748},{"duration":0.8571420000000103,"midi":67,"time":142.285572,"velocity":0.3937007874015748},{"duration":0.8571420000000103,"midi":79,"time":142.285572,"velocity":0.3937007874015748},{"duration":0.8571420000000103,"midi":69,"time":143.142714,"velocity":0.3937007874015748},{"duration":0.8571420000000103,"midi":74,"time":143.142714,"velocity":0.3937007874015748},{"duration":0.8571420000000103,"midi":69,"time":143.142714,"velocity":0.3937007874015748},{"duration":0.8571420000000103,"midi":77,"time":143.142714,"velocity":0.3937007874015748},{"duration":0.8571420000000103,"midi":65,"time":143.142714,"velocity":0.3937007874015748},{"duration":0.8571420000000103,"midi":77,"time":143.142714,"velocity":0.3937007874015748},{"duration":0.8571420000000103,"midi":65,"time":143.142714,"velocity":0.3937007874015748},{"duration":0.8571420000000103,"midi":74,"time":143.142714,"velocity":0.3937007874015748},{"duration":0.2857139999999845,"midi":73,"time":143.99985600000002,"velocity":0.3937007874015748},{"duration":0.2857139999999845,"midi":76,"time":143.99985600000002,"velocity":0.3937007874015748},{"duration":0.2857139999999845,"midi":64,"time":143.99985600000002,"velocity":0.3937007874015748},{"duration":0.2857139999999845,"midi":69,"time":143.99985600000002,"velocity":0.3937007874015748},{"duration":0.2857139999999845,"midi":69,"time":143.99985600000002,"velocity":0.3937007874015748},{"duration":0.2857139999999845,"midi":76,"time":143.99985600000002,"velocity":0.3937007874015748},{"duration":0.2857139999999845,"midi":64,"time":143.99985600000002,"velocity":0.3937007874015748},{"duration":0.2857139999999845,"midi":73,"time":143.99985600000002,"velocity":0.3937007874015748},{"duration":0.2857139999999845,"midi":65,"time":144.28557,"velocity":0.3937007874015748},{"duration":0.2857139999999845,"midi":69,"time":144.28557,"velocity":0.3937007874015748},{"duration":0.2857139999999845,"midi":65,"time":144.28557,"velocity":0.3937007874015748},{"duration":0.2857139999999845,"midi":77,"time":144.28557,"velocity":0.3937007874015748},{"duration":0.2857139999999845,"midi":73,"time":144.28557,"velocity":0.3937007874015748},{"duration":0.2857139999999845,"midi":69,"time":144.28557,"velocity":0.3937007874015748},{"duration":0.2857139999999845,"midi":77,"time":144.28557,"velocity":0.3937007874015748},{"duration":0.2857139999999845,"midi":73,"time":144.28557,"velocity":0.3937007874015748},{"duration":0.2857140000000129,"midi":64,"time":144.571284,"velocity":0.3937007874015748},{"duration":0.2857140000000129,"midi":76,"time":144.571284,"velocity":0.3937007874015748},{"duration":0.2857140000000129,"midi":73,"time":144.571284,"velocity":0.3937007874015748},{"duration":0.2857140000000129,"midi":76,"time":144.571284,"velocity":0.3937007874015748},{"duration":0.2857140000000129,"midi":69,"time":144.571284,"velocity":0.3937007874015748},{"duration":0.2857140000000129,"midi":73,"time":144.571284,"velocity":0.3937007874015748},{"duration":0.2857140000000129,"midi":69,"time":144.571284,"velocity":0.3937007874015748},{"duration":0.2857140000000129,"midi":64,"time":144.571284,"velocity":0.3937007874015748},{"duration":0.42857100000000514,"midi":69,"time":144.856998,"velocity":0.3937007874015748},{"duration":0.42857100000000514,"midi":74,"time":144.856998,"velocity":0.3937007874015748},{"duration":0.42857100000000514,"midi":69,"time":144.856998,"velocity":0.3937007874015748},{"duration":0.42857100000000514,"midi":74,"time":144.856998,"velocity":0.3937007874015748},{"duration":0.42857100000000514,"midi":62,"time":144.856998,"velocity":0.3937007874015748},{"duration":0.42857100000000514,"midi":65,"time":144.856998,"velocity":0.3937007874015748},{"duration":0.42857100000000514,"midi":65,"time":144.856998,"velocity":0.3937007874015748},{"duration":0.42857100000000514,"midi":62,"time":144.856998,"velocity":0.3937007874015748},{"duration":1.7142839999999921,"midi":62,"time":145.71414000000001,"velocity":0.3937007874015748},{"duration":1.7142839999999921,"midi":62,"time":145.71414000000001,"velocity":0.3937007874015748}]},{"instrument":{"family":"strings","number":45,"name":"pizzicato strings"},"notes":[{"duration":0.8571419999999996,"midi":50,"time":3.4285680000000003,"velocity":0.3937007874015748},{"duration":0.8571419999999996,"midi":38,"time":3.4285680000000003,"velocity":0.3937007874015748},{"duration":0.4285710000000007,"midi":50,"time":4.28571,"velocity":0.3937007874015748},{"duration":0.4285710000000007,"midi":38,"time":4.28571,"velocity":0.3937007874015748},{"duration":0.4285709999999998,"midi":38,"time":4.714281000000001,"velocity":0.3937007874015748},{"duration":0.4285709999999998,"midi":50,"time":4.714281000000001,"velocity":0.3937007874015748},{"duration":0.2857139999999996,"midi":50,"time":5.142852,"velocity":0.3937007874015748},{"duration":0.2857139999999996,"midi":38,"time":5.142852,"velocity":0.3937007874015748},{"duration":0.14285700000000023,"midi":50,"time":5.428566,"velocity":0.3937007874015748},{"duration":0.14285700000000023,"midi":38,"time":5.428566,"velocity":0.3937007874015748},{"duration":0.2857139999999996,"midi":38,"time":5.571423,"velocity":0.3937007874015748},{"duration":0.2857139999999996,"midi":50,"time":5.571423,"velocity":0.3937007874015748},{"duration":0.14285700000000112,"midi":48,"time":5.857137,"velocity":0.3937007874015748},{"duration":0.14285700000000112,"midi":36,"time":5.857137,"velocity":0.3937007874015748},{"duration":0.2857139999999996,"midi":34,"time":5.999994000000001,"velocity":0.3937007874015748},{"duration":0.2857139999999996,"midi":46,"time":5.999994000000001,"velocity":0.3937007874015748},{"duration":0.14285700000000023,"midi":46,"time":6.2857080000000005,"velocity":0.3937007874015748},{"duration":0.14285700000000023,"midi":34,"time":6.2857080000000005,"velocity":0.3937007874015748},{"duration":0.2857139999999996,"midi":34,"time":6.428565000000001,"velocity":0.3937007874015748},{"duration":0.2857139999999996,"midi":46,"time":6.428565000000001,"velocity":0.3937007874015748},{"duration":0.14285700000000023,"midi":34,"time":6.714279,"velocity":0.3937007874015748},{"duration":0.14285700000000023,"midi":46,"time":6.714279,"velocity":0.3937007874015748},{"duration":0.28571400000000047,"midi":33,"time":6.857136000000001,"velocity":0.3937007874015748},{"duration":0.28571400000000047,"midi":45,"time":6.857136000000001,"velocity":0.3937007874015748},{"duration":0.14285699999999935,"midi":45,"time":7.142850000000001,"velocity":0.3937007874015748},{"duration":0.14285699999999935,"midi":33,"time":7.142850000000001,"velocity":0.3937007874015748},{"duration":0.28571400000000047,"midi":33,"time":7.285707,"velocity":0.3937007874015748},{"duration":0.28571400000000047,"midi":45,"time":7.285707,"velocity":0.3937007874015748},{"duration":0.14285699999999935,"midi":45,"time":7.571421000000001,"velocity":0.3937007874015748},{"duration":0.14285699999999935,"midi":33,"time":7.571421000000001,"velocity":0.3937007874015748},{"duration":0.28571400000000136,"midi":38,"time":7.714278,"velocity":0.3937007874015748},{"duration":0.28571400000000136,"midi":50,"time":7.714278,"velocity":0.3937007874015748},{"duration":0.14285699999999846,"midi":38,"time":7.9999920000000015,"velocity":0.3937007874015748},{"duration":0.14285699999999846,"midi":50,"time":7.9999920000000015,"velocity":0.3937007874015748},{"duration":0.28571400000000047,"midi":38,"time":8.142849,"velocity":0.3937007874015748},{"duration":0.28571400000000047,"midi":45,"time":8.142849,"velocity":0.3937007874015748},{"duration":0.14285699999999935,"midi":45,"time":8.428563,"velocity":0.3937007874015748},{"duration":0.14285699999999935,"midi":38,"time":8.428563,"velocity":0.3937007874015748},{"duration":0.28571400000000224,"midi":46,"time":8.57142,"velocity":0.3937007874015748},{"duration":0.28571400000000224,"midi":34,"time":8.57142,"velocity":0.3937007874015748},{"duration":0.14285699999999935,"midi":46,"time":8.857134000000002,"velocity":0.3937007874015748},{"duration":0.14285699999999935,"midi":34,"time":8.857134000000002,"velocity":0.3937007874015748},{"duration":0.28571400000000047,"midi":34,"time":8.999991000000001,"velocity":0.3937007874015748},{"duration":0.28571400000000047,"midi":46,"time":8.999991000000001,"velocity":0.3937007874015748},{"duration":0.14285699999999935,"midi":46,"time":9.285705000000002,"velocity":0.3937007874015748},{"duration":0.14285699999999935,"midi":34,"time":9.285705000000002,"velocity":0.3937007874015748},{"duration":0.28571400000000047,"midi":29,"time":9.428562000000001,"velocity":0.3937007874015748},{"duration":0.28571400000000047,"midi":41,"time":9.428562000000001,"velocity":0.3937007874015748},{"duration":0.14285699999999935,"midi":41,"time":9.714276000000002,"velocity":0.3937007874015748},{"duration":0.14285699999999935,"midi":29,"time":9.714276000000002,"velocity":0.3937007874015748},{"duration":0.28571400000000047,"midi":29,"time":9.857133000000001,"velocity":0.3937007874015748},{"duration":0.28571400000000047,"midi":41,"time":9.857133000000001,"velocity":0.3937007874015748},{"duration":0.14285699999999935,"midi":29,"time":10.142847000000002,"velocity":0.3937007874015748},{"duration":0.14285699999999935,"midi":41,"time":10.142847000000002,"velocity":0.3937007874015748},{"duration":0.28571400000000047,"midi":48,"time":10.285704,"velocity":0.3937007874015748},{"duration":0.28571400000000047,"midi":36,"time":10.285704,"velocity":0.3937007874015748},{"duration":0.14285699999999935,"midi":36,"time":10.571418000000001,"velocity":0.3937007874015748},{"duration":0.14285699999999935,"midi":48,"time":10.571418000000001,"velocity":0.3937007874015748},{"duration":0.28571400000000047,"midi":45,"time":10.714275,"velocity":0.3937007874015748},{"duration":0.28571400000000047,"midi":33,"time":10.714275,"velocity":0.3937007874015748},{"duration":0.14285699999999935,"midi":45,"time":10.999989000000001,"velocity":0.3937007874015748},{"duration":0.14285699999999935,"midi":33,"time":10.999989000000001,"velocity":0.3937007874015748},{"duration":0.28571400000000047,"midi":50,"time":11.142846,"velocity":0.3937007874015748},{"duration":0.28571400000000047,"midi":38,"time":11.142846,"velocity":0.3937007874015748},{"duration":0.14285699999999935,"midi":50,"time":11.428560000000001,"velocity":0.3937007874015748},{"duration":0.14285699999999935,"midi":38,"time":11.428560000000001,"velocity":0.3937007874015748},{"duration":0.28571400000000047,"midi":38,"time":11.571417,"velocity":0.3937007874015748},{"duration":0.28571400000000047,"midi":45,"time":11.571417,"velocity":0.3937007874015748},{"duration":0.14285700000000112,"midi":45,"time":11.857131,"velocity":0.3937007874015748},{"duration":0.14285700000000112,"midi":38,"time":11.857131,"velocity":0.3937007874015748},{"duration":0.28571400000000047,"midi":50,"time":11.999988000000002,"velocity":0.3937007874015748},{"duration":0.28571400000000047,"midi":38,"time":11.999988000000002,"velocity":0.3937007874015748},{"duration":0.14285699999999935,"midi":38,"time":12.285702000000002,"velocity":0.3937007874015748},{"duration":0.14285699999999935,"midi":50,"time":12.285702000000002,"velocity":0.3937007874015748},{"duration":0.28571400000000047,"midi":50,"time":12.428559000000002,"velocity":0.3937007874015748},{"duration":0.28571400000000047,"midi":38,"time":12.428559000000002,"velocity":0.3937007874015748},{"duration":0.14285699999999935,"midi":50,"time":12.714273000000002,"velocity":0.3937007874015748},{"duration":0.14285699999999935,"midi":38,"time":12.714273000000002,"velocity":0.3937007874015748},{"duration":0.28571400000000047,"midi":34,"time":12.857130000000002,"velocity":0.3937007874015748},{"duration":0.28571400000000047,"midi":46,"time":12.857130000000002,"velocity":0.3937007874015748},{"duration":0.14285699999999935,"midi":34,"time":13.142844000000002,"velocity":0.3937007874015748},{"duration":0.14285699999999935,"midi":46,"time":13.142844000000002,"velocity":0.3937007874015748},{"duration":0.28571400000000047,"midi":34,"time":13.285701000000001,"velocity":0.3937007874015748},{"duration":0.28571400000000047,"midi":46,"time":13.285701000000001,"velocity":0.3937007874015748},{"duration":0.14285699999999935,"midi":46,"time":13.571415000000002,"velocity":0.3937007874015748},{"duration":0.14285699999999935,"midi":34,"time":13.571415000000002,"velocity":0.3937007874015748},{"duration":0.2857139999999987,"midi":31,"time":13.714272000000001,"velocity":0.3937007874015748},{"duration":0.2857139999999987,"midi":43,"time":13.714272000000001,"velocity":0.3937007874015748},{"duration":0.14285700000000112,"midi":31,"time":13.999986,"velocity":0.3937007874015748},{"duration":0.14285700000000112,"midi":43,"time":13.999986,"velocity":0.3937007874015748},{"duration":0.2857139999999987,"midi":31,"time":14.142843000000001,"velocity":0.3937007874015748},{"duration":0.2857139999999987,"midi":43,"time":14.142843000000001,"velocity":0.3937007874015748},{"duration":0.14285700000000112,"midi":43,"time":14.428557,"velocity":0.3937007874015748},{"duration":0.14285700000000112,"midi":31,"time":14.428557,"velocity":0.3937007874015748},{"duration":0.2857139999999987,"midi":38,"time":14.571414,"velocity":0.3937007874015748},{"duration":0.2857139999999987,"midi":50,"time":14.571414,"velocity":0.3937007874015748},{"duration":0.14285700000000112,"midi":50,"time":14.857128,"velocity":0.3937007874015748},{"duration":0.14285700000000112,"midi":38,"time":14.857128,"velocity":0.3937007874015748},{"duration":0.28571400000000047,"midi":45,"time":14.999985,"velocity":0.3937007874015748},{"duration":0.28571400000000047,"midi":38,"time":14.999985,"velocity":0.3937007874015748},{"duration":0.14285699999999935,"midi":45,"time":15.285699000000001,"velocity":0.3937007874015748},{"duration":0.14285699999999935,"midi":38,"time":15.285699000000001,"velocity":0.3937007874015748},{"duration":0.28571400000000047,"midi":46,"time":15.428556,"velocity":0.3937007874015748},{"duration":0.28571400000000047,"midi":34,"time":15.428556,"velocity":0.3937007874015748},{"duration":0.14285700000000112,"midi":34,"time":15.71427,"velocity":0.3937007874015748},{"duration":0.14285700000000112,"midi":46,"time":15.71427,"velocity":0.3937007874015748},{"duration":0.2857139999999987,"midi":46,"time":15.857127000000002,"velocity":0.3937007874015748},{"duration":0.2857139999999987,"midi":34,"time":15.857127000000002,"velocity":0.3937007874015748},{"duration":0.14285699999999935,"midi":46,"time":16.142841,"velocity":0.3937007874015748},{"duration":0.14285699999999935,"midi":34,"time":16.142841,"velocity":0.3937007874015748},{"duration":0.2857139999999987,"midi":50,"time":16.285698,"velocity":0.3937007874015748},{"duration":0.2857139999999987,"midi":38,"time":16.285698,"velocity":0.3937007874015748},{"duration":0.1428570000000029,"midi":38,"time":16.571412,"velocity":0.3937007874015748},{"duration":0.1428570000000029,"midi":50,"time":16.571412,"velocity":0.3937007874015748},{"duration":0.2857139999999987,"midi":50,"time":16.714269,"velocity":0.3937007874015748},{"duration":0.2857139999999987,"midi":38,"time":16.714269,"velocity":0.3937007874015748},{"duration":0.14285699999999935,"midi":38,"time":16.999983,"velocity":0.3937007874015748},{"duration":0.14285699999999935,"midi":50,"time":16.999983,"velocity":0.3937007874015748},{"duration":0.28571400000000224,"midi":33,"time":17.14284,"velocity":0.3937007874015748},{"duration":0.28571400000000224,"midi":45,"time":17.14284,"velocity":0.3937007874015748},{"duration":0.14285699999999935,"midi":45,"time":17.428554000000002,"velocity":0.3937007874015748},{"duration":0.14285699999999935,"midi":33,"time":17.428554000000002,"velocity":0.3937007874015748},{"duration":0.2857139999999987,"midi":45,"time":17.571411,"velocity":0.3937007874015748},{"duration":0.2857139999999987,"midi":33,"time":17.571411,"velocity":0.3937007874015748},{"duration":0.1428570000000029,"midi":45,"time":17.857125,"velocity":0.3937007874015748},{"duration":0.1428570000000029,"midi":33,"time":17.857125,"velocity":0.3937007874015748},{"duration":0.2857139999999987,"midi":45,"time":17.999982000000003,"velocity":0.3937007874015748},{"duration":0.2857139999999987,"midi":33,"time":17.999982000000003,"velocity":0.3937007874015748},{"duration":0.14285699999999935,"midi":33,"time":18.285696,"velocity":0.3937007874015748},{"duration":0.14285699999999935,"midi":45,"time":18.285696,"velocity":0.3937007874015748},{"duration":0.2857139999999987,"midi":33,"time":18.428553,"velocity":0.3937007874015748},{"duration":0.2857139999999987,"midi":45,"time":18.428553,"velocity":0.3937007874015748},{"duration":0.1428570000000029,"midi":33,"time":18.714267,"velocity":0.3937007874015748},{"duration":0.1428570000000029,"midi":45,"time":18.714267,"velocity":0.3937007874015748},{"duration":0.2857139999999987,"midi":38,"time":18.857124000000002,"velocity":0.3937007874015748},{"duration":0.2857139999999987,"midi":50,"time":18.857124000000002,"velocity":0.3937007874015748},{"duration":0.14285699999999935,"midi":38,"time":19.142838,"velocity":0.3937007874015748},{"duration":0.14285699999999935,"midi":50,"time":19.142838,"velocity":0.3937007874015748},{"duration":0.2857139999999987,"midi":38,"time":19.285695,"velocity":0.3937007874015748},{"duration":0.2857139999999987,"midi":50,"time":19.285695,"velocity":0.3937007874015748},{"duration":0.1428570000000029,"midi":48,"time":19.571409,"velocity":0.3937007874015748},{"duration":0.1428570000000029,"midi":36,"time":19.571409,"velocity":0.3937007874015748},{"duration":0.2857139999999987,"midi":46,"time":19.714266000000002,"velocity":0.3937007874015748},{"duration":0.2857139999999987,"midi":34,"time":19.714266000000002,"velocity":0.3937007874015748},{"duration":0.14285699999999935,"midi":34,"time":19.99998,"velocity":0.3937007874015748},{"duration":0.14285699999999935,"midi":46,"time":19.99998,"velocity":0.3937007874015748},{"duration":0.28571400000000224,"midi":46,"time":20.142837,"velocity":0.3937007874015748},{"duration":0.28571400000000224,"midi":34,"time":20.142837,"velocity":0.3937007874015748},{"duration":0.14285699999999935,"midi":34,"time":20.428551000000002,"velocity":0.3937007874015748},{"duration":0.14285699999999935,"midi":46,"time":20.428551000000002,"velocity":0.3937007874015748},{"duration":0.2857139999999987,"midi":33,"time":20.571408,"velocity":0.3937007874015748},{"duration":0.2857139999999987,"midi":45,"time":20.571408,"velocity":0.3937007874015748},{"duration":0.1428570000000029,"midi":33,"time":20.857122,"velocity":0.3937007874015748},{"duration":0.1428570000000029,"midi":45,"time":20.857122,"velocity":0.3937007874015748},{"duration":0.2857139999999987,"midi":45,"time":20.999979000000003,"velocity":0.3937007874015748},{"duration":0.2857139999999987,"midi":33,"time":20.999979000000003,"velocity":0.3937007874015748},{"duration":0.14285699999999935,"midi":33,"time":21.285693000000002,"velocity":0.3937007874015748},{"duration":0.14285699999999935,"midi":45,"time":21.285693000000002,"velocity":0.3937007874015748},{"duration":0.2857139999999987,"midi":50,"time":21.42855,"velocity":0.3937007874015748},{"duration":0.2857139999999987,"midi":38,"time":21.42855,"velocity":0.3937007874015748},{"duration":0.1428570000000029,"midi":38,"time":21.714264,"velocity":0.3937007874015748},{"duration":0.1428570000000029,"midi":50,"time":21.714264,"velocity":0.3937007874015748},{"duration":0.2857139999999987,"midi":45,"time":21.857121000000003,"velocity":0.3937007874015748},{"duration":0.2857139999999987,"midi":38,"time":21.857121000000003,"velocity":0.3937007874015748},{"duration":0.14285699999999935,"midi":45,"time":22.142835,"velocity":0.3937007874015748},{"duration":0.14285699999999935,"midi":38,"time":22.142835,"velocity":0.3937007874015748},{"duration":0.2857139999999987,"midi":34,"time":22.285692,"velocity":0.3937007874015748},{"duration":0.2857139999999987,"midi":46,"time":22.285692,"velocity":0.3937007874015748},{"duration":0.1428570000000029,"midi":46,"time":22.571406,"velocity":0.3937007874015748},{"duration":0.1428570000000029,"midi":34,"time":22.571406,"velocity":0.3937007874015748},{"duration":0.2857139999999987,"midi":34,"time":22.714263000000003,"velocity":0.3937007874015748},{"duration":0.2857139999999987,"midi":46,"time":22.714263000000003,"velocity":0.3937007874015748},{"duration":0.14285699999999935,"midi":46,"time":22.999977,"velocity":0.3937007874015748},{"duration":0.14285699999999935,"midi":34,"time":22.999977,"velocity":0.3937007874015748},{"duration":0.2857139999999987,"midi":41,"time":23.142834,"velocity":0.3937007874015748},{"duration":0.2857139999999987,"midi":29,"time":23.142834,"velocity":0.3937007874015748},{"duration":0.1428570000000029,"midi":29,"time":23.428548,"velocity":0.3937007874015748},{"duration":0.1428570000000029,"midi":41,"time":23.428548,"velocity":0.3937007874015748},{"duration":0.2857139999999987,"midi":41,"time":23.571405000000002,"velocity":0.3937007874015748},{"duration":0.2857139999999987,"midi":29,"time":23.571405000000002,"velocity":0.3937007874015748},{"duration":0.1428570000000029,"midi":41,"time":23.857119,"velocity":0.3937007874015748},{"duration":0.1428570000000029,"midi":29,"time":23.857119,"velocity":0.3937007874015748},{"duration":0.2857139999999987,"midi":36,"time":23.999976000000004,"velocity":0.3937007874015748},{"duration":0.2857139999999987,"midi":48,"time":23.999976000000004,"velocity":0.3937007874015748},{"duration":0.14285699999999935,"midi":48,"time":24.285690000000002,"velocity":0.3937007874015748},{"duration":0.14285699999999935,"midi":36,"time":24.285690000000002,"velocity":0.3937007874015748},{"duration":0.2857139999999987,"midi":45,"time":24.428547000000002,"velocity":0.3937007874015748},{"duration":0.2857139999999987,"midi":33,"time":24.428547000000002,"velocity":0.3937007874015748},{"duration":0.1428570000000029,"midi":33,"time":24.714261,"velocity":0.3937007874015748},{"duration":0.1428570000000029,"midi":45,"time":24.714261,"velocity":0.3937007874015748},{"duration":0.2857139999999987,"midi":38,"time":24.857118000000003,"velocity":0.3937007874015748},{"duration":0.2857139999999987,"midi":50,"time":24.857118000000003,"velocity":0.3937007874015748},{"duration":0.14285699999999935,"midi":38,"time":25.142832000000002,"velocity":0.3937007874015748},{"duration":0.14285699999999935,"midi":50,"time":25.142832000000002,"velocity":0.3937007874015748},{"duration":0.2857139999999987,"midi":45,"time":25.285689,"velocity":0.3937007874015748},{"duration":0.2857139999999987,"midi":38,"time":25.285689,"velocity":0.3937007874015748},{"duration":0.1428570000000029,"midi":45,"time":25.571403,"velocity":0.3937007874015748},{"duration":0.1428570000000029,"midi":38,"time":25.571403,"velocity":0.3937007874015748},{"duration":0.2857139999999987,"midi":50,"time":25.714260000000003,"velocity":0.3937007874015748},{"duration":0.2857139999999987,"midi":38,"time":25.714260000000003,"velocity":0.3937007874015748},{"duration":0.14285699999999935,"midi":50,"time":25.999974,"velocity":0.3937007874015748},{"duration":0.14285699999999935,"midi":38,"time":25.999974,"velocity":0.3937007874015748},{"duration":0.2857139999999987,"midi":38,"time":26.142831,"velocity":0.3937007874015748},{"duration":0.2857139999999987,"midi":50,"time":26.142831,"velocity":0.3937007874015748},{"duration":0.1428570000000029,"midi":38,"time":26.428545,"velocity":0.3937007874015748},{"duration":0.1428570000000029,"midi":50,"time":26.428545,"velocity":0.3937007874015748},{"duration":0.2857139999999987,"midi":46,"time":26.571402000000003,"velocity":0.3937007874015748},{"duration":0.2857139999999987,"midi":34,"time":26.571402000000003,"velocity":0.3937007874015748},{"duration":0.14285699999999935,"midi":34,"time":26.857116,"velocity":0.3937007874015748},{"duration":0.14285699999999935,"midi":46,"time":26.857116,"velocity":0.3937007874015748},{"duration":0.28571400000000224,"midi":34,"time":26.999973,"velocity":0.3937007874015748},{"duration":0.28571400000000224,"midi":46,"time":26.999973,"velocity":0.3937007874015748},{"duration":0.14285699999999935,"midi":46,"time":27.285687000000003,"velocity":0.3937007874015748},{"duration":0.14285699999999935,"midi":34,"time":27.285687000000003,"velocity":0.3937007874015748},{"duration":0.28571400000000224,"midi":43,"time":27.428544000000002,"velocity":0.3937007874015748},{"duration":0.28571400000000224,"midi":31,"time":27.428544000000002,"velocity":0.3937007874015748},{"duration":0.14285699999999935,"midi":31,"time":27.714258000000005,"velocity":0.3937007874015748},{"duration":0.14285699999999935,"midi":43,"time":27.714258000000005,"velocity":0.3937007874015748},{"duration":0.28571400000000224,"midi":31,"time":27.857115000000004,"velocity":0.3937007874015748},{"duration":0.28571400000000224,"midi":43,"time":27.857115000000004,"velocity":0.3937007874015748},{"duration":0.1428569999999958,"midi":31,"time":28.142829000000006,"velocity":0.3937007874015748},{"duration":0.1428569999999958,"midi":43,"time":28.142829000000006,"velocity":0.3937007874015748},{"duration":0.28571400000000224,"midi":38,"time":28.285686000000002,"velocity":0.3937007874015748},{"duration":0.28571400000000224,"midi":50,"time":28.285686000000002,"velocity":0.3937007874015748},{"duration":0.14285699999999935,"midi":38,"time":28.571400000000004,"velocity":0.3937007874015748},{"duration":0.14285699999999935,"midi":50,"time":28.571400000000004,"velocity":0.3937007874015748},{"duration":0.28571400000000224,"midi":45,"time":28.714257000000003,"velocity":0.3937007874015748},{"duration":0.28571400000000224,"midi":38,"time":28.714257000000003,"velocity":0.3937007874015748},{"duration":0.1428569999999958,"midi":45,"time":28.999971000000006,"velocity":0.3937007874015748},{"duration":0.1428569999999958,"midi":38,"time":28.999971000000006,"velocity":0.3937007874015748},{"duration":0.28571400000000224,"midi":46,"time":29.142828,"velocity":0.3937007874015748},{"duration":0.28571400000000224,"midi":34,"time":29.142828,"velocity":0.3937007874015748},{"duration":0.14285699999999935,"midi":46,"time":29.428542000000004,"velocity":0.3937007874015748},{"duration":0.14285699999999935,"midi":34,"time":29.428542000000004,"velocity":0.3937007874015748},{"duration":0.28571400000000224,"midi":34,"time":29.571399000000003,"velocity":0.3937007874015748},{"duration":0.28571400000000224,"midi":46,"time":29.571399000000003,"velocity":0.3937007874015748},{"duration":0.1428569999999958,"midi":34,"time":29.857113000000005,"velocity":0.3937007874015748},{"duration":0.1428569999999958,"midi":46,"time":29.857113000000005,"velocity":0.3937007874015748},{"duration":0.28571400000000224,"midi":38,"time":29.99997,"velocity":0.3937007874015748},{"duration":0.28571400000000224,"midi":50,"time":29.99997,"velocity":0.3937007874015748},{"duration":0.14285699999999935,"midi":38,"time":30.285684000000003,"velocity":0.3937007874015748},{"duration":0.14285699999999935,"midi":50,"time":30.285684000000003,"velocity":0.3937007874015748},{"duration":0.28571400000000224,"midi":50,"time":30.428541000000003,"velocity":0.3937007874015748},{"duration":0.28571400000000224,"midi":38,"time":30.428541000000003,"velocity":0.3937007874015748},{"duration":0.1428569999999958,"midi":50,"time":30.714255000000005,"velocity":0.3937007874015748},{"duration":0.1428569999999958,"midi":38,"time":30.714255000000005,"velocity":0.3937007874015748},{"duration":0.28571400000000224,"midi":33,"time":30.857112,"velocity":0.3937007874015748},{"duration":0.28571400000000224,"midi":45,"time":30.857112,"velocity":0.3937007874015748},{"duration":0.14285699999999935,"midi":45,"time":31.142826000000003,"velocity":0.3937007874015748},{"duration":0.14285699999999935,"midi":33,"time":31.142826000000003,"velocity":0.3937007874015748},{"duration":0.28571400000000224,"midi":45,"time":31.285683000000002,"velocity":0.3937007874015748},{"duration":0.28571400000000224,"midi":33,"time":31.285683000000002,"velocity":0.3937007874015748},{"duration":0.14285699999999935,"midi":33,"time":31.571397000000005,"velocity":0.3937007874015748},{"duration":0.14285699999999935,"midi":45,"time":31.571397000000005,"velocity":0.3937007874015748},{"duration":0.28571400000000224,"midi":50,"time":31.714254000000004,"velocity":0.3937007874015748},{"duration":0.28571400000000224,"midi":38,"time":31.714254000000004,"velocity":0.3937007874015748},{"duration":0.28571399999999514,"midi":38,"time":31.999968000000006,"velocity":0.3937007874015748},{"duration":0.28571399999999514,"midi":50,"time":31.999968000000006,"velocity":0.3937007874015748},{"duration":0.2857139999999987,"midi":36,"time":32.285682,"velocity":0.3937007874015748},{"duration":0.2857139999999987,"midi":48,"time":32.285682,"velocity":0.3937007874015748},{"duration":0.2857140000000058,"midi":36,"time":32.571396,"velocity":0.3937007874015748},{"duration":0.2857140000000058,"midi":48,"time":32.571396,"velocity":0.3937007874015748},{"duration":0.2857139999999916,"midi":36,"time":32.857110000000006,"velocity":0.3937007874015748},{"duration":0.2857139999999916,"midi":48,"time":32.857110000000006,"velocity":0.3937007874015748},{"duration":0.2857140000000058,"midi":46,"time":33.142824,"velocity":0.3937007874015748},{"duration":0.2857140000000058,"midi":34,"time":33.142824,"velocity":0.3937007874015748},{"duration":0.2857139999999987,"midi":33,"time":33.428538,"velocity":0.3937007874015748},{"duration":0.2857139999999987,"midi":45,"time":33.428538,"velocity":0.3937007874015748},{"duration":0.14285699999999935,"midi":33,"time":33.714252,"velocity":0.3937007874015748},{"duration":0.14285699999999935,"midi":45,"time":33.714252,"velocity":0.3937007874015748},{"duration":0.2857140000000058,"midi":33,"time":33.857109,"velocity":0.3937007874015748},{"duration":0.2857140000000058,"midi":45,"time":33.857109,"velocity":0.3937007874015748},{"duration":0.14285699999999224,"midi":33,"time":34.14282300000001,"velocity":0.3937007874015748},{"duration":0.14285699999999224,"midi":45,"time":34.14282300000001,"velocity":0.3937007874015748},{"duration":0.2857140000000058,"midi":45,"time":34.28568,"velocity":0.3937007874015748},{"duration":0.2857140000000058,"midi":33,"time":34.28568,"velocity":0.3937007874015748},{"duration":0.14285699999999935,"midi":33,"time":34.571394000000005,"velocity":0.3937007874015748},{"duration":0.14285699999999935,"midi":45,"time":34.571394000000005,"velocity":0.3937007874015748},{"duration":0.2857139999999987,"midi":45,"time":34.714251000000004,"velocity":0.3937007874015748},{"duration":0.2857139999999987,"midi":33,"time":34.714251000000004,"velocity":0.3937007874015748},{"duration":0.14285699999999935,"midi":33,"time":34.999965,"velocity":0.3937007874015748},{"duration":0.14285699999999935,"midi":45,"time":34.999965,"velocity":0.3937007874015748},{"duration":0.2857140000000058,"midi":31,"time":35.142822,"velocity":0.3937007874015748},{"duration":0.2857140000000058,"midi":43,"time":35.142822,"velocity":0.3937007874015748},{"duration":0.14285699999999224,"midi":43,"time":35.42853600000001,"velocity":0.3937007874015748},{"duration":0.14285699999999224,"midi":31,"time":35.42853600000001,"velocity":0.3937007874015748},{"duration":0.2857140000000058,"midi":43,"time":35.571393,"velocity":0.3937007874015748},{"duration":0.2857140000000058,"midi":31,"time":35.571393,"velocity":0.3937007874015748},{"duration":0.14285699999999935,"midi":43,"time":35.857107000000006,"velocity":0.3937007874015748},{"duration":0.14285699999999935,"midi":31,"time":35.857107000000006,"velocity":0.3937007874015748},{"duration":0.2857139999999987,"midi":43,"time":35.999964000000006,"velocity":0.3937007874015748},{"duration":0.2857139999999987,"midi":31,"time":35.999964000000006,"velocity":0.3937007874015748},{"duration":0.14285699999999935,"midi":31,"time":36.285678000000004,"velocity":0.3937007874015748},{"duration":0.14285699999999935,"midi":43,"time":36.285678000000004,"velocity":0.3937007874015748},{"duration":0.2857139999999987,"midi":43,"time":36.428535000000004,"velocity":0.3937007874015748},{"duration":0.2857139999999987,"midi":31,"time":36.428535000000004,"velocity":0.3937007874015748},{"duration":0.14285699999999935,"midi":31,"time":36.714249,"velocity":0.3937007874015748},{"duration":0.14285699999999935,"midi":43,"time":36.714249,"velocity":0.3937007874015748},{"duration":0.2857140000000058,"midi":45,"time":36.857106,"velocity":0.3937007874015748},{"duration":0.2857140000000058,"midi":33,"time":36.857106,"velocity":0.3937007874015748},{"duration":0.14285699999999224,"midi":33,"time":37.14282000000001,"velocity":0.3937007874015748},{"duration":0.14285699999999224,"midi":45,"time":37.14282000000001,"velocity":0.3937007874015748},{"duration":0.2857140000000058,"midi":33,"time":37.285677,"velocity":0.3937007874015748},{"duration":0.2857140000000058,"midi":45,"time":37.285677,"velocity":0.3937007874015748},{"duration":0.14285699999999935,"midi":45,"time":37.571391000000006,"velocity":0.3937007874015748},{"duration":0.14285699999999935,"midi":33,"time":37.571391000000006,"velocity":0.3937007874015748},{"duration":0.2857139999999987,"midi":45,"time":37.714248000000005,"velocity":0.3937007874015748},{"duration":0.2857139999999987,"midi":33,"time":37.714248000000005,"velocity":0.3937007874015748},{"duration":0.14285699999999935,"midi":33,"time":37.999962000000004,"velocity":0.3937007874015748},{"duration":0.14285699999999935,"midi":45,"time":37.999962000000004,"velocity":0.3937007874015748},{"duration":0.2857140000000058,"midi":45,"time":38.142819,"velocity":0.3937007874015748},{"duration":0.2857140000000058,"midi":33,"time":38.142819,"velocity":0.3937007874015748},{"duration":0.14285699999999224,"midi":33,"time":38.42853300000001,"velocity":0.3937007874015748},{"duration":0.14285699999999224,"midi":45,"time":38.42853300000001,"velocity":0.3937007874015748},{"duration":0.2857140000000058,"midi":50,"time":38.57139,"velocity":0.3937007874015748},{"duration":0.2857140000000058,"midi":38,"time":38.57139,"velocity":0.3937007874015748},{"duration":0.14285699999999935,"midi":50,"time":38.85710400000001,"velocity":0.3937007874015748},{"duration":0.14285699999999935,"midi":38,"time":38.85710400000001,"velocity":0.3937007874015748},{"duration":0.2857139999999987,"midi":38,"time":38.999961000000006,"velocity":0.3937007874015748},{"duration":0.2857139999999987,"midi":50,"time":38.999961000000006,"velocity":0.3937007874015748},{"duration":0.14285699999999935,"midi":38,"time":39.285675000000005,"velocity":0.3937007874015748},{"duration":0.14285699999999935,"midi":50,"time":39.285675000000005,"velocity":0.3937007874015748},{"duration":0.2857139999999987,"midi":38,"time":39.428532000000004,"velocity":0.3937007874015748},{"duration":0.2857139999999987,"midi":50,"time":39.428532000000004,"velocity":0.3937007874015748},{"duration":0.14285699999999935,"midi":38,"time":39.714246,"velocity":0.3937007874015748},{"duration":0.14285699999999935,"midi":50,"time":39.714246,"velocity":0.3937007874015748},{"duration":0.2857140000000058,"midi":50,"time":39.857103,"velocity":0.3937007874015748},{"duration":0.2857140000000058,"midi":38,"time":39.857103,"velocity":0.3937007874015748},{"duration":0.14285699999999224,"midi":50,"time":40.14281700000001,"velocity":0.3937007874015748},{"duration":0.14285699999999224,"midi":38,"time":40.14281700000001,"velocity":0.3937007874015748},{"duration":0.2857140000000058,"midi":48,"time":40.285674,"velocity":0.3937007874015748},{"duration":0.2857140000000058,"midi":36,"time":40.285674,"velocity":0.3937007874015748},{"duration":0.14285699999999935,"midi":48,"time":40.571388000000006,"velocity":0.3937007874015748},{"duration":0.14285699999999935,"midi":36,"time":40.571388000000006,"velocity":0.3937007874015748},{"duration":0.2857139999999987,"midi":48,"time":40.714245000000005,"velocity":0.3937007874015748},{"duration":0.2857139999999987,"midi":36,"time":40.714245000000005,"velocity":0.3937007874015748},{"duration":0.14285699999999935,"midi":36,"time":40.999959000000004,"velocity":0.3937007874015748},{"duration":0.14285699999999935,"midi":48,"time":40.999959000000004,"velocity":0.3937007874015748},{"duration":0.2857139999999987,"midi":41,"time":41.142816,"velocity":0.3937007874015748},{"duration":0.2857139999999987,"midi":53,"time":41.142816,"velocity":0.3937007874015748},{"duration":0.14285699999999935,"midi":53,"time":41.42853,"velocity":0.3937007874015748},{"duration":0.14285699999999935,"midi":41,"time":41.42853,"velocity":0.3937007874015748},{"duration":0.2857140000000058,"midi":41,"time":41.571387,"velocity":0.3937007874015748},{"duration":0.2857140000000058,"midi":53,"time":41.571387,"velocity":0.3937007874015748},{"duration":0.14285699999999935,"midi":41,"time":41.85710100000001,"velocity":0.3937007874015748},{"duration":0.14285699999999935,"midi":53,"time":41.85710100000001,"velocity":0.3937007874015748},{"duration":0.2857139999999987,"midi":50,"time":41.99995800000001,"velocity":0.3937007874015748},{"duration":0.2857139999999987,"midi":38,"time":41.99995800000001,"velocity":0.3937007874015748},{"duration":0.14285699999999935,"midi":38,"time":42.285672000000005,"velocity":0.3937007874015748},{"duration":0.14285699999999935,"midi":50,"time":42.285672000000005,"velocity":0.3937007874015748},{"duration":0.2857139999999987,"midi":50,"time":42.428529000000005,"velocity":0.3937007874015748},{"duration":0.2857139999999987,"midi":38,"time":42.428529000000005,"velocity":0.3937007874015748},{"duration":0.14285699999999935,"midi":38,"time":42.714243,"velocity":0.3937007874015748},{"duration":0.14285699999999935,"midi":50,"time":42.714243,"velocity":0.3937007874015748},{"duration":0.2857140000000058,"midi":38,"time":42.8571,"velocity":0.3937007874015748},{"duration":0.2857140000000058,"midi":50,"time":42.8571,"velocity":0.3937007874015748},{"duration":0.14285699999999224,"midi":38,"time":43.14281400000001,"velocity":0.3937007874015748},{"duration":0.14285699999999224,"midi":50,"time":43.14281400000001,"velocity":0.3937007874015748},{"duration":0.2857140000000058,"midi":50,"time":43.285671,"velocity":0.3937007874015748},{"duration":0.2857140000000058,"midi":38,"time":43.285671,"velocity":0.3937007874015748},{"duration":0.14285699999999935,"midi":38,"time":43.57138500000001,"velocity":0.3937007874015748},{"duration":0.14285699999999935,"midi":50,"time":43.57138500000001,"velocity":0.3937007874015748},{"duration":0.2857139999999987,"midi":33,"time":43.714242000000006,"velocity":0.3937007874015748},{"duration":0.2857139999999987,"midi":45,"time":43.714242000000006,"velocity":0.3937007874015748},{"duration":0.14285699999999935,"midi":33,"time":43.999956000000005,"velocity":0.3937007874015748},{"duration":0.14285699999999935,"midi":45,"time":43.999956000000005,"velocity":0.3937007874015748},{"duration":0.2857139999999987,"midi":45,"time":44.142813000000004,"velocity":0.3937007874015748},{"duration":0.2857139999999987,"midi":33,"time":44.142813000000004,"velocity":0.3937007874015748},{"duration":0.14285699999999935,"midi":45,"time":44.428527,"velocity":0.3937007874015748},{"duration":0.14285699999999935,"midi":33,"time":44.428527,"velocity":0.3937007874015748},{"duration":0.2857140000000058,"midi":50,"time":44.571384,"velocity":0.3937007874015748},{"duration":0.2857140000000058,"midi":38,"time":44.571384,"velocity":0.3937007874015748},{"duration":0.14285699999999935,"midi":38,"time":44.85709800000001,"velocity":0.3937007874015748},{"duration":0.14285699999999935,"midi":50,"time":44.85709800000001,"velocity":0.3937007874015748},{"duration":0.2857139999999987,"midi":38,"time":44.99995500000001,"velocity":0.3937007874015748},{"duration":0.2857139999999987,"midi":50,"time":44.99995500000001,"velocity":0.3937007874015748},{"duration":0.14285699999999935,"midi":38,"time":45.285669000000006,"velocity":0.3937007874015748},{"duration":0.14285699999999935,"midi":50,"time":45.285669000000006,"velocity":0.3937007874015748},{"duration":0.2857139999999987,"midi":50,"time":45.428526000000005,"velocity":0.3937007874015748},{"duration":0.2857139999999987,"midi":38,"time":45.428526000000005,"velocity":0.3937007874015748},{"duration":0.14285699999999935,"midi":50,"time":45.714240000000004,"velocity":0.3937007874015748},{"duration":0.14285699999999935,"midi":38,"time":45.714240000000004,"velocity":0.3937007874015748},{"duration":0.2857140000000058,"midi":50,"time":45.857097,"velocity":0.3937007874015748},{"duration":0.2857140000000058,"midi":38,"time":45.857097,"velocity":0.3937007874015748},{"duration":0.14285699999999224,"midi":50,"time":46.14281100000001,"velocity":0.3937007874015748},{"duration":0.14285699999999224,"midi":38,"time":46.14281100000001,"velocity":0.3937007874015748},{"duration":0.2857140000000058,"midi":36,"time":46.285668,"velocity":0.3937007874015748},{"duration":0.2857140000000058,"midi":48,"time":46.285668,"velocity":0.3937007874015748},{"duration":0.14285699999999935,"midi":36,"time":46.57138200000001,"velocity":0.3937007874015748},{"duration":0.14285699999999935,"midi":48,"time":46.57138200000001,"velocity":0.3937007874015748},{"duration":0.2857139999999987,"midi":36,"time":46.714239000000006,"velocity":0.3937007874015748},{"duration":0.2857139999999987,"midi":48,"time":46.714239000000006,"velocity":0.3937007874015748},{"duration":0.14285699999999935,"midi":48,"time":46.999953000000005,"velocity":0.3937007874015748},{"duration":0.14285699999999935,"midi":36,"time":46.999953000000005,"velocity":0.3937007874015748},{"duration":0.2857139999999987,"midi":41,"time":47.142810000000004,"velocity":0.3937007874015748},{"duration":0.2857139999999987,"midi":53,"time":47.142810000000004,"velocity":0.3937007874015748},{"duration":0.14285699999999935,"midi":53,"time":47.428524,"velocity":0.3937007874015748},{"duration":0.14285699999999935,"midi":41,"time":47.428524,"velocity":0.3937007874015748},{"duration":0.2857140000000058,"midi":53,"time":47.571381,"velocity":0.3937007874015748},{"duration":0.2857140000000058,"midi":41,"time":47.571381,"velocity":0.3937007874015748},{"duration":0.14285699999999935,"midi":41,"time":47.85709500000001,"velocity":0.3937007874015748},{"duration":0.14285699999999935,"midi":53,"time":47.85709500000001,"velocity":0.3937007874015748},{"duration":0.2857139999999987,"midi":48,"time":47.99995200000001,"velocity":0.3937007874015748},{"duration":0.2857139999999987,"midi":36,"time":47.99995200000001,"velocity":0.3937007874015748},{"duration":0.14285699999999935,"midi":48,"time":48.285666000000006,"velocity":0.3937007874015748},{"duration":0.14285699999999935,"midi":36,"time":48.285666000000006,"velocity":0.3937007874015748},{"duration":0.2857139999999987,"midi":36,"time":48.428523000000006,"velocity":0.3937007874015748},{"duration":0.2857139999999987,"midi":48,"time":48.428523000000006,"velocity":0.3937007874015748},{"duration":0.14285699999999935,"midi":36,"time":48.714237000000004,"velocity":0.3937007874015748},{"duration":0.14285699999999935,"midi":48,"time":48.714237000000004,"velocity":0.3937007874015748},{"duration":0.2857140000000058,"midi":38,"time":48.857094000000004,"velocity":0.3937007874015748},{"duration":0.2857140000000058,"midi":50,"time":48.857094000000004,"velocity":0.3937007874015748},{"duration":0.14285699999999224,"midi":50,"time":49.14280800000001,"velocity":0.3937007874015748},{"duration":0.14285699999999224,"midi":38,"time":49.14280800000001,"velocity":0.3937007874015748},{"duration":0.2857140000000058,"midi":50,"time":49.285665,"velocity":0.3937007874015748},{"duration":0.2857140000000058,"midi":38,"time":49.285665,"velocity":0.3937007874015748},{"duration":0.14285699999999935,"midi":50,"time":49.57137900000001,"velocity":0.3937007874015748},{"duration":0.14285699999999935,"midi":38,"time":49.57137900000001,"velocity":0.3937007874015748},{"duration":0.2857139999999987,"midi":33,"time":49.71423600000001,"velocity":0.3937007874015748},{"duration":0.2857139999999987,"midi":45,"time":49.71423600000001,"velocity":0.3937007874015748},{"duration":0.14285699999999935,"midi":33,"time":49.999950000000005,"velocity":0.3937007874015748},{"duration":0.14285699999999935,"midi":45,"time":49.999950000000005,"velocity":0.3937007874015748},{"duration":0.2857139999999987,"midi":45,"time":50.142807000000005,"velocity":0.3937007874015748},{"duration":0.2857139999999987,"midi":33,"time":50.142807000000005,"velocity":0.3937007874015748},{"duration":0.14285699999999935,"midi":33,"time":50.428521,"velocity":0.3937007874015748},{"duration":0.14285699999999935,"midi":45,"time":50.428521,"velocity":0.3937007874015748},{"duration":0.2857140000000058,"midi":38,"time":50.571378,"velocity":0.3937007874015748},{"duration":0.2857140000000058,"midi":50,"time":50.571378,"velocity":0.3937007874015748},{"duration":0.14285699999999224,"midi":50,"time":50.85709200000001,"velocity":0.3937007874015748},{"duration":0.14285699999999224,"midi":38,"time":50.85709200000001,"velocity":0.3937007874015748},{"duration":0.2857140000000058,"midi":38,"time":50.999949,"velocity":0.3937007874015748},{"duration":0.2857140000000058,"midi":50,"time":50.999949,"velocity":0.3937007874015748},{"duration":0.14285699999999935,"midi":38,"time":51.28566300000001,"velocity":0.3937007874015748},{"duration":0.14285699999999935,"midi":50,"time":51.28566300000001,"velocity":0.3937007874015748},{"duration":0.2857139999999987,"midi":38,"time":51.428520000000006,"velocity":0.3937007874015748},{"duration":0.2857139999999987,"midi":50,"time":51.428520000000006,"velocity":0.3937007874015748},{"duration":0.14285699999999935,"midi":50,"time":51.714234000000005,"velocity":0.3937007874015748},{"duration":0.14285699999999935,"midi":38,"time":51.714234000000005,"velocity":0.3937007874015748},{"duration":0.2857140000000058,"midi":50,"time":51.857091000000004,"velocity":0.3937007874015748},{"duration":0.2857140000000058,"midi":38,"time":51.857091000000004,"velocity":0.3937007874015748},{"duration":0.14285699999999224,"midi":38,"time":52.14280500000001,"velocity":0.3937007874015748},{"duration":0.14285699999999224,"midi":50,"time":52.14280500000001,"velocity":0.3937007874015748},{"duration":0.2857140000000058,"midi":38,"time":52.285662,"velocity":0.3937007874015748},{"duration":0.2857140000000058,"midi":50,"time":52.285662,"velocity":0.3937007874015748},{"duration":0.14285699999999935,"midi":38,"time":52.57137600000001,"velocity":0.3937007874015748},{"duration":0.14285699999999935,"midi":50,"time":52.57137600000001,"velocity":0.3937007874015748},{"duration":0.2857139999999987,"midi":50,"time":52.71423300000001,"velocity":0.3937007874015748},{"duration":0.2857139999999987,"midi":38,"time":52.71423300000001,"velocity":0.3937007874015748},{"duration":0.14285699999999935,"midi":50,"time":52.999947000000006,"velocity":0.3937007874015748},{"duration":0.14285699999999935,"midi":38,"time":52.999947000000006,"velocity":0.3937007874015748},{"duration":0.2857139999999987,"midi":48,"time":53.142804000000005,"velocity":0.3937007874015748},{"duration":0.2857139999999987,"midi":36,"time":53.142804000000005,"velocity":0.3937007874015748},{"duration":0.14285699999999935,"midi":48,"time":53.428518000000004,"velocity":0.3937007874015748},{"duration":0.14285699999999935,"midi":36,"time":53.428518000000004,"velocity":0.3937007874015748},{"duration":0.2857140000000058,"midi":48,"time":53.571375,"velocity":0.3937007874015748},{"duration":0.2857140000000058,"midi":36,"time":53.571375,"velocity":0.3937007874015748},{"duration":0.14285699999999224,"midi":36,"time":53.85708900000001,"velocity":0.3937007874015748},{"duration":0.14285699999999224,"midi":48,"time":53.85708900000001,"velocity":0.3937007874015748},{"duration":0.2857140000000058,"midi":41,"time":53.999946,"velocity":0.3937007874015748},{"duration":0.2857140000000058,"midi":53,"time":53.999946,"velocity":0.3937007874015748},{"duration":0.14285699999999935,"midi":41,"time":54.28566000000001,"velocity":0.3937007874015748},{"duration":0.14285699999999935,"midi":53,"time":54.28566000000001,"velocity":0.3937007874015748},{"duration":0.2857139999999987,"midi":41,"time":54.42851700000001,"velocity":0.3937007874015748},{"duration":0.2857139999999987,"midi":53,"time":54.42851700000001,"velocity":0.3937007874015748},{"duration":0.14285699999999935,"midi":53,"time":54.714231000000005,"velocity":0.3937007874015748},{"duration":0.14285699999999935,"midi":41,"time":54.714231000000005,"velocity":0.3937007874015748},{"duration":0.2857139999999987,"midi":46,"time":54.857088000000005,"velocity":0.3937007874015748},{"duration":0.2857139999999987,"midi":34,"time":54.857088000000005,"velocity":0.3937007874015748},{"duration":0.14285699999999935,"midi":34,"time":55.142802,"velocity":0.3937007874015748},{"duration":0.14285699999999935,"midi":46,"time":55.142802,"velocity":0.3937007874015748},{"duration":0.2857139999999987,"midi":46,"time":55.285659,"velocity":0.3937007874015748},{"duration":0.2857139999999987,"midi":34,"time":55.285659,"velocity":0.3937007874015748},{"duration":0.14285700000000645,"midi":46,"time":55.571373,"velocity":0.3937007874015748},{"duration":0.14285700000000645,"midi":34,"time":55.571373,"velocity":0.3937007874015748},{"duration":0.2857139999999916,"midi":50,"time":55.71423000000001,"velocity":0.3937007874015748},{"duration":0.2857139999999916,"midi":38,"time":55.71423000000001,"velocity":0.3937007874015748},{"duration":0.14285700000000645,"midi":38,"time":55.999944,"velocity":0.3937007874015748},{"duration":0.14285700000000645,"midi":50,"time":55.999944,"velocity":0.3937007874015748},{"duration":0.2857139999999916,"midi":50,"time":56.142801000000006,"velocity":0.3937007874015748},{"duration":0.2857139999999916,"midi":38,"time":56.142801000000006,"velocity":0.3937007874015748},{"duration":0.14285700000000645,"midi":50,"time":56.428515,"velocity":0.3937007874015748},{"duration":0.14285700000000645,"midi":38,"time":56.428515,"velocity":0.3937007874015748},{"duration":0.2857139999999987,"midi":46,"time":56.571372000000004,"velocity":0.3937007874015748},{"duration":0.2857139999999987,"midi":34,"time":56.571372000000004,"velocity":0.3937007874015748},{"duration":0.14285699999999935,"midi":46,"time":56.857086,"velocity":0.3937007874015748},{"duration":0.14285699999999935,"midi":34,"time":56.857086,"velocity":0.3937007874015748},{"duration":0.2857139999999987,"midi":34,"time":56.999943,"velocity":0.3937007874015748},{"duration":0.2857139999999987,"midi":46,"time":56.999943,"velocity":0.3937007874015748},{"duration":0.14285700000000645,"midi":46,"time":57.285657,"velocity":0.3937007874015748},{"duration":0.14285700000000645,"midi":34,"time":57.285657,"velocity":0.3937007874015748},{"duration":0.2857139999999916,"midi":33,"time":57.42851400000001,"velocity":0.3937007874015748},{"duration":0.2857139999999916,"midi":45,"time":57.42851400000001,"velocity":0.3937007874015748},{"duration":0.14285700000000645,"midi":45,"time":57.714228,"velocity":0.3937007874015748},{"duration":0.14285700000000645,"midi":33,"time":57.714228,"velocity":0.3937007874015748},{"duration":0.2857139999999987,"midi":33,"time":57.857085000000005,"velocity":0.3937007874015748},{"duration":0.2857139999999987,"midi":45,"time":57.857085000000005,"velocity":0.3937007874015748},{"duration":0.14285699999999935,"midi":45,"time":58.142799000000004,"velocity":0.3937007874015748},{"duration":0.14285699999999935,"midi":33,"time":58.142799000000004,"velocity":0.3937007874015748},{"duration":0.2857139999999987,"midi":45,"time":58.285656,"velocity":0.3937007874015748},{"duration":0.2857139999999987,"midi":33,"time":58.285656,"velocity":0.3937007874015748},{"duration":0.14285700000000645,"midi":33,"time":58.57137,"velocity":0.3937007874015748},{"duration":0.14285700000000645,"midi":45,"time":58.57137,"velocity":0.3937007874015748},{"duration":0.2857139999999916,"midi":45,"time":58.71422700000001,"velocity":0.3937007874015748},{"duration":0.2857139999999916,"midi":33,"time":58.71422700000001,"velocity":0.3937007874015748},{"duration":0.14285700000000645,"midi":45,"time":58.999941,"velocity":0.3937007874015748},{"duration":0.14285700000000645,"midi":33,"time":58.999941,"velocity":0.3937007874015748},{"duration":0.2857139999999916,"midi":38,"time":59.142798000000006,"velocity":0.3937007874015748},{"duration":0.2857139999999916,"midi":50,"time":59.142798000000006,"velocity":0.3937007874015748},{"duration":0.14285700000000645,"midi":38,"time":59.428512,"velocity":0.3937007874015748},{"duration":0.14285700000000645,"midi":50,"time":59.428512,"velocity":0.3937007874015748},{"duration":0.14285700000000645,"midi":50,"time":59.571369000000004,"velocity":0.3937007874015748},{"duration":0.14285700000000645,"midi":38,"time":59.571369000000004,"velocity":0.3937007874015748},{"duration":0.14285699999999224,"midi":38,"time":59.71422600000001,"velocity":0.3937007874015748},{"duration":0.14285699999999224,"midi":50,"time":59.71422600000001,"velocity":0.3937007874015748},{"duration":0.14285699999999935,"midi":50,"time":59.857083,"velocity":0.3937007874015748},{"duration":0.14285699999999935,"midi":38,"time":59.857083,"velocity":0.3937007874015748},{"duration":0.2857139999999987,"midi":43,"time":59.99994,"velocity":0.3937007874015748},{"duration":0.2857139999999987,"midi":31,"time":59.99994,"velocity":0.3937007874015748},{"duration":0.14285700000000645,"midi":43,"time":60.285654,"velocity":0.3937007874015748},{"duration":0.14285700000000645,"midi":31,"time":60.285654,"velocity":0.3937007874015748},{"duration":0.14285699999999935,"midi":43,"time":60.42851100000001,"velocity":0.3937007874015748},{"duration":0.14285699999999935,"midi":31,"time":60.42851100000001,"velocity":0.3937007874015748},{"duration":0.14285699999999224,"midi":31,"time":60.57136800000001,"velocity":0.3937007874015748},{"duration":0.14285699999999224,"midi":43,"time":60.57136800000001,"velocity":0.3937007874015748},{"duration":0.14285700000000645,"midi":43,"time":60.714225,"velocity":0.3937007874015748},{"duration":0.14285700000000645,"midi":31,"time":60.714225,"velocity":0.3937007874015748},{"duration":0.2857139999999987,"midi":41,"time":60.857082000000005,"velocity":0.3937007874015748},{"duration":0.2857139999999987,"midi":53,"time":60.857082000000005,"velocity":0.3937007874015748},{"duration":0.14285699999999935,"midi":53,"time":61.142796000000004,"velocity":0.3937007874015748},{"duration":0.14285699999999935,"midi":41,"time":61.142796000000004,"velocity":0.3937007874015748},{"duration":0.14285700000000645,"midi":53,"time":61.285653,"velocity":0.3937007874015748},{"duration":0.14285700000000645,"midi":41,"time":61.285653,"velocity":0.3937007874015748},{"duration":0.14285699999999224,"midi":53,"time":61.42851000000001,"velocity":0.3937007874015748},{"duration":0.14285699999999224,"midi":41,"time":61.42851000000001,"velocity":0.3937007874015748},{"duration":0.14285699999999935,"midi":41,"time":61.571367,"velocity":0.3937007874015748},{"duration":0.14285699999999935,"midi":53,"time":61.571367,"velocity":0.3937007874015748},{"duration":0.2857139999999987,"midi":36,"time":61.714224,"velocity":0.3937007874015748},{"duration":0.2857139999999987,"midi":48,"time":61.714224,"velocity":0.3937007874015748},{"duration":0.14285700000000645,"midi":48,"time":61.999938,"velocity":0.3937007874015748},{"duration":0.14285700000000645,"midi":36,"time":61.999938,"velocity":0.3937007874015748},{"duration":0.14285699999999935,"midi":48,"time":62.14279500000001,"velocity":0.3937007874015748},{"duration":0.14285699999999935,"midi":36,"time":62.14279500000001,"velocity":0.3937007874015748},{"duration":0.14285699999999224,"midi":36,"time":62.285652000000006,"velocity":0.3937007874015748},{"duration":0.14285699999999224,"midi":48,"time":62.285652000000006,"velocity":0.3937007874015748},{"duration":0.14285700000000645,"midi":48,"time":62.428509,"velocity":0.3937007874015748},{"duration":0.14285700000000645,"midi":36,"time":62.428509,"velocity":0.3937007874015748},{"duration":0.2857139999999987,"midi":43,"time":62.571366000000005,"velocity":0.3937007874015748},{"duration":0.2857139999999987,"midi":31,"time":62.571366000000005,"velocity":0.3937007874015748},{"duration":0.14285699999999935,"midi":43,"time":62.85708,"velocity":0.3937007874015748},{"duration":0.14285699999999935,"midi":31,"time":62.85708,"velocity":0.3937007874015748},{"duration":0.14285700000000645,"midi":43,"time":62.999937,"velocity":0.3937007874015748},{"duration":0.14285700000000645,"midi":31,"time":62.999937,"velocity":0.3937007874015748},{"duration":0.14285699999999224,"midi":43,"time":63.14279400000001,"velocity":0.3937007874015748},{"duration":0.14285699999999224,"midi":31,"time":63.14279400000001,"velocity":0.3937007874015748},{"duration":0.14285700000000645,"midi":31,"time":63.285651,"velocity":0.3937007874015748},{"duration":0.14285700000000645,"midi":43,"time":63.285651,"velocity":0.3937007874015748},{"duration":0.2857139999999916,"midi":33,"time":63.42850800000001,"velocity":0.3937007874015748},{"duration":0.2857139999999916,"midi":45,"time":63.42850800000001,"velocity":0.3937007874015748},{"duration":0.14285700000000645,"midi":45,"time":63.714222,"velocity":0.3937007874015748},{"duration":0.14285700000000645,"midi":33,"time":63.714222,"velocity":0.3937007874015748},{"duration":0.14285700000000645,"midi":45,"time":63.857079000000006,"velocity":0.3937007874015748},{"duration":0.14285700000000645,"midi":33,"time":63.857079000000006,"velocity":0.3937007874015748},{"duration":0.14285699999998513,"midi":33,"time":63.99993600000001,"velocity":0.3937007874015748},{"duration":0.14285699999998513,"midi":45,"time":63.99993600000001,"velocity":0.3937007874015748},{"duration":0.14285700000000645,"midi":45,"time":64.142793,"velocity":0.3937007874015748},{"duration":0.14285700000000645,"midi":33,"time":64.142793,"velocity":0.3937007874015748},{"duration":0.2857139999999987,"midi":45,"time":64.28565,"velocity":0.3937007874015748},{"duration":0.2857139999999987,"midi":33,"time":64.28565,"velocity":0.3937007874015748},{"duration":0.14285700000000645,"midi":33,"time":64.571364,"velocity":0.3937007874015748},{"duration":0.14285700000000645,"midi":45,"time":64.571364,"velocity":0.3937007874015748},{"duration":0.14285700000000645,"midi":45,"time":64.71422100000001,"velocity":0.3937007874015748},{"duration":0.14285700000000645,"midi":33,"time":64.71422100000001,"velocity":0.3937007874015748},{"duration":0.14285699999999224,"midi":45,"time":64.85707800000002,"velocity":0.3937007874015748},{"duration":0.14285699999999224,"midi":33,"time":64.85707800000002,"velocity":0.3937007874015748},{"duration":0.14285699999999224,"midi":33,"time":64.99993500000001,"velocity":0.3937007874015748},{"duration":0.14285699999999224,"midi":45,"time":64.99993500000001,"velocity":0.3937007874015748},{"duration":0.2857139999999987,"midi":38,"time":65.142792,"velocity":0.3937007874015748},{"duration":0.2857139999999987,"midi":50,"time":65.142792,"velocity":0.3937007874015748},{"duration":0.14285700000000645,"midi":38,"time":65.428506,"velocity":0.3937007874015748},{"duration":0.14285700000000645,"midi":50,"time":65.428506,"velocity":0.3937007874015748},{"duration":0.14285700000000645,"midi":38,"time":65.571363,"velocity":0.3937007874015748},{"duration":0.14285700000000645,"midi":50,"time":65.571363,"velocity":0.3937007874015748},{"duration":0.14285699999999224,"midi":50,"time":65.71422000000001,"velocity":0.3937007874015748},{"duration":0.14285699999999224,"midi":38,"time":65.71422000000001,"velocity":0.3937007874015748},{"duration":0.14285700000000645,"midi":38,"time":65.857077,"velocity":0.3937007874015748},{"duration":0.14285700000000645,"midi":50,"time":65.857077,"velocity":0.3937007874015748},{"duration":0.2857139999999845,"midi":50,"time":65.99993400000001,"velocity":0.3937007874015748},{"duration":0.2857139999999845,"midi":38,"time":65.99993400000001,"velocity":0.3937007874015748},{"duration":0.14285700000000645,"midi":38,"time":66.285648,"velocity":0.3937007874015748},{"duration":0.14285700000000645,"midi":50,"time":66.285648,"velocity":0.3937007874015748},{"duration":0.14285700000000645,"midi":38,"time":66.428505,"velocity":0.3937007874015748},{"duration":0.14285700000000645,"midi":50,"time":66.428505,"velocity":0.3937007874015748},{"duration":0.14285699999999224,"midi":50,"time":66.57136200000001,"velocity":0.3937007874015748},{"duration":0.14285699999999224,"midi":38,"time":66.57136200000001,"velocity":0.3937007874015748},{"duration":0.14285700000000645,"midi":50,"time":66.714219,"velocity":0.3937007874015748},{"duration":0.14285700000000645,"midi":38,"time":66.714219,"velocity":0.3937007874015748},{"duration":0.2857139999999987,"midi":46,"time":66.857076,"velocity":0.3937007874015748},{"duration":0.2857139999999987,"midi":34,"time":66.857076,"velocity":0.3937007874015748},{"duration":0.14285700000000645,"midi":34,"time":67.14279,"velocity":0.3937007874015748},{"duration":0.14285700000000645,"midi":46,"time":67.14279,"velocity":0.3937007874015748},{"duration":0.14285699999999224,"midi":34,"time":67.28564700000001,"velocity":0.3937007874015748},{"duration":0.14285699999999224,"midi":46,"time":67.28564700000001,"velocity":0.3937007874015748},{"duration":0.14285699999999224,"midi":46,"time":67.428504,"velocity":0.3937007874015748},{"duration":0.14285699999999224,"midi":34,"time":67.428504,"velocity":0.3937007874015748},{"duration":0.14285700000000645,"midi":34,"time":67.571361,"velocity":0.3937007874015748},{"duration":0.14285700000000645,"midi":46,"time":67.571361,"velocity":0.3937007874015748},{"duration":0.2857139999999987,"midi":41,"time":67.714218,"velocity":0.3937007874015748},{"duration":0.2857139999999987,"midi":53,"time":67.714218,"velocity":0.3937007874015748},{"duration":0.14285700000000645,"midi":41,"time":67.999932,"velocity":0.3937007874015748},{"duration":0.14285700000000645,"midi":53,"time":67.999932,"velocity":0.3937007874015748},{"duration":0.14285700000000645,"midi":53,"time":68.14278900000001,"velocity":0.3937007874015748},{"duration":0.14285700000000645,"midi":41,"time":68.14278900000001,"velocity":0.3937007874015748},{"duration":0.14285699999999224,"midi":41,"time":68.28564600000001,"velocity":0.3937007874015748},{"duration":0.14285699999999224,"midi":53,"time":68.28564600000001,"velocity":0.3937007874015748},{"duration":0.14285699999999224,"midi":41,"time":68.428503,"velocity":0.3937007874015748},{"duration":0.14285699999999224,"midi":53,"time":68.428503,"velocity":0.3937007874015748},{"duration":0.2857139999999987,"midi":36,"time":68.57136,"velocity":0.3937007874015748},{"duration":0.2857139999999987,"midi":48,"time":68.57136,"velocity":0.3937007874015748},{"duration":0.14285700000000645,"midi":36,"time":68.857074,"velocity":0.3937007874015748},{"duration":0.14285700000000645,"midi":48,"time":68.857074,"velocity":0.3937007874015748},{"duration":0.14285700000000645,"midi":48,"time":68.999931,"velocity":0.3937007874015748},{"duration":0.14285700000000645,"midi":36,"time":68.999931,"velocity":0.3937007874015748},{"duration":0.14285699999999224,"midi":36,"time":69.14278800000001,"velocity":0.3937007874015748},{"duration":0.14285699999999224,"midi":48,"time":69.14278800000001,"velocity":0.3937007874015748},{"duration":0.14285700000000645,"midi":48,"time":69.285645,"velocity":0.3937007874015748},{"duration":0.14285700000000645,"midi":36,"time":69.285645,"velocity":0.3937007874015748},{"duration":0.2857139999999987,"midi":43,"time":69.42850200000001,"velocity":0.3937007874015748},{"duration":0.2857139999999987,"midi":31,"time":69.42850200000001,"velocity":0.3937007874015748},{"duration":0.14285699999999224,"midi":43,"time":69.71421600000001,"velocity":0.3937007874015748},{"duration":0.14285699999999224,"midi":31,"time":69.71421600000001,"velocity":0.3937007874015748},{"duration":0.2857139999999987,"midi":31,"time":69.857073,"velocity":0.3937007874015748},{"duration":0.14285700000000645,"midi":43,"time":69.857073,"velocity":0.3937007874015748},{"duration":0.14285700000000645,"midi":31,"time":70.142787,"velocity":0.3937007874015748},{"duration":0.14285700000000645,"midi":43,"time":70.142787,"velocity":0.3937007874015748},{"duration":0.2857139999999987,"midi":33,"time":70.285644,"velocity":0.3937007874015748},{"duration":0.2857139999999987,"midi":45,"time":70.285644,"velocity":0.3937007874015748},{"duration":0.14285700000000645,"midi":33,"time":70.571358,"velocity":0.3937007874015748},{"duration":0.14285700000000645,"midi":45,"time":70.571358,"velocity":0.3937007874015748},{"duration":0.14285700000000645,"midi":45,"time":70.71421500000001,"velocity":0.3937007874015748},{"duration":0.2857139999999987,"midi":33,"time":70.71421500000001,"velocity":0.3937007874015748},{"duration":0.14285699999999224,"midi":45,"time":70.85707200000002,"velocity":0.3937007874015748},{"duration":0.14285699999999224,"midi":33,"time":70.99992900000001,"velocity":0.3937007874015748},{"duration":0.14285699999999224,"midi":45,"time":70.99992900000001,"velocity":0.3937007874015748},{"duration":0.2857139999999987,"midi":45,"time":71.142786,"velocity":0.3937007874015748},{"duration":0.2857139999999987,"midi":33,"time":71.142786,"velocity":0.3937007874015748},{"duration":0.14285700000000645,"midi":45,"time":71.4285,"velocity":0.3937007874015748},{"duration":0.14285700000000645,"midi":33,"time":71.4285,"velocity":0.3937007874015748},{"duration":0.14285700000000645,"midi":45,"time":71.571357,"velocity":0.3937007874015748},{"duration":0.2857139999999987,"midi":33,"time":71.571357,"velocity":0.3937007874015748},{"duration":0.14285699999999224,"midi":45,"time":71.71421400000001,"velocity":0.3937007874015748},{"duration":0.14285700000000645,"midi":45,"time":71.857071,"velocity":0.3937007874015748},{"duration":0.14285700000000645,"midi":33,"time":71.857071,"velocity":0.3937007874015748},{"duration":0.2857139999999845,"midi":50,"time":71.99992800000001,"velocity":0.3937007874015748},{"duration":0.2857139999999845,"midi":38,"time":71.99992800000001,"velocity":0.3937007874015748},{"duration":0.14285700000000645,"midi":50,"time":72.285642,"velocity":0.3937007874015748},{"duration":0.14285700000000645,"midi":38,"time":72.285642,"velocity":0.3937007874015748},{"duration":0.2857139999999987,"midi":38,"time":72.428499,"velocity":0.3937007874015748},{"duration":0.2857139999999987,"midi":50,"time":72.428499,"velocity":0.3937007874015748},{"duration":0.14285700000000645,"midi":50,"time":72.714213,"velocity":0.3937007874015748},{"duration":0.14285700000000645,"midi":38,"time":72.714213,"velocity":0.3937007874015748},{"duration":0.2857139999999987,"midi":50,"time":72.85707000000001,"velocity":0.3937007874015748},{"duration":0.2857139999999987,"midi":38,"time":72.85707000000001,"velocity":0.3937007874015748},{"duration":0.14285700000000645,"midi":50,"time":73.142784,"velocity":0.3937007874015748},{"duration":0.14285700000000645,"midi":38,"time":73.142784,"velocity":0.3937007874015748},{"duration":0.2857139999999845,"midi":38,"time":73.28564100000001,"velocity":0.3937007874015748},{"duration":0.2857139999999845,"midi":50,"time":73.28564100000001,"velocity":0.3937007874015748},{"duration":0.14285700000000645,"midi":48,"time":73.571355,"velocity":0.3937007874015748},{"duration":0.14285700000000645,"midi":36,"time":73.571355,"velocity":0.3937007874015748},{"duration":0.2857139999999987,"midi":46,"time":73.714212,"velocity":0.3937007874015748},{"duration":0.2857139999999987,"midi":34,"time":73.714212,"velocity":0.3937007874015748},{"duration":0.14285700000000645,"midi":34,"time":73.999926,"velocity":0.3937007874015748},{"duration":0.14285700000000645,"midi":46,"time":73.999926,"velocity":0.3937007874015748},{"duration":0.2857139999999987,"midi":46,"time":74.14278300000001,"velocity":0.3937007874015748},{"duration":0.2857139999999987,"midi":34,"time":74.14278300000001,"velocity":0.3937007874015748},{"duration":0.14285699999999224,"midi":34,"time":74.42849700000001,"velocity":0.3937007874015748},{"duration":0.14285699999999224,"midi":46,"time":74.42849700000001,"velocity":0.3937007874015748},{"duration":0.2857139999999987,"midi":33,"time":74.571354,"velocity":0.3937007874015748},{"duration":0.2857139999999987,"midi":45,"time":74.571354,"velocity":0.3937007874015748},{"duration":0.14285700000000645,"midi":33,"time":74.857068,"velocity":0.3937007874015748},{"duration":0.14285700000000645,"midi":45,"time":74.857068,"velocity":0.3937007874015748},{"duration":0.2857139999999987,"midi":45,"time":74.999925,"velocity":0.3937007874015748},{"duration":0.2857139999999987,"midi":33,"time":74.999925,"velocity":0.3937007874015748},{"duration":0.14285700000000645,"midi":33,"time":75.285639,"velocity":0.3937007874015748},{"duration":0.14285700000000645,"midi":45,"time":75.285639,"velocity":0.3937007874015748},{"duration":0.2857139999999987,"midi":38,"time":75.42849600000001,"velocity":0.3937007874015748},{"duration":0.2857139999999987,"midi":50,"time":75.42849600000001,"velocity":0.3937007874015748},{"duration":0.14285699999999224,"midi":38,"time":75.71421000000001,"velocity":0.3937007874015748},{"duration":0.14285699999999224,"midi":50,"time":75.71421000000001,"velocity":0.3937007874015748},{"duration":0.2857139999999987,"midi":45,"time":75.857067,"velocity":0.3937007874015748},{"duration":0.2857139999999987,"midi":38,"time":75.857067,"velocity":0.3937007874015748},{"duration":0.14285700000000645,"midi":45,"time":76.142781,"velocity":0.3937007874015748},{"duration":0.14285700000000645,"midi":38,"time":76.142781,"velocity":0.3937007874015748},{"duration":0.2857139999999987,"midi":46,"time":76.285638,"velocity":0.3937007874015748},{"duration":0.2857139999999987,"midi":34,"time":76.285638,"velocity":0.3937007874015748},{"duration":0.14285700000000645,"midi":46,"time":76.571352,"velocity":0.3937007874015748},{"duration":0.14285700000000645,"midi":34,"time":76.571352,"velocity":0.3937007874015748},{"duration":0.2857139999999845,"midi":46,"time":76.71420900000001,"velocity":0.3937007874015748},{"duration":0.2857139999999845,"midi":34,"time":76.71420900000001,"velocity":0.3937007874015748},{"duration":0.14285700000000645,"midi":34,"time":76.999923,"velocity":0.3937007874015748},{"duration":0.14285700000000645,"midi":46,"time":76.999923,"velocity":0.3937007874015748},{"duration":0.2857139999999987,"midi":41,"time":77.14278,"velocity":0.3937007874015748},{"duration":0.2857139999999987,"midi":29,"time":77.14278,"velocity":0.3937007874015748},{"duration":0.14285700000000645,"midi":41,"time":77.428494,"velocity":0.3937007874015748},{"duration":0.14285700000000645,"midi":29,"time":77.428494,"velocity":0.3937007874015748},{"duration":0.2857139999999987,"midi":29,"time":77.571351,"velocity":0.3937007874015748},{"duration":0.2857139999999987,"midi":41,"time":77.571351,"velocity":0.3937007874015748},{"duration":0.14285700000000645,"midi":41,"time":77.857065,"velocity":0.3937007874015748},{"duration":0.14285700000000645,"midi":29,"time":77.857065,"velocity":0.3937007874015748},{"duration":0.2857139999999845,"midi":48,"time":77.99992200000001,"velocity":0.3937007874015748},{"duration":0.2857139999999845,"midi":36,"time":77.99992200000001,"velocity":0.3937007874015748},{"duration":0.14285700000000645,"midi":48,"time":78.285636,"velocity":0.3937007874015748},{"duration":0.14285700000000645,"midi":36,"time":78.285636,"velocity":0.3937007874015748},{"duration":0.2857139999999987,"midi":33,"time":78.428493,"velocity":0.3937007874015748},{"duration":0.2857139999999987,"midi":45,"time":78.428493,"velocity":0.3937007874015748},{"duration":0.14285700000000645,"midi":33,"time":78.714207,"velocity":0.3937007874015748},{"duration":0.14285700000000645,"midi":45,"time":78.714207,"velocity":0.3937007874015748},{"duration":0.2857139999999987,"midi":50,"time":78.85706400000001,"velocity":0.3937007874015748},{"duration":0.2857139999999987,"midi":38,"time":78.85706400000001,"velocity":0.3937007874015748},{"duration":0.14285700000000645,"midi":50,"time":79.142778,"velocity":0.3937007874015748},{"duration":0.14285700000000645,"midi":38,"time":79.142778,"velocity":0.3937007874015748},{"duration":0.2857139999999845,"midi":45,"time":79.28563500000001,"velocity":0.3937007874015748},{"duration":0.2857139999999845,"midi":38,"time":79.28563500000001,"velocity":0.3937007874015748},{"duration":0.14285700000000645,"midi":45,"time":79.571349,"velocity":0.3937007874015748},{"duration":0.14285700000000645,"midi":38,"time":79.571349,"velocity":0.3937007874015748},{"duration":0.2857139999999987,"midi":50,"time":79.714206,"velocity":0.3937007874015748},{"duration":0.2857139999999987,"midi":38,"time":79.714206,"velocity":0.3937007874015748},{"duration":0.14285700000000645,"midi":38,"time":79.99992,"velocity":0.3937007874015748},{"duration":0.14285700000000645,"midi":50,"time":79.99992,"velocity":0.3937007874015748},{"duration":0.2857139999999987,"midi":50,"time":80.14277700000001,"velocity":0.3937007874015748},{"duration":0.2857139999999987,"midi":38,"time":80.14277700000001,"velocity":0.3937007874015748},{"duration":0.14285699999999224,"midi":50,"time":80.42849100000001,"velocity":0.3937007874015748},{"duration":0.14285699999999224,"midi":38,"time":80.42849100000001,"velocity":0.3937007874015748},{"duration":0.2857139999999987,"midi":34,"time":80.571348,"velocity":0.3937007874015748},{"duration":0.2857139999999987,"midi":46,"time":80.571348,"velocity":0.3937007874015748},{"duration":0.14285700000000645,"midi":46,"time":80.857062,"velocity":0.3937007874015748},{"duration":0.14285700000000645,"midi":34,"time":80.857062,"velocity":0.3937007874015748},{"duration":0.2857139999999987,"midi":46,"time":80.999919,"velocity":0.3937007874015748},{"duration":0.2857139999999987,"midi":34,"time":80.999919,"velocity":0.3937007874015748},{"duration":0.14285700000000645,"midi":46,"time":81.285633,"velocity":0.3937007874015748},{"duration":0.14285700000000645,"midi":34,"time":81.285633,"velocity":0.3937007874015748},{"duration":0.2857139999999987,"midi":43,"time":81.42849000000001,"velocity":0.3937007874015748},{"duration":0.2857139999999987,"midi":31,"time":81.42849000000001,"velocity":0.3937007874015748},{"duration":0.14285699999999224,"midi":43,"time":81.71420400000001,"velocity":0.3937007874015748},{"duration":0.14285699999999224,"midi":31,"time":81.71420400000001,"velocity":0.3937007874015748},{"duration":0.2857139999999987,"midi":31,"time":81.857061,"velocity":0.3937007874015748},{"duration":0.2857139999999987,"midi":43,"time":81.857061,"velocity":0.3937007874015748},{"duration":0.14285700000000645,"midi":31,"time":82.142775,"velocity":0.3937007874015748},{"duration":0.14285700000000645,"midi":43,"time":82.142775,"velocity":0.3937007874015748},{"duration":0.2857139999999987,"midi":50,"time":82.285632,"velocity":0.3937007874015748},{"duration":0.2857139999999987,"midi":38,"time":82.285632,"velocity":0.3937007874015748},{"duration":0.14285700000000645,"midi":38,"time":82.571346,"velocity":0.3937007874015748},{"duration":0.14285700000000645,"midi":50,"time":82.571346,"velocity":0.3937007874015748},{"duration":0.2857139999999845,"midi":38,"time":82.71420300000001,"velocity":0.3937007874015748},{"duration":0.2857139999999845,"midi":45,"time":82.71420300000001,"velocity":0.3937007874015748},{"duration":0.14285700000000645,"midi":45,"time":82.999917,"velocity":0.3937007874015748},{"duration":0.14285700000000645,"midi":38,"time":82.999917,"velocity":0.3937007874015748},{"duration":0.2857139999999987,"midi":34,"time":83.142774,"velocity":0.3937007874015748},{"duration":0.2857139999999987,"midi":46,"time":83.142774,"velocity":0.3937007874015748},{"duration":0.14285700000000645,"midi":46,"time":83.428488,"velocity":0.3937007874015748},{"duration":0.14285700000000645,"midi":34,"time":83.428488,"velocity":0.3937007874015748},{"duration":0.2857139999999987,"midi":34,"time":83.57134500000001,"velocity":0.3937007874015748},{"duration":0.2857139999999987,"midi":46,"time":83.57134500000001,"velocity":0.3937007874015748},{"duration":0.14285700000000645,"midi":46,"time":83.857059,"velocity":0.3937007874015748},{"duration":0.14285700000000645,"midi":34,"time":83.857059,"velocity":0.3937007874015748},{"duration":0.2857139999999845,"midi":50,"time":83.99991600000001,"velocity":0.3937007874015748},{"duration":0.2857139999999845,"midi":38,"time":83.99991600000001,"velocity":0.3937007874015748},{"duration":0.14285700000000645,"midi":38,"time":84.28563,"velocity":0.3937007874015748},{"duration":0.14285700000000645,"midi":50,"time":84.28563,"velocity":0.3937007874015748},{"duration":0.2857139999999987,"midi":50,"time":84.428487,"velocity":0.3937007874015748},{"duration":0.2857139999999987,"midi":38,"time":84.428487,"velocity":0.3937007874015748},{"duration":0.14285700000000645,"midi":38,"time":84.714201,"velocity":0.3937007874015748},{"duration":0.14285700000000645,"midi":50,"time":84.714201,"velocity":0.3937007874015748},{"duration":0.2857139999999987,"midi":33,"time":84.85705800000001,"velocity":0.3937007874015748},{"duration":0.2857139999999987,"midi":45,"time":84.85705800000001,"velocity":0.3937007874015748},{"duration":0.14285699999999224,"midi":45,"time":85.14277200000001,"velocity":0.3937007874015748},{"duration":0.14285699999999224,"midi":33,"time":85.14277200000001,"velocity":0.3937007874015748},{"duration":0.2857139999999987,"midi":45,"time":85.285629,"velocity":0.3937007874015748},{"duration":0.2857139999999987,"midi":33,"time":85.285629,"velocity":0.3937007874015748},{"duration":0.14285700000000645,"midi":33,"time":85.571343,"velocity":0.3937007874015748},{"duration":0.14285700000000645,"midi":45,"time":85.571343,"velocity":0.3937007874015748},{"duration":0.2857139999999987,"midi":33,"time":85.7142,"velocity":0.3937007874015748},{"duration":0.2857139999999987,"midi":45,"time":85.7142,"velocity":0.3937007874015748},{"duration":0.14285700000000645,"midi":33,"time":85.999914,"velocity":0.3937007874015748},{"duration":0.14285700000000645,"midi":45,"time":85.999914,"velocity":0.3937007874015748},{"duration":0.2857139999999987,"midi":33,"time":86.14277100000001,"velocity":0.3937007874015748},{"duration":0.2857139999999987,"midi":45,"time":86.14277100000001,"velocity":0.3937007874015748},{"duration":0.14285699999999224,"midi":33,"time":86.42848500000001,"velocity":0.3937007874015748},{"duration":0.14285699999999224,"midi":45,"time":86.42848500000001,"velocity":0.3937007874015748},{"duration":0.2857139999999987,"midi":50,"time":86.571342,"velocity":0.3937007874015748},{"duration":0.2857139999999987,"midi":38,"time":86.571342,"velocity":0.3937007874015748},{"duration":0.14285700000000645,"midi":38,"time":86.857056,"velocity":0.3937007874015748},{"duration":0.14285700000000645,"midi":50,"time":86.857056,"velocity":0.3937007874015748},{"duration":0.2857139999999987,"midi":50,"time":86.999913,"velocity":0.3937007874015748},{"duration":0.2857139999999987,"midi":38,"time":86.999913,"velocity":0.3937007874015748},{"duration":0.14285700000000645,"midi":48,"time":87.285627,"velocity":0.3937007874015748},{"duration":0.14285700000000645,"midi":36,"time":87.285627,"velocity":0.3937007874015748},{"duration":0.2857139999999845,"midi":34,"time":87.42848400000001,"velocity":0.3937007874015748},{"duration":0.2857139999999845,"midi":46,"time":87.42848400000001,"velocity":0.3937007874015748},{"duration":0.14285700000000645,"midi":46,"time":87.714198,"velocity":0.3937007874015748},{"duration":0.14285700000000645,"midi":34,"time":87.714198,"velocity":0.3937007874015748},{"duration":0.2857139999999987,"midi":34,"time":87.857055,"velocity":0.3937007874015748},{"duration":0.2857139999999987,"midi":46,"time":87.857055,"velocity":0.3937007874015748},{"duration":0.14285700000000645,"midi":46,"time":88.142769,"velocity":0.3937007874015748},{"duration":0.14285700000000645,"midi":34,"time":88.142769,"velocity":0.3937007874015748},{"duration":0.2857139999999987,"midi":33,"time":88.28562600000001,"velocity":0.3937007874015748},{"duration":0.2857139999999987,"midi":45,"time":88.28562600000001,"velocity":0.3937007874015748},{"duration":0.14285700000000645,"midi":33,"time":88.57134,"velocity":0.3937007874015748},{"duration":0.14285700000000645,"midi":45,"time":88.57134,"velocity":0.3937007874015748},{"duration":0.2857139999999845,"midi":45,"time":88.71419700000001,"velocity":0.3937007874015748},{"duration":0.2857139999999845,"midi":33,"time":88.71419700000001,"velocity":0.3937007874015748},{"duration":0.14285700000000645,"midi":45,"time":88.999911,"velocity":0.3937007874015748},{"duration":0.14285700000000645,"midi":33,"time":88.999911,"velocity":0.3937007874015748},{"duration":0.2857139999999987,"midi":50,"time":89.142768,"velocity":0.3937007874015748},{"duration":0.2857139999999987,"midi":38,"time":89.142768,"velocity":0.3937007874015748},{"duration":0.14285700000000645,"midi":38,"time":89.428482,"velocity":0.3937007874015748},{"duration":0.14285700000000645,"midi":50,"time":89.428482,"velocity":0.3937007874015748},{"duration":0.2857139999999987,"midi":45,"time":89.57133900000001,"velocity":0.3937007874015748},{"duration":0.2857139999999987,"midi":38,"time":89.57133900000001,"velocity":0.3937007874015748},{"duration":0.14285700000000645,"midi":38,"time":89.85705300000001,"velocity":0.3937007874015748},{"duration":0.14285700000000645,"midi":45,"time":89.85705300000001,"velocity":0.3937007874015748},{"duration":0.2857139999999845,"midi":46,"time":89.99991000000001,"velocity":0.3937007874015748},{"duration":0.2857139999999845,"midi":34,"time":89.99991000000001,"velocity":0.3937007874015748},{"duration":0.14285700000000645,"midi":46,"time":90.285624,"velocity":0.3937007874015748},{"duration":0.14285700000000645,"midi":34,"time":90.285624,"velocity":0.3937007874015748},{"duration":0.2857139999999987,"midi":46,"time":90.428481,"velocity":0.3937007874015748},{"duration":0.2857139999999987,"midi":34,"time":90.428481,"velocity":0.3937007874015748},{"duration":0.14285700000000645,"midi":34,"time":90.714195,"velocity":0.3937007874015748},{"duration":0.14285700000000645,"midi":46,"time":90.714195,"velocity":0.3937007874015748},{"duration":0.2857139999999987,"midi":29,"time":90.85705200000001,"velocity":0.3937007874015748},{"duration":0.2857139999999987,"midi":41,"time":90.85705200000001,"velocity":0.3937007874015748},{"duration":0.14285699999999224,"midi":41,"time":91.14276600000001,"velocity":0.3937007874015748},{"duration":0.14285699999999224,"midi":29,"time":91.14276600000001,"velocity":0.3937007874015748},{"duration":0.2857139999999987,"midi":29,"time":91.285623,"velocity":0.3937007874015748},{"duration":0.2857139999999987,"midi":41,"time":91.285623,"velocity":0.3937007874015748},{"duration":0.14285700000000645,"midi":41,"time":91.571337,"velocity":0.3937007874015748},{"duration":0.14285700000000645,"midi":29,"time":91.571337,"velocity":0.3937007874015748},{"duration":0.2857139999999987,"midi":48,"time":91.714194,"velocity":0.3937007874015748},{"duration":0.2857139999999987,"midi":36,"time":91.714194,"velocity":0.3937007874015748},{"duration":0.14285700000000645,"midi":36,"time":91.999908,"velocity":0.3937007874015748},{"duration":0.14285700000000645,"midi":48,"time":91.999908,"velocity":0.3937007874015748},{"duration":0.2857139999999987,"midi":45,"time":92.14276500000001,"velocity":0.3937007874015748},{"duration":0.2857139999999987,"midi":33,"time":92.14276500000001,"velocity":0.3937007874015748},{"duration":0.14285699999999224,"midi":45,"time":92.42847900000001,"velocity":0.3937007874015748},{"duration":0.14285699999999224,"midi":33,"time":92.42847900000001,"velocity":0.3937007874015748},{"duration":0.2857139999999987,"midi":50,"time":92.571336,"velocity":0.3937007874015748},{"duration":0.2857139999999987,"midi":38,"time":92.571336,"velocity":0.3937007874015748},{"duration":0.14285700000000645,"midi":38,"time":92.85705,"velocity":0.3937007874015748},{"duration":0.14285700000000645,"midi":50,"time":92.85705,"velocity":0.3937007874015748},{"duration":0.2857139999999987,"midi":45,"time":92.99990700000001,"velocity":0.3937007874015748},{"duration":0.2857139999999987,"midi":38,"time":92.99990700000001,"velocity":0.3937007874015748},{"duration":0.14285700000000645,"midi":45,"time":93.285621,"velocity":0.3937007874015748},{"duration":0.14285700000000645,"midi":38,"time":93.285621,"velocity":0.3937007874015748},{"duration":0.2857139999999845,"midi":50,"time":93.42847800000001,"velocity":0.3937007874015748},{"duration":0.2857139999999845,"midi":38,"time":93.42847800000001,"velocity":0.3937007874015748},{"duration":0.14285700000000645,"midi":38,"time":93.714192,"velocity":0.3937007874015748},{"duration":0.14285700000000645,"midi":50,"time":93.714192,"velocity":0.3937007874015748},{"duration":0.2857139999999987,"midi":50,"time":93.857049,"velocity":0.3937007874015748},{"duration":0.2857139999999987,"midi":38,"time":93.857049,"velocity":0.3937007874015748},{"duration":0.14285700000000645,"midi":50,"time":94.142763,"velocity":0.3937007874015748},{"duration":0.14285700000000645,"midi":38,"time":94.142763,"velocity":0.3937007874015748},{"duration":0.2857139999999987,"midi":46,"time":94.28562000000001,"velocity":0.3937007874015748},{"duration":0.2857139999999987,"midi":34,"time":94.28562000000001,"velocity":0.3937007874015748},{"duration":0.14285700000000645,"midi":46,"time":94.57133400000001,"velocity":0.3937007874015748},{"duration":0.14285700000000645,"midi":34,"time":94.57133400000001,"velocity":0.3937007874015748},{"duration":0.2857139999999845,"midi":46,"time":94.71419100000001,"velocity":0.3937007874015748},{"duration":0.2857139999999845,"midi":34,"time":94.71419100000001,"velocity":0.3937007874015748},{"duration":0.14285700000000645,"midi":46,"time":94.999905,"velocity":0.3937007874015748},{"duration":0.14285700000000645,"midi":34,"time":94.999905,"velocity":0.3937007874015748},{"duration":0.2857139999999987,"midi":43,"time":95.142762,"velocity":0.3937007874015748},{"duration":0.2857139999999987,"midi":31,"time":95.142762,"velocity":0.3937007874015748},{"duration":0.14285700000000645,"midi":43,"time":95.428476,"velocity":0.3937007874015748},{"duration":0.14285700000000645,"midi":31,"time":95.428476,"velocity":0.3937007874015748},{"duration":0.2857139999999987,"midi":43,"time":95.57133300000001,"velocity":0.3937007874015748},{"duration":0.2857139999999987,"midi":31,"time":95.57133300000001,"velocity":0.3937007874015748},{"duration":0.14285700000000645,"midi":43,"time":95.85704700000001,"velocity":0.3937007874015748},{"duration":0.14285700000000645,"midi":31,"time":95.85704700000001,"velocity":0.3937007874015748},{"duration":0.2857139999999845,"midi":50,"time":95.99990400000002,"velocity":0.3937007874015748},{"duration":0.2857139999999845,"midi":38,"time":95.99990400000002,"velocity":0.3937007874015748},{"duration":0.14285700000000645,"midi":50,"time":96.285618,"velocity":0.3937007874015748},{"duration":0.14285700000000645,"midi":38,"time":96.285618,"velocity":0.3937007874015748},{"duration":0.2857139999999987,"midi":38,"time":96.428475,"velocity":0.3937007874015748},{"duration":0.2857139999999987,"midi":45,"time":96.428475,"velocity":0.3937007874015748},{"duration":0.14285700000000645,"midi":38,"time":96.714189,"velocity":0.3937007874015748},{"duration":0.14285700000000645,"midi":45,"time":96.714189,"velocity":0.3937007874015748},{"duration":0.2857139999999987,"midi":46,"time":96.85704600000001,"velocity":0.3937007874015748},{"duration":0.2857139999999987,"midi":34,"time":96.85704600000001,"velocity":0.3937007874015748},{"duration":0.14285699999999224,"midi":46,"time":97.14276000000001,"velocity":0.3937007874015748},{"duration":0.14285699999999224,"midi":34,"time":97.14276000000001,"velocity":0.3937007874015748},{"duration":0.2857139999999987,"midi":34,"time":97.285617,"velocity":0.3937007874015748},{"duration":0.2857139999999987,"midi":46,"time":97.285617,"velocity":0.3937007874015748},{"duration":0.14285700000000645,"midi":34,"time":97.571331,"velocity":0.3937007874015748},{"duration":0.14285700000000645,"midi":46,"time":97.571331,"velocity":0.3937007874015748},{"duration":0.2857139999999987,"midi":50,"time":97.71418800000001,"velocity":0.3937007874015748},{"duration":0.2857139999999987,"midi":38,"time":97.71418800000001,"velocity":0.3937007874015748},{"duration":0.14285700000000645,"midi":38,"time":97.999902,"velocity":0.3937007874015748},{"duration":0.14285700000000645,"midi":50,"time":97.999902,"velocity":0.3937007874015748},{"duration":0.2857139999999987,"midi":50,"time":98.14275900000001,"velocity":0.3937007874015748},{"duration":0.2857139999999987,"midi":38,"time":98.14275900000001,"velocity":0.3937007874015748},{"duration":0.14285699999999224,"midi":38,"time":98.42847300000001,"velocity":0.3937007874015748},{"duration":0.14285699999999224,"midi":50,"time":98.42847300000001,"velocity":0.3937007874015748},{"duration":0.2857139999999987,"midi":45,"time":98.57133,"velocity":0.3937007874015748},{"duration":0.2857139999999987,"midi":33,"time":98.57133,"velocity":0.3937007874015748},{"duration":0.14285700000000645,"midi":33,"time":98.857044,"velocity":0.3937007874015748},{"duration":0.14285700000000645,"midi":45,"time":98.857044,"velocity":0.3937007874015748},{"duration":0.2857139999999987,"midi":33,"time":98.99990100000001,"velocity":0.3937007874015748},{"duration":0.2857139999999987,"midi":45,"time":98.99990100000001,"velocity":0.3937007874015748},{"duration":0.14285700000000645,"midi":45,"time":99.285615,"velocity":0.3937007874015748},{"duration":0.14285700000000645,"midi":33,"time":99.285615,"velocity":0.3937007874015748},{"duration":0.2857139999999845,"midi":50,"time":99.42847200000001,"velocity":0.3937007874015748},{"duration":0.2857139999999845,"midi":38,"time":99.42847200000001,"velocity":0.3937007874015748},{"duration":0.2857140000000129,"midi":50,"time":99.714186,"velocity":0.3937007874015748},{"duration":0.2857140000000129,"midi":38,"time":99.714186,"velocity":0.3937007874015748},{"duration":0.2857139999999987,"midi":36,"time":99.99990000000001,"velocity":0.3937007874015748},{"duration":0.2857139999999987,"midi":48,"time":99.99990000000001,"velocity":0.3937007874015748},{"duration":0.2857139999999987,"midi":48,"time":100.28561400000001,"velocity":0.3937007874015748},{"duration":0.2857139999999987,"midi":36,"time":100.28561400000001,"velocity":0.3937007874015748},{"duration":0.2857139999999987,"midi":48,"time":100.57132800000001,"velocity":0.3937007874015748},{"duration":0.2857139999999987,"midi":36,"time":100.57132800000001,"velocity":0.3937007874015748},{"duration":0.2857139999999987,"midi":34,"time":100.857042,"velocity":0.3937007874015748},{"duration":0.2857139999999987,"midi":46,"time":100.857042,"velocity":0.3937007874015748},{"duration":0.2857139999999987,"midi":45,"time":101.142756,"velocity":0.3937007874015748},{"duration":0.2857139999999987,"midi":33,"time":101.142756,"velocity":0.3937007874015748},{"duration":0.14285700000000645,"midi":45,"time":101.42847,"velocity":0.3937007874015748},{"duration":0.14285700000000645,"midi":33,"time":101.42847,"velocity":0.3937007874015748},{"duration":0.2857139999999987,"midi":33,"time":101.57132700000001,"velocity":0.3937007874015748},{"duration":0.2857139999999987,"midi":45,"time":101.57132700000001,"velocity":0.3937007874015748},{"duration":0.14285699999999224,"midi":33,"time":101.85704100000001,"velocity":0.3937007874015748},{"duration":0.14285699999999224,"midi":45,"time":101.85704100000001,"velocity":0.3937007874015748},{"duration":0.2857139999999987,"midi":45,"time":101.999898,"velocity":0.3937007874015748},{"duration":0.2857139999999987,"midi":33,"time":101.999898,"velocity":0.3937007874015748},{"duration":0.14285700000000645,"midi":33,"time":102.285612,"velocity":0.3937007874015748},{"duration":0.14285700000000645,"midi":45,"time":102.285612,"velocity":0.3937007874015748},{"duration":0.2857139999999987,"midi":33,"time":102.428469,"velocity":0.3937007874015748},{"duration":0.2857139999999987,"midi":45,"time":102.428469,"velocity":0.3937007874015748},{"duration":0.14285700000000645,"midi":45,"time":102.714183,"velocity":0.3937007874015748},{"duration":0.14285700000000645,"midi":33,"time":102.714183,"velocity":0.3937007874015748},{"duration":0.2857139999999987,"midi":31,"time":102.85704000000001,"velocity":0.3937007874015748},{"duration":0.2857139999999987,"midi":43,"time":102.85704000000001,"velocity":0.3937007874015748},{"duration":0.14285699999999224,"midi":43,"time":103.14275400000001,"velocity":0.3937007874015748},{"duration":0.14285699999999224,"midi":31,"time":103.14275400000001,"velocity":0.3937007874015748},{"duration":0.2857139999999987,"midi":43,"time":103.285611,"velocity":0.3937007874015748},{"duration":0.2857139999999987,"midi":31,"time":103.285611,"velocity":0.3937007874015748},{"duration":0.14285700000000645,"midi":43,"time":103.571325,"velocity":0.3937007874015748},{"duration":0.14285700000000645,"midi":31,"time":103.571325,"velocity":0.3937007874015748},{"duration":0.2857139999999987,"midi":31,"time":103.71418200000001,"velocity":0.3937007874015748},{"duration":0.2857139999999987,"midi":43,"time":103.71418200000001,"velocity":0.3937007874015748},{"duration":0.14285700000000645,"midi":43,"time":103.999896,"velocity":0.3937007874015748},{"duration":0.14285700000000645,"midi":31,"time":103.999896,"velocity":0.3937007874015748},{"duration":0.2857139999999845,"midi":31,"time":104.14275300000001,"velocity":0.3937007874015748},{"duration":0.2857139999999845,"midi":43,"time":104.14275300000001,"velocity":0.3937007874015748},{"duration":0.14285700000000645,"midi":43,"time":104.428467,"velocity":0.3937007874015748},{"duration":0.14285700000000645,"midi":31,"time":104.428467,"velocity":0.3937007874015748},{"duration":0.2857139999999987,"midi":45,"time":104.571324,"velocity":0.3937007874015748},{"duration":0.2857139999999987,"midi":33,"time":104.571324,"velocity":0.3937007874015748},{"duration":0.14285700000000645,"midi":45,"time":104.857038,"velocity":0.3937007874015748},{"duration":0.14285700000000645,"midi":33,"time":104.857038,"velocity":0.3937007874015748},{"duration":0.2857139999999987,"midi":33,"time":104.99989500000001,"velocity":0.3937007874015748},{"duration":0.2857139999999987,"midi":45,"time":104.99989500000001,"velocity":0.3937007874015748},{"duration":0.14285700000000645,"midi":45,"time":105.28560900000001,"velocity":0.3937007874015748},{"duration":0.14285700000000645,"midi":33,"time":105.28560900000001,"velocity":0.3937007874015748},{"duration":0.2857139999999845,"midi":33,"time":105.42846600000001,"velocity":0.3937007874015748},{"duration":0.2857139999999845,"midi":45,"time":105.42846600000001,"velocity":0.3937007874015748},{"duration":0.14285700000000645,"midi":45,"time":105.71418,"velocity":0.3937007874015748},{"duration":0.14285700000000645,"midi":33,"time":105.71418,"velocity":0.3937007874015748},{"duration":0.2857139999999987,"midi":33,"time":105.857037,"velocity":0.3937007874015748},{"duration":0.2857139999999987,"midi":45,"time":105.857037,"velocity":0.3937007874015748},{"duration":0.14285700000000645,"midi":33,"time":106.142751,"velocity":0.3937007874015748},{"duration":0.14285700000000645,"midi":45,"time":106.142751,"velocity":0.3937007874015748},{"duration":0.2857139999999987,"midi":38,"time":106.28560800000001,"velocity":0.3937007874015748},{"duration":0.2857139999999987,"midi":50,"time":106.28560800000001,"velocity":0.3937007874015748},{"duration":0.14285700000000645,"midi":50,"time":106.57132200000001,"velocity":0.3937007874015748},{"duration":0.14285700000000645,"midi":38,"time":106.57132200000001,"velocity":0.3937007874015748},{"duration":0.2857139999999845,"midi":38,"time":106.71417900000002,"velocity":0.3937007874015748},{"duration":0.2857139999999845,"midi":50,"time":106.71417900000002,"velocity":0.3937007874015748},{"duration":0.14285700000000645,"midi":38,"time":106.999893,"velocity":0.3937007874015748},{"duration":0.14285700000000645,"midi":50,"time":106.999893,"velocity":0.3937007874015748},{"duration":0.2857139999999987,"midi":38,"time":107.14275,"velocity":0.3937007874015748},{"duration":0.2857139999999987,"midi":50,"time":107.14275,"velocity":0.3937007874015748},{"duration":0.14285700000000645,"midi":38,"time":107.428464,"velocity":0.3937007874015748},{"duration":0.14285700000000645,"midi":50,"time":107.428464,"velocity":0.3937007874015748},{"duration":0.2857139999999987,"midi":50,"time":107.57132100000001,"velocity":0.3937007874015748},{"duration":0.2857139999999987,"midi":38,"time":107.57132100000001,"velocity":0.3937007874015748},{"duration":0.14285699999999224,"midi":50,"time":107.85703500000001,"velocity":0.3937007874015748},{"duration":0.14285699999999224,"midi":38,"time":107.85703500000001,"velocity":0.3937007874015748},{"duration":0.2857139999999987,"midi":48,"time":107.999892,"velocity":0.3937007874015748},{"duration":0.2857139999999987,"midi":36,"time":107.999892,"velocity":0.3937007874015748},{"duration":0.14285700000000645,"midi":48,"time":108.285606,"velocity":0.3937007874015748},{"duration":0.14285700000000645,"midi":36,"time":108.285606,"velocity":0.3937007874015748},{"duration":0.2857139999999987,"midi":48,"time":108.42846300000001,"velocity":0.3937007874015748},{"duration":0.2857139999999987,"midi":36,"time":108.42846300000001,"velocity":0.3937007874015748},{"duration":0.14285700000000645,"midi":48,"time":108.714177,"velocity":0.3937007874015748},{"duration":0.14285700000000645,"midi":36,"time":108.714177,"velocity":0.3937007874015748},{"duration":0.2857139999999987,"midi":53,"time":108.85703400000001,"velocity":0.3937007874015748},{"duration":0.2857139999999987,"midi":41,"time":108.85703400000001,"velocity":0.3937007874015748},{"duration":0.14285699999999224,"midi":41,"time":109.14274800000001,"velocity":0.3937007874015748},{"duration":0.14285699999999224,"midi":53,"time":109.14274800000001,"velocity":0.3937007874015748},{"duration":0.2857139999999987,"midi":53,"time":109.285605,"velocity":0.3937007874015748},{"duration":0.2857139999999987,"midi":41,"time":109.285605,"velocity":0.3937007874015748},{"duration":0.14285700000000645,"midi":53,"time":109.571319,"velocity":0.3937007874015748},{"duration":0.14285700000000645,"midi":41,"time":109.571319,"velocity":0.3937007874015748},{"duration":0.2857140000000129,"midi":50,"time":109.71417600000001,"velocity":0.3937007874015748},{"duration":0.2857140000000129,"midi":38,"time":109.71417600000001,"velocity":0.3937007874015748},{"duration":0.14285699999999224,"midi":38,"time":109.99989000000002,"velocity":0.3937007874015748},{"duration":0.14285699999999224,"midi":50,"time":109.99989000000002,"velocity":0.3937007874015748},{"duration":0.2857139999999987,"midi":38,"time":110.14274700000001,"velocity":0.3937007874015748},{"duration":0.2857139999999987,"midi":50,"time":110.14274700000001,"velocity":0.3937007874015748},{"duration":0.14285699999999224,"midi":50,"time":110.42846100000001,"velocity":0.3937007874015748},{"duration":0.14285699999999224,"midi":38,"time":110.42846100000001,"velocity":0.3937007874015748},{"duration":0.2857140000000129,"midi":50,"time":110.571318,"velocity":0.3937007874015748},{"duration":0.2857140000000129,"midi":38,"time":110.571318,"velocity":0.3937007874015748},{"duration":0.14285699999999224,"midi":38,"time":110.85703200000002,"velocity":0.3937007874015748},{"duration":0.14285699999999224,"midi":50,"time":110.85703200000002,"velocity":0.3937007874015748},{"duration":0.2857140000000129,"midi":50,"time":110.99988900000001,"velocity":0.3937007874015748},{"duration":0.2857140000000129,"midi":38,"time":110.99988900000001,"velocity":0.3937007874015748},{"duration":0.14285699999999224,"midi":38,"time":111.28560300000002,"velocity":0.3937007874015748},{"duration":0.14285699999999224,"midi":50,"time":111.28560300000002,"velocity":0.3937007874015748},{"duration":0.2857139999999987,"midi":33,"time":111.42846000000002,"velocity":0.3937007874015748},{"duration":0.2857139999999987,"midi":45,"time":111.42846000000002,"velocity":0.3937007874015748},{"duration":0.14285699999999224,"midi":45,"time":111.71417400000001,"velocity":0.3937007874015748},{"duration":0.14285699999999224,"midi":33,"time":111.71417400000001,"velocity":0.3937007874015748},{"duration":0.2857140000000129,"midi":33,"time":111.857031,"velocity":0.3937007874015748},{"duration":0.2857140000000129,"midi":45,"time":111.857031,"velocity":0.3937007874015748},{"duration":0.14285699999999224,"midi":33,"time":112.14274500000002,"velocity":0.3937007874015748},{"duration":0.14285699999999224,"midi":45,"time":112.14274500000002,"velocity":0.3937007874015748},{"duration":0.2857140000000129,"midi":50,"time":112.28560200000001,"velocity":0.3937007874015748},{"duration":0.2857140000000129,"midi":38,"time":112.28560200000001,"velocity":0.3937007874015748},{"duration":0.14285699999997803,"midi":38,"time":112.57131600000002,"velocity":0.3937007874015748},{"duration":0.14285699999997803,"midi":50,"time":112.57131600000002,"velocity":0.3937007874015748},{"duration":0.2857140000000129,"midi":50,"time":112.714173,"velocity":0.3937007874015748},{"duration":0.2857140000000129,"midi":38,"time":112.714173,"velocity":0.3937007874015748},{"duration":0.14285699999999224,"midi":38,"time":112.99988700000002,"velocity":0.3937007874015748},{"duration":0.14285699999999224,"midi":50,"time":112.99988700000002,"velocity":0.3937007874015748},{"duration":0.2857140000000129,"midi":38,"time":113.14274400000001,"velocity":0.3937007874015748},{"duration":0.2857140000000129,"midi":50,"time":113.14274400000001,"velocity":0.3937007874015748},{"duration":0.14285699999999224,"midi":50,"time":113.42845800000002,"velocity":0.3937007874015748},{"duration":0.14285699999999224,"midi":38,"time":113.42845800000002,"velocity":0.3937007874015748},{"duration":0.2857139999999987,"midi":38,"time":113.57131500000001,"velocity":0.3937007874015748},{"duration":0.2857139999999987,"midi":50,"time":113.57131500000001,"velocity":0.3937007874015748},{"duration":0.14285699999999224,"midi":50,"time":113.85702900000001,"velocity":0.3937007874015748},{"duration":0.14285699999999224,"midi":38,"time":113.85702900000001,"velocity":0.3937007874015748},{"duration":0.2857140000000129,"midi":48,"time":113.999886,"velocity":0.3937007874015748},{"duration":0.2857140000000129,"midi":36,"time":113.999886,"velocity":0.3937007874015748},{"duration":0.14285699999999224,"midi":36,"time":114.28560000000002,"velocity":0.3937007874015748},{"duration":0.14285699999999224,"midi":48,"time":114.28560000000002,"velocity":0.3937007874015748},{"duration":0.2857140000000129,"midi":48,"time":114.42845700000001,"velocity":0.3937007874015748},{"duration":0.2857140000000129,"midi":36,"time":114.42845700000001,"velocity":0.3937007874015748},{"duration":0.14285699999999224,"midi":36,"time":114.71417100000002,"velocity":0.3937007874015748},{"duration":0.14285699999999224,"midi":48,"time":114.71417100000002,"velocity":0.3937007874015748},{"duration":0.2857139999999987,"midi":53,"time":114.85702800000001,"velocity":0.3937007874015748},{"duration":0.2857139999999987,"midi":41,"time":114.85702800000001,"velocity":0.3937007874015748},{"duration":0.14285699999999224,"midi":53,"time":115.14274200000001,"velocity":0.3937007874015748},{"duration":0.14285699999999224,"midi":41,"time":115.14274200000001,"velocity":0.3937007874015748},{"duration":0.2857140000000129,"midi":41,"time":115.285599,"velocity":0.3937007874015748},{"duration":0.2857140000000129,"midi":53,"time":115.285599,"velocity":0.3937007874015748},{"duration":0.14285699999999224,"midi":41,"time":115.57131300000002,"velocity":0.3937007874015748},{"duration":0.14285699999999224,"midi":53,"time":115.57131300000002,"velocity":0.3937007874015748},{"duration":0.2857140000000129,"midi":48,"time":115.71417000000001,"velocity":0.3937007874015748},{"duration":0.2857140000000129,"midi":36,"time":115.71417000000001,"velocity":0.3937007874015748},{"duration":0.14285699999999224,"midi":48,"time":115.99988400000002,"velocity":0.3937007874015748},{"duration":0.14285699999999224,"midi":36,"time":115.99988400000002,"velocity":0.3937007874015748},{"duration":0.2857139999999987,"midi":48,"time":116.14274100000002,"velocity":0.3937007874015748},{"duration":0.2857139999999987,"midi":36,"time":116.14274100000002,"velocity":0.3937007874015748},{"duration":0.14285699999999224,"midi":36,"time":116.42845500000001,"velocity":0.3937007874015748},{"duration":0.14285699999999224,"midi":48,"time":116.42845500000001,"velocity":0.3937007874015748},{"duration":0.2857140000000129,"midi":38,"time":116.571312,"velocity":0.3937007874015748},{"duration":0.2857140000000129,"midi":50,"time":116.571312,"velocity":0.3937007874015748},{"duration":0.14285699999999224,"midi":38,"time":116.85702600000002,"velocity":0.3937007874015748},{"duration":0.14285699999999224,"midi":50,"time":116.85702600000002,"velocity":0.3937007874015748},{"duration":0.2857140000000129,"midi":50,"time":116.99988300000001,"velocity":0.3937007874015748},{"duration":0.2857140000000129,"midi":38,"time":116.99988300000001,"velocity":0.3937007874015748},{"duration":0.14285699999999224,"midi":38,"time":117.28559700000002,"velocity":0.3937007874015748},{"duration":0.14285699999999224,"midi":50,"time":117.28559700000002,"velocity":0.3937007874015748},{"duration":0.2857139999999987,"midi":45,"time":117.42845400000002,"velocity":0.3937007874015748},{"duration":0.2857139999999987,"midi":33,"time":117.42845400000002,"velocity":0.3937007874015748},{"duration":0.14285699999999224,"midi":45,"time":117.71416800000002,"velocity":0.3937007874015748},{"duration":0.14285699999999224,"midi":33,"time":117.71416800000002,"velocity":0.3937007874015748},{"duration":0.2857140000000129,"midi":33,"time":117.85702500000001,"velocity":0.3937007874015748},{"duration":0.2857140000000129,"midi":45,"time":117.85702500000001,"velocity":0.3937007874015748},{"duration":0.14285699999999224,"midi":45,"time":118.14273900000002,"velocity":0.3937007874015748},{"duration":0.14285699999999224,"midi":33,"time":118.14273900000002,"velocity":0.3937007874015748},{"duration":0.2857139999999987,"midi":38,"time":118.28559600000001,"velocity":0.3937007874015748},{"duration":0.2857139999999987,"midi":50,"time":118.28559600000001,"velocity":0.3937007874015748},{"duration":0.14285699999999224,"midi":50,"time":118.57131000000001,"velocity":0.3937007874015748},{"duration":0.14285699999999224,"midi":38,"time":118.57131000000001,"velocity":0.3937007874015748},{"duration":0.2857140000000129,"midi":50,"time":118.714167,"velocity":0.3937007874015748},{"duration":0.2857140000000129,"midi":38,"time":118.714167,"velocity":0.3937007874015748},{"duration":0.14285699999999224,"midi":38,"time":118.99988100000002,"velocity":0.3937007874015748},{"duration":0.14285699999999224,"midi":50,"time":118.99988100000002,"velocity":0.3937007874015748},{"duration":0.2857140000000129,"midi":38,"time":119.14273800000001,"velocity":0.3937007874015748},{"duration":0.2857140000000129,"midi":50,"time":119.14273800000001,"velocity":0.3937007874015748},{"duration":0.14285699999999224,"midi":38,"time":119.42845200000002,"velocity":0.3937007874015748},{"duration":0.14285699999999224,"midi":50,"time":119.42845200000002,"velocity":0.3937007874015748},{"duration":0.2857139999999987,"midi":50,"time":119.57130900000001,"velocity":0.3937007874015748},{"duration":0.2857139999999987,"midi":38,"time":119.57130900000001,"velocity":0.3937007874015748},{"duration":0.14285699999999224,"midi":50,"time":119.85702300000001,"velocity":0.3937007874015748},{"duration":0.14285699999999224,"midi":38,"time":119.85702300000001,"velocity":0.3937007874015748},{"duration":0.2857140000000129,"midi":50,"time":119.99988,"velocity":0.3937007874015748},{"duration":0.2857140000000129,"midi":38,"time":119.99988,"velocity":0.3937007874015748},{"duration":0.14285699999999224,"midi":50,"time":120.28559400000002,"velocity":0.3937007874015748},{"duration":0.14285699999999224,"midi":38,"time":120.28559400000002,"velocity":0.3937007874015748},{"duration":0.2857140000000129,"midi":38,"time":120.42845100000001,"velocity":0.3937007874015748},{"duration":0.2857140000000129,"midi":50,"time":120.42845100000001,"velocity":0.3937007874015748},{"duration":0.14285699999999224,"midi":38,"time":120.71416500000002,"velocity":0.3937007874015748},{"duration":0.14285699999999224,"midi":50,"time":120.71416500000002,"velocity":0.3937007874015748},{"duration":0.2857139999999987,"midi":36,"time":120.85702200000001,"velocity":0.3937007874015748},{"duration":0.2857139999999987,"midi":48,"time":120.85702200000001,"velocity":0.3937007874015748},{"duration":0.14285699999999224,"midi":48,"time":121.14273600000001,"velocity":0.3937007874015748},{"duration":0.14285699999999224,"midi":36,"time":121.14273600000001,"velocity":0.3937007874015748},{"duration":0.2857140000000129,"midi":36,"time":121.285593,"velocity":0.3937007874015748},{"duration":0.2857140000000129,"midi":48,"time":121.285593,"velocity":0.3937007874015748},{"duration":0.14285699999999224,"midi":48,"time":121.57130700000002,"velocity":0.3937007874015748},{"duration":0.14285699999999224,"midi":36,"time":121.57130700000002,"velocity":0.3937007874015748},{"duration":0.2857140000000129,"midi":41,"time":121.71416400000001,"velocity":0.3937007874015748},{"duration":0.2857140000000129,"midi":53,"time":121.71416400000001,"velocity":0.3937007874015748},{"duration":0.14285699999999224,"midi":53,"time":121.99987800000002,"velocity":0.3937007874015748},{"duration":0.14285699999999224,"midi":41,"time":121.99987800000002,"velocity":0.3937007874015748},{"duration":0.2857139999999987,"midi":41,"time":122.14273500000002,"velocity":0.3937007874015748},{"duration":0.2857139999999987,"midi":53,"time":122.14273500000002,"velocity":0.3937007874015748},{"duration":0.14285699999999224,"midi":53,"time":122.42844900000001,"velocity":0.3937007874015748},{"duration":0.14285699999999224,"midi":41,"time":122.42844900000001,"velocity":0.3937007874015748},{"duration":0.2857140000000129,"midi":46,"time":122.571306,"velocity":0.3937007874015748},{"duration":0.2857140000000129,"midi":34,"time":122.571306,"velocity":0.3937007874015748},{"duration":0.14285699999999224,"midi":34,"time":122.85702000000002,"velocity":0.3937007874015748},{"duration":0.14285699999999224,"midi":46,"time":122.85702000000002,"velocity":0.3937007874015748},{"duration":0.2857140000000129,"midi":34,"time":122.99987700000001,"velocity":0.3937007874015748},{"duration":0.2857140000000129,"midi":46,"time":122.99987700000001,"velocity":0.3937007874015748},{"duration":0.14285699999997803,"midi":34,"time":123.28559100000003,"velocity":0.3937007874015748},{"duration":0.14285699999997803,"midi":46,"time":123.28559100000003,"velocity":0.3937007874015748},{"duration":0.2857140000000129,"midi":38,"time":123.428448,"velocity":0.3937007874015748},{"duration":0.2857140000000129,"midi":50,"time":123.428448,"velocity":0.3937007874015748},{"duration":0.14285699999999224,"midi":50,"time":123.71416200000002,"velocity":0.3937007874015748},{"duration":0.14285699999999224,"midi":38,"time":123.71416200000002,"velocity":0.3937007874015748},{"duration":0.2857140000000129,"midi":38,"time":123.85701900000001,"velocity":0.3937007874015748},{"duration":0.2857140000000129,"midi":50,"time":123.85701900000001,"velocity":0.3937007874015748},{"duration":0.14285699999999224,"midi":50,"time":124.14273300000002,"velocity":0.3937007874015748},{"duration":0.14285699999999224,"midi":38,"time":124.14273300000002,"velocity":0.3937007874015748},{"duration":0.2857139999999987,"midi":46,"time":124.28559000000001,"velocity":0.3937007874015748},{"duration":0.2857139999999987,"midi":34,"time":124.28559000000001,"velocity":0.3937007874015748},{"duration":0.14285699999999224,"midi":46,"time":124.57130400000001,"velocity":0.3937007874015748},{"duration":0.14285699999999224,"midi":34,"time":124.57130400000001,"velocity":0.3937007874015748},{"duration":0.2857140000000129,"midi":34,"time":124.714161,"velocity":0.3937007874015748},{"duration":0.2857140000000129,"midi":46,"time":124.714161,"velocity":0.3937007874015748},{"duration":0.14285699999999224,"midi":46,"time":124.99987500000002,"velocity":0.3937007874015748},{"duration":0.14285699999999224,"midi":34,"time":124.99987500000002,"velocity":0.3937007874015748},{"duration":0.2857140000000129,"midi":33,"time":125.14273200000001,"velocity":0.3937007874015748},{"duration":0.2857140000000129,"midi":45,"time":125.14273200000001,"velocity":0.3937007874015748},{"duration":0.14285699999999224,"midi":33,"time":125.42844600000002,"velocity":0.3937007874015748},{"duration":0.14285699999999224,"midi":45,"time":125.42844600000002,"velocity":0.3937007874015748},{"duration":0.2857139999999987,"midi":33,"time":125.57130300000001,"velocity":0.3937007874015748},{"duration":0.2857139999999987,"midi":45,"time":125.57130300000001,"velocity":0.3937007874015748},{"duration":0.14285699999999224,"midi":33,"time":125.85701700000001,"velocity":0.3937007874015748},{"duration":0.14285699999999224,"midi":45,"time":125.85701700000001,"velocity":0.3937007874015748},{"duration":0.2857140000000129,"midi":45,"time":125.999874,"velocity":0.3937007874015748},{"duration":0.2857140000000129,"midi":33,"time":125.999874,"velocity":0.3937007874015748},{"duration":0.14285699999999224,"midi":45,"time":126.28558800000002,"velocity":0.3937007874015748},{"duration":0.14285699999999224,"midi":33,"time":126.28558800000002,"velocity":0.3937007874015748},{"duration":0.2857140000000129,"midi":45,"time":126.42844500000001,"velocity":0.3937007874015748},{"duration":0.2857140000000129,"midi":33,"time":126.42844500000001,"velocity":0.3937007874015748},{"duration":0.14285699999999224,"midi":45,"time":126.71415900000002,"velocity":0.3937007874015748},{"duration":0.14285699999999224,"midi":33,"time":126.71415900000002,"velocity":0.3937007874015748},{"duration":0.2857139999999987,"midi":38,"time":126.85701600000002,"velocity":0.3937007874015748},{"duration":0.2857139999999987,"midi":50,"time":126.85701600000002,"velocity":0.3937007874015748},{"duration":0.14285699999999224,"midi":38,"time":127.14273000000001,"velocity":0.3937007874015748},{"duration":0.14285699999999224,"midi":50,"time":127.14273000000001,"velocity":0.3937007874015748},{"duration":0.2857140000000129,"midi":52,"time":127.285587,"velocity":0.3937007874015748},{"duration":0.2857140000000129,"midi":40,"time":127.285587,"velocity":0.3937007874015748},{"duration":0.14285699999999224,"midi":52,"time":127.57130100000002,"velocity":0.3937007874015748},{"duration":0.14285699999999224,"midi":40,"time":127.57130100000002,"velocity":0.3937007874015748},{"duration":0.2857140000000129,"midi":41,"time":127.71415800000001,"velocity":0.3937007874015748},{"duration":0.2857140000000129,"midi":53,"time":127.71415800000001,"velocity":0.3937007874015748},{"duration":0.14285699999997803,"midi":53,"time":127.99987200000002,"velocity":0.3937007874015748},{"duration":0.14285699999997803,"midi":41,"time":127.99987200000002,"velocity":0.3937007874015748},{"duration":0.2857140000000129,"midi":43,"time":128.142729,"velocity":0.3937007874015748},{"duration":0.2857140000000129,"midi":55,"time":128.142729,"velocity":0.3937007874015748},{"duration":0.14285699999999224,"midi":43,"time":128.42844300000002,"velocity":0.3937007874015748},{"duration":0.14285699999999224,"midi":55,"time":128.42844300000002,"velocity":0.3937007874015748},{"duration":0.2857140000000129,"midi":50,"time":128.5713,"velocity":0.3937007874015748},{"duration":0.2857140000000129,"midi":57,"time":128.5713,"velocity":0.3937007874015748},{"duration":0.2857140000000129,"midi":45,"time":128.5713,"velocity":0.3937007874015748},{"duration":0.2857140000000129,"midi":53,"time":128.5713,"velocity":0.3937007874015748},{"duration":0.5714279999999974,"midi":57,"time":128.85701400000002,"velocity":0.3937007874015748},{"duration":0.5714279999999974,"midi":53,"time":128.85701400000002,"velocity":0.3937007874015748},{"duration":0.5714279999999974,"midi":45,"time":128.85701400000002,"velocity":0.3937007874015748},{"duration":0.5714279999999974,"midi":50,"time":128.85701400000002,"velocity":0.3937007874015748},{"duration":0.5714279999999974,"midi":53,"time":129.42844200000002,"velocity":0.3937007874015748},{"duration":0.5714279999999974,"midi":45,"time":129.42844200000002,"velocity":0.3937007874015748},{"duration":0.5714279999999974,"midi":57,"time":129.42844200000002,"velocity":0.3937007874015748},{"duration":0.5714279999999974,"midi":50,"time":129.42844200000002,"velocity":0.3937007874015748},{"duration":0.2857139999999845,"midi":57,"time":129.99987000000002,"velocity":0.3937007874015748},{"duration":0.2857139999999845,"midi":45,"time":129.99987000000002,"velocity":0.3937007874015748},{"duration":0.2857140000000129,"midi":49,"time":130.285584,"velocity":0.3937007874015748},{"duration":0.2857140000000129,"midi":45,"time":130.285584,"velocity":0.3937007874015748},{"duration":0.2857140000000129,"midi":57,"time":130.285584,"velocity":0.3937007874015748},{"duration":0.2857140000000129,"midi":52,"time":130.285584,"velocity":0.3937007874015748},{"duration":0.5714279999999974,"midi":52,"time":130.571298,"velocity":0.3937007874015748},{"duration":0.5714279999999974,"midi":45,"time":130.571298,"velocity":0.3937007874015748},{"duration":0.5714279999999974,"midi":49,"time":130.571298,"velocity":0.3937007874015748},{"duration":0.5714279999999974,"midi":57,"time":130.571298,"velocity":0.3937007874015748},{"duration":0.5714279999999974,"midi":49,"time":131.142726,"velocity":0.3937007874015748},{"duration":0.5714279999999974,"midi":52,"time":131.142726,"velocity":0.3937007874015748},{"duration":0.5714279999999974,"midi":57,"time":131.142726,"velocity":0.3937007874015748},{"duration":0.5714279999999974,"midi":45,"time":131.142726,"velocity":0.3937007874015748},{"duration":0.2857140000000129,"midi":48,"time":131.714154,"velocity":0.3937007874015748},{"duration":0.2857140000000129,"midi":60,"time":131.714154,"velocity":0.3937007874015748},{"duration":0.2857139999999845,"midi":38,"time":131.99986800000002,"velocity":0.3937007874015748},{"duration":0.2857139999999845,"midi":50,"time":131.99986800000002,"velocity":0.3937007874015748},{"duration":0.14285699999999224,"midi":50,"time":132.285582,"velocity":0.3937007874015748},{"duration":0.14285699999999224,"midi":38,"time":132.285582,"velocity":0.3937007874015748},{"duration":0.14285699999999224,"midi":50,"time":132.428439,"velocity":0.3937007874015748},{"duration":0.14285699999999224,"midi":38,"time":132.428439,"velocity":0.3937007874015748},{"duration":0.14285700000002066,"midi":38,"time":132.571296,"velocity":0.3937007874015748},{"duration":0.14285700000002066,"midi":50,"time":132.571296,"velocity":0.3937007874015748},{"duration":0.14285699999999224,"midi":50,"time":132.714153,"velocity":0.3937007874015748},{"duration":0.14285699999999224,"midi":38,"time":132.714153,"velocity":0.3937007874015748},{"duration":0.2857140000000129,"midi":31,"time":132.85701,"velocity":0.3937007874015748},{"duration":0.2857140000000129,"midi":43,"time":132.85701,"velocity":0.3937007874015748},{"duration":0.14285699999999224,"midi":43,"time":133.14272400000002,"velocity":0.3937007874015748},{"duration":0.14285699999999224,"midi":31,"time":133.14272400000002,"velocity":0.3937007874015748},{"duration":0.14285699999999224,"midi":31,"time":133.285581,"velocity":0.3937007874015748},{"duration":0.14285699999999224,"midi":43,"time":133.285581,"velocity":0.3937007874015748},{"duration":0.14285700000002066,"midi":31,"time":133.428438,"velocity":0.3937007874015748},{"duration":0.14285700000002066,"midi":43,"time":133.428438,"velocity":0.3937007874015748},{"duration":0.14285699999999224,"midi":43,"time":133.57129500000002,"velocity":0.3937007874015748},{"duration":0.14285699999999224,"midi":31,"time":133.57129500000002,"velocity":0.3937007874015748},{"duration":0.2857140000000129,"midi":53,"time":133.714152,"velocity":0.3937007874015748},{"duration":0.2857140000000129,"midi":41,"time":133.714152,"velocity":0.3937007874015748},{"duration":0.14285699999999224,"midi":41,"time":133.99986600000003,"velocity":0.3937007874015748},{"duration":0.14285699999999224,"midi":53,"time":133.99986600000003,"velocity":0.3937007874015748},{"duration":0.14285699999999224,"midi":41,"time":134.14272300000002,"velocity":0.3937007874015748},{"duration":0.14285699999999224,"midi":53,"time":134.14272300000002,"velocity":0.3937007874015748},{"duration":0.14285700000002066,"midi":41,"time":134.28558,"velocity":0.3937007874015748},{"duration":0.14285700000002066,"midi":53,"time":134.28558,"velocity":0.3937007874015748},{"duration":0.14285699999999224,"midi":41,"time":134.42843700000003,"velocity":0.3937007874015748},{"duration":0.14285699999999224,"midi":53,"time":134.42843700000003,"velocity":0.3937007874015748},{"duration":0.2857139999999845,"midi":48,"time":134.57129400000002,"velocity":0.3937007874015748},{"duration":0.2857139999999845,"midi":36,"time":134.57129400000002,"velocity":0.3937007874015748},{"duration":0.14285699999999224,"midi":48,"time":134.857008,"velocity":0.3937007874015748},{"duration":0.14285699999999224,"midi":36,"time":134.857008,"velocity":0.3937007874015748},{"duration":0.14285699999999224,"midi":36,"time":134.999865,"velocity":0.3937007874015748},{"duration":0.14285699999999224,"midi":48,"time":134.999865,"velocity":0.3937007874015748},{"duration":0.14285700000002066,"midi":36,"time":135.142722,"velocity":0.3937007874015748},{"duration":0.14285700000002066,"midi":48,"time":135.142722,"velocity":0.3937007874015748},{"duration":0.14285699999999224,"midi":36,"time":135.285579,"velocity":0.3937007874015748},{"duration":0.14285699999999224,"midi":48,"time":135.285579,"velocity":0.3937007874015748},{"duration":0.2857140000000129,"midi":43,"time":135.428436,"velocity":0.3937007874015748},{"duration":0.2857140000000129,"midi":31,"time":135.428436,"velocity":0.3937007874015748},{"duration":0.14285699999999224,"midi":31,"time":135.71415000000002,"velocity":0.3937007874015748},{"duration":0.14285699999999224,"midi":43,"time":135.71415000000002,"velocity":0.3937007874015748},{"duration":0.2857140000000129,"midi":31,"time":135.857007,"velocity":0.3937007874015748},{"duration":0.14285699999999224,"midi":43,"time":135.857007,"velocity":0.3937007874015748},{"duration":0.14285700000002066,"midi":43,"time":135.999864,"velocity":0.3937007874015748},{"duration":0.14285699999999224,"midi":31,"time":136.14272100000002,"velocity":0.3937007874015748},{"duration":0.14285699999999224,"midi":43,"time":136.14272100000002,"velocity":0.3937007874015748},{"duration":0.2857140000000129,"midi":45,"time":136.28557800000002,"velocity":0.3937007874015748},{"duration":0.2857140000000129,"midi":33,"time":136.28557800000002,"velocity":0.3937007874015748},{"duration":0.14285699999999224,"midi":33,"time":136.57129200000003,"velocity":0.3937007874015748},{"duration":0.14285699999999224,"midi":45,"time":136.57129200000003,"velocity":0.3937007874015748},{"duration":0.14285699999999224,"midi":33,"time":136.71414900000002,"velocity":0.3937007874015748},{"duration":0.14285699999999224,"midi":45,"time":136.71414900000002,"velocity":0.3937007874015748},{"duration":0.14285700000002066,"midi":33,"time":136.857006,"velocity":0.3937007874015748},{"duration":0.14285700000002066,"midi":45,"time":136.857006,"velocity":0.3937007874015748},{"duration":0.14285699999996382,"midi":45,"time":136.99986300000003,"velocity":0.3937007874015748},{"duration":0.14285699999996382,"midi":33,"time":136.99986300000003,"velocity":0.3937007874015748},{"duration":0.2857140000000129,"midi":45,"time":137.14272,"velocity":0.3937007874015748},{"duration":0.2857140000000129,"midi":33,"time":137.14272,"velocity":0.3937007874015748},{"duration":0.14285699999999224,"midi":33,"time":137.428434,"velocity":0.3937007874015748},{"duration":0.14285699999999224,"midi":45,"time":137.428434,"velocity":0.3937007874015748},{"duration":0.14285699999999224,"midi":45,"time":137.571291,"velocity":0.3937007874015748},{"duration":0.14285699999999224,"midi":33,"time":137.571291,"velocity":0.3937007874015748},{"duration":0.14285700000002066,"midi":33,"time":137.714148,"velocity":0.3937007874015748},{"duration":0.14285700000002066,"midi":45,"time":137.714148,"velocity":0.3937007874015748},{"duration":0.14285699999999224,"midi":33,"time":137.85700500000002,"velocity":0.3937007874015748},{"duration":0.14285699999999224,"midi":45,"time":137.85700500000002,"velocity":0.3937007874015748},{"duration":0.2857140000000129,"midi":50,"time":137.999862,"velocity":0.3937007874015748},{"duration":0.2857140000000129,"midi":38,"time":137.999862,"velocity":0.3937007874015748},{"duration":0.14285699999999224,"midi":50,"time":138.28557600000002,"velocity":0.3937007874015748},{"duration":0.14285699999999224,"midi":38,"time":138.28557600000002,"velocity":0.3937007874015748},{"duration":0.14285699999999224,"midi":50,"time":138.428433,"velocity":0.3937007874015748},{"duration":0.14285699999999224,"midi":38,"time":138.428433,"velocity":0.3937007874015748},{"duration":0.14285700000002066,"midi":38,"time":138.57129,"velocity":0.3937007874015748},{"duration":0.14285700000002066,"midi":50,"time":138.57129,"velocity":0.3937007874015748},{"duration":0.14285699999999224,"midi":50,"time":138.71414700000003,"velocity":0.3937007874015748},{"duration":0.14285699999999224,"midi":38,"time":138.71414700000003,"velocity":0.3937007874015748},{"duration":0.2857140000000129,"midi":38,"time":138.85700400000002,"velocity":0.3937007874015748},{"duration":0.2857140000000129,"midi":50,"time":138.85700400000002,"velocity":0.3937007874015748},{"duration":0.14285699999999224,"midi":38,"time":139.14271800000003,"velocity":0.3937007874015748},{"duration":0.14285699999999224,"midi":50,"time":139.14271800000003,"velocity":0.3937007874015748},{"duration":0.14285699999999224,"midi":50,"time":139.28557500000002,"velocity":0.3937007874015748},{"duration":0.14285699999999224,"midi":38,"time":139.28557500000002,"velocity":0.3937007874015748},{"duration":0.14285699999999224,"midi":38,"time":139.42843200000002,"velocity":0.3937007874015748},{"duration":0.14285699999999224,"midi":50,"time":139.42843200000002,"velocity":0.3937007874015748},{"duration":0.14285699999999224,"midi":50,"time":139.571289,"velocity":0.3937007874015748},{"duration":0.14285699999999224,"midi":38,"time":139.571289,"velocity":0.3937007874015748},{"duration":0.2857140000000129,"midi":34,"time":139.714146,"velocity":0.3937007874015748},{"duration":0.2857140000000129,"midi":46,"time":139.714146,"velocity":0.3937007874015748},{"duration":0.14285699999999224,"midi":46,"time":139.99986,"velocity":0.3937007874015748},{"duration":0.14285699999999224,"midi":34,"time":139.99986,"velocity":0.3937007874015748},{"duration":0.14285699999999224,"midi":34,"time":140.142717,"velocity":0.3937007874015748},{"duration":0.14285699999999224,"midi":46,"time":140.142717,"velocity":0.3937007874015748},{"duration":0.14285700000002066,"midi":34,"time":140.285574,"velocity":0.3937007874015748},{"duration":0.14285700000002066,"midi":46,"time":140.285574,"velocity":0.3937007874015748},{"duration":0.14285699999999224,"midi":34,"time":140.42843100000002,"velocity":0.3937007874015748},{"duration":0.14285699999999224,"midi":46,"time":140.42843100000002,"velocity":0.3937007874015748},{"duration":0.2857140000000129,"midi":53,"time":140.571288,"velocity":0.3937007874015748},{"duration":0.2857140000000129,"midi":41,"time":140.571288,"velocity":0.3937007874015748},{"duration":0.14285699999999224,"midi":53,"time":140.85700200000002,"velocity":0.3937007874015748},{"duration":0.14285699999999224,"midi":41,"time":140.85700200000002,"velocity":0.3937007874015748},{"duration":0.14285699999999224,"midi":41,"time":140.99985900000001,"velocity":0.3937007874015748},{"duration":0.14285699999999224,"midi":53,"time":140.99985900000001,"velocity":0.3937007874015748},{"duration":0.14285700000002066,"midi":53,"time":141.142716,"velocity":0.3937007874015748},{"duration":0.14285700000002066,"midi":41,"time":141.142716,"velocity":0.3937007874015748},{"duration":0.14285699999999224,"midi":41,"time":141.28557300000003,"velocity":0.3937007874015748},{"duration":0.14285699999999224,"midi":53,"time":141.28557300000003,"velocity":0.3937007874015748},{"duration":0.2857140000000129,"midi":48,"time":141.42843000000002,"velocity":0.3937007874015748},{"duration":0.2857140000000129,"midi":36,"time":141.42843000000002,"velocity":0.3937007874015748},{"duration":0.14285699999999224,"midi":36,"time":141.71414400000003,"velocity":0.3937007874015748},{"duration":0.14285699999999224,"midi":48,"time":141.71414400000003,"velocity":0.3937007874015748},{"duration":0.14285699999999224,"midi":36,"time":141.85700100000003,"velocity":0.3937007874015748},{"duration":0.14285699999999224,"midi":48,"time":141.85700100000003,"velocity":0.3937007874015748},{"duration":0.14285699999999224,"midi":36,"time":141.99985800000002,"velocity":0.3937007874015748},{"duration":0.14285699999999224,"midi":48,"time":141.99985800000002,"velocity":0.3937007874015748},{"duration":0.14285699999999224,"midi":48,"time":142.142715,"velocity":0.3937007874015748},{"duration":0.14285699999999224,"midi":36,"time":142.142715,"velocity":0.3937007874015748},{"duration":0.2857140000000129,"midi":31,"time":142.285572,"velocity":0.3937007874015748},{"duration":0.2857140000000129,"midi":43,"time":142.285572,"velocity":0.3937007874015748},{"duration":0.14285699999999224,"midi":31,"time":142.57128600000001,"velocity":0.3937007874015748},{"duration":0.14285699999999224,"midi":43,"time":142.57128600000001,"velocity":0.3937007874015748},{"duration":0.14285699999999224,"midi":43,"time":142.714143,"velocity":0.3937007874015748},{"duration":0.14285699999999224,"midi":31,"time":142.714143,"velocity":0.3937007874015748},{"duration":0.14285700000002066,"midi":31,"time":142.857,"velocity":0.3937007874015748},{"duration":0.14285700000002066,"midi":43,"time":142.857,"velocity":0.3937007874015748},{"duration":0.14285699999999224,"midi":43,"time":142.99985700000002,"velocity":0.3937007874015748},{"duration":0.14285699999999224,"midi":31,"time":142.99985700000002,"velocity":0.3937007874015748},{"duration":0.2857140000000129,"midi":45,"time":143.142714,"velocity":0.3937007874015748},{"duration":0.2857140000000129,"midi":33,"time":143.142714,"velocity":0.3937007874015748},{"duration":0.14285699999999224,"midi":33,"time":143.42842800000003,"velocity":0.3937007874015748},{"duration":0.14285699999999224,"midi":45,"time":143.42842800000003,"velocity":0.3937007874015748},{"duration":0.14285699999999224,"midi":33,"time":143.57128500000002,"velocity":0.3937007874015748},{"duration":0.14285699999999224,"midi":45,"time":143.57128500000002,"velocity":0.3937007874015748},{"duration":0.14285700000002066,"midi":33,"time":143.714142,"velocity":0.3937007874015748},{"duration":0.14285700000002066,"midi":45,"time":143.714142,"velocity":0.3937007874015748},{"duration":0.14285699999999224,"midi":45,"time":143.85699900000003,"velocity":0.3937007874015748},{"duration":0.14285699999999224,"midi":33,"time":143.85699900000003,"velocity":0.3937007874015748},{"duration":0.2857139999999845,"midi":45,"time":143.99985600000002,"velocity":0.3937007874015748},{"duration":0.2857139999999845,"midi":33,"time":143.99985600000002,"velocity":0.3937007874015748},{"duration":0.14285699999999224,"midi":33,"time":144.28557,"velocity":0.3937007874015748},{"duration":0.14285699999999224,"midi":45,"time":144.28557,"velocity":0.3937007874015748},{"duration":0.14285699999999224,"midi":33,"time":144.428427,"velocity":0.3937007874015748},{"duration":0.14285699999999224,"midi":45,"time":144.428427,"velocity":0.3937007874015748},{"duration":0.14285700000002066,"midi":33,"time":144.571284,"velocity":0.3937007874015748},{"duration":0.14285700000002066,"midi":45,"time":144.571284,"velocity":0.3937007874015748},{"duration":0.14285699999999224,"midi":45,"time":144.714141,"velocity":0.3937007874015748},{"duration":0.14285699999999224,"midi":33,"time":144.714141,"velocity":0.3937007874015748},{"duration":0.42857100000000514,"midi":38,"time":144.856998,"velocity":0.3937007874015748},{"duration":0.42857100000000514,"midi":50,"time":144.856998,"velocity":0.3937007874015748},{"duration":0.42857100000000514,"midi":50,"time":145.285569,"velocity":0.3937007874015748},{"duration":0.42857100000000514,"midi":38,"time":145.285569,"velocity":0.3937007874015748},{"duration":1.7142839999999921,"midi":38,"time":145.71414000000001,"velocity":0.3937007874015748},{"duration":1.7142839999999921,"midi":50,"time":145.71414000000001,"velocity":0.3937007874015748}]},{"instrument":{"family":"reed","number":64,"name":"soprano sax"},"notes":[{"duration":0.142857,"midi":50,"time":0,"velocity":0.3937007874015748},{"duration":0.142857,"midi":50,"time":0.285714,"velocity":0.3937007874015748},{"duration":0.142857,"midi":50,"time":0.42857100000000004,"velocity":0.3937007874015748},{"duration":0.142857,"midi":50,"time":0.7142850000000001,"velocity":0.3937007874015748},{"duration":0.14285700000000012,"midi":50,"time":0.8571420000000001,"velocity":0.3937007874015748},{"duration":0.142857,"midi":50,"time":1.142856,"velocity":0.3937007874015748},{"duration":0.142857,"midi":50,"time":1.285713,"velocity":0.3937007874015748},{"duration":0.142857,"midi":50,"time":1.4285700000000001,"velocity":0.3937007874015748},{"duration":0.142857,"midi":50,"time":1.5714270000000001,"velocity":0.3937007874015748},{"duration":0.1428569999999998,"midi":50,"time":1.7142840000000001,"velocity":0.3937007874015748},{"duration":0.14285699999999957,"midi":50,"time":1.9999980000000004,"velocity":0.3937007874015748},{"duration":0.14285700000000023,"midi":50,"time":2.142855,"velocity":0.3937007874015748},{"duration":0.1428569999999998,"midi":50,"time":2.4285690000000004,"velocity":0.3937007874015748},{"duration":0.1428569999999998,"midi":50,"time":2.571426,"velocity":0.3937007874015748},{"duration":0.14285700000000023,"midi":50,"time":2.8571400000000002,"velocity":0.3937007874015748},{"duration":0.1428569999999998,"midi":50,"time":2.9999970000000005,"velocity":0.3937007874015748},{"duration":0.14285700000000023,"midi":50,"time":3.1428540000000003,"velocity":0.3937007874015748},{"duration":0.1428569999999998,"midi":50,"time":3.2857110000000005,"velocity":0.3937007874015748},{"duration":0.14285700000000023,"midi":50,"time":3.4285680000000003,"velocity":0.3937007874015748},{"duration":0.14285700000000023,"midi":50,"time":3.714282,"velocity":0.3937007874015748},{"duration":0.14285700000000068,"midi":50,"time":3.857139,"velocity":0.3937007874015748},{"duration":0.14285700000000023,"midi":50,"time":4.142853,"velocity":0.3937007874015748},{"duration":0.14285700000000112,"midi":50,"time":4.28571,"velocity":0.3937007874015748},{"duration":0.14285700000000023,"midi":50,"time":4.571424,"velocity":0.3937007874015748},{"duration":0.14285700000000023,"midi":50,"time":4.714281000000001,"velocity":0.3937007874015748},{"duration":0.14285699999999935,"midi":45,"time":4.857138000000001,"velocity":0.3937007874015748},{"duration":0.14285700000000023,"midi":48,"time":4.999995,"velocity":0.3937007874015748},{"duration":0.14285700000000023,"midi":45,"time":5.142852,"velocity":0.3937007874015748},{"duration":0.14285700000000023,"midi":41,"time":5.142852,"velocity":0.3937007874015748},{"duration":0.14285700000000023,"midi":50,"time":5.142852,"velocity":0.3937007874015748},{"duration":0.14285700000000023,"midi":50,"time":5.428566,"velocity":0.3937007874015748},{"duration":0.14285700000000023,"midi":41,"time":5.428566,"velocity":0.3937007874015748},{"duration":0.14285700000000023,"midi":45,"time":5.428566,"velocity":0.3937007874015748},{"duration":0.14285699999999935,"midi":50,"time":5.7142800000000005,"velocity":0.3937007874015748},{"duration":0.14285699999999935,"midi":45,"time":5.7142800000000005,"velocity":0.3937007874015748},{"duration":0.14285699999999935,"midi":41,"time":5.7142800000000005,"velocity":0.3937007874015748},{"duration":0.14285700000000112,"midi":52,"time":5.857137,"velocity":0.3937007874015748},{"duration":0.14285700000000023,"midi":50,"time":5.999994000000001,"velocity":0.3937007874015748},{"duration":0.14285700000000023,"midi":46,"time":5.999994000000001,"velocity":0.3937007874015748},{"duration":0.14285700000000023,"midi":53,"time":5.999994000000001,"velocity":0.3937007874015748},{"duration":0.14285700000000023,"midi":50,"time":6.2857080000000005,"velocity":0.3937007874015748},{"duration":0.14285700000000023,"midi":46,"time":6.2857080000000005,"velocity":0.3937007874015748},{"duration":0.14285700000000023,"midi":53,"time":6.2857080000000005,"velocity":0.3937007874015748},{"duration":0.14285699999999935,"midi":53,"time":6.571422000000001,"velocity":0.3937007874015748},{"duration":0.14285699999999935,"midi":50,"time":6.571422000000001,"velocity":0.3937007874015748},{"duration":0.14285699999999935,"midi":46,"time":6.571422000000001,"velocity":0.3937007874015748},{"duration":0.14285700000000023,"midi":55,"time":6.714279,"velocity":0.3937007874015748},{"duration":0.14285699999999935,"midi":52,"time":6.857136000000001,"velocity":0.3937007874015748},{"duration":0.14285699999999935,"midi":48,"time":6.857136000000001,"velocity":0.3937007874015748},{"duration":0.14285699999999935,"midi":45,"time":6.857136000000001,"velocity":0.3937007874015748},{"duration":0.14285699999999935,"midi":45,"time":7.142850000000001,"velocity":0.3937007874015748},{"duration":0.14285699999999935,"midi":48,"time":7.142850000000001,"velocity":0.3937007874015748},{"duration":0.14285699999999935,"midi":52,"time":7.142850000000001,"velocity":0.3937007874015748},{"duration":0.14285700000000112,"midi":50,"time":7.428564,"velocity":0.3937007874015748},{"duration":0.14285700000000112,"midi":45,"time":7.428564,"velocity":0.3937007874015748},{"duration":0.14285699999999935,"midi":48,"time":7.571421000000001,"velocity":0.3937007874015748},{"duration":0.14285700000000023,"midi":48,"time":7.714278,"velocity":0.3937007874015748},{"duration":0.14285700000000023,"midi":41,"time":7.714278,"velocity":0.3937007874015748},{"duration":0.4285709999999989,"midi":41,"time":7.857135,"velocity":0.3937007874015748},{"duration":0.4285709999999989,"midi":45,"time":7.857135,"velocity":0.3937007874015748},{"duration":0.4285709999999989,"midi":50,"time":7.857135,"velocity":0.3937007874015748},{"duration":0.14285700000000112,"midi":45,"time":8.285706,"velocity":0.3937007874015748},{"duration":0.14285699999999935,"midi":48,"time":8.428563,"velocity":0.3937007874015748},{"duration":0.14285700000000112,"midi":41,"time":8.57142,"velocity":0.3937007874015748},{"duration":0.14285700000000112,"midi":46,"time":8.57142,"velocity":0.3937007874015748},{"duration":0.14285700000000112,"midi":50,"time":8.57142,"velocity":0.3937007874015748},{"duration":0.14285699999999935,"midi":46,"time":8.857134000000002,"velocity":0.3937007874015748},{"duration":0.14285699999999935,"midi":41,"time":8.857134000000002,"velocity":0.3937007874015748},{"duration":0.14285699999999935,"midi":50,"time":8.857134000000002,"velocity":0.3937007874015748},{"duration":0.14285700000000112,"midi":41,"time":9.142848,"velocity":0.3937007874015748},{"duration":0.14285700000000112,"midi":50,"time":9.142848,"velocity":0.3937007874015748},{"duration":0.14285700000000112,"midi":46,"time":9.142848,"velocity":0.3937007874015748},{"duration":0.14285699999999935,"midi":52,"time":9.285705000000002,"velocity":0.3937007874015748},{"duration":0.14285699999999935,"midi":48,"time":9.428562000000001,"velocity":0.3937007874015748},{"duration":0.14285699999999935,"midi":45,"time":9.428562000000001,"velocity":0.3937007874015748},{"duration":0.14285699999999935,"midi":53,"time":9.428562000000001,"velocity":0.3937007874015748},{"duration":0.14285699999999935,"midi":48,"time":9.714276000000002,"velocity":0.3937007874015748},{"duration":0.14285699999999935,"midi":53,"time":9.714276000000002,"velocity":0.3937007874015748},{"duration":0.14285699999999935,"midi":45,"time":9.714276000000002,"velocity":0.3937007874015748},{"duration":0.14285700000000112,"midi":48,"time":9.99999,"velocity":0.3937007874015748},{"duration":0.14285700000000112,"midi":45,"time":9.99999,"velocity":0.3937007874015748},{"duration":0.14285700000000112,"midi":53,"time":9.99999,"velocity":0.3937007874015748},{"duration":0.14285699999999935,"midi":55,"time":10.142847000000002,"velocity":0.3937007874015748},{"duration":0.14285699999999935,"midi":48,"time":10.285704,"velocity":0.3937007874015748},{"duration":0.14285699999999935,"midi":52,"time":10.285704,"velocity":0.3937007874015748},{"duration":0.14285699999999935,"midi":45,"time":10.285704,"velocity":0.3937007874015748},{"duration":0.14285699999999935,"midi":52,"time":10.571418000000001,"velocity":0.3937007874015748},{"duration":0.14285699999999935,"midi":48,"time":10.571418000000001,"velocity":0.3937007874015748},{"duration":0.14285699999999935,"midi":45,"time":10.571418000000001,"velocity":0.3937007874015748},{"duration":0.14285700000000112,"midi":45,"time":10.857132,"velocity":0.3937007874015748},{"duration":0.14285700000000112,"midi":50,"time":10.857132,"velocity":0.3937007874015748},{"duration":0.14285699999999935,"midi":48,"time":10.999989000000001,"velocity":0.3937007874015748},{"duration":0.4285709999999998,"midi":41,"time":11.142846,"velocity":0.3937007874015748},{"duration":0.4285709999999998,"midi":45,"time":11.142846,"velocity":0.3937007874015748},{"duration":0.4285709999999998,"midi":50,"time":11.142846,"velocity":0.3937007874015748},{"duration":0.14285700000000112,"midi":45,"time":11.714274,"velocity":0.3937007874015748},{"duration":0.14285700000000112,"midi":48,"time":11.857131,"velocity":0.3937007874015748},{"duration":0.14285699999999935,"midi":41,"time":11.999988000000002,"velocity":0.3937007874015748},{"duration":0.14285699999999935,"midi":45,"time":11.999988000000002,"velocity":0.3937007874015748},{"duration":0.14285699999999935,"midi":50,"time":11.999988000000002,"velocity":0.3937007874015748},{"duration":0.14285699999999935,"midi":50,"time":12.285702000000002,"velocity":0.3937007874015748},{"duration":0.14285699999999935,"midi":45,"time":12.285702000000002,"velocity":0.3937007874015748},{"duration":0.14285699999999935,"midi":41,"time":12.285702000000002,"velocity":0.3937007874015748},{"duration":0.14285700000000112,"midi":50,"time":12.571416000000001,"velocity":0.3937007874015748},{"duration":0.14285700000000112,"midi":41,"time":12.571416000000001,"velocity":0.3937007874015748},{"duration":0.14285699999999935,"midi":41,"time":12.714273000000002,"velocity":0.3937007874015748},{"duration":0.14285699999999935,"midi":53,"time":12.714273000000002,"velocity":0.3937007874015748},{"duration":0.14285699999999935,"midi":55,"time":12.857130000000002,"velocity":0.3937007874015748},{"duration":0.14285699999999935,"midi":50,"time":12.857130000000002,"velocity":0.3937007874015748},{"duration":0.14285699999999935,"midi":46,"time":12.857130000000002,"velocity":0.3937007874015748},{"duration":0.14285699999999935,"midi":46,"time":13.142844000000002,"velocity":0.3937007874015748},{"duration":0.14285699999999935,"midi":50,"time":13.142844000000002,"velocity":0.3937007874015748},{"duration":0.14285699999999935,"midi":55,"time":13.142844000000002,"velocity":0.3937007874015748},{"duration":0.14285700000000112,"midi":55,"time":13.428558,"velocity":0.3937007874015748},{"duration":0.14285700000000112,"midi":50,"time":13.428558,"velocity":0.3937007874015748},{"duration":0.14285700000000112,"midi":46,"time":13.428558,"velocity":0.3937007874015748},{"duration":0.14285699999999935,"midi":57,"time":13.571415000000002,"velocity":0.3937007874015748},{"duration":0.14285700000000112,"midi":55,"time":13.714272000000001,"velocity":0.3937007874015748},{"duration":0.14285700000000112,"midi":58,"time":13.714272000000001,"velocity":0.3937007874015748},{"duration":0.14285700000000112,"midi":50,"time":13.714272000000001,"velocity":0.3937007874015748},{"duration":0.14285700000000112,"midi":55,"time":13.999986,"velocity":0.3937007874015748},{"duration":0.14285700000000112,"midi":50,"time":13.999986,"velocity":0.3937007874015748},{"duration":0.14285700000000112,"midi":58,"time":13.999986,"velocity":0.3937007874015748},{"duration":0.14285699999999757,"midi":57,"time":14.285700000000002,"velocity":0.3937007874015748},{"duration":0.14285699999999757,"midi":50,"time":14.285700000000002,"velocity":0.3937007874015748},{"duration":0.14285700000000112,"midi":55,"time":14.428557,"velocity":0.3937007874015748},{"duration":0.14285700000000112,"midi":57,"time":14.571414,"velocity":0.3937007874015748},{"duration":0.14285700000000112,"midi":50,"time":14.571414,"velocity":0.3937007874015748},{"duration":0.4285709999999998,"midi":41,"time":14.714271000000002,"velocity":0.3937007874015748},{"duration":0.4285709999999998,"midi":45,"time":14.714271000000002,"velocity":0.3937007874015748},{"duration":0.4285709999999998,"midi":50,"time":14.714271000000002,"velocity":0.3937007874015748},{"duration":0.14285699999999935,"midi":50,"time":15.142842000000002,"velocity":0.3937007874015748},{"duration":0.14285699999999935,"midi":52,"time":15.285699000000001,"velocity":0.3937007874015748},{"duration":0.14285700000000112,"midi":46,"time":15.428556,"velocity":0.3937007874015748},{"duration":0.14285700000000112,"midi":53,"time":15.428556,"velocity":0.3937007874015748},{"duration":0.14285700000000112,"midi":50,"time":15.428556,"velocity":0.3937007874015748},{"duration":0.14285700000000112,"midi":53,"time":15.71427,"velocity":0.3937007874015748},{"duration":0.14285700000000112,"midi":46,"time":15.71427,"velocity":0.3937007874015748},{"duration":0.14285700000000112,"midi":50,"time":15.71427,"velocity":0.3937007874015748},{"duration":0.14285699999999757,"midi":50,"time":15.999984000000003,"velocity":0.3937007874015748},{"duration":0.14285699999999757,"midi":46,"time":15.999984000000003,"velocity":0.3937007874015748},{"duration":0.14285699999999757,"midi":55,"time":15.999984000000003,"velocity":0.3937007874015748},{"duration":0.1428570000000029,"midi":53,"time":16.285698,"velocity":0.3937007874015748},{"duration":0.1428570000000029,"midi":50,"time":16.285698,"velocity":0.3937007874015748},{"duration":0.1428570000000029,"midi":57,"time":16.285698,"velocity":0.3937007874015748},{"duration":0.14285699999999935,"midi":50,"time":16.857126,"velocity":0.3937007874015748},{"duration":0.14285699999999935,"midi":53,"time":16.999983,"velocity":0.3937007874015748},{"duration":0.1428570000000029,"midi":52,"time":17.14284,"velocity":0.3937007874015748},{"duration":0.1428570000000029,"midi":45,"time":17.14284,"velocity":0.3937007874015748},{"duration":0.1428570000000029,"midi":49,"time":17.14284,"velocity":0.3937007874015748},{"duration":0.14285699999999935,"midi":45,"time":17.428554000000002,"velocity":0.3937007874015748},{"duration":0.14285699999999935,"midi":49,"time":17.428554000000002,"velocity":0.3937007874015748},{"duration":0.14285699999999935,"midi":52,"time":17.428554000000002,"velocity":0.3937007874015748},{"duration":0.1428569999999958,"midi":53,"time":17.714268000000004,"velocity":0.3937007874015748},{"duration":0.1428570000000029,"midi":50,"time":17.857125,"velocity":0.3937007874015748},{"duration":0.42857099999999804,"midi":52,"time":17.999982000000003,"velocity":0.3937007874015748},{"duration":0.42857099999999804,"midi":49,"time":17.999982000000003,"velocity":0.3937007874015748},{"duration":0.42857099999999804,"midi":45,"time":17.999982000000003,"velocity":0.3937007874015748},{"duration":0.1428569999999958,"midi":57,"time":18.571410000000004,"velocity":0.3937007874015748},{"duration":0.1428570000000029,"midi":60,"time":18.714267,"velocity":0.3937007874015748},{"duration":0.14285699999999935,"midi":62,"time":18.857124000000002,"velocity":0.3937007874015748},{"duration":0.14285699999999935,"midi":57,"time":18.857124000000002,"velocity":0.3937007874015748},{"duration":0.14285699999999935,"midi":53,"time":18.857124000000002,"velocity":0.3937007874015748},{"duration":0.14285699999999935,"midi":53,"time":19.142838,"velocity":0.3937007874015748},{"duration":0.14285699999999935,"midi":62,"time":19.142838,"velocity":0.3937007874015748},{"duration":0.14285699999999935,"midi":57,"time":19.142838,"velocity":0.3937007874015748},{"duration":0.1428569999999958,"midi":53,"time":19.428552000000003,"velocity":0.3937007874015748},{"duration":0.1428569999999958,"midi":57,"time":19.428552000000003,"velocity":0.3937007874015748},{"duration":0.1428569999999958,"midi":62,"time":19.428552000000003,"velocity":0.3937007874015748},{"duration":0.1428570000000029,"midi":64,"time":19.571409,"velocity":0.3937007874015748},{"duration":0.14285699999999935,"midi":65,"time":19.714266000000002,"velocity":0.3937007874015748},{"duration":0.14285699999999935,"midi":62,"time":19.714266000000002,"velocity":0.3937007874015748},{"duration":0.14285699999999935,"midi":58,"time":19.714266000000002,"velocity":0.3937007874015748},{"duration":0.14285699999999935,"midi":65,"time":19.99998,"velocity":0.3937007874015748},{"duration":0.14285699999999935,"midi":62,"time":19.99998,"velocity":0.3937007874015748},{"duration":0.14285699999999935,"midi":58,"time":19.99998,"velocity":0.3937007874015748},{"duration":0.14285699999999935,"midi":65,"time":20.285694000000003,"velocity":0.3937007874015748},{"duration":0.14285699999999935,"midi":62,"time":20.285694000000003,"velocity":0.3937007874015748},{"duration":0.14285699999999935,"midi":58,"time":20.285694000000003,"velocity":0.3937007874015748},{"duration":0.14285699999999935,"midi":67,"time":20.428551000000002,"velocity":0.3937007874015748},{"duration":0.14285699999999935,"midi":57,"time":20.571408,"velocity":0.3937007874015748},{"duration":0.14285699999999935,"midi":64,"time":20.571408,"velocity":0.3937007874015748},{"duration":0.14285699999999935,"midi":60,"time":20.571408,"velocity":0.3937007874015748},{"duration":0.1428570000000029,"midi":60,"time":20.857122,"velocity":0.3937007874015748},{"duration":0.1428570000000029,"midi":57,"time":20.857122,"velocity":0.3937007874015748},{"duration":0.1428570000000029,"midi":64,"time":20.857122,"velocity":0.3937007874015748},{"duration":0.14285699999999935,"midi":62,"time":21.142836000000003,"velocity":0.3937007874015748},{"duration":0.14285699999999935,"midi":57,"time":21.142836000000003,"velocity":0.3937007874015748},{"duration":0.14285699999999935,"midi":60,"time":21.285693000000002,"velocity":0.3937007874015748},{"duration":0.1428570000000029,"midi":53,"time":21.42855,"velocity":0.3937007874015748},{"duration":0.1428570000000029,"midi":60,"time":21.42855,"velocity":0.3937007874015748},{"duration":0.42857099999999804,"midi":57,"time":21.571407000000004,"velocity":0.3937007874015748},{"duration":0.42857099999999804,"midi":62,"time":21.571407000000004,"velocity":0.3937007874015748},{"duration":0.42857099999999804,"midi":53,"time":21.571407000000004,"velocity":0.3937007874015748},{"duration":0.14285699999999935,"midi":57,"time":21.999978000000002,"velocity":0.3937007874015748},{"duration":0.14285699999999935,"midi":60,"time":22.142835,"velocity":0.3937007874015748},{"duration":0.1428570000000029,"midi":58,"time":22.285692,"velocity":0.3937007874015748},{"duration":0.1428570000000029,"midi":53,"time":22.285692,"velocity":0.3937007874015748},{"duration":0.1428570000000029,"midi":62,"time":22.285692,"velocity":0.3937007874015748},{"duration":0.1428570000000029,"midi":58,"time":22.571406,"velocity":0.3937007874015748},{"duration":0.1428570000000029,"midi":53,"time":22.571406,"velocity":0.3937007874015748},{"duration":0.1428570000000029,"midi":62,"time":22.571406,"velocity":0.3937007874015748},{"duration":0.14285699999999935,"midi":62,"time":22.857120000000002,"velocity":0.3937007874015748},{"duration":0.14285699999999935,"midi":58,"time":22.857120000000002,"velocity":0.3937007874015748},{"duration":0.14285699999999935,"midi":53,"time":22.857120000000002,"velocity":0.3937007874015748},{"duration":0.14285699999999935,"midi":64,"time":22.999977,"velocity":0.3937007874015748},{"duration":0.1428570000000029,"midi":60,"time":23.142834,"velocity":0.3937007874015748},{"duration":0.1428570000000029,"midi":65,"time":23.142834,"velocity":0.3937007874015748},{"duration":0.1428570000000029,"midi":57,"time":23.142834,"velocity":0.3937007874015748},{"duration":0.1428570000000029,"midi":65,"time":23.428548,"velocity":0.3937007874015748},{"duration":0.1428570000000029,"midi":60,"time":23.428548,"velocity":0.3937007874015748},{"duration":0.1428570000000029,"midi":57,"time":23.428548,"velocity":0.3937007874015748},{"duration":0.14285699999999935,"midi":65,"time":23.714262,"velocity":0.3937007874015748},{"duration":0.14285699999999935,"midi":60,"time":23.714262,"velocity":0.3937007874015748},{"duration":0.14285699999999935,"midi":57,"time":23.714262,"velocity":0.3937007874015748},{"duration":0.1428570000000029,"midi":67,"time":23.857119,"velocity":0.3937007874015748},{"duration":0.14285699999999935,"midi":64,"time":23.999976000000004,"velocity":0.3937007874015748},{"duration":0.14285699999999935,"midi":60,"time":23.999976000000004,"velocity":0.3937007874015748},{"duration":0.14285699999999935,"midi":57,"time":23.999976000000004,"velocity":0.3937007874015748},{"duration":0.14285699999999935,"midi":64,"time":24.285690000000002,"velocity":0.3937007874015748},{"duration":0.14285699999999935,"midi":60,"time":24.285690000000002,"velocity":0.3937007874015748},{"duration":0.14285699999999935,"midi":57,"time":24.285690000000002,"velocity":0.3937007874015748},{"duration":0.1428569999999958,"midi":62,"time":24.571404000000005,"velocity":0.3937007874015748},{"duration":0.1428569999999958,"midi":57,"time":24.571404000000005,"velocity":0.3937007874015748},{"duration":0.1428570000000029,"midi":60,"time":24.714261,"velocity":0.3937007874015748},{"duration":0.42857099999999804,"midi":62,"time":24.857118000000003,"velocity":0.3937007874015748},{"duration":0.42857099999999804,"midi":57,"time":24.857118000000003,"velocity":0.3937007874015748},{"duration":0.42857099999999804,"midi":53,"time":24.857118000000003,"velocity":0.3937007874015748},{"duration":0.1428569999999958,"midi":57,"time":25.428546000000004,"velocity":0.3937007874015748},{"duration":0.1428570000000029,"midi":60,"time":25.571403,"velocity":0.3937007874015748},{"duration":0.14285699999999935,"midi":62,"time":25.714260000000003,"velocity":0.3937007874015748},{"duration":0.14285699999999935,"midi":57,"time":25.714260000000003,"velocity":0.3937007874015748},{"duration":0.14285699999999935,"midi":53,"time":25.714260000000003,"velocity":0.3937007874015748},{"duration":0.14285699999999935,"midi":57,"time":25.999974,"velocity":0.3937007874015748},{"duration":0.14285699999999935,"midi":53,"time":25.999974,"velocity":0.3937007874015748},{"duration":0.14285699999999935,"midi":62,"time":25.999974,"velocity":0.3937007874015748},{"duration":0.1428569999999958,"midi":53,"time":26.285688000000004,"velocity":0.3937007874015748},{"duration":0.1428569999999958,"midi":62,"time":26.285688000000004,"velocity":0.3937007874015748},{"duration":0.1428570000000029,"midi":53,"time":26.428545,"velocity":0.3937007874015748},{"duration":0.1428570000000029,"midi":65,"time":26.428545,"velocity":0.3937007874015748},{"duration":0.14285699999999935,"midi":67,"time":26.571402000000003,"velocity":0.3937007874015748},{"duration":0.14285699999999935,"midi":62,"time":26.571402000000003,"velocity":0.3937007874015748},{"duration":0.14285699999999935,"midi":58,"time":26.571402000000003,"velocity":0.3937007874015748},{"duration":0.14285699999999935,"midi":67,"time":26.857116,"velocity":0.3937007874015748},{"duration":0.14285699999999935,"midi":58,"time":26.857116,"velocity":0.3937007874015748},{"duration":0.14285699999999935,"midi":62,"time":26.857116,"velocity":0.3937007874015748},{"duration":0.14285699999999935,"midi":67,"time":27.142830000000004,"velocity":0.3937007874015748},{"duration":0.14285699999999935,"midi":62,"time":27.142830000000004,"velocity":0.3937007874015748},{"duration":0.14285699999999935,"midi":58,"time":27.142830000000004,"velocity":0.3937007874015748},{"duration":0.14285699999999935,"midi":69,"time":27.285687000000003,"velocity":0.3937007874015748},{"duration":0.14285699999999935,"midi":67,"time":27.428544000000002,"velocity":0.3937007874015748},{"duration":0.14285699999999935,"midi":62,"time":27.428544000000002,"velocity":0.3937007874015748},{"duration":0.14285699999999935,"midi":70,"time":27.428544000000002,"velocity":0.3937007874015748},{"duration":0.14285699999999935,"midi":62,"time":27.714258000000005,"velocity":0.3937007874015748},{"duration":0.14285699999999935,"midi":70,"time":27.714258000000005,"velocity":0.3937007874015748},{"duration":0.14285699999999935,"midi":67,"time":27.714258000000005,"velocity":0.3937007874015748},{"duration":0.14285700000000645,"midi":69,"time":27.999972,"velocity":0.3937007874015748},{"duration":0.14285700000000645,"midi":62,"time":27.999972,"velocity":0.3937007874015748},{"duration":0.1428569999999958,"midi":67,"time":28.142829000000006,"velocity":0.3937007874015748},{"duration":0.14285699999999935,"midi":69,"time":28.285686000000002,"velocity":0.3937007874015748},{"duration":0.14285699999999935,"midi":62,"time":28.285686000000002,"velocity":0.3937007874015748},{"duration":0.42857099999999804,"midi":62,"time":28.428543,"velocity":0.3937007874015748},{"duration":0.42857099999999804,"midi":57,"time":28.428543,"velocity":0.3937007874015748},{"duration":0.42857099999999804,"midi":53,"time":28.428543,"velocity":0.3937007874015748},{"duration":0.14285700000000645,"midi":62,"time":28.857114,"velocity":0.3937007874015748},{"duration":0.1428569999999958,"midi":64,"time":28.999971000000006,"velocity":0.3937007874015748},{"duration":0.14285699999999935,"midi":65,"time":29.142828,"velocity":0.3937007874015748},{"duration":0.14285699999999935,"midi":60,"time":29.142828,"velocity":0.3937007874015748},{"duration":0.14285699999999935,"midi":57,"time":29.142828,"velocity":0.3937007874015748},{"duration":0.14285699999999935,"midi":65,"time":29.428542000000004,"velocity":0.3937007874015748},{"duration":0.14285699999999935,"midi":60,"time":29.428542000000004,"velocity":0.3937007874015748},{"duration":0.14285699999999935,"midi":57,"time":29.428542000000004,"velocity":0.3937007874015748},{"duration":0.14285700000000645,"midi":57,"time":29.714256,"velocity":0.3937007874015748},{"duration":0.14285700000000645,"midi":67,"time":29.714256,"velocity":0.3937007874015748},{"duration":0.14285700000000645,"midi":60,"time":29.714256,"velocity":0.3937007874015748},{"duration":0.14285699999999935,"midi":65,"time":29.99997,"velocity":0.3937007874015748},{"duration":0.14285699999999935,"midi":62,"time":29.99997,"velocity":0.3937007874015748},{"duration":0.14285699999999935,"midi":69,"time":29.99997,"velocity":0.3937007874015748},{"duration":0.1428570000000029,"midi":62,"time":30.142827,"velocity":0.3937007874015748},{"duration":0.1428570000000029,"midi":62,"time":30.571398000000002,"velocity":0.3937007874015748},{"duration":0.1428569999999958,"midi":65,"time":30.714255000000005,"velocity":0.3937007874015748},{"duration":0.14285699999999935,"midi":61,"time":30.857112,"velocity":0.3937007874015748},{"duration":0.14285699999999935,"midi":57,"time":30.857112,"velocity":0.3937007874015748},{"duration":0.14285699999999935,"midi":64,"time":30.857112,"velocity":0.3937007874015748},{"duration":0.14285699999999935,"midi":61,"time":31.142826000000003,"velocity":0.3937007874015748},{"duration":0.14285699999999935,"midi":57,"time":31.142826000000003,"velocity":0.3937007874015748},{"duration":0.14285699999999935,"midi":64,"time":31.142826000000003,"velocity":0.3937007874015748},{"duration":0.1428570000000029,"midi":62,"time":31.42854,"velocity":0.3937007874015748},{"duration":0.14285699999999935,"midi":61,"time":31.571397000000005,"velocity":0.3937007874015748},{"duration":0.28571400000000224,"midi":57,"time":31.714254000000004,"velocity":0.3937007874015748},{"duration":0.28571400000000224,"midi":62,"time":31.714254000000004,"velocity":0.3937007874015748},{"duration":0.28571399999999514,"midi":62,"time":31.999968000000006,"velocity":0.3937007874015748},{"duration":0.28571399999999514,"midi":57,"time":31.999968000000006,"velocity":0.3937007874015748},{"duration":0.2857139999999987,"midi":60,"time":32.285682,"velocity":0.3937007874015748},{"duration":0.2857139999999987,"midi":64,"time":32.285682,"velocity":0.3937007874015748},{"duration":0.2857139999999987,"midi":57,"time":32.285682,"velocity":0.3937007874015748},{"duration":0.2857140000000058,"midi":60,"time":32.571396,"velocity":0.3937007874015748},{"duration":0.2857140000000058,"midi":62,"time":32.571396,"velocity":0.3937007874015748},{"duration":0.2857140000000058,"midi":65,"time":32.571396,"velocity":0.3937007874015748},{"duration":0.14285699999999935,"midi":65,"time":32.857110000000006,"velocity":0.3937007874015748},{"duration":0.14285699999999224,"midi":65,"time":32.999967000000005,"velocity":0.3937007874015748},{"duration":0.2857140000000058,"midi":58,"time":33.142824,"velocity":0.3937007874015748},{"duration":0.2857140000000058,"midi":67,"time":33.142824,"velocity":0.3937007874015748},{"duration":0.2857140000000058,"midi":62,"time":33.142824,"velocity":0.3937007874015748},{"duration":0.5714279999999974,"midi":62,"time":33.428538,"velocity":0.3937007874015748},{"duration":0.5714279999999974,"midi":65,"time":33.428538,"velocity":0.3937007874015748},{"duration":0.5714279999999974,"midi":69,"time":33.428538,"velocity":0.3937007874015748},{"duration":0.14285700000000645,"midi":65,"time":33.999966,"velocity":0.3937007874015748},{"duration":0.14285699999999224,"midi":62,"time":34.14282300000001,"velocity":0.3937007874015748},{"duration":0.8571420000000032,"midi":57,"time":34.28568,"velocity":0.3937007874015748},{"duration":0.5714279999999974,"midi":62,"time":35.142822,"velocity":0.3937007874015748},{"duration":0.5714279999999974,"midi":70,"time":35.142822,"velocity":0.3937007874015748},{"duration":0.5714279999999974,"midi":65,"time":35.142822,"velocity":0.3937007874015748},{"duration":0.14285700000000645,"midi":65,"time":35.71425,"velocity":0.3937007874015748},{"duration":0.14285699999999935,"midi":62,"time":35.857107000000006,"velocity":0.3937007874015748},{"duration":0.8571419999999961,"midi":58,"time":35.999964000000006,"velocity":0.3937007874015748},{"duration":0.14285699999999935,"midi":64,"time":36.857106,"velocity":0.3937007874015748},{"duration":0.14285699999999935,"midi":57,"time":36.857106,"velocity":0.3937007874015748},{"duration":0.2857139999999987,"midi":64,"time":36.999963,"velocity":0.3937007874015748},{"duration":0.42857100000000514,"midi":53,"time":37.285677,"velocity":0.3937007874015748},{"duration":0.42857100000000514,"midi":57,"time":37.285677,"velocity":0.3937007874015748},{"duration":0.42857100000000514,"midi":62,"time":37.285677,"velocity":0.3937007874015748},{"duration":0.42857099999999804,"midi":65,"time":37.714248000000005,"velocity":0.3937007874015748},{"duration":0.42857099999999804,"midi":57,"time":37.714248000000005,"velocity":0.3937007874015748},{"duration":0.42857099999999804,"midi":61,"time":37.714248000000005,"velocity":0.3937007874015748},{"duration":0.14285700000000645,"midi":53,"time":38.285676,"velocity":0.3937007874015748},{"duration":0.14285699999999224,"midi":55,"time":38.42853300000001,"velocity":0.3937007874015748},{"duration":0.14285699999999935,"midi":53,"time":38.57139,"velocity":0.3937007874015748},{"duration":0.14285699999999935,"midi":50,"time":38.57139,"velocity":0.3937007874015748},{"duration":0.14285699999999935,"midi":57,"time":38.57139,"velocity":0.3937007874015748},{"duration":0.14285699999999935,"midi":57,"time":38.85710400000001,"velocity":0.3937007874015748},{"duration":0.14285699999999935,"midi":53,"time":38.85710400000001,"velocity":0.3937007874015748},{"duration":0.14285699999999935,"midi":50,"time":38.85710400000001,"velocity":0.3937007874015748},{"duration":0.14285700000000645,"midi":53,"time":39.142818,"velocity":0.3937007874015748},{"duration":0.14285700000000645,"midi":50,"time":39.142818,"velocity":0.3937007874015748},{"duration":0.14285700000000645,"midi":57,"time":39.142818,"velocity":0.3937007874015748},{"duration":0.14285699999999935,"midi":50,"time":39.428532000000004,"velocity":0.3937007874015748},{"duration":0.14285699999999935,"midi":58,"time":39.428532000000004,"velocity":0.3937007874015748},{"duration":0.14285699999999935,"midi":55,"time":39.428532000000004,"velocity":0.3937007874015748},{"duration":0.14285699999999935,"midi":50,"time":39.571389,"velocity":0.3937007874015748},{"duration":0.14285699999999935,"midi":57,"time":39.571389,"velocity":0.3937007874015748},{"duration":0.14285699999999935,"midi":53,"time":39.571389,"velocity":0.3937007874015748},{"duration":0.14285699999999935,"midi":52,"time":40.285674,"velocity":0.3937007874015748},{"duration":0.14285699999999935,"midi":48,"time":40.285674,"velocity":0.3937007874015748},{"duration":0.14285699999999935,"midi":55,"time":40.285674,"velocity":0.3937007874015748},{"duration":0.14285699999999935,"midi":55,"time":40.571388000000006,"velocity":0.3937007874015748},{"duration":0.14285699999999935,"midi":52,"time":40.571388000000006,"velocity":0.3937007874015748},{"duration":0.14285699999999935,"midi":48,"time":40.571388000000006,"velocity":0.3937007874015748},{"duration":0.14285699999999935,"midi":52,"time":40.857102000000005,"velocity":0.3937007874015748},{"duration":0.14285699999999935,"midi":55,"time":40.857102000000005,"velocity":0.3937007874015748},{"duration":0.14285699999999935,"midi":48,"time":40.857102000000005,"velocity":0.3937007874015748},{"duration":0.14285699999999935,"midi":55,"time":41.142816,"velocity":0.3937007874015748},{"duration":0.14285699999999935,"midi":48,"time":41.142816,"velocity":0.3937007874015748},{"duration":0.14285699999999935,"midi":52,"time":41.142816,"velocity":0.3937007874015748},{"duration":0.14285699999999935,"midi":57,"time":41.285673,"velocity":0.3937007874015748},{"duration":0.14285699999999935,"midi":53,"time":41.285673,"velocity":0.3937007874015748},{"duration":0.14285699999999935,"midi":48,"time":41.285673,"velocity":0.3937007874015748},{"duration":0.14285699999999224,"midi":57,"time":41.99995800000001,"velocity":0.3937007874015748},{"duration":0.14285699999999224,"midi":50,"time":41.99995800000001,"velocity":0.3937007874015748},{"duration":0.14285699999999224,"midi":53,"time":41.99995800000001,"velocity":0.3937007874015748},{"duration":0.14285699999999935,"midi":57,"time":42.285672000000005,"velocity":0.3937007874015748},{"duration":0.14285699999999935,"midi":53,"time":42.285672000000005,"velocity":0.3937007874015748},{"duration":0.14285699999999935,"midi":50,"time":42.285672000000005,"velocity":0.3937007874015748},{"duration":0.14285699999999935,"midi":50,"time":42.571386000000004,"velocity":0.3937007874015748},{"duration":0.14285699999999935,"midi":53,"time":42.571386000000004,"velocity":0.3937007874015748},{"duration":0.14285699999999935,"midi":57,"time":42.571386000000004,"velocity":0.3937007874015748},{"duration":0.14285699999999935,"midi":58,"time":42.8571,"velocity":0.3937007874015748},{"duration":0.14285699999999935,"midi":50,"time":42.8571,"velocity":0.3937007874015748},{"duration":0.14285699999999935,"midi":55,"time":42.8571,"velocity":0.3937007874015748},{"duration":0.14285700000000645,"midi":50,"time":42.999957,"velocity":0.3937007874015748},{"duration":0.14285700000000645,"midi":53,"time":42.999957,"velocity":0.3937007874015748},{"duration":0.14285700000000645,"midi":57,"time":42.999957,"velocity":0.3937007874015748},{"duration":0.14285699999999224,"midi":52,"time":43.714242000000006,"velocity":0.3937007874015748},{"duration":0.14285699999999224,"midi":55,"time":43.714242000000006,"velocity":0.3937007874015748},{"duration":0.14285699999999224,"midi":49,"time":43.714242000000006,"velocity":0.3937007874015748},{"duration":0.14285699999999935,"midi":53,"time":43.999956000000005,"velocity":0.3937007874015748},{"duration":0.14285699999999935,"midi":49,"time":43.999956000000005,"velocity":0.3937007874015748},{"duration":0.14285699999999935,"midi":49,"time":44.28567,"velocity":0.3937007874015748},{"duration":0.14285699999999935,"midi":52,"time":44.28567,"velocity":0.3937007874015748},{"duration":0.14285699999999935,"midi":45,"time":44.571384,"velocity":0.3937007874015748},{"duration":0.14285699999999935,"midi":50,"time":44.571384,"velocity":0.3937007874015748},{"duration":0.14285699999999935,"midi":41,"time":44.571384,"velocity":0.3937007874015748},{"duration":0.14285700000000645,"midi":50,"time":45.142812,"velocity":0.3937007874015748},{"duration":0.14285699999999935,"midi":52,"time":45.285669000000006,"velocity":0.3937007874015748},{"duration":0.5714279999999974,"midi":50,"time":45.428526000000005,"velocity":0.3937007874015748},{"duration":0.5714279999999974,"midi":45,"time":45.428526000000005,"velocity":0.3937007874015748},{"duration":0.5714279999999974,"midi":53,"time":45.428526000000005,"velocity":0.3937007874015748},{"duration":0.14285700000000645,"midi":55,"time":45.999954,"velocity":0.3937007874015748},{"duration":0.14285699999999224,"midi":57,"time":46.14281100000001,"velocity":0.3937007874015748},{"duration":0.2857140000000058,"midi":43,"time":46.285668,"velocity":0.3937007874015748},{"duration":0.2857140000000058,"midi":48,"time":46.285668,"velocity":0.3937007874015748},{"duration":0.2857140000000058,"midi":55,"time":46.285668,"velocity":0.3937007874015748},{"duration":0.2857139999999916,"midi":53,"time":46.57138200000001,"velocity":0.3937007874015748},{"duration":0.2857139999999916,"midi":43,"time":46.57138200000001,"velocity":0.3937007874015748},{"duration":0.2857139999999916,"midi":48,"time":46.57138200000001,"velocity":0.3937007874015748},{"duration":0.2857140000000058,"midi":43,"time":46.857096,"velocity":0.3937007874015748},{"duration":0.2857140000000058,"midi":48,"time":46.857096,"velocity":0.3937007874015748},{"duration":0.2857140000000058,"midi":52,"time":46.857096,"velocity":0.3937007874015748},{"duration":0.2857139999999987,"midi":45,"time":47.142810000000004,"velocity":0.3937007874015748},{"duration":0.2857139999999987,"midi":48,"time":47.142810000000004,"velocity":0.3937007874015748},{"duration":0.2857139999999987,"midi":53,"time":47.142810000000004,"velocity":0.3937007874015748},{"duration":0.2857139999999987,"midi":48,"time":47.428524,"velocity":0.3937007874015748},{"duration":0.2857139999999987,"midi":55,"time":47.428524,"velocity":0.3937007874015748},{"duration":0.2857139999999987,"midi":45,"time":47.428524,"velocity":0.3937007874015748},{"duration":0.2857140000000058,"midi":45,"time":47.714238,"velocity":0.3937007874015748},{"duration":0.2857140000000058,"midi":48,"time":47.714238,"velocity":0.3937007874015748},{"duration":0.2857140000000058,"midi":57,"time":47.714238,"velocity":0.3937007874015748},{"duration":0.5714279999999974,"midi":52,"time":47.99995200000001,"velocity":0.3937007874015748},{"duration":0.5714279999999974,"midi":48,"time":47.99995200000001,"velocity":0.3937007874015748},{"duration":0.5714279999999974,"midi":55,"time":47.99995200000001,"velocity":0.3937007874015748},{"duration":0.14285699999999935,"midi":53,"time":48.571380000000005,"velocity":0.3937007874015748},{"duration":0.14285699999999935,"midi":55,"time":48.714237000000004,"velocity":0.3937007874015748},{"duration":0.5714279999999974,"midi":53,"time":48.857094000000004,"velocity":0.3937007874015748},{"duration":0.5714279999999974,"midi":57,"time":48.857094000000004,"velocity":0.3937007874015748},{"duration":0.5714279999999974,"midi":50,"time":48.857094000000004,"velocity":0.3937007874015748},{"duration":0.14285700000000645,"midi":55,"time":49.428522,"velocity":0.3937007874015748},{"duration":0.14285699999999935,"midi":53,"time":49.57137900000001,"velocity":0.3937007874015748},{"duration":0.2857139999999987,"midi":52,"time":49.71423600000001,"velocity":0.3937007874015748},{"duration":0.2857139999999987,"midi":49,"time":49.71423600000001,"velocity":0.3937007874015748},{"duration":0.2857139999999987,"midi":49,"time":49.999950000000005,"velocity":0.3937007874015748},{"duration":0.2857139999999987,"midi":53,"time":49.999950000000005,"velocity":0.3937007874015748},{"duration":0.2857139999999987,"midi":49,"time":50.285664000000004,"velocity":0.3937007874015748},{"duration":0.2857139999999987,"midi":52,"time":50.285664000000004,"velocity":0.3937007874015748},{"duration":0.2857140000000058,"midi":50,"time":50.571378,"velocity":0.3937007874015748},{"duration":0.2857140000000058,"midi":45,"time":50.571378,"velocity":0.3937007874015748},{"duration":0.2857140000000058,"midi":41,"time":50.571378,"velocity":0.3937007874015748},{"duration":0.14285700000000645,"midi":52,"time":51.142806,"velocity":0.3937007874015748},{"duration":0.14285699999999935,"midi":48,"time":51.28566300000001,"velocity":0.3937007874015748},{"duration":0.2857139999999987,"midi":45,"time":51.428520000000006,"velocity":0.3937007874015748},{"duration":0.2857139999999987,"midi":41,"time":51.428520000000006,"velocity":0.3937007874015748},{"duration":0.2857139999999987,"midi":50,"time":51.428520000000006,"velocity":0.3937007874015748},{"duration":0.14285700000000645,"midi":62,"time":51.999948,"velocity":0.3937007874015748},{"duration":0.14285699999999224,"midi":64,"time":52.14280500000001,"velocity":0.3937007874015748},{"duration":0.5714279999999974,"midi":57,"time":52.285662,"velocity":0.3937007874015748},{"duration":0.5714279999999974,"midi":62,"time":52.285662,"velocity":0.3937007874015748},{"duration":0.5714279999999974,"midi":65,"time":52.285662,"velocity":0.3937007874015748},{"duration":0.14285700000000645,"midi":64,"time":52.85709,"velocity":0.3937007874015748},{"duration":0.14285699999999935,"midi":65,"time":52.999947000000006,"velocity":0.3937007874015748},{"duration":0.2857139999999987,"midi":67,"time":53.142804000000005,"velocity":0.3937007874015748},{"duration":0.2857139999999987,"midi":55,"time":53.142804000000005,"velocity":0.3937007874015748},{"duration":0.2857139999999987,"midi":60,"time":53.142804000000005,"velocity":0.3937007874015748},{"duration":0.2857139999999987,"midi":55,"time":53.428518000000004,"velocity":0.3937007874015748},{"duration":0.2857139999999987,"midi":60,"time":53.428518000000004,"velocity":0.3937007874015748},{"duration":0.2857139999999987,"midi":65,"time":53.428518000000004,"velocity":0.3937007874015748},{"duration":0.2857139999999987,"midi":60,"time":53.714232,"velocity":0.3937007874015748},{"duration":0.2857139999999987,"midi":55,"time":53.714232,"velocity":0.3937007874015748},{"duration":0.2857139999999987,"midi":67,"time":53.714232,"velocity":0.3937007874015748},{"duration":0.2857140000000058,"midi":65,"time":53.999946,"velocity":0.3937007874015748},{"duration":0.2857140000000058,"midi":69,"time":53.999946,"velocity":0.3937007874015748},{"duration":0.2857139999999987,"midi":67,"time":54.28566000000001,"velocity":0.3937007874015748},{"duration":0.2857139999999987,"midi":60,"time":54.28566000000001,"velocity":0.3937007874015748},{"duration":0.2857139999999987,"midi":65,"time":54.571374000000006,"velocity":0.3937007874015748},{"duration":0.2857139999999987,"midi":60,"time":54.571374000000006,"velocity":0.3937007874015748},{"duration":0.2857139999999987,"midi":53,"time":54.857088000000005,"velocity":0.3937007874015748},{"duration":0.2857139999999987,"midi":62,"time":54.857088000000005,"velocity":0.3937007874015748},{"duration":0.2857139999999987,"midi":58,"time":54.857088000000005,"velocity":0.3937007874015748},{"duration":0.14285699999999224,"midi":62,"time":55.42851600000001,"velocity":0.3937007874015748},{"duration":0.14285700000000645,"midi":64,"time":55.571373,"velocity":0.3937007874015748},{"duration":0.2857139999999916,"midi":62,"time":55.71423000000001,"velocity":0.3937007874015748},{"duration":0.2857139999999916,"midi":57,"time":55.71423000000001,"velocity":0.3937007874015748},{"duration":0.2857139999999916,"midi":65,"time":55.71423000000001,"velocity":0.3937007874015748},{"duration":0.2857140000000129,"midi":67,"time":55.999944,"velocity":0.3937007874015748},{"duration":0.2857140000000129,"midi":62,"time":55.999944,"velocity":0.3937007874015748},{"duration":0.2857140000000129,"midi":57,"time":55.999944,"velocity":0.3937007874015748},{"duration":0.2857139999999916,"midi":62,"time":56.28565800000001,"velocity":0.3937007874015748},{"duration":0.2857139999999916,"midi":69,"time":56.28565800000001,"velocity":0.3937007874015748},{"duration":0.2857139999999987,"midi":58,"time":56.571372000000004,"velocity":0.3937007874015748},{"duration":0.2857139999999987,"midi":62,"time":56.571372000000004,"velocity":0.3937007874015748},{"duration":0.2857139999999987,"midi":70,"time":56.571372000000004,"velocity":0.3937007874015748},{"duration":0.2857140000000058,"midi":62,"time":56.857086,"velocity":0.3937007874015748},{"duration":0.2857140000000058,"midi":58,"time":56.857086,"velocity":0.3937007874015748},{"duration":0.2857139999999987,"midi":62,"time":57.14280000000001,"velocity":0.3937007874015748},{"duration":0.2857139999999987,"midi":67,"time":57.14280000000001,"velocity":0.3937007874015748},{"duration":0.2857139999999916,"midi":65,"time":57.42851400000001,"velocity":0.3937007874015748},{"duration":0.2857139999999916,"midi":57,"time":57.42851400000001,"velocity":0.3937007874015748},{"duration":0.14285699999999224,"midi":67,"time":57.99994200000001,"velocity":0.3937007874015748},{"duration":0.14285699999999935,"midi":64,"time":58.142799000000004,"velocity":0.3937007874015748},{"duration":0.2857139999999987,"midi":62,"time":58.285656,"velocity":0.3937007874015748},{"duration":0.2857139999999987,"midi":57,"time":58.285656,"velocity":0.3937007874015748},{"duration":0.14285699999999224,"midi":64,"time":58.85708400000001,"velocity":0.3937007874015748},{"duration":0.14285700000000645,"midi":61,"time":58.999941,"velocity":0.3937007874015748},{"duration":0.8571419999999961,"midi":62,"time":59.142798000000006,"velocity":0.3937007874015748},{"duration":0.8571419999999961,"midi":69,"time":59.142798000000006,"velocity":0.3937007874015748},{"duration":0.8571419999999961,"midi":65,"time":59.142798000000006,"velocity":0.3937007874015748},{"duration":0.8571420000000032,"midi":70,"time":59.99994,"velocity":0.3937007874015748},{"duration":0.8571420000000032,"midi":62,"time":59.99994,"velocity":0.3937007874015748},{"duration":0.8571420000000032,"midi":65,"time":59.99994,"velocity":0.3937007874015748},{"duration":0.2857139999999987,"midi":60,"time":60.857082000000005,"velocity":0.3937007874015748},{"duration":0.2857139999999987,"midi":65,"time":60.857082000000005,"velocity":0.3937007874015748},{"duration":0.2857139999999987,"midi":69,"time":60.857082000000005,"velocity":0.3937007874015748},{"duration":0.2857140000000058,"midi":65,"time":61.142796000000004,"velocity":0.3937007874015748},{"duration":0.2857140000000058,"midi":60,"time":61.142796000000004,"velocity":0.3937007874015748},{"duration":0.2857140000000058,"midi":69,"time":61.142796000000004,"velocity":0.3937007874015748},{"duration":0.2857139999999916,"midi":65,"time":61.42851000000001,"velocity":0.3937007874015748},{"duration":0.2857139999999916,"midi":69,"time":61.42851000000001,"velocity":0.3937007874015748},{"duration":0.2857139999999916,"midi":60,"time":61.42851000000001,"velocity":0.3937007874015748},{"duration":0.14285700000000645,"midi":65,"time":61.714224,"velocity":0.3937007874015748},{"duration":0.14285700000000645,"midi":69,"time":61.714224,"velocity":0.3937007874015748},{"duration":0.14285700000000645,"midi":60,"time":61.714224,"velocity":0.3937007874015748},{"duration":0.2857139999999987,"midi":64,"time":61.85708100000001,"velocity":0.3937007874015748},{"duration":0.2857139999999987,"midi":67,"time":61.85708100000001,"velocity":0.3937007874015748},{"duration":0.2857139999999987,"midi":60,"time":61.85708100000001,"velocity":0.3937007874015748},{"duration":0.8571420000000032,"midi":62,"time":62.571366000000005,"velocity":0.3937007874015748},{"duration":0.8571420000000032,"midi":67,"time":62.571366000000005,"velocity":0.3937007874015748},{"duration":0.8571420000000032,"midi":58,"time":62.571366000000005,"velocity":0.3937007874015748},{"duration":0.8571419999999961,"midi":65,"time":63.42850800000001,"velocity":0.3937007874015748},{"duration":0.8571419999999961,"midi":57,"time":63.42850800000001,"velocity":0.3937007874015748},{"duration":0.8571419999999961,"midi":62,"time":63.42850800000001,"velocity":0.3937007874015748},{"duration":0.2857139999999987,"midi":57,"time":64.28565,"velocity":0.3937007874015748},{"duration":0.2857139999999987,"midi":64,"time":64.28565,"velocity":0.3937007874015748},{"duration":0.2857139999999987,"midi":61,"time":64.28565,"velocity":0.3937007874015748},{"duration":0.2857140000000129,"midi":65,"time":64.571364,"velocity":0.3937007874015748},{"duration":0.2857140000000129,"midi":61,"time":64.571364,"velocity":0.3937007874015748},{"duration":0.2857140000000129,"midi":57,"time":64.571364,"velocity":0.3937007874015748},{"duration":0.2857139999999845,"midi":64,"time":64.85707800000002,"velocity":0.3937007874015748},{"duration":0.2857139999999845,"midi":57,"time":64.85707800000002,"velocity":0.3937007874015748},{"duration":0.2857139999999845,"midi":61,"time":64.85707800000002,"velocity":0.3937007874015748},{"duration":0.42857100000000514,"midi":57,"time":65.142792,"velocity":0.3937007874015748},{"duration":0.14285700000000645,"midi":64,"time":65.142792,"velocity":0.3937007874015748},{"duration":0.2857139999999987,"midi":62,"time":65.285649,"velocity":0.3937007874015748},{"duration":0.14285700000000645,"midi":62,"time":65.571363,"velocity":0.3937007874015748},{"duration":0.14285700000000645,"midi":50,"time":65.571363,"velocity":0.3937007874015748},{"duration":0.14285699999999224,"midi":64,"time":65.71422000000001,"velocity":0.3937007874015748},{"duration":0.14285699999999224,"midi":52,"time":65.71422000000001,"velocity":0.3937007874015748},{"duration":0.14285699999999224,"midi":50,"time":65.71422000000001,"velocity":0.3937007874015748},{"duration":0.14285700000000645,"midi":53,"time":65.857077,"velocity":0.3937007874015748},{"duration":0.14285700000000645,"midi":65,"time":65.857077,"velocity":0.3937007874015748},{"duration":0.42857099999999093,"midi":65,"time":65.99993400000001,"velocity":0.3937007874015748},{"duration":0.42857099999999093,"midi":69,"time":65.99993400000001,"velocity":0.3937007874015748},{"duration":0.42857099999999093,"midi":57,"time":65.99993400000001,"velocity":0.3937007874015748},{"duration":0.42857099999999093,"midi":62,"time":65.99993400000001,"velocity":0.3937007874015748},{"duration":0.14285700000000645,"midi":50,"time":66.428505,"velocity":0.3937007874015748},{"duration":0.14285700000000645,"midi":62,"time":66.428505,"velocity":0.3937007874015748},{"duration":0.14285699999999224,"midi":52,"time":66.57136200000001,"velocity":0.3937007874015748},{"duration":0.14285699999999224,"midi":64,"time":66.57136200000001,"velocity":0.3937007874015748},{"duration":0.14285699999999224,"midi":50,"time":66.57136200000001,"velocity":0.3937007874015748},{"duration":0.14285700000000645,"midi":53,"time":66.714219,"velocity":0.3937007874015748},{"duration":0.14285700000000645,"midi":65,"time":66.714219,"velocity":0.3937007874015748},{"duration":0.42857100000000514,"midi":58,"time":66.857076,"velocity":0.3937007874015748},{"duration":0.42857100000000514,"midi":62,"time":66.857076,"velocity":0.3937007874015748},{"duration":0.42857100000000514,"midi":70,"time":66.857076,"velocity":0.3937007874015748},{"duration":0.42857100000000514,"midi":65,"time":66.857076,"velocity":0.3937007874015748},{"duration":0.14285699999999224,"midi":62,"time":67.28564700000001,"velocity":0.3937007874015748},{"duration":0.14285699999999224,"midi":50,"time":67.28564700000001,"velocity":0.3937007874015748},{"duration":0.14285699999999224,"midi":52,"time":67.428504,"velocity":0.3937007874015748},{"duration":0.14285699999999224,"midi":64,"time":67.428504,"velocity":0.3937007874015748},{"duration":0.14285700000000645,"midi":65,"time":67.571361,"velocity":0.3937007874015748},{"duration":0.14285700000000645,"midi":53,"time":67.571361,"velocity":0.3937007874015748},{"duration":0.2857139999999987,"midi":57,"time":67.714218,"velocity":0.3937007874015748},{"duration":0.2857139999999987,"midi":60,"time":67.714218,"velocity":0.3937007874015748},{"duration":0.2857139999999987,"midi":65,"time":67.714218,"velocity":0.3937007874015748},{"duration":0.2857139999999987,"midi":69,"time":67.714218,"velocity":0.3937007874015748},{"duration":0.2857140000000129,"midi":60,"time":67.999932,"velocity":0.3937007874015748},{"duration":0.2857140000000129,"midi":69,"time":67.999932,"velocity":0.3937007874015748},{"duration":0.2857140000000129,"midi":57,"time":67.999932,"velocity":0.3937007874015748},{"duration":0.2857140000000129,"midi":65,"time":67.999932,"velocity":0.3937007874015748},{"duration":0.2857139999999845,"midi":72,"time":68.28564600000001,"velocity":0.3937007874015748},{"duration":0.2857139999999845,"midi":60,"time":68.28564600000001,"velocity":0.3937007874015748},{"duration":0.2857139999999845,"midi":69,"time":68.28564600000001,"velocity":0.3937007874015748},{"duration":0.2857139999999845,"midi":65,"time":68.28564600000001,"velocity":0.3937007874015748},{"duration":0.14285700000000645,"midi":69,"time":68.57136,"velocity":0.3937007874015748},{"duration":0.14285700000000645,"midi":60,"time":68.57136,"velocity":0.3937007874015748},{"duration":0.14285700000000645,"midi":57,"time":68.57136,"velocity":0.3937007874015748},{"duration":0.14285700000000645,"midi":65,"time":68.57136,"velocity":0.3937007874015748},{"duration":0.14285699999999224,"midi":67,"time":68.714217,"velocity":0.3937007874015748},{"duration":0.14285699999999224,"midi":55,"time":68.714217,"velocity":0.3937007874015748},{"duration":0.7142849999999896,"midi":55,"time":69.42850200000001,"velocity":0.3937007874015748},{"duration":0.8571419999999961,"midi":67,"time":69.42850200000001,"velocity":0.3937007874015748},{"duration":0.8571419999999961,"midi":58,"time":69.42850200000001,"velocity":0.3937007874015748},{"duration":0.8571419999999961,"midi":62,"time":69.42850200000001,"velocity":0.3937007874015748},{"duration":0.8571419999999961,"midi":57,"time":70.285644,"velocity":0.3937007874015748},{"duration":0.8571419999999961,"midi":62,"time":70.285644,"velocity":0.3937007874015748},{"duration":0.8571419999999961,"midi":65,"time":70.285644,"velocity":0.3937007874015748},{"duration":0.8571419999999961,"midi":53,"time":70.285644,"velocity":0.3937007874015748},{"duration":0.2857139999999987,"midi":61,"time":71.142786,"velocity":0.3937007874015748},{"duration":0.2857139999999987,"midi":57,"time":71.142786,"velocity":0.3937007874015748},{"duration":0.2857139999999987,"midi":64,"time":71.142786,"velocity":0.3937007874015748},{"duration":0.2857139999999987,"midi":52,"time":71.142786,"velocity":0.3937007874015748},{"duration":0.2857140000000129,"midi":57,"time":71.4285,"velocity":0.3937007874015748},{"duration":0.2857140000000129,"midi":65,"time":71.4285,"velocity":0.3937007874015748},{"duration":0.2857140000000129,"midi":61,"time":71.4285,"velocity":0.3937007874015748},{"duration":0.2857140000000129,"midi":53,"time":71.4285,"velocity":0.3937007874015748},{"duration":0.2857139999999987,"midi":57,"time":71.71421400000001,"velocity":0.3937007874015748},{"duration":0.2857139999999987,"midi":52,"time":71.71421400000001,"velocity":0.3937007874015748},{"duration":0.2857139999999987,"midi":64,"time":71.71421400000001,"velocity":0.3937007874015748},{"duration":0.2857139999999987,"midi":61,"time":71.71421400000001,"velocity":0.3937007874015748},{"duration":0.42857099999999093,"midi":62,"time":71.99992800000001,"velocity":0.3937007874015748},{"duration":0.42857099999999093,"midi":53,"time":71.99992800000001,"velocity":0.3937007874015748},{"duration":0.42857099999999093,"midi":50,"time":71.99992800000001,"velocity":0.3937007874015748},{"duration":0.42857099999999093,"midi":57,"time":71.99992800000001,"velocity":0.3937007874015748},{"duration":0.14285699999999224,"midi":45,"time":72.57135600000001,"velocity":0.3937007874015748},{"duration":0.14285700000000645,"midi":48,"time":72.714213,"velocity":0.3937007874015748},{"duration":0.14285700000000645,"midi":41,"time":72.85707000000001,"velocity":0.3937007874015748},{"duration":0.14285700000000645,"midi":50,"time":72.85707000000001,"velocity":0.3937007874015748},{"duration":0.14285700000000645,"midi":45,"time":72.85707000000001,"velocity":0.3937007874015748},{"duration":0.14285700000000645,"midi":45,"time":73.142784,"velocity":0.3937007874015748},{"duration":0.14285700000000645,"midi":41,"time":73.142784,"velocity":0.3937007874015748},{"duration":0.14285700000000645,"midi":50,"time":73.142784,"velocity":0.3937007874015748},{"duration":0.14285699999999224,"midi":41,"time":73.428498,"velocity":0.3937007874015748},{"duration":0.14285699999999224,"midi":50,"time":73.428498,"velocity":0.3937007874015748},{"duration":0.14285699999999224,"midi":45,"time":73.428498,"velocity":0.3937007874015748},{"duration":0.14285700000000645,"midi":52,"time":73.571355,"velocity":0.3937007874015748},{"duration":0.14285700000000645,"midi":53,"time":73.714212,"velocity":0.3937007874015748},{"duration":0.14285700000000645,"midi":50,"time":73.714212,"velocity":0.3937007874015748},{"duration":0.14285700000000645,"midi":46,"time":73.714212,"velocity":0.3937007874015748},{"duration":0.14285700000000645,"midi":46,"time":73.999926,"velocity":0.3937007874015748},{"duration":0.14285700000000645,"midi":53,"time":73.999926,"velocity":0.3937007874015748},{"duration":0.14285700000000645,"midi":50,"time":73.999926,"velocity":0.3937007874015748},{"duration":0.14285699999999224,"midi":53,"time":74.28564000000001,"velocity":0.3937007874015748},{"duration":0.14285699999999224,"midi":50,"time":74.28564000000001,"velocity":0.3937007874015748},{"duration":0.14285699999999224,"midi":46,"time":74.28564000000001,"velocity":0.3937007874015748},{"duration":0.14285699999999224,"midi":55,"time":74.42849700000001,"velocity":0.3937007874015748},{"duration":0.14285700000000645,"midi":48,"time":74.571354,"velocity":0.3937007874015748},{"duration":0.14285700000000645,"midi":45,"time":74.571354,"velocity":0.3937007874015748},{"duration":0.14285700000000645,"midi":52,"time":74.571354,"velocity":0.3937007874015748},{"duration":0.14285700000000645,"midi":52,"time":74.857068,"velocity":0.3937007874015748},{"duration":0.14285700000000645,"midi":45,"time":74.857068,"velocity":0.3937007874015748},{"duration":0.14285700000000645,"midi":48,"time":74.857068,"velocity":0.3937007874015748},{"duration":0.14285699999999224,"midi":45,"time":75.14278200000001,"velocity":0.3937007874015748},{"duration":0.14285699999999224,"midi":50,"time":75.14278200000001,"velocity":0.3937007874015748},{"duration":0.14285700000000645,"midi":48,"time":75.285639,"velocity":0.3937007874015748},{"duration":0.14285700000000645,"midi":41,"time":75.42849600000001,"velocity":0.3937007874015748},{"duration":0.14285700000000645,"midi":48,"time":75.42849600000001,"velocity":0.3937007874015748},{"duration":0.42857099999999093,"midi":50,"time":75.57135300000002,"velocity":0.3937007874015748},{"duration":0.42857099999999093,"midi":45,"time":75.57135300000002,"velocity":0.3937007874015748},{"duration":0.42857099999999093,"midi":41,"time":75.57135300000002,"velocity":0.3937007874015748},{"duration":0.14285699999999224,"midi":45,"time":75.99992400000001,"velocity":0.3937007874015748},{"duration":0.14285700000000645,"midi":48,"time":76.142781,"velocity":0.3937007874015748},{"duration":0.14285700000000645,"midi":41,"time":76.285638,"velocity":0.3937007874015748},{"duration":0.14285700000000645,"midi":50,"time":76.285638,"velocity":0.3937007874015748},{"duration":0.14285700000000645,"midi":46,"time":76.285638,"velocity":0.3937007874015748},{"duration":0.14285700000000645,"midi":46,"time":76.571352,"velocity":0.3937007874015748},{"duration":0.14285700000000645,"midi":41,"time":76.571352,"velocity":0.3937007874015748},{"duration":0.14285700000000645,"midi":50,"time":76.571352,"velocity":0.3937007874015748},{"duration":0.14285699999997803,"midi":50,"time":76.85706600000002,"velocity":0.3937007874015748},{"duration":0.14285699999997803,"midi":46,"time":76.85706600000002,"velocity":0.3937007874015748},{"duration":0.14285699999997803,"midi":41,"time":76.85706600000002,"velocity":0.3937007874015748},{"duration":0.14285700000000645,"midi":52,"time":76.999923,"velocity":0.3937007874015748},{"duration":0.14285700000000645,"midi":45,"time":77.14278,"velocity":0.3937007874015748},{"duration":0.14285700000000645,"midi":48,"time":77.14278,"velocity":0.3937007874015748},{"duration":0.14285700000000645,"midi":53,"time":77.14278,"velocity":0.3937007874015748},{"duration":0.14285700000000645,"midi":48,"time":77.428494,"velocity":0.3937007874015748},{"duration":0.14285700000000645,"midi":53,"time":77.428494,"velocity":0.3937007874015748},{"duration":0.14285700000000645,"midi":45,"time":77.428494,"velocity":0.3937007874015748},{"duration":0.14285699999999224,"midi":53,"time":77.71420800000001,"velocity":0.3937007874015748},{"duration":0.14285699999999224,"midi":48,"time":77.71420800000001,"velocity":0.3937007874015748},{"duration":0.14285699999999224,"midi":45,"time":77.71420800000001,"velocity":0.3937007874015748},{"duration":0.14285700000000645,"midi":55,"time":77.857065,"velocity":0.3937007874015748},{"duration":0.14285699999999224,"midi":52,"time":77.99992200000001,"velocity":0.3937007874015748},{"duration":0.14285699999999224,"midi":48,"time":77.99992200000001,"velocity":0.3937007874015748},{"duration":0.14285699999999224,"midi":45,"time":77.99992200000001,"velocity":0.3937007874015748},{"duration":0.14285700000000645,"midi":48,"time":78.285636,"velocity":0.3937007874015748},{"duration":0.14285700000000645,"midi":52,"time":78.285636,"velocity":0.3937007874015748},{"duration":0.14285700000000645,"midi":45,"time":78.285636,"velocity":0.3937007874015748},{"duration":0.14285699999999224,"midi":45,"time":78.57135000000001,"velocity":0.3937007874015748},{"duration":0.14285699999999224,"midi":50,"time":78.57135000000001,"velocity":0.3937007874015748},{"duration":0.14285700000000645,"midi":48,"time":78.714207,"velocity":0.3937007874015748},{"duration":0.42857100000000514,"midi":45,"time":78.85706400000001,"velocity":0.3937007874015748},{"duration":0.42857100000000514,"midi":50,"time":78.85706400000001,"velocity":0.3937007874015748},{"duration":0.42857100000000514,"midi":41,"time":78.85706400000001,"velocity":0.3937007874015748},{"duration":0.14285699999999224,"midi":45,"time":79.428492,"velocity":0.3937007874015748},{"duration":0.14285700000000645,"midi":48,"time":79.571349,"velocity":0.3937007874015748},{"duration":0.14285700000000645,"midi":50,"time":79.714206,"velocity":0.3937007874015748},{"duration":0.14285700000000645,"midi":41,"time":79.714206,"velocity":0.3937007874015748},{"duration":0.14285700000000645,"midi":45,"time":79.714206,"velocity":0.3937007874015748},{"duration":0.14285700000000645,"midi":41,"time":79.99992,"velocity":0.3937007874015748},{"duration":0.14285700000000645,"midi":45,"time":79.99992,"velocity":0.3937007874015748},{"duration":0.14285700000000645,"midi":50,"time":79.99992,"velocity":0.3937007874015748},{"duration":0.14285699999999224,"midi":41,"time":80.28563400000002,"velocity":0.3937007874015748},{"duration":0.14285699999999224,"midi":50,"time":80.28563400000002,"velocity":0.3937007874015748},{"duration":0.14285699999999224,"midi":53,"time":80.42849100000001,"velocity":0.3937007874015748},{"duration":0.14285699999999224,"midi":41,"time":80.42849100000001,"velocity":0.3937007874015748},{"duration":0.14285700000000645,"midi":55,"time":80.571348,"velocity":0.3937007874015748},{"duration":0.14285700000000645,"midi":50,"time":80.571348,"velocity":0.3937007874015748},{"duration":0.14285700000000645,"midi":46,"time":80.571348,"velocity":0.3937007874015748},{"duration":0.14285700000000645,"midi":55,"time":80.857062,"velocity":0.3937007874015748},{"duration":0.14285700000000645,"midi":50,"time":80.857062,"velocity":0.3937007874015748},{"duration":0.14285700000000645,"midi":46,"time":80.857062,"velocity":0.3937007874015748},{"duration":0.14285699999999224,"midi":50,"time":81.14277600000001,"velocity":0.3937007874015748},{"duration":0.14285699999999224,"midi":55,"time":81.14277600000001,"velocity":0.3937007874015748},{"duration":0.14285699999999224,"midi":46,"time":81.14277600000001,"velocity":0.3937007874015748},{"duration":0.14285700000000645,"midi":57,"time":81.285633,"velocity":0.3937007874015748},{"duration":0.14285700000000645,"midi":55,"time":81.42849000000001,"velocity":0.3937007874015748},{"duration":0.14285700000000645,"midi":58,"time":81.42849000000001,"velocity":0.3937007874015748},{"duration":0.14285700000000645,"midi":50,"time":81.42849000000001,"velocity":0.3937007874015748},{"duration":0.14285699999999224,"midi":55,"time":81.71420400000001,"velocity":0.3937007874015748},{"duration":0.14285699999999224,"midi":50,"time":81.71420400000001,"velocity":0.3937007874015748},{"duration":0.14285699999999224,"midi":58,"time":81.71420400000001,"velocity":0.3937007874015748},{"duration":0.14285699999999224,"midi":57,"time":81.99991800000001,"velocity":0.3937007874015748},{"duration":0.14285699999999224,"midi":50,"time":81.99991800000001,"velocity":0.3937007874015748},{"duration":0.14285700000000645,"midi":55,"time":82.142775,"velocity":0.3937007874015748},{"duration":0.14285700000000645,"midi":50,"time":82.285632,"velocity":0.3937007874015748},{"duration":0.14285700000000645,"midi":57,"time":82.285632,"velocity":0.3937007874015748},{"duration":0.42857099999999093,"midi":50,"time":82.42848900000001,"velocity":0.3937007874015748},{"duration":0.42857099999999093,"midi":45,"time":82.42848900000001,"velocity":0.3937007874015748},{"duration":0.42857099999999093,"midi":41,"time":82.42848900000001,"velocity":0.3937007874015748},{"duration":0.14285699999999224,"midi":50,"time":82.85706,"velocity":0.3937007874015748},{"duration":0.14285700000000645,"midi":52,"time":82.999917,"velocity":0.3937007874015748},{"duration":0.14285700000000645,"midi":50,"time":83.142774,"velocity":0.3937007874015748},{"duration":0.14285700000000645,"midi":46,"time":83.142774,"velocity":0.3937007874015748},{"duration":0.14285700000000645,"midi":53,"time":83.142774,"velocity":0.3937007874015748},{"duration":0.14285700000000645,"midi":50,"time":83.428488,"velocity":0.3937007874015748},{"duration":0.14285700000000645,"midi":53,"time":83.428488,"velocity":0.3937007874015748},{"duration":0.14285700000000645,"midi":46,"time":83.428488,"velocity":0.3937007874015748},{"duration":0.14285699999999224,"midi":55,"time":83.71420200000001,"velocity":0.3937007874015748},{"duration":0.14285699999999224,"midi":46,"time":83.71420200000001,"velocity":0.3937007874015748},{"duration":0.14285699999999224,"midi":50,"time":83.71420200000001,"velocity":0.3937007874015748},{"duration":0.14285699999999224,"midi":53,"time":83.99991600000001,"velocity":0.3937007874015748},{"duration":0.14285699999999224,"midi":50,"time":83.99991600000001,"velocity":0.3937007874015748},{"duration":0.14285699999999224,"midi":57,"time":83.99991600000001,"velocity":0.3937007874015748},{"duration":0.14285699999999224,"midi":50,"time":84.57134400000001,"velocity":0.3937007874015748},{"duration":0.14285700000000645,"midi":53,"time":84.714201,"velocity":0.3937007874015748},{"duration":0.14285700000000645,"midi":49,"time":84.85705800000001,"velocity":0.3937007874015748},{"duration":0.14285700000000645,"midi":52,"time":84.85705800000001,"velocity":0.3937007874015748},{"duration":0.14285700000000645,"midi":45,"time":84.85705800000001,"velocity":0.3937007874015748},{"duration":0.14285699999999224,"midi":49,"time":85.14277200000001,"velocity":0.3937007874015748},{"duration":0.14285699999999224,"midi":45,"time":85.14277200000001,"velocity":0.3937007874015748},{"duration":0.14285699999999224,"midi":52,"time":85.14277200000001,"velocity":0.3937007874015748},{"duration":0.14285699999999224,"midi":53,"time":85.428486,"velocity":0.3937007874015748},{"duration":0.14285700000000645,"midi":50,"time":85.571343,"velocity":0.3937007874015748},{"duration":0.42857100000000514,"midi":52,"time":85.7142,"velocity":0.3937007874015748},{"duration":0.42857100000000514,"midi":45,"time":85.7142,"velocity":0.3937007874015748},{"duration":0.42857100000000514,"midi":49,"time":85.7142,"velocity":0.3937007874015748},{"duration":0.14285699999999224,"midi":57,"time":86.28562800000002,"velocity":0.3937007874015748},{"duration":0.14285699999999224,"midi":60,"time":86.42848500000001,"velocity":0.3937007874015748},{"duration":0.14285700000000645,"midi":62,"time":86.571342,"velocity":0.3937007874015748},{"duration":0.14285700000000645,"midi":57,"time":86.571342,"velocity":0.3937007874015748},{"duration":0.14285700000000645,"midi":53,"time":86.571342,"velocity":0.3937007874015748},{"duration":0.14285700000000645,"midi":57,"time":86.857056,"velocity":0.3937007874015748},{"duration":0.14285700000000645,"midi":53,"time":86.857056,"velocity":0.3937007874015748},{"duration":0.14285700000000645,"midi":62,"time":86.857056,"velocity":0.3937007874015748},{"duration":0.14285699999999224,"midi":62,"time":87.14277000000001,"velocity":0.3937007874015748},{"duration":0.14285699999999224,"midi":57,"time":87.14277000000001,"velocity":0.3937007874015748},{"duration":0.14285699999999224,"midi":53,"time":87.14277000000001,"velocity":0.3937007874015748},{"duration":0.14285700000000645,"midi":64,"time":87.285627,"velocity":0.3937007874015748},{"duration":0.14285700000000645,"midi":58,"time":87.42848400000001,"velocity":0.3937007874015748},{"duration":0.14285700000000645,"midi":65,"time":87.42848400000001,"velocity":0.3937007874015748},{"duration":0.14285700000000645,"midi":62,"time":87.42848400000001,"velocity":0.3937007874015748},{"duration":0.14285700000000645,"midi":62,"time":87.714198,"velocity":0.3937007874015748},{"duration":0.14285700000000645,"midi":65,"time":87.714198,"velocity":0.3937007874015748},{"duration":0.14285700000000645,"midi":58,"time":87.714198,"velocity":0.3937007874015748},{"duration":0.14285699999999224,"midi":62,"time":87.99991200000001,"velocity":0.3937007874015748},{"duration":0.14285699999999224,"midi":65,"time":87.99991200000001,"velocity":0.3937007874015748},{"duration":0.14285699999999224,"midi":58,"time":87.99991200000001,"velocity":0.3937007874015748},{"duration":0.14285700000000645,"midi":67,"time":88.142769,"velocity":0.3937007874015748},{"duration":0.14285700000000645,"midi":64,"time":88.28562600000001,"velocity":0.3937007874015748},{"duration":0.14285700000000645,"midi":57,"time":88.28562600000001,"velocity":0.3937007874015748},{"duration":0.14285700000000645,"midi":60,"time":88.28562600000001,"velocity":0.3937007874015748},{"duration":0.14285700000000645,"midi":64,"time":88.57134,"velocity":0.3937007874015748},{"duration":0.14285700000000645,"midi":60,"time":88.57134,"velocity":0.3937007874015748},{"duration":0.14285700000000645,"midi":57,"time":88.57134,"velocity":0.3937007874015748},{"duration":0.14285699999999224,"midi":57,"time":88.857054,"velocity":0.3937007874015748},{"duration":0.14285699999999224,"midi":62,"time":88.857054,"velocity":0.3937007874015748},{"duration":0.14285700000000645,"midi":60,"time":88.999911,"velocity":0.3937007874015748},{"duration":0.14285700000000645,"midi":53,"time":89.142768,"velocity":0.3937007874015748},{"duration":0.14285700000000645,"midi":60,"time":89.142768,"velocity":0.3937007874015748},{"duration":0.42857100000000514,"midi":53,"time":89.28562500000001,"velocity":0.3937007874015748},{"duration":0.42857100000000514,"midi":62,"time":89.28562500000001,"velocity":0.3937007874015748},{"duration":0.42857100000000514,"midi":57,"time":89.28562500000001,"velocity":0.3937007874015748},{"duration":0.14285699999999224,"midi":57,"time":89.71419600000002,"velocity":0.3937007874015748},{"duration":0.14285700000000645,"midi":60,"time":89.85705300000001,"velocity":0.3937007874015748},{"duration":0.14285699999999224,"midi":62,"time":89.99991000000001,"velocity":0.3937007874015748},{"duration":0.14285699999999224,"midi":58,"time":89.99991000000001,"velocity":0.3937007874015748},{"duration":0.14285699999999224,"midi":53,"time":89.99991000000001,"velocity":0.3937007874015748},{"duration":0.14285700000000645,"midi":58,"time":90.285624,"velocity":0.3937007874015748},{"duration":0.14285700000000645,"midi":62,"time":90.285624,"velocity":0.3937007874015748},{"duration":0.14285700000000645,"midi":53,"time":90.285624,"velocity":0.3937007874015748},{"duration":0.14285699999999224,"midi":53,"time":90.57133800000001,"velocity":0.3937007874015748},{"duration":0.14285699999999224,"midi":62,"time":90.57133800000001,"velocity":0.3937007874015748},{"duration":0.14285699999999224,"midi":58,"time":90.57133800000001,"velocity":0.3937007874015748},{"duration":0.14285700000000645,"midi":64,"time":90.714195,"velocity":0.3937007874015748},{"duration":0.14285700000000645,"midi":60,"time":90.85705200000001,"velocity":0.3937007874015748},{"duration":0.14285700000000645,"midi":65,"time":90.85705200000001,"velocity":0.3937007874015748},{"duration":0.14285700000000645,"midi":57,"time":90.85705200000001,"velocity":0.3937007874015748},{"duration":0.14285699999999224,"midi":57,"time":91.14276600000001,"velocity":0.3937007874015748},{"duration":0.14285699999999224,"midi":60,"time":91.14276600000001,"velocity":0.3937007874015748},{"duration":0.14285699999999224,"midi":65,"time":91.14276600000001,"velocity":0.3937007874015748},{"duration":0.14285699999999224,"midi":65,"time":91.42848000000001,"velocity":0.3937007874015748},{"duration":0.14285699999999224,"midi":60,"time":91.42848000000001,"velocity":0.3937007874015748},{"duration":0.14285699999999224,"midi":57,"time":91.42848000000001,"velocity":0.3937007874015748},{"duration":0.14285700000000645,"midi":67,"time":91.571337,"velocity":0.3937007874015748},{"duration":0.14285700000000645,"midi":64,"time":91.714194,"velocity":0.3937007874015748},{"duration":0.14285700000000645,"midi":60,"time":91.714194,"velocity":0.3937007874015748},{"duration":0.14285700000000645,"midi":57,"time":91.714194,"velocity":0.3937007874015748},{"duration":0.14285700000000645,"midi":57,"time":91.999908,"velocity":0.3937007874015748},{"duration":0.14285700000000645,"midi":60,"time":91.999908,"velocity":0.3937007874015748},{"duration":0.14285700000000645,"midi":64,"time":91.999908,"velocity":0.3937007874015748},{"duration":0.14285699999999224,"midi":57,"time":92.28562200000002,"velocity":0.3937007874015748},{"duration":0.14285699999999224,"midi":62,"time":92.28562200000002,"velocity":0.3937007874015748},{"duration":0.14285699999999224,"midi":60,"time":92.42847900000001,"velocity":0.3937007874015748},{"duration":0.42857100000000514,"midi":57,"time":92.571336,"velocity":0.3937007874015748},{"duration":0.42857100000000514,"midi":53,"time":92.571336,"velocity":0.3937007874015748},{"duration":0.42857100000000514,"midi":62,"time":92.571336,"velocity":0.3937007874015748},{"duration":0.14285699999999224,"midi":57,"time":93.14276400000001,"velocity":0.3937007874015748},{"duration":0.14285700000000645,"midi":60,"time":93.285621,"velocity":0.3937007874015748},{"duration":0.14285699999999224,"midi":62,"time":93.42847800000001,"velocity":0.3937007874015748},{"duration":0.14285699999999224,"midi":57,"time":93.42847800000001,"velocity":0.3937007874015748},{"duration":0.14285699999999224,"midi":53,"time":93.42847800000001,"velocity":0.3937007874015748},{"duration":0.14285700000000645,"midi":62,"time":93.714192,"velocity":0.3937007874015748},{"duration":0.14285700000000645,"midi":53,"time":93.714192,"velocity":0.3937007874015748},{"duration":0.14285700000000645,"midi":57,"time":93.714192,"velocity":0.3937007874015748},{"duration":0.14285699999999224,"midi":53,"time":93.99990600000001,"velocity":0.3937007874015748},{"duration":0.14285699999999224,"midi":62,"time":93.99990600000001,"velocity":0.3937007874015748},{"duration":0.14285700000000645,"midi":65,"time":94.142763,"velocity":0.3937007874015748},{"duration":0.14285700000000645,"midi":53,"time":94.142763,"velocity":0.3937007874015748},{"duration":0.14285700000000645,"midi":58,"time":94.28562000000001,"velocity":0.3937007874015748},{"duration":0.14285700000000645,"midi":62,"time":94.28562000000001,"velocity":0.3937007874015748},{"duration":0.14285700000000645,"midi":67,"time":94.28562000000001,"velocity":0.3937007874015748},{"duration":0.14285700000000645,"midi":67,"time":94.57133400000001,"velocity":0.3937007874015748},{"duration":0.14285700000000645,"midi":62,"time":94.57133400000001,"velocity":0.3937007874015748},{"duration":0.14285700000000645,"midi":58,"time":94.57133400000001,"velocity":0.3937007874015748},{"duration":0.14285699999999224,"midi":62,"time":94.857048,"velocity":0.3937007874015748},{"duration":0.14285699999999224,"midi":67,"time":94.857048,"velocity":0.3937007874015748},{"duration":0.14285699999999224,"midi":58,"time":94.857048,"velocity":0.3937007874015748},{"duration":0.14285700000000645,"midi":69,"time":94.999905,"velocity":0.3937007874015748},{"duration":0.14285700000000645,"midi":70,"time":95.142762,"velocity":0.3937007874015748},{"duration":0.14285700000000645,"midi":67,"time":95.142762,"velocity":0.3937007874015748},{"duration":0.14285700000000645,"midi":62,"time":95.142762,"velocity":0.3937007874015748},{"duration":0.14285700000000645,"midi":62,"time":95.428476,"velocity":0.3937007874015748},{"duration":0.14285700000000645,"midi":67,"time":95.428476,"velocity":0.3937007874015748},{"duration":0.14285700000000645,"midi":70,"time":95.428476,"velocity":0.3937007874015748},{"duration":0.14285699999999224,"midi":62,"time":95.71419000000002,"velocity":0.3937007874015748},{"duration":0.14285699999999224,"midi":69,"time":95.71419000000002,"velocity":0.3937007874015748},{"duration":0.14285700000000645,"midi":67,"time":95.85704700000001,"velocity":0.3937007874015748},{"duration":0.14285699999999224,"midi":69,"time":95.99990400000002,"velocity":0.3937007874015748},{"duration":0.14285699999999224,"midi":62,"time":95.99990400000002,"velocity":0.3937007874015748},{"duration":0.42857100000000514,"midi":62,"time":96.14276100000001,"velocity":0.3937007874015748},{"duration":0.42857100000000514,"midi":57,"time":96.14276100000001,"velocity":0.3937007874015748},{"duration":0.42857100000000514,"midi":53,"time":96.14276100000001,"velocity":0.3937007874015748},{"duration":0.14285699999999224,"midi":62,"time":96.57133200000001,"velocity":0.3937007874015748},{"duration":0.14285700000000645,"midi":64,"time":96.714189,"velocity":0.3937007874015748},{"duration":0.14285700000000645,"midi":58,"time":96.85704600000001,"velocity":0.3937007874015748},{"duration":0.14285700000000645,"midi":62,"time":96.85704600000001,"velocity":0.3937007874015748},{"duration":0.14285700000000645,"midi":65,"time":96.85704600000001,"velocity":0.3937007874015748},{"duration":0.14285699999999224,"midi":58,"time":97.14276000000001,"velocity":0.3937007874015748},{"duration":0.14285699999999224,"midi":65,"time":97.14276000000001,"velocity":0.3937007874015748},{"duration":0.14285699999999224,"midi":62,"time":97.14276000000001,"velocity":0.3937007874015748},{"duration":0.14285699999999224,"midi":58,"time":97.42847400000001,"velocity":0.3937007874015748},{"duration":0.14285699999999224,"midi":67,"time":97.42847400000001,"velocity":0.3937007874015748},{"duration":0.14285699999999224,"midi":62,"time":97.42847400000001,"velocity":0.3937007874015748},{"duration":0.14285700000000645,"midi":62,"time":97.71418800000001,"velocity":0.3937007874015748},{"duration":0.14285700000000645,"midi":65,"time":97.71418800000001,"velocity":0.3937007874015748},{"duration":0.14285700000000645,"midi":69,"time":97.71418800000001,"velocity":0.3937007874015748},{"duration":0.14285699999999224,"midi":62,"time":97.85704500000001,"velocity":0.3937007874015748},{"duration":0.14285699999999224,"midi":62,"time":98.28561600000002,"velocity":0.3937007874015748},{"duration":0.14285699999999224,"midi":65,"time":98.42847300000001,"velocity":0.3937007874015748},{"duration":0.14285700000000645,"midi":57,"time":98.57133,"velocity":0.3937007874015748},{"duration":0.14285700000000645,"midi":64,"time":98.57133,"velocity":0.3937007874015748},{"duration":0.14285700000000645,"midi":61,"time":98.57133,"velocity":0.3937007874015748},{"duration":0.14285700000000645,"midi":57,"time":98.857044,"velocity":0.3937007874015748},{"duration":0.14285700000000645,"midi":64,"time":98.857044,"velocity":0.3937007874015748},{"duration":0.14285700000000645,"midi":61,"time":98.857044,"velocity":0.3937007874015748},{"duration":0.14285699999999224,"midi":62,"time":99.14275800000001,"velocity":0.3937007874015748},{"duration":0.14285700000000645,"midi":61,"time":99.285615,"velocity":0.3937007874015748},{"duration":0.2857139999999845,"midi":62,"time":99.42847200000001,"velocity":0.3937007874015748},{"duration":0.2857139999999845,"midi":57,"time":99.42847200000001,"velocity":0.3937007874015748},{"duration":0.2857140000000129,"midi":57,"time":99.714186,"velocity":0.3937007874015748},{"duration":0.2857140000000129,"midi":62,"time":99.714186,"velocity":0.3937007874015748},{"duration":0.2857139999999987,"midi":57,"time":99.99990000000001,"velocity":0.3937007874015748},{"duration":0.2857139999999987,"midi":60,"time":99.99990000000001,"velocity":0.3937007874015748},{"duration":0.2857139999999987,"midi":64,"time":99.99990000000001,"velocity":0.3937007874015748},{"duration":0.2857139999999987,"midi":62,"time":100.28561400000001,"velocity":0.3937007874015748},{"duration":0.2857139999999987,"midi":65,"time":100.28561400000001,"velocity":0.3937007874015748},{"duration":0.2857139999999987,"midi":60,"time":100.28561400000001,"velocity":0.3937007874015748},{"duration":0.14285700000000645,"midi":65,"time":100.57132800000001,"velocity":0.3937007874015748},{"duration":0.14285699999999224,"midi":65,"time":100.71418500000001,"velocity":0.3937007874015748},{"duration":0.2857139999999987,"midi":62,"time":100.857042,"velocity":0.3937007874015748},{"duration":0.2857139999999987,"midi":58,"time":100.857042,"velocity":0.3937007874015748},{"duration":0.2857139999999987,"midi":67,"time":100.857042,"velocity":0.3937007874015748},{"duration":0.5714280000000116,"midi":69,"time":101.142756,"velocity":0.3937007874015748},{"duration":0.5714280000000116,"midi":62,"time":101.142756,"velocity":0.3937007874015748},{"duration":0.5714280000000116,"midi":65,"time":101.142756,"velocity":0.3937007874015748},{"duration":0.14285699999999224,"midi":65,"time":101.71418400000002,"velocity":0.3937007874015748},{"duration":0.14285699999999224,"midi":62,"time":101.85704100000001,"velocity":0.3937007874015748},{"duration":0.8571420000000103,"midi":57,"time":101.999898,"velocity":0.3937007874015748},{"duration":0.5714279999999974,"midi":65,"time":102.85704000000001,"velocity":0.3937007874015748},{"duration":0.5714279999999974,"midi":62,"time":102.85704000000001,"velocity":0.3937007874015748},{"duration":0.5714279999999974,"midi":70,"time":102.85704000000001,"velocity":0.3937007874015748},{"duration":0.14285699999999224,"midi":65,"time":103.42846800000001,"velocity":0.3937007874015748},{"duration":0.14285700000000645,"midi":62,"time":103.571325,"velocity":0.3937007874015748},{"duration":0.8571419999999961,"midi":58,"time":103.71418200000001,"velocity":0.3937007874015748},{"duration":0.14285700000000645,"midi":64,"time":104.571324,"velocity":0.3937007874015748},{"duration":0.14285700000000645,"midi":57,"time":104.571324,"velocity":0.3937007874015748},{"duration":0.2857139999999987,"midi":64,"time":104.71418100000001,"velocity":0.3937007874015748},{"duration":0.42857100000000514,"midi":53,"time":104.99989500000001,"velocity":0.3937007874015748},{"duration":0.42857100000000514,"midi":62,"time":104.99989500000001,"velocity":0.3937007874015748},{"duration":0.42857100000000514,"midi":57,"time":104.99989500000001,"velocity":0.3937007874015748},{"duration":0.42857099999999093,"midi":65,"time":105.42846600000001,"velocity":0.3937007874015748},{"duration":0.42857099999999093,"midi":61,"time":105.42846600000001,"velocity":0.3937007874015748},{"duration":0.42857099999999093,"midi":57,"time":105.42846600000001,"velocity":0.3937007874015748},{"duration":0.14285699999999224,"midi":53,"time":105.99989400000001,"velocity":0.3937007874015748},{"duration":0.14285700000000645,"midi":55,"time":106.142751,"velocity":0.3937007874015748},{"duration":0.14285700000000645,"midi":53,"time":106.28560800000001,"velocity":0.3937007874015748},{"duration":0.14285700000000645,"midi":57,"time":106.28560800000001,"velocity":0.3937007874015748},{"duration":0.14285700000000645,"midi":50,"time":106.28560800000001,"velocity":0.3937007874015748},{"duration":0.14285700000000645,"midi":50,"time":106.57132200000001,"velocity":0.3937007874015748},{"duration":0.14285700000000645,"midi":53,"time":106.57132200000001,"velocity":0.3937007874015748},{"duration":0.14285700000000645,"midi":57,"time":106.57132200000001,"velocity":0.3937007874015748},{"duration":0.14285699999999224,"midi":57,"time":106.85703600000001,"velocity":0.3937007874015748},{"duration":0.14285699999999224,"midi":53,"time":106.85703600000001,"velocity":0.3937007874015748},{"duration":0.14285699999999224,"midi":50,"time":106.85703600000001,"velocity":0.3937007874015748},{"duration":0.14285700000000645,"midi":55,"time":107.14275,"velocity":0.3937007874015748},{"duration":0.14285700000000645,"midi":58,"time":107.14275,"velocity":0.3937007874015748},{"duration":0.14285700000000645,"midi":50,"time":107.14275,"velocity":0.3937007874015748},{"duration":0.14285699999999224,"midi":57,"time":107.28560700000001,"velocity":0.3937007874015748},{"duration":0.14285699999999224,"midi":53,"time":107.28560700000001,"velocity":0.3937007874015748},{"duration":0.14285699999999224,"midi":50,"time":107.28560700000001,"velocity":0.3937007874015748},{"duration":0.14285700000000645,"midi":48,"time":107.999892,"velocity":0.3937007874015748},{"duration":0.14285700000000645,"midi":52,"time":107.999892,"velocity":0.3937007874015748},{"duration":0.14285700000000645,"midi":55,"time":107.999892,"velocity":0.3937007874015748},{"duration":0.14285700000000645,"midi":55,"time":108.285606,"velocity":0.3937007874015748},{"duration":0.14285700000000645,"midi":48,"time":108.285606,"velocity":0.3937007874015748},{"duration":0.14285700000000645,"midi":52,"time":108.285606,"velocity":0.3937007874015748},{"duration":0.14285699999999224,"midi":52,"time":108.57132000000001,"velocity":0.3937007874015748},{"duration":0.14285699999999224,"midi":48,"time":108.57132000000001,"velocity":0.3937007874015748},{"duration":0.14285699999999224,"midi":55,"time":108.57132000000001,"velocity":0.3937007874015748},{"duration":0.14285700000000645,"midi":52,"time":108.85703400000001,"velocity":0.3937007874015748},{"duration":0.14285700000000645,"midi":48,"time":108.85703400000001,"velocity":0.3937007874015748},{"duration":0.14285700000000645,"midi":55,"time":108.85703400000001,"velocity":0.3937007874015748},{"duration":0.14285699999999224,"midi":53,"time":108.99989100000002,"velocity":0.3937007874015748},{"duration":0.14285699999999224,"midi":48,"time":108.99989100000002,"velocity":0.3937007874015748},{"duration":0.14285699999999224,"midi":57,"time":108.99989100000002,"velocity":0.3937007874015748},{"duration":0.14285699999999224,"midi":53,"time":109.71417600000001,"velocity":0.3937007874015748},{"duration":0.14285699999999224,"midi":57,"time":109.71417600000001,"velocity":0.3937007874015748},{"duration":0.14285699999999224,"midi":50,"time":109.71417600000001,"velocity":0.3937007874015748},{"duration":0.14285699999999224,"midi":57,"time":109.99989000000002,"velocity":0.3937007874015748},{"duration":0.14285699999999224,"midi":53,"time":109.99989000000002,"velocity":0.3937007874015748},{"duration":0.14285699999999224,"midi":50,"time":109.99989000000002,"velocity":0.3937007874015748},{"duration":0.14285700000000645,"midi":50,"time":110.285604,"velocity":0.3937007874015748},{"duration":0.14285700000000645,"midi":53,"time":110.285604,"velocity":0.3937007874015748},{"duration":0.14285700000000645,"midi":57,"time":110.285604,"velocity":0.3937007874015748},{"duration":0.14285699999999224,"midi":58,"time":110.571318,"velocity":0.3937007874015748},{"duration":0.14285699999999224,"midi":50,"time":110.571318,"velocity":0.3937007874015748},{"duration":0.14285699999999224,"midi":55,"time":110.571318,"velocity":0.3937007874015748},{"duration":0.14285700000002066,"midi":50,"time":110.714175,"velocity":0.3937007874015748},{"duration":0.14285700000002066,"midi":53,"time":110.714175,"velocity":0.3937007874015748},{"duration":0.14285700000002066,"midi":57,"time":110.714175,"velocity":0.3937007874015748},{"duration":0.14285699999999224,"midi":52,"time":111.42846000000002,"velocity":0.3937007874015748},{"duration":0.14285699999999224,"midi":55,"time":111.42846000000002,"velocity":0.3937007874015748},{"duration":0.14285699999999224,"midi":49,"time":111.42846000000002,"velocity":0.3937007874015748},{"duration":0.14285699999999224,"midi":49,"time":111.71417400000001,"velocity":0.3937007874015748},{"duration":0.14285699999999224,"midi":53,"time":111.71417400000001,"velocity":0.3937007874015748},{"duration":0.14285700000002066,"midi":49,"time":111.999888,"velocity":0.3937007874015748},{"duration":0.14285700000002066,"midi":52,"time":111.999888,"velocity":0.3937007874015748},{"duration":0.14285699999999224,"midi":45,"time":112.28560200000001,"velocity":0.3937007874015748},{"duration":0.14285699999999224,"midi":41,"time":112.28560200000001,"velocity":0.3937007874015748},{"duration":0.14285699999999224,"midi":50,"time":112.28560200000001,"velocity":0.3937007874015748},{"duration":0.14285700000002066,"midi":50,"time":112.85703,"velocity":0.3937007874015748},{"duration":0.14285699999999224,"midi":52,"time":112.99988700000002,"velocity":0.3937007874015748},{"duration":0.5714279999999974,"midi":50,"time":113.14274400000001,"velocity":0.3937007874015748},{"duration":0.5714279999999974,"midi":45,"time":113.14274400000001,"velocity":0.3937007874015748},{"duration":0.5714279999999974,"midi":53,"time":113.14274400000001,"velocity":0.3937007874015748},{"duration":0.14285700000000645,"midi":55,"time":113.714172,"velocity":0.3937007874015748},{"duration":0.14285699999999224,"midi":57,"time":113.85702900000001,"velocity":0.3937007874015748},{"duration":0.2857140000000129,"midi":48,"time":113.999886,"velocity":0.3937007874015748},{"duration":0.2857140000000129,"midi":55,"time":113.999886,"velocity":0.3937007874015748},{"duration":0.2857140000000129,"midi":43,"time":113.999886,"velocity":0.3937007874015748},{"duration":0.2857139999999845,"midi":53,"time":114.28560000000002,"velocity":0.3937007874015748},{"duration":0.2857139999999845,"midi":43,"time":114.28560000000002,"velocity":0.3937007874015748},{"duration":0.2857139999999845,"midi":48,"time":114.28560000000002,"velocity":0.3937007874015748},{"duration":0.2857140000000129,"midi":43,"time":114.571314,"velocity":0.3937007874015748},{"duration":0.2857140000000129,"midi":48,"time":114.571314,"velocity":0.3937007874015748},{"duration":0.2857140000000129,"midi":52,"time":114.571314,"velocity":0.3937007874015748},{"duration":0.2857139999999987,"midi":45,"time":114.85702800000001,"velocity":0.3937007874015748},{"duration":0.2857139999999987,"midi":48,"time":114.85702800000001,"velocity":0.3937007874015748},{"duration":0.2857139999999987,"midi":53,"time":114.85702800000001,"velocity":0.3937007874015748},{"duration":0.2857139999999845,"midi":48,"time":115.14274200000001,"velocity":0.3937007874015748},{"duration":0.2857139999999845,"midi":45,"time":115.14274200000001,"velocity":0.3937007874015748},{"duration":0.2857139999999845,"midi":55,"time":115.14274200000001,"velocity":0.3937007874015748},{"duration":0.2857140000000129,"midi":45,"time":115.428456,"velocity":0.3937007874015748},{"duration":0.2857140000000129,"midi":57,"time":115.428456,"velocity":0.3937007874015748},{"duration":0.2857140000000129,"midi":48,"time":115.428456,"velocity":0.3937007874015748},{"duration":0.5714279999999974,"midi":55,"time":115.71417000000001,"velocity":0.3937007874015748},{"duration":0.5714279999999974,"midi":52,"time":115.71417000000001,"velocity":0.3937007874015748},{"duration":0.5714279999999974,"midi":48,"time":115.71417000000001,"velocity":0.3937007874015748},{"duration":0.14285700000000645,"midi":53,"time":116.28559800000001,"velocity":0.3937007874015748},{"duration":0.14285699999999224,"midi":55,"time":116.42845500000001,"velocity":0.3937007874015748},{"duration":0.5714279999999974,"midi":50,"time":116.571312,"velocity":0.3937007874015748},{"duration":0.5714279999999974,"midi":57,"time":116.571312,"velocity":0.3937007874015748},{"duration":0.5714279999999974,"midi":53,"time":116.571312,"velocity":0.3937007874015748},{"duration":0.14285700000002066,"midi":55,"time":117.14274,"velocity":0.3937007874015748},{"duration":0.14285699999999224,"midi":53,"time":117.28559700000002,"velocity":0.3937007874015748},{"duration":0.2857139999999987,"midi":52,"time":117.42845400000002,"velocity":0.3937007874015748},{"duration":0.2857139999999987,"midi":49,"time":117.42845400000002,"velocity":0.3937007874015748},{"duration":0.2857139999999845,"midi":53,"time":117.71416800000002,"velocity":0.3937007874015748},{"duration":0.2857139999999845,"midi":49,"time":117.71416800000002,"velocity":0.3937007874015748},{"duration":0.2857140000000129,"midi":52,"time":117.999882,"velocity":0.3937007874015748},{"duration":0.2857140000000129,"midi":49,"time":117.999882,"velocity":0.3937007874015748},{"duration":0.2857139999999987,"midi":50,"time":118.28559600000001,"velocity":0.3937007874015748},{"duration":0.2857139999999987,"midi":41,"time":118.28559600000001,"velocity":0.3937007874015748},{"duration":0.2857139999999987,"midi":45,"time":118.28559600000001,"velocity":0.3937007874015748},{"duration":0.14285700000002066,"midi":52,"time":118.857024,"velocity":0.3937007874015748},{"duration":0.14285699999999224,"midi":48,"time":118.99988100000002,"velocity":0.3937007874015748},{"duration":0.2857140000000129,"midi":50,"time":119.14273800000001,"velocity":0.3937007874015748},{"duration":0.2857140000000129,"midi":41,"time":119.14273800000001,"velocity":0.3937007874015748},{"duration":0.2857140000000129,"midi":45,"time":119.14273800000001,"velocity":0.3937007874015748},{"duration":0.14285700000000645,"midi":62,"time":119.714166,"velocity":0.3937007874015748},{"duration":0.14285699999999224,"midi":64,"time":119.85702300000001,"velocity":0.3937007874015748},{"duration":0.5714279999999974,"midi":65,"time":119.99988,"velocity":0.3937007874015748},{"duration":0.5714279999999974,"midi":57,"time":119.99988,"velocity":0.3937007874015748},{"duration":0.5714279999999974,"midi":62,"time":119.99988,"velocity":0.3937007874015748},{"duration":0.14285700000002066,"midi":64,"time":120.571308,"velocity":0.3937007874015748},{"duration":0.14285699999999224,"midi":65,"time":120.71416500000002,"velocity":0.3937007874015748},{"duration":0.2857139999999987,"midi":60,"time":120.85702200000001,"velocity":0.3937007874015748},{"duration":0.2857139999999987,"midi":67,"time":120.85702200000001,"velocity":0.3937007874015748},{"duration":0.2857139999999987,"midi":55,"time":120.85702200000001,"velocity":0.3937007874015748},{"duration":0.2857139999999845,"midi":65,"time":121.14273600000001,"velocity":0.3937007874015748},{"duration":0.2857139999999845,"midi":55,"time":121.14273600000001,"velocity":0.3937007874015748},{"duration":0.2857139999999845,"midi":60,"time":121.14273600000001,"velocity":0.3937007874015748},{"duration":0.2857140000000129,"midi":67,"time":121.42845,"velocity":0.3937007874015748},{"duration":0.2857140000000129,"midi":55,"time":121.42845,"velocity":0.3937007874015748},{"duration":0.2857140000000129,"midi":60,"time":121.42845,"velocity":0.3937007874015748},{"duration":0.2857140000000129,"midi":69,"time":121.71416400000001,"velocity":0.3937007874015748},{"duration":0.2857140000000129,"midi":65,"time":121.71416400000001,"velocity":0.3937007874015748},{"duration":0.2857139999999845,"midi":67,"time":121.99987800000002,"velocity":0.3937007874015748},{"duration":0.2857139999999845,"midi":60,"time":121.99987800000002,"velocity":0.3937007874015748},{"duration":0.2857139999999987,"midi":65,"time":122.28559200000001,"velocity":0.3937007874015748},{"duration":0.2857139999999987,"midi":60,"time":122.28559200000001,"velocity":0.3937007874015748},{"duration":0.2857140000000129,"midi":58,"time":122.571306,"velocity":0.3937007874015748},{"duration":0.2857140000000129,"midi":62,"time":122.571306,"velocity":0.3937007874015748},{"duration":0.2857140000000129,"midi":53,"time":122.571306,"velocity":0.3937007874015748},{"duration":0.14285700000002066,"midi":62,"time":123.142734,"velocity":0.3937007874015748},{"duration":0.14285699999997803,"midi":64,"time":123.28559100000003,"velocity":0.3937007874015748},{"duration":0.2857140000000129,"midi":57,"time":123.428448,"velocity":0.3937007874015748},{"duration":0.2857140000000129,"midi":65,"time":123.428448,"velocity":0.3937007874015748},{"duration":0.2857140000000129,"midi":62,"time":123.428448,"velocity":0.3937007874015748},{"duration":0.2857139999999845,"midi":57,"time":123.71416200000002,"velocity":0.3937007874015748},{"duration":0.2857139999999845,"midi":62,"time":123.71416200000002,"velocity":0.3937007874015748},{"duration":0.2857139999999845,"midi":67,"time":123.71416200000002,"velocity":0.3937007874015748},{"duration":0.2857140000000129,"midi":62,"time":123.999876,"velocity":0.3937007874015748},{"duration":0.2857140000000129,"midi":69,"time":123.999876,"velocity":0.3937007874015748},{"duration":0.2857139999999987,"midi":62,"time":124.28559000000001,"velocity":0.3937007874015748},{"duration":0.2857139999999987,"midi":58,"time":124.28559000000001,"velocity":0.3937007874015748},{"duration":0.2857139999999987,"midi":70,"time":124.28559000000001,"velocity":0.3937007874015748},{"duration":0.2857139999999845,"midi":58,"time":124.57130400000001,"velocity":0.3937007874015748},{"duration":0.2857139999999845,"midi":62,"time":124.57130400000001,"velocity":0.3937007874015748},{"duration":0.2857140000000129,"midi":62,"time":124.857018,"velocity":0.3937007874015748},{"duration":0.2857140000000129,"midi":67,"time":124.857018,"velocity":0.3937007874015748},{"duration":0.2857140000000129,"midi":65,"time":125.14273200000001,"velocity":0.3937007874015748},{"duration":0.2857140000000129,"midi":57,"time":125.14273200000001,"velocity":0.3937007874015748},{"duration":0.14285700000000645,"midi":67,"time":125.71416,"velocity":0.3937007874015748},{"duration":0.14285699999999224,"midi":64,"time":125.85701700000001,"velocity":0.3937007874015748},{"duration":0.2857140000000129,"midi":62,"time":125.999874,"velocity":0.3937007874015748},{"duration":0.2857140000000129,"midi":57,"time":125.999874,"velocity":0.3937007874015748},{"duration":0.14285700000002066,"midi":64,"time":126.571302,"velocity":0.3937007874015748},{"duration":0.14285699999999224,"midi":61,"time":126.71415900000002,"velocity":0.3937007874015748},{"duration":0.14285699999999224,"midi":62,"time":126.85701600000002,"velocity":0.3937007874015748},{"duration":0.14285699999999224,"midi":50,"time":126.85701600000002,"velocity":0.3937007874015748},{"duration":0.14285700000000645,"midi":48,"time":126.99987300000001,"velocity":0.3937007874015748},{"duration":0.14285700000000645,"midi":60,"time":126.99987300000001,"velocity":0.3937007874015748},{"duration":0.14285699999999224,"midi":50,"time":127.14273000000001,"velocity":0.3937007874015748},{"duration":0.14285699999999224,"midi":62,"time":127.14273000000001,"velocity":0.3937007874015748},{"duration":0.14285699999999224,"midi":64,"time":127.285587,"velocity":0.3937007874015748},{"duration":0.14285699999999224,"midi":52,"time":127.285587,"velocity":0.3937007874015748},{"duration":0.14285700000002066,"midi":50,"time":127.428444,"velocity":0.3937007874015748},{"duration":0.14285700000002066,"midi":62,"time":127.428444,"velocity":0.3937007874015748},{"duration":0.14285699999999224,"midi":64,"time":127.57130100000002,"velocity":0.3937007874015748},{"duration":0.14285699999999224,"midi":52,"time":127.57130100000002,"velocity":0.3937007874015748},{"duration":0.14285699999999224,"midi":65,"time":127.71415800000001,"velocity":0.3937007874015748},{"duration":0.14285699999999224,"midi":53,"time":127.71415800000001,"velocity":0.3937007874015748},{"duration":0.14285700000002066,"midi":64,"time":127.857015,"velocity":0.3937007874015748},{"duration":0.14285700000002066,"midi":52,"time":127.857015,"velocity":0.3937007874015748},{"duration":0.14285699999997803,"midi":65,"time":127.99987200000002,"velocity":0.3937007874015748},{"duration":0.14285699999997803,"midi":53,"time":127.99987200000002,"velocity":0.3937007874015748},{"duration":0.14285699999999224,"midi":55,"time":128.142729,"velocity":0.3937007874015748},{"duration":0.14285699999999224,"midi":67,"time":128.142729,"velocity":0.3937007874015748},{"duration":0.14285700000002066,"midi":65,"time":128.285586,"velocity":0.3937007874015748},{"duration":0.14285700000002066,"midi":53,"time":128.285586,"velocity":0.3937007874015748},{"duration":0.14285699999999224,"midi":67,"time":128.42844300000002,"velocity":0.3937007874015748},{"duration":0.14285699999999224,"midi":55,"time":128.42844300000002,"velocity":0.3937007874015748},{"duration":0.14285699999999224,"midi":69,"time":128.5713,"velocity":0.3937007874015748},{"duration":0.14285699999999224,"midi":57,"time":128.5713,"velocity":0.3937007874015748},{"duration":0.14285699999999224,"midi":57,"time":128.85701400000002,"velocity":0.3937007874015748},{"duration":0.14285699999999224,"midi":69,"time":128.85701400000002,"velocity":0.3937007874015748},{"duration":0.14285699999999224,"midi":57,"time":128.999871,"velocity":0.3937007874015748},{"duration":0.14285699999999224,"midi":69,"time":128.999871,"velocity":0.3937007874015748},{"duration":0.14285700000002066,"midi":57,"time":129.142728,"velocity":0.3937007874015748},{"duration":0.14285700000002066,"midi":69,"time":129.142728,"velocity":0.3937007874015748},{"duration":0.14285699999999224,"midi":69,"time":129.42844200000002,"velocity":0.3937007874015748},{"duration":0.14285699999999224,"midi":57,"time":129.42844200000002,"velocity":0.3937007874015748},{"duration":0.14285699999999224,"midi":69,"time":129.71415600000003,"velocity":0.3937007874015748},{"duration":0.14285699999999224,"midi":57,"time":129.71415600000003,"velocity":0.3937007874015748},{"duration":0.14285699999999224,"midi":70,"time":129.99987000000002,"velocity":0.3937007874015748},{"duration":0.14285699999999224,"midi":58,"time":129.99987000000002,"velocity":0.3937007874015748},{"duration":0.14285699999999224,"midi":57,"time":130.285584,"velocity":0.3937007874015748},{"duration":0.14285699999999224,"midi":69,"time":130.285584,"velocity":0.3937007874015748},{"duration":0.14285699999999224,"midi":69,"time":130.571298,"velocity":0.3937007874015748},{"duration":0.14285699999999224,"midi":57,"time":130.571298,"velocity":0.3937007874015748},{"duration":0.14285699999999224,"midi":57,"time":130.714155,"velocity":0.3937007874015748},{"duration":0.14285699999999224,"midi":69,"time":130.714155,"velocity":0.3937007874015748},{"duration":0.14285700000002066,"midi":69,"time":130.857012,"velocity":0.3937007874015748},{"duration":0.14285700000002066,"midi":57,"time":130.857012,"velocity":0.3937007874015748},{"duration":0.14285699999999224,"midi":69,"time":131.142726,"velocity":0.3937007874015748},{"duration":0.14285699999999224,"midi":57,"time":131.142726,"velocity":0.3937007874015748},{"duration":0.14285699999999224,"midi":57,"time":131.42844000000002,"velocity":0.3937007874015748},{"duration":0.14285699999999224,"midi":69,"time":131.42844000000002,"velocity":0.3937007874015748},{"duration":0.14285700000002066,"midi":72,"time":131.714154,"velocity":0.3937007874015748},{"duration":0.14285700000002066,"midi":60,"time":131.714154,"velocity":0.3937007874015748},{"duration":0.8571419999999819,"midi":69,"time":131.99986800000002,"velocity":0.3937007874015748},{"duration":0.8571419999999819,"midi":62,"time":131.99986800000002,"velocity":0.3937007874015748},{"duration":0.8571419999999819,"midi":65,"time":131.99986800000002,"velocity":0.3937007874015748},{"duration":0.8571420000000103,"midi":65,"time":132.85701,"velocity":0.3937007874015748},{"duration":0.8571420000000103,"midi":62,"time":132.85701,"velocity":0.3937007874015748},{"duration":0.8571420000000103,"midi":70,"time":132.85701,"velocity":0.3937007874015748},{"duration":0.2857140000000129,"midi":69,"time":133.714152,"velocity":0.3937007874015748},{"duration":0.2857140000000129,"midi":65,"time":133.714152,"velocity":0.3937007874015748},{"duration":0.2857140000000129,"midi":60,"time":133.714152,"velocity":0.3937007874015748},{"duration":0.2857139999999845,"midi":65,"time":133.99986600000003,"velocity":0.3937007874015748},{"duration":0.2857139999999845,"midi":60,"time":133.99986600000003,"velocity":0.3937007874015748},{"duration":0.2857139999999845,"midi":69,"time":133.99986600000003,"velocity":0.3937007874015748},{"duration":0.2857140000000129,"midi":60,"time":134.28558,"velocity":0.3937007874015748},{"duration":0.2857140000000129,"midi":65,"time":134.28558,"velocity":0.3937007874015748},{"duration":0.2857140000000129,"midi":69,"time":134.28558,"velocity":0.3937007874015748},{"duration":0.14285699999999224,"midi":69,"time":134.57129400000002,"velocity":0.3937007874015748},{"duration":0.14285699999999224,"midi":60,"time":134.57129400000002,"velocity":0.3937007874015748},{"duration":0.14285699999999224,"midi":65,"time":134.57129400000002,"velocity":0.3937007874015748},{"duration":0.2857139999999845,"midi":64,"time":134.71415100000002,"velocity":0.3937007874015748},{"duration":0.2857139999999845,"midi":67,"time":134.71415100000002,"velocity":0.3937007874015748},{"duration":0.2857139999999845,"midi":60,"time":134.71415100000002,"velocity":0.3937007874015748},{"duration":0.8571420000000103,"midi":62,"time":135.428436,"velocity":0.3937007874015748},{"duration":0.8571420000000103,"midi":67,"time":135.428436,"velocity":0.3937007874015748},{"duration":0.8571420000000103,"midi":58,"time":135.428436,"velocity":0.3937007874015748},{"duration":0.8571419999999819,"midi":57,"time":136.28557800000002,"velocity":0.3937007874015748},{"duration":0.8571419999999819,"midi":62,"time":136.28557800000002,"velocity":0.3937007874015748},{"duration":0.8571419999999819,"midi":65,"time":136.28557800000002,"velocity":0.3937007874015748},{"duration":0.2857140000000129,"midi":57,"time":137.14272,"velocity":0.3937007874015748},{"duration":0.2857140000000129,"midi":61,"time":137.14272,"velocity":0.3937007874015748},{"duration":0.2857140000000129,"midi":64,"time":137.14272,"velocity":0.3937007874015748},{"duration":0.2857139999999845,"midi":65,"time":137.428434,"velocity":0.3937007874015748},{"duration":0.2857139999999845,"midi":61,"time":137.428434,"velocity":0.3937007874015748},{"duration":0.2857139999999845,"midi":57,"time":137.428434,"velocity":0.3937007874015748},{"duration":0.2857140000000129,"midi":64,"time":137.714148,"velocity":0.3937007874015748},{"duration":0.2857140000000129,"midi":61,"time":137.714148,"velocity":0.3937007874015748},{"duration":0.2857140000000129,"midi":57,"time":137.714148,"velocity":0.3937007874015748},{"duration":0.42857100000000514,"midi":57,"time":137.999862,"velocity":0.3937007874015748},{"duration":0.14285699999999224,"midi":64,"time":137.999862,"velocity":0.3937007874015748},{"duration":0.2857140000000129,"midi":62,"time":138.142719,"velocity":0.3937007874015748},{"duration":0.14285699999999224,"midi":62,"time":138.428433,"velocity":0.3937007874015748},{"duration":0.14285699999999224,"midi":50,"time":138.428433,"velocity":0.3937007874015748},{"duration":0.14285700000002066,"midi":52,"time":138.57129,"velocity":0.3937007874015748},{"duration":0.14285700000002066,"midi":64,"time":138.57129,"velocity":0.3937007874015748},{"duration":0.14285699999999224,"midi":53,"time":138.71414700000003,"velocity":0.3937007874015748},{"duration":0.14285699999999224,"midi":65,"time":138.71414700000003,"velocity":0.3937007874015748},{"duration":0.42857100000000514,"midi":57,"time":138.85700400000002,"velocity":0.3937007874015748},{"duration":0.42857100000000514,"midi":69,"time":138.85700400000002,"velocity":0.3937007874015748},{"duration":0.42857100000000514,"midi":65,"time":138.85700400000002,"velocity":0.3937007874015748},{"duration":0.42857100000000514,"midi":62,"time":138.85700400000002,"velocity":0.3937007874015748},{"duration":0.14285699999999224,"midi":62,"time":139.28557500000002,"velocity":0.3937007874015748},{"duration":0.14285699999999224,"midi":50,"time":139.28557500000002,"velocity":0.3937007874015748},{"duration":0.14285699999999224,"midi":50,"time":139.42843200000002,"velocity":0.3937007874015748},{"duration":0.14285699999999224,"midi":52,"time":139.42843200000002,"velocity":0.3937007874015748},{"duration":0.14285699999999224,"midi":64,"time":139.42843200000002,"velocity":0.3937007874015748},{"duration":0.14285699999999224,"midi":65,"time":139.571289,"velocity":0.3937007874015748},{"duration":0.14285699999999224,"midi":53,"time":139.571289,"velocity":0.3937007874015748},{"duration":0.42857100000000514,"midi":62,"time":139.714146,"velocity":0.3937007874015748},{"duration":0.42857100000000514,"midi":65,"time":139.714146,"velocity":0.3937007874015748},{"duration":0.42857100000000514,"midi":58,"time":139.714146,"velocity":0.3937007874015748},{"duration":0.42857100000000514,"midi":70,"time":139.714146,"velocity":0.3937007874015748},{"duration":0.14285699999999224,"midi":62,"time":140.142717,"velocity":0.3937007874015748},{"duration":0.14285699999999224,"midi":50,"time":140.142717,"velocity":0.3937007874015748},{"duration":0.14285700000002066,"midi":52,"time":140.285574,"velocity":0.3937007874015748},{"duration":0.14285700000002066,"midi":64,"time":140.285574,"velocity":0.3937007874015748},{"duration":0.14285699999999224,"midi":65,"time":140.42843100000002,"velocity":0.3937007874015748},{"duration":0.14285699999999224,"midi":53,"time":140.42843100000002,"velocity":0.3937007874015748},{"duration":0.2857140000000129,"midi":60,"time":140.571288,"velocity":0.3937007874015748},{"duration":0.2857140000000129,"midi":69,"time":140.571288,"velocity":0.3937007874015748},{"duration":0.2857140000000129,"midi":57,"time":140.571288,"velocity":0.3937007874015748},{"duration":0.2857140000000129,"midi":65,"time":140.571288,"velocity":0.3937007874015748},{"duration":0.2857139999999845,"midi":65,"time":140.85700200000002,"velocity":0.3937007874015748},{"duration":0.2857139999999845,"midi":60,"time":140.85700200000002,"velocity":0.3937007874015748},{"duration":0.2857139999999845,"midi":57,"time":140.85700200000002,"velocity":0.3937007874015748},{"duration":0.2857139999999845,"midi":69,"time":140.85700200000002,"velocity":0.3937007874015748},{"duration":0.2857140000000129,"midi":65,"time":141.142716,"velocity":0.3937007874015748},{"duration":0.2857140000000129,"midi":69,"time":141.142716,"velocity":0.3937007874015748},{"duration":0.2857140000000129,"midi":60,"time":141.142716,"velocity":0.3937007874015748},{"duration":0.2857140000000129,"midi":72,"time":141.142716,"velocity":0.3937007874015748},{"duration":0.14285699999999224,"midi":57,"time":141.42843000000002,"velocity":0.3937007874015748},{"duration":0.14285699999999224,"midi":60,"time":141.42843000000002,"velocity":0.3937007874015748},{"duration":0.14285699999999224,"midi":69,"time":141.42843000000002,"velocity":0.3937007874015748},{"duration":0.14285699999999224,"midi":65,"time":141.42843000000002,"velocity":0.3937007874015748},{"duration":0.14285700000002066,"midi":67,"time":141.571287,"velocity":0.3937007874015748},{"duration":0.14285700000002066,"midi":55,"time":141.571287,"velocity":0.3937007874015748},{"duration":0.8571420000000103,"midi":62,"time":142.285572,"velocity":0.3937007874015748},{"duration":0.8571420000000103,"midi":67,"time":142.285572,"velocity":0.3937007874015748},{"duration":0.8571420000000103,"midi":55,"time":142.285572,"velocity":0.3937007874015748},{"duration":0.8571420000000103,"midi":58,"time":142.285572,"velocity":0.3937007874015748},{"duration":0.8571420000000103,"midi":57,"time":143.142714,"velocity":0.3937007874015748},{"duration":0.8571420000000103,"midi":62,"time":143.142714,"velocity":0.3937007874015748},{"duration":0.8571420000000103,"midi":53,"time":143.142714,"velocity":0.3937007874015748},{"duration":0.8571420000000103,"midi":65,"time":143.142714,"velocity":0.3937007874015748},{"duration":0.2857139999999845,"midi":57,"time":143.99985600000002,"velocity":0.3937007874015748},{"duration":0.2857139999999845,"midi":52,"time":143.99985600000002,"velocity":0.3937007874015748},{"duration":0.2857139999999845,"midi":64,"time":143.99985600000002,"velocity":0.3937007874015748},{"duration":0.2857139999999845,"midi":61,"time":143.99985600000002,"velocity":0.3937007874015748},{"duration":0.2857139999999845,"midi":57,"time":144.28557,"velocity":0.3937007874015748},{"duration":0.2857139999999845,"midi":65,"time":144.28557,"velocity":0.3937007874015748},{"duration":0.2857139999999845,"midi":53,"time":144.28557,"velocity":0.3937007874015748},{"duration":0.2857139999999845,"midi":61,"time":144.28557,"velocity":0.3937007874015748},{"duration":0.2857140000000129,"midi":64,"time":144.571284,"velocity":0.3937007874015748},{"duration":0.2857140000000129,"midi":57,"time":144.571284,"velocity":0.3937007874015748},{"duration":0.2857140000000129,"midi":61,"time":144.571284,"velocity":0.3937007874015748},{"duration":0.2857140000000129,"midi":52,"time":144.571284,"velocity":0.3937007874015748},{"duration":0.42857100000000514,"midi":62,"time":144.856998,"velocity":0.3937007874015748},{"duration":0.42857100000000514,"midi":57,"time":144.856998,"velocity":0.3937007874015748},{"duration":0.42857100000000514,"midi":53,"time":144.856998,"velocity":0.3937007874015748},{"duration":0.42857100000000514,"midi":50,"time":144.856998,"velocity":0.3937007874015748},{"duration":1.7142839999999921,"midi":50,"time":145.71414000000001,"velocity":0.3937007874015748}]},{"instrument":{"family":"piano","number":0,"name":"acoustic grand piano"},"notes":[{"duration":0.8571419999999996,"midi":50,"time":3.4285680000000003,"velocity":0.3937007874015748},{"duration":0.8571419999999996,"midi":38,"time":3.4285680000000003,"velocity":0.3937007874015748},{"duration":0.4285710000000007,"midi":50,"time":4.28571,"velocity":0.3937007874015748},{"duration":0.4285710000000007,"midi":38,"time":4.28571,"velocity":0.3937007874015748},{"duration":0.4285709999999998,"midi":38,"time":4.714281000000001,"velocity":0.3937007874015748},{"duration":0.4285709999999998,"midi":50,"time":4.714281000000001,"velocity":0.3937007874015748},{"duration":0.2857139999999996,"midi":50,"time":5.142852,"velocity":0.3937007874015748},{"duration":0.2857139999999996,"midi":38,"time":5.142852,"velocity":0.3937007874015748},{"duration":0.14285700000000023,"midi":50,"time":5.428566,"velocity":0.3937007874015748},{"duration":0.14285700000000023,"midi":38,"time":5.428566,"velocity":0.3937007874015748},{"duration":0.2857139999999996,"midi":38,"time":5.571423,"velocity":0.3937007874015748},{"duration":0.2857139999999996,"midi":50,"time":5.571423,"velocity":0.3937007874015748},{"duration":0.14285700000000112,"midi":48,"time":5.857137,"velocity":0.3937007874015748},{"duration":0.14285700000000112,"midi":36,"time":5.857137,"velocity":0.3937007874015748},{"duration":0.2857139999999996,"midi":34,"time":5.999994000000001,"velocity":0.3937007874015748},{"duration":0.2857139999999996,"midi":46,"time":5.999994000000001,"velocity":0.3937007874015748},{"duration":0.14285700000000023,"midi":46,"time":6.2857080000000005,"velocity":0.3937007874015748},{"duration":0.14285700000000023,"midi":34,"time":6.2857080000000005,"velocity":0.3937007874015748},{"duration":0.2857139999999996,"midi":34,"time":6.428565000000001,"velocity":0.3937007874015748},{"duration":0.2857139999999996,"midi":46,"time":6.428565000000001,"velocity":0.3937007874015748},{"duration":0.14285700000000023,"midi":34,"time":6.714279,"velocity":0.3937007874015748},{"duration":0.14285700000000023,"midi":46,"time":6.714279,"velocity":0.3937007874015748},{"duration":0.28571400000000047,"midi":33,"time":6.857136000000001,"velocity":0.3937007874015748},{"duration":0.28571400000000047,"midi":45,"time":6.857136000000001,"velocity":0.3937007874015748},{"duration":0.14285699999999935,"midi":45,"time":7.142850000000001,"velocity":0.3937007874015748},{"duration":0.14285699999999935,"midi":33,"time":7.142850000000001,"velocity":0.3937007874015748},{"duration":0.28571400000000047,"midi":33,"time":7.285707,"velocity":0.3937007874015748},{"duration":0.28571400000000047,"midi":45,"time":7.285707,"velocity":0.3937007874015748},{"duration":0.14285699999999935,"midi":45,"time":7.571421000000001,"velocity":0.3937007874015748},{"duration":0.14285699999999935,"midi":33,"time":7.571421000000001,"velocity":0.3937007874015748},{"duration":0.28571400000000136,"midi":38,"time":7.714278,"velocity":0.3937007874015748},{"duration":0.28571400000000136,"midi":50,"time":7.714278,"velocity":0.3937007874015748},{"duration":0.14285699999999846,"midi":38,"time":7.9999920000000015,"velocity":0.3937007874015748},{"duration":0.14285699999999846,"midi":50,"time":7.9999920000000015,"velocity":0.3937007874015748},{"duration":0.28571400000000047,"midi":38,"time":8.142849,"velocity":0.3937007874015748},{"duration":0.28571400000000047,"midi":45,"time":8.142849,"velocity":0.3937007874015748},{"duration":0.14285699999999935,"midi":45,"time":8.428563,"velocity":0.3937007874015748},{"duration":0.14285699999999935,"midi":38,"time":8.428563,"velocity":0.3937007874015748},{"duration":0.28571400000000224,"midi":46,"time":8.57142,"velocity":0.3937007874015748},{"duration":0.28571400000000224,"midi":34,"time":8.57142,"velocity":0.3937007874015748},{"duration":0.14285699999999935,"midi":46,"time":8.857134000000002,"velocity":0.3937007874015748},{"duration":0.14285699999999935,"midi":34,"time":8.857134000000002,"velocity":0.3937007874015748},{"duration":0.28571400000000047,"midi":34,"time":8.999991000000001,"velocity":0.3937007874015748},{"duration":0.28571400000000047,"midi":46,"time":8.999991000000001,"velocity":0.3937007874015748},{"duration":0.14285699999999935,"midi":46,"time":9.285705000000002,"velocity":0.3937007874015748},{"duration":0.14285699999999935,"midi":34,"time":9.285705000000002,"velocity":0.3937007874015748},{"duration":0.28571400000000047,"midi":29,"time":9.428562000000001,"velocity":0.3937007874015748},{"duration":0.28571400000000047,"midi":41,"time":9.428562000000001,"velocity":0.3937007874015748},{"duration":0.14285699999999935,"midi":41,"time":9.714276000000002,"velocity":0.3937007874015748},{"duration":0.14285699999999935,"midi":29,"time":9.714276000000002,"velocity":0.3937007874015748},{"duration":0.28571400000000047,"midi":29,"time":9.857133000000001,"velocity":0.3937007874015748},{"duration":0.28571400000000047,"midi":41,"time":9.857133000000001,"velocity":0.3937007874015748},{"duration":0.14285699999999935,"midi":29,"time":10.142847000000002,"velocity":0.3937007874015748},{"duration":0.14285699999999935,"midi":41,"time":10.142847000000002,"velocity":0.3937007874015748},{"duration":0.28571400000000047,"midi":48,"time":10.285704,"velocity":0.3937007874015748},{"duration":0.28571400000000047,"midi":36,"time":10.285704,"velocity":0.3937007874015748},{"duration":0.14285699999999935,"midi":36,"time":10.571418000000001,"velocity":0.3937007874015748},{"duration":0.14285699999999935,"midi":48,"time":10.571418000000001,"velocity":0.3937007874015748},{"duration":0.28571400000000047,"midi":45,"time":10.714275,"velocity":0.3937007874015748},{"duration":0.28571400000000047,"midi":33,"time":10.714275,"velocity":0.3937007874015748},{"duration":0.14285699999999935,"midi":45,"time":10.999989000000001,"velocity":0.3937007874015748},{"duration":0.14285699999999935,"midi":33,"time":10.999989000000001,"velocity":0.3937007874015748},{"duration":0.28571400000000047,"midi":50,"time":11.142846,"velocity":0.3937007874015748},{"duration":0.28571400000000047,"midi":38,"time":11.142846,"velocity":0.3937007874015748},{"duration":0.14285699999999935,"midi":50,"time":11.428560000000001,"velocity":0.3937007874015748},{"duration":0.14285699999999935,"midi":38,"time":11.428560000000001,"velocity":0.3937007874015748},{"duration":0.28571400000000047,"midi":38,"time":11.571417,"velocity":0.3937007874015748},{"duration":0.28571400000000047,"midi":45,"time":11.571417,"velocity":0.3937007874015748},{"duration":0.14285700000000112,"midi":45,"time":11.857131,"velocity":0.3937007874015748},{"duration":0.14285700000000112,"midi":38,"time":11.857131,"velocity":0.3937007874015748},{"duration":0.28571400000000047,"midi":50,"time":11.999988000000002,"velocity":0.3937007874015748},{"duration":0.28571400000000047,"midi":38,"time":11.999988000000002,"velocity":0.3937007874015748},{"duration":0.14285699999999935,"midi":38,"time":12.285702000000002,"velocity":0.3937007874015748},{"duration":0.14285699999999935,"midi":50,"time":12.285702000000002,"velocity":0.3937007874015748},{"duration":0.28571400000000047,"midi":50,"time":12.428559000000002,"velocity":0.3937007874015748},{"duration":0.28571400000000047,"midi":38,"time":12.428559000000002,"velocity":0.3937007874015748},{"duration":0.14285699999999935,"midi":50,"time":12.714273000000002,"velocity":0.3937007874015748},{"duration":0.14285699999999935,"midi":38,"time":12.714273000000002,"velocity":0.3937007874015748},{"duration":0.28571400000000047,"midi":34,"time":12.857130000000002,"velocity":0.3937007874015748},{"duration":0.28571400000000047,"midi":46,"time":12.857130000000002,"velocity":0.3937007874015748},{"duration":0.14285699999999935,"midi":34,"time":13.142844000000002,"velocity":0.3937007874015748},{"duration":0.14285699999999935,"midi":46,"time":13.142844000000002,"velocity":0.3937007874015748},{"duration":0.28571400000000047,"midi":34,"time":13.285701000000001,"velocity":0.3937007874015748},{"duration":0.28571400000000047,"midi":46,"time":13.285701000000001,"velocity":0.3937007874015748},{"duration":0.14285699999999935,"midi":46,"time":13.571415000000002,"velocity":0.3937007874015748},{"duration":0.14285699999999935,"midi":34,"time":13.571415000000002,"velocity":0.3937007874015748},{"duration":0.2857139999999987,"midi":31,"time":13.714272000000001,"velocity":0.3937007874015748},{"duration":0.2857139999999987,"midi":43,"time":13.714272000000001,"velocity":0.3937007874015748},{"duration":0.14285700000000112,"midi":31,"time":13.999986,"velocity":0.3937007874015748},{"duration":0.14285700000000112,"midi":43,"time":13.999986,"velocity":0.3937007874015748},{"duration":0.2857139999999987,"midi":31,"time":14.142843000000001,"velocity":0.3937007874015748},{"duration":0.2857139999999987,"midi":43,"time":14.142843000000001,"velocity":0.3937007874015748},{"duration":0.14285700000000112,"midi":43,"time":14.428557,"velocity":0.3937007874015748},{"duration":0.14285700000000112,"midi":31,"time":14.428557,"velocity":0.3937007874015748},{"duration":0.2857139999999987,"midi":38,"time":14.571414,"velocity":0.3937007874015748},{"duration":0.2857139999999987,"midi":50,"time":14.571414,"velocity":0.3937007874015748},{"duration":0.14285700000000112,"midi":50,"time":14.857128,"velocity":0.3937007874015748},{"duration":0.14285700000000112,"midi":38,"time":14.857128,"velocity":0.3937007874015748},{"duration":0.28571400000000047,"midi":45,"time":14.999985,"velocity":0.3937007874015748},{"duration":0.28571400000000047,"midi":38,"time":14.999985,"velocity":0.3937007874015748},{"duration":0.14285699999999935,"midi":45,"time":15.285699000000001,"velocity":0.3937007874015748},{"duration":0.14285699999999935,"midi":38,"time":15.285699000000001,"velocity":0.3937007874015748},{"duration":0.28571400000000047,"midi":46,"time":15.428556,"velocity":0.3937007874015748},{"duration":0.28571400000000047,"midi":34,"time":15.428556,"velocity":0.3937007874015748},{"duration":0.14285700000000112,"midi":34,"time":15.71427,"velocity":0.3937007874015748},{"duration":0.14285700000000112,"midi":46,"time":15.71427,"velocity":0.3937007874015748},{"duration":0.2857139999999987,"midi":46,"time":15.857127000000002,"velocity":0.3937007874015748},{"duration":0.2857139999999987,"midi":34,"time":15.857127000000002,"velocity":0.3937007874015748},{"duration":0.14285699999999935,"midi":46,"time":16.142841,"velocity":0.3937007874015748},{"duration":0.14285699999999935,"midi":34,"time":16.142841,"velocity":0.3937007874015748},{"duration":0.2857139999999987,"midi":50,"time":16.285698,"velocity":0.3937007874015748},{"duration":0.2857139999999987,"midi":38,"time":16.285698,"velocity":0.3937007874015748},{"duration":0.1428570000000029,"midi":38,"time":16.571412,"velocity":0.3937007874015748},{"duration":0.1428570000000029,"midi":50,"time":16.571412,"velocity":0.3937007874015748},{"duration":0.2857139999999987,"midi":50,"time":16.714269,"velocity":0.3937007874015748},{"duration":0.2857139999999987,"midi":38,"time":16.714269,"velocity":0.3937007874015748},{"duration":0.14285699999999935,"midi":38,"time":16.999983,"velocity":0.3937007874015748},{"duration":0.14285699999999935,"midi":50,"time":16.999983,"velocity":0.3937007874015748},{"duration":0.28571400000000224,"midi":33,"time":17.14284,"velocity":0.3937007874015748},{"duration":0.28571400000000224,"midi":45,"time":17.14284,"velocity":0.3937007874015748},{"duration":0.14285699999999935,"midi":45,"time":17.428554000000002,"velocity":0.3937007874015748},{"duration":0.14285699999999935,"midi":33,"time":17.428554000000002,"velocity":0.3937007874015748},{"duration":0.2857139999999987,"midi":45,"time":17.571411,"velocity":0.3937007874015748},{"duration":0.2857139999999987,"midi":33,"time":17.571411,"velocity":0.3937007874015748},{"duration":0.1428570000000029,"midi":45,"time":17.857125,"velocity":0.3937007874015748},{"duration":0.1428570000000029,"midi":33,"time":17.857125,"velocity":0.3937007874015748},{"duration":0.2857139999999987,"midi":45,"time":17.999982000000003,"velocity":0.3937007874015748},{"duration":0.2857139999999987,"midi":33,"time":17.999982000000003,"velocity":0.3937007874015748},{"duration":0.14285699999999935,"midi":33,"time":18.285696,"velocity":0.3937007874015748},{"duration":0.14285699999999935,"midi":45,"time":18.285696,"velocity":0.3937007874015748},{"duration":0.2857139999999987,"midi":33,"time":18.428553,"velocity":0.3937007874015748},{"duration":0.2857139999999987,"midi":45,"time":18.428553,"velocity":0.3937007874015748},{"duration":0.1428570000000029,"midi":33,"time":18.714267,"velocity":0.3937007874015748},{"duration":0.1428570000000029,"midi":45,"time":18.714267,"velocity":0.3937007874015748},{"duration":0.2857139999999987,"midi":38,"time":18.857124000000002,"velocity":0.3937007874015748},{"duration":0.2857139999999987,"midi":50,"time":18.857124000000002,"velocity":0.3937007874015748},{"duration":0.14285699999999935,"midi":38,"time":19.142838,"velocity":0.3937007874015748},{"duration":0.14285699999999935,"midi":50,"time":19.142838,"velocity":0.3937007874015748},{"duration":0.2857139999999987,"midi":38,"time":19.285695,"velocity":0.3937007874015748},{"duration":0.2857139999999987,"midi":50,"time":19.285695,"velocity":0.3937007874015748},{"duration":0.1428570000000029,"midi":48,"time":19.571409,"velocity":0.3937007874015748},{"duration":0.1428570000000029,"midi":36,"time":19.571409,"velocity":0.3937007874015748},{"duration":0.2857139999999987,"midi":46,"time":19.714266000000002,"velocity":0.3937007874015748},{"duration":0.2857139999999987,"midi":34,"time":19.714266000000002,"velocity":0.3937007874015748},{"duration":0.14285699999999935,"midi":34,"time":19.99998,"velocity":0.3937007874015748},{"duration":0.14285699999999935,"midi":46,"time":19.99998,"velocity":0.3937007874015748},{"duration":0.28571400000000224,"midi":46,"time":20.142837,"velocity":0.3937007874015748},{"duration":0.28571400000000224,"midi":34,"time":20.142837,"velocity":0.3937007874015748},{"duration":0.14285699999999935,"midi":34,"time":20.428551000000002,"velocity":0.3937007874015748},{"duration":0.14285699999999935,"midi":46,"time":20.428551000000002,"velocity":0.3937007874015748},{"duration":0.2857139999999987,"midi":33,"time":20.571408,"velocity":0.3937007874015748},{"duration":0.2857139999999987,"midi":45,"time":20.571408,"velocity":0.3937007874015748},{"duration":0.1428570000000029,"midi":33,"time":20.857122,"velocity":0.3937007874015748},{"duration":0.1428570000000029,"midi":45,"time":20.857122,"velocity":0.3937007874015748},{"duration":0.2857139999999987,"midi":45,"time":20.999979000000003,"velocity":0.3937007874015748},{"duration":0.2857139999999987,"midi":33,"time":20.999979000000003,"velocity":0.3937007874015748},{"duration":0.14285699999999935,"midi":33,"time":21.285693000000002,"velocity":0.3937007874015748},{"duration":0.14285699999999935,"midi":45,"time":21.285693000000002,"velocity":0.3937007874015748},{"duration":0.2857139999999987,"midi":50,"time":21.42855,"velocity":0.3937007874015748},{"duration":0.2857139999999987,"midi":38,"time":21.42855,"velocity":0.3937007874015748},{"duration":0.1428570000000029,"midi":38,"time":21.714264,"velocity":0.3937007874015748},{"duration":0.1428570000000029,"midi":50,"time":21.714264,"velocity":0.3937007874015748},{"duration":0.2857139999999987,"midi":45,"time":21.857121000000003,"velocity":0.3937007874015748},{"duration":0.2857139999999987,"midi":38,"time":21.857121000000003,"velocity":0.3937007874015748},{"duration":0.14285699999999935,"midi":45,"time":22.142835,"velocity":0.3937007874015748},{"duration":0.14285699999999935,"midi":38,"time":22.142835,"velocity":0.3937007874015748},{"duration":0.2857139999999987,"midi":34,"time":22.285692,"velocity":0.3937007874015748},{"duration":0.2857139999999987,"midi":46,"time":22.285692,"velocity":0.3937007874015748},{"duration":0.1428570000000029,"midi":46,"time":22.571406,"velocity":0.3937007874015748},{"duration":0.1428570000000029,"midi":34,"time":22.571406,"velocity":0.3937007874015748},{"duration":0.2857139999999987,"midi":34,"time":22.714263000000003,"velocity":0.3937007874015748},{"duration":0.2857139999999987,"midi":46,"time":22.714263000000003,"velocity":0.3937007874015748},{"duration":0.14285699999999935,"midi":46,"time":22.999977,"velocity":0.3937007874015748},{"duration":0.14285699999999935,"midi":34,"time":22.999977,"velocity":0.3937007874015748},{"duration":0.2857139999999987,"midi":41,"time":23.142834,"velocity":0.3937007874015748},{"duration":0.2857139999999987,"midi":29,"time":23.142834,"velocity":0.3937007874015748},{"duration":0.1428570000000029,"midi":29,"time":23.428548,"velocity":0.3937007874015748},{"duration":0.1428570000000029,"midi":41,"time":23.428548,"velocity":0.3937007874015748},{"duration":0.2857139999999987,"midi":41,"time":23.571405000000002,"velocity":0.3937007874015748},{"duration":0.2857139999999987,"midi":29,"time":23.571405000000002,"velocity":0.3937007874015748},{"duration":0.1428570000000029,"midi":41,"time":23.857119,"velocity":0.3937007874015748},{"duration":0.1428570000000029,"midi":29,"time":23.857119,"velocity":0.3937007874015748},{"duration":0.2857139999999987,"midi":36,"time":23.999976000000004,"velocity":0.3937007874015748},{"duration":0.2857139999999987,"midi":48,"time":23.999976000000004,"velocity":0.3937007874015748},{"duration":0.14285699999999935,"midi":48,"time":24.285690000000002,"velocity":0.3937007874015748},{"duration":0.14285699999999935,"midi":36,"time":24.285690000000002,"velocity":0.3937007874015748},{"duration":0.2857139999999987,"midi":45,"time":24.428547000000002,"velocity":0.3937007874015748},{"duration":0.2857139999999987,"midi":33,"time":24.428547000000002,"velocity":0.3937007874015748},{"duration":0.1428570000000029,"midi":33,"time":24.714261,"velocity":0.3937007874015748},{"duration":0.1428570000000029,"midi":45,"time":24.714261,"velocity":0.3937007874015748},{"duration":0.2857139999999987,"midi":38,"time":24.857118000000003,"velocity":0.3937007874015748},{"duration":0.2857139999999987,"midi":50,"time":24.857118000000003,"velocity":0.3937007874015748},{"duration":0.14285699999999935,"midi":38,"time":25.142832000000002,"velocity":0.3937007874015748},{"duration":0.14285699999999935,"midi":50,"time":25.142832000000002,"velocity":0.3937007874015748},{"duration":0.2857139999999987,"midi":45,"time":25.285689,"velocity":0.3937007874015748},{"duration":0.2857139999999987,"midi":38,"time":25.285689,"velocity":0.3937007874015748},{"duration":0.1428570000000029,"midi":45,"time":25.571403,"velocity":0.3937007874015748},{"duration":0.1428570000000029,"midi":38,"time":25.571403,"velocity":0.3937007874015748},{"duration":0.2857139999999987,"midi":50,"time":25.714260000000003,"velocity":0.3937007874015748},{"duration":0.2857139999999987,"midi":38,"time":25.714260000000003,"velocity":0.3937007874015748},{"duration":0.14285699999999935,"midi":50,"time":25.999974,"velocity":0.3937007874015748},{"duration":0.14285699999999935,"midi":38,"time":25.999974,"velocity":0.3937007874015748},{"duration":0.2857139999999987,"midi":38,"time":26.142831,"velocity":0.3937007874015748},{"duration":0.2857139999999987,"midi":50,"time":26.142831,"velocity":0.3937007874015748},{"duration":0.1428570000000029,"midi":38,"time":26.428545,"velocity":0.3937007874015748},{"duration":0.1428570000000029,"midi":50,"time":26.428545,"velocity":0.3937007874015748},{"duration":0.2857139999999987,"midi":46,"time":26.571402000000003,"velocity":0.3937007874015748},{"duration":0.2857139999999987,"midi":34,"time":26.571402000000003,"velocity":0.3937007874015748},{"duration":0.14285699999999935,"midi":34,"time":26.857116,"velocity":0.3937007874015748},{"duration":0.14285699999999935,"midi":46,"time":26.857116,"velocity":0.3937007874015748},{"duration":0.28571400000000224,"midi":34,"time":26.999973,"velocity":0.3937007874015748},{"duration":0.28571400000000224,"midi":46,"time":26.999973,"velocity":0.3937007874015748},{"duration":0.14285699999999935,"midi":46,"time":27.285687000000003,"velocity":0.3937007874015748},{"duration":0.14285699999999935,"midi":34,"time":27.285687000000003,"velocity":0.3937007874015748},{"duration":0.28571400000000224,"midi":43,"time":27.428544000000002,"velocity":0.3937007874015748},{"duration":0.28571400000000224,"midi":31,"time":27.428544000000002,"velocity":0.3937007874015748},{"duration":0.14285699999999935,"midi":31,"time":27.714258000000005,"velocity":0.3937007874015748},{"duration":0.14285699999999935,"midi":43,"time":27.714258000000005,"velocity":0.3937007874015748},{"duration":0.28571400000000224,"midi":31,"time":27.857115000000004,"velocity":0.3937007874015748},{"duration":0.28571400000000224,"midi":43,"time":27.857115000000004,"velocity":0.3937007874015748},{"duration":0.1428569999999958,"midi":31,"time":28.142829000000006,"velocity":0.3937007874015748},{"duration":0.1428569999999958,"midi":43,"time":28.142829000000006,"velocity":0.3937007874015748},{"duration":0.28571400000000224,"midi":38,"time":28.285686000000002,"velocity":0.3937007874015748},{"duration":0.28571400000000224,"midi":50,"time":28.285686000000002,"velocity":0.3937007874015748},{"duration":0.14285699999999935,"midi":38,"time":28.571400000000004,"velocity":0.3937007874015748},{"duration":0.14285699999999935,"midi":50,"time":28.571400000000004,"velocity":0.3937007874015748},{"duration":0.28571400000000224,"midi":45,"time":28.714257000000003,"velocity":0.3937007874015748},{"duration":0.28571400000000224,"midi":38,"time":28.714257000000003,"velocity":0.3937007874015748},{"duration":0.1428569999999958,"midi":45,"time":28.999971000000006,"velocity":0.3937007874015748},{"duration":0.1428569999999958,"midi":38,"time":28.999971000000006,"velocity":0.3937007874015748},{"duration":0.28571400000000224,"midi":46,"time":29.142828,"velocity":0.3937007874015748},{"duration":0.28571400000000224,"midi":34,"time":29.142828,"velocity":0.3937007874015748},{"duration":0.14285699999999935,"midi":46,"time":29.428542000000004,"velocity":0.3937007874015748},{"duration":0.14285699999999935,"midi":34,"time":29.428542000000004,"velocity":0.3937007874015748},{"duration":0.28571400000000224,"midi":34,"time":29.571399000000003,"velocity":0.3937007874015748},{"duration":0.28571400000000224,"midi":46,"time":29.571399000000003,"velocity":0.3937007874015748},{"duration":0.1428569999999958,"midi":34,"time":29.857113000000005,"velocity":0.3937007874015748},{"duration":0.1428569999999958,"midi":46,"time":29.857113000000005,"velocity":0.3937007874015748},{"duration":0.28571400000000224,"midi":38,"time":29.99997,"velocity":0.3937007874015748},{"duration":0.28571400000000224,"midi":50,"time":29.99997,"velocity":0.3937007874015748},{"duration":0.14285699999999935,"midi":38,"time":30.285684000000003,"velocity":0.3937007874015748},{"duration":0.14285699999999935,"midi":50,"time":30.285684000000003,"velocity":0.3937007874015748},{"duration":0.28571400000000224,"midi":50,"time":30.428541000000003,"velocity":0.3937007874015748},{"duration":0.28571400000000224,"midi":38,"time":30.428541000000003,"velocity":0.3937007874015748},{"duration":0.1428569999999958,"midi":50,"time":30.714255000000005,"velocity":0.3937007874015748},{"duration":0.1428569999999958,"midi":38,"time":30.714255000000005,"velocity":0.3937007874015748},{"duration":0.28571400000000224,"midi":33,"time":30.857112,"velocity":0.3937007874015748},{"duration":0.28571400000000224,"midi":45,"time":30.857112,"velocity":0.3937007874015748},{"duration":0.14285699999999935,"midi":45,"time":31.142826000000003,"velocity":0.3937007874015748},{"duration":0.14285699999999935,"midi":33,"time":31.142826000000003,"velocity":0.3937007874015748},{"duration":0.28571400000000224,"midi":45,"time":31.285683000000002,"velocity":0.3937007874015748},{"duration":0.28571400000000224,"midi":33,"time":31.285683000000002,"velocity":0.3937007874015748},{"duration":0.14285699999999935,"midi":33,"time":31.571397000000005,"velocity":0.3937007874015748},{"duration":0.14285699999999935,"midi":45,"time":31.571397000000005,"velocity":0.3937007874015748},{"duration":0.28571400000000224,"midi":50,"time":31.714254000000004,"velocity":0.3937007874015748},{"duration":0.28571400000000224,"midi":38,"time":31.714254000000004,"velocity":0.3937007874015748},{"duration":0.28571399999999514,"midi":38,"time":31.999968000000006,"velocity":0.3937007874015748},{"duration":0.28571399999999514,"midi":50,"time":31.999968000000006,"velocity":0.3937007874015748},{"duration":0.2857139999999987,"midi":36,"time":32.285682,"velocity":0.3937007874015748},{"duration":0.2857139999999987,"midi":48,"time":32.285682,"velocity":0.3937007874015748},{"duration":0.2857140000000058,"midi":36,"time":32.571396,"velocity":0.3937007874015748},{"duration":0.2857140000000058,"midi":48,"time":32.571396,"velocity":0.3937007874015748},{"duration":0.2857139999999916,"midi":36,"time":32.857110000000006,"velocity":0.3937007874015748},{"duration":0.2857139999999916,"midi":48,"time":32.857110000000006,"velocity":0.3937007874015748},{"duration":0.2857140000000058,"midi":46,"time":33.142824,"velocity":0.3937007874015748},{"duration":0.2857140000000058,"midi":34,"time":33.142824,"velocity":0.3937007874015748},{"duration":0.2857139999999987,"midi":33,"time":33.428538,"velocity":0.3937007874015748},{"duration":0.2857139999999987,"midi":45,"time":33.428538,"velocity":0.3937007874015748},{"duration":0.14285699999999935,"midi":33,"time":33.714252,"velocity":0.3937007874015748},{"duration":0.14285699999999935,"midi":45,"time":33.714252,"velocity":0.3937007874015748},{"duration":0.2857140000000058,"midi":33,"time":33.857109,"velocity":0.3937007874015748},{"duration":0.2857140000000058,"midi":45,"time":33.857109,"velocity":0.3937007874015748},{"duration":0.14285699999999224,"midi":33,"time":34.14282300000001,"velocity":0.3937007874015748},{"duration":0.14285699999999224,"midi":45,"time":34.14282300000001,"velocity":0.3937007874015748},{"duration":0.2857140000000058,"midi":45,"time":34.28568,"velocity":0.3937007874015748},{"duration":0.2857140000000058,"midi":33,"time":34.28568,"velocity":0.3937007874015748},{"duration":0.14285699999999935,"midi":33,"time":34.571394000000005,"velocity":0.3937007874015748},{"duration":0.14285699999999935,"midi":45,"time":34.571394000000005,"velocity":0.3937007874015748},{"duration":0.2857139999999987,"midi":45,"time":34.714251000000004,"velocity":0.3937007874015748},{"duration":0.2857139999999987,"midi":33,"time":34.714251000000004,"velocity":0.3937007874015748},{"duration":0.14285699999999935,"midi":33,"time":34.999965,"velocity":0.3937007874015748},{"duration":0.14285699999999935,"midi":45,"time":34.999965,"velocity":0.3937007874015748},{"duration":0.2857140000000058,"midi":31,"time":35.142822,"velocity":0.3937007874015748},{"duration":0.2857140000000058,"midi":43,"time":35.142822,"velocity":0.3937007874015748},{"duration":0.14285699999999224,"midi":43,"time":35.42853600000001,"velocity":0.3937007874015748},{"duration":0.14285699999999224,"midi":31,"time":35.42853600000001,"velocity":0.3937007874015748},{"duration":0.2857140000000058,"midi":43,"time":35.571393,"velocity":0.3937007874015748},{"duration":0.2857140000000058,"midi":31,"time":35.571393,"velocity":0.3937007874015748},{"duration":0.14285699999999935,"midi":43,"time":35.857107000000006,"velocity":0.3937007874015748},{"duration":0.14285699999999935,"midi":31,"time":35.857107000000006,"velocity":0.3937007874015748},{"duration":0.2857139999999987,"midi":43,"time":35.999964000000006,"velocity":0.3937007874015748},{"duration":0.2857139999999987,"midi":31,"time":35.999964000000006,"velocity":0.3937007874015748},{"duration":0.14285699999999935,"midi":31,"time":36.285678000000004,"velocity":0.3937007874015748},{"duration":0.14285699999999935,"midi":43,"time":36.285678000000004,"velocity":0.3937007874015748},{"duration":0.2857139999999987,"midi":43,"time":36.428535000000004,"velocity":0.3937007874015748},{"duration":0.2857139999999987,"midi":31,"time":36.428535000000004,"velocity":0.3937007874015748},{"duration":0.14285699999999935,"midi":31,"time":36.714249,"velocity":0.3937007874015748},{"duration":0.14285699999999935,"midi":43,"time":36.714249,"velocity":0.3937007874015748},{"duration":0.2857140000000058,"midi":45,"time":36.857106,"velocity":0.3937007874015748},{"duration":0.2857140000000058,"midi":33,"time":36.857106,"velocity":0.3937007874015748},{"duration":0.14285699999999224,"midi":33,"time":37.14282000000001,"velocity":0.3937007874015748},{"duration":0.14285699999999224,"midi":45,"time":37.14282000000001,"velocity":0.3937007874015748},{"duration":0.2857140000000058,"midi":33,"time":37.285677,"velocity":0.3937007874015748},{"duration":0.2857140000000058,"midi":45,"time":37.285677,"velocity":0.3937007874015748},{"duration":0.14285699999999935,"midi":45,"time":37.571391000000006,"velocity":0.3937007874015748},{"duration":0.14285699999999935,"midi":33,"time":37.571391000000006,"velocity":0.3937007874015748},{"duration":0.2857139999999987,"midi":45,"time":37.714248000000005,"velocity":0.3937007874015748},{"duration":0.2857139999999987,"midi":33,"time":37.714248000000005,"velocity":0.3937007874015748},{"duration":0.14285699999999935,"midi":33,"time":37.999962000000004,"velocity":0.3937007874015748},{"duration":0.14285699999999935,"midi":45,"time":37.999962000000004,"velocity":0.3937007874015748},{"duration":0.2857140000000058,"midi":45,"time":38.142819,"velocity":0.3937007874015748},{"duration":0.2857140000000058,"midi":33,"time":38.142819,"velocity":0.3937007874015748},{"duration":0.14285699999999224,"midi":33,"time":38.42853300000001,"velocity":0.3937007874015748},{"duration":0.14285699999999224,"midi":45,"time":38.42853300000001,"velocity":0.3937007874015748},{"duration":0.2857140000000058,"midi":50,"time":38.57139,"velocity":0.3937007874015748},{"duration":0.2857140000000058,"midi":38,"time":38.57139,"velocity":0.3937007874015748},{"duration":0.14285699999999935,"midi":50,"time":38.85710400000001,"velocity":0.3937007874015748},{"duration":0.14285699999999935,"midi":38,"time":38.85710400000001,"velocity":0.3937007874015748},{"duration":0.2857139999999987,"midi":38,"time":38.999961000000006,"velocity":0.3937007874015748},{"duration":0.2857139999999987,"midi":50,"time":38.999961000000006,"velocity":0.3937007874015748},{"duration":0.14285699999999935,"midi":38,"time":39.285675000000005,"velocity":0.3937007874015748},{"duration":0.14285699999999935,"midi":50,"time":39.285675000000005,"velocity":0.3937007874015748},{"duration":0.2857139999999987,"midi":38,"time":39.428532000000004,"velocity":0.3937007874015748},{"duration":0.2857139999999987,"midi":50,"time":39.428532000000004,"velocity":0.3937007874015748},{"duration":0.14285699999999935,"midi":38,"time":39.714246,"velocity":0.3937007874015748},{"duration":0.14285699999999935,"midi":50,"time":39.714246,"velocity":0.3937007874015748},{"duration":0.2857140000000058,"midi":50,"time":39.857103,"velocity":0.3937007874015748},{"duration":0.2857140000000058,"midi":38,"time":39.857103,"velocity":0.3937007874015748},{"duration":0.14285699999999224,"midi":50,"time":40.14281700000001,"velocity":0.3937007874015748},{"duration":0.14285699999999224,"midi":38,"time":40.14281700000001,"velocity":0.3937007874015748},{"duration":0.2857140000000058,"midi":48,"time":40.285674,"velocity":0.3937007874015748},{"duration":0.2857140000000058,"midi":36,"time":40.285674,"velocity":0.3937007874015748},{"duration":0.14285699999999935,"midi":48,"time":40.571388000000006,"velocity":0.3937007874015748},{"duration":0.14285699999999935,"midi":36,"time":40.571388000000006,"velocity":0.3937007874015748},{"duration":0.2857139999999987,"midi":48,"time":40.714245000000005,"velocity":0.3937007874015748},{"duration":0.2857139999999987,"midi":36,"time":40.714245000000005,"velocity":0.3937007874015748},{"duration":0.14285699999999935,"midi":36,"time":40.999959000000004,"velocity":0.3937007874015748},{"duration":0.14285699999999935,"midi":48,"time":40.999959000000004,"velocity":0.3937007874015748},{"duration":0.2857139999999987,"midi":41,"time":41.142816,"velocity":0.3937007874015748},{"duration":0.2857139999999987,"midi":53,"time":41.142816,"velocity":0.3937007874015748},{"duration":0.14285699999999935,"midi":53,"time":41.42853,"velocity":0.3937007874015748},{"duration":0.14285699999999935,"midi":41,"time":41.42853,"velocity":0.3937007874015748},{"duration":0.2857140000000058,"midi":41,"time":41.571387,"velocity":0.3937007874015748},{"duration":0.2857140000000058,"midi":53,"time":41.571387,"velocity":0.3937007874015748},{"duration":0.14285699999999935,"midi":41,"time":41.85710100000001,"velocity":0.3937007874015748},{"duration":0.14285699999999935,"midi":53,"time":41.85710100000001,"velocity":0.3937007874015748},{"duration":0.2857139999999987,"midi":50,"time":41.99995800000001,"velocity":0.3937007874015748},{"duration":0.2857139999999987,"midi":38,"time":41.99995800000001,"velocity":0.3937007874015748},{"duration":0.14285699999999935,"midi":38,"time":42.285672000000005,"velocity":0.3937007874015748},{"duration":0.14285699999999935,"midi":50,"time":42.285672000000005,"velocity":0.3937007874015748},{"duration":0.2857139999999987,"midi":50,"time":42.428529000000005,"velocity":0.3937007874015748},{"duration":0.2857139999999987,"midi":38,"time":42.428529000000005,"velocity":0.3937007874015748},{"duration":0.14285699999999935,"midi":38,"time":42.714243,"velocity":0.3937007874015748},{"duration":0.14285699999999935,"midi":50,"time":42.714243,"velocity":0.3937007874015748},{"duration":0.2857140000000058,"midi":38,"time":42.8571,"velocity":0.3937007874015748},{"duration":0.2857140000000058,"midi":50,"time":42.8571,"velocity":0.3937007874015748},{"duration":0.14285699999999224,"midi":38,"time":43.14281400000001,"velocity":0.3937007874015748},{"duration":0.14285699999999224,"midi":50,"time":43.14281400000001,"velocity":0.3937007874015748},{"duration":0.2857140000000058,"midi":50,"time":43.285671,"velocity":0.3937007874015748},{"duration":0.2857140000000058,"midi":38,"time":43.285671,"velocity":0.3937007874015748},{"duration":0.14285699999999935,"midi":38,"time":43.57138500000001,"velocity":0.3937007874015748},{"duration":0.14285699999999935,"midi":50,"time":43.57138500000001,"velocity":0.3937007874015748},{"duration":0.2857139999999987,"midi":33,"time":43.714242000000006,"velocity":0.3937007874015748},{"duration":0.2857139999999987,"midi":45,"time":43.714242000000006,"velocity":0.3937007874015748},{"duration":0.14285699999999935,"midi":33,"time":43.999956000000005,"velocity":0.3937007874015748},{"duration":0.14285699999999935,"midi":45,"time":43.999956000000005,"velocity":0.3937007874015748},{"duration":0.2857139999999987,"midi":45,"time":44.142813000000004,"velocity":0.3937007874015748},{"duration":0.2857139999999987,"midi":33,"time":44.142813000000004,"velocity":0.3937007874015748},{"duration":0.14285699999999935,"midi":45,"time":44.428527,"velocity":0.3937007874015748},{"duration":0.14285699999999935,"midi":33,"time":44.428527,"velocity":0.3937007874015748},{"duration":0.2857140000000058,"midi":50,"time":44.571384,"velocity":0.3937007874015748},{"duration":0.2857140000000058,"midi":38,"time":44.571384,"velocity":0.3937007874015748},{"duration":0.14285699999999935,"midi":38,"time":44.85709800000001,"velocity":0.3937007874015748},{"duration":0.14285699999999935,"midi":50,"time":44.85709800000001,"velocity":0.3937007874015748},{"duration":0.2857139999999987,"midi":38,"time":44.99995500000001,"velocity":0.3937007874015748},{"duration":0.2857139999999987,"midi":50,"time":44.99995500000001,"velocity":0.3937007874015748},{"duration":0.14285699999999935,"midi":38,"time":45.285669000000006,"velocity":0.3937007874015748},{"duration":0.14285699999999935,"midi":50,"time":45.285669000000006,"velocity":0.3937007874015748},{"duration":0.2857139999999987,"midi":50,"time":45.428526000000005,"velocity":0.3937007874015748},{"duration":0.2857139999999987,"midi":38,"time":45.428526000000005,"velocity":0.3937007874015748},{"duration":0.14285699999999935,"midi":50,"time":45.714240000000004,"velocity":0.3937007874015748},{"duration":0.14285699999999935,"midi":38,"time":45.714240000000004,"velocity":0.3937007874015748},{"duration":0.2857140000000058,"midi":50,"time":45.857097,"velocity":0.3937007874015748},{"duration":0.2857140000000058,"midi":38,"time":45.857097,"velocity":0.3937007874015748},{"duration":0.14285699999999224,"midi":50,"time":46.14281100000001,"velocity":0.3937007874015748},{"duration":0.14285699999999224,"midi":38,"time":46.14281100000001,"velocity":0.3937007874015748},{"duration":0.2857140000000058,"midi":36,"time":46.285668,"velocity":0.3937007874015748},{"duration":0.2857140000000058,"midi":48,"time":46.285668,"velocity":0.3937007874015748},{"duration":0.14285699999999935,"midi":36,"time":46.57138200000001,"velocity":0.3937007874015748},{"duration":0.14285699999999935,"midi":48,"time":46.57138200000001,"velocity":0.3937007874015748},{"duration":0.2857139999999987,"midi":36,"time":46.714239000000006,"velocity":0.3937007874015748},{"duration":0.2857139999999987,"midi":48,"time":46.714239000000006,"velocity":0.3937007874015748},{"duration":0.14285699999999935,"midi":48,"time":46.999953000000005,"velocity":0.3937007874015748},{"duration":0.14285699999999935,"midi":36,"time":46.999953000000005,"velocity":0.3937007874015748},{"duration":0.2857139999999987,"midi":41,"time":47.142810000000004,"velocity":0.3937007874015748},{"duration":0.2857139999999987,"midi":53,"time":47.142810000000004,"velocity":0.3937007874015748},{"duration":0.14285699999999935,"midi":53,"time":47.428524,"velocity":0.3937007874015748},{"duration":0.14285699999999935,"midi":41,"time":47.428524,"velocity":0.3937007874015748},{"duration":0.2857140000000058,"midi":53,"time":47.571381,"velocity":0.3937007874015748},{"duration":0.2857140000000058,"midi":41,"time":47.571381,"velocity":0.3937007874015748},{"duration":0.14285699999999935,"midi":41,"time":47.85709500000001,"velocity":0.3937007874015748},{"duration":0.14285699999999935,"midi":53,"time":47.85709500000001,"velocity":0.3937007874015748},{"duration":0.2857139999999987,"midi":48,"time":47.99995200000001,"velocity":0.3937007874015748},{"duration":0.2857139999999987,"midi":36,"time":47.99995200000001,"velocity":0.3937007874015748},{"duration":0.14285699999999935,"midi":48,"time":48.285666000000006,"velocity":0.3937007874015748},{"duration":0.14285699999999935,"midi":36,"time":48.285666000000006,"velocity":0.3937007874015748},{"duration":0.2857139999999987,"midi":36,"time":48.428523000000006,"velocity":0.3937007874015748},{"duration":0.2857139999999987,"midi":48,"time":48.428523000000006,"velocity":0.3937007874015748},{"duration":0.14285699999999935,"midi":36,"time":48.714237000000004,"velocity":0.3937007874015748},{"duration":0.14285699999999935,"midi":48,"time":48.714237000000004,"velocity":0.3937007874015748},{"duration":0.2857140000000058,"midi":38,"time":48.857094000000004,"velocity":0.3937007874015748},{"duration":0.2857140000000058,"midi":50,"time":48.857094000000004,"velocity":0.3937007874015748},{"duration":0.14285699999999224,"midi":50,"time":49.14280800000001,"velocity":0.3937007874015748},{"duration":0.14285699999999224,"midi":38,"time":49.14280800000001,"velocity":0.3937007874015748},{"duration":0.2857140000000058,"midi":50,"time":49.285665,"velocity":0.3937007874015748},{"duration":0.2857140000000058,"midi":38,"time":49.285665,"velocity":0.3937007874015748},{"duration":0.14285699999999935,"midi":50,"time":49.57137900000001,"velocity":0.3937007874015748},{"duration":0.14285699999999935,"midi":38,"time":49.57137900000001,"velocity":0.3937007874015748},{"duration":0.2857139999999987,"midi":33,"time":49.71423600000001,"velocity":0.3937007874015748},{"duration":0.2857139999999987,"midi":45,"time":49.71423600000001,"velocity":0.3937007874015748},{"duration":0.14285699999999935,"midi":33,"time":49.999950000000005,"velocity":0.3937007874015748},{"duration":0.14285699999999935,"midi":45,"time":49.999950000000005,"velocity":0.3937007874015748},{"duration":0.2857139999999987,"midi":45,"time":50.142807000000005,"velocity":0.3937007874015748},{"duration":0.2857139999999987,"midi":33,"time":50.142807000000005,"velocity":0.3937007874015748},{"duration":0.14285699999999935,"midi":33,"time":50.428521,"velocity":0.3937007874015748},{"duration":0.14285699999999935,"midi":45,"time":50.428521,"velocity":0.3937007874015748},{"duration":0.2857140000000058,"midi":38,"time":50.571378,"velocity":0.3937007874015748},{"duration":0.2857140000000058,"midi":50,"time":50.571378,"velocity":0.3937007874015748},{"duration":0.14285699999999224,"midi":50,"time":50.85709200000001,"velocity":0.3937007874015748},{"duration":0.14285699999999224,"midi":38,"time":50.85709200000001,"velocity":0.3937007874015748},{"duration":0.2857140000000058,"midi":38,"time":50.999949,"velocity":0.3937007874015748},{"duration":0.2857140000000058,"midi":50,"time":50.999949,"velocity":0.3937007874015748},{"duration":0.14285699999999935,"midi":38,"time":51.28566300000001,"velocity":0.3937007874015748},{"duration":0.14285699999999935,"midi":50,"time":51.28566300000001,"velocity":0.3937007874015748},{"duration":0.2857139999999987,"midi":38,"time":51.428520000000006,"velocity":0.3937007874015748},{"duration":0.2857139999999987,"midi":50,"time":51.428520000000006,"velocity":0.3937007874015748},{"duration":0.14285699999999935,"midi":50,"time":51.714234000000005,"velocity":0.3937007874015748},{"duration":0.14285699999999935,"midi":38,"time":51.714234000000005,"velocity":0.3937007874015748},{"duration":0.2857140000000058,"midi":50,"time":51.857091000000004,"velocity":0.3937007874015748},{"duration":0.2857140000000058,"midi":38,"time":51.857091000000004,"velocity":0.3937007874015748},{"duration":0.14285699999999224,"midi":38,"time":52.14280500000001,"velocity":0.3937007874015748},{"duration":0.14285699999999224,"midi":50,"time":52.14280500000001,"velocity":0.3937007874015748},{"duration":0.2857140000000058,"midi":38,"time":52.285662,"velocity":0.3937007874015748},{"duration":0.2857140000000058,"midi":50,"time":52.285662,"velocity":0.3937007874015748},{"duration":0.14285699999999935,"midi":38,"time":52.57137600000001,"velocity":0.3937007874015748},{"duration":0.14285699999999935,"midi":50,"time":52.57137600000001,"velocity":0.3937007874015748},{"duration":0.2857139999999987,"midi":50,"time":52.71423300000001,"velocity":0.3937007874015748},{"duration":0.2857139999999987,"midi":38,"time":52.71423300000001,"velocity":0.3937007874015748},{"duration":0.14285699999999935,"midi":50,"time":52.999947000000006,"velocity":0.3937007874015748},{"duration":0.14285699999999935,"midi":38,"time":52.999947000000006,"velocity":0.3937007874015748},{"duration":0.2857139999999987,"midi":48,"time":53.142804000000005,"velocity":0.3937007874015748},{"duration":0.2857139999999987,"midi":36,"time":53.142804000000005,"velocity":0.3937007874015748},{"duration":0.14285699999999935,"midi":48,"time":53.428518000000004,"velocity":0.3937007874015748},{"duration":0.14285699999999935,"midi":36,"time":53.428518000000004,"velocity":0.3937007874015748},{"duration":0.2857140000000058,"midi":48,"time":53.571375,"velocity":0.3937007874015748},{"duration":0.2857140000000058,"midi":36,"time":53.571375,"velocity":0.3937007874015748},{"duration":0.14285699999999224,"midi":36,"time":53.85708900000001,"velocity":0.3937007874015748},{"duration":0.14285699999999224,"midi":48,"time":53.85708900000001,"velocity":0.3937007874015748},{"duration":0.2857140000000058,"midi":41,"time":53.999946,"velocity":0.3937007874015748},{"duration":0.2857140000000058,"midi":53,"time":53.999946,"velocity":0.3937007874015748},{"duration":0.14285699999999935,"midi":41,"time":54.28566000000001,"velocity":0.3937007874015748},{"duration":0.14285699999999935,"midi":53,"time":54.28566000000001,"velocity":0.3937007874015748},{"duration":0.2857139999999987,"midi":41,"time":54.42851700000001,"velocity":0.3937007874015748},{"duration":0.2857139999999987,"midi":53,"time":54.42851700000001,"velocity":0.3937007874015748},{"duration":0.14285699999999935,"midi":53,"time":54.714231000000005,"velocity":0.3937007874015748},{"duration":0.14285699999999935,"midi":41,"time":54.714231000000005,"velocity":0.3937007874015748},{"duration":0.2857139999999987,"midi":46,"time":54.857088000000005,"velocity":0.3937007874015748},{"duration":0.2857139999999987,"midi":34,"time":54.857088000000005,"velocity":0.3937007874015748},{"duration":0.14285699999999935,"midi":34,"time":55.142802,"velocity":0.3937007874015748},{"duration":0.14285699999999935,"midi":46,"time":55.142802,"velocity":0.3937007874015748},{"duration":0.2857139999999987,"midi":46,"time":55.285659,"velocity":0.3937007874015748},{"duration":0.2857139999999987,"midi":34,"time":55.285659,"velocity":0.3937007874015748},{"duration":0.14285700000000645,"midi":46,"time":55.571373,"velocity":0.3937007874015748},{"duration":0.14285700000000645,"midi":34,"time":55.571373,"velocity":0.3937007874015748},{"duration":0.2857139999999916,"midi":50,"time":55.71423000000001,"velocity":0.3937007874015748},{"duration":0.2857139999999916,"midi":38,"time":55.71423000000001,"velocity":0.3937007874015748},{"duration":0.14285700000000645,"midi":38,"time":55.999944,"velocity":0.3937007874015748},{"duration":0.14285700000000645,"midi":50,"time":55.999944,"velocity":0.3937007874015748},{"duration":0.2857139999999916,"midi":50,"time":56.142801000000006,"velocity":0.3937007874015748},{"duration":0.2857139999999916,"midi":38,"time":56.142801000000006,"velocity":0.3937007874015748},{"duration":0.14285700000000645,"midi":50,"time":56.428515,"velocity":0.3937007874015748},{"duration":0.14285700000000645,"midi":38,"time":56.428515,"velocity":0.3937007874015748},{"duration":0.2857139999999987,"midi":46,"time":56.571372000000004,"velocity":0.3937007874015748},{"duration":0.2857139999999987,"midi":34,"time":56.571372000000004,"velocity":0.3937007874015748},{"duration":0.14285699999999935,"midi":46,"time":56.857086,"velocity":0.3937007874015748},{"duration":0.14285699999999935,"midi":34,"time":56.857086,"velocity":0.3937007874015748},{"duration":0.2857139999999987,"midi":34,"time":56.999943,"velocity":0.3937007874015748},{"duration":0.2857139999999987,"midi":46,"time":56.999943,"velocity":0.3937007874015748},{"duration":0.14285700000000645,"midi":46,"time":57.285657,"velocity":0.3937007874015748},{"duration":0.14285700000000645,"midi":34,"time":57.285657,"velocity":0.3937007874015748},{"duration":0.2857139999999916,"midi":33,"time":57.42851400000001,"velocity":0.3937007874015748},{"duration":0.2857139999999916,"midi":45,"time":57.42851400000001,"velocity":0.3937007874015748},{"duration":0.14285700000000645,"midi":45,"time":57.714228,"velocity":0.3937007874015748},{"duration":0.14285700000000645,"midi":33,"time":57.714228,"velocity":0.3937007874015748},{"duration":0.2857139999999987,"midi":33,"time":57.857085000000005,"velocity":0.3937007874015748},{"duration":0.2857139999999987,"midi":45,"time":57.857085000000005,"velocity":0.3937007874015748},{"duration":0.14285699999999935,"midi":45,"time":58.142799000000004,"velocity":0.3937007874015748},{"duration":0.14285699999999935,"midi":33,"time":58.142799000000004,"velocity":0.3937007874015748},{"duration":0.2857139999999987,"midi":45,"time":58.285656,"velocity":0.3937007874015748},{"duration":0.2857139999999987,"midi":33,"time":58.285656,"velocity":0.3937007874015748},{"duration":0.14285700000000645,"midi":33,"time":58.57137,"velocity":0.3937007874015748},{"duration":0.14285700000000645,"midi":45,"time":58.57137,"velocity":0.3937007874015748},{"duration":0.2857139999999916,"midi":45,"time":58.71422700000001,"velocity":0.3937007874015748},{"duration":0.2857139999999916,"midi":33,"time":58.71422700000001,"velocity":0.3937007874015748},{"duration":0.14285700000000645,"midi":45,"time":58.999941,"velocity":0.3937007874015748},{"duration":0.14285700000000645,"midi":33,"time":58.999941,"velocity":0.3937007874015748},{"duration":0.2857139999999916,"midi":38,"time":59.142798000000006,"velocity":0.3937007874015748},{"duration":0.2857139999999916,"midi":50,"time":59.142798000000006,"velocity":0.3937007874015748},{"duration":0.14285700000000645,"midi":38,"time":59.428512,"velocity":0.3937007874015748},{"duration":0.14285700000000645,"midi":50,"time":59.428512,"velocity":0.3937007874015748},{"duration":0.14285700000000645,"midi":50,"time":59.571369000000004,"velocity":0.3937007874015748},{"duration":0.14285700000000645,"midi":38,"time":59.571369000000004,"velocity":0.3937007874015748},{"duration":0.14285699999999224,"midi":38,"time":59.71422600000001,"velocity":0.3937007874015748},{"duration":0.14285699999999224,"midi":50,"time":59.71422600000001,"velocity":0.3937007874015748},{"duration":0.14285699999999935,"midi":50,"time":59.857083,"velocity":0.3937007874015748},{"duration":0.14285699999999935,"midi":38,"time":59.857083,"velocity":0.3937007874015748},{"duration":0.2857139999999987,"midi":43,"time":59.99994,"velocity":0.3937007874015748},{"duration":0.2857139999999987,"midi":31,"time":59.99994,"velocity":0.3937007874015748},{"duration":0.14285700000000645,"midi":43,"time":60.285654,"velocity":0.3937007874015748},{"duration":0.14285700000000645,"midi":31,"time":60.285654,"velocity":0.3937007874015748},{"duration":0.14285699999999935,"midi":43,"time":60.42851100000001,"velocity":0.3937007874015748},{"duration":0.14285699999999935,"midi":31,"time":60.42851100000001,"velocity":0.3937007874015748},{"duration":0.14285699999999224,"midi":31,"time":60.57136800000001,"velocity":0.3937007874015748},{"duration":0.14285699999999224,"midi":43,"time":60.57136800000001,"velocity":0.3937007874015748},{"duration":0.14285700000000645,"midi":43,"time":60.714225,"velocity":0.3937007874015748},{"duration":0.14285700000000645,"midi":31,"time":60.714225,"velocity":0.3937007874015748},{"duration":0.2857139999999987,"midi":41,"time":60.857082000000005,"velocity":0.3937007874015748},{"duration":0.2857139999999987,"midi":53,"time":60.857082000000005,"velocity":0.3937007874015748},{"duration":0.14285699999999935,"midi":53,"time":61.142796000000004,"velocity":0.3937007874015748},{"duration":0.14285699999999935,"midi":41,"time":61.142796000000004,"velocity":0.3937007874015748},{"duration":0.14285700000000645,"midi":53,"time":61.285653,"velocity":0.3937007874015748},{"duration":0.14285700000000645,"midi":41,"time":61.285653,"velocity":0.3937007874015748},{"duration":0.14285699999999224,"midi":53,"time":61.42851000000001,"velocity":0.3937007874015748},{"duration":0.14285699999999224,"midi":41,"time":61.42851000000001,"velocity":0.3937007874015748},{"duration":0.14285699999999935,"midi":41,"time":61.571367,"velocity":0.3937007874015748},{"duration":0.14285699999999935,"midi":53,"time":61.571367,"velocity":0.3937007874015748},{"duration":0.2857139999999987,"midi":36,"time":61.714224,"velocity":0.3937007874015748},{"duration":0.2857139999999987,"midi":48,"time":61.714224,"velocity":0.3937007874015748},{"duration":0.14285700000000645,"midi":48,"time":61.999938,"velocity":0.3937007874015748},{"duration":0.14285700000000645,"midi":36,"time":61.999938,"velocity":0.3937007874015748},{"duration":0.14285699999999935,"midi":48,"time":62.14279500000001,"velocity":0.3937007874015748},{"duration":0.14285699999999935,"midi":36,"time":62.14279500000001,"velocity":0.3937007874015748},{"duration":0.14285699999999224,"midi":36,"time":62.285652000000006,"velocity":0.3937007874015748},{"duration":0.14285699999999224,"midi":48,"time":62.285652000000006,"velocity":0.3937007874015748},{"duration":0.14285700000000645,"midi":48,"time":62.428509,"velocity":0.3937007874015748},{"duration":0.14285700000000645,"midi":36,"time":62.428509,"velocity":0.3937007874015748},{"duration":0.2857139999999987,"midi":43,"time":62.571366000000005,"velocity":0.3937007874015748},{"duration":0.2857139999999987,"midi":31,"time":62.571366000000005,"velocity":0.3937007874015748},{"duration":0.14285699999999935,"midi":43,"time":62.85708,"velocity":0.3937007874015748},{"duration":0.14285699999999935,"midi":31,"time":62.85708,"velocity":0.3937007874015748},{"duration":0.14285700000000645,"midi":43,"time":62.999937,"velocity":0.3937007874015748},{"duration":0.14285700000000645,"midi":31,"time":62.999937,"velocity":0.3937007874015748},{"duration":0.14285699999999224,"midi":43,"time":63.14279400000001,"velocity":0.3937007874015748},{"duration":0.14285699999999224,"midi":31,"time":63.14279400000001,"velocity":0.3937007874015748},{"duration":0.14285700000000645,"midi":31,"time":63.285651,"velocity":0.3937007874015748},{"duration":0.14285700000000645,"midi":43,"time":63.285651,"velocity":0.3937007874015748},{"duration":0.2857139999999916,"midi":33,"time":63.42850800000001,"velocity":0.3937007874015748},{"duration":0.2857139999999916,"midi":45,"time":63.42850800000001,"velocity":0.3937007874015748},{"duration":0.14285700000000645,"midi":45,"time":63.714222,"velocity":0.3937007874015748},{"duration":0.14285700000000645,"midi":33,"time":63.714222,"velocity":0.3937007874015748},{"duration":0.14285700000000645,"midi":45,"time":63.857079000000006,"velocity":0.3937007874015748},{"duration":0.14285700000000645,"midi":33,"time":63.857079000000006,"velocity":0.3937007874015748},{"duration":0.14285699999998513,"midi":33,"time":63.99993600000001,"velocity":0.3937007874015748},{"duration":0.14285699999998513,"midi":45,"time":63.99993600000001,"velocity":0.3937007874015748},{"duration":0.14285700000000645,"midi":45,"time":64.142793,"velocity":0.3937007874015748},{"duration":0.14285700000000645,"midi":33,"time":64.142793,"velocity":0.3937007874015748},{"duration":0.2857139999999987,"midi":45,"time":64.28565,"velocity":0.3937007874015748},{"duration":0.2857139999999987,"midi":33,"time":64.28565,"velocity":0.3937007874015748},{"duration":0.14285700000000645,"midi":33,"time":64.571364,"velocity":0.3937007874015748},{"duration":0.14285700000000645,"midi":45,"time":64.571364,"velocity":0.3937007874015748},{"duration":0.14285700000000645,"midi":45,"time":64.71422100000001,"velocity":0.3937007874015748},{"duration":0.14285700000000645,"midi":33,"time":64.71422100000001,"velocity":0.3937007874015748},{"duration":0.14285699999999224,"midi":45,"time":64.85707800000002,"velocity":0.3937007874015748},{"duration":0.14285699999999224,"midi":33,"time":64.85707800000002,"velocity":0.3937007874015748},{"duration":0.14285699999999224,"midi":33,"time":64.99993500000001,"velocity":0.3937007874015748},{"duration":0.14285699999999224,"midi":45,"time":64.99993500000001,"velocity":0.3937007874015748},{"duration":0.2857139999999987,"midi":38,"time":65.142792,"velocity":0.3937007874015748},{"duration":0.2857139999999987,"midi":50,"time":65.142792,"velocity":0.3937007874015748},{"duration":0.14285700000000645,"midi":38,"time":65.428506,"velocity":0.3937007874015748},{"duration":0.14285700000000645,"midi":50,"time":65.428506,"velocity":0.3937007874015748},{"duration":0.14285700000000645,"midi":38,"time":65.571363,"velocity":0.3937007874015748},{"duration":0.14285700000000645,"midi":50,"time":65.571363,"velocity":0.3937007874015748},{"duration":0.14285699999999224,"midi":50,"time":65.71422000000001,"velocity":0.3937007874015748},{"duration":0.14285699999999224,"midi":38,"time":65.71422000000001,"velocity":0.3937007874015748},{"duration":0.14285700000000645,"midi":38,"time":65.857077,"velocity":0.3937007874015748},{"duration":0.14285700000000645,"midi":50,"time":65.857077,"velocity":0.3937007874015748},{"duration":0.2857139999999845,"midi":50,"time":65.99993400000001,"velocity":0.3937007874015748},{"duration":0.2857139999999845,"midi":38,"time":65.99993400000001,"velocity":0.3937007874015748},{"duration":0.14285700000000645,"midi":38,"time":66.285648,"velocity":0.3937007874015748},{"duration":0.14285700000000645,"midi":50,"time":66.285648,"velocity":0.3937007874015748},{"duration":0.14285700000000645,"midi":38,"time":66.428505,"velocity":0.3937007874015748},{"duration":0.14285700000000645,"midi":50,"time":66.428505,"velocity":0.3937007874015748},{"duration":0.14285699999999224,"midi":50,"time":66.57136200000001,"velocity":0.3937007874015748},{"duration":0.14285699999999224,"midi":38,"time":66.57136200000001,"velocity":0.3937007874015748},{"duration":0.14285700000000645,"midi":50,"time":66.714219,"velocity":0.3937007874015748},{"duration":0.14285700000000645,"midi":38,"time":66.714219,"velocity":0.3937007874015748},{"duration":0.2857139999999987,"midi":46,"time":66.857076,"velocity":0.3937007874015748},{"duration":0.2857139999999987,"midi":34,"time":66.857076,"velocity":0.3937007874015748},{"duration":0.14285700000000645,"midi":34,"time":67.14279,"velocity":0.3937007874015748},{"duration":0.14285700000000645,"midi":46,"time":67.14279,"velocity":0.3937007874015748},{"duration":0.14285699999999224,"midi":34,"time":67.28564700000001,"velocity":0.3937007874015748},{"duration":0.14285699999999224,"midi":46,"time":67.28564700000001,"velocity":0.3937007874015748},{"duration":0.14285699999999224,"midi":46,"time":67.428504,"velocity":0.3937007874015748},{"duration":0.14285699999999224,"midi":34,"time":67.428504,"velocity":0.3937007874015748},{"duration":0.14285700000000645,"midi":34,"time":67.571361,"velocity":0.3937007874015748},{"duration":0.14285700000000645,"midi":46,"time":67.571361,"velocity":0.3937007874015748},{"duration":0.2857139999999987,"midi":41,"time":67.714218,"velocity":0.3937007874015748},{"duration":0.2857139999999987,"midi":53,"time":67.714218,"velocity":0.3937007874015748},{"duration":0.14285700000000645,"midi":41,"time":67.999932,"velocity":0.3937007874015748},{"duration":0.14285700000000645,"midi":53,"time":67.999932,"velocity":0.3937007874015748},{"duration":0.14285700000000645,"midi":53,"time":68.14278900000001,"velocity":0.3937007874015748},{"duration":0.14285700000000645,"midi":41,"time":68.14278900000001,"velocity":0.3937007874015748},{"duration":0.14285699999999224,"midi":41,"time":68.28564600000001,"velocity":0.3937007874015748},{"duration":0.14285699999999224,"midi":53,"time":68.28564600000001,"velocity":0.3937007874015748},{"duration":0.14285699999999224,"midi":41,"time":68.428503,"velocity":0.3937007874015748},{"duration":0.14285699999999224,"midi":53,"time":68.428503,"velocity":0.3937007874015748},{"duration":0.2857139999999987,"midi":36,"time":68.57136,"velocity":0.3937007874015748},{"duration":0.2857139999999987,"midi":48,"time":68.57136,"velocity":0.3937007874015748},{"duration":0.14285700000000645,"midi":36,"time":68.857074,"velocity":0.3937007874015748},{"duration":0.14285700000000645,"midi":48,"time":68.857074,"velocity":0.3937007874015748},{"duration":0.14285700000000645,"midi":48,"time":68.999931,"velocity":0.3937007874015748},{"duration":0.14285700000000645,"midi":36,"time":68.999931,"velocity":0.3937007874015748},{"duration":0.14285699999999224,"midi":36,"time":69.14278800000001,"velocity":0.3937007874015748},{"duration":0.14285699999999224,"midi":48,"time":69.14278800000001,"velocity":0.3937007874015748},{"duration":0.14285700000000645,"midi":48,"time":69.285645,"velocity":0.3937007874015748},{"duration":0.14285700000000645,"midi":36,"time":69.285645,"velocity":0.3937007874015748},{"duration":0.2857139999999987,"midi":43,"time":69.42850200000001,"velocity":0.3937007874015748},{"duration":0.2857139999999987,"midi":31,"time":69.42850200000001,"velocity":0.3937007874015748},{"duration":0.14285699999999224,"midi":43,"time":69.71421600000001,"velocity":0.3937007874015748},{"duration":0.14285699999999224,"midi":31,"time":69.71421600000001,"velocity":0.3937007874015748},{"duration":0.2857139999999987,"midi":31,"time":69.857073,"velocity":0.3937007874015748},{"duration":0.14285700000000645,"midi":43,"time":69.857073,"velocity":0.3937007874015748},{"duration":0.14285700000000645,"midi":31,"time":70.142787,"velocity":0.3937007874015748},{"duration":0.14285700000000645,"midi":43,"time":70.142787,"velocity":0.3937007874015748},{"duration":0.2857139999999987,"midi":33,"time":70.285644,"velocity":0.3937007874015748},{"duration":0.2857139999999987,"midi":45,"time":70.285644,"velocity":0.3937007874015748},{"duration":0.14285700000000645,"midi":33,"time":70.571358,"velocity":0.3937007874015748},{"duration":0.14285700000000645,"midi":45,"time":70.571358,"velocity":0.3937007874015748},{"duration":0.14285700000000645,"midi":45,"time":70.71421500000001,"velocity":0.3937007874015748},{"duration":0.2857139999999987,"midi":33,"time":70.71421500000001,"velocity":0.3937007874015748},{"duration":0.14285699999999224,"midi":45,"time":70.85707200000002,"velocity":0.3937007874015748},{"duration":0.14285699999999224,"midi":33,"time":70.99992900000001,"velocity":0.3937007874015748},{"duration":0.14285699999999224,"midi":45,"time":70.99992900000001,"velocity":0.3937007874015748},{"duration":0.2857139999999987,"midi":45,"time":71.142786,"velocity":0.3937007874015748},{"duration":0.2857139999999987,"midi":33,"time":71.142786,"velocity":0.3937007874015748},{"duration":0.14285700000000645,"midi":45,"time":71.4285,"velocity":0.3937007874015748},{"duration":0.14285700000000645,"midi":33,"time":71.4285,"velocity":0.3937007874015748},{"duration":0.14285700000000645,"midi":45,"time":71.571357,"velocity":0.3937007874015748},{"duration":0.2857139999999987,"midi":33,"time":71.571357,"velocity":0.3937007874015748},{"duration":0.14285699999999224,"midi":45,"time":71.71421400000001,"velocity":0.3937007874015748},{"duration":0.14285700000000645,"midi":45,"time":71.857071,"velocity":0.3937007874015748},{"duration":0.14285700000000645,"midi":33,"time":71.857071,"velocity":0.3937007874015748},{"duration":0.2857139999999845,"midi":50,"time":71.99992800000001,"velocity":0.3937007874015748},{"duration":0.2857139999999845,"midi":38,"time":71.99992800000001,"velocity":0.3937007874015748},{"duration":0.14285700000000645,"midi":50,"time":72.285642,"velocity":0.3937007874015748},{"duration":0.14285700000000645,"midi":38,"time":72.285642,"velocity":0.3937007874015748},{"duration":0.2857139999999987,"midi":38,"time":72.428499,"velocity":0.3937007874015748},{"duration":0.2857139999999987,"midi":50,"time":72.428499,"velocity":0.3937007874015748},{"duration":0.14285700000000645,"midi":50,"time":72.714213,"velocity":0.3937007874015748},{"duration":0.14285700000000645,"midi":38,"time":72.714213,"velocity":0.3937007874015748},{"duration":0.2857139999999987,"midi":50,"time":72.85707000000001,"velocity":0.3937007874015748},{"duration":0.2857139999999987,"midi":38,"time":72.85707000000001,"velocity":0.3937007874015748},{"duration":0.14285700000000645,"midi":50,"time":73.142784,"velocity":0.3937007874015748},{"duration":0.14285700000000645,"midi":38,"time":73.142784,"velocity":0.3937007874015748},{"duration":0.2857139999999845,"midi":38,"time":73.28564100000001,"velocity":0.3937007874015748},{"duration":0.2857139999999845,"midi":50,"time":73.28564100000001,"velocity":0.3937007874015748},{"duration":0.14285700000000645,"midi":48,"time":73.571355,"velocity":0.3937007874015748},{"duration":0.14285700000000645,"midi":36,"time":73.571355,"velocity":0.3937007874015748},{"duration":0.2857139999999987,"midi":46,"time":73.714212,"velocity":0.3937007874015748},{"duration":0.2857139999999987,"midi":34,"time":73.714212,"velocity":0.3937007874015748},{"duration":0.14285700000000645,"midi":34,"time":73.999926,"velocity":0.3937007874015748},{"duration":0.14285700000000645,"midi":46,"time":73.999926,"velocity":0.3937007874015748},{"duration":0.2857139999999987,"midi":46,"time":74.14278300000001,"velocity":0.3937007874015748},{"duration":0.2857139999999987,"midi":34,"time":74.14278300000001,"velocity":0.3937007874015748},{"duration":0.14285699999999224,"midi":34,"time":74.42849700000001,"velocity":0.3937007874015748},{"duration":0.14285699999999224,"midi":46,"time":74.42849700000001,"velocity":0.3937007874015748},{"duration":0.2857139999999987,"midi":33,"time":74.571354,"velocity":0.3937007874015748},{"duration":0.2857139999999987,"midi":45,"time":74.571354,"velocity":0.3937007874015748},{"duration":0.14285700000000645,"midi":33,"time":74.857068,"velocity":0.3937007874015748},{"duration":0.14285700000000645,"midi":45,"time":74.857068,"velocity":0.3937007874015748},{"duration":0.2857139999999987,"midi":45,"time":74.999925,"velocity":0.3937007874015748},{"duration":0.2857139999999987,"midi":33,"time":74.999925,"velocity":0.3937007874015748},{"duration":0.14285700000000645,"midi":33,"time":75.285639,"velocity":0.3937007874015748},{"duration":0.14285700000000645,"midi":45,"time":75.285639,"velocity":0.3937007874015748},{"duration":0.2857139999999987,"midi":38,"time":75.42849600000001,"velocity":0.3937007874015748},{"duration":0.2857139999999987,"midi":50,"time":75.42849600000001,"velocity":0.3937007874015748},{"duration":0.14285699999999224,"midi":38,"time":75.71421000000001,"velocity":0.3937007874015748},{"duration":0.14285699999999224,"midi":50,"time":75.71421000000001,"velocity":0.3937007874015748},{"duration":0.2857139999999987,"midi":45,"time":75.857067,"velocity":0.3937007874015748},{"duration":0.2857139999999987,"midi":38,"time":75.857067,"velocity":0.3937007874015748},{"duration":0.14285700000000645,"midi":45,"time":76.142781,"velocity":0.3937007874015748},{"duration":0.14285700000000645,"midi":38,"time":76.142781,"velocity":0.3937007874015748},{"duration":0.2857139999999987,"midi":46,"time":76.285638,"velocity":0.3937007874015748},{"duration":0.2857139999999987,"midi":34,"time":76.285638,"velocity":0.3937007874015748},{"duration":0.14285700000000645,"midi":46,"time":76.571352,"velocity":0.3937007874015748},{"duration":0.14285700000000645,"midi":34,"time":76.571352,"velocity":0.3937007874015748},{"duration":0.2857139999999845,"midi":46,"time":76.71420900000001,"velocity":0.3937007874015748},{"duration":0.2857139999999845,"midi":34,"time":76.71420900000001,"velocity":0.3937007874015748},{"duration":0.14285700000000645,"midi":34,"time":76.999923,"velocity":0.3937007874015748},{"duration":0.14285700000000645,"midi":46,"time":76.999923,"velocity":0.3937007874015748},{"duration":0.2857139999999987,"midi":41,"time":77.14278,"velocity":0.3937007874015748},{"duration":0.2857139999999987,"midi":29,"time":77.14278,"velocity":0.3937007874015748},{"duration":0.14285700000000645,"midi":41,"time":77.428494,"velocity":0.3937007874015748},{"duration":0.14285700000000645,"midi":29,"time":77.428494,"velocity":0.3937007874015748},{"duration":0.2857139999999987,"midi":29,"time":77.571351,"velocity":0.3937007874015748},{"duration":0.2857139999999987,"midi":41,"time":77.571351,"velocity":0.3937007874015748},{"duration":0.14285700000000645,"midi":41,"time":77.857065,"velocity":0.3937007874015748},{"duration":0.14285700000000645,"midi":29,"time":77.857065,"velocity":0.3937007874015748},{"duration":0.2857139999999845,"midi":48,"time":77.99992200000001,"velocity":0.3937007874015748},{"duration":0.2857139999999845,"midi":36,"time":77.99992200000001,"velocity":0.3937007874015748},{"duration":0.14285700000000645,"midi":48,"time":78.285636,"velocity":0.3937007874015748},{"duration":0.14285700000000645,"midi":36,"time":78.285636,"velocity":0.3937007874015748},{"duration":0.2857139999999987,"midi":33,"time":78.428493,"velocity":0.3937007874015748},{"duration":0.2857139999999987,"midi":45,"time":78.428493,"velocity":0.3937007874015748},{"duration":0.14285700000000645,"midi":33,"time":78.714207,"velocity":0.3937007874015748},{"duration":0.14285700000000645,"midi":45,"time":78.714207,"velocity":0.3937007874015748},{"duration":0.2857139999999987,"midi":50,"time":78.85706400000001,"velocity":0.3937007874015748},{"duration":0.2857139999999987,"midi":38,"time":78.85706400000001,"velocity":0.3937007874015748},{"duration":0.14285700000000645,"midi":50,"time":79.142778,"velocity":0.3937007874015748},{"duration":0.14285700000000645,"midi":38,"time":79.142778,"velocity":0.3937007874015748},{"duration":0.2857139999999845,"midi":45,"time":79.28563500000001,"velocity":0.3937007874015748},{"duration":0.2857139999999845,"midi":38,"time":79.28563500000001,"velocity":0.3937007874015748},{"duration":0.14285700000000645,"midi":45,"time":79.571349,"velocity":0.3937007874015748},{"duration":0.14285700000000645,"midi":38,"time":79.571349,"velocity":0.3937007874015748},{"duration":0.2857139999999987,"midi":50,"time":79.714206,"velocity":0.3937007874015748},{"duration":0.2857139999999987,"midi":38,"time":79.714206,"velocity":0.3937007874015748},{"duration":0.14285700000000645,"midi":38,"time":79.99992,"velocity":0.3937007874015748},{"duration":0.14285700000000645,"midi":50,"time":79.99992,"velocity":0.3937007874015748},{"duration":0.2857139999999987,"midi":50,"time":80.14277700000001,"velocity":0.3937007874015748},{"duration":0.2857139999999987,"midi":38,"time":80.14277700000001,"velocity":0.3937007874015748},{"duration":0.14285699999999224,"midi":50,"time":80.42849100000001,"velocity":0.3937007874015748},{"duration":0.14285699999999224,"midi":38,"time":80.42849100000001,"velocity":0.3937007874015748},{"duration":0.2857139999999987,"midi":34,"time":80.571348,"velocity":0.3937007874015748},{"duration":0.2857139999999987,"midi":46,"time":80.571348,"velocity":0.3937007874015748},{"duration":0.14285700000000645,"midi":46,"time":80.857062,"velocity":0.3937007874015748},{"duration":0.14285700000000645,"midi":34,"time":80.857062,"velocity":0.3937007874015748},{"duration":0.2857139999999987,"midi":46,"time":80.999919,"velocity":0.3937007874015748},{"duration":0.2857139999999987,"midi":34,"time":80.999919,"velocity":0.3937007874015748},{"duration":0.14285700000000645,"midi":46,"time":81.285633,"velocity":0.3937007874015748},{"duration":0.14285700000000645,"midi":34,"time":81.285633,"velocity":0.3937007874015748},{"duration":0.2857139999999987,"midi":43,"time":81.42849000000001,"velocity":0.3937007874015748},{"duration":0.2857139999999987,"midi":31,"time":81.42849000000001,"velocity":0.3937007874015748},{"duration":0.14285699999999224,"midi":43,"time":81.71420400000001,"velocity":0.3937007874015748},{"duration":0.14285699999999224,"midi":31,"time":81.71420400000001,"velocity":0.3937007874015748},{"duration":0.2857139999999987,"midi":31,"time":81.857061,"velocity":0.3937007874015748},{"duration":0.2857139999999987,"midi":43,"time":81.857061,"velocity":0.3937007874015748},{"duration":0.14285700000000645,"midi":31,"time":82.142775,"velocity":0.3937007874015748},{"duration":0.14285700000000645,"midi":43,"time":82.142775,"velocity":0.3937007874015748},{"duration":0.2857139999999987,"midi":50,"time":82.285632,"velocity":0.3937007874015748},{"duration":0.2857139999999987,"midi":38,"time":82.285632,"velocity":0.3937007874015748},{"duration":0.14285700000000645,"midi":38,"time":82.571346,"velocity":0.3937007874015748},{"duration":0.14285700000000645,"midi":50,"time":82.571346,"velocity":0.3937007874015748},{"duration":0.2857139999999845,"midi":38,"time":82.71420300000001,"velocity":0.3937007874015748},{"duration":0.2857139999999845,"midi":45,"time":82.71420300000001,"velocity":0.3937007874015748},{"duration":0.14285700000000645,"midi":45,"time":82.999917,"velocity":0.3937007874015748},{"duration":0.14285700000000645,"midi":38,"time":82.999917,"velocity":0.3937007874015748},{"duration":0.2857139999999987,"midi":34,"time":83.142774,"velocity":0.3937007874015748},{"duration":0.2857139999999987,"midi":46,"time":83.142774,"velocity":0.3937007874015748},{"duration":0.14285700000000645,"midi":46,"time":83.428488,"velocity":0.3937007874015748},{"duration":0.14285700000000645,"midi":34,"time":83.428488,"velocity":0.3937007874015748},{"duration":0.2857139999999987,"midi":34,"time":83.57134500000001,"velocity":0.3937007874015748},{"duration":0.2857139999999987,"midi":46,"time":83.57134500000001,"velocity":0.3937007874015748},{"duration":0.14285700000000645,"midi":46,"time":83.857059,"velocity":0.3937007874015748},{"duration":0.14285700000000645,"midi":34,"time":83.857059,"velocity":0.3937007874015748},{"duration":0.2857139999999845,"midi":50,"time":83.99991600000001,"velocity":0.3937007874015748},{"duration":0.2857139999999845,"midi":38,"time":83.99991600000001,"velocity":0.3937007874015748},{"duration":0.14285700000000645,"midi":38,"time":84.28563,"velocity":0.3937007874015748},{"duration":0.14285700000000645,"midi":50,"time":84.28563,"velocity":0.3937007874015748},{"duration":0.2857139999999987,"midi":50,"time":84.428487,"velocity":0.3937007874015748},{"duration":0.2857139999999987,"midi":38,"time":84.428487,"velocity":0.3937007874015748},{"duration":0.14285700000000645,"midi":38,"time":84.714201,"velocity":0.3937007874015748},{"duration":0.14285700000000645,"midi":50,"time":84.714201,"velocity":0.3937007874015748},{"duration":0.2857139999999987,"midi":33,"time":84.85705800000001,"velocity":0.3937007874015748},{"duration":0.2857139999999987,"midi":45,"time":84.85705800000001,"velocity":0.3937007874015748},{"duration":0.14285699999999224,"midi":45,"time":85.14277200000001,"velocity":0.3937007874015748},{"duration":0.14285699999999224,"midi":33,"time":85.14277200000001,"velocity":0.3937007874015748},{"duration":0.2857139999999987,"midi":45,"time":85.285629,"velocity":0.3937007874015748},{"duration":0.2857139999999987,"midi":33,"time":85.285629,"velocity":0.3937007874015748},{"duration":0.14285700000000645,"midi":33,"time":85.571343,"velocity":0.3937007874015748},{"duration":0.14285700000000645,"midi":45,"time":85.571343,"velocity":0.3937007874015748},{"duration":0.2857139999999987,"midi":33,"time":85.7142,"velocity":0.3937007874015748},{"duration":0.2857139999999987,"midi":45,"time":85.7142,"velocity":0.3937007874015748},{"duration":0.14285700000000645,"midi":33,"time":85.999914,"velocity":0.3937007874015748},{"duration":0.14285700000000645,"midi":45,"time":85.999914,"velocity":0.3937007874015748},{"duration":0.2857139999999987,"midi":33,"time":86.14277100000001,"velocity":0.3937007874015748},{"duration":0.2857139999999987,"midi":45,"time":86.14277100000001,"velocity":0.3937007874015748},{"duration":0.14285699999999224,"midi":33,"time":86.42848500000001,"velocity":0.3937007874015748},{"duration":0.14285699999999224,"midi":45,"time":86.42848500000001,"velocity":0.3937007874015748},{"duration":0.2857139999999987,"midi":50,"time":86.571342,"velocity":0.3937007874015748},{"duration":0.2857139999999987,"midi":38,"time":86.571342,"velocity":0.3937007874015748},{"duration":0.14285700000000645,"midi":38,"time":86.857056,"velocity":0.3937007874015748},{"duration":0.14285700000000645,"midi":50,"time":86.857056,"velocity":0.3937007874015748},{"duration":0.2857139999999987,"midi":50,"time":86.999913,"velocity":0.3937007874015748},{"duration":0.2857139999999987,"midi":38,"time":86.999913,"velocity":0.3937007874015748},{"duration":0.14285700000000645,"midi":48,"time":87.285627,"velocity":0.3937007874015748},{"duration":0.14285700000000645,"midi":36,"time":87.285627,"velocity":0.3937007874015748},{"duration":0.2857139999999845,"midi":34,"time":87.42848400000001,"velocity":0.3937007874015748},{"duration":0.2857139999999845,"midi":46,"time":87.42848400000001,"velocity":0.3937007874015748},{"duration":0.14285700000000645,"midi":46,"time":87.714198,"velocity":0.3937007874015748},{"duration":0.14285700000000645,"midi":34,"time":87.714198,"velocity":0.3937007874015748},{"duration":0.2857139999999987,"midi":34,"time":87.857055,"velocity":0.3937007874015748},{"duration":0.2857139999999987,"midi":46,"time":87.857055,"velocity":0.3937007874015748},{"duration":0.14285700000000645,"midi":46,"time":88.142769,"velocity":0.3937007874015748},{"duration":0.14285700000000645,"midi":34,"time":88.142769,"velocity":0.3937007874015748},{"duration":0.2857139999999987,"midi":33,"time":88.28562600000001,"velocity":0.3937007874015748},{"duration":0.2857139999999987,"midi":45,"time":88.28562600000001,"velocity":0.3937007874015748},{"duration":0.14285700000000645,"midi":33,"time":88.57134,"velocity":0.3937007874015748},{"duration":0.14285700000000645,"midi":45,"time":88.57134,"velocity":0.3937007874015748},{"duration":0.2857139999999845,"midi":45,"time":88.71419700000001,"velocity":0.3937007874015748},{"duration":0.2857139999999845,"midi":33,"time":88.71419700000001,"velocity":0.3937007874015748},{"duration":0.14285700000000645,"midi":45,"time":88.999911,"velocity":0.3937007874015748},{"duration":0.14285700000000645,"midi":33,"time":88.999911,"velocity":0.3937007874015748},{"duration":0.2857139999999987,"midi":50,"time":89.142768,"velocity":0.3937007874015748},{"duration":0.2857139999999987,"midi":38,"time":89.142768,"velocity":0.3937007874015748},{"duration":0.14285700000000645,"midi":38,"time":89.428482,"velocity":0.3937007874015748},{"duration":0.14285700000000645,"midi":50,"time":89.428482,"velocity":0.3937007874015748},{"duration":0.2857139999999987,"midi":45,"time":89.57133900000001,"velocity":0.3937007874015748},{"duration":0.2857139999999987,"midi":38,"time":89.57133900000001,"velocity":0.3937007874015748},{"duration":0.14285700000000645,"midi":38,"time":89.85705300000001,"velocity":0.3937007874015748},{"duration":0.14285700000000645,"midi":45,"time":89.85705300000001,"velocity":0.3937007874015748},{"duration":0.2857139999999845,"midi":46,"time":89.99991000000001,"velocity":0.3937007874015748},{"duration":0.2857139999999845,"midi":34,"time":89.99991000000001,"velocity":0.3937007874015748},{"duration":0.14285700000000645,"midi":46,"time":90.285624,"velocity":0.3937007874015748},{"duration":0.14285700000000645,"midi":34,"time":90.285624,"velocity":0.3937007874015748},{"duration":0.2857139999999987,"midi":46,"time":90.428481,"velocity":0.3937007874015748},{"duration":0.2857139999999987,"midi":34,"time":90.428481,"velocity":0.3937007874015748},{"duration":0.14285700000000645,"midi":34,"time":90.714195,"velocity":0.3937007874015748},{"duration":0.14285700000000645,"midi":46,"time":90.714195,"velocity":0.3937007874015748},{"duration":0.2857139999999987,"midi":29,"time":90.85705200000001,"velocity":0.3937007874015748},{"duration":0.2857139999999987,"midi":41,"time":90.85705200000001,"velocity":0.3937007874015748},{"duration":0.14285699999999224,"midi":41,"time":91.14276600000001,"velocity":0.3937007874015748},{"duration":0.14285699999999224,"midi":29,"time":91.14276600000001,"velocity":0.3937007874015748},{"duration":0.2857139999999987,"midi":29,"time":91.285623,"velocity":0.3937007874015748},{"duration":0.2857139999999987,"midi":41,"time":91.285623,"velocity":0.3937007874015748},{"duration":0.14285700000000645,"midi":41,"time":91.571337,"velocity":0.3937007874015748},{"duration":0.14285700000000645,"midi":29,"time":91.571337,"velocity":0.3937007874015748},{"duration":0.2857139999999987,"midi":48,"time":91.714194,"velocity":0.3937007874015748},{"duration":0.2857139999999987,"midi":36,"time":91.714194,"velocity":0.3937007874015748},{"duration":0.14285700000000645,"midi":36,"time":91.999908,"velocity":0.3937007874015748},{"duration":0.14285700000000645,"midi":48,"time":91.999908,"velocity":0.3937007874015748},{"duration":0.2857139999999987,"midi":45,"time":92.14276500000001,"velocity":0.3937007874015748},{"duration":0.2857139999999987,"midi":33,"time":92.14276500000001,"velocity":0.3937007874015748},{"duration":0.14285699999999224,"midi":45,"time":92.42847900000001,"velocity":0.3937007874015748},{"duration":0.14285699999999224,"midi":33,"time":92.42847900000001,"velocity":0.3937007874015748},{"duration":0.2857139999999987,"midi":50,"time":92.571336,"velocity":0.3937007874015748},{"duration":0.2857139999999987,"midi":38,"time":92.571336,"velocity":0.3937007874015748},{"duration":0.14285700000000645,"midi":38,"time":92.85705,"velocity":0.3937007874015748},{"duration":0.14285700000000645,"midi":50,"time":92.85705,"velocity":0.3937007874015748},{"duration":0.2857139999999987,"midi":45,"time":92.99990700000001,"velocity":0.3937007874015748},{"duration":0.2857139999999987,"midi":38,"time":92.99990700000001,"velocity":0.3937007874015748},{"duration":0.14285700000000645,"midi":45,"time":93.285621,"velocity":0.3937007874015748},{"duration":0.14285700000000645,"midi":38,"time":93.285621,"velocity":0.3937007874015748},{"duration":0.2857139999999845,"midi":50,"time":93.42847800000001,"velocity":0.3937007874015748},{"duration":0.2857139999999845,"midi":38,"time":93.42847800000001,"velocity":0.3937007874015748},{"duration":0.14285700000000645,"midi":38,"time":93.714192,"velocity":0.3937007874015748},{"duration":0.14285700000000645,"midi":50,"time":93.714192,"velocity":0.3937007874015748},{"duration":0.2857139999999987,"midi":50,"time":93.857049,"velocity":0.3937007874015748},{"duration":0.2857139999999987,"midi":38,"time":93.857049,"velocity":0.3937007874015748},{"duration":0.14285700000000645,"midi":50,"time":94.142763,"velocity":0.3937007874015748},{"duration":0.14285700000000645,"midi":38,"time":94.142763,"velocity":0.3937007874015748},{"duration":0.2857139999999987,"midi":46,"time":94.28562000000001,"velocity":0.3937007874015748},{"duration":0.2857139999999987,"midi":34,"time":94.28562000000001,"velocity":0.3937007874015748},{"duration":0.14285700000000645,"midi":46,"time":94.57133400000001,"velocity":0.3937007874015748},{"duration":0.14285700000000645,"midi":34,"time":94.57133400000001,"velocity":0.3937007874015748},{"duration":0.2857139999999845,"midi":46,"time":94.71419100000001,"velocity":0.3937007874015748},{"duration":0.2857139999999845,"midi":34,"time":94.71419100000001,"velocity":0.3937007874015748},{"duration":0.14285700000000645,"midi":46,"time":94.999905,"velocity":0.3937007874015748},{"duration":0.14285700000000645,"midi":34,"time":94.999905,"velocity":0.3937007874015748},{"duration":0.2857139999999987,"midi":43,"time":95.142762,"velocity":0.3937007874015748},{"duration":0.2857139999999987,"midi":31,"time":95.142762,"velocity":0.3937007874015748},{"duration":0.14285700000000645,"midi":43,"time":95.428476,"velocity":0.3937007874015748},{"duration":0.14285700000000645,"midi":31,"time":95.428476,"velocity":0.3937007874015748},{"duration":0.2857139999999987,"midi":43,"time":95.57133300000001,"velocity":0.3937007874015748},{"duration":0.2857139999999987,"midi":31,"time":95.57133300000001,"velocity":0.3937007874015748},{"duration":0.14285700000000645,"midi":43,"time":95.85704700000001,"velocity":0.3937007874015748},{"duration":0.14285700000000645,"midi":31,"time":95.85704700000001,"velocity":0.3937007874015748},{"duration":0.2857139999999845,"midi":50,"time":95.99990400000002,"velocity":0.3937007874015748},{"duration":0.2857139999999845,"midi":38,"time":95.99990400000002,"velocity":0.3937007874015748},{"duration":0.14285700000000645,"midi":50,"time":96.285618,"velocity":0.3937007874015748},{"duration":0.14285700000000645,"midi":38,"time":96.285618,"velocity":0.3937007874015748},{"duration":0.2857139999999987,"midi":38,"time":96.428475,"velocity":0.3937007874015748},{"duration":0.2857139999999987,"midi":45,"time":96.428475,"velocity":0.3937007874015748},{"duration":0.14285700000000645,"midi":38,"time":96.714189,"velocity":0.3937007874015748},{"duration":0.14285700000000645,"midi":45,"time":96.714189,"velocity":0.3937007874015748},{"duration":0.2857139999999987,"midi":46,"time":96.85704600000001,"velocity":0.3937007874015748},{"duration":0.2857139999999987,"midi":34,"time":96.85704600000001,"velocity":0.3937007874015748},{"duration":0.14285699999999224,"midi":46,"time":97.14276000000001,"velocity":0.3937007874015748},{"duration":0.14285699999999224,"midi":34,"time":97.14276000000001,"velocity":0.3937007874015748},{"duration":0.2857139999999987,"midi":34,"time":97.285617,"velocity":0.3937007874015748},{"duration":0.2857139999999987,"midi":46,"time":97.285617,"velocity":0.3937007874015748},{"duration":0.14285700000000645,"midi":34,"time":97.571331,"velocity":0.3937007874015748},{"duration":0.14285700000000645,"midi":46,"time":97.571331,"velocity":0.3937007874015748},{"duration":0.2857139999999987,"midi":50,"time":97.71418800000001,"velocity":0.3937007874015748},{"duration":0.2857139999999987,"midi":38,"time":97.71418800000001,"velocity":0.3937007874015748},{"duration":0.14285700000000645,"midi":38,"time":97.999902,"velocity":0.3937007874015748},{"duration":0.14285700000000645,"midi":50,"time":97.999902,"velocity":0.3937007874015748},{"duration":0.2857139999999987,"midi":50,"time":98.14275900000001,"velocity":0.3937007874015748},{"duration":0.2857139999999987,"midi":38,"time":98.14275900000001,"velocity":0.3937007874015748},{"duration":0.14285699999999224,"midi":38,"time":98.42847300000001,"velocity":0.3937007874015748},{"duration":0.14285699999999224,"midi":50,"time":98.42847300000001,"velocity":0.3937007874015748},{"duration":0.2857139999999987,"midi":45,"time":98.57133,"velocity":0.3937007874015748},{"duration":0.2857139999999987,"midi":33,"time":98.57133,"velocity":0.3937007874015748},{"duration":0.14285700000000645,"midi":33,"time":98.857044,"velocity":0.3937007874015748},{"duration":0.14285700000000645,"midi":45,"time":98.857044,"velocity":0.3937007874015748},{"duration":0.2857139999999987,"midi":33,"time":98.99990100000001,"velocity":0.3937007874015748},{"duration":0.2857139999999987,"midi":45,"time":98.99990100000001,"velocity":0.3937007874015748},{"duration":0.14285700000000645,"midi":45,"time":99.285615,"velocity":0.3937007874015748},{"duration":0.14285700000000645,"midi":33,"time":99.285615,"velocity":0.3937007874015748},{"duration":0.2857139999999845,"midi":50,"time":99.42847200000001,"velocity":0.3937007874015748},{"duration":0.2857139999999845,"midi":38,"time":99.42847200000001,"velocity":0.3937007874015748},{"duration":0.2857140000000129,"midi":50,"time":99.714186,"velocity":0.3937007874015748},{"duration":0.2857140000000129,"midi":38,"time":99.714186,"velocity":0.3937007874015748},{"duration":0.2857139999999987,"midi":36,"time":99.99990000000001,"velocity":0.3937007874015748},{"duration":0.2857139999999987,"midi":48,"time":99.99990000000001,"velocity":0.3937007874015748},{"duration":0.2857139999999987,"midi":48,"time":100.28561400000001,"velocity":0.3937007874015748},{"duration":0.2857139999999987,"midi":36,"time":100.28561400000001,"velocity":0.3937007874015748},{"duration":0.2857139999999987,"midi":48,"time":100.57132800000001,"velocity":0.3937007874015748},{"duration":0.2857139999999987,"midi":36,"time":100.57132800000001,"velocity":0.3937007874015748},{"duration":0.2857139999999987,"midi":34,"time":100.857042,"velocity":0.3937007874015748},{"duration":0.2857139999999987,"midi":46,"time":100.857042,"velocity":0.3937007874015748},{"duration":0.2857139999999987,"midi":45,"time":101.142756,"velocity":0.3937007874015748},{"duration":0.2857139999999987,"midi":33,"time":101.142756,"velocity":0.3937007874015748},{"duration":0.14285700000000645,"midi":45,"time":101.42847,"velocity":0.3937007874015748},{"duration":0.14285700000000645,"midi":33,"time":101.42847,"velocity":0.3937007874015748},{"duration":0.2857139999999987,"midi":33,"time":101.57132700000001,"velocity":0.3937007874015748},{"duration":0.2857139999999987,"midi":45,"time":101.57132700000001,"velocity":0.3937007874015748},{"duration":0.14285699999999224,"midi":33,"time":101.85704100000001,"velocity":0.3937007874015748},{"duration":0.14285699999999224,"midi":45,"time":101.85704100000001,"velocity":0.3937007874015748},{"duration":0.2857139999999987,"midi":45,"time":101.999898,"velocity":0.3937007874015748},{"duration":0.2857139999999987,"midi":33,"time":101.999898,"velocity":0.3937007874015748},{"duration":0.14285700000000645,"midi":33,"time":102.285612,"velocity":0.3937007874015748},{"duration":0.14285700000000645,"midi":45,"time":102.285612,"velocity":0.3937007874015748},{"duration":0.2857139999999987,"midi":33,"time":102.428469,"velocity":0.3937007874015748},{"duration":0.2857139999999987,"midi":45,"time":102.428469,"velocity":0.3937007874015748},{"duration":0.14285700000000645,"midi":45,"time":102.714183,"velocity":0.3937007874015748},{"duration":0.14285700000000645,"midi":33,"time":102.714183,"velocity":0.3937007874015748},{"duration":0.2857139999999987,"midi":31,"time":102.85704000000001,"velocity":0.3937007874015748},{"duration":0.2857139999999987,"midi":43,"time":102.85704000000001,"velocity":0.3937007874015748},{"duration":0.14285699999999224,"midi":43,"time":103.14275400000001,"velocity":0.3937007874015748},{"duration":0.14285699999999224,"midi":31,"time":103.14275400000001,"velocity":0.3937007874015748},{"duration":0.2857139999999987,"midi":43,"time":103.285611,"velocity":0.3937007874015748},{"duration":0.2857139999999987,"midi":31,"time":103.285611,"velocity":0.3937007874015748},{"duration":0.14285700000000645,"midi":43,"time":103.571325,"velocity":0.3937007874015748},{"duration":0.14285700000000645,"midi":31,"time":103.571325,"velocity":0.3937007874015748},{"duration":0.2857139999999987,"midi":31,"time":103.71418200000001,"velocity":0.3937007874015748},{"duration":0.2857139999999987,"midi":43,"time":103.71418200000001,"velocity":0.3937007874015748},{"duration":0.14285700000000645,"midi":43,"time":103.999896,"velocity":0.3937007874015748},{"duration":0.14285700000000645,"midi":31,"time":103.999896,"velocity":0.3937007874015748},{"duration":0.2857139999999845,"midi":31,"time":104.14275300000001,"velocity":0.3937007874015748},{"duration":0.2857139999999845,"midi":43,"time":104.14275300000001,"velocity":0.3937007874015748},{"duration":0.14285700000000645,"midi":43,"time":104.428467,"velocity":0.3937007874015748},{"duration":0.14285700000000645,"midi":31,"time":104.428467,"velocity":0.3937007874015748},{"duration":0.2857139999999987,"midi":45,"time":104.571324,"velocity":0.3937007874015748},{"duration":0.2857139999999987,"midi":33,"time":104.571324,"velocity":0.3937007874015748},{"duration":0.14285700000000645,"midi":45,"time":104.857038,"velocity":0.3937007874015748},{"duration":0.14285700000000645,"midi":33,"time":104.857038,"velocity":0.3937007874015748},{"duration":0.2857139999999987,"midi":33,"time":104.99989500000001,"velocity":0.3937007874015748},{"duration":0.2857139999999987,"midi":45,"time":104.99989500000001,"velocity":0.3937007874015748},{"duration":0.14285700000000645,"midi":45,"time":105.28560900000001,"velocity":0.3937007874015748},{"duration":0.14285700000000645,"midi":33,"time":105.28560900000001,"velocity":0.3937007874015748},{"duration":0.2857139999999845,"midi":33,"time":105.42846600000001,"velocity":0.3937007874015748},{"duration":0.2857139999999845,"midi":45,"time":105.42846600000001,"velocity":0.3937007874015748},{"duration":0.14285700000000645,"midi":45,"time":105.71418,"velocity":0.3937007874015748},{"duration":0.14285700000000645,"midi":33,"time":105.71418,"velocity":0.3937007874015748},{"duration":0.2857139999999987,"midi":33,"time":105.857037,"velocity":0.3937007874015748},{"duration":0.2857139999999987,"midi":45,"time":105.857037,"velocity":0.3937007874015748},{"duration":0.14285700000000645,"midi":33,"time":106.142751,"velocity":0.3937007874015748},{"duration":0.14285700000000645,"midi":45,"time":106.142751,"velocity":0.3937007874015748},{"duration":0.2857139999999987,"midi":38,"time":106.28560800000001,"velocity":0.3937007874015748},{"duration":0.2857139999999987,"midi":50,"time":106.28560800000001,"velocity":0.3937007874015748},{"duration":0.14285700000000645,"midi":50,"time":106.57132200000001,"velocity":0.3937007874015748},{"duration":0.14285700000000645,"midi":38,"time":106.57132200000001,"velocity":0.3937007874015748},{"duration":0.2857139999999845,"midi":38,"time":106.71417900000002,"velocity":0.3937007874015748},{"duration":0.2857139999999845,"midi":50,"time":106.71417900000002,"velocity":0.3937007874015748},{"duration":0.14285700000000645,"midi":38,"time":106.999893,"velocity":0.3937007874015748},{"duration":0.14285700000000645,"midi":50,"time":106.999893,"velocity":0.3937007874015748},{"duration":0.2857139999999987,"midi":38,"time":107.14275,"velocity":0.3937007874015748},{"duration":0.2857139999999987,"midi":50,"time":107.14275,"velocity":0.3937007874015748},{"duration":0.14285700000000645,"midi":38,"time":107.428464,"velocity":0.3937007874015748},{"duration":0.14285700000000645,"midi":50,"time":107.428464,"velocity":0.3937007874015748},{"duration":0.2857139999999987,"midi":50,"time":107.57132100000001,"velocity":0.3937007874015748},{"duration":0.2857139999999987,"midi":38,"time":107.57132100000001,"velocity":0.3937007874015748},{"duration":0.14285699999999224,"midi":50,"time":107.85703500000001,"velocity":0.3937007874015748},{"duration":0.14285699999999224,"midi":38,"time":107.85703500000001,"velocity":0.3937007874015748},{"duration":0.2857139999999987,"midi":48,"time":107.999892,"velocity":0.3937007874015748},{"duration":0.2857139999999987,"midi":36,"time":107.999892,"velocity":0.3937007874015748},{"duration":0.14285700000000645,"midi":48,"time":108.285606,"velocity":0.3937007874015748},{"duration":0.14285700000000645,"midi":36,"time":108.285606,"velocity":0.3937007874015748},{"duration":0.2857139999999987,"midi":48,"time":108.42846300000001,"velocity":0.3937007874015748},{"duration":0.2857139999999987,"midi":36,"time":108.42846300000001,"velocity":0.3937007874015748},{"duration":0.14285700000000645,"midi":48,"time":108.714177,"velocity":0.3937007874015748},{"duration":0.14285700000000645,"midi":36,"time":108.714177,"velocity":0.3937007874015748},{"duration":0.2857139999999987,"midi":53,"time":108.85703400000001,"velocity":0.3937007874015748},{"duration":0.2857139999999987,"midi":41,"time":108.85703400000001,"velocity":0.3937007874015748},{"duration":0.14285699999999224,"midi":41,"time":109.14274800000001,"velocity":0.3937007874015748},{"duration":0.14285699999999224,"midi":53,"time":109.14274800000001,"velocity":0.3937007874015748},{"duration":0.2857139999999987,"midi":53,"time":109.285605,"velocity":0.3937007874015748},{"duration":0.2857139999999987,"midi":41,"time":109.285605,"velocity":0.3937007874015748},{"duration":0.14285700000000645,"midi":53,"time":109.571319,"velocity":0.3937007874015748},{"duration":0.14285700000000645,"midi":41,"time":109.571319,"velocity":0.3937007874015748},{"duration":0.2857140000000129,"midi":50,"time":109.71417600000001,"velocity":0.3937007874015748},{"duration":0.2857140000000129,"midi":38,"time":109.71417600000001,"velocity":0.3937007874015748},{"duration":0.14285699999999224,"midi":38,"time":109.99989000000002,"velocity":0.3937007874015748},{"duration":0.14285699999999224,"midi":50,"time":109.99989000000002,"velocity":0.3937007874015748},{"duration":0.2857139999999987,"midi":38,"time":110.14274700000001,"velocity":0.3937007874015748},{"duration":0.2857139999999987,"midi":50,"time":110.14274700000001,"velocity":0.3937007874015748},{"duration":0.14285699999999224,"midi":50,"time":110.42846100000001,"velocity":0.3937007874015748},{"duration":0.14285699999999224,"midi":38,"time":110.42846100000001,"velocity":0.3937007874015748},{"duration":0.2857140000000129,"midi":50,"time":110.571318,"velocity":0.3937007874015748},{"duration":0.2857140000000129,"midi":38,"time":110.571318,"velocity":0.3937007874015748},{"duration":0.14285699999999224,"midi":38,"time":110.85703200000002,"velocity":0.3937007874015748},{"duration":0.14285699999999224,"midi":50,"time":110.85703200000002,"velocity":0.3937007874015748},{"duration":0.2857140000000129,"midi":50,"time":110.99988900000001,"velocity":0.3937007874015748},{"duration":0.2857140000000129,"midi":38,"time":110.99988900000001,"velocity":0.3937007874015748},{"duration":0.14285699999999224,"midi":38,"time":111.28560300000002,"velocity":0.3937007874015748},{"duration":0.14285699999999224,"midi":50,"time":111.28560300000002,"velocity":0.3937007874015748},{"duration":0.2857139999999987,"midi":33,"time":111.42846000000002,"velocity":0.3937007874015748},{"duration":0.2857139999999987,"midi":45,"time":111.42846000000002,"velocity":0.3937007874015748},{"duration":0.14285699999999224,"midi":45,"time":111.71417400000001,"velocity":0.3937007874015748},{"duration":0.14285699999999224,"midi":33,"time":111.71417400000001,"velocity":0.3937007874015748},{"duration":0.2857140000000129,"midi":33,"time":111.857031,"velocity":0.3937007874015748},{"duration":0.2857140000000129,"midi":45,"time":111.857031,"velocity":0.3937007874015748},{"duration":0.14285699999999224,"midi":33,"time":112.14274500000002,"velocity":0.3937007874015748},{"duration":0.14285699999999224,"midi":45,"time":112.14274500000002,"velocity":0.3937007874015748},{"duration":0.2857140000000129,"midi":50,"time":112.28560200000001,"velocity":0.3937007874015748},{"duration":0.2857140000000129,"midi":38,"time":112.28560200000001,"velocity":0.3937007874015748},{"duration":0.14285699999997803,"midi":38,"time":112.57131600000002,"velocity":0.3937007874015748},{"duration":0.14285699999997803,"midi":50,"time":112.57131600000002,"velocity":0.3937007874015748},{"duration":0.2857140000000129,"midi":50,"time":112.714173,"velocity":0.3937007874015748},{"duration":0.2857140000000129,"midi":38,"time":112.714173,"velocity":0.3937007874015748},{"duration":0.14285699999999224,"midi":38,"time":112.99988700000002,"velocity":0.3937007874015748},{"duration":0.14285699999999224,"midi":50,"time":112.99988700000002,"velocity":0.3937007874015748},{"duration":0.2857140000000129,"midi":38,"time":113.14274400000001,"velocity":0.3937007874015748},{"duration":0.2857140000000129,"midi":50,"time":113.14274400000001,"velocity":0.3937007874015748},{"duration":0.14285699999999224,"midi":50,"time":113.42845800000002,"velocity":0.3937007874015748},{"duration":0.14285699999999224,"midi":38,"time":113.42845800000002,"velocity":0.3937007874015748},{"duration":0.2857139999999987,"midi":38,"time":113.57131500000001,"velocity":0.3937007874015748},{"duration":0.2857139999999987,"midi":50,"time":113.57131500000001,"velocity":0.3937007874015748},{"duration":0.14285699999999224,"midi":50,"time":113.85702900000001,"velocity":0.3937007874015748},{"duration":0.14285699999999224,"midi":38,"time":113.85702900000001,"velocity":0.3937007874015748},{"duration":0.2857140000000129,"midi":48,"time":113.999886,"velocity":0.3937007874015748},{"duration":0.2857140000000129,"midi":36,"time":113.999886,"velocity":0.3937007874015748},{"duration":0.14285699999999224,"midi":36,"time":114.28560000000002,"velocity":0.3937007874015748},{"duration":0.14285699999999224,"midi":48,"time":114.28560000000002,"velocity":0.3937007874015748},{"duration":0.2857140000000129,"midi":48,"time":114.42845700000001,"velocity":0.3937007874015748},{"duration":0.2857140000000129,"midi":36,"time":114.42845700000001,"velocity":0.3937007874015748},{"duration":0.14285699999999224,"midi":36,"time":114.71417100000002,"velocity":0.3937007874015748},{"duration":0.14285699999999224,"midi":48,"time":114.71417100000002,"velocity":0.3937007874015748},{"duration":0.2857139999999987,"midi":53,"time":114.85702800000001,"velocity":0.3937007874015748},{"duration":0.2857139999999987,"midi":41,"time":114.85702800000001,"velocity":0.3937007874015748},{"duration":0.14285699999999224,"midi":53,"time":115.14274200000001,"velocity":0.3937007874015748},{"duration":0.14285699999999224,"midi":41,"time":115.14274200000001,"velocity":0.3937007874015748},{"duration":0.2857140000000129,"midi":41,"time":115.285599,"velocity":0.3937007874015748},{"duration":0.2857140000000129,"midi":53,"time":115.285599,"velocity":0.3937007874015748},{"duration":0.14285699999999224,"midi":41,"time":115.57131300000002,"velocity":0.3937007874015748},{"duration":0.14285699999999224,"midi":53,"time":115.57131300000002,"velocity":0.3937007874015748},{"duration":0.2857140000000129,"midi":48,"time":115.71417000000001,"velocity":0.3937007874015748},{"duration":0.2857140000000129,"midi":36,"time":115.71417000000001,"velocity":0.3937007874015748},{"duration":0.14285699999999224,"midi":48,"time":115.99988400000002,"velocity":0.3937007874015748},{"duration":0.14285699999999224,"midi":36,"time":115.99988400000002,"velocity":0.3937007874015748},{"duration":0.2857139999999987,"midi":48,"time":116.14274100000002,"velocity":0.3937007874015748},{"duration":0.2857139999999987,"midi":36,"time":116.14274100000002,"velocity":0.3937007874015748},{"duration":0.14285699999999224,"midi":36,"time":116.42845500000001,"velocity":0.3937007874015748},{"duration":0.14285699999999224,"midi":48,"time":116.42845500000001,"velocity":0.3937007874015748},{"duration":0.2857140000000129,"midi":38,"time":116.571312,"velocity":0.3937007874015748},{"duration":0.2857140000000129,"midi":50,"time":116.571312,"velocity":0.3937007874015748},{"duration":0.14285699999999224,"midi":38,"time":116.85702600000002,"velocity":0.3937007874015748},{"duration":0.14285699999999224,"midi":50,"time":116.85702600000002,"velocity":0.3937007874015748},{"duration":0.2857140000000129,"midi":50,"time":116.99988300000001,"velocity":0.3937007874015748},{"duration":0.2857140000000129,"midi":38,"time":116.99988300000001,"velocity":0.3937007874015748},{"duration":0.14285699999999224,"midi":38,"time":117.28559700000002,"velocity":0.3937007874015748},{"duration":0.14285699999999224,"midi":50,"time":117.28559700000002,"velocity":0.3937007874015748},{"duration":0.2857139999999987,"midi":45,"time":117.42845400000002,"velocity":0.3937007874015748},{"duration":0.2857139999999987,"midi":33,"time":117.42845400000002,"velocity":0.3937007874015748},{"duration":0.14285699999999224,"midi":45,"time":117.71416800000002,"velocity":0.3937007874015748},{"duration":0.14285699999999224,"midi":33,"time":117.71416800000002,"velocity":0.3937007874015748},{"duration":0.2857140000000129,"midi":33,"time":117.85702500000001,"velocity":0.3937007874015748},{"duration":0.2857140000000129,"midi":45,"time":117.85702500000001,"velocity":0.3937007874015748},{"duration":0.14285699999999224,"midi":45,"time":118.14273900000002,"velocity":0.3937007874015748},{"duration":0.14285699999999224,"midi":33,"time":118.14273900000002,"velocity":0.3937007874015748},{"duration":0.2857139999999987,"midi":38,"time":118.28559600000001,"velocity":0.3937007874015748},{"duration":0.2857139999999987,"midi":50,"time":118.28559600000001,"velocity":0.3937007874015748},{"duration":0.14285699999999224,"midi":50,"time":118.57131000000001,"velocity":0.3937007874015748},{"duration":0.14285699999999224,"midi":38,"time":118.57131000000001,"velocity":0.3937007874015748},{"duration":0.2857140000000129,"midi":50,"time":118.714167,"velocity":0.3937007874015748},{"duration":0.2857140000000129,"midi":38,"time":118.714167,"velocity":0.3937007874015748},{"duration":0.14285699999999224,"midi":38,"time":118.99988100000002,"velocity":0.3937007874015748},{"duration":0.14285699999999224,"midi":50,"time":118.99988100000002,"velocity":0.3937007874015748},{"duration":0.2857140000000129,"midi":38,"time":119.14273800000001,"velocity":0.3937007874015748},{"duration":0.2857140000000129,"midi":50,"time":119.14273800000001,"velocity":0.3937007874015748},{"duration":0.14285699999999224,"midi":38,"time":119.42845200000002,"velocity":0.3937007874015748},{"duration":0.14285699999999224,"midi":50,"time":119.42845200000002,"velocity":0.3937007874015748},{"duration":0.2857139999999987,"midi":50,"time":119.57130900000001,"velocity":0.3937007874015748},{"duration":0.2857139999999987,"midi":38,"time":119.57130900000001,"velocity":0.3937007874015748},{"duration":0.14285699999999224,"midi":50,"time":119.85702300000001,"velocity":0.3937007874015748},{"duration":0.14285699999999224,"midi":38,"time":119.85702300000001,"velocity":0.3937007874015748},{"duration":0.2857140000000129,"midi":50,"time":119.99988,"velocity":0.3937007874015748},{"duration":0.2857140000000129,"midi":38,"time":119.99988,"velocity":0.3937007874015748},{"duration":0.14285699999999224,"midi":50,"time":120.28559400000002,"velocity":0.3937007874015748},{"duration":0.14285699999999224,"midi":38,"time":120.28559400000002,"velocity":0.3937007874015748},{"duration":0.2857140000000129,"midi":38,"time":120.42845100000001,"velocity":0.3937007874015748},{"duration":0.2857140000000129,"midi":50,"time":120.42845100000001,"velocity":0.3937007874015748},{"duration":0.14285699999999224,"midi":38,"time":120.71416500000002,"velocity":0.3937007874015748},{"duration":0.14285699999999224,"midi":50,"time":120.71416500000002,"velocity":0.3937007874015748},{"duration":0.2857139999999987,"midi":36,"time":120.85702200000001,"velocity":0.3937007874015748},{"duration":0.2857139999999987,"midi":48,"time":120.85702200000001,"velocity":0.3937007874015748},{"duration":0.14285699999999224,"midi":48,"time":121.14273600000001,"velocity":0.3937007874015748},{"duration":0.14285699999999224,"midi":36,"time":121.14273600000001,"velocity":0.3937007874015748},{"duration":0.2857140000000129,"midi":36,"time":121.285593,"velocity":0.3937007874015748},{"duration":0.2857140000000129,"midi":48,"time":121.285593,"velocity":0.3937007874015748},{"duration":0.14285699999999224,"midi":48,"time":121.57130700000002,"velocity":0.3937007874015748},{"duration":0.14285699999999224,"midi":36,"time":121.57130700000002,"velocity":0.3937007874015748},{"duration":0.2857140000000129,"midi":41,"time":121.71416400000001,"velocity":0.3937007874015748},{"duration":0.2857140000000129,"midi":53,"time":121.71416400000001,"velocity":0.3937007874015748},{"duration":0.14285699999999224,"midi":53,"time":121.99987800000002,"velocity":0.3937007874015748},{"duration":0.14285699999999224,"midi":41,"time":121.99987800000002,"velocity":0.3937007874015748},{"duration":0.2857139999999987,"midi":41,"time":122.14273500000002,"velocity":0.3937007874015748},{"duration":0.2857139999999987,"midi":53,"time":122.14273500000002,"velocity":0.3937007874015748},{"duration":0.14285699999999224,"midi":53,"time":122.42844900000001,"velocity":0.3937007874015748},{"duration":0.14285699999999224,"midi":41,"time":122.42844900000001,"velocity":0.3937007874015748},{"duration":0.2857140000000129,"midi":46,"time":122.571306,"velocity":0.3937007874015748},{"duration":0.2857140000000129,"midi":34,"time":122.571306,"velocity":0.3937007874015748},{"duration":0.14285699999999224,"midi":34,"time":122.85702000000002,"velocity":0.3937007874015748},{"duration":0.14285699999999224,"midi":46,"time":122.85702000000002,"velocity":0.3937007874015748},{"duration":0.2857140000000129,"midi":34,"time":122.99987700000001,"velocity":0.3937007874015748},{"duration":0.2857140000000129,"midi":46,"time":122.99987700000001,"velocity":0.3937007874015748},{"duration":0.14285699999997803,"midi":34,"time":123.28559100000003,"velocity":0.3937007874015748},{"duration":0.14285699999997803,"midi":46,"time":123.28559100000003,"velocity":0.3937007874015748},{"duration":0.2857140000000129,"midi":38,"time":123.428448,"velocity":0.3937007874015748},{"duration":0.2857140000000129,"midi":50,"time":123.428448,"velocity":0.3937007874015748},{"duration":0.14285699999999224,"midi":50,"time":123.71416200000002,"velocity":0.3937007874015748},{"duration":0.14285699999999224,"midi":38,"time":123.71416200000002,"velocity":0.3937007874015748},{"duration":0.2857140000000129,"midi":38,"time":123.85701900000001,"velocity":0.3937007874015748},{"duration":0.2857140000000129,"midi":50,"time":123.85701900000001,"velocity":0.3937007874015748},{"duration":0.14285699999999224,"midi":50,"time":124.14273300000002,"velocity":0.3937007874015748},{"duration":0.14285699999999224,"midi":38,"time":124.14273300000002,"velocity":0.3937007874015748},{"duration":0.2857139999999987,"midi":46,"time":124.28559000000001,"velocity":0.3937007874015748},{"duration":0.2857139999999987,"midi":34,"time":124.28559000000001,"velocity":0.3937007874015748},{"duration":0.14285699999999224,"midi":46,"time":124.57130400000001,"velocity":0.3937007874015748},{"duration":0.14285699999999224,"midi":34,"time":124.57130400000001,"velocity":0.3937007874015748},{"duration":0.2857140000000129,"midi":34,"time":124.714161,"velocity":0.3937007874015748},{"duration":0.2857140000000129,"midi":46,"time":124.714161,"velocity":0.3937007874015748},{"duration":0.14285699999999224,"midi":46,"time":124.99987500000002,"velocity":0.3937007874015748},{"duration":0.14285699999999224,"midi":34,"time":124.99987500000002,"velocity":0.3937007874015748},{"duration":0.2857140000000129,"midi":33,"time":125.14273200000001,"velocity":0.3937007874015748},{"duration":0.2857140000000129,"midi":45,"time":125.14273200000001,"velocity":0.3937007874015748},{"duration":0.14285699999999224,"midi":33,"time":125.42844600000002,"velocity":0.3937007874015748},{"duration":0.14285699999999224,"midi":45,"time":125.42844600000002,"velocity":0.3937007874015748},{"duration":0.2857139999999987,"midi":33,"time":125.57130300000001,"velocity":0.3937007874015748},{"duration":0.2857139999999987,"midi":45,"time":125.57130300000001,"velocity":0.3937007874015748},{"duration":0.14285699999999224,"midi":33,"time":125.85701700000001,"velocity":0.3937007874015748},{"duration":0.14285699999999224,"midi":45,"time":125.85701700000001,"velocity":0.3937007874015748},{"duration":0.2857140000000129,"midi":45,"time":125.999874,"velocity":0.3937007874015748},{"duration":0.2857140000000129,"midi":33,"time":125.999874,"velocity":0.3937007874015748},{"duration":0.14285699999999224,"midi":45,"time":126.28558800000002,"velocity":0.3937007874015748},{"duration":0.14285699999999224,"midi":33,"time":126.28558800000002,"velocity":0.3937007874015748},{"duration":0.2857140000000129,"midi":45,"time":126.42844500000001,"velocity":0.3937007874015748},{"duration":0.2857140000000129,"midi":33,"time":126.42844500000001,"velocity":0.3937007874015748},{"duration":0.14285699999999224,"midi":45,"time":126.71415900000002,"velocity":0.3937007874015748},{"duration":0.14285699999999224,"midi":33,"time":126.71415900000002,"velocity":0.3937007874015748},{"duration":0.2857139999999987,"midi":38,"time":126.85701600000002,"velocity":0.3937007874015748},{"duration":0.2857139999999987,"midi":50,"time":126.85701600000002,"velocity":0.3937007874015748},{"duration":0.14285699999999224,"midi":38,"time":127.14273000000001,"velocity":0.3937007874015748},{"duration":0.14285699999999224,"midi":50,"time":127.14273000000001,"velocity":0.3937007874015748},{"duration":0.2857140000000129,"midi":52,"time":127.285587,"velocity":0.3937007874015748},{"duration":0.2857140000000129,"midi":40,"time":127.285587,"velocity":0.3937007874015748},{"duration":0.14285699999999224,"midi":52,"time":127.57130100000002,"velocity":0.3937007874015748},{"duration":0.14285699999999224,"midi":40,"time":127.57130100000002,"velocity":0.3937007874015748},{"duration":0.2857140000000129,"midi":41,"time":127.71415800000001,"velocity":0.3937007874015748},{"duration":0.2857140000000129,"midi":53,"time":127.71415800000001,"velocity":0.3937007874015748},{"duration":0.14285699999997803,"midi":53,"time":127.99987200000002,"velocity":0.3937007874015748},{"duration":0.14285699999997803,"midi":41,"time":127.99987200000002,"velocity":0.3937007874015748},{"duration":0.2857140000000129,"midi":43,"time":128.142729,"velocity":0.3937007874015748},{"duration":0.2857140000000129,"midi":55,"time":128.142729,"velocity":0.3937007874015748},{"duration":0.14285699999999224,"midi":43,"time":128.42844300000002,"velocity":0.3937007874015748},{"duration":0.14285699999999224,"midi":55,"time":128.42844300000002,"velocity":0.3937007874015748},{"duration":0.2857140000000129,"midi":50,"time":128.5713,"velocity":0.3937007874015748},{"duration":0.2857140000000129,"midi":57,"time":128.5713,"velocity":0.3937007874015748},{"duration":0.2857140000000129,"midi":45,"time":128.5713,"velocity":0.3937007874015748},{"duration":0.2857140000000129,"midi":53,"time":128.5713,"velocity":0.3937007874015748},{"duration":0.5714279999999974,"midi":57,"time":128.85701400000002,"velocity":0.3937007874015748},{"duration":0.5714279999999974,"midi":53,"time":128.85701400000002,"velocity":0.3937007874015748},{"duration":0.5714279999999974,"midi":45,"time":128.85701400000002,"velocity":0.3937007874015748},{"duration":0.5714279999999974,"midi":50,"time":128.85701400000002,"velocity":0.3937007874015748},{"duration":0.5714279999999974,"midi":53,"time":129.42844200000002,"velocity":0.3937007874015748},{"duration":0.5714279999999974,"midi":45,"time":129.42844200000002,"velocity":0.3937007874015748},{"duration":0.5714279999999974,"midi":57,"time":129.42844200000002,"velocity":0.3937007874015748},{"duration":0.5714279999999974,"midi":50,"time":129.42844200000002,"velocity":0.3937007874015748},{"duration":0.2857139999999845,"midi":57,"time":129.99987000000002,"velocity":0.3937007874015748},{"duration":0.2857139999999845,"midi":45,"time":129.99987000000002,"velocity":0.3937007874015748},{"duration":0.2857140000000129,"midi":49,"time":130.285584,"velocity":0.3937007874015748},{"duration":0.2857140000000129,"midi":45,"time":130.285584,"velocity":0.3937007874015748},{"duration":0.2857140000000129,"midi":57,"time":130.285584,"velocity":0.3937007874015748},{"duration":0.2857140000000129,"midi":52,"time":130.285584,"velocity":0.3937007874015748},{"duration":0.5714279999999974,"midi":52,"time":130.571298,"velocity":0.3937007874015748},{"duration":0.5714279999999974,"midi":45,"time":130.571298,"velocity":0.3937007874015748},{"duration":0.5714279999999974,"midi":49,"time":130.571298,"velocity":0.3937007874015748},{"duration":0.5714279999999974,"midi":57,"time":130.571298,"velocity":0.3937007874015748},{"duration":0.5714279999999974,"midi":49,"time":131.142726,"velocity":0.3937007874015748},{"duration":0.5714279999999974,"midi":52,"time":131.142726,"velocity":0.3937007874015748},{"duration":0.5714279999999974,"midi":57,"time":131.142726,"velocity":0.3937007874015748},{"duration":0.5714279999999974,"midi":45,"time":131.142726,"velocity":0.3937007874015748},{"duration":0.2857140000000129,"midi":48,"time":131.714154,"velocity":0.3937007874015748},{"duration":0.2857140000000129,"midi":60,"time":131.714154,"velocity":0.3937007874015748},{"duration":0.2857139999999845,"midi":38,"time":131.99986800000002,"velocity":0.3937007874015748},{"duration":0.2857139999999845,"midi":50,"time":131.99986800000002,"velocity":0.3937007874015748},{"duration":0.14285699999999224,"midi":50,"time":132.285582,"velocity":0.3937007874015748},{"duration":0.14285699999999224,"midi":38,"time":132.285582,"velocity":0.3937007874015748},{"duration":0.14285699999999224,"midi":50,"time":132.428439,"velocity":0.3937007874015748},{"duration":0.14285699999999224,"midi":38,"time":132.428439,"velocity":0.3937007874015748},{"duration":0.14285700000002066,"midi":38,"time":132.571296,"velocity":0.3937007874015748},{"duration":0.14285700000002066,"midi":50,"time":132.571296,"velocity":0.3937007874015748},{"duration":0.14285699999999224,"midi":50,"time":132.714153,"velocity":0.3937007874015748},{"duration":0.14285699999999224,"midi":38,"time":132.714153,"velocity":0.3937007874015748},{"duration":0.2857140000000129,"midi":31,"time":132.85701,"velocity":0.3937007874015748},{"duration":0.2857140000000129,"midi":43,"time":132.85701,"velocity":0.3937007874015748},{"duration":0.14285699999999224,"midi":43,"time":133.14272400000002,"velocity":0.3937007874015748},{"duration":0.14285699999999224,"midi":31,"time":133.14272400000002,"velocity":0.3937007874015748},{"duration":0.14285699999999224,"midi":31,"time":133.285581,"velocity":0.3937007874015748},{"duration":0.14285699999999224,"midi":43,"time":133.285581,"velocity":0.3937007874015748},{"duration":0.14285700000002066,"midi":31,"time":133.428438,"velocity":0.3937007874015748},{"duration":0.14285700000002066,"midi":43,"time":133.428438,"velocity":0.3937007874015748},{"duration":0.14285699999999224,"midi":43,"time":133.57129500000002,"velocity":0.3937007874015748},{"duration":0.14285699999999224,"midi":31,"time":133.57129500000002,"velocity":0.3937007874015748},{"duration":0.2857140000000129,"midi":53,"time":133.714152,"velocity":0.3937007874015748},{"duration":0.2857140000000129,"midi":41,"time":133.714152,"velocity":0.3937007874015748},{"duration":0.14285699999999224,"midi":41,"time":133.99986600000003,"velocity":0.3937007874015748},{"duration":0.14285699999999224,"midi":53,"time":133.99986600000003,"velocity":0.3937007874015748},{"duration":0.14285699999999224,"midi":41,"time":134.14272300000002,"velocity":0.3937007874015748},{"duration":0.14285699999999224,"midi":53,"time":134.14272300000002,"velocity":0.3937007874015748},{"duration":0.14285700000002066,"midi":41,"time":134.28558,"velocity":0.3937007874015748},{"duration":0.14285700000002066,"midi":53,"time":134.28558,"velocity":0.3937007874015748},{"duration":0.14285699999999224,"midi":41,"time":134.42843700000003,"velocity":0.3937007874015748},{"duration":0.14285699999999224,"midi":53,"time":134.42843700000003,"velocity":0.3937007874015748},{"duration":0.2857139999999845,"midi":48,"time":134.57129400000002,"velocity":0.3937007874015748},{"duration":0.2857139999999845,"midi":36,"time":134.57129400000002,"velocity":0.3937007874015748},{"duration":0.14285699999999224,"midi":48,"time":134.857008,"velocity":0.3937007874015748},{"duration":0.14285699999999224,"midi":36,"time":134.857008,"velocity":0.3937007874015748},{"duration":0.14285699999999224,"midi":36,"time":134.999865,"velocity":0.3937007874015748},{"duration":0.14285699999999224,"midi":48,"time":134.999865,"velocity":0.3937007874015748},{"duration":0.14285700000002066,"midi":36,"time":135.142722,"velocity":0.3937007874015748},{"duration":0.14285700000002066,"midi":48,"time":135.142722,"velocity":0.3937007874015748},{"duration":0.14285699999999224,"midi":36,"time":135.285579,"velocity":0.3937007874015748},{"duration":0.14285699999999224,"midi":48,"time":135.285579,"velocity":0.3937007874015748},{"duration":0.2857140000000129,"midi":43,"time":135.428436,"velocity":0.3937007874015748},{"duration":0.2857140000000129,"midi":31,"time":135.428436,"velocity":0.3937007874015748},{"duration":0.14285699999999224,"midi":31,"time":135.71415000000002,"velocity":0.3937007874015748},{"duration":0.14285699999999224,"midi":43,"time":135.71415000000002,"velocity":0.3937007874015748},{"duration":0.2857140000000129,"midi":31,"time":135.857007,"velocity":0.3937007874015748},{"duration":0.14285699999999224,"midi":43,"time":135.857007,"velocity":0.3937007874015748},{"duration":0.14285700000002066,"midi":43,"time":135.999864,"velocity":0.3937007874015748},{"duration":0.14285699999999224,"midi":31,"time":136.14272100000002,"velocity":0.3937007874015748},{"duration":0.14285699999999224,"midi":43,"time":136.14272100000002,"velocity":0.3937007874015748},{"duration":0.2857140000000129,"midi":45,"time":136.28557800000002,"velocity":0.3937007874015748},{"duration":0.2857140000000129,"midi":33,"time":136.28557800000002,"velocity":0.3937007874015748},{"duration":0.14285699999999224,"midi":33,"time":136.57129200000003,"velocity":0.3937007874015748},{"duration":0.14285699999999224,"midi":45,"time":136.57129200000003,"velocity":0.3937007874015748},{"duration":0.14285699999999224,"midi":33,"time":136.71414900000002,"velocity":0.3937007874015748},{"duration":0.14285699999999224,"midi":45,"time":136.71414900000002,"velocity":0.3937007874015748},{"duration":0.14285700000002066,"midi":33,"time":136.857006,"velocity":0.3937007874015748},{"duration":0.14285700000002066,"midi":45,"time":136.857006,"velocity":0.3937007874015748},{"duration":0.14285699999996382,"midi":45,"time":136.99986300000003,"velocity":0.3937007874015748},{"duration":0.14285699999996382,"midi":33,"time":136.99986300000003,"velocity":0.3937007874015748},{"duration":0.2857140000000129,"midi":45,"time":137.14272,"velocity":0.3937007874015748},{"duration":0.2857140000000129,"midi":33,"time":137.14272,"velocity":0.3937007874015748},{"duration":0.14285699999999224,"midi":33,"time":137.428434,"velocity":0.3937007874015748},{"duration":0.14285699999999224,"midi":45,"time":137.428434,"velocity":0.3937007874015748},{"duration":0.14285699999999224,"midi":45,"time":137.571291,"velocity":0.3937007874015748},{"duration":0.14285699999999224,"midi":33,"time":137.571291,"velocity":0.3937007874015748},{"duration":0.14285700000002066,"midi":33,"time":137.714148,"velocity":0.3937007874015748},{"duration":0.14285700000002066,"midi":45,"time":137.714148,"velocity":0.3937007874015748},{"duration":0.14285699999999224,"midi":33,"time":137.85700500000002,"velocity":0.3937007874015748},{"duration":0.14285699999999224,"midi":45,"time":137.85700500000002,"velocity":0.3937007874015748},{"duration":0.2857140000000129,"midi":50,"time":137.999862,"velocity":0.3937007874015748},{"duration":0.2857140000000129,"midi":38,"time":137.999862,"velocity":0.3937007874015748},{"duration":0.14285699999999224,"midi":50,"time":138.28557600000002,"velocity":0.3937007874015748},{"duration":0.14285699999999224,"midi":38,"time":138.28557600000002,"velocity":0.3937007874015748},{"duration":0.14285699999999224,"midi":50,"time":138.428433,"velocity":0.3937007874015748},{"duration":0.14285699999999224,"midi":38,"time":138.428433,"velocity":0.3937007874015748},{"duration":0.14285700000002066,"midi":38,"time":138.57129,"velocity":0.3937007874015748},{"duration":0.14285700000002066,"midi":50,"time":138.57129,"velocity":0.3937007874015748},{"duration":0.14285699999999224,"midi":50,"time":138.71414700000003,"velocity":0.3937007874015748},{"duration":0.14285699999999224,"midi":38,"time":138.71414700000003,"velocity":0.3937007874015748},{"duration":0.2857140000000129,"midi":38,"time":138.85700400000002,"velocity":0.3937007874015748},{"duration":0.2857140000000129,"midi":50,"time":138.85700400000002,"velocity":0.3937007874015748},{"duration":0.14285699999999224,"midi":38,"time":139.14271800000003,"velocity":0.3937007874015748},{"duration":0.14285699999999224,"midi":50,"time":139.14271800000003,"velocity":0.3937007874015748},{"duration":0.14285699999999224,"midi":50,"time":139.28557500000002,"velocity":0.3937007874015748},{"duration":0.14285699999999224,"midi":38,"time":139.28557500000002,"velocity":0.3937007874015748},{"duration":0.14285699999999224,"midi":38,"time":139.42843200000002,"velocity":0.3937007874015748},{"duration":0.14285699999999224,"midi":50,"time":139.42843200000002,"velocity":0.3937007874015748},{"duration":0.14285699999999224,"midi":50,"time":139.571289,"velocity":0.3937007874015748},{"duration":0.14285699999999224,"midi":38,"time":139.571289,"velocity":0.3937007874015748},{"duration":0.2857140000000129,"midi":34,"time":139.714146,"velocity":0.3937007874015748},{"duration":0.2857140000000129,"midi":46,"time":139.714146,"velocity":0.3937007874015748},{"duration":0.14285699999999224,"midi":46,"time":139.99986,"velocity":0.3937007874015748},{"duration":0.14285699999999224,"midi":34,"time":139.99986,"velocity":0.3937007874015748},{"duration":0.14285699999999224,"midi":34,"time":140.142717,"velocity":0.3937007874015748},{"duration":0.14285699999999224,"midi":46,"time":140.142717,"velocity":0.3937007874015748},{"duration":0.14285700000002066,"midi":34,"time":140.285574,"velocity":0.3937007874015748},{"duration":0.14285700000002066,"midi":46,"time":140.285574,"velocity":0.3937007874015748},{"duration":0.14285699999999224,"midi":34,"time":140.42843100000002,"velocity":0.3937007874015748},{"duration":0.14285699999999224,"midi":46,"time":140.42843100000002,"velocity":0.3937007874015748},{"duration":0.2857140000000129,"midi":53,"time":140.571288,"velocity":0.3937007874015748},{"duration":0.2857140000000129,"midi":41,"time":140.571288,"velocity":0.3937007874015748},{"duration":0.14285699999999224,"midi":53,"time":140.85700200000002,"velocity":0.3937007874015748},{"duration":0.14285699999999224,"midi":41,"time":140.85700200000002,"velocity":0.3937007874015748},{"duration":0.14285699999999224,"midi":41,"time":140.99985900000001,"velocity":0.3937007874015748},{"duration":0.14285699999999224,"midi":53,"time":140.99985900000001,"velocity":0.3937007874015748},{"duration":0.14285700000002066,"midi":53,"time":141.142716,"velocity":0.3937007874015748},{"duration":0.14285700000002066,"midi":41,"time":141.142716,"velocity":0.3937007874015748},{"duration":0.14285699999999224,"midi":41,"time":141.28557300000003,"velocity":0.3937007874015748},{"duration":0.14285699999999224,"midi":53,"time":141.28557300000003,"velocity":0.3937007874015748},{"duration":0.2857140000000129,"midi":48,"time":141.42843000000002,"velocity":0.3937007874015748},{"duration":0.2857140000000129,"midi":36,"time":141.42843000000002,"velocity":0.3937007874015748},{"duration":0.14285699999999224,"midi":36,"time":141.71414400000003,"velocity":0.3937007874015748},{"duration":0.14285699999999224,"midi":48,"time":141.71414400000003,"velocity":0.3937007874015748},{"duration":0.14285699999999224,"midi":36,"time":141.85700100000003,"velocity":0.3937007874015748},{"duration":0.14285699999999224,"midi":48,"time":141.85700100000003,"velocity":0.3937007874015748},{"duration":0.14285699999999224,"midi":36,"time":141.99985800000002,"velocity":0.3937007874015748},{"duration":0.14285699999999224,"midi":48,"time":141.99985800000002,"velocity":0.3937007874015748},{"duration":0.14285699999999224,"midi":48,"time":142.142715,"velocity":0.3937007874015748},{"duration":0.14285699999999224,"midi":36,"time":142.142715,"velocity":0.3937007874015748},{"duration":0.2857140000000129,"midi":31,"time":142.285572,"velocity":0.3937007874015748},{"duration":0.2857140000000129,"midi":43,"time":142.285572,"velocity":0.3937007874015748},{"duration":0.14285699999999224,"midi":31,"time":142.57128600000001,"velocity":0.3937007874015748},{"duration":0.14285699999999224,"midi":43,"time":142.57128600000001,"velocity":0.3937007874015748},{"duration":0.14285699999999224,"midi":43,"time":142.714143,"velocity":0.3937007874015748},{"duration":0.14285699999999224,"midi":31,"time":142.714143,"velocity":0.3937007874015748},{"duration":0.14285700000002066,"midi":31,"time":142.857,"velocity":0.3937007874015748},{"duration":0.14285700000002066,"midi":43,"time":142.857,"velocity":0.3937007874015748},{"duration":0.14285699999999224,"midi":43,"time":142.99985700000002,"velocity":0.3937007874015748},{"duration":0.14285699999999224,"midi":31,"time":142.99985700000002,"velocity":0.3937007874015748},{"duration":0.2857140000000129,"midi":45,"time":143.142714,"velocity":0.3937007874015748},{"duration":0.2857140000000129,"midi":33,"time":143.142714,"velocity":0.3937007874015748},{"duration":0.14285699999999224,"midi":33,"time":143.42842800000003,"velocity":0.3937007874015748},{"duration":0.14285699999999224,"midi":45,"time":143.42842800000003,"velocity":0.3937007874015748},{"duration":0.14285699999999224,"midi":33,"time":143.57128500000002,"velocity":0.3937007874015748},{"duration":0.14285699999999224,"midi":45,"time":143.57128500000002,"velocity":0.3937007874015748},{"duration":0.14285700000002066,"midi":33,"time":143.714142,"velocity":0.3937007874015748},{"duration":0.14285700000002066,"midi":45,"time":143.714142,"velocity":0.3937007874015748},{"duration":0.14285699999999224,"midi":45,"time":143.85699900000003,"velocity":0.3937007874015748},{"duration":0.14285699999999224,"midi":33,"time":143.85699900000003,"velocity":0.3937007874015748},{"duration":0.2857139999999845,"midi":45,"time":143.99985600000002,"velocity":0.3937007874015748},{"duration":0.2857139999999845,"midi":33,"time":143.99985600000002,"velocity":0.3937007874015748},{"duration":0.14285699999999224,"midi":33,"time":144.28557,"velocity":0.3937007874015748},{"duration":0.14285699999999224,"midi":45,"time":144.28557,"velocity":0.3937007874015748},{"duration":0.14285699999999224,"midi":33,"time":144.428427,"velocity":0.3937007874015748},{"duration":0.14285699999999224,"midi":45,"time":144.428427,"velocity":0.3937007874015748},{"duration":0.14285700000002066,"midi":33,"time":144.571284,"velocity":0.3937007874015748},{"duration":0.14285700000002066,"midi":45,"time":144.571284,"velocity":0.3937007874015748},{"duration":0.14285699999999224,"midi":45,"time":144.714141,"velocity":0.3937007874015748},{"duration":0.14285699999999224,"midi":33,"time":144.714141,"velocity":0.3937007874015748},{"duration":0.42857100000000514,"midi":38,"time":144.856998,"velocity":0.3937007874015748},{"duration":0.42857100000000514,"midi":50,"time":144.856998,"velocity":0.3937007874015748},{"duration":0.42857100000000514,"midi":50,"time":145.285569,"velocity":0.3937007874015748},{"duration":0.42857100000000514,"midi":38,"time":145.285569,"velocity":0.3937007874015748},{"duration":1.7142839999999921,"midi":38,"time":145.71414000000001,"velocity":0.3937007874015748},{"duration":1.7142839999999921,"midi":50,"time":145.71414000000001,"velocity":0.3937007874015748}]},{"instrument":{"family":"piano","number":0,"name":"acoustic grand piano"},"notes":[{"duration":0.8571419999999996,"midi":50,"time":3.4285680000000003,"velocity":0.3937007874015748},{"duration":0.8571419999999996,"midi":38,"time":3.4285680000000003,"velocity":0.3937007874015748},{"duration":0.4285710000000007,"midi":50,"time":4.28571,"velocity":0.3937007874015748},{"duration":0.4285710000000007,"midi":38,"time":4.28571,"velocity":0.3937007874015748},{"duration":0.4285709999999998,"midi":38,"time":4.714281000000001,"velocity":0.3937007874015748},{"duration":0.4285709999999998,"midi":50,"time":4.714281000000001,"velocity":0.3937007874015748},{"duration":0.2857139999999996,"midi":50,"time":5.142852,"velocity":0.3937007874015748},{"duration":0.2857139999999996,"midi":38,"time":5.142852,"velocity":0.3937007874015748},{"duration":0.14285700000000023,"midi":50,"time":5.428566,"velocity":0.3937007874015748},{"duration":0.14285700000000023,"midi":38,"time":5.428566,"velocity":0.3937007874015748},{"duration":0.2857139999999996,"midi":38,"time":5.571423,"velocity":0.3937007874015748},{"duration":0.2857139999999996,"midi":50,"time":5.571423,"velocity":0.3937007874015748},{"duration":0.14285700000000112,"midi":48,"time":5.857137,"velocity":0.3937007874015748},{"duration":0.14285700000000112,"midi":36,"time":5.857137,"velocity":0.3937007874015748},{"duration":0.2857139999999996,"midi":34,"time":5.999994000000001,"velocity":0.3937007874015748},{"duration":0.2857139999999996,"midi":46,"time":5.999994000000001,"velocity":0.3937007874015748},{"duration":0.14285700000000023,"midi":46,"time":6.2857080000000005,"velocity":0.3937007874015748},{"duration":0.14285700000000023,"midi":34,"time":6.2857080000000005,"velocity":0.3937007874015748},{"duration":0.2857139999999996,"midi":34,"time":6.428565000000001,"velocity":0.3937007874015748},{"duration":0.2857139999999996,"midi":46,"time":6.428565000000001,"velocity":0.3937007874015748},{"duration":0.14285700000000023,"midi":34,"time":6.714279,"velocity":0.3937007874015748},{"duration":0.14285700000000023,"midi":46,"time":6.714279,"velocity":0.3937007874015748},{"duration":0.28571400000000047,"midi":33,"time":6.857136000000001,"velocity":0.3937007874015748},{"duration":0.28571400000000047,"midi":45,"time":6.857136000000001,"velocity":0.3937007874015748},{"duration":0.14285699999999935,"midi":45,"time":7.142850000000001,"velocity":0.3937007874015748},{"duration":0.14285699999999935,"midi":33,"time":7.142850000000001,"velocity":0.3937007874015748},{"duration":0.28571400000000047,"midi":33,"time":7.285707,"velocity":0.3937007874015748},{"duration":0.28571400000000047,"midi":45,"time":7.285707,"velocity":0.3937007874015748},{"duration":0.14285699999999935,"midi":45,"time":7.571421000000001,"velocity":0.3937007874015748},{"duration":0.14285699999999935,"midi":33,"time":7.571421000000001,"velocity":0.3937007874015748},{"duration":0.28571400000000136,"midi":38,"time":7.714278,"velocity":0.3937007874015748},{"duration":0.28571400000000136,"midi":50,"time":7.714278,"velocity":0.3937007874015748},{"duration":0.14285699999999846,"midi":38,"time":7.9999920000000015,"velocity":0.3937007874015748},{"duration":0.14285699999999846,"midi":50,"time":7.9999920000000015,"velocity":0.3937007874015748},{"duration":0.28571400000000047,"midi":38,"time":8.142849,"velocity":0.3937007874015748},{"duration":0.28571400000000047,"midi":45,"time":8.142849,"velocity":0.3937007874015748},{"duration":0.14285699999999935,"midi":45,"time":8.428563,"velocity":0.3937007874015748},{"duration":0.14285699999999935,"midi":38,"time":8.428563,"velocity":0.3937007874015748},{"duration":0.28571400000000224,"midi":46,"time":8.57142,"velocity":0.3937007874015748},{"duration":0.28571400000000224,"midi":34,"time":8.57142,"velocity":0.3937007874015748},{"duration":0.14285699999999935,"midi":46,"time":8.857134000000002,"velocity":0.3937007874015748},{"duration":0.14285699999999935,"midi":34,"time":8.857134000000002,"velocity":0.3937007874015748},{"duration":0.28571400000000047,"midi":34,"time":8.999991000000001,"velocity":0.3937007874015748},{"duration":0.28571400000000047,"midi":46,"time":8.999991000000001,"velocity":0.3937007874015748},{"duration":0.14285699999999935,"midi":46,"time":9.285705000000002,"velocity":0.3937007874015748},{"duration":0.14285699999999935,"midi":34,"time":9.285705000000002,"velocity":0.3937007874015748},{"duration":0.28571400000000047,"midi":29,"time":9.428562000000001,"velocity":0.3937007874015748},{"duration":0.28571400000000047,"midi":41,"time":9.428562000000001,"velocity":0.3937007874015748},{"duration":0.14285699999999935,"midi":41,"time":9.714276000000002,"velocity":0.3937007874015748},{"duration":0.14285699999999935,"midi":29,"time":9.714276000000002,"velocity":0.3937007874015748},{"duration":0.28571400000000047,"midi":29,"time":9.857133000000001,"velocity":0.3937007874015748},{"duration":0.28571400000000047,"midi":41,"time":9.857133000000001,"velocity":0.3937007874015748},{"duration":0.14285699999999935,"midi":29,"time":10.142847000000002,"velocity":0.3937007874015748},{"duration":0.14285699999999935,"midi":41,"time":10.142847000000002,"velocity":0.3937007874015748},{"duration":0.28571400000000047,"midi":48,"time":10.285704,"velocity":0.3937007874015748},{"duration":0.28571400000000047,"midi":36,"time":10.285704,"velocity":0.3937007874015748},{"duration":0.14285699999999935,"midi":36,"time":10.571418000000001,"velocity":0.3937007874015748},{"duration":0.14285699999999935,"midi":48,"time":10.571418000000001,"velocity":0.3937007874015748},{"duration":0.28571400000000047,"midi":45,"time":10.714275,"velocity":0.3937007874015748},{"duration":0.28571400000000047,"midi":33,"time":10.714275,"velocity":0.3937007874015748},{"duration":0.14285699999999935,"midi":45,"time":10.999989000000001,"velocity":0.3937007874015748},{"duration":0.14285699999999935,"midi":33,"time":10.999989000000001,"velocity":0.3937007874015748},{"duration":0.28571400000000047,"midi":50,"time":11.142846,"velocity":0.3937007874015748},{"duration":0.28571400000000047,"midi":38,"time":11.142846,"velocity":0.3937007874015748},{"duration":0.14285699999999935,"midi":50,"time":11.428560000000001,"velocity":0.3937007874015748},{"duration":0.14285699999999935,"midi":38,"time":11.428560000000001,"velocity":0.3937007874015748},{"duration":0.28571400000000047,"midi":38,"time":11.571417,"velocity":0.3937007874015748},{"duration":0.28571400000000047,"midi":45,"time":11.571417,"velocity":0.3937007874015748},{"duration":0.14285700000000112,"midi":45,"time":11.857131,"velocity":0.3937007874015748},{"duration":0.14285700000000112,"midi":38,"time":11.857131,"velocity":0.3937007874015748},{"duration":0.28571400000000047,"midi":50,"time":11.999988000000002,"velocity":0.3937007874015748},{"duration":0.28571400000000047,"midi":38,"time":11.999988000000002,"velocity":0.3937007874015748},{"duration":0.14285699999999935,"midi":38,"time":12.285702000000002,"velocity":0.3937007874015748},{"duration":0.14285699999999935,"midi":50,"time":12.285702000000002,"velocity":0.3937007874015748},{"duration":0.28571400000000047,"midi":50,"time":12.428559000000002,"velocity":0.3937007874015748},{"duration":0.28571400000000047,"midi":38,"time":12.428559000000002,"velocity":0.3937007874015748},{"duration":0.14285699999999935,"midi":50,"time":12.714273000000002,"velocity":0.3937007874015748},{"duration":0.14285699999999935,"midi":38,"time":12.714273000000002,"velocity":0.3937007874015748},{"duration":0.28571400000000047,"midi":34,"time":12.857130000000002,"velocity":0.3937007874015748},{"duration":0.28571400000000047,"midi":46,"time":12.857130000000002,"velocity":0.3937007874015748},{"duration":0.14285699999999935,"midi":34,"time":13.142844000000002,"velocity":0.3937007874015748},{"duration":0.14285699999999935,"midi":46,"time":13.142844000000002,"velocity":0.3937007874015748},{"duration":0.28571400000000047,"midi":34,"time":13.285701000000001,"velocity":0.3937007874015748},{"duration":0.28571400000000047,"midi":46,"time":13.285701000000001,"velocity":0.3937007874015748},{"duration":0.14285699999999935,"midi":46,"time":13.571415000000002,"velocity":0.3937007874015748},{"duration":0.14285699999999935,"midi":34,"time":13.571415000000002,"velocity":0.3937007874015748},{"duration":0.2857139999999987,"midi":31,"time":13.714272000000001,"velocity":0.3937007874015748},{"duration":0.2857139999999987,"midi":43,"time":13.714272000000001,"velocity":0.3937007874015748},{"duration":0.14285700000000112,"midi":31,"time":13.999986,"velocity":0.3937007874015748},{"duration":0.14285700000000112,"midi":43,"time":13.999986,"velocity":0.3937007874015748},{"duration":0.2857139999999987,"midi":31,"time":14.142843000000001,"velocity":0.3937007874015748},{"duration":0.2857139999999987,"midi":43,"time":14.142843000000001,"velocity":0.3937007874015748},{"duration":0.14285700000000112,"midi":43,"time":14.428557,"velocity":0.3937007874015748},{"duration":0.14285700000000112,"midi":31,"time":14.428557,"velocity":0.3937007874015748},{"duration":0.2857139999999987,"midi":38,"time":14.571414,"velocity":0.3937007874015748},{"duration":0.2857139999999987,"midi":50,"time":14.571414,"velocity":0.3937007874015748},{"duration":0.14285700000000112,"midi":50,"time":14.857128,"velocity":0.3937007874015748},{"duration":0.14285700000000112,"midi":38,"time":14.857128,"velocity":0.3937007874015748},{"duration":0.28571400000000047,"midi":45,"time":14.999985,"velocity":0.3937007874015748},{"duration":0.28571400000000047,"midi":38,"time":14.999985,"velocity":0.3937007874015748},{"duration":0.14285699999999935,"midi":45,"time":15.285699000000001,"velocity":0.3937007874015748},{"duration":0.14285699999999935,"midi":38,"time":15.285699000000001,"velocity":0.3937007874015748},{"duration":0.28571400000000047,"midi":46,"time":15.428556,"velocity":0.3937007874015748},{"duration":0.28571400000000047,"midi":34,"time":15.428556,"velocity":0.3937007874015748},{"duration":0.14285700000000112,"midi":34,"time":15.71427,"velocity":0.3937007874015748},{"duration":0.14285700000000112,"midi":46,"time":15.71427,"velocity":0.3937007874015748},{"duration":0.2857139999999987,"midi":46,"time":15.857127000000002,"velocity":0.3937007874015748},{"duration":0.2857139999999987,"midi":34,"time":15.857127000000002,"velocity":0.3937007874015748},{"duration":0.14285699999999935,"midi":46,"time":16.142841,"velocity":0.3937007874015748},{"duration":0.14285699999999935,"midi":34,"time":16.142841,"velocity":0.3937007874015748},{"duration":0.2857139999999987,"midi":50,"time":16.285698,"velocity":0.3937007874015748},{"duration":0.2857139999999987,"midi":38,"time":16.285698,"velocity":0.3937007874015748},{"duration":0.1428570000000029,"midi":38,"time":16.571412,"velocity":0.3937007874015748},{"duration":0.1428570000000029,"midi":50,"time":16.571412,"velocity":0.3937007874015748},{"duration":0.2857139999999987,"midi":50,"time":16.714269,"velocity":0.3937007874015748},{"duration":0.2857139999999987,"midi":38,"time":16.714269,"velocity":0.3937007874015748},{"duration":0.14285699999999935,"midi":38,"time":16.999983,"velocity":0.3937007874015748},{"duration":0.14285699999999935,"midi":50,"time":16.999983,"velocity":0.3937007874015748},{"duration":0.28571400000000224,"midi":33,"time":17.14284,"velocity":0.3937007874015748},{"duration":0.28571400000000224,"midi":45,"time":17.14284,"velocity":0.3937007874015748},{"duration":0.14285699999999935,"midi":45,"time":17.428554000000002,"velocity":0.3937007874015748},{"duration":0.14285699999999935,"midi":33,"time":17.428554000000002,"velocity":0.3937007874015748},{"duration":0.2857139999999987,"midi":45,"time":17.571411,"velocity":0.3937007874015748},{"duration":0.2857139999999987,"midi":33,"time":17.571411,"velocity":0.3937007874015748},{"duration":0.1428570000000029,"midi":45,"time":17.857125,"velocity":0.3937007874015748},{"duration":0.1428570000000029,"midi":33,"time":17.857125,"velocity":0.3937007874015748},{"duration":0.2857139999999987,"midi":45,"time":17.999982000000003,"velocity":0.3937007874015748},{"duration":0.2857139999999987,"midi":33,"time":17.999982000000003,"velocity":0.3937007874015748},{"duration":0.14285699999999935,"midi":33,"time":18.285696,"velocity":0.3937007874015748},{"duration":0.14285699999999935,"midi":45,"time":18.285696,"velocity":0.3937007874015748},{"duration":0.2857139999999987,"midi":33,"time":18.428553,"velocity":0.3937007874015748},{"duration":0.2857139999999987,"midi":45,"time":18.428553,"velocity":0.3937007874015748},{"duration":0.1428570000000029,"midi":33,"time":18.714267,"velocity":0.3937007874015748},{"duration":0.1428570000000029,"midi":45,"time":18.714267,"velocity":0.3937007874015748},{"duration":0.2857139999999987,"midi":38,"time":18.857124000000002,"velocity":0.3937007874015748},{"duration":0.2857139999999987,"midi":50,"time":18.857124000000002,"velocity":0.3937007874015748},{"duration":0.14285699999999935,"midi":38,"time":19.142838,"velocity":0.3937007874015748},{"duration":0.14285699999999935,"midi":50,"time":19.142838,"velocity":0.3937007874015748},{"duration":0.2857139999999987,"midi":38,"time":19.285695,"velocity":0.3937007874015748},{"duration":0.2857139999999987,"midi":50,"time":19.285695,"velocity":0.3937007874015748},{"duration":0.1428570000000029,"midi":48,"time":19.571409,"velocity":0.3937007874015748},{"duration":0.1428570000000029,"midi":36,"time":19.571409,"velocity":0.3937007874015748},{"duration":0.2857139999999987,"midi":46,"time":19.714266000000002,"velocity":0.3937007874015748},{"duration":0.2857139999999987,"midi":34,"time":19.714266000000002,"velocity":0.3937007874015748},{"duration":0.14285699999999935,"midi":34,"time":19.99998,"velocity":0.3937007874015748},{"duration":0.14285699999999935,"midi":46,"time":19.99998,"velocity":0.3937007874015748},{"duration":0.28571400000000224,"midi":46,"time":20.142837,"velocity":0.3937007874015748},{"duration":0.28571400000000224,"midi":34,"time":20.142837,"velocity":0.3937007874015748},{"duration":0.14285699999999935,"midi":34,"time":20.428551000000002,"velocity":0.3937007874015748},{"duration":0.14285699999999935,"midi":46,"time":20.428551000000002,"velocity":0.3937007874015748},{"duration":0.2857139999999987,"midi":33,"time":20.571408,"velocity":0.3937007874015748},{"duration":0.2857139999999987,"midi":45,"time":20.571408,"velocity":0.3937007874015748},{"duration":0.1428570000000029,"midi":33,"time":20.857122,"velocity":0.3937007874015748},{"duration":0.1428570000000029,"midi":45,"time":20.857122,"velocity":0.3937007874015748},{"duration":0.2857139999999987,"midi":45,"time":20.999979000000003,"velocity":0.3937007874015748},{"duration":0.2857139999999987,"midi":33,"time":20.999979000000003,"velocity":0.3937007874015748},{"duration":0.14285699999999935,"midi":33,"time":21.285693000000002,"velocity":0.3937007874015748},{"duration":0.14285699999999935,"midi":45,"time":21.285693000000002,"velocity":0.3937007874015748},{"duration":0.2857139999999987,"midi":50,"time":21.42855,"velocity":0.3937007874015748},{"duration":0.2857139999999987,"midi":38,"time":21.42855,"velocity":0.3937007874015748},{"duration":0.1428570000000029,"midi":38,"time":21.714264,"velocity":0.3937007874015748},{"duration":0.1428570000000029,"midi":50,"time":21.714264,"velocity":0.3937007874015748},{"duration":0.2857139999999987,"midi":45,"time":21.857121000000003,"velocity":0.3937007874015748},{"duration":0.2857139999999987,"midi":38,"time":21.857121000000003,"velocity":0.3937007874015748},{"duration":0.14285699999999935,"midi":45,"time":22.142835,"velocity":0.3937007874015748},{"duration":0.14285699999999935,"midi":38,"time":22.142835,"velocity":0.3937007874015748},{"duration":0.2857139999999987,"midi":34,"time":22.285692,"velocity":0.3937007874015748},{"duration":0.2857139999999987,"midi":46,"time":22.285692,"velocity":0.3937007874015748},{"duration":0.1428570000000029,"midi":46,"time":22.571406,"velocity":0.3937007874015748},{"duration":0.1428570000000029,"midi":34,"time":22.571406,"velocity":0.3937007874015748},{"duration":0.2857139999999987,"midi":34,"time":22.714263000000003,"velocity":0.3937007874015748},{"duration":0.2857139999999987,"midi":46,"time":22.714263000000003,"velocity":0.3937007874015748},{"duration":0.14285699999999935,"midi":46,"time":22.999977,"velocity":0.3937007874015748},{"duration":0.14285699999999935,"midi":34,"time":22.999977,"velocity":0.3937007874015748},{"duration":0.2857139999999987,"midi":41,"time":23.142834,"velocity":0.3937007874015748},{"duration":0.2857139999999987,"midi":29,"time":23.142834,"velocity":0.3937007874015748},{"duration":0.1428570000000029,"midi":29,"time":23.428548,"velocity":0.3937007874015748},{"duration":0.1428570000000029,"midi":41,"time":23.428548,"velocity":0.3937007874015748},{"duration":0.2857139999999987,"midi":41,"time":23.571405000000002,"velocity":0.3937007874015748},{"duration":0.2857139999999987,"midi":29,"time":23.571405000000002,"velocity":0.3937007874015748},{"duration":0.1428570000000029,"midi":41,"time":23.857119,"velocity":0.3937007874015748},{"duration":0.1428570000000029,"midi":29,"time":23.857119,"velocity":0.3937007874015748},{"duration":0.2857139999999987,"midi":36,"time":23.999976000000004,"velocity":0.3937007874015748},{"duration":0.2857139999999987,"midi":48,"time":23.999976000000004,"velocity":0.3937007874015748},{"duration":0.14285699999999935,"midi":48,"time":24.285690000000002,"velocity":0.3937007874015748},{"duration":0.14285699999999935,"midi":36,"time":24.285690000000002,"velocity":0.3937007874015748},{"duration":0.2857139999999987,"midi":45,"time":24.428547000000002,"velocity":0.3937007874015748},{"duration":0.2857139999999987,"midi":33,"time":24.428547000000002,"velocity":0.3937007874015748},{"duration":0.1428570000000029,"midi":33,"time":24.714261,"velocity":0.3937007874015748},{"duration":0.1428570000000029,"midi":45,"time":24.714261,"velocity":0.3937007874015748},{"duration":0.2857139999999987,"midi":38,"time":24.857118000000003,"velocity":0.3937007874015748},{"duration":0.2857139999999987,"midi":50,"time":24.857118000000003,"velocity":0.3937007874015748},{"duration":0.14285699999999935,"midi":38,"time":25.142832000000002,"velocity":0.3937007874015748},{"duration":0.14285699999999935,"midi":50,"time":25.142832000000002,"velocity":0.3937007874015748},{"duration":0.2857139999999987,"midi":45,"time":25.285689,"velocity":0.3937007874015748},{"duration":0.2857139999999987,"midi":38,"time":25.285689,"velocity":0.3937007874015748},{"duration":0.1428570000000029,"midi":45,"time":25.571403,"velocity":0.3937007874015748},{"duration":0.1428570000000029,"midi":38,"time":25.571403,"velocity":0.3937007874015748},{"duration":0.2857139999999987,"midi":50,"time":25.714260000000003,"velocity":0.3937007874015748},{"duration":0.2857139999999987,"midi":38,"time":25.714260000000003,"velocity":0.3937007874015748},{"duration":0.14285699999999935,"midi":50,"time":25.999974,"velocity":0.3937007874015748},{"duration":0.14285699999999935,"midi":38,"time":25.999974,"velocity":0.3937007874015748},{"duration":0.2857139999999987,"midi":38,"time":26.142831,"velocity":0.3937007874015748},{"duration":0.2857139999999987,"midi":50,"time":26.142831,"velocity":0.3937007874015748},{"duration":0.1428570000000029,"midi":38,"time":26.428545,"velocity":0.3937007874015748},{"duration":0.1428570000000029,"midi":50,"time":26.428545,"velocity":0.3937007874015748},{"duration":0.2857139999999987,"midi":46,"time":26.571402000000003,"velocity":0.3937007874015748},{"duration":0.2857139999999987,"midi":34,"time":26.571402000000003,"velocity":0.3937007874015748},{"duration":0.14285699999999935,"midi":34,"time":26.857116,"velocity":0.3937007874015748},{"duration":0.14285699999999935,"midi":46,"time":26.857116,"velocity":0.3937007874015748},{"duration":0.28571400000000224,"midi":34,"time":26.999973,"velocity":0.3937007874015748},{"duration":0.28571400000000224,"midi":46,"time":26.999973,"velocity":0.3937007874015748},{"duration":0.14285699999999935,"midi":46,"time":27.285687000000003,"velocity":0.3937007874015748},{"duration":0.14285699999999935,"midi":34,"time":27.285687000000003,"velocity":0.3937007874015748},{"duration":0.28571400000000224,"midi":43,"time":27.428544000000002,"velocity":0.3937007874015748},{"duration":0.28571400000000224,"midi":31,"time":27.428544000000002,"velocity":0.3937007874015748},{"duration":0.14285699999999935,"midi":31,"time":27.714258000000005,"velocity":0.3937007874015748},{"duration":0.14285699999999935,"midi":43,"time":27.714258000000005,"velocity":0.3937007874015748},{"duration":0.28571400000000224,"midi":31,"time":27.857115000000004,"velocity":0.3937007874015748},{"duration":0.28571400000000224,"midi":43,"time":27.857115000000004,"velocity":0.3937007874015748},{"duration":0.1428569999999958,"midi":31,"time":28.142829000000006,"velocity":0.3937007874015748},{"duration":0.1428569999999958,"midi":43,"time":28.142829000000006,"velocity":0.3937007874015748},{"duration":0.28571400000000224,"midi":38,"time":28.285686000000002,"velocity":0.3937007874015748},{"duration":0.28571400000000224,"midi":50,"time":28.285686000000002,"velocity":0.3937007874015748},{"duration":0.14285699999999935,"midi":38,"time":28.571400000000004,"velocity":0.3937007874015748},{"duration":0.14285699999999935,"midi":50,"time":28.571400000000004,"velocity":0.3937007874015748},{"duration":0.28571400000000224,"midi":45,"time":28.714257000000003,"velocity":0.3937007874015748},{"duration":0.28571400000000224,"midi":38,"time":28.714257000000003,"velocity":0.3937007874015748},{"duration":0.1428569999999958,"midi":45,"time":28.999971000000006,"velocity":0.3937007874015748},{"duration":0.1428569999999958,"midi":38,"time":28.999971000000006,"velocity":0.3937007874015748},{"duration":0.28571400000000224,"midi":46,"time":29.142828,"velocity":0.3937007874015748},{"duration":0.28571400000000224,"midi":34,"time":29.142828,"velocity":0.3937007874015748},{"duration":0.14285699999999935,"midi":46,"time":29.428542000000004,"velocity":0.3937007874015748},{"duration":0.14285699999999935,"midi":34,"time":29.428542000000004,"velocity":0.3937007874015748},{"duration":0.28571400000000224,"midi":34,"time":29.571399000000003,"velocity":0.3937007874015748},{"duration":0.28571400000000224,"midi":46,"time":29.571399000000003,"velocity":0.3937007874015748},{"duration":0.1428569999999958,"midi":34,"time":29.857113000000005,"velocity":0.3937007874015748},{"duration":0.1428569999999958,"midi":46,"time":29.857113000000005,"velocity":0.3937007874015748},{"duration":0.28571400000000224,"midi":38,"time":29.99997,"velocity":0.3937007874015748},{"duration":0.28571400000000224,"midi":50,"time":29.99997,"velocity":0.3937007874015748},{"duration":0.14285699999999935,"midi":38,"time":30.285684000000003,"velocity":0.3937007874015748},{"duration":0.14285699999999935,"midi":50,"time":30.285684000000003,"velocity":0.3937007874015748},{"duration":0.28571400000000224,"midi":50,"time":30.428541000000003,"velocity":0.3937007874015748},{"duration":0.28571400000000224,"midi":38,"time":30.428541000000003,"velocity":0.3937007874015748},{"duration":0.1428569999999958,"midi":50,"time":30.714255000000005,"velocity":0.3937007874015748},{"duration":0.1428569999999958,"midi":38,"time":30.714255000000005,"velocity":0.3937007874015748},{"duration":0.28571400000000224,"midi":33,"time":30.857112,"velocity":0.3937007874015748},{"duration":0.28571400000000224,"midi":45,"time":30.857112,"velocity":0.3937007874015748},{"duration":0.14285699999999935,"midi":45,"time":31.142826000000003,"velocity":0.3937007874015748},{"duration":0.14285699999999935,"midi":33,"time":31.142826000000003,"velocity":0.3937007874015748},{"duration":0.28571400000000224,"midi":45,"time":31.285683000000002,"velocity":0.3937007874015748},{"duration":0.28571400000000224,"midi":33,"time":31.285683000000002,"velocity":0.3937007874015748},{"duration":0.14285699999999935,"midi":33,"time":31.571397000000005,"velocity":0.3937007874015748},{"duration":0.14285699999999935,"midi":45,"time":31.571397000000005,"velocity":0.3937007874015748},{"duration":0.28571400000000224,"midi":50,"time":31.714254000000004,"velocity":0.3937007874015748},{"duration":0.28571400000000224,"midi":38,"time":31.714254000000004,"velocity":0.3937007874015748},{"duration":0.28571399999999514,"midi":38,"time":31.999968000000006,"velocity":0.3937007874015748},{"duration":0.28571399999999514,"midi":50,"time":31.999968000000006,"velocity":0.3937007874015748},{"duration":0.2857139999999987,"midi":36,"time":32.285682,"velocity":0.3937007874015748},{"duration":0.2857139999999987,"midi":48,"time":32.285682,"velocity":0.3937007874015748},{"duration":0.2857140000000058,"midi":36,"time":32.571396,"velocity":0.3937007874015748},{"duration":0.2857140000000058,"midi":48,"time":32.571396,"velocity":0.3937007874015748},{"duration":0.2857139999999916,"midi":36,"time":32.857110000000006,"velocity":0.3937007874015748},{"duration":0.2857139999999916,"midi":48,"time":32.857110000000006,"velocity":0.3937007874015748},{"duration":0.2857140000000058,"midi":46,"time":33.142824,"velocity":0.3937007874015748},{"duration":0.2857140000000058,"midi":34,"time":33.142824,"velocity":0.3937007874015748},{"duration":0.2857139999999987,"midi":33,"time":33.428538,"velocity":0.3937007874015748},{"duration":0.2857139999999987,"midi":45,"time":33.428538,"velocity":0.3937007874015748},{"duration":0.14285699999999935,"midi":33,"time":33.714252,"velocity":0.3937007874015748},{"duration":0.14285699999999935,"midi":45,"time":33.714252,"velocity":0.3937007874015748},{"duration":0.2857140000000058,"midi":33,"time":33.857109,"velocity":0.3937007874015748},{"duration":0.2857140000000058,"midi":45,"time":33.857109,"velocity":0.3937007874015748},{"duration":0.14285699999999224,"midi":33,"time":34.14282300000001,"velocity":0.3937007874015748},{"duration":0.14285699999999224,"midi":45,"time":34.14282300000001,"velocity":0.3937007874015748},{"duration":0.2857140000000058,"midi":45,"time":34.28568,"velocity":0.3937007874015748},{"duration":0.2857140000000058,"midi":33,"time":34.28568,"velocity":0.3937007874015748},{"duration":0.14285699999999935,"midi":33,"time":34.571394000000005,"velocity":0.3937007874015748},{"duration":0.14285699999999935,"midi":45,"time":34.571394000000005,"velocity":0.3937007874015748},{"duration":0.2857139999999987,"midi":45,"time":34.714251000000004,"velocity":0.3937007874015748},{"duration":0.2857139999999987,"midi":33,"time":34.714251000000004,"velocity":0.3937007874015748},{"duration":0.14285699999999935,"midi":33,"time":34.999965,"velocity":0.3937007874015748},{"duration":0.14285699999999935,"midi":45,"time":34.999965,"velocity":0.3937007874015748},{"duration":0.2857140000000058,"midi":31,"time":35.142822,"velocity":0.3937007874015748},{"duration":0.2857140000000058,"midi":43,"time":35.142822,"velocity":0.3937007874015748},{"duration":0.14285699999999224,"midi":43,"time":35.42853600000001,"velocity":0.3937007874015748},{"duration":0.14285699999999224,"midi":31,"time":35.42853600000001,"velocity":0.3937007874015748},{"duration":0.2857140000000058,"midi":43,"time":35.571393,"velocity":0.3937007874015748},{"duration":0.2857140000000058,"midi":31,"time":35.571393,"velocity":0.3937007874015748},{"duration":0.14285699999999935,"midi":43,"time":35.857107000000006,"velocity":0.3937007874015748},{"duration":0.14285699999999935,"midi":31,"time":35.857107000000006,"velocity":0.3937007874015748},{"duration":0.2857139999999987,"midi":43,"time":35.999964000000006,"velocity":0.3937007874015748},{"duration":0.2857139999999987,"midi":31,"time":35.999964000000006,"velocity":0.3937007874015748},{"duration":0.14285699999999935,"midi":31,"time":36.285678000000004,"velocity":0.3937007874015748},{"duration":0.14285699999999935,"midi":43,"time":36.285678000000004,"velocity":0.3937007874015748},{"duration":0.2857139999999987,"midi":43,"time":36.428535000000004,"velocity":0.3937007874015748},{"duration":0.2857139999999987,"midi":31,"time":36.428535000000004,"velocity":0.3937007874015748},{"duration":0.14285699999999935,"midi":31,"time":36.714249,"velocity":0.3937007874015748},{"duration":0.14285699999999935,"midi":43,"time":36.714249,"velocity":0.3937007874015748},{"duration":0.2857140000000058,"midi":45,"time":36.857106,"velocity":0.3937007874015748},{"duration":0.2857140000000058,"midi":33,"time":36.857106,"velocity":0.3937007874015748},{"duration":0.14285699999999224,"midi":33,"time":37.14282000000001,"velocity":0.3937007874015748},{"duration":0.14285699999999224,"midi":45,"time":37.14282000000001,"velocity":0.3937007874015748},{"duration":0.2857140000000058,"midi":33,"time":37.285677,"velocity":0.3937007874015748},{"duration":0.2857140000000058,"midi":45,"time":37.285677,"velocity":0.3937007874015748},{"duration":0.14285699999999935,"midi":45,"time":37.571391000000006,"velocity":0.3937007874015748},{"duration":0.14285699999999935,"midi":33,"time":37.571391000000006,"velocity":0.3937007874015748},{"duration":0.2857139999999987,"midi":45,"time":37.714248000000005,"velocity":0.3937007874015748},{"duration":0.2857139999999987,"midi":33,"time":37.714248000000005,"velocity":0.3937007874015748},{"duration":0.14285699999999935,"midi":33,"time":37.999962000000004,"velocity":0.3937007874015748},{"duration":0.14285699999999935,"midi":45,"time":37.999962000000004,"velocity":0.3937007874015748},{"duration":0.2857140000000058,"midi":45,"time":38.142819,"velocity":0.3937007874015748},{"duration":0.2857140000000058,"midi":33,"time":38.142819,"velocity":0.3937007874015748},{"duration":0.14285699999999224,"midi":33,"time":38.42853300000001,"velocity":0.3937007874015748},{"duration":0.14285699999999224,"midi":45,"time":38.42853300000001,"velocity":0.3937007874015748},{"duration":0.2857140000000058,"midi":50,"time":38.57139,"velocity":0.3937007874015748},{"duration":0.2857140000000058,"midi":38,"time":38.57139,"velocity":0.3937007874015748},{"duration":0.14285699999999935,"midi":50,"time":38.85710400000001,"velocity":0.3937007874015748},{"duration":0.14285699999999935,"midi":38,"time":38.85710400000001,"velocity":0.3937007874015748},{"duration":0.2857139999999987,"midi":38,"time":38.999961000000006,"velocity":0.3937007874015748},{"duration":0.2857139999999987,"midi":50,"time":38.999961000000006,"velocity":0.3937007874015748},{"duration":0.14285699999999935,"midi":38,"time":39.285675000000005,"velocity":0.3937007874015748},{"duration":0.14285699999999935,"midi":50,"time":39.285675000000005,"velocity":0.3937007874015748},{"duration":0.2857139999999987,"midi":38,"time":39.428532000000004,"velocity":0.3937007874015748},{"duration":0.2857139999999987,"midi":50,"time":39.428532000000004,"velocity":0.3937007874015748},{"duration":0.14285699999999935,"midi":38,"time":39.714246,"velocity":0.3937007874015748},{"duration":0.14285699999999935,"midi":50,"time":39.714246,"velocity":0.3937007874015748},{"duration":0.2857140000000058,"midi":50,"time":39.857103,"velocity":0.3937007874015748},{"duration":0.2857140000000058,"midi":38,"time":39.857103,"velocity":0.3937007874015748},{"duration":0.14285699999999224,"midi":50,"time":40.14281700000001,"velocity":0.3937007874015748},{"duration":0.14285699999999224,"midi":38,"time":40.14281700000001,"velocity":0.3937007874015748},{"duration":0.2857140000000058,"midi":48,"time":40.285674,"velocity":0.3937007874015748},{"duration":0.2857140000000058,"midi":36,"time":40.285674,"velocity":0.3937007874015748},{"duration":0.14285699999999935,"midi":48,"time":40.571388000000006,"velocity":0.3937007874015748},{"duration":0.14285699999999935,"midi":36,"time":40.571388000000006,"velocity":0.3937007874015748},{"duration":0.2857139999999987,"midi":48,"time":40.714245000000005,"velocity":0.3937007874015748},{"duration":0.2857139999999987,"midi":36,"time":40.714245000000005,"velocity":0.3937007874015748},{"duration":0.14285699999999935,"midi":36,"time":40.999959000000004,"velocity":0.3937007874015748},{"duration":0.14285699999999935,"midi":48,"time":40.999959000000004,"velocity":0.3937007874015748},{"duration":0.2857139999999987,"midi":41,"time":41.142816,"velocity":0.3937007874015748},{"duration":0.2857139999999987,"midi":53,"time":41.142816,"velocity":0.3937007874015748},{"duration":0.14285699999999935,"midi":53,"time":41.42853,"velocity":0.3937007874015748},{"duration":0.14285699999999935,"midi":41,"time":41.42853,"velocity":0.3937007874015748},{"duration":0.2857140000000058,"midi":41,"time":41.571387,"velocity":0.3937007874015748},{"duration":0.2857140000000058,"midi":53,"time":41.571387,"velocity":0.3937007874015748},{"duration":0.14285699999999935,"midi":41,"time":41.85710100000001,"velocity":0.3937007874015748},{"duration":0.14285699999999935,"midi":53,"time":41.85710100000001,"velocity":0.3937007874015748},{"duration":0.2857139999999987,"midi":50,"time":41.99995800000001,"velocity":0.3937007874015748},{"duration":0.2857139999999987,"midi":38,"time":41.99995800000001,"velocity":0.3937007874015748},{"duration":0.14285699999999935,"midi":38,"time":42.285672000000005,"velocity":0.3937007874015748},{"duration":0.14285699999999935,"midi":50,"time":42.285672000000005,"velocity":0.3937007874015748},{"duration":0.2857139999999987,"midi":50,"time":42.428529000000005,"velocity":0.3937007874015748},{"duration":0.2857139999999987,"midi":38,"time":42.428529000000005,"velocity":0.3937007874015748},{"duration":0.14285699999999935,"midi":38,"time":42.714243,"velocity":0.3937007874015748},{"duration":0.14285699999999935,"midi":50,"time":42.714243,"velocity":0.3937007874015748},{"duration":0.2857140000000058,"midi":38,"time":42.8571,"velocity":0.3937007874015748},{"duration":0.2857140000000058,"midi":50,"time":42.8571,"velocity":0.3937007874015748},{"duration":0.14285699999999224,"midi":38,"time":43.14281400000001,"velocity":0.3937007874015748},{"duration":0.14285699999999224,"midi":50,"time":43.14281400000001,"velocity":0.3937007874015748},{"duration":0.2857140000000058,"midi":50,"time":43.285671,"velocity":0.3937007874015748},{"duration":0.2857140000000058,"midi":38,"time":43.285671,"velocity":0.3937007874015748},{"duration":0.14285699999999935,"midi":38,"time":43.57138500000001,"velocity":0.3937007874015748},{"duration":0.14285699999999935,"midi":50,"time":43.57138500000001,"velocity":0.3937007874015748},{"duration":0.2857139999999987,"midi":33,"time":43.714242000000006,"velocity":0.3937007874015748},{"duration":0.2857139999999987,"midi":45,"time":43.714242000000006,"velocity":0.3937007874015748},{"duration":0.14285699999999935,"midi":33,"time":43.999956000000005,"velocity":0.3937007874015748},{"duration":0.14285699999999935,"midi":45,"time":43.999956000000005,"velocity":0.3937007874015748},{"duration":0.2857139999999987,"midi":45,"time":44.142813000000004,"velocity":0.3937007874015748},{"duration":0.2857139999999987,"midi":33,"time":44.142813000000004,"velocity":0.3937007874015748},{"duration":0.14285699999999935,"midi":45,"time":44.428527,"velocity":0.3937007874015748},{"duration":0.14285699999999935,"midi":33,"time":44.428527,"velocity":0.3937007874015748},{"duration":0.2857140000000058,"midi":50,"time":44.571384,"velocity":0.3937007874015748},{"duration":0.2857140000000058,"midi":38,"time":44.571384,"velocity":0.3937007874015748},{"duration":0.14285699999999935,"midi":38,"time":44.85709800000001,"velocity":0.3937007874015748},{"duration":0.14285699999999935,"midi":50,"time":44.85709800000001,"velocity":0.3937007874015748},{"duration":0.2857139999999987,"midi":38,"time":44.99995500000001,"velocity":0.3937007874015748},{"duration":0.2857139999999987,"midi":50,"time":44.99995500000001,"velocity":0.3937007874015748},{"duration":0.14285699999999935,"midi":38,"time":45.285669000000006,"velocity":0.3937007874015748},{"duration":0.14285699999999935,"midi":50,"time":45.285669000000006,"velocity":0.3937007874015748},{"duration":0.2857139999999987,"midi":50,"time":45.428526000000005,"velocity":0.3937007874015748},{"duration":0.2857139999999987,"midi":38,"time":45.428526000000005,"velocity":0.3937007874015748},{"duration":0.14285699999999935,"midi":50,"time":45.714240000000004,"velocity":0.3937007874015748},{"duration":0.14285699999999935,"midi":38,"time":45.714240000000004,"velocity":0.3937007874015748},{"duration":0.2857140000000058,"midi":50,"time":45.857097,"velocity":0.3937007874015748},{"duration":0.2857140000000058,"midi":38,"time":45.857097,"velocity":0.3937007874015748},{"duration":0.14285699999999224,"midi":50,"time":46.14281100000001,"velocity":0.3937007874015748},{"duration":0.14285699999999224,"midi":38,"time":46.14281100000001,"velocity":0.3937007874015748},{"duration":0.2857140000000058,"midi":36,"time":46.285668,"velocity":0.3937007874015748},{"duration":0.2857140000000058,"midi":48,"time":46.285668,"velocity":0.3937007874015748},{"duration":0.14285699999999935,"midi":36,"time":46.57138200000001,"velocity":0.3937007874015748},{"duration":0.14285699999999935,"midi":48,"time":46.57138200000001,"velocity":0.3937007874015748},{"duration":0.2857139999999987,"midi":36,"time":46.714239000000006,"velocity":0.3937007874015748},{"duration":0.2857139999999987,"midi":48,"time":46.714239000000006,"velocity":0.3937007874015748},{"duration":0.14285699999999935,"midi":48,"time":46.999953000000005,"velocity":0.3937007874015748},{"duration":0.14285699999999935,"midi":36,"time":46.999953000000005,"velocity":0.3937007874015748},{"duration":0.2857139999999987,"midi":41,"time":47.142810000000004,"velocity":0.3937007874015748},{"duration":0.2857139999999987,"midi":53,"time":47.142810000000004,"velocity":0.3937007874015748},{"duration":0.14285699999999935,"midi":53,"time":47.428524,"velocity":0.3937007874015748},{"duration":0.14285699999999935,"midi":41,"time":47.428524,"velocity":0.3937007874015748},{"duration":0.2857140000000058,"midi":53,"time":47.571381,"velocity":0.3937007874015748},{"duration":0.2857140000000058,"midi":41,"time":47.571381,"velocity":0.3937007874015748},{"duration":0.14285699999999935,"midi":41,"time":47.85709500000001,"velocity":0.3937007874015748},{"duration":0.14285699999999935,"midi":53,"time":47.85709500000001,"velocity":0.3937007874015748},{"duration":0.2857139999999987,"midi":48,"time":47.99995200000001,"velocity":0.3937007874015748},{"duration":0.2857139999999987,"midi":36,"time":47.99995200000001,"velocity":0.3937007874015748},{"duration":0.14285699999999935,"midi":48,"time":48.285666000000006,"velocity":0.3937007874015748},{"duration":0.14285699999999935,"midi":36,"time":48.285666000000006,"velocity":0.3937007874015748},{"duration":0.2857139999999987,"midi":36,"time":48.428523000000006,"velocity":0.3937007874015748},{"duration":0.2857139999999987,"midi":48,"time":48.428523000000006,"velocity":0.3937007874015748},{"duration":0.14285699999999935,"midi":36,"time":48.714237000000004,"velocity":0.3937007874015748},{"duration":0.14285699999999935,"midi":48,"time":48.714237000000004,"velocity":0.3937007874015748},{"duration":0.2857140000000058,"midi":38,"time":48.857094000000004,"velocity":0.3937007874015748},{"duration":0.2857140000000058,"midi":50,"time":48.857094000000004,"velocity":0.3937007874015748},{"duration":0.14285699999999224,"midi":50,"time":49.14280800000001,"velocity":0.3937007874015748},{"duration":0.14285699999999224,"midi":38,"time":49.14280800000001,"velocity":0.3937007874015748},{"duration":0.2857140000000058,"midi":50,"time":49.285665,"velocity":0.3937007874015748},{"duration":0.2857140000000058,"midi":38,"time":49.285665,"velocity":0.3937007874015748},{"duration":0.14285699999999935,"midi":50,"time":49.57137900000001,"velocity":0.3937007874015748},{"duration":0.14285699999999935,"midi":38,"time":49.57137900000001,"velocity":0.3937007874015748},{"duration":0.2857139999999987,"midi":33,"time":49.71423600000001,"velocity":0.3937007874015748},{"duration":0.2857139999999987,"midi":45,"time":49.71423600000001,"velocity":0.3937007874015748},{"duration":0.14285699999999935,"midi":33,"time":49.999950000000005,"velocity":0.3937007874015748},{"duration":0.14285699999999935,"midi":45,"time":49.999950000000005,"velocity":0.3937007874015748},{"duration":0.2857139999999987,"midi":45,"time":50.142807000000005,"velocity":0.3937007874015748},{"duration":0.2857139999999987,"midi":33,"time":50.142807000000005,"velocity":0.3937007874015748},{"duration":0.14285699999999935,"midi":33,"time":50.428521,"velocity":0.3937007874015748},{"duration":0.14285699999999935,"midi":45,"time":50.428521,"velocity":0.3937007874015748},{"duration":0.2857140000000058,"midi":38,"time":50.571378,"velocity":0.3937007874015748},{"duration":0.2857140000000058,"midi":50,"time":50.571378,"velocity":0.3937007874015748},{"duration":0.14285699999999224,"midi":50,"time":50.85709200000001,"velocity":0.3937007874015748},{"duration":0.14285699999999224,"midi":38,"time":50.85709200000001,"velocity":0.3937007874015748},{"duration":0.2857140000000058,"midi":38,"time":50.999949,"velocity":0.3937007874015748},{"duration":0.2857140000000058,"midi":50,"time":50.999949,"velocity":0.3937007874015748},{"duration":0.14285699999999935,"midi":38,"time":51.28566300000001,"velocity":0.3937007874015748},{"duration":0.14285699999999935,"midi":50,"time":51.28566300000001,"velocity":0.3937007874015748},{"duration":0.2857139999999987,"midi":38,"time":51.428520000000006,"velocity":0.3937007874015748},{"duration":0.2857139999999987,"midi":50,"time":51.428520000000006,"velocity":0.3937007874015748},{"duration":0.14285699999999935,"midi":50,"time":51.714234000000005,"velocity":0.3937007874015748},{"duration":0.14285699999999935,"midi":38,"time":51.714234000000005,"velocity":0.3937007874015748},{"duration":0.2857140000000058,"midi":50,"time":51.857091000000004,"velocity":0.3937007874015748},{"duration":0.2857140000000058,"midi":38,"time":51.857091000000004,"velocity":0.3937007874015748},{"duration":0.14285699999999224,"midi":38,"time":52.14280500000001,"velocity":0.3937007874015748},{"duration":0.14285699999999224,"midi":50,"time":52.14280500000001,"velocity":0.3937007874015748},{"duration":0.2857140000000058,"midi":38,"time":52.285662,"velocity":0.3937007874015748},{"duration":0.2857140000000058,"midi":50,"time":52.285662,"velocity":0.3937007874015748},{"duration":0.14285699999999935,"midi":38,"time":52.57137600000001,"velocity":0.3937007874015748},{"duration":0.14285699999999935,"midi":50,"time":52.57137600000001,"velocity":0.3937007874015748},{"duration":0.2857139999999987,"midi":50,"time":52.71423300000001,"velocity":0.3937007874015748},{"duration":0.2857139999999987,"midi":38,"time":52.71423300000001,"velocity":0.3937007874015748},{"duration":0.14285699999999935,"midi":50,"time":52.999947000000006,"velocity":0.3937007874015748},{"duration":0.14285699999999935,"midi":38,"time":52.999947000000006,"velocity":0.3937007874015748},{"duration":0.2857139999999987,"midi":48,"time":53.142804000000005,"velocity":0.3937007874015748},{"duration":0.2857139999999987,"midi":36,"time":53.142804000000005,"velocity":0.3937007874015748},{"duration":0.14285699999999935,"midi":48,"time":53.428518000000004,"velocity":0.3937007874015748},{"duration":0.14285699999999935,"midi":36,"time":53.428518000000004,"velocity":0.3937007874015748},{"duration":0.2857140000000058,"midi":48,"time":53.571375,"velocity":0.3937007874015748},{"duration":0.2857140000000058,"midi":36,"time":53.571375,"velocity":0.3937007874015748},{"duration":0.14285699999999224,"midi":36,"time":53.85708900000001,"velocity":0.3937007874015748},{"duration":0.14285699999999224,"midi":48,"time":53.85708900000001,"velocity":0.3937007874015748},{"duration":0.2857140000000058,"midi":41,"time":53.999946,"velocity":0.3937007874015748},{"duration":0.2857140000000058,"midi":53,"time":53.999946,"velocity":0.3937007874015748},{"duration":0.14285699999999935,"midi":41,"time":54.28566000000001,"velocity":0.3937007874015748},{"duration":0.14285699999999935,"midi":53,"time":54.28566000000001,"velocity":0.3937007874015748},{"duration":0.2857139999999987,"midi":41,"time":54.42851700000001,"velocity":0.3937007874015748},{"duration":0.2857139999999987,"midi":53,"time":54.42851700000001,"velocity":0.3937007874015748},{"duration":0.14285699999999935,"midi":53,"time":54.714231000000005,"velocity":0.3937007874015748},{"duration":0.14285699999999935,"midi":41,"time":54.714231000000005,"velocity":0.3937007874015748},{"duration":0.2857139999999987,"midi":46,"time":54.857088000000005,"velocity":0.3937007874015748},{"duration":0.2857139999999987,"midi":34,"time":54.857088000000005,"velocity":0.3937007874015748},{"duration":0.14285699999999935,"midi":34,"time":55.142802,"velocity":0.3937007874015748},{"duration":0.14285699999999935,"midi":46,"time":55.142802,"velocity":0.3937007874015748},{"duration":0.2857139999999987,"midi":46,"time":55.285659,"velocity":0.3937007874015748},{"duration":0.2857139999999987,"midi":34,"time":55.285659,"velocity":0.3937007874015748},{"duration":0.14285700000000645,"midi":46,"time":55.571373,"velocity":0.3937007874015748},{"duration":0.14285700000000645,"midi":34,"time":55.571373,"velocity":0.3937007874015748},{"duration":0.2857139999999916,"midi":50,"time":55.71423000000001,"velocity":0.3937007874015748},{"duration":0.2857139999999916,"midi":38,"time":55.71423000000001,"velocity":0.3937007874015748},{"duration":0.14285700000000645,"midi":38,"time":55.999944,"velocity":0.3937007874015748},{"duration":0.14285700000000645,"midi":50,"time":55.999944,"velocity":0.3937007874015748},{"duration":0.2857139999999916,"midi":50,"time":56.142801000000006,"velocity":0.3937007874015748},{"duration":0.2857139999999916,"midi":38,"time":56.142801000000006,"velocity":0.3937007874015748},{"duration":0.14285700000000645,"midi":50,"time":56.428515,"velocity":0.3937007874015748},{"duration":0.14285700000000645,"midi":38,"time":56.428515,"velocity":0.3937007874015748},{"duration":0.2857139999999987,"midi":46,"time":56.571372000000004,"velocity":0.3937007874015748},{"duration":0.2857139999999987,"midi":34,"time":56.571372000000004,"velocity":0.3937007874015748},{"duration":0.14285699999999935,"midi":46,"time":56.857086,"velocity":0.3937007874015748},{"duration":0.14285699999999935,"midi":34,"time":56.857086,"velocity":0.3937007874015748},{"duration":0.2857139999999987,"midi":34,"time":56.999943,"velocity":0.3937007874015748},{"duration":0.2857139999999987,"midi":46,"time":56.999943,"velocity":0.3937007874015748},{"duration":0.14285700000000645,"midi":46,"time":57.285657,"velocity":0.3937007874015748},{"duration":0.14285700000000645,"midi":34,"time":57.285657,"velocity":0.3937007874015748},{"duration":0.2857139999999916,"midi":33,"time":57.42851400000001,"velocity":0.3937007874015748},{"duration":0.2857139999999916,"midi":45,"time":57.42851400000001,"velocity":0.3937007874015748},{"duration":0.14285700000000645,"midi":45,"time":57.714228,"velocity":0.3937007874015748},{"duration":0.14285700000000645,"midi":33,"time":57.714228,"velocity":0.3937007874015748},{"duration":0.2857139999999987,"midi":33,"time":57.857085000000005,"velocity":0.3937007874015748},{"duration":0.2857139999999987,"midi":45,"time":57.857085000000005,"velocity":0.3937007874015748},{"duration":0.14285699999999935,"midi":45,"time":58.142799000000004,"velocity":0.3937007874015748},{"duration":0.14285699999999935,"midi":33,"time":58.142799000000004,"velocity":0.3937007874015748},{"duration":0.2857139999999987,"midi":45,"time":58.285656,"velocity":0.3937007874015748},{"duration":0.2857139999999987,"midi":33,"time":58.285656,"velocity":0.3937007874015748},{"duration":0.14285700000000645,"midi":33,"time":58.57137,"velocity":0.3937007874015748},{"duration":0.14285700000000645,"midi":45,"time":58.57137,"velocity":0.3937007874015748},{"duration":0.2857139999999916,"midi":45,"time":58.71422700000001,"velocity":0.3937007874015748},{"duration":0.2857139999999916,"midi":33,"time":58.71422700000001,"velocity":0.3937007874015748},{"duration":0.14285700000000645,"midi":45,"time":58.999941,"velocity":0.3937007874015748},{"duration":0.14285700000000645,"midi":33,"time":58.999941,"velocity":0.3937007874015748},{"duration":0.2857139999999916,"midi":38,"time":59.142798000000006,"velocity":0.3937007874015748},{"duration":0.2857139999999916,"midi":50,"time":59.142798000000006,"velocity":0.3937007874015748},{"duration":0.14285700000000645,"midi":38,"time":59.428512,"velocity":0.3937007874015748},{"duration":0.14285700000000645,"midi":50,"time":59.428512,"velocity":0.3937007874015748},{"duration":0.14285700000000645,"midi":50,"time":59.571369000000004,"velocity":0.3937007874015748},{"duration":0.14285700000000645,"midi":38,"time":59.571369000000004,"velocity":0.3937007874015748},{"duration":0.14285699999999224,"midi":38,"time":59.71422600000001,"velocity":0.3937007874015748},{"duration":0.14285699999999224,"midi":50,"time":59.71422600000001,"velocity":0.3937007874015748},{"duration":0.14285699999999935,"midi":50,"time":59.857083,"velocity":0.3937007874015748},{"duration":0.14285699999999935,"midi":38,"time":59.857083,"velocity":0.3937007874015748},{"duration":0.2857139999999987,"midi":43,"time":59.99994,"velocity":0.3937007874015748},{"duration":0.2857139999999987,"midi":31,"time":59.99994,"velocity":0.3937007874015748},{"duration":0.14285700000000645,"midi":43,"time":60.285654,"velocity":0.3937007874015748},{"duration":0.14285700000000645,"midi":31,"time":60.285654,"velocity":0.3937007874015748},{"duration":0.14285699999999935,"midi":43,"time":60.42851100000001,"velocity":0.3937007874015748},{"duration":0.14285699999999935,"midi":31,"time":60.42851100000001,"velocity":0.3937007874015748},{"duration":0.14285699999999224,"midi":31,"time":60.57136800000001,"velocity":0.3937007874015748},{"duration":0.14285699999999224,"midi":43,"time":60.57136800000001,"velocity":0.3937007874015748},{"duration":0.14285700000000645,"midi":43,"time":60.714225,"velocity":0.3937007874015748},{"duration":0.14285700000000645,"midi":31,"time":60.714225,"velocity":0.3937007874015748},{"duration":0.2857139999999987,"midi":41,"time":60.857082000000005,"velocity":0.3937007874015748},{"duration":0.2857139999999987,"midi":53,"time":60.857082000000005,"velocity":0.3937007874015748},{"duration":0.14285699999999935,"midi":53,"time":61.142796000000004,"velocity":0.3937007874015748},{"duration":0.14285699999999935,"midi":41,"time":61.142796000000004,"velocity":0.3937007874015748},{"duration":0.14285700000000645,"midi":53,"time":61.285653,"velocity":0.3937007874015748},{"duration":0.14285700000000645,"midi":41,"time":61.285653,"velocity":0.3937007874015748},{"duration":0.14285699999999224,"midi":53,"time":61.42851000000001,"velocity":0.3937007874015748},{"duration":0.14285699999999224,"midi":41,"time":61.42851000000001,"velocity":0.3937007874015748},{"duration":0.14285699999999935,"midi":41,"time":61.571367,"velocity":0.3937007874015748},{"duration":0.14285699999999935,"midi":53,"time":61.571367,"velocity":0.3937007874015748},{"duration":0.2857139999999987,"midi":36,"time":61.714224,"velocity":0.3937007874015748},{"duration":0.2857139999999987,"midi":48,"time":61.714224,"velocity":0.3937007874015748},{"duration":0.14285700000000645,"midi":48,"time":61.999938,"velocity":0.3937007874015748},{"duration":0.14285700000000645,"midi":36,"time":61.999938,"velocity":0.3937007874015748},{"duration":0.14285699999999935,"midi":48,"time":62.14279500000001,"velocity":0.3937007874015748},{"duration":0.14285699999999935,"midi":36,"time":62.14279500000001,"velocity":0.3937007874015748},{"duration":0.14285699999999224,"midi":36,"time":62.285652000000006,"velocity":0.3937007874015748},{"duration":0.14285699999999224,"midi":48,"time":62.285652000000006,"velocity":0.3937007874015748},{"duration":0.14285700000000645,"midi":48,"time":62.428509,"velocity":0.3937007874015748},{"duration":0.14285700000000645,"midi":36,"time":62.428509,"velocity":0.3937007874015748},{"duration":0.2857139999999987,"midi":43,"time":62.571366000000005,"velocity":0.3937007874015748},{"duration":0.2857139999999987,"midi":31,"time":62.571366000000005,"velocity":0.3937007874015748},{"duration":0.14285699999999935,"midi":43,"time":62.85708,"velocity":0.3937007874015748},{"duration":0.14285699999999935,"midi":31,"time":62.85708,"velocity":0.3937007874015748},{"duration":0.14285700000000645,"midi":43,"time":62.999937,"velocity":0.3937007874015748},{"duration":0.14285700000000645,"midi":31,"time":62.999937,"velocity":0.3937007874015748},{"duration":0.14285699999999224,"midi":43,"time":63.14279400000001,"velocity":0.3937007874015748},{"duration":0.14285699999999224,"midi":31,"time":63.14279400000001,"velocity":0.3937007874015748},{"duration":0.14285700000000645,"midi":31,"time":63.285651,"velocity":0.3937007874015748},{"duration":0.14285700000000645,"midi":43,"time":63.285651,"velocity":0.3937007874015748},{"duration":0.2857139999999916,"midi":33,"time":63.42850800000001,"velocity":0.3937007874015748},{"duration":0.2857139999999916,"midi":45,"time":63.42850800000001,"velocity":0.3937007874015748},{"duration":0.14285700000000645,"midi":45,"time":63.714222,"velocity":0.3937007874015748},{"duration":0.14285700000000645,"midi":33,"time":63.714222,"velocity":0.3937007874015748},{"duration":0.14285700000000645,"midi":45,"time":63.857079000000006,"velocity":0.3937007874015748},{"duration":0.14285700000000645,"midi":33,"time":63.857079000000006,"velocity":0.3937007874015748},{"duration":0.14285699999998513,"midi":33,"time":63.99993600000001,"velocity":0.3937007874015748},{"duration":0.14285699999998513,"midi":45,"time":63.99993600000001,"velocity":0.3937007874015748},{"duration":0.14285700000000645,"midi":45,"time":64.142793,"velocity":0.3937007874015748},{"duration":0.14285700000000645,"midi":33,"time":64.142793,"velocity":0.3937007874015748},{"duration":0.2857139999999987,"midi":45,"time":64.28565,"velocity":0.3937007874015748},{"duration":0.2857139999999987,"midi":33,"time":64.28565,"velocity":0.3937007874015748},{"duration":0.14285700000000645,"midi":33,"time":64.571364,"velocity":0.3937007874015748},{"duration":0.14285700000000645,"midi":45,"time":64.571364,"velocity":0.3937007874015748},{"duration":0.14285700000000645,"midi":45,"time":64.71422100000001,"velocity":0.3937007874015748},{"duration":0.14285700000000645,"midi":33,"time":64.71422100000001,"velocity":0.3937007874015748},{"duration":0.14285699999999224,"midi":45,"time":64.85707800000002,"velocity":0.3937007874015748},{"duration":0.14285699999999224,"midi":33,"time":64.85707800000002,"velocity":0.3937007874015748},{"duration":0.14285699999999224,"midi":33,"time":64.99993500000001,"velocity":0.3937007874015748},{"duration":0.14285699999999224,"midi":45,"time":64.99993500000001,"velocity":0.3937007874015748},{"duration":0.2857139999999987,"midi":38,"time":65.142792,"velocity":0.3937007874015748},{"duration":0.2857139999999987,"midi":50,"time":65.142792,"velocity":0.3937007874015748},{"duration":0.14285700000000645,"midi":38,"time":65.428506,"velocity":0.3937007874015748},{"duration":0.14285700000000645,"midi":50,"time":65.428506,"velocity":0.3937007874015748},{"duration":0.14285700000000645,"midi":38,"time":65.571363,"velocity":0.3937007874015748},{"duration":0.14285700000000645,"midi":50,"time":65.571363,"velocity":0.3937007874015748},{"duration":0.14285699999999224,"midi":50,"time":65.71422000000001,"velocity":0.3937007874015748},{"duration":0.14285699999999224,"midi":38,"time":65.71422000000001,"velocity":0.3937007874015748},{"duration":0.14285700000000645,"midi":38,"time":65.857077,"velocity":0.3937007874015748},{"duration":0.14285700000000645,"midi":50,"time":65.857077,"velocity":0.3937007874015748},{"duration":0.2857139999999845,"midi":50,"time":65.99993400000001,"velocity":0.3937007874015748},{"duration":0.2857139999999845,"midi":38,"time":65.99993400000001,"velocity":0.3937007874015748},{"duration":0.14285700000000645,"midi":38,"time":66.285648,"velocity":0.3937007874015748},{"duration":0.14285700000000645,"midi":50,"time":66.285648,"velocity":0.3937007874015748},{"duration":0.14285700000000645,"midi":38,"time":66.428505,"velocity":0.3937007874015748},{"duration":0.14285700000000645,"midi":50,"time":66.428505,"velocity":0.3937007874015748},{"duration":0.14285699999999224,"midi":50,"time":66.57136200000001,"velocity":0.3937007874015748},{"duration":0.14285699999999224,"midi":38,"time":66.57136200000001,"velocity":0.3937007874015748},{"duration":0.14285700000000645,"midi":50,"time":66.714219,"velocity":0.3937007874015748},{"duration":0.14285700000000645,"midi":38,"time":66.714219,"velocity":0.3937007874015748},{"duration":0.2857139999999987,"midi":46,"time":66.857076,"velocity":0.3937007874015748},{"duration":0.2857139999999987,"midi":34,"time":66.857076,"velocity":0.3937007874015748},{"duration":0.14285700000000645,"midi":34,"time":67.14279,"velocity":0.3937007874015748},{"duration":0.14285700000000645,"midi":46,"time":67.14279,"velocity":0.3937007874015748},{"duration":0.14285699999999224,"midi":34,"time":67.28564700000001,"velocity":0.3937007874015748},{"duration":0.14285699999999224,"midi":46,"time":67.28564700000001,"velocity":0.3937007874015748},{"duration":0.14285699999999224,"midi":46,"time":67.428504,"velocity":0.3937007874015748},{"duration":0.14285699999999224,"midi":34,"time":67.428504,"velocity":0.3937007874015748},{"duration":0.14285700000000645,"midi":34,"time":67.571361,"velocity":0.3937007874015748},{"duration":0.14285700000000645,"midi":46,"time":67.571361,"velocity":0.3937007874015748},{"duration":0.2857139999999987,"midi":41,"time":67.714218,"velocity":0.3937007874015748},{"duration":0.2857139999999987,"midi":53,"time":67.714218,"velocity":0.3937007874015748},{"duration":0.14285700000000645,"midi":41,"time":67.999932,"velocity":0.3937007874015748},{"duration":0.14285700000000645,"midi":53,"time":67.999932,"velocity":0.3937007874015748},{"duration":0.14285700000000645,"midi":53,"time":68.14278900000001,"velocity":0.3937007874015748},{"duration":0.14285700000000645,"midi":41,"time":68.14278900000001,"velocity":0.3937007874015748},{"duration":0.14285699999999224,"midi":41,"time":68.28564600000001,"velocity":0.3937007874015748},{"duration":0.14285699999999224,"midi":53,"time":68.28564600000001,"velocity":0.3937007874015748},{"duration":0.14285699999999224,"midi":41,"time":68.428503,"velocity":0.3937007874015748},{"duration":0.14285699999999224,"midi":53,"time":68.428503,"velocity":0.3937007874015748},{"duration":0.2857139999999987,"midi":36,"time":68.57136,"velocity":0.3937007874015748},{"duration":0.2857139999999987,"midi":48,"time":68.57136,"velocity":0.3937007874015748},{"duration":0.14285700000000645,"midi":36,"time":68.857074,"velocity":0.3937007874015748},{"duration":0.14285700000000645,"midi":48,"time":68.857074,"velocity":0.3937007874015748},{"duration":0.14285700000000645,"midi":48,"time":68.999931,"velocity":0.3937007874015748},{"duration":0.14285700000000645,"midi":36,"time":68.999931,"velocity":0.3937007874015748},{"duration":0.14285699999999224,"midi":36,"time":69.14278800000001,"velocity":0.3937007874015748},{"duration":0.14285699999999224,"midi":48,"time":69.14278800000001,"velocity":0.3937007874015748},{"duration":0.14285700000000645,"midi":48,"time":69.285645,"velocity":0.3937007874015748},{"duration":0.14285700000000645,"midi":36,"time":69.285645,"velocity":0.3937007874015748},{"duration":0.2857139999999987,"midi":43,"time":69.42850200000001,"velocity":0.3937007874015748},{"duration":0.2857139999999987,"midi":31,"time":69.42850200000001,"velocity":0.3937007874015748},{"duration":0.14285699999999224,"midi":43,"time":69.71421600000001,"velocity":0.3937007874015748},{"duration":0.14285699999999224,"midi":31,"time":69.71421600000001,"velocity":0.3937007874015748},{"duration":0.2857139999999987,"midi":31,"time":69.857073,"velocity":0.3937007874015748},{"duration":0.14285700000000645,"midi":43,"time":69.857073,"velocity":0.3937007874015748},{"duration":0.14285700000000645,"midi":31,"time":70.142787,"velocity":0.3937007874015748},{"duration":0.14285700000000645,"midi":43,"time":70.142787,"velocity":0.3937007874015748},{"duration":0.2857139999999987,"midi":33,"time":70.285644,"velocity":0.3937007874015748},{"duration":0.2857139999999987,"midi":45,"time":70.285644,"velocity":0.3937007874015748},{"duration":0.14285700000000645,"midi":33,"time":70.571358,"velocity":0.3937007874015748},{"duration":0.14285700000000645,"midi":45,"time":70.571358,"velocity":0.3937007874015748},{"duration":0.14285700000000645,"midi":45,"time":70.71421500000001,"velocity":0.3937007874015748},{"duration":0.2857139999999987,"midi":33,"time":70.71421500000001,"velocity":0.3937007874015748},{"duration":0.14285699999999224,"midi":45,"time":70.85707200000002,"velocity":0.3937007874015748},{"duration":0.14285699999999224,"midi":33,"time":70.99992900000001,"velocity":0.3937007874015748},{"duration":0.14285699999999224,"midi":45,"time":70.99992900000001,"velocity":0.3937007874015748},{"duration":0.2857139999999987,"midi":45,"time":71.142786,"velocity":0.3937007874015748},{"duration":0.2857139999999987,"midi":33,"time":71.142786,"velocity":0.3937007874015748},{"duration":0.14285700000000645,"midi":45,"time":71.4285,"velocity":0.3937007874015748},{"duration":0.14285700000000645,"midi":33,"time":71.4285,"velocity":0.3937007874015748},{"duration":0.14285700000000645,"midi":45,"time":71.571357,"velocity":0.3937007874015748},{"duration":0.2857139999999987,"midi":33,"time":71.571357,"velocity":0.3937007874015748},{"duration":0.14285699999999224,"midi":45,"time":71.71421400000001,"velocity":0.3937007874015748},{"duration":0.14285700000000645,"midi":45,"time":71.857071,"velocity":0.3937007874015748},{"duration":0.14285700000000645,"midi":33,"time":71.857071,"velocity":0.3937007874015748},{"duration":0.2857139999999845,"midi":50,"time":71.99992800000001,"velocity":0.3937007874015748},{"duration":0.2857139999999845,"midi":38,"time":71.99992800000001,"velocity":0.3937007874015748},{"duration":0.14285700000000645,"midi":50,"time":72.285642,"velocity":0.3937007874015748},{"duration":0.14285700000000645,"midi":38,"time":72.285642,"velocity":0.3937007874015748},{"duration":0.2857139999999987,"midi":38,"time":72.428499,"velocity":0.3937007874015748},{"duration":0.2857139999999987,"midi":50,"time":72.428499,"velocity":0.3937007874015748},{"duration":0.14285700000000645,"midi":50,"time":72.714213,"velocity":0.3937007874015748},{"duration":0.14285700000000645,"midi":38,"time":72.714213,"velocity":0.3937007874015748},{"duration":0.2857139999999987,"midi":50,"time":72.85707000000001,"velocity":0.3937007874015748},{"duration":0.2857139999999987,"midi":38,"time":72.85707000000001,"velocity":0.3937007874015748},{"duration":0.14285700000000645,"midi":50,"time":73.142784,"velocity":0.3937007874015748},{"duration":0.14285700000000645,"midi":38,"time":73.142784,"velocity":0.3937007874015748},{"duration":0.2857139999999845,"midi":38,"time":73.28564100000001,"velocity":0.3937007874015748},{"duration":0.2857139999999845,"midi":50,"time":73.28564100000001,"velocity":0.3937007874015748},{"duration":0.14285700000000645,"midi":48,"time":73.571355,"velocity":0.3937007874015748},{"duration":0.14285700000000645,"midi":36,"time":73.571355,"velocity":0.3937007874015748},{"duration":0.2857139999999987,"midi":46,"time":73.714212,"velocity":0.3937007874015748},{"duration":0.2857139999999987,"midi":34,"time":73.714212,"velocity":0.3937007874015748},{"duration":0.14285700000000645,"midi":34,"time":73.999926,"velocity":0.3937007874015748},{"duration":0.14285700000000645,"midi":46,"time":73.999926,"velocity":0.3937007874015748},{"duration":0.2857139999999987,"midi":46,"time":74.14278300000001,"velocity":0.3937007874015748},{"duration":0.2857139999999987,"midi":34,"time":74.14278300000001,"velocity":0.3937007874015748},{"duration":0.14285699999999224,"midi":34,"time":74.42849700000001,"velocity":0.3937007874015748},{"duration":0.14285699999999224,"midi":46,"time":74.42849700000001,"velocity":0.3937007874015748},{"duration":0.2857139999999987,"midi":33,"time":74.571354,"velocity":0.3937007874015748},{"duration":0.2857139999999987,"midi":45,"time":74.571354,"velocity":0.3937007874015748},{"duration":0.14285700000000645,"midi":33,"time":74.857068,"velocity":0.3937007874015748},{"duration":0.14285700000000645,"midi":45,"time":74.857068,"velocity":0.3937007874015748},{"duration":0.2857139999999987,"midi":45,"time":74.999925,"velocity":0.3937007874015748},{"duration":0.2857139999999987,"midi":33,"time":74.999925,"velocity":0.3937007874015748},{"duration":0.14285700000000645,"midi":33,"time":75.285639,"velocity":0.3937007874015748},{"duration":0.14285700000000645,"midi":45,"time":75.285639,"velocity":0.3937007874015748},{"duration":0.2857139999999987,"midi":38,"time":75.42849600000001,"velocity":0.3937007874015748},{"duration":0.2857139999999987,"midi":50,"time":75.42849600000001,"velocity":0.3937007874015748},{"duration":0.14285699999999224,"midi":38,"time":75.71421000000001,"velocity":0.3937007874015748},{"duration":0.14285699999999224,"midi":50,"time":75.71421000000001,"velocity":0.3937007874015748},{"duration":0.2857139999999987,"midi":45,"time":75.857067,"velocity":0.3937007874015748},{"duration":0.2857139999999987,"midi":38,"time":75.857067,"velocity":0.3937007874015748},{"duration":0.14285700000000645,"midi":45,"time":76.142781,"velocity":0.3937007874015748},{"duration":0.14285700000000645,"midi":38,"time":76.142781,"velocity":0.3937007874015748},{"duration":0.2857139999999987,"midi":46,"time":76.285638,"velocity":0.3937007874015748},{"duration":0.2857139999999987,"midi":34,"time":76.285638,"velocity":0.3937007874015748},{"duration":0.14285700000000645,"midi":46,"time":76.571352,"velocity":0.3937007874015748},{"duration":0.14285700000000645,"midi":34,"time":76.571352,"velocity":0.3937007874015748},{"duration":0.2857139999999845,"midi":46,"time":76.71420900000001,"velocity":0.3937007874015748},{"duration":0.2857139999999845,"midi":34,"time":76.71420900000001,"velocity":0.3937007874015748},{"duration":0.14285700000000645,"midi":34,"time":76.999923,"velocity":0.3937007874015748},{"duration":0.14285700000000645,"midi":46,"time":76.999923,"velocity":0.3937007874015748},{"duration":0.2857139999999987,"midi":41,"time":77.14278,"velocity":0.3937007874015748},{"duration":0.2857139999999987,"midi":29,"time":77.14278,"velocity":0.3937007874015748},{"duration":0.14285700000000645,"midi":41,"time":77.428494,"velocity":0.3937007874015748},{"duration":0.14285700000000645,"midi":29,"time":77.428494,"velocity":0.3937007874015748},{"duration":0.2857139999999987,"midi":29,"time":77.571351,"velocity":0.3937007874015748},{"duration":0.2857139999999987,"midi":41,"time":77.571351,"velocity":0.3937007874015748},{"duration":0.14285700000000645,"midi":41,"time":77.857065,"velocity":0.3937007874015748},{"duration":0.14285700000000645,"midi":29,"time":77.857065,"velocity":0.3937007874015748},{"duration":0.2857139999999845,"midi":48,"time":77.99992200000001,"velocity":0.3937007874015748},{"duration":0.2857139999999845,"midi":36,"time":77.99992200000001,"velocity":0.3937007874015748},{"duration":0.14285700000000645,"midi":48,"time":78.285636,"velocity":0.3937007874015748},{"duration":0.14285700000000645,"midi":36,"time":78.285636,"velocity":0.3937007874015748},{"duration":0.2857139999999987,"midi":33,"time":78.428493,"velocity":0.3937007874015748},{"duration":0.2857139999999987,"midi":45,"time":78.428493,"velocity":0.3937007874015748},{"duration":0.14285700000000645,"midi":33,"time":78.714207,"velocity":0.3937007874015748},{"duration":0.14285700000000645,"midi":45,"time":78.714207,"velocity":0.3937007874015748},{"duration":0.2857139999999987,"midi":50,"time":78.85706400000001,"velocity":0.3937007874015748},{"duration":0.2857139999999987,"midi":38,"time":78.85706400000001,"velocity":0.3937007874015748},{"duration":0.14285700000000645,"midi":50,"time":79.142778,"velocity":0.3937007874015748},{"duration":0.14285700000000645,"midi":38,"time":79.142778,"velocity":0.3937007874015748},{"duration":0.2857139999999845,"midi":45,"time":79.28563500000001,"velocity":0.3937007874015748},{"duration":0.2857139999999845,"midi":38,"time":79.28563500000001,"velocity":0.3937007874015748},{"duration":0.14285700000000645,"midi":45,"time":79.571349,"velocity":0.3937007874015748},{"duration":0.14285700000000645,"midi":38,"time":79.571349,"velocity":0.3937007874015748},{"duration":0.2857139999999987,"midi":50,"time":79.714206,"velocity":0.3937007874015748},{"duration":0.2857139999999987,"midi":38,"time":79.714206,"velocity":0.3937007874015748},{"duration":0.14285700000000645,"midi":38,"time":79.99992,"velocity":0.3937007874015748},{"duration":0.14285700000000645,"midi":50,"time":79.99992,"velocity":0.3937007874015748},{"duration":0.2857139999999987,"midi":50,"time":80.14277700000001,"velocity":0.3937007874015748},{"duration":0.2857139999999987,"midi":38,"time":80.14277700000001,"velocity":0.3937007874015748},{"duration":0.14285699999999224,"midi":50,"time":80.42849100000001,"velocity":0.3937007874015748},{"duration":0.14285699999999224,"midi":38,"time":80.42849100000001,"velocity":0.3937007874015748},{"duration":0.2857139999999987,"midi":34,"time":80.571348,"velocity":0.3937007874015748},{"duration":0.2857139999999987,"midi":46,"time":80.571348,"velocity":0.3937007874015748},{"duration":0.14285700000000645,"midi":46,"time":80.857062,"velocity":0.3937007874015748},{"duration":0.14285700000000645,"midi":34,"time":80.857062,"velocity":0.3937007874015748},{"duration":0.2857139999999987,"midi":46,"time":80.999919,"velocity":0.3937007874015748},{"duration":0.2857139999999987,"midi":34,"time":80.999919,"velocity":0.3937007874015748},{"duration":0.14285700000000645,"midi":46,"time":81.285633,"velocity":0.3937007874015748},{"duration":0.14285700000000645,"midi":34,"time":81.285633,"velocity":0.3937007874015748},{"duration":0.2857139999999987,"midi":43,"time":81.42849000000001,"velocity":0.3937007874015748},{"duration":0.2857139999999987,"midi":31,"time":81.42849000000001,"velocity":0.3937007874015748},{"duration":0.14285699999999224,"midi":43,"time":81.71420400000001,"velocity":0.3937007874015748},{"duration":0.14285699999999224,"midi":31,"time":81.71420400000001,"velocity":0.3937007874015748},{"duration":0.2857139999999987,"midi":31,"time":81.857061,"velocity":0.3937007874015748},{"duration":0.2857139999999987,"midi":43,"time":81.857061,"velocity":0.3937007874015748},{"duration":0.14285700000000645,"midi":31,"time":82.142775,"velocity":0.3937007874015748},{"duration":0.14285700000000645,"midi":43,"time":82.142775,"velocity":0.3937007874015748},{"duration":0.2857139999999987,"midi":50,"time":82.285632,"velocity":0.3937007874015748},{"duration":0.2857139999999987,"midi":38,"time":82.285632,"velocity":0.3937007874015748},{"duration":0.14285700000000645,"midi":38,"time":82.571346,"velocity":0.3937007874015748},{"duration":0.14285700000000645,"midi":50,"time":82.571346,"velocity":0.3937007874015748},{"duration":0.2857139999999845,"midi":38,"time":82.71420300000001,"velocity":0.3937007874015748},{"duration":0.2857139999999845,"midi":45,"time":82.71420300000001,"velocity":0.3937007874015748},{"duration":0.14285700000000645,"midi":45,"time":82.999917,"velocity":0.3937007874015748},{"duration":0.14285700000000645,"midi":38,"time":82.999917,"velocity":0.3937007874015748},{"duration":0.2857139999999987,"midi":34,"time":83.142774,"velocity":0.3937007874015748},{"duration":0.2857139999999987,"midi":46,"time":83.142774,"velocity":0.3937007874015748},{"duration":0.14285700000000645,"midi":46,"time":83.428488,"velocity":0.3937007874015748},{"duration":0.14285700000000645,"midi":34,"time":83.428488,"velocity":0.3937007874015748},{"duration":0.2857139999999987,"midi":34,"time":83.57134500000001,"velocity":0.3937007874015748},{"duration":0.2857139999999987,"midi":46,"time":83.57134500000001,"velocity":0.3937007874015748},{"duration":0.14285700000000645,"midi":46,"time":83.857059,"velocity":0.3937007874015748},{"duration":0.14285700000000645,"midi":34,"time":83.857059,"velocity":0.3937007874015748},{"duration":0.2857139999999845,"midi":50,"time":83.99991600000001,"velocity":0.3937007874015748},{"duration":0.2857139999999845,"midi":38,"time":83.99991600000001,"velocity":0.3937007874015748},{"duration":0.14285700000000645,"midi":38,"time":84.28563,"velocity":0.3937007874015748},{"duration":0.14285700000000645,"midi":50,"time":84.28563,"velocity":0.3937007874015748},{"duration":0.2857139999999987,"midi":50,"time":84.428487,"velocity":0.3937007874015748},{"duration":0.2857139999999987,"midi":38,"time":84.428487,"velocity":0.3937007874015748},{"duration":0.14285700000000645,"midi":38,"time":84.714201,"velocity":0.3937007874015748},{"duration":0.14285700000000645,"midi":50,"time":84.714201,"velocity":0.3937007874015748},{"duration":0.2857139999999987,"midi":33,"time":84.85705800000001,"velocity":0.3937007874015748},{"duration":0.2857139999999987,"midi":45,"time":84.85705800000001,"velocity":0.3937007874015748},{"duration":0.14285699999999224,"midi":45,"time":85.14277200000001,"velocity":0.3937007874015748},{"duration":0.14285699999999224,"midi":33,"time":85.14277200000001,"velocity":0.3937007874015748},{"duration":0.2857139999999987,"midi":45,"time":85.285629,"velocity":0.3937007874015748},{"duration":0.2857139999999987,"midi":33,"time":85.285629,"velocity":0.3937007874015748},{"duration":0.14285700000000645,"midi":33,"time":85.571343,"velocity":0.3937007874015748},{"duration":0.14285700000000645,"midi":45,"time":85.571343,"velocity":0.3937007874015748},{"duration":0.2857139999999987,"midi":33,"time":85.7142,"velocity":0.3937007874015748},{"duration":0.2857139999999987,"midi":45,"time":85.7142,"velocity":0.3937007874015748},{"duration":0.14285700000000645,"midi":33,"time":85.999914,"velocity":0.3937007874015748},{"duration":0.14285700000000645,"midi":45,"time":85.999914,"velocity":0.3937007874015748},{"duration":0.2857139999999987,"midi":33,"time":86.14277100000001,"velocity":0.3937007874015748},{"duration":0.2857139999999987,"midi":45,"time":86.14277100000001,"velocity":0.3937007874015748},{"duration":0.14285699999999224,"midi":33,"time":86.42848500000001,"velocity":0.3937007874015748},{"duration":0.14285699999999224,"midi":45,"time":86.42848500000001,"velocity":0.3937007874015748},{"duration":0.2857139999999987,"midi":50,"time":86.571342,"velocity":0.3937007874015748},{"duration":0.2857139999999987,"midi":38,"time":86.571342,"velocity":0.3937007874015748},{"duration":0.14285700000000645,"midi":38,"time":86.857056,"velocity":0.3937007874015748},{"duration":0.14285700000000645,"midi":50,"time":86.857056,"velocity":0.3937007874015748},{"duration":0.2857139999999987,"midi":50,"time":86.999913,"velocity":0.3937007874015748},{"duration":0.2857139999999987,"midi":38,"time":86.999913,"velocity":0.3937007874015748},{"duration":0.14285700000000645,"midi":48,"time":87.285627,"velocity":0.3937007874015748},{"duration":0.14285700000000645,"midi":36,"time":87.285627,"velocity":0.3937007874015748},{"duration":0.2857139999999845,"midi":34,"time":87.42848400000001,"velocity":0.3937007874015748},{"duration":0.2857139999999845,"midi":46,"time":87.42848400000001,"velocity":0.3937007874015748},{"duration":0.14285700000000645,"midi":46,"time":87.714198,"velocity":0.3937007874015748},{"duration":0.14285700000000645,"midi":34,"time":87.714198,"velocity":0.3937007874015748},{"duration":0.2857139999999987,"midi":34,"time":87.857055,"velocity":0.3937007874015748},{"duration":0.2857139999999987,"midi":46,"time":87.857055,"velocity":0.3937007874015748},{"duration":0.14285700000000645,"midi":46,"time":88.142769,"velocity":0.3937007874015748},{"duration":0.14285700000000645,"midi":34,"time":88.142769,"velocity":0.3937007874015748},{"duration":0.2857139999999987,"midi":33,"time":88.28562600000001,"velocity":0.3937007874015748},{"duration":0.2857139999999987,"midi":45,"time":88.28562600000001,"velocity":0.3937007874015748},{"duration":0.14285700000000645,"midi":33,"time":88.57134,"velocity":0.3937007874015748},{"duration":0.14285700000000645,"midi":45,"time":88.57134,"velocity":0.3937007874015748},{"duration":0.2857139999999845,"midi":45,"time":88.71419700000001,"velocity":0.3937007874015748},{"duration":0.2857139999999845,"midi":33,"time":88.71419700000001,"velocity":0.3937007874015748},{"duration":0.14285700000000645,"midi":45,"time":88.999911,"velocity":0.3937007874015748},{"duration":0.14285700000000645,"midi":33,"time":88.999911,"velocity":0.3937007874015748},{"duration":0.2857139999999987,"midi":50,"time":89.142768,"velocity":0.3937007874015748},{"duration":0.2857139999999987,"midi":38,"time":89.142768,"velocity":0.3937007874015748},{"duration":0.14285700000000645,"midi":38,"time":89.428482,"velocity":0.3937007874015748},{"duration":0.14285700000000645,"midi":50,"time":89.428482,"velocity":0.3937007874015748},{"duration":0.2857139999999987,"midi":45,"time":89.57133900000001,"velocity":0.3937007874015748},{"duration":0.2857139999999987,"midi":38,"time":89.57133900000001,"velocity":0.3937007874015748},{"duration":0.14285700000000645,"midi":38,"time":89.85705300000001,"velocity":0.3937007874015748},{"duration":0.14285700000000645,"midi":45,"time":89.85705300000001,"velocity":0.3937007874015748},{"duration":0.2857139999999845,"midi":46,"time":89.99991000000001,"velocity":0.3937007874015748},{"duration":0.2857139999999845,"midi":34,"time":89.99991000000001,"velocity":0.3937007874015748},{"duration":0.14285700000000645,"midi":46,"time":90.285624,"velocity":0.3937007874015748},{"duration":0.14285700000000645,"midi":34,"time":90.285624,"velocity":0.3937007874015748},{"duration":0.2857139999999987,"midi":46,"time":90.428481,"velocity":0.3937007874015748},{"duration":0.2857139999999987,"midi":34,"time":90.428481,"velocity":0.3937007874015748},{"duration":0.14285700000000645,"midi":34,"time":90.714195,"velocity":0.3937007874015748},{"duration":0.14285700000000645,"midi":46,"time":90.714195,"velocity":0.3937007874015748},{"duration":0.2857139999999987,"midi":29,"time":90.85705200000001,"velocity":0.3937007874015748},{"duration":0.2857139999999987,"midi":41,"time":90.85705200000001,"velocity":0.3937007874015748},{"duration":0.14285699999999224,"midi":41,"time":91.14276600000001,"velocity":0.3937007874015748},{"duration":0.14285699999999224,"midi":29,"time":91.14276600000001,"velocity":0.3937007874015748},{"duration":0.2857139999999987,"midi":29,"time":91.285623,"velocity":0.3937007874015748},{"duration":0.2857139999999987,"midi":41,"time":91.285623,"velocity":0.3937007874015748},{"duration":0.14285700000000645,"midi":41,"time":91.571337,"velocity":0.3937007874015748},{"duration":0.14285700000000645,"midi":29,"time":91.571337,"velocity":0.3937007874015748},{"duration":0.2857139999999987,"midi":48,"time":91.714194,"velocity":0.3937007874015748},{"duration":0.2857139999999987,"midi":36,"time":91.714194,"velocity":0.3937007874015748},{"duration":0.14285700000000645,"midi":36,"time":91.999908,"velocity":0.3937007874015748},{"duration":0.14285700000000645,"midi":48,"time":91.999908,"velocity":0.3937007874015748},{"duration":0.2857139999999987,"midi":45,"time":92.14276500000001,"velocity":0.3937007874015748},{"duration":0.2857139999999987,"midi":33,"time":92.14276500000001,"velocity":0.3937007874015748},{"duration":0.14285699999999224,"midi":45,"time":92.42847900000001,"velocity":0.3937007874015748},{"duration":0.14285699999999224,"midi":33,"time":92.42847900000001,"velocity":0.3937007874015748},{"duration":0.2857139999999987,"midi":50,"time":92.571336,"velocity":0.3937007874015748},{"duration":0.2857139999999987,"midi":38,"time":92.571336,"velocity":0.3937007874015748},{"duration":0.14285700000000645,"midi":38,"time":92.85705,"velocity":0.3937007874015748},{"duration":0.14285700000000645,"midi":50,"time":92.85705,"velocity":0.3937007874015748},{"duration":0.2857139999999987,"midi":45,"time":92.99990700000001,"velocity":0.3937007874015748},{"duration":0.2857139999999987,"midi":38,"time":92.99990700000001,"velocity":0.3937007874015748},{"duration":0.14285700000000645,"midi":45,"time":93.285621,"velocity":0.3937007874015748},{"duration":0.14285700000000645,"midi":38,"time":93.285621,"velocity":0.3937007874015748},{"duration":0.2857139999999845,"midi":50,"time":93.42847800000001,"velocity":0.3937007874015748},{"duration":0.2857139999999845,"midi":38,"time":93.42847800000001,"velocity":0.3937007874015748},{"duration":0.14285700000000645,"midi":38,"time":93.714192,"velocity":0.3937007874015748},{"duration":0.14285700000000645,"midi":50,"time":93.714192,"velocity":0.3937007874015748},{"duration":0.2857139999999987,"midi":50,"time":93.857049,"velocity":0.3937007874015748},{"duration":0.2857139999999987,"midi":38,"time":93.857049,"velocity":0.3937007874015748},{"duration":0.14285700000000645,"midi":50,"time":94.142763,"velocity":0.3937007874015748},{"duration":0.14285700000000645,"midi":38,"time":94.142763,"velocity":0.3937007874015748},{"duration":0.2857139999999987,"midi":46,"time":94.28562000000001,"velocity":0.3937007874015748},{"duration":0.2857139999999987,"midi":34,"time":94.28562000000001,"velocity":0.3937007874015748},{"duration":0.14285700000000645,"midi":46,"time":94.57133400000001,"velocity":0.3937007874015748},{"duration":0.14285700000000645,"midi":34,"time":94.57133400000001,"velocity":0.3937007874015748},{"duration":0.2857139999999845,"midi":46,"time":94.71419100000001,"velocity":0.3937007874015748},{"duration":0.2857139999999845,"midi":34,"time":94.71419100000001,"velocity":0.3937007874015748},{"duration":0.14285700000000645,"midi":46,"time":94.999905,"velocity":0.3937007874015748},{"duration":0.14285700000000645,"midi":34,"time":94.999905,"velocity":0.3937007874015748},{"duration":0.2857139999999987,"midi":43,"time":95.142762,"velocity":0.3937007874015748},{"duration":0.2857139999999987,"midi":31,"time":95.142762,"velocity":0.3937007874015748},{"duration":0.14285700000000645,"midi":43,"time":95.428476,"velocity":0.3937007874015748},{"duration":0.14285700000000645,"midi":31,"time":95.428476,"velocity":0.3937007874015748},{"duration":0.2857139999999987,"midi":43,"time":95.57133300000001,"velocity":0.3937007874015748},{"duration":0.2857139999999987,"midi":31,"time":95.57133300000001,"velocity":0.3937007874015748},{"duration":0.14285700000000645,"midi":43,"time":95.85704700000001,"velocity":0.3937007874015748},{"duration":0.14285700000000645,"midi":31,"time":95.85704700000001,"velocity":0.3937007874015748},{"duration":0.2857139999999845,"midi":50,"time":95.99990400000002,"velocity":0.3937007874015748},{"duration":0.2857139999999845,"midi":38,"time":95.99990400000002,"velocity":0.3937007874015748},{"duration":0.14285700000000645,"midi":50,"time":96.285618,"velocity":0.3937007874015748},{"duration":0.14285700000000645,"midi":38,"time":96.285618,"velocity":0.3937007874015748},{"duration":0.2857139999999987,"midi":38,"time":96.428475,"velocity":0.3937007874015748},{"duration":0.2857139999999987,"midi":45,"time":96.428475,"velocity":0.3937007874015748},{"duration":0.14285700000000645,"midi":38,"time":96.714189,"velocity":0.3937007874015748},{"duration":0.14285700000000645,"midi":45,"time":96.714189,"velocity":0.3937007874015748},{"duration":0.2857139999999987,"midi":46,"time":96.85704600000001,"velocity":0.3937007874015748},{"duration":0.2857139999999987,"midi":34,"time":96.85704600000001,"velocity":0.3937007874015748},{"duration":0.14285699999999224,"midi":46,"time":97.14276000000001,"velocity":0.3937007874015748},{"duration":0.14285699999999224,"midi":34,"time":97.14276000000001,"velocity":0.3937007874015748},{"duration":0.2857139999999987,"midi":34,"time":97.285617,"velocity":0.3937007874015748},{"duration":0.2857139999999987,"midi":46,"time":97.285617,"velocity":0.3937007874015748},{"duration":0.14285700000000645,"midi":34,"time":97.571331,"velocity":0.3937007874015748},{"duration":0.14285700000000645,"midi":46,"time":97.571331,"velocity":0.3937007874015748},{"duration":0.2857139999999987,"midi":50,"time":97.71418800000001,"velocity":0.3937007874015748},{"duration":0.2857139999999987,"midi":38,"time":97.71418800000001,"velocity":0.3937007874015748},{"duration":0.14285700000000645,"midi":38,"time":97.999902,"velocity":0.3937007874015748},{"duration":0.14285700000000645,"midi":50,"time":97.999902,"velocity":0.3937007874015748},{"duration":0.2857139999999987,"midi":50,"time":98.14275900000001,"velocity":0.3937007874015748},{"duration":0.2857139999999987,"midi":38,"time":98.14275900000001,"velocity":0.3937007874015748},{"duration":0.14285699999999224,"midi":38,"time":98.42847300000001,"velocity":0.3937007874015748},{"duration":0.14285699999999224,"midi":50,"time":98.42847300000001,"velocity":0.3937007874015748},{"duration":0.2857139999999987,"midi":45,"time":98.57133,"velocity":0.3937007874015748},{"duration":0.2857139999999987,"midi":33,"time":98.57133,"velocity":0.3937007874015748},{"duration":0.14285700000000645,"midi":33,"time":98.857044,"velocity":0.3937007874015748},{"duration":0.14285700000000645,"midi":45,"time":98.857044,"velocity":0.3937007874015748},{"duration":0.2857139999999987,"midi":33,"time":98.99990100000001,"velocity":0.3937007874015748},{"duration":0.2857139999999987,"midi":45,"time":98.99990100000001,"velocity":0.3937007874015748},{"duration":0.14285700000000645,"midi":45,"time":99.285615,"velocity":0.3937007874015748},{"duration":0.14285700000000645,"midi":33,"time":99.285615,"velocity":0.3937007874015748},{"duration":0.2857139999999845,"midi":50,"time":99.42847200000001,"velocity":0.3937007874015748},{"duration":0.2857139999999845,"midi":38,"time":99.42847200000001,"velocity":0.3937007874015748},{"duration":0.2857140000000129,"midi":50,"time":99.714186,"velocity":0.3937007874015748},{"duration":0.2857140000000129,"midi":38,"time":99.714186,"velocity":0.3937007874015748},{"duration":0.2857139999999987,"midi":36,"time":99.99990000000001,"velocity":0.3937007874015748},{"duration":0.2857139999999987,"midi":48,"time":99.99990000000001,"velocity":0.3937007874015748},{"duration":0.2857139999999987,"midi":48,"time":100.28561400000001,"velocity":0.3937007874015748},{"duration":0.2857139999999987,"midi":36,"time":100.28561400000001,"velocity":0.3937007874015748},{"duration":0.2857139999999987,"midi":48,"time":100.57132800000001,"velocity":0.3937007874015748},{"duration":0.2857139999999987,"midi":36,"time":100.57132800000001,"velocity":0.3937007874015748},{"duration":0.2857139999999987,"midi":34,"time":100.857042,"velocity":0.3937007874015748},{"duration":0.2857139999999987,"midi":46,"time":100.857042,"velocity":0.3937007874015748},{"duration":0.2857139999999987,"midi":45,"time":101.142756,"velocity":0.3937007874015748},{"duration":0.2857139999999987,"midi":33,"time":101.142756,"velocity":0.3937007874015748},{"duration":0.14285700000000645,"midi":45,"time":101.42847,"velocity":0.3937007874015748},{"duration":0.14285700000000645,"midi":33,"time":101.42847,"velocity":0.3937007874015748},{"duration":0.2857139999999987,"midi":33,"time":101.57132700000001,"velocity":0.3937007874015748},{"duration":0.2857139999999987,"midi":45,"time":101.57132700000001,"velocity":0.3937007874015748},{"duration":0.14285699999999224,"midi":33,"time":101.85704100000001,"velocity":0.3937007874015748},{"duration":0.14285699999999224,"midi":45,"time":101.85704100000001,"velocity":0.3937007874015748},{"duration":0.2857139999999987,"midi":45,"time":101.999898,"velocity":0.3937007874015748},{"duration":0.2857139999999987,"midi":33,"time":101.999898,"velocity":0.3937007874015748},{"duration":0.14285700000000645,"midi":33,"time":102.285612,"velocity":0.3937007874015748},{"duration":0.14285700000000645,"midi":45,"time":102.285612,"velocity":0.3937007874015748},{"duration":0.2857139999999987,"midi":33,"time":102.428469,"velocity":0.3937007874015748},{"duration":0.2857139999999987,"midi":45,"time":102.428469,"velocity":0.3937007874015748},{"duration":0.14285700000000645,"midi":45,"time":102.714183,"velocity":0.3937007874015748},{"duration":0.14285700000000645,"midi":33,"time":102.714183,"velocity":0.3937007874015748},{"duration":0.2857139999999987,"midi":31,"time":102.85704000000001,"velocity":0.3937007874015748},{"duration":0.2857139999999987,"midi":43,"time":102.85704000000001,"velocity":0.3937007874015748},{"duration":0.14285699999999224,"midi":43,"time":103.14275400000001,"velocity":0.3937007874015748},{"duration":0.14285699999999224,"midi":31,"time":103.14275400000001,"velocity":0.3937007874015748},{"duration":0.2857139999999987,"midi":43,"time":103.285611,"velocity":0.3937007874015748},{"duration":0.2857139999999987,"midi":31,"time":103.285611,"velocity":0.3937007874015748},{"duration":0.14285700000000645,"midi":43,"time":103.571325,"velocity":0.3937007874015748},{"duration":0.14285700000000645,"midi":31,"time":103.571325,"velocity":0.3937007874015748},{"duration":0.2857139999999987,"midi":31,"time":103.71418200000001,"velocity":0.3937007874015748},{"duration":0.2857139999999987,"midi":43,"time":103.71418200000001,"velocity":0.3937007874015748},{"duration":0.14285700000000645,"midi":43,"time":103.999896,"velocity":0.3937007874015748},{"duration":0.14285700000000645,"midi":31,"time":103.999896,"velocity":0.3937007874015748},{"duration":0.2857139999999845,"midi":31,"time":104.14275300000001,"velocity":0.3937007874015748},{"duration":0.2857139999999845,"midi":43,"time":104.14275300000001,"velocity":0.3937007874015748},{"duration":0.14285700000000645,"midi":43,"time":104.428467,"velocity":0.3937007874015748},{"duration":0.14285700000000645,"midi":31,"time":104.428467,"velocity":0.3937007874015748},{"duration":0.2857139999999987,"midi":45,"time":104.571324,"velocity":0.3937007874015748},{"duration":0.2857139999999987,"midi":33,"time":104.571324,"velocity":0.3937007874015748},{"duration":0.14285700000000645,"midi":45,"time":104.857038,"velocity":0.3937007874015748},{"duration":0.14285700000000645,"midi":33,"time":104.857038,"velocity":0.3937007874015748},{"duration":0.2857139999999987,"midi":33,"time":104.99989500000001,"velocity":0.3937007874015748},{"duration":0.2857139999999987,"midi":45,"time":104.99989500000001,"velocity":0.3937007874015748},{"duration":0.14285700000000645,"midi":45,"time":105.28560900000001,"velocity":0.3937007874015748},{"duration":0.14285700000000645,"midi":33,"time":105.28560900000001,"velocity":0.3937007874015748},{"duration":0.2857139999999845,"midi":33,"time":105.42846600000001,"velocity":0.3937007874015748},{"duration":0.2857139999999845,"midi":45,"time":105.42846600000001,"velocity":0.3937007874015748},{"duration":0.14285700000000645,"midi":45,"time":105.71418,"velocity":0.3937007874015748},{"duration":0.14285700000000645,"midi":33,"time":105.71418,"velocity":0.3937007874015748},{"duration":0.2857139999999987,"midi":33,"time":105.857037,"velocity":0.3937007874015748},{"duration":0.2857139999999987,"midi":45,"time":105.857037,"velocity":0.3937007874015748},{"duration":0.14285700000000645,"midi":33,"time":106.142751,"velocity":0.3937007874015748},{"duration":0.14285700000000645,"midi":45,"time":106.142751,"velocity":0.3937007874015748},{"duration":0.2857139999999987,"midi":38,"time":106.28560800000001,"velocity":0.3937007874015748},{"duration":0.2857139999999987,"midi":50,"time":106.28560800000001,"velocity":0.3937007874015748},{"duration":0.14285700000000645,"midi":50,"time":106.57132200000001,"velocity":0.3937007874015748},{"duration":0.14285700000000645,"midi":38,"time":106.57132200000001,"velocity":0.3937007874015748},{"duration":0.2857139999999845,"midi":38,"time":106.71417900000002,"velocity":0.3937007874015748},{"duration":0.2857139999999845,"midi":50,"time":106.71417900000002,"velocity":0.3937007874015748},{"duration":0.14285700000000645,"midi":38,"time":106.999893,"velocity":0.3937007874015748},{"duration":0.14285700000000645,"midi":50,"time":106.999893,"velocity":0.3937007874015748},{"duration":0.2857139999999987,"midi":38,"time":107.14275,"velocity":0.3937007874015748},{"duration":0.2857139999999987,"midi":50,"time":107.14275,"velocity":0.3937007874015748},{"duration":0.14285700000000645,"midi":38,"time":107.428464,"velocity":0.3937007874015748},{"duration":0.14285700000000645,"midi":50,"time":107.428464,"velocity":0.3937007874015748},{"duration":0.2857139999999987,"midi":50,"time":107.57132100000001,"velocity":0.3937007874015748},{"duration":0.2857139999999987,"midi":38,"time":107.57132100000001,"velocity":0.3937007874015748},{"duration":0.14285699999999224,"midi":50,"time":107.85703500000001,"velocity":0.3937007874015748},{"duration":0.14285699999999224,"midi":38,"time":107.85703500000001,"velocity":0.3937007874015748},{"duration":0.2857139999999987,"midi":48,"time":107.999892,"velocity":0.3937007874015748},{"duration":0.2857139999999987,"midi":36,"time":107.999892,"velocity":0.3937007874015748},{"duration":0.14285700000000645,"midi":48,"time":108.285606,"velocity":0.3937007874015748},{"duration":0.14285700000000645,"midi":36,"time":108.285606,"velocity":0.3937007874015748},{"duration":0.2857139999999987,"midi":48,"time":108.42846300000001,"velocity":0.3937007874015748},{"duration":0.2857139999999987,"midi":36,"time":108.42846300000001,"velocity":0.3937007874015748},{"duration":0.14285700000000645,"midi":48,"time":108.714177,"velocity":0.3937007874015748},{"duration":0.14285700000000645,"midi":36,"time":108.714177,"velocity":0.3937007874015748},{"duration":0.2857139999999987,"midi":53,"time":108.85703400000001,"velocity":0.3937007874015748},{"duration":0.2857139999999987,"midi":41,"time":108.85703400000001,"velocity":0.3937007874015748},{"duration":0.14285699999999224,"midi":41,"time":109.14274800000001,"velocity":0.3937007874015748},{"duration":0.14285699999999224,"midi":53,"time":109.14274800000001,"velocity":0.3937007874015748},{"duration":0.2857139999999987,"midi":53,"time":109.285605,"velocity":0.3937007874015748},{"duration":0.2857139999999987,"midi":41,"time":109.285605,"velocity":0.3937007874015748},{"duration":0.14285700000000645,"midi":53,"time":109.571319,"velocity":0.3937007874015748},{"duration":0.14285700000000645,"midi":41,"time":109.571319,"velocity":0.3937007874015748},{"duration":0.2857140000000129,"midi":50,"time":109.71417600000001,"velocity":0.3937007874015748},{"duration":0.2857140000000129,"midi":38,"time":109.71417600000001,"velocity":0.3937007874015748},{"duration":0.14285699999999224,"midi":38,"time":109.99989000000002,"velocity":0.3937007874015748},{"duration":0.14285699999999224,"midi":50,"time":109.99989000000002,"velocity":0.3937007874015748},{"duration":0.2857139999999987,"midi":38,"time":110.14274700000001,"velocity":0.3937007874015748},{"duration":0.2857139999999987,"midi":50,"time":110.14274700000001,"velocity":0.3937007874015748},{"duration":0.14285699999999224,"midi":50,"time":110.42846100000001,"velocity":0.3937007874015748},{"duration":0.14285699999999224,"midi":38,"time":110.42846100000001,"velocity":0.3937007874015748},{"duration":0.2857140000000129,"midi":50,"time":110.571318,"velocity":0.3937007874015748},{"duration":0.2857140000000129,"midi":38,"time":110.571318,"velocity":0.3937007874015748},{"duration":0.14285699999999224,"midi":38,"time":110.85703200000002,"velocity":0.3937007874015748},{"duration":0.14285699999999224,"midi":50,"time":110.85703200000002,"velocity":0.3937007874015748},{"duration":0.2857140000000129,"midi":50,"time":110.99988900000001,"velocity":0.3937007874015748},{"duration":0.2857140000000129,"midi":38,"time":110.99988900000001,"velocity":0.3937007874015748},{"duration":0.14285699999999224,"midi":38,"time":111.28560300000002,"velocity":0.3937007874015748},{"duration":0.14285699999999224,"midi":50,"time":111.28560300000002,"velocity":0.3937007874015748},{"duration":0.2857139999999987,"midi":33,"time":111.42846000000002,"velocity":0.3937007874015748},{"duration":0.2857139999999987,"midi":45,"time":111.42846000000002,"velocity":0.3937007874015748},{"duration":0.14285699999999224,"midi":45,"time":111.71417400000001,"velocity":0.3937007874015748},{"duration":0.14285699999999224,"midi":33,"time":111.71417400000001,"velocity":0.3937007874015748},{"duration":0.2857140000000129,"midi":33,"time":111.857031,"velocity":0.3937007874015748},{"duration":0.2857140000000129,"midi":45,"time":111.857031,"velocity":0.3937007874015748},{"duration":0.14285699999999224,"midi":33,"time":112.14274500000002,"velocity":0.3937007874015748},{"duration":0.14285699999999224,"midi":45,"time":112.14274500000002,"velocity":0.3937007874015748},{"duration":0.2857140000000129,"midi":50,"time":112.28560200000001,"velocity":0.3937007874015748},{"duration":0.2857140000000129,"midi":38,"time":112.28560200000001,"velocity":0.3937007874015748},{"duration":0.14285699999997803,"midi":38,"time":112.57131600000002,"velocity":0.3937007874015748},{"duration":0.14285699999997803,"midi":50,"time":112.57131600000002,"velocity":0.3937007874015748},{"duration":0.2857140000000129,"midi":50,"time":112.714173,"velocity":0.3937007874015748},{"duration":0.2857140000000129,"midi":38,"time":112.714173,"velocity":0.3937007874015748},{"duration":0.14285699999999224,"midi":38,"time":112.99988700000002,"velocity":0.3937007874015748},{"duration":0.14285699999999224,"midi":50,"time":112.99988700000002,"velocity":0.3937007874015748},{"duration":0.2857140000000129,"midi":38,"time":113.14274400000001,"velocity":0.3937007874015748},{"duration":0.2857140000000129,"midi":50,"time":113.14274400000001,"velocity":0.3937007874015748},{"duration":0.14285699999999224,"midi":50,"time":113.42845800000002,"velocity":0.3937007874015748},{"duration":0.14285699999999224,"midi":38,"time":113.42845800000002,"velocity":0.3937007874015748},{"duration":0.2857139999999987,"midi":38,"time":113.57131500000001,"velocity":0.3937007874015748},{"duration":0.2857139999999987,"midi":50,"time":113.57131500000001,"velocity":0.3937007874015748},{"duration":0.14285699999999224,"midi":50,"time":113.85702900000001,"velocity":0.3937007874015748},{"duration":0.14285699999999224,"midi":38,"time":113.85702900000001,"velocity":0.3937007874015748},{"duration":0.2857140000000129,"midi":48,"time":113.999886,"velocity":0.3937007874015748},{"duration":0.2857140000000129,"midi":36,"time":113.999886,"velocity":0.3937007874015748},{"duration":0.14285699999999224,"midi":36,"time":114.28560000000002,"velocity":0.3937007874015748},{"duration":0.14285699999999224,"midi":48,"time":114.28560000000002,"velocity":0.3937007874015748},{"duration":0.2857140000000129,"midi":48,"time":114.42845700000001,"velocity":0.3937007874015748},{"duration":0.2857140000000129,"midi":36,"time":114.42845700000001,"velocity":0.3937007874015748},{"duration":0.14285699999999224,"midi":36,"time":114.71417100000002,"velocity":0.3937007874015748},{"duration":0.14285699999999224,"midi":48,"time":114.71417100000002,"velocity":0.3937007874015748},{"duration":0.2857139999999987,"midi":53,"time":114.85702800000001,"velocity":0.3937007874015748},{"duration":0.2857139999999987,"midi":41,"time":114.85702800000001,"velocity":0.3937007874015748},{"duration":0.14285699999999224,"midi":53,"time":115.14274200000001,"velocity":0.3937007874015748},{"duration":0.14285699999999224,"midi":41,"time":115.14274200000001,"velocity":0.3937007874015748},{"duration":0.2857140000000129,"midi":41,"time":115.285599,"velocity":0.3937007874015748},{"duration":0.2857140000000129,"midi":53,"time":115.285599,"velocity":0.3937007874015748},{"duration":0.14285699999999224,"midi":41,"time":115.57131300000002,"velocity":0.3937007874015748},{"duration":0.14285699999999224,"midi":53,"time":115.57131300000002,"velocity":0.3937007874015748},{"duration":0.2857140000000129,"midi":48,"time":115.71417000000001,"velocity":0.3937007874015748},{"duration":0.2857140000000129,"midi":36,"time":115.71417000000001,"velocity":0.3937007874015748},{"duration":0.14285699999999224,"midi":48,"time":115.99988400000002,"velocity":0.3937007874015748},{"duration":0.14285699999999224,"midi":36,"time":115.99988400000002,"velocity":0.3937007874015748},{"duration":0.2857139999999987,"midi":48,"time":116.14274100000002,"velocity":0.3937007874015748},{"duration":0.2857139999999987,"midi":36,"time":116.14274100000002,"velocity":0.3937007874015748},{"duration":0.14285699999999224,"midi":36,"time":116.42845500000001,"velocity":0.3937007874015748},{"duration":0.14285699999999224,"midi":48,"time":116.42845500000001,"velocity":0.3937007874015748},{"duration":0.2857140000000129,"midi":38,"time":116.571312,"velocity":0.3937007874015748},{"duration":0.2857140000000129,"midi":50,"time":116.571312,"velocity":0.3937007874015748},{"duration":0.14285699999999224,"midi":38,"time":116.85702600000002,"velocity":0.3937007874015748},{"duration":0.14285699999999224,"midi":50,"time":116.85702600000002,"velocity":0.3937007874015748},{"duration":0.2857140000000129,"midi":50,"time":116.99988300000001,"velocity":0.3937007874015748},{"duration":0.2857140000000129,"midi":38,"time":116.99988300000001,"velocity":0.3937007874015748},{"duration":0.14285699999999224,"midi":38,"time":117.28559700000002,"velocity":0.3937007874015748},{"duration":0.14285699999999224,"midi":50,"time":117.28559700000002,"velocity":0.3937007874015748},{"duration":0.2857139999999987,"midi":45,"time":117.42845400000002,"velocity":0.3937007874015748},{"duration":0.2857139999999987,"midi":33,"time":117.42845400000002,"velocity":0.3937007874015748},{"duration":0.14285699999999224,"midi":45,"time":117.71416800000002,"velocity":0.3937007874015748},{"duration":0.14285699999999224,"midi":33,"time":117.71416800000002,"velocity":0.3937007874015748},{"duration":0.2857140000000129,"midi":33,"time":117.85702500000001,"velocity":0.3937007874015748},{"duration":0.2857140000000129,"midi":45,"time":117.85702500000001,"velocity":0.3937007874015748},{"duration":0.14285699999999224,"midi":45,"time":118.14273900000002,"velocity":0.3937007874015748},{"duration":0.14285699999999224,"midi":33,"time":118.14273900000002,"velocity":0.3937007874015748},{"duration":0.2857139999999987,"midi":38,"time":118.28559600000001,"velocity":0.3937007874015748},{"duration":0.2857139999999987,"midi":50,"time":118.28559600000001,"velocity":0.3937007874015748},{"duration":0.14285699999999224,"midi":50,"time":118.57131000000001,"velocity":0.3937007874015748},{"duration":0.14285699999999224,"midi":38,"time":118.57131000000001,"velocity":0.3937007874015748},{"duration":0.2857140000000129,"midi":50,"time":118.714167,"velocity":0.3937007874015748},{"duration":0.2857140000000129,"midi":38,"time":118.714167,"velocity":0.3937007874015748},{"duration":0.14285699999999224,"midi":38,"time":118.99988100000002,"velocity":0.3937007874015748},{"duration":0.14285699999999224,"midi":50,"time":118.99988100000002,"velocity":0.3937007874015748},{"duration":0.2857140000000129,"midi":38,"time":119.14273800000001,"velocity":0.3937007874015748},{"duration":0.2857140000000129,"midi":50,"time":119.14273800000001,"velocity":0.3937007874015748},{"duration":0.14285699999999224,"midi":38,"time":119.42845200000002,"velocity":0.3937007874015748},{"duration":0.14285699999999224,"midi":50,"time":119.42845200000002,"velocity":0.3937007874015748},{"duration":0.2857139999999987,"midi":50,"time":119.57130900000001,"velocity":0.3937007874015748},{"duration":0.2857139999999987,"midi":38,"time":119.57130900000001,"velocity":0.3937007874015748},{"duration":0.14285699999999224,"midi":50,"time":119.85702300000001,"velocity":0.3937007874015748},{"duration":0.14285699999999224,"midi":38,"time":119.85702300000001,"velocity":0.3937007874015748},{"duration":0.2857140000000129,"midi":50,"time":119.99988,"velocity":0.3937007874015748},{"duration":0.2857140000000129,"midi":38,"time":119.99988,"velocity":0.3937007874015748},{"duration":0.14285699999999224,"midi":50,"time":120.28559400000002,"velocity":0.3937007874015748},{"duration":0.14285699999999224,"midi":38,"time":120.28559400000002,"velocity":0.3937007874015748},{"duration":0.2857140000000129,"midi":38,"time":120.42845100000001,"velocity":0.3937007874015748},{"duration":0.2857140000000129,"midi":50,"time":120.42845100000001,"velocity":0.3937007874015748},{"duration":0.14285699999999224,"midi":38,"time":120.71416500000002,"velocity":0.3937007874015748},{"duration":0.14285699999999224,"midi":50,"time":120.71416500000002,"velocity":0.3937007874015748},{"duration":0.2857139999999987,"midi":36,"time":120.85702200000001,"velocity":0.3937007874015748},{"duration":0.2857139999999987,"midi":48,"time":120.85702200000001,"velocity":0.3937007874015748},{"duration":0.14285699999999224,"midi":48,"time":121.14273600000001,"velocity":0.3937007874015748},{"duration":0.14285699999999224,"midi":36,"time":121.14273600000001,"velocity":0.3937007874015748},{"duration":0.2857140000000129,"midi":36,"time":121.285593,"velocity":0.3937007874015748},{"duration":0.2857140000000129,"midi":48,"time":121.285593,"velocity":0.3937007874015748},{"duration":0.14285699999999224,"midi":48,"time":121.57130700000002,"velocity":0.3937007874015748},{"duration":0.14285699999999224,"midi":36,"time":121.57130700000002,"velocity":0.3937007874015748},{"duration":0.2857140000000129,"midi":41,"time":121.71416400000001,"velocity":0.3937007874015748},{"duration":0.2857140000000129,"midi":53,"time":121.71416400000001,"velocity":0.3937007874015748},{"duration":0.14285699999999224,"midi":53,"time":121.99987800000002,"velocity":0.3937007874015748},{"duration":0.14285699999999224,"midi":41,"time":121.99987800000002,"velocity":0.3937007874015748},{"duration":0.2857139999999987,"midi":41,"time":122.14273500000002,"velocity":0.3937007874015748},{"duration":0.2857139999999987,"midi":53,"time":122.14273500000002,"velocity":0.3937007874015748},{"duration":0.14285699999999224,"midi":53,"time":122.42844900000001,"velocity":0.3937007874015748},{"duration":0.14285699999999224,"midi":41,"time":122.42844900000001,"velocity":0.3937007874015748},{"duration":0.2857140000000129,"midi":46,"time":122.571306,"velocity":0.3937007874015748},{"duration":0.2857140000000129,"midi":34,"time":122.571306,"velocity":0.3937007874015748},{"duration":0.14285699999999224,"midi":34,"time":122.85702000000002,"velocity":0.3937007874015748},{"duration":0.14285699999999224,"midi":46,"time":122.85702000000002,"velocity":0.3937007874015748},{"duration":0.2857140000000129,"midi":34,"time":122.99987700000001,"velocity":0.3937007874015748},{"duration":0.2857140000000129,"midi":46,"time":122.99987700000001,"velocity":0.3937007874015748},{"duration":0.14285699999997803,"midi":34,"time":123.28559100000003,"velocity":0.3937007874015748},{"duration":0.14285699999997803,"midi":46,"time":123.28559100000003,"velocity":0.3937007874015748},{"duration":0.2857140000000129,"midi":38,"time":123.428448,"velocity":0.3937007874015748},{"duration":0.2857140000000129,"midi":50,"time":123.428448,"velocity":0.3937007874015748},{"duration":0.14285699999999224,"midi":50,"time":123.71416200000002,"velocity":0.3937007874015748},{"duration":0.14285699999999224,"midi":38,"time":123.71416200000002,"velocity":0.3937007874015748},{"duration":0.2857140000000129,"midi":38,"time":123.85701900000001,"velocity":0.3937007874015748},{"duration":0.2857140000000129,"midi":50,"time":123.85701900000001,"velocity":0.3937007874015748},{"duration":0.14285699999999224,"midi":50,"time":124.14273300000002,"velocity":0.3937007874015748},{"duration":0.14285699999999224,"midi":38,"time":124.14273300000002,"velocity":0.3937007874015748},{"duration":0.2857139999999987,"midi":46,"time":124.28559000000001,"velocity":0.3937007874015748},{"duration":0.2857139999999987,"midi":34,"time":124.28559000000001,"velocity":0.3937007874015748},{"duration":0.14285699999999224,"midi":46,"time":124.57130400000001,"velocity":0.3937007874015748},{"duration":0.14285699999999224,"midi":34,"time":124.57130400000001,"velocity":0.3937007874015748},{"duration":0.2857140000000129,"midi":34,"time":124.714161,"velocity":0.3937007874015748},{"duration":0.2857140000000129,"midi":46,"time":124.714161,"velocity":0.3937007874015748},{"duration":0.14285699999999224,"midi":46,"time":124.99987500000002,"velocity":0.3937007874015748},{"duration":0.14285699999999224,"midi":34,"time":124.99987500000002,"velocity":0.3937007874015748},{"duration":0.2857140000000129,"midi":33,"time":125.14273200000001,"velocity":0.3937007874015748},{"duration":0.2857140000000129,"midi":45,"time":125.14273200000001,"velocity":0.3937007874015748},{"duration":0.14285699999999224,"midi":33,"time":125.42844600000002,"velocity":0.3937007874015748},{"duration":0.14285699999999224,"midi":45,"time":125.42844600000002,"velocity":0.3937007874015748},{"duration":0.2857139999999987,"midi":33,"time":125.57130300000001,"velocity":0.3937007874015748},{"duration":0.2857139999999987,"midi":45,"time":125.57130300000001,"velocity":0.3937007874015748},{"duration":0.14285699999999224,"midi":33,"time":125.85701700000001,"velocity":0.3937007874015748},{"duration":0.14285699999999224,"midi":45,"time":125.85701700000001,"velocity":0.3937007874015748},{"duration":0.2857140000000129,"midi":45,"time":125.999874,"velocity":0.3937007874015748},{"duration":0.2857140000000129,"midi":33,"time":125.999874,"velocity":0.3937007874015748},{"duration":0.14285699999999224,"midi":45,"time":126.28558800000002,"velocity":0.3937007874015748},{"duration":0.14285699999999224,"midi":33,"time":126.28558800000002,"velocity":0.3937007874015748},{"duration":0.2857140000000129,"midi":45,"time":126.42844500000001,"velocity":0.3937007874015748},{"duration":0.2857140000000129,"midi":33,"time":126.42844500000001,"velocity":0.3937007874015748},{"duration":0.14285699999999224,"midi":45,"time":126.71415900000002,"velocity":0.3937007874015748},{"duration":0.14285699999999224,"midi":33,"time":126.71415900000002,"velocity":0.3937007874015748},{"duration":0.2857139999999987,"midi":38,"time":126.85701600000002,"velocity":0.3937007874015748},{"duration":0.2857139999999987,"midi":50,"time":126.85701600000002,"velocity":0.3937007874015748},{"duration":0.14285699999999224,"midi":38,"time":127.14273000000001,"velocity":0.3937007874015748},{"duration":0.14285699999999224,"midi":50,"time":127.14273000000001,"velocity":0.3937007874015748},{"duration":0.2857140000000129,"midi":52,"time":127.285587,"velocity":0.3937007874015748},{"duration":0.2857140000000129,"midi":40,"time":127.285587,"velocity":0.3937007874015748},{"duration":0.14285699999999224,"midi":52,"time":127.57130100000002,"velocity":0.3937007874015748},{"duration":0.14285699999999224,"midi":40,"time":127.57130100000002,"velocity":0.3937007874015748},{"duration":0.2857140000000129,"midi":41,"time":127.71415800000001,"velocity":0.3937007874015748},{"duration":0.2857140000000129,"midi":53,"time":127.71415800000001,"velocity":0.3937007874015748},{"duration":0.14285699999997803,"midi":53,"time":127.99987200000002,"velocity":0.3937007874015748},{"duration":0.14285699999997803,"midi":41,"time":127.99987200000002,"velocity":0.3937007874015748},{"duration":0.2857140000000129,"midi":43,"time":128.142729,"velocity":0.3937007874015748},{"duration":0.2857140000000129,"midi":55,"time":128.142729,"velocity":0.3937007874015748},{"duration":0.14285699999999224,"midi":43,"time":128.42844300000002,"velocity":0.3937007874015748},{"duration":0.14285699999999224,"midi":55,"time":128.42844300000002,"velocity":0.3937007874015748},{"duration":0.2857140000000129,"midi":50,"time":128.5713,"velocity":0.3937007874015748},{"duration":0.2857140000000129,"midi":57,"time":128.5713,"velocity":0.3937007874015748},{"duration":0.2857140000000129,"midi":45,"time":128.5713,"velocity":0.3937007874015748},{"duration":0.2857140000000129,"midi":53,"time":128.5713,"velocity":0.3937007874015748},{"duration":0.5714279999999974,"midi":57,"time":128.85701400000002,"velocity":0.3937007874015748},{"duration":0.5714279999999974,"midi":53,"time":128.85701400000002,"velocity":0.3937007874015748},{"duration":0.5714279999999974,"midi":45,"time":128.85701400000002,"velocity":0.3937007874015748},{"duration":0.5714279999999974,"midi":50,"time":128.85701400000002,"velocity":0.3937007874015748},{"duration":0.5714279999999974,"midi":53,"time":129.42844200000002,"velocity":0.3937007874015748},{"duration":0.5714279999999974,"midi":45,"time":129.42844200000002,"velocity":0.3937007874015748},{"duration":0.5714279999999974,"midi":57,"time":129.42844200000002,"velocity":0.3937007874015748},{"duration":0.5714279999999974,"midi":50,"time":129.42844200000002,"velocity":0.3937007874015748},{"duration":0.2857139999999845,"midi":57,"time":129.99987000000002,"velocity":0.3937007874015748},{"duration":0.2857139999999845,"midi":45,"time":129.99987000000002,"velocity":0.3937007874015748},{"duration":0.2857140000000129,"midi":49,"time":130.285584,"velocity":0.3937007874015748},{"duration":0.2857140000000129,"midi":45,"time":130.285584,"velocity":0.3937007874015748},{"duration":0.2857140000000129,"midi":57,"time":130.285584,"velocity":0.3937007874015748},{"duration":0.2857140000000129,"midi":52,"time":130.285584,"velocity":0.3937007874015748},{"duration":0.5714279999999974,"midi":52,"time":130.571298,"velocity":0.3937007874015748},{"duration":0.5714279999999974,"midi":45,"time":130.571298,"velocity":0.3937007874015748},{"duration":0.5714279999999974,"midi":49,"time":130.571298,"velocity":0.3937007874015748},{"duration":0.5714279999999974,"midi":57,"time":130.571298,"velocity":0.3937007874015748},{"duration":0.5714279999999974,"midi":49,"time":131.142726,"velocity":0.3937007874015748},{"duration":0.5714279999999974,"midi":52,"time":131.142726,"velocity":0.3937007874015748},{"duration":0.5714279999999974,"midi":57,"time":131.142726,"velocity":0.3937007874015748},{"duration":0.5714279999999974,"midi":45,"time":131.142726,"velocity":0.3937007874015748},{"duration":0.2857140000000129,"midi":48,"time":131.714154,"velocity":0.3937007874015748},{"duration":0.2857140000000129,"midi":60,"time":131.714154,"velocity":0.3937007874015748},{"duration":0.2857139999999845,"midi":38,"time":131.99986800000002,"velocity":0.3937007874015748},{"duration":0.2857139999999845,"midi":50,"time":131.99986800000002,"velocity":0.3937007874015748},{"duration":0.14285699999999224,"midi":50,"time":132.285582,"velocity":0.3937007874015748},{"duration":0.14285699999999224,"midi":38,"time":132.285582,"velocity":0.3937007874015748},{"duration":0.14285699999999224,"midi":50,"time":132.428439,"velocity":0.3937007874015748},{"duration":0.14285699999999224,"midi":38,"time":132.428439,"velocity":0.3937007874015748},{"duration":0.14285700000002066,"midi":38,"time":132.571296,"velocity":0.3937007874015748},{"duration":0.14285700000002066,"midi":50,"time":132.571296,"velocity":0.3937007874015748},{"duration":0.14285699999999224,"midi":50,"time":132.714153,"velocity":0.3937007874015748},{"duration":0.14285699999999224,"midi":38,"time":132.714153,"velocity":0.3937007874015748},{"duration":0.2857140000000129,"midi":31,"time":132.85701,"velocity":0.3937007874015748},{"duration":0.2857140000000129,"midi":43,"time":132.85701,"velocity":0.3937007874015748},{"duration":0.14285699999999224,"midi":43,"time":133.14272400000002,"velocity":0.3937007874015748},{"duration":0.14285699999999224,"midi":31,"time":133.14272400000002,"velocity":0.3937007874015748},{"duration":0.14285699999999224,"midi":31,"time":133.285581,"velocity":0.3937007874015748},{"duration":0.14285699999999224,"midi":43,"time":133.285581,"velocity":0.3937007874015748},{"duration":0.14285700000002066,"midi":31,"time":133.428438,"velocity":0.3937007874015748},{"duration":0.14285700000002066,"midi":43,"time":133.428438,"velocity":0.3937007874015748},{"duration":0.14285699999999224,"midi":43,"time":133.57129500000002,"velocity":0.3937007874015748},{"duration":0.14285699999999224,"midi":31,"time":133.57129500000002,"velocity":0.3937007874015748},{"duration":0.2857140000000129,"midi":53,"time":133.714152,"velocity":0.3937007874015748},{"duration":0.2857140000000129,"midi":41,"time":133.714152,"velocity":0.3937007874015748},{"duration":0.14285699999999224,"midi":41,"time":133.99986600000003,"velocity":0.3937007874015748},{"duration":0.14285699999999224,"midi":53,"time":133.99986600000003,"velocity":0.3937007874015748},{"duration":0.14285699999999224,"midi":41,"time":134.14272300000002,"velocity":0.3937007874015748},{"duration":0.14285699999999224,"midi":53,"time":134.14272300000002,"velocity":0.3937007874015748},{"duration":0.14285700000002066,"midi":41,"time":134.28558,"velocity":0.3937007874015748},{"duration":0.14285700000002066,"midi":53,"time":134.28558,"velocity":0.3937007874015748},{"duration":0.14285699999999224,"midi":41,"time":134.42843700000003,"velocity":0.3937007874015748},{"duration":0.14285699999999224,"midi":53,"time":134.42843700000003,"velocity":0.3937007874015748},{"duration":0.2857139999999845,"midi":48,"time":134.57129400000002,"velocity":0.3937007874015748},{"duration":0.2857139999999845,"midi":36,"time":134.57129400000002,"velocity":0.3937007874015748},{"duration":0.14285699999999224,"midi":48,"time":134.857008,"velocity":0.3937007874015748},{"duration":0.14285699999999224,"midi":36,"time":134.857008,"velocity":0.3937007874015748},{"duration":0.14285699999999224,"midi":36,"time":134.999865,"velocity":0.3937007874015748},{"duration":0.14285699999999224,"midi":48,"time":134.999865,"velocity":0.3937007874015748},{"duration":0.14285700000002066,"midi":36,"time":135.142722,"velocity":0.3937007874015748},{"duration":0.14285700000002066,"midi":48,"time":135.142722,"velocity":0.3937007874015748},{"duration":0.14285699999999224,"midi":36,"time":135.285579,"velocity":0.3937007874015748},{"duration":0.14285699999999224,"midi":48,"time":135.285579,"velocity":0.3937007874015748},{"duration":0.2857140000000129,"midi":43,"time":135.428436,"velocity":0.3937007874015748},{"duration":0.2857140000000129,"midi":31,"time":135.428436,"velocity":0.3937007874015748},{"duration":0.14285699999999224,"midi":31,"time":135.71415000000002,"velocity":0.3937007874015748},{"duration":0.14285699999999224,"midi":43,"time":135.71415000000002,"velocity":0.3937007874015748},{"duration":0.2857140000000129,"midi":31,"time":135.857007,"velocity":0.3937007874015748},{"duration":0.14285699999999224,"midi":43,"time":135.857007,"velocity":0.3937007874015748},{"duration":0.14285700000002066,"midi":43,"time":135.999864,"velocity":0.3937007874015748},{"duration":0.14285699999999224,"midi":31,"time":136.14272100000002,"velocity":0.3937007874015748},{"duration":0.14285699999999224,"midi":43,"time":136.14272100000002,"velocity":0.3937007874015748},{"duration":0.2857140000000129,"midi":45,"time":136.28557800000002,"velocity":0.3937007874015748},{"duration":0.2857140000000129,"midi":33,"time":136.28557800000002,"velocity":0.3937007874015748},{"duration":0.14285699999999224,"midi":33,"time":136.57129200000003,"velocity":0.3937007874015748},{"duration":0.14285699999999224,"midi":45,"time":136.57129200000003,"velocity":0.3937007874015748},{"duration":0.14285699999999224,"midi":33,"time":136.71414900000002,"velocity":0.3937007874015748},{"duration":0.14285699999999224,"midi":45,"time":136.71414900000002,"velocity":0.3937007874015748},{"duration":0.14285700000002066,"midi":33,"time":136.857006,"velocity":0.3937007874015748},{"duration":0.14285700000002066,"midi":45,"time":136.857006,"velocity":0.3937007874015748},{"duration":0.14285699999996382,"midi":45,"time":136.99986300000003,"velocity":0.3937007874015748},{"duration":0.14285699999996382,"midi":33,"time":136.99986300000003,"velocity":0.3937007874015748},{"duration":0.2857140000000129,"midi":45,"time":137.14272,"velocity":0.3937007874015748},{"duration":0.2857140000000129,"midi":33,"time":137.14272,"velocity":0.3937007874015748},{"duration":0.14285699999999224,"midi":33,"time":137.428434,"velocity":0.3937007874015748},{"duration":0.14285699999999224,"midi":45,"time":137.428434,"velocity":0.3937007874015748},{"duration":0.14285699999999224,"midi":45,"time":137.571291,"velocity":0.3937007874015748},{"duration":0.14285699999999224,"midi":33,"time":137.571291,"velocity":0.3937007874015748},{"duration":0.14285700000002066,"midi":33,"time":137.714148,"velocity":0.3937007874015748},{"duration":0.14285700000002066,"midi":45,"time":137.714148,"velocity":0.3937007874015748},{"duration":0.14285699999999224,"midi":33,"time":137.85700500000002,"velocity":0.3937007874015748},{"duration":0.14285699999999224,"midi":45,"time":137.85700500000002,"velocity":0.3937007874015748},{"duration":0.2857140000000129,"midi":50,"time":137.999862,"velocity":0.3937007874015748},{"duration":0.2857140000000129,"midi":38,"time":137.999862,"velocity":0.3937007874015748},{"duration":0.14285699999999224,"midi":50,"time":138.28557600000002,"velocity":0.3937007874015748},{"duration":0.14285699999999224,"midi":38,"time":138.28557600000002,"velocity":0.3937007874015748},{"duration":0.14285699999999224,"midi":50,"time":138.428433,"velocity":0.3937007874015748},{"duration":0.14285699999999224,"midi":38,"time":138.428433,"velocity":0.3937007874015748},{"duration":0.14285700000002066,"midi":38,"time":138.57129,"velocity":0.3937007874015748},{"duration":0.14285700000002066,"midi":50,"time":138.57129,"velocity":0.3937007874015748},{"duration":0.14285699999999224,"midi":50,"time":138.71414700000003,"velocity":0.3937007874015748},{"duration":0.14285699999999224,"midi":38,"time":138.71414700000003,"velocity":0.3937007874015748},{"duration":0.2857140000000129,"midi":38,"time":138.85700400000002,"velocity":0.3937007874015748},{"duration":0.2857140000000129,"midi":50,"time":138.85700400000002,"velocity":0.3937007874015748},{"duration":0.14285699999999224,"midi":38,"time":139.14271800000003,"velocity":0.3937007874015748},{"duration":0.14285699999999224,"midi":50,"time":139.14271800000003,"velocity":0.3937007874015748},{"duration":0.14285699999999224,"midi":50,"time":139.28557500000002,"velocity":0.3937007874015748},{"duration":0.14285699999999224,"midi":38,"time":139.28557500000002,"velocity":0.3937007874015748},{"duration":0.14285699999999224,"midi":38,"time":139.42843200000002,"velocity":0.3937007874015748},{"duration":0.14285699999999224,"midi":50,"time":139.42843200000002,"velocity":0.3937007874015748},{"duration":0.14285699999999224,"midi":50,"time":139.571289,"velocity":0.3937007874015748},{"duration":0.14285699999999224,"midi":38,"time":139.571289,"velocity":0.3937007874015748},{"duration":0.2857140000000129,"midi":34,"time":139.714146,"velocity":0.3937007874015748},{"duration":0.2857140000000129,"midi":46,"time":139.714146,"velocity":0.3937007874015748},{"duration":0.14285699999999224,"midi":46,"time":139.99986,"velocity":0.3937007874015748},{"duration":0.14285699999999224,"midi":34,"time":139.99986,"velocity":0.3937007874015748},{"duration":0.14285699999999224,"midi":34,"time":140.142717,"velocity":0.3937007874015748},{"duration":0.14285699999999224,"midi":46,"time":140.142717,"velocity":0.3937007874015748},{"duration":0.14285700000002066,"midi":34,"time":140.285574,"velocity":0.3937007874015748},{"duration":0.14285700000002066,"midi":46,"time":140.285574,"velocity":0.3937007874015748},{"duration":0.14285699999999224,"midi":34,"time":140.42843100000002,"velocity":0.3937007874015748},{"duration":0.14285699999999224,"midi":46,"time":140.42843100000002,"velocity":0.3937007874015748},{"duration":0.2857140000000129,"midi":53,"time":140.571288,"velocity":0.3937007874015748},{"duration":0.2857140000000129,"midi":41,"time":140.571288,"velocity":0.3937007874015748},{"duration":0.14285699999999224,"midi":53,"time":140.85700200000002,"velocity":0.3937007874015748},{"duration":0.14285699999999224,"midi":41,"time":140.85700200000002,"velocity":0.3937007874015748},{"duration":0.14285699999999224,"midi":41,"time":140.99985900000001,"velocity":0.3937007874015748},{"duration":0.14285699999999224,"midi":53,"time":140.99985900000001,"velocity":0.3937007874015748},{"duration":0.14285700000002066,"midi":53,"time":141.142716,"velocity":0.3937007874015748},{"duration":0.14285700000002066,"midi":41,"time":141.142716,"velocity":0.3937007874015748},{"duration":0.14285699999999224,"midi":41,"time":141.28557300000003,"velocity":0.3937007874015748},{"duration":0.14285699999999224,"midi":53,"time":141.28557300000003,"velocity":0.3937007874015748},{"duration":0.2857140000000129,"midi":48,"time":141.42843000000002,"velocity":0.3937007874015748},{"duration":0.2857140000000129,"midi":36,"time":141.42843000000002,"velocity":0.3937007874015748},{"duration":0.14285699999999224,"midi":36,"time":141.71414400000003,"velocity":0.3937007874015748},{"duration":0.14285699999999224,"midi":48,"time":141.71414400000003,"velocity":0.3937007874015748},{"duration":0.14285699999999224,"midi":36,"time":141.85700100000003,"velocity":0.3937007874015748},{"duration":0.14285699999999224,"midi":48,"time":141.85700100000003,"velocity":0.3937007874015748},{"duration":0.14285699999999224,"midi":36,"time":141.99985800000002,"velocity":0.3937007874015748},{"duration":0.14285699999999224,"midi":48,"time":141.99985800000002,"velocity":0.3937007874015748},{"duration":0.14285699999999224,"midi":48,"time":142.142715,"velocity":0.3937007874015748},{"duration":0.14285699999999224,"midi":36,"time":142.142715,"velocity":0.3937007874015748},{"duration":0.2857140000000129,"midi":31,"time":142.285572,"velocity":0.3937007874015748},{"duration":0.2857140000000129,"midi":43,"time":142.285572,"velocity":0.3937007874015748},{"duration":0.14285699999999224,"midi":31,"time":142.57128600000001,"velocity":0.3937007874015748},{"duration":0.14285699999999224,"midi":43,"time":142.57128600000001,"velocity":0.3937007874015748},{"duration":0.14285699999999224,"midi":43,"time":142.714143,"velocity":0.3937007874015748},{"duration":0.14285699999999224,"midi":31,"time":142.714143,"velocity":0.3937007874015748},{"duration":0.14285700000002066,"midi":31,"time":142.857,"velocity":0.3937007874015748},{"duration":0.14285700000002066,"midi":43,"time":142.857,"velocity":0.3937007874015748},{"duration":0.14285699999999224,"midi":43,"time":142.99985700000002,"velocity":0.3937007874015748},{"duration":0.14285699999999224,"midi":31,"time":142.99985700000002,"velocity":0.3937007874015748},{"duration":0.2857140000000129,"midi":45,"time":143.142714,"velocity":0.3937007874015748},{"duration":0.2857140000000129,"midi":33,"time":143.142714,"velocity":0.3937007874015748},{"duration":0.14285699999999224,"midi":33,"time":143.42842800000003,"velocity":0.3937007874015748},{"duration":0.14285699999999224,"midi":45,"time":143.42842800000003,"velocity":0.3937007874015748},{"duration":0.14285699999999224,"midi":33,"time":143.57128500000002,"velocity":0.3937007874015748},{"duration":0.14285699999999224,"midi":45,"time":143.57128500000002,"velocity":0.3937007874015748},{"duration":0.14285700000002066,"midi":33,"time":143.714142,"velocity":0.3937007874015748},{"duration":0.14285700000002066,"midi":45,"time":143.714142,"velocity":0.3937007874015748},{"duration":0.14285699999999224,"midi":45,"time":143.85699900000003,"velocity":0.3937007874015748},{"duration":0.14285699999999224,"midi":33,"time":143.85699900000003,"velocity":0.3937007874015748},{"duration":0.2857139999999845,"midi":45,"time":143.99985600000002,"velocity":0.3937007874015748},{"duration":0.2857139999999845,"midi":33,"time":143.99985600000002,"velocity":0.3937007874015748},{"duration":0.14285699999999224,"midi":33,"time":144.28557,"velocity":0.3937007874015748},{"duration":0.14285699999999224,"midi":45,"time":144.28557,"velocity":0.3937007874015748},{"duration":0.14285699999999224,"midi":33,"time":144.428427,"velocity":0.3937007874015748},{"duration":0.14285699999999224,"midi":45,"time":144.428427,"velocity":0.3937007874015748},{"duration":0.14285700000002066,"midi":33,"time":144.571284,"velocity":0.3937007874015748},{"duration":0.14285700000002066,"midi":45,"time":144.571284,"velocity":0.3937007874015748},{"duration":0.14285699999999224,"midi":45,"time":144.714141,"velocity":0.3937007874015748},{"duration":0.14285699999999224,"midi":33,"time":144.714141,"velocity":0.3937007874015748},{"duration":0.42857100000000514,"midi":38,"time":144.856998,"velocity":0.3937007874015748},{"duration":0.42857100000000514,"midi":50,"time":144.856998,"velocity":0.3937007874015748},{"duration":0.42857100000000514,"midi":50,"time":145.285569,"velocity":0.3937007874015748},{"duration":0.42857100000000514,"midi":38,"time":145.285569,"velocity":0.3937007874015748},{"duration":1.7142839999999921,"midi":38,"time":145.71414000000001,"velocity":0.3937007874015748},{"duration":1.7142839999999921,"midi":50,"time":145.71414000000001,"velocity":0.3937007874015748}]}]}
