{"tracks":[{"instrument":{"family":"piano","number":0,"name":"acoustic grand piano"},"notes":[{"duration":0.13636349999999986,"midi":70,"time":8.8636275,"velocity":0.3937007874015748},{"duration":0.13636349999999986,"midi":67,"time":9.4090815,"velocity":0.3937007874015748},{"duration":0.13636349999999986,"midi":70,"time":13.2272595,"velocity":0.3937007874015748},{"duration":0.13636349999999986,"midi":67,"time":13.7727135,"velocity":0.3937007874015748},{"duration":0.13636350000000164,"midi":70,"time":16.4999835,"velocity":0.3937007874015748},{"duration":0.13636350000000164,"midi":67,"time":16.7727105,"velocity":0.3937007874015748},{"duration":0.13636350000000164,"midi":74,"time":17.0454375,"velocity":0.3937007874015748},{"duration":0.13636350000000164,"midi":67,"time":17.318164499999998,"velocity":0.3937007874015748},{"duration":0.13636349999999808,"midi":70,"time":17.5908915,"velocity":0.3937007874015748},{"duration":0.13636349999999808,"midi":70,"time":17.5908915,"velocity":0.3937007874015748},{"duration":0.13636349999999808,"midi":70,"time":17.5908915,"velocity":0.3937007874015748},{"duration":0.13636349999999808,"midi":67,"time":18.1363455,"velocity":0.3937007874015748},{"duration":0.13636349999999808,"midi":67,"time":18.1363455,"velocity":0.3937007874015748},{"duration":0.13636349999999808,"midi":70,"time":21.9545235,"velocity":0.3937007874015748},{"duration":0.13636349999999808,"midi":70,"time":21.9545235,"velocity":0.3937007874015748},{"duration":0.13636349999999808,"midi":67,"time":22.4999775,"velocity":0.3937007874015748},{"duration":0.13636349999999808,"midi":67,"time":22.4999775,"velocity":0.3937007874015748},{"duration":0.13636349999999808,"midi":70,"time":25.2272475,"velocity":0.3937007874015748},{"duration":0.13636349999999808,"midi":70,"time":25.2272475,"velocity":0.3937007874015748},{"duration":0.13636349999999808,"midi":67,"time":25.4999745,"velocity":0.3937007874015748},{"duration":0.13636349999999808,"midi":67,"time":25.4999745,"velocity":0.3937007874015748},{"duration":0.13636349999999808,"midi":74,"time":25.7727015,"velocity":0.3937007874015748},{"duration":0.13636349999999808,"midi":74,"time":25.7727015,"velocity":0.3937007874015748},{"duration":0.13636350000000164,"midi":67,"time":26.0454285,"velocity":0.3937007874015748},{"duration":0.13636350000000164,"midi":67,"time":26.0454285,"velocity":0.3937007874015748},{"duration":0.27272699999999617,"midi":79,"time":35.0454195,"velocity":0.3937007874015748},{"duration":0.27272699999999617,"midi":74,"time":35.5908735,"velocity":0.3937007874015748},{"duration":0.27272699999999617,"midi":70,"time":36.1363275,"velocity":0.3937007874015748},{"duration":0.2727270000000033,"midi":67,"time":36.6817815,"velocity":0.3937007874015748},{"duration":0.8181809999999956,"midi":77,"time":36.9545085,"velocity":0.3937007874015748},{"duration":0.8181809999999956,"midi":75,"time":38.0454165,"velocity":0.3937007874015748},{"duration":0.2727270000000033,"midi":74,"time":39.4090515,"velocity":0.3937007874015748},{"duration":0.2727270000000033,"midi":69,"time":39.954505499999996,"velocity":0.3937007874015748},{"duration":0.27272699999999617,"midi":66,"time":40.4999595,"velocity":0.3937007874015748},{"duration":0.27272699999999617,"midi":69,"time":41.0454135,"velocity":0.3937007874015748},{"duration":0.8181810000000027,"midi":75,"time":41.3181405,"velocity":0.3937007874015748},{"duration":0.8181810000000027,"midi":74,"time":42.4090485,"velocity":0.3937007874015748},{"duration":0.2727270000000033,"midi":79,"time":43.7726835,"velocity":0.3937007874015748},{"duration":0.2727270000000033,"midi":74,"time":44.3181375,"velocity":0.3937007874015748},{"duration":0.2727270000000033,"midi":70,"time":44.8635915,"velocity":0.3937007874015748},{"duration":0.2727270000000033,"midi":67,"time":45.4090455,"velocity":0.3937007874015748},{"duration":0.8181809999999956,"midi":77,"time":45.6817725,"velocity":0.3937007874015748},{"duration":0.8181810000000027,"midi":75,"time":46.7726805,"velocity":0.3937007874015748},{"duration":0.27272699999999617,"midi":73,"time":48.1363155,"velocity":0.3937007874015748},{"duration":0.2727270000000033,"midi":74,"time":48.4090425,"velocity":0.3937007874015748},{"duration":0.27272699999999617,"midi":73,"time":48.6817695,"velocity":0.3937007874015748},{"duration":0.2727270000000033,"midi":74,"time":48.9544965,"velocity":0.3937007874015748},{"duration":0.27272699999999617,"midi":73,"time":49.2272235,"velocity":0.3937007874015748},{"duration":0.2727270000000033,"midi":72,"time":49.4999505,"velocity":0.3937007874015748},{"duration":0.27272699999999617,"midi":70,"time":49.7726775,"velocity":0.3937007874015748},{"duration":0.2727270000000033,"midi":66,"time":50.0454045,"velocity":0.3937007874015748},{"duration":1.0909079999999989,"midi":67,"time":50.3181315,"velocity":0.3937007874015748},{"duration":0.2727270000000033,"midi":62,"time":51.4090395,"velocity":0.3937007874015748},{"duration":0.27272699999999617,"midi":66,"time":51.6817665,"velocity":0.3937007874015748},{"duration":0.2727270000000033,"midi":69,"time":51.9544935,"velocity":0.3937007874015748},{"duration":0.27272699999999617,"midi":74,"time":52.2272205,"velocity":0.3937007874015748},{"duration":0.2727270000000033,"midi":79,"time":52.4999475,"velocity":0.3937007874015748},{"duration":0.2727270000000033,"midi":74,"time":53.0454015,"velocity":0.3937007874015748},{"duration":0.2727270000000033,"midi":70,"time":53.590855499999996,"velocity":0.3937007874015748},{"duration":0.27272699999999617,"midi":67,"time":54.1363095,"velocity":0.3937007874015748},{"duration":0.8181810000000027,"midi":77,"time":54.4090365,"velocity":0.3937007874015748},{"duration":0.8181810000000027,"midi":75,"time":55.4999445,"velocity":0.3937007874015748},{"duration":0.27272699999999617,"midi":74,"time":56.8635795,"velocity":0.3937007874015748},{"duration":0.2727270000000033,"midi":69,"time":57.4090335,"velocity":0.3937007874015748},{"duration":0.2727270000000033,"midi":66,"time":57.9544875,"velocity":0.3937007874015748},{"duration":0.2727270000000033,"midi":69,"time":58.4999415,"velocity":0.3937007874015748},{"duration":0.8181809999999956,"midi":75,"time":58.7726685,"velocity":0.3937007874015748},{"duration":0.8181809999999956,"midi":74,"time":59.8635765,"velocity":0.3937007874015748},{"duration":0.27272699999999617,"midi":79,"time":61.2272115,"velocity":0.3937007874015748},{"duration":0.27272699999999617,"midi":74,"time":61.7726655,"velocity":0.3937007874015748},{"duration":0.27272699999999617,"midi":70,"time":62.3181195,"velocity":0.3937007874015748},{"duration":0.27272699999999617,"midi":67,"time":62.8635735,"velocity":0.3937007874015748},{"duration":0.8181810000000027,"midi":77,"time":63.1363005,"velocity":0.3937007874015748},{"duration":0.8181809999999956,"midi":75,"time":64.2272085,"velocity":0.3937007874015748},{"duration":0.27272699999998906,"midi":73,"time":65.5908435,"velocity":0.3937007874015748},{"duration":0.2727270000000033,"midi":74,"time":65.8635705,"velocity":0.3937007874015748},{"duration":0.2727270000000033,"midi":73,"time":66.1362975,"velocity":0.3937007874015748},{"duration":0.2727270000000033,"midi":74,"time":66.4090245,"velocity":0.3937007874015748},{"duration":0.27272699999998906,"midi":73,"time":66.6817515,"velocity":0.3937007874015748},{"duration":0.2727270000000033,"midi":72,"time":66.9544785,"velocity":0.3937007874015748},{"duration":0.2727270000000033,"midi":70,"time":67.2272055,"velocity":0.3937007874015748},{"duration":0.2727270000000033,"midi":66,"time":67.4999325,"velocity":0.3937007874015748},{"duration":1.0909079999999989,"midi":67,"time":67.7726595,"velocity":0.3937007874015748},{"duration":0.2727270000000033,"midi":67,"time":68.8635675,"velocity":0.3937007874015748},{"duration":0.27272699999998906,"midi":69,"time":69.1362945,"velocity":0.3937007874015748},{"duration":0.2727270000000033,"midi":70,"time":69.4090215,"velocity":0.3937007874015748},{"duration":0.2727270000000033,"midi":74,"time":69.6817485,"velocity":0.3937007874015748},{"duration":1.0909079999999989,"midi":75,"time":69.9544755,"velocity":0.3937007874015748},{"duration":0.13636350000000164,"midi":60,"time":72.1362915,"velocity":0.3937007874015748},{"duration":0.13636350000000164,"midi":63,"time":72.4090185,"velocity":0.3937007874015748},{"duration":0.13636349999998743,"midi":67,"time":72.6817455,"velocity":0.3937007874015748},{"duration":0.13636350000000164,"midi":70,"time":72.9544725,"velocity":0.3937007874015748},{"duration":0.13636350000000164,"midi":72,"time":73.2271995,"velocity":0.3937007874015748},{"duration":0.13636350000000164,"midi":74,"time":73.4999265,"velocity":0.3937007874015748},{"duration":0.13636350000000164,"midi":69,"time":73.7726535,"velocity":0.3937007874015748},{"duration":0.13636350000000164,"midi":65,"time":74.0453805,"velocity":0.3937007874015748},{"duration":1.0909079999999989,"midi":62,"time":74.3181075,"velocity":0.3937007874015748},{"duration":0.2727270000000033,"midi":74,"time":76.7726505,"velocity":0.3937007874015748},{"duration":0.2727270000000033,"midi":72,"time":77.0453775,"velocity":0.3937007874015748},{"duration":0.27272699999998906,"midi":70,"time":77.3181045,"velocity":0.3937007874015748},{"duration":0.2727270000000033,"midi":72,"time":77.5908315,"velocity":0.3937007874015748},{"duration":0.2727270000000033,"midi":70,"time":77.8635585,"velocity":0.3937007874015748},{"duration":0.2727270000000033,"midi":65,"time":78.1362855,"velocity":0.3937007874015748},{"duration":0.2727270000000033,"midi":62,"time":78.4090125,"velocity":0.3937007874015748},{"duration":1.0909079999999989,"midi":63,"time":78.6817395,"velocity":0.3937007874015748},{"duration":0.13636350000000164,"midi":60,"time":80.8635555,"velocity":0.3937007874015748},{"duration":0.13636350000000164,"midi":63,"time":81.1362825,"velocity":0.3937007874015748},{"duration":0.13636350000000164,"midi":67,"time":81.4090095,"velocity":0.3937007874015748},{"duration":0.13636350000000164,"midi":70,"time":81.6817365,"velocity":0.3937007874015748},{"duration":0.13636349999998743,"midi":72,"time":82.2271905,"velocity":0.3937007874015748},{"duration":0.13636350000000164,"midi":70,"time":82.7726445,"velocity":0.3937007874015748},{"duration":0.2727270000000033,"midi":74,"time":83.0453715,"velocity":0.3937007874015748},{"duration":0.27272699999998906,"midi":70,"time":83.3180985,"velocity":0.3937007874015748},{"duration":0.2727270000000033,"midi":67,"time":83.5908255,"velocity":0.3937007874015748},{"duration":0.5454540000000065,"midi":72,"time":83.8635525,"velocity":0.3937007874015748},{"duration":0.27272699999998906,"midi":69,"time":84.4090065,"velocity":0.3937007874015748},{"duration":0.2727270000000033,"midi":65,"time":84.68173349999999,"velocity":0.3937007874015748},{"duration":1.9090890000000087,"midi":67,"time":84.9544605,"velocity":0.3937007874015748}]},{"instrument":{"family":"synth lead","number":80,"name":"lead 1 (square)"},"notes":[{"duration":0.13636349999999986,"midi":49,"time":7.7727195,"velocity":0.3937007874015748},{"duration":0.13636350000000075,"midi":49,"time":7.909083,"velocity":0.3937007874015748},{"duration":0.13636350000000075,"midi":49,"time":7.909083,"velocity":0.3937007874015748},{"duration":0.13636349999999986,"midi":50,"time":8.0454465,"velocity":0.3937007874015748},{"duration":0.13636349999999986,"midi":50,"time":8.18181,"velocity":0.3937007874015748},{"duration":0.13636349999999986,"midi":50,"time":8.18181,"velocity":0.3937007874015748},{"duration":0.13636349999999986,"midi":55,"time":8.3181735,"velocity":0.3937007874015748},{"duration":0.13636349999999986,"midi":55,"time":8.3181735,"velocity":0.3937007874015748},{"duration":0.13636349999999986,"midi":55,"time":8.454537,"velocity":0.3937007874015748},{"duration":0.13636349999999986,"midi":58,"time":8.5909005,"velocity":0.3937007874015748},{"duration":0.13636349999999986,"midi":58,"time":8.5909005,"velocity":0.3937007874015748},{"duration":0.13636349999999986,"midi":58,"time":8.727264,"velocity":0.3937007874015748},{"duration":0.13636349999999986,"midi":62,"time":8.8636275,"velocity":0.3937007874015748},{"duration":0.13636349999999986,"midi":62,"time":8.8636275,"velocity":0.3937007874015748},{"duration":0.13636349999999986,"midi":62,"time":8.8636275,"velocity":0.3937007874015748},{"duration":0.13636349999999986,"midi":62,"time":8.999991,"velocity":0.3937007874015748},{"duration":0.13636349999999986,"midi":62,"time":8.999991,"velocity":0.3937007874015748},{"duration":0.13636349999999986,"midi":62,"time":9.1363545,"velocity":0.3937007874015748},{"duration":0.13636349999999986,"midi":62,"time":9.272718,"velocity":0.3937007874015748},{"duration":0.13636349999999986,"midi":62,"time":9.4090815,"velocity":0.3937007874015748},{"duration":0.13636350000000164,"midi":62,"time":9.545444999999999,"velocity":0.3937007874015748},{"duration":0.13636349999999986,"midi":62,"time":9.6818085,"velocity":0.3937007874015748},{"duration":0.13636349999999986,"midi":62,"time":9.818172,"velocity":0.3937007874015748},{"duration":0.13636349999999986,"midi":62,"time":9.9545355,"velocity":0.3937007874015748},{"duration":0.13636349999999986,"midi":62,"time":10.090899,"velocity":0.3937007874015748},{"duration":0.13636349999999986,"midi":62,"time":10.2272625,"velocity":0.3937007874015748},{"duration":0.13636349999999986,"midi":62,"time":10.363626,"velocity":0.3937007874015748},{"duration":0.13636349999999986,"midi":62,"time":10.4999895,"velocity":0.3937007874015748},{"duration":0.13636349999999986,"midi":62,"time":10.636353,"velocity":0.3937007874015748},{"duration":0.13636349999999986,"midi":62,"time":10.7727165,"velocity":0.3937007874015748},{"duration":0.13636349999999986,"midi":62,"time":10.90908,"velocity":0.3937007874015748},{"duration":0.13636349999999986,"midi":61,"time":11.0454435,"velocity":0.3937007874015748},{"duration":0.13636349999999986,"midi":61,"time":11.0454435,"velocity":0.3937007874015748},{"duration":0.13636349999999986,"midi":61,"time":11.0454435,"velocity":0.3937007874015748},{"duration":0.13636349999999986,"midi":61,"time":11.181807,"velocity":0.3937007874015748},{"duration":0.13636349999999986,"midi":61,"time":11.181807,"velocity":0.3937007874015748},{"duration":0.13636350000000164,"midi":61,"time":11.318170499999999,"velocity":0.3937007874015748},{"duration":0.13636349999999986,"midi":61,"time":11.454534,"velocity":0.3937007874015748},{"duration":0.13636349999999986,"midi":61,"time":11.5908975,"velocity":0.3937007874015748},{"duration":0.13636349999999986,"midi":61,"time":11.727261,"velocity":0.3937007874015748},{"duration":0.13636349999999986,"midi":61,"time":11.8636245,"velocity":0.3937007874015748},{"duration":0.13636349999999986,"midi":61,"time":11.999988,"velocity":0.3937007874015748},{"duration":0.13636349999999986,"midi":62,"time":12.1363515,"velocity":0.3937007874015748},{"duration":0.13636349999999986,"midi":62,"time":12.1363515,"velocity":0.3937007874015748},{"duration":0.13636349999999986,"midi":62,"time":12.1363515,"velocity":0.3937007874015748},{"duration":0.13636349999999986,"midi":62,"time":12.272715,"velocity":0.3937007874015748},{"duration":0.13636349999999986,"midi":62,"time":12.272715,"velocity":0.3937007874015748},{"duration":0.13636349999999986,"midi":62,"time":12.4090785,"velocity":0.3937007874015748},{"duration":0.13636349999999986,"midi":62,"time":12.545442,"velocity":0.3937007874015748},{"duration":0.13636349999999986,"midi":62,"time":12.6818055,"velocity":0.3937007874015748},{"duration":0.13636349999999986,"midi":62,"time":12.818169,"velocity":0.3937007874015748},{"duration":0.13636350000000164,"midi":62,"time":12.9545325,"velocity":0.3937007874015748},{"duration":0.13636349999999986,"midi":62,"time":13.090896,"velocity":0.3937007874015748},{"duration":0.13636349999999986,"midi":58,"time":13.2272595,"velocity":0.3937007874015748},{"duration":0.13636349999999986,"midi":58,"time":13.2272595,"velocity":0.3937007874015748},{"duration":0.13636349999999986,"midi":58,"time":13.2272595,"velocity":0.3937007874015748},{"duration":0.13636349999999986,"midi":58,"time":13.363623,"velocity":0.3937007874015748},{"duration":0.13636349999999986,"midi":58,"time":13.363623,"velocity":0.3937007874015748},{"duration":0.13636349999999986,"midi":58,"time":13.4999865,"velocity":0.3937007874015748},{"duration":0.13636349999999986,"midi":58,"time":13.63635,"velocity":0.3937007874015748},{"duration":0.13636349999999986,"midi":58,"time":13.7727135,"velocity":0.3937007874015748},{"duration":0.13636349999999986,"midi":58,"time":13.909077,"velocity":0.3937007874015748},{"duration":0.13636349999999986,"midi":58,"time":14.0454405,"velocity":0.3937007874015748},{"duration":0.13636349999999986,"midi":58,"time":14.181804,"velocity":0.3937007874015748},{"duration":0.13636349999999986,"midi":58,"time":14.3181675,"velocity":0.3937007874015748},{"duration":0.13636349999999986,"midi":58,"time":14.454531,"velocity":0.3937007874015748},{"duration":0.13636349999999986,"midi":58,"time":14.5908945,"velocity":0.3937007874015748},{"duration":0.13636350000000164,"midi":58,"time":14.727257999999999,"velocity":0.3937007874015748},{"duration":0.13636349999999986,"midi":58,"time":14.8636215,"velocity":0.3937007874015748},{"duration":0.13636349999999986,"midi":58,"time":14.999985,"velocity":0.3937007874015748},{"duration":0.13636349999999986,"midi":58,"time":15.1363485,"velocity":0.3937007874015748},{"duration":0.13636349999999986,"midi":58,"time":15.272712,"velocity":0.3937007874015748},{"duration":0.13636349999999986,"midi":55,"time":15.4090755,"velocity":0.3937007874015748},{"duration":0.13636349999999986,"midi":55,"time":15.4090755,"velocity":0.3937007874015748},{"duration":0.13636349999999986,"midi":55,"time":15.4090755,"velocity":0.3937007874015748},{"duration":0.13636349999999986,"midi":55,"time":15.545439,"velocity":0.3937007874015748},{"duration":0.13636349999999986,"midi":55,"time":15.545439,"velocity":0.3937007874015748},{"duration":0.13636349999999986,"midi":55,"time":15.6818025,"velocity":0.3937007874015748},{"duration":0.13636349999999986,"midi":55,"time":15.818166,"velocity":0.3937007874015748},{"duration":0.13636350000000164,"midi":55,"time":15.9545295,"velocity":0.3937007874015748},{"duration":0.13636349999999808,"midi":55,"time":16.090893,"velocity":0.3937007874015748},{"duration":0.13636350000000164,"midi":55,"time":16.2272565,"velocity":0.3937007874015748},{"duration":0.13636349999999808,"midi":55,"time":16.36362,"velocity":0.3937007874015748},{"duration":0.13636350000000164,"midi":55,"time":16.4999835,"velocity":0.3937007874015748},{"duration":0.13636349999999808,"midi":55,"time":16.636347,"velocity":0.3937007874015748},{"duration":0.13636350000000164,"midi":55,"time":16.7727105,"velocity":0.3937007874015748},{"duration":0.13636349999999808,"midi":55,"time":16.909074,"velocity":0.3937007874015748},{"duration":0.13636350000000164,"midi":55,"time":17.0454375,"velocity":0.3937007874015748},{"duration":0.13636349999999808,"midi":55,"time":17.181801,"velocity":0.3937007874015748},{"duration":0.13636350000000164,"midi":55,"time":17.318164499999998,"velocity":0.3937007874015748},{"duration":0.13636350000000164,"midi":55,"time":17.454528,"velocity":0.3937007874015748},{"duration":0.13636349999999808,"midi":62,"time":17.5908915,"velocity":0.3937007874015748},{"duration":0.13636349999999808,"midi":62,"time":17.5908915,"velocity":0.3937007874015748},{"duration":0.13636349999999808,"midi":62,"time":17.5908915,"velocity":0.3937007874015748},{"duration":0.13636349999999808,"midi":62,"time":17.5908915,"velocity":0.3937007874015748},{"duration":0.13636349999999808,"midi":62,"time":17.5908915,"velocity":0.3937007874015748},{"duration":0.13636349999999808,"midi":62,"time":17.5908915,"velocity":0.3937007874015748},{"duration":0.13636350000000164,"midi":62,"time":17.727255,"velocity":0.3937007874015748},{"duration":0.13636350000000164,"midi":62,"time":17.727255,"velocity":0.3937007874015748},{"duration":0.13636350000000164,"midi":62,"time":17.727255,"velocity":0.3937007874015748},{"duration":0.13636350000000164,"midi":62,"time":17.727255,"velocity":0.3937007874015748},{"duration":0.13636349999999808,"midi":62,"time":17.8636185,"velocity":0.3937007874015748},{"duration":0.13636349999999808,"midi":62,"time":17.8636185,"velocity":0.3937007874015748},{"duration":0.13636350000000164,"midi":62,"time":17.999982,"velocity":0.3937007874015748},{"duration":0.13636350000000164,"midi":62,"time":17.999982,"velocity":0.3937007874015748},{"duration":0.13636349999999808,"midi":62,"time":18.1363455,"velocity":0.3937007874015748},{"duration":0.13636349999999808,"midi":62,"time":18.1363455,"velocity":0.3937007874015748},{"duration":0.13636350000000164,"midi":62,"time":18.272709,"velocity":0.3937007874015748},{"duration":0.13636350000000164,"midi":62,"time":18.272709,"velocity":0.3937007874015748},{"duration":0.13636349999999808,"midi":62,"time":18.4090725,"velocity":0.3937007874015748},{"duration":0.13636349999999808,"midi":62,"time":18.4090725,"velocity":0.3937007874015748},{"duration":0.13636350000000164,"midi":62,"time":18.545436,"velocity":0.3937007874015748},{"duration":0.13636350000000164,"midi":62,"time":18.545436,"velocity":0.3937007874015748},{"duration":0.13636349999999808,"midi":62,"time":18.6817995,"velocity":0.3937007874015748},{"duration":0.13636349999999808,"midi":62,"time":18.6817995,"velocity":0.3937007874015748},{"duration":0.13636350000000164,"midi":62,"time":18.818163,"velocity":0.3937007874015748},{"duration":0.13636350000000164,"midi":62,"time":18.818163,"velocity":0.3937007874015748},{"duration":0.13636349999999808,"midi":62,"time":18.9545265,"velocity":0.3937007874015748},{"duration":0.13636349999999808,"midi":62,"time":18.9545265,"velocity":0.3937007874015748},{"duration":0.13636350000000164,"midi":62,"time":19.090889999999998,"velocity":0.3937007874015748},{"duration":0.13636350000000164,"midi":62,"time":19.090889999999998,"velocity":0.3937007874015748},{"duration":0.13636350000000164,"midi":62,"time":19.2272535,"velocity":0.3937007874015748},{"duration":0.13636350000000164,"midi":62,"time":19.2272535,"velocity":0.3937007874015748},{"duration":0.13636349999999808,"midi":62,"time":19.363617,"velocity":0.3937007874015748},{"duration":0.13636349999999808,"midi":62,"time":19.363617,"velocity":0.3937007874015748},{"duration":0.13636350000000164,"midi":62,"time":19.4999805,"velocity":0.3937007874015748},{"duration":0.13636350000000164,"midi":62,"time":19.4999805,"velocity":0.3937007874015748},{"duration":0.13636349999999808,"midi":62,"time":19.636344,"velocity":0.3937007874015748},{"duration":0.13636349999999808,"midi":62,"time":19.636344,"velocity":0.3937007874015748},{"duration":0.13636350000000164,"midi":61,"time":19.7727075,"velocity":0.3937007874015748},{"duration":0.13636350000000164,"midi":61,"time":19.7727075,"velocity":0.3937007874015748},{"duration":0.13636350000000164,"midi":61,"time":19.7727075,"velocity":0.3937007874015748},{"duration":0.13636350000000164,"midi":61,"time":19.7727075,"velocity":0.3937007874015748},{"duration":0.13636350000000164,"midi":61,"time":19.7727075,"velocity":0.3937007874015748},{"duration":0.13636350000000164,"midi":61,"time":19.7727075,"velocity":0.3937007874015748},{"duration":0.13636349999999808,"midi":61,"time":19.909071,"velocity":0.3937007874015748},{"duration":0.13636349999999808,"midi":61,"time":19.909071,"velocity":0.3937007874015748},{"duration":0.13636349999999808,"midi":61,"time":19.909071,"velocity":0.3937007874015748},{"duration":0.13636349999999808,"midi":61,"time":19.909071,"velocity":0.3937007874015748},{"duration":0.13636350000000164,"midi":61,"time":20.0454345,"velocity":0.3937007874015748},{"duration":0.13636350000000164,"midi":61,"time":20.0454345,"velocity":0.3937007874015748},{"duration":0.13636349999999808,"midi":61,"time":20.181798,"velocity":0.3937007874015748},{"duration":0.13636349999999808,"midi":61,"time":20.181798,"velocity":0.3937007874015748},{"duration":0.13636350000000164,"midi":61,"time":20.3181615,"velocity":0.3937007874015748},{"duration":0.13636350000000164,"midi":61,"time":20.3181615,"velocity":0.3937007874015748},{"duration":0.13636349999999808,"midi":61,"time":20.454525,"velocity":0.3937007874015748},{"duration":0.13636349999999808,"midi":61,"time":20.454525,"velocity":0.3937007874015748},{"duration":0.13636350000000164,"midi":61,"time":20.5908885,"velocity":0.3937007874015748},{"duration":0.13636350000000164,"midi":61,"time":20.5908885,"velocity":0.3937007874015748},{"duration":0.13636349999999808,"midi":61,"time":20.727252,"velocity":0.3937007874015748},{"duration":0.13636349999999808,"midi":61,"time":20.727252,"velocity":0.3937007874015748},{"duration":0.13636350000000164,"midi":62,"time":20.863615499999998,"velocity":0.3937007874015748},{"duration":0.13636350000000164,"midi":62,"time":20.863615499999998,"velocity":0.3937007874015748},{"duration":0.13636350000000164,"midi":62,"time":20.863615499999998,"velocity":0.3937007874015748},{"duration":0.13636350000000164,"midi":62,"time":20.863615499999998,"velocity":0.3937007874015748},{"duration":0.13636350000000164,"midi":62,"time":20.863615499999998,"velocity":0.3937007874015748},{"duration":0.13636350000000164,"midi":62,"time":20.863615499999998,"velocity":0.3937007874015748},{"duration":0.13636350000000164,"midi":62,"time":20.999979,"velocity":0.3937007874015748},{"duration":0.13636350000000164,"midi":62,"time":20.999979,"velocity":0.3937007874015748},{"duration":0.13636350000000164,"midi":62,"time":20.999979,"velocity":0.3937007874015748},{"duration":0.13636350000000164,"midi":62,"time":20.999979,"velocity":0.3937007874015748},{"duration":0.13636349999999808,"midi":62,"time":21.1363425,"velocity":0.3937007874015748},{"duration":0.13636349999999808,"midi":62,"time":21.1363425,"velocity":0.3937007874015748},{"duration":0.13636350000000164,"midi":62,"time":21.272706,"velocity":0.3937007874015748},{"duration":0.13636350000000164,"midi":62,"time":21.272706,"velocity":0.3937007874015748},{"duration":0.13636349999999808,"midi":62,"time":21.4090695,"velocity":0.3937007874015748},{"duration":0.13636349999999808,"midi":62,"time":21.4090695,"velocity":0.3937007874015748},{"duration":0.13636350000000164,"midi":62,"time":21.545433,"velocity":0.3937007874015748},{"duration":0.13636350000000164,"midi":62,"time":21.545433,"velocity":0.3937007874015748},{"duration":0.13636349999999808,"midi":62,"time":21.6817965,"velocity":0.3937007874015748},{"duration":0.13636349999999808,"midi":62,"time":21.6817965,"velocity":0.3937007874015748},{"duration":0.13636350000000164,"midi":62,"time":21.81816,"velocity":0.3937007874015748},{"duration":0.13636350000000164,"midi":62,"time":21.81816,"velocity":0.3937007874015748},{"duration":0.13636349999999808,"midi":58,"time":21.9545235,"velocity":0.3937007874015748},{"duration":0.13636349999999808,"midi":58,"time":21.9545235,"velocity":0.3937007874015748},{"duration":0.13636349999999808,"midi":58,"time":21.9545235,"velocity":0.3937007874015748},{"duration":0.13636349999999808,"midi":58,"time":21.9545235,"velocity":0.3937007874015748},{"duration":0.13636349999999808,"midi":58,"time":21.9545235,"velocity":0.3937007874015748},{"duration":0.13636349999999808,"midi":58,"time":21.9545235,"velocity":0.3937007874015748},{"duration":0.13636350000000164,"midi":58,"time":22.090887,"velocity":0.3937007874015748},{"duration":0.13636350000000164,"midi":58,"time":22.090887,"velocity":0.3937007874015748},{"duration":0.13636350000000164,"midi":58,"time":22.090887,"velocity":0.3937007874015748},{"duration":0.13636350000000164,"midi":58,"time":22.090887,"velocity":0.3937007874015748},{"duration":0.13636349999999808,"midi":58,"time":22.2272505,"velocity":0.3937007874015748},{"duration":0.13636349999999808,"midi":58,"time":22.2272505,"velocity":0.3937007874015748},{"duration":0.13636350000000164,"midi":58,"time":22.363614,"velocity":0.3937007874015748},{"duration":0.13636350000000164,"midi":58,"time":22.363614,"velocity":0.3937007874015748},{"duration":0.13636349999999808,"midi":58,"time":22.4999775,"velocity":0.3937007874015748},{"duration":0.13636349999999808,"midi":58,"time":22.4999775,"velocity":0.3937007874015748},{"duration":0.13636350000000164,"midi":58,"time":22.636340999999998,"velocity":0.3937007874015748},{"duration":0.13636350000000164,"midi":58,"time":22.636340999999998,"velocity":0.3937007874015748},{"duration":0.13636350000000164,"midi":58,"time":22.7727045,"velocity":0.3937007874015748},{"duration":0.13636350000000164,"midi":58,"time":22.7727045,"velocity":0.3937007874015748},{"duration":0.13636349999999808,"midi":58,"time":22.909068,"velocity":0.3937007874015748},{"duration":0.13636349999999808,"midi":58,"time":22.909068,"velocity":0.3937007874015748},{"duration":0.13636350000000164,"midi":58,"time":23.0454315,"velocity":0.3937007874015748},{"duration":0.13636350000000164,"midi":58,"time":23.0454315,"velocity":0.3937007874015748},{"duration":0.13636349999999808,"midi":58,"time":23.181795,"velocity":0.3937007874015748},{"duration":0.13636349999999808,"midi":58,"time":23.181795,"velocity":0.3937007874015748},{"duration":0.13636350000000164,"midi":58,"time":23.3181585,"velocity":0.3937007874015748},{"duration":0.13636350000000164,"midi":58,"time":23.3181585,"velocity":0.3937007874015748},{"duration":0.13636349999999808,"midi":58,"time":23.454522,"velocity":0.3937007874015748},{"duration":0.13636349999999808,"midi":58,"time":23.454522,"velocity":0.3937007874015748},{"duration":0.13636350000000164,"midi":58,"time":23.5908855,"velocity":0.3937007874015748},{"duration":0.13636350000000164,"midi":58,"time":23.5908855,"velocity":0.3937007874015748},{"duration":0.13636349999999808,"midi":58,"time":23.727249,"velocity":0.3937007874015748},{"duration":0.13636349999999808,"midi":58,"time":23.727249,"velocity":0.3937007874015748},{"duration":0.13636350000000164,"midi":58,"time":23.8636125,"velocity":0.3937007874015748},{"duration":0.13636350000000164,"midi":58,"time":23.8636125,"velocity":0.3937007874015748},{"duration":0.13636349999999808,"midi":58,"time":23.999976,"velocity":0.3937007874015748},{"duration":0.13636349999999808,"midi":58,"time":23.999976,"velocity":0.3937007874015748},{"duration":0.13636350000000164,"midi":55,"time":24.1363395,"velocity":0.3937007874015748},{"duration":0.13636350000000164,"midi":55,"time":24.1363395,"velocity":0.3937007874015748},{"duration":0.13636350000000164,"midi":55,"time":24.1363395,"velocity":0.3937007874015748},{"duration":0.13636350000000164,"midi":55,"time":24.1363395,"velocity":0.3937007874015748},{"duration":0.13636350000000164,"midi":55,"time":24.1363395,"velocity":0.3937007874015748},{"duration":0.13636350000000164,"midi":55,"time":24.1363395,"velocity":0.3937007874015748},{"duration":0.13636349999999808,"midi":55,"time":24.272703,"velocity":0.3937007874015748},{"duration":0.13636349999999808,"midi":55,"time":24.272703,"velocity":0.3937007874015748},{"duration":0.13636349999999808,"midi":55,"time":24.272703,"velocity":0.3937007874015748},{"duration":0.13636349999999808,"midi":55,"time":24.272703,"velocity":0.3937007874015748},{"duration":0.13636350000000164,"midi":55,"time":24.409066499999998,"velocity":0.3937007874015748},{"duration":0.13636350000000164,"midi":55,"time":24.409066499999998,"velocity":0.3937007874015748},{"duration":0.13636350000000164,"midi":55,"time":24.54543,"velocity":0.3937007874015748},{"duration":0.13636350000000164,"midi":55,"time":24.54543,"velocity":0.3937007874015748},{"duration":0.13636349999999808,"midi":55,"time":24.6817935,"velocity":0.3937007874015748},{"duration":0.13636349999999808,"midi":55,"time":24.6817935,"velocity":0.3937007874015748},{"duration":0.13636350000000164,"midi":55,"time":24.818157,"velocity":0.3937007874015748},{"duration":0.13636350000000164,"midi":55,"time":24.818157,"velocity":0.3937007874015748},{"duration":0.13636349999999808,"midi":55,"time":24.9545205,"velocity":0.3937007874015748},{"duration":0.13636349999999808,"midi":55,"time":24.9545205,"velocity":0.3937007874015748},{"duration":0.13636350000000164,"midi":55,"time":25.090884,"velocity":0.3937007874015748},{"duration":0.13636350000000164,"midi":55,"time":25.090884,"velocity":0.3937007874015748},{"duration":0.13636349999999808,"midi":55,"time":25.2272475,"velocity":0.3937007874015748},{"duration":0.13636349999999808,"midi":55,"time":25.2272475,"velocity":0.3937007874015748},{"duration":0.13636350000000164,"midi":55,"time":25.363611,"velocity":0.3937007874015748},{"duration":0.13636350000000164,"midi":55,"time":25.363611,"velocity":0.3937007874015748},{"duration":0.13636349999999808,"midi":55,"time":25.4999745,"velocity":0.3937007874015748},{"duration":0.13636349999999808,"midi":55,"time":25.4999745,"velocity":0.3937007874015748},{"duration":0.13636350000000164,"midi":55,"time":25.636338,"velocity":0.3937007874015748},{"duration":0.13636350000000164,"midi":55,"time":25.636338,"velocity":0.3937007874015748},{"duration":0.13636349999999808,"midi":55,"time":25.7727015,"velocity":0.3937007874015748},{"duration":0.13636349999999808,"midi":55,"time":25.7727015,"velocity":0.3937007874015748},{"duration":0.13636350000000164,"midi":55,"time":25.909065,"velocity":0.3937007874015748},{"duration":0.13636350000000164,"midi":55,"time":25.909065,"velocity":0.3937007874015748},{"duration":0.13636350000000164,"midi":55,"time":26.0454285,"velocity":0.3937007874015748},{"duration":0.13636350000000164,"midi":55,"time":26.0454285,"velocity":0.3937007874015748},{"duration":0.13636349999999808,"midi":55,"time":26.181792,"velocity":0.3937007874015748},{"duration":0.13636349999999808,"midi":55,"time":26.181792,"velocity":0.3937007874015748},{"duration":0.13636349999999453,"midi":49,"time":33.9545115,"velocity":0.3937007874015748},{"duration":0.13636350000000164,"midi":49,"time":34.090875,"velocity":0.3937007874015748},{"duration":0.13636350000000164,"midi":49,"time":34.090875,"velocity":0.3937007874015748},{"duration":0.13636350000000164,"midi":50,"time":34.2272385,"velocity":0.3937007874015748},{"duration":0.13636350000000164,"midi":50,"time":34.363602,"velocity":0.3937007874015748},{"duration":0.13636350000000164,"midi":50,"time":34.363602,"velocity":0.3937007874015748},{"duration":0.13636349999999453,"midi":55,"time":34.4999655,"velocity":0.3937007874015748},{"duration":0.13636349999999453,"midi":55,"time":34.4999655,"velocity":0.3937007874015748},{"duration":0.13636350000000164,"midi":55,"time":34.636328999999996,"velocity":0.3937007874015748},{"duration":0.13636350000000164,"midi":58,"time":34.7726925,"velocity":0.3937007874015748},{"duration":0.13636350000000164,"midi":58,"time":34.7726925,"velocity":0.3937007874015748},{"duration":0.13636350000000164,"midi":58,"time":34.909056,"velocity":0.3937007874015748},{"duration":0.13636350000000164,"midi":67,"time":35.0454195,"velocity":0.3937007874015748},{"duration":0.13636350000000164,"midi":67,"time":35.0454195,"velocity":0.3937007874015748},{"duration":0.13636350000000164,"midi":67,"time":35.0454195,"velocity":0.3937007874015748},{"duration":0.13636349999999453,"midi":67,"time":35.181783,"velocity":0.3937007874015748},{"duration":0.13636350000000164,"midi":67,"time":35.3181465,"velocity":0.3937007874015748},{"duration":0.13636350000000164,"midi":67,"time":35.45451,"velocity":0.3937007874015748},{"duration":0.13636350000000164,"midi":67,"time":35.5908735,"velocity":0.3937007874015748},{"duration":0.13636349999999453,"midi":67,"time":35.727237,"velocity":0.3937007874015748},{"duration":0.13636350000000164,"midi":67,"time":35.8636005,"velocity":0.3937007874015748},{"duration":0.13636350000000164,"midi":67,"time":35.999964,"velocity":0.3937007874015748},{"duration":0.13636350000000164,"midi":67,"time":36.1363275,"velocity":0.3937007874015748},{"duration":0.13636349999999453,"midi":67,"time":36.272691,"velocity":0.3937007874015748},{"duration":0.13636350000000164,"midi":67,"time":36.409054499999996,"velocity":0.3937007874015748},{"duration":0.13636350000000164,"midi":67,"time":36.545418,"velocity":0.3937007874015748},{"duration":0.13636350000000164,"midi":67,"time":36.6817815,"velocity":0.3937007874015748},{"duration":0.13636350000000164,"midi":67,"time":36.818145,"velocity":0.3937007874015748},{"duration":0.13636349999999453,"midi":67,"time":36.9545085,"velocity":0.3937007874015748},{"duration":0.13636350000000164,"midi":67,"time":37.090872,"velocity":0.3937007874015748},{"duration":0.13636350000000164,"midi":65,"time":37.2272355,"velocity":0.3937007874015748},{"duration":0.13636350000000164,"midi":65,"time":37.2272355,"velocity":0.3937007874015748},{"duration":0.13636350000000164,"midi":65,"time":37.2272355,"velocity":0.3937007874015748},{"duration":0.13636350000000164,"midi":65,"time":37.363599,"velocity":0.3937007874015748},{"duration":0.13636350000000164,"midi":65,"time":37.363599,"velocity":0.3937007874015748},{"duration":0.13636349999999453,"midi":65,"time":37.4999625,"velocity":0.3937007874015748},{"duration":0.13636350000000164,"midi":65,"time":37.636326,"velocity":0.3937007874015748},{"duration":0.13636350000000164,"midi":65,"time":37.7726895,"velocity":0.3937007874015748},{"duration":0.13636350000000164,"midi":65,"time":37.909053,"velocity":0.3937007874015748},{"duration":0.13636349999999453,"midi":65,"time":38.0454165,"velocity":0.3937007874015748},{"duration":0.13636350000000164,"midi":65,"time":38.181779999999996,"velocity":0.3937007874015748},{"duration":0.13636350000000164,"midi":63,"time":38.3181435,"velocity":0.3937007874015748},{"duration":0.13636350000000164,"midi":63,"time":38.3181435,"velocity":0.3937007874015748},{"duration":0.13636350000000164,"midi":63,"time":38.3181435,"velocity":0.3937007874015748},{"duration":0.13636350000000164,"midi":63,"time":38.454507,"velocity":0.3937007874015748},{"duration":0.13636350000000164,"midi":63,"time":38.454507,"velocity":0.3937007874015748},{"duration":0.13636350000000164,"midi":63,"time":38.5908705,"velocity":0.3937007874015748},{"duration":0.13636349999999453,"midi":63,"time":38.727234,"velocity":0.3937007874015748},{"duration":0.13636350000000164,"midi":63,"time":38.8635975,"velocity":0.3937007874015748},{"duration":0.13636350000000164,"midi":63,"time":38.999961,"velocity":0.3937007874015748},{"duration":0.13636350000000164,"midi":63,"time":39.1363245,"velocity":0.3937007874015748},{"duration":0.13636349999999453,"midi":63,"time":39.272688,"velocity":0.3937007874015748},{"duration":0.13636350000000164,"midi":62,"time":39.4090515,"velocity":0.3937007874015748},{"duration":0.13636350000000164,"midi":62,"time":39.4090515,"velocity":0.3937007874015748},{"duration":0.13636350000000164,"midi":62,"time":39.4090515,"velocity":0.3937007874015748},{"duration":0.13636350000000164,"midi":62,"time":39.545415,"velocity":0.3937007874015748},{"duration":0.13636350000000164,"midi":62,"time":39.545415,"velocity":0.3937007874015748},{"duration":0.13636350000000164,"midi":62,"time":39.6817785,"velocity":0.3937007874015748},{"duration":0.13636349999999453,"midi":62,"time":39.818142,"velocity":0.3937007874015748},{"duration":0.13636350000000164,"midi":62,"time":39.954505499999996,"velocity":0.3937007874015748},{"duration":0.13636350000000164,"midi":62,"time":40.090869,"velocity":0.3937007874015748},{"duration":0.13636350000000164,"midi":62,"time":40.2272325,"velocity":0.3937007874015748},{"duration":0.13636350000000164,"midi":62,"time":40.363596,"velocity":0.3937007874015748},{"duration":0.13636349999999453,"midi":62,"time":40.4999595,"velocity":0.3937007874015748},{"duration":0.13636350000000164,"midi":62,"time":40.636323,"velocity":0.3937007874015748},{"duration":0.13636350000000164,"midi":62,"time":40.7726865,"velocity":0.3937007874015748},{"duration":0.13636350000000164,"midi":62,"time":40.90905,"velocity":0.3937007874015748},{"duration":0.13636349999999453,"midi":62,"time":41.0454135,"velocity":0.3937007874015748},{"duration":0.13636350000000164,"midi":62,"time":41.181777,"velocity":0.3937007874015748},{"duration":0.13636350000000164,"midi":62,"time":41.3181405,"velocity":0.3937007874015748},{"duration":0.13636350000000164,"midi":62,"time":41.454504,"velocity":0.3937007874015748},{"duration":0.13636349999999453,"midi":60,"time":41.5908675,"velocity":0.3937007874015748},{"duration":0.13636349999999453,"midi":60,"time":41.5908675,"velocity":0.3937007874015748},{"duration":0.13636349999999453,"midi":60,"time":41.5908675,"velocity":0.3937007874015748},{"duration":0.13636350000000164,"midi":60,"time":41.727230999999996,"velocity":0.3937007874015748},{"duration":0.13636350000000164,"midi":60,"time":41.727230999999996,"velocity":0.3937007874015748},{"duration":0.13636350000000164,"midi":60,"time":41.8635945,"velocity":0.3937007874015748},{"duration":0.13636350000000164,"midi":60,"time":41.999958,"velocity":0.3937007874015748},{"duration":0.13636350000000164,"midi":60,"time":42.1363215,"velocity":0.3937007874015748},{"duration":0.13636349999999453,"midi":60,"time":42.272685,"velocity":0.3937007874015748},{"duration":0.13636350000000164,"midi":60,"time":42.4090485,"velocity":0.3937007874015748},{"duration":0.13636350000000164,"midi":60,"time":42.545412,"velocity":0.3937007874015748},{"duration":0.13636350000000164,"midi":58,"time":42.6817755,"velocity":0.3937007874015748},{"duration":0.13636350000000164,"midi":58,"time":42.6817755,"velocity":0.3937007874015748},{"duration":0.13636350000000164,"midi":58,"time":42.6817755,"velocity":0.3937007874015748},{"duration":0.13636349999999453,"midi":58,"time":42.818139,"velocity":0.3937007874015748},{"duration":0.13636349999999453,"midi":58,"time":42.818139,"velocity":0.3937007874015748},{"duration":0.13636350000000164,"midi":58,"time":42.9545025,"velocity":0.3937007874015748},{"duration":0.13636350000000164,"midi":58,"time":43.090866,"velocity":0.3937007874015748},{"duration":0.13636350000000164,"midi":58,"time":43.2272295,"velocity":0.3937007874015748},{"duration":0.13636349999999453,"midi":58,"time":43.363593,"velocity":0.3937007874015748},{"duration":0.13636350000000164,"midi":58,"time":43.499956499999996,"velocity":0.3937007874015748},{"duration":0.13636350000000164,"midi":58,"time":43.63632,"velocity":0.3937007874015748}]},{"instrument":{"family":"bass","number":32,"name":"acoustic bass"},"notes":[{"duration":0.2727269999999997,"midi":43,"time":8.8636275,"velocity":0.3937007874015748},{"duration":0.2727270000000015,"midi":46,"time":9.4090815,"velocity":0.3937007874015748},{"duration":0.2727269999999997,"midi":50,"time":9.9545355,"velocity":0.3937007874015748},{"duration":0.2727269999999997,"midi":52,"time":13.2272595,"velocity":0.3937007874015748},{"duration":0.2727269999999997,"midi":55,"time":13.7727135,"velocity":0.3937007874015748},{"duration":0.2727269999999997,"midi":58,"time":14.3181675,"velocity":0.3937007874015748},{"duration":0.2727269999999997,"midi":43,"time":17.5908915,"velocity":0.3937007874015748},{"duration":0.2727269999999997,"midi":43,"time":17.5908915,"velocity":0.3937007874015748},{"duration":0.2727269999999997,"midi":46,"time":18.1363455,"velocity":0.3937007874015748},{"duration":0.2727269999999997,"midi":46,"time":18.1363455,"velocity":0.3937007874015748},{"duration":0.2727269999999997,"midi":50,"time":18.6817995,"velocity":0.3937007874015748},{"duration":0.2727269999999997,"midi":50,"time":18.6817995,"velocity":0.3937007874015748},{"duration":0.2727269999999997,"midi":52,"time":21.9545235,"velocity":0.3937007874015748},{"duration":0.2727269999999997,"midi":52,"time":21.9545235,"velocity":0.3937007874015748},{"duration":0.2727269999999997,"midi":55,"time":22.4999775,"velocity":0.3937007874015748},{"duration":0.2727269999999997,"midi":55,"time":22.4999775,"velocity":0.3937007874015748},{"duration":0.2727269999999997,"midi":58,"time":23.0454315,"velocity":0.3937007874015748},{"duration":0.2727269999999997,"midi":58,"time":23.0454315,"velocity":0.3937007874015748}]},{"instrument":{"family":"piano","number":0,"name":"acoustic grand piano"},"notes":[{"duration":0.27272699999999617,"midi":79,"time":35.0454195,"velocity":0.3937007874015748},{"duration":0.2727270000000033,"midi":78,"time":35.3181465,"velocity":0.3937007874015748},{"duration":0.27272699999999617,"midi":74,"time":35.5908735,"velocity":0.3937007874015748},{"duration":0.2727270000000033,"midi":70,"time":35.8636005,"velocity":0.3937007874015748},{"duration":0.27272699999999617,"midi":58,"time":36.1363275,"velocity":0.3937007874015748},{"duration":0.2727270000000033,"midi":55,"time":36.6817815,"velocity":0.3937007874015748},{"duration":0.8181809999999956,"midi":65,"time":36.9545085,"velocity":0.3937007874015748},{"duration":0.27272699999999617,"midi":70,"time":36.9545085,"velocity":0.3937007874015748},{"duration":0.2727270000000033,"midi":65,"time":37.7726895,"velocity":0.3937007874015748},{"duration":0.27272699999999617,"midi":75,"time":38.0454165,"velocity":0.3937007874015748},{"duration":0.8181809999999956,"midi":63,"time":38.0454165,"velocity":0.3937007874015748},{"duration":0.2727270000000033,"midi":67,"time":38.8635975,"velocity":0.3937007874015748},{"duration":0.27272699999999617,"midi":70,"time":39.1363245,"velocity":0.3937007874015748},{"duration":0.2727270000000033,"midi":67,"time":39.4090515,"velocity":0.3937007874015748},{"duration":0.2727270000000033,"midi":62,"time":39.4090515,"velocity":0.3937007874015748},{"duration":0.27272699999999617,"midi":70,"time":39.6817785,"velocity":0.3937007874015748},{"duration":0.2727270000000033,"midi":57,"time":39.954505499999996,"velocity":0.3937007874015748},{"duration":0.2727270000000033,"midi":74,"time":40.2272325,"velocity":0.3937007874015748},{"duration":0.27272699999999617,"midi":54,"time":40.4999595,"velocity":0.3937007874015748},{"duration":0.27272699999999617,"midi":57,"time":41.0454135,"velocity":0.3937007874015748},{"duration":0.8181810000000027,"midi":63,"time":41.3181405,"velocity":0.3937007874015748},{"duration":0.2727270000000033,"midi":67,"time":41.8635945,"velocity":0.3937007874015748},{"duration":0.27272699999999617,"midi":69,"time":42.1363215,"velocity":0.3937007874015748},{"duration":0.8181810000000027,"midi":62,"time":42.4090485,"velocity":0.3937007874015748},{"duration":0.2727270000000033,"midi":70,"time":42.4090485,"velocity":0.3937007874015748},{"duration":0.27272699999999617,"midi":72,"time":42.6817755,"velocity":0.3937007874015748},{"duration":0.2727270000000033,"midi":74,"time":42.9545025,"velocity":0.3937007874015748},{"duration":0.27272699999999617,"midi":77,"time":43.2272295,"velocity":0.3937007874015748},{"duration":0.2727270000000033,"midi":78,"time":43.499956499999996,"velocity":0.3937007874015748},{"duration":0.2727270000000033,"midi":67,"time":43.7726835,"velocity":0.3937007874015748},{"duration":0.2727270000000033,"midi":31,"time":43.7726835,"velocity":0.3937007874015748},{"duration":0.2727270000000033,"midi":62,"time":43.7726835,"velocity":0.3937007874015748},{"duration":0.2727270000000033,"midi":67,"time":43.7726835,"velocity":0.3937007874015748},{"duration":0.2727270000000033,"midi":79,"time":43.7726835,"velocity":0.3937007874015748},{"duration":2.1818159999999978,"midi":79,"time":43.7726835,"velocity":0.3937007874015748},{"duration":0.27272699999999617,"midi":78,"time":44.0454105,"velocity":0.3937007874015748},{"duration":0.27272699999999617,"midi":31,"time":44.0454105,"velocity":0.3937007874015748},{"duration":0.2727270000000033,"midi":34,"time":44.3181375,"velocity":0.3937007874015748},{"duration":0.2727270000000033,"midi":67,"time":44.3181375,"velocity":0.3937007874015748},{"duration":0.2727270000000033,"midi":74,"time":44.3181375,"velocity":0.3937007874015748},{"duration":0.2727270000000033,"midi":62,"time":44.3181375,"velocity":0.3937007874015748},{"duration":0.2727270000000033,"midi":62,"time":44.3181375,"velocity":0.3937007874015748},{"duration":0.27272699999999617,"midi":31,"time":44.5908645,"velocity":0.3937007874015748},{"duration":0.27272699999999617,"midi":70,"time":44.5908645,"velocity":0.3937007874015748},{"duration":0.2727270000000033,"midi":36,"time":44.8635915,"velocity":0.3937007874015748},{"duration":0.2727270000000033,"midi":62,"time":44.8635915,"velocity":0.3937007874015748},{"duration":0.2727270000000033,"midi":58,"time":44.8635915,"velocity":0.3937007874015748},{"duration":0.2727270000000033,"midi":67,"time":44.8635915,"velocity":0.3937007874015748},{"duration":0.2727270000000033,"midi":67,"time":44.8635915,"velocity":0.3937007874015748},{"duration":0.27272699999999617,"midi":31,"time":45.1363185,"velocity":0.3937007874015748},{"duration":0.2727270000000033,"midi":55,"time":45.4090455,"velocity":0.3937007874015748},{"duration":0.2727270000000033,"midi":67,"time":45.4090455,"velocity":0.3937007874015748},{"duration":0.2727270000000033,"midi":62,"time":45.4090455,"velocity":0.3937007874015748},{"duration":0.2727270000000033,"midi":37,"time":45.4090455,"velocity":0.3937007874015748},{"duration":0.27272699999999617,"midi":70,"time":45.6817725,"velocity":0.3937007874015748},{"duration":0.27272699999999617,"midi":38,"time":45.6817725,"velocity":0.3937007874015748},{"duration":0.5454539999999994,"midi":65,"time":45.6817725,"velocity":0.3937007874015748},{"duration":0.2727270000000033,"midi":70,"time":45.9544995,"velocity":0.3937007874015748},{"duration":0.2727270000000033,"midi":70,"time":45.9544995,"velocity":0.3937007874015748},{"duration":0.2727270000000033,"midi":36,"time":45.9544995,"velocity":0.3937007874015748},{"duration":0.5454539999999994,"midi":65,"time":45.9544995,"velocity":0.3937007874015748},{"duration":1.0909079999999989,"midi":77,"time":45.9544995,"velocity":0.3937007874015748},{"duration":0.27272699999999617,"midi":36,"time":46.2272265,"velocity":0.3937007874015748},{"duration":0.2727270000000033,"midi":70,"time":46.4999535,"velocity":0.3937007874015748},{"duration":0.2727270000000033,"midi":67,"time":46.4999535,"velocity":0.3937007874015748},{"duration":0.2727270000000033,"midi":65,"time":46.4999535,"velocity":0.3937007874015748},{"duration":0.2727270000000033,"midi":39,"time":46.4999535,"velocity":0.3937007874015748},{"duration":0.8181810000000027,"midi":63,"time":46.7726805,"velocity":0.3937007874015748},{"duration":0.27272699999999617,"midi":36,"time":46.7726805,"velocity":0.3937007874015748},{"duration":0.27272699999999617,"midi":75,"time":46.7726805,"velocity":0.3937007874015748},{"duration":1.090908000000006,"midi":75,"time":47.045407499999996,"velocity":0.3937007874015748},{"duration":0.2727270000000033,"midi":70,"time":47.045407499999996,"velocity":0.3937007874015748},{"duration":0.2727270000000033,"midi":65,"time":47.045407499999996,"velocity":0.3937007874015748},{"duration":0.2727270000000033,"midi":39,"time":47.045407499999996,"velocity":0.3937007874015748},{"duration":0.2727270000000033,"midi":36,"time":47.3181345,"velocity":0.3937007874015748},{"duration":0.27272699999999617,"midi":67,"time":47.5908615,"velocity":0.3937007874015748},{"duration":0.27272699999999617,"midi":42,"time":47.5908615,"velocity":0.3937007874015748},{"duration":0.27272699999999617,"midi":65,"time":47.5908615,"velocity":0.3937007874015748},{"duration":0.27272699999999617,"midi":70,"time":47.5908615,"velocity":0.3937007874015748},{"duration":0.2727270000000033,"midi":43,"time":47.8635885,"velocity":0.3937007874015748},{"duration":0.2727270000000033,"midi":70,"time":47.8635885,"velocity":0.3937007874015748},{"duration":1.0909079999999989,"midi":74,"time":48.1363155,"velocity":0.3937007874015748},{"duration":0.27272699999999617,"midi":61,"time":48.1363155,"velocity":0.3937007874015748},{"duration":0.27272699999999617,"midi":70,"time":48.1363155,"velocity":0.3937007874015748},{"duration":0.27272699999999617,"midi":38,"time":48.1363155,"velocity":0.3937007874015748},{"duration":0.2727270000000033,"midi":38,"time":48.4090425,"velocity":0.3937007874015748},{"duration":0.2727270000000033,"midi":62,"time":48.4090425,"velocity":0.3937007874015748},{"duration":0.27272699999999617,"midi":61,"time":48.6817695,"velocity":0.3937007874015748},{"duration":0.27272699999999617,"midi":36,"time":48.6817695,"velocity":0.3937007874015748},{"duration":0.27272699999999617,"midi":67,"time":48.6817695,"velocity":0.3937007874015748},{"duration":1.3636350000000022,"midi":74,"time":48.9544965,"velocity":0.3937007874015748},{"duration":0.2727270000000033,"midi":62,"time":48.9544965,"velocity":0.3937007874015748},{"duration":0.2727270000000033,"midi":36,"time":48.9544965,"velocity":0.3937007874015748},{"duration":0.27272699999999617,"midi":34,"time":49.2272235,"velocity":0.3937007874015748},{"duration":0.27272699999999617,"midi":61,"time":49.2272235,"velocity":0.3937007874015748},{"duration":0.2727270000000033,"midi":60,"time":49.4999505,"velocity":0.3937007874015748},{"duration":0.2727270000000033,"midi":34,"time":49.4999505,"velocity":0.3937007874015748},{"duration":0.27272699999999617,"midi":67,"time":49.7726775,"velocity":0.3937007874015748},{"duration":0.27272699999999617,"midi":33,"time":49.7726775,"velocity":0.3937007874015748},{"duration":0.27272699999999617,"midi":58,"time":49.7726775,"velocity":0.3937007874015748},{"duration":0.2727270000000033,"midi":33,"time":50.0454045,"velocity":0.3937007874015748},{"duration":0.2727270000000033,"midi":54,"time":50.0454045,"velocity":0.3937007874015748},{"duration":0.2727270000000033,"midi":74,"time":50.0454045,"velocity":0.3937007874015748},{"duration":1.0909079999999989,"midi":55,"time":50.3181315,"velocity":0.3937007874015748},{"duration":0.27272699999999617,"midi":31,"time":50.3181315,"velocity":0.3937007874015748},{"duration":0.2727270000000033,"midi":31,"time":50.590858499999996,"velocity":0.3937007874015748},{"duration":0.2727270000000033,"midi":31,"time":50.8635855,"velocity":0.3937007874015748},{"duration":0.27272699999999617,"midi":31,"time":51.1363125,"velocity":0.3937007874015748},{"duration":0.2727270000000033,"midi":50,"time":51.4090395,"velocity":0.3937007874015748},{"duration":0.2727270000000033,"midi":38,"time":51.4090395,"velocity":0.3937007874015748},{"duration":0.27272699999999617,"midi":54,"time":51.6817665,"velocity":0.3937007874015748},{"duration":0.2727270000000033,"midi":57,"time":51.9544935,"velocity":0.3937007874015748},{"duration":0.27272699999999617,"midi":62,"time":52.2272205,"velocity":0.3937007874015748},{"duration":0.2727270000000033,"midi":31,"time":52.4999475,"velocity":0.3937007874015748},{"duration":0.2727270000000033,"midi":67,"time":52.4999475,"velocity":0.3937007874015748},{"duration":0.2727270000000033,"midi":58,"time":52.4999475,"velocity":0.3937007874015748},{"duration":0.2727270000000033,"midi":62,"time":52.4999475,"velocity":0.3937007874015748},{"duration":0.2727270000000033,"midi":67,"time":52.4999475,"velocity":0.3937007874015748},{"duration":0.2727270000000033,"midi":79,"time":52.4999475,"velocity":0.3937007874015748},{"duration":0.2727270000000033,"midi":65,"time":52.4999475,"velocity":0.3937007874015748},{"duration":2.181816000000005,"midi":79,"time":52.4999475,"velocity":0.3937007874015748},{"duration":0.27272699999999617,"midi":31,"time":52.7726745,"velocity":0.3937007874015748},{"duration":0.27272699999999617,"midi":78,"time":52.7726745,"velocity":0.3937007874015748},{"duration":0.2727270000000033,"midi":58,"time":53.0454015,"velocity":0.3937007874015748},{"duration":0.2727270000000033,"midi":74,"time":53.0454015,"velocity":0.3937007874015748},{"duration":0.2727270000000033,"midi":62,"time":53.0454015,"velocity":0.3937007874015748},{"duration":0.2727270000000033,"midi":34,"time":53.0454015,"velocity":0.3937007874015748},{"duration":0.2727270000000033,"midi":67,"time":53.0454015,"velocity":0.3937007874015748},{"duration":0.2727270000000033,"midi":62,"time":53.0454015,"velocity":0.3937007874015748},{"duration":0.2727270000000033,"midi":65,"time":53.0454015,"velocity":0.3937007874015748},{"duration":0.27272699999999617,"midi":70,"time":53.3181285,"velocity":0.3937007874015748},{"duration":0.27272699999999617,"midi":31,"time":53.3181285,"velocity":0.3937007874015748},{"duration":0.2727270000000033,"midi":67,"time":53.590855499999996,"velocity":0.3937007874015748},{"duration":0.2727270000000033,"midi":36,"time":53.590855499999996,"velocity":0.3937007874015748},{"duration":0.2727270000000033,"midi":62,"time":53.590855499999996,"velocity":0.3937007874015748},{"duration":0.2727270000000033,"midi":67,"time":53.590855499999996,"velocity":0.3937007874015748},{"duration":0.2727270000000033,"midi":58,"time":53.590855499999996,"velocity":0.3937007874015748},{"duration":0.2727270000000033,"midi":58,"time":53.590855499999996,"velocity":0.3937007874015748},{"duration":0.2727270000000033,"midi":65,"time":53.590855499999996,"velocity":0.3937007874015748},{"duration":0.2727270000000033,"midi":31,"time":53.8635825,"velocity":0.3937007874015748},{"duration":0.27272699999999617,"midi":67,"time":54.1363095,"velocity":0.3937007874015748},{"duration":0.27272699999999617,"midi":65,"time":54.1363095,"velocity":0.3937007874015748},{"duration":0.27272699999999617,"midi":37,"time":54.1363095,"velocity":0.3937007874015748},{"duration":0.27272699999999617,"midi":62,"time":54.1363095,"velocity":0.3937007874015748},{"duration":0.27272699999999617,"midi":55,"time":54.1363095,"velocity":0.3937007874015748},{"duration":0.27272699999999617,"midi":58,"time":54.1363095,"velocity":0.3937007874015748},{"duration":0.2727270000000033,"midi":38,"time":54.4090365,"velocity":0.3937007874015748},{"duration":0.8181810000000027,"midi":65,"time":54.4090365,"velocity":0.3937007874015748},{"duration":0.2727270000000033,"midi":70,"time":54.4090365,"velocity":0.3937007874015748},{"duration":0.27272699999999617,"midi":36,"time":54.6817635,"velocity":0.3937007874015748},{"duration":0.27272699999999617,"midi":70,"time":54.6817635,"velocity":0.3937007874015748},{"duration":1.0909079999999989,"midi":77,"time":54.6817635,"velocity":0.3937007874015748},{"duration":0.2727270000000033,"midi":36,"time":54.9544905,"velocity":0.3937007874015748},{"duration":0.27272699999999617,"midi":67,"time":55.2272175,"velocity":0.3937007874015748},{"duration":0.27272699999999617,"midi":39,"time":55.2272175,"velocity":0.3937007874015748},{"duration":0.8181810000000027,"midi":63,"time":55.4999445,"velocity":0.3937007874015748},{"duration":0.2727270000000033,"midi":75,"time":55.4999445,"velocity":0.3937007874015748},{"duration":0.2727270000000033,"midi":36,"time":55.4999445,"velocity":0.3937007874015748},{"duration":0.27272699999999617,"midi":39,"time":55.7726715,"velocity":0.3937007874015748},{"duration":1.0909079999999989,"midi":75,"time":55.7726715,"velocity":0.3937007874015748},{"duration":0.2727270000000033,"midi":36,"time":56.0453985,"velocity":0.3937007874015748},{"duration":0.2727270000000033,"midi":70,"time":56.0453985,"velocity":0.3937007874015748},{"duration":0.27272699999999617,"midi":69,"time":56.3181255,"velocity":0.3937007874015748},{"duration":0.27272699999999617,"midi":67,"time":56.3181255,"velocity":0.3937007874015748},{"duration":0.27272699999999617,"midi":42,"time":56.3181255,"velocity":0.3937007874015748},{"duration":0.2727270000000033,"midi":70,"time":56.5908525,"velocity":0.3937007874015748},{"duration":0.2727270000000033,"midi":43,"time":56.5908525,"velocity":0.3937007874015748},{"duration":0.2727270000000033,"midi":67,"time":56.5908525,"velocity":0.3937007874015748},{"duration":0.27272699999999617,"midi":62,"time":56.8635795,"velocity":0.3937007874015748},{"duration":0.8181810000000027,"midi":57,"time":56.8635795,"velocity":0.3937007874015748},{"duration":0.27272699999999617,"midi":38,"time":56.8635795,"velocity":0.3937007874015748},{"duration":2.1818159999999978,"midi":62,"time":56.8635795,"velocity":0.3937007874015748},{"duration":2.1818159999999978,"midi":55,"time":56.8635795,"velocity":0.3937007874015748},{"duration":1.0909079999999989,"midi":74,"time":56.8635795,"velocity":0.3937007874015748},{"duration":2.1818159999999978,"midi":50,"time":56.8635795,"velocity":0.3937007874015748},{"duration":0.27272699999999617,"midi":67,"time":56.8635795,"velocity":0.3937007874015748},{"duration":0.2727270000000033,"midi":38,"time":57.136306499999996,"velocity":0.3937007874015748},{"duration":0.2727270000000033,"midi":70,"time":57.136306499999996,"velocity":0.3937007874015748},{"duration":0.2727270000000033,"midi":42,"time":57.4090335,"velocity":0.3937007874015748},{"duration":1.3636350000000022,"midi":57,"time":57.4090335,"velocity":0.3937007874015748},{"duration":1.363634999999995,"midi":74,"time":57.6817605,"velocity":0.3937007874015748},{"duration":0.27272699999999617,"midi":38,"time":57.6817605,"velocity":0.3937007874015748},{"duration":0.2727270000000033,"midi":45,"time":57.9544875,"velocity":0.3937007874015748},{"duration":0.2727270000000033,"midi":54,"time":57.9544875,"velocity":0.3937007874015748},{"duration":0.27272699999999617,"midi":38,"time":58.2272145,"velocity":0.3937007874015748},{"duration":0.2727270000000033,"midi":48,"time":58.4999415,"velocity":0.3937007874015748},{"duration":0.5454539999999994,"midi":57,"time":58.4999415,"velocity":0.3937007874015748},{"duration":0.27272699999999617,"midi":45,"time":58.7726685,"velocity":0.3937007874015748},{"duration":0.8181809999999956,"midi":63,"time":58.7726685,"velocity":0.3937007874015748},{"duration":0.2727270000000033,"midi":31,"time":59.0453955,"velocity":0.3937007874015748},{"duration":0.8181810000000027,"midi":57,"time":59.0453955,"velocity":0.3937007874015748},{"duration":0.8181810000000027,"midi":60,"time":59.0453955,"velocity":0.3937007874015748},{"duration":1.0909079999999989,"midi":72,"time":59.0453955,"velocity":0.3937007874015748},{"duration":0.8181810000000027,"midi":51,"time":59.0453955,"velocity":0.3937007874015748},{"duration":0.27272699999999617,"midi":67,"time":59.3181225,"velocity":0.3937007874015748},{"duration":0.27272699999999617,"midi":31,"time":59.3181225,"velocity":0.3937007874015748},{"duration":0.2727270000000033,"midi":34,"time":59.5908495,"velocity":0.3937007874015748},{"duration":0.2727270000000033,"midi":69,"time":59.5908495,"velocity":0.3937007874015748},{"duration":1.3636350000000022,"midi":58,"time":59.8635765,"velocity":0.3937007874015748},{"duration":0.8181809999999956,"midi":62,"time":59.8635765,"velocity":0.3937007874015748},{"duration":0.27272699999999617,"midi":31,"time":59.8635765,"velocity":0.3937007874015748},{"duration":1.3636350000000022,"midi":55,"time":59.8635765,"velocity":0.3937007874015748},{"duration":1.3636350000000022,"midi":50,"time":59.8635765,"velocity":0.3937007874015748},{"duration":0.27272699999999617,"midi":70,"time":59.8635765,"velocity":0.3937007874015748},{"duration":1.090908000000006,"midi":70,"time":60.1363035,"velocity":0.3937007874015748},{"duration":0.2727270000000033,"midi":72,"time":60.1363035,"velocity":0.3937007874015748},{"duration":0.2727270000000033,"midi":36,"time":60.1363035,"velocity":0.3937007874015748},{"duration":0.27272699999999617,"midi":31,"time":60.4090305,"velocity":0.3937007874015748},{"duration":0.27272699999999617,"midi":74,"time":60.4090305,"velocity":0.3937007874015748},{"duration":0.2727270000000033,"midi":37,"time":60.681757499999996,"velocity":0.3937007874015748},{"duration":0.2727270000000033,"midi":77,"time":60.681757499999996,"velocity":0.3937007874015748},{"duration":0.2727270000000033,"midi":78,"time":60.9544845,"velocity":0.3937007874015748},{"duration":0.2727270000000033,"midi":38,"time":60.9544845,"velocity":0.3937007874015748},{"duration":0.27272699999999617,"midi":31,"time":61.2272115,"velocity":0.3937007874015748},{"duration":0.27272699999999617,"midi":79,"time":61.2272115,"velocity":0.3937007874015748},{"duration":0.27272699999999617,"midi":65,"time":61.2272115,"velocity":0.3937007874015748},{"duration":0.27272699999999617,"midi":67,"time":61.2272115,"velocity":0.3937007874015748},{"duration":0.27272699999999617,"midi":62,"time":61.2272115,"velocity":0.3937007874015748},{"duration":0.27272699999999617,"midi":58,"time":61.2272115,"velocity":0.3937007874015748},{"duration":0.27272699999999617,"midi":67,"time":61.2272115,"velocity":0.3937007874015748},{"duration":2.1818159999999978,"midi":79,"time":61.2272115,"velocity":0.3937007874015748},{"duration":0.2727270000000033,"midi":78,"time":61.4999385,"velocity":0.3937007874015748},{"duration":0.2727270000000033,"midi":31,"time":61.4999385,"velocity":0.3937007874015748},{"duration":0.27272699999999617,"midi":65,"time":61.7726655,"velocity":0.3937007874015748},{"duration":0.27272699999999617,"midi":62,"time":61.7726655,"velocity":0.3937007874015748},{"duration":0.27272699999999617,"midi":67,"time":61.7726655,"velocity":0.3937007874015748},{"duration":0.27272699999999617,"midi":34,"time":61.7726655,"velocity":0.3937007874015748},{"duration":0.27272699999999617,"midi":58,"time":61.7726655,"velocity":0.3937007874015748},{"duration":0.27272699999999617,"midi":62,"time":61.7726655,"velocity":0.3937007874015748},{"duration":0.27272699999999617,"midi":74,"time":61.7726655,"velocity":0.3937007874015748},{"duration":0.2727270000000033,"midi":31,"time":62.0453925,"velocity":0.3937007874015748},{"duration":0.2727270000000033,"midi":70,"time":62.0453925,"velocity":0.3937007874015748},{"duration":0.27272699999999617,"midi":65,"time":62.3181195,"velocity":0.3937007874015748},{"duration":0.27272699999999617,"midi":62,"time":62.3181195,"velocity":0.3937007874015748},{"duration":0.27272699999999617,"midi":67,"time":62.3181195,"velocity":0.3937007874015748},{"duration":0.27272699999999617,"midi":58,"time":62.3181195,"velocity":0.3937007874015748},{"duration":0.27272699999999617,"midi":67,"time":62.3181195,"velocity":0.3937007874015748},{"duration":0.27272699999999617,"midi":36,"time":62.3181195,"velocity":0.3937007874015748},{"duration":0.27272699999999617,"midi":58,"time":62.3181195,"velocity":0.3937007874015748},{"duration":0.2727270000000033,"midi":31,"time":62.5908465,"velocity":0.3937007874015748},{"duration":0.27272699999999617,"midi":62,"time":62.8635735,"velocity":0.3937007874015748},{"duration":0.27272699999999617,"midi":58,"time":62.8635735,"velocity":0.3937007874015748},{"duration":0.27272699999999617,"midi":65,"time":62.8635735,"velocity":0.3937007874015748},{"duration":0.27272699999999617,"midi":37,"time":62.8635735,"velocity":0.3937007874015748},{"duration":0.27272699999999617,"midi":55,"time":62.8635735,"velocity":0.3937007874015748},{"duration":0.27272699999999617,"midi":67,"time":62.8635735,"velocity":0.3937007874015748},{"duration":0.2727270000000033,"midi":38,"time":63.1363005,"velocity":0.3937007874015748},{"duration":0.2727270000000033,"midi":70,"time":63.1363005,"velocity":0.3937007874015748},{"duration":0.8181810000000027,"midi":65,"time":63.1363005,"velocity":0.3937007874015748},{"duration":0.27272699999999617,"midi":70,"time":63.4090275,"velocity":0.3937007874015748},{"duration":0.27272699999999617,"midi":36,"time":63.4090275,"velocity":0.3937007874015748},{"duration":1.0909079999999918,"midi":77,"time":63.4090275,"velocity":0.3937007874015748},{"duration":0.2727270000000033,"midi":36,"time":63.6817545,"velocity":0.3937007874015748},{"duration":0.2727270000000033,"midi":39,"time":63.9544815,"velocity":0.3937007874015748},{"duration":0.2727270000000033,"midi":67,"time":63.9544815,"velocity":0.3937007874015748},{"duration":0.8181809999999956,"midi":63,"time":64.2272085,"velocity":0.3937007874015748},{"duration":0.27272699999998906,"midi":36,"time":64.2272085,"velocity":0.3937007874015748},{"duration":0.27272699999998906,"midi":75,"time":64.2272085,"velocity":0.3937007874015748},{"duration":1.090908000000013,"midi":75,"time":64.49993549999999,"velocity":0.3937007874015748},{"duration":0.2727270000000033,"midi":39,"time":64.49993549999999,"velocity":0.3937007874015748},{"duration":0.2727270000000033,"midi":36,"time":64.7726625,"velocity":0.3937007874015748},{"duration":0.2727270000000033,"midi":70,"time":64.7726625,"velocity":0.3937007874015748},{"duration":0.2727270000000033,"midi":69,"time":65.0453895,"velocity":0.3937007874015748},{"duration":0.2727270000000033,"midi":67,"time":65.0453895,"velocity":0.3937007874015748},{"duration":0.2727270000000033,"midi":42,"time":65.0453895,"velocity":0.3937007874015748},{"duration":0.2727270000000033,"midi":67,"time":65.3181165,"velocity":0.3937007874015748},{"duration":0.2727270000000033,"midi":43,"time":65.3181165,"velocity":0.3937007874015748},{"duration":0.2727270000000033,"midi":70,"time":65.3181165,"velocity":0.3937007874015748},{"duration":1.0909079999999989,"midi":74,"time":65.5908435,"velocity":0.3937007874015748},{"duration":0.27272699999998906,"midi":38,"time":65.5908435,"velocity":0.3937007874015748},{"duration":0.27272699999998906,"midi":61,"time":65.5908435,"velocity":0.3937007874015748},{"duration":0.27272699999998906,"midi":70,"time":65.5908435,"velocity":0.3937007874015748},{"duration":0.2727270000000033,"midi":38,"time":65.8635705,"velocity":0.3937007874015748},{"duration":0.2727270000000033,"midi":62,"time":65.8635705,"velocity":0.3937007874015748},{"duration":0.2727270000000033,"midi":61,"time":66.1362975,"velocity":0.3937007874015748},{"duration":0.2727270000000033,"midi":67,"time":66.1362975,"velocity":0.3937007874015748},{"duration":0.2727270000000033,"midi":36,"time":66.1362975,"velocity":0.3937007874015748},{"duration":0.2727270000000033,"midi":36,"time":66.4090245,"velocity":0.3937007874015748},{"duration":1.3636350000000022,"midi":74,"time":66.4090245,"velocity":0.3937007874015748},{"duration":0.2727270000000033,"midi":62,"time":66.4090245,"velocity":0.3937007874015748},{"duration":0.27272699999998906,"midi":61,"time":66.6817515,"velocity":0.3937007874015748},{"duration":0.27272699999998906,"midi":34,"time":66.6817515,"velocity":0.3937007874015748},{"duration":0.2727270000000033,"midi":34,"time":66.9544785,"velocity":0.3937007874015748},{"duration":0.2727270000000033,"midi":60,"time":66.9544785,"velocity":0.3937007874015748},{"duration":0.2727270000000033,"midi":58,"time":67.2272055,"velocity":0.3937007874015748},{"duration":0.2727270000000033,"midi":33,"time":67.2272055,"velocity":0.3937007874015748},{"duration":0.2727270000000033,"midi":67,"time":67.2272055,"velocity":0.3937007874015748},{"duration":0.2727270000000033,"midi":33,"time":67.4999325,"velocity":0.3937007874015748},{"duration":0.2727270000000033,"midi":74,"time":67.4999325,"velocity":0.3937007874015748},{"duration":0.2727270000000033,"midi":54,"time":67.4999325,"velocity":0.3937007874015748},{"duration":0.27272699999998906,"midi":31,"time":67.7726595,"velocity":0.3937007874015748},{"duration":1.0909079999999989,"midi":55,"time":67.7726595,"velocity":0.3937007874015748},{"duration":0.2727270000000033,"midi":31,"time":68.04538649999999,"velocity":0.3937007874015748},{"duration":0.2727270000000033,"midi":31,"time":68.3181135,"velocity":0.3937007874015748},{"duration":0.2727270000000033,"midi":31,"time":68.5908405,"velocity":0.3937007874015748},{"duration":0.2727270000000033,"midi":55,"time":68.8635675,"velocity":0.3937007874015748},{"duration":0.27272699999998906,"midi":57,"time":69.1362945,"velocity":0.3937007874015748},{"duration":0.2727270000000033,"midi":58,"time":69.4090215,"velocity":0.3937007874015748},{"duration":0.2727270000000033,"midi":62,"time":69.6817485,"velocity":0.3937007874015748},{"duration":0.2727270000000033,"midi":36,"time":69.9544755,"velocity":0.3937007874015748},{"duration":1.0909079999999989,"midi":63,"time":69.9544755,"velocity":0.3937007874015748},{"duration":0.27272699999998906,"midi":36,"time":70.2272025,"velocity":0.3937007874015748},{"duration":0.13636350000000164,"midi":65,"time":70.2272025,"velocity":0.3937007874015748},{"duration":0.13636350000000164,"midi":69,"time":70.2272025,"velocity":0.3937007874015748},{"duration":0.13636350000000164,"midi":60,"time":70.2272025,"velocity":0.3937007874015748},{"duration":0.13636349999998743,"midi":65,"time":70.363566,"velocity":0.3937007874015748},{"duration":0.13636349999998743,"midi":60,"time":70.363566,"velocity":0.3937007874015748},{"duration":0.13636349999998743,"midi":69,"time":70.363566,"velocity":0.3937007874015748},{"duration":0.13636350000000164,"midi":60,"time":70.4999295,"velocity":0.3937007874015748},{"duration":0.13636350000000164,"midi":69,"time":70.4999295,"velocity":0.3937007874015748},{"duration":0.13636350000000164,"midi":65,"time":70.4999295,"velocity":0.3937007874015748},{"duration":0.2727270000000033,"midi":39,"time":70.4999295,"velocity":0.3937007874015748},{"duration":0.13636350000000164,"midi":62,"time":70.636293,"velocity":0.3937007874015748},{"duration":0.13636350000000164,"midi":70,"time":70.636293,"velocity":0.3937007874015748},{"duration":0.13636350000000164,"midi":67,"time":70.636293,"velocity":0.3937007874015748},{"duration":0.2727270000000033,"midi":36,"time":70.7726565,"velocity":0.3937007874015748},{"duration":0.13636350000000164,"midi":65,"time":71.0453835,"velocity":0.3937007874015748},{"duration":0.13636350000000164,"midi":69,"time":71.0453835,"velocity":0.3937007874015748},{"duration":0.13636350000000164,"midi":60,"time":71.0453835,"velocity":0.3937007874015748},{"duration":0.2727270000000033,"midi":41,"time":71.0453835,"velocity":0.3937007874015748},{"duration":0.13636350000000164,"midi":60,"time":71.181747,"velocity":0.3937007874015748},{"duration":0.13636350000000164,"midi":65,"time":71.181747,"velocity":0.3937007874015748},{"duration":0.13636350000000164,"midi":69,"time":71.181747,"velocity":0.3937007874015748},{"duration":0.2727270000000033,"midi":36,"time":71.3181105,"velocity":0.3937007874015748},{"duration":0.13636350000000164,"midi":60,"time":71.3181105,"velocity":0.3937007874015748},{"duration":0.13636350000000164,"midi":69,"time":71.3181105,"velocity":0.3937007874015748},{"duration":0.13636350000000164,"midi":65,"time":71.3181105,"velocity":0.3937007874015748},{"duration":0.13636350000000164,"midi":62,"time":71.454474,"velocity":0.3937007874015748},{"duration":0.13636350000000164,"midi":67,"time":71.454474,"velocity":0.3937007874015748},{"duration":0.13636350000000164,"midi":70,"time":71.454474,"velocity":0.3937007874015748},{"duration":0.27272699999998906,"midi":42,"time":71.5908375,"velocity":0.3937007874015748},{"duration":0.13636350000000164,"midi":72,"time":71.727201,"velocity":0.3937007874015748},{"duration":0.2727270000000033,"midi":43,"time":71.8635645,"velocity":0.3937007874015748},{"duration":0.13636350000000164,"midi":67,"time":71.999928,"velocity":0.3937007874015748},{"duration":0.13636350000000164,"midi":48,"time":72.1362915,"velocity":0.3937007874015748},{"duration":0.2727270000000033,"midi":36,"time":72.1362915,"velocity":0.3937007874015748},{"duration":0.13636350000000164,"midi":60,"time":72.1362915,"velocity":0.3937007874015748},{"duration":0.13636350000000164,"midi":51,"time":72.272655,"velocity":0.3937007874015748},{"duration":0.13636350000000164,"midi":53,"time":72.4090185,"velocity":0.3937007874015748},{"duration":0.13636350000000164,"midi":63,"time":72.4090185,"velocity":0.3937007874015748},{"duration":0.2727270000000033,"midi":36,"time":72.4090185,"velocity":0.3937007874015748},{"duration":0.13636350000000164,"midi":55,"time":72.545382,"velocity":0.3937007874015748},{"duration":0.13636349999998743,"midi":58,"time":72.6817455,"velocity":0.3937007874015748},{"duration":0.13636349999998743,"midi":67,"time":72.6817455,"velocity":0.3937007874015748},{"duration":0.27272699999998906,"midi":39,"time":72.6817455,"velocity":0.3937007874015748},{"duration":0.13636350000000164,"midi":60,"time":72.81810899999999,"velocity":0.3937007874015748},{"duration":0.13636350000000164,"midi":70,"time":72.9544725,"velocity":0.3937007874015748},{"duration":0.13636350000000164,"midi":62,"time":72.9544725,"velocity":0.3937007874015748},{"duration":0.2727270000000033,"midi":36,"time":72.9544725,"velocity":0.3937007874015748},{"duration":0.13636350000000164,"midi":67,"time":73.090836,"velocity":0.3937007874015748},{"duration":0.2727270000000033,"midi":41,"time":73.2271995,"velocity":0.3937007874015748},{"duration":0.13636350000000164,"midi":72,"time":73.2271995,"velocity":0.3937007874015748},{"duration":0.13636350000000164,"midi":65,"time":73.2271995,"velocity":0.3937007874015748},{"duration":0.13636350000000164,"midi":62,"time":73.363563,"velocity":0.3937007874015748},{"duration":0.2727270000000033,"midi":36,"time":73.4999265,"velocity":0.3937007874015748},{"duration":0.13636350000000164,"midi":60,"time":73.4999265,"velocity":0.3937007874015748},{"duration":0.13636350000000164,"midi":74,"time":73.4999265,"velocity":0.3937007874015748},{"duration":0.13636350000000164,"midi":58,"time":73.63629,"velocity":0.3937007874015748},{"duration":0.13636350000000164,"midi":60,"time":73.7726535,"velocity":0.3937007874015748},{"duration":0.27272699999998906,"midi":42,"time":73.7726535,"velocity":0.3937007874015748},{"duration":0.13636350000000164,"midi":69,"time":73.7726535,"velocity":0.3937007874015748},{"duration":0.13636349999998743,"midi":57,"time":73.909017,"velocity":0.3937007874015748},{"duration":0.2727270000000033,"midi":43,"time":74.0453805,"velocity":0.3937007874015748},{"duration":0.13636350000000164,"midi":53,"time":74.0453805,"velocity":0.3937007874015748},{"duration":0.13636350000000164,"midi":65,"time":74.0453805,"velocity":0.3937007874015748},{"duration":0.13636350000000164,"midi":57,"time":74.181744,"velocity":0.3937007874015748},{"duration":0.8181810000000098,"midi":62,"time":74.3181075,"velocity":0.3937007874015748},{"duration":0.2727270000000033,"midi":31,"time":74.3181075,"velocity":0.3937007874015748},{"duration":0.2727270000000033,"midi":31,"time":74.5908345,"velocity":0.3937007874015748},{"duration":0.13636350000000164,"midi":60,"time":74.5908345,"velocity":0.3937007874015748},{"duration":0.13636350000000164,"midi":53,"time":74.5908345,"velocity":0.3937007874015748},{"duration":0.13636350000000164,"midi":57,"time":74.5908345,"velocity":0.3937007874015748},{"duration":0.13636350000000164,"midi":60,"time":74.727198,"velocity":0.3937007874015748},{"duration":0.13636350000000164,"midi":57,"time":74.727198,"velocity":0.3937007874015748},{"duration":0.13636350000000164,"midi":53,"time":74.727198,"velocity":0.3937007874015748},{"duration":0.2727270000000033,"midi":34,"time":74.8635615,"velocity":0.3937007874015748},{"duration":0.13636350000000164,"midi":57,"time":74.8635615,"velocity":0.3937007874015748},{"duration":0.13636350000000164,"midi":60,"time":74.8635615,"velocity":0.3937007874015748},{"duration":0.13636350000000164,"midi":53,"time":74.8635615,"velocity":0.3937007874015748},{"duration":0.4090904999999907,"midi":62,"time":74.999925,"velocity":0.3937007874015748},{"duration":0.13636350000000164,"midi":58,"time":74.999925,"velocity":0.3937007874015748},{"duration":0.13636350000000164,"midi":55,"time":74.999925,"velocity":0.3937007874015748},{"duration":0.27272699999998906,"midi":31,"time":75.1362885,"velocity":0.3937007874015748},{"duration":0.13636350000000164,"midi":60,"time":75.4090155,"velocity":0.3937007874015748},{"duration":0.2727270000000033,"midi":36,"time":75.4090155,"velocity":0.3937007874015748},{"duration":0.13636350000000164,"midi":53,"time":75.4090155,"velocity":0.3937007874015748},{"duration":0.13636350000000164,"midi":57,"time":75.4090155,"velocity":0.3937007874015748},{"duration":0.13636350000000164,"midi":53,"time":75.545379,"velocity":0.3937007874015748},{"duration":0.13636350000000164,"midi":60,"time":75.545379,"velocity":0.3937007874015748},{"duration":0.13636350000000164,"midi":57,"time":75.545379,"velocity":0.3937007874015748},{"duration":0.13636350000000164,"midi":60,"time":75.6817425,"velocity":0.3937007874015748},{"duration":0.13636350000000164,"midi":57,"time":75.6817425,"velocity":0.3937007874015748},{"duration":0.2727270000000033,"midi":31,"time":75.6817425,"velocity":0.3937007874015748},{"duration":0.13636350000000164,"midi":53,"time":75.6817425,"velocity":0.3937007874015748},{"duration":0.13636350000000164,"midi":55,"time":75.818106,"velocity":0.3937007874015748},{"duration":0.13636350000000164,"midi":62,"time":75.818106,"velocity":0.3937007874015748},{"duration":0.13636350000000164,"midi":58,"time":75.818106,"velocity":0.3937007874015748},{"duration":0.2727270000000033,"midi":37,"time":75.9544695,"velocity":0.3937007874015748},{"duration":0.27272699999998906,"midi":38,"time":76.2271965,"velocity":0.3937007874015748},{"duration":0.2727270000000033,"midi":31,"time":76.4999235,"velocity":0.3937007874015748},{"duration":0.13636350000000164,"midi":57,"time":76.7726505,"velocity":0.3937007874015748},{"duration":0.2727270000000033,"midi":74,"time":76.7726505,"velocity":0.3937007874015748},{"duration":0.13636350000000164,"midi":60,"time":76.7726505,"velocity":0.3937007874015748},{"duration":0.2727270000000033,"midi":31,"time":76.7726505,"velocity":0.3937007874015748},{"duration":0.13636350000000164,"midi":53,"time":76.7726505,"velocity":0.3937007874015748},{"duration":0.13636350000000164,"midi":53,"time":76.909014,"velocity":0.3937007874015748},{"duration":0.13636350000000164,"midi":60,"time":76.909014,"velocity":0.3937007874015748},{"duration":0.13636350000000164,"midi":57,"time":76.909014,"velocity":0.3937007874015748},{"duration":0.13636350000000164,"midi":60,"time":77.0453775,"velocity":0.3937007874015748},{"duration":0.13636350000000164,"midi":57,"time":77.0453775,"velocity":0.3937007874015748},{"duration":0.13636350000000164,"midi":53,"time":77.0453775,"velocity":0.3937007874015748},{"duration":0.2727270000000033,"midi":72,"time":77.0453775,"velocity":0.3937007874015748},{"duration":0.2727270000000033,"midi":34,"time":77.0453775,"velocity":0.3937007874015748},{"duration":0.13636350000000164,"midi":65,"time":77.181741,"velocity":0.3937007874015748},{"duration":0.13636350000000164,"midi":69,"time":77.181741,"velocity":0.3937007874015748},{"duration":0.13636350000000164,"midi":60,"time":77.181741,"velocity":0.3937007874015748},{"duration":0.27272699999998906,"midi":70,"time":77.3181045,"velocity":0.3937007874015748},{"duration":0.27272699999998906,"midi":31,"time":77.3181045,"velocity":0.3937007874015748},{"duration":0.13636349999998743,"midi":67,"time":77.454468,"velocity":0.3937007874015748},{"duration":0.13636349999998743,"midi":58,"time":77.454468,"velocity":0.3937007874015748},{"duration":0.13636349999998743,"midi":62,"time":77.454468,"velocity":0.3937007874015748},{"duration":0.2727270000000033,"midi":36,"time":77.5908315,"velocity":0.3937007874015748},{"duration":0.2727270000000033,"midi":72,"time":77.5908315,"velocity":0.3937007874015748},{"duration":0.13636350000000164,"midi":58,"time":77.727195,"velocity":0.3937007874015748},{"duration":0.13636350000000164,"midi":55,"time":77.727195,"velocity":0.3937007874015748},{"duration":0.13636350000000164,"midi":62,"time":77.727195,"velocity":0.3937007874015748},{"duration":0.2727270000000033,"midi":70,"time":77.8635585,"velocity":0.3937007874015748},{"duration":0.2727270000000033,"midi":31,"time":77.8635585,"velocity":0.3937007874015748},{"duration":0.13636350000000164,"midi":60,"time":77.999922,"velocity":0.3937007874015748},{"duration":0.13636350000000164,"midi":57,"time":77.999922,"velocity":0.3937007874015748},{"duration":0.13636350000000164,"midi":58,"time":78.1362855,"velocity":0.3937007874015748},{"duration":0.2727270000000033,"midi":65,"time":78.1362855,"velocity":0.3937007874015748},{"duration":0.2727270000000033,"midi":37,"time":78.1362855,"velocity":0.3937007874015748},{"duration":0.13636350000000164,"midi":55,"time":78.1362855,"velocity":0.3937007874015748},{"duration":0.13636350000000164,"midi":57,"time":78.272649,"velocity":0.3937007874015748},{"duration":0.13636350000000164,"midi":60,"time":78.272649,"velocity":0.3937007874015748},{"duration":0.13636350000000164,"midi":62,"time":78.4090125,"velocity":0.3937007874015748},{"duration":0.2727270000000033,"midi":38,"time":78.4090125,"velocity":0.3937007874015748},{"duration":0.13636350000000164,"midi":58,"time":78.4090125,"velocity":0.3937007874015748},{"duration":0.2727270000000033,"midi":62,"time":78.4090125,"velocity":0.3937007874015748},{"duration":0.13636350000000164,"midi":65,"time":78.545376,"velocity":0.3937007874015748},{"duration":0.13636350000000164,"midi":62,"time":78.545376,"velocity":0.3937007874015748},{"duration":0.27272699999998906,"midi":36,"time":78.6817395,"velocity":0.3937007874015748},{"duration":1.0909079999999989,"midi":63,"time":78.6817395,"velocity":0.3937007874015748},{"duration":0.2727270000000033,"midi":36,"time":78.9544665,"velocity":0.3937007874015748},{"duration":0.13636350000000164,"midi":48,"time":78.9544665,"velocity":0.3937007874015748},{"duration":0.13636350000000164,"midi":51,"time":79.09083,"velocity":0.3937007874015748},{"duration":0.13636350000000164,"midi":55,"time":79.2271935,"velocity":0.3937007874015748},{"duration":0.2727270000000033,"midi":39,"time":79.2271935,"velocity":0.3937007874015748},{"duration":0.13636350000000164,"midi":58,"time":79.363557,"velocity":0.3937007874015748},{"duration":0.2727270000000033,"midi":36,"time":79.4999205,"velocity":0.3937007874015748},{"duration":0.13636350000000164,"midi":62,"time":79.4999205,"velocity":0.3937007874015748},{"duration":0.13636350000000164,"midi":58,"time":79.636284,"velocity":0.3937007874015748},{"duration":0.13636349999998743,"midi":65,"time":79.7726475,"velocity":0.3937007874015748},{"duration":0.27272699999998906,"midi":41,"time":79.7726475,"velocity":0.3937007874015748},{"duration":0.13636350000000164,"midi":62,"time":79.90901099999999,"velocity":0.3937007874015748},{"duration":0.13636350000000164,"midi":69,"time":80.0453745,"velocity":0.3937007874015748},{"duration":0.2727270000000033,"midi":36,"time":80.0453745,"velocity":0.3937007874015748},{"duration":0.13636350000000164,"midi":65,"time":80.181738,"velocity":0.3937007874015748},{"duration":0.2727270000000033,"midi":42,"time":80.3181015,"velocity":0.3937007874015748},{"duration":0.13636350000000164,"midi":62,"time":80.3181015,"velocity":0.3937007874015748},{"duration":0.13636350000000164,"midi":58,"time":80.454465,"velocity":0.3937007874015748},{"duration":0.2727270000000033,"midi":43,"time":80.5908285,"velocity":0.3937007874015748},{"duration":0.13636350000000164,"midi":57,"time":80.5908285,"velocity":0.3937007874015748},{"duration":0.13636350000000164,"midi":53,"time":80.727192,"velocity":0.3937007874015748},{"duration":0.13636350000000164,"midi":51,"time":80.8635555,"velocity":0.3937007874015748},{"duration":0.13636350000000164,"midi":60,"time":80.8635555,"velocity":0.3937007874015748},{"duration":0.27272699999998906,"midi":36,"time":80.8635555,"velocity":0.3937007874015748},{"duration":0.2727270000000033,"midi":36,"time":81.1362825,"velocity":0.3937007874015748},{"duration":0.13636350000000164,"midi":63,"time":81.1362825,"velocity":0.3937007874015748},{"duration":0.13636350000000164,"midi":67,"time":81.4090095,"velocity":0.3937007874015748},{"duration":0.13636350000000164,"midi":55,"time":81.4090095,"velocity":0.3937007874015748},{"duration":0.2727270000000033,"midi":39,"time":81.4090095,"velocity":0.3937007874015748},{"duration":0.13636350000000164,"midi":51,"time":81.4090095,"velocity":0.3937007874015748},{"duration":0.2727270000000033,"midi":36,"time":81.6817365,"velocity":0.3937007874015748},{"duration":0.13636350000000164,"midi":70,"time":81.6817365,"velocity":0.3937007874015748},{"duration":0.13636350000000164,"midi":62,"time":81.9544635,"velocity":0.3937007874015748},{"duration":0.2727270000000033,"midi":41,"time":81.9544635,"velocity":0.3937007874015748},{"duration":0.13636350000000164,"midi":58,"time":81.9544635,"velocity":0.3937007874015748},{"duration":0.13636350000000164,"midi":51,"time":81.9544635,"velocity":0.3937007874015748},{"duration":0.13636349999998743,"midi":72,"time":82.2271905,"velocity":0.3937007874015748},{"duration":0.27272699999998906,"midi":36,"time":82.2271905,"velocity":0.3937007874015748},{"duration":0.13636350000000164,"midi":55,"time":82.4999175,"velocity":0.3937007874015748},{"duration":0.13636350000000164,"midi":51,"time":82.4999175,"velocity":0.3937007874015748},{"duration":0.13636350000000164,"midi":58,"time":82.4999175,"velocity":0.3937007874015748},{"duration":0.2727270000000033,"midi":42,"time":82.4999175,"velocity":0.3937007874015748},{"duration":0.13636350000000164,"midi":70,"time":82.7726445,"velocity":0.3937007874015748},{"duration":0.2727270000000033,"midi":43,"time":82.7726445,"velocity":0.3937007874015748},{"duration":0.8181809999999956,"midi":58,"time":83.0453715,"velocity":0.3937007874015748},{"duration":0.2727270000000033,"midi":39,"time":83.0453715,"velocity":0.3937007874015748},{"duration":0.2727270000000033,"midi":74,"time":83.0453715,"velocity":0.3937007874015748},{"duration":0.8181809999999956,"midi":62,"time":83.0453715,"velocity":0.3937007874015748},{"duration":0.8181809999999956,"midi":55,"time":83.0453715,"velocity":0.3937007874015748},{"duration":0.27272699999998906,"midi":70,"time":83.3180985,"velocity":0.3937007874015748},{"duration":0.2727270000000033,"midi":67,"time":83.5908255,"velocity":0.3937007874015748},{"duration":0.2727270000000033,"midi":38,"time":83.8635525,"velocity":0.3937007874015748},{"duration":0.8181809999999956,"midi":60,"time":83.8635525,"velocity":0.3937007874015748},{"duration":0.8181809999999956,"midi":57,"time":83.8635525,"velocity":0.3937007874015748},{"duration":0.8181809999999956,"midi":53,"time":83.8635525,"velocity":0.3937007874015748},{"duration":0.5454540000000065,"midi":72,"time":83.8635525,"velocity":0.3937007874015748},{"duration":0.27272699999998906,"midi":69,"time":84.4090065,"velocity":0.3937007874015748},{"duration":0.2727270000000033,"midi":65,"time":84.68173349999999,"velocity":0.3937007874015748},{"duration":1.9090890000000087,"midi":67,"time":84.9544605,"velocity":0.3937007874015748},{"duration":2.454543000000001,"midi":62,"time":84.9544605,"velocity":0.3937007874015748},{"duration":2.454543000000001,"midi":67,"time":84.9544605,"velocity":0.3937007874015748},{"duration":0.2727270000000033,"midi":31,"time":84.9544605,"velocity":0.3937007874015748},{"duration":1.0909079999999989,"midi":60,"time":84.9544605,"velocity":0.3937007874015748},{"duration":0.2727270000000033,"midi":31,"time":85.2271875,"velocity":0.3937007874015748},{"duration":0.27272699999998906,"midi":31,"time":85.7726415,"velocity":0.3937007874015748},{"duration":1.3636350000000022,"midi":59,"time":86.0453685,"velocity":0.3937007874015748},{"duration":0.2727270000000033,"midi":31,"time":86.3180955,"velocity":0.3937007874015748},{"duration":0.27272699999998906,"midi":31,"time":86.8635495,"velocity":0.3937007874015748}]},{"instrument":{"family":"synth lead","number":82,"name":"lead 3 (calliope)"},"notes":[{"duration":0.27272700000000005,"midi":43,"time":0.1363635,"velocity":0.3937007874015748},{"duration":0.27272700000000005,"midi":43,"time":0.1363635,"velocity":0.3937007874015748},{"duration":0.27272700000000005,"midi":43,"time":0.1363635,"velocity":0.3937007874015748},{"duration":0.27272700000000005,"midi":43,"time":0.1363635,"velocity":0.3937007874015748},{"duration":0.27272700000000005,"midi":43,"time":0.1363635,"velocity":0.3937007874015748},{"duration":0.27272700000000005,"midi":43,"time":0.1363635,"velocity":0.3937007874015748},{"duration":0.27272700000000005,"midi":43,"time":0.1363635,"velocity":0.3937007874015748},{"duration":0.27272700000000005,"midi":43,"time":0.1363635,"velocity":0.3937007874015748},{"duration":0.27272699999999994,"midi":50,"time":0.4090905,"velocity":0.3937007874015748},{"duration":0.27272699999999994,"midi":50,"time":0.4090905,"velocity":0.3937007874015748},{"duration":0.27272699999999994,"midi":50,"time":0.4090905,"velocity":0.3937007874015748},{"duration":0.27272699999999994,"midi":50,"time":0.4090905,"velocity":0.3937007874015748},{"duration":0.27272699999999994,"midi":50,"time":0.4090905,"velocity":0.3937007874015748},{"duration":0.27272699999999994,"midi":50,"time":0.4090905,"velocity":0.3937007874015748},{"duration":0.27272699999999994,"midi":50,"time":0.4090905,"velocity":0.3937007874015748},{"duration":0.27272699999999994,"midi":50,"time":0.4090905,"velocity":0.3937007874015748},{"duration":0.27272700000000005,"midi":49,"time":0.6818175,"velocity":0.3937007874015748},{"duration":0.27272700000000005,"midi":49,"time":0.6818175,"velocity":0.3937007874015748},{"duration":0.27272700000000005,"midi":49,"time":0.6818175,"velocity":0.3937007874015748},{"duration":0.27272700000000005,"midi":49,"time":0.6818175,"velocity":0.3937007874015748},{"duration":0.27272700000000005,"midi":49,"time":0.6818175,"velocity":0.3937007874015748},{"duration":0.27272700000000005,"midi":49,"time":0.6818175,"velocity":0.3937007874015748},{"duration":0.27272700000000005,"midi":49,"time":0.6818175,"velocity":0.3937007874015748},{"duration":0.27272700000000005,"midi":49,"time":0.6818175,"velocity":0.3937007874015748},{"duration":0.27272700000000005,"midi":50,"time":0.9545445,"velocity":0.3937007874015748},{"duration":0.27272700000000005,"midi":50,"time":0.9545445,"velocity":0.3937007874015748},{"duration":0.27272700000000005,"midi":50,"time":0.9545445,"velocity":0.3937007874015748},{"duration":0.27272700000000005,"midi":50,"time":0.9545445,"velocity":0.3937007874015748},{"duration":0.27272699999999994,"midi":53,"time":1.2272715,"velocity":0.3937007874015748},{"duration":0.27272699999999994,"midi":53,"time":1.2272715,"velocity":0.3937007874015748},{"duration":0.27272699999999994,"midi":50,"time":1.4999985,"velocity":0.3937007874015748},{"duration":0.2727269999999997,"midi":43,"time":4.4999955,"velocity":0.3937007874015748},{"duration":0.2727269999999997,"midi":43,"time":4.4999955,"velocity":0.3937007874015748},{"duration":0.2727269999999997,"midi":43,"time":4.4999955,"velocity":0.3937007874015748},{"duration":0.2727269999999997,"midi":43,"time":4.4999955,"velocity":0.3937007874015748},{"duration":0.2727269999999997,"midi":43,"time":4.4999955,"velocity":0.3937007874015748},{"duration":0.2727269999999997,"midi":43,"time":4.4999955,"velocity":0.3937007874015748},{"duration":0.2727269999999997,"midi":43,"time":4.4999955,"velocity":0.3937007874015748},{"duration":0.2727269999999997,"midi":43,"time":4.4999955,"velocity":0.3937007874015748},{"duration":0.2727270000000006,"midi":50,"time":4.7727224999999995,"velocity":0.3937007874015748},{"duration":0.2727270000000006,"midi":50,"time":4.7727224999999995,"velocity":0.3937007874015748},{"duration":0.2727270000000006,"midi":50,"time":4.7727224999999995,"velocity":0.3937007874015748},{"duration":0.2727270000000006,"midi":50,"time":4.7727224999999995,"velocity":0.3937007874015748},{"duration":0.2727270000000006,"midi":50,"time":4.7727224999999995,"velocity":0.3937007874015748},{"duration":0.2727270000000006,"midi":50,"time":4.7727224999999995,"velocity":0.3937007874015748},{"duration":0.2727270000000006,"midi":50,"time":4.7727224999999995,"velocity":0.3937007874015748},{"duration":0.2727270000000006,"midi":50,"time":4.7727224999999995,"velocity":0.3937007874015748},{"duration":0.2727269999999997,"midi":49,"time":5.0454495,"velocity":0.3937007874015748},{"duration":0.2727269999999997,"midi":49,"time":5.0454495,"velocity":0.3937007874015748},{"duration":0.2727269999999997,"midi":49,"time":5.0454495,"velocity":0.3937007874015748},{"duration":0.2727269999999997,"midi":49,"time":5.0454495,"velocity":0.3937007874015748},{"duration":0.2727269999999997,"midi":49,"time":5.0454495,"velocity":0.3937007874015748},{"duration":0.2727269999999997,"midi":49,"time":5.0454495,"velocity":0.3937007874015748},{"duration":0.2727269999999997,"midi":49,"time":5.0454495,"velocity":0.3937007874015748},{"duration":0.2727269999999997,"midi":49,"time":5.0454495,"velocity":0.3937007874015748},{"duration":0.2727269999999997,"midi":50,"time":5.3181765,"velocity":0.3937007874015748},{"duration":0.2727269999999997,"midi":50,"time":5.3181765,"velocity":0.3937007874015748},{"duration":0.2727269999999997,"midi":50,"time":5.3181765,"velocity":0.3937007874015748},{"duration":0.2727269999999997,"midi":50,"time":5.3181765,"velocity":0.3937007874015748},{"duration":0.2727270000000006,"midi":53,"time":5.5909035,"velocity":0.3937007874015748},{"duration":0.2727270000000006,"midi":53,"time":5.5909035,"velocity":0.3937007874015748},{"duration":0.2727269999999997,"midi":50,"time":5.8636305,"velocity":0.3937007874015748},{"duration":0.2727269999999997,"midi":43,"time":8.8636275,"velocity":0.3937007874015748},{"duration":0.2727269999999997,"midi":43,"time":8.8636275,"velocity":0.3937007874015748},{"duration":0.2727269999999997,"midi":43,"time":8.8636275,"velocity":0.3937007874015748},{"duration":0.2727269999999997,"midi":43,"time":8.8636275,"velocity":0.3937007874015748},{"duration":0.2727269999999997,"midi":43,"time":8.8636275,"velocity":0.3937007874015748},{"duration":0.2727269999999997,"midi":43,"time":8.8636275,"velocity":0.3937007874015748},{"duration":0.2727269999999997,"midi":43,"time":8.8636275,"velocity":0.3937007874015748},{"duration":0.2727269999999997,"midi":43,"time":8.8636275,"velocity":0.3937007874015748},{"duration":0.2727269999999997,"midi":43,"time":8.8636275,"velocity":0.3937007874015748},{"duration":0.2727269999999997,"midi":43,"time":8.8636275,"velocity":0.3937007874015748},{"duration":0.2727269999999997,"midi":43,"time":8.8636275,"velocity":0.3937007874015748},{"duration":0.2727269999999997,"midi":43,"time":8.8636275,"velocity":0.3937007874015748},{"duration":0.2727269999999997,"midi":43,"time":8.8636275,"velocity":0.3937007874015748},{"duration":0.2727269999999997,"midi":43,"time":8.8636275,"velocity":0.3937007874015748},{"duration":0.2727269999999997,"midi":43,"time":8.8636275,"velocity":0.3937007874015748},{"duration":0.2727269999999997,"midi":43,"time":8.8636275,"velocity":0.3937007874015748},{"duration":0.2727269999999997,"midi":50,"time":9.1363545,"velocity":0.3937007874015748},{"duration":0.2727269999999997,"midi":50,"time":9.1363545,"velocity":0.3937007874015748},{"duration":0.2727269999999997,"midi":50,"time":9.1363545,"velocity":0.3937007874015748},{"duration":0.2727269999999997,"midi":50,"time":9.1363545,"velocity":0.3937007874015748},{"duration":0.2727269999999997,"midi":50,"time":9.1363545,"velocity":0.3937007874015748},{"duration":0.2727269999999997,"midi":50,"time":9.1363545,"velocity":0.3937007874015748},{"duration":0.2727269999999997,"midi":50,"time":9.1363545,"velocity":0.3937007874015748},{"duration":0.2727269999999997,"midi":50,"time":9.1363545,"velocity":0.3937007874015748},{"duration":0.2727269999999997,"midi":50,"time":9.1363545,"velocity":0.3937007874015748},{"duration":0.2727269999999997,"midi":50,"time":9.1363545,"velocity":0.3937007874015748},{"duration":0.2727269999999997,"midi":50,"time":9.1363545,"velocity":0.3937007874015748},{"duration":0.2727269999999997,"midi":50,"time":9.1363545,"velocity":0.3937007874015748},{"duration":0.2727269999999997,"midi":50,"time":9.1363545,"velocity":0.3937007874015748},{"duration":0.2727269999999997,"midi":50,"time":9.1363545,"velocity":0.3937007874015748},{"duration":0.2727269999999997,"midi":50,"time":9.1363545,"velocity":0.3937007874015748},{"duration":0.2727269999999997,"midi":50,"time":9.1363545,"velocity":0.3937007874015748},{"duration":0.2727270000000015,"midi":49,"time":9.4090815,"velocity":0.3937007874015748},{"duration":0.2727270000000015,"midi":49,"time":9.4090815,"velocity":0.3937007874015748},{"duration":0.2727270000000015,"midi":49,"time":9.4090815,"velocity":0.3937007874015748},{"duration":0.2727270000000015,"midi":49,"time":9.4090815,"velocity":0.3937007874015748},{"duration":0.2727270000000015,"midi":49,"time":9.4090815,"velocity":0.3937007874015748},{"duration":0.2727270000000015,"midi":49,"time":9.4090815,"velocity":0.3937007874015748},{"duration":0.2727270000000015,"midi":49,"time":9.4090815,"velocity":0.3937007874015748},{"duration":0.2727270000000015,"midi":49,"time":9.4090815,"velocity":0.3937007874015748},{"duration":0.2727270000000015,"midi":49,"time":9.4090815,"velocity":0.3937007874015748},{"duration":0.2727270000000015,"midi":49,"time":9.4090815,"velocity":0.3937007874015748},{"duration":0.2727270000000015,"midi":49,"time":9.4090815,"velocity":0.3937007874015748},{"duration":0.2727270000000015,"midi":49,"time":9.4090815,"velocity":0.3937007874015748},{"duration":0.2727270000000015,"midi":49,"time":9.4090815,"velocity":0.3937007874015748},{"duration":0.2727270000000015,"midi":49,"time":9.4090815,"velocity":0.3937007874015748},{"duration":0.2727270000000015,"midi":49,"time":9.4090815,"velocity":0.3937007874015748},{"duration":0.2727270000000015,"midi":49,"time":9.4090815,"velocity":0.3937007874015748},{"duration":0.2727269999999997,"midi":50,"time":9.6818085,"velocity":0.3937007874015748},{"duration":0.2727269999999997,"midi":50,"time":9.6818085,"velocity":0.3937007874015748},{"duration":0.2727269999999997,"midi":50,"time":9.6818085,"velocity":0.3937007874015748},{"duration":0.2727269999999997,"midi":50,"time":9.6818085,"velocity":0.3937007874015748},{"duration":0.2727269999999997,"midi":50,"time":9.6818085,"velocity":0.3937007874015748},{"duration":0.2727269999999997,"midi":50,"time":9.6818085,"velocity":0.3937007874015748},{"duration":0.2727269999999997,"midi":50,"time":9.6818085,"velocity":0.3937007874015748},{"duration":0.2727269999999997,"midi":50,"time":9.6818085,"velocity":0.3937007874015748},{"duration":0.2727269999999997,"midi":53,"time":9.9545355,"velocity":0.3937007874015748},{"duration":0.2727269999999997,"midi":53,"time":9.9545355,"velocity":0.3937007874015748},{"duration":0.2727269999999997,"midi":53,"time":9.9545355,"velocity":0.3937007874015748},{"duration":0.2727269999999997,"midi":53,"time":9.9545355,"velocity":0.3937007874015748},{"duration":0.2727269999999997,"midi":50,"time":10.2272625,"velocity":0.3937007874015748},{"duration":0.2727269999999997,"midi":50,"time":10.2272625,"velocity":0.3937007874015748},{"duration":0.2727269999999997,"midi":50,"time":12.4090785,"velocity":0.3937007874015748},{"duration":0.2727269999999997,"midi":50,"time":12.4090785,"velocity":0.3937007874015748},{"duration":0.2727269999999997,"midi":50,"time":12.4090785,"velocity":0.3937007874015748},{"duration":0.2727269999999997,"midi":50,"time":12.4090785,"velocity":0.3937007874015748},{"duration":0.2727269999999997,"midi":50,"time":12.4090785,"velocity":0.3937007874015748},{"duration":0.2727269999999997,"midi":50,"time":12.4090785,"velocity":0.3937007874015748},{"duration":0.2727269999999997,"midi":50,"time":12.4090785,"velocity":0.3937007874015748},{"duration":0.2727269999999997,"midi":50,"time":12.4090785,"velocity":0.3937007874015748},{"duration":0.2727269999999997,"midi":50,"time":12.4090785,"velocity":0.3937007874015748},{"duration":0.2727269999999997,"midi":50,"time":12.4090785,"velocity":0.3937007874015748},{"duration":0.2727269999999997,"midi":50,"time":12.4090785,"velocity":0.3937007874015748},{"duration":0.2727269999999997,"midi":50,"time":12.4090785,"velocity":0.3937007874015748},{"duration":0.2727269999999997,"midi":50,"time":12.4090785,"velocity":0.3937007874015748},{"duration":0.2727269999999997,"midi":50,"time":12.4090785,"velocity":0.3937007874015748},{"duration":0.2727269999999997,"midi":50,"time":12.4090785,"velocity":0.3937007874015748},{"duration":0.2727269999999997,"midi":50,"time":12.4090785,"velocity":0.3937007874015748},{"duration":0.2727269999999997,"midi":48,"time":12.6818055,"velocity":0.3937007874015748},{"duration":0.2727269999999997,"midi":48,"time":12.6818055,"velocity":0.3937007874015748},{"duration":0.2727269999999997,"midi":48,"time":12.6818055,"velocity":0.3937007874015748},{"duration":0.2727269999999997,"midi":48,"time":12.6818055,"velocity":0.3937007874015748},{"duration":0.2727269999999997,"midi":48,"time":12.6818055,"velocity":0.3937007874015748},{"duration":0.2727269999999997,"midi":48,"time":12.6818055,"velocity":0.3937007874015748},{"duration":0.2727269999999997,"midi":48,"time":12.6818055,"velocity":0.3937007874015748},{"duration":0.2727269999999997,"midi":48,"time":12.6818055,"velocity":0.3937007874015748},{"duration":0.2727270000000015,"midi":46,"time":12.9545325,"velocity":0.3937007874015748},{"duration":0.2727270000000015,"midi":46,"time":12.9545325,"velocity":0.3937007874015748},{"duration":0.2727270000000015,"midi":46,"time":12.9545325,"velocity":0.3937007874015748},{"duration":0.2727270000000015,"midi":46,"time":12.9545325,"velocity":0.3937007874015748},{"duration":1.0909079999999989,"midi":49,"time":13.2272595,"velocity":0.3937007874015748},{"duration":1.0909079999999989,"midi":49,"time":13.2272595,"velocity":0.3937007874015748},{"duration":0.2727269999999997,"midi":43,"time":17.5908915,"velocity":0.3937007874015748},{"duration":0.2727269999999997,"midi":43,"time":17.5908915,"velocity":0.3937007874015748},{"duration":0.2727269999999997,"midi":43,"time":17.5908915,"velocity":0.3937007874015748},{"duration":0.2727269999999997,"midi":43,"time":17.5908915,"velocity":0.3937007874015748},{"duration":0.2727269999999997,"midi":43,"time":17.5908915,"velocity":0.3937007874015748},{"duration":0.2727269999999997,"midi":43,"time":17.5908915,"velocity":0.3937007874015748},{"duration":0.2727269999999997,"midi":43,"time":17.5908915,"velocity":0.3937007874015748},{"duration":0.2727269999999997,"midi":43,"time":17.5908915,"velocity":0.3937007874015748},{"duration":0.2727269999999997,"midi":43,"time":17.5908915,"velocity":0.3937007874015748},{"duration":0.2727269999999997,"midi":43,"time":17.5908915,"velocity":0.3937007874015748},{"duration":0.2727269999999997,"midi":43,"time":17.5908915,"velocity":0.3937007874015748},{"duration":0.2727269999999997,"midi":43,"time":17.5908915,"velocity":0.3937007874015748},{"duration":0.2727269999999997,"midi":43,"time":17.5908915,"velocity":0.3937007874015748},{"duration":0.2727269999999997,"midi":43,"time":17.5908915,"velocity":0.3937007874015748},{"duration":0.2727269999999997,"midi":43,"time":17.5908915,"velocity":0.3937007874015748},{"duration":0.2727269999999997,"midi":43,"time":17.5908915,"velocity":0.3937007874015748},{"duration":0.2727269999999997,"midi":43,"time":17.5908915,"velocity":0.3937007874015748},{"duration":0.2727269999999997,"midi":43,"time":17.5908915,"velocity":0.3937007874015748},{"duration":0.2727269999999997,"midi":43,"time":17.5908915,"velocity":0.3937007874015748},{"duration":0.2727269999999997,"midi":43,"time":17.5908915,"velocity":0.3937007874015748},{"duration":0.2727269999999997,"midi":43,"time":17.5908915,"velocity":0.3937007874015748},{"duration":0.2727269999999997,"midi":43,"time":17.5908915,"velocity":0.3937007874015748},{"duration":0.2727269999999997,"midi":43,"time":17.5908915,"velocity":0.3937007874015748},{"duration":0.2727269999999997,"midi":43,"time":17.5908915,"velocity":0.3937007874015748},{"duration":0.2727269999999997,"midi":43,"time":17.5908915,"velocity":0.3937007874015748},{"duration":0.2727269999999997,"midi":43,"time":17.5908915,"velocity":0.3937007874015748},{"duration":0.2727269999999997,"midi":43,"time":17.5908915,"velocity":0.3937007874015748},{"duration":0.2727269999999997,"midi":43,"time":17.5908915,"velocity":0.3937007874015748},{"duration":0.2727269999999997,"midi":43,"time":17.5908915,"velocity":0.3937007874015748},{"duration":0.2727269999999997,"midi":43,"time":17.5908915,"velocity":0.3937007874015748},{"duration":0.2727269999999997,"midi":43,"time":17.5908915,"velocity":0.3937007874015748},{"duration":0.2727269999999997,"midi":43,"time":17.5908915,"velocity":0.3937007874015748},{"duration":0.2727269999999997,"midi":50,"time":17.8636185,"velocity":0.3937007874015748},{"duration":0.2727269999999997,"midi":50,"time":17.8636185,"velocity":0.3937007874015748},{"duration":0.2727269999999997,"midi":50,"time":17.8636185,"velocity":0.3937007874015748},{"duration":0.2727269999999997,"midi":50,"time":17.8636185,"velocity":0.3937007874015748},{"duration":0.2727269999999997,"midi":50,"time":17.8636185,"velocity":0.3937007874015748},{"duration":0.2727269999999997,"midi":50,"time":17.8636185,"velocity":0.3937007874015748},{"duration":0.2727269999999997,"midi":50,"time":17.8636185,"velocity":0.3937007874015748},{"duration":0.2727269999999997,"midi":50,"time":17.8636185,"velocity":0.3937007874015748},{"duration":0.2727269999999997,"midi":50,"time":17.8636185,"velocity":0.3937007874015748},{"duration":0.2727269999999997,"midi":50,"time":17.8636185,"velocity":0.3937007874015748},{"duration":0.2727269999999997,"midi":50,"time":17.8636185,"velocity":0.3937007874015748},{"duration":0.2727269999999997,"midi":50,"time":17.8636185,"velocity":0.3937007874015748},{"duration":0.2727269999999997,"midi":50,"time":17.8636185,"velocity":0.3937007874015748},{"duration":0.2727269999999997,"midi":50,"time":17.8636185,"velocity":0.3937007874015748},{"duration":0.2727269999999997,"midi":50,"time":17.8636185,"velocity":0.3937007874015748},{"duration":0.2727269999999997,"midi":50,"time":17.8636185,"velocity":0.3937007874015748},{"duration":0.2727269999999997,"midi":50,"time":17.8636185,"velocity":0.3937007874015748},{"duration":0.2727269999999997,"midi":50,"time":17.8636185,"velocity":0.3937007874015748},{"duration":0.2727269999999997,"midi":50,"time":17.8636185,"velocity":0.3937007874015748},{"duration":0.2727269999999997,"midi":50,"time":17.8636185,"velocity":0.3937007874015748},{"duration":0.2727269999999997,"midi":50,"time":17.8636185,"velocity":0.3937007874015748},{"duration":0.2727269999999997,"midi":50,"time":17.8636185,"velocity":0.3937007874015748},{"duration":0.2727269999999997,"midi":50,"time":17.8636185,"velocity":0.3937007874015748},{"duration":0.2727269999999997,"midi":50,"time":17.8636185,"velocity":0.3937007874015748},{"duration":0.2727269999999997,"midi":50,"time":17.8636185,"velocity":0.3937007874015748},{"duration":0.2727269999999997,"midi":50,"time":17.8636185,"velocity":0.3937007874015748},{"duration":0.2727269999999997,"midi":50,"time":17.8636185,"velocity":0.3937007874015748},{"duration":0.2727269999999997,"midi":50,"time":17.8636185,"velocity":0.3937007874015748},{"duration":0.2727269999999997,"midi":50,"time":17.8636185,"velocity":0.3937007874015748},{"duration":0.2727269999999997,"midi":50,"time":17.8636185,"velocity":0.3937007874015748},{"duration":0.2727269999999997,"midi":50,"time":17.8636185,"velocity":0.3937007874015748},{"duration":0.2727269999999997,"midi":50,"time":17.8636185,"velocity":0.3937007874015748},{"duration":0.2727269999999997,"midi":49,"time":18.1363455,"velocity":0.3937007874015748},{"duration":0.2727269999999997,"midi":49,"time":18.1363455,"velocity":0.3937007874015748},{"duration":0.2727269999999997,"midi":49,"time":18.1363455,"velocity":0.3937007874015748},{"duration":0.2727269999999997,"midi":49,"time":18.1363455,"velocity":0.3937007874015748},{"duration":0.2727269999999997,"midi":49,"time":18.1363455,"velocity":0.3937007874015748},{"duration":0.2727269999999997,"midi":49,"time":18.1363455,"velocity":0.3937007874015748},{"duration":0.2727269999999997,"midi":49,"time":18.1363455,"velocity":0.3937007874015748},{"duration":0.2727269999999997,"midi":49,"time":18.1363455,"velocity":0.3937007874015748},{"duration":0.2727269999999997,"midi":49,"time":18.1363455,"velocity":0.3937007874015748},{"duration":0.2727269999999997,"midi":49,"time":18.1363455,"velocity":0.3937007874015748},{"duration":0.2727269999999997,"midi":49,"time":18.1363455,"velocity":0.3937007874015748},{"duration":0.2727269999999997,"midi":49,"time":18.1363455,"velocity":0.3937007874015748},{"duration":0.2727269999999997,"midi":49,"time":18.1363455,"velocity":0.3937007874015748},{"duration":0.2727269999999997,"midi":49,"time":18.1363455,"velocity":0.3937007874015748},{"duration":0.2727269999999997,"midi":49,"time":18.1363455,"velocity":0.3937007874015748},{"duration":0.2727269999999997,"midi":49,"time":18.1363455,"velocity":0.3937007874015748},{"duration":0.2727269999999997,"midi":49,"time":18.1363455,"velocity":0.3937007874015748},{"duration":0.2727269999999997,"midi":49,"time":18.1363455,"velocity":0.3937007874015748},{"duration":0.2727269999999997,"midi":49,"time":18.1363455,"velocity":0.3937007874015748},{"duration":0.2727269999999997,"midi":49,"time":18.1363455,"velocity":0.3937007874015748},{"duration":0.2727269999999997,"midi":49,"time":18.1363455,"velocity":0.3937007874015748},{"duration":0.2727269999999997,"midi":49,"time":18.1363455,"velocity":0.3937007874015748},{"duration":0.2727269999999997,"midi":49,"time":18.1363455,"velocity":0.3937007874015748},{"duration":0.2727269999999997,"midi":49,"time":18.1363455,"velocity":0.3937007874015748},{"duration":0.2727269999999997,"midi":49,"time":18.1363455,"velocity":0.3937007874015748},{"duration":0.2727269999999997,"midi":49,"time":18.1363455,"velocity":0.3937007874015748},{"duration":0.2727269999999997,"midi":49,"time":18.1363455,"velocity":0.3937007874015748},{"duration":0.2727269999999997,"midi":49,"time":18.1363455,"velocity":0.3937007874015748},{"duration":0.2727269999999997,"midi":49,"time":18.1363455,"velocity":0.3937007874015748},{"duration":0.2727269999999997,"midi":49,"time":18.1363455,"velocity":0.3937007874015748},{"duration":0.2727269999999997,"midi":49,"time":18.1363455,"velocity":0.3937007874015748},{"duration":0.2727269999999997,"midi":49,"time":18.1363455,"velocity":0.3937007874015748},{"duration":0.2727269999999997,"midi":50,"time":18.4090725,"velocity":0.3937007874015748},{"duration":0.2727269999999997,"midi":50,"time":18.4090725,"velocity":0.3937007874015748},{"duration":0.2727269999999997,"midi":50,"time":18.4090725,"velocity":0.3937007874015748},{"duration":0.2727269999999997,"midi":50,"time":18.4090725,"velocity":0.3937007874015748},{"duration":0.2727269999999997,"midi":50,"time":18.4090725,"velocity":0.3937007874015748},{"duration":0.2727269999999997,"midi":50,"time":18.4090725,"velocity":0.3937007874015748},{"duration":0.2727269999999997,"midi":50,"time":18.4090725,"velocity":0.3937007874015748},{"duration":0.2727269999999997,"midi":50,"time":18.4090725,"velocity":0.3937007874015748},{"duration":0.2727269999999997,"midi":50,"time":18.4090725,"velocity":0.3937007874015748},{"duration":0.2727269999999997,"midi":50,"time":18.4090725,"velocity":0.3937007874015748},{"duration":0.2727269999999997,"midi":50,"time":18.4090725,"velocity":0.3937007874015748},{"duration":0.2727269999999997,"midi":50,"time":18.4090725,"velocity":0.3937007874015748},{"duration":0.2727269999999997,"midi":50,"time":18.4090725,"velocity":0.3937007874015748},{"duration":0.2727269999999997,"midi":50,"time":18.4090725,"velocity":0.3937007874015748},{"duration":0.2727269999999997,"midi":50,"time":18.4090725,"velocity":0.3937007874015748},{"duration":0.2727269999999997,"midi":50,"time":18.4090725,"velocity":0.3937007874015748},{"duration":0.2727269999999997,"midi":53,"time":18.6817995,"velocity":0.3937007874015748},{"duration":0.2727269999999997,"midi":53,"time":18.6817995,"velocity":0.3937007874015748},{"duration":0.2727269999999997,"midi":53,"time":18.6817995,"velocity":0.3937007874015748},{"duration":0.2727269999999997,"midi":53,"time":18.6817995,"velocity":0.3937007874015748},{"duration":0.2727269999999997,"midi":53,"time":18.6817995,"velocity":0.3937007874015748},{"duration":0.2727269999999997,"midi":53,"time":18.6817995,"velocity":0.3937007874015748},{"duration":0.2727269999999997,"midi":53,"time":18.6817995,"velocity":0.3937007874015748},{"duration":0.2727269999999997,"midi":53,"time":18.6817995,"velocity":0.3937007874015748},{"duration":0.2727269999999997,"midi":50,"time":18.9545265,"velocity":0.3937007874015748},{"duration":0.2727269999999997,"midi":50,"time":18.9545265,"velocity":0.3937007874015748},{"duration":0.2727269999999997,"midi":50,"time":18.9545265,"velocity":0.3937007874015748},{"duration":0.2727269999999997,"midi":50,"time":18.9545265,"velocity":0.3937007874015748},{"duration":0.2727269999999997,"midi":50,"time":21.1363425,"velocity":0.3937007874015748},{"duration":0.2727269999999997,"midi":50,"time":21.1363425,"velocity":0.3937007874015748},{"duration":0.2727269999999997,"midi":50,"time":21.1363425,"velocity":0.3937007874015748},{"duration":0.2727269999999997,"midi":50,"time":21.1363425,"velocity":0.3937007874015748},{"duration":0.2727269999999997,"midi":50,"time":21.1363425,"velocity":0.3937007874015748},{"duration":0.2727269999999997,"midi":50,"time":21.1363425,"velocity":0.3937007874015748},{"duration":0.2727269999999997,"midi":50,"time":21.1363425,"velocity":0.3937007874015748},{"duration":0.2727269999999997,"midi":50,"time":21.1363425,"velocity":0.3937007874015748},{"duration":0.2727269999999997,"midi":50,"time":21.1363425,"velocity":0.3937007874015748},{"duration":0.2727269999999997,"midi":50,"time":21.1363425,"velocity":0.3937007874015748},{"duration":0.2727269999999997,"midi":50,"time":21.1363425,"velocity":0.3937007874015748},{"duration":0.2727269999999997,"midi":50,"time":21.1363425,"velocity":0.3937007874015748},{"duration":0.2727269999999997,"midi":50,"time":21.1363425,"velocity":0.3937007874015748},{"duration":0.2727269999999997,"midi":50,"time":21.1363425,"velocity":0.3937007874015748},{"duration":0.2727269999999997,"midi":50,"time":21.1363425,"velocity":0.3937007874015748},{"duration":0.2727269999999997,"midi":50,"time":21.1363425,"velocity":0.3937007874015748},{"duration":0.2727269999999997,"midi":50,"time":21.1363425,"velocity":0.3937007874015748},{"duration":0.2727269999999997,"midi":50,"time":21.1363425,"velocity":0.3937007874015748},{"duration":0.2727269999999997,"midi":50,"time":21.1363425,"velocity":0.3937007874015748},{"duration":0.2727269999999997,"midi":50,"time":21.1363425,"velocity":0.3937007874015748},{"duration":0.2727269999999997,"midi":50,"time":21.1363425,"velocity":0.3937007874015748},{"duration":0.2727269999999997,"midi":50,"time":21.1363425,"velocity":0.3937007874015748},{"duration":0.2727269999999997,"midi":50,"time":21.1363425,"velocity":0.3937007874015748},{"duration":0.2727269999999997,"midi":50,"time":21.1363425,"velocity":0.3937007874015748},{"duration":0.2727269999999997,"midi":50,"time":21.1363425,"velocity":0.3937007874015748},{"duration":0.2727269999999997,"midi":50,"time":21.1363425,"velocity":0.3937007874015748},{"duration":0.2727269999999997,"midi":50,"time":21.1363425,"velocity":0.3937007874015748},{"duration":0.2727269999999997,"midi":50,"time":21.1363425,"velocity":0.3937007874015748},{"duration":0.2727269999999997,"midi":50,"time":21.1363425,"velocity":0.3937007874015748},{"duration":0.2727269999999997,"midi":50,"time":21.1363425,"velocity":0.3937007874015748},{"duration":0.2727269999999997,"midi":50,"time":21.1363425,"velocity":0.3937007874015748},{"duration":0.2727269999999997,"midi":50,"time":21.1363425,"velocity":0.3937007874015748},{"duration":0.2727269999999997,"midi":48,"time":21.4090695,"velocity":0.3937007874015748},{"duration":0.2727269999999997,"midi":48,"time":21.4090695,"velocity":0.3937007874015748},{"duration":0.2727269999999997,"midi":48,"time":21.4090695,"velocity":0.3937007874015748},{"duration":0.2727269999999997,"midi":48,"time":21.4090695,"velocity":0.3937007874015748},{"duration":0.2727269999999997,"midi":48,"time":21.4090695,"velocity":0.3937007874015748},{"duration":0.2727269999999997,"midi":48,"time":21.4090695,"velocity":0.3937007874015748},{"duration":0.2727269999999997,"midi":48,"time":21.4090695,"velocity":0.3937007874015748},{"duration":0.2727269999999997,"midi":48,"time":21.4090695,"velocity":0.3937007874015748},{"duration":0.2727269999999997,"midi":48,"time":21.4090695,"velocity":0.3937007874015748},{"duration":0.2727269999999997,"midi":48,"time":21.4090695,"velocity":0.3937007874015748},{"duration":0.2727269999999997,"midi":48,"time":21.4090695,"velocity":0.3937007874015748},{"duration":0.2727269999999997,"midi":48,"time":21.4090695,"velocity":0.3937007874015748},{"duration":0.2727269999999997,"midi":48,"time":21.4090695,"velocity":0.3937007874015748},{"duration":0.2727269999999997,"midi":48,"time":21.4090695,"velocity":0.3937007874015748},{"duration":0.2727269999999997,"midi":48,"time":21.4090695,"velocity":0.3937007874015748},{"duration":0.2727269999999997,"midi":48,"time":21.4090695,"velocity":0.3937007874015748},{"duration":0.2727269999999997,"midi":46,"time":21.6817965,"velocity":0.3937007874015748},{"duration":0.2727269999999997,"midi":46,"time":21.6817965,"velocity":0.3937007874015748},{"duration":0.2727269999999997,"midi":46,"time":21.6817965,"velocity":0.3937007874015748},{"duration":0.2727269999999997,"midi":46,"time":21.6817965,"velocity":0.3937007874015748},{"duration":0.2727269999999997,"midi":46,"time":21.6817965,"velocity":0.3937007874015748},{"duration":0.2727269999999997,"midi":46,"time":21.6817965,"velocity":0.3937007874015748},{"duration":0.2727269999999997,"midi":46,"time":21.6817965,"velocity":0.3937007874015748},{"duration":0.2727269999999997,"midi":46,"time":21.6817965,"velocity":0.3937007874015748},{"duration":1.0909079999999989,"midi":49,"time":21.9545235,"velocity":0.3937007874015748},{"duration":1.0909079999999989,"midi":49,"time":21.9545235,"velocity":0.3937007874015748},{"duration":1.0909079999999989,"midi":49,"time":21.9545235,"velocity":0.3937007874015748},{"duration":1.0909079999999989,"midi":49,"time":21.9545235,"velocity":0.3937007874015748},{"duration":0.2727269999999997,"midi":43,"time":26.3181555,"velocity":0.3937007874015748},{"duration":0.2727269999999997,"midi":43,"time":26.3181555,"velocity":0.3937007874015748},{"duration":0.2727269999999997,"midi":43,"time":26.3181555,"velocity":0.3937007874015748},{"duration":0.2727269999999997,"midi":43,"time":26.3181555,"velocity":0.3937007874015748},{"duration":0.2727269999999997,"midi":43,"time":26.3181555,"velocity":0.3937007874015748},{"duration":0.2727269999999997,"midi":43,"time":26.3181555,"velocity":0.3937007874015748},{"duration":0.2727269999999997,"midi":43,"time":26.3181555,"velocity":0.3937007874015748},{"duration":0.2727269999999997,"midi":43,"time":26.3181555,"velocity":0.3937007874015748},{"duration":0.2727269999999997,"midi":50,"time":26.5908825,"velocity":0.3937007874015748},{"duration":0.2727269999999997,"midi":50,"time":26.5908825,"velocity":0.3937007874015748},{"duration":0.2727269999999997,"midi":50,"time":26.5908825,"velocity":0.3937007874015748},{"duration":0.2727269999999997,"midi":50,"time":26.5908825,"velocity":0.3937007874015748},{"duration":0.2727269999999997,"midi":50,"time":26.5908825,"velocity":0.3937007874015748},{"duration":0.2727269999999997,"midi":50,"time":26.5908825,"velocity":0.3937007874015748},{"duration":0.2727269999999997,"midi":50,"time":26.5908825,"velocity":0.3937007874015748},{"duration":0.2727269999999997,"midi":50,"time":26.5908825,"velocity":0.3937007874015748},{"duration":0.2727269999999997,"midi":49,"time":26.8636095,"velocity":0.3937007874015748},{"duration":0.2727269999999997,"midi":49,"time":26.8636095,"velocity":0.3937007874015748},{"duration":0.2727269999999997,"midi":49,"time":26.8636095,"velocity":0.3937007874015748},{"duration":0.2727269999999997,"midi":49,"time":26.8636095,"velocity":0.3937007874015748},{"duration":0.2727269999999997,"midi":49,"time":26.8636095,"velocity":0.3937007874015748},{"duration":0.2727269999999997,"midi":49,"time":26.8636095,"velocity":0.3937007874015748},{"duration":0.2727269999999997,"midi":49,"time":26.8636095,"velocity":0.3937007874015748},{"duration":0.2727269999999997,"midi":49,"time":26.8636095,"velocity":0.3937007874015748},{"duration":0.2727269999999997,"midi":50,"time":27.1363365,"velocity":0.3937007874015748},{"duration":0.2727269999999997,"midi":50,"time":27.1363365,"velocity":0.3937007874015748},{"duration":0.2727269999999997,"midi":50,"time":27.1363365,"velocity":0.3937007874015748},{"duration":0.2727269999999997,"midi":50,"time":27.1363365,"velocity":0.3937007874015748},{"duration":0.2727269999999997,"midi":53,"time":27.4090635,"velocity":0.3937007874015748},{"duration":0.2727269999999997,"midi":53,"time":27.4090635,"velocity":0.3937007874015748},{"duration":0.2727270000000033,"midi":50,"time":27.681790499999998,"velocity":0.3937007874015748},{"duration":0.2727269999999997,"midi":43,"time":30.6817875,"velocity":0.3937007874015748},{"duration":0.2727269999999997,"midi":43,"time":30.6817875,"velocity":0.3937007874015748},{"duration":0.2727269999999997,"midi":43,"time":30.6817875,"velocity":0.3937007874015748},{"duration":0.2727269999999997,"midi":43,"time":30.6817875,"velocity":0.3937007874015748},{"duration":0.2727269999999997,"midi":43,"time":30.6817875,"velocity":0.3937007874015748},{"duration":0.2727269999999997,"midi":43,"time":30.6817875,"velocity":0.3937007874015748},{"duration":0.2727269999999997,"midi":43,"time":30.6817875,"velocity":0.3937007874015748},{"duration":0.2727269999999997,"midi":43,"time":30.6817875,"velocity":0.3937007874015748},{"duration":0.2727269999999997,"midi":50,"time":30.9545145,"velocity":0.3937007874015748},{"duration":0.2727269999999997,"midi":50,"time":30.9545145,"velocity":0.3937007874015748},{"duration":0.2727269999999997,"midi":50,"time":30.9545145,"velocity":0.3937007874015748},{"duration":0.2727269999999997,"midi":50,"time":30.9545145,"velocity":0.3937007874015748},{"duration":0.2727269999999997,"midi":50,"time":30.9545145,"velocity":0.3937007874015748},{"duration":0.2727269999999997,"midi":50,"time":30.9545145,"velocity":0.3937007874015748},{"duration":0.2727269999999997,"midi":50,"time":30.9545145,"velocity":0.3937007874015748},{"duration":0.2727269999999997,"midi":50,"time":30.9545145,"velocity":0.3937007874015748},{"duration":0.2727270000000033,"midi":49,"time":31.227241499999998,"velocity":0.3937007874015748},{"duration":0.2727270000000033,"midi":49,"time":31.227241499999998,"velocity":0.3937007874015748},{"duration":0.2727270000000033,"midi":49,"time":31.227241499999998,"velocity":0.3937007874015748},{"duration":0.2727270000000033,"midi":49,"time":31.227241499999998,"velocity":0.3937007874015748},{"duration":0.2727270000000033,"midi":49,"time":31.227241499999998,"velocity":0.3937007874015748},{"duration":0.2727270000000033,"midi":49,"time":31.227241499999998,"velocity":0.3937007874015748},{"duration":0.2727270000000033,"midi":49,"time":31.227241499999998,"velocity":0.3937007874015748},{"duration":0.2727270000000033,"midi":49,"time":31.227241499999998,"velocity":0.3937007874015748},{"duration":0.2727269999999997,"midi":50,"time":31.4999685,"velocity":0.3937007874015748},{"duration":0.2727269999999997,"midi":50,"time":31.4999685,"velocity":0.3937007874015748},{"duration":0.2727269999999997,"midi":50,"time":31.4999685,"velocity":0.3937007874015748},{"duration":0.2727269999999997,"midi":50,"time":31.4999685,"velocity":0.3937007874015748},{"duration":0.2727269999999997,"midi":53,"time":31.7726955,"velocity":0.3937007874015748},{"duration":0.2727269999999997,"midi":53,"time":31.7726955,"velocity":0.3937007874015748},{"duration":0.27272699999999617,"midi":50,"time":32.0454225,"velocity":0.3937007874015748},{"duration":0.27272699999999617,"midi":67,"time":35.0454195,"velocity":0.3937007874015748},{"duration":0.27272699999999617,"midi":62,"time":35.0454195,"velocity":0.3937007874015748},{"duration":0.27272699999999617,"midi":50,"time":35.0454195,"velocity":0.3937007874015748},{"duration":0.27272699999999617,"midi":55,"time":35.0454195,"velocity":0.3937007874015748},{"duration":0.27272699999999617,"midi":43,"time":35.0454195,"velocity":0.3937007874015748},{"duration":0.27272699999999617,"midi":38,"time":35.0454195,"velocity":0.3937007874015748},{"duration":0.27272699999999617,"midi":67,"time":35.5908735,"velocity":0.3937007874015748},{"duration":0.27272699999999617,"midi":62,"time":35.5908735,"velocity":0.3937007874015748},{"duration":0.27272699999999617,"midi":55,"time":35.5908735,"velocity":0.3937007874015748},{"duration":0.27272699999999617,"midi":50,"time":35.5908735,"velocity":0.3937007874015748},{"duration":0.27272699999999617,"midi":43,"time":35.5908735,"velocity":0.3937007874015748},{"duration":0.27272699999999617,"midi":38,"time":35.5908735,"velocity":0.3937007874015748},{"duration":0.27272699999999617,"midi":43,"time":36.1363275,"velocity":0.3937007874015748},{"duration":0.27272699999999617,"midi":50,"time":36.1363275,"velocity":0.3937007874015748},{"duration":0.27272699999999617,"midi":38,"time":36.1363275,"velocity":0.3937007874015748},{"duration":0.27272699999999617,"midi":67,"time":36.1363275,"velocity":0.3937007874015748},{"duration":0.27272699999999617,"midi":62,"time":36.1363275,"velocity":0.3937007874015748},{"duration":0.27272699999999617,"midi":55,"time":36.1363275,"velocity":0.3937007874015748},{"duration":0.2727270000000033,"midi":38,"time":36.6817815,"velocity":0.3937007874015748},{"duration":0.2727270000000033,"midi":43,"time":36.6817815,"velocity":0.3937007874015748},{"duration":0.2727270000000033,"midi":50,"time":36.6817815,"velocity":0.3937007874015748},{"duration":0.2727270000000033,"midi":67,"time":36.6817815,"velocity":0.3937007874015748},{"duration":0.2727270000000033,"midi":55,"time":36.6817815,"velocity":0.3937007874015748},{"duration":0.2727270000000033,"midi":62,"time":36.6817815,"velocity":0.3937007874015748},{"duration":0.2727270000000033,"midi":70,"time":37.2272355,"velocity":0.3937007874015748},{"duration":0.2727270000000033,"midi":65,"time":37.2272355,"velocity":0.3937007874015748},{"duration":0.2727270000000033,"midi":58,"time":37.2272355,"velocity":0.3937007874015748},{"duration":0.2727270000000033,"midi":41,"time":37.2272355,"velocity":0.3937007874015748},{"duration":0.2727270000000033,"midi":53,"time":37.2272355,"velocity":0.3937007874015748},{"duration":0.2727270000000033,"midi":46,"time":37.2272355,"velocity":0.3937007874015748},{"duration":0.2727270000000033,"midi":41,"time":37.7726895,"velocity":0.3937007874015748},{"duration":0.2727270000000033,"midi":70,"time":37.7726895,"velocity":0.3937007874015748},{"duration":0.2727270000000033,"midi":65,"time":37.7726895,"velocity":0.3937007874015748},{"duration":0.2727270000000033,"midi":58,"time":37.7726895,"velocity":0.3937007874015748},{"duration":0.2727270000000033,"midi":53,"time":37.7726895,"velocity":0.3937007874015748},{"duration":0.2727270000000033,"midi":46,"time":37.7726895,"velocity":0.3937007874015748},{"duration":0.2727270000000033,"midi":46,"time":38.3181435,"velocity":0.3937007874015748},{"duration":0.2727270000000033,"midi":58,"time":38.3181435,"velocity":0.3937007874015748},{"duration":0.2727270000000033,"midi":70,"time":38.3181435,"velocity":0.3937007874015748},{"duration":0.2727270000000033,"midi":65,"time":38.3181435,"velocity":0.3937007874015748},{"duration":0.2727270000000033,"midi":41,"time":38.3181435,"velocity":0.3937007874015748},{"duration":0.2727270000000033,"midi":53,"time":38.3181435,"velocity":0.3937007874015748},{"duration":0.2727270000000033,"midi":41,"time":38.8635975,"velocity":0.3937007874015748},{"duration":0.2727270000000033,"midi":65,"time":38.8635975,"velocity":0.3937007874015748},{"duration":0.2727270000000033,"midi":53,"time":38.8635975,"velocity":0.3937007874015748},{"duration":0.2727270000000033,"midi":70,"time":38.8635975,"velocity":0.3937007874015748},{"duration":0.2727270000000033,"midi":58,"time":38.8635975,"velocity":0.3937007874015748},{"duration":0.2727270000000033,"midi":46,"time":38.8635975,"velocity":0.3937007874015748},{"duration":0.2727270000000033,"midi":45,"time":39.4090515,"velocity":0.3937007874015748},{"duration":0.2727270000000033,"midi":52,"time":39.4090515,"velocity":0.3937007874015748},{"duration":0.2727270000000033,"midi":40,"time":39.4090515,"velocity":0.3937007874015748},{"duration":0.2727270000000033,"midi":69,"time":39.4090515,"velocity":0.3937007874015748},{"duration":0.2727270000000033,"midi":57,"time":39.4090515,"velocity":0.3937007874015748},{"duration":0.2727270000000033,"midi":64,"time":39.4090515,"velocity":0.3937007874015748},{"duration":0.2727270000000033,"midi":45,"time":39.954505499999996,"velocity":0.3937007874015748},{"duration":0.2727270000000033,"midi":40,"time":39.954505499999996,"velocity":0.3937007874015748},{"duration":0.2727270000000033,"midi":57,"time":39.954505499999996,"velocity":0.3937007874015748},{"duration":0.2727270000000033,"midi":52,"time":39.954505499999996,"velocity":0.3937007874015748},{"duration":0.2727270000000033,"midi":69,"time":39.954505499999996,"velocity":0.3937007874015748},{"duration":0.2727270000000033,"midi":64,"time":39.954505499999996,"velocity":0.3937007874015748},{"duration":0.27272699999999617,"midi":40,"time":40.4999595,"velocity":0.3937007874015748},{"duration":0.27272699999999617,"midi":45,"time":40.4999595,"velocity":0.3937007874015748},{"duration":0.27272699999999617,"midi":52,"time":40.4999595,"velocity":0.3937007874015748},{"duration":0.27272699999999617,"midi":69,"time":40.4999595,"velocity":0.3937007874015748},{"duration":0.27272699999999617,"midi":64,"time":40.4999595,"velocity":0.3937007874015748},{"duration":0.27272699999999617,"midi":57,"time":40.4999595,"velocity":0.3937007874015748},{"duration":0.27272699999999617,"midi":64,"time":41.0454135,"velocity":0.3937007874015748},{"duration":0.27272699999999617,"midi":57,"time":41.0454135,"velocity":0.3937007874015748},{"duration":0.27272699999999617,"midi":40,"time":41.0454135,"velocity":0.3937007874015748},{"duration":0.27272699999999617,"midi":52,"time":41.0454135,"velocity":0.3937007874015748},{"duration":0.27272699999999617,"midi":45,"time":41.0454135,"velocity":0.3937007874015748},{"duration":0.27272699999999617,"midi":69,"time":41.0454135,"velocity":0.3937007874015748},{"duration":0.27272699999999617,"midi":38,"time":41.5908675,"velocity":0.3937007874015748},{"duration":0.27272699999999617,"midi":43,"time":41.5908675,"velocity":0.3937007874015748},{"duration":0.27272699999999617,"midi":62,"time":41.5908675,"velocity":0.3937007874015748},{"duration":0.27272699999999617,"midi":67,"time":41.5908675,"velocity":0.3937007874015748},{"duration":0.27272699999999617,"midi":55,"time":41.5908675,"velocity":0.3937007874015748},{"duration":0.27272699999999617,"midi":50,"time":41.5908675,"velocity":0.3937007874015748},{"duration":0.27272699999999617,"midi":62,"time":42.1363215,"velocity":0.3937007874015748},{"duration":0.27272699999999617,"midi":67,"time":42.1363215,"velocity":0.3937007874015748},{"duration":0.27272699999999617,"midi":55,"time":42.1363215,"velocity":0.3937007874015748},{"duration":0.27272699999999617,"midi":50,"time":42.1363215,"velocity":0.3937007874015748},{"duration":0.27272699999999617,"midi":38,"time":42.1363215,"velocity":0.3937007874015748},{"duration":0.27272699999999617,"midi":43,"time":42.1363215,"velocity":0.3937007874015748},{"duration":0.27272699999999617,"midi":38,"time":42.6817755,"velocity":0.3937007874015748},{"duration":0.27272699999999617,"midi":43,"time":42.6817755,"velocity":0.3937007874015748},{"duration":0.27272699999999617,"midi":67,"time":42.6817755,"velocity":0.3937007874015748},{"duration":0.27272699999999617,"midi":62,"time":42.6817755,"velocity":0.3937007874015748},{"duration":0.27272699999999617,"midi":50,"time":42.6817755,"velocity":0.3937007874015748},{"duration":0.27272699999999617,"midi":55,"time":42.6817755,"velocity":0.3937007874015748},{"duration":0.27272699999999617,"midi":55,"time":43.2272295,"velocity":0.3937007874015748},{"duration":0.27272699999999617,"midi":50,"time":43.2272295,"velocity":0.3937007874015748},{"duration":0.27272699999999617,"midi":67,"time":43.2272295,"velocity":0.3937007874015748},{"duration":0.27272699999999617,"midi":43,"time":43.2272295,"velocity":0.3937007874015748},{"duration":0.27272699999999617,"midi":38,"time":43.2272295,"velocity":0.3937007874015748},{"duration":0.27272699999999617,"midi":62,"time":43.2272295,"velocity":0.3937007874015748}]},{"instrument":{"family":"strings","number":45,"name":"pizzicato strings"},"notes":[{"duration":0.1363635,"midi":58,"time":0.1363635,"velocity":0.3937007874015748},{"duration":0.27272700000000005,"midi":61,"time":0.1363635,"velocity":0.3937007874015748},{"duration":0.27272700000000005,"midi":61,"time":0.1363635,"velocity":0.3937007874015748},{"duration":0.1363635,"midi":58,"time":0.1363635,"velocity":0.3937007874015748},{"duration":0.1363635,"midi":58,"time":0.1363635,"velocity":0.3937007874015748},{"duration":0.27272699999999994,"midi":62,"time":0.4090905,"velocity":0.3937007874015748},{"duration":0.27272699999999994,"midi":62,"time":0.4090905,"velocity":0.3937007874015748},{"duration":0.27272700000000005,"midi":61,"time":0.6818175,"velocity":0.3937007874015748},{"duration":0.13636350000000008,"midi":55,"time":0.6818175,"velocity":0.3937007874015748},{"duration":0.13636350000000008,"midi":55,"time":0.6818175,"velocity":0.3937007874015748},{"duration":0.27272700000000005,"midi":61,"time":0.6818175,"velocity":0.3937007874015748},{"duration":0.27272700000000005,"midi":62,"time":0.9545445,"velocity":0.3937007874015748},{"duration":0.27272700000000005,"midi":62,"time":0.9545445,"velocity":0.3937007874015748},{"duration":0.27272699999999994,"midi":58,"time":1.2272715,"velocity":0.3937007874015748},{"duration":0.27272699999999994,"midi":58,"time":1.2272715,"velocity":0.3937007874015748},{"duration":0.27272699999999994,"midi":55,"time":1.4999985,"velocity":0.3937007874015748},{"duration":0.27272699999999994,"midi":55,"time":1.4999985,"velocity":0.3937007874015748},{"duration":0.27272699999999994,"midi":55,"time":1.4999985,"velocity":0.3937007874015748},{"duration":0.27272700000000016,"midi":55,"time":1.7727255,"velocity":0.3937007874015748},{"duration":0.27272700000000016,"midi":55,"time":1.7727255,"velocity":0.3937007874015748},{"duration":0.2727269999999997,"midi":55,"time":2.0454525,"velocity":0.3937007874015748},{"duration":0.27272700000000016,"midi":58,"time":2.3181795,"velocity":0.3937007874015748},{"duration":0.27272700000000016,"midi":58,"time":2.3181795,"velocity":0.3937007874015748},{"duration":0.27272700000000016,"midi":55,"time":2.5909065,"velocity":0.3937007874015748},{"duration":0.27272700000000016,"midi":55,"time":2.5909065,"velocity":0.3937007874015748},{"duration":0.27272700000000016,"midi":55,"time":2.5909065,"velocity":0.3937007874015748},{"duration":0.2727269999999997,"midi":55,"time":2.8636335,"velocity":0.3937007874015748},{"duration":0.2727269999999997,"midi":55,"time":2.8636335,"velocity":0.3937007874015748},{"duration":0.27272700000000016,"midi":55,"time":3.1363605,"velocity":0.3937007874015748},{"duration":0.2727269999999997,"midi":62,"time":3.4090875,"velocity":0.3937007874015748},{"duration":0.2727269999999997,"midi":62,"time":3.4090875,"velocity":0.3937007874015748},{"duration":0.27272700000000016,"midi":55,"time":3.6818144999999998,"velocity":0.3937007874015748},{"duration":0.27272700000000016,"midi":55,"time":3.6818144999999998,"velocity":0.3937007874015748},{"duration":0.27272700000000016,"midi":55,"time":3.6818144999999998,"velocity":0.3937007874015748},{"duration":0.27272700000000016,"midi":55,"time":3.9545415,"velocity":0.3937007874015748},{"duration":0.27272700000000016,"midi":55,"time":3.9545415,"velocity":0.3937007874015748},{"duration":0.2727269999999997,"midi":55,"time":4.2272685,"velocity":0.3937007874015748},{"duration":0.2727269999999997,"midi":61,"time":4.4999955,"velocity":0.3937007874015748},{"duration":0.13636349999999986,"midi":58,"time":4.4999955,"velocity":0.3937007874015748},{"duration":0.2727269999999997,"midi":61,"time":4.4999955,"velocity":0.3937007874015748},{"duration":0.13636349999999986,"midi":58,"time":4.4999955,"velocity":0.3937007874015748},{"duration":0.13636349999999986,"midi":58,"time":4.4999955,"velocity":0.3937007874015748},{"duration":0.2727270000000006,"midi":62,"time":4.7727224999999995,"velocity":0.3937007874015748},{"duration":0.2727270000000006,"midi":62,"time":4.7727224999999995,"velocity":0.3937007874015748},{"duration":0.13636349999999986,"midi":55,"time":5.0454495,"velocity":0.3937007874015748},{"duration":0.2727269999999997,"midi":61,"time":5.0454495,"velocity":0.3937007874015748},{"duration":0.13636349999999986,"midi":55,"time":5.0454495,"velocity":0.3937007874015748},{"duration":0.2727269999999997,"midi":61,"time":5.0454495,"velocity":0.3937007874015748},{"duration":0.2727269999999997,"midi":62,"time":5.3181765,"velocity":0.3937007874015748},{"duration":0.2727269999999997,"midi":62,"time":5.3181765,"velocity":0.3937007874015748},{"duration":0.2727270000000006,"midi":58,"time":5.5909035,"velocity":0.3937007874015748},{"duration":0.2727270000000006,"midi":58,"time":5.5909035,"velocity":0.3937007874015748},{"duration":0.2727269999999997,"midi":55,"time":5.8636305,"velocity":0.3937007874015748},{"duration":0.2727269999999997,"midi":55,"time":5.8636305,"velocity":0.3937007874015748},{"duration":0.2727269999999997,"midi":55,"time":5.8636305,"velocity":0.3937007874015748},{"duration":0.2727269999999997,"midi":55,"time":6.1363575,"velocity":0.3937007874015748},{"duration":0.2727269999999997,"midi":55,"time":6.1363575,"velocity":0.3937007874015748},{"duration":0.2727270000000006,"midi":55,"time":6.4090845,"velocity":0.3937007874015748},{"duration":0.2727269999999997,"midi":58,"time":6.6818115,"velocity":0.3937007874015748},{"duration":0.2727269999999997,"midi":58,"time":6.6818115,"velocity":0.3937007874015748},{"duration":0.2727269999999997,"midi":55,"time":6.9545385,"velocity":0.3937007874015748},{"duration":0.2727269999999997,"midi":55,"time":6.9545385,"velocity":0.3937007874015748},{"duration":0.2727269999999997,"midi":55,"time":6.9545385,"velocity":0.3937007874015748},{"duration":0.2727270000000006,"midi":55,"time":7.2272655,"velocity":0.3937007874015748},{"duration":0.2727270000000006,"midi":55,"time":7.2272655,"velocity":0.3937007874015748},{"duration":0.2727269999999997,"midi":55,"time":7.4999925,"velocity":0.3937007874015748},{"duration":0.2727270000000006,"midi":62,"time":7.7727195,"velocity":0.3937007874015748},{"duration":0.2727270000000006,"midi":62,"time":7.7727195,"velocity":0.3937007874015748},{"duration":0.2727269999999997,"midi":55,"time":8.0454465,"velocity":0.3937007874015748},{"duration":0.2727269999999997,"midi":55,"time":8.0454465,"velocity":0.3937007874015748},{"duration":0.2727269999999997,"midi":55,"time":8.0454465,"velocity":0.3937007874015748},{"duration":0.2727269999999997,"midi":55,"time":8.3181735,"velocity":0.3937007874015748},{"duration":0.2727269999999997,"midi":55,"time":8.3181735,"velocity":0.3937007874015748},{"duration":0.2727269999999997,"midi":55,"time":8.5909005,"velocity":0.3937007874015748},{"duration":0.13636349999999986,"midi":58,"time":8.8636275,"velocity":0.3937007874015748},{"duration":0.13636349999999986,"midi":58,"time":8.8636275,"velocity":0.3937007874015748},{"duration":0.13636349999999986,"midi":58,"time":8.8636275,"velocity":0.3937007874015748},{"duration":0.13636349999999986,"midi":58,"time":8.8636275,"velocity":0.3937007874015748},{"duration":0.13636349999999986,"midi":58,"time":8.8636275,"velocity":0.3937007874015748},{"duration":0.2727269999999997,"midi":61,"time":8.8636275,"velocity":0.3937007874015748},{"duration":0.2727269999999997,"midi":61,"time":8.8636275,"velocity":0.3937007874015748},{"duration":0.2727269999999997,"midi":61,"time":8.8636275,"velocity":0.3937007874015748},{"duration":0.2727269999999997,"midi":61,"time":8.8636275,"velocity":0.3937007874015748},{"duration":0.13636349999999986,"midi":58,"time":8.8636275,"velocity":0.3937007874015748},{"duration":0.2727269999999997,"midi":62,"time":9.1363545,"velocity":0.3937007874015748},{"duration":0.2727269999999997,"midi":62,"time":9.1363545,"velocity":0.3937007874015748},{"duration":0.2727269999999997,"midi":62,"time":9.1363545,"velocity":0.3937007874015748},{"duration":0.2727269999999997,"midi":62,"time":9.1363545,"velocity":0.3937007874015748},{"duration":0.2727270000000015,"midi":61,"time":9.4090815,"velocity":0.3937007874015748},{"duration":0.2727270000000015,"midi":61,"time":9.4090815,"velocity":0.3937007874015748},{"duration":0.13636349999999986,"midi":55,"time":9.4090815,"velocity":0.3937007874015748},{"duration":0.13636349999999986,"midi":55,"time":9.4090815,"velocity":0.3937007874015748},{"duration":0.2727270000000015,"midi":61,"time":9.4090815,"velocity":0.3937007874015748},{"duration":0.13636349999999986,"midi":55,"time":9.4090815,"velocity":0.3937007874015748},{"duration":0.13636349999999986,"midi":55,"time":9.4090815,"velocity":0.3937007874015748},{"duration":0.2727270000000015,"midi":61,"time":9.4090815,"velocity":0.3937007874015748},{"duration":0.2727269999999997,"midi":62,"time":9.6818085,"velocity":0.3937007874015748},{"duration":0.2727269999999997,"midi":62,"time":9.6818085,"velocity":0.3937007874015748},{"duration":0.2727269999999997,"midi":62,"time":9.6818085,"velocity":0.3937007874015748},{"duration":0.2727269999999997,"midi":62,"time":9.6818085,"velocity":0.3937007874015748},{"duration":0.13636349999999986,"midi":61,"time":9.9545355,"velocity":0.3937007874015748},{"duration":0.2727269999999997,"midi":58,"time":9.9545355,"velocity":0.3937007874015748},{"duration":0.13636349999999986,"midi":61,"time":9.9545355,"velocity":0.3937007874015748},{"duration":0.13636349999999986,"midi":61,"time":9.9545355,"velocity":0.3937007874015748},{"duration":0.2727269999999997,"midi":58,"time":9.9545355,"velocity":0.3937007874015748},{"duration":0.2727269999999997,"midi":58,"time":9.9545355,"velocity":0.3937007874015748},{"duration":0.13636349999999986,"midi":61,"time":9.9545355,"velocity":0.3937007874015748},{"duration":0.2727269999999997,"midi":58,"time":9.9545355,"velocity":0.3937007874015748},{"duration":0.13636349999999986,"midi":61,"time":9.9545355,"velocity":0.3937007874015748},{"duration":0.13636349999999986,"midi":61,"time":9.9545355,"velocity":0.3937007874015748},{"duration":0.2727269999999997,"midi":55,"time":10.2272625,"velocity":0.3937007874015748},{"duration":0.2727269999999997,"midi":55,"time":10.2272625,"velocity":0.3937007874015748},{"duration":0.13636349999999986,"midi":62,"time":10.2272625,"velocity":0.3937007874015748},{"duration":0.2727269999999997,"midi":55,"time":10.2272625,"velocity":0.3937007874015748},{"duration":0.2727269999999997,"midi":55,"time":10.2272625,"velocity":0.3937007874015748},{"duration":0.13636349999999986,"midi":62,"time":10.2272625,"velocity":0.3937007874015748},{"duration":0.2727269999999997,"midi":55,"time":10.2272625,"velocity":0.3937007874015748},{"duration":0.13636349999999986,"midi":62,"time":10.2272625,"velocity":0.3937007874015748},{"duration":0.13636349999999986,"midi":62,"time":10.2272625,"velocity":0.3937007874015748},{"duration":0.13636349999999986,"midi":62,"time":10.2272625,"velocity":0.3937007874015748},{"duration":0.2727269999999997,"midi":55,"time":10.2272625,"velocity":0.3937007874015748},{"duration":0.13636349999999986,"midi":62,"time":10.2272625,"velocity":0.3937007874015748},{"duration":0.13636349999999986,"midi":70,"time":10.4999895,"velocity":0.3937007874015748},{"duration":0.13636349999999986,"midi":70,"time":10.4999895,"velocity":0.3937007874015748},{"duration":0.2727269999999997,"midi":55,"time":10.4999895,"velocity":0.3937007874015748},{"duration":0.13636349999999986,"midi":70,"time":10.4999895,"velocity":0.3937007874015748},{"duration":0.2727269999999997,"midi":55,"time":10.4999895,"velocity":0.3937007874015748},{"duration":0.13636349999999986,"midi":70,"time":10.4999895,"velocity":0.3937007874015748},{"duration":0.13636349999999986,"midi":70,"time":10.4999895,"velocity":0.3937007874015748},{"duration":0.2727269999999997,"midi":55,"time":10.4999895,"velocity":0.3937007874015748},{"duration":0.2727269999999997,"midi":55,"time":10.4999895,"velocity":0.3937007874015748},{"duration":0.13636349999999986,"midi":67,"time":10.7727165,"velocity":0.3937007874015748},{"duration":0.13636349999999986,"midi":67,"time":10.7727165,"velocity":0.3937007874015748},{"duration":0.2727269999999997,"midi":55,"time":10.7727165,"velocity":0.3937007874015748},{"duration":0.13636349999999986,"midi":67,"time":10.7727165,"velocity":0.3937007874015748},{"duration":0.13636349999999986,"midi":67,"time":10.7727165,"velocity":0.3937007874015748},{"duration":0.2727269999999997,"midi":55,"time":10.7727165,"velocity":0.3937007874015748},{"duration":0.13636349999999986,"midi":67,"time":10.7727165,"velocity":0.3937007874015748},{"duration":0.2727269999999997,"midi":58,"time":11.0454435,"velocity":0.3937007874015748},{"duration":0.2727269999999997,"midi":58,"time":11.0454435,"velocity":0.3937007874015748},{"duration":0.2727269999999997,"midi":58,"time":11.0454435,"velocity":0.3937007874015748},{"duration":0.2727269999999997,"midi":58,"time":11.0454435,"velocity":0.3937007874015748},{"duration":0.2727270000000015,"midi":55,"time":11.318170499999999,"velocity":0.3937007874015748},{"duration":0.2727270000000015,"midi":55,"time":11.318170499999999,"velocity":0.3937007874015748},{"duration":0.2727270000000015,"midi":55,"time":11.318170499999999,"velocity":0.3937007874015748},{"duration":0.2727270000000015,"midi":55,"time":11.318170499999999,"velocity":0.3937007874015748},{"duration":0.2727270000000015,"midi":55,"time":11.318170499999999,"velocity":0.3937007874015748},{"duration":0.2727270000000015,"midi":55,"time":11.318170499999999,"velocity":0.3937007874015748},{"duration":0.2727269999999997,"midi":55,"time":11.5908975,"velocity":0.3937007874015748},{"duration":0.2727269999999997,"midi":55,"time":11.5908975,"velocity":0.3937007874015748},{"duration":0.2727269999999997,"midi":55,"time":11.5908975,"velocity":0.3937007874015748},{"duration":0.2727269999999997,"midi":55,"time":11.5908975,"velocity":0.3937007874015748},{"duration":0.2727269999999997,"midi":55,"time":11.8636245,"velocity":0.3937007874015748},{"duration":0.2727269999999997,"midi":55,"time":11.8636245,"velocity":0.3937007874015748},{"duration":0.2727269999999997,"midi":62,"time":12.1363515,"velocity":0.3937007874015748},{"duration":0.2727269999999997,"midi":62,"time":12.1363515,"velocity":0.3937007874015748},{"duration":0.2727269999999997,"midi":62,"time":12.1363515,"velocity":0.3937007874015748},{"duration":0.2727269999999997,"midi":62,"time":12.1363515,"velocity":0.3937007874015748},{"duration":0.2727269999999997,"midi":55,"time":12.4090785,"velocity":0.3937007874015748},{"duration":0.2727269999999997,"midi":55,"time":12.4090785,"velocity":0.3937007874015748},{"duration":0.2727269999999997,"midi":55,"time":12.4090785,"velocity":0.3937007874015748},{"duration":0.2727269999999997,"midi":55,"time":12.4090785,"velocity":0.3937007874015748},{"duration":0.2727269999999997,"midi":55,"time":12.4090785,"velocity":0.3937007874015748},{"duration":0.2727269999999997,"midi":55,"time":12.4090785,"velocity":0.3937007874015748},{"duration":0.2727269999999997,"midi":55,"time":12.6818055,"velocity":0.3937007874015748},{"duration":0.2727269999999997,"midi":55,"time":12.6818055,"velocity":0.3937007874015748},{"duration":0.2727269999999997,"midi":55,"time":12.6818055,"velocity":0.3937007874015748},{"duration":0.2727269999999997,"midi":55,"time":12.6818055,"velocity":0.3937007874015748},{"duration":0.2727270000000015,"midi":55,"time":12.9545325,"velocity":0.3937007874015748},{"duration":0.2727270000000015,"midi":55,"time":12.9545325,"velocity":0.3937007874015748},{"duration":0.13636349999999986,"midi":58,"time":13.2272595,"velocity":0.3937007874015748},{"duration":0.2727269999999997,"midi":57,"time":13.2272595,"velocity":0.3937007874015748},{"duration":0.13636349999999986,"midi":58,"time":13.2272595,"velocity":0.3937007874015748},{"duration":0.2727269999999997,"midi":57,"time":13.2272595,"velocity":0.3937007874015748},{"duration":0.13636349999999986,"midi":58,"time":13.2272595,"velocity":0.3937007874015748},{"duration":0.2727269999999997,"midi":58,"time":13.4999865,"velocity":0.3937007874015748},{"duration":0.2727269999999997,"midi":58,"time":13.4999865,"velocity":0.3937007874015748},{"duration":0.2727269999999997,"midi":57,"time":13.7727135,"velocity":0.3937007874015748},{"duration":0.2727269999999997,"midi":57,"time":13.7727135,"velocity":0.3937007874015748},{"duration":0.13636349999999986,"midi":55,"time":13.7727135,"velocity":0.3937007874015748},{"duration":0.13636349999999986,"midi":55,"time":13.7727135,"velocity":0.3937007874015748},{"duration":0.2727269999999997,"midi":58,"time":14.0454405,"velocity":0.3937007874015748},{"duration":0.2727269999999997,"midi":58,"time":14.0454405,"velocity":0.3937007874015748},{"duration":0.13636349999999986,"midi":61,"time":14.3181675,"velocity":0.3937007874015748},{"duration":0.13636349999999986,"midi":61,"time":14.3181675,"velocity":0.3937007874015748},{"duration":0.2727269999999997,"midi":55,"time":14.3181675,"velocity":0.3937007874015748},{"duration":0.13636349999999986,"midi":61,"time":14.3181675,"velocity":0.3937007874015748},{"duration":0.13636349999999986,"midi":61,"time":14.3181675,"velocity":0.3937007874015748},{"duration":0.13636349999999986,"midi":61,"time":14.3181675,"velocity":0.3937007874015748},{"duration":0.2727269999999997,"midi":55,"time":14.3181675,"velocity":0.3937007874015748},{"duration":0.13636349999999986,"midi":61,"time":14.3181675,"velocity":0.3937007874015748},{"duration":0.13636349999999986,"midi":62,"time":14.5908945,"velocity":0.3937007874015748},{"duration":0.13636349999999986,"midi":62,"time":14.5908945,"velocity":0.3937007874015748},{"duration":0.2727270000000015,"midi":50,"time":14.5908945,"velocity":0.3937007874015748},{"duration":0.13636349999999986,"midi":62,"time":14.5908945,"velocity":0.3937007874015748},{"duration":0.2727270000000015,"midi":50,"time":14.5908945,"velocity":0.3937007874015748},{"duration":0.2727270000000015,"midi":50,"time":14.5908945,"velocity":0.3937007874015748},{"duration":0.13636349999999986,"midi":62,"time":14.5908945,"velocity":0.3937007874015748},{"duration":0.13636349999999986,"midi":62,"time":14.5908945,"velocity":0.3937007874015748},{"duration":0.13636349999999986,"midi":62,"time":14.5908945,"velocity":0.3937007874015748},{"duration":0.13636349999999986,"midi":70,"time":14.8636215,"velocity":0.3937007874015748},{"duration":0.13636349999999986,"midi":70,"time":14.8636215,"velocity":0.3937007874015748},{"duration":0.13636349999999986,"midi":70,"time":14.8636215,"velocity":0.3937007874015748},{"duration":0.2727269999999997,"midi":48,"time":14.8636215,"velocity":0.3937007874015748},{"duration":0.2727269999999997,"midi":48,"time":14.8636215,"velocity":0.3937007874015748},{"duration":0.13636349999999986,"midi":70,"time":14.8636215,"velocity":0.3937007874015748},{"duration":0.13636349999999986,"midi":70,"time":14.8636215,"velocity":0.3937007874015748},{"duration":0.2727269999999997,"midi":48,"time":14.8636215,"velocity":0.3937007874015748},{"duration":0.13636349999999986,"midi":67,"time":15.1363485,"velocity":0.3937007874015748},{"duration":0.13636349999999986,"midi":67,"time":15.1363485,"velocity":0.3937007874015748},{"duration":0.13636349999999986,"midi":67,"time":15.1363485,"velocity":0.3937007874015748},{"duration":0.13636349999999986,"midi":67,"time":15.1363485,"velocity":0.3937007874015748},{"duration":0.13636349999999986,"midi":67,"time":15.1363485,"velocity":0.3937007874015748},{"duration":0.2727269999999997,"midi":49,"time":15.4090755,"velocity":0.3937007874015748},{"duration":0.2727269999999997,"midi":49,"time":15.4090755,"velocity":0.3937007874015748},{"duration":0.2727269999999997,"midi":49,"time":15.4090755,"velocity":0.3937007874015748},{"duration":0.2727269999999997,"midi":50,"time":15.6818025,"velocity":0.3937007874015748},{"duration":0.2727269999999997,"midi":50,"time":15.6818025,"velocity":0.3937007874015748},{"duration":0.2727269999999997,"midi":50,"time":15.6818025,"velocity":0.3937007874015748},{"duration":0.2727269999999997,"midi":55,"time":15.9545295,"velocity":0.3937007874015748},{"duration":0.2727269999999997,"midi":55,"time":15.9545295,"velocity":0.3937007874015748},{"duration":0.2727269999999997,"midi":55,"time":15.9545295,"velocity":0.3937007874015748},{"duration":0.2727269999999997,"midi":58,"time":16.2272565,"velocity":0.3937007874015748},{"duration":0.2727269999999997,"midi":58,"time":16.2272565,"velocity":0.3937007874015748},{"duration":0.2727269999999997,"midi":58,"time":16.2272565,"velocity":0.3937007874015748},{"duration":0.2727269999999997,"midi":61,"time":16.4999835,"velocity":0.3937007874015748},{"duration":0.13636350000000164,"midi":58,"time":16.4999835,"velocity":0.3937007874015748},{"duration":0.2727269999999997,"midi":61,"time":16.4999835,"velocity":0.3937007874015748},{"duration":0.2727269999999997,"midi":61,"time":16.4999835,"velocity":0.3937007874015748},{"duration":0.2727269999999997,"midi":62,"time":16.7727105,"velocity":0.3937007874015748},{"duration":0.2727269999999997,"midi":62,"time":16.7727105,"velocity":0.3937007874015748},{"duration":0.13636350000000164,"midi":55,"time":16.7727105,"velocity":0.3937007874015748},{"duration":0.2727269999999997,"midi":62,"time":16.7727105,"velocity":0.3937007874015748},{"duration":0.2727269999999997,"midi":67,"time":17.0454375,"velocity":0.3937007874015748},{"duration":0.2727269999999997,"midi":67,"time":17.0454375,"velocity":0.3937007874015748},{"duration":0.13636350000000164,"midi":62,"time":17.0454375,"velocity":0.3937007874015748},{"duration":0.2727269999999997,"midi":67,"time":17.0454375,"velocity":0.3937007874015748},{"duration":0.2727270000000033,"midi":70,"time":17.318164499999998,"velocity":0.3937007874015748},{"duration":0.2727270000000033,"midi":70,"time":17.318164499999998,"velocity":0.3937007874015748},{"duration":0.13636350000000164,"midi":55,"time":17.318164499999998,"velocity":0.3937007874015748},{"duration":0.2727270000000033,"midi":70,"time":17.318164499999998,"velocity":0.3937007874015748},{"duration":0.13636349999999808,"midi":58,"time":17.5908915,"velocity":0.3937007874015748},{"duration":0.2727269999999997,"midi":61,"time":17.5908915,"velocity":0.3937007874015748},{"duration":0.13636349999999808,"midi":58,"time":17.5908915,"velocity":0.3937007874015748},{"duration":0.13636349999999808,"midi":58,"time":17.5908915,"velocity":0.3937007874015748},{"duration":0.2727269999999997,"midi":61,"time":17.5908915,"velocity":0.3937007874015748},{"duration":0.2727269999999997,"midi":61,"time":17.5908915,"velocity":0.3937007874015748},{"duration":0.2727269999999997,"midi":61,"time":17.5908915,"velocity":0.3937007874015748},{"duration":0.13636349999999808,"midi":58,"time":17.5908915,"velocity":0.3937007874015748},{"duration":0.13636349999999808,"midi":58,"time":17.5908915,"velocity":0.3937007874015748},{"duration":0.13636349999999808,"midi":58,"time":17.5908915,"velocity":0.3937007874015748},{"duration":0.13636349999999808,"midi":58,"time":17.5908915,"velocity":0.3937007874015748},{"duration":0.13636349999999808,"midi":58,"time":17.5908915,"velocity":0.3937007874015748},{"duration":0.13636349999999808,"midi":58,"time":17.5908915,"velocity":0.3937007874015748},{"duration":0.2727269999999997,"midi":61,"time":17.5908915,"velocity":0.3937007874015748},{"duration":0.13636349999999808,"midi":58,"time":17.5908915,"velocity":0.3937007874015748},{"duration":0.2727269999999997,"midi":61,"time":17.5908915,"velocity":0.3937007874015748},{"duration":0.2727269999999997,"midi":61,"time":17.5908915,"velocity":0.3937007874015748},{"duration":0.2727269999999997,"midi":61,"time":17.5908915,"velocity":0.3937007874015748},{"duration":0.13636349999999808,"midi":58,"time":17.5908915,"velocity":0.3937007874015748},{"duration":0.13636349999999808,"midi":58,"time":17.5908915,"velocity":0.3937007874015748},{"duration":0.2727269999999997,"midi":62,"time":17.8636185,"velocity":0.3937007874015748},{"duration":0.2727269999999997,"midi":62,"time":17.8636185,"velocity":0.3937007874015748},{"duration":0.2727269999999997,"midi":62,"time":17.8636185,"velocity":0.3937007874015748},{"duration":0.2727269999999997,"midi":62,"time":17.8636185,"velocity":0.3937007874015748},{"duration":0.2727269999999997,"midi":62,"time":17.8636185,"velocity":0.3937007874015748},{"duration":0.2727269999999997,"midi":62,"time":17.8636185,"velocity":0.3937007874015748},{"duration":0.2727269999999997,"midi":62,"time":17.8636185,"velocity":0.3937007874015748},{"duration":0.2727269999999997,"midi":62,"time":17.8636185,"velocity":0.3937007874015748},{"duration":0.2727269999999997,"midi":61,"time":18.1363455,"velocity":0.3937007874015748},{"duration":0.2727269999999997,"midi":61,"time":18.1363455,"velocity":0.3937007874015748},{"duration":0.2727269999999997,"midi":61,"time":18.1363455,"velocity":0.3937007874015748},{"duration":0.13636349999999808,"midi":55,"time":18.1363455,"velocity":0.3937007874015748},{"duration":0.13636349999999808,"midi":55,"time":18.1363455,"velocity":0.3937007874015748},{"duration":0.2727269999999997,"midi":61,"time":18.1363455,"velocity":0.3937007874015748},{"duration":0.13636349999999808,"midi":55,"time":18.1363455,"velocity":0.3937007874015748},{"duration":0.2727269999999997,"midi":61,"time":18.1363455,"velocity":0.3937007874015748},{"duration":0.13636349999999808,"midi":55,"time":18.1363455,"velocity":0.3937007874015748},{"duration":0.13636349999999808,"midi":55,"time":18.1363455,"velocity":0.3937007874015748},{"duration":0.2727269999999997,"midi":61,"time":18.1363455,"velocity":0.3937007874015748},{"duration":0.13636349999999808,"midi":55,"time":18.1363455,"velocity":0.3937007874015748},{"duration":0.2727269999999997,"midi":61,"time":18.1363455,"velocity":0.3937007874015748},{"duration":0.13636349999999808,"midi":55,"time":18.1363455,"velocity":0.3937007874015748},{"duration":0.2727269999999997,"midi":61,"time":18.1363455,"velocity":0.3937007874015748},{"duration":0.13636349999999808,"midi":55,"time":18.1363455,"velocity":0.3937007874015748},{"duration":0.2727269999999997,"midi":62,"time":18.4090725,"velocity":0.3937007874015748},{"duration":0.2727269999999997,"midi":62,"time":18.4090725,"velocity":0.3937007874015748},{"duration":0.2727269999999997,"midi":62,"time":18.4090725,"velocity":0.3937007874015748},{"duration":0.2727269999999997,"midi":62,"time":18.4090725,"velocity":0.3937007874015748},{"duration":0.2727269999999997,"midi":62,"time":18.4090725,"velocity":0.3937007874015748},{"duration":0.2727269999999997,"midi":62,"time":18.4090725,"velocity":0.3937007874015748},{"duration":0.2727269999999997,"midi":62,"time":18.4090725,"velocity":0.3937007874015748},{"duration":0.2727269999999997,"midi":62,"time":18.4090725,"velocity":0.3937007874015748},{"duration":0.13636349999999808,"midi":61,"time":18.6817995,"velocity":0.3937007874015748},{"duration":0.13636349999999808,"midi":61,"time":18.6817995,"velocity":0.3937007874015748},{"duration":0.13636349999999808,"midi":61,"time":18.6817995,"velocity":0.3937007874015748},{"duration":0.13636349999999808,"midi":61,"time":18.6817995,"velocity":0.3937007874015748},{"duration":0.2727269999999997,"midi":58,"time":18.6817995,"velocity":0.3937007874015748},{"duration":0.13636349999999808,"midi":61,"time":18.6817995,"velocity":0.3937007874015748},{"duration":0.2727269999999997,"midi":58,"time":18.6817995,"velocity":0.3937007874015748},{"duration":0.13636349999999808,"midi":61,"time":18.6817995,"velocity":0.3937007874015748},{"duration":0.13636349999999808,"midi":61,"time":18.6817995,"velocity":0.3937007874015748},{"duration":0.13636349999999808,"midi":61,"time":18.6817995,"velocity":0.3937007874015748},{"duration":0.2727269999999997,"midi":58,"time":18.6817995,"velocity":0.3937007874015748},{"duration":0.2727269999999997,"midi":58,"time":18.6817995,"velocity":0.3937007874015748},{"duration":0.2727269999999997,"midi":58,"time":18.6817995,"velocity":0.3937007874015748},{"duration":0.2727269999999997,"midi":58,"time":18.6817995,"velocity":0.3937007874015748},{"duration":0.13636349999999808,"midi":61,"time":18.6817995,"velocity":0.3937007874015748},{"duration":0.2727269999999997,"midi":58,"time":18.6817995,"velocity":0.3937007874015748},{"duration":0.13636349999999808,"midi":61,"time":18.6817995,"velocity":0.3937007874015748},{"duration":0.2727269999999997,"midi":58,"time":18.6817995,"velocity":0.3937007874015748},{"duration":0.13636349999999808,"midi":61,"time":18.6817995,"velocity":0.3937007874015748},{"duration":0.13636349999999808,"midi":61,"time":18.6817995,"velocity":0.3937007874015748},{"duration":0.13636349999999808,"midi":62,"time":18.9545265,"velocity":0.3937007874015748},{"duration":0.13636349999999808,"midi":62,"time":18.9545265,"velocity":0.3937007874015748},{"duration":0.2727269999999997,"midi":55,"time":18.9545265,"velocity":0.3937007874015748},{"duration":0.13636349999999808,"midi":62,"time":18.9545265,"velocity":0.3937007874015748},{"duration":0.2727269999999997,"midi":55,"time":18.9545265,"velocity":0.3937007874015748},{"duration":0.2727269999999997,"midi":55,"time":18.9545265,"velocity":0.3937007874015748},{"duration":0.2727269999999997,"midi":55,"time":18.9545265,"velocity":0.3937007874015748},{"duration":0.2727269999999997,"midi":55,"time":18.9545265,"velocity":0.3937007874015748},{"duration":0.2727269999999997,"midi":55,"time":18.9545265,"velocity":0.3937007874015748},{"duration":0.2727269999999997,"midi":55,"time":18.9545265,"velocity":0.3937007874015748},{"duration":0.13636349999999808,"midi":62,"time":18.9545265,"velocity":0.3937007874015748},{"duration":0.13636349999999808,"midi":62,"time":18.9545265,"velocity":0.3937007874015748},{"duration":0.2727269999999997,"midi":55,"time":18.9545265,"velocity":0.3937007874015748},{"duration":0.13636349999999808,"midi":62,"time":18.9545265,"velocity":0.3937007874015748},{"duration":0.2727269999999997,"midi":55,"time":18.9545265,"velocity":0.3937007874015748},{"duration":0.2727269999999997,"midi":55,"time":18.9545265,"velocity":0.3937007874015748},{"duration":0.2727269999999997,"midi":55,"time":18.9545265,"velocity":0.3937007874015748},{"duration":0.13636349999999808,"midi":62,"time":18.9545265,"velocity":0.3937007874015748},{"duration":0.2727269999999997,"midi":55,"time":18.9545265,"velocity":0.3937007874015748},{"duration":0.13636349999999808,"midi":62,"time":18.9545265,"velocity":0.3937007874015748},{"duration":0.13636349999999808,"midi":62,"time":18.9545265,"velocity":0.3937007874015748},{"duration":0.13636349999999808,"midi":62,"time":18.9545265,"velocity":0.3937007874015748},{"duration":0.13636349999999808,"midi":62,"time":18.9545265,"velocity":0.3937007874015748},{"duration":0.13636349999999808,"midi":62,"time":18.9545265,"velocity":0.3937007874015748},{"duration":0.2727269999999997,"midi":55,"time":19.2272535,"velocity":0.3937007874015748},{"duration":0.2727269999999997,"midi":55,"time":19.2272535,"velocity":0.3937007874015748},{"duration":0.13636350000000164,"midi":70,"time":19.2272535,"velocity":0.3937007874015748},{"duration":0.2727269999999997,"midi":55,"time":19.2272535,"velocity":0.3937007874015748},{"duration":0.13636350000000164,"midi":70,"time":19.2272535,"velocity":0.3937007874015748},{"duration":0.2727269999999997,"midi":55,"time":19.2272535,"velocity":0.3937007874015748},{"duration":0.2727269999999997,"midi":55,"time":19.2272535,"velocity":0.3937007874015748},{"duration":0.2727269999999997,"midi":55,"time":19.2272535,"velocity":0.3937007874015748},{"duration":0.13636350000000164,"midi":70,"time":19.2272535,"velocity":0.3937007874015748},{"duration":0.2727269999999997,"midi":55,"time":19.2272535,"velocity":0.3937007874015748},{"duration":0.13636350000000164,"midi":70,"time":19.2272535,"velocity":0.3937007874015748},{"duration":0.13636350000000164,"midi":70,"time":19.2272535,"velocity":0.3937007874015748},{"duration":0.13636350000000164,"midi":70,"time":19.2272535,"velocity":0.3937007874015748},{"duration":0.13636350000000164,"midi":70,"time":19.2272535,"velocity":0.3937007874015748},{"duration":0.13636350000000164,"midi":70,"time":19.2272535,"velocity":0.3937007874015748},{"duration":0.13636350000000164,"midi":70,"time":19.2272535,"velocity":0.3937007874015748},{"duration":0.2727269999999997,"midi":55,"time":19.2272535,"velocity":0.3937007874015748},{"duration":0.13636350000000164,"midi":70,"time":19.2272535,"velocity":0.3937007874015748},{"duration":0.13636350000000164,"midi":67,"time":19.4999805,"velocity":0.3937007874015748},{"duration":0.13636350000000164,"midi":67,"time":19.4999805,"velocity":0.3937007874015748},{"duration":0.13636350000000164,"midi":67,"time":19.4999805,"velocity":0.3937007874015748},{"duration":0.13636350000000164,"midi":67,"time":19.4999805,"velocity":0.3937007874015748},{"duration":0.13636350000000164,"midi":67,"time":19.4999805,"velocity":0.3937007874015748},{"duration":0.13636350000000164,"midi":67,"time":19.4999805,"velocity":0.3937007874015748},{"duration":0.2727269999999997,"midi":55,"time":19.4999805,"velocity":0.3937007874015748},{"duration":0.2727269999999997,"midi":55,"time":19.4999805,"velocity":0.3937007874015748},{"duration":0.13636350000000164,"midi":67,"time":19.4999805,"velocity":0.3937007874015748},{"duration":0.2727269999999997,"midi":55,"time":19.4999805,"velocity":0.3937007874015748},{"duration":0.2727269999999997,"midi":55,"time":19.4999805,"velocity":0.3937007874015748},{"duration":0.13636350000000164,"midi":67,"time":19.4999805,"velocity":0.3937007874015748},{"duration":0.13636350000000164,"midi":67,"time":19.4999805,"velocity":0.3937007874015748},{"duration":0.13636350000000164,"midi":67,"time":19.4999805,"velocity":0.3937007874015748},{"duration":0.2727269999999997,"midi":58,"time":19.7727075,"velocity":0.3937007874015748},{"duration":0.2727269999999997,"midi":58,"time":19.7727075,"velocity":0.3937007874015748},{"duration":0.2727269999999997,"midi":58,"time":19.7727075,"velocity":0.3937007874015748},{"duration":0.2727269999999997,"midi":58,"time":19.7727075,"velocity":0.3937007874015748},{"duration":0.2727269999999997,"midi":58,"time":19.7727075,"velocity":0.3937007874015748},{"duration":0.2727269999999997,"midi":58,"time":19.7727075,"velocity":0.3937007874015748},{"duration":0.2727269999999997,"midi":58,"time":19.7727075,"velocity":0.3937007874015748},{"duration":0.2727269999999997,"midi":58,"time":19.7727075,"velocity":0.3937007874015748},{"duration":0.2727269999999997,"midi":55,"time":20.0454345,"velocity":0.3937007874015748},{"duration":0.2727269999999997,"midi":55,"time":20.0454345,"velocity":0.3937007874015748},{"duration":0.2727269999999997,"midi":55,"time":20.0454345,"velocity":0.3937007874015748},{"duration":0.2727269999999997,"midi":55,"time":20.0454345,"velocity":0.3937007874015748},{"duration":0.2727269999999997,"midi":55,"time":20.0454345,"velocity":0.3937007874015748},{"duration":0.2727269999999997,"midi":55,"time":20.0454345,"velocity":0.3937007874015748},{"duration":0.2727269999999997,"midi":55,"time":20.0454345,"velocity":0.3937007874015748},{"duration":0.2727269999999997,"midi":55,"time":20.0454345,"velocity":0.3937007874015748},{"duration":0.2727269999999997,"midi":55,"time":20.0454345,"velocity":0.3937007874015748},{"duration":0.2727269999999997,"midi":55,"time":20.0454345,"velocity":0.3937007874015748},{"duration":0.2727269999999997,"midi":55,"time":20.0454345,"velocity":0.3937007874015748},{"duration":0.2727269999999997,"midi":55,"time":20.0454345,"velocity":0.3937007874015748},{"duration":0.2727269999999997,"midi":55,"time":20.3181615,"velocity":0.3937007874015748},{"duration":0.2727269999999997,"midi":55,"time":20.3181615,"velocity":0.3937007874015748},{"duration":0.2727269999999997,"midi":55,"time":20.3181615,"velocity":0.3937007874015748},{"duration":0.2727269999999997,"midi":55,"time":20.3181615,"velocity":0.3937007874015748},{"duration":0.2727269999999997,"midi":55,"time":20.3181615,"velocity":0.3937007874015748},{"duration":0.2727269999999997,"midi":55,"time":20.3181615,"velocity":0.3937007874015748},{"duration":0.2727269999999997,"midi":55,"time":20.3181615,"velocity":0.3937007874015748},{"duration":0.2727269999999997,"midi":55,"time":20.3181615,"velocity":0.3937007874015748},{"duration":0.2727269999999997,"midi":55,"time":20.5908885,"velocity":0.3937007874015748},{"duration":0.2727269999999997,"midi":55,"time":20.5908885,"velocity":0.3937007874015748},{"duration":0.2727269999999997,"midi":55,"time":20.5908885,"velocity":0.3937007874015748},{"duration":0.2727269999999997,"midi":55,"time":20.5908885,"velocity":0.3937007874015748},{"duration":0.2727270000000033,"midi":62,"time":20.863615499999998,"velocity":0.3937007874015748},{"duration":0.2727270000000033,"midi":62,"time":20.863615499999998,"velocity":0.3937007874015748},{"duration":0.2727270000000033,"midi":62,"time":20.863615499999998,"velocity":0.3937007874015748},{"duration":0.2727270000000033,"midi":62,"time":20.863615499999998,"velocity":0.3937007874015748},{"duration":0.2727270000000033,"midi":62,"time":20.863615499999998,"velocity":0.3937007874015748},{"duration":0.2727270000000033,"midi":62,"time":20.863615499999998,"velocity":0.3937007874015748},{"duration":0.2727270000000033,"midi":62,"time":20.863615499999998,"velocity":0.3937007874015748},{"duration":0.2727270000000033,"midi":62,"time":20.863615499999998,"velocity":0.3937007874015748},{"duration":0.2727269999999997,"midi":55,"time":21.1363425,"velocity":0.3937007874015748},{"duration":0.2727269999999997,"midi":55,"time":21.1363425,"velocity":0.3937007874015748},{"duration":0.2727269999999997,"midi":55,"time":21.1363425,"velocity":0.3937007874015748},{"duration":0.2727269999999997,"midi":55,"time":21.1363425,"velocity":0.3937007874015748},{"duration":0.2727269999999997,"midi":55,"time":21.1363425,"velocity":0.3937007874015748},{"duration":0.2727269999999997,"midi":55,"time":21.1363425,"velocity":0.3937007874015748},{"duration":0.2727269999999997,"midi":55,"time":21.1363425,"velocity":0.3937007874015748},{"duration":0.2727269999999997,"midi":55,"time":21.1363425,"velocity":0.3937007874015748},{"duration":0.2727269999999997,"midi":55,"time":21.1363425,"velocity":0.3937007874015748},{"duration":0.2727269999999997,"midi":55,"time":21.1363425,"velocity":0.3937007874015748},{"duration":0.2727269999999997,"midi":55,"time":21.1363425,"velocity":0.3937007874015748},{"duration":0.2727269999999997,"midi":55,"time":21.1363425,"velocity":0.3937007874015748},{"duration":0.2727269999999997,"midi":55,"time":21.4090695,"velocity":0.3937007874015748},{"duration":0.2727269999999997,"midi":55,"time":21.4090695,"velocity":0.3937007874015748},{"duration":0.2727269999999997,"midi":55,"time":21.4090695,"velocity":0.3937007874015748},{"duration":0.2727269999999997,"midi":55,"time":21.4090695,"velocity":0.3937007874015748},{"duration":0.2727269999999997,"midi":55,"time":21.4090695,"velocity":0.3937007874015748},{"duration":0.2727269999999997,"midi":55,"time":21.4090695,"velocity":0.3937007874015748},{"duration":0.2727269999999997,"midi":55,"time":21.4090695,"velocity":0.3937007874015748},{"duration":0.2727269999999997,"midi":55,"time":21.4090695,"velocity":0.3937007874015748},{"duration":0.2727269999999997,"midi":55,"time":21.6817965,"velocity":0.3937007874015748},{"duration":0.2727269999999997,"midi":55,"time":21.6817965,"velocity":0.3937007874015748},{"duration":0.2727269999999997,"midi":55,"time":21.6817965,"velocity":0.3937007874015748},{"duration":0.2727269999999997,"midi":55,"time":21.6817965,"velocity":0.3937007874015748},{"duration":0.13636349999999808,"midi":58,"time":21.9545235,"velocity":0.3937007874015748},{"duration":0.13636349999999808,"midi":58,"time":21.9545235,"velocity":0.3937007874015748},{"duration":0.13636349999999808,"midi":58,"time":21.9545235,"velocity":0.3937007874015748},{"duration":0.2727269999999997,"midi":57,"time":21.9545235,"velocity":0.3937007874015748},{"duration":0.2727269999999997,"midi":57,"time":21.9545235,"velocity":0.3937007874015748},{"duration":0.13636349999999808,"midi":58,"time":21.9545235,"velocity":0.3937007874015748},{"duration":0.13636349999999808,"midi":58,"time":21.9545235,"velocity":0.3937007874015748},{"duration":0.13636349999999808,"midi":58,"time":21.9545235,"velocity":0.3937007874015748},{"duration":0.2727269999999997,"midi":57,"time":21.9545235,"velocity":0.3937007874015748},{"duration":0.2727269999999997,"midi":57,"time":21.9545235,"velocity":0.3937007874015748},{"duration":0.2727269999999997,"midi":58,"time":22.2272505,"velocity":0.3937007874015748},{"duration":0.2727269999999997,"midi":58,"time":22.2272505,"velocity":0.3937007874015748},{"duration":0.2727269999999997,"midi":58,"time":22.2272505,"velocity":0.3937007874015748},{"duration":0.2727269999999997,"midi":58,"time":22.2272505,"velocity":0.3937007874015748},{"duration":0.2727269999999997,"midi":57,"time":22.4999775,"velocity":0.3937007874015748},{"duration":0.13636349999999808,"midi":55,"time":22.4999775,"velocity":0.3937007874015748},{"duration":0.2727269999999997,"midi":57,"time":22.4999775,"velocity":0.3937007874015748},{"duration":0.13636349999999808,"midi":55,"time":22.4999775,"velocity":0.3937007874015748},{"duration":0.13636349999999808,"midi":55,"time":22.4999775,"velocity":0.3937007874015748},{"duration":0.2727269999999997,"midi":57,"time":22.4999775,"velocity":0.3937007874015748},{"duration":0.2727269999999997,"midi":57,"time":22.4999775,"velocity":0.3937007874015748},{"duration":0.13636349999999808,"midi":55,"time":22.4999775,"velocity":0.3937007874015748},{"duration":0.2727269999999997,"midi":58,"time":22.7727045,"velocity":0.3937007874015748},{"duration":0.2727269999999997,"midi":58,"time":22.7727045,"velocity":0.3937007874015748},{"duration":0.2727269999999997,"midi":58,"time":22.7727045,"velocity":0.3937007874015748},{"duration":0.2727269999999997,"midi":58,"time":22.7727045,"velocity":0.3937007874015748},{"duration":0.13636350000000164,"midi":61,"time":23.0454315,"velocity":0.3937007874015748},{"duration":0.13636350000000164,"midi":61,"time":23.0454315,"velocity":0.3937007874015748},{"duration":0.2727269999999997,"midi":55,"time":23.0454315,"velocity":0.3937007874015748},{"duration":0.13636350000000164,"midi":61,"time":23.0454315,"velocity":0.3937007874015748},{"duration":0.2727269999999997,"midi":55,"time":23.0454315,"velocity":0.3937007874015748},{"duration":0.13636350000000164,"midi":61,"time":23.0454315,"velocity":0.3937007874015748},{"duration":0.13636350000000164,"midi":61,"time":23.0454315,"velocity":0.3937007874015748},{"duration":0.13636350000000164,"midi":61,"time":23.0454315,"velocity":0.3937007874015748},{"duration":0.13636350000000164,"midi":61,"time":23.0454315,"velocity":0.3937007874015748},{"duration":0.2727269999999997,"midi":55,"time":23.0454315,"velocity":0.3937007874015748},{"duration":0.13636350000000164,"midi":61,"time":23.0454315,"velocity":0.3937007874015748},{"duration":0.13636350000000164,"midi":61,"time":23.0454315,"velocity":0.3937007874015748},{"duration":0.2727269999999997,"midi":55,"time":23.0454315,"velocity":0.3937007874015748},{"duration":0.13636350000000164,"midi":61,"time":23.0454315,"velocity":0.3937007874015748},{"duration":0.13636350000000164,"midi":61,"time":23.0454315,"velocity":0.3937007874015748},{"duration":0.13636350000000164,"midi":61,"time":23.0454315,"velocity":0.3937007874015748},{"duration":0.2727269999999997,"midi":50,"time":23.3181585,"velocity":0.3937007874015748},{"duration":0.2727269999999997,"midi":50,"time":23.3181585,"velocity":0.3937007874015748},{"duration":0.13636350000000164,"midi":62,"time":23.3181585,"velocity":0.3937007874015748},{"duration":0.13636350000000164,"midi":62,"time":23.3181585,"velocity":0.3937007874015748},{"duration":0.2727269999999997,"midi":50,"time":23.3181585,"velocity":0.3937007874015748},{"duration":0.13636350000000164,"midi":62,"time":23.3181585,"velocity":0.3937007874015748},{"duration":0.2727269999999997,"midi":50,"time":23.3181585,"velocity":0.3937007874015748},{"duration":0.13636350000000164,"midi":62,"time":23.3181585,"velocity":0.3937007874015748},{"duration":0.13636350000000164,"midi":62,"time":23.3181585,"velocity":0.3937007874015748},{"duration":0.13636350000000164,"midi":62,"time":23.3181585,"velocity":0.3937007874015748},{"duration":0.2727269999999997,"midi":50,"time":23.3181585,"velocity":0.3937007874015748},{"duration":0.2727269999999997,"midi":50,"time":23.3181585,"velocity":0.3937007874015748},{"duration":0.13636350000000164,"midi":62,"time":23.3181585,"velocity":0.3937007874015748},{"duration":0.13636350000000164,"midi":62,"time":23.3181585,"velocity":0.3937007874015748},{"duration":0.13636350000000164,"midi":62,"time":23.3181585,"velocity":0.3937007874015748},{"duration":0.13636350000000164,"midi":62,"time":23.3181585,"velocity":0.3937007874015748},{"duration":0.13636350000000164,"midi":62,"time":23.3181585,"velocity":0.3937007874015748},{"duration":0.13636350000000164,"midi":62,"time":23.3181585,"velocity":0.3937007874015748},{"duration":0.2727269999999997,"midi":48,"time":23.5908855,"velocity":0.3937007874015748},{"duration":0.2727269999999997,"midi":48,"time":23.5908855,"velocity":0.3937007874015748},{"duration":0.13636350000000164,"midi":70,"time":23.5908855,"velocity":0.3937007874015748},{"duration":0.2727269999999997,"midi":48,"time":23.5908855,"velocity":0.3937007874015748},{"duration":0.13636350000000164,"midi":70,"time":23.5908855,"velocity":0.3937007874015748},{"duration":0.13636350000000164,"midi":70,"time":23.5908855,"velocity":0.3937007874015748},{"duration":0.13636350000000164,"midi":70,"time":23.5908855,"velocity":0.3937007874015748},{"duration":0.13636350000000164,"midi":70,"time":23.5908855,"velocity":0.3937007874015748},{"duration":0.2727269999999997,"midi":48,"time":23.5908855,"velocity":0.3937007874015748},{"duration":0.13636350000000164,"midi":70,"time":23.5908855,"velocity":0.3937007874015748},{"duration":0.13636350000000164,"midi":70,"time":23.5908855,"velocity":0.3937007874015748},{"duration":0.2727269999999997,"midi":48,"time":23.5908855,"velocity":0.3937007874015748},{"duration":0.2727269999999997,"midi":48,"time":23.5908855,"velocity":0.3937007874015748},{"duration":0.13636350000000164,"midi":70,"time":23.5908855,"velocity":0.3937007874015748},{"duration":0.13636350000000164,"midi":70,"time":23.5908855,"velocity":0.3937007874015748},{"duration":0.13636350000000164,"midi":70,"time":23.5908855,"velocity":0.3937007874015748},{"duration":0.13636350000000164,"midi":67,"time":23.8636125,"velocity":0.3937007874015748},{"duration":0.13636350000000164,"midi":67,"time":23.8636125,"velocity":0.3937007874015748},{"duration":0.13636350000000164,"midi":67,"time":23.8636125,"velocity":0.3937007874015748},{"duration":0.13636350000000164,"midi":67,"time":23.8636125,"velocity":0.3937007874015748},{"duration":0.13636350000000164,"midi":67,"time":23.8636125,"velocity":0.3937007874015748},{"duration":0.13636350000000164,"midi":67,"time":23.8636125,"velocity":0.3937007874015748},{"duration":0.13636350000000164,"midi":67,"time":23.8636125,"velocity":0.3937007874015748},{"duration":0.13636350000000164,"midi":67,"time":23.8636125,"velocity":0.3937007874015748},{"duration":0.13636350000000164,"midi":67,"time":23.8636125,"velocity":0.3937007874015748},{"duration":0.13636350000000164,"midi":67,"time":23.8636125,"velocity":0.3937007874015748},{"duration":0.2727269999999997,"midi":49,"time":24.1363395,"velocity":0.3937007874015748},{"duration":0.2727269999999997,"midi":49,"time":24.1363395,"velocity":0.3937007874015748},{"duration":0.2727269999999997,"midi":49,"time":24.1363395,"velocity":0.3937007874015748},{"duration":0.2727269999999997,"midi":49,"time":24.1363395,"velocity":0.3937007874015748},{"duration":0.2727269999999997,"midi":49,"time":24.1363395,"velocity":0.3937007874015748},{"duration":0.2727269999999997,"midi":49,"time":24.1363395,"velocity":0.3937007874015748},{"duration":0.2727270000000033,"midi":50,"time":24.409066499999998,"velocity":0.3937007874015748},{"duration":0.2727270000000033,"midi":50,"time":24.409066499999998,"velocity":0.3937007874015748},{"duration":0.2727270000000033,"midi":50,"time":24.409066499999998,"velocity":0.3937007874015748},{"duration":0.2727270000000033,"midi":50,"time":24.409066499999998,"velocity":0.3937007874015748},{"duration":0.2727270000000033,"midi":50,"time":24.409066499999998,"velocity":0.3937007874015748},{"duration":0.2727270000000033,"midi":50,"time":24.409066499999998,"velocity":0.3937007874015748},{"duration":0.2727269999999997,"midi":55,"time":24.6817935,"velocity":0.3937007874015748},{"duration":0.2727269999999997,"midi":55,"time":24.6817935,"velocity":0.3937007874015748},{"duration":0.2727269999999997,"midi":55,"time":24.6817935,"velocity":0.3937007874015748},{"duration":0.2727269999999997,"midi":55,"time":24.6817935,"velocity":0.3937007874015748},{"duration":0.2727269999999997,"midi":55,"time":24.6817935,"velocity":0.3937007874015748},{"duration":0.2727269999999997,"midi":55,"time":24.6817935,"velocity":0.3937007874015748},{"duration":0.2727269999999997,"midi":58,"time":24.9545205,"velocity":0.3937007874015748},{"duration":0.2727269999999997,"midi":58,"time":24.9545205,"velocity":0.3937007874015748},{"duration":0.2727269999999997,"midi":58,"time":24.9545205,"velocity":0.3937007874015748},{"duration":0.2727269999999997,"midi":58,"time":24.9545205,"velocity":0.3937007874015748},{"duration":0.2727269999999997,"midi":58,"time":24.9545205,"velocity":0.3937007874015748},{"duration":0.2727269999999997,"midi":58,"time":24.9545205,"velocity":0.3937007874015748},{"duration":0.2727269999999997,"midi":61,"time":25.2272475,"velocity":0.3937007874015748},{"duration":0.2727269999999997,"midi":61,"time":25.2272475,"velocity":0.3937007874015748},{"duration":0.2727269999999997,"midi":61,"time":25.2272475,"velocity":0.3937007874015748},{"duration":0.2727269999999997,"midi":61,"time":25.2272475,"velocity":0.3937007874015748},{"duration":0.13636349999999808,"midi":58,"time":25.2272475,"velocity":0.3937007874015748},{"duration":0.2727269999999997,"midi":61,"time":25.2272475,"velocity":0.3937007874015748},{"duration":0.2727269999999997,"midi":61,"time":25.2272475,"velocity":0.3937007874015748},{"duration":0.13636349999999808,"midi":55,"time":25.4999745,"velocity":0.3937007874015748},{"duration":0.2727269999999997,"midi":62,"time":25.4999745,"velocity":0.3937007874015748},{"duration":0.2727269999999997,"midi":62,"time":25.4999745,"velocity":0.3937007874015748},{"duration":0.2727269999999997,"midi":62,"time":25.4999745,"velocity":0.3937007874015748},{"duration":0.2727269999999997,"midi":62,"time":25.4999745,"velocity":0.3937007874015748},{"duration":0.2727269999999997,"midi":62,"time":25.4999745,"velocity":0.3937007874015748},{"duration":0.2727269999999997,"midi":62,"time":25.4999745,"velocity":0.3937007874015748},{"duration":0.2727269999999997,"midi":67,"time":25.7727015,"velocity":0.3937007874015748},{"duration":0.2727269999999997,"midi":67,"time":25.7727015,"velocity":0.3937007874015748},{"duration":0.2727269999999997,"midi":67,"time":25.7727015,"velocity":0.3937007874015748},{"duration":0.13636349999999808,"midi":62,"time":25.7727015,"velocity":0.3937007874015748},{"duration":0.2727269999999997,"midi":67,"time":25.7727015,"velocity":0.3937007874015748},{"duration":0.2727269999999997,"midi":67,"time":25.7727015,"velocity":0.3937007874015748},{"duration":0.2727269999999997,"midi":67,"time":25.7727015,"velocity":0.3937007874015748},{"duration":0.13636350000000164,"midi":55,"time":26.0454285,"velocity":0.3937007874015748},{"duration":0.2727269999999997,"midi":70,"time":26.0454285,"velocity":0.3937007874015748},{"duration":0.2727269999999997,"midi":70,"time":26.0454285,"velocity":0.3937007874015748},{"duration":0.2727269999999997,"midi":70,"time":26.0454285,"velocity":0.3937007874015748},{"duration":0.2727269999999997,"midi":70,"time":26.0454285,"velocity":0.3937007874015748},{"duration":0.2727269999999997,"midi":70,"time":26.0454285,"velocity":0.3937007874015748},{"duration":0.2727269999999997,"midi":70,"time":26.0454285,"velocity":0.3937007874015748},{"duration":0.13636350000000164,"midi":58,"time":26.3181555,"velocity":0.3937007874015748},{"duration":0.2727269999999997,"midi":61,"time":26.3181555,"velocity":0.3937007874015748},{"duration":0.13636350000000164,"midi":58,"time":26.3181555,"velocity":0.3937007874015748},{"duration":0.13636350000000164,"midi":58,"time":26.3181555,"velocity":0.3937007874015748},{"duration":0.2727269999999997,"midi":61,"time":26.3181555,"velocity":0.3937007874015748},{"duration":0.2727269999999997,"midi":62,"time":26.5908825,"velocity":0.3937007874015748},{"duration":0.2727269999999997,"midi":62,"time":26.5908825,"velocity":0.3937007874015748},{"duration":0.2727269999999997,"midi":61,"time":26.8636095,"velocity":0.3937007874015748},{"duration":0.2727269999999997,"midi":61,"time":26.8636095,"velocity":0.3937007874015748},{"duration":0.13636350000000164,"midi":55,"time":26.8636095,"velocity":0.3937007874015748},{"duration":0.13636350000000164,"midi":55,"time":26.8636095,"velocity":0.3937007874015748},{"duration":0.2727269999999997,"midi":62,"time":27.1363365,"velocity":0.3937007874015748},{"duration":0.2727269999999997,"midi":62,"time":27.1363365,"velocity":0.3937007874015748},{"duration":0.2727269999999997,"midi":58,"time":27.4090635,"velocity":0.3937007874015748},{"duration":0.2727269999999997,"midi":58,"time":27.4090635,"velocity":0.3937007874015748},{"duration":0.2727270000000033,"midi":55,"time":27.681790499999998,"velocity":0.3937007874015748},{"duration":0.2727270000000033,"midi":55,"time":27.681790499999998,"velocity":0.3937007874015748},{"duration":0.2727270000000033,"midi":55,"time":27.681790499999998,"velocity":0.3937007874015748},{"duration":0.2727269999999997,"midi":55,"time":27.9545175,"velocity":0.3937007874015748},{"duration":0.2727269999999997,"midi":55,"time":27.9545175,"velocity":0.3937007874015748},{"duration":0.2727269999999997,"midi":55,"time":28.2272445,"velocity":0.3937007874015748},{"duration":0.2727269999999997,"midi":58,"time":28.4999715,"velocity":0.3937007874015748},{"duration":0.2727269999999997,"midi":58,"time":28.4999715,"velocity":0.3937007874015748},{"duration":0.2727269999999997,"midi":55,"time":28.7726985,"velocity":0.3937007874015748},{"duration":0.2727269999999997,"midi":55,"time":28.7726985,"velocity":0.3937007874015748},{"duration":0.2727269999999997,"midi":55,"time":28.7726985,"velocity":0.3937007874015748},{"duration":0.2727269999999997,"midi":55,"time":29.0454255,"velocity":0.3937007874015748},{"duration":0.2727269999999997,"midi":55,"time":29.0454255,"velocity":0.3937007874015748},{"duration":0.2727269999999997,"midi":55,"time":29.3181525,"velocity":0.3937007874015748},{"duration":0.2727269999999997,"midi":62,"time":29.5908795,"velocity":0.3937007874015748},{"duration":0.2727269999999997,"midi":62,"time":29.5908795,"velocity":0.3937007874015748},{"duration":0.2727269999999997,"midi":55,"time":29.8636065,"velocity":0.3937007874015748},{"duration":0.2727269999999997,"midi":55,"time":29.8636065,"velocity":0.3937007874015748},{"duration":0.2727269999999997,"midi":55,"time":29.8636065,"velocity":0.3937007874015748},{"duration":0.2727269999999997,"midi":55,"time":30.1363335,"velocity":0.3937007874015748},{"duration":0.2727269999999997,"midi":55,"time":30.1363335,"velocity":0.3937007874015748},{"duration":0.2727269999999997,"midi":55,"time":30.4090605,"velocity":0.3937007874015748},{"duration":0.13636350000000164,"midi":58,"time":30.6817875,"velocity":0.3937007874015748},{"duration":0.2727269999999997,"midi":61,"time":30.6817875,"velocity":0.3937007874015748},{"duration":0.2727269999999997,"midi":61,"time":30.6817875,"velocity":0.3937007874015748},{"duration":0.13636350000000164,"midi":58,"time":30.6817875,"velocity":0.3937007874015748},{"duration":0.13636350000000164,"midi":58,"time":30.6817875,"velocity":0.3937007874015748},{"duration":0.2727269999999997,"midi":62,"time":30.9545145,"velocity":0.3937007874015748},{"duration":0.2727269999999997,"midi":62,"time":30.9545145,"velocity":0.3937007874015748},{"duration":0.13636350000000164,"midi":55,"time":31.227241499999998,"velocity":0.3937007874015748},{"duration":0.2727270000000033,"midi":61,"time":31.227241499999998,"velocity":0.3937007874015748},{"duration":0.13636350000000164,"midi":55,"time":31.227241499999998,"velocity":0.3937007874015748},{"duration":0.2727270000000033,"midi":61,"time":31.227241499999998,"velocity":0.3937007874015748},{"duration":0.2727269999999997,"midi":62,"time":31.4999685,"velocity":0.3937007874015748},{"duration":0.2727269999999997,"midi":62,"time":31.4999685,"velocity":0.3937007874015748},{"duration":0.2727269999999997,"midi":58,"time":31.7726955,"velocity":0.3937007874015748},{"duration":0.2727269999999997,"midi":58,"time":31.7726955,"velocity":0.3937007874015748},{"duration":0.27272699999999617,"midi":55,"time":32.0454225,"velocity":0.3937007874015748},{"duration":0.27272699999999617,"midi":55,"time":32.0454225,"velocity":0.3937007874015748},{"duration":0.27272699999999617,"midi":55,"time":32.0454225,"velocity":0.3937007874015748},{"duration":0.2727270000000033,"midi":55,"time":32.3181495,"velocity":0.3937007874015748},{"duration":0.2727270000000033,"midi":55,"time":32.3181495,"velocity":0.3937007874015748},{"duration":0.27272699999999617,"midi":55,"time":32.5908765,"velocity":0.3937007874015748},{"duration":0.2727270000000033,"midi":58,"time":32.863603499999996,"velocity":0.3937007874015748},{"duration":0.2727270000000033,"midi":58,"time":32.863603499999996,"velocity":0.3937007874015748},{"duration":0.2727270000000033,"midi":55,"time":33.1363305,"velocity":0.3937007874015748},{"duration":0.2727270000000033,"midi":55,"time":33.1363305,"velocity":0.3937007874015748},{"duration":0.2727270000000033,"midi":55,"time":33.1363305,"velocity":0.3937007874015748},{"duration":0.27272699999999617,"midi":55,"time":33.4090575,"velocity":0.3937007874015748},{"duration":0.27272699999999617,"midi":55,"time":33.4090575,"velocity":0.3937007874015748},{"duration":0.2727270000000033,"midi":55,"time":33.6817845,"velocity":0.3937007874015748},{"duration":0.13636349999999453,"midi":67,"time":33.9545115,"velocity":0.3937007874015748},{"duration":0.27272699999999617,"midi":62,"time":33.9545115,"velocity":0.3937007874015748},{"duration":0.27272699999999617,"midi":62,"time":33.9545115,"velocity":0.3937007874015748},{"duration":0.13636350000000164,"midi":62,"time":34.2272385,"velocity":0.3937007874015748},{"duration":0.13636350000000164,"midi":62,"time":34.2272385,"velocity":0.3937007874015748},{"duration":0.2727270000000033,"midi":55,"time":34.2272385,"velocity":0.3937007874015748},{"duration":0.2727270000000033,"midi":55,"time":34.2272385,"velocity":0.3937007874015748},{"duration":0.2727270000000033,"midi":55,"time":34.2272385,"velocity":0.3937007874015748},{"duration":0.13636350000000164,"midi":62,"time":34.2272385,"velocity":0.3937007874015748},{"duration":0.27272699999999617,"midi":55,"time":34.4999655,"velocity":0.3937007874015748},{"duration":0.13636349999999453,"midi":58,"time":34.4999655,"velocity":0.3937007874015748},{"duration":0.13636349999999453,"midi":58,"time":34.4999655,"velocity":0.3937007874015748},{"duration":0.27272699999999617,"midi":55,"time":34.4999655,"velocity":0.3937007874015748},{"duration":0.13636350000000164,"midi":57,"time":34.7726925,"velocity":0.3937007874015748},{"duration":0.2727270000000033,"midi":55,"time":34.7726925,"velocity":0.3937007874015748}]},{"instrument":{"family":"strings","number":45,"name":"pizzicato strings"},"notes":[{"duration":0.1363635,"midi":70,"time":0.1363635,"velocity":0.3937007874015748},{"duration":0.1363635,"midi":70,"time":0.1363635,"velocity":0.3937007874015748},{"duration":0.1363635,"midi":70,"time":0.1363635,"velocity":0.3937007874015748},{"duration":0.13636350000000008,"midi":67,"time":0.6818175,"velocity":0.3937007874015748},{"duration":0.13636350000000008,"midi":67,"time":0.6818175,"velocity":0.3937007874015748},{"duration":0.13636350000000008,"midi":67,"time":0.6818175,"velocity":0.3937007874015748},{"duration":0.13636349999999986,"midi":70,"time":4.4999955,"velocity":0.3937007874015748},{"duration":0.13636349999999986,"midi":70,"time":4.4999955,"velocity":0.3937007874015748},{"duration":0.13636349999999986,"midi":70,"time":4.4999955,"velocity":0.3937007874015748},{"duration":0.13636349999999986,"midi":67,"time":5.0454495,"velocity":0.3937007874015748},{"duration":0.13636349999999986,"midi":67,"time":5.0454495,"velocity":0.3937007874015748},{"duration":0.13636349999999986,"midi":67,"time":5.0454495,"velocity":0.3937007874015748},{"duration":0.13636349999999986,"midi":70,"time":8.8636275,"velocity":0.3937007874015748},{"duration":0.13636349999999986,"midi":70,"time":8.8636275,"velocity":0.3937007874015748},{"duration":0.13636349999999986,"midi":70,"time":8.8636275,"velocity":0.3937007874015748},{"duration":0.13636349999999986,"midi":70,"time":8.8636275,"velocity":0.3937007874015748},{"duration":0.13636349999999986,"midi":70,"time":8.8636275,"velocity":0.3937007874015748},{"duration":0.13636349999999986,"midi":67,"time":9.4090815,"velocity":0.3937007874015748},{"duration":0.13636349999999986,"midi":67,"time":9.4090815,"velocity":0.3937007874015748},{"duration":0.13636349999999986,"midi":67,"time":9.4090815,"velocity":0.3937007874015748},{"duration":0.13636349999999986,"midi":67,"time":9.4090815,"velocity":0.3937007874015748},{"duration":0.13636349999999986,"midi":67,"time":9.4090815,"velocity":0.3937007874015748},{"duration":0.13636349999999986,"midi":67,"time":9.4090815,"velocity":0.3937007874015748},{"duration":0.13636349999999986,"midi":73,"time":9.9545355,"velocity":0.3937007874015748},{"duration":0.13636349999999986,"midi":74,"time":10.2272625,"velocity":0.3937007874015748},{"duration":0.13636349999999986,"midi":74,"time":10.2272625,"velocity":0.3937007874015748},{"duration":0.13636349999999986,"midi":82,"time":10.4999895,"velocity":0.3937007874015748},{"duration":0.13636349999999986,"midi":82,"time":10.4999895,"velocity":0.3937007874015748},{"duration":0.13636349999999986,"midi":79,"time":10.7727165,"velocity":0.3937007874015748},{"duration":0.13636349999999986,"midi":79,"time":10.7727165,"velocity":0.3937007874015748},{"duration":0.13636349999999986,"midi":70,"time":13.2272595,"velocity":0.3937007874015748},{"duration":0.13636349999999986,"midi":70,"time":13.2272595,"velocity":0.3937007874015748},{"duration":0.13636349999999986,"midi":70,"time":13.2272595,"velocity":0.3937007874015748},{"duration":0.13636349999999986,"midi":70,"time":13.2272595,"velocity":0.3937007874015748},{"duration":0.13636349999999986,"midi":70,"time":13.2272595,"velocity":0.3937007874015748},{"duration":0.13636349999999986,"midi":67,"time":13.7727135,"velocity":0.3937007874015748},{"duration":0.13636349999999986,"midi":67,"time":13.7727135,"velocity":0.3937007874015748},{"duration":0.13636349999999986,"midi":67,"time":13.7727135,"velocity":0.3937007874015748},{"duration":0.13636349999999986,"midi":67,"time":13.7727135,"velocity":0.3937007874015748},{"duration":0.13636349999999986,"midi":67,"time":13.7727135,"velocity":0.3937007874015748},{"duration":0.13636349999999986,"midi":67,"time":13.7727135,"velocity":0.3937007874015748},{"duration":0.13636349999999986,"midi":73,"time":14.3181675,"velocity":0.3937007874015748},{"duration":0.13636349999999986,"midi":74,"time":14.5908945,"velocity":0.3937007874015748},{"duration":0.13636349999999986,"midi":74,"time":14.5908945,"velocity":0.3937007874015748},{"duration":0.13636349999999986,"midi":82,"time":14.8636215,"velocity":0.3937007874015748},{"duration":0.13636349999999986,"midi":82,"time":14.8636215,"velocity":0.3937007874015748},{"duration":0.13636349999999986,"midi":79,"time":15.1363485,"velocity":0.3937007874015748},{"duration":0.13636349999999986,"midi":79,"time":15.1363485,"velocity":0.3937007874015748},{"duration":0.13636350000000164,"midi":70,"time":16.4999835,"velocity":0.3937007874015748},{"duration":0.13636350000000164,"midi":70,"time":16.4999835,"velocity":0.3937007874015748},{"duration":0.13636350000000164,"midi":70,"time":16.4999835,"velocity":0.3937007874015748},{"duration":0.13636350000000164,"midi":70,"time":16.4999835,"velocity":0.3937007874015748},{"duration":0.13636350000000164,"midi":70,"time":16.4999835,"velocity":0.3937007874015748},{"duration":0.13636350000000164,"midi":67,"time":16.7727105,"velocity":0.3937007874015748},{"duration":0.13636350000000164,"midi":67,"time":16.7727105,"velocity":0.3937007874015748},{"duration":0.13636350000000164,"midi":67,"time":16.7727105,"velocity":0.3937007874015748},{"duration":0.13636350000000164,"midi":67,"time":16.7727105,"velocity":0.3937007874015748},{"duration":0.13636350000000164,"midi":67,"time":16.7727105,"velocity":0.3937007874015748},{"duration":0.13636350000000164,"midi":74,"time":17.0454375,"velocity":0.3937007874015748},{"duration":0.13636350000000164,"midi":74,"time":17.0454375,"velocity":0.3937007874015748},{"duration":0.13636350000000164,"midi":74,"time":17.0454375,"velocity":0.3937007874015748},{"duration":0.13636350000000164,"midi":74,"time":17.0454375,"velocity":0.3937007874015748},{"duration":0.13636350000000164,"midi":74,"time":17.0454375,"velocity":0.3937007874015748},{"duration":0.13636350000000164,"midi":74,"time":17.0454375,"velocity":0.3937007874015748},{"duration":0.13636350000000164,"midi":67,"time":17.318164499999998,"velocity":0.3937007874015748},{"duration":0.13636350000000164,"midi":67,"time":17.318164499999998,"velocity":0.3937007874015748},{"duration":0.13636350000000164,"midi":67,"time":17.318164499999998,"velocity":0.3937007874015748},{"duration":0.13636350000000164,"midi":67,"time":17.318164499999998,"velocity":0.3937007874015748},{"duration":0.13636350000000164,"midi":67,"time":17.318164499999998,"velocity":0.3937007874015748},{"duration":0.13636350000000164,"midi":67,"time":17.318164499999998,"velocity":0.3937007874015748},{"duration":0.13636349999999808,"midi":70,"time":17.5908915,"velocity":0.3937007874015748},{"duration":0.13636349999999808,"midi":70,"time":17.5908915,"velocity":0.3937007874015748},{"duration":0.13636349999999808,"midi":70,"time":17.5908915,"velocity":0.3937007874015748},{"duration":0.13636349999999808,"midi":70,"time":17.5908915,"velocity":0.3937007874015748},{"duration":0.13636349999999808,"midi":70,"time":17.5908915,"velocity":0.3937007874015748},{"duration":0.13636349999999808,"midi":70,"time":17.5908915,"velocity":0.3937007874015748},{"duration":0.13636349999999808,"midi":70,"time":17.5908915,"velocity":0.3937007874015748},{"duration":0.13636349999999808,"midi":70,"time":17.5908915,"velocity":0.3937007874015748},{"duration":0.13636349999999808,"midi":70,"time":17.5908915,"velocity":0.3937007874015748},{"duration":0.13636349999999808,"midi":70,"time":17.5908915,"velocity":0.3937007874015748},{"duration":0.13636349999999808,"midi":70,"time":17.5908915,"velocity":0.3937007874015748},{"duration":0.13636349999999808,"midi":70,"time":17.5908915,"velocity":0.3937007874015748},{"duration":0.13636349999999808,"midi":70,"time":17.5908915,"velocity":0.3937007874015748},{"duration":0.13636349999999808,"midi":67,"time":18.1363455,"velocity":0.3937007874015748},{"duration":0.13636349999999808,"midi":67,"time":18.1363455,"velocity":0.3937007874015748},{"duration":0.13636349999999808,"midi":67,"time":18.1363455,"velocity":0.3937007874015748},{"duration":0.13636349999999808,"midi":67,"time":18.1363455,"velocity":0.3937007874015748},{"duration":0.13636349999999808,"midi":67,"time":18.1363455,"velocity":0.3937007874015748},{"duration":0.13636349999999808,"midi":67,"time":18.1363455,"velocity":0.3937007874015748},{"duration":0.13636349999999808,"midi":67,"time":18.1363455,"velocity":0.3937007874015748},{"duration":0.13636349999999808,"midi":67,"time":18.1363455,"velocity":0.3937007874015748},{"duration":0.13636349999999808,"midi":67,"time":18.1363455,"velocity":0.3937007874015748},{"duration":0.13636349999999808,"midi":67,"time":18.1363455,"velocity":0.3937007874015748},{"duration":0.13636349999999808,"midi":67,"time":18.1363455,"velocity":0.3937007874015748},{"duration":0.13636349999999808,"midi":67,"time":18.1363455,"velocity":0.3937007874015748},{"duration":0.13636349999999808,"midi":73,"time":18.6817995,"velocity":0.3937007874015748},{"duration":0.13636349999999808,"midi":73,"time":18.6817995,"velocity":0.3937007874015748},{"duration":0.13636349999999808,"midi":74,"time":18.9545265,"velocity":0.3937007874015748},{"duration":0.13636349999999808,"midi":74,"time":18.9545265,"velocity":0.3937007874015748},{"duration":0.13636349999999808,"midi":74,"time":18.9545265,"velocity":0.3937007874015748},{"duration":0.13636349999999808,"midi":74,"time":18.9545265,"velocity":0.3937007874015748},{"duration":0.13636350000000164,"midi":82,"time":19.2272535,"velocity":0.3937007874015748},{"duration":0.13636350000000164,"midi":82,"time":19.2272535,"velocity":0.3937007874015748},{"duration":0.13636350000000164,"midi":82,"time":19.2272535,"velocity":0.3937007874015748},{"duration":0.13636350000000164,"midi":82,"time":19.2272535,"velocity":0.3937007874015748},{"duration":0.13636350000000164,"midi":79,"time":19.4999805,"velocity":0.3937007874015748},{"duration":0.13636350000000164,"midi":79,"time":19.4999805,"velocity":0.3937007874015748},{"duration":0.13636350000000164,"midi":79,"time":19.4999805,"velocity":0.3937007874015748},{"duration":0.13636350000000164,"midi":79,"time":19.4999805,"velocity":0.3937007874015748},{"duration":0.13636349999999808,"midi":70,"time":21.9545235,"velocity":0.3937007874015748},{"duration":0.13636349999999808,"midi":70,"time":21.9545235,"velocity":0.3937007874015748},{"duration":0.13636349999999808,"midi":70,"time":21.9545235,"velocity":0.3937007874015748},{"duration":0.13636349999999808,"midi":70,"time":21.9545235,"velocity":0.3937007874015748},{"duration":0.13636349999999808,"midi":70,"time":21.9545235,"velocity":0.3937007874015748},{"duration":0.13636349999999808,"midi":70,"time":21.9545235,"velocity":0.3937007874015748},{"duration":0.13636349999999808,"midi":70,"time":21.9545235,"velocity":0.3937007874015748},{"duration":0.13636349999999808,"midi":70,"time":21.9545235,"velocity":0.3937007874015748},{"duration":0.13636349999999808,"midi":70,"time":21.9545235,"velocity":0.3937007874015748},{"duration":0.13636349999999808,"midi":70,"time":21.9545235,"velocity":0.3937007874015748},{"duration":0.13636349999999808,"midi":67,"time":22.4999775,"velocity":0.3937007874015748},{"duration":0.13636349999999808,"midi":67,"time":22.4999775,"velocity":0.3937007874015748},{"duration":0.13636349999999808,"midi":67,"time":22.4999775,"velocity":0.3937007874015748},{"duration":0.13636349999999808,"midi":67,"time":22.4999775,"velocity":0.3937007874015748},{"duration":0.13636349999999808,"midi":67,"time":22.4999775,"velocity":0.3937007874015748},{"duration":0.13636349999999808,"midi":67,"time":22.4999775,"velocity":0.3937007874015748},{"duration":0.13636349999999808,"midi":67,"time":22.4999775,"velocity":0.3937007874015748},{"duration":0.13636349999999808,"midi":67,"time":22.4999775,"velocity":0.3937007874015748},{"duration":0.13636349999999808,"midi":67,"time":22.4999775,"velocity":0.3937007874015748},{"duration":0.13636349999999808,"midi":67,"time":22.4999775,"velocity":0.3937007874015748},{"duration":0.13636349999999808,"midi":67,"time":22.4999775,"velocity":0.3937007874015748},{"duration":0.13636349999999808,"midi":67,"time":22.4999775,"velocity":0.3937007874015748},{"duration":0.13636350000000164,"midi":73,"time":23.0454315,"velocity":0.3937007874015748},{"duration":0.13636350000000164,"midi":73,"time":23.0454315,"velocity":0.3937007874015748},{"duration":0.13636350000000164,"midi":74,"time":23.3181585,"velocity":0.3937007874015748},{"duration":0.13636350000000164,"midi":74,"time":23.3181585,"velocity":0.3937007874015748},{"duration":0.13636350000000164,"midi":74,"time":23.3181585,"velocity":0.3937007874015748},{"duration":0.13636350000000164,"midi":74,"time":23.3181585,"velocity":0.3937007874015748},{"duration":0.13636350000000164,"midi":82,"time":23.5908855,"velocity":0.3937007874015748},{"duration":0.13636350000000164,"midi":82,"time":23.5908855,"velocity":0.3937007874015748},{"duration":0.13636350000000164,"midi":82,"time":23.5908855,"velocity":0.3937007874015748},{"duration":0.13636350000000164,"midi":82,"time":23.5908855,"velocity":0.3937007874015748},{"duration":0.13636350000000164,"midi":79,"time":23.8636125,"velocity":0.3937007874015748},{"duration":0.13636350000000164,"midi":79,"time":23.8636125,"velocity":0.3937007874015748},{"duration":0.13636350000000164,"midi":79,"time":23.8636125,"velocity":0.3937007874015748},{"duration":0.13636350000000164,"midi":79,"time":23.8636125,"velocity":0.3937007874015748},{"duration":0.13636349999999808,"midi":70,"time":25.2272475,"velocity":0.3937007874015748},{"duration":0.13636349999999808,"midi":70,"time":25.2272475,"velocity":0.3937007874015748},{"duration":0.13636349999999808,"midi":70,"time":25.2272475,"velocity":0.3937007874015748},{"duration":0.13636349999999808,"midi":70,"time":25.2272475,"velocity":0.3937007874015748},{"duration":0.13636349999999808,"midi":70,"time":25.2272475,"velocity":0.3937007874015748},{"duration":0.13636349999999808,"midi":70,"time":25.2272475,"velocity":0.3937007874015748},{"duration":0.13636349999999808,"midi":70,"time":25.2272475,"velocity":0.3937007874015748},{"duration":0.13636349999999808,"midi":70,"time":25.2272475,"velocity":0.3937007874015748},{"duration":0.13636349999999808,"midi":70,"time":25.2272475,"velocity":0.3937007874015748},{"duration":0.13636349999999808,"midi":70,"time":25.2272475,"velocity":0.3937007874015748},{"duration":0.13636349999999808,"midi":67,"time":25.4999745,"velocity":0.3937007874015748},{"duration":0.13636349999999808,"midi":67,"time":25.4999745,"velocity":0.3937007874015748},{"duration":0.13636349999999808,"midi":67,"time":25.4999745,"velocity":0.3937007874015748},{"duration":0.13636349999999808,"midi":67,"time":25.4999745,"velocity":0.3937007874015748},{"duration":0.13636349999999808,"midi":67,"time":25.4999745,"velocity":0.3937007874015748},{"duration":0.13636349999999808,"midi":67,"time":25.4999745,"velocity":0.3937007874015748},{"duration":0.13636349999999808,"midi":67,"time":25.4999745,"velocity":0.3937007874015748},{"duration":0.13636349999999808,"midi":67,"time":25.4999745,"velocity":0.3937007874015748},{"duration":0.13636349999999808,"midi":67,"time":25.4999745,"velocity":0.3937007874015748},{"duration":0.13636349999999808,"midi":67,"time":25.4999745,"velocity":0.3937007874015748},{"duration":0.13636349999999808,"midi":74,"time":25.7727015,"velocity":0.3937007874015748},{"duration":0.13636349999999808,"midi":74,"time":25.7727015,"velocity":0.3937007874015748},{"duration":0.13636349999999808,"midi":74,"time":25.7727015,"velocity":0.3937007874015748},{"duration":0.13636349999999808,"midi":74,"time":25.7727015,"velocity":0.3937007874015748},{"duration":0.13636349999999808,"midi":74,"time":25.7727015,"velocity":0.3937007874015748},{"duration":0.13636349999999808,"midi":74,"time":25.7727015,"velocity":0.3937007874015748},{"duration":0.13636349999999808,"midi":74,"time":25.7727015,"velocity":0.3937007874015748},{"duration":0.13636349999999808,"midi":74,"time":25.7727015,"velocity":0.3937007874015748},{"duration":0.13636349999999808,"midi":74,"time":25.7727015,"velocity":0.3937007874015748},{"duration":0.13636349999999808,"midi":74,"time":25.7727015,"velocity":0.3937007874015748},{"duration":0.13636349999999808,"midi":74,"time":25.7727015,"velocity":0.3937007874015748},{"duration":0.13636349999999808,"midi":74,"time":25.7727015,"velocity":0.3937007874015748},{"duration":0.13636350000000164,"midi":67,"time":26.0454285,"velocity":0.3937007874015748},{"duration":0.13636350000000164,"midi":67,"time":26.0454285,"velocity":0.3937007874015748},{"duration":0.13636350000000164,"midi":67,"time":26.0454285,"velocity":0.3937007874015748},{"duration":0.13636350000000164,"midi":67,"time":26.0454285,"velocity":0.3937007874015748},{"duration":0.13636350000000164,"midi":67,"time":26.0454285,"velocity":0.3937007874015748},{"duration":0.13636350000000164,"midi":67,"time":26.0454285,"velocity":0.3937007874015748},{"duration":0.13636350000000164,"midi":67,"time":26.0454285,"velocity":0.3937007874015748},{"duration":0.13636350000000164,"midi":67,"time":26.0454285,"velocity":0.3937007874015748},{"duration":0.13636350000000164,"midi":67,"time":26.0454285,"velocity":0.3937007874015748},{"duration":0.13636350000000164,"midi":67,"time":26.0454285,"velocity":0.3937007874015748},{"duration":0.13636350000000164,"midi":67,"time":26.0454285,"velocity":0.3937007874015748},{"duration":0.13636350000000164,"midi":67,"time":26.0454285,"velocity":0.3937007874015748},{"duration":0.13636350000000164,"midi":70,"time":26.3181555,"velocity":0.3937007874015748},{"duration":0.13636350000000164,"midi":70,"time":26.3181555,"velocity":0.3937007874015748},{"duration":0.13636350000000164,"midi":70,"time":26.3181555,"velocity":0.3937007874015748},{"duration":0.13636350000000164,"midi":67,"time":26.8636095,"velocity":0.3937007874015748},{"duration":0.13636350000000164,"midi":67,"time":26.8636095,"velocity":0.3937007874015748},{"duration":0.13636350000000164,"midi":67,"time":26.8636095,"velocity":0.3937007874015748},{"duration":0.13636350000000164,"midi":70,"time":30.6817875,"velocity":0.3937007874015748},{"duration":0.13636350000000164,"midi":70,"time":30.6817875,"velocity":0.3937007874015748},{"duration":0.13636350000000164,"midi":70,"time":30.6817875,"velocity":0.3937007874015748},{"duration":0.13636350000000164,"midi":67,"time":31.227241499999998,"velocity":0.3937007874015748},{"duration":0.13636350000000164,"midi":67,"time":31.227241499999998,"velocity":0.3937007874015748},{"duration":0.13636350000000164,"midi":67,"time":31.227241499999998,"velocity":0.3937007874015748},{"duration":0.13636349999999453,"midi":79,"time":33.9545115,"velocity":0.3937007874015748},{"duration":0.13636350000000164,"midi":74,"time":34.2272385,"velocity":0.3937007874015748},{"duration":0.13636350000000164,"midi":74,"time":34.2272385,"velocity":0.3937007874015748},{"duration":0.13636350000000164,"midi":74,"time":34.2272385,"velocity":0.3937007874015748},{"duration":0.13636350000000164,"midi":74,"time":34.2272385,"velocity":0.3937007874015748},{"duration":0.13636349999999453,"midi":70,"time":34.4999655,"velocity":0.3937007874015748},{"duration":0.13636349999999453,"midi":70,"time":34.4999655,"velocity":0.3937007874015748},{"duration":0.13636349999999453,"midi":70,"time":34.4999655,"velocity":0.3937007874015748},{"duration":0.13636350000000164,"midi":69,"time":34.7726925,"velocity":0.3937007874015748},{"duration":0.13636350000000164,"midi":69,"time":34.7726925,"velocity":0.3937007874015748},{"duration":0.13636350000000164,"midi":69,"time":34.7726925,"velocity":0.3937007874015748}]},{"instrument":{"family":"bass","number":36,"name":"slap bass 1"},"notes":[{"duration":0.13636349999999986,"midi":31,"time":8.8636275,"velocity":0.3937007874015748},{"duration":0.13636349999999986,"midi":31,"time":8.999991,"velocity":0.3937007874015748},{"duration":0.13636349999999986,"midi":34,"time":9.4090815,"velocity":0.3937007874015748},{"duration":0.13636350000000164,"midi":34,"time":9.545444999999999,"velocity":0.3937007874015748},{"duration":0.13636349999999986,"midi":38,"time":9.9545355,"velocity":0.3937007874015748},{"duration":0.13636349999999986,"midi":38,"time":10.090899,"velocity":0.3937007874015748},{"duration":0.13636349999999986,"midi":40,"time":13.2272595,"velocity":0.3937007874015748},{"duration":0.13636349999999986,"midi":40,"time":13.363623,"velocity":0.3937007874015748},{"duration":0.13636349999999986,"midi":43,"time":13.7727135,"velocity":0.3937007874015748},{"duration":0.13636349999999986,"midi":43,"time":13.909077,"velocity":0.3937007874015748},{"duration":0.13636349999999986,"midi":46,"time":14.3181675,"velocity":0.3937007874015748},{"duration":0.13636349999999986,"midi":46,"time":14.454531,"velocity":0.3937007874015748},{"duration":0.13636349999999808,"midi":31,"time":17.5908915,"velocity":0.3937007874015748},{"duration":0.13636349999999808,"midi":31,"time":17.5908915,"velocity":0.3937007874015748},{"duration":0.13636350000000164,"midi":31,"time":17.727255,"velocity":0.3937007874015748},{"duration":0.13636350000000164,"midi":31,"time":17.727255,"velocity":0.3937007874015748},{"duration":0.13636349999999808,"midi":34,"time":18.1363455,"velocity":0.3937007874015748},{"duration":0.13636349999999808,"midi":34,"time":18.1363455,"velocity":0.3937007874015748},{"duration":0.13636350000000164,"midi":34,"time":18.272709,"velocity":0.3937007874015748},{"duration":0.13636350000000164,"midi":34,"time":18.272709,"velocity":0.3937007874015748},{"duration":0.13636349999999808,"midi":38,"time":18.6817995,"velocity":0.3937007874015748},{"duration":0.13636349999999808,"midi":38,"time":18.6817995,"velocity":0.3937007874015748},{"duration":0.13636350000000164,"midi":38,"time":18.818163,"velocity":0.3937007874015748},{"duration":0.13636350000000164,"midi":38,"time":18.818163,"velocity":0.3937007874015748},{"duration":0.13636349999999808,"midi":40,"time":21.9545235,"velocity":0.3937007874015748},{"duration":0.13636349999999808,"midi":40,"time":21.9545235,"velocity":0.3937007874015748},{"duration":0.13636350000000164,"midi":40,"time":22.090887,"velocity":0.3937007874015748},{"duration":0.13636350000000164,"midi":40,"time":22.090887,"velocity":0.3937007874015748},{"duration":0.13636349999999808,"midi":43,"time":22.4999775,"velocity":0.3937007874015748},{"duration":0.13636349999999808,"midi":43,"time":22.4999775,"velocity":0.3937007874015748},{"duration":0.13636350000000164,"midi":43,"time":22.636340999999998,"velocity":0.3937007874015748},{"duration":0.13636350000000164,"midi":43,"time":22.636340999999998,"velocity":0.3937007874015748},{"duration":0.13636350000000164,"midi":46,"time":23.0454315,"velocity":0.3937007874015748},{"duration":0.13636350000000164,"midi":46,"time":23.0454315,"velocity":0.3937007874015748},{"duration":0.13636349999999808,"midi":46,"time":23.181795,"velocity":0.3937007874015748},{"duration":0.13636349999999808,"midi":46,"time":23.181795,"velocity":0.3937007874015748},{"duration":0.13636350000000164,"midi":31,"time":35.0454195,"velocity":0.3937007874015748},{"duration":0.13636350000000164,"midi":31,"time":35.0454195,"velocity":0.3937007874015748},{"duration":0.13636349999999453,"midi":31,"time":35.181783,"velocity":0.3937007874015748},{"duration":0.13636350000000164,"midi":31,"time":35.3181465,"velocity":0.3937007874015748},{"duration":0.13636350000000164,"midi":31,"time":35.3181465,"velocity":0.3937007874015748},{"duration":0.13636350000000164,"midi":31,"time":35.45451,"velocity":0.3937007874015748},{"duration":0.13636350000000164,"midi":34,"time":35.5908735,"velocity":0.3937007874015748},{"duration":0.13636350000000164,"midi":34,"time":35.5908735,"velocity":0.3937007874015748},{"duration":0.13636349999999453,"midi":34,"time":35.727237,"velocity":0.3937007874015748},{"duration":0.13636350000000164,"midi":31,"time":35.8636005,"velocity":0.3937007874015748},{"duration":0.13636350000000164,"midi":31,"time":35.8636005,"velocity":0.3937007874015748},{"duration":0.13636350000000164,"midi":31,"time":35.999964,"velocity":0.3937007874015748},{"duration":0.13636350000000164,"midi":36,"time":36.1363275,"velocity":0.3937007874015748},{"duration":0.13636350000000164,"midi":36,"time":36.1363275,"velocity":0.3937007874015748},{"duration":0.13636349999999453,"midi":36,"time":36.272691,"velocity":0.3937007874015748},{"duration":0.13636350000000164,"midi":31,"time":36.409054499999996,"velocity":0.3937007874015748},{"duration":0.13636350000000164,"midi":31,"time":36.409054499999996,"velocity":0.3937007874015748},{"duration":0.13636350000000164,"midi":31,"time":36.545418,"velocity":0.3937007874015748},{"duration":0.13636350000000164,"midi":37,"time":36.6817815,"velocity":0.3937007874015748},{"duration":0.13636350000000164,"midi":37,"time":36.6817815,"velocity":0.3937007874015748},{"duration":0.13636350000000164,"midi":37,"time":36.818145,"velocity":0.3937007874015748},{"duration":0.13636349999999453,"midi":38,"time":36.9545085,"velocity":0.3937007874015748},{"duration":0.13636349999999453,"midi":38,"time":36.9545085,"velocity":0.3937007874015748},{"duration":0.13636350000000164,"midi":38,"time":37.090872,"velocity":0.3937007874015748},{"duration":0.13636350000000164,"midi":36,"time":37.2272355,"velocity":0.3937007874015748},{"duration":0.13636350000000164,"midi":36,"time":37.2272355,"velocity":0.3937007874015748},{"duration":0.13636350000000164,"midi":36,"time":37.363599,"velocity":0.3937007874015748},{"duration":0.13636349999999453,"midi":36,"time":37.4999625,"velocity":0.3937007874015748},{"duration":0.13636349999999453,"midi":36,"time":37.4999625,"velocity":0.3937007874015748},{"duration":0.13636350000000164,"midi":36,"time":37.636326,"velocity":0.3937007874015748},{"duration":0.13636350000000164,"midi":39,"time":37.7726895,"velocity":0.3937007874015748},{"duration":0.13636350000000164,"midi":39,"time":37.7726895,"velocity":0.3937007874015748},{"duration":0.13636350000000164,"midi":39,"time":37.909053,"velocity":0.3937007874015748},{"duration":0.13636349999999453,"midi":36,"time":38.0454165,"velocity":0.3937007874015748},{"duration":0.13636349999999453,"midi":36,"time":38.0454165,"velocity":0.3937007874015748},{"duration":0.13636350000000164,"midi":36,"time":38.181779999999996,"velocity":0.3937007874015748},{"duration":0.13636350000000164,"midi":39,"time":38.3181435,"velocity":0.3937007874015748},{"duration":0.13636350000000164,"midi":39,"time":38.3181435,"velocity":0.3937007874015748},{"duration":0.13636350000000164,"midi":39,"time":38.454507,"velocity":0.3937007874015748},{"duration":0.13636350000000164,"midi":36,"time":38.5908705,"velocity":0.3937007874015748},{"duration":0.13636350000000164,"midi":36,"time":38.5908705,"velocity":0.3937007874015748},{"duration":0.13636349999999453,"midi":36,"time":38.727234,"velocity":0.3937007874015748},{"duration":0.13636350000000164,"midi":42,"time":38.8635975,"velocity":0.3937007874015748},{"duration":0.13636350000000164,"midi":42,"time":38.8635975,"velocity":0.3937007874015748},{"duration":0.13636350000000164,"midi":42,"time":38.999961,"velocity":0.3937007874015748},{"duration":0.13636350000000164,"midi":43,"time":39.1363245,"velocity":0.3937007874015748},{"duration":0.13636350000000164,"midi":43,"time":39.1363245,"velocity":0.3937007874015748},{"duration":0.13636349999999453,"midi":43,"time":39.272688,"velocity":0.3937007874015748},{"duration":0.13636350000000164,"midi":38,"time":39.4090515,"velocity":0.3937007874015748},{"duration":0.13636350000000164,"midi":38,"time":39.4090515,"velocity":0.3937007874015748},{"duration":0.13636350000000164,"midi":38,"time":39.545415,"velocity":0.3937007874015748},{"duration":0.13636350000000164,"midi":38,"time":39.6817785,"velocity":0.3937007874015748},{"duration":0.13636350000000164,"midi":38,"time":39.6817785,"velocity":0.3937007874015748},{"duration":0.13636349999999453,"midi":38,"time":39.818142,"velocity":0.3937007874015748},{"duration":0.13636350000000164,"midi":42,"time":39.954505499999996,"velocity":0.3937007874015748},{"duration":0.13636350000000164,"midi":42,"time":40.090869,"velocity":0.3937007874015748},{"duration":0.13636350000000164,"midi":38,"time":40.2272325,"velocity":0.3937007874015748},{"duration":0.13636350000000164,"midi":38,"time":40.2272325,"velocity":0.3937007874015748},{"duration":0.13636350000000164,"midi":38,"time":40.363596,"velocity":0.3937007874015748},{"duration":0.13636349999999453,"midi":45,"time":40.4999595,"velocity":0.3937007874015748},{"duration":0.13636349999999453,"midi":45,"time":40.4999595,"velocity":0.3937007874015748},{"duration":0.13636350000000164,"midi":45,"time":40.636323,"velocity":0.3937007874015748},{"duration":0.13636350000000164,"midi":38,"time":40.7726865,"velocity":0.3937007874015748},{"duration":0.13636350000000164,"midi":38,"time":40.7726865,"velocity":0.3937007874015748},{"duration":0.13636350000000164,"midi":38,"time":40.90905,"velocity":0.3937007874015748},{"duration":0.13636349999999453,"midi":48,"time":41.0454135,"velocity":0.3937007874015748},{"duration":0.13636349999999453,"midi":48,"time":41.0454135,"velocity":0.3937007874015748},{"duration":0.13636350000000164,"midi":48,"time":41.181777,"velocity":0.3937007874015748},{"duration":0.13636350000000164,"midi":45,"time":41.3181405,"velocity":0.3937007874015748},{"duration":0.13636350000000164,"midi":45,"time":41.3181405,"velocity":0.3937007874015748},{"duration":0.13636350000000164,"midi":45,"time":41.454504,"velocity":0.3937007874015748},{"duration":0.13636349999999453,"midi":31,"time":41.5908675,"velocity":0.3937007874015748},{"duration":0.13636349999999453,"midi":31,"time":41.5908675,"velocity":0.3937007874015748},{"duration":0.13636350000000164,"midi":31,"time":41.727230999999996,"velocity":0.3937007874015748},{"duration":0.13636350000000164,"midi":31,"time":41.8635945,"velocity":0.3937007874015748},{"duration":0.13636350000000164,"midi":31,"time":41.8635945,"velocity":0.3937007874015748},{"duration":0.13636350000000164,"midi":31,"time":41.999958,"velocity":0.3937007874015748},{"duration":0.13636350000000164,"midi":34,"time":42.1363215,"velocity":0.3937007874015748},{"duration":0.13636350000000164,"midi":34,"time":42.1363215,"velocity":0.3937007874015748},{"duration":0.13636349999999453,"midi":34,"time":42.272685,"velocity":0.3937007874015748},{"duration":0.13636350000000164,"midi":31,"time":42.4090485,"velocity":0.3937007874015748},{"duration":0.13636350000000164,"midi":31,"time":42.4090485,"velocity":0.3937007874015748},{"duration":0.13636350000000164,"midi":31,"time":42.545412,"velocity":0.3937007874015748},{"duration":0.13636350000000164,"midi":36,"time":42.6817755,"velocity":0.3937007874015748},{"duration":0.13636350000000164,"midi":36,"time":42.6817755,"velocity":0.3937007874015748},{"duration":0.13636349999999453,"midi":36,"time":42.818139,"velocity":0.3937007874015748},{"duration":0.13636350000000164,"midi":31,"time":42.9545025,"velocity":0.3937007874015748},{"duration":0.13636350000000164,"midi":31,"time":42.9545025,"velocity":0.3937007874015748},{"duration":0.13636350000000164,"midi":31,"time":43.090866,"velocity":0.3937007874015748},{"duration":0.13636350000000164,"midi":37,"time":43.2272295,"velocity":0.3937007874015748},{"duration":0.13636350000000164,"midi":37,"time":43.2272295,"velocity":0.3937007874015748},{"duration":0.13636349999999453,"midi":37,"time":43.363593,"velocity":0.3937007874015748},{"duration":0.13636350000000164,"midi":38,"time":43.499956499999996,"velocity":0.3937007874015748},{"duration":0.13636350000000164,"midi":38,"time":43.499956499999996,"velocity":0.3937007874015748},{"duration":0.13636350000000164,"midi":38,"time":43.63632,"velocity":0.3937007874015748}]},{"instrument":{"family":"drums","number":0,"name":"standard kit"},"notes":[{"duration":0.13636349999999986,"midi":36,"time":8.8636275,"velocity":0.3937007874015748},{"duration":0.13636349999999986,"midi":43,"time":9.1363545,"velocity":0.3937007874015748},{"duration":0.13636349999999986,"midi":41,"time":9.1363545,"velocity":0.3937007874015748},{"duration":0.13636349999999986,"midi":43,"time":9.272718,"velocity":0.3937007874015748},{"duration":0.13636349999999986,"midi":41,"time":9.272718,"velocity":0.3937007874015748},{"duration":0.13636349999999986,"midi":36,"time":9.4090815,"velocity":0.3937007874015748},{"duration":0.13636349999999986,"midi":43,"time":9.6818085,"velocity":0.3937007874015748},{"duration":0.13636349999999986,"midi":41,"time":9.6818085,"velocity":0.3937007874015748},{"duration":0.13636349999999986,"midi":41,"time":9.818172,"velocity":0.3937007874015748},{"duration":0.13636349999999986,"midi":43,"time":9.818172,"velocity":0.3937007874015748},{"duration":0.13636349999999986,"midi":36,"time":9.9545355,"velocity":0.3937007874015748},{"duration":0.13636349999999986,"midi":43,"time":10.2272625,"velocity":0.3937007874015748},{"duration":0.13636349999999986,"midi":41,"time":10.2272625,"velocity":0.3937007874015748},{"duration":0.13636349999999986,"midi":41,"time":10.2272625,"velocity":0.3937007874015748},{"duration":0.13636349999999986,"midi":43,"time":10.2272625,"velocity":0.3937007874015748},{"duration":0.13636349999999986,"midi":43,"time":10.363626,"velocity":0.3937007874015748},{"duration":0.13636349999999986,"midi":41,"time":10.363626,"velocity":0.3937007874015748},{"duration":0.13636349999999986,"midi":43,"time":10.4999895,"velocity":0.3937007874015748},{"duration":0.13636349999999986,"midi":41,"time":10.4999895,"velocity":0.3937007874015748},{"duration":0.13636349999999986,"midi":85,"time":13.2272595,"velocity":0.3937007874015748},{"duration":0.13636349999999986,"midi":36,"time":13.2272595,"velocity":0.3937007874015748},{"duration":0.13636349999999986,"midi":41,"time":13.4999865,"velocity":0.3937007874015748},{"duration":0.13636349999999986,"midi":43,"time":13.4999865,"velocity":0.3937007874015748},{"duration":0.13636349999999986,"midi":43,"time":13.63635,"velocity":0.3937007874015748},{"duration":0.13636349999999986,"midi":41,"time":13.63635,"velocity":0.3937007874015748},{"duration":0.13636349999999986,"midi":36,"time":13.7727135,"velocity":0.3937007874015748},{"duration":0.13636349999999986,"midi":43,"time":14.0454405,"velocity":0.3937007874015748},{"duration":0.13636349999999986,"midi":41,"time":14.0454405,"velocity":0.3937007874015748},{"duration":0.13636349999999986,"midi":43,"time":14.181804,"velocity":0.3937007874015748},{"duration":0.13636349999999986,"midi":41,"time":14.181804,"velocity":0.3937007874015748},{"duration":0.13636349999999986,"midi":36,"time":14.3181675,"velocity":0.3937007874015748},{"duration":0.13636349999999986,"midi":43,"time":14.5908945,"velocity":0.3937007874015748},{"duration":0.13636349999999986,"midi":41,"time":14.5908945,"velocity":0.3937007874015748},{"duration":0.13636349999999986,"midi":43,"time":14.5908945,"velocity":0.3937007874015748},{"duration":0.13636349999999986,"midi":41,"time":14.5908945,"velocity":0.3937007874015748},{"duration":0.13636350000000164,"midi":43,"time":14.727257999999999,"velocity":0.3937007874015748},{"duration":0.13636350000000164,"midi":41,"time":14.727257999999999,"velocity":0.3937007874015748},{"duration":0.13636349999999986,"midi":41,"time":14.8636215,"velocity":0.3937007874015748},{"duration":0.13636349999999986,"midi":43,"time":14.8636215,"velocity":0.3937007874015748},{"duration":0.13636349999999808,"midi":36,"time":17.5908915,"velocity":0.3937007874015748},{"duration":0.13636349999999808,"midi":36,"time":17.5908915,"velocity":0.3937007874015748},{"duration":0.13636349999999808,"midi":43,"time":17.8636185,"velocity":0.3937007874015748},{"duration":0.13636349999999808,"midi":43,"time":17.8636185,"velocity":0.3937007874015748},{"duration":0.13636349999999808,"midi":41,"time":17.8636185,"velocity":0.3937007874015748},{"duration":0.13636349999999808,"midi":41,"time":17.8636185,"velocity":0.3937007874015748},{"duration":0.13636350000000164,"midi":41,"time":17.999982,"velocity":0.3937007874015748},{"duration":0.13636350000000164,"midi":43,"time":17.999982,"velocity":0.3937007874015748},{"duration":0.13636350000000164,"midi":43,"time":17.999982,"velocity":0.3937007874015748},{"duration":0.13636350000000164,"midi":41,"time":17.999982,"velocity":0.3937007874015748},{"duration":0.13636349999999808,"midi":36,"time":18.1363455,"velocity":0.3937007874015748},{"duration":0.13636349999999808,"midi":36,"time":18.1363455,"velocity":0.3937007874015748},{"duration":0.13636349999999808,"midi":43,"time":18.4090725,"velocity":0.3937007874015748},{"duration":0.13636349999999808,"midi":41,"time":18.4090725,"velocity":0.3937007874015748},{"duration":0.13636349999999808,"midi":41,"time":18.4090725,"velocity":0.3937007874015748},{"duration":0.13636349999999808,"midi":43,"time":18.4090725,"velocity":0.3937007874015748},{"duration":0.13636350000000164,"midi":43,"time":18.545436,"velocity":0.3937007874015748},{"duration":0.13636350000000164,"midi":41,"time":18.545436,"velocity":0.3937007874015748},{"duration":0.13636350000000164,"midi":41,"time":18.545436,"velocity":0.3937007874015748},{"duration":0.13636350000000164,"midi":43,"time":18.545436,"velocity":0.3937007874015748},{"duration":0.13636349999999808,"midi":36,"time":18.6817995,"velocity":0.3937007874015748},{"duration":0.13636349999999808,"midi":36,"time":18.6817995,"velocity":0.3937007874015748},{"duration":0.13636349999999808,"midi":41,"time":18.9545265,"velocity":0.3937007874015748},{"duration":0.13636349999999808,"midi":41,"time":18.9545265,"velocity":0.3937007874015748},{"duration":0.13636349999999808,"midi":43,"time":18.9545265,"velocity":0.3937007874015748},{"duration":0.13636349999999808,"midi":43,"time":18.9545265,"velocity":0.3937007874015748},{"duration":0.13636349999999808,"midi":41,"time":18.9545265,"velocity":0.3937007874015748},{"duration":0.13636349999999808,"midi":43,"time":18.9545265,"velocity":0.3937007874015748},{"duration":0.13636349999999808,"midi":41,"time":18.9545265,"velocity":0.3937007874015748},{"duration":0.13636349999999808,"midi":43,"time":18.9545265,"velocity":0.3937007874015748},{"duration":0.13636350000000164,"midi":41,"time":19.090889999999998,"velocity":0.3937007874015748},{"duration":0.13636350000000164,"midi":41,"time":19.090889999999998,"velocity":0.3937007874015748},{"duration":0.13636350000000164,"midi":43,"time":19.090889999999998,"velocity":0.3937007874015748},{"duration":0.13636350000000164,"midi":43,"time":19.090889999999998,"velocity":0.3937007874015748},{"duration":0.13636350000000164,"midi":43,"time":19.2272535,"velocity":0.3937007874015748},{"duration":0.13636350000000164,"midi":41,"time":19.2272535,"velocity":0.3937007874015748},{"duration":0.13636350000000164,"midi":43,"time":19.2272535,"velocity":0.3937007874015748},{"duration":0.13636350000000164,"midi":41,"time":19.2272535,"velocity":0.3937007874015748},{"duration":0.13636349999999808,"midi":36,"time":21.9545235,"velocity":0.3937007874015748},{"duration":0.13636349999999808,"midi":36,"time":21.9545235,"velocity":0.3937007874015748},{"duration":0.13636349999999808,"midi":43,"time":22.2272505,"velocity":0.3937007874015748},{"duration":0.13636349999999808,"midi":43,"time":22.2272505,"velocity":0.3937007874015748},{"duration":0.13636349999999808,"midi":41,"time":22.2272505,"velocity":0.3937007874015748},{"duration":0.13636349999999808,"midi":41,"time":22.2272505,"velocity":0.3937007874015748},{"duration":0.13636350000000164,"midi":43,"time":22.363614,"velocity":0.3937007874015748},{"duration":0.13636350000000164,"midi":43,"time":22.363614,"velocity":0.3937007874015748},{"duration":0.13636350000000164,"midi":41,"time":22.363614,"velocity":0.3937007874015748},{"duration":0.13636350000000164,"midi":41,"time":22.363614,"velocity":0.3937007874015748},{"duration":0.13636349999999808,"midi":36,"time":22.4999775,"velocity":0.3937007874015748},{"duration":0.13636349999999808,"midi":36,"time":22.4999775,"velocity":0.3937007874015748},{"duration":0.13636350000000164,"midi":41,"time":22.7727045,"velocity":0.3937007874015748},{"duration":0.13636350000000164,"midi":41,"time":22.7727045,"velocity":0.3937007874015748},{"duration":0.13636350000000164,"midi":43,"time":22.7727045,"velocity":0.3937007874015748},{"duration":0.13636350000000164,"midi":43,"time":22.7727045,"velocity":0.3937007874015748},{"duration":0.13636349999999808,"midi":43,"time":22.909068,"velocity":0.3937007874015748},{"duration":0.13636349999999808,"midi":41,"time":22.909068,"velocity":0.3937007874015748},{"duration":0.13636349999999808,"midi":41,"time":22.909068,"velocity":0.3937007874015748},{"duration":0.13636349999999808,"midi":43,"time":22.909068,"velocity":0.3937007874015748},{"duration":0.13636350000000164,"midi":36,"time":23.0454315,"velocity":0.3937007874015748},{"duration":0.13636350000000164,"midi":36,"time":23.0454315,"velocity":0.3937007874015748},{"duration":0.13636350000000164,"midi":43,"time":23.3181585,"velocity":0.3937007874015748},{"duration":0.13636350000000164,"midi":41,"time":23.3181585,"velocity":0.3937007874015748},{"duration":0.13636350000000164,"midi":43,"time":23.3181585,"velocity":0.3937007874015748},{"duration":0.13636350000000164,"midi":41,"time":23.3181585,"velocity":0.3937007874015748},{"duration":0.13636350000000164,"midi":41,"time":23.3181585,"velocity":0.3937007874015748},{"duration":0.13636350000000164,"midi":41,"time":23.3181585,"velocity":0.3937007874015748},{"duration":0.13636350000000164,"midi":43,"time":23.3181585,"velocity":0.3937007874015748},{"duration":0.13636350000000164,"midi":43,"time":23.3181585,"velocity":0.3937007874015748},{"duration":0.13636349999999808,"midi":41,"time":23.454522,"velocity":0.3937007874015748},{"duration":0.13636349999999808,"midi":43,"time":23.454522,"velocity":0.3937007874015748},{"duration":0.13636349999999808,"midi":43,"time":23.454522,"velocity":0.3937007874015748},{"duration":0.13636349999999808,"midi":41,"time":23.454522,"velocity":0.3937007874015748},{"duration":0.13636350000000164,"midi":43,"time":23.5908855,"velocity":0.3937007874015748},{"duration":0.13636350000000164,"midi":43,"time":23.5908855,"velocity":0.3937007874015748},{"duration":0.13636350000000164,"midi":41,"time":23.5908855,"velocity":0.3937007874015748},{"duration":0.13636350000000164,"midi":41,"time":23.5908855,"velocity":0.3937007874015748},{"duration":0.13636350000000164,"midi":36,"time":35.0454195,"velocity":0.3937007874015748},{"duration":0.13636350000000164,"midi":36,"time":35.3181465,"velocity":0.3937007874015748},{"duration":0.13636350000000164,"midi":40,"time":35.5908735,"velocity":0.3937007874015748},{"duration":0.13636350000000164,"midi":38,"time":35.5908735,"velocity":0.3937007874015748},{"duration":0.13636350000000164,"midi":41,"time":35.5908735,"velocity":0.3937007874015748},{"duration":0.13636350000000164,"midi":39,"time":35.5908735,"velocity":0.3937007874015748},{"duration":0.13636350000000164,"midi":36,"time":36.1363275,"velocity":0.3937007874015748},{"duration":0.13636350000000164,"midi":36,"time":36.409054499999996,"velocity":0.3937007874015748},{"duration":0.13636350000000164,"midi":39,"time":36.6817815,"velocity":0.3937007874015748},{"duration":0.13636350000000164,"midi":40,"time":36.6817815,"velocity":0.3937007874015748},{"duration":0.13636350000000164,"midi":41,"time":36.6817815,"velocity":0.3937007874015748},{"duration":0.13636350000000164,"midi":38,"time":36.6817815,"velocity":0.3937007874015748},{"duration":0.13636350000000164,"midi":36,"time":37.2272355,"velocity":0.3937007874015748},{"duration":0.13636349999999453,"midi":36,"time":37.4999625,"velocity":0.3937007874015748},{"duration":0.13636350000000164,"midi":41,"time":37.7726895,"velocity":0.3937007874015748},{"duration":0.13636350000000164,"midi":38,"time":37.7726895,"velocity":0.3937007874015748},{"duration":0.13636350000000164,"midi":39,"time":37.7726895,"velocity":0.3937007874015748},{"duration":0.13636350000000164,"midi":40,"time":37.7726895,"velocity":0.3937007874015748},{"duration":0.13636350000000164,"midi":36,"time":38.3181435,"velocity":0.3937007874015748},{"duration":0.13636350000000164,"midi":36,"time":38.5908705,"velocity":0.3937007874015748},{"duration":0.13636350000000164,"midi":39,"time":38.8635975,"velocity":0.3937007874015748},{"duration":0.13636350000000164,"midi":38,"time":38.8635975,"velocity":0.3937007874015748},{"duration":0.13636350000000164,"midi":40,"time":38.8635975,"velocity":0.3937007874015748},{"duration":0.13636350000000164,"midi":41,"time":38.8635975,"velocity":0.3937007874015748},{"duration":0.13636350000000164,"midi":36,"time":39.4090515,"velocity":0.3937007874015748},{"duration":0.13636350000000164,"midi":36,"time":39.6817785,"velocity":0.3937007874015748},{"duration":0.13636350000000164,"midi":38,"time":39.954505499999996,"velocity":0.3937007874015748},{"duration":0.13636350000000164,"midi":39,"time":39.954505499999996,"velocity":0.3937007874015748},{"duration":0.13636350000000164,"midi":40,"time":39.954505499999996,"velocity":0.3937007874015748},{"duration":0.13636350000000164,"midi":41,"time":39.954505499999996,"velocity":0.3937007874015748},{"duration":0.13636349999999453,"midi":36,"time":40.4999595,"velocity":0.3937007874015748},{"duration":0.13636350000000164,"midi":36,"time":40.7726865,"velocity":0.3937007874015748},{"duration":0.13636349999999453,"midi":39,"time":41.0454135,"velocity":0.3937007874015748},{"duration":0.13636349999999453,"midi":40,"time":41.0454135,"velocity":0.3937007874015748},{"duration":0.13636349999999453,"midi":41,"time":41.0454135,"velocity":0.3937007874015748},{"duration":0.13636349999999453,"midi":38,"time":41.0454135,"velocity":0.3937007874015748},{"duration":0.13636349999999453,"midi":36,"time":41.5908675,"velocity":0.3937007874015748},{"duration":0.13636350000000164,"midi":36,"time":41.8635945,"velocity":0.3937007874015748},{"duration":0.13636350000000164,"midi":40,"time":42.1363215,"velocity":0.3937007874015748},{"duration":0.13636350000000164,"midi":38,"time":42.1363215,"velocity":0.3937007874015748},{"duration":0.13636350000000164,"midi":39,"time":42.1363215,"velocity":0.3937007874015748},{"duration":0.13636350000000164,"midi":41,"time":42.1363215,"velocity":0.3937007874015748},{"duration":0.13636350000000164,"midi":36,"time":42.6817755,"velocity":0.3937007874015748},{"duration":0.13636350000000164,"midi":36,"time":42.9545025,"velocity":0.3937007874015748},{"duration":0.13636350000000164,"midi":40,"time":43.2272295,"velocity":0.3937007874015748},{"duration":0.13636350000000164,"midi":39,"time":43.2272295,"velocity":0.3937007874015748},{"duration":0.13636350000000164,"midi":38,"time":43.2272295,"velocity":0.3937007874015748},{"duration":0.13636350000000164,"midi":41,"time":43.2272295,"velocity":0.3937007874015748},{"duration":0.13636350000000164,"midi":36,"time":43.7726835,"velocity":0.3937007874015748},{"duration":0.13636349999999453,"midi":36,"time":44.0454105,"velocity":0.3937007874015748},{"duration":0.13636350000000164,"midi":39,"time":44.3181375,"velocity":0.3937007874015748},{"duration":0.13636350000000164,"midi":41,"time":44.3181375,"velocity":0.3937007874015748},{"duration":0.13636350000000164,"midi":40,"time":44.3181375,"velocity":0.3937007874015748},{"duration":0.13636350000000164,"midi":38,"time":44.3181375,"velocity":0.3937007874015748},{"duration":0.13636350000000164,"midi":36,"time":44.8635915,"velocity":0.3937007874015748},{"duration":0.13636349999999453,"midi":36,"time":45.1363185,"velocity":0.3937007874015748},{"duration":0.13636350000000164,"midi":38,"time":45.4090455,"velocity":0.3937007874015748},{"duration":0.13636350000000164,"midi":40,"time":45.4090455,"velocity":0.3937007874015748},{"duration":0.13636350000000164,"midi":39,"time":45.4090455,"velocity":0.3937007874015748},{"duration":0.13636350000000164,"midi":41,"time":45.4090455,"velocity":0.3937007874015748},{"duration":0.13636350000000164,"midi":36,"time":45.9544995,"velocity":0.3937007874015748},{"duration":0.13636350000000164,"midi":36,"time":46.2272265,"velocity":0.3937007874015748},{"duration":0.13636350000000164,"midi":39,"time":46.4999535,"velocity":0.3937007874015748},{"duration":0.13636350000000164,"midi":40,"time":46.4999535,"velocity":0.3937007874015748},{"duration":0.13636350000000164,"midi":41,"time":46.4999535,"velocity":0.3937007874015748},{"duration":0.13636350000000164,"midi":38,"time":46.4999535,"velocity":0.3937007874015748},{"duration":0.13636350000000164,"midi":36,"time":47.045407499999996,"velocity":0.3937007874015748},{"duration":0.13636350000000164,"midi":36,"time":47.3181345,"velocity":0.3937007874015748},{"duration":0.13636349999999453,"midi":40,"time":47.5908615,"velocity":0.3937007874015748},{"duration":0.13636349999999453,"midi":39,"time":47.5908615,"velocity":0.3937007874015748},{"duration":0.13636349999999453,"midi":41,"time":47.5908615,"velocity":0.3937007874015748},{"duration":0.13636349999999453,"midi":38,"time":47.5908615,"velocity":0.3937007874015748},{"duration":0.13636350000000164,"midi":36,"time":50.3181315,"velocity":0.3937007874015748},{"duration":0.13636350000000164,"midi":36,"time":50.590858499999996,"velocity":0.3937007874015748},{"duration":0.13636350000000164,"midi":40,"time":50.8635855,"velocity":0.3937007874015748},{"duration":0.13636350000000164,"midi":41,"time":50.8635855,"velocity":0.3937007874015748},{"duration":0.13636350000000164,"midi":38,"time":50.8635855,"velocity":0.3937007874015748},{"duration":0.13636350000000164,"midi":39,"time":50.8635855,"velocity":0.3937007874015748},{"duration":0.13636350000000164,"midi":36,"time":51.4090395,"velocity":0.3937007874015748},{"duration":0.13636349999999453,"midi":36,"time":51.6817665,"velocity":0.3937007874015748},{"duration":0.13636350000000164,"midi":41,"time":51.9544935,"velocity":0.3937007874015748},{"duration":0.13636350000000164,"midi":38,"time":51.9544935,"velocity":0.3937007874015748},{"duration":0.13636350000000164,"midi":39,"time":51.9544935,"velocity":0.3937007874015748},{"duration":0.13636350000000164,"midi":40,"time":51.9544935,"velocity":0.3937007874015748},{"duration":0.13636350000000164,"midi":36,"time":52.4999475,"velocity":0.3937007874015748},{"duration":0.13636350000000164,"midi":36,"time":52.7726745,"velocity":0.3937007874015748},{"duration":0.13636350000000164,"midi":39,"time":53.0454015,"velocity":0.3937007874015748},{"duration":0.13636350000000164,"midi":38,"time":53.0454015,"velocity":0.3937007874015748},{"duration":0.13636350000000164,"midi":40,"time":53.0454015,"velocity":0.3937007874015748},{"duration":0.13636350000000164,"midi":41,"time":53.0454015,"velocity":0.3937007874015748},{"duration":0.13636350000000164,"midi":36,"time":53.590855499999996,"velocity":0.3937007874015748},{"duration":0.13636350000000164,"midi":36,"time":53.8635825,"velocity":0.3937007874015748},{"duration":0.13636349999999453,"midi":39,"time":54.1363095,"velocity":0.3937007874015748},{"duration":0.13636349999999453,"midi":38,"time":54.1363095,"velocity":0.3937007874015748},{"duration":0.13636349999999453,"midi":40,"time":54.1363095,"velocity":0.3937007874015748},{"duration":0.13636349999999453,"midi":41,"time":54.1363095,"velocity":0.3937007874015748},{"duration":0.13636349999999453,"midi":36,"time":54.6817635,"velocity":0.3937007874015748},{"duration":0.13636350000000164,"midi":36,"time":54.9544905,"velocity":0.3937007874015748},{"duration":0.13636349999999453,"midi":39,"time":55.2272175,"velocity":0.3937007874015748},{"duration":0.13636349999999453,"midi":40,"time":55.2272175,"velocity":0.3937007874015748},{"duration":0.13636349999999453,"midi":41,"time":55.2272175,"velocity":0.3937007874015748},{"duration":0.13636349999999453,"midi":38,"time":55.2272175,"velocity":0.3937007874015748},{"duration":0.13636350000000164,"midi":36,"time":55.7726715,"velocity":0.3937007874015748},{"duration":0.13636350000000164,"midi":36,"time":56.0453985,"velocity":0.3937007874015748},{"duration":0.13636350000000164,"midi":41,"time":56.3181255,"velocity":0.3937007874015748},{"duration":0.13636350000000164,"midi":39,"time":56.3181255,"velocity":0.3937007874015748},{"duration":0.13636350000000164,"midi":38,"time":56.3181255,"velocity":0.3937007874015748},{"duration":0.13636350000000164,"midi":40,"time":56.3181255,"velocity":0.3937007874015748},{"duration":0.13636350000000164,"midi":36,"time":56.8635795,"velocity":0.3937007874015748},{"duration":0.13636350000000164,"midi":36,"time":57.136306499999996,"velocity":0.3937007874015748},{"duration":0.13636350000000164,"midi":41,"time":57.4090335,"velocity":0.3937007874015748},{"duration":0.13636350000000164,"midi":40,"time":57.4090335,"velocity":0.3937007874015748},{"duration":0.13636350000000164,"midi":39,"time":57.4090335,"velocity":0.3937007874015748},{"duration":0.13636350000000164,"midi":38,"time":57.4090335,"velocity":0.3937007874015748},{"duration":0.13636350000000164,"midi":36,"time":57.9544875,"velocity":0.3937007874015748},{"duration":0.13636349999999453,"midi":36,"time":58.2272145,"velocity":0.3937007874015748},{"duration":0.13636350000000164,"midi":41,"time":58.4999415,"velocity":0.3937007874015748},{"duration":0.13636350000000164,"midi":40,"time":58.4999415,"velocity":0.3937007874015748},{"duration":0.13636350000000164,"midi":39,"time":58.4999415,"velocity":0.3937007874015748},{"duration":0.13636350000000164,"midi":38,"time":58.4999415,"velocity":0.3937007874015748},{"duration":0.13636350000000164,"midi":36,"time":59.0453955,"velocity":0.3937007874015748},{"duration":0.13636350000000164,"midi":36,"time":59.3181225,"velocity":0.3937007874015748},{"duration":0.13636350000000164,"midi":40,"time":59.5908495,"velocity":0.3937007874015748},{"duration":0.13636350000000164,"midi":41,"time":59.5908495,"velocity":0.3937007874015748},{"duration":0.13636350000000164,"midi":39,"time":59.5908495,"velocity":0.3937007874015748},{"duration":0.13636350000000164,"midi":38,"time":59.5908495,"velocity":0.3937007874015748},{"duration":0.13636350000000164,"midi":36,"time":60.1363035,"velocity":0.3937007874015748},{"duration":0.13636350000000164,"midi":36,"time":60.4090305,"velocity":0.3937007874015748},{"duration":0.13636350000000164,"midi":41,"time":60.681757499999996,"velocity":0.3937007874015748},{"duration":0.13636350000000164,"midi":40,"time":60.681757499999996,"velocity":0.3937007874015748},{"duration":0.13636350000000164,"midi":39,"time":60.681757499999996,"velocity":0.3937007874015748},{"duration":0.13636350000000164,"midi":38,"time":60.681757499999996,"velocity":0.3937007874015748},{"duration":0.13636349999999453,"midi":36,"time":61.2272115,"velocity":0.3937007874015748},{"duration":0.13636350000000164,"midi":36,"time":61.4999385,"velocity":0.3937007874015748},{"duration":0.13636349999999453,"midi":39,"time":61.7726655,"velocity":0.3937007874015748},{"duration":0.13636349999999453,"midi":40,"time":61.7726655,"velocity":0.3937007874015748},{"duration":0.13636349999999453,"midi":41,"time":61.7726655,"velocity":0.3937007874015748},{"duration":0.13636349999999453,"midi":38,"time":61.7726655,"velocity":0.3937007874015748},{"duration":0.13636349999999453,"midi":36,"time":62.3181195,"velocity":0.3937007874015748},{"duration":0.13636350000000164,"midi":36,"time":62.5908465,"velocity":0.3937007874015748},{"duration":0.13636350000000164,"midi":39,"time":62.8635735,"velocity":0.3937007874015748},{"duration":0.13636350000000164,"midi":40,"time":62.8635735,"velocity":0.3937007874015748},{"duration":0.13636350000000164,"midi":41,"time":62.8635735,"velocity":0.3937007874015748},{"duration":0.13636350000000164,"midi":38,"time":62.8635735,"velocity":0.3937007874015748},{"duration":0.13636350000000164,"midi":36,"time":63.4090275,"velocity":0.3937007874015748},{"duration":0.13636350000000164,"midi":36,"time":63.6817545,"velocity":0.3937007874015748},{"duration":0.13636350000000164,"midi":41,"time":63.9544815,"velocity":0.3937007874015748},{"duration":0.13636350000000164,"midi":38,"time":63.9544815,"velocity":0.3937007874015748},{"duration":0.13636350000000164,"midi":40,"time":63.9544815,"velocity":0.3937007874015748},{"duration":0.13636350000000164,"midi":39,"time":63.9544815,"velocity":0.3937007874015748},{"duration":0.13636350000000164,"midi":36,"time":64.49993549999999,"velocity":0.3937007874015748},{"duration":0.13636350000000164,"midi":36,"time":64.7726625,"velocity":0.3937007874015748},{"duration":0.13636350000000164,"midi":39,"time":65.0453895,"velocity":0.3937007874015748},{"duration":0.13636350000000164,"midi":41,"time":65.0453895,"velocity":0.3937007874015748},{"duration":0.13636350000000164,"midi":38,"time":65.0453895,"velocity":0.3937007874015748},{"duration":0.13636350000000164,"midi":40,"time":65.0453895,"velocity":0.3937007874015748},{"duration":0.13636350000000164,"midi":36,"time":68.8635675,"velocity":0.3937007874015748},{"duration":0.13636349999998743,"midi":36,"time":69.1362945,"velocity":0.3937007874015748},{"duration":0.13636350000000164,"midi":38,"time":69.4090215,"velocity":0.3937007874015748},{"duration":0.13636350000000164,"midi":39,"time":69.4090215,"velocity":0.3937007874015748},{"duration":0.13636350000000164,"midi":41,"time":69.4090215,"velocity":0.3937007874015748},{"duration":0.13636350000000164,"midi":40,"time":69.4090215,"velocity":0.3937007874015748},{"duration":0.13636350000000164,"midi":36,"time":69.9544755,"velocity":0.3937007874015748},{"duration":0.13636350000000164,"midi":36,"time":70.2272025,"velocity":0.3937007874015748},{"duration":0.13636350000000164,"midi":38,"time":70.4999295,"velocity":0.3937007874015748},{"duration":0.13636350000000164,"midi":40,"time":70.4999295,"velocity":0.3937007874015748},{"duration":0.13636350000000164,"midi":39,"time":70.4999295,"velocity":0.3937007874015748},{"duration":0.13636350000000164,"midi":41,"time":70.4999295,"velocity":0.3937007874015748},{"duration":0.13636350000000164,"midi":36,"time":71.0453835,"velocity":0.3937007874015748},{"duration":0.13636350000000164,"midi":36,"time":71.3181105,"velocity":0.3937007874015748},{"duration":0.13636349999998743,"midi":41,"time":71.5908375,"velocity":0.3937007874015748},{"duration":0.13636349999998743,"midi":38,"time":71.5908375,"velocity":0.3937007874015748},{"duration":0.13636349999998743,"midi":39,"time":71.5908375,"velocity":0.3937007874015748},{"duration":0.13636349999998743,"midi":40,"time":71.5908375,"velocity":0.3937007874015748},{"duration":0.13636350000000164,"midi":36,"time":72.1362915,"velocity":0.3937007874015748},{"duration":0.13636350000000164,"midi":36,"time":72.4090185,"velocity":0.3937007874015748},{"duration":0.13636349999998743,"midi":41,"time":72.6817455,"velocity":0.3937007874015748},{"duration":0.13636349999998743,"midi":38,"time":72.6817455,"velocity":0.3937007874015748},{"duration":0.13636349999998743,"midi":40,"time":72.6817455,"velocity":0.3937007874015748},{"duration":0.13636349999998743,"midi":39,"time":72.6817455,"velocity":0.3937007874015748},{"duration":0.13636350000000164,"midi":36,"time":73.2271995,"velocity":0.3937007874015748},{"duration":0.13636350000000164,"midi":36,"time":73.4999265,"velocity":0.3937007874015748},{"duration":0.13636350000000164,"midi":41,"time":73.7726535,"velocity":0.3937007874015748},{"duration":0.13636350000000164,"midi":40,"time":73.7726535,"velocity":0.3937007874015748},{"duration":0.13636350000000164,"midi":38,"time":73.7726535,"velocity":0.3937007874015748},{"duration":0.13636350000000164,"midi":39,"time":73.7726535,"velocity":0.3937007874015748},{"duration":0.13636350000000164,"midi":36,"time":74.3181075,"velocity":0.3937007874015748},{"duration":0.13636350000000164,"midi":36,"time":74.5908345,"velocity":0.3937007874015748},{"duration":0.13636350000000164,"midi":40,"time":74.8635615,"velocity":0.3937007874015748},{"duration":0.13636350000000164,"midi":41,"time":74.8635615,"velocity":0.3937007874015748},{"duration":0.13636350000000164,"midi":39,"time":74.8635615,"velocity":0.3937007874015748},{"duration":0.13636350000000164,"midi":38,"time":74.8635615,"velocity":0.3937007874015748},{"duration":0.13636350000000164,"midi":36,"time":75.4090155,"velocity":0.3937007874015748},{"duration":0.13636350000000164,"midi":36,"time":75.6817425,"velocity":0.3937007874015748},{"duration":0.13636350000000164,"midi":41,"time":75.9544695,"velocity":0.3937007874015748},{"duration":0.13636350000000164,"midi":39,"time":75.9544695,"velocity":0.3937007874015748},{"duration":0.13636350000000164,"midi":38,"time":75.9544695,"velocity":0.3937007874015748},{"duration":0.13636350000000164,"midi":40,"time":75.9544695,"velocity":0.3937007874015748},{"duration":0.13636350000000164,"midi":36,"time":76.4999235,"velocity":0.3937007874015748},{"duration":0.13636350000000164,"midi":36,"time":76.7726505,"velocity":0.3937007874015748},{"duration":0.13636350000000164,"midi":39,"time":77.0453775,"velocity":0.3937007874015748},{"duration":0.13636350000000164,"midi":40,"time":77.0453775,"velocity":0.3937007874015748},{"duration":0.13636350000000164,"midi":41,"time":77.0453775,"velocity":0.3937007874015748},{"duration":0.13636350000000164,"midi":38,"time":77.0453775,"velocity":0.3937007874015748},{"duration":0.13636350000000164,"midi":36,"time":77.5908315,"velocity":0.3937007874015748},{"duration":0.13636350000000164,"midi":36,"time":77.8635585,"velocity":0.3937007874015748},{"duration":0.13636350000000164,"midi":39,"time":78.1362855,"velocity":0.3937007874015748},{"duration":0.13636350000000164,"midi":41,"time":78.1362855,"velocity":0.3937007874015748},{"duration":0.13636350000000164,"midi":38,"time":78.1362855,"velocity":0.3937007874015748},{"duration":0.13636350000000164,"midi":40,"time":78.1362855,"velocity":0.3937007874015748},{"duration":0.13636349999998743,"midi":36,"time":78.6817395,"velocity":0.3937007874015748},{"duration":0.13636350000000164,"midi":36,"time":78.9544665,"velocity":0.3937007874015748},{"duration":0.13636350000000164,"midi":38,"time":79.2271935,"velocity":0.3937007874015748},{"duration":0.13636350000000164,"midi":41,"time":79.2271935,"velocity":0.3937007874015748},{"duration":0.13636350000000164,"midi":39,"time":79.2271935,"velocity":0.3937007874015748},{"duration":0.13636350000000164,"midi":40,"time":79.2271935,"velocity":0.3937007874015748},{"duration":0.13636349999998743,"midi":36,"time":79.7726475,"velocity":0.3937007874015748},{"duration":0.13636350000000164,"midi":36,"time":80.0453745,"velocity":0.3937007874015748},{"duration":0.13636350000000164,"midi":40,"time":80.3181015,"velocity":0.3937007874015748},{"duration":0.13636350000000164,"midi":39,"time":80.3181015,"velocity":0.3937007874015748},{"duration":0.13636350000000164,"midi":41,"time":80.3181015,"velocity":0.3937007874015748},{"duration":0.13636350000000164,"midi":38,"time":80.3181015,"velocity":0.3937007874015748},{"duration":0.13636350000000164,"midi":36,"time":80.8635555,"velocity":0.3937007874015748},{"duration":0.13636350000000164,"midi":36,"time":81.1362825,"velocity":0.3937007874015748},{"duration":0.13636350000000164,"midi":38,"time":81.4090095,"velocity":0.3937007874015748},{"duration":0.13636350000000164,"midi":39,"time":81.4090095,"velocity":0.3937007874015748},{"duration":0.13636350000000164,"midi":41,"time":81.4090095,"velocity":0.3937007874015748},{"duration":0.13636350000000164,"midi":40,"time":81.4090095,"velocity":0.3937007874015748},{"duration":0.13636350000000164,"midi":36,"time":81.9544635,"velocity":0.3937007874015748},{"duration":0.13636349999998743,"midi":36,"time":82.2271905,"velocity":0.3937007874015748},{"duration":0.13636350000000164,"midi":38,"time":82.4999175,"velocity":0.3937007874015748},{"duration":0.13636350000000164,"midi":39,"time":82.4999175,"velocity":0.3937007874015748},{"duration":0.13636350000000164,"midi":40,"time":82.4999175,"velocity":0.3937007874015748},{"duration":0.13636350000000164,"midi":41,"time":82.4999175,"velocity":0.3937007874015748}]}]}
