{"tracks":[{"instrument":{"family":"guitar","number":24,"name":"acoustic guitar (nylon)"},"notes":[{"duration":0.12295075000000022,"midi":57,"time":3.934424,"velocity":0.3937007874015748},{"duration":0.12295075000000022,"midi":69,"time":3.934424,"velocity":0.3937007874015748},{"duration":0.12295075000000022,"midi":69,"time":4.052251802083333,"velocity":0.3937007874015748},{"duration":0.12295075000000022,"midi":57,"time":4.062497697916666,"velocity":0.3937007874015748},{"duration":0.12295075000000022,"midi":69,"time":4.175202552083333,"velocity":0.3937007874015748},{"duration":0.12295075000000022,"midi":57,"time":4.1905713958333335,"velocity":0.3937007874015748},{"duration":0.12295074999999933,"midi":69,"time":4.308399197916667,"velocity":0.3937007874015748},{"duration":0.12295074999999933,"midi":57,"time":4.328890989583334,"velocity":0.3937007874015748},{"duration":0.12295075000000022,"midi":69,"time":4.431349947916666,"velocity":0.3937007874015748},{"duration":0.12295074999999933,"midi":57,"time":4.436472895833334,"velocity":0.3937007874015748},{"duration":0.12295075000000022,"midi":57,"time":4.663163341145833,"velocity":0.3937007874015748},{"duration":0.12295074999999933,"midi":69,"time":4.6682862890625,"velocity":0.3937007874015748},{"duration":0.12295074999999933,"midi":69,"time":4.796359986979167,"velocity":0.3937007874015748},{"duration":0.1242314869791672,"midi":57,"time":4.811728830729166,"velocity":0.3937007874015748},{"duration":0.1242314869791672,"midi":69,"time":4.919310736979166,"velocity":0.3937007874015748},{"duration":0.1242314869791663,"midi":57,"time":4.9295566328125,"velocity":0.3937007874015748},{"duration":0.12295075000000022,"midi":57,"time":5.166492973958333,"velocity":0.3937007874015748},{"duration":0.12295075000000022,"midi":69,"time":5.1716159218749995,"velocity":0.3937007874015748},{"duration":0.12423148697916808,"midi":69,"time":5.299689619791666,"velocity":0.3937007874015748},{"duration":0.1242314869791672,"midi":57,"time":5.311216252604166,"velocity":0.3937007874015748},{"duration":0.1242314869791663,"midi":69,"time":5.4136752109375,"velocity":0.3937007874015748},{"duration":0.1242314869791663,"midi":57,"time":5.423921106770834,"velocity":0.3937007874015748},{"duration":0.12295074999999933,"midi":69,"time":5.54815259375,"velocity":0.3937007874015748},{"duration":0.1242314869791672,"midi":57,"time":5.5635214374999995,"velocity":0.3937007874015748},{"duration":0.1242314869791663,"midi":69,"time":5.67110334375,"velocity":0.3937007874015748},{"duration":0.1242314869791663,"midi":57,"time":5.677507028645834,"velocity":0.3937007874015748},{"duration":0.1242314869791672,"midi":69,"time":5.795334830729166,"velocity":0.3937007874015748},{"duration":0.12295074999999933,"midi":57,"time":5.811984411458334,"velocity":0.3937007874015748},{"duration":0.12295075000000022,"midi":69,"time":5.914443369791666,"velocity":0.3937007874015748},{"duration":0.12295075000000022,"midi":57,"time":5.919566317708333,"velocity":0.3937007874015748},{"duration":0.12295075000000022,"midi":69,"time":6.150098973958333,"velocity":0.3937007874015748},{"duration":0.12295075000000022,"midi":57,"time":6.150098973958333,"velocity":0.3937007874015748},{"duration":0.12295075000000022,"midi":69,"time":6.278172671875,"velocity":0.3937007874015748},{"duration":0.12295074999999933,"midi":57,"time":6.288418567708334,"velocity":0.3937007874015748},{"duration":0.12295075000000022,"midi":69,"time":6.406246369791666,"velocity":0.3937007874015748},{"duration":0.12295075000000022,"midi":57,"time":6.411369317708333,"velocity":0.3937007874015748},{"duration":0.12295074999999933,"midi":57,"time":6.6521478697916665,"velocity":0.3937007874015748},{"duration":0.12295074999999933,"midi":69,"time":6.6521478697916665,"velocity":0.3937007874015748},{"duration":0.12295074999999933,"midi":69,"time":6.780221567708334,"velocity":0.3937007874015748},{"duration":0.12295075000000022,"midi":57,"time":6.786625252604166,"velocity":0.3937007874015748},{"duration":0.12295075000000022,"midi":69,"time":6.903172317708333,"velocity":0.3937007874015748},{"duration":0.12295075000000022,"midi":57,"time":6.909576002604166,"velocity":0.3937007874015748},{"duration":0.1242314869791663,"midi":69,"time":7.026123067708333,"velocity":0.3937007874015748},{"duration":0.1242314869791672,"midi":57,"time":7.0478955963541665,"velocity":0.3937007874015748},{"duration":0.1242314869791663,"midi":69,"time":7.1452316067708335,"velocity":0.3937007874015748},{"duration":0.1242314869791663,"midi":57,"time":7.156758239583334,"velocity":0.3937007874015748},{"duration":0.1242314869791672,"midi":69,"time":7.274586041666666,"velocity":0.3937007874015748},{"duration":0.1242314869791672,"midi":57,"time":7.286112674479166,"velocity":0.3937007874015748},{"duration":0.1242314869791672,"midi":69,"time":7.393694580729166,"velocity":0.3937007874015748},{"duration":0.1242314869791672,"midi":57,"time":7.398817528645833,"velocity":0.3937007874015748},{"duration":0.12295075000000022,"midi":69,"time":7.645999765625,"velocity":0.3937007874015748},{"duration":0.12295075000000022,"midi":57,"time":7.645999765625,"velocity":0.3937007874015748},{"duration":0.12295075000000022,"midi":69,"time":7.768950515625,"velocity":0.3937007874015748},{"duration":0.12295074999999844,"midi":57,"time":7.775354200520834,"velocity":0.3937007874015748},{"duration":0.12295074999999933,"midi":69,"time":7.891901265625,"velocity":0.3937007874015748},{"duration":0.12295075000000022,"midi":57,"time":7.898304950520832,"velocity":0.3937007874015748},{"duration":0.12295074999999933,"midi":57,"time":8.137802765625,"velocity":0.3937007874015748},{"duration":0.06147537499999878,"midi":69,"time":8.153171609375,"velocity":0.3937007874015748},{"duration":0.12423148697916808,"midi":69,"time":8.260753515625,"velocity":0.3937007874015748},{"duration":0.12423148697916808,"midi":57,"time":8.272280148437499,"velocity":0.3937007874015748},{"duration":0.12423148697916808,"midi":69,"time":8.374739106770832,"velocity":0.3937007874015748},{"duration":0.12423148697916808,"midi":57,"time":8.374739106770832,"velocity":0.3937007874015748},{"duration":0.12295074999999933,"midi":69,"time":8.509216489583332,"velocity":0.3937007874015748},{"duration":0.12295074999999933,"midi":57,"time":8.52970828125,"velocity":0.3937007874015748},{"duration":0.12295075000000111,"midi":69,"time":8.632167239583332,"velocity":0.3937007874015748},{"duration":0.12295074999999933,"midi":69,"time":8.755117989583333,"velocity":0.3937007874015748},{"duration":0.12295074999999933,"midi":57,"time":8.761521674479168,"velocity":0.3937007874015748},{"duration":0.12295075000000111,"midi":69,"time":8.878068739583332,"velocity":0.3937007874015748},{"duration":0.12295074999999933,"midi":57,"time":8.889595372395833,"velocity":0.3937007874015748},{"duration":0.12295074999999933,"midi":69,"time":9.115005080729167,"velocity":0.3937007874015748},{"duration":0.12295074999999933,"midi":57,"time":9.115005080729167,"velocity":0.3937007874015748},{"duration":0.12295074999999933,"midi":69,"time":9.243078778645833,"velocity":0.3937007874015748},{"duration":0.12295075000000111,"midi":57,"time":9.248201726562499,"velocity":0.3937007874015748},{"duration":0.12295075000000111,"midi":69,"time":9.366029528645832,"velocity":0.3937007874015748},{"duration":0.12295074999999933,"midi":57,"time":9.3711524765625,"velocity":0.3937007874015748},{"duration":0.12295075000000111,"midi":69,"time":9.606808080729166,"velocity":0.3937007874015748},{"duration":0.12295075000000111,"midi":57,"time":9.606808080729166,"velocity":0.3937007874015748},{"duration":0.12295075000000111,"midi":69,"time":9.734881778645832,"velocity":0.3937007874015748},{"duration":0.12295074999999933,"midi":57,"time":9.7400047265625,"velocity":0.3937007874015748},{"duration":0.12295074999999933,"midi":69,"time":9.857832528645833,"velocity":0.3937007874015748},{"duration":0.12295075000000111,"midi":57,"time":9.869359161458332,"velocity":0.3937007874015748},{"duration":0.1242314869791663,"midi":69,"time":9.9859062265625,"velocity":0.3937007874015748},{"duration":0.24590150000000044,"midi":57,"time":10.007678755208332,"velocity":0.3937007874015748},{"duration":0.12295075000000111,"midi":69,"time":10.094768869791666,"velocity":0.3937007874015748},{"duration":0.12295075000000111,"midi":69,"time":10.222842567708332,"velocity":0.3937007874015748},{"duration":0.12423148697916808,"midi":57,"time":10.238211411458332,"velocity":0.3937007874015748},{"duration":0.1242314869791663,"midi":69,"time":10.345793317708333,"velocity":0.3937007874015748},{"duration":0.1242314869791663,"midi":57,"time":10.356039213541667,"velocity":0.3937007874015748},{"duration":0.12295075000000111,"midi":69,"time":10.598098502604167,"velocity":0.3937007874015748},{"duration":0.12295075000000111,"midi":57,"time":10.598098502604167,"velocity":0.3937007874015748},{"duration":0.12295074999999933,"midi":69,"time":10.721049252604168,"velocity":0.3937007874015748},{"duration":0.24590150000000044,"midi":57,"time":10.726172200520832,"velocity":0.3937007874015748},{"duration":0.12295074999999933,"midi":69,"time":10.849122950520833,"velocity":0.3937007874015748},{"duration":0.12295074999999933,"midi":69,"time":11.089901502604167,"velocity":0.3937007874015748},{"duration":0.12295074999999933,"midi":57,"time":11.089901502604167,"velocity":0.3937007874015748},{"duration":0.12295074999999933,"midi":57,"time":11.217975200520833,"velocity":0.3937007874015748},{"duration":0.12295074999999933,"midi":69,"time":11.217975200520833,"velocity":0.3937007874015748},{"duration":0.12295074999999933,"midi":69,"time":11.335803002604168,"velocity":0.3937007874015748},{"duration":0.12295075000000111,"midi":57,"time":11.340925950520832,"velocity":0.3937007874015748},{"duration":0.12295074999999933,"midi":69,"time":11.463876700520833,"velocity":0.3937007874015748},{"duration":0.12295074999999933,"midi":57,"time":11.4843684921875,"velocity":0.3937007874015748},{"duration":0.12295074999999933,"midi":69,"time":11.5765815546875,"velocity":0.3937007874015748},{"duration":0.12295074999999933,"midi":69,"time":11.6995323046875,"velocity":0.3937007874015748},{"duration":0.1242314869791663,"midi":57,"time":11.7149011484375,"velocity":0.3937007874015748},{"duration":0.12295074999999933,"midi":69,"time":11.827606002604167,"velocity":0.3937007874015748},{"duration":0.12295075000000111,"midi":57,"time":11.839132635416666,"velocity":0.3937007874015748},{"duration":0.12295075000000111,"midi":69,"time":12.069665291666666,"velocity":0.3937007874015748},{"duration":0.12295074999999933,"midi":57,"time":12.074788239583333,"velocity":0.3937007874015748},{"duration":0.12295075000000111,"midi":69,"time":12.197738989583332,"velocity":0.3937007874015748},{"duration":0.12295074999999933,"midi":57,"time":12.2028619375,"velocity":0.3937007874015748},{"duration":0.12295075000000111,"midi":57,"time":12.3258126875,"velocity":0.3937007874015748},{"duration":0.12295075000000111,"midi":69,"time":12.3258126875,"velocity":0.3937007874015748},{"duration":0.12295074999999933,"midi":57,"time":12.5717141875,"velocity":0.3937007874015748},{"duration":0.12295074999999933,"midi":69,"time":12.578117872395833,"velocity":0.3937007874015748},{"duration":0.12295075000000111,"midi":69,"time":12.701068622395832,"velocity":0.3937007874015748},{"duration":0.12295074999999933,"midi":57,"time":12.7061915703125,"velocity":0.3937007874015748},{"duration":0.12295074999999933,"midi":69,"time":12.8176156875,"velocity":0.3937007874015748},{"duration":0.12295075000000111,"midi":57,"time":12.8291423203125,"velocity":0.3937007874015748},{"duration":0.12423148697916808,"midi":69,"time":12.946970122395832,"velocity":0.3937007874015748},{"duration":0.06275611197916575,"midi":57,"time":13.023814341145833,"velocity":0.3937007874015748},{"duration":0.12423148697916453,"midi":69,"time":13.064797924479167,"velocity":0.3937007874015748},{"duration":0.12295075000000111,"midi":57,"time":13.086570453124999,"velocity":0.3937007874015748},{"duration":0.12167001302083413,"midi":69,"time":13.189029411458332,"velocity":0.3937007874015748},{"duration":0.24590150000000044,"midi":57,"time":13.291488369791667,"velocity":0.3937007874015748},{"duration":0.12295075000000111,"midi":69,"time":13.310699424479166,"velocity":0.3937007874015748},{"duration":0.12295075000000111,"midi":69,"time":13.556600924479167,"velocity":0.3937007874015748},{"duration":0.12295074999999933,"midi":57,"time":13.563004609375,"velocity":0.3937007874015748},{"duration":0.12295074999999933,"midi":69,"time":13.679551674479168,"velocity":0.3937007874015748},{"duration":0.12295074999999933,"midi":57,"time":13.691078307291667,"velocity":0.3937007874015748},{"duration":0.12295074999999933,"midi":69,"time":13.802502424479167,"velocity":0.3937007874015748},{"duration":0.12295075000000111,"midi":57,"time":13.814029057291666,"velocity":0.3937007874015748},{"duration":0.12295075000000111,"midi":69,"time":14.044561713541666,"velocity":0.3937007874015748},{"duration":0.12295074999999933,"midi":57,"time":14.049684661458333,"velocity":0.3937007874015748},{"duration":0.12295075000000111,"midi":69,"time":14.172635411458332,"velocity":0.3937007874015748},{"duration":0.12295075000000111,"midi":57,"time":14.172635411458332,"velocity":0.3937007874015748},{"duration":0.12295075000000111,"midi":69,"time":14.285340265624999,"velocity":0.3937007874015748},{"duration":0.12295074999999933,"midi":57,"time":14.290463213541667,"velocity":0.3937007874015748},{"duration":0.12295074999999933,"midi":57,"time":14.536364713541667,"velocity":0.3937007874015748},{"duration":0.12295075000000111,"midi":69,"time":14.541487661458332,"velocity":0.3937007874015748},{"duration":0.12295074999999933,"midi":69,"time":14.664438411458333,"velocity":0.3937007874015748},{"duration":0.12295074999999933,"midi":57,"time":14.664438411458333,"velocity":0.3937007874015748},{"duration":0.12295075000000111,"midi":69,"time":14.772020317708332,"velocity":0.3937007874015748},{"duration":0.12295074999999933,"midi":57,"time":14.777143265625,"velocity":0.3937007874015748},{"duration":0.1242314869791663,"midi":69,"time":14.910339911458333,"velocity":0.3937007874015748},{"duration":0.12423148697916808,"midi":57,"time":14.921866544270832,"velocity":0.3937007874015748},{"duration":0.12423148697916808,"midi":69,"time":15.029448450520832,"velocity":0.3937007874015748},{"duration":0.1242314869791663,"midi":57,"time":15.040975083333333,"velocity":0.3937007874015748},{"duration":0.12423148697916453,"midi":69,"time":15.158802885416668,"velocity":0.3937007874015748},{"duration":0.12295074999999933,"midi":57,"time":15.175452466145833,"velocity":0.3937007874015748},{"duration":0.24590150000000044,"midi":69,"time":15.2727884765625,"velocity":0.3937007874015748},{"duration":0.24590150000000044,"midi":57,"time":15.283034372395832,"velocity":0.3937007874015748},{"duration":0.12295075000000111,"midi":64,"time":24.125242476562498,"velocity":0.3937007874015748},{"duration":0.12295075000000111,"midi":69,"time":24.125242476562498,"velocity":0.3937007874015748},{"duration":0.12295075000000111,"midi":64,"time":24.2481932265625,"velocity":0.3937007874015748},{"duration":0.12295075000000111,"midi":69,"time":24.2481932265625,"velocity":0.3937007874015748},{"duration":0.12295074999999756,"midi":69,"time":24.3711439765625,"velocity":0.3937007874015748},{"duration":0.12295074999999756,"midi":64,"time":24.3711439765625,"velocity":0.3937007874015748},{"duration":0.12295075000000111,"midi":69,"time":24.494094726562498,"velocity":0.3937007874015748},{"duration":0.12295075000000111,"midi":64,"time":24.494094726562498,"velocity":0.3937007874015748},{"duration":0.12295075000000111,"midi":66,"time":24.6170454765625,"velocity":0.3937007874015748},{"duration":0.12295075000000111,"midi":71,"time":24.6170454765625,"velocity":0.3937007874015748},{"duration":0.12295074999999756,"midi":69,"time":24.8629469765625,"velocity":0.3937007874015748},{"duration":0.12295074999999756,"midi":64,"time":24.8629469765625,"velocity":0.3937007874015748},{"duration":0.12295075000000111,"midi":69,"time":28.059666476562498,"velocity":0.3937007874015748},{"duration":0.12295075000000111,"midi":64,"time":28.059666476562498,"velocity":0.3937007874015748},{"duration":0.12295075000000111,"midi":64,"time":28.1826172265625,"velocity":0.3937007874015748},{"duration":0.12295075000000111,"midi":69,"time":28.1826172265625,"velocity":0.3937007874015748},{"duration":0.12295074999999756,"midi":69,"time":28.3055679765625,"velocity":0.3937007874015748},{"duration":0.12295074999999756,"midi":64,"time":28.3055679765625,"velocity":0.3937007874015748},{"duration":0.12295075000000111,"midi":64,"time":28.428518726562498,"velocity":0.3937007874015748},{"duration":0.12295075000000111,"midi":69,"time":28.428518726562498,"velocity":0.3937007874015748},{"duration":0.12295075000000111,"midi":71,"time":28.5514694765625,"velocity":0.3937007874015748},{"duration":0.12295075000000111,"midi":66,"time":28.5514694765625,"velocity":0.3937007874015748},{"duration":0.12295074999999756,"midi":64,"time":28.7973709765625,"velocity":0.3937007874015748},{"duration":0.24590149999999866,"midi":69,"time":28.7973709765625,"velocity":0.3937007874015748},{"duration":0.12295075000000111,"midi":69,"time":31.994090476562498,"velocity":0.3937007874015748},{"duration":0.12295075000000111,"midi":64,"time":31.994090476562498,"velocity":0.3937007874015748},{"duration":0.24590150000000222,"midi":64,"time":32.1170412265625,"velocity":0.3937007874015748},{"duration":0.24590150000000222,"midi":69,"time":32.1170412265625,"velocity":0.3937007874015748},{"duration":0.12295075000000111,"midi":64,"time":32.3629427265625,"velocity":0.3937007874015748},{"duration":0.12295075000000111,"midi":69,"time":32.3629427265625,"velocity":0.3937007874015748},{"duration":0.122950749999994,"midi":71,"time":32.4858934765625,"velocity":0.3937007874015748},{"duration":0.122950749999994,"midi":66,"time":32.4858934765625,"velocity":0.3937007874015748},{"duration":0.12295075000000111,"midi":64,"time":32.7317949765625,"velocity":0.3937007874015748},{"duration":0.24590150000000222,"midi":69,"time":32.7317949765625,"velocity":0.3937007874015748},{"duration":0.12295075000000111,"midi":69,"time":228.2234874765625,"velocity":0.3937007874015748},{"duration":0.12295075000000111,"midi":57,"time":228.2234874765625,"velocity":0.3937007874015748},{"duration":0.12295075000000111,"midi":69,"time":228.34131527864582,"velocity":0.3937007874015748},{"duration":0.12295075000000111,"midi":57,"time":228.35156117447917,"velocity":0.3937007874015748},{"duration":0.12295075000000111,"midi":69,"time":228.46426602864582,"velocity":0.3937007874015748},{"duration":0.12295075000000111,"midi":57,"time":228.47963487239582,"velocity":0.3937007874015748},{"duration":0.12295075000000111,"midi":69,"time":228.59746267447917,"velocity":0.3937007874015748},{"duration":0.12295075000000111,"midi":57,"time":228.61795446614582,"velocity":0.3937007874015748},{"duration":0.12295075000000111,"midi":69,"time":228.72041342447918,"velocity":0.3937007874015748},{"duration":0.12295075000000111,"midi":57,"time":228.72553637239582,"velocity":0.3937007874015748},{"duration":0.12295075000000111,"midi":57,"time":228.95222681770832,"velocity":0.3937007874015748},{"duration":0.12295075000000111,"midi":69,"time":228.957349765625,"velocity":0.3937007874015748},{"duration":0.12295075000000111,"midi":69,"time":229.08542346354167,"velocity":0.3937007874015748},{"duration":0.12423148697914144,"midi":57,"time":229.10079230729167,"velocity":0.3937007874015748},{"duration":0.12423148697914144,"midi":69,"time":229.20837421354167,"velocity":0.3937007874015748},{"duration":0.12423148697916986,"midi":57,"time":229.218620109375,"velocity":0.3937007874015748},{"duration":0.12295075000000111,"midi":57,"time":229.45555645052082,"velocity":0.3937007874015748},{"duration":0.12295075000000111,"midi":69,"time":229.4606793984375,"velocity":0.3937007874015748},{"duration":0.12423148697914144,"midi":69,"time":229.58875309635417,"velocity":0.3937007874015748},{"duration":0.12423148697916986,"midi":57,"time":229.60027972916666,"velocity":0.3937007874015748},{"duration":0.12423148697916986,"midi":69,"time":229.7027386875,"velocity":0.3937007874015748},{"duration":0.12423148697919828,"midi":57,"time":229.7129845833333,"velocity":0.3937007874015748},{"duration":0.12295075000000111,"midi":69,"time":229.8372160703125,"velocity":0.3937007874015748},{"duration":0.12423148697916986,"midi":57,"time":229.8525849140625,"velocity":0.3937007874015748},{"duration":0.12423148697916986,"midi":69,"time":229.9601668203125,"velocity":0.3937007874015748},{"duration":0.12423148697916986,"midi":57,"time":229.96657050520832,"velocity":0.3937007874015748},{"duration":0.12423148697914144,"midi":69,"time":230.08439830729168,"velocity":0.3937007874015748},{"duration":0.12295075000000111,"midi":57,"time":230.10104788802082,"velocity":0.3937007874015748},{"duration":0.12295075000000111,"midi":69,"time":230.20350684635417,"velocity":0.3937007874015748},{"duration":0.12295075000000111,"midi":57,"time":230.20862979427082,"velocity":0.3937007874015748},{"duration":0.12295075000000111,"midi":57,"time":230.43916245052083,"velocity":0.3937007874015748},{"duration":0.12295075000000111,"midi":69,"time":230.43916245052083,"velocity":0.3937007874015748},{"duration":0.12295075000000111,"midi":69,"time":230.5672361484375,"velocity":0.3937007874015748},{"duration":0.12295075000000111,"midi":57,"time":230.57748204427082,"velocity":0.3937007874015748},{"duration":0.12295075000000111,"midi":69,"time":230.69530984635418,"velocity":0.3937007874015748},{"duration":0.12295075000000111,"midi":57,"time":230.70043279427082,"velocity":0.3937007874015748},{"duration":0.12295075000000111,"midi":69,"time":230.94121134635418,"velocity":0.3937007874015748},{"duration":0.12295075000000111,"midi":57,"time":230.94121134635418,"velocity":0.3937007874015748},{"duration":0.12295075000000111,"midi":69,"time":231.06928504427083,"velocity":0.3937007874015748},{"duration":0.12295075000000111,"midi":57,"time":231.07568872916667,"velocity":0.3937007874015748},{"duration":0.12295075000000111,"midi":69,"time":231.19223579427083,"velocity":0.3937007874015748},{"duration":0.12295075000000111,"midi":57,"time":231.19863947916667,"velocity":0.3937007874015748},{"duration":0.12423148697916986,"midi":69,"time":231.31518654427083,"velocity":0.3937007874015748},{"duration":0.12423148697914144,"midi":57,"time":231.33695907291667,"velocity":0.3937007874015748},{"duration":0.12423148697916986,"midi":69,"time":231.43429508333332,"velocity":0.3937007874015748},{"duration":0.12423148697916986,"midi":57,"time":231.44582171614582,"velocity":0.3937007874015748},{"duration":0.12423148697914144,"midi":69,"time":231.56364951822917,"velocity":0.3937007874015748},{"duration":0.12423148697916986,"midi":57,"time":231.57517615104166,"velocity":0.3937007874015748},{"duration":0.12423148697914144,"midi":69,"time":231.68275805729166,"velocity":0.3937007874015748},{"duration":0.12423148697919828,"midi":57,"time":231.6878810052083,"velocity":0.3937007874015748},{"duration":0.12295075000000111,"midi":57,"time":231.93506324218748,"velocity":0.3937007874015748},{"duration":0.12295075000000111,"midi":69,"time":231.93506324218748,"velocity":0.3937007874015748},{"duration":0.12295075000000111,"midi":69,"time":232.05801399218748,"velocity":0.3937007874015748},{"duration":0.12295075000000111,"midi":57,"time":232.06441767708333,"velocity":0.3937007874015748},{"duration":0.12295075000000111,"midi":69,"time":232.18096474218748,"velocity":0.3937007874015748},{"duration":0.12295075000000111,"midi":57,"time":232.18736842708333,"velocity":0.3937007874015748},{"duration":0.12295075000000111,"midi":57,"time":232.4268662421875,"velocity":0.3937007874015748},{"duration":0.061475375000014765,"midi":69,"time":232.44223508593748,"velocity":0.3937007874015748},{"duration":0.12423148697916986,"midi":69,"time":232.5498169921875,"velocity":0.3937007874015748},{"duration":0.12423148697916986,"midi":57,"time":232.561343625,"velocity":0.3937007874015748},{"duration":0.12423148697919828,"midi":57,"time":232.6638025833333,"velocity":0.3937007874015748},{"duration":0.12423148697919828,"midi":69,"time":232.6638025833333,"velocity":0.3937007874015748},{"duration":0.12295075000000111,"midi":69,"time":232.79827996614583,"velocity":0.3937007874015748},{"duration":0.12295075000000111,"midi":57,"time":232.8187717578125,"velocity":0.3937007874015748},{"duration":0.12295075000000111,"midi":69,"time":232.92123071614583,"velocity":0.3937007874015748},{"duration":0.12295075000000111,"midi":69,"time":233.04418146614583,"velocity":0.3937007874015748},{"duration":0.12295075000000111,"midi":57,"time":233.05058515104167,"velocity":0.3937007874015748},{"duration":0.12295075000000111,"midi":69,"time":233.16713221614583,"velocity":0.3937007874015748},{"duration":0.12295075000000111,"midi":57,"time":233.17865884895832,"velocity":0.3937007874015748},{"duration":0.12295075000000111,"midi":69,"time":233.40406855729168,"velocity":0.3937007874015748},{"duration":0.12295075000000111,"midi":57,"time":233.40406855729168,"velocity":0.3937007874015748},{"duration":0.12295075000000111,"midi":69,"time":233.53214225520833,"velocity":0.3937007874015748},{"duration":0.12295075000000111,"midi":57,"time":233.537265203125,"velocity":0.3937007874015748},{"duration":0.12295075000000111,"midi":69,"time":233.65509300520833,"velocity":0.3937007874015748},{"duration":0.12295075000000111,"midi":57,"time":233.660215953125,"velocity":0.3937007874015748},{"duration":0.12295074999997269,"midi":69,"time":233.89587155729168,"velocity":0.3937007874015748},{"duration":0.12295074999997269,"midi":57,"time":233.89587155729168,"velocity":0.3937007874015748},{"duration":0.12295075000000111,"midi":69,"time":234.02394525520833,"velocity":0.3937007874015748},{"duration":0.12295075000000111,"midi":57,"time":234.029068203125,"velocity":0.3937007874015748},{"duration":0.12295074999997269,"midi":69,"time":234.14689600520833,"velocity":0.3937007874015748},{"duration":0.12295075000000111,"midi":57,"time":234.15842263802082,"velocity":0.3937007874015748},{"duration":0.12423148697916986,"midi":69,"time":234.274969703125,"velocity":0.3937007874015748},{"duration":0.24590150000000222,"midi":57,"time":234.29674223177082,"velocity":0.3937007874015748},{"duration":0.12295075000000111,"midi":69,"time":234.38383234635418,"velocity":0.3937007874015748},{"duration":0.12295075000000111,"midi":69,"time":234.51190604427083,"velocity":0.3937007874015748},{"duration":0.12423148697916986,"midi":57,"time":234.52727488802083,"velocity":0.3937007874015748},{"duration":0.12423148697916986,"midi":69,"time":234.63485679427083,"velocity":0.3937007874015748},{"duration":0.12423148697914144,"midi":57,"time":234.64510269010418,"velocity":0.3937007874015748},{"duration":0.12295075000000111,"midi":69,"time":234.88716197916668,"velocity":0.3937007874015748},{"duration":0.12295075000000111,"midi":57,"time":234.88716197916668,"velocity":0.3937007874015748},{"duration":0.12295075000000111,"midi":69,"time":235.01011272916668,"velocity":0.3937007874015748},{"duration":0.24590150000000222,"midi":57,"time":235.01523567708333,"velocity":0.3937007874015748},{"duration":0.12295075000000111,"midi":69,"time":235.13818642708333,"velocity":0.3937007874015748},{"duration":0.12295075000000111,"midi":69,"time":235.37896497916668,"velocity":0.3937007874015748},{"duration":0.12295075000000111,"midi":57,"time":235.37896497916668,"velocity":0.3937007874015748},{"duration":0.12295075000000111,"midi":69,"time":235.50703867708333,"velocity":0.3937007874015748},{"duration":0.12295075000000111,"midi":57,"time":235.50703867708333,"velocity":0.3937007874015748},{"duration":0.12295075000000111,"midi":69,"time":235.62486647916668,"velocity":0.3937007874015748},{"duration":0.12295075000000111,"midi":57,"time":235.62998942708333,"velocity":0.3937007874015748},{"duration":0.12295075000000111,"midi":69,"time":235.75294017708333,"velocity":0.3937007874015748},{"duration":0.12295075000000111,"midi":57,"time":235.77343196875,"velocity":0.3937007874015748},{"duration":0.12295075000000111,"midi":69,"time":235.86564503124998,"velocity":0.3937007874015748},{"duration":0.12295075000000111,"midi":69,"time":235.98859578124998,"velocity":0.3937007874015748},{"duration":0.12423148697916986,"midi":57,"time":236.003964625,"velocity":0.3937007874015748},{"duration":0.12295075000000111,"midi":69,"time":236.11666947916666,"velocity":0.3937007874015748},{"duration":0.12295075000000111,"midi":57,"time":236.12819611197918,"velocity":0.3937007874015748},{"duration":0.12295074999997269,"midi":69,"time":236.35872876822918,"velocity":0.3937007874015748},{"duration":0.12295075000000111,"midi":57,"time":236.36385171614583,"velocity":0.3937007874015748},{"duration":0.12295075000000111,"midi":69,"time":236.48680246614583,"velocity":0.3937007874015748},{"duration":0.12295075000000111,"midi":57,"time":236.4919254140625,"velocity":0.3937007874015748},{"duration":0.12295075000000111,"midi":69,"time":236.6148761640625,"velocity":0.3937007874015748},{"duration":0.12295075000000111,"midi":57,"time":236.6148761640625,"velocity":0.3937007874015748},{"duration":0.12295075000000111,"midi":57,"time":236.86077766406248,"velocity":0.3937007874015748},{"duration":0.12295075000000111,"midi":69,"time":236.86718134895833,"velocity":0.3937007874015748},{"duration":0.12295075000000111,"midi":69,"time":236.99013209895833,"velocity":0.3937007874015748},{"duration":0.12295075000000111,"midi":57,"time":236.995255046875,"velocity":0.3937007874015748},{"duration":0.12295075000000111,"midi":69,"time":237.10667916406248,"velocity":0.3937007874015748},{"duration":0.12295075000000111,"midi":57,"time":237.118205796875,"velocity":0.3937007874015748},{"duration":0.12423148697916986,"midi":69,"time":237.23603359895833,"velocity":0.3937007874015748},{"duration":0.06275611197918352,"midi":57,"time":237.3128778177083,"velocity":0.3937007874015748},{"duration":0.12423148697914144,"midi":69,"time":237.35386140104168,"velocity":0.3937007874015748},{"duration":0.12295075000000111,"midi":57,"time":237.3756339296875,"velocity":0.3937007874015748},{"duration":0.12167001302083236,"midi":69,"time":237.47809288802083,"velocity":0.3937007874015748},{"duration":0.24590150000000222,"midi":57,"time":237.58055184635418,"velocity":0.3937007874015748},{"duration":0.12295075000000111,"midi":69,"time":237.59976290104166,"velocity":0.3937007874015748},{"duration":0.12295075000000111,"midi":69,"time":237.84566440104166,"velocity":0.3937007874015748},{"duration":0.12295075000000111,"midi":57,"time":237.8520680859375,"velocity":0.3937007874015748},{"duration":0.12295075000000111,"midi":69,"time":237.96861515104166,"velocity":0.3937007874015748},{"duration":0.12295075000000111,"midi":57,"time":237.98014178385418,"velocity":0.3937007874015748},{"duration":0.12295075000000111,"midi":69,"time":238.09156590104166,"velocity":0.3937007874015748},{"duration":0.12295075000000111,"midi":57,"time":238.10309253385418,"velocity":0.3937007874015748},{"duration":0.12295075000000111,"midi":69,"time":238.33362519010416,"velocity":0.3937007874015748},{"duration":0.12295074999997269,"midi":57,"time":238.33874813802083,"velocity":0.3937007874015748},{"duration":0.12295075000000111,"midi":69,"time":238.4616988880208,"velocity":0.3937007874015748},{"duration":0.12295075000000111,"midi":57,"time":238.4616988880208,"velocity":0.3937007874015748},{"duration":0.12295075000000111,"midi":69,"time":238.57440374218749,"velocity":0.3937007874015748},{"duration":0.12295075000000111,"midi":57,"time":238.57952669010416,"velocity":0.3937007874015748},{"duration":0.12295075000000111,"midi":57,"time":238.82542819010416,"velocity":0.3937007874015748},{"duration":0.12295075000000111,"midi":69,"time":238.8305511380208,"velocity":0.3937007874015748},{"duration":0.12295075000000111,"midi":69,"time":238.9535018880208,"velocity":0.3937007874015748},{"duration":0.12295075000000111,"midi":57,"time":238.9535018880208,"velocity":0.3937007874015748},{"duration":0.12295075000000111,"midi":69,"time":239.06108379427081,"velocity":0.3937007874015748},{"duration":0.12295075000000111,"midi":57,"time":239.0662067421875,"velocity":0.3937007874015748},{"duration":0.12423148697916986,"midi":69,"time":239.1994033880208,"velocity":0.3937007874015748},{"duration":0.12423148697916986,"midi":57,"time":239.21093002083333,"velocity":0.3937007874015748},{"duration":0.12423148697919828,"midi":69,"time":239.3185119270833,"velocity":0.3937007874015748},{"duration":0.12423148697916986,"midi":57,"time":239.33003855989583,"velocity":0.3937007874015748},{"duration":0.12423148697914144,"midi":69,"time":239.44786636197918,"velocity":0.3937007874015748},{"duration":0.12295075000000111,"midi":57,"time":239.46451594270832,"velocity":0.3937007874015748},{"duration":0.24590150000000222,"midi":69,"time":239.561851953125,"velocity":0.3937007874015748},{"duration":0.24590150000000222,"midi":57,"time":239.57209784895832,"velocity":0.3937007874015748}]},{"instrument":{"family":"guitar","number":29,"name":"overdriven guitar"},"notes":[{"duration":0.12295074999999933,"midi":72,"time":15.240770052083333,"velocity":0.3937007874015748},{"duration":0.12295074999999933,"midi":72,"time":15.373966697916668,"velocity":0.3937007874015748},{"duration":0.12295074999999933,"midi":71,"time":15.481548604166667,"velocity":0.3937007874015748},{"duration":0.12295075000000111,"midi":69,"time":15.604499354166666,"velocity":0.3937007874015748},{"duration":0.12295075000000288,"midi":71,"time":15.732573052083332,"velocity":0.3937007874015748},{"duration":3.442621000000001,"midi":69,"time":15.855523802083335,"velocity":0.3937007874015748},{"duration":0.12295075000000111,"midi":84,"time":16.219253104166665,"velocity":0.3937007874015748},{"duration":0.12295075000000111,"midi":84,"time":16.347326802083334,"velocity":0.3937007874015748},{"duration":0.12295074999999756,"midi":83,"time":16.470277552083335,"velocity":0.3937007874015748},{"duration":0.12295075000000111,"midi":81,"time":16.59835125,"velocity":0.3937007874015748},{"duration":0.12295074999999756,"midi":83,"time":16.721302,"velocity":0.3937007874015748},{"duration":2.3360642499999997,"midi":81,"time":16.84425275,"velocity":0.3937007874015748},{"duration":2.827867249999997,"midi":81,"time":19.4262185,"velocity":0.3937007874015748},{"duration":2.8278672500000006,"midi":69,"time":19.431341447916665,"velocity":0.3937007874015748},{"duration":0.24590150000000222,"midi":81,"time":22.622937999999998,"velocity":0.3937007874015748},{"duration":2.950817999999998,"midi":81,"time":35.15366860416667,"velocity":0.3937007874015748},{"duration":2.950817999999998,"midi":69,"time":35.15366860416667,"velocity":0.3937007874015748},{"duration":0.24590150000000222,"midi":81,"time":38.335019260416665,"velocity":0.3937007874015748},{"duration":0.24590150000000222,"midi":69,"time":38.335019260416665,"velocity":0.3937007874015748},{"duration":0.12295075000000111,"midi":81,"time":55.3278375,"velocity":0.3937007874015748},{"duration":0.12295075000000111,"midi":69,"time":55.3278375,"velocity":0.3937007874015748},{"duration":0.12295075000000111,"midi":80,"time":56.30119760416667,"velocity":0.3937007874015748},{"duration":0.24590150000000222,"midi":68,"time":56.30119760416667,"velocity":0.3937007874015748},{"duration":0.24590150000000222,"midi":81,"time":59.24689265625,"velocity":0.3937007874015748},{"duration":0.12295075000000111,"midi":69,"time":59.252015604166665,"velocity":0.3937007874015748},{"duration":0.12295075000000111,"midi":80,"time":60.23049865625,"velocity":0.3937007874015748},{"duration":0.12295075000000111,"midi":68,"time":60.23562160416667,"velocity":0.3937007874015748},{"duration":0.122950749999994,"midi":69,"time":63.19156255208334,"velocity":0.3937007874015748},{"duration":0.2459014999999951,"midi":81,"time":63.19156255208334,"velocity":0.3937007874015748},{"duration":0.24590150000000222,"midi":80,"time":64.17004560416666,"velocity":0.3937007874015748},{"duration":0.24590150000000222,"midi":68,"time":64.17516855208333,"velocity":0.3937007874015748},{"duration":0.12295075000000111,"midi":81,"time":67.12086360416666,"velocity":0.3937007874015748},{"duration":0.24590150000000222,"midi":78,"time":67.38597615885416,"velocity":0.3937007874015748},{"duration":0.12295075000000111,"midi":81,"time":67.63828134375,"velocity":0.3937007874015748},{"duration":0.12295075000000111,"midi":81,"time":68.1147155,"velocity":0.3937007874015748},{"duration":0.24590150000000222,"midi":78,"time":68.35549405208333,"velocity":0.3937007874015748},{"duration":0.12295075000000111,"midi":81,"time":68.61164144791665,"velocity":0.3937007874015748},{"duration":0.12295075000000111,"midi":81,"time":69.08807560416666,"velocity":0.3937007874015748},{"duration":0.24590150000000222,"midi":78,"time":69.33910005208334,"velocity":0.3937007874015748},{"duration":0.12295075000000111,"midi":81,"time":69.5901245,"velocity":0.3937007874015748},{"duration":0.12295075000000111,"midi":81,"time":69.84627189583334,"velocity":0.3937007874015748},{"duration":0.12295075000000111,"midi":81,"time":70.09217339583334,"velocity":0.3937007874015748},{"duration":0.12295075000000111,"midi":81,"time":70.327829,"velocity":0.3937007874015748},{"duration":0.12295075000000111,"midi":69,"time":82.74073180208333,"velocity":0.3937007874015748},{"duration":0.12295075000000111,"midi":71,"time":82.86368255208333,"velocity":0.3937007874015748},{"duration":0.12295075000000111,"midi":73,"time":82.98151035416666,"velocity":0.3937007874015748},{"duration":0.12295075000000111,"midi":76,"time":83.10446110416666,"velocity":0.3937007874015748},{"duration":0.12295075000000111,"midi":76,"time":83.22741185416666,"velocity":0.3937007874015748},{"duration":0.12295075000000111,"midi":78,"time":83.3606085,"velocity":0.3937007874015748},{"duration":0.12295075000000111,"midi":76,"time":83.47331335416666,"velocity":0.3937007874015748},{"duration":0.12295075000000111,"midi":81,"time":83.60651,"velocity":0.3937007874015748},{"duration":0.12295075000000111,"midi":81,"time":83.71921485416667,"velocity":0.3937007874015748},{"duration":0.1229507499999869,"midi":78,"time":83.84216560416667,"velocity":0.3937007874015748},{"duration":0.1229507499999869,"midi":73,"time":83.97023930208334,"velocity":0.3937007874015748},{"duration":0.12295075000000111,"midi":76,"time":84.09319005208333,"velocity":0.3937007874015748},{"duration":0.12295075000000111,"midi":76,"time":84.21614080208333,"velocity":0.3937007874015748},{"duration":0.12295075000000111,"midi":78,"time":84.33909155208333,"velocity":0.3937007874015748},{"duration":0.12295075000000111,"midi":76,"time":84.45691935416666,"velocity":0.3937007874015748},{"duration":0.12295075000000111,"midi":81,"time":84.57987010416666,"velocity":0.3937007874015748},{"duration":0.12295075000000111,"midi":81,"time":84.69769790625,"velocity":0.3937007874015748},{"duration":0.061475375000000554,"midi":78,"time":84.82064865625,"velocity":0.3937007874015748},{"duration":0.12295075000000111,"midi":77,"time":84.86163223958333,"velocity":0.3937007874015748},{"duration":0.12295075000000111,"midi":76,"time":84.94872235416666,"velocity":0.3937007874015748},{"duration":0.12295075000000111,"midi":81,"time":85.07167310416666,"velocity":0.3937007874015748},{"duration":0.12295075000000111,"midi":81,"time":85.20486975,"velocity":0.3937007874015748},{"duration":0.12295075000000111,"midi":78,"time":85.33806639583334,"velocity":0.3937007874015748},{"duration":0.12295075000000111,"midi":76,"time":85.45589419791666,"velocity":0.3937007874015748},{"duration":0.12295075000000111,"midi":81,"time":85.573722,"velocity":0.3937007874015748},{"duration":0.12295075000000111,"midi":81,"time":85.68642685416665,"velocity":0.3937007874015748},{"duration":0.12295075000000111,"midi":78,"time":85.81450055208333,"velocity":0.3937007874015748},{"duration":0.12295075000000111,"midi":76,"time":85.94257424999999,"velocity":0.3937007874015748},{"duration":0.061475375000000554,"midi":81,"time":86.05527910416666,"velocity":0.3937007874015748},{"duration":0.12295075000000111,"midi":81,"time":86.16286101041666,"velocity":0.3937007874015748},{"duration":0.12295075000000111,"midi":78,"time":86.29093470833334,"velocity":0.3937007874015748},{"duration":0.12295075000000111,"midi":76,"time":86.41388545833334,"velocity":0.3937007874015748},{"duration":0.12295075000000111,"midi":69,"time":98.47842780208333,"velocity":0.3937007874015748},{"duration":0.12295075000000111,"midi":71,"time":98.60137855208333,"velocity":0.3937007874015748},{"duration":0.12295075000000111,"midi":73,"time":98.71920635416666,"velocity":0.3937007874015748},{"duration":0.12295075000000111,"midi":76,"time":98.84215710416666,"velocity":0.3937007874015748},{"duration":0.12295075000000111,"midi":76,"time":98.96510785416666,"velocity":0.3937007874015748},{"duration":0.12295075000000111,"midi":78,"time":99.0983045,"velocity":0.3937007874015748},{"duration":0.12295075000000111,"midi":76,"time":99.21100935416666,"velocity":0.3937007874015748},{"duration":0.12295075000000111,"midi":81,"time":99.344206,"velocity":0.3937007874015748},{"duration":0.12295075000000111,"midi":81,"time":99.45691085416667,"velocity":0.3937007874015748},{"duration":0.1229507499999869,"midi":78,"time":99.57986160416667,"velocity":0.3937007874015748},{"duration":0.1229507499999869,"midi":73,"time":99.70793530208334,"velocity":0.3937007874015748},{"duration":0.12295075000000111,"midi":76,"time":99.83088605208333,"velocity":0.3937007874015748},{"duration":0.12295075000000111,"midi":76,"time":99.95383680208333,"velocity":0.3937007874015748},{"duration":0.12295075000000111,"midi":78,"time":100.07678755208333,"velocity":0.3937007874015748},{"duration":0.12295075000000111,"midi":76,"time":100.19461535416666,"velocity":0.3937007874015748},{"duration":0.12295075000000111,"midi":81,"time":100.31756610416666,"velocity":0.3937007874015748},{"duration":0.12295075000000111,"midi":81,"time":100.43539390625,"velocity":0.3937007874015748},{"duration":0.061475375000000554,"midi":78,"time":100.55834465625,"velocity":0.3937007874015748},{"duration":0.12295075000000111,"midi":77,"time":100.59932823958333,"velocity":0.3937007874015748},{"duration":0.12295075000000111,"midi":76,"time":100.68641835416666,"velocity":0.3937007874015748},{"duration":0.12295075000000111,"midi":81,"time":100.80936910416666,"velocity":0.3937007874015748},{"duration":0.12295075000000111,"midi":81,"time":100.94256575,"velocity":0.3937007874015748},{"duration":0.12295075000000111,"midi":78,"time":101.07576239583334,"velocity":0.3937007874015748},{"duration":0.12295075000000111,"midi":76,"time":101.19359019791666,"velocity":0.3937007874015748},{"duration":0.12295075000000111,"midi":81,"time":101.311418,"velocity":0.3937007874015748},{"duration":0.12295075000000111,"midi":81,"time":101.42412285416665,"velocity":0.3937007874015748},{"duration":0.12295075000000111,"midi":78,"time":101.55219655208333,"velocity":0.3937007874015748},{"duration":0.12295075000000111,"midi":76,"time":101.68027024999999,"velocity":0.3937007874015748},{"duration":0.061475375000000554,"midi":81,"time":101.79297510416666,"velocity":0.3937007874015748},{"duration":0.12295075000000111,"midi":81,"time":101.90055701041666,"velocity":0.3937007874015748},{"duration":0.12295075000000111,"midi":78,"time":102.02863070833334,"velocity":0.3937007874015748},{"duration":0.12295075000000111,"midi":76,"time":102.15158145833334,"velocity":0.3937007874015748},{"duration":0.12295075000000111,"midi":54,"time":102.51531076041665,"velocity":0.3937007874015748},{"duration":0.12295075000000111,"midi":81,"time":102.5409255,"velocity":0.3937007874015748},{"duration":0.245901499999988,"midi":61,"time":102.78170405208334,"velocity":0.3937007874015748},{"duration":0.12295075000000111,"midi":59,"time":102.99686786458334,"velocity":0.3937007874015748},{"duration":0.245901499999988,"midi":61,"time":103.28887589583334,"velocity":0.3937007874015748},{"duration":0.12295075000000111,"midi":57,"time":103.53477739583333,"velocity":0.3937007874015748},{"duration":0.24590150000000222,"midi":66,"time":103.770433,"velocity":0.3937007874015748},{"duration":0.12295075000000111,"midi":64,"time":104.00096565625,"velocity":0.3937007874015748},{"duration":0.06147537499998634,"midi":68,"time":104.24686715625,"velocity":0.3937007874015748},{"duration":0.4918029999999902,"midi":69,"time":104.262236,"velocity":0.3937007874015748},{"duration":0.24590150000000222,"midi":66,"time":104.74891605208333,"velocity":0.3937007874015748},{"duration":0.12295075000000111,"midi":64,"time":104.98969460416666,"velocity":0.3937007874015748},{"duration":0.49180300000000443,"midi":69,"time":105.22406947135416,"velocity":0.3937007874015748},{"duration":0.06147537499998634,"midi":68,"time":105.23943831510417,"velocity":0.3937007874015748},{"duration":0.24590150000000222,"midi":66,"time":105.73636426302083,"velocity":0.3937007874015748},{"duration":0.12295075000000111,"midi":64,"time":105.9720198671875,"velocity":0.3937007874015748},{"duration":0.12295075000000111,"midi":54,"time":106.44333107552083,"velocity":0.3937007874015748},{"duration":0.24590150000000222,"midi":61,"time":106.6943555234375,"velocity":0.3937007874015748},{"duration":0.12295075000000111,"midi":59,"time":106.93513407552084,"velocity":0.3937007874015748},{"duration":0.24590150000000222,"midi":61,"time":107.19640441927083,"velocity":0.3937007874015748},{"duration":0.12295075000000111,"midi":57,"time":107.4474288671875,"velocity":0.3937007874015748},{"duration":0.24590150000000222,"midi":66,"time":107.69845331510416,"velocity":0.3937007874015748},{"duration":0.12295075000000111,"midi":64,"time":107.93410891927084,"velocity":0.3937007874015748},{"duration":0.1229507499999869,"midi":68,"time":108.1851333671875,"velocity":0.3937007874015748},{"duration":0.12295075000000111,"midi":69,"time":108.19537926302084,"velocity":0.3937007874015748},{"duration":0.24590150000000222,"midi":69,"time":108.45152665885416,"velocity":0.3937007874015748},{"duration":0.24590150000000222,"midi":66,"time":108.69230521093749,"velocity":0.3937007874015748},{"duration":0.12295075000000111,"midi":64,"time":108.92796081510416,"velocity":0.3937007874015748},{"duration":0.12295075000000111,"midi":68,"time":109.1687393671875,"velocity":0.3937007874015748},{"duration":0.49308373697915897,"midi":69,"time":109.187950421875,"velocity":0.3937007874015748},{"duration":0.24590150000000222,"midi":66,"time":109.67078826302084,"velocity":0.3937007874015748},{"duration":0.12295075000000111,"midi":64,"time":109.93205860677084,"velocity":0.3937007874015748},{"duration":0.12295075000000111,"midi":69,"time":114.21484306510416,"velocity":0.3937007874015748},{"duration":0.12295075000000111,"midi":71,"time":114.33779381510416,"velocity":0.3937007874015748},{"duration":0.12295075000000111,"midi":73,"time":114.4556216171875,"velocity":0.3937007874015748},{"duration":0.1229507499999869,"midi":76,"time":114.5785723671875,"velocity":0.3937007874015748},{"duration":0.12295075000000111,"midi":76,"time":114.70152311718749,"velocity":0.3937007874015748},{"duration":0.1229507499999869,"midi":78,"time":114.83471976302084,"velocity":0.3937007874015748},{"duration":0.12295075000000111,"midi":76,"time":114.9474246171875,"velocity":0.3937007874015748},{"duration":0.12295075000000111,"midi":81,"time":115.08062126302083,"velocity":0.3937007874015748},{"duration":0.12295075000000111,"midi":81,"time":115.1933261171875,"velocity":0.3937007874015748},{"duration":0.12295075000000111,"midi":78,"time":115.3162768671875,"velocity":0.3937007874015748},{"duration":0.12295075000000111,"midi":73,"time":115.44435056510416,"velocity":0.3937007874015748},{"duration":0.12295075000000111,"midi":76,"time":115.56730131510416,"velocity":0.3937007874015748},{"duration":0.12295075000000111,"midi":76,"time":115.69025206510416,"velocity":0.3937007874015748},{"duration":0.12295075000000111,"midi":78,"time":115.81320281510416,"velocity":0.3937007874015748},{"duration":0.12295075000000111,"midi":76,"time":115.9310306171875,"velocity":0.3937007874015748},{"duration":0.1229507499999869,"midi":81,"time":116.0539813671875,"velocity":0.3937007874015748},{"duration":0.12295075000000111,"midi":81,"time":116.17180916927083,"velocity":0.3937007874015748},{"duration":0.061475375000000554,"midi":78,"time":116.29475991927083,"velocity":0.3937007874015748},{"duration":0.12295075000000111,"midi":77,"time":116.33574350260416,"velocity":0.3937007874015748},{"duration":0.12295075000000111,"midi":76,"time":116.4228336171875,"velocity":0.3937007874015748},{"duration":0.12295075000000111,"midi":81,"time":116.5457843671875,"velocity":0.3937007874015748},{"duration":0.12295075000000111,"midi":81,"time":116.67898101302083,"velocity":0.3937007874015748},{"duration":0.12295075000000111,"midi":78,"time":116.81217765885415,"velocity":0.3937007874015748},{"duration":0.12295075000000111,"midi":76,"time":116.9300054609375,"velocity":0.3937007874015748},{"duration":0.12295075000000111,"midi":81,"time":117.04783326302083,"velocity":0.3937007874015748},{"duration":0.12295075000000111,"midi":81,"time":117.1605381171875,"velocity":0.3937007874015748},{"duration":0.12295075000000111,"midi":78,"time":117.28861181510416,"velocity":0.3937007874015748},{"duration":0.12295075000000111,"midi":76,"time":117.41668551302084,"velocity":0.3937007874015748},{"duration":0.061475375000000554,"midi":81,"time":117.5293903671875,"velocity":0.3937007874015748},{"duration":0.12295075000000111,"midi":81,"time":117.6369722734375,"velocity":0.3937007874015748},{"duration":0.12295075000000111,"midi":78,"time":117.76504597135416,"velocity":0.3937007874015748},{"duration":0.12295075000000111,"midi":76,"time":117.89952335416666,"velocity":0.3937007874015748},{"duration":0.12295075000000111,"midi":69,"time":118.2786215,"velocity":0.3937007874015748},{"duration":0.12295075000000111,"midi":81,"time":118.2786215,"velocity":0.3937007874015748},{"duration":0.12295075000000111,"midi":80,"time":119.25198160416666,"velocity":0.3937007874015748},{"duration":0.24590150000000222,"midi":68,"time":119.25198160416666,"velocity":0.3937007874015748},{"duration":0.24590150000000222,"midi":81,"time":122.19767665625,"velocity":0.3937007874015748},{"duration":0.12295075000000111,"midi":69,"time":122.20279960416666,"velocity":0.3937007874015748},{"duration":0.12295075000000111,"midi":80,"time":123.18128265624999,"velocity":0.3937007874015748},{"duration":0.1229507499999869,"midi":68,"time":123.18640560416667,"velocity":0.3937007874015748},{"duration":0.12295075000000111,"midi":69,"time":126.14234655208332,"velocity":0.3937007874015748},{"duration":0.24590150000000222,"midi":81,"time":126.14234655208332,"velocity":0.3937007874015748},{"duration":0.24590150000000222,"midi":80,"time":127.12082960416667,"velocity":0.3937007874015748},{"duration":0.24590150000000222,"midi":68,"time":127.12595255208332,"velocity":0.3937007874015748},{"duration":0.12295075000000111,"midi":81,"time":130.07164760416669,"velocity":0.3937007874015748},{"duration":0.24590150000000222,"midi":78,"time":130.33676015885416,"velocity":0.3937007874015748},{"duration":0.12295075000000111,"midi":81,"time":130.58906534375,"velocity":0.3937007874015748},{"duration":0.12295075000000111,"midi":81,"time":131.0654995,"velocity":0.3937007874015748},{"duration":0.24590150000000222,"midi":78,"time":131.30627805208331,"velocity":0.3937007874015748},{"duration":0.12295075000000111,"midi":81,"time":131.56242544791667,"velocity":0.3937007874015748},{"duration":0.12295075000000111,"midi":81,"time":132.03885960416667,"velocity":0.3937007874015748},{"duration":0.24590150000000222,"midi":78,"time":132.28988405208332,"velocity":0.3937007874015748},{"duration":0.12295075000000111,"midi":81,"time":132.5409085,"velocity":0.3937007874015748},{"duration":0.12295075000000111,"midi":81,"time":132.79705589583332,"velocity":0.3937007874015748},{"duration":0.12295075000000111,"midi":81,"time":133.04295739583333,"velocity":0.3937007874015748},{"duration":0.12295075000000111,"midi":81,"time":133.278613,"velocity":0.3937007874015748},{"duration":0.12295075000000111,"midi":81,"time":134.01631749999999,"velocity":0.3937007874015748},{"duration":0.12295075000000111,"midi":69,"time":134.01631749999999,"velocity":0.3937007874015748},{"duration":0.24590150000000222,"midi":68,"time":134.98967760416667,"velocity":0.3937007874015748},{"duration":0.12295075000000111,"midi":80,"time":134.98967760416667,"velocity":0.3937007874015748},{"duration":0.24590150000000222,"midi":81,"time":137.93537265625,"velocity":0.3937007874015748},{"duration":0.12295075000000111,"midi":69,"time":137.94049560416667,"velocity":0.3937007874015748},{"duration":0.12295075000000111,"midi":80,"time":138.91897865625,"velocity":0.3937007874015748},{"duration":0.12295075000000111,"midi":68,"time":138.92410160416668,"velocity":0.3937007874015748},{"duration":0.24590150000000222,"midi":81,"time":141.88004255208332,"velocity":0.3937007874015748},{"duration":0.12295075000000111,"midi":69,"time":141.88004255208332,"velocity":0.3937007874015748},{"duration":0.2459014999999738,"midi":80,"time":142.8585256041667,"velocity":0.3937007874015748},{"duration":0.2459014999999738,"midi":68,"time":142.86364855208333,"velocity":0.3937007874015748},{"duration":0.12295075000000111,"midi":81,"time":145.80934360416668,"velocity":0.3937007874015748},{"duration":0.24590150000000222,"midi":78,"time":146.07445615885416,"velocity":0.3937007874015748},{"duration":0.12295075000000111,"midi":81,"time":146.32676134375,"velocity":0.3937007874015748},{"duration":0.12295075000000111,"midi":81,"time":146.8031955,"velocity":0.3937007874015748},{"duration":0.24590150000000222,"midi":78,"time":147.0439740520833,"velocity":0.3937007874015748},{"duration":0.12295075000000111,"midi":81,"time":147.30012144791667,"velocity":0.3937007874015748},{"duration":0.12295075000000111,"midi":81,"time":147.77655560416667,"velocity":0.3937007874015748},{"duration":0.24590150000000222,"midi":78,"time":148.02758005208332,"velocity":0.3937007874015748},{"duration":0.12295075000000111,"midi":81,"time":148.2786045,"velocity":0.3937007874015748},{"duration":0.12295075000000111,"midi":81,"time":148.53475189583332,"velocity":0.3937007874015748},{"duration":0.12295075000000111,"midi":81,"time":148.78065339583333,"velocity":0.3937007874015748},{"duration":0.12295075000000111,"midi":81,"time":149.016309,"velocity":0.3937007874015748},{"duration":0.12295075000000111,"midi":54,"time":149.72839876041667,"velocity":0.3937007874015748},{"duration":0.12295075000000111,"midi":81,"time":149.75401349999999,"velocity":0.3937007874015748},{"duration":0.24590150000000222,"midi":61,"time":149.9947920520833,"velocity":0.3937007874015748},{"duration":0.12295075000000111,"midi":59,"time":150.20995586458332,"velocity":0.3937007874015748},{"duration":0.24590150000000222,"midi":61,"time":150.5019638958333,"velocity":0.3937007874015748},{"duration":0.12295075000000111,"midi":57,"time":150.74786539583332,"velocity":0.3937007874015748},{"duration":0.24590150000000222,"midi":66,"time":150.983521,"velocity":0.3937007874015748},{"duration":0.12295075000000111,"midi":64,"time":151.21405365625,"velocity":0.3937007874015748},{"duration":0.06147537499998634,"midi":68,"time":151.45995515625,"velocity":0.3937007874015748},{"duration":0.49180300000000443,"midi":69,"time":151.475324,"velocity":0.3937007874015748},{"duration":0.24590150000000222,"midi":66,"time":151.96200405208333,"velocity":0.3937007874015748},{"duration":0.12295075000000111,"midi":64,"time":152.20278260416669,"velocity":0.3937007874015748},{"duration":0.49180300000000443,"midi":69,"time":152.43715747135417,"velocity":0.3937007874015748},{"duration":0.061475375000014765,"midi":68,"time":152.45252631510417,"velocity":0.3937007874015748},{"duration":0.24590150000000222,"midi":66,"time":152.94945226302082,"velocity":0.3937007874015748},{"duration":0.12295075000000111,"midi":64,"time":153.1851078671875,"velocity":0.3937007874015748},{"duration":0.12295075000000111,"midi":54,"time":153.65641907552083,"velocity":0.3937007874015748},{"duration":0.24590150000000222,"midi":61,"time":153.9074435234375,"velocity":0.3937007874015748},{"duration":0.12295074999997269,"midi":59,"time":154.14822207552083,"velocity":0.3937007874015748},{"duration":0.2459014999999738,"midi":61,"time":154.40949241927083,"velocity":0.3937007874015748},{"duration":0.12295074999997269,"midi":57,"time":154.6605168671875,"velocity":0.3937007874015748},{"duration":0.24590150000000222,"midi":66,"time":154.91154131510416,"velocity":0.3937007874015748},{"duration":0.12295075000000111,"midi":64,"time":155.1471969192708,"velocity":0.3937007874015748},{"duration":0.12295075000000111,"midi":68,"time":155.3982213671875,"velocity":0.3937007874015748},{"duration":0.12295075000000111,"midi":69,"time":155.4084672630208,"velocity":0.3937007874015748},{"duration":0.24590150000000222,"midi":69,"time":155.66461465885416,"velocity":0.3937007874015748},{"duration":0.24590150000000222,"midi":66,"time":155.9053932109375,"velocity":0.3937007874015748},{"duration":0.12295075000000111,"midi":64,"time":156.14104881510417,"velocity":0.3937007874015748},{"duration":0.12295075000000111,"midi":68,"time":156.3818273671875,"velocity":0.3937007874015748},{"duration":0.4930837369791732,"midi":69,"time":156.401038421875,"velocity":0.3937007874015748},{"duration":0.24590150000000222,"midi":66,"time":156.88387626302082,"velocity":0.3937007874015748},{"duration":0.12295075000000111,"midi":64,"time":157.14514660677082,"velocity":0.3937007874015748},{"duration":0.12295075000000111,"midi":69,"time":161.42793106510416,"velocity":0.3937007874015748},{"duration":0.12295075000000111,"midi":71,"time":161.55088181510416,"velocity":0.3937007874015748},{"duration":0.12295075000000111,"midi":73,"time":161.6687096171875,"velocity":0.3937007874015748},{"duration":0.12295075000000111,"midi":76,"time":161.7916603671875,"velocity":0.3937007874015748},{"duration":0.12295075000000111,"midi":76,"time":161.9146111171875,"velocity":0.3937007874015748},{"duration":0.12295075000000111,"midi":78,"time":162.0478077630208,"velocity":0.3937007874015748},{"duration":0.12295075000000111,"midi":76,"time":162.1605126171875,"velocity":0.3937007874015748},{"duration":0.12295075000000111,"midi":81,"time":162.29370926302082,"velocity":0.3937007874015748},{"duration":0.12295075000000111,"midi":81,"time":162.4064141171875,"velocity":0.3937007874015748},{"duration":0.12295075000000111,"midi":78,"time":162.5293648671875,"velocity":0.3937007874015748},{"duration":0.12295075000000111,"midi":73,"time":162.65743856510417,"velocity":0.3937007874015748},{"duration":0.12295075000000111,"midi":76,"time":162.78038931510417,"velocity":0.3937007874015748},{"duration":0.12295075000000111,"midi":76,"time":162.90334006510417,"velocity":0.3937007874015748},{"duration":0.12295075000000111,"midi":78,"time":163.02629081510418,"velocity":0.3937007874015748},{"duration":0.12295075000000111,"midi":76,"time":163.1441186171875,"velocity":0.3937007874015748},{"duration":0.12295075000000111,"midi":81,"time":163.2670693671875,"velocity":0.3937007874015748},{"duration":0.12295075000000111,"midi":81,"time":163.38489716927083,"velocity":0.3937007874015748},{"duration":0.06147537499998634,"midi":78,"time":163.50784791927083,"velocity":0.3937007874015748},{"duration":0.12295075000000111,"midi":77,"time":163.54883150260417,"velocity":0.3937007874015748},{"duration":0.12295075000000111,"midi":76,"time":163.6359216171875,"velocity":0.3937007874015748},{"duration":0.12295075000000111,"midi":81,"time":163.7588723671875,"velocity":0.3937007874015748},{"duration":0.12295075000000111,"midi":81,"time":163.89206901302083,"velocity":0.3937007874015748},{"duration":0.12295075000000111,"midi":78,"time":164.02526565885418,"velocity":0.3937007874015748},{"duration":0.12295075000000111,"midi":76,"time":164.1430934609375,"velocity":0.3937007874015748},{"duration":0.12295075000000111,"midi":81,"time":164.26092126302083,"velocity":0.3937007874015748},{"duration":0.12295075000000111,"midi":81,"time":164.37362611718748,"velocity":0.3937007874015748},{"duration":0.12295075000000111,"midi":78,"time":164.50169981510416,"velocity":0.3937007874015748},{"duration":0.12295075000000111,"midi":76,"time":164.6297735130208,"velocity":0.3937007874015748},{"duration":0.061475375000014765,"midi":81,"time":164.7424783671875,"velocity":0.3937007874015748},{"duration":0.12295075000000111,"midi":81,"time":164.8500602734375,"velocity":0.3937007874015748},{"duration":0.12295075000000111,"midi":78,"time":164.97813397135417,"velocity":0.3937007874015748},{"duration":0.12295075000000111,"midi":76,"time":165.11261135416666,"velocity":0.3937007874015748},{"duration":0.12295075000000111,"midi":81,"time":165.49170949999998,"velocity":0.3937007874015748},{"duration":0.12295075000000111,"midi":69,"time":165.49170949999998,"velocity":0.3937007874015748},{"duration":0.12295075000000111,"midi":80,"time":166.46506960416667,"velocity":0.3937007874015748},{"duration":0.24590150000000222,"midi":68,"time":166.46506960416667,"velocity":0.3937007874015748},{"duration":0.24590150000000222,"midi":81,"time":169.41076465625,"velocity":0.3937007874015748},{"duration":0.12295075000000111,"midi":69,"time":169.41588760416667,"velocity":0.3937007874015748},{"duration":0.12295075000000111,"midi":80,"time":170.39437065625,"velocity":0.3937007874015748},{"duration":0.12295075000000111,"midi":68,"time":170.39949360416668,"velocity":0.3937007874015748},{"duration":0.12295075000000111,"midi":69,"time":173.35543455208332,"velocity":0.3937007874015748},{"duration":0.24590150000000222,"midi":81,"time":173.35543455208332,"velocity":0.3937007874015748},{"duration":0.2459014999999738,"midi":80,"time":174.3339176041667,"velocity":0.3937007874015748},{"duration":0.2459014999999738,"midi":68,"time":174.33904055208333,"velocity":0.3937007874015748},{"duration":0.12295075000000111,"midi":81,"time":177.03883410416668,"velocity":0.3937007874015748},{"duration":0.3688522500000033,"midi":81,"time":177.28985855208333,"velocity":0.3937007874015748},{"duration":0.12295075000000111,"midi":81,"time":177.77653860416666,"velocity":0.3937007874015748},{"duration":0.3688522500000033,"midi":81,"time":178.03268599999998,"velocity":0.3937007874015748},{"duration":0.12295075000000111,"midi":81,"time":178.49887426041667,"velocity":0.3937007874015748},{"duration":0.3688522500000033,"midi":81,"time":178.76014460416667,"velocity":0.3937007874015748},{"duration":0.12295075000000111,"midi":81,"time":179.23657876041668,"velocity":0.3937007874015748},{"duration":0.3688522500000033,"midi":81,"time":179.50297205208332,"velocity":0.3937007874015748},{"duration":0.12295075000000111,"midi":81,"time":179.999898,"velocity":0.3937007874015748},{"duration":0.12295075000000111,"midi":81,"time":180.24067655208333,"velocity":0.3937007874015748},{"duration":0.12295075000000111,"midi":81,"time":180.50194689583333,"velocity":0.3937007874015748},{"duration":0.12295075000000111,"midi":69,"time":181.22940549999998,"velocity":0.3937007874015748},{"duration":0.12295075000000111,"midi":81,"time":181.22940549999998,"velocity":0.3937007874015748},{"duration":0.12295075000000111,"midi":80,"time":182.20276560416667,"velocity":0.3937007874015748},{"duration":0.24590150000000222,"midi":68,"time":182.20276560416667,"velocity":0.3937007874015748},{"duration":0.24590150000000222,"midi":81,"time":185.14846065625,"velocity":0.3937007874015748},{"duration":0.12295075000000111,"midi":69,"time":185.15358360416667,"velocity":0.3937007874015748},{"duration":0.12295075000000111,"midi":80,"time":186.13206665625,"velocity":0.3937007874015748},{"duration":0.12295075000000111,"midi":68,"time":186.13718960416668,"velocity":0.3937007874015748},{"duration":0.12295075000000111,"midi":69,"time":189.09313055208332,"velocity":0.3937007874015748},{"duration":0.24590150000000222,"midi":81,"time":189.09313055208332,"velocity":0.3937007874015748},{"duration":0.2459014999999738,"midi":80,"time":190.07161360416669,"velocity":0.3937007874015748},{"duration":0.2459014999999738,"midi":68,"time":190.07673655208333,"velocity":0.3937007874015748},{"duration":0.12295075000000111,"midi":81,"time":193.02243160416668,"velocity":0.3937007874015748},{"duration":0.24590150000000222,"midi":78,"time":193.28754415885416,"velocity":0.3937007874015748},{"duration":0.12295075000000111,"midi":81,"time":193.53984934375,"velocity":0.3937007874015748},{"duration":0.12295075000000111,"midi":81,"time":194.0162835,"velocity":0.3937007874015748},{"duration":0.24590150000000222,"midi":78,"time":194.2570620520833,"velocity":0.3937007874015748},{"duration":0.12295075000000111,"midi":81,"time":194.51320944791667,"velocity":0.3937007874015748},{"duration":0.12295075000000111,"midi":81,"time":194.98964360416667,"velocity":0.3937007874015748},{"duration":0.24590150000000222,"midi":78,"time":195.24066805208332,"velocity":0.3937007874015748},{"duration":0.12295075000000111,"midi":81,"time":195.4916925,"velocity":0.3937007874015748},{"duration":0.12295075000000111,"midi":81,"time":195.74783989583332,"velocity":0.3937007874015748},{"duration":0.12295075000000111,"midi":81,"time":195.99374139583333,"velocity":0.3937007874015748},{"duration":0.12295075000000111,"midi":81,"time":196.229397,"velocity":0.3937007874015748},{"duration":0.12295075000000111,"midi":69,"time":196.96710149999998,"velocity":0.3937007874015748},{"duration":0.12295075000000111,"midi":81,"time":196.96710149999998,"velocity":0.3937007874015748},{"duration":0.12295075000000111,"midi":80,"time":197.94046160416667,"velocity":0.3937007874015748},{"duration":0.24590150000000222,"midi":68,"time":197.94046160416667,"velocity":0.3937007874015748},{"duration":0.24590150000000222,"midi":81,"time":200.88615665625,"velocity":0.3937007874015748},{"duration":0.12295075000000111,"midi":69,"time":200.89127960416667,"velocity":0.3937007874015748},{"duration":0.12295075000000111,"midi":80,"time":201.86976265625,"velocity":0.3937007874015748},{"duration":0.12295075000000111,"midi":68,"time":201.87488560416668,"velocity":0.3937007874015748},{"duration":0.12295075000000111,"midi":69,"time":204.83082655208332,"velocity":0.3937007874015748},{"duration":0.24590150000000222,"midi":81,"time":204.83082655208332,"velocity":0.3937007874015748},{"duration":0.2459014999999738,"midi":80,"time":205.80930960416669,"velocity":0.3937007874015748},{"duration":0.2459014999999738,"midi":68,"time":205.81443255208333,"velocity":0.3937007874015748},{"duration":0.12295075000000111,"midi":81,"time":208.51422610416668,"velocity":0.3937007874015748},{"duration":0.3688522500000033,"midi":81,"time":208.76525055208333,"velocity":0.3937007874015748},{"duration":0.12295075000000111,"midi":81,"time":209.25193060416666,"velocity":0.3937007874015748},{"duration":0.3688522500000033,"midi":81,"time":209.50807799999998,"velocity":0.3937007874015748},{"duration":0.12295075000000111,"midi":81,"time":209.97426626041667,"velocity":0.3937007874015748},{"duration":0.3688522500000033,"midi":81,"time":210.23553660416667,"velocity":0.3937007874015748},{"duration":0.12295075000000111,"midi":81,"time":210.71197076041668,"velocity":0.3937007874015748},{"duration":0.3688522500000033,"midi":81,"time":210.97836405208332,"velocity":0.3937007874015748},{"duration":0.12295075000000111,"midi":81,"time":211.47529,"velocity":0.3937007874015748},{"duration":0.12295075000000111,"midi":81,"time":211.71606855208333,"velocity":0.3937007874015748},{"duration":0.12295075000000111,"midi":81,"time":211.97733889583333,"velocity":0.3937007874015748},{"duration":0.12295075000000111,"midi":81,"time":212.70479749999998,"velocity":0.3937007874015748},{"duration":0.12295075000000111,"midi":69,"time":212.70479749999998,"velocity":0.3937007874015748},{"duration":0.24590150000000222,"midi":68,"time":213.67815760416667,"velocity":0.3937007874015748},{"duration":0.12295075000000111,"midi":80,"time":213.67815760416667,"velocity":0.3937007874015748},{"duration":0.24590150000000222,"midi":81,"time":216.62385265625,"velocity":0.3937007874015748},{"duration":0.12295075000000111,"midi":69,"time":216.62897560416667,"velocity":0.3937007874015748},{"duration":0.12295075000000111,"midi":80,"time":217.60745865625,"velocity":0.3937007874015748},{"duration":0.12295075000000111,"midi":68,"time":217.61258160416668,"velocity":0.3937007874015748},{"duration":0.24590150000000222,"midi":81,"time":220.56852255208332,"velocity":0.3937007874015748},{"duration":0.12295075000000111,"midi":69,"time":220.56852255208332,"velocity":0.3937007874015748},{"duration":0.2459014999999738,"midi":80,"time":221.54700560416669,"velocity":0.3937007874015748},{"duration":0.2459014999999738,"midi":68,"time":221.55212855208333,"velocity":0.3937007874015748},{"duration":0.12295075000000111,"midi":81,"time":224.25192210416668,"velocity":0.3937007874015748},{"duration":0.3688522500000033,"midi":81,"time":224.50294655208333,"velocity":0.3937007874015748},{"duration":0.12295075000000111,"midi":81,"time":224.98962660416666,"velocity":0.3937007874015748},{"duration":0.3688522500000033,"midi":81,"time":225.24577399999998,"velocity":0.3937007874015748},{"duration":0.12295075000000111,"midi":81,"time":225.71196226041667,"velocity":0.3937007874015748},{"duration":0.3688522500000033,"midi":81,"time":225.97323260416667,"velocity":0.3937007874015748},{"duration":0.12295075000000111,"midi":81,"time":226.44966676041668,"velocity":0.3937007874015748},{"duration":0.3688522500000033,"midi":81,"time":226.71606005208332,"velocity":0.3937007874015748},{"duration":0.12295075000000111,"midi":81,"time":227.212986,"velocity":0.3937007874015748},{"duration":0.12295075000000111,"midi":81,"time":227.45376455208333,"velocity":0.3937007874015748},{"duration":0.12295075000000111,"midi":81,"time":227.71503489583333,"velocity":0.3937007874015748},{"duration":0.12295075000000111,"midi":72,"time":239.50293805208332,"velocity":0.3937007874015748},{"duration":0.12295075000000111,"midi":72,"time":239.63613469791667,"velocity":0.3937007874015748},{"duration":0.12295075000000111,"midi":71,"time":239.74371660416668,"velocity":0.3937007874015748},{"duration":0.12295075000000111,"midi":69,"time":239.86666735416668,"velocity":0.3937007874015748},{"duration":0.12295075000000111,"midi":71,"time":239.99474105208333,"velocity":0.3937007874015748},{"duration":3.4426210000000026,"midi":69,"time":240.11769180208333,"velocity":0.3937007874015748},{"duration":0.12295074999997269,"midi":84,"time":240.48142110416669,"velocity":0.3937007874015748},{"duration":0.12295074999997269,"midi":84,"time":240.60949480208333,"velocity":0.3937007874015748},{"duration":0.12295075000000111,"midi":83,"time":240.7324455520833,"velocity":0.3937007874015748},{"duration":0.12295075000000111,"midi":81,"time":240.86051924999998,"velocity":0.3937007874015748},{"duration":0.12295075000000111,"midi":83,"time":240.98346999999998,"velocity":0.3937007874015748},{"duration":2.336064250000021,"midi":81,"time":241.10642074999998,"velocity":0.3937007874015748},{"duration":2.827867249999997,"midi":81,"time":243.6883865,"velocity":0.3937007874015748},{"duration":2.827867249999997,"midi":69,"time":243.69350944791668,"velocity":0.3937007874015748},{"duration":0.2459014999999738,"midi":81,"time":246.885106,"velocity":0.3937007874015748}]},{"instrument":{"family":"bass","number":32,"name":"acoustic bass"},"notes":[{"duration":0.12295075000000111,"midi":47,"time":10.829911895833332,"velocity":0.3937007874015748},{"duration":0.12295075000000111,"midi":49,"time":10.933651591145832,"velocity":0.3937007874015748},{"duration":0.12295074999999933,"midi":52,"time":11.071971184895833,"velocity":0.3937007874015748},{"duration":0.12295074999999933,"midi":54,"time":11.179553091145833,"velocity":0.3937007874015748},{"duration":0.12295074999999933,"midi":57,"time":11.321714895833333,"velocity":0.3937007874015748},{"duration":0.983606,"midi":59,"time":11.562493447916667,"velocity":0.3937007874015748},{"duration":0.12295075000000288,"midi":33,"time":15.732573052083332,"velocity":0.3937007874015748},{"duration":0.24590149999999866,"midi":33,"time":15.978474552083334,"velocity":0.3937007874015748},{"duration":0.24590149999999866,"midi":55,"time":16.229499,"velocity":0.3937007874015748},{"duration":0.24590149999999866,"midi":57,"time":16.470277552083335,"velocity":0.3937007874015748},{"duration":0.12295075000000111,"midi":33,"time":16.726424947916666,"velocity":0.3937007874015748},{"duration":0.24590149999999866,"midi":33,"time":16.962080552083336,"velocity":0.3937007874015748},{"duration":0.24590149999999866,"midi":55,"time":17.207982052083334,"velocity":0.3937007874015748},{"duration":0.24590150000000222,"midi":57,"time":17.453883552083333,"velocity":0.3937007874015748},{"duration":0.12295075000000111,"midi":33,"time":17.704908,"velocity":0.3937007874015748},{"duration":0.24590149999999866,"midi":33,"time":17.940563604166666,"velocity":0.3937007874015748},{"duration":0.24590149999999866,"midi":55,"time":18.186465104166665,"velocity":0.3937007874015748},{"duration":0.24590150000000222,"midi":57,"time":18.42724365625,"velocity":0.3937007874015748},{"duration":0.12295074999999756,"midi":33,"time":18.6923562109375,"velocity":0.3937007874015748},{"duration":0.12295075000000111,"midi":33,"time":18.9228888671875,"velocity":0.3937007874015748},{"duration":0.12295075000000111,"midi":45,"time":19.173913315104166,"velocity":0.3937007874015748},{"duration":0.12295075000000111,"midi":55,"time":19.317355856770835,"velocity":0.3937007874015748},{"duration":0.12295075000000111,"midi":57,"time":19.547888513020833,"velocity":0.3937007874015748},{"duration":0.12295074999999756,"midi":33,"time":19.681085158854167,"velocity":0.3937007874015748},{"duration":0.24590149999999866,"midi":33,"time":19.926986658854165,"velocity":0.3937007874015748},{"duration":0.24590149999999866,"midi":55,"time":20.1677652109375,"velocity":0.3937007874015748},{"duration":0.24590149999999866,"midi":57,"time":20.403420815104166,"velocity":0.3937007874015748},{"duration":0.12295075000000111,"midi":33,"time":20.654445263020833,"velocity":0.3937007874015748},{"duration":0.24590150000000222,"midi":33,"time":20.8901008671875,"velocity":0.3937007874015748},{"duration":0.24590149999999866,"midi":55,"time":21.141125315104166,"velocity":0.3937007874015748},{"duration":0.24590150000000222,"midi":57,"time":21.387026815104164,"velocity":0.3937007874015748},{"duration":0.12295074999999756,"midi":33,"time":21.632928315104166,"velocity":0.3937007874015748},{"duration":0.24590149999999866,"midi":33,"time":21.8737068671875,"velocity":0.3937007874015748},{"duration":0.24590149999999866,"midi":55,"time":22.129854263020835,"velocity":0.3937007874015748},{"duration":0.24590149999999866,"midi":57,"time":22.370632815104166,"velocity":0.3937007874015748},{"duration":0.24590149999999866,"midi":33,"time":22.6267802109375,"velocity":0.3937007874015748},{"duration":0.12295075000000111,"midi":38,"time":23.605263263020834,"velocity":0.3937007874015748},{"duration":0.12295075000000111,"midi":38,"time":23.830672971354165,"velocity":0.3937007874015748},{"duration":0.12295075000000111,"midi":38,"time":24.076574471354164,"velocity":0.3937007874015748},{"duration":0.24590150000000222,"midi":37,"time":24.32887965625,"velocity":0.3937007874015748},{"duration":0.24590150000000222,"midi":35,"time":24.825805604166664,"velocity":0.3937007874015748},{"duration":0.12295075000000111,"midi":35,"time":25.302239760416665,"velocity":0.3937007874015748},{"duration":0.12295074999999756,"midi":36,"time":25.425190510416666,"velocity":0.3937007874015748},{"duration":0.12295075000000111,"midi":37,"time":25.559667893229165,"velocity":0.3937007874015748},{"duration":0.12295074999999756,"midi":32,"time":25.794042760416666,"velocity":0.3937007874015748},{"duration":0.24590150000000222,"midi":28,"time":26.039944260416664,"velocity":0.3937007874015748},{"duration":0.3688522500000033,"midi":30,"time":26.557361999999998,"velocity":0.3937007874015748},{"duration":0.24590150000000222,"midi":33,"time":27.03379615625,"velocity":0.3937007874015748},{"duration":0.12295075000000111,"midi":37,"time":27.289943552083333,"velocity":0.3937007874015748},{"duration":0.12295075000000111,"midi":38,"time":27.540968,"velocity":0.3937007874015748},{"duration":0.12295075000000111,"midi":38,"time":27.766377708333334,"velocity":0.3937007874015748},{"duration":0.12295075000000111,"midi":38,"time":28.007156260416664,"velocity":0.3937007874015748},{"duration":0.12295075000000111,"midi":37,"time":28.268426604166663,"velocity":0.3937007874015748},{"duration":0.24590149999999866,"midi":35,"time":28.75510665625,"velocity":0.3937007874015748},{"duration":0.12295075000000111,"midi":35,"time":29.240505971354164,"velocity":0.3937007874015748},{"duration":0.12295075000000111,"midi":36,"time":29.353210825520833,"velocity":0.3937007874015748},{"duration":0.12295075000000111,"midi":37,"time":29.4812845234375,"velocity":0.3937007874015748},{"duration":0.12295075000000111,"midi":32,"time":29.722063075520833,"velocity":0.3937007874015748},{"duration":0.24590150000000222,"midi":28,"time":29.978210471354164,"velocity":0.3937007874015748},{"duration":0.24590149999999866,"midi":30,"time":30.481540104166665,"velocity":0.3937007874015748},{"duration":0.12295074999999756,"midi":33,"time":30.973343104166666,"velocity":0.3937007874015748},{"duration":0.12295075000000111,"midi":37,"time":31.224367552083333,"velocity":0.3937007874015748},{"duration":0.12295075000000111,"midi":38,"time":31.475392,"velocity":0.3937007874015748},{"duration":0.12295075000000111,"midi":38,"time":31.721293499999998,"velocity":0.3937007874015748},{"duration":0.12295075000000466,"midi":38,"time":31.94670320833333,"velocity":0.3937007874015748},{"duration":0.12295075000000111,"midi":37,"time":32.20413134114583,"velocity":0.3937007874015748},{"duration":0.2459014999999951,"midi":35,"time":32.68440770833333,"velocity":0.3937007874015748},{"duration":0.12295075000000111,"midi":35,"time":33.182614393229166,"velocity":0.3937007874015748},{"duration":0.12295075000000111,"midi":36,"time":33.29916145833333,"velocity":0.3937007874015748},{"duration":0.12295075000000111,"midi":37,"time":33.43363884114583,"velocity":0.3937007874015748},{"duration":0.12295075000000111,"midi":40,"time":33.67954034114583,"velocity":0.3937007874015748},{"duration":0.122950749999994,"midi":41,"time":33.92544184114583,"velocity":0.3937007874015748},{"duration":0.2459014999999951,"midi":42,"time":34.41212189322917,"velocity":0.3937007874015748},{"duration":0.24590150000000222,"midi":37,"time":34.90904784114583,"velocity":0.3937007874015748},{"duration":0.24590150000000222,"midi":35,"time":35.15494934114583,"velocity":0.3937007874015748},{"duration":0.12295075000000111,"midi":33,"time":35.40085084114583,"velocity":0.3937007874015748},{"duration":0.24590150000000222,"midi":33,"time":35.64675234114583,"velocity":0.3937007874015748},{"duration":0.24590150000000222,"midi":55,"time":35.8977767890625,"velocity":0.3937007874015748},{"duration":0.2459014999999951,"midi":57,"time":36.13855534114583,"velocity":0.3937007874015748},{"duration":0.12295075000000111,"midi":33,"time":36.39982568489583,"velocity":0.3937007874015748},{"duration":0.24590150000000222,"midi":33,"time":36.63035834114583,"velocity":0.3937007874015748},{"duration":0.24590150000000222,"midi":55,"time":36.87625984114583,"velocity":0.3937007874015748},{"duration":0.2459014999999951,"midi":57,"time":37.12216134114583,"velocity":0.3937007874015748},{"duration":0.12295075000000111,"midi":33,"time":37.36806284114583,"velocity":0.3937007874015748},{"duration":0.2459014999999951,"midi":33,"time":37.60243770833333,"velocity":0.3937007874015748},{"duration":0.24590150000000222,"midi":55,"time":37.84833920833333,"velocity":0.3937007874015748},{"duration":0.24590150000000222,"midi":57,"time":38.10064439322917,"velocity":0.3937007874015748},{"duration":0.12295075000000111,"midi":33,"time":38.3567917890625,"velocity":0.3937007874015748},{"duration":0.3688522499999962,"midi":42,"time":38.85371773697917,"velocity":0.3937007874015748},{"duration":0.12295075000000111,"midi":38,"time":39.3557666328125,"velocity":0.3937007874015748},{"duration":0.12295075000000111,"midi":38,"time":39.59142223697917,"velocity":0.3937007874015748},{"duration":0.12295075000000111,"midi":38,"time":39.8322007890625,"velocity":0.3937007874015748},{"duration":0.12295075000000111,"midi":37,"time":40.07297934114583,"velocity":0.3937007874015748},{"duration":0.24590150000000222,"midi":35,"time":40.56478234114583,"velocity":0.3937007874015748},{"duration":0.12295075000000111,"midi":35,"time":41.051462393229166,"velocity":0.3937007874015748},{"duration":0.12295075000000111,"midi":36,"time":41.16800945833333,"velocity":0.3937007874015748},{"duration":0.12295075000000111,"midi":37,"time":41.30248684114583,"velocity":0.3937007874015748},{"duration":0.122950749999994,"midi":32,"time":41.53686170833333,"velocity":0.3937007874015748},{"duration":0.3688522500000033,"midi":28,"time":41.77764026041667,"velocity":0.3937007874015748},{"duration":0.3688522499999962,"midi":30,"time":42.28481210416667,"velocity":0.3937007874015748},{"duration":0.12295075000000111,"midi":33,"time":42.776615104166666,"velocity":0.3937007874015748},{"duration":0.12295075000000111,"midi":37,"time":43.02251660416667,"velocity":0.3937007874015748},{"duration":0.12295075000000111,"midi":38,"time":43.26841810416667,"velocity":0.3937007874015748},{"duration":0.12295075000000111,"midi":38,"time":43.49895076041667,"velocity":0.3937007874015748},{"duration":0.12295075000000111,"midi":38,"time":43.74997520833333,"velocity":0.3937007874015748},{"duration":0.12295075000000111,"midi":37,"time":44.00740334114583,"velocity":0.3937007874015748},{"duration":0.24590150000000222,"midi":35,"time":44.49920634114583,"velocity":0.3937007874015748},{"duration":0.122950749999994,"midi":35,"time":44.99100934114583,"velocity":0.3937007874015748},{"duration":0.12295075000000111,"midi":36,"time":45.10883714322917,"velocity":0.3937007874015748},{"duration":0.12295075000000111,"midi":37,"time":45.23691084114583,"velocity":0.3937007874015748},{"duration":0.12295075000000111,"midi":32,"time":45.48281234114583,"velocity":0.3937007874015748},{"duration":0.3688522500000033,"midi":28,"time":45.71718720833333,"velocity":0.3937007874015748},{"duration":0.4918029999999973,"midi":30,"time":46.22051684114583,"velocity":0.3937007874015748},{"duration":0.12295075000000111,"midi":33,"time":46.71231984114583,"velocity":0.3937007874015748},{"duration":0.12295075000000111,"midi":37,"time":46.95822134114583,"velocity":0.3937007874015748},{"duration":0.122950749999994,"midi":38,"time":47.19899989322917,"velocity":0.3937007874015748},{"duration":0.12295075000000111,"midi":38,"time":47.45002434114583,"velocity":0.3937007874015748},{"duration":0.12295075000000111,"midi":38,"time":47.68439920833333,"velocity":0.3937007874015748},{"duration":0.12295075000000111,"midi":37,"time":47.94182734114583,"velocity":0.3937007874015748},{"duration":0.12295075000000111,"midi":35,"time":48.43363034114583,"velocity":0.3937007874015748},{"duration":0.122950749999994,"midi":35,"time":48.92543334114583,"velocity":0.3937007874015748},{"duration":0.12295075000000111,"midi":36,"time":49.04326114322917,"velocity":0.3937007874015748},{"duration":0.12295075000000111,"midi":37,"time":49.17133484114583,"velocity":0.3937007874015748},{"duration":0.122950749999994,"midi":40,"time":49.40570970833333,"velocity":0.3937007874015748},{"duration":0.122950749999994,"midi":41,"time":49.66313784114583,"velocity":0.3937007874015748},{"duration":0.3688522500000033,"midi":42,"time":50.15494084114583,"velocity":0.3937007874015748},{"duration":0.24590150000000222,"midi":37,"time":50.63521720833333,"velocity":0.3937007874015748},{"duration":0.12295075000000111,"midi":35,"time":50.9016105,"velocity":0.3937007874015748},{"duration":0.12295075000000111,"midi":33,"time":51.15263494791667,"velocity":0.3937007874015748},{"duration":0.24590150000000222,"midi":33,"time":51.383167604166665,"velocity":0.3937007874015748},{"duration":0.24590150000000222,"midi":55,"time":51.62906910416667,"velocity":0.3937007874015748},{"duration":0.2459014999999951,"midi":57,"time":51.87497060416667,"velocity":0.3937007874015748},{"duration":0.122950749999994,"midi":33,"time":52.12599505208333,"velocity":0.3937007874015748},{"duration":0.24590150000000222,"midi":33,"time":52.37189655208333,"velocity":0.3937007874015748},{"duration":0.2459014999999951,"midi":55,"time":52.61267510416667,"velocity":0.3937007874015748},{"duration":0.2459014999999951,"midi":57,"time":52.86369955208333,"velocity":0.3937007874015748},{"duration":0.12295075000000111,"midi":33,"time":53.10960105208333,"velocity":0.3937007874015748},{"duration":0.24590150000000222,"midi":33,"time":53.35550255208333,"velocity":0.3937007874015748},{"duration":0.2459014999999951,"midi":55,"time":53.60140405208333,"velocity":0.3937007874015748},{"duration":0.24590150000000222,"midi":57,"time":53.84730555208333,"velocity":0.3937007874015748},{"duration":0.24590150000000222,"midi":33,"time":54.09320705208333,"velocity":0.3937007874015748},{"duration":0.3688522500000033,"midi":34,"time":54.58501005208333,"velocity":0.3937007874015748},{"duration":0.24590150000000222,"midi":35,"time":55.07681305208333,"velocity":0.3937007874015748},{"duration":0.24590150000000222,"midi":42,"time":55.56861605208333,"velocity":0.3937007874015748},{"duration":0.24590150000000222,"midi":40,"time":55.82988639583333,"velocity":0.3937007874015748},{"duration":0.24590150000000222,"midi":35,"time":56.55222205208333,"velocity":0.3937007874015748},{"duration":0.12295075000000111,"midi":36,"time":56.79812355208333,"velocity":0.3937007874015748},{"duration":0.12295075000000111,"midi":37,"time":57.04402505208333,"velocity":0.3937007874015748},{"duration":0.24590150000000222,"midi":32,"time":57.28480360416667,"velocity":0.3937007874015748},{"duration":0.3688522499999962,"midi":28,"time":57.53582805208333,"velocity":0.3937007874015748},{"duration":0.24590150000000222,"midi":30,"time":58.037876947916665,"velocity":0.3937007874015748},{"duration":0.12295075000000111,"midi":33,"time":58.51943405208333,"velocity":0.3937007874015748},{"duration":0.12295075000000111,"midi":34,"time":58.76533555208333,"velocity":0.3937007874015748},{"duration":0.24590150000000222,"midi":35,"time":59.01123705208333,"velocity":0.3937007874015748},{"duration":0.12295075000000111,"midi":35,"time":59.39033519791667,"velocity":0.3937007874015748},{"duration":0.24590150000000222,"midi":42,"time":59.50304005208333,"velocity":0.3937007874015748},{"duration":0.24590150000000222,"midi":40,"time":59.759187447916666,"velocity":0.3937007874015748},{"duration":0.12295075000000111,"midi":35,"time":60.48664605208333,"velocity":0.3937007874015748},{"duration":0.12295075000000111,"midi":36,"time":60.73254755208333,"velocity":0.3937007874015748},{"duration":0.12295075000000111,"midi":37,"time":60.97844905208333,"velocity":0.3937007874015748},{"duration":0.12295075000000111,"midi":32,"time":61.21922760416667,"velocity":0.3937007874015748},{"duration":0.3688522499999962,"midi":28,"time":61.47025205208333,"velocity":0.3937007874015748},{"duration":0.3688522499999962,"midi":30,"time":61.95693210416667,"velocity":0.3937007874015748},{"duration":0.12295075000000111,"midi":33,"time":62.453858052083326,"velocity":0.3937007874015748},{"duration":0.24590150000000222,"midi":34,"time":62.69975955208333,"velocity":0.3937007874015748},{"duration":0.12295075000000821,"midi":35,"time":62.94566105208333,"velocity":0.3937007874015748},{"duration":0.122950749999994,"midi":35,"time":63.19156255208334,"velocity":0.3937007874015748},{"duration":0.24590150000000222,"midi":42,"time":63.437464052083335,"velocity":0.3937007874015748},{"duration":0.24590150000000222,"midi":40,"time":63.69361144791666,"velocity":0.3937007874015748},{"duration":0.12295075000000111,"midi":33,"time":64.17516855208333,"velocity":0.3937007874015748},{"duration":0.12295075000000111,"midi":35,"time":64.42107005208334,"velocity":0.3937007874015748},{"duration":0.12295075000000111,"midi":36,"time":64.66184860416666,"velocity":0.3937007874015748},{"duration":0.12295075000000111,"midi":37,"time":64.90775010416667,"velocity":0.3937007874015748},{"duration":0.12295075000000111,"midi":32,"time":65.15365160416665,"velocity":0.3937007874015748},{"duration":0.3688522500000033,"midi":28,"time":65.39955310416666,"velocity":0.3937007874015748},{"duration":0.3688522500000033,"midi":30,"time":65.89135610416666,"velocity":0.3937007874015748},{"duration":0.24590150000000222,"midi":33,"time":66.38315910416667,"velocity":0.3937007874015748},{"duration":0.1229507499999869,"midi":30,"time":66.62906060416667,"velocity":0.3937007874015748},{"duration":0.12295075000000111,"midi":33,"time":66.88008505208333,"velocity":0.3937007874015748},{"duration":0.12295075000000111,"midi":33,"time":67.12086360416666,"velocity":0.3937007874015748},{"duration":0.061475375000000554,"midi":43,"time":67.3462733125,"velocity":0.3937007874015748},{"duration":0.49180300000000443,"midi":45,"time":67.38213394791666,"velocity":0.3937007874015748},{"duration":0.12295075000000111,"midi":33,"time":67.86369105208334,"velocity":0.3937007874015748},{"duration":0.12295075000000111,"midi":33,"time":68.10959255208334,"velocity":0.3937007874015748},{"duration":0.061475375000000554,"midi":55,"time":68.3298793125,"velocity":0.3937007874015748},{"duration":0.49180300000000443,"midi":57,"time":68.35549405208333,"velocity":0.3937007874015748},{"duration":0.12295075000000111,"midi":33,"time":68.84729705208333,"velocity":0.3937007874015748},{"duration":0.12295075000000111,"midi":33,"time":69.09319855208334,"velocity":0.3937007874015748},{"duration":0.061475375000000554,"midi":55,"time":69.31348531249999,"velocity":0.3937007874015748},{"duration":0.49180300000000443,"midi":57,"time":69.33910005208334,"velocity":0.3937007874015748},{"duration":0.12295075000000111,"midi":33,"time":69.836026,"velocity":0.3937007874015748},{"duration":0.12295075000000111,"midi":33,"time":70.07680455208333,"velocity":0.3937007874015748},{"duration":0.24590150000000222,"midi":33,"time":70.32270605208333,"velocity":0.3937007874015748},{"duration":0.12295075000000111,"midi":38,"time":70.819632,"velocity":0.3937007874015748},{"duration":0.12295075000000111,"midi":38,"time":71.06041055208334,"velocity":0.3937007874015748},{"duration":0.12295075000000111,"midi":37,"time":71.55221355208333,"velocity":0.3937007874015748},{"duration":0.12295075000000111,"midi":35,"time":72.04401655208333,"velocity":0.3937007874015748},{"duration":0.12295075000000111,"midi":35,"time":72.53069660416666,"velocity":0.3937007874015748},{"duration":0.12295075000000111,"midi":36,"time":72.65364735416667,"velocity":0.3937007874015748},{"duration":0.12295075000000111,"midi":37,"time":72.78172105208334,"velocity":0.3937007874015748},{"duration":0.12295075000000111,"midi":32,"time":73.02249960416665,"velocity":0.3937007874015748},{"duration":0.3688522500000033,"midi":28,"time":73.26840110416666,"velocity":0.3937007874015748},{"duration":0.24590150000000222,"midi":30,"time":73.76532705208334,"velocity":0.3937007874015748},{"duration":0.3688522499999891,"midi":33,"time":74.25713005208334,"velocity":0.3937007874015748},{"duration":0.12295075000000111,"midi":38,"time":74.74893305208333,"velocity":0.3937007874015748},{"duration":0.12295075000000111,"midi":38,"time":74.99483455208333,"velocity":0.3937007874015748},{"duration":0.12295075000000111,"midi":37,"time":75.48663755208334,"velocity":0.3937007874015748},{"duration":0.12295075000000111,"midi":35,"time":75.97844055208334,"velocity":0.3937007874015748},{"duration":0.12295075000000111,"midi":35,"time":76.47024355208333,"velocity":0.3937007874015748},{"duration":0.12295075000000111,"midi":36,"time":76.58807135416666,"velocity":0.3937007874015748},{"duration":0.12295075000000111,"midi":37,"time":76.71614505208333,"velocity":0.3937007874015748},{"duration":0.12295075000000111,"midi":32,"time":76.96204655208334,"velocity":0.3937007874015748},{"duration":0.3688522500000033,"midi":28,"time":77.20794805208334,"velocity":0.3937007874015748},{"duration":0.3688522500000033,"midi":30,"time":77.69462810416665,"velocity":0.3937007874015748},{"duration":0.3688522500000033,"midi":33,"time":78.18643110416666,"velocity":0.3937007874015748},{"duration":0.12295075000000111,"midi":38,"time":78.69360294791666,"velocity":0.3937007874015748},{"duration":0.12295075000000111,"midi":38,"time":78.92925855208334,"velocity":0.3937007874015748},{"duration":0.24590150000000222,"midi":37,"time":79.42106155208333,"velocity":0.3937007874015748},{"duration":0.24590150000000222,"midi":35,"time":79.91286455208333,"velocity":0.3937007874015748},{"duration":0.12295075000000111,"midi":35,"time":80.40466755208334,"velocity":0.3937007874015748},{"duration":0.12295075000000111,"midi":36,"time":80.52761830208334,"velocity":0.3937007874015748},{"duration":0.12295075000000111,"midi":37,"time":80.65056905208334,"velocity":0.3937007874015748},{"duration":0.12295075000000111,"midi":40,"time":80.89134760416665,"velocity":0.3937007874015748},{"duration":0.12295075000000111,"midi":41,"time":81.13724910416666,"velocity":0.3937007874015748},{"duration":0.3688522500000033,"midi":42,"time":81.38315060416666,"velocity":0.3937007874015748},{"duration":0.12295075000000111,"midi":42,"time":81.87495360416666,"velocity":0.3937007874015748},{"duration":0.24590150000000222,"midi":37,"time":82.12085510416667,"velocity":0.3937007874015748},{"duration":0.1229507499999869,"midi":35,"time":82.36675660416667,"velocity":0.3937007874015748},{"duration":0.12295075000000111,"midi":33,"time":82.61778105208333,"velocity":0.3937007874015748},{"duration":0.24590150000000222,"midi":33,"time":82.85855960416666,"velocity":0.3937007874015748},{"duration":0.24590150000000222,"midi":55,"time":83.10446110416666,"velocity":0.3937007874015748},{"duration":0.12295075000000111,"midi":57,"time":83.35548555208334,"velocity":0.3937007874015748},{"duration":0.12295075000000111,"midi":33,"time":83.60651,"velocity":0.3937007874015748},{"duration":0.12295075000000111,"midi":33,"time":83.8524115,"velocity":0.3937007874015748},{"duration":0.24590150000000222,"midi":55,"time":84.09319005208333,"velocity":0.3937007874015748},{"duration":0.24590150000000222,"midi":57,"time":84.33909155208333,"velocity":0.3937007874015748},{"duration":0.12295075000000111,"midi":33,"time":84.58499305208333,"velocity":0.3937007874015748},{"duration":0.12295075000000111,"midi":33,"time":84.83089455208334,"velocity":0.3937007874015748},{"duration":0.24590150000000222,"midi":55,"time":85.07679605208334,"velocity":0.3937007874015748},{"duration":0.24590150000000222,"midi":57,"time":85.32269755208334,"velocity":0.3937007874015748},{"duration":0.245901499999988,"midi":33,"time":85.56859905208334,"velocity":0.3937007874015748},{"duration":0.12295075000000111,"midi":38,"time":86.557328,"velocity":0.3937007874015748},{"duration":0.1229507499999869,"midi":38,"time":86.78273770833334,"velocity":0.3937007874015748},{"duration":0.12295075000000111,"midi":38,"time":87.02863920833333,"velocity":0.3937007874015748},{"duration":0.24590150000000222,"midi":37,"time":87.28094439322916,"velocity":0.3937007874015748},{"duration":0.245901499999988,"midi":35,"time":87.77787034114584,"velocity":0.3937007874015748},{"duration":0.12295075000000111,"midi":35,"time":88.25430449739584,"velocity":0.3937007874015748},{"duration":0.12295075000000111,"midi":36,"time":88.37725524739584,"velocity":0.3937007874015748},{"duration":0.1229507499999869,"midi":37,"time":88.51173263020834,"velocity":0.3937007874015748},{"duration":0.12295075000000111,"midi":32,"time":88.74610749739584,"velocity":0.3937007874015748},{"duration":0.245901499999988,"midi":28,"time":88.99200899739584,"velocity":0.3937007874015748},{"duration":0.3688522499999891,"midi":30,"time":89.50942673697917,"velocity":0.3937007874015748},{"duration":0.24590150000000222,"midi":33,"time":89.98586089322916,"velocity":0.3937007874015748},{"duration":0.12295075000000111,"midi":37,"time":90.2420082890625,"velocity":0.3937007874015748},{"duration":0.12295075000000111,"midi":38,"time":90.49303273697916,"velocity":0.3937007874015748},{"duration":0.1229507499999869,"midi":38,"time":90.7184424453125,"velocity":0.3937007874015748},{"duration":0.12295075000000111,"midi":38,"time":90.95922099739583,"velocity":0.3937007874015748},{"duration":0.12295075000000111,"midi":37,"time":91.22049134114583,"velocity":0.3937007874015748},{"duration":0.24590150000000222,"midi":35,"time":91.70717139322916,"velocity":0.3937007874015748},{"duration":0.12295075000000111,"midi":35,"time":92.19257070833334,"velocity":0.3937007874015748},{"duration":0.12295075000000111,"midi":36,"time":92.3052755625,"velocity":0.3937007874015748},{"duration":0.12295075000000111,"midi":37,"time":92.43334926041666,"velocity":0.3937007874015748},{"duration":0.12295075000000111,"midi":32,"time":92.6741278125,"velocity":0.3937007874015748},{"duration":0.245901499999988,"midi":28,"time":92.93027520833334,"velocity":0.3937007874015748},{"duration":0.24590150000000222,"midi":30,"time":93.43360484114584,"velocity":0.3937007874015748},{"duration":0.12295075000000111,"midi":33,"time":93.92540784114584,"velocity":0.3937007874015748},{"duration":0.12295075000000111,"midi":37,"time":94.1764322890625,"velocity":0.3937007874015748},{"duration":0.1229507499999869,"midi":38,"time":94.42745673697917,"velocity":0.3937007874015748},{"duration":0.12295075000000111,"midi":38,"time":94.67335823697915,"velocity":0.3937007874015748},{"duration":0.12295075000000111,"midi":38,"time":94.8987679453125,"velocity":0.3937007874015748},{"duration":0.12295075000000111,"midi":37,"time":95.15619607812499,"velocity":0.3937007874015748},{"duration":0.24590150000000222,"midi":35,"time":95.63647244531249,"velocity":0.3937007874015748},{"duration":0.12295075000000111,"midi":35,"time":96.13467913020834,"velocity":0.3937007874015748},{"duration":0.12295075000000111,"midi":36,"time":96.2512261953125,"velocity":0.3937007874015748},{"duration":0.12295075000000111,"midi":37,"time":96.385703578125,"velocity":0.3937007874015748},{"duration":0.12295075000000111,"midi":40,"time":96.63160507812499,"velocity":0.3937007874015748},{"duration":0.12295075000000111,"midi":41,"time":96.877506578125,"velocity":0.3937007874015748},{"duration":0.24590150000000222,"midi":42,"time":97.36418663020834,"velocity":0.3937007874015748},{"duration":0.24590150000000222,"midi":37,"time":97.861112578125,"velocity":0.3937007874015748},{"duration":0.245901499999988,"midi":35,"time":98.107014078125,"velocity":0.3937007874015748},{"duration":0.12295075000000111,"midi":33,"time":98.35291557812499,"velocity":0.3937007874015748},{"duration":0.24590150000000222,"midi":33,"time":98.598817078125,"velocity":0.3937007874015748},{"duration":0.24590150000000222,"midi":55,"time":98.84984152604166,"velocity":0.3937007874015748},{"duration":0.24590150000000222,"midi":57,"time":99.090620078125,"velocity":0.3937007874015748},{"duration":0.12295075000000111,"midi":33,"time":99.351890421875,"velocity":0.3937007874015748},{"duration":0.245901499999988,"midi":33,"time":99.582423078125,"velocity":0.3937007874015748},{"duration":0.24590150000000222,"midi":55,"time":99.82832457812499,"velocity":0.3937007874015748},{"duration":0.24590150000000222,"midi":57,"time":100.074226078125,"velocity":0.3937007874015748},{"duration":0.12295075000000111,"midi":33,"time":100.320127578125,"velocity":0.3937007874015748},{"duration":0.24590150000000222,"midi":33,"time":100.5545024453125,"velocity":0.3937007874015748},{"duration":0.24590150000000222,"midi":55,"time":100.8004039453125,"velocity":0.3937007874015748},{"duration":0.245901499999988,"midi":57,"time":101.05270913020834,"velocity":0.3937007874015748},{"duration":0.12295075000000111,"midi":33,"time":101.30885652604167,"velocity":0.3937007874015748},{"duration":0.3688522500000033,"midi":42,"time":101.80578247395833,"velocity":0.3937007874015748},{"duration":0.12295075000000111,"midi":38,"time":102.30783136979166,"velocity":0.3937007874015748},{"duration":0.12295075000000111,"midi":38,"time":102.54348697395834,"velocity":0.3937007874015748},{"duration":0.12295075000000111,"midi":38,"time":102.78426552604166,"velocity":0.3937007874015748},{"duration":0.12295075000000111,"midi":37,"time":103.02504407812499,"velocity":0.3937007874015748},{"duration":0.24590150000000222,"midi":35,"time":103.516847078125,"velocity":0.3937007874015748},{"duration":0.12295075000000111,"midi":35,"time":104.00352713020834,"velocity":0.3937007874015748},{"duration":0.12295075000000111,"midi":36,"time":104.1200741953125,"velocity":0.3937007874015748},{"duration":0.12295075000000111,"midi":37,"time":104.254551578125,"velocity":0.3937007874015748},{"duration":0.12295075000000111,"midi":32,"time":104.4889264453125,"velocity":0.3937007874015748},{"duration":0.3688522499999891,"midi":28,"time":104.72970499739584,"velocity":0.3937007874015748},{"duration":0.3688522500000033,"midi":30,"time":105.23687684114583,"velocity":0.3937007874015748},{"duration":0.12295075000000111,"midi":33,"time":105.72867984114583,"velocity":0.3937007874015748},{"duration":0.12295075000000111,"midi":37,"time":105.97458134114584,"velocity":0.3937007874015748},{"duration":0.12295075000000111,"midi":38,"time":106.22048284114584,"velocity":0.3937007874015748},{"duration":0.12295075000000111,"midi":38,"time":106.45101549739583,"velocity":0.3937007874015748},{"duration":0.12295075000000111,"midi":38,"time":106.70203994531249,"velocity":0.3937007874015748},{"duration":0.12295075000000111,"midi":37,"time":106.959468078125,"velocity":0.3937007874015748},{"duration":0.245901499999988,"midi":35,"time":107.451271078125,"velocity":0.3937007874015748},{"duration":0.12295075000000111,"midi":35,"time":107.943074078125,"velocity":0.3937007874015748},{"duration":0.12295075000000111,"midi":36,"time":108.06090188020833,"velocity":0.3937007874015748},{"duration":0.12295075000000111,"midi":37,"time":108.188975578125,"velocity":0.3937007874015748},{"duration":0.12295075000000111,"midi":32,"time":108.434877078125,"velocity":0.3937007874015748},{"duration":0.3688522500000033,"midi":28,"time":108.6692519453125,"velocity":0.3937007874015748},{"duration":0.4918029999999902,"midi":30,"time":109.172581578125,"velocity":0.3937007874015748},{"duration":0.12295075000000111,"midi":33,"time":109.664384578125,"velocity":0.3937007874015748},{"duration":0.12295075000000111,"midi":37,"time":109.910286078125,"velocity":0.3937007874015748},{"duration":0.12295075000000111,"midi":38,"time":110.15106463020834,"velocity":0.3937007874015748},{"duration":0.12295075000000111,"midi":38,"time":110.402089078125,"velocity":0.3937007874015748},{"duration":0.12295075000000111,"midi":38,"time":110.6364639453125,"velocity":0.3937007874015748},{"duration":0.12295075000000111,"midi":37,"time":110.89389207812499,"velocity":0.3937007874015748},{"duration":0.12295075000000111,"midi":35,"time":111.385695078125,"velocity":0.3937007874015748},{"duration":0.12295075000000111,"midi":35,"time":111.877498078125,"velocity":0.3937007874015748},{"duration":0.12295075000000111,"midi":36,"time":111.99532588020834,"velocity":0.3937007874015748},{"duration":0.12295075000000111,"midi":37,"time":112.123399578125,"velocity":0.3937007874015748},{"duration":0.12295075000000111,"midi":40,"time":112.3577744453125,"velocity":0.3937007874015748},{"duration":0.12295075000000111,"midi":41,"time":112.615202578125,"velocity":0.3937007874015748},{"duration":0.3688522500000033,"midi":42,"time":113.107005578125,"velocity":0.3937007874015748},{"duration":0.24590150000000222,"midi":37,"time":113.5872819453125,"velocity":0.3937007874015748},{"duration":0.12295075000000111,"midi":35,"time":113.85367523697916,"velocity":0.3937007874015748},{"duration":0.12295075000000111,"midi":33,"time":114.10469968489583,"velocity":0.3937007874015748},{"duration":0.24590150000000222,"midi":33,"time":114.33523234114584,"velocity":0.3937007874015748},{"duration":0.245901499999988,"midi":55,"time":114.58113384114584,"velocity":0.3937007874015748},{"duration":0.24590150000000222,"midi":57,"time":114.82703534114583,"velocity":0.3937007874015748},{"duration":0.12295075000000111,"midi":33,"time":115.0780597890625,"velocity":0.3937007874015748},{"duration":0.24590150000000222,"midi":33,"time":115.3239612890625,"velocity":0.3937007874015748},{"duration":0.24590150000000222,"midi":55,"time":115.56473984114584,"velocity":0.3937007874015748},{"duration":0.24590150000000222,"midi":57,"time":115.8157642890625,"velocity":0.3937007874015748},{"duration":0.12295075000000111,"midi":33,"time":116.0616657890625,"velocity":0.3937007874015748},{"duration":0.245901499999988,"midi":33,"time":116.3075672890625,"velocity":0.3937007874015748},{"duration":0.24590150000000222,"midi":55,"time":116.55346878906249,"velocity":0.3937007874015748},{"duration":0.24590150000000222,"midi":57,"time":116.7993702890625,"velocity":0.3937007874015748},{"duration":0.24590150000000222,"midi":33,"time":117.0452717890625,"velocity":0.3937007874015748},{"duration":0.3688522500000033,"midi":34,"time":117.5370747890625,"velocity":0.3937007874015748},{"duration":0.24590150000000222,"midi":35,"time":118.02887778906249,"velocity":0.3937007874015748},{"duration":0.24590150000000222,"midi":42,"time":118.5206807890625,"velocity":0.3937007874015748},{"duration":0.24590150000000222,"midi":40,"time":118.7819511328125,"velocity":0.3937007874015748},{"duration":0.245901499999988,"midi":35,"time":119.5042867890625,"velocity":0.3937007874015748},{"duration":0.12295075000000111,"midi":36,"time":119.75018828906249,"velocity":0.3937007874015748},{"duration":0.12295075000000111,"midi":37,"time":119.9960897890625,"velocity":0.3937007874015748},{"duration":0.24590150000000222,"midi":32,"time":120.23686834114584,"velocity":0.3937007874015748},{"duration":0.3688522500000033,"midi":28,"time":120.4878927890625,"velocity":0.3937007874015748},{"duration":0.24590150000000222,"midi":30,"time":120.98994168489584,"velocity":0.3937007874015748},{"duration":0.12295075000000111,"midi":33,"time":121.4714987890625,"velocity":0.3937007874015748},{"duration":0.12295075000000111,"midi":34,"time":121.7174002890625,"velocity":0.3937007874015748},{"duration":0.24590150000000222,"midi":35,"time":121.9633017890625,"velocity":0.3937007874015748},{"duration":0.12295075000000111,"midi":35,"time":122.34239993489584,"velocity":0.3937007874015748},{"duration":0.245901499999988,"midi":42,"time":122.4551047890625,"velocity":0.3937007874015748},{"duration":0.245901499999988,"midi":40,"time":122.71125218489584,"velocity":0.3937007874015748},{"duration":0.12295075000000111,"midi":35,"time":123.4387107890625,"velocity":0.3937007874015748},{"duration":0.12295075000000111,"midi":36,"time":123.6846122890625,"velocity":0.3937007874015748},{"duration":0.12295075000000111,"midi":37,"time":123.9305137890625,"velocity":0.3937007874015748},{"duration":0.12295075000000111,"midi":32,"time":124.17129234114583,"velocity":0.3937007874015748},{"duration":0.3688522500000033,"midi":28,"time":124.42231678906249,"velocity":0.3937007874015748},{"duration":0.3688522500000033,"midi":30,"time":124.90899684114584,"velocity":0.3937007874015748},{"duration":0.12295075000000111,"midi":33,"time":125.4059227890625,"velocity":0.3937007874015748},{"duration":0.245901499999988,"midi":34,"time":125.6518242890625,"velocity":0.3937007874015748},{"duration":0.12295075000000111,"midi":35,"time":125.89772578906249,"velocity":0.3937007874015748},{"duration":0.12295075000000111,"midi":35,"time":126.1436272890625,"velocity":0.3937007874015748},{"duration":0.24590150000000222,"midi":42,"time":126.3895287890625,"velocity":0.3937007874015748},{"duration":0.24590150000000222,"midi":40,"time":126.64567618489582,"velocity":0.3937007874015748},{"duration":0.12295075000000111,"midi":33,"time":127.1272332890625,"velocity":0.3937007874015748},{"duration":0.1229507499999869,"midi":35,"time":127.3731347890625,"velocity":0.3937007874015748},{"duration":0.12295075000000111,"midi":36,"time":127.61391334114582,"velocity":0.3937007874015748},{"duration":0.12295075000000111,"midi":37,"time":127.85981484114582,"velocity":0.3937007874015748},{"duration":0.12295075000000111,"midi":32,"time":128.1057163411458,"velocity":0.3937007874015748},{"duration":0.3688522500000033,"midi":28,"time":128.3516178411458,"velocity":0.3937007874015748},{"duration":0.3688522500000033,"midi":30,"time":128.84342084114581,"velocity":0.3937007874015748},{"duration":0.24590150000000222,"midi":33,"time":129.33522384114582,"velocity":0.3937007874015748},{"duration":0.12295075000000111,"midi":30,"time":129.58112534114582,"velocity":0.3937007874015748},{"duration":0.12295075000000111,"midi":33,"time":129.8321497890625,"velocity":0.3937007874015748},{"duration":0.12295075000000111,"midi":33,"time":130.07292834114583,"velocity":0.3937007874015748},{"duration":0.06147537499998634,"midi":43,"time":130.29833804947918,"velocity":0.3937007874015748},{"duration":0.49180300000000443,"midi":45,"time":130.33419868489582,"velocity":0.3937007874015748},{"duration":0.12295075000000111,"midi":33,"time":130.8157557890625,"velocity":0.3937007874015748},{"duration":0.12295075000000111,"midi":33,"time":131.0616572890625,"velocity":0.3937007874015748},{"duration":0.061475375000014765,"midi":55,"time":131.28194404947916,"velocity":0.3937007874015748},{"duration":0.491802999999976,"midi":57,"time":131.3075587890625,"velocity":0.3937007874015748},{"duration":0.12295075000000111,"midi":33,"time":131.7993617890625,"velocity":0.3937007874015748},{"duration":0.12295075000000111,"midi":33,"time":132.0452632890625,"velocity":0.3937007874015748},{"duration":0.06147537499998634,"midi":55,"time":132.26555004947917,"velocity":0.3937007874015748},{"duration":0.49180300000000443,"midi":57,"time":132.2911647890625,"velocity":0.3937007874015748},{"duration":0.12295075000000111,"midi":33,"time":132.78809073697917,"velocity":0.3937007874015748},{"duration":0.12295075000000111,"midi":33,"time":133.0288692890625,"velocity":0.3937007874015748},{"duration":0.24590150000000222,"midi":33,"time":133.2747707890625,"velocity":0.3937007874015748},{"duration":0.24590150000000222,"midi":35,"time":133.7665737890625,"velocity":0.3937007874015748},{"duration":0.2459014999999738,"midi":42,"time":134.2583767890625,"velocity":0.3937007874015748},{"duration":0.24590150000000222,"midi":40,"time":134.5196471328125,"velocity":0.3937007874015748},{"duration":0.24590150000000222,"midi":35,"time":135.2419827890625,"velocity":0.3937007874015748},{"duration":0.12295075000000111,"midi":36,"time":135.4878842890625,"velocity":0.3937007874015748},{"duration":0.12295075000000111,"midi":37,"time":135.7337857890625,"velocity":0.3937007874015748},{"duration":0.24590150000000222,"midi":32,"time":135.97456434114582,"velocity":0.3937007874015748},{"duration":0.3688522500000033,"midi":28,"time":136.2255887890625,"velocity":0.3937007874015748},{"duration":0.24590150000000222,"midi":30,"time":136.72763768489583,"velocity":0.3937007874015748},{"duration":0.12295075000000111,"midi":33,"time":137.2091947890625,"velocity":0.3937007874015748},{"duration":0.12295075000000111,"midi":34,"time":137.4550962890625,"velocity":0.3937007874015748},{"duration":0.24590150000000222,"midi":35,"time":137.70099778906248,"velocity":0.3937007874015748},{"duration":0.12295075000000111,"midi":35,"time":138.0800959348958,"velocity":0.3937007874015748},{"duration":0.24590150000000222,"midi":42,"time":138.1928007890625,"velocity":0.3937007874015748},{"duration":0.24590150000000222,"midi":40,"time":138.4489481848958,"velocity":0.3937007874015748},{"duration":0.12295075000000111,"midi":35,"time":139.1764067890625,"velocity":0.3937007874015748},{"duration":0.12295075000000111,"midi":36,"time":139.4223082890625,"velocity":0.3937007874015748},{"duration":0.12295075000000111,"midi":37,"time":139.6682097890625,"velocity":0.3937007874015748},{"duration":0.12295075000000111,"midi":32,"time":139.90898834114583,"velocity":0.3937007874015748},{"duration":0.3688522500000033,"midi":28,"time":140.1600127890625,"velocity":0.3937007874015748},{"duration":0.3688522500000033,"midi":30,"time":140.6466928411458,"velocity":0.3937007874015748},{"duration":0.12295075000000111,"midi":33,"time":141.1436187890625,"velocity":0.3937007874015748},{"duration":0.24590150000000222,"midi":34,"time":141.3895202890625,"velocity":0.3937007874015748},{"duration":0.12295075000000111,"midi":35,"time":141.6354217890625,"velocity":0.3937007874015748},{"duration":0.12295075000000111,"midi":35,"time":141.8813232890625,"velocity":0.3937007874015748},{"duration":0.24590150000000222,"midi":42,"time":142.1272247890625,"velocity":0.3937007874015748},{"duration":0.24590150000000222,"midi":40,"time":142.38337218489582,"velocity":0.3937007874015748},{"duration":0.12295075000000111,"midi":33,"time":142.8649292890625,"velocity":0.3937007874015748},{"duration":0.12295075000000111,"midi":35,"time":143.1108307890625,"velocity":0.3937007874015748},{"duration":0.12295075000000111,"midi":36,"time":143.35160934114583,"velocity":0.3937007874015748},{"duration":0.12295075000000111,"midi":37,"time":143.59751084114583,"velocity":0.3937007874015748},{"duration":0.12295075000000111,"midi":32,"time":143.8434123411458,"velocity":0.3937007874015748},{"duration":0.3688522500000033,"midi":28,"time":144.0893138411458,"velocity":0.3937007874015748},{"duration":0.3688522500000033,"midi":30,"time":144.5811168411458,"velocity":0.3937007874015748},{"duration":0.24590150000000222,"midi":33,"time":145.07291984114582,"velocity":0.3937007874015748},{"duration":0.12295075000000111,"midi":30,"time":145.31882134114582,"velocity":0.3937007874015748},{"duration":0.12295075000000111,"midi":33,"time":145.5698457890625,"velocity":0.3937007874015748},{"duration":0.12295075000000111,"midi":33,"time":145.81062434114583,"velocity":0.3937007874015748},{"duration":0.06147537499998634,"midi":43,"time":146.03603404947918,"velocity":0.3937007874015748},{"duration":0.49180300000000443,"midi":45,"time":146.07189468489582,"velocity":0.3937007874015748},{"duration":0.12295075000000111,"midi":33,"time":146.5534517890625,"velocity":0.3937007874015748},{"duration":0.12295075000000111,"midi":33,"time":146.7993532890625,"velocity":0.3937007874015748},{"duration":0.061475375000014765,"midi":55,"time":147.01964004947916,"velocity":0.3937007874015748},{"duration":0.491802999999976,"midi":57,"time":147.0452547890625,"velocity":0.3937007874015748},{"duration":0.12295075000000111,"midi":33,"time":147.5370577890625,"velocity":0.3937007874015748},{"duration":0.12295075000000111,"midi":33,"time":147.7829592890625,"velocity":0.3937007874015748},{"duration":0.06147537499998634,"midi":55,"time":148.00324604947917,"velocity":0.3937007874015748},{"duration":0.49180300000000443,"midi":57,"time":148.0288607890625,"velocity":0.3937007874015748},{"duration":0.12295075000000111,"midi":33,"time":148.52578673697917,"velocity":0.3937007874015748},{"duration":0.12295075000000111,"midi":33,"time":148.7665652890625,"velocity":0.3937007874015748},{"duration":0.24590150000000222,"midi":33,"time":149.0124667890625,"velocity":0.3937007874015748},{"duration":0.12295075000000111,"midi":38,"time":149.5196386328125,"velocity":0.3937007874015748},{"duration":0.12295075000000111,"midi":38,"time":149.75529423697918,"velocity":0.3937007874015748},{"duration":0.12295075000000111,"midi":38,"time":149.9960727890625,"velocity":0.3937007874015748},{"duration":0.12295075000000111,"midi":37,"time":150.2368513411458,"velocity":0.3937007874015748},{"duration":0.24590150000000222,"midi":35,"time":150.7286543411458,"velocity":0.3937007874015748},{"duration":0.12295075000000111,"midi":35,"time":151.21533439322917,"velocity":0.3937007874015748},{"duration":0.12295075000000111,"midi":36,"time":151.33188145833333,"velocity":0.3937007874015748},{"duration":0.12295075000000111,"midi":37,"time":151.46635884114582,"velocity":0.3937007874015748},{"duration":0.12295075000000111,"midi":32,"time":151.70073370833333,"velocity":0.3937007874015748},{"duration":0.3688522499999749,"midi":28,"time":151.9415122604167,"velocity":0.3937007874015748},{"duration":0.3688522500000033,"midi":30,"time":152.44868410416666,"velocity":0.3937007874015748},{"duration":0.12295075000000111,"midi":33,"time":152.94048710416666,"velocity":0.3937007874015748},{"duration":0.12295075000000111,"midi":37,"time":153.18638860416667,"velocity":0.3937007874015748},{"duration":0.12295075000000111,"midi":38,"time":153.43229010416667,"velocity":0.3937007874015748},{"duration":0.12295075000000111,"midi":38,"time":153.66282276041667,"velocity":0.3937007874015748},{"duration":0.12295075000000111,"midi":38,"time":153.91384720833332,"velocity":0.3937007874015748},{"duration":0.12295075000000111,"midi":37,"time":154.17127534114582,"velocity":0.3937007874015748},{"duration":0.24590150000000222,"midi":35,"time":154.66307834114582,"velocity":0.3937007874015748},{"duration":0.12295075000000111,"midi":35,"time":155.15488134114582,"velocity":0.3937007874015748},{"duration":0.12295075000000111,"midi":36,"time":155.27270914322918,"velocity":0.3937007874015748},{"duration":0.12295075000000111,"midi":37,"time":155.40078284114583,"velocity":0.3937007874015748},{"duration":0.12295075000000111,"midi":32,"time":155.64668434114583,"velocity":0.3937007874015748},{"duration":0.3688522500000033,"midi":28,"time":155.8810592083333,"velocity":0.3937007874015748},{"duration":0.49180300000000443,"midi":30,"time":156.3843888411458,"velocity":0.3937007874015748},{"duration":0.12295075000000111,"midi":33,"time":156.8761918411458,"velocity":0.3937007874015748},{"duration":0.12295075000000111,"midi":37,"time":157.1220933411458,"velocity":0.3937007874015748},{"duration":0.12295075000000111,"midi":38,"time":157.36287189322917,"velocity":0.3937007874015748},{"duration":0.12295075000000111,"midi":38,"time":157.61389634114582,"velocity":0.3937007874015748},{"duration":0.12295075000000111,"midi":38,"time":157.84827120833333,"velocity":0.3937007874015748},{"duration":0.12295075000000111,"midi":37,"time":158.10569934114582,"velocity":0.3937007874015748},{"duration":0.12295075000000111,"midi":35,"time":158.59750234114583,"velocity":0.3937007874015748},{"duration":0.12295075000000111,"midi":35,"time":159.08930534114583,"velocity":0.3937007874015748},{"duration":0.12295075000000111,"midi":36,"time":159.20713314322919,"velocity":0.3937007874015748},{"duration":0.12295075000000111,"midi":37,"time":159.33520684114583,"velocity":0.3937007874015748},{"duration":0.12295075000000111,"midi":40,"time":159.56958170833332,"velocity":0.3937007874015748},{"duration":0.12295075000000111,"midi":41,"time":159.8270098411458,"velocity":0.3937007874015748},{"duration":0.3688522500000033,"midi":42,"time":160.3188128411458,"velocity":0.3937007874015748},{"duration":0.24590150000000222,"midi":37,"time":160.79908920833333,"velocity":0.3937007874015748},{"duration":0.12295075000000111,"midi":35,"time":161.0654825,"velocity":0.3937007874015748},{"duration":0.12295075000000111,"midi":33,"time":161.31650694791668,"velocity":0.3937007874015748},{"duration":0.24590150000000222,"midi":33,"time":161.54703960416668,"velocity":0.3937007874015748},{"duration":0.2459014999999738,"midi":55,"time":161.7929411041667,"velocity":0.3937007874015748},{"duration":0.24590150000000222,"midi":57,"time":162.03884260416666,"velocity":0.3937007874015748},{"duration":0.12295075000000111,"midi":33,"time":162.2898670520833,"velocity":0.3937007874015748},{"duration":0.24590150000000222,"midi":33,"time":162.5357685520833,"velocity":0.3937007874015748},{"duration":0.24590150000000222,"midi":55,"time":162.77654710416667,"velocity":0.3937007874015748},{"duration":0.24590150000000222,"midi":57,"time":163.02757155208332,"velocity":0.3937007874015748},{"duration":0.12295075000000111,"midi":33,"time":163.27347305208332,"velocity":0.3937007874015748},{"duration":0.24590150000000222,"midi":33,"time":163.51937455208332,"velocity":0.3937007874015748},{"duration":0.24590150000000222,"midi":55,"time":163.76527605208332,"velocity":0.3937007874015748},{"duration":0.24590150000000222,"midi":57,"time":164.01117755208332,"velocity":0.3937007874015748},{"duration":0.24590150000000222,"midi":33,"time":164.25707905208333,"velocity":0.3937007874015748},{"duration":0.3688522500000033,"midi":34,"time":164.74888205208333,"velocity":0.3937007874015748},{"duration":0.24590150000000222,"midi":35,"time":165.2406850520833,"velocity":0.3937007874015748},{"duration":0.24590150000000222,"midi":42,"time":165.7324880520833,"velocity":0.3937007874015748},{"duration":0.24590150000000222,"midi":40,"time":165.9937583958333,"velocity":0.3937007874015748},{"duration":0.24590150000000222,"midi":35,"time":166.71609405208332,"velocity":0.3937007874015748},{"duration":0.12295075000000111,"midi":36,"time":166.96199555208332,"velocity":0.3937007874015748},{"duration":0.12295075000000111,"midi":37,"time":167.20789705208333,"velocity":0.3937007874015748},{"duration":0.24590150000000222,"midi":32,"time":167.44867560416668,"velocity":0.3937007874015748},{"duration":0.3688522500000033,"midi":28,"time":167.69970005208333,"velocity":0.3937007874015748},{"duration":0.24590150000000222,"midi":30,"time":168.20174894791668,"velocity":0.3937007874015748},{"duration":0.12295075000000111,"midi":33,"time":168.6833060520833,"velocity":0.3937007874015748},{"duration":0.12295075000000111,"midi":34,"time":168.9292075520833,"velocity":0.3937007874015748},{"duration":0.24590150000000222,"midi":35,"time":169.17510905208331,"velocity":0.3937007874015748},{"duration":0.12295075000000111,"midi":35,"time":169.55420719791667,"velocity":0.3937007874015748},{"duration":0.24590150000000222,"midi":42,"time":169.66691205208332,"velocity":0.3937007874015748},{"duration":0.24590150000000222,"midi":40,"time":169.92305944791667,"velocity":0.3937007874015748},{"duration":0.12295075000000111,"midi":35,"time":170.65051805208333,"velocity":0.3937007874015748},{"duration":0.12295075000000111,"midi":36,"time":170.89641955208333,"velocity":0.3937007874015748},{"duration":0.12295075000000111,"midi":37,"time":171.14232105208333,"velocity":0.3937007874015748},{"duration":0.12295075000000111,"midi":32,"time":171.38309960416666,"velocity":0.3937007874015748},{"duration":0.3688522500000033,"midi":28,"time":171.6341240520833,"velocity":0.3937007874015748},{"duration":0.3688522500000033,"midi":30,"time":172.12080410416667,"velocity":0.3937007874015748},{"duration":0.12295075000000111,"midi":33,"time":172.61773005208332,"velocity":0.3937007874015748},{"duration":0.24590150000000222,"midi":34,"time":172.86363155208332,"velocity":0.3937007874015748},{"duration":0.12295075000000111,"midi":35,"time":173.10953305208332,"velocity":0.3937007874015748},{"duration":0.12295075000000111,"midi":35,"time":173.35543455208332,"velocity":0.3937007874015748},{"duration":0.24590150000000222,"midi":42,"time":173.60133605208333,"velocity":0.3937007874015748},{"duration":0.24590150000000222,"midi":40,"time":173.85748344791668,"velocity":0.3937007874015748},{"duration":0.12295075000000111,"midi":33,"time":174.33904055208333,"velocity":0.3937007874015748},{"duration":0.12295075000000111,"midi":35,"time":174.5849420520833,"velocity":0.3937007874015748},{"duration":0.12295075000000111,"midi":36,"time":174.82572060416666,"velocity":0.3937007874015748},{"duration":0.12295075000000111,"midi":37,"time":175.07162210416666,"velocity":0.3937007874015748},{"duration":0.12295075000000111,"midi":32,"time":175.31752360416667,"velocity":0.3937007874015748},{"duration":0.3688522500000033,"midi":28,"time":175.56342510416667,"velocity":0.3937007874015748},{"duration":0.3688522500000033,"midi":30,"time":176.05522810416667,"velocity":0.3937007874015748},{"duration":0.24590150000000222,"midi":33,"time":176.54703110416668,"velocity":0.3937007874015748},{"duration":0.12295075000000111,"midi":30,"time":176.79293260416668,"velocity":0.3937007874015748},{"duration":0.12295075000000111,"midi":33,"time":177.04395705208333,"velocity":0.3937007874015748},{"duration":0.12295075000000111,"midi":33,"time":177.28473560416668,"velocity":0.3937007874015748},{"duration":0.061475375000014765,"midi":43,"time":177.5101453125,"velocity":0.3937007874015748},{"duration":0.491802999999976,"midi":45,"time":177.54600594791668,"velocity":0.3937007874015748},{"duration":0.12295075000000111,"midi":33,"time":178.0275630520833,"velocity":0.3937007874015748},{"duration":0.12295075000000111,"midi":33,"time":178.2734645520833,"velocity":0.3937007874015748},{"duration":0.061475375000014765,"midi":55,"time":178.4937513125,"velocity":0.3937007874015748},{"duration":0.49180300000000443,"midi":57,"time":178.5193660520833,"velocity":0.3937007874015748},{"duration":0.12295075000000111,"midi":33,"time":179.01116905208332,"velocity":0.3937007874015748},{"duration":0.12295075000000111,"midi":33,"time":179.25707055208332,"velocity":0.3937007874015748},{"duration":0.06147537499998634,"midi":55,"time":179.4773573125,"velocity":0.3937007874015748},{"duration":0.49180300000000443,"midi":57,"time":179.50297205208332,"velocity":0.3937007874015748},{"duration":0.12295075000000111,"midi":33,"time":179.999898,"velocity":0.3937007874015748},{"duration":0.12295075000000111,"midi":33,"time":180.24067655208333,"velocity":0.3937007874015748},{"duration":0.24590150000000222,"midi":33,"time":180.48657805208333,"velocity":0.3937007874015748},{"duration":0.24590150000000222,"midi":35,"time":180.9783810520833,"velocity":0.3937007874015748},{"duration":0.24590150000000222,"midi":42,"time":181.4701840520833,"velocity":0.3937007874015748},{"duration":0.24590150000000222,"midi":40,"time":181.7314543958333,"velocity":0.3937007874015748},{"duration":0.24590150000000222,"midi":35,"time":182.45379005208332,"velocity":0.3937007874015748},{"duration":0.12295075000000111,"midi":36,"time":182.69969155208332,"velocity":0.3937007874015748},{"duration":0.12295075000000111,"midi":37,"time":182.94559305208332,"velocity":0.3937007874015748},{"duration":0.24590150000000222,"midi":32,"time":183.18637160416668,"velocity":0.3937007874015748},{"duration":0.3688522500000033,"midi":28,"time":183.43739605208333,"velocity":0.3937007874015748},{"duration":0.24590150000000222,"midi":30,"time":183.93944494791668,"velocity":0.3937007874015748},{"duration":0.12295075000000111,"midi":33,"time":184.4210020520833,"velocity":0.3937007874015748},{"duration":0.12295075000000111,"midi":34,"time":184.6669035520833,"velocity":0.3937007874015748},{"duration":0.24590150000000222,"midi":35,"time":184.9128050520833,"velocity":0.3937007874015748},{"duration":0.12295075000000111,"midi":35,"time":185.29190319791667,"velocity":0.3937007874015748},{"duration":0.24590150000000222,"midi":42,"time":185.40460805208332,"velocity":0.3937007874015748},{"duration":0.24590150000000222,"midi":40,"time":185.66075544791667,"velocity":0.3937007874015748},{"duration":0.12295075000000111,"midi":35,"time":186.38821405208333,"velocity":0.3937007874015748},{"duration":0.12295075000000111,"midi":36,"time":186.63411555208333,"velocity":0.3937007874015748},{"duration":0.12295075000000111,"midi":37,"time":186.88001705208333,"velocity":0.3937007874015748},{"duration":0.12295075000000111,"midi":32,"time":187.12079560416666,"velocity":0.3937007874015748},{"duration":0.3688522500000033,"midi":28,"time":187.3718200520833,"velocity":0.3937007874015748},{"duration":0.3688522500000033,"midi":30,"time":187.85850010416667,"velocity":0.3937007874015748},{"duration":0.12295075000000111,"midi":33,"time":188.35542605208332,"velocity":0.3937007874015748},{"duration":0.24590150000000222,"midi":34,"time":188.60132755208332,"velocity":0.3937007874015748},{"duration":0.12295075000000111,"midi":35,"time":188.84722905208332,"velocity":0.3937007874015748},{"duration":0.12295075000000111,"midi":35,"time":189.09313055208332,"velocity":0.3937007874015748},{"duration":0.24590150000000222,"midi":42,"time":189.33903205208333,"velocity":0.3937007874015748},{"duration":0.24590150000000222,"midi":40,"time":189.59517944791668,"velocity":0.3937007874015748},{"duration":0.12295075000000111,"midi":33,"time":190.07673655208333,"velocity":0.3937007874015748},{"duration":0.12295075000000111,"midi":35,"time":190.3226380520833,"velocity":0.3937007874015748},{"duration":0.12295075000000111,"midi":36,"time":190.56341660416666,"velocity":0.3937007874015748},{"duration":0.12295075000000111,"midi":37,"time":190.80931810416666,"velocity":0.3937007874015748},{"duration":0.12295075000000111,"midi":32,"time":191.05521960416667,"velocity":0.3937007874015748},{"duration":0.3688522500000033,"midi":28,"time":191.30112110416667,"velocity":0.3937007874015748},{"duration":0.3688522500000033,"midi":30,"time":191.79292410416667,"velocity":0.3937007874015748},{"duration":0.24590150000000222,"midi":33,"time":192.28472710416668,"velocity":0.3937007874015748},{"duration":0.12295075000000111,"midi":30,"time":192.53062860416668,"velocity":0.3937007874015748},{"duration":0.12295075000000111,"midi":33,"time":192.78165305208333,"velocity":0.3937007874015748},{"duration":0.12295075000000111,"midi":33,"time":193.02243160416668,"velocity":0.3937007874015748},{"duration":0.061475375000014765,"midi":43,"time":193.2478413125,"velocity":0.3937007874015748},{"duration":0.491802999999976,"midi":45,"time":193.28370194791668,"velocity":0.3937007874015748},{"duration":0.12295075000000111,"midi":33,"time":193.7652590520833,"velocity":0.3937007874015748},{"duration":0.12295075000000111,"midi":33,"time":194.0111605520833,"velocity":0.3937007874015748},{"duration":0.061475375000014765,"midi":55,"time":194.2314473125,"velocity":0.3937007874015748},{"duration":0.49180300000000443,"midi":57,"time":194.2570620520833,"velocity":0.3937007874015748},{"duration":0.12295075000000111,"midi":33,"time":194.74886505208332,"velocity":0.3937007874015748},{"duration":0.12295075000000111,"midi":33,"time":194.99476655208332,"velocity":0.3937007874015748},{"duration":0.06147537499998634,"midi":55,"time":195.2150533125,"velocity":0.3937007874015748},{"duration":0.49180300000000443,"midi":57,"time":195.24066805208332,"velocity":0.3937007874015748},{"duration":0.12295075000000111,"midi":33,"time":195.737594,"velocity":0.3937007874015748},{"duration":0.12295075000000111,"midi":33,"time":195.97837255208333,"velocity":0.3937007874015748},{"duration":0.24590150000000222,"midi":33,"time":196.22427405208333,"velocity":0.3937007874015748},{"duration":0.24590150000000222,"midi":35,"time":196.7160770520833,"velocity":0.3937007874015748},{"duration":0.24590150000000222,"midi":42,"time":197.2078800520833,"velocity":0.3937007874015748},{"duration":0.24590150000000222,"midi":40,"time":197.4691503958333,"velocity":0.3937007874015748},{"duration":0.24590150000000222,"midi":35,"time":198.19148605208332,"velocity":0.3937007874015748},{"duration":0.12295075000000111,"midi":36,"time":198.43738755208332,"velocity":0.3937007874015748},{"duration":0.12295075000000111,"midi":37,"time":198.68328905208332,"velocity":0.3937007874015748},{"duration":0.24590150000000222,"midi":32,"time":198.92406760416668,"velocity":0.3937007874015748},{"duration":0.3688522500000033,"midi":28,"time":199.17509205208333,"velocity":0.3937007874015748},{"duration":0.24590150000000222,"midi":30,"time":199.67714094791668,"velocity":0.3937007874015748},{"duration":0.12295075000000111,"midi":33,"time":200.1586980520833,"velocity":0.3937007874015748},{"duration":0.12295075000000111,"midi":34,"time":200.4045995520833,"velocity":0.3937007874015748},{"duration":0.24590150000000222,"midi":35,"time":200.6505010520833,"velocity":0.3937007874015748},{"duration":0.12295075000000111,"midi":35,"time":201.02959919791667,"velocity":0.3937007874015748},{"duration":0.24590150000000222,"midi":42,"time":201.14230405208332,"velocity":0.3937007874015748},{"duration":0.24590150000000222,"midi":40,"time":201.39845144791667,"velocity":0.3937007874015748},{"duration":0.12295075000000111,"midi":35,"time":202.12591005208333,"velocity":0.3937007874015748},{"duration":0.12295075000000111,"midi":36,"time":202.37181155208333,"velocity":0.3937007874015748},{"duration":0.12295075000000111,"midi":37,"time":202.61771305208333,"velocity":0.3937007874015748},{"duration":0.12295075000000111,"midi":32,"time":202.85849160416666,"velocity":0.3937007874015748},{"duration":0.3688522500000033,"midi":28,"time":203.1095160520833,"velocity":0.3937007874015748},{"duration":0.3688522500000033,"midi":30,"time":203.59619610416667,"velocity":0.3937007874015748},{"duration":0.12295075000000111,"midi":33,"time":204.09312205208332,"velocity":0.3937007874015748},{"duration":0.24590150000000222,"midi":34,"time":204.33902355208332,"velocity":0.3937007874015748},{"duration":0.12295075000000111,"midi":35,"time":204.58492505208332,"velocity":0.3937007874015748},{"duration":0.12295075000000111,"midi":35,"time":204.83082655208332,"velocity":0.3937007874015748},{"duration":0.24590150000000222,"midi":42,"time":205.07672805208333,"velocity":0.3937007874015748},{"duration":0.24590150000000222,"midi":40,"time":205.33287544791668,"velocity":0.3937007874015748},{"duration":0.12295075000000111,"midi":33,"time":205.81443255208333,"velocity":0.3937007874015748},{"duration":0.12295075000000111,"midi":35,"time":206.0603340520833,"velocity":0.3937007874015748},{"duration":0.12295075000000111,"midi":36,"time":206.30111260416666,"velocity":0.3937007874015748},{"duration":0.12295075000000111,"midi":37,"time":206.54701410416666,"velocity":0.3937007874015748},{"duration":0.12295075000000111,"midi":32,"time":206.79291560416667,"velocity":0.3937007874015748},{"duration":0.3688522500000033,"midi":28,"time":207.03881710416667,"velocity":0.3937007874015748},{"duration":0.3688522500000033,"midi":30,"time":207.53062010416667,"velocity":0.3937007874015748},{"duration":0.24590150000000222,"midi":33,"time":208.02242310416668,"velocity":0.3937007874015748},{"duration":0.12295075000000111,"midi":30,"time":208.26832460416668,"velocity":0.3937007874015748},{"duration":0.12295075000000111,"midi":33,"time":208.51934905208333,"velocity":0.3937007874015748},{"duration":0.12295075000000111,"midi":33,"time":208.76012760416668,"velocity":0.3937007874015748},{"duration":0.061475375000014765,"midi":43,"time":208.98553731249999,"velocity":0.3937007874015748},{"duration":0.491802999999976,"midi":45,"time":209.02139794791668,"velocity":0.3937007874015748},{"duration":0.12295075000000111,"midi":33,"time":209.5029550520833,"velocity":0.3937007874015748},{"duration":0.12295075000000111,"midi":33,"time":209.7488565520833,"velocity":0.3937007874015748},{"duration":0.061475375000014765,"midi":55,"time":209.9691433125,"velocity":0.3937007874015748},{"duration":0.49180300000000443,"midi":57,"time":209.9947580520833,"velocity":0.3937007874015748},{"duration":0.12295075000000111,"midi":33,"time":210.48656105208332,"velocity":0.3937007874015748},{"duration":0.12295075000000111,"midi":33,"time":210.73246255208332,"velocity":0.3937007874015748},{"duration":0.06147537499998634,"midi":55,"time":210.9527493125,"velocity":0.3937007874015748},{"duration":0.49180300000000443,"midi":57,"time":210.97836405208332,"velocity":0.3937007874015748},{"duration":0.12295075000000111,"midi":33,"time":211.47529,"velocity":0.3937007874015748},{"duration":0.12295075000000111,"midi":33,"time":211.71606855208333,"velocity":0.3937007874015748},{"duration":0.24590150000000222,"midi":33,"time":211.96197005208333,"velocity":0.3937007874015748},{"duration":0.24590150000000222,"midi":35,"time":212.4537730520833,"velocity":0.3937007874015748},{"duration":0.24590150000000222,"midi":42,"time":212.9455760520833,"velocity":0.3937007874015748},{"duration":0.24590150000000222,"midi":40,"time":213.2068463958333,"velocity":0.3937007874015748},{"duration":0.24590150000000222,"midi":35,"time":213.92918205208332,"velocity":0.3937007874015748},{"duration":0.12295075000000111,"midi":36,"time":214.17508355208332,"velocity":0.3937007874015748},{"duration":0.12295075000000111,"midi":37,"time":214.42098505208332,"velocity":0.3937007874015748},{"duration":0.24590150000000222,"midi":32,"time":214.66176360416668,"velocity":0.3937007874015748},{"duration":0.3688522500000033,"midi":28,"time":214.91278805208333,"velocity":0.3937007874015748},{"duration":0.24590150000000222,"midi":30,"time":215.41483694791668,"velocity":0.3937007874015748},{"duration":0.12295075000000111,"midi":33,"time":215.8963940520833,"velocity":0.3937007874015748},{"duration":0.12295075000000111,"midi":34,"time":216.1422955520833,"velocity":0.3937007874015748},{"duration":0.24590150000000222,"midi":35,"time":216.3881970520833,"velocity":0.3937007874015748},{"duration":0.12295075000000111,"midi":35,"time":216.76729519791667,"velocity":0.3937007874015748},{"duration":0.24590150000000222,"midi":42,"time":216.88000005208332,"velocity":0.3937007874015748},{"duration":0.24590150000000222,"midi":40,"time":217.13614744791667,"velocity":0.3937007874015748},{"duration":0.12295075000000111,"midi":35,"time":217.86360605208333,"velocity":0.3937007874015748},{"duration":0.12295075000000111,"midi":36,"time":218.10950755208333,"velocity":0.3937007874015748},{"duration":0.12295075000000111,"midi":37,"time":218.35540905208333,"velocity":0.3937007874015748},{"duration":0.12295075000000111,"midi":32,"time":218.59618760416666,"velocity":0.3937007874015748},{"duration":0.3688522500000033,"midi":28,"time":218.8472120520833,"velocity":0.3937007874015748},{"duration":0.3688522500000033,"midi":30,"time":219.33389210416667,"velocity":0.3937007874015748},{"duration":0.12295075000000111,"midi":33,"time":219.83081805208332,"velocity":0.3937007874015748},{"duration":0.24590150000000222,"midi":34,"time":220.07671955208332,"velocity":0.3937007874015748},{"duration":0.12295075000000111,"midi":35,"time":220.32262105208332,"velocity":0.3937007874015748},{"duration":0.12295075000000111,"midi":35,"time":220.56852255208332,"velocity":0.3937007874015748},{"duration":0.24590150000000222,"midi":42,"time":220.81442405208333,"velocity":0.3937007874015748},{"duration":0.24590150000000222,"midi":40,"time":221.07057144791668,"velocity":0.3937007874015748},{"duration":0.12295075000000111,"midi":33,"time":221.55212855208333,"velocity":0.3937007874015748},{"duration":0.12295075000000111,"midi":35,"time":221.7980300520833,"velocity":0.3937007874015748},{"duration":0.12295075000000111,"midi":36,"time":222.03880860416666,"velocity":0.3937007874015748},{"duration":0.12295075000000111,"midi":37,"time":222.28471010416666,"velocity":0.3937007874015748},{"duration":0.12295075000000111,"midi":32,"time":222.53061160416667,"velocity":0.3937007874015748},{"duration":0.3688522500000033,"midi":28,"time":222.77651310416667,"velocity":0.3937007874015748},{"duration":0.3688522500000033,"midi":30,"time":223.26831610416667,"velocity":0.3937007874015748},{"duration":0.24590150000000222,"midi":33,"time":223.76011910416668,"velocity":0.3937007874015748},{"duration":0.12295075000000111,"midi":30,"time":224.00602060416668,"velocity":0.3937007874015748},{"duration":0.12295075000000111,"midi":33,"time":224.25704505208333,"velocity":0.3937007874015748},{"duration":0.12295075000000111,"midi":33,"time":224.49782360416668,"velocity":0.3937007874015748},{"duration":0.061475375000014765,"midi":43,"time":224.72323331249999,"velocity":0.3937007874015748},{"duration":0.491802999999976,"midi":45,"time":224.75909394791668,"velocity":0.3937007874015748},{"duration":0.12295075000000111,"midi":33,"time":225.2406510520833,"velocity":0.3937007874015748},{"duration":0.12295075000000111,"midi":33,"time":225.4865525520833,"velocity":0.3937007874015748},{"duration":0.061475375000014765,"midi":55,"time":225.7068393125,"velocity":0.3937007874015748},{"duration":0.49180300000000443,"midi":57,"time":225.7324540520833,"velocity":0.3937007874015748},{"duration":0.12295075000000111,"midi":33,"time":226.22425705208332,"velocity":0.3937007874015748},{"duration":0.12295075000000111,"midi":33,"time":226.47015855208332,"velocity":0.3937007874015748},{"duration":0.06147537499998634,"midi":55,"time":226.6904453125,"velocity":0.3937007874015748},{"duration":0.49180300000000443,"midi":57,"time":226.71606005208332,"velocity":0.3937007874015748},{"duration":0.12295075000000111,"midi":33,"time":227.212986,"velocity":0.3937007874015748},{"duration":0.12295075000000111,"midi":33,"time":227.45376455208333,"velocity":0.3937007874015748},{"duration":0.24590150000000222,"midi":33,"time":227.69966605208333,"velocity":0.3937007874015748},{"duration":0.12295075000000111,"midi":47,"time":235.0920798958333,"velocity":0.3937007874015748},{"duration":0.12295075000000111,"midi":49,"time":235.1958195911458,"velocity":0.3937007874015748},{"duration":0.12295075000000111,"midi":52,"time":235.33413918489583,"velocity":0.3937007874015748},{"duration":0.12295075000000111,"midi":54,"time":235.4417210911458,"velocity":0.3937007874015748},{"duration":0.12295075000000111,"midi":57,"time":235.5838828958333,"velocity":0.3937007874015748},{"duration":0.9836060000000089,"midi":59,"time":235.82466144791667,"velocity":0.3937007874015748},{"duration":0.12295075000000111,"midi":33,"time":239.99474105208333,"velocity":0.3937007874015748},{"duration":0.24590150000000222,"midi":33,"time":240.24064255208333,"velocity":0.3937007874015748},{"duration":0.24590150000000222,"midi":55,"time":240.491667,"velocity":0.3937007874015748},{"duration":0.24590150000000222,"midi":57,"time":240.7324455520833,"velocity":0.3937007874015748},{"duration":0.12295075000000111,"midi":33,"time":240.98859294791666,"velocity":0.3937007874015748},{"duration":0.24590150000000222,"midi":33,"time":241.2242485520833,"velocity":0.3937007874015748},{"duration":0.24590150000000222,"midi":55,"time":241.4701500520833,"velocity":0.3937007874015748},{"duration":0.24590150000000222,"midi":57,"time":241.71605155208331,"velocity":0.3937007874015748},{"duration":0.12295075000000111,"midi":33,"time":241.967076,"velocity":0.3937007874015748},{"duration":0.24590150000000222,"midi":33,"time":242.20273160416667,"velocity":0.3937007874015748},{"duration":0.24590150000000222,"midi":55,"time":242.44863310416667,"velocity":0.3937007874015748},{"duration":0.24590150000000222,"midi":57,"time":242.68941165625,"velocity":0.3937007874015748},{"duration":0.12295075000000111,"midi":33,"time":242.9545242109375,"velocity":0.3937007874015748},{"duration":0.12295075000000111,"midi":33,"time":243.18505686718748,"velocity":0.3937007874015748},{"duration":0.12295075000000111,"midi":45,"time":243.43608131510416,"velocity":0.3937007874015748},{"duration":0.12295075000000111,"midi":55,"time":243.5795238567708,"velocity":0.3937007874015748},{"duration":0.12295075000000111,"midi":57,"time":243.8100565130208,"velocity":0.3937007874015748},{"duration":0.12295075000000111,"midi":33,"time":243.94325315885416,"velocity":0.3937007874015748},{"duration":0.24590150000000222,"midi":33,"time":244.18915465885416,"velocity":0.3937007874015748},{"duration":0.24590150000000222,"midi":55,"time":244.4299332109375,"velocity":0.3937007874015748},{"duration":0.24590150000000222,"midi":57,"time":244.66558881510417,"velocity":0.3937007874015748},{"duration":0.12295075000000111,"midi":33,"time":244.91661326302082,"velocity":0.3937007874015748},{"duration":0.24590150000000222,"midi":33,"time":245.1522688671875,"velocity":0.3937007874015748},{"duration":0.24590150000000222,"midi":55,"time":245.40329331510418,"velocity":0.3937007874015748},{"duration":0.24590150000000222,"midi":57,"time":245.64919481510418,"velocity":0.3937007874015748},{"duration":0.12295075000000111,"midi":33,"time":245.89509631510418,"velocity":0.3937007874015748},{"duration":0.24590150000000222,"midi":33,"time":246.13587486718748,"velocity":0.3937007874015748},{"duration":0.24590150000000222,"midi":55,"time":246.3920222630208,"velocity":0.3937007874015748},{"duration":0.24590150000000222,"midi":57,"time":246.63280081510416,"velocity":0.3937007874015748},{"duration":0.24590150000000222,"midi":33,"time":246.88894821093749,"velocity":0.3937007874015748}]},{"instrument":{"family":"synth lead","number":87,"name":"lead 8 (bass + lead)"},"notes":[{"duration":0.12295075000000111,"midi":60,"time":15.235647104166667,"velocity":0.3937007874015748},{"duration":0.12295074999999933,"midi":60,"time":15.358597854166668,"velocity":0.3937007874015748},{"duration":0.12295074999999933,"midi":59,"time":15.481548604166667,"velocity":0.3937007874015748},{"duration":0.12295075000000111,"midi":57,"time":15.604499354166666,"velocity":0.3937007874015748},{"duration":0.12295074999999756,"midi":59,"time":15.727450104166667,"velocity":0.3937007874015748},{"duration":1.2295075000000004,"midi":57,"time":15.850400854166665,"velocity":0.3937007874015748},{"duration":0.12295074999999756,"midi":60,"time":17.202859104166667,"velocity":0.3937007874015748},{"duration":0.12295075000000111,"midi":60,"time":17.325809854166664,"velocity":0.3937007874015748},{"duration":0.12295075000000111,"midi":59,"time":17.448760604166665,"velocity":0.3937007874015748},{"duration":0.12295075000000111,"midi":57,"time":17.576834302083334,"velocity":0.3937007874015748},{"duration":0.12295075000000111,"midi":59,"time":17.694662104166664,"velocity":0.3937007874015748},{"duration":1.475408999999999,"midi":57,"time":17.817612854166665,"velocity":0.3937007874015748},{"duration":2.950817999999998,"midi":57,"time":19.4262185,"velocity":0.3937007874015748},{"duration":0.12295075000000111,"midi":57,"time":22.648552739583334,"velocity":0.3937007874015748},{"duration":0.12295075000000111,"midi":59,"time":35.1639145,"velocity":0.3937007874015748},{"duration":0.12295075000000111,"midi":61,"time":35.27661935416667,"velocity":0.3937007874015748},{"duration":0.6147537499999984,"midi":62,"time":35.418781158854166,"velocity":0.3937007874015748},{"duration":0.12295075000000111,"midi":62,"time":36.14623976302083,"velocity":0.3937007874015748},{"duration":0.12295075000000111,"midi":62,"time":36.2743134609375,"velocity":0.3937007874015748},{"duration":1.8442612499999953,"midi":62,"time":36.39214126302083,"velocity":0.3937007874015748},{"duration":1.8442612500000024,"midi":66,"time":36.40238715885417,"velocity":0.3937007874015748},{"duration":0.24590150000000222,"midi":69,"time":38.35038810416667,"velocity":0.3937007874015748},{"duration":0.24590150000000222,"midi":66,"time":38.35551105208333,"velocity":0.3937007874015748},{"duration":0.12295075000000111,"midi":57,"time":55.317591604166665,"velocity":0.3937007874015748},{"duration":0.12295075000000111,"midi":61,"time":55.317591604166665,"velocity":0.3937007874015748},{"duration":0.12295075000000111,"midi":61,"time":56.30119760416667,"velocity":0.3937007874015748},{"duration":0.12295075000000111,"midi":56,"time":56.30119760416667,"velocity":0.3937007874015748},{"duration":0.49180300000000443,"midi":69,"time":57.03890210416667,"velocity":0.3937007874015748},{"duration":0.24590150000000222,"midi":66,"time":57.51917847135417,"velocity":0.3937007874015748},{"duration":0.12295075000000111,"midi":64,"time":57.776606604166666,"velocity":0.3937007874015748},{"duration":0.4918029999999973,"midi":69,"time":58.02250810416667,"velocity":0.3937007874015748},{"duration":0.24590150000000222,"midi":66,"time":58.514311104166666,"velocity":0.3937007874015748},{"duration":0.12295075000000111,"midi":64,"time":58.76021260416667,"velocity":0.3937007874015748},{"duration":0.12295075000000111,"midi":57,"time":59.24048897135417,"velocity":0.3937007874015748},{"duration":0.12295075000000111,"midi":61,"time":59.24048897135417,"velocity":0.3937007874015748},{"duration":0.12295075000000111,"midi":56,"time":60.22409497135417,"velocity":0.3937007874015748},{"duration":0.12295075000000111,"midi":61,"time":60.23049865625,"velocity":0.3937007874015748},{"duration":0.49180300000000443,"midi":69,"time":60.97332610416667,"velocity":0.3937007874015748},{"duration":0.24590150000000222,"midi":66,"time":61.460006156249996,"velocity":0.3937007874015748},{"duration":0.12295075000000111,"midi":64,"time":61.71615355208333,"velocity":0.3937007874015748},{"duration":0.4918029999999973,"midi":69,"time":61.95693210416667,"velocity":0.3937007874015748},{"duration":0.24590150000000222,"midi":66,"time":62.43720847135417,"velocity":0.3937007874015748},{"duration":0.12295075000000111,"midi":64,"time":62.69463660416667,"velocity":0.3937007874015748},{"duration":0.122950749999994,"midi":57,"time":63.19156255208334,"velocity":0.3937007874015748},{"duration":0.12295075000000111,"midi":61,"time":63.1966855,"velocity":0.3937007874015748},{"duration":0.12295075000000111,"midi":61,"time":64.1495538125,"velocity":0.3937007874015748},{"duration":0.12295075000000111,"midi":56,"time":64.1495538125,"velocity":0.3937007874015748},{"duration":0.4918029999999902,"midi":69,"time":64.90775010416667,"velocity":0.3937007874015748},{"duration":0.24590150000000222,"midi":66,"time":65.39955310416666,"velocity":0.3937007874015748},{"duration":0.12295075000000111,"midi":64,"time":65.6557005,"velocity":0.3937007874015748},{"duration":0.49180300000000443,"midi":69,"time":65.89647905208334,"velocity":0.3937007874015748},{"duration":0.24590150000000222,"midi":66,"time":66.38315910416667,"velocity":0.3937007874015748},{"duration":0.12295075000000111,"midi":64,"time":66.6393065,"velocity":0.3937007874015748},{"duration":0.12295075000000111,"midi":49,"time":70.81450905208334,"velocity":0.3937007874015748},{"duration":0.12295075000000111,"midi":49,"time":71.06041055208334,"velocity":0.3937007874015748},{"duration":0.1229507499999869,"midi":49,"time":71.30118910416667,"velocity":0.3937007874015748},{"duration":0.12295075000000111,"midi":47,"time":71.54709060416666,"velocity":0.3937007874015748},{"duration":0.12295075000000111,"midi":45,"time":72.03889360416666,"velocity":0.3937007874015748},{"duration":0.9836059999999947,"midi":47,"time":72.51532776041667,"velocity":0.3937007874015748},{"duration":0.9836060000000089,"midi":45,"time":73.47331902083333,"velocity":0.3937007874015748},{"duration":0.12295075000000111,"midi":49,"time":74.74509084114584,"velocity":0.3937007874015748},{"duration":0.12295075000000111,"midi":49,"time":74.97050054947915,"velocity":0.3937007874015748},{"duration":0.12295075000000111,"midi":49,"time":75.22152499739583,"velocity":0.3937007874015748},{"duration":0.12295075000000111,"midi":47,"time":75.48279534114583,"velocity":0.3937007874015748},{"duration":0.12295075000000111,"midi":45,"time":75.96307170833333,"velocity":0.3937007874015748},{"duration":0.9836059999999947,"midi":47,"time":76.4446288125,"velocity":0.3937007874015748},{"duration":0.9836060000000089,"midi":45,"time":77.41798891666666,"velocity":0.3937007874015748},{"duration":0.12295075000000111,"midi":49,"time":78.67311115625,"velocity":0.3937007874015748},{"duration":0.12295075000000111,"midi":49,"time":78.91260897135416,"velocity":0.3937007874015748},{"duration":0.12295075000000111,"midi":49,"time":79.14826457552084,"velocity":0.3937007874015748},{"duration":0.12295075000000111,"midi":47,"time":79.40953491927084,"velocity":0.3937007874015748},{"duration":0.12295075000000111,"midi":45,"time":79.894934234375,"velocity":0.3937007874015748},{"duration":0.9836059999999947,"midi":47,"time":80.386737234375,"velocity":0.3937007874015748},{"duration":4.180325499999995,"midi":45,"time":81.354974390625,"velocity":0.3937007874015748},{"duration":0.061475375000000554,"midi":59,"time":82.599850734375,"velocity":0.3937007874015748},{"duration":0.12295075000000111,"midi":59,"time":82.62034252604165,"velocity":0.3937007874015748},{"duration":0.3688522500000033,"midi":59,"time":82.861121078125,"velocity":0.3937007874015748},{"duration":0.12295075000000111,"midi":59,"time":83.352924078125,"velocity":0.3937007874015748},{"duration":0.3688522500000033,"midi":59,"time":83.598825578125,"velocity":0.3937007874015748},{"duration":0.12295075000000111,"midi":59,"time":84.09062857812499,"velocity":0.3937007874015748},{"duration":0.3688522500000033,"midi":59,"time":84.34165302604166,"velocity":0.3937007874015748},{"duration":0.12295075000000111,"midi":59,"time":84.83857897395833,"velocity":0.3937007874015748},{"duration":0.12295075000000111,"midi":59,"time":85.07935752604166,"velocity":0.3937007874015748},{"duration":0.1229507499999869,"midi":59,"time":85.566037578125,"velocity":0.3937007874015748},{"duration":0.12295075000000111,"midi":54,"time":102.49225749479166,"velocity":0.3937007874015748},{"duration":0.24590150000000222,"midi":61,"time":102.76889668229165,"velocity":0.3937007874015748},{"duration":0.12295075000000111,"midi":59,"time":103.01479818229166,"velocity":0.3937007874015748},{"duration":0.24590150000000222,"midi":61,"time":103.27991073697916,"velocity":0.3937007874015748},{"duration":0.12295075000000111,"midi":57,"time":103.53093518489584,"velocity":0.3937007874015748},{"duration":0.245901499999988,"midi":66,"time":103.77171373697917,"velocity":0.3937007874015748},{"duration":0.12295075000000111,"midi":64,"time":104.00224639322916,"velocity":0.3937007874015748},{"duration":0.12295075000000111,"midi":68,"time":104.2430249453125,"velocity":0.3937007874015748},{"duration":0.49052226302082147,"midi":69,"time":104.28400852864584,"velocity":0.3937007874015748},{"duration":0.24590150000000222,"midi":66,"time":104.75403899999999,"velocity":0.3937007874015748},{"duration":0.12295075000000111,"midi":64,"time":104.98457165625,"velocity":0.3937007874015748},{"duration":0.12295075000000111,"midi":68,"time":105.23047315625,"velocity":0.3937007874015748},{"duration":0.4918029999999902,"midi":69,"time":105.27145673958334,"velocity":0.3937007874015748},{"duration":0.24590150000000222,"midi":66,"time":105.72739910416666,"velocity":0.3937007874015748},{"duration":0.1229507499999869,"midi":64,"time":105.97330060416667,"velocity":0.3937007874015748},{"duration":0.12295075000000111,"midi":54,"time":106.45485770833334,"velocity":0.3937007874015748},{"duration":0.24590150000000222,"midi":61,"time":106.71612805208333,"velocity":0.3937007874015748},{"duration":0.12295075000000111,"midi":59,"time":106.95690660416666,"velocity":0.3937007874015748},{"duration":0.24590150000000222,"midi":61,"time":107.20280810416666,"velocity":0.3937007874015748},{"duration":0.12295075000000111,"midi":57,"time":107.45383255208334,"velocity":0.3937007874015748},{"duration":0.245901499999988,"midi":66,"time":107.70997994791666,"velocity":0.3937007874015748},{"duration":0.12295075000000111,"midi":64,"time":107.95588144791665,"velocity":0.3937007874015748},{"duration":0.12295075000000111,"midi":69,"time":108.2081866328125,"velocity":0.3937007874015748},{"duration":0.24590150000000222,"midi":69,"time":108.44768444791666,"velocity":0.3937007874015748},{"duration":0.24590150000000222,"midi":66,"time":108.70895479166666,"velocity":0.3937007874015748},{"duration":0.12295075000000111,"midi":64,"time":108.93948744791666,"velocity":0.3937007874015748},{"duration":0.12295075000000111,"midi":68,"time":109.18538894791666,"velocity":0.3937007874015748},{"duration":0.49180300000000443,"midi":69,"time":109.1917926328125,"velocity":0.3937007874015748},{"duration":0.24590150000000222,"midi":66,"time":109.67719194791665,"velocity":0.3937007874015748},{"duration":0.12295075000000111,"midi":64,"time":109.9179705,"velocity":0.3937007874015748},{"duration":0.24590150000000222,"midi":57,"time":110.61981436458333,"velocity":0.3937007874015748},{"duration":0.24590150000000222,"midi":61,"time":110.61981436458333,"velocity":0.3937007874015748},{"duration":0.12295075000000111,"midi":56,"time":110.85546996875,"velocity":0.3937007874015748},{"duration":0.12295075000000111,"midi":59,"time":110.86059291666666,"velocity":0.3937007874015748},{"duration":0.12295075000000111,"midi":57,"time":111.34727296874999,"velocity":0.3937007874015748},{"duration":0.24590150000000222,"midi":54,"time":111.34727296874999,"velocity":0.3937007874015748},{"duration":0.9836060000000089,"midi":56,"time":111.85444481249999,"velocity":0.3937007874015748},{"duration":0.6147537500000055,"midi":53,"time":111.85444481249999,"velocity":0.3937007874015748},{"duration":0.8606552499999935,"midi":54,"time":112.85341965625,"velocity":0.3937007874015748},{"duration":0.8606552499999935,"midi":57,"time":112.85341965625,"velocity":0.3937007874015748},{"duration":0.12295075000000111,"midi":57,"time":118.26325265625,"velocity":0.3937007874015748},{"duration":0.12295075000000111,"midi":61,"time":118.26325265625,"velocity":0.3937007874015748},{"duration":0.12295075000000111,"midi":61,"time":119.24685865625,"velocity":0.3937007874015748},{"duration":0.12295075000000111,"midi":56,"time":119.24685865625,"velocity":0.3937007874015748},{"duration":0.4918029999999902,"midi":69,"time":119.98456315625,"velocity":0.3937007874015748},{"duration":0.245901499999988,"midi":66,"time":120.4648395234375,"velocity":0.3937007874015748},{"duration":0.12295075000000111,"midi":64,"time":120.72226765625,"velocity":0.3937007874015748},{"duration":0.49180300000000443,"midi":69,"time":120.96816915625,"velocity":0.3937007874015748},{"duration":0.245901499999988,"midi":66,"time":121.45997215625,"velocity":0.3937007874015748},{"duration":0.12295075000000111,"midi":64,"time":121.70587365624999,"velocity":0.3937007874015748},{"duration":0.12295075000000111,"midi":61,"time":122.18615002343749,"velocity":0.3937007874015748},{"duration":0.12295075000000111,"midi":57,"time":122.18615002343749,"velocity":0.3937007874015748},{"duration":0.12295075000000111,"midi":56,"time":123.1697560234375,"velocity":0.3937007874015748},{"duration":0.12295075000000111,"midi":61,"time":123.17615970833333,"velocity":0.3937007874015748},{"duration":0.49180300000000443,"midi":69,"time":123.91898715625,"velocity":0.3937007874015748},{"duration":0.245901499999988,"midi":66,"time":124.40566720833334,"velocity":0.3937007874015748},{"duration":0.12295075000000111,"midi":64,"time":124.66181460416666,"velocity":0.3937007874015748},{"duration":0.49180300000000443,"midi":69,"time":124.90259315624999,"velocity":0.3937007874015748},{"duration":0.24590150000000222,"midi":66,"time":125.38286952343749,"velocity":0.3937007874015748},{"duration":0.12295075000000111,"midi":64,"time":125.64029765625,"velocity":0.3937007874015748},{"duration":0.12295075000000111,"midi":57,"time":126.13722360416668,"velocity":0.3937007874015748},{"duration":0.12295075000000111,"midi":61,"time":126.14234655208332,"velocity":0.3937007874015748},{"duration":0.12295075000000111,"midi":56,"time":127.09521486458333,"velocity":0.3937007874015748},{"duration":0.12295075000000111,"midi":61,"time":127.09521486458333,"velocity":0.3937007874015748},{"duration":0.4918029999999902,"midi":69,"time":127.85341115625,"velocity":0.3937007874015748},{"duration":0.24590150000000222,"midi":66,"time":128.34521415625,"velocity":0.3937007874015748},{"duration":0.12295075000000111,"midi":64,"time":128.60136155208332,"velocity":0.3937007874015748},{"duration":0.49180300000000443,"midi":69,"time":128.84214010416667,"velocity":0.3937007874015748},{"duration":0.24590150000000222,"midi":66,"time":129.32882015625,"velocity":0.3937007874015748},{"duration":0.12295075000000111,"midi":64,"time":129.58496755208333,"velocity":0.3937007874015748},{"duration":0.12295075000000111,"midi":57,"time":134.00094865625,"velocity":0.3937007874015748},{"duration":0.12295075000000111,"midi":61,"time":134.00094865625,"velocity":0.3937007874015748},{"duration":0.12295075000000111,"midi":56,"time":134.98455465625,"velocity":0.3937007874015748},{"duration":0.12295075000000111,"midi":61,"time":134.98455465625,"velocity":0.3937007874015748},{"duration":0.49180300000000443,"midi":69,"time":135.72225915625,"velocity":0.3937007874015748},{"duration":0.24590150000000222,"midi":66,"time":136.2025355234375,"velocity":0.3937007874015748},{"duration":0.12295074999997269,"midi":64,"time":136.45996365625,"velocity":0.3937007874015748},{"duration":0.49180300000000443,"midi":69,"time":136.70586515624998,"velocity":0.3937007874015748},{"duration":0.24590150000000222,"midi":66,"time":137.19766815625,"velocity":0.3937007874015748},{"duration":0.12295075000000111,"midi":64,"time":137.44356965625,"velocity":0.3937007874015748},{"duration":0.12295075000000111,"midi":61,"time":137.9238460234375,"velocity":0.3937007874015748},{"duration":0.12295075000000111,"midi":57,"time":137.9238460234375,"velocity":0.3937007874015748},{"duration":0.12295075000000111,"midi":56,"time":138.9074520234375,"velocity":0.3937007874015748},{"duration":0.12295075000000111,"midi":61,"time":138.91385570833333,"velocity":0.3937007874015748},{"duration":0.491802999999976,"midi":69,"time":139.65668315625,"velocity":0.3937007874015748},{"duration":0.24590150000000222,"midi":66,"time":140.1433632083333,"velocity":0.3937007874015748},{"duration":0.12295075000000111,"midi":64,"time":140.39951060416666,"velocity":0.3937007874015748},{"duration":0.49180300000000443,"midi":69,"time":140.64028915625,"velocity":0.3937007874015748},{"duration":0.24590150000000222,"midi":66,"time":141.1205655234375,"velocity":0.3937007874015748},{"duration":0.12295075000000111,"midi":64,"time":141.37799365625,"velocity":0.3937007874015748},{"duration":0.12295075000000111,"midi":57,"time":141.87491960416668,"velocity":0.3937007874015748},{"duration":0.12295075000000111,"midi":61,"time":141.88004255208332,"velocity":0.3937007874015748},{"duration":0.12295075000000111,"midi":56,"time":142.8329108645833,"velocity":0.3937007874015748},{"duration":0.12295075000000111,"midi":61,"time":142.8329108645833,"velocity":0.3937007874015748},{"duration":0.49180300000000443,"midi":69,"time":143.59110715625,"velocity":0.3937007874015748},{"duration":0.24590150000000222,"midi":66,"time":144.08291015625,"velocity":0.3937007874015748},{"duration":0.12295075000000111,"midi":64,"time":144.33905755208332,"velocity":0.3937007874015748},{"duration":0.49180300000000443,"midi":69,"time":144.57983610416667,"velocity":0.3937007874015748},{"duration":0.24590150000000222,"midi":66,"time":145.06651615625,"velocity":0.3937007874015748},{"duration":0.12295075000000111,"midi":64,"time":145.32266355208333,"velocity":0.3937007874015748},{"duration":0.12295075000000111,"midi":54,"time":149.70278402083332,"velocity":0.3937007874015748},{"duration":0.24590150000000222,"midi":61,"time":149.97942320833332,"velocity":0.3937007874015748},{"duration":0.12295075000000111,"midi":59,"time":150.22532470833332,"velocity":0.3937007874015748},{"duration":0.24590150000000222,"midi":61,"time":150.49043726302082,"velocity":0.3937007874015748},{"duration":0.12295075000000111,"midi":57,"time":150.7414617109375,"velocity":0.3937007874015748},{"duration":0.24590150000000222,"midi":66,"time":150.98224026302083,"velocity":0.3937007874015748},{"duration":0.12295075000000111,"midi":64,"time":151.21277291927083,"velocity":0.3937007874015748},{"duration":0.12295075000000111,"midi":68,"time":151.45355147135416,"velocity":0.3937007874015748},{"duration":0.49052226302080726,"midi":69,"time":151.4945350546875,"velocity":0.3937007874015748},{"duration":0.24590150000000222,"midi":66,"time":151.96456552604167,"velocity":0.3937007874015748},{"duration":0.12295075000000111,"midi":64,"time":152.19509818229167,"velocity":0.3937007874015748},{"duration":0.12295075000000111,"midi":68,"time":152.44099968229168,"velocity":0.3937007874015748},{"duration":0.49180300000000443,"midi":69,"time":152.481983265625,"velocity":0.3937007874015748},{"duration":0.24590150000000222,"midi":66,"time":152.93792563020833,"velocity":0.3937007874015748},{"duration":0.12295075000000111,"midi":64,"time":153.18382713020833,"velocity":0.3937007874015748},{"duration":0.12295075000000111,"midi":54,"time":153.66538423437498,"velocity":0.3937007874015748},{"duration":0.2459014999999738,"midi":61,"time":153.926654578125,"velocity":0.3937007874015748},{"duration":0.12295075000000111,"midi":59,"time":154.1674331302083,"velocity":0.3937007874015748},{"duration":0.24590150000000222,"midi":61,"time":154.4133346302083,"velocity":0.3937007874015748},{"duration":0.12295075000000111,"midi":57,"time":154.664359078125,"velocity":0.3937007874015748},{"duration":0.24590150000000222,"midi":66,"time":154.9205064739583,"velocity":0.3937007874015748},{"duration":0.12295075000000111,"midi":64,"time":155.16640797395831,"velocity":0.3937007874015748},{"duration":0.12295075000000111,"midi":69,"time":155.41871315885416,"velocity":0.3937007874015748},{"duration":0.24590150000000222,"midi":69,"time":155.65821097395832,"velocity":0.3937007874015748},{"duration":0.24590150000000222,"midi":66,"time":155.91948131770832,"velocity":0.3937007874015748},{"duration":0.12295075000000111,"midi":64,"time":156.15001397395832,"velocity":0.3937007874015748},{"duration":0.12295075000000111,"midi":68,"time":156.39591547395833,"velocity":0.3937007874015748},{"duration":0.49180300000000443,"midi":69,"time":156.40231915885417,"velocity":0.3937007874015748},{"duration":0.24590150000000222,"midi":66,"time":156.88771847395833,"velocity":0.3937007874015748},{"duration":0.12295075000000111,"midi":64,"time":157.12849702604169,"velocity":0.3937007874015748},{"duration":0.24590150000000222,"midi":57,"time":157.830340890625,"velocity":0.3937007874015748},{"duration":0.24590150000000222,"midi":61,"time":157.830340890625,"velocity":0.3937007874015748},{"duration":0.12295075000000111,"midi":56,"time":158.06599649479168,"velocity":0.3937007874015748},{"duration":0.12295075000000111,"midi":59,"time":158.07111944270832,"velocity":0.3937007874015748},{"duration":0.12295075000000111,"midi":57,"time":158.55779949479168,"velocity":0.3937007874015748},{"duration":0.24590150000000222,"midi":54,"time":158.55779949479168,"velocity":0.3937007874015748},{"duration":0.9836059999999804,"midi":56,"time":159.06497133854168,"velocity":0.3937007874015748},{"duration":0.6147537499999771,"midi":53,"time":159.06497133854168,"velocity":0.3937007874015748},{"duration":0.8606552500000078,"midi":54,"time":160.06394618229166,"velocity":0.3937007874015748},{"duration":0.8606552500000078,"midi":57,"time":160.06394618229166,"velocity":0.3937007874015748},{"duration":0.12295075000000111,"midi":57,"time":165.47377918229168,"velocity":0.3937007874015748},{"duration":0.12295075000000111,"midi":61,"time":165.47377918229168,"velocity":0.3937007874015748},{"duration":0.12295075000000111,"midi":56,"time":166.45738518229166,"velocity":0.3937007874015748},{"duration":0.12295075000000111,"midi":61,"time":166.45738518229166,"velocity":0.3937007874015748},{"duration":0.49180300000000443,"midi":69,"time":167.19508968229167,"velocity":0.3937007874015748},{"duration":0.24590150000000222,"midi":66,"time":167.67536604947918,"velocity":0.3937007874015748},{"duration":0.12295075000000111,"midi":64,"time":167.93279418229167,"velocity":0.3937007874015748},{"duration":0.49180300000000443,"midi":69,"time":168.17869568229167,"velocity":0.3937007874015748},{"duration":0.24590150000000222,"midi":66,"time":168.67049868229168,"velocity":0.3937007874015748},{"duration":0.12295075000000111,"midi":64,"time":168.91640018229168,"velocity":0.3937007874015748},{"duration":0.12295075000000111,"midi":61,"time":169.39667654947917,"velocity":0.3937007874015748},{"duration":0.12295075000000111,"midi":57,"time":169.39667654947917,"velocity":0.3937007874015748},{"duration":0.12295075000000111,"midi":56,"time":170.38028254947918,"velocity":0.3937007874015748},{"duration":0.12295075000000111,"midi":61,"time":170.386686234375,"velocity":0.3937007874015748},{"duration":0.49180300000000443,"midi":69,"time":171.12951368229167,"velocity":0.3937007874015748},{"duration":0.24590150000000222,"midi":66,"time":171.616193734375,"velocity":0.3937007874015748},{"duration":0.12295075000000111,"midi":64,"time":171.87234113020833,"velocity":0.3937007874015748},{"duration":0.49180300000000443,"midi":69,"time":172.11311968229168,"velocity":0.3937007874015748},{"duration":0.24590150000000222,"midi":66,"time":172.59339604947917,"velocity":0.3937007874015748},{"duration":0.12295075000000111,"midi":64,"time":172.85082418229166,"velocity":0.3937007874015748},{"duration":0.12295075000000111,"midi":57,"time":173.3477501302083,"velocity":0.3937007874015748},{"duration":0.12295075000000111,"midi":61,"time":173.352873078125,"velocity":0.3937007874015748},{"duration":0.12295075000000111,"midi":61,"time":174.305741390625,"velocity":0.3937007874015748},{"duration":0.12295075000000111,"midi":56,"time":174.305741390625,"velocity":0.3937007874015748},{"duration":0.49180300000000443,"midi":69,"time":175.06393768229168,"velocity":0.3937007874015748},{"duration":0.2459014999999738,"midi":66,"time":175.55574068229168,"velocity":0.3937007874015748},{"duration":0.12295075000000111,"midi":64,"time":175.811888078125,"velocity":0.3937007874015748},{"duration":0.49180300000000443,"midi":69,"time":176.0526666302083,"velocity":0.3937007874015748},{"duration":0.24590150000000222,"midi":66,"time":176.53934668229167,"velocity":0.3937007874015748},{"duration":0.12295075000000111,"midi":64,"time":176.795494078125,"velocity":0.3937007874015748},{"duration":0.12295075000000111,"midi":57,"time":177.03114968229167,"velocity":0.3937007874015748},{"duration":0.12295075000000111,"midi":71,"time":177.03114968229167,"velocity":0.3937007874015748},{"duration":0.12295075000000111,"midi":71,"time":177.26168233854168,"velocity":0.3937007874015748},{"duration":0.4905222630208641,"midi":57,"time":177.26680528645832,"velocity":0.3937007874015748},{"duration":0.24590150000000222,"midi":71,"time":177.43073961979167,"velocity":0.3937007874015748},{"duration":0.12295075000000111,"midi":71,"time":177.77269639322918,"velocity":0.3937007874015748},{"duration":0.12295075000000111,"midi":57,"time":177.7829422890625,"velocity":0.3937007874015748},{"duration":0.3688522499999749,"midi":57,"time":178.0134749453125,"velocity":0.3937007874015748},{"duration":0.3688522499999749,"midi":71,"time":178.01859789322918,"velocity":0.3937007874015748},{"duration":0.12295075000000111,"midi":57,"time":178.5001549973958,"velocity":0.3937007874015748},{"duration":0.12295075000000111,"midi":71,"time":178.5001549973958,"velocity":0.3937007874015748},{"duration":0.3688522500000033,"midi":57,"time":178.7396528125,"velocity":0.3937007874015748},{"duration":0.3688522500000033,"midi":71,"time":178.7396528125,"velocity":0.3937007874015748},{"duration":0.12295075000000111,"midi":71,"time":179.2314558125,"velocity":0.3937007874015748},{"duration":0.12295075000000111,"midi":57,"time":179.2429824453125,"velocity":0.3937007874015748},{"duration":0.3688522500000033,"midi":71,"time":179.4773573125,"velocity":0.3937007874015748},{"duration":0.3688522500000033,"midi":57,"time":179.4773573125,"velocity":0.3937007874015748},{"duration":0.12295075000000111,"midi":71,"time":179.97556399739582,"velocity":0.3937007874015748},{"duration":0.12295075000000111,"midi":57,"time":179.97556399739582,"velocity":0.3937007874015748},{"duration":0.12295075000000111,"midi":57,"time":180.2265884453125,"velocity":0.3937007874015748},{"duration":0.12295075000000111,"midi":71,"time":180.2265884453125,"velocity":0.3937007874015748},{"duration":0.12295075000000111,"midi":71,"time":180.4724899453125,"velocity":0.3937007874015748},{"duration":0.12295075000000111,"midi":57,"time":180.47761289322918,"velocity":0.3937007874015748},{"duration":0.12295074999997269,"midi":57,"time":181.2101944453125,"velocity":0.3937007874015748},{"duration":0.12295074999997269,"midi":61,"time":181.2101944453125,"velocity":0.3937007874015748},{"duration":0.12295075000000111,"midi":61,"time":182.1938004453125,"velocity":0.3937007874015748},{"duration":0.12295075000000111,"midi":56,"time":182.1938004453125,"velocity":0.3937007874015748},{"duration":0.49180300000000443,"midi":69,"time":182.9315049453125,"velocity":0.3937007874015748},{"duration":0.24590150000000222,"midi":66,"time":183.41178131249998,"velocity":0.3937007874015748},{"duration":0.12295075000000111,"midi":64,"time":183.6692094453125,"velocity":0.3937007874015748},{"duration":0.49180300000000443,"midi":69,"time":183.9151109453125,"velocity":0.3937007874015748},{"duration":0.2459014999999738,"midi":66,"time":184.4069139453125,"velocity":0.3937007874015748},{"duration":0.12295075000000111,"midi":64,"time":184.65281544531248,"velocity":0.3937007874015748},{"duration":0.12295075000000111,"midi":57,"time":185.1330918125,"velocity":0.3937007874015748},{"duration":0.12295075000000111,"midi":61,"time":185.1330918125,"velocity":0.3937007874015748},{"duration":0.12295075000000111,"midi":56,"time":186.1166978125,"velocity":0.3937007874015748},{"duration":0.12295075000000111,"midi":61,"time":186.12310149739582,"velocity":0.3937007874015748},{"duration":0.49180300000000443,"midi":69,"time":186.8659289453125,"velocity":0.3937007874015748},{"duration":0.2459014999999738,"midi":66,"time":187.35260899739583,"velocity":0.3937007874015748},{"duration":0.12295074999997269,"midi":64,"time":187.60875639322919,"velocity":0.3937007874015748},{"duration":0.49180300000000443,"midi":69,"time":187.84953494531248,"velocity":0.3937007874015748},{"duration":0.24590150000000222,"midi":66,"time":188.3298113125,"velocity":0.3937007874015748},{"duration":0.12295075000000111,"midi":64,"time":188.5872394453125,"velocity":0.3937007874015748},{"duration":0.12295075000000111,"midi":57,"time":189.08416539322917,"velocity":0.3937007874015748},{"duration":0.12295075000000111,"midi":61,"time":189.08928834114582,"velocity":0.3937007874015748},{"duration":0.12295075000000111,"midi":56,"time":190.04215665364583,"velocity":0.3937007874015748},{"duration":0.12295075000000111,"midi":61,"time":190.04215665364583,"velocity":0.3937007874015748},{"duration":0.49180300000000443,"midi":69,"time":190.80035294531248,"velocity":0.3937007874015748},{"duration":0.24590150000000222,"midi":66,"time":191.2921559453125,"velocity":0.3937007874015748},{"duration":0.12295075000000111,"midi":64,"time":191.5483033411458,"velocity":0.3937007874015748},{"duration":0.49180300000000443,"midi":69,"time":191.78908189322917,"velocity":0.3937007874015748},{"duration":0.24590150000000222,"midi":66,"time":192.2757619453125,"velocity":0.3937007874015748},{"duration":0.12295075000000111,"midi":64,"time":192.53190934114582,"velocity":0.3937007874015748},{"duration":0.12295074999997269,"midi":61,"time":196.9478904453125,"velocity":0.3937007874015748},{"duration":0.12295074999997269,"midi":57,"time":196.9478904453125,"velocity":0.3937007874015748},{"duration":0.12295075000000111,"midi":56,"time":197.9314964453125,"velocity":0.3937007874015748},{"duration":0.12295075000000111,"midi":61,"time":197.9314964453125,"velocity":0.3937007874015748},{"duration":0.49180300000000443,"midi":69,"time":198.6692009453125,"velocity":0.3937007874015748},{"duration":0.24590150000000222,"midi":66,"time":199.14947731249998,"velocity":0.3937007874015748},{"duration":0.12295075000000111,"midi":64,"time":199.4069054453125,"velocity":0.3937007874015748},{"duration":0.49180300000000443,"midi":69,"time":199.6528069453125,"velocity":0.3937007874015748},{"duration":0.2459014999999738,"midi":66,"time":200.1446099453125,"velocity":0.3937007874015748},{"duration":0.12295075000000111,"midi":64,"time":200.39051144531248,"velocity":0.3937007874015748},{"duration":0.12295075000000111,"midi":61,"time":200.8707878125,"velocity":0.3937007874015748},{"duration":0.12295075000000111,"midi":57,"time":200.8707878125,"velocity":0.3937007874015748},{"duration":0.12295075000000111,"midi":56,"time":201.8543938125,"velocity":0.3937007874015748},{"duration":0.12295075000000111,"midi":61,"time":201.86079749739582,"velocity":0.3937007874015748},{"duration":0.49180300000000443,"midi":69,"time":202.6036249453125,"velocity":0.3937007874015748},{"duration":0.2459014999999738,"midi":66,"time":203.09030499739583,"velocity":0.3937007874015748},{"duration":0.12295074999997269,"midi":64,"time":203.34645239322919,"velocity":0.3937007874015748},{"duration":0.49180300000000443,"midi":69,"time":203.58723094531248,"velocity":0.3937007874015748},{"duration":0.24590150000000222,"midi":66,"time":204.0675073125,"velocity":0.3937007874015748},{"duration":0.12295075000000111,"midi":64,"time":204.3249354453125,"velocity":0.3937007874015748},{"duration":0.12295075000000111,"midi":57,"time":204.82186139322917,"velocity":0.3937007874015748},{"duration":0.12295075000000111,"midi":61,"time":204.82698434114582,"velocity":0.3937007874015748},{"duration":0.12295075000000111,"midi":56,"time":205.77985265364583,"velocity":0.3937007874015748},{"duration":0.12295075000000111,"midi":61,"time":205.77985265364583,"velocity":0.3937007874015748},{"duration":0.49180300000000443,"midi":69,"time":206.53804894531248,"velocity":0.3937007874015748},{"duration":0.24590150000000222,"midi":66,"time":207.0298519453125,"velocity":0.3937007874015748},{"duration":0.12295075000000111,"midi":64,"time":207.2859993411458,"velocity":0.3937007874015748},{"duration":0.49180300000000443,"midi":69,"time":207.52677789322917,"velocity":0.3937007874015748},{"duration":0.24590150000000222,"midi":66,"time":208.0134579453125,"velocity":0.3937007874015748},{"duration":0.12295075000000111,"midi":64,"time":208.26960534114582,"velocity":0.3937007874015748},{"duration":0.12295075000000111,"midi":71,"time":208.5052609453125,"velocity":0.3937007874015748},{"duration":0.12295075000000111,"midi":57,"time":208.5052609453125,"velocity":0.3937007874015748},{"duration":0.12295075000000111,"midi":71,"time":208.7357936015625,"velocity":0.3937007874015748},{"duration":0.49052226302080726,"midi":57,"time":208.74091654947918,"velocity":0.3937007874015748},{"duration":0.24590150000000222,"midi":71,"time":208.9048508828125,"velocity":0.3937007874015748},{"duration":0.12295075000000111,"midi":71,"time":209.24680765624998,"velocity":0.3937007874015748},{"duration":0.12295075000000111,"midi":57,"time":209.2570535520833,"velocity":0.3937007874015748},{"duration":0.3688522500000033,"midi":57,"time":209.4875862083333,"velocity":0.3937007874015748},{"duration":0.3688522500000033,"midi":71,"time":209.49270915625,"velocity":0.3937007874015748},{"duration":0.12295075000000111,"midi":71,"time":209.97426626041667,"velocity":0.3937007874015748},{"duration":0.12295075000000111,"midi":57,"time":209.97426626041667,"velocity":0.3937007874015748},{"duration":0.3688522500000033,"midi":71,"time":210.21376407552083,"velocity":0.3937007874015748},{"duration":0.3688522500000033,"midi":57,"time":210.21376407552083,"velocity":0.3937007874015748},{"duration":0.12295075000000111,"midi":71,"time":210.70556707552083,"velocity":0.3937007874015748},{"duration":0.12295075000000111,"midi":57,"time":210.71709370833332,"velocity":0.3937007874015748},{"duration":0.3688522500000033,"midi":71,"time":210.9514685755208,"velocity":0.3937007874015748},{"duration":0.3688522500000033,"midi":57,"time":210.9514685755208,"velocity":0.3937007874015748},{"duration":0.12295075000000111,"midi":57,"time":211.44967526041668,"velocity":0.3937007874015748},{"duration":0.12295075000000111,"midi":71,"time":211.44967526041668,"velocity":0.3937007874015748},{"duration":0.12295075000000111,"midi":71,"time":211.70069970833333,"velocity":0.3937007874015748},{"duration":0.12295075000000111,"midi":57,"time":211.70069970833333,"velocity":0.3937007874015748},{"duration":0.12295074999997269,"midi":71,"time":211.94660120833333,"velocity":0.3937007874015748},{"duration":0.12295074999997269,"midi":57,"time":211.95172415625,"velocity":0.3937007874015748},{"duration":0.12295075000000111,"midi":57,"time":212.6843057083333,"velocity":0.3937007874015748},{"duration":0.12295075000000111,"midi":61,"time":212.6843057083333,"velocity":0.3937007874015748},{"duration":0.12295075000000111,"midi":56,"time":213.66791170833332,"velocity":0.3937007874015748},{"duration":0.12295075000000111,"midi":61,"time":213.66791170833332,"velocity":0.3937007874015748},{"duration":0.49180300000000443,"midi":69,"time":214.40561620833333,"velocity":0.3937007874015748},{"duration":0.24590150000000222,"midi":66,"time":214.8858925755208,"velocity":0.3937007874015748},{"duration":0.12295075000000111,"midi":64,"time":215.1433207083333,"velocity":0.3937007874015748},{"duration":0.49180300000000443,"midi":69,"time":215.3892222083333,"velocity":0.3937007874015748},{"duration":0.24590150000000222,"midi":66,"time":215.8810252083333,"velocity":0.3937007874015748},{"duration":0.12295075000000111,"midi":64,"time":216.12692670833331,"velocity":0.3937007874015748},{"duration":0.12295075000000111,"midi":61,"time":216.60720307552083,"velocity":0.3937007874015748},{"duration":0.12295075000000111,"midi":57,"time":216.60720307552083,"velocity":0.3937007874015748},{"duration":0.12295075000000111,"midi":56,"time":217.5908090755208,"velocity":0.3937007874015748},{"duration":0.12295075000000111,"midi":61,"time":217.59721276041668,"velocity":0.3937007874015748},{"duration":0.49180300000000443,"midi":69,"time":218.3400402083333,"velocity":0.3937007874015748},{"duration":0.24590150000000222,"midi":66,"time":218.82672026041666,"velocity":0.3937007874015748},{"duration":0.12295075000000111,"midi":64,"time":219.08286765625,"velocity":0.3937007874015748},{"duration":0.49180300000000443,"midi":69,"time":219.32364620833332,"velocity":0.3937007874015748},{"duration":0.24590150000000222,"midi":66,"time":219.80392257552083,"velocity":0.3937007874015748},{"duration":0.12295075000000111,"midi":64,"time":220.06135070833332,"velocity":0.3937007874015748},{"duration":0.12295075000000111,"midi":57,"time":220.55827665625,"velocity":0.3937007874015748},{"duration":0.12295075000000111,"midi":61,"time":220.56339960416668,"velocity":0.3937007874015748},{"duration":0.12295075000000111,"midi":56,"time":221.51626791666666,"velocity":0.3937007874015748},{"duration":0.12295075000000111,"midi":61,"time":221.51626791666666,"velocity":0.3937007874015748},{"duration":0.49180300000000443,"midi":69,"time":222.2744642083333,"velocity":0.3937007874015748},{"duration":0.24590150000000222,"midi":66,"time":222.76626720833332,"velocity":0.3937007874015748},{"duration":0.12295075000000111,"midi":64,"time":223.02241460416667,"velocity":0.3937007874015748},{"duration":0.49180300000000443,"midi":69,"time":223.26319315625,"velocity":0.3937007874015748},{"duration":0.24590150000000222,"midi":66,"time":223.74987320833333,"velocity":0.3937007874015748},{"duration":0.12295075000000111,"midi":64,"time":224.00602060416668,"velocity":0.3937007874015748},{"duration":0.12295075000000111,"midi":71,"time":224.24167620833333,"velocity":0.3937007874015748},{"duration":0.12295075000000111,"midi":57,"time":224.24167620833333,"velocity":0.3937007874015748},{"duration":0.12295075000000111,"midi":71,"time":224.4722088645833,"velocity":0.3937007874015748},{"duration":0.4905222630208357,"midi":57,"time":224.47733181249998,"velocity":0.3937007874015748},{"duration":0.24590150000000222,"midi":71,"time":224.64126614583333,"velocity":0.3937007874015748},{"duration":0.12295075000000111,"midi":71,"time":224.98322291927082,"velocity":0.3937007874015748},{"duration":0.12295075000000111,"midi":57,"time":224.99346881510417,"velocity":0.3937007874015748},{"duration":0.3688522500000033,"midi":57,"time":225.22400147135417,"velocity":0.3937007874015748},{"duration":0.3688522500000033,"midi":71,"time":225.22912441927082,"velocity":0.3937007874015748},{"duration":0.12295075000000111,"midi":57,"time":225.7106815234375,"velocity":0.3937007874015748},{"duration":0.12295075000000111,"midi":71,"time":225.7106815234375,"velocity":0.3937007874015748},{"duration":0.3688522500000033,"midi":57,"time":225.95017933854166,"velocity":0.3937007874015748},{"duration":0.3688522500000033,"midi":71,"time":225.95017933854166,"velocity":0.3937007874015748},{"duration":0.12295075000000111,"midi":71,"time":226.44198233854166,"velocity":0.3937007874015748},{"duration":0.12295075000000111,"midi":57,"time":226.45350897135418,"velocity":0.3937007874015748},{"duration":0.3688522500000033,"midi":71,"time":226.68788383854167,"velocity":0.3937007874015748},{"duration":0.3688522500000033,"midi":57,"time":226.68788383854167,"velocity":0.3937007874015748},{"duration":0.12295075000000111,"midi":57,"time":227.18609052343749,"velocity":0.3937007874015748},{"duration":0.12295075000000111,"midi":71,"time":227.18609052343749,"velocity":0.3937007874015748},{"duration":0.12295075000000111,"midi":71,"time":227.43711497135416,"velocity":0.3937007874015748},{"duration":0.12295075000000111,"midi":57,"time":227.43711497135416,"velocity":0.3937007874015748},{"duration":0.12295075000000111,"midi":71,"time":227.68301647135416,"velocity":0.3937007874015748},{"duration":0.12295075000000111,"midi":57,"time":227.6881394192708,"velocity":0.3937007874015748},{"duration":0.12295075000000111,"midi":60,"time":239.48628847135416,"velocity":0.3937007874015748},{"duration":0.12295075000000111,"midi":60,"time":239.60923922135416,"velocity":0.3937007874015748},{"duration":0.12295075000000111,"midi":59,"time":239.73218997135416,"velocity":0.3937007874015748},{"duration":0.12295075000000111,"midi":57,"time":239.85514072135416,"velocity":0.3937007874015748},{"duration":0.12295075000000111,"midi":59,"time":239.97809147135416,"velocity":0.3937007874015748},{"duration":1.229507500000011,"midi":57,"time":240.10104222135416,"velocity":0.3937007874015748},{"duration":0.12295075000000111,"midi":60,"time":241.45350047135418,"velocity":0.3937007874015748},{"duration":0.12295075000000111,"midi":60,"time":241.57645122135418,"velocity":0.3937007874015748},{"duration":0.12295075000000111,"midi":59,"time":241.69940197135418,"velocity":0.3937007874015748},{"duration":0.12295075000000111,"midi":57,"time":241.82747566927083,"velocity":0.3937007874015748},{"duration":0.12295075000000111,"midi":59,"time":241.94530347135418,"velocity":0.3937007874015748},{"duration":1.4754089999999849,"midi":57,"time":242.06825422135418,"velocity":0.3937007874015748},{"duration":2.950817999999998,"midi":57,"time":243.6768598671875,"velocity":0.3937007874015748},{"duration":0.24590150000000222,"midi":57,"time":246.8735793671875,"velocity":0.3937007874015748}]},{"instrument":{"family":"piano","number":0,"name":"acoustic grand piano"},"notes":[{"duration":0.12295075000000022,"midi":61,"time":3.934424,"velocity":0.3937007874015748},{"duration":0.12295075000000022,"midi":50,"time":3.934424,"velocity":0.3937007874015748},{"duration":0.12295075000000022,"midi":38,"time":3.934424,"velocity":0.3937007874015748},{"duration":0.12295075000000022,"midi":57,"time":3.934424,"velocity":0.3937007874015748},{"duration":0.12295074999999978,"midi":66,"time":3.9395469479166665,"velocity":0.3937007874015748},{"duration":0.061475374999999666,"midi":50,"time":4.170079604166666,"velocity":0.3937007874015748},{"duration":0.12295075000000022,"midi":61,"time":4.175202552083333,"velocity":0.3937007874015748},{"duration":0.12295075000000022,"midi":66,"time":4.175202552083333,"velocity":0.3937007874015748},{"duration":0.12295074999999933,"midi":57,"time":4.1803255,"velocity":0.3937007874015748},{"duration":0.12295075000000022,"midi":38,"time":4.1854484479166665,"velocity":0.3937007874015748},{"duration":0.12295074999999933,"midi":61,"time":4.421104052083334,"velocity":0.3937007874015748},{"duration":0.12295074999999933,"midi":57,"time":4.421104052083334,"velocity":0.3937007874015748},{"duration":0.12295075000000022,"midi":50,"time":4.426227,"velocity":0.3937007874015748},{"duration":0.061475374999999666,"midi":66,"time":4.426227,"velocity":0.3937007874015748},{"duration":0.12295075000000022,"midi":38,"time":4.426227,"velocity":0.3937007874015748},{"duration":0.12295075000000022,"midi":49,"time":4.667005552083333,"velocity":0.3937007874015748},{"duration":0.12295075000000022,"midi":64,"time":4.667005552083333,"velocity":0.3937007874015748},{"duration":0.12295075000000022,"midi":56,"time":4.667005552083333,"velocity":0.3937007874015748},{"duration":0.12295075000000022,"midi":59,"time":4.667005552083333,"velocity":0.3937007874015748},{"duration":0.12295075000000022,"midi":37,"time":4.6772514479166665,"velocity":0.3937007874015748},{"duration":0.12295074999999933,"midi":49,"time":4.912907052083334,"velocity":0.3937007874015748},{"duration":0.12295075000000022,"midi":37,"time":4.923152947916666,"velocity":0.3937007874015748},{"duration":0.1242314869791672,"midi":47,"time":5.153685604166666,"velocity":0.3937007874015748},{"duration":0.1242314869791663,"midi":35,"time":5.158808552083333,"velocity":0.3937007874015748},{"duration":0.1242314869791663,"midi":57,"time":5.1639315,"velocity":0.3937007874015748},{"duration":0.1242314869791672,"midi":54,"time":5.1690544479166665,"velocity":0.3937007874015748},{"duration":0.1242314869791663,"midi":62,"time":5.1741773958333335,"velocity":0.3937007874015748},{"duration":0.12295075000000022,"midi":47,"time":5.411113736979166,"velocity":0.3937007874015748},{"duration":0.12295074999999933,"midi":35,"time":5.416236684895834,"velocity":0.3937007874015748},{"duration":0.7377044999999995,"midi":64,"time":5.6518922890625,"velocity":0.3937007874015748},{"duration":0.061475374999999666,"midi":47,"time":5.6518922890625,"velocity":0.3937007874015748},{"duration":0.6147537499999993,"midi":56,"time":5.6518922890625,"velocity":0.3937007874015748},{"duration":0.12295075000000022,"midi":35,"time":5.657015236979166,"velocity":0.3937007874015748},{"duration":0.6147537500000002,"midi":59,"time":5.657015236979166,"velocity":0.3937007874015748},{"duration":0.12295075000000022,"midi":25,"time":5.8977937890625,"velocity":0.3937007874015748},{"duration":0.12295075000000022,"midi":37,"time":5.902916736979166,"velocity":0.3937007874015748},{"duration":0.061475374999999666,"midi":38,"time":6.148818236979166,"velocity":0.3937007874015748},{"duration":0.12295075000000022,"midi":28,"time":6.148818236979166,"velocity":0.3937007874015748},{"duration":0.061475374999999666,"midi":40,"time":6.153941184895833,"velocity":0.3937007874015748},{"duration":0.12295075000000022,"midi":29,"time":6.384473841145834,"velocity":0.3937007874015748},{"duration":0.12295075000000022,"midi":41,"time":6.3895967890625,"velocity":0.3937007874015748},{"duration":0.12295075000000022,"midi":30,"time":6.630375341145833,"velocity":0.3937007874015748},{"duration":0.12295075000000022,"midi":42,"time":6.630375341145833,"velocity":0.3937007874015748},{"duration":0.491803,"midi":61,"time":6.6354982890625,"velocity":0.3937007874015748},{"duration":0.36885224999999977,"midi":54,"time":6.6354982890625,"velocity":0.3937007874015748},{"duration":0.491803,"midi":57,"time":6.6354982890625,"velocity":0.3937007874015748},{"duration":0.12295075000000022,"midi":30,"time":6.8813997890625,"velocity":0.3937007874015748},{"duration":0.061475374999999666,"midi":42,"time":6.8967686328125,"velocity":0.3937007874015748},{"duration":0.12295074999999933,"midi":30,"time":7.1273012890625,"velocity":0.3937007874015748},{"duration":0.12295075000000022,"midi":42,"time":7.137547184895833,"velocity":0.3937007874015748},{"duration":0.12295075000000022,"midi":42,"time":7.3732027890625,"velocity":0.3937007874015748},{"duration":0.24590150000000044,"midi":56,"time":7.378325736979166,"velocity":0.3937007874015748},{"duration":0.24590149999999955,"midi":64,"time":7.383448684895834,"velocity":0.3937007874015748},{"duration":0.12295074999999933,"midi":30,"time":7.383448684895834,"velocity":0.3937007874015748},{"duration":0.12295075000000022,"midi":50,"time":7.624227236979166,"velocity":0.3937007874015748},{"duration":0.12295075000000022,"midi":38,"time":7.624227236979166,"velocity":0.3937007874015748},{"duration":0.12295074999999933,"midi":66,"time":7.875251684895833,"velocity":0.3937007874015748},{"duration":0.12295075000000022,"midi":50,"time":7.8803746328125,"velocity":0.3937007874015748},{"duration":0.12295075000000022,"midi":38,"time":7.8803746328125,"velocity":0.3937007874015748},{"duration":0.12295075000000022,"midi":61,"time":7.8803746328125,"velocity":0.3937007874015748},{"duration":0.12295075000000022,"midi":57,"time":7.8803746328125,"velocity":0.3937007874015748},{"duration":0.12295075000000111,"midi":50,"time":8.1109072890625,"velocity":0.3937007874015748},{"duration":0.12295074999999933,"midi":66,"time":8.116030236979167,"velocity":0.3937007874015748},{"duration":0.12295074999999933,"midi":38,"time":8.116030236979167,"velocity":0.3937007874015748},{"duration":0.12295074999999933,"midi":57,"time":8.116030236979167,"velocity":0.3937007874015748},{"duration":0.12295074999999933,"midi":61,"time":8.116030236979167,"velocity":0.3937007874015748},{"duration":0.12295074999999933,"midi":50,"time":8.3568087890625,"velocity":0.3937007874015748},{"duration":0.12295074999999933,"midi":66,"time":8.361931736979168,"velocity":0.3937007874015748},{"duration":0.12295074999999933,"midi":38,"time":8.361931736979168,"velocity":0.3937007874015748},{"duration":0.12295075000000111,"midi":61,"time":8.367054684895832,"velocity":0.3937007874015748},{"duration":0.12295074999999933,"midi":57,"time":8.3721776328125,"velocity":0.3937007874015748},{"duration":0.12295074999999933,"midi":49,"time":8.6027102890625,"velocity":0.3937007874015748},{"duration":0.12295075000000111,"midi":59,"time":8.607833236979166,"velocity":0.3937007874015748},{"duration":0.12295075000000111,"midi":56,"time":8.607833236979166,"velocity":0.3937007874015748},{"duration":0.2471822369791674,"midi":64,"time":8.612956184895832,"velocity":0.3937007874015748},{"duration":0.12295074999999933,"midi":37,"time":8.612956184895832,"velocity":0.3937007874015748},{"duration":0.12423148697916808,"midi":49,"time":8.839646630208332,"velocity":0.3937007874015748},{"duration":0.12423148697916453,"midi":37,"time":8.849892526041668,"velocity":0.3937007874015748},{"duration":0.12423148697916808,"midi":47,"time":9.0868288671875,"velocity":0.3937007874015748},{"duration":0.12423148697916453,"midi":35,"time":9.091951815104167,"velocity":0.3937007874015748},{"duration":0.1242314869791663,"midi":54,"time":9.097074763020833,"velocity":0.3937007874015748},{"duration":0.1242314869791663,"midi":62,"time":9.097074763020833,"velocity":0.3937007874015748},{"duration":0.12423148697916453,"midi":57,"time":9.107320658854167,"velocity":0.3937007874015748},{"duration":0.12295074999999933,"midi":47,"time":9.339134052083333,"velocity":0.3937007874015748},{"duration":0.12295074999999933,"midi":35,"time":9.339134052083333,"velocity":0.3937007874015748},{"duration":0.4930837369791661,"midi":64,"time":9.585035552083333,"velocity":0.3937007874015748},{"duration":0.4930837369791661,"midi":56,"time":9.585035552083333,"velocity":0.3937007874015748},{"duration":0.06147537499999878,"midi":47,"time":9.585035552083333,"velocity":0.3937007874015748},{"duration":0.12295074999999933,"midi":35,"time":9.585035552083333,"velocity":0.3937007874015748},{"duration":0.49308373697916785,"midi":59,"time":9.5901585,"velocity":0.3937007874015748},{"duration":0.12295075000000111,"midi":37,"time":9.830937052083332,"velocity":0.3937007874015748},{"duration":0.12295074999999933,"midi":25,"time":9.83606,"velocity":0.3937007874015748},{"duration":0.1242314869791663,"midi":40,"time":10.06659265625,"velocity":0.3937007874015748},{"duration":0.24718223697916564,"midi":28,"time":10.083242236979167,"velocity":0.3937007874015748},{"duration":0.12295075000000111,"midi":29,"time":10.325301526041667,"velocity":0.3937007874015748},{"duration":0.12295074999999933,"midi":59,"time":10.330424473958333,"velocity":0.3937007874015748},{"duration":0.12295074999999933,"midi":64,"time":10.330424473958333,"velocity":0.3937007874015748},{"duration":0.12295074999999933,"midi":56,"time":10.330424473958333,"velocity":0.3937007874015748},{"duration":0.12295074999999933,"midi":41,"time":10.340670369791667,"velocity":0.3937007874015748},{"duration":0.12295074999999933,"midi":30,"time":10.586571869791667,"velocity":0.3937007874015748},{"duration":0.12295074999999933,"midi":42,"time":10.586571869791667,"velocity":0.3937007874015748},{"duration":0.24590150000000044,"midi":66,"time":10.827350421875,"velocity":0.3937007874015748},{"duration":0.12295074999999933,"midi":61,"time":10.827350421875,"velocity":0.3937007874015748},{"duration":0.12295074999999933,"midi":30,"time":10.832473369791668,"velocity":0.3937007874015748},{"duration":0.12295074999999933,"midi":57,"time":10.832473369791668,"velocity":0.3937007874015748},{"duration":0.061475375000000554,"midi":42,"time":10.837596317708332,"velocity":0.3937007874015748},{"duration":0.12295075000000111,"midi":30,"time":11.078374869791666,"velocity":0.3937007874015748},{"duration":0.12295075000000111,"midi":42,"time":11.078374869791666,"velocity":0.3937007874015748},{"duration":0.12295075000000111,"midi":73,"time":11.191079723958332,"velocity":0.3937007874015748},{"duration":0.12295075000000111,"midi":69,"time":11.191079723958332,"velocity":0.3937007874015748},{"duration":0.12295075000000111,"midi":66,"time":11.191079723958332,"velocity":0.3937007874015748},{"duration":0.12295075000000111,"midi":42,"time":11.319153421874999,"velocity":0.3937007874015748},{"duration":0.12295074999999933,"midi":30,"time":11.329399317708333,"velocity":0.3937007874015748},{"duration":0.36885224999999977,"midi":57,"time":11.556089763020832,"velocity":0.3937007874015748},{"duration":0.36885224999999977,"midi":66,"time":11.556089763020832,"velocity":0.3937007874015748},{"duration":0.12295074999999933,"midi":50,"time":11.556089763020832,"velocity":0.3937007874015748},{"duration":0.36885224999999977,"midi":61,"time":11.556089763020832,"velocity":0.3937007874015748},{"duration":0.12295074999999933,"midi":38,"time":11.5612127109375,"velocity":0.3937007874015748},{"duration":0.12295074999999933,"midi":38,"time":11.812237158854167,"velocity":0.3937007874015748},{"duration":0.12295074999999933,"midi":50,"time":11.817360106770833,"velocity":0.3937007874015748},{"duration":0.12295074999999933,"midi":38,"time":12.047892763020833,"velocity":0.3937007874015748},{"duration":0.12295075000000111,"midi":61,"time":12.0530157109375,"velocity":0.3937007874015748},{"duration":0.12295075000000111,"midi":57,"time":12.0530157109375,"velocity":0.3937007874015748},{"duration":0.12295075000000111,"midi":50,"time":12.0530157109375,"velocity":0.3937007874015748},{"duration":0.12295074999999933,"midi":66,"time":12.058138658854167,"velocity":0.3937007874015748},{"duration":0.12295075000000111,"midi":50,"time":12.293794263020832,"velocity":0.3937007874015748},{"duration":0.12295074999999933,"midi":66,"time":12.2989172109375,"velocity":0.3937007874015748},{"duration":0.12295074999999933,"midi":57,"time":12.2989172109375,"velocity":0.3937007874015748},{"duration":0.12295074999999933,"midi":61,"time":12.304040158854168,"velocity":0.3937007874015748},{"duration":0.12295074999999933,"midi":38,"time":12.304040158854168,"velocity":0.3937007874015748},{"duration":0.12295074999999933,"midi":59,"time":12.5448187109375,"velocity":0.3937007874015748},{"duration":0.24590149999999866,"midi":56,"time":12.5448187109375,"velocity":0.3937007874015748},{"duration":0.24590150000000044,"midi":64,"time":12.549941658854166,"velocity":0.3937007874015748},{"duration":0.12295075000000111,"midi":49,"time":12.549941658854166,"velocity":0.3937007874015748},{"duration":0.12295075000000111,"midi":37,"time":12.549941658854166,"velocity":0.3937007874015748},{"duration":0.12295075000000111,"midi":49,"time":12.780474315104167,"velocity":0.3937007874015748},{"duration":0.12295074999999933,"midi":37,"time":12.785597263020833,"velocity":0.3937007874015748},{"duration":0.24590149999999866,"midi":54,"time":13.031498763020833,"velocity":0.3937007874015748},{"duration":0.12295074999999933,"midi":35,"time":13.031498763020833,"velocity":0.3937007874015748},{"duration":0.12295074999999933,"midi":47,"time":13.031498763020833,"velocity":0.3937007874015748},{"duration":0.12295075000000111,"midi":62,"time":13.0366217109375,"velocity":0.3937007874015748},{"duration":0.12295075000000111,"midi":57,"time":13.0366217109375,"velocity":0.3937007874015748},{"duration":0.061475375000000554,"midi":47,"time":13.2825232109375,"velocity":0.3937007874015748},{"duration":0.12295074999999933,"midi":35,"time":13.2825232109375,"velocity":0.3937007874015748},{"duration":0.24590150000000044,"midi":64,"time":13.5130558671875,"velocity":0.3937007874015748},{"duration":0.24590150000000044,"midi":61,"time":13.5130558671875,"velocity":0.3937007874015748},{"duration":0.12295075000000111,"midi":35,"time":13.5245825,"velocity":0.3937007874015748},{"duration":0.061475375000000554,"midi":47,"time":13.5245825,"velocity":0.3937007874015748},{"duration":0.12295075000000111,"midi":37,"time":13.765361052083332,"velocity":0.3937007874015748},{"duration":0.12295074999999933,"midi":25,"time":13.770484,"velocity":0.3937007874015748},{"duration":0.12295075000000111,"midi":40,"time":13.995893708333332,"velocity":0.3937007874015748},{"duration":0.12295074999999933,"midi":64,"time":14.0163855,"velocity":0.3937007874015748},{"duration":0.24590150000000044,"midi":68,"time":14.0163855,"velocity":0.3937007874015748},{"duration":0.12295075000000111,"midi":61,"time":14.021508447916666,"velocity":0.3937007874015748},{"duration":0.12295075000000111,"midi":28,"time":14.021508447916666,"velocity":0.3937007874015748},{"duration":0.12295074999999933,"midi":29,"time":14.257164052083333,"velocity":0.3937007874015748},{"duration":0.12295074999999933,"midi":41,"time":14.262287,"velocity":0.3937007874015748},{"duration":0.1242314869791663,"midi":30,"time":14.4966618671875,"velocity":0.3937007874015748},{"duration":0.1242314869791663,"midi":42,"time":14.503065552083333,"velocity":0.3937007874015748},{"duration":0.7389852369791647,"midi":66,"time":14.513311447916667,"velocity":0.3937007874015748},{"duration":0.7389852369791647,"midi":61,"time":14.513311447916667,"velocity":0.3937007874015748},{"duration":0.6160344869791672,"midi":57,"time":14.518434395833333,"velocity":0.3937007874015748},{"duration":0.12295074999999933,"midi":30,"time":14.73872115625,"velocity":0.3937007874015748},{"duration":0.12295074999999933,"midi":42,"time":14.743844104166667,"velocity":0.3937007874015748},{"duration":0.12295074999999933,"midi":42,"time":14.98462265625,"velocity":0.3937007874015748},{"duration":0.12295075000000111,"midi":30,"time":14.9961492890625,"velocity":0.3937007874015748},{"duration":0.06147537499999878,"midi":48,"time":15.247173736979168,"velocity":0.3937007874015748},{"duration":0.12295075000000111,"midi":48,"time":15.308649111979166,"velocity":0.3937007874015748},{"duration":0.12295074999999933,"midi":47,"time":15.4725834453125,"velocity":0.3937007874015748},{"duration":0.12295075000000111,"midi":45,"time":15.539181768229167,"velocity":0.3937007874015748},{"duration":0.12295075000000111,"midi":47,"time":15.728730841145833,"velocity":0.3937007874015748},{"duration":0.12295074999999933,"midi":69,"time":15.754345580729165,"velocity":0.3937007874015748},{"duration":0.12295074999999933,"midi":62,"time":15.759468528645835,"velocity":0.3937007874015748},{"duration":0.12295074999999933,"midi":64,"time":15.759468528645835,"velocity":0.3937007874015748},{"duration":0.368852249999998,"midi":59,"time":15.759468528645835,"velocity":0.3937007874015748},{"duration":0.36885224999999977,"midi":45,"time":15.785083268229165,"velocity":0.3937007874015748},{"duration":0.12295074999999756,"midi":69,"time":15.990001184895835,"velocity":0.3937007874015748},{"duration":0.12295075000000111,"midi":62,"time":16.000247080729164,"velocity":0.3937007874015748},{"duration":0.12295074999999756,"midi":64,"time":16.005370028645835,"velocity":0.3937007874015748},{"duration":0.12295075000000111,"midi":69,"time":16.235902684895834,"velocity":0.3937007874015748},{"duration":0.12295075000000111,"midi":59,"time":16.241025632812498,"velocity":0.3937007874015748},{"duration":0.12295074999999756,"midi":64,"time":16.246148580729166,"velocity":0.3937007874015748},{"duration":0.12295074999999756,"midi":62,"time":16.246148580729166,"velocity":0.3937007874015748},{"duration":0.12295075000000111,"midi":69,"time":16.476681236979164,"velocity":0.3937007874015748},{"duration":0.12295074999999756,"midi":59,"time":16.481804184895836,"velocity":0.3937007874015748},{"duration":0.12295075000000111,"midi":62,"time":16.4869271328125,"velocity":0.3937007874015748},{"duration":0.12295075000000111,"midi":64,"time":16.4869271328125,"velocity":0.3937007874015748},{"duration":0.12295075000000111,"midi":69,"time":16.7174597890625,"velocity":0.3937007874015748},{"duration":0.12295074999999756,"midi":64,"time":16.722582736979167,"velocity":0.3937007874015748},{"duration":0.12295075000000111,"midi":59,"time":16.727705684895835,"velocity":0.3937007874015748},{"duration":0.12295075000000111,"midi":62,"time":16.727705684895835,"velocity":0.3937007874015748},{"duration":0.12295075000000111,"midi":69,"time":16.973607184895833,"velocity":0.3937007874015748},{"duration":0.12295074999999756,"midi":64,"time":16.9787301328125,"velocity":0.3937007874015748},{"duration":0.12295074999999756,"midi":62,"time":16.9787301328125,"velocity":0.3937007874015748},{"duration":0.12295074999999756,"midi":59,"time":16.9787301328125,"velocity":0.3937007874015748},{"duration":0.24590149999999866,"midi":69,"time":17.219508684895835,"velocity":0.3937007874015748},{"duration":0.24590149999999866,"midi":59,"time":17.2246316328125,"velocity":0.3937007874015748},{"duration":0.12295075000000111,"midi":62,"time":17.2246316328125,"velocity":0.3937007874015748},{"duration":0.12295075000000111,"midi":64,"time":17.2246316328125,"velocity":0.3937007874015748},{"duration":0.12295075000000111,"midi":69,"time":17.465410184895834,"velocity":0.3937007874015748},{"duration":0.12295075000000111,"midi":62,"time":17.4705331328125,"velocity":0.3937007874015748},{"duration":0.12295075000000111,"midi":64,"time":17.4705331328125,"velocity":0.3937007874015748},{"duration":0.12295074999999756,"midi":59,"time":17.475656080729166,"velocity":0.3937007874015748},{"duration":0.12295075000000111,"midi":64,"time":17.726680528645833,"velocity":0.3937007874015748},{"duration":0.12295075000000111,"midi":62,"time":17.726680528645833,"velocity":0.3937007874015748},{"duration":0.12295075000000111,"midi":69,"time":17.726680528645833,"velocity":0.3937007874015748},{"duration":0.12295075000000111,"midi":59,"time":17.726680528645833,"velocity":0.3937007874015748},{"duration":0.12295074999999756,"midi":69,"time":17.953370973958336,"velocity":0.3937007874015748},{"duration":0.12295075000000111,"midi":64,"time":17.958493921875,"velocity":0.3937007874015748},{"duration":0.12295075000000111,"midi":62,"time":17.958493921875,"velocity":0.3937007874015748},{"duration":0.12295075000000111,"midi":59,"time":17.963616869791664,"velocity":0.3937007874015748},{"duration":0.12295075000000111,"midi":64,"time":18.204395421875,"velocity":0.3937007874015748},{"duration":0.12295075000000111,"midi":69,"time":18.204395421875,"velocity":0.3937007874015748},{"duration":0.12295074999999756,"midi":62,"time":18.209518369791667,"velocity":0.3937007874015748},{"duration":0.12295074999999756,"midi":59,"time":18.209518369791667,"velocity":0.3937007874015748},{"duration":0.12295075000000111,"midi":69,"time":18.445173973958333,"velocity":0.3937007874015748},{"duration":0.12295075000000111,"midi":62,"time":18.445173973958333,"velocity":0.3937007874015748},{"duration":0.12295074999999756,"midi":64,"time":18.450296921875,"velocity":0.3937007874015748},{"duration":0.12295074999999756,"midi":59,"time":18.450296921875,"velocity":0.3937007874015748},{"duration":0.12295075000000111,"midi":69,"time":18.696198421875,"velocity":0.3937007874015748},{"duration":0.12295074999999756,"midi":59,"time":18.706444317708335,"velocity":0.3937007874015748},{"duration":0.12295074999999756,"midi":62,"time":18.706444317708335,"velocity":0.3937007874015748},{"duration":0.12295074999999756,"midi":64,"time":18.706444317708335,"velocity":0.3937007874015748},{"duration":0.12295075000000111,"midi":59,"time":18.936976973958334,"velocity":0.3937007874015748},{"duration":0.12295075000000111,"midi":69,"time":18.936976973958334,"velocity":0.3937007874015748},{"duration":0.12295075000000111,"midi":62,"time":18.936976973958334,"velocity":0.3937007874015748},{"duration":0.12295075000000111,"midi":64,"time":18.942099921875,"velocity":0.3937007874015748},{"duration":0.12295074999999756,"midi":59,"time":19.188001421875,"velocity":0.3937007874015748},{"duration":0.12295074999999756,"midi":64,"time":19.188001421875,"velocity":0.3937007874015748},{"duration":0.12295074999999756,"midi":62,"time":19.188001421875,"velocity":0.3937007874015748},{"duration":0.12295074999999756,"midi":69,"time":19.188001421875,"velocity":0.3937007874015748},{"duration":0.12295075000000111,"midi":69,"time":19.418534078125,"velocity":0.3937007874015748},{"duration":0.12295075000000111,"midi":62,"time":19.4300607109375,"velocity":0.3937007874015748},{"duration":0.12295075000000111,"midi":64,"time":19.4300607109375,"velocity":0.3937007874015748},{"duration":0.12295075000000111,"midi":59,"time":19.4300607109375,"velocity":0.3937007874015748},{"duration":0.12295075000000111,"midi":66,"time":19.6759622109375,"velocity":0.3937007874015748},{"duration":0.12295075000000111,"midi":69,"time":19.6759622109375,"velocity":0.3937007874015748},{"duration":0.12295075000000111,"midi":62,"time":19.6759622109375,"velocity":0.3937007874015748},{"duration":0.12295075000000111,"midi":59,"time":19.686208106770835,"velocity":0.3937007874015748},{"duration":0.12295075000000111,"midi":69,"time":19.916740763020833,"velocity":0.3937007874015748},{"duration":0.12295074999999756,"midi":59,"time":19.9218637109375,"velocity":0.3937007874015748},{"duration":0.12295074999999756,"midi":62,"time":19.9218637109375,"velocity":0.3937007874015748},{"duration":0.12295074999999756,"midi":66,"time":19.9218637109375,"velocity":0.3937007874015748},{"duration":0.12295075000000111,"midi":62,"time":20.1677652109375,"velocity":0.3937007874015748},{"duration":0.12295075000000111,"midi":69,"time":20.1677652109375,"velocity":0.3937007874015748},{"duration":0.12295075000000111,"midi":59,"time":20.1677652109375,"velocity":0.3937007874015748},{"duration":0.12295075000000111,"midi":66,"time":20.172888158854164,"velocity":0.3937007874015748},{"duration":0.12295075000000111,"midi":69,"time":20.408543763020834,"velocity":0.3937007874015748},{"duration":0.12295075000000111,"midi":66,"time":20.4136667109375,"velocity":0.3937007874015748},{"duration":0.12295075000000111,"midi":62,"time":20.4136667109375,"velocity":0.3937007874015748},{"duration":0.12295075000000111,"midi":59,"time":20.4136667109375,"velocity":0.3937007874015748},{"duration":0.12295074999999756,"midi":69,"time":20.6595682109375,"velocity":0.3937007874015748},{"duration":0.12295074999999756,"midi":59,"time":20.6595682109375,"velocity":0.3937007874015748},{"duration":0.12295075000000111,"midi":66,"time":20.664691158854165,"velocity":0.3937007874015748},{"duration":0.12295075000000111,"midi":62,"time":20.669814106770833,"velocity":0.3937007874015748},{"duration":0.12295075000000111,"midi":66,"time":20.9054697109375,"velocity":0.3937007874015748},{"duration":0.12295075000000111,"midi":62,"time":20.9054697109375,"velocity":0.3937007874015748},{"duration":0.12295075000000111,"midi":69,"time":20.910592658854164,"velocity":0.3937007874015748},{"duration":0.12295074999999756,"midi":59,"time":20.915715606770835,"velocity":0.3937007874015748},{"duration":0.12295075000000111,"midi":66,"time":21.151371210937498,"velocity":0.3937007874015748},{"duration":0.12295075000000111,"midi":59,"time":21.151371210937498,"velocity":0.3937007874015748},{"duration":0.12295075000000111,"midi":62,"time":21.151371210937498,"velocity":0.3937007874015748},{"duration":0.12295075000000111,"midi":69,"time":21.151371210937498,"velocity":0.3937007874015748},{"duration":0.12295074999999756,"midi":69,"time":21.392149763020836,"velocity":0.3937007874015748},{"duration":0.12295075000000111,"midi":62,"time":21.3972727109375,"velocity":0.3937007874015748},{"duration":0.12295075000000111,"midi":66,"time":21.3972727109375,"velocity":0.3937007874015748},{"duration":0.12295075000000111,"midi":59,"time":21.3972727109375,"velocity":0.3937007874015748},{"duration":0.12295074999999756,"midi":69,"time":21.648297158854167,"velocity":0.3937007874015748},{"duration":0.12295075000000111,"midi":59,"time":21.653420106770835,"velocity":0.3937007874015748},{"duration":0.12295075000000111,"midi":66,"time":21.653420106770835,"velocity":0.3937007874015748},{"duration":0.12295075000000111,"midi":62,"time":21.6585430546875,"velocity":0.3937007874015748},{"duration":0.12295074999999756,"midi":66,"time":21.8890757109375,"velocity":0.3937007874015748},{"duration":0.12295074999999756,"midi":69,"time":21.8890757109375,"velocity":0.3937007874015748},{"duration":0.12295075000000111,"midi":59,"time":21.894198658854165,"velocity":0.3937007874015748},{"duration":0.12295075000000111,"midi":62,"time":21.894198658854165,"velocity":0.3937007874015748},{"duration":0.12295075000000111,"midi":59,"time":22.140100158854164,"velocity":0.3937007874015748},{"duration":0.12295075000000111,"midi":69,"time":22.140100158854164,"velocity":0.3937007874015748},{"duration":0.12295074999999756,"midi":62,"time":22.145223106770835,"velocity":0.3937007874015748},{"duration":0.12295074999999756,"midi":66,"time":22.145223106770835,"velocity":0.3937007874015748},{"duration":0.12295075000000111,"midi":69,"time":22.391124606770834,"velocity":0.3937007874015748},{"duration":0.12295075000000111,"midi":66,"time":22.391124606770834,"velocity":0.3937007874015748},{"duration":0.12295075000000111,"midi":62,"time":22.3962475546875,"velocity":0.3937007874015748},{"duration":0.12295075000000111,"midi":59,"time":22.3962475546875,"velocity":0.3937007874015748},{"duration":0.12295075000000111,"midi":69,"time":22.637026106770833,"velocity":0.3937007874015748},{"duration":0.12295075000000111,"midi":59,"time":22.637026106770833,"velocity":0.3937007874015748},{"duration":0.12295074999999756,"midi":62,"time":22.6421490546875,"velocity":0.3937007874015748},{"duration":0.12295074999999756,"midi":66,"time":22.6421490546875,"velocity":0.3937007874015748},{"duration":0.12295074999999756,"midi":45,"time":22.6421490546875,"velocity":0.3937007874015748},{"duration":0.12295075000000111,"midi":66,"time":23.6103862109375,"velocity":0.3937007874015748},{"duration":0.12295075000000111,"midi":61,"time":23.6103862109375,"velocity":0.3937007874015748},{"duration":0.12295075000000111,"midi":57,"time":23.6103862109375,"velocity":0.3937007874015748},{"duration":0.12295074999999756,"midi":61,"time":23.8562877109375,"velocity":0.3937007874015748},{"duration":0.12295074999999756,"midi":57,"time":23.8562877109375,"velocity":0.3937007874015748},{"duration":0.12295074999999756,"midi":66,"time":23.8562877109375,"velocity":0.3937007874015748},{"duration":0.12295074999999756,"midi":61,"time":24.097066263020835,"velocity":0.3937007874015748},{"duration":0.12295075000000111,"midi":66,"time":24.1021892109375,"velocity":0.3937007874015748},{"duration":0.12295075000000111,"midi":57,"time":24.1021892109375,"velocity":0.3937007874015748},{"duration":0.12295075000000111,"midi":64,"time":24.348090710937498,"velocity":0.3937007874015748},{"duration":0.12295075000000111,"midi":56,"time":24.348090710937498,"velocity":0.3937007874015748},{"duration":0.12295075000000111,"midi":59,"time":24.348090710937498,"velocity":0.3937007874015748},{"duration":0.24590149999999866,"midi":57,"time":24.8398937109375,"velocity":0.3937007874015748},{"duration":0.12295075000000111,"midi":62,"time":24.8398937109375,"velocity":0.3937007874015748},{"duration":0.24590149999999866,"midi":54,"time":24.8398937109375,"velocity":0.3937007874015748},{"duration":0.6147537499999984,"midi":59,"time":25.3316967109375,"velocity":0.3937007874015748},{"duration":0.7377044999999995,"midi":56,"time":25.3316967109375,"velocity":0.3937007874015748},{"duration":0.7377044999999995,"midi":64,"time":25.3316967109375,"velocity":0.3937007874015748},{"duration":0.4918030000000009,"midi":61,"time":26.315302710937498,"velocity":0.3937007874015748},{"duration":0.4918030000000009,"midi":57,"time":26.315302710937498,"velocity":0.3937007874015748},{"duration":0.12295075000000111,"midi":61,"time":27.053007210937498,"velocity":0.3937007874015748},{"duration":0.12295075000000111,"midi":57,"time":27.053007210937498,"velocity":0.3937007874015748},{"duration":0.12295075000000111,"midi":61,"time":27.2989087109375,"velocity":0.3937007874015748},{"duration":0.12295075000000111,"midi":57,"time":27.2989087109375,"velocity":0.3937007874015748},{"duration":0.12295075000000111,"midi":64,"time":27.2989087109375,"velocity":0.3937007874015748},{"duration":0.12295075000000111,"midi":66,"time":27.5448102109375,"velocity":0.3937007874015748},{"duration":0.12295075000000111,"midi":61,"time":27.5448102109375,"velocity":0.3937007874015748},{"duration":0.12295075000000111,"midi":57,"time":27.5448102109375,"velocity":0.3937007874015748},{"duration":0.12295074999999756,"midi":57,"time":27.7907117109375,"velocity":0.3937007874015748},{"duration":0.12295074999999756,"midi":66,"time":27.7907117109375,"velocity":0.3937007874015748},{"duration":0.12295074999999756,"midi":61,"time":27.7907117109375,"velocity":0.3937007874015748},{"duration":0.12295075000000111,"midi":61,"time":28.0366132109375,"velocity":0.3937007874015748},{"duration":0.12295075000000111,"midi":57,"time":28.0366132109375,"velocity":0.3937007874015748},{"duration":0.12295075000000111,"midi":66,"time":28.0366132109375,"velocity":0.3937007874015748},{"duration":0.12295075000000111,"midi":59,"time":28.282514710937498,"velocity":0.3937007874015748},{"duration":0.24590150000000222,"midi":64,"time":28.282514710937498,"velocity":0.3937007874015748},{"duration":0.12295075000000111,"midi":56,"time":28.292760606770834,"velocity":0.3937007874015748},{"duration":0.12295075000000111,"midi":62,"time":28.7743177109375,"velocity":0.3937007874015748},{"duration":0.12295075000000111,"midi":57,"time":28.7743177109375,"velocity":0.3937007874015748},{"duration":0.12295075000000111,"midi":54,"time":28.7743177109375,"velocity":0.3937007874015748},{"duration":0.6147537499999984,"midi":59,"time":29.2661207109375,"velocity":0.3937007874015748},{"duration":0.6147537499999984,"midi":64,"time":29.2661207109375,"velocity":0.3937007874015748},{"duration":0.7377044999999995,"midi":56,"time":29.2661207109375,"velocity":0.3937007874015748},{"duration":0.4918030000000009,"midi":57,"time":30.259972606770834,"velocity":0.3937007874015748},{"duration":0.4918030000000009,"midi":61,"time":30.259972606770834,"velocity":0.3937007874015748},{"duration":0.12295075000000111,"midi":57,"time":30.987431210937498,"velocity":0.3937007874015748},{"duration":0.12295075000000111,"midi":61,"time":30.987431210937498,"velocity":0.3937007874015748},{"duration":0.12295075000000111,"midi":61,"time":31.2333327109375,"velocity":0.3937007874015748},{"duration":0.12295075000000111,"midi":64,"time":31.2333327109375,"velocity":0.3937007874015748},{"duration":0.12295075000000111,"midi":57,"time":31.2333327109375,"velocity":0.3937007874015748},{"duration":0.12295075000000111,"midi":61,"time":31.4792342109375,"velocity":0.3937007874015748},{"duration":0.12295075000000111,"midi":57,"time":31.4792342109375,"velocity":0.3937007874015748},{"duration":0.12295075000000111,"midi":66,"time":31.4792342109375,"velocity":0.3937007874015748},{"duration":0.12295074999999756,"midi":61,"time":31.7251357109375,"velocity":0.3937007874015748},{"duration":0.12295074999999756,"midi":57,"time":31.7251357109375,"velocity":0.3937007874015748},{"duration":0.061475375000000554,"midi":66,"time":31.73025865885417,"velocity":0.3937007874015748},{"duration":0.12295074999999756,"midi":57,"time":31.9710372109375,"velocity":0.3937007874015748},{"duration":0.12295074999999756,"midi":61,"time":31.9710372109375,"velocity":0.3937007874015748},{"duration":0.12295074999999756,"midi":66,"time":31.9710372109375,"velocity":0.3937007874015748},{"duration":0.12295075000000111,"midi":59,"time":32.2169387109375,"velocity":0.3937007874015748},{"duration":0.12295075000000111,"midi":56,"time":32.222061658854166,"velocity":0.3937007874015748},{"duration":0.12295075000000111,"midi":64,"time":32.2323075546875,"velocity":0.3937007874015748},{"duration":0.122950749999994,"midi":54,"time":32.7087417109375,"velocity":0.3937007874015748},{"duration":0.122950749999994,"midi":62,"time":32.7087417109375,"velocity":0.3937007874015748},{"duration":0.122950749999994,"midi":57,"time":32.7087417109375,"velocity":0.3937007874015748},{"duration":0.8606552500000006,"midi":59,"time":33.2005447109375,"velocity":0.3937007874015748},{"duration":0.7377044999999995,"midi":65,"time":33.2005447109375,"velocity":0.3937007874015748},{"duration":0.8606552500000006,"midi":56,"time":33.2005447109375,"velocity":0.3937007874015748},{"duration":0.8606552500000006,"midi":61,"time":34.1841507109375,"velocity":0.3937007874015748},{"duration":0.8606552500000006,"midi":66,"time":34.1841507109375,"velocity":0.3937007874015748},{"duration":0.9836060000000018,"midi":57,"time":34.18927365885417,"velocity":0.3937007874015748},{"duration":0.12295075000000111,"midi":64,"time":35.4136582109375,"velocity":0.3937007874015748},{"duration":0.12295075000000111,"midi":62,"time":35.4136582109375,"velocity":0.3937007874015748},{"duration":0.12295075000000111,"midi":57,"time":35.4136582109375,"velocity":0.3937007874015748},{"duration":0.12295075000000111,"midi":69,"time":35.4136582109375,"velocity":0.3937007874015748},{"duration":0.2459014999999951,"midi":62,"time":35.6595597109375,"velocity":0.3937007874015748},{"duration":0.2459014999999951,"midi":57,"time":35.6595597109375,"velocity":0.3937007874015748},{"duration":0.12295075000000111,"midi":64,"time":35.6595597109375,"velocity":0.3937007874015748},{"duration":0.2459014999999951,"midi":69,"time":35.6595597109375,"velocity":0.3937007874015748},{"duration":0.12295075000000111,"midi":64,"time":36.1513627109375,"velocity":0.3937007874015748},{"duration":0.12295075000000111,"midi":57,"time":36.1513627109375,"velocity":0.3937007874015748},{"duration":0.12295075000000111,"midi":69,"time":36.1513627109375,"velocity":0.3937007874015748},{"duration":0.12295075000000111,"midi":62,"time":36.1513627109375,"velocity":0.3937007874015748},{"duration":0.12295075000000111,"midi":57,"time":36.3972642109375,"velocity":0.3937007874015748},{"duration":0.12295075000000111,"midi":64,"time":36.3972642109375,"velocity":0.3937007874015748},{"duration":0.12295075000000111,"midi":62,"time":36.3972642109375,"velocity":0.3937007874015748},{"duration":0.12295075000000111,"midi":69,"time":36.3972642109375,"velocity":0.3937007874015748},{"duration":0.2459014999999951,"midi":62,"time":36.6431657109375,"velocity":0.3937007874015748},{"duration":0.2459014999999951,"midi":69,"time":36.6431657109375,"velocity":0.3937007874015748},{"duration":0.2459014999999951,"midi":64,"time":36.6431657109375,"velocity":0.3937007874015748},{"duration":0.2459014999999951,"midi":57,"time":36.6431657109375,"velocity":0.3937007874015748},{"duration":0.12295075000000111,"midi":62,"time":37.1349687109375,"velocity":0.3937007874015748},{"duration":0.12295075000000111,"midi":69,"time":37.1349687109375,"velocity":0.3937007874015748},{"duration":0.12295075000000111,"midi":64,"time":37.1349687109375,"velocity":0.3937007874015748},{"duration":0.12295075000000111,"midi":57,"time":37.1349687109375,"velocity":0.3937007874015748},{"duration":0.122950749999994,"midi":69,"time":37.3808702109375,"velocity":0.3937007874015748},{"duration":0.122950749999994,"midi":62,"time":37.3808702109375,"velocity":0.3937007874015748},{"duration":0.122950749999994,"midi":57,"time":37.3808702109375,"velocity":0.3937007874015748},{"duration":0.122950749999994,"midi":64,"time":37.3808702109375,"velocity":0.3937007874015748},{"duration":0.24590150000000222,"midi":64,"time":37.6267717109375,"velocity":0.3937007874015748},{"duration":0.24590150000000222,"midi":69,"time":37.6267717109375,"velocity":0.3937007874015748},{"duration":0.24590150000000222,"midi":57,"time":37.6267717109375,"velocity":0.3937007874015748},{"duration":0.24590150000000222,"midi":62,"time":37.6267717109375,"velocity":0.3937007874015748},{"duration":0.12295075000000111,"midi":57,"time":38.1185747109375,"velocity":0.3937007874015748},{"duration":0.12295075000000111,"midi":64,"time":38.1185747109375,"velocity":0.3937007874015748},{"duration":0.12295075000000111,"midi":69,"time":38.1185747109375,"velocity":0.3937007874015748},{"duration":0.12295075000000111,"midi":62,"time":38.1185747109375,"velocity":0.3937007874015748},{"duration":0.24590150000000222,"midi":62,"time":38.3644762109375,"velocity":0.3937007874015748},{"duration":0.24590150000000222,"midi":57,"time":38.3644762109375,"velocity":0.3937007874015748},{"duration":0.24590150000000222,"midi":69,"time":38.3644762109375,"velocity":0.3937007874015748},{"duration":0.24590150000000222,"midi":64,"time":38.3644762109375,"velocity":0.3937007874015748},{"duration":0.12295075000000111,"midi":66,"time":39.3480822109375,"velocity":0.3937007874015748},{"duration":0.12295075000000111,"midi":61,"time":39.3480822109375,"velocity":0.3937007874015748},{"duration":0.12295075000000111,"midi":57,"time":39.3480822109375,"velocity":0.3937007874015748},{"duration":0.12295075000000111,"midi":61,"time":39.5939837109375,"velocity":0.3937007874015748},{"duration":0.12295075000000111,"midi":57,"time":39.5939837109375,"velocity":0.3937007874015748},{"duration":0.12295075000000111,"midi":57,"time":39.839885210937496,"velocity":0.3937007874015748},{"duration":0.12295075000000111,"midi":66,"time":39.839885210937496,"velocity":0.3937007874015748},{"duration":0.12295075000000111,"midi":61,"time":39.839885210937496,"velocity":0.3937007874015748},{"duration":0.24590150000000222,"midi":59,"time":40.0857867109375,"velocity":0.3937007874015748},{"duration":0.24590150000000222,"midi":56,"time":40.0857867109375,"velocity":0.3937007874015748},{"duration":0.122950749999994,"midi":64,"time":40.096032606770834,"velocity":0.3937007874015748},{"duration":0.2459014999999951,"midi":54,"time":40.5775897109375,"velocity":0.3937007874015748},{"duration":0.2459014999999951,"midi":62,"time":40.5775897109375,"velocity":0.3937007874015748},{"duration":0.2459014999999951,"midi":57,"time":40.5775897109375,"velocity":0.3937007874015748},{"duration":0.6147537499999984,"midi":59,"time":41.0693927109375,"velocity":0.3937007874015748},{"duration":0.7377044999999995,"midi":64,"time":41.0693927109375,"velocity":0.3937007874015748},{"duration":0.7377044999999995,"midi":56,"time":41.0693927109375,"velocity":0.3937007874015748},{"duration":0.4918029999999973,"midi":61,"time":42.0529987109375,"velocity":0.3937007874015748},{"duration":0.4918029999999973,"midi":57,"time":42.0529987109375,"velocity":0.3937007874015748},{"duration":0.122950749999994,"midi":57,"time":42.78558026302083,"velocity":0.3937007874015748},{"duration":0.122950749999994,"midi":61,"time":42.78558026302083,"velocity":0.3937007874015748},{"duration":0.12295075000000111,"midi":61,"time":43.036604710937496,"velocity":0.3937007874015748},{"duration":0.12295075000000111,"midi":57,"time":43.036604710937496,"velocity":0.3937007874015748},{"duration":0.12295075000000111,"midi":64,"time":43.036604710937496,"velocity":0.3937007874015748},{"duration":0.12295075000000111,"midi":57,"time":43.2825062109375,"velocity":0.3937007874015748},{"duration":0.12295075000000111,"midi":66,"time":43.2825062109375,"velocity":0.3937007874015748},{"duration":0.12295075000000111,"midi":61,"time":43.2825062109375,"velocity":0.3937007874015748},{"duration":0.12295075000000111,"midi":61,"time":43.5284077109375,"velocity":0.3937007874015748},{"duration":0.12295075000000111,"midi":66,"time":43.5284077109375,"velocity":0.3937007874015748},{"duration":0.12295075000000111,"midi":57,"time":43.5284077109375,"velocity":0.3937007874015748},{"duration":0.12295075000000111,"midi":57,"time":43.774309210937496,"velocity":0.3937007874015748},{"duration":0.12295075000000111,"midi":61,"time":43.774309210937496,"velocity":0.3937007874015748},{"duration":0.12295075000000111,"midi":66,"time":43.774309210937496,"velocity":0.3937007874015748},{"duration":0.12295075000000111,"midi":59,"time":44.0202107109375,"velocity":0.3937007874015748},{"duration":0.12295075000000111,"midi":64,"time":44.0202107109375,"velocity":0.3937007874015748},{"duration":0.12295075000000111,"midi":56,"time":44.0202107109375,"velocity":0.3937007874015748},{"duration":0.122950749999994,"midi":57,"time":44.5120137109375,"velocity":0.3937007874015748},{"duration":0.122950749999994,"midi":54,"time":44.5120137109375,"velocity":0.3937007874015748},{"duration":0.122950749999994,"midi":62,"time":44.5120137109375,"velocity":0.3937007874015748},{"duration":0.6147537499999984,"midi":59,"time":45.0038167109375,"velocity":0.3937007874015748},{"duration":0.7377044999999995,"midi":56,"time":45.0038167109375,"velocity":0.3937007874015748},{"duration":0.8606552500000006,"midi":64,"time":45.0038167109375,"velocity":0.3937007874015748},{"duration":0.4918029999999973,"midi":61,"time":45.9874227109375,"velocity":0.3937007874015748},{"duration":0.4918029999999973,"midi":57,"time":45.9874227109375,"velocity":0.3937007874015748},{"duration":0.12295075000000111,"midi":57,"time":46.7251272109375,"velocity":0.3937007874015748},{"duration":0.12295075000000111,"midi":61,"time":46.7251272109375,"velocity":0.3937007874015748},{"duration":0.12295075000000111,"midi":64,"time":46.96590576302083,"velocity":0.3937007874015748},{"duration":0.12295075000000111,"midi":57,"time":46.971028710937496,"velocity":0.3937007874015748},{"duration":0.12295075000000111,"midi":61,"time":46.971028710937496,"velocity":0.3937007874015748},{"duration":0.12295075000000111,"midi":57,"time":47.2169302109375,"velocity":0.3937007874015748},{"duration":0.12295075000000111,"midi":66,"time":47.2169302109375,"velocity":0.3937007874015748},{"duration":0.12295075000000111,"midi":61,"time":47.2169302109375,"velocity":0.3937007874015748},{"duration":0.12295075000000111,"midi":66,"time":47.4628317109375,"velocity":0.3937007874015748},{"duration":0.12295075000000111,"midi":61,"time":47.4628317109375,"velocity":0.3937007874015748},{"duration":0.12295075000000111,"midi":57,"time":47.4628317109375,"velocity":0.3937007874015748},{"duration":0.12295075000000111,"midi":66,"time":47.70361026302083,"velocity":0.3937007874015748},{"duration":0.12295075000000111,"midi":61,"time":47.708733210937496,"velocity":0.3937007874015748},{"duration":0.12295075000000111,"midi":57,"time":47.708733210937496,"velocity":0.3937007874015748},{"duration":0.12295075000000111,"midi":59,"time":47.9546347109375,"velocity":0.3937007874015748},{"duration":0.12295075000000111,"midi":56,"time":47.9546347109375,"velocity":0.3937007874015748},{"duration":0.12295075000000111,"midi":64,"time":47.9546347109375,"velocity":0.3937007874015748},{"duration":0.122950749999994,"midi":57,"time":48.4464377109375,"velocity":0.3937007874015748},{"duration":0.122950749999994,"midi":62,"time":48.4464377109375,"velocity":0.3937007874015748},{"duration":0.122950749999994,"midi":54,"time":48.4464377109375,"velocity":0.3937007874015748},{"duration":0.7377044999999995,"midi":59,"time":48.9382407109375,"velocity":0.3937007874015748},{"duration":0.7377044999999995,"midi":56,"time":48.9382407109375,"velocity":0.3937007874015748},{"duration":0.7377044999999995,"midi":65,"time":48.9382407109375,"velocity":0.3937007874015748},{"duration":0.7377044999999995,"midi":66,"time":49.93209260677083,"velocity":0.3937007874015748},{"duration":0.7377044999999995,"midi":61,"time":49.9372155546875,"velocity":0.3937007874015748},{"duration":0.8606552500000006,"midi":57,"time":49.942338502604166,"velocity":0.3937007874015748},{"duration":0.12295075000000111,"midi":64,"time":51.15263494791667,"velocity":0.3937007874015748},{"duration":0.12295075000000111,"midi":62,"time":51.15263494791667,"velocity":0.3937007874015748},{"duration":0.12295075000000111,"midi":69,"time":51.15263494791667,"velocity":0.3937007874015748},{"duration":0.12295075000000111,"midi":57,"time":51.15263494791667,"velocity":0.3937007874015748},{"duration":0.24590150000000222,"midi":64,"time":51.39853644791667,"velocity":0.3937007874015748},{"duration":0.24590150000000222,"midi":69,"time":51.39853644791667,"velocity":0.3937007874015748},{"duration":0.24590150000000222,"midi":62,"time":51.39853644791667,"velocity":0.3937007874015748},{"duration":0.24590150000000222,"midi":57,"time":51.39853644791667,"velocity":0.3937007874015748},{"duration":0.12295075000000111,"midi":57,"time":51.890339447916666,"velocity":0.3937007874015748},{"duration":0.12295075000000111,"midi":64,"time":51.890339447916666,"velocity":0.3937007874015748},{"duration":0.12295075000000111,"midi":62,"time":51.890339447916666,"velocity":0.3937007874015748},{"duration":0.12295075000000111,"midi":69,"time":51.890339447916666,"velocity":0.3937007874015748},{"duration":0.12295075000000111,"midi":62,"time":52.13624094791667,"velocity":0.3937007874015748},{"duration":0.12295075000000111,"midi":64,"time":52.13624094791667,"velocity":0.3937007874015748},{"duration":0.12295075000000111,"midi":57,"time":52.13624094791667,"velocity":0.3937007874015748},{"duration":0.12295075000000111,"midi":69,"time":52.13624094791667,"velocity":0.3937007874015748},{"duration":0.2459014999999951,"midi":69,"time":52.38214244791667,"velocity":0.3937007874015748},{"duration":0.2459014999999951,"midi":57,"time":52.38214244791667,"velocity":0.3937007874015748},{"duration":0.2459014999999951,"midi":64,"time":52.38214244791667,"velocity":0.3937007874015748},{"duration":0.2459014999999951,"midi":62,"time":52.38214244791667,"velocity":0.3937007874015748},{"duration":0.12295075000000111,"midi":64,"time":52.87394544791667,"velocity":0.3937007874015748},{"duration":0.12295075000000111,"midi":69,"time":52.87394544791667,"velocity":0.3937007874015748},{"duration":0.12295075000000111,"midi":62,"time":52.87394544791667,"velocity":0.3937007874015748},{"duration":0.12295075000000111,"midi":57,"time":52.87394544791667,"velocity":0.3937007874015748},{"duration":0.122950749999994,"midi":62,"time":53.11984694791667,"velocity":0.3937007874015748},{"duration":0.122950749999994,"midi":69,"time":53.11984694791667,"velocity":0.3937007874015748},{"duration":0.122950749999994,"midi":57,"time":53.11984694791667,"velocity":0.3937007874015748},{"duration":0.122950749999994,"midi":64,"time":53.11984694791667,"velocity":0.3937007874015748},{"duration":0.24590150000000222,"midi":69,"time":53.365748447916665,"velocity":0.3937007874015748},{"duration":0.24590150000000222,"midi":64,"time":53.365748447916665,"velocity":0.3937007874015748},{"duration":0.24590150000000222,"midi":62,"time":53.365748447916665,"velocity":0.3937007874015748},{"duration":0.24590150000000222,"midi":57,"time":53.365748447916665,"velocity":0.3937007874015748},{"duration":0.122950749999994,"midi":57,"time":53.8524285,"velocity":0.3937007874015748},{"duration":0.122950749999994,"midi":69,"time":53.8524285,"velocity":0.3937007874015748},{"duration":0.12295075000000111,"midi":64,"time":53.85755144791667,"velocity":0.3937007874015748},{"duration":0.12295075000000111,"midi":62,"time":53.85755144791667,"velocity":0.3937007874015748},{"duration":0.24590150000000222,"midi":62,"time":54.103452947916665,"velocity":0.3937007874015748},{"duration":0.24590150000000222,"midi":69,"time":54.103452947916665,"velocity":0.3937007874015748},{"duration":0.24590150000000222,"midi":64,"time":54.103452947916665,"velocity":0.3937007874015748},{"duration":0.24590150000000222,"midi":57,"time":54.103452947916665,"velocity":0.3937007874015748},{"duration":0.12295075000000111,"midi":66,"time":55.33296044791667,"velocity":0.3937007874015748},{"duration":0.12295075000000111,"midi":62,"time":55.33296044791667,"velocity":0.3937007874015748},{"duration":0.12295075000000111,"midi":66,"time":55.824763447916666,"velocity":0.3937007874015748},{"duration":0.12295075000000111,"midi":62,"time":55.824763447916666,"velocity":0.3937007874015748},{"duration":0.12295075000000111,"midi":62,"time":56.32168939583333,"velocity":0.3937007874015748},{"duration":0.12295075000000111,"midi":66,"time":56.32681234375,"velocity":0.3937007874015748},{"duration":0.12295075000000111,"midi":66,"time":56.81349239583333,"velocity":0.3937007874015748},{"duration":0.12295075000000111,"midi":62,"time":56.81349239583333,"velocity":0.3937007874015748},{"duration":0.12295075000000111,"midi":61,"time":57.300172447916665,"velocity":0.3937007874015748},{"duration":0.12295075000000111,"midi":64,"time":57.300172447916665,"velocity":0.3937007874015748},{"duration":0.12295075000000111,"midi":61,"time":57.79197544791667,"velocity":0.3937007874015748},{"duration":0.12295075000000111,"midi":64,"time":57.79197544791667,"velocity":0.3937007874015748},{"duration":0.12295075000000111,"midi":61,"time":58.28377844791667,"velocity":0.3937007874015748},{"duration":0.12295075000000111,"midi":64,"time":58.28377844791667,"velocity":0.3937007874015748},{"duration":0.12295075000000111,"midi":64,"time":58.775581447916665,"velocity":0.3937007874015748},{"duration":0.122950749999994,"midi":61,"time":58.78070439583333,"velocity":0.3937007874015748},{"duration":0.12295075000000111,"midi":62,"time":59.2622615,"velocity":0.3937007874015748},{"duration":0.12295075000000111,"midi":66,"time":59.2622615,"velocity":0.3937007874015748},{"duration":0.12295075000000111,"midi":62,"time":59.759187447916666,"velocity":0.3937007874015748},{"duration":0.12295075000000111,"midi":66,"time":59.759187447916666,"velocity":0.3937007874015748},{"duration":0.122950749999994,"midi":66,"time":60.25099044791667,"velocity":0.3937007874015748},{"duration":0.122950749999994,"midi":62,"time":60.25099044791667,"velocity":0.3937007874015748},{"duration":0.12295075000000111,"midi":66,"time":60.74279344791667,"velocity":0.3937007874015748},{"duration":0.12295075000000111,"midi":62,"time":60.74279344791667,"velocity":0.3937007874015748},{"duration":0.12295075000000111,"midi":61,"time":61.2294735,"velocity":0.3937007874015748},{"duration":0.12295075000000111,"midi":64,"time":61.2294735,"velocity":0.3937007874015748},{"duration":0.122950749999994,"midi":64,"time":61.7212765,"velocity":0.3937007874015748},{"duration":0.12295075000000111,"midi":61,"time":61.72639944791667,"velocity":0.3937007874015748},{"duration":0.12295075000000111,"midi":64,"time":62.21820244791667,"velocity":0.3937007874015748},{"duration":0.12295075000000111,"midi":61,"time":62.21820244791667,"velocity":0.3937007874015748},{"duration":0.12295075000000111,"midi":61,"time":62.7048825,"velocity":0.3937007874015748},{"duration":0.12295075000000111,"midi":64,"time":62.710005447916664,"velocity":0.3937007874015748},{"duration":0.12295075000000111,"midi":62,"time":63.20180844791666,"velocity":0.3937007874015748},{"duration":0.12295075000000111,"midi":66,"time":63.20180844791666,"velocity":0.3937007874015748},{"duration":0.12295075000000111,"midi":62,"time":63.68208481510416,"velocity":0.3937007874015748},{"duration":0.12295075000000111,"midi":66,"time":63.6884885,"velocity":0.3937007874015748},{"duration":0.12295075000000111,"midi":62,"time":64.1802915,"velocity":0.3937007874015748},{"duration":0.12295075000000111,"midi":66,"time":64.18541444791666,"velocity":0.3937007874015748},{"duration":0.12295075000000111,"midi":62,"time":64.67721744791666,"velocity":0.3937007874015748},{"duration":0.12295075000000111,"midi":66,"time":64.67721744791666,"velocity":0.3937007874015748},{"duration":0.12295075000000111,"midi":61,"time":65.16902044791667,"velocity":0.3937007874015748},{"duration":0.12295075000000111,"midi":64,"time":65.16902044791667,"velocity":0.3937007874015748},{"duration":0.12295075000000111,"midi":64,"time":65.66082344791666,"velocity":0.3937007874015748},{"duration":0.12295075000000111,"midi":61,"time":65.66082344791666,"velocity":0.3937007874015748},{"duration":0.12295075000000111,"midi":64,"time":66.16799529166666,"velocity":0.3937007874015748},{"duration":0.12295075000000111,"midi":61,"time":66.16799529166666,"velocity":0.3937007874015748},{"duration":0.12295075000000111,"midi":61,"time":66.64058723697916,"velocity":0.3937007874015748},{"duration":0.12295075000000111,"midi":64,"time":66.64058723697916,"velocity":0.3937007874015748},{"duration":0.12295075000000111,"midi":64,"time":67.13751318489584,"velocity":0.3937007874015748},{"duration":0.12295075000000111,"midi":69,"time":67.13751318489584,"velocity":0.3937007874015748},{"duration":0.12295075000000111,"midi":69,"time":67.62931618489584,"velocity":0.3937007874015748},{"duration":0.12295075000000111,"midi":64,"time":67.62931618489584,"velocity":0.3937007874015748},{"duration":0.12295075000000111,"midi":69,"time":68.12111918489583,"velocity":0.3937007874015748},{"duration":0.12295075000000111,"midi":64,"time":68.12111918489583,"velocity":0.3937007874015748},{"duration":0.12295075000000111,"midi":64,"time":68.61292218489584,"velocity":0.3937007874015748},{"duration":0.12295075000000111,"midi":69,"time":68.6180451328125,"velocity":0.3937007874015748},{"duration":0.12295075000000111,"midi":69,"time":69.1098481328125,"velocity":0.3937007874015748},{"duration":0.12295075000000111,"midi":64,"time":69.1098481328125,"velocity":0.3937007874015748},{"duration":0.12295075000000111,"midi":64,"time":69.61189702864584,"velocity":0.3937007874015748},{"duration":0.12295075000000111,"midi":69,"time":69.6170199765625,"velocity":0.3937007874015748},{"duration":0.12295075000000111,"midi":69,"time":70.09857708072916,"velocity":0.3937007874015748},{"duration":0.12295075000000111,"midi":64,"time":70.09857708072916,"velocity":0.3937007874015748},{"duration":0.12295075000000111,"midi":61,"time":70.8311586328125,"velocity":0.3937007874015748},{"duration":0.12295075000000111,"midi":57,"time":70.8311586328125,"velocity":0.3937007874015748},{"duration":0.061475375000000554,"midi":66,"time":70.83628158072916,"velocity":0.3937007874015748},{"duration":0.12295075000000111,"midi":61,"time":71.07193718489583,"velocity":0.3937007874015748},{"duration":0.12295075000000111,"midi":66,"time":71.07193718489583,"velocity":0.3937007874015748},{"duration":0.12295075000000111,"midi":57,"time":71.07193718489583,"velocity":0.3937007874015748},{"duration":0.12295075000000111,"midi":61,"time":71.31783868489583,"velocity":0.3937007874015748},{"duration":0.12295075000000111,"midi":57,"time":71.31783868489583,"velocity":0.3937007874015748},{"duration":0.061475375000000554,"midi":66,"time":71.3229616328125,"velocity":0.3937007874015748},{"duration":0.12295075000000111,"midi":64,"time":71.56374018489583,"velocity":0.3937007874015748},{"duration":0.12295075000000111,"midi":56,"time":71.56374018489583,"velocity":0.3937007874015748},{"duration":0.12295075000000111,"midi":59,"time":71.56374018489583,"velocity":0.3937007874015748},{"duration":0.12295075000000111,"midi":54,"time":72.05554318489584,"velocity":0.3937007874015748},{"duration":0.12295075000000111,"midi":57,"time":72.05554318489584,"velocity":0.3937007874015748},{"duration":0.12295075000000111,"midi":62,"time":72.0606661328125,"velocity":0.3937007874015748},{"duration":0.7377045000000066,"midi":56,"time":72.5371002890625,"velocity":0.3937007874015748},{"duration":0.7377044999999924,"midi":64,"time":72.54350397395834,"velocity":0.3937007874015748},{"duration":0.6147537500000055,"midi":59,"time":72.54350397395834,"velocity":0.3937007874015748},{"duration":0.3688522500000033,"midi":57,"time":73.53735586979165,"velocity":0.3937007874015748},{"duration":0.3688522500000033,"midi":61,"time":73.53735586979165,"velocity":0.3937007874015748},{"duration":0.12295075000000111,"midi":61,"time":74.27506036979166,"velocity":0.3937007874015748},{"duration":0.12295075000000111,"midi":57,"time":74.27506036979166,"velocity":0.3937007874015748},{"duration":0.12295075000000111,"midi":57,"time":74.515838921875,"velocity":0.3937007874015748},{"duration":0.12295075000000111,"midi":61,"time":74.515838921875,"velocity":0.3937007874015748},{"duration":0.12295075000000111,"midi":64,"time":74.515838921875,"velocity":0.3937007874015748},{"duration":0.12295075000000111,"midi":57,"time":74.76686336979166,"velocity":0.3937007874015748},{"duration":0.12295075000000111,"midi":66,"time":74.76686336979166,"velocity":0.3937007874015748},{"duration":0.12295075000000111,"midi":61,"time":74.777109265625,"velocity":0.3937007874015748},{"duration":0.12295075000000111,"midi":66,"time":75.00764192187499,"velocity":0.3937007874015748},{"duration":0.1229507499999869,"midi":61,"time":75.01276486979167,"velocity":0.3937007874015748},{"duration":0.1229507499999869,"midi":57,"time":75.01276486979167,"velocity":0.3937007874015748},{"duration":0.12295075000000111,"midi":61,"time":75.253543421875,"velocity":0.3937007874015748},{"duration":0.12295075000000111,"midi":66,"time":75.25866636979165,"velocity":0.3937007874015748},{"duration":0.12295075000000111,"midi":57,"time":75.25866636979165,"velocity":0.3937007874015748},{"duration":0.12295075000000111,"midi":64,"time":75.499444921875,"velocity":0.3937007874015748},{"duration":0.12295075000000111,"midi":59,"time":75.499444921875,"velocity":0.3937007874015748},{"duration":0.12295075000000111,"midi":56,"time":75.50456786979166,"velocity":0.3937007874015748},{"duration":0.12295075000000111,"midi":62,"time":75.991247921875,"velocity":0.3937007874015748},{"duration":0.12295075000000111,"midi":57,"time":75.991247921875,"velocity":0.3937007874015748},{"duration":0.12295075000000111,"midi":54,"time":75.991247921875,"velocity":0.3937007874015748},{"duration":0.7377044999999924,"midi":59,"time":76.483050921875,"velocity":0.3937007874015748},{"duration":0.7377044999999924,"midi":64,"time":76.483050921875,"velocity":0.3937007874015748},{"duration":0.7377044999999924,"midi":56,"time":76.483050921875,"velocity":0.3937007874015748},{"duration":0.3688522500000033,"midi":61,"time":77.47177986979166,"velocity":0.3937007874015748},{"duration":0.3688522500000033,"midi":57,"time":77.47177986979166,"velocity":0.3937007874015748},{"duration":0.12295075000000111,"midi":61,"time":78.20436142187499,"velocity":0.3937007874015748},{"duration":0.12295075000000111,"midi":57,"time":78.20436142187499,"velocity":0.3937007874015748},{"duration":0.12295075000000111,"midi":64,"time":78.4387362890625,"velocity":0.3937007874015748},{"duration":0.12295075000000111,"midi":57,"time":78.450262921875,"velocity":0.3937007874015748},{"duration":0.12295075000000111,"midi":61,"time":78.450262921875,"velocity":0.3937007874015748},{"duration":0.12295075000000111,"midi":61,"time":78.696164421875,"velocity":0.3937007874015748},{"duration":0.12295075000000111,"midi":66,"time":78.696164421875,"velocity":0.3937007874015748},{"duration":0.12295075000000111,"midi":57,"time":78.696164421875,"velocity":0.3937007874015748},{"duration":0.12295075000000111,"midi":57,"time":78.93694297395834,"velocity":0.3937007874015748},{"duration":0.12295075000000111,"midi":66,"time":78.93694297395834,"velocity":0.3937007874015748},{"duration":0.12295075000000111,"midi":61,"time":78.942065921875,"velocity":0.3937007874015748},{"duration":0.12295075000000111,"midi":66,"time":79.1764407890625,"velocity":0.3937007874015748},{"duration":0.12295075000000111,"midi":57,"time":79.1764407890625,"velocity":0.3937007874015748},{"duration":0.12295075000000111,"midi":61,"time":79.1764407890625,"velocity":0.3937007874015748},{"duration":0.12295075000000111,"midi":64,"time":79.4223422890625,"velocity":0.3937007874015748},{"duration":0.1229507499999869,"midi":59,"time":79.42874597395834,"velocity":0.3937007874015748},{"duration":0.12295075000000111,"midi":56,"time":79.433868921875,"velocity":0.3937007874015748},{"duration":0.12295075000000111,"midi":62,"time":79.925671921875,"velocity":0.3937007874015748},{"duration":0.12295075000000111,"midi":54,"time":79.925671921875,"velocity":0.3937007874015748},{"duration":0.12295075000000111,"midi":57,"time":79.925671921875,"velocity":0.3937007874015748},{"duration":0.7377044999999924,"midi":65,"time":80.41235197395834,"velocity":0.3937007874015748},{"duration":0.7377045000000066,"midi":59,"time":80.417474921875,"velocity":0.3937007874015748},{"duration":0.7377045000000066,"midi":56,"time":80.417474921875,"velocity":0.3937007874015748},{"duration":0.8606552500000078,"midi":66,"time":81.40108092187499,"velocity":0.3937007874015748},{"duration":0.8606552500000078,"midi":61,"time":81.40108092187499,"velocity":0.3937007874015748},{"duration":0.8606552500000078,"midi":57,"time":81.40620386979165,"velocity":0.3937007874015748},{"duration":0.24590150000000222,"midi":57,"time":82.87648992187499,"velocity":0.3937007874015748},{"duration":0.24590150000000222,"midi":69,"time":82.87648992187499,"velocity":0.3937007874015748},{"duration":0.24590150000000222,"midi":62,"time":82.87648992187499,"velocity":0.3937007874015748},{"duration":0.12295075000000111,"midi":64,"time":82.87648992187499,"velocity":0.3937007874015748},{"duration":0.12295075000000111,"midi":62,"time":83.368292921875,"velocity":0.3937007874015748},{"duration":0.12295075000000111,"midi":64,"time":83.368292921875,"velocity":0.3937007874015748},{"duration":0.12295075000000111,"midi":69,"time":83.368292921875,"velocity":0.3937007874015748},{"duration":0.061475375000000554,"midi":57,"time":83.37341586979166,"velocity":0.3937007874015748},{"duration":0.12295075000000111,"midi":62,"time":83.60907147395834,"velocity":0.3937007874015748},{"duration":0.12295075000000111,"midi":69,"time":83.60907147395834,"velocity":0.3937007874015748},{"duration":0.12295075000000111,"midi":57,"time":83.614194421875,"velocity":0.3937007874015748},{"duration":0.12295075000000111,"midi":64,"time":83.614194421875,"velocity":0.3937007874015748},{"duration":0.12295075000000111,"midi":69,"time":83.86521886979166,"velocity":0.3937007874015748},{"duration":0.12295075000000111,"midi":57,"time":83.86521886979166,"velocity":0.3937007874015748},{"duration":0.12295075000000111,"midi":64,"time":83.87034181770834,"velocity":0.3937007874015748},{"duration":0.12295075000000111,"midi":62,"time":83.87034181770834,"velocity":0.3937007874015748},{"duration":0.1229507499999869,"midi":64,"time":84.351898921875,"velocity":0.3937007874015748},{"duration":0.1229507499999869,"midi":69,"time":84.351898921875,"velocity":0.3937007874015748},{"duration":0.1229507499999869,"midi":62,"time":84.351898921875,"velocity":0.3937007874015748},{"duration":0.12295075000000111,"midi":57,"time":84.35702186979167,"velocity":0.3937007874015748},{"duration":0.12295075000000111,"midi":57,"time":84.60292336979165,"velocity":0.3937007874015748},{"duration":0.12295075000000111,"midi":69,"time":84.60292336979165,"velocity":0.3937007874015748},{"duration":0.12295075000000111,"midi":62,"time":84.60292336979165,"velocity":0.3937007874015748},{"duration":0.1229507499999869,"midi":64,"time":84.60804631770834,"velocity":0.3937007874015748},{"duration":0.12295075000000111,"midi":69,"time":84.85907076562499,"velocity":0.3937007874015748},{"duration":0.1229507499999869,"midi":64,"time":84.86419371354167,"velocity":0.3937007874015748},{"duration":0.1229507499999869,"midi":62,"time":84.86419371354167,"velocity":0.3937007874015748},{"duration":0.1229507499999869,"midi":57,"time":84.86419371354167,"velocity":0.3937007874015748},{"duration":0.12295075000000111,"midi":57,"time":85.33678565885415,"velocity":0.3937007874015748},{"duration":0.12295075000000111,"midi":69,"time":85.33678565885415,"velocity":0.3937007874015748},{"duration":0.12295075000000111,"midi":62,"time":85.33678565885415,"velocity":0.3937007874015748},{"duration":0.12295075000000111,"midi":64,"time":85.33678565885415,"velocity":0.3937007874015748},{"duration":0.24590150000000222,"midi":64,"time":85.58268715885416,"velocity":0.3937007874015748},{"duration":0.24590150000000222,"midi":62,"time":85.58268715885416,"velocity":0.3937007874015748},{"duration":0.24590150000000222,"midi":57,"time":85.58268715885416,"velocity":0.3937007874015748},{"duration":0.24590150000000222,"midi":69,"time":85.58268715885416,"velocity":0.3937007874015748},{"duration":0.12295075000000111,"midi":61,"time":86.56629315885417,"velocity":0.3937007874015748},{"duration":0.12295075000000111,"midi":66,"time":86.56629315885417,"velocity":0.3937007874015748},{"duration":0.12295075000000111,"midi":57,"time":86.56629315885417,"velocity":0.3937007874015748},{"duration":0.12295075000000111,"midi":66,"time":86.81219465885415,"velocity":0.3937007874015748},{"duration":0.12295075000000111,"midi":61,"time":86.81219465885415,"velocity":0.3937007874015748},{"duration":0.12295075000000111,"midi":57,"time":86.81219465885415,"velocity":0.3937007874015748},{"duration":0.12295075000000111,"midi":61,"time":87.0529732109375,"velocity":0.3937007874015748},{"duration":0.12295075000000111,"midi":57,"time":87.05809615885416,"velocity":0.3937007874015748},{"duration":0.12295075000000111,"midi":66,"time":87.05809615885416,"velocity":0.3937007874015748},{"duration":0.12295075000000111,"midi":64,"time":87.30399765885416,"velocity":0.3937007874015748},{"duration":0.12295075000000111,"midi":56,"time":87.30399765885416,"velocity":0.3937007874015748},{"duration":0.12295075000000111,"midi":59,"time":87.30399765885416,"velocity":0.3937007874015748},{"duration":0.24590150000000222,"midi":57,"time":87.79580065885416,"velocity":0.3937007874015748},{"duration":0.24590150000000222,"midi":54,"time":87.79580065885416,"velocity":0.3937007874015748},{"duration":0.12295075000000111,"midi":62,"time":87.79580065885416,"velocity":0.3937007874015748},{"duration":0.6147537499999913,"midi":59,"time":88.28760365885417,"velocity":0.3937007874015748},{"duration":0.7377044999999924,"midi":56,"time":88.28760365885417,"velocity":0.3937007874015748},{"duration":0.7377044999999924,"midi":64,"time":88.28760365885417,"velocity":0.3937007874015748},{"duration":0.49180300000000443,"midi":61,"time":89.27120965885416,"velocity":0.3937007874015748},{"duration":0.49180300000000443,"midi":57,"time":89.27120965885416,"velocity":0.3937007874015748},{"duration":0.12295075000000111,"midi":61,"time":90.00891415885415,"velocity":0.3937007874015748},{"duration":0.12295075000000111,"midi":57,"time":90.00891415885415,"velocity":0.3937007874015748},{"duration":0.12295075000000111,"midi":61,"time":90.25481565885416,"velocity":0.3937007874015748},{"duration":0.12295075000000111,"midi":57,"time":90.25481565885416,"velocity":0.3937007874015748},{"duration":0.12295075000000111,"midi":64,"time":90.25481565885416,"velocity":0.3937007874015748},{"duration":0.12295075000000111,"midi":66,"time":90.50071715885416,"velocity":0.3937007874015748},{"duration":0.12295075000000111,"midi":61,"time":90.50071715885416,"velocity":0.3937007874015748},{"duration":0.12295075000000111,"midi":57,"time":90.50071715885416,"velocity":0.3937007874015748},{"duration":0.12295075000000111,"midi":66,"time":90.74661865885416,"velocity":0.3937007874015748},{"duration":0.12295075000000111,"midi":57,"time":90.74661865885416,"velocity":0.3937007874015748},{"duration":0.12295075000000111,"midi":61,"time":90.74661865885416,"velocity":0.3937007874015748},{"duration":0.12295075000000111,"midi":57,"time":90.99252015885416,"velocity":0.3937007874015748},{"duration":0.12295075000000111,"midi":61,"time":90.99252015885416,"velocity":0.3937007874015748},{"duration":0.12295075000000111,"midi":66,"time":90.99252015885416,"velocity":0.3937007874015748},{"duration":0.12295075000000111,"midi":59,"time":91.23842165885416,"velocity":0.3937007874015748},{"duration":0.24590150000000222,"midi":64,"time":91.23842165885416,"velocity":0.3937007874015748},{"duration":0.12295075000000111,"midi":56,"time":91.2486675546875,"velocity":0.3937007874015748},{"duration":0.12295075000000111,"midi":57,"time":91.73022465885415,"velocity":0.3937007874015748},{"duration":0.12295075000000111,"midi":62,"time":91.73022465885415,"velocity":0.3937007874015748},{"duration":0.12295075000000111,"midi":54,"time":91.73022465885415,"velocity":0.3937007874015748},{"duration":0.6147537500000055,"midi":59,"time":92.22202765885416,"velocity":0.3937007874015748},{"duration":0.7377045000000066,"midi":56,"time":92.22202765885416,"velocity":0.3937007874015748},{"duration":0.6147537500000055,"midi":64,"time":92.22202765885416,"velocity":0.3937007874015748},{"duration":0.4918029999999902,"midi":57,"time":93.2158795546875,"velocity":0.3937007874015748},{"duration":0.4918029999999902,"midi":61,"time":93.2158795546875,"velocity":0.3937007874015748},{"duration":0.12295075000000111,"midi":57,"time":93.94333815885416,"velocity":0.3937007874015748},{"duration":0.12295075000000111,"midi":61,"time":93.94333815885416,"velocity":0.3937007874015748},{"duration":0.12295075000000111,"midi":61,"time":94.18923965885416,"velocity":0.3937007874015748},{"duration":0.12295075000000111,"midi":64,"time":94.18923965885416,"velocity":0.3937007874015748},{"duration":0.12295075000000111,"midi":57,"time":94.18923965885416,"velocity":0.3937007874015748},{"duration":0.12295075000000111,"midi":57,"time":94.43514115885417,"velocity":0.3937007874015748},{"duration":0.12295075000000111,"midi":66,"time":94.43514115885417,"velocity":0.3937007874015748},{"duration":0.12295075000000111,"midi":61,"time":94.43514115885417,"velocity":0.3937007874015748},{"duration":0.12295075000000111,"midi":57,"time":94.68104265885415,"velocity":0.3937007874015748},{"duration":0.12295075000000111,"midi":61,"time":94.68104265885415,"velocity":0.3937007874015748},{"duration":0.061475375000000554,"midi":66,"time":94.68616560677084,"velocity":0.3937007874015748},{"duration":0.12295075000000111,"midi":66,"time":94.92694415885416,"velocity":0.3937007874015748},{"duration":0.12295075000000111,"midi":61,"time":94.92694415885416,"velocity":0.3937007874015748},{"duration":0.12295075000000111,"midi":57,"time":94.92694415885416,"velocity":0.3937007874015748},{"duration":0.12295075000000111,"midi":59,"time":95.17284565885416,"velocity":0.3937007874015748},{"duration":0.12295075000000111,"midi":56,"time":95.17796860677083,"velocity":0.3937007874015748},{"duration":0.12295075000000111,"midi":64,"time":95.18821450260415,"velocity":0.3937007874015748},{"duration":0.12295075000000111,"midi":54,"time":95.66464865885416,"velocity":0.3937007874015748},{"duration":0.12295075000000111,"midi":62,"time":95.66464865885416,"velocity":0.3937007874015748},{"duration":0.12295075000000111,"midi":57,"time":95.66464865885416,"velocity":0.3937007874015748},{"duration":0.8606552499999935,"midi":56,"time":96.15645165885417,"velocity":0.3937007874015748},{"duration":0.8606552499999935,"midi":59,"time":96.15645165885417,"velocity":0.3937007874015748},{"duration":0.7377044999999924,"midi":65,"time":96.15645165885417,"velocity":0.3937007874015748},{"duration":0.8606552499999935,"midi":66,"time":97.14005765885416,"velocity":0.3937007874015748},{"duration":0.8606552499999935,"midi":61,"time":97.14005765885416,"velocity":0.3937007874015748},{"duration":0.9836059999999947,"midi":57,"time":97.14518060677084,"velocity":0.3937007874015748},{"duration":0.12295075000000111,"midi":64,"time":98.36956515885416,"velocity":0.3937007874015748},{"duration":0.12295075000000111,"midi":62,"time":98.36956515885416,"velocity":0.3937007874015748},{"duration":0.12295075000000111,"midi":57,"time":98.36956515885416,"velocity":0.3937007874015748},{"duration":0.12295075000000111,"midi":69,"time":98.36956515885416,"velocity":0.3937007874015748},{"duration":0.24590150000000222,"midi":69,"time":98.61546665885416,"velocity":0.3937007874015748},{"duration":0.24590150000000222,"midi":57,"time":98.61546665885416,"velocity":0.3937007874015748},{"duration":0.12295075000000111,"midi":64,"time":98.61546665885416,"velocity":0.3937007874015748},{"duration":0.24590150000000222,"midi":62,"time":98.61546665885416,"velocity":0.3937007874015748},{"duration":0.12295075000000111,"midi":57,"time":99.10726965885416,"velocity":0.3937007874015748},{"duration":0.12295075000000111,"midi":62,"time":99.10726965885416,"velocity":0.3937007874015748},{"duration":0.12295075000000111,"midi":64,"time":99.10726965885416,"velocity":0.3937007874015748},{"duration":0.12295075000000111,"midi":69,"time":99.10726965885416,"velocity":0.3937007874015748},{"duration":0.1229507499999869,"midi":57,"time":99.35317115885417,"velocity":0.3937007874015748},{"duration":0.1229507499999869,"midi":64,"time":99.35317115885417,"velocity":0.3937007874015748},{"duration":0.1229507499999869,"midi":62,"time":99.35317115885417,"velocity":0.3937007874015748},{"duration":0.1229507499999869,"midi":69,"time":99.35317115885417,"velocity":0.3937007874015748},{"duration":0.24590150000000222,"midi":57,"time":99.59907265885415,"velocity":0.3937007874015748},{"duration":0.24590150000000222,"midi":69,"time":99.59907265885415,"velocity":0.3937007874015748},{"duration":0.24590150000000222,"midi":64,"time":99.59907265885415,"velocity":0.3937007874015748},{"duration":0.24590150000000222,"midi":62,"time":99.59907265885415,"velocity":0.3937007874015748},{"duration":0.12295075000000111,"midi":69,"time":100.09087565885416,"velocity":0.3937007874015748},{"duration":0.12295075000000111,"midi":64,"time":100.09087565885416,"velocity":0.3937007874015748},{"duration":0.12295075000000111,"midi":62,"time":100.09087565885416,"velocity":0.3937007874015748},{"duration":0.12295075000000111,"midi":57,"time":100.09087565885416,"velocity":0.3937007874015748},{"duration":0.12295075000000111,"midi":57,"time":100.33677715885416,"velocity":0.3937007874015748},{"duration":0.12295075000000111,"midi":62,"time":100.33677715885416,"velocity":0.3937007874015748},{"duration":0.12295075000000111,"midi":64,"time":100.33677715885416,"velocity":0.3937007874015748},{"duration":0.12295075000000111,"midi":69,"time":100.33677715885416,"velocity":0.3937007874015748},{"duration":0.24590150000000222,"midi":64,"time":100.58267865885416,"velocity":0.3937007874015748},{"duration":0.24590150000000222,"midi":57,"time":100.58267865885416,"velocity":0.3937007874015748},{"duration":0.24590150000000222,"midi":69,"time":100.58267865885416,"velocity":0.3937007874015748},{"duration":0.24590150000000222,"midi":62,"time":100.58267865885416,"velocity":0.3937007874015748},{"duration":0.12295075000000111,"midi":62,"time":101.07448165885415,"velocity":0.3937007874015748},{"duration":0.12295075000000111,"midi":69,"time":101.07448165885415,"velocity":0.3937007874015748},{"duration":0.12295075000000111,"midi":57,"time":101.07448165885415,"velocity":0.3937007874015748},{"duration":0.12295075000000111,"midi":64,"time":101.07448165885415,"velocity":0.3937007874015748},{"duration":0.24590150000000222,"midi":62,"time":101.32038315885416,"velocity":0.3937007874015748},{"duration":0.24590150000000222,"midi":69,"time":101.32038315885416,"velocity":0.3937007874015748},{"duration":0.24590150000000222,"midi":57,"time":101.32038315885416,"velocity":0.3937007874015748},{"duration":0.24590150000000222,"midi":64,"time":101.32038315885416,"velocity":0.3937007874015748},{"duration":0.12295075000000111,"midi":57,"time":102.30398915885416,"velocity":0.3937007874015748},{"duration":0.12295075000000111,"midi":61,"time":102.30398915885416,"velocity":0.3937007874015748},{"duration":0.12295075000000111,"midi":66,"time":102.30398915885416,"velocity":0.3937007874015748},{"duration":0.12295075000000111,"midi":57,"time":102.54989065885415,"velocity":0.3937007874015748},{"duration":0.12295075000000111,"midi":61,"time":102.54989065885415,"velocity":0.3937007874015748},{"duration":0.12295075000000111,"midi":61,"time":102.79579215885416,"velocity":0.3937007874015748},{"duration":0.12295075000000111,"midi":57,"time":102.79579215885416,"velocity":0.3937007874015748},{"duration":0.12295075000000111,"midi":66,"time":102.79579215885416,"velocity":0.3937007874015748},{"duration":0.24590150000000222,"midi":59,"time":103.04169365885416,"velocity":0.3937007874015748},{"duration":0.24590150000000222,"midi":56,"time":103.04169365885416,"velocity":0.3937007874015748},{"duration":0.12295075000000111,"midi":64,"time":103.0519395546875,"velocity":0.3937007874015748},{"duration":0.24590150000000222,"midi":57,"time":103.53349665885416,"velocity":0.3937007874015748},{"duration":0.24590150000000222,"midi":54,"time":103.53349665885416,"velocity":0.3937007874015748},{"duration":0.24590150000000222,"midi":62,"time":103.53349665885416,"velocity":0.3937007874015748},{"duration":0.6147537499999913,"midi":59,"time":104.02529965885417,"velocity":0.3937007874015748},{"duration":0.7377044999999924,"midi":64,"time":104.02529965885417,"velocity":0.3937007874015748},{"duration":0.7377044999999924,"midi":56,"time":104.02529965885417,"velocity":0.3937007874015748},{"duration":0.49180300000000443,"midi":57,"time":105.00890565885416,"velocity":0.3937007874015748},{"duration":0.49180300000000443,"midi":61,"time":105.00890565885416,"velocity":0.3937007874015748},{"duration":0.12295075000000111,"midi":61,"time":105.74148721093749,"velocity":0.3937007874015748},{"duration":0.12295075000000111,"midi":57,"time":105.74148721093749,"velocity":0.3937007874015748},{"duration":0.12295075000000111,"midi":61,"time":105.99251165885416,"velocity":0.3937007874015748},{"duration":0.12295075000000111,"midi":64,"time":105.99251165885416,"velocity":0.3937007874015748},{"duration":0.12295075000000111,"midi":57,"time":105.99251165885416,"velocity":0.3937007874015748},{"duration":0.12295075000000111,"midi":57,"time":106.23841315885416,"velocity":0.3937007874015748},{"duration":0.12295075000000111,"midi":66,"time":106.23841315885416,"velocity":0.3937007874015748},{"duration":0.12295075000000111,"midi":61,"time":106.23841315885416,"velocity":0.3937007874015748},{"duration":0.12295075000000111,"midi":61,"time":106.48431465885416,"velocity":0.3937007874015748},{"duration":0.12295075000000111,"midi":66,"time":106.48431465885416,"velocity":0.3937007874015748},{"duration":0.12295075000000111,"midi":57,"time":106.48431465885416,"velocity":0.3937007874015748},{"duration":0.12295075000000111,"midi":61,"time":106.73021615885416,"velocity":0.3937007874015748},{"duration":0.12295075000000111,"midi":57,"time":106.73021615885416,"velocity":0.3937007874015748},{"duration":0.12295075000000111,"midi":66,"time":106.73021615885416,"velocity":0.3937007874015748},{"duration":0.12295075000000111,"midi":59,"time":106.97611765885416,"velocity":0.3937007874015748},{"duration":0.12295075000000111,"midi":56,"time":106.97611765885416,"velocity":0.3937007874015748},{"duration":0.12295075000000111,"midi":64,"time":106.97611765885416,"velocity":0.3937007874015748},{"duration":0.12295075000000111,"midi":54,"time":107.46792065885415,"velocity":0.3937007874015748},{"duration":0.12295075000000111,"midi":57,"time":107.46792065885415,"velocity":0.3937007874015748},{"duration":0.12295075000000111,"midi":62,"time":107.46792065885415,"velocity":0.3937007874015748},{"duration":0.6147537500000055,"midi":59,"time":107.95972365885416,"velocity":0.3937007874015748},{"duration":0.7377045000000066,"midi":56,"time":107.95972365885416,"velocity":0.3937007874015748},{"duration":0.8606552500000078,"midi":64,"time":107.95972365885416,"velocity":0.3937007874015748},{"duration":0.49180300000000443,"midi":61,"time":108.94332965885415,"velocity":0.3937007874015748},{"duration":0.49180300000000443,"midi":57,"time":108.94332965885415,"velocity":0.3937007874015748},{"duration":0.12295075000000111,"midi":61,"time":109.68103415885416,"velocity":0.3937007874015748},{"duration":0.12295075000000111,"midi":57,"time":109.68103415885416,"velocity":0.3937007874015748},{"duration":0.12295075000000111,"midi":64,"time":109.9218127109375,"velocity":0.3937007874015748},{"duration":0.12295075000000111,"midi":61,"time":109.92693565885416,"velocity":0.3937007874015748},{"duration":0.12295075000000111,"midi":57,"time":109.92693565885416,"velocity":0.3937007874015748},{"duration":0.12295075000000111,"midi":61,"time":110.17283715885416,"velocity":0.3937007874015748},{"duration":0.12295075000000111,"midi":66,"time":110.17283715885416,"velocity":0.3937007874015748},{"duration":0.12295075000000111,"midi":57,"time":110.17283715885416,"velocity":0.3937007874015748},{"duration":0.12295075000000111,"midi":66,"time":110.41873865885415,"velocity":0.3937007874015748},{"duration":0.12295075000000111,"midi":61,"time":110.41873865885415,"velocity":0.3937007874015748},{"duration":0.12295075000000111,"midi":57,"time":110.41873865885415,"velocity":0.3937007874015748},{"duration":0.12295075000000111,"midi":66,"time":110.6595172109375,"velocity":0.3937007874015748},{"duration":0.12295075000000111,"midi":57,"time":110.66464015885416,"velocity":0.3937007874015748},{"duration":0.12295075000000111,"midi":61,"time":110.66464015885416,"velocity":0.3937007874015748},{"duration":0.12295075000000111,"midi":59,"time":110.91054165885416,"velocity":0.3937007874015748},{"duration":0.12295075000000111,"midi":64,"time":110.91054165885416,"velocity":0.3937007874015748},{"duration":0.12295075000000111,"midi":56,"time":110.91054165885416,"velocity":0.3937007874015748},{"duration":0.12295075000000111,"midi":54,"time":111.40234465885416,"velocity":0.3937007874015748},{"duration":0.12295075000000111,"midi":57,"time":111.40234465885416,"velocity":0.3937007874015748},{"duration":0.12295075000000111,"midi":62,"time":111.40234465885416,"velocity":0.3937007874015748},{"duration":0.7377044999999924,"midi":59,"time":111.89414765885417,"velocity":0.3937007874015748},{"duration":0.7377044999999924,"midi":65,"time":111.89414765885417,"velocity":0.3937007874015748},{"duration":0.7377044999999924,"midi":56,"time":111.89414765885417,"velocity":0.3937007874015748},{"duration":0.7377045000000066,"midi":66,"time":112.8879995546875,"velocity":0.3937007874015748},{"duration":0.7377045000000066,"midi":61,"time":112.89312250260416,"velocity":0.3937007874015748},{"duration":0.8606552500000078,"midi":57,"time":112.89824545052083,"velocity":0.3937007874015748},{"duration":0.12295075000000111,"midi":57,"time":114.10854189583334,"velocity":0.3937007874015748},{"duration":0.12295075000000111,"midi":69,"time":114.10854189583334,"velocity":0.3937007874015748},{"duration":0.12295075000000111,"midi":62,"time":114.10854189583334,"velocity":0.3937007874015748},{"duration":0.12295075000000111,"midi":64,"time":114.10854189583334,"velocity":0.3937007874015748},{"duration":0.24590150000000222,"midi":57,"time":114.35444339583333,"velocity":0.3937007874015748},{"duration":0.24590150000000222,"midi":62,"time":114.35444339583333,"velocity":0.3937007874015748},{"duration":0.24590150000000222,"midi":69,"time":114.35444339583333,"velocity":0.3937007874015748},{"duration":0.24590150000000222,"midi":64,"time":114.35444339583333,"velocity":0.3937007874015748},{"duration":0.12295075000000111,"midi":57,"time":114.84624639583333,"velocity":0.3937007874015748},{"duration":0.12295075000000111,"midi":64,"time":114.84624639583333,"velocity":0.3937007874015748},{"duration":0.12295075000000111,"midi":62,"time":114.84624639583333,"velocity":0.3937007874015748},{"duration":0.12295075000000111,"midi":69,"time":114.84624639583333,"velocity":0.3937007874015748},{"duration":0.12295075000000111,"midi":62,"time":115.09214789583334,"velocity":0.3937007874015748},{"duration":0.12295075000000111,"midi":57,"time":115.09214789583334,"velocity":0.3937007874015748},{"duration":0.12295075000000111,"midi":64,"time":115.09214789583334,"velocity":0.3937007874015748},{"duration":0.12295075000000111,"midi":69,"time":115.09214789583334,"velocity":0.3937007874015748},{"duration":0.24590150000000222,"midi":57,"time":115.33804939583334,"velocity":0.3937007874015748},{"duration":0.24590150000000222,"midi":69,"time":115.33804939583334,"velocity":0.3937007874015748},{"duration":0.24590150000000222,"midi":64,"time":115.33804939583334,"velocity":0.3937007874015748},{"duration":0.24590150000000222,"midi":62,"time":115.33804939583334,"velocity":0.3937007874015748},{"duration":0.1229507499999869,"midi":69,"time":115.82985239583334,"velocity":0.3937007874015748},{"duration":0.1229507499999869,"midi":62,"time":115.82985239583334,"velocity":0.3937007874015748},{"duration":0.1229507499999869,"midi":57,"time":115.82985239583334,"velocity":0.3937007874015748},{"duration":0.1229507499999869,"midi":64,"time":115.82985239583334,"velocity":0.3937007874015748},{"duration":0.12295075000000111,"midi":64,"time":116.07575389583333,"velocity":0.3937007874015748},{"duration":0.12295075000000111,"midi":69,"time":116.07575389583333,"velocity":0.3937007874015748},{"duration":0.12295075000000111,"midi":62,"time":116.07575389583333,"velocity":0.3937007874015748},{"duration":0.12295075000000111,"midi":57,"time":116.07575389583333,"velocity":0.3937007874015748},{"duration":0.24590150000000222,"midi":62,"time":116.32165539583333,"velocity":0.3937007874015748},{"duration":0.24590150000000222,"midi":64,"time":116.32165539583333,"velocity":0.3937007874015748},{"duration":0.24590150000000222,"midi":69,"time":116.32165539583333,"velocity":0.3937007874015748},{"duration":0.24590150000000222,"midi":57,"time":116.32165539583333,"velocity":0.3937007874015748},{"duration":0.12295075000000111,"midi":69,"time":116.80833544791666,"velocity":0.3937007874015748},{"duration":0.12295075000000111,"midi":57,"time":116.80833544791666,"velocity":0.3937007874015748},{"duration":0.12295075000000111,"midi":64,"time":116.81345839583334,"velocity":0.3937007874015748},{"duration":0.12295075000000111,"midi":62,"time":116.81345839583334,"velocity":0.3937007874015748},{"duration":0.24590150000000222,"midi":62,"time":117.05935989583334,"velocity":0.3937007874015748},{"duration":0.24590150000000222,"midi":57,"time":117.05935989583334,"velocity":0.3937007874015748},{"duration":0.24590150000000222,"midi":64,"time":117.05935989583334,"velocity":0.3937007874015748},{"duration":0.24590150000000222,"midi":69,"time":117.05935989583334,"velocity":0.3937007874015748},{"duration":0.12295075000000111,"midi":66,"time":118.28886739583334,"velocity":0.3937007874015748},{"duration":0.12295075000000111,"midi":62,"time":118.28886739583334,"velocity":0.3937007874015748},{"duration":0.12295075000000111,"midi":62,"time":118.78067039583334,"velocity":0.3937007874015748},{"duration":0.12295075000000111,"midi":66,"time":118.78067039583334,"velocity":0.3937007874015748},{"duration":0.12295075000000111,"midi":62,"time":119.27759634374999,"velocity":0.3937007874015748},{"duration":0.1229507499999869,"midi":66,"time":119.28271929166667,"velocity":0.3937007874015748},{"duration":0.12295075000000111,"midi":62,"time":119.76939934375,"velocity":0.3937007874015748},{"duration":0.12295075000000111,"midi":66,"time":119.76939934375,"velocity":0.3937007874015748},{"duration":0.12295075000000111,"midi":61,"time":120.25607939583334,"velocity":0.3937007874015748},{"duration":0.12295075000000111,"midi":64,"time":120.25607939583334,"velocity":0.3937007874015748},{"duration":0.12295075000000111,"midi":61,"time":120.74788239583333,"velocity":0.3937007874015748},{"duration":0.12295075000000111,"midi":64,"time":120.74788239583333,"velocity":0.3937007874015748},{"duration":0.12295075000000111,"midi":61,"time":121.23968539583333,"velocity":0.3937007874015748},{"duration":0.12295075000000111,"midi":64,"time":121.23968539583333,"velocity":0.3937007874015748},{"duration":0.12295075000000111,"midi":64,"time":121.73148839583334,"velocity":0.3937007874015748},{"duration":0.12295075000000111,"midi":61,"time":121.73661134375,"velocity":0.3937007874015748},{"duration":0.12295075000000111,"midi":62,"time":122.21816844791665,"velocity":0.3937007874015748},{"duration":0.12295075000000111,"midi":66,"time":122.21816844791665,"velocity":0.3937007874015748},{"duration":0.12295075000000111,"midi":66,"time":122.71509439583333,"velocity":0.3937007874015748},{"duration":0.12295075000000111,"midi":62,"time":122.71509439583333,"velocity":0.3937007874015748},{"duration":0.12295075000000111,"midi":62,"time":123.20689739583334,"velocity":0.3937007874015748},{"duration":0.12295075000000111,"midi":66,"time":123.20689739583334,"velocity":0.3937007874015748},{"duration":0.1229507499999869,"midi":66,"time":123.69870039583334,"velocity":0.3937007874015748},{"duration":0.1229507499999869,"midi":62,"time":123.69870039583334,"velocity":0.3937007874015748},{"duration":0.12295075000000111,"midi":61,"time":124.18538044791666,"velocity":0.3937007874015748},{"duration":0.12295075000000111,"midi":64,"time":124.18538044791666,"velocity":0.3937007874015748},{"duration":0.12295075000000111,"midi":64,"time":124.67718344791666,"velocity":0.3937007874015748},{"duration":0.12295075000000111,"midi":61,"time":124.68230639583334,"velocity":0.3937007874015748},{"duration":0.12295075000000111,"midi":64,"time":125.17410939583334,"velocity":0.3937007874015748},{"duration":0.12295075000000111,"midi":61,"time":125.17410939583334,"velocity":0.3937007874015748},{"duration":0.12295075000000111,"midi":61,"time":125.66078944791666,"velocity":0.3937007874015748},{"duration":0.12295075000000111,"midi":64,"time":125.66591239583333,"velocity":0.3937007874015748},{"duration":0.12295075000000111,"midi":62,"time":126.15771539583332,"velocity":0.3937007874015748},{"duration":0.12295075000000111,"midi":66,"time":126.15771539583332,"velocity":0.3937007874015748},{"duration":0.12295075000000111,"midi":62,"time":126.63799176302082,"velocity":0.3937007874015748},{"duration":0.12295075000000111,"midi":66,"time":126.64439544791668,"velocity":0.3937007874015748},{"duration":0.12295075000000111,"midi":62,"time":127.13619844791667,"velocity":0.3937007874015748},{"duration":0.12295075000000111,"midi":66,"time":127.14132139583332,"velocity":0.3937007874015748},{"duration":0.12295075000000111,"midi":66,"time":127.63312439583332,"velocity":0.3937007874015748},{"duration":0.12295075000000111,"midi":62,"time":127.63312439583332,"velocity":0.3937007874015748},{"duration":0.12295075000000111,"midi":61,"time":128.1249273958333,"velocity":0.3937007874015748},{"duration":0.12295075000000111,"midi":64,"time":128.1249273958333,"velocity":0.3937007874015748},{"duration":0.12295075000000111,"midi":64,"time":128.61673039583332,"velocity":0.3937007874015748},{"duration":0.12295075000000111,"midi":61,"time":128.61673039583332,"velocity":0.3937007874015748},{"duration":0.12295075000000111,"midi":61,"time":129.12390223958332,"velocity":0.3937007874015748},{"duration":0.12295075000000111,"midi":64,"time":129.12390223958332,"velocity":0.3937007874015748},{"duration":0.12295075000000111,"midi":64,"time":129.59649418489582,"velocity":0.3937007874015748},{"duration":0.12295075000000111,"midi":61,"time":129.59649418489582,"velocity":0.3937007874015748},{"duration":0.12295075000000111,"midi":64,"time":130.0934201328125,"velocity":0.3937007874015748},{"duration":0.12295075000000111,"midi":69,"time":130.0934201328125,"velocity":0.3937007874015748},{"duration":0.12295075000000111,"midi":69,"time":130.5852231328125,"velocity":0.3937007874015748},{"duration":0.12295075000000111,"midi":64,"time":130.5852231328125,"velocity":0.3937007874015748},{"duration":0.12295075000000111,"midi":69,"time":131.0770261328125,"velocity":0.3937007874015748},{"duration":0.12295075000000111,"midi":64,"time":131.0770261328125,"velocity":0.3937007874015748},{"duration":0.12295075000000111,"midi":64,"time":131.5688291328125,"velocity":0.3937007874015748},{"duration":0.12295075000000111,"midi":69,"time":131.57395208072919,"velocity":0.3937007874015748},{"duration":0.12295075000000111,"midi":69,"time":132.06575508072916,"velocity":0.3937007874015748},{"duration":0.12295075000000111,"midi":64,"time":132.06575508072916,"velocity":0.3937007874015748},{"duration":0.12295075000000111,"midi":64,"time":132.5678039765625,"velocity":0.3937007874015748},{"duration":0.12295075000000111,"midi":69,"time":132.57292692447916,"velocity":0.3937007874015748},{"duration":0.12295075000000111,"midi":69,"time":133.05448402864582,"velocity":0.3937007874015748},{"duration":0.12295075000000111,"midi":64,"time":133.05448402864582,"velocity":0.3937007874015748},{"duration":0.12295075000000111,"midi":66,"time":134.0278441328125,"velocity":0.3937007874015748},{"duration":0.12295075000000111,"midi":62,"time":134.0278441328125,"velocity":0.3937007874015748},{"duration":0.12295075000000111,"midi":62,"time":134.5196471328125,"velocity":0.3937007874015748},{"duration":0.12295075000000111,"midi":66,"time":134.5196471328125,"velocity":0.3937007874015748},{"duration":0.12295075000000111,"midi":62,"time":135.01657308072916,"velocity":0.3937007874015748},{"duration":0.12295074999997269,"midi":66,"time":135.02169602864583,"velocity":0.3937007874015748},{"duration":0.12295075000000111,"midi":62,"time":135.50837608072916,"velocity":0.3937007874015748},{"duration":0.12295075000000111,"midi":66,"time":135.50837608072916,"velocity":0.3937007874015748},{"duration":0.12295075000000111,"midi":64,"time":135.9950561328125,"velocity":0.3937007874015748},{"duration":0.12295075000000111,"midi":61,"time":135.9950561328125,"velocity":0.3937007874015748},{"duration":0.12295075000000111,"midi":61,"time":136.4868591328125,"velocity":0.3937007874015748},{"duration":0.12295075000000111,"midi":64,"time":136.4868591328125,"velocity":0.3937007874015748},{"duration":0.12295075000000111,"midi":61,"time":136.9786621328125,"velocity":0.3937007874015748},{"duration":0.12295075000000111,"midi":64,"time":136.9786621328125,"velocity":0.3937007874015748},{"duration":0.12295075000000111,"midi":64,"time":137.4704651328125,"velocity":0.3937007874015748},{"duration":0.12295075000000111,"midi":61,"time":137.47558808072918,"velocity":0.3937007874015748},{"duration":0.12295075000000111,"midi":66,"time":137.9571451848958,"velocity":0.3937007874015748},{"duration":0.12295075000000111,"midi":62,"time":137.9571451848958,"velocity":0.3937007874015748},{"duration":0.12295075000000111,"midi":66,"time":138.4540711328125,"velocity":0.3937007874015748},{"duration":0.12295075000000111,"midi":62,"time":138.4540711328125,"velocity":0.3937007874015748},{"duration":0.12295075000000111,"midi":66,"time":138.9458741328125,"velocity":0.3937007874015748},{"duration":0.12295075000000111,"midi":62,"time":138.9458741328125,"velocity":0.3937007874015748},{"duration":0.12295075000000111,"midi":62,"time":139.4376771328125,"velocity":0.3937007874015748},{"duration":0.12295075000000111,"midi":66,"time":139.4376771328125,"velocity":0.3937007874015748},{"duration":0.12295075000000111,"midi":61,"time":139.92435718489583,"velocity":0.3937007874015748},{"duration":0.12295075000000111,"midi":64,"time":139.92435718489583,"velocity":0.3937007874015748},{"duration":0.12295075000000111,"midi":64,"time":140.41616018489583,"velocity":0.3937007874015748},{"duration":0.12295075000000111,"midi":61,"time":140.4212831328125,"velocity":0.3937007874015748},{"duration":0.12295075000000111,"midi":61,"time":140.9130861328125,"velocity":0.3937007874015748},{"duration":0.12295075000000111,"midi":64,"time":140.9130861328125,"velocity":0.3937007874015748},{"duration":0.12295075000000111,"midi":61,"time":141.3997661848958,"velocity":0.3937007874015748},{"duration":0.12295075000000111,"midi":64,"time":141.40488913281249,"velocity":0.3937007874015748},{"duration":0.12295075000000111,"midi":62,"time":141.8966921328125,"velocity":0.3937007874015748},{"duration":0.12295075000000111,"midi":66,"time":141.8966921328125,"velocity":0.3937007874015748},{"duration":0.12295075000000111,"midi":62,"time":142.3769685,"velocity":0.3937007874015748},{"duration":0.12295075000000111,"midi":66,"time":142.38337218489582,"velocity":0.3937007874015748},{"duration":0.12295075000000111,"midi":62,"time":142.87517518489582,"velocity":0.3937007874015748},{"duration":0.12295075000000111,"midi":66,"time":142.8802981328125,"velocity":0.3937007874015748},{"duration":0.12295075000000111,"midi":66,"time":143.3721011328125,"velocity":0.3937007874015748},{"duration":0.12295075000000111,"midi":62,"time":143.3721011328125,"velocity":0.3937007874015748},{"duration":0.12295075000000111,"midi":61,"time":143.8639041328125,"velocity":0.3937007874015748},{"duration":0.12295075000000111,"midi":64,"time":143.8639041328125,"velocity":0.3937007874015748},{"duration":0.12295075000000111,"midi":64,"time":144.35570713281248,"velocity":0.3937007874015748},{"duration":0.12295075000000111,"midi":61,"time":144.35570713281248,"velocity":0.3937007874015748},{"duration":0.12295075000000111,"midi":64,"time":144.86287897656248,"velocity":0.3937007874015748},{"duration":0.12295075000000111,"midi":61,"time":144.86287897656248,"velocity":0.3937007874015748},{"duration":0.12295075000000111,"midi":61,"time":145.335470921875,"velocity":0.3937007874015748},{"duration":0.12295075000000111,"midi":64,"time":145.335470921875,"velocity":0.3937007874015748},{"duration":0.12295075000000111,"midi":69,"time":145.83239686979167,"velocity":0.3937007874015748},{"duration":0.12295075000000111,"midi":64,"time":145.83239686979167,"velocity":0.3937007874015748},{"duration":0.12295075000000111,"midi":69,"time":146.32419986979167,"velocity":0.3937007874015748},{"duration":0.12295075000000111,"midi":64,"time":146.32419986979167,"velocity":0.3937007874015748},{"duration":0.12295075000000111,"midi":64,"time":146.81600286979167,"velocity":0.3937007874015748},{"duration":0.12295075000000111,"midi":69,"time":146.81600286979167,"velocity":0.3937007874015748},{"duration":0.12295075000000111,"midi":64,"time":147.30780586979168,"velocity":0.3937007874015748},{"duration":0.12295075000000111,"midi":69,"time":147.31292881770833,"velocity":0.3937007874015748},{"duration":0.12295075000000111,"midi":64,"time":147.80473181770833,"velocity":0.3937007874015748},{"duration":0.12295075000000111,"midi":69,"time":147.80473181770833,"velocity":0.3937007874015748},{"duration":0.12295075000000111,"midi":64,"time":148.30678071354168,"velocity":0.3937007874015748},{"duration":0.12295075000000111,"midi":69,"time":148.31190366145833,"velocity":0.3937007874015748},{"duration":0.12295075000000111,"midi":69,"time":148.79346076562499,"velocity":0.3937007874015748},{"duration":0.12295075000000111,"midi":64,"time":148.79346076562499,"velocity":0.3937007874015748},{"duration":0.12295075000000111,"midi":57,"time":149.52091936979167,"velocity":0.3937007874015748},{"duration":0.12295075000000111,"midi":66,"time":149.52091936979167,"velocity":0.3937007874015748},{"duration":0.12295075000000111,"midi":61,"time":149.52091936979167,"velocity":0.3937007874015748},{"duration":0.12295075000000111,"midi":57,"time":149.76682086979167,"velocity":0.3937007874015748},{"duration":0.12295075000000111,"midi":61,"time":149.76682086979167,"velocity":0.3937007874015748},{"duration":0.12295075000000111,"midi":57,"time":150.01272236979167,"velocity":0.3937007874015748},{"duration":0.12295075000000111,"midi":61,"time":150.01272236979167,"velocity":0.3937007874015748},{"duration":0.12295075000000111,"midi":66,"time":150.01272236979167,"velocity":0.3937007874015748},{"duration":0.24590150000000222,"midi":56,"time":150.25862386979168,"velocity":0.3937007874015748},{"duration":0.24590150000000222,"midi":59,"time":150.25862386979168,"velocity":0.3937007874015748},{"duration":0.12295075000000111,"midi":64,"time":150.268869765625,"velocity":0.3937007874015748},{"duration":0.24590150000000222,"midi":54,"time":150.75042686979168,"velocity":0.3937007874015748},{"duration":0.24590150000000222,"midi":57,"time":150.75042686979168,"velocity":0.3937007874015748},{"duration":0.24590150000000222,"midi":62,"time":150.75042686979168,"velocity":0.3937007874015748},{"duration":0.6147537499999771,"midi":59,"time":151.2422298697917,"velocity":0.3937007874015748},{"duration":0.7377044999999782,"midi":64,"time":151.2422298697917,"velocity":0.3937007874015748},{"duration":0.7377044999999782,"midi":56,"time":151.2422298697917,"velocity":0.3937007874015748},{"duration":0.49180300000000443,"midi":57,"time":152.22583586979167,"velocity":0.3937007874015748},{"duration":0.49180300000000443,"midi":61,"time":152.22583586979167,"velocity":0.3937007874015748},{"duration":0.12295075000000111,"midi":57,"time":152.958417421875,"velocity":0.3937007874015748},{"duration":0.12295075000000111,"midi":61,"time":152.958417421875,"velocity":0.3937007874015748},{"duration":0.12295075000000111,"midi":57,"time":153.20944186979168,"velocity":0.3937007874015748},{"duration":0.12295075000000111,"midi":61,"time":153.20944186979168,"velocity":0.3937007874015748},{"duration":0.12295075000000111,"midi":64,"time":153.20944186979168,"velocity":0.3937007874015748},{"duration":0.12295075000000111,"midi":61,"time":153.45534336979168,"velocity":0.3937007874015748},{"duration":0.12295075000000111,"midi":66,"time":153.45534336979168,"velocity":0.3937007874015748},{"duration":0.12295075000000111,"midi":57,"time":153.45534336979168,"velocity":0.3937007874015748},{"duration":0.12295075000000111,"midi":57,"time":153.70124486979168,"velocity":0.3937007874015748},{"duration":0.12295075000000111,"midi":66,"time":153.70124486979168,"velocity":0.3937007874015748},{"duration":0.12295075000000111,"midi":61,"time":153.70124486979168,"velocity":0.3937007874015748},{"duration":0.12295075000000111,"midi":66,"time":153.94714636979168,"velocity":0.3937007874015748},{"duration":0.12295075000000111,"midi":61,"time":153.94714636979168,"velocity":0.3937007874015748},{"duration":0.12295075000000111,"midi":57,"time":153.94714636979168,"velocity":0.3937007874015748},{"duration":0.12295075000000111,"midi":64,"time":154.19304786979168,"velocity":0.3937007874015748},{"duration":0.12295075000000111,"midi":56,"time":154.19304786979168,"velocity":0.3937007874015748},{"duration":0.12295075000000111,"midi":59,"time":154.19304786979168,"velocity":0.3937007874015748},{"duration":0.12295075000000111,"midi":54,"time":154.68485086979166,"velocity":0.3937007874015748},{"duration":0.12295075000000111,"midi":57,"time":154.68485086979166,"velocity":0.3937007874015748},{"duration":0.12295075000000111,"midi":62,"time":154.68485086979166,"velocity":0.3937007874015748},{"duration":0.6147537500000055,"midi":59,"time":155.17665386979166,"velocity":0.3937007874015748},{"duration":0.7377045000000066,"midi":56,"time":155.17665386979166,"velocity":0.3937007874015748},{"duration":0.8606552500000078,"midi":64,"time":155.17665386979166,"velocity":0.3937007874015748},{"duration":0.49180300000000443,"midi":61,"time":156.16025986979167,"velocity":0.3937007874015748},{"duration":0.49180300000000443,"midi":57,"time":156.16025986979167,"velocity":0.3937007874015748},{"duration":0.12295075000000111,"midi":57,"time":156.89796436979168,"velocity":0.3937007874015748},{"duration":0.12295075000000111,"midi":61,"time":156.89796436979168,"velocity":0.3937007874015748},{"duration":0.12295075000000111,"midi":64,"time":157.138742921875,"velocity":0.3937007874015748},{"duration":0.12295075000000111,"midi":57,"time":157.14386586979168,"velocity":0.3937007874015748},{"duration":0.12295075000000111,"midi":61,"time":157.14386586979168,"velocity":0.3937007874015748},{"duration":0.12295075000000111,"midi":57,"time":157.38976736979168,"velocity":0.3937007874015748},{"duration":0.12295075000000111,"midi":61,"time":157.38976736979168,"velocity":0.3937007874015748},{"duration":0.12295075000000111,"midi":66,"time":157.38976736979168,"velocity":0.3937007874015748},{"duration":0.12295074999997269,"midi":66,"time":157.6356688697917,"velocity":0.3937007874015748},{"duration":0.12295074999997269,"midi":61,"time":157.6356688697917,"velocity":0.3937007874015748},{"duration":0.12295074999997269,"midi":57,"time":157.6356688697917,"velocity":0.3937007874015748},{"duration":0.12295075000000111,"midi":66,"time":157.87644742187499,"velocity":0.3937007874015748},{"duration":0.12295075000000111,"midi":57,"time":157.88157036979166,"velocity":0.3937007874015748},{"duration":0.12295075000000111,"midi":61,"time":157.88157036979166,"velocity":0.3937007874015748},{"duration":0.12295075000000111,"midi":59,"time":158.12747186979166,"velocity":0.3937007874015748},{"duration":0.12295075000000111,"midi":56,"time":158.12747186979166,"velocity":0.3937007874015748},{"duration":0.12295075000000111,"midi":64,"time":158.12747186979166,"velocity":0.3937007874015748},{"duration":0.12295075000000111,"midi":57,"time":158.61927486979167,"velocity":0.3937007874015748},{"duration":0.12295075000000111,"midi":62,"time":158.61927486979167,"velocity":0.3937007874015748},{"duration":0.12295075000000111,"midi":54,"time":158.61927486979167,"velocity":0.3937007874015748},{"duration":0.7377045000000066,"midi":59,"time":159.11107786979167,"velocity":0.3937007874015748},{"duration":0.7377045000000066,"midi":65,"time":159.11107786979167,"velocity":0.3937007874015748},{"duration":0.7377045000000066,"midi":56,"time":159.11107786979167,"velocity":0.3937007874015748},{"duration":0.7377045000000066,"midi":66,"time":160.104929765625,"velocity":0.3937007874015748},{"duration":0.7377045000000066,"midi":61,"time":160.11005271354168,"velocity":0.3937007874015748},{"duration":0.8606552500000078,"midi":57,"time":160.11517566145832,"velocity":0.3937007874015748},{"duration":0.12295075000000111,"midi":57,"time":161.32547210677083,"velocity":0.3937007874015748},{"duration":0.12295075000000111,"midi":69,"time":161.32547210677083,"velocity":0.3937007874015748},{"duration":0.12295075000000111,"midi":62,"time":161.32547210677083,"velocity":0.3937007874015748},{"duration":0.12295075000000111,"midi":64,"time":161.32547210677083,"velocity":0.3937007874015748},{"duration":0.2459014999999738,"midi":64,"time":161.57137360677083,"velocity":0.3937007874015748},{"duration":0.2459014999999738,"midi":57,"time":161.57137360677083,"velocity":0.3937007874015748},{"duration":0.2459014999999738,"midi":69,"time":161.57137360677083,"velocity":0.3937007874015748},{"duration":0.2459014999999738,"midi":62,"time":161.57137360677083,"velocity":0.3937007874015748},{"duration":0.12295075000000111,"midi":57,"time":162.0631766067708,"velocity":0.3937007874015748},{"duration":0.12295075000000111,"midi":64,"time":162.0631766067708,"velocity":0.3937007874015748},{"duration":0.12295075000000111,"midi":62,"time":162.0631766067708,"velocity":0.3937007874015748},{"duration":0.12295075000000111,"midi":69,"time":162.0631766067708,"velocity":0.3937007874015748},{"duration":0.12295075000000111,"midi":62,"time":162.3090781067708,"velocity":0.3937007874015748},{"duration":0.12295075000000111,"midi":57,"time":162.3090781067708,"velocity":0.3937007874015748},{"duration":0.12295075000000111,"midi":64,"time":162.3090781067708,"velocity":0.3937007874015748},{"duration":0.12295075000000111,"midi":69,"time":162.3090781067708,"velocity":0.3937007874015748},{"duration":0.24590150000000222,"midi":69,"time":162.55497960677081,"velocity":0.3937007874015748},{"duration":0.24590150000000222,"midi":64,"time":162.55497960677081,"velocity":0.3937007874015748},{"duration":0.24590150000000222,"midi":62,"time":162.55497960677081,"velocity":0.3937007874015748},{"duration":0.24590150000000222,"midi":57,"time":162.55497960677081,"velocity":0.3937007874015748},{"duration":0.12295075000000111,"midi":69,"time":163.04678260677082,"velocity":0.3937007874015748},{"duration":0.12295075000000111,"midi":62,"time":163.04678260677082,"velocity":0.3937007874015748},{"duration":0.12295075000000111,"midi":57,"time":163.04678260677082,"velocity":0.3937007874015748},{"duration":0.12295075000000111,"midi":64,"time":163.04678260677082,"velocity":0.3937007874015748},{"duration":0.12295075000000111,"midi":64,"time":163.29268410677082,"velocity":0.3937007874015748},{"duration":0.12295075000000111,"midi":69,"time":163.29268410677082,"velocity":0.3937007874015748},{"duration":0.12295075000000111,"midi":62,"time":163.29268410677082,"velocity":0.3937007874015748},{"duration":0.12295075000000111,"midi":57,"time":163.29268410677082,"velocity":0.3937007874015748},{"duration":0.24590150000000222,"midi":69,"time":163.53858560677082,"velocity":0.3937007874015748},{"duration":0.24590150000000222,"midi":62,"time":163.53858560677082,"velocity":0.3937007874015748},{"duration":0.24590150000000222,"midi":64,"time":163.53858560677082,"velocity":0.3937007874015748},{"duration":0.24590150000000222,"midi":57,"time":163.53858560677082,"velocity":0.3937007874015748},{"duration":0.12295075000000111,"midi":57,"time":164.02526565885418,"velocity":0.3937007874015748},{"duration":0.12295075000000111,"midi":69,"time":164.02526565885418,"velocity":0.3937007874015748},{"duration":0.12295075000000111,"midi":64,"time":164.03038860677083,"velocity":0.3937007874015748},{"duration":0.12295075000000111,"midi":62,"time":164.03038860677083,"velocity":0.3937007874015748},{"duration":0.24590150000000222,"midi":64,"time":164.27629010677083,"velocity":0.3937007874015748},{"duration":0.24590150000000222,"midi":57,"time":164.27629010677083,"velocity":0.3937007874015748},{"duration":0.24590150000000222,"midi":69,"time":164.27629010677083,"velocity":0.3937007874015748},{"duration":0.24590150000000222,"midi":62,"time":164.27629010677083,"velocity":0.3937007874015748},{"duration":0.12295075000000111,"midi":62,"time":165.5057976067708,"velocity":0.3937007874015748},{"duration":0.12295075000000111,"midi":66,"time":165.5057976067708,"velocity":0.3937007874015748},{"duration":0.12295075000000111,"midi":62,"time":165.99760060677082,"velocity":0.3937007874015748},{"duration":0.12295075000000111,"midi":66,"time":165.99760060677082,"velocity":0.3937007874015748},{"duration":0.12295075000000111,"midi":62,"time":166.4945265546875,"velocity":0.3937007874015748},{"duration":0.12295075000000111,"midi":66,"time":166.49964950260417,"velocity":0.3937007874015748},{"duration":0.12295075000000111,"midi":62,"time":166.9863295546875,"velocity":0.3937007874015748},{"duration":0.12295075000000111,"midi":66,"time":166.9863295546875,"velocity":0.3937007874015748},{"duration":0.12295075000000111,"midi":61,"time":167.47300960677083,"velocity":0.3937007874015748},{"duration":0.12295075000000111,"midi":64,"time":167.47300960677083,"velocity":0.3937007874015748},{"duration":0.12295074999997269,"midi":61,"time":167.96481260677083,"velocity":0.3937007874015748},{"duration":0.12295074999997269,"midi":64,"time":167.96481260677083,"velocity":0.3937007874015748},{"duration":0.12295075000000111,"midi":61,"time":168.4566156067708,"velocity":0.3937007874015748},{"duration":0.12295075000000111,"midi":64,"time":168.4566156067708,"velocity":0.3937007874015748},{"duration":0.12295075000000111,"midi":64,"time":168.94841860677082,"velocity":0.3937007874015748},{"duration":0.12295075000000111,"midi":61,"time":168.9535415546875,"velocity":0.3937007874015748},{"duration":0.12295075000000111,"midi":62,"time":169.43509865885417,"velocity":0.3937007874015748},{"duration":0.12295075000000111,"midi":66,"time":169.43509865885417,"velocity":0.3937007874015748},{"duration":0.12295075000000111,"midi":66,"time":169.93202460677082,"velocity":0.3937007874015748},{"duration":0.12295075000000111,"midi":62,"time":169.93202460677082,"velocity":0.3937007874015748},{"duration":0.12295075000000111,"midi":62,"time":170.42382760677083,"velocity":0.3937007874015748},{"duration":0.12295075000000111,"midi":66,"time":170.42382760677083,"velocity":0.3937007874015748},{"duration":0.12295075000000111,"midi":66,"time":170.91563060677083,"velocity":0.3937007874015748},{"duration":0.12295075000000111,"midi":62,"time":170.91563060677083,"velocity":0.3937007874015748},{"duration":0.12295075000000111,"midi":61,"time":171.40231065885416,"velocity":0.3937007874015748},{"duration":0.12295075000000111,"midi":64,"time":171.40231065885416,"velocity":0.3937007874015748},{"duration":0.12295075000000111,"midi":64,"time":171.89411365885417,"velocity":0.3937007874015748},{"duration":0.12295075000000111,"midi":61,"time":171.8992366067708,"velocity":0.3937007874015748},{"duration":0.12295075000000111,"midi":64,"time":172.39103960677082,"velocity":0.3937007874015748},{"duration":0.12295075000000111,"midi":61,"time":172.39103960677082,"velocity":0.3937007874015748},{"duration":0.12295075000000111,"midi":61,"time":172.87771965885418,"velocity":0.3937007874015748},{"duration":0.12295075000000111,"midi":64,"time":172.88284260677082,"velocity":0.3937007874015748},{"duration":0.12295075000000111,"midi":62,"time":173.37464560677083,"velocity":0.3937007874015748},{"duration":0.12295075000000111,"midi":66,"time":173.37464560677083,"velocity":0.3937007874015748},{"duration":0.12295075000000111,"midi":62,"time":173.8549219739583,"velocity":0.3937007874015748},{"duration":0.12295075000000111,"midi":66,"time":173.86132565885418,"velocity":0.3937007874015748},{"duration":0.12295075000000111,"midi":62,"time":174.35312865885416,"velocity":0.3937007874015748},{"duration":0.12295075000000111,"midi":66,"time":174.3582516067708,"velocity":0.3937007874015748},{"duration":0.12295075000000111,"midi":66,"time":174.8500546067708,"velocity":0.3937007874015748},{"duration":0.12295075000000111,"midi":62,"time":174.8500546067708,"velocity":0.3937007874015748},{"duration":0.12295075000000111,"midi":64,"time":175.34185760677082,"velocity":0.3937007874015748},{"duration":0.12295075000000111,"midi":61,"time":175.34185760677082,"velocity":0.3937007874015748},{"duration":0.12295075000000111,"midi":64,"time":175.83366060677082,"velocity":0.3937007874015748},{"duration":0.12295075000000111,"midi":61,"time":175.83366060677082,"velocity":0.3937007874015748},{"duration":0.12295075000000111,"midi":61,"time":176.34083245052082,"velocity":0.3937007874015748},{"duration":0.12295075000000111,"midi":64,"time":176.34083245052082,"velocity":0.3937007874015748},{"duration":0.12295075000000111,"midi":64,"time":176.81342439583332,"velocity":0.3937007874015748},{"duration":0.12295075000000111,"midi":61,"time":176.81342439583332,"velocity":0.3937007874015748},{"duration":0.12295075000000111,"midi":64,"time":177.31035034375,"velocity":0.3937007874015748},{"duration":0.12295075000000111,"midi":69,"time":177.31035034375,"velocity":0.3937007874015748},{"duration":0.12295075000000111,"midi":69,"time":177.80215334375,"velocity":0.3937007874015748},{"duration":0.12295075000000111,"midi":64,"time":177.80215334375,"velocity":0.3937007874015748},{"duration":0.12295075000000111,"midi":69,"time":178.29395634374998,"velocity":0.3937007874015748},{"duration":0.12295075000000111,"midi":64,"time":178.29395634374998,"velocity":0.3937007874015748},{"duration":0.12295075000000111,"midi":64,"time":178.78575934375,"velocity":0.3937007874015748},{"duration":0.12295075000000111,"midi":69,"time":178.79088229166666,"velocity":0.3937007874015748},{"duration":0.12295075000000111,"midi":69,"time":179.28268529166667,"velocity":0.3937007874015748},{"duration":0.12295075000000111,"midi":64,"time":179.28268529166667,"velocity":0.3937007874015748},{"duration":0.12295075000000111,"midi":64,"time":179.7847341875,"velocity":0.3937007874015748},{"duration":0.12295075000000111,"midi":69,"time":179.78985713541667,"velocity":0.3937007874015748},{"duration":0.12295075000000111,"midi":69,"time":180.27141423958332,"velocity":0.3937007874015748},{"duration":0.12295075000000111,"midi":64,"time":180.27141423958332,"velocity":0.3937007874015748},{"duration":0.12295075000000111,"midi":66,"time":181.24477434375,"velocity":0.3937007874015748},{"duration":0.12295075000000111,"midi":62,"time":181.24477434375,"velocity":0.3937007874015748},{"duration":0.12295075000000111,"midi":66,"time":181.73657734374999,"velocity":0.3937007874015748},{"duration":0.12295075000000111,"midi":62,"time":181.73657734374999,"velocity":0.3937007874015748},{"duration":0.12295075000000111,"midi":62,"time":182.23350329166666,"velocity":0.3937007874015748},{"duration":0.12295075000000111,"midi":66,"time":182.2386262395833,"velocity":0.3937007874015748},{"duration":0.12295075000000111,"midi":62,"time":182.72530629166667,"velocity":0.3937007874015748},{"duration":0.12295075000000111,"midi":66,"time":182.72530629166667,"velocity":0.3937007874015748},{"duration":0.12295075000000111,"midi":61,"time":183.21198634375,"velocity":0.3937007874015748},{"duration":0.12295075000000111,"midi":64,"time":183.21198634375,"velocity":0.3937007874015748},{"duration":0.12295075000000111,"midi":64,"time":183.70378934375,"velocity":0.3937007874015748},{"duration":0.12295075000000111,"midi":61,"time":183.70378934375,"velocity":0.3937007874015748},{"duration":0.12295075000000111,"midi":61,"time":184.19559234375,"velocity":0.3937007874015748},{"duration":0.12295075000000111,"midi":64,"time":184.19559234375,"velocity":0.3937007874015748},{"duration":0.12295075000000111,"midi":64,"time":184.68739534374998,"velocity":0.3937007874015748},{"duration":0.12295075000000111,"midi":61,"time":184.69251829166666,"velocity":0.3937007874015748},{"duration":0.12295075000000111,"midi":66,"time":185.1740753958333,"velocity":0.3937007874015748},{"duration":0.12295075000000111,"midi":62,"time":185.1740753958333,"velocity":0.3937007874015748},{"duration":0.12295075000000111,"midi":66,"time":185.67100134375,"velocity":0.3937007874015748},{"duration":0.12295075000000111,"midi":62,"time":185.67100134375,"velocity":0.3937007874015748},{"duration":0.12295075000000111,"midi":66,"time":186.16280434375,"velocity":0.3937007874015748},{"duration":0.12295075000000111,"midi":62,"time":186.16280434375,"velocity":0.3937007874015748},{"duration":0.12295075000000111,"midi":62,"time":186.65460734375,"velocity":0.3937007874015748},{"duration":0.12295075000000111,"midi":66,"time":186.65460734375,"velocity":0.3937007874015748},{"duration":0.12295075000000111,"midi":61,"time":187.14128739583333,"velocity":0.3937007874015748},{"duration":0.12295075000000111,"midi":64,"time":187.14128739583333,"velocity":0.3937007874015748},{"duration":0.12295075000000111,"midi":64,"time":187.6330903958333,"velocity":0.3937007874015748},{"duration":0.12295074999997269,"midi":61,"time":187.63821334375,"velocity":0.3937007874015748},{"duration":0.12295075000000111,"midi":61,"time":188.13001634375,"velocity":0.3937007874015748},{"duration":0.12295075000000111,"midi":64,"time":188.13001634375,"velocity":0.3937007874015748},{"duration":0.12295075000000111,"midi":61,"time":188.61669639583332,"velocity":0.3937007874015748},{"duration":0.12295075000000111,"midi":64,"time":188.62181934375,"velocity":0.3937007874015748},{"duration":0.12295075000000111,"midi":62,"time":189.11362234375,"velocity":0.3937007874015748},{"duration":0.12295075000000111,"midi":66,"time":189.11362234375,"velocity":0.3937007874015748},{"duration":0.12295075000000111,"midi":62,"time":189.5938987109375,"velocity":0.3937007874015748},{"duration":0.12295075000000111,"midi":66,"time":189.60030239583332,"velocity":0.3937007874015748},{"duration":0.12295075000000111,"midi":62,"time":190.09210539583333,"velocity":0.3937007874015748},{"duration":0.12295075000000111,"midi":66,"time":190.09722834375,"velocity":0.3937007874015748},{"duration":0.12295075000000111,"midi":66,"time":190.58903134375,"velocity":0.3937007874015748},{"duration":0.12295075000000111,"midi":62,"time":190.58903134375,"velocity":0.3937007874015748},{"duration":0.12295075000000111,"midi":61,"time":191.08083434374998,"velocity":0.3937007874015748},{"duration":0.12295075000000111,"midi":64,"time":191.08083434374998,"velocity":0.3937007874015748},{"duration":0.12295075000000111,"midi":64,"time":191.57263734375,"velocity":0.3937007874015748},{"duration":0.12295075000000111,"midi":61,"time":191.57263734375,"velocity":0.3937007874015748},{"duration":0.12295075000000111,"midi":61,"time":192.0798091875,"velocity":0.3937007874015748},{"duration":0.12295075000000111,"midi":64,"time":192.0798091875,"velocity":0.3937007874015748},{"duration":0.12295075000000111,"midi":61,"time":192.5524011328125,"velocity":0.3937007874015748},{"duration":0.12295075000000111,"midi":64,"time":192.5524011328125,"velocity":0.3937007874015748},{"duration":0.12295075000000111,"midi":69,"time":193.04932708072917,"velocity":0.3937007874015748},{"duration":0.12295075000000111,"midi":64,"time":193.04932708072917,"velocity":0.3937007874015748},{"duration":0.12295075000000111,"midi":69,"time":193.54113008072918,"velocity":0.3937007874015748},{"duration":0.12295075000000111,"midi":64,"time":193.54113008072918,"velocity":0.3937007874015748},{"duration":0.12295075000000111,"midi":64,"time":194.03293308072918,"velocity":0.3937007874015748},{"duration":0.12295075000000111,"midi":69,"time":194.03293308072918,"velocity":0.3937007874015748},{"duration":0.12295075000000111,"midi":64,"time":194.52473608072918,"velocity":0.3937007874015748},{"duration":0.12295075000000111,"midi":69,"time":194.52985902864583,"velocity":0.3937007874015748},{"duration":0.12295075000000111,"midi":64,"time":195.0216620286458,"velocity":0.3937007874015748},{"duration":0.12295075000000111,"midi":69,"time":195.0216620286458,"velocity":0.3937007874015748},{"duration":0.12295075000000111,"midi":64,"time":195.52371092447916,"velocity":0.3937007874015748},{"duration":0.12295075000000111,"midi":69,"time":195.5288338723958,"velocity":0.3937007874015748},{"duration":0.12295075000000111,"midi":69,"time":196.0103909765625,"velocity":0.3937007874015748},{"duration":0.12295075000000111,"midi":64,"time":196.0103909765625,"velocity":0.3937007874015748},{"duration":0.12295075000000111,"midi":62,"time":196.98375108072918,"velocity":0.3937007874015748},{"duration":0.12295075000000111,"midi":66,"time":196.98375108072918,"velocity":0.3937007874015748},{"duration":0.12295075000000111,"midi":66,"time":197.47555408072918,"velocity":0.3937007874015748},{"duration":0.12295075000000111,"midi":62,"time":197.47555408072918,"velocity":0.3937007874015748},{"duration":0.12295074999997269,"midi":62,"time":197.97248002864583,"velocity":0.3937007874015748},{"duration":0.12295075000000111,"midi":66,"time":197.9776029765625,"velocity":0.3937007874015748},{"duration":0.12295075000000111,"midi":62,"time":198.4642830286458,"velocity":0.3937007874015748},{"duration":0.12295075000000111,"midi":66,"time":198.4642830286458,"velocity":0.3937007874015748},{"duration":0.12295075000000111,"midi":61,"time":198.95096308072917,"velocity":0.3937007874015748},{"duration":0.12295075000000111,"midi":64,"time":198.95096308072917,"velocity":0.3937007874015748},{"duration":0.12295075000000111,"midi":61,"time":199.44276608072917,"velocity":0.3937007874015748},{"duration":0.12295075000000111,"midi":64,"time":199.44276608072917,"velocity":0.3937007874015748},{"duration":0.12295075000000111,"midi":61,"time":199.93456908072918,"velocity":0.3937007874015748},{"duration":0.12295075000000111,"midi":64,"time":199.93456908072918,"velocity":0.3937007874015748},{"duration":0.12295075000000111,"midi":64,"time":200.42637208072918,"velocity":0.3937007874015748},{"duration":0.12295075000000111,"midi":61,"time":200.43149502864583,"velocity":0.3937007874015748},{"duration":0.12295074999997269,"midi":62,"time":200.9130521328125,"velocity":0.3937007874015748},{"duration":0.12295074999997269,"midi":66,"time":200.9130521328125,"velocity":0.3937007874015748},{"duration":0.12295075000000111,"midi":66,"time":201.40997808072916,"velocity":0.3937007874015748},{"duration":0.12295075000000111,"midi":62,"time":201.40997808072916,"velocity":0.3937007874015748},{"duration":0.12295075000000111,"midi":62,"time":201.90178108072917,"velocity":0.3937007874015748},{"duration":0.12295075000000111,"midi":66,"time":201.90178108072917,"velocity":0.3937007874015748},{"duration":0.12295075000000111,"midi":62,"time":202.39358408072917,"velocity":0.3937007874015748},{"duration":0.12295075000000111,"midi":66,"time":202.39358408072917,"velocity":0.3937007874015748},{"duration":0.12295075000000111,"midi":61,"time":202.8802641328125,"velocity":0.3937007874015748},{"duration":0.12295075000000111,"midi":64,"time":202.8802641328125,"velocity":0.3937007874015748},{"duration":0.12295075000000111,"midi":64,"time":203.3720671328125,"velocity":0.3937007874015748},{"duration":0.12295075000000111,"midi":61,"time":203.37719008072918,"velocity":0.3937007874015748},{"duration":0.12295075000000111,"midi":61,"time":203.86899308072918,"velocity":0.3937007874015748},{"duration":0.12295075000000111,"midi":64,"time":203.86899308072918,"velocity":0.3937007874015748},{"duration":0.12295075000000111,"midi":61,"time":204.35567313281248,"velocity":0.3937007874015748},{"duration":0.12295075000000111,"midi":64,"time":204.36079608072916,"velocity":0.3937007874015748},{"duration":0.12295075000000111,"midi":66,"time":204.85259908072916,"velocity":0.3937007874015748},{"duration":0.12295075000000111,"midi":62,"time":204.85259908072916,"velocity":0.3937007874015748},{"duration":0.12295075000000111,"midi":62,"time":205.33287544791668,"velocity":0.3937007874015748},{"duration":0.12295075000000111,"midi":66,"time":205.3392791328125,"velocity":0.3937007874015748},{"duration":0.12295075000000111,"midi":62,"time":205.8310821328125,"velocity":0.3937007874015748},{"duration":0.12295075000000111,"midi":66,"time":205.83620508072917,"velocity":0.3937007874015748},{"duration":0.12295075000000111,"midi":66,"time":206.32800808072918,"velocity":0.3937007874015748},{"duration":0.12295075000000111,"midi":62,"time":206.32800808072918,"velocity":0.3937007874015748},{"duration":0.12295075000000111,"midi":64,"time":206.81981108072918,"velocity":0.3937007874015748},{"duration":0.12295075000000111,"midi":61,"time":206.81981108072918,"velocity":0.3937007874015748},{"duration":0.12295074999997269,"midi":61,"time":207.31161408072919,"velocity":0.3937007874015748},{"duration":0.12295074999997269,"midi":64,"time":207.31161408072919,"velocity":0.3937007874015748},{"duration":0.12295075000000111,"midi":61,"time":207.81878592447916,"velocity":0.3937007874015748},{"duration":0.12295075000000111,"midi":64,"time":207.81878592447916,"velocity":0.3937007874015748},{"duration":0.12295075000000111,"midi":61,"time":208.29137786979166,"velocity":0.3937007874015748},{"duration":0.12295075000000111,"midi":64,"time":208.29137786979166,"velocity":0.3937007874015748},{"duration":0.12295075000000111,"midi":69,"time":208.7883038177083,"velocity":0.3937007874015748},{"duration":0.12295075000000111,"midi":64,"time":208.7883038177083,"velocity":0.3937007874015748},{"duration":0.12295075000000111,"midi":69,"time":209.28010681770832,"velocity":0.3937007874015748},{"duration":0.12295075000000111,"midi":64,"time":209.28010681770832,"velocity":0.3937007874015748},{"duration":0.12295075000000111,"midi":69,"time":209.77190981770832,"velocity":0.3937007874015748},{"duration":0.12295075000000111,"midi":64,"time":209.77190981770832,"velocity":0.3937007874015748},{"duration":0.12295075000000111,"midi":64,"time":210.26371281770832,"velocity":0.3937007874015748},{"duration":0.12295075000000111,"midi":69,"time":210.268835765625,"velocity":0.3937007874015748},{"duration":0.12295075000000111,"midi":69,"time":210.760638765625,"velocity":0.3937007874015748},{"duration":0.12295075000000111,"midi":64,"time":210.760638765625,"velocity":0.3937007874015748},{"duration":0.12295075000000111,"midi":64,"time":211.26268766145833,"velocity":0.3937007874015748},{"duration":0.12295075000000111,"midi":69,"time":211.267810609375,"velocity":0.3937007874015748},{"duration":0.12295075000000111,"midi":69,"time":211.74936771354166,"velocity":0.3937007874015748},{"duration":0.12295075000000111,"midi":64,"time":211.74936771354166,"velocity":0.3937007874015748},{"duration":0.12295075000000111,"midi":66,"time":212.72272781770832,"velocity":0.3937007874015748},{"duration":0.12295075000000111,"midi":62,"time":212.72272781770832,"velocity":0.3937007874015748},{"duration":0.12295075000000111,"midi":66,"time":213.21453081770832,"velocity":0.3937007874015748},{"duration":0.12295075000000111,"midi":62,"time":213.21453081770832,"velocity":0.3937007874015748},{"duration":0.12295075000000111,"midi":62,"time":213.711456765625,"velocity":0.3937007874015748},{"duration":0.12295075000000111,"midi":66,"time":213.71657971354168,"velocity":0.3937007874015748},{"duration":0.12295075000000111,"midi":66,"time":214.203259765625,"velocity":0.3937007874015748},{"duration":0.12295075000000111,"midi":62,"time":214.203259765625,"velocity":0.3937007874015748},{"duration":0.12295075000000111,"midi":61,"time":214.6899398177083,"velocity":0.3937007874015748},{"duration":0.12295075000000111,"midi":64,"time":214.6899398177083,"velocity":0.3937007874015748},{"duration":0.12295075000000111,"midi":61,"time":215.1817428177083,"velocity":0.3937007874015748},{"duration":0.12295075000000111,"midi":64,"time":215.1817428177083,"velocity":0.3937007874015748},{"duration":0.12295075000000111,"midi":64,"time":215.67354581770832,"velocity":0.3937007874015748},{"duration":0.12295075000000111,"midi":61,"time":215.67354581770832,"velocity":0.3937007874015748},{"duration":0.12295075000000111,"midi":64,"time":216.16534881770832,"velocity":0.3937007874015748},{"duration":0.12295075000000111,"midi":61,"time":216.170471765625,"velocity":0.3937007874015748},{"duration":0.12295075000000111,"midi":66,"time":216.65202886979168,"velocity":0.3937007874015748},{"duration":0.12295075000000111,"midi":62,"time":216.65202886979168,"velocity":0.3937007874015748},{"duration":0.12295075000000111,"midi":66,"time":217.14895481770833,"velocity":0.3937007874015748},{"duration":0.12295075000000111,"midi":62,"time":217.14895481770833,"velocity":0.3937007874015748},{"duration":0.12295074999997269,"midi":66,"time":217.64075781770833,"velocity":0.3937007874015748},{"duration":0.12295074999997269,"midi":62,"time":217.64075781770833,"velocity":0.3937007874015748},{"duration":0.12295075000000111,"midi":66,"time":218.1325608177083,"velocity":0.3937007874015748},{"duration":0.12295075000000111,"midi":62,"time":218.1325608177083,"velocity":0.3937007874015748},{"duration":0.12295075000000111,"midi":64,"time":218.61924086979167,"velocity":0.3937007874015748},{"duration":0.12295075000000111,"midi":61,"time":218.61924086979167,"velocity":0.3937007874015748},{"duration":0.12295075000000111,"midi":64,"time":219.11104386979167,"velocity":0.3937007874015748},{"duration":0.12295075000000111,"midi":61,"time":219.11616681770832,"velocity":0.3937007874015748},{"duration":0.12295075000000111,"midi":61,"time":219.60796981770832,"velocity":0.3937007874015748},{"duration":0.12295075000000111,"midi":64,"time":219.60796981770832,"velocity":0.3937007874015748},{"duration":0.12295075000000111,"midi":61,"time":220.09464986979168,"velocity":0.3937007874015748},{"duration":0.12295075000000111,"midi":64,"time":220.09977281770833,"velocity":0.3937007874015748},{"duration":0.12295075000000111,"midi":66,"time":220.59157581770833,"velocity":0.3937007874015748},{"duration":0.12295075000000111,"midi":62,"time":220.59157581770833,"velocity":0.3937007874015748},{"duration":0.12295075000000111,"midi":62,"time":221.07185218489582,"velocity":0.3937007874015748},{"duration":0.12295075000000111,"midi":66,"time":221.07825586979166,"velocity":0.3937007874015748},{"duration":0.12295075000000111,"midi":62,"time":221.57005886979167,"velocity":0.3937007874015748},{"duration":0.12295075000000111,"midi":66,"time":221.5751818177083,"velocity":0.3937007874015748},{"duration":0.12295075000000111,"midi":66,"time":222.06698481770832,"velocity":0.3937007874015748},{"duration":0.12295075000000111,"midi":62,"time":222.06698481770832,"velocity":0.3937007874015748},{"duration":0.12295075000000111,"midi":61,"time":222.55878781770832,"velocity":0.3937007874015748},{"duration":0.12295075000000111,"midi":64,"time":222.55878781770832,"velocity":0.3937007874015748},{"duration":0.12295075000000111,"midi":61,"time":223.05059081770833,"velocity":0.3937007874015748},{"duration":0.12295075000000111,"midi":64,"time":223.05059081770833,"velocity":0.3937007874015748},{"duration":0.12295075000000111,"midi":64,"time":223.55776266145833,"velocity":0.3937007874015748},{"duration":0.12295075000000111,"midi":61,"time":223.55776266145833,"velocity":0.3937007874015748},{"duration":0.12295075000000111,"midi":61,"time":224.03035460677083,"velocity":0.3937007874015748},{"duration":0.12295075000000111,"midi":64,"time":224.03035460677083,"velocity":0.3937007874015748},{"duration":0.12295075000000111,"midi":64,"time":224.5272805546875,"velocity":0.3937007874015748},{"duration":0.12295075000000111,"midi":69,"time":224.5272805546875,"velocity":0.3937007874015748},{"duration":0.12295075000000111,"midi":64,"time":225.01908355468748,"velocity":0.3937007874015748},{"duration":0.12295075000000111,"midi":69,"time":225.01908355468748,"velocity":0.3937007874015748},{"duration":0.12295075000000111,"midi":69,"time":225.5108865546875,"velocity":0.3937007874015748},{"duration":0.12295075000000111,"midi":64,"time":225.5108865546875,"velocity":0.3937007874015748},{"duration":0.12295075000000111,"midi":64,"time":226.0026895546875,"velocity":0.3937007874015748},{"duration":0.12295075000000111,"midi":69,"time":226.00781250260417,"velocity":0.3937007874015748},{"duration":0.12295075000000111,"midi":64,"time":226.49961550260417,"velocity":0.3937007874015748},{"duration":0.12295075000000111,"midi":69,"time":226.49961550260417,"velocity":0.3937007874015748},{"duration":0.12295075000000111,"midi":64,"time":227.0016643984375,"velocity":0.3937007874015748},{"duration":0.12295075000000111,"midi":69,"time":227.00678734635417,"velocity":0.3937007874015748},{"duration":0.12295075000000111,"midi":69,"time":227.48834445052083,"velocity":0.3937007874015748},{"duration":0.12295075000000111,"midi":64,"time":227.48834445052083,"velocity":0.3937007874015748},{"duration":0.12295075000000111,"midi":61,"time":228.2260489505208,"velocity":0.3937007874015748},{"duration":0.12295075000000111,"midi":57,"time":228.2260489505208,"velocity":0.3937007874015748},{"duration":0.12295075000000111,"midi":38,"time":228.2260489505208,"velocity":0.3937007874015748},{"duration":0.12295075000000111,"midi":50,"time":228.2260489505208,"velocity":0.3937007874015748},{"duration":0.12295074999997269,"midi":66,"time":228.2311718984375,"velocity":0.3937007874015748},{"duration":0.061475375000014765,"midi":50,"time":228.4617045546875,"velocity":0.3937007874015748},{"duration":0.12295075000000111,"midi":66,"time":228.46682750260416,"velocity":0.3937007874015748},{"duration":0.12295075000000111,"midi":61,"time":228.46682750260416,"velocity":0.3937007874015748},{"duration":0.12295075000000111,"midi":57,"time":228.4719504505208,"velocity":0.3937007874015748},{"duration":0.12295075000000111,"midi":38,"time":228.47707339843748,"velocity":0.3937007874015748},{"duration":0.12295075000000111,"midi":57,"time":228.71272900260416,"velocity":0.3937007874015748},{"duration":0.12295075000000111,"midi":61,"time":228.71272900260416,"velocity":0.3937007874015748},{"duration":0.061475375000014765,"midi":66,"time":228.7178519505208,"velocity":0.3937007874015748},{"duration":0.12295075000000111,"midi":38,"time":228.7178519505208,"velocity":0.3937007874015748},{"duration":0.12295075000000111,"midi":50,"time":228.7178519505208,"velocity":0.3937007874015748},{"duration":0.12295075000000111,"midi":56,"time":228.95863050260417,"velocity":0.3937007874015748},{"duration":0.12295075000000111,"midi":59,"time":228.95863050260417,"velocity":0.3937007874015748},{"duration":0.12295075000000111,"midi":64,"time":228.95863050260417,"velocity":0.3937007874015748},{"duration":0.12295075000000111,"midi":49,"time":228.95863050260417,"velocity":0.3937007874015748},{"duration":0.12295075000000111,"midi":37,"time":228.9688763984375,"velocity":0.3937007874015748},{"duration":0.12295075000000111,"midi":49,"time":229.20453200260417,"velocity":0.3937007874015748},{"duration":0.12295075000000111,"midi":37,"time":229.2147778984375,"velocity":0.3937007874015748},{"duration":0.12423148697916986,"midi":47,"time":229.4453105546875,"velocity":0.3937007874015748},{"duration":0.12423148697914144,"midi":35,"time":229.45043350260417,"velocity":0.3937007874015748},{"duration":0.12423148697916986,"midi":57,"time":229.45555645052082,"velocity":0.3937007874015748},{"duration":0.12423148697916986,"midi":54,"time":229.4606793984375,"velocity":0.3937007874015748},{"duration":0.12423148697914144,"midi":62,"time":229.46580234635417,"velocity":0.3937007874015748},{"duration":0.12295075000000111,"midi":47,"time":229.7027386875,"velocity":0.3937007874015748},{"duration":0.12295075000000111,"midi":35,"time":229.70786163541666,"velocity":0.3937007874015748},{"duration":0.061475375000014765,"midi":47,"time":229.94351723958331,"velocity":0.3937007874015748},{"duration":0.7377045000000066,"midi":64,"time":229.94351723958331,"velocity":0.3937007874015748},{"duration":0.6147537500000055,"midi":56,"time":229.94351723958331,"velocity":0.3937007874015748},{"duration":0.12295075000000111,"midi":35,"time":229.9486401875,"velocity":0.3937007874015748},{"duration":0.6147537500000055,"midi":59,"time":229.9486401875,"velocity":0.3937007874015748},{"duration":0.12295075000000111,"midi":25,"time":230.18941873958332,"velocity":0.3937007874015748},{"duration":0.12295075000000111,"midi":37,"time":230.1945416875,"velocity":0.3937007874015748},{"duration":0.061475375000014765,"midi":38,"time":230.4404431875,"velocity":0.3937007874015748},{"duration":0.12295075000000111,"midi":28,"time":230.4404431875,"velocity":0.3937007874015748},{"duration":0.061475375000014765,"midi":40,"time":230.44556613541667,"velocity":0.3937007874015748},{"duration":0.12295075000000111,"midi":29,"time":230.67609879166667,"velocity":0.3937007874015748},{"duration":0.12295075000000111,"midi":41,"time":230.68122173958332,"velocity":0.3937007874015748},{"duration":0.12295075000000111,"midi":30,"time":230.92200029166668,"velocity":0.3937007874015748},{"duration":0.12295075000000111,"midi":42,"time":230.92200029166668,"velocity":0.3937007874015748},{"duration":0.49180300000000443,"midi":61,"time":230.92712323958332,"velocity":0.3937007874015748},{"duration":0.49180300000000443,"midi":57,"time":230.92712323958332,"velocity":0.3937007874015748},{"duration":0.3688522500000033,"midi":54,"time":230.92712323958332,"velocity":0.3937007874015748},{"duration":0.12295075000000111,"midi":30,"time":231.17302473958333,"velocity":0.3937007874015748},{"duration":0.06147537499998634,"midi":42,"time":231.18839358333332,"velocity":0.3937007874015748},{"duration":0.12295075000000111,"midi":30,"time":231.41892623958333,"velocity":0.3937007874015748},{"duration":0.12295075000000111,"midi":42,"time":231.42917213541668,"velocity":0.3937007874015748},{"duration":0.12295075000000111,"midi":42,"time":231.66482773958333,"velocity":0.3937007874015748},{"duration":0.24590150000000222,"midi":56,"time":231.6699506875,"velocity":0.3937007874015748},{"duration":0.12295075000000111,"midi":30,"time":231.67507363541668,"velocity":0.3937007874015748},{"duration":0.24590150000000222,"midi":64,"time":231.67507363541668,"velocity":0.3937007874015748},{"duration":0.12295075000000111,"midi":38,"time":231.9158521875,"velocity":0.3937007874015748},{"duration":0.12295075000000111,"midi":50,"time":231.9158521875,"velocity":0.3937007874015748},{"duration":0.12295074999997269,"midi":66,"time":232.16687663541668,"velocity":0.3937007874015748},{"duration":0.12295075000000111,"midi":57,"time":232.17199958333333,"velocity":0.3937007874015748},{"duration":0.12295075000000111,"midi":50,"time":232.17199958333333,"velocity":0.3937007874015748},{"duration":0.12295075000000111,"midi":38,"time":232.17199958333333,"velocity":0.3937007874015748},{"duration":0.12295075000000111,"midi":61,"time":232.17199958333333,"velocity":0.3937007874015748},{"duration":0.12295075000000111,"midi":50,"time":232.4025322395833,"velocity":0.3937007874015748},{"duration":0.12295075000000111,"midi":57,"time":232.40765518749998,"velocity":0.3937007874015748},{"duration":0.12295075000000111,"midi":61,"time":232.40765518749998,"velocity":0.3937007874015748},{"duration":0.12295075000000111,"midi":38,"time":232.40765518749998,"velocity":0.3937007874015748},{"duration":0.12295075000000111,"midi":66,"time":232.40765518749998,"velocity":0.3937007874015748},{"duration":0.12295075000000111,"midi":50,"time":232.6484337395833,"velocity":0.3937007874015748},{"duration":0.12295075000000111,"midi":66,"time":232.6535566875,"velocity":0.3937007874015748},{"duration":0.12295075000000111,"midi":38,"time":232.6535566875,"velocity":0.3937007874015748},{"duration":0.12295075000000111,"midi":61,"time":232.65867963541666,"velocity":0.3937007874015748},{"duration":0.12295075000000111,"midi":57,"time":232.6638025833333,"velocity":0.3937007874015748},{"duration":0.12295075000000111,"midi":49,"time":232.8943352395833,"velocity":0.3937007874015748},{"duration":0.12295075000000111,"midi":59,"time":232.8994581875,"velocity":0.3937007874015748},{"duration":0.12295075000000111,"midi":56,"time":232.8994581875,"velocity":0.3937007874015748},{"duration":0.12295075000000111,"midi":37,"time":232.90458113541666,"velocity":0.3937007874015748},{"duration":0.24718223697914254,"midi":64,"time":232.90458113541666,"velocity":0.3937007874015748},{"duration":0.12423148697916986,"midi":49,"time":233.13127158072916,"velocity":0.3937007874015748},{"duration":0.12423148697919828,"midi":37,"time":233.14151747656248,"velocity":0.3937007874015748},{"duration":0.12423148697916986,"midi":47,"time":233.37845381770833,"velocity":0.3937007874015748},{"duration":0.12423148697916986,"midi":35,"time":233.383576765625,"velocity":0.3937007874015748},{"duration":0.12423148697914144,"midi":62,"time":233.38869971354168,"velocity":0.3937007874015748},{"duration":0.12423148697914144,"midi":54,"time":233.38869971354168,"velocity":0.3937007874015748},{"duration":0.12423148697916986,"midi":57,"time":233.398945609375,"velocity":0.3937007874015748},{"duration":0.12295075000000111,"midi":35,"time":233.63075900260418,"velocity":0.3937007874015748},{"duration":0.12295075000000111,"midi":47,"time":233.63075900260418,"velocity":0.3937007874015748},{"duration":0.49308373697914476,"midi":56,"time":233.87666050260418,"velocity":0.3937007874015748},{"duration":0.12295075000000111,"midi":35,"time":233.87666050260418,"velocity":0.3937007874015748},{"duration":0.49308373697914476,"midi":64,"time":233.87666050260418,"velocity":0.3937007874015748},{"duration":0.06147537499998634,"midi":47,"time":233.87666050260418,"velocity":0.3937007874015748},{"duration":0.4930837369791732,"midi":59,"time":233.88178345052083,"velocity":0.3937007874015748},{"duration":0.12295075000000111,"midi":37,"time":234.12256200260418,"velocity":0.3937007874015748},{"duration":0.12295075000000111,"midi":25,"time":234.12768495052083,"velocity":0.3937007874015748},{"duration":0.12423148697919828,"midi":40,"time":234.3582176067708,"velocity":0.3937007874015748},{"duration":0.24718223697917097,"midi":28,"time":234.3748671875,"velocity":0.3937007874015748},{"duration":0.12295075000000111,"midi":29,"time":234.6169264765625,"velocity":0.3937007874015748},{"duration":0.12295075000000111,"midi":59,"time":234.62204942447917,"velocity":0.3937007874015748},{"duration":0.12295075000000111,"midi":64,"time":234.62204942447917,"velocity":0.3937007874015748},{"duration":0.12295075000000111,"midi":56,"time":234.62204942447917,"velocity":0.3937007874015748},{"duration":0.12295075000000111,"midi":41,"time":234.6322953203125,"velocity":0.3937007874015748},{"duration":0.12295075000000111,"midi":30,"time":234.8781968203125,"velocity":0.3937007874015748},{"duration":0.12295075000000111,"midi":42,"time":234.8781968203125,"velocity":0.3937007874015748},{"duration":0.12295075000000111,"midi":61,"time":235.11897537239582,"velocity":0.3937007874015748},{"duration":0.24590150000000222,"midi":66,"time":235.11897537239582,"velocity":0.3937007874015748},{"duration":0.12295075000000111,"midi":30,"time":235.1240983203125,"velocity":0.3937007874015748},{"duration":0.12295075000000111,"midi":57,"time":235.1240983203125,"velocity":0.3937007874015748},{"duration":0.06147537499998634,"midi":42,"time":235.12922126822917,"velocity":0.3937007874015748},{"duration":0.12295075000000111,"midi":30,"time":235.3699998203125,"velocity":0.3937007874015748},{"duration":0.12295075000000111,"midi":42,"time":235.3699998203125,"velocity":0.3937007874015748},{"duration":0.12295075000000111,"midi":73,"time":235.48270467447918,"velocity":0.3937007874015748},{"duration":0.12295075000000111,"midi":69,"time":235.48270467447918,"velocity":0.3937007874015748},{"duration":0.12295075000000111,"midi":66,"time":235.48270467447918,"velocity":0.3937007874015748},{"duration":0.12295075000000111,"midi":42,"time":235.61077837239583,"velocity":0.3937007874015748},{"duration":0.12295075000000111,"midi":30,"time":235.62102426822918,"velocity":0.3937007874015748},{"duration":0.3688522500000033,"midi":57,"time":235.84771471354168,"velocity":0.3937007874015748},{"duration":0.12295075000000111,"midi":50,"time":235.84771471354168,"velocity":0.3937007874015748},{"duration":0.3688522500000033,"midi":66,"time":235.84771471354168,"velocity":0.3937007874015748},{"duration":0.3688522500000033,"midi":61,"time":235.84771471354168,"velocity":0.3937007874015748},{"duration":0.12295075000000111,"midi":38,"time":235.85283766145832,"velocity":0.3937007874015748},{"duration":0.12295075000000111,"midi":38,"time":236.103862109375,"velocity":0.3937007874015748},{"duration":0.12295075000000111,"midi":50,"time":236.10898505729168,"velocity":0.3937007874015748},{"duration":0.12295075000000111,"midi":38,"time":236.33951771354168,"velocity":0.3937007874015748},{"duration":0.12295075000000111,"midi":50,"time":236.34464066145833,"velocity":0.3937007874015748},{"duration":0.12295075000000111,"midi":61,"time":236.34464066145833,"velocity":0.3937007874015748},{"duration":0.12295075000000111,"midi":57,"time":236.34464066145833,"velocity":0.3937007874015748},{"duration":0.12295075000000111,"midi":66,"time":236.349763609375,"velocity":0.3937007874015748},{"duration":0.12295075000000111,"midi":50,"time":236.58541921354168,"velocity":0.3937007874015748},{"duration":0.12295075000000111,"midi":66,"time":236.59054216145833,"velocity":0.3937007874015748},{"duration":0.12295075000000111,"midi":57,"time":236.59054216145833,"velocity":0.3937007874015748},{"duration":0.12295075000000111,"midi":61,"time":236.595665109375,"velocity":0.3937007874015748},{"duration":0.12295075000000111,"midi":38,"time":236.595665109375,"velocity":0.3937007874015748},{"duration":0.12295074999997269,"midi":59,"time":236.83644366145833,"velocity":0.3937007874015748},{"duration":0.2459014999999738,"midi":56,"time":236.83644366145833,"velocity":0.3937007874015748},{"duration":0.2459014999999738,"midi":64,"time":236.841566609375,"velocity":0.3937007874015748},{"duration":0.12295075000000111,"midi":49,"time":236.841566609375,"velocity":0.3937007874015748},{"duration":0.12295075000000111,"midi":37,"time":236.841566609375,"velocity":0.3937007874015748},{"duration":0.12295075000000111,"midi":49,"time":237.07209926562498,"velocity":0.3937007874015748},{"duration":0.12295075000000111,"midi":37,"time":237.07722221354166,"velocity":0.3937007874015748},{"duration":0.24590150000000222,"midi":54,"time":237.32312371354166,"velocity":0.3937007874015748},{"duration":0.12295075000000111,"midi":35,"time":237.32312371354166,"velocity":0.3937007874015748},{"duration":0.12295075000000111,"midi":47,"time":237.32312371354166,"velocity":0.3937007874015748},{"duration":0.12295075000000111,"midi":62,"time":237.3282466614583,"velocity":0.3937007874015748},{"duration":0.12295075000000111,"midi":57,"time":237.3282466614583,"velocity":0.3937007874015748},{"duration":0.061475375000014765,"midi":47,"time":237.5741481614583,"velocity":0.3937007874015748},{"duration":0.12295075000000111,"midi":35,"time":237.5741481614583,"velocity":0.3937007874015748},{"duration":0.24590150000000222,"midi":61,"time":237.80468081770832,"velocity":0.3937007874015748},{"duration":0.24590150000000222,"midi":64,"time":237.80468081770832,"velocity":0.3937007874015748},{"duration":0.12295075000000111,"midi":35,"time":237.8162074505208,"velocity":0.3937007874015748},{"duration":0.061475375000014765,"midi":47,"time":237.8162074505208,"velocity":0.3937007874015748},{"duration":0.12295075000000111,"midi":37,"time":238.05698600260416,"velocity":0.3937007874015748},{"duration":0.12295075000000111,"midi":25,"time":238.0621089505208,"velocity":0.3937007874015748},{"duration":0.12295075000000111,"midi":40,"time":238.28751865885417,"velocity":0.3937007874015748},{"duration":0.12295075000000111,"midi":64,"time":238.3080104505208,"velocity":0.3937007874015748},{"duration":0.24590150000000222,"midi":68,"time":238.3080104505208,"velocity":0.3937007874015748},{"duration":0.12295075000000111,"midi":28,"time":238.3131333984375,"velocity":0.3937007874015748},{"duration":0.12295075000000111,"midi":61,"time":238.3131333984375,"velocity":0.3937007874015748},{"duration":0.12295075000000111,"midi":29,"time":238.54878900260417,"velocity":0.3937007874015748},{"duration":0.12295075000000111,"midi":41,"time":238.5539119505208,"velocity":0.3937007874015748},{"duration":0.12423148697916986,"midi":30,"time":238.78828681770833,"velocity":0.3937007874015748},{"duration":0.12423148697914144,"midi":42,"time":238.79469050260417,"velocity":0.3937007874015748},{"duration":0.7389852369791754,"midi":61,"time":238.8049363984375,"velocity":0.3937007874015748},{"duration":0.7389852369791754,"midi":66,"time":238.8049363984375,"velocity":0.3937007874015748},{"duration":0.6160344869791459,"midi":57,"time":238.81005934635417,"velocity":0.3937007874015748},{"duration":0.12295075000000111,"midi":30,"time":239.03034610677082,"velocity":0.3937007874015748},{"duration":0.12295075000000111,"midi":42,"time":239.0354690546875,"velocity":0.3937007874015748},{"duration":0.12295075000000111,"midi":42,"time":239.27624760677082,"velocity":0.3937007874015748},{"duration":0.12295075000000111,"midi":30,"time":239.2877742395833,"velocity":0.3937007874015748},{"duration":0.061475375000014765,"midi":48,"time":239.5387986875,"velocity":0.3937007874015748},{"duration":0.12295075000000111,"midi":48,"time":239.6002740625,"velocity":0.3937007874015748},{"duration":0.12295075000000111,"midi":47,"time":239.76420839583332,"velocity":0.3937007874015748},{"duration":0.12295075000000111,"midi":45,"time":239.83080671874998,"velocity":0.3937007874015748},{"duration":0.12295075000000111,"midi":47,"time":240.02035579166667,"velocity":0.3937007874015748},{"duration":0.12295075000000111,"midi":69,"time":240.04597053125,"velocity":0.3937007874015748},{"duration":0.12295075000000111,"midi":62,"time":240.05109347916667,"velocity":0.3937007874015748},{"duration":0.12295075000000111,"midi":64,"time":240.05109347916667,"velocity":0.3937007874015748},{"duration":0.3688522500000033,"midi":59,"time":240.05109347916667,"velocity":0.3937007874015748},{"duration":0.3688522500000033,"midi":45,"time":240.07670821874999,"velocity":0.3937007874015748},{"duration":0.12295075000000111,"midi":69,"time":240.28162613541667,"velocity":0.3937007874015748},{"duration":0.12295075000000111,"midi":62,"time":240.29187203125,"velocity":0.3937007874015748},{"duration":0.12295075000000111,"midi":64,"time":240.29699497916667,"velocity":0.3937007874015748},{"duration":0.12295075000000111,"midi":69,"time":240.52752763541667,"velocity":0.3937007874015748},{"duration":0.12295075000000111,"midi":59,"time":240.53265058333332,"velocity":0.3937007874015748},{"duration":0.12295075000000111,"midi":64,"time":240.53777353125,"velocity":0.3937007874015748},{"duration":0.12295075000000111,"midi":62,"time":240.53777353125,"velocity":0.3937007874015748},{"duration":0.12295075000000111,"midi":69,"time":240.7683061875,"velocity":0.3937007874015748},{"duration":0.12295075000000111,"midi":59,"time":240.77342913541668,"velocity":0.3937007874015748},{"duration":0.12295075000000111,"midi":64,"time":240.77855208333332,"velocity":0.3937007874015748},{"duration":0.12295075000000111,"midi":62,"time":240.77855208333332,"velocity":0.3937007874015748},{"duration":0.12295075000000111,"midi":69,"time":241.00908473958333,"velocity":0.3937007874015748},{"duration":0.12295075000000111,"midi":64,"time":241.0142076875,"velocity":0.3937007874015748},{"duration":0.12295075000000111,"midi":62,"time":241.01933063541668,"velocity":0.3937007874015748},{"duration":0.12295075000000111,"midi":59,"time":241.01933063541668,"velocity":0.3937007874015748},{"duration":0.12295075000000111,"midi":69,"time":241.26523213541668,"velocity":0.3937007874015748},{"duration":0.12295075000000111,"midi":64,"time":241.27035508333333,"velocity":0.3937007874015748},{"duration":0.12295075000000111,"midi":62,"time":241.27035508333333,"velocity":0.3937007874015748},{"duration":0.12295075000000111,"midi":59,"time":241.27035508333333,"velocity":0.3937007874015748},{"duration":0.2459014999999738,"midi":69,"time":241.51113363541668,"velocity":0.3937007874015748},{"duration":0.24590150000000222,"midi":59,"time":241.51625658333333,"velocity":0.3937007874015748},{"duration":0.12295075000000111,"midi":62,"time":241.51625658333333,"velocity":0.3937007874015748},{"duration":0.12295075000000111,"midi":64,"time":241.51625658333333,"velocity":0.3937007874015748},{"duration":0.12295075000000111,"midi":69,"time":241.75703513541666,"velocity":0.3937007874015748},{"duration":0.12295074999997269,"midi":64,"time":241.76215808333333,"velocity":0.3937007874015748},{"duration":0.12295074999997269,"midi":62,"time":241.76215808333333,"velocity":0.3937007874015748},{"duration":0.12295075000000111,"midi":59,"time":241.76728103125,"velocity":0.3937007874015748},{"duration":0.12295074999997269,"midi":69,"time":242.01830547916668,"velocity":0.3937007874015748},{"duration":0.12295074999997269,"midi":59,"time":242.01830547916668,"velocity":0.3937007874015748},{"duration":0.12295074999997269,"midi":62,"time":242.01830547916668,"velocity":0.3937007874015748},{"duration":0.12295074999997269,"midi":64,"time":242.01830547916668,"velocity":0.3937007874015748},{"duration":0.12295075000000111,"midi":69,"time":242.24499592447918,"velocity":0.3937007874015748},{"duration":0.12295075000000111,"midi":62,"time":242.25011887239583,"velocity":0.3937007874015748},{"duration":0.12295075000000111,"midi":64,"time":242.25011887239583,"velocity":0.3937007874015748},{"duration":0.12295075000000111,"midi":59,"time":242.2552418203125,"velocity":0.3937007874015748},{"duration":0.12295074999997269,"midi":69,"time":242.49602037239583,"velocity":0.3937007874015748},{"duration":0.12295074999997269,"midi":64,"time":242.49602037239583,"velocity":0.3937007874015748},{"duration":0.12295075000000111,"midi":59,"time":242.5011433203125,"velocity":0.3937007874015748},{"duration":0.12295075000000111,"midi":62,"time":242.5011433203125,"velocity":0.3937007874015748},{"duration":0.12295075000000111,"midi":69,"time":242.73679892447916,"velocity":0.3937007874015748},{"duration":0.12295075000000111,"midi":62,"time":242.73679892447916,"velocity":0.3937007874015748},{"duration":0.12295075000000111,"midi":64,"time":242.7419218723958,"velocity":0.3937007874015748},{"duration":0.12295075000000111,"midi":59,"time":242.7419218723958,"velocity":0.3937007874015748},{"duration":0.12295075000000111,"midi":69,"time":242.9878233723958,"velocity":0.3937007874015748},{"duration":0.12295075000000111,"midi":62,"time":242.99806926822916,"velocity":0.3937007874015748},{"duration":0.12295075000000111,"midi":64,"time":242.99806926822916,"velocity":0.3937007874015748},{"duration":0.12295075000000111,"midi":59,"time":242.99806926822916,"velocity":0.3937007874015748},{"duration":0.12295075000000111,"midi":69,"time":243.22860192447916,"velocity":0.3937007874015748},{"duration":0.12295075000000111,"midi":62,"time":243.22860192447916,"velocity":0.3937007874015748},{"duration":0.12295075000000111,"midi":59,"time":243.22860192447916,"velocity":0.3937007874015748},{"duration":0.12295075000000111,"midi":64,"time":243.2337248723958,"velocity":0.3937007874015748},{"duration":0.12295075000000111,"midi":64,"time":243.4796263723958,"velocity":0.3937007874015748},{"duration":0.12295075000000111,"midi":69,"time":243.4796263723958,"velocity":0.3937007874015748},{"duration":0.12295075000000111,"midi":59,"time":243.4796263723958,"velocity":0.3937007874015748},{"duration":0.12295075000000111,"midi":62,"time":243.4796263723958,"velocity":0.3937007874015748},{"duration":0.12295075000000111,"midi":69,"time":243.71015902864582,"velocity":0.3937007874015748},{"duration":0.12295075000000111,"midi":64,"time":243.7216856614583,"velocity":0.3937007874015748},{"duration":0.12295075000000111,"midi":62,"time":243.7216856614583,"velocity":0.3937007874015748},{"duration":0.12295075000000111,"midi":59,"time":243.7216856614583,"velocity":0.3937007874015748},{"duration":0.12295075000000111,"midi":62,"time":243.9675871614583,"velocity":0.3937007874015748},{"duration":0.12295075000000111,"midi":66,"time":243.9675871614583,"velocity":0.3937007874015748},{"duration":0.12295075000000111,"midi":69,"time":243.9675871614583,"velocity":0.3937007874015748},{"duration":0.12295075000000111,"midi":59,"time":243.97783305729166,"velocity":0.3937007874015748},{"duration":0.12295075000000111,"midi":69,"time":244.20836571354167,"velocity":0.3937007874015748},{"duration":0.12295075000000111,"midi":66,"time":244.2134886614583,"velocity":0.3937007874015748},{"duration":0.12295075000000111,"midi":59,"time":244.2134886614583,"velocity":0.3937007874015748},{"duration":0.12295075000000111,"midi":62,"time":244.2134886614583,"velocity":0.3937007874015748},{"duration":0.12295075000000111,"midi":59,"time":244.45939016145832,"velocity":0.3937007874015748},{"duration":0.12295075000000111,"midi":62,"time":244.45939016145832,"velocity":0.3937007874015748},{"duration":0.12295075000000111,"midi":69,"time":244.45939016145832,"velocity":0.3937007874015748},{"duration":0.12295075000000111,"midi":66,"time":244.464513109375,"velocity":0.3937007874015748},{"duration":0.12295075000000111,"midi":69,"time":244.70016871354167,"velocity":0.3937007874015748},{"duration":0.12295075000000111,"midi":66,"time":244.70529166145832,"velocity":0.3937007874015748},{"duration":0.12295075000000111,"midi":62,"time":244.70529166145832,"velocity":0.3937007874015748},{"duration":0.12295075000000111,"midi":59,"time":244.70529166145832,"velocity":0.3937007874015748},{"duration":0.12295075000000111,"midi":59,"time":244.95119316145832,"velocity":0.3937007874015748},{"duration":0.12295075000000111,"midi":69,"time":244.95119316145832,"velocity":0.3937007874015748},{"duration":0.12295075000000111,"midi":66,"time":244.956316109375,"velocity":0.3937007874015748},{"duration":0.12295075000000111,"midi":62,"time":244.96143905729167,"velocity":0.3937007874015748},{"duration":0.12295075000000111,"midi":66,"time":245.19709466145832,"velocity":0.3937007874015748},{"duration":0.12295075000000111,"midi":62,"time":245.19709466145832,"velocity":0.3937007874015748},{"duration":0.12295075000000111,"midi":69,"time":245.202217609375,"velocity":0.3937007874015748},{"duration":0.12295075000000111,"midi":59,"time":245.20734055729167,"velocity":0.3937007874015748},{"duration":0.12295075000000111,"midi":59,"time":245.44299616145832,"velocity":0.3937007874015748},{"duration":0.12295075000000111,"midi":69,"time":245.44299616145832,"velocity":0.3937007874015748},{"duration":0.12295075000000111,"midi":62,"time":245.44299616145832,"velocity":0.3937007874015748},{"duration":0.12295075000000111,"midi":66,"time":245.44299616145832,"velocity":0.3937007874015748},{"duration":0.12295075000000111,"midi":69,"time":245.68377471354168,"velocity":0.3937007874015748},{"duration":0.12295075000000111,"midi":62,"time":245.68889766145833,"velocity":0.3937007874015748},{"duration":0.12295075000000111,"midi":59,"time":245.68889766145833,"velocity":0.3937007874015748},{"duration":0.12295075000000111,"midi":66,"time":245.68889766145833,"velocity":0.3937007874015748},{"duration":0.12295075000000111,"midi":69,"time":245.939922109375,"velocity":0.3937007874015748},{"duration":0.12295075000000111,"midi":66,"time":245.94504505729168,"velocity":0.3937007874015748},{"duration":0.12295075000000111,"midi":59,"time":245.94504505729168,"velocity":0.3937007874015748},{"duration":0.12295075000000111,"midi":62,"time":245.95016800520833,"velocity":0.3937007874015748},{"duration":0.12295075000000111,"midi":66,"time":246.18070066145833,"velocity":0.3937007874015748},{"duration":0.12295075000000111,"midi":69,"time":246.18070066145833,"velocity":0.3937007874015748},{"duration":0.12295075000000111,"midi":59,"time":246.185823609375,"velocity":0.3937007874015748},{"duration":0.12295075000000111,"midi":62,"time":246.185823609375,"velocity":0.3937007874015748},{"duration":0.12295074999997269,"midi":69,"time":246.431725109375,"velocity":0.3937007874015748},{"duration":0.12295074999997269,"midi":59,"time":246.431725109375,"velocity":0.3937007874015748},{"duration":0.12295075000000111,"midi":66,"time":246.43684805729168,"velocity":0.3937007874015748},{"duration":0.12295075000000111,"midi":62,"time":246.43684805729168,"velocity":0.3937007874015748},{"duration":0.12295075000000111,"midi":69,"time":246.68274955729166,"velocity":0.3937007874015748},{"duration":0.12295075000000111,"midi":66,"time":246.68274955729166,"velocity":0.3937007874015748},{"duration":0.12295074999997269,"midi":62,"time":246.68787250520833,"velocity":0.3937007874015748},{"duration":0.12295074999997269,"midi":59,"time":246.68787250520833,"velocity":0.3937007874015748},{"duration":0.12295075000000111,"midi":69,"time":246.92865105729166,"velocity":0.3937007874015748},{"duration":0.12295075000000111,"midi":59,"time":246.92865105729166,"velocity":0.3937007874015748},{"duration":0.12295075000000111,"midi":62,"time":246.9337740052083,"velocity":0.3937007874015748},{"duration":0.12295075000000111,"midi":66,"time":246.9337740052083,"velocity":0.3937007874015748}]},{"instrument":{"family":"strings","number":40,"name":"violin"},"notes":[{"duration":2.3360642499999997,"midi":61,"time":39.31862526041667,"velocity":0.3937007874015748},{"duration":2.3360642499999997,"midi":73,"time":39.31862526041667,"velocity":0.3937007874015748},{"duration":0.24590150000000222,"midi":76,"time":41.52149286458333,"velocity":0.3937007874015748},{"duration":0.24590150000000222,"midi":64,"time":41.531738760416665,"velocity":0.3937007874015748},{"duration":0.24590150000000222,"midi":78,"time":41.7725173125,"velocity":0.3937007874015748},{"duration":0.24590150000000222,"midi":66,"time":41.77764026041667,"velocity":0.3937007874015748},{"duration":0.7377044999999995,"midi":81,"time":42.02866470833333,"velocity":0.3937007874015748},{"duration":0.7377044999999995,"midi":69,"time":42.02866470833333,"velocity":0.3937007874015748},{"duration":0.24590150000000222,"midi":71,"time":42.76636920833333,"velocity":0.3937007874015748},{"duration":0.24590150000000222,"midi":83,"time":42.77277289322917,"velocity":0.3937007874015748},{"duration":1.9672119999999964,"midi":85,"time":43.00714776041667,"velocity":0.3937007874015748},{"duration":1.9672119999999964,"midi":73,"time":43.01227070833333,"velocity":0.3937007874015748},{"duration":0.37013298697916497,"midi":85,"time":45.22538420833333,"velocity":0.3937007874015748},{"duration":0.24718223697916386,"midi":73,"time":45.23178789322917,"velocity":0.3937007874015748},{"duration":0.24590150000000222,"midi":88,"time":45.462320549479166,"velocity":0.3937007874015748},{"duration":0.24590150000000222,"midi":76,"time":45.46744349739583,"velocity":0.3937007874015748},{"duration":0.2459014999999951,"midi":90,"time":45.72871384114583,"velocity":0.3937007874015748},{"duration":0.37013298697916497,"midi":78,"time":45.72871384114583,"velocity":0.3937007874015748},{"duration":0.7389852369791683,"midi":83,"time":45.98998418489583,"velocity":0.3937007874015748},{"duration":0.7389852369791683,"midi":71,"time":45.9951071328125,"velocity":0.3937007874015748},{"duration":0.24718223697917097,"midi":69,"time":46.7020739453125,"velocity":0.3937007874015748},{"duration":0.24718223697917097,"midi":81,"time":46.713600578124996,"velocity":0.3937007874015748},{"duration":0.3688522499999962,"midi":76,"time":46.94925618229167,"velocity":0.3937007874015748},{"duration":0.24590150000000222,"midi":64,"time":46.9556598671875,"velocity":0.3937007874015748},{"duration":2.0901627499999975,"midi":78,"time":47.20668431510417,"velocity":0.3937007874015748},{"duration":1.9672119999999964,"midi":66,"time":47.20668431510417,"velocity":0.3937007874015748},{"duration":0.24590150000000222,"midi":85,"time":49.1687733671875,"velocity":0.3937007874015748},{"duration":0.24590150000000222,"midi":73,"time":49.1687733671875,"velocity":0.3937007874015748},{"duration":0.37013298697915786,"midi":86,"time":49.40827118229167,"velocity":0.3937007874015748},{"duration":0.24590150000000222,"midi":74,"time":49.4300437109375,"velocity":0.3937007874015748},{"duration":0.24590150000000222,"midi":73,"time":49.6759452109375,"velocity":0.3937007874015748},{"duration":0.24590150000000222,"midi":85,"time":49.68619110677083,"velocity":0.3937007874015748},{"duration":0.24590150000000222,"midi":71,"time":49.90135491927083,"velocity":0.3937007874015748},{"duration":0.24590150000000222,"midi":83,"time":49.93209260677083,"velocity":0.3937007874015748},{"duration":0.4930837369791732,"midi":69,"time":50.16262526302083,"velocity":0.3937007874015748},{"duration":0.4930837369791661,"midi":81,"time":50.17799410677083,"velocity":0.3937007874015748},{"duration":0.24718223697917097,"midi":66,"time":50.65058605208333,"velocity":0.3937007874015748},{"duration":0.24718223697916386,"midi":78,"time":50.655709,"velocity":0.3937007874015748},{"duration":0.24590150000000222,"midi":71,"time":50.8977682890625,"velocity":0.3937007874015748},{"duration":0.24590150000000222,"midi":83,"time":50.8977682890625,"velocity":0.3937007874015748},{"duration":3.4426210000000026,"midi":69,"time":51.1436697890625,"velocity":0.3937007874015748},{"duration":3.4426210000000026,"midi":81,"time":51.1436697890625,"velocity":0.3937007874015748},{"duration":1.9684927369791723,"midi":62,"time":55.05760199739583,"velocity":0.3937007874015748},{"duration":1.9684927369791723,"midi":66,"time":55.05760199739583,"velocity":0.3937007874015748},{"duration":11.93262643489583,"midi":61,"time":55.05760199739583,"velocity":0.3937007874015748},{"duration":0.7377044999999995,"midi":57,"time":55.062724945312496,"velocity":0.3937007874015748},{"duration":0.7377044999999995,"midi":81,"time":55.06784789322917,"velocity":0.3937007874015748},{"duration":2.2156749739583432,"midi":56,"time":55.79530649739583,"velocity":0.3937007874015748},{"duration":1.2307882369791585,"midi":80,"time":55.81707902604167,"velocity":0.3937007874015748},{"duration":1.9684927369791723,"midi":64,"time":57.03634063020833,"velocity":0.3937007874015748},{"duration":0.9836060000000018,"midi":59,"time":57.04786726302083,"velocity":0.3937007874015748},{"duration":0.7377045000000066,"midi":83,"time":57.04786726302083,"velocity":0.3937007874015748},{"duration":1.968492736979158,"midi":81,"time":57.79581765885417,"velocity":0.3937007874015748},{"duration":0.9836059999999947,"midi":54,"time":58.01098147135417,"velocity":0.3937007874015748},{"duration":1.7213105000000013,"midi":57,"time":58.01610441927083,"velocity":0.3937007874015748},{"duration":1.9684927369791652,"midi":66,"time":58.994587471354166,"velocity":0.3937007874015748},{"duration":1.9684927369791652,"midi":62,"time":59.0048333671875,"velocity":0.3937007874015748},{"duration":1.2307882369791656,"midi":80,"time":59.7425378671875,"velocity":0.3937007874015748},{"duration":2.2143942369791674,"midi":56,"time":59.74894155208333,"velocity":0.3937007874015748},{"duration":0.7377044999999995,"midi":83,"time":60.96820315625,"velocity":0.3937007874015748},{"duration":1.9672120000000035,"midi":64,"time":60.96820315625,"velocity":0.3937007874015748},{"duration":0.9836060000000018,"midi":59,"time":60.979729789062496,"velocity":0.3937007874015748},{"duration":1.968492736979158,"midi":81,"time":61.7212765,"velocity":0.3937007874015748},{"duration":1.1065567499999958,"midi":54,"time":61.95180915625,"velocity":0.3937007874015748},{"duration":1.845541986979157,"midi":57,"time":61.95180915625,"velocity":0.3937007874015748},{"duration":1.9684927369791652,"midi":66,"time":62.94053810416667,"velocity":0.3937007874015748},{"duration":1.9684927369791652,"midi":62,"time":62.94053810416667,"velocity":0.3937007874015748},{"duration":1.2307882369791656,"midi":80,"time":63.6846462890625,"velocity":0.3937007874015748},{"duration":2.2143942369791745,"midi":56,"time":63.68976923697916,"velocity":0.3937007874015748},{"duration":4.796359986979155,"midi":64,"time":64.89366199739584,"velocity":0.3937007874015748},{"duration":0.9836059999999947,"midi":59,"time":64.8987849453125,"velocity":0.3937007874015748},{"duration":0.7377045000000066,"midi":83,"time":64.90390789322916,"velocity":0.3937007874015748},{"duration":4.1828869739583325,"midi":81,"time":65.65698123697916,"velocity":0.3937007874015748},{"duration":3.8127539869791747,"midi":57,"time":65.89263684114583,"velocity":0.3937007874015748},{"duration":0.9836059999999947,"midi":54,"time":65.89904052604166,"velocity":0.3937007874015748},{"duration":2.8291479869791516,"midi":62,"time":66.88776947395834,"velocity":0.3937007874015748},{"duration":2.8291479869791516,"midi":69,"time":66.88776947395834,"velocity":0.3937007874015748},{"duration":0.12295075000000111,"midi":64,"time":69.83474526302084,"velocity":0.3937007874015748},{"duration":0.12295075000000111,"midi":69,"time":69.83474526302084,"velocity":0.3937007874015748},{"duration":0.12295075000000111,"midi":62,"time":69.8398682109375,"velocity":0.3937007874015748},{"duration":0.24590150000000222,"midi":57,"time":69.8398682109375,"velocity":0.3937007874015748},{"duration":0.12295075000000111,"midi":64,"time":70.0857697109375,"velocity":0.3937007874015748},{"duration":0.12295075000000111,"midi":62,"time":70.0857697109375,"velocity":0.3937007874015748},{"duration":0.12295075000000111,"midi":69,"time":70.0857697109375,"velocity":0.3937007874015748},{"duration":0.12295075000000111,"midi":57,"time":70.09089265885416,"velocity":0.3937007874015748},{"duration":0.24590150000000222,"midi":57,"time":70.3316712109375,"velocity":0.3937007874015748},{"duration":0.24590150000000222,"midi":69,"time":70.33679415885416,"velocity":0.3937007874015748},{"duration":0.12295075000000111,"midi":62,"time":70.33679415885416,"velocity":0.3937007874015748},{"duration":0.12295075000000111,"midi":64,"time":70.34191710677084,"velocity":0.3937007874015748},{"duration":2.3373449869791614,"midi":73,"time":70.7927365234375,"velocity":0.3937007874015748},{"duration":2.3373449869791614,"midi":61,"time":70.80298241927083,"velocity":0.3937007874015748},{"duration":0.24718223697917097,"midi":76,"time":72.99048117968749,"velocity":0.3937007874015748},{"duration":0.3688522500000033,"midi":64,"time":73.0020078125,"velocity":0.3937007874015748},{"duration":0.24590150000000222,"midi":78,"time":73.24278636458334,"velocity":0.3937007874015748},{"duration":0.37013298697915786,"midi":66,"time":73.25815520833333,"velocity":0.3937007874015748},{"duration":0.8619359869791623,"midi":81,"time":73.47844196875,"velocity":0.3937007874015748},{"duration":0.8606552499999935,"midi":69,"time":73.52582923697916,"velocity":0.3937007874015748},{"duration":0.24590150000000222,"midi":83,"time":74.26865668489583,"velocity":0.3937007874015748},{"duration":0.245901499999988,"midi":71,"time":74.28402552864584,"velocity":0.3937007874015748},{"duration":1.9672120000000035,"midi":85,"time":74.52992702864583,"velocity":0.3937007874015748},{"duration":1.9672119999999893,"midi":73,"time":74.5350499765625,"velocity":0.3937007874015748},{"duration":0.245901499999988,"midi":85,"time":76.70717989322917,"velocity":0.3937007874015748},{"duration":0.24590150000000222,"midi":73,"time":76.72767168489584,"velocity":0.3937007874015748},{"duration":0.24590150000000222,"midi":76,"time":76.93771254947916,"velocity":0.3937007874015748},{"duration":0.24590150000000222,"midi":88,"time":76.95820434114583,"velocity":0.3937007874015748},{"duration":0.3688522500000033,"midi":78,"time":77.19898289322916,"velocity":0.3937007874015748},{"duration":0.24590150000000222,"midi":90,"time":77.2092287890625,"velocity":0.3937007874015748},{"duration":0.7377045000000066,"midi":83,"time":77.45000734114583,"velocity":0.3937007874015748},{"duration":0.7377044999999924,"midi":71,"time":77.48074502864584,"velocity":0.3937007874015748},{"duration":0.24590150000000222,"midi":69,"time":78.1928347890625,"velocity":0.3937007874015748},{"duration":0.24590150000000222,"midi":81,"time":78.1928347890625,"velocity":0.3937007874015748},{"duration":0.24718223697918518,"midi":76,"time":78.42849039322915,"velocity":0.3937007874015748},{"duration":0.24718223697917097,"midi":64,"time":78.450262921875,"velocity":0.3937007874015748},{"duration":1.9684927369791723,"midi":66,"time":78.68591852604166,"velocity":0.3937007874015748},{"duration":1.968492736979158,"midi":78,"time":78.6923222109375,"velocity":0.3937007874015748},{"duration":0.37013298697915786,"midi":85,"time":80.60830473177084,"velocity":0.3937007874015748},{"duration":0.37013298697915786,"midi":73,"time":80.6134276796875,"velocity":0.3937007874015748},{"duration":0.24590150000000222,"midi":86,"time":80.88622465625,"velocity":0.3937007874015748},{"duration":0.24590150000000222,"midi":74,"time":80.90671644791666,"velocity":0.3937007874015748},{"duration":0.24590150000000222,"midi":73,"time":81.12188026041666,"velocity":0.3937007874015748},{"duration":0.24590150000000222,"midi":85,"time":81.13724910416666,"velocity":0.3937007874015748},{"duration":0.24718223697917097,"midi":83,"time":81.36137807552083,"velocity":0.3937007874015748},{"duration":0.24718223697917097,"midi":71,"time":81.36137807552083,"velocity":0.3937007874015748},{"duration":0.49180300000000443,"midi":69,"time":81.62392915625,"velocity":0.3937007874015748},{"duration":0.49180300000000443,"midi":81,"time":81.62905210416666,"velocity":0.3937007874015748},{"duration":0.3688522499999891,"midi":78,"time":82.12085510416667,"velocity":0.3937007874015748},{"duration":0.3688522500000033,"midi":66,"time":82.131101,"velocity":0.3937007874015748},{"duration":0.245901499999988,"midi":83,"time":82.37187955208334,"velocity":0.3937007874015748},{"duration":0.24590150000000222,"midi":71,"time":82.38724839583334,"velocity":0.3937007874015748},{"duration":3.5655717499999895,"midi":69,"time":82.63314989583334,"velocity":0.3937007874015748},{"duration":3.5655717499999895,"midi":81,"time":82.63314989583334,"velocity":0.3937007874015748},{"duration":2.581965750000009,"midi":73,"time":86.56757389583333,"velocity":0.3937007874015748},{"duration":2.581965750000009,"midi":85,"time":86.56757389583333,"velocity":0.3937007874015748},{"duration":0.245901499999988,"midi":83,"time":89.02658889583334,"velocity":0.3937007874015748},{"duration":0.245901499999988,"midi":71,"time":89.02658889583334,"velocity":0.3937007874015748},{"duration":0.24718223697915676,"midi":69,"time":89.28785923958334,"velocity":0.3937007874015748},{"duration":0.24718223697915676,"midi":81,"time":89.28785923958334,"velocity":0.3937007874015748},{"duration":0.49308373697915897,"midi":71,"time":89.51454968489584,"velocity":0.3937007874015748},{"duration":0.4930837369791732,"midi":83,"time":89.52479558072916,"velocity":0.3937007874015748},{"duration":0.24590150000000222,"midi":78,"time":90.007633421875,"velocity":0.3937007874015748},{"duration":0.24590150000000222,"midi":66,"time":90.007633421875,"velocity":0.3937007874015748},{"duration":2.2131134999999915,"midi":76,"time":90.25865786979166,"velocity":0.3937007874015748},{"duration":2.2131134999999915,"midi":64,"time":90.25865786979166,"velocity":0.3937007874015748},{"duration":0.6147537500000055,"midi":85,"time":92.46664842187499,"velocity":0.3937007874015748},{"duration":0.49180300000000443,"midi":73,"time":92.47177136979165,"velocity":0.3937007874015748},{"duration":0.24590150000000222,"midi":83,"time":92.96357436979166,"velocity":0.3937007874015748},{"duration":0.24590150000000222,"midi":71,"time":92.96357436979166,"velocity":0.3937007874015748},{"duration":0.24590150000000222,"midi":69,"time":93.20947586979166,"velocity":0.3937007874015748},{"duration":0.24590150000000222,"midi":81,"time":93.20947586979166,"velocity":0.3937007874015748},{"duration":0.49180300000000443,"midi":83,"time":93.45537736979166,"velocity":0.3937007874015748},{"duration":0.49180300000000443,"midi":71,"time":93.45537736979166,"velocity":0.3937007874015748},{"duration":0.245901499999988,"midi":81,"time":93.94718036979167,"velocity":0.3937007874015748},{"duration":0.245901499999988,"midi":69,"time":93.94718036979167,"velocity":0.3937007874015748},{"duration":1.9672120000000035,"midi":66,"time":94.19308186979165,"velocity":0.3937007874015748},{"duration":1.9672120000000035,"midi":78,"time":94.19820481770833,"velocity":0.3937007874015748},{"duration":0.24590150000000222,"midi":78,"time":96.40619536979166,"velocity":0.3937007874015748},{"duration":0.24590150000000222,"midi":66,"time":96.42156421354166,"velocity":0.3937007874015748},{"duration":0.24590150000000222,"midi":69,"time":96.65209686979166,"velocity":0.3937007874015748},{"duration":0.24590150000000222,"midi":81,"time":96.65209686979166,"velocity":0.3937007874015748},{"duration":0.245901499999988,"midi":71,"time":96.89799836979167,"velocity":0.3937007874015748},{"duration":0.245901499999988,"midi":83,"time":96.89799836979167,"velocity":0.3937007874015748},{"duration":0.7377045000000066,"midi":73,"time":97.14389986979165,"velocity":0.3937007874015748},{"duration":0.49180300000000443,"midi":85,"time":97.14389986979165,"velocity":0.3937007874015748},{"duration":0.3688522500000033,"midi":76,"time":97.630579921875,"velocity":0.3937007874015748},{"duration":0.24590150000000222,"midi":64,"time":97.63570286979166,"velocity":0.3937007874015748},{"duration":0.24590150000000222,"midi":66,"time":97.88160436979166,"velocity":0.3937007874015748},{"duration":0.24590150000000222,"midi":78,"time":97.88672731770833,"velocity":0.3937007874015748},{"duration":0.24590150000000222,"midi":83,"time":98.12750586979166,"velocity":0.3937007874015748},{"duration":0.24590150000000222,"midi":71,"time":98.13262881770834,"velocity":0.3937007874015748},{"duration":3.4426210000000026,"midi":69,"time":98.37853031770834,"velocity":0.3937007874015748},{"duration":3.4426210000000026,"midi":81,"time":98.38877621354166,"velocity":0.3937007874015748},{"duration":2.581965750000009,"midi":73,"time":102.30783136979166,"velocity":0.3937007874015748},{"duration":2.581965750000009,"midi":85,"time":102.30783136979166,"velocity":0.3937007874015748},{"duration":0.24590150000000222,"midi":83,"time":104.777092265625,"velocity":0.3937007874015748},{"duration":0.24590150000000222,"midi":71,"time":104.78221521354166,"velocity":0.3937007874015748},{"duration":0.24590150000000222,"midi":69,"time":105.01274786979165,"velocity":0.3937007874015748},{"duration":0.24590150000000222,"midi":81,"time":105.02811671354166,"velocity":0.3937007874015748},{"duration":0.49180300000000443,"midi":71,"time":105.26377231770833,"velocity":0.3937007874015748},{"duration":0.4918029999999902,"midi":83,"time":105.27401821354167,"velocity":0.3937007874015748},{"duration":0.24590150000000222,"midi":66,"time":105.75045236979166,"velocity":0.3937007874015748},{"duration":0.24590150000000222,"midi":78,"time":105.75045236979166,"velocity":0.3937007874015748},{"duration":2.0901627500000046,"midi":64,"time":105.99635386979166,"velocity":0.3937007874015748},{"duration":2.2131134999999915,"midi":76,"time":105.99635386979166,"velocity":0.3937007874015748},{"duration":0.6147537500000055,"midi":85,"time":108.20434442187499,"velocity":0.3937007874015748},{"duration":0.6147537500000055,"midi":73,"time":108.20946736979165,"velocity":0.3937007874015748},{"duration":0.24590150000000222,"midi":71,"time":108.70639331770833,"velocity":0.3937007874015748},{"duration":0.24590150000000222,"midi":83,"time":108.70639331770833,"velocity":0.3937007874015748},{"duration":0.24590150000000222,"midi":69,"time":108.96254071354166,"velocity":0.3937007874015748},{"duration":0.24590150000000222,"midi":81,"time":108.96254071354166,"velocity":0.3937007874015748},{"duration":0.49180300000000443,"midi":83,"time":109.19819631770834,"velocity":0.3937007874015748},{"duration":0.49180300000000443,"midi":71,"time":109.20844221354166,"velocity":0.3937007874015748},{"duration":0.245901499999988,"midi":69,"time":109.68999931770834,"velocity":0.3937007874015748},{"duration":0.24590150000000222,"midi":81,"time":109.70024521354166,"velocity":0.3937007874015748},{"duration":2.0901627500000046,"midi":78,"time":109.93077786979165,"velocity":0.3937007874015748},{"duration":1.8442612500000024,"midi":66,"time":109.93590081770833,"velocity":0.3937007874015748},{"duration":0.24590150000000222,"midi":66,"time":112.14389136979166,"velocity":0.3937007874015748},{"duration":0.24590150000000222,"midi":78,"time":112.14389136979166,"velocity":0.3937007874015748},{"duration":0.24590150000000222,"midi":81,"time":112.38979286979166,"velocity":0.3937007874015748},{"duration":0.24590150000000222,"midi":69,"time":112.38979286979166,"velocity":0.3937007874015748},{"duration":0.24718223697915676,"midi":71,"time":112.645940265625,"velocity":0.3937007874015748},{"duration":0.24718223697915676,"midi":83,"time":112.65618616145834,"velocity":0.3937007874015748},{"duration":0.6160344869791601,"midi":73,"time":112.88287660677084,"velocity":0.3937007874015748},{"duration":0.49308373697915897,"midi":85,"time":112.88287660677084,"velocity":0.3937007874015748},{"duration":0.3688522500000033,"midi":76,"time":113.37596034375,"velocity":0.3937007874015748},{"duration":0.24590150000000222,"midi":64,"time":113.38108329166666,"velocity":0.3937007874015748},{"duration":0.24590150000000222,"midi":66,"time":113.62186184375,"velocity":0.3937007874015748},{"duration":0.24590150000000222,"midi":78,"time":113.6372306875,"velocity":0.3937007874015748},{"duration":0.24590150000000222,"midi":83,"time":113.86776334375,"velocity":0.3937007874015748},{"duration":0.24590150000000222,"midi":71,"time":113.87800923958333,"velocity":0.3937007874015748},{"duration":3.811473250000006,"midi":81,"time":114.1290336875,"velocity":0.3937007874015748},{"duration":3.9357047369791616,"midi":69,"time":114.1290336875,"velocity":0.3937007874015748},{"duration":11.807114210937499,"midi":61,"time":118.0442466328125,"velocity":0.3937007874015748},{"duration":1.9672119999999893,"midi":62,"time":118.0442466328125,"velocity":0.3937007874015748},{"duration":1.9672119999999893,"midi":66,"time":118.0442466328125,"velocity":0.3937007874015748},{"duration":0.7377044999999924,"midi":81,"time":118.04936958072916,"velocity":0.3937007874015748},{"duration":0.7377044999999924,"midi":57,"time":118.04936958072916,"velocity":0.3937007874015748},{"duration":2.2131135000000057,"midi":56,"time":118.7665822890625,"velocity":0.3937007874015748},{"duration":1.229507500000011,"midi":80,"time":118.78707408072916,"velocity":0.3937007874015748},{"duration":1.9684927369791723,"midi":64,"time":120.00505494791666,"velocity":0.3937007874015748},{"duration":0.9836059999999947,"midi":59,"time":120.01658158072917,"velocity":0.3937007874015748},{"duration":0.7377044999999924,"midi":83,"time":120.01658158072917,"velocity":0.3937007874015748},{"duration":1.968492736979158,"midi":81,"time":120.7645319765625,"velocity":0.3937007874015748},{"duration":0.9836059999999947,"midi":54,"time":120.9796957890625,"velocity":0.3937007874015748},{"duration":1.7213105000000013,"midi":57,"time":120.98481873697916,"velocity":0.3937007874015748},{"duration":1.968492736979158,"midi":66,"time":121.9633017890625,"velocity":0.3937007874015748},{"duration":1.968492736979158,"midi":62,"time":121.97354768489583,"velocity":0.3937007874015748},{"duration":1.2307882369791514,"midi":80,"time":122.71125218489584,"velocity":0.3937007874015748},{"duration":2.2143942369791745,"midi":56,"time":122.71765586979166,"velocity":0.3937007874015748},{"duration":0.7377045000000066,"midi":83,"time":123.93691747395833,"velocity":0.3937007874015748},{"duration":1.9672119999999893,"midi":64,"time":123.93691747395833,"velocity":0.3937007874015748},{"duration":0.9836059999999947,"midi":59,"time":123.94844410677084,"velocity":0.3937007874015748},{"duration":1.968492736979158,"midi":81,"time":124.68999081770833,"velocity":0.3937007874015748},{"duration":1.845541986979157,"midi":57,"time":124.92052347395834,"velocity":0.3937007874015748},{"duration":1.1065567499999815,"midi":54,"time":124.92052347395834,"velocity":0.3937007874015748},{"duration":1.9684927369791723,"midi":66,"time":125.909252421875,"velocity":0.3937007874015748},{"duration":1.9684927369791723,"midi":62,"time":125.909252421875,"velocity":0.3937007874015748},{"duration":1.2307882369791798,"midi":80,"time":126.65336060677082,"velocity":0.3937007874015748},{"duration":2.2143942369791745,"midi":56,"time":126.65848355468749,"velocity":0.3937007874015748},{"duration":4.796359986979155,"midi":64,"time":127.86237631510417,"velocity":0.3937007874015748},{"duration":0.9836060000000089,"midi":59,"time":127.86749926302082,"velocity":0.3937007874015748},{"duration":0.7377045000000066,"midi":83,"time":127.8726222109375,"velocity":0.3937007874015748},{"duration":4.182886973958318,"midi":81,"time":128.6256955546875,"velocity":0.3937007874015748},{"duration":3.8127539869791462,"midi":57,"time":128.86135115885418,"velocity":0.3937007874015748},{"duration":0.9836060000000089,"midi":54,"time":128.86775484375,"velocity":0.3937007874015748},{"duration":2.8291479869791374,"midi":69,"time":129.85648379166668,"velocity":0.3937007874015748},{"duration":2.8291479869791374,"midi":62,"time":129.85648379166668,"velocity":0.3937007874015748},{"duration":0.12295075000000111,"midi":69,"time":132.80345958072917,"velocity":0.3937007874015748},{"duration":0.12295075000000111,"midi":64,"time":132.80345958072917,"velocity":0.3937007874015748},{"duration":0.24590150000000222,"midi":57,"time":132.80858252864581,"velocity":0.3937007874015748},{"duration":0.12295075000000111,"midi":62,"time":132.80858252864581,"velocity":0.3937007874015748},{"duration":0.12295075000000111,"midi":62,"time":133.05448402864582,"velocity":0.3937007874015748},{"duration":0.12295075000000111,"midi":69,"time":133.05448402864582,"velocity":0.3937007874015748},{"duration":0.12295075000000111,"midi":64,"time":133.05448402864582,"velocity":0.3937007874015748},{"duration":0.12295075000000111,"midi":57,"time":133.0596069765625,"velocity":0.3937007874015748},{"duration":0.24590150000000222,"midi":57,"time":133.30038552864582,"velocity":0.3937007874015748},{"duration":0.12295075000000111,"midi":62,"time":133.3055084765625,"velocity":0.3937007874015748},{"duration":0.24590150000000222,"midi":69,"time":133.3055084765625,"velocity":0.3937007874015748},{"duration":0.12295075000000111,"midi":64,"time":133.31063142447917,"velocity":0.3937007874015748},{"duration":1.9672119999999893,"midi":66,"time":133.78706558072918,"velocity":0.3937007874015748},{"duration":11.807114210937499,"midi":61,"time":133.78706558072918,"velocity":0.3937007874015748},{"duration":1.9672119999999893,"midi":62,"time":133.78706558072918,"velocity":0.3937007874015748},{"duration":0.7377045000000066,"midi":81,"time":133.79218852864582,"velocity":0.3937007874015748},{"duration":0.7377045000000066,"midi":57,"time":133.79218852864582,"velocity":0.3937007874015748},{"duration":2.2131134999999915,"midi":56,"time":134.5094012369792,"velocity":0.3937007874015748},{"duration":1.2295074999999827,"midi":80,"time":134.52989302864583,"velocity":0.3937007874015748},{"duration":1.9684927369791865,"midi":64,"time":135.74787389583332,"velocity":0.3937007874015748},{"duration":0.7377045000000066,"midi":83,"time":135.7594005286458,"velocity":0.3937007874015748},{"duration":0.9836060000000089,"midi":59,"time":135.7594005286458,"velocity":0.3937007874015748},{"duration":1.968492736979158,"midi":81,"time":136.50735092447917,"velocity":0.3937007874015748},{"duration":0.9836060000000089,"midi":54,"time":136.72251473697918,"velocity":0.3937007874015748},{"duration":1.721310499999987,"midi":57,"time":136.72763768489583,"velocity":0.3937007874015748},{"duration":1.9684927369791296,"midi":66,"time":137.7061207369792,"velocity":0.3937007874015748},{"duration":1.968492736979158,"midi":62,"time":137.7163666328125,"velocity":0.3937007874015748},{"duration":1.2307882369791798,"midi":80,"time":138.4540711328125,"velocity":0.3937007874015748},{"duration":2.2143942369791603,"midi":56,"time":138.46047481770833,"velocity":0.3937007874015748},{"duration":0.7377045000000066,"midi":83,"time":139.679736421875,"velocity":0.3937007874015748},{"duration":1.9672120000000177,"midi":64,"time":139.679736421875,"velocity":0.3937007874015748},{"duration":0.9836059999999804,"midi":59,"time":139.6912630546875,"velocity":0.3937007874015748},{"duration":1.9684927369791865,"midi":81,"time":140.432809765625,"velocity":0.3937007874015748},{"duration":1.10655675000001,"midi":54,"time":140.663342421875,"velocity":0.3937007874015748},{"duration":1.8455419869791854,"midi":57,"time":140.663342421875,"velocity":0.3937007874015748},{"duration":1.9684927369791296,"midi":62,"time":141.65207136979168,"velocity":0.3937007874015748},{"duration":1.9684927369791296,"midi":66,"time":141.65207136979168,"velocity":0.3937007874015748},{"duration":1.2307882369791798,"midi":80,"time":142.3961795546875,"velocity":0.3937007874015748},{"duration":2.214394236979132,"midi":56,"time":142.40130250260418,"velocity":0.3937007874015748},{"duration":4.7963599869791835,"midi":64,"time":143.60519526302082,"velocity":0.3937007874015748},{"duration":0.9836060000000089,"midi":59,"time":143.6103182109375,"velocity":0.3937007874015748},{"duration":0.7377045000000066,"midi":83,"time":143.61544115885417,"velocity":0.3937007874015748},{"duration":4.182886973958318,"midi":81,"time":144.36851450260417,"velocity":0.3937007874015748},{"duration":3.8127539869791747,"midi":57,"time":144.60417010677082,"velocity":0.3937007874015748},{"duration":0.9836060000000089,"midi":54,"time":144.61057379166667,"velocity":0.3937007874015748},{"duration":2.829147986979166,"midi":69,"time":145.59930273958332,"velocity":0.3937007874015748},{"duration":2.829147986979166,"midi":62,"time":145.59930273958332,"velocity":0.3937007874015748},{"duration":0.12295075000000111,"midi":69,"time":148.54627852864581,"velocity":0.3937007874015748},{"duration":0.12295075000000111,"midi":64,"time":148.54627852864581,"velocity":0.3937007874015748},{"duration":0.12295075000000111,"midi":62,"time":148.5514014765625,"velocity":0.3937007874015748},{"duration":0.24590150000000222,"midi":57,"time":148.5514014765625,"velocity":0.3937007874015748},{"duration":0.12295075000000111,"midi":69,"time":148.7973029765625,"velocity":0.3937007874015748},{"duration":0.12295075000000111,"midi":62,"time":148.7973029765625,"velocity":0.3937007874015748},{"duration":0.12295075000000111,"midi":64,"time":148.7973029765625,"velocity":0.3937007874015748},{"duration":0.12295075000000111,"midi":57,"time":148.80242592447917,"velocity":0.3937007874015748},{"duration":0.24590150000000222,"midi":57,"time":149.0432044765625,"velocity":0.3937007874015748},{"duration":0.24590150000000222,"midi":69,"time":149.04832742447917,"velocity":0.3937007874015748},{"duration":0.12295075000000111,"midi":62,"time":149.04832742447917,"velocity":0.3937007874015748},{"duration":0.12295075000000111,"midi":64,"time":149.05345037239582,"velocity":0.3937007874015748},{"duration":2.581965749999995,"midi":73,"time":149.5350074765625,"velocity":0.3937007874015748},{"duration":2.581965749999995,"midi":85,"time":149.5350074765625,"velocity":0.3937007874015748},{"duration":0.24590150000000222,"midi":83,"time":152.0042683723958,"velocity":0.3937007874015748},{"duration":0.24590150000000222,"midi":71,"time":152.0093913203125,"velocity":0.3937007874015748},{"duration":0.24590150000000222,"midi":69,"time":152.2399239765625,"velocity":0.3937007874015748},{"duration":0.24590150000000222,"midi":81,"time":152.2552928203125,"velocity":0.3937007874015748},{"duration":0.49180300000000443,"midi":71,"time":152.49094842447917,"velocity":0.3937007874015748},{"duration":0.49180300000000443,"midi":83,"time":152.5011943203125,"velocity":0.3937007874015748},{"duration":0.24590150000000222,"midi":66,"time":152.9776284765625,"velocity":0.3937007874015748},{"duration":0.24590150000000222,"midi":78,"time":152.9776284765625,"velocity":0.3937007874015748},{"duration":2.0901627499999904,"midi":64,"time":153.2235299765625,"velocity":0.3937007874015748},{"duration":2.2131134999999915,"midi":76,"time":153.2235299765625,"velocity":0.3937007874015748},{"duration":0.6147537500000055,"midi":85,"time":155.43152052864582,"velocity":0.3937007874015748},{"duration":0.6147537500000055,"midi":73,"time":155.4366434765625,"velocity":0.3937007874015748},{"duration":0.24590150000000222,"midi":71,"time":155.93356942447917,"velocity":0.3937007874015748},{"duration":0.24590150000000222,"midi":83,"time":155.93356942447917,"velocity":0.3937007874015748},{"duration":0.24590150000000222,"midi":69,"time":156.1897168203125,"velocity":0.3937007874015748},{"duration":0.24590150000000222,"midi":81,"time":156.1897168203125,"velocity":0.3937007874015748},{"duration":0.49180300000000443,"midi":83,"time":156.42537242447918,"velocity":0.3937007874015748},{"duration":0.49180300000000443,"midi":71,"time":156.4356183203125,"velocity":0.3937007874015748},{"duration":0.24590150000000222,"midi":69,"time":156.91717542447918,"velocity":0.3937007874015748},{"duration":0.24590150000000222,"midi":81,"time":156.9274213203125,"velocity":0.3937007874015748},{"duration":2.0901627499999904,"midi":78,"time":157.1579539765625,"velocity":0.3937007874015748},{"duration":1.8442612499999882,"midi":66,"time":157.16307692447918,"velocity":0.3937007874015748},{"duration":0.24590150000000222,"midi":66,"time":159.3710674765625,"velocity":0.3937007874015748},{"duration":0.24590150000000222,"midi":78,"time":159.3710674765625,"velocity":0.3937007874015748},{"duration":0.24590150000000222,"midi":81,"time":159.6169689765625,"velocity":0.3937007874015748},{"duration":0.24590150000000222,"midi":69,"time":159.6169689765625,"velocity":0.3937007874015748},{"duration":0.24718223697917097,"midi":71,"time":159.87311637239583,"velocity":0.3937007874015748},{"duration":0.24718223697914254,"midi":83,"time":159.88336226822918,"velocity":0.3937007874015748},{"duration":0.6160344869791459,"midi":73,"time":160.11005271354168,"velocity":0.3937007874015748},{"duration":0.49308373697914476,"midi":85,"time":160.11005271354168,"velocity":0.3937007874015748},{"duration":0.3688522500000033,"midi":76,"time":160.60313645052082,"velocity":0.3937007874015748},{"duration":0.24590150000000222,"midi":64,"time":160.6082593984375,"velocity":0.3937007874015748},{"duration":0.24590150000000222,"midi":66,"time":160.84903795052082,"velocity":0.3937007874015748},{"duration":0.24590150000000222,"midi":78,"time":160.86440679427082,"velocity":0.3937007874015748},{"duration":0.24590150000000222,"midi":83,"time":161.09493945052083,"velocity":0.3937007874015748},{"duration":0.24590150000000222,"midi":71,"time":161.10518534635418,"velocity":0.3937007874015748},{"duration":3.9357047369791758,"midi":69,"time":161.35620979427082,"velocity":0.3937007874015748},{"duration":3.811473250000006,"midi":81,"time":161.35620979427082,"velocity":0.3937007874015748},{"duration":1.9672119999999893,"midi":62,"time":165.27142273958333,"velocity":0.3937007874015748},{"duration":1.9672119999999893,"midi":66,"time":165.27142273958333,"velocity":0.3937007874015748},{"duration":11.807114210937499,"midi":61,"time":165.27142273958333,"velocity":0.3937007874015748},{"duration":0.7377045000000066,"midi":81,"time":165.2765456875,"velocity":0.3937007874015748},{"duration":0.7377045000000066,"midi":57,"time":165.2765456875,"velocity":0.3937007874015748},{"duration":2.21311350000002,"midi":56,"time":165.9937583958333,"velocity":0.3937007874015748},{"duration":1.2295074999999827,"midi":80,"time":166.0142501875,"velocity":0.3937007874015748},{"duration":1.968492736979158,"midi":64,"time":167.2322310546875,"velocity":0.3937007874015748},{"duration":0.7377045000000066,"midi":83,"time":167.2437576875,"velocity":0.3937007874015748},{"duration":0.9836060000000089,"midi":59,"time":167.2437576875,"velocity":0.3937007874015748},{"duration":1.9684927369791865,"midi":81,"time":167.99170808333332,"velocity":0.3937007874015748},{"duration":0.9836059999999804,"midi":54,"time":168.20687189583333,"velocity":0.3937007874015748},{"duration":1.721310499999987,"midi":57,"time":168.21199484375,"velocity":0.3937007874015748},{"duration":1.9684927369791865,"midi":66,"time":169.1904778958333,"velocity":0.3937007874015748},{"duration":1.968492736979158,"midi":62,"time":169.20072379166666,"velocity":0.3937007874015748},{"duration":1.2307882369791514,"midi":80,"time":169.93842829166667,"velocity":0.3937007874015748},{"duration":2.2143942369791887,"midi":56,"time":169.94483197656248,"velocity":0.3937007874015748},{"duration":1.9672119999999893,"midi":64,"time":171.16409358072917,"velocity":0.3937007874015748},{"duration":0.7377045000000066,"midi":83,"time":171.16409358072917,"velocity":0.3937007874015748},{"duration":0.9836060000000089,"midi":59,"time":171.17562021354166,"velocity":0.3937007874015748},{"duration":1.968492736979158,"midi":81,"time":171.91716692447918,"velocity":0.3937007874015748},{"duration":1.1065567499999815,"midi":54,"time":172.14769958072918,"velocity":0.3937007874015748},{"duration":1.8455419869791285,"midi":57,"time":172.14769958072918,"velocity":0.3937007874015748},{"duration":1.9684927369791865,"midi":66,"time":173.1364285286458,"velocity":0.3937007874015748},{"duration":1.9684927369791865,"midi":62,"time":173.1364285286458,"velocity":0.3937007874015748},{"duration":1.2307882369791514,"midi":80,"time":173.88053671354166,"velocity":0.3937007874015748},{"duration":2.2143942369791603,"midi":56,"time":173.88565966145833,"velocity":0.3937007874015748},{"duration":4.7963599869791835,"midi":64,"time":175.089552421875,"velocity":0.3937007874015748},{"duration":0.9836060000000089,"midi":59,"time":175.09467536979167,"velocity":0.3937007874015748},{"duration":0.7377045000000066,"midi":83,"time":175.09979831770832,"velocity":0.3937007874015748},{"duration":4.182886973958347,"midi":81,"time":175.85287166145832,"velocity":0.3937007874015748},{"duration":3.8127539869791747,"midi":57,"time":176.088527265625,"velocity":0.3937007874015748},{"duration":0.9836060000000089,"midi":54,"time":176.09493095052082,"velocity":0.3937007874015748},{"duration":2.829147986979166,"midi":62,"time":177.0836598984375,"velocity":0.3937007874015748},{"duration":2.829147986979166,"midi":69,"time":177.0836598984375,"velocity":0.3937007874015748},{"duration":0.12295075000000111,"midi":69,"time":180.0306356875,"velocity":0.3937007874015748},{"duration":0.12295075000000111,"midi":64,"time":180.0306356875,"velocity":0.3937007874015748},{"duration":0.12295075000000111,"midi":62,"time":180.03575863541667,"velocity":0.3937007874015748},{"duration":0.24590150000000222,"midi":57,"time":180.03575863541667,"velocity":0.3937007874015748},{"duration":0.12295075000000111,"midi":64,"time":180.28166013541667,"velocity":0.3937007874015748},{"duration":0.12295075000000111,"midi":62,"time":180.28166013541667,"velocity":0.3937007874015748},{"duration":0.12295075000000111,"midi":69,"time":180.28166013541667,"velocity":0.3937007874015748},{"duration":0.12295075000000111,"midi":57,"time":180.28678308333332,"velocity":0.3937007874015748},{"duration":0.24590150000000222,"midi":57,"time":180.52756163541667,"velocity":0.3937007874015748},{"duration":0.12295075000000111,"midi":62,"time":180.53268458333332,"velocity":0.3937007874015748},{"duration":0.24590150000000222,"midi":69,"time":180.53268458333332,"velocity":0.3937007874015748},{"duration":0.12295075000000111,"midi":64,"time":180.53780753125,"velocity":0.3937007874015748},{"duration":1.9672119999999893,"midi":62,"time":181.0142416875,"velocity":0.3937007874015748},{"duration":1.9672119999999893,"midi":66,"time":181.0142416875,"velocity":0.3937007874015748},{"duration":11.807114210937499,"midi":61,"time":181.0142416875,"velocity":0.3937007874015748},{"duration":0.7377045000000066,"midi":81,"time":181.01936463541668,"velocity":0.3937007874015748},{"duration":0.7377045000000066,"midi":57,"time":181.01936463541668,"velocity":0.3937007874015748},{"duration":2.21311350000002,"midi":56,"time":181.73657734374999,"velocity":0.3937007874015748},{"duration":1.2295074999999827,"midi":80,"time":181.75706913541669,"velocity":0.3937007874015748},{"duration":1.9684927369791296,"midi":64,"time":182.97505000260418,"velocity":0.3937007874015748},{"duration":0.9836060000000089,"midi":59,"time":182.98657663541667,"velocity":0.3937007874015748},{"duration":0.7377045000000066,"midi":83,"time":182.98657663541667,"velocity":0.3937007874015748},{"duration":1.9684927369791865,"midi":81,"time":183.73452703125,"velocity":0.3937007874015748},{"duration":0.9836059999999804,"midi":54,"time":183.94969084375,"velocity":0.3937007874015748},{"duration":1.721310499999987,"midi":57,"time":183.95481379166668,"velocity":0.3937007874015748},{"duration":1.9684927369791865,"midi":66,"time":184.93329684374999,"velocity":0.3937007874015748},{"duration":1.9684927369791865,"midi":62,"time":184.9435427395833,"velocity":0.3937007874015748},{"duration":1.2307882369791798,"midi":80,"time":185.6812472395833,"velocity":0.3937007874015748},{"duration":2.214394236979132,"midi":56,"time":185.6876509244792,"velocity":0.3937007874015748},{"duration":0.7377045000000066,"midi":83,"time":186.90691252864582,"velocity":0.3937007874015748},{"duration":1.9672119999999893,"midi":64,"time":186.90691252864582,"velocity":0.3937007874015748},{"duration":0.9836060000000089,"midi":59,"time":186.9184391614583,"velocity":0.3937007874015748},{"duration":1.9684927369791865,"midi":81,"time":187.65998587239582,"velocity":0.3937007874015748},{"duration":1.1065567499999815,"midi":54,"time":187.89051852864583,"velocity":0.3937007874015748},{"duration":1.845541986979157,"midi":57,"time":187.89051852864583,"velocity":0.3937007874015748},{"duration":1.9684927369791865,"midi":66,"time":188.87924747656248,"velocity":0.3937007874015748},{"duration":1.9684927369791865,"midi":62,"time":188.87924747656248,"velocity":0.3937007874015748},{"duration":1.2307882369791514,"midi":80,"time":189.62335566145833,"velocity":0.3937007874015748},{"duration":2.2143942369791603,"midi":56,"time":189.628478609375,"velocity":0.3937007874015748},{"duration":4.796359986979155,"midi":64,"time":190.83237136979167,"velocity":0.3937007874015748},{"duration":0.9836060000000089,"midi":59,"time":190.83749431770832,"velocity":0.3937007874015748},{"duration":0.7377045000000066,"midi":83,"time":190.842617265625,"velocity":0.3937007874015748},{"duration":4.182886973958318,"midi":81,"time":191.595690609375,"velocity":0.3937007874015748},{"duration":3.8127539869791462,"midi":57,"time":191.83134621354168,"velocity":0.3937007874015748},{"duration":0.9836060000000089,"midi":54,"time":191.8377498984375,"velocity":0.3937007874015748},{"duration":2.8291479869791374,"midi":62,"time":192.82647884635418,"velocity":0.3937007874015748},{"duration":2.8291479869791374,"midi":69,"time":192.82647884635418,"velocity":0.3937007874015748},{"duration":0.12295075000000111,"midi":64,"time":195.77345463541667,"velocity":0.3937007874015748},{"duration":0.12295075000000111,"midi":69,"time":195.77345463541667,"velocity":0.3937007874015748},{"duration":0.12295075000000111,"midi":62,"time":195.77857758333332,"velocity":0.3937007874015748},{"duration":0.24590150000000222,"midi":57,"time":195.77857758333332,"velocity":0.3937007874015748},{"duration":0.12295075000000111,"midi":62,"time":196.02447908333332,"velocity":0.3937007874015748},{"duration":0.12295075000000111,"midi":69,"time":196.02447908333332,"velocity":0.3937007874015748},{"duration":0.12295075000000111,"midi":64,"time":196.02447908333332,"velocity":0.3937007874015748},{"duration":0.12295075000000111,"midi":57,"time":196.02960203125,"velocity":0.3937007874015748},{"duration":0.24590150000000222,"midi":57,"time":196.27038058333332,"velocity":0.3937007874015748},{"duration":0.12295075000000111,"midi":62,"time":196.27550353125,"velocity":0.3937007874015748},{"duration":0.24590150000000222,"midi":69,"time":196.27550353125,"velocity":0.3937007874015748},{"duration":0.12295075000000111,"midi":64,"time":196.28062647916667,"velocity":0.3937007874015748},{"duration":1.9672119999999893,"midi":66,"time":196.75706063541668,"velocity":0.3937007874015748},{"duration":11.807114210937499,"midi":61,"time":196.75706063541668,"velocity":0.3937007874015748},{"duration":1.9672119999999893,"midi":62,"time":196.75706063541668,"velocity":0.3937007874015748},{"duration":0.7377045000000066,"midi":81,"time":196.76218358333333,"velocity":0.3937007874015748},{"duration":0.7377045000000066,"midi":57,"time":196.76218358333333,"velocity":0.3937007874015748},{"duration":2.21311350000002,"midi":56,"time":197.47939629166666,"velocity":0.3937007874015748},{"duration":1.2295074999999827,"midi":80,"time":197.49988808333333,"velocity":0.3937007874015748},{"duration":1.968492736979158,"midi":64,"time":198.71786895052082,"velocity":0.3937007874015748},{"duration":0.7377045000000066,"midi":83,"time":198.72939558333331,"velocity":0.3937007874015748},{"duration":0.9836060000000089,"midi":59,"time":198.72939558333331,"velocity":0.3937007874015748},{"duration":1.968492736979158,"midi":81,"time":199.47734597916667,"velocity":0.3937007874015748},{"duration":0.9836059999999804,"midi":54,"time":199.69250979166668,"velocity":0.3937007874015748},{"duration":1.721310499999987,"midi":57,"time":199.69763273958333,"velocity":0.3937007874015748},{"duration":1.968492736979158,"midi":66,"time":200.67611579166666,"velocity":0.3937007874015748},{"duration":1.9684927369791865,"midi":62,"time":200.68636168749998,"velocity":0.3937007874015748},{"duration":1.2307882369791798,"midi":80,"time":201.4240661875,"velocity":0.3937007874015748},{"duration":2.2143942369791603,"midi":56,"time":201.43046987239583,"velocity":0.3937007874015748},{"duration":1.9672119999999893,"midi":64,"time":202.6497314765625,"velocity":0.3937007874015748},{"duration":0.7377045000000066,"midi":83,"time":202.6497314765625,"velocity":0.3937007874015748},{"duration":0.9836060000000089,"midi":59,"time":202.66125810937498,"velocity":0.3937007874015748},{"duration":1.9684927369791865,"midi":81,"time":203.4028048203125,"velocity":0.3937007874015748},{"duration":1.845541986979157,"midi":57,"time":203.6333374765625,"velocity":0.3937007874015748},{"duration":1.1065567499999815,"midi":54,"time":203.6333374765625,"velocity":0.3937007874015748},{"duration":1.968492736979158,"midi":66,"time":204.62206642447916,"velocity":0.3937007874015748},{"duration":1.968492736979158,"midi":62,"time":204.62206642447916,"velocity":0.3937007874015748},{"duration":1.2307882369791514,"midi":80,"time":205.366174609375,"velocity":0.3937007874015748},{"duration":2.214394236979132,"midi":56,"time":205.37129755729168,"velocity":0.3937007874015748},{"duration":4.7963599869791835,"midi":64,"time":206.57519031770832,"velocity":0.3937007874015748},{"duration":0.9836060000000089,"midi":59,"time":206.580313265625,"velocity":0.3937007874015748},{"duration":0.7377045000000066,"midi":83,"time":206.58543621354167,"velocity":0.3937007874015748},{"duration":4.182886973958318,"midi":81,"time":207.33850955729167,"velocity":0.3937007874015748},{"duration":3.8127539869791747,"midi":57,"time":207.57416516145832,"velocity":0.3937007874015748},{"duration":0.9836060000000089,"midi":54,"time":207.58056884635417,"velocity":0.3937007874015748},{"duration":2.829147986979166,"midi":69,"time":208.56929779427082,"velocity":0.3937007874015748},{"duration":2.829147986979166,"midi":62,"time":208.56929779427082,"velocity":0.3937007874015748},{"duration":0.12295075000000111,"midi":64,"time":211.51627358333332,"velocity":0.3937007874015748},{"duration":0.12295075000000111,"midi":69,"time":211.51627358333332,"velocity":0.3937007874015748},{"duration":0.24590150000000222,"midi":57,"time":211.52139653125,"velocity":0.3937007874015748},{"duration":0.12295075000000111,"midi":62,"time":211.52139653125,"velocity":0.3937007874015748},{"duration":0.12295075000000111,"midi":69,"time":211.76729803125,"velocity":0.3937007874015748},{"duration":0.12295075000000111,"midi":62,"time":211.76729803125,"velocity":0.3937007874015748},{"duration":0.12295075000000111,"midi":64,"time":211.76729803125,"velocity":0.3937007874015748},{"duration":0.12295075000000111,"midi":57,"time":211.77242097916667,"velocity":0.3937007874015748},{"duration":0.24590150000000222,"midi":57,"time":212.01319953125,"velocity":0.3937007874015748},{"duration":0.24590150000000222,"midi":69,"time":212.01832247916667,"velocity":0.3937007874015748},{"duration":0.12295075000000111,"midi":62,"time":212.01832247916667,"velocity":0.3937007874015748},{"duration":0.12295075000000111,"midi":64,"time":212.02344542708332,"velocity":0.3937007874015748},{"duration":1.9672119999999893,"midi":62,"time":212.49987958333332,"velocity":0.3937007874015748},{"duration":1.9672119999999893,"midi":66,"time":212.49987958333332,"velocity":0.3937007874015748},{"duration":11.807114210937499,"midi":61,"time":212.49987958333332,"velocity":0.3937007874015748},{"duration":0.7377045000000066,"midi":81,"time":212.50500253125,"velocity":0.3937007874015748},{"duration":0.7377045000000066,"midi":57,"time":212.50500253125,"velocity":0.3937007874015748},{"duration":2.21311350000002,"midi":56,"time":213.2222152395833,"velocity":0.3937007874015748},{"duration":1.2295074999999827,"midi":80,"time":213.24270703125,"velocity":0.3937007874015748},{"duration":1.9684927369791865,"midi":64,"time":214.4606878984375,"velocity":0.3937007874015748},{"duration":0.9836060000000089,"midi":59,"time":214.47221453125,"velocity":0.3937007874015748},{"duration":0.7377045000000066,"midi":83,"time":214.47221453125,"velocity":0.3937007874015748},{"duration":1.9684927369791865,"midi":81,"time":215.22016492708332,"velocity":0.3937007874015748},{"duration":0.9836059999999804,"midi":54,"time":215.43532873958333,"velocity":0.3937007874015748},{"duration":1.721310499999987,"midi":57,"time":215.4404516875,"velocity":0.3937007874015748},{"duration":1.9684927369791865,"midi":66,"time":216.4189347395833,"velocity":0.3937007874015748},{"duration":1.9684927369791296,"midi":62,"time":216.42918063541669,"velocity":0.3937007874015748},{"duration":1.2307882369791514,"midi":80,"time":217.16688513541666,"velocity":0.3937007874015748},{"duration":2.2143942369791603,"midi":56,"time":217.1732888203125,"velocity":0.3937007874015748},{"duration":1.9672119999999893,"midi":64,"time":218.39255042447917,"velocity":0.3937007874015748},{"duration":0.7377045000000066,"midi":83,"time":218.39255042447917,"velocity":0.3937007874015748},{"duration":0.9836060000000089,"midi":59,"time":218.40407705729166,"velocity":0.3937007874015748},{"duration":1.968492736979158,"midi":81,"time":219.14562376822917,"velocity":0.3937007874015748},{"duration":1.1065567499999815,"midi":54,"time":219.37615642447918,"velocity":0.3937007874015748},{"duration":1.8455419869791285,"midi":57,"time":219.37615642447918,"velocity":0.3937007874015748},{"duration":1.968492736979158,"midi":62,"time":220.36488537239583,"velocity":0.3937007874015748},{"duration":1.968492736979158,"midi":66,"time":220.36488537239583,"velocity":0.3937007874015748},{"duration":1.230788236979123,"midi":80,"time":221.10899355729168,"velocity":0.3937007874015748},{"duration":2.2143942369791603,"midi":56,"time":221.11411650520833,"velocity":0.3937007874015748},{"duration":4.7963599869791835,"midi":64,"time":222.318009265625,"velocity":0.3937007874015748},{"duration":0.9836060000000089,"midi":59,"time":222.32313221354167,"velocity":0.3937007874015748},{"duration":0.7377045000000066,"midi":83,"time":222.32825516145832,"velocity":0.3937007874015748},{"duration":4.182886973958347,"midi":81,"time":223.08132850520832,"velocity":0.3937007874015748},{"duration":3.8127539869791747,"midi":57,"time":223.316984109375,"velocity":0.3937007874015748},{"duration":0.9836060000000089,"midi":54,"time":223.32338779427081,"velocity":0.3937007874015748},{"duration":2.829147986979166,"midi":62,"time":224.3121167421875,"velocity":0.3937007874015748},{"duration":2.829147986979166,"midi":69,"time":224.3121167421875,"velocity":0.3937007874015748},{"duration":0.12295075000000111,"midi":69,"time":227.25909253125,"velocity":0.3937007874015748},{"duration":0.12295075000000111,"midi":64,"time":227.25909253125,"velocity":0.3937007874015748},{"duration":0.12295075000000111,"midi":62,"time":227.26421547916667,"velocity":0.3937007874015748},{"duration":0.24590150000000222,"midi":57,"time":227.26421547916667,"velocity":0.3937007874015748},{"duration":0.12295075000000111,"midi":64,"time":227.51011697916667,"velocity":0.3937007874015748},{"duration":0.12295075000000111,"midi":62,"time":227.51011697916667,"velocity":0.3937007874015748},{"duration":0.12295075000000111,"midi":69,"time":227.51011697916667,"velocity":0.3937007874015748},{"duration":0.12295075000000111,"midi":57,"time":227.51523992708331,"velocity":0.3937007874015748},{"duration":0.24590150000000222,"midi":57,"time":227.75601847916667,"velocity":0.3937007874015748},{"duration":0.12295075000000111,"midi":62,"time":227.76114142708332,"velocity":0.3937007874015748},{"duration":0.24590150000000222,"midi":69,"time":227.76114142708332,"velocity":0.3937007874015748},{"duration":0.12295075000000111,"midi":64,"time":227.766264375,"velocity":0.3937007874015748}]},{"instrument":{"family":"piano","number":6,"name":"harpsichord"},"notes":[{"duration":0.12295075000000111,"midi":72,"time":15.235647104166667,"velocity":0.3937007874015748},{"duration":0.12295074999999933,"midi":72,"time":15.358597854166668,"velocity":0.3937007874015748},{"duration":0.12295074999999933,"midi":71,"time":15.481548604166667,"velocity":0.3937007874015748},{"duration":0.12295075000000111,"midi":69,"time":15.604499354166666,"velocity":0.3937007874015748},{"duration":0.12295074999999756,"midi":71,"time":15.727450104166667,"velocity":0.3937007874015748},{"duration":3.3196702500000015,"midi":69,"time":15.850400854166665,"velocity":0.3937007874015748},{"duration":2.950817999999998,"midi":62,"time":19.4262185,"velocity":0.3937007874015748},{"duration":2.950817999999998,"midi":66,"time":19.4262185,"velocity":0.3937007874015748},{"duration":0.12295075000000111,"midi":66,"time":22.628060947916666,"velocity":0.3937007874015748},{"duration":0.12295075000000111,"midi":62,"time":22.633183895833334,"velocity":0.3937007874015748},{"duration":0.12295075000000111,"midi":66,"time":55.31887234114583,"velocity":0.3937007874015748},{"duration":0.12295075000000111,"midi":62,"time":55.31887234114583,"velocity":0.3937007874015748},{"duration":0.12295075000000111,"midi":62,"time":56.29735539322917,"velocity":0.3937007874015748},{"duration":0.12295075000000111,"midi":66,"time":56.29735539322917,"velocity":0.3937007874015748},{"duration":0.12295075000000111,"midi":62,"time":59.25329634114583,"velocity":0.3937007874015748},{"duration":0.12295075000000111,"midi":66,"time":59.25329634114583,"velocity":0.3937007874015748},{"duration":0.12295075000000111,"midi":62,"time":60.23690234114583,"velocity":0.3937007874015748},{"duration":0.12295075000000111,"midi":66,"time":60.23690234114583,"velocity":0.3937007874015748},{"duration":0.12295075000000111,"midi":66,"time":63.187720341145834,"velocity":0.3937007874015748},{"duration":0.12295075000000111,"midi":62,"time":63.187720341145834,"velocity":0.3937007874015748},{"duration":0.1229507499999869,"midi":62,"time":64.17132634114584,"velocity":0.3937007874015748},{"duration":0.1229507499999869,"midi":66,"time":64.17132634114584,"velocity":0.3937007874015748},{"duration":0.12295075000000111,"midi":64,"time":67.1272672890625,"velocity":0.3937007874015748},{"duration":0.12295075000000111,"midi":69,"time":67.1272672890625,"velocity":0.3937007874015748},{"duration":0.245901499999988,"midi":62,"time":67.3731687890625,"velocity":0.3937007874015748},{"duration":0.245901499999988,"midi":66,"time":67.3731687890625,"velocity":0.3937007874015748},{"duration":0.12295075000000111,"midi":64,"time":67.61907028906249,"velocity":0.3937007874015748},{"duration":0.12295075000000111,"midi":69,"time":67.61907028906249,"velocity":0.3937007874015748},{"duration":0.12295075000000111,"midi":69,"time":68.10575034114584,"velocity":0.3937007874015748},{"duration":0.12295075000000111,"midi":64,"time":68.10575034114584,"velocity":0.3937007874015748},{"duration":0.24590150000000222,"midi":66,"time":68.35165184114584,"velocity":0.3937007874015748},{"duration":0.24590150000000222,"midi":62,"time":68.3567747890625,"velocity":0.3937007874015748},{"duration":0.12295075000000111,"midi":64,"time":68.6026762890625,"velocity":0.3937007874015748},{"duration":0.12295075000000111,"midi":69,"time":68.6026762890625,"velocity":0.3937007874015748},{"duration":0.1229507499999869,"midi":64,"time":69.0944792890625,"velocity":0.3937007874015748},{"duration":0.1229507499999869,"midi":69,"time":69.0944792890625,"velocity":0.3937007874015748},{"duration":0.24590150000000222,"midi":66,"time":69.3403807890625,"velocity":0.3937007874015748},{"duration":0.24590150000000222,"midi":62,"time":69.3403807890625,"velocity":0.3937007874015748},{"duration":0.12295075000000111,"midi":64,"time":69.58115934114583,"velocity":0.3937007874015748},{"duration":0.12295075000000111,"midi":69,"time":69.58115934114583,"velocity":0.3937007874015748},{"duration":0.12295075000000111,"midi":64,"time":69.82706084114584,"velocity":0.3937007874015748},{"duration":0.12295075000000111,"midi":69,"time":69.8321837890625,"velocity":0.3937007874015748},{"duration":0.12295075000000111,"midi":64,"time":70.0780852890625,"velocity":0.3937007874015748},{"duration":0.12295075000000111,"midi":69,"time":70.0780852890625,"velocity":0.3937007874015748},{"duration":0.12295075000000111,"midi":64,"time":70.3239867890625,"velocity":0.3937007874015748},{"duration":0.12295075000000111,"midi":69,"time":70.3239867890625,"velocity":0.3937007874015748},{"duration":0.4918029999999902,"midi":69,"time":70.82603568489584,"velocity":0.3937007874015748},{"duration":0.24590150000000222,"midi":66,"time":71.31271573697916,"velocity":0.3937007874015748},{"duration":0.12295075000000111,"midi":64,"time":71.56374018489583,"velocity":0.3937007874015748},{"duration":0.49180300000000443,"midi":69,"time":71.8147646328125,"velocity":0.3937007874015748},{"duration":0.24590150000000222,"midi":66,"time":72.287356578125,"velocity":0.3937007874015748},{"duration":0.12295075000000111,"midi":64,"time":72.533258078125,"velocity":0.3937007874015748},{"duration":0.24590150000000222,"midi":69,"time":73.02506107812499,"velocity":0.3937007874015748},{"duration":0.24590150000000222,"midi":66,"time":73.27608552604165,"velocity":0.3937007874015748},{"duration":0.12295075000000111,"midi":64,"time":73.516864078125,"velocity":0.3937007874015748},{"duration":0.49180300000000443,"midi":69,"time":73.762765578125,"velocity":0.3937007874015748},{"duration":0.24590150000000222,"midi":66,"time":74.254568578125,"velocity":0.3937007874015748},{"duration":0.12295075000000111,"midi":64,"time":74.50559302604167,"velocity":0.3937007874015748},{"duration":0.4918029999999902,"midi":69,"time":74.75661747395834,"velocity":0.3937007874015748},{"duration":0.24590150000000222,"midi":66,"time":75.24329752604166,"velocity":0.3937007874015748},{"duration":0.12295075000000111,"midi":64,"time":75.48919902604166,"velocity":0.3937007874015748},{"duration":0.49180300000000443,"midi":69,"time":75.73510052604166,"velocity":0.3937007874015748},{"duration":0.24590150000000222,"midi":66,"time":76.22178057812499,"velocity":0.3937007874015748},{"duration":0.12295075000000111,"midi":64,"time":76.467682078125,"velocity":0.3937007874015748},{"duration":0.24590150000000222,"midi":69,"time":76.96460802604166,"velocity":0.3937007874015748},{"duration":0.24590150000000222,"midi":66,"time":77.21050952604166,"velocity":0.3937007874015748},{"duration":0.12295075000000111,"midi":64,"time":77.451288078125,"velocity":0.3937007874015748},{"duration":0.4918029999999902,"midi":69,"time":77.697189578125,"velocity":0.3937007874015748},{"duration":0.24590150000000222,"midi":66,"time":78.18386963020833,"velocity":0.3937007874015748},{"duration":0.12295075000000111,"midi":64,"time":78.434894078125,"velocity":0.3937007874015748},{"duration":0.49180300000000443,"midi":69,"time":78.680795578125,"velocity":0.3937007874015748},{"duration":0.245901499999988,"midi":66,"time":79.172598578125,"velocity":0.3937007874015748},{"duration":0.12295075000000111,"midi":64,"time":79.41850007812499,"velocity":0.3937007874015748},{"duration":0.49180300000000443,"midi":69,"time":79.66952452604166,"velocity":0.3937007874015748},{"duration":0.24590150000000222,"midi":66,"time":80.156204578125,"velocity":0.3937007874015748},{"duration":0.12295075000000111,"midi":65,"time":80.402106078125,"velocity":0.3937007874015748},{"duration":0.24590150000000222,"midi":71,"time":80.89390907812499,"velocity":0.3937007874015748},{"duration":0.24590150000000222,"midi":66,"time":81.139810578125,"velocity":0.3937007874015748},{"duration":0.12295075000000111,"midi":64,"time":81.385712078125,"velocity":0.3937007874015748},{"duration":0.49180300000000443,"midi":69,"time":81.631613578125,"velocity":0.3937007874015748},{"duration":0.24590150000000222,"midi":66,"time":82.123416578125,"velocity":0.3937007874015748},{"duration":0.1229507499999869,"midi":64,"time":82.369318078125,"velocity":0.3937007874015748},{"duration":0.12295075000000111,"midi":66,"time":82.615219578125,"velocity":0.3937007874015748},{"duration":0.12295075000000111,"midi":62,"time":82.615219578125,"velocity":0.3937007874015748},{"duration":0.3688522500000033,"midi":66,"time":82.861121078125,"velocity":0.3937007874015748},{"duration":0.3688522500000033,"midi":62,"time":82.861121078125,"velocity":0.3937007874015748},{"duration":0.12295075000000111,"midi":62,"time":83.352924078125,"velocity":0.3937007874015748},{"duration":0.12295075000000111,"midi":66,"time":83.352924078125,"velocity":0.3937007874015748},{"duration":0.3688522500000033,"midi":66,"time":83.598825578125,"velocity":0.3937007874015748},{"duration":0.3688522500000033,"midi":62,"time":83.60394852604166,"velocity":0.3937007874015748},{"duration":0.1229507499999869,"midi":66,"time":84.09575152604167,"velocity":0.3937007874015748},{"duration":0.12295075000000111,"midi":62,"time":84.10087447395834,"velocity":0.3937007874015748},{"duration":0.3688522500000033,"midi":62,"time":84.34165302604166,"velocity":0.3937007874015748},{"duration":0.3688522500000033,"midi":66,"time":84.34165302604166,"velocity":0.3937007874015748},{"duration":0.12295075000000111,"midi":66,"time":84.83857897395833,"velocity":0.3937007874015748},{"duration":0.12295075000000111,"midi":62,"time":84.83857897395833,"velocity":0.3937007874015748},{"duration":0.24590150000000222,"midi":62,"time":85.07935752604166,"velocity":0.3937007874015748},{"duration":0.24590150000000222,"midi":66,"time":85.08448047395834,"velocity":0.3937007874015748},{"duration":0.245901499999988,"midi":66,"time":85.566037578125,"velocity":0.3937007874015748},{"duration":0.245901499999988,"midi":62,"time":85.566037578125,"velocity":0.3937007874015748},{"duration":0.12295075000000111,"midi":54,"time":102.502503390625,"velocity":0.3937007874015748},{"duration":0.24590150000000222,"midi":61,"time":102.7676159453125,"velocity":0.3937007874015748},{"duration":0.12295075000000111,"midi":59,"time":103.0288862890625,"velocity":0.3937007874015748},{"duration":0.24590150000000222,"midi":61,"time":103.27991073697916,"velocity":0.3937007874015748},{"duration":0.12295075000000111,"midi":57,"time":103.5206892890625,"velocity":0.3937007874015748},{"duration":0.24590150000000222,"midi":66,"time":103.7819596328125,"velocity":0.3937007874015748},{"duration":0.12295075000000111,"midi":64,"time":104.0124922890625,"velocity":0.3937007874015748},{"duration":0.12295075000000111,"midi":68,"time":104.25327084114583,"velocity":0.3937007874015748},{"duration":0.4918029999999902,"midi":69,"time":104.29425442447916,"velocity":0.3937007874015748},{"duration":0.24590150000000222,"midi":66,"time":104.7501967890625,"velocity":0.3937007874015748},{"duration":0.12295075000000111,"midi":64,"time":104.99097534114584,"velocity":0.3937007874015748},{"duration":0.12295075000000111,"midi":68,"time":105.23687684114583,"velocity":0.3937007874015748},{"duration":0.49180300000000443,"midi":69,"time":105.26761452864584,"velocity":0.3937007874015748},{"duration":0.24590150000000222,"midi":66,"time":105.74789089583334,"velocity":0.3937007874015748},{"duration":0.12295075000000111,"midi":64,"time":105.99379239583334,"velocity":0.3937007874015748},{"duration":0.12295075000000111,"midi":54,"time":106.45485770833334,"velocity":0.3937007874015748},{"duration":0.24590150000000222,"midi":61,"time":106.70075920833334,"velocity":0.3937007874015748},{"duration":0.12295075000000111,"midi":59,"time":106.93129186458333,"velocity":0.3937007874015748},{"duration":0.245901499999988,"midi":61,"time":107.19768515625,"velocity":0.3937007874015748},{"duration":0.1229507499999869,"midi":57,"time":107.44870960416667,"velocity":0.3937007874015748},{"duration":0.245901499999988,"midi":66,"time":107.704857,"velocity":0.3937007874015748},{"duration":0.12295075000000111,"midi":64,"time":107.93026670833333,"velocity":0.3937007874015748},{"duration":0.1229507499999869,"midi":69,"time":108.18257189322917,"velocity":0.3937007874015748},{"duration":0.061475375000000554,"midi":68,"time":108.18769484114584,"velocity":0.3937007874015748},{"duration":0.245901499999988,"midi":69,"time":108.4387192890625,"velocity":0.3937007874015748},{"duration":0.24590150000000222,"midi":66,"time":108.68462078906249,"velocity":0.3937007874015748},{"duration":0.12295075000000111,"midi":64,"time":108.9151534453125,"velocity":0.3937007874015748},{"duration":0.4918029999999902,"midi":69,"time":109.172581578125,"velocity":0.3937007874015748},{"duration":0.061475375000000554,"midi":68,"time":109.17770452604167,"velocity":0.3937007874015748},{"duration":0.24590150000000222,"midi":66,"time":109.6835956328125,"velocity":0.3937007874015748},{"duration":0.12295075000000111,"midi":64,"time":109.9294971328125,"velocity":0.3937007874015748},{"duration":0.24590150000000222,"midi":61,"time":110.64286763020833,"velocity":0.3937007874015748},{"duration":0.245901499999988,"midi":57,"time":110.647990578125,"velocity":0.3937007874015748},{"duration":0.12295075000000111,"midi":56,"time":110.9131031328125,"velocity":0.3937007874015748},{"duration":0.12295075000000111,"midi":59,"time":110.9131031328125,"velocity":0.3937007874015748},{"duration":0.12295075000000111,"midi":57,"time":111.36904549739583,"velocity":0.3937007874015748},{"duration":0.24590150000000222,"midi":54,"time":111.38057213020834,"velocity":0.3937007874015748},{"duration":0.9836059999999947,"midi":56,"time":111.86084849739584,"velocity":0.3937007874015748},{"duration":0.7377045000000066,"midi":53,"time":111.8659714453125,"velocity":0.3937007874015748},{"duration":1.1065567499999958,"midi":57,"time":112.87006923697916,"velocity":0.3937007874015748},{"duration":1.1065567499999958,"midi":54,"time":112.8803151328125,"velocity":0.3937007874015748},{"duration":0.12295075000000111,"midi":62,"time":118.270937078125,"velocity":0.3937007874015748},{"duration":0.12295075000000111,"midi":66,"time":118.270937078125,"velocity":0.3937007874015748},{"duration":0.12295075000000111,"midi":66,"time":119.24942013020834,"velocity":0.3937007874015748},{"duration":0.12295075000000111,"midi":62,"time":119.24942013020834,"velocity":0.3937007874015748},{"duration":0.12295075000000111,"midi":62,"time":122.205361078125,"velocity":0.3937007874015748},{"duration":0.12295075000000111,"midi":66,"time":122.205361078125,"velocity":0.3937007874015748},{"duration":0.12295075000000111,"midi":62,"time":123.188967078125,"velocity":0.3937007874015748},{"duration":0.12295075000000111,"midi":66,"time":123.188967078125,"velocity":0.3937007874015748},{"duration":0.12295075000000111,"midi":66,"time":126.139785078125,"velocity":0.3937007874015748},{"duration":0.12295075000000111,"midi":62,"time":126.139785078125,"velocity":0.3937007874015748},{"duration":0.12295075000000111,"midi":66,"time":127.123391078125,"velocity":0.3937007874015748},{"duration":0.12295075000000111,"midi":62,"time":127.123391078125,"velocity":0.3937007874015748},{"duration":0.12295075000000111,"midi":64,"time":130.07933202604167,"velocity":0.3937007874015748},{"duration":0.12295075000000111,"midi":69,"time":130.07933202604167,"velocity":0.3937007874015748},{"duration":0.24590150000000222,"midi":62,"time":130.32523352604167,"velocity":0.3937007874015748},{"duration":0.24590150000000222,"midi":66,"time":130.32523352604167,"velocity":0.3937007874015748},{"duration":0.12295075000000111,"midi":64,"time":130.57113502604167,"velocity":0.3937007874015748},{"duration":0.12295075000000111,"midi":69,"time":130.57113502604167,"velocity":0.3937007874015748},{"duration":0.12295075000000111,"midi":64,"time":131.057815078125,"velocity":0.3937007874015748},{"duration":0.12295075000000111,"midi":69,"time":131.057815078125,"velocity":0.3937007874015748},{"duration":0.24590150000000222,"midi":66,"time":131.303716578125,"velocity":0.3937007874015748},{"duration":0.24590150000000222,"midi":62,"time":131.30883952604168,"velocity":0.3937007874015748},{"duration":0.12295075000000111,"midi":69,"time":131.55474102604168,"velocity":0.3937007874015748},{"duration":0.12295075000000111,"midi":64,"time":131.55474102604168,"velocity":0.3937007874015748},{"duration":0.12295074999997269,"midi":69,"time":132.0465440260417,"velocity":0.3937007874015748},{"duration":0.12295074999997269,"midi":64,"time":132.0465440260417,"velocity":0.3937007874015748},{"duration":0.24590150000000222,"midi":62,"time":132.29244552604166,"velocity":0.3937007874015748},{"duration":0.24590150000000222,"midi":66,"time":132.29244552604166,"velocity":0.3937007874015748},{"duration":0.12295075000000111,"midi":64,"time":132.533224078125,"velocity":0.3937007874015748},{"duration":0.12295075000000111,"midi":69,"time":132.533224078125,"velocity":0.3937007874015748},{"duration":0.12295075000000111,"midi":64,"time":132.779125578125,"velocity":0.3937007874015748},{"duration":0.12295075000000111,"midi":69,"time":132.78424852604167,"velocity":0.3937007874015748},{"duration":0.12295075000000111,"midi":64,"time":133.03015002604167,"velocity":0.3937007874015748},{"duration":0.12295075000000111,"midi":69,"time":133.03015002604167,"velocity":0.3937007874015748},{"duration":0.12295075000000111,"midi":64,"time":133.27605152604167,"velocity":0.3937007874015748},{"duration":0.12295075000000111,"midi":69,"time":133.27605152604167,"velocity":0.3937007874015748},{"duration":0.12295075000000111,"midi":62,"time":134.008633078125,"velocity":0.3937007874015748},{"duration":0.12295075000000111,"midi":66,"time":134.008633078125,"velocity":0.3937007874015748},{"duration":0.12295074999997269,"midi":62,"time":134.98711613020834,"velocity":0.3937007874015748},{"duration":0.12295074999997269,"midi":66,"time":134.98711613020834,"velocity":0.3937007874015748},{"duration":0.12295075000000111,"midi":62,"time":137.943057078125,"velocity":0.3937007874015748},{"duration":0.12295075000000111,"midi":66,"time":137.943057078125,"velocity":0.3937007874015748},{"duration":0.12295075000000111,"midi":66,"time":138.926663078125,"velocity":0.3937007874015748},{"duration":0.12295075000000111,"midi":62,"time":138.926663078125,"velocity":0.3937007874015748},{"duration":0.12295075000000111,"midi":66,"time":141.877481078125,"velocity":0.3937007874015748},{"duration":0.12295075000000111,"midi":62,"time":141.877481078125,"velocity":0.3937007874015748},{"duration":0.12295075000000111,"midi":62,"time":142.861087078125,"velocity":0.3937007874015748},{"duration":0.12295075000000111,"midi":66,"time":142.861087078125,"velocity":0.3937007874015748},{"duration":0.12295075000000111,"midi":69,"time":145.81702802604167,"velocity":0.3937007874015748},{"duration":0.12295075000000111,"midi":64,"time":145.81702802604167,"velocity":0.3937007874015748},{"duration":0.24590150000000222,"midi":66,"time":146.06292952604167,"velocity":0.3937007874015748},{"duration":0.24590150000000222,"midi":62,"time":146.06292952604167,"velocity":0.3937007874015748},{"duration":0.12295075000000111,"midi":64,"time":146.30883102604167,"velocity":0.3937007874015748},{"duration":0.12295075000000111,"midi":69,"time":146.30883102604167,"velocity":0.3937007874015748},{"duration":0.12295075000000111,"midi":69,"time":146.795511078125,"velocity":0.3937007874015748},{"duration":0.12295075000000111,"midi":64,"time":146.795511078125,"velocity":0.3937007874015748},{"duration":0.24590150000000222,"midi":66,"time":147.041412578125,"velocity":0.3937007874015748},{"duration":0.24590150000000222,"midi":62,"time":147.04653552604168,"velocity":0.3937007874015748},{"duration":0.12295075000000111,"midi":64,"time":147.29243702604168,"velocity":0.3937007874015748},{"duration":0.12295075000000111,"midi":69,"time":147.29243702604168,"velocity":0.3937007874015748},{"duration":0.12295074999997269,"midi":64,"time":147.7842400260417,"velocity":0.3937007874015748},{"duration":0.12295074999997269,"midi":69,"time":147.7842400260417,"velocity":0.3937007874015748},{"duration":0.24590150000000222,"midi":66,"time":148.03014152604166,"velocity":0.3937007874015748},{"duration":0.24590150000000222,"midi":62,"time":148.03014152604166,"velocity":0.3937007874015748},{"duration":0.12295075000000111,"midi":64,"time":148.270920078125,"velocity":0.3937007874015748},{"duration":0.12295075000000111,"midi":69,"time":148.270920078125,"velocity":0.3937007874015748},{"duration":0.12295075000000111,"midi":64,"time":148.516821578125,"velocity":0.3937007874015748},{"duration":0.12295075000000111,"midi":69,"time":148.52194452604166,"velocity":0.3937007874015748},{"duration":0.12295075000000111,"midi":64,"time":148.76784602604167,"velocity":0.3937007874015748},{"duration":0.12295075000000111,"midi":69,"time":148.76784602604167,"velocity":0.3937007874015748},{"duration":0.12295075000000111,"midi":64,"time":149.01374752604167,"velocity":0.3937007874015748},{"duration":0.12295075000000111,"midi":69,"time":149.01374752604167,"velocity":0.3937007874015748},{"duration":0.12295075000000111,"midi":54,"time":149.715591390625,"velocity":0.3937007874015748},{"duration":0.24590150000000222,"midi":61,"time":149.98070394531248,"velocity":0.3937007874015748},{"duration":0.12295075000000111,"midi":59,"time":150.24197428906248,"velocity":0.3937007874015748},{"duration":0.24590150000000222,"midi":61,"time":150.49299873697916,"velocity":0.3937007874015748},{"duration":0.12295075000000111,"midi":57,"time":150.7337772890625,"velocity":0.3937007874015748},{"duration":0.24590150000000222,"midi":66,"time":150.9950476328125,"velocity":0.3937007874015748},{"duration":0.12295075000000111,"midi":64,"time":151.2255802890625,"velocity":0.3937007874015748},{"duration":0.12295075000000111,"midi":68,"time":151.46635884114582,"velocity":0.3937007874015748},{"duration":0.49180300000000443,"midi":69,"time":151.50734242447916,"velocity":0.3937007874015748},{"duration":0.24590150000000222,"midi":66,"time":151.9632847890625,"velocity":0.3937007874015748},{"duration":0.12295075000000111,"midi":64,"time":152.20406334114583,"velocity":0.3937007874015748},{"duration":0.12295075000000111,"midi":68,"time":152.44996484114583,"velocity":0.3937007874015748},{"duration":0.49180300000000443,"midi":69,"time":152.48070252864582,"velocity":0.3937007874015748},{"duration":0.24590150000000222,"midi":66,"time":152.9609788958333,"velocity":0.3937007874015748},{"duration":0.12295075000000111,"midi":64,"time":153.2068803958333,"velocity":0.3937007874015748},{"duration":0.12295075000000111,"midi":54,"time":153.66794570833332,"velocity":0.3937007874015748},{"duration":0.24590150000000222,"midi":61,"time":153.91384720833332,"velocity":0.3937007874015748},{"duration":0.12295075000000111,"midi":59,"time":154.14437986458333,"velocity":0.3937007874015748},{"duration":0.24590150000000222,"midi":61,"time":154.41077315625,"velocity":0.3937007874015748},{"duration":0.12295075000000111,"midi":57,"time":154.66179760416668,"velocity":0.3937007874015748},{"duration":0.24590150000000222,"midi":66,"time":154.917945,"velocity":0.3937007874015748},{"duration":0.12295075000000111,"midi":64,"time":155.14335470833333,"velocity":0.3937007874015748},{"duration":0.12295075000000111,"midi":69,"time":155.39565989322918,"velocity":0.3937007874015748},{"duration":0.06147537499998634,"midi":68,"time":155.40078284114583,"velocity":0.3937007874015748},{"duration":0.24590150000000222,"midi":69,"time":155.6518072890625,"velocity":0.3937007874015748},{"duration":0.24590150000000222,"midi":66,"time":155.8977087890625,"velocity":0.3937007874015748},{"duration":0.12295075000000111,"midi":64,"time":156.12824144531248,"velocity":0.3937007874015748},{"duration":0.49180300000000443,"midi":69,"time":156.385669578125,"velocity":0.3937007874015748},{"duration":0.06147537499998634,"midi":68,"time":156.39079252604168,"velocity":0.3937007874015748},{"duration":0.24590150000000222,"midi":66,"time":156.89668363281248,"velocity":0.3937007874015748},{"duration":0.12295075000000111,"midi":64,"time":157.14258513281248,"velocity":0.3937007874015748},{"duration":0.24590150000000222,"midi":61,"time":157.8559556302083,"velocity":0.3937007874015748},{"duration":0.24590150000000222,"midi":57,"time":157.861078578125,"velocity":0.3937007874015748},{"duration":0.12295075000000111,"midi":56,"time":158.1261911328125,"velocity":0.3937007874015748},{"duration":0.12295075000000111,"midi":59,"time":158.1261911328125,"velocity":0.3937007874015748},{"duration":0.12295075000000111,"midi":57,"time":158.58213349739583,"velocity":0.3937007874015748},{"duration":0.24590150000000222,"midi":54,"time":158.59366013020832,"velocity":0.3937007874015748},{"duration":0.9836059999999804,"midi":56,"time":159.07393649739583,"velocity":0.3937007874015748},{"duration":0.7377044999999782,"midi":53,"time":159.0790594453125,"velocity":0.3937007874015748},{"duration":1.10655675000001,"midi":57,"time":160.08315723697916,"velocity":0.3937007874015748},{"duration":1.10655675000001,"midi":54,"time":160.09340313281248,"velocity":0.3937007874015748},{"duration":0.12295075000000111,"midi":62,"time":165.484025078125,"velocity":0.3937007874015748},{"duration":0.12295075000000111,"midi":66,"time":165.484025078125,"velocity":0.3937007874015748},{"duration":0.12295074999997269,"midi":62,"time":166.46250813020833,"velocity":0.3937007874015748},{"duration":0.12295074999997269,"midi":66,"time":166.46250813020833,"velocity":0.3937007874015748},{"duration":0.12295075000000111,"midi":66,"time":169.418449078125,"velocity":0.3937007874015748},{"duration":0.12295075000000111,"midi":62,"time":169.418449078125,"velocity":0.3937007874015748},{"duration":0.12295075000000111,"midi":62,"time":170.402055078125,"velocity":0.3937007874015748},{"duration":0.12295075000000111,"midi":66,"time":170.402055078125,"velocity":0.3937007874015748},{"duration":0.12295075000000111,"midi":62,"time":173.352873078125,"velocity":0.3937007874015748},{"duration":0.12295075000000111,"midi":66,"time":173.352873078125,"velocity":0.3937007874015748},{"duration":0.12295075000000111,"midi":66,"time":174.336479078125,"velocity":0.3937007874015748},{"duration":0.12295075000000111,"midi":62,"time":174.336479078125,"velocity":0.3937007874015748},{"duration":0.12295075000000111,"midi":64,"time":177.01578083854167,"velocity":0.3937007874015748},{"duration":0.3688522500000033,"midi":64,"time":177.28217413020832,"velocity":0.3937007874015748},{"duration":0.12295075000000111,"midi":64,"time":177.779100078125,"velocity":0.3937007874015748},{"duration":0.3688522500000033,"midi":64,"time":178.025001578125,"velocity":0.3937007874015748},{"duration":0.12295075000000111,"midi":64,"time":178.516804578125,"velocity":0.3937007874015748},{"duration":0.3688522500000033,"midi":64,"time":178.762706078125,"velocity":0.3937007874015748},{"duration":0.12295074999997269,"midi":64,"time":179.2596320260417,"velocity":0.3937007874015748},{"duration":0.24590150000000222,"midi":64,"time":179.50041057812498,"velocity":0.3937007874015748},{"duration":0.12295075000000111,"midi":64,"time":179.976844734375,"velocity":0.3937007874015748},{"duration":0.12295075000000111,"midi":64,"time":180.21762328645832,"velocity":0.3937007874015748},{"duration":0.12295075000000111,"midi":64,"time":180.499385421875,"velocity":0.3937007874015748},{"duration":0.12295075000000111,"midi":66,"time":181.221721078125,"velocity":0.3937007874015748},{"duration":0.12295075000000111,"midi":62,"time":181.221721078125,"velocity":0.3937007874015748},{"duration":0.12295074999997269,"midi":62,"time":182.20020413020833,"velocity":0.3937007874015748},{"duration":0.12295074999997269,"midi":66,"time":182.20020413020833,"velocity":0.3937007874015748},{"duration":0.12295075000000111,"midi":66,"time":185.156145078125,"velocity":0.3937007874015748},{"duration":0.12295075000000111,"midi":62,"time":185.156145078125,"velocity":0.3937007874015748},{"duration":0.12295075000000111,"midi":62,"time":186.139751078125,"velocity":0.3937007874015748},{"duration":0.12295075000000111,"midi":66,"time":186.139751078125,"velocity":0.3937007874015748},{"duration":0.12295075000000111,"midi":62,"time":189.090569078125,"velocity":0.3937007874015748},{"duration":0.12295075000000111,"midi":66,"time":189.090569078125,"velocity":0.3937007874015748},{"duration":0.12295075000000111,"midi":66,"time":190.074175078125,"velocity":0.3937007874015748},{"duration":0.12295075000000111,"midi":62,"time":190.074175078125,"velocity":0.3937007874015748},{"duration":0.12295075000000111,"midi":69,"time":193.03011602604167,"velocity":0.3937007874015748},{"duration":0.12295075000000111,"midi":64,"time":193.03011602604167,"velocity":0.3937007874015748},{"duration":0.24590150000000222,"midi":66,"time":193.27601752604167,"velocity":0.3937007874015748},{"duration":0.24590150000000222,"midi":62,"time":193.27601752604167,"velocity":0.3937007874015748},{"duration":0.12295075000000111,"midi":69,"time":193.52191902604167,"velocity":0.3937007874015748},{"duration":0.12295075000000111,"midi":64,"time":193.52191902604167,"velocity":0.3937007874015748},{"duration":0.12295075000000111,"midi":64,"time":194.008599078125,"velocity":0.3937007874015748},{"duration":0.12295075000000111,"midi":69,"time":194.008599078125,"velocity":0.3937007874015748},{"duration":0.24590150000000222,"midi":66,"time":194.254500578125,"velocity":0.3937007874015748},{"duration":0.24590150000000222,"midi":62,"time":194.25962352604168,"velocity":0.3937007874015748},{"duration":0.12295075000000111,"midi":69,"time":194.50552502604168,"velocity":0.3937007874015748},{"duration":0.12295075000000111,"midi":64,"time":194.50552502604168,"velocity":0.3937007874015748},{"duration":0.12295074999997269,"midi":69,"time":194.99732802604169,"velocity":0.3937007874015748},{"duration":0.12295074999997269,"midi":64,"time":194.99732802604169,"velocity":0.3937007874015748},{"duration":0.24590150000000222,"midi":66,"time":195.24322952604166,"velocity":0.3937007874015748},{"duration":0.24590150000000222,"midi":62,"time":195.24322952604166,"velocity":0.3937007874015748},{"duration":0.12295075000000111,"midi":64,"time":195.484008078125,"velocity":0.3937007874015748},{"duration":0.12295075000000111,"midi":69,"time":195.484008078125,"velocity":0.3937007874015748},{"duration":0.12295075000000111,"midi":64,"time":195.729909578125,"velocity":0.3937007874015748},{"duration":0.12295075000000111,"midi":69,"time":195.73503252604166,"velocity":0.3937007874015748},{"duration":0.12295075000000111,"midi":64,"time":195.98093402604167,"velocity":0.3937007874015748},{"duration":0.12295075000000111,"midi":69,"time":195.98093402604167,"velocity":0.3937007874015748},{"duration":0.12295075000000111,"midi":69,"time":196.22683552604167,"velocity":0.3937007874015748},{"duration":0.12295075000000111,"midi":64,"time":196.22683552604167,"velocity":0.3937007874015748},{"duration":0.12295075000000111,"midi":62,"time":196.959417078125,"velocity":0.3937007874015748},{"duration":0.12295075000000111,"midi":66,"time":196.959417078125,"velocity":0.3937007874015748},{"duration":0.12295074999997269,"midi":62,"time":197.93790013020833,"velocity":0.3937007874015748},{"duration":0.12295074999997269,"midi":66,"time":197.93790013020833,"velocity":0.3937007874015748},{"duration":0.12295075000000111,"midi":66,"time":200.893841078125,"velocity":0.3937007874015748},{"duration":0.12295075000000111,"midi":62,"time":200.893841078125,"velocity":0.3937007874015748},{"duration":0.12295075000000111,"midi":62,"time":201.877447078125,"velocity":0.3937007874015748},{"duration":0.12295075000000111,"midi":66,"time":201.877447078125,"velocity":0.3937007874015748},{"duration":0.12295075000000111,"midi":62,"time":204.82826507812499,"velocity":0.3937007874015748},{"duration":0.12295075000000111,"midi":66,"time":204.82826507812499,"velocity":0.3937007874015748},{"duration":0.12295075000000111,"midi":62,"time":205.811871078125,"velocity":0.3937007874015748},{"duration":0.12295075000000111,"midi":66,"time":205.811871078125,"velocity":0.3937007874015748},{"duration":0.12295075000000111,"midi":64,"time":208.49117283854167,"velocity":0.3937007874015748},{"duration":0.3688522500000033,"midi":64,"time":208.75756613020832,"velocity":0.3937007874015748},{"duration":0.12295075000000111,"midi":64,"time":209.254492078125,"velocity":0.3937007874015748},{"duration":0.3688522500000033,"midi":64,"time":209.500393578125,"velocity":0.3937007874015748},{"duration":0.12295075000000111,"midi":64,"time":209.992196578125,"velocity":0.3937007874015748},{"duration":0.3688522500000033,"midi":64,"time":210.238098078125,"velocity":0.3937007874015748},{"duration":0.12295074999997269,"midi":64,"time":210.73502402604169,"velocity":0.3937007874015748},{"duration":0.24590150000000222,"midi":64,"time":210.97580257812498,"velocity":0.3937007874015748},{"duration":0.12295075000000111,"midi":64,"time":211.452236734375,"velocity":0.3937007874015748},{"duration":0.12295075000000111,"midi":64,"time":211.69301528645832,"velocity":0.3937007874015748},{"duration":0.12295075000000111,"midi":64,"time":211.974777421875,"velocity":0.3937007874015748},{"duration":0.12295075000000111,"midi":66,"time":212.697113078125,"velocity":0.3937007874015748},{"duration":0.12295075000000111,"midi":62,"time":212.697113078125,"velocity":0.3937007874015748},{"duration":0.12295074999997269,"midi":62,"time":213.67559613020833,"velocity":0.3937007874015748},{"duration":0.12295074999997269,"midi":66,"time":213.67559613020833,"velocity":0.3937007874015748},{"duration":0.12295075000000111,"midi":66,"time":216.631537078125,"velocity":0.3937007874015748},{"duration":0.12295075000000111,"midi":62,"time":216.631537078125,"velocity":0.3937007874015748},{"duration":0.12295075000000111,"midi":62,"time":217.615143078125,"velocity":0.3937007874015748},{"duration":0.12295075000000111,"midi":66,"time":217.615143078125,"velocity":0.3937007874015748},{"duration":0.12295075000000111,"midi":62,"time":220.56596107812499,"velocity":0.3937007874015748},{"duration":0.12295075000000111,"midi":66,"time":220.56596107812499,"velocity":0.3937007874015748},{"duration":0.12295075000000111,"midi":62,"time":221.549567078125,"velocity":0.3937007874015748},{"duration":0.12295075000000111,"midi":66,"time":221.549567078125,"velocity":0.3937007874015748},{"duration":0.12295075000000111,"midi":64,"time":224.22886883854167,"velocity":0.3937007874015748},{"duration":0.3688522500000033,"midi":64,"time":224.49526213020832,"velocity":0.3937007874015748},{"duration":0.12295075000000111,"midi":64,"time":224.992188078125,"velocity":0.3937007874015748},{"duration":0.3688522500000033,"midi":64,"time":225.238089578125,"velocity":0.3937007874015748},{"duration":0.12295075000000111,"midi":64,"time":225.729892578125,"velocity":0.3937007874015748},{"duration":0.3688522500000033,"midi":64,"time":225.975794078125,"velocity":0.3937007874015748},{"duration":0.12295074999997269,"midi":64,"time":226.47272002604169,"velocity":0.3937007874015748},{"duration":0.24590150000000222,"midi":64,"time":226.71349857812498,"velocity":0.3937007874015748},{"duration":0.12295075000000111,"midi":64,"time":227.189932734375,"velocity":0.3937007874015748},{"duration":0.12295075000000111,"midi":64,"time":227.43071128645832,"velocity":0.3937007874015748},{"duration":0.12295075000000111,"midi":64,"time":227.712473421875,"velocity":0.3937007874015748},{"duration":0.12295075000000111,"midi":72,"time":239.50037657812499,"velocity":0.3937007874015748},{"duration":0.12295075000000111,"midi":72,"time":239.623327328125,"velocity":0.3937007874015748},{"duration":0.12295075000000111,"midi":71,"time":239.746278078125,"velocity":0.3937007874015748},{"duration":0.12295075000000111,"midi":69,"time":239.869228828125,"velocity":0.3937007874015748},{"duration":0.12295075000000111,"midi":71,"time":239.992179578125,"velocity":0.3937007874015748},{"duration":3.3196702500000015,"midi":69,"time":240.115130328125,"velocity":0.3937007874015748},{"duration":2.950817999999998,"midi":66,"time":243.69094797395832,"velocity":0.3937007874015748},{"duration":2.950817999999998,"midi":62,"time":243.69094797395832,"velocity":0.3937007874015748},{"duration":0.12295075000000111,"midi":62,"time":246.892790421875,"velocity":0.3937007874015748},{"duration":0.12295075000000111,"midi":66,"time":246.892790421875,"velocity":0.3937007874015748}]},{"instrument":{"family":"percussive","number":114,"name":"steel drums"},"notes":[{"duration":0.12295075000000111,"midi":84,"time":16.219253104166665,"velocity":0.3937007874015748},{"duration":0.12295075000000111,"midi":84,"time":16.347326802083334,"velocity":0.3937007874015748},{"duration":0.12295074999999756,"midi":83,"time":16.470277552083335,"velocity":0.3937007874015748},{"duration":0.12295075000000111,"midi":81,"time":16.593228302083332,"velocity":0.3937007874015748},{"duration":0.12295075000000111,"midi":83,"time":16.716179052083334,"velocity":0.3937007874015748},{"duration":2.459015000000001,"midi":81,"time":16.84425275,"velocity":0.3937007874015748},{"duration":2.950817999999998,"midi":59,"time":19.4262185,"velocity":0.3937007874015748},{"duration":2.950817999999998,"midi":81,"time":19.431341447916665,"velocity":0.3937007874015748},{"duration":0.24590149999999866,"midi":81,"time":22.628060947916666,"velocity":0.3937007874015748},{"duration":0.12295075000000111,"midi":59,"time":22.633183895833334,"velocity":0.3937007874015748},{"duration":2.950817999999998,"midi":81,"time":35.17416039583333,"velocity":0.3937007874015748},{"duration":2.950817999999998,"midi":64,"time":35.17416039583333,"velocity":0.3937007874015748},{"duration":2.950817999999998,"midi":69,"time":35.17416039583333,"velocity":0.3937007874015748},{"duration":0.12295075000000111,"midi":81,"time":38.35166884114583,"velocity":0.3937007874015748},{"duration":0.24590150000000222,"midi":69,"time":38.35166884114583,"velocity":0.3937007874015748},{"duration":0.24590150000000222,"midi":62,"time":38.361914736979166,"velocity":0.3937007874015748},{"duration":0.12295075000000111,"midi":81,"time":55.31887234114583,"velocity":0.3937007874015748},{"duration":0.12295075000000111,"midi":69,"time":55.31887234114583,"velocity":0.3937007874015748},{"duration":0.12295075000000111,"midi":80,"time":56.30247834114583,"velocity":0.3937007874015748},{"duration":0.12295075000000111,"midi":68,"time":56.30247834114583,"velocity":0.3937007874015748},{"duration":0.4918029999999973,"midi":69,"time":57.03505989322917,"velocity":0.3937007874015748},{"duration":0.2459014999999951,"midi":66,"time":57.53198584114583,"velocity":0.3937007874015748},{"duration":0.12295075000000111,"midi":64,"time":57.77788734114583,"velocity":0.3937007874015748},{"duration":0.49180300000000443,"midi":69,"time":58.0289117890625,"velocity":0.3937007874015748},{"duration":0.24590150000000222,"midi":66,"time":58.50022299739583,"velocity":0.3937007874015748},{"duration":0.12295075000000111,"midi":64,"time":58.7666162890625,"velocity":0.3937007874015748},{"duration":0.12295075000000111,"midi":81,"time":59.26354223697917,"velocity":0.3937007874015748},{"duration":0.12295075000000111,"midi":69,"time":59.26866518489583,"velocity":0.3937007874015748},{"duration":0.12295075000000111,"midi":80,"time":60.2266564453125,"velocity":0.3937007874015748},{"duration":0.24590150000000222,"midi":68,"time":60.2266564453125,"velocity":0.3937007874015748},{"duration":0.4918029999999973,"midi":69,"time":60.97076463020833,"velocity":0.3937007874015748},{"duration":0.24590150000000222,"midi":66,"time":61.44719878645833,"velocity":0.3937007874015748},{"duration":0.12295075000000111,"midi":64,"time":61.713592078125,"velocity":0.3937007874015748},{"duration":0.49180300000000443,"midi":69,"time":61.96973947395833,"velocity":0.3937007874015748},{"duration":0.24590150000000222,"midi":66,"time":62.451296578124996,"velocity":0.3937007874015748},{"duration":0.12295075000000111,"midi":64,"time":62.7164091328125,"velocity":0.3937007874015748},{"duration":0.122950749999994,"midi":81,"time":63.1928432890625,"velocity":0.3937007874015748},{"duration":0.2459014999999951,"midi":69,"time":63.1928432890625,"velocity":0.3937007874015748},{"duration":0.245901499999988,"midi":80,"time":64.16620339322917,"velocity":0.3937007874015748},{"duration":0.245901499999988,"midi":68,"time":64.17132634114584,"velocity":0.3937007874015748},{"duration":0.49180300000000443,"midi":69,"time":64.90390789322916,"velocity":0.3937007874015748},{"duration":0.24590150000000222,"midi":66,"time":65.39571089322916,"velocity":0.3937007874015748},{"duration":0.12295075000000111,"midi":64,"time":65.65698123697916,"velocity":0.3937007874015748},{"duration":0.49180300000000443,"midi":69,"time":65.89263684114583,"velocity":0.3937007874015748},{"duration":0.24590150000000222,"midi":66,"time":66.36394804947916,"velocity":0.3937007874015748},{"duration":0.12295075000000111,"midi":64,"time":66.6354642890625,"velocity":0.3937007874015748},{"duration":0.12295075000000111,"midi":81,"time":67.12214434114584,"velocity":0.3937007874015748},{"duration":0.12295075000000111,"midi":69,"time":67.12214434114584,"velocity":0.3937007874015748},{"duration":0.245901499999988,"midi":78,"time":67.36804584114584,"velocity":0.3937007874015748},{"duration":0.245901499999988,"midi":66,"time":67.3731687890625,"velocity":0.3937007874015748},{"duration":0.12295075000000111,"midi":69,"time":67.61394734114583,"velocity":0.3937007874015748},{"duration":0.12295075000000111,"midi":81,"time":67.61394734114583,"velocity":0.3937007874015748},{"duration":0.12295075000000111,"midi":69,"time":68.10575034114584,"velocity":0.3937007874015748},{"duration":0.12295075000000111,"midi":81,"time":68.10575034114584,"velocity":0.3937007874015748},{"duration":0.24590150000000222,"midi":66,"time":68.35165184114584,"velocity":0.3937007874015748},{"duration":0.24590150000000222,"midi":78,"time":68.35165184114584,"velocity":0.3937007874015748},{"duration":0.12295075000000111,"midi":81,"time":68.6026762890625,"velocity":0.3937007874015748},{"duration":0.12295075000000111,"midi":69,"time":68.60779923697916,"velocity":0.3937007874015748},{"duration":0.12295075000000111,"midi":81,"time":69.09960223697917,"velocity":0.3937007874015748},{"duration":0.12295075000000111,"midi":69,"time":69.1098481328125,"velocity":0.3937007874015748},{"duration":0.24590150000000222,"midi":78,"time":69.336538578125,"velocity":0.3937007874015748},{"duration":0.24590150000000222,"midi":66,"time":69.34166152604166,"velocity":0.3937007874015748},{"duration":0.12295075000000111,"midi":69,"time":69.582440078125,"velocity":0.3937007874015748},{"duration":0.12295075000000111,"midi":81,"time":69.582440078125,"velocity":0.3937007874015748},{"duration":0.12295075000000111,"midi":81,"time":69.83346452604167,"velocity":0.3937007874015748},{"duration":0.12295075000000111,"midi":69,"time":69.84883336979166,"velocity":0.3937007874015748},{"duration":0.12295075000000111,"midi":81,"time":70.089611921875,"velocity":0.3937007874015748},{"duration":0.12295075000000111,"midi":69,"time":70.089611921875,"velocity":0.3937007874015748},{"duration":0.12295075000000111,"midi":81,"time":70.33551342187499,"velocity":0.3937007874015748},{"duration":0.12295075000000111,"midi":69,"time":70.33551342187499,"velocity":0.3937007874015748},{"duration":0.12295075000000111,"midi":61,"time":70.81707052604166,"velocity":0.3937007874015748},{"duration":0.12295075000000111,"midi":61,"time":71.05272613020834,"velocity":0.3937007874015748},{"duration":0.1229507499999869,"midi":61,"time":71.303750578125,"velocity":0.3937007874015748},{"duration":0.1229507499999869,"midi":59,"time":71.55989797395834,"velocity":0.3937007874015748},{"duration":0.12295075000000111,"midi":57,"time":72.03633213020834,"velocity":0.3937007874015748},{"duration":0.9836059999999947,"midi":59,"time":72.5217314453125,"velocity":0.3937007874015748},{"duration":0.9836059999999947,"midi":57,"time":73.48100344270834,"velocity":0.3937007874015748},{"duration":0.1229507499999869,"midi":61,"time":74.75661747395834,"velocity":0.3937007874015748},{"duration":0.12295075000000111,"midi":61,"time":74.98715013020833,"velocity":0.3937007874015748},{"duration":0.12295075000000111,"midi":61,"time":75.24329752604166,"velocity":0.3937007874015748},{"duration":0.12295075000000111,"midi":59,"time":75.47383018229166,"velocity":0.3937007874015748},{"duration":0.12295075000000111,"midi":57,"time":75.95538728645833,"velocity":0.3937007874015748},{"duration":0.9836060000000089,"midi":59,"time":76.46255913020833,"velocity":0.3937007874015748},{"duration":0.8606552500000078,"midi":57,"time":77.43079628645833,"velocity":0.3937007874015748},{"duration":0.12295075000000111,"midi":61,"time":78.680795578125,"velocity":0.3937007874015748},{"duration":0.12295075000000111,"midi":61,"time":78.90620528645833,"velocity":0.3937007874015748},{"duration":0.12295075000000111,"midi":61,"time":79.16235268229165,"velocity":0.3937007874015748},{"duration":0.12295075000000111,"midi":59,"time":79.40825418229166,"velocity":0.3937007874015748},{"duration":0.12295075000000111,"midi":57,"time":79.91158381510417,"velocity":0.3937007874015748},{"duration":0.9836060000000089,"midi":59,"time":80.40338681510416,"velocity":0.3937007874015748},{"duration":4.181606236979164,"midi":57,"time":81.34472849479167,"velocity":0.3937007874015748},{"duration":0.12295075000000111,"midi":69,"time":82.74457401302084,"velocity":0.3937007874015748},{"duration":0.12295075000000111,"midi":71,"time":82.87777065885416,"velocity":0.3937007874015748},{"duration":0.12295075000000111,"midi":73,"time":82.99047551302084,"velocity":0.3937007874015748},{"duration":0.12295075000000111,"midi":76,"time":83.1185492109375,"velocity":0.3937007874015748},{"duration":0.12295075000000111,"midi":76,"time":83.2414999609375,"velocity":0.3937007874015748},{"duration":0.12295075000000111,"midi":78,"time":83.37469660677084,"velocity":0.3937007874015748},{"duration":0.12295075000000111,"midi":76,"time":83.48227851302083,"velocity":0.3937007874015748},{"duration":0.12295075000000111,"midi":81,"time":83.62059810677084,"velocity":0.3937007874015748},{"duration":0.12295075000000111,"midi":81,"time":83.72818001302083,"velocity":0.3937007874015748},{"duration":0.12295075000000111,"midi":78,"time":83.8562537109375,"velocity":0.3937007874015748},{"duration":0.12295075000000111,"midi":73,"time":83.97408151302083,"velocity":0.3937007874015748},{"duration":0.12295075000000111,"midi":76,"time":84.11240110677083,"velocity":0.3937007874015748},{"duration":0.12295075000000111,"midi":76,"time":84.21998301302084,"velocity":0.3937007874015748},{"duration":0.12295075000000111,"midi":78,"time":84.35317965885416,"velocity":0.3937007874015748},{"duration":0.12295075000000111,"midi":76,"time":84.46076156510416,"velocity":0.3937007874015748},{"duration":0.12295075000000111,"midi":81,"time":84.58371231510417,"velocity":0.3937007874015748},{"duration":0.12295075000000111,"midi":81,"time":84.71178601302084,"velocity":0.3937007874015748},{"duration":0.061475375000000554,"midi":78,"time":84.83473676302084,"velocity":0.3937007874015748},{"duration":0.12295075000000111,"midi":77,"time":84.90645803385416,"velocity":0.3937007874015748},{"duration":0.12167001302084657,"midi":76,"time":84.97946004166666,"velocity":0.3937007874015748},{"duration":0.12295075000000111,"midi":81,"time":85.08063826302083,"velocity":0.3937007874015748},{"duration":0.12295075000000111,"midi":81,"time":85.19846606510416,"velocity":0.3937007874015748},{"duration":0.12295075000000111,"midi":78,"time":85.32653976302083,"velocity":0.3937007874015748},{"duration":0.12423148697918407,"midi":76,"time":85.44436756510416,"velocity":0.3937007874015748},{"duration":0.1229507499999869,"midi":81,"time":85.56859905208334,"velocity":0.3937007874015748},{"duration":0.12295075000000111,"midi":81,"time":85.68002316927084,"velocity":0.3937007874015748},{"duration":0.12295075000000111,"midi":78,"time":85.80937760416666,"velocity":0.3937007874015748},{"duration":0.12295075000000111,"midi":76,"time":85.93232835416666,"velocity":0.3937007874015748},{"duration":0.12295075000000111,"midi":81,"time":86.065525,"velocity":0.3937007874015748},{"duration":0.12295075000000111,"midi":81,"time":86.17822985416666,"velocity":0.3937007874015748},{"duration":0.12295075000000111,"midi":78,"time":86.30118060416666,"velocity":0.3937007874015748},{"duration":0.12295075000000111,"midi":76,"time":86.41772766927083,"velocity":0.3937007874015748},{"duration":0.12295075000000111,"midi":69,"time":98.48227001302084,"velocity":0.3937007874015748},{"duration":0.12295075000000111,"midi":71,"time":98.61546665885416,"velocity":0.3937007874015748},{"duration":0.12295075000000111,"midi":73,"time":98.72817151302084,"velocity":0.3937007874015748},{"duration":0.12295075000000111,"midi":76,"time":98.8562452109375,"velocity":0.3937007874015748},{"duration":0.12295075000000111,"midi":76,"time":98.9791959609375,"velocity":0.3937007874015748},{"duration":0.12295075000000111,"midi":78,"time":99.11239260677084,"velocity":0.3937007874015748},{"duration":0.12295075000000111,"midi":76,"time":99.21997451302083,"velocity":0.3937007874015748},{"duration":0.12295075000000111,"midi":81,"time":99.35829410677084,"velocity":0.3937007874015748},{"duration":0.12295075000000111,"midi":81,"time":99.46587601302083,"velocity":0.3937007874015748},{"duration":0.12295075000000111,"midi":78,"time":99.5939497109375,"velocity":0.3937007874015748},{"duration":0.12295075000000111,"midi":73,"time":99.71177751302083,"velocity":0.3937007874015748},{"duration":0.12295075000000111,"midi":76,"time":99.85009710677083,"velocity":0.3937007874015748},{"duration":0.12295075000000111,"midi":76,"time":99.95767901302084,"velocity":0.3937007874015748},{"duration":0.12295075000000111,"midi":78,"time":100.09087565885416,"velocity":0.3937007874015748},{"duration":0.12295075000000111,"midi":76,"time":100.19845756510416,"velocity":0.3937007874015748},{"duration":0.12295075000000111,"midi":81,"time":100.32140831510416,"velocity":0.3937007874015748},{"duration":0.12295075000000111,"midi":81,"time":100.44948201302084,"velocity":0.3937007874015748},{"duration":0.061475375000000554,"midi":78,"time":100.57243276302084,"velocity":0.3937007874015748},{"duration":0.12295075000000111,"midi":77,"time":100.64415403385416,"velocity":0.3937007874015748},{"duration":0.12167001302084657,"midi":76,"time":100.71715604166666,"velocity":0.3937007874015748},{"duration":0.12295075000000111,"midi":81,"time":100.81833426302083,"velocity":0.3937007874015748},{"duration":0.12295075000000111,"midi":81,"time":100.93616206510416,"velocity":0.3937007874015748},{"duration":0.12295075000000111,"midi":78,"time":101.06423576302083,"velocity":0.3937007874015748},{"duration":0.12295075000000111,"midi":76,"time":101.18206356510416,"velocity":0.3937007874015748},{"duration":0.12295075000000111,"midi":81,"time":101.30501431510416,"velocity":0.3937007874015748},{"duration":0.12295075000000111,"midi":81,"time":101.41643843229166,"velocity":0.3937007874015748},{"duration":0.12295075000000111,"midi":78,"time":101.5457928671875,"velocity":0.3937007874015748},{"duration":0.12295075000000111,"midi":76,"time":101.6687436171875,"velocity":0.3937007874015748},{"duration":0.12295075000000111,"midi":81,"time":101.80194026302084,"velocity":0.3937007874015748},{"duration":0.1229507499999869,"midi":81,"time":101.9146451171875,"velocity":0.3937007874015748},{"duration":0.12295075000000111,"midi":78,"time":102.03759586718749,"velocity":0.3937007874015748},{"duration":0.12295075000000111,"midi":76,"time":102.15414293229166,"velocity":0.3937007874015748},{"duration":0.12295075000000111,"midi":81,"time":102.54348697395834,"velocity":0.3937007874015748},{"duration":0.12295075000000111,"midi":54,"time":106.46254213020833,"velocity":0.3937007874015748},{"duration":0.24590150000000222,"midi":61,"time":106.713566578125,"velocity":0.3937007874015748},{"duration":0.12295075000000111,"midi":59,"time":106.959468078125,"velocity":0.3937007874015748},{"duration":0.24590150000000222,"midi":61,"time":107.21049252604166,"velocity":0.3937007874015748},{"duration":0.12295075000000111,"midi":57,"time":107.466639921875,"velocity":0.3937007874015748},{"duration":0.24590150000000222,"midi":66,"time":107.71766436979166,"velocity":0.3937007874015748},{"duration":0.12295075000000111,"midi":64,"time":107.94819702604165,"velocity":0.3937007874015748},{"duration":0.12295075000000111,"midi":69,"time":108.188975578125,"velocity":0.3937007874015748},{"duration":0.061475375000000554,"midi":68,"time":108.19922147395833,"velocity":0.3937007874015748},{"duration":0.24590150000000222,"midi":69,"time":108.4540881328125,"velocity":0.3937007874015748},{"duration":0.245901499999988,"midi":66,"time":108.6999896328125,"velocity":0.3937007874015748},{"duration":0.1229507499999869,"midi":64,"time":108.92155713020834,"velocity":0.3937007874015748},{"duration":0.061475375000000554,"midi":68,"time":109.17770452604167,"velocity":0.3937007874015748},{"duration":0.4918029999999902,"midi":69,"time":109.17770452604167,"velocity":0.3937007874015748},{"duration":0.245901499999988,"midi":66,"time":109.68487636979167,"velocity":0.3937007874015748},{"duration":0.12295075000000111,"midi":64,"time":109.925654921875,"velocity":0.3937007874015748},{"duration":0.12295075000000111,"midi":69,"time":114.21868527604165,"velocity":0.3937007874015748},{"duration":0.12295075000000111,"midi":71,"time":114.35188192187499,"velocity":0.3937007874015748},{"duration":0.12295075000000111,"midi":73,"time":114.46458677604166,"velocity":0.3937007874015748},{"duration":0.12295075000000111,"midi":76,"time":114.59266047395833,"velocity":0.3937007874015748},{"duration":0.12295075000000111,"midi":76,"time":114.71561122395833,"velocity":0.3937007874015748},{"duration":0.12295075000000111,"midi":78,"time":114.84880786979166,"velocity":0.3937007874015748},{"duration":0.12295075000000111,"midi":76,"time":114.95638977604166,"velocity":0.3937007874015748},{"duration":0.12295075000000111,"midi":81,"time":115.09470936979166,"velocity":0.3937007874015748},{"duration":0.12295075000000111,"midi":81,"time":115.20229127604166,"velocity":0.3937007874015748},{"duration":0.12295075000000111,"midi":78,"time":115.33036497395834,"velocity":0.3937007874015748},{"duration":0.12295075000000111,"midi":73,"time":115.44819277604167,"velocity":0.3937007874015748},{"duration":0.12295075000000111,"midi":76,"time":115.58651236979166,"velocity":0.3937007874015748},{"duration":0.12295075000000111,"midi":76,"time":115.69409427604165,"velocity":0.3937007874015748},{"duration":0.1229507499999869,"midi":78,"time":115.827290921875,"velocity":0.3937007874015748},{"duration":0.12295075000000111,"midi":76,"time":115.934872828125,"velocity":0.3937007874015748},{"duration":0.12295075000000111,"midi":81,"time":116.057823578125,"velocity":0.3937007874015748},{"duration":0.12295075000000111,"midi":81,"time":116.18589727604166,"velocity":0.3937007874015748},{"duration":0.061475375000000554,"midi":78,"time":116.30884802604166,"velocity":0.3937007874015748},{"duration":0.12295075000000111,"midi":77,"time":116.380569296875,"velocity":0.3937007874015748},{"duration":0.12167001302083236,"midi":76,"time":116.4535713046875,"velocity":0.3937007874015748},{"duration":0.12295075000000111,"midi":81,"time":116.55474952604166,"velocity":0.3937007874015748},{"duration":0.12295075000000111,"midi":81,"time":116.672577328125,"velocity":0.3937007874015748},{"duration":0.12295075000000111,"midi":78,"time":116.80065102604166,"velocity":0.3937007874015748},{"duration":0.12295075000000111,"midi":76,"time":116.918478828125,"velocity":0.3937007874015748},{"duration":0.1229507499999869,"midi":81,"time":117.041429578125,"velocity":0.3937007874015748},{"duration":0.12295075000000111,"midi":81,"time":117.1528536953125,"velocity":0.3937007874015748},{"duration":0.12295075000000111,"midi":78,"time":117.28220813020833,"velocity":0.3937007874015748},{"duration":0.12295075000000111,"midi":76,"time":117.40515888020833,"velocity":0.3937007874015748},{"duration":0.12295075000000111,"midi":81,"time":117.53835552604166,"velocity":0.3937007874015748},{"duration":0.12295075000000111,"midi":81,"time":117.65106038020834,"velocity":0.3937007874015748},{"duration":0.12295075000000111,"midi":78,"time":117.77401113020834,"velocity":0.3937007874015748},{"duration":0.12295075000000111,"midi":76,"time":117.90720777604166,"velocity":0.3937007874015748},{"duration":0.12295075000000111,"midi":81,"time":118.270937078125,"velocity":0.3937007874015748},{"duration":0.12295075000000111,"midi":69,"time":118.270937078125,"velocity":0.3937007874015748},{"duration":0.12295075000000111,"midi":68,"time":119.254543078125,"velocity":0.3937007874015748},{"duration":0.12295075000000111,"midi":80,"time":119.254543078125,"velocity":0.3937007874015748},{"duration":0.4918029999999902,"midi":69,"time":119.98712463020834,"velocity":0.3937007874015748},{"duration":0.24590150000000222,"midi":66,"time":120.484050578125,"velocity":0.3937007874015748},{"duration":0.12295075000000111,"midi":64,"time":120.729952078125,"velocity":0.3937007874015748},{"duration":0.49180300000000443,"midi":69,"time":120.98097652604166,"velocity":0.3937007874015748},{"duration":0.24590150000000222,"midi":66,"time":121.45228773437499,"velocity":0.3937007874015748},{"duration":0.12295075000000111,"midi":64,"time":121.71868102604166,"velocity":0.3937007874015748},{"duration":0.12295075000000111,"midi":81,"time":122.21560697395833,"velocity":0.3937007874015748},{"duration":0.12295075000000111,"midi":69,"time":122.22072992187499,"velocity":0.3937007874015748},{"duration":0.24590150000000222,"midi":68,"time":123.17872118229165,"velocity":0.3937007874015748},{"duration":0.12295075000000111,"midi":80,"time":123.17872118229165,"velocity":0.3937007874015748},{"duration":0.4918029999999902,"midi":69,"time":123.9228293671875,"velocity":0.3937007874015748},{"duration":0.24590150000000222,"midi":66,"time":124.3992635234375,"velocity":0.3937007874015748},{"duration":0.12295075000000111,"midi":64,"time":124.66565681510416,"velocity":0.3937007874015748},{"duration":0.49180300000000443,"midi":69,"time":124.9218042109375,"velocity":0.3937007874015748},{"duration":0.24590150000000222,"midi":66,"time":125.40336131510416,"velocity":0.3937007874015748},{"duration":0.12295075000000111,"midi":64,"time":125.66847386979165,"velocity":0.3937007874015748},{"duration":0.24590150000000222,"midi":69,"time":126.14490802604168,"velocity":0.3937007874015748},{"duration":0.12295075000000111,"midi":81,"time":126.14490802604168,"velocity":0.3937007874015748},{"duration":0.24590150000000222,"midi":80,"time":127.11826813020832,"velocity":0.3937007874015748},{"duration":0.24590150000000222,"midi":68,"time":127.123391078125,"velocity":0.3937007874015748},{"duration":0.49180300000000443,"midi":69,"time":127.85597263020833,"velocity":0.3937007874015748},{"duration":0.24590150000000222,"midi":66,"time":128.34777563020833,"velocity":0.3937007874015748},{"duration":0.12295075000000111,"midi":64,"time":128.60904597395833,"velocity":0.3937007874015748},{"duration":0.491802999999976,"midi":69,"time":128.844701578125,"velocity":0.3937007874015748},{"duration":0.24590150000000222,"midi":66,"time":129.31601278645832,"velocity":0.3937007874015748},{"duration":0.12295075000000111,"midi":64,"time":129.58752902604166,"velocity":0.3937007874015748},{"duration":0.12295075000000111,"midi":81,"time":130.074209078125,"velocity":0.3937007874015748},{"duration":0.12295075000000111,"midi":69,"time":130.074209078125,"velocity":0.3937007874015748},{"duration":0.24590150000000222,"midi":78,"time":130.320110578125,"velocity":0.3937007874015748},{"duration":0.24590150000000222,"midi":66,"time":130.32523352604167,"velocity":0.3937007874015748},{"duration":0.12295075000000111,"midi":69,"time":130.566012078125,"velocity":0.3937007874015748},{"duration":0.12295075000000111,"midi":81,"time":130.566012078125,"velocity":0.3937007874015748},{"duration":0.12295075000000111,"midi":81,"time":131.057815078125,"velocity":0.3937007874015748},{"duration":0.12295075000000111,"midi":69,"time":131.057815078125,"velocity":0.3937007874015748},{"duration":0.24590150000000222,"midi":66,"time":131.303716578125,"velocity":0.3937007874015748},{"duration":0.24590150000000222,"midi":78,"time":131.303716578125,"velocity":0.3937007874015748},{"duration":0.12295075000000111,"midi":81,"time":131.55474102604168,"velocity":0.3937007874015748},{"duration":0.12295075000000111,"midi":69,"time":131.55986397395833,"velocity":0.3937007874015748},{"duration":0.12295075000000111,"midi":81,"time":132.05166697395833,"velocity":0.3937007874015748},{"duration":0.12295075000000111,"midi":69,"time":132.06191286979168,"velocity":0.3937007874015748},{"duration":0.24590150000000222,"midi":78,"time":132.28860331510418,"velocity":0.3937007874015748},{"duration":0.24590150000000222,"midi":66,"time":132.29372626302083,"velocity":0.3937007874015748},{"duration":0.12295075000000111,"midi":81,"time":132.53450481510419,"velocity":0.3937007874015748},{"duration":0.12295075000000111,"midi":69,"time":132.53450481510419,"velocity":0.3937007874015748},{"duration":0.12295075000000111,"midi":81,"time":132.78552926302083,"velocity":0.3937007874015748},{"duration":0.12295075000000111,"midi":69,"time":132.80089810677083,"velocity":0.3937007874015748},{"duration":0.12295075000000111,"midi":81,"time":133.0416766588542,"velocity":0.3937007874015748},{"duration":0.12295075000000111,"midi":69,"time":133.0416766588542,"velocity":0.3937007874015748},{"duration":0.12295075000000111,"midi":81,"time":133.28757815885416,"velocity":0.3937007874015748},{"duration":0.12295075000000111,"midi":69,"time":133.28757815885416,"velocity":0.3937007874015748},{"duration":0.12295075000000111,"midi":69,"time":134.00991381510417,"velocity":0.3937007874015748},{"duration":0.12295075000000111,"midi":81,"time":134.00991381510417,"velocity":0.3937007874015748},{"duration":0.12295075000000111,"midi":80,"time":134.99351981510418,"velocity":0.3937007874015748},{"duration":0.12295075000000111,"midi":68,"time":134.99351981510418,"velocity":0.3937007874015748},{"duration":0.491802999999976,"midi":69,"time":135.7261013671875,"velocity":0.3937007874015748},{"duration":0.24590150000000222,"midi":66,"time":136.22302731510416,"velocity":0.3937007874015748},{"duration":0.12295075000000111,"midi":64,"time":136.46892881510416,"velocity":0.3937007874015748},{"duration":0.49180300000000443,"midi":69,"time":136.7199532630208,"velocity":0.3937007874015748},{"duration":0.24590150000000222,"midi":66,"time":137.19126447135417,"velocity":0.3937007874015748},{"duration":0.12295075000000111,"midi":64,"time":137.45765776302082,"velocity":0.3937007874015748},{"duration":0.12295075000000111,"midi":81,"time":137.9545837109375,"velocity":0.3937007874015748},{"duration":0.12295075000000111,"midi":69,"time":137.95970665885417,"velocity":0.3937007874015748},{"duration":0.24590150000000222,"midi":68,"time":138.9176979192708,"velocity":0.3937007874015748},{"duration":0.12295075000000111,"midi":80,"time":138.9176979192708,"velocity":0.3937007874015748},{"duration":0.491802999999976,"midi":69,"time":139.6618061041667,"velocity":0.3937007874015748},{"duration":0.24590150000000222,"midi":66,"time":140.13824026041667,"velocity":0.3937007874015748},{"duration":0.12295075000000111,"midi":64,"time":140.4046335520833,"velocity":0.3937007874015748},{"duration":0.49180300000000443,"midi":69,"time":140.66078094791666,"velocity":0.3937007874015748},{"duration":0.24590150000000222,"midi":66,"time":141.14233805208332,"velocity":0.3937007874015748},{"duration":0.12295075000000111,"midi":64,"time":141.40745060677082,"velocity":0.3937007874015748},{"duration":0.12295075000000111,"midi":81,"time":141.88388476302083,"velocity":0.3937007874015748},{"duration":0.24590150000000222,"midi":69,"time":141.88388476302083,"velocity":0.3937007874015748},{"duration":0.24590150000000222,"midi":80,"time":142.8572448671875,"velocity":0.3937007874015748},{"duration":0.24590150000000222,"midi":68,"time":142.86236781510416,"velocity":0.3937007874015748},{"duration":0.49180300000000443,"midi":69,"time":143.5949493671875,"velocity":0.3937007874015748},{"duration":0.24590150000000222,"midi":66,"time":144.0867523671875,"velocity":0.3937007874015748},{"duration":0.12295075000000111,"midi":64,"time":144.3480227109375,"velocity":0.3937007874015748},{"duration":0.49180300000000443,"midi":69,"time":144.58367831510418,"velocity":0.3937007874015748},{"duration":0.24590150000000222,"midi":66,"time":145.05498952343748,"velocity":0.3937007874015748},{"duration":0.12295075000000111,"midi":64,"time":145.32650576302083,"velocity":0.3937007874015748},{"duration":0.12295075000000111,"midi":69,"time":145.81318581510416,"velocity":0.3937007874015748},{"duration":0.12295075000000111,"midi":81,"time":145.81318581510416,"velocity":0.3937007874015748},{"duration":0.24590150000000222,"midi":78,"time":146.05908731510416,"velocity":0.3937007874015748},{"duration":0.24590150000000222,"midi":66,"time":146.0642102630208,"velocity":0.3937007874015748},{"duration":0.12295075000000111,"midi":69,"time":146.30498881510417,"velocity":0.3937007874015748},{"duration":0.12295075000000111,"midi":81,"time":146.30498881510417,"velocity":0.3937007874015748},{"duration":0.12295075000000111,"midi":81,"time":146.79679181510417,"velocity":0.3937007874015748},{"duration":0.12295075000000111,"midi":69,"time":146.79679181510417,"velocity":0.3937007874015748},{"duration":0.24590150000000222,"midi":78,"time":147.04269331510417,"velocity":0.3937007874015748},{"duration":0.24590150000000222,"midi":66,"time":147.04269331510417,"velocity":0.3937007874015748},{"duration":0.12295075000000111,"midi":81,"time":147.29371776302082,"velocity":0.3937007874015748},{"duration":0.12295075000000111,"midi":69,"time":147.2988407109375,"velocity":0.3937007874015748},{"duration":0.12295075000000111,"midi":81,"time":147.7906437109375,"velocity":0.3937007874015748},{"duration":0.12295075000000111,"midi":69,"time":147.80088960677082,"velocity":0.3937007874015748},{"duration":0.24590150000000222,"midi":78,"time":148.02758005208332,"velocity":0.3937007874015748},{"duration":0.24590150000000222,"midi":66,"time":148.032703,"velocity":0.3937007874015748},{"duration":0.12295075000000111,"midi":81,"time":148.27348155208333,"velocity":0.3937007874015748},{"duration":0.12295075000000111,"midi":69,"time":148.27348155208333,"velocity":0.3937007874015748},{"duration":0.12295075000000111,"midi":81,"time":148.524506,"velocity":0.3937007874015748},{"duration":0.12295075000000111,"midi":69,"time":148.53987484375,"velocity":0.3937007874015748},{"duration":0.12295075000000111,"midi":81,"time":148.78065339583333,"velocity":0.3937007874015748},{"duration":0.12295075000000111,"midi":69,"time":148.78065339583333,"velocity":0.3937007874015748},{"duration":0.12295075000000111,"midi":81,"time":149.02655489583333,"velocity":0.3937007874015748},{"duration":0.12295075000000111,"midi":69,"time":149.02655489583333,"velocity":0.3937007874015748},{"duration":0.12295075000000111,"midi":81,"time":149.75913644791666,"velocity":0.3937007874015748},{"duration":0.12295075000000111,"midi":54,"time":153.67819160416667,"velocity":0.3937007874015748},{"duration":0.24590150000000222,"midi":61,"time":153.92921605208332,"velocity":0.3937007874015748},{"duration":0.12295075000000111,"midi":59,"time":154.17511755208332,"velocity":0.3937007874015748},{"duration":0.24590150000000222,"midi":61,"time":154.426142,"velocity":0.3937007874015748},{"duration":0.12295075000000111,"midi":57,"time":154.68228939583332,"velocity":0.3937007874015748},{"duration":0.24590150000000222,"midi":66,"time":154.93331384375,"velocity":0.3937007874015748},{"duration":0.12295075000000111,"midi":64,"time":155.1638465,"velocity":0.3937007874015748},{"duration":0.12295075000000111,"midi":69,"time":155.40462505208333,"velocity":0.3937007874015748},{"duration":0.06147537499998634,"midi":68,"time":155.41487094791668,"velocity":0.3937007874015748},{"duration":0.24590150000000222,"midi":69,"time":155.6697376067708,"velocity":0.3937007874015748},{"duration":0.24590150000000222,"midi":66,"time":155.9156391067708,"velocity":0.3937007874015748},{"duration":0.12295075000000111,"midi":64,"time":156.13720660416666,"velocity":0.3937007874015748},{"duration":0.061475375000014765,"midi":68,"time":156.393354,"velocity":0.3937007874015748},{"duration":0.49180300000000443,"midi":69,"time":156.393354,"velocity":0.3937007874015748},{"duration":0.24590150000000222,"midi":66,"time":156.90052584375,"velocity":0.3937007874015748},{"duration":0.12295075000000111,"midi":64,"time":157.14130439583332,"velocity":0.3937007874015748},{"duration":0.12295075000000111,"midi":69,"time":161.43433475,"velocity":0.3937007874015748},{"duration":0.12295075000000111,"midi":71,"time":161.56753139583333,"velocity":0.3937007874015748},{"duration":0.12295075000000111,"midi":73,"time":161.68023625,"velocity":0.3937007874015748},{"duration":0.12295075000000111,"midi":76,"time":161.80830994791668,"velocity":0.3937007874015748},{"duration":0.12295075000000111,"midi":76,"time":161.93126069791668,"velocity":0.3937007874015748},{"duration":0.12295075000000111,"midi":78,"time":162.06445734375,"velocity":0.3937007874015748},{"duration":0.12295075000000111,"midi":76,"time":162.17203924999998,"velocity":0.3937007874015748},{"duration":0.12295075000000111,"midi":81,"time":162.31035884375,"velocity":0.3937007874015748},{"duration":0.12295075000000111,"midi":81,"time":162.41794074999999,"velocity":0.3937007874015748},{"duration":0.12295075000000111,"midi":78,"time":162.54601444791666,"velocity":0.3937007874015748},{"duration":0.12295075000000111,"midi":73,"time":162.66384225,"velocity":0.3937007874015748},{"duration":0.12295075000000111,"midi":76,"time":162.80216184374999,"velocity":0.3937007874015748},{"duration":0.12295075000000111,"midi":76,"time":162.90974375,"velocity":0.3937007874015748},{"duration":0.12295075000000111,"midi":78,"time":163.0429403958333,"velocity":0.3937007874015748},{"duration":0.12295075000000111,"midi":76,"time":163.15052230208332,"velocity":0.3937007874015748},{"duration":0.12295075000000111,"midi":81,"time":163.27347305208332,"velocity":0.3937007874015748},{"duration":0.12295075000000111,"midi":81,"time":163.40154675,"velocity":0.3937007874015748},{"duration":0.061475375000014765,"midi":78,"time":163.5244975,"velocity":0.3937007874015748},{"duration":0.12295075000000111,"midi":77,"time":163.59621877083333,"velocity":0.3937007874015748},{"duration":0.12167001302086078,"midi":76,"time":163.6692207786458,"velocity":0.3937007874015748},{"duration":0.12295075000000111,"midi":81,"time":163.770399,"velocity":0.3937007874015748},{"duration":0.12295075000000111,"midi":81,"time":163.88822680208332,"velocity":0.3937007874015748},{"duration":0.12295075000000111,"midi":78,"time":164.0163005,"velocity":0.3937007874015748},{"duration":0.12295075000000111,"midi":76,"time":164.13412830208333,"velocity":0.3937007874015748},{"duration":0.12295075000000111,"midi":81,"time":164.25707905208333,"velocity":0.3937007874015748},{"duration":0.12295075000000111,"midi":81,"time":164.3685031692708,"velocity":0.3937007874015748},{"duration":0.12295075000000111,"midi":78,"time":164.49785760416668,"velocity":0.3937007874015748},{"duration":0.12295075000000111,"midi":76,"time":164.62080835416668,"velocity":0.3937007874015748},{"duration":0.12295075000000111,"midi":81,"time":164.754005,"velocity":0.3937007874015748},{"duration":0.12295074999997269,"midi":81,"time":164.8667098541667,"velocity":0.3937007874015748},{"duration":0.12295075000000111,"midi":78,"time":164.98966060416666,"velocity":0.3937007874015748},{"duration":0.12295075000000111,"midi":76,"time":165.12285725,"velocity":0.3937007874015748},{"duration":0.12295075000000111,"midi":81,"time":165.4865865520833,"velocity":0.3937007874015748},{"duration":0.12295075000000111,"midi":69,"time":165.4865865520833,"velocity":0.3937007874015748},{"duration":0.12295075000000111,"midi":80,"time":166.47019255208332,"velocity":0.3937007874015748},{"duration":0.12295075000000111,"midi":68,"time":166.47019255208332,"velocity":0.3937007874015748},{"duration":0.49180300000000443,"midi":69,"time":167.20277410416668,"velocity":0.3937007874015748},{"duration":0.24590150000000222,"midi":66,"time":167.69970005208333,"velocity":0.3937007874015748},{"duration":0.12295075000000111,"midi":64,"time":167.94560155208333,"velocity":0.3937007874015748},{"duration":0.491802999999976,"midi":69,"time":168.196626,"velocity":0.3937007874015748},{"duration":0.24590150000000222,"midi":66,"time":168.6679372083333,"velocity":0.3937007874015748},{"duration":0.12295075000000111,"midi":64,"time":168.9343305,"velocity":0.3937007874015748},{"duration":0.12295075000000111,"midi":81,"time":169.43125644791667,"velocity":0.3937007874015748},{"duration":0.12295075000000111,"midi":69,"time":169.4363793958333,"velocity":0.3937007874015748},{"duration":0.12295075000000111,"midi":80,"time":170.39437065625,"velocity":0.3937007874015748},{"duration":0.24590150000000222,"midi":68,"time":170.39437065625,"velocity":0.3937007874015748},{"duration":0.49180300000000443,"midi":69,"time":171.13847884114583,"velocity":0.3937007874015748},{"duration":0.2459014999999738,"midi":66,"time":171.61491299739583,"velocity":0.3937007874015748},{"duration":0.12295075000000111,"midi":64,"time":171.8813062890625,"velocity":0.3937007874015748},{"duration":0.491802999999976,"midi":69,"time":172.13745368489583,"velocity":0.3937007874015748},{"duration":0.24590150000000222,"midi":66,"time":172.6190107890625,"velocity":0.3937007874015748},{"duration":0.12295075000000111,"midi":64,"time":172.88412334375,"velocity":0.3937007874015748},{"duration":0.12295075000000111,"midi":81,"time":173.3605575,"velocity":0.3937007874015748},{"duration":0.24590150000000222,"midi":69,"time":173.3605575,"velocity":0.3937007874015748},{"duration":0.2459014999999738,"midi":80,"time":174.3339176041667,"velocity":0.3937007874015748},{"duration":0.2459014999999738,"midi":68,"time":174.33904055208333,"velocity":0.3937007874015748},{"duration":0.49180300000000443,"midi":69,"time":175.07162210416666,"velocity":0.3937007874015748},{"duration":0.24590150000000222,"midi":66,"time":175.56342510416667,"velocity":0.3937007874015748},{"duration":0.12295075000000111,"midi":64,"time":175.82469544791667,"velocity":0.3937007874015748},{"duration":0.49180300000000443,"midi":69,"time":176.06035105208332,"velocity":0.3937007874015748},{"duration":0.24590150000000222,"midi":66,"time":176.53166226041668,"velocity":0.3937007874015748},{"duration":0.12295075000000111,"midi":64,"time":176.8031785,"velocity":0.3937007874015748},{"duration":0.12295075000000111,"midi":74,"time":177.02346526041669,"velocity":0.3937007874015748},{"duration":0.12295075000000111,"midi":66,"time":177.02346526041669,"velocity":0.3937007874015748},{"duration":0.12295075000000111,"midi":81,"time":177.02346526041669,"velocity":0.3937007874015748},{"duration":0.3688522499999749,"midi":74,"time":177.27961265625,"velocity":0.3937007874015748},{"duration":0.3688522500000033,"midi":66,"time":177.28601634114582,"velocity":0.3937007874015748},{"duration":0.3688522500000033,"midi":81,"time":177.28601634114582,"velocity":0.3937007874015748},{"duration":0.12295075000000111,"midi":66,"time":177.7829422890625,"velocity":0.3937007874015748},{"duration":0.12295075000000111,"midi":81,"time":177.79318818489583,"velocity":0.3937007874015748},{"duration":0.12295075000000111,"midi":74,"time":177.79318818489583,"velocity":0.3937007874015748},{"duration":0.3688522500000033,"midi":74,"time":178.03908968489583,"velocity":0.3937007874015748},{"duration":0.3688522500000033,"midi":81,"time":178.0442126328125,"velocity":0.3937007874015748},{"duration":0.3688522500000033,"midi":66,"time":178.0442126328125,"velocity":0.3937007874015748},{"duration":0.12295074999997269,"midi":74,"time":178.52576973697919,"velocity":0.3937007874015748},{"duration":0.12295075000000111,"midi":81,"time":178.5360156328125,"velocity":0.3937007874015748},{"duration":0.12295075000000111,"midi":66,"time":178.54113858072918,"velocity":0.3937007874015748},{"duration":0.3688522499999749,"midi":74,"time":178.77679418489583,"velocity":0.3937007874015748},{"duration":0.3688522499999749,"midi":66,"time":178.7819171328125,"velocity":0.3937007874015748},{"duration":0.2459014999999738,"midi":81,"time":178.7819171328125,"velocity":0.3937007874015748},{"duration":0.12295075000000111,"midi":81,"time":179.2429824453125,"velocity":0.3937007874015748},{"duration":0.12295075000000111,"midi":74,"time":179.25450907812498,"velocity":0.3937007874015748},{"duration":0.12295075000000111,"midi":66,"time":179.25450907812498,"velocity":0.3937007874015748},{"duration":0.24590150000000222,"midi":81,"time":179.50553352604166,"velocity":0.3937007874015748},{"duration":0.24590150000000222,"midi":74,"time":179.50553352604166,"velocity":0.3937007874015748},{"duration":0.24590150000000222,"midi":66,"time":179.5106564739583,"velocity":0.3937007874015748},{"duration":0.12295075000000111,"midi":74,"time":179.98709063020831,"velocity":0.3937007874015748},{"duration":0.12295075000000111,"midi":66,"time":179.98709063020831,"velocity":0.3937007874015748},{"duration":0.12295074999997269,"midi":81,"time":179.9934943151042,"velocity":0.3937007874015748},{"duration":0.12295075000000111,"midi":81,"time":180.23299213020832,"velocity":0.3937007874015748},{"duration":0.12295075000000111,"midi":74,"time":180.23299213020832,"velocity":0.3937007874015748},{"duration":0.12295075000000111,"midi":66,"time":180.23939581510416,"velocity":0.3937007874015748},{"duration":0.12295075000000111,"midi":74,"time":180.4904202630208,"velocity":0.3937007874015748},{"duration":0.12295075000000111,"midi":81,"time":180.4904202630208,"velocity":0.3937007874015748},{"duration":0.12295074999997269,"midi":66,"time":180.50578910677083,"velocity":0.3937007874015748},{"duration":0.12295075000000111,"midi":81,"time":181.22812476302082,"velocity":0.3937007874015748},{"duration":0.12295075000000111,"midi":69,"time":181.22812476302082,"velocity":0.3937007874015748},{"duration":0.12295075000000111,"midi":68,"time":182.21173076302082,"velocity":0.3937007874015748},{"duration":0.12295075000000111,"midi":80,"time":182.21173076302082,"velocity":0.3937007874015748},{"duration":0.491802999999976,"midi":69,"time":182.94431231510418,"velocity":0.3937007874015748},{"duration":0.24590150000000222,"midi":66,"time":183.4412382630208,"velocity":0.3937007874015748},{"duration":0.12295075000000111,"midi":64,"time":183.6871397630208,"velocity":0.3937007874015748},{"duration":0.49180300000000443,"midi":69,"time":183.9381642109375,"velocity":0.3937007874015748},{"duration":0.24590150000000222,"midi":66,"time":184.40947541927082,"velocity":0.3937007874015748},{"duration":0.12295075000000111,"midi":64,"time":184.6758687109375,"velocity":0.3937007874015748},{"duration":0.12295075000000111,"midi":81,"time":185.17279465885417,"velocity":0.3937007874015748},{"duration":0.12295075000000111,"midi":69,"time":185.17791760677082,"velocity":0.3937007874015748},{"duration":0.12295074999997269,"midi":80,"time":186.1359088671875,"velocity":0.3937007874015748},{"duration":0.2459014999999738,"midi":68,"time":186.1359088671875,"velocity":0.3937007874015748},{"duration":0.491802999999976,"midi":69,"time":186.88001705208333,"velocity":0.3937007874015748},{"duration":0.24590150000000222,"midi":66,"time":187.3564512083333,"velocity":0.3937007874015748},{"duration":0.12295075000000111,"midi":64,"time":187.62284449999999,"velocity":0.3937007874015748},{"duration":0.49180300000000443,"midi":69,"time":187.8789918958333,"velocity":0.3937007874015748},{"duration":0.24590150000000222,"midi":66,"time":188.360549,"velocity":0.3937007874015748},{"duration":0.12295075000000111,"midi":64,"time":188.6256615546875,"velocity":0.3937007874015748},{"duration":0.12295075000000111,"midi":81,"time":189.1020957109375,"velocity":0.3937007874015748},{"duration":0.24590150000000222,"midi":69,"time":189.1020957109375,"velocity":0.3937007874015748},{"duration":0.24590150000000222,"midi":80,"time":190.07545581510416,"velocity":0.3937007874015748},{"duration":0.24590150000000222,"midi":68,"time":190.0805787630208,"velocity":0.3937007874015748},{"duration":0.49180300000000443,"midi":69,"time":190.81316031510417,"velocity":0.3937007874015748},{"duration":0.24590150000000222,"midi":66,"time":191.30496331510417,"velocity":0.3937007874015748},{"duration":0.12295075000000111,"midi":64,"time":191.56623365885417,"velocity":0.3937007874015748},{"duration":0.49180300000000443,"midi":69,"time":191.80188926302083,"velocity":0.3937007874015748},{"duration":0.24590150000000222,"midi":66,"time":192.27320047135416,"velocity":0.3937007874015748},{"duration":0.12295075000000111,"midi":64,"time":192.5447167109375,"velocity":0.3937007874015748},{"duration":0.12295075000000111,"midi":81,"time":193.0313967630208,"velocity":0.3937007874015748},{"duration":0.12295075000000111,"midi":69,"time":193.0313967630208,"velocity":0.3937007874015748},{"duration":0.24590150000000222,"midi":78,"time":193.2772982630208,"velocity":0.3937007874015748},{"duration":0.24590150000000222,"midi":66,"time":193.28242121093749,"velocity":0.3937007874015748},{"duration":0.12295075000000111,"midi":69,"time":193.5231997630208,"velocity":0.3937007874015748},{"duration":0.12295075000000111,"midi":81,"time":193.5231997630208,"velocity":0.3937007874015748},{"duration":0.12295075000000111,"midi":81,"time":194.01500276302082,"velocity":0.3937007874015748},{"duration":0.12295075000000111,"midi":69,"time":194.01500276302082,"velocity":0.3937007874015748},{"duration":0.24590150000000222,"midi":78,"time":194.26090426302082,"velocity":0.3937007874015748},{"duration":0.24590150000000222,"midi":66,"time":194.26090426302082,"velocity":0.3937007874015748},{"duration":0.12295075000000111,"midi":81,"time":194.5119287109375,"velocity":0.3937007874015748},{"duration":0.12295075000000111,"midi":69,"time":194.51705165885417,"velocity":0.3937007874015748},{"duration":0.12295075000000111,"midi":81,"time":195.00885465885418,"velocity":0.3937007874015748},{"duration":0.12295075000000111,"midi":69,"time":195.0191005546875,"velocity":0.3937007874015748},{"duration":0.24590150000000222,"midi":78,"time":195.245791,"velocity":0.3937007874015748},{"duration":0.24590150000000222,"midi":66,"time":195.25091394791667,"velocity":0.3937007874015748},{"duration":0.12295075000000111,"midi":69,"time":195.4916925,"velocity":0.3937007874015748},{"duration":0.12295075000000111,"midi":81,"time":195.4916925,"velocity":0.3937007874015748},{"duration":0.12295075000000111,"midi":81,"time":195.74271694791668,"velocity":0.3937007874015748},{"duration":0.12295075000000111,"midi":69,"time":195.75808579166667,"velocity":0.3937007874015748},{"duration":0.12295075000000111,"midi":69,"time":195.99886434375,"velocity":0.3937007874015748},{"duration":0.12295075000000111,"midi":81,"time":195.99886434375,"velocity":0.3937007874015748},{"duration":0.12295075000000111,"midi":81,"time":196.24476584375,"velocity":0.3937007874015748},{"duration":0.12295075000000111,"midi":69,"time":196.24476584375,"velocity":0.3937007874015748},{"duration":0.12295075000000111,"midi":81,"time":196.96710149999998,"velocity":0.3937007874015748},{"duration":0.12295075000000111,"midi":69,"time":196.96710149999998,"velocity":0.3937007874015748},{"duration":0.12295075000000111,"midi":68,"time":197.9507075,"velocity":0.3937007874015748},{"duration":0.12295075000000111,"midi":80,"time":197.9507075,"velocity":0.3937007874015748},{"duration":0.49180300000000443,"midi":69,"time":198.68328905208332,"velocity":0.3937007874015748},{"duration":0.24590150000000222,"midi":66,"time":199.180215,"velocity":0.3937007874015748},{"duration":0.12295075000000111,"midi":64,"time":199.4261165,"velocity":0.3937007874015748},{"duration":0.491802999999976,"midi":69,"time":199.67714094791668,"velocity":0.3937007874015748},{"duration":0.24590150000000222,"midi":66,"time":200.14845215625,"velocity":0.3937007874015748},{"duration":0.12295075000000111,"midi":64,"time":200.41484544791666,"velocity":0.3937007874015748},{"duration":0.12295075000000111,"midi":81,"time":200.9117713958333,"velocity":0.3937007874015748},{"duration":0.12295075000000111,"midi":69,"time":200.91689434375,"velocity":0.3937007874015748},{"duration":0.24590150000000222,"midi":68,"time":201.87488560416668,"velocity":0.3937007874015748},{"duration":0.12295075000000111,"midi":80,"time":201.87488560416668,"velocity":0.3937007874015748},{"duration":0.49180300000000443,"midi":69,"time":202.6189937890625,"velocity":0.3937007874015748},{"duration":0.2459014999999738,"midi":66,"time":203.0954279453125,"velocity":0.3937007874015748},{"duration":0.12295075000000111,"midi":64,"time":203.36182123697918,"velocity":0.3937007874015748},{"duration":0.491802999999976,"midi":69,"time":203.6179686328125,"velocity":0.3937007874015748},{"duration":0.24590150000000222,"midi":66,"time":204.09952573697916,"velocity":0.3937007874015748},{"duration":0.12295075000000111,"midi":64,"time":204.36463829166667,"velocity":0.3937007874015748},{"duration":0.12295075000000111,"midi":81,"time":204.84107244791667,"velocity":0.3937007874015748},{"duration":0.24590150000000222,"midi":69,"time":204.84107244791667,"velocity":0.3937007874015748},{"duration":0.2459014999999738,"midi":80,"time":205.81443255208333,"velocity":0.3937007874015748},{"duration":0.24590150000000222,"midi":68,"time":205.8195555,"velocity":0.3937007874015748},{"duration":0.49180300000000443,"midi":69,"time":206.5521370520833,"velocity":0.3937007874015748},{"duration":0.24590150000000222,"midi":66,"time":207.04394005208331,"velocity":0.3937007874015748},{"duration":0.12295075000000111,"midi":64,"time":207.3052103958333,"velocity":0.3937007874015748},{"duration":0.49180300000000443,"midi":69,"time":207.540866,"velocity":0.3937007874015748},{"duration":0.24590150000000222,"midi":66,"time":208.01217720833333,"velocity":0.3937007874015748},{"duration":0.12295075000000111,"midi":64,"time":208.28369344791668,"velocity":0.3937007874015748},{"duration":0.12295075000000111,"midi":81,"time":208.50398020833333,"velocity":0.3937007874015748},{"duration":0.12295075000000111,"midi":74,"time":208.50398020833333,"velocity":0.3937007874015748},{"duration":0.12295075000000111,"midi":66,"time":208.50398020833333,"velocity":0.3937007874015748},{"duration":0.3688522499999749,"midi":74,"time":208.76012760416668,"velocity":0.3937007874015748},{"duration":0.3688522500000033,"midi":66,"time":208.7665312890625,"velocity":0.3937007874015748},{"duration":0.3688522500000033,"midi":81,"time":208.7665312890625,"velocity":0.3937007874015748},{"duration":0.12295075000000111,"midi":66,"time":209.26345723697918,"velocity":0.3937007874015748},{"duration":0.12295075000000111,"midi":74,"time":209.2737031328125,"velocity":0.3937007874015748},{"duration":0.12295075000000111,"midi":81,"time":209.2737031328125,"velocity":0.3937007874015748},{"duration":0.3688522500000033,"midi":74,"time":209.5196046328125,"velocity":0.3937007874015748},{"duration":0.3688522500000033,"midi":81,"time":209.52472758072918,"velocity":0.3937007874015748},{"duration":0.3688522500000033,"midi":66,"time":209.52472758072918,"velocity":0.3937007874015748},{"duration":0.12295075000000111,"midi":74,"time":210.00628468489583,"velocity":0.3937007874015748},{"duration":0.12295075000000111,"midi":81,"time":210.01653058072918,"velocity":0.3937007874015748},{"duration":0.12295075000000111,"midi":66,"time":210.02165352864583,"velocity":0.3937007874015748},{"duration":0.3688522499999749,"midi":74,"time":210.2573091328125,"velocity":0.3937007874015748},{"duration":0.2459014999999738,"midi":81,"time":210.26243208072918,"velocity":0.3937007874015748},{"duration":0.3688522499999749,"midi":66,"time":210.26243208072918,"velocity":0.3937007874015748},{"duration":0.12295075000000111,"midi":81,"time":210.72349739322917,"velocity":0.3937007874015748},{"duration":0.12295074999997269,"midi":66,"time":210.73502402604169,"velocity":0.3937007874015748},{"duration":0.12295074999997269,"midi":74,"time":210.73502402604169,"velocity":0.3937007874015748},{"duration":0.24590150000000222,"midi":74,"time":210.9860484739583,"velocity":0.3937007874015748},{"duration":0.24590150000000222,"midi":81,"time":210.9860484739583,"velocity":0.3937007874015748},{"duration":0.2459014999999738,"midi":66,"time":210.991171421875,"velocity":0.3937007874015748},{"duration":0.12295075000000111,"midi":66,"time":211.467605578125,"velocity":0.3937007874015748},{"duration":0.12295075000000111,"midi":74,"time":211.467605578125,"velocity":0.3937007874015748},{"duration":0.12295075000000111,"midi":81,"time":211.47400926302083,"velocity":0.3937007874015748},{"duration":0.12295075000000111,"midi":81,"time":211.713507078125,"velocity":0.3937007874015748},{"duration":0.12295075000000111,"midi":74,"time":211.713507078125,"velocity":0.3937007874015748},{"duration":0.12295075000000111,"midi":66,"time":211.7199107630208,"velocity":0.3937007874015748},{"duration":0.12295075000000111,"midi":81,"time":211.97093521093748,"velocity":0.3937007874015748},{"duration":0.12295075000000111,"midi":74,"time":211.97093521093748,"velocity":0.3937007874015748},{"duration":0.12295075000000111,"midi":66,"time":211.9863040546875,"velocity":0.3937007874015748},{"duration":0.12295075000000111,"midi":81,"time":212.7086397109375,"velocity":0.3937007874015748},{"duration":0.12295075000000111,"midi":69,"time":212.7086397109375,"velocity":0.3937007874015748},{"duration":0.12295075000000111,"midi":80,"time":213.6922457109375,"velocity":0.3937007874015748},{"duration":0.12295075000000111,"midi":68,"time":213.6922457109375,"velocity":0.3937007874015748},{"duration":0.491802999999976,"midi":69,"time":214.42482726302083,"velocity":0.3937007874015748},{"duration":0.24590150000000222,"midi":66,"time":214.92175321093748,"velocity":0.3937007874015748},{"duration":0.12295075000000111,"midi":64,"time":215.16765471093748,"velocity":0.3937007874015748},{"duration":0.49180300000000443,"midi":69,"time":215.41867915885416,"velocity":0.3937007874015748},{"duration":0.24590150000000222,"midi":66,"time":215.8899903671875,"velocity":0.3937007874015748},{"duration":0.12295075000000111,"midi":64,"time":216.15638365885417,"velocity":0.3937007874015748},{"duration":0.12295075000000111,"midi":81,"time":216.65330960677082,"velocity":0.3937007874015748},{"duration":0.12295075000000111,"midi":69,"time":216.6584325546875,"velocity":0.3937007874015748},{"duration":0.12295075000000111,"midi":80,"time":217.61642381510418,"velocity":0.3937007874015748},{"duration":0.2459014999999738,"midi":68,"time":217.61642381510418,"velocity":0.3937007874015748},{"duration":0.491802999999976,"midi":69,"time":218.360532,"velocity":0.3937007874015748},{"duration":0.24590150000000222,"midi":66,"time":218.83696615624999,"velocity":0.3937007874015748},{"duration":0.12295075000000111,"midi":64,"time":219.10335944791666,"velocity":0.3937007874015748},{"duration":0.49180300000000443,"midi":69,"time":219.35950684374998,"velocity":0.3937007874015748},{"duration":0.24590150000000222,"midi":66,"time":219.84106394791667,"velocity":0.3937007874015748},{"duration":0.12295075000000111,"midi":64,"time":220.10617650260417,"velocity":0.3937007874015748},{"duration":0.12295075000000111,"midi":81,"time":220.58261065885418,"velocity":0.3937007874015748},{"duration":0.24590150000000222,"midi":69,"time":220.58261065885418,"velocity":0.3937007874015748},{"duration":0.24590150000000222,"midi":80,"time":221.5559707630208,"velocity":0.3937007874015748},{"duration":0.24590150000000222,"midi":68,"time":221.56109371093748,"velocity":0.3937007874015748},{"duration":0.49180300000000443,"midi":69,"time":222.29367526302082,"velocity":0.3937007874015748},{"duration":0.24590150000000222,"midi":66,"time":222.78547826302082,"velocity":0.3937007874015748},{"duration":0.12295075000000111,"midi":64,"time":223.04674860677082,"velocity":0.3937007874015748},{"duration":0.49180300000000443,"midi":69,"time":223.2824042109375,"velocity":0.3937007874015748},{"duration":0.2459014999999738,"midi":66,"time":223.75371541927083,"velocity":0.3937007874015748},{"duration":0.12295075000000111,"midi":64,"time":224.02523165885418,"velocity":0.3937007874015748},{"duration":0.12295075000000111,"midi":74,"time":224.2455184192708,"velocity":0.3937007874015748},{"duration":0.12295075000000111,"midi":81,"time":224.2455184192708,"velocity":0.3937007874015748},{"duration":0.12295075000000111,"midi":66,"time":224.2455184192708,"velocity":0.3937007874015748},{"duration":0.3688522500000033,"midi":74,"time":224.50166581510416,"velocity":0.3937007874015748},{"duration":0.3688522500000033,"midi":81,"time":224.5080695,"velocity":0.3937007874015748},{"duration":0.3688522500000033,"midi":66,"time":224.5080695,"velocity":0.3937007874015748},{"duration":0.12295075000000111,"midi":66,"time":225.00499544791668,"velocity":0.3937007874015748},{"duration":0.12295075000000111,"midi":74,"time":225.01524134375,"velocity":0.3937007874015748},{"duration":0.12295075000000111,"midi":81,"time":225.01524134375,"velocity":0.3937007874015748},{"duration":0.3688522499999749,"midi":74,"time":225.26114284375,"velocity":0.3937007874015748},{"duration":0.3688522499999749,"midi":81,"time":225.26626579166668,"velocity":0.3937007874015748},{"duration":0.3688522499999749,"midi":66,"time":225.26626579166668,"velocity":0.3937007874015748},{"duration":0.12295075000000111,"midi":74,"time":225.7478228958333,"velocity":0.3937007874015748},{"duration":0.12295075000000111,"midi":81,"time":225.75806879166666,"velocity":0.3937007874015748},{"duration":0.12295075000000111,"midi":66,"time":225.7631917395833,"velocity":0.3937007874015748},{"duration":0.3688522500000033,"midi":74,"time":225.99884734375,"velocity":0.3937007874015748},{"duration":0.24590150000000222,"midi":81,"time":226.00397029166666,"velocity":0.3937007874015748},{"duration":0.3688522500000033,"midi":66,"time":226.00397029166666,"velocity":0.3937007874015748},{"duration":0.12295075000000111,"midi":81,"time":226.46503560416667,"velocity":0.3937007874015748},{"duration":0.12295075000000111,"midi":66,"time":226.47656223697916,"velocity":0.3937007874015748},{"duration":0.12295075000000111,"midi":74,"time":226.47656223697916,"velocity":0.3937007874015748},{"duration":0.24590150000000222,"midi":81,"time":226.7275866848958,"velocity":0.3937007874015748},{"duration":0.24590150000000222,"midi":74,"time":226.7275866848958,"velocity":0.3937007874015748},{"duration":0.24590150000000222,"midi":66,"time":226.7327096328125,"velocity":0.3937007874015748},{"duration":0.12295075000000111,"midi":66,"time":227.2091437890625,"velocity":0.3937007874015748},{"duration":0.12295075000000111,"midi":74,"time":227.2091437890625,"velocity":0.3937007874015748},{"duration":0.12295075000000111,"midi":81,"time":227.2155474739583,"velocity":0.3937007874015748},{"duration":0.12295075000000111,"midi":81,"time":227.4550452890625,"velocity":0.3937007874015748},{"duration":0.12295075000000111,"midi":74,"time":227.4550452890625,"velocity":0.3937007874015748},{"duration":0.12295075000000111,"midi":66,"time":227.4614489739583,"velocity":0.3937007874015748},{"duration":0.12295075000000111,"midi":81,"time":227.712473421875,"velocity":0.3937007874015748},{"duration":0.12295075000000111,"midi":74,"time":227.712473421875,"velocity":0.3937007874015748},{"duration":0.12295075000000111,"midi":66,"time":227.727842265625,"velocity":0.3937007874015748},{"duration":0.12295075000000111,"midi":84,"time":240.499351421875,"velocity":0.3937007874015748},{"duration":0.12295075000000111,"midi":84,"time":240.62742511979167,"velocity":0.3937007874015748},{"duration":0.12295075000000111,"midi":83,"time":240.75037586979167,"velocity":0.3937007874015748},{"duration":0.12295075000000111,"midi":81,"time":240.87332661979167,"velocity":0.3937007874015748},{"duration":0.12295075000000111,"midi":83,"time":240.99627736979167,"velocity":0.3937007874015748},{"duration":2.4590149999999937,"midi":81,"time":241.12435106770832,"velocity":0.3937007874015748},{"duration":2.950817999999998,"midi":59,"time":243.7063168177083,"velocity":0.3937007874015748},{"duration":2.950817999999998,"midi":81,"time":243.711439765625,"velocity":0.3937007874015748},{"duration":0.24590150000000222,"midi":81,"time":246.908159265625,"velocity":0.3937007874015748},{"duration":0.12295075000000111,"midi":59,"time":246.91328221354166,"velocity":0.3937007874015748}]},{"instrument":{"family":"piano","number":3,"name":"honky-tonk piano"},"notes":[{"duration":3.0737687499999984,"midi":85,"time":7.387290895833334,"velocity":0.3937007874015748},{"duration":2.7049165000000004,"midi":85,"time":7.879093895833333,"velocity":0.3937007874015748},{"duration":3.3196702499999997,"midi":85,"time":11.306346052083333,"velocity":0.3937007874015748},{"duration":2.8278672500000006,"midi":85,"time":11.803272,"velocity":0.3937007874015748},{"duration":0.12295075000000111,"midi":66,"time":52.36677360416667,"velocity":0.3937007874015748},{"duration":0.12295075000000111,"midi":64,"time":52.49997025,"velocity":0.3937007874015748},{"duration":0.12295075000000111,"midi":66,"time":52.61267510416667,"velocity":0.3937007874015748},{"duration":0.12295075000000111,"midi":64,"time":52.74074880208333,"velocity":0.3937007874015748},{"duration":0.12295075000000111,"midi":61,"time":52.8688225,"velocity":0.3937007874015748},{"duration":0.12295075000000111,"midi":59,"time":53.00201914583333,"velocity":0.3937007874015748},{"duration":0.12295075000000111,"midi":61,"time":53.12496989583333,"velocity":0.3937007874015748},{"duration":0.12295075000000111,"midi":59,"time":53.21718295833333,"velocity":0.3937007874015748},{"duration":0.12295075000000111,"midi":57,"time":53.35550255208333,"velocity":0.3937007874015748},{"duration":0.12295075000000111,"midi":54,"time":53.48869919791667,"velocity":0.3937007874015748},{"duration":0.9836060000000018,"midi":57,"time":53.61677289583333,"velocity":0.3937007874015748},{"duration":0.24590150000000222,"midi":71,"time":135.2675975286458,"velocity":0.3937007874015748},{"duration":0.7377045000000066,"midi":69,"time":135.50837608072916,"velocity":0.3937007874015748},{"duration":0.24590150000000222,"midi":71,"time":136.23071173697917,"velocity":0.3937007874015748},{"duration":1.229507500000011,"midi":66,"time":136.47661323697918,"velocity":0.3937007874015748},{"duration":0.24590150000000222,"midi":71,"time":139.16616089322918,"velocity":0.3937007874015748},{"duration":0.7377045000000066,"midi":69,"time":139.4223082890625,"velocity":0.3937007874015748},{"duration":0.24590150000000222,"midi":71,"time":140.16513573697918,"velocity":0.3937007874015748},{"duration":1.1065567499999815,"midi":66,"time":140.41616018489583,"velocity":0.3937007874015748},{"duration":0.24590150000000222,"midi":71,"time":143.10186563020832,"velocity":0.3937007874015748},{"duration":0.7377045000000066,"midi":69,"time":143.352890078125,"velocity":0.3937007874015748},{"duration":0.24590150000000222,"midi":71,"time":144.090594578125,"velocity":0.3937007874015748},{"duration":0.7377044999999782,"midi":66,"time":144.336496078125,"velocity":0.3937007874015748},{"duration":0.24590150000000222,"midi":71,"time":166.73914731770833,"velocity":0.3937007874015748},{"duration":0.7389852369791754,"midi":69,"time":166.9786451328125,"velocity":0.3937007874015748},{"duration":0.24590150000000222,"midi":71,"time":167.7073844739583,"velocity":0.3937007874015748},{"duration":1.10655675000001,"midi":66,"time":167.958408921875,"velocity":0.3937007874015748},{"duration":0.24590150000000222,"midi":71,"time":170.647956578125,"velocity":0.3937007874015748},{"duration":0.7377045000000066,"midi":69,"time":170.893858078125,"velocity":0.3937007874015748},{"duration":0.24590150000000222,"midi":71,"time":171.62643963020832,"velocity":0.3937007874015748},{"duration":1.1065567499999815,"midi":66,"time":171.877464078125,"velocity":0.3937007874015748},{"duration":0.24590150000000222,"midi":71,"time":174.582380578125,"velocity":0.3937007874015748},{"duration":0.7377045000000066,"midi":69,"time":174.82315913020832,"velocity":0.3937007874015748},{"duration":0.24590150000000222,"midi":71,"time":175.5544599453125,"velocity":0.3937007874015748},{"duration":0.9836059999999804,"midi":66,"time":175.811888078125,"velocity":0.3937007874015748},{"duration":0.2459014999999738,"midi":71,"time":182.46147447395833,"velocity":0.3937007874015748},{"duration":0.7377045000000066,"midi":69,"time":182.7073759739583,"velocity":0.3937007874015748},{"duration":0.24590150000000222,"midi":71,"time":183.434834578125,"velocity":0.3937007874015748},{"duration":1.10655675000001,"midi":66,"time":183.680736078125,"velocity":0.3937007874015748},{"duration":0.24590150000000222,"midi":71,"time":186.385652578125,"velocity":0.3937007874015748},{"duration":0.7377045000000066,"midi":69,"time":186.631554078125,"velocity":0.3937007874015748},{"duration":0.24590150000000222,"midi":71,"time":187.353889734375,"velocity":0.3937007874015748},{"duration":1.1065567499999815,"midi":66,"time":187.60491418229168,"velocity":0.3937007874015748},{"duration":0.24590150000000222,"midi":71,"time":190.3162343671875,"velocity":0.3937007874015748},{"duration":0.7377045000000066,"midi":69,"time":190.56725881510417,"velocity":0.3937007874015748},{"duration":0.24590150000000222,"midi":71,"time":191.2998403671875,"velocity":0.3937007874015748},{"duration":1.1065567499999815,"midi":66,"time":191.5457418671875,"velocity":0.3937007874015748},{"duration":3.0737687499999993,"midi":85,"time":231.65202036979167,"velocity":0.3937007874015748},{"duration":2.704916499999996,"midi":85,"time":232.14382336979168,"velocity":0.3937007874015748},{"duration":3.3196702500000015,"midi":85,"time":235.57107552604168,"velocity":0.3937007874015748},{"duration":2.827867249999997,"midi":85,"time":236.06800147395833,"velocity":0.3937007874015748}]},{"instrument":{"family":"bass","number":36,"name":"slap bass 1"},"notes":[{"duration":0.12295075000000022,"midi":61,"time":3.934424,"velocity":0.3937007874015748},{"duration":0.12295074999999933,"midi":61,"time":4.1803255,"velocity":0.3937007874015748},{"duration":0.12295075000000022,"midi":59,"time":4.6721284999999995,"velocity":0.3937007874015748},{"duration":0.12295075000000022,"midi":57,"time":5.158808552083333,"velocity":0.3937007874015748},{"duration":0.12295075000000022,"midi":59,"time":5.891390104166666,"velocity":0.3937007874015748},{"duration":0.12295074999999933,"midi":59,"time":6.1475375,"velocity":0.3937007874015748},{"duration":0.491803,"midi":56,"time":6.618848708333333,"velocity":0.3937007874015748},{"duration":0.12295075000000022,"midi":57,"time":7.122178341145833,"velocity":0.3937007874015748},{"duration":0.12295075000000022,"midi":61,"time":7.8650057890625,"velocity":0.3937007874015748},{"duration":0.12295074999999933,"midi":61,"time":8.121153184895833,"velocity":0.3937007874015748},{"duration":0.12295075000000111,"midi":59,"time":8.597587341145832,"velocity":0.3937007874015748},{"duration":0.24590149999999866,"midi":57,"time":9.074021497395833,"velocity":0.3937007874015748},{"duration":0.24590150000000044,"midi":59,"time":9.714389986979167,"velocity":0.3937007874015748},{"duration":0.12295074999999933,"midi":59,"time":10.083242236979167,"velocity":0.3937007874015748},{"duration":0.12295075000000111,"midi":59,"time":10.334266684895832,"velocity":0.3937007874015748},{"duration":0.4918029999999991,"midi":56,"time":10.5852911328125,"velocity":0.3937007874015748},{"duration":0.24590150000000044,"midi":57,"time":11.0924629765625,"velocity":0.3937007874015748},{"duration":0.12295075000000111,"midi":61,"time":11.804552736979167,"velocity":0.3937007874015748},{"duration":0.12295075000000111,"midi":61,"time":12.0607001328125,"velocity":0.3937007874015748},{"duration":0.12295075000000111,"midi":59,"time":12.542257236979166,"velocity":0.3937007874015748},{"duration":0.12295075000000111,"midi":57,"time":13.0289372890625,"velocity":0.3937007874015748},{"duration":0.12295075000000111,"midi":59,"time":13.525863236979166,"velocity":0.3937007874015748},{"duration":0.12295074999999933,"midi":59,"time":14.002297393229167,"velocity":0.3937007874015748},{"duration":0.4918029999999991,"midi":56,"time":14.487696708333333,"velocity":0.3937007874015748},{"duration":0.12295074999999933,"midi":60,"time":15.231804893229167,"velocity":0.3937007874015748},{"duration":0.12295075000000111,"midi":60,"time":15.365001539062499,"velocity":0.3937007874015748},{"duration":0.12295074999999933,"midi":59,"time":15.462337549479168,"velocity":0.3937007874015748},{"duration":0.12295074999999933,"midi":57,"time":15.600657143229167,"velocity":0.3937007874015748},{"duration":0.12295075000000111,"midi":59,"time":15.738976736979165,"velocity":0.3937007874015748},{"duration":1.2295074999999986,"midi":57,"time":15.8721733828125,"velocity":0.3937007874015748},{"duration":0.12295075000000111,"midi":61,"time":23.607824736979165,"velocity":0.3937007874015748},{"duration":0.12295075000000111,"midi":61,"time":23.853726236979163,"velocity":0.3937007874015748},{"duration":0.12295075000000111,"midi":61,"time":24.099627736979166,"velocity":0.3937007874015748},{"duration":0.12295075000000111,"midi":59,"time":24.345529236979164,"velocity":0.3937007874015748},{"duration":0.12295075000000111,"midi":57,"time":24.837332236979165,"velocity":0.3937007874015748},{"duration":0.24590150000000222,"midi":59,"time":25.452085986979164,"velocity":0.3937007874015748},{"duration":0.12295075000000111,"midi":59,"time":25.820938236979163,"velocity":0.3937007874015748},{"duration":0.12295075000000111,"midi":59,"time":26.066839736979166,"velocity":0.3937007874015748},{"duration":0.4918030000000009,"midi":56,"time":26.312741236979164,"velocity":0.3937007874015748},{"duration":0.12295075000000111,"midi":57,"time":26.804544236979165,"velocity":0.3937007874015748},{"duration":0.12295074999999756,"midi":57,"time":27.296347236979166,"velocity":0.3937007874015748},{"duration":0.12295075000000111,"midi":61,"time":27.542248736979165,"velocity":0.3937007874015748},{"duration":0.12295075000000111,"midi":61,"time":27.788150236979163,"velocity":0.3937007874015748},{"duration":0.12295075000000111,"midi":61,"time":28.034051736979166,"velocity":0.3937007874015748},{"duration":0.12295075000000111,"midi":59,"time":28.279953236979164,"velocity":0.3937007874015748},{"duration":0.12295075000000111,"midi":57,"time":28.771756236979165,"velocity":0.3937007874015748},{"duration":0.12295074999999756,"midi":59,"time":29.263559236979166,"velocity":0.3937007874015748},{"duration":0.12295075000000111,"midi":59,"time":29.755362236979163,"velocity":0.3937007874015748},{"duration":0.12295075000000111,"midi":59,"time":30.001263736979165,"velocity":0.3937007874015748},{"duration":0.4918030000000009,"midi":56,"time":30.247165236979164,"velocity":0.3937007874015748},{"duration":0.12295075000000111,"midi":57,"time":30.738968236979165,"velocity":0.3937007874015748},{"duration":0.12295074999999756,"midi":57,"time":31.230771236979166,"velocity":0.3937007874015748},{"duration":0.12295075000000111,"midi":61,"time":31.476672736979168,"velocity":0.3937007874015748},{"duration":0.12295075000000111,"midi":61,"time":31.722574236979167,"velocity":0.3937007874015748},{"duration":0.12295074999999756,"midi":61,"time":31.96847573697917,"velocity":0.3937007874015748},{"duration":0.12295075000000111,"midi":59,"time":32.21437723697917,"velocity":0.3937007874015748},{"duration":0.12295075000000111,"midi":57,"time":32.706180236979165,"velocity":0.3937007874015748},{"duration":0.12295075000000111,"midi":59,"time":33.19798323697917,"velocity":0.3937007874015748},{"duration":0.12295075000000111,"midi":59,"time":33.68978623697917,"velocity":0.3937007874015748},{"duration":0.12295075000000111,"midi":59,"time":33.93568773697917,"velocity":0.3937007874015748},{"duration":0.4918029999999973,"midi":56,"time":34.18158923697917,"velocity":0.3937007874015748},{"duration":0.12295075000000111,"midi":57,"time":34.67339223697917,"velocity":0.3937007874015748},{"duration":0.12295075000000111,"midi":57,"time":35.165195236979166,"velocity":0.3937007874015748},{"duration":0.12295075000000111,"midi":61,"time":39.34552073697917,"velocity":0.3937007874015748},{"duration":0.12295075000000111,"midi":61,"time":39.59142223697917,"velocity":0.3937007874015748},{"duration":0.12295075000000111,"midi":61,"time":39.837323736979165,"velocity":0.3937007874015748},{"duration":0.12295075000000111,"midi":59,"time":40.08322523697917,"velocity":0.3937007874015748},{"duration":0.12295075000000111,"midi":57,"time":40.575028236979165,"velocity":0.3937007874015748},{"duration":0.2459014999999951,"midi":59,"time":41.18978198697917,"velocity":0.3937007874015748},{"duration":0.12295075000000111,"midi":59,"time":41.55863423697917,"velocity":0.3937007874015748},{"duration":0.12295075000000111,"midi":59,"time":41.80453573697917,"velocity":0.3937007874015748},{"duration":0.4918029999999973,"midi":56,"time":42.05043723697917,"velocity":0.3937007874015748},{"duration":0.12295075000000111,"midi":57,"time":42.54224023697917,"velocity":0.3937007874015748},{"duration":0.12295075000000111,"midi":57,"time":43.034043236979166,"velocity":0.3937007874015748},{"duration":0.12295075000000111,"midi":61,"time":43.27994473697917,"velocity":0.3937007874015748},{"duration":0.12295075000000111,"midi":61,"time":43.52584623697917,"velocity":0.3937007874015748},{"duration":0.12295075000000111,"midi":61,"time":43.771747736979165,"velocity":0.3937007874015748},{"duration":0.12295075000000111,"midi":59,"time":44.01764923697917,"velocity":0.3937007874015748},{"duration":0.12295075000000111,"midi":57,"time":44.509452236979165,"velocity":0.3937007874015748},{"duration":0.3688522499999962,"midi":59,"time":45.00125523697917,"velocity":0.3937007874015748},{"duration":0.12295075000000111,"midi":59,"time":45.49305823697917,"velocity":0.3937007874015748},{"duration":0.12295075000000111,"midi":59,"time":45.73895973697917,"velocity":0.3937007874015748},{"duration":0.4918029999999973,"midi":56,"time":45.98486123697917,"velocity":0.3937007874015748},{"duration":0.12295075000000111,"midi":57,"time":46.47666423697917,"velocity":0.3937007874015748},{"duration":0.12295075000000111,"midi":57,"time":46.968467236979166,"velocity":0.3937007874015748},{"duration":0.12295075000000111,"midi":61,"time":47.21436873697917,"velocity":0.3937007874015748},{"duration":0.12295075000000111,"midi":61,"time":47.46027023697917,"velocity":0.3937007874015748},{"duration":0.12295075000000111,"midi":61,"time":47.706171736979165,"velocity":0.3937007874015748},{"duration":0.12295075000000111,"midi":59,"time":47.95207323697917,"velocity":0.3937007874015748},{"duration":0.12295075000000111,"midi":57,"time":48.443876236979165,"velocity":0.3937007874015748},{"duration":0.3688522499999962,"midi":59,"time":48.93567923697917,"velocity":0.3937007874015748},{"duration":0.12295075000000111,"midi":59,"time":49.427482236979166,"velocity":0.3937007874015748},{"duration":0.12295075000000111,"midi":59,"time":49.67338373697917,"velocity":0.3937007874015748},{"duration":0.4918029999999973,"midi":56,"time":49.91928523697917,"velocity":0.3937007874015748},{"duration":0.24590150000000222,"midi":57,"time":50.41108823697917,"velocity":0.3937007874015748},{"duration":0.24590150000000222,"midi":57,"time":50.902891236979166,"velocity":0.3937007874015748},{"duration":0.2459014999999951,"midi":61,"time":55.3239952890625,"velocity":0.3937007874015748},{"duration":0.24590150000000222,"midi":62,"time":55.5698967890625,"velocity":0.3937007874015748},{"duration":0.12295075000000111,"midi":59,"time":55.82604418489583,"velocity":0.3937007874015748},{"duration":0.12295075000000111,"midi":57,"time":56.3076012890625,"velocity":0.3937007874015748},{"duration":0.12295075000000111,"midi":59,"time":56.7994042890625,"velocity":0.3937007874015748},{"duration":0.122950749999994,"midi":59,"time":57.3065761328125,"velocity":0.3937007874015748},{"duration":0.12295075000000111,"midi":52,"time":57.79325618489583,"velocity":0.3937007874015748},{"duration":0.12295075000000111,"midi":54,"time":57.9059610390625,"velocity":0.3937007874015748},{"duration":0.12295075000000111,"midi":57,"time":58.03915768489583,"velocity":0.3937007874015748},{"duration":0.24590150000000222,"midi":57,"time":58.28505918489583,"velocity":0.3937007874015748},{"duration":0.24590150000000222,"midi":59,"time":58.53096068489583,"velocity":0.3937007874015748},{"duration":0.122950749999994,"midi":57,"time":58.77686218489583,"velocity":0.3937007874015748},{"duration":0.24590150000000222,"midi":61,"time":59.26866518489583,"velocity":0.3937007874015748},{"duration":0.24590150000000222,"midi":62,"time":59.509443736979165,"velocity":0.3937007874015748},{"duration":0.12295075000000111,"midi":59,"time":59.76046818489583,"velocity":0.3937007874015748},{"duration":0.12295075000000111,"midi":57,"time":60.247148236979164,"velocity":0.3937007874015748},{"duration":0.12295075000000111,"midi":57,"time":60.74407418489583,"velocity":0.3937007874015748},{"duration":0.12295075000000111,"midi":57,"time":61.23587718489583,"velocity":0.3937007874015748},{"duration":0.12295075000000111,"midi":52,"time":61.72768018489583,"velocity":0.3937007874015748},{"duration":0.12295075000000111,"midi":54,"time":61.8403850390625,"velocity":0.3937007874015748},{"duration":0.12295075000000111,"midi":57,"time":61.97358168489583,"velocity":0.3937007874015748},{"duration":0.24590150000000222,"midi":57,"time":62.21948318489583,"velocity":0.3937007874015748},{"duration":0.24590150000000222,"midi":59,"time":62.46538468489583,"velocity":0.3937007874015748},{"duration":0.122950749999994,"midi":57,"time":62.71128618489583,"velocity":0.3937007874015748},{"duration":0.2459014999999951,"midi":61,"time":63.1928432890625,"velocity":0.3937007874015748},{"duration":0.24590150000000222,"midi":62,"time":63.44386773697916,"velocity":0.3937007874015748},{"duration":0.12295075000000111,"midi":59,"time":63.6846462890625,"velocity":0.3937007874015748},{"duration":0.12295075000000111,"midi":57,"time":64.1764492890625,"velocity":0.3937007874015748},{"duration":0.1229507499999869,"midi":57,"time":64.67849818489584,"velocity":0.3937007874015748},{"duration":0.12295075000000111,"midi":57,"time":64.92439968489583,"velocity":0.3937007874015748},{"duration":0.12295075000000111,"midi":57,"time":65.1754241328125,"velocity":0.3937007874015748},{"duration":0.49180300000000443,"midi":56,"time":65.66210418489584,"velocity":0.3937007874015748},{"duration":0.12295075000000111,"midi":57,"time":66.14366128906249,"velocity":0.3937007874015748},{"duration":0.12295075000000111,"midi":57,"time":67.12214434114584,"velocity":0.3937007874015748},{"duration":0.245901499999988,"midi":54,"time":67.36804584114584,"velocity":0.3937007874015748},{"duration":0.12295075000000111,"midi":57,"time":67.61907028906249,"velocity":0.3937007874015748},{"duration":0.1229507499999869,"midi":59,"time":67.8803406328125,"velocity":0.3937007874015748},{"duration":0.12295075000000111,"midi":57,"time":68.11599623697916,"velocity":0.3937007874015748},{"duration":0.24590150000000222,"midi":54,"time":68.35165184114584,"velocity":0.3937007874015748},{"duration":0.12295075000000111,"midi":57,"time":68.59755334114584,"velocity":0.3937007874015748},{"duration":0.12295075000000111,"midi":59,"time":68.85882368489584,"velocity":0.3937007874015748},{"duration":0.12295075000000111,"midi":57,"time":69.10472518489584,"velocity":0.3937007874015748},{"duration":0.24590150000000222,"midi":54,"time":69.3403807890625,"velocity":0.3937007874015748},{"duration":0.12295075000000111,"midi":57,"time":69.5862822890625,"velocity":0.3937007874015748},{"duration":0.12295075000000111,"midi":59,"time":69.8475526328125,"velocity":0.3937007874015748},{"duration":0.12295075000000111,"midi":57,"time":70.074243078125,"velocity":0.3937007874015748},{"duration":0.12295075000000111,"midi":54,"time":70.33039047395833,"velocity":0.3937007874015748},{"duration":0.12295075000000111,"midi":61,"time":86.55988947395834,"velocity":0.3937007874015748},{"duration":0.12295075000000111,"midi":61,"time":86.80579097395834,"velocity":0.3937007874015748},{"duration":0.12295075000000111,"midi":61,"time":87.05169247395834,"velocity":0.3937007874015748},{"duration":0.1229507499999869,"midi":59,"time":87.29759397395834,"velocity":0.3937007874015748},{"duration":0.12295075000000111,"midi":57,"time":87.78939697395833,"velocity":0.3937007874015748},{"duration":0.24590150000000222,"midi":59,"time":88.393904828125,"velocity":0.3937007874015748},{"duration":0.12295075000000111,"midi":59,"time":88.77300297395834,"velocity":0.3937007874015748},{"duration":0.12295075000000111,"midi":59,"time":89.01890447395833,"velocity":0.3937007874015748},{"duration":0.49180300000000443,"midi":56,"time":89.26480597395833,"velocity":0.3937007874015748},{"duration":0.12295075000000111,"midi":57,"time":89.75660897395834,"velocity":0.3937007874015748},{"duration":0.12295075000000111,"midi":57,"time":90.24841197395834,"velocity":0.3937007874015748},{"duration":0.1229507499999869,"midi":61,"time":90.49431347395834,"velocity":0.3937007874015748},{"duration":0.12295075000000111,"midi":61,"time":90.74021497395833,"velocity":0.3937007874015748},{"duration":0.12295075000000111,"midi":61,"time":90.98611647395833,"velocity":0.3937007874015748},{"duration":0.12295075000000111,"midi":59,"time":91.23201797395834,"velocity":0.3937007874015748},{"duration":0.12295075000000111,"midi":57,"time":91.72382097395834,"velocity":0.3937007874015748},{"duration":0.12295075000000111,"midi":59,"time":92.21562397395833,"velocity":0.3937007874015748},{"duration":0.12295075000000111,"midi":59,"time":92.70742697395833,"velocity":0.3937007874015748},{"duration":0.12295075000000111,"midi":59,"time":92.95332847395834,"velocity":0.3937007874015748},{"duration":0.49180300000000443,"midi":56,"time":93.19922997395834,"velocity":0.3937007874015748},{"duration":0.1229507499999869,"midi":57,"time":93.69103297395834,"velocity":0.3937007874015748},{"duration":0.12295075000000111,"midi":57,"time":94.18283597395833,"velocity":0.3937007874015748},{"duration":0.12295075000000111,"midi":61,"time":94.42873747395834,"velocity":0.3937007874015748},{"duration":0.12295075000000111,"midi":61,"time":94.67463897395834,"velocity":0.3937007874015748},{"duration":0.12295075000000111,"midi":61,"time":94.92054047395834,"velocity":0.3937007874015748},{"duration":0.1229507499999869,"midi":59,"time":95.16644197395834,"velocity":0.3937007874015748},{"duration":0.12295075000000111,"midi":57,"time":95.65824497395833,"velocity":0.3937007874015748},{"duration":0.12295075000000111,"midi":59,"time":96.15004797395834,"velocity":0.3937007874015748},{"duration":0.12295075000000111,"midi":59,"time":96.64185097395834,"velocity":0.3937007874015748},{"duration":0.12295075000000111,"midi":59,"time":96.88775247395833,"velocity":0.3937007874015748},{"duration":0.49180300000000443,"midi":56,"time":97.13365397395833,"velocity":0.3937007874015748},{"duration":0.12295075000000111,"midi":57,"time":97.62545697395834,"velocity":0.3937007874015748},{"duration":0.12295075000000111,"midi":57,"time":98.11725997395834,"velocity":0.3937007874015748},{"duration":0.12295075000000111,"midi":61,"time":102.29758547395834,"velocity":0.3937007874015748},{"duration":0.12295075000000111,"midi":61,"time":102.54348697395834,"velocity":0.3937007874015748},{"duration":0.12295075000000111,"midi":61,"time":102.78938847395834,"velocity":0.3937007874015748},{"duration":0.1229507499999869,"midi":59,"time":103.03528997395834,"velocity":0.3937007874015748},{"duration":0.12295075000000111,"midi":57,"time":103.52709297395833,"velocity":0.3937007874015748},{"duration":0.24590150000000222,"midi":59,"time":104.14184672395834,"velocity":0.3937007874015748},{"duration":0.12295075000000111,"midi":59,"time":104.51069897395834,"velocity":0.3937007874015748},{"duration":0.12295075000000111,"midi":59,"time":104.75660047395833,"velocity":0.3937007874015748},{"duration":0.49180300000000443,"midi":56,"time":105.00250197395833,"velocity":0.3937007874015748},{"duration":0.12295075000000111,"midi":57,"time":105.49430497395834,"velocity":0.3937007874015748},{"duration":0.12295075000000111,"midi":57,"time":105.98610797395834,"velocity":0.3937007874015748},{"duration":0.1229507499999869,"midi":61,"time":106.23200947395834,"velocity":0.3937007874015748},{"duration":0.12295075000000111,"midi":61,"time":106.47791097395833,"velocity":0.3937007874015748},{"duration":0.12295075000000111,"midi":61,"time":106.72381247395833,"velocity":0.3937007874015748},{"duration":0.12295075000000111,"midi":59,"time":106.96971397395833,"velocity":0.3937007874015748},{"duration":0.12295075000000111,"midi":57,"time":107.46151697395834,"velocity":0.3937007874015748},{"duration":0.3688522500000033,"midi":59,"time":107.95331997395833,"velocity":0.3937007874015748},{"duration":0.12295075000000111,"midi":59,"time":108.44512297395833,"velocity":0.3937007874015748},{"duration":0.12295075000000111,"midi":59,"time":108.69102447395834,"velocity":0.3937007874015748},{"duration":0.49180300000000443,"midi":56,"time":108.93692597395834,"velocity":0.3937007874015748},{"duration":0.1229507499999869,"midi":57,"time":109.42872897395834,"velocity":0.3937007874015748},{"duration":0.12295075000000111,"midi":57,"time":109.92053197395833,"velocity":0.3937007874015748},{"duration":0.12295075000000111,"midi":61,"time":110.16643347395834,"velocity":0.3937007874015748},{"duration":0.12295075000000111,"midi":61,"time":110.41233497395834,"velocity":0.3937007874015748},{"duration":0.12295075000000111,"midi":61,"time":110.65823647395834,"velocity":0.3937007874015748},{"duration":0.1229507499999869,"midi":59,"time":110.90413797395834,"velocity":0.3937007874015748},{"duration":0.12295075000000111,"midi":57,"time":111.39594097395833,"velocity":0.3937007874015748},{"duration":0.3688522500000033,"midi":59,"time":111.88774397395834,"velocity":0.3937007874015748},{"duration":0.12295075000000111,"midi":59,"time":112.37954697395834,"velocity":0.3937007874015748},{"duration":0.12295075000000111,"midi":59,"time":112.62544847395833,"velocity":0.3937007874015748},{"duration":0.49180300000000443,"midi":56,"time":112.87134997395833,"velocity":0.3937007874015748},{"duration":0.24590150000000222,"midi":57,"time":113.36315297395834,"velocity":0.3937007874015748},{"duration":0.24590150000000222,"midi":57,"time":113.85495597395834,"velocity":0.3937007874015748},{"duration":0.24590150000000222,"midi":61,"time":118.27606002604166,"velocity":0.3937007874015748},{"duration":0.245901499999988,"midi":62,"time":118.52196152604166,"velocity":0.3937007874015748},{"duration":0.12295075000000111,"midi":59,"time":118.778108921875,"velocity":0.3937007874015748},{"duration":0.12295075000000111,"midi":57,"time":119.25966602604166,"velocity":0.3937007874015748},{"duration":0.12295075000000111,"midi":59,"time":119.75146902604166,"velocity":0.3937007874015748},{"duration":0.12295075000000111,"midi":59,"time":120.25864086979166,"velocity":0.3937007874015748},{"duration":0.12295075000000111,"midi":52,"time":120.74532092187499,"velocity":0.3937007874015748},{"duration":0.12295075000000111,"midi":54,"time":120.85802577604166,"velocity":0.3937007874015748},{"duration":0.12295075000000111,"midi":57,"time":120.991222421875,"velocity":0.3937007874015748},{"duration":0.24590150000000222,"midi":57,"time":121.237123921875,"velocity":0.3937007874015748},{"duration":0.24590150000000222,"midi":59,"time":121.483025421875,"velocity":0.3937007874015748},{"duration":0.12295075000000111,"midi":57,"time":121.728926921875,"velocity":0.3937007874015748},{"duration":0.24590150000000222,"midi":61,"time":122.22072992187499,"velocity":0.3937007874015748},{"duration":0.24590150000000222,"midi":62,"time":122.46150847395833,"velocity":0.3937007874015748},{"duration":0.12295075000000111,"midi":59,"time":122.712532921875,"velocity":0.3937007874015748},{"duration":0.12295075000000111,"midi":57,"time":123.19921297395834,"velocity":0.3937007874015748},{"duration":0.1229507499999869,"midi":57,"time":123.696138921875,"velocity":0.3937007874015748},{"duration":0.12295075000000111,"midi":57,"time":124.187941921875,"velocity":0.3937007874015748},{"duration":0.12295075000000111,"midi":52,"time":124.679744921875,"velocity":0.3937007874015748},{"duration":0.12295075000000111,"midi":54,"time":124.79244977604166,"velocity":0.3937007874015748},{"duration":0.12295075000000111,"midi":57,"time":124.925646421875,"velocity":0.3937007874015748},{"duration":0.245901499999988,"midi":57,"time":125.171547921875,"velocity":0.3937007874015748},{"duration":0.24590150000000222,"midi":59,"time":125.41744942187499,"velocity":0.3937007874015748},{"duration":0.12295075000000111,"midi":57,"time":125.663350921875,"velocity":0.3937007874015748},{"duration":0.24590150000000222,"midi":61,"time":126.14490802604168,"velocity":0.3937007874015748},{"duration":0.24590150000000222,"midi":62,"time":126.39593247395833,"velocity":0.3937007874015748},{"duration":0.12295075000000111,"midi":59,"time":126.63671102604167,"velocity":0.3937007874015748},{"duration":0.12295075000000111,"midi":57,"time":127.12851402604167,"velocity":0.3937007874015748},{"duration":0.12295075000000111,"midi":57,"time":127.630562921875,"velocity":0.3937007874015748},{"duration":0.12295075000000111,"midi":57,"time":127.876464421875,"velocity":0.3937007874015748},{"duration":0.12295075000000111,"midi":57,"time":128.12748886979168,"velocity":0.3937007874015748},{"duration":0.49180300000000443,"midi":56,"time":128.614168921875,"velocity":0.3937007874015748},{"duration":0.12295075000000111,"midi":57,"time":129.09572602604166,"velocity":0.3937007874015748},{"duration":0.12295075000000111,"midi":57,"time":130.074209078125,"velocity":0.3937007874015748},{"duration":0.24590150000000222,"midi":54,"time":130.320110578125,"velocity":0.3937007874015748},{"duration":0.12295075000000111,"midi":57,"time":130.57113502604167,"velocity":0.3937007874015748},{"duration":0.12295075000000111,"midi":59,"time":130.83240536979167,"velocity":0.3937007874015748},{"duration":0.12295075000000111,"midi":57,"time":131.06806097395832,"velocity":0.3937007874015748},{"duration":0.24590150000000222,"midi":54,"time":131.303716578125,"velocity":0.3937007874015748},{"duration":0.12295075000000111,"midi":57,"time":131.549618078125,"velocity":0.3937007874015748},{"duration":0.12295075000000111,"midi":59,"time":131.810888421875,"velocity":0.3937007874015748},{"duration":0.12295075000000111,"midi":57,"time":132.056789921875,"velocity":0.3937007874015748},{"duration":0.24590150000000222,"midi":54,"time":132.29244552604166,"velocity":0.3937007874015748},{"duration":0.12295075000000111,"midi":57,"time":132.53834702604166,"velocity":0.3937007874015748},{"duration":0.12295075000000111,"midi":59,"time":132.79961736979166,"velocity":0.3937007874015748},{"duration":0.12295075000000111,"midi":57,"time":133.02630781510416,"velocity":0.3937007874015748},{"duration":0.12295075000000111,"midi":54,"time":133.28245521093748,"velocity":0.3937007874015748},{"duration":0.24590150000000222,"midi":61,"time":134.01503676302082,"velocity":0.3937007874015748},{"duration":0.24590150000000222,"midi":62,"time":134.26093826302082,"velocity":0.3937007874015748},{"duration":0.12295075000000111,"midi":59,"time":134.51708565885417,"velocity":0.3937007874015748},{"duration":0.12295075000000111,"midi":57,"time":134.99864276302083,"velocity":0.3937007874015748},{"duration":0.12295075000000111,"midi":59,"time":135.49044576302083,"velocity":0.3937007874015748},{"duration":0.12295075000000111,"midi":59,"time":135.99761760677083,"velocity":0.3937007874015748},{"duration":0.12295075000000111,"midi":52,"time":136.48429765885416,"velocity":0.3937007874015748},{"duration":0.12295075000000111,"midi":54,"time":136.5970025130208,"velocity":0.3937007874015748},{"duration":0.12295075000000111,"midi":57,"time":136.73019915885416,"velocity":0.3937007874015748},{"duration":0.24590150000000222,"midi":57,"time":136.97610065885416,"velocity":0.3937007874015748},{"duration":0.24590150000000222,"midi":59,"time":137.22200215885417,"velocity":0.3937007874015748},{"duration":0.12295075000000111,"midi":57,"time":137.46790365885417,"velocity":0.3937007874015748},{"duration":0.24590150000000222,"midi":61,"time":137.95970665885417,"velocity":0.3937007874015748},{"duration":0.24590150000000222,"midi":62,"time":138.2004852109375,"velocity":0.3937007874015748},{"duration":0.12295075000000111,"midi":59,"time":138.45150965885418,"velocity":0.3937007874015748},{"duration":0.12295075000000111,"midi":57,"time":138.9381897109375,"velocity":0.3937007874015748},{"duration":0.12295074999997269,"midi":57,"time":139.4351156588542,"velocity":0.3937007874015748},{"duration":0.12295075000000111,"midi":57,"time":139.92691865885416,"velocity":0.3937007874015748},{"duration":0.12295075000000111,"midi":52,"time":140.41872165885417,"velocity":0.3937007874015748},{"duration":0.12295075000000111,"midi":54,"time":140.53142651302082,"velocity":0.3937007874015748},{"duration":0.12295075000000111,"midi":57,"time":140.66462315885417,"velocity":0.3937007874015748},{"duration":0.24590150000000222,"midi":57,"time":140.91052465885417,"velocity":0.3937007874015748},{"duration":0.24590150000000222,"midi":59,"time":141.15642615885417,"velocity":0.3937007874015748},{"duration":0.12295075000000111,"midi":57,"time":141.40232765885418,"velocity":0.3937007874015748},{"duration":0.24590150000000222,"midi":61,"time":141.88388476302083,"velocity":0.3937007874015748},{"duration":0.24590150000000222,"midi":62,"time":142.1349092109375,"velocity":0.3937007874015748},{"duration":0.12295074999997269,"midi":59,"time":142.37568776302084,"velocity":0.3937007874015748},{"duration":0.12295075000000111,"midi":57,"time":142.8674907630208,"velocity":0.3937007874015748},{"duration":0.12295075000000111,"midi":57,"time":143.36953965885417,"velocity":0.3937007874015748},{"duration":0.12295075000000111,"midi":57,"time":143.61544115885417,"velocity":0.3937007874015748},{"duration":0.12295075000000111,"midi":57,"time":143.86646560677082,"velocity":0.3937007874015748},{"duration":0.49180300000000443,"midi":56,"time":144.35314565885417,"velocity":0.3937007874015748},{"duration":0.12295075000000111,"midi":57,"time":144.83470276302083,"velocity":0.3937007874015748},{"duration":0.12295075000000111,"midi":57,"time":145.81318581510416,"velocity":0.3937007874015748},{"duration":0.24590150000000222,"midi":54,"time":146.05908731510416,"velocity":0.3937007874015748},{"duration":0.12295075000000111,"midi":57,"time":146.3101117630208,"velocity":0.3937007874015748},{"duration":0.12295075000000111,"midi":59,"time":146.5713821067708,"velocity":0.3937007874015748},{"duration":0.12295075000000111,"midi":57,"time":146.8070377109375,"velocity":0.3937007874015748},{"duration":0.24590150000000222,"midi":54,"time":147.04269331510417,"velocity":0.3937007874015748},{"duration":0.12295075000000111,"midi":57,"time":147.28859481510418,"velocity":0.3937007874015748},{"duration":0.12295075000000111,"midi":59,"time":147.54986515885417,"velocity":0.3937007874015748},{"duration":0.12295075000000111,"midi":57,"time":147.79576665885418,"velocity":0.3937007874015748},{"duration":0.24590150000000222,"midi":54,"time":148.03142226302083,"velocity":0.3937007874015748},{"duration":0.12295075000000111,"midi":57,"time":148.27732376302083,"velocity":0.3937007874015748},{"duration":0.12295075000000111,"midi":59,"time":148.53859410677083,"velocity":0.3937007874015748},{"duration":0.12295075000000111,"midi":57,"time":148.76528455208333,"velocity":0.3937007874015748},{"duration":0.12295075000000111,"midi":54,"time":149.02143194791668,"velocity":0.3937007874015748},{"duration":0.12295074999997269,"midi":61,"time":149.5132349479167,"velocity":0.3937007874015748},{"duration":0.12295075000000111,"midi":61,"time":149.75913644791666,"velocity":0.3937007874015748},{"duration":0.12295075000000111,"midi":61,"time":150.00503794791666,"velocity":0.3937007874015748},{"duration":0.12295075000000111,"midi":59,"time":150.25093944791666,"velocity":0.3937007874015748},{"duration":0.12295075000000111,"midi":57,"time":150.74274244791667,"velocity":0.3937007874015748},{"duration":0.24590150000000222,"midi":59,"time":151.35749619791667,"velocity":0.3937007874015748},{"duration":0.12295075000000111,"midi":59,"time":151.72634844791668,"velocity":0.3937007874015748},{"duration":0.12295075000000111,"midi":59,"time":151.97224994791668,"velocity":0.3937007874015748},{"duration":0.49180300000000443,"midi":56,"time":152.21815144791668,"velocity":0.3937007874015748},{"duration":0.12295074999997269,"midi":57,"time":152.7099544479167,"velocity":0.3937007874015748},{"duration":0.12295075000000111,"midi":57,"time":153.20175744791666,"velocity":0.3937007874015748},{"duration":0.12295075000000111,"midi":61,"time":153.44765894791666,"velocity":0.3937007874015748},{"duration":0.12295075000000111,"midi":61,"time":153.69356044791667,"velocity":0.3937007874015748},{"duration":0.12295075000000111,"midi":61,"time":153.93946194791667,"velocity":0.3937007874015748},{"duration":0.12295075000000111,"midi":59,"time":154.18536344791667,"velocity":0.3937007874015748},{"duration":0.12295075000000111,"midi":57,"time":154.67716644791668,"velocity":0.3937007874015748},{"duration":0.3688522500000033,"midi":59,"time":155.16896944791668,"velocity":0.3937007874015748},{"duration":0.12295075000000111,"midi":59,"time":155.66077244791668,"velocity":0.3937007874015748},{"duration":0.12295074999997269,"midi":59,"time":155.9066739479167,"velocity":0.3937007874015748},{"duration":0.49180300000000443,"midi":56,"time":156.15257544791666,"velocity":0.3937007874015748},{"duration":0.12295075000000111,"midi":57,"time":156.64437844791667,"velocity":0.3937007874015748},{"duration":0.12295075000000111,"midi":57,"time":157.13618144791667,"velocity":0.3937007874015748},{"duration":0.12295075000000111,"midi":61,"time":157.38208294791667,"velocity":0.3937007874015748},{"duration":0.12295075000000111,"midi":61,"time":157.62798444791667,"velocity":0.3937007874015748},{"duration":0.12295075000000111,"midi":61,"time":157.87388594791668,"velocity":0.3937007874015748},{"duration":0.12295075000000111,"midi":59,"time":158.11978744791668,"velocity":0.3937007874015748},{"duration":0.12295075000000111,"midi":57,"time":158.61159044791668,"velocity":0.3937007874015748},{"duration":0.3688522500000033,"midi":59,"time":159.10339344791666,"velocity":0.3937007874015748},{"duration":0.12295075000000111,"midi":59,"time":159.59519644791666,"velocity":0.3937007874015748},{"duration":0.12295075000000111,"midi":59,"time":159.84109794791667,"velocity":0.3937007874015748},{"duration":0.49180300000000443,"midi":56,"time":160.08699944791667,"velocity":0.3937007874015748},{"duration":0.24590150000000222,"midi":57,"time":160.57880244791667,"velocity":0.3937007874015748},{"duration":0.24590150000000222,"midi":57,"time":161.07060544791668,"velocity":0.3937007874015748},{"duration":0.24590150000000222,"midi":61,"time":165.49170949999998,"velocity":0.3937007874015748},{"duration":0.24590150000000222,"midi":62,"time":165.737611,"velocity":0.3937007874015748},{"duration":0.12295075000000111,"midi":59,"time":165.9937583958333,"velocity":0.3937007874015748},{"duration":0.12295075000000111,"midi":57,"time":166.4753155,"velocity":0.3937007874015748},{"duration":0.12295075000000111,"midi":59,"time":166.9671185,"velocity":0.3937007874015748},{"duration":0.12295075000000111,"midi":59,"time":167.47429034375,"velocity":0.3937007874015748},{"duration":0.12295075000000111,"midi":52,"time":167.96097039583333,"velocity":0.3937007874015748},{"duration":0.12295075000000111,"midi":54,"time":168.07367525,"velocity":0.3937007874015748},{"duration":0.12295075000000111,"midi":57,"time":168.20687189583333,"velocity":0.3937007874015748},{"duration":0.2459014999999738,"midi":57,"time":168.45277339583333,"velocity":0.3937007874015748},{"duration":0.24590150000000222,"midi":59,"time":168.6986748958333,"velocity":0.3937007874015748},{"duration":0.12295075000000111,"midi":57,"time":168.9445763958333,"velocity":0.3937007874015748},{"duration":0.24590150000000222,"midi":61,"time":169.4363793958333,"velocity":0.3937007874015748},{"duration":0.24590150000000222,"midi":62,"time":169.67715794791667,"velocity":0.3937007874015748},{"duration":0.12295075000000111,"midi":59,"time":169.92818239583332,"velocity":0.3937007874015748},{"duration":0.12295075000000111,"midi":57,"time":170.41486244791668,"velocity":0.3937007874015748},{"duration":0.12295075000000111,"midi":57,"time":170.91178839583333,"velocity":0.3937007874015748},{"duration":0.12295075000000111,"midi":57,"time":171.40359139583333,"velocity":0.3937007874015748},{"duration":0.12295075000000111,"midi":52,"time":171.8953943958333,"velocity":0.3937007874015748},{"duration":0.12295075000000111,"midi":54,"time":172.00809925,"velocity":0.3937007874015748},{"duration":0.12295075000000111,"midi":57,"time":172.1412958958333,"velocity":0.3937007874015748},{"duration":0.24590150000000222,"midi":57,"time":172.3871973958333,"velocity":0.3937007874015748},{"duration":0.24590150000000222,"midi":59,"time":172.6330988958333,"velocity":0.3937007874015748},{"duration":0.12295075000000111,"midi":57,"time":172.87900039583332,"velocity":0.3937007874015748},{"duration":0.24590150000000222,"midi":61,"time":173.3605575,"velocity":0.3937007874015748},{"duration":0.24590150000000222,"midi":62,"time":173.61158194791668,"velocity":0.3937007874015748},{"duration":0.12295075000000111,"midi":59,"time":173.8523605,"velocity":0.3937007874015748},{"duration":0.12295075000000111,"midi":57,"time":174.3441635,"velocity":0.3937007874015748},{"duration":0.12295074999997269,"midi":57,"time":174.84621239583333,"velocity":0.3937007874015748},{"duration":0.12295075000000111,"midi":57,"time":175.0921138958333,"velocity":0.3937007874015748},{"duration":0.12295075000000111,"midi":57,"time":175.34313834374998,"velocity":0.3937007874015748},{"duration":0.49180300000000443,"midi":56,"time":175.8298183958333,"velocity":0.3937007874015748},{"duration":0.12295075000000111,"midi":57,"time":176.3113755,"velocity":0.3937007874015748},{"duration":0.12295075000000111,"midi":57,"time":177.28985855208333,"velocity":0.3937007874015748},{"duration":0.2459014999999738,"midi":54,"time":177.53576005208333,"velocity":0.3937007874015748},{"duration":0.12295074999997269,"midi":57,"time":177.7867845,"velocity":0.3937007874015748},{"duration":0.12295075000000111,"midi":59,"time":178.04805484375,"velocity":0.3937007874015748},{"duration":0.12295075000000111,"midi":57,"time":178.28371044791666,"velocity":0.3937007874015748},{"duration":0.24590150000000222,"midi":54,"time":178.5193660520833,"velocity":0.3937007874015748},{"duration":0.12295075000000111,"midi":57,"time":178.76526755208332,"velocity":0.3937007874015748},{"duration":0.12295075000000111,"midi":59,"time":179.02653789583331,"velocity":0.3937007874015748},{"duration":0.12295075000000111,"midi":57,"time":179.27243939583332,"velocity":0.3937007874015748},{"duration":0.24590150000000222,"midi":54,"time":179.508095,"velocity":0.3937007874015748},{"duration":0.12295075000000111,"midi":57,"time":179.7539965,"velocity":0.3937007874015748},{"duration":0.12295075000000111,"midi":59,"time":180.01526684375,"velocity":0.3937007874015748},{"duration":0.12295075000000111,"midi":57,"time":180.2419572890625,"velocity":0.3937007874015748},{"duration":0.12295075000000111,"midi":54,"time":180.49810468489582,"velocity":0.3937007874015748},{"duration":0.24590150000000222,"midi":61,"time":181.23068623697918,"velocity":0.3937007874015748},{"duration":0.24590150000000222,"midi":62,"time":181.47658773697918,"velocity":0.3937007874015748},{"duration":0.12295075000000111,"midi":59,"time":181.7327351328125,"velocity":0.3937007874015748},{"duration":0.12295075000000111,"midi":57,"time":182.21429223697916,"velocity":0.3937007874015748},{"duration":0.12295075000000111,"midi":59,"time":182.70609523697917,"velocity":0.3937007874015748},{"duration":0.12295075000000111,"midi":59,"time":183.21326708072917,"velocity":0.3937007874015748},{"duration":0.12295075000000111,"midi":52,"time":183.6999471328125,"velocity":0.3937007874015748},{"duration":0.12295075000000111,"midi":54,"time":183.81265198697918,"velocity":0.3937007874015748},{"duration":0.12295075000000111,"midi":57,"time":183.9458486328125,"velocity":0.3937007874015748},{"duration":0.24590150000000222,"midi":57,"time":184.1917501328125,"velocity":0.3937007874015748},{"duration":0.24590150000000222,"midi":59,"time":184.4376516328125,"velocity":0.3937007874015748},{"duration":0.12295075000000111,"midi":57,"time":184.6835531328125,"velocity":0.3937007874015748},{"duration":0.2459014999999738,"midi":61,"time":185.1753561328125,"velocity":0.3937007874015748},{"duration":0.24590150000000222,"midi":62,"time":185.4161346848958,"velocity":0.3937007874015748},{"duration":0.12295075000000111,"midi":59,"time":185.6671591328125,"velocity":0.3937007874015748},{"duration":0.12295075000000111,"midi":57,"time":186.15383918489582,"velocity":0.3937007874015748},{"duration":0.12295075000000111,"midi":57,"time":186.6507651328125,"velocity":0.3937007874015748},{"duration":0.12295075000000111,"midi":57,"time":187.1425681328125,"velocity":0.3937007874015748},{"duration":0.12295075000000111,"midi":52,"time":187.6343711328125,"velocity":0.3937007874015748},{"duration":0.12295075000000111,"midi":54,"time":187.74707598697918,"velocity":0.3937007874015748},{"duration":0.12295075000000111,"midi":57,"time":187.8802726328125,"velocity":0.3937007874015748},{"duration":0.2459014999999738,"midi":57,"time":188.1261741328125,"velocity":0.3937007874015748},{"duration":0.24590150000000222,"midi":59,"time":188.37207563281248,"velocity":0.3937007874015748},{"duration":0.12295075000000111,"midi":57,"time":188.61797713281248,"velocity":0.3937007874015748},{"duration":0.24590150000000222,"midi":61,"time":189.09953423697917,"velocity":0.3937007874015748},{"duration":0.24590150000000222,"midi":62,"time":189.35055868489582,"velocity":0.3937007874015748},{"duration":0.12295075000000111,"midi":59,"time":189.59133723697917,"velocity":0.3937007874015748},{"duration":0.12295075000000111,"midi":57,"time":190.08314023697918,"velocity":0.3937007874015748},{"duration":0.12295075000000111,"midi":57,"time":190.5851891328125,"velocity":0.3937007874015748},{"duration":0.12295075000000111,"midi":57,"time":190.8310906328125,"velocity":0.3937007874015748},{"duration":0.12295075000000111,"midi":57,"time":191.08211508072918,"velocity":0.3937007874015748},{"duration":0.49180300000000443,"midi":56,"time":191.56879513281248,"velocity":0.3937007874015748},{"duration":0.12295075000000111,"midi":57,"time":192.05035223697917,"velocity":0.3937007874015748},{"duration":0.12295075000000111,"midi":57,"time":193.0288352890625,"velocity":0.3937007874015748},{"duration":0.24590150000000222,"midi":54,"time":193.2747367890625,"velocity":0.3937007874015748},{"duration":0.12295075000000111,"midi":57,"time":193.52576123697918,"velocity":0.3937007874015748},{"duration":0.12295075000000111,"midi":59,"time":193.78703158072918,"velocity":0.3937007874015748},{"duration":0.12295075000000111,"midi":57,"time":194.02268718489583,"velocity":0.3937007874015748},{"duration":0.2459014999999738,"midi":54,"time":194.2583427890625,"velocity":0.3937007874015748},{"duration":0.12295075000000111,"midi":57,"time":194.50424428906248,"velocity":0.3937007874015748},{"duration":0.12295075000000111,"midi":59,"time":194.76551463281248,"velocity":0.3937007874015748},{"duration":0.12295075000000111,"midi":57,"time":195.01141613281249,"velocity":0.3937007874015748},{"duration":0.24590150000000222,"midi":54,"time":195.24707173697917,"velocity":0.3937007874015748},{"duration":0.12295075000000111,"midi":57,"time":195.49297323697917,"velocity":0.3937007874015748},{"duration":0.12295075000000111,"midi":59,"time":195.75424358072917,"velocity":0.3937007874015748},{"duration":0.12295075000000111,"midi":57,"time":195.98093402604167,"velocity":0.3937007874015748},{"duration":0.12295075000000111,"midi":54,"time":196.237081421875,"velocity":0.3937007874015748},{"duration":0.24590150000000222,"midi":61,"time":196.96966297395832,"velocity":0.3937007874015748},{"duration":0.24590150000000222,"midi":62,"time":197.21556447395832,"velocity":0.3937007874015748},{"duration":0.12295075000000111,"midi":59,"time":197.47171186979168,"velocity":0.3937007874015748},{"duration":0.12295075000000111,"midi":57,"time":197.95326897395833,"velocity":0.3937007874015748},{"duration":0.12295075000000111,"midi":59,"time":198.4450719739583,"velocity":0.3937007874015748},{"duration":0.12295075000000111,"midi":59,"time":198.9522438177083,"velocity":0.3937007874015748},{"duration":0.12295075000000111,"midi":52,"time":199.43892386979167,"velocity":0.3937007874015748},{"duration":0.12295075000000111,"midi":54,"time":199.55162872395832,"velocity":0.3937007874015748},{"duration":0.12295075000000111,"midi":57,"time":199.68482536979167,"velocity":0.3937007874015748},{"duration":0.24590150000000222,"midi":57,"time":199.93072686979167,"velocity":0.3937007874015748},{"duration":0.24590150000000222,"midi":59,"time":200.17662836979167,"velocity":0.3937007874015748},{"duration":0.12295075000000111,"midi":57,"time":200.42252986979167,"velocity":0.3937007874015748},{"duration":0.24590150000000222,"midi":61,"time":200.91433286979168,"velocity":0.3937007874015748},{"duration":0.24590150000000222,"midi":62,"time":201.155111421875,"velocity":0.3937007874015748},{"duration":0.12295075000000111,"midi":59,"time":201.40613586979168,"velocity":0.3937007874015748},{"duration":0.12295075000000111,"midi":57,"time":201.89281592187498,"velocity":0.3937007874015748},{"duration":0.12295075000000111,"midi":57,"time":202.38974186979166,"velocity":0.3937007874015748},{"duration":0.12295075000000111,"midi":57,"time":202.88154486979167,"velocity":0.3937007874015748},{"duration":0.12295075000000111,"midi":52,"time":203.37334786979167,"velocity":0.3937007874015748},{"duration":0.12295075000000111,"midi":54,"time":203.48605272395832,"velocity":0.3937007874015748},{"duration":0.12295075000000111,"midi":57,"time":203.61924936979167,"velocity":0.3937007874015748},{"duration":0.24590150000000222,"midi":57,"time":203.86515086979168,"velocity":0.3937007874015748},{"duration":0.24590150000000222,"midi":59,"time":204.11105236979168,"velocity":0.3937007874015748},{"duration":0.12295075000000111,"midi":57,"time":204.35695386979168,"velocity":0.3937007874015748},{"duration":0.24590150000000222,"midi":61,"time":204.8385109739583,"velocity":0.3937007874015748},{"duration":0.24590150000000222,"midi":62,"time":205.08953542187498,"velocity":0.3937007874015748},{"duration":0.12295075000000111,"midi":59,"time":205.3303139739583,"velocity":0.3937007874015748},{"duration":0.12295075000000111,"midi":57,"time":205.82211697395832,"velocity":0.3937007874015748},{"duration":0.12295075000000111,"midi":57,"time":206.32416586979167,"velocity":0.3937007874015748},{"duration":0.12295075000000111,"midi":57,"time":206.57006736979167,"velocity":0.3937007874015748},{"duration":0.12295075000000111,"midi":57,"time":206.82109181770832,"velocity":0.3937007874015748},{"duration":0.49180300000000443,"midi":56,"time":207.30777186979168,"velocity":0.3937007874015748},{"duration":0.12295074999997269,"midi":57,"time":207.78932897395833,"velocity":0.3937007874015748},{"duration":0.12295075000000111,"midi":57,"time":208.76781202604167,"velocity":0.3937007874015748},{"duration":0.24590150000000222,"midi":54,"time":209.01371352604167,"velocity":0.3937007874015748},{"duration":0.12295075000000111,"midi":57,"time":209.26473797395832,"velocity":0.3937007874015748},{"duration":0.12295075000000111,"midi":59,"time":209.52600831770832,"velocity":0.3937007874015748},{"duration":0.12295075000000111,"midi":57,"time":209.761663921875,"velocity":0.3937007874015748},{"duration":0.24590150000000222,"midi":54,"time":209.99731952604168,"velocity":0.3937007874015748},{"duration":0.12295075000000111,"midi":57,"time":210.24322102604168,"velocity":0.3937007874015748},{"duration":0.12295075000000111,"midi":59,"time":210.50449136979168,"velocity":0.3937007874015748},{"duration":0.12295075000000111,"midi":57,"time":210.75039286979168,"velocity":0.3937007874015748},{"duration":0.24590150000000222,"midi":54,"time":210.9860484739583,"velocity":0.3937007874015748},{"duration":0.12295075000000111,"midi":57,"time":211.2319499739583,"velocity":0.3937007874015748},{"duration":0.12295075000000111,"midi":59,"time":211.4932203177083,"velocity":0.3937007874015748},{"duration":0.12295075000000111,"midi":57,"time":211.7199107630208,"velocity":0.3937007874015748},{"duration":0.12295075000000111,"midi":54,"time":211.97605815885416,"velocity":0.3937007874015748},{"duration":0.24590150000000222,"midi":61,"time":212.7086397109375,"velocity":0.3937007874015748},{"duration":0.24590150000000222,"midi":62,"time":212.9545412109375,"velocity":0.3937007874015748},{"duration":0.12295075000000111,"midi":59,"time":213.21068860677082,"velocity":0.3937007874015748},{"duration":0.12295075000000111,"midi":57,"time":213.6922457109375,"velocity":0.3937007874015748},{"duration":0.12295075000000111,"midi":59,"time":214.1840487109375,"velocity":0.3937007874015748},{"duration":0.12295075000000111,"midi":59,"time":214.6912205546875,"velocity":0.3937007874015748},{"duration":0.12295074999997269,"midi":52,"time":215.17790060677083,"velocity":0.3937007874015748},{"duration":0.12295075000000111,"midi":54,"time":215.29060546093748,"velocity":0.3937007874015748},{"duration":0.12295075000000111,"midi":57,"time":215.4238021067708,"velocity":0.3937007874015748},{"duration":0.24590150000000222,"midi":57,"time":215.6697036067708,"velocity":0.3937007874015748},{"duration":0.24590150000000222,"midi":59,"time":215.9156051067708,"velocity":0.3937007874015748},{"duration":0.12295075000000111,"midi":57,"time":216.1615066067708,"velocity":0.3937007874015748},{"duration":0.24590150000000222,"midi":61,"time":216.65330960677082,"velocity":0.3937007874015748},{"duration":0.24590150000000222,"midi":62,"time":216.89408815885417,"velocity":0.3937007874015748},{"duration":0.12295075000000111,"midi":59,"time":217.14511260677082,"velocity":0.3937007874015748},{"duration":0.12295075000000111,"midi":57,"time":217.63179265885418,"velocity":0.3937007874015748},{"duration":0.12295075000000111,"midi":57,"time":218.12871860677083,"velocity":0.3937007874015748},{"duration":0.12295075000000111,"midi":57,"time":218.6205216067708,"velocity":0.3937007874015748},{"duration":0.12295075000000111,"midi":52,"time":219.1123246067708,"velocity":0.3937007874015748},{"duration":0.12295075000000111,"midi":54,"time":219.2250294609375,"velocity":0.3937007874015748},{"duration":0.12295075000000111,"midi":57,"time":219.35822610677081,"velocity":0.3937007874015748},{"duration":0.24590150000000222,"midi":57,"time":219.60412760677082,"velocity":0.3937007874015748},{"duration":0.24590150000000222,"midi":59,"time":219.85002910677082,"velocity":0.3937007874015748},{"duration":0.12295075000000111,"midi":57,"time":220.09593060677082,"velocity":0.3937007874015748},{"duration":0.24590150000000222,"midi":61,"time":220.5774877109375,"velocity":0.3937007874015748},{"duration":0.24590150000000222,"midi":62,"time":220.82851215885418,"velocity":0.3937007874015748},{"duration":0.12295075000000111,"midi":59,"time":221.0692907109375,"velocity":0.3937007874015748},{"duration":0.12295075000000111,"midi":57,"time":221.56109371093748,"velocity":0.3937007874015748},{"duration":0.12295075000000111,"midi":57,"time":222.0631426067708,"velocity":0.3937007874015748},{"duration":0.12295075000000111,"midi":57,"time":222.3090441067708,"velocity":0.3937007874015748},{"duration":0.12295075000000111,"midi":57,"time":222.5600685546875,"velocity":0.3937007874015748},{"duration":0.49180300000000443,"midi":56,"time":223.04674860677082,"velocity":0.3937007874015748},{"duration":0.12295075000000111,"midi":57,"time":223.5283057109375,"velocity":0.3937007874015748},{"duration":0.12295075000000111,"midi":57,"time":224.5067887630208,"velocity":0.3937007874015748},{"duration":0.24590150000000222,"midi":54,"time":224.7526902630208,"velocity":0.3937007874015748},{"duration":0.12295075000000111,"midi":57,"time":225.0037147109375,"velocity":0.3937007874015748},{"duration":0.12295075000000111,"midi":59,"time":225.2649850546875,"velocity":0.3937007874015748},{"duration":0.12295075000000111,"midi":57,"time":225.50064065885417,"velocity":0.3937007874015748},{"duration":0.24590150000000222,"midi":54,"time":225.73629626302082,"velocity":0.3937007874015748},{"duration":0.12295075000000111,"midi":57,"time":225.98219776302082,"velocity":0.3937007874015748},{"duration":0.12295075000000111,"midi":59,"time":226.24346810677082,"velocity":0.3937007874015748},{"duration":0.12295075000000111,"midi":57,"time":226.48936960677082,"velocity":0.3937007874015748},{"duration":0.24590150000000222,"midi":54,"time":226.7250252109375,"velocity":0.3937007874015748},{"duration":0.12295075000000111,"midi":57,"time":226.9709267109375,"velocity":0.3937007874015748},{"duration":0.12295075000000111,"midi":59,"time":227.2321970546875,"velocity":0.3937007874015748},{"duration":0.12295075000000111,"midi":57,"time":227.4588875,"velocity":0.3937007874015748},{"duration":0.12295075000000111,"midi":54,"time":227.71503489583333,"velocity":0.3937007874015748},{"duration":0.12295075000000111,"midi":61,"time":228.20683789583333,"velocity":0.3937007874015748},{"duration":0.12295074999997269,"midi":61,"time":228.45273939583333,"velocity":0.3937007874015748},{"duration":0.12295075000000111,"midi":59,"time":228.9445423958333,"velocity":0.3937007874015748},{"duration":0.12295075000000111,"midi":57,"time":229.43122244791667,"velocity":0.3937007874015748},{"duration":0.12295075000000111,"midi":59,"time":230.163804,"velocity":0.3937007874015748},{"duration":0.12295075000000111,"midi":59,"time":230.41995139583332,"velocity":0.3937007874015748},{"duration":0.491802999999976,"midi":56,"time":230.89126260416668,"velocity":0.3937007874015748},{"duration":0.12295075000000111,"midi":57,"time":231.39459223697918,"velocity":0.3937007874015748},{"duration":0.12295075000000111,"midi":61,"time":232.13741968489583,"velocity":0.3937007874015748},{"duration":0.12295075000000111,"midi":61,"time":232.39356708072918,"velocity":0.3937007874015748},{"duration":0.12295075000000111,"midi":59,"time":232.87000123697916,"velocity":0.3937007874015748},{"duration":0.24590150000000222,"midi":57,"time":233.34643539322917,"velocity":0.3937007874015748},{"duration":0.24590150000000222,"midi":59,"time":233.9868038828125,"velocity":0.3937007874015748},{"duration":0.12295075000000111,"midi":59,"time":234.3556561328125,"velocity":0.3937007874015748},{"duration":0.12295075000000111,"midi":59,"time":234.60668058072918,"velocity":0.3937007874015748},{"duration":0.49180300000000443,"midi":56,"time":234.85770502864582,"velocity":0.3937007874015748},{"duration":0.24590150000000222,"midi":57,"time":235.36487687239583,"velocity":0.3937007874015748},{"duration":0.12295075000000111,"midi":61,"time":236.07696663281249,"velocity":0.3937007874015748},{"duration":0.12295075000000111,"midi":61,"time":236.3331140286458,"velocity":0.3937007874015748},{"duration":0.12295075000000111,"midi":59,"time":236.8146711328125,"velocity":0.3937007874015748},{"duration":0.12295075000000111,"midi":57,"time":237.30135118489582,"velocity":0.3937007874015748},{"duration":0.12295075000000111,"midi":59,"time":237.7982771328125,"velocity":0.3937007874015748},{"duration":0.12295074999997269,"midi":59,"time":238.2747112890625,"velocity":0.3937007874015748},{"duration":0.49180300000000443,"midi":56,"time":238.76011060416667,"velocity":0.3937007874015748},{"duration":0.12295075000000111,"midi":60,"time":239.5042187890625,"velocity":0.3937007874015748},{"duration":0.12295075000000111,"midi":60,"time":239.63741543489581,"velocity":0.3937007874015748},{"duration":0.12295075000000111,"midi":59,"time":239.7347514453125,"velocity":0.3937007874015748},{"duration":0.12295075000000111,"midi":57,"time":239.8730710390625,"velocity":0.3937007874015748},{"duration":0.12295075000000111,"midi":59,"time":240.0113906328125,"velocity":0.3937007874015748},{"duration":1.229507500000011,"midi":57,"time":240.14458727864582,"velocity":0.3937007874015748}]},{"instrument":{"family":"drums","number":0,"name":"standard kit"},"notes":[{"duration":0.06147537500000011,"midi":69,"time":3.934424,"velocity":0.3937007874015748},{"duration":0.06147537500000011,"midi":61,"time":3.934424,"velocity":0.3937007874015748},{"duration":0.061475374999999666,"midi":69,"time":4.1854484479166665,"velocity":0.3937007874015748},{"duration":0.061475374999999666,"midi":61,"time":4.421104052083334,"velocity":0.3937007874015748},{"duration":0.061475375000000554,"midi":69,"time":4.431349947916666,"velocity":0.3937007874015748},{"duration":0.061475375000000554,"midi":69,"time":4.6721284999999995,"velocity":0.3937007874015748},{"duration":0.061475374999999666,"midi":61,"time":4.912907052083334,"velocity":0.3937007874015748},{"duration":0.061475374999999666,"midi":69,"time":4.91803,"velocity":0.3937007874015748},{"duration":0.061475375000000554,"midi":69,"time":5.158808552083333,"velocity":0.3937007874015748},{"duration":0.061475375000000554,"midi":61,"time":5.399587104166666,"velocity":0.3937007874015748},{"duration":0.061475374999999666,"midi":69,"time":5.404710052083334,"velocity":0.3937007874015748},{"duration":0.061475374999999666,"midi":69,"time":5.645488604166666,"velocity":0.3937007874015748},{"duration":0.061475374999999666,"midi":69,"time":5.896513052083334,"velocity":0.3937007874015748},{"duration":0.061475374999999666,"midi":61,"time":5.896513052083334,"velocity":0.3937007874015748},{"duration":0.061475375000000554,"midi":69,"time":6.142414552083333,"velocity":0.3937007874015748},{"duration":0.061475374999999666,"midi":69,"time":6.388316052083334,"velocity":0.3937007874015748},{"duration":0.061475374999999666,"midi":61,"time":6.388316052083334,"velocity":0.3937007874015748},{"duration":0.061475375000000554,"midi":69,"time":6.634217552083333,"velocity":0.3937007874015748},{"duration":0.061475374999999666,"midi":69,"time":6.880119052083334,"velocity":0.3937007874015748},{"duration":0.061475375000000554,"midi":61,"time":6.890364947916666,"velocity":0.3937007874015748},{"duration":0.061475375000000554,"midi":69,"time":7.126020552083333,"velocity":0.3937007874015748},{"duration":0.061475374999999666,"midi":61,"time":7.377045,"velocity":0.3937007874015748},{"duration":0.061475375000000554,"midi":69,"time":7.382167947916666,"velocity":0.3937007874015748},{"duration":0.061475375000000554,"midi":69,"time":7.617823552083333,"velocity":0.3937007874015748},{"duration":0.061475374999999666,"midi":61,"time":7.868848,"velocity":0.3937007874015748},{"duration":0.061475375000000554,"midi":69,"time":7.873970947916667,"velocity":0.3937007874015748},{"duration":0.06147537499999878,"midi":69,"time":8.1147495,"velocity":0.3937007874015748},{"duration":0.061475375000000554,"midi":61,"time":8.365773947916667,"velocity":0.3937007874015748},{"duration":0.061475375000000554,"midi":69,"time":8.365773947916667,"velocity":0.3937007874015748},{"duration":0.06147537499999878,"midi":69,"time":8.601429552083333,"velocity":0.3937007874015748},{"duration":0.061475375000000554,"midi":61,"time":8.847331052083332,"velocity":0.3937007874015748},{"duration":0.06147537499999878,"midi":69,"time":8.857576947916668,"velocity":0.3937007874015748},{"duration":0.061475375000000554,"midi":69,"time":9.093232552083332,"velocity":0.3937007874015748},{"duration":0.061475375000000554,"midi":61,"time":9.339134052083333,"velocity":0.3937007874015748},{"duration":0.061475375000000554,"midi":69,"time":9.344256999999999,"velocity":0.3937007874015748},{"duration":0.06147537499999878,"midi":69,"time":9.585035552083333,"velocity":0.3937007874015748},{"duration":0.06147537499999878,"midi":61,"time":9.825814104166668,"velocity":0.3937007874015748},{"duration":0.061475375000000554,"midi":69,"time":9.830937052083332,"velocity":0.3937007874015748},{"duration":0.061475375000000554,"midi":69,"time":10.076838552083332,"velocity":0.3937007874015748},{"duration":0.061475375000000554,"midi":69,"time":10.322740052083333,"velocity":0.3937007874015748},{"duration":0.061475375000000554,"midi":61,"time":10.322740052083333,"velocity":0.3937007874015748},{"duration":0.06147537499999878,"midi":69,"time":10.568641552083333,"velocity":0.3937007874015748},{"duration":0.061475375000000554,"midi":69,"time":10.814543052083332,"velocity":0.3937007874015748},{"duration":0.061475375000000554,"midi":61,"time":10.814543052083332,"velocity":0.3937007874015748},{"duration":0.061475375000000554,"midi":69,"time":11.060444552083332,"velocity":0.3937007874015748},{"duration":0.061475375000000554,"midi":61,"time":11.306346052083333,"velocity":0.3937007874015748},{"duration":0.061475375000000554,"midi":69,"time":11.306346052083333,"velocity":0.3937007874015748},{"duration":0.06147537499999878,"midi":69,"time":11.552247552083333,"velocity":0.3937007874015748},{"duration":0.061475375000000554,"midi":42,"time":11.798149052083332,"velocity":0.3937007874015748},{"duration":0.061475375000000554,"midi":69,"time":11.798149052083332,"velocity":0.3937007874015748},{"duration":0.061475375000000554,"midi":61,"time":11.803272,"velocity":0.3937007874015748},{"duration":0.061475375000000554,"midi":37,"time":11.803272,"velocity":0.3937007874015748},{"duration":0.061475375000000554,"midi":36,"time":11.803272,"velocity":0.3937007874015748},{"duration":0.06147537499999878,"midi":42,"time":11.921099802083333,"velocity":0.3937007874015748},{"duration":0.061475375000000554,"midi":42,"time":12.044050552083332,"velocity":0.3937007874015748},{"duration":0.061475375000000554,"midi":69,"time":12.044050552083332,"velocity":0.3937007874015748},{"duration":0.06147537499999878,"midi":42,"time":12.177247197916667,"velocity":0.3937007874015748},{"duration":0.061475375000000554,"midi":69,"time":12.289952052083333,"velocity":0.3937007874015748},{"duration":0.061475375000000554,"midi":61,"time":12.289952052083333,"velocity":0.3937007874015748},{"duration":0.061475375000000554,"midi":37,"time":12.300197947916667,"velocity":0.3937007874015748},{"duration":0.061475375000000554,"midi":42,"time":12.300197947916667,"velocity":0.3937007874015748},{"duration":0.061475375000000554,"midi":44,"time":12.428271645833332,"velocity":0.3937007874015748},{"duration":0.06147537499999878,"midi":69,"time":12.535853552083333,"velocity":0.3937007874015748},{"duration":0.06147537499999878,"midi":42,"time":12.535853552083333,"velocity":0.3937007874015748},{"duration":0.061475375000000554,"midi":42,"time":12.669050197916667,"velocity":0.3937007874015748},{"duration":0.061475375000000554,"midi":61,"time":12.781755052083332,"velocity":0.3937007874015748},{"duration":0.061475375000000554,"midi":69,"time":12.781755052083332,"velocity":0.3937007874015748},{"duration":0.06147537499999878,"midi":36,"time":12.792000947916668,"velocity":0.3937007874015748},{"duration":0.06147537499999878,"midi":37,"time":12.792000947916668,"velocity":0.3937007874015748},{"duration":0.06147537499999878,"midi":42,"time":12.792000947916668,"velocity":0.3937007874015748},{"duration":0.06147537499999878,"midi":44,"time":12.920074645833333,"velocity":0.3937007874015748},{"duration":0.061475375000000554,"midi":69,"time":13.027656552083332,"velocity":0.3937007874015748},{"duration":0.061475375000000554,"midi":42,"time":13.027656552083332,"velocity":0.3937007874015748},{"duration":0.06147537499999878,"midi":42,"time":13.160853197916667,"velocity":0.3937007874015748},{"duration":0.061475375000000554,"midi":37,"time":13.273558052083333,"velocity":0.3937007874015748},{"duration":0.061475375000000554,"midi":61,"time":13.273558052083333,"velocity":0.3937007874015748},{"duration":0.061475375000000554,"midi":69,"time":13.283803947916667,"velocity":0.3937007874015748},{"duration":0.061475375000000554,"midi":42,"time":13.283803947916667,"velocity":0.3937007874015748},{"duration":0.061475375000000554,"midi":44,"time":13.411877645833332,"velocity":0.3937007874015748},{"duration":0.06147537499999878,"midi":69,"time":13.519459552083333,"velocity":0.3937007874015748},{"duration":0.06147537499999878,"midi":42,"time":13.519459552083333,"velocity":0.3937007874015748},{"duration":0.061475375000000554,"midi":42,"time":13.652656197916667,"velocity":0.3937007874015748},{"duration":0.061475375000000554,"midi":36,"time":13.765361052083332,"velocity":0.3937007874015748},{"duration":0.061475375000000554,"midi":61,"time":13.765361052083332,"velocity":0.3937007874015748},{"duration":0.061475375000000554,"midi":37,"time":13.770484,"velocity":0.3937007874015748},{"duration":0.061475375000000554,"midi":69,"time":13.770484,"velocity":0.3937007874015748},{"duration":0.06147537499999878,"midi":42,"time":13.775606947916668,"velocity":0.3937007874015748},{"duration":0.061475375000000554,"midi":44,"time":13.898557697916667,"velocity":0.3937007874015748},{"duration":0.061475375000000554,"midi":69,"time":14.011262552083332,"velocity":0.3937007874015748},{"duration":0.06147537499999878,"midi":42,"time":14.0163855,"velocity":0.3937007874015748},{"duration":0.06147537499999878,"midi":42,"time":14.144459197916667,"velocity":0.3937007874015748},{"duration":0.061475375000000554,"midi":61,"time":14.252041104166667,"velocity":0.3937007874015748},{"duration":0.061475375000000554,"midi":37,"time":14.257164052083333,"velocity":0.3937007874015748},{"duration":0.061475375000000554,"midi":69,"time":14.257164052083333,"velocity":0.3937007874015748},{"duration":0.061475375000000554,"midi":42,"time":14.267409947916667,"velocity":0.3937007874015748},{"duration":0.061475375000000554,"midi":44,"time":14.395483645833332,"velocity":0.3937007874015748},{"duration":0.061475375000000554,"midi":69,"time":14.499223341145832,"velocity":0.3937007874015748},{"duration":0.06147537499999878,"midi":42,"time":14.5043462890625,"velocity":0.3937007874015748},{"duration":0.061475375000000554,"midi":42,"time":14.637542934895832,"velocity":0.3937007874015748},{"duration":0.061475375000000554,"midi":69,"time":14.745124841145833,"velocity":0.3937007874015748},{"duration":0.06147537499999878,"midi":37,"time":14.7502477890625,"velocity":0.3937007874015748},{"duration":0.06147537499999878,"midi":36,"time":14.7502477890625,"velocity":0.3937007874015748},{"duration":0.06147537499999878,"midi":61,"time":14.7502477890625,"velocity":0.3937007874015748},{"duration":0.06147537499999878,"midi":42,"time":14.760493684895833,"velocity":0.3937007874015748},{"duration":0.061475375000000554,"midi":44,"time":14.883444434895832,"velocity":0.3937007874015748},{"duration":0.061475375000000554,"midi":42,"time":14.9961492890625,"velocity":0.3937007874015748},{"duration":0.061475375000000554,"midi":42,"time":15.124222986979166,"velocity":0.3937007874015748},{"duration":0.061475375000000554,"midi":40,"time":15.2420507890625,"velocity":0.3937007874015748},{"duration":0.06147537499999878,"midi":42,"time":15.247173736979168,"velocity":0.3937007874015748},{"duration":0.061475375000000554,"midi":40,"time":15.365001539062499,"velocity":0.3937007874015748},{"duration":0.06147537499999878,"midi":40,"time":15.4879522890625,"velocity":0.3937007874015748},{"duration":0.061475375000000554,"midi":40,"time":15.6109030390625,"velocity":0.3937007874015748},{"duration":0.06147537500000233,"midi":57,"time":15.728730841145833,"velocity":0.3937007874015748},{"duration":0.06147537499999878,"midi":61,"time":15.7338537890625,"velocity":0.3937007874015748},{"duration":0.06147537499999878,"midi":42,"time":15.7338537890625,"velocity":0.3937007874015748},{"duration":0.061475375000000554,"midi":36,"time":15.738976736979165,"velocity":0.3937007874015748},{"duration":0.061475375000000554,"midi":42,"time":15.9797552890625,"velocity":0.3937007874015748},{"duration":0.061475375000000554,"midi":40,"time":16.220533841145834,"velocity":0.3937007874015748},{"duration":0.061475374999997,"midi":42,"time":16.2256567890625,"velocity":0.3937007874015748},{"duration":0.061475374999997,"midi":61,"time":16.2256567890625,"velocity":0.3937007874015748},{"duration":0.061475375000000554,"midi":42,"time":16.4715582890625,"velocity":0.3937007874015748},{"duration":0.061475375000000554,"midi":42,"time":16.7174597890625,"velocity":0.3937007874015748},{"duration":0.061475375000000554,"midi":36,"time":16.7174597890625,"velocity":0.3937007874015748},{"duration":0.061475375000000554,"midi":61,"time":16.7174597890625,"velocity":0.3937007874015748},{"duration":0.061475374999997,"midi":42,"time":16.9633612890625,"velocity":0.3937007874015748},{"duration":0.061475375000000554,"midi":40,"time":17.204139841145835,"velocity":0.3937007874015748},{"duration":0.061475375000000554,"midi":61,"time":17.2092627890625,"velocity":0.3937007874015748},{"duration":0.061475375000000554,"midi":42,"time":17.2092627890625,"velocity":0.3937007874015748},{"duration":0.061475375000000554,"midi":42,"time":17.4551642890625,"velocity":0.3937007874015748},{"duration":0.061475375000000554,"midi":42,"time":17.7010657890625,"velocity":0.3937007874015748},{"duration":0.061475375000000554,"midi":61,"time":17.706188736979165,"velocity":0.3937007874015748},{"duration":0.061475375000000554,"midi":36,"time":17.706188736979165,"velocity":0.3937007874015748},{"duration":0.061475375000000554,"midi":42,"time":17.941844341145835,"velocity":0.3937007874015748},{"duration":0.061475375000000554,"midi":61,"time":18.197991736979166,"velocity":0.3937007874015748},{"duration":0.061475375000000554,"midi":42,"time":18.197991736979166,"velocity":0.3937007874015748},{"duration":0.061475375000000554,"midi":40,"time":18.203114684895834,"velocity":0.3937007874015748},{"duration":0.061475375000000554,"midi":42,"time":18.4387702890625,"velocity":0.3937007874015748},{"duration":0.061475375000000554,"midi":42,"time":18.6846717890625,"velocity":0.3937007874015748},{"duration":0.061475375000000554,"midi":61,"time":18.6846717890625,"velocity":0.3937007874015748},{"duration":0.061475375000000554,"midi":36,"time":18.694917684895834,"velocity":0.3937007874015748},{"duration":0.061475374999997,"midi":42,"time":18.9305732890625,"velocity":0.3937007874015748},{"duration":0.061475375000000554,"midi":61,"time":19.171351841145835,"velocity":0.3937007874015748},{"duration":0.061475375000000554,"midi":40,"time":19.1764747890625,"velocity":0.3937007874015748},{"duration":0.061475375000000554,"midi":42,"time":19.1764747890625,"velocity":0.3937007874015748},{"duration":0.061475375000000554,"midi":42,"time":19.417253341145834,"velocity":0.3937007874015748},{"duration":0.061475375000000554,"midi":57,"time":19.663154841145833,"velocity":0.3937007874015748},{"duration":0.061475375000000554,"midi":42,"time":19.6682777890625,"velocity":0.3937007874015748},{"duration":0.061475375000000554,"midi":61,"time":19.6682777890625,"velocity":0.3937007874015748},{"duration":0.061475375000000554,"midi":36,"time":19.6682777890625,"velocity":0.3937007874015748},{"duration":0.061475375000000554,"midi":42,"time":19.909056341145835,"velocity":0.3937007874015748},{"duration":0.061475375000000554,"midi":40,"time":20.154957841145833,"velocity":0.3937007874015748},{"duration":0.061475375000000554,"midi":61,"time":20.154957841145833,"velocity":0.3937007874015748},{"duration":0.061475374999997,"midi":42,"time":20.1600807890625,"velocity":0.3937007874015748},{"duration":0.061475374999997,"midi":42,"time":20.400859341145836,"velocity":0.3937007874015748},{"duration":0.061475375000000554,"midi":61,"time":20.646760841145834,"velocity":0.3937007874015748},{"duration":0.061475375000000554,"midi":42,"time":20.6518837890625,"velocity":0.3937007874015748},{"duration":0.061475375000000554,"midi":36,"time":20.6518837890625,"velocity":0.3937007874015748},{"duration":0.061475375000000554,"midi":42,"time":20.892662341145833,"velocity":0.3937007874015748},{"duration":0.061475375000000554,"midi":40,"time":21.138563841145835,"velocity":0.3937007874015748},{"duration":0.061475375000000554,"midi":42,"time":21.1436867890625,"velocity":0.3937007874015748},{"duration":0.061475375000000554,"midi":61,"time":21.1436867890625,"velocity":0.3937007874015748},{"duration":0.061475375000000554,"midi":42,"time":21.384465341145834,"velocity":0.3937007874015748},{"duration":0.061475375000000554,"midi":42,"time":21.6354897890625,"velocity":0.3937007874015748},{"duration":0.061475375000000554,"midi":36,"time":21.640612736979165,"velocity":0.3937007874015748},{"duration":0.061475375000000554,"midi":57,"time":21.645735684895833,"velocity":0.3937007874015748},{"duration":0.061475375000000554,"midi":61,"time":21.645735684895833,"velocity":0.3937007874015748},{"duration":0.061475375000000554,"midi":42,"time":21.8813912890625,"velocity":0.3937007874015748},{"duration":0.061475374999997,"midi":42,"time":22.1272927890625,"velocity":0.3937007874015748},{"duration":0.061475374999997,"midi":40,"time":22.1272927890625,"velocity":0.3937007874015748},{"duration":0.061475375000000554,"midi":61,"time":22.132415736979166,"velocity":0.3937007874015748},{"duration":0.061475375000000554,"midi":42,"time":22.3731942890625,"velocity":0.3937007874015748},{"duration":0.061475375000000554,"midi":42,"time":22.6190957890625,"velocity":0.3937007874015748},{"duration":0.061475375000000554,"midi":61,"time":22.6190957890625,"velocity":0.3937007874015748},{"duration":0.061475375000000554,"midi":40,"time":22.629341684895834,"velocity":0.3937007874015748},{"duration":0.061475375000000554,"midi":36,"time":22.629341684895834,"velocity":0.3937007874015748},{"duration":0.061475375000000554,"midi":36,"time":23.6027017890625,"velocity":0.3937007874015748},{"duration":0.061475375000000554,"midi":42,"time":23.6027017890625,"velocity":0.3937007874015748},{"duration":0.061475375000000554,"midi":61,"time":23.607824736979165,"velocity":0.3937007874015748},{"duration":0.061475375000000554,"midi":42,"time":23.843480341145835,"velocity":0.3937007874015748},{"duration":0.061475375000000554,"midi":40,"time":24.089381841145833,"velocity":0.3937007874015748},{"duration":0.061475374999997,"midi":42,"time":24.0945047890625,"velocity":0.3937007874015748},{"duration":0.061475374999997,"midi":61,"time":24.0945047890625,"velocity":0.3937007874015748},{"duration":0.061475375000000554,"midi":61,"time":24.3404062890625,"velocity":0.3937007874015748},{"duration":0.061475375000000554,"midi":42,"time":24.3404062890625,"velocity":0.3937007874015748},{"duration":0.061475375000000554,"midi":36,"time":24.5863077890625,"velocity":0.3937007874015748},{"duration":0.061475375000000554,"midi":61,"time":24.5863077890625,"velocity":0.3937007874015748},{"duration":0.061475374999997,"midi":42,"time":24.591430736979166,"velocity":0.3937007874015748},{"duration":0.061475374999997,"midi":42,"time":24.8322092890625,"velocity":0.3937007874015748},{"duration":0.061475375000000554,"midi":42,"time":25.0781107890625,"velocity":0.3937007874015748},{"duration":0.061475375000000554,"midi":40,"time":25.0781107890625,"velocity":0.3937007874015748},{"duration":0.061475375000000554,"midi":61,"time":25.0781107890625,"velocity":0.3937007874015748},{"duration":0.061475375000000554,"midi":42,"time":25.324012289062498,"velocity":0.3937007874015748},{"duration":0.061475375000000554,"midi":61,"time":25.334258184895834,"velocity":0.3937007874015748},{"duration":0.061475375000000554,"midi":36,"time":25.334258184895834,"velocity":0.3937007874015748},{"duration":0.061475375000000554,"midi":42,"time":25.575036736979165,"velocity":0.3937007874015748},{"duration":0.061475375000000554,"midi":61,"time":25.580159684895833,"velocity":0.3937007874015748},{"duration":0.061475375000000554,"midi":36,"time":25.580159684895833,"velocity":0.3937007874015748},{"duration":0.061475375000000554,"midi":42,"time":25.8158152890625,"velocity":0.3937007874015748},{"duration":0.061475374999997,"midi":40,"time":26.0617167890625,"velocity":0.3937007874015748},{"duration":0.061475375000000554,"midi":61,"time":26.066839736979166,"velocity":0.3937007874015748},{"duration":0.061475375000000554,"midi":42,"time":26.066839736979166,"velocity":0.3937007874015748},{"duration":0.061475375000000554,"midi":42,"time":26.3076182890625,"velocity":0.3937007874015748},{"duration":0.061475375000000554,"midi":61,"time":26.3076182890625,"velocity":0.3937007874015748},{"duration":0.061475375000000554,"midi":61,"time":26.5535197890625,"velocity":0.3937007874015748},{"duration":0.061475374999997,"midi":42,"time":26.558642736979166,"velocity":0.3937007874015748},{"duration":0.061475374999997,"midi":36,"time":26.558642736979166,"velocity":0.3937007874015748},{"duration":0.061475374999997,"midi":61,"time":26.7994212890625,"velocity":0.3937007874015748},{"duration":0.061475374999997,"midi":42,"time":26.7994212890625,"velocity":0.3937007874015748},{"duration":0.061475375000000554,"midi":40,"time":27.0453227890625,"velocity":0.3937007874015748},{"duration":0.061475375000000554,"midi":42,"time":27.0453227890625,"velocity":0.3937007874015748},{"duration":0.061475375000000554,"midi":61,"time":27.0453227890625,"velocity":0.3937007874015748},{"duration":0.061475375000000554,"midi":61,"time":27.291224289062498,"velocity":0.3937007874015748},{"duration":0.061475375000000554,"midi":42,"time":27.291224289062498,"velocity":0.3937007874015748},{"duration":0.061475375000000554,"midi":36,"time":27.301470184895834,"velocity":0.3937007874015748},{"duration":0.061475375000000554,"midi":42,"time":27.5371257890625,"velocity":0.3937007874015748},{"duration":0.061475375000000554,"midi":61,"time":27.5371257890625,"velocity":0.3937007874015748},{"duration":0.061475375000000554,"midi":36,"time":27.547371684895833,"velocity":0.3937007874015748},{"duration":0.061475375000000554,"midi":42,"time":27.7830272890625,"velocity":0.3937007874015748},{"duration":0.061475374999997,"midi":40,"time":28.0289287890625,"velocity":0.3937007874015748},{"duration":0.061475375000000554,"midi":42,"time":28.034051736979166,"velocity":0.3937007874015748},{"duration":0.061475375000000554,"midi":61,"time":28.039174684895833,"velocity":0.3937007874015748},{"duration":0.061475375000000554,"midi":36,"time":28.2748302890625,"velocity":0.3937007874015748},{"duration":0.061475375000000554,"midi":42,"time":28.2748302890625,"velocity":0.3937007874015748},{"duration":0.061475374999997,"midi":61,"time":28.285076184895836,"velocity":0.3937007874015748},{"duration":0.061475375000000554,"midi":42,"time":28.5207317890625,"velocity":0.3937007874015748},{"duration":0.061475374999997,"midi":61,"time":28.525854736979166,"velocity":0.3937007874015748},{"duration":0.061475375000000554,"midi":36,"time":28.530977684895834,"velocity":0.3937007874015748},{"duration":0.061475375000000554,"midi":42,"time":28.761510341145833,"velocity":0.3937007874015748},{"duration":0.061475375000000554,"midi":42,"time":29.0125347890625,"velocity":0.3937007874015748},{"duration":0.061475375000000554,"midi":40,"time":29.0125347890625,"velocity":0.3937007874015748},{"duration":0.061475375000000554,"midi":61,"time":29.0125347890625,"velocity":0.3937007874015748},{"duration":0.061475375000000554,"midi":61,"time":29.258436289062498,"velocity":0.3937007874015748},{"duration":0.061475375000000554,"midi":42,"time":29.263559236979166,"velocity":0.3937007874015748},{"duration":0.061475375000000554,"midi":61,"time":29.5043377890625,"velocity":0.3937007874015748},{"duration":0.061475375000000554,"midi":42,"time":29.5043377890625,"velocity":0.3937007874015748},{"duration":0.061475375000000554,"midi":36,"time":29.514583684895833,"velocity":0.3937007874015748},{"duration":0.061475375000000554,"midi":42,"time":29.7502392890625,"velocity":0.3937007874015748},{"duration":0.061475374999997,"midi":42,"time":29.9961407890625,"velocity":0.3937007874015748},{"duration":0.061475375000000554,"midi":61,"time":30.006386684895833,"velocity":0.3937007874015748},{"duration":0.061475375000000554,"midi":40,"time":30.006386684895833,"velocity":0.3937007874015748},{"duration":0.061475374999997,"midi":42,"time":30.236919341145835,"velocity":0.3937007874015748},{"duration":0.061475375000000554,"midi":61,"time":30.247165236979164,"velocity":0.3937007874015748},{"duration":0.061475375000000554,"midi":42,"time":30.4879437890625,"velocity":0.3937007874015748},{"duration":0.061475375000000554,"midi":61,"time":30.498189684895834,"velocity":0.3937007874015748},{"duration":0.061475375000000554,"midi":36,"time":30.498189684895834,"velocity":0.3937007874015748},{"duration":0.061475374999997,"midi":42,"time":30.7338452890625,"velocity":0.3937007874015748},{"duration":0.061475374999997,"midi":61,"time":30.7338452890625,"velocity":0.3937007874015748},{"duration":0.061475375000000554,"midi":61,"time":30.9797467890625,"velocity":0.3937007874015748},{"duration":0.061475375000000554,"midi":42,"time":30.9797467890625,"velocity":0.3937007874015748},{"duration":0.061475375000000554,"midi":40,"time":30.9797467890625,"velocity":0.3937007874015748},{"duration":0.061475375000000554,"midi":36,"time":31.225648289062498,"velocity":0.3937007874015748},{"duration":0.061475375000000554,"midi":42,"time":31.225648289062498,"velocity":0.3937007874015748},{"duration":0.061475375000000554,"midi":61,"time":31.225648289062498,"velocity":0.3937007874015748},{"duration":0.061475375000000554,"midi":61,"time":31.4715497890625,"velocity":0.3937007874015748},{"duration":0.061475375000000554,"midi":42,"time":31.476672736979168,"velocity":0.3937007874015748},{"duration":0.061475375000000554,"midi":36,"time":31.476672736979168,"velocity":0.3937007874015748},{"duration":0.061475375000000554,"midi":42,"time":31.7174512890625,"velocity":0.3937007874015748},{"duration":0.061475374999997,"midi":61,"time":31.9633527890625,"velocity":0.3937007874015748},{"duration":0.061475374999997,"midi":40,"time":31.9633527890625,"velocity":0.3937007874015748},{"duration":0.061475374999997,"midi":42,"time":31.96847573697917,"velocity":0.3937007874015748},{"duration":0.061475375000000554,"midi":61,"time":32.20413134114583,"velocity":0.3937007874015748},{"duration":0.061475375000000554,"midi":42,"time":32.2092542890625,"velocity":0.3937007874015748},{"duration":0.061475375000000554,"midi":61,"time":32.4551557890625,"velocity":0.3937007874015748},{"duration":0.061475375000000554,"midi":42,"time":32.4551557890625,"velocity":0.3937007874015748},{"duration":0.061475375000000554,"midi":36,"time":32.46027873697917,"velocity":0.3937007874015748},{"duration":0.061475375000000554,"midi":42,"time":32.7010572890625,"velocity":0.3937007874015748},{"duration":0.061475375000000554,"midi":42,"time":32.9469587890625,"velocity":0.3937007874015748},{"duration":0.061475375000000554,"midi":40,"time":32.95208173697917,"velocity":0.3937007874015748},{"duration":0.061475375000000554,"midi":61,"time":32.95720468489583,"velocity":0.3937007874015748},{"duration":0.061475375000000554,"midi":42,"time":33.1928602890625,"velocity":0.3937007874015748},{"duration":0.061475375000000554,"midi":36,"time":33.1928602890625,"velocity":0.3937007874015748},{"duration":0.061475375000000554,"midi":61,"time":33.19798323697917,"velocity":0.3937007874015748},{"duration":0.061475375000000554,"midi":42,"time":33.4387617890625,"velocity":0.3937007874015748},{"duration":0.061475375000000554,"midi":61,"time":33.44900768489583,"velocity":0.3937007874015748},{"duration":0.061475375000000554,"midi":36,"time":33.4541306328125,"velocity":0.3937007874015748},{"duration":0.061475375000000554,"midi":42,"time":33.680821078125,"velocity":0.3937007874015748},{"duration":0.061475375000000554,"midi":40,"time":33.93184552604167,"velocity":0.3937007874015748},{"duration":0.061475375000000554,"midi":42,"time":33.93184552604167,"velocity":0.3937007874015748},{"duration":0.061475375000000554,"midi":61,"time":33.942091421875,"velocity":0.3937007874015748},{"duration":0.061475375000000554,"midi":61,"time":34.177747026041665,"velocity":0.3937007874015748},{"duration":0.061475375000000554,"midi":42,"time":34.177747026041665,"velocity":0.3937007874015748},{"duration":0.061475375000000554,"midi":61,"time":34.42364852604167,"velocity":0.3937007874015748},{"duration":0.061475375000000554,"midi":36,"time":34.42364852604167,"velocity":0.3937007874015748},{"duration":0.061475375000000554,"midi":42,"time":34.433894421874996,"velocity":0.3937007874015748},{"duration":0.061475375000000554,"midi":61,"time":34.66955002604167,"velocity":0.3937007874015748},{"duration":0.061475375000000554,"midi":42,"time":34.66955002604167,"velocity":0.3937007874015748},{"duration":0.061475375000000554,"midi":40,"time":34.910328578125,"velocity":0.3937007874015748},{"duration":0.06147537499999345,"midi":61,"time":34.91545152604167,"velocity":0.3937007874015748},{"duration":0.06147537499999345,"midi":42,"time":34.91545152604167,"velocity":0.3937007874015748},{"duration":0.061475375000000554,"midi":42,"time":35.156230078125,"velocity":0.3937007874015748},{"duration":0.061475375000000554,"midi":36,"time":35.156230078125,"velocity":0.3937007874015748},{"duration":0.061475375000000554,"midi":61,"time":35.156230078125,"velocity":0.3937007874015748},{"duration":0.061475375000000554,"midi":61,"time":35.402131578125,"velocity":0.3937007874015748},{"duration":0.061475375000000554,"midi":42,"time":35.40725452604167,"velocity":0.3937007874015748},{"duration":0.061475375000000554,"midi":36,"time":35.40725452604167,"velocity":0.3937007874015748},{"duration":0.061475375000000554,"midi":42,"time":35.65315602604167,"velocity":0.3937007874015748},{"duration":0.061475375000000554,"midi":40,"time":35.893934578125,"velocity":0.3937007874015748},{"duration":0.061475375000000554,"midi":42,"time":35.899057526041666,"velocity":0.3937007874015748},{"duration":0.061475375000000554,"midi":61,"time":35.899057526041666,"velocity":0.3937007874015748},{"duration":0.061475375000000554,"midi":61,"time":36.139836078125,"velocity":0.3937007874015748},{"duration":0.061475375000000554,"midi":42,"time":36.14495902604167,"velocity":0.3937007874015748},{"duration":0.061475375000000554,"midi":61,"time":36.39086052604167,"velocity":0.3937007874015748},{"duration":0.061475375000000554,"midi":36,"time":36.39086052604167,"velocity":0.3937007874015748},{"duration":0.061475375000000554,"midi":42,"time":36.39598347395833,"velocity":0.3937007874015748},{"duration":0.061475375000000554,"midi":42,"time":36.631639078125,"velocity":0.3937007874015748},{"duration":0.061475375000000554,"midi":42,"time":36.877540578125,"velocity":0.3937007874015748},{"duration":0.061475375000000554,"midi":61,"time":36.88266352604167,"velocity":0.3937007874015748},{"duration":0.061475375000000554,"midi":40,"time":36.88266352604167,"velocity":0.3937007874015748},{"duration":0.06147537499999345,"midi":42,"time":37.123442078125,"velocity":0.3937007874015748},{"duration":0.061475375000000554,"midi":61,"time":37.12856502604167,"velocity":0.3937007874015748},{"duration":0.061475375000000554,"midi":42,"time":37.369343578125,"velocity":0.3937007874015748},{"duration":0.061475375000000554,"midi":36,"time":37.374466526041665,"velocity":0.3937007874015748},{"duration":0.061475375000000554,"midi":61,"time":37.37958947395833,"velocity":0.3937007874015748},{"duration":0.061475375000000554,"midi":42,"time":37.615245078125,"velocity":0.3937007874015748},{"duration":0.061475375000000554,"midi":42,"time":37.861146578125,"velocity":0.3937007874015748},{"duration":0.061475375000000554,"midi":61,"time":37.86626952604167,"velocity":0.3937007874015748},{"duration":0.061475375000000554,"midi":40,"time":37.86626952604167,"velocity":0.3937007874015748},{"duration":0.061475375000000554,"midi":42,"time":38.107048078125,"velocity":0.3937007874015748},{"duration":0.061475375000000554,"midi":40,"time":38.112171026041665,"velocity":0.3937007874015748},{"duration":0.061475375000000554,"midi":61,"time":38.112171026041665,"velocity":0.3937007874015748},{"duration":0.061475375000000554,"midi":40,"time":38.235121776041666,"velocity":0.3937007874015748},{"duration":0.061475375000000554,"midi":42,"time":38.352949578125,"velocity":0.3937007874015748},{"duration":0.061475375000000554,"midi":61,"time":38.35807252604167,"velocity":0.3937007874015748},{"duration":0.061475375000000554,"midi":36,"time":38.368318421874996,"velocity":0.3937007874015748},{"duration":0.061475375000000554,"midi":40,"time":38.860121421875,"velocity":0.3937007874015748},{"duration":0.061475375000000554,"midi":42,"time":39.351924421875,"velocity":0.3937007874015748},{"duration":0.061475375000000554,"midi":36,"time":39.351924421875,"velocity":0.3937007874015748},{"duration":0.061475375000000554,"midi":61,"time":39.351924421875,"velocity":0.3937007874015748},{"duration":0.061475375000000554,"midi":42,"time":39.597825921875,"velocity":0.3937007874015748},{"duration":0.061475375000000554,"midi":40,"time":39.833481526041666,"velocity":0.3937007874015748},{"duration":0.061475375000000554,"midi":61,"time":39.83860447395833,"velocity":0.3937007874015748},{"duration":0.061475375000000554,"midi":42,"time":39.83860447395833,"velocity":0.3937007874015748},{"duration":0.061475375000000554,"midi":42,"time":40.07938302604167,"velocity":0.3937007874015748},{"duration":0.061475375000000554,"midi":61,"time":40.07938302604167,"velocity":0.3937007874015748},{"duration":0.061475375000000554,"midi":36,"time":40.089628921875,"velocity":0.3937007874015748},{"duration":0.061475375000000554,"midi":42,"time":40.32528452604167,"velocity":0.3937007874015748},{"duration":0.061475375000000554,"midi":61,"time":40.335530421875,"velocity":0.3937007874015748},{"duration":0.061475375000000554,"midi":36,"time":40.566063078125,"velocity":0.3937007874015748},{"duration":0.061475375000000554,"midi":42,"time":40.571186026041666,"velocity":0.3937007874015748},{"duration":0.061475375000000554,"midi":40,"time":40.81708752604167,"velocity":0.3937007874015748},{"duration":0.061475375000000554,"midi":42,"time":40.81708752604167,"velocity":0.3937007874015748},{"duration":0.061475375000000554,"midi":61,"time":40.827333421875,"velocity":0.3937007874015748},{"duration":0.061475375000000554,"midi":42,"time":41.06298902604167,"velocity":0.3937007874015748},{"duration":0.061475375000000554,"midi":36,"time":41.06298902604167,"velocity":0.3937007874015748},{"duration":0.061475375000000554,"midi":61,"time":41.06298902604167,"velocity":0.3937007874015748},{"duration":0.061475375000000554,"midi":42,"time":41.308890526041665,"velocity":0.3937007874015748},{"duration":0.061475375000000554,"midi":36,"time":41.308890526041665,"velocity":0.3937007874015748},{"duration":0.061475375000000554,"midi":61,"time":41.308890526041665,"velocity":0.3937007874015748},{"duration":0.061475375000000554,"midi":42,"time":41.55479202604167,"velocity":0.3937007874015748},{"duration":0.061475375000000554,"midi":36,"time":41.55479202604167,"velocity":0.3937007874015748},{"duration":0.061475375000000554,"midi":40,"time":41.80069352604167,"velocity":0.3937007874015748},{"duration":0.061475375000000554,"midi":61,"time":41.80069352604167,"velocity":0.3937007874015748},{"duration":0.061475375000000554,"midi":42,"time":41.80069352604167,"velocity":0.3937007874015748},{"duration":0.061475375000000554,"midi":36,"time":42.041472078125,"velocity":0.3937007874015748},{"duration":0.061475375000000554,"midi":42,"time":42.046595026041665,"velocity":0.3937007874015748},{"duration":0.061475375000000554,"midi":61,"time":42.046595026041665,"velocity":0.3937007874015748},{"duration":0.061475375000000554,"midi":61,"time":42.29249652604167,"velocity":0.3937007874015748},{"duration":0.061475375000000554,"midi":42,"time":42.29249652604167,"velocity":0.3937007874015748},{"duration":0.061475375000000554,"midi":36,"time":42.29249652604167,"velocity":0.3937007874015748},{"duration":0.061475375000000554,"midi":61,"time":42.533275078125,"velocity":0.3937007874015748},{"duration":0.061475375000000554,"midi":42,"time":42.53839802604167,"velocity":0.3937007874015748},{"duration":0.061475375000000554,"midi":40,"time":42.779176578124996,"velocity":0.3937007874015748},{"duration":0.06147537499999345,"midi":61,"time":42.78429952604167,"velocity":0.3937007874015748},{"duration":0.061475375000000554,"midi":42,"time":42.78942247395833,"velocity":0.3937007874015748},{"duration":0.061475375000000554,"midi":61,"time":43.03020102604167,"velocity":0.3937007874015748},{"duration":0.061475375000000554,"midi":42,"time":43.03020102604167,"velocity":0.3937007874015748},{"duration":0.061475375000000554,"midi":36,"time":43.27610252604167,"velocity":0.3937007874015748},{"duration":0.061475375000000554,"midi":42,"time":43.27610252604167,"velocity":0.3937007874015748},{"duration":0.061475375000000554,"midi":61,"time":43.27610252604167,"velocity":0.3937007874015748},{"duration":0.061475375000000554,"midi":42,"time":43.516881078124996,"velocity":0.3937007874015748},{"duration":0.061475375000000554,"midi":40,"time":43.762782578125,"velocity":0.3937007874015748},{"duration":0.061475375000000554,"midi":61,"time":43.767905526041666,"velocity":0.3937007874015748},{"duration":0.061475375000000554,"midi":42,"time":43.767905526041666,"velocity":0.3937007874015748},{"duration":0.061475375000000554,"midi":61,"time":44.01380702604167,"velocity":0.3937007874015748},{"duration":0.061475375000000554,"midi":42,"time":44.01380702604167,"velocity":0.3937007874015748},{"duration":0.061475375000000554,"midi":36,"time":44.01380702604167,"velocity":0.3937007874015748},{"duration":0.061475375000000554,"midi":42,"time":44.25970852604167,"velocity":0.3937007874015748},{"duration":0.061475375000000554,"midi":61,"time":44.25970852604167,"velocity":0.3937007874015748},{"duration":0.061475375000000554,"midi":36,"time":44.500487078125,"velocity":0.3937007874015748},{"duration":0.061475375000000554,"midi":42,"time":44.505610026041666,"velocity":0.3937007874015748},{"duration":0.061475375000000554,"midi":40,"time":44.75151152604167,"velocity":0.3937007874015748},{"duration":0.061475375000000554,"midi":42,"time":44.75151152604167,"velocity":0.3937007874015748},{"duration":0.061475375000000554,"midi":61,"time":44.75663447395833,"velocity":0.3937007874015748},{"duration":0.06147537499999345,"midi":42,"time":44.992290078125,"velocity":0.3937007874015748},{"duration":0.061475375000000554,"midi":36,"time":44.99741302604167,"velocity":0.3937007874015748},{"duration":0.061475375000000554,"midi":61,"time":44.99741302604167,"velocity":0.3937007874015748},{"duration":0.061475375000000554,"midi":61,"time":45.243314526041665,"velocity":0.3937007874015748},{"duration":0.061475375000000554,"midi":42,"time":45.243314526041665,"velocity":0.3937007874015748},{"duration":0.061475375000000554,"midi":36,"time":45.253560421875,"velocity":0.3937007874015748},{"duration":0.061475375000000554,"midi":42,"time":45.48921602604167,"velocity":0.3937007874015748},{"duration":0.061475375000000554,"midi":36,"time":45.49433897395833,"velocity":0.3937007874015748},{"duration":0.061475375000000554,"midi":61,"time":45.729994578125,"velocity":0.3937007874015748},{"duration":0.061475375000000554,"midi":40,"time":45.73511752604167,"velocity":0.3937007874015748},{"duration":0.061475375000000554,"midi":42,"time":45.73511752604167,"velocity":0.3937007874015748},{"duration":0.061475375000000554,"midi":61,"time":45.981019026041665,"velocity":0.3937007874015748},{"duration":0.061475375000000554,"midi":42,"time":45.991264921875,"velocity":0.3937007874015748},{"duration":0.061475375000000554,"midi":36,"time":45.991264921875,"velocity":0.3937007874015748},{"duration":0.061475375000000554,"midi":61,"time":46.22692052604167,"velocity":0.3937007874015748},{"duration":0.061475375000000554,"midi":36,"time":46.237166421874996,"velocity":0.3937007874015748},{"duration":0.061475375000000554,"midi":42,"time":46.237166421874996,"velocity":0.3937007874015748},{"duration":0.061475375000000554,"midi":61,"time":46.467699078125,"velocity":0.3937007874015748},{"duration":0.061475375000000554,"midi":42,"time":46.483067921875,"velocity":0.3937007874015748},{"duration":0.06147537499999345,"midi":61,"time":46.71872352604167,"velocity":0.3937007874015748},{"duration":0.061475375000000554,"midi":40,"time":46.72384647395833,"velocity":0.3937007874015748},{"duration":0.061475375000000554,"midi":42,"time":46.728969421875,"velocity":0.3937007874015748},{"duration":0.061475375000000554,"midi":61,"time":46.964625026041666,"velocity":0.3937007874015748},{"duration":0.06147537499999345,"midi":42,"time":46.974870921875,"velocity":0.3937007874015748},{"duration":0.061475375000000554,"midi":36,"time":47.21052652604167,"velocity":0.3937007874015748},{"duration":0.061475375000000554,"midi":42,"time":47.220772421875,"velocity":0.3937007874015748},{"duration":0.061475375000000554,"midi":61,"time":47.220772421875,"velocity":0.3937007874015748},{"duration":0.061475375000000554,"midi":42,"time":47.46155097395833,"velocity":0.3937007874015748},{"duration":0.061475375000000554,"midi":40,"time":47.702329526041666,"velocity":0.3937007874015748},{"duration":0.061475375000000554,"midi":42,"time":47.712575421875,"velocity":0.3937007874015748},{"duration":0.061475375000000554,"midi":61,"time":47.712575421875,"velocity":0.3937007874015748},{"duration":0.061475375000000554,"midi":61,"time":47.94823102604167,"velocity":0.3937007874015748},{"duration":0.061475375000000554,"midi":42,"time":47.94823102604167,"velocity":0.3937007874015748},{"duration":0.061475375000000554,"midi":36,"time":47.95335397395833,"velocity":0.3937007874015748},{"duration":0.061475375000000554,"midi":42,"time":48.19413252604167,"velocity":0.3937007874015748},{"duration":0.061475375000000554,"midi":61,"time":48.19925547395833,"velocity":0.3937007874015748},{"duration":0.061475375000000554,"midi":42,"time":48.434911078125,"velocity":0.3937007874015748},{"duration":0.061475375000000554,"midi":36,"time":48.440034026041666,"velocity":0.3937007874015748},{"duration":0.061475375000000554,"midi":61,"time":48.680812578125,"velocity":0.3937007874015748},{"duration":0.061475375000000554,"midi":40,"time":48.68593552604167,"velocity":0.3937007874015748},{"duration":0.061475375000000554,"midi":42,"time":48.68593552604167,"velocity":0.3937007874015748},{"duration":0.06147537499999345,"midi":42,"time":48.926714078125,"velocity":0.3937007874015748},{"duration":0.061475375000000554,"midi":61,"time":48.93183702604167,"velocity":0.3937007874015748},{"duration":0.061475375000000554,"midi":36,"time":48.93695997395833,"velocity":0.3937007874015748},{"duration":0.061475375000000554,"midi":42,"time":49.172615578125,"velocity":0.3937007874015748},{"duration":0.061475375000000554,"midi":61,"time":49.177738526041665,"velocity":0.3937007874015748},{"duration":0.061475375000000554,"midi":36,"time":49.187984421875,"velocity":0.3937007874015748},{"duration":0.061475375000000554,"midi":42,"time":49.418517078125,"velocity":0.3937007874015748},{"duration":0.061475375000000554,"midi":36,"time":49.433885921874996,"velocity":0.3937007874015748},{"duration":0.061475375000000554,"midi":42,"time":49.66954152604167,"velocity":0.3937007874015748},{"duration":0.061475375000000554,"midi":61,"time":49.679787421875,"velocity":0.3937007874015748},{"duration":0.061475375000000554,"midi":40,"time":49.679787421875,"velocity":0.3937007874015748},{"duration":0.061475375000000554,"midi":42,"time":49.915443026041665,"velocity":0.3937007874015748},{"duration":0.061475375000000554,"midi":61,"time":49.92056597395833,"velocity":0.3937007874015748},{"duration":0.061475375000000554,"midi":36,"time":49.925688921875,"velocity":0.3937007874015748},{"duration":0.061475375000000554,"midi":42,"time":50.16134452604167,"velocity":0.3937007874015748},{"duration":0.061475375000000554,"midi":61,"time":50.171590421874996,"velocity":0.3937007874015748},{"duration":0.061475375000000554,"midi":36,"time":50.17671336979167,"velocity":0.3937007874015748},{"duration":0.061475375000000554,"midi":42,"time":50.40724602604167,"velocity":0.3937007874015748},{"duration":0.061475375000000554,"midi":61,"time":50.40724602604167,"velocity":0.3937007874015748},{"duration":0.06147537499999345,"midi":61,"time":50.65314752604167,"velocity":0.3937007874015748},{"duration":0.06147537499999345,"midi":40,"time":50.65314752604167,"velocity":0.3937007874015748},{"duration":0.06147537499999345,"midi":42,"time":50.65314752604167,"velocity":0.3937007874015748},{"duration":0.061475375000000554,"midi":42,"time":50.893926078125,"velocity":0.3937007874015748},{"duration":0.061475375000000554,"midi":61,"time":50.899049026041666,"velocity":0.3937007874015748},{"duration":0.061475375000000554,"midi":42,"time":51.139827578125,"velocity":0.3937007874015748},{"duration":0.061475375000000554,"midi":36,"time":51.15007347395833,"velocity":0.3937007874015748},{"duration":0.061475375000000554,"midi":61,"time":51.15007347395833,"velocity":0.3937007874015748},{"duration":0.061475375000000554,"midi":42,"time":51.385729078124996,"velocity":0.3937007874015748},{"duration":0.061475375000000554,"midi":42,"time":51.636753526041666,"velocity":0.3937007874015748},{"duration":0.061475375000000554,"midi":40,"time":51.636753526041666,"velocity":0.3937007874015748},{"duration":0.061475375000000554,"midi":61,"time":51.646999421875,"velocity":0.3937007874015748},{"duration":0.061475375000000554,"midi":42,"time":51.877532078125,"velocity":0.3937007874015748},{"duration":0.061475375000000554,"midi":61,"time":51.88777797395833,"velocity":0.3937007874015748},{"duration":0.06147537499999345,"midi":42,"time":52.123433578125,"velocity":0.3937007874015748},{"duration":0.061475375000000554,"midi":61,"time":52.12855652604167,"velocity":0.3937007874015748},{"duration":0.061475375000000554,"midi":36,"time":52.12855652604167,"velocity":0.3937007874015748},{"duration":0.061475375000000554,"midi":42,"time":52.369335078125,"velocity":0.3937007874015748},{"duration":0.061475375000000554,"midi":42,"time":52.615236578125,"velocity":0.3937007874015748},{"duration":0.061475375000000554,"midi":61,"time":52.62035952604167,"velocity":0.3937007874015748},{"duration":0.061475375000000554,"midi":40,"time":52.62035952604167,"velocity":0.3937007874015748},{"duration":0.06147537499999345,"midi":42,"time":52.861138078125,"velocity":0.3937007874015748},{"duration":0.06147537499999345,"midi":61,"time":52.861138078125,"velocity":0.3937007874015748},{"duration":0.061475375000000554,"midi":42,"time":53.107039578125,"velocity":0.3937007874015748},{"duration":0.061475375000000554,"midi":61,"time":53.112162526041665,"velocity":0.3937007874015748},{"duration":0.061475375000000554,"midi":36,"time":53.11728547395833,"velocity":0.3937007874015748},{"duration":0.061475375000000554,"midi":36,"time":53.35806402604167,"velocity":0.3937007874015748},{"duration":0.061475375000000554,"midi":42,"time":53.35806402604167,"velocity":0.3937007874015748},{"duration":0.061475375000000554,"midi":61,"time":53.60396552604167,"velocity":0.3937007874015748},{"duration":0.061475375000000554,"midi":42,"time":53.60396552604167,"velocity":0.3937007874015748},{"duration":0.061475375000000554,"midi":40,"time":53.60396552604167,"velocity":0.3937007874015748},{"duration":0.061475375000000554,"midi":61,"time":53.849867026041665,"velocity":0.3937007874015748},{"duration":0.061475375000000554,"midi":42,"time":53.849867026041665,"velocity":0.3937007874015748},{"duration":0.061475375000000554,"midi":36,"time":53.849867026041665,"velocity":0.3937007874015748},{"duration":0.061475375000000554,"midi":61,"time":54.09576852604167,"velocity":0.3937007874015748},{"duration":0.061475375000000554,"midi":42,"time":54.09576852604167,"velocity":0.3937007874015748},{"duration":0.061475375000000554,"midi":36,"time":54.10089147395833,"velocity":0.3937007874015748},{"duration":0.061475375000000554,"midi":61,"time":54.34167002604167,"velocity":0.3937007874015748},{"duration":0.061475375000000554,"midi":42,"time":54.34167002604167,"velocity":0.3937007874015748},{"duration":0.061475375000000554,"midi":40,"time":54.46462077604167,"velocity":0.3937007874015748},{"duration":0.06147537499999345,"midi":40,"time":54.58757152604167,"velocity":0.3937007874015748},{"duration":0.06147537499999345,"midi":42,"time":54.58757152604167,"velocity":0.3937007874015748},{"duration":0.06147537499999345,"midi":61,"time":54.58757152604167,"velocity":0.3937007874015748},{"duration":0.061475375000000554,"midi":40,"time":54.833473026041666,"velocity":0.3937007874015748},{"duration":0.061475375000000554,"midi":42,"time":55.07937452604167,"velocity":0.3937007874015748},{"duration":0.061475375000000554,"midi":36,"time":55.07937452604167,"velocity":0.3937007874015748},{"duration":0.061475375000000554,"midi":61,"time":55.07937452604167,"velocity":0.3937007874015748},{"duration":0.061475375000000554,"midi":42,"time":55.32527602604167,"velocity":0.3937007874015748},{"duration":0.061475375000000554,"midi":39,"time":55.571177526041666,"velocity":0.3937007874015748},{"duration":0.061475375000000554,"midi":40,"time":55.571177526041666,"velocity":0.3937007874015748},{"duration":0.061475375000000554,"midi":61,"time":55.571177526041666,"velocity":0.3937007874015748},{"duration":0.061475375000000554,"midi":42,"time":55.571177526041666,"velocity":0.3937007874015748},{"duration":0.061475375000000554,"midi":36,"time":55.81707902604167,"velocity":0.3937007874015748},{"duration":0.061475375000000554,"midi":61,"time":55.81707902604167,"velocity":0.3937007874015748},{"duration":0.061475375000000554,"midi":42,"time":55.81707902604167,"velocity":0.3937007874015748},{"duration":0.061475375000000554,"midi":61,"time":56.06298052604167,"velocity":0.3937007874015748},{"duration":0.061475375000000554,"midi":42,"time":56.06298052604167,"velocity":0.3937007874015748},{"duration":0.061475375000000554,"midi":36,"time":56.073226421875,"velocity":0.3937007874015748},{"duration":0.061475375000000554,"midi":42,"time":56.308882026041665,"velocity":0.3937007874015748},{"duration":0.06147537499999345,"midi":36,"time":56.442078671875,"velocity":0.3937007874015748},{"duration":0.061475375000000554,"midi":39,"time":56.55478352604167,"velocity":0.3937007874015748},{"duration":0.061475375000000554,"midi":42,"time":56.55478352604167,"velocity":0.3937007874015748},{"duration":0.061475375000000554,"midi":40,"time":56.565029421874996,"velocity":0.3937007874015748},{"duration":0.061475375000000554,"midi":61,"time":56.565029421874996,"velocity":0.3937007874015748},{"duration":0.061475375000000554,"midi":42,"time":56.80068502604167,"velocity":0.3937007874015748},{"duration":0.061475375000000554,"midi":61,"time":56.80580797395833,"velocity":0.3937007874015748},{"duration":0.061475375000000554,"midi":36,"time":56.810930921875,"velocity":0.3937007874015748},{"duration":0.061475375000000554,"midi":42,"time":57.046586526041665,"velocity":0.3937007874015748},{"duration":0.061475375000000554,"midi":36,"time":57.056832421875,"velocity":0.3937007874015748},{"duration":0.061475375000000554,"midi":61,"time":57.056832421875,"velocity":0.3937007874015748},{"duration":0.061475375000000554,"midi":42,"time":57.29248802604167,"velocity":0.3937007874015748},{"duration":0.061475375000000554,"midi":39,"time":57.53838952604167,"velocity":0.3937007874015748},{"duration":0.061475375000000554,"midi":40,"time":57.54351247395833,"velocity":0.3937007874015748},{"duration":0.061475375000000554,"midi":61,"time":57.548635421875,"velocity":0.3937007874015748},{"duration":0.061475375000000554,"midi":42,"time":57.548635421875,"velocity":0.3937007874015748},{"duration":0.061475375000000554,"midi":42,"time":57.784291026041664,"velocity":0.3937007874015748},{"duration":0.061475375000000554,"midi":61,"time":57.78941397395833,"velocity":0.3937007874015748},{"duration":0.061475375000000554,"midi":42,"time":58.03019252604167,"velocity":0.3937007874015748},{"duration":0.061475375000000554,"midi":36,"time":58.03531547395833,"velocity":0.3937007874015748},{"duration":0.061475375000000554,"midi":61,"time":58.040438421874995,"velocity":0.3937007874015748},{"duration":0.061475375000000554,"midi":42,"time":58.27609402604167,"velocity":0.3937007874015748},{"duration":0.06147537499999345,"midi":39,"time":58.52199552604167,"velocity":0.3937007874015748},{"duration":0.06147537499999345,"midi":40,"time":58.52199552604167,"velocity":0.3937007874015748},{"duration":0.061475375000000554,"midi":61,"time":58.52711847395833,"velocity":0.3937007874015748},{"duration":0.061475375000000554,"midi":42,"time":58.532241421875,"velocity":0.3937007874015748},{"duration":0.061475375000000554,"midi":42,"time":58.77301997395833,"velocity":0.3937007874015748},{"duration":0.061475375000000554,"midi":36,"time":59.01379852604167,"velocity":0.3937007874015748},{"duration":0.061475375000000554,"midi":42,"time":59.01892147395833,"velocity":0.3937007874015748},{"duration":0.061475375000000554,"midi":61,"time":59.024044421875,"velocity":0.3937007874015748},{"duration":0.061475375000000554,"midi":42,"time":59.25970002604167,"velocity":0.3937007874015748},{"duration":0.061475375000000554,"midi":61,"time":59.500478578125,"velocity":0.3937007874015748},{"duration":0.061475375000000554,"midi":40,"time":59.505601526041666,"velocity":0.3937007874015748},{"duration":0.061475375000000554,"midi":42,"time":59.505601526041666,"velocity":0.3937007874015748},{"duration":0.061475375000000554,"midi":39,"time":59.505601526041666,"velocity":0.3937007874015748},{"duration":0.061475375000000554,"midi":61,"time":59.75150302604167,"velocity":0.3937007874015748},{"duration":0.061475375000000554,"midi":42,"time":59.75150302604167,"velocity":0.3937007874015748},{"duration":0.061475375000000554,"midi":36,"time":59.75150302604167,"velocity":0.3937007874015748},{"duration":0.061475375000000554,"midi":42,"time":59.99740452604167,"velocity":0.3937007874015748},{"duration":0.061475375000000554,"midi":61,"time":60.00252747395833,"velocity":0.3937007874015748},{"duration":0.061475375000000554,"midi":36,"time":60.007650421875,"velocity":0.3937007874015748},{"duration":0.061475375000000554,"midi":42,"time":60.243306026041665,"velocity":0.3937007874015748},{"duration":0.061475375000000554,"midi":36,"time":60.366256776041666,"velocity":0.3937007874015748},{"duration":0.061475375000000554,"midi":39,"time":60.484084578125,"velocity":0.3937007874015748},{"duration":0.061475375000000554,"midi":61,"time":60.48920752604167,"velocity":0.3937007874015748},{"duration":0.061475375000000554,"midi":42,"time":60.48920752604167,"velocity":0.3937007874015748},{"duration":0.061475375000000554,"midi":40,"time":60.49433047395833,"velocity":0.3937007874015748},{"duration":0.061475375000000554,"midi":42,"time":60.73510902604167,"velocity":0.3937007874015748},{"duration":0.061475375000000554,"midi":36,"time":60.74023197395833,"velocity":0.3937007874015748},{"duration":0.061475375000000554,"midi":61,"time":60.745354921875,"velocity":0.3937007874015748},{"duration":0.061475375000000554,"midi":42,"time":60.981010526041665,"velocity":0.3937007874015748},{"duration":0.061475375000000554,"midi":36,"time":60.991256421875,"velocity":0.3937007874015748},{"duration":0.061475375000000554,"midi":61,"time":60.991256421875,"velocity":0.3937007874015748},{"duration":0.061475375000000554,"midi":42,"time":61.22691202604167,"velocity":0.3937007874015748},{"duration":0.061475375000000554,"midi":39,"time":61.467690578125,"velocity":0.3937007874015748},{"duration":0.061475375000000554,"midi":40,"time":61.47281352604167,"velocity":0.3937007874015748},{"duration":0.061475375000000554,"midi":61,"time":61.47281352604167,"velocity":0.3937007874015748},{"duration":0.061475375000000554,"midi":42,"time":61.47793647395833,"velocity":0.3937007874015748},{"duration":0.061475375000000554,"midi":61,"time":61.72383797395833,"velocity":0.3937007874015748},{"duration":0.061475375000000554,"midi":42,"time":61.728960921875,"velocity":0.3937007874015748},{"duration":0.061475375000000554,"midi":36,"time":61.96461652604167,"velocity":0.3937007874015748},{"duration":0.061475375000000554,"midi":42,"time":61.96461652604167,"velocity":0.3937007874015748},{"duration":0.061475375000000554,"midi":61,"time":61.97998536979167,"velocity":0.3937007874015748},{"duration":0.061475375000000554,"midi":42,"time":62.21051802604167,"velocity":0.3937007874015748},{"duration":0.06147537499999345,"midi":39,"time":62.45641952604167,"velocity":0.3937007874015748},{"duration":0.06147537499999345,"midi":61,"time":62.45641952604167,"velocity":0.3937007874015748},{"duration":0.06147537499999345,"midi":42,"time":62.45641952604167,"velocity":0.3937007874015748},{"duration":0.06147537499999345,"midi":40,"time":62.45641952604167,"velocity":0.3937007874015748},{"duration":0.061475375000000554,"midi":42,"time":62.702321026041666,"velocity":0.3937007874015748},{"duration":0.06147537499999345,"midi":36,"time":62.94822252604167,"velocity":0.3937007874015748},{"duration":0.06147537499999345,"midi":42,"time":62.94822252604167,"velocity":0.3937007874015748},{"duration":0.061475375000000554,"midi":61,"time":62.958468421875,"velocity":0.3937007874015748},{"duration":0.061475375000000554,"midi":42,"time":63.19412402604166,"velocity":0.3937007874015748},{"duration":0.061475375000000554,"midi":40,"time":63.44002552604166,"velocity":0.3937007874015748},{"duration":0.061475375000000554,"midi":39,"time":63.44002552604166,"velocity":0.3937007874015748},{"duration":0.061475375000000554,"midi":61,"time":63.44002552604166,"velocity":0.3937007874015748},{"duration":0.061475375000000554,"midi":42,"time":63.445148473958334,"velocity":0.3937007874015748},{"duration":0.061475375000000554,"midi":36,"time":63.68592702604166,"velocity":0.3937007874015748},{"duration":0.061475375000000554,"midi":61,"time":63.691049973958336,"velocity":0.3937007874015748},{"duration":0.061475375000000554,"midi":42,"time":63.696172921875,"velocity":0.3937007874015748},{"duration":0.06147537499999345,"midi":61,"time":63.942074421875,"velocity":0.3937007874015748},{"duration":0.06147537499999345,"midi":42,"time":63.942074421875,"velocity":0.3937007874015748},{"duration":0.06147537499999345,"midi":36,"time":63.942074421875,"velocity":0.3937007874015748},{"duration":0.061475375000000554,"midi":42,"time":64.17773002604166,"velocity":0.3937007874015748},{"duration":0.061475375000000554,"midi":36,"time":64.310926671875,"velocity":0.3937007874015748},{"duration":0.061475375000000554,"midi":61,"time":64.42363152604166,"velocity":0.3937007874015748},{"duration":0.061475375000000554,"midi":42,"time":64.42875447395834,"velocity":0.3937007874015748},{"duration":0.061475375000000554,"midi":40,"time":64.433877421875,"velocity":0.3937007874015748},{"duration":0.061475375000000554,"midi":39,"time":64.433877421875,"velocity":0.3937007874015748},{"duration":0.061475375000000554,"midi":61,"time":64.67465597395834,"velocity":0.3937007874015748},{"duration":0.061475375000000554,"midi":42,"time":64.679778921875,"velocity":0.3937007874015748},{"duration":0.061475375000000554,"midi":36,"time":64.679778921875,"velocity":0.3937007874015748},{"duration":0.061475375000000554,"midi":42,"time":64.91543452604166,"velocity":0.3937007874015748},{"duration":0.061475375000000554,"midi":36,"time":64.925680421875,"velocity":0.3937007874015748},{"duration":0.061475375000000554,"midi":61,"time":64.925680421875,"velocity":0.3937007874015748},{"duration":0.061475375000000554,"midi":42,"time":65.171581921875,"velocity":0.3937007874015748},{"duration":0.061475375000000554,"midi":39,"time":65.40723752604165,"velocity":0.3937007874015748},{"duration":0.061475375000000554,"midi":61,"time":65.40723752604165,"velocity":0.3937007874015748},{"duration":0.061475375000000554,"midi":42,"time":65.417483421875,"velocity":0.3937007874015748},{"duration":0.061475375000000554,"midi":40,"time":65.417483421875,"velocity":0.3937007874015748},{"duration":0.061475375000000554,"midi":61,"time":65.65313902604166,"velocity":0.3937007874015748},{"duration":0.061475375000000554,"midi":42,"time":65.65826197395833,"velocity":0.3937007874015748},{"duration":0.061475375000000554,"midi":42,"time":65.90416347395833,"velocity":0.3937007874015748},{"duration":0.061475375000000554,"midi":36,"time":65.909286421875,"velocity":0.3937007874015748},{"duration":0.061475375000000554,"midi":61,"time":65.909286421875,"velocity":0.3937007874015748},{"duration":0.061475375000000554,"midi":42,"time":66.14494202604166,"velocity":0.3937007874015748},{"duration":0.061475375000000554,"midi":39,"time":66.39084352604166,"velocity":0.3937007874015748},{"duration":0.061475375000000554,"midi":42,"time":66.39084352604166,"velocity":0.3937007874015748},{"duration":0.061475375000000554,"midi":40,"time":66.39084352604166,"velocity":0.3937007874015748},{"duration":0.061475375000000554,"midi":61,"time":66.39084352604166,"velocity":0.3937007874015748},{"duration":0.061475375000000554,"midi":42,"time":66.63674502604167,"velocity":0.3937007874015748},{"duration":0.061475375000000554,"midi":61,"time":66.88264652604165,"velocity":0.3937007874015748},{"duration":0.061475375000000554,"midi":36,"time":66.88264652604165,"velocity":0.3937007874015748},{"duration":0.061475375000000554,"midi":42,"time":66.88264652604165,"velocity":0.3937007874015748},{"duration":0.061475375000000554,"midi":42,"time":67.12854802604166,"velocity":0.3937007874015748},{"duration":0.061475375000000554,"midi":61,"time":67.37444952604166,"velocity":0.3937007874015748},{"duration":0.061475375000000554,"midi":42,"time":67.37444952604166,"velocity":0.3937007874015748},{"duration":0.061475375000000554,"midi":40,"time":67.37444952604166,"velocity":0.3937007874015748},{"duration":0.061475375000000554,"midi":61,"time":67.62035102604166,"velocity":0.3937007874015748},{"duration":0.061475375000000554,"midi":42,"time":67.62035102604166,"velocity":0.3937007874015748},{"duration":0.061475375000000554,"midi":61,"time":67.86625252604166,"velocity":0.3937007874015748},{"duration":0.061475375000000554,"midi":42,"time":67.86625252604166,"velocity":0.3937007874015748},{"duration":0.061475375000000554,"midi":36,"time":67.876498421875,"velocity":0.3937007874015748},{"duration":0.061475375000000554,"midi":42,"time":68.11215402604167,"velocity":0.3937007874015748},{"duration":0.06147537499998634,"midi":61,"time":68.35805552604167,"velocity":0.3937007874015748},{"duration":0.06147537499998634,"midi":42,"time":68.35805552604167,"velocity":0.3937007874015748},{"duration":0.06147537499998634,"midi":40,"time":68.35805552604167,"velocity":0.3937007874015748},{"duration":0.061475375000000554,"midi":42,"time":68.60395702604166,"velocity":0.3937007874015748},{"duration":0.061475375000000554,"midi":61,"time":68.60907997395833,"velocity":0.3937007874015748},{"duration":0.061475375000000554,"midi":42,"time":68.84985852604166,"velocity":0.3937007874015748},{"duration":0.061475375000000554,"midi":36,"time":68.85498147395833,"velocity":0.3937007874015748},{"duration":0.061475375000000554,"midi":61,"time":68.860104421875,"velocity":0.3937007874015748},{"duration":0.061475375000000554,"midi":42,"time":69.09576002604166,"velocity":0.3937007874015748},{"duration":0.061475375000000554,"midi":61,"time":69.34166152604166,"velocity":0.3937007874015748},{"duration":0.061475375000000554,"midi":42,"time":69.34166152604166,"velocity":0.3937007874015748},{"duration":0.061475375000000554,"midi":40,"time":69.34166152604166,"velocity":0.3937007874015748},{"duration":0.061475375000000554,"midi":61,"time":69.58756302604166,"velocity":0.3937007874015748},{"duration":0.061475375000000554,"midi":42,"time":69.58756302604166,"velocity":0.3937007874015748},{"duration":0.061475375000000554,"midi":45,"time":69.83346452604167,"velocity":0.3937007874015748},{"duration":0.061475375000000554,"midi":42,"time":69.83346452604167,"velocity":0.3937007874015748},{"duration":0.061475375000000554,"midi":40,"time":69.83346452604167,"velocity":0.3937007874015748},{"duration":0.061475375000000554,"midi":61,"time":69.843710421875,"velocity":0.3937007874015748},{"duration":0.061475375000000554,"midi":40,"time":70.07936602604165,"velocity":0.3937007874015748},{"duration":0.061475375000000554,"midi":45,"time":70.07936602604165,"velocity":0.3937007874015748},{"duration":0.061475375000000554,"midi":61,"time":70.089611921875,"velocity":0.3937007874015748},{"duration":0.061475375000000554,"midi":45,"time":70.33551342187499,"velocity":0.3937007874015748},{"duration":0.061475375000000554,"midi":40,"time":70.33551342187499,"velocity":0.3937007874015748},{"duration":0.061475375000000554,"midi":61,"time":70.33551342187499,"velocity":0.3937007874015748},{"duration":0.061475375000000554,"midi":42,"time":70.81707052604166,"velocity":0.3937007874015748},{"duration":0.061475375000000554,"midi":36,"time":70.81707052604166,"velocity":0.3937007874015748},{"duration":0.061475375000000554,"midi":57,"time":70.81707052604166,"velocity":0.3937007874015748},{"duration":0.061475375000000554,"midi":61,"time":70.827316421875,"velocity":0.3937007874015748},{"duration":0.061475375000000554,"midi":42,"time":71.06297202604166,"velocity":0.3937007874015748},{"duration":0.061475375000000554,"midi":40,"time":71.319119421875,"velocity":0.3937007874015748},{"duration":0.061475375000000554,"midi":61,"time":71.319119421875,"velocity":0.3937007874015748},{"duration":0.061475375000000554,"midi":42,"time":71.319119421875,"velocity":0.3937007874015748},{"duration":0.061475375000000554,"midi":42,"time":71.55477502604165,"velocity":0.3937007874015748},{"duration":0.061475375000000554,"midi":61,"time":71.565020921875,"velocity":0.3937007874015748},{"duration":0.061475375000000554,"midi":42,"time":71.80067652604166,"velocity":0.3937007874015748},{"duration":0.061475375000000554,"midi":36,"time":71.80067652604166,"velocity":0.3937007874015748},{"duration":0.061475375000000554,"midi":61,"time":71.81092242187499,"velocity":0.3937007874015748},{"duration":0.061475375000000554,"midi":42,"time":72.041455078125,"velocity":0.3937007874015748},{"duration":0.061475375000000554,"midi":40,"time":72.29247952604166,"velocity":0.3937007874015748},{"duration":0.061475375000000554,"midi":61,"time":72.29247952604166,"velocity":0.3937007874015748},{"duration":0.061475375000000554,"midi":42,"time":72.29247952604166,"velocity":0.3937007874015748},{"duration":0.061475375000000554,"midi":42,"time":72.533258078125,"velocity":0.3937007874015748},{"duration":0.061475375000000554,"midi":61,"time":72.53838102604166,"velocity":0.3937007874015748},{"duration":0.061475375000000554,"midi":36,"time":72.78428252604166,"velocity":0.3937007874015748},{"duration":0.061475375000000554,"midi":42,"time":72.78428252604166,"velocity":0.3937007874015748},{"duration":0.061475375000000554,"midi":61,"time":72.78428252604166,"velocity":0.3937007874015748},{"duration":0.061475375000000554,"midi":42,"time":73.02506107812499,"velocity":0.3937007874015748},{"duration":0.061475375000000554,"midi":42,"time":73.27608552604165,"velocity":0.3937007874015748},{"duration":0.061475375000000554,"midi":40,"time":73.27608552604165,"velocity":0.3937007874015748},{"duration":0.061475375000000554,"midi":61,"time":73.28120847395833,"velocity":0.3937007874015748},{"duration":0.061475375000000554,"midi":61,"time":73.52198702604166,"velocity":0.3937007874015748},{"duration":0.061475375000000554,"midi":42,"time":73.52198702604166,"velocity":0.3937007874015748},{"duration":0.061475375000000554,"midi":42,"time":73.76788852604166,"velocity":0.3937007874015748},{"duration":0.061475375000000554,"midi":36,"time":73.77301147395833,"velocity":0.3937007874015748},{"duration":0.061475375000000554,"midi":61,"time":73.778134421875,"velocity":0.3937007874015748},{"duration":0.061475375000000554,"midi":42,"time":74.008667078125,"velocity":0.3937007874015748},{"duration":0.061475375000000554,"midi":42,"time":74.254568578125,"velocity":0.3937007874015748},{"duration":0.061475375000000554,"midi":40,"time":74.26481447395834,"velocity":0.3937007874015748},{"duration":0.061475375000000554,"midi":61,"time":74.269937421875,"velocity":0.3937007874015748},{"duration":0.06147537499998634,"midi":42,"time":74.500470078125,"velocity":0.3937007874015748},{"duration":0.061475375000000554,"midi":42,"time":74.746371578125,"velocity":0.3937007874015748},{"duration":0.061475375000000554,"midi":61,"time":74.761740421875,"velocity":0.3937007874015748},{"duration":0.061475375000000554,"midi":36,"time":74.761740421875,"velocity":0.3937007874015748},{"duration":0.061475375000000554,"midi":42,"time":74.992273078125,"velocity":0.3937007874015748},{"duration":0.061475375000000554,"midi":42,"time":75.238174578125,"velocity":0.3937007874015748},{"duration":0.061475375000000554,"midi":61,"time":75.24329752604166,"velocity":0.3937007874015748},{"duration":0.061475375000000554,"midi":40,"time":75.24329752604166,"velocity":0.3937007874015748},{"duration":0.061475375000000554,"midi":42,"time":75.484076078125,"velocity":0.3937007874015748},{"duration":0.061475375000000554,"midi":61,"time":75.48919902604166,"velocity":0.3937007874015748},{"duration":0.061475375000000554,"midi":42,"time":75.729977578125,"velocity":0.3937007874015748},{"duration":0.061475375000000554,"midi":61,"time":75.73510052604166,"velocity":0.3937007874015748},{"duration":0.061475375000000554,"midi":36,"time":75.73510052604166,"velocity":0.3937007874015748},{"duration":0.061475375000000554,"midi":42,"time":75.991247921875,"velocity":0.3937007874015748},{"duration":0.061475375000000554,"midi":42,"time":76.22178057812499,"velocity":0.3937007874015748},{"duration":0.06147537499998634,"midi":61,"time":76.22690352604167,"velocity":0.3937007874015748},{"duration":0.06147537499998634,"midi":40,"time":76.22690352604167,"velocity":0.3937007874015748},{"duration":0.061475375000000554,"midi":42,"time":76.467682078125,"velocity":0.3937007874015748},{"duration":0.061475375000000554,"midi":61,"time":76.47280502604166,"velocity":0.3937007874015748},{"duration":0.061475375000000554,"midi":42,"time":76.713583578125,"velocity":0.3937007874015748},{"duration":0.061475375000000554,"midi":61,"time":76.71870652604166,"velocity":0.3937007874015748},{"duration":0.061475375000000554,"midi":36,"time":76.71870652604166,"velocity":0.3937007874015748},{"duration":0.061475375000000554,"midi":42,"time":76.959485078125,"velocity":0.3937007874015748},{"duration":0.061475375000000554,"midi":42,"time":77.205386578125,"velocity":0.3937007874015748},{"duration":0.061475375000000554,"midi":61,"time":77.21050952604166,"velocity":0.3937007874015748},{"duration":0.061475375000000554,"midi":40,"time":77.21050952604166,"velocity":0.3937007874015748},{"duration":0.061475375000000554,"midi":42,"time":77.451288078125,"velocity":0.3937007874015748},{"duration":0.061475375000000554,"midi":61,"time":77.45641102604166,"velocity":0.3937007874015748},{"duration":0.06147537499998634,"midi":42,"time":77.697189578125,"velocity":0.3937007874015748},{"duration":0.061475375000000554,"midi":61,"time":77.70231252604167,"velocity":0.3937007874015748},{"duration":0.061475375000000554,"midi":36,"time":77.70231252604167,"velocity":0.3937007874015748},{"duration":0.061475375000000554,"midi":42,"time":77.943091078125,"velocity":0.3937007874015748},{"duration":0.061475375000000554,"midi":61,"time":77.94821402604165,"velocity":0.3937007874015748},{"duration":0.061475375000000554,"midi":42,"time":78.188992578125,"velocity":0.3937007874015748},{"duration":0.061475375000000554,"midi":40,"time":78.19411552604166,"velocity":0.3937007874015748},{"duration":0.061475375000000554,"midi":61,"time":78.19411552604166,"velocity":0.3937007874015748},{"duration":0.061475375000000554,"midi":42,"time":78.434894078125,"velocity":0.3937007874015748},{"duration":0.061475375000000554,"midi":61,"time":78.44001702604166,"velocity":0.3937007874015748},{"duration":0.061475375000000554,"midi":42,"time":78.680795578125,"velocity":0.3937007874015748},{"duration":0.061475375000000554,"midi":36,"time":78.68591852604166,"velocity":0.3937007874015748},{"duration":0.061475375000000554,"midi":61,"time":78.696164421875,"velocity":0.3937007874015748},{"duration":0.061475375000000554,"midi":42,"time":78.926697078125,"velocity":0.3937007874015748},{"duration":0.061475375000000554,"midi":42,"time":79.17772152604167,"velocity":0.3937007874015748},{"duration":0.061475375000000554,"midi":40,"time":79.17772152604167,"velocity":0.3937007874015748},{"duration":0.061475375000000554,"midi":61,"time":79.18284447395834,"velocity":0.3937007874015748},{"duration":0.061475375000000554,"midi":42,"time":79.42362302604165,"velocity":0.3937007874015748},{"duration":0.061475375000000554,"midi":61,"time":79.42362302604165,"velocity":0.3937007874015748},{"duration":0.061475375000000554,"midi":61,"time":79.66952452604166,"velocity":0.3937007874015748},{"duration":0.061475375000000554,"midi":42,"time":79.66952452604166,"velocity":0.3937007874015748},{"duration":0.061475375000000554,"midi":36,"time":79.66952452604166,"velocity":0.3937007874015748},{"duration":0.061475375000000554,"midi":42,"time":79.910303078125,"velocity":0.3937007874015748},{"duration":0.061475375000000554,"midi":42,"time":80.156204578125,"velocity":0.3937007874015748},{"duration":0.061475375000000554,"midi":40,"time":80.171573421875,"velocity":0.3937007874015748},{"duration":0.061475375000000554,"midi":61,"time":80.171573421875,"velocity":0.3937007874015748},{"duration":0.061475375000000554,"midi":42,"time":80.402106078125,"velocity":0.3937007874015748},{"duration":0.061475375000000554,"midi":61,"time":80.40722902604166,"velocity":0.3937007874015748},{"duration":0.061475375000000554,"midi":42,"time":80.648007578125,"velocity":0.3937007874015748},{"duration":0.061475375000000554,"midi":61,"time":80.65313052604166,"velocity":0.3937007874015748},{"duration":0.061475375000000554,"midi":36,"time":80.663376421875,"velocity":0.3937007874015748},{"duration":0.061475375000000554,"midi":42,"time":80.89390907812499,"velocity":0.3937007874015748},{"duration":0.061475375000000554,"midi":42,"time":81.139810578125,"velocity":0.3937007874015748},{"duration":0.061475375000000554,"midi":40,"time":81.14493352604165,"velocity":0.3937007874015748},{"duration":0.061475375000000554,"midi":61,"time":81.14493352604165,"velocity":0.3937007874015748},{"duration":0.061475375000000554,"midi":42,"time":81.385712078125,"velocity":0.3937007874015748},{"duration":0.061475375000000554,"midi":61,"time":81.39083502604166,"velocity":0.3937007874015748},{"duration":0.061475375000000554,"midi":42,"time":81.631613578125,"velocity":0.3937007874015748},{"duration":0.061475375000000554,"midi":36,"time":81.63673652604166,"velocity":0.3937007874015748},{"duration":0.061475375000000554,"midi":61,"time":81.646982421875,"velocity":0.3937007874015748},{"duration":0.061475375000000554,"midi":42,"time":81.877515078125,"velocity":0.3937007874015748},{"duration":0.061475375000000554,"midi":40,"time":82.12853952604166,"velocity":0.3937007874015748},{"duration":0.061475375000000554,"midi":42,"time":82.12853952604166,"velocity":0.3937007874015748},{"duration":0.061475375000000554,"midi":61,"time":82.12853952604166,"velocity":0.3937007874015748},{"duration":0.06147537499998634,"midi":42,"time":82.369318078125,"velocity":0.3937007874015748},{"duration":0.061475375000000554,"midi":42,"time":82.615219578125,"velocity":0.3937007874015748},{"duration":0.061475375000000554,"midi":61,"time":82.62034252604165,"velocity":0.3937007874015748},{"duration":0.061475375000000554,"midi":36,"time":82.62034252604165,"velocity":0.3937007874015748},{"duration":0.061475375000000554,"midi":42,"time":82.861121078125,"velocity":0.3937007874015748},{"duration":0.061475375000000554,"midi":42,"time":83.107022578125,"velocity":0.3937007874015748},{"duration":0.061475375000000554,"midi":40,"time":83.11214552604166,"velocity":0.3937007874015748},{"duration":0.061475375000000554,"midi":61,"time":83.11214552604166,"velocity":0.3937007874015748},{"duration":0.061475375000000554,"midi":42,"time":83.35804702604166,"velocity":0.3937007874015748},{"duration":0.061475375000000554,"midi":61,"time":83.35804702604166,"velocity":0.3937007874015748},{"duration":0.061475375000000554,"midi":61,"time":83.60394852604166,"velocity":0.3937007874015748},{"duration":0.061475375000000554,"midi":42,"time":83.60394852604166,"velocity":0.3937007874015748},{"duration":0.061475375000000554,"midi":36,"time":83.60394852604166,"velocity":0.3937007874015748},{"duration":0.061475375000000554,"midi":42,"time":83.84985002604166,"velocity":0.3937007874015748},{"duration":0.06147537499998634,"midi":42,"time":84.09575152604167,"velocity":0.3937007874015748},{"duration":0.06147537499998634,"midi":40,"time":84.09575152604167,"velocity":0.3937007874015748},{"duration":0.06147537499998634,"midi":61,"time":84.09575152604167,"velocity":0.3937007874015748},{"duration":0.061475375000000554,"midi":61,"time":84.34165302604166,"velocity":0.3937007874015748},{"duration":0.061475375000000554,"midi":42,"time":84.34165302604166,"velocity":0.3937007874015748},{"duration":0.061475375000000554,"midi":42,"time":84.58755452604166,"velocity":0.3937007874015748},{"duration":0.061475375000000554,"midi":61,"time":84.597800421875,"velocity":0.3937007874015748},{"duration":0.061475375000000554,"midi":36,"time":84.597800421875,"velocity":0.3937007874015748},{"duration":0.061475375000000554,"midi":42,"time":84.83345602604166,"velocity":0.3937007874015748},{"duration":0.061475375000000554,"midi":42,"time":85.07935752604166,"velocity":0.3937007874015748},{"duration":0.061475375000000554,"midi":40,"time":85.089603421875,"velocity":0.3937007874015748},{"duration":0.061475375000000554,"midi":61,"time":85.089603421875,"velocity":0.3937007874015748},{"duration":0.061475375000000554,"midi":42,"time":85.32525902604166,"velocity":0.3937007874015748},{"duration":0.061475375000000554,"midi":61,"time":85.335504921875,"velocity":0.3937007874015748},{"duration":0.061475375000000554,"midi":42,"time":85.57116052604167,"velocity":0.3937007874015748},{"duration":0.061475375000000554,"midi":36,"time":85.57628347395834,"velocity":0.3937007874015748},{"duration":0.061475375000000554,"midi":61,"time":85.581406421875,"velocity":0.3937007874015748},{"duration":0.061475375000000554,"midi":40,"time":86.03734878645834,"velocity":0.3937007874015748},{"duration":0.061475375000000554,"midi":42,"time":86.057840578125,"velocity":0.3937007874015748},{"duration":0.061475375000000554,"midi":40,"time":86.06296352604166,"velocity":0.3937007874015748},{"duration":0.061475375000000554,"midi":61,"time":86.06808647395833,"velocity":0.3937007874015748},{"duration":0.061475375000000554,"midi":42,"time":86.55476652604166,"velocity":0.3937007874015748},{"duration":0.061475375000000554,"midi":36,"time":86.55476652604166,"velocity":0.3937007874015748},{"duration":0.061475375000000554,"midi":61,"time":86.55988947395834,"velocity":0.3937007874015748},{"duration":0.061475375000000554,"midi":42,"time":86.795545078125,"velocity":0.3937007874015748},{"duration":0.061475375000000554,"midi":40,"time":87.041446578125,"velocity":0.3937007874015748},{"duration":0.061475375000000554,"midi":61,"time":87.04656952604167,"velocity":0.3937007874015748},{"duration":0.061475375000000554,"midi":42,"time":87.04656952604167,"velocity":0.3937007874015748},{"duration":0.061475375000000554,"midi":42,"time":87.29247102604165,"velocity":0.3937007874015748},{"duration":0.061475375000000554,"midi":61,"time":87.29247102604165,"velocity":0.3937007874015748},{"duration":0.061475375000000554,"midi":36,"time":87.53837252604166,"velocity":0.3937007874015748},{"duration":0.061475375000000554,"midi":61,"time":87.53837252604166,"velocity":0.3937007874015748},{"duration":0.061475375000000554,"midi":42,"time":87.54349547395833,"velocity":0.3937007874015748},{"duration":0.061475375000000554,"midi":42,"time":87.78427402604166,"velocity":0.3937007874015748},{"duration":0.061475375000000554,"midi":40,"time":88.03017552604166,"velocity":0.3937007874015748},{"duration":0.061475375000000554,"midi":61,"time":88.03017552604166,"velocity":0.3937007874015748},{"duration":0.061475375000000554,"midi":42,"time":88.03017552604166,"velocity":0.3937007874015748},{"duration":0.061475375000000554,"midi":42,"time":88.27607702604166,"velocity":0.3937007874015748},{"duration":0.061475375000000554,"midi":61,"time":88.286322921875,"velocity":0.3937007874015748},{"duration":0.061475375000000554,"midi":36,"time":88.286322921875,"velocity":0.3937007874015748},{"duration":0.061475375000000554,"midi":42,"time":88.52710147395834,"velocity":0.3937007874015748},{"duration":0.061475375000000554,"midi":61,"time":88.532224421875,"velocity":0.3937007874015748},{"duration":0.061475375000000554,"midi":36,"time":88.532224421875,"velocity":0.3937007874015748},{"duration":0.061475375000000554,"midi":42,"time":88.76788002604167,"velocity":0.3937007874015748},{"duration":0.061475375000000554,"midi":40,"time":89.01378152604165,"velocity":0.3937007874015748},{"duration":0.061475375000000554,"midi":42,"time":89.01890447395833,"velocity":0.3937007874015748},{"duration":0.061475375000000554,"midi":61,"time":89.01890447395833,"velocity":0.3937007874015748},{"duration":0.061475375000000554,"midi":61,"time":89.25968302604166,"velocity":0.3937007874015748},{"duration":0.061475375000000554,"midi":42,"time":89.25968302604166,"velocity":0.3937007874015748},{"duration":0.061475375000000554,"midi":61,"time":89.50558452604166,"velocity":0.3937007874015748},{"duration":0.061475375000000554,"midi":42,"time":89.51070747395833,"velocity":0.3937007874015748},{"duration":0.061475375000000554,"midi":36,"time":89.51070747395833,"velocity":0.3937007874015748},{"duration":0.061475375000000554,"midi":61,"time":89.75148602604166,"velocity":0.3937007874015748},{"duration":0.061475375000000554,"midi":42,"time":89.75148602604166,"velocity":0.3937007874015748},{"duration":0.061475375000000554,"midi":61,"time":89.99738752604166,"velocity":0.3937007874015748},{"duration":0.061475375000000554,"midi":42,"time":89.99738752604166,"velocity":0.3937007874015748},{"duration":0.061475375000000554,"midi":40,"time":89.99738752604166,"velocity":0.3937007874015748},{"duration":0.061475375000000554,"midi":42,"time":90.24328902604167,"velocity":0.3937007874015748},{"duration":0.061475375000000554,"midi":61,"time":90.24328902604167,"velocity":0.3937007874015748},{"duration":0.061475375000000554,"midi":36,"time":90.253534921875,"velocity":0.3937007874015748},{"duration":0.061475375000000554,"midi":61,"time":90.48919052604165,"velocity":0.3937007874015748},{"duration":0.061475375000000554,"midi":42,"time":90.48919052604165,"velocity":0.3937007874015748},{"duration":0.061475375000000554,"midi":36,"time":90.499436421875,"velocity":0.3937007874015748},{"duration":0.061475375000000554,"midi":42,"time":90.73509202604166,"velocity":0.3937007874015748},{"duration":0.061475375000000554,"midi":40,"time":90.98099352604166,"velocity":0.3937007874015748},{"duration":0.061475375000000554,"midi":42,"time":90.98611647395833,"velocity":0.3937007874015748},{"duration":0.061475375000000554,"midi":61,"time":90.991239421875,"velocity":0.3937007874015748},{"duration":0.061475375000000554,"midi":42,"time":91.22689502604166,"velocity":0.3937007874015748},{"duration":0.061475375000000554,"midi":36,"time":91.22689502604166,"velocity":0.3937007874015748},{"duration":0.061475375000000554,"midi":61,"time":91.237140921875,"velocity":0.3937007874015748},{"duration":0.061475375000000554,"midi":42,"time":91.47279652604166,"velocity":0.3937007874015748},{"duration":0.061475375000000554,"midi":61,"time":91.47791947395834,"velocity":0.3937007874015748},{"duration":0.061475375000000554,"midi":36,"time":91.483042421875,"velocity":0.3937007874015748},{"duration":0.061475375000000554,"midi":42,"time":91.713575078125,"velocity":0.3937007874015748},{"duration":0.06147537499998634,"midi":61,"time":91.96459952604167,"velocity":0.3937007874015748},{"duration":0.06147537499998634,"midi":42,"time":91.96459952604167,"velocity":0.3937007874015748},{"duration":0.06147537499998634,"midi":40,"time":91.96459952604167,"velocity":0.3937007874015748},{"duration":0.061475375000000554,"midi":61,"time":92.21050102604165,"velocity":0.3937007874015748},{"duration":0.061475375000000554,"midi":42,"time":92.21562397395833,"velocity":0.3937007874015748},{"duration":0.061475375000000554,"midi":61,"time":92.45640252604166,"velocity":0.3937007874015748},{"duration":0.061475375000000554,"midi":42,"time":92.45640252604166,"velocity":0.3937007874015748},{"duration":0.061475375000000554,"midi":36,"time":92.46664842187499,"velocity":0.3937007874015748},{"duration":0.061475375000000554,"midi":42,"time":92.70230402604166,"velocity":0.3937007874015748},{"duration":0.061475375000000554,"midi":42,"time":92.94820552604166,"velocity":0.3937007874015748},{"duration":0.061475375000000554,"midi":40,"time":92.958451421875,"velocity":0.3937007874015748},{"duration":0.061475375000000554,"midi":61,"time":92.958451421875,"velocity":0.3937007874015748},{"duration":0.061475375000000554,"midi":42,"time":93.188984078125,"velocity":0.3937007874015748},{"duration":0.061475375000000554,"midi":61,"time":93.19922997395834,"velocity":0.3937007874015748},{"duration":0.061475375000000554,"midi":42,"time":93.44000852604167,"velocity":0.3937007874015748},{"duration":0.061475375000000554,"midi":36,"time":93.450254421875,"velocity":0.3937007874015748},{"duration":0.061475375000000554,"midi":61,"time":93.450254421875,"velocity":0.3937007874015748},{"duration":0.061475375000000554,"midi":61,"time":93.68591002604165,"velocity":0.3937007874015748},{"duration":0.061475375000000554,"midi":42,"time":93.68591002604165,"velocity":0.3937007874015748},{"duration":0.061475375000000554,"midi":42,"time":93.93181152604166,"velocity":0.3937007874015748},{"duration":0.061475375000000554,"midi":61,"time":93.93181152604166,"velocity":0.3937007874015748},{"duration":0.061475375000000554,"midi":40,"time":93.93181152604166,"velocity":0.3937007874015748},{"duration":0.061475375000000554,"midi":42,"time":94.17771302604166,"velocity":0.3937007874015748},{"duration":0.061475375000000554,"midi":36,"time":94.17771302604166,"velocity":0.3937007874015748},{"duration":0.061475375000000554,"midi":61,"time":94.17771302604166,"velocity":0.3937007874015748},{"duration":0.061475375000000554,"midi":61,"time":94.42361452604166,"velocity":0.3937007874015748},{"duration":0.061475375000000554,"midi":42,"time":94.42873747395834,"velocity":0.3937007874015748},{"duration":0.061475375000000554,"midi":36,"time":94.42873747395834,"velocity":0.3937007874015748},{"duration":0.061475375000000554,"midi":42,"time":94.66951602604166,"velocity":0.3937007874015748},{"duration":0.061475375000000554,"midi":61,"time":94.91541752604167,"velocity":0.3937007874015748},{"duration":0.061475375000000554,"midi":40,"time":94.91541752604167,"velocity":0.3937007874015748},{"duration":0.061475375000000554,"midi":42,"time":94.92054047395834,"velocity":0.3937007874015748},{"duration":0.061475375000000554,"midi":61,"time":95.15619607812499,"velocity":0.3937007874015748},{"duration":0.061475375000000554,"midi":42,"time":95.16131902604165,"velocity":0.3937007874015748},{"duration":0.061475375000000554,"midi":61,"time":95.40722052604166,"velocity":0.3937007874015748},{"duration":0.061475375000000554,"midi":42,"time":95.40722052604166,"velocity":0.3937007874015748},{"duration":0.061475375000000554,"midi":36,"time":95.41234347395833,"velocity":0.3937007874015748},{"duration":0.061475375000000554,"midi":42,"time":95.65312202604166,"velocity":0.3937007874015748},{"duration":0.061475375000000554,"midi":42,"time":95.89902352604166,"velocity":0.3937007874015748},{"duration":0.061475375000000554,"midi":40,"time":95.90414647395833,"velocity":0.3937007874015748},{"duration":0.061475375000000554,"midi":61,"time":95.909269421875,"velocity":0.3937007874015748},{"duration":0.061475375000000554,"midi":42,"time":96.14492502604166,"velocity":0.3937007874015748},{"duration":0.061475375000000554,"midi":36,"time":96.14492502604166,"velocity":0.3937007874015748},{"duration":0.061475375000000554,"midi":61,"time":96.15004797395834,"velocity":0.3937007874015748},{"duration":0.061475375000000554,"midi":42,"time":96.39082652604166,"velocity":0.3937007874015748},{"duration":0.061475375000000554,"midi":61,"time":96.401072421875,"velocity":0.3937007874015748},{"duration":0.061475375000000554,"midi":36,"time":96.40619536979166,"velocity":0.3937007874015748},{"duration":0.061475375000000554,"midi":42,"time":96.63288581510416,"velocity":0.3937007874015748},{"duration":0.061475375000000554,"midi":40,"time":96.88391026302084,"velocity":0.3937007874015748},{"duration":0.061475375000000554,"midi":42,"time":96.88391026302084,"velocity":0.3937007874015748},{"duration":0.061475375000000554,"midi":61,"time":96.89415615885416,"velocity":0.3937007874015748},{"duration":0.061475375000000554,"midi":61,"time":97.12981176302084,"velocity":0.3937007874015748},{"duration":0.061475375000000554,"midi":42,"time":97.12981176302084,"velocity":0.3937007874015748},{"duration":0.061475375000000554,"midi":61,"time":97.37571326302084,"velocity":0.3937007874015748},{"duration":0.061475375000000554,"midi":36,"time":97.37571326302084,"velocity":0.3937007874015748},{"duration":0.061475375000000554,"midi":42,"time":97.38595915885416,"velocity":0.3937007874015748},{"duration":0.061475375000000554,"midi":61,"time":97.62161476302083,"velocity":0.3937007874015748},{"duration":0.061475375000000554,"midi":42,"time":97.62161476302083,"velocity":0.3937007874015748},{"duration":0.061475375000000554,"midi":40,"time":97.86239331510416,"velocity":0.3937007874015748},{"duration":0.061475375000000554,"midi":61,"time":97.86751626302083,"velocity":0.3937007874015748},{"duration":0.061475375000000554,"midi":42,"time":97.86751626302083,"velocity":0.3937007874015748},{"duration":0.061475375000000554,"midi":36,"time":98.10829481510416,"velocity":0.3937007874015748},{"duration":0.061475375000000554,"midi":61,"time":98.10829481510416,"velocity":0.3937007874015748},{"duration":0.061475375000000554,"midi":42,"time":98.10829481510416,"velocity":0.3937007874015748},{"duration":0.061475375000000554,"midi":61,"time":98.35419631510416,"velocity":0.3937007874015748},{"duration":0.061475375000000554,"midi":42,"time":98.35931926302084,"velocity":0.3937007874015748},{"duration":0.061475375000000554,"midi":36,"time":98.35931926302084,"velocity":0.3937007874015748},{"duration":0.061475375000000554,"midi":42,"time":98.60522076302084,"velocity":0.3937007874015748},{"duration":0.061475375000000554,"midi":40,"time":98.84599931510417,"velocity":0.3937007874015748},{"duration":0.061475375000000554,"midi":42,"time":98.85112226302084,"velocity":0.3937007874015748},{"duration":0.061475375000000554,"midi":61,"time":98.85112226302084,"velocity":0.3937007874015748},{"duration":0.061475375000000554,"midi":61,"time":99.09190081510415,"velocity":0.3937007874015748},{"duration":0.06147537499998634,"midi":42,"time":99.09702376302084,"velocity":0.3937007874015748},{"duration":0.061475375000000554,"midi":61,"time":99.34292526302083,"velocity":0.3937007874015748},{"duration":0.061475375000000554,"midi":36,"time":99.34292526302083,"velocity":0.3937007874015748},{"duration":0.061475375000000554,"midi":42,"time":99.34804821093749,"velocity":0.3937007874015748},{"duration":0.061475375000000554,"midi":42,"time":99.58370381510416,"velocity":0.3937007874015748},{"duration":0.061475375000000554,"midi":42,"time":99.82960531510416,"velocity":0.3937007874015748},{"duration":0.061475375000000554,"midi":61,"time":99.83472826302084,"velocity":0.3937007874015748},{"duration":0.061475375000000554,"midi":40,"time":99.83472826302084,"velocity":0.3937007874015748},{"duration":0.061475375000000554,"midi":42,"time":100.07550681510416,"velocity":0.3937007874015748},{"duration":0.061475375000000554,"midi":61,"time":100.08062976302084,"velocity":0.3937007874015748},{"duration":0.061475375000000554,"midi":42,"time":100.32140831510416,"velocity":0.3937007874015748},{"duration":0.061475375000000554,"midi":36,"time":100.32653126302084,"velocity":0.3937007874015748},{"duration":0.061475375000000554,"midi":61,"time":100.3316542109375,"velocity":0.3937007874015748},{"duration":0.061475375000000554,"midi":42,"time":100.56730981510415,"velocity":0.3937007874015748},{"duration":0.061475375000000554,"midi":42,"time":100.81321131510416,"velocity":0.3937007874015748},{"duration":0.061475375000000554,"midi":61,"time":100.81833426302083,"velocity":0.3937007874015748},{"duration":0.061475375000000554,"midi":40,"time":100.81833426302083,"velocity":0.3937007874015748},{"duration":0.061475375000000554,"midi":42,"time":101.05911281510416,"velocity":0.3937007874015748},{"duration":0.061475375000000554,"midi":40,"time":101.06423576302083,"velocity":0.3937007874015748},{"duration":0.061475375000000554,"midi":61,"time":101.06423576302083,"velocity":0.3937007874015748},{"duration":0.061475375000000554,"midi":40,"time":101.18718651302083,"velocity":0.3937007874015748},{"duration":0.061475375000000554,"midi":42,"time":101.30501431510416,"velocity":0.3937007874015748},{"duration":0.061475375000000554,"midi":61,"time":101.31013726302083,"velocity":0.3937007874015748},{"duration":0.061475375000000554,"midi":36,"time":101.32038315885416,"velocity":0.3937007874015748},{"duration":0.061475375000000554,"midi":40,"time":101.81218615885416,"velocity":0.3937007874015748},{"duration":0.061475375000000554,"midi":42,"time":102.30398915885416,"velocity":0.3937007874015748},{"duration":0.061475375000000554,"midi":36,"time":102.30398915885416,"velocity":0.3937007874015748},{"duration":0.061475375000000554,"midi":61,"time":102.30398915885416,"velocity":0.3937007874015748},{"duration":0.061475375000000554,"midi":42,"time":102.54989065885415,"velocity":0.3937007874015748},{"duration":0.061475375000000554,"midi":40,"time":102.78554626302083,"velocity":0.3937007874015748},{"duration":0.061475375000000554,"midi":61,"time":102.7906692109375,"velocity":0.3937007874015748},{"duration":0.061475375000000554,"midi":42,"time":102.7906692109375,"velocity":0.3937007874015748},{"duration":0.061475375000000554,"midi":42,"time":103.03144776302084,"velocity":0.3937007874015748},{"duration":0.061475375000000554,"midi":61,"time":103.03144776302084,"velocity":0.3937007874015748},{"duration":0.061475375000000554,"midi":36,"time":103.04169365885416,"velocity":0.3937007874015748},{"duration":0.061475375000000554,"midi":42,"time":103.27734926302084,"velocity":0.3937007874015748},{"duration":0.061475375000000554,"midi":61,"time":103.28759515885416,"velocity":0.3937007874015748},{"duration":0.061475375000000554,"midi":36,"time":103.51812781510417,"velocity":0.3937007874015748},{"duration":0.061475375000000554,"midi":42,"time":103.52325076302084,"velocity":0.3937007874015748},{"duration":0.06147537499998634,"midi":42,"time":103.76915226302084,"velocity":0.3937007874015748},{"duration":0.06147537499998634,"midi":40,"time":103.76915226302084,"velocity":0.3937007874015748},{"duration":0.061475375000000554,"midi":61,"time":103.77939815885416,"velocity":0.3937007874015748},{"duration":0.061475375000000554,"midi":61,"time":104.01505376302083,"velocity":0.3937007874015748},{"duration":0.061475375000000554,"midi":42,"time":104.01505376302083,"velocity":0.3937007874015748},{"duration":0.061475375000000554,"midi":36,"time":104.01505376302083,"velocity":0.3937007874015748},{"duration":0.061475375000000554,"midi":61,"time":104.26095526302083,"velocity":0.3937007874015748},{"duration":0.061475375000000554,"midi":42,"time":104.26095526302083,"velocity":0.3937007874015748},{"duration":0.061475375000000554,"midi":36,"time":104.26095526302083,"velocity":0.3937007874015748},{"duration":0.061475375000000554,"midi":36,"time":104.50685676302083,"velocity":0.3937007874015748},{"duration":0.061475375000000554,"midi":42,"time":104.50685676302083,"velocity":0.3937007874015748},{"duration":0.061475375000000554,"midi":61,"time":104.75275826302084,"velocity":0.3937007874015748},{"duration":0.061475375000000554,"midi":42,"time":104.75275826302084,"velocity":0.3937007874015748},{"duration":0.061475375000000554,"midi":40,"time":104.75275826302084,"velocity":0.3937007874015748},{"duration":0.061475375000000554,"midi":36,"time":104.99353681510416,"velocity":0.3937007874015748},{"duration":0.061475375000000554,"midi":61,"time":104.99865976302084,"velocity":0.3937007874015748},{"duration":0.061475375000000554,"midi":42,"time":104.99865976302084,"velocity":0.3937007874015748},{"duration":0.061475375000000554,"midi":36,"time":105.24456126302084,"velocity":0.3937007874015748},{"duration":0.061475375000000554,"midi":42,"time":105.24456126302084,"velocity":0.3937007874015748},{"duration":0.061475375000000554,"midi":61,"time":105.24456126302084,"velocity":0.3937007874015748},{"duration":0.061475375000000554,"midi":61,"time":105.48533981510415,"velocity":0.3937007874015748},{"duration":0.061475375000000554,"midi":42,"time":105.49046276302083,"velocity":0.3937007874015748},{"duration":0.061475375000000554,"midi":40,"time":105.73124131510416,"velocity":0.3937007874015748},{"duration":0.061475375000000554,"midi":61,"time":105.73636426302083,"velocity":0.3937007874015748},{"duration":0.061475375000000554,"midi":42,"time":105.74148721093749,"velocity":0.3937007874015748},{"duration":0.061475375000000554,"midi":61,"time":105.98226576302083,"velocity":0.3937007874015748},{"duration":0.061475375000000554,"midi":42,"time":105.98226576302083,"velocity":0.3937007874015748},{"duration":0.061475375000000554,"midi":36,"time":106.22816726302084,"velocity":0.3937007874015748},{"duration":0.061475375000000554,"midi":42,"time":106.22816726302084,"velocity":0.3937007874015748},{"duration":0.061475375000000554,"midi":61,"time":106.22816726302084,"velocity":0.3937007874015748},{"duration":0.061475375000000554,"midi":42,"time":106.46894581510416,"velocity":0.3937007874015748},{"duration":0.061475375000000554,"midi":40,"time":106.71484731510417,"velocity":0.3937007874015748},{"duration":0.061475375000000554,"midi":42,"time":106.71997026302084,"velocity":0.3937007874015748},{"duration":0.061475375000000554,"midi":61,"time":106.71997026302084,"velocity":0.3937007874015748},{"duration":0.06147537499998634,"midi":61,"time":106.96587176302084,"velocity":0.3937007874015748},{"duration":0.06147537499998634,"midi":42,"time":106.96587176302084,"velocity":0.3937007874015748},{"duration":0.06147537499998634,"midi":36,"time":106.96587176302084,"velocity":0.3937007874015748},{"duration":0.061475375000000554,"midi":42,"time":107.21177326302083,"velocity":0.3937007874015748},{"duration":0.061475375000000554,"midi":61,"time":107.21177326302083,"velocity":0.3937007874015748},{"duration":0.061475375000000554,"midi":36,"time":107.45255181510416,"velocity":0.3937007874015748},{"duration":0.061475375000000554,"midi":42,"time":107.45767476302083,"velocity":0.3937007874015748},{"duration":0.061475375000000554,"midi":42,"time":107.70357626302084,"velocity":0.3937007874015748},{"duration":0.061475375000000554,"midi":40,"time":107.70357626302084,"velocity":0.3937007874015748},{"duration":0.061475375000000554,"midi":61,"time":107.7086992109375,"velocity":0.3937007874015748},{"duration":0.061475375000000554,"midi":42,"time":107.94435481510416,"velocity":0.3937007874015748},{"duration":0.061475375000000554,"midi":36,"time":107.94947776302084,"velocity":0.3937007874015748},{"duration":0.061475375000000554,"midi":61,"time":107.94947776302084,"velocity":0.3937007874015748},{"duration":0.061475375000000554,"midi":61,"time":108.19537926302084,"velocity":0.3937007874015748},{"duration":0.061475375000000554,"midi":42,"time":108.19537926302084,"velocity":0.3937007874015748},{"duration":0.061475375000000554,"midi":36,"time":108.20562515885416,"velocity":0.3937007874015748},{"duration":0.061475375000000554,"midi":42,"time":108.44128076302084,"velocity":0.3937007874015748},{"duration":0.061475375000000554,"midi":36,"time":108.4464037109375,"velocity":0.3937007874015748},{"duration":0.061475375000000554,"midi":61,"time":108.68205931510415,"velocity":0.3937007874015748},{"duration":0.061475375000000554,"midi":42,"time":108.68718226302083,"velocity":0.3937007874015748},{"duration":0.061475375000000554,"midi":40,"time":108.68718226302083,"velocity":0.3937007874015748},{"duration":0.061475375000000554,"midi":61,"time":108.93308376302083,"velocity":0.3937007874015748},{"duration":0.061475375000000554,"midi":36,"time":108.94332965885415,"velocity":0.3937007874015748},{"duration":0.061475375000000554,"midi":42,"time":108.94332965885415,"velocity":0.3937007874015748},{"duration":0.061475375000000554,"midi":61,"time":109.17898526302083,"velocity":0.3937007874015748},{"duration":0.061475375000000554,"midi":42,"time":109.18923115885416,"velocity":0.3937007874015748},{"duration":0.061475375000000554,"midi":36,"time":109.18923115885416,"velocity":0.3937007874015748},{"duration":0.061475375000000554,"midi":61,"time":109.41976381510416,"velocity":0.3937007874015748},{"duration":0.061475375000000554,"midi":42,"time":109.43513265885416,"velocity":0.3937007874015748},{"duration":0.061475375000000554,"midi":61,"time":109.67078826302084,"velocity":0.3937007874015748},{"duration":0.061475375000000554,"midi":40,"time":109.6759112109375,"velocity":0.3937007874015748},{"duration":0.061475375000000554,"midi":42,"time":109.68103415885416,"velocity":0.3937007874015748},{"duration":0.061475375000000554,"midi":61,"time":109.91668976302084,"velocity":0.3937007874015748},{"duration":0.061475375000000554,"midi":42,"time":109.92693565885416,"velocity":0.3937007874015748},{"duration":0.061475375000000554,"midi":36,"time":110.16259126302083,"velocity":0.3937007874015748},{"duration":0.061475375000000554,"midi":42,"time":110.17283715885416,"velocity":0.3937007874015748},{"duration":0.061475375000000554,"midi":61,"time":110.17283715885416,"velocity":0.3937007874015748},{"duration":0.061475375000000554,"midi":42,"time":110.41361571093749,"velocity":0.3937007874015748},{"duration":0.061475375000000554,"midi":40,"time":110.65439426302083,"velocity":0.3937007874015748},{"duration":0.061475375000000554,"midi":61,"time":110.66464015885416,"velocity":0.3937007874015748},{"duration":0.061475375000000554,"midi":42,"time":110.66464015885416,"velocity":0.3937007874015748},{"duration":0.061475375000000554,"midi":42,"time":110.90029576302084,"velocity":0.3937007874015748},{"duration":0.061475375000000554,"midi":61,"time":110.90029576302084,"velocity":0.3937007874015748},{"duration":0.061475375000000554,"midi":36,"time":110.9054187109375,"velocity":0.3937007874015748},{"duration":0.061475375000000554,"midi":42,"time":111.14619726302084,"velocity":0.3937007874015748},{"duration":0.061475375000000554,"midi":61,"time":111.1513202109375,"velocity":0.3937007874015748},{"duration":0.061475375000000554,"midi":42,"time":111.38697581510417,"velocity":0.3937007874015748},{"duration":0.061475375000000554,"midi":36,"time":111.39209876302084,"velocity":0.3937007874015748},{"duration":0.061475375000000554,"midi":61,"time":111.63287731510415,"velocity":0.3937007874015748},{"duration":0.06147537499998634,"midi":40,"time":111.63800026302084,"velocity":0.3937007874015748},{"duration":0.06147537499998634,"midi":42,"time":111.63800026302084,"velocity":0.3937007874015748},{"duration":0.061475375000000554,"midi":42,"time":111.87877881510416,"velocity":0.3937007874015748},{"duration":0.061475375000000554,"midi":61,"time":111.88390176302083,"velocity":0.3937007874015748},{"duration":0.061475375000000554,"midi":36,"time":111.88902471093749,"velocity":0.3937007874015748},{"duration":0.061475375000000554,"midi":42,"time":112.12468031510416,"velocity":0.3937007874015748},{"duration":0.061475375000000554,"midi":61,"time":112.12980326302083,"velocity":0.3937007874015748},{"duration":0.061475375000000554,"midi":36,"time":112.14004915885415,"velocity":0.3937007874015748},{"duration":0.061475375000000554,"midi":42,"time":112.37058181510416,"velocity":0.3937007874015748},{"duration":0.061475375000000554,"midi":36,"time":112.38595065885416,"velocity":0.3937007874015748},{"duration":0.061475375000000554,"midi":42,"time":112.62160626302084,"velocity":0.3937007874015748},{"duration":0.061475375000000554,"midi":61,"time":112.63185215885416,"velocity":0.3937007874015748},{"duration":0.061475375000000554,"midi":40,"time":112.63185215885416,"velocity":0.3937007874015748},{"duration":0.061475375000000554,"midi":42,"time":112.86750776302084,"velocity":0.3937007874015748},{"duration":0.061475375000000554,"midi":61,"time":112.8726307109375,"velocity":0.3937007874015748},{"duration":0.061475375000000554,"midi":36,"time":112.87775365885416,"velocity":0.3937007874015748},{"duration":0.061475375000000554,"midi":42,"time":113.11340926302084,"velocity":0.3937007874015748},{"duration":0.061475375000000554,"midi":61,"time":113.12365515885416,"velocity":0.3937007874015748},{"duration":0.061475375000000554,"midi":36,"time":113.12877810677084,"velocity":0.3937007874015748},{"duration":0.061475375000000554,"midi":61,"time":113.35931076302083,"velocity":0.3937007874015748},{"duration":0.061475375000000554,"midi":42,"time":113.35931076302083,"velocity":0.3937007874015748},{"duration":0.061475375000000554,"midi":40,"time":113.60521226302083,"velocity":0.3937007874015748},{"duration":0.061475375000000554,"midi":42,"time":113.60521226302083,"velocity":0.3937007874015748},{"duration":0.061475375000000554,"midi":61,"time":113.60521226302083,"velocity":0.3937007874015748},{"duration":0.061475375000000554,"midi":42,"time":113.84599081510416,"velocity":0.3937007874015748},{"duration":0.061475375000000554,"midi":61,"time":113.85111376302083,"velocity":0.3937007874015748},{"duration":0.061475375000000554,"midi":42,"time":114.09189231510416,"velocity":0.3937007874015748},{"duration":0.061475375000000554,"midi":36,"time":114.1021382109375,"velocity":0.3937007874015748},{"duration":0.061475375000000554,"midi":61,"time":114.1021382109375,"velocity":0.3937007874015748},{"duration":0.061475375000000554,"midi":42,"time":114.33779381510416,"velocity":0.3937007874015748},{"duration":0.061475375000000554,"midi":40,"time":114.58881826302084,"velocity":0.3937007874015748},{"duration":0.061475375000000554,"midi":42,"time":114.58881826302084,"velocity":0.3937007874015748},{"duration":0.061475375000000554,"midi":61,"time":114.59906415885416,"velocity":0.3937007874015748},{"duration":0.061475375000000554,"midi":42,"time":114.82959681510415,"velocity":0.3937007874015748},{"duration":0.061475375000000554,"midi":61,"time":114.8398427109375,"velocity":0.3937007874015748},{"duration":0.061475375000000554,"midi":42,"time":115.07549831510416,"velocity":0.3937007874015748},{"duration":0.061475375000000554,"midi":36,"time":115.08062126302083,"velocity":0.3937007874015748},{"duration":0.061475375000000554,"midi":61,"time":115.08062126302083,"velocity":0.3937007874015748},{"duration":0.061475375000000554,"midi":42,"time":115.32139981510416,"velocity":0.3937007874015748},{"duration":0.061475375000000554,"midi":42,"time":115.56730131510416,"velocity":0.3937007874015748},{"duration":0.061475375000000554,"midi":61,"time":115.57242426302084,"velocity":0.3937007874015748},{"duration":0.061475375000000554,"midi":40,"time":115.57242426302084,"velocity":0.3937007874015748},{"duration":0.061475375000000554,"midi":61,"time":115.81320281510416,"velocity":0.3937007874015748},{"duration":0.061475375000000554,"midi":42,"time":115.81320281510416,"velocity":0.3937007874015748},{"duration":0.061475375000000554,"midi":42,"time":116.05910431510416,"velocity":0.3937007874015748},{"duration":0.061475375000000554,"midi":61,"time":116.06422726302084,"velocity":0.3937007874015748},{"duration":0.061475375000000554,"midi":36,"time":116.0693502109375,"velocity":0.3937007874015748},{"duration":0.061475375000000554,"midi":42,"time":116.31012876302084,"velocity":0.3937007874015748},{"duration":0.061475375000000554,"midi":36,"time":116.31012876302084,"velocity":0.3937007874015748},{"duration":0.061475375000000554,"midi":42,"time":116.55603026302083,"velocity":0.3937007874015748},{"duration":0.061475375000000554,"midi":40,"time":116.55603026302083,"velocity":0.3937007874015748},{"duration":0.061475375000000554,"midi":61,"time":116.55603026302083,"velocity":0.3937007874015748},{"duration":0.061475375000000554,"midi":61,"time":116.80193176302083,"velocity":0.3937007874015748},{"duration":0.061475375000000554,"midi":42,"time":116.80193176302083,"velocity":0.3937007874015748},{"duration":0.061475375000000554,"midi":36,"time":116.80193176302083,"velocity":0.3937007874015748},{"duration":0.061475375000000554,"midi":42,"time":117.04783326302083,"velocity":0.3937007874015748},{"duration":0.061475375000000554,"midi":61,"time":117.04783326302083,"velocity":0.3937007874015748},{"duration":0.061475375000000554,"midi":36,"time":117.0529562109375,"velocity":0.3937007874015748},{"duration":0.061475375000000554,"midi":61,"time":117.29373476302084,"velocity":0.3937007874015748},{"duration":0.061475375000000554,"midi":42,"time":117.29373476302084,"velocity":0.3937007874015748},{"duration":0.061475375000000554,"midi":40,"time":117.41668551302084,"velocity":0.3937007874015748},{"duration":0.061475375000000554,"midi":61,"time":117.53963626302084,"velocity":0.3937007874015748},{"duration":0.061475375000000554,"midi":42,"time":117.53963626302084,"velocity":0.3937007874015748},{"duration":0.061475375000000554,"midi":40,"time":117.53963626302084,"velocity":0.3937007874015748},{"duration":0.061475375000000554,"midi":40,"time":117.78553776302084,"velocity":0.3937007874015748},{"duration":0.061475375000000554,"midi":36,"time":118.03143926302083,"velocity":0.3937007874015748},{"duration":0.061475375000000554,"midi":42,"time":118.03143926302083,"velocity":0.3937007874015748},{"duration":0.061475375000000554,"midi":61,"time":118.03143926302083,"velocity":0.3937007874015748},{"duration":0.061475375000000554,"midi":42,"time":118.27734076302083,"velocity":0.3937007874015748},{"duration":0.061475375000000554,"midi":40,"time":118.52324226302083,"velocity":0.3937007874015748},{"duration":0.061475375000000554,"midi":42,"time":118.52324226302083,"velocity":0.3937007874015748},{"duration":0.061475375000000554,"midi":61,"time":118.52324226302083,"velocity":0.3937007874015748},{"duration":0.061475375000000554,"midi":61,"time":118.76914376302084,"velocity":0.3937007874015748},{"duration":0.061475375000000554,"midi":42,"time":118.76914376302084,"velocity":0.3937007874015748},{"duration":0.061475375000000554,"midi":36,"time":118.76914376302084,"velocity":0.3937007874015748},{"duration":0.061475375000000554,"midi":61,"time":119.01504526302084,"velocity":0.3937007874015748},{"duration":0.061475375000000554,"midi":42,"time":119.01504526302084,"velocity":0.3937007874015748},{"duration":0.061475375000000554,"midi":36,"time":119.02529115885416,"velocity":0.3937007874015748},{"duration":0.061475375000000554,"midi":42,"time":119.26094676302084,"velocity":0.3937007874015748},{"duration":0.061475375000000554,"midi":36,"time":119.39414340885416,"velocity":0.3937007874015748},{"duration":0.06147537499998634,"midi":42,"time":119.50684826302084,"velocity":0.3937007874015748},{"duration":0.061475375000000554,"midi":61,"time":119.51709415885416,"velocity":0.3937007874015748},{"duration":0.061475375000000554,"midi":40,"time":119.51709415885416,"velocity":0.3937007874015748},{"duration":0.061475375000000554,"midi":42,"time":119.75274976302083,"velocity":0.3937007874015748},{"duration":0.061475375000000554,"midi":61,"time":119.75787271093749,"velocity":0.3937007874015748},{"duration":0.061475375000000554,"midi":36,"time":119.76299565885417,"velocity":0.3937007874015748},{"duration":0.061475375000000554,"midi":42,"time":119.99865126302083,"velocity":0.3937007874015748},{"duration":0.061475375000000554,"midi":61,"time":120.00889715885415,"velocity":0.3937007874015748},{"duration":0.061475375000000554,"midi":36,"time":120.00889715885415,"velocity":0.3937007874015748},{"duration":0.061475375000000554,"midi":42,"time":120.24455276302083,"velocity":0.3937007874015748},{"duration":0.061475375000000554,"midi":40,"time":120.4955772109375,"velocity":0.3937007874015748},{"duration":0.061475375000000554,"midi":61,"time":120.50070015885416,"velocity":0.3937007874015748},{"duration":0.061475375000000554,"midi":42,"time":120.50070015885416,"velocity":0.3937007874015748},{"duration":0.061475375000000554,"midi":42,"time":120.73635576302084,"velocity":0.3937007874015748},{"duration":0.061475375000000554,"midi":61,"time":120.7414787109375,"velocity":0.3937007874015748},{"duration":0.061475375000000554,"midi":42,"time":120.98225726302084,"velocity":0.3937007874015748},{"duration":0.061475375000000554,"midi":36,"time":120.9873802109375,"velocity":0.3937007874015748},{"duration":0.061475375000000554,"midi":61,"time":120.99250315885416,"velocity":0.3937007874015748},{"duration":0.061475375000000554,"midi":42,"time":121.22815876302083,"velocity":0.3937007874015748},{"duration":0.061475375000000554,"midi":40,"time":121.47406026302083,"velocity":0.3937007874015748},{"duration":0.061475375000000554,"midi":61,"time":121.47918321093749,"velocity":0.3937007874015748},{"duration":0.061475375000000554,"midi":42,"time":121.48430615885415,"velocity":0.3937007874015748},{"duration":0.061475375000000554,"midi":42,"time":121.7250847109375,"velocity":0.3937007874015748},{"duration":0.061475375000000554,"midi":36,"time":121.96586326302084,"velocity":0.3937007874015748},{"duration":0.061475375000000554,"midi":42,"time":121.9709862109375,"velocity":0.3937007874015748},{"duration":0.061475375000000554,"midi":61,"time":121.97610915885416,"velocity":0.3937007874015748},{"duration":0.061475375000000554,"midi":42,"time":122.21176476302084,"velocity":0.3937007874015748},{"duration":0.061475375000000554,"midi":61,"time":122.45254331510417,"velocity":0.3937007874015748},{"duration":0.061475375000000554,"midi":42,"time":122.45766626302084,"velocity":0.3937007874015748},{"duration":0.061475375000000554,"midi":40,"time":122.45766626302084,"velocity":0.3937007874015748},{"duration":0.06147537499998634,"midi":61,"time":122.70356776302084,"velocity":0.3937007874015748},{"duration":0.06147537499998634,"midi":42,"time":122.70356776302084,"velocity":0.3937007874015748},{"duration":0.06147537499998634,"midi":36,"time":122.70356776302084,"velocity":0.3937007874015748},{"duration":0.061475375000000554,"midi":42,"time":122.94946926302083,"velocity":0.3937007874015748},{"duration":0.061475375000000554,"midi":61,"time":122.95459221093749,"velocity":0.3937007874015748},{"duration":0.06147537499998634,"midi":36,"time":122.95971515885417,"velocity":0.3937007874015748},{"duration":0.061475375000000554,"midi":42,"time":123.19537076302083,"velocity":0.3937007874015748},{"duration":0.061475375000000554,"midi":36,"time":123.31832151302083,"velocity":0.3937007874015748},{"duration":0.061475375000000554,"midi":61,"time":123.44127226302083,"velocity":0.3937007874015748},{"duration":0.061475375000000554,"midi":42,"time":123.44127226302083,"velocity":0.3937007874015748},{"duration":0.061475375000000554,"midi":40,"time":123.4463952109375,"velocity":0.3937007874015748},{"duration":0.061475375000000554,"midi":42,"time":123.68717376302084,"velocity":0.3937007874015748},{"duration":0.061475375000000554,"midi":36,"time":123.6922967109375,"velocity":0.3937007874015748},{"duration":0.061475375000000554,"midi":61,"time":123.69741965885416,"velocity":0.3937007874015748},{"duration":0.061475375000000554,"midi":42,"time":123.93307526302084,"velocity":0.3937007874015748},{"duration":0.061475375000000554,"midi":61,"time":123.94332115885416,"velocity":0.3937007874015748},{"duration":0.061475375000000554,"midi":36,"time":123.94332115885416,"velocity":0.3937007874015748},{"duration":0.061475375000000554,"midi":42,"time":124.17897676302084,"velocity":0.3937007874015748},{"duration":0.061475375000000554,"midi":40,"time":124.42487826302083,"velocity":0.3937007874015748},{"duration":0.061475375000000554,"midi":61,"time":124.42487826302083,"velocity":0.3937007874015748},{"duration":0.061475375000000554,"midi":42,"time":124.43000121093749,"velocity":0.3937007874015748},{"duration":0.061475375000000554,"midi":61,"time":124.67590271093749,"velocity":0.3937007874015748},{"duration":0.061475375000000554,"midi":42,"time":124.68102565885415,"velocity":0.3937007874015748},{"duration":0.061475375000000554,"midi":36,"time":124.91668126302083,"velocity":0.3937007874015748},{"duration":0.061475375000000554,"midi":42,"time":124.91668126302083,"velocity":0.3937007874015748},{"duration":0.061475375000000554,"midi":61,"time":124.93205010677083,"velocity":0.3937007874015748},{"duration":0.061475375000000554,"midi":42,"time":125.16258276302084,"velocity":0.3937007874015748},{"duration":0.061475375000000554,"midi":40,"time":125.40848426302084,"velocity":0.3937007874015748},{"duration":0.061475375000000554,"midi":61,"time":125.40848426302084,"velocity":0.3937007874015748},{"duration":0.061475375000000554,"midi":42,"time":125.40848426302084,"velocity":0.3937007874015748},{"duration":0.061475375000000554,"midi":42,"time":125.65438576302084,"velocity":0.3937007874015748},{"duration":0.06147537499998634,"midi":42,"time":125.90028726302083,"velocity":0.3937007874015748},{"duration":0.06147537499998634,"midi":36,"time":125.90028726302083,"velocity":0.3937007874015748},{"duration":0.061475375000000554,"midi":61,"time":125.91053315885418,"velocity":0.3937007874015748},{"duration":0.061475375000000554,"midi":42,"time":126.14618876302082,"velocity":0.3937007874015748},{"duration":0.061475375000000554,"midi":61,"time":126.39209026302082,"velocity":0.3937007874015748},{"duration":0.061475375000000554,"midi":40,"time":126.39209026302082,"velocity":0.3937007874015748},{"duration":0.061475375000000554,"midi":42,"time":126.3972132109375,"velocity":0.3937007874015748},{"duration":0.061475375000000554,"midi":36,"time":126.63799176302082,"velocity":0.3937007874015748},{"duration":0.061475375000000554,"midi":61,"time":126.6431147109375,"velocity":0.3937007874015748},{"duration":0.061475375000000554,"midi":42,"time":126.64823765885417,"velocity":0.3937007874015748},{"duration":0.061475375000000554,"midi":61,"time":126.89413915885417,"velocity":0.3937007874015748},{"duration":0.061475375000000554,"midi":42,"time":126.89413915885417,"velocity":0.3937007874015748},{"duration":0.061475375000000554,"midi":36,"time":126.89413915885417,"velocity":0.3937007874015748},{"duration":0.061475375000000554,"midi":42,"time":127.12979476302083,"velocity":0.3937007874015748},{"duration":0.061475375000000554,"midi":36,"time":127.26299140885418,"velocity":0.3937007874015748},{"duration":0.061475375000000554,"midi":61,"time":127.37569626302083,"velocity":0.3937007874015748},{"duration":0.061475375000000554,"midi":42,"time":127.3808192109375,"velocity":0.3937007874015748},{"duration":0.061475375000000554,"midi":40,"time":127.38594215885418,"velocity":0.3937007874015748},{"duration":0.061475375000000554,"midi":61,"time":127.62672071093749,"velocity":0.3937007874015748},{"duration":0.06147537499998634,"midi":42,"time":127.63184365885418,"velocity":0.3937007874015748},{"duration":0.06147537499998634,"midi":36,"time":127.63184365885418,"velocity":0.3937007874015748},{"duration":0.061475375000000554,"midi":42,"time":127.86749926302082,"velocity":0.3937007874015748},{"duration":0.061475375000000554,"midi":61,"time":127.87774515885417,"velocity":0.3937007874015748},{"duration":0.061475375000000554,"midi":36,"time":127.87774515885417,"velocity":0.3937007874015748},{"duration":0.061475375000014765,"midi":42,"time":128.12364665885417,"velocity":0.3937007874015748},{"duration":0.06147537499998634,"midi":61,"time":128.35930226302082,"velocity":0.3937007874015748},{"duration":0.061475375000014765,"midi":40,"time":128.36954815885417,"velocity":0.3937007874015748},{"duration":0.061475375000014765,"midi":42,"time":128.36954815885417,"velocity":0.3937007874015748},{"duration":0.06147537499998634,"midi":61,"time":128.60520376302082,"velocity":0.3937007874015748},{"duration":0.06147537499998634,"midi":42,"time":128.6103267109375,"velocity":0.3937007874015748},{"duration":0.06147537499998634,"midi":42,"time":128.8562282109375,"velocity":0.3937007874015748},{"duration":0.06147537499998634,"midi":61,"time":128.86135115885418,"velocity":0.3937007874015748},{"duration":0.06147537499998634,"midi":36,"time":128.86135115885418,"velocity":0.3937007874015748},{"duration":0.06147537499998634,"midi":42,"time":129.09700676302083,"velocity":0.3937007874015748},{"duration":0.06147537499998634,"midi":40,"time":129.34290826302083,"velocity":0.3937007874015748},{"duration":0.06147537499998634,"midi":42,"time":129.34290826302083,"velocity":0.3937007874015748},{"duration":0.06147537499998634,"midi":61,"time":129.34290826302083,"velocity":0.3937007874015748},{"duration":0.06147537499998634,"midi":42,"time":129.58880976302083,"velocity":0.3937007874015748},{"duration":0.061475375000014765,"midi":61,"time":129.8347112630208,"velocity":0.3937007874015748},{"duration":0.061475375000014765,"midi":36,"time":129.8347112630208,"velocity":0.3937007874015748},{"duration":0.061475375000014765,"midi":42,"time":129.8347112630208,"velocity":0.3937007874015748},{"duration":0.061475375000014765,"midi":42,"time":130.0806127630208,"velocity":0.3937007874015748},{"duration":0.061475375000014765,"midi":42,"time":130.3265142630208,"velocity":0.3937007874015748},{"duration":0.061475375000014765,"midi":40,"time":130.3265142630208,"velocity":0.3937007874015748},{"duration":0.061475375000014765,"midi":61,"time":130.3265142630208,"velocity":0.3937007874015748},{"duration":0.061475375000014765,"midi":61,"time":130.5724157630208,"velocity":0.3937007874015748},{"duration":0.061475375000014765,"midi":42,"time":130.5724157630208,"velocity":0.3937007874015748},{"duration":0.061475375000014765,"midi":61,"time":130.81831726302082,"velocity":0.3937007874015748},{"duration":0.061475375000014765,"midi":42,"time":130.81831726302082,"velocity":0.3937007874015748},{"duration":0.061475375000014765,"midi":36,"time":130.82856315885417,"velocity":0.3937007874015748},{"duration":0.061475375000014765,"midi":42,"time":131.06421876302082,"velocity":0.3937007874015748},{"duration":0.061475375000014765,"midi":42,"time":131.31012026302082,"velocity":0.3937007874015748},{"duration":0.061475375000014765,"midi":40,"time":131.31012026302082,"velocity":0.3937007874015748},{"duration":0.061475375000014765,"midi":61,"time":131.31012026302082,"velocity":0.3937007874015748},{"duration":0.06147537499998634,"midi":42,"time":131.55602176302082,"velocity":0.3937007874015748},{"duration":0.06147537499998634,"midi":61,"time":131.5611447109375,"velocity":0.3937007874015748},{"duration":0.06147537499998634,"midi":42,"time":131.80192326302083,"velocity":0.3937007874015748},{"duration":0.06147537499998634,"midi":36,"time":131.8070462109375,"velocity":0.3937007874015748},{"duration":0.06147537499998634,"midi":61,"time":131.81216915885418,"velocity":0.3937007874015748},{"duration":0.06147537499998634,"midi":42,"time":132.04782476302083,"velocity":0.3937007874015748},{"duration":0.06147537499998634,"midi":42,"time":132.29372626302083,"velocity":0.3937007874015748},{"duration":0.06147537499998634,"midi":40,"time":132.29372626302083,"velocity":0.3937007874015748},{"duration":0.06147537499998634,"midi":61,"time":132.29372626302083,"velocity":0.3937007874015748},{"duration":0.06147537499998634,"midi":61,"time":132.53962776302083,"velocity":0.3937007874015748},{"duration":0.06147537499998634,"midi":42,"time":132.53962776302083,"velocity":0.3937007874015748},{"duration":0.06147537499998634,"midi":40,"time":132.78552926302083,"velocity":0.3937007874015748},{"duration":0.06147537499998634,"midi":45,"time":132.78552926302083,"velocity":0.3937007874015748},{"duration":0.06147537499998634,"midi":42,"time":132.78552926302083,"velocity":0.3937007874015748},{"duration":0.06147537499998634,"midi":61,"time":132.79577515885418,"velocity":0.3937007874015748},{"duration":0.061475375000014765,"midi":40,"time":133.0314307630208,"velocity":0.3937007874015748},{"duration":0.061475375000014765,"midi":45,"time":133.0314307630208,"velocity":0.3937007874015748},{"duration":0.06147537499998634,"midi":61,"time":133.0416766588542,"velocity":0.3937007874015748},{"duration":0.061475375000014765,"midi":45,"time":133.28757815885416,"velocity":0.3937007874015748},{"duration":0.061475375000014765,"midi":61,"time":133.28757815885416,"velocity":0.3937007874015748},{"duration":0.061475375000014765,"midi":40,"time":133.28757815885416,"velocity":0.3937007874015748},{"duration":0.061475375000014765,"midi":42,"time":133.76913526302081,"velocity":0.3937007874015748},{"duration":0.061475375000014765,"midi":36,"time":133.76913526302081,"velocity":0.3937007874015748},{"duration":0.061475375000014765,"midi":61,"time":133.76913526302081,"velocity":0.3937007874015748},{"duration":0.061475375000014765,"midi":42,"time":134.01503676302082,"velocity":0.3937007874015748},{"duration":0.061475375000014765,"midi":61,"time":134.26093826302082,"velocity":0.3937007874015748},{"duration":0.061475375000014765,"midi":42,"time":134.26093826302082,"velocity":0.3937007874015748},{"duration":0.061475375000014765,"midi":40,"time":134.26093826302082,"velocity":0.3937007874015748},{"duration":0.06147537499998634,"midi":36,"time":134.50683976302082,"velocity":0.3937007874015748},{"duration":0.06147537499998634,"midi":61,"time":134.50683976302082,"velocity":0.3937007874015748},{"duration":0.06147537499998634,"midi":42,"time":134.50683976302082,"velocity":0.3937007874015748},{"duration":0.06147537499998634,"midi":61,"time":134.75274126302082,"velocity":0.3937007874015748},{"duration":0.06147537499998634,"midi":42,"time":134.75274126302082,"velocity":0.3937007874015748},{"duration":0.06147537499998634,"midi":36,"time":134.76298715885417,"velocity":0.3937007874015748},{"duration":0.06147537499998634,"midi":42,"time":134.99864276302083,"velocity":0.3937007874015748},{"duration":0.06147537499998634,"midi":36,"time":135.13183940885418,"velocity":0.3937007874015748},{"duration":0.06147537499998634,"midi":42,"time":135.24454426302083,"velocity":0.3937007874015748},{"duration":0.06147537499998634,"midi":40,"time":135.25479015885418,"velocity":0.3937007874015748},{"duration":0.06147537499998634,"midi":61,"time":135.25479015885418,"velocity":0.3937007874015748},{"duration":0.06147537499998634,"midi":42,"time":135.49044576302083,"velocity":0.3937007874015748},{"duration":0.06147537499998634,"midi":61,"time":135.4955687109375,"velocity":0.3937007874015748},{"duration":0.06147537499998634,"midi":36,"time":135.50069165885418,"velocity":0.3937007874015748},{"duration":0.06147537499998634,"midi":42,"time":135.73634726302083,"velocity":0.3937007874015748},{"duration":0.06147537499998634,"midi":36,"time":135.74659315885418,"velocity":0.3937007874015748},{"duration":0.06147537499998634,"midi":61,"time":135.74659315885418,"velocity":0.3937007874015748},{"duration":0.06147537499998634,"midi":42,"time":135.98224876302083,"velocity":0.3937007874015748},{"duration":0.061475375000014765,"midi":40,"time":136.23327321093748,"velocity":0.3937007874015748},{"duration":0.06147537499998634,"midi":42,"time":136.2383961588542,"velocity":0.3937007874015748},{"duration":0.06147537499998634,"midi":61,"time":136.2383961588542,"velocity":0.3937007874015748},{"duration":0.061475375000014765,"midi":42,"time":136.4740517630208,"velocity":0.3937007874015748},{"duration":0.061475375000014765,"midi":61,"time":136.47917471093749,"velocity":0.3937007874015748},{"duration":0.061475375000014765,"midi":42,"time":136.7199532630208,"velocity":0.3937007874015748},{"duration":0.061475375000014765,"midi":36,"time":136.7250762109375,"velocity":0.3937007874015748},{"duration":0.061475375000014765,"midi":61,"time":136.73019915885416,"velocity":0.3937007874015748},{"duration":0.061475375000014765,"midi":42,"time":136.96585476302081,"velocity":0.3937007874015748},{"duration":0.061475375000014765,"midi":40,"time":137.21175626302082,"velocity":0.3937007874015748},{"duration":0.061475375000014765,"midi":61,"time":137.2168792109375,"velocity":0.3937007874015748},{"duration":0.061475375000014765,"midi":42,"time":137.22200215885417,"velocity":0.3937007874015748},{"duration":0.061475375000014765,"midi":42,"time":137.4627807109375,"velocity":0.3937007874015748},{"duration":0.06147537499998634,"midi":36,"time":137.70355926302082,"velocity":0.3937007874015748},{"duration":0.061475375000014765,"midi":42,"time":137.7086822109375,"velocity":0.3937007874015748},{"duration":0.061475375000014765,"midi":61,"time":137.71380515885417,"velocity":0.3937007874015748},{"duration":0.06147537499998634,"midi":42,"time":137.94946076302082,"velocity":0.3937007874015748},{"duration":0.06147537499998634,"midi":61,"time":138.19023931510418,"velocity":0.3937007874015748},{"duration":0.06147537499998634,"midi":40,"time":138.19536226302083,"velocity":0.3937007874015748},{"duration":0.06147537499998634,"midi":42,"time":138.19536226302083,"velocity":0.3937007874015748},{"duration":0.06147537499998634,"midi":36,"time":138.44126376302083,"velocity":0.3937007874015748},{"duration":0.06147537499998634,"midi":61,"time":138.44126376302083,"velocity":0.3937007874015748},{"duration":0.06147537499998634,"midi":42,"time":138.44126376302083,"velocity":0.3937007874015748},{"duration":0.06147537499998634,"midi":42,"time":138.68716526302083,"velocity":0.3937007874015748},{"duration":0.06147537499998634,"midi":61,"time":138.6922882109375,"velocity":0.3937007874015748},{"duration":0.06147537499998634,"midi":36,"time":138.69741115885418,"velocity":0.3937007874015748},{"duration":0.06147537499998634,"midi":42,"time":138.93306676302083,"velocity":0.3937007874015748},{"duration":0.06147537499998634,"midi":36,"time":139.05601751302083,"velocity":0.3937007874015748},{"duration":0.06147537499998634,"midi":61,"time":139.17896826302083,"velocity":0.3937007874015748},{"duration":0.06147537499998634,"midi":42,"time":139.17896826302083,"velocity":0.3937007874015748},{"duration":0.06147537499998634,"midi":40,"time":139.1840912109375,"velocity":0.3937007874015748},{"duration":0.061475375000014765,"midi":42,"time":139.4248697630208,"velocity":0.3937007874015748},{"duration":0.061475375000014765,"midi":36,"time":139.42999271093748,"velocity":0.3937007874015748},{"duration":0.06147537499998634,"midi":61,"time":139.4351156588542,"velocity":0.3937007874015748},{"duration":0.061475375000014765,"midi":42,"time":139.6707712630208,"velocity":0.3937007874015748},{"duration":0.061475375000014765,"midi":61,"time":139.68101715885416,"velocity":0.3937007874015748},{"duration":0.061475375000014765,"midi":36,"time":139.68101715885416,"velocity":0.3937007874015748},{"duration":0.061475375000014765,"midi":42,"time":139.9166727630208,"velocity":0.3937007874015748},{"duration":0.061475375000014765,"midi":40,"time":140.16257426302082,"velocity":0.3937007874015748},{"duration":0.061475375000014765,"midi":61,"time":140.16257426302082,"velocity":0.3937007874015748},{"duration":0.061475375000014765,"midi":42,"time":140.1676972109375,"velocity":0.3937007874015748},{"duration":0.061475375000014765,"midi":61,"time":140.4135987109375,"velocity":0.3937007874015748},{"duration":0.061475375000014765,"midi":42,"time":140.41872165885417,"velocity":0.3937007874015748},{"duration":0.061475375000014765,"midi":42,"time":140.65437726302082,"velocity":0.3937007874015748},{"duration":0.061475375000014765,"midi":36,"time":140.65437726302082,"velocity":0.3937007874015748},{"duration":0.061475375000014765,"midi":61,"time":140.66974610677082,"velocity":0.3937007874015748},{"duration":0.06147537499998634,"midi":42,"time":140.90027876302082,"velocity":0.3937007874015748},{"duration":0.06147537499998634,"midi":42,"time":141.14618026302082,"velocity":0.3937007874015748},{"duration":0.06147537499998634,"midi":61,"time":141.14618026302082,"velocity":0.3937007874015748},{"duration":0.06147537499998634,"midi":40,"time":141.14618026302082,"velocity":0.3937007874015748},{"duration":0.06147537499998634,"midi":42,"time":141.39208176302083,"velocity":0.3937007874015748},{"duration":0.06147537499998634,"midi":36,"time":141.63798326302083,"velocity":0.3937007874015748},{"duration":0.06147537499998634,"midi":42,"time":141.63798326302083,"velocity":0.3937007874015748},{"duration":0.06147537499998634,"midi":61,"time":141.64822915885418,"velocity":0.3937007874015748},{"duration":0.06147537499998634,"midi":42,"time":141.88388476302083,"velocity":0.3937007874015748},{"duration":0.06147537499998634,"midi":61,"time":142.12978626302083,"velocity":0.3937007874015748},{"duration":0.06147537499998634,"midi":40,"time":142.12978626302083,"velocity":0.3937007874015748},{"duration":0.06147537499998634,"midi":42,"time":142.1349092109375,"velocity":0.3937007874015748},{"duration":0.06147537499998634,"midi":36,"time":142.37568776302084,"velocity":0.3937007874015748},{"duration":0.06147537499998634,"midi":61,"time":142.3808107109375,"velocity":0.3937007874015748},{"duration":0.06147537499998634,"midi":42,"time":142.38593365885419,"velocity":0.3937007874015748},{"duration":0.06147537499998634,"midi":61,"time":142.6318351588542,"velocity":0.3937007874015748},{"duration":0.06147537499998634,"midi":42,"time":142.6318351588542,"velocity":0.3937007874015748},{"duration":0.06147537499998634,"midi":36,"time":142.6318351588542,"velocity":0.3937007874015748},{"duration":0.061475375000014765,"midi":42,"time":142.8674907630208,"velocity":0.3937007874015748},{"duration":0.061475375000014765,"midi":36,"time":143.00068740885416,"velocity":0.3937007874015748},{"duration":0.061475375000014765,"midi":61,"time":143.1133922630208,"velocity":0.3937007874015748},{"duration":0.061475375000014765,"midi":42,"time":143.1185152109375,"velocity":0.3937007874015748},{"duration":0.061475375000014765,"midi":40,"time":143.12363815885416,"velocity":0.3937007874015748},{"duration":0.061475375000014765,"midi":61,"time":143.3644167109375,"velocity":0.3937007874015748},{"duration":0.061475375000014765,"midi":42,"time":143.36953965885417,"velocity":0.3937007874015748},{"duration":0.061475375000014765,"midi":36,"time":143.36953965885417,"velocity":0.3937007874015748},{"duration":0.061475375000014765,"midi":42,"time":143.60519526302082,"velocity":0.3937007874015748},{"duration":0.061475375000014765,"midi":36,"time":143.61544115885417,"velocity":0.3937007874015748},{"duration":0.061475375000014765,"midi":61,"time":143.61544115885417,"velocity":0.3937007874015748},{"duration":0.061475375000014765,"midi":42,"time":143.86134265885417,"velocity":0.3937007874015748},{"duration":0.06147537499998634,"midi":61,"time":144.09699826302082,"velocity":0.3937007874015748},{"duration":0.061475375000014765,"midi":42,"time":144.10724415885417,"velocity":0.3937007874015748},{"duration":0.061475375000014765,"midi":40,"time":144.10724415885417,"velocity":0.3937007874015748},{"duration":0.06147537499998634,"midi":61,"time":144.34289976302082,"velocity":0.3937007874015748},{"duration":0.06147537499998634,"midi":42,"time":144.3480227109375,"velocity":0.3937007874015748},{"duration":0.06147537499998634,"midi":42,"time":144.5939242109375,"velocity":0.3937007874015748},{"duration":0.06147537499998634,"midi":36,"time":144.59904715885418,"velocity":0.3937007874015748},{"duration":0.06147537499998634,"midi":61,"time":144.59904715885418,"velocity":0.3937007874015748},{"duration":0.06147537499998634,"midi":42,"time":144.83470276302083,"velocity":0.3937007874015748},{"duration":0.06147537499998634,"midi":61,"time":145.08060426302083,"velocity":0.3937007874015748},{"duration":0.06147537499998634,"midi":40,"time":145.08060426302083,"velocity":0.3937007874015748},{"duration":0.06147537499998634,"midi":42,"time":145.08060426302083,"velocity":0.3937007874015748},{"duration":0.06147537499998634,"midi":42,"time":145.32650576302083,"velocity":0.3937007874015748},{"duration":0.061475375000014765,"midi":42,"time":145.5724072630208,"velocity":0.3937007874015748},{"duration":0.061475375000014765,"midi":36,"time":145.5724072630208,"velocity":0.3937007874015748},{"duration":0.061475375000014765,"midi":61,"time":145.5724072630208,"velocity":0.3937007874015748},{"duration":0.061475375000014765,"midi":42,"time":145.8183087630208,"velocity":0.3937007874015748},{"duration":0.061475375000014765,"midi":61,"time":146.0642102630208,"velocity":0.3937007874015748},{"duration":0.061475375000014765,"midi":42,"time":146.0642102630208,"velocity":0.3937007874015748},{"duration":0.061475375000014765,"midi":40,"time":146.0642102630208,"velocity":0.3937007874015748},{"duration":0.061475375000014765,"midi":42,"time":146.3101117630208,"velocity":0.3937007874015748},{"duration":0.061475375000014765,"midi":61,"time":146.3101117630208,"velocity":0.3937007874015748},{"duration":0.061475375000014765,"midi":61,"time":146.55601326302082,"velocity":0.3937007874015748},{"duration":0.061475375000014765,"midi":42,"time":146.55601326302082,"velocity":0.3937007874015748},{"duration":0.061475375000014765,"midi":36,"time":146.56625915885417,"velocity":0.3937007874015748},{"duration":0.061475375000014765,"midi":42,"time":146.80191476302082,"velocity":0.3937007874015748},{"duration":0.061475375000014765,"midi":40,"time":147.04781626302082,"velocity":0.3937007874015748},{"duration":0.061475375000014765,"midi":61,"time":147.04781626302082,"velocity":0.3937007874015748},{"duration":0.061475375000014765,"midi":42,"time":147.04781626302082,"velocity":0.3937007874015748},{"duration":0.06147537499998634,"midi":42,"time":147.29371776302082,"velocity":0.3937007874015748},{"duration":0.06147537499998634,"midi":61,"time":147.2988407109375,"velocity":0.3937007874015748},{"duration":0.06147537499998634,"midi":42,"time":147.53961926302082,"velocity":0.3937007874015748},{"duration":0.06147537499998634,"midi":36,"time":147.5447422109375,"velocity":0.3937007874015748},{"duration":0.06147537499998634,"midi":61,"time":147.54986515885417,"velocity":0.3937007874015748},{"duration":0.06147537499998634,"midi":42,"time":147.78552076302083,"velocity":0.3937007874015748},{"duration":0.06147537499998634,"midi":61,"time":148.03142226302083,"velocity":0.3937007874015748},{"duration":0.06147537499998634,"midi":42,"time":148.03142226302083,"velocity":0.3937007874015748},{"duration":0.06147537499998634,"midi":40,"time":148.03142226302083,"velocity":0.3937007874015748},{"duration":0.06147537499998634,"midi":42,"time":148.27732376302083,"velocity":0.3937007874015748},{"duration":0.06147537499998634,"midi":61,"time":148.27732376302083,"velocity":0.3937007874015748},{"duration":0.06147537499998634,"midi":42,"time":148.52322526302083,"velocity":0.3937007874015748},{"duration":0.06147537499998634,"midi":45,"time":148.52322526302083,"velocity":0.3937007874015748},{"duration":0.06147537499998634,"midi":40,"time":148.52322526302083,"velocity":0.3937007874015748},{"duration":0.06147537499998634,"midi":61,"time":148.53347115885418,"velocity":0.3937007874015748},{"duration":0.061475375000014765,"midi":40,"time":148.7691267630208,"velocity":0.3937007874015748},{"duration":0.061475375000014765,"midi":45,"time":148.7691267630208,"velocity":0.3937007874015748},{"duration":0.06147537499998634,"midi":61,"time":148.7793726588542,"velocity":0.3937007874015748},{"duration":0.061475375000014765,"midi":61,"time":149.02527415885416,"velocity":0.3937007874015748},{"duration":0.061475375000014765,"midi":45,"time":149.02527415885416,"velocity":0.3937007874015748},{"duration":0.061475375000014765,"midi":40,"time":149.02527415885416,"velocity":0.3937007874015748},{"duration":0.061475375000014765,"midi":61,"time":149.51707715885416,"velocity":0.3937007874015748},{"duration":0.061475375000014765,"midi":42,"time":149.51707715885416,"velocity":0.3937007874015748},{"duration":0.061475375000014765,"midi":36,"time":149.51707715885416,"velocity":0.3937007874015748},{"duration":0.061475375000014765,"midi":42,"time":149.76297865885417,"velocity":0.3937007874015748},{"duration":0.061475375000014765,"midi":40,"time":149.99863426302082,"velocity":0.3937007874015748},{"duration":0.061475375000014765,"midi":61,"time":150.0037572109375,"velocity":0.3937007874015748},{"duration":0.061475375000014765,"midi":42,"time":150.0037572109375,"velocity":0.3937007874015748},{"duration":0.06147537499998634,"midi":61,"time":150.24453576302082,"velocity":0.3937007874015748},{"duration":0.06147537499998634,"midi":42,"time":150.24453576302082,"velocity":0.3937007874015748},{"duration":0.061475375000014765,"midi":36,"time":150.25478165885417,"velocity":0.3937007874015748},{"duration":0.06147537499998634,"midi":42,"time":150.49043726302082,"velocity":0.3937007874015748},{"duration":0.06147537499998634,"midi":61,"time":150.50068315885417,"velocity":0.3937007874015748},{"duration":0.06147537499998634,"midi":36,"time":150.73121581510418,"velocity":0.3937007874015748},{"duration":0.06147537499998634,"midi":42,"time":150.73633876302083,"velocity":0.3937007874015748},{"duration":0.06147537499998634,"midi":40,"time":150.98224026302083,"velocity":0.3937007874015748},{"duration":0.06147537499998634,"midi":42,"time":150.98224026302083,"velocity":0.3937007874015748},{"duration":0.06147537499998634,"midi":61,"time":150.99248615885418,"velocity":0.3937007874015748},{"duration":0.06147537499998634,"midi":61,"time":151.22814176302083,"velocity":0.3937007874015748},{"duration":0.06147537499998634,"midi":42,"time":151.22814176302083,"velocity":0.3937007874015748},{"duration":0.06147537499998634,"midi":36,"time":151.22814176302083,"velocity":0.3937007874015748},{"duration":0.06147537499998634,"midi":36,"time":151.47404326302083,"velocity":0.3937007874015748},{"duration":0.06147537499998634,"midi":42,"time":151.47404326302083,"velocity":0.3937007874015748},{"duration":0.06147537499998634,"midi":61,"time":151.47404326302083,"velocity":0.3937007874015748},{"duration":0.06147537499998634,"midi":36,"time":151.71994476302083,"velocity":0.3937007874015748},{"duration":0.06147537499998634,"midi":42,"time":151.71994476302083,"velocity":0.3937007874015748},{"duration":0.061475375000014765,"midi":40,"time":151.9658462630208,"velocity":0.3937007874015748},{"duration":0.061475375000014765,"midi":42,"time":151.9658462630208,"velocity":0.3937007874015748},{"duration":0.061475375000014765,"midi":61,"time":151.9658462630208,"velocity":0.3937007874015748},{"duration":0.061475375000014765,"midi":36,"time":152.20662481510416,"velocity":0.3937007874015748},{"duration":0.061475375000014765,"midi":61,"time":152.2117477630208,"velocity":0.3937007874015748},{"duration":0.061475375000014765,"midi":42,"time":152.2117477630208,"velocity":0.3937007874015748},{"duration":0.061475375000014765,"midi":42,"time":152.4576492630208,"velocity":0.3937007874015748},{"duration":0.061475375000014765,"midi":61,"time":152.4576492630208,"velocity":0.3937007874015748},{"duration":0.061475375000014765,"midi":36,"time":152.4576492630208,"velocity":0.3937007874015748},{"duration":0.061475375000014765,"midi":61,"time":152.69842781510417,"velocity":0.3937007874015748},{"duration":0.061475375000014765,"midi":42,"time":152.70355076302081,"velocity":0.3937007874015748},{"duration":0.061475375000014765,"midi":40,"time":152.94432931510417,"velocity":0.3937007874015748},{"duration":0.061475375000014765,"midi":61,"time":152.94945226302082,"velocity":0.3937007874015748},{"duration":0.061475375000014765,"midi":42,"time":152.9545752109375,"velocity":0.3937007874015748},{"duration":0.061475375000014765,"midi":42,"time":153.19535376302082,"velocity":0.3937007874015748},{"duration":0.061475375000014765,"midi":61,"time":153.19535376302082,"velocity":0.3937007874015748},{"duration":0.06147537499998634,"midi":61,"time":153.44125526302082,"velocity":0.3937007874015748},{"duration":0.06147537499998634,"midi":42,"time":153.44125526302082,"velocity":0.3937007874015748},{"duration":0.06147537499998634,"midi":36,"time":153.44125526302082,"velocity":0.3937007874015748},{"duration":0.06147537499998634,"midi":42,"time":153.68203381510418,"velocity":0.3937007874015748},{"duration":0.06147537499998634,"midi":40,"time":153.92793531510418,"velocity":0.3937007874015748},{"duration":0.06147537499998634,"midi":61,"time":153.93305826302083,"velocity":0.3937007874015748},{"duration":0.06147537499998634,"midi":42,"time":153.93305826302083,"velocity":0.3937007874015748},{"duration":0.06147537499998634,"midi":36,"time":154.17895976302083,"velocity":0.3937007874015748},{"duration":0.06147537499998634,"midi":61,"time":154.17895976302083,"velocity":0.3937007874015748},{"duration":0.06147537499998634,"midi":42,"time":154.17895976302083,"velocity":0.3937007874015748},{"duration":0.06147537499998634,"midi":61,"time":154.42486126302083,"velocity":0.3937007874015748},{"duration":0.06147537499998634,"midi":42,"time":154.42486126302083,"velocity":0.3937007874015748},{"duration":0.06147537499998634,"midi":36,"time":154.66563981510419,"velocity":0.3937007874015748},{"duration":0.06147537499998634,"midi":42,"time":154.67076276302083,"velocity":0.3937007874015748},{"duration":0.06147537499998634,"midi":42,"time":154.91666426302083,"velocity":0.3937007874015748},{"duration":0.06147537499998634,"midi":40,"time":154.91666426302083,"velocity":0.3937007874015748},{"duration":0.06147537499998634,"midi":61,"time":154.9217872109375,"velocity":0.3937007874015748},{"duration":0.061475375000014765,"midi":42,"time":155.15744281510416,"velocity":0.3937007874015748},{"duration":0.061475375000014765,"midi":36,"time":155.1625657630208,"velocity":0.3937007874015748},{"duration":0.061475375000014765,"midi":61,"time":155.1625657630208,"velocity":0.3937007874015748},{"duration":0.061475375000014765,"midi":42,"time":155.4084672630208,"velocity":0.3937007874015748},{"duration":0.061475375000014765,"midi":61,"time":155.4084672630208,"velocity":0.3937007874015748},{"duration":0.061475375000014765,"midi":36,"time":155.41871315885416,"velocity":0.3937007874015748},{"duration":0.061475375000014765,"midi":42,"time":155.6543687630208,"velocity":0.3937007874015748},{"duration":0.061475375000014765,"midi":36,"time":155.6594917109375,"velocity":0.3937007874015748},{"duration":0.061475375000014765,"midi":61,"time":155.89514731510417,"velocity":0.3937007874015748},{"duration":0.061475375000014765,"midi":42,"time":155.90027026302081,"velocity":0.3937007874015748},{"duration":0.061475375000014765,"midi":40,"time":155.90027026302081,"velocity":0.3937007874015748},{"duration":0.061475375000014765,"midi":61,"time":156.14617176302082,"velocity":0.3937007874015748},{"duration":0.061475375000014765,"midi":42,"time":156.15641765885417,"velocity":0.3937007874015748},{"duration":0.061475375000014765,"midi":36,"time":156.15641765885417,"velocity":0.3937007874015748},{"duration":0.061475375000014765,"midi":61,"time":156.39207326302082,"velocity":0.3937007874015748},{"duration":0.061475375000014765,"midi":36,"time":156.40231915885417,"velocity":0.3937007874015748},{"duration":0.061475375000014765,"midi":42,"time":156.40231915885417,"velocity":0.3937007874015748},{"duration":0.06147537499998634,"midi":61,"time":156.63285181510417,"velocity":0.3937007874015748},{"duration":0.061475375000014765,"midi":42,"time":156.64822065885417,"velocity":0.3937007874015748},{"duration":0.06147537499998634,"midi":61,"time":156.88387626302082,"velocity":0.3937007874015748},{"duration":0.06147537499998634,"midi":40,"time":156.8889992109375,"velocity":0.3937007874015748},{"duration":0.06147537499998634,"midi":42,"time":156.89412215885417,"velocity":0.3937007874015748},{"duration":0.06147537499998634,"midi":61,"time":157.12977776302083,"velocity":0.3937007874015748},{"duration":0.06147537499998634,"midi":42,"time":157.14002365885418,"velocity":0.3937007874015748},{"duration":0.06147537499998634,"midi":36,"time":157.37567926302083,"velocity":0.3937007874015748},{"duration":0.06147537499998634,"midi":61,"time":157.38592515885418,"velocity":0.3937007874015748},{"duration":0.06147537499998634,"midi":42,"time":157.38592515885418,"velocity":0.3937007874015748},{"duration":0.06147537499998634,"midi":42,"time":157.6267037109375,"velocity":0.3937007874015748},{"duration":0.06147537499998634,"midi":40,"time":157.86748226302083,"velocity":0.3937007874015748},{"duration":0.06147537499998634,"midi":61,"time":157.87772815885418,"velocity":0.3937007874015748},{"duration":0.06147537499998634,"midi":42,"time":157.87772815885418,"velocity":0.3937007874015748},{"duration":0.06147537499998634,"midi":42,"time":158.11338376302083,"velocity":0.3937007874015748},{"duration":0.06147537499998634,"midi":61,"time":158.11338376302083,"velocity":0.3937007874015748},{"duration":0.06147537499998634,"midi":36,"time":158.1185067109375,"velocity":0.3937007874015748},{"duration":0.061475375000014765,"midi":42,"time":158.3592852630208,"velocity":0.3937007874015748},{"duration":0.061475375000014765,"midi":61,"time":158.36440821093748,"velocity":0.3937007874015748},{"duration":0.061475375000014765,"midi":42,"time":158.60006381510416,"velocity":0.3937007874015748},{"duration":0.061475375000014765,"midi":36,"time":158.6051867630208,"velocity":0.3937007874015748},{"duration":0.061475375000014765,"midi":61,"time":158.84596531510417,"velocity":0.3937007874015748},{"duration":0.061475375000014765,"midi":42,"time":158.8510882630208,"velocity":0.3937007874015748},{"duration":0.061475375000014765,"midi":40,"time":158.8510882630208,"velocity":0.3937007874015748},{"duration":0.061475375000014765,"midi":42,"time":159.09186681510417,"velocity":0.3937007874015748},{"duration":0.061475375000014765,"midi":61,"time":159.09698976302082,"velocity":0.3937007874015748},{"duration":0.061475375000014765,"midi":36,"time":159.1021127109375,"velocity":0.3937007874015748},{"duration":0.061475375000014765,"midi":42,"time":159.33776831510417,"velocity":0.3937007874015748},{"duration":0.061475375000014765,"midi":61,"time":159.34289126302082,"velocity":0.3937007874015748},{"duration":0.061475375000014765,"midi":36,"time":159.35313715885417,"velocity":0.3937007874015748},{"duration":0.06147537499998634,"midi":42,"time":159.58366981510417,"velocity":0.3937007874015748},{"duration":0.061475375000014765,"midi":36,"time":159.59903865885417,"velocity":0.3937007874015748},{"duration":0.06147537499998634,"midi":42,"time":159.83469426302082,"velocity":0.3937007874015748},{"duration":0.061475375000014765,"midi":40,"time":159.84494015885417,"velocity":0.3937007874015748},{"duration":0.061475375000014765,"midi":61,"time":159.84494015885417,"velocity":0.3937007874015748},{"duration":0.06147537499998634,"midi":42,"time":160.08059576302082,"velocity":0.3937007874015748},{"duration":0.06147537499998634,"midi":61,"time":160.0857187109375,"velocity":0.3937007874015748},{"duration":0.06147537499998634,"midi":36,"time":160.09084165885417,"velocity":0.3937007874015748},{"duration":0.06147537499998634,"midi":42,"time":160.32649726302083,"velocity":0.3937007874015748},{"duration":0.06147537499998634,"midi":61,"time":160.33674315885418,"velocity":0.3937007874015748},{"duration":0.06147537499998634,"midi":36,"time":160.34186610677082,"velocity":0.3937007874015748},{"duration":0.06147537499998634,"midi":61,"time":160.57239876302083,"velocity":0.3937007874015748},{"duration":0.06147537499998634,"midi":42,"time":160.57239876302083,"velocity":0.3937007874015748},{"duration":0.06147537499998634,"midi":42,"time":160.81830026302083,"velocity":0.3937007874015748},{"duration":0.06147537499998634,"midi":40,"time":160.81830026302083,"velocity":0.3937007874015748},{"duration":0.06147537499998634,"midi":61,"time":160.81830026302083,"velocity":0.3937007874015748},{"duration":0.06147537499998634,"midi":42,"time":161.0590788151042,"velocity":0.3937007874015748},{"duration":0.06147537499998634,"midi":61,"time":161.06420176302083,"velocity":0.3937007874015748},{"duration":0.061475375000014765,"midi":42,"time":161.30498031510416,"velocity":0.3937007874015748},{"duration":0.06147537499998634,"midi":61,"time":161.3152262109375,"velocity":0.3937007874015748},{"duration":0.06147537499998634,"midi":36,"time":161.3152262109375,"velocity":0.3937007874015748},{"duration":0.061475375000014765,"midi":42,"time":161.55088181510416,"velocity":0.3937007874015748},{"duration":0.061475375000014765,"midi":42,"time":161.8019062630208,"velocity":0.3937007874015748},{"duration":0.061475375000014765,"midi":40,"time":161.8019062630208,"velocity":0.3937007874015748},{"duration":0.061475375000014765,"midi":61,"time":161.81215215885416,"velocity":0.3937007874015748},{"duration":0.061475375000014765,"midi":42,"time":162.04268481510417,"velocity":0.3937007874015748},{"duration":0.061475375000014765,"midi":61,"time":162.0529307109375,"velocity":0.3937007874015748},{"duration":0.061475375000014765,"midi":42,"time":162.28858631510417,"velocity":0.3937007874015748},{"duration":0.061475375000014765,"midi":61,"time":162.29370926302082,"velocity":0.3937007874015748},{"duration":0.061475375000014765,"midi":36,"time":162.29370926302082,"velocity":0.3937007874015748},{"duration":0.061475375000014765,"midi":42,"time":162.53448781510417,"velocity":0.3937007874015748},{"duration":0.06147537499998634,"midi":42,"time":162.78038931510417,"velocity":0.3937007874015748},{"duration":0.061475375000014765,"midi":40,"time":162.78551226302082,"velocity":0.3937007874015748},{"duration":0.061475375000014765,"midi":61,"time":162.78551226302082,"velocity":0.3937007874015748},{"duration":0.06147537499998634,"midi":61,"time":163.02629081510418,"velocity":0.3937007874015748},{"duration":0.06147537499998634,"midi":42,"time":163.02629081510418,"velocity":0.3937007874015748},{"duration":0.06147537499998634,"midi":42,"time":163.27219231510418,"velocity":0.3937007874015748},{"duration":0.06147537499998634,"midi":61,"time":163.27731526302082,"velocity":0.3937007874015748},{"duration":0.06147537499998634,"midi":36,"time":163.2824382109375,"velocity":0.3937007874015748},{"duration":0.06147537499998634,"midi":42,"time":163.52321676302083,"velocity":0.3937007874015748},{"duration":0.06147537499998634,"midi":36,"time":163.52321676302083,"velocity":0.3937007874015748},{"duration":0.06147537499998634,"midi":61,"time":163.76911826302083,"velocity":0.3937007874015748},{"duration":0.06147537499998634,"midi":42,"time":163.76911826302083,"velocity":0.3937007874015748},{"duration":0.06147537499998634,"midi":40,"time":163.76911826302083,"velocity":0.3937007874015748},{"duration":0.06147537499998634,"midi":42,"time":164.01501976302083,"velocity":0.3937007874015748},{"duration":0.06147537499998634,"midi":36,"time":164.01501976302083,"velocity":0.3937007874015748},{"duration":0.06147537499998634,"midi":61,"time":164.01501976302083,"velocity":0.3937007874015748},{"duration":0.06147537499998634,"midi":61,"time":164.26092126302083,"velocity":0.3937007874015748},{"duration":0.06147537499998634,"midi":42,"time":164.26092126302083,"velocity":0.3937007874015748},{"duration":0.06147537499998634,"midi":36,"time":164.2660442109375,"velocity":0.3937007874015748},{"duration":0.061475375000014765,"midi":42,"time":164.5068227630208,"velocity":0.3937007874015748},{"duration":0.061475375000014765,"midi":61,"time":164.5068227630208,"velocity":0.3937007874015748},{"duration":0.061475375000014765,"midi":40,"time":164.6297735130208,"velocity":0.3937007874015748},{"duration":0.061475375000014765,"midi":40,"time":164.7527242630208,"velocity":0.3937007874015748},{"duration":0.061475375000014765,"midi":61,"time":164.7527242630208,"velocity":0.3937007874015748},{"duration":0.061475375000014765,"midi":42,"time":164.7527242630208,"velocity":0.3937007874015748},{"duration":0.061475375000014765,"midi":40,"time":164.9986257630208,"velocity":0.3937007874015748},{"duration":0.061475375000014765,"midi":36,"time":165.2445272630208,"velocity":0.3937007874015748},{"duration":0.061475375000014765,"midi":61,"time":165.2445272630208,"velocity":0.3937007874015748},{"duration":0.061475375000014765,"midi":42,"time":165.2445272630208,"velocity":0.3937007874015748},{"duration":0.061475375000014765,"midi":42,"time":165.49042876302082,"velocity":0.3937007874015748},{"duration":0.061475375000014765,"midi":61,"time":165.73633026302082,"velocity":0.3937007874015748},{"duration":0.061475375000014765,"midi":42,"time":165.73633026302082,"velocity":0.3937007874015748},{"duration":0.061475375000014765,"midi":40,"time":165.73633026302082,"velocity":0.3937007874015748},{"duration":0.06147537499998634,"midi":61,"time":165.98223176302082,"velocity":0.3937007874015748},{"duration":0.06147537499998634,"midi":42,"time":165.98223176302082,"velocity":0.3937007874015748},{"duration":0.06147537499998634,"midi":36,"time":165.98223176302082,"velocity":0.3937007874015748},{"duration":0.06147537499998634,"midi":61,"time":166.22813326302082,"velocity":0.3937007874015748},{"duration":0.06147537499998634,"midi":42,"time":166.22813326302082,"velocity":0.3937007874015748},{"duration":0.06147537499998634,"midi":36,"time":166.23837915885417,"velocity":0.3937007874015748},{"duration":0.06147537499998634,"midi":42,"time":166.47403476302082,"velocity":0.3937007874015748},{"duration":0.06147537499998634,"midi":36,"time":166.60723140885418,"velocity":0.3937007874015748},{"duration":0.06147537499998634,"midi":42,"time":166.71993626302083,"velocity":0.3937007874015748},{"duration":0.06147537499998634,"midi":40,"time":166.73018215885418,"velocity":0.3937007874015748},{"duration":0.06147537499998634,"midi":61,"time":166.73018215885418,"velocity":0.3937007874015748},{"duration":0.06147537499998634,"midi":42,"time":166.96583776302083,"velocity":0.3937007874015748},{"duration":0.06147537499998634,"midi":61,"time":166.9709607109375,"velocity":0.3937007874015748},{"duration":0.06147537499998634,"midi":36,"time":166.97608365885418,"velocity":0.3937007874015748},{"duration":0.06147537499998634,"midi":42,"time":167.21173926302083,"velocity":0.3937007874015748},{"duration":0.06147537499998634,"midi":61,"time":167.22198515885418,"velocity":0.3937007874015748},{"duration":0.06147537499998634,"midi":36,"time":167.22198515885418,"velocity":0.3937007874015748},{"duration":0.06147537499998634,"midi":42,"time":167.45764076302083,"velocity":0.3937007874015748},{"duration":0.061475375000014765,"midi":40,"time":167.70866521093748,"velocity":0.3937007874015748},{"duration":0.06147537499998634,"midi":61,"time":167.7137881588542,"velocity":0.3937007874015748},{"duration":0.06147537499998634,"midi":42,"time":167.7137881588542,"velocity":0.3937007874015748},{"duration":0.061475375000014765,"midi":42,"time":167.9494437630208,"velocity":0.3937007874015748},{"duration":0.061475375000014765,"midi":61,"time":167.95456671093748,"velocity":0.3937007874015748},{"duration":0.061475375000014765,"midi":42,"time":168.1953452630208,"velocity":0.3937007874015748},{"duration":0.061475375000014765,"midi":36,"time":168.2004682109375,"velocity":0.3937007874015748},{"duration":0.061475375000014765,"midi":61,"time":168.20559115885416,"velocity":0.3937007874015748},{"duration":0.061475375000014765,"midi":42,"time":168.4412467630208,"velocity":0.3937007874015748},{"duration":0.061475375000014765,"midi":40,"time":168.68714826302082,"velocity":0.3937007874015748},{"duration":0.061475375000014765,"midi":61,"time":168.6922712109375,"velocity":0.3937007874015748},{"duration":0.061475375000014765,"midi":42,"time":168.69739415885417,"velocity":0.3937007874015748},{"duration":0.061475375000014765,"midi":42,"time":168.9381727109375,"velocity":0.3937007874015748},{"duration":0.06147537499998634,"midi":36,"time":169.17895126302082,"velocity":0.3937007874015748},{"duration":0.061475375000014765,"midi":42,"time":169.1840742109375,"velocity":0.3937007874015748},{"duration":0.061475375000014765,"midi":61,"time":169.18919715885417,"velocity":0.3937007874015748},{"duration":0.06147537499998634,"midi":42,"time":169.42485276302082,"velocity":0.3937007874015748},{"duration":0.06147537499998634,"midi":61,"time":169.66563131510418,"velocity":0.3937007874015748},{"duration":0.06147537499998634,"midi":40,"time":169.67075426302083,"velocity":0.3937007874015748},{"duration":0.06147537499998634,"midi":42,"time":169.67075426302083,"velocity":0.3937007874015748},{"duration":0.06147537499998634,"midi":61,"time":169.91665576302083,"velocity":0.3937007874015748},{"duration":0.06147537499998634,"midi":42,"time":169.91665576302083,"velocity":0.3937007874015748},{"duration":0.06147537499998634,"midi":36,"time":169.91665576302083,"velocity":0.3937007874015748},{"duration":0.06147537499998634,"midi":42,"time":170.16255726302083,"velocity":0.3937007874015748},{"duration":0.06147537499998634,"midi":61,"time":170.1676802109375,"velocity":0.3937007874015748},{"duration":0.06147537499998634,"midi":36,"time":170.17280315885418,"velocity":0.3937007874015748},{"duration":0.06147537499998634,"midi":42,"time":170.40845876302083,"velocity":0.3937007874015748},{"duration":0.06147537499998634,"midi":36,"time":170.53140951302083,"velocity":0.3937007874015748},{"duration":0.06147537499998634,"midi":61,"time":170.65436026302083,"velocity":0.3937007874015748},{"duration":0.06147537499998634,"midi":42,"time":170.65436026302083,"velocity":0.3937007874015748},{"duration":0.06147537499998634,"midi":40,"time":170.6594832109375,"velocity":0.3937007874015748},{"duration":0.061475375000014765,"midi":42,"time":170.9002617630208,"velocity":0.3937007874015748},{"duration":0.061475375000014765,"midi":36,"time":170.90538471093748,"velocity":0.3937007874015748},{"duration":0.06147537499998634,"midi":61,"time":170.9105076588542,"velocity":0.3937007874015748},{"duration":0.061475375000014765,"midi":42,"time":171.1461632630208,"velocity":0.3937007874015748},{"duration":0.061475375000014765,"midi":61,"time":171.15640915885416,"velocity":0.3937007874015748},{"duration":0.061475375000014765,"midi":36,"time":171.15640915885416,"velocity":0.3937007874015748},{"duration":0.061475375000014765,"midi":42,"time":171.3920647630208,"velocity":0.3937007874015748},{"duration":0.061475375000014765,"midi":40,"time":171.63796626302081,"velocity":0.3937007874015748},{"duration":0.061475375000014765,"midi":61,"time":171.63796626302081,"velocity":0.3937007874015748},{"duration":0.061475375000014765,"midi":42,"time":171.6430892109375,"velocity":0.3937007874015748},{"duration":0.061475375000014765,"midi":61,"time":171.8889907109375,"velocity":0.3937007874015748},{"duration":0.061475375000014765,"midi":42,"time":171.89411365885417,"velocity":0.3937007874015748},{"duration":0.061475375000014765,"midi":42,"time":172.12976926302082,"velocity":0.3937007874015748},{"duration":0.061475375000014765,"midi":36,"time":172.12976926302082,"velocity":0.3937007874015748},{"duration":0.061475375000014765,"midi":61,"time":172.14513810677082,"velocity":0.3937007874015748},{"duration":0.06147537499998634,"midi":42,"time":172.37567076302082,"velocity":0.3937007874015748},{"duration":0.06147537499998634,"midi":40,"time":172.62157226302082,"velocity":0.3937007874015748},{"duration":0.06147537499998634,"midi":61,"time":172.62157226302082,"velocity":0.3937007874015748},{"duration":0.06147537499998634,"midi":42,"time":172.62157226302082,"velocity":0.3937007874015748},{"duration":0.06147537499998634,"midi":42,"time":172.86747376302083,"velocity":0.3937007874015748},{"duration":0.06147537499998634,"midi":42,"time":173.11337526302083,"velocity":0.3937007874015748},{"duration":0.06147537499998634,"midi":36,"time":173.11337526302083,"velocity":0.3937007874015748},{"duration":0.06147537499998634,"midi":61,"time":173.12362115885418,"velocity":0.3937007874015748},{"duration":0.06147537499998634,"midi":42,"time":173.35927676302083,"velocity":0.3937007874015748},{"duration":0.06147537499998634,"midi":61,"time":173.60517826302083,"velocity":0.3937007874015748},{"duration":0.06147537499998634,"midi":40,"time":173.60517826302083,"velocity":0.3937007874015748},{"duration":0.06147537499998634,"midi":42,"time":173.6103012109375,"velocity":0.3937007874015748},{"duration":0.06147537499998634,"midi":36,"time":173.85107976302083,"velocity":0.3937007874015748},{"duration":0.06147537499998634,"midi":61,"time":173.8562027109375,"velocity":0.3937007874015748},{"duration":0.06147537499998634,"midi":42,"time":173.86132565885418,"velocity":0.3937007874015748},{"duration":0.06147537499998634,"midi":61,"time":174.1072271588542,"velocity":0.3937007874015748},{"duration":0.06147537499998634,"midi":42,"time":174.1072271588542,"velocity":0.3937007874015748},{"duration":0.06147537499998634,"midi":36,"time":174.1072271588542,"velocity":0.3937007874015748},{"duration":0.061475375000014765,"midi":42,"time":174.3428827630208,"velocity":0.3937007874015748},{"duration":0.061475375000014765,"midi":36,"time":174.47607940885416,"velocity":0.3937007874015748},{"duration":0.061475375000014765,"midi":61,"time":174.5887842630208,"velocity":0.3937007874015748},{"duration":0.061475375000014765,"midi":42,"time":174.5939072109375,"velocity":0.3937007874015748},{"duration":0.061475375000014765,"midi":40,"time":174.59903015885416,"velocity":0.3937007874015748},{"duration":0.061475375000014765,"midi":61,"time":174.8398087109375,"velocity":0.3937007874015748},{"duration":0.061475375000014765,"midi":42,"time":174.84493165885416,"velocity":0.3937007874015748},{"duration":0.061475375000014765,"midi":36,"time":174.84493165885416,"velocity":0.3937007874015748},{"duration":0.061475375000014765,"midi":42,"time":175.08058726302082,"velocity":0.3937007874015748},{"duration":0.061475375000014765,"midi":61,"time":175.09083315885417,"velocity":0.3937007874015748},{"duration":0.061475375000014765,"midi":36,"time":175.09083315885417,"velocity":0.3937007874015748},{"duration":0.061475375000014765,"midi":42,"time":175.33673465885417,"velocity":0.3937007874015748},{"duration":0.06147537499998634,"midi":61,"time":175.57239026302082,"velocity":0.3937007874015748},{"duration":0.061475375000014765,"midi":40,"time":175.58263615885417,"velocity":0.3937007874015748},{"duration":0.061475375000014765,"midi":42,"time":175.58263615885417,"velocity":0.3937007874015748},{"duration":0.06147537499998634,"midi":61,"time":175.81829176302082,"velocity":0.3937007874015748},{"duration":0.06147537499998634,"midi":42,"time":175.8234147109375,"velocity":0.3937007874015748},{"duration":0.06147537499998634,"midi":42,"time":176.0693162109375,"velocity":0.3937007874015748},{"duration":0.06147537499998634,"midi":61,"time":176.07443915885418,"velocity":0.3937007874015748},{"duration":0.06147537499998634,"midi":36,"time":176.07443915885418,"velocity":0.3937007874015748},{"duration":0.06147537499998634,"midi":42,"time":176.31009476302083,"velocity":0.3937007874015748},{"duration":0.06147537499998634,"midi":61,"time":176.55599626302083,"velocity":0.3937007874015748},{"duration":0.06147537499998634,"midi":42,"time":176.55599626302083,"velocity":0.3937007874015748},{"duration":0.06147537499998634,"midi":40,"time":176.55599626302083,"velocity":0.3937007874015748},{"duration":0.06147537499998634,"midi":42,"time":176.80189776302083,"velocity":0.3937007874015748},{"duration":0.061475375000014765,"midi":42,"time":177.0477992630208,"velocity":0.3937007874015748},{"duration":0.061475375000014765,"midi":36,"time":177.0477992630208,"velocity":0.3937007874015748},{"duration":0.061475375000014765,"midi":61,"time":177.0477992630208,"velocity":0.3937007874015748},{"duration":0.061475375000014765,"midi":42,"time":177.2937007630208,"velocity":0.3937007874015748},{"duration":0.061475375000014765,"midi":61,"time":177.5396022630208,"velocity":0.3937007874015748},{"duration":0.061475375000014765,"midi":42,"time":177.5396022630208,"velocity":0.3937007874015748},{"duration":0.061475375000014765,"midi":40,"time":177.5396022630208,"velocity":0.3937007874015748},{"duration":0.061475375000014765,"midi":42,"time":177.7855037630208,"velocity":0.3937007874015748},{"duration":0.061475375000014765,"midi":61,"time":177.7855037630208,"velocity":0.3937007874015748},{"duration":0.061475375000014765,"midi":61,"time":178.03140526302082,"velocity":0.3937007874015748},{"duration":0.061475375000014765,"midi":42,"time":178.03140526302082,"velocity":0.3937007874015748},{"duration":0.061475375000014765,"midi":36,"time":178.04165115885417,"velocity":0.3937007874015748},{"duration":0.061475375000014765,"midi":42,"time":178.27730676302082,"velocity":0.3937007874015748},{"duration":0.061475375000014765,"midi":61,"time":178.52320826302082,"velocity":0.3937007874015748},{"duration":0.061475375000014765,"midi":42,"time":178.52320826302082,"velocity":0.3937007874015748},{"duration":0.061475375000014765,"midi":40,"time":178.52320826302082,"velocity":0.3937007874015748},{"duration":0.06147537499998634,"midi":42,"time":178.76910976302082,"velocity":0.3937007874015748},{"duration":0.06147537499998634,"midi":61,"time":178.7742327109375,"velocity":0.3937007874015748},{"duration":0.06147537499998634,"midi":42,"time":179.01501126302082,"velocity":0.3937007874015748},{"duration":0.06147537499998634,"midi":36,"time":179.0201342109375,"velocity":0.3937007874015748},{"duration":0.06147537499998634,"midi":61,"time":179.02525715885417,"velocity":0.3937007874015748},{"duration":0.06147537499998634,"midi":42,"time":179.26091276302083,"velocity":0.3937007874015748},{"duration":0.06147537499998634,"midi":42,"time":179.50681426302083,"velocity":0.3937007874015748},{"duration":0.06147537499998634,"midi":40,"time":179.50681426302083,"velocity":0.3937007874015748},{"duration":0.06147537499998634,"midi":61,"time":179.50681426302083,"velocity":0.3937007874015748},{"duration":0.06147537499998634,"midi":42,"time":179.75271576302083,"velocity":0.3937007874015748},{"duration":0.06147537499998634,"midi":61,"time":179.75271576302083,"velocity":0.3937007874015748},{"duration":0.06147537499998634,"midi":42,"time":179.99861726302083,"velocity":0.3937007874015748},{"duration":0.06147537499998634,"midi":45,"time":179.99861726302083,"velocity":0.3937007874015748},{"duration":0.06147537499998634,"midi":40,"time":179.99861726302083,"velocity":0.3937007874015748},{"duration":0.06147537499998634,"midi":61,"time":180.00886315885418,"velocity":0.3937007874015748},{"duration":0.061475375000014765,"midi":45,"time":180.2445187630208,"velocity":0.3937007874015748},{"duration":0.061475375000014765,"midi":40,"time":180.2445187630208,"velocity":0.3937007874015748},{"duration":0.06147537499998634,"midi":61,"time":180.25476465885419,"velocity":0.3937007874015748},{"duration":0.061475375000014765,"midi":61,"time":180.50066615885416,"velocity":0.3937007874015748},{"duration":0.061475375000014765,"midi":40,"time":180.50066615885416,"velocity":0.3937007874015748},{"duration":0.061475375000014765,"midi":45,"time":180.50066615885416,"velocity":0.3937007874015748},{"duration":0.061475375000014765,"midi":42,"time":180.7516906067708,"velocity":0.3937007874015748},{"duration":0.061475375000014765,"midi":42,"time":180.9822232630208,"velocity":0.3937007874015748},{"duration":0.061475375000014765,"midi":36,"time":180.9822232630208,"velocity":0.3937007874015748},{"duration":0.061475375000014765,"midi":61,"time":180.9822232630208,"velocity":0.3937007874015748},{"duration":0.061475375000014765,"midi":42,"time":181.22812476302082,"velocity":0.3937007874015748},{"duration":0.061475375000014765,"midi":42,"time":181.47402626302082,"velocity":0.3937007874015748},{"duration":0.061475375000014765,"midi":40,"time":181.47402626302082,"velocity":0.3937007874015748},{"duration":0.061475375000014765,"midi":61,"time":181.47402626302082,"velocity":0.3937007874015748},{"duration":0.06147537499998634,"midi":61,"time":181.71992776302082,"velocity":0.3937007874015748},{"duration":0.06147537499998634,"midi":42,"time":181.71992776302082,"velocity":0.3937007874015748},{"duration":0.06147537499998634,"midi":36,"time":181.71992776302082,"velocity":0.3937007874015748},{"duration":0.06147537499998634,"midi":42,"time":181.96582926302082,"velocity":0.3937007874015748},{"duration":0.06147537499998634,"midi":61,"time":181.96582926302082,"velocity":0.3937007874015748},{"duration":0.06147537499998634,"midi":36,"time":181.97607515885417,"velocity":0.3937007874015748},{"duration":0.06147537499998634,"midi":42,"time":182.21173076302082,"velocity":0.3937007874015748},{"duration":0.06147537499998634,"midi":36,"time":182.34492740885418,"velocity":0.3937007874015748},{"duration":0.06147537499998634,"midi":42,"time":182.45763226302083,"velocity":0.3937007874015748},{"duration":0.06147537499998634,"midi":40,"time":182.46787815885418,"velocity":0.3937007874015748},{"duration":0.06147537499998634,"midi":61,"time":182.46787815885418,"velocity":0.3937007874015748},{"duration":0.06147537499998634,"midi":42,"time":182.70353376302083,"velocity":0.3937007874015748},{"duration":0.06147537499998634,"midi":61,"time":182.7086567109375,"velocity":0.3937007874015748},{"duration":0.06147537499998634,"midi":36,"time":182.71377965885418,"velocity":0.3937007874015748},{"duration":0.06147537499998634,"midi":42,"time":182.94943526302083,"velocity":0.3937007874015748},{"duration":0.06147537499998634,"midi":61,"time":182.95968115885418,"velocity":0.3937007874015748},{"duration":0.06147537499998634,"midi":36,"time":182.95968115885418,"velocity":0.3937007874015748},{"duration":0.06147537499998634,"midi":42,"time":183.19533676302083,"velocity":0.3937007874015748},{"duration":0.061475375000014765,"midi":40,"time":183.44636121093748,"velocity":0.3937007874015748},{"duration":0.06147537499998634,"midi":61,"time":183.45148415885419,"velocity":0.3937007874015748},{"duration":0.06147537499998634,"midi":42,"time":183.45148415885419,"velocity":0.3937007874015748},{"duration":0.061475375000014765,"midi":42,"time":183.6871397630208,"velocity":0.3937007874015748},{"duration":0.061475375000014765,"midi":61,"time":183.69226271093748,"velocity":0.3937007874015748},{"duration":0.061475375000014765,"midi":42,"time":183.9330412630208,"velocity":0.3937007874015748},{"duration":0.061475375000014765,"midi":36,"time":183.9381642109375,"velocity":0.3937007874015748},{"duration":0.061475375000014765,"midi":61,"time":183.94328715885416,"velocity":0.3937007874015748},{"duration":0.061475375000014765,"midi":42,"time":184.1789427630208,"velocity":0.3937007874015748},{"duration":0.061475375000014765,"midi":40,"time":184.42484426302082,"velocity":0.3937007874015748},{"duration":0.061475375000014765,"midi":61,"time":184.4299672109375,"velocity":0.3937007874015748},{"duration":0.061475375000014765,"midi":42,"time":184.43509015885417,"velocity":0.3937007874015748},{"duration":0.061475375000014765,"midi":42,"time":184.6758687109375,"velocity":0.3937007874015748},{"duration":0.06147537499998634,"midi":36,"time":184.91664726302082,"velocity":0.3937007874015748},{"duration":0.061475375000014765,"midi":42,"time":184.9217702109375,"velocity":0.3937007874015748},{"duration":0.061475375000014765,"midi":61,"time":184.92689315885417,"velocity":0.3937007874015748},{"duration":0.06147537499998634,"midi":42,"time":185.16254876302082,"velocity":0.3937007874015748},{"duration":0.06147537499998634,"midi":61,"time":185.40332731510418,"velocity":0.3937007874015748},{"duration":0.06147537499998634,"midi":42,"time":185.40845026302082,"velocity":0.3937007874015748},{"duration":0.06147537499998634,"midi":40,"time":185.40845026302082,"velocity":0.3937007874015748},{"duration":0.06147537499998634,"midi":61,"time":185.65435176302083,"velocity":0.3937007874015748},{"duration":0.06147537499998634,"midi":42,"time":185.65435176302083,"velocity":0.3937007874015748},{"duration":0.06147537499998634,"midi":36,"time":185.65435176302083,"velocity":0.3937007874015748},{"duration":0.06147537499998634,"midi":42,"time":185.90025326302083,"velocity":0.3937007874015748},{"duration":0.06147537499998634,"midi":61,"time":185.9053762109375,"velocity":0.3937007874015748},{"duration":0.06147537499998634,"midi":36,"time":185.91049915885418,"velocity":0.3937007874015748},{"duration":0.06147537499998634,"midi":42,"time":186.14615476302083,"velocity":0.3937007874015748},{"duration":0.06147537499998634,"midi":36,"time":186.26910551302083,"velocity":0.3937007874015748},{"duration":0.06147537499998634,"midi":61,"time":186.39205626302083,"velocity":0.3937007874015748},{"duration":0.06147537499998634,"midi":42,"time":186.39205626302083,"velocity":0.3937007874015748},{"duration":0.06147537499998634,"midi":40,"time":186.3971792109375,"velocity":0.3937007874015748},{"duration":0.061475375000014765,"midi":42,"time":186.6379577630208,"velocity":0.3937007874015748},{"duration":0.061475375000014765,"midi":36,"time":186.64308071093748,"velocity":0.3937007874015748},{"duration":0.06147537499998634,"midi":61,"time":186.6482036588542,"velocity":0.3937007874015748},{"duration":0.061475375000014765,"midi":42,"time":186.8838592630208,"velocity":0.3937007874015748},{"duration":0.061475375000014765,"midi":36,"time":186.89410515885416,"velocity":0.3937007874015748},{"duration":0.061475375000014765,"midi":61,"time":186.89410515885416,"velocity":0.3937007874015748},{"duration":0.061475375000014765,"midi":42,"time":187.1297607630208,"velocity":0.3937007874015748},{"duration":0.061475375000014765,"midi":61,"time":187.3756622630208,"velocity":0.3937007874015748},{"duration":0.061475375000014765,"midi":40,"time":187.3756622630208,"velocity":0.3937007874015748},{"duration":0.061475375000014765,"midi":42,"time":187.3807852109375,"velocity":0.3937007874015748},{"duration":0.061475375000014765,"midi":61,"time":187.6266867109375,"velocity":0.3937007874015748},{"duration":0.061475375000014765,"midi":42,"time":187.63180965885417,"velocity":0.3937007874015748},{"duration":0.061475375000014765,"midi":36,"time":187.86746526302082,"velocity":0.3937007874015748},{"duration":0.061475375000014765,"midi":42,"time":187.86746526302082,"velocity":0.3937007874015748},{"duration":0.061475375000014765,"midi":61,"time":187.88283410677082,"velocity":0.3937007874015748},{"duration":0.06147537499998634,"midi":42,"time":188.11336676302082,"velocity":0.3937007874015748},{"duration":0.06147537499998634,"midi":61,"time":188.35926826302082,"velocity":0.3937007874015748},{"duration":0.06147537499998634,"midi":42,"time":188.35926826302082,"velocity":0.3937007874015748},{"duration":0.06147537499998634,"midi":40,"time":188.35926826302082,"velocity":0.3937007874015748},{"duration":0.06147537499998634,"midi":42,"time":188.60516976302083,"velocity":0.3937007874015748},{"duration":0.06147537499998634,"midi":42,"time":188.85107126302083,"velocity":0.3937007874015748},{"duration":0.06147537499998634,"midi":36,"time":188.85107126302083,"velocity":0.3937007874015748},{"duration":0.06147537499998634,"midi":61,"time":188.86131715885418,"velocity":0.3937007874015748},{"duration":0.06147537499998634,"midi":42,"time":189.09697276302083,"velocity":0.3937007874015748},{"duration":0.06147537499998634,"midi":61,"time":189.34287426302083,"velocity":0.3937007874015748},{"duration":0.06147537499998634,"midi":40,"time":189.34287426302083,"velocity":0.3937007874015748},{"duration":0.06147537499998634,"midi":42,"time":189.3479972109375,"velocity":0.3937007874015748},{"duration":0.06147537499998634,"midi":36,"time":189.58877576302083,"velocity":0.3937007874015748},{"duration":0.06147537499998634,"midi":61,"time":189.5938987109375,"velocity":0.3937007874015748},{"duration":0.06147537499998634,"midi":42,"time":189.59902165885418,"velocity":0.3937007874015748},{"duration":0.06147537499998634,"midi":36,"time":189.8449231588542,"velocity":0.3937007874015748},{"duration":0.06147537499998634,"midi":42,"time":189.8449231588542,"velocity":0.3937007874015748},{"duration":0.06147537499998634,"midi":61,"time":189.8449231588542,"velocity":0.3937007874015748},{"duration":0.061475375000014765,"midi":42,"time":190.0805787630208,"velocity":0.3937007874015748},{"duration":0.061475375000014765,"midi":36,"time":190.21377540885416,"velocity":0.3937007874015748},{"duration":0.061475375000014765,"midi":61,"time":190.3264802630208,"velocity":0.3937007874015748},{"duration":0.061475375000014765,"midi":42,"time":190.3316032109375,"velocity":0.3937007874015748},{"duration":0.061475375000014765,"midi":40,"time":190.33672615885416,"velocity":0.3937007874015748},{"duration":0.061475375000014765,"midi":61,"time":190.5775047109375,"velocity":0.3937007874015748},{"duration":0.061475375000014765,"midi":42,"time":190.58262765885416,"velocity":0.3937007874015748},{"duration":0.061475375000014765,"midi":36,"time":190.58262765885416,"velocity":0.3937007874015748},{"duration":0.061475375000014765,"midi":42,"time":190.81828326302082,"velocity":0.3937007874015748},{"duration":0.061475375000014765,"midi":61,"time":190.82852915885417,"velocity":0.3937007874015748},{"duration":0.061475375000014765,"midi":36,"time":190.82852915885417,"velocity":0.3937007874015748},{"duration":0.061475375000014765,"midi":42,"time":191.07443065885417,"velocity":0.3937007874015748},{"duration":0.06147537499998634,"midi":61,"time":191.31008626302082,"velocity":0.3937007874015748},{"duration":0.061475375000014765,"midi":40,"time":191.32033215885417,"velocity":0.3937007874015748},{"duration":0.061475375000014765,"midi":42,"time":191.32033215885417,"velocity":0.3937007874015748},{"duration":0.06147537499998634,"midi":61,"time":191.55598776302082,"velocity":0.3937007874015748},{"duration":0.06147537499998634,"midi":42,"time":191.5611107109375,"velocity":0.3937007874015748},{"duration":0.06147537499998634,"midi":42,"time":191.8070122109375,"velocity":0.3937007874015748},{"duration":0.06147537499998634,"midi":36,"time":191.81213515885418,"velocity":0.3937007874015748},{"duration":0.06147537499998634,"midi":61,"time":191.81213515885418,"velocity":0.3937007874015748},{"duration":0.06147537499998634,"midi":42,"time":192.04779076302083,"velocity":0.3937007874015748},{"duration":0.06147537499998634,"midi":42,"time":192.29369226302083,"velocity":0.3937007874015748},{"duration":0.06147537499998634,"midi":61,"time":192.29369226302083,"velocity":0.3937007874015748},{"duration":0.06147537499998634,"midi":40,"time":192.29369226302083,"velocity":0.3937007874015748},{"duration":0.06147537499998634,"midi":42,"time":192.53959376302083,"velocity":0.3937007874015748},{"duration":0.061475375000014765,"midi":61,"time":192.7854952630208,"velocity":0.3937007874015748},{"duration":0.061475375000014765,"midi":42,"time":192.7854952630208,"velocity":0.3937007874015748},{"duration":0.061475375000014765,"midi":36,"time":192.7854952630208,"velocity":0.3937007874015748},{"duration":0.061475375000014765,"midi":42,"time":193.0313967630208,"velocity":0.3937007874015748},{"duration":0.061475375000014765,"midi":40,"time":193.2772982630208,"velocity":0.3937007874015748},{"duration":0.061475375000014765,"midi":42,"time":193.2772982630208,"velocity":0.3937007874015748},{"duration":0.061475375000014765,"midi":61,"time":193.2772982630208,"velocity":0.3937007874015748},{"duration":0.061475375000014765,"midi":61,"time":193.5231997630208,"velocity":0.3937007874015748},{"duration":0.061475375000014765,"midi":42,"time":193.5231997630208,"velocity":0.3937007874015748},{"duration":0.061475375000014765,"midi":42,"time":193.76910126302081,"velocity":0.3937007874015748},{"duration":0.061475375000014765,"midi":61,"time":193.76910126302081,"velocity":0.3937007874015748},{"duration":0.061475375000014765,"midi":36,"time":193.77934715885416,"velocity":0.3937007874015748},{"duration":0.061475375000014765,"midi":42,"time":194.01500276302082,"velocity":0.3937007874015748},{"duration":0.061475375000014765,"midi":42,"time":194.26090426302082,"velocity":0.3937007874015748},{"duration":0.061475375000014765,"midi":40,"time":194.26090426302082,"velocity":0.3937007874015748},{"duration":0.061475375000014765,"midi":61,"time":194.26090426302082,"velocity":0.3937007874015748},{"duration":0.06147537499998634,"midi":42,"time":194.50680576302082,"velocity":0.3937007874015748},{"duration":0.06147537499998634,"midi":61,"time":194.5119287109375,"velocity":0.3937007874015748},{"duration":0.06147537499998634,"midi":42,"time":194.75270726302082,"velocity":0.3937007874015748},{"duration":0.06147537499998634,"midi":36,"time":194.7578302109375,"velocity":0.3937007874015748},{"duration":0.06147537499998634,"midi":61,"time":194.76295315885417,"velocity":0.3937007874015748},{"duration":0.06147537499998634,"midi":42,"time":194.99860876302083,"velocity":0.3937007874015748},{"duration":0.06147537499998634,"midi":61,"time":195.24451026302083,"velocity":0.3937007874015748},{"duration":0.06147537499998634,"midi":42,"time":195.24451026302083,"velocity":0.3937007874015748},{"duration":0.06147537499998634,"midi":40,"time":195.24451026302083,"velocity":0.3937007874015748},{"duration":0.06147537499998634,"midi":61,"time":195.49041176302083,"velocity":0.3937007874015748},{"duration":0.06147537499998634,"midi":42,"time":195.49041176302083,"velocity":0.3937007874015748},{"duration":0.06147537499998634,"midi":42,"time":195.73631326302083,"velocity":0.3937007874015748},{"duration":0.06147537499998634,"midi":45,"time":195.73631326302083,"velocity":0.3937007874015748},{"duration":0.06147537499998634,"midi":40,"time":195.73631326302083,"velocity":0.3937007874015748},{"duration":0.06147537499998634,"midi":61,"time":195.74655915885418,"velocity":0.3937007874015748},{"duration":0.061475375000014765,"midi":40,"time":195.9822147630208,"velocity":0.3937007874015748},{"duration":0.061475375000014765,"midi":45,"time":195.9822147630208,"velocity":0.3937007874015748},{"duration":0.06147537499998634,"midi":61,"time":195.99246065885418,"velocity":0.3937007874015748},{"duration":0.061475375000014765,"midi":45,"time":196.23836215885416,"velocity":0.3937007874015748},{"duration":0.061475375000014765,"midi":40,"time":196.23836215885416,"velocity":0.3937007874015748},{"duration":0.061475375000014765,"midi":61,"time":196.23836215885416,"velocity":0.3937007874015748},{"duration":0.061475375000014765,"midi":42,"time":196.4893866067708,"velocity":0.3937007874015748},{"duration":0.061475375000014765,"midi":61,"time":196.7199192630208,"velocity":0.3937007874015748},{"duration":0.061475375000014765,"midi":42,"time":196.7199192630208,"velocity":0.3937007874015748},{"duration":0.061475375000014765,"midi":36,"time":196.7199192630208,"velocity":0.3937007874015748},{"duration":0.061475375000014765,"midi":42,"time":196.96582076302082,"velocity":0.3937007874015748},{"duration":0.061475375000014765,"midi":61,"time":197.21172226302082,"velocity":0.3937007874015748},{"duration":0.061475375000014765,"midi":40,"time":197.21172226302082,"velocity":0.3937007874015748},{"duration":0.061475375000014765,"midi":42,"time":197.21172226302082,"velocity":0.3937007874015748},{"duration":0.06147537499998634,"midi":36,"time":197.45762376302082,"velocity":0.3937007874015748},{"duration":0.06147537499998634,"midi":61,"time":197.45762376302082,"velocity":0.3937007874015748},{"duration":0.06147537499998634,"midi":42,"time":197.45762376302082,"velocity":0.3937007874015748},{"duration":0.06147537499998634,"midi":61,"time":197.70352526302082,"velocity":0.3937007874015748},{"duration":0.06147537499998634,"midi":42,"time":197.70352526302082,"velocity":0.3937007874015748},{"duration":0.06147537499998634,"midi":36,"time":197.71377115885417,"velocity":0.3937007874015748},{"duration":0.06147537499998634,"midi":42,"time":197.94942676302082,"velocity":0.3937007874015748},{"duration":0.06147537499998634,"midi":36,"time":198.08262340885418,"velocity":0.3937007874015748},{"duration":0.06147537499998634,"midi":42,"time":198.19532826302083,"velocity":0.3937007874015748},{"duration":0.06147537499998634,"midi":61,"time":198.20557415885418,"velocity":0.3937007874015748},{"duration":0.06147537499998634,"midi":40,"time":198.20557415885418,"velocity":0.3937007874015748},{"duration":0.06147537499998634,"midi":42,"time":198.44122976302083,"velocity":0.3937007874015748},{"duration":0.06147537499998634,"midi":61,"time":198.4463527109375,"velocity":0.3937007874015748},{"duration":0.06147537499998634,"midi":36,"time":198.45147565885418,"velocity":0.3937007874015748},{"duration":0.06147537499998634,"midi":42,"time":198.68713126302083,"velocity":0.3937007874015748},{"duration":0.06147537499998634,"midi":36,"time":198.69737715885418,"velocity":0.3937007874015748},{"duration":0.06147537499998634,"midi":61,"time":198.69737715885418,"velocity":0.3937007874015748},{"duration":0.06147537499998634,"midi":42,"time":198.93303276302083,"velocity":0.3937007874015748},{"duration":0.061475375000014765,"midi":40,"time":199.18405721093748,"velocity":0.3937007874015748},{"duration":0.06147537499998634,"midi":61,"time":199.18918015885419,"velocity":0.3937007874015748},{"duration":0.06147537499998634,"midi":42,"time":199.18918015885419,"velocity":0.3937007874015748},{"duration":0.061475375000014765,"midi":42,"time":199.4248357630208,"velocity":0.3937007874015748},{"duration":0.061475375000014765,"midi":61,"time":199.42995871093748,"velocity":0.3937007874015748},{"duration":0.061475375000014765,"midi":42,"time":199.6707372630208,"velocity":0.3937007874015748},{"duration":0.061475375000014765,"midi":36,"time":199.6758602109375,"velocity":0.3937007874015748},{"duration":0.061475375000014765,"midi":61,"time":199.68098315885416,"velocity":0.3937007874015748},{"duration":0.061475375000014765,"midi":42,"time":199.9166387630208,"velocity":0.3937007874015748},{"duration":0.061475375000014765,"midi":40,"time":200.16254026302082,"velocity":0.3937007874015748},{"duration":0.061475375000014765,"midi":61,"time":200.1676632109375,"velocity":0.3937007874015748},{"duration":0.061475375000014765,"midi":42,"time":200.17278615885417,"velocity":0.3937007874015748},{"duration":0.061475375000014765,"midi":42,"time":200.4135647109375,"velocity":0.3937007874015748},{"duration":0.06147537499998634,"midi":36,"time":200.65434326302082,"velocity":0.3937007874015748},{"duration":0.061475375000014765,"midi":42,"time":200.6594662109375,"velocity":0.3937007874015748},{"duration":0.061475375000014765,"midi":61,"time":200.66458915885417,"velocity":0.3937007874015748},{"duration":0.06147537499998634,"midi":42,"time":200.90024476302082,"velocity":0.3937007874015748},{"duration":0.06147537499998634,"midi":61,"time":201.14102331510418,"velocity":0.3937007874015748},{"duration":0.06147537499998634,"midi":42,"time":201.14614626302082,"velocity":0.3937007874015748},{"duration":0.06147537499998634,"midi":40,"time":201.14614626302082,"velocity":0.3937007874015748},{"duration":0.06147537499998634,"midi":36,"time":201.39204776302083,"velocity":0.3937007874015748},{"duration":0.06147537499998634,"midi":42,"time":201.39204776302083,"velocity":0.3937007874015748},{"duration":0.06147537499998634,"midi":61,"time":201.39204776302083,"velocity":0.3937007874015748},{"duration":0.06147537499998634,"midi":42,"time":201.63794926302083,"velocity":0.3937007874015748},{"duration":0.06147537499998634,"midi":61,"time":201.6430722109375,"velocity":0.3937007874015748},{"duration":0.06147537499998634,"midi":36,"time":201.64819515885418,"velocity":0.3937007874015748},{"duration":0.06147537499998634,"midi":42,"time":201.88385076302083,"velocity":0.3937007874015748},{"duration":0.06147537499998634,"midi":36,"time":202.00680151302083,"velocity":0.3937007874015748},{"duration":0.06147537499998634,"midi":61,"time":202.12975226302083,"velocity":0.3937007874015748},{"duration":0.06147537499998634,"midi":42,"time":202.12975226302083,"velocity":0.3937007874015748},{"duration":0.06147537499998634,"midi":40,"time":202.1348752109375,"velocity":0.3937007874015748},{"duration":0.061475375000014765,"midi":42,"time":202.3756537630208,"velocity":0.3937007874015748},{"duration":0.061475375000014765,"midi":36,"time":202.38077671093748,"velocity":0.3937007874015748},{"duration":0.06147537499998634,"midi":61,"time":202.38589965885419,"velocity":0.3937007874015748},{"duration":0.061475375000014765,"midi":42,"time":202.6215552630208,"velocity":0.3937007874015748},{"duration":0.061475375000014765,"midi":36,"time":202.63180115885416,"velocity":0.3937007874015748},{"duration":0.061475375000014765,"midi":61,"time":202.63180115885416,"velocity":0.3937007874015748},{"duration":0.061475375000014765,"midi":42,"time":202.8674567630208,"velocity":0.3937007874015748},{"duration":0.061475375000014765,"midi":61,"time":203.1133582630208,"velocity":0.3937007874015748},{"duration":0.061475375000014765,"midi":40,"time":203.1133582630208,"velocity":0.3937007874015748},{"duration":0.061475375000014765,"midi":42,"time":203.1184812109375,"velocity":0.3937007874015748},{"duration":0.061475375000014765,"midi":61,"time":203.3643827109375,"velocity":0.3937007874015748},{"duration":0.061475375000014765,"midi":42,"time":203.36950565885417,"velocity":0.3937007874015748},{"duration":0.061475375000014765,"midi":36,"time":203.60516126302082,"velocity":0.3937007874015748},{"duration":0.061475375000014765,"midi":42,"time":203.60516126302082,"velocity":0.3937007874015748},{"duration":0.061475375000014765,"midi":61,"time":203.62053010677081,"velocity":0.3937007874015748},{"duration":0.06147537499998634,"midi":42,"time":203.85106276302082,"velocity":0.3937007874015748},{"duration":0.06147537499998634,"midi":40,"time":204.09696426302082,"velocity":0.3937007874015748},{"duration":0.06147537499998634,"midi":42,"time":204.09696426302082,"velocity":0.3937007874015748},{"duration":0.06147537499998634,"midi":61,"time":204.09696426302082,"velocity":0.3937007874015748},{"duration":0.06147537499998634,"midi":42,"time":204.34286576302082,"velocity":0.3937007874015748},{"duration":0.06147537499998634,"midi":42,"time":204.58876726302083,"velocity":0.3937007874015748},{"duration":0.06147537499998634,"midi":36,"time":204.58876726302083,"velocity":0.3937007874015748},{"duration":0.06147537499998634,"midi":61,"time":204.59901315885418,"velocity":0.3937007874015748},{"duration":0.06147537499998634,"midi":42,"time":204.83466876302083,"velocity":0.3937007874015748},{"duration":0.06147537499998634,"midi":61,"time":205.08057026302083,"velocity":0.3937007874015748},{"duration":0.06147537499998634,"midi":40,"time":205.08057026302083,"velocity":0.3937007874015748},{"duration":0.06147537499998634,"midi":42,"time":205.0856932109375,"velocity":0.3937007874015748},{"duration":0.06147537499998634,"midi":36,"time":205.32647176302083,"velocity":0.3937007874015748},{"duration":0.06147537499998634,"midi":61,"time":205.3315947109375,"velocity":0.3937007874015748},{"duration":0.06147537499998634,"midi":42,"time":205.33671765885418,"velocity":0.3937007874015748},{"duration":0.06147537499998634,"midi":36,"time":205.5826191588542,"velocity":0.3937007874015748},{"duration":0.06147537499998634,"midi":42,"time":205.5826191588542,"velocity":0.3937007874015748},{"duration":0.06147537499998634,"midi":61,"time":205.5826191588542,"velocity":0.3937007874015748},{"duration":0.061475375000014765,"midi":42,"time":205.8182747630208,"velocity":0.3937007874015748},{"duration":0.061475375000014765,"midi":36,"time":205.95147140885416,"velocity":0.3937007874015748},{"duration":0.061475375000014765,"midi":61,"time":206.0641762630208,"velocity":0.3937007874015748},{"duration":0.061475375000014765,"midi":42,"time":206.0692992109375,"velocity":0.3937007874015748},{"duration":0.061475375000014765,"midi":40,"time":206.07442215885416,"velocity":0.3937007874015748},{"duration":0.061475375000014765,"midi":61,"time":206.3152007109375,"velocity":0.3937007874015748},{"duration":0.061475375000014765,"midi":36,"time":206.32032365885416,"velocity":0.3937007874015748},{"duration":0.061475375000014765,"midi":42,"time":206.32032365885416,"velocity":0.3937007874015748},{"duration":0.061475375000014765,"midi":42,"time":206.55597926302082,"velocity":0.3937007874015748},{"duration":0.061475375000014765,"midi":61,"time":206.56622515885417,"velocity":0.3937007874015748},{"duration":0.061475375000014765,"midi":36,"time":206.56622515885417,"velocity":0.3937007874015748},{"duration":0.061475375000014765,"midi":42,"time":206.81212665885417,"velocity":0.3937007874015748},{"duration":0.06147537499998634,"midi":61,"time":207.04778226302082,"velocity":0.3937007874015748},{"duration":0.061475375000014765,"midi":42,"time":207.05802815885417,"velocity":0.3937007874015748},{"duration":0.061475375000014765,"midi":40,"time":207.05802815885417,"velocity":0.3937007874015748},{"duration":0.06147537499998634,"midi":61,"time":207.29368376302082,"velocity":0.3937007874015748},{"duration":0.06147537499998634,"midi":42,"time":207.2988067109375,"velocity":0.3937007874015748},{"duration":0.06147537499998634,"midi":42,"time":207.5447082109375,"velocity":0.3937007874015748},{"duration":0.06147537499998634,"midi":61,"time":207.54983115885418,"velocity":0.3937007874015748},{"duration":0.06147537499998634,"midi":36,"time":207.54983115885418,"velocity":0.3937007874015748},{"duration":0.06147537499998634,"midi":42,"time":207.78548676302083,"velocity":0.3937007874015748},{"duration":0.06147537499998634,"midi":61,"time":208.03138826302083,"velocity":0.3937007874015748},{"duration":0.06147537499998634,"midi":42,"time":208.03138826302083,"velocity":0.3937007874015748},{"duration":0.06147537499998634,"midi":40,"time":208.03138826302083,"velocity":0.3937007874015748},{"duration":0.06147537499998634,"midi":42,"time":208.27728976302083,"velocity":0.3937007874015748},{"duration":0.061475375000014765,"midi":36,"time":208.5231912630208,"velocity":0.3937007874015748},{"duration":0.061475375000014765,"midi":42,"time":208.5231912630208,"velocity":0.3937007874015748},{"duration":0.061475375000014765,"midi":61,"time":208.5231912630208,"velocity":0.3937007874015748},{"duration":0.061475375000014765,"midi":42,"time":208.7690927630208,"velocity":0.3937007874015748},{"duration":0.061475375000014765,"midi":42,"time":209.0149942630208,"velocity":0.3937007874015748},{"duration":0.061475375000014765,"midi":40,"time":209.0149942630208,"velocity":0.3937007874015748},{"duration":0.061475375000014765,"midi":61,"time":209.0149942630208,"velocity":0.3937007874015748},{"duration":0.061475375000014765,"midi":61,"time":209.2608957630208,"velocity":0.3937007874015748},{"duration":0.061475375000014765,"midi":42,"time":209.2608957630208,"velocity":0.3937007874015748},{"duration":0.061475375000014765,"midi":42,"time":209.50679726302081,"velocity":0.3937007874015748},{"duration":0.061475375000014765,"midi":61,"time":209.50679726302081,"velocity":0.3937007874015748},{"duration":0.061475375000014765,"midi":36,"time":209.51704315885416,"velocity":0.3937007874015748},{"duration":0.061475375000014765,"midi":42,"time":209.75269876302082,"velocity":0.3937007874015748},{"duration":0.061475375000014765,"midi":42,"time":209.99860026302082,"velocity":0.3937007874015748},{"duration":0.061475375000014765,"midi":40,"time":209.99860026302082,"velocity":0.3937007874015748},{"duration":0.061475375000014765,"midi":61,"time":209.99860026302082,"velocity":0.3937007874015748},{"duration":0.06147537499998634,"midi":42,"time":210.24450176302082,"velocity":0.3937007874015748},{"duration":0.06147537499998634,"midi":61,"time":210.2496247109375,"velocity":0.3937007874015748},{"duration":0.06147537499998634,"midi":42,"time":210.49040326302082,"velocity":0.3937007874015748},{"duration":0.06147537499998634,"midi":36,"time":210.4955262109375,"velocity":0.3937007874015748},{"duration":0.06147537499998634,"midi":61,"time":210.50064915885417,"velocity":0.3937007874015748},{"duration":0.06147537499998634,"midi":42,"time":210.73630476302083,"velocity":0.3937007874015748},{"duration":0.06147537499998634,"midi":40,"time":210.98220626302083,"velocity":0.3937007874015748},{"duration":0.06147537499998634,"midi":42,"time":210.98220626302083,"velocity":0.3937007874015748},{"duration":0.06147537499998634,"midi":61,"time":210.98220626302083,"velocity":0.3937007874015748},{"duration":0.06147537499998634,"midi":61,"time":211.22810776302083,"velocity":0.3937007874015748},{"duration":0.06147537499998634,"midi":42,"time":211.22810776302083,"velocity":0.3937007874015748},{"duration":0.06147537499998634,"midi":40,"time":211.47400926302083,"velocity":0.3937007874015748},{"duration":0.06147537499998634,"midi":42,"time":211.47400926302083,"velocity":0.3937007874015748},{"duration":0.06147537499998634,"midi":45,"time":211.47400926302083,"velocity":0.3937007874015748},{"duration":0.06147537499998634,"midi":61,"time":211.48425515885418,"velocity":0.3937007874015748},{"duration":0.061475375000014765,"midi":40,"time":211.7199107630208,"velocity":0.3937007874015748},{"duration":0.061475375000014765,"midi":45,"time":211.7199107630208,"velocity":0.3937007874015748},{"duration":0.06147537499998634,"midi":61,"time":211.73015665885418,"velocity":0.3937007874015748},{"duration":0.061475375000014765,"midi":40,"time":211.97605815885416,"velocity":0.3937007874015748},{"duration":0.061475375000014765,"midi":61,"time":211.97605815885416,"velocity":0.3937007874015748},{"duration":0.061475375000014765,"midi":45,"time":211.97605815885416,"velocity":0.3937007874015748},{"duration":0.061475375000014765,"midi":42,"time":212.2270826067708,"velocity":0.3937007874015748},{"duration":0.061475375000014765,"midi":61,"time":212.4576152630208,"velocity":0.3937007874015748},{"duration":0.061475375000014765,"midi":36,"time":212.4576152630208,"velocity":0.3937007874015748},{"duration":0.061475375000014765,"midi":42,"time":212.4576152630208,"velocity":0.3937007874015748},{"duration":0.061475375000014765,"midi":42,"time":212.70351676302082,"velocity":0.3937007874015748},{"duration":0.061475375000014765,"midi":61,"time":212.94941826302082,"velocity":0.3937007874015748},{"duration":0.061475375000014765,"midi":42,"time":212.94941826302082,"velocity":0.3937007874015748},{"duration":0.061475375000014765,"midi":40,"time":212.94941826302082,"velocity":0.3937007874015748},{"duration":0.06147537499998634,"midi":36,"time":213.19531976302082,"velocity":0.3937007874015748},{"duration":0.06147537499998634,"midi":42,"time":213.19531976302082,"velocity":0.3937007874015748},{"duration":0.06147537499998634,"midi":61,"time":213.19531976302082,"velocity":0.3937007874015748},{"duration":0.06147537499998634,"midi":61,"time":213.44122126302082,"velocity":0.3937007874015748},{"duration":0.06147537499998634,"midi":42,"time":213.44122126302082,"velocity":0.3937007874015748},{"duration":0.06147537499998634,"midi":36,"time":213.45146715885417,"velocity":0.3937007874015748},{"duration":0.06147537499998634,"midi":42,"time":213.68712276302082,"velocity":0.3937007874015748},{"duration":0.06147537499998634,"midi":36,"time":213.82031940885417,"velocity":0.3937007874015748},{"duration":0.06147537499998634,"midi":42,"time":213.93302426302083,"velocity":0.3937007874015748},{"duration":0.06147537499998634,"midi":61,"time":213.94327015885418,"velocity":0.3937007874015748},{"duration":0.06147537499998634,"midi":40,"time":213.94327015885418,"velocity":0.3937007874015748},{"duration":0.06147537499998634,"midi":42,"time":214.17892576302083,"velocity":0.3937007874015748},{"duration":0.06147537499998634,"midi":61,"time":214.1840487109375,"velocity":0.3937007874015748},{"duration":0.06147537499998634,"midi":36,"time":214.18917165885418,"velocity":0.3937007874015748},{"duration":0.06147537499998634,"midi":42,"time":214.42482726302083,"velocity":0.3937007874015748},{"duration":0.06147537499998634,"midi":61,"time":214.43507315885418,"velocity":0.3937007874015748},{"duration":0.06147537499998634,"midi":36,"time":214.43507315885418,"velocity":0.3937007874015748},{"duration":0.06147537499998634,"midi":42,"time":214.67072876302083,"velocity":0.3937007874015748},{"duration":0.061475375000014765,"midi":40,"time":214.92175321093748,"velocity":0.3937007874015748},{"duration":0.06147537499998634,"midi":42,"time":214.92687615885418,"velocity":0.3937007874015748},{"duration":0.06147537499998634,"midi":61,"time":214.92687615885418,"velocity":0.3937007874015748},{"duration":0.061475375000014765,"midi":42,"time":215.1625317630208,"velocity":0.3937007874015748},{"duration":0.061475375000014765,"midi":61,"time":215.16765471093748,"velocity":0.3937007874015748},{"duration":0.061475375000014765,"midi":42,"time":215.4084332630208,"velocity":0.3937007874015748},{"duration":0.061475375000014765,"midi":36,"time":215.4135562109375,"velocity":0.3937007874015748},{"duration":0.061475375000014765,"midi":61,"time":215.41867915885416,"velocity":0.3937007874015748},{"duration":0.061475375000014765,"midi":42,"time":215.6543347630208,"velocity":0.3937007874015748},{"duration":0.061475375000014765,"midi":40,"time":215.90023626302082,"velocity":0.3937007874015748},{"duration":0.061475375000014765,"midi":61,"time":215.9053592109375,"velocity":0.3937007874015748},{"duration":0.061475375000014765,"midi":42,"time":215.91048215885417,"velocity":0.3937007874015748},{"duration":0.061475375000014765,"midi":42,"time":216.1512607109375,"velocity":0.3937007874015748},{"duration":0.06147537499998634,"midi":36,"time":216.39203926302082,"velocity":0.3937007874015748},{"duration":0.061475375000014765,"midi":42,"time":216.3971622109375,"velocity":0.3937007874015748},{"duration":0.061475375000014765,"midi":61,"time":216.40228515885417,"velocity":0.3937007874015748},{"duration":0.06147537499998634,"midi":42,"time":216.63794076302082,"velocity":0.3937007874015748},{"duration":0.06147537499998634,"midi":61,"time":216.87871931510418,"velocity":0.3937007874015748},{"duration":0.06147537499998634,"midi":42,"time":216.88384226302082,"velocity":0.3937007874015748},{"duration":0.06147537499998634,"midi":40,"time":216.88384226302082,"velocity":0.3937007874015748},{"duration":0.06147537499998634,"midi":61,"time":217.12974376302083,"velocity":0.3937007874015748},{"duration":0.06147537499998634,"midi":42,"time":217.12974376302083,"velocity":0.3937007874015748},{"duration":0.06147537499998634,"midi":36,"time":217.12974376302083,"velocity":0.3937007874015748},{"duration":0.06147537499998634,"midi":42,"time":217.37564526302083,"velocity":0.3937007874015748},{"duration":0.06147537499998634,"midi":61,"time":217.3807682109375,"velocity":0.3937007874015748},{"duration":0.06147537499998634,"midi":36,"time":217.38589115885418,"velocity":0.3937007874015748},{"duration":0.06147537499998634,"midi":42,"time":217.62154676302083,"velocity":0.3937007874015748},{"duration":0.06147537499998634,"midi":36,"time":217.74449751302083,"velocity":0.3937007874015748},{"duration":0.06147537499998634,"midi":42,"time":217.86744826302083,"velocity":0.3937007874015748},{"duration":0.06147537499998634,"midi":61,"time":217.86744826302083,"velocity":0.3937007874015748},{"duration":0.06147537499998634,"midi":40,"time":217.8725712109375,"velocity":0.3937007874015748},{"duration":0.061475375000014765,"midi":42,"time":218.1133497630208,"velocity":0.3937007874015748},{"duration":0.061475375000014765,"midi":36,"time":218.11847271093748,"velocity":0.3937007874015748},{"duration":0.06147537499998634,"midi":61,"time":218.12359565885419,"velocity":0.3937007874015748},{"duration":0.061475375000014765,"midi":42,"time":218.3592512630208,"velocity":0.3937007874015748},{"duration":0.061475375000014765,"midi":61,"time":218.36949715885416,"velocity":0.3937007874015748},{"duration":0.061475375000014765,"midi":36,"time":218.36949715885416,"velocity":0.3937007874015748},{"duration":0.061475375000014765,"midi":42,"time":218.6051527630208,"velocity":0.3937007874015748},{"duration":0.061475375000014765,"midi":61,"time":218.8510542630208,"velocity":0.3937007874015748},{"duration":0.061475375000014765,"midi":40,"time":218.8510542630208,"velocity":0.3937007874015748},{"duration":0.061475375000014765,"midi":42,"time":218.8561772109375,"velocity":0.3937007874015748},{"duration":0.061475375000014765,"midi":61,"time":219.1020787109375,"velocity":0.3937007874015748},{"duration":0.061475375000014765,"midi":42,"time":219.10720165885417,"velocity":0.3937007874015748},{"duration":0.061475375000014765,"midi":42,"time":219.34285726302082,"velocity":0.3937007874015748},{"duration":0.061475375000014765,"midi":36,"time":219.34285726302082,"velocity":0.3937007874015748},{"duration":0.061475375000014765,"midi":61,"time":219.35822610677081,"velocity":0.3937007874015748},{"duration":0.06147537499998634,"midi":42,"time":219.58875876302082,"velocity":0.3937007874015748},{"duration":0.06147537499998634,"midi":40,"time":219.83466026302082,"velocity":0.3937007874015748},{"duration":0.06147537499998634,"midi":61,"time":219.83466026302082,"velocity":0.3937007874015748},{"duration":0.06147537499998634,"midi":42,"time":219.83466026302082,"velocity":0.3937007874015748},{"duration":0.06147537499998634,"midi":42,"time":220.08056176302082,"velocity":0.3937007874015748},{"duration":0.06147537499998634,"midi":36,"time":220.32646326302083,"velocity":0.3937007874015748},{"duration":0.06147537499998634,"midi":42,"time":220.32646326302083,"velocity":0.3937007874015748},{"duration":0.06147537499998634,"midi":61,"time":220.33670915885418,"velocity":0.3937007874015748},{"duration":0.06147537499998634,"midi":42,"time":220.57236476302083,"velocity":0.3937007874015748},{"duration":0.06147537499998634,"midi":40,"time":220.81826626302083,"velocity":0.3937007874015748},{"duration":0.06147537499998634,"midi":61,"time":220.81826626302083,"velocity":0.3937007874015748},{"duration":0.06147537499998634,"midi":42,"time":220.8233892109375,"velocity":0.3937007874015748},{"duration":0.06147537499998634,"midi":36,"time":221.06416776302083,"velocity":0.3937007874015748},{"duration":0.06147537499998634,"midi":61,"time":221.0692907109375,"velocity":0.3937007874015748},{"duration":0.06147537499998634,"midi":42,"time":221.07441365885418,"velocity":0.3937007874015748},{"duration":0.06147537499998634,"midi":61,"time":221.32031515885419,"velocity":0.3937007874015748},{"duration":0.06147537499998634,"midi":42,"time":221.32031515885419,"velocity":0.3937007874015748},{"duration":0.06147537499998634,"midi":36,"time":221.32031515885419,"velocity":0.3937007874015748},{"duration":0.061475375000014765,"midi":42,"time":221.5559707630208,"velocity":0.3937007874015748},{"duration":0.061475375000014765,"midi":36,"time":221.68916740885416,"velocity":0.3937007874015748},{"duration":0.061475375000014765,"midi":61,"time":221.8018722630208,"velocity":0.3937007874015748},{"duration":0.061475375000014765,"midi":42,"time":221.8069952109375,"velocity":0.3937007874015748},{"duration":0.061475375000014765,"midi":40,"time":221.81211815885416,"velocity":0.3937007874015748},{"duration":0.061475375000014765,"midi":61,"time":222.0528967109375,"velocity":0.3937007874015748},{"duration":0.061475375000014765,"midi":42,"time":222.05801965885416,"velocity":0.3937007874015748},{"duration":0.061475375000014765,"midi":36,"time":222.05801965885416,"velocity":0.3937007874015748},{"duration":0.061475375000014765,"midi":42,"time":222.29367526302082,"velocity":0.3937007874015748},{"duration":0.061475375000014765,"midi":36,"time":222.30392115885417,"velocity":0.3937007874015748},{"duration":0.061475375000014765,"midi":61,"time":222.30392115885417,"velocity":0.3937007874015748},{"duration":0.061475375000014765,"midi":42,"time":222.54982265885417,"velocity":0.3937007874015748},{"duration":0.06147537499998634,"midi":61,"time":222.78547826302082,"velocity":0.3937007874015748},{"duration":0.061475375000014765,"midi":42,"time":222.79572415885417,"velocity":0.3937007874015748},{"duration":0.061475375000014765,"midi":40,"time":222.79572415885417,"velocity":0.3937007874015748},{"duration":0.06147537499998634,"midi":61,"time":223.03137976302082,"velocity":0.3937007874015748},{"duration":0.06147537499998634,"midi":42,"time":223.0365027109375,"velocity":0.3937007874015748},{"duration":0.06147537499998634,"midi":42,"time":223.2824042109375,"velocity":0.3937007874015748},{"duration":0.06147537499998634,"midi":61,"time":223.28752715885418,"velocity":0.3937007874015748},{"duration":0.06147537499998634,"midi":36,"time":223.28752715885418,"velocity":0.3937007874015748},{"duration":0.06147537499998634,"midi":42,"time":223.52318276302083,"velocity":0.3937007874015748},{"duration":0.06147537499998634,"midi":61,"time":223.76908426302083,"velocity":0.3937007874015748},{"duration":0.06147537499998634,"midi":40,"time":223.76908426302083,"velocity":0.3937007874015748},{"duration":0.06147537499998634,"midi":42,"time":223.76908426302083,"velocity":0.3937007874015748},{"duration":0.06147537499998634,"midi":42,"time":224.01498576302083,"velocity":0.3937007874015748},{"duration":0.061475375000014765,"midi":61,"time":224.2608872630208,"velocity":0.3937007874015748},{"duration":0.061475375000014765,"midi":42,"time":224.2608872630208,"velocity":0.3937007874015748},{"duration":0.061475375000014765,"midi":36,"time":224.2608872630208,"velocity":0.3937007874015748},{"duration":0.061475375000014765,"midi":42,"time":224.5067887630208,"velocity":0.3937007874015748},{"duration":0.061475375000014765,"midi":61,"time":224.7526902630208,"velocity":0.3937007874015748},{"duration":0.061475375000014765,"midi":42,"time":224.7526902630208,"velocity":0.3937007874015748},{"duration":0.061475375000014765,"midi":40,"time":224.7526902630208,"velocity":0.3937007874015748},{"duration":0.061475375000014765,"midi":61,"time":224.9985917630208,"velocity":0.3937007874015748},{"duration":0.061475375000014765,"midi":42,"time":224.9985917630208,"velocity":0.3937007874015748},{"duration":0.061475375000014765,"midi":61,"time":225.24449326302081,"velocity":0.3937007874015748},{"duration":0.061475375000014765,"midi":42,"time":225.24449326302081,"velocity":0.3937007874015748},{"duration":0.061475375000014765,"midi":36,"time":225.25473915885416,"velocity":0.3937007874015748},{"duration":0.061475375000014765,"midi":42,"time":225.49039476302082,"velocity":0.3937007874015748},{"duration":0.061475375000014765,"midi":61,"time":225.73629626302082,"velocity":0.3937007874015748},{"duration":0.061475375000014765,"midi":42,"time":225.73629626302082,"velocity":0.3937007874015748},{"duration":0.061475375000014765,"midi":40,"time":225.73629626302082,"velocity":0.3937007874015748},{"duration":0.06147537499998634,"midi":42,"time":225.98219776302082,"velocity":0.3937007874015748},{"duration":0.06147537499998634,"midi":61,"time":225.9873207109375,"velocity":0.3937007874015748},{"duration":0.06147537499998634,"midi":42,"time":226.22809926302082,"velocity":0.3937007874015748},{"duration":0.06147537499998634,"midi":36,"time":226.2332222109375,"velocity":0.3937007874015748},{"duration":0.06147537499998634,"midi":61,"time":226.23834515885417,"velocity":0.3937007874015748},{"duration":0.06147537499998634,"midi":42,"time":226.47400076302083,"velocity":0.3937007874015748},{"duration":0.06147537499998634,"midi":40,"time":226.71990226302083,"velocity":0.3937007874015748},{"duration":0.06147537499998634,"midi":61,"time":226.71990226302083,"velocity":0.3937007874015748},{"duration":0.06147537499998634,"midi":42,"time":226.71990226302083,"velocity":0.3937007874015748},{"duration":0.06147537499998634,"midi":42,"time":226.96580376302083,"velocity":0.3937007874015748},{"duration":0.06147537499998634,"midi":61,"time":226.96580376302083,"velocity":0.3937007874015748},{"duration":0.06147537499998634,"midi":42,"time":227.21170526302083,"velocity":0.3937007874015748},{"duration":0.06147537499998634,"midi":40,"time":227.21170526302083,"velocity":0.3937007874015748},{"duration":0.06147537499998634,"midi":45,"time":227.21170526302083,"velocity":0.3937007874015748},{"duration":0.06147537499998634,"midi":61,"time":227.22195115885418,"velocity":0.3937007874015748},{"duration":0.061475375000014765,"midi":45,"time":227.4576067630208,"velocity":0.3937007874015748},{"duration":0.061475375000014765,"midi":40,"time":227.4576067630208,"velocity":0.3937007874015748},{"duration":0.06147537499998634,"midi":61,"time":227.46785265885418,"velocity":0.3937007874015748},{"duration":0.061475375000014765,"midi":61,"time":227.71375415885416,"velocity":0.3937007874015748},{"duration":0.061475375000014765,"midi":45,"time":227.71375415885416,"velocity":0.3937007874015748},{"duration":0.061475375000014765,"midi":40,"time":227.71375415885416,"velocity":0.3937007874015748},{"duration":0.061475375000014765,"midi":42,"time":227.9647786067708,"velocity":0.3937007874015748},{"duration":0.061475375000014765,"midi":69,"time":228.2004342109375,"velocity":0.3937007874015748},{"duration":0.061475375000014765,"midi":61,"time":228.2004342109375,"velocity":0.3937007874015748},{"duration":0.12295075000000111,"midi":51,"time":228.22092600260416,"velocity":0.3937007874015748},{"duration":0.061475375000014765,"midi":36,"time":228.22092600260416,"velocity":0.3937007874015748},{"duration":0.061475375000014765,"midi":69,"time":228.45145865885416,"velocity":0.3937007874015748},{"duration":0.061475375000014765,"midi":61,"time":228.68711426302082,"velocity":0.3937007874015748},{"duration":0.061475375000014765,"midi":69,"time":228.69736015885417,"velocity":0.3937007874015748},{"duration":0.061475375000014765,"midi":69,"time":228.9381387109375,"velocity":0.3937007874015748},{"duration":0.06147537499998634,"midi":61,"time":229.17891726302082,"velocity":0.3937007874015748},{"duration":0.06147537499998634,"midi":69,"time":229.1840402109375,"velocity":0.3937007874015748},{"duration":0.06147537499998634,"midi":69,"time":229.42481876302082,"velocity":0.3937007874015748},{"duration":0.06147537499998634,"midi":61,"time":229.66559731510418,"velocity":0.3937007874015748},{"duration":0.06147537499998634,"midi":69,"time":229.67072026302083,"velocity":0.3937007874015748},{"duration":0.06147537499998634,"midi":69,"time":229.91149881510418,"velocity":0.3937007874015748},{"duration":0.06147537499998634,"midi":61,"time":230.16252326302083,"velocity":0.3937007874015748},{"duration":0.06147537499998634,"midi":69,"time":230.16252326302083,"velocity":0.3937007874015748},{"duration":0.06147537499998634,"midi":69,"time":230.40842476302083,"velocity":0.3937007874015748},{"duration":0.061475375000014765,"midi":69,"time":230.6543262630208,"velocity":0.3937007874015748},{"duration":0.061475375000014765,"midi":61,"time":230.6543262630208,"velocity":0.3937007874015748},{"duration":0.061475375000014765,"midi":69,"time":230.9002277630208,"velocity":0.3937007874015748},{"duration":0.061475375000014765,"midi":69,"time":231.1461292630208,"velocity":0.3937007874015748},{"duration":0.061475375000014765,"midi":61,"time":231.15637515885416,"velocity":0.3937007874015748},{"duration":0.061475375000014765,"midi":69,"time":231.3920307630208,"velocity":0.3937007874015748},{"duration":0.061475375000014765,"midi":61,"time":231.6430552109375,"velocity":0.3937007874015748},{"duration":0.061475375000014765,"midi":69,"time":231.64817815885417,"velocity":0.3937007874015748},{"duration":0.061475375000014765,"midi":69,"time":231.88383376302082,"velocity":0.3937007874015748},{"duration":0.061475375000014765,"midi":61,"time":232.1348582109375,"velocity":0.3937007874015748},{"duration":0.061475375000014765,"midi":69,"time":232.13998115885417,"velocity":0.3937007874015748},{"duration":0.06147537499998634,"midi":69,"time":232.3807597109375,"velocity":0.3937007874015748},{"duration":0.06147537499998634,"midi":61,"time":232.63178415885417,"velocity":0.3937007874015748},{"duration":0.06147537499998634,"midi":69,"time":232.63178415885417,"velocity":0.3937007874015748},{"duration":0.06147537499998634,"midi":69,"time":232.86743976302083,"velocity":0.3937007874015748},{"duration":0.06147537499998634,"midi":61,"time":233.11334126302083,"velocity":0.3937007874015748},{"duration":0.06147537499998634,"midi":69,"time":233.12358715885418,"velocity":0.3937007874015748},{"duration":0.06147537499998634,"midi":69,"time":233.35924276302083,"velocity":0.3937007874015748},{"duration":0.06147537499998634,"midi":61,"time":233.60514426302083,"velocity":0.3937007874015748},{"duration":0.06147537499998634,"midi":69,"time":233.6102672109375,"velocity":0.3937007874015748},{"duration":0.061475375000014765,"midi":69,"time":233.8510457630208,"velocity":0.3937007874015748},{"duration":0.061475375000014765,"midi":61,"time":234.09182431510416,"velocity":0.3937007874015748},{"duration":0.061475375000014765,"midi":69,"time":234.0969472630208,"velocity":0.3937007874015748},{"duration":0.061475375000014765,"midi":69,"time":234.3428487630208,"velocity":0.3937007874015748},{"duration":0.061475375000014765,"midi":69,"time":234.5887502630208,"velocity":0.3937007874015748},{"duration":0.061475375000014765,"midi":61,"time":234.5887502630208,"velocity":0.3937007874015748},{"duration":0.061475375000014765,"midi":69,"time":234.83465176302082,"velocity":0.3937007874015748},{"duration":0.061475375000014765,"midi":61,"time":235.08055326302082,"velocity":0.3937007874015748},{"duration":0.061475375000014765,"midi":69,"time":235.08055326302082,"velocity":0.3937007874015748},{"duration":0.06147537499998634,"midi":69,"time":235.32645476302082,"velocity":0.3937007874015748},{"duration":0.06147537499998634,"midi":69,"time":235.57235626302082,"velocity":0.3937007874015748},{"duration":0.06147537499998634,"midi":61,"time":235.57235626302082,"velocity":0.3937007874015748},{"duration":0.06147537499998634,"midi":69,"time":235.81825776302082,"velocity":0.3937007874015748},{"duration":0.06147537499998634,"midi":42,"time":236.06415926302083,"velocity":0.3937007874015748},{"duration":0.06147537499998634,"midi":69,"time":236.06415926302083,"velocity":0.3937007874015748},{"duration":0.06147537499998634,"midi":37,"time":236.0692822109375,"velocity":0.3937007874015748},{"duration":0.06147537499998634,"midi":36,"time":236.0692822109375,"velocity":0.3937007874015748},{"duration":0.06147537499998634,"midi":61,"time":236.0692822109375,"velocity":0.3937007874015748},{"duration":0.06147537499998634,"midi":42,"time":236.18711001302083,"velocity":0.3937007874015748},{"duration":0.06147537499998634,"midi":69,"time":236.31006076302083,"velocity":0.3937007874015748},{"duration":0.06147537499998634,"midi":42,"time":236.31006076302083,"velocity":0.3937007874015748},{"duration":0.06147537499998634,"midi":42,"time":236.44325740885418,"velocity":0.3937007874015748},{"duration":0.06147537499998634,"midi":61,"time":236.55596226302083,"velocity":0.3937007874015748},{"duration":0.06147537499998634,"midi":69,"time":236.55596226302083,"velocity":0.3937007874015748},{"duration":0.06147537499998634,"midi":37,"time":236.56620815885418,"velocity":0.3937007874015748},{"duration":0.06147537499998634,"midi":42,"time":236.56620815885418,"velocity":0.3937007874015748},{"duration":0.06147537499998634,"midi":44,"time":236.69428185677083,"velocity":0.3937007874015748},{"duration":0.06147537499998634,"midi":69,"time":236.80186376302083,"velocity":0.3937007874015748},{"duration":0.06147537499998634,"midi":42,"time":236.80186376302083,"velocity":0.3937007874015748},{"duration":0.06147537499998634,"midi":42,"time":236.93506040885418,"velocity":0.3937007874015748},{"duration":0.061475375000014765,"midi":69,"time":237.0477652630208,"velocity":0.3937007874015748},{"duration":0.061475375000014765,"midi":61,"time":237.0477652630208,"velocity":0.3937007874015748},{"duration":0.06147537499998634,"midi":42,"time":237.05801115885419,"velocity":0.3937007874015748},{"duration":0.06147537499998634,"midi":36,"time":237.05801115885419,"velocity":0.3937007874015748},{"duration":0.06147537499998634,"midi":37,"time":237.05801115885419,"velocity":0.3937007874015748},{"duration":0.06147537499998634,"midi":44,"time":237.18608485677083,"velocity":0.3937007874015748},{"duration":0.061475375000014765,"midi":69,"time":237.2936667630208,"velocity":0.3937007874015748},{"duration":0.061475375000014765,"midi":42,"time":237.2936667630208,"velocity":0.3937007874015748},{"duration":0.061475375000014765,"midi":42,"time":237.42686340885416,"velocity":0.3937007874015748},{"duration":0.061475375000014765,"midi":37,"time":237.5395682630208,"velocity":0.3937007874015748},{"duration":0.061475375000014765,"midi":61,"time":237.5395682630208,"velocity":0.3937007874015748},{"duration":0.061475375000014765,"midi":42,"time":237.54981415885416,"velocity":0.3937007874015748},{"duration":0.061475375000014765,"midi":69,"time":237.54981415885416,"velocity":0.3937007874015748},{"duration":0.061475375000014765,"midi":44,"time":237.6778878567708,"velocity":0.3937007874015748},{"duration":0.061475375000014765,"midi":69,"time":237.7854697630208,"velocity":0.3937007874015748},{"duration":0.061475375000014765,"midi":42,"time":237.7854697630208,"velocity":0.3937007874015748},{"duration":0.061475375000014765,"midi":42,"time":237.91866640885416,"velocity":0.3937007874015748},{"duration":0.061475375000014765,"midi":36,"time":238.03137126302082,"velocity":0.3937007874015748},{"duration":0.061475375000014765,"midi":61,"time":238.03137126302082,"velocity":0.3937007874015748},{"duration":0.061475375000014765,"midi":37,"time":238.0364942109375,"velocity":0.3937007874015748},{"duration":0.061475375000014765,"midi":69,"time":238.0364942109375,"velocity":0.3937007874015748},{"duration":0.061475375000014765,"midi":42,"time":238.04161715885417,"velocity":0.3937007874015748},{"duration":0.061475375000014765,"midi":44,"time":238.16456790885417,"velocity":0.3937007874015748},{"duration":0.061475375000014765,"midi":69,"time":238.27727276302082,"velocity":0.3937007874015748},{"duration":0.061475375000014765,"midi":42,"time":238.2823957109375,"velocity":0.3937007874015748},{"duration":0.061475375000014765,"midi":42,"time":238.41046940885417,"velocity":0.3937007874015748},{"duration":0.06147537499998634,"midi":61,"time":238.51805131510417,"velocity":0.3937007874015748},{"duration":0.06147537499998634,"midi":69,"time":238.52317426302082,"velocity":0.3937007874015748},{"duration":0.06147537499998634,"midi":37,"time":238.52317426302082,"velocity":0.3937007874015748},{"duration":0.061475375000014765,"midi":42,"time":238.53342015885417,"velocity":0.3937007874015748},{"duration":0.061475375000014765,"midi":44,"time":238.66149385677082,"velocity":0.3937007874015748},{"duration":0.061475375000014765,"midi":69,"time":238.76523355208332,"velocity":0.3937007874015748},{"duration":0.061475375000014765,"midi":42,"time":238.7703565,"velocity":0.3937007874015748},{"duration":0.061475375000014765,"midi":42,"time":238.9035531458333,"velocity":0.3937007874015748},{"duration":0.061475375000014765,"midi":69,"time":239.01113505208332,"velocity":0.3937007874015748},{"duration":0.061475375000014765,"midi":36,"time":239.016258,"velocity":0.3937007874015748},{"duration":0.061475375000014765,"midi":61,"time":239.016258,"velocity":0.3937007874015748},{"duration":0.061475375000014765,"midi":37,"time":239.016258,"velocity":0.3937007874015748},{"duration":0.061475375000014765,"midi":42,"time":239.02650389583332,"velocity":0.3937007874015748},{"duration":0.061475375000014765,"midi":44,"time":239.14945464583332,"velocity":0.3937007874015748},{"duration":0.06147537499998634,"midi":42,"time":239.2621595,"velocity":0.3937007874015748},{"duration":0.06147537499998634,"midi":42,"time":239.39023319791667,"velocity":0.3937007874015748},{"duration":0.06147537499998634,"midi":40,"time":239.508061,"velocity":0.3937007874015748},{"duration":0.06147537499998634,"midi":42,"time":239.51318394791667,"velocity":0.3937007874015748},{"duration":0.06147537499998634,"midi":40,"time":239.63101175,"velocity":0.3937007874015748},{"duration":0.06147537499998634,"midi":40,"time":239.7539625,"velocity":0.3937007874015748},{"duration":0.06147537499998634,"midi":40,"time":239.87691325,"velocity":0.3937007874015748},{"duration":0.06147537499998634,"midi":57,"time":239.99474105208333,"velocity":0.3937007874015748},{"duration":0.06147537499998634,"midi":61,"time":239.999864,"velocity":0.3937007874015748},{"duration":0.06147537499998634,"midi":42,"time":239.999864,"velocity":0.3937007874015748},{"duration":0.06147537499998634,"midi":36,"time":240.00498694791668,"velocity":0.3937007874015748},{"duration":0.06147537499998634,"midi":42,"time":240.2457655,"velocity":0.3937007874015748},{"duration":0.06147537499998634,"midi":40,"time":240.48654405208333,"velocity":0.3937007874015748},{"duration":0.06147537499998634,"midi":61,"time":240.491667,"velocity":0.3937007874015748},{"duration":0.06147537499998634,"midi":42,"time":240.491667,"velocity":0.3937007874015748},{"duration":0.06147537499998634,"midi":42,"time":240.7375685,"velocity":0.3937007874015748},{"duration":0.061475375000014765,"midi":61,"time":240.98346999999998,"velocity":0.3937007874015748},{"duration":0.061475375000014765,"midi":36,"time":240.98346999999998,"velocity":0.3937007874015748},{"duration":0.061475375000014765,"midi":42,"time":240.98346999999998,"velocity":0.3937007874015748},{"duration":0.061475375000014765,"midi":42,"time":241.22937149999998,"velocity":0.3937007874015748},{"duration":0.061475375000014765,"midi":40,"time":241.4701500520833,"velocity":0.3937007874015748},{"duration":0.061475375000014765,"midi":42,"time":241.475273,"velocity":0.3937007874015748},{"duration":0.061475375000014765,"midi":61,"time":241.475273,"velocity":0.3937007874015748},{"duration":0.061475375000014765,"midi":42,"time":241.7211745,"velocity":0.3937007874015748},{"duration":0.061475375000014765,"midi":42,"time":241.967076,"velocity":0.3937007874015748},{"duration":0.061475375000014765,"midi":36,"time":241.97219894791667,"velocity":0.3937007874015748},{"duration":0.061475375000014765,"midi":61,"time":241.97219894791667,"velocity":0.3937007874015748},{"duration":0.06147537499998634,"midi":42,"time":242.20785455208332,"velocity":0.3937007874015748},{"duration":0.06147537499998634,"midi":61,"time":242.46400194791667,"velocity":0.3937007874015748},{"duration":0.06147537499998634,"midi":42,"time":242.46400194791667,"velocity":0.3937007874015748},{"duration":0.061475375000014765,"midi":40,"time":242.46912489583332,"velocity":0.3937007874015748},{"duration":0.06147537499998634,"midi":42,"time":242.7047805,"velocity":0.3937007874015748},{"duration":0.06147537499998634,"midi":61,"time":242.950682,"velocity":0.3937007874015748},{"duration":0.06147537499998634,"midi":42,"time":242.950682,"velocity":0.3937007874015748},{"duration":0.06147537499998634,"midi":36,"time":242.96092789583332,"velocity":0.3937007874015748},{"duration":0.06147537499998634,"midi":42,"time":243.1965835,"velocity":0.3937007874015748},{"duration":0.06147537499998634,"midi":61,"time":243.43736205208333,"velocity":0.3937007874015748},{"duration":0.06147537499998634,"midi":42,"time":243.442485,"velocity":0.3937007874015748},{"duration":0.06147537499998634,"midi":40,"time":243.442485,"velocity":0.3937007874015748},{"duration":0.06147537499998634,"midi":42,"time":243.68326355208333,"velocity":0.3937007874015748},{"duration":0.061475375000014765,"midi":57,"time":243.9291650520833,"velocity":0.3937007874015748},{"duration":0.061475375000014765,"midi":42,"time":243.93428799999998,"velocity":0.3937007874015748},{"duration":0.061475375000014765,"midi":36,"time":243.93428799999998,"velocity":0.3937007874015748},{"duration":0.061475375000014765,"midi":61,"time":243.93428799999998,"velocity":0.3937007874015748},{"duration":0.061475375000014765,"midi":42,"time":244.1750665520833,"velocity":0.3937007874015748},{"duration":0.061475375000014765,"midi":61,"time":244.4209680520833,"velocity":0.3937007874015748},{"duration":0.061475375000014765,"midi":40,"time":244.4209680520833,"velocity":0.3937007874015748},{"duration":0.061475375000014765,"midi":42,"time":244.42609099999999,"velocity":0.3937007874015748},{"duration":0.061475375000014765,"midi":42,"time":244.6668695520833,"velocity":0.3937007874015748},{"duration":0.061475375000014765,"midi":61,"time":244.91277105208331,"velocity":0.3937007874015748},{"duration":0.061475375000014765,"midi":42,"time":244.917894,"velocity":0.3937007874015748},{"duration":0.061475375000014765,"midi":36,"time":244.917894,"velocity":0.3937007874015748},{"duration":0.061475375000014765,"midi":42,"time":245.15867255208332,"velocity":0.3937007874015748},{"duration":0.06147537499998634,"midi":40,"time":245.40457405208332,"velocity":0.3937007874015748},{"duration":0.061475375000014765,"midi":61,"time":245.409697,"velocity":0.3937007874015748},{"duration":0.061475375000014765,"midi":42,"time":245.409697,"velocity":0.3937007874015748},{"duration":0.06147537499998634,"midi":42,"time":245.65047555208332,"velocity":0.3937007874015748},{"duration":0.06147537499998634,"midi":42,"time":245.9015,"velocity":0.3937007874015748},{"duration":0.06147537499998634,"midi":36,"time":245.90662294791667,"velocity":0.3937007874015748},{"duration":0.06147537499998634,"midi":61,"time":245.91174589583332,"velocity":0.3937007874015748},{"duration":0.06147537499998634,"midi":57,"time":245.91174589583332,"velocity":0.3937007874015748},{"duration":0.06147537499998634,"midi":42,"time":246.1474015,"velocity":0.3937007874015748},{"duration":0.06147537499998634,"midi":42,"time":246.393303,"velocity":0.3937007874015748},{"duration":0.06147537499998634,"midi":40,"time":246.393303,"velocity":0.3937007874015748},{"duration":0.06147537499998634,"midi":61,"time":246.39842594791668,"velocity":0.3937007874015748},{"duration":0.06147537499998634,"midi":42,"time":246.6392045,"velocity":0.3937007874015748},{"duration":0.06147537499998634,"midi":61,"time":246.885106,"velocity":0.3937007874015748},{"duration":0.06147537499998634,"midi":42,"time":246.885106,"velocity":0.3937007874015748},{"duration":0.06147537499998634,"midi":40,"time":246.89535189583333,"velocity":0.3937007874015748},{"duration":0.06147537499998634,"midi":36,"time":246.89535189583333,"velocity":0.3937007874015748}]},{"instrument":{"family":"guitar","number":26,"name":"electric guitar (jazz)"},"notes":[{"duration":0.12295075000000111,"midi":45,"time":16.4754005,"velocity":0.3937007874015748},{"duration":0.37013298697916497,"midi":45,"time":16.721302,"velocity":0.3937007874015748},{"duration":0.3714137239583337,"midi":57,"time":16.9672035,"velocity":0.3937007874015748},{"duration":0.24718223697916386,"midi":62,"time":16.977449395833336,"velocity":0.3937007874015748},{"duration":0.2471822369791674,"midi":67,"time":16.983853080729165,"velocity":0.3937007874015748},{"duration":0.37013298697916497,"midi":57,"time":17.338617223958334,"velocity":0.3937007874015748},{"duration":0.3701329869791685,"midi":62,"time":17.348863119791666,"velocity":0.3937007874015748},{"duration":0.37013298697916497,"midi":67,"time":17.3552668046875,"velocity":0.3937007874015748},{"duration":1.107837486979168,"midi":57,"time":17.7087502109375,"velocity":0.3937007874015748},{"duration":1.1078374869791645,"midi":62,"time":17.718996106770835,"velocity":0.3937007874015748},{"duration":1.1078374869791716,"midi":67,"time":17.725399791666664,"velocity":0.3937007874015748},{"duration":0.12295075000000111,"midi":45,"time":18.570686197916665,"velocity":0.3937007874015748},{"duration":0.2471822369791674,"midi":45,"time":18.693636947916666,"velocity":0.3937007874015748},{"duration":0.37013298697916497,"midi":57,"time":18.940819184895833,"velocity":0.3937007874015748},{"duration":0.3701329869791685,"midi":62,"time":18.951065080729165,"velocity":0.3937007874015748},{"duration":0.37013298697916497,"midi":67,"time":18.957468765625,"velocity":0.3937007874015748},{"duration":0.2471822369791674,"midi":57,"time":19.310952171874998,"velocity":0.3937007874015748},{"duration":0.2471822369791674,"midi":62,"time":19.321198067708334,"velocity":0.3937007874015748},{"duration":0.24718223697917097,"midi":67,"time":19.327601752604163,"velocity":0.3937007874015748},{"duration":0.37013298697916497,"midi":57,"time":19.682365895833335,"velocity":0.3937007874015748},{"duration":0.3701329869791685,"midi":62,"time":19.692611791666664,"velocity":0.3937007874015748},{"duration":0.37013298697916497,"midi":66,"time":19.6990154765625,"velocity":0.3937007874015748},{"duration":0.3701329869791685,"midi":57,"time":20.176730369791667,"velocity":0.3937007874015748},{"duration":0.37013298697916497,"midi":62,"time":20.186976265625,"velocity":0.3937007874015748},{"duration":0.37013298697916497,"midi":66,"time":20.193379950520836,"velocity":0.3937007874015748},{"duration":0.12423148697916275,"midi":45,"time":20.546863356770835,"velocity":0.3937007874015748},{"duration":0.24590150000000222,"midi":45,"time":20.671094843749998,"velocity":0.3937007874015748},{"duration":0.24718223697916386,"midi":57,"time":20.91699634375,"velocity":0.3937007874015748},{"duration":0.2471822369791674,"midi":62,"time":20.927242239583332,"velocity":0.3937007874015748},{"duration":0.2471822369791674,"midi":66,"time":20.933645924479166,"velocity":0.3937007874015748},{"duration":0.2471822369791674,"midi":57,"time":21.288410067708334,"velocity":0.3937007874015748},{"duration":0.2471822369791674,"midi":62,"time":21.298655963541666,"velocity":0.3937007874015748},{"duration":0.2471822369791674,"midi":66,"time":21.3050596484375,"velocity":0.3937007874015748},{"duration":0.3701329869791685,"midi":57,"time":21.659823791666664,"velocity":0.3937007874015748},{"duration":0.37013298697916497,"midi":62,"time":21.6700696875,"velocity":0.3937007874015748},{"duration":0.37013298697916497,"midi":66,"time":21.676473372395833,"velocity":0.3937007874015748},{"duration":0.37013298697916497,"midi":57,"time":22.154188265625,"velocity":0.3937007874015748},{"duration":0.37013298697916497,"midi":62,"time":22.164434161458335,"velocity":0.3937007874015748},{"duration":0.3701329869791685,"midi":66,"time":22.170837846354164,"velocity":0.3937007874015748},{"duration":0.2471822369791674,"midi":57,"time":22.648552739583334,"velocity":0.3937007874015748},{"duration":0.2471822369791674,"midi":62,"time":22.658798635416666,"velocity":0.3937007874015748},{"duration":0.2471822369791674,"midi":66,"time":22.6652023203125,"velocity":0.3937007874015748},{"duration":0.12295075000000111,"midi":64,"time":24.116277317708334,"velocity":0.3937007874015748},{"duration":0.12295075000000111,"midi":69,"time":24.116277317708334,"velocity":0.3937007874015748},{"duration":0.24590149999999866,"midi":64,"time":24.239228067708336,"velocity":0.3937007874015748},{"duration":0.12295075000000111,"midi":69,"time":24.244351015625,"velocity":0.3937007874015748},{"duration":0.12295075000000111,"midi":69,"time":24.485129567708334,"velocity":0.3937007874015748},{"duration":0.12295075000000111,"midi":64,"time":24.485129567708334,"velocity":0.3937007874015748},{"duration":0.12295075000000111,"midi":66,"time":24.596553684895834,"velocity":0.3937007874015748},{"duration":0.12295075000000111,"midi":71,"time":24.602957369791664,"velocity":0.3937007874015748},{"duration":0.36885224999999977,"midi":64,"time":24.853981817708334,"velocity":0.3937007874015748},{"duration":0.36885224999999977,"midi":69,"time":24.853981817708334,"velocity":0.3937007874015748},{"duration":0.12295075000000111,"midi":69,"time":28.050701317708334,"velocity":0.3937007874015748},{"duration":0.12295075000000111,"midi":64,"time":28.050701317708334,"velocity":0.3937007874015748},{"duration":0.12295074999999756,"midi":64,"time":28.192863122395835,"velocity":0.3937007874015748},{"duration":0.12295074999999756,"midi":69,"time":28.192863122395835,"velocity":0.3937007874015748},{"duration":0.12295075000000111,"midi":64,"time":28.419553567708334,"velocity":0.3937007874015748},{"duration":0.12295075000000111,"midi":69,"time":28.419553567708334,"velocity":0.3937007874015748},{"duration":0.12295074999999756,"midi":66,"time":28.542504317708335,"velocity":0.3937007874015748},{"duration":0.12295075000000111,"midi":71,"time":28.552750213541664,"velocity":0.3937007874015748},{"duration":0.12295074999999756,"midi":70,"time":28.557873161458335,"velocity":0.3937007874015748},{"duration":0.24590149999999866,"midi":69,"time":28.798651713541666,"velocity":0.3937007874015748},{"duration":0.24590149999999866,"midi":64,"time":28.798651713541666,"velocity":0.3937007874015748},{"duration":0.12295075000000111,"midi":64,"time":31.98512531770833,"velocity":0.3937007874015748},{"duration":0.12295075000000111,"midi":69,"time":31.98512531770833,"velocity":0.3937007874015748},{"duration":0.12295075000000111,"midi":64,"time":32.11832196354167,"velocity":0.3937007874015748},{"duration":0.12295075000000111,"midi":69,"time":32.11832196354167,"velocity":0.3937007874015748},{"duration":0.12295075000000111,"midi":64,"time":32.343731671875,"velocity":0.3937007874015748},{"duration":0.122950749999994,"midi":69,"time":32.3552583046875,"velocity":0.3937007874015748},{"duration":0.12295075000000111,"midi":66,"time":32.47308610677083,"velocity":0.3937007874015748},{"duration":0.12295075000000111,"midi":71,"time":32.4782090546875,"velocity":0.3937007874015748},{"duration":0.3688522500000033,"midi":64,"time":32.72923350260417,"velocity":0.3937007874015748},{"duration":0.3688522500000033,"midi":69,"time":32.73435645052083,"velocity":0.3937007874015748},{"duration":0.12295074999997269,"midi":45,"time":240.76702545052083,"velocity":0.3937007874015748},{"duration":0.3701329869792005,"midi":45,"time":241.0129269505208,"velocity":0.3937007874015748},{"duration":0.37141372395836925,"midi":57,"time":241.2588284505208,"velocity":0.3937007874015748},{"duration":0.24718223697917097,"midi":62,"time":241.26907434635416,"velocity":0.3937007874015748},{"duration":0.24718223697917097,"midi":67,"time":241.27547803125,"velocity":0.3937007874015748},{"duration":0.37013298697914365,"midi":57,"time":241.63024217447918,"velocity":0.3937007874015748},{"duration":0.3701329869791721,"midi":62,"time":241.6404880703125,"velocity":0.3937007874015748},{"duration":0.3701329869791721,"midi":67,"time":241.64689175520832,"velocity":0.3937007874015748},{"duration":1.1078374869791787,"midi":57,"time":242.00037516145832,"velocity":0.3937007874015748},{"duration":1.1078374869791503,"midi":62,"time":242.01062105729167,"velocity":0.3937007874015748},{"duration":1.1078374869791787,"midi":67,"time":242.0170247421875,"velocity":0.3937007874015748},{"duration":0.12295075000000111,"midi":45,"time":242.8623111484375,"velocity":0.3937007874015748},{"duration":0.24718223697917097,"midi":45,"time":242.9852618984375,"velocity":0.3937007874015748},{"duration":0.37013298697914365,"midi":57,"time":243.23244413541667,"velocity":0.3937007874015748},{"duration":0.3701329869791721,"midi":62,"time":243.24269003125,"velocity":0.3937007874015748},{"duration":0.3701329869792005,"midi":67,"time":243.2490937161458,"velocity":0.3937007874015748},{"duration":0.24718223697917097,"midi":57,"time":243.60257712239581,"velocity":0.3937007874015748},{"duration":0.24718223697914254,"midi":62,"time":243.61282301822916,"velocity":0.3937007874015748},{"duration":0.24718223697917097,"midi":67,"time":243.619226703125,"velocity":0.3937007874015748},{"duration":0.37013298697914365,"midi":57,"time":243.97399084635418,"velocity":0.3937007874015748},{"duration":0.3701329869791721,"midi":62,"time":243.9842367421875,"velocity":0.3937007874015748},{"duration":0.3701329869791721,"midi":66,"time":243.99064042708332,"velocity":0.3937007874015748},{"duration":0.3701329869791721,"midi":57,"time":244.4683553203125,"velocity":0.3937007874015748},{"duration":0.3701329869791721,"midi":62,"time":244.47860121614582,"velocity":0.3937007874015748},{"duration":0.37013298697914365,"midi":66,"time":244.48500490104166,"velocity":0.3937007874015748},{"duration":0.12423148697914144,"midi":45,"time":244.83848830729167,"velocity":0.3937007874015748},{"duration":0.24590150000000222,"midi":45,"time":244.9627197942708,"velocity":0.3937007874015748},{"duration":0.24718223697917097,"midi":57,"time":245.2086212942708,"velocity":0.3937007874015748},{"duration":0.24718223697914254,"midi":62,"time":245.21886719010416,"velocity":0.3937007874015748},{"duration":0.24718223697917097,"midi":66,"time":245.225270875,"velocity":0.3937007874015748},{"duration":0.24718223697914254,"midi":57,"time":245.58003501822918,"velocity":0.3937007874015748},{"duration":0.24718223697917097,"midi":62,"time":245.5902809140625,"velocity":0.3937007874015748},{"duration":0.24718223697917097,"midi":66,"time":245.59668459895832,"velocity":0.3937007874015748},{"duration":0.3701329869791721,"midi":57,"time":245.9514487421875,"velocity":0.3937007874015748},{"duration":0.3701329869791721,"midi":62,"time":245.96169463802082,"velocity":0.3937007874015748},{"duration":0.3701329869791721,"midi":66,"time":245.96809832291666,"velocity":0.3937007874015748},{"duration":0.3701329869792005,"midi":57,"time":246.4458132161458,"velocity":0.3937007874015748},{"duration":0.3701329869791721,"midi":62,"time":246.45605911197916,"velocity":0.3937007874015748},{"duration":0.3701329869791721,"midi":66,"time":246.462462796875,"velocity":0.3937007874015748},{"duration":0.12423148697914144,"midi":57,"time":246.94017769010418,"velocity":0.3937007874015748},{"duration":0.24718223697917097,"midi":62,"time":246.9504235859375,"velocity":0.3937007874015748},{"duration":0.24718223697917097,"midi":66,"time":246.95682727083332,"velocity":0.3937007874015748}]},{"instrument":{"family":"world","number":107,"name":"koto"},"notes":[{"duration":0.24590150000000222,"midi":54,"time":22.858593604166664,"velocity":0.3937007874015748},{"duration":0.24590150000000222,"midi":57,"time":23.114741,"velocity":0.3937007874015748},{"duration":0.24590150000000222,"midi":59,"time":23.370888395833333,"velocity":0.3937007874015748},{"duration":0.12295074999999756,"midi":61,"time":23.632158739583335,"velocity":0.3937007874015748},{"duration":0.24590150000000222,"midi":61,"time":23.8831831875,"velocity":0.3937007874015748},{"duration":0.24590149999999866,"midi":59,"time":25.332977447916665,"velocity":0.3937007874015748},{"duration":0.24590150000000222,"midi":61,"time":25.548141260416664,"velocity":0.3937007874015748},{"duration":0.24590149999999866,"midi":64,"time":25.809411604166666,"velocity":0.3937007874015748},{"duration":0.24590149999999866,"midi":66,"time":26.05019015625,"velocity":0.3937007874015748},{"duration":0.24590149999999866,"midi":59,"time":26.306337552083335,"velocity":0.3937007874015748},{"duration":0.3688522500000033,"midi":57,"time":26.557361999999998,"velocity":0.3937007874015748},{"duration":0.24590150000000222,"midi":59,"time":26.859615927083333,"velocity":0.3937007874015748},{"duration":0.24590149999999866,"midi":59,"time":27.054287947916666,"velocity":0.3937007874015748},{"duration":0.12295075000000111,"midi":61,"time":27.289943552083333,"velocity":0.3937007874015748},{"duration":0.24590149999999866,"midi":61,"time":27.55633684375,"velocity":0.3937007874015748},{"duration":0.24590149999999866,"midi":57,"time":29.006131104166666,"velocity":0.3937007874015748},{"duration":0.24590149999999866,"midi":59,"time":29.252032604166665,"velocity":0.3937007874015748},{"duration":0.24590150000000222,"midi":61,"time":29.497934104166664,"velocity":0.3937007874015748},{"duration":0.24590149999999866,"midi":64,"time":29.743835604166666,"velocity":0.3937007874015748},{"duration":0.24590149999999866,"midi":66,"time":29.999983,"velocity":0.3937007874015748},{"duration":0.24590149999999866,"midi":59,"time":30.2458845,"velocity":0.3937007874015748},{"duration":0.4918030000000009,"midi":57,"time":30.491785999999998,"velocity":0.3937007874015748},{"duration":0.2471822369791674,"midi":59,"time":30.973343104166666,"velocity":0.3937007874015748},{"duration":0.24590150000000222,"midi":61,"time":31.208998708333333,"velocity":0.3937007874015748},{"duration":0.24590149999999866,"midi":61,"time":31.475392,"velocity":0.3937007874015748},{"duration":0.24590150000000222,"midi":57,"time":32.955923947916666,"velocity":0.3937007874015748},{"duration":0.24590150000000222,"midi":59,"time":33.20182544791667,"velocity":0.3937007874015748},{"duration":0.24590150000000222,"midi":61,"time":33.43748105208333,"velocity":0.3937007874015748},{"duration":0.24590150000000222,"midi":64,"time":33.67825960416667,"velocity":0.3937007874015748},{"duration":0.2459014999999951,"midi":66,"time":33.92416110416667,"velocity":0.3937007874015748},{"duration":0.24590150000000222,"midi":61,"time":34.16493965625,"velocity":0.3937007874015748},{"duration":0.49180300000000443,"midi":59,"time":34.4300522109375,"velocity":0.3937007874015748},{"duration":0.2459014999999951,"midi":57,"time":34.8911175234375,"velocity":0.3937007874015748},{"duration":0.24590150000000222,"midi":59,"time":35.1523878671875,"velocity":0.3937007874015748},{"duration":2.704916499999996,"midi":57,"time":35.40341231510417,"velocity":0.3937007874015748},{"duration":0.2459014999999951,"midi":61,"time":38.60013181510417,"velocity":0.3937007874015748},{"duration":0.2459014999999951,"midi":59,"time":38.85115626302083,"velocity":0.3937007874015748},{"duration":0.24590150000000222,"midi":57,"time":39.09705776302083,"velocity":0.3937007874015748},{"duration":0.122950749999994,"midi":61,"time":39.3327133671875,"velocity":0.3937007874015748},{"duration":0.24590150000000222,"midi":61,"time":39.6093525546875,"velocity":0.3937007874015748},{"duration":0.24590150000000222,"midi":57,"time":40.55709791927083,"velocity":0.3937007874015748},{"duration":0.2459014999999951,"midi":59,"time":40.80299941927083,"velocity":0.3937007874015748},{"duration":0.49180300000000443,"midi":61,"time":41.054023867187496,"velocity":0.3937007874015748},{"duration":0.24590150000000222,"midi":64,"time":41.55607276302083,"velocity":0.3937007874015748},{"duration":0.24590150000000222,"midi":66,"time":41.8070972109375,"velocity":0.3937007874015748},{"duration":0.24590150000000222,"midi":59,"time":42.05812165885417,"velocity":0.3937007874015748},{"duration":0.4918029999999973,"midi":57,"time":42.30402315885417,"velocity":0.3937007874015748},{"duration":0.24590150000000222,"midi":59,"time":42.79582615885417,"velocity":0.3937007874015748},{"duration":0.4918029999999973,"midi":62,"time":43.02251660416667,"velocity":0.3937007874015748},{"duration":0.24590150000000222,"midi":61,"time":43.55018023958333,"velocity":0.3937007874015748},{"duration":0.2459014999999951,"midi":57,"time":44.74382710416667,"velocity":0.3937007874015748},{"duration":0.24590150000000222,"midi":59,"time":44.97435976041667,"velocity":0.3937007874015748},{"duration":0.24590150000000222,"midi":61,"time":45.22538420833333,"velocity":0.3937007874015748},{"duration":0.24590150000000222,"midi":64,"time":45.48281234114583,"velocity":0.3937007874015748},{"duration":0.2459014999999951,"midi":66,"time":45.72871384114583,"velocity":0.3937007874015748},{"duration":0.24590150000000222,"midi":59,"time":45.99382639583333,"velocity":0.3937007874015748},{"duration":0.4918029999999973,"midi":57,"time":46.24613158072917,"velocity":0.3937007874015748},{"duration":0.24462076302084057,"midi":59,"time":46.71231984114583,"velocity":0.3937007874015748},{"duration":0.2459014999999951,"midi":61,"time":46.94157176041667,"velocity":0.3937007874015748},{"duration":0.3688522499999962,"midi":61,"time":47.20284210416667,"velocity":0.3937007874015748},{"duration":0.2459014999999951,"midi":57,"time":48.67312815625,"velocity":0.3937007874015748},{"duration":0.24590150000000222,"midi":59,"time":48.924152604166665,"velocity":0.3937007874015748},{"duration":0.24718223697916386,"midi":61,"time":49.15852747135417,"velocity":0.3937007874015748},{"duration":0.24590150000000222,"midi":64,"time":49.400586760416665,"velocity":0.3937007874015748},{"duration":0.2459014999999951,"midi":66,"time":49.66698005208333,"velocity":0.3937007874015748},{"duration":0.12295075000000111,"midi":61,"time":49.90263565625,"velocity":0.3937007874015748},{"duration":0.12295075000000111,"midi":59,"time":50.03070935416667,"velocity":0.3937007874015748},{"duration":0.4918029999999973,"midi":57,"time":50.15878305208333,"velocity":0.3937007874015748},{"duration":0.24590150000000222,"midi":57,"time":50.67107784375,"velocity":0.3937007874015748},{"duration":0.24590150000000222,"midi":59,"time":50.89136460416667,"velocity":0.3937007874015748},{"duration":1.2295074999999969,"midi":57,"time":51.13214315625,"velocity":0.3937007874015748},{"duration":0.24590150000000222,"midi":66,"time":53.3337300234375,"velocity":0.3937007874015748},{"duration":0.2459014999999951,"midi":69,"time":53.8562707109375,"velocity":0.3937007874015748},{"duration":0.24590150000000222,"midi":71,"time":54.353196658854166,"velocity":0.3937007874015748},{"duration":0.24590150000000222,"midi":69,"time":54.583729315104165,"velocity":0.3937007874015748},{"duration":0.4918029999999973,"midi":73,"time":55.0704093671875,"velocity":0.3937007874015748},{"duration":0.24590150000000222,"midi":74,"time":55.59807300260417,"velocity":0.3937007874015748},{"duration":0.6147537500000055,"midi":73,"time":55.859343346354166,"velocity":0.3937007874015748},{"duration":0.24590150000000222,"midi":73,"time":57.03890210416667,"velocity":0.3937007874015748},{"duration":0.24590150000000222,"midi":74,"time":57.2950495,"velocity":0.3937007874015748},{"duration":0.2459014999999951,"midi":73,"time":57.53582805208333,"velocity":0.3937007874015748},{"duration":0.24590150000000222,"midi":71,"time":57.776606604166666,"velocity":0.3937007874015748},{"duration":0.49180300000000443,"midi":69,"time":58.032754,"velocity":0.3937007874015748},{"duration":0.24590150000000222,"midi":71,"time":58.53480289583333,"velocity":0.3937007874015748},{"duration":0.49180300000000443,"midi":73,"time":59.02660589583333,"velocity":0.3937007874015748},{"duration":0.24590150000000222,"midi":74,"time":59.50304005208333,"velocity":0.3937007874015748},{"duration":0.6147537499999984,"midi":73,"time":59.759187447916666,"velocity":0.3937007874015748},{"duration":0.24590150000000222,"midi":73,"time":60.97332610416667,"velocity":0.3937007874015748},{"duration":0.24590150000000222,"midi":74,"time":61.2294735,"velocity":0.3937007874015748},{"duration":0.24590150000000222,"midi":73,"time":61.48562089583333,"velocity":0.3937007874015748},{"duration":0.3688522499999962,"midi":71,"time":61.7212765,"velocity":0.3937007874015748},{"duration":0.49180300000000443,"midi":69,"time":61.9979156875,"velocity":0.3937007874015748},{"duration":0.2459014999999951,"midi":71,"time":62.46410394791667,"velocity":0.3937007874015748},{"duration":0.4918029999999973,"midi":73,"time":62.97127579166666,"velocity":0.3937007874015748},{"duration":0.2459014999999951,"midi":74,"time":63.447709947916664,"velocity":0.3937007874015748},{"duration":0.3688522499999962,"midi":73,"time":63.698734395833334,"velocity":0.3937007874015748},{"duration":0.24590150000000222,"midi":73,"time":64.91287305208334,"velocity":0.3937007874015748},{"duration":0.245901499999988,"midi":74,"time":65.15877455208334,"velocity":0.3937007874015748},{"duration":0.24590150000000222,"midi":73,"time":65.40979899999999,"velocity":0.3937007874015748},{"duration":0.24590150000000222,"midi":71,"time":65.6557005,"velocity":0.3937007874015748},{"duration":0.49180300000000443,"midi":69,"time":65.91184789583333,"velocity":0.3937007874015748},{"duration":0.24590150000000222,"midi":66,"time":66.37931689322916,"velocity":0.3937007874015748},{"duration":0.24590150000000222,"midi":71,"time":66.63034134114584,"velocity":0.3937007874015748},{"duration":2.581965749999995,"midi":69,"time":66.8813657890625,"velocity":0.3937007874015748},{"duration":0.49180300000000443,"midi":69,"time":70.81578978906249,"velocity":0.3937007874015748},{"duration":0.24590150000000222,"midi":66,"time":71.31783868489583,"velocity":0.3937007874015748},{"duration":0.12295075000000111,"midi":64,"time":71.5688631328125,"velocity":0.3937007874015748},{"duration":0.4918029999999902,"midi":69,"time":71.82116831770834,"velocity":0.3937007874015748},{"duration":0.24590150000000222,"midi":66,"time":72.29760247395834,"velocity":0.3937007874015748},{"duration":0.12295075000000111,"midi":64,"time":72.55374986979166,"velocity":0.3937007874015748},{"duration":0.24590150000000222,"midi":69,"time":73.02634181510416,"velocity":0.3937007874015748},{"duration":0.24590150000000222,"midi":66,"time":73.27736626302084,"velocity":0.3937007874015748},{"duration":0.12295075000000111,"midi":64,"time":73.52326776302084,"velocity":0.3937007874015748},{"duration":0.4918029999999902,"midi":69,"time":73.77941515885416,"velocity":0.3937007874015748},{"duration":0.24590150000000222,"midi":66,"time":74.2660952109375,"velocity":0.3937007874015748},{"duration":0.12295075000000111,"midi":64,"time":74.50687376302083,"velocity":0.3937007874015748},{"duration":0.49180300000000443,"midi":69,"time":74.75277526302084,"velocity":0.3937007874015748},{"duration":0.24590150000000222,"midi":66,"time":75.24457826302084,"velocity":0.3937007874015748},{"duration":0.1229507499999869,"midi":64,"time":75.49047976302084,"velocity":0.3937007874015748},{"duration":0.49180300000000443,"midi":69,"time":75.73638126302083,"velocity":0.3937007874015748},{"duration":0.24590150000000222,"midi":66,"time":76.22818426302084,"velocity":0.3937007874015748},{"duration":0.12295075000000111,"midi":64,"time":76.48945460677083,"velocity":0.3937007874015748},{"duration":0.24590150000000222,"midi":69,"time":76.96204655208334,"velocity":0.3937007874015748},{"duration":0.24590150000000222,"midi":66,"time":77.22331689583334,"velocity":0.3937007874015748},{"duration":0.12295075000000111,"midi":64,"time":77.45384955208334,"velocity":0.3937007874015748},{"duration":0.4918029999999902,"midi":69,"time":77.704874,"velocity":0.3937007874015748},{"duration":0.24590150000000222,"midi":66,"time":78.19155405208333,"velocity":0.3937007874015748},{"duration":0.12295075000000111,"midi":64,"time":78.4425785,"velocity":0.3937007874015748},{"duration":0.49180300000000443,"midi":69,"time":78.68848,"velocity":0.3937007874015748},{"duration":0.24590150000000222,"midi":66,"time":79.180283,"velocity":0.3937007874015748},{"duration":0.12295075000000111,"midi":64,"time":79.43643039583334,"velocity":0.3937007874015748},{"duration":0.49180300000000443,"midi":69,"time":79.67720894791665,"velocity":0.3937007874015748},{"duration":0.24590150000000222,"midi":66,"time":80.15876605208334,"velocity":0.3937007874015748},{"duration":0.12295075000000111,"midi":65,"time":80.4097905,"velocity":0.3937007874015748},{"duration":0.245901499999988,"midi":71,"time":80.9015935,"velocity":0.3937007874015748},{"duration":0.24590150000000222,"midi":68,"time":81.16286384375,"velocity":0.3937007874015748},{"duration":1.229507500000011,"midi":69,"time":81.40364239583333,"velocity":0.3937007874015748},{"duration":0.24590150000000222,"midi":61,"time":85.81962349999999,"velocity":0.3937007874015748},{"duration":0.24590150000000222,"midi":59,"time":86.07577089583333,"velocity":0.3937007874015748},{"duration":0.24590150000000222,"midi":57,"time":86.3114265,"velocity":0.3937007874015748},{"duration":0.12295075000000111,"midi":61,"time":86.557328,"velocity":0.3937007874015748},{"duration":0.24590150000000222,"midi":61,"time":86.81859834375,"velocity":0.3937007874015748},{"duration":0.24590150000000222,"midi":57,"time":87.7829932890625,"velocity":0.3937007874015748},{"duration":0.24590150000000222,"midi":59,"time":88.03914068489584,"velocity":0.3937007874015748},{"duration":0.49180300000000443,"midi":61,"time":88.2747962890625,"velocity":0.3937007874015748},{"duration":0.24590150000000222,"midi":64,"time":88.77172223697916,"velocity":0.3937007874015748},{"duration":0.24590150000000222,"midi":66,"time":89.0278696328125,"velocity":0.3937007874015748},{"duration":0.24590150000000222,"midi":59,"time":89.27889408072916,"velocity":0.3937007874015748},{"duration":0.49180300000000443,"midi":57,"time":89.52479558072916,"velocity":0.3937007874015748},{"duration":0.24590150000000222,"midi":59,"time":90.00635268489583,"velocity":0.3937007874015748},{"duration":0.49180300000000443,"midi":62,"time":90.26250008072915,"velocity":0.3937007874015748},{"duration":0.3688522500000033,"midi":61,"time":90.75430308072916,"velocity":0.3937007874015748},{"duration":0.245901499999988,"midi":57,"time":91.96459952604167,"velocity":0.3937007874015748},{"duration":0.24590150000000222,"midi":59,"time":92.21050102604165,"velocity":0.3937007874015748},{"duration":0.24590150000000222,"midi":61,"time":92.45640252604166,"velocity":0.3937007874015748},{"duration":0.24590150000000222,"midi":64,"time":92.70230402604166,"velocity":0.3937007874015748},{"duration":0.24590150000000222,"midi":66,"time":92.95332847395834,"velocity":0.3937007874015748},{"duration":0.24590150000000222,"midi":59,"time":93.204352921875,"velocity":0.3937007874015748},{"duration":0.49180300000000443,"midi":57,"time":93.46050031770834,"velocity":0.3937007874015748},{"duration":0.24590150000000222,"midi":59,"time":93.93693447395833,"velocity":0.3937007874015748},{"duration":0.12295075000000111,"midi":61,"time":94.18283597395833,"velocity":0.3937007874015748},{"duration":0.49180300000000443,"midi":61,"time":94.43898336979166,"velocity":0.3937007874015748},{"duration":0.24590150000000222,"midi":57,"time":95.89902352604166,"velocity":0.3937007874015748},{"duration":0.24590150000000222,"midi":59,"time":96.14492502604166,"velocity":0.3937007874015748},{"duration":0.24590150000000222,"midi":61,"time":96.39082652604166,"velocity":0.3937007874015748},{"duration":0.245901499999988,"midi":64,"time":96.63672802604167,"velocity":0.3937007874015748},{"duration":0.24590150000000222,"midi":66,"time":96.88775247395833,"velocity":0.3937007874015748},{"duration":0.12295075000000111,"midi":59,"time":97.13877692187499,"velocity":0.3937007874015748},{"duration":0.12295075000000111,"midi":61,"time":97.25660472395833,"velocity":0.3937007874015748},{"duration":0.49180300000000443,"midi":59,"time":97.384678421875,"velocity":0.3937007874015748},{"duration":0.24590150000000222,"midi":57,"time":97.86623552604166,"velocity":0.3937007874015748},{"duration":0.245901499999988,"midi":59,"time":98.11213702604167,"velocity":0.3937007874015748},{"duration":2.70491650000001,"midi":57,"time":98.35803852604165,"velocity":0.3937007874015748},{"duration":0.24590150000000222,"midi":61,"time":101.80065952604166,"velocity":0.3937007874015748},{"duration":0.12295075000000111,"midi":64,"time":102.05168397395833,"velocity":0.3937007874015748},{"duration":0.12295075000000111,"midi":64,"time":102.31295431770833,"velocity":0.3937007874015748},{"duration":0.24590150000000222,"midi":64,"time":102.55885581770833,"velocity":0.3937007874015748},{"duration":0.24590150000000222,"midi":61,"time":103.52709297395833,"velocity":0.3937007874015748},{"duration":0.24590150000000222,"midi":64,"time":103.77299447395833,"velocity":0.3937007874015748},{"duration":0.24590150000000222,"midi":67,"time":104.01889597395834,"velocity":0.3937007874015748},{"duration":0.49180300000000443,"midi":66,"time":104.269920421875,"velocity":0.3937007874015748},{"duration":0.1229507499999869,"midi":64,"time":104.761723421875,"velocity":0.3937007874015748},{"duration":0.6147537500000055,"midi":64,"time":105.01274786979165,"velocity":0.3937007874015748},{"duration":0.24590150000000222,"midi":66,"time":105.75557531770833,"velocity":0.3937007874015748},{"duration":0.24590150000000222,"midi":69,"time":106.00147681770834,"velocity":0.3937007874015748},{"duration":0.4918029999999902,"midi":66,"time":106.237132421875,"velocity":0.3937007874015748},{"duration":0.24590150000000222,"midi":61,"time":107.46151697395834,"velocity":0.3937007874015748},{"duration":0.245901499999988,"midi":64,"time":107.70229552604167,"velocity":0.3937007874015748},{"duration":0.24590150000000222,"midi":67,"time":107.95331997395833,"velocity":0.3937007874015748},{"duration":0.245901499999988,"midi":66,"time":108.21459031770834,"velocity":0.3937007874015748},{"duration":0.24590150000000222,"midi":64,"time":108.450245921875,"velocity":0.3937007874015748},{"duration":0.24590150000000222,"midi":61,"time":108.69102447395834,"velocity":0.3937007874015748},{"duration":0.49180300000000443,"midi":66,"time":108.94717186979166,"velocity":0.3937007874015748},{"duration":0.1229507499999869,"midi":60,"time":109.68487636979167,"velocity":0.3937007874015748},{"duration":0.24590150000000222,"midi":60,"time":109.93077786979165,"velocity":0.3937007874015748},{"duration":0.24590150000000222,"midi":59,"time":110.18180231770833,"velocity":0.3937007874015748},{"duration":0.6147537500000055,"midi":57,"time":110.42258086979166,"velocity":0.3937007874015748},{"duration":0.24590150000000222,"midi":61,"time":112.12852252604166,"velocity":0.3937007874015748},{"duration":0.245901499999988,"midi":64,"time":112.37442402604167,"velocity":0.3937007874015748},{"duration":0.24590150000000222,"midi":66,"time":112.62544847395833,"velocity":0.3937007874015748},{"duration":0.12295075000000111,"midi":59,"time":112.86622702604166,"velocity":0.3937007874015748},{"duration":0.12295075000000111,"midi":61,"time":112.98917777604166,"velocity":0.3937007874015748},{"duration":0.49180300000000443,"midi":59,"time":113.11725147395833,"velocity":0.3937007874015748},{"duration":0.24590150000000222,"midi":57,"time":113.60393152604166,"velocity":0.3937007874015748},{"duration":0.245901499999988,"midi":59,"time":113.84983302604167,"velocity":0.3937007874015748},{"duration":2.336064250000007,"midi":57,"time":114.09573452604165,"velocity":0.3937007874015748},{"duration":0.24590150000000222,"midi":66,"time":116.319093921875,"velocity":0.3937007874015748},{"duration":0.24590150000000222,"midi":69,"time":116.81601986979166,"velocity":0.3937007874015748},{"duration":0.3688522499999891,"midi":71,"time":117.30782286979166,"velocity":0.3937007874015748},{"duration":0.49180300000000443,"midi":73,"time":118.03528147395834,"velocity":0.3937007874015748},{"duration":0.24590150000000222,"midi":74,"time":118.54245331770834,"velocity":0.3937007874015748},{"duration":0.7377045000000066,"midi":73,"time":118.79475850260415,"velocity":0.3937007874015748},{"duration":0.24590150000000222,"midi":73,"time":120.01273936979166,"velocity":0.3937007874015748},{"duration":0.245901499999988,"midi":74,"time":120.24839497395834,"velocity":0.3937007874015748},{"duration":0.245901499999988,"midi":73,"time":120.499419421875,"velocity":0.3937007874015748},{"duration":0.24590150000000222,"midi":71,"time":120.73507502604166,"velocity":0.3937007874015748},{"duration":0.49180300000000443,"midi":69,"time":120.991222421875,"velocity":0.3937007874015748},{"duration":0.24590150000000222,"midi":71,"time":121.47790247395834,"velocity":0.3937007874015748},{"duration":0.4918029999999902,"midi":73,"time":121.974828421875,"velocity":0.3937007874015748},{"duration":0.24590150000000222,"midi":74,"time":122.46150847395833,"velocity":0.3937007874015748},{"duration":0.7377045000000066,"midi":73,"time":122.712532921875,"velocity":0.3937007874015748},{"duration":0.24590150000000222,"midi":73,"time":123.93179452604166,"velocity":0.3937007874015748},{"duration":0.24590150000000222,"midi":74,"time":124.172573078125,"velocity":0.3937007874015748},{"duration":0.24590150000000222,"midi":73,"time":124.42359752604166,"velocity":0.3937007874015748},{"duration":0.24590150000000222,"midi":71,"time":124.664376078125,"velocity":0.3937007874015748},{"duration":0.4918029999999902,"midi":69,"time":124.91540052604167,"velocity":0.3937007874015748},{"duration":0.24590150000000222,"midi":71,"time":125.40720352604166,"velocity":0.3937007874015748},{"duration":0.49180300000000443,"midi":73,"time":125.90412947395832,"velocity":0.3937007874015748},{"duration":0.24590150000000222,"midi":74,"time":126.40617836979168,"velocity":0.3937007874015748},{"duration":0.6147537499999913,"midi":73,"time":126.646956921875,"velocity":0.3937007874015748},{"duration":0.24590150000000222,"midi":73,"time":127.86621852604168,"velocity":0.3937007874015748},{"duration":0.24590150000000222,"midi":74,"time":128.11212002604168,"velocity":0.3937007874015748},{"duration":0.24590150000000222,"midi":73,"time":128.35802152604168,"velocity":0.3937007874015748},{"duration":0.24590150000000222,"midi":71,"time":128.60392302604168,"velocity":0.3937007874015748},{"duration":0.49180300000000443,"midi":69,"time":128.86519336979168,"velocity":0.3937007874015748},{"duration":0.2459014999999738,"midi":66,"time":129.3569963697917,"velocity":0.3937007874015748},{"duration":0.24590150000000222,"midi":71,"time":129.5926519739583,"velocity":0.3937007874015748},{"duration":2.5819657500000233,"midi":69,"time":129.84879936979166,"velocity":0.3937007874015748},{"duration":0.24590150000000222,"midi":66,"time":133.03015002604167,"velocity":0.3937007874015748},{"duration":0.24590150000000222,"midi":69,"time":133.27605152604167,"velocity":0.3937007874015748},{"duration":0.24590150000000222,"midi":71,"time":133.53732186979167,"velocity":0.3937007874015748},{"duration":0.49180300000000443,"midi":73,"time":133.78834631770832,"velocity":0.3937007874015748},{"duration":0.24590150000000222,"midi":74,"time":134.27502636979168,"velocity":0.3937007874015748},{"duration":0.7377045000000066,"midi":73,"time":134.515804921875,"velocity":0.3937007874015748},{"duration":0.24590150000000222,"midi":73,"time":135.73506652604166,"velocity":0.3937007874015748},{"duration":0.24590150000000222,"midi":74,"time":135.98096802604167,"velocity":0.3937007874015748},{"duration":0.24590150000000222,"midi":73,"time":136.22686952604167,"velocity":0.3937007874015748},{"duration":0.24590150000000222,"midi":71,"time":136.47277102604167,"velocity":0.3937007874015748},{"duration":0.49180300000000443,"midi":69,"time":136.72379547395832,"velocity":0.3937007874015748},{"duration":0.3688522500000033,"midi":71,"time":137.21047552604168,"velocity":0.3937007874015748},{"duration":0.49180300000000443,"midi":73,"time":137.71764736979168,"velocity":0.3937007874015748},{"duration":0.2459014999999738,"midi":74,"time":138.19408152604169,"velocity":0.3937007874015748},{"duration":0.8606552500000078,"midi":73,"time":138.43998302604166,"velocity":0.3937007874015748},{"duration":0.24590150000000222,"midi":73,"time":139.66949052604167,"velocity":0.3937007874015748},{"duration":0.24590150000000222,"midi":74,"time":139.910269078125,"velocity":0.3937007874015748},{"duration":0.24590150000000222,"midi":73,"time":140.16129352604167,"velocity":0.3937007874015748},{"duration":0.24590150000000222,"midi":71,"time":140.40719502604168,"velocity":0.3937007874015748},{"duration":0.49180300000000443,"midi":69,"time":140.647973578125,"velocity":0.3937007874015748},{"duration":0.24590150000000222,"midi":71,"time":141.14489952604168,"velocity":0.3937007874015748},{"duration":0.491802999999976,"midi":73,"time":141.65207136979168,"velocity":0.3937007874015748},{"duration":0.24590150000000222,"midi":74,"time":142.14387436979166,"velocity":0.3937007874015748},{"duration":0.8606552500000078,"midi":73,"time":142.38977586979166,"velocity":0.3937007874015748},{"duration":0.24590150000000222,"midi":73,"time":143.60391452604168,"velocity":0.3937007874015748},{"duration":0.24590150000000222,"midi":74,"time":143.84981602604168,"velocity":0.3937007874015748},{"duration":0.24590150000000222,"midi":73,"time":144.09571752604168,"velocity":0.3937007874015748},{"duration":0.24590150000000222,"midi":71,"time":144.34161902604168,"velocity":0.3937007874015748},{"duration":0.491802999999976,"midi":69,"time":144.5875205260417,"velocity":0.3937007874015748},{"duration":0.24590150000000222,"midi":66,"time":145.07932352604166,"velocity":0.3937007874015748},{"duration":0.24590150000000222,"midi":71,"time":145.3303479739583,"velocity":0.3937007874015748},{"duration":2.827867249999997,"midi":69,"time":145.581372421875,"velocity":0.3937007874015748},{"duration":0.12295075000000111,"midi":64,"time":149.76682086979167,"velocity":0.3937007874015748},{"duration":0.24590150000000222,"midi":64,"time":150.24837797395833,"velocity":0.3937007874015748},{"duration":0.24590150000000222,"midi":64,"time":150.74018097395833,"velocity":0.3937007874015748},{"duration":0.24590150000000222,"midi":67,"time":151.22686102604166,"velocity":0.3937007874015748},{"duration":0.8606552500000078,"midi":66,"time":151.47276252604166,"velocity":0.3937007874015748},{"duration":0.24590150000000222,"midi":64,"time":152.71763886979167,"velocity":0.3937007874015748},{"duration":0.12295075000000111,"midi":64,"time":152.96354036979167,"velocity":0.3937007874015748},{"duration":0.12295075000000111,"midi":66,"time":153.19919597395833,"velocity":0.3937007874015748},{"duration":0.12295075000000111,"midi":64,"time":153.68587602604168,"velocity":0.3937007874015748},{"duration":0.9836059999999804,"midi":69,"time":154.187924921875,"velocity":0.3937007874015748},{"duration":0.12295075000000111,"midi":66,"time":155.1817768177083,"velocity":0.3937007874015748},{"duration":0.24590150000000222,"midi":67,"time":155.42255536979167,"velocity":0.3937007874015748},{"duration":0.12295075000000111,"midi":66,"time":155.663333921875,"velocity":0.3937007874015748},{"duration":0.12295075000000111,"midi":67,"time":155.78116172395832,"velocity":0.3937007874015748},{"duration":0.7377045000000066,"midi":66,"time":155.90411247395832,"velocity":0.3937007874015748},{"duration":0.6147537500000055,"midi":64,"time":156.65718581770832,"velocity":0.3937007874015748},{"duration":0.24590150000000222,"midi":61,"time":157.62158076302083,"velocity":0.3937007874015748},{"duration":0.24590150000000222,"midi":64,"time":157.8726052109375,"velocity":0.3937007874015748},{"duration":0.2459014999999738,"midi":61,"time":158.1185067109375,"velocity":0.3937007874015748},{"duration":0.24590150000000222,"midi":64,"time":158.36440821093748,"velocity":0.3937007874015748},{"duration":0.24590150000000222,"midi":66,"time":158.61543265885416,"velocity":0.3937007874015748},{"duration":0.24590150000000222,"midi":61,"time":159.3480142109375,"velocity":0.3937007874015748},{"duration":0.24590150000000222,"midi":64,"time":159.5939157109375,"velocity":0.3937007874015748},{"duration":0.24590150000000222,"midi":66,"time":159.85006310677082,"velocity":0.3937007874015748},{"duration":0.12295075000000111,"midi":59,"time":160.0857187109375,"velocity":0.3937007874015748},{"duration":0.12295075000000111,"midi":61,"time":160.2086694609375,"velocity":0.3937007874015748},{"duration":0.49180300000000443,"midi":59,"time":160.32649726302083,"velocity":0.3937007874015748},{"duration":0.12295075000000111,"midi":57,"time":160.81830026302083,"velocity":0.3937007874015748},{"duration":0.12295075000000111,"midi":57,"time":161.0693247109375,"velocity":0.3937007874015748},{"duration":0.12295075000000111,"midi":59,"time":161.1922754609375,"velocity":0.3937007874015748},{"duration":0.491802999999976,"midi":54,"time":161.3152262109375,"velocity":0.3937007874015748},{"duration":1.3524582500000122,"midi":57,"time":162.0529307109375,"velocity":0.3937007874015748},{"duration":0.3688522500000033,"midi":66,"time":164.5068227630208,"velocity":0.3937007874015748},{"duration":0.24590150000000222,"midi":69,"time":164.7527242630208,"velocity":0.3937007874015748},{"duration":0.24590150000000222,"midi":71,"time":164.9986257630208,"velocity":0.3937007874015748},{"duration":0.49180300000000443,"midi":73,"time":165.2445272630208,"velocity":0.3937007874015748},{"duration":0.24590150000000222,"midi":74,"time":165.7414532109375,"velocity":0.3937007874015748},{"duration":0.8606552500000078,"midi":73,"time":165.98223176302082,"velocity":0.3937007874015748},{"duration":0.24590150000000222,"midi":73,"time":167.2168622109375,"velocity":0.3937007874015748},{"duration":0.2459014999999738,"midi":74,"time":167.4627637109375,"velocity":0.3937007874015748},{"duration":0.24590150000000222,"midi":73,"time":167.7035422630208,"velocity":0.3937007874015748},{"duration":0.24590150000000222,"midi":71,"time":167.9494437630208,"velocity":0.3937007874015748},{"duration":0.6147537500000055,"midi":69,"time":168.2004682109375,"velocity":0.3937007874015748},{"duration":0.24590150000000222,"midi":71,"time":168.69739415885417,"velocity":0.3937007874015748},{"duration":0.49180300000000443,"midi":73,"time":169.1994430546875,"velocity":0.3937007874015748},{"duration":0.24590150000000222,"midi":74,"time":169.672035,"velocity":0.3937007874015748},{"duration":0.7377045000000066,"midi":73,"time":169.92818239583332,"velocity":0.3937007874015748},{"duration":0.24590150000000222,"midi":73,"time":171.16281284375,"velocity":0.3937007874015748},{"duration":0.2459014999999738,"midi":74,"time":171.3933455,"velocity":0.3937007874015748},{"duration":0.24590150000000222,"midi":73,"time":171.63924699999998,"velocity":0.3937007874015748},{"duration":0.24590150000000222,"midi":71,"time":171.88514849999999,"velocity":0.3937007874015748},{"duration":0.6147537500000055,"midi":69,"time":172.13105,"velocity":0.3937007874015748},{"duration":0.24590150000000222,"midi":71,"time":172.62797594791667,"velocity":0.3937007874015748},{"duration":0.49180300000000443,"midi":73,"time":173.13514779166667,"velocity":0.3937007874015748},{"duration":0.24590150000000222,"midi":74,"time":173.60773973697917,"velocity":0.3937007874015748},{"duration":0.8606552500000078,"midi":73,"time":173.85876418489582,"velocity":0.3937007874015748},{"duration":0.24590150000000222,"midi":73,"time":175.08314873697918,"velocity":0.3937007874015748},{"duration":0.2459014999999738,"midi":74,"time":175.3239272890625,"velocity":0.3937007874015748},{"duration":0.24590150000000222,"midi":73,"time":175.57495173697916,"velocity":0.3937007874015748},{"duration":0.24590150000000222,"midi":71,"time":175.82085323697916,"velocity":0.3937007874015748},{"duration":0.49180300000000443,"midi":69,"time":176.0718776848958,"velocity":0.3937007874015748},{"duration":0.24590150000000222,"midi":66,"time":176.57392658072916,"velocity":0.3937007874015748},{"duration":0.24590150000000222,"midi":71,"time":176.81982808072917,"velocity":0.3937007874015748},{"duration":2.827867249999997,"midi":69,"time":177.0606066328125,"velocity":0.3937007874015748},{"duration":0.24590150000000222,"midi":66,"time":180.2573261328125,"velocity":0.3937007874015748},{"duration":0.24590150000000222,"midi":69,"time":180.5032276328125,"velocity":0.3937007874015748},{"duration":0.24590150000000222,"midi":71,"time":180.7491291328125,"velocity":0.3937007874015748},{"duration":0.49180300000000443,"midi":73,"time":181.00015358072918,"velocity":0.3937007874015748},{"duration":0.24590150000000222,"midi":74,"time":181.48171068489583,"velocity":0.3937007874015748},{"duration":0.9836059999999804,"midi":73,"time":181.73785808072918,"velocity":0.3937007874015748},{"duration":0.24590150000000222,"midi":73,"time":182.95711968489582,"velocity":0.3937007874015748},{"duration":0.24590150000000222,"midi":74,"time":183.19789823697917,"velocity":0.3937007874015748},{"duration":0.24590150000000222,"midi":73,"time":183.44379973697917,"velocity":0.3937007874015748},{"duration":0.24590150000000222,"midi":71,"time":183.68970123697918,"velocity":0.3937007874015748},{"duration":0.49180300000000443,"midi":69,"time":183.9458486328125,"velocity":0.3937007874015748},{"duration":0.24590150000000222,"midi":71,"time":184.43252868489583,"velocity":0.3937007874015748},{"duration":0.491802999999976,"midi":73,"time":184.93457758072918,"velocity":0.3937007874015748},{"duration":0.24590150000000222,"midi":74,"time":185.41101173697916,"velocity":0.3937007874015748},{"duration":0.8606552500000078,"midi":73,"time":185.6620361848958,"velocity":0.3937007874015748},{"duration":0.24590150000000222,"midi":73,"time":186.88642073697918,"velocity":0.3937007874015748},{"duration":0.24590150000000222,"midi":74,"time":187.13232223697918,"velocity":0.3937007874015748},{"duration":0.24590150000000222,"midi":73,"time":187.37822373697918,"velocity":0.3937007874015748},{"duration":0.24590150000000222,"midi":71,"time":187.62412523697918,"velocity":0.3937007874015748},{"duration":0.491802999999976,"midi":69,"time":187.87514968489583,"velocity":0.3937007874015748},{"duration":0.24590150000000222,"midi":71,"time":188.36182973697916,"velocity":0.3937007874015748},{"duration":0.49180300000000443,"midi":73,"time":188.8638786328125,"velocity":0.3937007874015748},{"duration":0.37013298697914365,"midi":74,"time":189.34543573697917,"velocity":0.3937007874015748},{"duration":0.8606552500000078,"midi":73,"time":189.61182902864581,"velocity":0.3937007874015748},{"duration":0.24590150000000222,"midi":73,"time":190.82212547395832,"velocity":0.3937007874015748},{"duration":0.24590150000000222,"midi":74,"time":191.06802697395833,"velocity":0.3937007874015748},{"duration":0.24590150000000222,"midi":73,"time":191.31392847395833,"velocity":0.3937007874015748},{"duration":0.24590150000000222,"midi":71,"time":191.55982997395833,"velocity":0.3937007874015748},{"duration":0.491802999999976,"midi":69,"time":191.810854421875,"velocity":0.3937007874015748},{"duration":0.24590150000000222,"midi":66,"time":192.2975344739583,"velocity":0.3937007874015748},{"duration":0.24590150000000222,"midi":71,"time":192.55368186979166,"velocity":0.3937007874015748},{"duration":2.950817999999998,"midi":69,"time":192.7893374739583,"velocity":0.3937007874015748},{"duration":0.49180300000000443,"midi":73,"time":196.74297252864582,"velocity":0.3937007874015748},{"duration":0.24590150000000222,"midi":74,"time":197.23477552864583,"velocity":0.3937007874015748},{"duration":0.7377044999999782,"midi":73,"time":197.4704311328125,"velocity":0.3937007874015748},{"duration":0.24590150000000222,"midi":71,"time":198.2030126848958,"velocity":0.3937007874015748},{"duration":0.7377045000000066,"midi":69,"time":198.4489141848958,"velocity":0.3937007874015748},{"duration":0.24590150000000222,"midi":71,"time":199.18149573697917,"velocity":0.3937007874015748},{"duration":1.229507500000011,"midi":66,"time":199.43252018489582,"velocity":0.3937007874015748},{"duration":0.491802999999976,"midi":73,"time":200.6569047369792,"velocity":0.3937007874015748},{"duration":0.24590150000000222,"midi":74,"time":201.14870773697916,"velocity":0.3937007874015748},{"duration":0.7377045000000066,"midi":73,"time":201.39460923697916,"velocity":0.3937007874015748},{"duration":0.24590150000000222,"midi":71,"time":202.13231373697917,"velocity":0.3937007874015748},{"duration":0.7377045000000066,"midi":69,"time":202.38333818489582,"velocity":0.3937007874015748},{"duration":0.24590150000000222,"midi":71,"time":203.11591973697918,"velocity":0.3937007874015748},{"duration":1.2295074999999827,"midi":66,"time":203.36182123697918,"velocity":0.3937007874015748},{"duration":0.49180300000000443,"midi":73,"time":204.59132873697916,"velocity":0.3937007874015748},{"duration":0.24590150000000222,"midi":74,"time":205.08825468489582,"velocity":0.3937007874015748},{"duration":0.7377045000000066,"midi":73,"time":205.32903323697917,"velocity":0.3937007874015748},{"duration":0.24590150000000222,"midi":71,"time":206.06673773697918,"velocity":0.3937007874015748},{"duration":0.7377044999999782,"midi":69,"time":206.31263923697918,"velocity":0.3937007874015748},{"duration":0.24590150000000222,"midi":71,"time":207.05034373697916,"velocity":0.3937007874015748},{"duration":0.7377045000000066,"midi":66,"time":207.29624523697916,"velocity":0.3937007874015748},{"duration":0.24590150000000222,"midi":71,"time":208.03394973697917,"velocity":0.3937007874015748},{"duration":3.1967195000000004,"midi":69,"time":208.28497418489582,"velocity":0.3937007874015748},{"duration":0.49180300000000443,"midi":73,"time":212.4704226328125,"velocity":0.3937007874015748},{"duration":0.24590150000000222,"midi":74,"time":212.97247152864583,"velocity":0.3937007874015748},{"duration":0.7377045000000066,"midi":73,"time":213.19916197395833,"velocity":0.3937007874015748},{"duration":0.24590150000000222,"midi":71,"time":213.941989421875,"velocity":0.3937007874015748},{"duration":0.7377045000000066,"midi":69,"time":214.1827679739583,"velocity":0.3937007874015748},{"duration":0.24590150000000222,"midi":71,"time":214.925595421875,"velocity":0.3937007874015748},{"duration":1.229507500000011,"midi":66,"time":215.16637397395831,"velocity":0.3937007874015748},{"duration":0.49180300000000443,"midi":73,"time":216.39588147395833,"velocity":0.3937007874015748},{"duration":0.24590150000000222,"midi":74,"time":216.88768447395833,"velocity":0.3937007874015748},{"duration":0.7377044999999782,"midi":73,"time":217.13358597395833,"velocity":0.3937007874015748},{"duration":0.24590150000000222,"midi":71,"time":217.8712904739583,"velocity":0.3937007874015748},{"duration":0.7377045000000066,"midi":69,"time":218.1171919739583,"velocity":0.3937007874015748},{"duration":0.24590150000000222,"midi":71,"time":218.85489647395832,"velocity":0.3937007874015748},{"duration":1.229507500000011,"midi":66,"time":219.10079797395832,"velocity":0.3937007874015748},{"duration":0.491802999999976,"midi":73,"time":220.33030547395833,"velocity":0.3937007874015748},{"duration":0.24590150000000222,"midi":74,"time":220.8374773177083,"velocity":0.3937007874015748},{"duration":0.7377045000000066,"midi":73,"time":221.0680099739583,"velocity":0.3937007874015748},{"duration":0.24590150000000222,"midi":71,"time":221.82492552864582,"velocity":0.3937007874015748},{"duration":0.7377045000000066,"midi":69,"time":222.05161597395832,"velocity":0.3937007874015748},{"duration":0.24590150000000222,"midi":71,"time":222.78932047395833,"velocity":0.3937007874015748},{"duration":0.7377044999999782,"midi":66,"time":223.040344921875,"velocity":0.3937007874015748},{"duration":0.24590150000000222,"midi":71,"time":223.76780352604166,"velocity":0.3937007874015748},{"duration":3.3196702500000015,"midi":69,"time":224.0188279739583,"velocity":0.3937007874015748}]},{"instrument":{"family":"chromatic percussion","number":11,"name":"vibraphone"},"notes":[{"duration":0.24590150000000222,"midi":54,"time":22.858593604166664,"velocity":0.3937007874015748},{"duration":0.24590150000000222,"midi":57,"time":23.114741,"velocity":0.3937007874015748},{"duration":0.24590150000000222,"midi":59,"time":23.370888395833333,"velocity":0.3937007874015748},{"duration":0.24590149999999866,"midi":61,"time":23.632158739583335,"velocity":0.3937007874015748},{"duration":0.7377044999999995,"midi":61,"time":23.8831831875,"velocity":0.3937007874015748},{"duration":0.24590149999999866,"midi":59,"time":25.332977447916665,"velocity":0.3937007874015748},{"duration":0.24590150000000222,"midi":61,"time":25.548141260416664,"velocity":0.3937007874015748},{"duration":0.24590149999999866,"midi":64,"time":25.809411604166666,"velocity":0.3937007874015748},{"duration":0.24590149999999866,"midi":66,"time":26.05019015625,"velocity":0.3937007874015748},{"duration":0.24590149999999866,"midi":59,"time":26.306337552083335,"velocity":0.3937007874015748},{"duration":0.4918030000000009,"midi":57,"time":26.557361999999998,"velocity":0.3937007874015748},{"duration":0.24590149999999866,"midi":59,"time":27.054287947916666,"velocity":0.3937007874015748},{"duration":0.24590150000000222,"midi":61,"time":27.289943552083333,"velocity":0.3937007874015748},{"duration":0.7377044999999995,"midi":61,"time":27.55633684375,"velocity":0.3937007874015748},{"duration":0.24590149999999866,"midi":57,"time":29.006131104166666,"velocity":0.3937007874015748},{"duration":0.24590149999999866,"midi":59,"time":29.252032604166665,"velocity":0.3937007874015748},{"duration":0.24590150000000222,"midi":61,"time":29.497934104166664,"velocity":0.3937007874015748},{"duration":0.24590149999999866,"midi":64,"time":29.743835604166666,"velocity":0.3937007874015748},{"duration":0.24590149999999866,"midi":66,"time":29.999983,"velocity":0.3937007874015748},{"duration":0.24590149999999866,"midi":59,"time":30.2458845,"velocity":0.3937007874015748},{"duration":0.4918030000000009,"midi":57,"time":30.491785999999998,"velocity":0.3937007874015748},{"duration":0.2471822369791674,"midi":59,"time":30.973343104166666,"velocity":0.3937007874015748},{"duration":0.24590150000000222,"midi":61,"time":31.208998708333333,"velocity":0.3937007874015748},{"duration":0.6147537499999984,"midi":61,"time":31.475392,"velocity":0.3937007874015748},{"duration":0.24590150000000222,"midi":57,"time":32.955923947916666,"velocity":0.3937007874015748},{"duration":0.24590150000000222,"midi":59,"time":33.20182544791667,"velocity":0.3937007874015748},{"duration":0.24590150000000222,"midi":61,"time":33.43748105208333,"velocity":0.3937007874015748},{"duration":0.24590150000000222,"midi":64,"time":33.67825960416667,"velocity":0.3937007874015748},{"duration":0.2459014999999951,"midi":66,"time":33.92416110416667,"velocity":0.3937007874015748},{"duration":0.24590150000000222,"midi":61,"time":34.16493965625,"velocity":0.3937007874015748},{"duration":0.49180300000000443,"midi":59,"time":34.4300522109375,"velocity":0.3937007874015748},{"duration":0.2459014999999951,"midi":57,"time":34.8911175234375,"velocity":0.3937007874015748},{"duration":0.24590150000000222,"midi":59,"time":35.1523878671875,"velocity":0.3937007874015748},{"duration":3.0737687499999993,"midi":62,"time":35.40341231510417,"velocity":0.3937007874015748},{"duration":3.0737687499999993,"midi":57,"time":35.40341231510417,"velocity":0.3937007874015748},{"duration":0.2459014999999951,"midi":61,"time":38.60013181510417,"velocity":0.3937007874015748},{"duration":0.2459014999999951,"midi":59,"time":38.85115626302083,"velocity":0.3937007874015748},{"duration":0.24590150000000222,"midi":57,"time":39.09705776302083,"velocity":0.3937007874015748},{"duration":0.2459014999999951,"midi":61,"time":39.3327133671875,"velocity":0.3937007874015748},{"duration":0.49180300000000443,"midi":61,"time":39.6093525546875,"velocity":0.3937007874015748},{"duration":0.24590150000000222,"midi":57,"time":40.55709791927083,"velocity":0.3937007874015748},{"duration":0.2459014999999951,"midi":59,"time":40.80299941927083,"velocity":0.3937007874015748},{"duration":0.49180300000000443,"midi":61,"time":41.054023867187496,"velocity":0.3937007874015748},{"duration":0.24590150000000222,"midi":64,"time":41.55607276302083,"velocity":0.3937007874015748},{"duration":0.24590150000000222,"midi":66,"time":41.8070972109375,"velocity":0.3937007874015748},{"duration":0.24590150000000222,"midi":59,"time":42.05812165885417,"velocity":0.3937007874015748},{"duration":0.4918029999999973,"midi":57,"time":42.30402315885417,"velocity":0.3937007874015748},{"duration":0.24590150000000222,"midi":59,"time":42.79582615885417,"velocity":0.3937007874015748},{"duration":0.4918029999999973,"midi":62,"time":43.02251660416667,"velocity":0.3937007874015748},{"duration":0.7377045000000066,"midi":61,"time":43.55018023958333,"velocity":0.3937007874015748},{"duration":0.2459014999999951,"midi":57,"time":44.74382710416667,"velocity":0.3937007874015748},{"duration":0.24590150000000222,"midi":59,"time":44.97435976041667,"velocity":0.3937007874015748},{"duration":0.24590150000000222,"midi":61,"time":45.22538420833333,"velocity":0.3937007874015748},{"duration":0.24590150000000222,"midi":64,"time":45.48281234114583,"velocity":0.3937007874015748},{"duration":0.2459014999999951,"midi":66,"time":45.72871384114583,"velocity":0.3937007874015748},{"duration":0.24590150000000222,"midi":59,"time":45.99382639583333,"velocity":0.3937007874015748},{"duration":0.4918029999999973,"midi":57,"time":46.24613158072917,"velocity":0.3937007874015748},{"duration":0.24462076302084057,"midi":59,"time":46.71231984114583,"velocity":0.3937007874015748},{"duration":0.2459014999999951,"midi":61,"time":46.94157176041667,"velocity":0.3937007874015748},{"duration":0.7377044999999995,"midi":61,"time":47.20284210416667,"velocity":0.3937007874015748},{"duration":0.2459014999999951,"midi":57,"time":48.67312815625,"velocity":0.3937007874015748},{"duration":0.24590150000000222,"midi":59,"time":48.924152604166665,"velocity":0.3937007874015748},{"duration":0.24718223697916386,"midi":61,"time":49.15852747135417,"velocity":0.3937007874015748},{"duration":0.24590150000000222,"midi":64,"time":49.400586760416665,"velocity":0.3937007874015748},{"duration":0.2459014999999951,"midi":66,"time":49.66698005208333,"velocity":0.3937007874015748},{"duration":0.12295075000000111,"midi":61,"time":49.90263565625,"velocity":0.3937007874015748},{"duration":0.12295075000000111,"midi":59,"time":50.03070935416667,"velocity":0.3937007874015748},{"duration":0.4918029999999973,"midi":57,"time":50.15878305208333,"velocity":0.3937007874015748},{"duration":0.24590150000000222,"midi":57,"time":50.67107784375,"velocity":0.3937007874015748},{"duration":0.24590150000000222,"midi":59,"time":50.89136460416667,"velocity":0.3937007874015748},{"duration":2.0901627499999975,"midi":57,"time":51.13214315625,"velocity":0.3937007874015748},{"duration":0.49180300000000443,"midi":66,"time":53.3606255,"velocity":0.3937007874015748},{"duration":0.4918029999999973,"midi":69,"time":53.8524285,"velocity":0.3937007874015748},{"duration":0.24590150000000222,"midi":71,"time":54.3442315,"velocity":0.3937007874015748},{"duration":0.4918029999999973,"midi":69,"time":54.590133,"velocity":0.3937007874015748},{"duration":0.4918029999999973,"midi":73,"time":55.081936,"velocity":0.3937007874015748},{"duration":0.24590150000000222,"midi":74,"time":55.573738999999996,"velocity":0.3937007874015748},{"duration":1.229507500000004,"midi":73,"time":55.8196405,"velocity":0.3937007874015748},{"duration":0.2459014999999951,"midi":73,"time":57.049148,"velocity":0.3937007874015748},{"duration":0.24590150000000222,"midi":74,"time":57.2950495,"velocity":0.3937007874015748},{"duration":0.24590150000000222,"midi":73,"time":57.540951,"velocity":0.3937007874015748},{"duration":0.2459014999999951,"midi":71,"time":57.7868525,"velocity":0.3937007874015748},{"duration":0.49180300000000443,"midi":69,"time":58.032754,"velocity":0.3937007874015748},{"duration":0.4918029999999973,"midi":71,"time":58.524557,"velocity":0.3937007874015748},{"duration":0.4918029999999973,"midi":73,"time":59.01636,"velocity":0.3937007874015748},{"duration":0.24590150000000222,"midi":74,"time":59.508162999999996,"velocity":0.3937007874015748},{"duration":1.2295074999999969,"midi":73,"time":59.7540645,"velocity":0.3937007874015748},{"duration":0.24590150000000222,"midi":73,"time":60.983571999999995,"velocity":0.3937007874015748},{"duration":0.24590150000000222,"midi":74,"time":61.2294735,"velocity":0.3937007874015748},{"duration":0.24590150000000222,"midi":73,"time":61.475375,"velocity":0.3937007874015748},{"duration":0.2459014999999951,"midi":71,"time":61.7212765,"velocity":0.3937007874015748},{"duration":0.49180300000000443,"midi":69,"time":61.967178,"velocity":0.3937007874015748},{"duration":0.4918029999999973,"midi":71,"time":62.458981,"velocity":0.3937007874015748},{"duration":0.4918029999999973,"midi":73,"time":62.950784,"velocity":0.3937007874015748},{"duration":0.24590150000000222,"midi":74,"time":63.442586999999996,"velocity":0.3937007874015748},{"duration":1.229507500000004,"midi":73,"time":63.6884885,"velocity":0.3937007874015748},{"duration":0.24590150000000222,"midi":73,"time":64.917996,"velocity":0.3937007874015748},{"duration":0.245901499999988,"midi":74,"time":65.1638975,"velocity":0.3937007874015748},{"duration":0.24590150000000222,"midi":73,"time":65.40979899999999,"velocity":0.3937007874015748},{"duration":0.24590150000000222,"midi":71,"time":65.6557005,"velocity":0.3937007874015748},{"duration":0.49180300000000443,"midi":69,"time":65.901602,"velocity":0.3937007874015748},{"duration":0.24590150000000222,"midi":66,"time":66.393405,"velocity":0.3937007874015748},{"duration":0.24590150000000222,"midi":71,"time":66.6393065,"velocity":0.3937007874015748},{"duration":3.196719499999986,"midi":69,"time":66.885208,"velocity":0.3937007874015748},{"duration":0.49180300000000443,"midi":69,"time":70.819632,"velocity":0.3937007874015748},{"duration":0.49180300000000443,"midi":57,"time":70.819632,"velocity":0.3937007874015748},{"duration":0.24590150000000222,"midi":54,"time":71.311435,"velocity":0.3937007874015748},{"duration":0.24590150000000222,"midi":66,"time":71.311435,"velocity":0.3937007874015748},{"duration":0.245901499999988,"midi":52,"time":71.5573365,"velocity":0.3937007874015748},{"duration":0.245901499999988,"midi":64,"time":71.5573365,"velocity":0.3937007874015748},{"duration":0.49180300000000443,"midi":57,"time":71.803238,"velocity":0.3937007874015748},{"duration":0.49180300000000443,"midi":69,"time":71.803238,"velocity":0.3937007874015748},{"duration":0.24590150000000222,"midi":66,"time":72.295041,"velocity":0.3937007874015748},{"duration":0.24590150000000222,"midi":54,"time":72.295041,"velocity":0.3937007874015748},{"duration":0.49180300000000443,"midi":52,"time":72.5409425,"velocity":0.3937007874015748},{"duration":0.49180300000000443,"midi":64,"time":72.5409425,"velocity":0.3937007874015748},{"duration":0.245901499999988,"midi":57,"time":73.0327455,"velocity":0.3937007874015748},{"duration":0.245901499999988,"midi":69,"time":73.0327455,"velocity":0.3937007874015748},{"duration":0.24590150000000222,"midi":54,"time":73.27864699999999,"velocity":0.3937007874015748},{"duration":0.24590150000000222,"midi":66,"time":73.27864699999999,"velocity":0.3937007874015748},{"duration":0.24590150000000222,"midi":64,"time":73.5245485,"velocity":0.3937007874015748},{"duration":0.24590150000000222,"midi":52,"time":73.5245485,"velocity":0.3937007874015748},{"duration":0.49180300000000443,"midi":57,"time":73.77045,"velocity":0.3937007874015748},{"duration":0.49180300000000443,"midi":69,"time":73.77045,"velocity":0.3937007874015748},{"duration":0.24590150000000222,"midi":54,"time":74.262253,"velocity":0.3937007874015748},{"duration":0.24590150000000222,"midi":66,"time":74.262253,"velocity":0.3937007874015748},{"duration":0.245901499999988,"midi":52,"time":74.5081545,"velocity":0.3937007874015748},{"duration":0.245901499999988,"midi":64,"time":74.5081545,"velocity":0.3937007874015748},{"duration":0.49180300000000443,"midi":57,"time":74.75405599999999,"velocity":0.3937007874015748},{"duration":0.49180300000000443,"midi":69,"time":74.75405599999999,"velocity":0.3937007874015748},{"duration":0.24590150000000222,"midi":54,"time":75.245859,"velocity":0.3937007874015748},{"duration":0.24590150000000222,"midi":66,"time":75.245859,"velocity":0.3937007874015748},{"duration":0.24590150000000222,"midi":64,"time":75.4917605,"velocity":0.3937007874015748},{"duration":0.24590150000000222,"midi":52,"time":75.4917605,"velocity":0.3937007874015748},{"duration":0.49180300000000443,"midi":57,"time":75.737662,"velocity":0.3937007874015748},{"duration":0.49180300000000443,"midi":69,"time":75.737662,"velocity":0.3937007874015748},{"duration":0.245901499999988,"midi":54,"time":76.229465,"velocity":0.3937007874015748},{"duration":0.245901499999988,"midi":66,"time":76.229465,"velocity":0.3937007874015748},{"duration":0.49180300000000443,"midi":52,"time":76.47536649999999,"velocity":0.3937007874015748},{"duration":0.49180300000000443,"midi":64,"time":76.47536649999999,"velocity":0.3937007874015748},{"duration":0.24590150000000222,"midi":57,"time":76.9671695,"velocity":0.3937007874015748},{"duration":0.24590150000000222,"midi":69,"time":76.9671695,"velocity":0.3937007874015748},{"duration":0.24590150000000222,"midi":54,"time":77.213071,"velocity":0.3937007874015748},{"duration":0.24590150000000222,"midi":66,"time":77.213071,"velocity":0.3937007874015748},{"duration":0.24590150000000222,"midi":52,"time":77.4589725,"velocity":0.3937007874015748},{"duration":0.24590150000000222,"midi":64,"time":77.4589725,"velocity":0.3937007874015748},{"duration":0.4918029999999902,"midi":69,"time":77.704874,"velocity":0.3937007874015748},{"duration":0.4918029999999902,"midi":57,"time":77.704874,"velocity":0.3937007874015748},{"duration":0.24590150000000222,"midi":54,"time":78.196677,"velocity":0.3937007874015748},{"duration":0.24590150000000222,"midi":66,"time":78.196677,"velocity":0.3937007874015748},{"duration":0.24590150000000222,"midi":52,"time":78.4425785,"velocity":0.3937007874015748},{"duration":0.24590150000000222,"midi":64,"time":78.4425785,"velocity":0.3937007874015748},{"duration":0.49180300000000443,"midi":57,"time":78.68848,"velocity":0.3937007874015748},{"duration":0.49180300000000443,"midi":69,"time":78.68848,"velocity":0.3937007874015748},{"duration":0.24590150000000222,"midi":54,"time":79.180283,"velocity":0.3937007874015748},{"duration":0.24590150000000222,"midi":66,"time":79.180283,"velocity":0.3937007874015748},{"duration":0.245901499999988,"midi":52,"time":79.4261845,"velocity":0.3937007874015748},{"duration":0.245901499999988,"midi":64,"time":79.4261845,"velocity":0.3937007874015748},{"duration":0.49180300000000443,"midi":57,"time":79.672086,"velocity":0.3937007874015748},{"duration":0.49180300000000443,"midi":69,"time":79.672086,"velocity":0.3937007874015748},{"duration":0.24590150000000222,"midi":54,"time":80.163889,"velocity":0.3937007874015748},{"duration":0.24590150000000222,"midi":66,"time":80.163889,"velocity":0.3937007874015748},{"duration":0.49180300000000443,"midi":65,"time":80.4097905,"velocity":0.3937007874015748},{"duration":0.49180300000000443,"midi":53,"time":80.4097905,"velocity":0.3937007874015748},{"duration":0.245901499999988,"midi":59,"time":80.9015935,"velocity":0.3937007874015748},{"duration":0.245901499999988,"midi":71,"time":80.9015935,"velocity":0.3937007874015748},{"duration":0.24590150000000222,"midi":56,"time":81.14749499999999,"velocity":0.3937007874015748},{"duration":0.24590150000000222,"midi":68,"time":81.14749499999999,"velocity":0.3937007874015748},{"duration":1.352458249999998,"midi":69,"time":81.3933965,"velocity":0.3937007874015748},{"duration":1.352458249999998,"midi":57,"time":81.3933965,"velocity":0.3937007874015748},{"duration":0.24590150000000222,"midi":61,"time":85.81450055208333,"velocity":0.3937007874015748},{"duration":0.24590150000000222,"midi":59,"time":86.07064794791665,"velocity":0.3937007874015748},{"duration":0.24590150000000222,"midi":57,"time":86.30630355208334,"velocity":0.3937007874015748},{"duration":0.24590150000000222,"midi":61,"time":86.55220505208334,"velocity":0.3937007874015748},{"duration":0.7377045000000066,"midi":61,"time":86.81347539583334,"velocity":0.3937007874015748},{"duration":0.245901499999988,"midi":57,"time":87.77787034114584,"velocity":0.3937007874015748},{"duration":0.245901499999988,"midi":59,"time":88.03401773697917,"velocity":0.3937007874015748},{"duration":0.49180300000000443,"midi":61,"time":88.26967334114583,"velocity":0.3937007874015748},{"duration":0.24590150000000222,"midi":64,"time":88.7665992890625,"velocity":0.3937007874015748},{"duration":0.24590150000000222,"midi":66,"time":89.02274668489584,"velocity":0.3937007874015748},{"duration":0.24590150000000222,"midi":59,"time":89.2737711328125,"velocity":0.3937007874015748},{"duration":0.4918029999999902,"midi":57,"time":89.5196726328125,"velocity":0.3937007874015748},{"duration":0.24590150000000222,"midi":59,"time":90.00122973697916,"velocity":0.3937007874015748},{"duration":0.49180300000000443,"midi":62,"time":90.2573771328125,"velocity":0.3937007874015748},{"duration":0.7377045000000066,"midi":61,"time":90.7491801328125,"velocity":0.3937007874015748},{"duration":0.24590150000000222,"midi":57,"time":91.95947657812499,"velocity":0.3937007874015748},{"duration":0.24590150000000222,"midi":59,"time":92.205378078125,"velocity":0.3937007874015748},{"duration":0.24590150000000222,"midi":61,"time":92.451279578125,"velocity":0.3937007874015748},{"duration":0.24590150000000222,"midi":64,"time":92.697181078125,"velocity":0.3937007874015748},{"duration":0.24590150000000222,"midi":66,"time":92.94820552604166,"velocity":0.3937007874015748},{"duration":0.24590150000000222,"midi":59,"time":93.19922997395834,"velocity":0.3937007874015748},{"duration":0.49180300000000443,"midi":57,"time":93.45537736979166,"velocity":0.3937007874015748},{"duration":0.24590150000000222,"midi":59,"time":93.93181152604166,"velocity":0.3937007874015748},{"duration":0.24590150000000222,"midi":61,"time":94.17771302604166,"velocity":0.3937007874015748},{"duration":0.9836059999999947,"midi":61,"time":94.433860421875,"velocity":0.3937007874015748},{"duration":0.24590150000000222,"midi":57,"time":95.893900578125,"velocity":0.3937007874015748},{"duration":0.24590150000000222,"midi":59,"time":96.139802078125,"velocity":0.3937007874015748},{"duration":0.245901499999988,"midi":61,"time":96.385703578125,"velocity":0.3937007874015748},{"duration":0.24590150000000222,"midi":64,"time":96.63160507812499,"velocity":0.3937007874015748},{"duration":0.24590150000000222,"midi":66,"time":96.88262952604165,"velocity":0.3937007874015748},{"duration":0.12295075000000111,"midi":59,"time":97.13365397395833,"velocity":0.3937007874015748},{"duration":0.12295075000000111,"midi":61,"time":97.25148177604166,"velocity":0.3937007874015748},{"duration":0.49180300000000443,"midi":59,"time":97.37955547395833,"velocity":0.3937007874015748},{"duration":0.24590150000000222,"midi":57,"time":97.861112578125,"velocity":0.3937007874015748},{"duration":0.245901499999988,"midi":59,"time":98.107014078125,"velocity":0.3937007874015748},{"duration":3.4426210000000026,"midi":57,"time":98.35291557812499,"velocity":0.3937007874015748},{"duration":0.24590150000000222,"midi":61,"time":101.795536578125,"velocity":0.3937007874015748},{"duration":0.24590150000000222,"midi":64,"time":102.04656102604166,"velocity":0.3937007874015748},{"duration":0.24590150000000222,"midi":64,"time":102.30783136979166,"velocity":0.3937007874015748},{"duration":0.7377045000000066,"midi":64,"time":102.55373286979166,"velocity":0.3937007874015748},{"duration":0.24590150000000222,"midi":61,"time":103.52197002604166,"velocity":0.3937007874015748},{"duration":0.24590150000000222,"midi":64,"time":103.76787152604166,"velocity":0.3937007874015748},{"duration":0.24590150000000222,"midi":67,"time":104.01377302604166,"velocity":0.3937007874015748},{"duration":0.4918029999999902,"midi":66,"time":104.26479747395834,"velocity":0.3937007874015748},{"duration":0.24590150000000222,"midi":64,"time":104.75660047395833,"velocity":0.3937007874015748},{"duration":0.7377045000000066,"midi":64,"time":105.00762492187499,"velocity":0.3937007874015748},{"duration":0.24590150000000222,"midi":66,"time":105.75045236979166,"velocity":0.3937007874015748},{"duration":0.24590150000000222,"midi":69,"time":105.99635386979166,"velocity":0.3937007874015748},{"duration":0.9836059999999947,"midi":66,"time":106.23200947395834,"velocity":0.3937007874015748},{"duration":0.24590150000000222,"midi":61,"time":107.45639402604166,"velocity":0.3937007874015748},{"duration":0.24590150000000222,"midi":64,"time":107.69717257812499,"velocity":0.3937007874015748},{"duration":0.24590150000000222,"midi":67,"time":107.94819702604165,"velocity":0.3937007874015748},{"duration":0.24590150000000222,"midi":66,"time":108.20946736979165,"velocity":0.3937007874015748},{"duration":0.24590150000000222,"midi":64,"time":108.44512297395833,"velocity":0.3937007874015748},{"duration":0.24590150000000222,"midi":61,"time":108.68590152604166,"velocity":0.3937007874015748},{"duration":0.7377044999999924,"midi":66,"time":108.942048921875,"velocity":0.3937007874015748},{"duration":0.24590150000000222,"midi":60,"time":109.67975342187499,"velocity":0.3937007874015748},{"duration":0.24590150000000222,"midi":60,"time":109.925654921875,"velocity":0.3937007874015748},{"duration":0.24590150000000222,"midi":59,"time":110.17667936979166,"velocity":0.3937007874015748},{"duration":1.2295074999999969,"midi":57,"time":110.417457921875,"velocity":0.3937007874015748},{"duration":0.245901499999988,"midi":61,"time":112.123399578125,"velocity":0.3937007874015748},{"duration":0.24590150000000222,"midi":64,"time":112.36930107812499,"velocity":0.3937007874015748},{"duration":0.24590150000000222,"midi":66,"time":112.62032552604165,"velocity":0.3937007874015748},{"duration":0.12295075000000111,"midi":59,"time":112.861104078125,"velocity":0.3937007874015748},{"duration":0.12295075000000111,"midi":61,"time":112.984054828125,"velocity":0.3937007874015748},{"duration":0.49180300000000443,"midi":59,"time":113.11212852604166,"velocity":0.3937007874015748},{"duration":0.24590150000000222,"midi":57,"time":113.598808578125,"velocity":0.3937007874015748},{"duration":0.245901499999988,"midi":59,"time":113.844710078125,"velocity":0.3937007874015748},{"duration":2.2131135000000057,"midi":57,"time":114.09061157812499,"velocity":0.3937007874015748},{"duration":0.49180300000000443,"midi":66,"time":116.31397097395833,"velocity":0.3937007874015748},{"duration":0.49180300000000443,"midi":69,"time":116.80577397395834,"velocity":0.3937007874015748},{"duration":0.7377044999999924,"midi":71,"time":117.29757697395834,"velocity":0.3937007874015748},{"duration":0.49180300000000443,"midi":73,"time":118.03528147395834,"velocity":0.3937007874015748},{"duration":0.24590150000000222,"midi":74,"time":118.52708447395834,"velocity":0.3937007874015748},{"duration":1.2295074999999969,"midi":73,"time":118.77298597395834,"velocity":0.3937007874015748},{"duration":0.24590150000000222,"midi":73,"time":120.00249347395834,"velocity":0.3937007874015748},{"duration":0.245901499999988,"midi":74,"time":120.24839497395834,"velocity":0.3937007874015748},{"duration":0.24590150000000222,"midi":73,"time":120.49429647395833,"velocity":0.3937007874015748},{"duration":0.24590150000000222,"midi":71,"time":120.74019797395833,"velocity":0.3937007874015748},{"duration":0.49180300000000443,"midi":69,"time":120.98609947395833,"velocity":0.3937007874015748},{"duration":0.49180300000000443,"midi":71,"time":121.47790247395834,"velocity":0.3937007874015748},{"duration":0.4918029999999902,"midi":73,"time":121.96970547395834,"velocity":0.3937007874015748},{"duration":0.24590150000000222,"midi":74,"time":122.46150847395833,"velocity":0.3937007874015748},{"duration":1.2295074999999969,"midi":73,"time":122.70740997395833,"velocity":0.3937007874015748},{"duration":0.24590150000000222,"midi":73,"time":123.93691747395833,"velocity":0.3937007874015748},{"duration":0.24590150000000222,"midi":74,"time":124.18281897395833,"velocity":0.3937007874015748},{"duration":0.24590150000000222,"midi":73,"time":124.42872047395834,"velocity":0.3937007874015748},{"duration":0.24590150000000222,"midi":71,"time":124.67462197395834,"velocity":0.3937007874015748},{"duration":0.4918029999999902,"midi":69,"time":124.92052347395834,"velocity":0.3937007874015748},{"duration":0.4918029999999902,"midi":71,"time":125.41232647395833,"velocity":0.3937007874015748},{"duration":0.49180300000000443,"midi":73,"time":125.90412947395832,"velocity":0.3937007874015748},{"duration":0.24590150000000222,"midi":74,"time":126.39593247395833,"velocity":0.3937007874015748},{"duration":1.2295074999999969,"midi":73,"time":126.64183397395833,"velocity":0.3937007874015748},{"duration":0.24590150000000222,"midi":73,"time":127.87134147395832,"velocity":0.3937007874015748},{"duration":0.24590150000000222,"midi":74,"time":128.11724297395833,"velocity":0.3937007874015748},{"duration":0.24590150000000222,"midi":73,"time":128.36314447395833,"velocity":0.3937007874015748},{"duration":0.24590150000000222,"midi":71,"time":128.60904597395833,"velocity":0.3937007874015748},{"duration":0.491802999999976,"midi":69,"time":128.85494747395833,"velocity":0.3937007874015748},{"duration":0.24590150000000222,"midi":66,"time":129.3467504739583,"velocity":0.3937007874015748},{"duration":0.24590150000000222,"midi":71,"time":129.5926519739583,"velocity":0.3937007874015748},{"duration":3.1967195000000004,"midi":69,"time":129.8385534739583,"velocity":0.3937007874015748},{"duration":0.24590150000000222,"midi":66,"time":133.0352729739583,"velocity":0.3937007874015748},{"duration":0.24590150000000222,"midi":69,"time":133.28117447395832,"velocity":0.3937007874015748},{"duration":0.24590150000000222,"midi":71,"time":133.52707597395832,"velocity":0.3937007874015748},{"duration":0.49180300000000443,"midi":73,"time":133.77297747395832,"velocity":0.3937007874015748},{"duration":0.24590150000000222,"midi":74,"time":134.26478047395833,"velocity":0.3937007874015748},{"duration":1.2295074999999827,"midi":73,"time":134.51068197395833,"velocity":0.3937007874015748},{"duration":0.24590150000000222,"midi":73,"time":135.7401894739583,"velocity":0.3937007874015748},{"duration":0.24590150000000222,"midi":74,"time":135.9860909739583,"velocity":0.3937007874015748},{"duration":0.24590150000000222,"midi":73,"time":136.23199247395831,"velocity":0.3937007874015748},{"duration":0.24590150000000222,"midi":71,"time":136.47789397395832,"velocity":0.3937007874015748},{"duration":0.49180300000000443,"midi":69,"time":136.72379547395832,"velocity":0.3937007874015748},{"duration":0.49180300000000443,"midi":71,"time":137.21559847395832,"velocity":0.3937007874015748},{"duration":0.49180300000000443,"midi":73,"time":137.70740147395833,"velocity":0.3937007874015748},{"duration":0.24590150000000222,"midi":74,"time":138.19920447395833,"velocity":0.3937007874015748},{"duration":1.2295074999999827,"midi":73,"time":138.44510597395833,"velocity":0.3937007874015748},{"duration":0.24590150000000222,"midi":73,"time":139.67461347395832,"velocity":0.3937007874015748},{"duration":0.24590150000000222,"midi":74,"time":139.92051497395832,"velocity":0.3937007874015748},{"duration":0.24590150000000222,"midi":73,"time":140.16641647395832,"velocity":0.3937007874015748},{"duration":0.24590150000000222,"midi":71,"time":140.41231797395832,"velocity":0.3937007874015748},{"duration":0.49180300000000443,"midi":69,"time":140.65821947395833,"velocity":0.3937007874015748},{"duration":0.49180300000000443,"midi":71,"time":141.15002247395833,"velocity":0.3937007874015748},{"duration":0.491802999999976,"midi":73,"time":141.64182547395833,"velocity":0.3937007874015748},{"duration":0.24590150000000222,"midi":74,"time":142.1336284739583,"velocity":0.3937007874015748},{"duration":1.229507500000011,"midi":73,"time":142.3795299739583,"velocity":0.3937007874015748},{"duration":0.24590150000000222,"midi":73,"time":143.60903747395832,"velocity":0.3937007874015748},{"duration":0.24590150000000222,"midi":74,"time":143.85493897395833,"velocity":0.3937007874015748},{"duration":0.24590150000000222,"midi":73,"time":144.10084047395833,"velocity":0.3937007874015748},{"duration":0.24590150000000222,"midi":71,"time":144.34674197395833,"velocity":0.3937007874015748},{"duration":0.491802999999976,"midi":69,"time":144.59264347395833,"velocity":0.3937007874015748},{"duration":0.24590150000000222,"midi":66,"time":145.0844464739583,"velocity":0.3937007874015748},{"duration":4.180325500000009,"midi":76,"time":145.3303479739583,"velocity":0.3937007874015748},{"duration":0.24590150000000222,"midi":71,"time":145.3303479739583,"velocity":0.3937007874015748},{"duration":3.934424000000007,"midi":69,"time":145.5762494739583,"velocity":0.3937007874015748},{"duration":0.49180300000000443,"midi":64,"time":149.761697921875,"velocity":0.3937007874015748},{"duration":0.49180300000000443,"midi":64,"time":150.24325502604168,"velocity":0.3937007874015748},{"duration":0.491802999999976,"midi":64,"time":150.73505802604168,"velocity":0.3937007874015748},{"duration":0.24590150000000222,"midi":67,"time":151.221738078125,"velocity":0.3937007874015748},{"duration":1.229507500000011,"midi":66,"time":151.467639578125,"velocity":0.3937007874015748},{"duration":0.24590150000000222,"midi":64,"time":152.712515921875,"velocity":0.3937007874015748},{"duration":0.7377045000000066,"midi":66,"time":152.958417421875,"velocity":0.3937007874015748},{"duration":0.491802999999976,"midi":64,"time":153.680753078125,"velocity":0.3937007874015748},{"duration":0.9836059999999804,"midi":69,"time":154.18280197395833,"velocity":0.3937007874015748},{"duration":0.24590150000000222,"midi":66,"time":155.17665386979166,"velocity":0.3937007874015748},{"duration":0.24590150000000222,"midi":67,"time":155.417432421875,"velocity":0.3937007874015748},{"duration":0.12295075000000111,"midi":66,"time":155.65821097395832,"velocity":0.3937007874015748},{"duration":0.12295075000000111,"midi":67,"time":155.77603877604167,"velocity":0.3937007874015748},{"duration":0.7377045000000066,"midi":66,"time":155.89898952604167,"velocity":0.3937007874015748},{"duration":0.9836060000000089,"midi":64,"time":156.65206286979168,"velocity":0.3937007874015748},{"duration":0.24590150000000222,"midi":61,"time":157.61645781510418,"velocity":0.3937007874015748},{"duration":0.24590150000000222,"midi":64,"time":157.86748226302083,"velocity":0.3937007874015748},{"duration":0.2459014999999738,"midi":61,"time":158.11338376302083,"velocity":0.3937007874015748},{"duration":0.24590150000000222,"midi":64,"time":158.3592852630208,"velocity":0.3937007874015748},{"duration":0.7377045000000066,"midi":66,"time":158.61030971093749,"velocity":0.3937007874015748},{"duration":0.24590150000000222,"midi":61,"time":159.34289126302082,"velocity":0.3937007874015748},{"duration":0.24590150000000222,"midi":64,"time":159.58879276302082,"velocity":0.3937007874015748},{"duration":0.24590150000000222,"midi":66,"time":159.84494015885417,"velocity":0.3937007874015748},{"duration":0.12295075000000111,"midi":59,"time":160.08059576302082,"velocity":0.3937007874015748},{"duration":0.12295075000000111,"midi":61,"time":160.20354651302083,"velocity":0.3937007874015748},{"duration":0.49180300000000443,"midi":59,"time":160.32137431510418,"velocity":0.3937007874015748},{"duration":0.24590150000000222,"midi":57,"time":160.81317731510418,"velocity":0.3937007874015748},{"duration":0.12295075000000111,"midi":57,"time":161.06420176302083,"velocity":0.3937007874015748},{"duration":0.12295074999997269,"midi":59,"time":161.18715251302083,"velocity":0.3937007874015748},{"duration":0.7377045000000066,"midi":54,"time":161.3101032630208,"velocity":0.3937007874015748},{"duration":2.4590149999999937,"midi":57,"time":162.0478077630208,"velocity":0.3937007874015748},{"duration":0.2459014999999738,"midi":66,"time":164.5119457109375,"velocity":0.3937007874015748},{"duration":0.24590150000000222,"midi":69,"time":164.75784721093748,"velocity":0.3937007874015748},{"duration":0.24590150000000222,"midi":71,"time":165.0037487109375,"velocity":0.3937007874015748},{"duration":0.49180300000000443,"midi":73,"time":165.2496502109375,"velocity":0.3937007874015748},{"duration":0.24590150000000222,"midi":74,"time":165.7414532109375,"velocity":0.3937007874015748},{"duration":1.229507500000011,"midi":73,"time":165.9873547109375,"velocity":0.3937007874015748},{"duration":0.24590150000000222,"midi":73,"time":167.2168622109375,"velocity":0.3937007874015748},{"duration":0.2459014999999738,"midi":74,"time":167.4627637109375,"velocity":0.3937007874015748},{"duration":0.24590150000000222,"midi":73,"time":167.70866521093748,"velocity":0.3937007874015748},{"duration":0.24590150000000222,"midi":71,"time":167.95456671093748,"velocity":0.3937007874015748},{"duration":0.49180300000000443,"midi":69,"time":168.2004682109375,"velocity":0.3937007874015748},{"duration":0.49180300000000443,"midi":71,"time":168.6922712109375,"velocity":0.3937007874015748},{"duration":0.49180300000000443,"midi":73,"time":169.1840742109375,"velocity":0.3937007874015748},{"duration":0.24590150000000222,"midi":74,"time":169.6758772109375,"velocity":0.3937007874015748},{"duration":1.2295074999999827,"midi":73,"time":169.9217787109375,"velocity":0.3937007874015748},{"duration":0.24590150000000222,"midi":73,"time":171.15128621093749,"velocity":0.3937007874015748},{"duration":0.24590150000000222,"midi":74,"time":171.3971877109375,"velocity":0.3937007874015748},{"duration":0.24590150000000222,"midi":73,"time":171.6430892109375,"velocity":0.3937007874015748},{"duration":0.24590150000000222,"midi":71,"time":171.8889907109375,"velocity":0.3937007874015748},{"duration":0.49180300000000443,"midi":69,"time":172.1348922109375,"velocity":0.3937007874015748},{"duration":0.49180300000000443,"midi":71,"time":172.6266952109375,"velocity":0.3937007874015748},{"duration":0.49180300000000443,"midi":73,"time":173.1184982109375,"velocity":0.3937007874015748},{"duration":0.24590150000000222,"midi":74,"time":173.6103012109375,"velocity":0.3937007874015748},{"duration":1.2295074999999827,"midi":73,"time":173.8562027109375,"velocity":0.3937007874015748},{"duration":0.24590150000000222,"midi":73,"time":175.0857102109375,"velocity":0.3937007874015748},{"duration":0.24590150000000222,"midi":74,"time":175.3316117109375,"velocity":0.3937007874015748},{"duration":0.24590150000000222,"midi":73,"time":175.5775132109375,"velocity":0.3937007874015748},{"duration":0.24590150000000222,"midi":71,"time":175.8234147109375,"velocity":0.3937007874015748},{"duration":0.49180300000000443,"midi":69,"time":176.0693162109375,"velocity":0.3937007874015748},{"duration":0.24590150000000222,"midi":66,"time":176.5611192109375,"velocity":0.3937007874015748},{"duration":0.24590150000000222,"midi":71,"time":176.8070207109375,"velocity":0.3937007874015748},{"duration":3.4426210000000026,"midi":76,"time":176.8070207109375,"velocity":0.3937007874015748},{"duration":3.1967195000000004,"midi":69,"time":177.0529222109375,"velocity":0.3937007874015748},{"duration":0.2459014999999738,"midi":66,"time":180.2496417109375,"velocity":0.3937007874015748},{"duration":0.24590150000000222,"midi":69,"time":180.49554321093748,"velocity":0.3937007874015748},{"duration":0.24590150000000222,"midi":71,"time":180.7414447109375,"velocity":0.3937007874015748},{"duration":0.49180300000000443,"midi":73,"time":180.9873462109375,"velocity":0.3937007874015748},{"duration":0.24590150000000222,"midi":74,"time":181.4791492109375,"velocity":0.3937007874015748},{"duration":1.229507500000011,"midi":73,"time":181.7250507109375,"velocity":0.3937007874015748},{"duration":0.24590150000000222,"midi":73,"time":182.9545582109375,"velocity":0.3937007874015748},{"duration":0.2459014999999738,"midi":74,"time":183.2004597109375,"velocity":0.3937007874015748},{"duration":0.24590150000000222,"midi":73,"time":183.44636121093748,"velocity":0.3937007874015748},{"duration":0.24590150000000222,"midi":71,"time":183.69226271093748,"velocity":0.3937007874015748},{"duration":0.49180300000000443,"midi":69,"time":183.9381642109375,"velocity":0.3937007874015748},{"duration":0.49180300000000443,"midi":71,"time":184.4299672109375,"velocity":0.3937007874015748},{"duration":0.49180300000000443,"midi":73,"time":184.9217702109375,"velocity":0.3937007874015748},{"duration":0.24590150000000222,"midi":74,"time":185.4135732109375,"velocity":0.3937007874015748},{"duration":1.2295074999999827,"midi":73,"time":185.6594747109375,"velocity":0.3937007874015748},{"duration":0.24590150000000222,"midi":73,"time":186.88898221093748,"velocity":0.3937007874015748},{"duration":0.24590150000000222,"midi":74,"time":187.1348837109375,"velocity":0.3937007874015748},{"duration":0.24590150000000222,"midi":73,"time":187.3807852109375,"velocity":0.3937007874015748},{"duration":0.24590150000000222,"midi":71,"time":187.6266867109375,"velocity":0.3937007874015748},{"duration":0.49180300000000443,"midi":69,"time":187.8725882109375,"velocity":0.3937007874015748},{"duration":0.49180300000000443,"midi":71,"time":188.3643912109375,"velocity":0.3937007874015748},{"duration":0.49180300000000443,"midi":73,"time":188.8561942109375,"velocity":0.3937007874015748},{"duration":0.24590150000000222,"midi":74,"time":189.3479972109375,"velocity":0.3937007874015748},{"duration":1.2295074999999827,"midi":73,"time":189.5938987109375,"velocity":0.3937007874015748},{"duration":0.24590150000000222,"midi":73,"time":190.8234062109375,"velocity":0.3937007874015748},{"duration":0.24590150000000222,"midi":74,"time":191.0693077109375,"velocity":0.3937007874015748},{"duration":0.24590150000000222,"midi":73,"time":191.3152092109375,"velocity":0.3937007874015748},{"duration":0.24590150000000222,"midi":71,"time":191.5611107109375,"velocity":0.3937007874015748},{"duration":0.49180300000000443,"midi":69,"time":191.8070122109375,"velocity":0.3937007874015748},{"duration":0.24590150000000222,"midi":66,"time":192.2988152109375,"velocity":0.3937007874015748},{"duration":0.24590150000000222,"midi":71,"time":192.5447167109375,"velocity":0.3937007874015748},{"duration":4.180325499999981,"midi":76,"time":192.5447167109375,"velocity":0.3937007874015748},{"duration":3.9344239999999786,"midi":69,"time":192.7906182109375,"velocity":0.3937007874015748},{"duration":0.49180300000000443,"midi":73,"time":196.7250422109375,"velocity":0.3937007874015748},{"duration":0.24590150000000222,"midi":74,"time":197.2168452109375,"velocity":0.3937007874015748},{"duration":0.7377045000000066,"midi":73,"time":197.4627467109375,"velocity":0.3937007874015748},{"duration":0.24590150000000222,"midi":71,"time":198.2004512109375,"velocity":0.3937007874015748},{"duration":0.7377044999999782,"midi":69,"time":198.4463527109375,"velocity":0.3937007874015748},{"duration":0.24590150000000222,"midi":71,"time":199.18405721093748,"velocity":0.3937007874015748},{"duration":1.229507500000011,"midi":66,"time":199.42995871093748,"velocity":0.3937007874015748},{"duration":0.49180300000000443,"midi":73,"time":200.6594662109375,"velocity":0.3937007874015748},{"duration":0.24590150000000222,"midi":74,"time":201.1512692109375,"velocity":0.3937007874015748},{"duration":0.7377045000000066,"midi":73,"time":201.3971707109375,"velocity":0.3937007874015748},{"duration":0.2459014999999738,"midi":71,"time":202.1348752109375,"velocity":0.3937007874015748},{"duration":0.7377045000000066,"midi":69,"time":202.38077671093748,"velocity":0.3937007874015748},{"duration":0.24590150000000222,"midi":71,"time":203.1184812109375,"velocity":0.3937007874015748},{"duration":1.229507500000011,"midi":66,"time":203.3643827109375,"velocity":0.3937007874015748},{"duration":0.49180300000000443,"midi":73,"time":204.5938902109375,"velocity":0.3937007874015748},{"duration":0.24590150000000222,"midi":74,"time":205.0856932109375,"velocity":0.3937007874015748},{"duration":0.7377044999999782,"midi":73,"time":205.3315947109375,"velocity":0.3937007874015748},{"duration":0.24590150000000222,"midi":71,"time":206.0692992109375,"velocity":0.3937007874015748},{"duration":0.7377045000000066,"midi":69,"time":206.3152007109375,"velocity":0.3937007874015748},{"duration":0.24590150000000222,"midi":71,"time":207.0529052109375,"velocity":0.3937007874015748},{"duration":0.7377045000000066,"midi":66,"time":207.2988067109375,"velocity":0.3937007874015748},{"duration":0.24590150000000222,"midi":71,"time":208.0365112109375,"velocity":0.3937007874015748},{"duration":4.180325499999981,"midi":69,"time":208.2824127109375,"velocity":0.3937007874015748},{"duration":4.180325499999981,"midi":76,"time":208.2824127109375,"velocity":0.3937007874015748},{"duration":0.49180300000000443,"midi":73,"time":212.4627382109375,"velocity":0.3937007874015748},{"duration":0.24590150000000222,"midi":74,"time":212.9545412109375,"velocity":0.3937007874015748},{"duration":0.7377045000000066,"midi":73,"time":213.2004427109375,"velocity":0.3937007874015748},{"duration":0.24590150000000222,"midi":71,"time":213.9381472109375,"velocity":0.3937007874015748},{"duration":0.7377044999999782,"midi":69,"time":214.1840487109375,"velocity":0.3937007874015748},{"duration":0.24590150000000222,"midi":71,"time":214.92175321093748,"velocity":0.3937007874015748},{"duration":1.229507500000011,"midi":66,"time":215.16765471093748,"velocity":0.3937007874015748},{"duration":0.49180300000000443,"midi":73,"time":216.3971622109375,"velocity":0.3937007874015748},{"duration":0.24590150000000222,"midi":74,"time":216.8889652109375,"velocity":0.3937007874015748},{"duration":0.7377045000000066,"midi":73,"time":217.1348667109375,"velocity":0.3937007874015748},{"duration":0.2459014999999738,"midi":71,"time":217.8725712109375,"velocity":0.3937007874015748},{"duration":0.7377045000000066,"midi":69,"time":218.11847271093748,"velocity":0.3937007874015748},{"duration":0.24590150000000222,"midi":71,"time":218.8561772109375,"velocity":0.3937007874015748},{"duration":1.229507500000011,"midi":66,"time":219.1020787109375,"velocity":0.3937007874015748},{"duration":0.49180300000000443,"midi":73,"time":220.3315862109375,"velocity":0.3937007874015748},{"duration":0.24590150000000222,"midi":74,"time":220.8233892109375,"velocity":0.3937007874015748},{"duration":0.7377044999999782,"midi":73,"time":221.0692907109375,"velocity":0.3937007874015748},{"duration":0.24590150000000222,"midi":71,"time":221.8069952109375,"velocity":0.3937007874015748},{"duration":0.7377045000000066,"midi":69,"time":222.0528967109375,"velocity":0.3937007874015748},{"duration":0.24590150000000222,"midi":71,"time":222.7906012109375,"velocity":0.3937007874015748},{"duration":0.7377045000000066,"midi":66,"time":223.0365027109375,"velocity":0.3937007874015748},{"duration":0.24590150000000222,"midi":71,"time":223.7742072109375,"velocity":0.3937007874015748},{"duration":4.180325499999981,"midi":76,"time":224.0201087109375,"velocity":0.3937007874015748},{"duration":4.180325499999981,"midi":69,"time":224.0201087109375,"velocity":0.3937007874015748}]},{"instrument":{"family":"guitar","number":28,"name":"electric guitar (muted)"},"notes":[{"duration":0.12295075000000022,"midi":69,"time":3.934424,"velocity":0.3937007874015748},{"duration":0.12295075000000022,"midi":69,"time":4.067620645833333,"velocity":0.3937007874015748},{"duration":0.12295075000000022,"midi":69,"time":4.1854484479166665,"velocity":0.3937007874015748},{"duration":0.12295075000000022,"midi":69,"time":4.313522145833334,"velocity":0.3937007874015748},{"duration":0.24590149999999955,"midi":69,"time":4.436472895833334,"velocity":0.3937007874015748},{"duration":0.12295075000000022,"midi":69,"time":4.667005552083333,"velocity":0.3937007874015748},{"duration":0.12295074999999933,"midi":69,"time":4.800202197916667,"velocity":0.3937007874015748},{"duration":0.24590149999999955,"midi":69,"time":4.912907052083334,"velocity":0.3937007874015748},{"duration":0.12295075000000022,"midi":69,"time":5.1690544479166665,"velocity":0.3937007874015748},{"duration":0.12295075000000022,"midi":69,"time":5.297128145833334,"velocity":0.3937007874015748},{"duration":0.12295075000000022,"midi":69,"time":5.409833,"velocity":0.3937007874015748},{"duration":0.12295075000000022,"midi":69,"time":5.543029645833333,"velocity":0.3937007874015748},{"duration":0.12295075000000022,"midi":69,"time":5.646769341145833,"velocity":0.3937007874015748},{"duration":0.12295075000000022,"midi":69,"time":5.7748430390625,"velocity":0.3937007874015748},{"duration":0.24590150000000044,"midi":69,"time":5.902916736979166,"velocity":0.3937007874015748},{"duration":0.12295075000000022,"midi":69,"time":6.1590641328124995,"velocity":0.3937007874015748},{"duration":0.12295074999999933,"midi":69,"time":6.271768986979167,"velocity":0.3937007874015748},{"duration":0.12295074999999933,"midi":69,"time":6.399842684895834,"velocity":0.3937007874015748},{"duration":0.12295074999999933,"midi":69,"time":6.6354982890625,"velocity":0.3937007874015748},{"duration":0.12295075000000022,"midi":69,"time":6.768694934895834,"velocity":0.3937007874015748},{"duration":0.12295075000000022,"midi":69,"time":6.876276841145834,"velocity":0.3937007874015748},{"duration":0.12295075000000022,"midi":69,"time":7.009473486979166,"velocity":0.3937007874015748},{"duration":0.12295074999999933,"midi":69,"time":7.1273012890625,"velocity":0.3937007874015748},{"duration":0.12295075000000022,"midi":69,"time":7.2656208828125,"velocity":0.3937007874015748},{"duration":0.12295075000000022,"midi":69,"time":7.378325736979166,"velocity":0.3937007874015748},{"duration":0.12295075000000022,"midi":69,"time":7.608858393229166,"velocity":0.3937007874015748},{"duration":0.12295075000000022,"midi":69,"time":7.7420550390625,"velocity":0.3937007874015748},{"duration":0.24590149999999955,"midi":69,"time":7.8650057890625,"velocity":0.3937007874015748},{"duration":0.12295074999999933,"midi":69,"time":8.105784341145833,"velocity":0.3937007874015748},{"duration":0.12295075000000111,"midi":69,"time":8.247946145833332,"velocity":0.3937007874015748},{"duration":0.12295074999999933,"midi":69,"time":8.355528052083333,"velocity":0.3937007874015748},{"duration":0.12295075000000111,"midi":69,"time":8.493847645833332,"velocity":0.3937007874015748},{"duration":0.12295075000000111,"midi":69,"time":8.597587341145832,"velocity":0.3937007874015748},{"duration":0.12295075000000111,"midi":69,"time":8.735906934895832,"velocity":0.3937007874015748},{"duration":0.12295075000000111,"midi":69,"time":8.863980632812499,"velocity":0.3937007874015748},{"duration":0.12295075000000111,"midi":69,"time":9.0945132890625,"velocity":0.3937007874015748},{"duration":0.12295074999999933,"midi":69,"time":9.227709934895833,"velocity":0.3937007874015748},{"duration":0.24590150000000044,"midi":69,"time":9.3557836328125,"velocity":0.3937007874015748},{"duration":0.12295074999999933,"midi":69,"time":9.596562184895832,"velocity":0.3937007874015748},{"duration":0.12295075000000111,"midi":69,"time":9.719512934895832,"velocity":0.3937007874015748},{"duration":0.12295075000000111,"midi":69,"time":9.837340736979167,"velocity":0.3937007874015748},{"duration":0.12295075000000111,"midi":69,"time":9.975660330729166,"velocity":0.3937007874015748},{"duration":0.12295074999999933,"midi":69,"time":10.072996341145833,"velocity":0.3937007874015748},{"duration":0.12295074999999933,"midi":69,"time":10.211315934895833,"velocity":0.3937007874015748},{"duration":0.12295075000000111,"midi":69,"time":10.334266684895832,"velocity":0.3937007874015748},{"duration":0.12295074999999933,"midi":69,"time":10.5699222890625,"velocity":0.3937007874015748},{"duration":0.12295074999999933,"midi":69,"time":10.7082418828125,"velocity":0.3937007874015748},{"duration":0.12295074999999933,"midi":69,"time":10.826069684895833,"velocity":0.3937007874015748},{"duration":0.12295074999999933,"midi":69,"time":11.066848236979167,"velocity":0.3937007874015748},{"duration":0.12295074999999933,"midi":69,"time":11.2000448828125,"velocity":0.3937007874015748},{"duration":0.12295074999999933,"midi":69,"time":11.312749736979168,"velocity":0.3937007874015748},{"duration":0.12295074999999933,"midi":69,"time":11.451069330729167,"velocity":0.3937007874015748},{"duration":0.12295074999999933,"midi":69,"time":11.562493447916667,"velocity":0.3937007874015748},{"duration":0.12295074999999933,"midi":69,"time":11.696970830729168,"velocity":0.3937007874015748},{"duration":0.12295075000000111,"midi":69,"time":11.813517895833332,"velocity":0.3937007874015748},{"duration":0.12295074999999933,"midi":69,"time":12.0491735,"velocity":0.3937007874015748},{"duration":0.12295074999999933,"midi":69,"time":12.177247197916667,"velocity":0.3937007874015748},{"duration":0.12295075000000111,"midi":69,"time":12.300197947916667,"velocity":0.3937007874015748},{"duration":0.12295074999999933,"midi":69,"time":12.551222395833333,"velocity":0.3937007874015748},{"duration":0.12295074999999933,"midi":69,"time":12.674173145833333,"velocity":0.3937007874015748},{"duration":0.061475375000000554,"midi":69,"time":12.797123895833332,"velocity":0.3937007874015748},{"duration":0.24590149999999866,"midi":69,"time":12.920074645833333,"velocity":0.3937007874015748},{"duration":0.12295074999999933,"midi":69,"time":13.160853197916667,"velocity":0.3937007874015748},{"duration":0.24590150000000044,"midi":69,"time":13.278680999999999,"velocity":0.3937007874015748},{"duration":0.12295074999999933,"midi":69,"time":13.529705447916667,"velocity":0.3937007874015748},{"duration":0.12295075000000111,"midi":69,"time":13.652656197916667,"velocity":0.3937007874015748},{"duration":0.24590149999999866,"midi":69,"time":13.775606947916668,"velocity":0.3937007874015748},{"duration":0.12295074999999933,"midi":69,"time":14.0163855,"velocity":0.3937007874015748},{"duration":0.12295075000000111,"midi":69,"time":14.149582145833332,"velocity":0.3937007874015748},{"duration":0.12295075000000111,"midi":69,"time":14.253321841145832,"velocity":0.3937007874015748},{"duration":0.12295074999999933,"midi":69,"time":14.391641434895833,"velocity":0.3937007874015748},{"duration":0.12295075000000111,"midi":69,"time":14.499223341145832,"velocity":0.3937007874015748},{"duration":0.12295075000000111,"midi":69,"time":14.6272970390625,"velocity":0.3937007874015748},{"duration":0.12295074999999933,"midi":69,"time":14.745124841145833,"velocity":0.3937007874015748},{"duration":0.12295074999999933,"midi":69,"time":14.991026341145833,"velocity":0.3937007874015748},{"duration":0.12295074999999933,"midi":69,"time":15.113977091145832,"velocity":0.3937007874015748},{"duration":0.12295074999999933,"midi":69,"time":15.2420507890625,"velocity":0.3937007874015748},{"duration":0.12295074999999756,"midi":66,"time":23.6180706328125,"velocity":0.3937007874015748},{"duration":0.12295074999999756,"midi":61,"time":23.6180706328125,"velocity":0.3937007874015748},{"duration":0.12295075000000111,"midi":66,"time":23.844761078125,"velocity":0.3937007874015748},{"duration":0.12295074999999756,"midi":61,"time":23.855006973958336,"velocity":0.3937007874015748},{"duration":0.12295075000000111,"midi":61,"time":24.090662578125,"velocity":0.3937007874015748},{"duration":0.12295075000000111,"midi":66,"time":24.090662578125,"velocity":0.3937007874015748},{"duration":0.12295075000000111,"midi":59,"time":24.346809973958333,"velocity":0.3937007874015748},{"duration":0.12295074999999756,"midi":64,"time":24.351932921875,"velocity":0.3937007874015748},{"duration":0.12295074999999756,"midi":62,"time":24.833490026041666,"velocity":0.3937007874015748},{"duration":0.12295075000000111,"midi":57,"time":24.838612973958334,"velocity":0.3937007874015748},{"duration":0.7377045000000031,"midi":64,"time":25.325293026041663,"velocity":0.3937007874015748},{"duration":0.7377045000000031,"midi":59,"time":25.325293026041663,"velocity":0.3937007874015748},{"duration":0.12295075000000111,"midi":61,"time":26.073243421875,"velocity":0.3937007874015748},{"duration":0.24590150000000222,"midi":66,"time":26.073243421875,"velocity":0.3937007874015748},{"duration":0.12295074999999756,"midi":64,"time":26.303776078125,"velocity":0.3937007874015748},{"duration":0.24590149999999866,"midi":69,"time":26.303776078125,"velocity":0.3937007874015748},{"duration":0.4918030000000009,"midi":64,"time":26.5688886328125,"velocity":0.3937007874015748},{"duration":0.4918030000000009,"midi":59,"time":26.5688886328125,"velocity":0.3937007874015748},{"duration":0.12295075000000111,"midi":64,"time":27.0606916328125,"velocity":0.3937007874015748},{"duration":0.12295074999999756,"midi":59,"time":27.072218265625,"velocity":0.3937007874015748},{"duration":0.12295075000000111,"midi":66,"time":27.548652421874998,"velocity":0.3937007874015748},{"duration":0.12295074999999756,"midi":61,"time":27.553775369791666,"velocity":0.3937007874015748},{"duration":0.12295075000000111,"midi":66,"time":27.780465815104165,"velocity":0.3937007874015748},{"duration":0.12295075000000111,"midi":61,"time":27.780465815104165,"velocity":0.3937007874015748},{"duration":0.12295075000000111,"midi":66,"time":28.026367315104164,"velocity":0.3937007874015748},{"duration":0.12295075000000111,"midi":61,"time":28.026367315104164,"velocity":0.3937007874015748},{"duration":0.4930837369791661,"midi":64,"time":28.277391763020834,"velocity":0.3937007874015748},{"duration":0.24590149999999866,"midi":59,"time":28.292760606770834,"velocity":0.3937007874015748},{"duration":0.12295074999999756,"midi":62,"time":28.765352552083336,"velocity":0.3937007874015748},{"duration":0.12295074999999756,"midi":57,"time":28.765352552083336,"velocity":0.3937007874015748},{"duration":0.7377044999999995,"midi":64,"time":29.257155552083333,"velocity":0.3937007874015748},{"duration":0.7377044999999995,"midi":59,"time":29.272524395833333,"velocity":0.3937007874015748},{"duration":0.4918030000000009,"midi":69,"time":30.240761552083335,"velocity":0.3937007874015748},{"duration":0.4918030000000009,"midi":64,"time":30.240761552083335,"velocity":0.3937007874015748},{"duration":0.24590149999999866,"midi":66,"time":30.732564552083335,"velocity":0.3937007874015748},{"duration":0.24590149999999866,"midi":71,"time":30.732564552083335,"velocity":0.3937007874015748},{"duration":0.24590150000000222,"midi":69,"time":30.997677106770833,"velocity":0.3937007874015748},{"duration":0.36885224999999977,"midi":64,"time":30.997677106770833,"velocity":0.3937007874015748},{"duration":0.12295075000000111,"midi":61,"time":31.48948010677083,"velocity":0.3937007874015748},{"duration":0.12295075000000111,"midi":66,"time":31.48948010677083,"velocity":0.3937007874015748},{"duration":0.12295075000000111,"midi":66,"time":31.71617055208333,"velocity":0.3937007874015748},{"duration":0.12295075000000111,"midi":61,"time":31.71617055208333,"velocity":0.3937007874015748},{"duration":0.12295075000000111,"midi":61,"time":31.96207205208333,"velocity":0.3937007874015748},{"duration":0.12295075000000111,"midi":66,"time":31.96207205208333,"velocity":0.3937007874015748},{"duration":0.12295075000000111,"midi":64,"time":32.20797355208333,"velocity":0.3937007874015748},{"duration":0.12295075000000111,"midi":59,"time":32.21821944791667,"velocity":0.3937007874015748},{"duration":0.12295075000000111,"midi":62,"time":32.704899499999996,"velocity":0.3937007874015748},{"duration":0.122950749999994,"midi":57,"time":32.71002244791667,"velocity":0.3937007874015748},{"duration":0.8606552500000006,"midi":65,"time":33.1967025,"velocity":0.3937007874015748},{"duration":0.8606552500000006,"midi":59,"time":33.20182544791667,"velocity":0.3937007874015748},{"duration":0.8606552500000006,"midi":59,"time":34.19055439583333,"velocity":0.3937007874015748},{"duration":0.9836060000000018,"midi":64,"time":34.19567734375,"velocity":0.3937007874015748},{"duration":2.3360642499999997,"midi":62,"time":35.17928334375,"velocity":0.3937007874015748},{"duration":0.12295075000000111,"midi":66,"time":39.359608843749996,"velocity":0.3937007874015748},{"duration":0.12295075000000111,"midi":61,"time":39.359608843749996,"velocity":0.3937007874015748},{"duration":0.122950749999994,"midi":61,"time":39.5862992890625,"velocity":0.3937007874015748},{"duration":0.122950749999994,"midi":66,"time":39.5862992890625,"velocity":0.3937007874015748},{"duration":0.24590150000000222,"midi":66,"time":39.8322007890625,"velocity":0.3937007874015748},{"duration":0.12295075000000111,"midi":61,"time":39.837323736979165,"velocity":0.3937007874015748},{"duration":0.12295075000000111,"midi":64,"time":40.093471132812496,"velocity":0.3937007874015748},{"duration":0.12295075000000111,"midi":59,"time":40.093471132812496,"velocity":0.3937007874015748},{"duration":0.12295075000000111,"midi":57,"time":40.5699052890625,"velocity":0.3937007874015748},{"duration":0.12295075000000111,"midi":62,"time":40.5699052890625,"velocity":0.3937007874015748},{"duration":0.7377044999999995,"midi":59,"time":41.0617082890625,"velocity":0.3937007874015748},{"duration":0.7377044999999995,"midi":64,"time":41.0617082890625,"velocity":0.3937007874015748},{"duration":0.24590150000000222,"midi":61,"time":41.787886156249996,"velocity":0.3937007874015748},{"duration":0.2459014999999951,"midi":66,"time":41.79428984114583,"velocity":0.3937007874015748},{"duration":0.12295075000000111,"midi":64,"time":42.04019134114583,"velocity":0.3937007874015748},{"duration":0.24590150000000222,"midi":69,"time":42.04019134114583,"velocity":0.3937007874015748},{"duration":0.3688522500000033,"midi":64,"time":42.2912157890625,"velocity":0.3937007874015748},{"duration":0.3688522500000033,"midi":59,"time":42.2912157890625,"velocity":0.3937007874015748},{"duration":0.2459014999999951,"midi":59,"time":42.7830187890625,"velocity":0.3937007874015748},{"duration":0.122950749999994,"midi":64,"time":42.7830187890625,"velocity":0.3937007874015748},{"duration":0.12295075000000111,"midi":61,"time":43.2748217890625,"velocity":0.3937007874015748},{"duration":0.12295075000000111,"midi":66,"time":43.2748217890625,"velocity":0.3937007874015748},{"duration":0.122950749999994,"midi":61,"time":43.5207232890625,"velocity":0.3937007874015748},{"duration":0.122950749999994,"midi":66,"time":43.5207232890625,"velocity":0.3937007874015748},{"duration":0.12295075000000111,"midi":61,"time":43.7666247890625,"velocity":0.3937007874015748},{"duration":0.12295075000000111,"midi":66,"time":43.7666247890625,"velocity":0.3937007874015748},{"duration":0.12295075000000111,"midi":64,"time":44.0125262890625,"velocity":0.3937007874015748},{"duration":0.12295075000000111,"midi":59,"time":44.027895132812496,"velocity":0.3937007874015748},{"duration":0.12295075000000111,"midi":62,"time":44.5043292890625,"velocity":0.3937007874015748},{"duration":0.12295075000000111,"midi":57,"time":44.5043292890625,"velocity":0.3937007874015748},{"duration":0.6147537499999984,"midi":64,"time":44.9961322890625,"velocity":0.3937007874015748},{"duration":0.7377044999999995,"midi":59,"time":45.00637818489583,"velocity":0.3937007874015748},{"duration":0.4918029999999973,"midi":69,"time":45.9951071328125,"velocity":0.3937007874015748},{"duration":0.4918029999999973,"midi":64,"time":45.9951071328125,"velocity":0.3937007874015748},{"duration":0.24590150000000222,"midi":66,"time":46.4715412890625,"velocity":0.3937007874015748},{"duration":0.24590150000000222,"midi":71,"time":46.47666423697917,"velocity":0.3937007874015748},{"duration":0.24590150000000222,"midi":64,"time":46.7328116328125,"velocity":0.3937007874015748},{"duration":0.4918029999999973,"midi":69,"time":46.7328116328125,"velocity":0.3937007874015748},{"duration":0.12295075000000111,"midi":64,"time":47.21436873697917,"velocity":0.3937007874015748},{"duration":0.12295075000000111,"midi":59,"time":47.21949168489583,"velocity":0.3937007874015748},{"duration":0.122950749999994,"midi":64,"time":47.4551472890625,"velocity":0.3937007874015748},{"duration":0.12295075000000111,"midi":59,"time":47.47435834375,"velocity":0.3937007874015748},{"duration":0.12295075000000111,"midi":61,"time":47.7010487890625,"velocity":0.3937007874015748},{"duration":0.24590150000000222,"midi":66,"time":47.7010487890625,"velocity":0.3937007874015748},{"duration":0.12295075000000111,"midi":64,"time":47.9469502890625,"velocity":0.3937007874015748},{"duration":0.122950749999994,"midi":59,"time":47.96616134375,"velocity":0.3937007874015748},{"duration":0.12295075000000111,"midi":62,"time":48.4387532890625,"velocity":0.3937007874015748},{"duration":0.12295075000000111,"midi":57,"time":48.4387532890625,"velocity":0.3937007874015748},{"duration":0.7377044999999995,"midi":59,"time":48.9305562890625,"velocity":0.3937007874015748},{"duration":0.9836059999999947,"midi":65,"time":48.9305562890625,"velocity":0.3937007874015748},{"duration":0.8606552500000006,"midi":64,"time":49.91928523697917,"velocity":0.3937007874015748},{"duration":0.8606552500000006,"midi":59,"time":49.91928523697917,"velocity":0.3937007874015748},{"duration":1.598359749999993,"midi":62,"time":51.16416158072917,"velocity":0.3937007874015748},{"duration":0.061475375000000554,"midi":62,"time":52.86626102604167,"velocity":0.3937007874015748},{"duration":0.12295075000000111,"midi":62,"time":53.112162526041665,"velocity":0.3937007874015748},{"duration":0.12295075000000111,"midi":57,"time":53.122408421875,"velocity":0.3937007874015748},{"duration":0.12295075000000111,"midi":62,"time":53.35806402604167,"velocity":0.3937007874015748},{"duration":0.12295075000000111,"midi":57,"time":53.368309921874996,"velocity":0.3937007874015748},{"duration":0.12295075000000111,"midi":62,"time":54.09576852604167,"velocity":0.3937007874015748},{"duration":0.122950749999994,"midi":57,"time":54.11113736979167,"velocity":0.3937007874015748},{"duration":0.2459014999999951,"midi":57,"time":54.58757152604167,"velocity":0.3937007874015748},{"duration":0.2459014999999951,"midi":62,"time":54.58757152604167,"velocity":0.3937007874015748},{"duration":0.12295075000000111,"midi":61,"time":70.83628158072916,"velocity":0.3937007874015748},{"duration":0.12295075000000111,"midi":66,"time":70.83628158072916,"velocity":0.3937007874015748},{"duration":0.12295075000000111,"midi":66,"time":71.06297202604166,"velocity":0.3937007874015748},{"duration":0.12295075000000111,"midi":61,"time":71.073217921875,"velocity":0.3937007874015748},{"duration":0.12295075000000111,"midi":61,"time":71.30887352604167,"velocity":0.3937007874015748},{"duration":0.12295075000000111,"midi":66,"time":71.30887352604167,"velocity":0.3937007874015748},{"duration":0.12295075000000111,"midi":59,"time":71.565020921875,"velocity":0.3937007874015748},{"duration":0.12295075000000111,"midi":64,"time":71.57014386979166,"velocity":0.3937007874015748},{"duration":0.12295075000000111,"midi":62,"time":72.05170097395833,"velocity":0.3937007874015748},{"duration":0.12295075000000111,"midi":57,"time":72.056823921875,"velocity":0.3937007874015748},{"duration":0.7377044999999924,"midi":59,"time":72.54350397395834,"velocity":0.3937007874015748},{"duration":0.7377044999999924,"midi":64,"time":72.54350397395834,"velocity":0.3937007874015748},{"duration":0.245901499999988,"midi":66,"time":73.29145436979167,"velocity":0.3937007874015748},{"duration":0.12295075000000111,"midi":61,"time":73.29145436979167,"velocity":0.3937007874015748},{"duration":0.12295075000000111,"midi":64,"time":73.52198702604166,"velocity":0.3937007874015748},{"duration":0.24590150000000222,"midi":69,"time":73.52198702604166,"velocity":0.3937007874015748},{"duration":0.49180300000000443,"midi":64,"time":73.78709958072916,"velocity":0.3937007874015748},{"duration":0.49180300000000443,"midi":59,"time":73.78709958072916,"velocity":0.3937007874015748},{"duration":0.12295075000000111,"midi":64,"time":74.27890258072917,"velocity":0.3937007874015748},{"duration":0.12295075000000111,"midi":59,"time":74.29042921354166,"velocity":0.3937007874015748},{"duration":0.12295075000000111,"midi":66,"time":74.76686336979166,"velocity":0.3937007874015748},{"duration":0.12295075000000111,"midi":61,"time":74.77198631770834,"velocity":0.3937007874015748},{"duration":0.12295075000000111,"midi":66,"time":74.99867676302084,"velocity":0.3937007874015748},{"duration":0.12295075000000111,"midi":61,"time":74.99867676302084,"velocity":0.3937007874015748},{"duration":0.12295075000000111,"midi":61,"time":75.24457826302084,"velocity":0.3937007874015748},{"duration":0.12295075000000111,"midi":66,"time":75.24457826302084,"velocity":0.3937007874015748},{"duration":0.49308373697915897,"midi":64,"time":75.4956027109375,"velocity":0.3937007874015748},{"duration":0.24590150000000222,"midi":59,"time":75.5109715546875,"velocity":0.3937007874015748},{"duration":0.12295075000000111,"midi":57,"time":75.9835635,"velocity":0.3937007874015748},{"duration":0.12295075000000111,"midi":62,"time":75.9835635,"velocity":0.3937007874015748},{"duration":0.7377045000000066,"midi":64,"time":76.47536649999999,"velocity":0.3937007874015748},{"duration":0.7377044999999924,"midi":59,"time":76.49073534375,"velocity":0.3937007874015748},{"duration":0.4918029999999902,"midi":69,"time":77.4589725,"velocity":0.3937007874015748},{"duration":0.4918029999999902,"midi":64,"time":77.4589725,"velocity":0.3937007874015748},{"duration":0.24590150000000222,"midi":66,"time":77.95077549999999,"velocity":0.3937007874015748},{"duration":0.24590150000000222,"midi":71,"time":77.95077549999999,"velocity":0.3937007874015748},{"duration":0.3688522500000033,"midi":64,"time":78.2158880546875,"velocity":0.3937007874015748},{"duration":0.24590150000000222,"midi":69,"time":78.2158880546875,"velocity":0.3937007874015748},{"duration":0.12295075000000111,"midi":61,"time":78.7076910546875,"velocity":0.3937007874015748},{"duration":0.12295075000000111,"midi":66,"time":78.7076910546875,"velocity":0.3937007874015748},{"duration":0.12295075000000111,"midi":61,"time":78.9343815,"velocity":0.3937007874015748},{"duration":0.12295075000000111,"midi":66,"time":78.9343815,"velocity":0.3937007874015748},{"duration":0.12295075000000111,"midi":66,"time":79.180283,"velocity":0.3937007874015748},{"duration":0.12295075000000111,"midi":61,"time":79.180283,"velocity":0.3937007874015748},{"duration":0.1229507499999869,"midi":64,"time":79.4261845,"velocity":0.3937007874015748},{"duration":0.12295075000000111,"midi":59,"time":79.43643039583334,"velocity":0.3937007874015748},{"duration":0.12295075000000111,"midi":62,"time":79.92311044791666,"velocity":0.3937007874015748},{"duration":0.12295075000000111,"midi":57,"time":79.92823339583333,"velocity":0.3937007874015748},{"duration":0.8606552499999935,"midi":65,"time":80.41491344791666,"velocity":0.3937007874015748},{"duration":0.8606552500000078,"midi":59,"time":80.42003639583334,"velocity":0.3937007874015748},{"duration":0.8606552499999935,"midi":59,"time":81.40876534375,"velocity":0.3937007874015748},{"duration":0.9836059999999947,"midi":64,"time":81.41388829166667,"velocity":0.3937007874015748},{"duration":2.3360642499999926,"midi":62,"time":82.39749429166666,"velocity":0.3937007874015748},{"duration":0.12295075000000111,"midi":61,"time":86.57781979166666,"velocity":0.3937007874015748},{"duration":0.12295075000000111,"midi":66,"time":86.57781979166666,"velocity":0.3937007874015748},{"duration":0.12295075000000111,"midi":66,"time":86.80451023697916,"velocity":0.3937007874015748},{"duration":0.1229507499999869,"midi":61,"time":86.8147561328125,"velocity":0.3937007874015748},{"duration":0.12295075000000111,"midi":61,"time":87.05041173697916,"velocity":0.3937007874015748},{"duration":0.12295075000000111,"midi":66,"time":87.05041173697916,"velocity":0.3937007874015748},{"duration":0.12295075000000111,"midi":59,"time":87.3065591328125,"velocity":0.3937007874015748},{"duration":0.12295075000000111,"midi":64,"time":87.31168208072916,"velocity":0.3937007874015748},{"duration":0.12295075000000111,"midi":62,"time":87.79323918489584,"velocity":0.3937007874015748},{"duration":0.12295075000000111,"midi":57,"time":87.7983621328125,"velocity":0.3937007874015748},{"duration":0.7377044999999924,"midi":64,"time":88.28504218489584,"velocity":0.3937007874015748},{"duration":0.7377044999999924,"midi":59,"time":88.28504218489584,"velocity":0.3937007874015748},{"duration":0.12295075000000111,"midi":61,"time":89.03299258072916,"velocity":0.3937007874015748},{"duration":0.24590150000000222,"midi":66,"time":89.03299258072916,"velocity":0.3937007874015748},{"duration":0.24590150000000222,"midi":69,"time":89.26352523697916,"velocity":0.3937007874015748},{"duration":0.12295075000000111,"midi":64,"time":89.26352523697916,"velocity":0.3937007874015748},{"duration":0.49180300000000443,"midi":64,"time":89.52863779166665,"velocity":0.3937007874015748},{"duration":0.49180300000000443,"midi":59,"time":89.52863779166665,"velocity":0.3937007874015748},{"duration":0.12295075000000111,"midi":64,"time":90.02044079166666,"velocity":0.3937007874015748},{"duration":0.12295075000000111,"midi":59,"time":90.03196742447916,"velocity":0.3937007874015748},{"duration":0.12295075000000111,"midi":66,"time":90.50840158072916,"velocity":0.3937007874015748},{"duration":0.12295075000000111,"midi":61,"time":90.51352452864583,"velocity":0.3937007874015748},{"duration":0.12295075000000111,"midi":66,"time":90.74021497395833,"velocity":0.3937007874015748},{"duration":0.12295075000000111,"midi":61,"time":90.74021497395833,"velocity":0.3937007874015748},{"duration":0.12295075000000111,"midi":61,"time":90.98611647395833,"velocity":0.3937007874015748},{"duration":0.12295075000000111,"midi":66,"time":90.98611647395833,"velocity":0.3937007874015748},{"duration":0.49308373697915897,"midi":64,"time":91.237140921875,"velocity":0.3937007874015748},{"duration":0.24590150000000222,"midi":59,"time":91.25250976562499,"velocity":0.3937007874015748},{"duration":0.12295075000000111,"midi":57,"time":91.7251017109375,"velocity":0.3937007874015748},{"duration":0.12295075000000111,"midi":62,"time":91.7251017109375,"velocity":0.3937007874015748},{"duration":0.7377044999999924,"midi":64,"time":92.2169047109375,"velocity":0.3937007874015748},{"duration":0.7377045000000066,"midi":59,"time":92.2322735546875,"velocity":0.3937007874015748},{"duration":0.49180300000000443,"midi":69,"time":93.2005107109375,"velocity":0.3937007874015748},{"duration":0.49180300000000443,"midi":64,"time":93.2005107109375,"velocity":0.3937007874015748},{"duration":0.24590150000000222,"midi":71,"time":93.6923137109375,"velocity":0.3937007874015748},{"duration":0.24590150000000222,"midi":66,"time":93.6923137109375,"velocity":0.3937007874015748},{"duration":0.24590150000000222,"midi":69,"time":93.957426265625,"velocity":0.3937007874015748},{"duration":0.3688522499999891,"midi":64,"time":93.957426265625,"velocity":0.3937007874015748},{"duration":0.12295075000000111,"midi":61,"time":94.449229265625,"velocity":0.3937007874015748},{"duration":0.12295075000000111,"midi":66,"time":94.449229265625,"velocity":0.3937007874015748},{"duration":0.12295075000000111,"midi":61,"time":94.67591971093749,"velocity":0.3937007874015748},{"duration":0.12295075000000111,"midi":66,"time":94.67591971093749,"velocity":0.3937007874015748},{"duration":0.12295075000000111,"midi":61,"time":94.9218212109375,"velocity":0.3937007874015748},{"duration":0.12295075000000111,"midi":66,"time":94.9218212109375,"velocity":0.3937007874015748},{"duration":0.12295075000000111,"midi":64,"time":95.1677227109375,"velocity":0.3937007874015748},{"duration":0.12295075000000111,"midi":59,"time":95.17796860677083,"velocity":0.3937007874015748},{"duration":0.12295075000000111,"midi":62,"time":95.66464865885416,"velocity":0.3937007874015748},{"duration":0.12295075000000111,"midi":57,"time":95.66977160677084,"velocity":0.3937007874015748},{"duration":0.8606552499999935,"midi":65,"time":96.15645165885417,"velocity":0.3937007874015748},{"duration":0.8606552499999935,"midi":59,"time":96.16157460677084,"velocity":0.3937007874015748},{"duration":0.8606552500000078,"midi":59,"time":97.1503035546875,"velocity":0.3937007874015748},{"duration":0.9836060000000089,"midi":64,"time":97.15542650260416,"velocity":0.3937007874015748},{"duration":2.3360642499999926,"midi":62,"time":98.13903250260417,"velocity":0.3937007874015748},{"duration":0.12295075000000111,"midi":66,"time":102.31935800260416,"velocity":0.3937007874015748},{"duration":0.12295075000000111,"midi":61,"time":102.31935800260416,"velocity":0.3937007874015748},{"duration":0.12295075000000111,"midi":66,"time":102.54604844791666,"velocity":0.3937007874015748},{"duration":0.12295075000000111,"midi":61,"time":102.54604844791666,"velocity":0.3937007874015748},{"duration":0.24590150000000222,"midi":66,"time":102.79194994791666,"velocity":0.3937007874015748},{"duration":0.12295075000000111,"midi":61,"time":102.79707289583334,"velocity":0.3937007874015748},{"duration":0.12295075000000111,"midi":59,"time":103.05322029166666,"velocity":0.3937007874015748},{"duration":0.12295075000000111,"midi":64,"time":103.05322029166666,"velocity":0.3937007874015748},{"duration":0.12295075000000111,"midi":57,"time":103.52965444791666,"velocity":0.3937007874015748},{"duration":0.12295075000000111,"midi":62,"time":103.52965444791666,"velocity":0.3937007874015748},{"duration":0.7377045000000066,"midi":64,"time":104.02145744791666,"velocity":0.3937007874015748},{"duration":0.7377045000000066,"midi":59,"time":104.02145744791666,"velocity":0.3937007874015748},{"duration":0.24590150000000222,"midi":61,"time":104.74763531510416,"velocity":0.3937007874015748},{"duration":0.24590150000000222,"midi":66,"time":104.75403899999999,"velocity":0.3937007874015748},{"duration":0.12295075000000111,"midi":64,"time":104.9999405,"velocity":0.3937007874015748},{"duration":0.24590150000000222,"midi":69,"time":104.9999405,"velocity":0.3937007874015748},{"duration":0.3688522500000033,"midi":64,"time":105.25096494791666,"velocity":0.3937007874015748},{"duration":0.3688522500000033,"midi":59,"time":105.25096494791666,"velocity":0.3937007874015748},{"duration":0.12295075000000111,"midi":64,"time":105.74276794791666,"velocity":0.3937007874015748},{"duration":0.24590150000000222,"midi":59,"time":105.74276794791666,"velocity":0.3937007874015748},{"duration":0.12295075000000111,"midi":61,"time":106.23457094791667,"velocity":0.3937007874015748},{"duration":0.12295075000000111,"midi":66,"time":106.23457094791667,"velocity":0.3937007874015748},{"duration":0.12295075000000111,"midi":66,"time":106.48047244791665,"velocity":0.3937007874015748},{"duration":0.12295075000000111,"midi":61,"time":106.48047244791665,"velocity":0.3937007874015748},{"duration":0.12295075000000111,"midi":61,"time":106.72637394791666,"velocity":0.3937007874015748},{"duration":0.12295075000000111,"midi":66,"time":106.72637394791666,"velocity":0.3937007874015748},{"duration":0.12295075000000111,"midi":64,"time":106.97227544791666,"velocity":0.3937007874015748},{"duration":0.12295075000000111,"midi":59,"time":106.98764429166665,"velocity":0.3937007874015748},{"duration":0.12295075000000111,"midi":57,"time":107.46407844791666,"velocity":0.3937007874015748},{"duration":0.12295075000000111,"midi":62,"time":107.46407844791666,"velocity":0.3937007874015748},{"duration":0.6147537500000055,"midi":64,"time":107.95588144791665,"velocity":0.3937007874015748},{"duration":0.7377044999999924,"midi":59,"time":107.96612734375,"velocity":0.3937007874015748},{"duration":0.49180300000000443,"midi":64,"time":108.95485629166666,"velocity":0.3937007874015748},{"duration":0.49180300000000443,"midi":69,"time":108.95485629166666,"velocity":0.3937007874015748},{"duration":0.245901499999988,"midi":66,"time":109.43129044791667,"velocity":0.3937007874015748},{"duration":0.245901499999988,"midi":71,"time":109.43641339583334,"velocity":0.3937007874015748},{"duration":0.245901499999988,"midi":64,"time":109.69256079166666,"velocity":0.3937007874015748},{"duration":0.4918029999999902,"midi":69,"time":109.69256079166666,"velocity":0.3937007874015748},{"duration":0.12295075000000111,"midi":64,"time":110.17411789583333,"velocity":0.3937007874015748},{"duration":0.12295075000000111,"midi":59,"time":110.17924084375,"velocity":0.3937007874015748},{"duration":0.12295075000000111,"midi":64,"time":110.41489644791666,"velocity":0.3937007874015748},{"duration":0.12295075000000111,"midi":59,"time":110.43410750260416,"velocity":0.3937007874015748},{"duration":0.12295075000000111,"midi":61,"time":110.66079794791666,"velocity":0.3937007874015748},{"duration":0.24590150000000222,"midi":66,"time":110.66079794791666,"velocity":0.3937007874015748},{"duration":0.12295075000000111,"midi":64,"time":110.90669944791667,"velocity":0.3937007874015748},{"duration":0.12295075000000111,"midi":59,"time":110.92591050260415,"velocity":0.3937007874015748},{"duration":0.12295075000000111,"midi":57,"time":111.39850244791666,"velocity":0.3937007874015748},{"duration":0.12295075000000111,"midi":62,"time":111.39850244791666,"velocity":0.3937007874015748},{"duration":0.9836059999999947,"midi":65,"time":111.89030544791666,"velocity":0.3937007874015748},{"duration":0.7377045000000066,"midi":59,"time":111.89030544791666,"velocity":0.3937007874015748},{"duration":0.8606552500000078,"midi":59,"time":112.87903439583333,"velocity":0.3937007874015748},{"duration":0.8606552500000078,"midi":64,"time":112.87903439583333,"velocity":0.3937007874015748},{"duration":1.5983597500000002,"midi":62,"time":114.12391073958334,"velocity":0.3937007874015748},{"duration":0.061475375000000554,"midi":62,"time":115.82601018489584,"velocity":0.3937007874015748},{"duration":0.12295075000000111,"midi":62,"time":116.07191168489584,"velocity":0.3937007874015748},{"duration":0.12295075000000111,"midi":57,"time":116.08215758072916,"velocity":0.3937007874015748},{"duration":0.12295075000000111,"midi":62,"time":116.31781318489584,"velocity":0.3937007874015748},{"duration":0.12295075000000111,"midi":57,"time":116.32805908072916,"velocity":0.3937007874015748},{"duration":0.12295075000000111,"midi":62,"time":117.05551768489583,"velocity":0.3937007874015748},{"duration":0.12295075000000111,"midi":57,"time":117.07088652864583,"velocity":0.3937007874015748},{"duration":0.24590150000000222,"midi":62,"time":117.54732068489584,"velocity":0.3937007874015748},{"duration":0.24590150000000222,"midi":57,"time":117.54732068489584,"velocity":0.3937007874015748},{"duration":0.12295075000000111,"midi":66,"time":149.53372673958333,"velocity":0.3937007874015748},{"duration":0.12295075000000111,"midi":61,"time":149.53372673958333,"velocity":0.3937007874015748},{"duration":0.12295075000000111,"midi":66,"time":149.76041718489583,"velocity":0.3937007874015748},{"duration":0.12295075000000111,"midi":61,"time":149.76041718489583,"velocity":0.3937007874015748},{"duration":0.24590150000000222,"midi":66,"time":150.00631868489583,"velocity":0.3937007874015748},{"duration":0.12295075000000111,"midi":61,"time":150.0114416328125,"velocity":0.3937007874015748},{"duration":0.12295075000000111,"midi":59,"time":150.26758902864583,"velocity":0.3937007874015748},{"duration":0.12295075000000111,"midi":64,"time":150.26758902864583,"velocity":0.3937007874015748},{"duration":0.12295075000000111,"midi":57,"time":150.7440231848958,"velocity":0.3937007874015748},{"duration":0.12295075000000111,"midi":62,"time":150.7440231848958,"velocity":0.3937007874015748},{"duration":0.7377045000000066,"midi":64,"time":151.2358261848958,"velocity":0.3937007874015748},{"duration":0.7377045000000066,"midi":59,"time":151.2358261848958,"velocity":0.3937007874015748},{"duration":0.24590150000000222,"midi":61,"time":151.96200405208333,"velocity":0.3937007874015748},{"duration":0.24590150000000222,"midi":66,"time":151.96840773697917,"velocity":0.3937007874015748},{"duration":0.24590150000000222,"midi":69,"time":152.21430923697918,"velocity":0.3937007874015748},{"duration":0.12295075000000111,"midi":64,"time":152.21430923697918,"velocity":0.3937007874015748},{"duration":0.3688522500000033,"midi":59,"time":152.46533368489582,"velocity":0.3937007874015748},{"duration":0.3688522500000033,"midi":64,"time":152.46533368489582,"velocity":0.3937007874015748},{"duration":0.12295075000000111,"midi":64,"time":152.95713668489583,"velocity":0.3937007874015748},{"duration":0.24590150000000222,"midi":59,"time":152.95713668489583,"velocity":0.3937007874015748},{"duration":0.12295075000000111,"midi":61,"time":153.44893968489583,"velocity":0.3937007874015748},{"duration":0.12295075000000111,"midi":66,"time":153.44893968489583,"velocity":0.3937007874015748},{"duration":0.12295075000000111,"midi":66,"time":153.6948411848958,"velocity":0.3937007874015748},{"duration":0.12295075000000111,"midi":61,"time":153.6948411848958,"velocity":0.3937007874015748},{"duration":0.12295075000000111,"midi":61,"time":153.9407426848958,"velocity":0.3937007874015748},{"duration":0.12295075000000111,"midi":66,"time":153.9407426848958,"velocity":0.3937007874015748},{"duration":0.12295075000000111,"midi":64,"time":154.1866441848958,"velocity":0.3937007874015748},{"duration":0.12295075000000111,"midi":59,"time":154.2020130286458,"velocity":0.3937007874015748},{"duration":0.12295075000000111,"midi":57,"time":154.67844718489582,"velocity":0.3937007874015748},{"duration":0.12295075000000111,"midi":62,"time":154.67844718489582,"velocity":0.3937007874015748},{"duration":0.6147537500000055,"midi":64,"time":155.17025018489582,"velocity":0.3937007874015748},{"duration":0.7377045000000066,"midi":59,"time":155.18049608072917,"velocity":0.3937007874015748},{"duration":0.49180300000000443,"midi":64,"time":156.16922502864583,"velocity":0.3937007874015748},{"duration":0.49180300000000443,"midi":69,"time":156.16922502864583,"velocity":0.3937007874015748},{"duration":0.2459014999999738,"midi":66,"time":156.64565918489583,"velocity":0.3937007874015748},{"duration":0.2459014999999738,"midi":71,"time":156.6507821328125,"velocity":0.3937007874015748},{"duration":0.24590150000000222,"midi":64,"time":156.90692952864583,"velocity":0.3937007874015748},{"duration":0.491802999999976,"midi":69,"time":156.90692952864583,"velocity":0.3937007874015748},{"duration":0.12295075000000111,"midi":64,"time":157.3884866328125,"velocity":0.3937007874015748},{"duration":0.12295075000000111,"midi":59,"time":157.39360958072916,"velocity":0.3937007874015748},{"duration":0.12295075000000111,"midi":64,"time":157.62926518489581,"velocity":0.3937007874015748},{"duration":0.12295075000000111,"midi":59,"time":157.64847623958332,"velocity":0.3937007874015748},{"duration":0.12295075000000111,"midi":61,"time":157.87516668489582,"velocity":0.3937007874015748},{"duration":0.24590150000000222,"midi":66,"time":157.87516668489582,"velocity":0.3937007874015748},{"duration":0.12295075000000111,"midi":64,"time":158.12106818489582,"velocity":0.3937007874015748},{"duration":0.12295075000000111,"midi":59,"time":158.14027923958332,"velocity":0.3937007874015748},{"duration":0.12295075000000111,"midi":57,"time":158.61287118489582,"velocity":0.3937007874015748},{"duration":0.12295075000000111,"midi":62,"time":158.61287118489582,"velocity":0.3937007874015748},{"duration":0.7377045000000066,"midi":59,"time":159.10467418489583,"velocity":0.3937007874015748},{"duration":0.9836059999999804,"midi":65,"time":159.10467418489583,"velocity":0.3937007874015748},{"duration":0.8606552500000078,"midi":59,"time":160.09340313281248,"velocity":0.3937007874015748},{"duration":0.8606552500000078,"midi":64,"time":160.09340313281248,"velocity":0.3937007874015748},{"duration":1.5983597500000144,"midi":62,"time":161.3382794765625,"velocity":0.3937007874015748},{"duration":0.06147537499998634,"midi":62,"time":163.040378921875,"velocity":0.3937007874015748},{"duration":0.12295075000000111,"midi":62,"time":163.286280421875,"velocity":0.3937007874015748},{"duration":0.12295075000000111,"midi":57,"time":163.29652631770833,"velocity":0.3937007874015748},{"duration":0.12295075000000111,"midi":62,"time":163.532181921875,"velocity":0.3937007874015748},{"duration":0.12295075000000111,"midi":57,"time":163.54242781770833,"velocity":0.3937007874015748},{"duration":0.12295075000000111,"midi":62,"time":164.269886421875,"velocity":0.3937007874015748},{"duration":0.12295075000000111,"midi":57,"time":164.28525526562498,"velocity":0.3937007874015748},{"duration":0.24590150000000222,"midi":62,"time":164.761689421875,"velocity":0.3937007874015748},{"duration":0.24590150000000222,"midi":57,"time":164.761689421875,"velocity":0.3937007874015748},{"duration":0.12295075000000111,"midi":69,"time":228.21452231770832,"velocity":0.3937007874015748},{"duration":0.12295075000000111,"midi":69,"time":228.34771896354167,"velocity":0.3937007874015748},{"duration":0.12295075000000111,"midi":69,"time":228.465546765625,"velocity":0.3937007874015748},{"duration":0.12295075000000111,"midi":69,"time":228.59362046354167,"velocity":0.3937007874015748},{"duration":0.12295075000000111,"midi":69,"time":228.71657121354167,"velocity":0.3937007874015748},{"duration":0.12295075000000111,"midi":69,"time":228.94710386979168,"velocity":0.3937007874015748},{"duration":0.12295075000000111,"midi":69,"time":229.080300515625,"velocity":0.3937007874015748},{"duration":0.12295075000000111,"midi":69,"time":229.19300536979168,"velocity":0.3937007874015748},{"duration":0.12295075000000111,"midi":69,"time":229.449152765625,"velocity":0.3937007874015748},{"duration":0.12295075000000111,"midi":69,"time":229.57722646354168,"velocity":0.3937007874015748},{"duration":0.12295075000000111,"midi":69,"time":229.68993131770833,"velocity":0.3937007874015748},{"duration":0.12295075000000111,"midi":69,"time":229.82312796354168,"velocity":0.3937007874015748},{"duration":0.12295075000000111,"midi":69,"time":229.92686765885418,"velocity":0.3937007874015748},{"duration":0.12295075000000111,"midi":69,"time":230.05494135677083,"velocity":0.3937007874015748},{"duration":0.12295075000000111,"midi":69,"time":230.1830150546875,"velocity":0.3937007874015748},{"duration":0.12295075000000111,"midi":69,"time":230.43916245052083,"velocity":0.3937007874015748},{"duration":0.12295075000000111,"midi":69,"time":230.5518673046875,"velocity":0.3937007874015748},{"duration":0.12295075000000111,"midi":69,"time":230.67994100260418,"velocity":0.3937007874015748},{"duration":0.12295074999997269,"midi":69,"time":230.91559660677083,"velocity":0.3937007874015748},{"duration":0.12295074999997269,"midi":69,"time":231.04879325260418,"velocity":0.3937007874015748},{"duration":0.12295075000000111,"midi":69,"time":231.15637515885416,"velocity":0.3937007874015748},{"duration":0.12295075000000111,"midi":69,"time":231.28957180468748,"velocity":0.3937007874015748},{"duration":0.12295075000000111,"midi":69,"time":231.4073996067708,"velocity":0.3937007874015748},{"duration":0.12295075000000111,"midi":69,"time":231.5457192005208,"velocity":0.3937007874015748},{"duration":0.12295075000000111,"midi":69,"time":231.6584240546875,"velocity":0.3937007874015748},{"duration":0.12295075000000111,"midi":69,"time":231.8889567109375,"velocity":0.3937007874015748},{"duration":0.12295075000000111,"midi":69,"time":232.02215335677081,"velocity":0.3937007874015748},{"duration":0.12295075000000111,"midi":69,"time":232.14510410677082,"velocity":0.3937007874015748},{"duration":0.12295075000000111,"midi":69,"time":232.38588265885417,"velocity":0.3937007874015748},{"duration":0.12295075000000111,"midi":69,"time":232.52804446354168,"velocity":0.3937007874015748},{"duration":0.12295075000000111,"midi":69,"time":232.63562636979168,"velocity":0.3937007874015748},{"duration":0.12295075000000111,"midi":69,"time":232.77394596354168,"velocity":0.3937007874015748},{"duration":0.12295075000000111,"midi":69,"time":232.87768565885418,"velocity":0.3937007874015748},{"duration":0.12295075000000111,"midi":69,"time":233.01600525260417,"velocity":0.3937007874015748},{"duration":0.12295075000000111,"midi":69,"time":233.14407895052082,"velocity":0.3937007874015748},{"duration":0.12295075000000111,"midi":69,"time":233.37461160677083,"velocity":0.3937007874015748},{"duration":0.12295075000000111,"midi":69,"time":233.50780825260418,"velocity":0.3937007874015748},{"duration":0.12295075000000111,"midi":69,"time":233.63588195052083,"velocity":0.3937007874015748},{"duration":0.12295075000000111,"midi":69,"time":233.87666050260418,"velocity":0.3937007874015748},{"duration":0.12295075000000111,"midi":69,"time":233.99961125260418,"velocity":0.3937007874015748},{"duration":0.12295074999997269,"midi":69,"time":234.1174390546875,"velocity":0.3937007874015748},{"duration":0.12295075000000111,"midi":69,"time":234.2557586484375,"velocity":0.3937007874015748},{"duration":0.12295075000000111,"midi":69,"time":234.35309465885416,"velocity":0.3937007874015748},{"duration":0.12295075000000111,"midi":69,"time":234.49141425260416,"velocity":0.3937007874015748},{"duration":0.12295075000000111,"midi":69,"time":234.61436500260416,"velocity":0.3937007874015748},{"duration":0.12295075000000111,"midi":69,"time":234.8500206067708,"velocity":0.3937007874015748},{"duration":0.12295075000000111,"midi":69,"time":234.9883402005208,"velocity":0.3937007874015748},{"duration":0.12295075000000111,"midi":69,"time":235.10616800260416,"velocity":0.3937007874015748},{"duration":0.12295075000000111,"midi":69,"time":235.3469465546875,"velocity":0.3937007874015748},{"duration":0.12295075000000111,"midi":69,"time":235.4801432005208,"velocity":0.3937007874015748},{"duration":0.12295075000000111,"midi":69,"time":235.5928480546875,"velocity":0.3937007874015748},{"duration":0.12295075000000111,"midi":69,"time":235.7311676484375,"velocity":0.3937007874015748},{"duration":0.12295075000000111,"midi":69,"time":235.842591765625,"velocity":0.3937007874015748},{"duration":0.12295075000000111,"midi":69,"time":235.9770691484375,"velocity":0.3937007874015748},{"duration":0.12295075000000111,"midi":69,"time":236.09361621354168,"velocity":0.3937007874015748},{"duration":0.12295075000000111,"midi":69,"time":236.32927181770833,"velocity":0.3937007874015748},{"duration":0.12295075000000111,"midi":69,"time":236.457345515625,"velocity":0.3937007874015748},{"duration":0.12295074999997269,"midi":69,"time":236.580296265625,"velocity":0.3937007874015748},{"duration":0.12295075000000111,"midi":69,"time":236.83132071354166,"velocity":0.3937007874015748},{"duration":0.12295075000000111,"midi":69,"time":236.95427146354166,"velocity":0.3937007874015748},{"duration":0.061475375000014765,"midi":69,"time":237.07722221354166,"velocity":0.3937007874015748},{"duration":0.24590150000000222,"midi":69,"time":237.20017296354166,"velocity":0.3937007874015748},{"duration":0.12295075000000111,"midi":69,"time":237.440951515625,"velocity":0.3937007874015748},{"duration":0.12295075000000111,"midi":69,"time":237.55877931770831,"velocity":0.3937007874015748},{"duration":0.12295075000000111,"midi":69,"time":237.809803765625,"velocity":0.3937007874015748},{"duration":0.12295075000000111,"midi":69,"time":237.932754515625,"velocity":0.3937007874015748},{"duration":0.12295075000000111,"midi":69,"time":238.055705265625,"velocity":0.3937007874015748},{"duration":0.12295075000000111,"midi":69,"time":238.29648381770832,"velocity":0.3937007874015748},{"duration":0.12295075000000111,"midi":69,"time":238.42968046354167,"velocity":0.3937007874015748},{"duration":0.12295075000000111,"midi":69,"time":238.53342015885417,"velocity":0.3937007874015748},{"duration":0.12295075000000111,"midi":69,"time":238.67173975260417,"velocity":0.3937007874015748},{"duration":0.12295075000000111,"midi":69,"time":238.77932165885417,"velocity":0.3937007874015748},{"duration":0.12295075000000111,"midi":69,"time":238.90739535677082,"velocity":0.3937007874015748},{"duration":0.12295075000000111,"midi":69,"time":239.02522315885417,"velocity":0.3937007874015748},{"duration":0.12295075000000111,"midi":69,"time":239.27112465885418,"velocity":0.3937007874015748},{"duration":0.12295075000000111,"midi":69,"time":239.39407540885418,"velocity":0.3937007874015748},{"duration":0.12295075000000111,"midi":69,"time":239.52214910677083,"velocity":0.3937007874015748}]}]}
