{"tracks":[{"instrument":{"family":"piano","number":0,"name":"acoustic grand piano"},"notes":[{"duration":0.13274324999999998,"midi":48,"time":0.7964595000000001,"velocity":0.3937007874015748},{"duration":0.13274324999999998,"midi":48,"time":0.9292027500000001,"velocity":0.3937007874015748},{"duration":0.13274324999999987,"midi":48,"time":1.1946892500000001,"velocity":0.3937007874015748},{"duration":0.1327432500000001,"midi":48,"time":1.3274325,"velocity":0.3937007874015748},{"duration":0.1327432500000001,"midi":48,"time":1.46017575,"velocity":0.3937007874015748},{"duration":0.13274324999999987,"midi":45,"time":1.5929190000000002,"velocity":0.3937007874015748},{"duration":0.1327432500000001,"midi":45,"time":1.72566225,"velocity":0.3937007874015748},{"duration":0.13274324999999987,"midi":41,"time":1.8584055000000002,"velocity":0.3937007874015748},{"duration":0.1327432500000001,"midi":41,"time":1.99114875,"velocity":0.3937007874015748},{"duration":0.13274324999999987,"midi":42,"time":2.123892,"velocity":0.3937007874015748},{"duration":0.13274324999999987,"midi":36,"time":2.123892,"velocity":0.3937007874015748},{"duration":0.7964595000000001,"midi":66,"time":2.123892,"velocity":0.3937007874015748},{"duration":0.7964595000000001,"midi":77,"time":2.123892,"velocity":0.3937007874015748},{"duration":0.13274324999999987,"midi":39,"time":2.123892,"velocity":0.3937007874015748},{"duration":0.7964595000000001,"midi":66,"time":2.123892,"velocity":0.3937007874015748},{"duration":0.7964595000000001,"midi":73,"time":2.123892,"velocity":0.3937007874015748},{"duration":0.7964595000000001,"midi":58,"time":2.123892,"velocity":0.3937007874015748},{"duration":0.7964595000000001,"midi":61,"time":2.123892,"velocity":0.3937007874015748},{"duration":0.7964595000000001,"midi":85,"time":2.123892,"velocity":0.3937007874015748},{"duration":0.7964595000000001,"midi":70,"time":2.123892,"velocity":0.3937007874015748},{"duration":0.1327432500000003,"midi":56,"time":2.25663525,"velocity":0.3937007874015748},{"duration":0.13274324999999987,"midi":39,"time":2.3893785000000003,"velocity":0.3937007874015748},{"duration":0.13274324999999987,"midi":42,"time":2.3893785000000003,"velocity":0.3937007874015748},{"duration":0.13274324999999987,"midi":42,"time":2.52212175,"velocity":0.3937007874015748},{"duration":0.13274324999999987,"midi":39,"time":2.52212175,"velocity":0.3937007874015748},{"duration":0.1327432500000003,"midi":38,"time":2.654865,"velocity":0.3937007874015748},{"duration":0.1327432500000003,"midi":36,"time":2.654865,"velocity":0.3937007874015748},{"duration":0.1327432500000003,"midi":39,"time":2.654865,"velocity":0.3937007874015748},{"duration":0.1327432500000003,"midi":56,"time":2.654865,"velocity":0.3937007874015748},{"duration":0.1327432500000003,"midi":42,"time":2.654865,"velocity":0.3937007874015748},{"duration":0.13274324999999987,"midi":48,"time":2.7876082500000003,"velocity":0.3937007874015748},{"duration":2.123892,"midi":63,"time":2.9203515,"velocity":0.3937007874015748},{"duration":2.123892,"midi":60,"time":2.9203515,"velocity":0.3937007874015748},{"duration":1.3274325,"midi":68,"time":2.9203515,"velocity":0.3937007874015748},{"duration":0.13274324999999987,"midi":42,"time":2.9203515,"velocity":0.3937007874015748},{"duration":2.123892,"midi":68,"time":2.9203515,"velocity":0.3937007874015748},{"duration":1.0619459999999998,"midi":87,"time":2.9203515,"velocity":0.3937007874015748},{"duration":1.3274325,"midi":75,"time":2.9203515,"velocity":0.3937007874015748},{"duration":0.13274324999999987,"midi":46,"time":2.9203515,"velocity":0.3937007874015748},{"duration":1.3274325,"midi":72,"time":2.9203515,"velocity":0.3937007874015748},{"duration":0.1327432500000003,"midi":42,"time":3.05309475,"velocity":0.3937007874015748},{"duration":0.1327432500000003,"midi":53,"time":3.05309475,"velocity":0.3937007874015748},{"duration":0.13274324999999987,"midi":56,"time":3.1858380000000004,"velocity":0.3937007874015748},{"duration":0.13274324999999987,"midi":42,"time":3.1858380000000004,"velocity":0.3937007874015748},{"duration":0.13274324999999987,"midi":44,"time":3.1858380000000004,"velocity":0.3937007874015748},{"duration":0.13274324999999987,"midi":36,"time":3.1858380000000004,"velocity":0.3937007874015748},{"duration":0.13274324999999987,"midi":44,"time":3.4513245,"velocity":0.3937007874015748},{"duration":0.13274324999999987,"midi":42,"time":3.4513245,"velocity":0.3937007874015748},{"duration":0.1327432500000003,"midi":56,"time":3.58406775,"velocity":0.3937007874015748},{"duration":0.1327432500000003,"midi":42,"time":3.58406775,"velocity":0.3937007874015748},{"duration":0.13274324999999987,"midi":42,"time":3.7168110000000003,"velocity":0.3937007874015748},{"duration":0.13274324999999987,"midi":38,"time":3.7168110000000003,"velocity":0.3937007874015748},{"duration":0.13274324999999987,"midi":36,"time":3.7168110000000003,"velocity":0.3937007874015748},{"duration":0.13274324999999987,"midi":39,"time":3.7168110000000003,"velocity":0.3937007874015748},{"duration":0.1327432500000003,"midi":42,"time":3.9822975,"velocity":0.3937007874015748},{"duration":0.2654865000000002,"midi":80,"time":3.9822975,"velocity":0.3937007874015748},{"duration":0.1327432500000003,"midi":53,"time":3.9822975,"velocity":0.3937007874015748},{"duration":0.1327432500000003,"midi":39,"time":3.9822975,"velocity":0.3937007874015748},{"duration":0.13274324999999987,"midi":56,"time":4.11504075,"velocity":0.3937007874015748},{"duration":0.13274324999999987,"midi":44,"time":4.11504075,"velocity":0.3937007874015748},{"duration":0.13274324999999987,"midi":42,"time":4.11504075,"velocity":0.3937007874015748},{"duration":0.13274324999999987,"midi":41,"time":4.247784,"velocity":0.3937007874015748},{"duration":0.7964595000000001,"midi":72,"time":4.247784,"velocity":0.3937007874015748},{"duration":0.7964595000000001,"midi":75,"time":4.247784,"velocity":0.3937007874015748},{"duration":0.7964595000000001,"midi":87,"time":4.247784,"velocity":0.3937007874015748},{"duration":2.1238920000000006,"midi":68,"time":4.247784,"velocity":0.3937007874015748},{"duration":0.13274324999999987,"midi":36,"time":4.247784,"velocity":0.3937007874015748},{"duration":0.13274324999999987,"midi":42,"time":4.247784,"velocity":0.3937007874015748},{"duration":0.13274324999999987,"midi":56,"time":4.38052725,"velocity":0.3937007874015748},{"duration":0.13274324999999987,"midi":41,"time":4.5132705,"velocity":0.3937007874015748},{"duration":0.13274324999999987,"midi":42,"time":4.5132705,"velocity":0.3937007874015748},{"duration":0.13274325000000076,"midi":42,"time":4.64601375,"velocity":0.3937007874015748},{"duration":0.13274325000000076,"midi":48,"time":4.64601375,"velocity":0.3937007874015748},{"duration":0.13274324999999987,"midi":38,"time":4.778757000000001,"velocity":0.3937007874015748},{"duration":0.13274324999999987,"midi":42,"time":4.778757000000001,"velocity":0.3937007874015748},{"duration":0.13274324999999987,"midi":56,"time":4.778757000000001,"velocity":0.3937007874015748},{"duration":0.13274324999999987,"midi":39,"time":4.778757000000001,"velocity":0.3937007874015748},{"duration":0.13274324999999987,"midi":36,"time":4.778757000000001,"velocity":0.3937007874015748},{"duration":0.13274324999999987,"midi":48,"time":4.9115002500000005,"velocity":0.3937007874015748},{"duration":1.3274325000000005,"midi":70,"time":5.0442435,"velocity":0.3937007874015748},{"duration":1.3274325000000005,"midi":73,"time":5.0442435,"velocity":0.3937007874015748},{"duration":1.3274325000000005,"midi":77,"time":5.0442435,"velocity":0.3937007874015748},{"duration":0.13274324999999987,"midi":42,"time":5.0442435,"velocity":0.3937007874015748},{"duration":0.7964595000000001,"midi":89,"time":5.0442435,"velocity":0.3937007874015748},{"duration":0.7964595000000001,"midi":61,"time":5.0442435,"velocity":0.3937007874015748},{"duration":0.13274324999999987,"midi":46,"time":5.0442435,"velocity":0.3937007874015748},{"duration":0.92920275,"midi":65,"time":5.0442435,"velocity":0.3937007874015748},{"duration":0.13274324999999987,"midi":53,"time":5.17698675,"velocity":0.3937007874015748},{"duration":0.13274324999999987,"midi":42,"time":5.17698675,"velocity":0.3937007874015748},{"duration":0.13274324999999987,"midi":42,"time":5.30973,"velocity":0.3937007874015748},{"duration":0.13274324999999987,"midi":56,"time":5.30973,"velocity":0.3937007874015748},{"duration":0.13274324999999987,"midi":36,"time":5.30973,"velocity":0.3937007874015748},{"duration":0.13274324999999987,"midi":56,"time":5.575216500000001,"velocity":0.3937007874015748},{"duration":0.13274324999999987,"midi":46,"time":5.575216500000001,"velocity":0.3937007874015748},{"duration":0.13274324999999987,"midi":42,"time":5.575216500000001,"velocity":0.3937007874015748},{"duration":0.13274324999999987,"midi":46,"time":5.7079597500000006,"velocity":0.3937007874015748},{"duration":0.13274324999999987,"midi":42,"time":5.7079597500000006,"velocity":0.3937007874015748},{"duration":0.13274324999999987,"midi":89,"time":5.840703,"velocity":0.3937007874015748},{"duration":0.13274324999999987,"midi":39,"time":5.840703,"velocity":0.3937007874015748},{"duration":0.5309730000000004,"midi":63,"time":5.840703,"velocity":0.3937007874015748},{"duration":0.13274324999999987,"midi":56,"time":5.840703,"velocity":0.3937007874015748},{"duration":0.13274324999999987,"midi":38,"time":5.840703,"velocity":0.3937007874015748},{"duration":0.5309730000000004,"midi":60,"time":5.840703,"velocity":0.3937007874015748},{"duration":0.13274324999999987,"midi":36,"time":5.840703,"velocity":0.3937007874015748},{"duration":0.13274324999999987,"midi":42,"time":5.840703,"velocity":0.3937007874015748},{"duration":0.13274324999999987,"midi":58,"time":5.97344625,"velocity":0.3937007874015748},{"duration":0.13274324999999987,"midi":48,"time":5.97344625,"velocity":0.3937007874015748},{"duration":0.13274324999999987,"midi":90,"time":5.97344625,"velocity":0.3937007874015748},{"duration":0.13274324999999987,"midi":46,"time":6.1061895,"velocity":0.3937007874015748},{"duration":0.13274324999999987,"midi":89,"time":6.1061895,"velocity":0.3937007874015748},{"duration":0.13274324999999987,"midi":46,"time":6.1061895,"velocity":0.3937007874015748},{"duration":0.92920275,"midi":85,"time":6.23893275,"velocity":0.3937007874015748},{"duration":0.7964594999999992,"midi":77,"time":6.371676000000001,"velocity":0.3937007874015748},{"duration":0.13274324999999987,"midi":39,"time":6.371676000000001,"velocity":0.3937007874015748},{"duration":0.7964594999999992,"midi":61,"time":6.371676000000001,"velocity":0.3937007874015748},{"duration":0.7964594999999992,"midi":73,"time":6.371676000000001,"velocity":0.3937007874015748},{"duration":0.7964594999999992,"midi":66,"time":6.371676000000001,"velocity":0.3937007874015748},{"duration":0.7964594999999992,"midi":58,"time":6.371676000000001,"velocity":0.3937007874015748},{"duration":0.92920275,"midi":66,"time":6.371676000000001,"velocity":0.3937007874015748},{"duration":0.13274324999999987,"midi":42,"time":6.371676000000001,"velocity":0.3937007874015748},{"duration":0.7964594999999992,"midi":70,"time":6.371676000000001,"velocity":0.3937007874015748},{"duration":0.13274324999999987,"midi":36,"time":6.371676000000001,"velocity":0.3937007874015748},{"duration":0.13274324999999987,"midi":56,"time":6.504419250000001,"velocity":0.3937007874015748},{"duration":0.13274324999999987,"midi":42,"time":6.6371625000000005,"velocity":0.3937007874015748},{"duration":0.13274324999999987,"midi":39,"time":6.6371625000000005,"velocity":0.3937007874015748},{"duration":0.13274324999999987,"midi":48,"time":6.76990575,"velocity":0.3937007874015748},{"duration":0.13274324999999987,"midi":42,"time":6.76990575,"velocity":0.3937007874015748},{"duration":0.13274324999999987,"midi":36,"time":6.902649,"velocity":0.3937007874015748},{"duration":0.13274324999999987,"midi":39,"time":6.902649,"velocity":0.3937007874015748},{"duration":0.13274324999999987,"midi":38,"time":6.902649,"velocity":0.3937007874015748},{"duration":0.13274324999999987,"midi":42,"time":6.902649,"velocity":0.3937007874015748},{"duration":0.13274324999999987,"midi":56,"time":6.902649,"velocity":0.3937007874015748},{"duration":0.13274324999999987,"midi":48,"time":7.03539225,"velocity":0.3937007874015748},{"duration":0.13274325000000076,"midi":42,"time":7.1681355,"velocity":0.3937007874015748},{"duration":1.3274325000000005,"midi":72,"time":7.1681355,"velocity":0.3937007874015748},{"duration":1.8584055,"midi":63,"time":7.1681355,"velocity":0.3937007874015748},{"duration":0.13274325000000076,"midi":46,"time":7.1681355,"velocity":0.3937007874015748},{"duration":1.3274325000000005,"midi":68,"time":7.1681355,"velocity":0.3937007874015748},{"duration":1.8584055,"midi":60,"time":7.1681355,"velocity":0.3937007874015748},{"duration":0.7964595000000001,"midi":87,"time":7.1681355,"velocity":0.3937007874015748},{"duration":2.1238919999999997,"midi":68,"time":7.1681355,"velocity":0.3937007874015748},{"duration":1.3274325000000005,"midi":75,"time":7.1681355,"velocity":0.3937007874015748},{"duration":0.13274324999999987,"midi":42,"time":7.300878750000001,"velocity":0.3937007874015748},{"duration":0.13274324999999987,"midi":53,"time":7.300878750000001,"velocity":0.3937007874015748},{"duration":0.13274324999999987,"midi":44,"time":7.433622000000001,"velocity":0.3937007874015748},{"duration":0.13274324999999987,"midi":56,"time":7.433622000000001,"velocity":0.3937007874015748},{"duration":0.13274324999999987,"midi":36,"time":7.433622000000001,"velocity":0.3937007874015748},{"duration":0.13274324999999987,"midi":42,"time":7.433622000000001,"velocity":0.3937007874015748},{"duration":0.13274324999999987,"midi":44,"time":7.6991085,"velocity":0.3937007874015748},{"duration":0.13274324999999987,"midi":42,"time":7.6991085,"velocity":0.3937007874015748},{"duration":0.13274324999999987,"midi":56,"time":7.6991085,"velocity":0.3937007874015748},{"duration":0.13274324999999987,"midi":42,"time":7.83185175,"velocity":0.3937007874015748},{"duration":0.13274324999999987,"midi":42,"time":7.964595,"velocity":0.3937007874015748},{"duration":0.13274324999999987,"midi":39,"time":7.964595,"velocity":0.3937007874015748},{"duration":0.13274324999999987,"midi":38,"time":7.964595,"velocity":0.3937007874015748},{"duration":0.13274324999999987,"midi":36,"time":7.964595,"velocity":0.3937007874015748},{"duration":1.72566225,"midi":80,"time":7.964595,"velocity":0.3937007874015748},{"duration":0.13274324999999898,"midi":51,"time":8.2300815,"velocity":0.3937007874015748},{"duration":0.13274324999999898,"midi":39,"time":8.2300815,"velocity":0.3937007874015748},{"duration":0.13274324999999898,"midi":42,"time":8.2300815,"velocity":0.3937007874015748},{"duration":0.13274325000000076,"midi":42,"time":8.36282475,"velocity":0.3937007874015748},{"duration":0.13274325000000076,"midi":39,"time":8.36282475,"velocity":0.3937007874015748},{"duration":0.13274325000000076,"midi":53,"time":8.36282475,"velocity":0.3937007874015748},{"duration":0.26548649999999974,"midi":56,"time":8.495568,"velocity":0.3937007874015748},{"duration":0.7964594999999992,"midi":72,"time":8.495568,"velocity":0.3937007874015748},{"duration":1.1946892499999997,"midi":68,"time":8.495568,"velocity":0.3937007874015748},{"duration":0.13274325000000076,"midi":36,"time":8.495568,"velocity":0.3937007874015748},{"duration":0.7964594999999992,"midi":75,"time":8.495568,"velocity":0.3937007874015748},{"duration":0.13274325000000076,"midi":41,"time":8.495568,"velocity":0.3937007874015748},{"duration":0.13274325000000076,"midi":42,"time":8.495568,"velocity":0.3937007874015748},{"duration":0.3982297499999987,"midi":56,"time":8.628311250000001,"velocity":0.3937007874015748},{"duration":0.13274325000000076,"midi":41,"time":8.7610545,"velocity":0.3937007874015748},{"duration":0.13274325000000076,"midi":42,"time":8.7610545,"velocity":0.3937007874015748},{"duration":0.13274324999999898,"midi":42,"time":8.893797750000001,"velocity":0.3937007874015748},{"duration":0.13274324999999898,"midi":41,"time":8.893797750000001,"velocity":0.3937007874015748},{"duration":0.13274325000000076,"midi":39,"time":9.026541,"velocity":0.3937007874015748},{"duration":0.13274325000000076,"midi":36,"time":9.026541,"velocity":0.3937007874015748},{"duration":0.13274325000000076,"midi":38,"time":9.026541,"velocity":0.3937007874015748},{"duration":0.13274325000000076,"midi":42,"time":9.026541,"velocity":0.3937007874015748},{"duration":0.13274325000000076,"midi":56,"time":9.026541,"velocity":0.3937007874015748},{"duration":1.4601757500000012,"midi":61,"time":9.026541,"velocity":0.3937007874015748},{"duration":1.4601757500000012,"midi":65,"time":9.026541,"velocity":0.3937007874015748},{"duration":0.13274324999999898,"midi":48,"time":9.15928425,"velocity":0.3937007874015748},{"duration":1.3274325000000005,"midi":77,"time":9.2920275,"velocity":0.3937007874015748},{"duration":0.13274325000000076,"midi":46,"time":9.2920275,"velocity":0.3937007874015748},{"duration":1.3274325000000005,"midi":70,"time":9.2920275,"velocity":0.3937007874015748},{"duration":1.3274325000000005,"midi":73,"time":9.2920275,"velocity":0.3937007874015748},{"duration":0.13274325000000076,"midi":46,"time":9.2920275,"velocity":0.3937007874015748},{"duration":0.13274325000000076,"midi":53,"time":9.42477075,"velocity":0.3937007874015748},{"duration":0.26548649999999974,"midi":80,"time":9.557514000000001,"velocity":0.3937007874015748},{"duration":0.13274324999999898,"midi":36,"time":9.557514000000001,"velocity":0.3937007874015748},{"duration":0.13274324999999898,"midi":56,"time":9.557514000000001,"velocity":0.3937007874015748},{"duration":0.13274324999999898,"midi":85,"time":9.557514000000001,"velocity":0.3937007874015748},{"duration":0.26548649999999974,"midi":68,"time":9.557514000000001,"velocity":0.3937007874015748},{"duration":0.13274324999999898,"midi":42,"time":9.557514000000001,"velocity":0.3937007874015748},{"duration":0.13274325000000076,"midi":85,"time":9.69025725,"velocity":0.3937007874015748},{"duration":0.3982297500000005,"midi":80,"time":9.69025725,"velocity":0.3937007874015748},{"duration":0.3982297500000005,"midi":68,"time":9.69025725,"velocity":0.3937007874015748},{"duration":0.13274324999999898,"midi":42,"time":9.823000500000001,"velocity":0.3937007874015748},{"duration":0.13274324999999898,"midi":56,"time":9.823000500000001,"velocity":0.3937007874015748},{"duration":0.13274324999999898,"midi":44,"time":9.823000500000001,"velocity":0.3937007874015748},{"duration":0.13274325000000076,"midi":85,"time":9.95574375,"velocity":0.3937007874015748},{"duration":0.2654865000000015,"midi":80,"time":9.95574375,"velocity":0.3937007874015748},{"duration":0.2654865000000015,"midi":68,"time":9.95574375,"velocity":0.3937007874015748},{"duration":0.13274325000000076,"midi":42,"time":9.95574375,"velocity":0.3937007874015748},{"duration":0.26548649999999974,"midi":68,"time":10.088487,"velocity":0.3937007874015748},{"duration":0.13274325000000076,"midi":39,"time":10.088487,"velocity":0.3937007874015748},{"duration":0.13274325000000076,"midi":49,"time":10.088487,"velocity":0.3937007874015748},{"duration":0.26548649999999974,"midi":80,"time":10.088487,"velocity":0.3937007874015748},{"duration":0.13274325000000076,"midi":38,"time":10.088487,"velocity":0.3937007874015748},{"duration":0.13274325000000076,"midi":36,"time":10.088487,"velocity":0.3937007874015748},{"duration":0.13274325000000076,"midi":85,"time":10.088487,"velocity":0.3937007874015748},{"duration":0.13274325000000076,"midi":42,"time":10.088487,"velocity":0.3937007874015748},{"duration":0.13274324999999898,"midi":56,"time":10.221230250000001,"velocity":0.3937007874015748},{"duration":0.26548649999999974,"midi":68,"time":10.221230250000001,"velocity":0.3937007874015748},{"duration":0.13274324999999898,"midi":39,"time":10.221230250000001,"velocity":0.3937007874015748},{"duration":0.26548649999999974,"midi":80,"time":10.221230250000001,"velocity":0.3937007874015748},{"duration":0.13274324999999898,"midi":85,"time":10.221230250000001,"velocity":0.3937007874015748},{"duration":0.13274324999999898,"midi":46,"time":10.221230250000001,"velocity":0.3937007874015748},{"duration":0.13274325000000076,"midi":39,"time":10.3539735,"velocity":0.3937007874015748},{"duration":0.13274325000000076,"midi":80,"time":10.3539735,"velocity":0.3937007874015748},{"duration":0.13274325000000076,"midi":46,"time":10.3539735,"velocity":0.3937007874015748},{"duration":0.13274325000000076,"midi":85,"time":10.3539735,"velocity":0.3937007874015748},{"duration":0.13274325000000076,"midi":68,"time":10.3539735,"velocity":0.3937007874015748},{"duration":0.13274324999999898,"midi":68,"time":10.486716750000001,"velocity":0.3937007874015748},{"duration":0.13274324999999898,"midi":56,"time":10.486716750000001,"velocity":0.3937007874015748},{"duration":0.13274324999999898,"midi":49,"time":10.486716750000001,"velocity":0.3937007874015748},{"duration":0.13274324999999898,"midi":39,"time":10.486716750000001,"velocity":0.3937007874015748},{"duration":0.13274324999999898,"midi":80,"time":10.486716750000001,"velocity":0.3937007874015748},{"duration":0.13274324999999898,"midi":85,"time":10.486716750000001,"velocity":0.3937007874015748},{"duration":0.796459500000001,"midi":61,"time":10.61946,"velocity":0.3937007874015748},{"duration":0.13274325000000076,"midi":36,"time":10.61946,"velocity":0.3937007874015748},{"duration":0.13274325000000076,"midi":42,"time":10.61946,"velocity":0.3937007874015748},{"duration":0.796459500000001,"midi":77,"time":10.61946,"velocity":0.3937007874015748},{"duration":0.796459500000001,"midi":58,"time":10.61946,"velocity":0.3937007874015748},{"duration":0.796459500000001,"midi":85,"time":10.61946,"velocity":0.3937007874015748},{"duration":0.796459500000001,"midi":70,"time":10.61946,"velocity":0.3937007874015748},{"duration":0.796459500000001,"midi":66,"time":10.61946,"velocity":0.3937007874015748},{"duration":0.796459500000001,"midi":73,"time":10.61946,"velocity":0.3937007874015748},{"duration":0.796459500000001,"midi":66,"time":10.61946,"velocity":0.3937007874015748},{"duration":0.13274325000000076,"midi":39,"time":10.61946,"velocity":0.3937007874015748},{"duration":0.13274324999999898,"midi":56,"time":10.75220325,"velocity":0.3937007874015748},{"duration":0.13274325000000076,"midi":42,"time":10.8849465,"velocity":0.3937007874015748},{"duration":0.13274325000000076,"midi":39,"time":10.8849465,"velocity":0.3937007874015748},{"duration":0.13274325000000076,"midi":39,"time":11.01768975,"velocity":0.3937007874015748},{"duration":0.13274325000000076,"midi":42,"time":11.01768975,"velocity":0.3937007874015748},{"duration":0.13274324999999898,"midi":36,"time":11.150433000000001,"velocity":0.3937007874015748},{"duration":0.13274324999999898,"midi":56,"time":11.150433000000001,"velocity":0.3937007874015748},{"duration":0.13274324999999898,"midi":42,"time":11.150433000000001,"velocity":0.3937007874015748},{"duration":0.13274324999999898,"midi":38,"time":11.150433000000001,"velocity":0.3937007874015748},{"duration":0.13274324999999898,"midi":39,"time":11.150433000000001,"velocity":0.3937007874015748},{"duration":0.13274325000000076,"midi":48,"time":11.28317625,"velocity":0.3937007874015748},{"duration":1.3274325000000005,"midi":72,"time":11.415919500000001,"velocity":0.3937007874015748},{"duration":0.13274324999999898,"midi":42,"time":11.415919500000001,"velocity":0.3937007874015748},{"duration":1.3274325000000005,"midi":68,"time":11.415919500000001,"velocity":0.3937007874015748},{"duration":1.3274325000000005,"midi":75,"time":11.415919500000001,"velocity":0.3937007874015748},{"duration":2.1238919999999997,"midi":60,"time":11.415919500000001,"velocity":0.3937007874015748},{"duration":1.061945999999999,"midi":87,"time":11.415919500000001,"velocity":0.3937007874015748},{"duration":0.13274324999999898,"midi":46,"time":11.415919500000001,"velocity":0.3937007874015748},{"duration":2.1238919999999997,"midi":63,"time":11.415919500000001,"velocity":0.3937007874015748},{"duration":2.1238919999999997,"midi":68,"time":11.415919500000001,"velocity":0.3937007874015748},{"duration":0.13274325000000076,"midi":42,"time":11.54866275,"velocity":0.3937007874015748},{"duration":0.13274325000000076,"midi":53,"time":11.54866275,"velocity":0.3937007874015748},{"duration":0.13274324999999898,"midi":44,"time":11.681406,"velocity":0.3937007874015748},{"duration":0.13274324999999898,"midi":56,"time":11.681406,"velocity":0.3937007874015748},{"duration":0.13274324999999898,"midi":36,"time":11.681406,"velocity":0.3937007874015748},{"duration":0.13274324999999898,"midi":42,"time":11.681406,"velocity":0.3937007874015748},{"duration":0.13274325000000076,"midi":42,"time":11.9468925,"velocity":0.3937007874015748},{"duration":0.13274325000000076,"midi":44,"time":11.9468925,"velocity":0.3937007874015748},{"duration":0.13274324999999898,"midi":56,"time":12.079635750000001,"velocity":0.3937007874015748},{"duration":0.13274324999999898,"midi":42,"time":12.079635750000001,"velocity":0.3937007874015748},{"duration":0.13274325000000076,"midi":36,"time":12.212379,"velocity":0.3937007874015748},{"duration":0.13274325000000076,"midi":38,"time":12.212379,"velocity":0.3937007874015748},{"duration":0.13274325000000076,"midi":42,"time":12.212379,"velocity":0.3937007874015748},{"duration":0.13274325000000076,"midi":39,"time":12.212379,"velocity":0.3937007874015748},{"duration":0.13274325000000076,"midi":53,"time":12.4778655,"velocity":0.3937007874015748},{"duration":0.13274325000000076,"midi":42,"time":12.4778655,"velocity":0.3937007874015748},{"duration":0.13274325000000076,"midi":39,"time":12.4778655,"velocity":0.3937007874015748},{"duration":0.2654865000000015,"midi":80,"time":12.4778655,"velocity":0.3937007874015748},{"duration":0.13274325000000076,"midi":56,"time":12.61060875,"velocity":0.3937007874015748},{"duration":0.13274325000000076,"midi":44,"time":12.61060875,"velocity":0.3937007874015748},{"duration":0.13274325000000076,"midi":42,"time":12.61060875,"velocity":0.3937007874015748},{"duration":0.13274324999999898,"midi":41,"time":12.743352000000002,"velocity":0.3937007874015748},{"duration":0.13274324999999898,"midi":42,"time":12.743352000000002,"velocity":0.3937007874015748},{"duration":0.7964594999999992,"midi":72,"time":12.743352000000002,"velocity":0.3937007874015748},{"duration":0.7964594999999992,"midi":75,"time":12.743352000000002,"velocity":0.3937007874015748},{"duration":0.7964594999999992,"midi":87,"time":12.743352000000002,"velocity":0.3937007874015748},{"duration":2.1238919999999997,"midi":68,"time":12.743352000000002,"velocity":0.3937007874015748},{"duration":0.13274324999999898,"midi":36,"time":12.743352000000002,"velocity":0.3937007874015748},{"duration":0.13274325000000076,"midi":56,"time":12.87609525,"velocity":0.3937007874015748},{"duration":0.13274324999999898,"midi":41,"time":13.008838500000001,"velocity":0.3937007874015748},{"duration":0.13274324999999898,"midi":42,"time":13.008838500000001,"velocity":0.3937007874015748},{"duration":0.13274325000000076,"midi":42,"time":13.14158175,"velocity":0.3937007874015748},{"duration":0.13274325000000076,"midi":48,"time":13.14158175,"velocity":0.3937007874015748},{"duration":0.13274324999999898,"midi":36,"time":13.274325000000001,"velocity":0.3937007874015748},{"duration":0.13274324999999898,"midi":38,"time":13.274325000000001,"velocity":0.3937007874015748},{"duration":0.13274324999999898,"midi":56,"time":13.274325000000001,"velocity":0.3937007874015748},{"duration":0.13274324999999898,"midi":39,"time":13.274325000000001,"velocity":0.3937007874015748},{"duration":0.13274324999999898,"midi":42,"time":13.274325000000001,"velocity":0.3937007874015748},{"duration":0.13274325000000076,"midi":48,"time":13.40706825,"velocity":0.3937007874015748},{"duration":0.13274325000000076,"midi":46,"time":13.5398115,"velocity":0.3937007874015748},{"duration":0.92920275,"midi":65,"time":13.5398115,"velocity":0.3937007874015748},{"duration":0.13274325000000076,"midi":42,"time":13.5398115,"velocity":0.3937007874015748},{"duration":1.3274325000000005,"midi":77,"time":13.5398115,"velocity":0.3937007874015748},{"duration":1.3274325000000005,"midi":70,"time":13.5398115,"velocity":0.3937007874015748},{"duration":0.7964594999999992,"midi":89,"time":13.5398115,"velocity":0.3937007874015748},{"duration":0.7964594999999992,"midi":61,"time":13.5398115,"velocity":0.3937007874015748},{"duration":1.3274325000000005,"midi":73,"time":13.5398115,"velocity":0.3937007874015748},{"duration":0.13274324999999898,"midi":53,"time":13.672554750000002,"velocity":0.3937007874015748},{"duration":0.13274324999999898,"midi":42,"time":13.672554750000002,"velocity":0.3937007874015748},{"duration":0.13274325000000076,"midi":36,"time":13.805298,"velocity":0.3937007874015748},{"duration":0.13274325000000076,"midi":42,"time":13.805298,"velocity":0.3937007874015748},{"duration":0.13274325000000076,"midi":56,"time":13.805298,"velocity":0.3937007874015748},{"duration":0.13274325000000076,"midi":56,"time":14.0707845,"velocity":0.3937007874015748},{"duration":0.13274325000000076,"midi":42,"time":14.0707845,"velocity":0.3937007874015748},{"duration":0.13274325000000076,"midi":46,"time":14.0707845,"velocity":0.3937007874015748},{"duration":0.13274324999999898,"midi":46,"time":14.203527750000001,"velocity":0.3937007874015748},{"duration":0.13274324999999898,"midi":42,"time":14.203527750000001,"velocity":0.3937007874015748},{"duration":0.13274325000000076,"midi":36,"time":14.336271,"velocity":0.3937007874015748},{"duration":0.5309730000000012,"midi":60,"time":14.336271,"velocity":0.3937007874015748},{"duration":0.13274325000000076,"midi":38,"time":14.336271,"velocity":0.3937007874015748},{"duration":0.5309730000000012,"midi":63,"time":14.336271,"velocity":0.3937007874015748},{"duration":0.13274325000000076,"midi":42,"time":14.336271,"velocity":0.3937007874015748},{"duration":0.13274325000000076,"midi":89,"time":14.336271,"velocity":0.3937007874015748},{"duration":0.13274325000000076,"midi":56,"time":14.336271,"velocity":0.3937007874015748},{"duration":0.13274325000000076,"midi":39,"time":14.336271,"velocity":0.3937007874015748},{"duration":0.13274325000000076,"midi":48,"time":14.46901425,"velocity":0.3937007874015748},{"duration":0.13274325000000076,"midi":58,"time":14.46901425,"velocity":0.3937007874015748},{"duration":0.13274325000000076,"midi":90,"time":14.46901425,"velocity":0.3937007874015748},{"duration":0.13274324999999898,"midi":46,"time":14.601757500000001,"velocity":0.3937007874015748},{"duration":0.13274324999999898,"midi":89,"time":14.601757500000001,"velocity":0.3937007874015748},{"duration":0.13274324999999898,"midi":46,"time":14.601757500000001,"velocity":0.3937007874015748},{"duration":0.92920275,"midi":85,"time":14.73450075,"velocity":0.3937007874015748},{"duration":0.13274324999999898,"midi":39,"time":14.867244000000001,"velocity":0.3937007874015748},{"duration":0.6637162500000002,"midi":66,"time":14.867244000000001,"velocity":0.3937007874015748},{"duration":0.7964594999999992,"midi":61,"time":14.867244000000001,"velocity":0.3937007874015748},{"duration":0.92920275,"midi":66,"time":14.867244000000001,"velocity":0.3937007874015748},{"duration":0.13274324999999898,"midi":36,"time":14.867244000000001,"velocity":0.3937007874015748},{"duration":0.13274324999999898,"midi":42,"time":14.867244000000001,"velocity":0.3937007874015748},{"duration":0.7964594999999992,"midi":73,"time":14.867244000000001,"velocity":0.3937007874015748},{"duration":0.6637162500000002,"midi":70,"time":14.867244000000001,"velocity":0.3937007874015748},{"duration":0.7964594999999992,"midi":58,"time":14.867244000000001,"velocity":0.3937007874015748},{"duration":0.13274325000000076,"midi":56,"time":14.99998725,"velocity":0.3937007874015748},{"duration":0.13274324999999898,"midi":42,"time":15.132730500000001,"velocity":0.3937007874015748},{"duration":0.13274324999999898,"midi":39,"time":15.132730500000001,"velocity":0.3937007874015748},{"duration":0.13274325000000076,"midi":48,"time":15.26547375,"velocity":0.3937007874015748},{"duration":0.13274325000000076,"midi":42,"time":15.26547375,"velocity":0.3937007874015748},{"duration":0.13274325000000076,"midi":36,"time":15.398217,"velocity":0.3937007874015748},{"duration":0.13274325000000076,"midi":38,"time":15.398217,"velocity":0.3937007874015748},{"duration":0.13274325000000076,"midi":42,"time":15.398217,"velocity":0.3937007874015748},{"duration":0.13274325000000076,"midi":56,"time":15.398217,"velocity":0.3937007874015748},{"duration":0.13274325000000076,"midi":39,"time":15.398217,"velocity":0.3937007874015748},{"duration":0.13274324999999898,"midi":48,"time":15.530960250000001,"velocity":0.3937007874015748},{"duration":1.8584055,"midi":63,"time":15.6637035,"velocity":0.3937007874015748},{"duration":0.13274325000000076,"midi":42,"time":15.6637035,"velocity":0.3937007874015748},{"duration":1.3274325000000005,"midi":72,"time":15.6637035,"velocity":0.3937007874015748},{"duration":0.13274325000000076,"midi":46,"time":15.6637035,"velocity":0.3937007874015748},{"duration":1.3274325000000005,"midi":75,"time":15.6637035,"velocity":0.3937007874015748},{"duration":1.8584055,"midi":60,"time":15.6637035,"velocity":0.3937007874015748},{"duration":0.796459500000001,"midi":87,"time":15.6637035,"velocity":0.3937007874015748},{"duration":1.3274325000000005,"midi":68,"time":15.6637035,"velocity":0.3937007874015748},{"duration":1.8584055,"midi":68,"time":15.6637035,"velocity":0.3937007874015748},{"duration":0.13274324999999898,"midi":53,"time":15.796446750000001,"velocity":0.3937007874015748},{"duration":0.13274324999999898,"midi":42,"time":15.796446750000001,"velocity":0.3937007874015748},{"duration":0.13274324999999898,"midi":56,"time":15.92919,"velocity":0.3937007874015748},{"duration":0.13274324999999898,"midi":36,"time":15.92919,"velocity":0.3937007874015748},{"duration":0.13274324999999898,"midi":42,"time":15.92919,"velocity":0.3937007874015748},{"duration":0.13274324999999898,"midi":44,"time":15.92919,"velocity":0.3937007874015748},{"duration":0.13274325000000076,"midi":44,"time":16.1946765,"velocity":0.3937007874015748},{"duration":0.13274325000000076,"midi":42,"time":16.1946765,"velocity":0.3937007874015748},{"duration":0.13274325000000076,"midi":56,"time":16.1946765,"velocity":0.3937007874015748},{"duration":0.13274325000000076,"midi":42,"time":16.32741975,"velocity":0.3937007874015748},{"duration":0.13274325000000076,"midi":42,"time":16.460163,"velocity":0.3937007874015748},{"duration":0.13274325000000076,"midi":39,"time":16.460163,"velocity":0.3937007874015748},{"duration":0.13274325000000076,"midi":38,"time":16.460163,"velocity":0.3937007874015748},{"duration":0.13274325000000076,"midi":36,"time":16.460163,"velocity":0.3937007874015748},{"duration":1.7256622499999992,"midi":80,"time":16.460163,"velocity":0.3937007874015748},{"duration":0.13274325000000076,"midi":39,"time":16.7256495,"velocity":0.3937007874015748},{"duration":0.13274325000000076,"midi":51,"time":16.7256495,"velocity":0.3937007874015748},{"duration":0.13274325000000076,"midi":42,"time":16.7256495,"velocity":0.3937007874015748},{"duration":0.13274325000000076,"midi":53,"time":16.85839275,"velocity":0.3937007874015748},{"duration":0.13274325000000076,"midi":39,"time":16.85839275,"velocity":0.3937007874015748},{"duration":0.13274325000000076,"midi":42,"time":16.85839275,"velocity":0.3937007874015748},{"duration":1.1946892499999997,"midi":68,"time":16.991136,"velocity":0.3937007874015748},{"duration":0.13274325000000076,"midi":42,"time":16.991136,"velocity":0.3937007874015748},{"duration":0.5309729999999995,"midi":75,"time":16.991136,"velocity":0.3937007874015748},{"duration":0.5309729999999995,"midi":72,"time":16.991136,"velocity":0.3937007874015748},{"duration":0.13274325000000076,"midi":36,"time":16.991136,"velocity":0.3937007874015748},{"duration":0.2654865000000015,"midi":56,"time":16.991136,"velocity":0.3937007874015748},{"duration":0.13274325000000076,"midi":41,"time":16.991136,"velocity":0.3937007874015748},{"duration":0.3982297499999987,"midi":56,"time":17.12387925,"velocity":0.3937007874015748},{"duration":0.1327432499999972,"midi":42,"time":17.256622500000002,"velocity":0.3937007874015748},{"duration":0.1327432499999972,"midi":41,"time":17.256622500000002,"velocity":0.3937007874015748},{"duration":0.13274325000000076,"midi":41,"time":17.38936575,"velocity":0.3937007874015748},{"duration":0.13274325000000076,"midi":42,"time":17.38936575,"velocity":0.3937007874015748},{"duration":1.4601757500000012,"midi":61,"time":17.522109,"velocity":0.3937007874015748},{"duration":0.13274325000000076,"midi":56,"time":17.522109,"velocity":0.3937007874015748},{"duration":0.13274325000000076,"midi":39,"time":17.522109,"velocity":0.3937007874015748},{"duration":0.13274325000000076,"midi":42,"time":17.522109,"velocity":0.3937007874015748},{"duration":0.796459500000001,"midi":68,"time":17.522109,"velocity":0.3937007874015748},{"duration":1.592919000000002,"midi":73,"time":17.522109,"velocity":0.3937007874015748},{"duration":0.13274325000000076,"midi":38,"time":17.522109,"velocity":0.3937007874015748},{"duration":1.4601757500000012,"midi":65,"time":17.522109,"velocity":0.3937007874015748},{"duration":1.592919000000002,"midi":77,"time":17.522109,"velocity":0.3937007874015748},{"duration":0.13274325000000076,"midi":36,"time":17.522109,"velocity":0.3937007874015748},{"duration":0.13274325000000076,"midi":48,"time":17.65485225,"velocity":0.3937007874015748},{"duration":0.13274325000000076,"midi":46,"time":17.787595500000002,"velocity":0.3937007874015748},{"duration":0.13274325000000076,"midi":46,"time":17.787595500000002,"velocity":0.3937007874015748},{"duration":0.1327432499999972,"midi":53,"time":17.920338750000003,"velocity":0.3937007874015748},{"duration":0.5309729999999995,"midi":68,"time":18.053082,"velocity":0.3937007874015748},{"duration":0.13274325000000076,"midi":85,"time":18.053082,"velocity":0.3937007874015748},{"duration":0.13274325000000076,"midi":42,"time":18.053082,"velocity":0.3937007874015748},{"duration":0.13274325000000076,"midi":56,"time":18.053082,"velocity":0.3937007874015748},{"duration":0.13274325000000076,"midi":36,"time":18.053082,"velocity":0.3937007874015748},{"duration":0.2654865000000015,"midi":80,"time":18.053082,"velocity":0.3937007874015748},{"duration":0.5309729999999995,"midi":68,"time":18.18582525,"velocity":0.3937007874015748},{"duration":0.13274325000000076,"midi":85,"time":18.18582525,"velocity":0.3937007874015748},{"duration":0.3982297499999987,"midi":80,"time":18.18582525,"velocity":0.3937007874015748},{"duration":0.13274325000000076,"midi":42,"time":18.3185685,"velocity":0.3937007874015748},{"duration":0.13274325000000076,"midi":56,"time":18.3185685,"velocity":0.3937007874015748},{"duration":0.13274325000000076,"midi":44,"time":18.3185685,"velocity":0.3937007874015748},{"duration":0.1327432499999972,"midi":85,"time":18.451311750000002,"velocity":0.3937007874015748},{"duration":0.3982297499999987,"midi":68,"time":18.451311750000002,"velocity":0.3937007874015748},{"duration":0.26548649999999796,"midi":80,"time":18.451311750000002,"velocity":0.3937007874015748},{"duration":0.1327432499999972,"midi":42,"time":18.451311750000002,"velocity":0.3937007874015748},{"duration":0.13274325000000076,"midi":36,"time":18.584055,"velocity":0.3937007874015748},{"duration":0.2654865000000015,"midi":80,"time":18.584055,"velocity":0.3937007874015748},{"duration":0.13274325000000076,"midi":49,"time":18.584055,"velocity":0.3937007874015748},{"duration":0.13274325000000076,"midi":42,"time":18.584055,"velocity":0.3937007874015748},{"duration":0.13274325000000076,"midi":85,"time":18.584055,"velocity":0.3937007874015748},{"duration":0.13274325000000076,"midi":39,"time":18.584055,"velocity":0.3937007874015748},{"duration":0.13274325000000076,"midi":38,"time":18.584055,"velocity":0.3937007874015748},{"duration":0.39822975000000227,"midi":68,"time":18.584055,"velocity":0.3937007874015748},{"duration":0.2654865000000015,"midi":80,"time":18.71679825,"velocity":0.3937007874015748},{"duration":0.13274325000000076,"midi":85,"time":18.71679825,"velocity":0.3937007874015748},{"duration":0.2654865000000015,"midi":68,"time":18.71679825,"velocity":0.3937007874015748},{"duration":0.13274325000000076,"midi":39,"time":18.71679825,"velocity":0.3937007874015748},{"duration":0.13274325000000076,"midi":56,"time":18.71679825,"velocity":0.3937007874015748},{"duration":0.13274325000000076,"midi":46,"time":18.71679825,"velocity":0.3937007874015748},{"duration":0.13274325000000076,"midi":39,"time":18.8495415,"velocity":0.3937007874015748},{"duration":0.13274325000000076,"midi":46,"time":18.8495415,"velocity":0.3937007874015748},{"duration":0.13274325000000076,"midi":85,"time":18.8495415,"velocity":0.3937007874015748},{"duration":0.13274325000000076,"midi":80,"time":18.8495415,"velocity":0.3937007874015748},{"duration":0.2654865000000015,"midi":68,"time":18.8495415,"velocity":0.3937007874015748},{"duration":0.13274325000000076,"midi":80,"time":18.98228475,"velocity":0.3937007874015748},{"duration":0.13274325000000076,"midi":56,"time":18.98228475,"velocity":0.3937007874015748},{"duration":0.13274325000000076,"midi":39,"time":18.98228475,"velocity":0.3937007874015748},{"duration":0.13274325000000076,"midi":85,"time":18.98228475,"velocity":0.3937007874015748},{"duration":0.13274325000000076,"midi":49,"time":18.98228475,"velocity":0.3937007874015748},{"duration":0.13274325000000076,"midi":68,"time":18.98228475,"velocity":0.3937007874015748},{"duration":0.1327432499999972,"midi":46,"time":19.115028000000002,"velocity":0.3937007874015748},{"duration":2.123891999999998,"midi":73,"time":19.115028000000002,"velocity":0.3937007874015748},{"duration":2.123891999999998,"midi":66,"time":19.115028000000002,"velocity":0.3937007874015748},{"duration":2.123891999999998,"midi":77,"time":19.115028000000002,"velocity":0.3937007874015748},{"duration":2.123891999999998,"midi":70,"time":19.115028000000002,"velocity":0.3937007874015748},{"duration":0.1327432499999972,"midi":36,"time":19.115028000000002,"velocity":0.3937007874015748},{"duration":0.1327432499999972,"midi":42,"time":19.115028000000002,"velocity":0.3937007874015748},{"duration":0.13274325000000076,"midi":56,"time":19.24777125,"velocity":0.3937007874015748},{"duration":0.13274325000000076,"midi":46,"time":19.3805145,"velocity":0.3937007874015748},{"duration":0.13274325000000076,"midi":42,"time":19.3805145,"velocity":0.3937007874015748},{"duration":0.13274325000000076,"midi":42,"time":19.51325775,"velocity":0.3937007874015748},{"duration":0.13274325000000076,"midi":46,"time":19.51325775,"velocity":0.3937007874015748},{"duration":0.13274325000000076,"midi":39,"time":19.646001000000002,"velocity":0.3937007874015748},{"duration":0.13274325000000076,"midi":42,"time":19.646001000000002,"velocity":0.3937007874015748},{"duration":0.13274325000000076,"midi":36,"time":19.646001000000002,"velocity":0.3937007874015748},{"duration":0.13274325000000076,"midi":56,"time":19.646001000000002,"velocity":0.3937007874015748},{"duration":0.13274325000000076,"midi":38,"time":19.646001000000002,"velocity":0.3937007874015748},{"duration":0.1327432499999972,"midi":49,"time":19.778744250000003,"velocity":0.3937007874015748},{"duration":0.13274325000000076,"midi":48,"time":19.9114875,"velocity":0.3937007874015748},{"duration":0.13274325000000076,"midi":42,"time":19.9114875,"velocity":0.3937007874015748},{"duration":0.13274325000000076,"midi":42,"time":20.04423075,"velocity":0.3937007874015748},{"duration":0.13274325000000076,"midi":53,"time":20.04423075,"velocity":0.3937007874015748},{"duration":0.13274325000000076,"midi":42,"time":20.176974,"velocity":0.3937007874015748},{"duration":0.13274325000000076,"midi":44,"time":20.176974,"velocity":0.3937007874015748},{"duration":0.13274325000000076,"midi":56,"time":20.176974,"velocity":0.3937007874015748},{"duration":0.13274325000000076,"midi":36,"time":20.176974,"velocity":0.3937007874015748},{"duration":0.1327432499999972,"midi":46,"time":20.442460500000003,"velocity":0.3937007874015748},{"duration":0.1327432499999972,"midi":42,"time":20.442460500000003,"velocity":0.3937007874015748},{"duration":0.13274325000000076,"midi":56,"time":20.57520375,"velocity":0.3937007874015748},{"duration":0.13274325000000076,"midi":42,"time":20.57520375,"velocity":0.3937007874015748},{"duration":0.13274325000000076,"midi":36,"time":20.707947,"velocity":0.3937007874015748},{"duration":0.13274325000000076,"midi":39,"time":20.707947,"velocity":0.3937007874015748},{"duration":0.13274325000000076,"midi":38,"time":20.707947,"velocity":0.3937007874015748},{"duration":0.13274325000000076,"midi":42,"time":20.707947,"velocity":0.3937007874015748},{"duration":0.1327432499999972,"midi":41,"time":20.973433500000002,"velocity":0.3937007874015748},{"duration":0.1327432499999972,"midi":53,"time":20.973433500000002,"velocity":0.3937007874015748},{"duration":0.1327432499999972,"midi":42,"time":20.973433500000002,"velocity":0.3937007874015748},{"duration":0.13274325000000076,"midi":42,"time":21.10617675,"velocity":0.3937007874015748},{"duration":0.13274325000000076,"midi":56,"time":21.10617675,"velocity":0.3937007874015748},{"duration":0.13274325000000076,"midi":46,"time":21.10617675,"velocity":0.3937007874015748},{"duration":2.1238920000000014,"midi":75,"time":21.23892,"velocity":0.3937007874015748},{"duration":2.1238920000000014,"midi":72,"time":21.23892,"velocity":0.3937007874015748},{"duration":0.13274325000000076,"midi":42,"time":21.23892,"velocity":0.3937007874015748},{"duration":2.1238920000000014,"midi":70,"time":21.23892,"velocity":0.3937007874015748},{"duration":0.13274325000000076,"midi":36,"time":21.23892,"velocity":0.3937007874015748},{"duration":2.1238920000000014,"midi":68,"time":21.23892,"velocity":0.3937007874015748},{"duration":0.13274325000000076,"midi":56,"time":21.37166325,"velocity":0.3937007874015748},{"duration":0.13274325000000076,"midi":44,"time":21.5044065,"velocity":0.3937007874015748},{"duration":0.13274325000000076,"midi":42,"time":21.5044065,"velocity":0.3937007874015748},{"duration":0.1327432499999972,"midi":42,"time":21.637149750000003,"velocity":0.3937007874015748},{"duration":0.1327432499999972,"midi":46,"time":21.637149750000003,"velocity":0.3937007874015748},{"duration":0.13274325000000076,"midi":38,"time":21.769893,"velocity":0.3937007874015748},{"duration":0.13274325000000076,"midi":39,"time":21.769893,"velocity":0.3937007874015748},{"duration":0.13274325000000076,"midi":56,"time":21.769893,"velocity":0.3937007874015748},{"duration":0.13274325000000076,"midi":42,"time":21.769893,"velocity":0.3937007874015748},{"duration":0.13274325000000076,"midi":36,"time":21.769893,"velocity":0.3937007874015748},{"duration":0.13274325000000076,"midi":49,"time":21.90263625,"velocity":0.3937007874015748},{"duration":0.13274325000000076,"midi":48,"time":22.0353795,"velocity":0.3937007874015748},{"duration":0.13274325000000076,"midi":42,"time":22.0353795,"velocity":0.3937007874015748},{"duration":0.13274325000000076,"midi":53,"time":22.168122750000002,"velocity":0.3937007874015748},{"duration":0.13274325000000076,"midi":42,"time":22.168122750000002,"velocity":0.3937007874015748},{"duration":0.1327432499999972,"midi":36,"time":22.300866000000003,"velocity":0.3937007874015748},{"duration":0.1327432499999972,"midi":42,"time":22.300866000000003,"velocity":0.3937007874015748},{"duration":0.1327432499999972,"midi":56,"time":22.300866000000003,"velocity":0.3937007874015748},{"duration":0.13274325000000076,"midi":56,"time":22.5663525,"velocity":0.3937007874015748},{"duration":0.13274325000000076,"midi":42,"time":22.5663525,"velocity":0.3937007874015748},{"duration":0.13274325000000076,"midi":46,"time":22.5663525,"velocity":0.3937007874015748},{"duration":0.13274325000000076,"midi":42,"time":22.69909575,"velocity":0.3937007874015748},{"duration":0.13274325000000076,"midi":36,"time":22.831839000000002,"velocity":0.3937007874015748},{"duration":0.13274325000000076,"midi":38,"time":22.831839000000002,"velocity":0.3937007874015748},{"duration":0.13274325000000076,"midi":42,"time":22.831839000000002,"velocity":0.3937007874015748},{"duration":0.13274325000000076,"midi":56,"time":22.831839000000002,"velocity":0.3937007874015748},{"duration":0.13274325000000076,"midi":39,"time":22.831839000000002,"velocity":0.3937007874015748},{"duration":0.1327432499999972,"midi":58,"time":22.964582250000003,"velocity":0.3937007874015748},{"duration":0.13274325000000076,"midi":44,"time":23.0973255,"velocity":0.3937007874015748},{"duration":0.13274325000000076,"midi":46,"time":23.0973255,"velocity":0.3937007874015748},{"duration":0.13274325000000076,"midi":44,"time":23.23006875,"velocity":0.3937007874015748},{"duration":0.13274325000000076,"midi":46,"time":23.362812,"velocity":0.3937007874015748},{"duration":2.1238920000000014,"midi":73,"time":23.362812,"velocity":0.3937007874015748},{"duration":2.1238920000000014,"midi":77,"time":23.362812,"velocity":0.3937007874015748},{"duration":0.13274325000000076,"midi":42,"time":23.362812,"velocity":0.3937007874015748},{"duration":0.13274325000000076,"midi":36,"time":23.362812,"velocity":0.3937007874015748},{"duration":2.1238920000000014,"midi":70,"time":23.362812,"velocity":0.3937007874015748},{"duration":2.1238920000000014,"midi":66,"time":23.362812,"velocity":0.3937007874015748},{"duration":0.1327432499999972,"midi":56,"time":23.495555250000002,"velocity":0.3937007874015748},{"duration":0.13274325000000076,"midi":46,"time":23.6282985,"velocity":0.3937007874015748},{"duration":0.13274325000000076,"midi":42,"time":23.6282985,"velocity":0.3937007874015748},{"duration":0.13274325000000076,"midi":42,"time":23.76104175,"velocity":0.3937007874015748},{"duration":0.13274325000000076,"midi":46,"time":23.76104175,"velocity":0.3937007874015748},{"duration":0.13274325000000076,"midi":42,"time":23.893785,"velocity":0.3937007874015748},{"duration":0.13274325000000076,"midi":36,"time":23.893785,"velocity":0.3937007874015748},{"duration":0.13274325000000076,"midi":56,"time":23.893785,"velocity":0.3937007874015748},{"duration":0.13274325000000076,"midi":38,"time":23.893785,"velocity":0.3937007874015748},{"duration":0.13274325000000076,"midi":39,"time":23.893785,"velocity":0.3937007874015748},{"duration":0.13274325000000076,"midi":49,"time":24.026528250000002,"velocity":0.3937007874015748},{"duration":0.1327432499999972,"midi":42,"time":24.159271500000003,"velocity":0.3937007874015748},{"duration":0.1327432499999972,"midi":48,"time":24.159271500000003,"velocity":0.3937007874015748},{"duration":0.13274325000000076,"midi":53,"time":24.29201475,"velocity":0.3937007874015748},{"duration":0.13274325000000076,"midi":42,"time":24.29201475,"velocity":0.3937007874015748},{"duration":0.13274325000000076,"midi":42,"time":24.424758,"velocity":0.3937007874015748},{"duration":0.13274325000000076,"midi":36,"time":24.424758,"velocity":0.3937007874015748},{"duration":0.13274325000000076,"midi":44,"time":24.424758,"velocity":0.3937007874015748},{"duration":0.13274325000000076,"midi":56,"time":24.424758,"velocity":0.3937007874015748},{"duration":0.13274325000000076,"midi":46,"time":24.690244500000002,"velocity":0.3937007874015748},{"duration":0.13274325000000076,"midi":56,"time":24.690244500000002,"velocity":0.3937007874015748},{"duration":0.13274325000000076,"midi":42,"time":24.690244500000002,"velocity":0.3937007874015748},{"duration":0.1327432499999972,"midi":42,"time":24.822987750000003,"velocity":0.3937007874015748},{"duration":0.13274325000000076,"midi":39,"time":24.955731,"velocity":0.3937007874015748},{"duration":0.13274325000000076,"midi":38,"time":24.955731,"velocity":0.3937007874015748},{"duration":0.13274325000000076,"midi":42,"time":24.955731,"velocity":0.3937007874015748},{"duration":0.13274325000000076,"midi":36,"time":24.955731,"velocity":0.3937007874015748},{"duration":0.2654865000000015,"midi":68,"time":25.2212175,"velocity":0.3937007874015748},{"duration":0.2654865000000015,"midi":56,"time":25.2212175,"velocity":0.3937007874015748},{"duration":0.13274325000000076,"midi":42,"time":25.2212175,"velocity":0.3937007874015748},{"duration":0.13274325000000076,"midi":44,"time":25.2212175,"velocity":0.3937007874015748},{"duration":0.13274325000000076,"midi":51,"time":25.2212175,"velocity":0.3937007874015748},{"duration":0.13274325000000076,"midi":53,"time":25.353960750000002,"velocity":0.3937007874015748},{"duration":0.13274325000000076,"midi":42,"time":25.353960750000002,"velocity":0.3937007874015748},{"duration":0.13274325000000076,"midi":44,"time":25.353960750000002,"velocity":0.3937007874015748},{"duration":0.7964594999999974,"midi":77,"time":25.486704000000003,"velocity":0.3937007874015748},{"duration":0.1327432499999972,"midi":36,"time":25.486704000000003,"velocity":0.3937007874015748},{"duration":0.1327432499999972,"midi":39,"time":25.486704000000003,"velocity":0.3937007874015748},{"duration":0.1327432499999972,"midi":42,"time":25.486704000000003,"velocity":0.3937007874015748},{"duration":0.1327432499999972,"midi":80,"time":25.486704000000003,"velocity":0.3937007874015748},{"duration":0.7964594999999974,"midi":70,"time":25.486704000000003,"velocity":0.3937007874015748},{"duration":0.7964594999999974,"midi":73,"time":25.486704000000003,"velocity":0.3937007874015748},{"duration":0.1327432499999972,"midi":68,"time":25.486704000000003,"velocity":0.3937007874015748},{"duration":0.7964594999999974,"midi":66,"time":25.486704000000003,"velocity":0.3937007874015748},{"duration":0.13274325000000076,"midi":56,"time":25.61944725,"velocity":0.3937007874015748},{"duration":0.13274325000000076,"midi":42,"time":25.7521905,"velocity":0.3937007874015748},{"duration":0.13274325000000076,"midi":39,"time":25.7521905,"velocity":0.3937007874015748},{"duration":0.13274325000000076,"midi":44,"time":25.884933750000002,"velocity":0.3937007874015748},{"duration":0.13274325000000076,"midi":42,"time":25.884933750000002,"velocity":0.3937007874015748},{"duration":0.1327432499999972,"midi":38,"time":26.017677000000003,"velocity":0.3937007874015748},{"duration":0.1327432499999972,"midi":42,"time":26.017677000000003,"velocity":0.3937007874015748},{"duration":0.1327432499999972,"midi":56,"time":26.017677000000003,"velocity":0.3937007874015748},{"duration":0.1327432499999972,"midi":39,"time":26.017677000000003,"velocity":0.3937007874015748},{"duration":0.26548649999999796,"midi":68,"time":26.017677000000003,"velocity":0.3937007874015748},{"duration":0.1327432499999972,"midi":36,"time":26.017677000000003,"velocity":0.3937007874015748},{"duration":0.26548649999999796,"midi":80,"time":26.017677000000003,"velocity":0.3937007874015748},{"duration":0.13274325000000076,"midi":44,"time":26.15042025,"velocity":0.3937007874015748},{"duration":0.13274325000000076,"midi":46,"time":26.2831635,"velocity":0.3937007874015748},{"duration":0.13274325000000076,"midi":44,"time":26.2831635,"velocity":0.3937007874015748},{"duration":1.3274325000000005,"midi":72,"time":26.2831635,"velocity":0.3937007874015748},{"duration":0.5309729999999995,"midi":75,"time":26.2831635,"velocity":0.3937007874015748},{"duration":1.3274325000000005,"midi":70,"time":26.2831635,"velocity":0.3937007874015748},{"duration":1.3274325000000005,"midi":68,"time":26.2831635,"velocity":0.3937007874015748},{"duration":0.5309729999999995,"midi":63,"time":26.2831635,"velocity":0.3937007874015748},{"duration":1.0619460000000025,"midi":75,"time":26.2831635,"velocity":0.3937007874015748},{"duration":0.13274325000000076,"midi":53,"time":26.41590675,"velocity":0.3937007874015748},{"duration":0.13274325000000076,"midi":56,"time":26.548650000000002,"velocity":0.3937007874015748},{"duration":0.13274325000000076,"midi":36,"time":26.548650000000002,"velocity":0.3937007874015748},{"duration":0.13274325000000076,"midi":42,"time":26.548650000000002,"velocity":0.3937007874015748},{"duration":0.13274325000000076,"midi":44,"time":26.8141365,"velocity":0.3937007874015748},{"duration":0.2654865000000015,"midi":77,"time":26.8141365,"velocity":0.3937007874015748},{"duration":0.13274325000000076,"midi":56,"time":26.8141365,"velocity":0.3937007874015748},{"duration":0.2654865000000015,"midi":65,"time":26.8141365,"velocity":0.3937007874015748},{"duration":0.13274325000000076,"midi":42,"time":26.8141365,"velocity":0.3937007874015748},{"duration":0.13274325000000076,"midi":44,"time":26.94687975,"velocity":0.3937007874015748},{"duration":0.13274325000000076,"midi":42,"time":26.94687975,"velocity":0.3937007874015748},{"duration":0.13274325000000076,"midi":38,"time":27.079623,"velocity":0.3937007874015748},{"duration":0.5309729999999995,"midi":75,"time":27.079623,"velocity":0.3937007874015748},{"duration":0.13274325000000076,"midi":42,"time":27.079623,"velocity":0.3937007874015748},{"duration":0.13274325000000076,"midi":39,"time":27.079623,"velocity":0.3937007874015748},{"duration":0.2654865000000015,"midi":63,"time":27.079623,"velocity":0.3937007874015748},{"duration":0.13274325000000076,"midi":36,"time":27.079623,"velocity":0.3937007874015748},{"duration":0.13274325000000076,"midi":56,"time":27.212366250000002,"velocity":0.3937007874015748},{"duration":0.13274325000000076,"midi":44,"time":27.212366250000002,"velocity":0.3937007874015748},{"duration":0.13274325000000076,"midi":39,"time":27.212366250000002,"velocity":0.3937007874015748},{"duration":0.1327432499999972,"midi":73,"time":27.345109500000003,"velocity":0.3937007874015748},{"duration":0.1327432499999972,"midi":39,"time":27.345109500000003,"velocity":0.3937007874015748},{"duration":0.1327432499999972,"midi":61,"time":27.345109500000003,"velocity":0.3937007874015748},{"duration":0.1327432499999972,"midi":46,"time":27.345109500000003,"velocity":0.3937007874015748},{"duration":0.1327432499999972,"midi":46,"time":27.345109500000003,"velocity":0.3937007874015748},{"duration":0.13274325000000076,"midi":46,"time":27.47785275,"velocity":0.3937007874015748},{"duration":0.13274325000000076,"midi":39,"time":27.47785275,"velocity":0.3937007874015748},{"duration":0.13274325000000076,"midi":56,"time":27.47785275,"velocity":0.3937007874015748},{"duration":0.13274325000000076,"midi":36,"time":27.610596,"velocity":0.3937007874015748},{"duration":2.1238920000000014,"midi":70,"time":27.610596,"velocity":0.3937007874015748},{"duration":0.13274325000000076,"midi":46,"time":27.610596,"velocity":0.3937007874015748},{"duration":2.1238920000000014,"midi":73,"time":27.610596,"velocity":0.3937007874015748},{"duration":2.1238920000000014,"midi":66,"time":27.610596,"velocity":0.3937007874015748},{"duration":2.1238920000000014,"midi":77,"time":27.610596,"velocity":0.3937007874015748},{"duration":0.13274325000000076,"midi":42,"time":27.610596,"velocity":0.3937007874015748},{"duration":0.13274325000000076,"midi":56,"time":27.743339250000002,"velocity":0.3937007874015748},{"duration":0.1327432499999972,"midi":46,"time":27.876082500000003,"velocity":0.3937007874015748},{"duration":0.1327432499999972,"midi":42,"time":27.876082500000003,"velocity":0.3937007874015748},{"duration":0.13274325000000076,"midi":46,"time":28.00882575,"velocity":0.3937007874015748},{"duration":0.13274325000000076,"midi":42,"time":28.00882575,"velocity":0.3937007874015748},{"duration":0.13274325000000076,"midi":39,"time":28.141569,"velocity":0.3937007874015748},{"duration":0.13274325000000076,"midi":42,"time":28.141569,"velocity":0.3937007874015748},{"duration":0.13274325000000076,"midi":38,"time":28.141569,"velocity":0.3937007874015748},{"duration":0.13274325000000076,"midi":56,"time":28.141569,"velocity":0.3937007874015748},{"duration":0.13274325000000076,"midi":36,"time":28.141569,"velocity":0.3937007874015748},{"duration":0.13274325000000076,"midi":49,"time":28.27431225,"velocity":0.3937007874015748},{"duration":0.13274325000000076,"midi":42,"time":28.407055500000002,"velocity":0.3937007874015748},{"duration":0.13274325000000076,"midi":48,"time":28.407055500000002,"velocity":0.3937007874015748},{"duration":0.1327432499999972,"midi":53,"time":28.539798750000003,"velocity":0.3937007874015748},{"duration":0.1327432499999972,"midi":42,"time":28.539798750000003,"velocity":0.3937007874015748},{"duration":0.13274325000000076,"midi":56,"time":28.672542,"velocity":0.3937007874015748},{"duration":0.13274325000000076,"midi":36,"time":28.672542,"velocity":0.3937007874015748},{"duration":0.13274325000000076,"midi":44,"time":28.672542,"velocity":0.3937007874015748},{"duration":0.13274325000000076,"midi":42,"time":28.672542,"velocity":0.3937007874015748},{"duration":0.13274325000000076,"midi":46,"time":28.9380285,"velocity":0.3937007874015748},{"duration":0.13274325000000076,"midi":42,"time":28.9380285,"velocity":0.3937007874015748},{"duration":0.13274325000000076,"midi":56,"time":29.070771750000002,"velocity":0.3937007874015748},{"duration":0.13274325000000076,"midi":42,"time":29.070771750000002,"velocity":0.3937007874015748},{"duration":0.1327432499999972,"midi":42,"time":29.203515000000003,"velocity":0.3937007874015748},{"duration":0.1327432499999972,"midi":36,"time":29.203515000000003,"velocity":0.3937007874015748},{"duration":0.1327432499999972,"midi":39,"time":29.203515000000003,"velocity":0.3937007874015748},{"duration":0.1327432499999972,"midi":38,"time":29.203515000000003,"velocity":0.3937007874015748},{"duration":0.13274325000000076,"midi":42,"time":29.4690015,"velocity":0.3937007874015748},{"duration":0.13274325000000076,"midi":53,"time":29.4690015,"velocity":0.3937007874015748},{"duration":0.13274325000000076,"midi":41,"time":29.4690015,"velocity":0.3937007874015748},{"duration":0.13274325000000076,"midi":56,"time":29.60174475,"velocity":0.3937007874015748},{"duration":0.13274325000000076,"midi":42,"time":29.60174475,"velocity":0.3937007874015748},{"duration":0.13274325000000076,"midi":46,"time":29.60174475,"velocity":0.3937007874015748},{"duration":0.13274325000000076,"midi":36,"time":29.734488000000002,"velocity":0.3937007874015748},{"duration":2.123891999999998,"midi":75,"time":29.734488000000002,"velocity":0.3937007874015748},{"duration":2.123891999999998,"midi":70,"time":29.734488000000002,"velocity":0.3937007874015748},{"duration":2.123891999999998,"midi":72,"time":29.734488000000002,"velocity":0.3937007874015748},{"duration":0.13274325000000076,"midi":42,"time":29.734488000000002,"velocity":0.3937007874015748},{"duration":2.123891999999998,"midi":68,"time":29.734488000000002,"velocity":0.3937007874015748},{"duration":0.1327432499999972,"midi":56,"time":29.867231250000003,"velocity":0.3937007874015748},{"duration":0.13274325000000076,"midi":42,"time":29.9999745,"velocity":0.3937007874015748},{"duration":0.13274325000000076,"midi":44,"time":29.9999745,"velocity":0.3937007874015748},{"duration":0.13274325000000076,"midi":46,"time":30.13271775,"velocity":0.3937007874015748},{"duration":0.13274325000000076,"midi":42,"time":30.13271775,"velocity":0.3937007874015748},{"duration":0.13274325000000076,"midi":39,"time":30.265461000000002,"velocity":0.3937007874015748},{"duration":0.13274325000000076,"midi":42,"time":30.265461000000002,"velocity":0.3937007874015748},{"duration":0.13274325000000076,"midi":38,"time":30.265461000000002,"velocity":0.3937007874015748},{"duration":0.13274325000000076,"midi":36,"time":30.265461000000002,"velocity":0.3937007874015748},{"duration":0.13274325000000076,"midi":56,"time":30.265461000000002,"velocity":0.3937007874015748},{"duration":0.1327432499999972,"midi":49,"time":30.398204250000003,"velocity":0.3937007874015748},{"duration":0.13274325000000076,"midi":48,"time":30.5309475,"velocity":0.3937007874015748},{"duration":0.13274325000000076,"midi":42,"time":30.5309475,"velocity":0.3937007874015748},{"duration":0.13274325000000076,"midi":42,"time":30.66369075,"velocity":0.3937007874015748},{"duration":0.13274325000000076,"midi":53,"time":30.66369075,"velocity":0.3937007874015748},{"duration":0.13274325000000076,"midi":56,"time":30.796434,"velocity":0.3937007874015748},{"duration":0.13274325000000076,"midi":36,"time":30.796434,"velocity":0.3937007874015748},{"duration":0.13274325000000076,"midi":42,"time":30.796434,"velocity":0.3937007874015748},{"duration":0.1327432499999972,"midi":56,"time":31.061920500000003,"velocity":0.3937007874015748},{"duration":0.1327432499999972,"midi":46,"time":31.061920500000003,"velocity":0.3937007874015748},{"duration":0.1327432499999972,"midi":42,"time":31.061920500000003,"velocity":0.3937007874015748},{"duration":0.13274325000000076,"midi":42,"time":31.19466375,"velocity":0.3937007874015748},{"duration":0.13274325000000076,"midi":39,"time":31.327407,"velocity":0.3937007874015748},{"duration":0.13274325000000076,"midi":38,"time":31.327407,"velocity":0.3937007874015748},{"duration":0.13274325000000076,"midi":36,"time":31.327407,"velocity":0.3937007874015748},{"duration":0.13274325000000076,"midi":42,"time":31.327407,"velocity":0.3937007874015748},{"duration":0.13274325000000076,"midi":56,"time":31.327407,"velocity":0.3937007874015748},{"duration":0.13274325000000076,"midi":58,"time":31.46015025,"velocity":0.3937007874015748},{"duration":0.13274325000000076,"midi":46,"time":31.592893500000002,"velocity":0.3937007874015748},{"duration":0.13274325000000076,"midi":44,"time":31.592893500000002,"velocity":0.3937007874015748},{"duration":0.1327432499999972,"midi":44,"time":31.725636750000003,"velocity":0.3937007874015748},{"duration":0.13274325000000076,"midi":42,"time":31.85838,"velocity":0.3937007874015748},{"duration":0.13274325000000076,"midi":36,"time":31.85838,"velocity":0.3937007874015748},{"duration":0.13274325000000076,"midi":46,"time":31.85838,"velocity":0.3937007874015748},{"duration":2.1238920000000014,"midi":77,"time":31.85838,"velocity":0.3937007874015748},{"duration":2.1238920000000014,"midi":66,"time":31.85838,"velocity":0.3937007874015748},{"duration":2.1238920000000014,"midi":73,"time":31.85838,"velocity":0.3937007874015748},{"duration":2.1238920000000014,"midi":80,"time":31.85838,"velocity":0.3937007874015748},{"duration":2.1238920000000014,"midi":70,"time":31.85838,"velocity":0.3937007874015748},{"duration":2.1238920000000014,"midi":68,"time":31.85838,"velocity":0.3937007874015748},{"duration":0.1327432499999972,"midi":56,"time":31.99112325,"velocity":0.3937007874015748},{"duration":0.1327432500000043,"midi":42,"time":32.1238665,"velocity":0.3937007874015748},{"duration":0.1327432500000043,"midi":46,"time":32.1238665,"velocity":0.3937007874015748},{"duration":0.1327432499999972,"midi":42,"time":32.25660975,"velocity":0.3937007874015748},{"duration":0.1327432499999972,"midi":46,"time":32.25660975,"velocity":0.3937007874015748},{"duration":0.1327432500000043,"midi":36,"time":32.389353,"velocity":0.3937007874015748},{"duration":0.1327432500000043,"midi":56,"time":32.389353,"velocity":0.3937007874015748},{"duration":0.1327432500000043,"midi":38,"time":32.389353,"velocity":0.3937007874015748},{"duration":0.1327432500000043,"midi":42,"time":32.389353,"velocity":0.3937007874015748},{"duration":0.1327432500000043,"midi":39,"time":32.389353,"velocity":0.3937007874015748},{"duration":0.1327432499999972,"midi":49,"time":32.522096250000004,"velocity":0.3937007874015748},{"duration":0.1327432499999972,"midi":48,"time":32.6548395,"velocity":0.3937007874015748},{"duration":0.1327432499999972,"midi":42,"time":32.6548395,"velocity":0.3937007874015748},{"duration":0.1327432500000043,"midi":42,"time":32.78758275,"velocity":0.3937007874015748},{"duration":0.1327432500000043,"midi":53,"time":32.78758275,"velocity":0.3937007874015748},{"duration":0.1327432499999972,"midi":36,"time":32.920326,"velocity":0.3937007874015748},{"duration":0.1327432499999972,"midi":56,"time":32.920326,"velocity":0.3937007874015748},{"duration":0.1327432499999972,"midi":44,"time":32.920326,"velocity":0.3937007874015748},{"duration":0.1327432499999972,"midi":42,"time":32.920326,"velocity":0.3937007874015748},{"duration":0.1327432499999972,"midi":42,"time":33.185812500000004,"velocity":0.3937007874015748},{"duration":0.1327432499999972,"midi":46,"time":33.185812500000004,"velocity":0.3937007874015748},{"duration":0.1327432499999972,"midi":56,"time":33.185812500000004,"velocity":0.3937007874015748},{"duration":0.1327432499999972,"midi":42,"time":33.31855575,"velocity":0.3937007874015748},{"duration":0.1327432500000043,"midi":38,"time":33.451299,"velocity":0.3937007874015748},{"duration":0.1327432500000043,"midi":39,"time":33.451299,"velocity":0.3937007874015748},{"duration":0.1327432500000043,"midi":42,"time":33.451299,"velocity":0.3937007874015748},{"duration":0.1327432500000043,"midi":36,"time":33.451299,"velocity":0.3937007874015748},{"duration":0.1327432500000043,"midi":51,"time":33.7167855,"velocity":0.3937007874015748},{"duration":0.1327432500000043,"midi":44,"time":33.7167855,"velocity":0.3937007874015748},{"duration":0.1327432500000043,"midi":42,"time":33.7167855,"velocity":0.3937007874015748},{"duration":0.1327432499999972,"midi":53,"time":33.849528750000005,"velocity":0.3937007874015748},{"duration":0.1327432499999972,"midi":44,"time":33.849528750000005,"velocity":0.3937007874015748},{"duration":0.1327432499999972,"midi":42,"time":33.849528750000005,"velocity":0.3937007874015748},{"duration":0.3982297499999987,"midi":77,"time":33.982272,"velocity":0.3937007874015748},{"duration":0.1327432499999972,"midi":36,"time":33.982272,"velocity":0.3937007874015748},{"duration":0.7964594999999974,"midi":66,"time":33.982272,"velocity":0.3937007874015748},{"duration":0.1327432499999972,"midi":39,"time":33.982272,"velocity":0.3937007874015748},{"duration":0.1327432499999972,"midi":42,"time":33.982272,"velocity":0.3937007874015748},{"duration":0.7964594999999974,"midi":70,"time":33.982272,"velocity":0.3937007874015748},{"duration":0.7964594999999974,"midi":73,"time":33.982272,"velocity":0.3937007874015748},{"duration":0.1327432500000043,"midi":56,"time":34.11501525,"velocity":0.3937007874015748},{"duration":0.1327432499999972,"midi":39,"time":34.2477585,"velocity":0.3937007874015748},{"duration":0.1327432499999972,"midi":65,"time":34.2477585,"velocity":0.3937007874015748},{"duration":0.5309729999999959,"midi":77,"time":34.2477585,"velocity":0.3937007874015748},{"duration":0.1327432499999972,"midi":42,"time":34.2477585,"velocity":0.3937007874015748},{"duration":0.1327432500000043,"midi":42,"time":34.38050175,"velocity":0.3937007874015748},{"duration":0.1327432500000043,"midi":44,"time":34.38050175,"velocity":0.3937007874015748},{"duration":0.1327432499999972,"midi":42,"time":34.513245000000005,"velocity":0.3937007874015748},{"duration":0.1327432499999972,"midi":39,"time":34.513245000000005,"velocity":0.3937007874015748},{"duration":0.1327432499999972,"midi":36,"time":34.513245000000005,"velocity":0.3937007874015748},{"duration":0.1327432499999972,"midi":38,"time":34.513245000000005,"velocity":0.3937007874015748},{"duration":0.1327432499999972,"midi":56,"time":34.513245000000005,"velocity":0.3937007874015748},{"duration":0.1327432499999972,"midi":44,"time":34.64598825,"velocity":0.3937007874015748},{"duration":0.2654865000000015,"midi":63,"time":34.7787315,"velocity":0.3937007874015748},{"duration":0.1327432500000043,"midi":44,"time":34.7787315,"velocity":0.3937007874015748},{"duration":1.3274325000000005,"midi":68,"time":34.7787315,"velocity":0.3937007874015748},{"duration":1.3274325000000005,"midi":70,"time":34.7787315,"velocity":0.3937007874015748},{"duration":0.1327432500000043,"midi":75,"time":34.7787315,"velocity":0.3937007874015748},{"duration":0.1327432500000043,"midi":46,"time":34.7787315,"velocity":0.3937007874015748},{"duration":1.3274325000000005,"midi":75,"time":34.7787315,"velocity":0.3937007874015748},{"duration":1.3274325000000005,"midi":72,"time":34.7787315,"velocity":0.3937007874015748},{"duration":0.1327432499999972,"midi":53,"time":34.911474750000004,"velocity":0.3937007874015748},{"duration":0.1327432500000043,"midi":56,"time":35.044218,"velocity":0.3937007874015748},{"duration":0.1327432500000043,"midi":42,"time":35.044218,"velocity":0.3937007874015748},{"duration":0.1327432500000043,"midi":36,"time":35.044218,"velocity":0.3937007874015748},{"duration":0.1327432499999972,"midi":61,"time":35.3097045,"velocity":0.3937007874015748},{"duration":0.1327432499999972,"midi":56,"time":35.3097045,"velocity":0.3937007874015748},{"duration":0.1327432499999972,"midi":73,"time":35.3097045,"velocity":0.3937007874015748},{"duration":0.1327432499999972,"midi":44,"time":35.3097045,"velocity":0.3937007874015748},{"duration":0.1327432499999972,"midi":42,"time":35.3097045,"velocity":0.3937007874015748},{"duration":0.1327432500000043,"midi":42,"time":35.44244775,"velocity":0.3937007874015748},{"duration":0.1327432500000043,"midi":44,"time":35.44244775,"velocity":0.3937007874015748},{"duration":0.1327432499999972,"midi":36,"time":35.575191000000004,"velocity":0.3937007874015748},{"duration":0.1327432499999972,"midi":38,"time":35.575191000000004,"velocity":0.3937007874015748},{"duration":0.1327432499999972,"midi":42,"time":35.575191000000004,"velocity":0.3937007874015748},{"duration":0.1327432499999972,"midi":39,"time":35.575191000000004,"velocity":0.3937007874015748},{"duration":0.1327432500000043,"midi":56,"time":35.70793425,"velocity":0.3937007874015748},{"duration":0.1327432500000043,"midi":39,"time":35.70793425,"velocity":0.3937007874015748},{"duration":0.1327432500000043,"midi":44,"time":35.70793425,"velocity":0.3937007874015748},{"duration":0.1327432499999972,"midi":46,"time":35.840677500000005,"velocity":0.3937007874015748},{"duration":1.8584054999999964,"midi":58,"time":35.840677500000005,"velocity":0.3937007874015748},{"duration":0.1327432499999972,"midi":39,"time":35.840677500000005,"velocity":0.3937007874015748},{"duration":1.8584054999999964,"midi":70,"time":35.840677500000005,"velocity":0.3937007874015748},{"duration":0.1327432499999972,"midi":46,"time":35.840677500000005,"velocity":0.3937007874015748},{"duration":0.1327432499999972,"midi":56,"time":35.97342075,"velocity":0.3937007874015748},{"duration":0.1327432499999972,"midi":46,"time":35.97342075,"velocity":0.3937007874015748},{"duration":0.1327432499999972,"midi":39,"time":35.97342075,"velocity":0.3937007874015748},{"duration":1.592919000000002,"midi":70,"time":36.106164,"velocity":0.3937007874015748},{"duration":1.592919000000002,"midi":73,"time":36.106164,"velocity":0.3937007874015748},{"duration":0.1327432500000043,"midi":46,"time":36.106164,"velocity":0.3937007874015748},{"duration":1.8584055000000035,"midi":73,"time":36.106164,"velocity":0.3937007874015748},{"duration":0.1327432500000043,"midi":36,"time":36.106164,"velocity":0.3937007874015748},{"duration":1.8584055000000035,"midi":70,"time":36.106164,"velocity":0.3937007874015748},{"duration":1.592919000000002,"midi":63,"time":36.106164,"velocity":0.3937007874015748},{"duration":0.1327432500000043,"midi":46,"time":36.106164,"velocity":0.3937007874015748},{"duration":1.592919000000002,"midi":61,"time":36.106164,"velocity":0.3937007874015748},{"duration":1.592919000000002,"midi":66,"time":36.106164,"velocity":0.3937007874015748},{"duration":1.8584055000000035,"midi":66,"time":36.106164,"velocity":0.3937007874015748},{"duration":0.1327432499999972,"midi":56,"time":36.238907250000004,"velocity":0.3937007874015748},{"duration":0.1327432499999972,"midi":46,"time":36.3716505,"velocity":0.3937007874015748},{"duration":0.1327432499999972,"midi":42,"time":36.3716505,"velocity":0.3937007874015748},{"duration":0.1327432500000043,"midi":49,"time":36.50439375,"velocity":0.3937007874015748},{"duration":0.1327432500000043,"midi":42,"time":36.50439375,"velocity":0.3937007874015748},{"duration":0.1327432499999972,"midi":38,"time":36.637137,"velocity":0.3937007874015748},{"duration":0.1327432499999972,"midi":42,"time":36.637137,"velocity":0.3937007874015748},{"duration":0.1327432499999972,"midi":56,"time":36.637137,"velocity":0.3937007874015748},{"duration":0.1327432499999972,"midi":36,"time":36.637137,"velocity":0.3937007874015748},{"duration":0.1327432500000043,"midi":49,"time":36.76988025,"velocity":0.3937007874015748},{"duration":0.1327432499999972,"midi":48,"time":36.902623500000004,"velocity":0.3937007874015748},{"duration":0.1327432499999972,"midi":42,"time":36.902623500000004,"velocity":0.3937007874015748},{"duration":0.1327432499999972,"midi":53,"time":37.03536675,"velocity":0.3937007874015748},{"duration":0.1327432499999972,"midi":42,"time":37.03536675,"velocity":0.3937007874015748},{"duration":0.1327432500000043,"midi":56,"time":37.16811,"velocity":0.3937007874015748},{"duration":0.1327432500000043,"midi":42,"time":37.16811,"velocity":0.3937007874015748},{"duration":0.1327432500000043,"midi":44,"time":37.16811,"velocity":0.3937007874015748},{"duration":0.1327432500000043,"midi":36,"time":37.16811,"velocity":0.3937007874015748},{"duration":0.1327432500000043,"midi":42,"time":37.4335965,"velocity":0.3937007874015748},{"duration":0.1327432500000043,"midi":46,"time":37.4335965,"velocity":0.3937007874015748},{"duration":0.1327432499999972,"midi":42,"time":37.566339750000004,"velocity":0.3937007874015748},{"duration":0.1327432499999972,"midi":56,"time":37.566339750000004,"velocity":0.3937007874015748},{"duration":0.1327432499999972,"midi":36,"time":37.699083,"velocity":0.3937007874015748},{"duration":0.1327432499999972,"midi":38,"time":37.699083,"velocity":0.3937007874015748},{"duration":0.1327432499999972,"midi":42,"time":37.699083,"velocity":0.3937007874015748},{"duration":1.9911487500000007,"midi":68,"time":37.9645695,"velocity":0.3937007874015748},{"duration":1.9911487500000007,"midi":65,"time":37.9645695,"velocity":0.3937007874015748},{"duration":0.1327432499999972,"midi":42,"time":37.9645695,"velocity":0.3937007874015748},{"duration":2.3893784999999994,"midi":65,"time":37.9645695,"velocity":0.3937007874015748},{"duration":1.9911487500000007,"midi":72,"time":37.9645695,"velocity":0.3937007874015748},{"duration":2.3893784999999994,"midi":72,"time":37.9645695,"velocity":0.3937007874015748},{"duration":2.3893784999999994,"midi":68,"time":37.9645695,"velocity":0.3937007874015748},{"duration":1.9911487500000007,"midi":75,"time":37.9645695,"velocity":0.3937007874015748},{"duration":1.9911487500000007,"midi":63,"time":37.9645695,"velocity":0.3937007874015748},{"duration":2.3893784999999994,"midi":75,"time":37.9645695,"velocity":0.3937007874015748},{"duration":0.1327432499999972,"midi":53,"time":37.9645695,"velocity":0.3937007874015748},{"duration":0.1327432500000043,"midi":56,"time":38.09731275,"velocity":0.3937007874015748},{"duration":0.1327432500000043,"midi":42,"time":38.09731275,"velocity":0.3937007874015748},{"duration":0.1327432500000043,"midi":44,"time":38.09731275,"velocity":0.3937007874015748},{"duration":0.1327432499999972,"midi":46,"time":38.230056000000005,"velocity":0.3937007874015748},{"duration":0.1327432499999972,"midi":42,"time":38.230056000000005,"velocity":0.3937007874015748},{"duration":0.1327432499999972,"midi":36,"time":38.230056000000005,"velocity":0.3937007874015748},{"duration":0.1327432499999972,"midi":56,"time":38.36279925,"velocity":0.3937007874015748},{"duration":0.1327432500000043,"midi":42,"time":38.4955425,"velocity":0.3937007874015748},{"duration":0.1327432500000043,"midi":46,"time":38.4955425,"velocity":0.3937007874015748},{"duration":0.1327432499999972,"midi":42,"time":38.62828575,"velocity":0.3937007874015748},{"duration":0.1327432499999972,"midi":49,"time":38.62828575,"velocity":0.3937007874015748},{"duration":0.1327432500000043,"midi":36,"time":38.761029,"velocity":0.3937007874015748},{"duration":0.1327432500000043,"midi":38,"time":38.761029,"velocity":0.3937007874015748},{"duration":0.1327432500000043,"midi":42,"time":38.761029,"velocity":0.3937007874015748},{"duration":0.1327432500000043,"midi":56,"time":38.761029,"velocity":0.3937007874015748},{"duration":0.1327432499999972,"midi":49,"time":38.893772250000005,"velocity":0.3937007874015748},{"duration":0.1327432499999972,"midi":48,"time":39.0265155,"velocity":0.3937007874015748},{"duration":0.1327432499999972,"midi":42,"time":39.0265155,"velocity":0.3937007874015748},{"duration":0.1327432500000043,"midi":42,"time":39.15925875,"velocity":0.3937007874015748},{"duration":0.1327432500000043,"midi":53,"time":39.15925875,"velocity":0.3937007874015748},{"duration":0.1327432499999972,"midi":42,"time":39.292002000000004,"velocity":0.3937007874015748},{"duration":0.1327432499999972,"midi":36,"time":39.292002000000004,"velocity":0.3937007874015748},{"duration":0.1327432499999972,"midi":44,"time":39.292002000000004,"velocity":0.3937007874015748},{"duration":0.1327432499999972,"midi":56,"time":39.292002000000004,"velocity":0.3937007874015748},{"duration":0.1327432499999972,"midi":56,"time":39.557488500000005,"velocity":0.3937007874015748},{"duration":0.1327432499999972,"midi":42,"time":39.557488500000005,"velocity":0.3937007874015748},{"duration":0.1327432499999972,"midi":46,"time":39.557488500000005,"velocity":0.3937007874015748},{"duration":0.1327432499999972,"midi":42,"time":39.69023175,"velocity":0.3937007874015748},{"duration":0.1327432500000043,"midi":38,"time":39.822975,"velocity":0.3937007874015748},{"duration":0.1327432500000043,"midi":56,"time":39.822975,"velocity":0.3937007874015748},{"duration":0.1327432500000043,"midi":42,"time":39.822975,"velocity":0.3937007874015748},{"duration":0.1327432500000043,"midi":36,"time":39.822975,"velocity":0.3937007874015748},{"duration":0.1327432499999972,"midi":58,"time":39.955718250000004,"velocity":0.3937007874015748},{"duration":2.123891999999998,"midi":68,"time":40.0884615,"velocity":0.3937007874015748},{"duration":2.256635250000002,"midi":66,"time":40.0884615,"velocity":0.3937007874015748},{"duration":2.123891999999998,"midi":73,"time":40.0884615,"velocity":0.3937007874015748},{"duration":2.123891999999998,"midi":70,"time":40.0884615,"velocity":0.3937007874015748},{"duration":2.123891999999998,"midi":77,"time":40.0884615,"velocity":0.3937007874015748},{"duration":0.1327432500000043,"midi":46,"time":40.0884615,"velocity":0.3937007874015748},{"duration":0.1327432500000043,"midi":44,"time":40.0884615,"velocity":0.3937007874015748},{"duration":0.1327432499999972,"midi":44,"time":40.221204750000005,"velocity":0.3937007874015748},{"duration":0.1327432499999972,"midi":46,"time":40.353948,"velocity":0.3937007874015748},{"duration":0.1327432499999972,"midi":42,"time":40.353948,"velocity":0.3937007874015748},{"duration":0.1327432499999972,"midi":36,"time":40.353948,"velocity":0.3937007874015748},{"duration":2.123891999999998,"midi":73,"time":40.353948,"velocity":0.3937007874015748},{"duration":2.123891999999998,"midi":70,"time":40.353948,"velocity":0.3937007874015748},{"duration":2.123891999999998,"midi":66,"time":40.353948,"velocity":0.3937007874015748},{"duration":0.1327432500000043,"midi":56,"time":40.48669125,"velocity":0.3937007874015748},{"duration":0.1327432499999972,"midi":42,"time":40.619434500000004,"velocity":0.3937007874015748},{"duration":0.1327432499999972,"midi":46,"time":40.619434500000004,"velocity":0.3937007874015748},{"duration":0.1327432500000043,"midi":42,"time":40.75217775,"velocity":0.3937007874015748},{"duration":0.1327432500000043,"midi":49,"time":40.75217775,"velocity":0.3937007874015748},{"duration":0.1327432499999972,"midi":56,"time":40.884921000000006,"velocity":0.3937007874015748},{"duration":0.1327432499999972,"midi":38,"time":40.884921000000006,"velocity":0.3937007874015748},{"duration":0.1327432499999972,"midi":42,"time":40.884921000000006,"velocity":0.3937007874015748},{"duration":0.1327432499999972,"midi":36,"time":40.884921000000006,"velocity":0.3937007874015748},{"duration":0.1327432499999972,"midi":49,"time":41.01766425,"velocity":0.3937007874015748},{"duration":0.1327432500000043,"midi":42,"time":41.1504075,"velocity":0.3937007874015748},{"duration":0.1327432500000043,"midi":48,"time":41.1504075,"velocity":0.3937007874015748},{"duration":0.1327432499999972,"midi":42,"time":41.283150750000004,"velocity":0.3937007874015748},{"duration":0.1327432499999972,"midi":53,"time":41.283150750000004,"velocity":0.3937007874015748},{"duration":0.1327432499999972,"midi":36,"time":41.415894,"velocity":0.3937007874015748},{"duration":0.1327432499999972,"midi":56,"time":41.415894,"velocity":0.3937007874015748},{"duration":0.1327432499999972,"midi":44,"time":41.415894,"velocity":0.3937007874015748},{"duration":0.1327432499999972,"midi":42,"time":41.415894,"velocity":0.3937007874015748},{"duration":0.1327432499999972,"midi":46,"time":41.6813805,"velocity":0.3937007874015748},{"duration":0.1327432499999972,"midi":42,"time":41.6813805,"velocity":0.3937007874015748},{"duration":0.1327432499999972,"midi":56,"time":41.6813805,"velocity":0.3937007874015748},{"duration":0.1327432500000043,"midi":42,"time":41.81412375,"velocity":0.3937007874015748},{"duration":0.1327432499999972,"midi":38,"time":41.946867000000005,"velocity":0.3937007874015748},{"duration":0.1327432499999972,"midi":36,"time":41.946867000000005,"velocity":0.3937007874015748},{"duration":0.1327432499999972,"midi":42,"time":41.946867000000005,"velocity":0.3937007874015748},{"duration":0.1327432500000043,"midi":51,"time":42.2123535,"velocity":0.3937007874015748},{"duration":0.1327432500000043,"midi":42,"time":42.2123535,"velocity":0.3937007874015748},{"duration":0.1327432499999972,"midi":42,"time":42.34509675,"velocity":0.3937007874015748},{"duration":0.1327432499999972,"midi":44,"time":42.34509675,"velocity":0.3937007874015748},{"duration":0.1327432499999972,"midi":53,"time":42.34509675,"velocity":0.3937007874015748},{"duration":0.7964595000000045,"midi":77,"time":42.47784,"velocity":0.3937007874015748},{"duration":0.1327432500000043,"midi":70,"time":42.47784,"velocity":0.3937007874015748},{"duration":0.1327432500000043,"midi":66,"time":42.47784,"velocity":0.3937007874015748},{"duration":0.1327432500000043,"midi":63,"time":42.47784,"velocity":0.3937007874015748},{"duration":0.1327432500000043,"midi":73,"time":42.47784,"velocity":0.3937007874015748},{"duration":0.1327432500000043,"midi":36,"time":42.47784,"velocity":0.3937007874015748},{"duration":0.530973000000003,"midi":66,"time":42.47784,"velocity":0.3937007874015748},{"duration":0.530973000000003,"midi":70,"time":42.47784,"velocity":0.3937007874015748},{"duration":0.530973000000003,"midi":73,"time":42.47784,"velocity":0.3937007874015748},{"duration":0.1327432500000043,"midi":42,"time":42.47784,"velocity":0.3937007874015748},{"duration":0.1327432500000043,"midi":46,"time":42.47784,"velocity":0.3937007874015748},{"duration":0.1327432499999972,"midi":56,"time":42.610583250000005,"velocity":0.3937007874015748},{"duration":0.1327432499999972,"midi":42,"time":42.7433265,"velocity":0.3937007874015748},{"duration":0.1327432499999972,"midi":46,"time":42.7433265,"velocity":0.3937007874015748},{"duration":0.1327432499999972,"midi":38,"time":42.7433265,"velocity":0.3937007874015748},{"duration":0.3982297500000058,"midi":66,"time":42.87606975,"velocity":0.3937007874015748},{"duration":0.1327432500000043,"midi":49,"time":42.87606975,"velocity":0.3937007874015748},{"duration":0.1327432500000043,"midi":63,"time":42.87606975,"velocity":0.3937007874015748},{"duration":0.3982297500000058,"midi":70,"time":42.87606975,"velocity":0.3937007874015748},{"duration":0.3982297500000058,"midi":73,"time":42.87606975,"velocity":0.3937007874015748},{"duration":0.1327432500000043,"midi":42,"time":42.87606975,"velocity":0.3937007874015748},{"duration":0.1327432499999972,"midi":42,"time":43.008813,"velocity":0.3937007874015748},{"duration":0.1327432499999972,"midi":56,"time":43.008813,"velocity":0.3937007874015748},{"duration":0.1327432499999972,"midi":36,"time":43.008813,"velocity":0.3937007874015748},{"duration":0.1327432500000043,"midi":49,"time":43.14155625,"velocity":0.3937007874015748},{"duration":0.1327432500000043,"midi":38,"time":43.14155625,"velocity":0.3937007874015748},{"duration":0.6637162500000002,"midi":72,"time":43.274299500000005,"velocity":0.3937007874015748},{"duration":0.6637162500000002,"midi":75,"time":43.274299500000005,"velocity":0.3937007874015748},{"duration":0.5309729999999959,"midi":68,"time":43.274299500000005,"velocity":0.3937007874015748},{"duration":0.6637162500000002,"midi":68,"time":43.274299500000005,"velocity":0.3937007874015748},{"duration":0.6637162500000002,"midi":68,"time":43.274299500000005,"velocity":0.3937007874015748},{"duration":0.1327432499999972,"midi":46,"time":43.274299500000005,"velocity":0.3937007874015748},{"duration":1.3274325000000005,"midi":72,"time":43.274299500000005,"velocity":0.3937007874015748},{"duration":1.3274325000000005,"midi":75,"time":43.274299500000005,"velocity":0.3937007874015748},{"duration":0.3982297499999987,"midi":56,"time":43.274299500000005,"velocity":0.3937007874015748},{"duration":0.6637162500000002,"midi":65,"time":43.274299500000005,"velocity":0.3937007874015748},{"duration":0.1327432499999972,"midi":48,"time":43.274299500000005,"velocity":0.3937007874015748},{"duration":1.3274325000000005,"midi":65,"time":43.274299500000005,"velocity":0.3937007874015748},{"duration":0.1327432499999972,"midi":53,"time":43.40704275,"velocity":0.3937007874015748},{"duration":0.1327432500000043,"midi":42,"time":43.539786,"velocity":0.3937007874015748},{"duration":0.1327432500000043,"midi":36,"time":43.539786,"velocity":0.3937007874015748},{"duration":0.1327432500000043,"midi":38,"time":43.539786,"velocity":0.3937007874015748},{"duration":0.2654865000000015,"midi":56,"time":43.539786,"velocity":0.3937007874015748},{"duration":0.1327432500000043,"midi":44,"time":43.539786,"velocity":0.3937007874015748},{"duration":0.1327432500000043,"midi":56,"time":43.8052725,"velocity":0.3937007874015748},{"duration":0.1327432500000043,"midi":38,"time":43.8052725,"velocity":0.3937007874015748},{"duration":0.1327432500000043,"midi":42,"time":43.8052725,"velocity":0.3937007874015748},{"duration":0.1327432500000043,"midi":80,"time":43.8052725,"velocity":0.3937007874015748},{"duration":0.1327432500000043,"midi":46,"time":43.8052725,"velocity":0.3937007874015748},{"duration":0.2654865000000015,"midi":68,"time":43.8052725,"velocity":0.3937007874015748},{"duration":0.1327432499999972,"midi":80,"time":43.938015750000005,"velocity":0.3937007874015748},{"duration":0.1327432499999972,"midi":42,"time":43.938015750000005,"velocity":0.3937007874015748},{"duration":0.2654864999999944,"midi":68,"time":43.938015750000005,"velocity":0.3937007874015748},{"duration":0.1327432499999972,"midi":38,"time":43.938015750000005,"velocity":0.3937007874015748},{"duration":0.1327432499999972,"midi":42,"time":44.070759,"velocity":0.3937007874015748},{"duration":0.1327432499999972,"midi":80,"time":44.070759,"velocity":0.3937007874015748},{"duration":0.1327432499999972,"midi":38,"time":44.070759,"velocity":0.3937007874015748},{"duration":0.1327432499999972,"midi":68,"time":44.070759,"velocity":0.3937007874015748},{"duration":0.1327432499999972,"midi":36,"time":44.070759,"velocity":0.3937007874015748},{"duration":0.1327432499999972,"midi":41,"time":44.070759,"velocity":0.3937007874015748},{"duration":0.530973000000003,"midi":68,"time":44.070759,"velocity":0.3937007874015748},{"duration":0.1327432500000043,"midi":70,"time":44.20350225,"velocity":0.3937007874015748},{"duration":0.1327432500000043,"midi":38,"time":44.20350225,"velocity":0.3937007874015748},{"duration":0.1327432500000043,"midi":82,"time":44.20350225,"velocity":0.3937007874015748},{"duration":0.1327432500000043,"midi":70,"time":44.20350225,"velocity":0.3937007874015748},{"duration":0.1327432500000043,"midi":56,"time":44.20350225,"velocity":0.3937007874015748},{"duration":0.1327432499999972,"midi":85,"time":44.336245500000004,"velocity":0.3937007874015748},{"duration":0.1327432499999972,"midi":46,"time":44.336245500000004,"velocity":0.3937007874015748},{"duration":0.1327432499999972,"midi":38,"time":44.336245500000004,"velocity":0.3937007874015748},{"duration":0.1327432499999972,"midi":73,"time":44.336245500000004,"velocity":0.3937007874015748},{"duration":0.1327432499999972,"midi":44,"time":44.336245500000004,"velocity":0.3937007874015748},{"duration":0.1327432499999972,"midi":73,"time":44.336245500000004,"velocity":0.3937007874015748},{"duration":0.1327432500000043,"midi":56,"time":44.46898875,"velocity":0.3937007874015748},{"duration":0.1327432500000043,"midi":70,"time":44.46898875,"velocity":0.3937007874015748},{"duration":0.1327432500000043,"midi":82,"time":44.46898875,"velocity":0.3937007874015748},{"duration":0.1327432500000043,"midi":38,"time":44.46898875,"velocity":0.3937007874015748},{"duration":0.1327432500000043,"midi":70,"time":44.46898875,"velocity":0.3937007874015748},{"duration":0.1327432500000043,"midi":41,"time":44.46898875,"velocity":0.3937007874015748},{"duration":0.1327432499999972,"midi":42,"time":44.601732000000005,"velocity":0.3937007874015748},{"duration":0.1327432499999972,"midi":36,"time":44.601732000000005,"velocity":0.3937007874015748},{"duration":0.7964594999999974,"midi":77,"time":44.601732000000005,"velocity":0.3937007874015748},{"duration":0.7964594999999974,"midi":85,"time":44.601732000000005,"velocity":0.3937007874015748},{"duration":0.7964594999999974,"midi":61,"time":44.601732000000005,"velocity":0.3937007874015748},{"duration":0.1327432499999972,"midi":39,"time":44.601732000000005,"velocity":0.3937007874015748},{"duration":0.7964594999999974,"midi":66,"time":44.601732000000005,"velocity":0.3937007874015748},{"duration":0.7964594999999974,"midi":66,"time":44.601732000000005,"velocity":0.3937007874015748},{"duration":0.7964594999999974,"midi":58,"time":44.601732000000005,"velocity":0.3937007874015748},{"duration":0.7964594999999974,"midi":70,"time":44.601732000000005,"velocity":0.3937007874015748},{"duration":0.7964594999999974,"midi":73,"time":44.601732000000005,"velocity":0.3937007874015748},{"duration":0.1327432499999972,"midi":56,"time":44.73447525,"velocity":0.3937007874015748},{"duration":0.1327432500000043,"midi":39,"time":44.8672185,"velocity":0.3937007874015748},{"duration":0.1327432500000043,"midi":42,"time":44.8672185,"velocity":0.3937007874015748},{"duration":0.1327432499999972,"midi":42,"time":44.999961750000004,"velocity":0.3937007874015748},{"duration":0.1327432499999972,"midi":39,"time":44.999961750000004,"velocity":0.3937007874015748},{"duration":0.1327432500000043,"midi":38,"time":45.132705,"velocity":0.3937007874015748},{"duration":0.1327432500000043,"midi":39,"time":45.132705,"velocity":0.3937007874015748},{"duration":0.1327432500000043,"midi":36,"time":45.132705,"velocity":0.3937007874015748},{"duration":0.1327432500000043,"midi":56,"time":45.132705,"velocity":0.3937007874015748},{"duration":0.1327432500000043,"midi":42,"time":45.132705,"velocity":0.3937007874015748},{"duration":0.1327432499999972,"midi":48,"time":45.265448250000006,"velocity":0.3937007874015748},{"duration":2.123891999999998,"midi":63,"time":45.3981915,"velocity":0.3937007874015748},{"duration":1.061945999999999,"midi":87,"time":45.3981915,"velocity":0.3937007874015748},{"duration":2.123891999999998,"midi":60,"time":45.3981915,"velocity":0.3937007874015748},{"duration":1.3274325000000005,"midi":68,"time":45.3981915,"velocity":0.3937007874015748},{"duration":1.3274325000000005,"midi":72,"time":45.3981915,"velocity":0.3937007874015748},{"duration":1.3274325000000005,"midi":75,"time":45.3981915,"velocity":0.3937007874015748},{"duration":0.1327432499999972,"midi":42,"time":45.3981915,"velocity":0.3937007874015748},{"duration":0.1327432499999972,"midi":46,"time":45.3981915,"velocity":0.3937007874015748},{"duration":2.123891999999998,"midi":68,"time":45.3981915,"velocity":0.3937007874015748},{"duration":0.1327432500000043,"midi":53,"time":45.53093475,"velocity":0.3937007874015748},{"duration":0.1327432500000043,"midi":42,"time":45.53093475,"velocity":0.3937007874015748},{"duration":0.1327432499999972,"midi":36,"time":45.663678000000004,"velocity":0.3937007874015748},{"duration":0.1327432499999972,"midi":56,"time":45.663678000000004,"velocity":0.3937007874015748},{"duration":0.1327432499999972,"midi":44,"time":45.663678000000004,"velocity":0.3937007874015748},{"duration":0.1327432499999972,"midi":42,"time":45.663678000000004,"velocity":0.3937007874015748},{"duration":0.1327432499999972,"midi":42,"time":45.929164500000006,"velocity":0.3937007874015748},{"duration":0.1327432499999972,"midi":44,"time":45.929164500000006,"velocity":0.3937007874015748},{"duration":0.1327432499999972,"midi":42,"time":46.06190775,"velocity":0.3937007874015748},{"duration":0.1327432499999972,"midi":56,"time":46.06190775,"velocity":0.3937007874015748},{"duration":0.1327432500000043,"midi":38,"time":46.194651,"velocity":0.3937007874015748},{"duration":0.1327432500000043,"midi":42,"time":46.194651,"velocity":0.3937007874015748},{"duration":0.1327432500000043,"midi":36,"time":46.194651,"velocity":0.3937007874015748},{"duration":0.1327432500000043,"midi":39,"time":46.194651,"velocity":0.3937007874015748},{"duration":0.1327432499999972,"midi":39,"time":46.4601375,"velocity":0.3937007874015748},{"duration":0.1327432499999972,"midi":53,"time":46.4601375,"velocity":0.3937007874015748},{"duration":0.2654865000000015,"midi":80,"time":46.4601375,"velocity":0.3937007874015748},{"duration":0.1327432499999972,"midi":42,"time":46.4601375,"velocity":0.3937007874015748},{"duration":0.1327432500000043,"midi":56,"time":46.59288075,"velocity":0.3937007874015748},{"duration":0.1327432500000043,"midi":42,"time":46.59288075,"velocity":0.3937007874015748},{"duration":0.1327432500000043,"midi":44,"time":46.59288075,"velocity":0.3937007874015748},{"duration":2.123891999999998,"midi":68,"time":46.725624,"velocity":0.3937007874015748},{"duration":0.1327432499999972,"midi":36,"time":46.725624,"velocity":0.3937007874015748},{"duration":0.1327432499999972,"midi":41,"time":46.725624,"velocity":0.3937007874015748},{"duration":0.7964594999999974,"midi":72,"time":46.725624,"velocity":0.3937007874015748},{"duration":0.7964594999999974,"midi":87,"time":46.725624,"velocity":0.3937007874015748},{"duration":0.7964594999999974,"midi":75,"time":46.725624,"velocity":0.3937007874015748},{"duration":0.1327432499999972,"midi":42,"time":46.725624,"velocity":0.3937007874015748},{"duration":0.1327432500000043,"midi":56,"time":46.85836725,"velocity":0.3937007874015748},{"duration":0.1327432499999972,"midi":42,"time":46.991110500000005,"velocity":0.3937007874015748},{"duration":0.1327432499999972,"midi":41,"time":46.991110500000005,"velocity":0.3937007874015748},{"duration":0.1327432499999972,"midi":42,"time":47.12385375,"velocity":0.3937007874015748},{"duration":0.1327432499999972,"midi":48,"time":47.12385375,"velocity":0.3937007874015748},{"duration":0.1327432500000043,"midi":56,"time":47.256597,"velocity":0.3937007874015748},{"duration":0.1327432500000043,"midi":38,"time":47.256597,"velocity":0.3937007874015748},{"duration":0.1327432500000043,"midi":36,"time":47.256597,"velocity":0.3937007874015748},{"duration":0.1327432500000043,"midi":42,"time":47.256597,"velocity":0.3937007874015748},{"duration":0.1327432500000043,"midi":39,"time":47.256597,"velocity":0.3937007874015748},{"duration":0.1327432499999972,"midi":48,"time":47.389340250000004,"velocity":0.3937007874015748},{"duration":0.7964595000000045,"midi":61,"time":47.5220835,"velocity":0.3937007874015748},{"duration":0.1327432500000043,"midi":46,"time":47.5220835,"velocity":0.3937007874015748},{"duration":1.3274325000000005,"midi":70,"time":47.5220835,"velocity":0.3937007874015748},{"duration":0.1327432500000043,"midi":42,"time":47.5220835,"velocity":0.3937007874015748},{"duration":0.7964595000000045,"midi":89,"time":47.5220835,"velocity":0.3937007874015748},{"duration":0.9292027500000017,"midi":65,"time":47.5220835,"velocity":0.3937007874015748},{"duration":1.3274325000000005,"midi":77,"time":47.5220835,"velocity":0.3937007874015748},{"duration":1.3274325000000005,"midi":73,"time":47.5220835,"velocity":0.3937007874015748},{"duration":0.1327432499999972,"midi":53,"time":47.654826750000005,"velocity":0.3937007874015748},{"duration":0.1327432499999972,"midi":42,"time":47.654826750000005,"velocity":0.3937007874015748},{"duration":0.1327432499999972,"midi":56,"time":47.78757,"velocity":0.3937007874015748},{"duration":0.1327432499999972,"midi":42,"time":47.78757,"velocity":0.3937007874015748},{"duration":0.1327432499999972,"midi":36,"time":47.78757,"velocity":0.3937007874015748},{"duration":0.1327432499999972,"midi":46,"time":48.053056500000004,"velocity":0.3937007874015748},{"duration":0.1327432499999972,"midi":42,"time":48.053056500000004,"velocity":0.3937007874015748},{"duration":0.1327432499999972,"midi":56,"time":48.053056500000004,"velocity":0.3937007874015748},{"duration":0.1327432500000043,"midi":46,"time":48.18579975,"velocity":0.3937007874015748},{"duration":0.1327432500000043,"midi":42,"time":48.18579975,"velocity":0.3937007874015748},{"duration":0.1327432499999972,"midi":36,"time":48.318543000000005,"velocity":0.3937007874015748},{"duration":0.5309729999999959,"midi":60,"time":48.318543000000005,"velocity":0.3937007874015748},{"duration":0.1327432499999972,"midi":42,"time":48.318543000000005,"velocity":0.3937007874015748},{"duration":0.1327432499999972,"midi":38,"time":48.318543000000005,"velocity":0.3937007874015748},{"duration":0.1327432499999972,"midi":39,"time":48.318543000000005,"velocity":0.3937007874015748},{"duration":0.5309729999999959,"midi":63,"time":48.318543000000005,"velocity":0.3937007874015748},{"duration":0.1327432499999972,"midi":56,"time":48.318543000000005,"velocity":0.3937007874015748},{"duration":0.1327432499999972,"midi":89,"time":48.318543000000005,"velocity":0.3937007874015748},{"duration":0.1327432499999972,"midi":48,"time":48.45128625,"velocity":0.3937007874015748},{"duration":0.1327432499999972,"midi":58,"time":48.45128625,"velocity":0.3937007874015748},{"duration":0.1327432499999972,"midi":90,"time":48.45128625,"velocity":0.3937007874015748},{"duration":0.1327432500000043,"midi":46,"time":48.5840295,"velocity":0.3937007874015748},{"duration":0.1327432500000043,"midi":89,"time":48.5840295,"velocity":0.3937007874015748},{"duration":0.1327432500000043,"midi":46,"time":48.5840295,"velocity":0.3937007874015748},{"duration":0.9292027500000017,"midi":85,"time":48.716772750000004,"velocity":0.3937007874015748},{"duration":0.1327432500000043,"midi":36,"time":48.849516,"velocity":0.3937007874015748},{"duration":0.7964595000000045,"midi":70,"time":48.849516,"velocity":0.3937007874015748},{"duration":0.1327432500000043,"midi":42,"time":48.849516,"velocity":0.3937007874015748},{"duration":0.7964595000000045,"midi":61,"time":48.849516,"velocity":0.3937007874015748},{"duration":0.7964595000000045,"midi":66,"time":48.849516,"velocity":0.3937007874015748},{"duration":0.7964595000000045,"midi":58,"time":48.849516,"velocity":0.3937007874015748},{"duration":0.7964595000000045,"midi":73,"time":48.849516,"velocity":0.3937007874015748},{"duration":0.1327432500000043,"midi":39,"time":48.849516,"velocity":0.3937007874015748},{"duration":0.7964595000000045,"midi":77,"time":48.849516,"velocity":0.3937007874015748},{"duration":0.9292027500000017,"midi":66,"time":48.849516,"velocity":0.3937007874015748},{"duration":0.1327432499999972,"midi":56,"time":48.982259250000006,"velocity":0.3937007874015748},{"duration":0.1327432499999972,"midi":39,"time":49.1150025,"velocity":0.3937007874015748},{"duration":0.1327432499999972,"midi":42,"time":49.1150025,"velocity":0.3937007874015748},{"duration":0.1327432500000043,"midi":42,"time":49.24774575,"velocity":0.3937007874015748},{"duration":0.1327432500000043,"midi":48,"time":49.24774575,"velocity":0.3937007874015748},{"duration":0.1327432499999972,"midi":36,"time":49.380489000000004,"velocity":0.3937007874015748},{"duration":0.1327432499999972,"midi":42,"time":49.380489000000004,"velocity":0.3937007874015748},{"duration":0.1327432499999972,"midi":56,"time":49.380489000000004,"velocity":0.3937007874015748},{"duration":0.1327432499999972,"midi":39,"time":49.380489000000004,"velocity":0.3937007874015748},{"duration":0.1327432499999972,"midi":38,"time":49.380489000000004,"velocity":0.3937007874015748},{"duration":0.1327432500000043,"midi":48,"time":49.51323225,"velocity":0.3937007874015748},{"duration":1.3274325000000005,"midi":68,"time":49.645975500000006,"velocity":0.3937007874015748},{"duration":1.8584054999999964,"midi":63,"time":49.645975500000006,"velocity":0.3937007874015748},{"duration":0.7964594999999974,"midi":87,"time":49.645975500000006,"velocity":0.3937007874015748},{"duration":2.123891999999998,"midi":68,"time":49.645975500000006,"velocity":0.3937007874015748},{"duration":0.1327432499999972,"midi":46,"time":49.645975500000006,"velocity":0.3937007874015748},{"duration":1.3274325000000005,"midi":75,"time":49.645975500000006,"velocity":0.3937007874015748},{"duration":1.8584054999999964,"midi":60,"time":49.645975500000006,"velocity":0.3937007874015748},{"duration":0.1327432499999972,"midi":42,"time":49.645975500000006,"velocity":0.3937007874015748},{"duration":1.3274325000000005,"midi":72,"time":49.645975500000006,"velocity":0.3937007874015748},{"duration":0.1327432499999972,"midi":42,"time":49.77871875,"velocity":0.3937007874015748},{"duration":0.1327432499999972,"midi":53,"time":49.77871875,"velocity":0.3937007874015748},{"duration":0.1327432500000043,"midi":36,"time":49.911462,"velocity":0.3937007874015748},{"duration":0.1327432500000043,"midi":44,"time":49.911462,"velocity":0.3937007874015748},{"duration":0.1327432500000043,"midi":42,"time":49.911462,"velocity":0.3937007874015748},{"duration":0.1327432500000043,"midi":56,"time":49.911462,"velocity":0.3937007874015748},{"duration":0.1327432500000043,"midi":44,"time":50.1769485,"velocity":0.3937007874015748},{"duration":0.1327432500000043,"midi":42,"time":50.1769485,"velocity":0.3937007874015748},{"duration":0.1327432500000043,"midi":56,"time":50.1769485,"velocity":0.3937007874015748},{"duration":0.1327432499999972,"midi":42,"time":50.309691750000006,"velocity":0.3937007874015748},{"duration":0.1327432499999972,"midi":36,"time":50.442435,"velocity":0.3937007874015748},{"duration":0.1327432499999972,"midi":39,"time":50.442435,"velocity":0.3937007874015748},{"duration":0.1327432499999972,"midi":38,"time":50.442435,"velocity":0.3937007874015748},{"duration":0.1327432499999972,"midi":42,"time":50.442435,"velocity":0.3937007874015748},{"duration":1.7256622499999992,"midi":80,"time":50.442435,"velocity":0.3937007874015748},{"duration":0.1327432499999972,"midi":51,"time":50.707921500000005,"velocity":0.3937007874015748},{"duration":0.1327432499999972,"midi":39,"time":50.707921500000005,"velocity":0.3937007874015748},{"duration":0.1327432499999972,"midi":42,"time":50.707921500000005,"velocity":0.3937007874015748},{"duration":0.1327432500000043,"midi":42,"time":50.84066475,"velocity":0.3937007874015748},{"duration":0.1327432500000043,"midi":53,"time":50.84066475,"velocity":0.3937007874015748},{"duration":0.1327432500000043,"midi":39,"time":50.84066475,"velocity":0.3937007874015748},{"duration":0.1327432499999972,"midi":36,"time":50.973408000000006,"velocity":0.3937007874015748},{"duration":0.1327432499999972,"midi":42,"time":50.973408000000006,"velocity":0.3937007874015748},{"duration":1.1946892499999962,"midi":68,"time":50.973408000000006,"velocity":0.3937007874015748},{"duration":0.7964594999999974,"midi":75,"time":50.973408000000006,"velocity":0.3937007874015748},{"duration":0.2654864999999944,"midi":56,"time":50.973408000000006,"velocity":0.3937007874015748},{"duration":0.1327432499999972,"midi":41,"time":50.973408000000006,"velocity":0.3937007874015748},{"duration":0.7964594999999974,"midi":72,"time":50.973408000000006,"velocity":0.3937007874015748},{"duration":0.3982297499999987,"midi":56,"time":51.10615125,"velocity":0.3937007874015748},{"duration":0.1327432500000043,"midi":42,"time":51.2388945,"velocity":0.3937007874015748},{"duration":0.1327432500000043,"midi":41,"time":51.2388945,"velocity":0.3937007874015748},{"duration":0.1327432499999972,"midi":42,"time":51.371637750000005,"velocity":0.3937007874015748},{"duration":0.1327432499999972,"midi":41,"time":51.371637750000005,"velocity":0.3937007874015748},{"duration":0.1327432499999972,"midi":38,"time":51.504381,"velocity":0.3937007874015748},{"duration":0.1327432499999972,"midi":36,"time":51.504381,"velocity":0.3937007874015748},{"duration":1.4601757499999977,"midi":65,"time":51.504381,"velocity":0.3937007874015748},{"duration":0.1327432499999972,"midi":56,"time":51.504381,"velocity":0.3937007874015748},{"duration":1.4601757499999977,"midi":61,"time":51.504381,"velocity":0.3937007874015748},{"duration":0.1327432499999972,"midi":42,"time":51.504381,"velocity":0.3937007874015748},{"duration":0.1327432499999972,"midi":39,"time":51.504381,"velocity":0.3937007874015748},{"duration":0.1327432500000043,"midi":48,"time":51.63712425,"velocity":0.3937007874015748},{"duration":1.061945999999999,"midi":70,"time":51.769867500000004,"velocity":0.3937007874015748},{"duration":1.1946892499999962,"midi":73,"time":51.769867500000004,"velocity":0.3937007874015748},{"duration":0.1327432499999972,"midi":46,"time":51.769867500000004,"velocity":0.3937007874015748},{"duration":0.1327432499999972,"midi":46,"time":51.769867500000004,"velocity":0.3937007874015748},{"duration":1.3274325000000005,"midi":77,"time":51.769867500000004,"velocity":0.3937007874015748},{"duration":0.1327432500000043,"midi":53,"time":51.90261075,"velocity":0.3937007874015748},{"duration":0.1327432499999972,"midi":36,"time":52.035354000000005,"velocity":0.3937007874015748},{"duration":0.1327432499999972,"midi":56,"time":52.035354000000005,"velocity":0.3937007874015748},{"duration":0.2654864999999944,"midi":68,"time":52.035354000000005,"velocity":0.3937007874015748},{"duration":0.1327432499999972,"midi":42,"time":52.035354000000005,"velocity":0.3937007874015748},{"duration":0.2654864999999944,"midi":80,"time":52.035354000000005,"velocity":0.3937007874015748},{"duration":0.3982297499999987,"midi":68,"time":52.16809725,"velocity":0.3937007874015748},{"duration":0.3982297499999987,"midi":80,"time":52.16809725,"velocity":0.3937007874015748},{"duration":0.1327432500000043,"midi":42,"time":52.3008405,"velocity":0.3937007874015748},{"duration":0.1327432500000043,"midi":56,"time":52.3008405,"velocity":0.3937007874015748},{"duration":0.1327432500000043,"midi":44,"time":52.3008405,"velocity":0.3937007874015748},{"duration":0.2654865000000015,"midi":68,"time":52.433583750000004,"velocity":0.3937007874015748},{"duration":0.1327432499999972,"midi":42,"time":52.433583750000004,"velocity":0.3937007874015748},{"duration":0.2654865000000015,"midi":80,"time":52.433583750000004,"velocity":0.3937007874015748},{"duration":0.1327432500000043,"midi":36,"time":52.566327,"velocity":0.3937007874015748},{"duration":0.1327432500000043,"midi":39,"time":52.566327,"velocity":0.3937007874015748},{"duration":0.3982297499999987,"midi":80,"time":52.566327,"velocity":0.3937007874015748},{"duration":0.1327432500000043,"midi":49,"time":52.566327,"velocity":0.3937007874015748},{"duration":0.1327432500000043,"midi":38,"time":52.566327,"velocity":0.3937007874015748},{"duration":0.3982297499999987,"midi":68,"time":52.566327,"velocity":0.3937007874015748},{"duration":0.1327432500000043,"midi":42,"time":52.566327,"velocity":0.3937007874015748},{"duration":0.1327432499999972,"midi":46,"time":52.699070250000005,"velocity":0.3937007874015748},{"duration":0.1327432499999972,"midi":82,"time":52.699070250000005,"velocity":0.3937007874015748},{"duration":0.3982297499999987,"midi":70,"time":52.699070250000005,"velocity":0.3937007874015748},{"duration":0.1327432499999972,"midi":56,"time":52.699070250000005,"velocity":0.3937007874015748},{"duration":0.1327432499999972,"midi":39,"time":52.699070250000005,"velocity":0.3937007874015748},{"duration":0.1327432499999972,"midi":85,"time":52.8318135,"velocity":0.3937007874015748},{"duration":0.2654865000000015,"midi":73,"time":52.8318135,"velocity":0.3937007874015748},{"duration":0.1327432499999972,"midi":39,"time":52.8318135,"velocity":0.3937007874015748},{"duration":0.1327432499999972,"midi":46,"time":52.8318135,"velocity":0.3937007874015748},{"duration":0.1327432500000043,"midi":49,"time":52.96455675,"velocity":0.3937007874015748},{"duration":0.1327432500000043,"midi":85,"time":52.96455675,"velocity":0.3937007874015748},{"duration":0.1327432500000043,"midi":39,"time":52.96455675,"velocity":0.3937007874015748},{"duration":0.1327432500000043,"midi":73,"time":52.96455675,"velocity":0.3937007874015748},{"duration":0.1327432500000043,"midi":56,"time":52.96455675,"velocity":0.3937007874015748},{"duration":0.7964594999999974,"midi":66,"time":53.097300000000004,"velocity":0.3937007874015748},{"duration":0.1327432499999972,"midi":42,"time":53.097300000000004,"velocity":0.3937007874015748},{"duration":0.7964594999999974,"midi":70,"time":53.097300000000004,"velocity":0.3937007874015748},{"duration":0.7964594999999974,"midi":66,"time":53.097300000000004,"velocity":0.3937007874015748},{"duration":0.7964594999999974,"midi":61,"time":53.097300000000004,"velocity":0.3937007874015748},{"duration":0.7964594999999974,"midi":58,"time":53.097300000000004,"velocity":0.3937007874015748},{"duration":0.7964594999999974,"midi":77,"time":53.097300000000004,"velocity":0.3937007874015748},{"duration":0.7964594999999974,"midi":73,"time":53.097300000000004,"velocity":0.3937007874015748},{"duration":0.1327432499999972,"midi":39,"time":53.097300000000004,"velocity":0.3937007874015748},{"duration":0.7964594999999974,"midi":85,"time":53.097300000000004,"velocity":0.3937007874015748},{"duration":0.1327432499999972,"midi":36,"time":53.097300000000004,"velocity":0.3937007874015748},{"duration":0.1327432500000043,"midi":56,"time":53.23004325,"velocity":0.3937007874015748},{"duration":0.1327432499999972,"midi":39,"time":53.362786500000006,"velocity":0.3937007874015748},{"duration":0.1327432499999972,"midi":42,"time":53.362786500000006,"velocity":0.3937007874015748},{"duration":0.1327432499999972,"midi":42,"time":53.49552975,"velocity":0.3937007874015748},{"duration":0.1327432499999972,"midi":39,"time":53.49552975,"velocity":0.3937007874015748},{"duration":0.1327432500000043,"midi":39,"time":53.628273,"velocity":0.3937007874015748},{"duration":0.1327432500000043,"midi":36,"time":53.628273,"velocity":0.3937007874015748},{"duration":0.1327432500000043,"midi":38,"time":53.628273,"velocity":0.3937007874015748},{"duration":0.1327432500000043,"midi":42,"time":53.628273,"velocity":0.3937007874015748},{"duration":0.1327432500000043,"midi":56,"time":53.628273,"velocity":0.3937007874015748},{"duration":0.1327432499999972,"midi":48,"time":53.761016250000004,"velocity":0.3937007874015748},{"duration":2.123891999999998,"midi":60,"time":53.8937595,"velocity":0.3937007874015748},{"duration":1.3274325000000005,"midi":68,"time":53.8937595,"velocity":0.3937007874015748},{"duration":1.061945999999999,"midi":87,"time":53.8937595,"velocity":0.3937007874015748},{"duration":1.3274325000000005,"midi":75,"time":53.8937595,"velocity":0.3937007874015748},{"duration":0.1327432500000043,"midi":42,"time":53.8937595,"velocity":0.3937007874015748},{"duration":1.3274325000000005,"midi":72,"time":53.8937595,"velocity":0.3937007874015748},{"duration":2.123891999999998,"midi":68,"time":53.8937595,"velocity":0.3937007874015748},{"duration":0.1327432500000043,"midi":46,"time":53.8937595,"velocity":0.3937007874015748},{"duration":2.123891999999998,"midi":63,"time":53.8937595,"velocity":0.3937007874015748},{"duration":0.1327432499999972,"midi":53,"time":54.026502750000006,"velocity":0.3937007874015748},{"duration":0.1327432499999972,"midi":42,"time":54.026502750000006,"velocity":0.3937007874015748},{"duration":0.1327432499999972,"midi":42,"time":54.159246,"velocity":0.3937007874015748},{"duration":0.1327432499999972,"midi":36,"time":54.159246,"velocity":0.3937007874015748},{"duration":0.1327432499999972,"midi":56,"time":54.159246,"velocity":0.3937007874015748},{"duration":0.1327432499999972,"midi":44,"time":54.159246,"velocity":0.3937007874015748},{"duration":0.1327432499999972,"midi":42,"time":54.424732500000005,"velocity":0.3937007874015748},{"duration":0.1327432499999972,"midi":44,"time":54.424732500000005,"velocity":0.3937007874015748},{"duration":0.1327432500000043,"midi":56,"time":54.55747575,"velocity":0.3937007874015748},{"duration":0.1327432500000043,"midi":42,"time":54.55747575,"velocity":0.3937007874015748},{"duration":0.1327432499999972,"midi":38,"time":54.690219000000006,"velocity":0.3937007874015748},{"duration":0.1327432499999972,"midi":42,"time":54.690219000000006,"velocity":0.3937007874015748},{"duration":0.1327432499999972,"midi":39,"time":54.690219000000006,"velocity":0.3937007874015748},{"duration":0.1327432499999972,"midi":36,"time":54.690219000000006,"velocity":0.3937007874015748},{"duration":0.1327432500000043,"midi":42,"time":54.9557055,"velocity":0.3937007874015748},{"duration":0.1327432500000043,"midi":53,"time":54.9557055,"velocity":0.3937007874015748},{"duration":0.1327432500000043,"midi":39,"time":54.9557055,"velocity":0.3937007874015748},{"duration":0.2654865000000015,"midi":80,"time":54.9557055,"velocity":0.3937007874015748},{"duration":0.1327432499999972,"midi":42,"time":55.088448750000005,"velocity":0.3937007874015748},{"duration":0.1327432499999972,"midi":56,"time":55.088448750000005,"velocity":0.3937007874015748},{"duration":0.1327432499999972,"midi":44,"time":55.088448750000005,"velocity":0.3937007874015748},{"duration":0.7964594999999974,"midi":72,"time":55.221192,"velocity":0.3937007874015748},{"duration":0.1327432500000043,"midi":36,"time":55.221192,"velocity":0.3937007874015748},{"duration":0.7964594999999974,"midi":75,"time":55.221192,"velocity":0.3937007874015748},{"duration":0.7964594999999974,"midi":87,"time":55.221192,"velocity":0.3937007874015748},{"duration":2.123891999999998,"midi":68,"time":55.221192,"velocity":0.3937007874015748},{"duration":0.1327432500000043,"midi":41,"time":55.221192,"velocity":0.3937007874015748},{"duration":0.1327432500000043,"midi":42,"time":55.221192,"velocity":0.3937007874015748},{"duration":0.1327432499999972,"midi":56,"time":55.353935250000006,"velocity":0.3937007874015748},{"duration":0.1327432499999972,"midi":42,"time":55.486678500000004,"velocity":0.3937007874015748},{"duration":0.1327432499999972,"midi":41,"time":55.486678500000004,"velocity":0.3937007874015748},{"duration":0.1327432500000043,"midi":48,"time":55.61942175,"velocity":0.3937007874015748},{"duration":0.1327432500000043,"midi":42,"time":55.61942175,"velocity":0.3937007874015748},{"duration":0.1327432499999972,"midi":39,"time":55.752165000000005,"velocity":0.3937007874015748},{"duration":0.1327432499999972,"midi":36,"time":55.752165000000005,"velocity":0.3937007874015748},{"duration":0.1327432499999972,"midi":38,"time":55.752165000000005,"velocity":0.3937007874015748},{"duration":0.1327432499999972,"midi":42,"time":55.752165000000005,"velocity":0.3937007874015748},{"duration":0.1327432499999972,"midi":56,"time":55.752165000000005,"velocity":0.3937007874015748},{"duration":0.1327432499999972,"midi":48,"time":55.88490825,"velocity":0.3937007874015748},{"duration":0.9292027500000017,"midi":65,"time":56.0176515,"velocity":0.3937007874015748},{"duration":0.7964595000000045,"midi":61,"time":56.0176515,"velocity":0.3937007874015748},{"duration":0.7964595000000045,"midi":89,"time":56.0176515,"velocity":0.3937007874015748},{"duration":1.3274325000000005,"midi":77,"time":56.0176515,"velocity":0.3937007874015748},{"duration":1.3274325000000005,"midi":73,"time":56.0176515,"velocity":0.3937007874015748},{"duration":0.1327432500000043,"midi":42,"time":56.0176515,"velocity":0.3937007874015748},{"duration":0.1327432500000043,"midi":46,"time":56.0176515,"velocity":0.3937007874015748},{"duration":1.3274325000000005,"midi":70,"time":56.0176515,"velocity":0.3937007874015748},{"duration":0.1327432499999972,"midi":42,"time":56.150394750000004,"velocity":0.3937007874015748},{"duration":0.1327432499999972,"midi":53,"time":56.150394750000004,"velocity":0.3937007874015748},{"duration":0.1327432500000043,"midi":36,"time":56.283138,"velocity":0.3937007874015748},{"duration":0.1327432500000043,"midi":56,"time":56.283138,"velocity":0.3937007874015748},{"duration":0.1327432500000043,"midi":42,"time":56.283138,"velocity":0.3937007874015748},{"duration":0.1327432499999972,"midi":46,"time":56.5486245,"velocity":0.3937007874015748},{"duration":0.1327432499999972,"midi":56,"time":56.5486245,"velocity":0.3937007874015748},{"duration":0.1327432499999972,"midi":42,"time":56.5486245,"velocity":0.3937007874015748},{"duration":0.1327432500000043,"midi":46,"time":56.68136775,"velocity":0.3937007874015748},{"duration":0.1327432500000043,"midi":42,"time":56.68136775,"velocity":0.3937007874015748},{"duration":0.1327432499999972,"midi":89,"time":56.814111000000004,"velocity":0.3937007874015748},{"duration":0.5309729999999959,"midi":63,"time":56.814111000000004,"velocity":0.3937007874015748},{"duration":0.1327432499999972,"midi":36,"time":56.814111000000004,"velocity":0.3937007874015748},{"duration":0.1327432499999972,"midi":42,"time":56.814111000000004,"velocity":0.3937007874015748},{"duration":0.1327432499999972,"midi":56,"time":56.814111000000004,"velocity":0.3937007874015748},{"duration":0.1327432499999972,"midi":39,"time":56.814111000000004,"velocity":0.3937007874015748},{"duration":0.5309729999999959,"midi":60,"time":56.814111000000004,"velocity":0.3937007874015748},{"duration":0.1327432499999972,"midi":38,"time":56.814111000000004,"velocity":0.3937007874015748},{"duration":0.1327432500000043,"midi":90,"time":56.94685425,"velocity":0.3937007874015748},{"duration":0.1327432500000043,"midi":58,"time":56.94685425,"velocity":0.3937007874015748},{"duration":0.1327432500000043,"midi":48,"time":56.94685425,"velocity":0.3937007874015748},{"duration":0.1327432499999972,"midi":46,"time":57.079597500000006,"velocity":0.3937007874015748},{"duration":0.1327432499999972,"midi":89,"time":57.079597500000006,"velocity":0.3937007874015748},{"duration":0.1327432499999972,"midi":46,"time":57.079597500000006,"velocity":0.3937007874015748},{"duration":0.9292027500000017,"midi":85,"time":57.21234075,"velocity":0.3937007874015748},{"duration":0.6637162500000002,"midi":70,"time":57.345084,"velocity":0.3937007874015748},{"duration":0.6637162500000002,"midi":66,"time":57.345084,"velocity":0.3937007874015748},{"duration":0.7964595000000045,"midi":73,"time":57.345084,"velocity":0.3937007874015748},{"duration":0.9292027500000017,"midi":66,"time":57.345084,"velocity":0.3937007874015748},{"duration":0.7964595000000045,"midi":58,"time":57.345084,"velocity":0.3937007874015748},{"duration":0.7964595000000045,"midi":61,"time":57.345084,"velocity":0.3937007874015748},{"duration":0.1327432500000043,"midi":36,"time":57.345084,"velocity":0.3937007874015748},{"duration":0.1327432500000043,"midi":42,"time":57.345084,"velocity":0.3937007874015748},{"duration":0.1327432500000043,"midi":39,"time":57.345084,"velocity":0.3937007874015748},{"duration":0.1327432499999972,"midi":56,"time":57.477827250000004,"velocity":0.3937007874015748},{"duration":0.1327432500000043,"midi":39,"time":57.6105705,"velocity":0.3937007874015748},{"duration":0.1327432500000043,"midi":42,"time":57.6105705,"velocity":0.3937007874015748},{"duration":0.1327432499999972,"midi":42,"time":57.743313750000006,"velocity":0.3937007874015748},{"duration":0.1327432499999972,"midi":48,"time":57.743313750000006,"velocity":0.3937007874015748},{"duration":0.1327432499999972,"midi":39,"time":57.876057,"velocity":0.3937007874015748},{"duration":0.1327432499999972,"midi":42,"time":57.876057,"velocity":0.3937007874015748},{"duration":0.1327432499999972,"midi":36,"time":57.876057,"velocity":0.3937007874015748},{"duration":0.1327432499999972,"midi":56,"time":57.876057,"velocity":0.3937007874015748},{"duration":0.1327432499999972,"midi":38,"time":57.876057,"velocity":0.3937007874015748},{"duration":0.1327432500000043,"midi":48,"time":58.00880025,"velocity":0.3937007874015748},{"duration":1.8584054999999964,"midi":60,"time":58.141543500000004,"velocity":0.3937007874015748},{"duration":1.3274325000000005,"midi":68,"time":58.141543500000004,"velocity":0.3937007874015748},{"duration":0.1327432499999972,"midi":46,"time":58.141543500000004,"velocity":0.3937007874015748},{"duration":1.8584054999999964,"midi":63,"time":58.141543500000004,"velocity":0.3937007874015748},{"duration":1.3274325000000005,"midi":75,"time":58.141543500000004,"velocity":0.3937007874015748},{"duration":1.8584054999999964,"midi":68,"time":58.141543500000004,"velocity":0.3937007874015748},{"duration":0.7964594999999974,"midi":87,"time":58.141543500000004,"velocity":0.3937007874015748},{"duration":1.3274325000000005,"midi":72,"time":58.141543500000004,"velocity":0.3937007874015748},{"duration":0.1327432499999972,"midi":42,"time":58.141543500000004,"velocity":0.3937007874015748},{"duration":0.1327432500000043,"midi":42,"time":58.27428675,"velocity":0.3937007874015748},{"duration":0.1327432500000043,"midi":53,"time":58.27428675,"velocity":0.3937007874015748},{"duration":0.1327432499999972,"midi":44,"time":58.407030000000006,"velocity":0.3937007874015748},{"duration":0.1327432499999972,"midi":42,"time":58.407030000000006,"velocity":0.3937007874015748},{"duration":0.1327432499999972,"midi":56,"time":58.407030000000006,"velocity":0.3937007874015748},{"duration":0.1327432499999972,"midi":36,"time":58.407030000000006,"velocity":0.3937007874015748},{"duration":0.1327432500000043,"midi":42,"time":58.6725165,"velocity":0.3937007874015748},{"duration":0.1327432500000043,"midi":44,"time":58.6725165,"velocity":0.3937007874015748},{"duration":0.1327432500000043,"midi":56,"time":58.6725165,"velocity":0.3937007874015748},{"duration":0.1327432499999972,"midi":42,"time":58.805259750000005,"velocity":0.3937007874015748},{"duration":1.7256622499999992,"midi":80,"time":58.938003,"velocity":0.3937007874015748},{"duration":0.1327432500000043,"midi":42,"time":58.938003,"velocity":0.3937007874015748},{"duration":0.1327432500000043,"midi":39,"time":58.938003,"velocity":0.3937007874015748},{"duration":0.1327432500000043,"midi":36,"time":58.938003,"velocity":0.3937007874015748},{"duration":0.1327432500000043,"midi":38,"time":58.938003,"velocity":0.3937007874015748},{"duration":0.1327432499999972,"midi":42,"time":59.2034895,"velocity":0.3937007874015748},{"duration":0.1327432499999972,"midi":39,"time":59.2034895,"velocity":0.3937007874015748},{"duration":0.1327432499999972,"midi":51,"time":59.2034895,"velocity":0.3937007874015748},{"duration":0.1327432500000043,"midi":53,"time":59.33623275,"velocity":0.3937007874015748},{"duration":0.1327432500000043,"midi":42,"time":59.33623275,"velocity":0.3937007874015748},{"duration":0.1327432500000043,"midi":39,"time":59.33623275,"velocity":0.3937007874015748},{"duration":0.1327432499999972,"midi":41,"time":59.468976000000005,"velocity":0.3937007874015748},{"duration":0.1327432499999972,"midi":36,"time":59.468976000000005,"velocity":0.3937007874015748},{"duration":0.5309729999999959,"midi":75,"time":59.468976000000005,"velocity":0.3937007874015748},{"duration":0.1327432499999972,"midi":42,"time":59.468976000000005,"velocity":0.3937007874015748},{"duration":0.5309729999999959,"midi":72,"time":59.468976000000005,"velocity":0.3937007874015748},{"duration":1.1946892499999962,"midi":68,"time":59.468976000000005,"velocity":0.3937007874015748},{"duration":0.2654865000000015,"midi":56,"time":59.468976000000005,"velocity":0.3937007874015748},{"duration":0.3982297499999987,"midi":56,"time":59.60171925,"velocity":0.3937007874015748},{"duration":0.1327432499999972,"midi":42,"time":59.73446250000001,"velocity":0.3937007874015748},{"duration":0.1327432499999972,"midi":41,"time":59.73446250000001,"velocity":0.3937007874015748},{"duration":0.1327432499999972,"midi":41,"time":59.867205750000004,"velocity":0.3937007874015748},{"duration":0.1327432499999972,"midi":42,"time":59.867205750000004,"velocity":0.3937007874015748},{"duration":0.1327432500000043,"midi":36,"time":59.999949,"velocity":0.3937007874015748},{"duration":0.1327432500000043,"midi":39,"time":59.999949,"velocity":0.3937007874015748},{"duration":0.1327432500000043,"midi":38,"time":59.999949,"velocity":0.3937007874015748},{"duration":1.592919000000002,"midi":73,"time":59.999949,"velocity":0.3937007874015748},{"duration":0.1327432500000043,"midi":42,"time":59.999949,"velocity":0.3937007874015748},{"duration":1.592919000000002,"midi":77,"time":59.999949,"velocity":0.3937007874015748},{"duration":1.4601757500000048,"midi":65,"time":59.999949,"velocity":0.3937007874015748},{"duration":0.7964595000000045,"midi":68,"time":59.999949,"velocity":0.3937007874015748},{"duration":1.4601757500000048,"midi":61,"time":59.999949,"velocity":0.3937007874015748},{"duration":0.1327432500000043,"midi":56,"time":59.999949,"velocity":0.3937007874015748},{"duration":0.1327432499999972,"midi":48,"time":60.132692250000005,"velocity":0.3937007874015748},{"duration":0.1327432500000043,"midi":46,"time":60.2654355,"velocity":0.3937007874015748},{"duration":0.1327432500000043,"midi":46,"time":60.2654355,"velocity":0.3937007874015748},{"duration":0.1327432499999972,"midi":53,"time":60.39817875000001,"velocity":0.3937007874015748},{"duration":0.1327432499999972,"midi":42,"time":60.530922000000004,"velocity":0.3937007874015748},{"duration":0.1327432499999972,"midi":36,"time":60.530922000000004,"velocity":0.3937007874015748},{"duration":0.1327432499999972,"midi":56,"time":60.530922000000004,"velocity":0.3937007874015748},{"duration":0.2654865000000015,"midi":80,"time":60.530922000000004,"velocity":0.3937007874015748},{"duration":0.1327432499999972,"midi":85,"time":60.530922000000004,"velocity":0.3937007874015748},{"duration":0.5309729999999959,"midi":68,"time":60.530922000000004,"velocity":0.3937007874015748},{"duration":0.3982297499999987,"midi":80,"time":60.66366525,"velocity":0.3937007874015748},{"duration":0.1327432500000043,"midi":85,"time":60.66366525,"velocity":0.3937007874015748},{"duration":0.530973000000003,"midi":68,"time":60.66366525,"velocity":0.3937007874015748},{"duration":0.1327432499999972,"midi":44,"time":60.796408500000005,"velocity":0.3937007874015748},{"duration":0.1327432499999972,"midi":56,"time":60.796408500000005,"velocity":0.3937007874015748},{"duration":0.1327432499999972,"midi":42,"time":60.796408500000005,"velocity":0.3937007874015748},{"duration":0.2654865000000015,"midi":80,"time":60.92915175,"velocity":0.3937007874015748},{"duration":0.1327432499999972,"midi":42,"time":60.92915175,"velocity":0.3937007874015748},{"duration":0.1327432499999972,"midi":85,"time":60.92915175,"velocity":0.3937007874015748},{"duration":0.3982297499999987,"midi":68,"time":60.92915175,"velocity":0.3937007874015748},{"duration":0.1327432500000043,"midi":49,"time":61.061895,"velocity":0.3937007874015748},{"duration":0.3982297500000058,"midi":68,"time":61.061895,"velocity":0.3937007874015748},{"duration":0.1327432500000043,"midi":39,"time":61.061895,"velocity":0.3937007874015748},{"duration":0.1327432500000043,"midi":36,"time":61.061895,"velocity":0.3937007874015748},{"duration":0.1327432500000043,"midi":38,"time":61.061895,"velocity":0.3937007874015748},{"duration":0.2654865000000015,"midi":80,"time":61.061895,"velocity":0.3937007874015748},{"duration":0.1327432500000043,"midi":85,"time":61.061895,"velocity":0.3937007874015748},{"duration":0.1327432500000043,"midi":42,"time":61.061895,"velocity":0.3937007874015748},{"duration":0.1327432499999972,"midi":85,"time":61.194638250000004,"velocity":0.3937007874015748},{"duration":0.2654865000000015,"midi":80,"time":61.194638250000004,"velocity":0.3937007874015748},{"duration":0.1327432499999972,"midi":46,"time":61.194638250000004,"velocity":0.3937007874015748},{"duration":0.1327432499999972,"midi":56,"time":61.194638250000004,"velocity":0.3937007874015748},{"duration":0.1327432499999972,"midi":39,"time":61.194638250000004,"velocity":0.3937007874015748},{"duration":0.2654865000000015,"midi":68,"time":61.194638250000004,"velocity":0.3937007874015748},{"duration":0.1327432500000043,"midi":46,"time":61.3273815,"velocity":0.3937007874015748},{"duration":0.1327432500000043,"midi":85,"time":61.3273815,"velocity":0.3937007874015748},{"duration":0.1327432500000043,"midi":80,"time":61.3273815,"velocity":0.3937007874015748},{"duration":0.1327432500000043,"midi":39,"time":61.3273815,"velocity":0.3937007874015748},{"duration":0.2654865000000015,"midi":68,"time":61.3273815,"velocity":0.3937007874015748},{"duration":0.1327432499999972,"midi":68,"time":61.460124750000006,"velocity":0.3937007874015748},{"duration":0.1327432499999972,"midi":80,"time":61.460124750000006,"velocity":0.3937007874015748},{"duration":0.1327432499999972,"midi":39,"time":61.460124750000006,"velocity":0.3937007874015748},{"duration":0.1327432499999972,"midi":85,"time":61.460124750000006,"velocity":0.3937007874015748},{"duration":0.1327432499999972,"midi":49,"time":61.460124750000006,"velocity":0.3937007874015748},{"duration":0.1327432499999972,"midi":56,"time":61.460124750000006,"velocity":0.3937007874015748},{"duration":2.123891999999998,"midi":77,"time":61.592868,"velocity":0.3937007874015748},{"duration":0.1327432499999972,"midi":46,"time":61.592868,"velocity":0.3937007874015748},{"duration":2.123891999999998,"midi":73,"time":61.592868,"velocity":0.3937007874015748},{"duration":0.1327432499999972,"midi":36,"time":61.592868,"velocity":0.3937007874015748},{"duration":2.123891999999998,"midi":66,"time":61.592868,"velocity":0.3937007874015748},{"duration":2.123891999999998,"midi":70,"time":61.592868,"velocity":0.3937007874015748},{"duration":0.1327432499999972,"midi":42,"time":61.592868,"velocity":0.3937007874015748},{"duration":0.1327432500000043,"midi":56,"time":61.72561125,"velocity":0.3937007874015748},{"duration":0.1327432499999972,"midi":42,"time":61.858354500000004,"velocity":0.3937007874015748},{"duration":0.1327432499999972,"midi":46,"time":61.858354500000004,"velocity":0.3937007874015748},{"duration":0.1327432500000043,"midi":42,"time":61.99109775,"velocity":0.3937007874015748},{"duration":0.1327432500000043,"midi":46,"time":61.99109775,"velocity":0.3937007874015748},{"duration":0.1327432499999972,"midi":39,"time":62.123841000000006,"velocity":0.3937007874015748},{"duration":0.1327432499999972,"midi":56,"time":62.123841000000006,"velocity":0.3937007874015748},{"duration":0.1327432499999972,"midi":36,"time":62.123841000000006,"velocity":0.3937007874015748},{"duration":0.1327432499999972,"midi":38,"time":62.123841000000006,"velocity":0.3937007874015748},{"duration":0.1327432499999972,"midi":42,"time":62.123841000000006,"velocity":0.3937007874015748},{"duration":0.1327432499999972,"midi":49,"time":62.25658425,"velocity":0.3937007874015748},{"duration":0.1327432500000043,"midi":42,"time":62.3893275,"velocity":0.3937007874015748},{"duration":0.1327432500000043,"midi":48,"time":62.3893275,"velocity":0.3937007874015748},{"duration":0.1327432499999972,"midi":42,"time":62.522070750000005,"velocity":0.3937007874015748},{"duration":0.1327432499999972,"midi":53,"time":62.522070750000005,"velocity":0.3937007874015748},{"duration":0.1327432500000043,"midi":56,"time":62.654814,"velocity":0.3937007874015748},{"duration":0.1327432500000043,"midi":42,"time":62.654814,"velocity":0.3937007874015748},{"duration":0.1327432500000043,"midi":44,"time":62.654814,"velocity":0.3937007874015748},{"duration":0.1327432500000043,"midi":36,"time":62.654814,"velocity":0.3937007874015748},{"duration":0.1327432499999972,"midi":42,"time":62.9203005,"velocity":0.3937007874015748},{"duration":0.1327432499999972,"midi":46,"time":62.9203005,"velocity":0.3937007874015748},{"duration":0.1327432500000043,"midi":56,"time":63.05304375,"velocity":0.3937007874015748},{"duration":0.1327432500000043,"midi":42,"time":63.05304375,"velocity":0.3937007874015748},{"duration":0.1327432499999972,"midi":36,"time":63.185787000000005,"velocity":0.3937007874015748},{"duration":0.1327432499999972,"midi":38,"time":63.185787000000005,"velocity":0.3937007874015748},{"duration":0.1327432499999972,"midi":39,"time":63.185787000000005,"velocity":0.3937007874015748},{"duration":0.1327432499999972,"midi":42,"time":63.185787000000005,"velocity":0.3937007874015748},{"duration":0.1327432499999972,"midi":41,"time":63.451273500000006,"velocity":0.3937007874015748},{"duration":0.1327432499999972,"midi":53,"time":63.451273500000006,"velocity":0.3937007874015748},{"duration":0.1327432499999972,"midi":42,"time":63.451273500000006,"velocity":0.3937007874015748},{"duration":0.1327432499999972,"midi":56,"time":63.58401675,"velocity":0.3937007874015748},{"duration":0.1327432499999972,"midi":42,"time":63.58401675,"velocity":0.3937007874015748},{"duration":0.1327432499999972,"midi":46,"time":63.58401675,"velocity":0.3937007874015748},{"duration":2.123892000000005,"midi":75,"time":63.71676,"velocity":0.3937007874015748},{"duration":0.1327432500000043,"midi":36,"time":63.71676,"velocity":0.3937007874015748},{"duration":2.123892000000005,"midi":68,"time":63.71676,"velocity":0.3937007874015748},{"duration":0.1327432500000043,"midi":42,"time":63.71676,"velocity":0.3937007874015748},{"duration":2.123892000000005,"midi":70,"time":63.71676,"velocity":0.3937007874015748},{"duration":2.123892000000005,"midi":72,"time":63.71676,"velocity":0.3937007874015748},{"duration":0.1327432499999972,"midi":56,"time":63.849503250000005,"velocity":0.3937007874015748},{"duration":0.1327432500000043,"midi":42,"time":63.9822465,"velocity":0.3937007874015748},{"duration":0.1327432500000043,"midi":44,"time":63.9822465,"velocity":0.3937007874015748},{"duration":0.1327432499999901,"midi":46,"time":64.11498975,"velocity":0.3937007874015748},{"duration":0.1327432499999901,"midi":42,"time":64.11498975,"velocity":0.3937007874015748},{"duration":0.1327432500000043,"midi":38,"time":64.247733,"velocity":0.3937007874015748},{"duration":0.1327432500000043,"midi":56,"time":64.247733,"velocity":0.3937007874015748},{"duration":0.1327432500000043,"midi":36,"time":64.247733,"velocity":0.3937007874015748},{"duration":0.1327432500000043,"midi":39,"time":64.247733,"velocity":0.3937007874015748},{"duration":0.1327432500000043,"midi":42,"time":64.247733,"velocity":0.3937007874015748},{"duration":0.1327432500000043,"midi":49,"time":64.38047625,"velocity":0.3937007874015748},{"duration":0.1327432500000043,"midi":48,"time":64.5132195,"velocity":0.3937007874015748},{"duration":0.1327432500000043,"midi":42,"time":64.5132195,"velocity":0.3937007874015748},{"duration":0.1327432499999901,"midi":42,"time":64.64596275000001,"velocity":0.3937007874015748},{"duration":0.1327432499999901,"midi":53,"time":64.64596275000001,"velocity":0.3937007874015748},{"duration":0.1327432500000043,"midi":56,"time":64.778706,"velocity":0.3937007874015748},{"duration":0.1327432500000043,"midi":42,"time":64.778706,"velocity":0.3937007874015748},{"duration":0.1327432500000043,"midi":36,"time":64.778706,"velocity":0.3937007874015748},{"duration":0.1327432499999901,"midi":42,"time":65.04419250000001,"velocity":0.3937007874015748},{"duration":0.1327432499999901,"midi":46,"time":65.04419250000001,"velocity":0.3937007874015748},{"duration":0.1327432499999901,"midi":56,"time":65.04419250000001,"velocity":0.3937007874015748},{"duration":0.1327432500000043,"midi":42,"time":65.17693575,"velocity":0.3937007874015748},{"duration":0.1327432500000043,"midi":42,"time":65.309679,"velocity":0.3937007874015748},{"duration":0.1327432500000043,"midi":56,"time":65.309679,"velocity":0.3937007874015748},{"duration":0.1327432500000043,"midi":36,"time":65.309679,"velocity":0.3937007874015748},{"duration":0.1327432500000043,"midi":38,"time":65.309679,"velocity":0.3937007874015748},{"duration":0.1327432500000043,"midi":39,"time":65.309679,"velocity":0.3937007874015748},{"duration":0.1327432499999901,"midi":58,"time":65.44242225,"velocity":0.3937007874015748},{"duration":0.1327432500000043,"midi":46,"time":65.5751655,"velocity":0.3937007874015748},{"duration":0.1327432500000043,"midi":44,"time":65.5751655,"velocity":0.3937007874015748},{"duration":0.1327432500000043,"midi":44,"time":65.70790875,"velocity":0.3937007874015748},{"duration":2.123891999999998,"midi":73,"time":65.840652,"velocity":0.3937007874015748},{"duration":0.1327432500000043,"midi":42,"time":65.840652,"velocity":0.3937007874015748},{"duration":2.123891999999998,"midi":70,"time":65.840652,"velocity":0.3937007874015748},{"duration":2.123891999999998,"midi":66,"time":65.840652,"velocity":0.3937007874015748},{"duration":0.1327432500000043,"midi":46,"time":65.840652,"velocity":0.3937007874015748},{"duration":2.123891999999998,"midi":77,"time":65.840652,"velocity":0.3937007874015748},{"duration":0.1327432500000043,"midi":36,"time":65.840652,"velocity":0.3937007874015748},{"duration":0.1327432499999901,"midi":56,"time":65.97339525000001,"velocity":0.3937007874015748},{"duration":0.1327432500000043,"midi":46,"time":66.1061385,"velocity":0.3937007874015748},{"duration":0.1327432500000043,"midi":42,"time":66.1061385,"velocity":0.3937007874015748},{"duration":0.1327432500000043,"midi":46,"time":66.23888175,"velocity":0.3937007874015748},{"duration":0.1327432500000043,"midi":42,"time":66.23888175,"velocity":0.3937007874015748},{"duration":0.1327432499999901,"midi":56,"time":66.37162500000001,"velocity":0.3937007874015748},{"duration":0.1327432499999901,"midi":36,"time":66.37162500000001,"velocity":0.3937007874015748},{"duration":0.1327432499999901,"midi":42,"time":66.37162500000001,"velocity":0.3937007874015748},{"duration":0.1327432499999901,"midi":38,"time":66.37162500000001,"velocity":0.3937007874015748},{"duration":0.1327432499999901,"midi":39,"time":66.37162500000001,"velocity":0.3937007874015748},{"duration":0.1327432500000043,"midi":49,"time":66.50436825,"velocity":0.3937007874015748},{"duration":0.1327432500000043,"midi":42,"time":66.6371115,"velocity":0.3937007874015748},{"duration":0.1327432500000043,"midi":48,"time":66.6371115,"velocity":0.3937007874015748},{"duration":0.1327432499999901,"midi":53,"time":66.76985475000001,"velocity":0.3937007874015748},{"duration":0.1327432499999901,"midi":42,"time":66.76985475000001,"velocity":0.3937007874015748},{"duration":0.1327432500000043,"midi":36,"time":66.902598,"velocity":0.3937007874015748},{"duration":0.1327432500000043,"midi":42,"time":66.902598,"velocity":0.3937007874015748},{"duration":0.1327432500000043,"midi":56,"time":66.902598,"velocity":0.3937007874015748},{"duration":0.1327432500000043,"midi":44,"time":66.902598,"velocity":0.3937007874015748},{"duration":0.1327432500000043,"midi":42,"time":67.1680845,"velocity":0.3937007874015748},{"duration":0.1327432500000043,"midi":56,"time":67.1680845,"velocity":0.3937007874015748},{"duration":0.1327432500000043,"midi":46,"time":67.1680845,"velocity":0.3937007874015748},{"duration":0.1327432499999901,"midi":42,"time":67.30082775000001,"velocity":0.3937007874015748},{"duration":0.1327432500000043,"midi":38,"time":67.433571,"velocity":0.3937007874015748},{"duration":0.1327432500000043,"midi":39,"time":67.433571,"velocity":0.3937007874015748},{"duration":0.1327432500000043,"midi":36,"time":67.433571,"velocity":0.3937007874015748},{"duration":0.1327432500000043,"midi":42,"time":67.433571,"velocity":0.3937007874015748},{"duration":0.1327432499999901,"midi":51,"time":67.69905750000001,"velocity":0.3937007874015748},{"duration":0.2654864999999944,"midi":68,"time":67.69905750000001,"velocity":0.3937007874015748},{"duration":0.2654864999999944,"midi":56,"time":67.69905750000001,"velocity":0.3937007874015748},{"duration":0.1327432499999901,"midi":42,"time":67.69905750000001,"velocity":0.3937007874015748},{"duration":0.1327432499999901,"midi":44,"time":67.69905750000001,"velocity":0.3937007874015748},{"duration":0.1327432500000043,"midi":42,"time":67.83180075,"velocity":0.3937007874015748},{"duration":0.1327432500000043,"midi":53,"time":67.83180075,"velocity":0.3937007874015748},{"duration":0.1327432500000043,"midi":44,"time":67.83180075,"velocity":0.3937007874015748},{"duration":0.7964594999999974,"midi":77,"time":67.964544,"velocity":0.3937007874015748},{"duration":0.1327432500000043,"midi":39,"time":67.964544,"velocity":0.3937007874015748},{"duration":0.7964594999999974,"midi":70,"time":67.964544,"velocity":0.3937007874015748},{"duration":0.1327432500000043,"midi":42,"time":67.964544,"velocity":0.3937007874015748},{"duration":0.1327432500000043,"midi":68,"time":67.964544,"velocity":0.3937007874015748},{"duration":0.1327432500000043,"midi":80,"time":67.964544,"velocity":0.3937007874015748},{"duration":0.1327432500000043,"midi":36,"time":67.964544,"velocity":0.3937007874015748},{"duration":0.7964594999999974,"midi":73,"time":67.964544,"velocity":0.3937007874015748},{"duration":0.7964594999999974,"midi":66,"time":67.964544,"velocity":0.3937007874015748},{"duration":0.1327432499999901,"midi":56,"time":68.09728725000001,"velocity":0.3937007874015748},{"duration":0.1327432500000043,"midi":42,"time":68.2300305,"velocity":0.3937007874015748},{"duration":0.1327432500000043,"midi":39,"time":68.2300305,"velocity":0.3937007874015748},{"duration":0.1327432500000043,"midi":42,"time":68.36277375,"velocity":0.3937007874015748},{"duration":0.1327432500000043,"midi":44,"time":68.36277375,"velocity":0.3937007874015748},{"duration":0.1327432499999901,"midi":36,"time":68.495517,"velocity":0.3937007874015748},{"duration":0.1327432499999901,"midi":42,"time":68.495517,"velocity":0.3937007874015748},{"duration":0.1327432499999901,"midi":56,"time":68.495517,"velocity":0.3937007874015748},{"duration":0.2654864999999944,"midi":80,"time":68.495517,"velocity":0.3937007874015748},{"duration":0.1327432499999901,"midi":38,"time":68.495517,"velocity":0.3937007874015748},{"duration":0.1327432499999901,"midi":39,"time":68.495517,"velocity":0.3937007874015748},{"duration":0.2654864999999944,"midi":68,"time":68.495517,"velocity":0.3937007874015748},{"duration":0.1327432500000043,"midi":44,"time":68.62826025,"velocity":0.3937007874015748},{"duration":0.1327432500000043,"midi":44,"time":68.7610035,"velocity":0.3937007874015748},{"duration":0.530973000000003,"midi":63,"time":68.7610035,"velocity":0.3937007874015748},{"duration":0.1327432500000043,"midi":46,"time":68.7610035,"velocity":0.3937007874015748},{"duration":0.530973000000003,"midi":75,"time":68.7610035,"velocity":0.3937007874015748},{"duration":1.3274325000000005,"midi":72,"time":68.7610035,"velocity":0.3937007874015748},{"duration":1.3274325000000005,"midi":68,"time":68.7610035,"velocity":0.3937007874015748},{"duration":1.3274325000000005,"midi":70,"time":68.7610035,"velocity":0.3937007874015748},{"duration":1.061946000000006,"midi":75,"time":68.7610035,"velocity":0.3937007874015748},{"duration":0.1327432500000043,"midi":53,"time":68.89374675,"velocity":0.3937007874015748},{"duration":0.1327432499999901,"midi":56,"time":69.02649000000001,"velocity":0.3937007874015748},{"duration":0.1327432499999901,"midi":42,"time":69.02649000000001,"velocity":0.3937007874015748},{"duration":0.1327432499999901,"midi":36,"time":69.02649000000001,"velocity":0.3937007874015748},{"duration":0.1327432500000043,"midi":44,"time":69.2919765,"velocity":0.3937007874015748},{"duration":0.2654864999999944,"midi":77,"time":69.2919765,"velocity":0.3937007874015748},{"duration":0.1327432500000043,"midi":42,"time":69.2919765,"velocity":0.3937007874015748},{"duration":0.2654864999999944,"midi":65,"time":69.2919765,"velocity":0.3937007874015748},{"duration":0.1327432500000043,"midi":56,"time":69.2919765,"velocity":0.3937007874015748},{"duration":0.1327432499999901,"midi":44,"time":69.42471975000001,"velocity":0.3937007874015748},{"duration":0.1327432499999901,"midi":42,"time":69.42471975000001,"velocity":0.3937007874015748},{"duration":0.1327432500000043,"midi":38,"time":69.557463,"velocity":0.3937007874015748},{"duration":0.1327432500000043,"midi":36,"time":69.557463,"velocity":0.3937007874015748},{"duration":0.2654865000000086,"midi":63,"time":69.557463,"velocity":0.3937007874015748},{"duration":0.1327432500000043,"midi":42,"time":69.557463,"velocity":0.3937007874015748},{"duration":0.530973000000003,"midi":75,"time":69.557463,"velocity":0.3937007874015748},{"duration":0.1327432500000043,"midi":39,"time":69.557463,"velocity":0.3937007874015748},{"duration":0.1327432500000043,"midi":44,"time":69.69020625,"velocity":0.3937007874015748},{"duration":0.1327432500000043,"midi":56,"time":69.69020625,"velocity":0.3937007874015748},{"duration":0.1327432500000043,"midi":39,"time":69.69020625,"velocity":0.3937007874015748},{"duration":0.1327432499999901,"midi":46,"time":69.82294950000001,"velocity":0.3937007874015748},{"duration":0.1327432499999901,"midi":39,"time":69.82294950000001,"velocity":0.3937007874015748},{"duration":0.1327432499999901,"midi":73,"time":69.82294950000001,"velocity":0.3937007874015748},{"duration":0.1327432499999901,"midi":61,"time":69.82294950000001,"velocity":0.3937007874015748},{"duration":0.1327432499999901,"midi":46,"time":69.82294950000001,"velocity":0.3937007874015748},{"duration":0.1327432500000043,"midi":39,"time":69.95569275,"velocity":0.3937007874015748},{"duration":0.1327432500000043,"midi":56,"time":69.95569275,"velocity":0.3937007874015748},{"duration":0.1327432500000043,"midi":46,"time":69.95569275,"velocity":0.3937007874015748},{"duration":2.123891999999998,"midi":73,"time":70.088436,"velocity":0.3937007874015748},{"duration":2.123891999999998,"midi":77,"time":70.088436,"velocity":0.3937007874015748},{"duration":0.1327432500000043,"midi":42,"time":70.088436,"velocity":0.3937007874015748},{"duration":2.123891999999998,"midi":66,"time":70.088436,"velocity":0.3937007874015748},{"duration":2.123891999999998,"midi":70,"time":70.088436,"velocity":0.3937007874015748},{"duration":0.1327432500000043,"midi":36,"time":70.088436,"velocity":0.3937007874015748},{"duration":0.1327432500000043,"midi":46,"time":70.088436,"velocity":0.3937007874015748},{"duration":0.1327432500000043,"midi":56,"time":70.22117925,"velocity":0.3937007874015748},{"duration":0.1327432499999901,"midi":42,"time":70.35392250000001,"velocity":0.3937007874015748},{"duration":0.1327432499999901,"midi":46,"time":70.35392250000001,"velocity":0.3937007874015748},{"duration":0.1327432500000043,"midi":42,"time":70.48666575,"velocity":0.3937007874015748},{"duration":0.1327432500000043,"midi":46,"time":70.48666575,"velocity":0.3937007874015748},{"duration":0.1327432500000043,"midi":36,"time":70.619409,"velocity":0.3937007874015748},{"duration":0.1327432500000043,"midi":42,"time":70.619409,"velocity":0.3937007874015748},{"duration":0.1327432500000043,"midi":38,"time":70.619409,"velocity":0.3937007874015748},{"duration":0.1327432500000043,"midi":39,"time":70.619409,"velocity":0.3937007874015748},{"duration":0.1327432500000043,"midi":56,"time":70.619409,"velocity":0.3937007874015748},{"duration":0.1327432499999901,"midi":49,"time":70.75215225000001,"velocity":0.3937007874015748},{"duration":0.1327432500000043,"midi":42,"time":70.8848955,"velocity":0.3937007874015748},{"duration":0.1327432500000043,"midi":48,"time":70.8848955,"velocity":0.3937007874015748},{"duration":0.1327432500000043,"midi":42,"time":71.01763875,"velocity":0.3937007874015748},{"duration":0.1327432500000043,"midi":53,"time":71.01763875,"velocity":0.3937007874015748},{"duration":0.1327432499999901,"midi":56,"time":71.15038200000001,"velocity":0.3937007874015748},{"duration":0.1327432499999901,"midi":42,"time":71.15038200000001,"velocity":0.3937007874015748},{"duration":0.1327432499999901,"midi":44,"time":71.15038200000001,"velocity":0.3937007874015748},{"duration":0.1327432499999901,"midi":36,"time":71.15038200000001,"velocity":0.3937007874015748},{"duration":0.1327432500000043,"midi":42,"time":71.4158685,"velocity":0.3937007874015748},{"duration":0.1327432500000043,"midi":46,"time":71.4158685,"velocity":0.3937007874015748},{"duration":0.1327432500000043,"midi":56,"time":71.54861175,"velocity":0.3937007874015748},{"duration":0.1327432500000043,"midi":42,"time":71.54861175,"velocity":0.3937007874015748},{"duration":0.1327432499999901,"midi":42,"time":71.68135500000001,"velocity":0.3937007874015748},{"duration":0.1327432499999901,"midi":39,"time":71.68135500000001,"velocity":0.3937007874015748},{"duration":0.1327432499999901,"midi":38,"time":71.68135500000001,"velocity":0.3937007874015748},{"duration":0.1327432499999901,"midi":36,"time":71.68135500000001,"velocity":0.3937007874015748},{"duration":0.1327432500000043,"midi":42,"time":71.9468415,"velocity":0.3937007874015748},{"duration":0.1327432500000043,"midi":53,"time":71.9468415,"velocity":0.3937007874015748},{"duration":0.1327432500000043,"midi":41,"time":71.9468415,"velocity":0.3937007874015748},{"duration":0.1327432499999901,"midi":42,"time":72.07958475000001,"velocity":0.3937007874015748},{"duration":0.1327432499999901,"midi":46,"time":72.07958475000001,"velocity":0.3937007874015748},{"duration":0.1327432499999901,"midi":56,"time":72.07958475000001,"velocity":0.3937007874015748},{"duration":0.1327432500000043,"midi":42,"time":72.212328,"velocity":0.3937007874015748},{"duration":0.1327432500000043,"midi":36,"time":72.212328,"velocity":0.3937007874015748},{"duration":2.123891999999998,"midi":72,"time":72.212328,"velocity":0.3937007874015748},{"duration":2.123891999999998,"midi":75,"time":72.212328,"velocity":0.3937007874015748},{"duration":2.123891999999998,"midi":70,"time":72.212328,"velocity":0.3937007874015748},{"duration":2.123891999999998,"midi":68,"time":72.212328,"velocity":0.3937007874015748},{"duration":0.1327432500000043,"midi":56,"time":72.34507125,"velocity":0.3937007874015748},{"duration":0.1327432499999901,"midi":42,"time":72.47781450000001,"velocity":0.3937007874015748},{"duration":0.1327432499999901,"midi":44,"time":72.47781450000001,"velocity":0.3937007874015748},{"duration":0.1327432500000043,"midi":42,"time":72.61055775,"velocity":0.3937007874015748},{"duration":0.1327432500000043,"midi":46,"time":72.61055775,"velocity":0.3937007874015748},{"duration":0.1327432500000043,"midi":39,"time":72.743301,"velocity":0.3937007874015748},{"duration":0.1327432500000043,"midi":38,"time":72.743301,"velocity":0.3937007874015748},{"duration":0.1327432500000043,"midi":36,"time":72.743301,"velocity":0.3937007874015748},{"duration":0.1327432500000043,"midi":42,"time":72.743301,"velocity":0.3937007874015748},{"duration":0.1327432500000043,"midi":56,"time":72.743301,"velocity":0.3937007874015748},{"duration":0.1327432499999901,"midi":49,"time":72.87604425,"velocity":0.3937007874015748},{"duration":0.1327432500000043,"midi":48,"time":73.0087875,"velocity":0.3937007874015748},{"duration":0.1327432500000043,"midi":42,"time":73.0087875,"velocity":0.3937007874015748},{"duration":0.1327432500000043,"midi":42,"time":73.14153075,"velocity":0.3937007874015748},{"duration":0.1327432500000043,"midi":53,"time":73.14153075,"velocity":0.3937007874015748},{"duration":0.1327432500000043,"midi":42,"time":73.274274,"velocity":0.3937007874015748},{"duration":0.1327432500000043,"midi":56,"time":73.274274,"velocity":0.3937007874015748},{"duration":0.1327432500000043,"midi":36,"time":73.274274,"velocity":0.3937007874015748},{"duration":0.1327432500000043,"midi":56,"time":73.5397605,"velocity":0.3937007874015748},{"duration":0.1327432500000043,"midi":46,"time":73.5397605,"velocity":0.3937007874015748},{"duration":0.1327432500000043,"midi":42,"time":73.5397605,"velocity":0.3937007874015748},{"duration":0.1327432500000043,"midi":42,"time":73.67250375,"velocity":0.3937007874015748},{"duration":0.1327432499999901,"midi":38,"time":73.80524700000001,"velocity":0.3937007874015748},{"duration":0.1327432499999901,"midi":36,"time":73.80524700000001,"velocity":0.3937007874015748},{"duration":0.1327432499999901,"midi":56,"time":73.80524700000001,"velocity":0.3937007874015748},{"duration":0.1327432499999901,"midi":39,"time":73.80524700000001,"velocity":0.3937007874015748},{"duration":0.1327432499999901,"midi":42,"time":73.80524700000001,"velocity":0.3937007874015748},{"duration":0.1327432500000043,"midi":58,"time":73.93799025,"velocity":0.3937007874015748},{"duration":0.1327432500000043,"midi":44,"time":74.0707335,"velocity":0.3937007874015748},{"duration":0.1327432500000043,"midi":46,"time":74.0707335,"velocity":0.3937007874015748},{"duration":0.1327432499999901,"midi":44,"time":74.20347675000001,"velocity":0.3937007874015748},{"duration":2.123892000000012,"midi":70,"time":74.33622,"velocity":0.3937007874015748},{"duration":0.1327432500000043,"midi":36,"time":74.33622,"velocity":0.3937007874015748},{"duration":0.1327432500000043,"midi":42,"time":74.33622,"velocity":0.3937007874015748},{"duration":2.123892000000012,"midi":77,"time":74.33622,"velocity":0.3937007874015748},{"duration":2.123892000000012,"midi":66,"time":74.33622,"velocity":0.3937007874015748},{"duration":0.1327432500000043,"midi":46,"time":74.33622,"velocity":0.3937007874015748},{"duration":2.123892000000012,"midi":73,"time":74.33622,"velocity":0.3937007874015748},{"duration":0.1327432500000043,"midi":56,"time":74.46896325,"velocity":0.3937007874015748},{"duration":0.1327432500000043,"midi":46,"time":74.6017065,"velocity":0.3937007874015748},{"duration":0.1327432500000043,"midi":42,"time":74.6017065,"velocity":0.3937007874015748},{"duration":0.1327432499999901,"midi":46,"time":74.73444975000001,"velocity":0.3937007874015748},{"duration":0.1327432499999901,"midi":42,"time":74.73444975000001,"velocity":0.3937007874015748},{"duration":0.1327432500000043,"midi":42,"time":74.867193,"velocity":0.3937007874015748},{"duration":0.1327432500000043,"midi":39,"time":74.867193,"velocity":0.3937007874015748},{"duration":0.1327432500000043,"midi":38,"time":74.867193,"velocity":0.3937007874015748},{"duration":0.1327432500000043,"midi":36,"time":74.867193,"velocity":0.3937007874015748},{"duration":0.1327432500000043,"midi":56,"time":74.867193,"velocity":0.3937007874015748},{"duration":0.1327432500000043,"midi":49,"time":74.99993625,"velocity":0.3937007874015748},{"duration":0.1327432499999901,"midi":42,"time":75.13267950000001,"velocity":0.3937007874015748},{"duration":0.1327432499999901,"midi":48,"time":75.13267950000001,"velocity":0.3937007874015748},{"duration":0.1327432500000043,"midi":53,"time":75.26542275,"velocity":0.3937007874015748},{"duration":0.1327432500000043,"midi":42,"time":75.26542275,"velocity":0.3937007874015748},{"duration":0.1327432500000043,"midi":36,"time":75.398166,"velocity":0.3937007874015748},{"duration":0.1327432500000043,"midi":56,"time":75.398166,"velocity":0.3937007874015748},{"duration":0.1327432500000043,"midi":42,"time":75.398166,"velocity":0.3937007874015748},{"duration":0.1327432500000043,"midi":44,"time":75.398166,"velocity":0.3937007874015748},{"duration":0.1327432500000043,"midi":56,"time":75.6636525,"velocity":0.3937007874015748},{"duration":0.1327432500000043,"midi":46,"time":75.6636525,"velocity":0.3937007874015748},{"duration":0.1327432500000043,"midi":42,"time":75.6636525,"velocity":0.3937007874015748},{"duration":0.1327432500000043,"midi":42,"time":75.79639575,"velocity":0.3937007874015748},{"duration":0.1327432500000043,"midi":39,"time":75.929139,"velocity":0.3937007874015748},{"duration":0.1327432500000043,"midi":36,"time":75.929139,"velocity":0.3937007874015748},{"duration":0.1327432500000043,"midi":42,"time":75.929139,"velocity":0.3937007874015748},{"duration":0.1327432500000043,"midi":38,"time":75.929139,"velocity":0.3937007874015748},{"duration":0.1327432500000043,"midi":51,"time":76.1946255,"velocity":0.3937007874015748},{"duration":0.1327432500000043,"midi":42,"time":76.1946255,"velocity":0.3937007874015748},{"duration":0.1327432500000043,"midi":44,"time":76.1946255,"velocity":0.3937007874015748},{"duration":0.1327432500000043,"midi":53,"time":76.32736875,"velocity":0.3937007874015748},{"duration":0.1327432500000043,"midi":44,"time":76.32736875,"velocity":0.3937007874015748},{"duration":0.1327432500000043,"midi":42,"time":76.32736875,"velocity":0.3937007874015748},{"duration":0.1327432499999901,"midi":42,"time":76.46011200000001,"velocity":0.3937007874015748},{"duration":0.1327432499999901,"midi":36,"time":76.46011200000001,"velocity":0.3937007874015748},{"duration":0.7964594999999974,"midi":77,"time":76.46011200000001,"velocity":0.3937007874015748},{"duration":0.7964594999999974,"midi":73,"time":76.46011200000001,"velocity":0.3937007874015748},{"duration":0.2654864999999944,"midi":75,"time":76.46011200000001,"velocity":0.3937007874015748},{"duration":0.7964594999999974,"midi":66,"time":76.46011200000001,"velocity":0.3937007874015748},{"duration":0.7964594999999974,"midi":70,"time":76.46011200000001,"velocity":0.3937007874015748},{"duration":0.1327432499999901,"midi":39,"time":76.46011200000001,"velocity":0.3937007874015748},{"duration":0.1327432500000043,"midi":56,"time":76.59285525,"velocity":0.3937007874015748},{"duration":0.1327432500000043,"midi":39,"time":76.7255985,"velocity":0.3937007874015748},{"duration":0.1327432500000043,"midi":63,"time":76.7255985,"velocity":0.3937007874015748},{"duration":0.2654864999999944,"midi":75,"time":76.7255985,"velocity":0.3937007874015748},{"duration":0.1327432500000043,"midi":42,"time":76.7255985,"velocity":0.3937007874015748},{"duration":0.2654864999999944,"midi":63,"time":76.7255985,"velocity":0.3937007874015748},{"duration":0.1327432499999901,"midi":44,"time":76.85834175000001,"velocity":0.3937007874015748},{"duration":0.1327432499999901,"midi":42,"time":76.85834175000001,"velocity":0.3937007874015748},{"duration":0.1327432500000043,"midi":36,"time":76.991085,"velocity":0.3937007874015748},{"duration":0.2654865000000086,"midi":63,"time":76.991085,"velocity":0.3937007874015748},{"duration":0.2654865000000086,"midi":75,"time":76.991085,"velocity":0.3937007874015748},{"duration":0.1327432500000043,"midi":39,"time":76.991085,"velocity":0.3937007874015748},{"duration":0.1327432500000043,"midi":56,"time":76.991085,"velocity":0.3937007874015748},{"duration":0.1327432500000043,"midi":42,"time":76.991085,"velocity":0.3937007874015748},{"duration":0.1327432500000043,"midi":38,"time":76.991085,"velocity":0.3937007874015748},{"duration":0.1327432500000043,"midi":44,"time":77.12382825,"velocity":0.3937007874015748},{"duration":1.3274325000000005,"midi":72,"time":77.2565715,"velocity":0.3937007874015748},{"duration":1.3274325000000005,"midi":70,"time":77.2565715,"velocity":0.3937007874015748},{"duration":1.3274325000000005,"midi":68,"time":77.2565715,"velocity":0.3937007874015748},{"duration":1.3274325000000005,"midi":75,"time":77.2565715,"velocity":0.3937007874015748},{"duration":0.1327432500000043,"midi":44,"time":77.2565715,"velocity":0.3937007874015748},{"duration":0.2654864999999944,"midi":77,"time":77.2565715,"velocity":0.3937007874015748},{"duration":0.2654864999999944,"midi":65,"time":77.2565715,"velocity":0.3937007874015748},{"duration":0.1327432500000043,"midi":46,"time":77.2565715,"velocity":0.3937007874015748},{"duration":0.1327432499999901,"midi":53,"time":77.38931475000001,"velocity":0.3937007874015748},{"duration":0.1327432500000043,"midi":42,"time":77.522058,"velocity":0.3937007874015748},{"duration":1.061946000000006,"midi":63,"time":77.522058,"velocity":0.3937007874015748},{"duration":1.061946000000006,"midi":75,"time":77.522058,"velocity":0.3937007874015748},{"duration":0.1327432500000043,"midi":56,"time":77.522058,"velocity":0.3937007874015748},{"duration":0.1327432500000043,"midi":36,"time":77.522058,"velocity":0.3937007874015748},{"duration":0.1327432499999901,"midi":44,"time":77.78754450000001,"velocity":0.3937007874015748},{"duration":0.1327432499999901,"midi":56,"time":77.78754450000001,"velocity":0.3937007874015748},{"duration":0.1327432499999901,"midi":42,"time":77.78754450000001,"velocity":0.3937007874015748},{"duration":0.1327432500000043,"midi":42,"time":77.92028775,"velocity":0.3937007874015748},{"duration":0.1327432500000043,"midi":44,"time":77.92028775,"velocity":0.3937007874015748},{"duration":0.1327432500000043,"midi":42,"time":78.053031,"velocity":0.3937007874015748},{"duration":0.1327432500000043,"midi":38,"time":78.053031,"velocity":0.3937007874015748},{"duration":0.1327432500000043,"midi":39,"time":78.053031,"velocity":0.3937007874015748},{"duration":0.1327432500000043,"midi":36,"time":78.053031,"velocity":0.3937007874015748},{"duration":0.1327432499999901,"midi":56,"time":78.18577425000001,"velocity":0.3937007874015748},{"duration":0.1327432499999901,"midi":39,"time":78.18577425000001,"velocity":0.3937007874015748},{"duration":0.1327432499999901,"midi":44,"time":78.18577425000001,"velocity":0.3937007874015748},{"duration":0.1327432500000043,"midi":46,"time":78.3185175,"velocity":0.3937007874015748},{"duration":0.1327432500000043,"midi":46,"time":78.3185175,"velocity":0.3937007874015748},{"duration":0.1327432500000043,"midi":39,"time":78.3185175,"velocity":0.3937007874015748},{"duration":0.1327432500000043,"midi":46,"time":78.45126075,"velocity":0.3937007874015748},{"duration":0.1327432500000043,"midi":56,"time":78.45126075,"velocity":0.3937007874015748},{"duration":0.1327432500000043,"midi":39,"time":78.45126075,"velocity":0.3937007874015748},{"duration":1.5929189999999949,"midi":70,"time":78.58400400000001,"velocity":0.3937007874015748},{"duration":1.5929189999999949,"midi":73,"time":78.58400400000001,"velocity":0.3937007874015748},{"duration":1.8584055000000035,"midi":70,"time":78.58400400000001,"velocity":0.3937007874015748},{"duration":1.5929189999999949,"midi":63,"time":78.58400400000001,"velocity":0.3937007874015748},{"duration":0.1327432499999901,"midi":36,"time":78.58400400000001,"velocity":0.3937007874015748},{"duration":1.5929189999999949,"midi":61,"time":78.58400400000001,"velocity":0.3937007874015748},{"duration":1.5929189999999949,"midi":66,"time":78.58400400000001,"velocity":0.3937007874015748},{"duration":0.1327432499999901,"midi":46,"time":78.58400400000001,"velocity":0.3937007874015748},{"duration":0.1327432499999901,"midi":46,"time":78.58400400000001,"velocity":0.3937007874015748},{"duration":1.8584055000000035,"midi":66,"time":78.58400400000001,"velocity":0.3937007874015748},{"duration":1.8584055000000035,"midi":73,"time":78.58400400000001,"velocity":0.3937007874015748},{"duration":0.1327432500000043,"midi":56,"time":78.71674725,"velocity":0.3937007874015748},{"duration":0.1327432500000043,"midi":42,"time":78.8494905,"velocity":0.3937007874015748},{"duration":0.1327432500000043,"midi":46,"time":78.8494905,"velocity":0.3937007874015748},{"duration":0.1327432500000043,"midi":49,"time":78.98223375,"velocity":0.3937007874015748},{"duration":0.1327432500000043,"midi":42,"time":78.98223375,"velocity":0.3937007874015748},{"duration":0.1327432499999901,"midi":36,"time":79.11497700000001,"velocity":0.3937007874015748},{"duration":0.1327432499999901,"midi":56,"time":79.11497700000001,"velocity":0.3937007874015748},{"duration":0.1327432499999901,"midi":42,"time":79.11497700000001,"velocity":0.3937007874015748},{"duration":0.1327432499999901,"midi":38,"time":79.11497700000001,"velocity":0.3937007874015748},{"duration":0.1327432500000043,"midi":49,"time":79.24772025,"velocity":0.3937007874015748},{"duration":0.1327432500000043,"midi":42,"time":79.3804635,"velocity":0.3937007874015748},{"duration":0.1327432500000043,"midi":48,"time":79.3804635,"velocity":0.3937007874015748},{"duration":0.1327432499999901,"midi":53,"time":79.51320675000001,"velocity":0.3937007874015748},{"duration":0.1327432499999901,"midi":42,"time":79.51320675000001,"velocity":0.3937007874015748},{"duration":0.1327432500000043,"midi":42,"time":79.64595,"velocity":0.3937007874015748},{"duration":0.1327432500000043,"midi":56,"time":79.64595,"velocity":0.3937007874015748},{"duration":0.1327432500000043,"midi":36,"time":79.64595,"velocity":0.3937007874015748},{"duration":0.1327432500000043,"midi":44,"time":79.64595,"velocity":0.3937007874015748},{"duration":0.1327432499999901,"midi":42,"time":79.91143650000001,"velocity":0.3937007874015748},{"duration":0.1327432499999901,"midi":46,"time":79.91143650000001,"velocity":0.3937007874015748},{"duration":0.1327432500000043,"midi":42,"time":80.04417975,"velocity":0.3937007874015748},{"duration":0.1327432500000043,"midi":56,"time":80.04417975,"velocity":0.3937007874015748},{"duration":0.1327432500000043,"midi":38,"time":80.176923,"velocity":0.3937007874015748},{"duration":0.1327432500000043,"midi":42,"time":80.176923,"velocity":0.3937007874015748},{"duration":0.1327432500000043,"midi":36,"time":80.176923,"velocity":0.3937007874015748},{"duration":0.1327432499999901,"midi":53,"time":80.44240950000001,"velocity":0.3937007874015748},{"duration":1.9911487499999936,"midi":75,"time":80.44240950000001,"velocity":0.3937007874015748},{"duration":2.3893784999999923,"midi":75,"time":80.44240950000001,"velocity":0.3937007874015748},{"duration":1.9911487499999936,"midi":72,"time":80.44240950000001,"velocity":0.3937007874015748},{"duration":1.9911487499999936,"midi":68,"time":80.44240950000001,"velocity":0.3937007874015748},{"duration":1.9911487499999936,"midi":65,"time":80.44240950000001,"velocity":0.3937007874015748},{"duration":1.9911487499999936,"midi":63,"time":80.44240950000001,"velocity":0.3937007874015748},{"duration":0.1327432499999901,"midi":42,"time":80.44240950000001,"velocity":0.3937007874015748},{"duration":2.3893784999999923,"midi":72,"time":80.44240950000001,"velocity":0.3937007874015748},{"duration":2.3893784999999923,"midi":65,"time":80.44240950000001,"velocity":0.3937007874015748},{"duration":2.3893784999999923,"midi":68,"time":80.44240950000001,"velocity":0.3937007874015748},{"duration":0.1327432500000043,"midi":42,"time":80.57515275,"velocity":0.3937007874015748},{"duration":0.1327432500000043,"midi":56,"time":80.57515275,"velocity":0.3937007874015748},{"duration":0.1327432500000043,"midi":44,"time":80.57515275,"velocity":0.3937007874015748},{"duration":0.1327432500000043,"midi":36,"time":80.707896,"velocity":0.3937007874015748},{"duration":0.1327432500000043,"midi":42,"time":80.707896,"velocity":0.3937007874015748},{"duration":0.1327432500000043,"midi":46,"time":80.707896,"velocity":0.3937007874015748},{"duration":0.1327432499999901,"midi":56,"time":80.84063925000001,"velocity":0.3937007874015748},{"duration":0.1327432500000043,"midi":46,"time":80.9733825,"velocity":0.3937007874015748},{"duration":0.1327432500000043,"midi":42,"time":80.9733825,"velocity":0.3937007874015748},{"duration":0.1327432500000043,"midi":42,"time":81.10612575,"velocity":0.3937007874015748},{"duration":0.1327432500000043,"midi":49,"time":81.10612575,"velocity":0.3937007874015748},{"duration":0.1327432499999901,"midi":36,"time":81.23886900000001,"velocity":0.3937007874015748},{"duration":0.1327432499999901,"midi":38,"time":81.23886900000001,"velocity":0.3937007874015748},{"duration":0.1327432499999901,"midi":42,"time":81.23886900000001,"velocity":0.3937007874015748},{"duration":0.1327432499999901,"midi":56,"time":81.23886900000001,"velocity":0.3937007874015748},{"duration":0.1327432500000043,"midi":49,"time":81.37161225,"velocity":0.3937007874015748},{"duration":0.1327432500000043,"midi":42,"time":81.5043555,"velocity":0.3937007874015748},{"duration":0.1327432500000043,"midi":48,"time":81.5043555,"velocity":0.3937007874015748},{"duration":0.1327432500000043,"midi":42,"time":81.63709875,"velocity":0.3937007874015748},{"duration":0.1327432500000043,"midi":53,"time":81.63709875,"velocity":0.3937007874015748},{"duration":0.1327432499999901,"midi":56,"time":81.76984200000001,"velocity":0.3937007874015748},{"duration":0.1327432499999901,"midi":42,"time":81.76984200000001,"velocity":0.3937007874015748},{"duration":0.1327432499999901,"midi":36,"time":81.76984200000001,"velocity":0.3937007874015748},{"duration":0.1327432499999901,"midi":44,"time":81.76984200000001,"velocity":0.3937007874015748},{"duration":0.1327432500000043,"midi":56,"time":82.0353285,"velocity":0.3937007874015748},{"duration":0.1327432500000043,"midi":46,"time":82.0353285,"velocity":0.3937007874015748},{"duration":0.1327432500000043,"midi":42,"time":82.0353285,"velocity":0.3937007874015748},{"duration":0.1327432499999901,"midi":42,"time":82.16807175000001,"velocity":0.3937007874015748},{"duration":0.1327432500000043,"midi":36,"time":82.300815,"velocity":0.3937007874015748},{"duration":0.1327432500000043,"midi":38,"time":82.300815,"velocity":0.3937007874015748},{"duration":0.1327432500000043,"midi":56,"time":82.300815,"velocity":0.3937007874015748},{"duration":0.1327432500000043,"midi":42,"time":82.300815,"velocity":0.3937007874015748},{"duration":0.1327432500000043,"midi":58,"time":82.43355825,"velocity":0.3937007874015748},{"duration":2.256635250000002,"midi":66,"time":82.56630150000001,"velocity":0.3937007874015748},{"duration":2.123891999999998,"midi":70,"time":82.56630150000001,"velocity":0.3937007874015748},{"duration":2.123891999999998,"midi":73,"time":82.56630150000001,"velocity":0.3937007874015748},{"duration":2.123891999999998,"midi":77,"time":82.56630150000001,"velocity":0.3937007874015748},{"duration":0.1327432499999901,"midi":46,"time":82.56630150000001,"velocity":0.3937007874015748},{"duration":2.123891999999998,"midi":68,"time":82.56630150000001,"velocity":0.3937007874015748},{"duration":0.1327432499999901,"midi":44,"time":82.56630150000001,"velocity":0.3937007874015748},{"duration":0.1327432500000043,"midi":44,"time":82.69904475,"velocity":0.3937007874015748},{"duration":0.1327432500000043,"midi":36,"time":82.831788,"velocity":0.3937007874015748},{"duration":0.1327432500000043,"midi":46,"time":82.831788,"velocity":0.3937007874015748},{"duration":0.1327432500000043,"midi":42,"time":82.831788,"velocity":0.3937007874015748},{"duration":2.123891999999998,"midi":66,"time":82.831788,"velocity":0.3937007874015748},{"duration":2.123891999999998,"midi":70,"time":82.831788,"velocity":0.3937007874015748},{"duration":2.123891999999998,"midi":73,"time":82.831788,"velocity":0.3937007874015748},{"duration":0.1327432499999901,"midi":56,"time":82.96453125000001,"velocity":0.3937007874015748},{"duration":0.1327432500000043,"midi":42,"time":83.0972745,"velocity":0.3937007874015748},{"duration":0.1327432500000043,"midi":46,"time":83.0972745,"velocity":0.3937007874015748},{"duration":0.1327432500000043,"midi":49,"time":83.23001775,"velocity":0.3937007874015748},{"duration":0.1327432500000043,"midi":42,"time":83.23001775,"velocity":0.3937007874015748},{"duration":0.1327432500000043,"midi":42,"time":83.362761,"velocity":0.3937007874015748},{"duration":0.1327432500000043,"midi":36,"time":83.362761,"velocity":0.3937007874015748},{"duration":0.1327432500000043,"midi":38,"time":83.362761,"velocity":0.3937007874015748},{"duration":0.1327432500000043,"midi":56,"time":83.362761,"velocity":0.3937007874015748},{"duration":0.1327432499999901,"midi":49,"time":83.49550425000001,"velocity":0.3937007874015748},{"duration":0.1327432500000043,"midi":42,"time":83.6282475,"velocity":0.3937007874015748},{"duration":0.1327432500000043,"midi":48,"time":83.6282475,"velocity":0.3937007874015748},{"duration":0.1327432500000043,"midi":53,"time":83.76099075,"velocity":0.3937007874015748},{"duration":0.1327432500000043,"midi":42,"time":83.76099075,"velocity":0.3937007874015748},{"duration":0.1327432499999901,"midi":36,"time":83.89373400000001,"velocity":0.3937007874015748},{"duration":0.1327432499999901,"midi":42,"time":83.89373400000001,"velocity":0.3937007874015748},{"duration":0.1327432499999901,"midi":44,"time":83.89373400000001,"velocity":0.3937007874015748},{"duration":0.1327432499999901,"midi":56,"time":83.89373400000001,"velocity":0.3937007874015748},{"duration":0.1327432500000043,"midi":56,"time":84.1592205,"velocity":0.3937007874015748},{"duration":0.1327432500000043,"midi":42,"time":84.1592205,"velocity":0.3937007874015748},{"duration":0.1327432500000043,"midi":46,"time":84.1592205,"velocity":0.3937007874015748},{"duration":0.1327432499999901,"midi":42,"time":84.29196375000001,"velocity":0.3937007874015748},{"duration":0.1327432500000043,"midi":42,"time":84.424707,"velocity":0.3937007874015748},{"duration":0.1327432500000043,"midi":36,"time":84.424707,"velocity":0.3937007874015748},{"duration":0.1327432500000043,"midi":38,"time":84.424707,"velocity":0.3937007874015748},{"duration":0.1327432500000043,"midi":42,"time":84.6901935,"velocity":0.3937007874015748},{"duration":0.1327432500000043,"midi":51,"time":84.6901935,"velocity":0.3937007874015748},{"duration":0.1327432499999901,"midi":42,"time":84.82293675000001,"velocity":0.3937007874015748},{"duration":0.1327432499999901,"midi":44,"time":84.82293675000001,"velocity":0.3937007874015748},{"duration":0.1327432499999901,"midi":53,"time":84.82293675000001,"velocity":0.3937007874015748},{"duration":0.1327432500000043,"midi":66,"time":84.95568,"velocity":0.3937007874015748},{"duration":0.7964594999999974,"midi":77,"time":84.95568,"velocity":0.3937007874015748},{"duration":0.1327432500000043,"midi":70,"time":84.95568,"velocity":0.3937007874015748},{"duration":0.1327432500000043,"midi":63,"time":84.95568,"velocity":0.3937007874015748},{"duration":0.1327432500000043,"midi":73,"time":84.95568,"velocity":0.3937007874015748},{"duration":0.1327432500000043,"midi":42,"time":84.95568,"velocity":0.3937007874015748},{"duration":0.1327432500000043,"midi":36,"time":84.95568,"velocity":0.3937007874015748},{"duration":0.530973000000003,"midi":66,"time":84.95568,"velocity":0.3937007874015748},{"duration":0.530973000000003,"midi":73,"time":84.95568,"velocity":0.3937007874015748},{"duration":0.1327432500000043,"midi":46,"time":84.95568,"velocity":0.3937007874015748},{"duration":0.530973000000003,"midi":70,"time":84.95568,"velocity":0.3937007874015748},{"duration":0.1327432500000043,"midi":56,"time":85.08842325,"velocity":0.3937007874015748},{"duration":0.1327432499999901,"midi":46,"time":85.22116650000001,"velocity":0.3937007874015748},{"duration":0.1327432499999901,"midi":38,"time":85.22116650000001,"velocity":0.3937007874015748},{"duration":0.1327432499999901,"midi":42,"time":85.22116650000001,"velocity":0.3937007874015748},{"duration":0.3982297499999987,"midi":66,"time":85.35390975,"velocity":0.3937007874015748},{"duration":0.3982297499999987,"midi":73,"time":85.35390975,"velocity":0.3937007874015748},{"duration":0.1327432500000043,"midi":49,"time":85.35390975,"velocity":0.3937007874015748},{"duration":0.1327432500000043,"midi":42,"time":85.35390975,"velocity":0.3937007874015748},{"duration":0.3982297499999987,"midi":70,"time":85.35390975,"velocity":0.3937007874015748},{"duration":0.1327432500000043,"midi":63,"time":85.35390975,"velocity":0.3937007874015748},{"duration":0.1327432500000043,"midi":42,"time":85.486653,"velocity":0.3937007874015748},{"duration":0.1327432500000043,"midi":36,"time":85.486653,"velocity":0.3937007874015748},{"duration":0.1327432500000043,"midi":56,"time":85.486653,"velocity":0.3937007874015748},{"duration":0.1327432499999901,"midi":49,"time":85.61939625000001,"velocity":0.3937007874015748},{"duration":0.1327432499999901,"midi":38,"time":85.61939625000001,"velocity":0.3937007874015748},{"duration":0.6637162500000073,"midi":68,"time":85.7521395,"velocity":0.3937007874015748},{"duration":0.1327432500000043,"midi":46,"time":85.7521395,"velocity":0.3937007874015748},{"duration":0.1327432500000043,"midi":48,"time":85.7521395,"velocity":0.3937007874015748},{"duration":0.6637162500000073,"midi":72,"time":85.7521395,"velocity":0.3937007874015748},{"duration":0.6637162500000073,"midi":65,"time":85.7521395,"velocity":0.3937007874015748},{"duration":0.6637162500000073,"midi":68,"time":85.7521395,"velocity":0.3937007874015748},{"duration":0.6637162500000073,"midi":75,"time":85.7521395,"velocity":0.3937007874015748},{"duration":0.3982297500000129,"midi":56,"time":85.7521395,"velocity":0.3937007874015748},{"duration":0.9292027500000017,"midi":68,"time":85.7521395,"velocity":0.3937007874015748},{"duration":1.3274325000000005,"midi":65,"time":85.7521395,"velocity":0.3937007874015748},{"duration":1.3274325000000005,"midi":72,"time":85.7521395,"velocity":0.3937007874015748},{"duration":1.3274325000000005,"midi":75,"time":85.7521395,"velocity":0.3937007874015748},{"duration":0.1327432500000043,"midi":53,"time":85.88488275,"velocity":0.3937007874015748},{"duration":0.1327432500000043,"midi":36,"time":86.017626,"velocity":0.3937007874015748},{"duration":0.1327432500000043,"midi":38,"time":86.017626,"velocity":0.3937007874015748},{"duration":0.1327432500000043,"midi":42,"time":86.017626,"velocity":0.3937007874015748},{"duration":0.1327432500000043,"midi":44,"time":86.017626,"velocity":0.3937007874015748},{"duration":0.3982297499999987,"midi":56,"time":86.017626,"velocity":0.3937007874015748},{"duration":0.1327432500000043,"midi":38,"time":86.2831125,"velocity":0.3937007874015748},{"duration":0.1327432500000043,"midi":42,"time":86.2831125,"velocity":0.3937007874015748},{"duration":0.1327432500000043,"midi":46,"time":86.2831125,"velocity":0.3937007874015748},{"duration":0.1327432500000043,"midi":56,"time":86.2831125,"velocity":0.3937007874015748},{"duration":0.1327432500000043,"midi":42,"time":86.41585575,"velocity":0.3937007874015748},{"duration":0.1327432500000043,"midi":38,"time":86.41585575,"velocity":0.3937007874015748},{"duration":0.1327432499999901,"midi":68,"time":86.54859900000001,"velocity":0.3937007874015748},{"duration":0.1327432499999901,"midi":38,"time":86.54859900000001,"velocity":0.3937007874015748},{"duration":0.1327432499999901,"midi":36,"time":86.54859900000001,"velocity":0.3937007874015748},{"duration":0.1327432499999901,"midi":56,"time":86.54859900000001,"velocity":0.3937007874015748},{"duration":0.1327432499999901,"midi":42,"time":86.54859900000001,"velocity":0.3937007874015748},{"duration":0.1327432499999901,"midi":41,"time":86.54859900000001,"velocity":0.3937007874015748},{"duration":0.5309729999999888,"midi":68,"time":86.54859900000001,"velocity":0.3937007874015748},{"duration":0.1327432500000043,"midi":70,"time":86.68134225,"velocity":0.3937007874015748},{"duration":0.1327432500000043,"midi":58,"time":86.68134225,"velocity":0.3937007874015748},{"duration":0.1327432500000043,"midi":56,"time":86.68134225,"velocity":0.3937007874015748},{"duration":0.1327432500000043,"midi":38,"time":86.68134225,"velocity":0.3937007874015748},{"duration":0.1327432500000043,"midi":70,"time":86.68134225,"velocity":0.3937007874015748},{"duration":0.1327432500000043,"midi":44,"time":86.8140855,"velocity":0.3937007874015748},{"duration":0.1327432500000043,"midi":73,"time":86.8140855,"velocity":0.3937007874015748},{"duration":0.1327432500000043,"midi":73,"time":86.8140855,"velocity":0.3937007874015748},{"duration":0.1327432500000043,"midi":61,"time":86.8140855,"velocity":0.3937007874015748},{"duration":0.1327432500000043,"midi":38,"time":86.8140855,"velocity":0.3937007874015748},{"duration":0.1327432500000043,"midi":46,"time":86.8140855,"velocity":0.3937007874015748},{"duration":0.1327432499999901,"midi":56,"time":86.94682875000001,"velocity":0.3937007874015748},{"duration":0.1327432499999901,"midi":58,"time":86.94682875000001,"velocity":0.3937007874015748},{"duration":0.1327432499999901,"midi":41,"time":86.94682875000001,"velocity":0.3937007874015748},{"duration":0.1327432499999901,"midi":70,"time":86.94682875000001,"velocity":0.3937007874015748},{"duration":0.1327432499999901,"midi":70,"time":86.94682875000001,"velocity":0.3937007874015748},{"duration":0.1327432499999901,"midi":38,"time":86.94682875000001,"velocity":0.3937007874015748},{"duration":0.7964595000000116,"midi":66,"time":87.079572,"velocity":0.3937007874015748},{"duration":0.1327432500000043,"midi":36,"time":87.079572,"velocity":0.3937007874015748},{"duration":0.7964595000000116,"midi":66,"time":87.079572,"velocity":0.3937007874015748},{"duration":0.7964595000000116,"midi":58,"time":87.079572,"velocity":0.3937007874015748},{"duration":0.7964595000000116,"midi":61,"time":87.079572,"velocity":0.3937007874015748},{"duration":0.1327432500000043,"midi":42,"time":87.079572,"velocity":0.3937007874015748},{"duration":0.7964595000000116,"midi":73,"time":87.079572,"velocity":0.3937007874015748},{"duration":0.7964595000000116,"midi":85,"time":87.079572,"velocity":0.3937007874015748},{"duration":0.7964595000000116,"midi":77,"time":87.079572,"velocity":0.3937007874015748},{"duration":0.7964595000000116,"midi":70,"time":87.079572,"velocity":0.3937007874015748},{"duration":0.1327432500000043,"midi":39,"time":87.079572,"velocity":0.3937007874015748},{"duration":0.1327432500000043,"midi":56,"time":87.21231525,"velocity":0.3937007874015748},{"duration":0.1327432499999901,"midi":42,"time":87.34505850000001,"velocity":0.3937007874015748},{"duration":0.1327432499999901,"midi":39,"time":87.34505850000001,"velocity":0.3937007874015748},{"duration":0.1327432500000043,"midi":39,"time":87.47780175,"velocity":0.3937007874015748},{"duration":0.1327432500000043,"midi":42,"time":87.47780175,"velocity":0.3937007874015748},{"duration":0.1327432500000043,"midi":36,"time":87.610545,"velocity":0.3937007874015748},{"duration":0.1327432500000043,"midi":39,"time":87.610545,"velocity":0.3937007874015748},{"duration":0.1327432500000043,"midi":38,"time":87.610545,"velocity":0.3937007874015748},{"duration":0.1327432500000043,"midi":56,"time":87.610545,"velocity":0.3937007874015748},{"duration":0.1327432500000043,"midi":42,"time":87.610545,"velocity":0.3937007874015748},{"duration":0.1327432500000043,"midi":48,"time":87.74328825,"velocity":0.3937007874015748},{"duration":0.1327432499999901,"midi":42,"time":87.87603150000001,"velocity":0.3937007874015748},{"duration":1.3274325000000005,"midi":68,"time":87.87603150000001,"velocity":0.3937007874015748},{"duration":2.123891999999998,"midi":60,"time":87.87603150000001,"velocity":0.3937007874015748},{"duration":1.0619459999999918,"midi":87,"time":87.87603150000001,"velocity":0.3937007874015748},{"duration":1.3274325000000005,"midi":75,"time":87.87603150000001,"velocity":0.3937007874015748},{"duration":2.123891999999998,"midi":68,"time":87.87603150000001,"velocity":0.3937007874015748},{"duration":1.3274325000000005,"midi":72,"time":87.87603150000001,"velocity":0.3937007874015748},{"duration":2.123891999999998,"midi":63,"time":87.87603150000001,"velocity":0.3937007874015748},{"duration":0.1327432499999901,"midi":46,"time":87.87603150000001,"velocity":0.3937007874015748},{"duration":0.1327432500000043,"midi":53,"time":88.00877475,"velocity":0.3937007874015748},{"duration":0.1327432500000043,"midi":42,"time":88.00877475,"velocity":0.3937007874015748},{"duration":0.1327432500000043,"midi":56,"time":88.141518,"velocity":0.3937007874015748},{"duration":0.1327432500000043,"midi":44,"time":88.141518,"velocity":0.3937007874015748},{"duration":0.1327432500000043,"midi":42,"time":88.141518,"velocity":0.3937007874015748},{"duration":0.1327432500000043,"midi":36,"time":88.141518,"velocity":0.3937007874015748},{"duration":0.1327432500000043,"midi":42,"time":88.4070045,"velocity":0.3937007874015748},{"duration":0.1327432500000043,"midi":44,"time":88.4070045,"velocity":0.3937007874015748},{"duration":0.1327432500000043,"midi":56,"time":88.53974775,"velocity":0.3937007874015748},{"duration":0.1327432500000043,"midi":42,"time":88.53974775,"velocity":0.3937007874015748},{"duration":0.1327432499999901,"midi":42,"time":88.67249100000001,"velocity":0.3937007874015748},{"duration":0.1327432499999901,"midi":38,"time":88.67249100000001,"velocity":0.3937007874015748},{"duration":0.1327432499999901,"midi":39,"time":88.67249100000001,"velocity":0.3937007874015748},{"duration":0.1327432499999901,"midi":36,"time":88.67249100000001,"velocity":0.3937007874015748},{"duration":0.1327432500000043,"midi":42,"time":88.9379775,"velocity":0.3937007874015748},{"duration":0.1327432500000043,"midi":53,"time":88.9379775,"velocity":0.3937007874015748},{"duration":0.1327432500000043,"midi":39,"time":88.9379775,"velocity":0.3937007874015748},{"duration":0.2654865000000086,"midi":80,"time":88.9379775,"velocity":0.3937007874015748},{"duration":0.1327432500000043,"midi":56,"time":89.07072075,"velocity":0.3937007874015748},{"duration":0.1327432500000043,"midi":44,"time":89.07072075,"velocity":0.3937007874015748},{"duration":0.1327432500000043,"midi":42,"time":89.07072075,"velocity":0.3937007874015748},{"duration":0.1327432499999901,"midi":41,"time":89.20346400000001,"velocity":0.3937007874015748},{"duration":0.7964594999999974,"midi":75,"time":89.20346400000001,"velocity":0.3937007874015748},{"duration":0.7964594999999974,"midi":72,"time":89.20346400000001,"velocity":0.3937007874015748},{"duration":2.123891999999998,"midi":68,"time":89.20346400000001,"velocity":0.3937007874015748},{"duration":0.7964594999999974,"midi":87,"time":89.20346400000001,"velocity":0.3937007874015748},{"duration":0.1327432499999901,"midi":36,"time":89.20346400000001,"velocity":0.3937007874015748},{"duration":0.1327432499999901,"midi":42,"time":89.20346400000001,"velocity":0.3937007874015748},{"duration":0.1327432500000043,"midi":56,"time":89.33620725,"velocity":0.3937007874015748},{"duration":0.1327432500000043,"midi":42,"time":89.4689505,"velocity":0.3937007874015748},{"duration":0.1327432500000043,"midi":41,"time":89.4689505,"velocity":0.3937007874015748},{"duration":0.1327432499999901,"midi":42,"time":89.60169375000001,"velocity":0.3937007874015748},{"duration":0.1327432499999901,"midi":48,"time":89.60169375000001,"velocity":0.3937007874015748},{"duration":0.1327432500000043,"midi":39,"time":89.734437,"velocity":0.3937007874015748},{"duration":0.1327432500000043,"midi":36,"time":89.734437,"velocity":0.3937007874015748},{"duration":0.1327432500000043,"midi":38,"time":89.734437,"velocity":0.3937007874015748},{"duration":0.1327432500000043,"midi":42,"time":89.734437,"velocity":0.3937007874015748},{"duration":0.1327432500000043,"midi":56,"time":89.734437,"velocity":0.3937007874015748},{"duration":0.1327432500000043,"midi":48,"time":89.86718025,"velocity":0.3937007874015748},{"duration":0.7964594999999974,"midi":61,"time":89.99992350000001,"velocity":0.3937007874015748},{"duration":1.3274325000000005,"midi":70,"time":89.99992350000001,"velocity":0.3937007874015748},{"duration":0.1327432499999901,"midi":46,"time":89.99992350000001,"velocity":0.3937007874015748},{"duration":1.3274325000000005,"midi":77,"time":89.99992350000001,"velocity":0.3937007874015748},{"duration":0.7964594999999974,"midi":89,"time":89.99992350000001,"velocity":0.3937007874015748},{"duration":0.1327432499999901,"midi":42,"time":89.99992350000001,"velocity":0.3937007874015748},{"duration":1.3274325000000005,"midi":73,"time":89.99992350000001,"velocity":0.3937007874015748},{"duration":0.9292027500000017,"midi":65,"time":89.99992350000001,"velocity":0.3937007874015748},{"duration":0.1327432500000043,"midi":53,"time":90.13266675,"velocity":0.3937007874015748},{"duration":0.1327432500000043,"midi":42,"time":90.13266675,"velocity":0.3937007874015748},{"duration":0.1327432500000043,"midi":56,"time":90.26541,"velocity":0.3937007874015748},{"duration":0.1327432500000043,"midi":36,"time":90.26541,"velocity":0.3937007874015748},{"duration":0.1327432500000043,"midi":42,"time":90.26541,"velocity":0.3937007874015748},{"duration":0.1327432499999901,"midi":56,"time":90.53089650000001,"velocity":0.3937007874015748},{"duration":0.1327432499999901,"midi":42,"time":90.53089650000001,"velocity":0.3937007874015748},{"duration":0.1327432499999901,"midi":46,"time":90.53089650000001,"velocity":0.3937007874015748},{"duration":0.1327432500000043,"midi":42,"time":90.66363975,"velocity":0.3937007874015748},{"duration":0.1327432500000043,"midi":46,"time":90.66363975,"velocity":0.3937007874015748},{"duration":0.1327432500000043,"midi":36,"time":90.796383,"velocity":0.3937007874015748},{"duration":0.1327432500000043,"midi":38,"time":90.796383,"velocity":0.3937007874015748},{"duration":0.530973000000003,"midi":63,"time":90.796383,"velocity":0.3937007874015748},{"duration":0.1327432500000043,"midi":89,"time":90.796383,"velocity":0.3937007874015748},{"duration":0.530973000000003,"midi":60,"time":90.796383,"velocity":0.3937007874015748},{"duration":0.1327432500000043,"midi":42,"time":90.796383,"velocity":0.3937007874015748},{"duration":0.1327432500000043,"midi":56,"time":90.796383,"velocity":0.3937007874015748},{"duration":0.1327432500000043,"midi":39,"time":90.796383,"velocity":0.3937007874015748},{"duration":0.1327432499999901,"midi":48,"time":90.92912625000001,"velocity":0.3937007874015748},{"duration":0.1327432499999901,"midi":58,"time":90.92912625000001,"velocity":0.3937007874015748},{"duration":0.1327432499999901,"midi":90,"time":90.92912625000001,"velocity":0.3937007874015748},{"duration":0.1327432500000043,"midi":89,"time":91.0618695,"velocity":0.3937007874015748},{"duration":0.1327432500000043,"midi":46,"time":91.0618695,"velocity":0.3937007874015748},{"duration":0.1327432500000043,"midi":46,"time":91.0618695,"velocity":0.3937007874015748},{"duration":0.9292027500000017,"midi":85,"time":91.19461275,"velocity":0.3937007874015748},{"duration":0.7964594999999974,"midi":58,"time":91.32735600000001,"velocity":0.3937007874015748},{"duration":0.7964594999999974,"midi":70,"time":91.32735600000001,"velocity":0.3937007874015748},{"duration":0.7964594999999974,"midi":61,"time":91.32735600000001,"velocity":0.3937007874015748},{"duration":0.7964594999999974,"midi":73,"time":91.32735600000001,"velocity":0.3937007874015748},{"duration":0.1327432499999901,"midi":39,"time":91.32735600000001,"velocity":0.3937007874015748},{"duration":0.1327432499999901,"midi":42,"time":91.32735600000001,"velocity":0.3937007874015748},{"duration":0.7964594999999974,"midi":77,"time":91.32735600000001,"velocity":0.3937007874015748},{"duration":0.1327432499999901,"midi":36,"time":91.32735600000001,"velocity":0.3937007874015748},{"duration":0.7964594999999974,"midi":66,"time":91.32735600000001,"velocity":0.3937007874015748},{"duration":0.9292027500000017,"midi":66,"time":91.32735600000001,"velocity":0.3937007874015748},{"duration":0.1327432500000043,"midi":56,"time":91.46009925,"velocity":0.3937007874015748},{"duration":0.1327432500000043,"midi":42,"time":91.5928425,"velocity":0.3937007874015748},{"duration":0.1327432500000043,"midi":39,"time":91.5928425,"velocity":0.3937007874015748},{"duration":0.1327432500000043,"midi":48,"time":91.72558575000001,"velocity":0.3937007874015748},{"duration":0.1327432500000043,"midi":42,"time":91.72558575000001,"velocity":0.3937007874015748},{"duration":0.1327432499999901,"midi":42,"time":91.85832900000001,"velocity":0.3937007874015748},{"duration":0.1327432499999901,"midi":36,"time":91.85832900000001,"velocity":0.3937007874015748},{"duration":0.1327432499999901,"midi":39,"time":91.85832900000001,"velocity":0.3937007874015748},{"duration":0.1327432499999901,"midi":56,"time":91.85832900000001,"velocity":0.3937007874015748},{"duration":0.1327432499999901,"midi":38,"time":91.85832900000001,"velocity":0.3937007874015748},{"duration":0.1327432500000043,"midi":48,"time":91.99107225,"velocity":0.3937007874015748},{"duration":1.3274325000000005,"midi":68,"time":92.1238155,"velocity":0.3937007874015748},{"duration":0.1327432500000043,"midi":46,"time":92.1238155,"velocity":0.3937007874015748},{"duration":0.1327432500000043,"midi":42,"time":92.1238155,"velocity":0.3937007874015748},{"duration":1.8584055000000035,"midi":63,"time":92.1238155,"velocity":0.3937007874015748},{"duration":0.7964594999999974,"midi":87,"time":92.1238155,"velocity":0.3937007874015748},{"duration":1.3274325000000005,"midi":72,"time":92.1238155,"velocity":0.3937007874015748},{"duration":2.123891999999998,"midi":68,"time":92.1238155,"velocity":0.3937007874015748},{"duration":1.3274325000000005,"midi":75,"time":92.1238155,"velocity":0.3937007874015748},{"duration":1.8584055000000035,"midi":60,"time":92.1238155,"velocity":0.3937007874015748},{"duration":0.1327432499999901,"midi":42,"time":92.25655875000001,"velocity":0.3937007874015748},{"duration":0.1327432499999901,"midi":53,"time":92.25655875000001,"velocity":0.3937007874015748},{"duration":0.1327432500000043,"midi":56,"time":92.389302,"velocity":0.3937007874015748},{"duration":0.1327432500000043,"midi":36,"time":92.389302,"velocity":0.3937007874015748},{"duration":0.1327432500000043,"midi":42,"time":92.389302,"velocity":0.3937007874015748},{"duration":0.1327432500000043,"midi":44,"time":92.389302,"velocity":0.3937007874015748},{"duration":0.1327432499999901,"midi":56,"time":92.65478850000001,"velocity":0.3937007874015748},{"duration":0.1327432499999901,"midi":42,"time":92.65478850000001,"velocity":0.3937007874015748},{"duration":0.1327432499999901,"midi":44,"time":92.65478850000001,"velocity":0.3937007874015748},{"duration":0.1327432500000043,"midi":42,"time":92.78753175,"velocity":0.3937007874015748},{"duration":1.7256622499999992,"midi":80,"time":92.920275,"velocity":0.3937007874015748},{"duration":0.1327432500000043,"midi":38,"time":92.920275,"velocity":0.3937007874015748},{"duration":0.1327432500000043,"midi":36,"time":92.920275,"velocity":0.3937007874015748},{"duration":0.1327432500000043,"midi":39,"time":92.920275,"velocity":0.3937007874015748},{"duration":0.1327432500000043,"midi":42,"time":92.920275,"velocity":0.3937007874015748},{"duration":0.1327432500000043,"midi":51,"time":93.1857615,"velocity":0.3937007874015748},{"duration":0.1327432500000043,"midi":39,"time":93.1857615,"velocity":0.3937007874015748},{"duration":0.1327432500000043,"midi":42,"time":93.1857615,"velocity":0.3937007874015748},{"duration":0.1327432500000043,"midi":42,"time":93.31850475,"velocity":0.3937007874015748},{"duration":0.1327432500000043,"midi":53,"time":93.31850475,"velocity":0.3937007874015748},{"duration":0.1327432500000043,"midi":39,"time":93.31850475,"velocity":0.3937007874015748},{"duration":0.7964594999999974,"midi":75,"time":93.451248,"velocity":0.3937007874015748},{"duration":1.1946892499999962,"midi":68,"time":93.451248,"velocity":0.3937007874015748},{"duration":0.1327432500000043,"midi":36,"time":93.451248,"velocity":0.3937007874015748},{"duration":0.7964594999999974,"midi":72,"time":93.451248,"velocity":0.3937007874015748},{"duration":0.1327432500000043,"midi":41,"time":93.451248,"velocity":0.3937007874015748},{"duration":0.1327432500000043,"midi":42,"time":93.451248,"velocity":0.3937007874015748},{"duration":0.2654864999999944,"midi":56,"time":93.451248,"velocity":0.3937007874015748},{"duration":0.3982297499999987,"midi":56,"time":93.58399125000001,"velocity":0.3937007874015748},{"duration":0.1327432500000043,"midi":41,"time":93.7167345,"velocity":0.3937007874015748},{"duration":0.1327432500000043,"midi":42,"time":93.7167345,"velocity":0.3937007874015748},{"duration":0.1327432500000043,"midi":42,"time":93.84947775,"velocity":0.3937007874015748},{"duration":0.1327432500000043,"midi":41,"time":93.84947775,"velocity":0.3937007874015748},{"duration":0.1327432499999901,"midi":38,"time":93.98222100000001,"velocity":0.3937007874015748},{"duration":0.1327432499999901,"midi":36,"time":93.98222100000001,"velocity":0.3937007874015748},{"duration":0.1327432499999901,"midi":39,"time":93.98222100000001,"velocity":0.3937007874015748},{"duration":1.4601757499999906,"midi":61,"time":93.98222100000001,"velocity":0.3937007874015748},{"duration":1.4601757499999906,"midi":65,"time":93.98222100000001,"velocity":0.3937007874015748},{"duration":0.1327432499999901,"midi":56,"time":93.98222100000001,"velocity":0.3937007874015748},{"duration":0.1327432499999901,"midi":42,"time":93.98222100000001,"velocity":0.3937007874015748},{"duration":0.1327432500000043,"midi":48,"time":94.11496425,"velocity":0.3937007874015748},{"duration":0.1327432500000043,"midi":46,"time":94.2477075,"velocity":0.3937007874015748},{"duration":0.1327432500000043,"midi":46,"time":94.2477075,"velocity":0.3937007874015748},{"duration":1.1946892499999962,"midi":73,"time":94.2477075,"velocity":0.3937007874015748},{"duration":1.061946000000006,"midi":70,"time":94.2477075,"velocity":0.3937007874015748},{"duration":1.3274325000000005,"midi":77,"time":94.2477075,"velocity":0.3937007874015748},{"duration":0.1327432499999901,"midi":53,"time":94.38045075000001,"velocity":0.3937007874015748},{"duration":0.1327432500000043,"midi":56,"time":94.513194,"velocity":0.3937007874015748},{"duration":0.2654865000000086,"midi":80,"time":94.513194,"velocity":0.3937007874015748},{"duration":0.1327432500000043,"midi":42,"time":94.513194,"velocity":0.3937007874015748},{"duration":0.2654865000000086,"midi":68,"time":94.513194,"velocity":0.3937007874015748},{"duration":0.1327432500000043,"midi":36,"time":94.513194,"velocity":0.3937007874015748},{"duration":0.3982297499999987,"midi":80,"time":94.64593725,"velocity":0.3937007874015748},{"duration":0.3982297499999987,"midi":68,"time":94.64593725,"velocity":0.3937007874015748},{"duration":0.1327432500000043,"midi":42,"time":94.77868050000001,"velocity":0.3937007874015748},{"duration":0.1327432500000043,"midi":44,"time":94.77868050000001,"velocity":0.3937007874015748},{"duration":0.1327432500000043,"midi":56,"time":94.77868050000001,"velocity":0.3937007874015748},{"duration":0.2654864999999944,"midi":68,"time":94.91142375000001,"velocity":0.3937007874015748},{"duration":0.2654864999999944,"midi":80,"time":94.91142375000001,"velocity":0.3937007874015748},{"duration":0.1327432499999901,"midi":42,"time":94.91142375000001,"velocity":0.3937007874015748},{"duration":0.3982297499999987,"midi":80,"time":95.044167,"velocity":0.3937007874015748},{"duration":0.1327432500000043,"midi":39,"time":95.044167,"velocity":0.3937007874015748},{"duration":0.1327432500000043,"midi":36,"time":95.044167,"velocity":0.3937007874015748},{"duration":0.1327432500000043,"midi":38,"time":95.044167,"velocity":0.3937007874015748},{"duration":0.1327432500000043,"midi":49,"time":95.044167,"velocity":0.3937007874015748},{"duration":0.3982297499999987,"midi":68,"time":95.044167,"velocity":0.3937007874015748},{"duration":0.1327432500000043,"midi":42,"time":95.044167,"velocity":0.3937007874015748},{"duration":0.1327432500000043,"midi":46,"time":95.17691025,"velocity":0.3937007874015748},{"duration":0.1327432500000043,"midi":82,"time":95.17691025,"velocity":0.3937007874015748},{"duration":0.1327432500000043,"midi":56,"time":95.17691025,"velocity":0.3937007874015748},{"duration":0.3982297499999987,"midi":70,"time":95.17691025,"velocity":0.3937007874015748},{"duration":0.1327432500000043,"midi":39,"time":95.17691025,"velocity":0.3937007874015748},{"duration":0.1327432499999901,"midi":85,"time":95.30965350000001,"velocity":0.3937007874015748},{"duration":0.1327432499999901,"midi":39,"time":95.30965350000001,"velocity":0.3937007874015748},{"duration":0.1327432499999901,"midi":46,"time":95.30965350000001,"velocity":0.3937007874015748},{"duration":0.2654864999999944,"midi":73,"time":95.30965350000001,"velocity":0.3937007874015748},{"duration":0.1327432500000043,"midi":85,"time":95.44239675,"velocity":0.3937007874015748},{"duration":0.1327432500000043,"midi":56,"time":95.44239675,"velocity":0.3937007874015748},{"duration":0.1327432500000043,"midi":73,"time":95.44239675,"velocity":0.3937007874015748},{"duration":0.1327432500000043,"midi":49,"time":95.44239675,"velocity":0.3937007874015748},{"duration":0.1327432500000043,"midi":39,"time":95.44239675,"velocity":0.3937007874015748},{"duration":0.7964594999999974,"midi":66,"time":95.57514,"velocity":0.3937007874015748},{"duration":0.7964594999999974,"midi":85,"time":95.57514,"velocity":0.3937007874015748},{"duration":0.7964594999999974,"midi":73,"time":95.57514,"velocity":0.3937007874015748},{"duration":0.7964594999999974,"midi":77,"time":95.57514,"velocity":0.3937007874015748},{"duration":0.7964594999999974,"midi":70,"time":95.57514,"velocity":0.3937007874015748},{"duration":0.7964594999999974,"midi":61,"time":95.57514,"velocity":0.3937007874015748},{"duration":0.1327432500000043,"midi":36,"time":95.57514,"velocity":0.3937007874015748},{"duration":0.1327432500000043,"midi":39,"time":95.57514,"velocity":0.3937007874015748},{"duration":0.1327432500000043,"midi":42,"time":95.57514,"velocity":0.3937007874015748},{"duration":0.7964594999999974,"midi":66,"time":95.57514,"velocity":0.3937007874015748},{"duration":0.7964594999999974,"midi":58,"time":95.57514,"velocity":0.3937007874015748},{"duration":0.1327432499999901,"midi":56,"time":95.70788325000001,"velocity":0.3937007874015748},{"duration":0.1327432500000043,"midi":42,"time":95.8406265,"velocity":0.3937007874015748},{"duration":0.1327432500000043,"midi":39,"time":95.8406265,"velocity":0.3937007874015748},{"duration":0.1327432500000043,"midi":39,"time":95.97336975,"velocity":0.3937007874015748},{"duration":0.1327432500000043,"midi":42,"time":95.97336975,"velocity":0.3937007874015748},{"duration":0.1327432500000043,"midi":42,"time":96.10611300000001,"velocity":0.3937007874015748},{"duration":0.1327432500000043,"midi":56,"time":96.10611300000001,"velocity":0.3937007874015748},{"duration":0.1327432500000043,"midi":38,"time":96.10611300000001,"velocity":0.3937007874015748},{"duration":0.1327432500000043,"midi":36,"time":96.10611300000001,"velocity":0.3937007874015748},{"duration":0.1327432500000043,"midi":39,"time":96.10611300000001,"velocity":0.3937007874015748},{"duration":0.1327432499999901,"midi":48,"time":96.23885625000001,"velocity":0.3937007874015748},{"duration":1.3274325000000005,"midi":68,"time":96.3715995,"velocity":0.3937007874015748},{"duration":1.3274325000000005,"midi":75,"time":96.3715995,"velocity":0.3937007874015748},{"duration":1.061946000000006,"midi":87,"time":96.3715995,"velocity":0.3937007874015748},{"duration":0.1327432500000043,"midi":42,"time":96.3715995,"velocity":0.3937007874015748},{"duration":2.123891999999998,"midi":63,"time":96.3715995,"velocity":0.3937007874015748},{"duration":0.1327432500000043,"midi":46,"time":96.3715995,"velocity":0.3937007874015748},{"duration":2.123891999999998,"midi":68,"time":96.3715995,"velocity":0.3937007874015748},{"duration":1.3274325000000005,"midi":72,"time":96.3715995,"velocity":0.3937007874015748},{"duration":2.123891999999998,"midi":60,"time":96.3715995,"velocity":0.3937007874015748},{"duration":0.1327432500000043,"midi":42,"time":96.50434275,"velocity":0.3937007874015748},{"duration":0.1327432500000043,"midi":53,"time":96.50434275,"velocity":0.3937007874015748},{"duration":0.1327432499999901,"midi":42,"time":96.63708600000001,"velocity":0.3937007874015748},{"duration":0.1327432499999901,"midi":44,"time":96.63708600000001,"velocity":0.3937007874015748},{"duration":0.1327432499999901,"midi":56,"time":96.63708600000001,"velocity":0.3937007874015748},{"duration":0.1327432499999901,"midi":36,"time":96.63708600000001,"velocity":0.3937007874015748},{"duration":0.1327432500000043,"midi":42,"time":96.9025725,"velocity":0.3937007874015748},{"duration":0.1327432500000043,"midi":44,"time":96.9025725,"velocity":0.3937007874015748},{"duration":0.1327432499999901,"midi":42,"time":97.03531575000001,"velocity":0.3937007874015748},{"duration":0.1327432499999901,"midi":56,"time":97.03531575000001,"velocity":0.3937007874015748},{"duration":0.1327432500000043,"midi":36,"time":97.168059,"velocity":0.3937007874015748},{"duration":0.1327432500000043,"midi":38,"time":97.168059,"velocity":0.3937007874015748},{"duration":0.1327432500000043,"midi":39,"time":97.168059,"velocity":0.3937007874015748},{"duration":0.1327432500000043,"midi":42,"time":97.168059,"velocity":0.3937007874015748},{"duration":0.1327432499999901,"midi":39,"time":97.43354550000001,"velocity":0.3937007874015748},{"duration":0.1327432499999901,"midi":53,"time":97.43354550000001,"velocity":0.3937007874015748},{"duration":0.1327432499999901,"midi":42,"time":97.43354550000001,"velocity":0.3937007874015748},{"duration":0.2654864999999944,"midi":80,"time":97.43354550000001,"velocity":0.3937007874015748},{"duration":0.1327432500000043,"midi":44,"time":97.56628875,"velocity":0.3937007874015748},{"duration":0.1327432500000043,"midi":42,"time":97.56628875,"velocity":0.3937007874015748},{"duration":0.1327432500000043,"midi":56,"time":97.56628875,"velocity":0.3937007874015748},{"duration":0.7964594999999974,"midi":87,"time":97.699032,"velocity":0.3937007874015748},{"duration":2.123891999999998,"midi":68,"time":97.699032,"velocity":0.3937007874015748},{"duration":0.1327432500000043,"midi":42,"time":97.699032,"velocity":0.3937007874015748},{"duration":0.7964594999999974,"midi":72,"time":97.699032,"velocity":0.3937007874015748},{"duration":0.1327432500000043,"midi":36,"time":97.699032,"velocity":0.3937007874015748},{"duration":0.1327432500000043,"midi":41,"time":97.699032,"velocity":0.3937007874015748},{"duration":0.7964594999999974,"midi":75,"time":97.699032,"velocity":0.3937007874015748},{"duration":0.1327432500000043,"midi":56,"time":97.83177525,"velocity":0.3937007874015748},{"duration":0.1327432499999901,"midi":42,"time":97.96451850000001,"velocity":0.3937007874015748},{"duration":0.1327432499999901,"midi":41,"time":97.96451850000001,"velocity":0.3937007874015748},{"duration":0.1327432500000043,"midi":42,"time":98.09726175,"velocity":0.3937007874015748},{"duration":0.1327432500000043,"midi":48,"time":98.09726175,"velocity":0.3937007874015748},{"duration":0.1327432500000043,"midi":36,"time":98.230005,"velocity":0.3937007874015748},{"duration":0.1327432500000043,"midi":38,"time":98.230005,"velocity":0.3937007874015748},{"duration":0.1327432500000043,"midi":42,"time":98.230005,"velocity":0.3937007874015748},{"duration":0.1327432500000043,"midi":39,"time":98.230005,"velocity":0.3937007874015748},{"duration":0.1327432500000043,"midi":56,"time":98.230005,"velocity":0.3937007874015748},{"duration":0.1327432499999901,"midi":48,"time":98.36274825000001,"velocity":0.3937007874015748},{"duration":1.3274325000000005,"midi":77,"time":98.4954915,"velocity":0.3937007874015748},{"duration":1.3274325000000005,"midi":73,"time":98.4954915,"velocity":0.3937007874015748},{"duration":0.9292027500000017,"midi":65,"time":98.4954915,"velocity":0.3937007874015748},{"duration":0.1327432500000043,"midi":42,"time":98.4954915,"velocity":0.3937007874015748},{"duration":0.7964595000000116,"midi":61,"time":98.4954915,"velocity":0.3937007874015748},{"duration":0.7964595000000116,"midi":89,"time":98.4954915,"velocity":0.3937007874015748},{"duration":0.1327432500000043,"midi":46,"time":98.4954915,"velocity":0.3937007874015748},{"duration":1.3274325000000005,"midi":70,"time":98.4954915,"velocity":0.3937007874015748},{"duration":0.1327432500000043,"midi":42,"time":98.62823475,"velocity":0.3937007874015748},{"duration":0.1327432500000043,"midi":53,"time":98.62823475,"velocity":0.3937007874015748},{"duration":0.1327432499999901,"midi":36,"time":98.76097800000001,"velocity":0.3937007874015748},{"duration":0.1327432499999901,"midi":42,"time":98.76097800000001,"velocity":0.3937007874015748},{"duration":0.1327432499999901,"midi":56,"time":98.76097800000001,"velocity":0.3937007874015748},{"duration":0.1327432500000043,"midi":56,"time":99.0264645,"velocity":0.3937007874015748},{"duration":0.1327432500000043,"midi":42,"time":99.0264645,"velocity":0.3937007874015748},{"duration":0.1327432500000043,"midi":46,"time":99.0264645,"velocity":0.3937007874015748},{"duration":0.1327432500000043,"midi":42,"time":99.15920775000001,"velocity":0.3937007874015748},{"duration":0.1327432500000043,"midi":46,"time":99.15920775000001,"velocity":0.3937007874015748},{"duration":0.1327432499999901,"midi":42,"time":99.29195100000001,"velocity":0.3937007874015748},{"duration":0.1327432499999901,"midi":36,"time":99.29195100000001,"velocity":0.3937007874015748},{"duration":0.1327432499999901,"midi":89,"time":99.29195100000001,"velocity":0.3937007874015748},{"duration":0.1327432499999901,"midi":56,"time":99.29195100000001,"velocity":0.3937007874015748},{"duration":0.5309729999999888,"midi":60,"time":99.29195100000001,"velocity":0.3937007874015748},{"duration":0.5309729999999888,"midi":63,"time":99.29195100000001,"velocity":0.3937007874015748},{"duration":0.1327432499999901,"midi":39,"time":99.29195100000001,"velocity":0.3937007874015748},{"duration":0.1327432499999901,"midi":38,"time":99.29195100000001,"velocity":0.3937007874015748},{"duration":0.1327432500000043,"midi":48,"time":99.42469425,"velocity":0.3937007874015748},{"duration":0.1327432500000043,"midi":90,"time":99.42469425,"velocity":0.3937007874015748},{"duration":0.1327432500000043,"midi":58,"time":99.42469425,"velocity":0.3937007874015748},{"duration":0.1327432500000043,"midi":46,"time":99.5574375,"velocity":0.3937007874015748},{"duration":0.1327432500000043,"midi":46,"time":99.5574375,"velocity":0.3937007874015748},{"duration":0.1327432500000043,"midi":89,"time":99.5574375,"velocity":0.3937007874015748},{"duration":0.9292027500000017,"midi":85,"time":99.69018075000001,"velocity":0.3937007874015748},{"duration":0.1327432500000043,"midi":39,"time":99.822924,"velocity":0.3937007874015748},{"duration":0.7964595000000116,"midi":61,"time":99.822924,"velocity":0.3937007874015748},{"duration":0.6637162500000073,"midi":66,"time":99.822924,"velocity":0.3937007874015748},{"duration":0.7964595000000116,"midi":73,"time":99.822924,"velocity":0.3937007874015748},{"duration":0.7964595000000116,"midi":58,"time":99.822924,"velocity":0.3937007874015748},{"duration":0.6637162500000073,"midi":70,"time":99.822924,"velocity":0.3937007874015748},{"duration":0.1327432500000043,"midi":42,"time":99.822924,"velocity":0.3937007874015748},{"duration":0.1327432500000043,"midi":36,"time":99.822924,"velocity":0.3937007874015748},{"duration":0.9292027500000017,"midi":66,"time":99.822924,"velocity":0.3937007874015748},{"duration":0.1327432500000043,"midi":56,"time":99.95566725,"velocity":0.3937007874015748},{"duration":0.1327432499999901,"midi":42,"time":100.08841050000001,"velocity":0.3937007874015748},{"duration":0.1327432499999901,"midi":39,"time":100.08841050000001,"velocity":0.3937007874015748},{"duration":0.1327432500000043,"midi":42,"time":100.22115375,"velocity":0.3937007874015748},{"duration":0.1327432500000043,"midi":48,"time":100.22115375,"velocity":0.3937007874015748},{"duration":0.1327432500000043,"midi":38,"time":100.353897,"velocity":0.3937007874015748},{"duration":0.1327432500000043,"midi":39,"time":100.353897,"velocity":0.3937007874015748},{"duration":0.1327432500000043,"midi":56,"time":100.353897,"velocity":0.3937007874015748},{"duration":0.1327432500000043,"midi":36,"time":100.353897,"velocity":0.3937007874015748},{"duration":0.1327432500000043,"midi":42,"time":100.353897,"velocity":0.3937007874015748},{"duration":0.1327432500000043,"midi":48,"time":100.48664025000001,"velocity":0.3937007874015748},{"duration":0.7964594999999974,"midi":87,"time":100.61938350000001,"velocity":0.3937007874015748},{"duration":0.1327432499999901,"midi":42,"time":100.61938350000001,"velocity":0.3937007874015748},{"duration":1.3274325000000005,"midi":75,"time":100.61938350000001,"velocity":0.3937007874015748},{"duration":0.1327432499999901,"midi":46,"time":100.61938350000001,"velocity":0.3937007874015748},{"duration":1.3274325000000005,"midi":72,"time":100.61938350000001,"velocity":0.3937007874015748},{"duration":1.8584054999999893,"midi":63,"time":100.61938350000001,"velocity":0.3937007874015748},{"duration":1.3274325000000005,"midi":68,"time":100.61938350000001,"velocity":0.3937007874015748},{"duration":1.8584054999999893,"midi":60,"time":100.61938350000001,"velocity":0.3937007874015748},{"duration":1.8584054999999893,"midi":68,"time":100.61938350000001,"velocity":0.3937007874015748},{"duration":0.1327432500000043,"midi":42,"time":100.75212675,"velocity":0.3937007874015748},{"duration":0.1327432500000043,"midi":53,"time":100.75212675,"velocity":0.3937007874015748},{"duration":0.1327432500000043,"midi":56,"time":100.88487,"velocity":0.3937007874015748},{"duration":0.1327432500000043,"midi":44,"time":100.88487,"velocity":0.3937007874015748},{"duration":0.1327432500000043,"midi":36,"time":100.88487,"velocity":0.3937007874015748},{"duration":0.1327432500000043,"midi":42,"time":100.88487,"velocity":0.3937007874015748},{"duration":0.1327432500000043,"midi":56,"time":101.1503565,"velocity":0.3937007874015748},{"duration":0.1327432500000043,"midi":44,"time":101.1503565,"velocity":0.3937007874015748},{"duration":0.1327432500000043,"midi":42,"time":101.1503565,"velocity":0.3937007874015748},{"duration":0.1327432500000043,"midi":42,"time":101.28309975,"velocity":0.3937007874015748},{"duration":0.1327432499999901,"midi":42,"time":101.41584300000001,"velocity":0.3937007874015748},{"duration":0.1327432499999901,"midi":36,"time":101.41584300000001,"velocity":0.3937007874015748},{"duration":1.7256622499999992,"midi":80,"time":101.41584300000001,"velocity":0.3937007874015748},{"duration":0.1327432499999901,"midi":38,"time":101.41584300000001,"velocity":0.3937007874015748},{"duration":0.1327432499999901,"midi":39,"time":101.41584300000001,"velocity":0.3937007874015748},{"duration":0.1327432500000043,"midi":51,"time":101.6813295,"velocity":0.3937007874015748},{"duration":0.1327432500000043,"midi":42,"time":101.6813295,"velocity":0.3937007874015748},{"duration":0.1327432500000043,"midi":39,"time":101.6813295,"velocity":0.3937007874015748},{"duration":0.1327432500000043,"midi":39,"time":101.81407275000001,"velocity":0.3937007874015748},{"duration":0.1327432500000043,"midi":53,"time":101.81407275000001,"velocity":0.3937007874015748},{"duration":0.1327432500000043,"midi":42,"time":101.81407275000001,"velocity":0.3937007874015748},{"duration":0.1327432499999901,"midi":42,"time":101.94681600000001,"velocity":0.3937007874015748},{"duration":0.5309729999999888,"midi":72,"time":101.94681600000001,"velocity":0.3937007874015748},{"duration":1.1946892499999962,"midi":68,"time":101.94681600000001,"velocity":0.3937007874015748},{"duration":0.1327432499999901,"midi":41,"time":101.94681600000001,"velocity":0.3937007874015748},{"duration":0.1327432499999901,"midi":36,"time":101.94681600000001,"velocity":0.3937007874015748},{"duration":0.5309729999999888,"midi":75,"time":101.94681600000001,"velocity":0.3937007874015748},{"duration":0.2654864999999944,"midi":56,"time":101.94681600000001,"velocity":0.3937007874015748},{"duration":0.3982297499999987,"midi":56,"time":102.07955925,"velocity":0.3937007874015748},{"duration":0.1327432500000043,"midi":48,"time":102.20677153125001,"velocity":0.3937007874015748},{"duration":0.1327432500000043,"midi":41,"time":102.2123025,"velocity":0.3937007874015748},{"duration":0.1327432500000043,"midi":42,"time":102.2123025,"velocity":0.3937007874015748},{"duration":0.1327432499999901,"midi":48,"time":102.342280265625,"velocity":0.3937007874015748},{"duration":0.1327432499999901,"midi":42,"time":102.34504575000001,"velocity":0.3937007874015748},{"duration":0.1327432499999901,"midi":41,"time":102.34504575000001,"velocity":0.3937007874015748},{"duration":0.1327432500000043,"midi":36,"time":102.477789,"velocity":0.3937007874015748},{"duration":0.1327432500000043,"midi":38,"time":102.477789,"velocity":0.3937007874015748},{"duration":0.1327432500000043,"midi":56,"time":102.477789,"velocity":0.3937007874015748},{"duration":0.1327432500000043,"midi":42,"time":102.477789,"velocity":0.3937007874015748},{"duration":1.594301742187497,"midi":73,"time":102.477789,"velocity":0.3937007874015748},{"duration":1.4615584921874927,"midi":65,"time":102.477789,"velocity":0.3937007874015748},{"duration":0.7964594999999974,"midi":68,"time":102.477789,"velocity":0.3937007874015748},{"duration":1.4615584921874927,"midi":61,"time":102.477789,"velocity":0.3937007874015748},{"duration":0.1327432500000043,"midi":39,"time":102.477789,"velocity":0.3937007874015748},{"duration":1.594301742187497,"midi":77,"time":102.477789,"velocity":0.3937007874015748},{"duration":0.1327432500000043,"midi":48,"time":102.61053225,"velocity":0.3937007874015748},{"duration":0.1327432500000043,"midi":48,"time":102.61329773437501,"velocity":0.3937007874015748},{"duration":0.1327432499999901,"midi":46,"time":102.74327550000001,"velocity":0.3937007874015748},{"duration":0.1327432499999901,"midi":46,"time":102.74327550000001,"velocity":0.3937007874015748},{"duration":0.1327432499999901,"midi":45,"time":102.75157195312501,"velocity":0.3937007874015748},{"duration":0.1327432500000043,"midi":53,"time":102.87601875,"velocity":0.3937007874015748},{"duration":0.1327432500000043,"midi":36,"time":103.008762,"velocity":0.3937007874015748},{"duration":0.1327432500000043,"midi":56,"time":103.008762,"velocity":0.3937007874015748},{"duration":0.1327432500000043,"midi":85,"time":103.008762,"velocity":0.3937007874015748},{"duration":0.2654864999999944,"midi":80,"time":103.008762,"velocity":0.3937007874015748},{"duration":0.1327432500000043,"midi":42,"time":103.008762,"velocity":0.3937007874015748},{"duration":0.530973000000003,"midi":68,"time":103.008762,"velocity":0.3937007874015748},{"duration":0.1327432500000043,"midi":45,"time":103.01429296875,"velocity":0.3937007874015748},{"duration":0.3982297499999987,"midi":80,"time":103.14150525000001,"velocity":0.3937007874015748},{"duration":0.530973000000003,"midi":68,"time":103.14150525000001,"velocity":0.3937007874015748},{"duration":0.1327432499999901,"midi":85,"time":103.14150525000001,"velocity":0.3937007874015748},{"duration":0.1327432500000043,"midi":45,"time":103.14703621875,"velocity":0.3937007874015748},{"duration":0.1327432500000043,"midi":42,"time":103.2742485,"velocity":0.3937007874015748},{"duration":0.1327432500000043,"midi":56,"time":103.2742485,"velocity":0.3937007874015748},{"duration":0.1327432500000043,"midi":44,"time":103.2742485,"velocity":0.3937007874015748},{"duration":0.1327432499999901,"midi":45,"time":103.27701398437502,"velocity":0.3937007874015748},{"duration":0.1327432500000043,"midi":42,"time":103.40699175,"velocity":0.3937007874015748},{"duration":0.1327432500000043,"midi":85,"time":103.40699175,"velocity":0.3937007874015748},{"duration":0.39961249218750083,"midi":68,"time":103.40699175,"velocity":0.3937007874015748},{"duration":0.2654865000000086,"midi":80,"time":103.40699175,"velocity":0.3937007874015748},{"duration":0.1327432500000043,"midi":45,"time":103.4180536875,"velocity":0.3937007874015748},{"duration":0.3996124921874866,"midi":68,"time":103.53973500000001,"velocity":0.3937007874015748},{"duration":0.1327432500000043,"midi":49,"time":103.53973500000001,"velocity":0.3937007874015748},{"duration":0.1327432500000043,"midi":85,"time":103.53973500000001,"velocity":0.3937007874015748},{"duration":0.1327432500000043,"midi":42,"time":103.53973500000001,"velocity":0.3937007874015748},{"duration":0.1327432500000043,"midi":36,"time":103.53973500000001,"velocity":0.3937007874015748},{"duration":0.1327432500000043,"midi":38,"time":103.53973500000001,"velocity":0.3937007874015748},{"duration":0.2668692421874965,"midi":80,"time":103.53973500000001,"velocity":0.3937007874015748},{"duration":0.1327432500000043,"midi":39,"time":103.53973500000001,"velocity":0.3937007874015748},{"duration":0.1327432500000043,"midi":41,"time":103.55079693750001,"velocity":0.3937007874015748},{"duration":0.13412599218749222,"midi":46,"time":103.67247825000001,"velocity":0.3937007874015748},{"duration":0.13412599218749222,"midi":56,"time":103.67247825000001,"velocity":0.3937007874015748},{"duration":0.2668692421874823,"midi":80,"time":103.67247825000001,"velocity":0.3937007874015748},{"duration":0.13412599218749222,"midi":85,"time":103.67247825000001,"velocity":0.3937007874015748},{"duration":0.2668692421874823,"midi":68,"time":103.67247825000001,"velocity":0.3937007874015748},{"duration":0.13412599218749222,"midi":39,"time":103.67247825000001,"velocity":0.3937007874015748},{"duration":0.1327432500000043,"midi":41,"time":103.6932193828125,"velocity":0.3937007874015748},{"duration":0.1327432499999901,"midi":41,"time":103.7983077890625,"velocity":0.3937007874015748},{"duration":0.1327432499999901,"midi":39,"time":103.8066042421875,"velocity":0.3937007874015748},{"duration":0.1327432499999901,"midi":46,"time":103.8066042421875,"velocity":0.3937007874015748},{"duration":0.1327432499999901,"midi":85,"time":103.8066042421875,"velocity":0.3937007874015748},{"duration":0.2654864999999944,"midi":68,"time":103.8066042421875,"velocity":0.3937007874015748},{"duration":0.1327432499999901,"midi":80,"time":103.8066042421875,"velocity":0.3937007874015748},{"duration":0.1327432500000043,"midi":80,"time":103.9393474921875,"velocity":0.3937007874015748},{"duration":0.1327432500000043,"midi":49,"time":103.9393474921875,"velocity":0.3937007874015748},{"duration":0.1327432500000043,"midi":85,"time":103.9393474921875,"velocity":0.3937007874015748},{"duration":0.1327432500000043,"midi":39,"time":103.9393474921875,"velocity":0.3937007874015748},{"duration":0.1327432500000043,"midi":56,"time":103.9393474921875,"velocity":0.3937007874015748},{"duration":0.1327432500000043,"midi":68,"time":103.9393474921875,"velocity":0.3937007874015748},{"duration":0.1327432499999901,"midi":41,"time":103.94487846093752,"velocity":0.3937007874015748},{"duration":0.7964594999999974,"midi":73,"time":104.0720907421875,"velocity":0.3937007874015748},{"duration":0.7964594999999974,"midi":61,"time":104.0720907421875,"velocity":0.3937007874015748},{"duration":0.1327432500000043,"midi":39,"time":104.0720907421875,"velocity":0.3937007874015748},{"duration":0.7964594999999974,"midi":70,"time":104.0720907421875,"velocity":0.3937007874015748},{"duration":0.7964594999999974,"midi":66,"time":104.0720907421875,"velocity":0.3937007874015748},{"duration":0.7964594999999974,"midi":77,"time":104.0720907421875,"velocity":0.3937007874015748},{"duration":0.1327432500000043,"midi":36,"time":104.0720907421875,"velocity":0.3937007874015748},{"duration":0.7964594999999974,"midi":85,"time":104.0720907421875,"velocity":0.3937007874015748},{"duration":0.1327432500000043,"midi":42,"time":104.0720907421875,"velocity":0.3937007874015748},{"duration":0.7964594999999974,"midi":66,"time":104.0720907421875,"velocity":0.3937007874015748},{"duration":0.7964594999999974,"midi":58,"time":104.0720907421875,"velocity":0.3937007874015748},{"duration":0.1327432500000043,"midi":56,"time":104.2048339921875,"velocity":0.3937007874015748},{"duration":0.1327432499999901,"midi":39,"time":104.3375772421875,"velocity":0.3937007874015748},{"duration":0.1327432499999901,"midi":42,"time":104.3375772421875,"velocity":0.3937007874015748},{"duration":0.1327432500000043,"midi":42,"time":104.4703204921875,"velocity":0.3937007874015748},{"duration":0.1327432500000043,"midi":39,"time":104.4703204921875,"velocity":0.3937007874015748},{"duration":0.1327432500000043,"midi":56,"time":104.6030637421875,"velocity":0.3937007874015748},{"duration":0.1327432500000043,"midi":38,"time":104.6030637421875,"velocity":0.3937007874015748},{"duration":0.1327432500000043,"midi":42,"time":104.6030637421875,"velocity":0.3937007874015748},{"duration":0.1327432500000043,"midi":39,"time":104.6030637421875,"velocity":0.3937007874015748},{"duration":0.1327432500000043,"midi":36,"time":104.6030637421875,"velocity":0.3937007874015748},{"duration":0.1327432499999901,"midi":48,"time":104.7358069921875,"velocity":0.3937007874015748},{"duration":2.123891999999998,"midi":63,"time":104.8685502421875,"velocity":0.3937007874015748},{"duration":1.3274325000000005,"midi":68,"time":104.8685502421875,"velocity":0.3937007874015748},{"duration":2.123891999999998,"midi":60,"time":104.8685502421875,"velocity":0.3937007874015748},{"duration":2.123891999999998,"midi":68,"time":104.8685502421875,"velocity":0.3937007874015748},{"duration":1.3274325000000005,"midi":72,"time":104.8685502421875,"velocity":0.3937007874015748},{"duration":1.061946000000006,"midi":87,"time":104.8685502421875,"velocity":0.3937007874015748},{"duration":0.1327432500000043,"midi":42,"time":104.8685502421875,"velocity":0.3937007874015748},{"duration":1.3274325000000005,"midi":75,"time":104.8685502421875,"velocity":0.3937007874015748},{"duration":0.1327432500000043,"midi":46,"time":104.8685502421875,"velocity":0.3937007874015748},{"duration":0.1327432500000043,"midi":42,"time":105.0012934921875,"velocity":0.3937007874015748},{"duration":0.1327432500000043,"midi":53,"time":105.0012934921875,"velocity":0.3937007874015748},{"duration":0.1327432499999901,"midi":56,"time":105.1340367421875,"velocity":0.3937007874015748},{"duration":0.1327432499999901,"midi":42,"time":105.1340367421875,"velocity":0.3937007874015748},{"duration":0.1327432499999901,"midi":36,"time":105.1340367421875,"velocity":0.3937007874015748},{"duration":0.1327432499999901,"midi":44,"time":105.1340367421875,"velocity":0.3937007874015748},{"duration":0.1327432500000043,"midi":42,"time":105.3995232421875,"velocity":0.3937007874015748},{"duration":0.1327432500000043,"midi":44,"time":105.3995232421875,"velocity":0.3937007874015748},{"duration":0.1327432500000043,"midi":56,"time":105.5322664921875,"velocity":0.3937007874015748},{"duration":0.1327432500000043,"midi":42,"time":105.5322664921875,"velocity":0.3937007874015748},{"duration":0.1327432499999901,"midi":42,"time":105.66500974218751,"velocity":0.3937007874015748},{"duration":0.1327432499999901,"midi":39,"time":105.66500974218751,"velocity":0.3937007874015748},{"duration":0.1327432499999901,"midi":38,"time":105.66500974218751,"velocity":0.3937007874015748},{"duration":0.1327432499999901,"midi":36,"time":105.66500974218751,"velocity":0.3937007874015748},{"duration":0.1327432500000043,"midi":39,"time":105.9304962421875,"velocity":0.3937007874015748},{"duration":0.2654864999999944,"midi":80,"time":105.9304962421875,"velocity":0.3937007874015748},{"duration":0.1327432500000043,"midi":53,"time":105.9304962421875,"velocity":0.3937007874015748},{"duration":0.1327432500000043,"midi":42,"time":105.9304962421875,"velocity":0.3937007874015748},{"duration":0.1327432499999901,"midi":42,"time":106.0632394921875,"velocity":0.3937007874015748},{"duration":0.1327432499999901,"midi":44,"time":106.0632394921875,"velocity":0.3937007874015748},{"duration":0.1327432499999901,"midi":56,"time":106.0632394921875,"velocity":0.3937007874015748},{"duration":0.7964594999999974,"midi":72,"time":106.1959827421875,"velocity":0.3937007874015748},{"duration":0.7964594999999974,"midi":87,"time":106.1959827421875,"velocity":0.3937007874015748},{"duration":0.1327432500000043,"midi":41,"time":106.1959827421875,"velocity":0.3937007874015748},{"duration":0.1327432500000043,"midi":42,"time":106.1959827421875,"velocity":0.3937007874015748},{"duration":0.7964594999999974,"midi":75,"time":106.1959827421875,"velocity":0.3937007874015748},{"duration":0.1327432500000043,"midi":36,"time":106.1959827421875,"velocity":0.3937007874015748},{"duration":2.123891999999998,"midi":68,"time":106.1959827421875,"velocity":0.3937007874015748},{"duration":0.1327432500000043,"midi":56,"time":106.3287259921875,"velocity":0.3937007874015748},{"duration":0.1327432499999901,"midi":41,"time":106.4614692421875,"velocity":0.3937007874015748},{"duration":0.1327432499999901,"midi":42,"time":106.4614692421875,"velocity":0.3937007874015748},{"duration":0.1327432500000043,"midi":42,"time":106.5942124921875,"velocity":0.3937007874015748},{"duration":0.1327432500000043,"midi":48,"time":106.5942124921875,"velocity":0.3937007874015748},{"duration":0.1327432500000043,"midi":42,"time":106.7269557421875,"velocity":0.3937007874015748},{"duration":0.1327432500000043,"midi":56,"time":106.7269557421875,"velocity":0.3937007874015748},{"duration":0.1327432500000043,"midi":39,"time":106.7269557421875,"velocity":0.3937007874015748},{"duration":0.1327432500000043,"midi":36,"time":106.7269557421875,"velocity":0.3937007874015748},{"duration":0.1327432500000043,"midi":38,"time":106.7269557421875,"velocity":0.3937007874015748},{"duration":0.1327432499999901,"midi":48,"time":106.8596989921875,"velocity":0.3937007874015748},{"duration":0.7964595000000116,"midi":89,"time":106.9924422421875,"velocity":0.3937007874015748},{"duration":0.1327432500000043,"midi":46,"time":106.9924422421875,"velocity":0.3937007874015748},{"duration":1.3274325000000005,"midi":73,"time":106.9924422421875,"velocity":0.3937007874015748},{"duration":0.1327432500000043,"midi":42,"time":106.9924422421875,"velocity":0.3937007874015748},{"duration":1.3274325000000005,"midi":70,"time":106.9924422421875,"velocity":0.3937007874015748},{"duration":1.3274325000000005,"midi":77,"time":106.9924422421875,"velocity":0.3937007874015748},{"duration":0.7964595000000116,"midi":61,"time":106.9924422421875,"velocity":0.3937007874015748},{"duration":0.9292027500000017,"midi":65,"time":106.9924422421875,"velocity":0.3937007874015748},{"duration":0.1327432500000043,"midi":42,"time":107.1251854921875,"velocity":0.3937007874015748},{"duration":0.1327432500000043,"midi":53,"time":107.1251854921875,"velocity":0.3937007874015748},{"duration":0.1327432500000043,"midi":36,"time":107.2579287421875,"velocity":0.3937007874015748},{"duration":0.1327432500000043,"midi":56,"time":107.2579287421875,"velocity":0.3937007874015748},{"duration":0.1327432500000043,"midi":42,"time":107.2579287421875,"velocity":0.3937007874015748},{"duration":0.1327432500000043,"midi":42,"time":107.5234152421875,"velocity":0.3937007874015748},{"duration":0.1327432500000043,"midi":46,"time":107.5234152421875,"velocity":0.3937007874015748},{"duration":0.1327432500000043,"midi":56,"time":107.5234152421875,"velocity":0.3937007874015748},{"duration":0.1327432500000043,"midi":46,"time":107.6561584921875,"velocity":0.3937007874015748},{"duration":0.1327432500000043,"midi":42,"time":107.6561584921875,"velocity":0.3937007874015748},{"duration":0.5309729999999888,"midi":60,"time":107.7889017421875,"velocity":0.3937007874015748},{"duration":0.1327432499999901,"midi":39,"time":107.7889017421875,"velocity":0.3937007874015748},{"duration":0.1327432499999901,"midi":42,"time":107.7889017421875,"velocity":0.3937007874015748},{"duration":0.1327432499999901,"midi":38,"time":107.7889017421875,"velocity":0.3937007874015748},{"duration":0.1327432499999901,"midi":56,"time":107.7889017421875,"velocity":0.3937007874015748},{"duration":0.1327432499999901,"midi":89,"time":107.7889017421875,"velocity":0.3937007874015748},{"duration":0.1327432499999901,"midi":36,"time":107.7889017421875,"velocity":0.3937007874015748},{"duration":0.5309729999999888,"midi":63,"time":107.7889017421875,"velocity":0.3937007874015748},{"duration":0.1327432500000043,"midi":90,"time":107.9216449921875,"velocity":0.3937007874015748},{"duration":0.1327432500000043,"midi":48,"time":107.9216449921875,"velocity":0.3937007874015748},{"duration":0.1327432500000043,"midi":58,"time":107.9216449921875,"velocity":0.3937007874015748},{"duration":0.1327432500000043,"midi":89,"time":108.0543882421875,"velocity":0.3937007874015748},{"duration":0.1327432500000043,"midi":46,"time":108.0543882421875,"velocity":0.3937007874015748},{"duration":0.1327432500000043,"midi":46,"time":108.0543882421875,"velocity":0.3937007874015748},{"duration":0.9292027500000017,"midi":85,"time":108.1871314921875,"velocity":0.3937007874015748},{"duration":0.7964595000000116,"midi":70,"time":108.3198747421875,"velocity":0.3937007874015748},{"duration":0.1327432500000043,"midi":39,"time":108.3198747421875,"velocity":0.3937007874015748},{"duration":0.7964595000000116,"midi":66,"time":108.3198747421875,"velocity":0.3937007874015748},{"duration":0.7964595000000116,"midi":77,"time":108.3198747421875,"velocity":0.3937007874015748},{"duration":0.7964595000000116,"midi":58,"time":108.3198747421875,"velocity":0.3937007874015748},{"duration":0.9292027500000017,"midi":66,"time":108.3198747421875,"velocity":0.3937007874015748},{"duration":0.1327432500000043,"midi":42,"time":108.3198747421875,"velocity":0.3937007874015748},{"duration":0.7964595000000116,"midi":61,"time":108.3198747421875,"velocity":0.3937007874015748},{"duration":0.1327432500000043,"midi":36,"time":108.3198747421875,"velocity":0.3937007874015748},{"duration":0.7964595000000116,"midi":73,"time":108.3198747421875,"velocity":0.3937007874015748},{"duration":0.1327432500000043,"midi":56,"time":108.4526179921875,"velocity":0.3937007874015748},{"duration":0.1327432500000043,"midi":42,"time":108.5853612421875,"velocity":0.3937007874015748},{"duration":0.1327432500000043,"midi":39,"time":108.5853612421875,"velocity":0.3937007874015748},{"duration":0.1327432499999901,"midi":42,"time":108.7181044921875,"velocity":0.3937007874015748},{"duration":0.1327432499999901,"midi":48,"time":108.7181044921875,"velocity":0.3937007874015748},{"duration":0.1327432500000043,"midi":42,"time":108.8508477421875,"velocity":0.3937007874015748},{"duration":0.1327432500000043,"midi":38,"time":108.8508477421875,"velocity":0.3937007874015748},{"duration":0.1327432500000043,"midi":39,"time":108.8508477421875,"velocity":0.3937007874015748},{"duration":0.1327432500000043,"midi":36,"time":108.8508477421875,"velocity":0.3937007874015748},{"duration":0.1327432500000043,"midi":56,"time":108.8508477421875,"velocity":0.3937007874015748},{"duration":0.1327432500000043,"midi":48,"time":108.9835909921875,"velocity":0.3937007874015748},{"duration":0.1327432499999901,"midi":42,"time":109.1163342421875,"velocity":0.3937007874015748},{"duration":1.3274325000000005,"midi":68,"time":109.1163342421875,"velocity":0.3937007874015748},{"duration":1.3274325000000005,"midi":75,"time":109.1163342421875,"velocity":0.3937007874015748},{"duration":0.1327432499999901,"midi":46,"time":109.1163342421875,"velocity":0.3937007874015748},{"duration":0.7964594999999974,"midi":87,"time":109.1163342421875,"velocity":0.3937007874015748},{"duration":1.3274325000000005,"midi":72,"time":109.1163342421875,"velocity":0.3937007874015748},{"duration":1.8584054999999893,"midi":60,"time":109.1163342421875,"velocity":0.3937007874015748},{"duration":2.123891999999998,"midi":68,"time":109.1163342421875,"velocity":0.3937007874015748},{"duration":1.8584054999999893,"midi":63,"time":109.1163342421875,"velocity":0.3937007874015748},{"duration":0.1327432500000043,"midi":42,"time":109.2490774921875,"velocity":0.3937007874015748},{"duration":0.1327432500000043,"midi":53,"time":109.2490774921875,"velocity":0.3937007874015748},{"duration":0.1327432500000043,"midi":56,"time":109.3818207421875,"velocity":0.3937007874015748},{"duration":0.1327432500000043,"midi":44,"time":109.3818207421875,"velocity":0.3937007874015748},{"duration":0.1327432500000043,"midi":42,"time":109.3818207421875,"velocity":0.3937007874015748},{"duration":0.1327432500000043,"midi":36,"time":109.3818207421875,"velocity":0.3937007874015748},{"duration":0.1327432500000043,"midi":44,"time":109.6473072421875,"velocity":0.3937007874015748},{"duration":0.1327432500000043,"midi":42,"time":109.6473072421875,"velocity":0.3937007874015748},{"duration":0.1327432500000043,"midi":56,"time":109.6473072421875,"velocity":0.3937007874015748},{"duration":0.1327432500000043,"midi":42,"time":109.7800504921875,"velocity":0.3937007874015748},{"duration":0.1327432500000043,"midi":38,"time":109.9127937421875,"velocity":0.3937007874015748},{"duration":0.1327432500000043,"midi":36,"time":109.9127937421875,"velocity":0.3937007874015748},{"duration":0.1327432500000043,"midi":42,"time":109.9127937421875,"velocity":0.3937007874015748},{"duration":1.7256622499999992,"midi":80,"time":109.9127937421875,"velocity":0.3937007874015748},{"duration":0.1327432500000043,"midi":39,"time":109.9127937421875,"velocity":0.3937007874015748},{"duration":0.1327432500000043,"midi":51,"time":110.1782802421875,"velocity":0.3937007874015748},{"duration":0.1327432500000043,"midi":42,"time":110.1782802421875,"velocity":0.3937007874015748},{"duration":0.1327432500000043,"midi":39,"time":110.1782802421875,"velocity":0.3937007874015748},{"duration":0.1327432500000043,"midi":42,"time":110.3110234921875,"velocity":0.3937007874015748},{"duration":0.1327432500000043,"midi":39,"time":110.3110234921875,"velocity":0.3937007874015748},{"duration":0.1327432500000043,"midi":53,"time":110.3110234921875,"velocity":0.3937007874015748},{"duration":0.7964594999999974,"midi":72,"time":110.4437667421875,"velocity":0.3937007874015748},{"duration":0.2654864999999944,"midi":56,"time":110.4437667421875,"velocity":0.3937007874015748},{"duration":0.7964594999999974,"midi":75,"time":110.4437667421875,"velocity":0.3937007874015748},{"duration":0.1327432499999901,"midi":36,"time":110.4437667421875,"velocity":0.3937007874015748},{"duration":0.1327432499999901,"midi":42,"time":110.4437667421875,"velocity":0.3937007874015748},{"duration":1.1946892499999962,"midi":68,"time":110.4437667421875,"velocity":0.3937007874015748},{"duration":0.1327432499999901,"midi":41,"time":110.4437667421875,"velocity":0.3937007874015748},{"duration":0.3982297499999987,"midi":56,"time":110.5765099921875,"velocity":0.3937007874015748},{"duration":0.1327432500000043,"midi":42,"time":110.7092532421875,"velocity":0.3937007874015748},{"duration":0.1327432500000043,"midi":41,"time":110.7092532421875,"velocity":0.3937007874015748},{"duration":0.1327432499999901,"midi":41,"time":110.8419964921875,"velocity":0.3937007874015748},{"duration":0.1327432499999901,"midi":42,"time":110.8419964921875,"velocity":0.3937007874015748},{"duration":1.4601757500000048,"midi":65,"time":110.9747397421875,"velocity":0.3937007874015748},{"duration":0.1327432500000043,"midi":39,"time":110.9747397421875,"velocity":0.3937007874015748},{"duration":0.1327432500000043,"midi":36,"time":110.9747397421875,"velocity":0.3937007874015748},{"duration":0.1327432500000043,"midi":56,"time":110.9747397421875,"velocity":0.3937007874015748},{"duration":0.1327432500000043,"midi":42,"time":110.9747397421875,"velocity":0.3937007874015748},{"duration":0.1327432500000043,"midi":38,"time":110.9747397421875,"velocity":0.3937007874015748},{"duration":1.4601757500000048,"midi":61,"time":110.9747397421875,"velocity":0.3937007874015748},{"duration":0.1327432500000043,"midi":48,"time":111.1074829921875,"velocity":0.3937007874015748},{"duration":1.3274325000000005,"midi":77,"time":111.2402262421875,"velocity":0.3937007874015748},{"duration":1.0619459999999918,"midi":70,"time":111.2402262421875,"velocity":0.3937007874015748},{"duration":0.1327432500000043,"midi":46,"time":111.2402262421875,"velocity":0.3937007874015748},{"duration":1.1946892499999962,"midi":73,"time":111.2402262421875,"velocity":0.3937007874015748},{"duration":0.1327432500000043,"midi":46,"time":111.2402262421875,"velocity":0.3937007874015748},{"duration":0.1327432499999901,"midi":53,"time":111.37296949218751,"velocity":0.3937007874015748},{"duration":0.2654865000000086,"midi":68,"time":111.5057127421875,"velocity":0.3937007874015748},{"duration":0.1327432500000043,"midi":36,"time":111.5057127421875,"velocity":0.3937007874015748},{"duration":0.1327432500000043,"midi":56,"time":111.5057127421875,"velocity":0.3937007874015748},{"duration":0.1327432500000043,"midi":42,"time":111.5057127421875,"velocity":0.3937007874015748},{"duration":0.2654865000000086,"midi":80,"time":111.5057127421875,"velocity":0.3937007874015748},{"duration":0.3982297499999987,"midi":80,"time":111.6384559921875,"velocity":0.3937007874015748},{"duration":0.3982297499999987,"midi":68,"time":111.6384559921875,"velocity":0.3937007874015748},{"duration":0.1327432499999901,"midi":42,"time":111.7711992421875,"velocity":0.3937007874015748},{"duration":0.1327432499999901,"midi":56,"time":111.7711992421875,"velocity":0.3937007874015748},{"duration":0.1327432499999901,"midi":44,"time":111.7711992421875,"velocity":0.3937007874015748},{"duration":0.2654865000000086,"midi":68,"time":111.9039424921875,"velocity":0.3937007874015748},{"duration":0.2654865000000086,"midi":80,"time":111.9039424921875,"velocity":0.3937007874015748},{"duration":0.1327432500000043,"midi":42,"time":111.9039424921875,"velocity":0.3937007874015748},{"duration":0.3982297499999987,"midi":80,"time":112.0366857421875,"velocity":0.3937007874015748},{"duration":0.1327432500000043,"midi":49,"time":112.0366857421875,"velocity":0.3937007874015748},{"duration":0.1327432500000043,"midi":38,"time":112.0366857421875,"velocity":0.3937007874015748},{"duration":0.1327432500000043,"midi":36,"time":112.0366857421875,"velocity":0.3937007874015748},{"duration":0.1327432500000043,"midi":42,"time":112.0366857421875,"velocity":0.3937007874015748},{"duration":0.3982297499999987,"midi":68,"time":112.0366857421875,"velocity":0.3937007874015748},{"duration":0.1327432500000043,"midi":39,"time":112.0366857421875,"velocity":0.3937007874015748},{"duration":0.1327432499999901,"midi":39,"time":112.1694289921875,"velocity":0.3937007874015748},{"duration":0.3982297499999987,"midi":70,"time":112.1694289921875,"velocity":0.3937007874015748},{"duration":0.1327432499999901,"midi":46,"time":112.1694289921875,"velocity":0.3937007874015748},{"duration":0.1327432499999901,"midi":56,"time":112.1694289921875,"velocity":0.3937007874015748},{"duration":0.1327432499999901,"midi":82,"time":112.1694289921875,"velocity":0.3937007874015748},{"duration":0.1327432500000043,"midi":46,"time":112.3021722421875,"velocity":0.3937007874015748},{"duration":0.1327432500000043,"midi":85,"time":112.3021722421875,"velocity":0.3937007874015748},{"duration":0.1327432500000043,"midi":39,"time":112.3021722421875,"velocity":0.3937007874015748},{"duration":0.2654865000000086,"midi":73,"time":112.3021722421875,"velocity":0.3937007874015748},{"duration":0.1327432500000043,"midi":56,"time":112.4349154921875,"velocity":0.3937007874015748},{"duration":0.1327432500000043,"midi":85,"time":112.4349154921875,"velocity":0.3937007874015748},{"duration":0.1327432500000043,"midi":73,"time":112.4349154921875,"velocity":0.3937007874015748},{"duration":0.1327432500000043,"midi":49,"time":112.4349154921875,"velocity":0.3937007874015748},{"duration":0.1327432500000043,"midi":39,"time":112.4349154921875,"velocity":0.3937007874015748},{"duration":0.7964594999999974,"midi":77,"time":112.5676587421875,"velocity":0.3937007874015748},{"duration":0.7964594999999974,"midi":58,"time":112.5676587421875,"velocity":0.3937007874015748},{"duration":0.7964594999999974,"midi":66,"time":112.5676587421875,"velocity":0.3937007874015748},{"duration":0.1327432499999901,"midi":39,"time":112.5676587421875,"velocity":0.3937007874015748},{"duration":0.7964594999999974,"midi":85,"time":112.5676587421875,"velocity":0.3937007874015748},{"duration":0.1327432499999901,"midi":42,"time":112.5676587421875,"velocity":0.3937007874015748},{"duration":0.7964594999999974,"midi":61,"time":112.5676587421875,"velocity":0.3937007874015748},{"duration":0.7964594999999974,"midi":73,"time":112.5676587421875,"velocity":0.3937007874015748},{"duration":0.7964594999999974,"midi":66,"time":112.5676587421875,"velocity":0.3937007874015748},{"duration":0.7964594999999974,"midi":70,"time":112.5676587421875,"velocity":0.3937007874015748},{"duration":0.1327432499999901,"midi":36,"time":112.5676587421875,"velocity":0.3937007874015748},{"duration":0.1327432500000043,"midi":56,"time":112.7004019921875,"velocity":0.3937007874015748},{"duration":0.1327432500000043,"midi":42,"time":112.8331452421875,"velocity":0.3937007874015748},{"duration":0.1327432500000043,"midi":39,"time":112.8331452421875,"velocity":0.3937007874015748},{"duration":0.1327432500000043,"midi":39,"time":112.9658884921875,"velocity":0.3937007874015748},{"duration":0.1327432500000043,"midi":42,"time":112.9658884921875,"velocity":0.3937007874015748},{"duration":0.1327432499999901,"midi":39,"time":113.09863174218751,"velocity":0.3937007874015748},{"duration":0.1327432499999901,"midi":36,"time":113.09863174218751,"velocity":0.3937007874015748},{"duration":0.1327432499999901,"midi":38,"time":113.09863174218751,"velocity":0.3937007874015748},{"duration":0.1327432499999901,"midi":56,"time":113.09863174218751,"velocity":0.3937007874015748},{"duration":0.1327432499999901,"midi":42,"time":113.09863174218751,"velocity":0.3937007874015748},{"duration":0.1327432500000043,"midi":48,"time":113.2313749921875,"velocity":0.3937007874015748},{"duration":1.3274325000000005,"midi":72,"time":113.3641182421875,"velocity":0.3937007874015748},{"duration":1.3274325000000005,"midi":68,"time":113.3641182421875,"velocity":0.3937007874015748},{"duration":2.123891999999998,"midi":63,"time":113.3641182421875,"velocity":0.3937007874015748},{"duration":2.123891999999998,"midi":68,"time":113.3641182421875,"velocity":0.3937007874015748},{"duration":0.1327432500000043,"midi":46,"time":113.3641182421875,"velocity":0.3937007874015748},{"duration":2.123891999999998,"midi":60,"time":113.3641182421875,"velocity":0.3937007874015748},{"duration":1.061946000000006,"midi":87,"time":113.3641182421875,"velocity":0.3937007874015748},{"duration":0.1327432500000043,"midi":42,"time":113.3641182421875,"velocity":0.3937007874015748},{"duration":1.3274325000000005,"midi":75,"time":113.3641182421875,"velocity":0.3937007874015748},{"duration":0.1327432499999901,"midi":42,"time":113.4968614921875,"velocity":0.3937007874015748},{"duration":0.1327432499999901,"midi":53,"time":113.4968614921875,"velocity":0.3937007874015748},{"duration":0.1327432500000043,"midi":42,"time":113.6296047421875,"velocity":0.3937007874015748},{"duration":0.1327432500000043,"midi":44,"time":113.6296047421875,"velocity":0.3937007874015748},{"duration":0.1327432500000043,"midi":36,"time":113.6296047421875,"velocity":0.3937007874015748},{"duration":0.1327432500000043,"midi":56,"time":113.6296047421875,"velocity":0.3937007874015748},{"duration":0.1327432499999901,"midi":42,"time":113.8950912421875,"velocity":0.3937007874015748},{"duration":0.1327432499999901,"midi":44,"time":113.8950912421875,"velocity":0.3937007874015748},{"duration":0.1327432500000043,"midi":56,"time":114.0278344921875,"velocity":0.3937007874015748},{"duration":0.1327432500000043,"midi":42,"time":114.0278344921875,"velocity":0.3937007874015748},{"duration":0.1327432500000043,"midi":38,"time":114.1605777421875,"velocity":0.3937007874015748},{"duration":0.1327432500000043,"midi":39,"time":114.1605777421875,"velocity":0.3937007874015748},{"duration":0.1327432500000043,"midi":42,"time":114.1605777421875,"velocity":0.3937007874015748},{"duration":0.1327432500000043,"midi":36,"time":114.1605777421875,"velocity":0.3937007874015748},{"duration":0.1327432499999901,"midi":39,"time":114.42606424218751,"velocity":0.3937007874015748},{"duration":0.1327432499999901,"midi":42,"time":114.42606424218751,"velocity":0.3937007874015748},{"duration":0.2654864999999944,"midi":80,"time":114.42606424218751,"velocity":0.3937007874015748},{"duration":0.1327432499999901,"midi":53,"time":114.42606424218751,"velocity":0.3937007874015748},{"duration":0.1327432500000043,"midi":56,"time":114.5588074921875,"velocity":0.3937007874015748},{"duration":0.1327432500000043,"midi":42,"time":114.5588074921875,"velocity":0.3937007874015748},{"duration":0.1327432500000043,"midi":44,"time":114.5588074921875,"velocity":0.3937007874015748},{"duration":0.1327432500000043,"midi":36,"time":114.6915507421875,"velocity":0.3937007874015748},{"duration":0.1327432500000043,"midi":42,"time":114.6915507421875,"velocity":0.3937007874015748},{"duration":0.7964594999999974,"midi":75,"time":114.6915507421875,"velocity":0.3937007874015748},{"duration":0.1327432500000043,"midi":41,"time":114.6915507421875,"velocity":0.3937007874015748},{"duration":2.123891999999998,"midi":68,"time":114.6915507421875,"velocity":0.3937007874015748},{"duration":0.7964594999999974,"midi":87,"time":114.6915507421875,"velocity":0.3937007874015748},{"duration":0.7964594999999974,"midi":72,"time":114.6915507421875,"velocity":0.3937007874015748},{"duration":0.1327432499999901,"midi":56,"time":114.8242939921875,"velocity":0.3937007874015748},{"duration":0.1327432500000043,"midi":41,"time":114.9570372421875,"velocity":0.3937007874015748},{"duration":0.1327432500000043,"midi":42,"time":114.9570372421875,"velocity":0.3937007874015748},{"duration":0.1327432500000043,"midi":42,"time":115.0897804921875,"velocity":0.3937007874015748},{"duration":0.1327432500000043,"midi":48,"time":115.0897804921875,"velocity":0.3937007874015748},{"duration":0.1327432499999901,"midi":36,"time":115.2225237421875,"velocity":0.3937007874015748},{"duration":0.1327432499999901,"midi":42,"time":115.2225237421875,"velocity":0.3937007874015748},{"duration":0.1327432499999901,"midi":39,"time":115.2225237421875,"velocity":0.3937007874015748},{"duration":0.1327432499999901,"midi":56,"time":115.2225237421875,"velocity":0.3937007874015748},{"duration":0.1327432499999901,"midi":38,"time":115.2225237421875,"velocity":0.3937007874015748},{"duration":0.1327432500000043,"midi":48,"time":115.3552669921875,"velocity":0.3937007874015748},{"duration":0.7964594999999974,"midi":61,"time":115.4880102421875,"velocity":0.3937007874015748},{"duration":1.3274325000000005,"midi":70,"time":115.4880102421875,"velocity":0.3937007874015748},{"duration":0.1327432500000043,"midi":46,"time":115.4880102421875,"velocity":0.3937007874015748},{"duration":1.3274325000000005,"midi":73,"time":115.4880102421875,"velocity":0.3937007874015748},{"duration":0.9292027500000017,"midi":65,"time":115.4880102421875,"velocity":0.3937007874015748},{"duration":0.1327432500000043,"midi":42,"time":115.4880102421875,"velocity":0.3937007874015748},{"duration":0.7964594999999974,"midi":89,"time":115.4880102421875,"velocity":0.3937007874015748},{"duration":1.3274325000000005,"midi":77,"time":115.4880102421875,"velocity":0.3937007874015748},{"duration":0.1327432500000043,"midi":53,"time":115.6207534921875,"velocity":0.3937007874015748},{"duration":0.1327432500000043,"midi":42,"time":115.6207534921875,"velocity":0.3937007874015748},{"duration":0.1327432499999901,"midi":36,"time":115.75349674218751,"velocity":0.3937007874015748},{"duration":0.1327432499999901,"midi":56,"time":115.75349674218751,"velocity":0.3937007874015748},{"duration":0.1327432499999901,"midi":42,"time":115.75349674218751,"velocity":0.3937007874015748},{"duration":0.1327432500000043,"midi":42,"time":116.0189832421875,"velocity":0.3937007874015748},{"duration":0.1327432500000043,"midi":46,"time":116.0189832421875,"velocity":0.3937007874015748},{"duration":0.1327432500000043,"midi":56,"time":116.0189832421875,"velocity":0.3937007874015748},{"duration":0.1327432499999901,"midi":42,"time":116.1517264921875,"velocity":0.3937007874015748},{"duration":0.1327432499999901,"midi":46,"time":116.1517264921875,"velocity":0.3937007874015748},{"duration":0.530973000000003,"midi":63,"time":116.2844697421875,"velocity":0.3937007874015748},{"duration":0.1327432500000043,"midi":89,"time":116.2844697421875,"velocity":0.3937007874015748},{"duration":0.1327432500000043,"midi":39,"time":116.2844697421875,"velocity":0.3937007874015748},{"duration":0.530973000000003,"midi":60,"time":116.2844697421875,"velocity":0.3937007874015748},{"duration":0.1327432500000043,"midi":42,"time":116.2844697421875,"velocity":0.3937007874015748},{"duration":0.1327432500000043,"midi":38,"time":116.2844697421875,"velocity":0.3937007874015748},{"duration":0.1327432500000043,"midi":56,"time":116.2844697421875,"velocity":0.3937007874015748},{"duration":0.1327432500000043,"midi":36,"time":116.2844697421875,"velocity":0.3937007874015748},{"duration":0.1327432500000043,"midi":48,"time":116.4172129921875,"velocity":0.3937007874015748},{"duration":0.1327432500000043,"midi":58,"time":116.4172129921875,"velocity":0.3937007874015748},{"duration":0.1327432500000043,"midi":90,"time":116.4172129921875,"velocity":0.3937007874015748},{"duration":0.1327432499999901,"midi":46,"time":116.5499562421875,"velocity":0.3937007874015748},{"duration":0.1327432499999901,"midi":89,"time":116.5499562421875,"velocity":0.3937007874015748},{"duration":0.1327432499999901,"midi":46,"time":116.5499562421875,"velocity":0.3937007874015748},{"duration":0.9292027500000017,"midi":85,"time":116.6826994921875,"velocity":0.3937007874015748},{"duration":0.7964594999999974,"midi":73,"time":116.8154427421875,"velocity":0.3937007874015748},{"duration":0.1327432500000043,"midi":39,"time":116.8154427421875,"velocity":0.3937007874015748},{"duration":0.6637162500000073,"midi":70,"time":116.8154427421875,"velocity":0.3937007874015748},{"duration":0.7964594999999974,"midi":58,"time":116.8154427421875,"velocity":0.3937007874015748},{"duration":0.1327432500000043,"midi":36,"time":116.8154427421875,"velocity":0.3937007874015748},{"duration":0.1327432500000043,"midi":42,"time":116.8154427421875,"velocity":0.3937007874015748},{"duration":0.6637162500000073,"midi":66,"time":116.8154427421875,"velocity":0.3937007874015748},{"duration":0.7964594999999974,"midi":61,"time":116.8154427421875,"velocity":0.3937007874015748},{"duration":0.9292027500000017,"midi":66,"time":116.8154427421875,"velocity":0.3937007874015748},{"duration":0.1327432499999901,"midi":56,"time":116.9481859921875,"velocity":0.3937007874015748},{"duration":0.1327432500000043,"midi":39,"time":117.0809292421875,"velocity":0.3937007874015748},{"duration":0.1327432500000043,"midi":42,"time":117.0809292421875,"velocity":0.3937007874015748},{"duration":0.1327432500000043,"midi":42,"time":117.2136724921875,"velocity":0.3937007874015748},{"duration":0.1327432500000043,"midi":48,"time":117.2136724921875,"velocity":0.3937007874015748},{"duration":0.1327432500000043,"midi":42,"time":117.3464157421875,"velocity":0.3937007874015748},{"duration":0.1327432500000043,"midi":38,"time":117.3464157421875,"velocity":0.3937007874015748},{"duration":0.1327432500000043,"midi":36,"time":117.3464157421875,"velocity":0.3937007874015748},{"duration":0.1327432500000043,"midi":39,"time":117.3464157421875,"velocity":0.3937007874015748},{"duration":0.1327432500000043,"midi":56,"time":117.3464157421875,"velocity":0.3937007874015748},{"duration":0.1327432499999901,"midi":48,"time":117.47915899218751,"velocity":0.3937007874015748},{"duration":1.3274325000000005,"midi":68,"time":117.6119022421875,"velocity":0.3937007874015748},{"duration":0.7964594999999974,"midi":87,"time":117.6119022421875,"velocity":0.3937007874015748},{"duration":1.8584055000000035,"midi":60,"time":117.6119022421875,"velocity":0.3937007874015748},{"duration":0.1327432500000043,"midi":42,"time":117.6119022421875,"velocity":0.3937007874015748},{"duration":1.8584055000000035,"midi":68,"time":117.6119022421875,"velocity":0.3937007874015748},{"duration":1.3274325000000005,"midi":72,"time":117.6119022421875,"velocity":0.3937007874015748},{"duration":1.8584055000000035,"midi":63,"time":117.6119022421875,"velocity":0.3937007874015748},{"duration":0.1327432500000043,"midi":46,"time":117.6119022421875,"velocity":0.3937007874015748},{"duration":1.3274325000000005,"midi":75,"time":117.6119022421875,"velocity":0.3937007874015748},{"duration":0.1327432500000043,"midi":53,"time":117.7446454921875,"velocity":0.3937007874015748},{"duration":0.1327432500000043,"midi":42,"time":117.7446454921875,"velocity":0.3937007874015748},{"duration":0.1327432499999901,"midi":42,"time":117.8773887421875,"velocity":0.3937007874015748},{"duration":0.1327432499999901,"midi":44,"time":117.8773887421875,"velocity":0.3937007874015748},{"duration":0.1327432499999901,"midi":36,"time":117.8773887421875,"velocity":0.3937007874015748},{"duration":0.1327432499999901,"midi":56,"time":117.8773887421875,"velocity":0.3937007874015748},{"duration":0.1327432500000043,"midi":56,"time":118.1428752421875,"velocity":0.3937007874015748},{"duration":0.1327432500000043,"midi":42,"time":118.1428752421875,"velocity":0.3937007874015748},{"duration":0.1327432500000043,"midi":44,"time":118.1428752421875,"velocity":0.3937007874015748},{"duration":0.1327432499999901,"midi":42,"time":118.2756184921875,"velocity":0.3937007874015748},{"duration":1.7256622500000134,"midi":80,"time":118.4083617421875,"velocity":0.3937007874015748},{"duration":0.1327432500000043,"midi":39,"time":118.4083617421875,"velocity":0.3937007874015748},{"duration":0.1327432500000043,"midi":36,"time":118.4083617421875,"velocity":0.3937007874015748},{"duration":0.1327432500000043,"midi":38,"time":118.4083617421875,"velocity":0.3937007874015748},{"duration":0.1327432500000043,"midi":42,"time":118.4083617421875,"velocity":0.3937007874015748},{"duration":0.1327432500000043,"midi":42,"time":118.6738482421875,"velocity":0.3937007874015748},{"duration":0.1327432500000043,"midi":39,"time":118.6738482421875,"velocity":0.3937007874015748},{"duration":0.1327432500000043,"midi":51,"time":118.6738482421875,"velocity":0.3937007874015748},{"duration":0.1327432499999901,"midi":42,"time":118.80659149218751,"velocity":0.3937007874015748},{"duration":0.1327432499999901,"midi":39,"time":118.80659149218751,"velocity":0.3937007874015748},{"duration":0.1327432499999901,"midi":53,"time":118.80659149218751,"velocity":0.3937007874015748},{"duration":0.2654865000000086,"midi":56,"time":118.9393347421875,"velocity":0.3937007874015748},{"duration":0.1327432500000043,"midi":41,"time":118.9393347421875,"velocity":0.3937007874015748},{"duration":0.1327432500000043,"midi":42,"time":118.9393347421875,"velocity":0.3937007874015748},{"duration":0.1327432500000043,"midi":36,"time":118.9393347421875,"velocity":0.3937007874015748},{"duration":0.530973000000003,"midi":75,"time":118.9393347421875,"velocity":0.3937007874015748},{"duration":0.530973000000003,"midi":72,"time":118.9393347421875,"velocity":0.3937007874015748},{"duration":1.1946892500000104,"midi":68,"time":118.9393347421875,"velocity":0.3937007874015748},{"duration":0.3982297499999987,"midi":56,"time":119.0720779921875,"velocity":0.3937007874015748},{"duration":0.1327432499999901,"midi":41,"time":119.2048212421875,"velocity":0.3937007874015748},{"duration":0.1327432499999901,"midi":48,"time":119.2048212421875,"velocity":0.3937007874015748},{"duration":0.1327432500000043,"midi":48,"time":119.3375644921875,"velocity":0.3937007874015748},{"duration":0.1327432500000043,"midi":41,"time":119.3375644921875,"velocity":0.3937007874015748},{"duration":0.1327432500000043,"midi":38,"time":119.4703077421875,"velocity":0.3937007874015748},{"duration":0.1327432500000043,"midi":39,"time":119.4703077421875,"velocity":0.3937007874015748},{"duration":1.5929189999999949,"midi":77,"time":119.4703077421875,"velocity":0.3937007874015748},{"duration":0.1327432500000043,"midi":36,"time":119.4703077421875,"velocity":0.3937007874015748},{"duration":1.5929189999999949,"midi":73,"time":119.4703077421875,"velocity":0.3937007874015748},{"duration":1.4601757500000048,"midi":61,"time":119.4703077421875,"velocity":0.3937007874015748},{"duration":0.1327432500000043,"midi":56,"time":119.4703077421875,"velocity":0.3937007874015748},{"duration":1.4601757500000048,"midi":65,"time":119.4703077421875,"velocity":0.3937007874015748},{"duration":0.1327432500000043,"midi":48,"time":119.4703077421875,"velocity":0.3937007874015748},{"duration":0.7964594999999974,"midi":68,"time":119.4703077421875,"velocity":0.3937007874015748},{"duration":0.1327432499999901,"midi":48,"time":119.6030509921875,"velocity":0.3937007874015748},{"duration":0.1327432499999901,"midi":48,"time":119.6030509921875,"velocity":0.3937007874015748},{"duration":0.1327432500000043,"midi":46,"time":119.7357942421875,"velocity":0.3937007874015748},{"duration":0.1327432500000043,"midi":46,"time":119.7357942421875,"velocity":0.3937007874015748},{"duration":0.1327432500000043,"midi":45,"time":119.7357942421875,"velocity":0.3937007874015748},{"duration":0.1327432500000043,"midi":53,"time":119.8685374921875,"velocity":0.3937007874015748},{"duration":0.1327432500000043,"midi":45,"time":119.8685374921875,"velocity":0.3937007874015748},{"duration":0.1327432500000043,"midi":45,"time":120.0012807421875,"velocity":0.3937007874015748},{"duration":0.1327432500000043,"midi":36,"time":120.0012807421875,"velocity":0.3937007874015748},{"duration":0.530973000000003,"midi":68,"time":120.0012807421875,"velocity":0.3937007874015748},{"duration":0.1327432500000043,"midi":85,"time":120.0012807421875,"velocity":0.3937007874015748},{"duration":0.1327432500000043,"midi":56,"time":120.0012807421875,"velocity":0.3937007874015748},{"duration":0.2654864999999944,"midi":80,"time":120.0012807421875,"velocity":0.3937007874015748},{"duration":0.5309729999999888,"midi":68,"time":120.13402399218751,"velocity":0.3937007874015748},{"duration":0.3982297499999987,"midi":80,"time":120.13402399218751,"velocity":0.3937007874015748},{"duration":0.1327432499999901,"midi":85,"time":120.13402399218751,"velocity":0.3937007874015748},{"duration":0.1327432499999901,"midi":45,"time":120.13402399218751,"velocity":0.3937007874015748},{"duration":0.1327432500000043,"midi":41,"time":120.2667672421875,"velocity":0.3937007874015748},{"duration":0.1327432500000043,"midi":44,"time":120.2667672421875,"velocity":0.3937007874015748},{"duration":0.1327432500000043,"midi":56,"time":120.2667672421875,"velocity":0.3937007874015748},{"duration":0.3982297499999987,"midi":68,"time":120.3995104921875,"velocity":0.3937007874015748},{"duration":0.1327432500000043,"midi":85,"time":120.3995104921875,"velocity":0.3937007874015748},{"duration":0.1327432500000043,"midi":41,"time":120.3995104921875,"velocity":0.3937007874015748},{"duration":0.2654864999999944,"midi":80,"time":120.3995104921875,"velocity":0.3937007874015748},{"duration":0.3982297499999987,"midi":68,"time":120.5322537421875,"velocity":0.3937007874015748},{"duration":0.1327432499999901,"midi":39,"time":120.5322537421875,"velocity":0.3937007874015748},{"duration":0.1327432499999901,"midi":36,"time":120.5322537421875,"velocity":0.3937007874015748},{"duration":0.1327432499999901,"midi":38,"time":120.5322537421875,"velocity":0.3937007874015748},{"duration":0.1327432499999901,"midi":85,"time":120.5322537421875,"velocity":0.3937007874015748},{"duration":0.1327432499999901,"midi":41,"time":120.5322537421875,"velocity":0.3937007874015748},{"duration":0.2654864999999944,"midi":80,"time":120.5322537421875,"velocity":0.3937007874015748},{"duration":0.1327432499999901,"midi":49,"time":120.5322537421875,"velocity":0.3937007874015748},{"duration":0.1327432500000043,"midi":46,"time":120.6649969921875,"velocity":0.3937007874015748},{"duration":0.2654865000000086,"midi":68,"time":120.6649969921875,"velocity":0.3937007874015748},{"duration":0.1327432500000043,"midi":41,"time":120.6649969921875,"velocity":0.3937007874015748},{"duration":0.1327432500000043,"midi":39,"time":120.6649969921875,"velocity":0.3937007874015748},{"duration":0.1327432500000043,"midi":56,"time":120.6649969921875,"velocity":0.3937007874015748},{"duration":0.1327432500000043,"midi":85,"time":120.6649969921875,"velocity":0.3937007874015748},{"duration":0.2654865000000086,"midi":80,"time":120.6649969921875,"velocity":0.3937007874015748},{"duration":0.2654864999999944,"midi":68,"time":120.7977402421875,"velocity":0.3937007874015748},{"duration":0.1327432500000043,"midi":41,"time":120.7977402421875,"velocity":0.3937007874015748},{"duration":0.1327432500000043,"midi":85,"time":120.7977402421875,"velocity":0.3937007874015748},{"duration":0.1327432500000043,"midi":39,"time":120.7977402421875,"velocity":0.3937007874015748},{"duration":0.1327432500000043,"midi":80,"time":120.7977402421875,"velocity":0.3937007874015748},{"duration":0.1327432499999901,"midi":49,"time":120.9304834921875,"velocity":0.3937007874015748},{"duration":0.1327432499999901,"midi":41,"time":120.9304834921875,"velocity":0.3937007874015748},{"duration":0.1327432499999901,"midi":80,"time":120.9304834921875,"velocity":0.3937007874015748},{"duration":0.1327432499999901,"midi":85,"time":120.9304834921875,"velocity":0.3937007874015748},{"duration":0.1327432499999901,"midi":39,"time":120.9304834921875,"velocity":0.3937007874015748},{"duration":0.1327432499999901,"midi":68,"time":120.9304834921875,"velocity":0.3937007874015748},{"duration":0.1327432499999901,"midi":56,"time":120.9304834921875,"velocity":0.3937007874015748},{"duration":1.8584055000000035,"midi":68,"time":121.0632267421875,"velocity":0.3937007874015748},{"duration":0.1327432500000043,"midi":36,"time":121.0632267421875,"velocity":0.3937007874015748},{"duration":0.1327432500000043,"midi":46,"time":121.0632267421875,"velocity":0.3937007874015748},{"duration":0.1327432500000043,"midi":42,"time":121.0632267421875,"velocity":0.3937007874015748},{"duration":0.1327432500000043,"midi":56,"time":121.1959699921875,"velocity":0.3937007874015748},{"duration":0.1327432499999901,"midi":46,"time":121.3287132421875,"velocity":0.3937007874015748},{"duration":0.1327432499999901,"midi":42,"time":121.3287132421875,"velocity":0.3937007874015748},{"duration":0.1327432500000043,"midi":46,"time":121.4614564921875,"velocity":0.3937007874015748},{"duration":0.1327432500000043,"midi":42,"time":121.4614564921875,"velocity":0.3937007874015748},{"duration":0.1327432500000043,"midi":39,"time":121.5941997421875,"velocity":0.3937007874015748},{"duration":0.1327432500000043,"midi":42,"time":121.5941997421875,"velocity":0.3937007874015748},{"duration":0.1327432500000043,"midi":56,"time":121.5941997421875,"velocity":0.3937007874015748},{"duration":0.1327432500000043,"midi":36,"time":121.5941997421875,"velocity":0.3937007874015748},{"duration":0.1327432500000043,"midi":38,"time":121.5941997421875,"velocity":0.3937007874015748},{"duration":0.1327432500000043,"midi":49,"time":121.7269429921875,"velocity":0.3937007874015748},{"duration":0.1327432499999901,"midi":42,"time":121.85968624218751,"velocity":0.3937007874015748},{"duration":0.1327432499999901,"midi":48,"time":121.85968624218751,"velocity":0.3937007874015748},{"duration":0.1327432500000043,"midi":53,"time":121.9924294921875,"velocity":0.3937007874015748},{"duration":0.1327432500000043,"midi":42,"time":121.9924294921875,"velocity":0.3937007874015748},{"duration":0.1327432500000043,"midi":44,"time":122.1251727421875,"velocity":0.3937007874015748},{"duration":0.1327432500000043,"midi":42,"time":122.1251727421875,"velocity":0.3937007874015748},{"duration":0.1327432500000043,"midi":36,"time":122.1251727421875,"velocity":0.3937007874015748},{"duration":0.1327432500000043,"midi":56,"time":122.1251727421875,"velocity":0.3937007874015748},{"duration":0.1327432500000043,"midi":46,"time":122.3906592421875,"velocity":0.3937007874015748},{"duration":0.1327432500000043,"midi":42,"time":122.3906592421875,"velocity":0.3937007874015748},{"duration":0.1327432500000043,"midi":42,"time":122.5234024921875,"velocity":0.3937007874015748},{"duration":0.1327432500000043,"midi":56,"time":122.5234024921875,"velocity":0.3937007874015748},{"duration":0.1327432499999901,"midi":39,"time":122.6561457421875,"velocity":0.3937007874015748},{"duration":0.1327432499999901,"midi":42,"time":122.6561457421875,"velocity":0.3937007874015748},{"duration":0.1327432499999901,"midi":38,"time":122.6561457421875,"velocity":0.3937007874015748},{"duration":0.1327432499999901,"midi":36,"time":122.6561457421875,"velocity":0.3937007874015748},{"duration":0.1327432500000043,"midi":41,"time":122.9216322421875,"velocity":0.3937007874015748},{"duration":0.1327432500000043,"midi":53,"time":122.9216322421875,"velocity":0.3937007874015748},{"duration":0.1327432500000043,"midi":65,"time":122.9216322421875,"velocity":0.3937007874015748},{"duration":0.1327432500000043,"midi":42,"time":122.9216322421875,"velocity":0.3937007874015748},{"duration":0.1327432500000043,"midi":63,"time":123.0543754921875,"velocity":0.3937007874015748},{"duration":0.1327432500000043,"midi":42,"time":123.0543754921875,"velocity":0.3937007874015748},{"duration":0.1327432500000043,"midi":56,"time":123.0543754921875,"velocity":0.3937007874015748},{"duration":0.1327432500000043,"midi":46,"time":123.0543754921875,"velocity":0.3937007874015748},{"duration":0.2654864999999944,"midi":77,"time":123.18711874218751,"velocity":0.3937007874015748},{"duration":0.2654864999999944,"midi":85,"time":123.18711874218751,"velocity":0.3937007874015748},{"duration":0.1327432499999901,"midi":42,"time":123.18711874218751,"velocity":0.3937007874015748},{"duration":0.1327432499999901,"midi":36,"time":123.18711874218751,"velocity":0.3937007874015748},{"duration":0.2654864999999944,"midi":80,"time":123.18711874218751,"velocity":0.3937007874015748},{"duration":0.1327432500000043,"midi":56,"time":123.3198619921875,"velocity":0.3937007874015748},{"duration":0.1327432500000043,"midi":44,"time":123.4526052421875,"velocity":0.3937007874015748},{"duration":0.1327432500000043,"midi":42,"time":123.4526052421875,"velocity":0.3937007874015748},{"duration":0.1327432499999901,"midi":42,"time":123.5853484921875,"velocity":0.3937007874015748},{"duration":0.3982297499999987,"midi":80,"time":123.5853484921875,"velocity":0.3937007874015748},{"duration":0.1327432499999901,"midi":46,"time":123.5853484921875,"velocity":0.3937007874015748},{"duration":0.3982297499999987,"midi":77,"time":123.5853484921875,"velocity":0.3937007874015748},{"duration":0.3982297499999987,"midi":85,"time":123.5853484921875,"velocity":0.3937007874015748},{"duration":0.1327432500000043,"midi":56,"time":123.7180917421875,"velocity":0.3937007874015748},{"duration":0.1327432500000043,"midi":36,"time":123.7180917421875,"velocity":0.3937007874015748},{"duration":0.1327432500000043,"midi":42,"time":123.7180917421875,"velocity":0.3937007874015748},{"duration":0.1327432500000043,"midi":39,"time":123.7180917421875,"velocity":0.3937007874015748},{"duration":0.1327432500000043,"midi":38,"time":123.7180917421875,"velocity":0.3937007874015748},{"duration":0.1327432500000043,"midi":49,"time":123.8508349921875,"velocity":0.3937007874015748},{"duration":0.1327432499999901,"midi":75,"time":123.9835782421875,"velocity":0.3937007874015748},{"duration":0.1327432499999901,"midi":80,"time":123.9835782421875,"velocity":0.3937007874015748},{"duration":0.1327432499999901,"midi":48,"time":123.9835782421875,"velocity":0.3937007874015748},{"duration":0.1327432499999901,"midi":42,"time":123.9835782421875,"velocity":0.3937007874015748},{"duration":0.1327432499999901,"midi":84,"time":123.9835782421875,"velocity":0.3937007874015748},{"duration":0.1327432500000043,"midi":53,"time":124.1163214921875,"velocity":0.3937007874015748},{"duration":0.1327432500000043,"midi":42,"time":124.1163214921875,"velocity":0.3937007874015748},{"duration":0.1327432500000043,"midi":36,"time":124.2490647421875,"velocity":0.3937007874015748},{"duration":0.1327432500000043,"midi":42,"time":124.2490647421875,"velocity":0.3937007874015748},{"duration":0.1327432500000043,"midi":56,"time":124.2490647421875,"velocity":0.3937007874015748},{"duration":0.1327432499999901,"midi":46,"time":124.51455124218751,"velocity":0.3937007874015748},{"duration":0.1327432499999901,"midi":56,"time":124.51455124218751,"velocity":0.3937007874015748},{"duration":0.1327432499999901,"midi":42,"time":124.51455124218751,"velocity":0.3937007874015748},{"duration":0.1327432500000043,"midi":42,"time":124.6472944921875,"velocity":0.3937007874015748},{"duration":0.1327432500000043,"midi":56,"time":124.7800377421875,"velocity":0.3937007874015748},{"duration":0.1327432500000043,"midi":39,"time":124.7800377421875,"velocity":0.3937007874015748},{"duration":0.1327432500000043,"midi":42,"time":124.7800377421875,"velocity":0.3937007874015748},{"duration":0.530973000000003,"midi":56,"time":124.7800377421875,"velocity":0.3937007874015748},{"duration":0.1327432500000043,"midi":38,"time":124.7800377421875,"velocity":0.3937007874015748},{"duration":0.1327432500000043,"midi":36,"time":124.7800377421875,"velocity":0.3937007874015748},{"duration":0.1327432499999901,"midi":58,"time":124.9127809921875,"velocity":0.3937007874015748},{"duration":0.1327432500000043,"midi":46,"time":125.0455242421875,"velocity":0.3937007874015748},{"duration":0.1327432500000043,"midi":44,"time":125.0455242421875,"velocity":0.3937007874015748},{"duration":0.1327432500000043,"midi":44,"time":125.1782674921875,"velocity":0.3937007874015748},{"duration":1.8584054999999893,"midi":68,"time":125.3110107421875,"velocity":0.3937007874015748},{"duration":0.1327432499999901,"midi":46,"time":125.3110107421875,"velocity":0.3937007874015748},{"duration":0.1327432499999901,"midi":42,"time":125.3110107421875,"velocity":0.3937007874015748},{"duration":0.1327432499999901,"midi":36,"time":125.3110107421875,"velocity":0.3937007874015748},{"duration":0.1327432500000043,"midi":56,"time":125.4437539921875,"velocity":0.3937007874015748},{"duration":0.1327432500000043,"midi":46,"time":125.5764972421875,"velocity":0.3937007874015748},{"duration":0.1327432500000043,"midi":42,"time":125.5764972421875,"velocity":0.3937007874015748},{"duration":0.1327432500000043,"midi":42,"time":125.7092404921875,"velocity":0.3937007874015748},{"duration":0.1327432500000043,"midi":46,"time":125.7092404921875,"velocity":0.3937007874015748},{"duration":0.1327432499999901,"midi":56,"time":125.84198374218751,"velocity":0.3937007874015748},{"duration":0.1327432499999901,"midi":42,"time":125.84198374218751,"velocity":0.3937007874015748},{"duration":0.1327432499999901,"midi":38,"time":125.84198374218751,"velocity":0.3937007874015748},{"duration":0.1327432499999901,"midi":39,"time":125.84198374218751,"velocity":0.3937007874015748},{"duration":0.1327432499999901,"midi":36,"time":125.84198374218751,"velocity":0.3937007874015748},{"duration":0.1327432500000043,"midi":49,"time":125.9747269921875,"velocity":0.3937007874015748},{"duration":0.1327432500000043,"midi":42,"time":126.1074702421875,"velocity":0.3937007874015748},{"duration":0.1327432500000043,"midi":48,"time":126.1074702421875,"velocity":0.3937007874015748},{"duration":0.1327432499999901,"midi":42,"time":126.24021349218751,"velocity":0.3937007874015748},{"duration":0.1327432499999901,"midi":53,"time":126.24021349218751,"velocity":0.3937007874015748},{"duration":0.1327432500000043,"midi":36,"time":126.3729567421875,"velocity":0.3937007874015748},{"duration":0.1327432500000043,"midi":42,"time":126.3729567421875,"velocity":0.3937007874015748},{"duration":0.1327432500000043,"midi":44,"time":126.3729567421875,"velocity":0.3937007874015748},{"duration":0.1327432500000043,"midi":56,"time":126.3729567421875,"velocity":0.3937007874015748},{"duration":0.1327432499999901,"midi":56,"time":126.6384432421875,"velocity":0.3937007874015748},{"duration":0.1327432499999901,"midi":42,"time":126.6384432421875,"velocity":0.3937007874015748},{"duration":0.1327432499999901,"midi":46,"time":126.6384432421875,"velocity":0.3937007874015748},{"duration":0.1327432500000043,"midi":42,"time":126.7711864921875,"velocity":0.3937007874015748},{"duration":0.1327432500000043,"midi":36,"time":126.9039297421875,"velocity":0.3937007874015748},{"duration":0.1327432500000043,"midi":39,"time":126.9039297421875,"velocity":0.3937007874015748},{"duration":0.1327432500000043,"midi":38,"time":126.9039297421875,"velocity":0.3937007874015748},{"duration":0.1327432500000043,"midi":42,"time":126.9039297421875,"velocity":0.3937007874015748},{"duration":0.1327432500000043,"midi":42,"time":127.1694162421875,"velocity":0.3937007874015748},{"duration":0.1327432500000043,"midi":65,"time":127.1694162421875,"velocity":0.3937007874015748},{"duration":0.1327432500000043,"midi":51,"time":127.1694162421875,"velocity":0.3937007874015748},{"duration":0.1327432500000043,"midi":44,"time":127.1694162421875,"velocity":0.3937007874015748},{"duration":0.1327432500000043,"midi":53,"time":127.3021594921875,"velocity":0.3937007874015748},{"duration":0.1327432500000043,"midi":63,"time":127.3021594921875,"velocity":0.3937007874015748},{"duration":0.1327432500000043,"midi":44,"time":127.3021594921875,"velocity":0.3937007874015748},{"duration":0.1327432500000043,"midi":42,"time":127.3021594921875,"velocity":0.3937007874015748},{"duration":0.2654864999999944,"midi":80,"time":127.4349027421875,"velocity":0.3937007874015748},{"duration":0.1327432500000043,"midi":36,"time":127.4349027421875,"velocity":0.3937007874015748},{"duration":0.2654864999999944,"midi":77,"time":127.4349027421875,"velocity":0.3937007874015748},{"duration":0.2654864999999944,"midi":85,"time":127.4349027421875,"velocity":0.3937007874015748},{"duration":0.1327432500000043,"midi":42,"time":127.4349027421875,"velocity":0.3937007874015748},{"duration":0.1327432500000043,"midi":39,"time":127.4349027421875,"velocity":0.3937007874015748},{"duration":0.1327432499999901,"midi":56,"time":127.56764599218751,"velocity":0.3937007874015748},{"duration":0.1327432500000043,"midi":39,"time":127.7003892421875,"velocity":0.3937007874015748},{"duration":0.1327432500000043,"midi":42,"time":127.7003892421875,"velocity":0.3937007874015748},{"duration":0.1327432500000043,"midi":42,"time":127.8331324921875,"velocity":0.3937007874015748},{"duration":0.3982297500000129,"midi":85,"time":127.8331324921875,"velocity":0.3937007874015748},{"duration":0.1327432500000043,"midi":44,"time":127.8331324921875,"velocity":0.3937007874015748},{"duration":0.3982297500000129,"midi":77,"time":127.8331324921875,"velocity":0.3937007874015748},{"duration":0.3982297500000129,"midi":80,"time":127.8331324921875,"velocity":0.3937007874015748},{"duration":0.1327432500000043,"midi":36,"time":127.9658757421875,"velocity":0.3937007874015748},{"duration":0.1327432500000043,"midi":42,"time":127.9658757421875,"velocity":0.3937007874015748},{"duration":0.1327432500000043,"midi":56,"time":127.9658757421875,"velocity":0.3937007874015748},{"duration":0.1327432500000043,"midi":39,"time":127.9658757421875,"velocity":0.3937007874015748},{"duration":0.1327432500000043,"midi":38,"time":127.9658757421875,"velocity":0.3937007874015748},{"duration":0.1327432500000043,"midi":44,"time":128.0986189921875,"velocity":0.3937007874015748},{"duration":0.1327432499999759,"midi":46,"time":128.23136224218752,"velocity":0.3937007874015748},{"duration":0.1327432499999759,"midi":44,"time":128.23136224218752,"velocity":0.3937007874015748},{"duration":0.1327432499999759,"midi":84,"time":128.23136224218752,"velocity":0.3937007874015748},{"duration":0.1327432499999759,"midi":80,"time":128.23136224218752,"velocity":0.3937007874015748},{"duration":0.1327432499999759,"midi":75,"time":128.23136224218752,"velocity":0.3937007874015748},{"duration":0.1327432500000043,"midi":53,"time":128.3641054921875,"velocity":0.3937007874015748},{"duration":0.1327432500000043,"midi":42,"time":128.4968487421875,"velocity":0.3937007874015748},{"duration":0.1327432500000043,"midi":56,"time":128.4968487421875,"velocity":0.3937007874015748},{"duration":0.1327432500000043,"midi":36,"time":128.4968487421875,"velocity":0.3937007874015748},{"duration":0.1327432500000043,"midi":56,"time":128.7623352421875,"velocity":0.3937007874015748},{"duration":0.1327432500000043,"midi":44,"time":128.7623352421875,"velocity":0.3937007874015748},{"duration":0.1327432500000043,"midi":42,"time":128.7623352421875,"velocity":0.3937007874015748},{"duration":0.1327432500000043,"midi":44,"time":128.8950784921875,"velocity":0.3937007874015748},{"duration":0.1327432500000043,"midi":42,"time":128.8950784921875,"velocity":0.3937007874015748},{"duration":0.1327432499999759,"midi":36,"time":129.0278217421875,"velocity":0.3937007874015748},{"duration":0.1327432499999759,"midi":38,"time":129.0278217421875,"velocity":0.3937007874015748},{"duration":0.1327432499999759,"midi":42,"time":129.0278217421875,"velocity":0.3937007874015748},{"duration":0.1327432499999759,"midi":39,"time":129.0278217421875,"velocity":0.3937007874015748},{"duration":0.2654864999999802,"midi":56,"time":129.0278217421875,"velocity":0.3937007874015748},{"duration":0.1327432500000043,"midi":44,"time":129.1605649921875,"velocity":0.3937007874015748},{"duration":0.1327432500000043,"midi":39,"time":129.1605649921875,"velocity":0.3937007874015748},{"duration":0.3982297500000129,"midi":56,"time":129.1605649921875,"velocity":0.3937007874015748},{"duration":0.1327432500000043,"midi":39,"time":129.2933082421875,"velocity":0.3937007874015748},{"duration":0.1327432500000043,"midi":46,"time":129.2933082421875,"velocity":0.3937007874015748},{"duration":0.1327432500000043,"midi":46,"time":129.2933082421875,"velocity":0.3937007874015748},{"duration":0.1327432500000043,"midi":56,"time":129.4260514921875,"velocity":0.3937007874015748},{"duration":0.1327432500000043,"midi":46,"time":129.4260514921875,"velocity":0.3937007874015748},{"duration":0.1327432500000043,"midi":39,"time":129.4260514921875,"velocity":0.3937007874015748},{"duration":1.8584055000000035,"midi":68,"time":129.5587947421875,"velocity":0.3937007874015748},{"duration":0.1327432500000043,"midi":42,"time":129.5587947421875,"velocity":0.3937007874015748},{"duration":0.1327432500000043,"midi":46,"time":129.5587947421875,"velocity":0.3937007874015748},{"duration":0.1327432500000043,"midi":36,"time":129.5587947421875,"velocity":0.3937007874015748},{"duration":0.1327432500000043,"midi":56,"time":129.6915379921875,"velocity":0.3937007874015748},{"duration":0.1327432500000043,"midi":42,"time":129.8242812421875,"velocity":0.3937007874015748},{"duration":0.1327432500000043,"midi":46,"time":129.8242812421875,"velocity":0.3937007874015748},{"duration":0.1327432499999759,"midi":46,"time":129.95702449218751,"velocity":0.3937007874015748},{"duration":0.1327432499999759,"midi":42,"time":129.95702449218751,"velocity":0.3937007874015748},{"duration":0.1327432500000043,"midi":42,"time":130.0897677421875,"velocity":0.3937007874015748},{"duration":0.1327432500000043,"midi":56,"time":130.0897677421875,"velocity":0.3937007874015748},{"duration":0.1327432500000043,"midi":38,"time":130.0897677421875,"velocity":0.3937007874015748},{"duration":0.1327432500000043,"midi":36,"time":130.0897677421875,"velocity":0.3937007874015748},{"duration":0.1327432500000043,"midi":39,"time":130.0897677421875,"velocity":0.3937007874015748},{"duration":0.1327432500000043,"midi":49,"time":130.2225109921875,"velocity":0.3937007874015748},{"duration":0.1327432500000043,"midi":48,"time":130.3552542421875,"velocity":0.3937007874015748},{"duration":0.1327432500000043,"midi":42,"time":130.3552542421875,"velocity":0.3937007874015748},{"duration":0.1327432500000043,"midi":53,"time":130.4879974921875,"velocity":0.3937007874015748},{"duration":0.1327432500000043,"midi":42,"time":130.4879974921875,"velocity":0.3937007874015748},{"duration":0.1327432500000043,"midi":44,"time":130.6207407421875,"velocity":0.3937007874015748},{"duration":0.1327432500000043,"midi":42,"time":130.6207407421875,"velocity":0.3937007874015748},{"duration":0.1327432500000043,"midi":56,"time":130.6207407421875,"velocity":0.3937007874015748},{"duration":0.1327432500000043,"midi":36,"time":130.6207407421875,"velocity":0.3937007874015748},{"duration":0.1327432499999759,"midi":42,"time":130.88622724218752,"velocity":0.3937007874015748},{"duration":0.1327432499999759,"midi":46,"time":130.88622724218752,"velocity":0.3937007874015748},{"duration":0.1327432500000043,"midi":42,"time":131.0189704921875,"velocity":0.3937007874015748},{"duration":0.1327432500000043,"midi":56,"time":131.0189704921875,"velocity":0.3937007874015748},{"duration":0.1327432500000043,"midi":42,"time":131.1517137421875,"velocity":0.3937007874015748},{"duration":0.1327432500000043,"midi":38,"time":131.1517137421875,"velocity":0.3937007874015748},{"duration":0.1327432500000043,"midi":36,"time":131.1517137421875,"velocity":0.3937007874015748},{"duration":0.1327432500000043,"midi":39,"time":131.1517137421875,"velocity":0.3937007874015748},{"duration":0.1327432500000043,"midi":41,"time":131.4172002421875,"velocity":0.3937007874015748},{"duration":0.1327432500000043,"midi":53,"time":131.4172002421875,"velocity":0.3937007874015748},{"duration":0.1327432500000043,"midi":65,"time":131.4172002421875,"velocity":0.3937007874015748},{"duration":0.1327432500000043,"midi":42,"time":131.4172002421875,"velocity":0.3937007874015748},{"duration":0.1327432500000043,"midi":56,"time":131.5499434921875,"velocity":0.3937007874015748},{"duration":0.1327432500000043,"midi":42,"time":131.5499434921875,"velocity":0.3937007874015748},{"duration":0.1327432500000043,"midi":63,"time":131.5499434921875,"velocity":0.3937007874015748},{"duration":0.1327432500000043,"midi":46,"time":131.5499434921875,"velocity":0.3937007874015748},{"duration":0.1327432499999759,"midi":42,"time":131.6826867421875,"velocity":0.3937007874015748},{"duration":0.2654864999999802,"midi":77,"time":131.6826867421875,"velocity":0.3937007874015748},{"duration":0.2654864999999802,"midi":80,"time":131.6826867421875,"velocity":0.3937007874015748},{"duration":0.2654864999999802,"midi":85,"time":131.6826867421875,"velocity":0.3937007874015748},{"duration":0.1327432499999759,"midi":36,"time":131.6826867421875,"velocity":0.3937007874015748},{"duration":0.1327432500000043,"midi":56,"time":131.8154299921875,"velocity":0.3937007874015748},{"duration":0.1327432500000043,"midi":42,"time":131.9481732421875,"velocity":0.3937007874015748},{"duration":0.1327432500000043,"midi":44,"time":131.9481732421875,"velocity":0.3937007874015748},{"duration":0.3982297500000129,"midi":85,"time":132.0809164921875,"velocity":0.3937007874015748},{"duration":0.1327432500000043,"midi":46,"time":132.0809164921875,"velocity":0.3937007874015748},{"duration":0.1327432500000043,"midi":42,"time":132.0809164921875,"velocity":0.3937007874015748},{"duration":0.3982297500000129,"midi":77,"time":132.0809164921875,"velocity":0.3937007874015748},{"duration":0.3982297500000129,"midi":80,"time":132.0809164921875,"velocity":0.3937007874015748},{"duration":0.1327432500000043,"midi":56,"time":132.2136597421875,"velocity":0.3937007874015748},{"duration":0.1327432500000043,"midi":36,"time":132.2136597421875,"velocity":0.3937007874015748},{"duration":0.1327432500000043,"midi":38,"time":132.2136597421875,"velocity":0.3937007874015748},{"duration":0.1327432500000043,"midi":39,"time":132.2136597421875,"velocity":0.3937007874015748},{"duration":0.1327432500000043,"midi":42,"time":132.2136597421875,"velocity":0.3937007874015748},{"duration":0.1327432500000043,"midi":49,"time":132.3464029921875,"velocity":0.3937007874015748},{"duration":0.1327432500000043,"midi":42,"time":132.4791462421875,"velocity":0.3937007874015748},{"duration":0.1327432500000043,"midi":80,"time":132.4791462421875,"velocity":0.3937007874015748},{"duration":0.1327432500000043,"midi":84,"time":132.4791462421875,"velocity":0.3937007874015748},{"duration":0.1327432500000043,"midi":75,"time":132.4791462421875,"velocity":0.3937007874015748},{"duration":0.1327432500000043,"midi":48,"time":132.4791462421875,"velocity":0.3937007874015748},{"duration":0.1327432499999759,"midi":42,"time":132.61188949218752,"velocity":0.3937007874015748},{"duration":0.1327432499999759,"midi":53,"time":132.61188949218752,"velocity":0.3937007874015748},{"duration":0.1327432500000043,"midi":56,"time":132.7446327421875,"velocity":0.3937007874015748},{"duration":0.1327432500000043,"midi":36,"time":132.7446327421875,"velocity":0.3937007874015748},{"duration":0.1327432500000043,"midi":42,"time":132.7446327421875,"velocity":0.3937007874015748},{"duration":0.1327432500000043,"midi":46,"time":133.0101192421875,"velocity":0.3937007874015748},{"duration":0.1327432500000043,"midi":56,"time":133.0101192421875,"velocity":0.3937007874015748},{"duration":0.1327432500000043,"midi":42,"time":133.0101192421875,"velocity":0.3937007874015748},{"duration":0.1327432500000043,"midi":42,"time":133.1428624921875,"velocity":0.3937007874015748},{"duration":0.1327432500000043,"midi":56,"time":133.2756057421875,"velocity":0.3937007874015748},{"duration":0.1327432500000043,"midi":39,"time":133.2756057421875,"velocity":0.3937007874015748},{"duration":0.5309729999999888,"midi":56,"time":133.2756057421875,"velocity":0.3937007874015748},{"duration":0.1327432500000043,"midi":42,"time":133.2756057421875,"velocity":0.3937007874015748},{"duration":0.1327432500000043,"midi":36,"time":133.2756057421875,"velocity":0.3937007874015748},{"duration":0.1327432500000043,"midi":38,"time":133.2756057421875,"velocity":0.3937007874015748},{"duration":0.1327432499999759,"midi":58,"time":133.4083489921875,"velocity":0.3937007874015748},{"duration":0.1327432500000043,"midi":44,"time":133.5410922421875,"velocity":0.3937007874015748},{"duration":0.1327432500000043,"midi":46,"time":133.5410922421875,"velocity":0.3937007874015748},{"duration":0.1327432500000043,"midi":44,"time":133.6738354921875,"velocity":0.3937007874015748},{"duration":0.1327432500000043,"midi":46,"time":133.8065787421875,"velocity":0.3937007874015748},{"duration":1.8584055000000035,"midi":68,"time":133.8065787421875,"velocity":0.3937007874015748},{"duration":0.1327432500000043,"midi":36,"time":133.8065787421875,"velocity":0.3937007874015748},{"duration":0.1327432500000043,"midi":42,"time":133.8065787421875,"velocity":0.3937007874015748},{"duration":0.1327432500000043,"midi":56,"time":133.9393219921875,"velocity":0.3937007874015748},{"duration":0.1327432500000043,"midi":46,"time":134.0720652421875,"velocity":0.3937007874015748},{"duration":0.1327432500000043,"midi":42,"time":134.0720652421875,"velocity":0.3937007874015748},{"duration":0.1327432500000043,"midi":46,"time":134.2048084921875,"velocity":0.3937007874015748},{"duration":0.1327432500000043,"midi":42,"time":134.2048084921875,"velocity":0.3937007874015748},{"duration":0.1327432499999759,"midi":36,"time":134.33755174218751,"velocity":0.3937007874015748},{"duration":0.1327432499999759,"midi":56,"time":134.33755174218751,"velocity":0.3937007874015748},{"duration":0.1327432499999759,"midi":38,"time":134.33755174218751,"velocity":0.3937007874015748},{"duration":0.1327432499999759,"midi":42,"time":134.33755174218751,"velocity":0.3937007874015748},{"duration":0.1327432499999759,"midi":39,"time":134.33755174218751,"velocity":0.3937007874015748},{"duration":0.1327432500000043,"midi":49,"time":134.4702949921875,"velocity":0.3937007874015748},{"duration":0.1327432500000043,"midi":48,"time":134.6030382421875,"velocity":0.3937007874015748},{"duration":0.1327432500000043,"midi":42,"time":134.6030382421875,"velocity":0.3937007874015748},{"duration":0.1327432500000043,"midi":42,"time":134.7357814921875,"velocity":0.3937007874015748},{"duration":0.1327432500000043,"midi":53,"time":134.7357814921875,"velocity":0.3937007874015748},{"duration":0.1327432500000043,"midi":44,"time":134.8685247421875,"velocity":0.3937007874015748},{"duration":0.1327432500000043,"midi":56,"time":134.8685247421875,"velocity":0.3937007874015748},{"duration":0.1327432500000043,"midi":36,"time":134.8685247421875,"velocity":0.3937007874015748},{"duration":0.1327432500000043,"midi":42,"time":134.8685247421875,"velocity":0.3937007874015748},{"duration":0.1327432500000043,"midi":42,"time":135.1340112421875,"velocity":0.3937007874015748},{"duration":0.1327432500000043,"midi":56,"time":135.1340112421875,"velocity":0.3937007874015748},{"duration":0.1327432500000043,"midi":46,"time":135.1340112421875,"velocity":0.3937007874015748},{"duration":0.1327432499999759,"midi":42,"time":135.26675449218752,"velocity":0.3937007874015748},{"duration":0.1327432500000043,"midi":38,"time":135.3994977421875,"velocity":0.3937007874015748},{"duration":0.1327432500000043,"midi":36,"time":135.3994977421875,"velocity":0.3937007874015748},{"duration":0.1327432500000043,"midi":39,"time":135.3994977421875,"velocity":0.3937007874015748},{"duration":0.1327432500000043,"midi":42,"time":135.3994977421875,"velocity":0.3937007874015748},{"duration":0.1327432500000043,"midi":42,"time":135.6649842421875,"velocity":0.3937007874015748},{"duration":0.1327432500000043,"midi":65,"time":135.6649842421875,"velocity":0.3937007874015748},{"duration":0.1327432500000043,"midi":51,"time":135.6649842421875,"velocity":0.3937007874015748},{"duration":0.1327432500000043,"midi":44,"time":135.6649842421875,"velocity":0.3937007874015748},{"duration":0.1327432500000043,"midi":53,"time":135.7977274921875,"velocity":0.3937007874015748},{"duration":0.1327432500000043,"midi":42,"time":135.7977274921875,"velocity":0.3937007874015748},{"duration":0.1327432500000043,"midi":44,"time":135.7977274921875,"velocity":0.3937007874015748},{"duration":0.1327432500000043,"midi":63,"time":135.7977274921875,"velocity":0.3937007874015748},{"duration":0.1327432500000043,"midi":36,"time":135.9304707421875,"velocity":0.3937007874015748},{"duration":0.1327432500000043,"midi":42,"time":135.9304707421875,"velocity":0.3937007874015748},{"duration":0.1327432500000043,"midi":39,"time":135.9304707421875,"velocity":0.3937007874015748},{"duration":0.2654865000000086,"midi":85,"time":135.9304707421875,"velocity":0.3937007874015748},{"duration":0.2654865000000086,"midi":80,"time":135.9304707421875,"velocity":0.3937007874015748},{"duration":0.2654865000000086,"midi":77,"time":135.9304707421875,"velocity":0.3937007874015748},{"duration":0.1327432500000043,"midi":56,"time":136.0632139921875,"velocity":0.3937007874015748},{"duration":0.1327432500000043,"midi":42,"time":136.19595724218752,"velocity":0.3937007874015748},{"duration":0.1327432500000043,"midi":39,"time":136.19595724218752,"velocity":0.3937007874015748},{"duration":0.3982297499999845,"midi":85,"time":136.32870049218752,"velocity":0.3937007874015748},{"duration":0.1327432500000043,"midi":42,"time":136.32870049218752,"velocity":0.3937007874015748},{"duration":0.3982297499999845,"midi":80,"time":136.32870049218752,"velocity":0.3937007874015748},{"duration":0.1327432500000043,"midi":44,"time":136.32870049218752,"velocity":0.3937007874015748},{"duration":0.3982297499999845,"midi":77,"time":136.32870049218752,"velocity":0.3937007874015748},{"duration":0.1327432500000043,"midi":36,"time":136.46144374218753,"velocity":0.3937007874015748},{"duration":0.1327432500000043,"midi":39,"time":136.46144374218753,"velocity":0.3937007874015748},{"duration":0.1327432500000043,"midi":56,"time":136.46144374218753,"velocity":0.3937007874015748},{"duration":0.1327432500000043,"midi":42,"time":136.46144374218753,"velocity":0.3937007874015748},{"duration":0.1327432500000043,"midi":38,"time":136.46144374218753,"velocity":0.3937007874015748},{"duration":0.1327432499999759,"midi":44,"time":136.59418699218753,"velocity":0.3937007874015748},{"duration":0.1327432500000043,"midi":44,"time":136.7269302421875,"velocity":0.3937007874015748},{"duration":0.1327432500000043,"midi":46,"time":136.7269302421875,"velocity":0.3937007874015748},{"duration":0.1327432500000043,"midi":80,"time":136.7269302421875,"velocity":0.3937007874015748},{"duration":0.1327432500000043,"midi":75,"time":136.7269302421875,"velocity":0.3937007874015748},{"duration":0.1327432500000043,"midi":84,"time":136.7269302421875,"velocity":0.3937007874015748},{"duration":0.1327432500000043,"midi":53,"time":136.8596734921875,"velocity":0.3937007874015748},{"duration":0.1327432500000043,"midi":42,"time":136.99241674218752,"velocity":0.3937007874015748},{"duration":0.1327432500000043,"midi":36,"time":136.99241674218752,"velocity":0.3937007874015748},{"duration":0.1327432500000043,"midi":56,"time":136.99241674218752,"velocity":0.3937007874015748},{"duration":0.1327432500000043,"midi":44,"time":137.25790324218752,"velocity":0.3937007874015748},{"duration":0.1327432500000043,"midi":56,"time":137.25790324218752,"velocity":0.3937007874015748},{"duration":0.1327432500000043,"midi":42,"time":137.25790324218752,"velocity":0.3937007874015748},{"duration":0.1327432499999759,"midi":44,"time":137.39064649218753,"velocity":0.3937007874015748},{"duration":0.1327432499999759,"midi":42,"time":137.39064649218753,"velocity":0.3937007874015748},{"duration":0.1327432500000043,"midi":38,"time":137.5233897421875,"velocity":0.3937007874015748},{"duration":0.1327432500000043,"midi":36,"time":137.5233897421875,"velocity":0.3937007874015748},{"duration":0.1327432500000043,"midi":39,"time":137.5233897421875,"velocity":0.3937007874015748},{"duration":0.2654865000000086,"midi":56,"time":137.5233897421875,"velocity":0.3937007874015748},{"duration":0.1327432500000043,"midi":42,"time":137.5233897421875,"velocity":0.3937007874015748},{"duration":0.1327432500000043,"midi":39,"time":137.6561329921875,"velocity":0.3937007874015748},{"duration":0.1327432500000043,"midi":44,"time":137.6561329921875,"velocity":0.3937007874015748},{"duration":0.3982297500000129,"midi":56,"time":137.6561329921875,"velocity":0.3937007874015748},{"duration":0.1327432500000043,"midi":46,"time":137.7888762421875,"velocity":0.3937007874015748},{"duration":0.1327432500000043,"midi":39,"time":137.7888762421875,"velocity":0.3937007874015748},{"duration":0.1327432500000043,"midi":46,"time":137.7888762421875,"velocity":0.3937007874015748},{"duration":0.1327432500000043,"midi":56,"time":137.92161949218752,"velocity":0.3937007874015748},{"duration":0.1327432500000043,"midi":39,"time":137.92161949218752,"velocity":0.3937007874015748},{"duration":0.1327432500000043,"midi":46,"time":137.92161949218752,"velocity":0.3937007874015748},{"duration":0.3982297499999845,"midi":68,"time":138.05436274218752,"velocity":0.3937007874015748},{"duration":0.1327432500000043,"midi":42,"time":138.05436274218752,"velocity":0.3937007874015748},{"duration":0.1327432500000043,"midi":36,"time":138.05436274218752,"velocity":0.3937007874015748},{"duration":0.1327432500000043,"midi":46,"time":138.05436274218752,"velocity":0.3937007874015748},{"duration":0.1327432500000043,"midi":56,"time":138.18710599218753,"velocity":0.3937007874015748},{"duration":0.9292027499999733,"midi":68,"time":138.31984924218753,"velocity":0.3937007874015748},{"duration":0.1327432499999759,"midi":42,"time":138.31984924218753,"velocity":0.3937007874015748},{"duration":0.1327432499999759,"midi":46,"time":138.31984924218753,"velocity":0.3937007874015748},{"duration":0.1327432500000043,"midi":46,"time":138.4525924921875,"velocity":0.3937007874015748},{"duration":0.1327432500000043,"midi":70,"time":138.4525924921875,"velocity":0.3937007874015748},{"duration":0.1327432500000043,"midi":42,"time":138.4525924921875,"velocity":0.3937007874015748},{"duration":0.1327432500000043,"midi":38,"time":138.5853357421875,"velocity":0.3937007874015748},{"duration":0.1327432500000043,"midi":39,"time":138.5853357421875,"velocity":0.3937007874015748},{"duration":0.1327432500000043,"midi":36,"time":138.5853357421875,"velocity":0.3937007874015748},{"duration":0.1327432500000043,"midi":56,"time":138.5853357421875,"velocity":0.3937007874015748},{"duration":0.1327432500000043,"midi":73,"time":138.5853357421875,"velocity":0.3937007874015748},{"duration":0.1327432500000043,"midi":42,"time":138.5853357421875,"velocity":0.3937007874015748},{"duration":0.1327432500000043,"midi":70,"time":138.71807899218751,"velocity":0.3937007874015748},{"duration":0.1327432500000043,"midi":49,"time":138.71807899218751,"velocity":0.3937007874015748},{"duration":0.1327432500000043,"midi":77,"time":138.85082224218752,"velocity":0.3937007874015748},{"duration":0.1327432500000043,"midi":42,"time":138.85082224218752,"velocity":0.3937007874015748},{"duration":0.1327432500000043,"midi":48,"time":138.85082224218752,"velocity":0.3937007874015748},{"duration":0.1327432500000043,"midi":42,"time":138.98356549218752,"velocity":0.3937007874015748},{"duration":0.1327432500000043,"midi":53,"time":138.98356549218752,"velocity":0.3937007874015748},{"duration":0.1327432499999759,"midi":36,"time":139.11630874218753,"velocity":0.3937007874015748},{"duration":0.1327432499999759,"midi":44,"time":139.11630874218753,"velocity":0.3937007874015748},{"duration":0.7964594999999974,"midi":68,"time":139.11630874218753,"velocity":0.3937007874015748},{"duration":0.1327432499999759,"midi":56,"time":139.11630874218753,"velocity":0.3937007874015748},{"duration":0.1327432499999759,"midi":42,"time":139.11630874218753,"velocity":0.3937007874015748},{"duration":0.1327432500000043,"midi":70,"time":139.2490519921875,"velocity":0.3937007874015748},{"duration":0.1327432500000043,"midi":73,"time":139.3817952421875,"velocity":0.3937007874015748},{"duration":0.1327432500000043,"midi":42,"time":139.3817952421875,"velocity":0.3937007874015748},{"duration":0.1327432500000043,"midi":46,"time":139.3817952421875,"velocity":0.3937007874015748},{"duration":0.1327432500000043,"midi":56,"time":139.5145384921875,"velocity":0.3937007874015748},{"duration":0.1327432500000043,"midi":70,"time":139.5145384921875,"velocity":0.3937007874015748},{"duration":0.1327432500000043,"midi":42,"time":139.5145384921875,"velocity":0.3937007874015748},{"duration":0.1327432500000043,"midi":42,"time":139.64728174218752,"velocity":0.3937007874015748},{"duration":0.1327432500000043,"midi":39,"time":139.64728174218752,"velocity":0.3937007874015748},{"duration":0.1327432500000043,"midi":36,"time":139.64728174218752,"velocity":0.3937007874015748},{"duration":0.1327432500000043,"midi":38,"time":139.64728174218752,"velocity":0.3937007874015748},{"duration":0.2654865000000086,"midi":77,"time":139.64728174218752,"velocity":0.3937007874015748},{"duration":0.1327432500000043,"midi":70,"time":139.91276824218752,"velocity":0.3937007874015748},{"duration":0.1327432500000043,"midi":65,"time":139.91276824218752,"velocity":0.3937007874015748},{"duration":0.1327432500000043,"midi":42,"time":139.91276824218752,"velocity":0.3937007874015748},{"duration":0.1327432500000043,"midi":41,"time":139.91276824218752,"velocity":0.3937007874015748},{"duration":0.1327432500000043,"midi":53,"time":139.91276824218752,"velocity":0.3937007874015748},{"duration":0.1327432499999759,"midi":42,"time":140.04551149218753,"velocity":0.3937007874015748},{"duration":0.1327432499999759,"midi":46,"time":140.04551149218753,"velocity":0.3937007874015748},{"duration":0.1327432499999759,"midi":63,"time":140.04551149218753,"velocity":0.3937007874015748},{"duration":0.1327432499999759,"midi":56,"time":140.04551149218753,"velocity":0.3937007874015748},{"duration":0.1327432500000043,"midi":42,"time":140.1782547421875,"velocity":0.3937007874015748},{"duration":0.1327432500000043,"midi":36,"time":140.1782547421875,"velocity":0.3937007874015748},{"duration":0.2654865000000086,"midi":80,"time":140.1782547421875,"velocity":0.3937007874015748},{"duration":0.2654865000000086,"midi":85,"time":140.1782547421875,"velocity":0.3937007874015748},{"duration":0.2654865000000086,"midi":77,"time":140.1782547421875,"velocity":0.3937007874015748},{"duration":0.1327432500000043,"midi":56,"time":140.3109979921875,"velocity":0.3937007874015748},{"duration":0.1327432500000043,"midi":44,"time":140.4437412421875,"velocity":0.3937007874015748},{"duration":0.1327432500000043,"midi":42,"time":140.4437412421875,"velocity":0.3937007874015748},{"duration":0.3982297500000129,"midi":85,"time":140.57648449218752,"velocity":0.3937007874015748},{"duration":0.3982297500000129,"midi":77,"time":140.57648449218752,"velocity":0.3937007874015748},{"duration":0.1327432500000043,"midi":42,"time":140.57648449218752,"velocity":0.3937007874015748},{"duration":0.3982297500000129,"midi":80,"time":140.57648449218752,"velocity":0.3937007874015748},{"duration":0.1327432500000043,"midi":46,"time":140.57648449218752,"velocity":0.3937007874015748},{"duration":0.1327432500000043,"midi":56,"time":140.70922774218752,"velocity":0.3937007874015748},{"duration":0.1327432500000043,"midi":42,"time":140.70922774218752,"velocity":0.3937007874015748},{"duration":0.1327432500000043,"midi":38,"time":140.70922774218752,"velocity":0.3937007874015748},{"duration":0.1327432500000043,"midi":36,"time":140.70922774218752,"velocity":0.3937007874015748},{"duration":0.1327432500000043,"midi":39,"time":140.70922774218752,"velocity":0.3937007874015748},{"duration":0.1327432500000043,"midi":49,"time":140.84197099218753,"velocity":0.3937007874015748},{"duration":0.1327432499999759,"midi":48,"time":140.97471424218753,"velocity":0.3937007874015748},{"duration":0.1327432499999759,"midi":80,"time":140.97471424218753,"velocity":0.3937007874015748},{"duration":0.1327432499999759,"midi":42,"time":140.97471424218753,"velocity":0.3937007874015748},{"duration":0.1327432499999759,"midi":75,"time":140.97471424218753,"velocity":0.3937007874015748},{"duration":0.1327432499999759,"midi":84,"time":140.97471424218753,"velocity":0.3937007874015748},{"duration":0.1327432500000043,"midi":42,"time":141.1074574921875,"velocity":0.3937007874015748},{"duration":0.1327432500000043,"midi":53,"time":141.1074574921875,"velocity":0.3937007874015748},{"duration":0.1327432500000043,"midi":36,"time":141.2402007421875,"velocity":0.3937007874015748},{"duration":0.1327432500000043,"midi":42,"time":141.2402007421875,"velocity":0.3937007874015748},{"duration":0.1327432500000043,"midi":56,"time":141.2402007421875,"velocity":0.3937007874015748},{"duration":0.1327432500000043,"midi":56,"time":141.50568724218752,"velocity":0.3937007874015748},{"duration":0.1327432500000043,"midi":46,"time":141.50568724218752,"velocity":0.3937007874015748},{"duration":0.1327432500000043,"midi":42,"time":141.50568724218752,"velocity":0.3937007874015748},{"duration":0.1327432500000043,"midi":42,"time":141.63843049218752,"velocity":0.3937007874015748},{"duration":0.1327432499999759,"midi":36,"time":141.77117374218753,"velocity":0.3937007874015748},{"duration":0.1327432499999759,"midi":38,"time":141.77117374218753,"velocity":0.3937007874015748},{"duration":0.1327432499999759,"midi":42,"time":141.77117374218753,"velocity":0.3937007874015748},{"duration":0.1327432499999759,"midi":56,"time":141.77117374218753,"velocity":0.3937007874015748},{"duration":0.5309729999999888,"midi":56,"time":141.77117374218753,"velocity":0.3937007874015748},{"duration":0.1327432499999759,"midi":39,"time":141.77117374218753,"velocity":0.3937007874015748},{"duration":0.1327432500000043,"midi":58,"time":141.9039169921875,"velocity":0.3937007874015748},{"duration":0.1327432500000043,"midi":44,"time":142.0366602421875,"velocity":0.3937007874015748},{"duration":0.1327432500000043,"midi":46,"time":142.0366602421875,"velocity":0.3937007874015748},{"duration":0.1327432500000043,"midi":44,"time":142.1694034921875,"velocity":0.3937007874015748},{"duration":0.1327432500000043,"midi":42,"time":142.30214674218752,"velocity":0.3937007874015748},{"duration":0.1327432500000043,"midi":36,"time":142.30214674218752,"velocity":0.3937007874015748},{"duration":0.1327432500000043,"midi":46,"time":142.30214674218752,"velocity":0.3937007874015748},{"duration":0.3982297500000129,"midi":68,"time":142.30214674218752,"velocity":0.3937007874015748},{"duration":0.1327432500000043,"midi":56,"time":142.43488999218752,"velocity":0.3937007874015748},{"duration":0.1327432500000043,"midi":46,"time":142.56763324218753,"velocity":0.3937007874015748},{"duration":0.9292027500000017,"midi":68,"time":142.56763324218753,"velocity":0.3937007874015748},{"duration":0.1327432500000043,"midi":42,"time":142.56763324218753,"velocity":0.3937007874015748},{"duration":0.1327432499999759,"midi":42,"time":142.70037649218753,"velocity":0.3937007874015748},{"duration":0.1327432499999759,"midi":46,"time":142.70037649218753,"velocity":0.3937007874015748},{"duration":0.1327432499999759,"midi":70,"time":142.70037649218753,"velocity":0.3937007874015748},{"duration":0.1327432500000043,"midi":38,"time":142.8331197421875,"velocity":0.3937007874015748},{"duration":0.1327432500000043,"midi":36,"time":142.8331197421875,"velocity":0.3937007874015748},{"duration":0.1327432500000043,"midi":56,"time":142.8331197421875,"velocity":0.3937007874015748},{"duration":0.1327432500000043,"midi":39,"time":142.8331197421875,"velocity":0.3937007874015748},{"duration":0.1327432500000043,"midi":73,"time":142.8331197421875,"velocity":0.3937007874015748},{"duration":0.1327432500000043,"midi":42,"time":142.8331197421875,"velocity":0.3937007874015748},{"duration":0.1327432500000043,"midi":49,"time":142.9658629921875,"velocity":0.3937007874015748},{"duration":0.1327432500000043,"midi":70,"time":142.9658629921875,"velocity":0.3937007874015748},{"duration":0.1327432500000043,"midi":48,"time":143.09860624218751,"velocity":0.3937007874015748},{"duration":0.1327432500000043,"midi":42,"time":143.09860624218751,"velocity":0.3937007874015748},{"duration":0.1327432500000043,"midi":77,"time":143.09860624218751,"velocity":0.3937007874015748},{"duration":0.1327432500000043,"midi":53,"time":143.23134949218752,"velocity":0.3937007874015748},{"duration":0.1327432500000043,"midi":42,"time":143.23134949218752,"velocity":0.3937007874015748},{"duration":0.1327432500000043,"midi":44,"time":143.36409274218752,"velocity":0.3937007874015748},{"duration":0.1327432500000043,"midi":36,"time":143.36409274218752,"velocity":0.3937007874015748},{"duration":0.7964594999999974,"midi":68,"time":143.36409274218752,"velocity":0.3937007874015748},{"duration":0.1327432500000043,"midi":42,"time":143.36409274218752,"velocity":0.3937007874015748},{"duration":0.1327432500000043,"midi":56,"time":143.36409274218752,"velocity":0.3937007874015748},{"duration":0.1327432500000043,"midi":70,"time":143.49683599218753,"velocity":0.3937007874015748},{"duration":0.1327432499999759,"midi":42,"time":143.62957924218753,"velocity":0.3937007874015748},{"duration":0.1327432499999759,"midi":73,"time":143.62957924218753,"velocity":0.3937007874015748},{"duration":0.1327432499999759,"midi":46,"time":143.62957924218753,"velocity":0.3937007874015748},{"duration":0.1327432499999759,"midi":56,"time":143.62957924218753,"velocity":0.3937007874015748},{"duration":0.1327432500000043,"midi":70,"time":143.7623224921875,"velocity":0.3937007874015748},{"duration":0.1327432500000043,"midi":42,"time":143.7623224921875,"velocity":0.3937007874015748},{"duration":0.1327432500000043,"midi":39,"time":143.8950657421875,"velocity":0.3937007874015748},{"duration":0.1327432500000043,"midi":42,"time":143.8950657421875,"velocity":0.3937007874015748},{"duration":0.1327432500000043,"midi":38,"time":143.8950657421875,"velocity":0.3937007874015748},{"duration":0.1327432500000043,"midi":36,"time":143.8950657421875,"velocity":0.3937007874015748},{"duration":0.2654865000000086,"midi":77,"time":143.8950657421875,"velocity":0.3937007874015748},{"duration":0.1327432500000043,"midi":44,"time":144.16055224218752,"velocity":0.3937007874015748},{"duration":0.1327432500000043,"midi":65,"time":144.16055224218752,"velocity":0.3937007874015748},{"duration":0.1327432500000043,"midi":70,"time":144.16055224218752,"velocity":0.3937007874015748},{"duration":0.1327432500000043,"midi":51,"time":144.16055224218752,"velocity":0.3937007874015748},{"duration":0.1327432500000043,"midi":42,"time":144.16055224218752,"velocity":0.3937007874015748},{"duration":0.1327432500000043,"midi":63,"time":144.29329549218753,"velocity":0.3937007874015748},{"duration":0.1327432500000043,"midi":53,"time":144.29329549218753,"velocity":0.3937007874015748},{"duration":0.1327432500000043,"midi":42,"time":144.29329549218753,"velocity":0.3937007874015748},{"duration":0.1327432500000043,"midi":44,"time":144.29329549218753,"velocity":0.3937007874015748},{"duration":0.2654864999999802,"midi":80,"time":144.42603874218753,"velocity":0.3937007874015748},{"duration":0.2654864999999802,"midi":85,"time":144.42603874218753,"velocity":0.3937007874015748},{"duration":0.1327432499999759,"midi":42,"time":144.42603874218753,"velocity":0.3937007874015748},{"duration":0.1327432499999759,"midi":36,"time":144.42603874218753,"velocity":0.3937007874015748},{"duration":0.2654864999999802,"midi":77,"time":144.42603874218753,"velocity":0.3937007874015748},{"duration":0.1327432499999759,"midi":39,"time":144.42603874218753,"velocity":0.3937007874015748},{"duration":0.1327432500000043,"midi":56,"time":144.5587819921875,"velocity":0.3937007874015748},{"duration":0.1327432500000043,"midi":42,"time":144.6915252421875,"velocity":0.3937007874015748},{"duration":0.1327432500000043,"midi":39,"time":144.6915252421875,"velocity":0.3937007874015748},{"duration":0.1327432500000043,"midi":42,"time":144.8242684921875,"velocity":0.3937007874015748},{"duration":0.3982297500000129,"midi":77,"time":144.8242684921875,"velocity":0.3937007874015748},{"duration":0.3982297500000129,"midi":80,"time":144.8242684921875,"velocity":0.3937007874015748},{"duration":0.3982297500000129,"midi":85,"time":144.8242684921875,"velocity":0.3937007874015748},{"duration":0.1327432500000043,"midi":44,"time":144.8242684921875,"velocity":0.3937007874015748},{"duration":0.1327432500000043,"midi":39,"time":144.95701174218752,"velocity":0.3937007874015748},{"duration":0.1327432500000043,"midi":38,"time":144.95701174218752,"velocity":0.3937007874015748},{"duration":0.1327432500000043,"midi":56,"time":144.95701174218752,"velocity":0.3937007874015748},{"duration":0.1327432500000043,"midi":36,"time":144.95701174218752,"velocity":0.3937007874015748},{"duration":0.1327432500000043,"midi":42,"time":144.95701174218752,"velocity":0.3937007874015748},{"duration":0.1327432500000043,"midi":44,"time":145.08975499218752,"velocity":0.3937007874015748},{"duration":0.1327432500000043,"midi":80,"time":145.22249824218753,"velocity":0.3937007874015748},{"duration":0.1327432500000043,"midi":75,"time":145.22249824218753,"velocity":0.3937007874015748},{"duration":0.1327432500000043,"midi":44,"time":145.22249824218753,"velocity":0.3937007874015748},{"duration":0.1327432500000043,"midi":46,"time":145.22249824218753,"velocity":0.3937007874015748},{"duration":0.1327432500000043,"midi":84,"time":145.22249824218753,"velocity":0.3937007874015748},{"duration":0.1327432499999759,"midi":53,"time":145.35524149218753,"velocity":0.3937007874015748},{"duration":0.1327432500000043,"midi":42,"time":145.4879847421875,"velocity":0.3937007874015748},{"duration":0.1327432500000043,"midi":36,"time":145.4879847421875,"velocity":0.3937007874015748},{"duration":0.1327432500000043,"midi":56,"time":145.4879847421875,"velocity":0.3937007874015748},{"duration":0.1327432500000043,"midi":56,"time":145.75347124218752,"velocity":0.3937007874015748},{"duration":0.1327432500000043,"midi":44,"time":145.75347124218752,"velocity":0.3937007874015748},{"duration":0.1327432500000043,"midi":42,"time":145.75347124218752,"velocity":0.3937007874015748},{"duration":0.1327432500000043,"midi":44,"time":145.88621449218752,"velocity":0.3937007874015748},{"duration":0.1327432500000043,"midi":42,"time":145.88621449218752,"velocity":0.3937007874015748},{"duration":0.1327432500000043,"midi":38,"time":146.01895774218752,"velocity":0.3937007874015748},{"duration":0.1327432500000043,"midi":42,"time":146.01895774218752,"velocity":0.3937007874015748},{"duration":0.2654864999999802,"midi":56,"time":146.01895774218752,"velocity":0.3937007874015748},{"duration":0.1327432500000043,"midi":36,"time":146.01895774218752,"velocity":0.3937007874015748},{"duration":0.1327432500000043,"midi":39,"time":146.01895774218752,"velocity":0.3937007874015748},{"duration":0.3982297499999845,"midi":56,"time":146.15170099218753,"velocity":0.3937007874015748},{"duration":0.1327432499999759,"midi":39,"time":146.15170099218753,"velocity":0.3937007874015748},{"duration":0.1327432499999759,"midi":44,"time":146.15170099218753,"velocity":0.3937007874015748},{"duration":0.1327432500000043,"midi":39,"time":146.2844442421875,"velocity":0.3937007874015748},{"duration":0.1327432500000043,"midi":46,"time":146.2844442421875,"velocity":0.3937007874015748},{"duration":0.1327432500000043,"midi":46,"time":146.2844442421875,"velocity":0.3937007874015748},{"duration":0.1327432500000043,"midi":39,"time":146.4171874921875,"velocity":0.3937007874015748},{"duration":0.1327432500000043,"midi":46,"time":146.4171874921875,"velocity":0.3937007874015748},{"duration":0.1327432500000043,"midi":56,"time":146.4171874921875,"velocity":0.3937007874015748},{"duration":0.3982297500000129,"midi":68,"time":146.5499307421875,"velocity":0.3937007874015748},{"duration":0.1327432500000043,"midi":36,"time":146.5499307421875,"velocity":0.3937007874015748},{"duration":0.1327432500000043,"midi":42,"time":146.5499307421875,"velocity":0.3937007874015748},{"duration":0.1327432500000043,"midi":46,"time":146.5499307421875,"velocity":0.3937007874015748},{"duration":0.1327432500000043,"midi":56,"time":146.68267399218752,"velocity":0.3937007874015748},{"duration":0.9292027500000017,"midi":68,"time":146.81541724218752,"velocity":0.3937007874015748},{"duration":0.1327432500000043,"midi":42,"time":146.81541724218752,"velocity":0.3937007874015748},{"duration":0.1327432500000043,"midi":46,"time":146.81541724218752,"velocity":0.3937007874015748},{"duration":0.1327432500000043,"midi":46,"time":146.94816049218753,"velocity":0.3937007874015748},{"duration":0.1327432500000043,"midi":42,"time":146.94816049218753,"velocity":0.3937007874015748},{"duration":0.1327432500000043,"midi":70,"time":146.94816049218753,"velocity":0.3937007874015748},{"duration":0.1327432499999759,"midi":38,"time":147.08090374218753,"velocity":0.3937007874015748},{"duration":0.1327432499999759,"midi":39,"time":147.08090374218753,"velocity":0.3937007874015748},{"duration":0.1327432499999759,"midi":73,"time":147.08090374218753,"velocity":0.3937007874015748},{"duration":0.1327432499999759,"midi":36,"time":147.08090374218753,"velocity":0.3937007874015748},{"duration":0.1327432499999759,"midi":56,"time":147.08090374218753,"velocity":0.3937007874015748},{"duration":0.1327432499999759,"midi":42,"time":147.08090374218753,"velocity":0.3937007874015748},{"duration":0.1327432500000043,"midi":49,"time":147.2136469921875,"velocity":0.3937007874015748},{"duration":0.1327432500000043,"midi":70,"time":147.2136469921875,"velocity":0.3937007874015748},{"duration":0.1327432500000043,"midi":42,"time":147.3463902421875,"velocity":0.3937007874015748},{"duration":0.1327432500000043,"midi":48,"time":147.3463902421875,"velocity":0.3937007874015748},{"duration":0.1327432500000043,"midi":77,"time":147.3463902421875,"velocity":0.3937007874015748},{"duration":0.1327432500000043,"midi":42,"time":147.47913349218751,"velocity":0.3937007874015748},{"duration":0.1327432500000043,"midi":53,"time":147.47913349218751,"velocity":0.3937007874015748},{"duration":0.1327432500000043,"midi":44,"time":147.61187674218752,"velocity":0.3937007874015748},{"duration":0.7964594999999974,"midi":68,"time":147.61187674218752,"velocity":0.3937007874015748},{"duration":0.1327432500000043,"midi":42,"time":147.61187674218752,"velocity":0.3937007874015748},{"duration":0.1327432500000043,"midi":56,"time":147.61187674218752,"velocity":0.3937007874015748},{"duration":0.1327432500000043,"midi":36,"time":147.61187674218752,"velocity":0.3937007874015748},{"duration":0.1327432500000043,"midi":70,"time":147.74461999218752,"velocity":0.3937007874015748},{"duration":0.1327432500000043,"midi":73,"time":147.87736324218753,"velocity":0.3937007874015748},{"duration":0.1327432500000043,"midi":46,"time":147.87736324218753,"velocity":0.3937007874015748},{"duration":0.1327432500000043,"midi":42,"time":147.87736324218753,"velocity":0.3937007874015748},{"duration":0.1327432499999759,"midi":42,"time":148.01010649218753,"velocity":0.3937007874015748},{"duration":0.1327432499999759,"midi":56,"time":148.01010649218753,"velocity":0.3937007874015748},{"duration":0.1327432499999759,"midi":70,"time":148.01010649218753,"velocity":0.3937007874015748},{"duration":0.1327432500000043,"midi":39,"time":148.1428497421875,"velocity":0.3937007874015748},{"duration":0.1327432500000043,"midi":38,"time":148.1428497421875,"velocity":0.3937007874015748},{"duration":0.2654865000000086,"midi":77,"time":148.1428497421875,"velocity":0.3937007874015748},{"duration":0.1327432500000043,"midi":36,"time":148.1428497421875,"velocity":0.3937007874015748},{"duration":0.1327432500000043,"midi":42,"time":148.1428497421875,"velocity":0.3937007874015748},{"duration":0.1327432500000043,"midi":42,"time":148.40833624218752,"velocity":0.3937007874015748},{"duration":0.1327432500000043,"midi":65,"time":148.40833624218752,"velocity":0.3937007874015748},{"duration":0.1327432500000043,"midi":41,"time":148.40833624218752,"velocity":0.3937007874015748},{"duration":0.1327432500000043,"midi":53,"time":148.40833624218752,"velocity":0.3937007874015748},{"duration":0.1327432500000043,"midi":70,"time":148.40833624218752,"velocity":0.3937007874015748},{"duration":0.1327432500000043,"midi":42,"time":148.54107949218752,"velocity":0.3937007874015748},{"duration":0.1327432500000043,"midi":63,"time":148.54107949218752,"velocity":0.3937007874015748},{"duration":0.1327432500000043,"midi":46,"time":148.54107949218752,"velocity":0.3937007874015748},{"duration":0.1327432500000043,"midi":56,"time":148.54107949218752,"velocity":0.3937007874015748},{"duration":0.2654864999999802,"midi":85,"time":148.67382274218753,"velocity":0.3937007874015748},{"duration":0.2654864999999802,"midi":80,"time":148.67382274218753,"velocity":0.3937007874015748},{"duration":0.1327432500000043,"midi":36,"time":148.67382274218753,"velocity":0.3937007874015748},{"duration":0.2654864999999802,"midi":77,"time":148.67382274218753,"velocity":0.3937007874015748},{"duration":0.1327432500000043,"midi":42,"time":148.67382274218753,"velocity":0.3937007874015748},{"duration":0.1327432499999759,"midi":56,"time":148.80656599218753,"velocity":0.3937007874015748},{"duration":0.1327432500000043,"midi":44,"time":148.9393092421875,"velocity":0.3937007874015748},{"duration":0.1327432500000043,"midi":42,"time":148.9393092421875,"velocity":0.3937007874015748},{"duration":0.3982297500000129,"midi":85,"time":149.0720524921875,"velocity":0.3937007874015748},{"duration":0.1327432500000043,"midi":42,"time":149.0720524921875,"velocity":0.3937007874015748},{"duration":0.1327432500000043,"midi":46,"time":149.0720524921875,"velocity":0.3937007874015748},{"duration":0.3982297500000129,"midi":80,"time":149.0720524921875,"velocity":0.3937007874015748},{"duration":0.3982297500000129,"midi":77,"time":149.0720524921875,"velocity":0.3937007874015748},{"duration":0.1327432500000043,"midi":38,"time":149.2047957421875,"velocity":0.3937007874015748},{"duration":0.1327432500000043,"midi":42,"time":149.2047957421875,"velocity":0.3937007874015748},{"duration":0.1327432500000043,"midi":36,"time":149.2047957421875,"velocity":0.3937007874015748},{"duration":0.1327432500000043,"midi":56,"time":149.2047957421875,"velocity":0.3937007874015748},{"duration":0.1327432500000043,"midi":39,"time":149.2047957421875,"velocity":0.3937007874015748},{"duration":0.1327432500000043,"midi":49,"time":149.33753899218752,"velocity":0.3937007874015748},{"duration":0.1327432500000043,"midi":84,"time":149.47028224218752,"velocity":0.3937007874015748},{"duration":0.1327432500000043,"midi":75,"time":149.47028224218752,"velocity":0.3937007874015748},{"duration":0.1327432500000043,"midi":48,"time":149.47028224218752,"velocity":0.3937007874015748},{"duration":0.1327432500000043,"midi":42,"time":149.47028224218752,"velocity":0.3937007874015748},{"duration":0.1327432500000043,"midi":80,"time":149.47028224218752,"velocity":0.3937007874015748},{"duration":0.1327432500000043,"midi":53,"time":149.60302549218753,"velocity":0.3937007874015748},{"duration":0.1327432500000043,"midi":42,"time":149.60302549218753,"velocity":0.3937007874015748},{"duration":0.1327432499999759,"midi":36,"time":149.73576874218753,"velocity":0.3937007874015748},{"duration":0.1327432499999759,"midi":42,"time":149.73576874218753,"velocity":0.3937007874015748},{"duration":0.1327432499999759,"midi":56,"time":149.73576874218753,"velocity":0.3937007874015748},{"duration":0.1327432500000043,"midi":42,"time":150.0012552421875,"velocity":0.3937007874015748},{"duration":0.1327432500000043,"midi":46,"time":150.0012552421875,"velocity":0.3937007874015748},{"duration":0.1327432500000043,"midi":56,"time":150.0012552421875,"velocity":0.3937007874015748},{"duration":0.1327432500000043,"midi":42,"time":150.13399849218752,"velocity":0.3937007874015748},{"duration":0.1327432500000043,"midi":42,"time":150.26674174218752,"velocity":0.3937007874015748},{"duration":0.1327432500000043,"midi":56,"time":150.26674174218752,"velocity":0.3937007874015748},{"duration":0.5309729999999888,"midi":56,"time":150.26674174218752,"velocity":0.3937007874015748},{"duration":0.1327432500000043,"midi":38,"time":150.26674174218752,"velocity":0.3937007874015748},{"duration":0.1327432500000043,"midi":39,"time":150.26674174218752,"velocity":0.3937007874015748},{"duration":0.1327432500000043,"midi":36,"time":150.26674174218752,"velocity":0.3937007874015748},{"duration":0.1327432500000043,"midi":58,"time":150.39948499218752,"velocity":0.3937007874015748},{"duration":0.1327432499999759,"midi":44,"time":150.53222824218753,"velocity":0.3937007874015748},{"duration":0.1327432499999759,"midi":46,"time":150.53222824218753,"velocity":0.3937007874015748},{"duration":0.1327432500000043,"midi":44,"time":150.6649714921875,"velocity":0.3937007874015748},{"duration":0.3982297500000129,"midi":68,"time":150.7977147421875,"velocity":0.3937007874015748},{"duration":0.1327432500000043,"midi":36,"time":150.7977147421875,"velocity":0.3937007874015748},{"duration":0.1327432500000043,"midi":42,"time":150.7977147421875,"velocity":0.3937007874015748},{"duration":0.1327432500000043,"midi":46,"time":150.7977147421875,"velocity":0.3937007874015748},{"duration":0.1327432500000043,"midi":56,"time":150.9304579921875,"velocity":0.3937007874015748},{"duration":0.1327432500000043,"midi":46,"time":151.06320124218752,"velocity":0.3937007874015748},{"duration":0.9292027500000017,"midi":68,"time":151.06320124218752,"velocity":0.3937007874015748},{"duration":0.1327432500000043,"midi":42,"time":151.06320124218752,"velocity":0.3937007874015748},{"duration":0.1327432500000043,"midi":42,"time":151.19594449218752,"velocity":0.3937007874015748},{"duration":0.1327432500000043,"midi":46,"time":151.19594449218752,"velocity":0.3937007874015748},{"duration":0.1327432500000043,"midi":70,"time":151.19594449218752,"velocity":0.3937007874015748},{"duration":0.1327432500000043,"midi":42,"time":151.32868774218753,"velocity":0.3937007874015748},{"duration":0.1327432500000043,"midi":39,"time":151.32868774218753,"velocity":0.3937007874015748},{"duration":0.1327432500000043,"midi":36,"time":151.32868774218753,"velocity":0.3937007874015748},{"duration":0.1327432500000043,"midi":73,"time":151.32868774218753,"velocity":0.3937007874015748},{"duration":0.1327432500000043,"midi":56,"time":151.32868774218753,"velocity":0.3937007874015748},{"duration":0.1327432500000043,"midi":38,"time":151.32868774218753,"velocity":0.3937007874015748},{"duration":0.1327432499999759,"midi":49,"time":151.46143099218753,"velocity":0.3937007874015748},{"duration":0.1327432499999759,"midi":70,"time":151.46143099218753,"velocity":0.3937007874015748},{"duration":0.1327432500000043,"midi":77,"time":151.5941742421875,"velocity":0.3937007874015748},{"duration":0.1327432500000043,"midi":42,"time":151.5941742421875,"velocity":0.3937007874015748},{"duration":0.1327432500000043,"midi":48,"time":151.5941742421875,"velocity":0.3937007874015748},{"duration":0.1327432500000043,"midi":42,"time":151.7269174921875,"velocity":0.3937007874015748},{"duration":0.1327432500000043,"midi":53,"time":151.7269174921875,"velocity":0.3937007874015748},{"duration":0.1327432500000043,"midi":44,"time":151.85966074218751,"velocity":0.3937007874015748},{"duration":0.7964594999999974,"midi":68,"time":151.85966074218751,"velocity":0.3937007874015748},{"duration":0.1327432500000043,"midi":42,"time":151.85966074218751,"velocity":0.3937007874015748},{"duration":0.1327432500000043,"midi":56,"time":151.85966074218751,"velocity":0.3937007874015748},{"duration":0.1327432500000043,"midi":36,"time":151.85966074218751,"velocity":0.3937007874015748},{"duration":0.1327432500000043,"midi":70,"time":151.99240399218752,"velocity":0.3937007874015748},{"duration":0.1327432500000043,"midi":42,"time":152.12514724218752,"velocity":0.3937007874015748},{"duration":0.1327432500000043,"midi":56,"time":152.12514724218752,"velocity":0.3937007874015748},{"duration":0.1327432500000043,"midi":73,"time":152.12514724218752,"velocity":0.3937007874015748},{"duration":0.1327432500000043,"midi":46,"time":152.12514724218752,"velocity":0.3937007874015748},{"duration":0.1327432500000043,"midi":70,"time":152.25789049218753,"velocity":0.3937007874015748},{"duration":0.1327432500000043,"midi":42,"time":152.25789049218753,"velocity":0.3937007874015748},{"duration":0.1327432499999759,"midi":38,"time":152.39063374218753,"velocity":0.3937007874015748},{"duration":0.1327432499999759,"midi":36,"time":152.39063374218753,"velocity":0.3937007874015748},{"duration":0.1327432499999759,"midi":39,"time":152.39063374218753,"velocity":0.3937007874015748},{"duration":0.2654864999999802,"midi":77,"time":152.39063374218753,"velocity":0.3937007874015748},{"duration":0.1327432499999759,"midi":42,"time":152.39063374218753,"velocity":0.3937007874015748},{"duration":0.1327432500000043,"midi":65,"time":152.6561202421875,"velocity":0.3937007874015748},{"duration":0.1327432500000043,"midi":42,"time":152.6561202421875,"velocity":0.3937007874015748},{"duration":0.1327432500000043,"midi":70,"time":152.6561202421875,"velocity":0.3937007874015748},{"duration":0.1327432500000043,"midi":51,"time":152.6561202421875,"velocity":0.3937007874015748},{"duration":0.1327432500000043,"midi":44,"time":152.6561202421875,"velocity":0.3937007874015748},{"duration":0.1327432500000043,"midi":53,"time":152.78886349218752,"velocity":0.3937007874015748},{"duration":0.1327432500000043,"midi":44,"time":152.78886349218752,"velocity":0.3937007874015748},{"duration":0.1327432500000043,"midi":42,"time":152.78886349218752,"velocity":0.3937007874015748},{"duration":0.1327432500000043,"midi":63,"time":152.78886349218752,"velocity":0.3937007874015748},{"duration":0.1327432500000043,"midi":39,"time":152.92160674218752,"velocity":0.3937007874015748},{"duration":0.1327432500000043,"midi":36,"time":152.92160674218752,"velocity":0.3937007874015748},{"duration":0.2654865000000086,"midi":85,"time":152.92160674218752,"velocity":0.3937007874015748},{"duration":0.2654865000000086,"midi":77,"time":152.92160674218752,"velocity":0.3937007874015748},{"duration":0.2654865000000086,"midi":80,"time":152.92160674218752,"velocity":0.3937007874015748},{"duration":0.1327432500000043,"midi":42,"time":152.92160674218752,"velocity":0.3937007874015748},{"duration":0.1327432500000043,"midi":56,"time":153.05434999218753,"velocity":0.3937007874015748},{"duration":0.1327432499999759,"midi":48,"time":153.18709324218753,"velocity":0.3937007874015748},{"duration":0.1327432499999759,"midi":42,"time":153.18709324218753,"velocity":0.3937007874015748},{"duration":0.1327432499999759,"midi":39,"time":153.18709324218753,"velocity":0.3937007874015748},{"duration":0.3982297500000129,"midi":77,"time":153.3198364921875,"velocity":0.3937007874015748},{"duration":0.3982297500000129,"midi":85,"time":153.3198364921875,"velocity":0.3937007874015748},{"duration":0.1327432500000043,"midi":48,"time":153.3198364921875,"velocity":0.3937007874015748},{"duration":0.1327432500000043,"midi":42,"time":153.3198364921875,"velocity":0.3937007874015748},{"duration":0.3982297500000129,"midi":80,"time":153.3198364921875,"velocity":0.3937007874015748},{"duration":0.1327432500000043,"midi":44,"time":153.3198364921875,"velocity":0.3937007874015748},{"duration":0.1327432500000043,"midi":48,"time":153.4525797421875,"velocity":0.3937007874015748},{"duration":0.1327432500000043,"midi":56,"time":153.4525797421875,"velocity":0.3937007874015748},{"duration":0.1327432500000043,"midi":39,"time":153.4525797421875,"velocity":0.3937007874015748},{"duration":0.1327432500000043,"midi":36,"time":153.4525797421875,"velocity":0.3937007874015748},{"duration":0.1327432500000043,"midi":38,"time":153.4525797421875,"velocity":0.3937007874015748},{"duration":0.1327432500000043,"midi":42,"time":153.4525797421875,"velocity":0.3937007874015748},{"duration":0.1327432500000043,"midi":48,"time":153.5853229921875,"velocity":0.3937007874015748},{"duration":0.1327432500000043,"midi":44,"time":153.5853229921875,"velocity":0.3937007874015748},{"duration":0.1327432500000043,"midi":46,"time":153.71806624218752,"velocity":0.3937007874015748},{"duration":0.1327432500000043,"midi":44,"time":153.71806624218752,"velocity":0.3937007874015748},{"duration":0.1327432500000043,"midi":75,"time":153.71806624218752,"velocity":0.3937007874015748},{"duration":0.1327432500000043,"midi":45,"time":153.71806624218752,"velocity":0.3937007874015748},{"duration":0.1327432500000043,"midi":84,"time":153.71806624218752,"velocity":0.3937007874015748},{"duration":0.1327432500000043,"midi":80,"time":153.71806624218752,"velocity":0.3937007874015748},{"duration":0.1327432500000043,"midi":45,"time":153.85080949218752,"velocity":0.3937007874015748},{"duration":0.1327432500000043,"midi":53,"time":153.85080949218752,"velocity":0.3937007874015748},{"duration":0.1327432500000043,"midi":36,"time":153.98355274218753,"velocity":0.3937007874015748},{"duration":0.1327432500000043,"midi":42,"time":153.98355274218753,"velocity":0.3937007874015748},{"duration":0.1327432500000043,"midi":45,"time":153.98355274218753,"velocity":0.3937007874015748},{"duration":0.1327432500000043,"midi":56,"time":153.98355274218753,"velocity":0.3937007874015748},{"duration":0.1327432499999759,"midi":45,"time":154.11629599218753,"velocity":0.3937007874015748},{"duration":0.1327432500000043,"midi":56,"time":154.2490392421875,"velocity":0.3937007874015748},{"duration":0.1327432500000043,"midi":42,"time":154.2490392421875,"velocity":0.3937007874015748},{"duration":0.1327432500000043,"midi":41,"time":154.2490392421875,"velocity":0.3937007874015748},{"duration":0.1327432500000043,"midi":44,"time":154.2490392421875,"velocity":0.3937007874015748},{"duration":0.1327432500000043,"midi":41,"time":154.3817824921875,"velocity":0.3937007874015748},{"duration":0.1327432500000043,"midi":42,"time":154.3817824921875,"velocity":0.3937007874015748},{"duration":0.1327432500000043,"midi":44,"time":154.3817824921875,"velocity":0.3937007874015748},{"duration":0.1327432500000043,"midi":38,"time":154.51452574218752,"velocity":0.3937007874015748},{"duration":0.1327432500000043,"midi":39,"time":154.51452574218752,"velocity":0.3937007874015748},{"duration":0.1327432500000043,"midi":41,"time":154.51452574218752,"velocity":0.3937007874015748},{"duration":0.1327432500000043,"midi":42,"time":154.51452574218752,"velocity":0.3937007874015748},{"duration":0.1327432500000043,"midi":36,"time":154.51452574218752,"velocity":0.3937007874015748},{"duration":0.1327432500000043,"midi":39,"time":154.64726899218752,"velocity":0.3937007874015748},{"duration":0.1327432500000043,"midi":41,"time":154.64726899218752,"velocity":0.3937007874015748},{"duration":0.1327432500000043,"midi":56,"time":154.64726899218752,"velocity":0.3937007874015748},{"duration":0.1327432500000043,"midi":44,"time":154.64726899218752,"velocity":0.3937007874015748},{"duration":0.1327432500000043,"midi":41,"time":154.78001224218752,"velocity":0.3937007874015748},{"duration":0.1327432500000043,"midi":39,"time":154.78001224218752,"velocity":0.3937007874015748},{"duration":0.1327432500000043,"midi":46,"time":154.78001224218752,"velocity":0.3937007874015748},{"duration":0.1327432500000043,"midi":46,"time":154.78001224218752,"velocity":0.3937007874015748},{"duration":0.1327432499999759,"midi":41,"time":154.91275549218753,"velocity":0.3937007874015748},{"duration":0.1327432499999759,"midi":46,"time":154.91275549218753,"velocity":0.3937007874015748},{"duration":0.1327432499999759,"midi":39,"time":154.91275549218753,"velocity":0.3937007874015748},{"duration":0.1327432499999759,"midi":56,"time":154.91275549218753,"velocity":0.3937007874015748},{"duration":0.1327432500000043,"midi":42,"time":155.0454987421875,"velocity":0.3937007874015748},{"duration":0.1327432500000043,"midi":36,"time":155.0454987421875,"velocity":0.3937007874015748},{"duration":0.1327432500000043,"midi":42,"time":155.3109852421875,"velocity":0.3937007874015748},{"duration":0.1327432500000043,"midi":42,"time":155.44372849218752,"velocity":0.3937007874015748},{"duration":0.1327432500000043,"midi":42,"time":155.57647174218752,"velocity":0.3937007874015748},{"duration":0.1327432500000043,"midi":39,"time":155.57647174218752,"velocity":0.3937007874015748},{"duration":0.1327432500000043,"midi":36,"time":155.57647174218752,"velocity":0.3937007874015748},{"duration":0.1327432500000043,"midi":38,"time":155.57647174218752,"velocity":0.3937007874015748},{"duration":0.1327432499999759,"midi":42,"time":155.84195824218753,"velocity":0.3937007874015748},{"duration":0.1327432500000043,"midi":42,"time":155.9747014921875,"velocity":0.3937007874015748},{"duration":0.1327432500000043,"midi":42,"time":156.1074447421875,"velocity":0.3937007874015748},{"duration":0.1327432500000043,"midi":36,"time":156.1074447421875,"velocity":0.3937007874015748},{"duration":0.1327432500000043,"midi":42,"time":156.37293124218752,"velocity":0.3937007874015748},{"duration":0.1327432500000043,"midi":42,"time":156.50567449218752,"velocity":0.3937007874015748},{"duration":0.1327432500000043,"midi":36,"time":156.63841774218753,"velocity":0.3937007874015748},{"duration":0.1327432500000043,"midi":39,"time":156.63841774218753,"velocity":0.3937007874015748},{"duration":0.1327432500000043,"midi":42,"time":156.63841774218753,"velocity":0.3937007874015748},{"duration":0.1327432500000043,"midi":38,"time":156.63841774218753,"velocity":0.3937007874015748},{"duration":0.1327432500000043,"midi":42,"time":156.9039042421875,"velocity":0.3937007874015748},{"duration":0.1327432500000043,"midi":42,"time":157.0366474921875,"velocity":0.3937007874015748},{"duration":0.1327432500000043,"midi":36,"time":157.16939074218752,"velocity":0.3937007874015748},{"duration":0.1327432500000043,"midi":42,"time":157.16939074218752,"velocity":0.3937007874015748},{"duration":0.1327432500000043,"midi":42,"time":157.43487724218753,"velocity":0.3937007874015748},{"duration":0.1327432499999759,"midi":42,"time":157.56762049218753,"velocity":0.3937007874015748},{"duration":0.1327432500000043,"midi":42,"time":157.7003637421875,"velocity":0.3937007874015748},{"duration":0.1327432500000043,"midi":38,"time":157.7003637421875,"velocity":0.3937007874015748},{"duration":0.1327432500000043,"midi":36,"time":157.7003637421875,"velocity":0.3937007874015748},{"duration":0.1327432500000043,"midi":39,"time":157.7003637421875,"velocity":0.3937007874015748},{"duration":0.1327432500000043,"midi":42,"time":157.9658502421875,"velocity":0.3937007874015748},{"duration":0.1327432500000043,"midi":42,"time":158.09859349218752,"velocity":0.3937007874015748},{"duration":0.1327432500000043,"midi":36,"time":158.23133674218752,"velocity":0.3937007874015748},{"duration":0.1327432500000043,"midi":42,"time":158.23133674218752,"velocity":0.3937007874015748},{"duration":0.1327432499999759,"midi":42,"time":158.49682324218753,"velocity":0.3937007874015748},{"duration":0.1327432500000043,"midi":42,"time":158.6295664921875,"velocity":0.3937007874015748},{"duration":0.1327432500000043,"midi":39,"time":158.7623097421875,"velocity":0.3937007874015748},{"duration":0.1327432500000043,"midi":42,"time":158.7623097421875,"velocity":0.3937007874015748},{"duration":0.1327432500000043,"midi":36,"time":158.7623097421875,"velocity":0.3937007874015748},{"duration":0.1327432500000043,"midi":38,"time":158.7623097421875,"velocity":0.3937007874015748},{"duration":0.1327432500000043,"midi":46,"time":159.02779624218752,"velocity":0.3937007874015748},{"duration":0.1327432499999759,"midi":42,"time":159.29328274218753,"velocity":0.3937007874015748},{"duration":0.1327432499999759,"midi":36,"time":159.29328274218753,"velocity":0.3937007874015748},{"duration":0.1327432500000043,"midi":42,"time":159.5587692421875,"velocity":0.3937007874015748},{"duration":0.1327432500000043,"midi":42,"time":159.6915124921875,"velocity":0.3937007874015748},{"duration":0.1327432500000043,"midi":42,"time":159.82425574218752,"velocity":0.3937007874015748},{"duration":0.1327432500000043,"midi":39,"time":159.82425574218752,"velocity":0.3937007874015748},{"duration":0.1327432500000043,"midi":38,"time":159.82425574218752,"velocity":0.3937007874015748},{"duration":0.1327432500000043,"midi":36,"time":159.82425574218752,"velocity":0.3937007874015748},{"duration":0.1327432500000043,"midi":42,"time":160.08974224218753,"velocity":0.3937007874015748},{"duration":0.1327432499999759,"midi":42,"time":160.22248549218753,"velocity":0.3937007874015748},{"duration":0.1327432500000043,"midi":42,"time":160.3552287421875,"velocity":0.3937007874015748},{"duration":0.1327432500000043,"midi":36,"time":160.3552287421875,"velocity":0.3937007874015748},{"duration":0.1327432500000043,"midi":42,"time":160.62071524218752,"velocity":0.3937007874015748},{"duration":0.1327432500000043,"midi":42,"time":160.75345849218752,"velocity":0.3937007874015748},{"duration":0.1327432500000043,"midi":42,"time":160.88620174218752,"velocity":0.3937007874015748},{"duration":0.1327432500000043,"midi":38,"time":160.88620174218752,"velocity":0.3937007874015748},{"duration":0.1327432500000043,"midi":39,"time":160.88620174218752,"velocity":0.3937007874015748},{"duration":0.1327432500000043,"midi":36,"time":160.88620174218752,"velocity":0.3937007874015748},{"duration":0.1327432499999759,"midi":42,"time":161.15168824218753,"velocity":0.3937007874015748},{"duration":0.2654864999999802,"midi":56,"time":161.15168824218753,"velocity":0.3937007874015748},{"duration":0.2654864999999802,"midi":68,"time":161.15168824218753,"velocity":0.3937007874015748},{"duration":0.1327432500000043,"midi":42,"time":161.2844314921875,"velocity":0.3937007874015748},{"duration":0.6637162499999931,"midi":54,"time":161.4171747421875,"velocity":0.3937007874015748},{"duration":0.6637162499999931,"midi":58,"time":161.4171747421875,"velocity":0.3937007874015748},{"duration":0.1327432500000043,"midi":42,"time":161.4171747421875,"velocity":0.3937007874015748},{"duration":0.6637162499999931,"midi":65,"time":161.4171747421875,"velocity":0.3937007874015748},{"duration":0.1327432500000043,"midi":68,"time":161.4171747421875,"velocity":0.3937007874015748},{"duration":0.6637162499999931,"midi":61,"time":161.4171747421875,"velocity":0.3937007874015748},{"duration":0.7964594999999974,"midi":73,"time":161.4171747421875,"velocity":0.3937007874015748},{"duration":0.7964594999999974,"midi":77,"time":161.4171747421875,"velocity":0.3937007874015748},{"duration":0.7964594999999974,"midi":66,"time":161.4171747421875,"velocity":0.3937007874015748},{"duration":0.7964594999999974,"midi":70,"time":161.4171747421875,"velocity":0.3937007874015748},{"duration":0.1327432500000043,"midi":80,"time":161.4171747421875,"velocity":0.3937007874015748},{"duration":0.1327432500000043,"midi":36,"time":161.4171747421875,"velocity":0.3937007874015748},{"duration":0.1327432500000043,"midi":42,"time":161.68266124218752,"velocity":0.3937007874015748},{"duration":0.1327432500000043,"midi":42,"time":161.81540449218753,"velocity":0.3937007874015748},{"duration":0.2654864999999802,"midi":80,"time":161.94814774218753,"velocity":0.3937007874015748},{"duration":0.1327432499999759,"midi":38,"time":161.94814774218753,"velocity":0.3937007874015748},{"duration":0.2654864999999802,"midi":68,"time":161.94814774218753,"velocity":0.3937007874015748},{"duration":0.1327432499999759,"midi":36,"time":161.94814774218753,"velocity":0.3937007874015748},{"duration":0.1327432499999759,"midi":39,"time":161.94814774218753,"velocity":0.3937007874015748},{"duration":0.1327432499999759,"midi":42,"time":161.94814774218753,"velocity":0.3937007874015748},{"duration":0.5309730000000172,"midi":75,"time":162.2136342421875,"velocity":0.3937007874015748},{"duration":0.5309730000000172,"midi":63,"time":162.2136342421875,"velocity":0.3937007874015748},{"duration":0.9292027500000017,"midi":63,"time":162.2136342421875,"velocity":0.3937007874015748},{"duration":0.7964594999999974,"midi":65,"time":162.2136342421875,"velocity":0.3937007874015748},{"duration":0.9292027500000017,"midi":60,"time":162.2136342421875,"velocity":0.3937007874015748},{"duration":1.3274325000000147,"midi":72,"time":162.2136342421875,"velocity":0.3937007874015748},{"duration":0.1327432500000043,"midi":46,"time":162.2136342421875,"velocity":0.3937007874015748},{"duration":1.061946000000006,"midi":75,"time":162.2136342421875,"velocity":0.3937007874015748},{"duration":1.3274325000000147,"midi":68,"time":162.2136342421875,"velocity":0.3937007874015748},{"duration":0.9292027500000017,"midi":53,"time":162.2136342421875,"velocity":0.3937007874015748},{"duration":0.9292027500000017,"midi":56,"time":162.2136342421875,"velocity":0.3937007874015748},{"duration":0.1327432500000043,"midi":36,"time":162.47912074218752,"velocity":0.3937007874015748},{"duration":0.1327432500000043,"midi":42,"time":162.47912074218752,"velocity":0.3937007874015748},{"duration":0.1327432500000043,"midi":42,"time":162.74460724218753,"velocity":0.3937007874015748},{"duration":0.2654864999999802,"midi":77,"time":162.74460724218753,"velocity":0.3937007874015748},{"duration":0.7964594999999974,"midi":65,"time":162.74460724218753,"velocity":0.3937007874015748},{"duration":0.1327432499999759,"midi":42,"time":162.87735049218753,"velocity":0.3937007874015748},{"duration":0.1327432500000043,"midi":36,"time":163.0100937421875,"velocity":0.3937007874015748},{"duration":0.1327432500000043,"midi":39,"time":163.0100937421875,"velocity":0.3937007874015748},{"duration":0.5309730000000172,"midi":75,"time":163.0100937421875,"velocity":0.3937007874015748},{"duration":0.1327432500000043,"midi":42,"time":163.0100937421875,"velocity":0.3937007874015748},{"duration":0.1327432500000043,"midi":38,"time":163.0100937421875,"velocity":0.3937007874015748},{"duration":0.2654865000000086,"midi":63,"time":163.0100937421875,"velocity":0.3937007874015748},{"duration":0.1327432500000043,"midi":39,"time":163.1428369921875,"velocity":0.3937007874015748},{"duration":0.1327432500000043,"midi":39,"time":163.27558024218752,"velocity":0.3937007874015748},{"duration":0.1327432500000043,"midi":61,"time":163.27558024218752,"velocity":0.3937007874015748},{"duration":0.1327432500000043,"midi":73,"time":163.27558024218752,"velocity":0.3937007874015748},{"duration":0.1327432500000043,"midi":46,"time":163.27558024218752,"velocity":0.3937007874015748},{"duration":0.1327432500000043,"midi":39,"time":163.40832349218752,"velocity":0.3937007874015748},{"duration":0.1327432500000043,"midi":36,"time":163.54106674218752,"velocity":0.3937007874015748},{"duration":0.1327432500000043,"midi":42,"time":163.54106674218752,"velocity":0.3937007874015748},{"duration":0.1327432500000043,"midi":42,"time":163.8065532421875,"velocity":0.3937007874015748},{"duration":0.1327432500000043,"midi":42,"time":163.9392964921875,"velocity":0.3937007874015748},{"duration":0.1327432500000043,"midi":42,"time":164.0720397421875,"velocity":0.3937007874015748},{"duration":0.1327432500000043,"midi":36,"time":164.0720397421875,"velocity":0.3937007874015748},{"duration":0.1327432500000043,"midi":38,"time":164.0720397421875,"velocity":0.3937007874015748},{"duration":0.1327432500000043,"midi":39,"time":164.0720397421875,"velocity":0.3937007874015748},{"duration":0.1327432500000043,"midi":42,"time":164.33752624218752,"velocity":0.3937007874015748},{"duration":0.1327432500000043,"midi":42,"time":164.47026949218753,"velocity":0.3937007874015748},{"duration":0.1327432499999759,"midi":36,"time":164.60301274218753,"velocity":0.3937007874015748},{"duration":0.1327432499999759,"midi":42,"time":164.60301274218753,"velocity":0.3937007874015748},{"duration":0.1327432500000043,"midi":42,"time":164.8684992421875,"velocity":0.3937007874015748},{"duration":0.1327432500000043,"midi":42,"time":165.00124249218752,"velocity":0.3937007874015748},{"duration":0.1327432500000043,"midi":42,"time":165.13398574218752,"velocity":0.3937007874015748},{"duration":0.1327432500000043,"midi":38,"time":165.13398574218752,"velocity":0.3937007874015748},{"duration":0.1327432500000043,"midi":36,"time":165.13398574218752,"velocity":0.3937007874015748},{"duration":0.1327432500000043,"midi":39,"time":165.13398574218752,"velocity":0.3937007874015748},{"duration":0.1327432500000043,"midi":42,"time":165.39947224218753,"velocity":0.3937007874015748},{"duration":0.1327432499999759,"midi":42,"time":165.53221549218753,"velocity":0.3937007874015748},{"duration":0.1327432500000043,"midi":36,"time":165.6649587421875,"velocity":0.3937007874015748},{"duration":0.1327432500000043,"midi":42,"time":165.6649587421875,"velocity":0.3937007874015748},{"duration":0.1327432500000043,"midi":42,"time":165.93044524218752,"velocity":0.3937007874015748},{"duration":0.1327432500000043,"midi":42,"time":166.06318849218752,"velocity":0.3937007874015748},{"duration":0.1327432500000043,"midi":42,"time":166.19593174218753,"velocity":0.3937007874015748},{"duration":0.1327432500000043,"midi":39,"time":166.19593174218753,"velocity":0.3937007874015748},{"duration":0.1327432500000043,"midi":36,"time":166.19593174218753,"velocity":0.3937007874015748},{"duration":0.1327432500000043,"midi":38,"time":166.19593174218753,"velocity":0.3937007874015748},{"duration":0.1327432500000043,"midi":42,"time":166.4614182421875,"velocity":0.3937007874015748},{"duration":0.1327432500000043,"midi":42,"time":166.5941614921875,"velocity":0.3937007874015748},{"duration":0.1327432500000043,"midi":42,"time":166.72690474218751,"velocity":0.3937007874015748},{"duration":0.1327432500000043,"midi":36,"time":166.72690474218751,"velocity":0.3937007874015748},{"duration":0.1327432500000043,"midi":42,"time":166.99239124218752,"velocity":0.3937007874015748},{"duration":0.1327432500000043,"midi":42,"time":167.12513449218753,"velocity":0.3937007874015748},{"duration":0.1327432499999759,"midi":39,"time":167.25787774218753,"velocity":0.3937007874015748},{"duration":0.1327432499999759,"midi":38,"time":167.25787774218753,"velocity":0.3937007874015748},{"duration":0.1327432499999759,"midi":42,"time":167.25787774218753,"velocity":0.3937007874015748},{"duration":0.1327432499999759,"midi":36,"time":167.25787774218753,"velocity":0.3937007874015748},{"duration":0.1327432500000043,"midi":46,"time":167.5233642421875,"velocity":0.3937007874015748},{"duration":0.1327432500000043,"midi":36,"time":167.78885074218752,"velocity":0.3937007874015748},{"duration":0.1327432500000043,"midi":42,"time":167.78885074218752,"velocity":0.3937007874015748},{"duration":0.1327432499999759,"midi":42,"time":168.05433724218753,"velocity":0.3937007874015748},{"duration":0.1327432500000043,"midi":42,"time":168.1870804921875,"velocity":0.3937007874015748},{"duration":0.1327432500000043,"midi":42,"time":168.3198237421875,"velocity":0.3937007874015748},{"duration":0.1327432500000043,"midi":38,"time":168.3198237421875,"velocity":0.3937007874015748},{"duration":0.1327432500000043,"midi":39,"time":168.3198237421875,"velocity":0.3937007874015748},{"duration":0.1327432500000043,"midi":36,"time":168.3198237421875,"velocity":0.3937007874015748},{"duration":0.1327432500000043,"midi":42,"time":168.58531024218752,"velocity":0.3937007874015748},{"duration":0.1327432500000043,"midi":42,"time":168.71805349218752,"velocity":0.3937007874015748},{"duration":0.1327432500000043,"midi":42,"time":168.85079674218753,"velocity":0.3937007874015748},{"duration":0.1327432500000043,"midi":36,"time":168.85079674218753,"velocity":0.3937007874015748},{"duration":0.1327432500000043,"midi":42,"time":169.1162832421875,"velocity":0.3937007874015748},{"duration":0.1327432500000043,"midi":42,"time":169.2490264921875,"velocity":0.3937007874015748},{"duration":0.1327432500000043,"midi":42,"time":169.38176974218752,"velocity":0.3937007874015748},{"duration":0.1327432500000043,"midi":38,"time":169.38176974218752,"velocity":0.3937007874015748},{"duration":0.1327432500000043,"midi":36,"time":169.38176974218752,"velocity":0.3937007874015748},{"duration":0.1327432500000043,"midi":39,"time":169.38176974218752,"velocity":0.3937007874015748},{"duration":0.1327432500000043,"midi":42,"time":169.64725624218752,"velocity":0.3937007874015748},{"duration":0.1327432500000043,"midi":42,"time":169.77999949218753,"velocity":0.3937007874015748},{"duration":0.1327432499999759,"midi":42,"time":169.91274274218753,"velocity":0.3937007874015748},{"duration":0.1327432499999759,"midi":36,"time":169.91274274218753,"velocity":0.3937007874015748},{"duration":0.6637162499999931,"midi":61,"time":169.91274274218753,"velocity":0.3937007874015748},{"duration":0.7964594999999974,"midi":66,"time":169.91274274218753,"velocity":0.3937007874015748},{"duration":0.7964594999999974,"midi":70,"time":169.91274274218753,"velocity":0.3937007874015748},{"duration":0.7964594999999974,"midi":73,"time":169.91274274218753,"velocity":0.3937007874015748},{"duration":0.6637162499999931,"midi":65,"time":169.91274274218753,"velocity":0.3937007874015748},{"duration":0.6637162499999931,"midi":54,"time":169.91274274218753,"velocity":0.3937007874015748},{"duration":0.2654864999999802,"midi":75,"time":169.91274274218753,"velocity":0.3937007874015748},{"duration":0.7964594999999974,"midi":77,"time":169.91274274218753,"velocity":0.3937007874015748},{"duration":0.6637162499999931,"midi":58,"time":169.91274274218753,"velocity":0.3937007874015748},{"duration":0.1327432500000043,"midi":63,"time":170.1782292421875,"velocity":0.3937007874015748},{"duration":0.2654865000000086,"midi":63,"time":170.1782292421875,"velocity":0.3937007874015748},{"duration":0.1327432500000043,"midi":42,"time":170.1782292421875,"velocity":0.3937007874015748},{"duration":0.2654865000000086,"midi":75,"time":170.1782292421875,"velocity":0.3937007874015748},{"duration":0.1327432500000043,"midi":42,"time":170.31097249218752,"velocity":0.3937007874015748},{"duration":0.2654865000000086,"midi":63,"time":170.44371574218752,"velocity":0.3937007874015748},{"duration":0.1327432500000043,"midi":38,"time":170.44371574218752,"velocity":0.3937007874015748},{"duration":0.1327432500000043,"midi":36,"time":170.44371574218752,"velocity":0.3937007874015748},{"duration":0.2654865000000086,"midi":75,"time":170.44371574218752,"velocity":0.3937007874015748},{"duration":0.1327432500000043,"midi":39,"time":170.44371574218752,"velocity":0.3937007874015748},{"duration":0.1327432500000043,"midi":42,"time":170.44371574218752,"velocity":0.3937007874015748},{"duration":0.9292027500000017,"midi":53,"time":170.70920224218753,"velocity":0.3937007874015748},{"duration":0.9292027500000017,"midi":60,"time":170.70920224218753,"velocity":0.3937007874015748},{"duration":0.2654864999999802,"midi":65,"time":170.70920224218753,"velocity":0.3937007874015748},{"duration":0.1327432499999759,"midi":46,"time":170.70920224218753,"velocity":0.3937007874015748},{"duration":1.3274324999999862,"midi":72,"time":170.70920224218753,"velocity":0.3937007874015748},{"duration":1.3274324999999862,"midi":68,"time":170.70920224218753,"velocity":0.3937007874015748},{"duration":0.9292027500000017,"midi":56,"time":170.70920224218753,"velocity":0.3937007874015748},{"duration":1.3274324999999862,"midi":75,"time":170.70920224218753,"velocity":0.3937007874015748},{"duration":0.9292027500000017,"midi":63,"time":170.70920224218753,"velocity":0.3937007874015748},{"duration":1.3274324999999862,"midi":65,"time":170.70920224218753,"velocity":0.3937007874015748},{"duration":0.2654864999999802,"midi":77,"time":170.70920224218753,"velocity":0.3937007874015748},{"duration":1.061946000000006,"midi":63,"time":170.9746887421875,"velocity":0.3937007874015748},{"duration":0.1327432500000043,"midi":36,"time":170.9746887421875,"velocity":0.3937007874015748},{"duration":0.1327432500000043,"midi":42,"time":170.9746887421875,"velocity":0.3937007874015748},{"duration":1.061946000000006,"midi":75,"time":170.9746887421875,"velocity":0.3937007874015748},{"duration":0.1327432500000043,"midi":42,"time":171.24017524218752,"velocity":0.3937007874015748},{"duration":0.1327432500000043,"midi":42,"time":171.37291849218752,"velocity":0.3937007874015748},{"duration":0.1327432500000043,"midi":38,"time":171.50566174218753,"velocity":0.3937007874015748},{"duration":0.1327432500000043,"midi":39,"time":171.50566174218753,"velocity":0.3937007874015748},{"duration":0.1327432500000043,"midi":42,"time":171.50566174218753,"velocity":0.3937007874015748},{"duration":0.1327432500000043,"midi":36,"time":171.50566174218753,"velocity":0.3937007874015748},{"duration":0.1327432499999759,"midi":39,"time":171.63840499218753,"velocity":0.3937007874015748},{"duration":0.1327432500000043,"midi":46,"time":171.7711482421875,"velocity":0.3937007874015748},{"duration":0.1327432500000043,"midi":39,"time":171.7711482421875,"velocity":0.3937007874015748},{"duration":0.1327432500000043,"midi":39,"time":171.9038914921875,"velocity":0.3937007874015748},{"duration":0.1327432500000043,"midi":36,"time":172.03663474218752,"velocity":0.3937007874015748},{"duration":0.1327432500000043,"midi":46,"time":172.03663474218752,"velocity":0.3937007874015748},{"duration":1.5929189999999949,"midi":70,"time":172.03663474218752,"velocity":0.3937007874015748},{"duration":1.5929189999999949,"midi":66,"time":172.03663474218752,"velocity":0.3937007874015748},{"duration":1.8584055000000035,"midi":66,"time":172.03663474218752,"velocity":0.3937007874015748},{"duration":0.1327432500000043,"midi":46,"time":172.03663474218752,"velocity":0.3937007874015748},{"duration":1.8584055000000035,"midi":70,"time":172.03663474218752,"velocity":0.3937007874015748},{"duration":1.5929189999999949,"midi":73,"time":172.03663474218752,"velocity":0.3937007874015748},{"duration":1.5929189999999949,"midi":63,"time":172.03663474218752,"velocity":0.3937007874015748},{"duration":1.8584055000000035,"midi":73,"time":172.03663474218752,"velocity":0.3937007874015748},{"duration":1.5929189999999949,"midi":61,"time":172.03663474218752,"velocity":0.3937007874015748},{"duration":0.1327432500000043,"midi":56,"time":172.16937799218752,"velocity":0.3937007874015748},{"duration":0.1327432500000043,"midi":46,"time":172.30212124218752,"velocity":0.3937007874015748},{"duration":0.1327432500000043,"midi":42,"time":172.30212124218752,"velocity":0.3937007874015748},{"duration":0.1327432500000043,"midi":49,"time":172.43486449218753,"velocity":0.3937007874015748},{"duration":0.1327432500000043,"midi":42,"time":172.43486449218753,"velocity":0.3937007874015748},{"duration":0.1327432499999759,"midi":42,"time":172.56760774218753,"velocity":0.3937007874015748},{"duration":0.1327432499999759,"midi":36,"time":172.56760774218753,"velocity":0.3937007874015748},{"duration":0.1327432499999759,"midi":40,"time":172.56760774218753,"velocity":0.3937007874015748},{"duration":0.1327432499999759,"midi":38,"time":172.56760774218753,"velocity":0.3937007874015748},{"duration":0.1327432499999759,"midi":56,"time":172.56760774218753,"velocity":0.3937007874015748},{"duration":0.1327432500000043,"midi":49,"time":172.7003509921875,"velocity":0.3937007874015748},{"duration":0.1327432500000043,"midi":48,"time":172.8330942421875,"velocity":0.3937007874015748},{"duration":0.1327432500000043,"midi":42,"time":172.8330942421875,"velocity":0.3937007874015748},{"duration":0.1327432500000043,"midi":53,"time":172.96583749218752,"velocity":0.3937007874015748},{"duration":0.1327432500000043,"midi":42,"time":172.96583749218752,"velocity":0.3937007874015748},{"duration":0.1327432500000043,"midi":42,"time":173.09858074218752,"velocity":0.3937007874015748},{"duration":0.1327432500000043,"midi":44,"time":173.09858074218752,"velocity":0.3937007874015748},{"duration":0.1327432500000043,"midi":56,"time":173.09858074218752,"velocity":0.3937007874015748},{"duration":0.1327432500000043,"midi":36,"time":173.09858074218752,"velocity":0.3937007874015748},{"duration":0.1327432499999759,"midi":42,"time":173.36406724218753,"velocity":0.3937007874015748},{"duration":0.1327432499999759,"midi":46,"time":173.36406724218753,"velocity":0.3937007874015748},{"duration":0.1327432500000043,"midi":56,"time":173.4968104921875,"velocity":0.3937007874015748},{"duration":0.1327432500000043,"midi":42,"time":173.4968104921875,"velocity":0.3937007874015748},{"duration":0.1327432500000043,"midi":36,"time":173.6295537421875,"velocity":0.3937007874015748},{"duration":0.1327432500000043,"midi":40,"time":173.6295537421875,"velocity":0.3937007874015748},{"duration":0.1327432500000043,"midi":42,"time":173.6295537421875,"velocity":0.3937007874015748},{"duration":0.1327432500000043,"midi":38,"time":173.6295537421875,"velocity":0.3937007874015748},{"duration":1.9911487500000078,"midi":72,"time":173.89504024218752,"velocity":0.3937007874015748},{"duration":1.9911487500000078,"midi":63,"time":173.89504024218752,"velocity":0.3937007874015748},{"duration":1.9911487500000078,"midi":68,"time":173.89504024218752,"velocity":0.3937007874015748},{"duration":2.3893784999999923,"midi":68,"time":173.89504024218752,"velocity":0.3937007874015748},{"duration":0.1327432500000043,"midi":42,"time":173.89504024218752,"velocity":0.3937007874015748},{"duration":1.9911487500000078,"midi":65,"time":173.89504024218752,"velocity":0.3937007874015748},{"duration":2.3893784999999923,"midi":65,"time":173.89504024218752,"velocity":0.3937007874015748},{"duration":0.1327432500000043,"midi":53,"time":173.89504024218752,"velocity":0.3937007874015748},{"duration":2.3893784999999923,"midi":72,"time":173.89504024218752,"velocity":0.3937007874015748},{"duration":1.9911487500000078,"midi":75,"time":173.89504024218752,"velocity":0.3937007874015748},{"duration":2.3893784999999923,"midi":75,"time":173.89504024218752,"velocity":0.3937007874015748},{"duration":0.1327432500000043,"midi":56,"time":174.02778349218752,"velocity":0.3937007874015748},{"duration":0.1327432500000043,"midi":42,"time":174.02778349218752,"velocity":0.3937007874015748},{"duration":0.1327432500000043,"midi":44,"time":174.02778349218752,"velocity":0.3937007874015748},{"duration":0.1327432500000043,"midi":36,"time":174.16052674218753,"velocity":0.3937007874015748},{"duration":0.1327432500000043,"midi":46,"time":174.16052674218753,"velocity":0.3937007874015748},{"duration":0.1327432500000043,"midi":42,"time":174.16052674218753,"velocity":0.3937007874015748},{"duration":0.1327432499999759,"midi":56,"time":174.29326999218753,"velocity":0.3937007874015748},{"duration":0.1327432500000043,"midi":42,"time":174.4260132421875,"velocity":0.3937007874015748},{"duration":0.1327432500000043,"midi":46,"time":174.4260132421875,"velocity":0.3937007874015748},{"duration":0.1327432500000043,"midi":49,"time":174.5587564921875,"velocity":0.3937007874015748},{"duration":0.1327432500000043,"midi":42,"time":174.5587564921875,"velocity":0.3937007874015748},{"duration":0.1327432500000043,"midi":38,"time":174.69149974218752,"velocity":0.3937007874015748},{"duration":0.1327432500000043,"midi":42,"time":174.69149974218752,"velocity":0.3937007874015748},{"duration":0.1327432500000043,"midi":56,"time":174.69149974218752,"velocity":0.3937007874015748},{"duration":0.1327432500000043,"midi":40,"time":174.69149974218752,"velocity":0.3937007874015748},{"duration":0.1327432500000043,"midi":36,"time":174.69149974218752,"velocity":0.3937007874015748},{"duration":0.1327432500000043,"midi":49,"time":174.82424299218752,"velocity":0.3937007874015748},{"duration":0.1327432500000043,"midi":42,"time":174.95698624218753,"velocity":0.3937007874015748},{"duration":0.1327432500000043,"midi":48,"time":174.95698624218753,"velocity":0.3937007874015748},{"duration":0.1327432499999759,"midi":53,"time":175.08972949218753,"velocity":0.3937007874015748},{"duration":0.1327432499999759,"midi":42,"time":175.08972949218753,"velocity":0.3937007874015748},{"duration":0.1327432500000043,"midi":42,"time":175.2224727421875,"velocity":0.3937007874015748},{"duration":0.1327432500000043,"midi":36,"time":175.2224727421875,"velocity":0.3937007874015748},{"duration":0.1327432500000043,"midi":56,"time":175.2224727421875,"velocity":0.3937007874015748},{"duration":0.1327432500000043,"midi":44,"time":175.2224727421875,"velocity":0.3937007874015748},{"duration":0.1327432500000043,"midi":42,"time":175.48795924218751,"velocity":0.3937007874015748},{"duration":0.1327432500000043,"midi":56,"time":175.48795924218751,"velocity":0.3937007874015748},{"duration":0.1327432500000043,"midi":46,"time":175.48795924218751,"velocity":0.3937007874015748},{"duration":0.1327432500000043,"midi":42,"time":175.62070249218752,"velocity":0.3937007874015748},{"duration":0.1327432500000043,"midi":36,"time":175.75344574218752,"velocity":0.3937007874015748},{"duration":0.1327432500000043,"midi":38,"time":175.75344574218752,"velocity":0.3937007874015748},{"duration":0.1327432500000043,"midi":40,"time":175.75344574218752,"velocity":0.3937007874015748},{"duration":0.1327432500000043,"midi":56,"time":175.75344574218752,"velocity":0.3937007874015748},{"duration":0.1327432500000043,"midi":42,"time":175.75344574218752,"velocity":0.3937007874015748},{"duration":0.1327432500000043,"midi":58,"time":175.88618899218753,"velocity":0.3937007874015748},{"duration":0.1327432499999759,"midi":46,"time":176.01893224218753,"velocity":0.3937007874015748},{"duration":2.1238919999999837,"midi":68,"time":176.01893224218753,"velocity":0.3937007874015748},{"duration":2.256635249999988,"midi":66,"time":176.01893224218753,"velocity":0.3937007874015748},{"duration":0.1327432499999759,"midi":44,"time":176.01893224218753,"velocity":0.3937007874015748},{"duration":2.1238919999999837,"midi":73,"time":176.01893224218753,"velocity":0.3937007874015748},{"duration":2.1238919999999837,"midi":70,"time":176.01893224218753,"velocity":0.3937007874015748},{"duration":2.1238919999999837,"midi":77,"time":176.01893224218753,"velocity":0.3937007874015748},{"duration":0.1327432500000043,"midi":44,"time":176.1516754921875,"velocity":0.3937007874015748},{"duration":2.123892000000012,"midi":73,"time":176.2844187421875,"velocity":0.3937007874015748},{"duration":2.123892000000012,"midi":70,"time":176.2844187421875,"velocity":0.3937007874015748},{"duration":0.1327432500000043,"midi":36,"time":176.2844187421875,"velocity":0.3937007874015748},{"duration":2.123892000000012,"midi":66,"time":176.2844187421875,"velocity":0.3937007874015748},{"duration":0.1327432500000043,"midi":46,"time":176.2844187421875,"velocity":0.3937007874015748},{"duration":0.1327432500000043,"midi":42,"time":176.2844187421875,"velocity":0.3937007874015748},{"duration":0.1327432500000043,"midi":56,"time":176.41716199218752,"velocity":0.3937007874015748},{"duration":0.1327432500000043,"midi":46,"time":176.54990524218752,"velocity":0.3937007874015748},{"duration":0.1327432500000043,"midi":42,"time":176.54990524218752,"velocity":0.3937007874015748},{"duration":0.1327432500000043,"midi":42,"time":176.68264849218752,"velocity":0.3937007874015748},{"duration":0.1327432500000043,"midi":49,"time":176.68264849218752,"velocity":0.3937007874015748},{"duration":0.1327432500000043,"midi":38,"time":176.81539174218753,"velocity":0.3937007874015748},{"duration":0.1327432500000043,"midi":56,"time":176.81539174218753,"velocity":0.3937007874015748},{"duration":0.1327432500000043,"midi":36,"time":176.81539174218753,"velocity":0.3937007874015748},{"duration":0.1327432500000043,"midi":42,"time":176.81539174218753,"velocity":0.3937007874015748},{"duration":0.1327432500000043,"midi":40,"time":176.81539174218753,"velocity":0.3937007874015748},{"duration":0.1327432499999759,"midi":49,"time":176.94813499218753,"velocity":0.3937007874015748},{"duration":0.1327432500000043,"midi":48,"time":177.0808782421875,"velocity":0.3937007874015748},{"duration":0.1327432500000043,"midi":42,"time":177.0808782421875,"velocity":0.3937007874015748},{"duration":0.1327432500000043,"midi":53,"time":177.2136214921875,"velocity":0.3937007874015748},{"duration":0.1327432500000043,"midi":42,"time":177.2136214921875,"velocity":0.3937007874015748},{"duration":0.1327432500000043,"midi":36,"time":177.34636474218752,"velocity":0.3937007874015748},{"duration":0.1327432500000043,"midi":42,"time":177.34636474218752,"velocity":0.3937007874015748},{"duration":0.1327432500000043,"midi":56,"time":177.34636474218752,"velocity":0.3937007874015748},{"duration":0.1327432500000043,"midi":44,"time":177.34636474218752,"velocity":0.3937007874015748},{"duration":0.1327432500000043,"midi":46,"time":177.61185124218753,"velocity":0.3937007874015748},{"duration":0.1327432500000043,"midi":42,"time":177.61185124218753,"velocity":0.3937007874015748},{"duration":0.1327432500000043,"midi":56,"time":177.61185124218753,"velocity":0.3937007874015748},{"duration":0.1327432499999759,"midi":42,"time":177.74459449218753,"velocity":0.3937007874015748},{"duration":0.1327432500000043,"midi":40,"time":177.8773377421875,"velocity":0.3937007874015748},{"duration":0.1327432500000043,"midi":42,"time":177.8773377421875,"velocity":0.3937007874015748},{"duration":0.1327432500000043,"midi":38,"time":177.8773377421875,"velocity":0.3937007874015748},{"duration":0.1327432500000043,"midi":36,"time":177.8773377421875,"velocity":0.3937007874015748},{"duration":0.1327432500000043,"midi":42,"time":178.14282424218752,"velocity":0.3937007874015748},{"duration":0.1327432500000043,"midi":51,"time":178.14282424218752,"velocity":0.3937007874015748},{"duration":0.1327432500000043,"midi":42,"time":178.27556749218752,"velocity":0.3937007874015748},{"duration":0.1327432500000043,"midi":53,"time":178.27556749218752,"velocity":0.3937007874015748},{"duration":0.1327432500000043,"midi":44,"time":178.27556749218752,"velocity":0.3937007874015748},{"duration":0.1327432500000043,"midi":42,"time":178.40831074218752,"velocity":0.3937007874015748},{"duration":0.1327432500000043,"midi":36,"time":178.40831074218752,"velocity":0.3937007874015748},{"duration":0.1327432500000043,"midi":70,"time":178.40831074218752,"velocity":0.3937007874015748},{"duration":0.5309729999999888,"midi":70,"time":178.40831074218752,"velocity":0.3937007874015748},{"duration":0.1327432500000043,"midi":46,"time":178.40831074218752,"velocity":0.3937007874015748},{"duration":0.1327432500000043,"midi":73,"time":178.40831074218752,"velocity":0.3937007874015748},{"duration":0.1327432500000043,"midi":66,"time":178.40831074218752,"velocity":0.3937007874015748},{"duration":0.1327432500000043,"midi":63,"time":178.40831074218752,"velocity":0.3937007874015748},{"duration":0.7964594999999974,"midi":77,"time":178.40831074218752,"velocity":0.3937007874015748},{"duration":0.5309729999999888,"midi":73,"time":178.40831074218752,"velocity":0.3937007874015748},{"duration":0.5309729999999888,"midi":66,"time":178.40831074218752,"velocity":0.3937007874015748},{"duration":0.1327432500000043,"midi":56,"time":178.54105399218753,"velocity":0.3937007874015748},{"duration":0.1327432499999759,"midi":46,"time":178.67379724218753,"velocity":0.3937007874015748},{"duration":0.1327432499999759,"midi":40,"time":178.67379724218753,"velocity":0.3937007874015748},{"duration":0.1327432499999759,"midi":42,"time":178.67379724218753,"velocity":0.3937007874015748},{"duration":0.1327432499999759,"midi":38,"time":178.67379724218753,"velocity":0.3937007874015748},{"duration":0.1327432500000043,"midi":63,"time":178.8065404921875,"velocity":0.3937007874015748},{"duration":0.3982297500000129,"midi":73,"time":178.8065404921875,"velocity":0.3937007874015748},{"duration":0.3982297500000129,"midi":66,"time":178.8065404921875,"velocity":0.3937007874015748},{"duration":0.1327432500000043,"midi":49,"time":178.8065404921875,"velocity":0.3937007874015748},{"duration":0.1327432500000043,"midi":42,"time":178.8065404921875,"velocity":0.3937007874015748},{"duration":0.3982297500000129,"midi":70,"time":178.8065404921875,"velocity":0.3937007874015748},{"duration":0.1327432500000043,"midi":42,"time":178.9392837421875,"velocity":0.3937007874015748},{"duration":0.1327432500000043,"midi":36,"time":178.9392837421875,"velocity":0.3937007874015748},{"duration":0.1327432500000043,"midi":56,"time":178.9392837421875,"velocity":0.3937007874015748},{"duration":0.1327432500000043,"midi":38,"time":179.07202699218752,"velocity":0.3937007874015748},{"duration":0.1327432500000043,"midi":49,"time":179.07202699218752,"velocity":0.3937007874015748},{"duration":0.1327432500000043,"midi":40,"time":179.07202699218752,"velocity":0.3937007874015748},{"duration":0.6637162499999931,"midi":68,"time":179.20477024218752,"velocity":0.3937007874015748},{"duration":0.1327432500000043,"midi":46,"time":179.20477024218752,"velocity":0.3937007874015748},{"duration":0.6637162499999931,"midi":72,"time":179.20477024218752,"velocity":0.3937007874015748},{"duration":1.3274324999999862,"midi":72,"time":179.20477024218752,"velocity":0.3937007874015748},{"duration":0.6637162499999931,"midi":65,"time":179.20477024218752,"velocity":0.3937007874015748},{"duration":0.6637162499999931,"midi":68,"time":179.20477024218752,"velocity":0.3937007874015748},{"duration":0.9292027500000017,"midi":68,"time":179.20477024218752,"velocity":0.3937007874015748},{"duration":0.3982297499999845,"midi":56,"time":179.20477024218752,"velocity":0.3937007874015748},{"duration":0.1327432500000043,"midi":48,"time":179.20477024218752,"velocity":0.3937007874015748},{"duration":0.6637162499999931,"midi":75,"time":179.20477024218752,"velocity":0.3937007874015748},{"duration":1.3274324999999862,"midi":75,"time":179.20477024218752,"velocity":0.3937007874015748},{"duration":1.3274324999999862,"midi":65,"time":179.20477024218752,"velocity":0.3937007874015748},{"duration":0.1327432500000043,"midi":53,"time":179.33751349218753,"velocity":0.3937007874015748},{"duration":0.1327432499999759,"midi":42,"time":179.47025674218753,"velocity":0.3937007874015748},{"duration":0.3982297499999845,"midi":56,"time":179.47025674218753,"velocity":0.3937007874015748},{"duration":0.1327432499999759,"midi":44,"time":179.47025674218753,"velocity":0.3937007874015748},{"duration":0.1327432499999759,"midi":36,"time":179.47025674218753,"velocity":0.3937007874015748},{"duration":0.1327432499999759,"midi":38,"time":179.47025674218753,"velocity":0.3937007874015748},{"duration":0.1327432499999759,"midi":40,"time":179.47025674218753,"velocity":0.3937007874015748},{"duration":0.1327432500000043,"midi":56,"time":179.7357432421875,"velocity":0.3937007874015748},{"duration":0.1327432500000043,"midi":42,"time":179.7357432421875,"velocity":0.3937007874015748},{"duration":0.1327432500000043,"midi":38,"time":179.7357432421875,"velocity":0.3937007874015748},{"duration":0.1327432500000043,"midi":40,"time":179.7357432421875,"velocity":0.3937007874015748},{"duration":0.1327432500000043,"midi":46,"time":179.7357432421875,"velocity":0.3937007874015748},{"duration":0.1327432500000043,"midi":42,"time":179.86848649218751,"velocity":0.3937007874015748},{"duration":0.1327432500000043,"midi":38,"time":179.86848649218751,"velocity":0.3937007874015748},{"duration":0.1327432500000043,"midi":40,"time":179.86848649218751,"velocity":0.3937007874015748},{"duration":0.1327432500000043,"midi":36,"time":180.00122974218752,"velocity":0.3937007874015748},{"duration":0.1327432500000043,"midi":68,"time":180.00122974218752,"velocity":0.3937007874015748},{"duration":0.1327432500000043,"midi":38,"time":180.00122974218752,"velocity":0.3937007874015748},{"duration":0.1327432500000043,"midi":40,"time":180.00122974218752,"velocity":0.3937007874015748},{"duration":0.1327432500000043,"midi":41,"time":180.00122974218752,"velocity":0.3937007874015748},{"duration":0.1327432500000043,"midi":42,"time":180.00122974218752,"velocity":0.3937007874015748},{"duration":0.1327432500000043,"midi":56,"time":180.00122974218752,"velocity":0.3937007874015748},{"duration":0.5309729999999888,"midi":68,"time":180.00122974218752,"velocity":0.3937007874015748},{"duration":0.1327432500000043,"midi":40,"time":180.13397299218752,"velocity":0.3937007874015748},{"duration":0.1327432500000043,"midi":70,"time":180.13397299218752,"velocity":0.3937007874015748},{"duration":0.1327432500000043,"midi":38,"time":180.13397299218752,"velocity":0.3937007874015748},{"duration":0.1327432500000043,"midi":58,"time":180.13397299218752,"velocity":0.3937007874015748},{"duration":0.1327432500000043,"midi":70,"time":180.13397299218752,"velocity":0.3937007874015748},{"duration":0.1327432500000043,"midi":56,"time":180.13397299218752,"velocity":0.3937007874015748},{"duration":0.1327432500000043,"midi":61,"time":180.26671624218753,"velocity":0.3937007874015748},{"duration":0.1327432500000043,"midi":40,"time":180.26671624218753,"velocity":0.3937007874015748},{"duration":0.1327432500000043,"midi":38,"time":180.26671624218753,"velocity":0.3937007874015748},{"duration":0.1327432500000043,"midi":73,"time":180.26671624218753,"velocity":0.3937007874015748},{"duration":0.1327432500000043,"midi":44,"time":180.26671624218753,"velocity":0.3937007874015748},{"duration":0.1327432500000043,"midi":73,"time":180.26671624218753,"velocity":0.3937007874015748},{"duration":0.1327432500000043,"midi":46,"time":180.26671624218753,"velocity":0.3937007874015748},{"duration":0.1327432499999759,"midi":40,"time":180.39945949218753,"velocity":0.3937007874015748},{"duration":0.1327432499999759,"midi":38,"time":180.39945949218753,"velocity":0.3937007874015748},{"duration":0.1327432499999759,"midi":56,"time":180.39945949218753,"velocity":0.3937007874015748},{"duration":0.1327432499999759,"midi":58,"time":180.39945949218753,"velocity":0.3937007874015748},{"duration":0.1327432499999759,"midi":70,"time":180.39945949218753,"velocity":0.3937007874015748},{"duration":0.1327432499999759,"midi":70,"time":180.39945949218753,"velocity":0.3937007874015748},{"duration":0.1327432499999759,"midi":41,"time":180.39945949218753,"velocity":0.3937007874015748},{"duration":0.7964595000000259,"midi":58,"time":180.5322027421875,"velocity":0.3937007874015748},{"duration":0.7964595000000259,"midi":61,"time":180.5322027421875,"velocity":0.3937007874015748},{"duration":0.7964595000000259,"midi":73,"time":180.5322027421875,"velocity":0.3937007874015748},{"duration":0.7964595000000259,"midi":77,"time":180.5322027421875,"velocity":0.3937007874015748},{"duration":0.7964595000000259,"midi":85,"time":180.5322027421875,"velocity":0.3937007874015748},{"duration":0.7964595000000259,"midi":66,"time":180.5322027421875,"velocity":0.3937007874015748},{"duration":0.1327432500000043,"midi":42,"time":180.5322027421875,"velocity":0.3937007874015748},{"duration":0.1327432500000043,"midi":39,"time":180.5322027421875,"velocity":0.3937007874015748},{"duration":0.7964595000000259,"midi":70,"time":180.5322027421875,"velocity":0.3937007874015748},{"duration":0.7964595000000259,"midi":66,"time":180.5322027421875,"velocity":0.3937007874015748},{"duration":0.1327432500000043,"midi":36,"time":180.5322027421875,"velocity":0.3937007874015748},{"duration":0.1327432500000043,"midi":56,"time":180.6649459921875,"velocity":0.3937007874015748},{"duration":0.1327432500000043,"midi":39,"time":180.79768924218752,"velocity":0.3937007874015748},{"duration":0.1327432500000043,"midi":42,"time":180.79768924218752,"velocity":0.3937007874015748},{"duration":0.1327432500000043,"midi":42,"time":180.93043249218752,"velocity":0.3937007874015748},{"duration":0.1327432500000043,"midi":39,"time":180.93043249218752,"velocity":0.3937007874015748},{"duration":0.1327432500000043,"midi":42,"time":181.06317574218752,"velocity":0.3937007874015748},{"duration":0.1327432500000043,"midi":36,"time":181.06317574218752,"velocity":0.3937007874015748},{"duration":0.1327432500000043,"midi":38,"time":181.06317574218752,"velocity":0.3937007874015748},{"duration":0.1327432500000043,"midi":39,"time":181.06317574218752,"velocity":0.3937007874015748},{"duration":0.1327432500000043,"midi":56,"time":181.06317574218752,"velocity":0.3937007874015748},{"duration":0.1327432500000043,"midi":48,"time":181.19591899218753,"velocity":0.3937007874015748},{"duration":1.3274324999999862,"midi":68,"time":181.32866224218753,"velocity":0.3937007874015748},{"duration":0.1327432499999759,"midi":42,"time":181.32866224218753,"velocity":0.3937007874015748},{"duration":1.3274324999999862,"midi":75,"time":181.32866224218753,"velocity":0.3937007874015748},{"duration":1.3274324999999862,"midi":72,"time":181.32866224218753,"velocity":0.3937007874015748},{"duration":0.1327432499999759,"midi":46,"time":181.32866224218753,"velocity":0.3937007874015748},{"duration":2.1238919999999837,"midi":60,"time":181.32866224218753,"velocity":0.3937007874015748},{"duration":2.1238919999999837,"midi":68,"time":181.32866224218753,"velocity":0.3937007874015748},{"duration":1.0619459999999776,"midi":87,"time":181.32866224218753,"velocity":0.3937007874015748},{"duration":2.1238919999999837,"midi":63,"time":181.32866224218753,"velocity":0.3937007874015748},{"duration":0.1327432500000043,"midi":42,"time":181.4614054921875,"velocity":0.3937007874015748},{"duration":0.1327432500000043,"midi":53,"time":181.4614054921875,"velocity":0.3937007874015748},{"duration":0.1327432500000043,"midi":42,"time":181.5941487421875,"velocity":0.3937007874015748},{"duration":0.1327432500000043,"midi":56,"time":181.5941487421875,"velocity":0.3937007874015748},{"duration":0.1327432500000043,"midi":44,"time":181.5941487421875,"velocity":0.3937007874015748},{"duration":0.1327432500000043,"midi":36,"time":181.5941487421875,"velocity":0.3937007874015748},{"duration":0.1327432500000043,"midi":42,"time":181.85963524218752,"velocity":0.3937007874015748},{"duration":0.1327432500000043,"midi":44,"time":181.85963524218752,"velocity":0.3937007874015748},{"duration":0.1327432500000043,"midi":56,"time":181.99237849218753,"velocity":0.3937007874015748},{"duration":0.1327432500000043,"midi":42,"time":181.99237849218753,"velocity":0.3937007874015748},{"duration":0.1327432499999759,"midi":36,"time":182.12512174218753,"velocity":0.3937007874015748},{"duration":0.1327432499999759,"midi":42,"time":182.12512174218753,"velocity":0.3937007874015748},{"duration":0.1327432499999759,"midi":38,"time":182.12512174218753,"velocity":0.3937007874015748},{"duration":0.1327432499999759,"midi":39,"time":182.12512174218753,"velocity":0.3937007874015748},{"duration":0.1327432500000043,"midi":39,"time":182.3906082421875,"velocity":0.3937007874015748},{"duration":0.1327432500000043,"midi":42,"time":182.3906082421875,"velocity":0.3937007874015748},{"duration":0.1327432500000043,"midi":53,"time":182.3906082421875,"velocity":0.3937007874015748},{"duration":0.2654865000000086,"midi":80,"time":182.3906082421875,"velocity":0.3937007874015748},{"duration":0.1327432500000043,"midi":44,"time":182.52335149218752,"velocity":0.3937007874015748},{"duration":0.1327432500000043,"midi":42,"time":182.52335149218752,"velocity":0.3937007874015748},{"duration":0.1327432500000043,"midi":56,"time":182.52335149218752,"velocity":0.3937007874015748},{"duration":0.1327432500000043,"midi":41,"time":182.65609474218752,"velocity":0.3937007874015748},{"duration":2.123892000000012,"midi":68,"time":182.65609474218752,"velocity":0.3937007874015748},{"duration":0.7964594999999974,"midi":72,"time":182.65609474218752,"velocity":0.3937007874015748},{"duration":0.1327432500000043,"midi":36,"time":182.65609474218752,"velocity":0.3937007874015748},{"duration":0.1327432500000043,"midi":42,"time":182.65609474218752,"velocity":0.3937007874015748},{"duration":0.7964594999999974,"midi":87,"time":182.65609474218752,"velocity":0.3937007874015748},{"duration":0.7964594999999974,"midi":75,"time":182.65609474218752,"velocity":0.3937007874015748},{"duration":0.1327432500000043,"midi":56,"time":182.78883799218752,"velocity":0.3937007874015748},{"duration":0.1327432500000043,"midi":42,"time":182.92158124218753,"velocity":0.3937007874015748},{"duration":0.1327432500000043,"midi":41,"time":182.92158124218753,"velocity":0.3937007874015748},{"duration":0.1327432499999759,"midi":42,"time":183.05432449218753,"velocity":0.3937007874015748},{"duration":0.1327432499999759,"midi":48,"time":183.05432449218753,"velocity":0.3937007874015748},{"duration":0.1327432500000043,"midi":38,"time":183.1870677421875,"velocity":0.3937007874015748},{"duration":0.1327432500000043,"midi":42,"time":183.1870677421875,"velocity":0.3937007874015748},{"duration":0.1327432500000043,"midi":36,"time":183.1870677421875,"velocity":0.3937007874015748},{"duration":0.1327432500000043,"midi":39,"time":183.1870677421875,"velocity":0.3937007874015748},{"duration":0.1327432500000043,"midi":56,"time":183.1870677421875,"velocity":0.3937007874015748},{"duration":0.1327432500000043,"midi":48,"time":183.3198109921875,"velocity":0.3937007874015748},{"duration":0.1327432500000043,"midi":46,"time":183.45255424218752,"velocity":0.3937007874015748},{"duration":1.3274325000000147,"midi":77,"time":183.45255424218752,"velocity":0.3937007874015748},{"duration":1.3274325000000147,"midi":70,"time":183.45255424218752,"velocity":0.3937007874015748},{"duration":0.1327432500000043,"midi":42,"time":183.45255424218752,"velocity":0.3937007874015748},{"duration":0.7964594999999974,"midi":61,"time":183.45255424218752,"velocity":0.3937007874015748},{"duration":1.3274325000000147,"midi":73,"time":183.45255424218752,"velocity":0.3937007874015748},{"duration":0.9292027500000017,"midi":65,"time":183.45255424218752,"velocity":0.3937007874015748},{"duration":0.7964594999999974,"midi":89,"time":183.45255424218752,"velocity":0.3937007874015748},{"duration":0.1327432500000043,"midi":53,"time":183.58529749218752,"velocity":0.3937007874015748},{"duration":0.1327432500000043,"midi":42,"time":183.58529749218752,"velocity":0.3937007874015748},{"duration":0.1327432500000043,"midi":42,"time":183.71804074218753,"velocity":0.3937007874015748},{"duration":0.1327432500000043,"midi":36,"time":183.71804074218753,"velocity":0.3937007874015748},{"duration":0.1327432500000043,"midi":56,"time":183.71804074218753,"velocity":0.3937007874015748},{"duration":0.1327432500000043,"midi":56,"time":183.9835272421875,"velocity":0.3937007874015748},{"duration":0.1327432500000043,"midi":42,"time":183.9835272421875,"velocity":0.3937007874015748},{"duration":0.1327432500000043,"midi":46,"time":183.9835272421875,"velocity":0.3937007874015748},{"duration":0.1327432500000043,"midi":42,"time":184.1162704921875,"velocity":0.3937007874015748},{"duration":0.1327432500000043,"midi":46,"time":184.1162704921875,"velocity":0.3937007874015748},{"duration":0.1327432500000043,"midi":56,"time":184.24901374218751,"velocity":0.3937007874015748},{"duration":0.5309730000000172,"midi":60,"time":184.24901374218751,"velocity":0.3937007874015748},{"duration":0.1327432500000043,"midi":89,"time":184.24901374218751,"velocity":0.3937007874015748},{"duration":0.1327432500000043,"midi":39,"time":184.24901374218751,"velocity":0.3937007874015748},{"duration":0.1327432500000043,"midi":38,"time":184.24901374218751,"velocity":0.3937007874015748},{"duration":0.1327432500000043,"midi":42,"time":184.24901374218751,"velocity":0.3937007874015748},{"duration":0.5309730000000172,"midi":63,"time":184.24901374218751,"velocity":0.3937007874015748},{"duration":0.1327432500000043,"midi":36,"time":184.24901374218751,"velocity":0.3937007874015748},{"duration":0.1327432500000043,"midi":48,"time":184.38175699218752,"velocity":0.3937007874015748},{"duration":0.1327432500000043,"midi":58,"time":184.38175699218752,"velocity":0.3937007874015748},{"duration":0.1327432500000043,"midi":90,"time":184.38175699218752,"velocity":0.3937007874015748},{"duration":0.1327432500000043,"midi":46,"time":184.51450024218752,"velocity":0.3937007874015748},{"duration":0.1327432500000043,"midi":46,"time":184.51450024218752,"velocity":0.3937007874015748},{"duration":0.1327432500000043,"midi":89,"time":184.51450024218752,"velocity":0.3937007874015748},{"duration":0.9292027500000017,"midi":85,"time":184.64724349218753,"velocity":0.3937007874015748},{"duration":0.1327432499999759,"midi":39,"time":184.77998674218753,"velocity":0.3937007874015748},{"duration":0.7964594999999974,"midi":70,"time":184.77998674218753,"velocity":0.3937007874015748},{"duration":0.7964594999999974,"midi":61,"time":184.77998674218753,"velocity":0.3937007874015748},{"duration":0.7964594999999974,"midi":66,"time":184.77998674218753,"velocity":0.3937007874015748},{"duration":0.1327432499999759,"midi":36,"time":184.77998674218753,"velocity":0.3937007874015748},{"duration":0.1327432499999759,"midi":42,"time":184.77998674218753,"velocity":0.3937007874015748},{"duration":0.7964594999999974,"midi":73,"time":184.77998674218753,"velocity":0.3937007874015748},{"duration":0.7964594999999974,"midi":58,"time":184.77998674218753,"velocity":0.3937007874015748},{"duration":0.9292027500000017,"midi":66,"time":184.77998674218753,"velocity":0.3937007874015748},{"duration":0.7964594999999974,"midi":77,"time":184.77998674218753,"velocity":0.3937007874015748},{"duration":0.1327432500000043,"midi":56,"time":184.9127299921875,"velocity":0.3937007874015748},{"duration":0.1327432500000043,"midi":42,"time":185.0454732421875,"velocity":0.3937007874015748},{"duration":0.1327432500000043,"midi":39,"time":185.0454732421875,"velocity":0.3937007874015748},{"duration":0.1327432500000043,"midi":48,"time":185.17821649218752,"velocity":0.3937007874015748},{"duration":0.1327432500000043,"midi":42,"time":185.17821649218752,"velocity":0.3937007874015748},{"duration":0.1327432500000043,"midi":38,"time":185.31095974218752,"velocity":0.3937007874015748},{"duration":0.1327432500000043,"midi":42,"time":185.31095974218752,"velocity":0.3937007874015748},{"duration":0.1327432500000043,"midi":36,"time":185.31095974218752,"velocity":0.3937007874015748},{"duration":0.1327432500000043,"midi":39,"time":185.31095974218752,"velocity":0.3937007874015748},{"duration":0.1327432500000043,"midi":56,"time":185.31095974218752,"velocity":0.3937007874015748},{"duration":0.1327432500000043,"midi":48,"time":185.44370299218753,"velocity":0.3937007874015748},{"duration":1.3274324999999862,"midi":72,"time":185.57644624218753,"velocity":0.3937007874015748},{"duration":1.8584055000000035,"midi":63,"time":185.57644624218753,"velocity":0.3937007874015748},{"duration":0.1327432500000043,"midi":46,"time":185.57644624218753,"velocity":0.3937007874015748},{"duration":0.1327432500000043,"midi":42,"time":185.57644624218753,"velocity":0.3937007874015748},{"duration":1.8584055000000035,"midi":60,"time":185.57644624218753,"velocity":0.3937007874015748},{"duration":1.3274324999999862,"midi":68,"time":185.57644624218753,"velocity":0.3937007874015748},{"duration":0.7964594999999974,"midi":87,"time":185.57644624218753,"velocity":0.3937007874015748},{"duration":2.1238919999999837,"midi":68,"time":185.57644624218753,"velocity":0.3937007874015748},{"duration":1.3274324999999862,"midi":75,"time":185.57644624218753,"velocity":0.3937007874015748},{"duration":0.1327432499999759,"midi":53,"time":185.70918949218753,"velocity":0.3937007874015748},{"duration":0.1327432499999759,"midi":42,"time":185.70918949218753,"velocity":0.3937007874015748},{"duration":0.1327432500000043,"midi":36,"time":185.8419327421875,"velocity":0.3937007874015748},{"duration":0.1327432500000043,"midi":44,"time":185.8419327421875,"velocity":0.3937007874015748},{"duration":0.1327432500000043,"midi":56,"time":185.8419327421875,"velocity":0.3937007874015748},{"duration":0.1327432500000043,"midi":42,"time":185.8419327421875,"velocity":0.3937007874015748},{"duration":0.1327432500000043,"midi":44,"time":186.10741924218752,"velocity":0.3937007874015748},{"duration":0.1327432500000043,"midi":42,"time":186.10741924218752,"velocity":0.3937007874015748},{"duration":0.1327432500000043,"midi":56,"time":186.10741924218752,"velocity":0.3937007874015748},{"duration":0.1327432500000043,"midi":42,"time":186.24016249218752,"velocity":0.3937007874015748},{"duration":0.1327432500000043,"midi":42,"time":186.37290574218753,"velocity":0.3937007874015748},{"duration":0.1327432500000043,"midi":39,"time":186.37290574218753,"velocity":0.3937007874015748},{"duration":0.1327432500000043,"midi":36,"time":186.37290574218753,"velocity":0.3937007874015748},{"duration":0.1327432500000043,"midi":38,"time":186.37290574218753,"velocity":0.3937007874015748},{"duration":1.7256622499999992,"midi":80,"time":186.37290574218753,"velocity":0.3937007874015748},{"duration":0.1327432500000043,"midi":42,"time":186.6383922421875,"velocity":0.3937007874015748},{"duration":0.1327432500000043,"midi":51,"time":186.6383922421875,"velocity":0.3937007874015748},{"duration":0.1327432500000043,"midi":39,"time":186.6383922421875,"velocity":0.3937007874015748},{"duration":0.1327432500000043,"midi":39,"time":186.7711354921875,"velocity":0.3937007874015748},{"duration":0.1327432500000043,"midi":53,"time":186.7711354921875,"velocity":0.3937007874015748},{"duration":0.1327432500000043,"midi":42,"time":186.7711354921875,"velocity":0.3937007874015748},{"duration":0.7964594999999974,"midi":75,"time":186.90387874218752,"velocity":0.3937007874015748},{"duration":0.1327432500000043,"midi":36,"time":186.90387874218752,"velocity":0.3937007874015748},{"duration":1.1946892500000104,"midi":68,"time":186.90387874218752,"velocity":0.3937007874015748},{"duration":0.1327432500000043,"midi":42,"time":186.90387874218752,"velocity":0.3937007874015748},{"duration":0.7964594999999974,"midi":72,"time":186.90387874218752,"velocity":0.3937007874015748},{"duration":0.1327432500000043,"midi":41,"time":186.90387874218752,"velocity":0.3937007874015748},{"duration":0.2654865000000086,"midi":56,"time":186.90387874218752,"velocity":0.3937007874015748},{"duration":0.3982297500000129,"midi":56,"time":187.03662199218752,"velocity":0.3937007874015748},{"duration":0.1327432500000043,"midi":42,"time":187.16936524218752,"velocity":0.3937007874015748},{"duration":0.1327432500000043,"midi":41,"time":187.16936524218752,"velocity":0.3937007874015748},{"duration":0.1327432500000043,"midi":42,"time":187.30210849218753,"velocity":0.3937007874015748},{"duration":0.1327432500000043,"midi":41,"time":187.30210849218753,"velocity":0.3937007874015748},{"duration":0.1327432499999759,"midi":36,"time":187.43485174218753,"velocity":0.3937007874015748},{"duration":0.1327432499999759,"midi":38,"time":187.43485174218753,"velocity":0.3937007874015748},{"duration":0.1327432499999759,"midi":42,"time":187.43485174218753,"velocity":0.3937007874015748},{"duration":0.1327432499999759,"midi":39,"time":187.43485174218753,"velocity":0.3937007874015748},{"duration":1.4601757499999906,"midi":65,"time":187.43485174218753,"velocity":0.3937007874015748},{"duration":0.1327432499999759,"midi":56,"time":187.43485174218753,"velocity":0.3937007874015748},{"duration":1.4601757499999906,"midi":61,"time":187.43485174218753,"velocity":0.3937007874015748},{"duration":0.1327432500000043,"midi":48,"time":187.5675949921875,"velocity":0.3937007874015748},{"duration":0.1327432500000043,"midi":46,"time":187.7003382421875,"velocity":0.3937007874015748},{"duration":0.1327432500000043,"midi":46,"time":187.7003382421875,"velocity":0.3937007874015748},{"duration":1.3274325000000147,"midi":77,"time":187.7003382421875,"velocity":0.3937007874015748},{"duration":1.1946892500000104,"midi":73,"time":187.7003382421875,"velocity":0.3937007874015748},{"duration":1.061946000000006,"midi":70,"time":187.7003382421875,"velocity":0.3937007874015748},{"duration":0.1327432500000043,"midi":53,"time":187.83308149218752,"velocity":0.3937007874015748},{"duration":0.1327432500000043,"midi":42,"time":187.96582474218752,"velocity":0.3937007874015748},{"duration":0.1327432500000043,"midi":56,"time":187.96582474218752,"velocity":0.3937007874015748},{"duration":0.2654865000000086,"midi":68,"time":187.96582474218752,"velocity":0.3937007874015748},{"duration":0.2654865000000086,"midi":80,"time":187.96582474218752,"velocity":0.3937007874015748},{"duration":0.1327432500000043,"midi":36,"time":187.96582474218752,"velocity":0.3937007874015748},{"duration":0.3982297499999845,"midi":68,"time":188.09856799218753,"velocity":0.3937007874015748},{"duration":0.3982297499999845,"midi":80,"time":188.09856799218753,"velocity":0.3937007874015748},{"duration":0.1327432499999759,"midi":44,"time":188.23131124218753,"velocity":0.3937007874015748},{"duration":0.1327432499999759,"midi":56,"time":188.23131124218753,"velocity":0.3937007874015748},{"duration":0.1327432499999759,"midi":42,"time":188.23131124218753,"velocity":0.3937007874015748},{"duration":0.1327432500000043,"midi":42,"time":188.3640544921875,"velocity":0.3937007874015748},{"duration":0.2654865000000086,"midi":80,"time":188.3640544921875,"velocity":0.3937007874015748},{"duration":0.2654865000000086,"midi":68,"time":188.3640544921875,"velocity":0.3937007874015748},{"duration":0.3982297500000129,"midi":68,"time":188.4967977421875,"velocity":0.3937007874015748},{"duration":0.1327432500000043,"midi":39,"time":188.4967977421875,"velocity":0.3937007874015748},{"duration":0.1327432500000043,"midi":36,"time":188.4967977421875,"velocity":0.3937007874015748},{"duration":0.3982297500000129,"midi":80,"time":188.4967977421875,"velocity":0.3937007874015748},{"duration":0.1327432500000043,"midi":42,"time":188.4967977421875,"velocity":0.3937007874015748},{"duration":0.1327432500000043,"midi":49,"time":188.4967977421875,"velocity":0.3937007874015748},{"duration":0.1327432500000043,"midi":38,"time":188.4967977421875,"velocity":0.3937007874015748},{"duration":0.1327432500000043,"midi":39,"time":188.62954099218751,"velocity":0.3937007874015748},{"duration":0.1327432500000043,"midi":46,"time":188.62954099218751,"velocity":0.3937007874015748},{"duration":0.3982297500000129,"midi":70,"time":188.62954099218751,"velocity":0.3937007874015748},{"duration":0.1327432500000043,"midi":82,"time":188.62954099218751,"velocity":0.3937007874015748},{"duration":0.1327432500000043,"midi":56,"time":188.62954099218751,"velocity":0.3937007874015748},{"duration":0.1327432500000043,"midi":39,"time":188.76228424218752,"velocity":0.3937007874015748},{"duration":0.1327432500000043,"midi":85,"time":188.76228424218752,"velocity":0.3937007874015748},{"duration":0.2654865000000086,"midi":73,"time":188.76228424218752,"velocity":0.3937007874015748},{"duration":0.1327432500000043,"midi":46,"time":188.76228424218752,"velocity":0.3937007874015748},{"duration":0.1327432500000043,"midi":85,"time":188.89502749218752,"velocity":0.3937007874015748},{"duration":0.1327432500000043,"midi":56,"time":188.89502749218752,"velocity":0.3937007874015748},{"duration":0.1327432500000043,"midi":49,"time":188.89502749218752,"velocity":0.3937007874015748},{"duration":0.1327432500000043,"midi":39,"time":188.89502749218752,"velocity":0.3937007874015748},{"duration":0.1327432500000043,"midi":73,"time":188.89502749218752,"velocity":0.3937007874015748},{"duration":0.1327432500000043,"midi":42,"time":189.02777074218753,"velocity":0.3937007874015748},{"duration":0.7964594999999974,"midi":85,"time":189.02777074218753,"velocity":0.3937007874015748},{"duration":0.7964594999999974,"midi":70,"time":189.02777074218753,"velocity":0.3937007874015748},{"duration":0.1327432500000043,"midi":39,"time":189.02777074218753,"velocity":0.3937007874015748},{"duration":0.7964594999999974,"midi":66,"time":189.02777074218753,"velocity":0.3937007874015748},{"duration":0.7964594999999974,"midi":77,"time":189.02777074218753,"velocity":0.3937007874015748},{"duration":0.7964594999999974,"midi":58,"time":189.02777074218753,"velocity":0.3937007874015748},{"duration":0.7964594999999974,"midi":73,"time":189.02777074218753,"velocity":0.3937007874015748},{"duration":0.1327432500000043,"midi":36,"time":189.02777074218753,"velocity":0.3937007874015748},{"duration":0.7964594999999974,"midi":61,"time":189.02777074218753,"velocity":0.3937007874015748},{"duration":0.7964594999999974,"midi":66,"time":189.02777074218753,"velocity":0.3937007874015748},{"duration":0.1327432499999759,"midi":56,"time":189.16051399218753,"velocity":0.3937007874015748},{"duration":0.1327432500000043,"midi":39,"time":189.2932572421875,"velocity":0.3937007874015748},{"duration":0.1327432500000043,"midi":42,"time":189.2932572421875,"velocity":0.3937007874015748},{"duration":0.1327432500000043,"midi":39,"time":189.4260004921875,"velocity":0.3937007874015748},{"duration":0.1327432500000043,"midi":42,"time":189.4260004921875,"velocity":0.3937007874015748},{"duration":0.1327432500000043,"midi":39,"time":189.55874374218752,"velocity":0.3937007874015748},{"duration":0.1327432500000043,"midi":42,"time":189.55874374218752,"velocity":0.3937007874015748},{"duration":0.1327432500000043,"midi":56,"time":189.55874374218752,"velocity":0.3937007874015748},{"duration":0.1327432500000043,"midi":38,"time":189.55874374218752,"velocity":0.3937007874015748},{"duration":0.1327432500000043,"midi":36,"time":189.55874374218752,"velocity":0.3937007874015748},{"duration":0.1327432500000043,"midi":48,"time":189.69148699218752,"velocity":0.3937007874015748},{"duration":0.1327432500000043,"midi":42,"time":189.82423024218753,"velocity":0.3937007874015748},{"duration":1.061946000000006,"midi":87,"time":189.82423024218753,"velocity":0.3937007874015748},{"duration":0.1327432500000043,"midi":46,"time":189.82423024218753,"velocity":0.3937007874015748},{"duration":2.1238919999999837,"midi":63,"time":189.82423024218753,"velocity":0.3937007874015748},{"duration":1.3274324999999862,"midi":75,"time":189.82423024218753,"velocity":0.3937007874015748},{"duration":1.3274324999999862,"midi":72,"time":189.82423024218753,"velocity":0.3937007874015748},{"duration":1.3274324999999862,"midi":68,"time":189.82423024218753,"velocity":0.3937007874015748},{"duration":2.1238919999999837,"midi":60,"time":189.82423024218753,"velocity":0.3937007874015748},{"duration":2.1238919999999837,"midi":68,"time":189.82423024218753,"velocity":0.3937007874015748},{"duration":0.1327432500000043,"midi":53,"time":189.95697349218753,"velocity":0.3937007874015748},{"duration":0.1327432500000043,"midi":42,"time":189.95697349218753,"velocity":0.3937007874015748},{"duration":0.1327432499999759,"midi":42,"time":190.08971674218753,"velocity":0.3937007874015748},{"duration":0.1327432499999759,"midi":44,"time":190.08971674218753,"velocity":0.3937007874015748},{"duration":0.1327432499999759,"midi":36,"time":190.08971674218753,"velocity":0.3937007874015748},{"duration":0.1327432499999759,"midi":56,"time":190.08971674218753,"velocity":0.3937007874015748},{"duration":0.1327432500000043,"midi":42,"time":190.3552032421875,"velocity":0.3937007874015748},{"duration":0.1327432500000043,"midi":44,"time":190.3552032421875,"velocity":0.3937007874015748},{"duration":0.1327432500000043,"midi":56,"time":190.48794649218752,"velocity":0.3937007874015748},{"duration":0.1327432500000043,"midi":42,"time":190.48794649218752,"velocity":0.3937007874015748},{"duration":0.1327432500000043,"midi":38,"time":190.62068974218752,"velocity":0.3937007874015748},{"duration":0.1327432500000043,"midi":39,"time":190.62068974218752,"velocity":0.3937007874015748},{"duration":0.1327432500000043,"midi":42,"time":190.62068974218752,"velocity":0.3937007874015748},{"duration":0.1327432500000043,"midi":36,"time":190.62068974218752,"velocity":0.3937007874015748},{"duration":0.1327432499999759,"midi":42,"time":190.88617624218753,"velocity":0.3937007874015748},{"duration":0.1327432499999759,"midi":53,"time":190.88617624218753,"velocity":0.3937007874015748},{"duration":0.1327432499999759,"midi":39,"time":190.88617624218753,"velocity":0.3937007874015748},{"duration":0.2654864999999802,"midi":80,"time":190.88617624218753,"velocity":0.3937007874015748},{"duration":0.1327432500000043,"midi":44,"time":191.0189194921875,"velocity":0.3937007874015748},{"duration":0.1327432500000043,"midi":42,"time":191.0189194921875,"velocity":0.3937007874015748},{"duration":0.1327432500000043,"midi":56,"time":191.0189194921875,"velocity":0.3937007874015748},{"duration":0.1327432500000043,"midi":41,"time":191.1516627421875,"velocity":0.3937007874015748},{"duration":0.1327432500000043,"midi":36,"time":191.1516627421875,"velocity":0.3937007874015748},{"duration":0.7964594999999974,"midi":87,"time":191.1516627421875,"velocity":0.3937007874015748},{"duration":0.7964594999999974,"midi":75,"time":191.1516627421875,"velocity":0.3937007874015748},{"duration":0.1327432500000043,"midi":42,"time":191.1516627421875,"velocity":0.3937007874015748},{"duration":2.123892000000012,"midi":68,"time":191.1516627421875,"velocity":0.3937007874015748},{"duration":0.7964594999999974,"midi":72,"time":191.1516627421875,"velocity":0.3937007874015748},{"duration":0.1327432500000043,"midi":56,"time":191.28440599218752,"velocity":0.3937007874015748},{"duration":0.1327432500000043,"midi":42,"time":191.41714924218752,"velocity":0.3937007874015748},{"duration":0.1327432500000043,"midi":41,"time":191.41714924218752,"velocity":0.3937007874015748},{"duration":0.1327432500000043,"midi":48,"time":191.54989249218752,"velocity":0.3937007874015748},{"duration":0.1327432500000043,"midi":42,"time":191.54989249218752,"velocity":0.3937007874015748},{"duration":0.1327432500000043,"midi":39,"time":191.68263574218753,"velocity":0.3937007874015748},{"duration":0.1327432500000043,"midi":42,"time":191.68263574218753,"velocity":0.3937007874015748},{"duration":0.1327432500000043,"midi":56,"time":191.68263574218753,"velocity":0.3937007874015748},{"duration":0.1327432500000043,"midi":36,"time":191.68263574218753,"velocity":0.3937007874015748},{"duration":0.1327432500000043,"midi":38,"time":191.68263574218753,"velocity":0.3937007874015748},{"duration":0.1327432499999759,"midi":48,"time":191.81537899218753,"velocity":0.3937007874015748},{"duration":1.3274325000000147,"midi":70,"time":191.9481222421875,"velocity":0.3937007874015748},{"duration":0.1327432500000043,"midi":42,"time":191.9481222421875,"velocity":0.3937007874015748},{"duration":1.3274325000000147,"midi":73,"time":191.9481222421875,"velocity":0.3937007874015748},{"duration":0.7964594999999974,"midi":89,"time":191.9481222421875,"velocity":0.3937007874015748},{"duration":1.3274325000000147,"midi":77,"time":191.9481222421875,"velocity":0.3937007874015748},{"duration":0.9292027500000017,"midi":65,"time":191.9481222421875,"velocity":0.3937007874015748},{"duration":0.7964594999999974,"midi":61,"time":191.9481222421875,"velocity":0.3937007874015748},{"duration":0.1327432500000043,"midi":46,"time":191.9481222421875,"velocity":0.3937007874015748},{"duration":0.1327432500000043,"midi":53,"time":192.0808654921875,"velocity":0.3937007874015748},{"duration":0.1327432500000043,"midi":42,"time":192.0808654921875,"velocity":0.3937007874015748},{"duration":0.1327432500000043,"midi":56,"time":192.21360874218752,"velocity":0.3937007874015748},{"duration":0.1327432500000043,"midi":42,"time":192.21360874218752,"velocity":0.3937007874015748},{"duration":0.1327432500000043,"midi":36,"time":192.21360874218752,"velocity":0.3937007874015748},{"duration":0.1327432500000043,"midi":56,"time":192.47909524218753,"velocity":0.3937007874015748},{"duration":0.1327432500000043,"midi":46,"time":192.47909524218753,"velocity":0.3937007874015748},{"duration":0.1327432500000043,"midi":42,"time":192.47909524218753,"velocity":0.3937007874015748},{"duration":0.1327432499999759,"midi":46,"time":192.61183849218753,"velocity":0.3937007874015748},{"duration":0.1327432499999759,"midi":42,"time":192.61183849218753,"velocity":0.3937007874015748},{"duration":0.1327432500000043,"midi":38,"time":192.7445817421875,"velocity":0.3937007874015748},{"duration":0.1327432500000043,"midi":42,"time":192.7445817421875,"velocity":0.3937007874015748},{"duration":0.1327432500000043,"midi":39,"time":192.7445817421875,"velocity":0.3937007874015748},{"duration":0.1327432500000043,"midi":56,"time":192.7445817421875,"velocity":0.3937007874015748},{"duration":0.5309730000000172,"midi":63,"time":192.7445817421875,"velocity":0.3937007874015748},{"duration":0.1327432500000043,"midi":89,"time":192.7445817421875,"velocity":0.3937007874015748},{"duration":0.1327432500000043,"midi":36,"time":192.7445817421875,"velocity":0.3937007874015748},{"duration":0.5309730000000172,"midi":60,"time":192.7445817421875,"velocity":0.3937007874015748},{"duration":0.1327432500000043,"midi":58,"time":192.8773249921875,"velocity":0.3937007874015748},{"duration":0.1327432500000043,"midi":48,"time":192.8773249921875,"velocity":0.3937007874015748},{"duration":0.1327432500000043,"midi":90,"time":192.8773249921875,"velocity":0.3937007874015748},{"duration":0.1327432500000043,"midi":46,"time":193.01006824218751,"velocity":0.3937007874015748},{"duration":0.1327432500000043,"midi":89,"time":193.01006824218751,"velocity":0.3937007874015748},{"duration":0.1327432500000043,"midi":46,"time":193.01006824218751,"velocity":0.3937007874015748},{"duration":0.9292027500000017,"midi":85,"time":193.14281149218752,"velocity":0.3937007874015748},{"duration":0.1327432500000043,"midi":42,"time":193.27555474218752,"velocity":0.3937007874015748},{"duration":0.7964594999999974,"midi":61,"time":193.27555474218752,"velocity":0.3937007874015748},{"duration":0.7964594999999974,"midi":58,"time":193.27555474218752,"velocity":0.3937007874015748},{"duration":0.6637162499999931,"midi":70,"time":193.27555474218752,"velocity":0.3937007874015748},{"duration":0.1327432500000043,"midi":39,"time":193.27555474218752,"velocity":0.3937007874015748},{"duration":0.6637162499999931,"midi":66,"time":193.27555474218752,"velocity":0.3937007874015748},{"duration":0.1327432500000043,"midi":36,"time":193.27555474218752,"velocity":0.3937007874015748},{"duration":0.7964594999999974,"midi":73,"time":193.27555474218752,"velocity":0.3937007874015748},{"duration":0.9292027500000017,"midi":66,"time":193.27555474218752,"velocity":0.3937007874015748},{"duration":0.1327432500000043,"midi":56,"time":193.40829799218753,"velocity":0.3937007874015748},{"duration":0.1327432499999759,"midi":42,"time":193.54104124218753,"velocity":0.3937007874015748},{"duration":0.1327432499999759,"midi":39,"time":193.54104124218753,"velocity":0.3937007874015748},{"duration":0.1327432500000043,"midi":48,"time":193.6737844921875,"velocity":0.3937007874015748},{"duration":0.1327432500000043,"midi":42,"time":193.6737844921875,"velocity":0.3937007874015748},{"duration":0.1327432500000043,"midi":38,"time":193.8065277421875,"velocity":0.3937007874015748},{"duration":0.1327432500000043,"midi":39,"time":193.8065277421875,"velocity":0.3937007874015748},{"duration":0.1327432500000043,"midi":36,"time":193.8065277421875,"velocity":0.3937007874015748},{"duration":0.1327432500000043,"midi":42,"time":193.8065277421875,"velocity":0.3937007874015748},{"duration":0.1327432500000043,"midi":56,"time":193.8065277421875,"velocity":0.3937007874015748},{"duration":0.1327432500000043,"midi":48,"time":193.93927099218752,"velocity":0.3937007874015748},{"duration":1.3274324999999862,"midi":75,"time":194.07201424218752,"velocity":0.3937007874015748},{"duration":1.3274324999999862,"midi":68,"time":194.07201424218752,"velocity":0.3937007874015748},{"duration":1.8584055000000035,"midi":60,"time":194.07201424218752,"velocity":0.3937007874015748},{"duration":0.1327432500000043,"midi":46,"time":194.07201424218752,"velocity":0.3937007874015748},{"duration":1.3274324999999862,"midi":72,"time":194.07201424218752,"velocity":0.3937007874015748},{"duration":1.8584055000000035,"midi":68,"time":194.07201424218752,"velocity":0.3937007874015748},{"duration":1.8584055000000035,"midi":63,"time":194.07201424218752,"velocity":0.3937007874015748},{"duration":0.1327432500000043,"midi":42,"time":194.07201424218752,"velocity":0.3937007874015748},{"duration":0.7964594999999974,"midi":87,"time":194.07201424218752,"velocity":0.3937007874015748},{"duration":0.1327432500000043,"midi":53,"time":194.20475749218753,"velocity":0.3937007874015748},{"duration":0.1327432500000043,"midi":42,"time":194.20475749218753,"velocity":0.3937007874015748},{"duration":0.1327432500000043,"midi":36,"time":194.33750074218753,"velocity":0.3937007874015748},{"duration":0.1327432500000043,"midi":42,"time":194.33750074218753,"velocity":0.3937007874015748},{"duration":0.1327432500000043,"midi":44,"time":194.33750074218753,"velocity":0.3937007874015748},{"duration":0.1327432500000043,"midi":56,"time":194.33750074218753,"velocity":0.3937007874015748},{"duration":0.1327432500000043,"midi":42,"time":194.6029872421875,"velocity":0.3937007874015748},{"duration":0.1327432500000043,"midi":56,"time":194.6029872421875,"velocity":0.3937007874015748},{"duration":0.1327432500000043,"midi":44,"time":194.6029872421875,"velocity":0.3937007874015748},{"duration":0.1327432500000043,"midi":42,"time":194.7357304921875,"velocity":0.3937007874015748},{"duration":0.1327432500000043,"midi":38,"time":194.86847374218752,"velocity":0.3937007874015748},{"duration":1.7256622499999992,"midi":80,"time":194.86847374218752,"velocity":0.3937007874015748},{"duration":0.1327432500000043,"midi":42,"time":194.86847374218752,"velocity":0.3937007874015748},{"duration":0.1327432500000043,"midi":36,"time":194.86847374218752,"velocity":0.3937007874015748},{"duration":0.1327432500000043,"midi":39,"time":194.86847374218752,"velocity":0.3937007874015748},{"duration":0.1327432500000043,"midi":42,"time":195.13396024218753,"velocity":0.3937007874015748},{"duration":0.1327432500000043,"midi":51,"time":195.13396024218753,"velocity":0.3937007874015748},{"duration":0.1327432500000043,"midi":39,"time":195.13396024218753,"velocity":0.3937007874015748},{"duration":0.1327432499999759,"midi":53,"time":195.26670349218753,"velocity":0.3937007874015748},{"duration":0.1327432499999759,"midi":42,"time":195.26670349218753,"velocity":0.3937007874015748},{"duration":0.1327432499999759,"midi":39,"time":195.26670349218753,"velocity":0.3937007874015748},{"duration":0.1327432500000043,"midi":41,"time":195.3994467421875,"velocity":0.3937007874015748},{"duration":0.5309730000000172,"midi":75,"time":195.3994467421875,"velocity":0.3937007874015748},{"duration":0.5309730000000172,"midi":72,"time":195.3994467421875,"velocity":0.3937007874015748},{"duration":0.1327432500000043,"midi":36,"time":195.3994467421875,"velocity":0.3937007874015748},{"duration":0.2654865000000086,"midi":56,"time":195.3994467421875,"velocity":0.3937007874015748},{"duration":0.1327432500000043,"midi":42,"time":195.3994467421875,"velocity":0.3937007874015748},{"duration":1.1946892500000104,"midi":68,"time":195.3994467421875,"velocity":0.3937007874015748},{"duration":0.3982297500000129,"midi":56,"time":195.5321899921875,"velocity":0.3937007874015748},{"duration":0.1327432500000043,"midi":41,"time":195.66493324218752,"velocity":0.3937007874015748},{"duration":0.1327432500000043,"midi":42,"time":195.66493324218752,"velocity":0.3937007874015748},{"duration":0.1327432500000043,"midi":41,"time":195.79767649218752,"velocity":0.3937007874015748},{"duration":0.1327432500000043,"midi":42,"time":195.79767649218752,"velocity":0.3937007874015748},{"duration":1.4601757499999906,"midi":65,"time":195.93041974218752,"velocity":0.3937007874015748},{"duration":0.1327432500000043,"midi":56,"time":195.93041974218752,"velocity":0.3937007874015748},{"duration":1.5929189999999949,"midi":73,"time":195.93041974218752,"velocity":0.3937007874015748},{"duration":1.5929189999999949,"midi":77,"time":195.93041974218752,"velocity":0.3937007874015748},{"duration":1.4601757499999906,"midi":61,"time":195.93041974218752,"velocity":0.3937007874015748},{"duration":0.7964594999999974,"midi":68,"time":195.93041974218752,"velocity":0.3937007874015748},{"duration":0.1327432500000043,"midi":42,"time":195.93041974218752,"velocity":0.3937007874015748},{"duration":0.1327432500000043,"midi":38,"time":195.93041974218752,"velocity":0.3937007874015748},{"duration":0.1327432500000043,"midi":36,"time":195.93041974218752,"velocity":0.3937007874015748},{"duration":0.1327432500000043,"midi":39,"time":195.93041974218752,"velocity":0.3937007874015748},{"duration":0.1327432500000043,"midi":48,"time":196.06316299218753,"velocity":0.3937007874015748},{"duration":0.1327432499999759,"midi":46,"time":196.19590624218753,"velocity":0.3937007874015748},{"duration":0.1327432499999759,"midi":46,"time":196.19590624218753,"velocity":0.3937007874015748},{"duration":0.1327432500000043,"midi":53,"time":196.3286494921875,"velocity":0.3937007874015748},{"duration":0.1327432500000043,"midi":36,"time":196.4613927421875,"velocity":0.3937007874015748},{"duration":0.1327432500000043,"midi":56,"time":196.4613927421875,"velocity":0.3937007874015748},{"duration":0.1327432500000043,"midi":85,"time":196.4613927421875,"velocity":0.3937007874015748},{"duration":0.2654865000000086,"midi":80,"time":196.4613927421875,"velocity":0.3937007874015748},{"duration":0.1327432500000043,"midi":42,"time":196.4613927421875,"velocity":0.3937007874015748},{"duration":0.5309730000000172,"midi":68,"time":196.4613927421875,"velocity":0.3937007874015748},{"duration":0.1327432500000043,"midi":85,"time":196.59413599218752,"velocity":0.3937007874015748},{"duration":0.5309729999999888,"midi":68,"time":196.59413599218752,"velocity":0.3937007874015748},{"duration":0.3982297500000129,"midi":80,"time":196.59413599218752,"velocity":0.3937007874015748},{"duration":0.1327432500000043,"midi":56,"time":196.72687924218752,"velocity":0.3937007874015748},{"duration":0.1327432500000043,"midi":42,"time":196.72687924218752,"velocity":0.3937007874015748},{"duration":0.1327432500000043,"midi":44,"time":196.72687924218752,"velocity":0.3937007874015748},{"duration":0.2654864999999802,"midi":80,"time":196.85962249218753,"velocity":0.3937007874015748},{"duration":0.3982297499999845,"midi":68,"time":196.85962249218753,"velocity":0.3937007874015748},{"duration":0.1327432500000043,"midi":85,"time":196.85962249218753,"velocity":0.3937007874015748},{"duration":0.1327432500000043,"midi":42,"time":196.85962249218753,"velocity":0.3937007874015748},{"duration":0.1327432499999759,"midi":38,"time":196.99236574218753,"velocity":0.3937007874015748},{"duration":0.3982297499999845,"midi":68,"time":196.99236574218753,"velocity":0.3937007874015748},{"duration":0.1327432499999759,"midi":49,"time":196.99236574218753,"velocity":0.3937007874015748},{"duration":0.1327432499999759,"midi":85,"time":196.99236574218753,"velocity":0.3937007874015748},{"duration":0.1327432499999759,"midi":39,"time":196.99236574218753,"velocity":0.3937007874015748},{"duration":0.1327432499999759,"midi":36,"time":196.99236574218753,"velocity":0.3937007874015748},{"duration":0.2654864999999802,"midi":80,"time":196.99236574218753,"velocity":0.3937007874015748},{"duration":0.1327432499999759,"midi":42,"time":196.99236574218753,"velocity":0.3937007874015748},{"duration":0.1327432500000043,"midi":85,"time":197.1251089921875,"velocity":0.3937007874015748},{"duration":0.2654865000000086,"midi":80,"time":197.1251089921875,"velocity":0.3937007874015748},{"duration":0.1327432500000043,"midi":56,"time":197.1251089921875,"velocity":0.3937007874015748},{"duration":0.1327432500000043,"midi":39,"time":197.1251089921875,"velocity":0.3937007874015748},{"duration":0.1327432500000043,"midi":46,"time":197.1251089921875,"velocity":0.3937007874015748},{"duration":0.2654865000000086,"midi":68,"time":197.1251089921875,"velocity":0.3937007874015748},{"duration":0.1327432500000043,"midi":85,"time":197.2578522421875,"velocity":0.3937007874015748},{"duration":0.1327432500000043,"midi":80,"time":197.2578522421875,"velocity":0.3937007874015748},{"duration":0.1327432500000043,"midi":39,"time":197.2578522421875,"velocity":0.3937007874015748},{"duration":0.1327432500000043,"midi":46,"time":197.2578522421875,"velocity":0.3937007874015748},{"duration":0.2654865000000086,"midi":68,"time":197.2578522421875,"velocity":0.3937007874015748},{"duration":0.1327432500000043,"midi":39,"time":197.39059549218751,"velocity":0.3937007874015748},{"duration":0.1327432500000043,"midi":85,"time":197.39059549218751,"velocity":0.3937007874015748},{"duration":0.1327432500000043,"midi":80,"time":197.39059549218751,"velocity":0.3937007874015748},{"duration":0.1327432500000043,"midi":56,"time":197.39059549218751,"velocity":0.3937007874015748},{"duration":0.1327432500000043,"midi":68,"time":197.39059549218751,"velocity":0.3937007874015748},{"duration":0.1327432500000043,"midi":49,"time":197.39059549218751,"velocity":0.3937007874015748},{"duration":0.7964594999999974,"midi":85,"time":197.52333874218752,"velocity":0.3937007874015748},{"duration":0.1327432500000043,"midi":36,"time":197.52333874218752,"velocity":0.3937007874015748},{"duration":0.7964594999999974,"midi":77,"time":197.52333874218752,"velocity":0.3937007874015748},{"duration":0.1327432500000043,"midi":39,"time":197.52333874218752,"velocity":0.3937007874015748},{"duration":0.7964594999999974,"midi":58,"time":197.52333874218752,"velocity":0.3937007874015748},{"duration":0.7964594999999974,"midi":73,"time":197.52333874218752,"velocity":0.3937007874015748},{"duration":0.7964594999999974,"midi":61,"time":197.52333874218752,"velocity":0.3937007874015748},{"duration":0.1327432500000043,"midi":42,"time":197.52333874218752,"velocity":0.3937007874015748},{"duration":0.7964594999999974,"midi":66,"time":197.52333874218752,"velocity":0.3937007874015748},{"duration":0.7964594999999974,"midi":66,"time":197.52333874218752,"velocity":0.3937007874015748},{"duration":0.7964594999999974,"midi":70,"time":197.52333874218752,"velocity":0.3937007874015748},{"duration":0.1327432500000043,"midi":56,"time":197.65608199218752,"velocity":0.3937007874015748},{"duration":0.1327432500000043,"midi":39,"time":197.78882524218753,"velocity":0.3937007874015748},{"duration":0.1327432500000043,"midi":42,"time":197.78882524218753,"velocity":0.3937007874015748},{"duration":0.1327432499999759,"midi":42,"time":197.92156849218753,"velocity":0.3937007874015748},{"duration":0.1327432499999759,"midi":39,"time":197.92156849218753,"velocity":0.3937007874015748},{"duration":0.1327432500000043,"midi":38,"time":198.0543117421875,"velocity":0.3937007874015748},{"duration":0.1327432500000043,"midi":36,"time":198.0543117421875,"velocity":0.3937007874015748},{"duration":0.1327432500000043,"midi":42,"time":198.0543117421875,"velocity":0.3937007874015748},{"duration":0.1327432500000043,"midi":56,"time":198.0543117421875,"velocity":0.3937007874015748},{"duration":0.1327432500000043,"midi":39,"time":198.0543117421875,"velocity":0.3937007874015748},{"duration":0.1327432500000043,"midi":48,"time":198.1870549921875,"velocity":0.3937007874015748},{"duration":1.3274325000000147,"midi":72,"time":198.31979824218752,"velocity":0.3937007874015748},{"duration":0.1327432500000043,"midi":42,"time":198.31979824218752,"velocity":0.3937007874015748},{"duration":1.061946000000006,"midi":87,"time":198.31979824218752,"velocity":0.3937007874015748},{"duration":2.123892000000012,"midi":63,"time":198.31979824218752,"velocity":0.3937007874015748},{"duration":2.123892000000012,"midi":60,"time":198.31979824218752,"velocity":0.3937007874015748},{"duration":1.3274325000000147,"midi":68,"time":198.31979824218752,"velocity":0.3937007874015748},{"duration":0.1327432500000043,"midi":46,"time":198.31979824218752,"velocity":0.3937007874015748},{"duration":1.3274325000000147,"midi":75,"time":198.31979824218752,"velocity":0.3937007874015748},{"duration":2.123892000000012,"midi":68,"time":198.31979824218752,"velocity":0.3937007874015748},{"duration":0.1327432500000043,"midi":53,"time":198.45254149218752,"velocity":0.3937007874015748},{"duration":0.1327432500000043,"midi":42,"time":198.45254149218752,"velocity":0.3937007874015748},{"duration":0.1327432500000043,"midi":56,"time":198.58528474218753,"velocity":0.3937007874015748},{"duration":0.1327432500000043,"midi":42,"time":198.58528474218753,"velocity":0.3937007874015748},{"duration":0.1327432500000043,"midi":44,"time":198.58528474218753,"velocity":0.3937007874015748},{"duration":0.1327432500000043,"midi":36,"time":198.58528474218753,"velocity":0.3937007874015748},{"duration":0.1327432499999759,"midi":44,"time":198.85077124218753,"velocity":0.3937007874015748},{"duration":0.1327432499999759,"midi":42,"time":198.85077124218753,"velocity":0.3937007874015748},{"duration":0.1327432500000043,"midi":42,"time":198.9835144921875,"velocity":0.3937007874015748},{"duration":0.1327432500000043,"midi":56,"time":198.9835144921875,"velocity":0.3937007874015748},{"duration":0.1327432500000043,"midi":38,"time":199.1162577421875,"velocity":0.3937007874015748},{"duration":0.1327432500000043,"midi":39,"time":199.1162577421875,"velocity":0.3937007874015748},{"duration":0.1327432500000043,"midi":42,"time":199.1162577421875,"velocity":0.3937007874015748},{"duration":0.1327432500000043,"midi":36,"time":199.1162577421875,"velocity":0.3937007874015748},{"duration":0.1327432500000043,"midi":53,"time":199.38174424218752,"velocity":0.3937007874015748},{"duration":0.1327432500000043,"midi":42,"time":199.38174424218752,"velocity":0.3937007874015748},{"duration":0.2654865000000086,"midi":80,"time":199.38174424218752,"velocity":0.3937007874015748},{"duration":0.1327432500000043,"midi":39,"time":199.38174424218752,"velocity":0.3937007874015748},{"duration":0.1327432500000043,"midi":42,"time":199.51448749218753,"velocity":0.3937007874015748},{"duration":0.1327432500000043,"midi":56,"time":199.51448749218753,"velocity":0.3937007874015748},{"duration":0.1327432500000043,"midi":44,"time":199.51448749218753,"velocity":0.3937007874015748},{"duration":0.7964594999999974,"midi":75,"time":199.64723074218753,"velocity":0.3937007874015748},{"duration":0.1327432499999759,"midi":42,"time":199.64723074218753,"velocity":0.3937007874015748},{"duration":2.1238919999999837,"midi":68,"time":199.64723074218753,"velocity":0.3937007874015748},{"duration":0.7964594999999974,"midi":87,"time":199.64723074218753,"velocity":0.3937007874015748},{"duration":0.7964594999999974,"midi":72,"time":199.64723074218753,"velocity":0.3937007874015748},{"duration":0.1327432499999759,"midi":41,"time":199.64723074218753,"velocity":0.3937007874015748},{"duration":0.1327432499999759,"midi":36,"time":199.64723074218753,"velocity":0.3937007874015748},{"duration":0.1327432500000043,"midi":56,"time":199.7799739921875,"velocity":0.3937007874015748},{"duration":0.1327432500000043,"midi":41,"time":199.9127172421875,"velocity":0.3937007874015748},{"duration":0.1327432500000043,"midi":42,"time":199.9127172421875,"velocity":0.3937007874015748},{"duration":0.1327432500000043,"midi":42,"time":200.04546049218752,"velocity":0.3937007874015748},{"duration":0.1327432500000043,"midi":48,"time":200.04546049218752,"velocity":0.3937007874015748},{"duration":0.1327432500000043,"midi":38,"time":200.17820374218752,"velocity":0.3937007874015748},{"duration":0.1327432500000043,"midi":42,"time":200.17820374218752,"velocity":0.3937007874015748},{"duration":0.1327432500000043,"midi":36,"time":200.17820374218752,"velocity":0.3937007874015748},{"duration":0.1327432500000043,"midi":39,"time":200.17820374218752,"velocity":0.3937007874015748},{"duration":0.1327432500000043,"midi":56,"time":200.17820374218752,"velocity":0.3937007874015748},{"duration":0.1327432500000043,"midi":48,"time":200.31094699218752,"velocity":0.3937007874015748},{"duration":0.1327432500000043,"midi":42,"time":200.44369024218753,"velocity":0.3937007874015748},{"duration":0.1327432500000043,"midi":46,"time":200.44369024218753,"velocity":0.3937007874015748},{"duration":0.9292027500000017,"midi":65,"time":200.44369024218753,"velocity":0.3937007874015748},{"duration":1.3274324999999862,"midi":70,"time":200.44369024218753,"velocity":0.3937007874015748},{"duration":0.7964594999999974,"midi":61,"time":200.44369024218753,"velocity":0.3937007874015748},{"duration":1.3274324999999862,"midi":77,"time":200.44369024218753,"velocity":0.3937007874015748},{"duration":1.3274324999999862,"midi":73,"time":200.44369024218753,"velocity":0.3937007874015748},{"duration":0.7964594999999974,"midi":89,"time":200.44369024218753,"velocity":0.3937007874015748},{"duration":0.1327432499999759,"midi":42,"time":200.57643349218753,"velocity":0.3937007874015748},{"duration":0.1327432499999759,"midi":53,"time":200.57643349218753,"velocity":0.3937007874015748},{"duration":0.1327432500000043,"midi":56,"time":200.7091767421875,"velocity":0.3937007874015748},{"duration":0.1327432500000043,"midi":36,"time":200.7091767421875,"velocity":0.3937007874015748},{"duration":0.1327432500000043,"midi":42,"time":200.7091767421875,"velocity":0.3937007874015748},{"duration":0.1327432500000043,"midi":46,"time":200.97466324218752,"velocity":0.3937007874015748},{"duration":0.1327432500000043,"midi":42,"time":200.97466324218752,"velocity":0.3937007874015748},{"duration":0.1327432500000043,"midi":56,"time":200.97466324218752,"velocity":0.3937007874015748},{"duration":0.1327432500000043,"midi":46,"time":201.10740649218752,"velocity":0.3937007874015748},{"duration":0.1327432500000043,"midi":42,"time":201.10740649218752,"velocity":0.3937007874015748},{"duration":0.1327432500000043,"midi":89,"time":201.24014974218753,"velocity":0.3937007874015748},{"duration":0.5309729999999888,"midi":60,"time":201.24014974218753,"velocity":0.3937007874015748},{"duration":0.1327432500000043,"midi":39,"time":201.24014974218753,"velocity":0.3937007874015748},{"duration":0.1327432500000043,"midi":38,"time":201.24014974218753,"velocity":0.3937007874015748},{"duration":0.1327432500000043,"midi":36,"time":201.24014974218753,"velocity":0.3937007874015748},{"duration":0.1327432500000043,"midi":56,"time":201.24014974218753,"velocity":0.3937007874015748},{"duration":0.1327432500000043,"midi":42,"time":201.24014974218753,"velocity":0.3937007874015748},{"duration":0.5309729999999888,"midi":63,"time":201.24014974218753,"velocity":0.3937007874015748},{"duration":0.1327432500000043,"midi":48,"time":201.37289299218753,"velocity":0.3937007874015748},{"duration":0.1327432500000043,"midi":58,"time":201.37289299218753,"velocity":0.3937007874015748},{"duration":0.1327432500000043,"midi":90,"time":201.37289299218753,"velocity":0.3937007874015748},{"duration":0.1327432499999759,"midi":46,"time":201.50563624218753,"velocity":0.3937007874015748},{"duration":0.1327432499999759,"midi":89,"time":201.50563624218753,"velocity":0.3937007874015748},{"duration":0.1327432499999759,"midi":46,"time":201.50563624218753,"velocity":0.3937007874015748},{"duration":0.9292027500000017,"midi":85,"time":201.6383794921875,"velocity":0.3937007874015748},{"duration":0.7964594999999974,"midi":61,"time":201.77112274218752,"velocity":0.3937007874015748},{"duration":0.7964594999999974,"midi":77,"time":201.77112274218752,"velocity":0.3937007874015748},{"duration":0.1327432500000043,"midi":42,"time":201.77112274218752,"velocity":0.3937007874015748},{"duration":0.7964594999999974,"midi":73,"time":201.77112274218752,"velocity":0.3937007874015748},{"duration":0.7964594999999974,"midi":70,"time":201.77112274218752,"velocity":0.3937007874015748},{"duration":0.7964594999999974,"midi":66,"time":201.77112274218752,"velocity":0.3937007874015748},{"duration":0.9292027500000017,"midi":66,"time":201.77112274218752,"velocity":0.3937007874015748},{"duration":0.7964594999999974,"midi":58,"time":201.77112274218752,"velocity":0.3937007874015748},{"duration":0.1327432500000043,"midi":36,"time":201.77112274218752,"velocity":0.3937007874015748},{"duration":0.1327432500000043,"midi":39,"time":201.77112274218752,"velocity":0.3937007874015748},{"duration":0.1327432500000043,"midi":56,"time":201.90386599218752,"velocity":0.3937007874015748},{"duration":0.1327432500000043,"midi":39,"time":202.03660924218752,"velocity":0.3937007874015748},{"duration":0.1327432500000043,"midi":42,"time":202.03660924218752,"velocity":0.3937007874015748},{"duration":0.1327432500000043,"midi":42,"time":202.16935249218753,"velocity":0.3937007874015748},{"duration":0.1327432500000043,"midi":48,"time":202.16935249218753,"velocity":0.3937007874015748},{"duration":0.1327432499999759,"midi":39,"time":202.30209574218753,"velocity":0.3937007874015748},{"duration":0.1327432499999759,"midi":56,"time":202.30209574218753,"velocity":0.3937007874015748},{"duration":0.1327432499999759,"midi":36,"time":202.30209574218753,"velocity":0.3937007874015748},{"duration":0.1327432499999759,"midi":38,"time":202.30209574218753,"velocity":0.3937007874015748},{"duration":0.1327432499999759,"midi":42,"time":202.30209574218753,"velocity":0.3937007874015748},{"duration":0.1327432500000043,"midi":48,"time":202.4348389921875,"velocity":0.3937007874015748},{"duration":1.8584055000000035,"midi":63,"time":202.5675822421875,"velocity":0.3937007874015748},{"duration":1.8584055000000035,"midi":60,"time":202.5675822421875,"velocity":0.3937007874015748},{"duration":1.3274325000000147,"midi":75,"time":202.5675822421875,"velocity":0.3937007874015748},{"duration":0.1327432500000043,"midi":46,"time":202.5675822421875,"velocity":0.3937007874015748},{"duration":0.7964594999999974,"midi":87,"time":202.5675822421875,"velocity":0.3937007874015748},{"duration":0.1327432500000043,"midi":42,"time":202.5675822421875,"velocity":0.3937007874015748},{"duration":1.3274325000000147,"midi":68,"time":202.5675822421875,"velocity":0.3937007874015748},{"duration":2.123892000000012,"midi":68,"time":202.5675822421875,"velocity":0.3937007874015748},{"duration":1.3274325000000147,"midi":72,"time":202.5675822421875,"velocity":0.3937007874015748},{"duration":0.1327432500000043,"midi":53,"time":202.70032549218752,"velocity":0.3937007874015748},{"duration":0.1327432500000043,"midi":42,"time":202.70032549218752,"velocity":0.3937007874015748},{"duration":0.1327432500000043,"midi":56,"time":202.83306874218752,"velocity":0.3937007874015748},{"duration":0.1327432500000043,"midi":42,"time":202.83306874218752,"velocity":0.3937007874015748},{"duration":0.1327432500000043,"midi":36,"time":202.83306874218752,"velocity":0.3937007874015748},{"duration":0.1327432500000043,"midi":44,"time":202.83306874218752,"velocity":0.3937007874015748},{"duration":0.1327432500000043,"midi":44,"time":203.09855524218753,"velocity":0.3937007874015748},{"duration":0.1327432500000043,"midi":56,"time":203.09855524218753,"velocity":0.3937007874015748},{"duration":0.1327432500000043,"midi":42,"time":203.09855524218753,"velocity":0.3937007874015748},{"duration":0.1327432499999759,"midi":42,"time":203.23129849218753,"velocity":0.3937007874015748},{"duration":0.1327432500000043,"midi":36,"time":203.3640417421875,"velocity":0.3937007874015748},{"duration":0.1327432500000043,"midi":39,"time":203.3640417421875,"velocity":0.3937007874015748},{"duration":1.7256622499999992,"midi":80,"time":203.3640417421875,"velocity":0.3937007874015748},{"duration":0.1327432500000043,"midi":38,"time":203.3640417421875,"velocity":0.3937007874015748},{"duration":0.1327432500000043,"midi":42,"time":203.3640417421875,"velocity":0.3937007874015748},{"duration":0.1327432500000043,"midi":39,"time":203.62952824218752,"velocity":0.3937007874015748},{"duration":0.1327432500000043,"midi":42,"time":203.62952824218752,"velocity":0.3937007874015748},{"duration":0.1327432500000043,"midi":51,"time":203.62952824218752,"velocity":0.3937007874015748},{"duration":0.1327432500000043,"midi":42,"time":203.76227149218752,"velocity":0.3937007874015748},{"duration":0.1327432500000043,"midi":53,"time":203.76227149218752,"velocity":0.3937007874015748},{"duration":0.1327432500000043,"midi":39,"time":203.76227149218752,"velocity":0.3937007874015748},{"duration":0.2654864999999802,"midi":56,"time":203.89501474218753,"velocity":0.3937007874015748},{"duration":0.7964594999999974,"midi":75,"time":203.89501474218753,"velocity":0.3937007874015748},{"duration":0.1327432500000043,"midi":42,"time":203.89501474218753,"velocity":0.3937007874015748},{"duration":0.7964594999999974,"midi":72,"time":203.89501474218753,"velocity":0.3937007874015748},{"duration":1.194689249999982,"midi":68,"time":203.89501474218753,"velocity":0.3937007874015748},{"duration":0.1327432500000043,"midi":36,"time":203.89501474218753,"velocity":0.3937007874015748},{"duration":0.1327432500000043,"midi":41,"time":203.89501474218753,"velocity":0.3937007874015748},{"duration":0.3982297499999845,"midi":56,"time":204.02775799218753,"velocity":0.3937007874015748},{"duration":0.1327432500000043,"midi":42,"time":204.1605012421875,"velocity":0.3937007874015748},{"duration":0.1327432500000043,"midi":41,"time":204.1605012421875,"velocity":0.3937007874015748},{"duration":0.1327432500000043,"midi":41,"time":204.2932444921875,"velocity":0.3937007874015748},{"duration":0.1327432500000043,"midi":42,"time":204.2932444921875,"velocity":0.3937007874015748},{"duration":1.460175750000019,"midi":65,"time":204.42598774218752,"velocity":0.3937007874015748},{"duration":1.460175750000019,"midi":61,"time":204.42598774218752,"velocity":0.3937007874015748},{"duration":0.1327432500000043,"midi":39,"time":204.42598774218752,"velocity":0.3937007874015748},{"duration":0.1327432500000043,"midi":56,"time":204.42598774218752,"velocity":0.3937007874015748},{"duration":0.1327432500000043,"midi":42,"time":204.42598774218752,"velocity":0.3937007874015748},{"duration":0.1327432500000043,"midi":36,"time":204.42598774218752,"velocity":0.3937007874015748},{"duration":0.1327432500000043,"midi":38,"time":204.42598774218752,"velocity":0.3937007874015748},{"duration":0.1327432500000043,"midi":48,"time":204.55873099218752,"velocity":0.3937007874015748},{"duration":1.3274324999999862,"midi":77,"time":204.69147424218752,"velocity":0.3937007874015748},{"duration":1.061946000000006,"midi":70,"time":204.69147424218752,"velocity":0.3937007874015748},{"duration":0.1327432500000043,"midi":46,"time":204.69147424218752,"velocity":0.3937007874015748},{"duration":1.1946892500000104,"midi":73,"time":204.69147424218752,"velocity":0.3937007874015748},{"duration":0.1327432500000043,"midi":46,"time":204.69147424218752,"velocity":0.3937007874015748},{"duration":0.1327432500000043,"midi":53,"time":204.82421749218753,"velocity":0.3937007874015748},{"duration":0.2654864999999802,"midi":68,"time":204.95696074218753,"velocity":0.3937007874015748},{"duration":0.1327432499999759,"midi":36,"time":204.95696074218753,"velocity":0.3937007874015748},{"duration":0.1327432499999759,"midi":56,"time":204.95696074218753,"velocity":0.3937007874015748},{"duration":0.2654864999999802,"midi":80,"time":204.95696074218753,"velocity":0.3937007874015748},{"duration":0.1327432499999759,"midi":42,"time":204.95696074218753,"velocity":0.3937007874015748},{"duration":0.3982297500000129,"midi":80,"time":205.0897039921875,"velocity":0.3937007874015748},{"duration":0.3982297500000129,"midi":68,"time":205.0897039921875,"velocity":0.3937007874015748},{"duration":0.1327432500000043,"midi":56,"time":205.2224472421875,"velocity":0.3937007874015748},{"duration":0.1327432500000043,"midi":42,"time":205.2224472421875,"velocity":0.3937007874015748},{"duration":0.1327432500000043,"midi":44,"time":205.2224472421875,"velocity":0.3937007874015748},{"duration":0.2654865000000086,"midi":80,"time":205.35519049218752,"velocity":0.3937007874015748},{"duration":0.2654865000000086,"midi":68,"time":205.35519049218752,"velocity":0.3937007874015748},{"duration":0.1327432500000043,"midi":42,"time":205.35519049218752,"velocity":0.3937007874015748},{"duration":0.1327432500000043,"midi":38,"time":205.48793374218752,"velocity":0.3937007874015748},{"duration":0.1327432500000043,"midi":49,"time":205.48793374218752,"velocity":0.3937007874015748},{"duration":0.3982297500000129,"midi":80,"time":205.48793374218752,"velocity":0.3937007874015748},{"duration":0.1327432500000043,"midi":42,"time":205.48793374218752,"velocity":0.3937007874015748},{"duration":0.1327432500000043,"midi":39,"time":205.48793374218752,"velocity":0.3937007874015748},{"duration":0.1327432500000043,"midi":36,"time":205.48793374218752,"velocity":0.3937007874015748},{"duration":0.3982297500000129,"midi":68,"time":205.48793374218752,"velocity":0.3937007874015748},{"duration":0.1327432500000043,"midi":46,"time":205.62067699218753,"velocity":0.3937007874015748},{"duration":0.3982297499999845,"midi":70,"time":205.62067699218753,"velocity":0.3937007874015748},{"duration":0.1327432500000043,"midi":39,"time":205.62067699218753,"velocity":0.3937007874015748},{"duration":0.1327432500000043,"midi":82,"time":205.62067699218753,"velocity":0.3937007874015748},{"duration":0.1327432500000043,"midi":56,"time":205.62067699218753,"velocity":0.3937007874015748},{"duration":0.1327432500000043,"midi":46,"time":205.75342024218753,"velocity":0.3937007874015748},{"duration":0.1327432500000043,"midi":85,"time":205.75342024218753,"velocity":0.3937007874015748},{"duration":0.2654864999999802,"midi":73,"time":205.75342024218753,"velocity":0.3937007874015748},{"duration":0.1327432500000043,"midi":39,"time":205.75342024218753,"velocity":0.3937007874015748},{"duration":0.1327432499999759,"midi":85,"time":205.88616349218753,"velocity":0.3937007874015748},{"duration":0.1327432499999759,"midi":56,"time":205.88616349218753,"velocity":0.3937007874015748},{"duration":0.1327432499999759,"midi":39,"time":205.88616349218753,"velocity":0.3937007874015748},{"duration":0.1327432499999759,"midi":73,"time":205.88616349218753,"velocity":0.3937007874015748},{"duration":0.1327432499999759,"midi":49,"time":205.88616349218753,"velocity":0.3937007874015748},{"duration":0.7964594999999974,"midi":85,"time":206.0189067421875,"velocity":0.3937007874015748},{"duration":0.7964594999999974,"midi":58,"time":206.0189067421875,"velocity":0.3937007874015748},{"duration":0.7964594999999974,"midi":73,"time":206.0189067421875,"velocity":0.3937007874015748},{"duration":0.7964594999999974,"midi":70,"time":206.0189067421875,"velocity":0.3937007874015748},{"duration":0.7964594999999974,"midi":66,"time":206.0189067421875,"velocity":0.3937007874015748},{"duration":0.7964594999999974,"midi":77,"time":206.0189067421875,"velocity":0.3937007874015748},{"duration":0.7964594999999974,"midi":61,"time":206.0189067421875,"velocity":0.3937007874015748},{"duration":0.1327432500000043,"midi":36,"time":206.0189067421875,"velocity":0.3937007874015748},{"duration":0.1327432500000043,"midi":39,"time":206.0189067421875,"velocity":0.3937007874015748},{"duration":0.1327432500000043,"midi":42,"time":206.0189067421875,"velocity":0.3937007874015748},{"duration":0.7964594999999974,"midi":66,"time":206.0189067421875,"velocity":0.3937007874015748},{"duration":0.1327432500000043,"midi":56,"time":206.15164999218752,"velocity":0.3937007874015748},{"duration":0.1327432500000043,"midi":39,"time":206.28439324218752,"velocity":0.3937007874015748},{"duration":0.1327432500000043,"midi":42,"time":206.28439324218752,"velocity":0.3937007874015748},{"duration":0.1327432500000043,"midi":42,"time":206.41713649218752,"velocity":0.3937007874015748},{"duration":0.1327432500000043,"midi":39,"time":206.41713649218752,"velocity":0.3937007874015748},{"duration":0.1327432500000043,"midi":42,"time":206.54987974218753,"velocity":0.3937007874015748},{"duration":0.1327432500000043,"midi":38,"time":206.54987974218753,"velocity":0.3937007874015748},{"duration":0.1327432500000043,"midi":56,"time":206.54987974218753,"velocity":0.3937007874015748},{"duration":0.1327432500000043,"midi":36,"time":206.54987974218753,"velocity":0.3937007874015748},{"duration":0.1327432500000043,"midi":39,"time":206.54987974218753,"velocity":0.3937007874015748},{"duration":0.1327432499999759,"midi":48,"time":206.68262299218753,"velocity":0.3937007874015748},{"duration":2.123892000000012,"midi":63,"time":206.8153662421875,"velocity":0.3937007874015748},{"duration":2.123892000000012,"midi":60,"time":206.8153662421875,"velocity":0.3937007874015748},{"duration":0.1327432500000043,"midi":46,"time":206.8153662421875,"velocity":0.3937007874015748},{"duration":1.3274325000000147,"midi":75,"time":206.8153662421875,"velocity":0.3937007874015748},{"duration":1.061946000000006,"midi":87,"time":206.8153662421875,"velocity":0.3937007874015748},{"duration":1.3274325000000147,"midi":68,"time":206.8153662421875,"velocity":0.3937007874015748},{"duration":1.3274325000000147,"midi":72,"time":206.8153662421875,"velocity":0.3937007874015748},{"duration":0.1327432500000043,"midi":42,"time":206.8153662421875,"velocity":0.3937007874015748},{"duration":2.123892000000012,"midi":68,"time":206.8153662421875,"velocity":0.3937007874015748},{"duration":0.1327432500000043,"midi":42,"time":206.9481094921875,"velocity":0.3937007874015748},{"duration":0.1327432500000043,"midi":53,"time":206.9481094921875,"velocity":0.3937007874015748},{"duration":0.1327432500000043,"midi":42,"time":207.08085274218752,"velocity":0.3937007874015748},{"duration":0.1327432500000043,"midi":44,"time":207.08085274218752,"velocity":0.3937007874015748},{"duration":0.1327432500000043,"midi":56,"time":207.08085274218752,"velocity":0.3937007874015748},{"duration":0.1327432500000043,"midi":36,"time":207.08085274218752,"velocity":0.3937007874015748},{"duration":0.1327432500000043,"midi":42,"time":207.34633924218753,"velocity":0.3937007874015748},{"duration":0.1327432500000043,"midi":44,"time":207.34633924218753,"velocity":0.3937007874015748},{"duration":0.1327432500000043,"midi":42,"time":207.47908249218753,"velocity":0.3937007874015748},{"duration":0.1327432500000043,"midi":56,"time":207.47908249218753,"velocity":0.3937007874015748},{"duration":0.1327432499999759,"midi":38,"time":207.61182574218753,"velocity":0.3937007874015748},{"duration":0.1327432499999759,"midi":42,"time":207.61182574218753,"velocity":0.3937007874015748},{"duration":0.1327432499999759,"midi":39,"time":207.61182574218753,"velocity":0.3937007874015748},{"duration":0.1327432499999759,"midi":36,"time":207.61182574218753,"velocity":0.3937007874015748},{"duration":0.1327432500000043,"midi":42,"time":207.87731224218751,"velocity":0.3937007874015748},{"duration":0.2654865000000086,"midi":80,"time":207.87731224218751,"velocity":0.3937007874015748},{"duration":0.1327432500000043,"midi":39,"time":207.87731224218751,"velocity":0.3937007874015748},{"duration":0.1327432500000043,"midi":53,"time":207.87731224218751,"velocity":0.3937007874015748},{"duration":0.1327432500000043,"midi":44,"time":208.01005549218752,"velocity":0.3937007874015748},{"duration":0.1327432500000043,"midi":42,"time":208.01005549218752,"velocity":0.3937007874015748},{"duration":0.1327432500000043,"midi":56,"time":208.01005549218752,"velocity":0.3937007874015748},{"duration":0.1327432500000043,"midi":36,"time":208.14279874218752,"velocity":0.3937007874015748},{"duration":0.1327432500000043,"midi":41,"time":208.14279874218752,"velocity":0.3937007874015748},{"duration":0.1327432500000043,"midi":42,"time":208.14279874218752,"velocity":0.3937007874015748},{"duration":0.7964594999999974,"midi":87,"time":208.14279874218752,"velocity":0.3937007874015748},{"duration":0.7964594999999974,"midi":75,"time":208.14279874218752,"velocity":0.3937007874015748},{"duration":0.7964594999999974,"midi":72,"time":208.14279874218752,"velocity":0.3937007874015748},{"duration":2.123892000000012,"midi":68,"time":208.14279874218752,"velocity":0.3937007874015748},{"duration":0.1327432500000043,"midi":56,"time":208.27554199218753,"velocity":0.3937007874015748},{"duration":0.1327432499999759,"midi":41,"time":208.40828524218753,"velocity":0.3937007874015748},{"duration":0.1327432499999759,"midi":42,"time":208.40828524218753,"velocity":0.3937007874015748},{"duration":0.1327432500000043,"midi":42,"time":208.5410284921875,"velocity":0.3937007874015748},{"duration":0.1327432500000043,"midi":48,"time":208.5410284921875,"velocity":0.3937007874015748},{"duration":0.1327432500000043,"midi":56,"time":208.6737717421875,"velocity":0.3937007874015748},{"duration":0.1327432500000043,"midi":39,"time":208.6737717421875,"velocity":0.3937007874015748},{"duration":0.1327432500000043,"midi":36,"time":208.6737717421875,"velocity":0.3937007874015748},{"duration":0.1327432500000043,"midi":38,"time":208.6737717421875,"velocity":0.3937007874015748},{"duration":0.1327432500000043,"midi":42,"time":208.6737717421875,"velocity":0.3937007874015748},{"duration":0.1327432500000043,"midi":48,"time":208.80651499218752,"velocity":0.3937007874015748},{"duration":0.1327432500000043,"midi":46,"time":208.93925824218752,"velocity":0.3937007874015748},{"duration":1.3274325000000147,"midi":70,"time":208.93925824218752,"velocity":0.3937007874015748},{"duration":0.7964594999999974,"midi":89,"time":208.93925824218752,"velocity":0.3937007874015748},{"duration":0.9292027500000017,"midi":65,"time":208.93925824218752,"velocity":0.3937007874015748},{"duration":1.3274325000000147,"midi":77,"time":208.93925824218752,"velocity":0.3937007874015748},{"duration":1.3274325000000147,"midi":73,"time":208.93925824218752,"velocity":0.3937007874015748},{"duration":0.1327432500000043,"midi":42,"time":208.93925824218752,"velocity":0.3937007874015748},{"duration":0.7964594999999974,"midi":61,"time":208.93925824218752,"velocity":0.3937007874015748},{"duration":0.1327432500000043,"midi":42,"time":209.07200149218752,"velocity":0.3937007874015748},{"duration":0.1327432500000043,"midi":53,"time":209.07200149218752,"velocity":0.3937007874015748},{"duration":0.1327432500000043,"midi":56,"time":209.20474474218753,"velocity":0.3937007874015748},{"duration":0.1327432500000043,"midi":36,"time":209.20474474218753,"velocity":0.3937007874015748},{"duration":0.1327432500000043,"midi":42,"time":209.20474474218753,"velocity":0.3937007874015748},{"duration":0.1327432500000043,"midi":56,"time":209.4702312421875,"velocity":0.3937007874015748},{"duration":0.1327432500000043,"midi":46,"time":209.4702312421875,"velocity":0.3937007874015748},{"duration":0.1327432500000043,"midi":42,"time":209.4702312421875,"velocity":0.3937007874015748},{"duration":0.1327432500000043,"midi":46,"time":209.6029744921875,"velocity":0.3937007874015748},{"duration":0.1327432500000043,"midi":42,"time":209.6029744921875,"velocity":0.3937007874015748},{"duration":0.1327432500000043,"midi":56,"time":209.73571774218752,"velocity":0.3937007874015748},{"duration":0.1327432500000043,"midi":36,"time":209.73571774218752,"velocity":0.3937007874015748},{"duration":0.1327432500000043,"midi":39,"time":209.73571774218752,"velocity":0.3937007874015748},{"duration":0.1327432500000043,"midi":89,"time":209.73571774218752,"velocity":0.3937007874015748},{"duration":0.1327432500000043,"midi":38,"time":209.73571774218752,"velocity":0.3937007874015748},{"duration":0.1327432500000043,"midi":42,"time":209.73571774218752,"velocity":0.3937007874015748},{"duration":0.5309730000000172,"midi":63,"time":209.73571774218752,"velocity":0.3937007874015748},{"duration":0.5309730000000172,"midi":60,"time":209.73571774218752,"velocity":0.3937007874015748},{"duration":0.1327432500000043,"midi":58,"time":209.86846099218752,"velocity":0.3937007874015748},{"duration":0.1327432500000043,"midi":48,"time":209.86846099218752,"velocity":0.3937007874015748},{"duration":0.1327432500000043,"midi":90,"time":209.86846099218752,"velocity":0.3937007874015748},{"duration":0.1327432500000043,"midi":46,"time":210.00120424218753,"velocity":0.3937007874015748},{"duration":0.1327432500000043,"midi":89,"time":210.00120424218753,"velocity":0.3937007874015748},{"duration":0.1327432500000043,"midi":46,"time":210.00120424218753,"velocity":0.3937007874015748},{"duration":0.9292027500000017,"midi":85,"time":210.13394749218753,"velocity":0.3937007874015748},{"duration":0.1327432499999759,"midi":36,"time":210.26669074218754,"velocity":0.3937007874015748},{"duration":0.7964594999999974,"midi":61,"time":210.26669074218754,"velocity":0.3937007874015748},{"duration":0.6637162499999931,"midi":70,"time":210.26669074218754,"velocity":0.3937007874015748},{"duration":0.1327432499999759,"midi":39,"time":210.26669074218754,"velocity":0.3937007874015748},{"duration":0.7964594999999974,"midi":58,"time":210.26669074218754,"velocity":0.3937007874015748},{"duration":0.6637162499999931,"midi":66,"time":210.26669074218754,"velocity":0.3937007874015748},{"duration":0.9292027499999733,"midi":66,"time":210.26669074218754,"velocity":0.3937007874015748},{"duration":0.1327432499999759,"midi":42,"time":210.26669074218754,"velocity":0.3937007874015748},{"duration":0.7964594999999974,"midi":73,"time":210.26669074218754,"velocity":0.3937007874015748},{"duration":0.1327432500000043,"midi":56,"time":210.3994339921875,"velocity":0.3937007874015748},{"duration":0.1327432500000043,"midi":42,"time":210.53217724218752,"velocity":0.3937007874015748},{"duration":0.1327432500000043,"midi":39,"time":210.53217724218752,"velocity":0.3937007874015748},{"duration":0.1327432500000043,"midi":42,"time":210.66492049218752,"velocity":0.3937007874015748},{"duration":0.1327432500000043,"midi":48,"time":210.66492049218752,"velocity":0.3937007874015748},{"duration":0.1327432500000043,"midi":36,"time":210.79766374218752,"velocity":0.3937007874015748},{"duration":0.1327432500000043,"midi":38,"time":210.79766374218752,"velocity":0.3937007874015748},{"duration":0.1327432500000043,"midi":42,"time":210.79766374218752,"velocity":0.3937007874015748},{"duration":0.1327432500000043,"midi":39,"time":210.79766374218752,"velocity":0.3937007874015748},{"duration":0.1327432500000043,"midi":56,"time":210.79766374218752,"velocity":0.3937007874015748},{"duration":0.1327432500000043,"midi":48,"time":210.93040699218753,"velocity":0.3937007874015748},{"duration":1.3274324999999862,"midi":68,"time":211.06315024218753,"velocity":0.3937007874015748},{"duration":1.858405499999975,"midi":63,"time":211.06315024218753,"velocity":0.3937007874015748},{"duration":1.858405499999975,"midi":60,"time":211.06315024218753,"velocity":0.3937007874015748},{"duration":0.7964594999999974,"midi":87,"time":211.06315024218753,"velocity":0.3937007874015748},{"duration":1.3274324999999862,"midi":72,"time":211.06315024218753,"velocity":0.3937007874015748},{"duration":0.1327432499999759,"midi":46,"time":211.06315024218753,"velocity":0.3937007874015748},{"duration":0.1327432499999759,"midi":42,"time":211.06315024218753,"velocity":0.3937007874015748},{"duration":1.3274324999999862,"midi":75,"time":211.06315024218753,"velocity":0.3937007874015748},{"duration":1.858405499999975,"midi":68,"time":211.06315024218753,"velocity":0.3937007874015748},{"duration":0.1327432500000043,"midi":42,"time":211.1958934921875,"velocity":0.3937007874015748},{"duration":0.1327432500000043,"midi":53,"time":211.1958934921875,"velocity":0.3937007874015748},{"duration":0.1327432500000043,"midi":42,"time":211.3286367421875,"velocity":0.3937007874015748},{"duration":0.1327432500000043,"midi":36,"time":211.3286367421875,"velocity":0.3937007874015748},{"duration":0.1327432500000043,"midi":56,"time":211.3286367421875,"velocity":0.3937007874015748},{"duration":0.1327432500000043,"midi":44,"time":211.3286367421875,"velocity":0.3937007874015748},{"duration":0.1327432500000043,"midi":56,"time":211.59412324218752,"velocity":0.3937007874015748},{"duration":0.1327432500000043,"midi":42,"time":211.59412324218752,"velocity":0.3937007874015748},{"duration":0.1327432500000043,"midi":44,"time":211.59412324218752,"velocity":0.3937007874015748},{"duration":0.1327432500000043,"midi":42,"time":211.72686649218753,"velocity":0.3937007874015748},{"duration":0.1327432500000043,"midi":39,"time":211.85960974218753,"velocity":0.3937007874015748},{"duration":1.7256622499999992,"midi":80,"time":211.85960974218753,"velocity":0.3937007874015748},{"duration":0.1327432500000043,"midi":38,"time":211.85960974218753,"velocity":0.3937007874015748},{"duration":0.1327432500000043,"midi":42,"time":211.85960974218753,"velocity":0.3937007874015748},{"duration":0.1327432500000043,"midi":36,"time":211.85960974218753,"velocity":0.3937007874015748},{"duration":0.1327432500000043,"midi":42,"time":212.1250962421875,"velocity":0.3937007874015748},{"duration":0.1327432500000043,"midi":51,"time":212.1250962421875,"velocity":0.3937007874015748},{"duration":0.1327432500000043,"midi":39,"time":212.1250962421875,"velocity":0.3937007874015748},{"duration":0.1327432500000043,"midi":39,"time":212.25783949218751,"velocity":0.3937007874015748},{"duration":0.1327432500000043,"midi":42,"time":212.25783949218751,"velocity":0.3937007874015748},{"duration":0.1327432500000043,"midi":53,"time":212.25783949218751,"velocity":0.3937007874015748},{"duration":1.1946892500000104,"midi":68,"time":212.39058274218752,"velocity":0.3937007874015748},{"duration":0.1327432500000043,"midi":41,"time":212.39058274218752,"velocity":0.3937007874015748},{"duration":0.2654865000000086,"midi":56,"time":212.39058274218752,"velocity":0.3937007874015748},{"duration":0.1327432500000043,"midi":42,"time":212.39058274218752,"velocity":0.3937007874015748},{"duration":0.5309729999999888,"midi":72,"time":212.39058274218752,"velocity":0.3937007874015748},{"duration":0.1327432500000043,"midi":36,"time":212.39058274218752,"velocity":0.3937007874015748},{"duration":0.5309729999999888,"midi":75,"time":212.39058274218752,"velocity":0.3937007874015748},{"duration":0.3982297499999845,"midi":56,"time":212.52332599218752,"velocity":0.3937007874015748},{"duration":0.1327432500000043,"midi":42,"time":212.65606924218753,"velocity":0.3937007874015748},{"duration":0.1327432500000043,"midi":41,"time":212.65606924218753,"velocity":0.3937007874015748},{"duration":0.1327432499999759,"midi":42,"time":212.78881249218753,"velocity":0.3937007874015748},{"duration":0.1327432499999759,"midi":41,"time":212.78881249218753,"velocity":0.3937007874015748},{"duration":0.1327432500000043,"midi":39,"time":212.9215557421875,"velocity":0.3937007874015748},{"duration":0.1327432500000043,"midi":38,"time":212.9215557421875,"velocity":0.3937007874015748},{"duration":0.1327432500000043,"midi":36,"time":212.9215557421875,"velocity":0.3937007874015748},{"duration":0.1327432500000043,"midi":42,"time":212.9215557421875,"velocity":0.3937007874015748},{"duration":1.460175750000019,"midi":65,"time":212.9215557421875,"velocity":0.3937007874015748},{"duration":0.7964595000000259,"midi":68,"time":212.9215557421875,"velocity":0.3937007874015748},{"duration":1.460175750000019,"midi":61,"time":212.9215557421875,"velocity":0.3937007874015748},{"duration":1.5929190000000233,"midi":77,"time":212.9215557421875,"velocity":0.3937007874015748},{"duration":1.5929190000000233,"midi":73,"time":212.9215557421875,"velocity":0.3937007874015748},{"duration":0.1327432500000043,"midi":56,"time":212.9215557421875,"velocity":0.3937007874015748},{"duration":0.1327432500000043,"midi":48,"time":213.0542989921875,"velocity":0.3937007874015748},{"duration":0.1327432500000043,"midi":46,"time":213.18704224218752,"velocity":0.3937007874015748},{"duration":0.1327432500000043,"midi":46,"time":213.18704224218752,"velocity":0.3937007874015748},{"duration":0.1327432500000043,"midi":53,"time":213.31978549218752,"velocity":0.3937007874015748},{"duration":0.1327432500000043,"midi":36,"time":213.45252874218752,"velocity":0.3937007874015748},{"duration":0.5309729999999888,"midi":68,"time":213.45252874218752,"velocity":0.3937007874015748},{"duration":0.1327432500000043,"midi":85,"time":213.45252874218752,"velocity":0.3937007874015748},{"duration":0.2654865000000086,"midi":80,"time":213.45252874218752,"velocity":0.3937007874015748},{"duration":0.1327432500000043,"midi":56,"time":213.45252874218752,"velocity":0.3937007874015748},{"duration":0.1327432500000043,"midi":42,"time":213.45252874218752,"velocity":0.3937007874015748},{"duration":0.3982297499999845,"midi":80,"time":213.58527199218753,"velocity":0.3937007874015748},{"duration":0.5309729999999888,"midi":68,"time":213.58527199218753,"velocity":0.3937007874015748},{"duration":0.1327432500000043,"midi":85,"time":213.58527199218753,"velocity":0.3937007874015748},{"duration":0.1327432499999759,"midi":56,"time":213.71801524218753,"velocity":0.3937007874015748},{"duration":0.1327432499999759,"midi":44,"time":213.71801524218753,"velocity":0.3937007874015748},{"duration":0.1327432499999759,"midi":42,"time":213.71801524218753,"velocity":0.3937007874015748},{"duration":0.2654865000000086,"midi":80,"time":213.8507584921875,"velocity":0.3937007874015748},{"duration":0.3982297500000129,"midi":68,"time":213.8507584921875,"velocity":0.3937007874015748},{"duration":0.1327432500000043,"midi":42,"time":213.8507584921875,"velocity":0.3937007874015748},{"duration":0.1327432500000043,"midi":85,"time":213.8507584921875,"velocity":0.3937007874015748},{"duration":0.1327432500000043,"midi":36,"time":213.9835017421875,"velocity":0.3937007874015748},{"duration":0.1327432500000043,"midi":85,"time":213.9835017421875,"velocity":0.3937007874015748},{"duration":0.1327432500000043,"midi":49,"time":213.9835017421875,"velocity":0.3937007874015748},{"duration":0.1327432500000043,"midi":39,"time":213.9835017421875,"velocity":0.3937007874015748},{"duration":0.1327432500000043,"midi":42,"time":213.9835017421875,"velocity":0.3937007874015748},{"duration":0.1327432500000043,"midi":38,"time":213.9835017421875,"velocity":0.3937007874015748},{"duration":0.3982297500000129,"midi":68,"time":213.9835017421875,"velocity":0.3937007874015748},{"duration":0.2654865000000086,"midi":80,"time":213.9835017421875,"velocity":0.3937007874015748},{"duration":0.1327432500000043,"midi":46,"time":214.11624499218752,"velocity":0.3937007874015748},{"duration":0.2654865000000086,"midi":80,"time":214.11624499218752,"velocity":0.3937007874015748},{"duration":0.1327432500000043,"midi":85,"time":214.11624499218752,"velocity":0.3937007874015748},{"duration":0.1327432500000043,"midi":56,"time":214.11624499218752,"velocity":0.3937007874015748},{"duration":0.2654865000000086,"midi":68,"time":214.11624499218752,"velocity":0.3937007874015748},{"duration":0.1327432500000043,"midi":39,"time":214.11624499218752,"velocity":0.3937007874015748},{"duration":0.1327432500000043,"midi":85,"time":214.24898824218752,"velocity":0.3937007874015748},{"duration":0.1327432500000043,"midi":80,"time":214.24898824218752,"velocity":0.3937007874015748},{"duration":0.2654865000000086,"midi":68,"time":214.24898824218752,"velocity":0.3937007874015748},{"duration":0.1327432500000043,"midi":46,"time":214.24898824218752,"velocity":0.3937007874015748},{"duration":0.1327432500000043,"midi":39,"time":214.24898824218752,"velocity":0.3937007874015748},{"duration":0.1327432500000043,"midi":56,"time":214.38173149218753,"velocity":0.3937007874015748},{"duration":0.1327432500000043,"midi":68,"time":214.38173149218753,"velocity":0.3937007874015748},{"duration":0.1327432500000043,"midi":80,"time":214.38173149218753,"velocity":0.3937007874015748},{"duration":0.1327432500000043,"midi":49,"time":214.38173149218753,"velocity":0.3937007874015748},{"duration":0.1327432500000043,"midi":39,"time":214.38173149218753,"velocity":0.3937007874015748},{"duration":0.1327432500000043,"midi":85,"time":214.38173149218753,"velocity":0.3937007874015748},{"duration":0.1327432500000043,"midi":42,"time":214.51447474218753,"velocity":0.3937007874015748},{"duration":0.1327432500000043,"midi":36,"time":214.51447474218753,"velocity":0.3937007874015748},{"duration":0.1327432500000043,"midi":46,"time":214.51447474218753,"velocity":0.3937007874015748},{"duration":0.1327432499999759,"midi":56,"time":214.64721799218754,"velocity":0.3937007874015748},{"duration":0.1327432500000043,"midi":42,"time":214.7799612421875,"velocity":0.3937007874015748},{"duration":0.1327432500000043,"midi":46,"time":214.7799612421875,"velocity":0.3937007874015748},{"duration":0.1327432500000043,"midi":46,"time":214.91270449218752,"velocity":0.3937007874015748},{"duration":0.1327432500000043,"midi":42,"time":214.91270449218752,"velocity":0.3937007874015748},{"duration":0.1327432500000043,"midi":56,"time":215.04544774218752,"velocity":0.3937007874015748},{"duration":0.1327432500000043,"midi":42,"time":215.04544774218752,"velocity":0.3937007874015748},{"duration":0.1327432500000043,"midi":38,"time":215.04544774218752,"velocity":0.3937007874015748},{"duration":0.1327432500000043,"midi":39,"time":215.04544774218752,"velocity":0.3937007874015748},{"duration":0.1327432500000043,"midi":36,"time":215.04544774218752,"velocity":0.3937007874015748},{"duration":0.1327432500000043,"midi":49,"time":215.17819099218752,"velocity":0.3937007874015748},{"duration":0.1327432500000043,"midi":42,"time":215.31093424218753,"velocity":0.3937007874015748},{"duration":0.1327432500000043,"midi":48,"time":215.31093424218753,"velocity":0.3937007874015748},{"duration":0.1327432499999759,"midi":42,"time":215.44367749218753,"velocity":0.3937007874015748},{"duration":0.1327432499999759,"midi":53,"time":215.44367749218753,"velocity":0.3937007874015748},{"duration":0.1327432500000043,"midi":44,"time":215.5764207421875,"velocity":0.3937007874015748},{"duration":0.1327432500000043,"midi":36,"time":215.5764207421875,"velocity":0.3937007874015748},{"duration":0.1327432500000043,"midi":56,"time":215.5764207421875,"velocity":0.3937007874015748},{"duration":0.1327432500000043,"midi":42,"time":215.5764207421875,"velocity":0.3937007874015748},{"duration":0.1327432500000043,"midi":42,"time":215.84190724218752,"velocity":0.3937007874015748},{"duration":0.1327432500000043,"midi":46,"time":215.84190724218752,"velocity":0.3937007874015748},{"duration":0.1327432500000043,"midi":42,"time":215.97465049218752,"velocity":0.3937007874015748},{"duration":0.1327432500000043,"midi":56,"time":215.97465049218752,"velocity":0.3937007874015748},{"duration":0.1327432500000043,"midi":39,"time":216.10739374218753,"velocity":0.3937007874015748},{"duration":0.1327432500000043,"midi":36,"time":216.10739374218753,"velocity":0.3937007874015748},{"duration":0.1327432500000043,"midi":42,"time":216.10739374218753,"velocity":0.3937007874015748},{"duration":0.1327432500000043,"midi":38,"time":216.10739374218753,"velocity":0.3937007874015748},{"duration":0.1327432499999759,"midi":41,"time":216.37288024218753,"velocity":0.3937007874015748},{"duration":0.1327432499999759,"midi":42,"time":216.37288024218753,"velocity":0.3937007874015748},{"duration":0.1327432499999759,"midi":53,"time":216.37288024218753,"velocity":0.3937007874015748},{"duration":0.1327432500000043,"midi":42,"time":216.5056234921875,"velocity":0.3937007874015748},{"duration":0.1327432500000043,"midi":56,"time":216.5056234921875,"velocity":0.3937007874015748},{"duration":0.1327432500000043,"midi":46,"time":216.5056234921875,"velocity":0.3937007874015748},{"duration":0.2654865000000086,"midi":77,"time":216.63836674218751,"velocity":0.3937007874015748},{"duration":0.1327432500000043,"midi":36,"time":216.63836674218751,"velocity":0.3937007874015748},{"duration":0.2654865000000086,"midi":80,"time":216.63836674218751,"velocity":0.3937007874015748},{"duration":0.2654865000000086,"midi":85,"time":216.63836674218751,"velocity":0.3937007874015748},{"duration":0.1327432500000043,"midi":42,"time":216.63836674218751,"velocity":0.3937007874015748},{"duration":0.1327432500000043,"midi":56,"time":216.77110999218752,"velocity":0.3937007874015748},{"duration":0.1327432500000043,"midi":44,"time":216.90385324218752,"velocity":0.3937007874015748},{"duration":0.1327432500000043,"midi":42,"time":216.90385324218752,"velocity":0.3937007874015748},{"duration":0.3982297499999845,"midi":85,"time":217.03659649218753,"velocity":0.3937007874015748},{"duration":0.1327432500000043,"midi":46,"time":217.03659649218753,"velocity":0.3937007874015748},{"duration":0.3982297499999845,"midi":80,"time":217.03659649218753,"velocity":0.3937007874015748},{"duration":0.3982297499999845,"midi":77,"time":217.03659649218753,"velocity":0.3937007874015748},{"duration":0.1327432500000043,"midi":42,"time":217.03659649218753,"velocity":0.3937007874015748},{"duration":0.1327432499999759,"midi":38,"time":217.16933974218753,"velocity":0.3937007874015748},{"duration":0.1327432499999759,"midi":42,"time":217.16933974218753,"velocity":0.3937007874015748},{"duration":0.1327432499999759,"midi":36,"time":217.16933974218753,"velocity":0.3937007874015748},{"duration":0.1327432499999759,"midi":39,"time":217.16933974218753,"velocity":0.3937007874015748},{"duration":0.1327432499999759,"midi":56,"time":217.16933974218753,"velocity":0.3937007874015748},{"duration":0.1327432500000043,"midi":49,"time":217.3020829921875,"velocity":0.3937007874015748},{"duration":0.1327432500000043,"midi":75,"time":217.4348262421875,"velocity":0.3937007874015748},{"duration":0.1327432500000043,"midi":80,"time":217.4348262421875,"velocity":0.3937007874015748},{"duration":0.1327432500000043,"midi":84,"time":217.4348262421875,"velocity":0.3937007874015748},{"duration":0.1327432500000043,"midi":42,"time":217.4348262421875,"velocity":0.3937007874015748},{"duration":0.1327432500000043,"midi":48,"time":217.4348262421875,"velocity":0.3937007874015748},{"duration":0.1327432500000043,"midi":42,"time":217.56756949218752,"velocity":0.3937007874015748},{"duration":0.1327432500000043,"midi":53,"time":217.56756949218752,"velocity":0.3937007874015748},{"duration":0.1327432500000043,"midi":42,"time":217.70031274218752,"velocity":0.3937007874015748},{"duration":0.1327432500000043,"midi":56,"time":217.70031274218752,"velocity":0.3937007874015748},{"duration":0.1327432500000043,"midi":36,"time":217.70031274218752,"velocity":0.3937007874015748},{"duration":0.1327432500000043,"midi":56,"time":217.96579924218753,"velocity":0.3937007874015748},{"duration":0.1327432500000043,"midi":46,"time":217.96579924218753,"velocity":0.3937007874015748},{"duration":0.1327432500000043,"midi":42,"time":217.96579924218753,"velocity":0.3937007874015748},{"duration":0.1327432499999759,"midi":42,"time":218.09854249218753,"velocity":0.3937007874015748},{"duration":0.1327432500000043,"midi":39,"time":218.2312857421875,"velocity":0.3937007874015748},{"duration":0.1327432500000043,"midi":36,"time":218.2312857421875,"velocity":0.3937007874015748},{"duration":0.1327432500000043,"midi":42,"time":218.2312857421875,"velocity":0.3937007874015748},{"duration":0.1327432500000043,"midi":56,"time":218.2312857421875,"velocity":0.3937007874015748},{"duration":0.1327432500000043,"midi":38,"time":218.2312857421875,"velocity":0.3937007874015748},{"duration":0.1327432500000043,"midi":58,"time":218.3640289921875,"velocity":0.3937007874015748},{"duration":0.1327432500000043,"midi":46,"time":218.49677224218752,"velocity":0.3937007874015748},{"duration":0.1327432500000043,"midi":44,"time":218.49677224218752,"velocity":0.3937007874015748},{"duration":0.1327432500000043,"midi":44,"time":218.62951549218752,"velocity":0.3937007874015748},{"duration":0.1327432500000043,"midi":46,"time":218.76225874218753,"velocity":0.3937007874015748},{"duration":0.1327432500000043,"midi":42,"time":218.76225874218753,"velocity":0.3937007874015748},{"duration":0.1327432500000043,"midi":36,"time":218.76225874218753,"velocity":0.3937007874015748},{"duration":0.1327432500000043,"midi":56,"time":218.89500199218753,"velocity":0.3937007874015748},{"duration":0.1327432499999759,"midi":42,"time":219.02774524218754,"velocity":0.3937007874015748},{"duration":0.1327432499999759,"midi":46,"time":219.02774524218754,"velocity":0.3937007874015748},{"duration":0.1327432500000043,"midi":46,"time":219.1604884921875,"velocity":0.3937007874015748},{"duration":0.1327432500000043,"midi":42,"time":219.1604884921875,"velocity":0.3937007874015748},{"duration":0.1327432500000043,"midi":56,"time":219.29323174218752,"velocity":0.3937007874015748},{"duration":0.1327432500000043,"midi":39,"time":219.29323174218752,"velocity":0.3937007874015748},{"duration":0.1327432500000043,"midi":36,"time":219.29323174218752,"velocity":0.3937007874015748},{"duration":0.1327432500000043,"midi":38,"time":219.29323174218752,"velocity":0.3937007874015748},{"duration":0.1327432500000043,"midi":42,"time":219.29323174218752,"velocity":0.3937007874015748},{"duration":0.1327432500000043,"midi":49,"time":219.42597499218752,"velocity":0.3937007874015748},{"duration":0.1327432500000043,"midi":42,"time":219.55871824218752,"velocity":0.3937007874015748},{"duration":0.1327432500000043,"midi":48,"time":219.55871824218752,"velocity":0.3937007874015748},{"duration":0.1327432500000043,"midi":53,"time":219.69146149218753,"velocity":0.3937007874015748},{"duration":0.1327432500000043,"midi":42,"time":219.69146149218753,"velocity":0.3937007874015748},{"duration":0.1327432499999759,"midi":56,"time":219.82420474218753,"velocity":0.3937007874015748},{"duration":0.1327432499999759,"midi":36,"time":219.82420474218753,"velocity":0.3937007874015748},{"duration":0.1327432499999759,"midi":42,"time":219.82420474218753,"velocity":0.3937007874015748},{"duration":0.1327432499999759,"midi":44,"time":219.82420474218753,"velocity":0.3937007874015748},{"duration":0.1327432500000043,"midi":46,"time":220.0896912421875,"velocity":0.3937007874015748},{"duration":0.1327432500000043,"midi":56,"time":220.0896912421875,"velocity":0.3937007874015748},{"duration":0.1327432500000043,"midi":42,"time":220.0896912421875,"velocity":0.3937007874015748},{"duration":0.1327432500000043,"midi":42,"time":220.22243449218752,"velocity":0.3937007874015748},{"duration":0.1327432500000043,"midi":38,"time":220.35517774218752,"velocity":0.3937007874015748},{"duration":0.1327432500000043,"midi":42,"time":220.35517774218752,"velocity":0.3937007874015748},{"duration":0.1327432500000043,"midi":36,"time":220.35517774218752,"velocity":0.3937007874015748},{"duration":0.1327432500000043,"midi":39,"time":220.35517774218752,"velocity":0.3937007874015748},{"duration":0.1327432500000043,"midi":51,"time":220.62066424218753,"velocity":0.3937007874015748},{"duration":0.1327432500000043,"midi":44,"time":220.62066424218753,"velocity":0.3937007874015748},{"duration":0.1327432500000043,"midi":42,"time":220.62066424218753,"velocity":0.3937007874015748},{"duration":0.1327432499999759,"midi":44,"time":220.75340749218753,"velocity":0.3937007874015748},{"duration":0.1327432499999759,"midi":42,"time":220.75340749218753,"velocity":0.3937007874015748},{"duration":0.1327432499999759,"midi":53,"time":220.75340749218753,"velocity":0.3937007874015748},{"duration":0.1327432500000043,"midi":42,"time":220.8861507421875,"velocity":0.3937007874015748},{"duration":0.2654865000000086,"midi":77,"time":220.8861507421875,"velocity":0.3937007874015748},{"duration":0.1327432500000043,"midi":36,"time":220.8861507421875,"velocity":0.3937007874015748},{"duration":0.2654865000000086,"midi":80,"time":220.8861507421875,"velocity":0.3937007874015748},{"duration":0.2654865000000086,"midi":85,"time":220.8861507421875,"velocity":0.3937007874015748},{"duration":0.1327432500000043,"midi":39,"time":220.8861507421875,"velocity":0.3937007874015748},{"duration":0.1327432500000043,"midi":56,"time":221.01889399218751,"velocity":0.3937007874015748},{"duration":0.1327432500000043,"midi":39,"time":221.15163724218752,"velocity":0.3937007874015748},{"duration":0.1327432500000043,"midi":42,"time":221.15163724218752,"velocity":0.3937007874015748},{"duration":0.1327432500000043,"midi":42,"time":221.28438049218752,"velocity":0.3937007874015748},{"duration":0.3982297499999845,"midi":77,"time":221.28438049218752,"velocity":0.3937007874015748},{"duration":0.3982297499999845,"midi":80,"time":221.28438049218752,"velocity":0.3937007874015748},{"duration":0.3982297499999845,"midi":85,"time":221.28438049218752,"velocity":0.3937007874015748},{"duration":0.1327432500000043,"midi":44,"time":221.28438049218752,"velocity":0.3937007874015748},{"duration":0.1327432500000043,"midi":42,"time":221.41712374218753,"velocity":0.3937007874015748},{"duration":0.1327432500000043,"midi":36,"time":221.41712374218753,"velocity":0.3937007874015748},{"duration":0.1327432500000043,"midi":56,"time":221.41712374218753,"velocity":0.3937007874015748},{"duration":0.1327432500000043,"midi":39,"time":221.41712374218753,"velocity":0.3937007874015748},{"duration":0.1327432500000043,"midi":38,"time":221.41712374218753,"velocity":0.3937007874015748},{"duration":0.1327432499999759,"midi":44,"time":221.54986699218753,"velocity":0.3937007874015748},{"duration":0.1327432500000043,"midi":75,"time":221.6826102421875,"velocity":0.3937007874015748},{"duration":0.1327432500000043,"midi":84,"time":221.6826102421875,"velocity":0.3937007874015748},{"duration":0.1327432500000043,"midi":46,"time":221.6826102421875,"velocity":0.3937007874015748},{"duration":0.1327432500000043,"midi":44,"time":221.6826102421875,"velocity":0.3937007874015748},{"duration":0.1327432500000043,"midi":80,"time":221.6826102421875,"velocity":0.3937007874015748},{"duration":0.1327432500000043,"midi":53,"time":221.8153534921875,"velocity":0.3937007874015748},{"duration":0.1327432500000043,"midi":56,"time":221.94809674218752,"velocity":0.3937007874015748},{"duration":0.1327432500000043,"midi":36,"time":221.94809674218752,"velocity":0.3937007874015748},{"duration":0.1327432500000043,"midi":42,"time":221.94809674218752,"velocity":0.3937007874015748},{"duration":0.1327432500000043,"midi":42,"time":222.21358324218753,"velocity":0.3937007874015748},{"duration":0.1327432500000043,"midi":56,"time":222.21358324218753,"velocity":0.3937007874015748},{"duration":0.1327432500000043,"midi":44,"time":222.21358324218753,"velocity":0.3937007874015748},{"duration":0.1327432500000043,"midi":44,"time":222.34632649218753,"velocity":0.3937007874015748},{"duration":0.1327432500000043,"midi":42,"time":222.34632649218753,"velocity":0.3937007874015748},{"duration":0.1327432499999759,"midi":36,"time":222.47906974218753,"velocity":0.3937007874015748},{"duration":0.1327432499999759,"midi":39,"time":222.47906974218753,"velocity":0.3937007874015748},{"duration":0.1327432499999759,"midi":42,"time":222.47906974218753,"velocity":0.3937007874015748},{"duration":0.1327432499999759,"midi":38,"time":222.47906974218753,"velocity":0.3937007874015748},{"duration":0.1327432500000043,"midi":44,"time":222.6118129921875,"velocity":0.3937007874015748},{"duration":0.1327432500000043,"midi":56,"time":222.6118129921875,"velocity":0.3937007874015748},{"duration":0.1327432500000043,"midi":39,"time":222.6118129921875,"velocity":0.3937007874015748},{"duration":0.1327432500000043,"midi":46,"time":222.7445562421875,"velocity":0.3937007874015748},{"duration":0.1327432500000043,"midi":39,"time":222.7445562421875,"velocity":0.3937007874015748},{"duration":0.1327432500000043,"midi":46,"time":222.7445562421875,"velocity":0.3937007874015748},{"duration":0.1327432500000043,"midi":46,"time":222.87729949218752,"velocity":0.3937007874015748},{"duration":0.1327432500000043,"midi":56,"time":222.87729949218752,"velocity":0.3937007874015748},{"duration":0.1327432500000043,"midi":39,"time":222.87729949218752,"velocity":0.3937007874015748},{"duration":0.1327432500000043,"midi":42,"time":223.01004274218752,"velocity":0.3937007874015748},{"duration":0.1327432500000043,"midi":46,"time":223.01004274218752,"velocity":0.3937007874015748},{"duration":0.1327432500000043,"midi":36,"time":223.01004274218752,"velocity":0.3937007874015748},{"duration":0.1327432500000043,"midi":56,"time":223.14278599218753,"velocity":0.3937007874015748},{"duration":0.1327432500000043,"midi":46,"time":223.27552924218753,"velocity":0.3937007874015748},{"duration":0.1327432500000043,"midi":42,"time":223.27552924218753,"velocity":0.3937007874015748},{"duration":0.1327432499999759,"midi":42,"time":223.40827249218754,"velocity":0.3937007874015748},{"duration":0.1327432499999759,"midi":46,"time":223.40827249218754,"velocity":0.3937007874015748},{"duration":0.1327432500000043,"midi":36,"time":223.5410157421875,"velocity":0.3937007874015748},{"duration":0.1327432500000043,"midi":42,"time":223.5410157421875,"velocity":0.3937007874015748},{"duration":0.1327432500000043,"midi":56,"time":223.5410157421875,"velocity":0.3937007874015748},{"duration":0.1327432500000043,"midi":39,"time":223.5410157421875,"velocity":0.3937007874015748},{"duration":0.1327432500000043,"midi":49,"time":223.67375899218752,"velocity":0.3937007874015748},{"duration":0.1327432500000043,"midi":42,"time":223.80650224218752,"velocity":0.3937007874015748},{"duration":0.1327432500000043,"midi":48,"time":223.80650224218752,"velocity":0.3937007874015748},{"duration":0.1327432500000043,"midi":53,"time":223.93924549218752,"velocity":0.3937007874015748},{"duration":0.1327432500000043,"midi":42,"time":223.93924549218752,"velocity":0.3937007874015748},{"duration":0.1327432500000043,"midi":36,"time":224.07198874218753,"velocity":0.3937007874015748},{"duration":0.1327432500000043,"midi":56,"time":224.07198874218753,"velocity":0.3937007874015748},{"duration":0.1327432500000043,"midi":44,"time":224.07198874218753,"velocity":0.3937007874015748},{"duration":0.1327432500000043,"midi":42,"time":224.07198874218753,"velocity":0.3937007874015748},{"duration":0.1327432500000043,"midi":42,"time":224.3374752421875,"velocity":0.3937007874015748},{"duration":0.1327432500000043,"midi":46,"time":224.3374752421875,"velocity":0.3937007874015748},{"duration":0.1327432500000043,"midi":56,"time":224.4702184921875,"velocity":0.3937007874015748},{"duration":0.1327432500000043,"midi":42,"time":224.4702184921875,"velocity":0.3937007874015748},{"duration":0.1327432500000043,"midi":39,"time":224.60296174218752,"velocity":0.3937007874015748},{"duration":0.1327432500000043,"midi":36,"time":224.60296174218752,"velocity":0.3937007874015748},{"duration":0.1327432500000043,"midi":42,"time":224.60296174218752,"velocity":0.3937007874015748},{"duration":0.1327432500000043,"midi":41,"time":224.86844824218753,"velocity":0.3937007874015748},{"duration":0.1327432500000043,"midi":42,"time":224.86844824218753,"velocity":0.3937007874015748},{"duration":0.1327432500000043,"midi":53,"time":224.86844824218753,"velocity":0.3937007874015748},{"duration":0.1327432500000043,"midi":56,"time":225.00119149218753,"velocity":0.3937007874015748},{"duration":0.1327432500000043,"midi":42,"time":225.00119149218753,"velocity":0.3937007874015748},{"duration":0.1327432500000043,"midi":46,"time":225.00119149218753,"velocity":0.3937007874015748},{"duration":0.1327432499999759,"midi":36,"time":225.13393474218753,"velocity":0.3937007874015748},{"duration":0.2654864999999802,"midi":77,"time":225.13393474218753,"velocity":0.3937007874015748},{"duration":0.2654864999999802,"midi":85,"time":225.13393474218753,"velocity":0.3937007874015748},{"duration":0.2654864999999802,"midi":80,"time":225.13393474218753,"velocity":0.3937007874015748},{"duration":0.1327432499999759,"midi":42,"time":225.13393474218753,"velocity":0.3937007874015748},{"duration":0.1327432500000043,"midi":56,"time":225.2666779921875,"velocity":0.3937007874015748},{"duration":0.1327432500000043,"midi":44,"time":225.39942124218751,"velocity":0.3937007874015748},{"duration":0.1327432500000043,"midi":42,"time":225.39942124218751,"velocity":0.3937007874015748},{"duration":0.1327432500000043,"midi":42,"time":225.53216449218752,"velocity":0.3937007874015748},{"duration":0.1327432500000043,"midi":46,"time":225.53216449218752,"velocity":0.3937007874015748},{"duration":0.3982297500000129,"midi":80,"time":225.53216449218752,"velocity":0.3937007874015748},{"duration":0.3982297500000129,"midi":77,"time":225.53216449218752,"velocity":0.3937007874015748},{"duration":0.3982297500000129,"midi":85,"time":225.53216449218752,"velocity":0.3937007874015748},{"duration":0.1327432500000043,"midi":56,"time":225.66490774218752,"velocity":0.3937007874015748},{"duration":0.1327432500000043,"midi":42,"time":225.66490774218752,"velocity":0.3937007874015748},{"duration":0.1327432500000043,"midi":36,"time":225.66490774218752,"velocity":0.3937007874015748},{"duration":0.1327432500000043,"midi":39,"time":225.66490774218752,"velocity":0.3937007874015748},{"duration":0.1327432500000043,"midi":49,"time":225.79765099218753,"velocity":0.3937007874015748},{"duration":0.1327432500000043,"midi":84,"time":225.93039424218753,"velocity":0.3937007874015748},{"duration":0.1327432500000043,"midi":42,"time":225.93039424218753,"velocity":0.3937007874015748},{"duration":0.1327432500000043,"midi":80,"time":225.93039424218753,"velocity":0.3937007874015748},{"duration":0.1327432500000043,"midi":75,"time":225.93039424218753,"velocity":0.3937007874015748},{"duration":0.1327432500000043,"midi":48,"time":225.93039424218753,"velocity":0.3937007874015748},{"duration":0.1327432499999759,"midi":42,"time":226.06313749218754,"velocity":0.3937007874015748},{"duration":0.1327432499999759,"midi":53,"time":226.06313749218754,"velocity":0.3937007874015748},{"duration":0.1327432500000043,"midi":56,"time":226.1958807421875,"velocity":0.3937007874015748},{"duration":0.1327432500000043,"midi":36,"time":226.1958807421875,"velocity":0.3937007874015748},{"duration":0.1327432500000043,"midi":42,"time":226.1958807421875,"velocity":0.3937007874015748},{"duration":0.1327432500000043,"midi":56,"time":226.46136724218752,"velocity":0.3937007874015748},{"duration":0.1327432500000043,"midi":46,"time":226.46136724218752,"velocity":0.3937007874015748},{"duration":0.1327432500000043,"midi":42,"time":226.46136724218752,"velocity":0.3937007874015748},{"duration":0.1327432500000043,"midi":42,"time":226.59411049218753,"velocity":0.3937007874015748},{"duration":0.1327432500000043,"midi":39,"time":226.72685374218753,"velocity":0.3937007874015748},{"duration":0.1327432500000043,"midi":56,"time":226.72685374218753,"velocity":0.3937007874015748},{"duration":0.1327432500000043,"midi":42,"time":226.72685374218753,"velocity":0.3937007874015748},{"duration":0.1327432500000043,"midi":36,"time":226.72685374218753,"velocity":0.3937007874015748},{"duration":0.1327432499999759,"midi":58,"time":226.85959699218753,"velocity":0.3937007874015748},{"duration":0.1327432500000043,"midi":44,"time":226.9923402421875,"velocity":0.3937007874015748},{"duration":0.1327432500000043,"midi":46,"time":226.9923402421875,"velocity":0.3937007874015748},{"duration":0.1327432500000043,"midi":44,"time":227.1250834921875,"velocity":0.3937007874015748},{"duration":0.1327432500000043,"midi":42,"time":227.25782674218752,"velocity":0.3937007874015748},{"duration":0.1327432500000043,"midi":36,"time":227.25782674218752,"velocity":0.3937007874015748},{"duration":0.1327432500000043,"midi":46,"time":227.25782674218752,"velocity":0.3937007874015748},{"duration":0.1327432500000043,"midi":56,"time":227.39056999218752,"velocity":0.3937007874015748},{"duration":0.1327432500000043,"midi":42,"time":227.52331324218753,"velocity":0.3937007874015748},{"duration":0.1327432500000043,"midi":46,"time":227.52331324218753,"velocity":0.3937007874015748},{"duration":0.1327432500000043,"midi":46,"time":227.65605649218753,"velocity":0.3937007874015748},{"duration":0.1327432500000043,"midi":42,"time":227.65605649218753,"velocity":0.3937007874015748},{"duration":0.1327432499999759,"midi":42,"time":227.78879974218754,"velocity":0.3937007874015748},{"duration":0.1327432499999759,"midi":39,"time":227.78879974218754,"velocity":0.3937007874015748},{"duration":0.1327432499999759,"midi":36,"time":227.78879974218754,"velocity":0.3937007874015748},{"duration":0.1327432499999759,"midi":56,"time":227.78879974218754,"velocity":0.3937007874015748},{"duration":0.1327432500000043,"midi":49,"time":227.9215429921875,"velocity":0.3937007874015748},{"duration":0.1327432500000043,"midi":48,"time":228.05428624218752,"velocity":0.3937007874015748},{"duration":0.1327432500000043,"midi":42,"time":228.05428624218752,"velocity":0.3937007874015748},{"duration":0.1327432500000043,"midi":53,"time":228.18702949218752,"velocity":0.3937007874015748},{"duration":0.1327432500000043,"midi":42,"time":228.18702949218752,"velocity":0.3937007874015748},{"duration":0.1327432500000043,"midi":36,"time":228.31977274218752,"velocity":0.3937007874015748},{"duration":0.1327432500000043,"midi":42,"time":228.31977274218752,"velocity":0.3937007874015748},{"duration":0.1327432500000043,"midi":44,"time":228.31977274218752,"velocity":0.3937007874015748},{"duration":0.1327432500000043,"midi":56,"time":228.31977274218752,"velocity":0.3937007874015748},{"duration":0.1327432499999759,"midi":56,"time":228.58525924218753,"velocity":0.3937007874015748},{"duration":0.1327432499999759,"midi":42,"time":228.58525924218753,"velocity":0.3937007874015748},{"duration":0.1327432499999759,"midi":46,"time":228.58525924218753,"velocity":0.3937007874015748},{"duration":0.1327432500000043,"midi":42,"time":228.7180024921875,"velocity":0.3937007874015748},{"duration":0.1327432500000043,"midi":36,"time":228.8507457421875,"velocity":0.3937007874015748},{"duration":0.1327432500000043,"midi":42,"time":228.8507457421875,"velocity":0.3937007874015748},{"duration":0.1327432500000043,"midi":39,"time":228.8507457421875,"velocity":0.3937007874015748},{"duration":0.1327432500000043,"midi":42,"time":229.11623224218752,"velocity":0.3937007874015748},{"duration":0.1327432500000043,"midi":51,"time":229.11623224218752,"velocity":0.3937007874015748},{"duration":0.1327432500000043,"midi":44,"time":229.11623224218752,"velocity":0.3937007874015748},{"duration":0.1327432500000043,"midi":53,"time":229.24897549218753,"velocity":0.3937007874015748},{"duration":0.1327432500000043,"midi":44,"time":229.24897549218753,"velocity":0.3937007874015748},{"duration":0.1327432500000043,"midi":42,"time":229.24897549218753,"velocity":0.3937007874015748},{"duration":0.1327432500000043,"midi":36,"time":229.38171874218753,"velocity":0.3937007874015748},{"duration":0.1327432500000043,"midi":39,"time":229.38171874218753,"velocity":0.3937007874015748},{"duration":0.2654864999999802,"midi":80,"time":229.38171874218753,"velocity":0.3937007874015748},{"duration":0.2654864999999802,"midi":85,"time":229.38171874218753,"velocity":0.3937007874015748},{"duration":0.1327432500000043,"midi":42,"time":229.38171874218753,"velocity":0.3937007874015748},{"duration":0.2654864999999802,"midi":77,"time":229.38171874218753,"velocity":0.3937007874015748},{"duration":0.1327432499999759,"midi":56,"time":229.51446199218753,"velocity":0.3937007874015748},{"duration":0.1327432500000043,"midi":39,"time":229.6472052421875,"velocity":0.3937007874015748},{"duration":0.1327432500000043,"midi":42,"time":229.6472052421875,"velocity":0.3937007874015748},{"duration":0.1327432500000043,"midi":42,"time":229.77994849218751,"velocity":0.3937007874015748},{"duration":0.3982297500000129,"midi":85,"time":229.77994849218751,"velocity":0.3937007874015748},{"duration":0.1327432500000043,"midi":44,"time":229.77994849218751,"velocity":0.3937007874015748},{"duration":0.3982297500000129,"midi":80,"time":229.77994849218751,"velocity":0.3937007874015748},{"duration":0.3982297500000129,"midi":77,"time":229.77994849218751,"velocity":0.3937007874015748},{"duration":0.1327432500000043,"midi":42,"time":229.91269174218752,"velocity":0.3937007874015748},{"duration":0.1327432500000043,"midi":56,"time":229.91269174218752,"velocity":0.3937007874015748},{"duration":0.1327432500000043,"midi":39,"time":229.91269174218752,"velocity":0.3937007874015748},{"duration":0.1327432500000043,"midi":36,"time":229.91269174218752,"velocity":0.3937007874015748},{"duration":0.1327432500000043,"midi":44,"time":230.04543499218752,"velocity":0.3937007874015748},{"duration":0.1327432500000043,"midi":80,"time":230.17817824218753,"velocity":0.3937007874015748},{"duration":0.1327432500000043,"midi":84,"time":230.17817824218753,"velocity":0.3937007874015748},{"duration":0.1327432500000043,"midi":75,"time":230.17817824218753,"velocity":0.3937007874015748},{"duration":0.1327432500000043,"midi":46,"time":230.17817824218753,"velocity":0.3937007874015748},{"duration":0.1327432500000043,"midi":44,"time":230.17817824218753,"velocity":0.3937007874015748},{"duration":0.1327432500000043,"midi":53,"time":230.31092149218753,"velocity":0.3937007874015748},{"duration":0.1327432499999759,"midi":56,"time":230.44366474218754,"velocity":0.3937007874015748},{"duration":0.1327432499999759,"midi":36,"time":230.44366474218754,"velocity":0.3937007874015748},{"duration":0.1327432499999759,"midi":42,"time":230.44366474218754,"velocity":0.3937007874015748},{"duration":0.1327432500000043,"midi":42,"time":230.70915124218752,"velocity":0.3937007874015748},{"duration":0.1327432500000043,"midi":56,"time":230.70915124218752,"velocity":0.3937007874015748},{"duration":0.1327432500000043,"midi":44,"time":230.70915124218752,"velocity":0.3937007874015748},{"duration":0.1327432500000043,"midi":44,"time":230.84189449218752,"velocity":0.3937007874015748},{"duration":0.1327432500000043,"midi":42,"time":230.84189449218752,"velocity":0.3937007874015748},{"duration":0.1327432500000043,"midi":36,"time":230.97463774218753,"velocity":0.3937007874015748},{"duration":0.1327432500000043,"midi":39,"time":230.97463774218753,"velocity":0.3937007874015748},{"duration":0.1327432500000043,"midi":42,"time":230.97463774218753,"velocity":0.3937007874015748},{"duration":0.1327432500000043,"midi":44,"time":231.10738099218753,"velocity":0.3937007874015748},{"duration":0.1327432500000043,"midi":39,"time":231.10738099218753,"velocity":0.3937007874015748},{"duration":0.1327432500000043,"midi":56,"time":231.10738099218753,"velocity":0.3937007874015748},{"duration":0.1327432499999759,"midi":39,"time":231.24012424218753,"velocity":0.3937007874015748},{"duration":0.1327432499999759,"midi":46,"time":231.24012424218753,"velocity":0.3937007874015748},{"duration":0.1327432499999759,"midi":46,"time":231.24012424218753,"velocity":0.3937007874015748},{"duration":0.1327432500000043,"midi":39,"time":231.3728674921875,"velocity":0.3937007874015748},{"duration":0.1327432500000043,"midi":56,"time":231.3728674921875,"velocity":0.3937007874015748},{"duration":0.1327432500000043,"midi":46,"time":231.3728674921875,"velocity":0.3937007874015748},{"duration":0.1327432500000043,"midi":42,"time":231.5056107421875,"velocity":0.3937007874015748},{"duration":0.1327432500000043,"midi":56,"time":231.63835399218752,"velocity":0.3937007874015748},{"duration":0.1327432500000043,"midi":42,"time":231.77109724218752,"velocity":0.3937007874015748},{"duration":0.1327432500000043,"midi":42,"time":231.90384049218753,"velocity":0.3937007874015748},{"duration":0.1327432500000043,"midi":39,"time":232.03658374218753,"velocity":0.3937007874015748},{"duration":0.1327432500000043,"midi":42,"time":232.03658374218753,"velocity":0.3937007874015748},{"duration":0.1327432500000043,"midi":56,"time":232.03658374218753,"velocity":0.3937007874015748},{"duration":0.1327432500000043,"midi":42,"time":232.3020702421875,"velocity":0.3937007874015748},{"duration":0.1327432500000043,"midi":53,"time":232.43481349218752,"velocity":0.3937007874015748},{"duration":0.1327432500000043,"midi":42,"time":232.43481349218752,"velocity":0.3937007874015748},{"duration":0.1327432500000043,"midi":42,"time":232.56755674218752,"velocity":0.3937007874015748},{"duration":0.1327432500000043,"midi":56,"time":232.56755674218752,"velocity":0.3937007874015748},{"duration":0.1327432500000043,"midi":42,"time":232.83304324218753,"velocity":0.3937007874015748},{"duration":0.1327432499999759,"midi":56,"time":232.96578649218753,"velocity":0.3937007874015748},{"duration":0.1327432499999759,"midi":42,"time":232.96578649218753,"velocity":0.3937007874015748},{"duration":0.1327432500000043,"midi":42,"time":233.0985297421875,"velocity":0.3937007874015748},{"duration":0.1327432500000043,"midi":39,"time":233.0985297421875,"velocity":0.3937007874015748},{"duration":0.1327432500000043,"midi":53,"time":233.36401624218752,"velocity":0.3937007874015748},{"duration":0.1327432500000043,"midi":42,"time":233.36401624218752,"velocity":0.3937007874015748},{"duration":0.1327432500000043,"midi":56,"time":233.49675949218752,"velocity":0.3937007874015748},{"duration":0.1327432500000043,"midi":42,"time":233.49675949218752,"velocity":0.3937007874015748},{"duration":0.2654865000000086,"midi":77,"time":233.62950274218753,"velocity":0.3937007874015748},{"duration":0.1327432500000043,"midi":42,"time":233.62950274218753,"velocity":0.3937007874015748},{"duration":0.2654865000000086,"midi":80,"time":233.62950274218753,"velocity":0.3937007874015748},{"duration":0.2654865000000086,"midi":85,"time":233.62950274218753,"velocity":0.3937007874015748},{"duration":0.1327432500000043,"midi":56,"time":233.76224599218753,"velocity":0.3937007874015748},{"duration":0.1327432499999759,"midi":42,"time":233.89498924218753,"velocity":0.3937007874015748},{"duration":0.3982297500000129,"midi":85,"time":234.0277324921875,"velocity":0.3937007874015748},{"duration":0.1327432500000043,"midi":42,"time":234.0277324921875,"velocity":0.3937007874015748},{"duration":0.3982297500000129,"midi":80,"time":234.0277324921875,"velocity":0.3937007874015748},{"duration":0.3982297500000129,"midi":77,"time":234.0277324921875,"velocity":0.3937007874015748},{"duration":0.1327432500000043,"midi":39,"time":234.16047574218751,"velocity":0.3937007874015748},{"duration":0.1327432500000043,"midi":56,"time":234.16047574218751,"velocity":0.3937007874015748},{"duration":0.1327432500000043,"midi":42,"time":234.16047574218751,"velocity":0.3937007874015748},{"duration":0.1327432500000043,"midi":84,"time":234.42596224218752,"velocity":0.3937007874015748},{"duration":0.1327432500000043,"midi":75,"time":234.42596224218752,"velocity":0.3937007874015748},{"duration":0.1327432500000043,"midi":42,"time":234.42596224218752,"velocity":0.3937007874015748},{"duration":0.1327432500000043,"midi":80,"time":234.42596224218752,"velocity":0.3937007874015748},{"duration":0.1327432500000043,"midi":42,"time":234.55870549218753,"velocity":0.3937007874015748},{"duration":0.1327432500000043,"midi":53,"time":234.55870549218753,"velocity":0.3937007874015748},{"duration":0.1327432500000043,"midi":56,"time":234.69144874218753,"velocity":0.3937007874015748},{"duration":0.1327432500000043,"midi":42,"time":234.69144874218753,"velocity":0.3937007874015748},{"duration":0.1327432500000043,"midi":42,"time":234.9569352421875,"velocity":0.3937007874015748},{"duration":0.1327432500000043,"midi":56,"time":234.9569352421875,"velocity":0.3937007874015748},{"duration":0.1327432500000043,"midi":42,"time":235.08967849218752,"velocity":0.3937007874015748},{"duration":0.1327432500000043,"midi":42,"time":235.22242174218752,"velocity":0.3937007874015748},{"duration":0.1327432500000043,"midi":39,"time":235.22242174218752,"velocity":0.3937007874015748},{"duration":0.1327432500000043,"midi":56,"time":235.22242174218752,"velocity":0.3937007874015748},{"duration":0.1327432500000043,"midi":58,"time":235.35516499218753,"velocity":0.3937007874015748},{"duration":0.1327432500000043,"midi":46,"time":235.48790824218753,"velocity":0.3937007874015748},{"duration":0.1327432500000043,"midi":42,"time":235.7533947421875,"velocity":0.3937007874015748},{"duration":0.1327432500000043,"midi":56,"time":235.8861379921875,"velocity":0.3937007874015748},{"duration":0.1327432500000043,"midi":42,"time":236.01888124218752,"velocity":0.3937007874015748},{"duration":0.1327432500000043,"midi":42,"time":236.15162449218752,"velocity":0.3937007874015748},{"duration":0.1327432500000043,"midi":42,"time":236.28436774218753,"velocity":0.3937007874015748},{"duration":0.1327432500000043,"midi":39,"time":236.28436774218753,"velocity":0.3937007874015748},{"duration":0.1327432500000043,"midi":56,"time":236.28436774218753,"velocity":0.3937007874015748},{"duration":0.1327432499999759,"midi":42,"time":236.54985424218754,"velocity":0.3937007874015748},{"duration":0.1327432500000043,"midi":42,"time":236.6825974921875,"velocity":0.3937007874015748},{"duration":0.1327432500000043,"midi":53,"time":236.6825974921875,"velocity":0.3937007874015748},{"duration":0.1327432500000043,"midi":56,"time":236.81534074218752,"velocity":0.3937007874015748},{"duration":0.1327432500000043,"midi":42,"time":236.81534074218752,"velocity":0.3937007874015748},{"duration":0.1327432500000043,"midi":56,"time":237.08082724218752,"velocity":0.3937007874015748},{"duration":0.1327432500000043,"midi":42,"time":237.08082724218752,"velocity":0.3937007874015748},{"duration":0.1327432500000043,"midi":42,"time":237.21357049218753,"velocity":0.3937007874015748},{"duration":0.1327432499999759,"midi":42,"time":237.34631374218753,"velocity":0.3937007874015748},{"duration":0.1327432499999759,"midi":39,"time":237.34631374218753,"velocity":0.3937007874015748},{"duration":0.1327432500000043,"midi":51,"time":237.6118002421875,"velocity":0.3937007874015748},{"duration":0.1327432500000043,"midi":42,"time":237.6118002421875,"velocity":0.3937007874015748},{"duration":0.1327432500000043,"midi":53,"time":237.74454349218752,"velocity":0.3937007874015748},{"duration":0.1327432500000043,"midi":42,"time":237.74454349218752,"velocity":0.3937007874015748},{"duration":0.2654865000000086,"midi":80,"time":237.87728674218752,"velocity":0.3937007874015748},{"duration":0.1327432500000043,"midi":42,"time":237.87728674218752,"velocity":0.3937007874015748},{"duration":0.2654865000000086,"midi":77,"time":237.87728674218752,"velocity":0.3937007874015748},{"duration":0.2654865000000086,"midi":85,"time":237.87728674218752,"velocity":0.3937007874015748},{"duration":0.1327432500000043,"midi":56,"time":238.01002999218753,"velocity":0.3937007874015748},{"duration":0.1327432500000043,"midi":42,"time":238.14277324218753,"velocity":0.3937007874015748},{"duration":0.1327432499999759,"midi":42,"time":238.27551649218753,"velocity":0.3937007874015748},{"duration":0.3982297499999845,"midi":80,"time":238.27551649218753,"velocity":0.3937007874015748},{"duration":0.3982297499999845,"midi":77,"time":238.27551649218753,"velocity":0.3937007874015748},{"duration":0.3982297499999845,"midi":85,"time":238.27551649218753,"velocity":0.3937007874015748},{"duration":0.1327432500000043,"midi":39,"time":238.4082597421875,"velocity":0.3937007874015748},{"duration":0.1327432500000043,"midi":56,"time":238.4082597421875,"velocity":0.3937007874015748},{"duration":0.1327432500000043,"midi":42,"time":238.4082597421875,"velocity":0.3937007874015748},{"duration":0.1327432500000043,"midi":80,"time":238.67374624218752,"velocity":0.3937007874015748},{"duration":0.1327432500000043,"midi":84,"time":238.67374624218752,"velocity":0.3937007874015748},{"duration":0.1327432500000043,"midi":75,"time":238.67374624218752,"velocity":0.3937007874015748},{"duration":0.1327432500000043,"midi":46,"time":238.67374624218752,"velocity":0.3937007874015748},{"duration":0.1327432500000043,"midi":53,"time":238.80648949218752,"velocity":0.3937007874015748},{"duration":0.1327432500000043,"midi":56,"time":238.93923274218753,"velocity":0.3937007874015748},{"duration":0.1327432500000043,"midi":42,"time":238.93923274218753,"velocity":0.3937007874015748},{"duration":0.1327432499999759,"midi":56,"time":239.20471924218754,"velocity":0.3937007874015748},{"duration":0.1327432499999759,"midi":42,"time":239.20471924218754,"velocity":0.3937007874015748},{"duration":0.1327432500000043,"midi":42,"time":239.3374624921875,"velocity":0.3937007874015748},{"duration":0.1327432500000043,"midi":39,"time":239.47020574218752,"velocity":0.3937007874015748},{"duration":2.524887234375001,"midi":39,"time":239.60294899218752,"velocity":0.3937007874015748},{"duration":0.1327432500000043,"midi":56,"time":239.60294899218752,"velocity":0.3937007874015748},{"duration":0.26825198437501285,"midi":58,"time":239.7384577265625,"velocity":0.3937007874015748},{"duration":0.26825198437498443,"midi":82,"time":239.7467541796875,"velocity":0.3937007874015748},{"duration":0.13412599218753485,"midi":46,"time":239.7495196640625,"velocity":0.3937007874015748},{"duration":0.134125992187478,"midi":70,"time":239.75643337500003,"velocity":0.3937007874015748},{"duration":0.13412599218750643,"midi":56,"time":239.869818234375,"velocity":0.3937007874015748}]}]}
