{"tracks":[{"instrument":{"family":"piano","number":0,"name":"acoustic grand piano"},"notes":[{"duration":0.09375,"midi":88,"time":12,"velocity":0.3937007874015748},{"duration":0.09375,"midi":88,"time":12,"velocity":0.3937007874015748},{"duration":0.09375,"midi":88,"time":12.375,"velocity":0.3937007874015748},{"duration":0.09375,"midi":88,"time":12.375,"velocity":0.3937007874015748},{"duration":0.09375,"midi":88,"time":12.75,"velocity":0.3937007874015748},{"duration":0.09375,"midi":88,"time":12.75,"velocity":0.3937007874015748},{"duration":0.09375,"midi":88,"time":13.125,"velocity":0.3937007874015748},{"duration":0.09375,"midi":88,"time":13.125,"velocity":0.3937007874015748},{"duration":0.09375,"midi":88,"time":13.5,"velocity":0.3937007874015748},{"duration":0.09375,"midi":88,"time":13.5,"velocity":0.3937007874015748},{"duration":0.09375,"midi":88,"time":13.875,"velocity":0.3937007874015748},{"duration":0.09375,"midi":88,"time":13.875,"velocity":0.3937007874015748},{"duration":0.09375,"midi":88,"time":14.25,"velocity":0.3937007874015748},{"duration":0.09375,"midi":88,"time":14.25,"velocity":0.3937007874015748},{"duration":0.09375,"midi":88,"time":14.625,"velocity":0.3937007874015748},{"duration":0.09375,"midi":88,"time":14.625,"velocity":0.3937007874015748},{"duration":0.09375,"midi":88,"time":15,"velocity":0.3937007874015748},{"duration":0.09375,"midi":88,"time":15,"velocity":0.3937007874015748},{"duration":0.09375,"midi":88,"time":15.375,"velocity":0.3937007874015748},{"duration":0.09375,"midi":88,"time":15.375,"velocity":0.3937007874015748},{"duration":0.09375,"midi":88,"time":15.75,"velocity":0.3937007874015748},{"duration":0.09375,"midi":88,"time":15.75,"velocity":0.3937007874015748},{"duration":0.09375,"midi":88,"time":16.125,"velocity":0.3937007874015748},{"duration":0.09375,"midi":88,"time":16.125,"velocity":0.3937007874015748},{"duration":0.09375,"midi":88,"time":16.5,"velocity":0.3937007874015748},{"duration":0.09375,"midi":88,"time":16.5,"velocity":0.3937007874015748},{"duration":0.09375,"midi":88,"time":16.875,"velocity":0.3937007874015748},{"duration":0.09375,"midi":88,"time":16.875,"velocity":0.3937007874015748},{"duration":0.09375,"midi":88,"time":17.25,"velocity":0.3937007874015748},{"duration":0.09375,"midi":88,"time":17.25,"velocity":0.3937007874015748},{"duration":0.09375,"midi":88,"time":17.625,"velocity":0.3937007874015748},{"duration":0.09375,"midi":88,"time":17.625,"velocity":0.3937007874015748},{"duration":0.09375,"midi":88,"time":214.5,"velocity":0.3937007874015748},{"duration":0.09375,"midi":88,"time":214.6875,"velocity":0.3937007874015748},{"duration":0.09375,"midi":88,"time":214.875,"velocity":0.3937007874015748},{"duration":0.09375,"midi":88,"time":215.0625,"velocity":0.3937007874015748},{"duration":0.09375,"midi":88,"time":215.25,"velocity":0.3937007874015748},{"duration":0.09375,"midi":88,"time":215.4375,"velocity":0.3937007874015748},{"duration":0.09375,"midi":88,"time":215.625,"velocity":0.3937007874015748},{"duration":0.09375,"midi":88,"time":215.8125,"velocity":0.3937007874015748},{"duration":0.09375,"midi":88,"time":216,"velocity":0.3937007874015748},{"duration":0.09375,"midi":88,"time":216.1875,"velocity":0.3937007874015748},{"duration":0.09375,"midi":88,"time":216.375,"velocity":0.3937007874015748},{"duration":0.09375,"midi":88,"time":216.5625,"velocity":0.3937007874015748},{"duration":0.09375,"midi":88,"time":216.75,"velocity":0.3937007874015748},{"duration":0.09375,"midi":88,"time":216.9375,"velocity":0.3937007874015748},{"duration":0.09375,"midi":88,"time":217.125,"velocity":0.3937007874015748},{"duration":0.09375,"midi":88,"time":217.3125,"velocity":0.3937007874015748},{"duration":0.09375,"midi":88,"time":217.5,"velocity":0.3937007874015748},{"duration":0.09375,"midi":88,"time":238.5,"velocity":0.3937007874015748},{"duration":0.09375,"midi":88,"time":238.6875,"velocity":0.3937007874015748},{"duration":0.09375,"midi":88,"time":238.875,"velocity":0.3937007874015748},{"duration":0.09375,"midi":88,"time":239.0625,"velocity":0.3937007874015748},{"duration":0.09375,"midi":88,"time":239.25,"velocity":0.3937007874015748},{"duration":0.09375,"midi":88,"time":239.4375,"velocity":0.3937007874015748},{"duration":0.09375,"midi":88,"time":239.625,"velocity":0.3937007874015748},{"duration":0.09375,"midi":88,"time":239.8125,"velocity":0.3937007874015748},{"duration":0.09375,"midi":88,"time":240,"velocity":0.3937007874015748},{"duration":0.75,"midi":84,"time":244.5,"velocity":0.3937007874015748},{"duration":0.75,"midi":84,"time":244.5,"velocity":0.3937007874015748},{"duration":0.1875,"midi":90,"time":498,"velocity":0.3937007874015748},{"duration":0.1875,"midi":89,"time":498.375,"velocity":0.3937007874015748},{"duration":0.1875,"midi":87,"time":498.75,"velocity":0.3937007874015748},{"duration":0.1875,"midi":85,"time":499.125,"velocity":0.3937007874015748},{"duration":0.1875,"midi":84,"time":499.5,"velocity":0.3937007874015748},{"duration":0.1875,"midi":82,"time":499.875,"velocity":0.3937007874015748},{"duration":0.1875,"midi":81,"time":500.25,"velocity":0.3937007874015748},{"duration":0.1875,"midi":84,"time":500.625,"velocity":0.3937007874015748},{"duration":0.1875,"midi":82,"time":501,"velocity":0.3937007874015748}]},{"instrument":{"family":"piano","number":0,"name":"acoustic grand piano"},"notes":[{"duration":0.375,"midi":76,"time":300,"velocity":0.3937007874015748},{"duration":0.375,"midi":64,"time":300,"velocity":0.3937007874015748},{"duration":0.375,"midi":60,"time":300.375,"velocity":0.3937007874015748},{"duration":0.375,"midi":72,"time":300.375,"velocity":0.3937007874015748},{"duration":0.375,"midi":69,"time":300.75,"velocity":0.3937007874015748},{"duration":0.375,"midi":57,"time":300.75,"velocity":0.3937007874015748},{"duration":0.375,"midi":52,"time":301.125,"velocity":0.3937007874015748},{"duration":0.375,"midi":64,"time":301.125,"velocity":0.3937007874015748},{"duration":0.375,"midi":60,"time":301.5,"velocity":0.3937007874015748},{"duration":0.375,"midi":48,"time":301.5,"velocity":0.3937007874015748},{"duration":0.375,"midi":57,"time":301.875,"velocity":0.3937007874015748},{"duration":0.375,"midi":45,"time":301.875,"velocity":0.3937007874015748},{"duration":0.375,"midi":52,"time":302.25,"velocity":0.3937007874015748},{"duration":0.375,"midi":40,"time":302.25,"velocity":0.3937007874015748},{"duration":0.375,"midi":36,"time":302.625,"velocity":0.3937007874015748},{"duration":0.375,"midi":48,"time":302.625,"velocity":0.3937007874015748},{"duration":0.375,"midi":45,"time":303,"velocity":0.3937007874015748},{"duration":0.375,"midi":33,"time":303,"velocity":0.3937007874015748},{"duration":0.375,"midi":36,"time":303.375,"velocity":0.3937007874015748},{"duration":0.375,"midi":48,"time":303.375,"velocity":0.3937007874015748},{"duration":0.375,"midi":52,"time":303.75,"velocity":0.3937007874015748},{"duration":0.375,"midi":40,"time":303.75,"velocity":0.3937007874015748},{"duration":0.375,"midi":45,"time":304.125,"velocity":0.3937007874015748},{"duration":0.375,"midi":57,"time":304.125,"velocity":0.3937007874015748},{"duration":0.375,"midi":60,"time":304.5,"velocity":0.3937007874015748},{"duration":0.375,"midi":48,"time":304.5,"velocity":0.3937007874015748},{"duration":0.375,"midi":64,"time":304.875,"velocity":0.3937007874015748},{"duration":0.375,"midi":52,"time":304.875,"velocity":0.3937007874015748},{"duration":0.375,"midi":57,"time":305.25,"velocity":0.3937007874015748},{"duration":0.375,"midi":69,"time":305.25,"velocity":0.3937007874015748},{"duration":0.375,"midi":60,"time":305.625,"velocity":0.3937007874015748},{"duration":0.375,"midi":72,"time":305.625,"velocity":0.3937007874015748},{"duration":0.375,"midi":64,"time":306,"velocity":0.3937007874015748},{"duration":0.375,"midi":76,"time":306,"velocity":0.3937007874015748},{"duration":0.375,"midi":72,"time":306.375,"velocity":0.3937007874015748},{"duration":0.375,"midi":60,"time":306.375,"velocity":0.3937007874015748},{"duration":0.375,"midi":69,"time":306.75,"velocity":0.3937007874015748},{"duration":0.375,"midi":57,"time":306.75,"velocity":0.3937007874015748},{"duration":0.375,"midi":64,"time":307.125,"velocity":0.3937007874015748},{"duration":0.375,"midi":52,"time":307.125,"velocity":0.3937007874015748},{"duration":0.375,"midi":60,"time":307.5,"velocity":0.3937007874015748},{"duration":0.375,"midi":48,"time":307.5,"velocity":0.3937007874015748},{"duration":0.375,"midi":57,"time":307.875,"velocity":0.3937007874015748},{"duration":0.375,"midi":45,"time":307.875,"velocity":0.3937007874015748},{"duration":0.375,"midi":52,"time":308.25,"velocity":0.3937007874015748},{"duration":0.375,"midi":40,"time":308.25,"velocity":0.3937007874015748},{"duration":0.375,"midi":48,"time":308.625,"velocity":0.3937007874015748},{"duration":0.375,"midi":36,"time":308.625,"velocity":0.3937007874015748},{"duration":0.375,"midi":45,"time":309,"velocity":0.3937007874015748},{"duration":0.375,"midi":33,"time":309,"velocity":0.3937007874015748},{"duration":0.375,"midi":36,"time":309.375,"velocity":0.3937007874015748},{"duration":0.375,"midi":48,"time":309.375,"velocity":0.3937007874015748},{"duration":0.375,"midi":52,"time":309.75,"velocity":0.3937007874015748},{"duration":0.375,"midi":40,"time":309.75,"velocity":0.3937007874015748},{"duration":0.375,"midi":45,"time":310.125,"velocity":0.3937007874015748},{"duration":0.375,"midi":57,"time":310.125,"velocity":0.3937007874015748},{"duration":0.375,"midi":48,"time":310.5,"velocity":0.3937007874015748},{"duration":0.375,"midi":60,"time":310.5,"velocity":0.3937007874015748},{"duration":0.375,"midi":64,"time":310.875,"velocity":0.3937007874015748},{"duration":0.375,"midi":52,"time":310.875,"velocity":0.3937007874015748},{"duration":0.375,"midi":57,"time":311.25,"velocity":0.3937007874015748},{"duration":0.375,"midi":69,"time":311.25,"velocity":0.3937007874015748},{"duration":0.375,"midi":60,"time":311.625,"velocity":0.3937007874015748},{"duration":0.375,"midi":72,"time":311.625,"velocity":0.3937007874015748},{"duration":0.375,"midi":76,"time":312,"velocity":0.3937007874015748},{"duration":0.375,"midi":64,"time":312,"velocity":0.3937007874015748},{"duration":0.375,"midi":59,"time":312.375,"velocity":0.3937007874015748},{"duration":0.375,"midi":71,"time":312.375,"velocity":0.3937007874015748},{"duration":0.375,"midi":56,"time":312.75,"velocity":0.3937007874015748},{"duration":0.375,"midi":68,"time":312.75,"velocity":0.3937007874015748},{"duration":0.375,"midi":52,"time":313.125,"velocity":0.3937007874015748},{"duration":0.375,"midi":64,"time":313.125,"velocity":0.3937007874015748},{"duration":0.375,"midi":59,"time":313.5,"velocity":0.3937007874015748},{"duration":0.375,"midi":47,"time":313.5,"velocity":0.3937007874015748},{"duration":0.375,"midi":56,"time":313.875,"velocity":0.3937007874015748},{"duration":0.375,"midi":44,"time":313.875,"velocity":0.3937007874015748},{"duration":0.375,"midi":40,"time":314.25,"velocity":0.3937007874015748},{"duration":0.375,"midi":52,"time":314.25,"velocity":0.3937007874015748},{"duration":0.375,"midi":35,"time":314.625,"velocity":0.3937007874015748},{"duration":0.375,"midi":47,"time":314.625,"velocity":0.3937007874015748},{"duration":0.375,"midi":45,"time":315,"velocity":0.3937007874015748},{"duration":0.375,"midi":33,"time":315,"velocity":0.3937007874015748},{"duration":0.375,"midi":36,"time":315.375,"velocity":0.3937007874015748},{"duration":0.375,"midi":48,"time":315.375,"velocity":0.3937007874015748},{"duration":0.375,"midi":40,"time":315.75,"velocity":0.3937007874015748},{"duration":0.375,"midi":52,"time":315.75,"velocity":0.3937007874015748},{"duration":0.375,"midi":45,"time":316.125,"velocity":0.3937007874015748},{"duration":0.375,"midi":57,"time":316.125,"velocity":0.3937007874015748},{"duration":0.375,"midi":60,"time":316.5,"velocity":0.3937007874015748},{"duration":0.375,"midi":48,"time":316.5,"velocity":0.3937007874015748},{"duration":0.375,"midi":52,"time":316.875,"velocity":0.3937007874015748},{"duration":0.375,"midi":64,"time":316.875,"velocity":0.3937007874015748},{"duration":0.375,"midi":57,"time":317.25,"velocity":0.3937007874015748},{"duration":0.375,"midi":69,"time":317.25,"velocity":0.3937007874015748},{"duration":0.375,"midi":60,"time":317.625,"velocity":0.3937007874015748},{"duration":0.375,"midi":72,"time":317.625,"velocity":0.3937007874015748},{"duration":0.375,"midi":75,"time":318,"velocity":0.3937007874015748},{"duration":0.375,"midi":63,"time":318,"velocity":0.3937007874015748},{"duration":0.375,"midi":59,"time":318.375,"velocity":0.3937007874015748},{"duration":0.375,"midi":71,"time":318.375,"velocity":0.3937007874015748},{"duration":0.375,"midi":66,"time":318.75,"velocity":0.3937007874015748},{"duration":0.375,"midi":54,"time":318.75,"velocity":0.3937007874015748},{"duration":0.375,"midi":51,"time":319.125,"velocity":0.3937007874015748},{"duration":0.375,"midi":63,"time":319.125,"velocity":0.3937007874015748},{"duration":0.375,"midi":59,"time":319.5,"velocity":0.3937007874015748},{"duration":0.375,"midi":47,"time":319.5,"velocity":0.3937007874015748},{"duration":0.375,"midi":54,"time":319.875,"velocity":0.3937007874015748},{"duration":0.375,"midi":42,"time":319.875,"velocity":0.3937007874015748},{"duration":0.375,"midi":51,"time":320.25,"velocity":0.3937007874015748},{"duration":0.375,"midi":39,"time":320.25,"velocity":0.3937007874015748},{"duration":0.375,"midi":54,"time":320.625,"velocity":0.3937007874015748},{"duration":0.375,"midi":35,"time":320.625,"velocity":0.3937007874015748},{"duration":0.375,"midi":42,"time":320.625,"velocity":0.3937007874015748},{"duration":0.375,"midi":47,"time":320.625,"velocity":0.3937007874015748},{"duration":0.375,"midi":56,"time":321,"velocity":0.3937007874015748},{"duration":0.375,"midi":32,"time":321,"velocity":0.3937007874015748},{"duration":0.375,"midi":44,"time":321,"velocity":0.3937007874015748},{"duration":0.375,"midi":76,"time":324,"velocity":0.3937007874015748},{"duration":0.375,"midi":64,"time":324,"velocity":0.3937007874015748},{"duration":0.375,"midi":60,"time":324.375,"velocity":0.3937007874015748},{"duration":0.375,"midi":72,"time":324.375,"velocity":0.3937007874015748},{"duration":0.375,"midi":57,"time":324.75,"velocity":0.3937007874015748},{"duration":0.375,"midi":69,"time":324.75,"velocity":0.3937007874015748},{"duration":0.375,"midi":52,"time":325.125,"velocity":0.3937007874015748},{"duration":0.375,"midi":64,"time":325.125,"velocity":0.3937007874015748},{"duration":0.375,"midi":48,"time":325.5,"velocity":0.3937007874015748},{"duration":0.375,"midi":60,"time":325.5,"velocity":0.3937007874015748},{"duration":0.375,"midi":45,"time":325.875,"velocity":0.3937007874015748},{"duration":0.375,"midi":57,"time":325.875,"velocity":0.3937007874015748},{"duration":0.375,"midi":52,"time":326.25,"velocity":0.3937007874015748},{"duration":0.375,"midi":40,"time":326.25,"velocity":0.3937007874015748},{"duration":0.375,"midi":36,"time":326.625,"velocity":0.3937007874015748},{"duration":0.375,"midi":48,"time":326.625,"velocity":0.3937007874015748},{"duration":0.375,"midi":45,"time":327,"velocity":0.3937007874015748},{"duration":0.375,"midi":33,"time":327,"velocity":0.3937007874015748},{"duration":0.375,"midi":48,"time":327.375,"velocity":0.3937007874015748},{"duration":0.375,"midi":36,"time":327.375,"velocity":0.3937007874015748},{"duration":0.375,"midi":40,"time":327.75,"velocity":0.3937007874015748},{"duration":0.375,"midi":52,"time":327.75,"velocity":0.3937007874015748},{"duration":0.375,"midi":45,"time":328.125,"velocity":0.3937007874015748},{"duration":0.375,"midi":57,"time":328.125,"velocity":0.3937007874015748},{"duration":0.375,"midi":60,"time":328.5,"velocity":0.3937007874015748},{"duration":0.375,"midi":48,"time":328.5,"velocity":0.3937007874015748},{"duration":0.375,"midi":52,"time":328.875,"velocity":0.3937007874015748},{"duration":0.375,"midi":64,"time":328.875,"velocity":0.3937007874015748},{"duration":0.375,"midi":57,"time":329.25,"velocity":0.3937007874015748},{"duration":0.375,"midi":69,"time":329.25,"velocity":0.3937007874015748},{"duration":0.375,"midi":60,"time":329.625,"velocity":0.3937007874015748},{"duration":0.375,"midi":72,"time":329.625,"velocity":0.3937007874015748},{"duration":0.375,"midi":76,"time":330,"velocity":0.3937007874015748},{"duration":0.375,"midi":64,"time":330,"velocity":0.3937007874015748},{"duration":0.375,"midi":72,"time":330.375,"velocity":0.3937007874015748},{"duration":0.375,"midi":60,"time":330.375,"velocity":0.3937007874015748},{"duration":0.375,"midi":69,"time":330.75,"velocity":0.3937007874015748},{"duration":0.375,"midi":57,"time":330.75,"velocity":0.3937007874015748},{"duration":0.375,"midi":52,"time":331.125,"velocity":0.3937007874015748},{"duration":0.375,"midi":64,"time":331.125,"velocity":0.3937007874015748},{"duration":0.375,"midi":48,"time":331.5,"velocity":0.3937007874015748},{"duration":0.375,"midi":60,"time":331.5,"velocity":0.3937007874015748},{"duration":0.375,"midi":45,"time":331.875,"velocity":0.3937007874015748},{"duration":0.375,"midi":57,"time":331.875,"velocity":0.3937007874015748},{"duration":0.375,"midi":52,"time":332.25,"velocity":0.3937007874015748},{"duration":0.375,"midi":40,"time":332.25,"velocity":0.3937007874015748},{"duration":0.375,"midi":36,"time":332.625,"velocity":0.3937007874015748},{"duration":0.375,"midi":48,"time":332.625,"velocity":0.3937007874015748},{"duration":0.375,"midi":33,"time":333,"velocity":0.3937007874015748},{"duration":0.375,"midi":45,"time":333,"velocity":0.3937007874015748},{"duration":0.375,"midi":48,"time":333.375,"velocity":0.3937007874015748},{"duration":0.375,"midi":36,"time":333.375,"velocity":0.3937007874015748},{"duration":0.375,"midi":40,"time":333.75,"velocity":0.3937007874015748},{"duration":0.375,"midi":52,"time":333.75,"velocity":0.3937007874015748},{"duration":0.375,"midi":57,"time":334.125,"velocity":0.3937007874015748},{"duration":0.375,"midi":45,"time":334.125,"velocity":0.3937007874015748},{"duration":0.375,"midi":60,"time":334.5,"velocity":0.3937007874015748},{"duration":0.375,"midi":48,"time":334.5,"velocity":0.3937007874015748},{"duration":0.375,"midi":52,"time":334.875,"velocity":0.3937007874015748},{"duration":0.375,"midi":64,"time":334.875,"velocity":0.3937007874015748},{"duration":0.375,"midi":57,"time":335.25,"velocity":0.3937007874015748},{"duration":0.375,"midi":69,"time":335.25,"velocity":0.3937007874015748},{"duration":0.375,"midi":60,"time":335.625,"velocity":0.3937007874015748},{"duration":0.375,"midi":72,"time":335.625,"velocity":0.3937007874015748},{"duration":0.375,"midi":65,"time":336,"velocity":0.3937007874015748},{"duration":0.375,"midi":77,"time":336,"velocity":0.3937007874015748},{"duration":0.375,"midi":74,"time":336.375,"velocity":0.3937007874015748},{"duration":0.375,"midi":62,"time":336.375,"velocity":0.3937007874015748},{"duration":0.375,"midi":57,"time":336.75,"velocity":0.3937007874015748},{"duration":0.375,"midi":69,"time":336.75,"velocity":0.3937007874015748},{"duration":0.375,"midi":53,"time":337.125,"velocity":0.3937007874015748},{"duration":0.375,"midi":65,"time":337.125,"velocity":0.3937007874015748},{"duration":0.375,"midi":64,"time":337.5,"velocity":0.3937007874015748},{"duration":0.375,"midi":52,"time":337.5,"velocity":0.3937007874015748},{"duration":0.375,"midi":60,"time":337.875,"velocity":0.3937007874015748},{"duration":0.375,"midi":48,"time":337.875,"velocity":0.3937007874015748},{"duration":0.375,"midi":57,"time":338.25,"velocity":0.3937007874015748},{"duration":0.375,"midi":45,"time":338.25,"velocity":0.3937007874015748},{"duration":0.375,"midi":40,"time":338.625,"velocity":0.3937007874015748},{"duration":0.375,"midi":52,"time":338.625,"velocity":0.3937007874015748},{"duration":0.375,"midi":47,"time":339,"velocity":0.3937007874015748},{"duration":0.375,"midi":35,"time":339,"velocity":0.3937007874015748},{"duration":0.375,"midi":40,"time":339.375,"velocity":0.3937007874015748},{"duration":0.375,"midi":52,"time":339.375,"velocity":0.3937007874015748},{"duration":0.375,"midi":44,"time":339.75,"velocity":0.3937007874015748},{"duration":0.375,"midi":56,"time":339.75,"velocity":0.3937007874015748},{"duration":0.375,"midi":59,"time":340.125,"velocity":0.3937007874015748},{"duration":0.375,"midi":47,"time":340.125,"velocity":0.3937007874015748},{"duration":0.375,"midi":48,"time":340.5,"velocity":0.3937007874015748},{"duration":0.375,"midi":60,"time":340.5,"velocity":0.3937007874015748},{"duration":0.375,"midi":64,"time":340.875,"velocity":0.3937007874015748},{"duration":0.375,"midi":52,"time":340.875,"velocity":0.3937007874015748},{"duration":0.375,"midi":64,"time":340.875,"velocity":0.3937007874015748},{"duration":0.375,"midi":52,"time":340.875,"velocity":0.3937007874015748},{"duration":0.375,"midi":69,"time":341.25,"velocity":0.3937007874015748},{"duration":0.375,"midi":57,"time":341.25,"velocity":0.3937007874015748},{"duration":0.375,"midi":69,"time":341.25,"velocity":0.3937007874015748},{"duration":0.375,"midi":57,"time":341.25,"velocity":0.3937007874015748},{"duration":0.375,"midi":72,"time":341.625,"velocity":0.3937007874015748},{"duration":0.375,"midi":60,"time":341.625,"velocity":0.3937007874015748},{"duration":0.375,"midi":72,"time":341.625,"velocity":0.3937007874015748},{"duration":0.375,"midi":60,"time":341.625,"velocity":0.3937007874015748},{"duration":0.375,"midi":63,"time":342,"velocity":0.3937007874015748},{"duration":0.375,"midi":75,"time":342,"velocity":0.3937007874015748},{"duration":0.375,"midi":63,"time":342,"velocity":0.3937007874015748},{"duration":0.375,"midi":75,"time":342,"velocity":0.3937007874015748},{"duration":0.375,"midi":59,"time":342.375,"velocity":0.3937007874015748},{"duration":0.375,"midi":59,"time":342.375,"velocity":0.3937007874015748},{"duration":0.375,"midi":71,"time":342.375,"velocity":0.3937007874015748},{"duration":0.375,"midi":71,"time":342.375,"velocity":0.3937007874015748},{"duration":0.375,"midi":68,"time":342.75,"velocity":0.3937007874015748},{"duration":0.375,"midi":42,"time":342.75,"velocity":0.3937007874015748},{"duration":0.375,"midi":50,"time":342.75,"velocity":0.3937007874015748},{"duration":0.375,"midi":30,"time":342.75,"velocity":0.3937007874015748},{"duration":0.375,"midi":42,"time":342.75,"velocity":0.3937007874015748},{"duration":0.375,"midi":40,"time":342.75,"velocity":0.3937007874015748},{"duration":0.375,"midi":56,"time":342.75,"velocity":0.3937007874015748},{"duration":0.375,"midi":64,"time":343.125,"velocity":0.3937007874015748},{"duration":0.375,"midi":52,"time":343.125,"velocity":0.3937007874015748},{"duration":0.375,"midi":59,"time":343.5,"velocity":0.3937007874015748},{"duration":0.375,"midi":47,"time":343.5,"velocity":0.3937007874015748},{"duration":0.375,"midi":44,"time":343.875,"velocity":0.3937007874015748},{"duration":0.375,"midi":56,"time":343.875,"velocity":0.3937007874015748},{"duration":0.375,"midi":40,"time":344.25,"velocity":0.3937007874015748},{"duration":0.375,"midi":50,"time":344.25,"velocity":0.3937007874015748},{"duration":0.375,"midi":44,"time":344.25,"velocity":0.3937007874015748},{"duration":0.375,"midi":47,"time":344.625,"velocity":0.3937007874015748},{"duration":0.375,"midi":35,"time":344.625,"velocity":0.3937007874015748},{"duration":0.375,"midi":48,"time":345,"velocity":0.3937007874015748},{"duration":0.375,"midi":33,"time":345,"velocity":0.3937007874015748},{"duration":0.375,"midi":45,"time":345,"velocity":0.3937007874015748},{"duration":0.375,"midi":83,"time":369,"velocity":0.3937007874015748},{"duration":0.375,"midi":31,"time":369,"velocity":0.3937007874015748},{"duration":0.375,"midi":84,"time":369,"velocity":0.3937007874015748},{"duration":0.375,"midi":86,"time":369,"velocity":0.3937007874015748},{"duration":0.375,"midi":57,"time":369,"velocity":0.3937007874015748},{"duration":0.375,"midi":85,"time":369,"velocity":0.3937007874015748},{"duration":0.375,"midi":38,"time":369,"velocity":0.3937007874015748},{"duration":0.375,"midi":56,"time":369,"velocity":0.3937007874015748},{"duration":0.375,"midi":87,"time":369,"velocity":0.3937007874015748},{"duration":0.375,"midi":90,"time":369,"velocity":0.3937007874015748},{"duration":0.375,"midi":74,"time":369,"velocity":0.3937007874015748},{"duration":0.375,"midi":72,"time":369,"velocity":0.3937007874015748},{"duration":0.375,"midi":93,"time":369,"velocity":0.3937007874015748},{"duration":0.375,"midi":91,"time":369,"velocity":0.3937007874015748},{"duration":0.375,"midi":75,"time":369,"velocity":0.3937007874015748},{"duration":0.375,"midi":70,"time":369,"velocity":0.3937007874015748},{"duration":0.375,"midi":69,"time":369,"velocity":0.3937007874015748},{"duration":0.375,"midi":82,"time":369,"velocity":0.3937007874015748},{"duration":0.375,"midi":48,"time":369,"velocity":0.3937007874015748},{"duration":0.375,"midi":79,"time":369,"velocity":0.3937007874015748},{"duration":0.375,"midi":37,"time":369,"velocity":0.3937007874015748},{"duration":0.375,"midi":81,"time":369,"velocity":0.3937007874015748},{"duration":0.375,"midi":47,"time":369,"velocity":0.3937007874015748},{"duration":0.375,"midi":40,"time":369,"velocity":0.3937007874015748},{"duration":0.375,"midi":30,"time":369,"velocity":0.3937007874015748},{"duration":0.375,"midi":46,"time":369,"velocity":0.3937007874015748},{"duration":0.375,"midi":95,"time":369,"velocity":0.3937007874015748},{"duration":0.375,"midi":67,"time":369,"velocity":0.3937007874015748},{"duration":0.375,"midi":62,"time":369,"velocity":0.3937007874015748},{"duration":0.375,"midi":63,"time":369,"velocity":0.3937007874015748},{"duration":0.375,"midi":51,"time":369,"velocity":0.3937007874015748},{"duration":0.375,"midi":80,"time":369,"velocity":0.3937007874015748},{"duration":0.375,"midi":88,"time":369,"velocity":0.3937007874015748},{"duration":0.375,"midi":32,"time":369,"velocity":0.3937007874015748},{"duration":0.375,"midi":41,"time":369,"velocity":0.3937007874015748},{"duration":0.375,"midi":42,"time":369,"velocity":0.3937007874015748},{"duration":0.375,"midi":35,"time":369,"velocity":0.3937007874015748},{"duration":0.375,"midi":78,"time":369,"velocity":0.3937007874015748},{"duration":0.375,"midi":50,"time":369,"velocity":0.3937007874015748},{"duration":0.375,"midi":24,"time":369,"velocity":0.3937007874015748},{"duration":0.375,"midi":94,"time":369,"velocity":0.3937007874015748},{"duration":0.375,"midi":52,"time":369,"velocity":0.3937007874015748},{"duration":0.375,"midi":49,"time":369,"velocity":0.3937007874015748},{"duration":0.375,"midi":33,"time":369,"velocity":0.3937007874015748},{"duration":0.375,"midi":59,"time":369,"velocity":0.3937007874015748},{"duration":0.375,"midi":71,"time":369,"velocity":0.3937007874015748},{"duration":0.375,"midi":36,"time":369,"velocity":0.3937007874015748},{"duration":0.375,"midi":53,"time":369,"velocity":0.3937007874015748},{"duration":0.375,"midi":34,"time":369,"velocity":0.3937007874015748},{"duration":0.375,"midi":73,"time":369,"velocity":0.3937007874015748},{"duration":0.375,"midi":89,"time":369,"velocity":0.3937007874015748},{"duration":0.375,"midi":26,"time":369,"velocity":0.3937007874015748},{"duration":0.375,"midi":43,"time":369,"velocity":0.3937007874015748},{"duration":0.375,"midi":68,"time":369,"velocity":0.3937007874015748},{"duration":0.375,"midi":60,"time":369,"velocity":0.3937007874015748},{"duration":0.375,"midi":54,"time":369,"velocity":0.3937007874015748},{"duration":0.375,"midi":28,"time":369,"velocity":0.3937007874015748},{"duration":0.375,"midi":29,"time":369,"velocity":0.3937007874015748},{"duration":0.375,"midi":58,"time":369,"velocity":0.3937007874015748},{"duration":0.375,"midi":65,"time":369,"velocity":0.3937007874015748},{"duration":0.375,"midi":39,"time":369,"velocity":0.3937007874015748},{"duration":0.375,"midi":92,"time":369,"velocity":0.3937007874015748},{"duration":0.375,"midi":76,"time":369,"velocity":0.3937007874015748},{"duration":0.375,"midi":45,"time":369,"velocity":0.3937007874015748},{"duration":0.375,"midi":27,"time":369,"velocity":0.3937007874015748},{"duration":0.375,"midi":66,"time":369,"velocity":0.3937007874015748},{"duration":0.375,"midi":61,"time":369,"velocity":0.3937007874015748},{"duration":0.375,"midi":25,"time":369,"velocity":0.3937007874015748},{"duration":0.375,"midi":55,"time":369,"velocity":0.3937007874015748},{"duration":0.375,"midi":44,"time":369,"velocity":0.3937007874015748},{"duration":0.375,"midi":77,"time":369,"velocity":0.3937007874015748},{"duration":0.375,"midi":64,"time":369,"velocity":0.3937007874015748},{"duration":0.375,"midi":73,"time":369.75,"velocity":0.3937007874015748},{"duration":0.375,"midi":80,"time":369.75,"velocity":0.3937007874015748},{"duration":0.375,"midi":82,"time":369.75,"velocity":0.3937007874015748},{"duration":0.375,"midi":83,"time":369.75,"velocity":0.3937007874015748},{"duration":0.375,"midi":34,"time":369.75,"velocity":0.3937007874015748},{"duration":0.375,"midi":86,"time":369.75,"velocity":0.3937007874015748},{"duration":0.375,"midi":66,"time":369.75,"velocity":0.3937007874015748},{"duration":0.375,"midi":95,"time":369.75,"velocity":0.3937007874015748},{"duration":0.375,"midi":54,"time":369.75,"velocity":0.3937007874015748},{"duration":0.375,"midi":84,"time":369.75,"velocity":0.3937007874015748},{"duration":0.375,"midi":59,"time":369.75,"velocity":0.3937007874015748},{"duration":0.375,"midi":87,"time":369.75,"velocity":0.3937007874015748},{"duration":0.375,"midi":60,"time":369.75,"velocity":0.3937007874015748},{"duration":0.375,"midi":81,"time":369.75,"velocity":0.3937007874015748},{"duration":0.375,"midi":70,"time":369.75,"velocity":0.3937007874015748},{"duration":0.375,"midi":57,"time":369.75,"velocity":0.3937007874015748},{"duration":0.375,"midi":85,"time":369.75,"velocity":0.3937007874015748},{"duration":0.375,"midi":58,"time":369.75,"velocity":0.3937007874015748},{"duration":0.375,"midi":88,"time":369.75,"velocity":0.3937007874015748},{"duration":0.375,"midi":33,"time":369.75,"velocity":0.3937007874015748},{"duration":0.375,"midi":78,"time":369.75,"velocity":0.3937007874015748},{"duration":0.375,"midi":36,"time":369.75,"velocity":0.3937007874015748},{"duration":0.375,"midi":63,"time":369.75,"velocity":0.3937007874015748},{"duration":0.375,"midi":94,"time":369.75,"velocity":0.3937007874015748},{"duration":0.375,"midi":50,"time":369.75,"velocity":0.3937007874015748},{"duration":0.375,"midi":92,"time":369.75,"velocity":0.3937007874015748},{"duration":0.375,"midi":69,"time":369.75,"velocity":0.3937007874015748},{"duration":0.375,"midi":52,"time":369.75,"velocity":0.3937007874015748},{"duration":0.375,"midi":49,"time":369.75,"velocity":0.3937007874015748},{"duration":0.375,"midi":90,"time":369.75,"velocity":0.3937007874015748},{"duration":0.375,"midi":64,"time":369.75,"velocity":0.3937007874015748},{"duration":0.375,"midi":53,"time":369.75,"velocity":0.3937007874015748},{"duration":0.375,"midi":91,"time":369.75,"velocity":0.3937007874015748},{"duration":0.375,"midi":65,"time":369.75,"velocity":0.3937007874015748},{"duration":0.375,"midi":56,"time":369.75,"velocity":0.3937007874015748},{"duration":0.375,"midi":28,"time":369.75,"velocity":0.3937007874015748},{"duration":0.375,"midi":29,"time":369.75,"velocity":0.3937007874015748},{"duration":0.375,"midi":75,"time":369.75,"velocity":0.3937007874015748},{"duration":0.375,"midi":40,"time":369.75,"velocity":0.3937007874015748},{"duration":0.375,"midi":93,"time":369.75,"velocity":0.3937007874015748},{"duration":0.375,"midi":37,"time":369.75,"velocity":0.3937007874015748},{"duration":0.375,"midi":35,"time":369.75,"velocity":0.3937007874015748},{"duration":0.375,"midi":24,"time":369.75,"velocity":0.3937007874015748},{"duration":0.375,"midi":30,"time":369.75,"velocity":0.3937007874015748},{"duration":0.375,"midi":41,"time":369.75,"velocity":0.3937007874015748},{"duration":0.375,"midi":32,"time":369.75,"velocity":0.3937007874015748},{"duration":0.375,"midi":77,"time":369.75,"velocity":0.3937007874015748},{"duration":0.375,"midi":51,"time":369.75,"velocity":0.3937007874015748},{"duration":0.375,"midi":42,"time":369.75,"velocity":0.3937007874015748},{"duration":0.375,"midi":76,"time":369.75,"velocity":0.3937007874015748},{"duration":0.375,"midi":55,"time":369.75,"velocity":0.3937007874015748},{"duration":0.375,"midi":62,"time":369.75,"velocity":0.3937007874015748},{"duration":0.375,"midi":43,"time":369.75,"velocity":0.3937007874015748},{"duration":0.375,"midi":31,"time":369.75,"velocity":0.3937007874015748},{"duration":0.375,"midi":74,"time":369.75,"velocity":0.3937007874015748},{"duration":0.375,"midi":39,"time":369.75,"velocity":0.3937007874015748},{"duration":0.375,"midi":48,"time":369.75,"velocity":0.3937007874015748},{"duration":0.375,"midi":89,"time":369.75,"velocity":0.3937007874015748},{"duration":0.375,"midi":67,"time":369.75,"velocity":0.3937007874015748},{"duration":0.375,"midi":47,"time":369.75,"velocity":0.3937007874015748},{"duration":0.375,"midi":61,"time":369.75,"velocity":0.3937007874015748},{"duration":0.375,"midi":79,"time":369.75,"velocity":0.3937007874015748},{"duration":0.375,"midi":45,"time":369.75,"velocity":0.3937007874015748},{"duration":0.375,"midi":38,"time":369.75,"velocity":0.3937007874015748},{"duration":0.375,"midi":72,"time":369.75,"velocity":0.3937007874015748},{"duration":0.375,"midi":25,"time":369.75,"velocity":0.3937007874015748},{"duration":0.375,"midi":68,"time":369.75,"velocity":0.3937007874015748},{"duration":0.375,"midi":44,"time":369.75,"velocity":0.3937007874015748},{"duration":0.375,"midi":71,"time":369.75,"velocity":0.3937007874015748},{"duration":0.375,"midi":27,"time":369.75,"velocity":0.3937007874015748},{"duration":0.375,"midi":46,"time":369.75,"velocity":0.3937007874015748},{"duration":0.375,"midi":26,"time":369.75,"velocity":0.3937007874015748},{"duration":0.375,"midi":94,"time":370.5,"velocity":0.3937007874015748},{"duration":0.375,"midi":92,"time":370.5,"velocity":0.3937007874015748},{"duration":0.375,"midi":85,"time":370.5,"velocity":0.3937007874015748},{"duration":0.375,"midi":95,"time":370.5,"velocity":0.3937007874015748},{"duration":0.375,"midi":44,"time":370.5,"velocity":0.3937007874015748},{"duration":0.375,"midi":48,"time":370.5,"velocity":0.3937007874015748},{"duration":0.375,"midi":93,"time":370.5,"velocity":0.3937007874015748},{"duration":0.375,"midi":89,"time":370.5,"velocity":0.3937007874015748},{"duration":0.375,"midi":51,"time":370.5,"velocity":0.3937007874015748},{"duration":0.375,"midi":68,"time":370.5,"velocity":0.3937007874015748},{"duration":0.375,"midi":37,"time":370.5,"velocity":0.3937007874015748},{"duration":0.375,"midi":84,"time":370.5,"velocity":0.3937007874015748},{"duration":0.375,"midi":45,"time":370.5,"velocity":0.3937007874015748},{"duration":0.375,"midi":87,"time":370.5,"velocity":0.3937007874015748},{"duration":0.375,"midi":25,"time":370.5,"velocity":0.3937007874015748},{"duration":0.375,"midi":86,"time":370.5,"velocity":0.3937007874015748},{"duration":0.375,"midi":41,"time":370.5,"velocity":0.3937007874015748},{"duration":0.375,"midi":88,"time":370.5,"velocity":0.3937007874015748},{"duration":0.375,"midi":78,"time":370.5,"velocity":0.3937007874015748},{"duration":0.375,"midi":64,"time":370.5,"velocity":0.3937007874015748},{"duration":0.375,"midi":62,"time":370.5,"velocity":0.3937007874015748},{"duration":0.375,"midi":24,"time":370.5,"velocity":0.3937007874015748},{"duration":0.375,"midi":46,"time":370.5,"velocity":0.3937007874015748},{"duration":0.375,"midi":29,"time":370.5,"velocity":0.3937007874015748},{"duration":0.375,"midi":61,"time":370.5,"velocity":0.3937007874015748},{"duration":0.375,"midi":73,"time":370.5,"velocity":0.3937007874015748},{"duration":0.375,"midi":58,"time":370.5,"velocity":0.3937007874015748},{"duration":0.375,"midi":74,"time":370.5,"velocity":0.3937007874015748},{"duration":0.375,"midi":81,"time":370.5,"velocity":0.3937007874015748},{"duration":0.375,"midi":53,"time":370.5,"velocity":0.3937007874015748},{"duration":0.375,"midi":69,"time":370.5,"velocity":0.3937007874015748},{"duration":0.375,"midi":82,"time":370.5,"velocity":0.3937007874015748},{"duration":0.375,"midi":57,"time":370.5,"velocity":0.3937007874015748},{"duration":0.375,"midi":79,"time":370.5,"velocity":0.3937007874015748},{"duration":0.375,"midi":28,"time":370.5,"velocity":0.3937007874015748},{"duration":0.375,"midi":49,"time":370.5,"velocity":0.3937007874015748},{"duration":0.375,"midi":83,"time":370.5,"velocity":0.3937007874015748},{"duration":0.375,"midi":26,"time":370.5,"velocity":0.3937007874015748},{"duration":0.375,"midi":60,"time":370.5,"velocity":0.3937007874015748},{"duration":0.375,"midi":43,"time":370.5,"velocity":0.3937007874015748},{"duration":0.375,"midi":56,"time":370.5,"velocity":0.3937007874015748},{"duration":0.375,"midi":55,"time":370.5,"velocity":0.3937007874015748},{"duration":0.375,"midi":54,"time":370.5,"velocity":0.3937007874015748},{"duration":0.375,"midi":27,"time":370.5,"velocity":0.3937007874015748},{"duration":0.375,"midi":50,"time":370.5,"velocity":0.3937007874015748},{"duration":0.375,"midi":80,"time":370.5,"velocity":0.3937007874015748},{"duration":0.375,"midi":65,"time":370.5,"velocity":0.3937007874015748},{"duration":0.375,"midi":47,"time":370.5,"velocity":0.3937007874015748},{"duration":0.375,"midi":42,"time":370.5,"velocity":0.3937007874015748},{"duration":0.375,"midi":63,"time":370.5,"velocity":0.3937007874015748},{"duration":0.375,"midi":31,"time":370.5,"velocity":0.3937007874015748},{"duration":0.375,"midi":30,"time":370.5,"velocity":0.3937007874015748},{"duration":0.375,"midi":39,"time":370.5,"velocity":0.3937007874015748},{"duration":0.375,"midi":75,"time":370.5,"velocity":0.3937007874015748},{"duration":0.375,"midi":34,"time":370.5,"velocity":0.3937007874015748},{"duration":0.375,"midi":72,"time":370.5,"velocity":0.3937007874015748},{"duration":0.375,"midi":59,"time":370.5,"velocity":0.3937007874015748},{"duration":0.375,"midi":67,"time":370.5,"velocity":0.3937007874015748},{"duration":0.375,"midi":32,"time":370.5,"velocity":0.3937007874015748},{"duration":0.375,"midi":91,"time":370.5,"velocity":0.3937007874015748},{"duration":0.375,"midi":77,"time":370.5,"velocity":0.3937007874015748},{"duration":0.375,"midi":66,"time":370.5,"velocity":0.3937007874015748},{"duration":0.375,"midi":36,"time":370.5,"velocity":0.3937007874015748},{"duration":0.375,"midi":52,"time":370.5,"velocity":0.3937007874015748},{"duration":0.375,"midi":76,"time":370.5,"velocity":0.3937007874015748},{"duration":0.375,"midi":71,"time":370.5,"velocity":0.3937007874015748},{"duration":0.375,"midi":35,"time":370.5,"velocity":0.3937007874015748},{"duration":0.375,"midi":33,"time":370.5,"velocity":0.3937007874015748},{"duration":0.375,"midi":40,"time":370.5,"velocity":0.3937007874015748},{"duration":0.375,"midi":70,"time":370.5,"velocity":0.3937007874015748},{"duration":0.375,"midi":38,"time":370.5,"velocity":0.3937007874015748},{"duration":0.375,"midi":90,"time":370.5,"velocity":0.3937007874015748},{"duration":0.375,"midi":48,"time":371.25,"velocity":0.3937007874015748},{"duration":0.375,"midi":82,"time":371.25,"velocity":0.3937007874015748},{"duration":0.375,"midi":75,"time":371.25,"velocity":0.3937007874015748},{"duration":0.375,"midi":46,"time":371.25,"velocity":0.3937007874015748},{"duration":0.375,"midi":64,"time":371.25,"velocity":0.3937007874015748},{"duration":0.375,"midi":27,"time":371.25,"velocity":0.3937007874015748},{"duration":0.375,"midi":54,"time":371.25,"velocity":0.3937007874015748},{"duration":0.375,"midi":56,"time":371.25,"velocity":0.3937007874015748},{"duration":0.375,"midi":73,"time":371.25,"velocity":0.3937007874015748},{"duration":0.375,"midi":58,"time":371.25,"velocity":0.3937007874015748},{"duration":0.375,"midi":29,"time":371.25,"velocity":0.3937007874015748},{"duration":0.375,"midi":57,"time":371.25,"velocity":0.3937007874015748},{"duration":0.375,"midi":71,"time":371.25,"velocity":0.3937007874015748},{"duration":0.375,"midi":60,"time":371.25,"velocity":0.3937007874015748},{"duration":0.375,"midi":68,"time":371.25,"velocity":0.3937007874015748},{"duration":0.375,"midi":49,"time":371.25,"velocity":0.3937007874015748},{"duration":0.375,"midi":80,"time":371.25,"velocity":0.3937007874015748},{"duration":0.375,"midi":67,"time":371.25,"velocity":0.3937007874015748},{"duration":0.375,"midi":52,"time":371.25,"velocity":0.3937007874015748},{"duration":0.375,"midi":24,"time":371.25,"velocity":0.3937007874015748},{"duration":0.375,"midi":53,"time":371.25,"velocity":0.3937007874015748},{"duration":0.375,"midi":69,"time":371.25,"velocity":0.3937007874015748},{"duration":0.375,"midi":37,"time":371.25,"velocity":0.3937007874015748},{"duration":0.375,"midi":25,"time":371.25,"velocity":0.3937007874015748},{"duration":0.375,"midi":47,"time":371.25,"velocity":0.3937007874015748},{"duration":0.375,"midi":36,"time":371.25,"velocity":0.3937007874015748},{"duration":0.375,"midi":76,"time":371.25,"velocity":0.3937007874015748},{"duration":0.375,"midi":40,"time":371.25,"velocity":0.3937007874015748},{"duration":0.375,"midi":38,"time":371.25,"velocity":0.3937007874015748},{"duration":0.375,"midi":62,"time":371.25,"velocity":0.3937007874015748},{"duration":0.375,"midi":43,"time":371.25,"velocity":0.3937007874015748},{"duration":0.375,"midi":55,"time":371.25,"velocity":0.3937007874015748},{"duration":0.375,"midi":61,"time":371.25,"velocity":0.3937007874015748},{"duration":0.375,"midi":26,"time":371.25,"velocity":0.3937007874015748},{"duration":0.375,"midi":63,"time":371.25,"velocity":0.3937007874015748},{"duration":0.375,"midi":94,"time":371.25,"velocity":0.3937007874015748},{"duration":0.375,"midi":78,"time":371.25,"velocity":0.3937007874015748},{"duration":0.375,"midi":31,"time":371.25,"velocity":0.3937007874015748},{"duration":0.375,"midi":44,"time":371.25,"velocity":0.3937007874015748},{"duration":0.375,"midi":65,"time":371.25,"velocity":0.3937007874015748},{"duration":0.375,"midi":45,"time":371.25,"velocity":0.3937007874015748},{"duration":0.375,"midi":92,"time":371.25,"velocity":0.3937007874015748},{"duration":0.375,"midi":42,"time":371.25,"velocity":0.3937007874015748},{"duration":0.375,"midi":51,"time":371.25,"velocity":0.3937007874015748},{"duration":0.375,"midi":41,"time":371.25,"velocity":0.3937007874015748},{"duration":0.375,"midi":33,"time":371.25,"velocity":0.3937007874015748},{"duration":0.375,"midi":39,"time":371.25,"velocity":0.3937007874015748},{"duration":0.375,"midi":50,"time":371.25,"velocity":0.3937007874015748},{"duration":0.375,"midi":89,"time":371.25,"velocity":0.3937007874015748},{"duration":0.375,"midi":93,"time":371.25,"velocity":0.3937007874015748},{"duration":0.375,"midi":72,"time":371.25,"velocity":0.3937007874015748},{"duration":0.375,"midi":59,"time":371.25,"velocity":0.3937007874015748},{"duration":0.375,"midi":88,"time":371.25,"velocity":0.3937007874015748},{"duration":0.375,"midi":28,"time":371.25,"velocity":0.3937007874015748},{"duration":0.375,"midi":34,"time":371.25,"velocity":0.3937007874015748},{"duration":0.375,"midi":95,"time":371.25,"velocity":0.3937007874015748},{"duration":0.375,"midi":86,"time":371.25,"velocity":0.3937007874015748},{"duration":0.375,"midi":90,"time":371.25,"velocity":0.3937007874015748},{"duration":0.375,"midi":30,"time":371.25,"velocity":0.3937007874015748},{"duration":0.375,"midi":83,"time":371.25,"velocity":0.3937007874015748},{"duration":0.375,"midi":87,"time":371.25,"velocity":0.3937007874015748},{"duration":0.375,"midi":66,"time":371.25,"velocity":0.3937007874015748},{"duration":0.375,"midi":79,"time":371.25,"velocity":0.3937007874015748},{"duration":0.375,"midi":70,"time":371.25,"velocity":0.3937007874015748},{"duration":0.375,"midi":84,"time":371.25,"velocity":0.3937007874015748},{"duration":0.375,"midi":91,"time":371.25,"velocity":0.3937007874015748},{"duration":0.375,"midi":35,"time":371.25,"velocity":0.3937007874015748},{"duration":0.375,"midi":74,"time":371.25,"velocity":0.3937007874015748},{"duration":0.375,"midi":85,"time":371.25,"velocity":0.3937007874015748},{"duration":0.375,"midi":32,"time":371.25,"velocity":0.3937007874015748},{"duration":0.375,"midi":81,"time":371.25,"velocity":0.3937007874015748},{"duration":0.375,"midi":77,"time":371.25,"velocity":0.3937007874015748},{"duration":0.375,"midi":93,"time":372,"velocity":0.3937007874015748},{"duration":0.375,"midi":89,"time":372.375,"velocity":0.3937007874015748},{"duration":0.375,"midi":86,"time":372.75,"velocity":0.3937007874015748},{"duration":0.375,"midi":81,"time":373.125,"velocity":0.3937007874015748},{"duration":0.375,"midi":77,"time":373.5,"velocity":0.3937007874015748},{"duration":0.375,"midi":74,"time":373.875,"velocity":0.3937007874015748},{"duration":0.375,"midi":69,"time":374.25,"velocity":0.3937007874015748},{"duration":0.375,"midi":65,"time":374.625,"velocity":0.3937007874015748},{"duration":0.375,"midi":62,"time":375,"velocity":0.3937007874015748},{"duration":0.375,"midi":65,"time":375.375,"velocity":0.3937007874015748},{"duration":0.375,"midi":69,"time":375.75,"velocity":0.3937007874015748},{"duration":0.375,"midi":74,"time":376.125,"velocity":0.3937007874015748},{"duration":0.375,"midi":77,"time":376.5,"velocity":0.3937007874015748},{"duration":0.375,"midi":81,"time":376.875,"velocity":0.3937007874015748},{"duration":0.375,"midi":86,"time":377.25,"velocity":0.3937007874015748},{"duration":0.375,"midi":89,"time":377.625,"velocity":0.3937007874015748},{"duration":0.375,"midi":93,"time":378,"velocity":0.3937007874015748},{"duration":0.375,"midi":88,"time":378.375,"velocity":0.3937007874015748},{"duration":0.375,"midi":84,"time":378.75,"velocity":0.3937007874015748},{"duration":0.375,"midi":81,"time":379.125,"velocity":0.3937007874015748},{"duration":0.375,"midi":76,"time":379.5,"velocity":0.3937007874015748},{"duration":0.375,"midi":72,"time":379.875,"velocity":0.3937007874015748},{"duration":0.375,"midi":69,"time":380.25,"velocity":0.3937007874015748},{"duration":0.375,"midi":64,"time":380.625,"velocity":0.3937007874015748},{"duration":0.375,"midi":60,"time":381,"velocity":0.3937007874015748},{"duration":0.375,"midi":64,"time":381.375,"velocity":0.3937007874015748},{"duration":0.375,"midi":69,"time":381.75,"velocity":0.3937007874015748},{"duration":0.375,"midi":72,"time":382.125,"velocity":0.3937007874015748},{"duration":0.375,"midi":76,"time":382.5,"velocity":0.3937007874015748},{"duration":0.375,"midi":81,"time":382.875,"velocity":0.3937007874015748},{"duration":0.375,"midi":84,"time":383.25,"velocity":0.3937007874015748},{"duration":0.375,"midi":88,"time":383.625,"velocity":0.3937007874015748},{"duration":0.375,"midi":93,"time":384,"velocity":0.3937007874015748},{"duration":0.375,"midi":89,"time":384.375,"velocity":0.3937007874015748},{"duration":0.375,"midi":86,"time":384.75,"velocity":0.3937007874015748},{"duration":0.375,"midi":81,"time":385.125,"velocity":0.3937007874015748},{"duration":0.375,"midi":77,"time":385.5,"velocity":0.3937007874015748},{"duration":0.375,"midi":74,"time":385.875,"velocity":0.3937007874015748},{"duration":0.375,"midi":69,"time":386.25,"velocity":0.3937007874015748},{"duration":0.375,"midi":65,"time":386.625,"velocity":0.3937007874015748},{"duration":0.375,"midi":62,"time":387,"velocity":0.3937007874015748},{"duration":0.375,"midi":65,"time":387.375,"velocity":0.3937007874015748},{"duration":0.375,"midi":69,"time":387.75,"velocity":0.3937007874015748},{"duration":0.375,"midi":74,"time":388.125,"velocity":0.3937007874015748},{"duration":0.375,"midi":77,"time":388.5,"velocity":0.3937007874015748},{"duration":0.375,"midi":81,"time":388.875,"velocity":0.3937007874015748},{"duration":0.375,"midi":86,"time":389.25,"velocity":0.3937007874015748},{"duration":0.375,"midi":89,"time":389.625,"velocity":0.3937007874015748},{"duration":0.375,"midi":84,"time":390,"velocity":0.3937007874015748},{"duration":0.375,"midi":93,"time":390,"velocity":0.3937007874015748},{"duration":0.375,"midi":88,"time":390,"velocity":0.3937007874015748},{"duration":0.375,"midi":41,"time":392.25,"velocity":0.3937007874015748},{"duration":0.375,"midi":85,"time":392.25,"velocity":0.3937007874015748},{"duration":0.375,"midi":93,"time":392.25,"velocity":0.3937007874015748},{"duration":0.375,"midi":76,"time":392.25,"velocity":0.3937007874015748},{"duration":0.375,"midi":81,"time":392.25,"velocity":0.3937007874015748},{"duration":0.375,"midi":80,"time":392.25,"velocity":0.3937007874015748},{"duration":0.375,"midi":78,"time":392.25,"velocity":0.3937007874015748},{"duration":0.375,"midi":79,"time":392.25,"velocity":0.3937007874015748},{"duration":0.375,"midi":82,"time":392.25,"velocity":0.3937007874015748},{"duration":0.375,"midi":86,"time":392.25,"velocity":0.3937007874015748},{"duration":0.375,"midi":33,"time":392.25,"velocity":0.3937007874015748},{"duration":0.375,"midi":65,"time":392.25,"velocity":0.3937007874015748},{"duration":0.375,"midi":44,"time":392.25,"velocity":0.3937007874015748},{"duration":0.375,"midi":39,"time":392.25,"velocity":0.3937007874015748},{"duration":0.375,"midi":95,"time":392.25,"velocity":0.3937007874015748},{"duration":0.375,"midi":25,"time":392.25,"velocity":0.3937007874015748},{"duration":0.375,"midi":38,"time":392.25,"velocity":0.3937007874015748},{"duration":0.375,"midi":77,"time":392.25,"velocity":0.3937007874015748},{"duration":0.375,"midi":45,"time":392.25,"velocity":0.3937007874015748},{"duration":0.375,"midi":24,"time":392.25,"velocity":0.3937007874015748},{"duration":0.375,"midi":84,"time":392.25,"velocity":0.3937007874015748},{"duration":0.375,"midi":69,"time":392.25,"velocity":0.3937007874015748},{"duration":0.375,"midi":46,"time":392.25,"velocity":0.3937007874015748},{"duration":0.375,"midi":52,"time":392.25,"velocity":0.3937007874015748},{"duration":0.375,"midi":73,"time":392.25,"velocity":0.3937007874015748},{"duration":0.375,"midi":30,"time":392.25,"velocity":0.3937007874015748},{"duration":0.375,"midi":47,"time":392.25,"velocity":0.3937007874015748},{"duration":0.375,"midi":42,"time":392.25,"velocity":0.3937007874015748},{"duration":0.375,"midi":27,"time":392.25,"velocity":0.3937007874015748},{"duration":0.375,"midi":28,"time":392.25,"velocity":0.3937007874015748},{"duration":0.375,"midi":37,"time":392.25,"velocity":0.3937007874015748},{"duration":0.375,"midi":94,"time":392.25,"velocity":0.3937007874015748},{"duration":0.375,"midi":91,"time":392.25,"velocity":0.3937007874015748},{"duration":0.375,"midi":32,"time":392.25,"velocity":0.3937007874015748},{"duration":0.375,"midi":92,"time":392.25,"velocity":0.3937007874015748},{"duration":0.375,"midi":70,"time":392.25,"velocity":0.3937007874015748},{"duration":0.375,"midi":71,"time":392.25,"velocity":0.3937007874015748},{"duration":0.375,"midi":68,"time":392.25,"velocity":0.3937007874015748},{"duration":0.375,"midi":62,"time":392.25,"velocity":0.3937007874015748},{"duration":0.375,"midi":64,"time":392.25,"velocity":0.3937007874015748},{"duration":0.375,"midi":67,"time":392.25,"velocity":0.3937007874015748},{"duration":0.375,"midi":40,"time":392.25,"velocity":0.3937007874015748},{"duration":0.375,"midi":60,"time":392.25,"velocity":0.3937007874015748},{"duration":0.375,"midi":72,"time":392.25,"velocity":0.3937007874015748},{"duration":0.375,"midi":90,"time":392.25,"velocity":0.3937007874015748},{"duration":0.375,"midi":48,"time":392.25,"velocity":0.3937007874015748},{"duration":0.375,"midi":83,"time":392.25,"velocity":0.3937007874015748},{"duration":0.375,"midi":29,"time":392.25,"velocity":0.3937007874015748},{"duration":0.375,"midi":61,"time":392.25,"velocity":0.3937007874015748},{"duration":0.375,"midi":36,"time":392.25,"velocity":0.3937007874015748},{"duration":0.375,"midi":66,"time":392.25,"velocity":0.3937007874015748},{"duration":0.375,"midi":55,"time":392.25,"velocity":0.3937007874015748},{"duration":0.375,"midi":58,"time":392.25,"velocity":0.3937007874015748},{"duration":0.375,"midi":31,"time":392.25,"velocity":0.3937007874015748},{"duration":0.375,"midi":75,"time":392.25,"velocity":0.3937007874015748},{"duration":0.375,"midi":51,"time":392.25,"velocity":0.3937007874015748},{"duration":0.375,"midi":89,"time":392.25,"velocity":0.3937007874015748},{"duration":0.375,"midi":57,"time":392.25,"velocity":0.3937007874015748},{"duration":0.375,"midi":34,"time":392.25,"velocity":0.3937007874015748},{"duration":0.375,"midi":49,"time":392.25,"velocity":0.3937007874015748},{"duration":0.375,"midi":35,"time":392.25,"velocity":0.3937007874015748},{"duration":0.375,"midi":88,"time":392.25,"velocity":0.3937007874015748},{"duration":0.375,"midi":54,"time":392.25,"velocity":0.3937007874015748},{"duration":0.375,"midi":63,"time":392.25,"velocity":0.3937007874015748},{"duration":0.375,"midi":87,"time":392.25,"velocity":0.3937007874015748},{"duration":0.375,"midi":56,"time":392.25,"velocity":0.3937007874015748},{"duration":0.375,"midi":43,"time":392.25,"velocity":0.3937007874015748},{"duration":0.375,"midi":59,"time":392.25,"velocity":0.3937007874015748},{"duration":0.375,"midi":26,"time":392.25,"velocity":0.3937007874015748},{"duration":0.375,"midi":74,"time":392.25,"velocity":0.3937007874015748},{"duration":0.375,"midi":53,"time":392.25,"velocity":0.3937007874015748},{"duration":0.375,"midi":50,"time":392.25,"velocity":0.3937007874015748},{"duration":0.375,"midi":38,"time":393,"velocity":0.3937007874015748},{"duration":0.375,"midi":34,"time":393,"velocity":0.3937007874015748},{"duration":0.375,"midi":88,"time":393,"velocity":0.3937007874015748},{"duration":0.375,"midi":94,"time":393,"velocity":0.3937007874015748},{"duration":0.375,"midi":89,"time":393,"velocity":0.3937007874015748},{"duration":0.375,"midi":72,"time":393,"velocity":0.3937007874015748},{"duration":0.375,"midi":40,"time":393,"velocity":0.3937007874015748},{"duration":0.375,"midi":28,"time":393,"velocity":0.3937007874015748},{"duration":0.375,"midi":90,"time":393,"velocity":0.3937007874015748},{"duration":0.375,"midi":95,"time":393,"velocity":0.3937007874015748},{"duration":0.375,"midi":26,"time":393,"velocity":0.3937007874015748},{"duration":0.375,"midi":60,"time":393,"velocity":0.3937007874015748},{"duration":0.375,"midi":62,"time":393,"velocity":0.3937007874015748},{"duration":0.375,"midi":69,"time":393,"velocity":0.3937007874015748},{"duration":0.375,"midi":61,"time":393,"velocity":0.3937007874015748},{"duration":0.375,"midi":82,"time":393,"velocity":0.3937007874015748},{"duration":0.375,"midi":71,"time":393,"velocity":0.3937007874015748},{"duration":0.375,"midi":41,"time":393,"velocity":0.3937007874015748},{"duration":0.375,"midi":52,"time":393,"velocity":0.3937007874015748},{"duration":0.375,"midi":54,"time":393,"velocity":0.3937007874015748},{"duration":0.375,"midi":73,"time":393,"velocity":0.3937007874015748},{"duration":0.375,"midi":46,"time":393,"velocity":0.3937007874015748},{"duration":0.375,"midi":45,"time":393,"velocity":0.3937007874015748},{"duration":0.375,"midi":48,"time":393,"velocity":0.3937007874015748},{"duration":0.375,"midi":47,"time":393,"velocity":0.3937007874015748},{"duration":0.375,"midi":66,"time":393,"velocity":0.3937007874015748},{"duration":0.375,"midi":50,"time":393,"velocity":0.3937007874015748},{"duration":0.375,"midi":68,"time":393,"velocity":0.3937007874015748},{"duration":0.375,"midi":63,"time":393,"velocity":0.3937007874015748},{"duration":0.375,"midi":59,"time":393,"velocity":0.3937007874015748},{"duration":0.375,"midi":70,"time":393,"velocity":0.3937007874015748},{"duration":0.375,"midi":80,"time":393,"velocity":0.3937007874015748},{"duration":0.375,"midi":43,"time":393,"velocity":0.3937007874015748},{"duration":0.375,"midi":87,"time":393,"velocity":0.3937007874015748},{"duration":0.375,"midi":37,"time":393,"velocity":0.3937007874015748},{"duration":0.375,"midi":33,"time":393,"velocity":0.3937007874015748},{"duration":0.375,"midi":35,"time":393,"velocity":0.3937007874015748},{"duration":0.375,"midi":76,"time":393,"velocity":0.3937007874015748},{"duration":0.375,"midi":32,"time":393,"velocity":0.3937007874015748},{"duration":0.375,"midi":58,"time":393,"velocity":0.3937007874015748},{"duration":0.375,"midi":31,"time":393,"velocity":0.3937007874015748},{"duration":0.375,"midi":77,"time":393,"velocity":0.3937007874015748},{"duration":0.375,"midi":29,"time":393,"velocity":0.3937007874015748},{"duration":0.375,"midi":30,"time":393,"velocity":0.3937007874015748},{"duration":0.375,"midi":27,"time":393,"velocity":0.3937007874015748},{"duration":0.375,"midi":64,"time":393,"velocity":0.3937007874015748},{"duration":0.375,"midi":86,"time":393,"velocity":0.3937007874015748},{"duration":0.375,"midi":57,"time":393,"velocity":0.3937007874015748},{"duration":0.375,"midi":51,"time":393,"velocity":0.3937007874015748},{"duration":0.375,"midi":84,"time":393,"velocity":0.3937007874015748},{"duration":0.375,"midi":79,"time":393,"velocity":0.3937007874015748},{"duration":0.375,"midi":25,"time":393,"velocity":0.3937007874015748},{"duration":0.375,"midi":65,"time":393,"velocity":0.3937007874015748},{"duration":0.375,"midi":75,"time":393,"velocity":0.3937007874015748},{"duration":0.375,"midi":44,"time":393,"velocity":0.3937007874015748},{"duration":0.375,"midi":56,"time":393,"velocity":0.3937007874015748},{"duration":0.375,"midi":93,"time":393,"velocity":0.3937007874015748},{"duration":0.375,"midi":74,"time":393,"velocity":0.3937007874015748},{"duration":0.375,"midi":78,"time":393,"velocity":0.3937007874015748},{"duration":0.375,"midi":42,"time":393,"velocity":0.3937007874015748},{"duration":0.375,"midi":55,"time":393,"velocity":0.3937007874015748},{"duration":0.375,"midi":81,"time":393,"velocity":0.3937007874015748},{"duration":0.375,"midi":85,"time":393,"velocity":0.3937007874015748},{"duration":0.375,"midi":53,"time":393,"velocity":0.3937007874015748},{"duration":0.375,"midi":92,"time":393,"velocity":0.3937007874015748},{"duration":0.375,"midi":36,"time":393,"velocity":0.3937007874015748},{"duration":0.375,"midi":67,"time":393,"velocity":0.3937007874015748},{"duration":0.375,"midi":24,"time":393,"velocity":0.3937007874015748},{"duration":0.375,"midi":49,"time":393,"velocity":0.3937007874015748},{"duration":0.375,"midi":83,"time":393,"velocity":0.3937007874015748},{"duration":0.375,"midi":91,"time":393,"velocity":0.3937007874015748},{"duration":0.375,"midi":39,"time":393,"velocity":0.3937007874015748},{"duration":0.1875,"midi":28,"time":396,"velocity":0.3937007874015748},{"duration":0.1875,"midi":29,"time":396.046875,"velocity":0.3937007874015748},{"duration":0.1875,"midi":30,"time":396.09375,"velocity":0.3937007874015748},{"duration":0.1875,"midi":31,"time":396.140625,"velocity":0.3937007874015748},{"duration":0.1875,"midi":32,"time":396.1875,"velocity":0.3937007874015748},{"duration":0.1875,"midi":33,"time":396.234375,"velocity":0.3937007874015748},{"duration":0.1875,"midi":34,"time":396.28125,"velocity":0.3937007874015748},{"duration":0.1875,"midi":35,"time":396.328125,"velocity":0.3937007874015748},{"duration":0.1875,"midi":36,"time":396.375,"velocity":0.3937007874015748},{"duration":0.1875,"midi":37,"time":396.421875,"velocity":0.3937007874015748},{"duration":0.1875,"midi":38,"time":396.46875,"velocity":0.3937007874015748},{"duration":0.1875,"midi":39,"time":396.515625,"velocity":0.3937007874015748},{"duration":0.1875,"midi":40,"time":396.5625,"velocity":0.3937007874015748},{"duration":0.1875,"midi":41,"time":396.609375,"velocity":0.3937007874015748},{"duration":0.1875,"midi":42,"time":396.65625,"velocity":0.3937007874015748},{"duration":0.1875,"midi":43,"time":396.703125,"velocity":0.3937007874015748},{"duration":0.1875,"midi":44,"time":396.75,"velocity":0.3937007874015748},{"duration":0.1875,"midi":45,"time":396.796875,"velocity":0.3937007874015748},{"duration":0.1875,"midi":46,"time":396.84375,"velocity":0.3937007874015748},{"duration":0.1875,"midi":47,"time":396.890625,"velocity":0.3937007874015748},{"duration":0.1875,"midi":48,"time":396.9375,"velocity":0.3937007874015748},{"duration":0.1875,"midi":49,"time":396.984375,"velocity":0.3937007874015748},{"duration":0.1875,"midi":50,"time":397.03125,"velocity":0.3937007874015748},{"duration":0.1875,"midi":51,"time":397.078125,"velocity":0.3937007874015748},{"duration":0.1875,"midi":52,"time":397.125,"velocity":0.3937007874015748},{"duration":0.1875,"midi":53,"time":397.171875,"velocity":0.3937007874015748},{"duration":0.1875,"midi":54,"time":397.21875,"velocity":0.3937007874015748},{"duration":0.1875,"midi":55,"time":397.265625,"velocity":0.3937007874015748},{"duration":0.1875,"midi":56,"time":397.3125,"velocity":0.3937007874015748},{"duration":0.1875,"midi":57,"time":397.359375,"velocity":0.3937007874015748},{"duration":0.1875,"midi":58,"time":397.40625,"velocity":0.3937007874015748},{"duration":0.1875,"midi":59,"time":397.453125,"velocity":0.3937007874015748},{"duration":0.1875,"midi":60,"time":397.5,"velocity":0.3937007874015748},{"duration":0.1875,"midi":61,"time":397.546875,"velocity":0.3937007874015748},{"duration":0.1875,"midi":62,"time":397.59375,"velocity":0.3937007874015748},{"duration":0.1875,"midi":63,"time":397.640625,"velocity":0.3937007874015748},{"duration":0.1875,"midi":64,"time":397.6875,"velocity":0.3937007874015748},{"duration":0.1875,"midi":65,"time":397.734375,"velocity":0.3937007874015748},{"duration":0.1875,"midi":66,"time":397.78125,"velocity":0.3937007874015748},{"duration":0.1875,"midi":67,"time":397.828125,"velocity":0.3937007874015748},{"duration":0.1875,"midi":68,"time":397.875,"velocity":0.3937007874015748},{"duration":0.1875,"midi":69,"time":397.921875,"velocity":0.3937007874015748},{"duration":0.1875,"midi":70,"time":397.96875,"velocity":0.3937007874015748},{"duration":0.1875,"midi":71,"time":398.015625,"velocity":0.3937007874015748},{"duration":0.1875,"midi":72,"time":398.0625,"velocity":0.3937007874015748},{"duration":0.1875,"midi":73,"time":398.109375,"velocity":0.3937007874015748},{"duration":0.1875,"midi":74,"time":398.15625,"velocity":0.3937007874015748},{"duration":0.1875,"midi":75,"time":398.203125,"velocity":0.3937007874015748},{"duration":0.1875,"midi":76,"time":398.25,"velocity":0.3937007874015748},{"duration":0.1875,"midi":77,"time":398.296875,"velocity":0.3937007874015748},{"duration":0.1875,"midi":78,"time":398.34375,"velocity":0.3937007874015748},{"duration":0.1875,"midi":79,"time":398.390625,"velocity":0.3937007874015748},{"duration":0.1875,"midi":80,"time":398.4375,"velocity":0.3937007874015748},{"duration":0.1875,"midi":81,"time":398.484375,"velocity":0.3937007874015748},{"duration":0.1875,"midi":82,"time":398.53125,"velocity":0.3937007874015748},{"duration":0.1875,"midi":83,"time":398.578125,"velocity":0.3937007874015748},{"duration":0.1875,"midi":84,"time":398.625,"velocity":0.3937007874015748},{"duration":0.1875,"midi":85,"time":398.671875,"velocity":0.3937007874015748},{"duration":0.1875,"midi":86,"time":398.71875,"velocity":0.3937007874015748},{"duration":0.1875,"midi":87,"time":398.765625,"velocity":0.3937007874015748},{"duration":0.1875,"midi":88,"time":398.8125,"velocity":0.3937007874015748},{"duration":0.1875,"midi":89,"time":398.859375,"velocity":0.3937007874015748},{"duration":0.1875,"midi":90,"time":398.90625,"velocity":0.3937007874015748},{"duration":0.1875,"midi":91,"time":398.953125,"velocity":0.3937007874015748},{"duration":0.1875,"midi":93,"time":399,"velocity":0.3937007874015748},{"duration":0.1875,"midi":92,"time":399.046875,"velocity":0.3937007874015748},{"duration":0.1875,"midi":91,"time":399.09375,"velocity":0.3937007874015748},{"duration":0.1875,"midi":90,"time":399.140625,"velocity":0.3937007874015748},{"duration":0.1875,"midi":89,"time":399.1875,"velocity":0.3937007874015748},{"duration":0.1875,"midi":88,"time":399.234375,"velocity":0.3937007874015748},{"duration":0.1875,"midi":87,"time":399.28125,"velocity":0.3937007874015748},{"duration":0.1875,"midi":86,"time":399.328125,"velocity":0.3937007874015748},{"duration":0.1875,"midi":85,"time":399.375,"velocity":0.3937007874015748},{"duration":0.1875,"midi":84,"time":399.421875,"velocity":0.3937007874015748},{"duration":0.1875,"midi":83,"time":399.46875,"velocity":0.3937007874015748},{"duration":0.1875,"midi":82,"time":399.515625,"velocity":0.3937007874015748},{"duration":0.1875,"midi":81,"time":399.5625,"velocity":0.3937007874015748},{"duration":0.1875,"midi":80,"time":399.609375,"velocity":0.3937007874015748},{"duration":0.1875,"midi":79,"time":399.65625,"velocity":0.3937007874015748},{"duration":0.1875,"midi":78,"time":399.703125,"velocity":0.3937007874015748},{"duration":0.1875,"midi":77,"time":399.75,"velocity":0.3937007874015748},{"duration":0.1875,"midi":76,"time":399.796875,"velocity":0.3937007874015748},{"duration":0.1875,"midi":75,"time":399.84375,"velocity":0.3937007874015748},{"duration":0.1875,"midi":74,"time":399.890625,"velocity":0.3937007874015748},{"duration":0.1875,"midi":73,"time":399.9375,"velocity":0.3937007874015748},{"duration":0.1875,"midi":72,"time":399.984375,"velocity":0.3937007874015748},{"duration":0.1875,"midi":71,"time":400.03125,"velocity":0.3937007874015748},{"duration":0.1875,"midi":70,"time":400.078125,"velocity":0.3937007874015748},{"duration":0.1875,"midi":69,"time":400.125,"velocity":0.3937007874015748},{"duration":0.1875,"midi":68,"time":400.171875,"velocity":0.3937007874015748},{"duration":0.1875,"midi":67,"time":400.21875,"velocity":0.3937007874015748},{"duration":0.1875,"midi":66,"time":400.265625,"velocity":0.3937007874015748},{"duration":0.1875,"midi":65,"time":400.3125,"velocity":0.3937007874015748},{"duration":0.1875,"midi":64,"time":400.359375,"velocity":0.3937007874015748},{"duration":0.1875,"midi":63,"time":400.40625,"velocity":0.3937007874015748},{"duration":0.1875,"midi":62,"time":400.453125,"velocity":0.3937007874015748},{"duration":0.1875,"midi":61,"time":400.5,"velocity":0.3937007874015748},{"duration":0.1875,"midi":60,"time":400.546875,"velocity":0.3937007874015748},{"duration":0.1875,"midi":59,"time":400.59375,"velocity":0.3937007874015748},{"duration":0.1875,"midi":58,"time":400.640625,"velocity":0.3937007874015748},{"duration":0.1875,"midi":57,"time":400.6875,"velocity":0.3937007874015748},{"duration":0.1875,"midi":56,"time":400.734375,"velocity":0.3937007874015748},{"duration":0.1875,"midi":55,"time":400.78125,"velocity":0.3937007874015748},{"duration":0.1875,"midi":54,"time":400.828125,"velocity":0.3937007874015748},{"duration":0.1875,"midi":53,"time":400.875,"velocity":0.3937007874015748},{"duration":0.1875,"midi":52,"time":400.921875,"velocity":0.3937007874015748},{"duration":0.1875,"midi":51,"time":400.96875,"velocity":0.3937007874015748},{"duration":0.1875,"midi":50,"time":401.015625,"velocity":0.3937007874015748},{"duration":0.1875,"midi":49,"time":401.0625,"velocity":0.3937007874015748},{"duration":0.1875,"midi":48,"time":401.109375,"velocity":0.3937007874015748},{"duration":0.1875,"midi":47,"time":401.15625,"velocity":0.3937007874015748},{"duration":0.1875,"midi":46,"time":401.203125,"velocity":0.3937007874015748},{"duration":0.1875,"midi":45,"time":401.25,"velocity":0.3937007874015748},{"duration":0.1875,"midi":44,"time":401.296875,"velocity":0.3937007874015748},{"duration":0.1875,"midi":43,"time":401.34375,"velocity":0.3937007874015748},{"duration":0.1875,"midi":42,"time":401.390625,"velocity":0.3937007874015748},{"duration":0.1875,"midi":41,"time":401.4375,"velocity":0.3937007874015748},{"duration":0.1875,"midi":40,"time":401.484375,"velocity":0.3937007874015748},{"duration":0.1875,"midi":39,"time":401.53125,"velocity":0.3937007874015748},{"duration":0.1875,"midi":38,"time":401.578125,"velocity":0.3937007874015748},{"duration":0.1875,"midi":37,"time":401.625,"velocity":0.3937007874015748},{"duration":0.1875,"midi":36,"time":401.671875,"velocity":0.3937007874015748},{"duration":0.1875,"midi":35,"time":401.71875,"velocity":0.3937007874015748},{"duration":0.1875,"midi":34,"time":401.765625,"velocity":0.3937007874015748},{"duration":0.1875,"midi":33,"time":401.8125,"velocity":0.3937007874015748},{"duration":0.1875,"midi":32,"time":401.859375,"velocity":0.3937007874015748},{"duration":0.1875,"midi":31,"time":401.90625,"velocity":0.3937007874015748},{"duration":0.1875,"midi":30,"time":401.953125,"velocity":0.3937007874015748},{"duration":0.1875,"midi":28,"time":402,"velocity":0.3937007874015748},{"duration":0.1875,"midi":29,"time":402.046875,"velocity":0.3937007874015748},{"duration":0.1875,"midi":30,"time":402.09375,"velocity":0.3937007874015748},{"duration":0.1875,"midi":31,"time":402.140625,"velocity":0.3937007874015748},{"duration":0.1875,"midi":32,"time":402.1875,"velocity":0.3937007874015748},{"duration":0.1875,"midi":33,"time":402.234375,"velocity":0.3937007874015748},{"duration":0.1875,"midi":34,"time":402.28125,"velocity":0.3937007874015748},{"duration":0.1875,"midi":35,"time":402.328125,"velocity":0.3937007874015748},{"duration":0.1875,"midi":36,"time":402.375,"velocity":0.3937007874015748},{"duration":0.1875,"midi":37,"time":402.421875,"velocity":0.3937007874015748},{"duration":0.1875,"midi":38,"time":402.46875,"velocity":0.3937007874015748},{"duration":0.1875,"midi":39,"time":402.515625,"velocity":0.3937007874015748},{"duration":0.1875,"midi":40,"time":402.5625,"velocity":0.3937007874015748},{"duration":0.1875,"midi":41,"time":402.609375,"velocity":0.3937007874015748},{"duration":0.1875,"midi":42,"time":402.65625,"velocity":0.3937007874015748},{"duration":0.1875,"midi":43,"time":402.703125,"velocity":0.3937007874015748},{"duration":0.1875,"midi":44,"time":402.75,"velocity":0.3937007874015748},{"duration":0.1875,"midi":45,"time":402.796875,"velocity":0.3937007874015748},{"duration":0.1875,"midi":46,"time":402.84375,"velocity":0.3937007874015748},{"duration":0.1875,"midi":47,"time":402.890625,"velocity":0.3937007874015748},{"duration":0.1875,"midi":48,"time":402.9375,"velocity":0.3937007874015748},{"duration":0.1875,"midi":49,"time":402.984375,"velocity":0.3937007874015748},{"duration":0.1875,"midi":50,"time":403.03125,"velocity":0.3937007874015748},{"duration":0.1875,"midi":51,"time":403.078125,"velocity":0.3937007874015748},{"duration":0.1875,"midi":52,"time":403.125,"velocity":0.3937007874015748},{"duration":0.1875,"midi":53,"time":403.171875,"velocity":0.3937007874015748},{"duration":0.1875,"midi":54,"time":403.21875,"velocity":0.3937007874015748},{"duration":0.1875,"midi":55,"time":403.265625,"velocity":0.3937007874015748},{"duration":0.1875,"midi":56,"time":403.3125,"velocity":0.3937007874015748},{"duration":0.1875,"midi":57,"time":403.359375,"velocity":0.3937007874015748},{"duration":0.1875,"midi":58,"time":403.40625,"velocity":0.3937007874015748},{"duration":0.1875,"midi":59,"time":403.453125,"velocity":0.3937007874015748},{"duration":0.1875,"midi":60,"time":403.5,"velocity":0.3937007874015748},{"duration":0.1875,"midi":61,"time":403.546875,"velocity":0.3937007874015748},{"duration":0.1875,"midi":62,"time":403.59375,"velocity":0.3937007874015748},{"duration":0.1875,"midi":63,"time":403.640625,"velocity":0.3937007874015748},{"duration":0.1875,"midi":64,"time":403.6875,"velocity":0.3937007874015748},{"duration":0.1875,"midi":65,"time":403.734375,"velocity":0.3937007874015748},{"duration":0.1875,"midi":66,"time":403.78125,"velocity":0.3937007874015748},{"duration":0.1875,"midi":67,"time":403.828125,"velocity":0.3937007874015748},{"duration":0.1875,"midi":68,"time":403.875,"velocity":0.3937007874015748},{"duration":0.1875,"midi":69,"time":403.921875,"velocity":0.3937007874015748},{"duration":0.1875,"midi":70,"time":403.96875,"velocity":0.3937007874015748},{"duration":0.1875,"midi":71,"time":404.015625,"velocity":0.3937007874015748},{"duration":0.1875,"midi":72,"time":404.0625,"velocity":0.3937007874015748},{"duration":0.1875,"midi":73,"time":404.109375,"velocity":0.3937007874015748},{"duration":0.1875,"midi":74,"time":404.15625,"velocity":0.3937007874015748},{"duration":0.1875,"midi":75,"time":404.203125,"velocity":0.3937007874015748},{"duration":0.1875,"midi":76,"time":404.25,"velocity":0.3937007874015748},{"duration":0.1875,"midi":77,"time":404.296875,"velocity":0.3937007874015748},{"duration":0.1875,"midi":78,"time":404.34375,"velocity":0.3937007874015748},{"duration":0.1875,"midi":79,"time":404.390625,"velocity":0.3937007874015748},{"duration":0.1875,"midi":80,"time":404.4375,"velocity":0.3937007874015748},{"duration":0.1875,"midi":81,"time":404.484375,"velocity":0.3937007874015748},{"duration":0.1875,"midi":82,"time":404.53125,"velocity":0.3937007874015748},{"duration":0.1875,"midi":83,"time":404.578125,"velocity":0.3937007874015748},{"duration":0.1875,"midi":84,"time":404.625,"velocity":0.3937007874015748},{"duration":0.1875,"midi":85,"time":404.671875,"velocity":0.3937007874015748},{"duration":0.1875,"midi":86,"time":404.71875,"velocity":0.3937007874015748},{"duration":0.1875,"midi":87,"time":404.765625,"velocity":0.3937007874015748},{"duration":0.1875,"midi":88,"time":404.8125,"velocity":0.3937007874015748},{"duration":0.1875,"midi":89,"time":404.859375,"velocity":0.3937007874015748},{"duration":0.1875,"midi":90,"time":404.90625,"velocity":0.3937007874015748},{"duration":0.1875,"midi":91,"time":404.953125,"velocity":0.3937007874015748},{"duration":0.1875,"midi":93,"time":405,"velocity":0.3937007874015748},{"duration":0.1875,"midi":92,"time":405.046875,"velocity":0.3937007874015748},{"duration":0.1875,"midi":91,"time":405.09375,"velocity":0.3937007874015748},{"duration":0.1875,"midi":90,"time":405.140625,"velocity":0.3937007874015748},{"duration":0.1875,"midi":89,"time":405.1875,"velocity":0.3937007874015748},{"duration":0.1875,"midi":88,"time":405.234375,"velocity":0.3937007874015748},{"duration":0.1875,"midi":87,"time":405.28125,"velocity":0.3937007874015748},{"duration":0.1875,"midi":86,"time":405.328125,"velocity":0.3937007874015748},{"duration":0.1875,"midi":85,"time":405.375,"velocity":0.3937007874015748},{"duration":0.1875,"midi":84,"time":405.421875,"velocity":0.3937007874015748},{"duration":0.1875,"midi":83,"time":405.46875,"velocity":0.3937007874015748},{"duration":0.1875,"midi":82,"time":405.515625,"velocity":0.3937007874015748},{"duration":0.1875,"midi":81,"time":405.5625,"velocity":0.3937007874015748},{"duration":0.1875,"midi":80,"time":405.609375,"velocity":0.3937007874015748},{"duration":0.1875,"midi":79,"time":405.65625,"velocity":0.3937007874015748},{"duration":0.1875,"midi":78,"time":405.703125,"velocity":0.3937007874015748},{"duration":0.1875,"midi":77,"time":405.75,"velocity":0.3937007874015748},{"duration":0.1875,"midi":76,"time":405.796875,"velocity":0.3937007874015748},{"duration":0.1875,"midi":75,"time":405.84375,"velocity":0.3937007874015748},{"duration":0.1875,"midi":74,"time":405.890625,"velocity":0.3937007874015748},{"duration":0.1875,"midi":73,"time":405.9375,"velocity":0.3937007874015748},{"duration":0.1875,"midi":72,"time":405.984375,"velocity":0.3937007874015748},{"duration":0.1875,"midi":71,"time":406.03125,"velocity":0.3937007874015748},{"duration":0.1875,"midi":70,"time":406.078125,"velocity":0.3937007874015748},{"duration":0.1875,"midi":69,"time":406.125,"velocity":0.3937007874015748},{"duration":0.1875,"midi":68,"time":406.171875,"velocity":0.3937007874015748},{"duration":0.1875,"midi":67,"time":406.21875,"velocity":0.3937007874015748},{"duration":0.1875,"midi":66,"time":406.265625,"velocity":0.3937007874015748},{"duration":0.1875,"midi":65,"time":406.3125,"velocity":0.3937007874015748},{"duration":0.1875,"midi":64,"time":406.359375,"velocity":0.3937007874015748},{"duration":0.1875,"midi":63,"time":406.40625,"velocity":0.3937007874015748},{"duration":0.1875,"midi":62,"time":406.453125,"velocity":0.3937007874015748},{"duration":0.1875,"midi":61,"time":406.5,"velocity":0.3937007874015748},{"duration":0.1875,"midi":60,"time":406.546875,"velocity":0.3937007874015748},{"duration":0.1875,"midi":59,"time":406.59375,"velocity":0.3937007874015748},{"duration":0.1875,"midi":58,"time":406.640625,"velocity":0.3937007874015748},{"duration":0.1875,"midi":57,"time":406.6875,"velocity":0.3937007874015748},{"duration":0.1875,"midi":56,"time":406.734375,"velocity":0.3937007874015748},{"duration":0.1875,"midi":55,"time":406.78125,"velocity":0.3937007874015748},{"duration":0.1875,"midi":54,"time":406.828125,"velocity":0.3937007874015748},{"duration":0.1875,"midi":53,"time":406.875,"velocity":0.3937007874015748},{"duration":0.1875,"midi":52,"time":406.921875,"velocity":0.3937007874015748},{"duration":0.1875,"midi":51,"time":406.96875,"velocity":0.3937007874015748},{"duration":0.1875,"midi":50,"time":407.015625,"velocity":0.3937007874015748},{"duration":0.1875,"midi":49,"time":407.0625,"velocity":0.3937007874015748},{"duration":0.1875,"midi":48,"time":407.109375,"velocity":0.3937007874015748},{"duration":0.1875,"midi":47,"time":407.15625,"velocity":0.3937007874015748},{"duration":0.1875,"midi":46,"time":407.203125,"velocity":0.3937007874015748},{"duration":0.1875,"midi":45,"time":407.25,"velocity":0.3937007874015748},{"duration":0.1875,"midi":44,"time":407.296875,"velocity":0.3937007874015748},{"duration":0.1875,"midi":43,"time":407.34375,"velocity":0.3937007874015748},{"duration":0.1875,"midi":42,"time":407.390625,"velocity":0.3937007874015748},{"duration":0.1875,"midi":41,"time":407.4375,"velocity":0.3937007874015748},{"duration":0.1875,"midi":40,"time":407.484375,"velocity":0.3937007874015748},{"duration":0.1875,"midi":39,"time":407.53125,"velocity":0.3937007874015748},{"duration":0.1875,"midi":38,"time":407.578125,"velocity":0.3937007874015748},{"duration":0.1875,"midi":37,"time":407.625,"velocity":0.3937007874015748},{"duration":0.1875,"midi":36,"time":407.671875,"velocity":0.3937007874015748},{"duration":0.1875,"midi":35,"time":407.71875,"velocity":0.3937007874015748},{"duration":0.1875,"midi":34,"time":407.765625,"velocity":0.3937007874015748},{"duration":0.1875,"midi":33,"time":407.8125,"velocity":0.3937007874015748},{"duration":0.1875,"midi":32,"time":407.859375,"velocity":0.3937007874015748},{"duration":0.1875,"midi":31,"time":407.90625,"velocity":0.3937007874015748},{"duration":0.1875,"midi":30,"time":407.953125,"velocity":0.3937007874015748},{"duration":0.1875,"midi":28,"time":408,"velocity":0.3937007874015748},{"duration":0.1875,"midi":29,"time":408.046875,"velocity":0.3937007874015748},{"duration":0.1875,"midi":30,"time":408.09375,"velocity":0.3937007874015748},{"duration":0.1875,"midi":31,"time":408.140625,"velocity":0.3937007874015748},{"duration":0.1875,"midi":32,"time":408.1875,"velocity":0.3937007874015748},{"duration":0.1875,"midi":33,"time":408.234375,"velocity":0.3937007874015748},{"duration":0.1875,"midi":34,"time":408.28125,"velocity":0.3937007874015748},{"duration":0.1875,"midi":35,"time":408.328125,"velocity":0.3937007874015748},{"duration":0.1875,"midi":36,"time":408.375,"velocity":0.3937007874015748},{"duration":0.1875,"midi":37,"time":408.421875,"velocity":0.3937007874015748},{"duration":0.1875,"midi":38,"time":408.46875,"velocity":0.3937007874015748},{"duration":0.1875,"midi":39,"time":408.515625,"velocity":0.3937007874015748},{"duration":0.1875,"midi":40,"time":408.5625,"velocity":0.3937007874015748},{"duration":0.1875,"midi":41,"time":408.609375,"velocity":0.3937007874015748},{"duration":0.1875,"midi":42,"time":408.65625,"velocity":0.3937007874015748},{"duration":0.1875,"midi":43,"time":408.703125,"velocity":0.3937007874015748},{"duration":0.1875,"midi":44,"time":408.75,"velocity":0.3937007874015748},{"duration":0.1875,"midi":45,"time":408.796875,"velocity":0.3937007874015748},{"duration":0.1875,"midi":46,"time":408.84375,"velocity":0.3937007874015748},{"duration":0.1875,"midi":47,"time":408.890625,"velocity":0.3937007874015748},{"duration":0.1875,"midi":48,"time":408.9375,"velocity":0.3937007874015748},{"duration":0.1875,"midi":49,"time":408.984375,"velocity":0.3937007874015748},{"duration":0.1875,"midi":50,"time":409.03125,"velocity":0.3937007874015748},{"duration":0.1875,"midi":51,"time":409.078125,"velocity":0.3937007874015748},{"duration":0.1875,"midi":52,"time":409.125,"velocity":0.3937007874015748},{"duration":0.1875,"midi":53,"time":409.171875,"velocity":0.3937007874015748},{"duration":0.1875,"midi":54,"time":409.21875,"velocity":0.3937007874015748},{"duration":0.1875,"midi":55,"time":409.265625,"velocity":0.3937007874015748},{"duration":0.1875,"midi":56,"time":409.3125,"velocity":0.3937007874015748},{"duration":0.1875,"midi":57,"time":409.359375,"velocity":0.3937007874015748},{"duration":0.1875,"midi":58,"time":409.40625,"velocity":0.3937007874015748},{"duration":0.1875,"midi":59,"time":409.453125,"velocity":0.3937007874015748},{"duration":0.1875,"midi":60,"time":409.5,"velocity":0.3937007874015748},{"duration":0.1875,"midi":61,"time":409.546875,"velocity":0.3937007874015748},{"duration":0.1875,"midi":62,"time":409.59375,"velocity":0.3937007874015748},{"duration":0.1875,"midi":63,"time":409.640625,"velocity":0.3937007874015748},{"duration":0.1875,"midi":64,"time":409.6875,"velocity":0.3937007874015748},{"duration":0.1875,"midi":65,"time":409.734375,"velocity":0.3937007874015748},{"duration":0.1875,"midi":66,"time":409.78125,"velocity":0.3937007874015748},{"duration":0.1875,"midi":67,"time":409.828125,"velocity":0.3937007874015748},{"duration":0.1875,"midi":68,"time":409.875,"velocity":0.3937007874015748},{"duration":0.1875,"midi":69,"time":409.921875,"velocity":0.3937007874015748},{"duration":0.1875,"midi":70,"time":409.96875,"velocity":0.3937007874015748},{"duration":0.1875,"midi":71,"time":410.015625,"velocity":0.3937007874015748},{"duration":0.1875,"midi":72,"time":410.0625,"velocity":0.3937007874015748},{"duration":0.1875,"midi":73,"time":410.109375,"velocity":0.3937007874015748},{"duration":0.1875,"midi":74,"time":410.15625,"velocity":0.3937007874015748},{"duration":0.1875,"midi":75,"time":410.203125,"velocity":0.3937007874015748},{"duration":0.1875,"midi":76,"time":410.25,"velocity":0.3937007874015748},{"duration":0.1875,"midi":77,"time":410.296875,"velocity":0.3937007874015748},{"duration":0.1875,"midi":78,"time":410.34375,"velocity":0.3937007874015748},{"duration":0.1875,"midi":79,"time":410.390625,"velocity":0.3937007874015748},{"duration":0.1875,"midi":80,"time":410.4375,"velocity":0.3937007874015748},{"duration":0.1875,"midi":81,"time":410.484375,"velocity":0.3937007874015748},{"duration":0.1875,"midi":82,"time":410.53125,"velocity":0.3937007874015748},{"duration":0.1875,"midi":83,"time":410.578125,"velocity":0.3937007874015748},{"duration":0.1875,"midi":84,"time":410.625,"velocity":0.3937007874015748},{"duration":0.1875,"midi":85,"time":410.671875,"velocity":0.3937007874015748},{"duration":0.1875,"midi":86,"time":410.71875,"velocity":0.3937007874015748},{"duration":0.1875,"midi":87,"time":410.765625,"velocity":0.3937007874015748},{"duration":0.1875,"midi":88,"time":410.8125,"velocity":0.3937007874015748},{"duration":0.1875,"midi":89,"time":410.859375,"velocity":0.3937007874015748},{"duration":0.1875,"midi":90,"time":410.90625,"velocity":0.3937007874015748},{"duration":0.1875,"midi":91,"time":410.953125,"velocity":0.3937007874015748},{"duration":0.1875,"midi":93,"time":411,"velocity":0.3937007874015748},{"duration":0.1875,"midi":92,"time":411.046875,"velocity":0.3937007874015748},{"duration":0.1875,"midi":91,"time":411.09375,"velocity":0.3937007874015748},{"duration":0.1875,"midi":90,"time":411.140625,"velocity":0.3937007874015748},{"duration":0.1875,"midi":89,"time":411.1875,"velocity":0.3937007874015748},{"duration":0.1875,"midi":88,"time":411.234375,"velocity":0.3937007874015748},{"duration":0.1875,"midi":87,"time":411.28125,"velocity":0.3937007874015748},{"duration":0.1875,"midi":86,"time":411.328125,"velocity":0.3937007874015748},{"duration":0.1875,"midi":85,"time":411.375,"velocity":0.3937007874015748},{"duration":0.1875,"midi":84,"time":411.421875,"velocity":0.3937007874015748},{"duration":0.1875,"midi":83,"time":411.46875,"velocity":0.3937007874015748},{"duration":0.1875,"midi":82,"time":411.515625,"velocity":0.3937007874015748},{"duration":0.1875,"midi":81,"time":411.5625,"velocity":0.3937007874015748},{"duration":0.1875,"midi":80,"time":411.609375,"velocity":0.3937007874015748},{"duration":0.1875,"midi":79,"time":411.65625,"velocity":0.3937007874015748},{"duration":0.1875,"midi":78,"time":411.703125,"velocity":0.3937007874015748},{"duration":0.1875,"midi":77,"time":411.75,"velocity":0.3937007874015748},{"duration":0.1875,"midi":76,"time":411.796875,"velocity":0.3937007874015748},{"duration":0.1875,"midi":75,"time":411.84375,"velocity":0.3937007874015748},{"duration":0.1875,"midi":74,"time":411.890625,"velocity":0.3937007874015748},{"duration":0.1875,"midi":73,"time":411.9375,"velocity":0.3937007874015748},{"duration":0.1875,"midi":72,"time":411.984375,"velocity":0.3937007874015748},{"duration":0.1875,"midi":71,"time":412.03125,"velocity":0.3937007874015748},{"duration":0.1875,"midi":70,"time":412.078125,"velocity":0.3937007874015748},{"duration":0.1875,"midi":69,"time":412.125,"velocity":0.3937007874015748},{"duration":0.1875,"midi":68,"time":412.171875,"velocity":0.3937007874015748},{"duration":0.1875,"midi":67,"time":412.21875,"velocity":0.3937007874015748},{"duration":0.1875,"midi":66,"time":412.265625,"velocity":0.3937007874015748},{"duration":0.1875,"midi":65,"time":412.3125,"velocity":0.3937007874015748},{"duration":0.1875,"midi":64,"time":412.359375,"velocity":0.3937007874015748},{"duration":0.1875,"midi":63,"time":412.40625,"velocity":0.3937007874015748},{"duration":0.1875,"midi":62,"time":412.453125,"velocity":0.3937007874015748},{"duration":0.1875,"midi":61,"time":412.5,"velocity":0.3937007874015748},{"duration":0.1875,"midi":60,"time":412.546875,"velocity":0.3937007874015748},{"duration":0.1875,"midi":59,"time":412.59375,"velocity":0.3937007874015748},{"duration":0.1875,"midi":58,"time":412.640625,"velocity":0.3937007874015748},{"duration":0.1875,"midi":57,"time":412.6875,"velocity":0.3937007874015748},{"duration":0.1875,"midi":56,"time":412.734375,"velocity":0.3937007874015748},{"duration":0.1875,"midi":55,"time":412.78125,"velocity":0.3937007874015748},{"duration":0.1875,"midi":54,"time":412.828125,"velocity":0.3937007874015748},{"duration":0.1875,"midi":53,"time":412.875,"velocity":0.3937007874015748},{"duration":0.1875,"midi":52,"time":412.921875,"velocity":0.3937007874015748},{"duration":0.1875,"midi":51,"time":412.96875,"velocity":0.3937007874015748},{"duration":0.1875,"midi":50,"time":413.015625,"velocity":0.3937007874015748},{"duration":0.1875,"midi":49,"time":413.0625,"velocity":0.3937007874015748},{"duration":0.1875,"midi":48,"time":413.109375,"velocity":0.3937007874015748},{"duration":0.1875,"midi":47,"time":413.15625,"velocity":0.3937007874015748},{"duration":0.1875,"midi":46,"time":413.203125,"velocity":0.3937007874015748},{"duration":0.1875,"midi":45,"time":413.25,"velocity":0.3937007874015748},{"duration":0.1875,"midi":44,"time":413.296875,"velocity":0.3937007874015748},{"duration":0.1875,"midi":43,"time":413.34375,"velocity":0.3937007874015748},{"duration":0.1875,"midi":42,"time":413.390625,"velocity":0.3937007874015748},{"duration":0.1875,"midi":41,"time":413.4375,"velocity":0.3937007874015748},{"duration":0.1875,"midi":40,"time":413.484375,"velocity":0.3937007874015748},{"duration":0.1875,"midi":39,"time":413.53125,"velocity":0.3937007874015748},{"duration":0.1875,"midi":38,"time":413.578125,"velocity":0.3937007874015748},{"duration":0.1875,"midi":37,"time":413.625,"velocity":0.3937007874015748},{"duration":0.1875,"midi":36,"time":413.671875,"velocity":0.3937007874015748},{"duration":0.1875,"midi":35,"time":413.71875,"velocity":0.3937007874015748},{"duration":0.1875,"midi":34,"time":413.765625,"velocity":0.3937007874015748},{"duration":0.1875,"midi":33,"time":413.8125,"velocity":0.3937007874015748},{"duration":0.1875,"midi":32,"time":413.859375,"velocity":0.3937007874015748},{"duration":0.1875,"midi":31,"time":413.90625,"velocity":0.3937007874015748},{"duration":0.1875,"midi":30,"time":413.953125,"velocity":0.3937007874015748},{"duration":0.1875,"midi":28,"time":414,"velocity":0.3937007874015748},{"duration":0.1875,"midi":29,"time":414.046875,"velocity":0.3937007874015748},{"duration":0.1875,"midi":30,"time":414.09375,"velocity":0.3937007874015748},{"duration":0.1875,"midi":31,"time":414.140625,"velocity":0.3937007874015748},{"duration":0.1875,"midi":32,"time":414.1875,"velocity":0.3937007874015748},{"duration":0.1875,"midi":33,"time":414.234375,"velocity":0.3937007874015748},{"duration":0.1875,"midi":34,"time":414.28125,"velocity":0.3937007874015748},{"duration":0.1875,"midi":35,"time":414.328125,"velocity":0.3937007874015748},{"duration":0.1875,"midi":36,"time":414.375,"velocity":0.3937007874015748},{"duration":0.1875,"midi":37,"time":414.421875,"velocity":0.3937007874015748},{"duration":0.1875,"midi":38,"time":414.46875,"velocity":0.3937007874015748},{"duration":0.1875,"midi":39,"time":414.515625,"velocity":0.3937007874015748},{"duration":0.1875,"midi":40,"time":414.5625,"velocity":0.3937007874015748},{"duration":0.1875,"midi":41,"time":414.609375,"velocity":0.3937007874015748},{"duration":0.1875,"midi":42,"time":414.65625,"velocity":0.3937007874015748},{"duration":0.1875,"midi":43,"time":414.703125,"velocity":0.3937007874015748},{"duration":0.1875,"midi":44,"time":414.75,"velocity":0.3937007874015748},{"duration":0.1875,"midi":45,"time":414.796875,"velocity":0.3937007874015748},{"duration":0.1875,"midi":46,"time":414.84375,"velocity":0.3937007874015748},{"duration":0.1875,"midi":47,"time":414.890625,"velocity":0.3937007874015748},{"duration":0.1875,"midi":48,"time":414.9375,"velocity":0.3937007874015748},{"duration":0.1875,"midi":49,"time":414.984375,"velocity":0.3937007874015748},{"duration":0.1875,"midi":50,"time":415.03125,"velocity":0.3937007874015748},{"duration":0.1875,"midi":51,"time":415.078125,"velocity":0.3937007874015748},{"duration":0.1875,"midi":52,"time":415.125,"velocity":0.3937007874015748},{"duration":0.1875,"midi":53,"time":415.171875,"velocity":0.3937007874015748},{"duration":0.1875,"midi":54,"time":415.21875,"velocity":0.3937007874015748},{"duration":0.1875,"midi":55,"time":415.265625,"velocity":0.3937007874015748},{"duration":0.1875,"midi":56,"time":415.3125,"velocity":0.3937007874015748},{"duration":0.1875,"midi":57,"time":415.359375,"velocity":0.3937007874015748},{"duration":0.1875,"midi":58,"time":415.40625,"velocity":0.3937007874015748},{"duration":0.1875,"midi":59,"time":415.453125,"velocity":0.3937007874015748},{"duration":0.1875,"midi":60,"time":415.5,"velocity":0.3937007874015748},{"duration":0.1875,"midi":61,"time":415.546875,"velocity":0.3937007874015748},{"duration":0.1875,"midi":62,"time":415.59375,"velocity":0.3937007874015748},{"duration":0.1875,"midi":63,"time":415.640625,"velocity":0.3937007874015748},{"duration":0.1875,"midi":64,"time":415.6875,"velocity":0.3937007874015748},{"duration":0.1875,"midi":65,"time":415.734375,"velocity":0.3937007874015748},{"duration":0.1875,"midi":66,"time":415.78125,"velocity":0.3937007874015748},{"duration":0.1875,"midi":67,"time":415.828125,"velocity":0.3937007874015748},{"duration":0.1875,"midi":68,"time":415.875,"velocity":0.3937007874015748},{"duration":0.1875,"midi":69,"time":415.921875,"velocity":0.3937007874015748},{"duration":0.1875,"midi":70,"time":415.96875,"velocity":0.3937007874015748},{"duration":0.1875,"midi":71,"time":416.015625,"velocity":0.3937007874015748},{"duration":0.1875,"midi":72,"time":416.0625,"velocity":0.3937007874015748},{"duration":0.1875,"midi":73,"time":416.109375,"velocity":0.3937007874015748},{"duration":0.1875,"midi":74,"time":416.15625,"velocity":0.3937007874015748},{"duration":0.1875,"midi":75,"time":416.203125,"velocity":0.3937007874015748},{"duration":0.1875,"midi":76,"time":416.25,"velocity":0.3937007874015748},{"duration":0.1875,"midi":77,"time":416.296875,"velocity":0.3937007874015748},{"duration":0.1875,"midi":78,"time":416.34375,"velocity":0.3937007874015748},{"duration":0.1875,"midi":79,"time":416.390625,"velocity":0.3937007874015748},{"duration":0.1875,"midi":80,"time":416.4375,"velocity":0.3937007874015748},{"duration":0.1875,"midi":81,"time":416.484375,"velocity":0.3937007874015748},{"duration":0.1875,"midi":82,"time":416.53125,"velocity":0.3937007874015748},{"duration":0.1875,"midi":83,"time":416.578125,"velocity":0.3937007874015748},{"duration":0.1875,"midi":84,"time":416.625,"velocity":0.3937007874015748},{"duration":0.1875,"midi":85,"time":416.671875,"velocity":0.3937007874015748},{"duration":0.1875,"midi":86,"time":416.71875,"velocity":0.3937007874015748},{"duration":0.1875,"midi":87,"time":416.765625,"velocity":0.3937007874015748},{"duration":0.1875,"midi":88,"time":416.8125,"velocity":0.3937007874015748},{"duration":0.1875,"midi":89,"time":416.859375,"velocity":0.3937007874015748},{"duration":0.1875,"midi":90,"time":416.90625,"velocity":0.3937007874015748},{"duration":0.1875,"midi":91,"time":416.953125,"velocity":0.3937007874015748},{"duration":0.1875,"midi":93,"time":417,"velocity":0.3937007874015748},{"duration":0.1875,"midi":92,"time":417.046875,"velocity":0.3937007874015748},{"duration":0.1875,"midi":91,"time":417.09375,"velocity":0.3937007874015748},{"duration":0.1875,"midi":90,"time":417.140625,"velocity":0.3937007874015748},{"duration":0.1875,"midi":89,"time":417.1875,"velocity":0.3937007874015748},{"duration":0.1875,"midi":88,"time":417.234375,"velocity":0.3937007874015748},{"duration":0.1875,"midi":87,"time":417.28125,"velocity":0.3937007874015748},{"duration":0.1875,"midi":86,"time":417.328125,"velocity":0.3937007874015748},{"duration":0.1875,"midi":85,"time":417.375,"velocity":0.3937007874015748},{"duration":0.1875,"midi":84,"time":417.421875,"velocity":0.3937007874015748},{"duration":0.1875,"midi":83,"time":417.46875,"velocity":0.3937007874015748},{"duration":0.1875,"midi":82,"time":417.515625,"velocity":0.3937007874015748},{"duration":0.1875,"midi":81,"time":417.5625,"velocity":0.3937007874015748},{"duration":0.1875,"midi":80,"time":417.609375,"velocity":0.3937007874015748},{"duration":0.1875,"midi":79,"time":417.65625,"velocity":0.3937007874015748},{"duration":0.1875,"midi":78,"time":417.703125,"velocity":0.3937007874015748},{"duration":0.1875,"midi":77,"time":417.75,"velocity":0.3937007874015748},{"duration":0.1875,"midi":76,"time":417.796875,"velocity":0.3937007874015748},{"duration":0.1875,"midi":75,"time":417.84375,"velocity":0.3937007874015748},{"duration":0.1875,"midi":74,"time":417.890625,"velocity":0.3937007874015748},{"duration":0.1875,"midi":73,"time":417.9375,"velocity":0.3937007874015748},{"duration":0.1875,"midi":72,"time":417.984375,"velocity":0.3937007874015748},{"duration":0.1875,"midi":71,"time":418.03125,"velocity":0.3937007874015748},{"duration":0.1875,"midi":70,"time":418.078125,"velocity":0.3937007874015748},{"duration":0.1875,"midi":69,"time":418.125,"velocity":0.3937007874015748},{"duration":0.1875,"midi":68,"time":418.171875,"velocity":0.3937007874015748},{"duration":0.1875,"midi":67,"time":418.21875,"velocity":0.3937007874015748},{"duration":0.1875,"midi":66,"time":418.265625,"velocity":0.3937007874015748},{"duration":0.1875,"midi":65,"time":418.3125,"velocity":0.3937007874015748},{"duration":0.1875,"midi":64,"time":418.359375,"velocity":0.3937007874015748},{"duration":0.1875,"midi":63,"time":418.40625,"velocity":0.3937007874015748},{"duration":0.1875,"midi":62,"time":418.453125,"velocity":0.3937007874015748},{"duration":0.1875,"midi":61,"time":418.5,"velocity":0.3937007874015748},{"duration":0.1875,"midi":60,"time":418.546875,"velocity":0.3937007874015748},{"duration":0.1875,"midi":59,"time":418.59375,"velocity":0.3937007874015748},{"duration":0.1875,"midi":58,"time":418.640625,"velocity":0.3937007874015748},{"duration":0.1875,"midi":57,"time":418.6875,"velocity":0.3937007874015748},{"duration":0.1875,"midi":56,"time":418.734375,"velocity":0.3937007874015748},{"duration":0.1875,"midi":55,"time":418.78125,"velocity":0.3937007874015748},{"duration":0.1875,"midi":54,"time":418.828125,"velocity":0.3937007874015748},{"duration":0.1875,"midi":53,"time":418.875,"velocity":0.3937007874015748},{"duration":0.1875,"midi":52,"time":418.921875,"velocity":0.3937007874015748},{"duration":0.1875,"midi":51,"time":418.96875,"velocity":0.3937007874015748},{"duration":0.1875,"midi":50,"time":419.015625,"velocity":0.3937007874015748},{"duration":0.1875,"midi":49,"time":419.0625,"velocity":0.3937007874015748},{"duration":0.1875,"midi":48,"time":419.109375,"velocity":0.3937007874015748},{"duration":0.1875,"midi":47,"time":419.15625,"velocity":0.3937007874015748},{"duration":0.1875,"midi":46,"time":419.203125,"velocity":0.3937007874015748},{"duration":0.1875,"midi":45,"time":419.25,"velocity":0.3937007874015748},{"duration":0.1875,"midi":44,"time":419.296875,"velocity":0.3937007874015748},{"duration":0.1875,"midi":43,"time":419.34375,"velocity":0.3937007874015748},{"duration":0.1875,"midi":42,"time":419.390625,"velocity":0.3937007874015748},{"duration":0.1875,"midi":41,"time":419.4375,"velocity":0.3937007874015748},{"duration":0.1875,"midi":40,"time":419.484375,"velocity":0.3937007874015748},{"duration":0.1875,"midi":39,"time":419.53125,"velocity":0.3937007874015748},{"duration":0.1875,"midi":38,"time":419.578125,"velocity":0.3937007874015748},{"duration":0.1875,"midi":37,"time":419.625,"velocity":0.3937007874015748},{"duration":0.1875,"midi":36,"time":419.671875,"velocity":0.3937007874015748},{"duration":0.1875,"midi":35,"time":419.71875,"velocity":0.3937007874015748},{"duration":0.1875,"midi":34,"time":419.765625,"velocity":0.3937007874015748},{"duration":0.1875,"midi":33,"time":419.8125,"velocity":0.3937007874015748},{"duration":0.1875,"midi":32,"time":419.859375,"velocity":0.3937007874015748},{"duration":0.1875,"midi":31,"time":419.90625,"velocity":0.3937007874015748},{"duration":0.1875,"midi":30,"time":419.953125,"velocity":0.3937007874015748},{"duration":0.1875,"midi":93,"time":420,"velocity":0.3937007874015748},{"duration":0.1875,"midi":28,"time":420,"velocity":0.3937007874015748},{"duration":0.1875,"midi":92,"time":420.046875,"velocity":0.3937007874015748},{"duration":0.1875,"midi":29,"time":420.046875,"velocity":0.3937007874015748},{"duration":0.1875,"midi":30,"time":420.09375,"velocity":0.3937007874015748},{"duration":0.1875,"midi":91,"time":420.09375,"velocity":0.3937007874015748},{"duration":0.1875,"midi":90,"time":420.140625,"velocity":0.3937007874015748},{"duration":0.1875,"midi":31,"time":420.140625,"velocity":0.3937007874015748},{"duration":0.1875,"midi":89,"time":420.1875,"velocity":0.3937007874015748},{"duration":0.1875,"midi":32,"time":420.1875,"velocity":0.3937007874015748},{"duration":0.1875,"midi":88,"time":420.234375,"velocity":0.3937007874015748},{"duration":0.1875,"midi":33,"time":420.234375,"velocity":0.3937007874015748},{"duration":0.1875,"midi":34,"time":420.28125,"velocity":0.3937007874015748},{"duration":0.1875,"midi":87,"time":420.28125,"velocity":0.3937007874015748},{"duration":0.1875,"midi":86,"time":420.328125,"velocity":0.3937007874015748},{"duration":0.1875,"midi":35,"time":420.328125,"velocity":0.3937007874015748},{"duration":0.1875,"midi":36,"time":420.375,"velocity":0.3937007874015748},{"duration":0.1875,"midi":85,"time":420.375,"velocity":0.3937007874015748},{"duration":0.1875,"midi":37,"time":420.421875,"velocity":0.3937007874015748},{"duration":0.1875,"midi":84,"time":420.421875,"velocity":0.3937007874015748},{"duration":0.1875,"midi":83,"time":420.46875,"velocity":0.3937007874015748},{"duration":0.1875,"midi":38,"time":420.46875,"velocity":0.3937007874015748},{"duration":0.1875,"midi":82,"time":420.515625,"velocity":0.3937007874015748},{"duration":0.1875,"midi":39,"time":420.515625,"velocity":0.3937007874015748},{"duration":0.1875,"midi":81,"time":420.5625,"velocity":0.3937007874015748},{"duration":0.1875,"midi":40,"time":420.5625,"velocity":0.3937007874015748},{"duration":0.1875,"midi":80,"time":420.609375,"velocity":0.3937007874015748},{"duration":0.1875,"midi":41,"time":420.609375,"velocity":0.3937007874015748},{"duration":0.1875,"midi":42,"time":420.65625,"velocity":0.3937007874015748},{"duration":0.1875,"midi":79,"time":420.65625,"velocity":0.3937007874015748},{"duration":0.1875,"midi":78,"time":420.703125,"velocity":0.3937007874015748},{"duration":0.1875,"midi":43,"time":420.703125,"velocity":0.3937007874015748},{"duration":0.1875,"midi":77,"time":420.75,"velocity":0.3937007874015748},{"duration":0.1875,"midi":44,"time":420.75,"velocity":0.3937007874015748},{"duration":0.1875,"midi":45,"time":420.796875,"velocity":0.3937007874015748},{"duration":0.1875,"midi":76,"time":420.796875,"velocity":0.3937007874015748},{"duration":0.1875,"midi":46,"time":420.84375,"velocity":0.3937007874015748},{"duration":0.1875,"midi":75,"time":420.84375,"velocity":0.3937007874015748},{"duration":0.1875,"midi":47,"time":420.890625,"velocity":0.3937007874015748},{"duration":0.1875,"midi":74,"time":420.890625,"velocity":0.3937007874015748},{"duration":0.1875,"midi":73,"time":420.9375,"velocity":0.3937007874015748},{"duration":0.1875,"midi":48,"time":420.9375,"velocity":0.3937007874015748},{"duration":0.1875,"midi":49,"time":420.984375,"velocity":0.3937007874015748},{"duration":0.1875,"midi":72,"time":420.984375,"velocity":0.3937007874015748},{"duration":0.1875,"midi":71,"time":421.03125,"velocity":0.3937007874015748},{"duration":0.1875,"midi":50,"time":421.03125,"velocity":0.3937007874015748},{"duration":0.1875,"midi":51,"time":421.078125,"velocity":0.3937007874015748},{"duration":0.1875,"midi":70,"time":421.078125,"velocity":0.3937007874015748},{"duration":0.1875,"midi":69,"time":421.125,"velocity":0.3937007874015748},{"duration":0.1875,"midi":52,"time":421.125,"velocity":0.3937007874015748},{"duration":0.1875,"midi":68,"time":421.171875,"velocity":0.3937007874015748},{"duration":0.1875,"midi":53,"time":421.171875,"velocity":0.3937007874015748},{"duration":0.1875,"midi":54,"time":421.21875,"velocity":0.3937007874015748},{"duration":0.1875,"midi":67,"time":421.21875,"velocity":0.3937007874015748},{"duration":0.1875,"midi":55,"time":421.265625,"velocity":0.3937007874015748},{"duration":0.1875,"midi":66,"time":421.265625,"velocity":0.3937007874015748},{"duration":0.1875,"midi":56,"time":421.3125,"velocity":0.3937007874015748},{"duration":0.1875,"midi":65,"time":421.3125,"velocity":0.3937007874015748},{"duration":0.1875,"midi":64,"time":421.359375,"velocity":0.3937007874015748},{"duration":0.1875,"midi":57,"time":421.359375,"velocity":0.3937007874015748},{"duration":0.1875,"midi":63,"time":421.40625,"velocity":0.3937007874015748},{"duration":0.1875,"midi":58,"time":421.40625,"velocity":0.3937007874015748},{"duration":0.1875,"midi":59,"time":421.453125,"velocity":0.3937007874015748},{"duration":0.1875,"midi":62,"time":421.453125,"velocity":0.3937007874015748},{"duration":0.1875,"midi":61,"time":421.5,"velocity":0.3937007874015748},{"duration":0.1875,"midi":60,"time":421.5,"velocity":0.3937007874015748},{"duration":0.1875,"midi":60,"time":421.546875,"velocity":0.3937007874015748},{"duration":0.1875,"midi":61,"time":421.546875,"velocity":0.3937007874015748},{"duration":0.1875,"midi":59,"time":421.59375,"velocity":0.3937007874015748},{"duration":0.1875,"midi":62,"time":421.59375,"velocity":0.3937007874015748},{"duration":0.1875,"midi":58,"time":421.640625,"velocity":0.3937007874015748},{"duration":0.1875,"midi":63,"time":421.640625,"velocity":0.3937007874015748},{"duration":0.1875,"midi":57,"time":421.6875,"velocity":0.3937007874015748},{"duration":0.1875,"midi":64,"time":421.6875,"velocity":0.3937007874015748},{"duration":0.1875,"midi":65,"time":421.734375,"velocity":0.3937007874015748},{"duration":0.1875,"midi":56,"time":421.734375,"velocity":0.3937007874015748},{"duration":0.1875,"midi":55,"time":421.78125,"velocity":0.3937007874015748},{"duration":0.1875,"midi":66,"time":421.78125,"velocity":0.3937007874015748},{"duration":0.1875,"midi":67,"time":421.828125,"velocity":0.3937007874015748},{"duration":0.1875,"midi":54,"time":421.828125,"velocity":0.3937007874015748},{"duration":0.1875,"midi":68,"time":421.875,"velocity":0.3937007874015748},{"duration":0.1875,"midi":53,"time":421.875,"velocity":0.3937007874015748},{"duration":0.1875,"midi":69,"time":421.921875,"velocity":0.3937007874015748},{"duration":0.1875,"midi":52,"time":421.921875,"velocity":0.3937007874015748},{"duration":0.1875,"midi":70,"time":421.96875,"velocity":0.3937007874015748},{"duration":0.1875,"midi":51,"time":421.96875,"velocity":0.3937007874015748},{"duration":0.1875,"midi":71,"time":422.015625,"velocity":0.3937007874015748},{"duration":0.1875,"midi":50,"time":422.015625,"velocity":0.3937007874015748},{"duration":0.1875,"midi":49,"time":422.0625,"velocity":0.3937007874015748},{"duration":0.1875,"midi":72,"time":422.0625,"velocity":0.3937007874015748},{"duration":0.1875,"midi":73,"time":422.109375,"velocity":0.3937007874015748},{"duration":0.1875,"midi":48,"time":422.109375,"velocity":0.3937007874015748},{"duration":0.1875,"midi":47,"time":422.15625,"velocity":0.3937007874015748},{"duration":0.1875,"midi":74,"time":422.15625,"velocity":0.3937007874015748},{"duration":0.1875,"midi":75,"time":422.203125,"velocity":0.3937007874015748},{"duration":0.1875,"midi":46,"time":422.203125,"velocity":0.3937007874015748},{"duration":0.1875,"midi":76,"time":422.25,"velocity":0.3937007874015748},{"duration":0.1875,"midi":45,"time":422.25,"velocity":0.3937007874015748},{"duration":0.1875,"midi":44,"time":422.296875,"velocity":0.3937007874015748},{"duration":0.1875,"midi":77,"time":422.296875,"velocity":0.3937007874015748},{"duration":0.1875,"midi":43,"time":422.34375,"velocity":0.3937007874015748},{"duration":0.1875,"midi":78,"time":422.34375,"velocity":0.3937007874015748},{"duration":0.1875,"midi":42,"time":422.390625,"velocity":0.3937007874015748},{"duration":0.1875,"midi":79,"time":422.390625,"velocity":0.3937007874015748},{"duration":0.1875,"midi":41,"time":422.4375,"velocity":0.3937007874015748},{"duration":0.1875,"midi":80,"time":422.4375,"velocity":0.3937007874015748},{"duration":0.1875,"midi":40,"time":422.484375,"velocity":0.3937007874015748},{"duration":0.1875,"midi":81,"time":422.484375,"velocity":0.3937007874015748},{"duration":0.1875,"midi":82,"time":422.53125,"velocity":0.3937007874015748},{"duration":0.1875,"midi":39,"time":422.53125,"velocity":0.3937007874015748},{"duration":0.1875,"midi":38,"time":422.578125,"velocity":0.3937007874015748},{"duration":0.1875,"midi":83,"time":422.578125,"velocity":0.3937007874015748},{"duration":0.1875,"midi":84,"time":422.625,"velocity":0.3937007874015748},{"duration":0.1875,"midi":37,"time":422.625,"velocity":0.3937007874015748},{"duration":0.1875,"midi":36,"time":422.671875,"velocity":0.3937007874015748},{"duration":0.1875,"midi":85,"time":422.671875,"velocity":0.3937007874015748},{"duration":0.1875,"midi":35,"time":422.71875,"velocity":0.3937007874015748},{"duration":0.1875,"midi":86,"time":422.71875,"velocity":0.3937007874015748},{"duration":0.1875,"midi":34,"time":422.765625,"velocity":0.3937007874015748},{"duration":0.1875,"midi":87,"time":422.765625,"velocity":0.3937007874015748},{"duration":0.1875,"midi":33,"time":422.8125,"velocity":0.3937007874015748},{"duration":0.1875,"midi":88,"time":422.8125,"velocity":0.3937007874015748},{"duration":0.1875,"midi":32,"time":422.859375,"velocity":0.3937007874015748},{"duration":0.1875,"midi":89,"time":422.859375,"velocity":0.3937007874015748},{"duration":0.1875,"midi":31,"time":422.90625,"velocity":0.3937007874015748},{"duration":0.1875,"midi":90,"time":422.90625,"velocity":0.3937007874015748},{"duration":0.1875,"midi":91,"time":422.953125,"velocity":0.3937007874015748},{"duration":0.1875,"midi":30,"time":422.953125,"velocity":0.3937007874015748},{"duration":0.1875,"midi":93,"time":423,"velocity":0.3937007874015748},{"duration":0.1875,"midi":28,"time":423,"velocity":0.3937007874015748},{"duration":0.1875,"midi":29,"time":423.046875,"velocity":0.3937007874015748},{"duration":0.1875,"midi":92,"time":423.046875,"velocity":0.3937007874015748},{"duration":0.1875,"midi":91,"time":423.09375,"velocity":0.3937007874015748},{"duration":0.1875,"midi":30,"time":423.09375,"velocity":0.3937007874015748},{"duration":0.1875,"midi":90,"time":423.140625,"velocity":0.3937007874015748},{"duration":0.1875,"midi":31,"time":423.140625,"velocity":0.3937007874015748},{"duration":0.1875,"midi":89,"time":423.1875,"velocity":0.3937007874015748},{"duration":0.1875,"midi":32,"time":423.1875,"velocity":0.3937007874015748},{"duration":0.1875,"midi":33,"time":423.234375,"velocity":0.3937007874015748},{"duration":0.1875,"midi":88,"time":423.234375,"velocity":0.3937007874015748},{"duration":0.1875,"midi":87,"time":423.28125,"velocity":0.3937007874015748},{"duration":0.1875,"midi":34,"time":423.28125,"velocity":0.3937007874015748},{"duration":0.1875,"midi":86,"time":423.328125,"velocity":0.3937007874015748},{"duration":0.1875,"midi":35,"time":423.328125,"velocity":0.3937007874015748},{"duration":0.1875,"midi":36,"time":423.375,"velocity":0.3937007874015748},{"duration":0.1875,"midi":85,"time":423.375,"velocity":0.3937007874015748},{"duration":0.1875,"midi":37,"time":423.421875,"velocity":0.3937007874015748},{"duration":0.1875,"midi":84,"time":423.421875,"velocity":0.3937007874015748},{"duration":0.1875,"midi":83,"time":423.46875,"velocity":0.3937007874015748},{"duration":0.1875,"midi":38,"time":423.46875,"velocity":0.3937007874015748},{"duration":0.1875,"midi":39,"time":423.515625,"velocity":0.3937007874015748},{"duration":0.1875,"midi":82,"time":423.515625,"velocity":0.3937007874015748},{"duration":0.1875,"midi":81,"time":423.5625,"velocity":0.3937007874015748},{"duration":0.1875,"midi":40,"time":423.5625,"velocity":0.3937007874015748},{"duration":0.1875,"midi":41,"time":423.609375,"velocity":0.3937007874015748},{"duration":0.1875,"midi":80,"time":423.609375,"velocity":0.3937007874015748},{"duration":0.1875,"midi":42,"time":423.65625,"velocity":0.3937007874015748},{"duration":0.1875,"midi":79,"time":423.65625,"velocity":0.3937007874015748},{"duration":0.1875,"midi":78,"time":423.703125,"velocity":0.3937007874015748},{"duration":0.1875,"midi":43,"time":423.703125,"velocity":0.3937007874015748},{"duration":0.1875,"midi":77,"time":423.75,"velocity":0.3937007874015748},{"duration":0.1875,"midi":44,"time":423.75,"velocity":0.3937007874015748},{"duration":0.1875,"midi":45,"time":423.796875,"velocity":0.3937007874015748},{"duration":0.1875,"midi":76,"time":423.796875,"velocity":0.3937007874015748},{"duration":0.1875,"midi":75,"time":423.84375,"velocity":0.3937007874015748},{"duration":0.1875,"midi":46,"time":423.84375,"velocity":0.3937007874015748},{"duration":0.1875,"midi":47,"time":423.890625,"velocity":0.3937007874015748},{"duration":0.1875,"midi":74,"time":423.890625,"velocity":0.3937007874015748},{"duration":0.1875,"midi":73,"time":423.9375,"velocity":0.3937007874015748},{"duration":0.1875,"midi":48,"time":423.9375,"velocity":0.3937007874015748},{"duration":0.1875,"midi":72,"time":423.984375,"velocity":0.3937007874015748},{"duration":0.1875,"midi":49,"time":423.984375,"velocity":0.3937007874015748},{"duration":0.1875,"midi":71,"time":424.03125,"velocity":0.3937007874015748},{"duration":0.1875,"midi":50,"time":424.03125,"velocity":0.3937007874015748},{"duration":0.1875,"midi":51,"time":424.078125,"velocity":0.3937007874015748},{"duration":0.1875,"midi":70,"time":424.078125,"velocity":0.3937007874015748},{"duration":0.1875,"midi":52,"time":424.125,"velocity":0.3937007874015748},{"duration":0.1875,"midi":69,"time":424.125,"velocity":0.3937007874015748},{"duration":0.1875,"midi":68,"time":424.171875,"velocity":0.3937007874015748},{"duration":0.1875,"midi":53,"time":424.171875,"velocity":0.3937007874015748},{"duration":0.1875,"midi":67,"time":424.21875,"velocity":0.3937007874015748},{"duration":0.1875,"midi":54,"time":424.21875,"velocity":0.3937007874015748},{"duration":0.1875,"midi":55,"time":424.265625,"velocity":0.3937007874015748},{"duration":0.1875,"midi":66,"time":424.265625,"velocity":0.3937007874015748},{"duration":0.1875,"midi":65,"time":424.3125,"velocity":0.3937007874015748},{"duration":0.1875,"midi":56,"time":424.3125,"velocity":0.3937007874015748},{"duration":0.1875,"midi":64,"time":424.359375,"velocity":0.3937007874015748},{"duration":0.1875,"midi":57,"time":424.359375,"velocity":0.3937007874015748},{"duration":0.1875,"midi":63,"time":424.40625,"velocity":0.3937007874015748},{"duration":0.1875,"midi":58,"time":424.40625,"velocity":0.3937007874015748},{"duration":0.1875,"midi":62,"time":424.453125,"velocity":0.3937007874015748},{"duration":0.1875,"midi":59,"time":424.453125,"velocity":0.3937007874015748},{"duration":0.1875,"midi":61,"time":424.5,"velocity":0.3937007874015748},{"duration":0.1875,"midi":60,"time":424.5,"velocity":0.3937007874015748},{"duration":0.1875,"midi":61,"time":424.546875,"velocity":0.3937007874015748},{"duration":0.1875,"midi":60,"time":424.546875,"velocity":0.3937007874015748},{"duration":0.1875,"midi":59,"time":424.59375,"velocity":0.3937007874015748},{"duration":0.1875,"midi":62,"time":424.59375,"velocity":0.3937007874015748},{"duration":0.1875,"midi":63,"time":424.640625,"velocity":0.3937007874015748},{"duration":0.1875,"midi":58,"time":424.640625,"velocity":0.3937007874015748},{"duration":0.1875,"midi":57,"time":424.6875,"velocity":0.3937007874015748},{"duration":0.1875,"midi":64,"time":424.6875,"velocity":0.3937007874015748},{"duration":0.1875,"midi":56,"time":424.734375,"velocity":0.3937007874015748},{"duration":0.1875,"midi":65,"time":424.734375,"velocity":0.3937007874015748},{"duration":0.1875,"midi":55,"time":424.78125,"velocity":0.3937007874015748},{"duration":0.1875,"midi":66,"time":424.78125,"velocity":0.3937007874015748},{"duration":0.1875,"midi":67,"time":424.828125,"velocity":0.3937007874015748},{"duration":0.1875,"midi":54,"time":424.828125,"velocity":0.3937007874015748},{"duration":0.1875,"midi":53,"time":424.875,"velocity":0.3937007874015748},{"duration":0.1875,"midi":68,"time":424.875,"velocity":0.3937007874015748},{"duration":0.1875,"midi":52,"time":424.921875,"velocity":0.3937007874015748},{"duration":0.1875,"midi":69,"time":424.921875,"velocity":0.3937007874015748},{"duration":0.1875,"midi":70,"time":424.96875,"velocity":0.3937007874015748},{"duration":0.1875,"midi":51,"time":424.96875,"velocity":0.3937007874015748},{"duration":0.1875,"midi":71,"time":425.015625,"velocity":0.3937007874015748},{"duration":0.1875,"midi":50,"time":425.015625,"velocity":0.3937007874015748},{"duration":0.1875,"midi":72,"time":425.0625,"velocity":0.3937007874015748},{"duration":0.1875,"midi":49,"time":425.0625,"velocity":0.3937007874015748},{"duration":0.1875,"midi":73,"time":425.109375,"velocity":0.3937007874015748},{"duration":0.1875,"midi":48,"time":425.109375,"velocity":0.3937007874015748},{"duration":0.1875,"midi":74,"time":425.15625,"velocity":0.3937007874015748},{"duration":0.1875,"midi":47,"time":425.15625,"velocity":0.3937007874015748},{"duration":0.1875,"midi":75,"time":425.203125,"velocity":0.3937007874015748},{"duration":0.1875,"midi":46,"time":425.203125,"velocity":0.3937007874015748},{"duration":0.1875,"midi":45,"time":425.25,"velocity":0.3937007874015748},{"duration":0.1875,"midi":76,"time":425.25,"velocity":0.3937007874015748},{"duration":0.1875,"midi":77,"time":425.296875,"velocity":0.3937007874015748},{"duration":0.1875,"midi":44,"time":425.296875,"velocity":0.3937007874015748},{"duration":0.1875,"midi":43,"time":425.34375,"velocity":0.3937007874015748},{"duration":0.1875,"midi":78,"time":425.34375,"velocity":0.3937007874015748},{"duration":0.1875,"midi":42,"time":425.390625,"velocity":0.3937007874015748},{"duration":0.1875,"midi":79,"time":425.390625,"velocity":0.3937007874015748},{"duration":0.1875,"midi":41,"time":425.4375,"velocity":0.3937007874015748},{"duration":0.1875,"midi":80,"time":425.4375,"velocity":0.3937007874015748},{"duration":0.1875,"midi":81,"time":425.484375,"velocity":0.3937007874015748},{"duration":0.1875,"midi":40,"time":425.484375,"velocity":0.3937007874015748},{"duration":0.1875,"midi":82,"time":425.53125,"velocity":0.3937007874015748},{"duration":0.1875,"midi":39,"time":425.53125,"velocity":0.3937007874015748},{"duration":0.1875,"midi":83,"time":425.578125,"velocity":0.3937007874015748},{"duration":0.1875,"midi":38,"time":425.578125,"velocity":0.3937007874015748},{"duration":0.1875,"midi":84,"time":425.625,"velocity":0.3937007874015748},{"duration":0.1875,"midi":37,"time":425.625,"velocity":0.3937007874015748},{"duration":0.1875,"midi":36,"time":425.671875,"velocity":0.3937007874015748},{"duration":0.1875,"midi":85,"time":425.671875,"velocity":0.3937007874015748},{"duration":0.1875,"midi":35,"time":425.71875,"velocity":0.3937007874015748},{"duration":0.1875,"midi":86,"time":425.71875,"velocity":0.3937007874015748},{"duration":0.1875,"midi":87,"time":425.765625,"velocity":0.3937007874015748},{"duration":0.1875,"midi":34,"time":425.765625,"velocity":0.3937007874015748},{"duration":0.1875,"midi":33,"time":425.8125,"velocity":0.3937007874015748},{"duration":0.1875,"midi":88,"time":425.8125,"velocity":0.3937007874015748},{"duration":0.1875,"midi":89,"time":425.859375,"velocity":0.3937007874015748},{"duration":0.1875,"midi":32,"time":425.859375,"velocity":0.3937007874015748},{"duration":0.1875,"midi":31,"time":425.90625,"velocity":0.3937007874015748},{"duration":0.1875,"midi":90,"time":425.90625,"velocity":0.3937007874015748},{"duration":0.1875,"midi":30,"time":425.953125,"velocity":0.3937007874015748},{"duration":0.1875,"midi":91,"time":425.953125,"velocity":0.3937007874015748},{"duration":0.1875,"midi":93,"time":426,"velocity":0.3937007874015748},{"duration":0.1875,"midi":28,"time":426,"velocity":0.3937007874015748},{"duration":0.1875,"midi":29,"time":426.046875,"velocity":0.3937007874015748},{"duration":0.1875,"midi":92,"time":426.046875,"velocity":0.3937007874015748},{"duration":0.1875,"midi":30,"time":426.09375,"velocity":0.3937007874015748},{"duration":0.1875,"midi":91,"time":426.09375,"velocity":0.3937007874015748},{"duration":0.1875,"midi":31,"time":426.140625,"velocity":0.3937007874015748},{"duration":0.1875,"midi":90,"time":426.140625,"velocity":0.3937007874015748},{"duration":0.1875,"midi":89,"time":426.1875,"velocity":0.3937007874015748},{"duration":0.1875,"midi":32,"time":426.1875,"velocity":0.3937007874015748},{"duration":0.1875,"midi":33,"time":426.234375,"velocity":0.3937007874015748},{"duration":0.1875,"midi":88,"time":426.234375,"velocity":0.3937007874015748},{"duration":0.1875,"midi":87,"time":426.28125,"velocity":0.3937007874015748},{"duration":0.1875,"midi":34,"time":426.28125,"velocity":0.3937007874015748},{"duration":0.1875,"midi":35,"time":426.328125,"velocity":0.3937007874015748},{"duration":0.1875,"midi":86,"time":426.328125,"velocity":0.3937007874015748},{"duration":0.1875,"midi":36,"time":426.375,"velocity":0.3937007874015748},{"duration":0.1875,"midi":85,"time":426.375,"velocity":0.3937007874015748},{"duration":0.1875,"midi":37,"time":426.421875,"velocity":0.3937007874015748},{"duration":0.1875,"midi":84,"time":426.421875,"velocity":0.3937007874015748},{"duration":0.1875,"midi":38,"time":426.46875,"velocity":0.3937007874015748},{"duration":0.1875,"midi":83,"time":426.46875,"velocity":0.3937007874015748},{"duration":0.1875,"midi":82,"time":426.515625,"velocity":0.3937007874015748},{"duration":0.1875,"midi":39,"time":426.515625,"velocity":0.3937007874015748},{"duration":0.1875,"midi":40,"time":426.5625,"velocity":0.3937007874015748},{"duration":0.1875,"midi":81,"time":426.5625,"velocity":0.3937007874015748},{"duration":0.1875,"midi":80,"time":426.609375,"velocity":0.3937007874015748},{"duration":0.1875,"midi":41,"time":426.609375,"velocity":0.3937007874015748},{"duration":0.1875,"midi":42,"time":426.65625,"velocity":0.3937007874015748},{"duration":0.1875,"midi":79,"time":426.65625,"velocity":0.3937007874015748},{"duration":0.1875,"midi":78,"time":426.703125,"velocity":0.3937007874015748},{"duration":0.1875,"midi":43,"time":426.703125,"velocity":0.3937007874015748},{"duration":0.1875,"midi":77,"time":426.75,"velocity":0.3937007874015748},{"duration":0.1875,"midi":44,"time":426.75,"velocity":0.3937007874015748},{"duration":0.1875,"midi":76,"time":426.796875,"velocity":0.3937007874015748},{"duration":0.1875,"midi":45,"time":426.796875,"velocity":0.3937007874015748},{"duration":0.1875,"midi":75,"time":426.84375,"velocity":0.3937007874015748},{"duration":0.1875,"midi":46,"time":426.84375,"velocity":0.3937007874015748},{"duration":0.1875,"midi":47,"time":426.890625,"velocity":0.3937007874015748},{"duration":0.1875,"midi":74,"time":426.890625,"velocity":0.3937007874015748},{"duration":0.1875,"midi":73,"time":426.9375,"velocity":0.3937007874015748},{"duration":0.1875,"midi":48,"time":426.9375,"velocity":0.3937007874015748},{"duration":0.1875,"midi":72,"time":426.984375,"velocity":0.3937007874015748},{"duration":0.1875,"midi":49,"time":426.984375,"velocity":0.3937007874015748},{"duration":0.1875,"midi":71,"time":427.03125,"velocity":0.3937007874015748},{"duration":0.1875,"midi":50,"time":427.03125,"velocity":0.3937007874015748},{"duration":0.1875,"midi":51,"time":427.078125,"velocity":0.3937007874015748},{"duration":0.1875,"midi":70,"time":427.078125,"velocity":0.3937007874015748},{"duration":0.1875,"midi":52,"time":427.125,"velocity":0.3937007874015748},{"duration":0.1875,"midi":69,"time":427.125,"velocity":0.3937007874015748},{"duration":0.1875,"midi":68,"time":427.171875,"velocity":0.3937007874015748},{"duration":0.1875,"midi":53,"time":427.171875,"velocity":0.3937007874015748},{"duration":0.1875,"midi":54,"time":427.21875,"velocity":0.3937007874015748},{"duration":0.1875,"midi":67,"time":427.21875,"velocity":0.3937007874015748},{"duration":0.1875,"midi":66,"time":427.265625,"velocity":0.3937007874015748},{"duration":0.1875,"midi":55,"time":427.265625,"velocity":0.3937007874015748},{"duration":0.1875,"midi":65,"time":427.3125,"velocity":0.3937007874015748},{"duration":0.1875,"midi":56,"time":427.3125,"velocity":0.3937007874015748},{"duration":0.1875,"midi":57,"time":427.359375,"velocity":0.3937007874015748},{"duration":0.1875,"midi":64,"time":427.359375,"velocity":0.3937007874015748},{"duration":0.1875,"midi":63,"time":427.40625,"velocity":0.3937007874015748},{"duration":0.1875,"midi":58,"time":427.40625,"velocity":0.3937007874015748},{"duration":0.1875,"midi":62,"time":427.453125,"velocity":0.3937007874015748},{"duration":0.1875,"midi":59,"time":427.453125,"velocity":0.3937007874015748},{"duration":0.1875,"midi":61,"time":427.5,"velocity":0.3937007874015748},{"duration":0.1875,"midi":60,"time":427.5,"velocity":0.3937007874015748},{"duration":0.1875,"midi":61,"time":427.546875,"velocity":0.3937007874015748},{"duration":0.1875,"midi":60,"time":427.546875,"velocity":0.3937007874015748},{"duration":0.1875,"midi":59,"time":427.59375,"velocity":0.3937007874015748},{"duration":0.1875,"midi":62,"time":427.59375,"velocity":0.3937007874015748},{"duration":0.1875,"midi":63,"time":427.640625,"velocity":0.3937007874015748},{"duration":0.1875,"midi":58,"time":427.640625,"velocity":0.3937007874015748},{"duration":0.1875,"midi":57,"time":427.6875,"velocity":0.3937007874015748},{"duration":0.1875,"midi":64,"time":427.6875,"velocity":0.3937007874015748},{"duration":0.1875,"midi":56,"time":427.734375,"velocity":0.3937007874015748},{"duration":0.1875,"midi":65,"time":427.734375,"velocity":0.3937007874015748},{"duration":0.1875,"midi":55,"time":427.78125,"velocity":0.3937007874015748},{"duration":0.1875,"midi":66,"time":427.78125,"velocity":0.3937007874015748},{"duration":0.1875,"midi":54,"time":427.828125,"velocity":0.3937007874015748},{"duration":0.1875,"midi":67,"time":427.828125,"velocity":0.3937007874015748},{"duration":0.1875,"midi":53,"time":427.875,"velocity":0.3937007874015748},{"duration":0.1875,"midi":68,"time":427.875,"velocity":0.3937007874015748},{"duration":0.1875,"midi":69,"time":427.921875,"velocity":0.3937007874015748},{"duration":0.1875,"midi":52,"time":427.921875,"velocity":0.3937007874015748},{"duration":0.1875,"midi":70,"time":427.96875,"velocity":0.3937007874015748},{"duration":0.1875,"midi":51,"time":427.96875,"velocity":0.3937007874015748},{"duration":0.1875,"midi":50,"time":428.015625,"velocity":0.3937007874015748},{"duration":0.1875,"midi":71,"time":428.015625,"velocity":0.3937007874015748},{"duration":0.1875,"midi":49,"time":428.0625,"velocity":0.3937007874015748},{"duration":0.1875,"midi":72,"time":428.0625,"velocity":0.3937007874015748},{"duration":0.1875,"midi":73,"time":428.109375,"velocity":0.3937007874015748},{"duration":0.1875,"midi":48,"time":428.109375,"velocity":0.3937007874015748},{"duration":0.1875,"midi":74,"time":428.15625,"velocity":0.3937007874015748},{"duration":0.1875,"midi":47,"time":428.15625,"velocity":0.3937007874015748},{"duration":0.1875,"midi":46,"time":428.203125,"velocity":0.3937007874015748},{"duration":0.1875,"midi":75,"time":428.203125,"velocity":0.3937007874015748},{"duration":0.1875,"midi":45,"time":428.25,"velocity":0.3937007874015748},{"duration":0.1875,"midi":76,"time":428.25,"velocity":0.3937007874015748},{"duration":0.1875,"midi":44,"time":428.296875,"velocity":0.3937007874015748},{"duration":0.1875,"midi":77,"time":428.296875,"velocity":0.3937007874015748},{"duration":0.1875,"midi":43,"time":428.34375,"velocity":0.3937007874015748},{"duration":0.1875,"midi":78,"time":428.34375,"velocity":0.3937007874015748},{"duration":0.1875,"midi":42,"time":428.390625,"velocity":0.3937007874015748},{"duration":0.1875,"midi":79,"time":428.390625,"velocity":0.3937007874015748},{"duration":0.1875,"midi":80,"time":428.4375,"velocity":0.3937007874015748},{"duration":0.1875,"midi":41,"time":428.4375,"velocity":0.3937007874015748},{"duration":0.1875,"midi":40,"time":428.484375,"velocity":0.3937007874015748},{"duration":0.1875,"midi":81,"time":428.484375,"velocity":0.3937007874015748},{"duration":0.1875,"midi":82,"time":428.53125,"velocity":0.3937007874015748},{"duration":0.1875,"midi":39,"time":428.53125,"velocity":0.3937007874015748},{"duration":0.1875,"midi":83,"time":428.578125,"velocity":0.3937007874015748},{"duration":0.1875,"midi":38,"time":428.578125,"velocity":0.3937007874015748},{"duration":0.1875,"midi":84,"time":428.625,"velocity":0.3937007874015748},{"duration":0.1875,"midi":37,"time":428.625,"velocity":0.3937007874015748},{"duration":0.1875,"midi":36,"time":428.671875,"velocity":0.3937007874015748},{"duration":0.1875,"midi":85,"time":428.671875,"velocity":0.3937007874015748},{"duration":0.1875,"midi":35,"time":428.71875,"velocity":0.3937007874015748},{"duration":0.1875,"midi":86,"time":428.71875,"velocity":0.3937007874015748},{"duration":0.1875,"midi":87,"time":428.765625,"velocity":0.3937007874015748},{"duration":0.1875,"midi":34,"time":428.765625,"velocity":0.3937007874015748},{"duration":0.1875,"midi":33,"time":428.8125,"velocity":0.3937007874015748},{"duration":0.1875,"midi":88,"time":428.8125,"velocity":0.3937007874015748},{"duration":0.1875,"midi":32,"time":428.859375,"velocity":0.3937007874015748},{"duration":0.1875,"midi":89,"time":428.859375,"velocity":0.3937007874015748},{"duration":0.1875,"midi":31,"time":428.90625,"velocity":0.3937007874015748},{"duration":0.1875,"midi":90,"time":428.90625,"velocity":0.3937007874015748},{"duration":0.1875,"midi":91,"time":428.953125,"velocity":0.3937007874015748},{"duration":0.1875,"midi":30,"time":428.953125,"velocity":0.3937007874015748},{"duration":0.1875,"midi":28,"time":429,"velocity":0.3937007874015748},{"duration":0.1875,"midi":93,"time":429,"velocity":0.3937007874015748},{"duration":0.1875,"midi":92,"time":429.046875,"velocity":0.3937007874015748},{"duration":0.1875,"midi":29,"time":429.046875,"velocity":0.3937007874015748},{"duration":0.1875,"midi":91,"time":429.09375,"velocity":0.3937007874015748},{"duration":0.1875,"midi":30,"time":429.09375,"velocity":0.3937007874015748},{"duration":0.1875,"midi":90,"time":429.140625,"velocity":0.3937007874015748},{"duration":0.1875,"midi":31,"time":429.140625,"velocity":0.3937007874015748},{"duration":0.1875,"midi":89,"time":429.1875,"velocity":0.3937007874015748},{"duration":0.1875,"midi":32,"time":429.1875,"velocity":0.3937007874015748},{"duration":0.1875,"midi":88,"time":429.234375,"velocity":0.3937007874015748},{"duration":0.1875,"midi":33,"time":429.234375,"velocity":0.3937007874015748},{"duration":0.1875,"midi":87,"time":429.28125,"velocity":0.3937007874015748},{"duration":0.1875,"midi":34,"time":429.28125,"velocity":0.3937007874015748},{"duration":0.1875,"midi":86,"time":429.328125,"velocity":0.3937007874015748},{"duration":0.1875,"midi":35,"time":429.328125,"velocity":0.3937007874015748},{"duration":0.1875,"midi":36,"time":429.375,"velocity":0.3937007874015748},{"duration":0.1875,"midi":85,"time":429.375,"velocity":0.3937007874015748},{"duration":0.1875,"midi":37,"time":429.421875,"velocity":0.3937007874015748},{"duration":0.1875,"midi":84,"time":429.421875,"velocity":0.3937007874015748},{"duration":0.1875,"midi":38,"time":429.46875,"velocity":0.3937007874015748},{"duration":0.1875,"midi":83,"time":429.46875,"velocity":0.3937007874015748},{"duration":0.1875,"midi":39,"time":429.515625,"velocity":0.3937007874015748},{"duration":0.1875,"midi":82,"time":429.515625,"velocity":0.3937007874015748},{"duration":0.1875,"midi":81,"time":429.5625,"velocity":0.3937007874015748},{"duration":0.1875,"midi":40,"time":429.5625,"velocity":0.3937007874015748},{"duration":0.1875,"midi":80,"time":429.609375,"velocity":0.3937007874015748},{"duration":0.1875,"midi":41,"time":429.609375,"velocity":0.3937007874015748},{"duration":0.1875,"midi":42,"time":429.65625,"velocity":0.3937007874015748},{"duration":0.1875,"midi":79,"time":429.65625,"velocity":0.3937007874015748},{"duration":0.1875,"midi":78,"time":429.703125,"velocity":0.3937007874015748},{"duration":0.1875,"midi":43,"time":429.703125,"velocity":0.3937007874015748},{"duration":0.1875,"midi":77,"time":429.75,"velocity":0.3937007874015748},{"duration":0.1875,"midi":44,"time":429.75,"velocity":0.3937007874015748},{"duration":0.1875,"midi":45,"time":429.796875,"velocity":0.3937007874015748},{"duration":0.1875,"midi":76,"time":429.796875,"velocity":0.3937007874015748},{"duration":0.1875,"midi":75,"time":429.84375,"velocity":0.3937007874015748},{"duration":0.1875,"midi":46,"time":429.84375,"velocity":0.3937007874015748},{"duration":0.1875,"midi":47,"time":429.890625,"velocity":0.3937007874015748},{"duration":0.1875,"midi":74,"time":429.890625,"velocity":0.3937007874015748},{"duration":0.1875,"midi":48,"time":429.9375,"velocity":0.3937007874015748},{"duration":0.1875,"midi":73,"time":429.9375,"velocity":0.3937007874015748},{"duration":0.1875,"midi":49,"time":429.984375,"velocity":0.3937007874015748},{"duration":0.1875,"midi":72,"time":429.984375,"velocity":0.3937007874015748},{"duration":0.1875,"midi":71,"time":430.03125,"velocity":0.3937007874015748},{"duration":0.1875,"midi":50,"time":430.03125,"velocity":0.3937007874015748},{"duration":0.1875,"midi":51,"time":430.078125,"velocity":0.3937007874015748},{"duration":0.1875,"midi":70,"time":430.078125,"velocity":0.3937007874015748},{"duration":0.1875,"midi":69,"time":430.125,"velocity":0.3937007874015748},{"duration":0.1875,"midi":52,"time":430.125,"velocity":0.3937007874015748},{"duration":0.1875,"midi":68,"time":430.171875,"velocity":0.3937007874015748},{"duration":0.1875,"midi":53,"time":430.171875,"velocity":0.3937007874015748},{"duration":0.1875,"midi":67,"time":430.21875,"velocity":0.3937007874015748},{"duration":0.1875,"midi":54,"time":430.21875,"velocity":0.3937007874015748},{"duration":0.1875,"midi":55,"time":430.265625,"velocity":0.3937007874015748},{"duration":0.1875,"midi":66,"time":430.265625,"velocity":0.3937007874015748},{"duration":0.1875,"midi":56,"time":430.3125,"velocity":0.3937007874015748},{"duration":0.1875,"midi":65,"time":430.3125,"velocity":0.3937007874015748},{"duration":0.1875,"midi":64,"time":430.359375,"velocity":0.3937007874015748},{"duration":0.1875,"midi":57,"time":430.359375,"velocity":0.3937007874015748},{"duration":0.1875,"midi":63,"time":430.40625,"velocity":0.3937007874015748},{"duration":0.1875,"midi":58,"time":430.40625,"velocity":0.3937007874015748},{"duration":0.1875,"midi":62,"time":430.453125,"velocity":0.3937007874015748},{"duration":0.1875,"midi":59,"time":430.453125,"velocity":0.3937007874015748},{"duration":0.1875,"midi":60,"time":430.5,"velocity":0.3937007874015748},{"duration":0.1875,"midi":61,"time":430.5,"velocity":0.3937007874015748},{"duration":0.1875,"midi":61,"time":430.546875,"velocity":0.3937007874015748},{"duration":0.1875,"midi":60,"time":430.546875,"velocity":0.3937007874015748},{"duration":0.1875,"midi":59,"time":430.59375,"velocity":0.3937007874015748},{"duration":0.1875,"midi":62,"time":430.59375,"velocity":0.3937007874015748},{"duration":0.1875,"midi":58,"time":430.640625,"velocity":0.3937007874015748},{"duration":0.1875,"midi":63,"time":430.640625,"velocity":0.3937007874015748},{"duration":0.1875,"midi":57,"time":430.6875,"velocity":0.3937007874015748},{"duration":0.1875,"midi":64,"time":430.6875,"velocity":0.3937007874015748},{"duration":0.1875,"midi":65,"time":430.734375,"velocity":0.3937007874015748},{"duration":0.1875,"midi":56,"time":430.734375,"velocity":0.3937007874015748},{"duration":0.1875,"midi":55,"time":430.78125,"velocity":0.3937007874015748},{"duration":0.1875,"midi":66,"time":430.78125,"velocity":0.3937007874015748},{"duration":0.1875,"midi":54,"time":430.828125,"velocity":0.3937007874015748},{"duration":0.1875,"midi":67,"time":430.828125,"velocity":0.3937007874015748},{"duration":0.1875,"midi":53,"time":430.875,"velocity":0.3937007874015748},{"duration":0.1875,"midi":68,"time":430.875,"velocity":0.3937007874015748},{"duration":0.1875,"midi":69,"time":430.921875,"velocity":0.3937007874015748},{"duration":0.1875,"midi":52,"time":430.921875,"velocity":0.3937007874015748},{"duration":0.1875,"midi":70,"time":430.96875,"velocity":0.3937007874015748},{"duration":0.1875,"midi":51,"time":430.96875,"velocity":0.3937007874015748},{"duration":0.1875,"midi":71,"time":431.015625,"velocity":0.3937007874015748},{"duration":0.1875,"midi":50,"time":431.015625,"velocity":0.3937007874015748},{"duration":0.1875,"midi":49,"time":431.0625,"velocity":0.3937007874015748},{"duration":0.1875,"midi":72,"time":431.0625,"velocity":0.3937007874015748},{"duration":0.1875,"midi":48,"time":431.109375,"velocity":0.3937007874015748},{"duration":0.1875,"midi":73,"time":431.109375,"velocity":0.3937007874015748},{"duration":0.1875,"midi":74,"time":431.15625,"velocity":0.3937007874015748},{"duration":0.1875,"midi":47,"time":431.15625,"velocity":0.3937007874015748},{"duration":0.1875,"midi":46,"time":431.203125,"velocity":0.3937007874015748},{"duration":0.1875,"midi":75,"time":431.203125,"velocity":0.3937007874015748},{"duration":0.1875,"midi":45,"time":431.25,"velocity":0.3937007874015748},{"duration":0.1875,"midi":76,"time":431.25,"velocity":0.3937007874015748},{"duration":0.1875,"midi":44,"time":431.296875,"velocity":0.3937007874015748},{"duration":0.1875,"midi":77,"time":431.296875,"velocity":0.3937007874015748},{"duration":0.1875,"midi":78,"time":431.34375,"velocity":0.3937007874015748},{"duration":0.1875,"midi":43,"time":431.34375,"velocity":0.3937007874015748},{"duration":0.1875,"midi":79,"time":431.390625,"velocity":0.3937007874015748},{"duration":0.1875,"midi":42,"time":431.390625,"velocity":0.3937007874015748},{"duration":0.1875,"midi":80,"time":431.4375,"velocity":0.3937007874015748},{"duration":0.1875,"midi":41,"time":431.4375,"velocity":0.3937007874015748},{"duration":0.1875,"midi":81,"time":431.484375,"velocity":0.3937007874015748},{"duration":0.1875,"midi":40,"time":431.484375,"velocity":0.3937007874015748},{"duration":0.1875,"midi":39,"time":431.53125,"velocity":0.3937007874015748},{"duration":0.1875,"midi":82,"time":431.53125,"velocity":0.3937007874015748},{"duration":0.1875,"midi":38,"time":431.578125,"velocity":0.3937007874015748},{"duration":0.1875,"midi":83,"time":431.578125,"velocity":0.3937007874015748},{"duration":0.1875,"midi":37,"time":431.625,"velocity":0.3937007874015748},{"duration":0.1875,"midi":84,"time":431.625,"velocity":0.3937007874015748},{"duration":0.1875,"midi":85,"time":431.671875,"velocity":0.3937007874015748},{"duration":0.1875,"midi":36,"time":431.671875,"velocity":0.3937007874015748},{"duration":0.1875,"midi":35,"time":431.71875,"velocity":0.3937007874015748},{"duration":0.1875,"midi":86,"time":431.71875,"velocity":0.3937007874015748},{"duration":0.1875,"midi":34,"time":431.765625,"velocity":0.3937007874015748},{"duration":0.1875,"midi":87,"time":431.765625,"velocity":0.3937007874015748},{"duration":0.1875,"midi":33,"time":431.8125,"velocity":0.3937007874015748},{"duration":0.1875,"midi":88,"time":431.8125,"velocity":0.3937007874015748},{"duration":0.1875,"midi":32,"time":431.859375,"velocity":0.3937007874015748},{"duration":0.1875,"midi":89,"time":431.859375,"velocity":0.3937007874015748},{"duration":0.1875,"midi":90,"time":431.90625,"velocity":0.3937007874015748},{"duration":0.1875,"midi":31,"time":431.90625,"velocity":0.3937007874015748},{"duration":0.1875,"midi":91,"time":431.953125,"velocity":0.3937007874015748},{"duration":0.1875,"midi":30,"time":431.953125,"velocity":0.3937007874015748},{"duration":0.1875,"midi":93,"time":432,"velocity":0.3937007874015748},{"duration":0.1875,"midi":28,"time":432,"velocity":0.3937007874015748},{"duration":0.1875,"midi":92,"time":432.0234375,"velocity":0.3937007874015748},{"duration":0.1875,"midi":29,"time":432.0234375,"velocity":0.3937007874015748},{"duration":0.1875,"midi":91,"time":432.046875,"velocity":0.3937007874015748},{"duration":0.1875,"midi":30,"time":432.046875,"velocity":0.3937007874015748},{"duration":0.1875,"midi":90,"time":432.0703125,"velocity":0.3937007874015748},{"duration":0.1875,"midi":31,"time":432.0703125,"velocity":0.3937007874015748},{"duration":0.1875,"midi":32,"time":432.09375,"velocity":0.3937007874015748},{"duration":0.1875,"midi":89,"time":432.09375,"velocity":0.3937007874015748},{"duration":0.1875,"midi":33,"time":432.1171875,"velocity":0.3937007874015748},{"duration":0.1875,"midi":88,"time":432.1171875,"velocity":0.3937007874015748},{"duration":0.1875,"midi":34,"time":432.140625,"velocity":0.3937007874015748},{"duration":0.1875,"midi":87,"time":432.140625,"velocity":0.3937007874015748},{"duration":0.1875,"midi":86,"time":432.1640625,"velocity":0.3937007874015748},{"duration":0.1875,"midi":35,"time":432.1640625,"velocity":0.3937007874015748},{"duration":0.1875,"midi":36,"time":432.1875,"velocity":0.3937007874015748},{"duration":0.1875,"midi":85,"time":432.1875,"velocity":0.3937007874015748},{"duration":0.1875,"midi":37,"time":432.2109375,"velocity":0.3937007874015748},{"duration":0.1875,"midi":84,"time":432.2109375,"velocity":0.3937007874015748},{"duration":0.1875,"midi":83,"time":432.234375,"velocity":0.3937007874015748},{"duration":0.1875,"midi":38,"time":432.234375,"velocity":0.3937007874015748},{"duration":0.1875,"midi":39,"time":432.2578125,"velocity":0.3937007874015748},{"duration":0.1875,"midi":82,"time":432.2578125,"velocity":0.3937007874015748},{"duration":0.1875,"midi":81,"time":432.28125,"velocity":0.3937007874015748},{"duration":0.1875,"midi":40,"time":432.28125,"velocity":0.3937007874015748},{"duration":0.1875,"midi":41,"time":432.3046875,"velocity":0.3937007874015748},{"duration":0.1875,"midi":80,"time":432.3046875,"velocity":0.3937007874015748},{"duration":0.1875,"midi":42,"time":432.328125,"velocity":0.3937007874015748},{"duration":0.1875,"midi":79,"time":432.328125,"velocity":0.3937007874015748},{"duration":0.1875,"midi":43,"time":432.3515625,"velocity":0.3937007874015748},{"duration":0.1875,"midi":78,"time":432.3515625,"velocity":0.3937007874015748},{"duration":0.1875,"midi":44,"time":432.375,"velocity":0.3937007874015748},{"duration":0.1875,"midi":77,"time":432.375,"velocity":0.3937007874015748},{"duration":0.1875,"midi":76,"time":432.3984375,"velocity":0.3937007874015748},{"duration":0.1875,"midi":45,"time":432.3984375,"velocity":0.3937007874015748},{"duration":0.1875,"midi":46,"time":432.421875,"velocity":0.3937007874015748},{"duration":0.1875,"midi":75,"time":432.421875,"velocity":0.3937007874015748},{"duration":0.1875,"midi":47,"time":432.4453125,"velocity":0.3937007874015748},{"duration":0.1875,"midi":74,"time":432.4453125,"velocity":0.3937007874015748},{"duration":0.1875,"midi":73,"time":432.46875,"velocity":0.3937007874015748},{"duration":0.1875,"midi":48,"time":432.46875,"velocity":0.3937007874015748},{"duration":0.1875,"midi":49,"time":432.4921875,"velocity":0.3937007874015748},{"duration":0.1875,"midi":72,"time":432.4921875,"velocity":0.3937007874015748},{"duration":0.1875,"midi":71,"time":432.515625,"velocity":0.3937007874015748},{"duration":0.1875,"midi":50,"time":432.515625,"velocity":0.3937007874015748},{"duration":0.1875,"midi":70,"time":432.5390625,"velocity":0.3937007874015748},{"duration":0.1875,"midi":51,"time":432.5390625,"velocity":0.3937007874015748},{"duration":0.1875,"midi":69,"time":432.5625,"velocity":0.3937007874015748},{"duration":0.1875,"midi":52,"time":432.5625,"velocity":0.3937007874015748},{"duration":0.1875,"midi":53,"time":432.5859375,"velocity":0.3937007874015748},{"duration":0.1875,"midi":68,"time":432.5859375,"velocity":0.3937007874015748},{"duration":0.1875,"midi":67,"time":432.609375,"velocity":0.3937007874015748},{"duration":0.1875,"midi":54,"time":432.609375,"velocity":0.3937007874015748},{"duration":0.1875,"midi":66,"time":432.6328125,"velocity":0.3937007874015748},{"duration":0.1875,"midi":55,"time":432.6328125,"velocity":0.3937007874015748},{"duration":0.1875,"midi":65,"time":432.65625,"velocity":0.3937007874015748},{"duration":0.1875,"midi":56,"time":432.65625,"velocity":0.3937007874015748},{"duration":0.1875,"midi":64,"time":432.6796875,"velocity":0.3937007874015748},{"duration":0.1875,"midi":57,"time":432.6796875,"velocity":0.3937007874015748},{"duration":0.1875,"midi":58,"time":432.703125,"velocity":0.3937007874015748},{"duration":0.1875,"midi":63,"time":432.703125,"velocity":0.3937007874015748},{"duration":0.1875,"midi":59,"time":432.7265625,"velocity":0.3937007874015748},{"duration":0.1875,"midi":62,"time":432.7265625,"velocity":0.3937007874015748},{"duration":0.1875,"midi":60,"time":432.75,"velocity":0.3937007874015748},{"duration":0.1875,"midi":61,"time":432.75,"velocity":0.3937007874015748},{"duration":0.1875,"midi":60,"time":432.7734375,"velocity":0.3937007874015748},{"duration":0.1875,"midi":61,"time":432.7734375,"velocity":0.3937007874015748},{"duration":0.1875,"midi":62,"time":432.796875,"velocity":0.3937007874015748},{"duration":0.1875,"midi":59,"time":432.796875,"velocity":0.3937007874015748},{"duration":0.1875,"midi":58,"time":432.8203125,"velocity":0.3937007874015748},{"duration":0.1875,"midi":63,"time":432.8203125,"velocity":0.3937007874015748},{"duration":0.1875,"midi":57,"time":432.84375,"velocity":0.3937007874015748},{"duration":0.1875,"midi":64,"time":432.84375,"velocity":0.3937007874015748},{"duration":0.1875,"midi":65,"time":432.8671875,"velocity":0.3937007874015748},{"duration":0.1875,"midi":56,"time":432.8671875,"velocity":0.3937007874015748},{"duration":0.1875,"midi":66,"time":432.890625,"velocity":0.3937007874015748},{"duration":0.1875,"midi":55,"time":432.890625,"velocity":0.3937007874015748},{"duration":0.1875,"midi":67,"time":432.9140625,"velocity":0.3937007874015748},{"duration":0.1875,"midi":54,"time":432.9140625,"velocity":0.3937007874015748},{"duration":0.1875,"midi":68,"time":432.9375,"velocity":0.3937007874015748},{"duration":0.1875,"midi":53,"time":432.9375,"velocity":0.3937007874015748},{"duration":0.1875,"midi":69,"time":432.9609375,"velocity":0.3937007874015748},{"duration":0.1875,"midi":52,"time":432.9609375,"velocity":0.3937007874015748},{"duration":0.1875,"midi":51,"time":432.984375,"velocity":0.3937007874015748},{"duration":0.1875,"midi":70,"time":432.984375,"velocity":0.3937007874015748},{"duration":0.1875,"midi":71,"time":433.0078125,"velocity":0.3937007874015748},{"duration":0.1875,"midi":50,"time":433.0078125,"velocity":0.3937007874015748},{"duration":0.1875,"midi":72,"time":433.03125,"velocity":0.3937007874015748},{"duration":0.1875,"midi":49,"time":433.03125,"velocity":0.3937007874015748},{"duration":0.1875,"midi":48,"time":433.0546875,"velocity":0.3937007874015748},{"duration":0.1875,"midi":73,"time":433.0546875,"velocity":0.3937007874015748},{"duration":0.1875,"midi":74,"time":433.078125,"velocity":0.3937007874015748},{"duration":0.1875,"midi":47,"time":433.078125,"velocity":0.3937007874015748},{"duration":0.1875,"midi":46,"time":433.1015625,"velocity":0.3937007874015748},{"duration":0.1875,"midi":75,"time":433.1015625,"velocity":0.3937007874015748},{"duration":0.1875,"midi":45,"time":433.125,"velocity":0.3937007874015748},{"duration":0.1875,"midi":76,"time":433.125,"velocity":0.3937007874015748},{"duration":0.1875,"midi":44,"time":433.1484375,"velocity":0.3937007874015748},{"duration":0.1875,"midi":77,"time":433.1484375,"velocity":0.3937007874015748},{"duration":0.1875,"midi":43,"time":433.171875,"velocity":0.3937007874015748},{"duration":0.1875,"midi":78,"time":433.171875,"velocity":0.3937007874015748},{"duration":0.1875,"midi":42,"time":433.1953125,"velocity":0.3937007874015748},{"duration":0.1875,"midi":79,"time":433.1953125,"velocity":0.3937007874015748},{"duration":0.1875,"midi":80,"time":433.21875,"velocity":0.3937007874015748},{"duration":0.1875,"midi":41,"time":433.21875,"velocity":0.3937007874015748},{"duration":0.1875,"midi":40,"time":433.2421875,"velocity":0.3937007874015748},{"duration":0.1875,"midi":81,"time":433.2421875,"velocity":0.3937007874015748},{"duration":0.1875,"midi":39,"time":433.265625,"velocity":0.3937007874015748},{"duration":0.1875,"midi":82,"time":433.265625,"velocity":0.3937007874015748},{"duration":0.1875,"midi":83,"time":433.2890625,"velocity":0.3937007874015748},{"duration":0.1875,"midi":38,"time":433.2890625,"velocity":0.3937007874015748},{"duration":0.1875,"midi":37,"time":433.3125,"velocity":0.3937007874015748},{"duration":0.1875,"midi":84,"time":433.3125,"velocity":0.3937007874015748},{"duration":0.1875,"midi":36,"time":433.3359375,"velocity":0.3937007874015748},{"duration":0.1875,"midi":85,"time":433.3359375,"velocity":0.3937007874015748},{"duration":0.1875,"midi":86,"time":433.359375,"velocity":0.3937007874015748},{"duration":0.1875,"midi":35,"time":433.359375,"velocity":0.3937007874015748},{"duration":0.1875,"midi":87,"time":433.3828125,"velocity":0.3937007874015748},{"duration":0.1875,"midi":34,"time":433.3828125,"velocity":0.3937007874015748},{"duration":0.1875,"midi":88,"time":433.40625,"velocity":0.3937007874015748},{"duration":0.1875,"midi":33,"time":433.40625,"velocity":0.3937007874015748},{"duration":0.1875,"midi":32,"time":433.4296875,"velocity":0.3937007874015748},{"duration":0.1875,"midi":89,"time":433.4296875,"velocity":0.3937007874015748},{"duration":0.1875,"midi":31,"time":433.453125,"velocity":0.3937007874015748},{"duration":0.1875,"midi":90,"time":433.453125,"velocity":0.3937007874015748},{"duration":0.1875,"midi":30,"time":433.4765625,"velocity":0.3937007874015748},{"duration":0.1875,"midi":91,"time":433.4765625,"velocity":0.3937007874015748},{"duration":0.1875,"midi":28,"time":433.5,"velocity":0.3937007874015748},{"duration":0.1875,"midi":93,"time":433.5,"velocity":0.3937007874015748},{"duration":0.1875,"midi":92,"time":433.5234375,"velocity":0.3937007874015748},{"duration":0.1875,"midi":29,"time":433.5234375,"velocity":0.3937007874015748},{"duration":0.1875,"midi":30,"time":433.546875,"velocity":0.3937007874015748},{"duration":0.1875,"midi":91,"time":433.546875,"velocity":0.3937007874015748},{"duration":0.1875,"midi":31,"time":433.5703125,"velocity":0.3937007874015748},{"duration":0.1875,"midi":90,"time":433.5703125,"velocity":0.3937007874015748},{"duration":0.1875,"midi":32,"time":433.59375,"velocity":0.3937007874015748},{"duration":0.1875,"midi":89,"time":433.59375,"velocity":0.3937007874015748},{"duration":0.1875,"midi":88,"time":433.6171875,"velocity":0.3937007874015748},{"duration":0.1875,"midi":33,"time":433.6171875,"velocity":0.3937007874015748},{"duration":0.1875,"midi":34,"time":433.640625,"velocity":0.3937007874015748},{"duration":0.1875,"midi":87,"time":433.640625,"velocity":0.3937007874015748},{"duration":0.1875,"midi":86,"time":433.6640625,"velocity":0.3937007874015748},{"duration":0.1875,"midi":35,"time":433.6640625,"velocity":0.3937007874015748},{"duration":0.1875,"midi":36,"time":433.6875,"velocity":0.3937007874015748},{"duration":0.1875,"midi":85,"time":433.6875,"velocity":0.3937007874015748},{"duration":0.1875,"midi":37,"time":433.7109375,"velocity":0.3937007874015748},{"duration":0.1875,"midi":84,"time":433.7109375,"velocity":0.3937007874015748},{"duration":0.1875,"midi":83,"time":433.734375,"velocity":0.3937007874015748},{"duration":0.1875,"midi":38,"time":433.734375,"velocity":0.3937007874015748},{"duration":0.1875,"midi":39,"time":433.7578125,"velocity":0.3937007874015748},{"duration":0.1875,"midi":82,"time":433.7578125,"velocity":0.3937007874015748},{"duration":0.1875,"midi":81,"time":433.78125,"velocity":0.3937007874015748},{"duration":0.1875,"midi":40,"time":433.78125,"velocity":0.3937007874015748},{"duration":0.1875,"midi":80,"time":433.8046875,"velocity":0.3937007874015748},{"duration":0.1875,"midi":41,"time":433.8046875,"velocity":0.3937007874015748},{"duration":0.1875,"midi":79,"time":433.828125,"velocity":0.3937007874015748},{"duration":0.1875,"midi":42,"time":433.828125,"velocity":0.3937007874015748},{"duration":0.1875,"midi":43,"time":433.8515625,"velocity":0.3937007874015748},{"duration":0.1875,"midi":78,"time":433.8515625,"velocity":0.3937007874015748},{"duration":0.1875,"midi":44,"time":433.875,"velocity":0.3937007874015748},{"duration":0.1875,"midi":77,"time":433.875,"velocity":0.3937007874015748},{"duration":0.1875,"midi":45,"time":433.8984375,"velocity":0.3937007874015748},{"duration":0.1875,"midi":76,"time":433.8984375,"velocity":0.3937007874015748},{"duration":0.1875,"midi":75,"time":433.921875,"velocity":0.3937007874015748},{"duration":0.1875,"midi":46,"time":433.921875,"velocity":0.3937007874015748},{"duration":0.1875,"midi":47,"time":433.9453125,"velocity":0.3937007874015748},{"duration":0.1875,"midi":74,"time":433.9453125,"velocity":0.3937007874015748},{"duration":0.1875,"midi":73,"time":433.96875,"velocity":0.3937007874015748},{"duration":0.1875,"midi":48,"time":433.96875,"velocity":0.3937007874015748},{"duration":0.1875,"midi":49,"time":433.9921875,"velocity":0.3937007874015748},{"duration":0.1875,"midi":72,"time":433.9921875,"velocity":0.3937007874015748},{"duration":0.1875,"midi":71,"time":434.015625,"velocity":0.3937007874015748},{"duration":0.1875,"midi":50,"time":434.015625,"velocity":0.3937007874015748},{"duration":0.1875,"midi":51,"time":434.0390625,"velocity":0.3937007874015748},{"duration":0.1875,"midi":70,"time":434.0390625,"velocity":0.3937007874015748},{"duration":0.1875,"midi":69,"time":434.0625,"velocity":0.3937007874015748},{"duration":0.1875,"midi":52,"time":434.0625,"velocity":0.3937007874015748},{"duration":0.1875,"midi":53,"time":434.0859375,"velocity":0.3937007874015748},{"duration":0.1875,"midi":68,"time":434.0859375,"velocity":0.3937007874015748},{"duration":0.1875,"midi":67,"time":434.109375,"velocity":0.3937007874015748},{"duration":0.1875,"midi":54,"time":434.109375,"velocity":0.3937007874015748},{"duration":0.1875,"midi":66,"time":434.1328125,"velocity":0.3937007874015748},{"duration":0.1875,"midi":55,"time":434.1328125,"velocity":0.3937007874015748},{"duration":0.1875,"midi":56,"time":434.15625,"velocity":0.3937007874015748},{"duration":0.1875,"midi":65,"time":434.15625,"velocity":0.3937007874015748},{"duration":0.1875,"midi":64,"time":434.1796875,"velocity":0.3937007874015748},{"duration":0.1875,"midi":57,"time":434.1796875,"velocity":0.3937007874015748},{"duration":0.1875,"midi":58,"time":434.203125,"velocity":0.3937007874015748},{"duration":0.1875,"midi":63,"time":434.203125,"velocity":0.3937007874015748},{"duration":0.1875,"midi":59,"time":434.2265625,"velocity":0.3937007874015748},{"duration":0.1875,"midi":62,"time":434.2265625,"velocity":0.3937007874015748},{"duration":0.1875,"midi":61,"time":434.25,"velocity":0.3937007874015748},{"duration":0.1875,"midi":60,"time":434.25,"velocity":0.3937007874015748},{"duration":0.1875,"midi":61,"time":434.2734375,"velocity":0.3937007874015748},{"duration":0.1875,"midi":60,"time":434.2734375,"velocity":0.3937007874015748},{"duration":0.1875,"midi":59,"time":434.296875,"velocity":0.3937007874015748},{"duration":0.1875,"midi":62,"time":434.296875,"velocity":0.3937007874015748},{"duration":0.1875,"midi":63,"time":434.3203125,"velocity":0.3937007874015748},{"duration":0.1875,"midi":58,"time":434.3203125,"velocity":0.3937007874015748},{"duration":0.1875,"midi":64,"time":434.34375,"velocity":0.3937007874015748},{"duration":0.1875,"midi":57,"time":434.34375,"velocity":0.3937007874015748},{"duration":0.1875,"midi":56,"time":434.3671875,"velocity":0.3937007874015748},{"duration":0.1875,"midi":65,"time":434.3671875,"velocity":0.3937007874015748},{"duration":0.1875,"midi":66,"time":434.390625,"velocity":0.3937007874015748},{"duration":0.1875,"midi":55,"time":434.390625,"velocity":0.3937007874015748},{"duration":0.1875,"midi":54,"time":434.4140625,"velocity":0.3937007874015748},{"duration":0.1875,"midi":67,"time":434.4140625,"velocity":0.3937007874015748},{"duration":0.1875,"midi":53,"time":434.4375,"velocity":0.3937007874015748},{"duration":0.1875,"midi":68,"time":434.4375,"velocity":0.3937007874015748},{"duration":0.1875,"midi":69,"time":434.4609375,"velocity":0.3937007874015748},{"duration":0.1875,"midi":52,"time":434.4609375,"velocity":0.3937007874015748},{"duration":0.1875,"midi":70,"time":434.484375,"velocity":0.3937007874015748},{"duration":0.1875,"midi":51,"time":434.484375,"velocity":0.3937007874015748},{"duration":0.1875,"midi":71,"time":434.5078125,"velocity":0.3937007874015748},{"duration":0.1875,"midi":50,"time":434.5078125,"velocity":0.3937007874015748},{"duration":0.1875,"midi":49,"time":434.53125,"velocity":0.3937007874015748},{"duration":0.1875,"midi":72,"time":434.53125,"velocity":0.3937007874015748},{"duration":0.1875,"midi":48,"time":434.5546875,"velocity":0.3937007874015748},{"duration":0.1875,"midi":73,"time":434.5546875,"velocity":0.3937007874015748},{"duration":0.1875,"midi":74,"time":434.578125,"velocity":0.3937007874015748},{"duration":0.1875,"midi":47,"time":434.578125,"velocity":0.3937007874015748},{"duration":0.1875,"midi":46,"time":434.6015625,"velocity":0.3937007874015748},{"duration":0.1875,"midi":75,"time":434.6015625,"velocity":0.3937007874015748},{"duration":0.1875,"midi":76,"time":434.625,"velocity":0.3937007874015748},{"duration":0.1875,"midi":45,"time":434.625,"velocity":0.3937007874015748},{"duration":0.1875,"midi":77,"time":434.6484375,"velocity":0.3937007874015748},{"duration":0.1875,"midi":44,"time":434.6484375,"velocity":0.3937007874015748},{"duration":0.1875,"midi":43,"time":434.671875,"velocity":0.3937007874015748},{"duration":0.1875,"midi":78,"time":434.671875,"velocity":0.3937007874015748},{"duration":0.1875,"midi":79,"time":434.6953125,"velocity":0.3937007874015748},{"duration":0.1875,"midi":42,"time":434.6953125,"velocity":0.3937007874015748},{"duration":0.1875,"midi":80,"time":434.71875,"velocity":0.3937007874015748},{"duration":0.1875,"midi":41,"time":434.71875,"velocity":0.3937007874015748},{"duration":0.1875,"midi":40,"time":434.7421875,"velocity":0.3937007874015748},{"duration":0.1875,"midi":81,"time":434.7421875,"velocity":0.3937007874015748},{"duration":0.1875,"midi":82,"time":434.765625,"velocity":0.3937007874015748},{"duration":0.1875,"midi":39,"time":434.765625,"velocity":0.3937007874015748},{"duration":0.1875,"midi":83,"time":434.7890625,"velocity":0.3937007874015748},{"duration":0.1875,"midi":38,"time":434.7890625,"velocity":0.3937007874015748},{"duration":0.1875,"midi":84,"time":434.8125,"velocity":0.3937007874015748},{"duration":0.1875,"midi":37,"time":434.8125,"velocity":0.3937007874015748},{"duration":0.1875,"midi":85,"time":434.8359375,"velocity":0.3937007874015748},{"duration":0.1875,"midi":36,"time":434.8359375,"velocity":0.3937007874015748},{"duration":0.1875,"midi":86,"time":434.859375,"velocity":0.3937007874015748},{"duration":0.1875,"midi":35,"time":434.859375,"velocity":0.3937007874015748},{"duration":0.1875,"midi":87,"time":434.8828125,"velocity":0.3937007874015748},{"duration":0.1875,"midi":34,"time":434.8828125,"velocity":0.3937007874015748},{"duration":0.1875,"midi":33,"time":434.90625,"velocity":0.3937007874015748},{"duration":0.1875,"midi":88,"time":434.90625,"velocity":0.3937007874015748},{"duration":0.1875,"midi":89,"time":434.9296875,"velocity":0.3937007874015748},{"duration":0.1875,"midi":32,"time":434.9296875,"velocity":0.3937007874015748},{"duration":0.1875,"midi":31,"time":434.953125,"velocity":0.3937007874015748},{"duration":0.1875,"midi":90,"time":434.953125,"velocity":0.3937007874015748},{"duration":0.1875,"midi":91,"time":434.9765625,"velocity":0.3937007874015748},{"duration":0.1875,"midi":30,"time":434.9765625,"velocity":0.3937007874015748},{"duration":0.1875,"midi":28,"time":435.0234375,"velocity":0.3937007874015748},{"duration":0.1875,"midi":93,"time":435.0234375,"velocity":0.3937007874015748},{"duration":0.1875,"midi":29,"time":435.046875,"velocity":0.3937007874015748},{"duration":0.1875,"midi":92,"time":435.046875,"velocity":0.3937007874015748},{"duration":0.1875,"midi":91,"time":435.0703125,"velocity":0.3937007874015748},{"duration":0.1875,"midi":30,"time":435.0703125,"velocity":0.3937007874015748},{"duration":0.1875,"midi":90,"time":435.09375,"velocity":0.3937007874015748},{"duration":0.1875,"midi":31,"time":435.09375,"velocity":0.3937007874015748},{"duration":0.1875,"midi":32,"time":435.1171875,"velocity":0.3937007874015748},{"duration":0.1875,"midi":89,"time":435.1171875,"velocity":0.3937007874015748},{"duration":0.1875,"midi":33,"time":435.140625,"velocity":0.3937007874015748},{"duration":0.1875,"midi":88,"time":435.140625,"velocity":0.3937007874015748},{"duration":0.1875,"midi":34,"time":435.1640625,"velocity":0.3937007874015748},{"duration":0.1875,"midi":87,"time":435.1640625,"velocity":0.3937007874015748},{"duration":0.1875,"midi":35,"time":435.1875,"velocity":0.3937007874015748},{"duration":0.1875,"midi":86,"time":435.1875,"velocity":0.3937007874015748},{"duration":0.1875,"midi":85,"time":435.2109375,"velocity":0.3937007874015748},{"duration":0.1875,"midi":36,"time":435.2109375,"velocity":0.3937007874015748},{"duration":0.1875,"midi":37,"time":435.234375,"velocity":0.3937007874015748},{"duration":0.1875,"midi":84,"time":435.234375,"velocity":0.3937007874015748},{"duration":0.1875,"midi":83,"time":435.2578125,"velocity":0.3937007874015748},{"duration":0.1875,"midi":38,"time":435.2578125,"velocity":0.3937007874015748},{"duration":0.1875,"midi":82,"time":435.28125,"velocity":0.3937007874015748},{"duration":0.1875,"midi":39,"time":435.28125,"velocity":0.3937007874015748},{"duration":0.1875,"midi":40,"time":435.3046875,"velocity":0.3937007874015748},{"duration":0.1875,"midi":81,"time":435.3046875,"velocity":0.3937007874015748},{"duration":0.1875,"midi":41,"time":435.328125,"velocity":0.3937007874015748},{"duration":0.1875,"midi":80,"time":435.328125,"velocity":0.3937007874015748},{"duration":0.1875,"midi":42,"time":435.3515625,"velocity":0.3937007874015748},{"duration":0.1875,"midi":79,"time":435.3515625,"velocity":0.3937007874015748},{"duration":0.1875,"midi":43,"time":435.375,"velocity":0.3937007874015748},{"duration":0.1875,"midi":78,"time":435.375,"velocity":0.3937007874015748},{"duration":0.1875,"midi":77,"time":435.3984375,"velocity":0.3937007874015748},{"duration":0.1875,"midi":44,"time":435.3984375,"velocity":0.3937007874015748},{"duration":0.1875,"midi":76,"time":435.421875,"velocity":0.3937007874015748},{"duration":0.1875,"midi":45,"time":435.421875,"velocity":0.3937007874015748},{"duration":0.1875,"midi":46,"time":435.4453125,"velocity":0.3937007874015748},{"duration":0.1875,"midi":75,"time":435.4453125,"velocity":0.3937007874015748},{"duration":0.1875,"midi":74,"time":435.46875,"velocity":0.3937007874015748},{"duration":0.1875,"midi":47,"time":435.46875,"velocity":0.3937007874015748},{"duration":0.1875,"midi":73,"time":435.4921875,"velocity":0.3937007874015748},{"duration":0.1875,"midi":48,"time":435.4921875,"velocity":0.3937007874015748},{"duration":0.1875,"midi":49,"time":435.515625,"velocity":0.3937007874015748},{"duration":0.1875,"midi":72,"time":435.515625,"velocity":0.3937007874015748},{"duration":0.1875,"midi":50,"time":435.5390625,"velocity":0.3937007874015748},{"duration":0.1875,"midi":71,"time":435.5390625,"velocity":0.3937007874015748},{"duration":0.1875,"midi":51,"time":435.5625,"velocity":0.3937007874015748},{"duration":0.1875,"midi":70,"time":435.5625,"velocity":0.3937007874015748},{"duration":0.1875,"midi":69,"time":435.5859375,"velocity":0.3937007874015748},{"duration":0.1875,"midi":52,"time":435.5859375,"velocity":0.3937007874015748},{"duration":0.1875,"midi":53,"time":435.609375,"velocity":0.3937007874015748},{"duration":0.1875,"midi":68,"time":435.609375,"velocity":0.3937007874015748},{"duration":0.1875,"midi":67,"time":435.6328125,"velocity":0.3937007874015748},{"duration":0.1875,"midi":54,"time":435.6328125,"velocity":0.3937007874015748},{"duration":0.1875,"midi":55,"time":435.65625,"velocity":0.3937007874015748},{"duration":0.1875,"midi":66,"time":435.65625,"velocity":0.3937007874015748},{"duration":0.1875,"midi":65,"time":435.6796875,"velocity":0.3937007874015748},{"duration":0.1875,"midi":56,"time":435.6796875,"velocity":0.3937007874015748},{"duration":0.1875,"midi":64,"time":435.703125,"velocity":0.3937007874015748},{"duration":0.1875,"midi":57,"time":435.703125,"velocity":0.3937007874015748},{"duration":0.1875,"midi":58,"time":435.7265625,"velocity":0.3937007874015748},{"duration":0.1875,"midi":63,"time":435.7265625,"velocity":0.3937007874015748},{"duration":0.1875,"midi":59,"time":435.75,"velocity":0.3937007874015748},{"duration":0.1875,"midi":62,"time":435.75,"velocity":0.3937007874015748},{"duration":0.1875,"midi":60,"time":435.7734375,"velocity":0.3937007874015748},{"duration":0.1875,"midi":61,"time":435.7734375,"velocity":0.3937007874015748},{"duration":0.1875,"midi":60,"time":435.796875,"velocity":0.3937007874015748},{"duration":0.1875,"midi":61,"time":435.796875,"velocity":0.3937007874015748},{"duration":0.1875,"midi":62,"time":435.8203125,"velocity":0.3937007874015748},{"duration":0.1875,"midi":59,"time":435.8203125,"velocity":0.3937007874015748},{"duration":0.1875,"midi":63,"time":435.84375,"velocity":0.3937007874015748},{"duration":0.1875,"midi":58,"time":435.84375,"velocity":0.3937007874015748},{"duration":0.1875,"midi":64,"time":435.8671875,"velocity":0.3937007874015748},{"duration":0.1875,"midi":57,"time":435.8671875,"velocity":0.3937007874015748},{"duration":0.1875,"midi":56,"time":435.890625,"velocity":0.3937007874015748},{"duration":0.1875,"midi":65,"time":435.890625,"velocity":0.3937007874015748},{"duration":0.1875,"midi":66,"time":435.9140625,"velocity":0.3937007874015748},{"duration":0.1875,"midi":55,"time":435.9140625,"velocity":0.3937007874015748},{"duration":0.1875,"midi":67,"time":435.9375,"velocity":0.3937007874015748},{"duration":0.1875,"midi":54,"time":435.9375,"velocity":0.3937007874015748},{"duration":0.1875,"midi":68,"time":435.9609375,"velocity":0.3937007874015748},{"duration":0.1875,"midi":53,"time":435.9609375,"velocity":0.3937007874015748},{"duration":0.1875,"midi":52,"time":435.984375,"velocity":0.3937007874015748},{"duration":0.1875,"midi":69,"time":435.984375,"velocity":0.3937007874015748},{"duration":0.1875,"midi":51,"time":436.0078125,"velocity":0.3937007874015748},{"duration":0.1875,"midi":70,"time":436.0078125,"velocity":0.3937007874015748},{"duration":0.1875,"midi":71,"time":436.03125,"velocity":0.3937007874015748},{"duration":0.1875,"midi":50,"time":436.03125,"velocity":0.3937007874015748},{"duration":0.1875,"midi":49,"time":436.0546875,"velocity":0.3937007874015748},{"duration":0.1875,"midi":72,"time":436.0546875,"velocity":0.3937007874015748},{"duration":0.1875,"midi":48,"time":436.078125,"velocity":0.3937007874015748},{"duration":0.1875,"midi":73,"time":436.078125,"velocity":0.3937007874015748},{"duration":0.1875,"midi":74,"time":436.1015625,"velocity":0.3937007874015748},{"duration":0.1875,"midi":47,"time":436.1015625,"velocity":0.3937007874015748},{"duration":0.1875,"midi":46,"time":436.125,"velocity":0.3937007874015748},{"duration":0.1875,"midi":75,"time":436.125,"velocity":0.3937007874015748},{"duration":0.1875,"midi":76,"time":436.1484375,"velocity":0.3937007874015748},{"duration":0.1875,"midi":45,"time":436.1484375,"velocity":0.3937007874015748},{"duration":0.1875,"midi":77,"time":436.171875,"velocity":0.3937007874015748},{"duration":0.1875,"midi":44,"time":436.171875,"velocity":0.3937007874015748},{"duration":0.1875,"midi":43,"time":436.1953125,"velocity":0.3937007874015748},{"duration":0.1875,"midi":78,"time":436.1953125,"velocity":0.3937007874015748},{"duration":0.1875,"midi":42,"time":436.21875,"velocity":0.3937007874015748},{"duration":0.1875,"midi":79,"time":436.21875,"velocity":0.3937007874015748},{"duration":0.1875,"midi":80,"time":436.2421875,"velocity":0.3937007874015748},{"duration":0.1875,"midi":41,"time":436.2421875,"velocity":0.3937007874015748},{"duration":0.1875,"midi":40,"time":436.265625,"velocity":0.3937007874015748},{"duration":0.1875,"midi":81,"time":436.265625,"velocity":0.3937007874015748},{"duration":0.1875,"midi":82,"time":436.2890625,"velocity":0.3937007874015748},{"duration":0.1875,"midi":39,"time":436.2890625,"velocity":0.3937007874015748},{"duration":0.1875,"midi":83,"time":436.3125,"velocity":0.3937007874015748},{"duration":0.1875,"midi":38,"time":436.3125,"velocity":0.3937007874015748},{"duration":0.1875,"midi":84,"time":436.3359375,"velocity":0.3937007874015748},{"duration":0.1875,"midi":37,"time":436.3359375,"velocity":0.3937007874015748},{"duration":0.1875,"midi":85,"time":436.359375,"velocity":0.3937007874015748},{"duration":0.1875,"midi":36,"time":436.359375,"velocity":0.3937007874015748},{"duration":0.1875,"midi":86,"time":436.3828125,"velocity":0.3937007874015748},{"duration":0.1875,"midi":35,"time":436.3828125,"velocity":0.3937007874015748},{"duration":0.1875,"midi":87,"time":436.40625,"velocity":0.3937007874015748},{"duration":0.1875,"midi":34,"time":436.40625,"velocity":0.3937007874015748},{"duration":0.1875,"midi":88,"time":436.4296875,"velocity":0.3937007874015748},{"duration":0.1875,"midi":33,"time":436.4296875,"velocity":0.3937007874015748},{"duration":0.1875,"midi":89,"time":436.453125,"velocity":0.3937007874015748},{"duration":0.1875,"midi":32,"time":436.453125,"velocity":0.3937007874015748},{"duration":0.1875,"midi":31,"time":436.4765625,"velocity":0.3937007874015748},{"duration":0.1875,"midi":90,"time":436.4765625,"velocity":0.3937007874015748},{"duration":0.1875,"midi":30,"time":436.5,"velocity":0.3937007874015748},{"duration":0.1875,"midi":91,"time":436.5,"velocity":0.3937007874015748},{"duration":0.1875,"midi":93,"time":436.5,"velocity":0.3937007874015748},{"duration":0.1875,"midi":28,"time":436.5,"velocity":0.3937007874015748},{"duration":0.1875,"midi":92,"time":436.5234375,"velocity":0.3937007874015748},{"duration":0.1875,"midi":29,"time":436.5234375,"velocity":0.3937007874015748},{"duration":0.1875,"midi":91,"time":436.546875,"velocity":0.3937007874015748},{"duration":0.1875,"midi":30,"time":436.546875,"velocity":0.3937007874015748},{"duration":0.1875,"midi":90,"time":436.5703125,"velocity":0.3937007874015748},{"duration":0.1875,"midi":31,"time":436.5703125,"velocity":0.3937007874015748},{"duration":0.1875,"midi":32,"time":436.59375,"velocity":0.3937007874015748},{"duration":0.1875,"midi":89,"time":436.59375,"velocity":0.3937007874015748},{"duration":0.1875,"midi":33,"time":436.6171875,"velocity":0.3937007874015748},{"duration":0.1875,"midi":88,"time":436.6171875,"velocity":0.3937007874015748},{"duration":0.1875,"midi":87,"time":436.640625,"velocity":0.3937007874015748},{"duration":0.1875,"midi":34,"time":436.640625,"velocity":0.3937007874015748},{"duration":0.1875,"midi":86,"time":436.6640625,"velocity":0.3937007874015748},{"duration":0.1875,"midi":35,"time":436.6640625,"velocity":0.3937007874015748},{"duration":0.1875,"midi":36,"time":436.6875,"velocity":0.3937007874015748},{"duration":0.1875,"midi":85,"time":436.6875,"velocity":0.3937007874015748},{"duration":0.1875,"midi":84,"time":436.7109375,"velocity":0.3937007874015748},{"duration":0.1875,"midi":37,"time":436.7109375,"velocity":0.3937007874015748},{"duration":0.1875,"midi":38,"time":436.734375,"velocity":0.3937007874015748},{"duration":0.1875,"midi":83,"time":436.734375,"velocity":0.3937007874015748},{"duration":0.1875,"midi":39,"time":436.7578125,"velocity":0.3937007874015748},{"duration":0.1875,"midi":82,"time":436.7578125,"velocity":0.3937007874015748},{"duration":0.1875,"midi":81,"time":436.78125,"velocity":0.3937007874015748},{"duration":0.1875,"midi":40,"time":436.78125,"velocity":0.3937007874015748},{"duration":0.1875,"midi":41,"time":436.8046875,"velocity":0.3937007874015748},{"duration":0.1875,"midi":80,"time":436.8046875,"velocity":0.3937007874015748},{"duration":0.1875,"midi":42,"time":436.828125,"velocity":0.3937007874015748},{"duration":0.1875,"midi":79,"time":436.828125,"velocity":0.3937007874015748},{"duration":0.1875,"midi":43,"time":436.8515625,"velocity":0.3937007874015748},{"duration":0.1875,"midi":78,"time":436.8515625,"velocity":0.3937007874015748},{"duration":0.1875,"midi":77,"time":436.875,"velocity":0.3937007874015748},{"duration":0.1875,"midi":44,"time":436.875,"velocity":0.3937007874015748},{"duration":0.1875,"midi":76,"time":436.8984375,"velocity":0.3937007874015748},{"duration":0.1875,"midi":45,"time":436.8984375,"velocity":0.3937007874015748},{"duration":0.1875,"midi":75,"time":436.921875,"velocity":0.3937007874015748},{"duration":0.1875,"midi":46,"time":436.921875,"velocity":0.3937007874015748},{"duration":0.1875,"midi":47,"time":436.9453125,"velocity":0.3937007874015748},{"duration":0.1875,"midi":74,"time":436.9453125,"velocity":0.3937007874015748},{"duration":0.1875,"midi":73,"time":436.96875,"velocity":0.3937007874015748},{"duration":0.1875,"midi":48,"time":436.96875,"velocity":0.3937007874015748},{"duration":0.1875,"midi":49,"time":436.9921875,"velocity":0.3937007874015748},{"duration":0.1875,"midi":72,"time":436.9921875,"velocity":0.3937007874015748},{"duration":0.1875,"midi":71,"time":437.015625,"velocity":0.3937007874015748},{"duration":0.1875,"midi":50,"time":437.015625,"velocity":0.3937007874015748},{"duration":0.1875,"midi":51,"time":437.0390625,"velocity":0.3937007874015748},{"duration":0.1875,"midi":70,"time":437.0390625,"velocity":0.3937007874015748},{"duration":0.1875,"midi":69,"time":437.0625,"velocity":0.3937007874015748},{"duration":0.1875,"midi":52,"time":437.0625,"velocity":0.3937007874015748},{"duration":0.1875,"midi":68,"time":437.0859375,"velocity":0.3937007874015748},{"duration":0.1875,"midi":53,"time":437.0859375,"velocity":0.3937007874015748},{"duration":0.1875,"midi":54,"time":437.109375,"velocity":0.3937007874015748},{"duration":0.1875,"midi":67,"time":437.109375,"velocity":0.3937007874015748},{"duration":0.1875,"midi":66,"time":437.1328125,"velocity":0.3937007874015748},{"duration":0.1875,"midi":55,"time":437.1328125,"velocity":0.3937007874015748},{"duration":0.1875,"midi":56,"time":437.15625,"velocity":0.3937007874015748},{"duration":0.1875,"midi":65,"time":437.15625,"velocity":0.3937007874015748},{"duration":0.1875,"midi":64,"time":437.1796875,"velocity":0.3937007874015748},{"duration":0.1875,"midi":57,"time":437.1796875,"velocity":0.3937007874015748},{"duration":0.1875,"midi":63,"time":437.203125,"velocity":0.3937007874015748},{"duration":0.1875,"midi":58,"time":437.203125,"velocity":0.3937007874015748},{"duration":0.1875,"midi":62,"time":437.2265625,"velocity":0.3937007874015748},{"duration":0.1875,"midi":59,"time":437.2265625,"velocity":0.3937007874015748},{"duration":0.1875,"midi":60,"time":437.25,"velocity":0.3937007874015748},{"duration":0.1875,"midi":61,"time":437.25,"velocity":0.3937007874015748},{"duration":0.1875,"midi":61,"time":437.2734375,"velocity":0.3937007874015748},{"duration":0.1875,"midi":60,"time":437.2734375,"velocity":0.3937007874015748},{"duration":0.1875,"midi":59,"time":437.296875,"velocity":0.3937007874015748},{"duration":0.1875,"midi":62,"time":437.296875,"velocity":0.3937007874015748},{"duration":0.1875,"midi":63,"time":437.3203125,"velocity":0.3937007874015748},{"duration":0.1875,"midi":58,"time":437.3203125,"velocity":0.3937007874015748},{"duration":0.1875,"midi":64,"time":437.34375,"velocity":0.3937007874015748},{"duration":0.1875,"midi":57,"time":437.34375,"velocity":0.3937007874015748},{"duration":0.1875,"midi":65,"time":437.3671875,"velocity":0.3937007874015748},{"duration":0.1875,"midi":56,"time":437.3671875,"velocity":0.3937007874015748},{"duration":0.1875,"midi":55,"time":437.390625,"velocity":0.3937007874015748},{"duration":0.1875,"midi":66,"time":437.390625,"velocity":0.3937007874015748},{"duration":0.1875,"midi":67,"time":437.4140625,"velocity":0.3937007874015748},{"duration":0.1875,"midi":54,"time":437.4140625,"velocity":0.3937007874015748},{"duration":0.1875,"midi":68,"time":437.4375,"velocity":0.3937007874015748},{"duration":0.1875,"midi":53,"time":437.4375,"velocity":0.3937007874015748},{"duration":0.1875,"midi":69,"time":437.4609375,"velocity":0.3937007874015748},{"duration":0.1875,"midi":52,"time":437.4609375,"velocity":0.3937007874015748},{"duration":0.1875,"midi":70,"time":437.484375,"velocity":0.3937007874015748},{"duration":0.1875,"midi":51,"time":437.484375,"velocity":0.3937007874015748},{"duration":0.1875,"midi":50,"time":437.5078125,"velocity":0.3937007874015748},{"duration":0.1875,"midi":71,"time":437.5078125,"velocity":0.3937007874015748},{"duration":0.1875,"midi":49,"time":437.53125,"velocity":0.3937007874015748},{"duration":0.1875,"midi":72,"time":437.53125,"velocity":0.3937007874015748},{"duration":0.1875,"midi":48,"time":437.5546875,"velocity":0.3937007874015748},{"duration":0.1875,"midi":73,"time":437.5546875,"velocity":0.3937007874015748},{"duration":0.1875,"midi":47,"time":437.578125,"velocity":0.3937007874015748},{"duration":0.1875,"midi":74,"time":437.578125,"velocity":0.3937007874015748},{"duration":0.1875,"midi":75,"time":437.6015625,"velocity":0.3937007874015748},{"duration":0.1875,"midi":46,"time":437.6015625,"velocity":0.3937007874015748},{"duration":0.1875,"midi":45,"time":437.625,"velocity":0.3937007874015748},{"duration":0.1875,"midi":76,"time":437.625,"velocity":0.3937007874015748},{"duration":0.1875,"midi":77,"time":437.6484375,"velocity":0.3937007874015748},{"duration":0.1875,"midi":44,"time":437.6484375,"velocity":0.3937007874015748},{"duration":0.1875,"midi":78,"time":437.671875,"velocity":0.3937007874015748},{"duration":0.1875,"midi":43,"time":437.671875,"velocity":0.3937007874015748},{"duration":0.1875,"midi":42,"time":437.6953125,"velocity":0.3937007874015748},{"duration":0.1875,"midi":79,"time":437.6953125,"velocity":0.3937007874015748},{"duration":0.1875,"midi":41,"time":437.71875,"velocity":0.3937007874015748},{"duration":0.1875,"midi":80,"time":437.71875,"velocity":0.3937007874015748},{"duration":0.1875,"midi":81,"time":437.7421875,"velocity":0.3937007874015748},{"duration":0.1875,"midi":40,"time":437.7421875,"velocity":0.3937007874015748},{"duration":0.1875,"midi":82,"time":437.765625,"velocity":0.3937007874015748},{"duration":0.1875,"midi":39,"time":437.765625,"velocity":0.3937007874015748},{"duration":0.1875,"midi":38,"time":437.7890625,"velocity":0.3937007874015748},{"duration":0.1875,"midi":83,"time":437.7890625,"velocity":0.3937007874015748},{"duration":0.1875,"midi":84,"time":437.8125,"velocity":0.3937007874015748},{"duration":0.1875,"midi":37,"time":437.8125,"velocity":0.3937007874015748},{"duration":0.1875,"midi":36,"time":437.8359375,"velocity":0.3937007874015748},{"duration":0.1875,"midi":85,"time":437.8359375,"velocity":0.3937007874015748},{"duration":0.1875,"midi":86,"time":437.859375,"velocity":0.3937007874015748},{"duration":0.1875,"midi":35,"time":437.859375,"velocity":0.3937007874015748},{"duration":0.1875,"midi":34,"time":437.8828125,"velocity":0.3937007874015748},{"duration":0.1875,"midi":87,"time":437.8828125,"velocity":0.3937007874015748},{"duration":0.1875,"midi":33,"time":437.90625,"velocity":0.3937007874015748},{"duration":0.1875,"midi":88,"time":437.90625,"velocity":0.3937007874015748},{"duration":0.1875,"midi":89,"time":437.9296875,"velocity":0.3937007874015748},{"duration":0.1875,"midi":32,"time":437.9296875,"velocity":0.3937007874015748},{"duration":0.1875,"midi":90,"time":437.953125,"velocity":0.3937007874015748},{"duration":0.1875,"midi":31,"time":437.953125,"velocity":0.3937007874015748},{"duration":0.1875,"midi":91,"time":437.9765625,"velocity":0.3937007874015748},{"duration":0.1875,"midi":30,"time":437.9765625,"velocity":0.3937007874015748},{"duration":0.1875,"midi":93,"time":438,"velocity":0.3937007874015748},{"duration":0.1875,"midi":92,"time":438.0234375,"velocity":0.3937007874015748},{"duration":0.1875,"midi":91,"time":438.046875,"velocity":0.3937007874015748},{"duration":0.1875,"midi":90,"time":438.0703125,"velocity":0.3937007874015748},{"duration":0.1875,"midi":89,"time":438.09375,"velocity":0.3937007874015748},{"duration":0.1875,"midi":88,"time":438.1171875,"velocity":0.3937007874015748},{"duration":0.1875,"midi":87,"time":438.140625,"velocity":0.3937007874015748},{"duration":0.1875,"midi":86,"time":438.1640625,"velocity":0.3937007874015748},{"duration":0.1875,"midi":85,"time":438.1875,"velocity":0.3937007874015748},{"duration":0.1875,"midi":84,"time":438.2109375,"velocity":0.3937007874015748},{"duration":0.1875,"midi":83,"time":438.234375,"velocity":0.3937007874015748},{"duration":0.1875,"midi":82,"time":438.2578125,"velocity":0.3937007874015748},{"duration":0.1875,"midi":81,"time":438.28125,"velocity":0.3937007874015748},{"duration":0.1875,"midi":80,"time":438.3046875,"velocity":0.3937007874015748},{"duration":0.1875,"midi":79,"time":438.328125,"velocity":0.3937007874015748},{"duration":0.1875,"midi":78,"time":438.3515625,"velocity":0.3937007874015748},{"duration":0.1875,"midi":77,"time":438.375,"velocity":0.3937007874015748},{"duration":0.1875,"midi":76,"time":438.3984375,"velocity":0.3937007874015748},{"duration":0.1875,"midi":75,"time":438.421875,"velocity":0.3937007874015748},{"duration":0.1875,"midi":74,"time":438.4453125,"velocity":0.3937007874015748},{"duration":0.1875,"midi":73,"time":438.46875,"velocity":0.3937007874015748},{"duration":0.1875,"midi":72,"time":438.4921875,"velocity":0.3937007874015748},{"duration":0.1875,"midi":71,"time":438.515625,"velocity":0.3937007874015748},{"duration":0.1875,"midi":70,"time":438.5390625,"velocity":0.3937007874015748},{"duration":0.1875,"midi":69,"time":438.5625,"velocity":0.3937007874015748},{"duration":0.1875,"midi":68,"time":438.5859375,"velocity":0.3937007874015748},{"duration":0.1875,"midi":67,"time":438.609375,"velocity":0.3937007874015748},{"duration":0.1875,"midi":66,"time":438.6328125,"velocity":0.3937007874015748},{"duration":0.1875,"midi":65,"time":438.65625,"velocity":0.3937007874015748},{"duration":0.1875,"midi":64,"time":438.6796875,"velocity":0.3937007874015748},{"duration":0.1875,"midi":63,"time":438.703125,"velocity":0.3937007874015748},{"duration":0.1875,"midi":62,"time":438.7265625,"velocity":0.3937007874015748},{"duration":0.1875,"midi":61,"time":438.75,"velocity":0.3937007874015748},{"duration":0.1875,"midi":60,"time":438.7734375,"velocity":0.3937007874015748},{"duration":0.1875,"midi":59,"time":438.796875,"velocity":0.3937007874015748},{"duration":0.1875,"midi":58,"time":438.8203125,"velocity":0.3937007874015748},{"duration":0.1875,"midi":57,"time":438.84375,"velocity":0.3937007874015748},{"duration":0.1875,"midi":56,"time":438.8671875,"velocity":0.3937007874015748},{"duration":0.1875,"midi":55,"time":438.890625,"velocity":0.3937007874015748},{"duration":0.1875,"midi":54,"time":438.9140625,"velocity":0.3937007874015748},{"duration":0.1875,"midi":53,"time":438.9375,"velocity":0.3937007874015748},{"duration":0.1875,"midi":52,"time":438.9609375,"velocity":0.3937007874015748},{"duration":0.1875,"midi":51,"time":438.984375,"velocity":0.3937007874015748},{"duration":0.1875,"midi":50,"time":439.0078125,"velocity":0.3937007874015748},{"duration":0.1875,"midi":49,"time":439.03125,"velocity":0.3937007874015748},{"duration":0.1875,"midi":48,"time":439.0546875,"velocity":0.3937007874015748},{"duration":0.1875,"midi":47,"time":439.078125,"velocity":0.3937007874015748},{"duration":0.1875,"midi":46,"time":439.1015625,"velocity":0.3937007874015748},{"duration":0.1875,"midi":45,"time":439.125,"velocity":0.3937007874015748},{"duration":0.1875,"midi":44,"time":439.1484375,"velocity":0.3937007874015748},{"duration":0.1875,"midi":43,"time":439.171875,"velocity":0.3937007874015748},{"duration":0.1875,"midi":42,"time":439.1953125,"velocity":0.3937007874015748},{"duration":0.1875,"midi":41,"time":439.21875,"velocity":0.3937007874015748},{"duration":0.1875,"midi":40,"time":439.2421875,"velocity":0.3937007874015748},{"duration":0.1875,"midi":39,"time":439.265625,"velocity":0.3937007874015748},{"duration":0.1875,"midi":38,"time":439.2890625,"velocity":0.3937007874015748},{"duration":0.1875,"midi":37,"time":439.3125,"velocity":0.3937007874015748},{"duration":0.1875,"midi":36,"time":439.3359375,"velocity":0.3937007874015748},{"duration":0.1875,"midi":35,"time":439.359375,"velocity":0.3937007874015748},{"duration":0.1875,"midi":34,"time":439.3828125,"velocity":0.3937007874015748},{"duration":0.1875,"midi":33,"time":439.40625,"velocity":0.3937007874015748},{"duration":0.1875,"midi":32,"time":439.4296875,"velocity":0.3937007874015748},{"duration":0.1875,"midi":31,"time":439.453125,"velocity":0.3937007874015748},{"duration":0.1875,"midi":30,"time":439.4765625,"velocity":0.3937007874015748},{"duration":0.1875,"midi":93,"time":439.5,"velocity":0.3937007874015748},{"duration":0.1875,"midi":92,"time":439.5234375,"velocity":0.3937007874015748},{"duration":0.1875,"midi":91,"time":439.546875,"velocity":0.3937007874015748},{"duration":0.1875,"midi":90,"time":439.5703125,"velocity":0.3937007874015748},{"duration":0.1875,"midi":89,"time":439.59375,"velocity":0.3937007874015748},{"duration":0.1875,"midi":88,"time":439.6171875,"velocity":0.3937007874015748},{"duration":0.1875,"midi":87,"time":439.640625,"velocity":0.3937007874015748},{"duration":0.1875,"midi":86,"time":439.6640625,"velocity":0.3937007874015748},{"duration":0.1875,"midi":85,"time":439.6875,"velocity":0.3937007874015748},{"duration":0.1875,"midi":84,"time":439.7109375,"velocity":0.3937007874015748},{"duration":0.1875,"midi":83,"time":439.734375,"velocity":0.3937007874015748},{"duration":0.1875,"midi":82,"time":439.7578125,"velocity":0.3937007874015748},{"duration":0.1875,"midi":81,"time":439.78125,"velocity":0.3937007874015748},{"duration":0.1875,"midi":80,"time":439.8046875,"velocity":0.3937007874015748},{"duration":0.1875,"midi":79,"time":439.828125,"velocity":0.3937007874015748},{"duration":0.1875,"midi":78,"time":439.8515625,"velocity":0.3937007874015748},{"duration":0.1875,"midi":77,"time":439.875,"velocity":0.3937007874015748},{"duration":0.1875,"midi":76,"time":439.8984375,"velocity":0.3937007874015748},{"duration":0.1875,"midi":75,"time":439.921875,"velocity":0.3937007874015748},{"duration":0.1875,"midi":74,"time":439.9453125,"velocity":0.3937007874015748},{"duration":0.1875,"midi":73,"time":439.96875,"velocity":0.3937007874015748},{"duration":0.1875,"midi":72,"time":439.9921875,"velocity":0.3937007874015748},{"duration":0.1875,"midi":71,"time":440.015625,"velocity":0.3937007874015748},{"duration":0.1875,"midi":70,"time":440.0390625,"velocity":0.3937007874015748},{"duration":0.1875,"midi":69,"time":440.0625,"velocity":0.3937007874015748},{"duration":0.1875,"midi":68,"time":440.0859375,"velocity":0.3937007874015748},{"duration":0.1875,"midi":67,"time":440.109375,"velocity":0.3937007874015748},{"duration":0.1875,"midi":66,"time":440.1328125,"velocity":0.3937007874015748},{"duration":0.1875,"midi":65,"time":440.15625,"velocity":0.3937007874015748},{"duration":0.1875,"midi":64,"time":440.1796875,"velocity":0.3937007874015748},{"duration":0.1875,"midi":63,"time":440.203125,"velocity":0.3937007874015748},{"duration":0.1875,"midi":62,"time":440.2265625,"velocity":0.3937007874015748},{"duration":0.375,"midi":86,"time":440.25,"velocity":0.3937007874015748},{"duration":0.375,"midi":85,"time":440.25,"velocity":0.3937007874015748},{"duration":0.375,"midi":33,"time":440.25,"velocity":0.3937007874015748},{"duration":0.375,"midi":78,"time":440.25,"velocity":0.3937007874015748},{"duration":0.375,"midi":72,"time":440.25,"velocity":0.3937007874015748},{"duration":0.375,"midi":36,"time":440.25,"velocity":0.3937007874015748},{"duration":0.375,"midi":26,"time":440.25,"velocity":0.3937007874015748},{"duration":0.3515625,"midi":54,"time":440.25,"velocity":0.3937007874015748},{"duration":0.375,"midi":46,"time":440.25,"velocity":0.3937007874015748},{"duration":0.2578125,"midi":58,"time":440.25,"velocity":0.3937007874015748},{"duration":0.375,"midi":94,"time":440.25,"velocity":0.3937007874015748},{"duration":0.375,"midi":41,"time":440.25,"velocity":0.3937007874015748},{"duration":0.375,"midi":92,"time":440.25,"velocity":0.3937007874015748},{"duration":0.375,"midi":30,"time":440.25,"velocity":0.3937007874015748},{"duration":0.375,"midi":81,"time":440.25,"velocity":0.3937007874015748},{"duration":0.375,"midi":50,"time":440.25,"velocity":0.3937007874015748},{"duration":0.28125,"midi":57,"time":440.25,"velocity":0.3937007874015748},{"duration":0.375,"midi":84,"time":440.25,"velocity":0.3937007874015748},{"duration":0.375,"midi":37,"time":440.25,"velocity":0.3937007874015748},{"duration":0.375,"midi":42,"time":440.25,"velocity":0.3937007874015748},{"duration":0.375,"midi":93,"time":440.25,"velocity":0.3937007874015748},{"duration":0.375,"midi":35,"time":440.25,"velocity":0.3937007874015748},{"duration":0.375,"midi":28,"time":440.25,"velocity":0.3937007874015748},{"duration":0.375,"midi":32,"time":440.25,"velocity":0.3937007874015748},{"duration":0.375,"midi":75,"time":440.25,"velocity":0.3937007874015748},{"duration":0.375,"midi":31,"time":440.25,"velocity":0.3937007874015748},{"duration":0.375,"midi":34,"time":440.25,"velocity":0.3937007874015748},{"duration":0.375,"midi":82,"time":440.25,"velocity":0.3937007874015748},{"duration":0.375,"midi":63,"time":440.25,"velocity":0.3937007874015748},{"duration":0.375,"midi":67,"time":440.25,"velocity":0.3937007874015748},{"duration":0.375,"midi":89,"time":440.25,"velocity":0.3937007874015748},{"duration":0.375,"midi":66,"time":440.25,"velocity":0.3937007874015748},{"duration":0.375,"midi":88,"time":440.25,"velocity":0.3937007874015748},{"duration":0.375,"midi":74,"time":440.25,"velocity":0.3937007874015748},{"duration":0.375,"midi":45,"time":440.25,"velocity":0.3937007874015748},{"duration":0.375,"midi":68,"time":440.25,"velocity":0.3937007874015748},{"duration":0.375,"midi":79,"time":440.25,"velocity":0.3937007874015748},{"duration":0.375,"midi":71,"time":440.25,"velocity":0.3937007874015748},{"duration":0.375,"midi":44,"time":440.25,"velocity":0.3937007874015748},{"duration":0.328125,"midi":55,"time":440.25,"velocity":0.3937007874015748},{"duration":0.375,"midi":77,"time":440.25,"velocity":0.3937007874015748},{"duration":0.375,"midi":70,"time":440.25,"velocity":0.3937007874015748},{"duration":0.375,"midi":47,"time":440.25,"velocity":0.3937007874015748},{"duration":0.1875,"midi":61,"time":440.25,"velocity":0.3937007874015748},{"duration":0.375,"midi":65,"time":440.25,"velocity":0.3937007874015748},{"duration":0.375,"midi":53,"time":440.25,"velocity":0.3937007874015748},{"duration":0.375,"midi":43,"time":440.25,"velocity":0.3937007874015748},{"duration":0.375,"midi":48,"time":440.25,"velocity":0.3937007874015748},{"duration":0.375,"midi":29,"time":440.25,"velocity":0.3937007874015748},{"duration":0.375,"midi":73,"time":440.25,"velocity":0.3937007874015748},{"duration":0.375,"midi":51,"time":440.25,"velocity":0.3937007874015748},{"duration":0.375,"midi":61,"time":440.25,"velocity":0.3937007874015748},{"duration":0.375,"midi":80,"time":440.25,"velocity":0.3937007874015748},{"duration":0.375,"midi":40,"time":440.25,"velocity":0.3937007874015748},{"duration":0.375,"midi":52,"time":440.25,"velocity":0.3937007874015748},{"duration":0.2109375,"midi":60,"time":440.25,"velocity":0.3937007874015748},{"duration":0.375,"midi":38,"time":440.25,"velocity":0.3937007874015748},{"duration":0.375,"midi":83,"time":440.25,"velocity":0.3937007874015748},{"duration":0.375,"midi":69,"time":440.25,"velocity":0.3937007874015748},{"duration":0.375,"midi":27,"time":440.25,"velocity":0.3937007874015748},{"duration":0.375,"midi":62,"time":440.25,"velocity":0.3937007874015748},{"duration":0.375,"midi":39,"time":440.25,"velocity":0.3937007874015748},{"duration":0.375,"midi":76,"time":440.25,"velocity":0.3937007874015748},{"duration":0.375,"midi":25,"time":440.25,"velocity":0.3937007874015748},{"duration":0.375,"midi":90,"time":440.25,"velocity":0.3937007874015748},{"duration":0.375,"midi":64,"time":440.25,"velocity":0.3937007874015748},{"duration":0.234375,"midi":59,"time":440.25,"velocity":0.3937007874015748},{"duration":0.375,"midi":91,"time":440.25,"velocity":0.3937007874015748},{"duration":0.375,"midi":87,"time":440.25,"velocity":0.3937007874015748},{"duration":0.375,"midi":49,"time":440.25,"velocity":0.3937007874015748},{"duration":0.3046875,"midi":56,"time":440.25,"velocity":0.3937007874015748},{"duration":0.375,"midi":95,"time":440.25,"velocity":0.3937007874015748},{"duration":0.375,"midi":24,"time":440.25,"velocity":0.3937007874015748},{"duration":0.3515625,"midi":60,"time":440.2734375,"velocity":0.3937007874015748},{"duration":0.328125,"midi":59,"time":440.296875,"velocity":0.3937007874015748},{"duration":0.3046875,"midi":58,"time":440.3203125,"velocity":0.3937007874015748},{"duration":0.28125,"midi":57,"time":440.34375,"velocity":0.3937007874015748},{"duration":0.2578125,"midi":56,"time":440.3671875,"velocity":0.3937007874015748},{"duration":0.234375,"midi":55,"time":440.390625,"velocity":0.3937007874015748},{"duration":0.2109375,"midi":54,"time":440.4140625,"velocity":0.3937007874015748},{"duration":0.1875,"midi":53,"time":440.4375,"velocity":0.3937007874015748},{"duration":0.1875,"midi":52,"time":440.4609375,"velocity":0.3937007874015748},{"duration":0.1875,"midi":51,"time":440.484375,"velocity":0.3937007874015748},{"duration":0.1875,"midi":50,"time":440.5078125,"velocity":0.3937007874015748},{"duration":0.1875,"midi":49,"time":440.53125,"velocity":0.3937007874015748},{"duration":0.1875,"midi":48,"time":440.5546875,"velocity":0.3937007874015748},{"duration":0.1875,"midi":47,"time":440.578125,"velocity":0.3937007874015748},{"duration":0.1875,"midi":46,"time":440.6015625,"velocity":0.3937007874015748},{"duration":0.1875,"midi":45,"time":440.625,"velocity":0.3937007874015748},{"duration":0.1875,"midi":44,"time":440.6484375,"velocity":0.3937007874015748},{"duration":0.1875,"midi":43,"time":440.671875,"velocity":0.3937007874015748},{"duration":0.1875,"midi":42,"time":440.6953125,"velocity":0.3937007874015748},{"duration":0.1875,"midi":41,"time":440.71875,"velocity":0.3937007874015748},{"duration":0.1875,"midi":40,"time":440.7421875,"velocity":0.3937007874015748},{"duration":0.1875,"midi":39,"time":440.765625,"velocity":0.3937007874015748},{"duration":0.1875,"midi":38,"time":440.7890625,"velocity":0.3937007874015748},{"duration":0.1875,"midi":37,"time":440.8125,"velocity":0.3937007874015748},{"duration":0.1875,"midi":36,"time":440.8359375,"velocity":0.3937007874015748},{"duration":0.1875,"midi":35,"time":440.859375,"velocity":0.3937007874015748},{"duration":0.1875,"midi":34,"time":440.8828125,"velocity":0.3937007874015748},{"duration":0.1875,"midi":33,"time":440.90625,"velocity":0.3937007874015748},{"duration":0.1875,"midi":32,"time":440.9296875,"velocity":0.3937007874015748},{"duration":0.1875,"midi":31,"time":440.953125,"velocity":0.3937007874015748},{"duration":0.1875,"midi":30,"time":440.9765625,"velocity":0.3937007874015748},{"duration":0.375,"midi":79,"time":441,"velocity":0.3937007874015748},{"duration":0.375,"midi":70,"time":441,"velocity":0.3937007874015748},{"duration":0.375,"midi":74,"time":441,"velocity":0.3937007874015748},{"duration":0.375,"midi":46,"time":441,"velocity":0.3937007874015748},{"duration":0.375,"midi":35,"time":441,"velocity":0.3937007874015748},{"duration":0.375,"midi":85,"time":441,"velocity":0.3937007874015748},{"duration":0.375,"midi":84,"time":441,"velocity":0.3937007874015748},{"duration":0.375,"midi":27,"time":441,"velocity":0.3937007874015748},{"duration":0.375,"midi":39,"time":441,"velocity":0.3937007874015748},{"duration":0.375,"midi":28,"time":441,"velocity":0.3937007874015748},{"duration":0.2109375,"midi":92,"time":441,"velocity":0.3937007874015748},{"duration":0.375,"midi":45,"time":441,"velocity":0.3937007874015748},{"duration":0.375,"midi":50,"time":441,"velocity":0.3937007874015748},{"duration":0.28125,"midi":89,"time":441,"velocity":0.3937007874015748},{"duration":0.375,"midi":47,"time":441,"velocity":0.3937007874015748},{"duration":0.375,"midi":48,"time":441,"velocity":0.3937007874015748},{"duration":0.375,"midi":64,"time":441,"velocity":0.3937007874015748},{"duration":0.375,"midi":25,"time":441,"velocity":0.3937007874015748},{"duration":0.375,"midi":34,"time":441,"velocity":0.3937007874015748},{"duration":0.375,"midi":51,"time":441,"velocity":0.3937007874015748},{"duration":0.375,"midi":69,"time":441,"velocity":0.3937007874015748},{"duration":0.375,"midi":80,"time":441,"velocity":0.3937007874015748},{"duration":0.375,"midi":77,"time":441,"velocity":0.3937007874015748},{"duration":0.375,"midi":62,"time":441,"velocity":0.3937007874015748},{"duration":0.375,"midi":76,"time":441,"velocity":0.3937007874015748},{"duration":0.375,"midi":24,"time":441,"velocity":0.3937007874015748},{"duration":0.375,"midi":30,"time":441,"velocity":0.3937007874015748},{"duration":0.375,"midi":59,"time":441,"velocity":0.3937007874015748},{"duration":0.328125,"midi":87,"time":441,"velocity":0.3937007874015748},{"duration":0.375,"midi":37,"time":441,"velocity":0.3937007874015748},{"duration":0.375,"midi":44,"time":441,"velocity":0.3937007874015748},{"duration":0.3046875,"midi":88,"time":441,"velocity":0.3937007874015748},{"duration":0.375,"midi":67,"time":441,"velocity":0.3937007874015748},{"duration":0.375,"midi":68,"time":441,"velocity":0.3937007874015748},{"duration":0.375,"midi":42,"time":441,"velocity":0.3937007874015748},{"duration":0.375,"midi":65,"time":441,"velocity":0.3937007874015748},{"duration":0.375,"midi":75,"time":441,"velocity":0.3937007874015748},{"duration":0.375,"midi":33,"time":441,"velocity":0.3937007874015748},{"duration":0.375,"midi":43,"time":441,"velocity":0.3937007874015748},{"duration":0.375,"midi":29,"time":441,"velocity":0.3937007874015748},{"duration":0.375,"midi":32,"time":441,"velocity":0.3937007874015748},{"duration":0.375,"midi":63,"time":441,"velocity":0.3937007874015748},{"duration":0.375,"midi":41,"time":441,"velocity":0.3937007874015748},{"duration":0.234375,"midi":91,"time":441,"velocity":0.3937007874015748},{"duration":0.375,"midi":66,"time":441,"velocity":0.3937007874015748},{"duration":0.375,"midi":60,"time":441,"velocity":0.3937007874015748},{"duration":0.375,"midi":40,"time":441,"velocity":0.3937007874015748},{"duration":0.375,"midi":71,"time":441,"velocity":0.3937007874015748},{"duration":0.375,"midi":72,"time":441,"velocity":0.3937007874015748},{"duration":0.375,"midi":61,"time":441,"velocity":0.3937007874015748},{"duration":0.375,"midi":38,"time":441,"velocity":0.3937007874015748},{"duration":0.375,"midi":49,"time":441,"velocity":0.3937007874015748},{"duration":0.375,"midi":82,"time":441,"velocity":0.3937007874015748},{"duration":0.375,"midi":55,"time":441,"velocity":0.3937007874015748},{"duration":0.2578125,"midi":90,"time":441,"velocity":0.3937007874015748},{"duration":0.375,"midi":26,"time":441,"velocity":0.3937007874015748},{"duration":0.375,"midi":53,"time":441,"velocity":0.3937007874015748},{"duration":0.375,"midi":94,"time":441,"velocity":0.3937007874015748},{"duration":0.375,"midi":58,"time":441,"velocity":0.3937007874015748},{"duration":0.375,"midi":78,"time":441,"velocity":0.3937007874015748},{"duration":0.375,"midi":54,"time":441,"velocity":0.3937007874015748},{"duration":0.375,"midi":57,"time":441,"velocity":0.3937007874015748},{"duration":0.375,"midi":81,"time":441,"velocity":0.3937007874015748},{"duration":0.375,"midi":83,"time":441,"velocity":0.3937007874015748},{"duration":0.375,"midi":36,"time":441,"velocity":0.3937007874015748},{"duration":0.375,"midi":52,"time":441,"velocity":0.3937007874015748},{"duration":0.375,"midi":31,"time":441,"velocity":0.3937007874015748},{"duration":0.375,"midi":56,"time":441,"velocity":0.3937007874015748},{"duration":0.375,"midi":95,"time":441,"velocity":0.3937007874015748},{"duration":0.1875,"midi":93,"time":441,"velocity":0.3937007874015748},{"duration":0.3515625,"midi":86,"time":441,"velocity":0.3937007874015748},{"duration":0.375,"midi":93,"time":441,"velocity":0.3937007874015748},{"duration":0.375,"midi":73,"time":441,"velocity":0.3937007874015748},{"duration":0.3515625,"midi":92,"time":441.0234375,"velocity":0.3937007874015748},{"duration":0.328125,"midi":91,"time":441.046875,"velocity":0.3937007874015748},{"duration":0.3046875,"midi":90,"time":441.0703125,"velocity":0.3937007874015748},{"duration":0.28125,"midi":89,"time":441.09375,"velocity":0.3937007874015748},{"duration":0.2578125,"midi":88,"time":441.1171875,"velocity":0.3937007874015748},{"duration":0.234375,"midi":87,"time":441.140625,"velocity":0.3937007874015748},{"duration":0.2109375,"midi":86,"time":441.1640625,"velocity":0.3937007874015748},{"duration":0.1875,"midi":85,"time":441.1875,"velocity":0.3937007874015748},{"duration":0.1875,"midi":84,"time":441.2109375,"velocity":0.3937007874015748},{"duration":0.1875,"midi":83,"time":441.234375,"velocity":0.3937007874015748},{"duration":0.1875,"midi":82,"time":441.2578125,"velocity":0.3937007874015748},{"duration":0.1875,"midi":81,"time":441.28125,"velocity":0.3937007874015748},{"duration":0.1875,"midi":80,"time":441.3046875,"velocity":0.3937007874015748},{"duration":0.1875,"midi":79,"time":441.328125,"velocity":0.3937007874015748},{"duration":0.1875,"midi":78,"time":441.3515625,"velocity":0.3937007874015748},{"duration":0.1875,"midi":77,"time":441.375,"velocity":0.3937007874015748},{"duration":0.1875,"midi":76,"time":441.3984375,"velocity":0.3937007874015748},{"duration":0.1875,"midi":75,"time":441.421875,"velocity":0.3937007874015748},{"duration":0.1875,"midi":74,"time":441.4453125,"velocity":0.3937007874015748},{"duration":0.1875,"midi":73,"time":441.46875,"velocity":0.3937007874015748},{"duration":0.1875,"midi":72,"time":441.4921875,"velocity":0.3937007874015748},{"duration":0.1875,"midi":71,"time":441.515625,"velocity":0.3937007874015748},{"duration":0.1875,"midi":70,"time":441.5390625,"velocity":0.3937007874015748},{"duration":0.1875,"midi":69,"time":441.5625,"velocity":0.3937007874015748},{"duration":0.1875,"midi":68,"time":441.5859375,"velocity":0.3937007874015748},{"duration":0.1875,"midi":67,"time":441.609375,"velocity":0.3937007874015748},{"duration":0.1875,"midi":66,"time":441.6328125,"velocity":0.3937007874015748},{"duration":0.1875,"midi":65,"time":441.65625,"velocity":0.3937007874015748},{"duration":0.1875,"midi":64,"time":441.6796875,"velocity":0.3937007874015748},{"duration":0.1875,"midi":63,"time":441.703125,"velocity":0.3937007874015748},{"duration":0.1875,"midi":62,"time":441.7265625,"velocity":0.3937007874015748},{"duration":0.1875,"midi":61,"time":441.75,"velocity":0.3937007874015748},{"duration":0.1875,"midi":60,"time":441.7734375,"velocity":0.3937007874015748},{"duration":0.1875,"midi":59,"time":441.796875,"velocity":0.3937007874015748},{"duration":0.1875,"midi":58,"time":441.8203125,"velocity":0.3937007874015748},{"duration":0.1875,"midi":57,"time":441.84375,"velocity":0.3937007874015748},{"duration":0.1875,"midi":56,"time":441.8671875,"velocity":0.3937007874015748},{"duration":0.1875,"midi":55,"time":441.890625,"velocity":0.3937007874015748},{"duration":0.1875,"midi":54,"time":441.9140625,"velocity":0.3937007874015748},{"duration":0.1875,"midi":53,"time":441.9375,"velocity":0.3937007874015748},{"duration":0.1875,"midi":52,"time":441.9609375,"velocity":0.3937007874015748},{"duration":0.1875,"midi":51,"time":441.984375,"velocity":0.3937007874015748},{"duration":0.1875,"midi":50,"time":442.0078125,"velocity":0.3937007874015748},{"duration":0.1875,"midi":49,"time":442.03125,"velocity":0.3937007874015748},{"duration":0.1875,"midi":48,"time":442.0546875,"velocity":0.3937007874015748},{"duration":0.1875,"midi":47,"time":442.078125,"velocity":0.3937007874015748},{"duration":0.1875,"midi":46,"time":442.1015625,"velocity":0.3937007874015748},{"duration":0.1875,"midi":45,"time":442.125,"velocity":0.3937007874015748},{"duration":0.1875,"midi":44,"time":442.1484375,"velocity":0.3937007874015748},{"duration":0.1875,"midi":43,"time":442.171875,"velocity":0.3937007874015748},{"duration":0.1875,"midi":42,"time":442.1953125,"velocity":0.3937007874015748},{"duration":0.1875,"midi":41,"time":442.21875,"velocity":0.3937007874015748},{"duration":0.1875,"midi":40,"time":442.2421875,"velocity":0.3937007874015748},{"duration":0.1875,"midi":39,"time":442.265625,"velocity":0.3937007874015748},{"duration":0.1875,"midi":38,"time":442.2890625,"velocity":0.3937007874015748},{"duration":0.1875,"midi":37,"time":442.3125,"velocity":0.3937007874015748},{"duration":0.1875,"midi":36,"time":442.3359375,"velocity":0.3937007874015748},{"duration":0.1875,"midi":35,"time":442.359375,"velocity":0.3937007874015748},{"duration":0.1875,"midi":34,"time":442.3828125,"velocity":0.3937007874015748},{"duration":0.1875,"midi":33,"time":442.40625,"velocity":0.3937007874015748},{"duration":0.1875,"midi":32,"time":442.4296875,"velocity":0.3937007874015748},{"duration":0.1875,"midi":31,"time":442.453125,"velocity":0.3937007874015748},{"duration":0.1875,"midi":30,"time":442.4765625,"velocity":0.3937007874015748},{"duration":0.1875,"midi":33,"time":442.5,"velocity":0.3937007874015748},{"duration":0.375,"midi":75,"time":442.5,"velocity":0.3937007874015748},{"duration":0.375,"midi":69,"time":442.5,"velocity":0.3937007874015748},{"duration":0.375,"midi":79,"time":442.5,"velocity":0.3937007874015748},{"duration":0.375,"midi":61,"time":442.5,"velocity":0.3937007874015748},{"duration":0.375,"midi":83,"time":442.5,"velocity":0.3937007874015748},{"duration":0.375,"midi":49,"time":442.5,"velocity":0.3937007874015748},{"duration":0.375,"midi":48,"time":442.5,"velocity":0.3937007874015748},{"duration":0.375,"midi":24,"time":442.5,"velocity":0.3937007874015748},{"duration":0.2109375,"midi":34,"time":442.5,"velocity":0.3937007874015748},{"duration":0.375,"midi":90,"time":442.5,"velocity":0.3937007874015748},{"duration":0.375,"midi":88,"time":442.5,"velocity":0.3937007874015748},{"duration":0.375,"midi":55,"time":442.5,"velocity":0.3937007874015748},{"duration":0.3046875,"midi":38,"time":442.5,"velocity":0.3937007874015748},{"duration":0.375,"midi":65,"time":442.5,"velocity":0.3937007874015748},{"duration":0.2578125,"midi":36,"time":442.5,"velocity":0.3937007874015748},{"duration":0.375,"midi":43,"time":442.5,"velocity":0.3937007874015748},{"duration":0.375,"midi":86,"time":442.5,"velocity":0.3937007874015748},{"duration":0.3515625,"midi":40,"time":442.5,"velocity":0.3937007874015748},{"duration":0.375,"midi":94,"time":442.5,"velocity":0.3937007874015748},{"duration":0.375,"midi":87,"time":442.5,"velocity":0.3937007874015748},{"duration":0.375,"midi":72,"time":442.5,"velocity":0.3937007874015748},{"duration":0.375,"midi":33,"time":442.5,"velocity":0.3937007874015748},{"duration":0.375,"midi":63,"time":442.5,"velocity":0.3937007874015748},{"duration":0.375,"midi":31,"time":442.5,"velocity":0.3937007874015748},{"duration":0.375,"midi":32,"time":442.5,"velocity":0.3937007874015748},{"duration":0.28125,"midi":37,"time":442.5,"velocity":0.3937007874015748},{"duration":0.375,"midi":70,"time":442.5,"velocity":0.3937007874015748},{"duration":0.375,"midi":47,"time":442.5,"velocity":0.3937007874015748},{"duration":0.375,"midi":91,"time":442.5,"velocity":0.3937007874015748},{"duration":0.375,"midi":42,"time":442.5,"velocity":0.3937007874015748},{"duration":0.375,"midi":45,"time":442.5,"velocity":0.3937007874015748},{"duration":0.375,"midi":44,"time":442.5,"velocity":0.3937007874015748},{"duration":0.375,"midi":41,"time":442.5,"velocity":0.3937007874015748},{"duration":0.375,"midi":93,"time":442.5,"velocity":0.3937007874015748},{"duration":0.375,"midi":26,"time":442.5,"velocity":0.3937007874015748},{"duration":0.375,"midi":27,"time":442.5,"velocity":0.3937007874015748},{"duration":0.375,"midi":92,"time":442.5,"velocity":0.3937007874015748},{"duration":0.375,"midi":85,"time":442.5,"velocity":0.3937007874015748},{"duration":0.328125,"midi":39,"time":442.5,"velocity":0.3937007874015748},{"duration":0.375,"midi":59,"time":442.5,"velocity":0.3937007874015748},{"duration":0.375,"midi":66,"time":442.5,"velocity":0.3937007874015748},{"duration":0.375,"midi":52,"time":442.5,"velocity":0.3937007874015748},{"duration":0.375,"midi":64,"time":442.5,"velocity":0.3937007874015748},{"duration":0.375,"midi":67,"time":442.5,"velocity":0.3937007874015748},{"duration":0.375,"midi":62,"time":442.5,"velocity":0.3937007874015748},{"duration":0.375,"midi":46,"time":442.5,"velocity":0.3937007874015748},{"duration":0.375,"midi":89,"time":442.5,"velocity":0.3937007874015748},{"duration":0.375,"midi":28,"time":442.5,"velocity":0.3937007874015748},{"duration":0.375,"midi":95,"time":442.5,"velocity":0.3937007874015748},{"duration":0.375,"midi":53,"time":442.5,"velocity":0.3937007874015748},{"duration":0.375,"midi":78,"time":442.5,"velocity":0.3937007874015748},{"duration":0.375,"midi":50,"time":442.5,"velocity":0.3937007874015748},{"duration":0.375,"midi":29,"time":442.5,"velocity":0.3937007874015748},{"duration":0.375,"midi":80,"time":442.5,"velocity":0.3937007874015748},{"duration":0.375,"midi":25,"time":442.5,"velocity":0.3937007874015748},{"duration":0.375,"midi":54,"time":442.5,"velocity":0.3937007874015748},{"duration":0.375,"midi":81,"time":442.5,"velocity":0.3937007874015748},{"duration":0.375,"midi":57,"time":442.5,"velocity":0.3937007874015748},{"duration":0.375,"midi":82,"time":442.5,"velocity":0.3937007874015748},{"duration":0.375,"midi":58,"time":442.5,"velocity":0.3937007874015748},{"duration":0.375,"midi":56,"time":442.5,"velocity":0.3937007874015748},{"duration":0.375,"midi":74,"time":442.5,"velocity":0.3937007874015748},{"duration":0.375,"midi":71,"time":442.5,"velocity":0.3937007874015748},{"duration":0.375,"midi":51,"time":442.5,"velocity":0.3937007874015748},{"duration":0.375,"midi":30,"time":442.5,"velocity":0.3937007874015748},{"duration":0.375,"midi":60,"time":442.5,"velocity":0.3937007874015748},{"duration":0.375,"midi":77,"time":442.5,"velocity":0.3937007874015748},{"duration":0.375,"midi":68,"time":442.5,"velocity":0.3937007874015748},{"duration":0.375,"midi":84,"time":442.5,"velocity":0.3937007874015748},{"duration":0.234375,"midi":35,"time":442.5,"velocity":0.3937007874015748},{"duration":0.375,"midi":76,"time":442.5,"velocity":0.3937007874015748},{"duration":0.375,"midi":73,"time":442.5,"velocity":0.3937007874015748},{"duration":0.3515625,"midi":34,"time":442.5234375,"velocity":0.3937007874015748},{"duration":0.328125,"midi":35,"time":442.546875,"velocity":0.3937007874015748},{"duration":0.3046875,"midi":36,"time":442.5703125,"velocity":0.3937007874015748},{"duration":0.28125,"midi":37,"time":442.59375,"velocity":0.3937007874015748},{"duration":0.2578125,"midi":38,"time":442.6171875,"velocity":0.3937007874015748},{"duration":0.234375,"midi":39,"time":442.640625,"velocity":0.3937007874015748},{"duration":0.2109375,"midi":40,"time":442.6640625,"velocity":0.3937007874015748},{"duration":0.1875,"midi":41,"time":442.6875,"velocity":0.3937007874015748},{"duration":0.1875,"midi":42,"time":442.7109375,"velocity":0.3937007874015748},{"duration":0.1875,"midi":43,"time":442.734375,"velocity":0.3937007874015748},{"duration":0.1875,"midi":44,"time":442.7578125,"velocity":0.3937007874015748},{"duration":0.1875,"midi":45,"time":442.78125,"velocity":0.3937007874015748},{"duration":0.1875,"midi":46,"time":442.8046875,"velocity":0.3937007874015748},{"duration":0.1875,"midi":47,"time":442.828125,"velocity":0.3937007874015748},{"duration":0.1875,"midi":48,"time":442.8515625,"velocity":0.3937007874015748},{"duration":0.1875,"midi":49,"time":442.875,"velocity":0.3937007874015748},{"duration":0.1875,"midi":50,"time":442.8984375,"velocity":0.3937007874015748},{"duration":0.1875,"midi":51,"time":442.921875,"velocity":0.3937007874015748},{"duration":0.1875,"midi":52,"time":442.9453125,"velocity":0.3937007874015748},{"duration":0.1875,"midi":53,"time":442.96875,"velocity":0.3937007874015748},{"duration":0.1875,"midi":54,"time":442.9921875,"velocity":0.3937007874015748},{"duration":0.1875,"midi":55,"time":443.015625,"velocity":0.3937007874015748},{"duration":0.1875,"midi":56,"time":443.0390625,"velocity":0.3937007874015748},{"duration":0.1875,"midi":57,"time":443.0625,"velocity":0.3937007874015748},{"duration":0.1875,"midi":58,"time":443.0859375,"velocity":0.3937007874015748},{"duration":0.1875,"midi":59,"time":443.109375,"velocity":0.3937007874015748},{"duration":0.1875,"midi":60,"time":443.1328125,"velocity":0.3937007874015748},{"duration":0.1875,"midi":61,"time":443.15625,"velocity":0.3937007874015748},{"duration":0.1875,"midi":62,"time":443.1796875,"velocity":0.3937007874015748},{"duration":0.1875,"midi":63,"time":443.203125,"velocity":0.3937007874015748},{"duration":0.1875,"midi":64,"time":443.2265625,"velocity":0.3937007874015748},{"duration":0.1875,"midi":65,"time":443.25,"velocity":0.3937007874015748},{"duration":0.1875,"midi":66,"time":443.2734375,"velocity":0.3937007874015748},{"duration":0.1875,"midi":67,"time":443.296875,"velocity":0.3937007874015748},{"duration":0.1875,"midi":68,"time":443.3203125,"velocity":0.3937007874015748},{"duration":0.1875,"midi":69,"time":443.34375,"velocity":0.3937007874015748},{"duration":0.1875,"midi":70,"time":443.3671875,"velocity":0.3937007874015748},{"duration":0.1875,"midi":71,"time":443.390625,"velocity":0.3937007874015748},{"duration":0.1875,"midi":72,"time":443.4140625,"velocity":0.3937007874015748},{"duration":0.1875,"midi":73,"time":443.4375,"velocity":0.3937007874015748},{"duration":0.1875,"midi":74,"time":443.4609375,"velocity":0.3937007874015748},{"duration":0.1875,"midi":75,"time":443.484375,"velocity":0.3937007874015748},{"duration":0.1875,"midi":76,"time":443.5078125,"velocity":0.3937007874015748},{"duration":0.1875,"midi":77,"time":443.53125,"velocity":0.3937007874015748},{"duration":0.1875,"midi":78,"time":443.5546875,"velocity":0.3937007874015748},{"duration":0.1875,"midi":79,"time":443.578125,"velocity":0.3937007874015748},{"duration":0.1875,"midi":80,"time":443.6015625,"velocity":0.3937007874015748},{"duration":0.1875,"midi":81,"time":443.625,"velocity":0.3937007874015748},{"duration":0.1875,"midi":82,"time":443.6484375,"velocity":0.3937007874015748},{"duration":0.1875,"midi":83,"time":443.671875,"velocity":0.3937007874015748},{"duration":0.1875,"midi":84,"time":443.6953125,"velocity":0.3937007874015748},{"duration":0.1875,"midi":85,"time":443.71875,"velocity":0.3937007874015748},{"duration":0.1875,"midi":86,"time":443.7421875,"velocity":0.3937007874015748},{"duration":0.1875,"midi":87,"time":443.765625,"velocity":0.3937007874015748},{"duration":0.1875,"midi":88,"time":443.7890625,"velocity":0.3937007874015748},{"duration":0.1875,"midi":89,"time":443.8125,"velocity":0.3937007874015748},{"duration":0.1875,"midi":90,"time":443.8359375,"velocity":0.3937007874015748},{"duration":0.1875,"midi":91,"time":443.859375,"velocity":0.3937007874015748},{"duration":0.1875,"midi":92,"time":443.8828125,"velocity":0.3937007874015748},{"duration":0.1875,"midi":93,"time":443.90625,"velocity":0.3937007874015748},{"duration":0.1875,"midi":94,"time":443.9296875,"velocity":0.3937007874015748},{"duration":0.1875,"midi":95,"time":443.953125,"velocity":0.3937007874015748},{"duration":0.1875,"midi":48,"time":444,"velocity":0.3937007874015748},{"duration":0.1875,"midi":72,"time":444,"velocity":0.3937007874015748},{"duration":0.1875,"midi":24,"time":444,"velocity":0.3937007874015748},{"duration":0.1875,"midi":93,"time":444,"velocity":0.3937007874015748},{"duration":0.1875,"midi":47,"time":444,"velocity":0.3937007874015748},{"duration":0.1875,"midi":28,"time":444,"velocity":0.3937007874015748},{"duration":0.1875,"midi":36,"time":444,"velocity":0.3937007874015748},{"duration":0.1875,"midi":71,"time":444,"velocity":0.3937007874015748},{"duration":0.1875,"midi":95,"time":444,"velocity":0.3937007874015748},{"duration":0.1875,"midi":84,"time":444,"velocity":0.3937007874015748},{"duration":0.1875,"midi":60,"time":444,"velocity":0.3937007874015748},{"duration":0.1875,"midi":83,"time":444,"velocity":0.3937007874015748},{"duration":0.1875,"midi":35,"time":444,"velocity":0.3937007874015748},{"duration":0.1875,"midi":59,"time":444,"velocity":0.3937007874015748},{"duration":0.1875,"midi":92,"time":444.0234375,"velocity":0.3937007874015748},{"duration":0.1875,"midi":29,"time":444.0234375,"velocity":0.3937007874015748},{"duration":0.1875,"midi":91,"time":444.046875,"velocity":0.3937007874015748},{"duration":0.1875,"midi":30,"time":444.046875,"velocity":0.3937007874015748},{"duration":0.1875,"midi":90,"time":444.0703125,"velocity":0.3937007874015748},{"duration":0.1875,"midi":31,"time":444.0703125,"velocity":0.3937007874015748},{"duration":0.1875,"midi":32,"time":444.09375,"velocity":0.3937007874015748},{"duration":0.1875,"midi":89,"time":444.09375,"velocity":0.3937007874015748},{"duration":0.1875,"midi":33,"time":444.1171875,"velocity":0.3937007874015748},{"duration":0.1875,"midi":88,"time":444.1171875,"velocity":0.3937007874015748},{"duration":0.1875,"midi":87,"time":444.140625,"velocity":0.3937007874015748},{"duration":0.1875,"midi":34,"time":444.140625,"velocity":0.3937007874015748},{"duration":0.1875,"midi":35,"time":444.1640625,"velocity":0.3937007874015748},{"duration":0.1875,"midi":86,"time":444.1640625,"velocity":0.3937007874015748},{"duration":0.1875,"midi":34,"time":444.1875,"velocity":0.3937007874015748},{"duration":0.1875,"midi":85,"time":444.1875,"velocity":0.3937007874015748},{"duration":0.1875,"midi":61,"time":444.1875,"velocity":0.3937007874015748},{"duration":0.1875,"midi":58,"time":444.1875,"velocity":0.3937007874015748},{"duration":0.1875,"midi":82,"time":444.1875,"velocity":0.3937007874015748},{"duration":0.1875,"midi":46,"time":444.1875,"velocity":0.3937007874015748},{"duration":0.1875,"midi":25,"time":444.1875,"velocity":0.3937007874015748},{"duration":0.1875,"midi":36,"time":444.1875,"velocity":0.3937007874015748},{"duration":0.1875,"midi":94,"time":444.1875,"velocity":0.3937007874015748},{"duration":0.1875,"midi":37,"time":444.1875,"velocity":0.3937007874015748},{"duration":0.1875,"midi":85,"time":444.1875,"velocity":0.3937007874015748},{"duration":0.1875,"midi":49,"time":444.1875,"velocity":0.3937007874015748},{"duration":0.1875,"midi":70,"time":444.1875,"velocity":0.3937007874015748},{"duration":0.1875,"midi":73,"time":444.1875,"velocity":0.3937007874015748},{"duration":0.1875,"midi":37,"time":444.2109375,"velocity":0.3937007874015748},{"duration":0.1875,"midi":84,"time":444.2109375,"velocity":0.3937007874015748},{"duration":0.1875,"midi":38,"time":444.234375,"velocity":0.3937007874015748},{"duration":0.1875,"midi":83,"time":444.234375,"velocity":0.3937007874015748},{"duration":0.1875,"midi":39,"time":444.2578125,"velocity":0.3937007874015748},{"duration":0.1875,"midi":82,"time":444.2578125,"velocity":0.3937007874015748},{"duration":0.1875,"midi":81,"time":444.28125,"velocity":0.3937007874015748},{"duration":0.1875,"midi":40,"time":444.28125,"velocity":0.3937007874015748},{"duration":0.1875,"midi":41,"time":444.3046875,"velocity":0.3937007874015748},{"duration":0.1875,"midi":80,"time":444.3046875,"velocity":0.3937007874015748},{"duration":0.1875,"midi":79,"time":444.328125,"velocity":0.3937007874015748},{"duration":0.1875,"midi":42,"time":444.328125,"velocity":0.3937007874015748},{"duration":0.1875,"midi":43,"time":444.3515625,"velocity":0.3937007874015748},{"duration":0.1875,"midi":78,"time":444.3515625,"velocity":0.3937007874015748},{"duration":0.1875,"midi":26,"time":444.375,"velocity":0.3937007874015748},{"duration":0.1875,"midi":93,"time":444.375,"velocity":0.3937007874015748},{"duration":0.1875,"midi":44,"time":444.375,"velocity":0.3937007874015748},{"duration":0.1875,"midi":38,"time":444.375,"velocity":0.3937007874015748},{"duration":0.1875,"midi":57,"time":444.375,"velocity":0.3937007874015748},{"duration":0.1875,"midi":45,"time":444.375,"velocity":0.3937007874015748},{"duration":0.1875,"midi":50,"time":444.375,"velocity":0.3937007874015748},{"duration":0.1875,"midi":62,"time":444.375,"velocity":0.3937007874015748},{"duration":0.1875,"midi":69,"time":444.375,"velocity":0.3937007874015748},{"duration":0.1875,"midi":81,"time":444.375,"velocity":0.3937007874015748},{"duration":0.1875,"midi":74,"time":444.375,"velocity":0.3937007874015748},{"duration":0.1875,"midi":86,"time":444.375,"velocity":0.3937007874015748},{"duration":0.1875,"midi":77,"time":444.375,"velocity":0.3937007874015748},{"duration":0.1875,"midi":33,"time":444.375,"velocity":0.3937007874015748},{"duration":0.1875,"midi":45,"time":444.3984375,"velocity":0.3937007874015748},{"duration":0.1875,"midi":76,"time":444.3984375,"velocity":0.3937007874015748},{"duration":0.1875,"midi":75,"time":444.421875,"velocity":0.3937007874015748},{"duration":0.1875,"midi":46,"time":444.421875,"velocity":0.3937007874015748},{"duration":0.1875,"midi":47,"time":444.4453125,"velocity":0.3937007874015748},{"duration":0.1875,"midi":74,"time":444.4453125,"velocity":0.3937007874015748},{"duration":0.1875,"midi":48,"time":444.46875,"velocity":0.3937007874015748},{"duration":0.1875,"midi":73,"time":444.46875,"velocity":0.3937007874015748},{"duration":0.1875,"midi":72,"time":444.4921875,"velocity":0.3937007874015748},{"duration":0.1875,"midi":49,"time":444.4921875,"velocity":0.3937007874015748},{"duration":0.1875,"midi":50,"time":444.515625,"velocity":0.3937007874015748},{"duration":0.1875,"midi":71,"time":444.515625,"velocity":0.3937007874015748},{"duration":0.1875,"midi":70,"time":444.5390625,"velocity":0.3937007874015748},{"duration":0.1875,"midi":51,"time":444.5390625,"velocity":0.3937007874015748},{"duration":0.1875,"midi":32,"time":444.5625,"velocity":0.3937007874015748},{"duration":0.1875,"midi":51,"time":444.5625,"velocity":0.3937007874015748},{"duration":0.1875,"midi":39,"time":444.5625,"velocity":0.3937007874015748},{"duration":0.1875,"midi":68,"time":444.5625,"velocity":0.3937007874015748},{"duration":0.1875,"midi":69,"time":444.5625,"velocity":0.3937007874015748},{"duration":0.1875,"midi":75,"time":444.5625,"velocity":0.3937007874015748},{"duration":0.1875,"midi":27,"time":444.5625,"velocity":0.3937007874015748},{"duration":0.1875,"midi":63,"time":444.5625,"velocity":0.3937007874015748},{"duration":0.1875,"midi":92,"time":444.5625,"velocity":0.3937007874015748},{"duration":0.1875,"midi":87,"time":444.5625,"velocity":0.3937007874015748},{"duration":0.1875,"midi":80,"time":444.5625,"velocity":0.3937007874015748},{"duration":0.1875,"midi":56,"time":444.5625,"velocity":0.3937007874015748},{"duration":0.1875,"midi":44,"time":444.5625,"velocity":0.3937007874015748},{"duration":0.1875,"midi":52,"time":444.5625,"velocity":0.3937007874015748},{"duration":0.1875,"midi":53,"time":444.5859375,"velocity":0.3937007874015748},{"duration":0.1875,"midi":68,"time":444.5859375,"velocity":0.3937007874015748},{"duration":0.1875,"midi":54,"time":444.609375,"velocity":0.3937007874015748},{"duration":0.1875,"midi":67,"time":444.609375,"velocity":0.3937007874015748},{"duration":0.1875,"midi":66,"time":444.6328125,"velocity":0.3937007874015748},{"duration":0.1875,"midi":55,"time":444.6328125,"velocity":0.3937007874015748},{"duration":0.1875,"midi":56,"time":444.65625,"velocity":0.3937007874015748},{"duration":0.1875,"midi":65,"time":444.65625,"velocity":0.3937007874015748},{"duration":0.1875,"midi":64,"time":444.6796875,"velocity":0.3937007874015748},{"duration":0.1875,"midi":57,"time":444.6796875,"velocity":0.3937007874015748},{"duration":0.1875,"midi":58,"time":444.703125,"velocity":0.3937007874015748},{"duration":0.1875,"midi":63,"time":444.703125,"velocity":0.3937007874015748},{"duration":0.1875,"midi":59,"time":444.7265625,"velocity":0.3937007874015748},{"duration":0.1875,"midi":62,"time":444.7265625,"velocity":0.3937007874015748},{"duration":0.1875,"midi":88,"time":444.75,"velocity":0.3937007874015748},{"duration":0.1875,"midi":43,"time":444.75,"velocity":0.3937007874015748},{"duration":0.1875,"midi":64,"time":444.75,"velocity":0.3937007874015748},{"duration":0.1875,"midi":67,"time":444.75,"velocity":0.3937007874015748},{"duration":0.1875,"midi":79,"time":444.75,"velocity":0.3937007874015748},{"duration":0.1875,"midi":31,"time":444.75,"velocity":0.3937007874015748},{"duration":0.1875,"midi":61,"time":444.75,"velocity":0.3937007874015748},{"duration":0.1875,"midi":91,"time":444.75,"velocity":0.3937007874015748},{"duration":0.1875,"midi":40,"time":444.75,"velocity":0.3937007874015748},{"duration":0.1875,"midi":55,"time":444.75,"velocity":0.3937007874015748},{"duration":0.1875,"midi":60,"time":444.75,"velocity":0.3937007874015748},{"duration":0.1875,"midi":52,"time":444.75,"velocity":0.3937007874015748},{"duration":0.1875,"midi":28,"time":444.75,"velocity":0.3937007874015748},{"duration":0.1875,"midi":76,"time":444.75,"velocity":0.3937007874015748},{"duration":0.1875,"midi":60,"time":444.7734375,"velocity":0.3937007874015748},{"duration":0.1875,"midi":61,"time":444.7734375,"velocity":0.3937007874015748},{"duration":0.1875,"midi":59,"time":444.796875,"velocity":0.3937007874015748},{"duration":0.1875,"midi":62,"time":444.796875,"velocity":0.3937007874015748},{"duration":0.1875,"midi":63,"time":444.8203125,"velocity":0.3937007874015748},{"duration":0.1875,"midi":58,"time":444.8203125,"velocity":0.3937007874015748},{"duration":0.1875,"midi":64,"time":444.84375,"velocity":0.3937007874015748},{"duration":0.1875,"midi":57,"time":444.84375,"velocity":0.3937007874015748},{"duration":0.1875,"midi":56,"time":444.8671875,"velocity":0.3937007874015748},{"duration":0.1875,"midi":65,"time":444.8671875,"velocity":0.3937007874015748},{"duration":0.1875,"midi":66,"time":444.890625,"velocity":0.3937007874015748},{"duration":0.1875,"midi":55,"time":444.890625,"velocity":0.3937007874015748},{"duration":0.1875,"midi":54,"time":444.9140625,"velocity":0.3937007874015748},{"duration":0.1875,"midi":67,"time":444.9140625,"velocity":0.3937007874015748},{"duration":0.1875,"midi":54,"time":444.9375,"velocity":0.3937007874015748},{"duration":0.1875,"midi":30,"time":444.9375,"velocity":0.3937007874015748},{"duration":0.1875,"midi":29,"time":444.9375,"velocity":0.3937007874015748},{"duration":0.1875,"midi":41,"time":444.9375,"velocity":0.3937007874015748},{"duration":0.1875,"midi":90,"time":444.9375,"velocity":0.3937007874015748},{"duration":0.1875,"midi":53,"time":444.9375,"velocity":0.3937007874015748},{"duration":0.1875,"midi":65,"time":444.9375,"velocity":0.3937007874015748},{"duration":0.1875,"midi":68,"time":444.9375,"velocity":0.3937007874015748},{"duration":0.1875,"midi":42,"time":444.9375,"velocity":0.3937007874015748},{"duration":0.1875,"midi":66,"time":444.9375,"velocity":0.3937007874015748},{"duration":0.1875,"midi":89,"time":444.9375,"velocity":0.3937007874015748},{"duration":0.1875,"midi":53,"time":444.9375,"velocity":0.3937007874015748},{"duration":0.1875,"midi":78,"time":444.9375,"velocity":0.3937007874015748},{"duration":0.1875,"midi":77,"time":444.9375,"velocity":0.3937007874015748},{"duration":0.1875,"midi":52,"time":444.9609375,"velocity":0.3937007874015748},{"duration":0.1875,"midi":69,"time":444.9609375,"velocity":0.3937007874015748},{"duration":0.1875,"midi":51,"time":444.984375,"velocity":0.3937007874015748},{"duration":0.1875,"midi":70,"time":444.984375,"velocity":0.3937007874015748},{"duration":0.1875,"midi":50,"time":445.0078125,"velocity":0.3937007874015748},{"duration":0.1875,"midi":71,"time":445.0078125,"velocity":0.3937007874015748},{"duration":0.1875,"midi":72,"time":445.03125,"velocity":0.3937007874015748},{"duration":0.1875,"midi":49,"time":445.03125,"velocity":0.3937007874015748},{"duration":0.1875,"midi":73,"time":445.0546875,"velocity":0.3937007874015748},{"duration":0.1875,"midi":48,"time":445.0546875,"velocity":0.3937007874015748},{"duration":0.1875,"midi":47,"time":445.078125,"velocity":0.3937007874015748},{"duration":0.1875,"midi":74,"time":445.078125,"velocity":0.3937007874015748},{"duration":0.1875,"midi":75,"time":445.1015625,"velocity":0.3937007874015748},{"duration":0.1875,"midi":46,"time":445.1015625,"velocity":0.3937007874015748},{"duration":0.1875,"midi":30,"time":445.125,"velocity":0.3937007874015748},{"duration":0.1875,"midi":78,"time":445.125,"velocity":0.3937007874015748},{"duration":0.1875,"midi":54,"time":445.125,"velocity":0.3937007874015748},{"duration":0.1875,"midi":41,"time":445.125,"velocity":0.3937007874015748},{"duration":0.1875,"midi":66,"time":445.125,"velocity":0.3937007874015748},{"duration":0.1875,"midi":77,"time":445.125,"velocity":0.3937007874015748},{"duration":0.1875,"midi":53,"time":445.125,"velocity":0.3937007874015748},{"duration":0.1875,"midi":45,"time":445.125,"velocity":0.3937007874015748},{"duration":0.1875,"midi":65,"time":445.125,"velocity":0.3937007874015748},{"duration":0.1875,"midi":90,"time":445.125,"velocity":0.3937007874015748},{"duration":0.1875,"midi":89,"time":445.125,"velocity":0.3937007874015748},{"duration":0.1875,"midi":29,"time":445.125,"velocity":0.3937007874015748},{"duration":0.1875,"midi":42,"time":445.125,"velocity":0.3937007874015748},{"duration":0.1875,"midi":76,"time":445.125,"velocity":0.3937007874015748},{"duration":0.1875,"midi":44,"time":445.1484375,"velocity":0.3937007874015748},{"duration":0.1875,"midi":77,"time":445.1484375,"velocity":0.3937007874015748},{"duration":0.1875,"midi":43,"time":445.171875,"velocity":0.3937007874015748},{"duration":0.1875,"midi":78,"time":445.171875,"velocity":0.3937007874015748},{"duration":0.1875,"midi":79,"time":445.1953125,"velocity":0.3937007874015748},{"duration":0.1875,"midi":42,"time":445.1953125,"velocity":0.3937007874015748},{"duration":0.1875,"midi":80,"time":445.21875,"velocity":0.3937007874015748},{"duration":0.1875,"midi":41,"time":445.21875,"velocity":0.3937007874015748},{"duration":0.1875,"midi":40,"time":445.2421875,"velocity":0.3937007874015748},{"duration":0.1875,"midi":81,"time":445.2421875,"velocity":0.3937007874015748},{"duration":0.1875,"midi":82,"time":445.265625,"velocity":0.3937007874015748},{"duration":0.1875,"midi":39,"time":445.265625,"velocity":0.3937007874015748},{"duration":0.1875,"midi":38,"time":445.2890625,"velocity":0.3937007874015748},{"duration":0.1875,"midi":83,"time":445.2890625,"velocity":0.3937007874015748},{"duration":0.1875,"midi":84,"time":445.3125,"velocity":0.3937007874015748},{"duration":0.1875,"midi":52,"time":445.3125,"velocity":0.3937007874015748},{"duration":0.1875,"midi":64,"time":445.3125,"velocity":0.3937007874015748},{"duration":0.1875,"midi":88,"time":445.3125,"velocity":0.3937007874015748},{"duration":0.1875,"midi":76,"time":445.3125,"velocity":0.3937007874015748},{"duration":0.1875,"midi":31,"time":445.3125,"velocity":0.3937007874015748},{"duration":0.1875,"midi":55,"time":445.3125,"velocity":0.3937007874015748},{"duration":0.1875,"midi":67,"time":445.3125,"velocity":0.3937007874015748},{"duration":0.1875,"midi":37,"time":445.3125,"velocity":0.3937007874015748},{"duration":0.1875,"midi":91,"time":445.3125,"velocity":0.3937007874015748},{"duration":0.1875,"midi":79,"time":445.3125,"velocity":0.3937007874015748},{"duration":0.1875,"midi":43,"time":445.3125,"velocity":0.3937007874015748},{"duration":0.1875,"midi":28,"time":445.3125,"velocity":0.3937007874015748},{"duration":0.1875,"midi":40,"time":445.3125,"velocity":0.3937007874015748},{"duration":0.1875,"midi":85,"time":445.3359375,"velocity":0.3937007874015748},{"duration":0.1875,"midi":36,"time":445.3359375,"velocity":0.3937007874015748},{"duration":0.1875,"midi":35,"time":445.359375,"velocity":0.3937007874015748},{"duration":0.1875,"midi":86,"time":445.359375,"velocity":0.3937007874015748},{"duration":0.1875,"midi":87,"time":445.3828125,"velocity":0.3937007874015748},{"duration":0.1875,"midi":34,"time":445.3828125,"velocity":0.3937007874015748},{"duration":0.1875,"midi":88,"time":445.40625,"velocity":0.3937007874015748},{"duration":0.1875,"midi":33,"time":445.40625,"velocity":0.3937007874015748},{"duration":0.1875,"midi":32,"time":445.4296875,"velocity":0.3937007874015748},{"duration":0.1875,"midi":89,"time":445.4296875,"velocity":0.3937007874015748},{"duration":0.1875,"midi":31,"time":445.453125,"velocity":0.3937007874015748},{"duration":0.1875,"midi":90,"time":445.453125,"velocity":0.3937007874015748},{"duration":0.1875,"midi":30,"time":445.4765625,"velocity":0.3937007874015748},{"duration":0.1875,"midi":91,"time":445.4765625,"velocity":0.3937007874015748},{"duration":0.1875,"midi":93,"time":445.5,"velocity":0.3937007874015748},{"duration":0.1875,"midi":28,"time":445.5,"velocity":0.3937007874015748},{"duration":0.1875,"midi":75,"time":445.5,"velocity":0.3937007874015748},{"duration":0.1875,"midi":39,"time":445.5,"velocity":0.3937007874015748},{"duration":0.1875,"midi":80,"time":445.5,"velocity":0.3937007874015748},{"duration":0.1875,"midi":32,"time":445.5,"velocity":0.3937007874015748},{"duration":0.1875,"midi":56,"time":445.5,"velocity":0.3937007874015748},{"duration":0.1875,"midi":44,"time":445.5,"velocity":0.3937007874015748},{"duration":0.1875,"midi":63,"time":445.5,"velocity":0.3937007874015748},{"duration":0.1875,"midi":87,"time":445.5,"velocity":0.3937007874015748},{"duration":0.1875,"midi":27,"time":445.5,"velocity":0.3937007874015748},{"duration":0.1875,"midi":68,"time":445.5,"velocity":0.3937007874015748},{"duration":0.1875,"midi":92,"time":445.5,"velocity":0.3937007874015748},{"duration":0.1875,"midi":51,"time":445.5,"velocity":0.3937007874015748},{"duration":0.1875,"midi":29,"time":445.5234375,"velocity":0.3937007874015748},{"duration":0.1875,"midi":92,"time":445.5234375,"velocity":0.3937007874015748},{"duration":0.1875,"midi":30,"time":445.546875,"velocity":0.3937007874015748},{"duration":0.1875,"midi":91,"time":445.546875,"velocity":0.3937007874015748},{"duration":0.1875,"midi":90,"time":445.5703125,"velocity":0.3937007874015748},{"duration":0.1875,"midi":31,"time":445.5703125,"velocity":0.3937007874015748},{"duration":0.1875,"midi":89,"time":445.59375,"velocity":0.3937007874015748},{"duration":0.1875,"midi":32,"time":445.59375,"velocity":0.3937007874015748},{"duration":0.1875,"midi":88,"time":445.6171875,"velocity":0.3937007874015748},{"duration":0.1875,"midi":33,"time":445.6171875,"velocity":0.3937007874015748},{"duration":0.1875,"midi":34,"time":445.640625,"velocity":0.3937007874015748},{"duration":0.1875,"midi":87,"time":445.640625,"velocity":0.3937007874015748},{"duration":0.1875,"midi":35,"time":445.6640625,"velocity":0.3937007874015748},{"duration":0.1875,"midi":86,"time":445.6640625,"velocity":0.3937007874015748},{"duration":0.1875,"midi":93,"time":445.6875,"velocity":0.3937007874015748},{"duration":0.1875,"midi":50,"time":445.6875,"velocity":0.3937007874015748},{"duration":0.1875,"midi":85,"time":445.6875,"velocity":0.3937007874015748},{"duration":0.1875,"midi":74,"time":445.6875,"velocity":0.3937007874015748},{"duration":0.1875,"midi":38,"time":445.6875,"velocity":0.3937007874015748},{"duration":0.1875,"midi":45,"time":445.6875,"velocity":0.3937007874015748},{"duration":0.1875,"midi":26,"time":445.6875,"velocity":0.3937007874015748},{"duration":0.1875,"midi":57,"time":445.6875,"velocity":0.3937007874015748},{"duration":0.1875,"midi":69,"time":445.6875,"velocity":0.3937007874015748},{"duration":0.1875,"midi":62,"time":445.6875,"velocity":0.3937007874015748},{"duration":0.1875,"midi":33,"time":445.6875,"velocity":0.3937007874015748},{"duration":0.1875,"midi":86,"time":445.6875,"velocity":0.3937007874015748},{"duration":0.1875,"midi":81,"time":445.6875,"velocity":0.3937007874015748},{"duration":0.1875,"midi":36,"time":445.6875,"velocity":0.3937007874015748},{"duration":0.1875,"midi":84,"time":445.7109375,"velocity":0.3937007874015748},{"duration":0.1875,"midi":37,"time":445.7109375,"velocity":0.3937007874015748},{"duration":0.1875,"midi":83,"time":445.734375,"velocity":0.3937007874015748},{"duration":0.1875,"midi":38,"time":445.734375,"velocity":0.3937007874015748},{"duration":0.1875,"midi":82,"time":445.7578125,"velocity":0.3937007874015748},{"duration":0.1875,"midi":39,"time":445.7578125,"velocity":0.3937007874015748},{"duration":0.1875,"midi":81,"time":445.78125,"velocity":0.3937007874015748},{"duration":0.1875,"midi":40,"time":445.78125,"velocity":0.3937007874015748},{"duration":0.1875,"midi":41,"time":445.8046875,"velocity":0.3937007874015748},{"duration":0.1875,"midi":80,"time":445.8046875,"velocity":0.3937007874015748},{"duration":0.1875,"midi":42,"time":445.828125,"velocity":0.3937007874015748},{"duration":0.1875,"midi":79,"time":445.828125,"velocity":0.3937007874015748},{"duration":0.1875,"midi":43,"time":445.8515625,"velocity":0.3937007874015748},{"duration":0.1875,"midi":78,"time":445.8515625,"velocity":0.3937007874015748},{"duration":0.1875,"midi":44,"time":445.875,"velocity":0.3937007874015748},{"duration":0.1875,"midi":46,"time":445.875,"velocity":0.3937007874015748},{"duration":0.1875,"midi":85,"time":445.875,"velocity":0.3937007874015748},{"duration":0.1875,"midi":58,"time":445.875,"velocity":0.3937007874015748},{"duration":0.1875,"midi":37,"time":445.875,"velocity":0.3937007874015748},{"duration":0.1875,"midi":94,"time":445.875,"velocity":0.3937007874015748},{"duration":0.1875,"midi":61,"time":445.875,"velocity":0.3937007874015748},{"duration":0.1875,"midi":73,"time":445.875,"velocity":0.3937007874015748},{"duration":0.1875,"midi":70,"time":445.875,"velocity":0.3937007874015748},{"duration":0.1875,"midi":49,"time":445.875,"velocity":0.3937007874015748},{"duration":0.1875,"midi":25,"time":445.875,"velocity":0.3937007874015748},{"duration":0.1875,"midi":82,"time":445.875,"velocity":0.3937007874015748},{"duration":0.1875,"midi":34,"time":445.875,"velocity":0.3937007874015748},{"duration":0.1875,"midi":77,"time":445.875,"velocity":0.3937007874015748},{"duration":0.1875,"midi":45,"time":445.8984375,"velocity":0.3937007874015748},{"duration":0.1875,"midi":76,"time":445.8984375,"velocity":0.3937007874015748},{"duration":0.1875,"midi":46,"time":445.921875,"velocity":0.3937007874015748},{"duration":0.1875,"midi":75,"time":445.921875,"velocity":0.3937007874015748},{"duration":0.1875,"midi":47,"time":445.9453125,"velocity":0.3937007874015748},{"duration":0.1875,"midi":74,"time":445.9453125,"velocity":0.3937007874015748},{"duration":0.1875,"midi":73,"time":445.96875,"velocity":0.3937007874015748},{"duration":0.1875,"midi":48,"time":445.96875,"velocity":0.3937007874015748},{"duration":0.1875,"midi":72,"time":445.9921875,"velocity":0.3937007874015748},{"duration":0.1875,"midi":49,"time":445.9921875,"velocity":0.3937007874015748},{"duration":0.1875,"midi":71,"time":446.015625,"velocity":0.3937007874015748},{"duration":0.1875,"midi":50,"time":446.015625,"velocity":0.3937007874015748},{"duration":0.1875,"midi":51,"time":446.0390625,"velocity":0.3937007874015748},{"duration":0.1875,"midi":70,"time":446.0390625,"velocity":0.3937007874015748},{"duration":0.1875,"midi":59,"time":446.0625,"velocity":0.3937007874015748},{"duration":0.1875,"midi":35,"time":446.0625,"velocity":0.3937007874015748},{"duration":0.1875,"midi":69,"time":446.0625,"velocity":0.3937007874015748},{"duration":0.1875,"midi":48,"time":446.0625,"velocity":0.3937007874015748},{"duration":0.1875,"midi":52,"time":446.0625,"velocity":0.3937007874015748},{"duration":0.1875,"midi":72,"time":446.0625,"velocity":0.3937007874015748},{"duration":0.1875,"midi":60,"time":446.0625,"velocity":0.3937007874015748},{"duration":0.1875,"midi":71,"time":446.0625,"velocity":0.3937007874015748},{"duration":0.1875,"midi":95,"time":446.0625,"velocity":0.3937007874015748},{"duration":0.1875,"midi":24,"time":446.0625,"velocity":0.3937007874015748},{"duration":0.1875,"midi":83,"time":446.0625,"velocity":0.3937007874015748},{"duration":0.1875,"midi":36,"time":446.0625,"velocity":0.3937007874015748},{"duration":0.1875,"midi":84,"time":446.0625,"velocity":0.3937007874015748},{"duration":0.1875,"midi":47,"time":446.0625,"velocity":0.3937007874015748},{"duration":0.1875,"midi":68,"time":446.0859375,"velocity":0.3937007874015748},{"duration":0.1875,"midi":53,"time":446.0859375,"velocity":0.3937007874015748},{"duration":0.1875,"midi":54,"time":446.109375,"velocity":0.3937007874015748},{"duration":0.1875,"midi":67,"time":446.109375,"velocity":0.3937007874015748},{"duration":0.1875,"midi":55,"time":446.1328125,"velocity":0.3937007874015748},{"duration":0.1875,"midi":66,"time":446.1328125,"velocity":0.3937007874015748},{"duration":0.1875,"midi":56,"time":446.15625,"velocity":0.3937007874015748},{"duration":0.1875,"midi":65,"time":446.15625,"velocity":0.3937007874015748},{"duration":0.1875,"midi":57,"time":446.1796875,"velocity":0.3937007874015748},{"duration":0.1875,"midi":64,"time":446.1796875,"velocity":0.3937007874015748},{"duration":0.1875,"midi":63,"time":446.203125,"velocity":0.3937007874015748},{"duration":0.1875,"midi":58,"time":446.203125,"velocity":0.3937007874015748},{"duration":0.1875,"midi":62,"time":446.2265625,"velocity":0.3937007874015748},{"duration":0.1875,"midi":59,"time":446.2265625,"velocity":0.3937007874015748},{"duration":0.1875,"midi":72,"time":446.25,"velocity":0.3937007874015748},{"duration":0.1875,"midi":47,"time":446.25,"velocity":0.3937007874015748},{"duration":0.1875,"midi":61,"time":446.25,"velocity":0.3937007874015748},{"duration":0.1875,"midi":24,"time":446.25,"velocity":0.3937007874015748},{"duration":0.1875,"midi":60,"time":446.25,"velocity":0.3937007874015748},{"duration":0.1875,"midi":48,"time":446.25,"velocity":0.3937007874015748},{"duration":0.1875,"midi":84,"time":446.25,"velocity":0.3937007874015748},{"duration":0.1875,"midi":59,"time":446.25,"velocity":0.3937007874015748},{"duration":0.1875,"midi":35,"time":446.25,"velocity":0.3937007874015748},{"duration":0.1875,"midi":60,"time":446.25,"velocity":0.3937007874015748},{"duration":0.1875,"midi":95,"time":446.25,"velocity":0.3937007874015748},{"duration":0.1875,"midi":71,"time":446.25,"velocity":0.3937007874015748},{"duration":0.1875,"midi":36,"time":446.25,"velocity":0.3937007874015748},{"duration":0.1875,"midi":83,"time":446.25,"velocity":0.3937007874015748},{"duration":0.1875,"midi":61,"time":446.2734375,"velocity":0.3937007874015748},{"duration":0.1875,"midi":60,"time":446.2734375,"velocity":0.3937007874015748},{"duration":0.1875,"midi":62,"time":446.296875,"velocity":0.3937007874015748},{"duration":0.1875,"midi":59,"time":446.296875,"velocity":0.3937007874015748},{"duration":0.1875,"midi":58,"time":446.3203125,"velocity":0.3937007874015748},{"duration":0.1875,"midi":63,"time":446.3203125,"velocity":0.3937007874015748},{"duration":0.1875,"midi":64,"time":446.34375,"velocity":0.3937007874015748},{"duration":0.1875,"midi":57,"time":446.34375,"velocity":0.3937007874015748},{"duration":0.1875,"midi":56,"time":446.3671875,"velocity":0.3937007874015748},{"duration":0.1875,"midi":65,"time":446.3671875,"velocity":0.3937007874015748},{"duration":0.1875,"midi":55,"time":446.390625,"velocity":0.3937007874015748},{"duration":0.1875,"midi":66,"time":446.390625,"velocity":0.3937007874015748},{"duration":0.1875,"midi":67,"time":446.4140625,"velocity":0.3937007874015748},{"duration":0.1875,"midi":54,"time":446.4140625,"velocity":0.3937007874015748},{"duration":0.1875,"midi":34,"time":446.4375,"velocity":0.3937007874015748},{"duration":0.1875,"midi":58,"time":446.4375,"velocity":0.3937007874015748},{"duration":0.1875,"midi":85,"time":446.4375,"velocity":0.3937007874015748},{"duration":0.1875,"midi":73,"time":446.4375,"velocity":0.3937007874015748},{"duration":0.1875,"midi":53,"time":446.4375,"velocity":0.3937007874015748},{"duration":0.1875,"midi":61,"time":446.4375,"velocity":0.3937007874015748},{"duration":0.1875,"midi":25,"time":446.4375,"velocity":0.3937007874015748},{"duration":0.1875,"midi":46,"time":446.4375,"velocity":0.3937007874015748},{"duration":0.1875,"midi":49,"time":446.4375,"velocity":0.3937007874015748},{"duration":0.1875,"midi":94,"time":446.4375,"velocity":0.3937007874015748},{"duration":0.1875,"midi":82,"time":446.4375,"velocity":0.3937007874015748},{"duration":0.1875,"midi":68,"time":446.4375,"velocity":0.3937007874015748},{"duration":0.1875,"midi":70,"time":446.4375,"velocity":0.3937007874015748},{"duration":0.1875,"midi":37,"time":446.4375,"velocity":0.3937007874015748},{"duration":0.1875,"midi":52,"time":446.4609375,"velocity":0.3937007874015748},{"duration":0.1875,"midi":69,"time":446.4609375,"velocity":0.3937007874015748},{"duration":0.1875,"midi":70,"time":446.484375,"velocity":0.3937007874015748},{"duration":0.1875,"midi":51,"time":446.484375,"velocity":0.3937007874015748},{"duration":0.1875,"midi":71,"time":446.5078125,"velocity":0.3937007874015748},{"duration":0.1875,"midi":50,"time":446.5078125,"velocity":0.3937007874015748},{"duration":0.1875,"midi":49,"time":446.53125,"velocity":0.3937007874015748},{"duration":0.1875,"midi":72,"time":446.53125,"velocity":0.3937007874015748},{"duration":0.1875,"midi":48,"time":446.5546875,"velocity":0.3937007874015748},{"duration":0.1875,"midi":73,"time":446.5546875,"velocity":0.3937007874015748},{"duration":0.1875,"midi":74,"time":446.578125,"velocity":0.3937007874015748},{"duration":0.1875,"midi":47,"time":446.578125,"velocity":0.3937007874015748},{"duration":0.1875,"midi":46,"time":446.6015625,"velocity":0.3937007874015748},{"duration":0.1875,"midi":75,"time":446.6015625,"velocity":0.3937007874015748},{"duration":0.1875,"midi":76,"time":446.625,"velocity":0.3937007874015748},{"duration":0.1875,"midi":86,"time":446.625,"velocity":0.3937007874015748},{"duration":0.1875,"midi":81,"time":446.625,"velocity":0.3937007874015748},{"duration":0.1875,"midi":57,"time":446.625,"velocity":0.3937007874015748},{"duration":0.1875,"midi":69,"time":446.625,"velocity":0.3937007874015748},{"duration":0.1875,"midi":45,"time":446.625,"velocity":0.3937007874015748},{"duration":0.1875,"midi":38,"time":446.625,"velocity":0.3937007874015748},{"duration":0.1875,"midi":45,"time":446.625,"velocity":0.3937007874015748},{"duration":0.1875,"midi":26,"time":446.625,"velocity":0.3937007874015748},{"duration":0.1875,"midi":93,"time":446.625,"velocity":0.3937007874015748},{"duration":0.1875,"midi":33,"time":446.625,"velocity":0.3937007874015748},{"duration":0.1875,"midi":74,"time":446.625,"velocity":0.3937007874015748},{"duration":0.1875,"midi":62,"time":446.625,"velocity":0.3937007874015748},{"duration":0.1875,"midi":50,"time":446.625,"velocity":0.3937007874015748},{"duration":0.1875,"midi":77,"time":446.6484375,"velocity":0.3937007874015748},{"duration":0.1875,"midi":44,"time":446.6484375,"velocity":0.3937007874015748},{"duration":0.1875,"midi":78,"time":446.671875,"velocity":0.3937007874015748},{"duration":0.1875,"midi":43,"time":446.671875,"velocity":0.3937007874015748},{"duration":0.1875,"midi":42,"time":446.6953125,"velocity":0.3937007874015748},{"duration":0.1875,"midi":79,"time":446.6953125,"velocity":0.3937007874015748},{"duration":0.1875,"midi":41,"time":446.71875,"velocity":0.3937007874015748},{"duration":0.1875,"midi":80,"time":446.71875,"velocity":0.3937007874015748},{"duration":0.1875,"midi":40,"time":446.7421875,"velocity":0.3937007874015748},{"duration":0.1875,"midi":81,"time":446.7421875,"velocity":0.3937007874015748},{"duration":0.1875,"midi":82,"time":446.765625,"velocity":0.3937007874015748},{"duration":0.1875,"midi":39,"time":446.765625,"velocity":0.3937007874015748},{"duration":0.1875,"midi":38,"time":446.7890625,"velocity":0.3937007874015748},{"duration":0.1875,"midi":83,"time":446.7890625,"velocity":0.3937007874015748},{"duration":0.1875,"midi":80,"time":446.8125,"velocity":0.3937007874015748},{"duration":0.1875,"midi":75,"time":446.8125,"velocity":0.3937007874015748},{"duration":0.1875,"midi":56,"time":446.8125,"velocity":0.3937007874015748},{"duration":0.1875,"midi":63,"time":446.8125,"velocity":0.3937007874015748},{"duration":0.1875,"midi":51,"time":446.8125,"velocity":0.3937007874015748},{"duration":0.1875,"midi":87,"time":446.8125,"velocity":0.3937007874015748},{"duration":0.1875,"midi":44,"time":446.8125,"velocity":0.3937007874015748},{"duration":0.1875,"midi":92,"time":446.8125,"velocity":0.3937007874015748},{"duration":0.1875,"midi":32,"time":446.8125,"velocity":0.3937007874015748},{"duration":0.1875,"midi":37,"time":446.8125,"velocity":0.3937007874015748},{"duration":0.1875,"midi":68,"time":446.8125,"velocity":0.3937007874015748},{"duration":0.1875,"midi":84,"time":446.8125,"velocity":0.3937007874015748},{"duration":0.1875,"midi":27,"time":446.8125,"velocity":0.3937007874015748},{"duration":0.1875,"midi":39,"time":446.8125,"velocity":0.3937007874015748},{"duration":0.1875,"midi":36,"time":446.8359375,"velocity":0.3937007874015748},{"duration":0.1875,"midi":85,"time":446.8359375,"velocity":0.3937007874015748},{"duration":0.1875,"midi":86,"time":446.859375,"velocity":0.3937007874015748},{"duration":0.1875,"midi":35,"time":446.859375,"velocity":0.3937007874015748},{"duration":0.1875,"midi":34,"time":446.8828125,"velocity":0.3937007874015748},{"duration":0.1875,"midi":87,"time":446.8828125,"velocity":0.3937007874015748},{"duration":0.1875,"midi":88,"time":446.90625,"velocity":0.3937007874015748},{"duration":0.1875,"midi":33,"time":446.90625,"velocity":0.3937007874015748},{"duration":0.1875,"midi":32,"time":446.9296875,"velocity":0.3937007874015748},{"duration":0.1875,"midi":89,"time":446.9296875,"velocity":0.3937007874015748},{"duration":0.1875,"midi":31,"time":446.953125,"velocity":0.3937007874015748},{"duration":0.1875,"midi":90,"time":446.953125,"velocity":0.3937007874015748},{"duration":0.1875,"midi":91,"time":446.9765625,"velocity":0.3937007874015748},{"duration":0.1875,"midi":30,"time":446.9765625,"velocity":0.3937007874015748},{"duration":0.1875,"midi":43,"time":447,"velocity":0.3937007874015748},{"duration":0.1875,"midi":31,"time":447,"velocity":0.3937007874015748},{"duration":0.1875,"midi":55,"time":447,"velocity":0.3937007874015748},{"duration":0.1875,"midi":67,"time":447,"velocity":0.3937007874015748},{"duration":0.1875,"midi":40,"time":447,"velocity":0.3937007874015748},{"duration":0.1875,"midi":88,"time":447,"velocity":0.3937007874015748},{"duration":0.1875,"midi":28,"time":447,"velocity":0.3937007874015748},{"duration":0.1875,"midi":52,"time":447,"velocity":0.3937007874015748},{"duration":0.1875,"midi":91,"time":447,"velocity":0.3937007874015748},{"duration":0.1875,"midi":79,"time":447,"velocity":0.3937007874015748},{"duration":0.1875,"midi":76,"time":447,"velocity":0.3937007874015748},{"duration":0.1875,"midi":64,"time":447,"velocity":0.3937007874015748},{"duration":0.1875,"midi":93,"time":447.0234375,"velocity":0.3937007874015748},{"duration":0.1875,"midi":28,"time":447.0234375,"velocity":0.3937007874015748},{"duration":0.1875,"midi":29,"time":447.046875,"velocity":0.3937007874015748},{"duration":0.1875,"midi":92,"time":447.046875,"velocity":0.3937007874015748},{"duration":0.1875,"midi":30,"time":447.0703125,"velocity":0.3937007874015748},{"duration":0.1875,"midi":91,"time":447.0703125,"velocity":0.3937007874015748},{"duration":0.1875,"midi":90,"time":447.09375,"velocity":0.3937007874015748},{"duration":0.1875,"midi":31,"time":447.09375,"velocity":0.3937007874015748},{"duration":0.1875,"midi":32,"time":447.1171875,"velocity":0.3937007874015748},{"duration":0.1875,"midi":89,"time":447.1171875,"velocity":0.3937007874015748},{"duration":0.1875,"midi":88,"time":447.140625,"velocity":0.3937007874015748},{"duration":0.1875,"midi":33,"time":447.140625,"velocity":0.3937007874015748},{"duration":0.1875,"midi":34,"time":447.1640625,"velocity":0.3937007874015748},{"duration":0.1875,"midi":87,"time":447.1640625,"velocity":0.3937007874015748},{"duration":0.1875,"midi":54,"time":447.1875,"velocity":0.3937007874015748},{"duration":0.1875,"midi":86,"time":447.1875,"velocity":0.3937007874015748},{"duration":0.1875,"midi":78,"time":447.1875,"velocity":0.3937007874015748},{"duration":0.1875,"midi":65,"time":447.1875,"velocity":0.3937007874015748},{"duration":0.1875,"midi":66,"time":447.1875,"velocity":0.3937007874015748},{"duration":0.1875,"midi":41,"time":447.1875,"velocity":0.3937007874015748},{"duration":0.1875,"midi":29,"time":447.1875,"velocity":0.3937007874015748},{"duration":0.1875,"midi":35,"time":447.1875,"velocity":0.3937007874015748},{"duration":0.1875,"midi":89,"time":447.1875,"velocity":0.3937007874015748},{"duration":0.1875,"midi":30,"time":447.1875,"velocity":0.3937007874015748},{"duration":0.1875,"midi":90,"time":447.1875,"velocity":0.3937007874015748},{"duration":0.1875,"midi":77,"time":447.1875,"velocity":0.3937007874015748},{"duration":0.1875,"midi":42,"time":447.1875,"velocity":0.3937007874015748},{"duration":0.1875,"midi":53,"time":447.1875,"velocity":0.3937007874015748},{"duration":0.1875,"midi":36,"time":447.2109375,"velocity":0.3937007874015748},{"duration":0.1875,"midi":85,"time":447.2109375,"velocity":0.3937007874015748},{"duration":0.1875,"midi":84,"time":447.234375,"velocity":0.3937007874015748},{"duration":0.1875,"midi":37,"time":447.234375,"velocity":0.3937007874015748},{"duration":0.1875,"midi":83,"time":447.2578125,"velocity":0.3937007874015748},{"duration":0.1875,"midi":38,"time":447.2578125,"velocity":0.3937007874015748},{"duration":0.1875,"midi":39,"time":447.28125,"velocity":0.3937007874015748},{"duration":0.1875,"midi":82,"time":447.28125,"velocity":0.3937007874015748},{"duration":0.1875,"midi":40,"time":447.3046875,"velocity":0.3937007874015748},{"duration":0.1875,"midi":81,"time":447.3046875,"velocity":0.3937007874015748},{"duration":0.1875,"midi":41,"time":447.328125,"velocity":0.3937007874015748},{"duration":0.1875,"midi":80,"time":447.328125,"velocity":0.3937007874015748},{"duration":0.1875,"midi":79,"time":447.3515625,"velocity":0.3937007874015748},{"duration":0.1875,"midi":42,"time":447.3515625,"velocity":0.3937007874015748},{"duration":0.1875,"midi":41,"time":447.375,"velocity":0.3937007874015748},{"duration":0.1875,"midi":53,"time":447.375,"velocity":0.3937007874015748},{"duration":0.1875,"midi":29,"time":447.375,"velocity":0.3937007874015748},{"duration":0.1875,"midi":54,"time":447.375,"velocity":0.3937007874015748},{"duration":0.1875,"midi":43,"time":447.375,"velocity":0.3937007874015748},{"duration":0.1875,"midi":66,"time":447.375,"velocity":0.3937007874015748},{"duration":0.1875,"midi":30,"time":447.375,"velocity":0.3937007874015748},{"duration":0.1875,"midi":90,"time":447.375,"velocity":0.3937007874015748},{"duration":0.1875,"midi":78,"time":447.375,"velocity":0.3937007874015748},{"duration":0.1875,"midi":89,"time":447.375,"velocity":0.3937007874015748},{"duration":0.1875,"midi":78,"time":447.375,"velocity":0.3937007874015748},{"duration":0.1875,"midi":77,"time":447.375,"velocity":0.3937007874015748},{"duration":0.1875,"midi":42,"time":447.375,"velocity":0.3937007874015748},{"duration":0.1875,"midi":65,"time":447.375,"velocity":0.3937007874015748},{"duration":0.1875,"midi":77,"time":447.3984375,"velocity":0.3937007874015748},{"duration":0.1875,"midi":44,"time":447.3984375,"velocity":0.3937007874015748},{"duration":0.1875,"midi":45,"time":447.421875,"velocity":0.3937007874015748},{"duration":0.1875,"midi":76,"time":447.421875,"velocity":0.3937007874015748},{"duration":0.1875,"midi":75,"time":447.4453125,"velocity":0.3937007874015748},{"duration":0.1875,"midi":46,"time":447.4453125,"velocity":0.3937007874015748},{"duration":0.1875,"midi":74,"time":447.46875,"velocity":0.3937007874015748},{"duration":0.1875,"midi":47,"time":447.46875,"velocity":0.3937007874015748},{"duration":0.1875,"midi":48,"time":447.4921875,"velocity":0.3937007874015748},{"duration":0.1875,"midi":73,"time":447.4921875,"velocity":0.3937007874015748},{"duration":0.1875,"midi":72,"time":447.515625,"velocity":0.3937007874015748},{"duration":0.1875,"midi":49,"time":447.515625,"velocity":0.3937007874015748},{"duration":0.1875,"midi":50,"time":447.5390625,"velocity":0.3937007874015748},{"duration":0.1875,"midi":71,"time":447.5390625,"velocity":0.3937007874015748},{"duration":0.1875,"midi":88,"time":447.5625,"velocity":0.3937007874015748},{"duration":0.1875,"midi":51,"time":447.5625,"velocity":0.3937007874015748},{"duration":0.1875,"midi":43,"time":447.5625,"velocity":0.3937007874015748},{"duration":0.1875,"midi":52,"time":447.5625,"velocity":0.3937007874015748},{"duration":0.1875,"midi":40,"time":447.5625,"velocity":0.3937007874015748},{"duration":0.1875,"midi":70,"time":447.5625,"velocity":0.3937007874015748},{"duration":0.1875,"midi":67,"time":447.5625,"velocity":0.3937007874015748},{"duration":0.1875,"midi":28,"time":447.5625,"velocity":0.3937007874015748},{"duration":0.1875,"midi":79,"time":447.5625,"velocity":0.3937007874015748},{"duration":0.1875,"midi":76,"time":447.5625,"velocity":0.3937007874015748},{"duration":0.1875,"midi":64,"time":447.5625,"velocity":0.3937007874015748},{"duration":0.1875,"midi":55,"time":447.5625,"velocity":0.3937007874015748},{"duration":0.1875,"midi":91,"time":447.5625,"velocity":0.3937007874015748},{"duration":0.1875,"midi":31,"time":447.5625,"velocity":0.3937007874015748},{"duration":0.1875,"midi":69,"time":447.5859375,"velocity":0.3937007874015748},{"duration":0.1875,"midi":52,"time":447.5859375,"velocity":0.3937007874015748},{"duration":0.1875,"midi":68,"time":447.609375,"velocity":0.3937007874015748},{"duration":0.1875,"midi":53,"time":447.609375,"velocity":0.3937007874015748},{"duration":0.1875,"midi":54,"time":447.6328125,"velocity":0.3937007874015748},{"duration":0.1875,"midi":67,"time":447.6328125,"velocity":0.3937007874015748},{"duration":0.1875,"midi":66,"time":447.65625,"velocity":0.3937007874015748},{"duration":0.1875,"midi":55,"time":447.65625,"velocity":0.3937007874015748},{"duration":0.1875,"midi":56,"time":447.6796875,"velocity":0.3937007874015748},{"duration":0.1875,"midi":65,"time":447.6796875,"velocity":0.3937007874015748},{"duration":0.1875,"midi":57,"time":447.703125,"velocity":0.3937007874015748},{"duration":0.1875,"midi":64,"time":447.703125,"velocity":0.3937007874015748},{"duration":0.1875,"midi":58,"time":447.7265625,"velocity":0.3937007874015748},{"duration":0.1875,"midi":63,"time":447.7265625,"velocity":0.3937007874015748},{"duration":0.1875,"midi":39,"time":447.75,"velocity":0.3937007874015748},{"duration":0.1875,"midi":56,"time":447.75,"velocity":0.3937007874015748},{"duration":0.1875,"midi":87,"time":447.75,"velocity":0.3937007874015748},{"duration":0.1875,"midi":80,"time":447.75,"velocity":0.3937007874015748},{"duration":0.1875,"midi":75,"time":447.75,"velocity":0.3937007874015748},{"duration":0.1875,"midi":51,"time":447.75,"velocity":0.3937007874015748},{"duration":0.1875,"midi":59,"time":447.75,"velocity":0.3937007874015748},{"duration":0.1875,"midi":44,"time":447.75,"velocity":0.3937007874015748},{"duration":0.1875,"midi":32,"time":447.75,"velocity":0.3937007874015748},{"duration":0.1875,"midi":62,"time":447.75,"velocity":0.3937007874015748},{"duration":0.1875,"midi":27,"time":447.75,"velocity":0.3937007874015748},{"duration":0.1875,"midi":63,"time":447.75,"velocity":0.3937007874015748},{"duration":0.1875,"midi":92,"time":447.75,"velocity":0.3937007874015748},{"duration":0.1875,"midi":68,"time":447.75,"velocity":0.3937007874015748},{"duration":0.1875,"midi":60,"time":447.7734375,"velocity":0.3937007874015748},{"duration":0.1875,"midi":61,"time":447.7734375,"velocity":0.3937007874015748},{"duration":0.1875,"midi":61,"time":447.796875,"velocity":0.3937007874015748},{"duration":0.1875,"midi":60,"time":447.796875,"velocity":0.3937007874015748},{"duration":0.1875,"midi":62,"time":447.8203125,"velocity":0.3937007874015748},{"duration":0.1875,"midi":59,"time":447.8203125,"velocity":0.3937007874015748},{"duration":0.1875,"midi":58,"time":447.84375,"velocity":0.3937007874015748},{"duration":0.1875,"midi":63,"time":447.84375,"velocity":0.3937007874015748},{"duration":0.1875,"midi":57,"time":447.8671875,"velocity":0.3937007874015748},{"duration":0.1875,"midi":64,"time":447.8671875,"velocity":0.3937007874015748},{"duration":0.1875,"midi":56,"time":447.890625,"velocity":0.3937007874015748},{"duration":0.1875,"midi":65,"time":447.890625,"velocity":0.3937007874015748},{"duration":0.1875,"midi":55,"time":447.9140625,"velocity":0.3937007874015748},{"duration":0.1875,"midi":66,"time":447.9140625,"velocity":0.3937007874015748},{"duration":0.1875,"midi":57,"time":447.9375,"velocity":0.3937007874015748},{"duration":0.1875,"midi":33,"time":447.9375,"velocity":0.3937007874015748},{"duration":0.1875,"midi":45,"time":447.9375,"velocity":0.3937007874015748},{"duration":0.1875,"midi":81,"time":447.9375,"velocity":0.3937007874015748},{"duration":0.1875,"midi":93,"time":447.9375,"velocity":0.3937007874015748},{"duration":0.1875,"midi":69,"time":447.9375,"velocity":0.3937007874015748},{"duration":0.1875,"midi":62,"time":447.9375,"velocity":0.3937007874015748},{"duration":0.1875,"midi":54,"time":447.9375,"velocity":0.3937007874015748},{"duration":0.1875,"midi":50,"time":447.9375,"velocity":0.3937007874015748},{"duration":0.1875,"midi":38,"time":447.9375,"velocity":0.3937007874015748},{"duration":0.1875,"midi":74,"time":447.9375,"velocity":0.3937007874015748},{"duration":0.1875,"midi":67,"time":447.9375,"velocity":0.3937007874015748},{"duration":0.1875,"midi":26,"time":447.9375,"velocity":0.3937007874015748},{"duration":0.1875,"midi":86,"time":447.9375,"velocity":0.3937007874015748},{"duration":0.1875,"midi":53,"time":447.9609375,"velocity":0.3937007874015748},{"duration":0.1875,"midi":68,"time":447.9609375,"velocity":0.3937007874015748},{"duration":0.1875,"midi":52,"time":447.984375,"velocity":0.3937007874015748},{"duration":0.1875,"midi":69,"time":447.984375,"velocity":0.3937007874015748},{"duration":0.1875,"midi":70,"time":448.0078125,"velocity":0.3937007874015748},{"duration":0.1875,"midi":51,"time":448.0078125,"velocity":0.3937007874015748},{"duration":0.1875,"midi":50,"time":448.03125,"velocity":0.3937007874015748},{"duration":0.1875,"midi":71,"time":448.03125,"velocity":0.3937007874015748},{"duration":0.1875,"midi":49,"time":448.0546875,"velocity":0.3937007874015748},{"duration":0.1875,"midi":72,"time":448.0546875,"velocity":0.3937007874015748},{"duration":0.1875,"midi":73,"time":448.078125,"velocity":0.3937007874015748},{"duration":0.1875,"midi":48,"time":448.078125,"velocity":0.3937007874015748},{"duration":0.1875,"midi":74,"time":448.1015625,"velocity":0.3937007874015748},{"duration":0.1875,"midi":47,"time":448.1015625,"velocity":0.3937007874015748},{"duration":0.1875,"midi":34,"time":448.125,"velocity":0.3937007874015748},{"duration":0.1875,"midi":94,"time":448.125,"velocity":0.3937007874015748},{"duration":0.1875,"midi":73,"time":448.125,"velocity":0.3937007874015748},{"duration":0.1875,"midi":75,"time":448.125,"velocity":0.3937007874015748},{"duration":0.1875,"midi":58,"time":448.125,"velocity":0.3937007874015748},{"duration":0.1875,"midi":61,"time":448.125,"velocity":0.3937007874015748},{"duration":0.1875,"midi":85,"time":448.125,"velocity":0.3937007874015748},{"duration":0.1875,"midi":46,"time":448.125,"velocity":0.3937007874015748},{"duration":0.1875,"midi":46,"time":448.125,"velocity":0.3937007874015748},{"duration":0.1875,"midi":82,"time":448.125,"velocity":0.3937007874015748},{"duration":0.1875,"midi":25,"time":448.125,"velocity":0.3937007874015748},{"duration":0.1875,"midi":49,"time":448.125,"velocity":0.3937007874015748},{"duration":0.1875,"midi":70,"time":448.125,"velocity":0.3937007874015748},{"duration":0.1875,"midi":37,"time":448.125,"velocity":0.3937007874015748},{"duration":0.1875,"midi":76,"time":448.1484375,"velocity":0.3937007874015748},{"duration":0.1875,"midi":45,"time":448.1484375,"velocity":0.3937007874015748},{"duration":0.1875,"midi":77,"time":448.171875,"velocity":0.3937007874015748},{"duration":0.1875,"midi":44,"time":448.171875,"velocity":0.3937007874015748},{"duration":0.1875,"midi":78,"time":448.1953125,"velocity":0.3937007874015748},{"duration":0.1875,"midi":43,"time":448.1953125,"velocity":0.3937007874015748},{"duration":0.1875,"midi":42,"time":448.21875,"velocity":0.3937007874015748},{"duration":0.1875,"midi":79,"time":448.21875,"velocity":0.3937007874015748},{"duration":0.1875,"midi":41,"time":448.2421875,"velocity":0.3937007874015748},{"duration":0.1875,"midi":80,"time":448.2421875,"velocity":0.3937007874015748},{"duration":0.1875,"midi":40,"time":448.265625,"velocity":0.3937007874015748},{"duration":0.1875,"midi":81,"time":448.265625,"velocity":0.3937007874015748},{"duration":0.1875,"midi":39,"time":448.2890625,"velocity":0.3937007874015748},{"duration":0.1875,"midi":82,"time":448.2890625,"velocity":0.3937007874015748},{"duration":0.1875,"midi":59,"time":448.3125,"velocity":0.3937007874015748},{"duration":0.1875,"midi":36,"time":448.3125,"velocity":0.3937007874015748},{"duration":0.1875,"midi":84,"time":448.3125,"velocity":0.3937007874015748},{"duration":0.1875,"midi":95,"time":448.3125,"velocity":0.3937007874015748},{"duration":0.1875,"midi":38,"time":448.3125,"velocity":0.3937007874015748},{"duration":0.1875,"midi":72,"time":448.3125,"velocity":0.3937007874015748},{"duration":0.1875,"midi":83,"time":448.3125,"velocity":0.3937007874015748},{"duration":0.1875,"midi":83,"time":448.3125,"velocity":0.3937007874015748},{"duration":0.1875,"midi":60,"time":448.3125,"velocity":0.3937007874015748},{"duration":0.1875,"midi":71,"time":448.3125,"velocity":0.3937007874015748},{"duration":0.1875,"midi":35,"time":448.3125,"velocity":0.3937007874015748},{"duration":0.1875,"midi":24,"time":448.3125,"velocity":0.3937007874015748},{"duration":0.1875,"midi":47,"time":448.3125,"velocity":0.3937007874015748},{"duration":0.1875,"midi":48,"time":448.3125,"velocity":0.3937007874015748},{"duration":0.1875,"midi":84,"time":448.3359375,"velocity":0.3937007874015748},{"duration":0.1875,"midi":37,"time":448.3359375,"velocity":0.3937007874015748},{"duration":0.1875,"midi":36,"time":448.359375,"velocity":0.3937007874015748},{"duration":0.1875,"midi":85,"time":448.359375,"velocity":0.3937007874015748},{"duration":0.1875,"midi":35,"time":448.3828125,"velocity":0.3937007874015748},{"duration":0.1875,"midi":86,"time":448.3828125,"velocity":0.3937007874015748},{"duration":0.1875,"midi":34,"time":448.40625,"velocity":0.3937007874015748},{"duration":0.1875,"midi":87,"time":448.40625,"velocity":0.3937007874015748},{"duration":0.1875,"midi":33,"time":448.4296875,"velocity":0.3937007874015748},{"duration":0.1875,"midi":88,"time":448.4296875,"velocity":0.3937007874015748},{"duration":0.1875,"midi":32,"time":448.453125,"velocity":0.3937007874015748},{"duration":0.1875,"midi":89,"time":448.453125,"velocity":0.3937007874015748},{"duration":0.1875,"midi":90,"time":448.4765625,"velocity":0.3937007874015748},{"duration":0.1875,"midi":31,"time":448.4765625,"velocity":0.3937007874015748},{"duration":0.1875,"midi":71,"time":448.5,"velocity":0.3937007874015748},{"duration":0.1875,"midi":95,"time":448.5,"velocity":0.3937007874015748},{"duration":0.1875,"midi":83,"time":448.5,"velocity":0.3937007874015748},{"duration":0.1875,"midi":84,"time":448.5,"velocity":0.3937007874015748},{"duration":0.1875,"midi":93,"time":448.5,"velocity":0.3937007874015748},{"duration":0.1875,"midi":35,"time":448.5,"velocity":0.3937007874015748},{"duration":0.1875,"midi":47,"time":448.5,"velocity":0.3937007874015748},{"duration":0.1875,"midi":60,"time":448.5,"velocity":0.3937007874015748},{"duration":0.1875,"midi":91,"time":448.5,"velocity":0.3937007874015748},{"duration":0.1875,"midi":59,"time":448.5,"velocity":0.3937007874015748},{"duration":0.1875,"midi":36,"time":448.5,"velocity":0.3937007874015748},{"duration":0.1875,"midi":30,"time":448.5,"velocity":0.3937007874015748},{"duration":0.1875,"midi":24,"time":448.5,"velocity":0.3937007874015748},{"duration":0.1875,"midi":28,"time":448.5,"velocity":0.3937007874015748},{"duration":0.1875,"midi":48,"time":448.5,"velocity":0.3937007874015748},{"duration":0.1875,"midi":72,"time":448.5,"velocity":0.3937007874015748},{"duration":0.1875,"midi":29,"time":448.5234375,"velocity":0.3937007874015748},{"duration":0.1875,"midi":92,"time":448.5234375,"velocity":0.3937007874015748},{"duration":0.1875,"midi":91,"time":448.546875,"velocity":0.3937007874015748},{"duration":0.1875,"midi":30,"time":448.546875,"velocity":0.3937007874015748},{"duration":0.1875,"midi":90,"time":448.5703125,"velocity":0.3937007874015748},{"duration":0.1875,"midi":31,"time":448.5703125,"velocity":0.3937007874015748},{"duration":0.1875,"midi":89,"time":448.59375,"velocity":0.3937007874015748},{"duration":0.1875,"midi":32,"time":448.59375,"velocity":0.3937007874015748},{"duration":0.1875,"midi":88,"time":448.6171875,"velocity":0.3937007874015748},{"duration":0.1875,"midi":33,"time":448.6171875,"velocity":0.3937007874015748},{"duration":0.1875,"midi":87,"time":448.640625,"velocity":0.3937007874015748},{"duration":0.1875,"midi":34,"time":448.640625,"velocity":0.3937007874015748},{"duration":0.1875,"midi":35,"time":448.6640625,"velocity":0.3937007874015748},{"duration":0.1875,"midi":86,"time":448.6640625,"velocity":0.3937007874015748},{"duration":0.1875,"midi":36,"time":448.6875,"velocity":0.3937007874015748},{"duration":0.1875,"midi":37,"time":448.6875,"velocity":0.3937007874015748},{"duration":0.1875,"midi":82,"time":448.6875,"velocity":0.3937007874015748},{"duration":0.1875,"midi":49,"time":448.6875,"velocity":0.3937007874015748},{"duration":0.1875,"midi":34,"time":448.6875,"velocity":0.3937007874015748},{"duration":0.1875,"midi":70,"time":448.6875,"velocity":0.3937007874015748},{"duration":0.1875,"midi":85,"time":448.6875,"velocity":0.3937007874015748},{"duration":0.1875,"midi":58,"time":448.6875,"velocity":0.3937007874015748},{"duration":0.1875,"midi":85,"time":448.6875,"velocity":0.3937007874015748},{"duration":0.1875,"midi":61,"time":448.6875,"velocity":0.3937007874015748},{"duration":0.1875,"midi":25,"time":448.6875,"velocity":0.3937007874015748},{"duration":0.1875,"midi":94,"time":448.6875,"velocity":0.3937007874015748},{"duration":0.1875,"midi":46,"time":448.6875,"velocity":0.3937007874015748},{"duration":0.1875,"midi":73,"time":448.6875,"velocity":0.3937007874015748},{"duration":0.1875,"midi":84,"time":448.7109375,"velocity":0.3937007874015748},{"duration":0.1875,"midi":37,"time":448.7109375,"velocity":0.3937007874015748},{"duration":0.1875,"midi":83,"time":448.734375,"velocity":0.3937007874015748},{"duration":0.1875,"midi":38,"time":448.734375,"velocity":0.3937007874015748},{"duration":0.1875,"midi":82,"time":448.7578125,"velocity":0.3937007874015748},{"duration":0.1875,"midi":39,"time":448.7578125,"velocity":0.3937007874015748},{"duration":0.1875,"midi":40,"time":448.78125,"velocity":0.3937007874015748},{"duration":0.1875,"midi":81,"time":448.78125,"velocity":0.3937007874015748},{"duration":0.1875,"midi":80,"time":448.8046875,"velocity":0.3937007874015748},{"duration":0.1875,"midi":41,"time":448.8046875,"velocity":0.3937007874015748},{"duration":0.1875,"midi":79,"time":448.828125,"velocity":0.3937007874015748},{"duration":0.1875,"midi":42,"time":448.828125,"velocity":0.3937007874015748},{"duration":0.1875,"midi":78,"time":448.8515625,"velocity":0.3937007874015748},{"duration":0.1875,"midi":43,"time":448.8515625,"velocity":0.3937007874015748},{"duration":0.1875,"midi":50,"time":448.875,"velocity":0.3937007874015748},{"duration":0.1875,"midi":74,"time":448.875,"velocity":0.3937007874015748},{"duration":0.1875,"midi":86,"time":448.875,"velocity":0.3937007874015748},{"duration":0.1875,"midi":33,"time":448.875,"velocity":0.3937007874015748},{"duration":0.1875,"midi":62,"time":448.875,"velocity":0.3937007874015748},{"duration":0.1875,"midi":69,"time":448.875,"velocity":0.3937007874015748},{"duration":0.1875,"midi":38,"time":448.875,"velocity":0.3937007874015748},{"duration":0.1875,"midi":93,"time":448.875,"velocity":0.3937007874015748},{"duration":0.1875,"midi":81,"time":448.875,"velocity":0.3937007874015748},{"duration":0.1875,"midi":45,"time":448.875,"velocity":0.3937007874015748},{"duration":0.1875,"midi":26,"time":448.875,"velocity":0.3937007874015748},{"duration":0.1875,"midi":44,"time":448.875,"velocity":0.3937007874015748},{"duration":0.1875,"midi":77,"time":448.875,"velocity":0.3937007874015748},{"duration":0.1875,"midi":57,"time":448.875,"velocity":0.3937007874015748},{"duration":0.1875,"midi":45,"time":448.8984375,"velocity":0.3937007874015748},{"duration":0.1875,"midi":76,"time":448.8984375,"velocity":0.3937007874015748},{"duration":0.1875,"midi":75,"time":448.921875,"velocity":0.3937007874015748},{"duration":0.1875,"midi":46,"time":448.921875,"velocity":0.3937007874015748},{"duration":0.1875,"midi":47,"time":448.9453125,"velocity":0.3937007874015748},{"duration":0.1875,"midi":74,"time":448.9453125,"velocity":0.3937007874015748},{"duration":0.1875,"midi":73,"time":448.96875,"velocity":0.3937007874015748},{"duration":0.1875,"midi":48,"time":448.96875,"velocity":0.3937007874015748},{"duration":0.1875,"midi":72,"time":448.9921875,"velocity":0.3937007874015748},{"duration":0.1875,"midi":49,"time":448.9921875,"velocity":0.3937007874015748},{"duration":0.1875,"midi":50,"time":449.015625,"velocity":0.3937007874015748},{"duration":0.1875,"midi":71,"time":449.015625,"velocity":0.3937007874015748},{"duration":0.1875,"midi":51,"time":449.0390625,"velocity":0.3937007874015748},{"duration":0.1875,"midi":70,"time":449.0390625,"velocity":0.3937007874015748},{"duration":0.1875,"midi":32,"time":449.0625,"velocity":0.3937007874015748},{"duration":0.1875,"midi":56,"time":449.0625,"velocity":0.3937007874015748},{"duration":0.1875,"midi":39,"time":449.0625,"velocity":0.3937007874015748},{"duration":0.1875,"midi":27,"time":449.0625,"velocity":0.3937007874015748},{"duration":0.1875,"midi":68,"time":449.0625,"velocity":0.3937007874015748},{"duration":0.1875,"midi":51,"time":449.0625,"velocity":0.3937007874015748},{"duration":0.1875,"midi":69,"time":449.0625,"velocity":0.3937007874015748},{"duration":0.1875,"midi":44,"time":449.0625,"velocity":0.3937007874015748},{"duration":0.1875,"midi":87,"time":449.0625,"velocity":0.3937007874015748},{"duration":0.1875,"midi":52,"time":449.0625,"velocity":0.3937007874015748},{"duration":0.1875,"midi":63,"time":449.0625,"velocity":0.3937007874015748},{"duration":0.1875,"midi":75,"time":449.0625,"velocity":0.3937007874015748},{"duration":0.1875,"midi":92,"time":449.0625,"velocity":0.3937007874015748},{"duration":0.1875,"midi":80,"time":449.0625,"velocity":0.3937007874015748},{"duration":0.1875,"midi":68,"time":449.0859375,"velocity":0.3937007874015748},{"duration":0.1875,"midi":53,"time":449.0859375,"velocity":0.3937007874015748},{"duration":0.1875,"midi":54,"time":449.109375,"velocity":0.3937007874015748},{"duration":0.1875,"midi":67,"time":449.109375,"velocity":0.3937007874015748},{"duration":0.1875,"midi":66,"time":449.1328125,"velocity":0.3937007874015748},{"duration":0.1875,"midi":55,"time":449.1328125,"velocity":0.3937007874015748},{"duration":0.1875,"midi":65,"time":449.15625,"velocity":0.3937007874015748},{"duration":0.1875,"midi":56,"time":449.15625,"velocity":0.3937007874015748},{"duration":0.1875,"midi":57,"time":449.1796875,"velocity":0.3937007874015748},{"duration":0.1875,"midi":64,"time":449.1796875,"velocity":0.3937007874015748},{"duration":0.1875,"midi":63,"time":449.203125,"velocity":0.3937007874015748},{"duration":0.1875,"midi":58,"time":449.203125,"velocity":0.3937007874015748},{"duration":0.1875,"midi":59,"time":449.2265625,"velocity":0.3937007874015748},{"duration":0.1875,"midi":62,"time":449.2265625,"velocity":0.3937007874015748},{"duration":0.1875,"midi":52,"time":449.25,"velocity":0.3937007874015748},{"duration":0.1875,"midi":61,"time":449.25,"velocity":0.3937007874015748},{"duration":0.1875,"midi":28,"time":449.25,"velocity":0.3937007874015748},{"duration":0.1875,"midi":64,"time":449.25,"velocity":0.3937007874015748},{"duration":0.1875,"midi":60,"time":449.25,"velocity":0.3937007874015748},{"duration":0.1875,"midi":67,"time":449.25,"velocity":0.3937007874015748},{"duration":0.1875,"midi":91,"time":449.25,"velocity":0.3937007874015748},{"duration":0.1875,"midi":43,"time":449.25,"velocity":0.3937007874015748},{"duration":0.1875,"midi":76,"time":449.25,"velocity":0.3937007874015748},{"duration":0.1875,"midi":40,"time":449.25,"velocity":0.3937007874015748},{"duration":0.1875,"midi":79,"time":449.25,"velocity":0.3937007874015748},{"duration":0.1875,"midi":55,"time":449.25,"velocity":0.3937007874015748},{"duration":0.1875,"midi":31,"time":449.25,"velocity":0.3937007874015748},{"duration":0.1875,"midi":88,"time":449.25,"velocity":0.3937007874015748},{"duration":0.1875,"midi":60,"time":449.2734375,"velocity":0.3937007874015748},{"duration":0.1875,"midi":61,"time":449.2734375,"velocity":0.3937007874015748},{"duration":0.1875,"midi":59,"time":449.296875,"velocity":0.3937007874015748},{"duration":0.1875,"midi":62,"time":449.296875,"velocity":0.3937007874015748},{"duration":0.1875,"midi":58,"time":449.3203125,"velocity":0.3937007874015748},{"duration":0.1875,"midi":63,"time":449.3203125,"velocity":0.3937007874015748},{"duration":0.1875,"midi":64,"time":449.34375,"velocity":0.3937007874015748},{"duration":0.1875,"midi":57,"time":449.34375,"velocity":0.3937007874015748},{"duration":0.1875,"midi":56,"time":449.3671875,"velocity":0.3937007874015748},{"duration":0.1875,"midi":65,"time":449.3671875,"velocity":0.3937007874015748},{"duration":0.1875,"midi":66,"time":449.390625,"velocity":0.3937007874015748},{"duration":0.1875,"midi":55,"time":449.390625,"velocity":0.3937007874015748},{"duration":0.1875,"midi":67,"time":449.4140625,"velocity":0.3937007874015748},{"duration":0.1875,"midi":54,"time":449.4140625,"velocity":0.3937007874015748},{"duration":0.1875,"midi":68,"time":449.4375,"velocity":0.3937007874015748},{"duration":0.1875,"midi":53,"time":449.4375,"velocity":0.3937007874015748},{"duration":0.1875,"midi":78,"time":449.4375,"velocity":0.3937007874015748},{"duration":0.1875,"midi":54,"time":449.4375,"velocity":0.3937007874015748},{"duration":0.1875,"midi":30,"time":449.4375,"velocity":0.3937007874015748},{"duration":0.1875,"midi":65,"time":449.4375,"velocity":0.3937007874015748},{"duration":0.1875,"midi":77,"time":449.4375,"velocity":0.3937007874015748},{"duration":0.1875,"midi":53,"time":449.4375,"velocity":0.3937007874015748},{"duration":0.1875,"midi":42,"time":449.4375,"velocity":0.3937007874015748},{"duration":0.1875,"midi":29,"time":449.4375,"velocity":0.3937007874015748},{"duration":0.1875,"midi":90,"time":449.4375,"velocity":0.3937007874015748},{"duration":0.1875,"midi":41,"time":449.4375,"velocity":0.3937007874015748},{"duration":0.1875,"midi":89,"time":449.4375,"velocity":0.3937007874015748},{"duration":0.1875,"midi":66,"time":449.4375,"velocity":0.3937007874015748},{"duration":0.1875,"midi":52,"time":449.4609375,"velocity":0.3937007874015748},{"duration":0.1875,"midi":69,"time":449.4609375,"velocity":0.3937007874015748},{"duration":0.1875,"midi":70,"time":449.484375,"velocity":0.3937007874015748},{"duration":0.1875,"midi":51,"time":449.484375,"velocity":0.3937007874015748},{"duration":0.1875,"midi":50,"time":449.5078125,"velocity":0.3937007874015748},{"duration":0.1875,"midi":71,"time":449.5078125,"velocity":0.3937007874015748},{"duration":0.1875,"midi":49,"time":449.53125,"velocity":0.3937007874015748},{"duration":0.1875,"midi":72,"time":449.53125,"velocity":0.3937007874015748},{"duration":0.1875,"midi":73,"time":449.5546875,"velocity":0.3937007874015748},{"duration":0.1875,"midi":48,"time":449.5546875,"velocity":0.3937007874015748},{"duration":0.1875,"midi":47,"time":449.578125,"velocity":0.3937007874015748},{"duration":0.1875,"midi":74,"time":449.578125,"velocity":0.3937007874015748},{"duration":0.1875,"midi":75,"time":449.6015625,"velocity":0.3937007874015748},{"duration":0.1875,"midi":46,"time":449.6015625,"velocity":0.3937007874015748},{"duration":0.1875,"midi":30,"time":449.625,"velocity":0.3937007874015748},{"duration":0.1875,"midi":76,"time":449.625,"velocity":0.3937007874015748},{"duration":0.1875,"midi":66,"time":449.625,"velocity":0.3937007874015748},{"duration":0.1875,"midi":77,"time":449.625,"velocity":0.3937007874015748},{"duration":0.1875,"midi":65,"time":449.625,"velocity":0.3937007874015748},{"duration":0.1875,"midi":53,"time":449.625,"velocity":0.3937007874015748},{"duration":0.1875,"midi":41,"time":449.625,"velocity":0.3937007874015748},{"duration":0.1875,"midi":29,"time":449.625,"velocity":0.3937007874015748},{"duration":0.1875,"midi":89,"time":449.625,"velocity":0.3937007874015748},{"duration":0.1875,"midi":78,"time":449.625,"velocity":0.3937007874015748},{"duration":0.1875,"midi":90,"time":449.625,"velocity":0.3937007874015748},{"duration":0.1875,"midi":42,"time":449.625,"velocity":0.3937007874015748},{"duration":0.1875,"midi":45,"time":449.625,"velocity":0.3937007874015748},{"duration":0.1875,"midi":54,"time":449.625,"velocity":0.3937007874015748},{"duration":0.1875,"midi":44,"time":449.6484375,"velocity":0.3937007874015748},{"duration":0.1875,"midi":77,"time":449.6484375,"velocity":0.3937007874015748},{"duration":0.1875,"midi":43,"time":449.671875,"velocity":0.3937007874015748},{"duration":0.1875,"midi":78,"time":449.671875,"velocity":0.3937007874015748},{"duration":0.1875,"midi":79,"time":449.6953125,"velocity":0.3937007874015748},{"duration":0.1875,"midi":42,"time":449.6953125,"velocity":0.3937007874015748},{"duration":0.1875,"midi":80,"time":449.71875,"velocity":0.3937007874015748},{"duration":0.1875,"midi":41,"time":449.71875,"velocity":0.3937007874015748},{"duration":0.1875,"midi":40,"time":449.7421875,"velocity":0.3937007874015748},{"duration":0.1875,"midi":81,"time":449.7421875,"velocity":0.3937007874015748},{"duration":0.1875,"midi":82,"time":449.765625,"velocity":0.3937007874015748},{"duration":0.1875,"midi":39,"time":449.765625,"velocity":0.3937007874015748},{"duration":0.1875,"midi":38,"time":449.7890625,"velocity":0.3937007874015748},{"duration":0.1875,"midi":83,"time":449.7890625,"velocity":0.3937007874015748},{"duration":0.1875,"midi":40,"time":449.8125,"velocity":0.3937007874015748},{"duration":0.1875,"midi":67,"time":449.8125,"velocity":0.3937007874015748},{"duration":0.1875,"midi":28,"time":449.8125,"velocity":0.3937007874015748},{"duration":0.1875,"midi":37,"time":449.8125,"velocity":0.3937007874015748},{"duration":0.1875,"midi":52,"time":449.8125,"velocity":0.3937007874015748},{"duration":0.1875,"midi":79,"time":449.8125,"velocity":0.3937007874015748},{"duration":0.1875,"midi":31,"time":449.8125,"velocity":0.3937007874015748},{"duration":0.1875,"midi":76,"time":449.8125,"velocity":0.3937007874015748},{"duration":0.1875,"midi":43,"time":449.8125,"velocity":0.3937007874015748},{"duration":0.1875,"midi":55,"time":449.8125,"velocity":0.3937007874015748},{"duration":0.1875,"midi":64,"time":449.8125,"velocity":0.3937007874015748},{"duration":0.1875,"midi":84,"time":449.8125,"velocity":0.3937007874015748},{"duration":0.1875,"midi":91,"time":449.8125,"velocity":0.3937007874015748},{"duration":0.1875,"midi":88,"time":449.8125,"velocity":0.3937007874015748},{"duration":0.1875,"midi":85,"time":449.8359375,"velocity":0.3937007874015748},{"duration":0.1875,"midi":36,"time":449.8359375,"velocity":0.3937007874015748},{"duration":0.1875,"midi":35,"time":449.859375,"velocity":0.3937007874015748},{"duration":0.1875,"midi":86,"time":449.859375,"velocity":0.3937007874015748},{"duration":0.1875,"midi":87,"time":449.8828125,"velocity":0.3937007874015748},{"duration":0.1875,"midi":34,"time":449.8828125,"velocity":0.3937007874015748},{"duration":0.1875,"midi":33,"time":449.90625,"velocity":0.3937007874015748},{"duration":0.1875,"midi":88,"time":449.90625,"velocity":0.3937007874015748},{"duration":0.1875,"midi":89,"time":449.9296875,"velocity":0.3937007874015748},{"duration":0.1875,"midi":32,"time":449.9296875,"velocity":0.3937007874015748},{"duration":0.1875,"midi":90,"time":449.953125,"velocity":0.3937007874015748},{"duration":0.1875,"midi":31,"time":449.953125,"velocity":0.3937007874015748},{"duration":0.1875,"midi":30,"time":449.9765625,"velocity":0.3937007874015748},{"duration":0.1875,"midi":91,"time":449.9765625,"velocity":0.3937007874015748},{"duration":0.1875,"midi":28,"time":450,"velocity":0.3937007874015748},{"duration":0.1875,"midi":32,"time":450,"velocity":0.3937007874015748},{"duration":0.1875,"midi":27,"time":450,"velocity":0.3937007874015748},{"duration":0.1875,"midi":93,"time":450,"velocity":0.3937007874015748},{"duration":0.1875,"midi":39,"time":450,"velocity":0.3937007874015748},{"duration":0.1875,"midi":56,"time":450,"velocity":0.3937007874015748},{"duration":0.1875,"midi":87,"time":450,"velocity":0.3937007874015748},{"duration":0.1875,"midi":63,"time":450,"velocity":0.3937007874015748},{"duration":0.1875,"midi":80,"time":450,"velocity":0.3937007874015748},{"duration":0.1875,"midi":44,"time":450,"velocity":0.3937007874015748},{"duration":0.1875,"midi":68,"time":450,"velocity":0.3937007874015748},{"duration":0.1875,"midi":51,"time":450,"velocity":0.3937007874015748},{"duration":0.1875,"midi":75,"time":450,"velocity":0.3937007874015748},{"duration":0.1875,"midi":92,"time":450,"velocity":0.3937007874015748},{"duration":0.1875,"midi":92,"time":450.0234375,"velocity":0.3937007874015748},{"duration":0.1875,"midi":29,"time":450.0234375,"velocity":0.3937007874015748},{"duration":0.1875,"midi":91,"time":450.046875,"velocity":0.3937007874015748},{"duration":0.1875,"midi":30,"time":450.046875,"velocity":0.3937007874015748},{"duration":0.1875,"midi":90,"time":450.0703125,"velocity":0.3937007874015748},{"duration":0.1875,"midi":31,"time":450.0703125,"velocity":0.3937007874015748},{"duration":0.1875,"midi":32,"time":450.09375,"velocity":0.3937007874015748},{"duration":0.1875,"midi":89,"time":450.09375,"velocity":0.3937007874015748},{"duration":0.1875,"midi":88,"time":450.1171875,"velocity":0.3937007874015748},{"duration":0.1875,"midi":33,"time":450.1171875,"velocity":0.3937007874015748},{"duration":0.1875,"midi":87,"time":450.140625,"velocity":0.3937007874015748},{"duration":0.1875,"midi":34,"time":450.140625,"velocity":0.3937007874015748},{"duration":0.1875,"midi":35,"time":450.1640625,"velocity":0.3937007874015748},{"duration":0.1875,"midi":86,"time":450.1640625,"velocity":0.3937007874015748},{"duration":0.1875,"midi":69,"time":450.1875,"velocity":0.3937007874015748},{"duration":0.1875,"midi":74,"time":450.1875,"velocity":0.3937007874015748},{"duration":0.1875,"midi":85,"time":450.1875,"velocity":0.3937007874015748},{"duration":0.1875,"midi":38,"time":450.1875,"velocity":0.3937007874015748},{"duration":0.1875,"midi":50,"time":450.1875,"velocity":0.3937007874015748},{"duration":0.1875,"midi":33,"time":450.1875,"velocity":0.3937007874015748},{"duration":0.1875,"midi":86,"time":450.1875,"velocity":0.3937007874015748},{"duration":0.1875,"midi":26,"time":450.1875,"velocity":0.3937007874015748},{"duration":0.1875,"midi":93,"time":450.1875,"velocity":0.3937007874015748},{"duration":0.1875,"midi":36,"time":450.1875,"velocity":0.3937007874015748},{"duration":0.1875,"midi":81,"time":450.1875,"velocity":0.3937007874015748},{"duration":0.1875,"midi":62,"time":450.1875,"velocity":0.3937007874015748},{"duration":0.1875,"midi":57,"time":450.1875,"velocity":0.3937007874015748},{"duration":0.1875,"midi":45,"time":450.1875,"velocity":0.3937007874015748},{"duration":0.1875,"midi":37,"time":450.2109375,"velocity":0.3937007874015748},{"duration":0.1875,"midi":84,"time":450.2109375,"velocity":0.3937007874015748},{"duration":0.1875,"midi":38,"time":450.234375,"velocity":0.3937007874015748},{"duration":0.1875,"midi":83,"time":450.234375,"velocity":0.3937007874015748},{"duration":0.1875,"midi":39,"time":450.2578125,"velocity":0.3937007874015748},{"duration":0.1875,"midi":82,"time":450.2578125,"velocity":0.3937007874015748},{"duration":0.1875,"midi":40,"time":450.28125,"velocity":0.3937007874015748},{"duration":0.1875,"midi":81,"time":450.28125,"velocity":0.3937007874015748},{"duration":0.1875,"midi":41,"time":450.3046875,"velocity":0.3937007874015748},{"duration":0.1875,"midi":80,"time":450.3046875,"velocity":0.3937007874015748},{"duration":0.1875,"midi":79,"time":450.328125,"velocity":0.3937007874015748},{"duration":0.1875,"midi":42,"time":450.328125,"velocity":0.3937007874015748},{"duration":0.1875,"midi":78,"time":450.3515625,"velocity":0.3937007874015748},{"duration":0.1875,"midi":43,"time":450.3515625,"velocity":0.3937007874015748},{"duration":0.1875,"midi":61,"time":450.375,"velocity":0.3937007874015748},{"duration":0.1875,"midi":70,"time":450.375,"velocity":0.3937007874015748},{"duration":0.1875,"midi":37,"time":450.375,"velocity":0.3937007874015748},{"duration":0.1875,"midi":73,"time":450.375,"velocity":0.3937007874015748},{"duration":0.1875,"midi":46,"time":450.375,"velocity":0.3937007874015748},{"duration":0.1875,"midi":25,"time":450.375,"velocity":0.3937007874015748},{"duration":0.1875,"midi":82,"time":450.375,"velocity":0.3937007874015748},{"duration":0.1875,"midi":77,"time":450.375,"velocity":0.3937007874015748},{"duration":0.1875,"midi":58,"time":450.375,"velocity":0.3937007874015748},{"duration":0.1875,"midi":49,"time":450.375,"velocity":0.3937007874015748},{"duration":0.1875,"midi":44,"time":450.375,"velocity":0.3937007874015748},{"duration":0.1875,"midi":34,"time":450.375,"velocity":0.3937007874015748},{"duration":0.1875,"midi":94,"time":450.375,"velocity":0.3937007874015748},{"duration":0.1875,"midi":85,"time":450.375,"velocity":0.3937007874015748},{"duration":0.1875,"midi":76,"time":450.3984375,"velocity":0.3937007874015748},{"duration":0.1875,"midi":45,"time":450.3984375,"velocity":0.3937007874015748},{"duration":0.1875,"midi":46,"time":450.421875,"velocity":0.3937007874015748},{"duration":0.1875,"midi":75,"time":450.421875,"velocity":0.3937007874015748},{"duration":0.1875,"midi":47,"time":450.4453125,"velocity":0.3937007874015748},{"duration":0.1875,"midi":74,"time":450.4453125,"velocity":0.3937007874015748},{"duration":0.1875,"midi":73,"time":450.46875,"velocity":0.3937007874015748},{"duration":0.1875,"midi":48,"time":450.46875,"velocity":0.3937007874015748},{"duration":0.1875,"midi":49,"time":450.4921875,"velocity":0.3937007874015748},{"duration":0.1875,"midi":72,"time":450.4921875,"velocity":0.3937007874015748},{"duration":0.1875,"midi":50,"time":450.515625,"velocity":0.3937007874015748},{"duration":0.1875,"midi":71,"time":450.515625,"velocity":0.3937007874015748},{"duration":0.1875,"midi":51,"time":450.5390625,"velocity":0.3937007874015748},{"duration":0.1875,"midi":70,"time":450.5390625,"velocity":0.3937007874015748},{"duration":0.1875,"midi":72,"time":450.5625,"velocity":0.3937007874015748},{"duration":0.1875,"midi":69,"time":450.5625,"velocity":0.3937007874015748},{"duration":0.1875,"midi":24,"time":450.5625,"velocity":0.3937007874015748},{"duration":0.1875,"midi":71,"time":450.5625,"velocity":0.3937007874015748},{"duration":0.1875,"midi":60,"time":450.5625,"velocity":0.3937007874015748},{"duration":0.1875,"midi":84,"time":450.5625,"velocity":0.3937007874015748},{"duration":0.1875,"midi":59,"time":450.5625,"velocity":0.3937007874015748},{"duration":0.1875,"midi":35,"time":450.5625,"velocity":0.3937007874015748},{"duration":0.1875,"midi":83,"time":450.5625,"velocity":0.3937007874015748},{"duration":0.1875,"midi":47,"time":450.5625,"velocity":0.3937007874015748},{"duration":0.1875,"midi":48,"time":450.5625,"velocity":0.3937007874015748},{"duration":0.1875,"midi":36,"time":450.5625,"velocity":0.3937007874015748},{"duration":0.1875,"midi":52,"time":450.5625,"velocity":0.3937007874015748},{"duration":0.1875,"midi":95,"time":450.5625,"velocity":0.3937007874015748},{"duration":0.1875,"midi":53,"time":450.5859375,"velocity":0.3937007874015748},{"duration":0.1875,"midi":68,"time":450.5859375,"velocity":0.3937007874015748},{"duration":0.1875,"midi":67,"time":450.609375,"velocity":0.3937007874015748},{"duration":0.1875,"midi":54,"time":450.609375,"velocity":0.3937007874015748},{"duration":0.1875,"midi":66,"time":450.6328125,"velocity":0.3937007874015748},{"duration":0.1875,"midi":55,"time":450.6328125,"velocity":0.3937007874015748},{"duration":0.1875,"midi":56,"time":450.65625,"velocity":0.3937007874015748},{"duration":0.1875,"midi":65,"time":450.65625,"velocity":0.3937007874015748},{"duration":0.1875,"midi":64,"time":450.6796875,"velocity":0.3937007874015748},{"duration":0.1875,"midi":57,"time":450.6796875,"velocity":0.3937007874015748},{"duration":0.1875,"midi":63,"time":450.703125,"velocity":0.3937007874015748},{"duration":0.1875,"midi":58,"time":450.703125,"velocity":0.3937007874015748},{"duration":0.1875,"midi":62,"time":450.7265625,"velocity":0.3937007874015748},{"duration":0.1875,"midi":59,"time":450.7265625,"velocity":0.3937007874015748},{"duration":0.1875,"midi":60,"time":450.75,"velocity":0.3937007874015748},{"duration":0.1875,"midi":72,"time":450.75,"velocity":0.3937007874015748},{"duration":0.1875,"midi":35,"time":450.75,"velocity":0.3937007874015748},{"duration":0.1875,"midi":24,"time":450.75,"velocity":0.3937007874015748},{"duration":0.1875,"midi":95,"time":450.75,"velocity":0.3937007874015748},{"duration":0.1875,"midi":83,"time":450.75,"velocity":0.3937007874015748},{"duration":0.1875,"midi":59,"time":450.75,"velocity":0.3937007874015748},{"duration":0.1875,"midi":36,"time":450.75,"velocity":0.3937007874015748},{"duration":0.1875,"midi":47,"time":450.75,"velocity":0.3937007874015748},{"duration":0.1875,"midi":71,"time":450.75,"velocity":0.3937007874015748},{"duration":0.1875,"midi":60,"time":450.75,"velocity":0.3937007874015748},{"duration":0.1875,"midi":84,"time":450.75,"velocity":0.3937007874015748},{"duration":0.1875,"midi":48,"time":450.75,"velocity":0.3937007874015748},{"duration":0.1875,"midi":61,"time":450.75,"velocity":0.3937007874015748},{"duration":0.1875,"midi":61,"time":450.7734375,"velocity":0.3937007874015748},{"duration":0.1875,"midi":60,"time":450.7734375,"velocity":0.3937007874015748},{"duration":0.1875,"midi":59,"time":450.796875,"velocity":0.3937007874015748},{"duration":0.1875,"midi":62,"time":450.796875,"velocity":0.3937007874015748},{"duration":0.1875,"midi":63,"time":450.8203125,"velocity":0.3937007874015748},{"duration":0.1875,"midi":58,"time":450.8203125,"velocity":0.3937007874015748},{"duration":0.1875,"midi":64,"time":450.84375,"velocity":0.3937007874015748},{"duration":0.1875,"midi":57,"time":450.84375,"velocity":0.3937007874015748},{"duration":0.1875,"midi":56,"time":450.8671875,"velocity":0.3937007874015748},{"duration":0.1875,"midi":65,"time":450.8671875,"velocity":0.3937007874015748},{"duration":0.1875,"midi":66,"time":450.890625,"velocity":0.3937007874015748},{"duration":0.1875,"midi":55,"time":450.890625,"velocity":0.3937007874015748},{"duration":0.1875,"midi":67,"time":450.9140625,"velocity":0.3937007874015748},{"duration":0.1875,"midi":54,"time":450.9140625,"velocity":0.3937007874015748},{"duration":0.1875,"midi":46,"time":450.9375,"velocity":0.3937007874015748},{"duration":0.1875,"midi":53,"time":450.9375,"velocity":0.3937007874015748},{"duration":0.1875,"midi":94,"time":450.9375,"velocity":0.3937007874015748},{"duration":0.1875,"midi":68,"time":450.9375,"velocity":0.3937007874015748},{"duration":0.1875,"midi":25,"time":450.9375,"velocity":0.3937007874015748},{"duration":0.1875,"midi":37,"time":450.9375,"velocity":0.3937007874015748},{"duration":0.1875,"midi":49,"time":450.9375,"velocity":0.3937007874015748},{"duration":0.1875,"midi":73,"time":450.9375,"velocity":0.3937007874015748},{"duration":0.1875,"midi":82,"time":450.9375,"velocity":0.3937007874015748},{"duration":0.1875,"midi":85,"time":450.9375,"velocity":0.3937007874015748},{"duration":0.1875,"midi":58,"time":450.9375,"velocity":0.3937007874015748},{"duration":0.1875,"midi":61,"time":450.9375,"velocity":0.3937007874015748},{"duration":0.1875,"midi":70,"time":450.9375,"velocity":0.3937007874015748},{"duration":0.1875,"midi":34,"time":450.9375,"velocity":0.3937007874015748},{"duration":0.1875,"midi":69,"time":450.9609375,"velocity":0.3937007874015748},{"duration":0.1875,"midi":52,"time":450.9609375,"velocity":0.3937007874015748},{"duration":0.1875,"midi":51,"time":450.984375,"velocity":0.3937007874015748},{"duration":0.1875,"midi":70,"time":450.984375,"velocity":0.3937007874015748},{"duration":0.1875,"midi":71,"time":451.0078125,"velocity":0.3937007874015748},{"duration":0.1875,"midi":50,"time":451.0078125,"velocity":0.3937007874015748},{"duration":0.1875,"midi":49,"time":451.03125,"velocity":0.3937007874015748},{"duration":0.1875,"midi":72,"time":451.03125,"velocity":0.3937007874015748},{"duration":0.1875,"midi":48,"time":451.0546875,"velocity":0.3937007874015748},{"duration":0.1875,"midi":73,"time":451.0546875,"velocity":0.3937007874015748},{"duration":0.1875,"midi":74,"time":451.078125,"velocity":0.3937007874015748},{"duration":0.1875,"midi":47,"time":451.078125,"velocity":0.3937007874015748},{"duration":0.1875,"midi":75,"time":451.1015625,"velocity":0.3937007874015748},{"duration":0.1875,"midi":46,"time":451.1015625,"velocity":0.3937007874015748},{"duration":0.1875,"midi":81,"time":451.125,"velocity":0.3937007874015748},{"duration":0.1875,"midi":86,"time":451.125,"velocity":0.3937007874015748},{"duration":0.1875,"midi":62,"time":451.125,"velocity":0.3937007874015748},{"duration":0.1875,"midi":38,"time":451.125,"velocity":0.3937007874015748},{"duration":0.1875,"midi":50,"time":451.125,"velocity":0.3937007874015748},{"duration":0.1875,"midi":76,"time":451.125,"velocity":0.3937007874015748},{"duration":0.1875,"midi":69,"time":451.125,"velocity":0.3937007874015748},{"duration":0.1875,"midi":26,"time":451.125,"velocity":0.3937007874015748},{"duration":0.1875,"midi":74,"time":451.125,"velocity":0.3937007874015748},{"duration":0.1875,"midi":45,"time":451.125,"velocity":0.3937007874015748},{"duration":0.1875,"midi":57,"time":451.125,"velocity":0.3937007874015748},{"duration":0.1875,"midi":33,"time":451.125,"velocity":0.3937007874015748},{"duration":0.1875,"midi":93,"time":451.125,"velocity":0.3937007874015748},{"duration":0.1875,"midi":45,"time":451.125,"velocity":0.3937007874015748},{"duration":0.1875,"midi":77,"time":451.1484375,"velocity":0.3937007874015748},{"duration":0.1875,"midi":44,"time":451.1484375,"velocity":0.3937007874015748},{"duration":0.1875,"midi":78,"time":451.171875,"velocity":0.3937007874015748},{"duration":0.1875,"midi":43,"time":451.171875,"velocity":0.3937007874015748},{"duration":0.1875,"midi":79,"time":451.1953125,"velocity":0.3937007874015748},{"duration":0.1875,"midi":42,"time":451.1953125,"velocity":0.3937007874015748},{"duration":0.1875,"midi":41,"time":451.21875,"velocity":0.3937007874015748},{"duration":0.1875,"midi":80,"time":451.21875,"velocity":0.3937007874015748},{"duration":0.1875,"midi":81,"time":451.2421875,"velocity":0.3937007874015748},{"duration":0.1875,"midi":40,"time":451.2421875,"velocity":0.3937007874015748},{"duration":0.1875,"midi":82,"time":451.265625,"velocity":0.3937007874015748},{"duration":0.1875,"midi":39,"time":451.265625,"velocity":0.3937007874015748},{"duration":0.1875,"midi":83,"time":451.2890625,"velocity":0.3937007874015748},{"duration":0.1875,"midi":38,"time":451.2890625,"velocity":0.3937007874015748},{"duration":0.1875,"midi":27,"time":451.3125,"velocity":0.3937007874015748},{"duration":0.1875,"midi":56,"time":451.3125,"velocity":0.3937007874015748},{"duration":0.1875,"midi":39,"time":451.3125,"velocity":0.3937007874015748},{"duration":0.1875,"midi":63,"time":451.3125,"velocity":0.3937007874015748},{"duration":0.1875,"midi":80,"time":451.3125,"velocity":0.3937007874015748},{"duration":0.1875,"midi":51,"time":451.3125,"velocity":0.3937007874015748},{"duration":0.1875,"midi":32,"time":451.3125,"velocity":0.3937007874015748},{"duration":0.1875,"midi":37,"time":451.3125,"velocity":0.3937007874015748},{"duration":0.1875,"midi":75,"time":451.3125,"velocity":0.3937007874015748},{"duration":0.1875,"midi":84,"time":451.3125,"velocity":0.3937007874015748},{"duration":0.1875,"midi":92,"time":451.3125,"velocity":0.3937007874015748},{"duration":0.1875,"midi":68,"time":451.3125,"velocity":0.3937007874015748},{"duration":0.1875,"midi":87,"time":451.3125,"velocity":0.3937007874015748},{"duration":0.1875,"midi":44,"time":451.3125,"velocity":0.3937007874015748},{"duration":0.1875,"midi":36,"time":451.3359375,"velocity":0.3937007874015748},{"duration":0.1875,"midi":85,"time":451.3359375,"velocity":0.3937007874015748},{"duration":0.1875,"midi":35,"time":451.359375,"velocity":0.3937007874015748},{"duration":0.1875,"midi":86,"time":451.359375,"velocity":0.3937007874015748},{"duration":0.1875,"midi":87,"time":451.3828125,"velocity":0.3937007874015748},{"duration":0.1875,"midi":34,"time":451.3828125,"velocity":0.3937007874015748},{"duration":0.1875,"midi":88,"time":451.40625,"velocity":0.3937007874015748},{"duration":0.1875,"midi":33,"time":451.40625,"velocity":0.3937007874015748},{"duration":0.1875,"midi":89,"time":451.4296875,"velocity":0.3937007874015748},{"duration":0.1875,"midi":32,"time":451.4296875,"velocity":0.3937007874015748},{"duration":0.1875,"midi":90,"time":451.453125,"velocity":0.3937007874015748},{"duration":0.1875,"midi":31,"time":451.453125,"velocity":0.3937007874015748},{"duration":0.1875,"midi":30,"time":451.4765625,"velocity":0.3937007874015748},{"duration":0.1875,"midi":91,"time":451.4765625,"velocity":0.3937007874015748},{"duration":0.1875,"midi":28,"time":451.5,"velocity":0.3937007874015748},{"duration":0.1875,"midi":28,"time":451.5,"velocity":0.3937007874015748},{"duration":0.1875,"midi":76,"time":451.5,"velocity":0.3937007874015748},{"duration":0.1875,"midi":40,"time":451.5,"velocity":0.3937007874015748},{"duration":0.1875,"midi":93,"time":451.5,"velocity":0.3937007874015748},{"duration":0.1875,"midi":43,"time":451.5,"velocity":0.3937007874015748},{"duration":0.1875,"midi":88,"time":451.5,"velocity":0.3937007874015748},{"duration":0.1875,"midi":55,"time":451.5,"velocity":0.3937007874015748},{"duration":0.1875,"midi":79,"time":451.5,"velocity":0.3937007874015748},{"duration":0.1875,"midi":52,"time":451.5,"velocity":0.3937007874015748},{"duration":0.1875,"midi":91,"time":451.5,"velocity":0.3937007874015748},{"duration":0.1875,"midi":31,"time":451.5,"velocity":0.3937007874015748},{"duration":0.1875,"midi":64,"time":451.5,"velocity":0.3937007874015748},{"duration":0.1875,"midi":67,"time":451.5,"velocity":0.3937007874015748},{"duration":0.1875,"midi":29,"time":451.5234375,"velocity":0.3937007874015748},{"duration":0.1875,"midi":92,"time":451.5234375,"velocity":0.3937007874015748},{"duration":0.1875,"midi":91,"time":451.546875,"velocity":0.3937007874015748},{"duration":0.1875,"midi":30,"time":451.546875,"velocity":0.3937007874015748},{"duration":0.1875,"midi":90,"time":451.5703125,"velocity":0.3937007874015748},{"duration":0.1875,"midi":31,"time":451.5703125,"velocity":0.3937007874015748},{"duration":0.1875,"midi":89,"time":451.59375,"velocity":0.3937007874015748},{"duration":0.1875,"midi":32,"time":451.59375,"velocity":0.3937007874015748},{"duration":0.1875,"midi":33,"time":451.6171875,"velocity":0.3937007874015748},{"duration":0.1875,"midi":88,"time":451.6171875,"velocity":0.3937007874015748},{"duration":0.1875,"midi":87,"time":451.640625,"velocity":0.3937007874015748},{"duration":0.1875,"midi":34,"time":451.640625,"velocity":0.3937007874015748},{"duration":0.1875,"midi":35,"time":451.6640625,"velocity":0.3937007874015748},{"duration":0.1875,"midi":86,"time":451.6640625,"velocity":0.3937007874015748},{"duration":0.1875,"midi":66,"time":451.6875,"velocity":0.3937007874015748},{"duration":0.1875,"midi":90,"time":451.6875,"velocity":0.3937007874015748},{"duration":0.1875,"midi":29,"time":451.6875,"velocity":0.3937007874015748},{"duration":0.1875,"midi":53,"time":451.6875,"velocity":0.3937007874015748},{"duration":0.1875,"midi":36,"time":451.6875,"velocity":0.3937007874015748},{"duration":0.1875,"midi":54,"time":451.6875,"velocity":0.3937007874015748},{"duration":0.1875,"midi":30,"time":451.6875,"velocity":0.3937007874015748},{"duration":0.1875,"midi":89,"time":451.6875,"velocity":0.3937007874015748},{"duration":0.1875,"midi":42,"time":451.6875,"velocity":0.3937007874015748},{"duration":0.1875,"midi":78,"time":451.6875,"velocity":0.3937007874015748},{"duration":0.1875,"midi":41,"time":451.6875,"velocity":0.3937007874015748},{"duration":0.1875,"midi":65,"time":451.6875,"velocity":0.3937007874015748},{"duration":0.1875,"midi":85,"time":451.6875,"velocity":0.3937007874015748},{"duration":0.1875,"midi":77,"time":451.6875,"velocity":0.3937007874015748},{"duration":0.1875,"midi":84,"time":451.7109375,"velocity":0.3937007874015748},{"duration":0.1875,"midi":37,"time":451.7109375,"velocity":0.3937007874015748},{"duration":0.1875,"midi":38,"time":451.734375,"velocity":0.3937007874015748},{"duration":0.1875,"midi":83,"time":451.734375,"velocity":0.3937007874015748},{"duration":0.1875,"midi":39,"time":451.7578125,"velocity":0.3937007874015748},{"duration":0.1875,"midi":82,"time":451.7578125,"velocity":0.3937007874015748},{"duration":0.1875,"midi":81,"time":451.78125,"velocity":0.3937007874015748},{"duration":0.1875,"midi":40,"time":451.78125,"velocity":0.3937007874015748},{"duration":0.1875,"midi":80,"time":451.8046875,"velocity":0.3937007874015748},{"duration":0.1875,"midi":41,"time":451.8046875,"velocity":0.3937007874015748},{"duration":0.1875,"midi":79,"time":451.828125,"velocity":0.3937007874015748},{"duration":0.1875,"midi":42,"time":451.828125,"velocity":0.3937007874015748},{"duration":0.1875,"midi":43,"time":451.8515625,"velocity":0.3937007874015748},{"duration":0.1875,"midi":78,"time":451.8515625,"velocity":0.3937007874015748},{"duration":0.1875,"midi":65,"time":451.875,"velocity":0.3937007874015748},{"duration":0.1875,"midi":54,"time":451.875,"velocity":0.3937007874015748},{"duration":0.1875,"midi":30,"time":451.875,"velocity":0.3937007874015748},{"duration":0.1875,"midi":89,"time":451.875,"velocity":0.3937007874015748},{"duration":0.1875,"midi":77,"time":451.875,"velocity":0.3937007874015748},{"duration":0.1875,"midi":42,"time":451.875,"velocity":0.3937007874015748},{"duration":0.1875,"midi":66,"time":451.875,"velocity":0.3937007874015748},{"duration":0.1875,"midi":53,"time":451.875,"velocity":0.3937007874015748},{"duration":0.1875,"midi":44,"time":451.875,"velocity":0.3937007874015748},{"duration":0.1875,"midi":78,"time":451.875,"velocity":0.3937007874015748},{"duration":0.1875,"midi":41,"time":451.875,"velocity":0.3937007874015748},{"duration":0.1875,"midi":90,"time":451.875,"velocity":0.3937007874015748},{"duration":0.1875,"midi":77,"time":451.875,"velocity":0.3937007874015748},{"duration":0.1875,"midi":29,"time":451.875,"velocity":0.3937007874015748},{"duration":0.1875,"midi":45,"time":451.8984375,"velocity":0.3937007874015748},{"duration":0.1875,"midi":76,"time":451.8984375,"velocity":0.3937007874015748},{"duration":0.1875,"midi":46,"time":451.921875,"velocity":0.3937007874015748},{"duration":0.1875,"midi":75,"time":451.921875,"velocity":0.3937007874015748},{"duration":0.1875,"midi":47,"time":451.9453125,"velocity":0.3937007874015748},{"duration":0.1875,"midi":74,"time":451.9453125,"velocity":0.3937007874015748},{"duration":0.1875,"midi":73,"time":451.96875,"velocity":0.3937007874015748},{"duration":0.1875,"midi":48,"time":451.96875,"velocity":0.3937007874015748},{"duration":0.1875,"midi":49,"time":451.9921875,"velocity":0.3937007874015748},{"duration":0.1875,"midi":72,"time":451.9921875,"velocity":0.3937007874015748},{"duration":0.1875,"midi":50,"time":452.015625,"velocity":0.3937007874015748},{"duration":0.1875,"midi":71,"time":452.015625,"velocity":0.3937007874015748},{"duration":0.1875,"midi":51,"time":452.0390625,"velocity":0.3937007874015748},{"duration":0.1875,"midi":70,"time":452.0390625,"velocity":0.3937007874015748},{"duration":0.1875,"midi":76,"time":452.0625,"velocity":0.3937007874015748},{"duration":0.1875,"midi":31,"time":452.0625,"velocity":0.3937007874015748},{"duration":0.1875,"midi":52,"time":452.0625,"velocity":0.3937007874015748},{"duration":0.1875,"midi":67,"time":452.0625,"velocity":0.3937007874015748},{"duration":0.1875,"midi":64,"time":452.0625,"velocity":0.3937007874015748},{"duration":0.1875,"midi":40,"time":452.0625,"velocity":0.3937007874015748},{"duration":0.1875,"midi":55,"time":452.0625,"velocity":0.3937007874015748},{"duration":0.1875,"midi":28,"time":452.0625,"velocity":0.3937007874015748},{"duration":0.1875,"midi":88,"time":452.0625,"velocity":0.3937007874015748},{"duration":0.1875,"midi":52,"time":452.0625,"velocity":0.3937007874015748},{"duration":0.1875,"midi":79,"time":452.0625,"velocity":0.3937007874015748},{"duration":0.1875,"midi":91,"time":452.0625,"velocity":0.3937007874015748},{"duration":0.1875,"midi":69,"time":452.0625,"velocity":0.3937007874015748},{"duration":0.1875,"midi":43,"time":452.0625,"velocity":0.3937007874015748},{"duration":0.1875,"midi":68,"time":452.0859375,"velocity":0.3937007874015748},{"duration":0.1875,"midi":53,"time":452.0859375,"velocity":0.3937007874015748},{"duration":0.1875,"midi":54,"time":452.109375,"velocity":0.3937007874015748},{"duration":0.1875,"midi":67,"time":452.109375,"velocity":0.3937007874015748},{"duration":0.1875,"midi":66,"time":452.1328125,"velocity":0.3937007874015748},{"duration":0.1875,"midi":55,"time":452.1328125,"velocity":0.3937007874015748},{"duration":0.1875,"midi":56,"time":452.15625,"velocity":0.3937007874015748},{"duration":0.1875,"midi":65,"time":452.15625,"velocity":0.3937007874015748},{"duration":0.1875,"midi":57,"time":452.1796875,"velocity":0.3937007874015748},{"duration":0.1875,"midi":64,"time":452.1796875,"velocity":0.3937007874015748},{"duration":0.1875,"midi":63,"time":452.203125,"velocity":0.3937007874015748},{"duration":0.1875,"midi":58,"time":452.203125,"velocity":0.3937007874015748},{"duration":0.1875,"midi":62,"time":452.2265625,"velocity":0.3937007874015748},{"duration":0.1875,"midi":59,"time":452.2265625,"velocity":0.3937007874015748},{"duration":0.1875,"midi":39,"time":452.25,"velocity":0.3937007874015748},{"duration":0.1875,"midi":44,"time":452.25,"velocity":0.3937007874015748},{"duration":0.1875,"midi":32,"time":452.25,"velocity":0.3937007874015748},{"duration":0.1875,"midi":51,"time":452.25,"velocity":0.3937007874015748},{"duration":0.1875,"midi":92,"time":452.25,"velocity":0.3937007874015748},{"duration":0.1875,"midi":27,"time":452.25,"velocity":0.3937007874015748},{"duration":0.1875,"midi":75,"time":452.25,"velocity":0.3937007874015748},{"duration":0.1875,"midi":68,"time":452.25,"velocity":0.3937007874015748},{"duration":0.1875,"midi":56,"time":452.25,"velocity":0.3937007874015748},{"duration":0.1875,"midi":87,"time":452.25,"velocity":0.3937007874015748},{"duration":0.1875,"midi":60,"time":452.25,"velocity":0.3937007874015748},{"duration":0.1875,"midi":80,"time":452.25,"velocity":0.3937007874015748},{"duration":0.1875,"midi":61,"time":452.25,"velocity":0.3937007874015748},{"duration":0.1875,"midi":63,"time":452.25,"velocity":0.3937007874015748},{"duration":0.1875,"midi":60,"time":452.2734375,"velocity":0.3937007874015748},{"duration":0.1875,"midi":61,"time":452.2734375,"velocity":0.3937007874015748},{"duration":0.1875,"midi":62,"time":452.296875,"velocity":0.3937007874015748},{"duration":0.1875,"midi":59,"time":452.296875,"velocity":0.3937007874015748},{"duration":0.1875,"midi":58,"time":452.3203125,"velocity":0.3937007874015748},{"duration":0.1875,"midi":63,"time":452.3203125,"velocity":0.3937007874015748},{"duration":0.1875,"midi":64,"time":452.34375,"velocity":0.3937007874015748},{"duration":0.1875,"midi":57,"time":452.34375,"velocity":0.3937007874015748},{"duration":0.1875,"midi":56,"time":452.3671875,"velocity":0.3937007874015748},{"duration":0.1875,"midi":65,"time":452.3671875,"velocity":0.3937007874015748},{"duration":0.1875,"midi":55,"time":452.390625,"velocity":0.3937007874015748},{"duration":0.1875,"midi":66,"time":452.390625,"velocity":0.3937007874015748},{"duration":0.1875,"midi":67,"time":452.4140625,"velocity":0.3937007874015748},{"duration":0.1875,"midi":54,"time":452.4140625,"velocity":0.3937007874015748},{"duration":0.1875,"midi":57,"time":452.4375,"velocity":0.3937007874015748},{"duration":0.1875,"midi":69,"time":452.4375,"velocity":0.3937007874015748},{"duration":0.1875,"midi":86,"time":452.4375,"velocity":0.3937007874015748},{"duration":0.1875,"midi":33,"time":452.4375,"velocity":0.3937007874015748},{"duration":0.1875,"midi":62,"time":452.4375,"velocity":0.3937007874015748},{"duration":0.1875,"midi":45,"time":452.4375,"velocity":0.3937007874015748},{"duration":0.1875,"midi":53,"time":452.4375,"velocity":0.3937007874015748},{"duration":0.1875,"midi":93,"time":452.4375,"velocity":0.3937007874015748},{"duration":0.1875,"midi":38,"time":452.4375,"velocity":0.3937007874015748},{"duration":0.1875,"midi":74,"time":452.4375,"velocity":0.3937007874015748},{"duration":0.1875,"midi":81,"time":452.4375,"velocity":0.3937007874015748},{"duration":0.1875,"midi":26,"time":452.4375,"velocity":0.3937007874015748},{"duration":0.1875,"midi":50,"time":452.4375,"velocity":0.3937007874015748},{"duration":0.1875,"midi":68,"time":452.4375,"velocity":0.3937007874015748},{"duration":0.1875,"midi":69,"time":452.4609375,"velocity":0.3937007874015748},{"duration":0.1875,"midi":52,"time":452.4609375,"velocity":0.3937007874015748},{"duration":0.1875,"midi":51,"time":452.484375,"velocity":0.3937007874015748},{"duration":0.1875,"midi":70,"time":452.484375,"velocity":0.3937007874015748},{"duration":0.1875,"midi":71,"time":452.5078125,"velocity":0.3937007874015748},{"duration":0.1875,"midi":50,"time":452.5078125,"velocity":0.3937007874015748},{"duration":0.1875,"midi":72,"time":452.53125,"velocity":0.3937007874015748},{"duration":0.1875,"midi":49,"time":452.53125,"velocity":0.3937007874015748},{"duration":0.1875,"midi":48,"time":452.5546875,"velocity":0.3937007874015748},{"duration":0.1875,"midi":73,"time":452.5546875,"velocity":0.3937007874015748},{"duration":0.1875,"midi":74,"time":452.578125,"velocity":0.3937007874015748},{"duration":0.1875,"midi":47,"time":452.578125,"velocity":0.3937007874015748},{"duration":0.1875,"midi":46,"time":452.6015625,"velocity":0.3937007874015748},{"duration":0.1875,"midi":75,"time":452.6015625,"velocity":0.3937007874015748},{"duration":0.1875,"midi":49,"time":452.625,"velocity":0.3937007874015748},{"duration":0.1875,"midi":73,"time":452.625,"velocity":0.3937007874015748},{"duration":0.1875,"midi":37,"time":452.625,"velocity":0.3937007874015748},{"duration":0.1875,"midi":58,"time":452.625,"velocity":0.3937007874015748},{"duration":0.1875,"midi":94,"time":452.625,"velocity":0.3937007874015748},{"duration":0.1875,"midi":82,"time":452.625,"velocity":0.3937007874015748},{"duration":0.1875,"midi":85,"time":452.625,"velocity":0.3937007874015748},{"duration":0.1875,"midi":25,"time":452.625,"velocity":0.3937007874015748},{"duration":0.1875,"midi":46,"time":452.625,"velocity":0.3937007874015748},{"duration":0.1875,"midi":70,"time":452.625,"velocity":0.3937007874015748},{"duration":0.1875,"midi":61,"time":452.625,"velocity":0.3937007874015748},{"duration":0.1875,"midi":76,"time":452.625,"velocity":0.3937007874015748},{"duration":0.1875,"midi":45,"time":452.625,"velocity":0.3937007874015748},{"duration":0.1875,"midi":34,"time":452.625,"velocity":0.3937007874015748},{"duration":0.1875,"midi":44,"time":452.6484375,"velocity":0.3937007874015748},{"duration":0.1875,"midi":77,"time":452.6484375,"velocity":0.3937007874015748},{"duration":0.1875,"midi":78,"time":452.671875,"velocity":0.3937007874015748},{"duration":0.1875,"midi":43,"time":452.671875,"velocity":0.3937007874015748},{"duration":0.1875,"midi":79,"time":452.6953125,"velocity":0.3937007874015748},{"duration":0.1875,"midi":42,"time":452.6953125,"velocity":0.3937007874015748},{"duration":0.1875,"midi":41,"time":452.71875,"velocity":0.3937007874015748},{"duration":0.1875,"midi":80,"time":452.71875,"velocity":0.3937007874015748},{"duration":0.1875,"midi":81,"time":452.7421875,"velocity":0.3937007874015748},{"duration":0.1875,"midi":40,"time":452.7421875,"velocity":0.3937007874015748},{"duration":0.1875,"midi":39,"time":452.765625,"velocity":0.3937007874015748},{"duration":0.1875,"midi":82,"time":452.765625,"velocity":0.3937007874015748},{"duration":0.1875,"midi":38,"time":452.7890625,"velocity":0.3937007874015748},{"duration":0.1875,"midi":83,"time":452.7890625,"velocity":0.3937007874015748},{"duration":0.1875,"midi":71,"time":452.8125,"velocity":0.3937007874015748},{"duration":0.1875,"midi":83,"time":452.8125,"velocity":0.3937007874015748},{"duration":0.1875,"midi":47,"time":452.8125,"velocity":0.3937007874015748},{"duration":0.1875,"midi":84,"time":452.8125,"velocity":0.3937007874015748},{"duration":0.1875,"midi":59,"time":452.8125,"velocity":0.3937007874015748},{"duration":0.1875,"midi":72,"time":452.8125,"velocity":0.3937007874015748},{"duration":0.1875,"midi":84,"time":452.8125,"velocity":0.3937007874015748},{"duration":0.1875,"midi":95,"time":452.8125,"velocity":0.3937007874015748},{"duration":0.1875,"midi":37,"time":452.8125,"velocity":0.3937007874015748},{"duration":0.1875,"midi":36,"time":452.8125,"velocity":0.3937007874015748},{"duration":0.1875,"midi":24,"time":452.8125,"velocity":0.3937007874015748},{"duration":0.1875,"midi":48,"time":452.8125,"velocity":0.3937007874015748},{"duration":0.1875,"midi":35,"time":452.8125,"velocity":0.3937007874015748},{"duration":0.1875,"midi":60,"time":452.8125,"velocity":0.3937007874015748},{"duration":0.1875,"midi":85,"time":452.8359375,"velocity":0.3937007874015748},{"duration":0.1875,"midi":36,"time":452.8359375,"velocity":0.3937007874015748},{"duration":0.1875,"midi":35,"time":452.859375,"velocity":0.3937007874015748},{"duration":0.1875,"midi":86,"time":452.859375,"velocity":0.3937007874015748},{"duration":0.1875,"midi":34,"time":452.8828125,"velocity":0.3937007874015748},{"duration":0.1875,"midi":87,"time":452.8828125,"velocity":0.3937007874015748},{"duration":0.1875,"midi":33,"time":452.90625,"velocity":0.3937007874015748},{"duration":0.1875,"midi":88,"time":452.90625,"velocity":0.3937007874015748},{"duration":0.1875,"midi":89,"time":452.9296875,"velocity":0.3937007874015748},{"duration":0.1875,"midi":32,"time":452.9296875,"velocity":0.3937007874015748},{"duration":0.1875,"midi":31,"time":452.953125,"velocity":0.3937007874015748},{"duration":0.1875,"midi":90,"time":452.953125,"velocity":0.3937007874015748},{"duration":0.1875,"midi":91,"time":452.9765625,"velocity":0.3937007874015748},{"duration":0.1875,"midi":30,"time":452.9765625,"velocity":0.3937007874015748},{"duration":0.1875,"midi":71,"time":453,"velocity":0.3937007874015748},{"duration":0.1875,"midi":59,"time":453,"velocity":0.3937007874015748},{"duration":0.1875,"midi":24,"time":453,"velocity":0.3937007874015748},{"duration":0.1875,"midi":36,"time":453,"velocity":0.3937007874015748},{"duration":0.1875,"midi":48,"time":453,"velocity":0.3937007874015748},{"duration":0.1875,"midi":72,"time":453,"velocity":0.3937007874015748},{"duration":0.1875,"midi":83,"time":453,"velocity":0.3937007874015748},{"duration":0.1875,"midi":60,"time":453,"velocity":0.3937007874015748},{"duration":0.1875,"midi":95,"time":453,"velocity":0.3937007874015748},{"duration":0.1875,"midi":47,"time":453,"velocity":0.3937007874015748},{"duration":0.1875,"midi":84,"time":453,"velocity":0.3937007874015748},{"duration":0.1875,"midi":35,"time":453,"velocity":0.3937007874015748},{"duration":0.1875,"midi":93,"time":453.0234375,"velocity":0.3937007874015748},{"duration":0.1875,"midi":28,"time":453.0234375,"velocity":0.3937007874015748},{"duration":0.1875,"midi":92,"time":453.046875,"velocity":0.3937007874015748},{"duration":0.1875,"midi":29,"time":453.046875,"velocity":0.3937007874015748},{"duration":0.1875,"midi":91,"time":453.0703125,"velocity":0.3937007874015748},{"duration":0.1875,"midi":30,"time":453.0703125,"velocity":0.3937007874015748},{"duration":0.1875,"midi":90,"time":453.09375,"velocity":0.3937007874015748},{"duration":0.1875,"midi":31,"time":453.09375,"velocity":0.3937007874015748},{"duration":0.1875,"midi":32,"time":453.1171875,"velocity":0.3937007874015748},{"duration":0.1875,"midi":89,"time":453.1171875,"velocity":0.3937007874015748},{"duration":0.1875,"midi":33,"time":453.140625,"velocity":0.3937007874015748},{"duration":0.1875,"midi":88,"time":453.140625,"velocity":0.3937007874015748},{"duration":0.1875,"midi":34,"time":453.1640625,"velocity":0.3937007874015748},{"duration":0.1875,"midi":87,"time":453.1640625,"velocity":0.3937007874015748},{"duration":0.1875,"midi":61,"time":453.1875,"velocity":0.3937007874015748},{"duration":0.1875,"midi":35,"time":453.1875,"velocity":0.3937007874015748},{"duration":0.1875,"midi":49,"time":453.1875,"velocity":0.3937007874015748},{"duration":0.1875,"midi":37,"time":453.1875,"velocity":0.3937007874015748},{"duration":0.1875,"midi":70,"time":453.1875,"velocity":0.3937007874015748},{"duration":0.1875,"midi":82,"time":453.1875,"velocity":0.3937007874015748},{"duration":0.1875,"midi":46,"time":453.1875,"velocity":0.3937007874015748},{"duration":0.1875,"midi":86,"time":453.1875,"velocity":0.3937007874015748},{"duration":0.1875,"midi":73,"time":453.1875,"velocity":0.3937007874015748},{"duration":0.1875,"midi":25,"time":453.1875,"velocity":0.3937007874015748},{"duration":0.1875,"midi":85,"time":453.1875,"velocity":0.3937007874015748},{"duration":0.1875,"midi":94,"time":453.1875,"velocity":0.3937007874015748},{"duration":0.1875,"midi":58,"time":453.1875,"velocity":0.3937007874015748},{"duration":0.1875,"midi":34,"time":453.1875,"velocity":0.3937007874015748},{"duration":0.1875,"midi":85,"time":453.2109375,"velocity":0.3937007874015748},{"duration":0.1875,"midi":36,"time":453.2109375,"velocity":0.3937007874015748},{"duration":0.1875,"midi":37,"time":453.234375,"velocity":0.3937007874015748},{"duration":0.1875,"midi":84,"time":453.234375,"velocity":0.3937007874015748},{"duration":0.1875,"midi":38,"time":453.2578125,"velocity":0.3937007874015748},{"duration":0.1875,"midi":83,"time":453.2578125,"velocity":0.3937007874015748},{"duration":0.1875,"midi":39,"time":453.28125,"velocity":0.3937007874015748},{"duration":0.1875,"midi":82,"time":453.28125,"velocity":0.3937007874015748},{"duration":0.1875,"midi":40,"time":453.3046875,"velocity":0.3937007874015748},{"duration":0.1875,"midi":81,"time":453.3046875,"velocity":0.3937007874015748},{"duration":0.1875,"midi":41,"time":453.328125,"velocity":0.3937007874015748},{"duration":0.1875,"midi":80,"time":453.328125,"velocity":0.3937007874015748},{"duration":0.1875,"midi":42,"time":453.3515625,"velocity":0.3937007874015748},{"duration":0.1875,"midi":79,"time":453.3515625,"velocity":0.3937007874015748},{"duration":0.1875,"midi":45,"time":453.375,"velocity":0.3937007874015748},{"duration":0.1875,"midi":86,"time":453.375,"velocity":0.3937007874015748},{"duration":0.1875,"midi":57,"time":453.375,"velocity":0.3937007874015748},{"duration":0.1875,"midi":33,"time":453.375,"velocity":0.3937007874015748},{"duration":0.1875,"midi":62,"time":453.375,"velocity":0.3937007874015748},{"duration":0.1875,"midi":93,"time":453.375,"velocity":0.3937007874015748},{"duration":0.1875,"midi":81,"time":453.375,"velocity":0.3937007874015748},{"duration":0.1875,"midi":43,"time":453.375,"velocity":0.3937007874015748},{"duration":0.1875,"midi":78,"time":453.375,"velocity":0.3937007874015748},{"duration":0.1875,"midi":69,"time":453.375,"velocity":0.3937007874015748},{"duration":0.1875,"midi":38,"time":453.375,"velocity":0.3937007874015748},{"duration":0.1875,"midi":26,"time":453.375,"velocity":0.3937007874015748},{"duration":0.1875,"midi":50,"time":453.375,"velocity":0.3937007874015748},{"duration":0.1875,"midi":74,"time":453.375,"velocity":0.3937007874015748},{"duration":0.1875,"midi":44,"time":453.3984375,"velocity":0.3937007874015748},{"duration":0.1875,"midi":77,"time":453.3984375,"velocity":0.3937007874015748},{"duration":0.1875,"midi":45,"time":453.421875,"velocity":0.3937007874015748},{"duration":0.1875,"midi":76,"time":453.421875,"velocity":0.3937007874015748},{"duration":0.1875,"midi":75,"time":453.4453125,"velocity":0.3937007874015748},{"duration":0.1875,"midi":46,"time":453.4453125,"velocity":0.3937007874015748},{"duration":0.1875,"midi":47,"time":453.46875,"velocity":0.3937007874015748},{"duration":0.1875,"midi":74,"time":453.46875,"velocity":0.3937007874015748},{"duration":0.1875,"midi":73,"time":453.4921875,"velocity":0.3937007874015748},{"duration":0.1875,"midi":48,"time":453.4921875,"velocity":0.3937007874015748},{"duration":0.1875,"midi":49,"time":453.515625,"velocity":0.3937007874015748},{"duration":0.1875,"midi":72,"time":453.515625,"velocity":0.3937007874015748},{"duration":0.1875,"midi":71,"time":453.5390625,"velocity":0.3937007874015748},{"duration":0.1875,"midi":50,"time":453.5390625,"velocity":0.3937007874015748},{"duration":0.1875,"midi":92,"time":453.5625,"velocity":0.3937007874015748},{"duration":0.1875,"midi":70,"time":453.5625,"velocity":0.3937007874015748},{"duration":0.1875,"midi":75,"time":453.5625,"velocity":0.3937007874015748},{"duration":0.1875,"midi":32,"time":453.5625,"velocity":0.3937007874015748},{"duration":0.1875,"midi":44,"time":453.5625,"velocity":0.3937007874015748},{"duration":0.1875,"midi":80,"time":453.5625,"velocity":0.3937007874015748},{"duration":0.1875,"midi":56,"time":453.5625,"velocity":0.3937007874015748},{"duration":0.1875,"midi":27,"time":453.5625,"velocity":0.3937007874015748},{"duration":0.1875,"midi":87,"time":453.5625,"velocity":0.3937007874015748},{"duration":0.1875,"midi":63,"time":453.5625,"velocity":0.3937007874015748},{"duration":0.1875,"midi":68,"time":453.5625,"velocity":0.3937007874015748},{"duration":0.1875,"midi":51,"time":453.5625,"velocity":0.3937007874015748},{"duration":0.1875,"midi":39,"time":453.5625,"velocity":0.3937007874015748},{"duration":0.1875,"midi":51,"time":453.5625,"velocity":0.3937007874015748},{"duration":0.1875,"midi":69,"time":453.5859375,"velocity":0.3937007874015748},{"duration":0.1875,"midi":52,"time":453.5859375,"velocity":0.3937007874015748},{"duration":0.1875,"midi":53,"time":453.609375,"velocity":0.3937007874015748},{"duration":0.1875,"midi":68,"time":453.609375,"velocity":0.3937007874015748},{"duration":0.1875,"midi":67,"time":453.6328125,"velocity":0.3937007874015748},{"duration":0.1875,"midi":54,"time":453.6328125,"velocity":0.3937007874015748},{"duration":0.1875,"midi":55,"time":453.65625,"velocity":0.3937007874015748},{"duration":0.1875,"midi":66,"time":453.65625,"velocity":0.3937007874015748},{"duration":0.1875,"midi":56,"time":453.6796875,"velocity":0.3937007874015748},{"duration":0.1875,"midi":65,"time":453.6796875,"velocity":0.3937007874015748},{"duration":0.1875,"midi":64,"time":453.703125,"velocity":0.3937007874015748},{"duration":0.1875,"midi":57,"time":453.703125,"velocity":0.3937007874015748},{"duration":0.1875,"midi":63,"time":453.7265625,"velocity":0.3937007874015748},{"duration":0.1875,"midi":58,"time":453.7265625,"velocity":0.3937007874015748},{"duration":0.1875,"midi":64,"time":453.75,"velocity":0.3937007874015748},{"duration":0.1875,"midi":88,"time":453.75,"velocity":0.3937007874015748},{"duration":0.1875,"midi":76,"time":453.75,"velocity":0.3937007874015748},{"duration":0.1875,"midi":40,"time":453.75,"velocity":0.3937007874015748},{"duration":0.1875,"midi":91,"time":453.75,"velocity":0.3937007874015748},{"duration":0.1875,"midi":67,"time":453.75,"velocity":0.3937007874015748},{"duration":0.1875,"midi":31,"time":453.75,"velocity":0.3937007874015748},{"duration":0.1875,"midi":62,"time":453.75,"velocity":0.3937007874015748},{"duration":0.1875,"midi":55,"time":453.75,"velocity":0.3937007874015748},{"duration":0.1875,"midi":79,"time":453.75,"velocity":0.3937007874015748},{"duration":0.1875,"midi":59,"time":453.75,"velocity":0.3937007874015748},{"duration":0.1875,"midi":52,"time":453.75,"velocity":0.3937007874015748},{"duration":0.1875,"midi":28,"time":453.75,"velocity":0.3937007874015748},{"duration":0.1875,"midi":43,"time":453.75,"velocity":0.3937007874015748},{"duration":0.1875,"midi":60,"time":453.7734375,"velocity":0.3937007874015748},{"duration":0.1875,"midi":61,"time":453.7734375,"velocity":0.3937007874015748},{"duration":0.1875,"midi":61,"time":453.796875,"velocity":0.3937007874015748},{"duration":0.1875,"midi":60,"time":453.796875,"velocity":0.3937007874015748},{"duration":0.1875,"midi":59,"time":453.8203125,"velocity":0.3937007874015748},{"duration":0.1875,"midi":62,"time":453.8203125,"velocity":0.3937007874015748},{"duration":0.1875,"midi":58,"time":453.84375,"velocity":0.3937007874015748},{"duration":0.1875,"midi":63,"time":453.84375,"velocity":0.3937007874015748},{"duration":0.1875,"midi":57,"time":453.8671875,"velocity":0.3937007874015748},{"duration":0.1875,"midi":64,"time":453.8671875,"velocity":0.3937007874015748},{"duration":0.1875,"midi":65,"time":453.890625,"velocity":0.3937007874015748},{"duration":0.1875,"midi":56,"time":453.890625,"velocity":0.3937007874015748},{"duration":0.1875,"midi":55,"time":453.9140625,"velocity":0.3937007874015748},{"duration":0.1875,"midi":66,"time":453.9140625,"velocity":0.3937007874015748},{"duration":0.1875,"midi":77,"time":453.9375,"velocity":0.3937007874015748},{"duration":0.1875,"midi":41,"time":453.9375,"velocity":0.3937007874015748},{"duration":0.1875,"midi":90,"time":453.9375,"velocity":0.3937007874015748},{"duration":0.1875,"midi":89,"time":453.9375,"velocity":0.3937007874015748},{"duration":0.1875,"midi":53,"time":453.9375,"velocity":0.3937007874015748},{"duration":0.1875,"midi":42,"time":453.9375,"velocity":0.3937007874015748},{"duration":0.1875,"midi":54,"time":453.9375,"velocity":0.3937007874015748},{"duration":0.1875,"midi":29,"time":453.9375,"velocity":0.3937007874015748},{"duration":0.1875,"midi":66,"time":453.9375,"velocity":0.3937007874015748},{"duration":0.1875,"midi":78,"time":453.9375,"velocity":0.3937007874015748},{"duration":0.1875,"midi":67,"time":453.9375,"velocity":0.3937007874015748},{"duration":0.1875,"midi":30,"time":453.9375,"velocity":0.3937007874015748},{"duration":0.1875,"midi":65,"time":453.9375,"velocity":0.3937007874015748},{"duration":0.1875,"midi":54,"time":453.9375,"velocity":0.3937007874015748},{"duration":0.1875,"midi":68,"time":453.9609375,"velocity":0.3937007874015748},{"duration":0.1875,"midi":53,"time":453.9609375,"velocity":0.3937007874015748},{"duration":0.1875,"midi":69,"time":453.984375,"velocity":0.3937007874015748},{"duration":0.1875,"midi":52,"time":453.984375,"velocity":0.3937007874015748},{"duration":0.1875,"midi":70,"time":454.0078125,"velocity":0.3937007874015748},{"duration":0.1875,"midi":51,"time":454.0078125,"velocity":0.3937007874015748},{"duration":0.1875,"midi":71,"time":454.03125,"velocity":0.3937007874015748},{"duration":0.1875,"midi":50,"time":454.03125,"velocity":0.3937007874015748},{"duration":0.1875,"midi":49,"time":454.0546875,"velocity":0.3937007874015748},{"duration":0.1875,"midi":72,"time":454.0546875,"velocity":0.3937007874015748},{"duration":0.1875,"midi":73,"time":454.078125,"velocity":0.3937007874015748},{"duration":0.1875,"midi":48,"time":454.078125,"velocity":0.3937007874015748},{"duration":0.1875,"midi":47,"time":454.1015625,"velocity":0.3937007874015748},{"duration":0.1875,"midi":74,"time":454.1015625,"velocity":0.3937007874015748},{"duration":0.1875,"midi":53,"time":454.125,"velocity":0.3937007874015748},{"duration":0.1875,"midi":30,"time":454.125,"velocity":0.3937007874015748},{"duration":0.1875,"midi":41,"time":454.125,"velocity":0.3937007874015748},{"duration":0.1875,"midi":54,"time":454.125,"velocity":0.3937007874015748},{"duration":0.1875,"midi":29,"time":454.125,"velocity":0.3937007874015748},{"duration":0.1875,"midi":46,"time":454.125,"velocity":0.3937007874015748},{"duration":0.1875,"midi":89,"time":454.125,"velocity":0.3937007874015748},{"duration":0.1875,"midi":42,"time":454.125,"velocity":0.3937007874015748},{"duration":0.1875,"midi":65,"time":454.125,"velocity":0.3937007874015748},{"duration":0.1875,"midi":78,"time":454.125,"velocity":0.3937007874015748},{"duration":0.1875,"midi":66,"time":454.125,"velocity":0.3937007874015748},{"duration":0.1875,"midi":75,"time":454.125,"velocity":0.3937007874015748},{"duration":0.1875,"midi":90,"time":454.125,"velocity":0.3937007874015748},{"duration":0.1875,"midi":77,"time":454.125,"velocity":0.3937007874015748},{"duration":0.1875,"midi":76,"time":454.1484375,"velocity":0.3937007874015748},{"duration":0.1875,"midi":45,"time":454.1484375,"velocity":0.3937007874015748},{"duration":0.1875,"midi":77,"time":454.171875,"velocity":0.3937007874015748},{"duration":0.1875,"midi":44,"time":454.171875,"velocity":0.3937007874015748},{"duration":0.1875,"midi":78,"time":454.1953125,"velocity":0.3937007874015748},{"duration":0.1875,"midi":43,"time":454.1953125,"velocity":0.3937007874015748},{"duration":0.1875,"midi":79,"time":454.21875,"velocity":0.3937007874015748},{"duration":0.1875,"midi":42,"time":454.21875,"velocity":0.3937007874015748},{"duration":0.1875,"midi":41,"time":454.2421875,"velocity":0.3937007874015748},{"duration":0.1875,"midi":80,"time":454.2421875,"velocity":0.3937007874015748},{"duration":0.1875,"midi":81,"time":454.265625,"velocity":0.3937007874015748},{"duration":0.1875,"midi":40,"time":454.265625,"velocity":0.3937007874015748},{"duration":0.1875,"midi":82,"time":454.2890625,"velocity":0.3937007874015748},{"duration":0.1875,"midi":39,"time":454.2890625,"velocity":0.3937007874015748},{"duration":0.1875,"midi":31,"time":454.3125,"velocity":0.3937007874015748},{"duration":0.1875,"midi":55,"time":454.3125,"velocity":0.3937007874015748},{"duration":0.1875,"midi":91,"time":454.3125,"velocity":0.3937007874015748},{"duration":0.1875,"midi":76,"time":454.3125,"velocity":0.3937007874015748},{"duration":0.1875,"midi":28,"time":454.3125,"velocity":0.3937007874015748},{"duration":0.1875,"midi":43,"time":454.3125,"velocity":0.3937007874015748},{"duration":0.1875,"midi":83,"time":454.3125,"velocity":0.3937007874015748},{"duration":0.1875,"midi":40,"time":454.3125,"velocity":0.3937007874015748},{"duration":0.1875,"midi":38,"time":454.3125,"velocity":0.3937007874015748},{"duration":0.1875,"midi":79,"time":454.3125,"velocity":0.3937007874015748},{"duration":0.1875,"midi":88,"time":454.3125,"velocity":0.3937007874015748},{"duration":0.1875,"midi":67,"time":454.3125,"velocity":0.3937007874015748},{"duration":0.1875,"midi":52,"time":454.3125,"velocity":0.3937007874015748},{"duration":0.1875,"midi":64,"time":454.3125,"velocity":0.3937007874015748},{"duration":0.1875,"midi":84,"time":454.3359375,"velocity":0.3937007874015748},{"duration":0.1875,"midi":37,"time":454.3359375,"velocity":0.3937007874015748},{"duration":0.1875,"midi":85,"time":454.359375,"velocity":0.3937007874015748},{"duration":0.1875,"midi":36,"time":454.359375,"velocity":0.3937007874015748},{"duration":0.1875,"midi":86,"time":454.3828125,"velocity":0.3937007874015748},{"duration":0.1875,"midi":35,"time":454.3828125,"velocity":0.3937007874015748},{"duration":0.1875,"midi":34,"time":454.40625,"velocity":0.3937007874015748},{"duration":0.1875,"midi":87,"time":454.40625,"velocity":0.3937007874015748},{"duration":0.1875,"midi":88,"time":454.4296875,"velocity":0.3937007874015748},{"duration":0.1875,"midi":33,"time":454.4296875,"velocity":0.3937007874015748},{"duration":0.1875,"midi":32,"time":454.453125,"velocity":0.3937007874015748},{"duration":0.1875,"midi":89,"time":454.453125,"velocity":0.3937007874015748},{"duration":0.1875,"midi":31,"time":454.4765625,"velocity":0.3937007874015748},{"duration":0.1875,"midi":90,"time":454.4765625,"velocity":0.3937007874015748},{"duration":0.1875,"midi":27,"time":454.5,"velocity":0.3937007874015748},{"duration":0.1875,"midi":63,"time":454.5,"velocity":0.3937007874015748},{"duration":0.1875,"midi":93,"time":454.5,"velocity":0.3937007874015748},{"duration":0.1875,"midi":32,"time":454.5,"velocity":0.3937007874015748},{"duration":0.1875,"midi":56,"time":454.5,"velocity":0.3937007874015748},{"duration":0.1875,"midi":44,"time":454.5,"velocity":0.3937007874015748},{"duration":0.1875,"midi":91,"time":454.5,"velocity":0.3937007874015748},{"duration":0.1875,"midi":51,"time":454.5,"velocity":0.3937007874015748},{"duration":0.1875,"midi":39,"time":454.5,"velocity":0.3937007874015748},{"duration":0.1875,"midi":87,"time":454.5,"velocity":0.3937007874015748},{"duration":0.1875,"midi":80,"time":454.5,"velocity":0.3937007874015748},{"duration":0.1875,"midi":75,"time":454.5,"velocity":0.3937007874015748},{"duration":0.1875,"midi":28,"time":454.5,"velocity":0.3937007874015748},{"duration":0.1875,"midi":92,"time":454.5,"velocity":0.3937007874015748},{"duration":0.1875,"midi":30,"time":454.5,"velocity":0.3937007874015748},{"duration":0.1875,"midi":68,"time":454.5,"velocity":0.3937007874015748},{"duration":0.1875,"midi":92,"time":454.5234375,"velocity":0.3937007874015748},{"duration":0.1875,"midi":29,"time":454.5234375,"velocity":0.3937007874015748},{"duration":0.1875,"midi":91,"time":454.546875,"velocity":0.3937007874015748},{"duration":0.1875,"midi":30,"time":454.546875,"velocity":0.3937007874015748},{"duration":0.1875,"midi":31,"time":454.5703125,"velocity":0.3937007874015748},{"duration":0.1875,"midi":90,"time":454.5703125,"velocity":0.3937007874015748},{"duration":0.1875,"midi":32,"time":454.59375,"velocity":0.3937007874015748},{"duration":0.1875,"midi":89,"time":454.59375,"velocity":0.3937007874015748},{"duration":0.1875,"midi":33,"time":454.6171875,"velocity":0.3937007874015748},{"duration":0.1875,"midi":88,"time":454.6171875,"velocity":0.3937007874015748},{"duration":0.1875,"midi":87,"time":454.640625,"velocity":0.3937007874015748},{"duration":0.1875,"midi":34,"time":454.640625,"velocity":0.3937007874015748},{"duration":0.1875,"midi":35,"time":454.6640625,"velocity":0.3937007874015748},{"duration":0.1875,"midi":86,"time":454.6640625,"velocity":0.3937007874015748},{"duration":0.1875,"midi":85,"time":454.6875,"velocity":0.3937007874015748},{"duration":0.1875,"midi":50,"time":454.6875,"velocity":0.3937007874015748},{"duration":0.1875,"midi":45,"time":454.6875,"velocity":0.3937007874015748},{"duration":0.1875,"midi":57,"time":454.6875,"velocity":0.3937007874015748},{"duration":0.1875,"midi":93,"time":454.6875,"velocity":0.3937007874015748},{"duration":0.1875,"midi":26,"time":454.6875,"velocity":0.3937007874015748},{"duration":0.1875,"midi":86,"time":454.6875,"velocity":0.3937007874015748},{"duration":0.1875,"midi":74,"time":454.6875,"velocity":0.3937007874015748},{"duration":0.1875,"midi":38,"time":454.6875,"velocity":0.3937007874015748},{"duration":0.1875,"midi":62,"time":454.6875,"velocity":0.3937007874015748},{"duration":0.1875,"midi":33,"time":454.6875,"velocity":0.3937007874015748},{"duration":0.1875,"midi":81,"time":454.6875,"velocity":0.3937007874015748},{"duration":0.1875,"midi":69,"time":454.6875,"velocity":0.3937007874015748},{"duration":0.1875,"midi":36,"time":454.6875,"velocity":0.3937007874015748},{"duration":0.1875,"midi":37,"time":454.7109375,"velocity":0.3937007874015748},{"duration":0.1875,"midi":84,"time":454.7109375,"velocity":0.3937007874015748},{"duration":0.1875,"midi":38,"time":454.734375,"velocity":0.3937007874015748},{"duration":0.1875,"midi":83,"time":454.734375,"velocity":0.3937007874015748},{"duration":0.1875,"midi":39,"time":454.7578125,"velocity":0.3937007874015748},{"duration":0.1875,"midi":82,"time":454.7578125,"velocity":0.3937007874015748},{"duration":0.1875,"midi":40,"time":454.78125,"velocity":0.3937007874015748},{"duration":0.1875,"midi":81,"time":454.78125,"velocity":0.3937007874015748},{"duration":0.1875,"midi":80,"time":454.8046875,"velocity":0.3937007874015748},{"duration":0.1875,"midi":41,"time":454.8046875,"velocity":0.3937007874015748},{"duration":0.1875,"midi":79,"time":454.828125,"velocity":0.3937007874015748},{"duration":0.1875,"midi":42,"time":454.828125,"velocity":0.3937007874015748},{"duration":0.1875,"midi":78,"time":454.8515625,"velocity":0.3937007874015748},{"duration":0.1875,"midi":43,"time":454.8515625,"velocity":0.3937007874015748},{"duration":0.1875,"midi":37,"time":454.875,"velocity":0.3937007874015748},{"duration":0.1875,"midi":61,"time":454.875,"velocity":0.3937007874015748},{"duration":0.1875,"midi":49,"time":454.875,"velocity":0.3937007874015748},{"duration":0.1875,"midi":82,"time":454.875,"velocity":0.3937007874015748},{"duration":0.1875,"midi":34,"time":454.875,"velocity":0.3937007874015748},{"duration":0.1875,"midi":44,"time":454.875,"velocity":0.3937007874015748},{"duration":0.1875,"midi":85,"time":454.875,"velocity":0.3937007874015748},{"duration":0.1875,"midi":94,"time":454.875,"velocity":0.3937007874015748},{"duration":0.1875,"midi":70,"time":454.875,"velocity":0.3937007874015748},{"duration":0.1875,"midi":46,"time":454.875,"velocity":0.3937007874015748},{"duration":0.1875,"midi":25,"time":454.875,"velocity":0.3937007874015748},{"duration":0.1875,"midi":58,"time":454.875,"velocity":0.3937007874015748},{"duration":0.1875,"midi":77,"time":454.875,"velocity":0.3937007874015748},{"duration":0.1875,"midi":73,"time":454.875,"velocity":0.3937007874015748},{"duration":0.1875,"midi":45,"time":454.8984375,"velocity":0.3937007874015748},{"duration":0.1875,"midi":76,"time":454.8984375,"velocity":0.3937007874015748},{"duration":0.1875,"midi":46,"time":454.921875,"velocity":0.3937007874015748},{"duration":0.1875,"midi":75,"time":454.921875,"velocity":0.3937007874015748},{"duration":0.1875,"midi":47,"time":454.9453125,"velocity":0.3937007874015748},{"duration":0.1875,"midi":74,"time":454.9453125,"velocity":0.3937007874015748},{"duration":0.1875,"midi":73,"time":454.96875,"velocity":0.3937007874015748},{"duration":0.1875,"midi":48,"time":454.96875,"velocity":0.3937007874015748},{"duration":0.1875,"midi":72,"time":454.9921875,"velocity":0.3937007874015748},{"duration":0.1875,"midi":49,"time":454.9921875,"velocity":0.3937007874015748},{"duration":0.1875,"midi":71,"time":455.015625,"velocity":0.3937007874015748},{"duration":0.1875,"midi":50,"time":455.015625,"velocity":0.3937007874015748},{"duration":0.1875,"midi":51,"time":455.0390625,"velocity":0.3937007874015748},{"duration":0.1875,"midi":70,"time":455.0390625,"velocity":0.3937007874015748},{"duration":0.1875,"midi":84,"time":455.0625,"velocity":0.3937007874015748},{"duration":0.1875,"midi":71,"time":455.0625,"velocity":0.3937007874015748},{"duration":0.1875,"midi":52,"time":455.0625,"velocity":0.3937007874015748},{"duration":0.1875,"midi":72,"time":455.0625,"velocity":0.3937007874015748},{"duration":0.1875,"midi":35,"time":455.0625,"velocity":0.3937007874015748},{"duration":0.1875,"midi":47,"time":455.0625,"velocity":0.3937007874015748},{"duration":0.1875,"midi":59,"time":455.0625,"velocity":0.3937007874015748},{"duration":0.1875,"midi":36,"time":455.0625,"velocity":0.3937007874015748},{"duration":0.1875,"midi":60,"time":455.0625,"velocity":0.3937007874015748},{"duration":0.1875,"midi":83,"time":455.0625,"velocity":0.3937007874015748},{"duration":0.1875,"midi":48,"time":455.0625,"velocity":0.3937007874015748},{"duration":0.1875,"midi":24,"time":455.0625,"velocity":0.3937007874015748},{"duration":0.1875,"midi":95,"time":455.0625,"velocity":0.3937007874015748},{"duration":0.1875,"midi":69,"time":455.0625,"velocity":0.3937007874015748},{"duration":0.1875,"midi":68,"time":455.0859375,"velocity":0.3937007874015748},{"duration":0.1875,"midi":53,"time":455.0859375,"velocity":0.3937007874015748},{"duration":0.1875,"midi":54,"time":455.109375,"velocity":0.3937007874015748},{"duration":0.1875,"midi":67,"time":455.109375,"velocity":0.3937007874015748},{"duration":0.1875,"midi":66,"time":455.1328125,"velocity":0.3937007874015748},{"duration":0.1875,"midi":55,"time":455.1328125,"velocity":0.3937007874015748},{"duration":0.1875,"midi":56,"time":455.15625,"velocity":0.3937007874015748},{"duration":0.1875,"midi":65,"time":455.15625,"velocity":0.3937007874015748},{"duration":0.1875,"midi":64,"time":455.1796875,"velocity":0.3937007874015748},{"duration":0.1875,"midi":57,"time":455.1796875,"velocity":0.3937007874015748},{"duration":0.1875,"midi":63,"time":455.203125,"velocity":0.3937007874015748},{"duration":0.1875,"midi":58,"time":455.203125,"velocity":0.3937007874015748},{"duration":0.1875,"midi":59,"time":455.2265625,"velocity":0.3937007874015748},{"duration":0.1875,"midi":62,"time":455.2265625,"velocity":0.3937007874015748},{"duration":0.1875,"midi":72,"time":455.25,"velocity":0.3937007874015748},{"duration":0.1875,"midi":95,"time":455.25,"velocity":0.3937007874015748},{"duration":0.1875,"midi":84,"time":455.25,"velocity":0.3937007874015748},{"duration":0.1875,"midi":60,"time":455.25,"velocity":0.3937007874015748},{"duration":0.1875,"midi":60,"time":455.25,"velocity":0.3937007874015748},{"duration":0.1875,"midi":35,"time":455.25,"velocity":0.3937007874015748},{"duration":0.1875,"midi":61,"time":455.25,"velocity":0.3937007874015748},{"duration":0.1875,"midi":71,"time":455.25,"velocity":0.3937007874015748},{"duration":0.1875,"midi":36,"time":455.25,"velocity":0.3937007874015748},{"duration":0.1875,"midi":59,"time":455.25,"velocity":0.3937007874015748},{"duration":0.1875,"midi":48,"time":455.25,"velocity":0.3937007874015748},{"duration":0.1875,"midi":83,"time":455.25,"velocity":0.3937007874015748},{"duration":0.1875,"midi":47,"time":455.25,"velocity":0.3937007874015748},{"duration":0.1875,"midi":24,"time":455.25,"velocity":0.3937007874015748},{"duration":0.1875,"midi":60,"time":455.2734375,"velocity":0.3937007874015748},{"duration":0.1875,"midi":61,"time":455.2734375,"velocity":0.3937007874015748},{"duration":0.1875,"midi":62,"time":455.296875,"velocity":0.3937007874015748},{"duration":0.1875,"midi":59,"time":455.296875,"velocity":0.3937007874015748},{"duration":0.1875,"midi":63,"time":455.3203125,"velocity":0.3937007874015748},{"duration":0.1875,"midi":58,"time":455.3203125,"velocity":0.3937007874015748},{"duration":0.1875,"midi":64,"time":455.34375,"velocity":0.3937007874015748},{"duration":0.1875,"midi":57,"time":455.34375,"velocity":0.3937007874015748},{"duration":0.1875,"midi":65,"time":455.3671875,"velocity":0.3937007874015748},{"duration":0.1875,"midi":56,"time":455.3671875,"velocity":0.3937007874015748},{"duration":0.1875,"midi":66,"time":455.390625,"velocity":0.3937007874015748},{"duration":0.1875,"midi":55,"time":455.390625,"velocity":0.3937007874015748},{"duration":0.1875,"midi":54,"time":455.4140625,"velocity":0.3937007874015748},{"duration":0.1875,"midi":67,"time":455.4140625,"velocity":0.3937007874015748},{"duration":0.1875,"midi":46,"time":455.4375,"velocity":0.3937007874015748},{"duration":0.1875,"midi":70,"time":455.4375,"velocity":0.3937007874015748},{"duration":0.1875,"midi":73,"time":455.4375,"velocity":0.3937007874015748},{"duration":0.1875,"midi":37,"time":455.4375,"velocity":0.3937007874015748},{"duration":0.1875,"midi":58,"time":455.4375,"velocity":0.3937007874015748},{"duration":0.1875,"midi":85,"time":455.4375,"velocity":0.3937007874015748},{"duration":0.1875,"midi":25,"time":455.4375,"velocity":0.3937007874015748},{"duration":0.1875,"midi":49,"time":455.4375,"velocity":0.3937007874015748},{"duration":0.1875,"midi":94,"time":455.4375,"velocity":0.3937007874015748},{"duration":0.1875,"midi":53,"time":455.4375,"velocity":0.3937007874015748},{"duration":0.1875,"midi":61,"time":455.4375,"velocity":0.3937007874015748},{"duration":0.1875,"midi":82,"time":455.4375,"velocity":0.3937007874015748},{"duration":0.1875,"midi":34,"time":455.4375,"velocity":0.3937007874015748},{"duration":0.1875,"midi":68,"time":455.4375,"velocity":0.3937007874015748},{"duration":0.1875,"midi":69,"time":455.4609375,"velocity":0.3937007874015748},{"duration":0.1875,"midi":52,"time":455.4609375,"velocity":0.3937007874015748},{"duration":0.1875,"midi":70,"time":455.484375,"velocity":0.3937007874015748},{"duration":0.1875,"midi":51,"time":455.484375,"velocity":0.3937007874015748},{"duration":0.1875,"midi":71,"time":455.5078125,"velocity":0.3937007874015748},{"duration":0.1875,"midi":50,"time":455.5078125,"velocity":0.3937007874015748},{"duration":0.1875,"midi":72,"time":455.53125,"velocity":0.3937007874015748},{"duration":0.1875,"midi":49,"time":455.53125,"velocity":0.3937007874015748},{"duration":0.1875,"midi":73,"time":455.5546875,"velocity":0.3937007874015748},{"duration":0.1875,"midi":48,"time":455.5546875,"velocity":0.3937007874015748},{"duration":0.1875,"midi":47,"time":455.578125,"velocity":0.3937007874015748},{"duration":0.1875,"midi":74,"time":455.578125,"velocity":0.3937007874015748},{"duration":0.1875,"midi":75,"time":455.6015625,"velocity":0.3937007874015748},{"duration":0.1875,"midi":46,"time":455.6015625,"velocity":0.3937007874015748},{"duration":0.1875,"midi":33,"time":455.625,"velocity":0.3937007874015748},{"duration":0.1875,"midi":45,"time":455.625,"velocity":0.3937007874015748},{"duration":0.1875,"midi":81,"time":455.625,"velocity":0.3937007874015748},{"duration":0.1875,"midi":62,"time":455.625,"velocity":0.3937007874015748},{"duration":0.1875,"midi":38,"time":455.625,"velocity":0.3937007874015748},{"duration":0.1875,"midi":69,"time":455.625,"velocity":0.3937007874015748},{"duration":0.1875,"midi":57,"time":455.625,"velocity":0.3937007874015748},{"duration":0.1875,"midi":74,"time":455.625,"velocity":0.3937007874015748},{"duration":0.1875,"midi":50,"time":455.625,"velocity":0.3937007874015748},{"duration":0.1875,"midi":45,"time":455.625,"velocity":0.3937007874015748},{"duration":0.1875,"midi":26,"time":455.625,"velocity":0.3937007874015748},{"duration":0.1875,"midi":93,"time":455.625,"velocity":0.3937007874015748},{"duration":0.1875,"midi":76,"time":455.625,"velocity":0.3937007874015748},{"duration":0.1875,"midi":86,"time":455.625,"velocity":0.3937007874015748},{"duration":0.1875,"midi":44,"time":455.6484375,"velocity":0.3937007874015748},{"duration":0.1875,"midi":77,"time":455.6484375,"velocity":0.3937007874015748},{"duration":0.1875,"midi":43,"time":455.671875,"velocity":0.3937007874015748},{"duration":0.1875,"midi":78,"time":455.671875,"velocity":0.3937007874015748},{"duration":0.1875,"midi":79,"time":455.6953125,"velocity":0.3937007874015748},{"duration":0.1875,"midi":42,"time":455.6953125,"velocity":0.3937007874015748},{"duration":0.1875,"midi":41,"time":455.71875,"velocity":0.3937007874015748},{"duration":0.1875,"midi":80,"time":455.71875,"velocity":0.3937007874015748},{"duration":0.1875,"midi":40,"time":455.7421875,"velocity":0.3937007874015748},{"duration":0.1875,"midi":81,"time":455.7421875,"velocity":0.3937007874015748},{"duration":0.1875,"midi":82,"time":455.765625,"velocity":0.3937007874015748},{"duration":0.1875,"midi":39,"time":455.765625,"velocity":0.3937007874015748},{"duration":0.1875,"midi":83,"time":455.7890625,"velocity":0.3937007874015748},{"duration":0.1875,"midi":38,"time":455.7890625,"velocity":0.3937007874015748},{"duration":0.1875,"midi":80,"time":455.8125,"velocity":0.3937007874015748},{"duration":0.1875,"midi":92,"time":455.8125,"velocity":0.3937007874015748},{"duration":0.1875,"midi":39,"time":455.8125,"velocity":0.3937007874015748},{"duration":0.1875,"midi":44,"time":455.8125,"velocity":0.3937007874015748},{"duration":0.1875,"midi":84,"time":455.8125,"velocity":0.3937007874015748},{"duration":0.1875,"midi":56,"time":455.8125,"velocity":0.3937007874015748},{"duration":0.1875,"midi":63,"time":455.8125,"velocity":0.3937007874015748},{"duration":0.1875,"midi":37,"time":455.8125,"velocity":0.3937007874015748},{"duration":0.1875,"midi":32,"time":455.8125,"velocity":0.3937007874015748},{"duration":0.1875,"midi":51,"time":455.8125,"velocity":0.3937007874015748},{"duration":0.1875,"midi":68,"time":455.8125,"velocity":0.3937007874015748},{"duration":0.1875,"midi":27,"time":455.8125,"velocity":0.3937007874015748},{"duration":0.1875,"midi":75,"time":455.8125,"velocity":0.3937007874015748},{"duration":0.1875,"midi":87,"time":455.8125,"velocity":0.3937007874015748},{"duration":0.1875,"midi":36,"time":455.8359375,"velocity":0.3937007874015748},{"duration":0.1875,"midi":85,"time":455.8359375,"velocity":0.3937007874015748},{"duration":0.1875,"midi":86,"time":455.859375,"velocity":0.3937007874015748},{"duration":0.1875,"midi":35,"time":455.859375,"velocity":0.3937007874015748},{"duration":0.1875,"midi":34,"time":455.8828125,"velocity":0.3937007874015748},{"duration":0.1875,"midi":87,"time":455.8828125,"velocity":0.3937007874015748},{"duration":0.1875,"midi":88,"time":455.90625,"velocity":0.3937007874015748},{"duration":0.1875,"midi":33,"time":455.90625,"velocity":0.3937007874015748},{"duration":0.1875,"midi":32,"time":455.9296875,"velocity":0.3937007874015748},{"duration":0.1875,"midi":89,"time":455.9296875,"velocity":0.3937007874015748},{"duration":0.1875,"midi":31,"time":455.953125,"velocity":0.3937007874015748},{"duration":0.1875,"midi":90,"time":455.953125,"velocity":0.3937007874015748},{"duration":0.1875,"midi":30,"time":455.9765625,"velocity":0.3937007874015748},{"duration":0.1875,"midi":91,"time":455.9765625,"velocity":0.3937007874015748},{"duration":0.1875,"midi":79,"time":456,"velocity":0.3937007874015748},{"duration":0.1875,"midi":88,"time":456,"velocity":0.3937007874015748},{"duration":0.1875,"midi":91,"time":456,"velocity":0.3937007874015748},{"duration":0.1875,"midi":76,"time":456,"velocity":0.3937007874015748},{"duration":0.1875,"midi":31,"time":456,"velocity":0.3937007874015748},{"duration":0.1875,"midi":40,"time":456,"velocity":0.3937007874015748},{"duration":0.1875,"midi":55,"time":456,"velocity":0.3937007874015748},{"duration":0.1875,"midi":67,"time":456,"velocity":0.3937007874015748},{"duration":0.1875,"midi":64,"time":456,"velocity":0.3937007874015748},{"duration":0.1875,"midi":43,"time":456,"velocity":0.3937007874015748},{"duration":0.1875,"midi":28,"time":456,"velocity":0.3937007874015748},{"duration":0.1875,"midi":28,"time":456,"velocity":0.3937007874015748},{"duration":0.1875,"midi":93,"time":456,"velocity":0.3937007874015748},{"duration":0.1875,"midi":52,"time":456,"velocity":0.3937007874015748},{"duration":0.1875,"midi":92,"time":456.0234375,"velocity":0.3937007874015748},{"duration":0.1875,"midi":29,"time":456.0234375,"velocity":0.3937007874015748},{"duration":0.1875,"midi":30,"time":456.046875,"velocity":0.3937007874015748},{"duration":0.1875,"midi":91,"time":456.046875,"velocity":0.3937007874015748},{"duration":0.1875,"midi":90,"time":456.0703125,"velocity":0.3937007874015748},{"duration":0.1875,"midi":31,"time":456.0703125,"velocity":0.3937007874015748},{"duration":0.1875,"midi":89,"time":456.09375,"velocity":0.3937007874015748},{"duration":0.1875,"midi":32,"time":456.09375,"velocity":0.3937007874015748},{"duration":0.1875,"midi":33,"time":456.1171875,"velocity":0.3937007874015748},{"duration":0.1875,"midi":88,"time":456.1171875,"velocity":0.3937007874015748},{"duration":0.1875,"midi":34,"time":456.140625,"velocity":0.3937007874015748},{"duration":0.1875,"midi":87,"time":456.140625,"velocity":0.3937007874015748},{"duration":0.1875,"midi":35,"time":456.1640625,"velocity":0.3937007874015748},{"duration":0.1875,"midi":86,"time":456.1640625,"velocity":0.3937007874015748},{"duration":0.1875,"midi":42,"time":456.1875,"velocity":0.3937007874015748},{"duration":0.1875,"midi":66,"time":456.1875,"velocity":0.3937007874015748},{"duration":0.1875,"midi":30,"time":456.1875,"velocity":0.3937007874015748},{"duration":0.1875,"midi":77,"time":456.1875,"velocity":0.3937007874015748},{"duration":0.1875,"midi":85,"time":456.1875,"velocity":0.3937007874015748},{"duration":0.1875,"midi":89,"time":456.1875,"velocity":0.3937007874015748},{"duration":0.1875,"midi":90,"time":456.1875,"velocity":0.3937007874015748},{"duration":0.1875,"midi":54,"time":456.1875,"velocity":0.3937007874015748},{"duration":0.1875,"midi":41,"time":456.1875,"velocity":0.3937007874015748},{"duration":0.1875,"midi":29,"time":456.1875,"velocity":0.3937007874015748},{"duration":0.1875,"midi":65,"time":456.1875,"velocity":0.3937007874015748},{"duration":0.1875,"midi":53,"time":456.1875,"velocity":0.3937007874015748},{"duration":0.1875,"midi":78,"time":456.1875,"velocity":0.3937007874015748},{"duration":0.1875,"midi":36,"time":456.1875,"velocity":0.3937007874015748},{"duration":0.1875,"midi":37,"time":456.2109375,"velocity":0.3937007874015748},{"duration":0.1875,"midi":84,"time":456.2109375,"velocity":0.3937007874015748},{"duration":0.1875,"midi":83,"time":456.234375,"velocity":0.3937007874015748},{"duration":0.1875,"midi":38,"time":456.234375,"velocity":0.3937007874015748},{"duration":0.1875,"midi":82,"time":456.2578125,"velocity":0.3937007874015748},{"duration":0.1875,"midi":39,"time":456.2578125,"velocity":0.3937007874015748},{"duration":0.1875,"midi":81,"time":456.28125,"velocity":0.3937007874015748},{"duration":0.1875,"midi":40,"time":456.28125,"velocity":0.3937007874015748},{"duration":0.1875,"midi":41,"time":456.3046875,"velocity":0.3937007874015748},{"duration":0.1875,"midi":80,"time":456.3046875,"velocity":0.3937007874015748},{"duration":0.1875,"midi":42,"time":456.328125,"velocity":0.3937007874015748},{"duration":0.1875,"midi":79,"time":456.328125,"velocity":0.3937007874015748},{"duration":0.1875,"midi":43,"time":456.3515625,"velocity":0.3937007874015748},{"duration":0.1875,"midi":78,"time":456.3515625,"velocity":0.3937007874015748},{"duration":0.1875,"midi":66,"time":456.375,"velocity":0.3937007874015748},{"duration":0.1875,"midi":30,"time":456.375,"velocity":0.3937007874015748},{"duration":0.1875,"midi":78,"time":456.375,"velocity":0.3937007874015748},{"duration":0.1875,"midi":90,"time":456.375,"velocity":0.3937007874015748},{"duration":0.1875,"midi":77,"time":456.375,"velocity":0.3937007874015748},{"duration":0.1875,"midi":42,"time":456.375,"velocity":0.3937007874015748},{"duration":0.1875,"midi":44,"time":456.375,"velocity":0.3937007874015748},{"duration":0.1875,"midi":53,"time":456.375,"velocity":0.3937007874015748},{"duration":0.1875,"midi":41,"time":456.375,"velocity":0.3937007874015748},{"duration":0.1875,"midi":77,"time":456.375,"velocity":0.3937007874015748},{"duration":0.1875,"midi":89,"time":456.375,"velocity":0.3937007874015748},{"duration":0.1875,"midi":65,"time":456.375,"velocity":0.3937007874015748},{"duration":0.1875,"midi":29,"time":456.375,"velocity":0.3937007874015748},{"duration":0.1875,"midi":54,"time":456.375,"velocity":0.3937007874015748},{"duration":0.1875,"midi":45,"time":456.3984375,"velocity":0.3937007874015748},{"duration":0.1875,"midi":76,"time":456.3984375,"velocity":0.3937007874015748},{"duration":0.1875,"midi":46,"time":456.421875,"velocity":0.3937007874015748},{"duration":0.1875,"midi":75,"time":456.421875,"velocity":0.3937007874015748},{"duration":0.1875,"midi":47,"time":456.4453125,"velocity":0.3937007874015748},{"duration":0.1875,"midi":74,"time":456.4453125,"velocity":0.3937007874015748},{"duration":0.1875,"midi":48,"time":456.46875,"velocity":0.3937007874015748},{"duration":0.1875,"midi":73,"time":456.46875,"velocity":0.3937007874015748},{"duration":0.1875,"midi":72,"time":456.4921875,"velocity":0.3937007874015748},{"duration":0.1875,"midi":49,"time":456.4921875,"velocity":0.3937007874015748},{"duration":0.1875,"midi":71,"time":456.515625,"velocity":0.3937007874015748},{"duration":0.1875,"midi":50,"time":456.515625,"velocity":0.3937007874015748},{"duration":0.1875,"midi":51,"time":456.5390625,"velocity":0.3937007874015748},{"duration":0.1875,"midi":70,"time":456.5390625,"velocity":0.3937007874015748},{"duration":0.1875,"midi":88,"time":456.5625,"velocity":0.3937007874015748},{"duration":0.1875,"midi":28,"time":456.5625,"velocity":0.3937007874015748},{"duration":0.1875,"midi":52,"time":456.5625,"velocity":0.3937007874015748},{"duration":0.1875,"midi":67,"time":456.5625,"velocity":0.3937007874015748},{"duration":0.1875,"midi":91,"time":456.5625,"velocity":0.3937007874015748},{"duration":0.1875,"midi":40,"time":456.5625,"velocity":0.3937007874015748},{"duration":0.1875,"midi":69,"time":456.5625,"velocity":0.3937007874015748},{"duration":0.1875,"midi":31,"time":456.5625,"velocity":0.3937007874015748},{"duration":0.1875,"midi":52,"time":456.5625,"velocity":0.3937007874015748},{"duration":0.1875,"midi":76,"time":456.5625,"velocity":0.3937007874015748},{"duration":0.1875,"midi":79,"time":456.5625,"velocity":0.3937007874015748},{"duration":0.1875,"midi":64,"time":456.5625,"velocity":0.3937007874015748},{"duration":0.1875,"midi":43,"time":456.5625,"velocity":0.3937007874015748},{"duration":0.1875,"midi":55,"time":456.5625,"velocity":0.3937007874015748},{"duration":0.1875,"midi":53,"time":456.5859375,"velocity":0.3937007874015748},{"duration":0.1875,"midi":68,"time":456.5859375,"velocity":0.3937007874015748},{"duration":0.1875,"midi":54,"time":456.609375,"velocity":0.3937007874015748},{"duration":0.1875,"midi":67,"time":456.609375,"velocity":0.3937007874015748},{"duration":0.1875,"midi":55,"time":456.6328125,"velocity":0.3937007874015748},{"duration":0.1875,"midi":66,"time":456.6328125,"velocity":0.3937007874015748},{"duration":0.1875,"midi":65,"time":456.65625,"velocity":0.3937007874015748},{"duration":0.1875,"midi":56,"time":456.65625,"velocity":0.3937007874015748},{"duration":0.1875,"midi":57,"time":456.6796875,"velocity":0.3937007874015748},{"duration":0.1875,"midi":64,"time":456.6796875,"velocity":0.3937007874015748},{"duration":0.1875,"midi":63,"time":456.703125,"velocity":0.3937007874015748},{"duration":0.1875,"midi":58,"time":456.703125,"velocity":0.3937007874015748},{"duration":0.1875,"midi":59,"time":456.7265625,"velocity":0.3937007874015748},{"duration":0.1875,"midi":62,"time":456.7265625,"velocity":0.3937007874015748},{"duration":0.1875,"midi":87,"time":456.75,"velocity":0.3937007874015748},{"duration":0.1875,"midi":80,"time":456.75,"velocity":0.3937007874015748},{"duration":0.1875,"midi":39,"time":456.75,"velocity":0.3937007874015748},{"duration":0.1875,"midi":32,"time":456.75,"velocity":0.3937007874015748},{"duration":0.1875,"midi":68,"time":456.75,"velocity":0.3937007874015748},{"duration":0.1875,"midi":92,"time":456.75,"velocity":0.3937007874015748},{"duration":0.1875,"midi":27,"time":456.75,"velocity":0.3937007874015748},{"duration":0.1875,"midi":61,"time":456.75,"velocity":0.3937007874015748},{"duration":0.1875,"midi":75,"time":456.75,"velocity":0.3937007874015748},{"duration":0.1875,"midi":51,"time":456.75,"velocity":0.3937007874015748},{"duration":0.1875,"midi":63,"time":456.75,"velocity":0.3937007874015748},{"duration":0.1875,"midi":60,"time":456.75,"velocity":0.3937007874015748},{"duration":0.1875,"midi":44,"time":456.75,"velocity":0.3937007874015748},{"duration":0.1875,"midi":56,"time":456.75,"velocity":0.3937007874015748},{"duration":0.1875,"midi":60,"time":456.7734375,"velocity":0.3937007874015748},{"duration":0.1875,"midi":61,"time":456.7734375,"velocity":0.3937007874015748},{"duration":0.1875,"midi":62,"time":456.796875,"velocity":0.3937007874015748},{"duration":0.1875,"midi":59,"time":456.796875,"velocity":0.3937007874015748},{"duration":0.1875,"midi":58,"time":456.8203125,"velocity":0.3937007874015748},{"duration":0.1875,"midi":63,"time":456.8203125,"velocity":0.3937007874015748},{"duration":0.1875,"midi":64,"time":456.84375,"velocity":0.3937007874015748},{"duration":0.1875,"midi":57,"time":456.84375,"velocity":0.3937007874015748},{"duration":0.1875,"midi":56,"time":456.8671875,"velocity":0.3937007874015748},{"duration":0.1875,"midi":65,"time":456.8671875,"velocity":0.3937007874015748},{"duration":0.1875,"midi":55,"time":456.890625,"velocity":0.3937007874015748},{"duration":0.1875,"midi":66,"time":456.890625,"velocity":0.3937007874015748},{"duration":0.1875,"midi":54,"time":456.9140625,"velocity":0.3937007874015748},{"duration":0.1875,"midi":67,"time":456.9140625,"velocity":0.3937007874015748},{"duration":0.1875,"midi":57,"time":456.9375,"velocity":0.3937007874015748},{"duration":0.1875,"midi":74,"time":456.9375,"velocity":0.3937007874015748},{"duration":0.1875,"midi":81,"time":456.9375,"velocity":0.3937007874015748},{"duration":0.1875,"midi":69,"time":456.9375,"velocity":0.3937007874015748},{"duration":0.1875,"midi":86,"time":456.9375,"velocity":0.3937007874015748},{"duration":0.1875,"midi":45,"time":456.9375,"velocity":0.3937007874015748},{"duration":0.1875,"midi":93,"time":456.9375,"velocity":0.3937007874015748},{"duration":0.1875,"midi":33,"time":456.9375,"velocity":0.3937007874015748},{"duration":0.1875,"midi":68,"time":456.9375,"velocity":0.3937007874015748},{"duration":0.1875,"midi":26,"time":456.9375,"velocity":0.3937007874015748},{"duration":0.1875,"midi":38,"time":456.9375,"velocity":0.3937007874015748},{"duration":0.1875,"midi":50,"time":456.9375,"velocity":0.3937007874015748},{"duration":0.1875,"midi":62,"time":456.9375,"velocity":0.3937007874015748},{"duration":0.1875,"midi":53,"time":456.9375,"velocity":0.3937007874015748},{"duration":0.1875,"midi":69,"time":456.9609375,"velocity":0.3937007874015748},{"duration":0.1875,"midi":52,"time":456.9609375,"velocity":0.3937007874015748},{"duration":0.1875,"midi":51,"time":456.984375,"velocity":0.3937007874015748},{"duration":0.1875,"midi":70,"time":456.984375,"velocity":0.3937007874015748},{"duration":0.1875,"midi":71,"time":457.0078125,"velocity":0.3937007874015748},{"duration":0.1875,"midi":50,"time":457.0078125,"velocity":0.3937007874015748},{"duration":0.1875,"midi":72,"time":457.03125,"velocity":0.3937007874015748},{"duration":0.1875,"midi":49,"time":457.03125,"velocity":0.3937007874015748},{"duration":0.1875,"midi":73,"time":457.0546875,"velocity":0.3937007874015748},{"duration":0.1875,"midi":48,"time":457.0546875,"velocity":0.3937007874015748},{"duration":0.1875,"midi":47,"time":457.078125,"velocity":0.3937007874015748},{"duration":0.1875,"midi":74,"time":457.078125,"velocity":0.3937007874015748},{"duration":0.1875,"midi":46,"time":457.1015625,"velocity":0.3937007874015748},{"duration":0.1875,"midi":75,"time":457.1015625,"velocity":0.3937007874015748},{"duration":0.1875,"midi":73,"time":457.125,"velocity":0.3937007874015748},{"duration":0.1875,"midi":76,"time":457.125,"velocity":0.3937007874015748},{"duration":0.1875,"midi":37,"time":457.125,"velocity":0.3937007874015748},{"duration":0.1875,"midi":61,"time":457.125,"velocity":0.3937007874015748},{"duration":0.1875,"midi":70,"time":457.125,"velocity":0.3937007874015748},{"duration":0.1875,"midi":94,"time":457.125,"velocity":0.3937007874015748},{"duration":0.1875,"midi":58,"time":457.125,"velocity":0.3937007874015748},{"duration":0.1875,"midi":85,"time":457.125,"velocity":0.3937007874015748},{"duration":0.1875,"midi":49,"time":457.125,"velocity":0.3937007874015748},{"duration":0.1875,"midi":34,"time":457.125,"velocity":0.3937007874015748},{"duration":0.1875,"midi":45,"time":457.125,"velocity":0.3937007874015748},{"duration":0.1875,"midi":46,"time":457.125,"velocity":0.3937007874015748},{"duration":0.1875,"midi":82,"time":457.125,"velocity":0.3937007874015748},{"duration":0.1875,"midi":25,"time":457.125,"velocity":0.3937007874015748},{"duration":0.1875,"midi":44,"time":457.1484375,"velocity":0.3937007874015748},{"duration":0.1875,"midi":77,"time":457.1484375,"velocity":0.3937007874015748},{"duration":0.1875,"midi":43,"time":457.171875,"velocity":0.3937007874015748},{"duration":0.1875,"midi":78,"time":457.171875,"velocity":0.3937007874015748},{"duration":0.1875,"midi":42,"time":457.1953125,"velocity":0.3937007874015748},{"duration":0.1875,"midi":79,"time":457.1953125,"velocity":0.3937007874015748},{"duration":0.1875,"midi":80,"time":457.21875,"velocity":0.3937007874015748},{"duration":0.1875,"midi":41,"time":457.21875,"velocity":0.3937007874015748},{"duration":0.1875,"midi":40,"time":457.2421875,"velocity":0.3937007874015748},{"duration":0.1875,"midi":81,"time":457.2421875,"velocity":0.3937007874015748},{"duration":0.1875,"midi":82,"time":457.265625,"velocity":0.3937007874015748},{"duration":0.1875,"midi":39,"time":457.265625,"velocity":0.3937007874015748},{"duration":0.1875,"midi":83,"time":457.2890625,"velocity":0.3937007874015748},{"duration":0.1875,"midi":38,"time":457.2890625,"velocity":0.3937007874015748},{"duration":0.1875,"midi":83,"time":457.3125,"velocity":0.3937007874015748},{"duration":0.1875,"midi":60,"time":457.3125,"velocity":0.3937007874015748},{"duration":0.1875,"midi":35,"time":457.3125,"velocity":0.3937007874015748},{"duration":0.1875,"midi":47,"time":457.3125,"velocity":0.3937007874015748},{"duration":0.1875,"midi":48,"time":457.3125,"velocity":0.3937007874015748},{"duration":0.1875,"midi":71,"time":457.3125,"velocity":0.3937007874015748},{"duration":0.1875,"midi":36,"time":457.3125,"velocity":0.3937007874015748},{"duration":0.1875,"midi":59,"time":457.3125,"velocity":0.3937007874015748},{"duration":0.1875,"midi":84,"time":457.3125,"velocity":0.3937007874015748},{"duration":0.1875,"midi":72,"time":457.3125,"velocity":0.3937007874015748},{"duration":0.1875,"midi":84,"time":457.3125,"velocity":0.3937007874015748},{"duration":0.1875,"midi":95,"time":457.3125,"velocity":0.3937007874015748},{"duration":0.1875,"midi":24,"time":457.3125,"velocity":0.3937007874015748},{"duration":0.1875,"midi":37,"time":457.3125,"velocity":0.3937007874015748},{"duration":0.1875,"midi":85,"time":457.3359375,"velocity":0.3937007874015748},{"duration":0.1875,"midi":36,"time":457.3359375,"velocity":0.3937007874015748},{"duration":0.1875,"midi":86,"time":457.359375,"velocity":0.3937007874015748},{"duration":0.1875,"midi":35,"time":457.359375,"velocity":0.3937007874015748},{"duration":0.1875,"midi":87,"time":457.3828125,"velocity":0.3937007874015748},{"duration":0.1875,"midi":34,"time":457.3828125,"velocity":0.3937007874015748},{"duration":0.1875,"midi":88,"time":457.40625,"velocity":0.3937007874015748},{"duration":0.1875,"midi":33,"time":457.40625,"velocity":0.3937007874015748},{"duration":0.1875,"midi":32,"time":457.4296875,"velocity":0.3937007874015748},{"duration":0.1875,"midi":89,"time":457.4296875,"velocity":0.3937007874015748},{"duration":0.1875,"midi":90,"time":457.453125,"velocity":0.3937007874015748},{"duration":0.1875,"midi":31,"time":457.453125,"velocity":0.3937007874015748},{"duration":0.1875,"midi":91,"time":457.4765625,"velocity":0.3937007874015748},{"duration":0.1875,"midi":30,"time":457.4765625,"velocity":0.3937007874015748},{"duration":0.1875,"midi":47,"time":457.5,"velocity":0.3937007874015748},{"duration":0.1875,"midi":95,"time":457.5,"velocity":0.3937007874015748},{"duration":0.1875,"midi":48,"time":457.5,"velocity":0.3937007874015748},{"duration":0.1875,"midi":84,"time":457.5,"velocity":0.3937007874015748},{"duration":0.1875,"midi":83,"time":457.5,"velocity":0.3937007874015748},{"duration":0.1875,"midi":72,"time":457.5,"velocity":0.3937007874015748},{"duration":0.1875,"midi":35,"time":457.5,"velocity":0.3937007874015748},{"duration":0.1875,"midi":71,"time":457.5,"velocity":0.3937007874015748},{"duration":0.1875,"midi":24,"time":457.5,"velocity":0.3937007874015748},{"duration":0.1875,"midi":28,"time":457.5,"velocity":0.3937007874015748},{"duration":0.1875,"midi":36,"time":457.5,"velocity":0.3937007874015748},{"duration":0.1875,"midi":59,"time":457.5,"velocity":0.3937007874015748},{"duration":0.1875,"midi":60,"time":457.5,"velocity":0.3937007874015748},{"duration":0.1875,"midi":93,"time":457.5,"velocity":0.3937007874015748},{"duration":0.1875,"midi":92,"time":457.5234375,"velocity":0.3937007874015748},{"duration":0.1875,"midi":29,"time":457.5234375,"velocity":0.3937007874015748},{"duration":0.1875,"midi":91,"time":457.546875,"velocity":0.3937007874015748},{"duration":0.1875,"midi":30,"time":457.546875,"velocity":0.3937007874015748},{"duration":0.1875,"midi":90,"time":457.5703125,"velocity":0.3937007874015748},{"duration":0.1875,"midi":31,"time":457.5703125,"velocity":0.3937007874015748},{"duration":0.1875,"midi":89,"time":457.59375,"velocity":0.3937007874015748},{"duration":0.1875,"midi":32,"time":457.59375,"velocity":0.3937007874015748},{"duration":0.1875,"midi":33,"time":457.6171875,"velocity":0.3937007874015748},{"duration":0.1875,"midi":88,"time":457.6171875,"velocity":0.3937007874015748},{"duration":0.1875,"midi":34,"time":457.640625,"velocity":0.3937007874015748},{"duration":0.1875,"midi":87,"time":457.640625,"velocity":0.3937007874015748},{"duration":0.1875,"midi":86,"time":457.6640625,"velocity":0.3937007874015748},{"duration":0.1875,"midi":35,"time":457.6640625,"velocity":0.3937007874015748},{"duration":0.1875,"midi":36,"time":457.6875,"velocity":0.3937007874015748},{"duration":0.1875,"midi":82,"time":457.6875,"velocity":0.3937007874015748},{"duration":0.1875,"midi":85,"time":457.6875,"velocity":0.3937007874015748},{"duration":0.1875,"midi":37,"time":457.6875,"velocity":0.3937007874015748},{"duration":0.1875,"midi":49,"time":457.6875,"velocity":0.3937007874015748},{"duration":0.1875,"midi":73,"time":457.6875,"velocity":0.3937007874015748},{"duration":0.1875,"midi":34,"time":457.6875,"velocity":0.3937007874015748},{"duration":0.1875,"midi":25,"time":457.6875,"velocity":0.3937007874015748},{"duration":0.1875,"midi":61,"time":457.6875,"velocity":0.3937007874015748},{"duration":0.1875,"midi":94,"time":457.6875,"velocity":0.3937007874015748},{"duration":0.1875,"midi":70,"time":457.6875,"velocity":0.3937007874015748},{"duration":0.1875,"midi":58,"time":457.6875,"velocity":0.3937007874015748},{"duration":0.1875,"midi":85,"time":457.6875,"velocity":0.3937007874015748},{"duration":0.1875,"midi":46,"time":457.6875,"velocity":0.3937007874015748},{"duration":0.1875,"midi":37,"time":457.7109375,"velocity":0.3937007874015748},{"duration":0.1875,"midi":84,"time":457.7109375,"velocity":0.3937007874015748},{"duration":0.1875,"midi":38,"time":457.734375,"velocity":0.3937007874015748},{"duration":0.1875,"midi":83,"time":457.734375,"velocity":0.3937007874015748},{"duration":0.1875,"midi":39,"time":457.7578125,"velocity":0.3937007874015748},{"duration":0.1875,"midi":82,"time":457.7578125,"velocity":0.3937007874015748},{"duration":0.1875,"midi":40,"time":457.78125,"velocity":0.3937007874015748},{"duration":0.1875,"midi":81,"time":457.78125,"velocity":0.3937007874015748},{"duration":0.1875,"midi":41,"time":457.8046875,"velocity":0.3937007874015748},{"duration":0.1875,"midi":80,"time":457.8046875,"velocity":0.3937007874015748},{"duration":0.1875,"midi":79,"time":457.828125,"velocity":0.3937007874015748},{"duration":0.1875,"midi":42,"time":457.828125,"velocity":0.3937007874015748},{"duration":0.1875,"midi":43,"time":457.8515625,"velocity":0.3937007874015748},{"duration":0.1875,"midi":78,"time":457.8515625,"velocity":0.3937007874015748},{"duration":0.1875,"midi":38,"time":457.875,"velocity":0.3937007874015748},{"duration":0.1875,"midi":44,"time":457.875,"velocity":0.3937007874015748},{"duration":0.1875,"midi":50,"time":457.875,"velocity":0.3937007874015748},{"duration":0.1875,"midi":69,"time":457.875,"velocity":0.3937007874015748},{"duration":0.1875,"midi":62,"time":457.875,"velocity":0.3937007874015748},{"duration":0.1875,"midi":77,"time":457.875,"velocity":0.3937007874015748},{"duration":0.1875,"midi":57,"time":457.875,"velocity":0.3937007874015748},{"duration":0.1875,"midi":93,"time":457.875,"velocity":0.3937007874015748},{"duration":0.1875,"midi":45,"time":457.875,"velocity":0.3937007874015748},{"duration":0.1875,"midi":86,"time":457.875,"velocity":0.3937007874015748},{"duration":0.1875,"midi":26,"time":457.875,"velocity":0.3937007874015748},{"duration":0.1875,"midi":74,"time":457.875,"velocity":0.3937007874015748},{"duration":0.1875,"midi":33,"time":457.875,"velocity":0.3937007874015748},{"duration":0.1875,"midi":81,"time":457.875,"velocity":0.3937007874015748},{"duration":0.1875,"midi":45,"time":457.8984375,"velocity":0.3937007874015748},{"duration":0.1875,"midi":76,"time":457.8984375,"velocity":0.3937007874015748},{"duration":0.1875,"midi":46,"time":457.921875,"velocity":0.3937007874015748},{"duration":0.1875,"midi":75,"time":457.921875,"velocity":0.3937007874015748},{"duration":0.1875,"midi":74,"time":457.9453125,"velocity":0.3937007874015748},{"duration":0.1875,"midi":47,"time":457.9453125,"velocity":0.3937007874015748},{"duration":0.1875,"midi":48,"time":457.96875,"velocity":0.3937007874015748},{"duration":0.1875,"midi":73,"time":457.96875,"velocity":0.3937007874015748},{"duration":0.1875,"midi":72,"time":457.9921875,"velocity":0.3937007874015748},{"duration":0.1875,"midi":49,"time":457.9921875,"velocity":0.3937007874015748},{"duration":0.1875,"midi":71,"time":458.015625,"velocity":0.3937007874015748},{"duration":0.1875,"midi":50,"time":458.015625,"velocity":0.3937007874015748},{"duration":0.1875,"midi":51,"time":458.0390625,"velocity":0.3937007874015748},{"duration":0.1875,"midi":70,"time":458.0390625,"velocity":0.3937007874015748},{"duration":0.1875,"midi":68,"time":458.0625,"velocity":0.3937007874015748},{"duration":0.1875,"midi":39,"time":458.0625,"velocity":0.3937007874015748},{"duration":0.1875,"midi":52,"time":458.0625,"velocity":0.3937007874015748},{"duration":0.1875,"midi":63,"time":458.0625,"velocity":0.3937007874015748},{"duration":0.1875,"midi":32,"time":458.0625,"velocity":0.3937007874015748},{"duration":0.1875,"midi":44,"time":458.0625,"velocity":0.3937007874015748},{"duration":0.1875,"midi":27,"time":458.0625,"velocity":0.3937007874015748},{"duration":0.1875,"midi":75,"time":458.0625,"velocity":0.3937007874015748},{"duration":0.1875,"midi":56,"time":458.0625,"velocity":0.3937007874015748},{"duration":0.1875,"midi":92,"time":458.0625,"velocity":0.3937007874015748},{"duration":0.1875,"midi":51,"time":458.0625,"velocity":0.3937007874015748},{"duration":0.1875,"midi":80,"time":458.0625,"velocity":0.3937007874015748},{"duration":0.1875,"midi":87,"time":458.0625,"velocity":0.3937007874015748},{"duration":0.1875,"midi":69,"time":458.0625,"velocity":0.3937007874015748},{"duration":0.1875,"midi":68,"time":458.0859375,"velocity":0.3937007874015748},{"duration":0.1875,"midi":53,"time":458.0859375,"velocity":0.3937007874015748},{"duration":0.1875,"midi":54,"time":458.109375,"velocity":0.3937007874015748},{"duration":0.1875,"midi":67,"time":458.109375,"velocity":0.3937007874015748},{"duration":0.1875,"midi":55,"time":458.1328125,"velocity":0.3937007874015748},{"duration":0.1875,"midi":66,"time":458.1328125,"velocity":0.3937007874015748},{"duration":0.1875,"midi":65,"time":458.15625,"velocity":0.3937007874015748},{"duration":0.1875,"midi":56,"time":458.15625,"velocity":0.3937007874015748},{"duration":0.1875,"midi":64,"time":458.1796875,"velocity":0.3937007874015748},{"duration":0.1875,"midi":57,"time":458.1796875,"velocity":0.3937007874015748},{"duration":0.1875,"midi":58,"time":458.203125,"velocity":0.3937007874015748},{"duration":0.1875,"midi":63,"time":458.203125,"velocity":0.3937007874015748},{"duration":0.1875,"midi":59,"time":458.2265625,"velocity":0.3937007874015748},{"duration":0.1875,"midi":62,"time":458.2265625,"velocity":0.3937007874015748},{"duration":0.1875,"midi":79,"time":458.25,"velocity":0.3937007874015748},{"duration":0.1875,"midi":76,"time":458.25,"velocity":0.3937007874015748},{"duration":0.1875,"midi":28,"time":458.25,"velocity":0.3937007874015748},{"duration":0.1875,"midi":52,"time":458.25,"velocity":0.3937007874015748},{"duration":0.1875,"midi":61,"time":458.25,"velocity":0.3937007874015748},{"duration":0.1875,"midi":40,"time":458.25,"velocity":0.3937007874015748},{"duration":0.1875,"midi":31,"time":458.25,"velocity":0.3937007874015748},{"duration":0.1875,"midi":91,"time":458.25,"velocity":0.3937007874015748},{"duration":0.1875,"midi":64,"time":458.25,"velocity":0.3937007874015748},{"duration":0.1875,"midi":55,"time":458.25,"velocity":0.3937007874015748},{"duration":0.1875,"midi":88,"time":458.25,"velocity":0.3937007874015748},{"duration":0.1875,"midi":43,"time":458.25,"velocity":0.3937007874015748},{"duration":0.1875,"midi":67,"time":458.25,"velocity":0.3937007874015748},{"duration":0.1875,"midi":60,"time":458.25,"velocity":0.3937007874015748},{"duration":0.1875,"midi":61,"time":458.2734375,"velocity":0.3937007874015748},{"duration":0.1875,"midi":60,"time":458.2734375,"velocity":0.3937007874015748},{"duration":0.1875,"midi":59,"time":458.296875,"velocity":0.3937007874015748},{"duration":0.1875,"midi":62,"time":458.296875,"velocity":0.3937007874015748},{"duration":0.1875,"midi":58,"time":458.3203125,"velocity":0.3937007874015748},{"duration":0.1875,"midi":63,"time":458.3203125,"velocity":0.3937007874015748},{"duration":0.1875,"midi":64,"time":458.34375,"velocity":0.3937007874015748},{"duration":0.1875,"midi":57,"time":458.34375,"velocity":0.3937007874015748},{"duration":0.1875,"midi":65,"time":458.3671875,"velocity":0.3937007874015748},{"duration":0.1875,"midi":56,"time":458.3671875,"velocity":0.3937007874015748},{"duration":0.1875,"midi":55,"time":458.390625,"velocity":0.3937007874015748},{"duration":0.1875,"midi":66,"time":458.390625,"velocity":0.3937007874015748},{"duration":0.1875,"midi":67,"time":458.4140625,"velocity":0.3937007874015748},{"duration":0.1875,"midi":54,"time":458.4140625,"velocity":0.3937007874015748},{"duration":0.1875,"midi":29,"time":458.4375,"velocity":0.3937007874015748},{"duration":0.1875,"midi":68,"time":458.4375,"velocity":0.3937007874015748},{"duration":0.1875,"midi":30,"time":458.4375,"velocity":0.3937007874015748},{"duration":0.1875,"midi":77,"time":458.4375,"velocity":0.3937007874015748},{"duration":0.1875,"midi":41,"time":458.4375,"velocity":0.3937007874015748},{"duration":0.1875,"midi":65,"time":458.4375,"velocity":0.3937007874015748},{"duration":0.1875,"midi":54,"time":458.4375,"velocity":0.3937007874015748},{"duration":0.1875,"midi":42,"time":458.4375,"velocity":0.3937007874015748},{"duration":0.1875,"midi":90,"time":458.4375,"velocity":0.3937007874015748},{"duration":0.1875,"midi":78,"time":458.4375,"velocity":0.3937007874015748},{"duration":0.1875,"midi":53,"time":458.4375,"velocity":0.3937007874015748},{"duration":0.1875,"midi":66,"time":458.4375,"velocity":0.3937007874015748},{"duration":0.1875,"midi":53,"time":458.4375,"velocity":0.3937007874015748},{"duration":0.1875,"midi":89,"time":458.4375,"velocity":0.3937007874015748},{"duration":0.1875,"midi":69,"time":458.4609375,"velocity":0.3937007874015748},{"duration":0.1875,"midi":52,"time":458.4609375,"velocity":0.3937007874015748},{"duration":0.1875,"midi":70,"time":458.484375,"velocity":0.3937007874015748},{"duration":0.1875,"midi":51,"time":458.484375,"velocity":0.3937007874015748},{"duration":0.1875,"midi":50,"time":458.5078125,"velocity":0.3937007874015748},{"duration":0.1875,"midi":71,"time":458.5078125,"velocity":0.3937007874015748},{"duration":0.1875,"midi":49,"time":458.53125,"velocity":0.3937007874015748},{"duration":0.1875,"midi":72,"time":458.53125,"velocity":0.3937007874015748},{"duration":0.1875,"midi":48,"time":458.5546875,"velocity":0.3937007874015748},{"duration":0.1875,"midi":73,"time":458.5546875,"velocity":0.3937007874015748},{"duration":0.1875,"midi":47,"time":458.578125,"velocity":0.3937007874015748},{"duration":0.1875,"midi":74,"time":458.578125,"velocity":0.3937007874015748},{"duration":0.1875,"midi":75,"time":458.6015625,"velocity":0.3937007874015748},{"duration":0.1875,"midi":46,"time":458.6015625,"velocity":0.3937007874015748},{"duration":0.1875,"midi":53,"time":458.625,"velocity":0.3937007874015748},{"duration":0.1875,"midi":54,"time":458.625,"velocity":0.3937007874015748},{"duration":0.1875,"midi":77,"time":458.625,"velocity":0.3937007874015748},{"duration":0.1875,"midi":45,"time":458.625,"velocity":0.3937007874015748},{"duration":0.1875,"midi":89,"time":458.625,"velocity":0.3937007874015748},{"duration":0.1875,"midi":65,"time":458.625,"velocity":0.3937007874015748},{"duration":0.1875,"midi":41,"time":458.625,"velocity":0.3937007874015748},{"duration":0.1875,"midi":78,"time":458.625,"velocity":0.3937007874015748},{"duration":0.1875,"midi":66,"time":458.625,"velocity":0.3937007874015748},{"duration":0.1875,"midi":29,"time":458.625,"velocity":0.3937007874015748},{"duration":0.1875,"midi":76,"time":458.625,"velocity":0.3937007874015748},{"duration":0.1875,"midi":42,"time":458.625,"velocity":0.3937007874015748},{"duration":0.1875,"midi":30,"time":458.625,"velocity":0.3937007874015748},{"duration":0.1875,"midi":90,"time":458.625,"velocity":0.3937007874015748},{"duration":0.1875,"midi":44,"time":458.6484375,"velocity":0.3937007874015748},{"duration":0.1875,"midi":77,"time":458.6484375,"velocity":0.3937007874015748},{"duration":0.1875,"midi":78,"time":458.671875,"velocity":0.3937007874015748},{"duration":0.1875,"midi":43,"time":458.671875,"velocity":0.3937007874015748},{"duration":0.1875,"midi":79,"time":458.6953125,"velocity":0.3937007874015748},{"duration":0.1875,"midi":42,"time":458.6953125,"velocity":0.3937007874015748},{"duration":0.1875,"midi":80,"time":458.71875,"velocity":0.3937007874015748},{"duration":0.1875,"midi":41,"time":458.71875,"velocity":0.3937007874015748},{"duration":0.1875,"midi":81,"time":458.7421875,"velocity":0.3937007874015748},{"duration":0.1875,"midi":40,"time":458.7421875,"velocity":0.3937007874015748},{"duration":0.1875,"midi":39,"time":458.765625,"velocity":0.3937007874015748},{"duration":0.1875,"midi":82,"time":458.765625,"velocity":0.3937007874015748},{"duration":0.1875,"midi":83,"time":458.7890625,"velocity":0.3937007874015748},{"duration":0.1875,"midi":38,"time":458.7890625,"velocity":0.3937007874015748},{"duration":0.1875,"midi":91,"time":458.8125,"velocity":0.3937007874015748},{"duration":0.1875,"midi":55,"time":458.8125,"velocity":0.3937007874015748},{"duration":0.1875,"midi":67,"time":458.8125,"velocity":0.3937007874015748},{"duration":0.1875,"midi":79,"time":458.8125,"velocity":0.3937007874015748},{"duration":0.1875,"midi":84,"time":458.8125,"velocity":0.3937007874015748},{"duration":0.1875,"midi":52,"time":458.8125,"velocity":0.3937007874015748},{"duration":0.1875,"midi":37,"time":458.8125,"velocity":0.3937007874015748},{"duration":0.1875,"midi":64,"time":458.8125,"velocity":0.3937007874015748},{"duration":0.1875,"midi":43,"time":458.8125,"velocity":0.3937007874015748},{"duration":0.1875,"midi":76,"time":458.8125,"velocity":0.3937007874015748},{"duration":0.1875,"midi":40,"time":458.8125,"velocity":0.3937007874015748},{"duration":0.1875,"midi":88,"time":458.8125,"velocity":0.3937007874015748},{"duration":0.1875,"midi":28,"time":458.8125,"velocity":0.3937007874015748},{"duration":0.1875,"midi":31,"time":458.8125,"velocity":0.3937007874015748},{"duration":0.1875,"midi":36,"time":458.8359375,"velocity":0.3937007874015748},{"duration":0.1875,"midi":85,"time":458.8359375,"velocity":0.3937007874015748},{"duration":0.1875,"midi":86,"time":458.859375,"velocity":0.3937007874015748},{"duration":0.1875,"midi":35,"time":458.859375,"velocity":0.3937007874015748},{"duration":0.1875,"midi":87,"time":458.8828125,"velocity":0.3937007874015748},{"duration":0.1875,"midi":34,"time":458.8828125,"velocity":0.3937007874015748},{"duration":0.1875,"midi":88,"time":458.90625,"velocity":0.3937007874015748},{"duration":0.1875,"midi":33,"time":458.90625,"velocity":0.3937007874015748},{"duration":0.1875,"midi":32,"time":458.9296875,"velocity":0.3937007874015748},{"duration":0.1875,"midi":89,"time":458.9296875,"velocity":0.3937007874015748},{"duration":0.1875,"midi":31,"time":458.953125,"velocity":0.3937007874015748},{"duration":0.1875,"midi":90,"time":458.953125,"velocity":0.3937007874015748},{"duration":0.1875,"midi":91,"time":458.9765625,"velocity":0.3937007874015748},{"duration":0.1875,"midi":30,"time":458.9765625,"velocity":0.3937007874015748},{"duration":0.1875,"midi":44,"time":459,"velocity":0.3937007874015748},{"duration":0.1875,"midi":63,"time":459,"velocity":0.3937007874015748},{"duration":0.1875,"midi":75,"time":459,"velocity":0.3937007874015748},{"duration":0.1875,"midi":80,"time":459,"velocity":0.3937007874015748},{"duration":0.1875,"midi":56,"time":459,"velocity":0.3937007874015748},{"duration":0.1875,"midi":68,"time":459,"velocity":0.3937007874015748},{"duration":0.1875,"midi":51,"time":459,"velocity":0.3937007874015748},{"duration":0.1875,"midi":87,"time":459,"velocity":0.3937007874015748},{"duration":0.1875,"midi":27,"time":459,"velocity":0.3937007874015748},{"duration":0.1875,"midi":92,"time":459,"velocity":0.3937007874015748},{"duration":0.1875,"midi":39,"time":459,"velocity":0.3937007874015748},{"duration":0.1875,"midi":32,"time":459,"velocity":0.3937007874015748},{"duration":0.1875,"midi":28,"time":459.0234375,"velocity":0.3937007874015748},{"duration":0.1875,"midi":93,"time":459.0234375,"velocity":0.3937007874015748},{"duration":0.1875,"midi":92,"time":459.046875,"velocity":0.3937007874015748},{"duration":0.1875,"midi":29,"time":459.046875,"velocity":0.3937007874015748},{"duration":0.1875,"midi":91,"time":459.0703125,"velocity":0.3937007874015748},{"duration":0.1875,"midi":30,"time":459.0703125,"velocity":0.3937007874015748},{"duration":0.1875,"midi":90,"time":459.09375,"velocity":0.3937007874015748},{"duration":0.1875,"midi":31,"time":459.09375,"velocity":0.3937007874015748},{"duration":0.1875,"midi":32,"time":459.1171875,"velocity":0.3937007874015748},{"duration":0.1875,"midi":89,"time":459.1171875,"velocity":0.3937007874015748},{"duration":0.1875,"midi":33,"time":459.140625,"velocity":0.3937007874015748},{"duration":0.1875,"midi":88,"time":459.140625,"velocity":0.3937007874015748},{"duration":0.1875,"midi":87,"time":459.1640625,"velocity":0.3937007874015748},{"duration":0.1875,"midi":34,"time":459.1640625,"velocity":0.3937007874015748},{"duration":0.1875,"midi":33,"time":459.1875,"velocity":0.3937007874015748},{"duration":0.1875,"midi":86,"time":459.1875,"velocity":0.3937007874015748},{"duration":0.1875,"midi":45,"time":459.1875,"velocity":0.3937007874015748},{"duration":0.1875,"midi":57,"time":459.1875,"velocity":0.3937007874015748},{"duration":0.1875,"midi":86,"time":459.1875,"velocity":0.3937007874015748},{"duration":0.1875,"midi":50,"time":459.1875,"velocity":0.3937007874015748},{"duration":0.1875,"midi":69,"time":459.1875,"velocity":0.3937007874015748},{"duration":0.1875,"midi":74,"time":459.1875,"velocity":0.3937007874015748},{"duration":0.1875,"midi":26,"time":459.1875,"velocity":0.3937007874015748},{"duration":0.1875,"midi":81,"time":459.1875,"velocity":0.3937007874015748},{"duration":0.1875,"midi":93,"time":459.1875,"velocity":0.3937007874015748},{"duration":0.1875,"midi":35,"time":459.1875,"velocity":0.3937007874015748},{"duration":0.1875,"midi":62,"time":459.1875,"velocity":0.3937007874015748},{"duration":0.1875,"midi":38,"time":459.1875,"velocity":0.3937007874015748},{"duration":0.1875,"midi":36,"time":459.2109375,"velocity":0.3937007874015748},{"duration":0.1875,"midi":85,"time":459.2109375,"velocity":0.3937007874015748},{"duration":0.1875,"midi":84,"time":459.234375,"velocity":0.3937007874015748},{"duration":0.1875,"midi":37,"time":459.234375,"velocity":0.3937007874015748},{"duration":0.1875,"midi":83,"time":459.2578125,"velocity":0.3937007874015748},{"duration":0.1875,"midi":38,"time":459.2578125,"velocity":0.3937007874015748},{"duration":0.1875,"midi":39,"time":459.28125,"velocity":0.3937007874015748},{"duration":0.1875,"midi":82,"time":459.28125,"velocity":0.3937007874015748},{"duration":0.1875,"midi":81,"time":459.3046875,"velocity":0.3937007874015748},{"duration":0.1875,"midi":40,"time":459.3046875,"velocity":0.3937007874015748},{"duration":0.1875,"midi":80,"time":459.328125,"velocity":0.3937007874015748},{"duration":0.1875,"midi":41,"time":459.328125,"velocity":0.3937007874015748},{"duration":0.1875,"midi":79,"time":459.3515625,"velocity":0.3937007874015748},{"duration":0.1875,"midi":42,"time":459.3515625,"velocity":0.3937007874015748},{"duration":0.1875,"midi":70,"time":459.375,"velocity":0.3937007874015748},{"duration":0.1875,"midi":78,"time":459.375,"velocity":0.3937007874015748},{"duration":0.1875,"midi":25,"time":459.375,"velocity":0.3937007874015748},{"duration":0.1875,"midi":49,"time":459.375,"velocity":0.3937007874015748},{"duration":0.1875,"midi":46,"time":459.375,"velocity":0.3937007874015748},{"duration":0.1875,"midi":58,"time":459.375,"velocity":0.3937007874015748},{"duration":0.1875,"midi":73,"time":459.375,"velocity":0.3937007874015748},{"duration":0.1875,"midi":43,"time":459.375,"velocity":0.3937007874015748},{"duration":0.1875,"midi":37,"time":459.375,"velocity":0.3937007874015748},{"duration":0.1875,"midi":34,"time":459.375,"velocity":0.3937007874015748},{"duration":0.1875,"midi":82,"time":459.375,"velocity":0.3937007874015748},{"duration":0.1875,"midi":61,"time":459.375,"velocity":0.3937007874015748},{"duration":0.1875,"midi":94,"time":459.375,"velocity":0.3937007874015748},{"duration":0.1875,"midi":85,"time":459.375,"velocity":0.3937007874015748},{"duration":0.1875,"midi":44,"time":459.3984375,"velocity":0.3937007874015748},{"duration":0.1875,"midi":77,"time":459.3984375,"velocity":0.3937007874015748},{"duration":0.1875,"midi":45,"time":459.421875,"velocity":0.3937007874015748},{"duration":0.1875,"midi":76,"time":459.421875,"velocity":0.3937007874015748},{"duration":0.1875,"midi":46,"time":459.4453125,"velocity":0.3937007874015748},{"duration":0.1875,"midi":75,"time":459.4453125,"velocity":0.3937007874015748},{"duration":0.1875,"midi":74,"time":459.46875,"velocity":0.3937007874015748},{"duration":0.1875,"midi":47,"time":459.46875,"velocity":0.3937007874015748},{"duration":0.1875,"midi":73,"time":459.4921875,"velocity":0.3937007874015748},{"duration":0.1875,"midi":48,"time":459.4921875,"velocity":0.3937007874015748},{"duration":0.1875,"midi":49,"time":459.515625,"velocity":0.3937007874015748},{"duration":0.1875,"midi":72,"time":459.515625,"velocity":0.3937007874015748},{"duration":0.1875,"midi":50,"time":459.5390625,"velocity":0.3937007874015748},{"duration":0.1875,"midi":71,"time":459.5390625,"velocity":0.3937007874015748},{"duration":0.1875,"midi":35,"time":459.5625,"velocity":0.3937007874015748},{"duration":0.1875,"midi":59,"time":459.5625,"velocity":0.3937007874015748},{"duration":0.1875,"midi":84,"time":459.5625,"velocity":0.3937007874015748},{"duration":0.1875,"midi":95,"time":459.5625,"velocity":0.3937007874015748},{"duration":0.1875,"midi":51,"time":459.5625,"velocity":0.3937007874015748},{"duration":0.1875,"midi":71,"time":459.5625,"velocity":0.3937007874015748},{"duration":0.1875,"midi":24,"time":459.5625,"velocity":0.3937007874015748},{"duration":0.1875,"midi":36,"time":459.5625,"velocity":0.3937007874015748},{"duration":0.1875,"midi":48,"time":459.5625,"velocity":0.3937007874015748},{"duration":0.1875,"midi":83,"time":459.5625,"velocity":0.3937007874015748},{"duration":0.1875,"midi":60,"time":459.5625,"velocity":0.3937007874015748},{"duration":0.1875,"midi":70,"time":459.5625,"velocity":0.3937007874015748},{"duration":0.1875,"midi":47,"time":459.5625,"velocity":0.3937007874015748},{"duration":0.1875,"midi":72,"time":459.5625,"velocity":0.3937007874015748},{"duration":0.1875,"midi":52,"time":459.5859375,"velocity":0.3937007874015748},{"duration":0.1875,"midi":69,"time":459.5859375,"velocity":0.3937007874015748},{"duration":0.1875,"midi":53,"time":459.609375,"velocity":0.3937007874015748},{"duration":0.1875,"midi":68,"time":459.609375,"velocity":0.3937007874015748},{"duration":0.1875,"midi":67,"time":459.6328125,"velocity":0.3937007874015748},{"duration":0.1875,"midi":54,"time":459.6328125,"velocity":0.3937007874015748},{"duration":0.1875,"midi":66,"time":459.65625,"velocity":0.3937007874015748},{"duration":0.1875,"midi":55,"time":459.65625,"velocity":0.3937007874015748},{"duration":0.1875,"midi":65,"time":459.6796875,"velocity":0.3937007874015748},{"duration":0.1875,"midi":56,"time":459.6796875,"velocity":0.3937007874015748},{"duration":0.1875,"midi":57,"time":459.703125,"velocity":0.3937007874015748},{"duration":0.1875,"midi":64,"time":459.703125,"velocity":0.3937007874015748},{"duration":0.1875,"midi":63,"time":459.7265625,"velocity":0.3937007874015748},{"duration":0.1875,"midi":58,"time":459.7265625,"velocity":0.3937007874015748},{"duration":0.1875,"midi":95,"time":459.75,"velocity":0.3937007874015748},{"duration":0.1875,"midi":36,"time":459.75,"velocity":0.3937007874015748},{"duration":0.1875,"midi":24,"time":459.75,"velocity":0.3937007874015748},{"duration":0.1875,"midi":35,"time":459.75,"velocity":0.3937007874015748},{"duration":0.1875,"midi":59,"time":459.75,"velocity":0.3937007874015748},{"duration":0.1875,"midi":83,"time":459.75,"velocity":0.3937007874015748},{"duration":0.1875,"midi":48,"time":459.75,"velocity":0.3937007874015748},{"duration":0.1875,"midi":60,"time":459.75,"velocity":0.3937007874015748},{"duration":0.1875,"midi":71,"time":459.75,"velocity":0.3937007874015748},{"duration":0.1875,"midi":59,"time":459.75,"velocity":0.3937007874015748},{"duration":0.1875,"midi":84,"time":459.75,"velocity":0.3937007874015748},{"duration":0.1875,"midi":47,"time":459.75,"velocity":0.3937007874015748},{"duration":0.1875,"midi":72,"time":459.75,"velocity":0.3937007874015748},{"duration":0.1875,"midi":62,"time":459.75,"velocity":0.3937007874015748},{"duration":0.1875,"midi":60,"time":459.7734375,"velocity":0.3937007874015748},{"duration":0.1875,"midi":61,"time":459.7734375,"velocity":0.3937007874015748},{"duration":0.1875,"midi":60,"time":459.796875,"velocity":0.3937007874015748},{"duration":0.1875,"midi":61,"time":459.796875,"velocity":0.3937007874015748},{"duration":0.1875,"midi":62,"time":459.8203125,"velocity":0.3937007874015748},{"duration":0.1875,"midi":59,"time":459.8203125,"velocity":0.3937007874015748},{"duration":0.1875,"midi":58,"time":459.84375,"velocity":0.3937007874015748},{"duration":0.1875,"midi":63,"time":459.84375,"velocity":0.3937007874015748},{"duration":0.1875,"midi":57,"time":459.8671875,"velocity":0.3937007874015748},{"duration":0.1875,"midi":64,"time":459.8671875,"velocity":0.3937007874015748},{"duration":0.1875,"midi":65,"time":459.890625,"velocity":0.3937007874015748},{"duration":0.1875,"midi":56,"time":459.890625,"velocity":0.3937007874015748},{"duration":0.1875,"midi":55,"time":459.9140625,"velocity":0.3937007874015748},{"duration":0.1875,"midi":66,"time":459.9140625,"velocity":0.3937007874015748},{"duration":0.1875,"midi":82,"time":459.9375,"velocity":0.3937007874015748},{"duration":0.1875,"midi":85,"time":459.9375,"velocity":0.3937007874015748},{"duration":0.1875,"midi":73,"time":459.9375,"velocity":0.3937007874015748},{"duration":0.1875,"midi":49,"time":459.9375,"velocity":0.3937007874015748},{"duration":0.1875,"midi":34,"time":459.9375,"velocity":0.3937007874015748},{"duration":0.1875,"midi":58,"time":459.9375,"velocity":0.3937007874015748},{"duration":0.1875,"midi":46,"time":459.9375,"velocity":0.3937007874015748},{"duration":0.1875,"midi":25,"time":459.9375,"velocity":0.3937007874015748},{"duration":0.1875,"midi":70,"time":459.9375,"velocity":0.3937007874015748},{"duration":0.1875,"midi":54,"time":459.9375,"velocity":0.3937007874015748},{"duration":0.1875,"midi":37,"time":459.9375,"velocity":0.3937007874015748},{"duration":0.1875,"midi":61,"time":459.9375,"velocity":0.3937007874015748},{"duration":0.1875,"midi":67,"time":459.9375,"velocity":0.3937007874015748},{"duration":0.1875,"midi":94,"time":459.9375,"velocity":0.3937007874015748},{"duration":0.1875,"midi":68,"time":459.9609375,"velocity":0.3937007874015748},{"duration":0.1875,"midi":53,"time":459.9609375,"velocity":0.3937007874015748},{"duration":0.1875,"midi":52,"time":459.984375,"velocity":0.3937007874015748},{"duration":0.1875,"midi":69,"time":459.984375,"velocity":0.3937007874015748},{"duration":0.1875,"midi":51,"time":460.0078125,"velocity":0.3937007874015748},{"duration":0.1875,"midi":70,"time":460.0078125,"velocity":0.3937007874015748},{"duration":0.1875,"midi":50,"time":460.03125,"velocity":0.3937007874015748},{"duration":0.1875,"midi":71,"time":460.03125,"velocity":0.3937007874015748},{"duration":0.1875,"midi":49,"time":460.0546875,"velocity":0.3937007874015748},{"duration":0.1875,"midi":72,"time":460.0546875,"velocity":0.3937007874015748},{"duration":0.1875,"midi":73,"time":460.078125,"velocity":0.3937007874015748},{"duration":0.1875,"midi":48,"time":460.078125,"velocity":0.3937007874015748},{"duration":0.1875,"midi":74,"time":460.1015625,"velocity":0.3937007874015748},{"duration":0.1875,"midi":47,"time":460.1015625,"velocity":0.3937007874015748},{"duration":0.1875,"midi":38,"time":460.125,"velocity":0.3937007874015748},{"duration":0.1875,"midi":69,"time":460.125,"velocity":0.3937007874015748},{"duration":0.1875,"midi":75,"time":460.125,"velocity":0.3937007874015748},{"duration":0.1875,"midi":62,"time":460.125,"velocity":0.3937007874015748},{"duration":0.1875,"midi":46,"time":460.125,"velocity":0.3937007874015748},{"duration":0.1875,"midi":57,"time":460.125,"velocity":0.3937007874015748},{"duration":0.1875,"midi":26,"time":460.125,"velocity":0.3937007874015748},{"duration":0.1875,"midi":50,"time":460.125,"velocity":0.3937007874015748},{"duration":0.1875,"midi":86,"time":460.125,"velocity":0.3937007874015748},{"duration":0.1875,"midi":45,"time":460.125,"velocity":0.3937007874015748},{"duration":0.1875,"midi":81,"time":460.125,"velocity":0.3937007874015748},{"duration":0.1875,"midi":33,"time":460.125,"velocity":0.3937007874015748},{"duration":0.1875,"midi":93,"time":460.125,"velocity":0.3937007874015748},{"duration":0.1875,"midi":74,"time":460.125,"velocity":0.3937007874015748},{"duration":0.1875,"midi":45,"time":460.1484375,"velocity":0.3937007874015748},{"duration":0.1875,"midi":76,"time":460.1484375,"velocity":0.3937007874015748},{"duration":0.1875,"midi":44,"time":460.171875,"velocity":0.3937007874015748},{"duration":0.1875,"midi":77,"time":460.171875,"velocity":0.3937007874015748},{"duration":0.1875,"midi":78,"time":460.1953125,"velocity":0.3937007874015748},{"duration":0.1875,"midi":43,"time":460.1953125,"velocity":0.3937007874015748},{"duration":0.1875,"midi":79,"time":460.21875,"velocity":0.3937007874015748},{"duration":0.1875,"midi":42,"time":460.21875,"velocity":0.3937007874015748},{"duration":0.1875,"midi":41,"time":460.2421875,"velocity":0.3937007874015748},{"duration":0.1875,"midi":80,"time":460.2421875,"velocity":0.3937007874015748},{"duration":0.1875,"midi":81,"time":460.265625,"velocity":0.3937007874015748},{"duration":0.1875,"midi":40,"time":460.265625,"velocity":0.3937007874015748},{"duration":0.1875,"midi":82,"time":460.2890625,"velocity":0.3937007874015748},{"duration":0.1875,"midi":39,"time":460.2890625,"velocity":0.3937007874015748},{"duration":0.1875,"midi":87,"time":460.3125,"velocity":0.3937007874015748},{"duration":0.1875,"midi":27,"time":460.3125,"velocity":0.3937007874015748},{"duration":0.1875,"midi":92,"time":460.3125,"velocity":0.3937007874015748},{"duration":0.1875,"midi":80,"time":460.3125,"velocity":0.3937007874015748},{"duration":0.1875,"midi":32,"time":460.3125,"velocity":0.3937007874015748},{"duration":0.1875,"midi":56,"time":460.3125,"velocity":0.3937007874015748},{"duration":0.1875,"midi":83,"time":460.3125,"velocity":0.3937007874015748},{"duration":0.1875,"midi":63,"time":460.3125,"velocity":0.3937007874015748},{"duration":0.1875,"midi":68,"time":460.3125,"velocity":0.3937007874015748},{"duration":0.1875,"midi":38,"time":460.3125,"velocity":0.3937007874015748},{"duration":0.1875,"midi":44,"time":460.3125,"velocity":0.3937007874015748},{"duration":0.1875,"midi":51,"time":460.3125,"velocity":0.3937007874015748},{"duration":0.1875,"midi":39,"time":460.3125,"velocity":0.3937007874015748},{"duration":0.1875,"midi":75,"time":460.3125,"velocity":0.3937007874015748},{"duration":0.1875,"midi":37,"time":460.3359375,"velocity":0.3937007874015748},{"duration":0.1875,"midi":84,"time":460.3359375,"velocity":0.3937007874015748},{"duration":0.1875,"midi":85,"time":460.359375,"velocity":0.3937007874015748},{"duration":0.1875,"midi":36,"time":460.359375,"velocity":0.3937007874015748},{"duration":0.1875,"midi":86,"time":460.3828125,"velocity":0.3937007874015748},{"duration":0.1875,"midi":35,"time":460.3828125,"velocity":0.3937007874015748},{"duration":0.1875,"midi":87,"time":460.40625,"velocity":0.3937007874015748},{"duration":0.1875,"midi":34,"time":460.40625,"velocity":0.3937007874015748},{"duration":0.1875,"midi":33,"time":460.4296875,"velocity":0.3937007874015748},{"duration":0.1875,"midi":88,"time":460.4296875,"velocity":0.3937007874015748},{"duration":0.1875,"midi":32,"time":460.453125,"velocity":0.3937007874015748},{"duration":0.1875,"midi":89,"time":460.453125,"velocity":0.3937007874015748},{"duration":0.1875,"midi":90,"time":460.4765625,"velocity":0.3937007874015748},{"duration":0.1875,"midi":31,"time":460.4765625,"velocity":0.3937007874015748},{"duration":0.1875,"midi":55,"time":460.5,"velocity":0.3937007874015748},{"duration":0.1875,"midi":28,"time":460.5,"velocity":0.3937007874015748},{"duration":0.1875,"midi":67,"time":460.5,"velocity":0.3937007874015748},{"duration":0.1875,"midi":76,"time":460.5,"velocity":0.3937007874015748},{"duration":0.1875,"midi":28,"time":460.5,"velocity":0.3937007874015748},{"duration":0.1875,"midi":91,"time":460.5,"velocity":0.3937007874015748},{"duration":0.1875,"midi":79,"time":460.5,"velocity":0.3937007874015748},{"duration":0.1875,"midi":30,"time":460.5,"velocity":0.3937007874015748},{"duration":0.1875,"midi":93,"time":460.5,"velocity":0.3937007874015748},{"duration":0.1875,"midi":31,"time":460.5,"velocity":0.3937007874015748},{"duration":0.1875,"midi":43,"time":460.5,"velocity":0.3937007874015748},{"duration":0.1875,"midi":91,"time":460.5,"velocity":0.3937007874015748},{"duration":0.1875,"midi":52,"time":460.5,"velocity":0.3937007874015748},{"duration":0.1875,"midi":64,"time":460.5,"velocity":0.3937007874015748},{"duration":0.1875,"midi":88,"time":460.5,"velocity":0.3937007874015748},{"duration":0.1875,"midi":40,"time":460.5,"velocity":0.3937007874015748},{"duration":0.1875,"midi":29,"time":460.5234375,"velocity":0.3937007874015748},{"duration":0.1875,"midi":92,"time":460.5234375,"velocity":0.3937007874015748},{"duration":0.1875,"midi":30,"time":460.546875,"velocity":0.3937007874015748},{"duration":0.1875,"midi":91,"time":460.546875,"velocity":0.3937007874015748},{"duration":0.1875,"midi":31,"time":460.5703125,"velocity":0.3937007874015748},{"duration":0.1875,"midi":90,"time":460.5703125,"velocity":0.3937007874015748},{"duration":0.1875,"midi":32,"time":460.59375,"velocity":0.3937007874015748},{"duration":0.1875,"midi":89,"time":460.59375,"velocity":0.3937007874015748},{"duration":0.1875,"midi":33,"time":460.6171875,"velocity":0.3937007874015748},{"duration":0.1875,"midi":88,"time":460.6171875,"velocity":0.3937007874015748},{"duration":0.1875,"midi":87,"time":460.640625,"velocity":0.3937007874015748},{"duration":0.1875,"midi":34,"time":460.640625,"velocity":0.3937007874015748},{"duration":0.1875,"midi":86,"time":460.6640625,"velocity":0.3937007874015748},{"duration":0.1875,"midi":35,"time":460.6640625,"velocity":0.3937007874015748},{"duration":0.1875,"midi":66,"time":460.6875,"velocity":0.3937007874015748},{"duration":0.1875,"midi":65,"time":460.6875,"velocity":0.3937007874015748},{"duration":0.1875,"midi":54,"time":460.6875,"velocity":0.3937007874015748},{"duration":0.1875,"midi":85,"time":460.6875,"velocity":0.3937007874015748},{"duration":0.1875,"midi":42,"time":460.6875,"velocity":0.3937007874015748},{"duration":0.1875,"midi":36,"time":460.6875,"velocity":0.3937007874015748},{"duration":0.1875,"midi":41,"time":460.6875,"velocity":0.3937007874015748},{"duration":0.1875,"midi":53,"time":460.6875,"velocity":0.3937007874015748},{"duration":0.1875,"midi":78,"time":460.6875,"velocity":0.3937007874015748},{"duration":0.1875,"midi":89,"time":460.6875,"velocity":0.3937007874015748},{"duration":0.1875,"midi":29,"time":460.6875,"velocity":0.3937007874015748},{"duration":0.1875,"midi":90,"time":460.6875,"velocity":0.3937007874015748},{"duration":0.1875,"midi":30,"time":460.6875,"velocity":0.3937007874015748},{"duration":0.1875,"midi":77,"time":460.6875,"velocity":0.3937007874015748},{"duration":0.1875,"midi":37,"time":460.7109375,"velocity":0.3937007874015748},{"duration":0.1875,"midi":84,"time":460.7109375,"velocity":0.3937007874015748},{"duration":0.1875,"midi":38,"time":460.734375,"velocity":0.3937007874015748},{"duration":0.1875,"midi":83,"time":460.734375,"velocity":0.3937007874015748},{"duration":0.1875,"midi":82,"time":460.7578125,"velocity":0.3937007874015748},{"duration":0.1875,"midi":39,"time":460.7578125,"velocity":0.3937007874015748},{"duration":0.1875,"midi":81,"time":460.78125,"velocity":0.3937007874015748},{"duration":0.1875,"midi":40,"time":460.78125,"velocity":0.3937007874015748},{"duration":0.1875,"midi":41,"time":460.8046875,"velocity":0.3937007874015748},{"duration":0.1875,"midi":80,"time":460.8046875,"velocity":0.3937007874015748},{"duration":0.1875,"midi":79,"time":460.828125,"velocity":0.3937007874015748},{"duration":0.1875,"midi":42,"time":460.828125,"velocity":0.3937007874015748},{"duration":0.1875,"midi":78,"time":460.8515625,"velocity":0.3937007874015748},{"duration":0.1875,"midi":43,"time":460.8515625,"velocity":0.3937007874015748},{"duration":0.1875,"midi":30,"time":460.875,"velocity":0.3937007874015748},{"duration":0.1875,"midi":65,"time":460.875,"velocity":0.3937007874015748},{"duration":0.1875,"midi":42,"time":460.875,"velocity":0.3937007874015748},{"duration":0.1875,"midi":90,"time":460.875,"velocity":0.3937007874015748},{"duration":0.1875,"midi":54,"time":460.875,"velocity":0.3937007874015748},{"duration":0.1875,"midi":89,"time":460.875,"velocity":0.3937007874015748},{"duration":0.1875,"midi":41,"time":460.875,"velocity":0.3937007874015748},{"duration":0.1875,"midi":77,"time":460.875,"velocity":0.3937007874015748},{"duration":0.1875,"midi":78,"time":460.875,"velocity":0.3937007874015748},{"duration":0.1875,"midi":66,"time":460.875,"velocity":0.3937007874015748},{"duration":0.1875,"midi":44,"time":460.875,"velocity":0.3937007874015748},{"duration":0.1875,"midi":77,"time":460.875,"velocity":0.3937007874015748},{"duration":0.1875,"midi":53,"time":460.875,"velocity":0.3937007874015748},{"duration":0.1875,"midi":29,"time":460.875,"velocity":0.3937007874015748},{"duration":0.1875,"midi":45,"time":460.8984375,"velocity":0.3937007874015748},{"duration":0.1875,"midi":76,"time":460.8984375,"velocity":0.3937007874015748},{"duration":0.1875,"midi":75,"time":460.921875,"velocity":0.3937007874015748},{"duration":0.1875,"midi":46,"time":460.921875,"velocity":0.3937007874015748},{"duration":0.1875,"midi":47,"time":460.9453125,"velocity":0.3937007874015748},{"duration":0.1875,"midi":74,"time":460.9453125,"velocity":0.3937007874015748},{"duration":0.1875,"midi":48,"time":460.96875,"velocity":0.3937007874015748},{"duration":0.1875,"midi":73,"time":460.96875,"velocity":0.3937007874015748},{"duration":0.1875,"midi":49,"time":460.9921875,"velocity":0.3937007874015748},{"duration":0.1875,"midi":72,"time":460.9921875,"velocity":0.3937007874015748},{"duration":0.1875,"midi":71,"time":461.015625,"velocity":0.3937007874015748},{"duration":0.1875,"midi":50,"time":461.015625,"velocity":0.3937007874015748},{"duration":0.1875,"midi":51,"time":461.0390625,"velocity":0.3937007874015748},{"duration":0.1875,"midi":70,"time":461.0390625,"velocity":0.3937007874015748},{"duration":0.1875,"midi":69,"time":461.0625,"velocity":0.3937007874015748},{"duration":0.1875,"midi":55,"time":461.0625,"velocity":0.3937007874015748},{"duration":0.1875,"midi":52,"time":461.0625,"velocity":0.3937007874015748},{"duration":0.1875,"midi":28,"time":461.0625,"velocity":0.3937007874015748},{"duration":0.1875,"midi":91,"time":461.0625,"velocity":0.3937007874015748},{"duration":0.1875,"midi":79,"time":461.0625,"velocity":0.3937007874015748},{"duration":0.1875,"midi":31,"time":461.0625,"velocity":0.3937007874015748},{"duration":0.1875,"midi":43,"time":461.0625,"velocity":0.3937007874015748},{"duration":0.1875,"midi":52,"time":461.0625,"velocity":0.3937007874015748},{"duration":0.1875,"midi":88,"time":461.0625,"velocity":0.3937007874015748},{"duration":0.1875,"midi":67,"time":461.0625,"velocity":0.3937007874015748},{"duration":0.1875,"midi":76,"time":461.0625,"velocity":0.3937007874015748},{"duration":0.1875,"midi":64,"time":461.0625,"velocity":0.3937007874015748},{"duration":0.1875,"midi":40,"time":461.0625,"velocity":0.3937007874015748},{"duration":0.1875,"midi":53,"time":461.0859375,"velocity":0.3937007874015748},{"duration":0.1875,"midi":68,"time":461.0859375,"velocity":0.3937007874015748},{"duration":0.1875,"midi":54,"time":461.109375,"velocity":0.3937007874015748},{"duration":0.1875,"midi":67,"time":461.109375,"velocity":0.3937007874015748},{"duration":0.1875,"midi":66,"time":461.1328125,"velocity":0.3937007874015748},{"duration":0.1875,"midi":55,"time":461.1328125,"velocity":0.3937007874015748},{"duration":0.1875,"midi":56,"time":461.15625,"velocity":0.3937007874015748},{"duration":0.1875,"midi":65,"time":461.15625,"velocity":0.3937007874015748},{"duration":0.1875,"midi":64,"time":461.1796875,"velocity":0.3937007874015748},{"duration":0.1875,"midi":57,"time":461.1796875,"velocity":0.3937007874015748},{"duration":0.1875,"midi":58,"time":461.203125,"velocity":0.3937007874015748},{"duration":0.1875,"midi":63,"time":461.203125,"velocity":0.3937007874015748},{"duration":0.1875,"midi":62,"time":461.2265625,"velocity":0.3937007874015748},{"duration":0.1875,"midi":59,"time":461.2265625,"velocity":0.3937007874015748},{"duration":0.1875,"midi":68,"time":461.25,"velocity":0.3937007874015748},{"duration":0.1875,"midi":56,"time":461.25,"velocity":0.3937007874015748},{"duration":0.1875,"midi":75,"time":461.25,"velocity":0.3937007874015748},{"duration":0.1875,"midi":61,"time":461.25,"velocity":0.3937007874015748},{"duration":0.1875,"midi":39,"time":461.25,"velocity":0.3937007874015748},{"duration":0.1875,"midi":92,"time":461.25,"velocity":0.3937007874015748},{"duration":0.1875,"midi":80,"time":461.25,"velocity":0.3937007874015748},{"duration":0.1875,"midi":44,"time":461.25,"velocity":0.3937007874015748},{"duration":0.1875,"midi":87,"time":461.25,"velocity":0.3937007874015748},{"duration":0.1875,"midi":60,"time":461.25,"velocity":0.3937007874015748},{"duration":0.1875,"midi":63,"time":461.25,"velocity":0.3937007874015748},{"duration":0.1875,"midi":32,"time":461.25,"velocity":0.3937007874015748},{"duration":0.1875,"midi":51,"time":461.25,"velocity":0.3937007874015748},{"duration":0.1875,"midi":27,"time":461.25,"velocity":0.3937007874015748},{"duration":0.1875,"midi":61,"time":461.2734375,"velocity":0.3937007874015748},{"duration":0.1875,"midi":60,"time":461.2734375,"velocity":0.3937007874015748},{"duration":0.1875,"midi":59,"time":461.296875,"velocity":0.3937007874015748},{"duration":0.1875,"midi":62,"time":461.296875,"velocity":0.3937007874015748},{"duration":0.1875,"midi":58,"time":461.3203125,"velocity":0.3937007874015748},{"duration":0.1875,"midi":63,"time":461.3203125,"velocity":0.3937007874015748},{"duration":0.1875,"midi":64,"time":461.34375,"velocity":0.3937007874015748},{"duration":0.1875,"midi":57,"time":461.34375,"velocity":0.3937007874015748},{"duration":0.1875,"midi":56,"time":461.3671875,"velocity":0.3937007874015748},{"duration":0.1875,"midi":65,"time":461.3671875,"velocity":0.3937007874015748},{"duration":0.1875,"midi":66,"time":461.390625,"velocity":0.3937007874015748},{"duration":0.1875,"midi":55,"time":461.390625,"velocity":0.3937007874015748},{"duration":0.1875,"midi":67,"time":461.4140625,"velocity":0.3937007874015748},{"duration":0.1875,"midi":54,"time":461.4140625,"velocity":0.3937007874015748},{"duration":0.1875,"midi":62,"time":461.4375,"velocity":0.3937007874015748},{"duration":0.1875,"midi":68,"time":461.4375,"velocity":0.3937007874015748},{"duration":0.1875,"midi":74,"time":461.4375,"velocity":0.3937007874015748},{"duration":0.1875,"midi":93,"time":461.4375,"velocity":0.3937007874015748},{"duration":0.1875,"midi":53,"time":461.4375,"velocity":0.3937007874015748},{"duration":0.1875,"midi":81,"time":461.4375,"velocity":0.3937007874015748},{"duration":0.1875,"midi":86,"time":461.4375,"velocity":0.3937007874015748},{"duration":0.1875,"midi":26,"time":461.4375,"velocity":0.3937007874015748},{"duration":0.1875,"midi":50,"time":461.4375,"velocity":0.3937007874015748},{"duration":0.1875,"midi":69,"time":461.4375,"velocity":0.3937007874015748},{"duration":0.1875,"midi":38,"time":461.4375,"velocity":0.3937007874015748},{"duration":0.1875,"midi":33,"time":461.4375,"velocity":0.3937007874015748},{"duration":0.1875,"midi":57,"time":461.4375,"velocity":0.3937007874015748},{"duration":0.1875,"midi":45,"time":461.4375,"velocity":0.3937007874015748},{"duration":0.1875,"midi":52,"time":461.4609375,"velocity":0.3937007874015748},{"duration":0.1875,"midi":69,"time":461.4609375,"velocity":0.3937007874015748},{"duration":0.1875,"midi":51,"time":461.484375,"velocity":0.3937007874015748},{"duration":0.1875,"midi":70,"time":461.484375,"velocity":0.3937007874015748},{"duration":0.1875,"midi":71,"time":461.5078125,"velocity":0.3937007874015748},{"duration":0.1875,"midi":50,"time":461.5078125,"velocity":0.3937007874015748},{"duration":0.1875,"midi":49,"time":461.53125,"velocity":0.3937007874015748},{"duration":0.1875,"midi":72,"time":461.53125,"velocity":0.3937007874015748},{"duration":0.1875,"midi":48,"time":461.5546875,"velocity":0.3937007874015748},{"duration":0.1875,"midi":73,"time":461.5546875,"velocity":0.3937007874015748},{"duration":0.1875,"midi":74,"time":461.578125,"velocity":0.3937007874015748},{"duration":0.1875,"midi":47,"time":461.578125,"velocity":0.3937007874015748},{"duration":0.1875,"midi":75,"time":461.6015625,"velocity":0.3937007874015748},{"duration":0.1875,"midi":46,"time":461.6015625,"velocity":0.3937007874015748},{"duration":0.1875,"midi":58,"time":461.625,"velocity":0.3937007874015748},{"duration":0.1875,"midi":46,"time":461.625,"velocity":0.3937007874015748},{"duration":0.1875,"midi":73,"time":461.625,"velocity":0.3937007874015748},{"duration":0.1875,"midi":37,"time":461.625,"velocity":0.3937007874015748},{"duration":0.1875,"midi":85,"time":461.625,"velocity":0.3937007874015748},{"duration":0.1875,"midi":45,"time":461.625,"velocity":0.3937007874015748},{"duration":0.1875,"midi":94,"time":461.625,"velocity":0.3937007874015748},{"duration":0.1875,"midi":82,"time":461.625,"velocity":0.3937007874015748},{"duration":0.1875,"midi":70,"time":461.625,"velocity":0.3937007874015748},{"duration":0.1875,"midi":61,"time":461.625,"velocity":0.3937007874015748},{"duration":0.1875,"midi":34,"time":461.625,"velocity":0.3937007874015748},{"duration":0.1875,"midi":25,"time":461.625,"velocity":0.3937007874015748},{"duration":0.1875,"midi":76,"time":461.625,"velocity":0.3937007874015748},{"duration":0.1875,"midi":49,"time":461.625,"velocity":0.3937007874015748},{"duration":0.1875,"midi":77,"time":461.6484375,"velocity":0.3937007874015748},{"duration":0.1875,"midi":44,"time":461.6484375,"velocity":0.3937007874015748},{"duration":0.1875,"midi":43,"time":461.671875,"velocity":0.3937007874015748},{"duration":0.1875,"midi":78,"time":461.671875,"velocity":0.3937007874015748},{"duration":0.1875,"midi":42,"time":461.6953125,"velocity":0.3937007874015748},{"duration":0.1875,"midi":79,"time":461.6953125,"velocity":0.3937007874015748},{"duration":0.1875,"midi":80,"time":461.71875,"velocity":0.3937007874015748},{"duration":0.1875,"midi":41,"time":461.71875,"velocity":0.3937007874015748},{"duration":0.1875,"midi":40,"time":461.7421875,"velocity":0.3937007874015748},{"duration":0.1875,"midi":81,"time":461.7421875,"velocity":0.3937007874015748},{"duration":0.1875,"midi":39,"time":461.765625,"velocity":0.3937007874015748},{"duration":0.1875,"midi":82,"time":461.765625,"velocity":0.3937007874015748},{"duration":0.1875,"midi":38,"time":461.7890625,"velocity":0.3937007874015748},{"duration":0.1875,"midi":83,"time":461.7890625,"velocity":0.3937007874015748},{"duration":0.1875,"midi":36,"time":461.8125,"velocity":0.3937007874015748},{"duration":0.1875,"midi":47,"time":461.8125,"velocity":0.3937007874015748},{"duration":0.1875,"midi":48,"time":461.8125,"velocity":0.3937007874015748},{"duration":0.1875,"midi":24,"time":461.8125,"velocity":0.3937007874015748},{"duration":0.1875,"midi":37,"time":461.8125,"velocity":0.3937007874015748},{"duration":0.1875,"midi":59,"time":461.8125,"velocity":0.3937007874015748},{"duration":0.1875,"midi":95,"time":461.8125,"velocity":0.3937007874015748},{"duration":0.1875,"midi":83,"time":461.8125,"velocity":0.3937007874015748},{"duration":0.1875,"midi":35,"time":461.8125,"velocity":0.3937007874015748},{"duration":0.1875,"midi":72,"time":461.8125,"velocity":0.3937007874015748},{"duration":0.1875,"midi":60,"time":461.8125,"velocity":0.3937007874015748},{"duration":0.1875,"midi":84,"time":461.8125,"velocity":0.3937007874015748},{"duration":0.1875,"midi":84,"time":461.8125,"velocity":0.3937007874015748},{"duration":0.1875,"midi":71,"time":461.8125,"velocity":0.3937007874015748},{"duration":0.1875,"midi":85,"time":461.8359375,"velocity":0.3937007874015748},{"duration":0.1875,"midi":36,"time":461.8359375,"velocity":0.3937007874015748},{"duration":0.1875,"midi":35,"time":461.859375,"velocity":0.3937007874015748},{"duration":0.1875,"midi":86,"time":461.859375,"velocity":0.3937007874015748},{"duration":0.1875,"midi":87,"time":461.8828125,"velocity":0.3937007874015748},{"duration":0.1875,"midi":34,"time":461.8828125,"velocity":0.3937007874015748},{"duration":0.1875,"midi":88,"time":461.90625,"velocity":0.3937007874015748},{"duration":0.1875,"midi":33,"time":461.90625,"velocity":0.3937007874015748},{"duration":0.1875,"midi":89,"time":461.9296875,"velocity":0.3937007874015748},{"duration":0.1875,"midi":32,"time":461.9296875,"velocity":0.3937007874015748},{"duration":0.1875,"midi":31,"time":461.953125,"velocity":0.3937007874015748},{"duration":0.1875,"midi":90,"time":461.953125,"velocity":0.3937007874015748},{"duration":0.1875,"midi":91,"time":461.9765625,"velocity":0.3937007874015748},{"duration":0.1875,"midi":30,"time":461.9765625,"velocity":0.3937007874015748},{"duration":0.1875,"midi":93,"time":462,"velocity":0.3937007874015748},{"duration":0.1875,"midi":35,"time":462,"velocity":0.3937007874015748},{"duration":0.1875,"midi":71,"time":462,"velocity":0.3937007874015748},{"duration":0.1875,"midi":84,"time":462,"velocity":0.3937007874015748},{"duration":0.1875,"midi":28,"time":462,"velocity":0.3937007874015748},{"duration":0.1875,"midi":48,"time":462,"velocity":0.3937007874015748},{"duration":0.1875,"midi":59,"time":462,"velocity":0.3937007874015748},{"duration":0.1875,"midi":60,"time":462,"velocity":0.3937007874015748},{"duration":0.1875,"midi":47,"time":462,"velocity":0.3937007874015748},{"duration":0.1875,"midi":83,"time":462,"velocity":0.3937007874015748},{"duration":0.1875,"midi":36,"time":462,"velocity":0.3937007874015748},{"duration":0.1875,"midi":24,"time":462,"velocity":0.3937007874015748},{"duration":0.1875,"midi":72,"time":462,"velocity":0.3937007874015748},{"duration":0.1875,"midi":95,"time":462,"velocity":0.3937007874015748},{"duration":0.1875,"midi":92,"time":462.0234375,"velocity":0.3937007874015748},{"duration":0.1875,"midi":29,"time":462.0234375,"velocity":0.3937007874015748},{"duration":0.1875,"midi":91,"time":462.046875,"velocity":0.3937007874015748},{"duration":0.1875,"midi":30,"time":462.046875,"velocity":0.3937007874015748},{"duration":0.1875,"midi":31,"time":462.0703125,"velocity":0.3937007874015748},{"duration":0.1875,"midi":90,"time":462.0703125,"velocity":0.3937007874015748},{"duration":0.1875,"midi":32,"time":462.09375,"velocity":0.3937007874015748},{"duration":0.1875,"midi":89,"time":462.09375,"velocity":0.3937007874015748},{"duration":0.1875,"midi":88,"time":462.1171875,"velocity":0.3937007874015748},{"duration":0.1875,"midi":33,"time":462.1171875,"velocity":0.3937007874015748},{"duration":0.1875,"midi":87,"time":462.140625,"velocity":0.3937007874015748},{"duration":0.1875,"midi":34,"time":462.140625,"velocity":0.3937007874015748},{"duration":0.1875,"midi":86,"time":462.1640625,"velocity":0.3937007874015748},{"duration":0.1875,"midi":35,"time":462.1640625,"velocity":0.3937007874015748},{"duration":0.1875,"midi":82,"time":462.1875,"velocity":0.3937007874015748},{"duration":0.1875,"midi":46,"time":462.1875,"velocity":0.3937007874015748},{"duration":0.1875,"midi":34,"time":462.1875,"velocity":0.3937007874015748},{"duration":0.1875,"midi":85,"time":462.1875,"velocity":0.3937007874015748},{"duration":0.1875,"midi":49,"time":462.1875,"velocity":0.3937007874015748},{"duration":0.1875,"midi":61,"time":462.1875,"velocity":0.3937007874015748},{"duration":0.1875,"midi":73,"time":462.1875,"velocity":0.3937007874015748},{"duration":0.1875,"midi":94,"time":462.1875,"velocity":0.3937007874015748},{"duration":0.1875,"midi":25,"time":462.1875,"velocity":0.3937007874015748},{"duration":0.1875,"midi":36,"time":462.1875,"velocity":0.3937007874015748},{"duration":0.1875,"midi":85,"time":462.1875,"velocity":0.3937007874015748},{"duration":0.1875,"midi":70,"time":462.1875,"velocity":0.3937007874015748},{"duration":0.1875,"midi":58,"time":462.1875,"velocity":0.3937007874015748},{"duration":0.1875,"midi":37,"time":462.1875,"velocity":0.3937007874015748},{"duration":0.1875,"midi":37,"time":462.2109375,"velocity":0.3937007874015748},{"duration":0.1875,"midi":84,"time":462.2109375,"velocity":0.3937007874015748},{"duration":0.1875,"midi":38,"time":462.234375,"velocity":0.3937007874015748},{"duration":0.1875,"midi":83,"time":462.234375,"velocity":0.3937007874015748},{"duration":0.1875,"midi":39,"time":462.2578125,"velocity":0.3937007874015748},{"duration":0.1875,"midi":82,"time":462.2578125,"velocity":0.3937007874015748},{"duration":0.1875,"midi":81,"time":462.28125,"velocity":0.3937007874015748},{"duration":0.1875,"midi":40,"time":462.28125,"velocity":0.3937007874015748},{"duration":0.1875,"midi":80,"time":462.3046875,"velocity":0.3937007874015748},{"duration":0.1875,"midi":41,"time":462.3046875,"velocity":0.3937007874015748},{"duration":0.1875,"midi":79,"time":462.328125,"velocity":0.3937007874015748},{"duration":0.1875,"midi":42,"time":462.328125,"velocity":0.3937007874015748},{"duration":0.1875,"midi":43,"time":462.3515625,"velocity":0.3937007874015748},{"duration":0.1875,"midi":78,"time":462.3515625,"velocity":0.3937007874015748},{"duration":0.1875,"midi":44,"time":462.375,"velocity":0.3937007874015748},{"duration":0.1875,"midi":86,"time":462.375,"velocity":0.3937007874015748},{"duration":0.1875,"midi":45,"time":462.375,"velocity":0.3937007874015748},{"duration":0.1875,"midi":50,"time":462.375,"velocity":0.3937007874015748},{"duration":0.1875,"midi":77,"time":462.375,"velocity":0.3937007874015748},{"duration":0.1875,"midi":38,"time":462.375,"velocity":0.3937007874015748},{"duration":0.1875,"midi":57,"time":462.375,"velocity":0.3937007874015748},{"duration":0.1875,"midi":26,"time":462.375,"velocity":0.3937007874015748},{"duration":0.1875,"midi":93,"time":462.375,"velocity":0.3937007874015748},{"duration":0.1875,"midi":69,"time":462.375,"velocity":0.3937007874015748},{"duration":0.1875,"midi":81,"time":462.375,"velocity":0.3937007874015748},{"duration":0.1875,"midi":62,"time":462.375,"velocity":0.3937007874015748},{"duration":0.1875,"midi":74,"time":462.375,"velocity":0.3937007874015748},{"duration":0.1875,"midi":33,"time":462.375,"velocity":0.3937007874015748},{"duration":0.1875,"midi":45,"time":462.3984375,"velocity":0.3937007874015748},{"duration":0.1875,"midi":76,"time":462.3984375,"velocity":0.3937007874015748},{"duration":0.1875,"midi":75,"time":462.421875,"velocity":0.3937007874015748},{"duration":0.1875,"midi":46,"time":462.421875,"velocity":0.3937007874015748},{"duration":0.1875,"midi":74,"time":462.4453125,"velocity":0.3937007874015748},{"duration":0.1875,"midi":47,"time":462.4453125,"velocity":0.3937007874015748},{"duration":0.1875,"midi":48,"time":462.46875,"velocity":0.3937007874015748},{"duration":0.1875,"midi":73,"time":462.46875,"velocity":0.3937007874015748},{"duration":0.1875,"midi":72,"time":462.4921875,"velocity":0.3937007874015748},{"duration":0.1875,"midi":49,"time":462.4921875,"velocity":0.3937007874015748},{"duration":0.1875,"midi":50,"time":462.515625,"velocity":0.3937007874015748},{"duration":0.1875,"midi":71,"time":462.515625,"velocity":0.3937007874015748},{"duration":0.1875,"midi":70,"time":462.5390625,"velocity":0.3937007874015748},{"duration":0.1875,"midi":51,"time":462.5390625,"velocity":0.3937007874015748},{"duration":0.1875,"midi":27,"time":462.5625,"velocity":0.3937007874015748},{"duration":0.1875,"midi":87,"time":462.5625,"velocity":0.3937007874015748},{"duration":0.1875,"midi":39,"time":462.5625,"velocity":0.3937007874015748},{"duration":0.1875,"midi":92,"time":462.5625,"velocity":0.3937007874015748},{"duration":0.1875,"midi":32,"time":462.5625,"velocity":0.3937007874015748},{"duration":0.1875,"midi":63,"time":462.5625,"velocity":0.3937007874015748},{"duration":0.1875,"midi":52,"time":462.5625,"velocity":0.3937007874015748},{"duration":0.1875,"midi":68,"time":462.5625,"velocity":0.3937007874015748},{"duration":0.1875,"midi":69,"time":462.5625,"velocity":0.3937007874015748},{"duration":0.1875,"midi":44,"time":462.5625,"velocity":0.3937007874015748},{"duration":0.1875,"midi":80,"time":462.5625,"velocity":0.3937007874015748},{"duration":0.1875,"midi":75,"time":462.5625,"velocity":0.3937007874015748},{"duration":0.1875,"midi":56,"time":462.5625,"velocity":0.3937007874015748},{"duration":0.1875,"midi":51,"time":462.5625,"velocity":0.3937007874015748},{"duration":0.1875,"midi":68,"time":462.5859375,"velocity":0.3937007874015748},{"duration":0.1875,"midi":53,"time":462.5859375,"velocity":0.3937007874015748},{"duration":0.1875,"midi":67,"time":462.609375,"velocity":0.3937007874015748},{"duration":0.1875,"midi":54,"time":462.609375,"velocity":0.3937007874015748},{"duration":0.1875,"midi":66,"time":462.6328125,"velocity":0.3937007874015748},{"duration":0.1875,"midi":55,"time":462.6328125,"velocity":0.3937007874015748},{"duration":0.1875,"midi":56,"time":462.65625,"velocity":0.3937007874015748},{"duration":0.1875,"midi":65,"time":462.65625,"velocity":0.3937007874015748},{"duration":0.1875,"midi":64,"time":462.6796875,"velocity":0.3937007874015748},{"duration":0.1875,"midi":57,"time":462.6796875,"velocity":0.3937007874015748},{"duration":0.1875,"midi":63,"time":462.703125,"velocity":0.3937007874015748},{"duration":0.1875,"midi":58,"time":462.703125,"velocity":0.3937007874015748},{"duration":0.1875,"midi":59,"time":462.7265625,"velocity":0.3937007874015748},{"duration":0.1875,"midi":62,"time":462.7265625,"velocity":0.3937007874015748},{"duration":0.1875,"midi":60,"time":462.75,"velocity":0.3937007874015748},{"duration":0.1875,"midi":91,"time":462.75,"velocity":0.3937007874015748},{"duration":0.1875,"midi":52,"time":462.75,"velocity":0.3937007874015748},{"duration":0.1875,"midi":76,"time":462.75,"velocity":0.3937007874015748},{"duration":0.1875,"midi":79,"time":462.75,"velocity":0.3937007874015748},{"duration":0.1875,"midi":67,"time":462.75,"velocity":0.3937007874015748},{"duration":0.1875,"midi":88,"time":462.75,"velocity":0.3937007874015748},{"duration":0.1875,"midi":55,"time":462.75,"velocity":0.3937007874015748},{"duration":0.1875,"midi":64,"time":462.75,"velocity":0.3937007874015748},{"duration":0.1875,"midi":28,"time":462.75,"velocity":0.3937007874015748},{"duration":0.1875,"midi":43,"time":462.75,"velocity":0.3937007874015748},{"duration":0.1875,"midi":40,"time":462.75,"velocity":0.3937007874015748},{"duration":0.1875,"midi":31,"time":462.75,"velocity":0.3937007874015748},{"duration":0.1875,"midi":61,"time":462.75,"velocity":0.3937007874015748},{"duration":0.1875,"midi":61,"time":462.7734375,"velocity":0.3937007874015748},{"duration":0.1875,"midi":60,"time":462.7734375,"velocity":0.3937007874015748},{"duration":0.1875,"midi":59,"time":462.796875,"velocity":0.3937007874015748},{"duration":0.1875,"midi":62,"time":462.796875,"velocity":0.3937007874015748},{"duration":0.1875,"midi":58,"time":462.8203125,"velocity":0.3937007874015748},{"duration":0.1875,"midi":63,"time":462.8203125,"velocity":0.3937007874015748},{"duration":0.1875,"midi":57,"time":462.84375,"velocity":0.3937007874015748},{"duration":0.1875,"midi":64,"time":462.84375,"velocity":0.3937007874015748},{"duration":0.1875,"midi":56,"time":462.8671875,"velocity":0.3937007874015748},{"duration":0.1875,"midi":65,"time":462.8671875,"velocity":0.3937007874015748},{"duration":0.1875,"midi":66,"time":462.890625,"velocity":0.3937007874015748},{"duration":0.1875,"midi":55,"time":462.890625,"velocity":0.3937007874015748},{"duration":0.1875,"midi":54,"time":462.9140625,"velocity":0.3937007874015748},{"duration":0.1875,"midi":67,"time":462.9140625,"velocity":0.3937007874015748},{"duration":0.1875,"midi":54,"time":462.9375,"velocity":0.3937007874015748},{"duration":0.1875,"midi":77,"time":462.9375,"velocity":0.3937007874015748},{"duration":0.1875,"midi":29,"time":462.9375,"velocity":0.3937007874015748},{"duration":0.1875,"midi":30,"time":462.9375,"velocity":0.3937007874015748},{"duration":0.1875,"midi":41,"time":462.9375,"velocity":0.3937007874015748},{"duration":0.1875,"midi":68,"time":462.9375,"velocity":0.3937007874015748},{"duration":0.1875,"midi":78,"time":462.9375,"velocity":0.3937007874015748},{"duration":0.1875,"midi":66,"time":462.9375,"velocity":0.3937007874015748},{"duration":0.1875,"midi":90,"time":462.9375,"velocity":0.3937007874015748},{"duration":0.1875,"midi":89,"time":462.9375,"velocity":0.3937007874015748},{"duration":0.1875,"midi":42,"time":462.9375,"velocity":0.3937007874015748},{"duration":0.1875,"midi":53,"time":462.9375,"velocity":0.3937007874015748},{"duration":0.1875,"midi":53,"time":462.9375,"velocity":0.3937007874015748},{"duration":0.1875,"midi":65,"time":462.9375,"velocity":0.3937007874015748},{"duration":0.1875,"midi":69,"time":462.9609375,"velocity":0.3937007874015748},{"duration":0.1875,"midi":52,"time":462.9609375,"velocity":0.3937007874015748},{"duration":0.1875,"midi":70,"time":462.984375,"velocity":0.3937007874015748},{"duration":0.1875,"midi":51,"time":462.984375,"velocity":0.3937007874015748},{"duration":0.1875,"midi":71,"time":463.0078125,"velocity":0.3937007874015748},{"duration":0.1875,"midi":50,"time":463.0078125,"velocity":0.3937007874015748},{"duration":0.1875,"midi":49,"time":463.03125,"velocity":0.3937007874015748},{"duration":0.1875,"midi":72,"time":463.03125,"velocity":0.3937007874015748},{"duration":0.1875,"midi":48,"time":463.0546875,"velocity":0.3937007874015748},{"duration":0.1875,"midi":73,"time":463.0546875,"velocity":0.3937007874015748},{"duration":0.1875,"midi":47,"time":463.078125,"velocity":0.3937007874015748},{"duration":0.1875,"midi":74,"time":463.078125,"velocity":0.3937007874015748},{"duration":0.1875,"midi":75,"time":463.1015625,"velocity":0.3937007874015748},{"duration":0.1875,"midi":46,"time":463.1015625,"velocity":0.3937007874015748},{"duration":0.1875,"midi":54,"time":463.125,"velocity":0.3937007874015748},{"duration":0.1875,"midi":41,"time":463.125,"velocity":0.3937007874015748},{"duration":0.1875,"midi":30,"time":463.125,"velocity":0.3937007874015748},{"duration":0.1875,"midi":53,"time":463.125,"velocity":0.3937007874015748},{"duration":0.1875,"midi":66,"time":463.125,"velocity":0.3937007874015748},{"duration":0.1875,"midi":77,"time":463.125,"velocity":0.3937007874015748},{"duration":0.1875,"midi":89,"time":463.125,"velocity":0.3937007874015748},{"duration":0.1875,"midi":78,"time":463.125,"velocity":0.3937007874015748},{"duration":0.1875,"midi":76,"time":463.125,"velocity":0.3937007874015748},{"duration":0.1875,"midi":45,"time":463.125,"velocity":0.3937007874015748},{"duration":0.1875,"midi":29,"time":463.125,"velocity":0.3937007874015748},{"duration":0.1875,"midi":65,"time":463.125,"velocity":0.3937007874015748},{"duration":0.1875,"midi":90,"time":463.125,"velocity":0.3937007874015748},{"duration":0.1875,"midi":42,"time":463.125,"velocity":0.3937007874015748},{"duration":0.1875,"midi":77,"time":463.1484375,"velocity":0.3937007874015748},{"duration":0.1875,"midi":44,"time":463.1484375,"velocity":0.3937007874015748},{"duration":0.1875,"midi":43,"time":463.171875,"velocity":0.3937007874015748},{"duration":0.1875,"midi":78,"time":463.171875,"velocity":0.3937007874015748},{"duration":0.1875,"midi":79,"time":463.1953125,"velocity":0.3937007874015748},{"duration":0.1875,"midi":42,"time":463.1953125,"velocity":0.3937007874015748},{"duration":0.1875,"midi":41,"time":463.21875,"velocity":0.3937007874015748},{"duration":0.1875,"midi":80,"time":463.21875,"velocity":0.3937007874015748},{"duration":0.1875,"midi":40,"time":463.2421875,"velocity":0.3937007874015748},{"duration":0.1875,"midi":81,"time":463.2421875,"velocity":0.3937007874015748},{"duration":0.1875,"midi":82,"time":463.265625,"velocity":0.3937007874015748},{"duration":0.1875,"midi":39,"time":463.265625,"velocity":0.3937007874015748},{"duration":0.1875,"midi":38,"time":463.2890625,"velocity":0.3937007874015748},{"duration":0.1875,"midi":83,"time":463.2890625,"velocity":0.3937007874015748},{"duration":0.1875,"midi":28,"time":463.3125,"velocity":0.3937007874015748},{"duration":0.1875,"midi":88,"time":463.3125,"velocity":0.3937007874015748},{"duration":0.1875,"midi":76,"time":463.3125,"velocity":0.3937007874015748},{"duration":0.1875,"midi":64,"time":463.3125,"velocity":0.3937007874015748},{"duration":0.1875,"midi":52,"time":463.3125,"velocity":0.3937007874015748},{"duration":0.1875,"midi":79,"time":463.3125,"velocity":0.3937007874015748},{"duration":0.1875,"midi":43,"time":463.3125,"velocity":0.3937007874015748},{"duration":0.1875,"midi":31,"time":463.3125,"velocity":0.3937007874015748},{"duration":0.1875,"midi":84,"time":463.3125,"velocity":0.3937007874015748},{"duration":0.1875,"midi":40,"time":463.3125,"velocity":0.3937007874015748},{"duration":0.1875,"midi":91,"time":463.3125,"velocity":0.3937007874015748},{"duration":0.1875,"midi":37,"time":463.3125,"velocity":0.3937007874015748},{"duration":0.1875,"midi":55,"time":463.3125,"velocity":0.3937007874015748},{"duration":0.1875,"midi":67,"time":463.3125,"velocity":0.3937007874015748},{"duration":0.1875,"midi":36,"time":463.3359375,"velocity":0.3937007874015748},{"duration":0.1875,"midi":85,"time":463.3359375,"velocity":0.3937007874015748},{"duration":0.1875,"midi":35,"time":463.359375,"velocity":0.3937007874015748},{"duration":0.1875,"midi":86,"time":463.359375,"velocity":0.3937007874015748},{"duration":0.1875,"midi":87,"time":463.3828125,"velocity":0.3937007874015748},{"duration":0.1875,"midi":34,"time":463.3828125,"velocity":0.3937007874015748},{"duration":0.1875,"midi":33,"time":463.40625,"velocity":0.3937007874015748},{"duration":0.1875,"midi":88,"time":463.40625,"velocity":0.3937007874015748},{"duration":0.1875,"midi":32,"time":463.4296875,"velocity":0.3937007874015748},{"duration":0.1875,"midi":89,"time":463.4296875,"velocity":0.3937007874015748},{"duration":0.1875,"midi":90,"time":463.453125,"velocity":0.3937007874015748},{"duration":0.1875,"midi":31,"time":463.453125,"velocity":0.3937007874015748},{"duration":0.1875,"midi":91,"time":463.4765625,"velocity":0.3937007874015748},{"duration":0.1875,"midi":30,"time":463.4765625,"velocity":0.3937007874015748},{"duration":0.1875,"midi":32,"time":463.5,"velocity":0.3937007874015748},{"duration":0.1875,"midi":28,"time":463.5,"velocity":0.3937007874015748},{"duration":0.1875,"midi":92,"time":463.5,"velocity":0.3937007874015748},{"duration":0.1875,"midi":56,"time":463.5,"velocity":0.3937007874015748},{"duration":0.1875,"midi":27,"time":463.5,"velocity":0.3937007874015748},{"duration":0.1875,"midi":68,"time":463.5,"velocity":0.3937007874015748},{"duration":0.1875,"midi":87,"time":463.5,"velocity":0.3937007874015748},{"duration":0.1875,"midi":51,"time":463.5,"velocity":0.3937007874015748},{"duration":0.1875,"midi":63,"time":463.5,"velocity":0.3937007874015748},{"duration":0.1875,"midi":39,"time":463.5,"velocity":0.3937007874015748},{"duration":0.1875,"midi":75,"time":463.5,"velocity":0.3937007874015748},{"duration":0.1875,"midi":80,"time":463.5,"velocity":0.3937007874015748},{"duration":0.1875,"midi":93,"time":463.5,"velocity":0.3937007874015748},{"duration":0.1875,"midi":44,"time":463.5,"velocity":0.3937007874015748},{"duration":0.1875,"midi":29,"time":463.5234375,"velocity":0.3937007874015748},{"duration":0.1875,"midi":92,"time":463.5234375,"velocity":0.3937007874015748},{"duration":0.1875,"midi":91,"time":463.546875,"velocity":0.3937007874015748},{"duration":0.1875,"midi":30,"time":463.546875,"velocity":0.3937007874015748},{"duration":0.1875,"midi":90,"time":463.5703125,"velocity":0.3937007874015748},{"duration":0.1875,"midi":31,"time":463.5703125,"velocity":0.3937007874015748},{"duration":0.1875,"midi":89,"time":463.59375,"velocity":0.3937007874015748},{"duration":0.1875,"midi":32,"time":463.59375,"velocity":0.3937007874015748},{"duration":0.1875,"midi":33,"time":463.6171875,"velocity":0.3937007874015748},{"duration":0.1875,"midi":88,"time":463.6171875,"velocity":0.3937007874015748},{"duration":0.1875,"midi":87,"time":463.640625,"velocity":0.3937007874015748},{"duration":0.1875,"midi":34,"time":463.640625,"velocity":0.3937007874015748},{"duration":0.1875,"midi":86,"time":463.6640625,"velocity":0.3937007874015748},{"duration":0.1875,"midi":35,"time":463.6640625,"velocity":0.3937007874015748},{"duration":0.1875,"midi":45,"time":463.6875,"velocity":0.3937007874015748},{"duration":0.1875,"midi":50,"time":463.6875,"velocity":0.3937007874015748},{"duration":0.1875,"midi":57,"time":463.6875,"velocity":0.3937007874015748},{"duration":0.1875,"midi":33,"time":463.6875,"velocity":0.3937007874015748},{"duration":0.1875,"midi":85,"time":463.6875,"velocity":0.3937007874015748},{"duration":0.1875,"midi":86,"time":463.6875,"velocity":0.3937007874015748},{"duration":0.1875,"midi":81,"time":463.6875,"velocity":0.3937007874015748},{"duration":0.1875,"midi":36,"time":463.6875,"velocity":0.3937007874015748},{"duration":0.1875,"midi":62,"time":463.6875,"velocity":0.3937007874015748},{"duration":0.1875,"midi":74,"time":463.6875,"velocity":0.3937007874015748},{"duration":0.1875,"midi":38,"time":463.6875,"velocity":0.3937007874015748},{"duration":0.1875,"midi":26,"time":463.6875,"velocity":0.3937007874015748},{"duration":0.1875,"midi":93,"time":463.6875,"velocity":0.3937007874015748},{"duration":0.1875,"midi":69,"time":463.6875,"velocity":0.3937007874015748},{"duration":0.1875,"midi":37,"time":463.7109375,"velocity":0.3937007874015748},{"duration":0.1875,"midi":84,"time":463.7109375,"velocity":0.3937007874015748},{"duration":0.1875,"midi":83,"time":463.734375,"velocity":0.3937007874015748},{"duration":0.1875,"midi":38,"time":463.734375,"velocity":0.3937007874015748},{"duration":0.1875,"midi":82,"time":463.7578125,"velocity":0.3937007874015748},{"duration":0.1875,"midi":39,"time":463.7578125,"velocity":0.3937007874015748},{"duration":0.1875,"midi":40,"time":463.78125,"velocity":0.3937007874015748},{"duration":0.1875,"midi":81,"time":463.78125,"velocity":0.3937007874015748},{"duration":0.1875,"midi":80,"time":463.8046875,"velocity":0.3937007874015748},{"duration":0.1875,"midi":41,"time":463.8046875,"velocity":0.3937007874015748},{"duration":0.1875,"midi":42,"time":463.828125,"velocity":0.3937007874015748},{"duration":0.1875,"midi":79,"time":463.828125,"velocity":0.3937007874015748},{"duration":0.1875,"midi":43,"time":463.8515625,"velocity":0.3937007874015748},{"duration":0.1875,"midi":78,"time":463.8515625,"velocity":0.3937007874015748},{"duration":0.1875,"midi":49,"time":463.875,"velocity":0.3937007874015748},{"duration":0.1875,"midi":94,"time":463.875,"velocity":0.3937007874015748},{"duration":0.1875,"midi":85,"time":463.875,"velocity":0.3937007874015748},{"duration":0.1875,"midi":44,"time":463.875,"velocity":0.3937007874015748},{"duration":0.1875,"midi":70,"time":463.875,"velocity":0.3937007874015748},{"duration":0.1875,"midi":61,"time":463.875,"velocity":0.3937007874015748},{"duration":0.1875,"midi":82,"time":463.875,"velocity":0.3937007874015748},{"duration":0.1875,"midi":77,"time":463.875,"velocity":0.3937007874015748},{"duration":0.1875,"midi":34,"time":463.875,"velocity":0.3937007874015748},{"duration":0.1875,"midi":25,"time":463.875,"velocity":0.3937007874015748},{"duration":0.1875,"midi":73,"time":463.875,"velocity":0.3937007874015748},{"duration":0.1875,"midi":37,"time":463.875,"velocity":0.3937007874015748},{"duration":0.1875,"midi":58,"time":463.875,"velocity":0.3937007874015748},{"duration":0.1875,"midi":46,"time":463.875,"velocity":0.3937007874015748},{"duration":0.1875,"midi":76,"time":463.8984375,"velocity":0.3937007874015748},{"duration":0.1875,"midi":45,"time":463.8984375,"velocity":0.3937007874015748},{"duration":0.1875,"midi":75,"time":463.921875,"velocity":0.3937007874015748},{"duration":0.1875,"midi":46,"time":463.921875,"velocity":0.3937007874015748},{"duration":0.1875,"midi":74,"time":463.9453125,"velocity":0.3937007874015748},{"duration":0.1875,"midi":47,"time":463.9453125,"velocity":0.3937007874015748},{"duration":0.1875,"midi":48,"time":463.96875,"velocity":0.3937007874015748},{"duration":0.1875,"midi":73,"time":463.96875,"velocity":0.3937007874015748},{"duration":0.1875,"midi":72,"time":463.9921875,"velocity":0.3937007874015748},{"duration":0.1875,"midi":49,"time":463.9921875,"velocity":0.3937007874015748},{"duration":0.1875,"midi":71,"time":464.015625,"velocity":0.3937007874015748},{"duration":0.1875,"midi":50,"time":464.015625,"velocity":0.3937007874015748},{"duration":0.1875,"midi":51,"time":464.0390625,"velocity":0.3937007874015748},{"duration":0.1875,"midi":70,"time":464.0390625,"velocity":0.3937007874015748},{"duration":0.1875,"midi":48,"time":464.0625,"velocity":0.3937007874015748},{"duration":0.1875,"midi":60,"time":464.0625,"velocity":0.3937007874015748},{"duration":0.1875,"midi":69,"time":464.0625,"velocity":0.3937007874015748},{"duration":0.1875,"midi":24,"time":464.0625,"velocity":0.3937007874015748},{"duration":0.1875,"midi":83,"time":464.0625,"velocity":0.3937007874015748},{"duration":0.1875,"midi":36,"time":464.0625,"velocity":0.3937007874015748},{"duration":0.1875,"midi":52,"time":464.0625,"velocity":0.3937007874015748},{"duration":0.1875,"midi":72,"time":464.0625,"velocity":0.3937007874015748},{"duration":0.1875,"midi":95,"time":464.0625,"velocity":0.3937007874015748},{"duration":0.1875,"midi":84,"time":464.0625,"velocity":0.3937007874015748},{"duration":0.1875,"midi":47,"time":464.0625,"velocity":0.3937007874015748},{"duration":0.1875,"midi":59,"time":464.0625,"velocity":0.3937007874015748},{"duration":0.1875,"midi":71,"time":464.0625,"velocity":0.3937007874015748},{"duration":0.1875,"midi":35,"time":464.0625,"velocity":0.3937007874015748},{"duration":0.1875,"midi":53,"time":464.0859375,"velocity":0.3937007874015748},{"duration":0.1875,"midi":68,"time":464.0859375,"velocity":0.3937007874015748},{"duration":0.1875,"midi":67,"time":464.109375,"velocity":0.3937007874015748},{"duration":0.1875,"midi":54,"time":464.109375,"velocity":0.3937007874015748},{"duration":0.1875,"midi":66,"time":464.1328125,"velocity":0.3937007874015748},{"duration":0.1875,"midi":55,"time":464.1328125,"velocity":0.3937007874015748},{"duration":0.1875,"midi":56,"time":464.15625,"velocity":0.3937007874015748},{"duration":0.1875,"midi":65,"time":464.15625,"velocity":0.3937007874015748},{"duration":0.1875,"midi":57,"time":464.1796875,"velocity":0.3937007874015748},{"duration":0.1875,"midi":64,"time":464.1796875,"velocity":0.3937007874015748},{"duration":0.1875,"midi":63,"time":464.203125,"velocity":0.3937007874015748},{"duration":0.1875,"midi":58,"time":464.203125,"velocity":0.3937007874015748},{"duration":0.1875,"midi":62,"time":464.2265625,"velocity":0.3937007874015748},{"duration":0.1875,"midi":59,"time":464.2265625,"velocity":0.3937007874015748},{"duration":0.1875,"midi":24,"time":464.25,"velocity":0.3937007874015748},{"duration":0.1875,"midi":61,"time":464.25,"velocity":0.3937007874015748},{"duration":0.1875,"midi":48,"time":464.25,"velocity":0.3937007874015748},{"duration":0.1875,"midi":60,"time":464.25,"velocity":0.3937007874015748},{"duration":0.1875,"midi":47,"time":464.25,"velocity":0.3937007874015748},{"duration":0.1875,"midi":60,"time":464.25,"velocity":0.3937007874015748},{"duration":0.1875,"midi":95,"time":464.25,"velocity":0.3937007874015748},{"duration":0.1875,"midi":71,"time":464.25,"velocity":0.3937007874015748},{"duration":0.1875,"midi":35,"time":464.25,"velocity":0.3937007874015748},{"duration":0.1875,"midi":83,"time":464.25,"velocity":0.3937007874015748},{"duration":0.1875,"midi":59,"time":464.25,"velocity":0.3937007874015748},{"duration":0.1875,"midi":72,"time":464.25,"velocity":0.3937007874015748},{"duration":0.1875,"midi":84,"time":464.25,"velocity":0.3937007874015748},{"duration":0.1875,"midi":36,"time":464.25,"velocity":0.3937007874015748},{"duration":0.1875,"midi":60,"time":464.2734375,"velocity":0.3937007874015748},{"duration":0.1875,"midi":61,"time":464.2734375,"velocity":0.3937007874015748},{"duration":0.1875,"midi":59,"time":464.296875,"velocity":0.3937007874015748},{"duration":0.1875,"midi":62,"time":464.296875,"velocity":0.3937007874015748},{"duration":0.1875,"midi":58,"time":464.3203125,"velocity":0.3937007874015748},{"duration":0.1875,"midi":63,"time":464.3203125,"velocity":0.3937007874015748},{"duration":0.1875,"midi":57,"time":464.34375,"velocity":0.3937007874015748},{"duration":0.1875,"midi":64,"time":464.34375,"velocity":0.3937007874015748},{"duration":0.1875,"midi":65,"time":464.3671875,"velocity":0.3937007874015748},{"duration":0.1875,"midi":56,"time":464.3671875,"velocity":0.3937007874015748},{"duration":0.1875,"midi":66,"time":464.390625,"velocity":0.3937007874015748},{"duration":0.1875,"midi":55,"time":464.390625,"velocity":0.3937007874015748},{"duration":0.1875,"midi":54,"time":464.4140625,"velocity":0.3937007874015748},{"duration":0.1875,"midi":67,"time":464.4140625,"velocity":0.3937007874015748},{"duration":0.1875,"midi":85,"time":464.4375,"velocity":0.3937007874015748},{"duration":0.1875,"midi":73,"time":464.4375,"velocity":0.3937007874015748},{"duration":0.1875,"midi":68,"time":464.4375,"velocity":0.3937007874015748},{"duration":0.1875,"midi":46,"time":464.4375,"velocity":0.3937007874015748},{"duration":0.1875,"midi":82,"time":464.4375,"velocity":0.3937007874015748},{"duration":0.1875,"midi":70,"time":464.4375,"velocity":0.3937007874015748},{"duration":0.1875,"midi":34,"time":464.4375,"velocity":0.3937007874015748},{"duration":0.1875,"midi":94,"time":464.4375,"velocity":0.3937007874015748},{"duration":0.1875,"midi":25,"time":464.4375,"velocity":0.3937007874015748},{"duration":0.1875,"midi":53,"time":464.4375,"velocity":0.3937007874015748},{"duration":0.1875,"midi":61,"time":464.4375,"velocity":0.3937007874015748},{"duration":0.1875,"midi":58,"time":464.4375,"velocity":0.3937007874015748},{"duration":0.1875,"midi":49,"time":464.4375,"velocity":0.3937007874015748},{"duration":0.1875,"midi":37,"time":464.4375,"velocity":0.3937007874015748},{"duration":0.1875,"midi":52,"time":464.4609375,"velocity":0.3937007874015748},{"duration":0.1875,"midi":69,"time":464.4609375,"velocity":0.3937007874015748},{"duration":0.1875,"midi":51,"time":464.484375,"velocity":0.3937007874015748},{"duration":0.1875,"midi":70,"time":464.484375,"velocity":0.3937007874015748},{"duration":0.1875,"midi":71,"time":464.5078125,"velocity":0.3937007874015748},{"duration":0.1875,"midi":50,"time":464.5078125,"velocity":0.3937007874015748},{"duration":0.1875,"midi":72,"time":464.53125,"velocity":0.3937007874015748},{"duration":0.1875,"midi":49,"time":464.53125,"velocity":0.3937007874015748},{"duration":0.1875,"midi":73,"time":464.5546875,"velocity":0.3937007874015748},{"duration":0.1875,"midi":48,"time":464.5546875,"velocity":0.3937007874015748},{"duration":0.1875,"midi":47,"time":464.578125,"velocity":0.3937007874015748},{"duration":0.1875,"midi":74,"time":464.578125,"velocity":0.3937007874015748},{"duration":0.1875,"midi":46,"time":464.6015625,"velocity":0.3937007874015748},{"duration":0.1875,"midi":75,"time":464.6015625,"velocity":0.3937007874015748},{"duration":0.1875,"midi":86,"time":464.625,"velocity":0.3937007874015748},{"duration":0.1875,"midi":81,"time":464.625,"velocity":0.3937007874015748},{"duration":0.1875,"midi":33,"time":464.625,"velocity":0.3937007874015748},{"duration":0.1875,"midi":45,"time":464.625,"velocity":0.3937007874015748},{"duration":0.1875,"midi":50,"time":464.625,"velocity":0.3937007874015748},{"duration":0.1875,"midi":45,"time":464.625,"velocity":0.3937007874015748},{"duration":0.1875,"midi":93,"time":464.625,"velocity":0.3937007874015748},{"duration":0.1875,"midi":62,"time":464.625,"velocity":0.3937007874015748},{"duration":0.1875,"midi":38,"time":464.625,"velocity":0.3937007874015748},{"duration":0.1875,"midi":57,"time":464.625,"velocity":0.3937007874015748},{"duration":0.1875,"midi":76,"time":464.625,"velocity":0.3937007874015748},{"duration":0.1875,"midi":74,"time":464.625,"velocity":0.3937007874015748},{"duration":0.1875,"midi":69,"time":464.625,"velocity":0.3937007874015748},{"duration":0.1875,"midi":26,"time":464.625,"velocity":0.3937007874015748},{"duration":0.1875,"midi":44,"time":464.6484375,"velocity":0.3937007874015748},{"duration":0.1875,"midi":77,"time":464.6484375,"velocity":0.3937007874015748},{"duration":0.1875,"midi":43,"time":464.671875,"velocity":0.3937007874015748},{"duration":0.1875,"midi":78,"time":464.671875,"velocity":0.3937007874015748},{"duration":0.1875,"midi":42,"time":464.6953125,"velocity":0.3937007874015748},{"duration":0.1875,"midi":79,"time":464.6953125,"velocity":0.3937007874015748},{"duration":0.1875,"midi":80,"time":464.71875,"velocity":0.3937007874015748},{"duration":0.1875,"midi":41,"time":464.71875,"velocity":0.3937007874015748},{"duration":0.1875,"midi":40,"time":464.7421875,"velocity":0.3937007874015748},{"duration":0.1875,"midi":81,"time":464.7421875,"velocity":0.3937007874015748},{"duration":0.1875,"midi":82,"time":464.765625,"velocity":0.3937007874015748},{"duration":0.1875,"midi":39,"time":464.765625,"velocity":0.3937007874015748},{"duration":0.1875,"midi":83,"time":464.7890625,"velocity":0.3937007874015748},{"duration":0.1875,"midi":38,"time":464.7890625,"velocity":0.3937007874015748},{"duration":0.1875,"midi":39,"time":464.8125,"velocity":0.3937007874015748},{"duration":0.1875,"midi":80,"time":464.8125,"velocity":0.3937007874015748},{"duration":0.1875,"midi":68,"time":464.8125,"velocity":0.3937007874015748},{"duration":0.1875,"midi":75,"time":464.8125,"velocity":0.3937007874015748},{"duration":0.1875,"midi":44,"time":464.8125,"velocity":0.3937007874015748},{"duration":0.1875,"midi":84,"time":464.8125,"velocity":0.3937007874015748},{"duration":0.1875,"midi":27,"time":464.8125,"velocity":0.3937007874015748},{"duration":0.1875,"midi":37,"time":464.8125,"velocity":0.3937007874015748},{"duration":0.1875,"midi":56,"time":464.8125,"velocity":0.3937007874015748},{"duration":0.1875,"midi":63,"time":464.8125,"velocity":0.3937007874015748},{"duration":0.1875,"midi":51,"time":464.8125,"velocity":0.3937007874015748},{"duration":0.1875,"midi":87,"time":464.8125,"velocity":0.3937007874015748},{"duration":0.1875,"midi":32,"time":464.8125,"velocity":0.3937007874015748},{"duration":0.1875,"midi":92,"time":464.8125,"velocity":0.3937007874015748},{"duration":0.1875,"midi":85,"time":464.8359375,"velocity":0.3937007874015748},{"duration":0.1875,"midi":36,"time":464.8359375,"velocity":0.3937007874015748},{"duration":0.1875,"midi":35,"time":464.859375,"velocity":0.3937007874015748},{"duration":0.1875,"midi":86,"time":464.859375,"velocity":0.3937007874015748},{"duration":0.1875,"midi":34,"time":464.8828125,"velocity":0.3937007874015748},{"duration":0.1875,"midi":87,"time":464.8828125,"velocity":0.3937007874015748},{"duration":0.1875,"midi":33,"time":464.90625,"velocity":0.3937007874015748},{"duration":0.1875,"midi":88,"time":464.90625,"velocity":0.3937007874015748},{"duration":0.1875,"midi":89,"time":464.9296875,"velocity":0.3937007874015748},{"duration":0.1875,"midi":32,"time":464.9296875,"velocity":0.3937007874015748},{"duration":0.1875,"midi":31,"time":464.953125,"velocity":0.3937007874015748},{"duration":0.1875,"midi":90,"time":464.953125,"velocity":0.3937007874015748},{"duration":0.1875,"midi":30,"time":464.9765625,"velocity":0.3937007874015748},{"duration":0.1875,"midi":91,"time":464.9765625,"velocity":0.3937007874015748},{"duration":0.1875,"midi":91,"time":465,"velocity":0.3937007874015748},{"duration":0.1875,"midi":79,"time":465,"velocity":0.3937007874015748},{"duration":0.1875,"midi":64,"time":465,"velocity":0.3937007874015748},{"duration":0.1875,"midi":28,"time":465,"velocity":0.3937007874015748},{"duration":0.1875,"midi":52,"time":465,"velocity":0.3937007874015748},{"duration":0.1875,"midi":88,"time":465,"velocity":0.3937007874015748},{"duration":0.1875,"midi":76,"time":465,"velocity":0.3937007874015748},{"duration":0.1875,"midi":55,"time":465,"velocity":0.3937007874015748},{"duration":0.1875,"midi":31,"time":465,"velocity":0.3937007874015748},{"duration":0.1875,"midi":40,"time":465,"velocity":0.3937007874015748},{"duration":0.1875,"midi":43,"time":465,"velocity":0.3937007874015748},{"duration":0.1875,"midi":67,"time":465,"velocity":0.3937007874015748},{"duration":0.1875,"midi":93,"time":465.0234375,"velocity":0.3937007874015748},{"duration":0.1875,"midi":28,"time":465.0234375,"velocity":0.3937007874015748},{"duration":0.1875,"midi":92,"time":465.046875,"velocity":0.3937007874015748},{"duration":0.1875,"midi":29,"time":465.046875,"velocity":0.3937007874015748},{"duration":0.1875,"midi":91,"time":465.0703125,"velocity":0.3937007874015748},{"duration":0.1875,"midi":30,"time":465.0703125,"velocity":0.3937007874015748},{"duration":0.1875,"midi":90,"time":465.09375,"velocity":0.3937007874015748},{"duration":0.1875,"midi":31,"time":465.09375,"velocity":0.3937007874015748},{"duration":0.1875,"midi":32,"time":465.1171875,"velocity":0.3937007874015748},{"duration":0.1875,"midi":89,"time":465.1171875,"velocity":0.3937007874015748},{"duration":0.1875,"midi":33,"time":465.140625,"velocity":0.3937007874015748},{"duration":0.1875,"midi":88,"time":465.140625,"velocity":0.3937007874015748},{"duration":0.1875,"midi":34,"time":465.1640625,"velocity":0.3937007874015748},{"duration":0.1875,"midi":87,"time":465.1640625,"velocity":0.3937007874015748},{"duration":0.1875,"midi":78,"time":465.1875,"velocity":0.3937007874015748},{"duration":0.1875,"midi":35,"time":465.1875,"velocity":0.3937007874015748},{"duration":0.1875,"midi":86,"time":465.1875,"velocity":0.3937007874015748},{"duration":0.1875,"midi":41,"time":465.1875,"velocity":0.3937007874015748},{"duration":0.1875,"midi":77,"time":465.1875,"velocity":0.3937007874015748},{"duration":0.1875,"midi":29,"time":465.1875,"velocity":0.3937007874015748},{"duration":0.1875,"midi":53,"time":465.1875,"velocity":0.3937007874015748},{"duration":0.1875,"midi":65,"time":465.1875,"velocity":0.3937007874015748},{"duration":0.1875,"midi":66,"time":465.1875,"velocity":0.3937007874015748},{"duration":0.1875,"midi":90,"time":465.1875,"velocity":0.3937007874015748},{"duration":0.1875,"midi":89,"time":465.1875,"velocity":0.3937007874015748},{"duration":0.1875,"midi":54,"time":465.1875,"velocity":0.3937007874015748},{"duration":0.1875,"midi":42,"time":465.1875,"velocity":0.3937007874015748},{"duration":0.1875,"midi":30,"time":465.1875,"velocity":0.3937007874015748},{"duration":0.1875,"midi":36,"time":465.2109375,"velocity":0.3937007874015748},{"duration":0.1875,"midi":85,"time":465.2109375,"velocity":0.3937007874015748},{"duration":0.1875,"midi":84,"time":465.234375,"velocity":0.3937007874015748},{"duration":0.1875,"midi":37,"time":465.234375,"velocity":0.3937007874015748},{"duration":0.1875,"midi":38,"time":465.2578125,"velocity":0.3937007874015748},{"duration":0.1875,"midi":83,"time":465.2578125,"velocity":0.3937007874015748},{"duration":0.1875,"midi":82,"time":465.28125,"velocity":0.3937007874015748},{"duration":0.1875,"midi":39,"time":465.28125,"velocity":0.3937007874015748},{"duration":0.1875,"midi":81,"time":465.3046875,"velocity":0.3937007874015748},{"duration":0.1875,"midi":40,"time":465.3046875,"velocity":0.3937007874015748},{"duration":0.1875,"midi":80,"time":465.328125,"velocity":0.3937007874015748},{"duration":0.1875,"midi":41,"time":465.328125,"velocity":0.3937007874015748},{"duration":0.1875,"midi":79,"time":465.3515625,"velocity":0.3937007874015748},{"duration":0.1875,"midi":42,"time":465.3515625,"velocity":0.3937007874015748},{"duration":0.1875,"midi":29,"time":465.375,"velocity":0.3937007874015748},{"duration":0.1875,"midi":53,"time":465.375,"velocity":0.3937007874015748},{"duration":0.1875,"midi":77,"time":465.375,"velocity":0.3937007874015748},{"duration":0.1875,"midi":90,"time":465.375,"velocity":0.3937007874015748},{"duration":0.1875,"midi":66,"time":465.375,"velocity":0.3937007874015748},{"duration":0.1875,"midi":78,"time":465.375,"velocity":0.3937007874015748},{"duration":0.1875,"midi":54,"time":465.375,"velocity":0.3937007874015748},{"duration":0.1875,"midi":43,"time":465.375,"velocity":0.3937007874015748},{"duration":0.1875,"midi":41,"time":465.375,"velocity":0.3937007874015748},{"duration":0.1875,"midi":89,"time":465.375,"velocity":0.3937007874015748},{"duration":0.1875,"midi":30,"time":465.375,"velocity":0.3937007874015748},{"duration":0.1875,"midi":65,"time":465.375,"velocity":0.3937007874015748},{"duration":0.1875,"midi":42,"time":465.375,"velocity":0.3937007874015748},{"duration":0.1875,"midi":78,"time":465.375,"velocity":0.3937007874015748},{"duration":0.1875,"midi":44,"time":465.3984375,"velocity":0.3937007874015748},{"duration":0.1875,"midi":77,"time":465.3984375,"velocity":0.3937007874015748},{"duration":0.1875,"midi":76,"time":465.421875,"velocity":0.3937007874015748},{"duration":0.1875,"midi":45,"time":465.421875,"velocity":0.3937007874015748},{"duration":0.1875,"midi":75,"time":465.4453125,"velocity":0.3937007874015748},{"duration":0.1875,"midi":46,"time":465.4453125,"velocity":0.3937007874015748},{"duration":0.1875,"midi":47,"time":465.46875,"velocity":0.3937007874015748},{"duration":0.1875,"midi":74,"time":465.46875,"velocity":0.3937007874015748},{"duration":0.1875,"midi":73,"time":465.4921875,"velocity":0.3937007874015748},{"duration":0.1875,"midi":48,"time":465.4921875,"velocity":0.3937007874015748},{"duration":0.1875,"midi":49,"time":465.515625,"velocity":0.3937007874015748},{"duration":0.1875,"midi":72,"time":465.515625,"velocity":0.3937007874015748},{"duration":0.1875,"midi":71,"time":465.5390625,"velocity":0.3937007874015748},{"duration":0.1875,"midi":50,"time":465.5390625,"velocity":0.3937007874015748},{"duration":0.1875,"midi":28,"time":465.5625,"velocity":0.3937007874015748},{"duration":0.1875,"midi":40,"time":465.5625,"velocity":0.3937007874015748},{"duration":0.1875,"midi":31,"time":465.5625,"velocity":0.3937007874015748},{"duration":0.1875,"midi":64,"time":465.5625,"velocity":0.3937007874015748},{"duration":0.1875,"midi":70,"time":465.5625,"velocity":0.3937007874015748},{"duration":0.1875,"midi":88,"time":465.5625,"velocity":0.3937007874015748},{"duration":0.1875,"midi":52,"time":465.5625,"velocity":0.3937007874015748},{"duration":0.1875,"midi":51,"time":465.5625,"velocity":0.3937007874015748},{"duration":0.1875,"midi":91,"time":465.5625,"velocity":0.3937007874015748},{"duration":0.1875,"midi":43,"time":465.5625,"velocity":0.3937007874015748},{"duration":0.1875,"midi":76,"time":465.5625,"velocity":0.3937007874015748},{"duration":0.1875,"midi":79,"time":465.5625,"velocity":0.3937007874015748},{"duration":0.1875,"midi":55,"time":465.5625,"velocity":0.3937007874015748},{"duration":0.1875,"midi":67,"time":465.5625,"velocity":0.3937007874015748},{"duration":0.1875,"midi":52,"time":465.5859375,"velocity":0.3937007874015748},{"duration":0.1875,"midi":69,"time":465.5859375,"velocity":0.3937007874015748},{"duration":0.1875,"midi":68,"time":465.609375,"velocity":0.3937007874015748},{"duration":0.1875,"midi":53,"time":465.609375,"velocity":0.3937007874015748},{"duration":0.1875,"midi":54,"time":465.6328125,"velocity":0.3937007874015748},{"duration":0.1875,"midi":67,"time":465.6328125,"velocity":0.3937007874015748},{"duration":0.1875,"midi":55,"time":465.65625,"velocity":0.3937007874015748},{"duration":0.1875,"midi":66,"time":465.65625,"velocity":0.3937007874015748},{"duration":0.1875,"midi":56,"time":465.6796875,"velocity":0.3937007874015748},{"duration":0.1875,"midi":65,"time":465.6796875,"velocity":0.3937007874015748},{"duration":0.1875,"midi":64,"time":465.703125,"velocity":0.3937007874015748},{"duration":0.1875,"midi":57,"time":465.703125,"velocity":0.3937007874015748},{"duration":0.1875,"midi":58,"time":465.7265625,"velocity":0.3937007874015748},{"duration":0.1875,"midi":63,"time":465.7265625,"velocity":0.3937007874015748},{"duration":0.1875,"midi":92,"time":465.75,"velocity":0.3937007874015748},{"duration":0.1875,"midi":59,"time":465.75,"velocity":0.3937007874015748},{"duration":0.1875,"midi":51,"time":465.75,"velocity":0.3937007874015748},{"duration":0.1875,"midi":44,"time":465.75,"velocity":0.3937007874015748},{"duration":0.1875,"midi":80,"time":465.75,"velocity":0.3937007874015748},{"duration":0.1875,"midi":39,"time":465.75,"velocity":0.3937007874015748},{"duration":0.1875,"midi":75,"time":465.75,"velocity":0.3937007874015748},{"duration":0.1875,"midi":87,"time":465.75,"velocity":0.3937007874015748},{"duration":0.1875,"midi":63,"time":465.75,"velocity":0.3937007874015748},{"duration":0.1875,"midi":32,"time":465.75,"velocity":0.3937007874015748},{"duration":0.1875,"midi":68,"time":465.75,"velocity":0.3937007874015748},{"duration":0.1875,"midi":27,"time":465.75,"velocity":0.3937007874015748},{"duration":0.1875,"midi":56,"time":465.75,"velocity":0.3937007874015748},{"duration":0.1875,"midi":62,"time":465.75,"velocity":0.3937007874015748},{"duration":0.1875,"midi":60,"time":465.7734375,"velocity":0.3937007874015748},{"duration":0.1875,"midi":61,"time":465.7734375,"velocity":0.3937007874015748},{"duration":0.1875,"midi":61,"time":465.796875,"velocity":0.3937007874015748},{"duration":0.1875,"midi":60,"time":465.796875,"velocity":0.3937007874015748},{"duration":0.1875,"midi":62,"time":465.8203125,"velocity":0.3937007874015748},{"duration":0.1875,"midi":59,"time":465.8203125,"velocity":0.3937007874015748},{"duration":0.1875,"midi":58,"time":465.84375,"velocity":0.3937007874015748},{"duration":0.1875,"midi":63,"time":465.84375,"velocity":0.3937007874015748},{"duration":0.1875,"midi":64,"time":465.8671875,"velocity":0.3937007874015748},{"duration":0.1875,"midi":57,"time":465.8671875,"velocity":0.3937007874015748},{"duration":0.1875,"midi":65,"time":465.890625,"velocity":0.3937007874015748},{"duration":0.1875,"midi":56,"time":465.890625,"velocity":0.3937007874015748},{"duration":0.1875,"midi":55,"time":465.9140625,"velocity":0.3937007874015748},{"duration":0.1875,"midi":66,"time":465.9140625,"velocity":0.3937007874015748},{"duration":0.1875,"midi":62,"time":465.9375,"velocity":0.3937007874015748},{"duration":0.1875,"midi":54,"time":465.9375,"velocity":0.3937007874015748},{"duration":0.1875,"midi":50,"time":465.9375,"velocity":0.3937007874015748},{"duration":0.1875,"midi":93,"time":465.9375,"velocity":0.3937007874015748},{"duration":0.1875,"midi":38,"time":465.9375,"velocity":0.3937007874015748},{"duration":0.1875,"midi":69,"time":465.9375,"velocity":0.3937007874015748},{"duration":0.1875,"midi":45,"time":465.9375,"velocity":0.3937007874015748},{"duration":0.1875,"midi":86,"time":465.9375,"velocity":0.3937007874015748},{"duration":0.1875,"midi":81,"time":465.9375,"velocity":0.3937007874015748},{"duration":0.1875,"midi":74,"time":465.9375,"velocity":0.3937007874015748},{"duration":0.1875,"midi":33,"time":465.9375,"velocity":0.3937007874015748},{"duration":0.1875,"midi":57,"time":465.9375,"velocity":0.3937007874015748},{"duration":0.1875,"midi":26,"time":465.9375,"velocity":0.3937007874015748},{"duration":0.1875,"midi":67,"time":465.9375,"velocity":0.3937007874015748},{"duration":0.1875,"midi":68,"time":465.9609375,"velocity":0.3937007874015748},{"duration":0.1875,"midi":53,"time":465.9609375,"velocity":0.3937007874015748},{"duration":0.1875,"midi":52,"time":465.984375,"velocity":0.3937007874015748},{"duration":0.1875,"midi":69,"time":465.984375,"velocity":0.3937007874015748},{"duration":0.1875,"midi":51,"time":466.0078125,"velocity":0.3937007874015748},{"duration":0.1875,"midi":70,"time":466.0078125,"velocity":0.3937007874015748},{"duration":0.1875,"midi":71,"time":466.03125,"velocity":0.3937007874015748},{"duration":0.1875,"midi":50,"time":466.03125,"velocity":0.3937007874015748},{"duration":0.1875,"midi":49,"time":466.0546875,"velocity":0.3937007874015748},{"duration":0.1875,"midi":72,"time":466.0546875,"velocity":0.3937007874015748},{"duration":0.1875,"midi":73,"time":466.078125,"velocity":0.3937007874015748},{"duration":0.1875,"midi":48,"time":466.078125,"velocity":0.3937007874015748},{"duration":0.1875,"midi":47,"time":466.1015625,"velocity":0.3937007874015748},{"duration":0.1875,"midi":74,"time":466.1015625,"velocity":0.3937007874015748},{"duration":0.1875,"midi":82,"time":466.125,"velocity":0.3937007874015748},{"duration":0.1875,"midi":70,"time":466.125,"velocity":0.3937007874015748},{"duration":0.1875,"midi":73,"time":466.125,"velocity":0.3937007874015748},{"duration":0.1875,"midi":46,"time":466.125,"velocity":0.3937007874015748},{"duration":0.1875,"midi":58,"time":466.125,"velocity":0.3937007874015748},{"duration":0.1875,"midi":37,"time":466.125,"velocity":0.3937007874015748},{"duration":0.1875,"midi":25,"time":466.125,"velocity":0.3937007874015748},{"duration":0.1875,"midi":85,"time":466.125,"velocity":0.3937007874015748},{"duration":0.1875,"midi":49,"time":466.125,"velocity":0.3937007874015748},{"duration":0.1875,"midi":94,"time":466.125,"velocity":0.3937007874015748},{"duration":0.1875,"midi":46,"time":466.125,"velocity":0.3937007874015748},{"duration":0.1875,"midi":34,"time":466.125,"velocity":0.3937007874015748},{"duration":0.1875,"midi":61,"time":466.125,"velocity":0.3937007874015748},{"duration":0.1875,"midi":75,"time":466.125,"velocity":0.3937007874015748},{"duration":0.1875,"midi":45,"time":466.1484375,"velocity":0.3937007874015748},{"duration":0.1875,"midi":76,"time":466.1484375,"velocity":0.3937007874015748},{"duration":0.1875,"midi":44,"time":466.171875,"velocity":0.3937007874015748},{"duration":0.1875,"midi":77,"time":466.171875,"velocity":0.3937007874015748},{"duration":0.1875,"midi":43,"time":466.1953125,"velocity":0.3937007874015748},{"duration":0.1875,"midi":78,"time":466.1953125,"velocity":0.3937007874015748},{"duration":0.1875,"midi":42,"time":466.21875,"velocity":0.3937007874015748},{"duration":0.1875,"midi":79,"time":466.21875,"velocity":0.3937007874015748},{"duration":0.1875,"midi":41,"time":466.2421875,"velocity":0.3937007874015748},{"duration":0.1875,"midi":80,"time":466.2421875,"velocity":0.3937007874015748},{"duration":0.1875,"midi":40,"time":466.265625,"velocity":0.3937007874015748},{"duration":0.1875,"midi":81,"time":466.265625,"velocity":0.3937007874015748},{"duration":0.1875,"midi":82,"time":466.2890625,"velocity":0.3937007874015748},{"duration":0.1875,"midi":39,"time":466.2890625,"velocity":0.3937007874015748},{"duration":0.1875,"midi":71,"time":466.3125,"velocity":0.3937007874015748},{"duration":0.1875,"midi":38,"time":466.3125,"velocity":0.3937007874015748},{"duration":0.1875,"midi":59,"time":466.3125,"velocity":0.3937007874015748},{"duration":0.1875,"midi":24,"time":466.3125,"velocity":0.3937007874015748},{"duration":0.1875,"midi":35,"time":466.3125,"velocity":0.3937007874015748},{"duration":0.1875,"midi":84,"time":466.3125,"velocity":0.3937007874015748},{"duration":0.1875,"midi":72,"time":466.3125,"velocity":0.3937007874015748},{"duration":0.1875,"midi":95,"time":466.3125,"velocity":0.3937007874015748},{"duration":0.1875,"midi":36,"time":466.3125,"velocity":0.3937007874015748},{"duration":0.1875,"midi":83,"time":466.3125,"velocity":0.3937007874015748},{"duration":0.1875,"midi":48,"time":466.3125,"velocity":0.3937007874015748},{"duration":0.1875,"midi":83,"time":466.3125,"velocity":0.3937007874015748},{"duration":0.1875,"midi":60,"time":466.3125,"velocity":0.3937007874015748},{"duration":0.1875,"midi":47,"time":466.3125,"velocity":0.3937007874015748},{"duration":0.1875,"midi":84,"time":466.3359375,"velocity":0.3937007874015748},{"duration":0.1875,"midi":37,"time":466.3359375,"velocity":0.3937007874015748},{"duration":0.1875,"midi":36,"time":466.359375,"velocity":0.3937007874015748},{"duration":0.1875,"midi":85,"time":466.359375,"velocity":0.3937007874015748},{"duration":0.1875,"midi":86,"time":466.3828125,"velocity":0.3937007874015748},{"duration":0.1875,"midi":35,"time":466.3828125,"velocity":0.3937007874015748},{"duration":0.1875,"midi":34,"time":466.40625,"velocity":0.3937007874015748},{"duration":0.1875,"midi":87,"time":466.40625,"velocity":0.3937007874015748},{"duration":0.1875,"midi":88,"time":466.4296875,"velocity":0.3937007874015748},{"duration":0.1875,"midi":33,"time":466.4296875,"velocity":0.3937007874015748},{"duration":0.1875,"midi":89,"time":466.453125,"velocity":0.3937007874015748},{"duration":0.1875,"midi":32,"time":466.453125,"velocity":0.3937007874015748},{"duration":0.1875,"midi":31,"time":466.4765625,"velocity":0.3937007874015748},{"duration":0.1875,"midi":90,"time":466.4765625,"velocity":0.3937007874015748},{"duration":0.375,"midi":67,"time":466.5,"velocity":0.3937007874015748},{"duration":0.1875,"midi":72,"time":466.5,"velocity":0.3937007874015748},{"duration":0.375,"midi":76,"time":466.5,"velocity":0.3937007874015748},{"duration":0.1875,"midi":93,"time":466.5,"velocity":0.3937007874015748},{"duration":0.1875,"midi":36,"time":466.5,"velocity":0.3937007874015748},{"duration":0.1875,"midi":91,"time":466.5,"velocity":0.3937007874015748},{"duration":0.2578125,"midi":31,"time":466.5,"velocity":0.3937007874015748},{"duration":0.1875,"midi":33,"time":466.5,"velocity":0.3937007874015748},{"duration":0.2578125,"midi":90,"time":466.5,"velocity":0.3937007874015748},{"duration":0.1875,"midi":84,"time":466.5,"velocity":0.3937007874015748},{"duration":0.2578125,"midi":36,"time":466.5,"velocity":0.3937007874015748},{"duration":0.3515625,"midi":86,"time":466.5,"velocity":0.3937007874015748},{"duration":0.1875,"midi":48,"time":466.5,"velocity":0.3937007874015748},{"duration":0.1875,"midi":95,"time":466.5,"velocity":0.3937007874015748},{"duration":0.2109375,"midi":29,"time":466.5,"velocity":0.3937007874015748},{"duration":0.28125,"midi":32,"time":466.5,"velocity":0.3937007874015748},{"duration":0.1875,"midi":24,"time":466.5,"velocity":0.3937007874015748},{"duration":0.1875,"midi":60,"time":466.5,"velocity":0.3937007874015748},{"duration":0.1875,"midi":71,"time":466.5,"velocity":0.3937007874015748},{"duration":0.1875,"midi":28,"time":466.5,"velocity":0.3937007874015748},{"duration":0.28125,"midi":37,"time":466.5,"velocity":0.3937007874015748},{"duration":0.2109375,"midi":34,"time":466.5,"velocity":0.3937007874015748},{"duration":0.234375,"midi":91,"time":466.5,"velocity":0.3937007874015748},{"duration":0.1875,"midi":35,"time":466.5,"velocity":0.3937007874015748},{"duration":0.1875,"midi":47,"time":466.5,"velocity":0.3937007874015748},{"duration":0.375,"midi":42,"time":466.5,"velocity":0.3937007874015748},{"duration":0.1875,"midi":30,"time":466.5,"velocity":0.3937007874015748},{"duration":0.375,"midi":43,"time":466.5,"velocity":0.3937007874015748},{"duration":0.375,"midi":41,"time":466.5,"velocity":0.3937007874015748},{"duration":0.375,"midi":94,"time":466.5,"velocity":0.3937007874015748},{"duration":0.375,"midi":81,"time":466.5,"velocity":0.3937007874015748},{"duration":0.328125,"midi":87,"time":466.5,"velocity":0.3937007874015748},{"duration":0.375,"midi":28,"time":466.5,"velocity":0.3937007874015748},{"duration":0.3046875,"midi":88,"time":466.5,"velocity":0.3937007874015748},{"duration":0.375,"midi":44,"time":466.5,"velocity":0.3937007874015748},{"duration":0.375,"midi":24,"time":466.5,"velocity":0.3937007874015748},{"duration":0.375,"midi":55,"time":466.5,"velocity":0.3937007874015748},{"duration":0.1875,"midi":83,"time":466.5,"velocity":0.3937007874015748},{"duration":0.375,"midi":95,"time":466.5,"velocity":0.3937007874015748},{"duration":0.375,"midi":77,"time":466.5,"velocity":0.3937007874015748},{"duration":0.375,"midi":25,"time":466.5,"velocity":0.3937007874015748},{"duration":0.375,"midi":65,"time":466.5,"velocity":0.3937007874015748},{"duration":0.375,"midi":75,"time":466.5,"velocity":0.3937007874015748},{"duration":0.375,"midi":79,"time":466.5,"velocity":0.3937007874015748},{"duration":0.375,"midi":47,"time":466.5,"velocity":0.3937007874015748},{"duration":0.375,"midi":54,"time":466.5,"velocity":0.3937007874015748},{"duration":0.375,"midi":93,"time":466.5,"velocity":0.3937007874015748},{"duration":0.375,"midi":53,"time":466.5,"velocity":0.3937007874015748},{"duration":0.234375,"midi":35,"time":466.5,"velocity":0.3937007874015748},{"duration":0.375,"midi":56,"time":466.5,"velocity":0.3937007874015748},{"duration":0.375,"midi":58,"time":466.5,"velocity":0.3937007874015748},{"duration":0.375,"midi":57,"time":466.5,"velocity":0.3937007874015748},{"duration":0.375,"midi":26,"time":466.5,"velocity":0.3937007874015748},{"duration":0.375,"midi":78,"time":466.5,"velocity":0.3937007874015748},{"duration":0.328125,"midi":39,"time":466.5,"velocity":0.3937007874015748},{"duration":0.375,"midi":71,"time":466.5,"velocity":0.3937007874015748},{"duration":0.375,"midi":69,"time":466.5,"velocity":0.3937007874015748},{"duration":0.2109375,"midi":92,"time":466.5,"velocity":0.3937007874015748},{"duration":0.375,"midi":60,"time":466.5,"velocity":0.3937007874015748},{"duration":0.375,"midi":49,"time":466.5,"velocity":0.3937007874015748},{"duration":0.1875,"midi":59,"time":466.5,"velocity":0.3937007874015748},{"duration":0.375,"midi":62,"time":466.5,"velocity":0.3937007874015748},{"duration":0.3046875,"midi":38,"time":466.5,"velocity":0.3937007874015748},{"duration":0.375,"midi":63,"time":466.5,"velocity":0.3937007874015748},{"duration":0.375,"midi":72,"time":466.5,"velocity":0.3937007874015748},{"duration":0.375,"midi":45,"time":466.5,"velocity":0.3937007874015748},{"duration":0.375,"midi":61,"time":466.5,"velocity":0.3937007874015748},{"duration":0.375,"midi":64,"time":466.5,"velocity":0.3937007874015748},{"duration":0.375,"midi":51,"time":466.5,"velocity":0.3937007874015748},{"duration":0.375,"midi":85,"time":466.5,"velocity":0.3937007874015748},{"duration":0.375,"midi":83,"time":466.5,"velocity":0.3937007874015748},{"duration":0.375,"midi":46,"time":466.5,"velocity":0.3937007874015748},{"duration":0.375,"midi":50,"time":466.5,"velocity":0.3937007874015748},{"duration":0.375,"midi":80,"time":466.5,"velocity":0.3937007874015748},{"duration":0.375,"midi":82,"time":466.5,"velocity":0.3937007874015748},{"duration":0.375,"midi":84,"time":466.5,"velocity":0.3937007874015748},{"duration":0.375,"midi":27,"time":466.5,"velocity":0.3937007874015748},{"duration":0.375,"midi":74,"time":466.5,"velocity":0.3937007874015748},{"duration":0.375,"midi":73,"time":466.5,"velocity":0.3937007874015748},{"duration":0.375,"midi":66,"time":466.5,"velocity":0.3937007874015748},{"duration":0.3046875,"midi":33,"time":466.5,"velocity":0.3937007874015748},{"duration":0.375,"midi":52,"time":466.5,"velocity":0.3937007874015748},{"duration":0.3515625,"midi":40,"time":466.5,"velocity":0.3937007874015748},{"duration":0.375,"midi":68,"time":466.5,"velocity":0.3937007874015748},{"duration":0.234375,"midi":30,"time":466.5,"velocity":0.3937007874015748},{"duration":0.375,"midi":48,"time":466.5,"velocity":0.3937007874015748},{"duration":0.375,"midi":59,"time":466.5,"velocity":0.3937007874015748},{"duration":0.375,"midi":70,"time":466.5,"velocity":0.3937007874015748},{"duration":0.28125,"midi":89,"time":466.5,"velocity":0.3937007874015748},{"duration":0.3046875,"midi":34,"time":466.5234375,"velocity":0.3937007874015748},{"duration":0.3515625,"midi":92,"time":466.5234375,"velocity":0.3937007874015748},{"duration":0.3515625,"midi":29,"time":466.5234375,"velocity":0.3937007874015748},{"duration":0.3046875,"midi":35,"time":466.546875,"velocity":0.3937007874015748},{"duration":0.328125,"midi":30,"time":466.546875,"velocity":0.3937007874015748},{"duration":0.328125,"midi":91,"time":466.546875,"velocity":0.3937007874015748},{"duration":0.3046875,"midi":31,"time":466.5703125,"velocity":0.3937007874015748},{"duration":0.3046875,"midi":90,"time":466.5703125,"velocity":0.3937007874015748},{"duration":0.3046875,"midi":36,"time":466.5703125,"velocity":0.3937007874015748},{"duration":0.28125,"midi":89,"time":466.59375,"velocity":0.3937007874015748},{"duration":0.28125,"midi":32,"time":466.59375,"velocity":0.3937007874015748},{"duration":0.28125,"midi":37,"time":466.59375,"velocity":0.3937007874015748},{"duration":0.2578125,"midi":38,"time":466.6171875,"velocity":0.3937007874015748},{"duration":0.2578125,"midi":88,"time":466.6171875,"velocity":0.3937007874015748},{"duration":0.2578125,"midi":33,"time":466.6171875,"velocity":0.3937007874015748},{"duration":0.234375,"midi":39,"time":466.640625,"velocity":0.3937007874015748},{"duration":0.234375,"midi":34,"time":466.640625,"velocity":0.3937007874015748},{"duration":0.234375,"midi":87,"time":466.640625,"velocity":0.3937007874015748},{"duration":0.2109375,"midi":86,"time":466.6640625,"velocity":0.3937007874015748},{"duration":0.2109375,"midi":40,"time":466.6640625,"velocity":0.3937007874015748},{"duration":0.2109375,"midi":35,"time":466.6640625,"velocity":0.3937007874015748},{"duration":0.1875,"midi":85,"time":466.6875,"velocity":0.3937007874015748},{"duration":0.1875,"midi":25,"time":466.6875,"velocity":0.3937007874015748},{"duration":0.1875,"midi":85,"time":466.6875,"velocity":0.3937007874015748},{"duration":0.1875,"midi":61,"time":466.6875,"velocity":0.3937007874015748},{"duration":0.1875,"midi":58,"time":466.6875,"velocity":0.3937007874015748},{"duration":0.1875,"midi":37,"time":466.6875,"velocity":0.3937007874015748},{"duration":0.1875,"midi":82,"time":466.6875,"velocity":0.3937007874015748},{"duration":0.1875,"midi":36,"time":466.6875,"velocity":0.3937007874015748},{"duration":0.1875,"midi":70,"time":466.6875,"velocity":0.3937007874015748},{"duration":0.1875,"midi":94,"time":466.6875,"velocity":0.3937007874015748},{"duration":0.1875,"midi":34,"time":466.6875,"velocity":0.3937007874015748},{"duration":0.1875,"midi":73,"time":466.6875,"velocity":0.3937007874015748},{"duration":0.1875,"midi":49,"time":466.6875,"velocity":0.3937007874015748},{"duration":0.1875,"midi":46,"time":466.6875,"velocity":0.3937007874015748},{"duration":0.1875,"midi":41,"time":466.6875,"velocity":0.3937007874015748},{"duration":0.1875,"midi":37,"time":466.7109375,"velocity":0.3937007874015748},{"duration":0.1875,"midi":42,"time":466.7109375,"velocity":0.3937007874015748},{"duration":0.1875,"midi":84,"time":466.7109375,"velocity":0.3937007874015748},{"duration":0.1875,"midi":38,"time":466.734375,"velocity":0.3937007874015748},{"duration":0.1875,"midi":83,"time":466.734375,"velocity":0.3937007874015748},{"duration":0.1875,"midi":43,"time":466.734375,"velocity":0.3937007874015748},{"duration":0.1875,"midi":44,"time":466.7578125,"velocity":0.3937007874015748},{"duration":0.1875,"midi":39,"time":466.7578125,"velocity":0.3937007874015748},{"duration":0.1875,"midi":82,"time":466.7578125,"velocity":0.3937007874015748},{"duration":0.1875,"midi":81,"time":466.78125,"velocity":0.3937007874015748},{"duration":0.1875,"midi":45,"time":466.78125,"velocity":0.3937007874015748},{"duration":0.1875,"midi":40,"time":466.78125,"velocity":0.3937007874015748},{"duration":0.1875,"midi":46,"time":466.8046875,"velocity":0.3937007874015748},{"duration":0.1875,"midi":80,"time":466.8046875,"velocity":0.3937007874015748},{"duration":0.1875,"midi":41,"time":466.8046875,"velocity":0.3937007874015748},{"duration":0.1875,"midi":42,"time":466.828125,"velocity":0.3937007874015748},{"duration":0.1875,"midi":79,"time":466.828125,"velocity":0.3937007874015748},{"duration":0.1875,"midi":47,"time":466.828125,"velocity":0.3937007874015748},{"duration":0.1875,"midi":43,"time":466.8515625,"velocity":0.3937007874015748},{"duration":0.1875,"midi":78,"time":466.8515625,"velocity":0.3937007874015748},{"duration":0.1875,"midi":48,"time":466.8515625,"velocity":0.3937007874015748},{"duration":0.1875,"midi":26,"time":466.875,"velocity":0.3937007874015748},{"duration":0.1875,"midi":69,"time":466.875,"velocity":0.3937007874015748},{"duration":0.1875,"midi":81,"time":466.875,"velocity":0.3937007874015748},{"duration":0.1875,"midi":45,"time":466.875,"velocity":0.3937007874015748},{"duration":0.1875,"midi":38,"time":466.875,"velocity":0.3937007874015748},{"duration":0.1875,"midi":50,"time":466.875,"velocity":0.3937007874015748},{"duration":0.1875,"midi":49,"time":466.875,"velocity":0.3937007874015748},{"duration":0.1875,"midi":57,"time":466.875,"velocity":0.3937007874015748},{"duration":0.1875,"midi":34,"time":466.875,"velocity":0.3937007874015748},{"duration":0.1875,"midi":86,"time":466.875,"velocity":0.3937007874015748},{"duration":0.1875,"midi":33,"time":466.875,"velocity":0.3937007874015748},{"duration":0.1875,"midi":77,"time":466.875,"velocity":0.3937007874015748},{"duration":0.1875,"midi":93,"time":466.875,"velocity":0.3937007874015748},{"duration":0.1875,"midi":62,"time":466.875,"velocity":0.3937007874015748},{"duration":0.1875,"midi":44,"time":466.875,"velocity":0.3937007874015748},{"duration":0.1875,"midi":33,"time":466.875,"velocity":0.3937007874015748},{"duration":0.1875,"midi":74,"time":466.875,"velocity":0.3937007874015748},{"duration":0.1875,"midi":35,"time":466.8984375,"velocity":0.3937007874015748},{"duration":0.1875,"midi":50,"time":466.8984375,"velocity":0.3937007874015748},{"duration":0.1875,"midi":76,"time":466.8984375,"velocity":0.3937007874015748},{"duration":0.1875,"midi":45,"time":466.8984375,"velocity":0.3937007874015748},{"duration":0.1875,"midi":46,"time":466.921875,"velocity":0.3937007874015748},{"duration":0.1875,"midi":51,"time":466.921875,"velocity":0.3937007874015748},{"duration":0.1875,"midi":36,"time":466.921875,"velocity":0.3937007874015748},{"duration":0.1875,"midi":75,"time":466.921875,"velocity":0.3937007874015748},{"duration":0.1875,"midi":47,"time":466.9453125,"velocity":0.3937007874015748},{"duration":0.1875,"midi":37,"time":466.9453125,"velocity":0.3937007874015748},{"duration":0.1875,"midi":52,"time":466.9453125,"velocity":0.3937007874015748},{"duration":0.1875,"midi":74,"time":466.9453125,"velocity":0.3937007874015748},{"duration":0.1875,"midi":73,"time":466.96875,"velocity":0.3937007874015748},{"duration":0.1875,"midi":48,"time":466.96875,"velocity":0.3937007874015748},{"duration":0.1875,"midi":38,"time":466.96875,"velocity":0.3937007874015748},{"duration":0.1875,"midi":53,"time":466.96875,"velocity":0.3937007874015748},{"duration":0.1875,"midi":72,"time":466.9921875,"velocity":0.3937007874015748},{"duration":0.1875,"midi":49,"time":466.9921875,"velocity":0.3937007874015748},{"duration":0.1875,"midi":39,"time":466.9921875,"velocity":0.3937007874015748},{"duration":0.1875,"midi":54,"time":466.9921875,"velocity":0.3937007874015748},{"duration":0.1875,"midi":50,"time":467.015625,"velocity":0.3937007874015748},{"duration":0.1875,"midi":40,"time":467.015625,"velocity":0.3937007874015748},{"duration":0.1875,"midi":71,"time":467.015625,"velocity":0.3937007874015748},{"duration":0.1875,"midi":55,"time":467.015625,"velocity":0.3937007874015748},{"duration":0.1875,"midi":70,"time":467.0390625,"velocity":0.3937007874015748},{"duration":0.1875,"midi":41,"time":467.0390625,"velocity":0.3937007874015748},{"duration":0.1875,"midi":51,"time":467.0390625,"velocity":0.3937007874015748},{"duration":0.1875,"midi":56,"time":467.0390625,"velocity":0.3937007874015748},{"duration":0.1875,"midi":42,"time":467.0625,"velocity":0.3937007874015748},{"duration":0.1875,"midi":44,"time":467.0625,"velocity":0.3937007874015748},{"duration":0.1875,"midi":34,"time":467.0625,"velocity":0.3937007874015748},{"duration":0.1875,"midi":57,"time":467.0625,"velocity":0.3937007874015748},{"duration":0.1875,"midi":69,"time":467.0625,"velocity":0.3937007874015748},{"duration":0.1875,"midi":52,"time":467.0625,"velocity":0.3937007874015748},{"duration":0.1875,"midi":68,"time":467.0625,"velocity":0.3937007874015748},{"duration":0.1875,"midi":32,"time":467.0625,"velocity":0.3937007874015748},{"duration":0.1875,"midi":75,"time":467.0625,"velocity":0.3937007874015748},{"duration":0.1875,"midi":51,"time":467.0625,"velocity":0.3937007874015748},{"duration":0.1875,"midi":39,"time":467.0625,"velocity":0.3937007874015748},{"duration":0.1875,"midi":27,"time":467.0625,"velocity":0.3937007874015748},{"duration":0.1875,"midi":92,"time":467.0625,"velocity":0.3937007874015748},{"duration":0.1875,"midi":56,"time":467.0625,"velocity":0.3937007874015748},{"duration":0.1875,"midi":87,"time":467.0625,"velocity":0.3937007874015748},{"duration":0.1875,"midi":80,"time":467.0625,"velocity":0.3937007874015748},{"duration":0.1875,"midi":63,"time":467.0625,"velocity":0.3937007874015748},{"duration":0.1875,"midi":68,"time":467.0859375,"velocity":0.3937007874015748},{"duration":0.1875,"midi":43,"time":467.0859375,"velocity":0.3937007874015748},{"duration":0.1875,"midi":58,"time":467.0859375,"velocity":0.3937007874015748},{"duration":0.1875,"midi":35,"time":467.0859375,"velocity":0.3937007874015748},{"duration":0.1875,"midi":53,"time":467.0859375,"velocity":0.3937007874015748},{"duration":0.1875,"midi":67,"time":467.109375,"velocity":0.3937007874015748},{"duration":0.1875,"midi":44,"time":467.109375,"velocity":0.3937007874015748},{"duration":0.1875,"midi":59,"time":467.109375,"velocity":0.3937007874015748},{"duration":0.1875,"midi":36,"time":467.109375,"velocity":0.3937007874015748},{"duration":0.1875,"midi":54,"time":467.109375,"velocity":0.3937007874015748},{"duration":0.1875,"midi":55,"time":467.1328125,"velocity":0.3937007874015748},{"duration":0.1875,"midi":45,"time":467.1328125,"velocity":0.3937007874015748},{"duration":0.1875,"midi":66,"time":467.1328125,"velocity":0.3937007874015748},{"duration":0.1875,"midi":37,"time":467.1328125,"velocity":0.3937007874015748},{"duration":0.1875,"midi":60,"time":467.1328125,"velocity":0.3937007874015748},{"duration":0.1875,"midi":65,"time":467.15625,"velocity":0.3937007874015748},{"duration":0.1875,"midi":46,"time":467.15625,"velocity":0.3937007874015748},{"duration":0.1875,"midi":38,"time":467.15625,"velocity":0.3937007874015748},{"duration":0.1875,"midi":56,"time":467.15625,"velocity":0.3937007874015748},{"duration":0.1875,"midi":61,"time":467.15625,"velocity":0.3937007874015748},{"duration":0.1875,"midi":62,"time":467.1796875,"velocity":0.3937007874015748},{"duration":0.1875,"midi":57,"time":467.1796875,"velocity":0.3937007874015748},{"duration":0.1875,"midi":64,"time":467.1796875,"velocity":0.3937007874015748},{"duration":0.1875,"midi":47,"time":467.1796875,"velocity":0.3937007874015748},{"duration":0.1875,"midi":39,"time":467.1796875,"velocity":0.3937007874015748},{"duration":0.1875,"midi":48,"time":467.203125,"velocity":0.3937007874015748},{"duration":0.1875,"midi":63,"time":467.203125,"velocity":0.3937007874015748},{"duration":0.1875,"midi":63,"time":467.203125,"velocity":0.3937007874015748},{"duration":0.1875,"midi":40,"time":467.203125,"velocity":0.3937007874015748},{"duration":0.1875,"midi":58,"time":467.203125,"velocity":0.3937007874015748},{"duration":0.1875,"midi":59,"time":467.2265625,"velocity":0.3937007874015748},{"duration":0.1875,"midi":62,"time":467.2265625,"velocity":0.3937007874015748},{"duration":0.1875,"midi":49,"time":467.2265625,"velocity":0.3937007874015748},{"duration":0.1875,"midi":64,"time":467.2265625,"velocity":0.3937007874015748},{"duration":0.1875,"midi":41,"time":467.2265625,"velocity":0.3937007874015748},{"duration":0.1875,"midi":76,"time":467.25,"velocity":0.3937007874015748},{"duration":0.1875,"midi":28,"time":467.25,"velocity":0.3937007874015748},{"duration":0.1875,"midi":42,"time":467.25,"velocity":0.3937007874015748},{"duration":0.1875,"midi":43,"time":467.25,"velocity":0.3937007874015748},{"duration":0.1875,"midi":79,"time":467.25,"velocity":0.3937007874015748},{"duration":0.1875,"midi":65,"time":467.25,"velocity":0.3937007874015748},{"duration":0.1875,"midi":61,"time":467.25,"velocity":0.3937007874015748},{"duration":0.1875,"midi":34,"time":467.25,"velocity":0.3937007874015748},{"duration":0.1875,"midi":31,"time":467.25,"velocity":0.3937007874015748},{"duration":0.1875,"midi":64,"time":467.25,"velocity":0.3937007874015748},{"duration":0.1875,"midi":60,"time":467.25,"velocity":0.3937007874015748},{"duration":0.1875,"midi":40,"time":467.25,"velocity":0.3937007874015748},{"duration":0.1875,"midi":50,"time":467.25,"velocity":0.3937007874015748},{"duration":0.1875,"midi":52,"time":467.25,"velocity":0.3937007874015748},{"duration":0.1875,"midi":88,"time":467.25,"velocity":0.3937007874015748},{"duration":0.1875,"midi":91,"time":467.25,"velocity":0.3937007874015748},{"duration":0.1875,"midi":67,"time":467.25,"velocity":0.3937007874015748},{"duration":0.1875,"midi":55,"time":467.25,"velocity":0.3937007874015748},{"duration":0.1875,"midi":60,"time":467.2734375,"velocity":0.3937007874015748},{"duration":0.1875,"midi":51,"time":467.2734375,"velocity":0.3937007874015748},{"duration":0.1875,"midi":43,"time":467.2734375,"velocity":0.3937007874015748},{"duration":0.1875,"midi":66,"time":467.2734375,"velocity":0.3937007874015748},{"duration":0.1875,"midi":35,"time":467.2734375,"velocity":0.3937007874015748},{"duration":0.1875,"midi":61,"time":467.2734375,"velocity":0.3937007874015748},{"duration":0.1875,"midi":59,"time":467.296875,"velocity":0.3937007874015748},{"duration":0.1875,"midi":36,"time":467.296875,"velocity":0.3937007874015748},{"duration":0.1875,"midi":67,"time":467.296875,"velocity":0.3937007874015748},{"duration":0.1875,"midi":52,"time":467.296875,"velocity":0.3937007874015748},{"duration":0.1875,"midi":44,"time":467.296875,"velocity":0.3937007874015748},{"duration":0.1875,"midi":62,"time":467.296875,"velocity":0.3937007874015748},{"duration":0.1875,"midi":45,"time":467.3203125,"velocity":0.3937007874015748},{"duration":0.1875,"midi":53,"time":467.3203125,"velocity":0.3937007874015748},{"duration":0.1875,"midi":63,"time":467.3203125,"velocity":0.3937007874015748},{"duration":0.1875,"midi":68,"time":467.3203125,"velocity":0.3937007874015748},{"duration":0.1875,"midi":58,"time":467.3203125,"velocity":0.3937007874015748},{"duration":0.1875,"midi":37,"time":467.3203125,"velocity":0.3937007874015748},{"duration":0.1875,"midi":64,"time":467.34375,"velocity":0.3937007874015748},{"duration":0.1875,"midi":69,"time":467.34375,"velocity":0.3937007874015748},{"duration":0.1875,"midi":57,"time":467.34375,"velocity":0.3937007874015748},{"duration":0.1875,"midi":46,"time":467.34375,"velocity":0.3937007874015748},{"duration":0.1875,"midi":54,"time":467.34375,"velocity":0.3937007874015748},{"duration":0.1875,"midi":38,"time":467.34375,"velocity":0.3937007874015748},{"duration":0.1875,"midi":39,"time":467.3671875,"velocity":0.3937007874015748},{"duration":0.1875,"midi":55,"time":467.3671875,"velocity":0.3937007874015748},{"duration":0.1875,"midi":65,"time":467.3671875,"velocity":0.3937007874015748},{"duration":0.1875,"midi":70,"time":467.3671875,"velocity":0.3937007874015748},{"duration":0.1875,"midi":47,"time":467.3671875,"velocity":0.3937007874015748},{"duration":0.1875,"midi":56,"time":467.3671875,"velocity":0.3937007874015748},{"duration":0.1875,"midi":56,"time":467.390625,"velocity":0.3937007874015748},{"duration":0.1875,"midi":71,"time":467.390625,"velocity":0.3937007874015748},{"duration":0.1875,"midi":55,"time":467.390625,"velocity":0.3937007874015748},{"duration":0.1875,"midi":66,"time":467.390625,"velocity":0.3937007874015748},{"duration":0.1875,"midi":48,"time":467.390625,"velocity":0.3937007874015748},{"duration":0.1875,"midi":40,"time":467.390625,"velocity":0.3937007874015748},{"duration":0.1875,"midi":57,"time":467.4140625,"velocity":0.3937007874015748},{"duration":0.1875,"midi":49,"time":467.4140625,"velocity":0.3937007874015748},{"duration":0.1875,"midi":72,"time":467.4140625,"velocity":0.3937007874015748},{"duration":0.1875,"midi":41,"time":467.4140625,"velocity":0.3937007874015748},{"duration":0.1875,"midi":67,"time":467.4140625,"velocity":0.3937007874015748},{"duration":0.1875,"midi":54,"time":467.4140625,"velocity":0.3937007874015748},{"duration":0.1875,"midi":54,"time":467.4375,"velocity":0.3937007874015748},{"duration":0.1875,"midi":89,"time":467.4375,"velocity":0.3937007874015748},{"duration":0.1875,"midi":65,"time":467.4375,"velocity":0.3937007874015748},{"duration":0.1875,"midi":53,"time":467.4375,"velocity":0.3937007874015748},{"duration":0.1875,"midi":42,"time":467.4375,"velocity":0.3937007874015748},{"duration":0.1875,"midi":42,"time":467.4375,"velocity":0.3937007874015748},{"duration":0.1875,"midi":78,"time":467.4375,"velocity":0.3937007874015748},{"duration":0.1875,"midi":58,"time":467.4375,"velocity":0.3937007874015748},{"duration":0.1875,"midi":30,"time":467.4375,"velocity":0.3937007874015748},{"duration":0.1875,"midi":34,"time":467.4375,"velocity":0.3937007874015748},{"duration":0.1875,"midi":68,"time":467.4375,"velocity":0.3937007874015748},{"duration":0.1875,"midi":90,"time":467.4375,"velocity":0.3937007874015748},{"duration":0.1875,"midi":29,"time":467.4375,"velocity":0.3937007874015748},{"duration":0.1875,"midi":77,"time":467.4375,"velocity":0.3937007874015748},{"duration":0.1875,"midi":53,"time":467.4375,"velocity":0.3937007874015748},{"duration":0.1875,"midi":50,"time":467.4375,"velocity":0.3937007874015748},{"duration":0.1875,"midi":41,"time":467.4375,"velocity":0.3937007874015748},{"duration":0.1875,"midi":66,"time":467.4375,"velocity":0.3937007874015748},{"duration":0.1875,"midi":73,"time":467.4375,"velocity":0.3937007874015748},{"duration":0.1875,"midi":69,"time":467.4609375,"velocity":0.3937007874015748},{"duration":0.1875,"midi":52,"time":467.4609375,"velocity":0.3937007874015748},{"duration":0.1875,"midi":59,"time":467.4609375,"velocity":0.3937007874015748},{"duration":0.1875,"midi":35,"time":467.4609375,"velocity":0.3937007874015748},{"duration":0.1875,"midi":74,"time":467.4609375,"velocity":0.3937007874015748},{"duration":0.1875,"midi":51,"time":467.4609375,"velocity":0.3937007874015748},{"duration":0.1875,"midi":43,"time":467.4609375,"velocity":0.3937007874015748},{"duration":0.1875,"midi":70,"time":467.484375,"velocity":0.3937007874015748},{"duration":0.1875,"midi":51,"time":467.484375,"velocity":0.3937007874015748},{"duration":0.1875,"midi":36,"time":467.484375,"velocity":0.3937007874015748},{"duration":0.1875,"midi":75,"time":467.484375,"velocity":0.3937007874015748},{"duration":0.1875,"midi":52,"time":467.484375,"velocity":0.3937007874015748},{"duration":0.1875,"midi":60,"time":467.484375,"velocity":0.3937007874015748},{"duration":0.1875,"midi":44,"time":467.484375,"velocity":0.3937007874015748},{"duration":0.1875,"midi":50,"time":467.5078125,"velocity":0.3937007874015748},{"duration":0.1875,"midi":61,"time":467.5078125,"velocity":0.3937007874015748},{"duration":0.1875,"midi":76,"time":467.5078125,"velocity":0.3937007874015748},{"duration":0.1875,"midi":71,"time":467.5078125,"velocity":0.3937007874015748},{"duration":0.1875,"midi":37,"time":467.5078125,"velocity":0.3937007874015748},{"duration":0.1875,"midi":53,"time":467.5078125,"velocity":0.3937007874015748},{"duration":0.1875,"midi":45,"time":467.5078125,"velocity":0.3937007874015748},{"duration":0.1875,"midi":49,"time":467.53125,"velocity":0.3937007874015748},{"duration":0.1875,"midi":46,"time":467.53125,"velocity":0.3937007874015748},{"duration":0.1875,"midi":38,"time":467.53125,"velocity":0.3937007874015748},{"duration":0.1875,"midi":62,"time":467.53125,"velocity":0.3937007874015748},{"duration":0.1875,"midi":72,"time":467.53125,"velocity":0.3937007874015748},{"duration":0.1875,"midi":54,"time":467.53125,"velocity":0.3937007874015748},{"duration":0.1875,"midi":77,"time":467.53125,"velocity":0.3937007874015748},{"duration":0.1875,"midi":48,"time":467.5546875,"velocity":0.3937007874015748},{"duration":0.1875,"midi":39,"time":467.5546875,"velocity":0.3937007874015748},{"duration":0.1875,"midi":63,"time":467.5546875,"velocity":0.3937007874015748},{"duration":0.1875,"midi":47,"time":467.5546875,"velocity":0.3937007874015748},{"duration":0.1875,"midi":55,"time":467.5546875,"velocity":0.3937007874015748},{"duration":0.1875,"midi":78,"time":467.5546875,"velocity":0.3937007874015748},{"duration":0.1875,"midi":73,"time":467.5546875,"velocity":0.3937007874015748},{"duration":0.1875,"midi":48,"time":467.578125,"velocity":0.3937007874015748},{"duration":0.1875,"midi":40,"time":467.578125,"velocity":0.3937007874015748},{"duration":0.1875,"midi":64,"time":467.578125,"velocity":0.3937007874015748},{"duration":0.1875,"midi":47,"time":467.578125,"velocity":0.3937007874015748},{"duration":0.1875,"midi":56,"time":467.578125,"velocity":0.3937007874015748},{"duration":0.1875,"midi":74,"time":467.578125,"velocity":0.3937007874015748},{"duration":0.1875,"midi":79,"time":467.578125,"velocity":0.3937007874015748},{"duration":0.1875,"midi":46,"time":467.6015625,"velocity":0.3937007874015748},{"duration":0.1875,"midi":57,"time":467.6015625,"velocity":0.3937007874015748},{"duration":0.1875,"midi":65,"time":467.6015625,"velocity":0.3937007874015748},{"duration":0.1875,"midi":75,"time":467.6015625,"velocity":0.3937007874015748},{"duration":0.1875,"midi":49,"time":467.6015625,"velocity":0.3937007874015748},{"duration":0.1875,"midi":41,"time":467.6015625,"velocity":0.3937007874015748},{"duration":0.1875,"midi":80,"time":467.6015625,"velocity":0.3937007874015748},{"duration":0.1875,"midi":42,"time":467.625,"velocity":0.3937007874015748},{"duration":0.1875,"midi":58,"time":467.625,"velocity":0.3937007874015748},{"duration":0.1875,"midi":66,"time":467.625,"velocity":0.3937007874015748},{"duration":0.1875,"midi":42,"time":467.625,"velocity":0.3937007874015748},{"duration":0.1875,"midi":29,"time":467.625,"velocity":0.3937007874015748},{"duration":0.1875,"midi":77,"time":467.625,"velocity":0.3937007874015748},{"duration":0.1875,"midi":65,"time":467.625,"velocity":0.3937007874015748},{"duration":0.1875,"midi":45,"time":467.625,"velocity":0.3937007874015748},{"duration":0.1875,"midi":90,"time":467.625,"velocity":0.3937007874015748},{"duration":0.1875,"midi":34,"time":467.625,"velocity":0.3937007874015748},{"duration":0.1875,"midi":50,"time":467.625,"velocity":0.3937007874015748},{"duration":0.1875,"midi":89,"time":467.625,"velocity":0.3937007874015748},{"duration":0.1875,"midi":30,"time":467.625,"velocity":0.3937007874015748},{"duration":0.1875,"midi":76,"time":467.625,"velocity":0.3937007874015748},{"duration":0.1875,"midi":78,"time":467.625,"velocity":0.3937007874015748},{"duration":0.1875,"midi":53,"time":467.625,"velocity":0.3937007874015748},{"duration":0.1875,"midi":54,"time":467.625,"velocity":0.3937007874015748},{"duration":0.1875,"midi":41,"time":467.625,"velocity":0.3937007874015748},{"duration":0.1875,"midi":81,"time":467.625,"velocity":0.3937007874015748},{"duration":0.1875,"midi":66,"time":467.625,"velocity":0.3937007874015748},{"duration":0.1875,"midi":51,"time":467.6484375,"velocity":0.3937007874015748},{"duration":0.1875,"midi":82,"time":467.6484375,"velocity":0.3937007874015748},{"duration":0.1875,"midi":43,"time":467.6484375,"velocity":0.3937007874015748},{"duration":0.1875,"midi":44,"time":467.6484375,"velocity":0.3937007874015748},{"duration":0.1875,"midi":59,"time":467.6484375,"velocity":0.3937007874015748},{"duration":0.1875,"midi":35,"time":467.6484375,"velocity":0.3937007874015748},{"duration":0.1875,"midi":77,"time":467.6484375,"velocity":0.3937007874015748},{"duration":0.1875,"midi":67,"time":467.6484375,"velocity":0.3937007874015748},{"duration":0.1875,"midi":52,"time":467.671875,"velocity":0.3937007874015748},{"duration":0.1875,"midi":43,"time":467.671875,"velocity":0.3937007874015748},{"duration":0.1875,"midi":83,"time":467.671875,"velocity":0.3937007874015748},{"duration":0.1875,"midi":78,"time":467.671875,"velocity":0.3937007874015748},{"duration":0.1875,"midi":36,"time":467.671875,"velocity":0.3937007874015748},{"duration":0.1875,"midi":60,"time":467.671875,"velocity":0.3937007874015748},{"duration":0.1875,"midi":68,"time":467.671875,"velocity":0.3937007874015748},{"duration":0.1875,"midi":44,"time":467.671875,"velocity":0.3937007874015748},{"duration":0.1875,"midi":61,"time":467.6953125,"velocity":0.3937007874015748},{"duration":0.1875,"midi":42,"time":467.6953125,"velocity":0.3937007874015748},{"duration":0.1875,"midi":84,"time":467.6953125,"velocity":0.3937007874015748},{"duration":0.1875,"midi":53,"time":467.6953125,"velocity":0.3937007874015748},{"duration":0.1875,"midi":37,"time":467.6953125,"velocity":0.3937007874015748},{"duration":0.1875,"midi":69,"time":467.6953125,"velocity":0.3937007874015748},{"duration":0.1875,"midi":45,"time":467.6953125,"velocity":0.3937007874015748},{"duration":0.1875,"midi":79,"time":467.6953125,"velocity":0.3937007874015748},{"duration":0.1875,"midi":46,"time":467.71875,"velocity":0.3937007874015748},{"duration":0.1875,"midi":41,"time":467.71875,"velocity":0.3937007874015748},{"duration":0.1875,"midi":54,"time":467.71875,"velocity":0.3937007874015748},{"duration":0.1875,"midi":70,"time":467.71875,"velocity":0.3937007874015748},{"duration":0.1875,"midi":62,"time":467.71875,"velocity":0.3937007874015748},{"duration":0.1875,"midi":85,"time":467.71875,"velocity":0.3937007874015748},{"duration":0.1875,"midi":38,"time":467.71875,"velocity":0.3937007874015748},{"duration":0.1875,"midi":80,"time":467.71875,"velocity":0.3937007874015748},{"duration":0.1875,"midi":40,"time":467.7421875,"velocity":0.3937007874015748},{"duration":0.1875,"midi":63,"time":467.7421875,"velocity":0.3937007874015748},{"duration":0.1875,"midi":47,"time":467.7421875,"velocity":0.3937007874015748},{"duration":0.1875,"midi":86,"time":467.7421875,"velocity":0.3937007874015748},{"duration":0.1875,"midi":71,"time":467.7421875,"velocity":0.3937007874015748},{"duration":0.1875,"midi":81,"time":467.7421875,"velocity":0.3937007874015748},{"duration":0.1875,"midi":55,"time":467.7421875,"velocity":0.3937007874015748},{"duration":0.1875,"midi":39,"time":467.7421875,"velocity":0.3937007874015748},{"duration":0.1875,"midi":48,"time":467.765625,"velocity":0.3937007874015748},{"duration":0.1875,"midi":82,"time":467.765625,"velocity":0.3937007874015748},{"duration":0.1875,"midi":72,"time":467.765625,"velocity":0.3937007874015748},{"duration":0.1875,"midi":40,"time":467.765625,"velocity":0.3937007874015748},{"duration":0.1875,"midi":56,"time":467.765625,"velocity":0.3937007874015748},{"duration":0.1875,"midi":64,"time":467.765625,"velocity":0.3937007874015748},{"duration":0.1875,"midi":87,"time":467.765625,"velocity":0.3937007874015748},{"duration":0.1875,"midi":39,"time":467.765625,"velocity":0.3937007874015748},{"duration":0.1875,"midi":38,"time":467.7890625,"velocity":0.3937007874015748},{"duration":0.1875,"midi":73,"time":467.7890625,"velocity":0.3937007874015748},{"duration":0.1875,"midi":65,"time":467.7890625,"velocity":0.3937007874015748},{"duration":0.1875,"midi":41,"time":467.7890625,"velocity":0.3937007874015748},{"duration":0.1875,"midi":57,"time":467.7890625,"velocity":0.3937007874015748},{"duration":0.1875,"midi":83,"time":467.7890625,"velocity":0.3937007874015748},{"duration":0.1875,"midi":88,"time":467.7890625,"velocity":0.3937007874015748},{"duration":0.1875,"midi":49,"time":467.7890625,"velocity":0.3937007874015748},{"duration":0.1875,"midi":64,"time":467.8125,"velocity":0.3937007874015748},{"duration":0.1875,"midi":31,"time":467.8125,"velocity":0.3937007874015748},{"duration":0.1875,"midi":40,"time":467.8125,"velocity":0.3937007874015748},{"duration":0.1875,"midi":76,"time":467.8125,"velocity":0.3937007874015748},{"duration":0.1875,"midi":50,"time":467.8125,"velocity":0.3937007874015748},{"duration":0.1875,"midi":84,"time":467.8125,"velocity":0.3937007874015748},{"duration":0.1875,"midi":28,"time":467.8125,"velocity":0.3937007874015748},{"duration":0.1875,"midi":74,"time":467.8125,"velocity":0.3937007874015748},{"duration":0.1875,"midi":37,"time":467.8125,"velocity":0.3937007874015748},{"duration":0.1875,"midi":43,"time":467.8125,"velocity":0.3937007874015748},{"duration":0.1875,"midi":67,"time":467.8125,"velocity":0.3937007874015748},{"duration":0.1875,"midi":88,"time":467.8125,"velocity":0.3937007874015748},{"duration":0.1875,"midi":42,"time":467.8125,"velocity":0.3937007874015748},{"duration":0.1875,"midi":58,"time":467.8125,"velocity":0.3937007874015748},{"duration":0.1875,"midi":55,"time":467.8125,"velocity":0.3937007874015748},{"duration":0.1875,"midi":52,"time":467.8125,"velocity":0.3937007874015748},{"duration":0.1875,"midi":89,"time":467.8125,"velocity":0.3937007874015748},{"duration":0.1875,"midi":66,"time":467.8125,"velocity":0.3937007874015748},{"duration":0.1875,"midi":79,"time":467.8125,"velocity":0.3937007874015748},{"duration":0.1875,"midi":91,"time":467.8125,"velocity":0.3937007874015748},{"duration":0.1875,"midi":59,"time":467.8359375,"velocity":0.3937007874015748},{"duration":0.1875,"midi":75,"time":467.8359375,"velocity":0.3937007874015748},{"duration":0.1875,"midi":51,"time":467.8359375,"velocity":0.3937007874015748},{"duration":0.1875,"midi":67,"time":467.8359375,"velocity":0.3937007874015748},{"duration":0.1875,"midi":90,"time":467.8359375,"velocity":0.3937007874015748},{"duration":0.1875,"midi":85,"time":467.8359375,"velocity":0.3937007874015748},{"duration":0.1875,"midi":43,"time":467.8359375,"velocity":0.3937007874015748},{"duration":0.1875,"midi":36,"time":467.8359375,"velocity":0.3937007874015748},{"duration":0.1875,"midi":52,"time":467.859375,"velocity":0.3937007874015748},{"duration":0.1875,"midi":60,"time":467.859375,"velocity":0.3937007874015748},{"duration":0.1875,"midi":76,"time":467.859375,"velocity":0.3937007874015748},{"duration":0.1875,"midi":44,"time":467.859375,"velocity":0.3937007874015748},{"duration":0.1875,"midi":91,"time":467.859375,"velocity":0.3937007874015748},{"duration":0.1875,"midi":86,"time":467.859375,"velocity":0.3937007874015748},{"duration":0.1875,"midi":68,"time":467.859375,"velocity":0.3937007874015748},{"duration":0.1875,"midi":35,"time":467.859375,"velocity":0.3937007874015748},{"duration":0.1875,"midi":53,"time":467.8828125,"velocity":0.3937007874015748},{"duration":0.1875,"midi":34,"time":467.8828125,"velocity":0.3937007874015748},{"duration":0.1875,"midi":45,"time":467.8828125,"velocity":0.3937007874015748},{"duration":0.1875,"midi":87,"time":467.8828125,"velocity":0.3937007874015748},{"duration":0.1875,"midi":92,"time":467.8828125,"velocity":0.3937007874015748},{"duration":0.1875,"midi":61,"time":467.8828125,"velocity":0.3937007874015748},{"duration":0.1875,"midi":77,"time":467.8828125,"velocity":0.3937007874015748},{"duration":0.1875,"midi":69,"time":467.8828125,"velocity":0.3937007874015748},{"duration":0.1875,"midi":78,"time":467.90625,"velocity":0.3937007874015748},{"duration":0.1875,"midi":93,"time":467.90625,"velocity":0.3937007874015748},{"duration":0.1875,"midi":54,"time":467.90625,"velocity":0.3937007874015748},{"duration":0.1875,"midi":88,"time":467.90625,"velocity":0.3937007874015748},{"duration":0.1875,"midi":62,"time":467.90625,"velocity":0.3937007874015748},{"duration":0.1875,"midi":46,"time":467.90625,"velocity":0.3937007874015748},{"duration":0.1875,"midi":70,"time":467.90625,"velocity":0.3937007874015748},{"duration":0.1875,"midi":33,"time":467.90625,"velocity":0.3937007874015748},{"duration":0.1875,"midi":89,"time":467.9296875,"velocity":0.3937007874015748},{"duration":0.1875,"midi":71,"time":467.9296875,"velocity":0.3937007874015748},{"duration":0.1875,"midi":32,"time":467.9296875,"velocity":0.3937007874015748},{"duration":0.1875,"midi":94,"time":467.9296875,"velocity":0.3937007874015748},{"duration":0.1875,"midi":47,"time":467.9296875,"velocity":0.3937007874015748},{"duration":0.1875,"midi":55,"time":467.9296875,"velocity":0.3937007874015748},{"duration":0.1875,"midi":63,"time":467.9296875,"velocity":0.3937007874015748},{"duration":0.1875,"midi":79,"time":467.9296875,"velocity":0.3937007874015748},{"duration":0.1875,"midi":95,"time":467.953125,"velocity":0.3937007874015748},{"duration":0.1875,"midi":80,"time":467.953125,"velocity":0.3937007874015748},{"duration":0.1875,"midi":72,"time":467.953125,"velocity":0.3937007874015748},{"duration":0.1875,"midi":56,"time":467.953125,"velocity":0.3937007874015748},{"duration":0.1875,"midi":48,"time":467.953125,"velocity":0.3937007874015748},{"duration":0.1875,"midi":31,"time":467.953125,"velocity":0.3937007874015748},{"duration":0.1875,"midi":90,"time":467.953125,"velocity":0.3937007874015748},{"duration":0.1875,"midi":64,"time":467.953125,"velocity":0.3937007874015748},{"duration":0.1875,"midi":65,"time":467.9765625,"velocity":0.3937007874015748},{"duration":0.1875,"midi":57,"time":467.9765625,"velocity":0.3937007874015748},{"duration":0.1875,"midi":30,"time":467.9765625,"velocity":0.3937007874015748},{"duration":0.1875,"midi":73,"time":467.9765625,"velocity":0.3937007874015748},{"duration":0.1875,"midi":91,"time":467.9765625,"velocity":0.3937007874015748},{"duration":0.1875,"midi":49,"time":467.9765625,"velocity":0.3937007874015748},{"duration":0.1875,"midi":81,"time":467.9765625,"velocity":0.3937007874015748},{"duration":0.1875,"midi":28,"time":468,"velocity":0.3937007874015748},{"duration":0.1875,"midi":93,"time":468,"velocity":0.3937007874015748},{"duration":0.1875,"midi":63,"time":468,"velocity":0.3937007874015748},{"duration":0.1875,"midi":32,"time":468,"velocity":0.3937007874015748},{"duration":0.1875,"midi":92,"time":468,"velocity":0.3937007874015748},{"duration":0.1875,"midi":44,"time":468,"velocity":0.3937007874015748},{"duration":0.1875,"midi":50,"time":468,"velocity":0.3937007874015748},{"duration":0.1875,"midi":51,"time":468,"velocity":0.3937007874015748},{"duration":0.1875,"midi":80,"time":468,"velocity":0.3937007874015748},{"duration":0.1875,"midi":39,"time":468,"velocity":0.3937007874015748},{"duration":0.1875,"midi":74,"time":468,"velocity":0.3937007874015748},{"duration":0.1875,"midi":75,"time":468,"velocity":0.3937007874015748},{"duration":0.1875,"midi":87,"time":468,"velocity":0.3937007874015748},{"duration":0.1875,"midi":27,"time":468,"velocity":0.3937007874015748},{"duration":0.1875,"midi":56,"time":468,"velocity":0.3937007874015748},{"duration":0.1875,"midi":66,"time":468,"velocity":0.3937007874015748},{"duration":0.1875,"midi":68,"time":468,"velocity":0.3937007874015748},{"duration":0.1875,"midi":58,"time":468,"velocity":0.3937007874015748},{"duration":0.1875,"midi":82,"time":468,"velocity":0.3937007874015748},{"duration":0.1875,"midi":34,"time":468,"velocity":0.3937007874015748},{"duration":0.1875,"midi":35,"time":468.0234375,"velocity":0.3937007874015748},{"duration":0.1875,"midi":59,"time":468.0234375,"velocity":0.3937007874015748},{"duration":0.1875,"midi":29,"time":468.0234375,"velocity":0.3937007874015748},{"duration":0.1875,"midi":51,"time":468.0234375,"velocity":0.3937007874015748},{"duration":0.1875,"midi":75,"time":468.0234375,"velocity":0.3937007874015748},{"duration":0.1875,"midi":83,"time":468.0234375,"velocity":0.3937007874015748},{"duration":0.1875,"midi":92,"time":468.0234375,"velocity":0.3937007874015748},{"duration":0.1875,"midi":67,"time":468.0234375,"velocity":0.3937007874015748},{"duration":0.1875,"midi":76,"time":468.046875,"velocity":0.3937007874015748},{"duration":0.1875,"midi":68,"time":468.046875,"velocity":0.3937007874015748},{"duration":0.1875,"midi":60,"time":468.046875,"velocity":0.3937007874015748},{"duration":0.1875,"midi":30,"time":468.046875,"velocity":0.3937007874015748},{"duration":0.1875,"midi":52,"time":468.046875,"velocity":0.3937007874015748},{"duration":0.1875,"midi":36,"time":468.046875,"velocity":0.3937007874015748},{"duration":0.1875,"midi":91,"time":468.046875,"velocity":0.3937007874015748},{"duration":0.1875,"midi":84,"time":468.046875,"velocity":0.3937007874015748},{"duration":0.1875,"midi":37,"time":468.0703125,"velocity":0.3937007874015748},{"duration":0.1875,"midi":69,"time":468.0703125,"velocity":0.3937007874015748},{"duration":0.1875,"midi":53,"time":468.0703125,"velocity":0.3937007874015748},{"duration":0.1875,"midi":31,"time":468.0703125,"velocity":0.3937007874015748},{"duration":0.1875,"midi":90,"time":468.0703125,"velocity":0.3937007874015748},{"duration":0.1875,"midi":85,"time":468.0703125,"velocity":0.3937007874015748},{"duration":0.1875,"midi":61,"time":468.0703125,"velocity":0.3937007874015748},{"duration":0.1875,"midi":77,"time":468.0703125,"velocity":0.3937007874015748},{"duration":0.1875,"midi":54,"time":468.09375,"velocity":0.3937007874015748},{"duration":0.1875,"midi":38,"time":468.09375,"velocity":0.3937007874015748},{"duration":0.1875,"midi":32,"time":468.09375,"velocity":0.3937007874015748},{"duration":0.1875,"midi":70,"time":468.09375,"velocity":0.3937007874015748},{"duration":0.1875,"midi":62,"time":468.09375,"velocity":0.3937007874015748},{"duration":0.1875,"midi":89,"time":468.09375,"velocity":0.3937007874015748},{"duration":0.1875,"midi":86,"time":468.09375,"velocity":0.3937007874015748},{"duration":0.1875,"midi":78,"time":468.09375,"velocity":0.3937007874015748},{"duration":0.1875,"midi":55,"time":468.1171875,"velocity":0.3937007874015748},{"duration":0.1875,"midi":63,"time":468.1171875,"velocity":0.3937007874015748},{"duration":0.1875,"midi":33,"time":468.1171875,"velocity":0.3937007874015748},{"duration":0.1875,"midi":71,"time":468.1171875,"velocity":0.3937007874015748},{"duration":0.1875,"midi":79,"time":468.1171875,"velocity":0.3937007874015748},{"duration":0.1875,"midi":87,"time":468.1171875,"velocity":0.3937007874015748},{"duration":0.1875,"midi":39,"time":468.1171875,"velocity":0.3937007874015748},{"duration":0.1875,"midi":88,"time":468.1171875,"velocity":0.3937007874015748},{"duration":0.1875,"midi":72,"time":468.140625,"velocity":0.3937007874015748},{"duration":0.1875,"midi":64,"time":468.140625,"velocity":0.3937007874015748},{"duration":0.1875,"midi":87,"time":468.140625,"velocity":0.3937007874015748},{"duration":0.1875,"midi":88,"time":468.140625,"velocity":0.3937007874015748},{"duration":0.1875,"midi":34,"time":468.140625,"velocity":0.3937007874015748},{"duration":0.1875,"midi":56,"time":468.140625,"velocity":0.3937007874015748},{"duration":0.1875,"midi":40,"time":468.140625,"velocity":0.3937007874015748},{"duration":0.1875,"midi":80,"time":468.140625,"velocity":0.3937007874015748},{"duration":0.1875,"midi":73,"time":468.1640625,"velocity":0.3937007874015748},{"duration":0.1875,"midi":81,"time":468.1640625,"velocity":0.3937007874015748},{"duration":0.1875,"midi":89,"time":468.1640625,"velocity":0.3937007874015748},{"duration":0.1875,"midi":41,"time":468.1640625,"velocity":0.3937007874015748},{"duration":0.1875,"midi":65,"time":468.1640625,"velocity":0.3937007874015748},{"duration":0.1875,"midi":86,"time":468.1640625,"velocity":0.3937007874015748},{"duration":0.1875,"midi":35,"time":468.1640625,"velocity":0.3937007874015748},{"duration":0.1875,"midi":57,"time":468.1640625,"velocity":0.3937007874015748},{"duration":0.1875,"midi":38,"time":468.1875,"velocity":0.3937007874015748},{"duration":0.1875,"midi":50,"time":468.1875,"velocity":0.3937007874015748},{"duration":0.1875,"midi":57,"time":468.1875,"velocity":0.3937007874015748},{"duration":0.1875,"midi":93,"time":468.1875,"velocity":0.3937007874015748},{"duration":0.1875,"midi":90,"time":468.1875,"velocity":0.3937007874015748},{"duration":0.1875,"midi":81,"time":468.1875,"velocity":0.3937007874015748},{"duration":0.1875,"midi":69,"time":468.1875,"velocity":0.3937007874015748},{"duration":0.1875,"midi":82,"time":468.1875,"velocity":0.3937007874015748},{"duration":0.1875,"midi":62,"time":468.1875,"velocity":0.3937007874015748},{"duration":0.1875,"midi":45,"time":468.1875,"velocity":0.3937007874015748},{"duration":0.1875,"midi":58,"time":468.1875,"velocity":0.3937007874015748},{"duration":0.1875,"midi":36,"time":468.1875,"velocity":0.3937007874015748},{"duration":0.1875,"midi":74,"time":468.1875,"velocity":0.3937007874015748},{"duration":0.1875,"midi":42,"time":468.1875,"velocity":0.3937007874015748},{"duration":0.1875,"midi":26,"time":468.1875,"velocity":0.3937007874015748},{"duration":0.1875,"midi":86,"time":468.1875,"velocity":0.3937007874015748},{"duration":0.1875,"midi":85,"time":468.1875,"velocity":0.3937007874015748},{"duration":0.1875,"midi":33,"time":468.1875,"velocity":0.3937007874015748},{"duration":0.1875,"midi":74,"time":468.1875,"velocity":0.3937007874015748},{"duration":0.1875,"midi":66,"time":468.1875,"velocity":0.3937007874015748},{"duration":0.1875,"midi":84,"time":468.2109375,"velocity":0.3937007874015748},{"duration":0.1875,"midi":43,"time":468.2109375,"velocity":0.3937007874015748},{"duration":0.1875,"midi":67,"time":468.2109375,"velocity":0.3937007874015748},{"duration":0.1875,"midi":37,"time":468.2109375,"velocity":0.3937007874015748},{"duration":0.1875,"midi":59,"time":468.2109375,"velocity":0.3937007874015748},{"duration":0.1875,"midi":83,"time":468.2109375,"velocity":0.3937007874015748},{"duration":0.1875,"midi":75,"time":468.2109375,"velocity":0.3937007874015748},{"duration":0.1875,"midi":91,"time":468.2109375,"velocity":0.3937007874015748},{"duration":0.1875,"midi":84,"time":468.234375,"velocity":0.3937007874015748},{"duration":0.1875,"midi":68,"time":468.234375,"velocity":0.3937007874015748},{"duration":0.1875,"midi":83,"time":468.234375,"velocity":0.3937007874015748},{"duration":0.1875,"midi":44,"time":468.234375,"velocity":0.3937007874015748},{"duration":0.1875,"midi":76,"time":468.234375,"velocity":0.3937007874015748},{"duration":0.1875,"midi":92,"time":468.234375,"velocity":0.3937007874015748},{"duration":0.1875,"midi":60,"time":468.234375,"velocity":0.3937007874015748},{"duration":0.1875,"midi":38,"time":468.234375,"velocity":0.3937007874015748},{"duration":0.1875,"midi":61,"time":468.2578125,"velocity":0.3937007874015748},{"duration":0.1875,"midi":69,"time":468.2578125,"velocity":0.3937007874015748},{"duration":0.1875,"midi":39,"time":468.2578125,"velocity":0.3937007874015748},{"duration":0.1875,"midi":93,"time":468.2578125,"velocity":0.3937007874015748},{"duration":0.1875,"midi":45,"time":468.2578125,"velocity":0.3937007874015748},{"duration":0.1875,"midi":85,"time":468.2578125,"velocity":0.3937007874015748},{"duration":0.1875,"midi":77,"time":468.2578125,"velocity":0.3937007874015748},{"duration":0.1875,"midi":82,"time":468.2578125,"velocity":0.3937007874015748},{"duration":0.1875,"midi":46,"time":468.28125,"velocity":0.3937007874015748},{"duration":0.1875,"midi":86,"time":468.28125,"velocity":0.3937007874015748},{"duration":0.1875,"midi":94,"time":468.28125,"velocity":0.3937007874015748},{"duration":0.1875,"midi":40,"time":468.28125,"velocity":0.3937007874015748},{"duration":0.1875,"midi":70,"time":468.28125,"velocity":0.3937007874015748},{"duration":0.1875,"midi":78,"time":468.28125,"velocity":0.3937007874015748},{"duration":0.1875,"midi":62,"time":468.28125,"velocity":0.3937007874015748},{"duration":0.1875,"midi":81,"time":468.28125,"velocity":0.3937007874015748},{"duration":0.1875,"midi":47,"time":468.3046875,"velocity":0.3937007874015748},{"duration":0.1875,"midi":71,"time":468.3046875,"velocity":0.3937007874015748},{"duration":0.1875,"midi":79,"time":468.3046875,"velocity":0.3937007874015748},{"duration":0.1875,"midi":63,"time":468.3046875,"velocity":0.3937007874015748},{"duration":0.1875,"midi":95,"time":468.3046875,"velocity":0.3937007874015748},{"duration":0.1875,"midi":80,"time":468.3046875,"velocity":0.3937007874015748},{"duration":0.1875,"midi":87,"time":468.3046875,"velocity":0.3937007874015748},{"duration":0.1875,"midi":41,"time":468.3046875,"velocity":0.3937007874015748},{"duration":0.1875,"midi":80,"time":468.328125,"velocity":0.3937007874015748},{"duration":0.1875,"midi":88,"time":468.328125,"velocity":0.3937007874015748},{"duration":0.1875,"midi":72,"time":468.328125,"velocity":0.3937007874015748},{"duration":0.1875,"midi":64,"time":468.328125,"velocity":0.3937007874015748},{"duration":0.1875,"midi":48,"time":468.328125,"velocity":0.3937007874015748},{"duration":0.1875,"midi":42,"time":468.328125,"velocity":0.3937007874015748},{"duration":0.1875,"midi":79,"time":468.328125,"velocity":0.3937007874015748},{"duration":0.1875,"midi":65,"time":468.3515625,"velocity":0.3937007874015748},{"duration":0.1875,"midi":43,"time":468.3515625,"velocity":0.3937007874015748},{"duration":0.1875,"midi":81,"time":468.3515625,"velocity":0.3937007874015748},{"duration":0.1875,"midi":78,"time":468.3515625,"velocity":0.3937007874015748},{"duration":0.1875,"midi":49,"time":468.3515625,"velocity":0.3937007874015748},{"duration":0.1875,"midi":73,"time":468.3515625,"velocity":0.3937007874015748},{"duration":0.1875,"midi":89,"time":468.3515625,"velocity":0.3937007874015748},{"duration":0.1875,"midi":90,"time":468.375,"velocity":0.3937007874015748},{"duration":0.1875,"midi":70,"time":468.375,"velocity":0.3937007874015748},{"duration":0.1875,"midi":44,"time":468.375,"velocity":0.3937007874015748},{"duration":0.1875,"midi":34,"time":468.375,"velocity":0.3937007874015748},{"duration":0.1875,"midi":82,"time":468.375,"velocity":0.3937007874015748},{"duration":0.1875,"midi":61,"time":468.375,"velocity":0.3937007874015748},{"duration":0.1875,"midi":58,"time":468.375,"velocity":0.3937007874015748},{"duration":0.1875,"midi":85,"time":468.375,"velocity":0.3937007874015748},{"duration":0.1875,"midi":66,"time":468.375,"velocity":0.3937007874015748},{"duration":0.1875,"midi":77,"time":468.375,"velocity":0.3937007874015748},{"duration":0.1875,"midi":82,"time":468.375,"velocity":0.3937007874015748},{"duration":0.1875,"midi":46,"time":468.375,"velocity":0.3937007874015748},{"duration":0.1875,"midi":49,"time":468.375,"velocity":0.3937007874015748},{"duration":0.1875,"midi":94,"time":468.375,"velocity":0.3937007874015748},{"duration":0.1875,"midi":73,"time":468.375,"velocity":0.3937007874015748},{"duration":0.1875,"midi":74,"time":468.375,"velocity":0.3937007874015748},{"duration":0.1875,"midi":37,"time":468.375,"velocity":0.3937007874015748},{"duration":0.1875,"midi":34,"time":468.375,"velocity":0.3937007874015748},{"duration":0.1875,"midi":25,"time":468.375,"velocity":0.3937007874015748},{"duration":0.1875,"midi":50,"time":468.375,"velocity":0.3937007874015748},{"duration":0.1875,"midi":51,"time":468.3984375,"velocity":0.3937007874015748},{"duration":0.1875,"midi":91,"time":468.3984375,"velocity":0.3937007874015748},{"duration":0.1875,"midi":76,"time":468.3984375,"velocity":0.3937007874015748},{"duration":0.1875,"midi":35,"time":468.3984375,"velocity":0.3937007874015748},{"duration":0.1875,"midi":67,"time":468.3984375,"velocity":0.3937007874015748},{"duration":0.1875,"midi":45,"time":468.3984375,"velocity":0.3937007874015748},{"duration":0.1875,"midi":75,"time":468.3984375,"velocity":0.3937007874015748},{"duration":0.1875,"midi":83,"time":468.3984375,"velocity":0.3937007874015748},{"duration":0.1875,"midi":92,"time":468.421875,"velocity":0.3937007874015748},{"duration":0.1875,"midi":75,"time":468.421875,"velocity":0.3937007874015748},{"duration":0.1875,"midi":76,"time":468.421875,"velocity":0.3937007874015748},{"duration":0.1875,"midi":68,"time":468.421875,"velocity":0.3937007874015748},{"duration":0.1875,"midi":46,"time":468.421875,"velocity":0.3937007874015748},{"duration":0.1875,"midi":84,"time":468.421875,"velocity":0.3937007874015748},{"duration":0.1875,"midi":52,"time":468.421875,"velocity":0.3937007874015748},{"duration":0.1875,"midi":36,"time":468.421875,"velocity":0.3937007874015748},{"duration":0.1875,"midi":69,"time":468.4453125,"velocity":0.3937007874015748},{"duration":0.1875,"midi":77,"time":468.4453125,"velocity":0.3937007874015748},{"duration":0.1875,"midi":53,"time":468.4453125,"velocity":0.3937007874015748},{"duration":0.1875,"midi":47,"time":468.4453125,"velocity":0.3937007874015748},{"duration":0.1875,"midi":93,"time":468.4453125,"velocity":0.3937007874015748},{"duration":0.1875,"midi":74,"time":468.4453125,"velocity":0.3937007874015748},{"duration":0.1875,"midi":37,"time":468.4453125,"velocity":0.3937007874015748},{"duration":0.1875,"midi":85,"time":468.4453125,"velocity":0.3937007874015748},{"duration":0.1875,"midi":73,"time":468.46875,"velocity":0.3937007874015748},{"duration":0.1875,"midi":54,"time":468.46875,"velocity":0.3937007874015748},{"duration":0.1875,"midi":48,"time":468.46875,"velocity":0.3937007874015748},{"duration":0.1875,"midi":78,"time":468.46875,"velocity":0.3937007874015748},{"duration":0.1875,"midi":94,"time":468.46875,"velocity":0.3937007874015748},{"duration":0.1875,"midi":38,"time":468.46875,"velocity":0.3937007874015748},{"duration":0.1875,"midi":86,"time":468.46875,"velocity":0.3937007874015748},{"duration":0.1875,"midi":70,"time":468.46875,"velocity":0.3937007874015748},{"duration":0.1875,"midi":72,"time":468.4921875,"velocity":0.3937007874015748},{"duration":0.1875,"midi":79,"time":468.4921875,"velocity":0.3937007874015748},{"duration":0.1875,"midi":49,"time":468.4921875,"velocity":0.3937007874015748},{"duration":0.1875,"midi":87,"time":468.4921875,"velocity":0.3937007874015748},{"duration":0.1875,"midi":95,"time":468.4921875,"velocity":0.3937007874015748},{"duration":0.1875,"midi":55,"time":468.4921875,"velocity":0.3937007874015748},{"duration":0.1875,"midi":71,"time":468.4921875,"velocity":0.3937007874015748},{"duration":0.1875,"midi":39,"time":468.4921875,"velocity":0.3937007874015748},{"duration":0.1875,"midi":71,"time":468.515625,"velocity":0.3937007874015748},{"duration":0.1875,"midi":72,"time":468.515625,"velocity":0.3937007874015748},{"duration":0.1875,"midi":50,"time":468.515625,"velocity":0.3937007874015748},{"duration":0.1875,"midi":80,"time":468.515625,"velocity":0.3937007874015748},{"duration":0.1875,"midi":40,"time":468.515625,"velocity":0.3937007874015748},{"duration":0.1875,"midi":56,"time":468.515625,"velocity":0.3937007874015748},{"duration":0.1875,"midi":88,"time":468.515625,"velocity":0.3937007874015748},{"duration":0.1875,"midi":70,"time":468.5390625,"velocity":0.3937007874015748},{"duration":0.1875,"midi":81,"time":468.5390625,"velocity":0.3937007874015748},{"duration":0.1875,"midi":41,"time":468.5390625,"velocity":0.3937007874015748},{"duration":0.1875,"midi":51,"time":468.5390625,"velocity":0.3937007874015748},{"duration":0.1875,"midi":89,"time":468.5390625,"velocity":0.3937007874015748},{"duration":0.1875,"midi":57,"time":468.5390625,"velocity":0.3937007874015748},{"duration":0.1875,"midi":73,"time":468.5390625,"velocity":0.3937007874015748},{"duration":0.1875,"midi":36,"time":468.5625,"velocity":0.3937007874015748},{"duration":0.1875,"midi":69,"time":468.5625,"velocity":0.3937007874015748},{"duration":0.1875,"midi":95,"time":468.5625,"velocity":0.3937007874015748},{"duration":0.1875,"midi":90,"time":468.5625,"velocity":0.3937007874015748},{"duration":0.1875,"midi":83,"time":468.5625,"velocity":0.3937007874015748},{"duration":0.1875,"midi":47,"time":468.5625,"velocity":0.3937007874015748},{"duration":0.1875,"midi":24,"time":468.5625,"velocity":0.3937007874015748},{"duration":0.1875,"midi":74,"time":468.5625,"velocity":0.3937007874015748},{"duration":0.1875,"midi":84,"time":468.5625,"velocity":0.3937007874015748},{"duration":0.1875,"midi":48,"time":468.5625,"velocity":0.3937007874015748},{"duration":0.1875,"midi":58,"time":468.5625,"velocity":0.3937007874015748},{"duration":0.1875,"midi":35,"time":468.5625,"velocity":0.3937007874015748},{"duration":0.1875,"midi":71,"time":468.5625,"velocity":0.3937007874015748},{"duration":0.1875,"midi":42,"time":468.5625,"velocity":0.3937007874015748},{"duration":0.1875,"midi":72,"time":468.5625,"velocity":0.3937007874015748},{"duration":0.1875,"midi":52,"time":468.5625,"velocity":0.3937007874015748},{"duration":0.1875,"midi":59,"time":468.5625,"velocity":0.3937007874015748},{"duration":0.1875,"midi":82,"time":468.5625,"velocity":0.3937007874015748},{"duration":0.1875,"midi":60,"time":468.5625,"velocity":0.3937007874015748},{"duration":0.1875,"midi":83,"time":468.5859375,"velocity":0.3937007874015748},{"duration":0.1875,"midi":43,"time":468.5859375,"velocity":0.3937007874015748},{"duration":0.1875,"midi":75,"time":468.5859375,"velocity":0.3937007874015748},{"duration":0.1875,"midi":68,"time":468.5859375,"velocity":0.3937007874015748},{"duration":0.1875,"midi":91,"time":468.5859375,"velocity":0.3937007874015748},{"duration":0.1875,"midi":59,"time":468.5859375,"velocity":0.3937007874015748},{"duration":0.1875,"midi":53,"time":468.5859375,"velocity":0.3937007874015748},{"duration":0.1875,"midi":44,"time":468.609375,"velocity":0.3937007874015748},{"duration":0.1875,"midi":67,"time":468.609375,"velocity":0.3937007874015748},{"duration":0.1875,"midi":54,"time":468.609375,"velocity":0.3937007874015748},{"duration":0.1875,"midi":76,"time":468.609375,"velocity":0.3937007874015748},{"duration":0.1875,"midi":60,"time":468.609375,"velocity":0.3937007874015748},{"duration":0.1875,"midi":84,"time":468.609375,"velocity":0.3937007874015748},{"duration":0.1875,"midi":92,"time":468.609375,"velocity":0.3937007874015748},{"duration":0.1875,"midi":93,"time":468.6328125,"velocity":0.3937007874015748},{"duration":0.1875,"midi":85,"time":468.6328125,"velocity":0.3937007874015748},{"duration":0.1875,"midi":66,"time":468.6328125,"velocity":0.3937007874015748},{"duration":0.1875,"midi":45,"time":468.6328125,"velocity":0.3937007874015748},{"duration":0.1875,"midi":61,"time":468.6328125,"velocity":0.3937007874015748},{"duration":0.1875,"midi":77,"time":468.6328125,"velocity":0.3937007874015748},{"duration":0.1875,"midi":55,"time":468.6328125,"velocity":0.3937007874015748},{"duration":0.1875,"midi":94,"time":468.65625,"velocity":0.3937007874015748},{"duration":0.1875,"midi":86,"time":468.65625,"velocity":0.3937007874015748},{"duration":0.1875,"midi":46,"time":468.65625,"velocity":0.3937007874015748},{"duration":0.1875,"midi":65,"time":468.65625,"velocity":0.3937007874015748},{"duration":0.1875,"midi":78,"time":468.65625,"velocity":0.3937007874015748},{"duration":0.1875,"midi":56,"time":468.65625,"velocity":0.3937007874015748},{"duration":0.1875,"midi":62,"time":468.65625,"velocity":0.3937007874015748},{"duration":0.1875,"midi":63,"time":468.6796875,"velocity":0.3937007874015748},{"duration":0.1875,"midi":79,"time":468.6796875,"velocity":0.3937007874015748},{"duration":0.1875,"midi":95,"time":468.6796875,"velocity":0.3937007874015748},{"duration":0.1875,"midi":64,"time":468.6796875,"velocity":0.3937007874015748},{"duration":0.1875,"midi":47,"time":468.6796875,"velocity":0.3937007874015748},{"duration":0.1875,"midi":57,"time":468.6796875,"velocity":0.3937007874015748},{"duration":0.1875,"midi":87,"time":468.6796875,"velocity":0.3937007874015748},{"duration":0.1875,"midi":64,"time":468.703125,"velocity":0.3937007874015748},{"duration":0.1875,"midi":88,"time":468.703125,"velocity":0.3937007874015748},{"duration":0.1875,"midi":63,"time":468.703125,"velocity":0.3937007874015748},{"duration":0.1875,"midi":80,"time":468.703125,"velocity":0.3937007874015748},{"duration":0.1875,"midi":58,"time":468.703125,"velocity":0.3937007874015748},{"duration":0.1875,"midi":48,"time":468.703125,"velocity":0.3937007874015748},{"duration":0.1875,"midi":89,"time":468.7265625,"velocity":0.3937007874015748},{"duration":0.1875,"midi":62,"time":468.7265625,"velocity":0.3937007874015748},{"duration":0.1875,"midi":49,"time":468.7265625,"velocity":0.3937007874015748},{"duration":0.1875,"midi":81,"time":468.7265625,"velocity":0.3937007874015748},{"duration":0.1875,"midi":65,"time":468.7265625,"velocity":0.3937007874015748},{"duration":0.1875,"midi":59,"time":468.7265625,"velocity":0.3937007874015748},{"duration":0.1875,"midi":61,"time":468.75,"velocity":0.3937007874015748},{"duration":0.1875,"midi":95,"time":468.75,"velocity":0.3937007874015748},{"duration":0.1875,"midi":71,"time":468.75,"velocity":0.3937007874015748},{"duration":0.1875,"midi":48,"time":468.75,"velocity":0.3937007874015748},{"duration":0.1875,"midi":50,"time":468.75,"velocity":0.3937007874015748},{"duration":0.1875,"midi":60,"time":468.75,"velocity":0.3937007874015748},{"duration":0.1875,"midi":60,"time":468.75,"velocity":0.3937007874015748},{"duration":0.1875,"midi":36,"time":468.75,"velocity":0.3937007874015748},{"duration":0.1875,"midi":59,"time":468.75,"velocity":0.3937007874015748},{"duration":0.1875,"midi":84,"time":468.75,"velocity":0.3937007874015748},{"duration":0.1875,"midi":35,"time":468.75,"velocity":0.3937007874015748},{"duration":0.1875,"midi":83,"time":468.75,"velocity":0.3937007874015748},{"duration":0.1875,"midi":34,"time":468.75,"velocity":0.3937007874015748},{"duration":0.1875,"midi":72,"time":468.75,"velocity":0.3937007874015748},{"duration":0.1875,"midi":82,"time":468.75,"velocity":0.3937007874015748},{"duration":0.1875,"midi":90,"time":468.75,"velocity":0.3937007874015748},{"duration":0.1875,"midi":66,"time":468.75,"velocity":0.3937007874015748},{"duration":0.1875,"midi":24,"time":468.75,"velocity":0.3937007874015748},{"duration":0.1875,"midi":47,"time":468.75,"velocity":0.3937007874015748},{"duration":0.1875,"midi":83,"time":468.7734375,"velocity":0.3937007874015748},{"duration":0.1875,"midi":51,"time":468.7734375,"velocity":0.3937007874015748},{"duration":0.1875,"midi":91,"time":468.7734375,"velocity":0.3937007874015748},{"duration":0.1875,"midi":35,"time":468.7734375,"velocity":0.3937007874015748},{"duration":0.1875,"midi":60,"time":468.7734375,"velocity":0.3937007874015748},{"duration":0.1875,"midi":61,"time":468.7734375,"velocity":0.3937007874015748},{"duration":0.1875,"midi":67,"time":468.7734375,"velocity":0.3937007874015748},{"duration":0.1875,"midi":36,"time":468.796875,"velocity":0.3937007874015748},{"duration":0.1875,"midi":59,"time":468.796875,"velocity":0.3937007874015748},{"duration":0.1875,"midi":62,"time":468.796875,"velocity":0.3937007874015748},{"duration":0.1875,"midi":52,"time":468.796875,"velocity":0.3937007874015748},{"duration":0.1875,"midi":92,"time":468.796875,"velocity":0.3937007874015748},{"duration":0.1875,"midi":68,"time":468.796875,"velocity":0.3937007874015748},{"duration":0.1875,"midi":84,"time":468.796875,"velocity":0.3937007874015748},{"duration":0.1875,"midi":93,"time":468.8203125,"velocity":0.3937007874015748},{"duration":0.1875,"midi":63,"time":468.8203125,"velocity":0.3937007874015748},{"duration":0.1875,"midi":58,"time":468.8203125,"velocity":0.3937007874015748},{"duration":0.1875,"midi":69,"time":468.8203125,"velocity":0.3937007874015748},{"duration":0.1875,"midi":53,"time":468.8203125,"velocity":0.3937007874015748},{"duration":0.1875,"midi":85,"time":468.8203125,"velocity":0.3937007874015748},{"duration":0.1875,"midi":37,"time":468.8203125,"velocity":0.3937007874015748},{"duration":0.1875,"midi":38,"time":468.84375,"velocity":0.3937007874015748},{"duration":0.1875,"midi":54,"time":468.84375,"velocity":0.3937007874015748},{"duration":0.1875,"midi":86,"time":468.84375,"velocity":0.3937007874015748},{"duration":0.1875,"midi":94,"time":468.84375,"velocity":0.3937007874015748},{"duration":0.1875,"midi":70,"time":468.84375,"velocity":0.3937007874015748},{"duration":0.1875,"midi":64,"time":468.84375,"velocity":0.3937007874015748},{"duration":0.1875,"midi":57,"time":468.84375,"velocity":0.3937007874015748},{"duration":0.1875,"midi":95,"time":468.8671875,"velocity":0.3937007874015748},{"duration":0.1875,"midi":56,"time":468.8671875,"velocity":0.3937007874015748},{"duration":0.1875,"midi":65,"time":468.8671875,"velocity":0.3937007874015748},{"duration":0.1875,"midi":87,"time":468.8671875,"velocity":0.3937007874015748},{"duration":0.1875,"midi":71,"time":468.8671875,"velocity":0.3937007874015748},{"duration":0.1875,"midi":39,"time":468.8671875,"velocity":0.3937007874015748},{"duration":0.1875,"midi":55,"time":468.8671875,"velocity":0.3937007874015748},{"duration":0.1875,"midi":88,"time":468.890625,"velocity":0.3937007874015748},{"duration":0.1875,"midi":56,"time":468.890625,"velocity":0.3937007874015748},{"duration":0.1875,"midi":55,"time":468.890625,"velocity":0.3937007874015748},{"duration":0.1875,"midi":40,"time":468.890625,"velocity":0.3937007874015748},{"duration":0.1875,"midi":66,"time":468.890625,"velocity":0.3937007874015748},{"duration":0.1875,"midi":72,"time":468.890625,"velocity":0.3937007874015748},{"duration":0.1875,"midi":67,"time":468.9140625,"velocity":0.3937007874015748},{"duration":0.1875,"midi":54,"time":468.9140625,"velocity":0.3937007874015748},{"duration":0.1875,"midi":57,"time":468.9140625,"velocity":0.3937007874015748},{"duration":0.1875,"midi":73,"time":468.9140625,"velocity":0.3937007874015748},{"duration":0.1875,"midi":41,"time":468.9140625,"velocity":0.3937007874015748},{"duration":0.1875,"midi":89,"time":468.9140625,"velocity":0.3937007874015748},{"duration":0.1875,"midi":94,"time":468.9375,"velocity":0.3937007874015748},{"duration":0.1875,"midi":85,"time":468.9375,"velocity":0.3937007874015748},{"duration":0.1875,"midi":58,"time":468.9375,"velocity":0.3937007874015748},{"duration":0.1875,"midi":49,"time":468.9375,"velocity":0.3937007874015748},{"duration":0.1875,"midi":68,"time":468.9375,"velocity":0.3937007874015748},{"duration":0.1875,"midi":46,"time":468.9375,"velocity":0.3937007874015748},{"duration":0.1875,"midi":90,"time":468.9375,"velocity":0.3937007874015748},{"duration":0.1875,"midi":74,"time":468.9375,"velocity":0.3937007874015748},{"duration":0.1875,"midi":82,"time":468.9375,"velocity":0.3937007874015748},{"duration":0.1875,"midi":61,"time":468.9375,"velocity":0.3937007874015748},{"duration":0.1875,"midi":25,"time":468.9375,"velocity":0.3937007874015748},{"duration":0.1875,"midi":42,"time":468.9375,"velocity":0.3937007874015748},{"duration":0.1875,"midi":53,"time":468.9375,"velocity":0.3937007874015748},{"duration":0.1875,"midi":34,"time":468.9375,"velocity":0.3937007874015748},{"duration":0.1875,"midi":37,"time":468.9375,"velocity":0.3937007874015748},{"duration":0.1875,"midi":73,"time":468.9375,"velocity":0.3937007874015748},{"duration":0.1875,"midi":58,"time":468.9375,"velocity":0.3937007874015748},{"duration":0.1875,"midi":70,"time":468.9375,"velocity":0.3937007874015748},{"duration":0.1875,"midi":43,"time":468.9609375,"velocity":0.3937007874015748},{"duration":0.1875,"midi":52,"time":468.9609375,"velocity":0.3937007874015748},{"duration":0.1875,"midi":91,"time":468.9609375,"velocity":0.3937007874015748},{"duration":0.1875,"midi":69,"time":468.9609375,"velocity":0.3937007874015748},{"duration":0.1875,"midi":75,"time":468.9609375,"velocity":0.3937007874015748},{"duration":0.1875,"midi":59,"time":468.9609375,"velocity":0.3937007874015748},{"duration":0.1875,"midi":60,"time":468.984375,"velocity":0.3937007874015748},{"duration":0.1875,"midi":76,"time":468.984375,"velocity":0.3937007874015748},{"duration":0.1875,"midi":51,"time":468.984375,"velocity":0.3937007874015748},{"duration":0.1875,"midi":92,"time":468.984375,"velocity":0.3937007874015748},{"duration":0.1875,"midi":70,"time":468.984375,"velocity":0.3937007874015748},{"duration":0.1875,"midi":44,"time":468.984375,"velocity":0.3937007874015748},{"duration":0.1875,"midi":93,"time":469.0078125,"velocity":0.3937007874015748},{"duration":0.1875,"midi":61,"time":469.0078125,"velocity":0.3937007874015748},{"duration":0.1875,"midi":50,"time":469.0078125,"velocity":0.3937007874015748},{"duration":0.1875,"midi":71,"time":469.0078125,"velocity":0.3937007874015748},{"duration":0.1875,"midi":77,"time":469.0078125,"velocity":0.3937007874015748},{"duration":0.1875,"midi":45,"time":469.0078125,"velocity":0.3937007874015748},{"duration":0.1875,"midi":62,"time":469.03125,"velocity":0.3937007874015748},{"duration":0.1875,"midi":78,"time":469.03125,"velocity":0.3937007874015748},{"duration":0.1875,"midi":72,"time":469.03125,"velocity":0.3937007874015748},{"duration":0.1875,"midi":94,"time":469.03125,"velocity":0.3937007874015748},{"duration":0.1875,"midi":46,"time":469.03125,"velocity":0.3937007874015748},{"duration":0.1875,"midi":49,"time":469.03125,"velocity":0.3937007874015748},{"duration":0.1875,"midi":95,"time":469.0546875,"velocity":0.3937007874015748},{"duration":0.1875,"midi":47,"time":469.0546875,"velocity":0.3937007874015748},{"duration":0.1875,"midi":48,"time":469.0546875,"velocity":0.3937007874015748},{"duration":0.1875,"midi":63,"time":469.0546875,"velocity":0.3937007874015748},{"duration":0.1875,"midi":73,"time":469.0546875,"velocity":0.3937007874015748},{"duration":0.1875,"midi":79,"time":469.0546875,"velocity":0.3937007874015748},{"duration":0.1875,"midi":74,"time":469.078125,"velocity":0.3937007874015748},{"duration":0.1875,"midi":64,"time":469.078125,"velocity":0.3937007874015748},{"duration":0.1875,"midi":48,"time":469.078125,"velocity":0.3937007874015748},{"duration":0.1875,"midi":80,"time":469.078125,"velocity":0.3937007874015748},{"duration":0.1875,"midi":47,"time":469.078125,"velocity":0.3937007874015748},{"duration":0.1875,"midi":49,"time":469.1015625,"velocity":0.3937007874015748},{"duration":0.1875,"midi":75,"time":469.1015625,"velocity":0.3937007874015748},{"duration":0.1875,"midi":46,"time":469.1015625,"velocity":0.3937007874015748},{"duration":0.1875,"midi":65,"time":469.1015625,"velocity":0.3937007874015748},{"duration":0.1875,"midi":81,"time":469.1015625,"velocity":0.3937007874015748},{"duration":0.1875,"midi":69,"time":469.125,"velocity":0.3937007874015748},{"duration":0.1875,"midi":50,"time":469.125,"velocity":0.3937007874015748},{"duration":0.1875,"midi":45,"time":469.125,"velocity":0.3937007874015748},{"duration":0.1875,"midi":33,"time":469.125,"velocity":0.3937007874015748},{"duration":0.1875,"midi":57,"time":469.125,"velocity":0.3937007874015748},{"duration":0.1875,"midi":76,"time":469.125,"velocity":0.3937007874015748},{"duration":0.1875,"midi":93,"time":469.125,"velocity":0.3937007874015748},{"duration":0.1875,"midi":86,"time":469.125,"velocity":0.3937007874015748},{"duration":0.1875,"midi":26,"time":469.125,"velocity":0.3937007874015748},{"duration":0.1875,"midi":81,"time":469.125,"velocity":0.3937007874015748},{"duration":0.1875,"midi":74,"time":469.125,"velocity":0.3937007874015748},{"duration":0.1875,"midi":66,"time":469.125,"velocity":0.3937007874015748},{"duration":0.1875,"midi":82,"time":469.125,"velocity":0.3937007874015748},{"duration":0.1875,"midi":50,"time":469.125,"velocity":0.3937007874015748},{"duration":0.1875,"midi":45,"time":469.125,"velocity":0.3937007874015748},{"duration":0.1875,"midi":38,"time":469.125,"velocity":0.3937007874015748},{"duration":0.1875,"midi":62,"time":469.125,"velocity":0.3937007874015748},{"duration":0.1875,"midi":44,"time":469.1484375,"velocity":0.3937007874015748},{"duration":0.1875,"midi":83,"time":469.1484375,"velocity":0.3937007874015748},{"duration":0.1875,"midi":77,"time":469.1484375,"velocity":0.3937007874015748},{"duration":0.1875,"midi":67,"time":469.1484375,"velocity":0.3937007874015748},{"duration":0.1875,"midi":51,"time":469.1484375,"velocity":0.3937007874015748},{"duration":0.1875,"midi":43,"time":469.171875,"velocity":0.3937007874015748},{"duration":0.1875,"midi":84,"time":469.171875,"velocity":0.3937007874015748},{"duration":0.1875,"midi":68,"time":469.171875,"velocity":0.3937007874015748},{"duration":0.1875,"midi":78,"time":469.171875,"velocity":0.3937007874015748},{"duration":0.1875,"midi":52,"time":469.171875,"velocity":0.3937007874015748},{"duration":0.1875,"midi":53,"time":469.1953125,"velocity":0.3937007874015748},{"duration":0.1875,"midi":42,"time":469.1953125,"velocity":0.3937007874015748},{"duration":0.1875,"midi":69,"time":469.1953125,"velocity":0.3937007874015748},{"duration":0.1875,"midi":79,"time":469.1953125,"velocity":0.3937007874015748},{"duration":0.1875,"midi":85,"time":469.1953125,"velocity":0.3937007874015748},{"duration":0.1875,"midi":54,"time":469.21875,"velocity":0.3937007874015748},{"duration":0.1875,"midi":70,"time":469.21875,"velocity":0.3937007874015748},{"duration":0.1875,"midi":80,"time":469.21875,"velocity":0.3937007874015748},{"duration":0.1875,"midi":86,"time":469.21875,"velocity":0.3937007874015748},{"duration":0.1875,"midi":41,"time":469.21875,"velocity":0.3937007874015748},{"duration":0.1875,"midi":55,"time":469.2421875,"velocity":0.3937007874015748},{"duration":0.1875,"midi":87,"time":469.2421875,"velocity":0.3937007874015748},{"duration":0.1875,"midi":40,"time":469.2421875,"velocity":0.3937007874015748},{"duration":0.1875,"midi":71,"time":469.2421875,"velocity":0.3937007874015748},{"duration":0.1875,"midi":81,"time":469.2421875,"velocity":0.3937007874015748},{"duration":0.1875,"midi":88,"time":469.265625,"velocity":0.3937007874015748},{"duration":0.1875,"midi":39,"time":469.265625,"velocity":0.3937007874015748},{"duration":0.1875,"midi":82,"time":469.265625,"velocity":0.3937007874015748},{"duration":0.1875,"midi":72,"time":469.265625,"velocity":0.3937007874015748},{"duration":0.1875,"midi":56,"time":469.265625,"velocity":0.3937007874015748},{"duration":0.1875,"midi":73,"time":469.2890625,"velocity":0.3937007874015748},{"duration":0.1875,"midi":89,"time":469.2890625,"velocity":0.3937007874015748},{"duration":0.1875,"midi":57,"time":469.2890625,"velocity":0.3937007874015748},{"duration":0.1875,"midi":83,"time":469.2890625,"velocity":0.3937007874015748},{"duration":0.1875,"midi":38,"time":469.2890625,"velocity":0.3937007874015748},{"duration":0.1875,"midi":68,"time":469.3125,"velocity":0.3937007874015748},{"duration":0.1875,"midi":51,"time":469.3125,"velocity":0.3937007874015748},{"duration":0.1875,"midi":80,"time":469.3125,"velocity":0.3937007874015748},{"duration":0.1875,"midi":56,"time":469.3125,"velocity":0.3937007874015748},{"duration":0.1875,"midi":44,"time":469.3125,"velocity":0.3937007874015748},{"duration":0.1875,"midi":90,"time":469.3125,"velocity":0.3937007874015748},{"duration":0.1875,"midi":92,"time":469.3125,"velocity":0.3937007874015748},{"duration":0.1875,"midi":87,"time":469.3125,"velocity":0.3937007874015748},{"duration":0.1875,"midi":32,"time":469.3125,"velocity":0.3937007874015748},{"duration":0.1875,"midi":58,"time":469.3125,"velocity":0.3937007874015748},{"duration":0.1875,"midi":39,"time":469.3125,"velocity":0.3937007874015748},{"duration":0.1875,"midi":63,"time":469.3125,"velocity":0.3937007874015748},{"duration":0.1875,"midi":75,"time":469.3125,"velocity":0.3937007874015748},{"duration":0.1875,"midi":27,"time":469.3125,"velocity":0.3937007874015748},{"duration":0.1875,"midi":84,"time":469.3125,"velocity":0.3937007874015748},{"duration":0.1875,"midi":37,"time":469.3125,"velocity":0.3937007874015748},{"duration":0.1875,"midi":74,"time":469.3125,"velocity":0.3937007874015748},{"duration":0.1875,"midi":59,"time":469.3359375,"velocity":0.3937007874015748},{"duration":0.1875,"midi":91,"time":469.3359375,"velocity":0.3937007874015748},{"duration":0.1875,"midi":75,"time":469.3359375,"velocity":0.3937007874015748},{"duration":0.1875,"midi":36,"time":469.3359375,"velocity":0.3937007874015748},{"duration":0.1875,"midi":85,"time":469.3359375,"velocity":0.3937007874015748},{"duration":0.1875,"midi":76,"time":469.359375,"velocity":0.3937007874015748},{"duration":0.1875,"midi":92,"time":469.359375,"velocity":0.3937007874015748},{"duration":0.1875,"midi":86,"time":469.359375,"velocity":0.3937007874015748},{"duration":0.1875,"midi":35,"time":469.359375,"velocity":0.3937007874015748},{"duration":0.1875,"midi":60,"time":469.359375,"velocity":0.3937007874015748},{"duration":0.1875,"midi":34,"time":469.3828125,"velocity":0.3937007874015748},{"duration":0.1875,"midi":87,"time":469.3828125,"velocity":0.3937007874015748},{"duration":0.1875,"midi":93,"time":469.3828125,"velocity":0.3937007874015748},{"duration":0.1875,"midi":77,"time":469.3828125,"velocity":0.3937007874015748},{"duration":0.1875,"midi":61,"time":469.3828125,"velocity":0.3937007874015748},{"duration":0.1875,"midi":78,"time":469.40625,"velocity":0.3937007874015748},{"duration":0.1875,"midi":33,"time":469.40625,"velocity":0.3937007874015748},{"duration":0.1875,"midi":94,"time":469.40625,"velocity":0.3937007874015748},{"duration":0.1875,"midi":88,"time":469.40625,"velocity":0.3937007874015748},{"duration":0.1875,"midi":62,"time":469.40625,"velocity":0.3937007874015748},{"duration":0.1875,"midi":32,"time":469.4296875,"velocity":0.3937007874015748},{"duration":0.1875,"midi":63,"time":469.4296875,"velocity":0.3937007874015748},{"duration":0.1875,"midi":89,"time":469.4296875,"velocity":0.3937007874015748},{"duration":0.1875,"midi":95,"time":469.4296875,"velocity":0.3937007874015748},{"duration":0.1875,"midi":79,"time":469.4296875,"velocity":0.3937007874015748},{"duration":0.1875,"midi":64,"time":469.453125,"velocity":0.3937007874015748},{"duration":0.1875,"midi":31,"time":469.453125,"velocity":0.3937007874015748},{"duration":0.1875,"midi":80,"time":469.453125,"velocity":0.3937007874015748},{"duration":0.1875,"midi":90,"time":469.453125,"velocity":0.3937007874015748},{"duration":0.1875,"midi":91,"time":469.4765625,"velocity":0.3937007874015748},{"duration":0.1875,"midi":30,"time":469.4765625,"velocity":0.3937007874015748},{"duration":0.1875,"midi":81,"time":469.4765625,"velocity":0.3937007874015748},{"duration":0.1875,"midi":65,"time":469.4765625,"velocity":0.3937007874015748},{"duration":0.1875,"midi":66,"time":469.5,"velocity":0.3937007874015748},{"duration":0.1875,"midi":91,"time":469.5,"velocity":0.3937007874015748},{"duration":0.1875,"midi":52,"time":469.5,"velocity":0.3937007874015748},{"duration":0.1875,"midi":93,"time":469.5,"velocity":0.3937007874015748},{"duration":0.1875,"midi":40,"time":469.5,"velocity":0.3937007874015748},{"duration":0.1875,"midi":28,"time":469.5,"velocity":0.3937007874015748},{"duration":0.1875,"midi":55,"time":469.5,"velocity":0.3937007874015748},{"duration":0.1875,"midi":28,"time":469.5,"velocity":0.3937007874015748},{"duration":0.1875,"midi":82,"time":469.5,"velocity":0.3937007874015748},{"duration":0.1875,"midi":67,"time":469.5,"velocity":0.3937007874015748},{"duration":0.1875,"midi":31,"time":469.5,"velocity":0.3937007874015748},{"duration":0.1875,"midi":76,"time":469.5,"velocity":0.3937007874015748},{"duration":0.1875,"midi":43,"time":469.5,"velocity":0.3937007874015748},{"duration":0.1875,"midi":64,"time":469.5,"velocity":0.3937007874015748},{"duration":0.1875,"midi":88,"time":469.5,"velocity":0.3937007874015748},{"duration":0.1875,"midi":79,"time":469.5,"velocity":0.3937007874015748},{"duration":0.1875,"midi":67,"time":469.5234375,"velocity":0.3937007874015748},{"duration":0.1875,"midi":29,"time":469.5234375,"velocity":0.3937007874015748},{"duration":0.1875,"midi":83,"time":469.5234375,"velocity":0.3937007874015748},{"duration":0.1875,"midi":92,"time":469.5234375,"velocity":0.3937007874015748},{"duration":0.1875,"midi":91,"time":469.546875,"velocity":0.3937007874015748},{"duration":0.1875,"midi":30,"time":469.546875,"velocity":0.3937007874015748},{"duration":0.1875,"midi":68,"time":469.546875,"velocity":0.3937007874015748},{"duration":0.1875,"midi":84,"time":469.546875,"velocity":0.3937007874015748},{"duration":0.1875,"midi":90,"time":469.5703125,"velocity":0.3937007874015748},{"duration":0.1875,"midi":69,"time":469.5703125,"velocity":0.3937007874015748},{"duration":0.1875,"midi":31,"time":469.5703125,"velocity":0.3937007874015748},{"duration":0.1875,"midi":85,"time":469.5703125,"velocity":0.3937007874015748},{"duration":0.1875,"midi":89,"time":469.59375,"velocity":0.3937007874015748},{"duration":0.1875,"midi":86,"time":469.59375,"velocity":0.3937007874015748},{"duration":0.1875,"midi":70,"time":469.59375,"velocity":0.3937007874015748},{"duration":0.1875,"midi":32,"time":469.59375,"velocity":0.3937007874015748},{"duration":0.1875,"midi":87,"time":469.6171875,"velocity":0.3937007874015748},{"duration":0.1875,"midi":33,"time":469.6171875,"velocity":0.3937007874015748},{"duration":0.1875,"midi":88,"time":469.6171875,"velocity":0.3937007874015748},{"duration":0.1875,"midi":71,"time":469.6171875,"velocity":0.3937007874015748},{"duration":0.1875,"midi":72,"time":469.640625,"velocity":0.3937007874015748},{"duration":0.1875,"midi":87,"time":469.640625,"velocity":0.3937007874015748},{"duration":0.1875,"midi":34,"time":469.640625,"velocity":0.3937007874015748},{"duration":0.1875,"midi":88,"time":469.640625,"velocity":0.3937007874015748},{"duration":0.1875,"midi":73,"time":469.6640625,"velocity":0.3937007874015748},{"duration":0.1875,"midi":89,"time":469.6640625,"velocity":0.3937007874015748},{"duration":0.1875,"midi":86,"time":469.6640625,"velocity":0.3937007874015748},{"duration":0.1875,"midi":35,"time":469.6640625,"velocity":0.3937007874015748},{"duration":0.1875,"midi":41,"time":469.6875,"velocity":0.3937007874015748},{"duration":0.1875,"midi":90,"time":469.6875,"velocity":0.3937007874015748},{"duration":0.1875,"midi":53,"time":469.6875,"velocity":0.3937007874015748},{"duration":0.1875,"midi":77,"time":469.6875,"velocity":0.3937007874015748},{"duration":0.1875,"midi":66,"time":469.6875,"velocity":0.3937007874015748},{"duration":0.1875,"midi":65,"time":469.6875,"velocity":0.3937007874015748},{"duration":0.1875,"midi":90,"time":469.6875,"velocity":0.3937007874015748},{"duration":0.1875,"midi":54,"time":469.6875,"velocity":0.3937007874015748},{"duration":0.1875,"midi":30,"time":469.6875,"velocity":0.3937007874015748},{"duration":0.1875,"midi":36,"time":469.6875,"velocity":0.3937007874015748},{"duration":0.1875,"midi":29,"time":469.6875,"velocity":0.3937007874015748},{"duration":0.1875,"midi":78,"time":469.6875,"velocity":0.3937007874015748},{"duration":0.1875,"midi":42,"time":469.6875,"velocity":0.3937007874015748},{"duration":0.1875,"midi":85,"time":469.6875,"velocity":0.3937007874015748},{"duration":0.1875,"midi":74,"time":469.6875,"velocity":0.3937007874015748},{"duration":0.1875,"midi":89,"time":469.6875,"velocity":0.3937007874015748},{"duration":0.1875,"midi":91,"time":469.7109375,"velocity":0.3937007874015748},{"duration":0.1875,"midi":75,"time":469.7109375,"velocity":0.3937007874015748},{"duration":0.1875,"midi":84,"time":469.7109375,"velocity":0.3937007874015748},{"duration":0.1875,"midi":37,"time":469.7109375,"velocity":0.3937007874015748},{"duration":0.1875,"midi":83,"time":469.734375,"velocity":0.3937007874015748},{"duration":0.1875,"midi":76,"time":469.734375,"velocity":0.3937007874015748},{"duration":0.1875,"midi":92,"time":469.734375,"velocity":0.3937007874015748},{"duration":0.1875,"midi":38,"time":469.734375,"velocity":0.3937007874015748},{"duration":0.1875,"midi":77,"time":469.7578125,"velocity":0.3937007874015748},{"duration":0.1875,"midi":93,"time":469.7578125,"velocity":0.3937007874015748},{"duration":0.1875,"midi":39,"time":469.7578125,"velocity":0.3937007874015748},{"duration":0.1875,"midi":82,"time":469.7578125,"velocity":0.3937007874015748},{"duration":0.1875,"midi":78,"time":469.78125,"velocity":0.3937007874015748},{"duration":0.1875,"midi":81,"time":469.78125,"velocity":0.3937007874015748},{"duration":0.1875,"midi":40,"time":469.78125,"velocity":0.3937007874015748},{"duration":0.1875,"midi":94,"time":469.78125,"velocity":0.3937007874015748},{"duration":0.1875,"midi":95,"time":469.8046875,"velocity":0.3937007874015748},{"duration":0.1875,"midi":41,"time":469.8046875,"velocity":0.3937007874015748},{"duration":0.1875,"midi":79,"time":469.8046875,"velocity":0.3937007874015748},{"duration":0.1875,"midi":80,"time":469.8046875,"velocity":0.3937007874015748},{"duration":0.1875,"midi":80,"time":469.828125,"velocity":0.3937007874015748},{"duration":0.1875,"midi":42,"time":469.828125,"velocity":0.3937007874015748},{"duration":0.1875,"midi":79,"time":469.828125,"velocity":0.3937007874015748},{"duration":0.1875,"midi":78,"time":469.8515625,"velocity":0.3937007874015748},{"duration":0.1875,"midi":43,"time":469.8515625,"velocity":0.3937007874015748},{"duration":0.1875,"midi":81,"time":469.8515625,"velocity":0.3937007874015748},{"duration":0.1875,"midi":29,"time":469.875,"velocity":0.3937007874015748},{"duration":0.1875,"midi":78,"time":469.875,"velocity":0.3937007874015748},{"duration":0.1875,"midi":54,"time":469.875,"velocity":0.3937007874015748},{"duration":0.1875,"midi":82,"time":469.875,"velocity":0.3937007874015748},{"duration":0.1875,"midi":53,"time":469.875,"velocity":0.3937007874015748},{"duration":0.1875,"midi":41,"time":469.875,"velocity":0.3937007874015748},{"duration":0.1875,"midi":89,"time":469.875,"velocity":0.3937007874015748},{"duration":0.1875,"midi":65,"time":469.875,"velocity":0.3937007874015748},{"duration":0.1875,"midi":77,"time":469.875,"velocity":0.3937007874015748},{"duration":0.1875,"midi":66,"time":469.875,"velocity":0.3937007874015748},{"duration":0.1875,"midi":44,"time":469.875,"velocity":0.3937007874015748},{"duration":0.1875,"midi":77,"time":469.875,"velocity":0.3937007874015748},{"duration":0.1875,"midi":90,"time":469.875,"velocity":0.3937007874015748},{"duration":0.1875,"midi":30,"time":469.875,"velocity":0.3937007874015748},{"duration":0.1875,"midi":42,"time":469.875,"velocity":0.3937007874015748},{"duration":0.1875,"midi":83,"time":469.8984375,"velocity":0.3937007874015748},{"duration":0.1875,"midi":76,"time":469.8984375,"velocity":0.3937007874015748},{"duration":0.1875,"midi":45,"time":469.8984375,"velocity":0.3937007874015748},{"duration":0.1875,"midi":84,"time":469.921875,"velocity":0.3937007874015748},{"duration":0.1875,"midi":46,"time":469.921875,"velocity":0.3937007874015748},{"duration":0.1875,"midi":75,"time":469.921875,"velocity":0.3937007874015748},{"duration":0.1875,"midi":47,"time":469.9453125,"velocity":0.3937007874015748},{"duration":0.1875,"midi":85,"time":469.9453125,"velocity":0.3937007874015748},{"duration":0.1875,"midi":74,"time":469.9453125,"velocity":0.3937007874015748},{"duration":0.1875,"midi":73,"time":469.96875,"velocity":0.3937007874015748},{"duration":0.1875,"midi":48,"time":469.96875,"velocity":0.3937007874015748},{"duration":0.1875,"midi":86,"time":469.96875,"velocity":0.3937007874015748},{"duration":0.1875,"midi":87,"time":469.9921875,"velocity":0.3937007874015748},{"duration":0.1875,"midi":49,"time":469.9921875,"velocity":0.3937007874015748},{"duration":0.1875,"midi":72,"time":469.9921875,"velocity":0.3937007874015748},{"duration":0.1875,"midi":88,"time":470.015625,"velocity":0.3937007874015748},{"duration":0.1875,"midi":71,"time":470.015625,"velocity":0.3937007874015748},{"duration":0.1875,"midi":50,"time":470.015625,"velocity":0.3937007874015748},{"duration":0.1875,"midi":89,"time":470.0390625,"velocity":0.3937007874015748},{"duration":0.1875,"midi":70,"time":470.0390625,"velocity":0.3937007874015748},{"duration":0.1875,"midi":51,"time":470.0390625,"velocity":0.3937007874015748},{"duration":0.1875,"midi":67,"time":470.0625,"velocity":0.3937007874015748},{"duration":0.1875,"midi":52,"time":470.0625,"velocity":0.3937007874015748},{"duration":0.1875,"midi":69,"time":470.0625,"velocity":0.3937007874015748},{"duration":0.1875,"midi":91,"time":470.0625,"velocity":0.3937007874015748},{"duration":0.1875,"midi":79,"time":470.0625,"velocity":0.3937007874015748},{"duration":0.1875,"midi":90,"time":470.0625,"velocity":0.3937007874015748},{"duration":0.1875,"midi":28,"time":470.0625,"velocity":0.3937007874015748},{"duration":0.1875,"midi":52,"time":470.0625,"velocity":0.3937007874015748},{"duration":0.1875,"midi":55,"time":470.0625,"velocity":0.3937007874015748},{"duration":0.1875,"midi":40,"time":470.0625,"velocity":0.3937007874015748},{"duration":0.1875,"midi":76,"time":470.0625,"velocity":0.3937007874015748},{"duration":0.1875,"midi":88,"time":470.0625,"velocity":0.3937007874015748},{"duration":0.1875,"midi":64,"time":470.0625,"velocity":0.3937007874015748},{"duration":0.1875,"midi":43,"time":470.0625,"velocity":0.3937007874015748},{"duration":0.1875,"midi":31,"time":470.0625,"velocity":0.3937007874015748},{"duration":0.1875,"midi":91,"time":470.0859375,"velocity":0.3937007874015748},{"duration":0.1875,"midi":53,"time":470.0859375,"velocity":0.3937007874015748},{"duration":0.1875,"midi":68,"time":470.0859375,"velocity":0.3937007874015748},{"duration":0.1875,"midi":92,"time":470.109375,"velocity":0.3937007874015748},{"duration":0.1875,"midi":54,"time":470.109375,"velocity":0.3937007874015748},{"duration":0.1875,"midi":67,"time":470.109375,"velocity":0.3937007874015748},{"duration":0.1875,"midi":93,"time":470.1328125,"velocity":0.3937007874015748},{"duration":0.1875,"midi":55,"time":470.1328125,"velocity":0.3937007874015748},{"duration":0.1875,"midi":66,"time":470.1328125,"velocity":0.3937007874015748},{"duration":0.1875,"midi":65,"time":470.15625,"velocity":0.3937007874015748},{"duration":0.1875,"midi":56,"time":470.15625,"velocity":0.3937007874015748},{"duration":0.1875,"midi":94,"time":470.15625,"velocity":0.3937007874015748},{"duration":0.1875,"midi":57,"time":470.1796875,"velocity":0.3937007874015748},{"duration":0.1875,"midi":64,"time":470.1796875,"velocity":0.3937007874015748},{"duration":0.1875,"midi":95,"time":470.1796875,"velocity":0.3937007874015748},{"duration":0.1875,"midi":58,"time":470.203125,"velocity":0.3937007874015748},{"duration":0.1875,"midi":63,"time":470.203125,"velocity":0.3937007874015748},{"duration":0.1875,"midi":59,"time":470.2265625,"velocity":0.3937007874015748},{"duration":0.1875,"midi":62,"time":470.2265625,"velocity":0.3937007874015748},{"duration":0.1875,"midi":44,"time":470.25,"velocity":0.3937007874015748},{"duration":0.1875,"midi":27,"time":470.25,"velocity":0.3937007874015748},{"duration":0.1875,"midi":60,"time":470.25,"velocity":0.3937007874015748},{"duration":0.1875,"midi":87,"time":470.25,"velocity":0.3937007874015748},{"duration":0.1875,"midi":39,"time":470.25,"velocity":0.3937007874015748},{"duration":0.1875,"midi":80,"time":470.25,"velocity":0.3937007874015748},{"duration":0.1875,"midi":92,"time":470.25,"velocity":0.3937007874015748},{"duration":0.1875,"midi":32,"time":470.25,"velocity":0.3937007874015748},{"duration":0.1875,"midi":51,"time":470.25,"velocity":0.3937007874015748},{"duration":0.1875,"midi":75,"time":470.25,"velocity":0.3937007874015748},{"duration":0.1875,"midi":63,"time":470.25,"velocity":0.3937007874015748},{"duration":0.1875,"midi":61,"time":470.25,"velocity":0.3937007874015748},{"duration":0.1875,"midi":56,"time":470.25,"velocity":0.3937007874015748},{"duration":0.1875,"midi":68,"time":470.25,"velocity":0.3937007874015748},{"duration":0.1875,"midi":61,"time":470.2734375,"velocity":0.3937007874015748},{"duration":0.1875,"midi":60,"time":470.2734375,"velocity":0.3937007874015748},{"duration":0.1875,"midi":59,"time":470.296875,"velocity":0.3937007874015748},{"duration":0.1875,"midi":62,"time":470.296875,"velocity":0.3937007874015748},{"duration":0.1875,"midi":63,"time":470.3203125,"velocity":0.3937007874015748},{"duration":0.1875,"midi":58,"time":470.3203125,"velocity":0.3937007874015748},{"duration":0.1875,"midi":57,"time":470.34375,"velocity":0.3937007874015748},{"duration":0.1875,"midi":64,"time":470.34375,"velocity":0.3937007874015748},{"duration":0.1875,"midi":65,"time":470.3671875,"velocity":0.3937007874015748},{"duration":0.1875,"midi":56,"time":470.3671875,"velocity":0.3937007874015748},{"duration":0.1875,"midi":66,"time":470.390625,"velocity":0.3937007874015748},{"duration":0.1875,"midi":55,"time":470.390625,"velocity":0.3937007874015748},{"duration":0.1875,"midi":67,"time":470.4140625,"velocity":0.3937007874015748},{"duration":0.1875,"midi":54,"time":470.4140625,"velocity":0.3937007874015748},{"duration":0.1875,"midi":74,"time":470.4375,"velocity":0.3937007874015748},{"duration":0.1875,"midi":38,"time":470.4375,"velocity":0.3937007874015748},{"duration":0.1875,"midi":68,"time":470.4375,"velocity":0.3937007874015748},{"duration":0.1875,"midi":53,"time":470.4375,"velocity":0.3937007874015748},{"duration":0.1875,"midi":81,"time":470.4375,"velocity":0.3937007874015748},{"duration":0.1875,"midi":50,"time":470.4375,"velocity":0.3937007874015748},{"duration":0.1875,"midi":33,"time":470.4375,"velocity":0.3937007874015748},{"duration":0.1875,"midi":62,"time":470.4375,"velocity":0.3937007874015748},{"duration":0.1875,"midi":57,"time":470.4375,"velocity":0.3937007874015748},{"duration":0.1875,"midi":69,"time":470.4375,"velocity":0.3937007874015748},{"duration":0.1875,"midi":86,"time":470.4375,"velocity":0.3937007874015748},{"duration":0.1875,"midi":93,"time":470.4375,"velocity":0.3937007874015748},{"duration":0.1875,"midi":26,"time":470.4375,"velocity":0.3937007874015748},{"duration":0.1875,"midi":45,"time":470.4375,"velocity":0.3937007874015748},{"duration":0.1875,"midi":52,"time":470.4609375,"velocity":0.3937007874015748},{"duration":0.1875,"midi":69,"time":470.4609375,"velocity":0.3937007874015748},{"duration":0.1875,"midi":70,"time":470.484375,"velocity":0.3937007874015748},{"duration":0.1875,"midi":51,"time":470.484375,"velocity":0.3937007874015748},{"duration":0.1875,"midi":71,"time":470.5078125,"velocity":0.3937007874015748},{"duration":0.1875,"midi":50,"time":470.5078125,"velocity":0.3937007874015748},{"duration":0.1875,"midi":49,"time":470.53125,"velocity":0.3937007874015748},{"duration":0.1875,"midi":72,"time":470.53125,"velocity":0.3937007874015748},{"duration":0.1875,"midi":48,"time":470.5546875,"velocity":0.3937007874015748},{"duration":0.1875,"midi":73,"time":470.5546875,"velocity":0.3937007874015748},{"duration":0.1875,"midi":47,"time":470.578125,"velocity":0.3937007874015748},{"duration":0.1875,"midi":74,"time":470.578125,"velocity":0.3937007874015748},{"duration":0.1875,"midi":46,"time":470.6015625,"velocity":0.3937007874015748},{"duration":0.1875,"midi":75,"time":470.6015625,"velocity":0.3937007874015748},{"duration":0.1875,"midi":85,"time":470.625,"velocity":0.3937007874015748},{"duration":0.1875,"midi":61,"time":470.625,"velocity":0.3937007874015748},{"duration":0.1875,"midi":76,"time":470.625,"velocity":0.3937007874015748},{"duration":0.1875,"midi":70,"time":470.625,"velocity":0.3937007874015748},{"duration":0.1875,"midi":94,"time":470.625,"velocity":0.3937007874015748},{"duration":0.1875,"midi":45,"time":470.625,"velocity":0.3937007874015748},{"duration":0.1875,"midi":49,"time":470.625,"velocity":0.3937007874015748},{"duration":0.1875,"midi":73,"time":470.625,"velocity":0.3937007874015748},{"duration":0.1875,"midi":46,"time":470.625,"velocity":0.3937007874015748},{"duration":0.1875,"midi":58,"time":470.625,"velocity":0.3937007874015748},{"duration":0.1875,"midi":25,"time":470.625,"velocity":0.3937007874015748},{"duration":0.1875,"midi":37,"time":470.625,"velocity":0.3937007874015748},{"duration":0.1875,"midi":82,"time":470.625,"velocity":0.3937007874015748},{"duration":0.1875,"midi":34,"time":470.625,"velocity":0.3937007874015748},{"duration":0.1875,"midi":77,"time":470.6484375,"velocity":0.3937007874015748},{"duration":0.1875,"midi":44,"time":470.6484375,"velocity":0.3937007874015748},{"duration":0.1875,"midi":78,"time":470.671875,"velocity":0.3937007874015748},{"duration":0.1875,"midi":43,"time":470.671875,"velocity":0.3937007874015748},{"duration":0.1875,"midi":42,"time":470.6953125,"velocity":0.3937007874015748},{"duration":0.1875,"midi":79,"time":470.6953125,"velocity":0.3937007874015748},{"duration":0.1875,"midi":41,"time":470.71875,"velocity":0.3937007874015748},{"duration":0.1875,"midi":80,"time":470.71875,"velocity":0.3937007874015748},{"duration":0.1875,"midi":81,"time":470.7421875,"velocity":0.3937007874015748},{"duration":0.1875,"midi":40,"time":470.7421875,"velocity":0.3937007874015748},{"duration":0.1875,"midi":39,"time":470.765625,"velocity":0.3937007874015748},{"duration":0.1875,"midi":82,"time":470.765625,"velocity":0.3937007874015748},{"duration":0.1875,"midi":83,"time":470.7890625,"velocity":0.3937007874015748},{"duration":0.1875,"midi":38,"time":470.7890625,"velocity":0.3937007874015748},{"duration":0.1875,"midi":84,"time":470.8125,"velocity":0.3937007874015748},{"duration":0.1875,"midi":37,"time":470.8125,"velocity":0.3937007874015748},{"duration":0.1875,"midi":35,"time":470.8125,"velocity":0.3937007874015748},{"duration":0.1875,"midi":83,"time":470.8125,"velocity":0.3937007874015748},{"duration":0.1875,"midi":47,"time":470.8125,"velocity":0.3937007874015748},{"duration":0.1875,"midi":48,"time":470.8125,"velocity":0.3937007874015748},{"duration":0.1875,"midi":72,"time":470.8125,"velocity":0.3937007874015748},{"duration":0.1875,"midi":71,"time":470.8125,"velocity":0.3937007874015748},{"duration":0.1875,"midi":24,"time":470.8125,"velocity":0.3937007874015748},{"duration":0.1875,"midi":95,"time":470.8125,"velocity":0.3937007874015748},{"duration":0.1875,"midi":59,"time":470.8125,"velocity":0.3937007874015748},{"duration":0.1875,"midi":60,"time":470.8125,"velocity":0.3937007874015748},{"duration":0.1875,"midi":36,"time":470.8125,"velocity":0.3937007874015748},{"duration":0.1875,"midi":84,"time":470.8125,"velocity":0.3937007874015748},{"duration":0.1875,"midi":85,"time":470.8359375,"velocity":0.3937007874015748},{"duration":0.1875,"midi":36,"time":470.8359375,"velocity":0.3937007874015748},{"duration":0.1875,"midi":35,"time":470.859375,"velocity":0.3937007874015748},{"duration":0.1875,"midi":86,"time":470.859375,"velocity":0.3937007874015748},{"duration":0.1875,"midi":34,"time":470.8828125,"velocity":0.3937007874015748},{"duration":0.1875,"midi":87,"time":470.8828125,"velocity":0.3937007874015748},{"duration":0.1875,"midi":33,"time":470.90625,"velocity":0.3937007874015748},{"duration":0.1875,"midi":88,"time":470.90625,"velocity":0.3937007874015748},{"duration":0.1875,"midi":32,"time":470.9296875,"velocity":0.3937007874015748},{"duration":0.1875,"midi":89,"time":470.9296875,"velocity":0.3937007874015748},{"duration":0.1875,"midi":90,"time":470.953125,"velocity":0.3937007874015748},{"duration":0.1875,"midi":31,"time":470.953125,"velocity":0.3937007874015748},{"duration":0.1875,"midi":91,"time":470.9765625,"velocity":0.3937007874015748},{"duration":0.1875,"midi":30,"time":470.9765625,"velocity":0.3937007874015748},{"duration":0.1875,"midi":95,"time":471,"velocity":0.3937007874015748},{"duration":0.1875,"midi":71,"time":471,"velocity":0.3937007874015748},{"duration":0.1875,"midi":24,"time":471,"velocity":0.3937007874015748},{"duration":0.1875,"midi":35,"time":471,"velocity":0.3937007874015748},{"duration":0.1875,"midi":48,"time":471,"velocity":0.3937007874015748},{"duration":0.1875,"midi":47,"time":471,"velocity":0.3937007874015748},{"duration":0.1875,"midi":83,"time":471,"velocity":0.3937007874015748},{"duration":0.1875,"midi":36,"time":471,"velocity":0.3937007874015748},{"duration":0.1875,"midi":72,"time":471,"velocity":0.3937007874015748},{"duration":0.1875,"midi":60,"time":471,"velocity":0.3937007874015748},{"duration":0.1875,"midi":59,"time":471,"velocity":0.3937007874015748},{"duration":0.1875,"midi":84,"time":471,"velocity":0.3937007874015748},{"duration":0.1875,"midi":93,"time":471.0234375,"velocity":0.3937007874015748},{"duration":0.1875,"midi":28,"time":471.0234375,"velocity":0.3937007874015748},{"duration":0.1875,"midi":29,"time":471.046875,"velocity":0.3937007874015748},{"duration":0.1875,"midi":92,"time":471.046875,"velocity":0.3937007874015748},{"duration":0.1875,"midi":91,"time":471.0703125,"velocity":0.3937007874015748},{"duration":0.1875,"midi":30,"time":471.0703125,"velocity":0.3937007874015748},{"duration":0.1875,"midi":31,"time":471.09375,"velocity":0.3937007874015748},{"duration":0.1875,"midi":90,"time":471.09375,"velocity":0.3937007874015748},{"duration":0.1875,"midi":89,"time":471.1171875,"velocity":0.3937007874015748},{"duration":0.1875,"midi":32,"time":471.1171875,"velocity":0.3937007874015748},{"duration":0.1875,"midi":33,"time":471.140625,"velocity":0.3937007874015748},{"duration":0.1875,"midi":88,"time":471.140625,"velocity":0.3937007874015748},{"duration":0.1875,"midi":87,"time":471.1640625,"velocity":0.3937007874015748},{"duration":0.1875,"midi":34,"time":471.1640625,"velocity":0.3937007874015748},{"duration":0.1875,"midi":70,"time":471.1875,"velocity":0.3937007874015748},{"duration":0.1875,"midi":94,"time":471.1875,"velocity":0.3937007874015748},{"duration":0.1875,"midi":49,"time":471.1875,"velocity":0.3937007874015748},{"duration":0.1875,"midi":73,"time":471.1875,"velocity":0.3937007874015748},{"duration":0.1875,"midi":46,"time":471.1875,"velocity":0.3937007874015748},{"duration":0.1875,"midi":61,"time":471.1875,"velocity":0.3937007874015748},{"duration":0.1875,"midi":58,"time":471.1875,"velocity":0.3937007874015748},{"duration":0.1875,"midi":85,"time":471.1875,"velocity":0.3937007874015748},{"duration":0.1875,"midi":37,"time":471.1875,"velocity":0.3937007874015748},{"duration":0.1875,"midi":25,"time":471.1875,"velocity":0.3937007874015748},{"duration":0.1875,"midi":35,"time":471.1875,"velocity":0.3937007874015748},{"duration":0.1875,"midi":34,"time":471.1875,"velocity":0.3937007874015748},{"duration":0.1875,"midi":86,"time":471.1875,"velocity":0.3937007874015748},{"duration":0.1875,"midi":82,"time":471.1875,"velocity":0.3937007874015748},{"duration":0.1875,"midi":85,"time":471.2109375,"velocity":0.3937007874015748},{"duration":0.1875,"midi":36,"time":471.2109375,"velocity":0.3937007874015748},{"duration":0.1875,"midi":37,"time":471.234375,"velocity":0.3937007874015748},{"duration":0.1875,"midi":84,"time":471.234375,"velocity":0.3937007874015748},{"duration":0.1875,"midi":38,"time":471.2578125,"velocity":0.3937007874015748},{"duration":0.1875,"midi":83,"time":471.2578125,"velocity":0.3937007874015748},{"duration":0.1875,"midi":82,"time":471.28125,"velocity":0.3937007874015748},{"duration":0.1875,"midi":39,"time":471.28125,"velocity":0.3937007874015748},{"duration":0.1875,"midi":40,"time":471.3046875,"velocity":0.3937007874015748},{"duration":0.1875,"midi":81,"time":471.3046875,"velocity":0.3937007874015748},{"duration":0.1875,"midi":80,"time":471.328125,"velocity":0.3937007874015748},{"duration":0.1875,"midi":41,"time":471.328125,"velocity":0.3937007874015748},{"duration":0.1875,"midi":79,"time":471.3515625,"velocity":0.3937007874015748},{"duration":0.1875,"midi":42,"time":471.3515625,"velocity":0.3937007874015748},{"duration":0.1875,"midi":57,"time":471.375,"velocity":0.3937007874015748},{"duration":0.1875,"midi":43,"time":471.375,"velocity":0.3937007874015748},{"duration":0.1875,"midi":69,"time":471.375,"velocity":0.3937007874015748},{"duration":0.1875,"midi":26,"time":471.375,"velocity":0.3937007874015748},{"duration":0.1875,"midi":93,"time":471.375,"velocity":0.3937007874015748},{"duration":0.1875,"midi":74,"time":471.375,"velocity":0.3937007874015748},{"duration":0.1875,"midi":86,"time":471.375,"velocity":0.3937007874015748},{"duration":0.1875,"midi":62,"time":471.375,"velocity":0.3937007874015748},{"duration":0.1875,"midi":50,"time":471.375,"velocity":0.3937007874015748},{"duration":0.1875,"midi":33,"time":471.375,"velocity":0.3937007874015748},{"duration":0.1875,"midi":78,"time":471.375,"velocity":0.3937007874015748},{"duration":0.1875,"midi":45,"time":471.375,"velocity":0.3937007874015748},{"duration":0.1875,"midi":81,"time":471.375,"velocity":0.3937007874015748},{"duration":0.1875,"midi":38,"time":471.375,"velocity":0.3937007874015748},{"duration":0.1875,"midi":44,"time":471.3984375,"velocity":0.3937007874015748},{"duration":0.1875,"midi":77,"time":471.3984375,"velocity":0.3937007874015748},{"duration":0.1875,"midi":76,"time":471.421875,"velocity":0.3937007874015748},{"duration":0.1875,"midi":45,"time":471.421875,"velocity":0.3937007874015748},{"duration":0.1875,"midi":75,"time":471.4453125,"velocity":0.3937007874015748},{"duration":0.1875,"midi":46,"time":471.4453125,"velocity":0.3937007874015748},{"duration":0.1875,"midi":74,"time":471.46875,"velocity":0.3937007874015748},{"duration":0.1875,"midi":47,"time":471.46875,"velocity":0.3937007874015748},{"duration":0.1875,"midi":73,"time":471.4921875,"velocity":0.3937007874015748},{"duration":0.1875,"midi":48,"time":471.4921875,"velocity":0.3937007874015748},{"duration":0.1875,"midi":72,"time":471.515625,"velocity":0.3937007874015748},{"duration":0.1875,"midi":49,"time":471.515625,"velocity":0.3937007874015748},{"duration":0.1875,"midi":71,"time":471.5390625,"velocity":0.3937007874015748},{"duration":0.1875,"midi":50,"time":471.5390625,"velocity":0.3937007874015748},{"duration":0.1875,"midi":70,"time":471.5625,"velocity":0.3937007874015748},{"duration":0.1875,"midi":32,"time":471.5625,"velocity":0.3937007874015748},{"duration":0.1875,"midi":68,"time":471.5625,"velocity":0.3937007874015748},{"duration":0.1875,"midi":80,"time":471.5625,"velocity":0.3937007874015748},{"duration":0.1875,"midi":51,"time":471.5625,"velocity":0.3937007874015748},{"duration":0.1875,"midi":44,"time":471.5625,"velocity":0.3937007874015748},{"duration":0.1875,"midi":87,"time":471.5625,"velocity":0.3937007874015748},{"duration":0.1875,"midi":75,"time":471.5625,"velocity":0.3937007874015748},{"duration":0.1875,"midi":92,"time":471.5625,"velocity":0.3937007874015748},{"duration":0.1875,"midi":63,"time":471.5625,"velocity":0.3937007874015748},{"duration":0.1875,"midi":39,"time":471.5625,"velocity":0.3937007874015748},{"duration":0.1875,"midi":56,"time":471.5625,"velocity":0.3937007874015748},{"duration":0.1875,"midi":27,"time":471.5625,"velocity":0.3937007874015748},{"duration":0.1875,"midi":51,"time":471.5625,"velocity":0.3937007874015748},{"duration":0.1875,"midi":52,"time":471.5859375,"velocity":0.3937007874015748},{"duration":0.1875,"midi":69,"time":471.5859375,"velocity":0.3937007874015748},{"duration":0.1875,"midi":68,"time":471.609375,"velocity":0.3937007874015748},{"duration":0.1875,"midi":53,"time":471.609375,"velocity":0.3937007874015748},{"duration":0.1875,"midi":54,"time":471.6328125,"velocity":0.3937007874015748},{"duration":0.1875,"midi":67,"time":471.6328125,"velocity":0.3937007874015748},{"duration":0.1875,"midi":55,"time":471.65625,"velocity":0.3937007874015748},{"duration":0.1875,"midi":66,"time":471.65625,"velocity":0.3937007874015748},{"duration":0.1875,"midi":56,"time":471.6796875,"velocity":0.3937007874015748},{"duration":0.1875,"midi":65,"time":471.6796875,"velocity":0.3937007874015748},{"duration":0.1875,"midi":57,"time":471.703125,"velocity":0.3937007874015748},{"duration":0.1875,"midi":64,"time":471.703125,"velocity":0.3937007874015748},{"duration":0.1875,"midi":58,"time":471.7265625,"velocity":0.3937007874015748},{"duration":0.1875,"midi":63,"time":471.7265625,"velocity":0.3937007874015748},{"duration":0.1875,"midi":31,"time":471.75,"velocity":0.3937007874015748},{"duration":0.1875,"midi":59,"time":471.75,"velocity":0.3937007874015748},{"duration":0.1875,"midi":88,"time":471.75,"velocity":0.3937007874015748},{"duration":0.1875,"midi":64,"time":471.75,"velocity":0.3937007874015748},{"duration":0.1875,"midi":62,"time":471.75,"velocity":0.3937007874015748},{"duration":0.1875,"midi":28,"time":471.75,"velocity":0.3937007874015748},{"duration":0.1875,"midi":67,"time":471.75,"velocity":0.3937007874015748},{"duration":0.1875,"midi":43,"time":471.75,"velocity":0.3937007874015748},{"duration":0.1875,"midi":79,"time":471.75,"velocity":0.3937007874015748},{"duration":0.1875,"midi":55,"time":471.75,"velocity":0.3937007874015748},{"duration":0.1875,"midi":40,"time":471.75,"velocity":0.3937007874015748},{"duration":0.1875,"midi":52,"time":471.75,"velocity":0.3937007874015748},{"duration":0.1875,"midi":91,"time":471.75,"velocity":0.3937007874015748},{"duration":0.1875,"midi":76,"time":471.75,"velocity":0.3937007874015748},{"duration":0.1875,"midi":61,"time":471.7734375,"velocity":0.3937007874015748},{"duration":0.1875,"midi":60,"time":471.7734375,"velocity":0.3937007874015748},{"duration":0.1875,"midi":61,"time":471.796875,"velocity":0.3937007874015748},{"duration":0.1875,"midi":60,"time":471.796875,"velocity":0.3937007874015748},{"duration":0.1875,"midi":59,"time":471.8203125,"velocity":0.3937007874015748},{"duration":0.1875,"midi":62,"time":471.8203125,"velocity":0.3937007874015748},{"duration":0.1875,"midi":58,"time":471.84375,"velocity":0.3937007874015748},{"duration":0.1875,"midi":63,"time":471.84375,"velocity":0.3937007874015748},{"duration":0.1875,"midi":57,"time":471.8671875,"velocity":0.3937007874015748},{"duration":0.1875,"midi":64,"time":471.8671875,"velocity":0.3937007874015748},{"duration":0.1875,"midi":65,"time":471.890625,"velocity":0.3937007874015748},{"duration":0.1875,"midi":56,"time":471.890625,"velocity":0.3937007874015748},{"duration":0.1875,"midi":66,"time":471.9140625,"velocity":0.3937007874015748},{"duration":0.1875,"midi":55,"time":471.9140625,"velocity":0.3937007874015748},{"duration":0.1875,"midi":77,"time":471.9375,"velocity":0.3937007874015748},{"duration":0.1875,"midi":42,"time":471.9375,"velocity":0.3937007874015748},{"duration":0.1875,"midi":54,"time":471.9375,"velocity":0.3937007874015748},{"duration":0.1875,"midi":89,"time":471.9375,"velocity":0.3937007874015748},{"duration":0.1875,"midi":78,"time":471.9375,"velocity":0.3937007874015748},{"duration":0.1875,"midi":53,"time":471.9375,"velocity":0.3937007874015748},{"duration":0.1875,"midi":30,"time":471.9375,"velocity":0.3937007874015748},{"duration":0.1875,"midi":66,"time":471.9375,"velocity":0.3937007874015748},{"duration":0.1875,"midi":65,"time":471.9375,"velocity":0.3937007874015748},{"duration":0.1875,"midi":29,"time":471.9375,"velocity":0.3937007874015748},{"duration":0.1875,"midi":41,"time":471.9375,"velocity":0.3937007874015748},{"duration":0.1875,"midi":67,"time":471.9375,"velocity":0.3937007874015748},{"duration":0.1875,"midi":90,"time":471.9375,"velocity":0.3937007874015748},{"duration":0.1875,"midi":54,"time":471.9375,"velocity":0.3937007874015748},{"duration":0.1875,"midi":68,"time":471.9609375,"velocity":0.3937007874015748},{"duration":0.1875,"midi":53,"time":471.9609375,"velocity":0.3937007874015748},{"duration":0.1875,"midi":69,"time":471.984375,"velocity":0.3937007874015748},{"duration":0.1875,"midi":52,"time":471.984375,"velocity":0.3937007874015748},{"duration":0.1875,"midi":51,"time":472.0078125,"velocity":0.3937007874015748},{"duration":0.1875,"midi":70,"time":472.0078125,"velocity":0.3937007874015748},{"duration":0.1875,"midi":71,"time":472.03125,"velocity":0.3937007874015748},{"duration":0.1875,"midi":50,"time":472.03125,"velocity":0.3937007874015748},{"duration":0.1875,"midi":72,"time":472.0546875,"velocity":0.3937007874015748},{"duration":0.1875,"midi":49,"time":472.0546875,"velocity":0.3937007874015748},{"duration":0.1875,"midi":73,"time":472.078125,"velocity":0.3937007874015748},{"duration":0.1875,"midi":48,"time":472.078125,"velocity":0.3937007874015748},{"duration":0.1875,"midi":47,"time":472.1015625,"velocity":0.3937007874015748},{"duration":0.1875,"midi":74,"time":472.1015625,"velocity":0.3937007874015748},{"duration":0.1875,"midi":30,"time":472.125,"velocity":0.3937007874015748},{"duration":0.1875,"midi":54,"time":472.125,"velocity":0.3937007874015748},{"duration":0.1875,"midi":75,"time":472.125,"velocity":0.3937007874015748},{"duration":0.1875,"midi":42,"time":472.125,"velocity":0.3937007874015748},{"duration":0.1875,"midi":46,"time":472.125,"velocity":0.3937007874015748},{"duration":0.1875,"midi":77,"time":472.125,"velocity":0.3937007874015748},{"duration":0.1875,"midi":89,"time":472.125,"velocity":0.3937007874015748},{"duration":0.1875,"midi":90,"time":472.125,"velocity":0.3937007874015748},{"duration":0.1875,"midi":66,"time":472.125,"velocity":0.3937007874015748},{"duration":0.1875,"midi":53,"time":472.125,"velocity":0.3937007874015748},{"duration":0.1875,"midi":78,"time":472.125,"velocity":0.3937007874015748},{"duration":0.1875,"midi":29,"time":472.125,"velocity":0.3937007874015748},{"duration":0.1875,"midi":41,"time":472.125,"velocity":0.3937007874015748},{"duration":0.1875,"midi":65,"time":472.125,"velocity":0.3937007874015748},{"duration":0.1875,"midi":76,"time":472.1484375,"velocity":0.3937007874015748},{"duration":0.1875,"midi":45,"time":472.1484375,"velocity":0.3937007874015748},{"duration":0.1875,"midi":77,"time":472.171875,"velocity":0.3937007874015748},{"duration":0.1875,"midi":44,"time":472.171875,"velocity":0.3937007874015748},{"duration":0.1875,"midi":43,"time":472.1953125,"velocity":0.3937007874015748},{"duration":0.1875,"midi":78,"time":472.1953125,"velocity":0.3937007874015748},{"duration":0.1875,"midi":79,"time":472.21875,"velocity":0.3937007874015748},{"duration":0.1875,"midi":42,"time":472.21875,"velocity":0.3937007874015748},{"duration":0.1875,"midi":80,"time":472.2421875,"velocity":0.3937007874015748},{"duration":0.1875,"midi":41,"time":472.2421875,"velocity":0.3937007874015748},{"duration":0.1875,"midi":40,"time":472.265625,"velocity":0.3937007874015748},{"duration":0.1875,"midi":81,"time":472.265625,"velocity":0.3937007874015748},{"duration":0.1875,"midi":39,"time":472.2890625,"velocity":0.3937007874015748},{"duration":0.1875,"midi":82,"time":472.2890625,"velocity":0.3937007874015748},{"duration":0.1875,"midi":55,"time":472.3125,"velocity":0.3937007874015748},{"duration":0.1875,"midi":64,"time":472.3125,"velocity":0.3937007874015748},{"duration":0.1875,"midi":38,"time":472.3125,"velocity":0.3937007874015748},{"duration":0.1875,"midi":91,"time":472.3125,"velocity":0.3937007874015748},{"duration":0.1875,"midi":83,"time":472.3125,"velocity":0.3937007874015748},{"duration":0.1875,"midi":79,"time":472.3125,"velocity":0.3937007874015748},{"duration":0.1875,"midi":76,"time":472.3125,"velocity":0.3937007874015748},{"duration":0.1875,"midi":88,"time":472.3125,"velocity":0.3937007874015748},{"duration":0.1875,"midi":31,"time":472.3125,"velocity":0.3937007874015748},{"duration":0.1875,"midi":28,"time":472.3125,"velocity":0.3937007874015748},{"duration":0.1875,"midi":52,"time":472.3125,"velocity":0.3937007874015748},{"duration":0.1875,"midi":43,"time":472.3125,"velocity":0.3937007874015748},{"duration":0.1875,"midi":40,"time":472.3125,"velocity":0.3937007874015748},{"duration":0.1875,"midi":67,"time":472.3125,"velocity":0.3937007874015748},{"duration":0.1875,"midi":84,"time":472.3359375,"velocity":0.3937007874015748},{"duration":0.1875,"midi":37,"time":472.3359375,"velocity":0.3937007874015748},{"duration":0.1875,"midi":36,"time":472.359375,"velocity":0.3937007874015748},{"duration":0.1875,"midi":85,"time":472.359375,"velocity":0.3937007874015748},{"duration":0.1875,"midi":35,"time":472.3828125,"velocity":0.3937007874015748},{"duration":0.1875,"midi":86,"time":472.3828125,"velocity":0.3937007874015748},{"duration":0.1875,"midi":87,"time":472.40625,"velocity":0.3937007874015748},{"duration":0.1875,"midi":34,"time":472.40625,"velocity":0.3937007874015748},{"duration":0.1875,"midi":88,"time":472.4296875,"velocity":0.3937007874015748},{"duration":0.1875,"midi":33,"time":472.4296875,"velocity":0.3937007874015748},{"duration":0.1875,"midi":32,"time":472.453125,"velocity":0.3937007874015748},{"duration":0.1875,"midi":89,"time":472.453125,"velocity":0.3937007874015748},{"duration":0.1875,"midi":90,"time":472.4765625,"velocity":0.3937007874015748},{"duration":0.1875,"midi":31,"time":472.4765625,"velocity":0.3937007874015748},{"duration":0.1875,"midi":30,"time":472.5,"velocity":0.3937007874015748},{"duration":0.1875,"midi":75,"time":472.5,"velocity":0.3937007874015748},{"duration":0.1875,"midi":44,"time":472.5,"velocity":0.3937007874015748},{"duration":0.1875,"midi":56,"time":472.5,"velocity":0.3937007874015748},{"duration":0.1875,"midi":87,"time":472.5,"velocity":0.3937007874015748},{"duration":0.1875,"midi":32,"time":472.5,"velocity":0.3937007874015748},{"duration":0.1875,"midi":27,"time":472.5,"velocity":0.3937007874015748},{"duration":0.1875,"midi":63,"time":472.5,"velocity":0.3937007874015748},{"duration":0.1875,"midi":91,"time":472.5,"velocity":0.3937007874015748},{"duration":0.1875,"midi":80,"time":472.5,"velocity":0.3937007874015748},{"duration":0.1875,"midi":28,"time":472.5,"velocity":0.3937007874015748},{"duration":0.1875,"midi":39,"time":472.5,"velocity":0.3937007874015748},{"duration":0.1875,"midi":51,"time":472.5,"velocity":0.3937007874015748},{"duration":0.1875,"midi":93,"time":472.5,"velocity":0.3937007874015748},{"duration":0.1875,"midi":92,"time":472.5,"velocity":0.3937007874015748},{"duration":0.1875,"midi":68,"time":472.5,"velocity":0.3937007874015748},{"duration":0.1875,"midi":92,"time":472.5234375,"velocity":0.3937007874015748},{"duration":0.1875,"midi":29,"time":472.5234375,"velocity":0.3937007874015748},{"duration":0.1875,"midi":91,"time":472.546875,"velocity":0.3937007874015748},{"duration":0.1875,"midi":30,"time":472.546875,"velocity":0.3937007874015748},{"duration":0.1875,"midi":90,"time":472.5703125,"velocity":0.3937007874015748},{"duration":0.1875,"midi":31,"time":472.5703125,"velocity":0.3937007874015748},{"duration":0.1875,"midi":32,"time":472.59375,"velocity":0.3937007874015748},{"duration":0.1875,"midi":89,"time":472.59375,"velocity":0.3937007874015748},{"duration":0.1875,"midi":33,"time":472.6171875,"velocity":0.3937007874015748},{"duration":0.1875,"midi":88,"time":472.6171875,"velocity":0.3937007874015748},{"duration":0.1875,"midi":34,"time":472.640625,"velocity":0.3937007874015748},{"duration":0.1875,"midi":87,"time":472.640625,"velocity":0.3937007874015748},{"duration":0.1875,"midi":35,"time":472.6640625,"velocity":0.3937007874015748},{"duration":0.1875,"midi":86,"time":472.6640625,"velocity":0.3937007874015748},{"duration":0.1875,"midi":74,"time":472.6875,"velocity":0.3937007874015748},{"duration":0.1875,"midi":86,"time":472.6875,"velocity":0.3937007874015748},{"duration":0.1875,"midi":93,"time":472.6875,"velocity":0.3937007874015748},{"duration":0.1875,"midi":57,"time":472.6875,"velocity":0.3937007874015748},{"duration":0.1875,"midi":62,"time":472.6875,"velocity":0.3937007874015748},{"duration":0.1875,"midi":45,"time":472.6875,"velocity":0.3937007874015748},{"duration":0.1875,"midi":50,"time":472.6875,"velocity":0.3937007874015748},{"duration":0.1875,"midi":81,"time":472.6875,"velocity":0.3937007874015748},{"duration":0.1875,"midi":38,"time":472.6875,"velocity":0.3937007874015748},{"duration":0.1875,"midi":36,"time":472.6875,"velocity":0.3937007874015748},{"duration":0.1875,"midi":69,"time":472.6875,"velocity":0.3937007874015748},{"duration":0.1875,"midi":26,"time":472.6875,"velocity":0.3937007874015748},{"duration":0.1875,"midi":33,"time":472.6875,"velocity":0.3937007874015748},{"duration":0.1875,"midi":85,"time":472.6875,"velocity":0.3937007874015748},{"duration":0.1875,"midi":84,"time":472.7109375,"velocity":0.3937007874015748},{"duration":0.1875,"midi":37,"time":472.7109375,"velocity":0.3937007874015748},{"duration":0.1875,"midi":83,"time":472.734375,"velocity":0.3937007874015748},{"duration":0.1875,"midi":38,"time":472.734375,"velocity":0.3937007874015748},{"duration":0.1875,"midi":82,"time":472.7578125,"velocity":0.3937007874015748},{"duration":0.1875,"midi":39,"time":472.7578125,"velocity":0.3937007874015748},{"duration":0.1875,"midi":40,"time":472.78125,"velocity":0.3937007874015748},{"duration":0.1875,"midi":81,"time":472.78125,"velocity":0.3937007874015748},{"duration":0.1875,"midi":41,"time":472.8046875,"velocity":0.3937007874015748},{"duration":0.1875,"midi":80,"time":472.8046875,"velocity":0.3937007874015748},{"duration":0.1875,"midi":42,"time":472.828125,"velocity":0.3937007874015748},{"duration":0.1875,"midi":79,"time":472.828125,"velocity":0.3937007874015748},{"duration":0.1875,"midi":78,"time":472.8515625,"velocity":0.3937007874015748},{"duration":0.1875,"midi":43,"time":472.8515625,"velocity":0.3937007874015748},{"duration":0.1875,"midi":82,"time":472.875,"velocity":0.3937007874015748},{"duration":0.1875,"midi":77,"time":472.875,"velocity":0.3937007874015748},{"duration":0.1875,"midi":44,"time":472.875,"velocity":0.3937007874015748},{"duration":0.1875,"midi":46,"time":472.875,"velocity":0.3937007874015748},{"duration":0.1875,"midi":58,"time":472.875,"velocity":0.3937007874015748},{"duration":0.1875,"midi":49,"time":472.875,"velocity":0.3937007874015748},{"duration":0.1875,"midi":37,"time":472.875,"velocity":0.3937007874015748},{"duration":0.1875,"midi":25,"time":472.875,"velocity":0.3937007874015748},{"duration":0.1875,"midi":70,"time":472.875,"velocity":0.3937007874015748},{"duration":0.1875,"midi":61,"time":472.875,"velocity":0.3937007874015748},{"duration":0.1875,"midi":94,"time":472.875,"velocity":0.3937007874015748},{"duration":0.1875,"midi":34,"time":472.875,"velocity":0.3937007874015748},{"duration":0.1875,"midi":73,"time":472.875,"velocity":0.3937007874015748},{"duration":0.1875,"midi":85,"time":472.875,"velocity":0.3937007874015748},{"duration":0.1875,"midi":45,"time":472.8984375,"velocity":0.3937007874015748},{"duration":0.1875,"midi":76,"time":472.8984375,"velocity":0.3937007874015748},{"duration":0.1875,"midi":75,"time":472.921875,"velocity":0.3937007874015748},{"duration":0.1875,"midi":46,"time":472.921875,"velocity":0.3937007874015748},{"duration":0.1875,"midi":47,"time":472.9453125,"velocity":0.3937007874015748},{"duration":0.1875,"midi":74,"time":472.9453125,"velocity":0.3937007874015748},{"duration":0.1875,"midi":48,"time":472.96875,"velocity":0.3937007874015748},{"duration":0.1875,"midi":73,"time":472.96875,"velocity":0.3937007874015748},{"duration":0.1875,"midi":49,"time":472.9921875,"velocity":0.3937007874015748},{"duration":0.1875,"midi":72,"time":472.9921875,"velocity":0.3937007874015748},{"duration":0.1875,"midi":50,"time":473.015625,"velocity":0.3937007874015748},{"duration":0.1875,"midi":71,"time":473.015625,"velocity":0.3937007874015748},{"duration":0.1875,"midi":51,"time":473.0390625,"velocity":0.3937007874015748},{"duration":0.1875,"midi":70,"time":473.0390625,"velocity":0.3937007874015748},{"duration":0.1875,"midi":95,"time":473.0625,"velocity":0.3937007874015748},{"duration":0.1875,"midi":84,"time":473.0625,"velocity":0.3937007874015748},{"duration":0.1875,"midi":72,"time":473.0625,"velocity":0.3937007874015748},{"duration":0.1875,"midi":60,"time":473.0625,"velocity":0.3937007874015748},{"duration":0.1875,"midi":35,"time":473.0625,"velocity":0.3937007874015748},{"duration":0.1875,"midi":52,"time":473.0625,"velocity":0.3937007874015748},{"duration":0.1875,"midi":47,"time":473.0625,"velocity":0.3937007874015748},{"duration":0.1875,"midi":36,"time":473.0625,"velocity":0.3937007874015748},{"duration":0.1875,"midi":59,"time":473.0625,"velocity":0.3937007874015748},{"duration":0.1875,"midi":24,"time":473.0625,"velocity":0.3937007874015748},{"duration":0.1875,"midi":69,"time":473.0625,"velocity":0.3937007874015748},{"duration":0.1875,"midi":83,"time":473.0625,"velocity":0.3937007874015748},{"duration":0.1875,"midi":71,"time":473.0625,"velocity":0.3937007874015748},{"duration":0.1875,"midi":48,"time":473.0625,"velocity":0.3937007874015748},{"duration":0.1875,"midi":53,"time":473.0859375,"velocity":0.3937007874015748},{"duration":0.1875,"midi":68,"time":473.0859375,"velocity":0.3937007874015748},{"duration":0.1875,"midi":67,"time":473.109375,"velocity":0.3937007874015748},{"duration":0.1875,"midi":54,"time":473.109375,"velocity":0.3937007874015748},{"duration":0.1875,"midi":66,"time":473.1328125,"velocity":0.3937007874015748},{"duration":0.1875,"midi":55,"time":473.1328125,"velocity":0.3937007874015748},{"duration":0.1875,"midi":56,"time":473.15625,"velocity":0.3937007874015748},{"duration":0.1875,"midi":65,"time":473.15625,"velocity":0.3937007874015748},{"duration":0.1875,"midi":57,"time":473.1796875,"velocity":0.3937007874015748},{"duration":0.1875,"midi":64,"time":473.1796875,"velocity":0.3937007874015748},{"duration":0.1875,"midi":63,"time":473.203125,"velocity":0.3937007874015748},{"duration":0.1875,"midi":58,"time":473.203125,"velocity":0.3937007874015748},{"duration":0.1875,"midi":59,"time":473.2265625,"velocity":0.3937007874015748},{"duration":0.1875,"midi":62,"time":473.2265625,"velocity":0.3937007874015748},{"duration":0.1875,"midi":60,"time":473.25,"velocity":0.3937007874015748},{"duration":0.1875,"midi":47,"time":473.25,"velocity":0.3937007874015748},{"duration":0.1875,"midi":95,"time":473.25,"velocity":0.3937007874015748},{"duration":0.1875,"midi":35,"time":473.25,"velocity":0.3937007874015748},{"duration":0.1875,"midi":48,"time":473.25,"velocity":0.3937007874015748},{"duration":0.1875,"midi":59,"time":473.25,"velocity":0.3937007874015748},{"duration":0.1875,"midi":36,"time":473.25,"velocity":0.3937007874015748},{"duration":0.1875,"midi":61,"time":473.25,"velocity":0.3937007874015748},{"duration":0.1875,"midi":84,"time":473.25,"velocity":0.3937007874015748},{"duration":0.1875,"midi":24,"time":473.25,"velocity":0.3937007874015748},{"duration":0.1875,"midi":71,"time":473.25,"velocity":0.3937007874015748},{"duration":0.1875,"midi":83,"time":473.25,"velocity":0.3937007874015748},{"duration":0.1875,"midi":72,"time":473.25,"velocity":0.3937007874015748},{"duration":0.1875,"midi":60,"time":473.25,"velocity":0.3937007874015748},{"duration":0.1875,"midi":60,"time":473.2734375,"velocity":0.3937007874015748},{"duration":0.1875,"midi":61,"time":473.2734375,"velocity":0.3937007874015748},{"duration":0.1875,"midi":62,"time":473.296875,"velocity":0.3937007874015748},{"duration":0.1875,"midi":59,"time":473.296875,"velocity":0.3937007874015748},{"duration":0.1875,"midi":58,"time":473.3203125,"velocity":0.3937007874015748},{"duration":0.1875,"midi":63,"time":473.3203125,"velocity":0.3937007874015748},{"duration":0.1875,"midi":57,"time":473.34375,"velocity":0.3937007874015748},{"duration":0.1875,"midi":64,"time":473.34375,"velocity":0.3937007874015748},{"duration":0.1875,"midi":65,"time":473.3671875,"velocity":0.3937007874015748},{"duration":0.1875,"midi":56,"time":473.3671875,"velocity":0.3937007874015748},{"duration":0.1875,"midi":66,"time":473.390625,"velocity":0.3937007874015748},{"duration":0.1875,"midi":55,"time":473.390625,"velocity":0.3937007874015748},{"duration":0.1875,"midi":54,"time":473.4140625,"velocity":0.3937007874015748},{"duration":0.1875,"midi":67,"time":473.4140625,"velocity":0.3937007874015748},{"duration":0.1875,"midi":70,"time":473.4375,"velocity":0.3937007874015748},{"duration":0.1875,"midi":58,"time":473.4375,"velocity":0.3937007874015748},{"duration":0.1875,"midi":73,"time":473.4375,"velocity":0.3937007874015748},{"duration":0.1875,"midi":85,"time":473.4375,"velocity":0.3937007874015748},{"duration":0.1875,"midi":49,"time":473.4375,"velocity":0.3937007874015748},{"duration":0.1875,"midi":68,"time":473.4375,"velocity":0.3937007874015748},{"duration":0.1875,"midi":25,"time":473.4375,"velocity":0.3937007874015748},{"duration":0.1875,"midi":94,"time":473.4375,"velocity":0.3937007874015748},{"duration":0.1875,"midi":46,"time":473.4375,"velocity":0.3937007874015748},{"duration":0.1875,"midi":37,"time":473.4375,"velocity":0.3937007874015748},{"duration":0.1875,"midi":53,"time":473.4375,"velocity":0.3937007874015748},{"duration":0.1875,"midi":34,"time":473.4375,"velocity":0.3937007874015748},{"duration":0.1875,"midi":61,"time":473.4375,"velocity":0.3937007874015748},{"duration":0.1875,"midi":82,"time":473.4375,"velocity":0.3937007874015748},{"duration":0.1875,"midi":69,"time":473.4609375,"velocity":0.3937007874015748},{"duration":0.1875,"midi":52,"time":473.4609375,"velocity":0.3937007874015748},{"duration":0.1875,"midi":70,"time":473.484375,"velocity":0.3937007874015748},{"duration":0.1875,"midi":51,"time":473.484375,"velocity":0.3937007874015748},{"duration":0.1875,"midi":71,"time":473.5078125,"velocity":0.3937007874015748},{"duration":0.1875,"midi":50,"time":473.5078125,"velocity":0.3937007874015748},{"duration":0.1875,"midi":72,"time":473.53125,"velocity":0.3937007874015748},{"duration":0.1875,"midi":49,"time":473.53125,"velocity":0.3937007874015748},{"duration":0.1875,"midi":73,"time":473.5546875,"velocity":0.3937007874015748},{"duration":0.1875,"midi":48,"time":473.5546875,"velocity":0.3937007874015748},{"duration":0.1875,"midi":47,"time":473.578125,"velocity":0.3937007874015748},{"duration":0.1875,"midi":74,"time":473.578125,"velocity":0.3937007874015748},{"duration":0.1875,"midi":75,"time":473.6015625,"velocity":0.3937007874015748},{"duration":0.1875,"midi":46,"time":473.6015625,"velocity":0.3937007874015748},{"duration":0.1875,"midi":50,"time":473.625,"velocity":0.3937007874015748},{"duration":0.1875,"midi":74,"time":473.625,"velocity":0.3937007874015748},{"duration":0.1875,"midi":81,"time":473.625,"velocity":0.3937007874015748},{"duration":0.1875,"midi":62,"time":473.625,"velocity":0.3937007874015748},{"duration":0.1875,"midi":45,"time":473.625,"velocity":0.3937007874015748},{"duration":0.1875,"midi":93,"time":473.625,"velocity":0.3937007874015748},{"duration":0.1875,"midi":26,"time":473.625,"velocity":0.3937007874015748},{"duration":0.1875,"midi":38,"time":473.625,"velocity":0.3937007874015748},{"duration":0.1875,"midi":76,"time":473.625,"velocity":0.3937007874015748},{"duration":0.1875,"midi":33,"time":473.625,"velocity":0.3937007874015748},{"duration":0.1875,"midi":57,"time":473.625,"velocity":0.3937007874015748},{"duration":0.1875,"midi":45,"time":473.625,"velocity":0.3937007874015748},{"duration":0.1875,"midi":86,"time":473.625,"velocity":0.3937007874015748},{"duration":0.1875,"midi":69,"time":473.625,"velocity":0.3937007874015748},{"duration":0.1875,"midi":44,"time":473.6484375,"velocity":0.3937007874015748},{"duration":0.1875,"midi":77,"time":473.6484375,"velocity":0.3937007874015748},{"duration":0.1875,"midi":43,"time":473.671875,"velocity":0.3937007874015748},{"duration":0.1875,"midi":78,"time":473.671875,"velocity":0.3937007874015748},{"duration":0.1875,"midi":42,"time":473.6953125,"velocity":0.3937007874015748},{"duration":0.1875,"midi":79,"time":473.6953125,"velocity":0.3937007874015748},{"duration":0.1875,"midi":41,"time":473.71875,"velocity":0.3937007874015748},{"duration":0.1875,"midi":80,"time":473.71875,"velocity":0.3937007874015748},{"duration":0.1875,"midi":40,"time":473.7421875,"velocity":0.3937007874015748},{"duration":0.1875,"midi":81,"time":473.7421875,"velocity":0.3937007874015748},{"duration":0.1875,"midi":82,"time":473.765625,"velocity":0.3937007874015748},{"duration":0.1875,"midi":39,"time":473.765625,"velocity":0.3937007874015748},{"duration":0.1875,"midi":38,"time":473.7890625,"velocity":0.3937007874015748},{"duration":0.1875,"midi":83,"time":473.7890625,"velocity":0.3937007874015748},{"duration":0.1875,"midi":37,"time":473.8125,"velocity":0.3937007874015748},{"duration":0.1875,"midi":75,"time":473.8125,"velocity":0.3937007874015748},{"duration":0.1875,"midi":92,"time":473.8125,"velocity":0.3937007874015748},{"duration":0.1875,"midi":63,"time":473.8125,"velocity":0.3937007874015748},{"duration":0.1875,"midi":84,"time":473.8125,"velocity":0.3937007874015748},{"duration":0.1875,"midi":51,"time":473.8125,"velocity":0.3937007874015748},{"duration":0.1875,"midi":80,"time":473.8125,"velocity":0.3937007874015748},{"duration":0.1875,"midi":39,"time":473.8125,"velocity":0.3937007874015748},{"duration":0.1875,"midi":44,"time":473.8125,"velocity":0.3937007874015748},{"duration":0.1875,"midi":56,"time":473.8125,"velocity":0.3937007874015748},{"duration":0.1875,"midi":87,"time":473.8125,"velocity":0.3937007874015748},{"duration":0.1875,"midi":32,"time":473.8125,"velocity":0.3937007874015748},{"duration":0.1875,"midi":27,"time":473.8125,"velocity":0.3937007874015748},{"duration":0.1875,"midi":68,"time":473.8125,"velocity":0.3937007874015748},{"duration":0.1875,"midi":36,"time":473.8359375,"velocity":0.3937007874015748},{"duration":0.1875,"midi":85,"time":473.8359375,"velocity":0.3937007874015748},{"duration":0.1875,"midi":86,"time":473.859375,"velocity":0.3937007874015748},{"duration":0.1875,"midi":35,"time":473.859375,"velocity":0.3937007874015748},{"duration":0.1875,"midi":87,"time":473.8828125,"velocity":0.3937007874015748},{"duration":0.1875,"midi":34,"time":473.8828125,"velocity":0.3937007874015748},{"duration":0.1875,"midi":88,"time":473.90625,"velocity":0.3937007874015748},{"duration":0.1875,"midi":33,"time":473.90625,"velocity":0.3937007874015748},{"duration":0.1875,"midi":32,"time":473.9296875,"velocity":0.3937007874015748},{"duration":0.1875,"midi":89,"time":473.9296875,"velocity":0.3937007874015748},{"duration":0.1875,"midi":31,"time":473.953125,"velocity":0.3937007874015748},{"duration":0.1875,"midi":90,"time":473.953125,"velocity":0.3937007874015748},{"duration":0.1875,"midi":30,"time":473.9765625,"velocity":0.3937007874015748},{"duration":0.1875,"midi":91,"time":473.9765625,"velocity":0.3937007874015748},{"duration":0.1875,"midi":55,"time":474,"velocity":0.3937007874015748},{"duration":0.1875,"midi":28,"time":474,"velocity":0.3937007874015748},{"duration":0.1875,"midi":88,"time":474,"velocity":0.3937007874015748},{"duration":0.1875,"midi":43,"time":474,"velocity":0.3937007874015748},{"duration":0.1875,"midi":31,"time":474,"velocity":0.3937007874015748},{"duration":0.1875,"midi":52,"time":474,"velocity":0.3937007874015748},{"duration":0.1875,"midi":64,"time":474,"velocity":0.3937007874015748},{"duration":0.1875,"midi":93,"time":474,"velocity":0.3937007874015748},{"duration":0.1875,"midi":91,"time":474,"velocity":0.3937007874015748},{"duration":0.1875,"midi":67,"time":474,"velocity":0.3937007874015748},{"duration":0.1875,"midi":76,"time":474,"velocity":0.3937007874015748},{"duration":0.1875,"midi":40,"time":474,"velocity":0.3937007874015748},{"duration":0.1875,"midi":79,"time":474,"velocity":0.3937007874015748},{"duration":0.1875,"midi":28,"time":474,"velocity":0.3937007874015748},{"duration":0.1875,"midi":92,"time":474.0234375,"velocity":0.3937007874015748},{"duration":0.1875,"midi":29,"time":474.0234375,"velocity":0.3937007874015748},{"duration":0.1875,"midi":91,"time":474.046875,"velocity":0.3937007874015748},{"duration":0.1875,"midi":30,"time":474.046875,"velocity":0.3937007874015748},{"duration":0.1875,"midi":90,"time":474.0703125,"velocity":0.3937007874015748},{"duration":0.1875,"midi":31,"time":474.0703125,"velocity":0.3937007874015748},{"duration":0.1875,"midi":32,"time":474.09375,"velocity":0.3937007874015748},{"duration":0.1875,"midi":89,"time":474.09375,"velocity":0.3937007874015748},{"duration":0.1875,"midi":33,"time":474.1171875,"velocity":0.3937007874015748},{"duration":0.1875,"midi":88,"time":474.1171875,"velocity":0.3937007874015748},{"duration":0.1875,"midi":34,"time":474.140625,"velocity":0.3937007874015748},{"duration":0.1875,"midi":87,"time":474.140625,"velocity":0.3937007874015748},{"duration":0.1875,"midi":35,"time":474.1640625,"velocity":0.3937007874015748},{"duration":0.1875,"midi":86,"time":474.1640625,"velocity":0.3937007874015748},{"duration":0.1875,"midi":41,"time":474.1875,"velocity":0.3937007874015748},{"duration":0.1875,"midi":65,"time":474.1875,"velocity":0.3937007874015748},{"duration":0.1875,"midi":66,"time":474.1875,"velocity":0.3937007874015748},{"duration":0.1875,"midi":85,"time":474.1875,"velocity":0.3937007874015748},{"duration":0.1875,"midi":89,"time":474.1875,"velocity":0.3937007874015748},{"duration":0.1875,"midi":53,"time":474.1875,"velocity":0.3937007874015748},{"duration":0.1875,"midi":78,"time":474.1875,"velocity":0.3937007874015748},{"duration":0.1875,"midi":36,"time":474.1875,"velocity":0.3937007874015748},{"duration":0.1875,"midi":29,"time":474.1875,"velocity":0.3937007874015748},{"duration":0.1875,"midi":54,"time":474.1875,"velocity":0.3937007874015748},{"duration":0.1875,"midi":42,"time":474.1875,"velocity":0.3937007874015748},{"duration":0.1875,"midi":30,"time":474.1875,"velocity":0.3937007874015748},{"duration":0.1875,"midi":90,"time":474.1875,"velocity":0.3937007874015748},{"duration":0.1875,"midi":77,"time":474.1875,"velocity":0.3937007874015748},{"duration":0.1875,"midi":37,"time":474.2109375,"velocity":0.3937007874015748},{"duration":0.1875,"midi":84,"time":474.2109375,"velocity":0.3937007874015748},{"duration":0.1875,"midi":83,"time":474.234375,"velocity":0.3937007874015748},{"duration":0.1875,"midi":38,"time":474.234375,"velocity":0.3937007874015748},{"duration":0.1875,"midi":82,"time":474.2578125,"velocity":0.3937007874015748},{"duration":0.1875,"midi":39,"time":474.2578125,"velocity":0.3937007874015748},{"duration":0.1875,"midi":40,"time":474.28125,"velocity":0.3937007874015748},{"duration":0.1875,"midi":81,"time":474.28125,"velocity":0.3937007874015748},{"duration":0.1875,"midi":41,"time":474.3046875,"velocity":0.3937007874015748},{"duration":0.1875,"midi":80,"time":474.3046875,"velocity":0.3937007874015748},{"duration":0.1875,"midi":79,"time":474.328125,"velocity":0.3937007874015748},{"duration":0.1875,"midi":42,"time":474.328125,"velocity":0.3937007874015748},{"duration":0.1875,"midi":43,"time":474.3515625,"velocity":0.3937007874015748},{"duration":0.1875,"midi":78,"time":474.3515625,"velocity":0.3937007874015748},{"duration":0.1875,"midi":54,"time":474.375,"velocity":0.3937007874015748},{"duration":0.1875,"midi":77,"time":474.375,"velocity":0.3937007874015748},{"duration":0.1875,"midi":65,"time":474.375,"velocity":0.3937007874015748},{"duration":0.1875,"midi":78,"time":474.375,"velocity":0.3937007874015748},{"duration":0.1875,"midi":90,"time":474.375,"velocity":0.3937007874015748},{"duration":0.1875,"midi":30,"time":474.375,"velocity":0.3937007874015748},{"duration":0.1875,"midi":29,"time":474.375,"velocity":0.3937007874015748},{"duration":0.1875,"midi":42,"time":474.375,"velocity":0.3937007874015748},{"duration":0.1875,"midi":66,"time":474.375,"velocity":0.3937007874015748},{"duration":0.1875,"midi":41,"time":474.375,"velocity":0.3937007874015748},{"duration":0.1875,"midi":89,"time":474.375,"velocity":0.3937007874015748},{"duration":0.1875,"midi":53,"time":474.375,"velocity":0.3937007874015748},{"duration":0.1875,"midi":77,"time":474.375,"velocity":0.3937007874015748},{"duration":0.1875,"midi":44,"time":474.375,"velocity":0.3937007874015748},{"duration":0.1875,"midi":76,"time":474.3984375,"velocity":0.3937007874015748},{"duration":0.1875,"midi":45,"time":474.3984375,"velocity":0.3937007874015748},{"duration":0.1875,"midi":46,"time":474.421875,"velocity":0.3937007874015748},{"duration":0.1875,"midi":75,"time":474.421875,"velocity":0.3937007874015748},{"duration":0.1875,"midi":47,"time":474.4453125,"velocity":0.3937007874015748},{"duration":0.1875,"midi":74,"time":474.4453125,"velocity":0.3937007874015748},{"duration":0.1875,"midi":73,"time":474.46875,"velocity":0.3937007874015748},{"duration":0.1875,"midi":48,"time":474.46875,"velocity":0.3937007874015748},{"duration":0.1875,"midi":72,"time":474.4921875,"velocity":0.3937007874015748},{"duration":0.1875,"midi":49,"time":474.4921875,"velocity":0.3937007874015748},{"duration":0.1875,"midi":71,"time":474.515625,"velocity":0.3937007874015748},{"duration":0.1875,"midi":50,"time":474.515625,"velocity":0.3937007874015748},{"duration":0.1875,"midi":70,"time":474.5390625,"velocity":0.3937007874015748},{"duration":0.1875,"midi":51,"time":474.5390625,"velocity":0.3937007874015748},{"duration":0.1875,"midi":91,"time":474.5625,"velocity":0.3937007874015748},{"duration":0.1875,"midi":43,"time":474.5625,"velocity":0.3937007874015748},{"duration":0.1875,"midi":67,"time":474.5625,"velocity":0.3937007874015748},{"duration":0.1875,"midi":88,"time":474.5625,"velocity":0.3937007874015748},{"duration":0.1875,"midi":31,"time":474.5625,"velocity":0.3937007874015748},{"duration":0.1875,"midi":40,"time":474.5625,"velocity":0.3937007874015748},{"duration":0.1875,"midi":69,"time":474.5625,"velocity":0.3937007874015748},{"duration":0.1875,"midi":64,"time":474.5625,"velocity":0.3937007874015748},{"duration":0.1875,"midi":52,"time":474.5625,"velocity":0.3937007874015748},{"duration":0.1875,"midi":79,"time":474.5625,"velocity":0.3937007874015748},{"duration":0.1875,"midi":52,"time":474.5625,"velocity":0.3937007874015748},{"duration":0.1875,"midi":76,"time":474.5625,"velocity":0.3937007874015748},{"duration":0.1875,"midi":28,"time":474.5625,"velocity":0.3937007874015748},{"duration":0.1875,"midi":55,"time":474.5625,"velocity":0.3937007874015748},{"duration":0.1875,"midi":53,"time":474.5859375,"velocity":0.3937007874015748},{"duration":0.1875,"midi":68,"time":474.5859375,"velocity":0.3937007874015748},{"duration":0.1875,"midi":67,"time":474.609375,"velocity":0.3937007874015748},{"duration":0.1875,"midi":54,"time":474.609375,"velocity":0.3937007874015748},{"duration":0.1875,"midi":55,"time":474.6328125,"velocity":0.3937007874015748},{"duration":0.1875,"midi":66,"time":474.6328125,"velocity":0.3937007874015748},{"duration":0.1875,"midi":56,"time":474.65625,"velocity":0.3937007874015748},{"duration":0.1875,"midi":65,"time":474.65625,"velocity":0.3937007874015748},{"duration":0.1875,"midi":57,"time":474.6796875,"velocity":0.3937007874015748},{"duration":0.1875,"midi":64,"time":474.6796875,"velocity":0.3937007874015748},{"duration":0.1875,"midi":58,"time":474.703125,"velocity":0.3937007874015748},{"duration":0.1875,"midi":63,"time":474.703125,"velocity":0.3937007874015748},{"duration":0.1875,"midi":62,"time":474.7265625,"velocity":0.3937007874015748},{"duration":0.1875,"midi":59,"time":474.7265625,"velocity":0.3937007874015748},{"duration":0.1875,"midi":32,"time":474.75,"velocity":0.3937007874015748},{"duration":0.1875,"midi":39,"time":474.75,"velocity":0.3937007874015748},{"duration":0.1875,"midi":80,"time":474.75,"velocity":0.3937007874015748},{"duration":0.1875,"midi":56,"time":474.75,"velocity":0.3937007874015748},{"duration":0.1875,"midi":61,"time":474.75,"velocity":0.3937007874015748},{"duration":0.1875,"midi":60,"time":474.75,"velocity":0.3937007874015748},{"duration":0.1875,"midi":87,"time":474.75,"velocity":0.3937007874015748},{"duration":0.1875,"midi":63,"time":474.75,"velocity":0.3937007874015748},{"duration":0.1875,"midi":92,"time":474.75,"velocity":0.3937007874015748},{"duration":0.1875,"midi":44,"time":474.75,"velocity":0.3937007874015748},{"duration":0.1875,"midi":68,"time":474.75,"velocity":0.3937007874015748},{"duration":0.1875,"midi":75,"time":474.75,"velocity":0.3937007874015748},{"duration":0.1875,"midi":27,"time":474.75,"velocity":0.3937007874015748},{"duration":0.1875,"midi":51,"time":474.75,"velocity":0.3937007874015748},{"duration":0.1875,"midi":61,"time":474.7734375,"velocity":0.3937007874015748},{"duration":0.1875,"midi":60,"time":474.7734375,"velocity":0.3937007874015748},{"duration":0.1875,"midi":59,"time":474.796875,"velocity":0.3937007874015748},{"duration":0.1875,"midi":62,"time":474.796875,"velocity":0.3937007874015748},{"duration":0.1875,"midi":63,"time":474.8203125,"velocity":0.3937007874015748},{"duration":0.1875,"midi":58,"time":474.8203125,"velocity":0.3937007874015748},{"duration":0.1875,"midi":57,"time":474.84375,"velocity":0.3937007874015748},{"duration":0.1875,"midi":64,"time":474.84375,"velocity":0.3937007874015748},{"duration":0.1875,"midi":56,"time":474.8671875,"velocity":0.3937007874015748},{"duration":0.1875,"midi":65,"time":474.8671875,"velocity":0.3937007874015748},{"duration":0.1875,"midi":66,"time":474.890625,"velocity":0.3937007874015748},{"duration":0.1875,"midi":55,"time":474.890625,"velocity":0.3937007874015748},{"duration":0.1875,"midi":54,"time":474.9140625,"velocity":0.3937007874015748},{"duration":0.1875,"midi":67,"time":474.9140625,"velocity":0.3937007874015748},{"duration":0.1875,"midi":69,"time":474.9375,"velocity":0.3937007874015748},{"duration":0.1875,"midi":68,"time":474.9375,"velocity":0.3937007874015748},{"duration":0.1875,"midi":45,"time":474.9375,"velocity":0.3937007874015748},{"duration":0.1875,"midi":62,"time":474.9375,"velocity":0.3937007874015748},{"duration":0.1875,"midi":38,"time":474.9375,"velocity":0.3937007874015748},{"duration":0.1875,"midi":81,"time":474.9375,"velocity":0.3937007874015748},{"duration":0.1875,"midi":53,"time":474.9375,"velocity":0.3937007874015748},{"duration":0.1875,"midi":33,"time":474.9375,"velocity":0.3937007874015748},{"duration":0.1875,"midi":26,"time":474.9375,"velocity":0.3937007874015748},{"duration":0.1875,"midi":50,"time":474.9375,"velocity":0.3937007874015748},{"duration":0.1875,"midi":86,"time":474.9375,"velocity":0.3937007874015748},{"duration":0.1875,"midi":93,"time":474.9375,"velocity":0.3937007874015748},{"duration":0.1875,"midi":57,"time":474.9375,"velocity":0.3937007874015748},{"duration":0.1875,"midi":74,"time":474.9375,"velocity":0.3937007874015748},{"duration":0.1875,"midi":69,"time":474.9609375,"velocity":0.3937007874015748},{"duration":0.1875,"midi":52,"time":474.9609375,"velocity":0.3937007874015748},{"duration":0.1875,"midi":70,"time":474.984375,"velocity":0.3937007874015748},{"duration":0.1875,"midi":51,"time":474.984375,"velocity":0.3937007874015748},{"duration":0.1875,"midi":71,"time":475.0078125,"velocity":0.3937007874015748},{"duration":0.1875,"midi":50,"time":475.0078125,"velocity":0.3937007874015748},{"duration":0.1875,"midi":49,"time":475.03125,"velocity":0.3937007874015748},{"duration":0.1875,"midi":72,"time":475.03125,"velocity":0.3937007874015748},{"duration":0.1875,"midi":48,"time":475.0546875,"velocity":0.3937007874015748},{"duration":0.1875,"midi":73,"time":475.0546875,"velocity":0.3937007874015748},{"duration":0.1875,"midi":47,"time":475.078125,"velocity":0.3937007874015748},{"duration":0.1875,"midi":74,"time":475.078125,"velocity":0.3937007874015748},{"duration":0.1875,"midi":75,"time":475.1015625,"velocity":0.3937007874015748},{"duration":0.1875,"midi":46,"time":475.1015625,"velocity":0.3937007874015748},{"duration":0.1875,"midi":94,"time":475.125,"velocity":0.3937007874015748},{"duration":0.1875,"midi":85,"time":475.125,"velocity":0.3937007874015748},{"duration":0.1875,"midi":34,"time":475.125,"velocity":0.3937007874015748},{"duration":0.1875,"midi":25,"time":475.125,"velocity":0.3937007874015748},{"duration":0.1875,"midi":82,"time":475.125,"velocity":0.3937007874015748},{"duration":0.1875,"midi":49,"time":475.125,"velocity":0.3937007874015748},{"duration":0.1875,"midi":58,"time":475.125,"velocity":0.3937007874015748},{"duration":0.1875,"midi":73,"time":475.125,"velocity":0.3937007874015748},{"duration":0.1875,"midi":45,"time":475.125,"velocity":0.3937007874015748},{"duration":0.1875,"midi":61,"time":475.125,"velocity":0.3937007874015748},{"duration":0.1875,"midi":70,"time":475.125,"velocity":0.3937007874015748},{"duration":0.1875,"midi":46,"time":475.125,"velocity":0.3937007874015748},{"duration":0.1875,"midi":37,"time":475.125,"velocity":0.3937007874015748},{"duration":0.1875,"midi":76,"time":475.125,"velocity":0.3937007874015748},{"duration":0.1875,"midi":77,"time":475.1484375,"velocity":0.3937007874015748},{"duration":0.1875,"midi":44,"time":475.1484375,"velocity":0.3937007874015748},{"duration":0.1875,"midi":43,"time":475.171875,"velocity":0.3937007874015748},{"duration":0.1875,"midi":78,"time":475.171875,"velocity":0.3937007874015748},{"duration":0.1875,"midi":79,"time":475.1953125,"velocity":0.3937007874015748},{"duration":0.1875,"midi":42,"time":475.1953125,"velocity":0.3937007874015748},{"duration":0.1875,"midi":80,"time":475.21875,"velocity":0.3937007874015748},{"duration":0.1875,"midi":41,"time":475.21875,"velocity":0.3937007874015748},{"duration":0.1875,"midi":81,"time":475.2421875,"velocity":0.3937007874015748},{"duration":0.1875,"midi":40,"time":475.2421875,"velocity":0.3937007874015748},{"duration":0.1875,"midi":39,"time":475.265625,"velocity":0.3937007874015748},{"duration":0.1875,"midi":82,"time":475.265625,"velocity":0.3937007874015748},{"duration":0.1875,"midi":38,"time":475.2890625,"velocity":0.3937007874015748},{"duration":0.1875,"midi":83,"time":475.2890625,"velocity":0.3937007874015748},{"duration":0.1875,"midi":83,"time":475.3125,"velocity":0.3937007874015748},{"duration":0.1875,"midi":24,"time":475.3125,"velocity":0.3937007874015748},{"duration":0.1875,"midi":35,"time":475.3125,"velocity":0.3937007874015748},{"duration":0.1875,"midi":47,"time":475.3125,"velocity":0.3937007874015748},{"duration":0.1875,"midi":95,"time":475.3125,"velocity":0.3937007874015748},{"duration":0.1875,"midi":60,"time":475.3125,"velocity":0.3937007874015748},{"duration":0.1875,"midi":84,"time":475.3125,"velocity":0.3937007874015748},{"duration":0.1875,"midi":84,"time":475.3125,"velocity":0.3937007874015748},{"duration":0.1875,"midi":59,"time":475.3125,"velocity":0.3937007874015748},{"duration":0.1875,"midi":48,"time":475.3125,"velocity":0.3937007874015748},{"duration":0.1875,"midi":36,"time":475.3125,"velocity":0.3937007874015748},{"duration":0.1875,"midi":72,"time":475.3125,"velocity":0.3937007874015748},{"duration":0.1875,"midi":37,"time":475.3125,"velocity":0.3937007874015748},{"duration":0.1875,"midi":71,"time":475.3125,"velocity":0.3937007874015748},{"duration":0.1875,"midi":85,"time":475.3359375,"velocity":0.3937007874015748},{"duration":0.1875,"midi":36,"time":475.3359375,"velocity":0.3937007874015748},{"duration":0.1875,"midi":86,"time":475.359375,"velocity":0.3937007874015748},{"duration":0.1875,"midi":35,"time":475.359375,"velocity":0.3937007874015748},{"duration":0.1875,"midi":34,"time":475.3828125,"velocity":0.3937007874015748},{"duration":0.1875,"midi":87,"time":475.3828125,"velocity":0.3937007874015748},{"duration":0.1875,"midi":33,"time":475.40625,"velocity":0.3937007874015748},{"duration":0.1875,"midi":88,"time":475.40625,"velocity":0.3937007874015748},{"duration":0.1875,"midi":32,"time":475.4296875,"velocity":0.3937007874015748},{"duration":0.1875,"midi":89,"time":475.4296875,"velocity":0.3937007874015748},{"duration":0.1875,"midi":31,"time":475.453125,"velocity":0.3937007874015748},{"duration":0.1875,"midi":90,"time":475.453125,"velocity":0.3937007874015748},{"duration":0.1875,"midi":30,"time":475.4765625,"velocity":0.3937007874015748},{"duration":0.1875,"midi":91,"time":475.4765625,"velocity":0.3937007874015748},{"duration":0.1875,"midi":83,"time":475.5,"velocity":0.3937007874015748},{"duration":0.1875,"midi":48,"time":475.5,"velocity":0.3937007874015748},{"duration":0.1875,"midi":28,"time":475.5,"velocity":0.3937007874015748},{"duration":0.1875,"midi":71,"time":475.5,"velocity":0.3937007874015748},{"duration":0.1875,"midi":36,"time":475.5,"velocity":0.3937007874015748},{"duration":0.1875,"midi":24,"time":475.5,"velocity":0.3937007874015748},{"duration":0.1875,"midi":72,"time":475.5,"velocity":0.3937007874015748},{"duration":0.1875,"midi":35,"time":475.5,"velocity":0.3937007874015748},{"duration":0.1875,"midi":47,"time":475.5,"velocity":0.3937007874015748},{"duration":0.1875,"midi":93,"time":475.5,"velocity":0.3937007874015748},{"duration":0.1875,"midi":84,"time":475.5,"velocity":0.3937007874015748},{"duration":0.1875,"midi":60,"time":475.5,"velocity":0.3937007874015748},{"duration":0.1875,"midi":95,"time":475.5,"velocity":0.3937007874015748},{"duration":0.1875,"midi":59,"time":475.5,"velocity":0.3937007874015748},{"duration":0.1875,"midi":92,"time":475.5234375,"velocity":0.3937007874015748},{"duration":0.1875,"midi":29,"time":475.5234375,"velocity":0.3937007874015748},{"duration":0.1875,"midi":30,"time":475.546875,"velocity":0.3937007874015748},{"duration":0.1875,"midi":91,"time":475.546875,"velocity":0.3937007874015748},{"duration":0.1875,"midi":31,"time":475.5703125,"velocity":0.3937007874015748},{"duration":0.1875,"midi":90,"time":475.5703125,"velocity":0.3937007874015748},{"duration":0.1875,"midi":32,"time":475.59375,"velocity":0.3937007874015748},{"duration":0.1875,"midi":89,"time":475.59375,"velocity":0.3937007874015748},{"duration":0.1875,"midi":33,"time":475.6171875,"velocity":0.3937007874015748},{"duration":0.1875,"midi":88,"time":475.6171875,"velocity":0.3937007874015748},{"duration":0.1875,"midi":34,"time":475.640625,"velocity":0.3937007874015748},{"duration":0.1875,"midi":87,"time":475.640625,"velocity":0.3937007874015748},{"duration":0.1875,"midi":86,"time":475.6640625,"velocity":0.3937007874015748},{"duration":0.1875,"midi":35,"time":475.6640625,"velocity":0.3937007874015748},{"duration":0.1875,"midi":37,"time":475.6875,"velocity":0.3937007874015748},{"duration":0.1875,"midi":70,"time":475.6875,"velocity":0.3937007874015748},{"duration":0.1875,"midi":34,"time":475.6875,"velocity":0.3937007874015748},{"duration":0.1875,"midi":85,"time":475.6875,"velocity":0.3937007874015748},{"duration":0.1875,"midi":25,"time":475.6875,"velocity":0.3937007874015748},{"duration":0.1875,"midi":94,"time":475.6875,"velocity":0.3937007874015748},{"duration":0.1875,"midi":58,"time":475.6875,"velocity":0.3937007874015748},{"duration":0.1875,"midi":61,"time":475.6875,"velocity":0.3937007874015748},{"duration":0.1875,"midi":73,"time":475.6875,"velocity":0.3937007874015748},{"duration":0.1875,"midi":46,"time":475.6875,"velocity":0.3937007874015748},{"duration":0.1875,"midi":36,"time":475.6875,"velocity":0.3937007874015748},{"duration":0.1875,"midi":85,"time":475.6875,"velocity":0.3937007874015748},{"duration":0.1875,"midi":49,"time":475.6875,"velocity":0.3937007874015748},{"duration":0.1875,"midi":82,"time":475.6875,"velocity":0.3937007874015748},{"duration":0.1875,"midi":37,"time":475.7109375,"velocity":0.3937007874015748},{"duration":0.1875,"midi":84,"time":475.7109375,"velocity":0.3937007874015748},{"duration":0.1875,"midi":38,"time":475.734375,"velocity":0.3937007874015748},{"duration":0.1875,"midi":83,"time":475.734375,"velocity":0.3937007874015748},{"duration":0.1875,"midi":82,"time":475.7578125,"velocity":0.3937007874015748},{"duration":0.1875,"midi":39,"time":475.7578125,"velocity":0.3937007874015748},{"duration":0.1875,"midi":81,"time":475.78125,"velocity":0.3937007874015748},{"duration":0.1875,"midi":40,"time":475.78125,"velocity":0.3937007874015748},{"duration":0.1875,"midi":80,"time":475.8046875,"velocity":0.3937007874015748},{"duration":0.1875,"midi":41,"time":475.8046875,"velocity":0.3937007874015748},{"duration":0.1875,"midi":42,"time":475.828125,"velocity":0.3937007874015748},{"duration":0.1875,"midi":79,"time":475.828125,"velocity":0.3937007874015748},{"duration":0.1875,"midi":43,"time":475.8515625,"velocity":0.3937007874015748},{"duration":0.1875,"midi":78,"time":475.8515625,"velocity":0.3937007874015748},{"duration":0.1875,"midi":74,"time":475.875,"velocity":0.3937007874015748},{"duration":0.1875,"midi":45,"time":475.875,"velocity":0.3937007874015748},{"duration":0.1875,"midi":26,"time":475.875,"velocity":0.3937007874015748},{"duration":0.1875,"midi":69,"time":475.875,"velocity":0.3937007874015748},{"duration":0.1875,"midi":57,"time":475.875,"velocity":0.3937007874015748},{"duration":0.1875,"midi":33,"time":475.875,"velocity":0.3937007874015748},{"duration":0.1875,"midi":77,"time":475.875,"velocity":0.3937007874015748},{"duration":0.1875,"midi":86,"time":475.875,"velocity":0.3937007874015748},{"duration":0.1875,"midi":38,"time":475.875,"velocity":0.3937007874015748},{"duration":0.1875,"midi":50,"time":475.875,"velocity":0.3937007874015748},{"duration":0.1875,"midi":44,"time":475.875,"velocity":0.3937007874015748},{"duration":0.1875,"midi":62,"time":475.875,"velocity":0.3937007874015748},{"duration":0.1875,"midi":81,"time":475.875,"velocity":0.3937007874015748},{"duration":0.1875,"midi":93,"time":475.875,"velocity":0.3937007874015748},{"duration":0.1875,"midi":76,"time":475.8984375,"velocity":0.3937007874015748},{"duration":0.1875,"midi":45,"time":475.8984375,"velocity":0.3937007874015748},{"duration":0.1875,"midi":46,"time":475.921875,"velocity":0.3937007874015748},{"duration":0.1875,"midi":75,"time":475.921875,"velocity":0.3937007874015748},{"duration":0.1875,"midi":74,"time":475.9453125,"velocity":0.3937007874015748},{"duration":0.1875,"midi":47,"time":475.9453125,"velocity":0.3937007874015748},{"duration":0.1875,"midi":48,"time":475.96875,"velocity":0.3937007874015748},{"duration":0.1875,"midi":73,"time":475.96875,"velocity":0.3937007874015748},{"duration":0.1875,"midi":72,"time":475.9921875,"velocity":0.3937007874015748},{"duration":0.1875,"midi":49,"time":475.9921875,"velocity":0.3937007874015748},{"duration":0.1875,"midi":71,"time":476.015625,"velocity":0.3937007874015748},{"duration":0.1875,"midi":50,"time":476.015625,"velocity":0.3937007874015748},{"duration":0.1875,"midi":70,"time":476.0390625,"velocity":0.3937007874015748},{"duration":0.1875,"midi":51,"time":476.0390625,"velocity":0.3937007874015748},{"duration":0.1875,"midi":52,"time":476.0625,"velocity":0.3937007874015748},{"duration":0.1875,"midi":75,"time":476.0625,"velocity":0.3937007874015748},{"duration":0.1875,"midi":44,"time":476.0625,"velocity":0.3937007874015748},{"duration":0.1875,"midi":68,"time":476.0625,"velocity":0.3937007874015748},{"duration":0.1875,"midi":87,"time":476.0625,"velocity":0.3937007874015748},{"duration":0.1875,"midi":63,"time":476.0625,"velocity":0.3937007874015748},{"duration":0.1875,"midi":51,"time":476.0625,"velocity":0.3937007874015748},{"duration":0.1875,"midi":32,"time":476.0625,"velocity":0.3937007874015748},{"duration":0.1875,"midi":56,"time":476.0625,"velocity":0.3937007874015748},{"duration":0.1875,"midi":92,"time":476.0625,"velocity":0.3937007874015748},{"duration":0.1875,"midi":39,"time":476.0625,"velocity":0.3937007874015748},{"duration":0.1875,"midi":27,"time":476.0625,"velocity":0.3937007874015748},{"duration":0.1875,"midi":80,"time":476.0625,"velocity":0.3937007874015748},{"duration":0.1875,"midi":69,"time":476.0625,"velocity":0.3937007874015748},{"duration":0.1875,"midi":68,"time":476.0859375,"velocity":0.3937007874015748},{"duration":0.1875,"midi":53,"time":476.0859375,"velocity":0.3937007874015748},{"duration":0.1875,"midi":67,"time":476.109375,"velocity":0.3937007874015748},{"duration":0.1875,"midi":54,"time":476.109375,"velocity":0.3937007874015748},{"duration":0.1875,"midi":66,"time":476.1328125,"velocity":0.3937007874015748},{"duration":0.1875,"midi":55,"time":476.1328125,"velocity":0.3937007874015748},{"duration":0.1875,"midi":65,"time":476.15625,"velocity":0.3937007874015748},{"duration":0.1875,"midi":56,"time":476.15625,"velocity":0.3937007874015748},{"duration":0.1875,"midi":57,"time":476.1796875,"velocity":0.3937007874015748},{"duration":0.1875,"midi":64,"time":476.1796875,"velocity":0.3937007874015748},{"duration":0.1875,"midi":58,"time":476.203125,"velocity":0.3937007874015748},{"duration":0.1875,"midi":63,"time":476.203125,"velocity":0.3937007874015748},{"duration":0.1875,"midi":59,"time":476.2265625,"velocity":0.3937007874015748},{"duration":0.1875,"midi":62,"time":476.2265625,"velocity":0.3937007874015748},{"duration":0.1875,"midi":31,"time":476.25,"velocity":0.3937007874015748},{"duration":0.1875,"midi":52,"time":476.25,"velocity":0.3937007874015748},{"duration":0.1875,"midi":61,"time":476.25,"velocity":0.3937007874015748},{"duration":0.1875,"midi":55,"time":476.25,"velocity":0.3937007874015748},{"duration":0.1875,"midi":64,"time":476.25,"velocity":0.3937007874015748},{"duration":0.1875,"midi":43,"time":476.25,"velocity":0.3937007874015748},{"duration":0.1875,"midi":79,"time":476.25,"velocity":0.3937007874015748},{"duration":0.1875,"midi":60,"time":476.25,"velocity":0.3937007874015748},{"duration":0.1875,"midi":67,"time":476.25,"velocity":0.3937007874015748},{"duration":0.1875,"midi":88,"time":476.25,"velocity":0.3937007874015748},{"duration":0.1875,"midi":76,"time":476.25,"velocity":0.3937007874015748},{"duration":0.1875,"midi":40,"time":476.25,"velocity":0.3937007874015748},{"duration":0.1875,"midi":28,"time":476.25,"velocity":0.3937007874015748},{"duration":0.1875,"midi":91,"time":476.25,"velocity":0.3937007874015748},{"duration":0.1875,"midi":60,"time":476.2734375,"velocity":0.3937007874015748},{"duration":0.1875,"midi":61,"time":476.2734375,"velocity":0.3937007874015748},{"duration":0.1875,"midi":62,"time":476.296875,"velocity":0.3937007874015748},{"duration":0.1875,"midi":59,"time":476.296875,"velocity":0.3937007874015748},{"duration":0.1875,"midi":63,"time":476.3203125,"velocity":0.3937007874015748},{"duration":0.1875,"midi":58,"time":476.3203125,"velocity":0.3937007874015748},{"duration":0.1875,"midi":57,"time":476.34375,"velocity":0.3937007874015748},{"duration":0.1875,"midi":64,"time":476.34375,"velocity":0.3937007874015748},{"duration":0.1875,"midi":56,"time":476.3671875,"velocity":0.3937007874015748},{"duration":0.1875,"midi":65,"time":476.3671875,"velocity":0.3937007874015748},{"duration":0.1875,"midi":66,"time":476.390625,"velocity":0.3937007874015748},{"duration":0.1875,"midi":55,"time":476.390625,"velocity":0.3937007874015748},{"duration":0.1875,"midi":67,"time":476.4140625,"velocity":0.3937007874015748},{"duration":0.1875,"midi":54,"time":476.4140625,"velocity":0.3937007874015748},{"duration":0.1875,"midi":54,"time":476.4375,"velocity":0.3937007874015748},{"duration":0.1875,"midi":42,"time":476.4375,"velocity":0.3937007874015748},{"duration":0.1875,"midi":89,"time":476.4375,"velocity":0.3937007874015748},{"duration":0.1875,"midi":77,"time":476.4375,"velocity":0.3937007874015748},{"duration":0.1875,"midi":68,"time":476.4375,"velocity":0.3937007874015748},{"duration":0.1875,"midi":53,"time":476.4375,"velocity":0.3937007874015748},{"duration":0.1875,"midi":65,"time":476.4375,"velocity":0.3937007874015748},{"duration":0.1875,"midi":41,"time":476.4375,"velocity":0.3937007874015748},{"duration":0.1875,"midi":29,"time":476.4375,"velocity":0.3937007874015748},{"duration":0.1875,"midi":90,"time":476.4375,"velocity":0.3937007874015748},{"duration":0.1875,"midi":78,"time":476.4375,"velocity":0.3937007874015748},{"duration":0.1875,"midi":66,"time":476.4375,"velocity":0.3937007874015748},{"duration":0.1875,"midi":30,"time":476.4375,"velocity":0.3937007874015748},{"duration":0.1875,"midi":53,"time":476.4375,"velocity":0.3937007874015748},{"duration":0.1875,"midi":69,"time":476.4609375,"velocity":0.3937007874015748},{"duration":0.1875,"midi":52,"time":476.4609375,"velocity":0.3937007874015748},{"duration":0.1875,"midi":70,"time":476.484375,"velocity":0.3937007874015748},{"duration":0.1875,"midi":51,"time":476.484375,"velocity":0.3937007874015748},{"duration":0.1875,"midi":50,"time":476.5078125,"velocity":0.3937007874015748},{"duration":0.1875,"midi":71,"time":476.5078125,"velocity":0.3937007874015748},{"duration":0.1875,"midi":72,"time":476.53125,"velocity":0.3937007874015748},{"duration":0.1875,"midi":49,"time":476.53125,"velocity":0.3937007874015748},{"duration":0.1875,"midi":73,"time":476.5546875,"velocity":0.3937007874015748},{"duration":0.1875,"midi":48,"time":476.5546875,"velocity":0.3937007874015748},{"duration":0.1875,"midi":74,"time":476.578125,"velocity":0.3937007874015748},{"duration":0.1875,"midi":47,"time":476.578125,"velocity":0.3937007874015748},{"duration":0.1875,"midi":46,"time":476.6015625,"velocity":0.3937007874015748},{"duration":0.1875,"midi":75,"time":476.6015625,"velocity":0.3937007874015748},{"duration":0.1875,"midi":77,"time":476.625,"velocity":0.3937007874015748},{"duration":0.1875,"midi":90,"time":476.625,"velocity":0.3937007874015748},{"duration":0.1875,"midi":65,"time":476.625,"velocity":0.3937007874015748},{"duration":0.1875,"midi":41,"time":476.625,"velocity":0.3937007874015748},{"duration":0.1875,"midi":42,"time":476.625,"velocity":0.3937007874015748},{"duration":0.1875,"midi":76,"time":476.625,"velocity":0.3937007874015748},{"duration":0.1875,"midi":78,"time":476.625,"velocity":0.3937007874015748},{"duration":0.1875,"midi":89,"time":476.625,"velocity":0.3937007874015748},{"duration":0.1875,"midi":66,"time":476.625,"velocity":0.3937007874015748},{"duration":0.1875,"midi":53,"time":476.625,"velocity":0.3937007874015748},{"duration":0.1875,"midi":29,"time":476.625,"velocity":0.3937007874015748},{"duration":0.1875,"midi":45,"time":476.625,"velocity":0.3937007874015748},{"duration":0.1875,"midi":30,"time":476.625,"velocity":0.3937007874015748},{"duration":0.1875,"midi":54,"time":476.625,"velocity":0.3937007874015748},{"duration":0.1875,"midi":77,"time":476.6484375,"velocity":0.3937007874015748},{"duration":0.1875,"midi":44,"time":476.6484375,"velocity":0.3937007874015748},{"duration":0.1875,"midi":78,"time":476.671875,"velocity":0.3937007874015748},{"duration":0.1875,"midi":43,"time":476.671875,"velocity":0.3937007874015748},{"duration":0.1875,"midi":79,"time":476.6953125,"velocity":0.3937007874015748},{"duration":0.1875,"midi":42,"time":476.6953125,"velocity":0.3937007874015748},{"duration":0.1875,"midi":80,"time":476.71875,"velocity":0.3937007874015748},{"duration":0.1875,"midi":41,"time":476.71875,"velocity":0.3937007874015748},{"duration":0.1875,"midi":81,"time":476.7421875,"velocity":0.3937007874015748},{"duration":0.1875,"midi":40,"time":476.7421875,"velocity":0.3937007874015748},{"duration":0.1875,"midi":39,"time":476.765625,"velocity":0.3937007874015748},{"duration":0.1875,"midi":82,"time":476.765625,"velocity":0.3937007874015748},{"duration":0.1875,"midi":38,"time":476.7890625,"velocity":0.3937007874015748},{"duration":0.1875,"midi":83,"time":476.7890625,"velocity":0.3937007874015748},{"duration":0.1875,"midi":67,"time":476.8125,"velocity":0.3937007874015748},{"duration":0.1875,"midi":91,"time":476.8125,"velocity":0.3937007874015748},{"duration":0.1875,"midi":52,"time":476.8125,"velocity":0.3937007874015748},{"duration":0.1875,"midi":79,"time":476.8125,"velocity":0.3937007874015748},{"duration":0.1875,"midi":43,"time":476.8125,"velocity":0.3937007874015748},{"duration":0.1875,"midi":55,"time":476.8125,"velocity":0.3937007874015748},{"duration":0.1875,"midi":88,"time":476.8125,"velocity":0.3937007874015748},{"duration":0.1875,"midi":64,"time":476.8125,"velocity":0.3937007874015748},{"duration":0.1875,"midi":84,"time":476.8125,"velocity":0.3937007874015748},{"duration":0.1875,"midi":76,"time":476.8125,"velocity":0.3937007874015748},{"duration":0.1875,"midi":40,"time":476.8125,"velocity":0.3937007874015748},{"duration":0.1875,"midi":37,"time":476.8125,"velocity":0.3937007874015748},{"duration":0.1875,"midi":28,"time":476.8125,"velocity":0.3937007874015748},{"duration":0.1875,"midi":31,"time":476.8125,"velocity":0.3937007874015748},{"duration":0.1875,"midi":36,"time":476.8359375,"velocity":0.3937007874015748},{"duration":0.1875,"midi":85,"time":476.8359375,"velocity":0.3937007874015748},{"duration":0.1875,"midi":86,"time":476.859375,"velocity":0.3937007874015748},{"duration":0.1875,"midi":35,"time":476.859375,"velocity":0.3937007874015748},{"duration":0.1875,"midi":34,"time":476.8828125,"velocity":0.3937007874015748},{"duration":0.1875,"midi":87,"time":476.8828125,"velocity":0.3937007874015748},{"duration":0.1875,"midi":33,"time":476.90625,"velocity":0.3937007874015748},{"duration":0.1875,"midi":88,"time":476.90625,"velocity":0.3937007874015748},{"duration":0.1875,"midi":89,"time":476.9296875,"velocity":0.3937007874015748},{"duration":0.1875,"midi":32,"time":476.9296875,"velocity":0.3937007874015748},{"duration":0.1875,"midi":31,"time":476.953125,"velocity":0.3937007874015748},{"duration":0.1875,"midi":90,"time":476.953125,"velocity":0.3937007874015748},{"duration":0.1875,"midi":30,"time":476.9765625,"velocity":0.3937007874015748},{"duration":0.1875,"midi":91,"time":476.9765625,"velocity":0.3937007874015748},{"duration":0.1875,"midi":63,"time":477,"velocity":0.3937007874015748},{"duration":0.1875,"midi":51,"time":477,"velocity":0.3937007874015748},{"duration":0.1875,"midi":44,"time":477,"velocity":0.3937007874015748},{"duration":0.1875,"midi":80,"time":477,"velocity":0.3937007874015748},{"duration":0.1875,"midi":56,"time":477,"velocity":0.3937007874015748},{"duration":0.1875,"midi":39,"time":477,"velocity":0.3937007874015748},{"duration":0.1875,"midi":92,"time":477,"velocity":0.3937007874015748},{"duration":0.1875,"midi":68,"time":477,"velocity":0.3937007874015748},{"duration":0.1875,"midi":87,"time":477,"velocity":0.3937007874015748},{"duration":0.1875,"midi":27,"time":477,"velocity":0.3937007874015748},{"duration":0.1875,"midi":75,"time":477,"velocity":0.3937007874015748},{"duration":0.1875,"midi":32,"time":477,"velocity":0.3937007874015748},{"duration":0.1875,"midi":93,"time":477.0234375,"velocity":0.3937007874015748},{"duration":0.1875,"midi":28,"time":477.0234375,"velocity":0.3937007874015748},{"duration":0.1875,"midi":92,"time":477.046875,"velocity":0.3937007874015748},{"duration":0.1875,"midi":29,"time":477.046875,"velocity":0.3937007874015748},{"duration":0.1875,"midi":30,"time":477.0703125,"velocity":0.3937007874015748},{"duration":0.1875,"midi":91,"time":477.0703125,"velocity":0.3937007874015748},{"duration":0.1875,"midi":31,"time":477.09375,"velocity":0.3937007874015748},{"duration":0.1875,"midi":90,"time":477.09375,"velocity":0.3937007874015748},{"duration":0.1875,"midi":89,"time":477.1171875,"velocity":0.3937007874015748},{"duration":0.1875,"midi":32,"time":477.1171875,"velocity":0.3937007874015748},{"duration":0.1875,"midi":33,"time":477.140625,"velocity":0.3937007874015748},{"duration":0.1875,"midi":88,"time":477.140625,"velocity":0.3937007874015748},{"duration":0.1875,"midi":87,"time":477.1640625,"velocity":0.3937007874015748},{"duration":0.1875,"midi":34,"time":477.1640625,"velocity":0.3937007874015748},{"duration":0.1875,"midi":74,"time":477.1875,"velocity":0.3937007874015748},{"duration":0.1875,"midi":50,"time":477.1875,"velocity":0.3937007874015748},{"duration":0.1875,"midi":33,"time":477.1875,"velocity":0.3937007874015748},{"duration":0.1875,"midi":57,"time":477.1875,"velocity":0.3937007874015748},{"duration":0.1875,"midi":81,"time":477.1875,"velocity":0.3937007874015748},{"duration":0.1875,"midi":35,"time":477.1875,"velocity":0.3937007874015748},{"duration":0.1875,"midi":38,"time":477.1875,"velocity":0.3937007874015748},{"duration":0.1875,"midi":26,"time":477.1875,"velocity":0.3937007874015748},{"duration":0.1875,"midi":62,"time":477.1875,"velocity":0.3937007874015748},{"duration":0.1875,"midi":69,"time":477.1875,"velocity":0.3937007874015748},{"duration":0.1875,"midi":86,"time":477.1875,"velocity":0.3937007874015748},{"duration":0.1875,"midi":45,"time":477.1875,"velocity":0.3937007874015748},{"duration":0.1875,"midi":93,"time":477.1875,"velocity":0.3937007874015748},{"duration":0.1875,"midi":86,"time":477.1875,"velocity":0.3937007874015748},{"duration":0.1875,"midi":36,"time":477.2109375,"velocity":0.3937007874015748},{"duration":0.1875,"midi":85,"time":477.2109375,"velocity":0.3937007874015748},{"duration":0.1875,"midi":84,"time":477.234375,"velocity":0.3937007874015748},{"duration":0.1875,"midi":37,"time":477.234375,"velocity":0.3937007874015748},{"duration":0.1875,"midi":83,"time":477.2578125,"velocity":0.3937007874015748},{"duration":0.1875,"midi":38,"time":477.2578125,"velocity":0.3937007874015748},{"duration":0.1875,"midi":39,"time":477.28125,"velocity":0.3937007874015748},{"duration":0.1875,"midi":82,"time":477.28125,"velocity":0.3937007874015748},{"duration":0.1875,"midi":40,"time":477.3046875,"velocity":0.3937007874015748},{"duration":0.1875,"midi":81,"time":477.3046875,"velocity":0.3937007874015748},{"duration":0.1875,"midi":80,"time":477.328125,"velocity":0.3937007874015748},{"duration":0.1875,"midi":41,"time":477.328125,"velocity":0.3937007874015748},{"duration":0.1875,"midi":79,"time":477.3515625,"velocity":0.3937007874015748},{"duration":0.1875,"midi":42,"time":477.3515625,"velocity":0.3937007874015748},{"duration":0.1875,"midi":82,"time":477.375,"velocity":0.3937007874015748},{"duration":0.1875,"midi":49,"time":477.375,"velocity":0.3937007874015748},{"duration":0.1875,"midi":46,"time":477.375,"velocity":0.3937007874015748},{"duration":0.1875,"midi":94,"time":477.375,"velocity":0.3937007874015748},{"duration":0.1875,"midi":43,"time":477.375,"velocity":0.3937007874015748},{"duration":0.1875,"midi":61,"time":477.375,"velocity":0.3937007874015748},{"duration":0.1875,"midi":25,"time":477.375,"velocity":0.3937007874015748},{"duration":0.1875,"midi":73,"time":477.375,"velocity":0.3937007874015748},{"duration":0.1875,"midi":70,"time":477.375,"velocity":0.3937007874015748},{"duration":0.1875,"midi":85,"time":477.375,"velocity":0.3937007874015748},{"duration":0.1875,"midi":58,"time":477.375,"velocity":0.3937007874015748},{"duration":0.1875,"midi":34,"time":477.375,"velocity":0.3937007874015748},{"duration":0.1875,"midi":37,"time":477.375,"velocity":0.3937007874015748},{"duration":0.1875,"midi":78,"time":477.375,"velocity":0.3937007874015748},{"duration":0.1875,"midi":44,"time":477.3984375,"velocity":0.3937007874015748},{"duration":0.1875,"midi":77,"time":477.3984375,"velocity":0.3937007874015748},{"duration":0.1875,"midi":76,"time":477.421875,"velocity":0.3937007874015748},{"duration":0.1875,"midi":45,"time":477.421875,"velocity":0.3937007874015748},{"duration":0.1875,"midi":46,"time":477.4453125,"velocity":0.3937007874015748},{"duration":0.1875,"midi":75,"time":477.4453125,"velocity":0.3937007874015748},{"duration":0.1875,"midi":47,"time":477.46875,"velocity":0.3937007874015748},{"duration":0.1875,"midi":74,"time":477.46875,"velocity":0.3937007874015748},{"duration":0.1875,"midi":48,"time":477.4921875,"velocity":0.3937007874015748},{"duration":0.1875,"midi":73,"time":477.4921875,"velocity":0.3937007874015748},{"duration":0.1875,"midi":72,"time":477.515625,"velocity":0.3937007874015748},{"duration":0.1875,"midi":49,"time":477.515625,"velocity":0.3937007874015748},{"duration":0.1875,"midi":71,"time":477.5390625,"velocity":0.3937007874015748},{"duration":0.1875,"midi":50,"time":477.5390625,"velocity":0.3937007874015748},{"duration":0.1875,"midi":51,"time":477.5625,"velocity":0.3937007874015748},{"duration":0.1875,"midi":70,"time":477.5625,"velocity":0.3937007874015748},{"duration":0.1875,"midi":36,"time":477.5625,"velocity":0.3937007874015748},{"duration":0.1875,"midi":84,"time":477.5625,"velocity":0.3937007874015748},{"duration":0.1875,"midi":35,"time":477.5625,"velocity":0.3937007874015748},{"duration":0.1875,"midi":60,"time":477.5625,"velocity":0.3937007874015748},{"duration":0.1875,"midi":95,"time":477.5625,"velocity":0.3937007874015748},{"duration":0.1875,"midi":47,"time":477.5625,"velocity":0.3937007874015748},{"duration":0.1875,"midi":59,"time":477.5625,"velocity":0.3937007874015748},{"duration":0.1875,"midi":83,"time":477.5625,"velocity":0.3937007874015748},{"duration":0.1875,"midi":71,"time":477.5625,"velocity":0.3937007874015748},{"duration":0.1875,"midi":72,"time":477.5625,"velocity":0.3937007874015748},{"duration":0.1875,"midi":48,"time":477.5625,"velocity":0.3937007874015748},{"duration":0.1875,"midi":24,"time":477.5625,"velocity":0.3937007874015748},{"duration":0.1875,"midi":52,"time":477.5859375,"velocity":0.3937007874015748},{"duration":0.1875,"midi":69,"time":477.5859375,"velocity":0.3937007874015748},{"duration":0.1875,"midi":68,"time":477.609375,"velocity":0.3937007874015748},{"duration":0.1875,"midi":53,"time":477.609375,"velocity":0.3937007874015748},{"duration":0.1875,"midi":67,"time":477.6328125,"velocity":0.3937007874015748},{"duration":0.1875,"midi":54,"time":477.6328125,"velocity":0.3937007874015748},{"duration":0.1875,"midi":66,"time":477.65625,"velocity":0.3937007874015748},{"duration":0.1875,"midi":55,"time":477.65625,"velocity":0.3937007874015748},{"duration":0.1875,"midi":65,"time":477.6796875,"velocity":0.3937007874015748},{"duration":0.1875,"midi":56,"time":477.6796875,"velocity":0.3937007874015748},{"duration":0.1875,"midi":64,"time":477.703125,"velocity":0.3937007874015748},{"duration":0.1875,"midi":57,"time":477.703125,"velocity":0.3937007874015748},{"duration":0.1875,"midi":63,"time":477.7265625,"velocity":0.3937007874015748},{"duration":0.1875,"midi":58,"time":477.7265625,"velocity":0.3937007874015748},{"duration":0.1875,"midi":95,"time":477.75,"velocity":0.3937007874015748},{"duration":0.1875,"midi":48,"time":477.75,"velocity":0.3937007874015748},{"duration":0.1875,"midi":83,"time":477.75,"velocity":0.3937007874015748},{"duration":0.1875,"midi":72,"time":477.75,"velocity":0.3937007874015748},{"duration":0.1875,"midi":24,"time":477.75,"velocity":0.3937007874015748},{"duration":0.1875,"midi":36,"time":477.75,"velocity":0.3937007874015748},{"duration":0.1875,"midi":71,"time":477.75,"velocity":0.3937007874015748},{"duration":0.1875,"midi":59,"time":477.75,"velocity":0.3937007874015748},{"duration":0.1875,"midi":60,"time":477.75,"velocity":0.3937007874015748},{"duration":0.1875,"midi":35,"time":477.75,"velocity":0.3937007874015748},{"duration":0.1875,"midi":62,"time":477.75,"velocity":0.3937007874015748},{"duration":0.1875,"midi":84,"time":477.75,"velocity":0.3937007874015748},{"duration":0.1875,"midi":59,"time":477.75,"velocity":0.3937007874015748},{"duration":0.1875,"midi":47,"time":477.75,"velocity":0.3937007874015748},{"duration":0.1875,"midi":60,"time":477.7734375,"velocity":0.3937007874015748},{"duration":0.1875,"midi":61,"time":477.7734375,"velocity":0.3937007874015748},{"duration":0.1875,"midi":61,"time":477.796875,"velocity":0.3937007874015748},{"duration":0.1875,"midi":60,"time":477.796875,"velocity":0.3937007874015748},{"duration":0.1875,"midi":62,"time":477.8203125,"velocity":0.3937007874015748},{"duration":0.1875,"midi":59,"time":477.8203125,"velocity":0.3937007874015748},{"duration":0.1875,"midi":58,"time":477.84375,"velocity":0.3937007874015748},{"duration":0.1875,"midi":63,"time":477.84375,"velocity":0.3937007874015748},{"duration":0.1875,"midi":57,"time":477.8671875,"velocity":0.3937007874015748},{"duration":0.1875,"midi":64,"time":477.8671875,"velocity":0.3937007874015748},{"duration":0.1875,"midi":56,"time":477.890625,"velocity":0.3937007874015748},{"duration":0.1875,"midi":65,"time":477.890625,"velocity":0.3937007874015748},{"duration":0.1875,"midi":55,"time":477.9140625,"velocity":0.3937007874015748},{"duration":0.1875,"midi":66,"time":477.9140625,"velocity":0.3937007874015748},{"duration":0.1875,"midi":82,"time":477.9375,"velocity":0.3937007874015748},{"duration":0.1875,"midi":70,"time":477.9375,"velocity":0.3937007874015748},{"duration":0.1875,"midi":94,"time":477.9375,"velocity":0.3937007874015748},{"duration":0.1875,"midi":46,"time":477.9375,"velocity":0.3937007874015748},{"duration":0.1875,"midi":34,"time":477.9375,"velocity":0.3937007874015748},{"duration":0.1875,"midi":58,"time":477.9375,"velocity":0.3937007874015748},{"duration":0.1875,"midi":73,"time":477.9375,"velocity":0.3937007874015748},{"duration":0.1875,"midi":61,"time":477.9375,"velocity":0.3937007874015748},{"duration":0.1875,"midi":85,"time":477.9375,"velocity":0.3937007874015748},{"duration":0.1875,"midi":49,"time":477.9375,"velocity":0.3937007874015748},{"duration":0.1875,"midi":25,"time":477.9375,"velocity":0.3937007874015748},{"duration":0.1875,"midi":67,"time":477.9375,"velocity":0.3937007874015748},{"duration":0.1875,"midi":54,"time":477.9375,"velocity":0.3937007874015748},{"duration":0.1875,"midi":37,"time":477.9375,"velocity":0.3937007874015748},{"duration":0.1875,"midi":53,"time":477.9609375,"velocity":0.3937007874015748},{"duration":0.1875,"midi":68,"time":477.9609375,"velocity":0.3937007874015748},{"duration":0.1875,"midi":52,"time":477.984375,"velocity":0.3937007874015748},{"duration":0.1875,"midi":69,"time":477.984375,"velocity":0.3937007874015748},{"duration":0.1875,"midi":51,"time":478.0078125,"velocity":0.3937007874015748},{"duration":0.1875,"midi":70,"time":478.0078125,"velocity":0.3937007874015748},{"duration":0.1875,"midi":71,"time":478.03125,"velocity":0.3937007874015748},{"duration":0.1875,"midi":50,"time":478.03125,"velocity":0.3937007874015748},{"duration":0.1875,"midi":72,"time":478.0546875,"velocity":0.3937007874015748},{"duration":0.1875,"midi":49,"time":478.0546875,"velocity":0.3937007874015748},{"duration":0.1875,"midi":73,"time":478.078125,"velocity":0.3937007874015748},{"duration":0.1875,"midi":48,"time":478.078125,"velocity":0.3937007874015748},{"duration":0.1875,"midi":74,"time":478.1015625,"velocity":0.3937007874015748},{"duration":0.1875,"midi":47,"time":478.1015625,"velocity":0.3937007874015748},{"duration":0.1875,"midi":45,"time":478.125,"velocity":0.3937007874015748},{"duration":0.1875,"midi":26,"time":478.125,"velocity":0.3937007874015748},{"duration":0.1875,"midi":81,"time":478.125,"velocity":0.3937007874015748},{"duration":0.1875,"midi":50,"time":478.125,"velocity":0.3937007874015748},{"duration":0.1875,"midi":75,"time":478.125,"velocity":0.3937007874015748},{"duration":0.1875,"midi":93,"time":478.125,"velocity":0.3937007874015748},{"duration":0.1875,"midi":69,"time":478.125,"velocity":0.3937007874015748},{"duration":0.1875,"midi":33,"time":478.125,"velocity":0.3937007874015748},{"duration":0.1875,"midi":38,"time":478.125,"velocity":0.3937007874015748},{"duration":0.1875,"midi":86,"time":478.125,"velocity":0.3937007874015748},{"duration":0.1875,"midi":62,"time":478.125,"velocity":0.3937007874015748},{"duration":0.1875,"midi":57,"time":478.125,"velocity":0.3937007874015748},{"duration":0.1875,"midi":46,"time":478.125,"velocity":0.3937007874015748},{"duration":0.1875,"midi":74,"time":478.125,"velocity":0.3937007874015748},{"duration":0.1875,"midi":45,"time":478.1484375,"velocity":0.3937007874015748},{"duration":0.1875,"midi":76,"time":478.1484375,"velocity":0.3937007874015748},{"duration":0.1875,"midi":77,"time":478.171875,"velocity":0.3937007874015748},{"duration":0.1875,"midi":44,"time":478.171875,"velocity":0.3937007874015748},{"duration":0.1875,"midi":78,"time":478.1953125,"velocity":0.3937007874015748},{"duration":0.1875,"midi":43,"time":478.1953125,"velocity":0.3937007874015748},{"duration":0.1875,"midi":79,"time":478.21875,"velocity":0.3937007874015748},{"duration":0.1875,"midi":42,"time":478.21875,"velocity":0.3937007874015748},{"duration":0.1875,"midi":80,"time":478.2421875,"velocity":0.3937007874015748},{"duration":0.1875,"midi":41,"time":478.2421875,"velocity":0.3937007874015748},{"duration":0.1875,"midi":40,"time":478.265625,"velocity":0.3937007874015748},{"duration":0.1875,"midi":81,"time":478.265625,"velocity":0.3937007874015748},{"duration":0.1875,"midi":82,"time":478.2890625,"velocity":0.3937007874015748},{"duration":0.1875,"midi":39,"time":478.2890625,"velocity":0.3937007874015748},{"duration":0.1875,"midi":63,"time":478.3125,"velocity":0.3937007874015748},{"duration":0.1875,"midi":39,"time":478.3125,"velocity":0.3937007874015748},{"duration":0.1875,"midi":83,"time":478.3125,"velocity":0.3937007874015748},{"duration":0.1875,"midi":87,"time":478.3125,"velocity":0.3937007874015748},{"duration":0.1875,"midi":75,"time":478.3125,"velocity":0.3937007874015748},{"duration":0.1875,"midi":32,"time":478.3125,"velocity":0.3937007874015748},{"duration":0.1875,"midi":44,"time":478.3125,"velocity":0.3937007874015748},{"duration":0.1875,"midi":80,"time":478.3125,"velocity":0.3937007874015748},{"duration":0.1875,"midi":51,"time":478.3125,"velocity":0.3937007874015748},{"duration":0.1875,"midi":56,"time":478.3125,"velocity":0.3937007874015748},{"duration":0.1875,"midi":92,"time":478.3125,"velocity":0.3937007874015748},{"duration":0.1875,"midi":27,"time":478.3125,"velocity":0.3937007874015748},{"duration":0.1875,"midi":38,"time":478.3125,"velocity":0.3937007874015748},{"duration":0.1875,"midi":68,"time":478.3125,"velocity":0.3937007874015748},{"duration":0.1875,"midi":37,"time":478.3359375,"velocity":0.3937007874015748},{"duration":0.1875,"midi":84,"time":478.3359375,"velocity":0.3937007874015748},{"duration":0.1875,"midi":36,"time":478.359375,"velocity":0.3937007874015748},{"duration":0.1875,"midi":85,"time":478.359375,"velocity":0.3937007874015748},{"duration":0.1875,"midi":35,"time":478.3828125,"velocity":0.3937007874015748},{"duration":0.1875,"midi":86,"time":478.3828125,"velocity":0.3937007874015748},{"duration":0.1875,"midi":34,"time":478.40625,"velocity":0.3937007874015748},{"duration":0.1875,"midi":87,"time":478.40625,"velocity":0.3937007874015748},{"duration":0.1875,"midi":33,"time":478.4296875,"velocity":0.3937007874015748},{"duration":0.1875,"midi":88,"time":478.4296875,"velocity":0.3937007874015748},{"duration":0.1875,"midi":89,"time":478.453125,"velocity":0.3937007874015748},{"duration":0.1875,"midi":32,"time":478.453125,"velocity":0.3937007874015748},{"duration":0.1875,"midi":90,"time":478.4765625,"velocity":0.3937007874015748},{"duration":0.1875,"midi":31,"time":478.4765625,"velocity":0.3937007874015748},{"duration":0.1875,"midi":28,"time":478.5,"velocity":0.3937007874015748},{"duration":0.1875,"midi":76,"time":478.5,"velocity":0.3937007874015748},{"duration":0.1875,"midi":93,"time":478.5,"velocity":0.3937007874015748},{"duration":0.1875,"midi":31,"time":478.5,"velocity":0.3937007874015748},{"duration":0.1875,"midi":40,"time":478.5,"velocity":0.3937007874015748},{"duration":0.1875,"midi":67,"time":478.5,"velocity":0.3937007874015748},{"duration":0.1875,"midi":79,"time":478.5,"velocity":0.3937007874015748},{"duration":0.1875,"midi":30,"time":478.5,"velocity":0.3937007874015748},{"duration":0.1875,"midi":52,"time":478.5,"velocity":0.3937007874015748},{"duration":0.1875,"midi":64,"time":478.5,"velocity":0.3937007874015748},{"duration":0.1875,"midi":88,"time":478.5,"velocity":0.3937007874015748},{"duration":0.1875,"midi":91,"time":478.5,"velocity":0.3937007874015748},{"duration":0.1875,"midi":91,"time":478.5,"velocity":0.3937007874015748},{"duration":0.1875,"midi":55,"time":478.5,"velocity":0.3937007874015748},{"duration":0.1875,"midi":43,"time":478.5,"velocity":0.3937007874015748},{"duration":0.1875,"midi":28,"time":478.5,"velocity":0.3937007874015748},{"duration":0.1875,"midi":92,"time":478.5234375,"velocity":0.3937007874015748},{"duration":0.1875,"midi":29,"time":478.5234375,"velocity":0.3937007874015748},{"duration":0.1875,"midi":91,"time":478.546875,"velocity":0.3937007874015748},{"duration":0.1875,"midi":30,"time":478.546875,"velocity":0.3937007874015748},{"duration":0.1875,"midi":90,"time":478.5703125,"velocity":0.3937007874015748},{"duration":0.1875,"midi":31,"time":478.5703125,"velocity":0.3937007874015748},{"duration":0.1875,"midi":32,"time":478.59375,"velocity":0.3937007874015748},{"duration":0.1875,"midi":89,"time":478.59375,"velocity":0.3937007874015748},{"duration":0.1875,"midi":33,"time":478.6171875,"velocity":0.3937007874015748},{"duration":0.1875,"midi":88,"time":478.6171875,"velocity":0.3937007874015748},{"duration":0.1875,"midi":34,"time":478.640625,"velocity":0.3937007874015748},{"duration":0.1875,"midi":87,"time":478.640625,"velocity":0.3937007874015748},{"duration":0.1875,"midi":86,"time":478.6640625,"velocity":0.3937007874015748},{"duration":0.1875,"midi":35,"time":478.6640625,"velocity":0.3937007874015748},{"duration":0.1875,"midi":29,"time":478.6875,"velocity":0.3937007874015748},{"duration":0.1875,"midi":36,"time":478.6875,"velocity":0.3937007874015748},{"duration":0.1875,"midi":41,"time":478.6875,"velocity":0.3937007874015748},{"duration":0.1875,"midi":53,"time":478.6875,"velocity":0.3937007874015748},{"duration":0.1875,"midi":90,"time":478.6875,"velocity":0.3937007874015748},{"duration":0.1875,"midi":89,"time":478.6875,"velocity":0.3937007874015748},{"duration":0.1875,"midi":78,"time":478.6875,"velocity":0.3937007874015748},{"duration":0.1875,"midi":65,"time":478.6875,"velocity":0.3937007874015748},{"duration":0.1875,"midi":42,"time":478.6875,"velocity":0.3937007874015748},{"duration":0.1875,"midi":66,"time":478.6875,"velocity":0.3937007874015748},{"duration":0.1875,"midi":85,"time":478.6875,"velocity":0.3937007874015748},{"duration":0.1875,"midi":30,"time":478.6875,"velocity":0.3937007874015748},{"duration":0.1875,"midi":77,"time":478.6875,"velocity":0.3937007874015748},{"duration":0.1875,"midi":54,"time":478.6875,"velocity":0.3937007874015748},{"duration":0.1875,"midi":37,"time":478.7109375,"velocity":0.3937007874015748},{"duration":0.1875,"midi":84,"time":478.7109375,"velocity":0.3937007874015748},{"duration":0.1875,"midi":83,"time":478.734375,"velocity":0.3937007874015748},{"duration":0.1875,"midi":38,"time":478.734375,"velocity":0.3937007874015748},{"duration":0.1875,"midi":39,"time":478.7578125,"velocity":0.3937007874015748},{"duration":0.1875,"midi":82,"time":478.7578125,"velocity":0.3937007874015748},{"duration":0.1875,"midi":40,"time":478.78125,"velocity":0.3937007874015748},{"duration":0.1875,"midi":81,"time":478.78125,"velocity":0.3937007874015748},{"duration":0.1875,"midi":41,"time":478.8046875,"velocity":0.3937007874015748},{"duration":0.1875,"midi":80,"time":478.8046875,"velocity":0.3937007874015748},{"duration":0.1875,"midi":79,"time":478.828125,"velocity":0.3937007874015748},{"duration":0.1875,"midi":42,"time":478.828125,"velocity":0.3937007874015748},{"duration":0.1875,"midi":43,"time":478.8515625,"velocity":0.3937007874015748},{"duration":0.1875,"midi":78,"time":478.8515625,"velocity":0.3937007874015748},{"duration":0.1875,"midi":90,"time":478.875,"velocity":0.3937007874015748},{"duration":0.1875,"midi":41,"time":478.875,"velocity":0.3937007874015748},{"duration":0.1875,"midi":44,"time":478.875,"velocity":0.3937007874015748},{"duration":0.1875,"midi":77,"time":478.875,"velocity":0.3937007874015748},{"duration":0.1875,"midi":54,"time":478.875,"velocity":0.3937007874015748},{"duration":0.1875,"midi":30,"time":478.875,"velocity":0.3937007874015748},{"duration":0.1875,"midi":77,"time":478.875,"velocity":0.3937007874015748},{"duration":0.1875,"midi":65,"time":478.875,"velocity":0.3937007874015748},{"duration":0.1875,"midi":66,"time":478.875,"velocity":0.3937007874015748},{"duration":0.1875,"midi":78,"time":478.875,"velocity":0.3937007874015748},{"duration":0.1875,"midi":42,"time":478.875,"velocity":0.3937007874015748},{"duration":0.1875,"midi":29,"time":478.875,"velocity":0.3937007874015748},{"duration":0.1875,"midi":53,"time":478.875,"velocity":0.3937007874015748},{"duration":0.1875,"midi":89,"time":478.875,"velocity":0.3937007874015748},{"duration":0.1875,"midi":76,"time":478.8984375,"velocity":0.3937007874015748},{"duration":0.1875,"midi":45,"time":478.8984375,"velocity":0.3937007874015748},{"duration":0.1875,"midi":46,"time":478.921875,"velocity":0.3937007874015748},{"duration":0.1875,"midi":75,"time":478.921875,"velocity":0.3937007874015748},{"duration":0.1875,"midi":47,"time":478.9453125,"velocity":0.3937007874015748},{"duration":0.1875,"midi":74,"time":478.9453125,"velocity":0.3937007874015748},{"duration":0.1875,"midi":48,"time":478.96875,"velocity":0.3937007874015748},{"duration":0.1875,"midi":73,"time":478.96875,"velocity":0.3937007874015748},{"duration":0.1875,"midi":49,"time":478.9921875,"velocity":0.3937007874015748},{"duration":0.1875,"midi":72,"time":478.9921875,"velocity":0.3937007874015748},{"duration":0.1875,"midi":50,"time":479.015625,"velocity":0.3937007874015748},{"duration":0.1875,"midi":71,"time":479.015625,"velocity":0.3937007874015748},{"duration":0.1875,"midi":70,"time":479.0390625,"velocity":0.3937007874015748},{"duration":0.1875,"midi":51,"time":479.0390625,"velocity":0.3937007874015748},{"duration":0.1875,"midi":76,"time":479.0625,"velocity":0.3937007874015748},{"duration":0.1875,"midi":67,"time":479.0625,"velocity":0.3937007874015748},{"duration":0.1875,"midi":31,"time":479.0625,"velocity":0.3937007874015748},{"duration":0.1875,"midi":40,"time":479.0625,"velocity":0.3937007874015748},{"duration":0.1875,"midi":79,"time":479.0625,"velocity":0.3937007874015748},{"duration":0.1875,"midi":69,"time":479.0625,"velocity":0.3937007874015748},{"duration":0.1875,"midi":91,"time":479.0625,"velocity":0.3937007874015748},{"duration":0.1875,"midi":43,"time":479.0625,"velocity":0.3937007874015748},{"duration":0.1875,"midi":64,"time":479.0625,"velocity":0.3937007874015748},{"duration":0.1875,"midi":55,"time":479.0625,"velocity":0.3937007874015748},{"duration":0.1875,"midi":52,"time":479.0625,"velocity":0.3937007874015748},{"duration":0.1875,"midi":52,"time":479.0625,"velocity":0.3937007874015748},{"duration":0.1875,"midi":88,"time":479.0625,"velocity":0.3937007874015748},{"duration":0.1875,"midi":28,"time":479.0625,"velocity":0.3937007874015748},{"duration":0.1875,"midi":53,"time":479.0859375,"velocity":0.3937007874015748},{"duration":0.1875,"midi":68,"time":479.0859375,"velocity":0.3937007874015748},{"duration":0.1875,"midi":67,"time":479.109375,"velocity":0.3937007874015748},{"duration":0.1875,"midi":54,"time":479.109375,"velocity":0.3937007874015748},{"duration":0.1875,"midi":55,"time":479.1328125,"velocity":0.3937007874015748},{"duration":0.1875,"midi":66,"time":479.1328125,"velocity":0.3937007874015748},{"duration":0.1875,"midi":65,"time":479.15625,"velocity":0.3937007874015748},{"duration":0.1875,"midi":56,"time":479.15625,"velocity":0.3937007874015748},{"duration":0.1875,"midi":57,"time":479.1796875,"velocity":0.3937007874015748},{"duration":0.1875,"midi":64,"time":479.1796875,"velocity":0.3937007874015748},{"duration":0.1875,"midi":63,"time":479.203125,"velocity":0.3937007874015748},{"duration":0.1875,"midi":58,"time":479.203125,"velocity":0.3937007874015748},{"duration":0.1875,"midi":62,"time":479.2265625,"velocity":0.3937007874015748},{"duration":0.1875,"midi":59,"time":479.2265625,"velocity":0.3937007874015748},{"duration":0.1875,"midi":87,"time":479.25,"velocity":0.3937007874015748},{"duration":0.1875,"midi":68,"time":479.25,"velocity":0.3937007874015748},{"duration":0.1875,"midi":63,"time":479.25,"velocity":0.3937007874015748},{"duration":0.1875,"midi":39,"time":479.25,"velocity":0.3937007874015748},{"duration":0.1875,"midi":60,"time":479.25,"velocity":0.3937007874015748},{"duration":0.1875,"midi":75,"time":479.25,"velocity":0.3937007874015748},{"duration":0.1875,"midi":92,"time":479.25,"velocity":0.3937007874015748},{"duration":0.1875,"midi":51,"time":479.25,"velocity":0.3937007874015748},{"duration":0.1875,"midi":80,"time":479.25,"velocity":0.3937007874015748},{"duration":0.1875,"midi":44,"time":479.25,"velocity":0.3937007874015748},{"duration":0.1875,"midi":61,"time":479.25,"velocity":0.3937007874015748},{"duration":0.1875,"midi":32,"time":479.25,"velocity":0.3937007874015748},{"duration":0.1875,"midi":27,"time":479.25,"velocity":0.3937007874015748},{"duration":0.1875,"midi":56,"time":479.25,"velocity":0.3937007874015748},{"duration":0.1875,"midi":61,"time":479.2734375,"velocity":0.3937007874015748},{"duration":0.1875,"midi":60,"time":479.2734375,"velocity":0.3937007874015748},{"duration":0.1875,"midi":59,"time":479.296875,"velocity":0.3937007874015748},{"duration":0.1875,"midi":62,"time":479.296875,"velocity":0.3937007874015748},{"duration":0.1875,"midi":63,"time":479.3203125,"velocity":0.3937007874015748},{"duration":0.1875,"midi":58,"time":479.3203125,"velocity":0.3937007874015748},{"duration":0.1875,"midi":57,"time":479.34375,"velocity":0.3937007874015748},{"duration":0.1875,"midi":64,"time":479.34375,"velocity":0.3937007874015748},{"duration":0.1875,"midi":65,"time":479.3671875,"velocity":0.3937007874015748},{"duration":0.1875,"midi":56,"time":479.3671875,"velocity":0.3937007874015748},{"duration":0.1875,"midi":66,"time":479.390625,"velocity":0.3937007874015748},{"duration":0.1875,"midi":55,"time":479.390625,"velocity":0.3937007874015748},{"duration":0.1875,"midi":67,"time":479.4140625,"velocity":0.3937007874015748},{"duration":0.1875,"midi":54,"time":479.4140625,"velocity":0.3937007874015748},{"duration":0.1875,"midi":45,"time":479.4375,"velocity":0.3937007874015748},{"duration":0.1875,"midi":62,"time":479.4375,"velocity":0.3937007874015748},{"duration":0.1875,"midi":50,"time":479.4375,"velocity":0.3937007874015748},{"duration":0.1875,"midi":86,"time":479.4375,"velocity":0.3937007874015748},{"duration":0.1875,"midi":26,"time":479.4375,"velocity":0.3937007874015748},{"duration":0.1875,"midi":53,"time":479.4375,"velocity":0.3937007874015748},{"duration":0.1875,"midi":81,"time":479.4375,"velocity":0.3937007874015748},{"duration":0.1875,"midi":68,"time":479.4375,"velocity":0.3937007874015748},{"duration":0.1875,"midi":69,"time":479.4375,"velocity":0.3937007874015748},{"duration":0.1875,"midi":38,"time":479.4375,"velocity":0.3937007874015748},{"duration":0.1875,"midi":33,"time":479.4375,"velocity":0.3937007874015748},{"duration":0.1875,"midi":74,"time":479.4375,"velocity":0.3937007874015748},{"duration":0.1875,"midi":57,"time":479.4375,"velocity":0.3937007874015748},{"duration":0.1875,"midi":93,"time":479.4375,"velocity":0.3937007874015748},{"duration":0.1875,"midi":52,"time":479.4609375,"velocity":0.3937007874015748},{"duration":0.1875,"midi":69,"time":479.4609375,"velocity":0.3937007874015748},{"duration":0.1875,"midi":51,"time":479.484375,"velocity":0.3937007874015748},{"duration":0.1875,"midi":70,"time":479.484375,"velocity":0.3937007874015748},{"duration":0.1875,"midi":71,"time":479.5078125,"velocity":0.3937007874015748},{"duration":0.1875,"midi":50,"time":479.5078125,"velocity":0.3937007874015748},{"duration":0.1875,"midi":72,"time":479.53125,"velocity":0.3937007874015748},{"duration":0.1875,"midi":49,"time":479.53125,"velocity":0.3937007874015748},{"duration":0.1875,"midi":73,"time":479.5546875,"velocity":0.3937007874015748},{"duration":0.1875,"midi":48,"time":479.5546875,"velocity":0.3937007874015748},{"duration":0.1875,"midi":47,"time":479.578125,"velocity":0.3937007874015748},{"duration":0.1875,"midi":74,"time":479.578125,"velocity":0.3937007874015748},{"duration":0.1875,"midi":46,"time":479.6015625,"velocity":0.3937007874015748},{"duration":0.1875,"midi":75,"time":479.6015625,"velocity":0.3937007874015748},{"duration":0.1875,"midi":61,"time":479.625,"velocity":0.3937007874015748},{"duration":0.1875,"midi":73,"time":479.625,"velocity":0.3937007874015748},{"duration":0.1875,"midi":85,"time":479.625,"velocity":0.3937007874015748},{"duration":0.1875,"midi":49,"time":479.625,"velocity":0.3937007874015748},{"duration":0.1875,"midi":37,"time":479.625,"velocity":0.3937007874015748},{"duration":0.1875,"midi":70,"time":479.625,"velocity":0.3937007874015748},{"duration":0.1875,"midi":76,"time":479.625,"velocity":0.3937007874015748},{"duration":0.1875,"midi":82,"time":479.625,"velocity":0.3937007874015748},{"duration":0.1875,"midi":25,"time":479.625,"velocity":0.3937007874015748},{"duration":0.1875,"midi":45,"time":479.625,"velocity":0.3937007874015748},{"duration":0.1875,"midi":34,"time":479.625,"velocity":0.3937007874015748},{"duration":0.1875,"midi":46,"time":479.625,"velocity":0.3937007874015748},{"duration":0.1875,"midi":94,"time":479.625,"velocity":0.3937007874015748},{"duration":0.1875,"midi":58,"time":479.625,"velocity":0.3937007874015748},{"duration":0.1875,"midi":77,"time":479.6484375,"velocity":0.3937007874015748},{"duration":0.1875,"midi":44,"time":479.6484375,"velocity":0.3937007874015748},{"duration":0.1875,"midi":43,"time":479.671875,"velocity":0.3937007874015748},{"duration":0.1875,"midi":78,"time":479.671875,"velocity":0.3937007874015748},{"duration":0.1875,"midi":42,"time":479.6953125,"velocity":0.3937007874015748},{"duration":0.1875,"midi":79,"time":479.6953125,"velocity":0.3937007874015748},{"duration":0.1875,"midi":41,"time":479.71875,"velocity":0.3937007874015748},{"duration":0.1875,"midi":80,"time":479.71875,"velocity":0.3937007874015748},{"duration":0.1875,"midi":81,"time":479.7421875,"velocity":0.3937007874015748},{"duration":0.1875,"midi":40,"time":479.7421875,"velocity":0.3937007874015748},{"duration":0.1875,"midi":39,"time":479.765625,"velocity":0.3937007874015748},{"duration":0.1875,"midi":82,"time":479.765625,"velocity":0.3937007874015748},{"duration":0.1875,"midi":83,"time":479.7890625,"velocity":0.3937007874015748},{"duration":0.1875,"midi":38,"time":479.7890625,"velocity":0.3937007874015748},{"duration":0.1875,"midi":72,"time":479.8125,"velocity":0.3937007874015748},{"duration":0.1875,"midi":48,"time":479.8125,"velocity":0.3937007874015748},{"duration":0.1875,"midi":59,"time":479.8125,"velocity":0.3937007874015748},{"duration":0.1875,"midi":83,"time":479.8125,"velocity":0.3937007874015748},{"duration":0.1875,"midi":84,"time":479.8125,"velocity":0.3937007874015748},{"duration":0.1875,"midi":24,"time":479.8125,"velocity":0.3937007874015748},{"duration":0.1875,"midi":71,"time":479.8125,"velocity":0.3937007874015748},{"duration":0.1875,"midi":37,"time":479.8125,"velocity":0.3937007874015748},{"duration":0.1875,"midi":47,"time":479.8125,"velocity":0.3937007874015748},{"duration":0.1875,"midi":35,"time":479.8125,"velocity":0.3937007874015748},{"duration":0.1875,"midi":95,"time":479.8125,"velocity":0.3937007874015748},{"duration":0.1875,"midi":84,"time":479.8125,"velocity":0.3937007874015748},{"duration":0.1875,"midi":36,"time":479.8125,"velocity":0.3937007874015748},{"duration":0.1875,"midi":60,"time":479.8125,"velocity":0.3937007874015748},{"duration":0.1875,"midi":85,"time":479.8359375,"velocity":0.3937007874015748},{"duration":0.1875,"midi":36,"time":479.8359375,"velocity":0.3937007874015748},{"duration":0.1875,"midi":86,"time":479.859375,"velocity":0.3937007874015748},{"duration":0.1875,"midi":35,"time":479.859375,"velocity":0.3937007874015748},{"duration":0.1875,"midi":87,"time":479.8828125,"velocity":0.3937007874015748},{"duration":0.1875,"midi":34,"time":479.8828125,"velocity":0.3937007874015748},{"duration":0.1875,"midi":88,"time":479.90625,"velocity":0.3937007874015748},{"duration":0.1875,"midi":33,"time":479.90625,"velocity":0.3937007874015748},{"duration":0.1875,"midi":32,"time":479.9296875,"velocity":0.3937007874015748},{"duration":0.1875,"midi":89,"time":479.9296875,"velocity":0.3937007874015748},{"duration":0.1875,"midi":31,"time":479.953125,"velocity":0.3937007874015748},{"duration":0.1875,"midi":90,"time":479.953125,"velocity":0.3937007874015748},{"duration":0.1875,"midi":93,"time":479.9765625,"velocity":0.3937007874015748},{"duration":0.1875,"midi":30,"time":479.9765625,"velocity":0.3937007874015748},{"duration":0.1875,"midi":91,"time":479.9765625,"velocity":0.3937007874015748},{"duration":0.1875,"midi":35,"time":480,"velocity":0.3937007874015748},{"duration":0.1875,"midi":60,"time":480,"velocity":0.3937007874015748},{"duration":0.1875,"midi":95,"time":480,"velocity":0.3937007874015748},{"duration":0.1875,"midi":47,"time":480,"velocity":0.3937007874015748},{"duration":0.1875,"midi":72,"time":480,"velocity":0.3937007874015748},{"duration":0.1875,"midi":71,"time":480,"velocity":0.3937007874015748},{"duration":0.1875,"midi":24,"time":480,"velocity":0.3937007874015748},{"duration":0.1875,"midi":84,"time":480,"velocity":0.3937007874015748},{"duration":0.1875,"midi":92,"time":480,"velocity":0.3937007874015748},{"duration":0.1875,"midi":59,"time":480,"velocity":0.3937007874015748},{"duration":0.1875,"midi":48,"time":480,"velocity":0.3937007874015748},{"duration":0.1875,"midi":36,"time":480,"velocity":0.3937007874015748},{"duration":0.1875,"midi":83,"time":480,"velocity":0.3937007874015748},{"duration":0.1875,"midi":91,"time":480.046875,"velocity":0.3937007874015748},{"duration":0.1875,"midi":90,"time":480.0703125,"velocity":0.3937007874015748},{"duration":0.1875,"midi":89,"time":480.09375,"velocity":0.3937007874015748},{"duration":0.1875,"midi":88,"time":480.1171875,"velocity":0.3937007874015748},{"duration":0.1875,"midi":87,"time":480.140625,"velocity":0.3937007874015748},{"duration":0.1875,"midi":86,"time":480.1640625,"velocity":0.3937007874015748},{"duration":0.1875,"midi":58,"time":480.1875,"velocity":0.3937007874015748},{"duration":0.1875,"midi":73,"time":480.1875,"velocity":0.3937007874015748},{"duration":0.1875,"midi":34,"time":480.1875,"velocity":0.3937007874015748},{"duration":0.1875,"midi":85,"time":480.1875,"velocity":0.3937007874015748},{"duration":0.1875,"midi":85,"time":480.1875,"velocity":0.3937007874015748},{"duration":0.1875,"midi":94,"time":480.1875,"velocity":0.3937007874015748},{"duration":0.1875,"midi":37,"time":480.1875,"velocity":0.3937007874015748},{"duration":0.1875,"midi":61,"time":480.1875,"velocity":0.3937007874015748},{"duration":0.1875,"midi":46,"time":480.1875,"velocity":0.3937007874015748},{"duration":0.1875,"midi":82,"time":480.1875,"velocity":0.3937007874015748},{"duration":0.1875,"midi":25,"time":480.1875,"velocity":0.3937007874015748},{"duration":0.1875,"midi":49,"time":480.1875,"velocity":0.3937007874015748},{"duration":0.1875,"midi":70,"time":480.1875,"velocity":0.3937007874015748},{"duration":0.1875,"midi":84,"time":480.2109375,"velocity":0.3937007874015748},{"duration":0.1875,"midi":83,"time":480.234375,"velocity":0.3937007874015748},{"duration":0.1875,"midi":82,"time":480.2578125,"velocity":0.3937007874015748},{"duration":0.1875,"midi":81,"time":480.28125,"velocity":0.3937007874015748},{"duration":0.1875,"midi":80,"time":480.3046875,"velocity":0.3937007874015748},{"duration":0.1875,"midi":79,"time":480.328125,"velocity":0.3937007874015748},{"duration":0.1875,"midi":78,"time":480.3515625,"velocity":0.3937007874015748},{"duration":0.1875,"midi":93,"time":480.375,"velocity":0.3937007874015748},{"duration":0.1875,"midi":86,"time":480.375,"velocity":0.3937007874015748},{"duration":0.1875,"midi":38,"time":480.375,"velocity":0.3937007874015748},{"duration":0.1875,"midi":81,"time":480.375,"velocity":0.3937007874015748},{"duration":0.1875,"midi":57,"time":480.375,"velocity":0.3937007874015748},{"duration":0.1875,"midi":74,"time":480.375,"velocity":0.3937007874015748},{"duration":0.1875,"midi":77,"time":480.375,"velocity":0.3937007874015748},{"duration":0.1875,"midi":26,"time":480.375,"velocity":0.3937007874015748},{"duration":0.1875,"midi":50,"time":480.375,"velocity":0.3937007874015748},{"duration":0.1875,"midi":69,"time":480.375,"velocity":0.3937007874015748},{"duration":0.1875,"midi":62,"time":480.375,"velocity":0.3937007874015748},{"duration":0.1875,"midi":45,"time":480.375,"velocity":0.3937007874015748},{"duration":0.1875,"midi":33,"time":480.375,"velocity":0.3937007874015748},{"duration":0.1875,"midi":76,"time":480.3984375,"velocity":0.3937007874015748},{"duration":0.1875,"midi":75,"time":480.421875,"velocity":0.3937007874015748},{"duration":0.1875,"midi":74,"time":480.4453125,"velocity":0.3937007874015748},{"duration":0.1875,"midi":73,"time":480.46875,"velocity":0.3937007874015748},{"duration":0.1875,"midi":72,"time":480.4921875,"velocity":0.3937007874015748},{"duration":0.1875,"midi":71,"time":480.515625,"velocity":0.3937007874015748},{"duration":0.1875,"midi":70,"time":480.5390625,"velocity":0.3937007874015748},{"duration":0.1875,"midi":87,"time":480.5625,"velocity":0.3937007874015748},{"duration":0.1875,"midi":39,"time":480.5625,"velocity":0.3937007874015748},{"duration":0.1875,"midi":27,"time":480.5625,"velocity":0.3937007874015748},{"duration":0.1875,"midi":56,"time":480.5625,"velocity":0.3937007874015748},{"duration":0.1875,"midi":75,"time":480.5625,"velocity":0.3937007874015748},{"duration":0.1875,"midi":44,"time":480.5625,"velocity":0.3937007874015748},{"duration":0.1875,"midi":80,"time":480.5625,"velocity":0.3937007874015748},{"duration":0.1875,"midi":32,"time":480.5625,"velocity":0.3937007874015748},{"duration":0.1875,"midi":51,"time":480.5625,"velocity":0.3937007874015748},{"duration":0.1875,"midi":69,"time":480.5625,"velocity":0.3937007874015748},{"duration":0.1875,"midi":68,"time":480.5625,"velocity":0.3937007874015748},{"duration":0.1875,"midi":92,"time":480.5625,"velocity":0.3937007874015748},{"duration":0.1875,"midi":63,"time":480.5625,"velocity":0.3937007874015748},{"duration":0.1875,"midi":68,"time":480.5859375,"velocity":0.3937007874015748},{"duration":0.1875,"midi":67,"time":480.609375,"velocity":0.3937007874015748},{"duration":0.1875,"midi":66,"time":480.6328125,"velocity":0.3937007874015748},{"duration":0.1875,"midi":65,"time":480.65625,"velocity":0.3937007874015748},{"duration":0.1875,"midi":64,"time":480.6796875,"velocity":0.3937007874015748},{"duration":0.1875,"midi":63,"time":480.703125,"velocity":0.3937007874015748},{"duration":0.1875,"midi":62,"time":480.7265625,"velocity":0.3937007874015748},{"duration":0.1875,"midi":61,"time":480.75,"velocity":0.3937007874015748},{"duration":0.1875,"midi":67,"time":480.75,"velocity":0.3937007874015748},{"duration":0.1875,"midi":64,"time":480.75,"velocity":0.3937007874015748},{"duration":0.1875,"midi":79,"time":480.75,"velocity":0.3937007874015748},{"duration":0.1875,"midi":91,"time":480.75,"velocity":0.3937007874015748},{"duration":0.1875,"midi":52,"time":480.75,"velocity":0.3937007874015748},{"duration":0.1875,"midi":28,"time":480.75,"velocity":0.3937007874015748},{"duration":0.1875,"midi":55,"time":480.75,"velocity":0.3937007874015748},{"duration":0.1875,"midi":76,"time":480.75,"velocity":0.3937007874015748},{"duration":0.1875,"midi":88,"time":480.75,"velocity":0.3937007874015748},{"duration":0.1875,"midi":43,"time":480.75,"velocity":0.3937007874015748},{"duration":0.1875,"midi":40,"time":480.75,"velocity":0.3937007874015748},{"duration":0.1875,"midi":31,"time":480.75,"velocity":0.3937007874015748},{"duration":0.1875,"midi":60,"time":480.7734375,"velocity":0.3937007874015748},{"duration":0.1875,"midi":59,"time":480.796875,"velocity":0.3937007874015748},{"duration":0.1875,"midi":58,"time":480.8203125,"velocity":0.3937007874015748},{"duration":0.1875,"midi":57,"time":480.84375,"velocity":0.3937007874015748},{"duration":0.1875,"midi":56,"time":480.8671875,"velocity":0.3937007874015748},{"duration":0.1875,"midi":55,"time":480.890625,"velocity":0.3937007874015748},{"duration":0.1875,"midi":54,"time":480.9140625,"velocity":0.3937007874015748},{"duration":0.1875,"midi":77,"time":480.9375,"velocity":0.3937007874015748},{"duration":0.1875,"midi":65,"time":480.9375,"velocity":0.3937007874015748},{"duration":0.1875,"midi":53,"time":480.9375,"velocity":0.3937007874015748},{"duration":0.1875,"midi":42,"time":480.9375,"velocity":0.3937007874015748},{"duration":0.1875,"midi":41,"time":480.9375,"velocity":0.3937007874015748},{"duration":0.1875,"midi":30,"time":480.9375,"velocity":0.3937007874015748},{"duration":0.1875,"midi":53,"time":480.9375,"velocity":0.3937007874015748},{"duration":0.1875,"midi":54,"time":480.9375,"velocity":0.3937007874015748},{"duration":0.1875,"midi":66,"time":480.9375,"velocity":0.3937007874015748},{"duration":0.1875,"midi":90,"time":480.9375,"velocity":0.3937007874015748},{"duration":0.1875,"midi":89,"time":480.9375,"velocity":0.3937007874015748},{"duration":0.1875,"midi":78,"time":480.9375,"velocity":0.3937007874015748},{"duration":0.1875,"midi":29,"time":480.9375,"velocity":0.3937007874015748},{"duration":0.1875,"midi":52,"time":480.9609375,"velocity":0.3937007874015748},{"duration":0.1875,"midi":51,"time":480.984375,"velocity":0.3937007874015748},{"duration":0.1875,"midi":50,"time":481.0078125,"velocity":0.3937007874015748},{"duration":0.1875,"midi":49,"time":481.03125,"velocity":0.3937007874015748},{"duration":0.1875,"midi":48,"time":481.0546875,"velocity":0.3937007874015748},{"duration":0.1875,"midi":47,"time":481.078125,"velocity":0.3937007874015748},{"duration":0.1875,"midi":46,"time":481.1015625,"velocity":0.3937007874015748},{"duration":0.1875,"midi":77,"time":481.125,"velocity":0.3937007874015748},{"duration":0.1875,"midi":66,"time":481.125,"velocity":0.3937007874015748},{"duration":0.1875,"midi":53,"time":481.125,"velocity":0.3937007874015748},{"duration":0.1875,"midi":78,"time":481.125,"velocity":0.3937007874015748},{"duration":0.1875,"midi":41,"time":481.125,"velocity":0.3937007874015748},{"duration":0.1875,"midi":54,"time":481.125,"velocity":0.3937007874015748},{"duration":0.1875,"midi":65,"time":481.125,"velocity":0.3937007874015748},{"duration":0.1875,"midi":89,"time":481.125,"velocity":0.3937007874015748},{"duration":0.1875,"midi":42,"time":481.125,"velocity":0.3937007874015748},{"duration":0.1875,"midi":90,"time":481.125,"velocity":0.3937007874015748},{"duration":0.1875,"midi":30,"time":481.125,"velocity":0.3937007874015748},{"duration":0.1875,"midi":45,"time":481.125,"velocity":0.3937007874015748},{"duration":0.1875,"midi":29,"time":481.125,"velocity":0.3937007874015748},{"duration":0.1875,"midi":44,"time":481.1484375,"velocity":0.3937007874015748},{"duration":0.1875,"midi":43,"time":481.171875,"velocity":0.3937007874015748},{"duration":0.1875,"midi":42,"time":481.1953125,"velocity":0.3937007874015748},{"duration":0.1875,"midi":41,"time":481.21875,"velocity":0.3937007874015748},{"duration":0.1875,"midi":40,"time":481.2421875,"velocity":0.3937007874015748},{"duration":0.1875,"midi":39,"time":481.265625,"velocity":0.3937007874015748},{"duration":0.1875,"midi":38,"time":481.2890625,"velocity":0.3937007874015748},{"duration":0.1875,"midi":40,"time":481.3125,"velocity":0.3937007874015748},{"duration":0.1875,"midi":43,"time":481.3125,"velocity":0.3937007874015748},{"duration":0.1875,"midi":91,"time":481.3125,"velocity":0.3937007874015748},{"duration":0.1875,"midi":55,"time":481.3125,"velocity":0.3937007874015748},{"duration":0.1875,"midi":28,"time":481.3125,"velocity":0.3937007874015748},{"duration":0.1875,"midi":64,"time":481.3125,"velocity":0.3937007874015748},{"duration":0.1875,"midi":37,"time":481.3125,"velocity":0.3937007874015748},{"duration":0.1875,"midi":31,"time":481.3125,"velocity":0.3937007874015748},{"duration":0.1875,"midi":79,"time":481.3125,"velocity":0.3937007874015748},{"duration":0.1875,"midi":67,"time":481.3125,"velocity":0.3937007874015748},{"duration":0.1875,"midi":76,"time":481.3125,"velocity":0.3937007874015748},{"duration":0.1875,"midi":88,"time":481.3125,"velocity":0.3937007874015748},{"duration":0.1875,"midi":52,"time":481.3125,"velocity":0.3937007874015748},{"duration":0.1875,"midi":36,"time":481.3359375,"velocity":0.3937007874015748},{"duration":0.1875,"midi":35,"time":481.359375,"velocity":0.3937007874015748},{"duration":0.1875,"midi":34,"time":481.3828125,"velocity":0.3937007874015748},{"duration":0.1875,"midi":33,"time":481.40625,"velocity":0.3937007874015748},{"duration":0.1875,"midi":32,"time":481.4296875,"velocity":0.3937007874015748},{"duration":0.1875,"midi":31,"time":481.453125,"velocity":0.3937007874015748},{"duration":0.1875,"midi":30,"time":481.4765625,"velocity":0.3937007874015748},{"duration":0.1875,"midi":39,"time":481.5,"velocity":0.3937007874015748},{"duration":0.1875,"midi":63,"time":481.5,"velocity":0.3937007874015748},{"duration":0.1875,"midi":56,"time":481.5,"velocity":0.3937007874015748},{"duration":0.1875,"midi":32,"time":481.5,"velocity":0.3937007874015748},{"duration":0.1875,"midi":87,"time":481.5,"velocity":0.3937007874015748},{"duration":0.1875,"midi":75,"time":481.5,"velocity":0.3937007874015748},{"duration":0.1875,"midi":80,"time":481.5,"velocity":0.3937007874015748},{"duration":0.1875,"midi":44,"time":481.5,"velocity":0.3937007874015748},{"duration":0.1875,"midi":68,"time":481.5,"velocity":0.3937007874015748},{"duration":0.1875,"midi":27,"time":481.5,"velocity":0.3937007874015748},{"duration":0.1875,"midi":51,"time":481.5,"velocity":0.3937007874015748},{"duration":0.1875,"midi":93,"time":481.5,"velocity":0.3937007874015748},{"duration":0.1875,"midi":92,"time":481.5,"velocity":0.3937007874015748},{"duration":0.1875,"midi":92,"time":481.5234375,"velocity":0.3937007874015748},{"duration":0.1875,"midi":91,"time":481.5703125,"velocity":0.3937007874015748},{"duration":0.1875,"midi":90,"time":481.59375,"velocity":0.3937007874015748},{"duration":0.1875,"midi":89,"time":481.6171875,"velocity":0.3937007874015748},{"duration":0.1875,"midi":88,"time":481.640625,"velocity":0.3937007874015748},{"duration":0.1875,"midi":87,"time":481.6640625,"velocity":0.3937007874015748},{"duration":0.1875,"midi":57,"time":481.6875,"velocity":0.3937007874015748},{"duration":0.1875,"midi":69,"time":481.6875,"velocity":0.3937007874015748},{"duration":0.1875,"midi":45,"time":481.6875,"velocity":0.3937007874015748},{"duration":0.1875,"midi":93,"time":481.6875,"velocity":0.3937007874015748},{"duration":0.1875,"midi":74,"time":481.6875,"velocity":0.3937007874015748},{"duration":0.1875,"midi":26,"time":481.6875,"velocity":0.3937007874015748},{"duration":0.1875,"midi":50,"time":481.6875,"velocity":0.3937007874015748},{"duration":0.1875,"midi":33,"time":481.6875,"velocity":0.3937007874015748},{"duration":0.1875,"midi":81,"time":481.6875,"velocity":0.3937007874015748},{"duration":0.1875,"midi":38,"time":481.6875,"velocity":0.3937007874015748},{"duration":0.1875,"midi":86,"time":481.6875,"velocity":0.3937007874015748},{"duration":0.1875,"midi":86,"time":481.6875,"velocity":0.3937007874015748},{"duration":0.1875,"midi":62,"time":481.6875,"velocity":0.3937007874015748},{"duration":0.1875,"midi":85,"time":481.7109375,"velocity":0.3937007874015748},{"duration":0.1875,"midi":84,"time":481.734375,"velocity":0.3937007874015748},{"duration":0.1875,"midi":83,"time":481.7578125,"velocity":0.3937007874015748},{"duration":0.1875,"midi":82,"time":481.78125,"velocity":0.3937007874015748},{"duration":0.1875,"midi":81,"time":481.8046875,"velocity":0.3937007874015748},{"duration":0.1875,"midi":80,"time":481.828125,"velocity":0.3937007874015748},{"duration":0.1875,"midi":79,"time":481.8515625,"velocity":0.3937007874015748},{"duration":0.1875,"midi":61,"time":481.875,"velocity":0.3937007874015748},{"duration":0.1875,"midi":73,"time":481.875,"velocity":0.3937007874015748},{"duration":0.1875,"midi":46,"time":481.875,"velocity":0.3937007874015748},{"duration":0.1875,"midi":82,"time":481.875,"velocity":0.3937007874015748},{"duration":0.1875,"midi":70,"time":481.875,"velocity":0.3937007874015748},{"duration":0.1875,"midi":58,"time":481.875,"velocity":0.3937007874015748},{"duration":0.1875,"midi":94,"time":481.875,"velocity":0.3937007874015748},{"duration":0.1875,"midi":37,"time":481.875,"velocity":0.3937007874015748},{"duration":0.1875,"midi":85,"time":481.875,"velocity":0.3937007874015748},{"duration":0.1875,"midi":25,"time":481.875,"velocity":0.3937007874015748},{"duration":0.1875,"midi":78,"time":481.875,"velocity":0.3937007874015748},{"duration":0.1875,"midi":49,"time":481.875,"velocity":0.3937007874015748},{"duration":0.1875,"midi":34,"time":481.875,"velocity":0.3937007874015748},{"duration":0.1875,"midi":77,"time":481.8984375,"velocity":0.3937007874015748},{"duration":0.1875,"midi":76,"time":481.921875,"velocity":0.3937007874015748},{"duration":0.1875,"midi":75,"time":481.9453125,"velocity":0.3937007874015748},{"duration":0.1875,"midi":74,"time":481.96875,"velocity":0.3937007874015748},{"duration":0.1875,"midi":73,"time":481.9921875,"velocity":0.3937007874015748},{"duration":0.1875,"midi":72,"time":482.015625,"velocity":0.3937007874015748},{"duration":0.1875,"midi":71,"time":482.0390625,"velocity":0.3937007874015748},{"duration":0.1875,"midi":36,"time":482.0625,"velocity":0.3937007874015748},{"duration":0.1875,"midi":48,"time":482.0625,"velocity":0.3937007874015748},{"duration":0.1875,"midi":24,"time":482.0625,"velocity":0.3937007874015748},{"duration":0.1875,"midi":83,"time":482.0625,"velocity":0.3937007874015748},{"duration":0.1875,"midi":71,"time":482.0625,"velocity":0.3937007874015748},{"duration":0.1875,"midi":47,"time":482.0625,"velocity":0.3937007874015748},{"duration":0.1875,"midi":84,"time":482.0625,"velocity":0.3937007874015748},{"duration":0.1875,"midi":60,"time":482.0625,"velocity":0.3937007874015748},{"duration":0.1875,"midi":35,"time":482.0625,"velocity":0.3937007874015748},{"duration":0.1875,"midi":95,"time":482.0625,"velocity":0.3937007874015748},{"duration":0.1875,"midi":70,"time":482.0625,"velocity":0.3937007874015748},{"duration":0.1875,"midi":59,"time":482.0625,"velocity":0.3937007874015748},{"duration":0.1875,"midi":72,"time":482.0625,"velocity":0.3937007874015748},{"duration":0.1875,"midi":69,"time":482.0859375,"velocity":0.3937007874015748},{"duration":0.1875,"midi":68,"time":482.109375,"velocity":0.3937007874015748},{"duration":0.1875,"midi":67,"time":482.1328125,"velocity":0.3937007874015748},{"duration":0.1875,"midi":66,"time":482.15625,"velocity":0.3937007874015748},{"duration":0.1875,"midi":65,"time":482.1796875,"velocity":0.3937007874015748},{"duration":0.1875,"midi":64,"time":482.203125,"velocity":0.3937007874015748},{"duration":0.1875,"midi":63,"time":482.2265625,"velocity":0.3937007874015748},{"duration":0.1875,"midi":62,"time":482.25,"velocity":0.3937007874015748},{"duration":0.1875,"midi":60,"time":482.25,"velocity":0.3937007874015748},{"duration":0.1875,"midi":36,"time":482.25,"velocity":0.3937007874015748},{"duration":0.1875,"midi":95,"time":482.25,"velocity":0.3937007874015748},{"duration":0.1875,"midi":24,"time":482.25,"velocity":0.3937007874015748},{"duration":0.1875,"midi":59,"time":482.25,"velocity":0.3937007874015748},{"duration":0.1875,"midi":84,"time":482.25,"velocity":0.3937007874015748},{"duration":0.1875,"midi":72,"time":482.25,"velocity":0.3937007874015748},{"duration":0.1875,"midi":35,"time":482.25,"velocity":0.3937007874015748},{"duration":0.1875,"midi":71,"time":482.25,"velocity":0.3937007874015748},{"duration":0.1875,"midi":47,"time":482.25,"velocity":0.3937007874015748},{"duration":0.1875,"midi":83,"time":482.25,"velocity":0.3937007874015748},{"duration":0.1875,"midi":48,"time":482.25,"velocity":0.3937007874015748},{"duration":0.1875,"midi":61,"time":482.2734375,"velocity":0.3937007874015748},{"duration":0.1875,"midi":60,"time":482.296875,"velocity":0.3937007874015748},{"duration":0.1875,"midi":59,"time":482.3203125,"velocity":0.3937007874015748},{"duration":0.1875,"midi":58,"time":482.34375,"velocity":0.3937007874015748},{"duration":0.1875,"midi":57,"time":482.3671875,"velocity":0.3937007874015748},{"duration":0.1875,"midi":56,"time":482.390625,"velocity":0.3937007874015748},{"duration":0.1875,"midi":55,"time":482.4140625,"velocity":0.3937007874015748},{"duration":0.1875,"midi":94,"time":482.4375,"velocity":0.3937007874015748},{"duration":0.1875,"midi":54,"time":482.4375,"velocity":0.3937007874015748},{"duration":0.1875,"midi":58,"time":482.4375,"velocity":0.3937007874015748},{"duration":0.1875,"midi":82,"time":482.4375,"velocity":0.3937007874015748},{"duration":0.1875,"midi":85,"time":482.4375,"velocity":0.3937007874015748},{"duration":0.1875,"midi":37,"time":482.4375,"velocity":0.3937007874015748},{"duration":0.1875,"midi":61,"time":482.4375,"velocity":0.3937007874015748},{"duration":0.1875,"midi":70,"time":482.4375,"velocity":0.3937007874015748},{"duration":0.1875,"midi":49,"time":482.4375,"velocity":0.3937007874015748},{"duration":0.1875,"midi":25,"time":482.4375,"velocity":0.3937007874015748},{"duration":0.1875,"midi":34,"time":482.4375,"velocity":0.3937007874015748},{"duration":0.1875,"midi":73,"time":482.4375,"velocity":0.3937007874015748},{"duration":0.1875,"midi":46,"time":482.4375,"velocity":0.3937007874015748},{"duration":0.1875,"midi":53,"time":482.4609375,"velocity":0.3937007874015748},{"duration":0.1875,"midi":52,"time":482.484375,"velocity":0.3937007874015748},{"duration":0.1875,"midi":51,"time":482.5078125,"velocity":0.3937007874015748},{"duration":0.1875,"midi":50,"time":482.53125,"velocity":0.3937007874015748},{"duration":0.1875,"midi":49,"time":482.5546875,"velocity":0.3937007874015748},{"duration":0.1875,"midi":48,"time":482.578125,"velocity":0.3937007874015748},{"duration":0.1875,"midi":47,"time":482.6015625,"velocity":0.3937007874015748},{"duration":0.1875,"midi":26,"time":482.625,"velocity":0.3937007874015748},{"duration":0.1875,"midi":62,"time":482.625,"velocity":0.3937007874015748},{"duration":0.1875,"midi":74,"time":482.625,"velocity":0.3937007874015748},{"duration":0.1875,"midi":38,"time":482.625,"velocity":0.3937007874015748},{"duration":0.1875,"midi":93,"time":482.625,"velocity":0.3937007874015748},{"duration":0.1875,"midi":86,"time":482.625,"velocity":0.3937007874015748},{"duration":0.1875,"midi":46,"time":482.625,"velocity":0.3937007874015748},{"duration":0.1875,"midi":81,"time":482.625,"velocity":0.3937007874015748},{"duration":0.1875,"midi":57,"time":482.625,"velocity":0.3937007874015748},{"duration":0.1875,"midi":33,"time":482.625,"velocity":0.3937007874015748},{"duration":0.1875,"midi":50,"time":482.625,"velocity":0.3937007874015748},{"duration":0.1875,"midi":45,"time":482.625,"velocity":0.3937007874015748},{"duration":0.1875,"midi":69,"time":482.625,"velocity":0.3937007874015748},{"duration":0.1875,"midi":45,"time":482.6484375,"velocity":0.3937007874015748},{"duration":0.1875,"midi":44,"time":482.671875,"velocity":0.3937007874015748},{"duration":0.1875,"midi":43,"time":482.6953125,"velocity":0.3937007874015748},{"duration":0.1875,"midi":42,"time":482.71875,"velocity":0.3937007874015748},{"duration":0.1875,"midi":41,"time":482.7421875,"velocity":0.3937007874015748},{"duration":0.1875,"midi":40,"time":482.765625,"velocity":0.3937007874015748},{"duration":0.1875,"midi":39,"time":482.7890625,"velocity":0.3937007874015748},{"duration":0.1875,"midi":80,"time":482.8125,"velocity":0.3937007874015748},{"duration":0.1875,"midi":56,"time":482.8125,"velocity":0.3937007874015748},{"duration":0.1875,"midi":51,"time":482.8125,"velocity":0.3937007874015748},{"duration":0.1875,"midi":44,"time":482.8125,"velocity":0.3937007874015748},{"duration":0.1875,"midi":63,"time":482.8125,"velocity":0.3937007874015748},{"duration":0.1875,"midi":92,"time":482.8125,"velocity":0.3937007874015748},{"duration":0.1875,"midi":87,"time":482.8125,"velocity":0.3937007874015748},{"duration":0.1875,"midi":68,"time":482.8125,"velocity":0.3937007874015748},{"duration":0.1875,"midi":75,"time":482.8125,"velocity":0.3937007874015748},{"duration":0.1875,"midi":39,"time":482.8125,"velocity":0.3937007874015748},{"duration":0.1875,"midi":38,"time":482.8125,"velocity":0.3937007874015748},{"duration":0.1875,"midi":32,"time":482.8125,"velocity":0.3937007874015748},{"duration":0.1875,"midi":27,"time":482.8125,"velocity":0.3937007874015748},{"duration":0.1875,"midi":37,"time":482.8359375,"velocity":0.3937007874015748},{"duration":0.1875,"midi":36,"time":482.859375,"velocity":0.3937007874015748},{"duration":0.1875,"midi":35,"time":482.8828125,"velocity":0.3937007874015748},{"duration":0.1875,"midi":34,"time":482.90625,"velocity":0.3937007874015748},{"duration":0.1875,"midi":33,"time":482.9296875,"velocity":0.3937007874015748},{"duration":0.1875,"midi":32,"time":482.953125,"velocity":0.3937007874015748},{"duration":0.1875,"midi":31,"time":482.9765625,"velocity":0.3937007874015748},{"duration":0.1875,"midi":91,"time":483,"velocity":0.3937007874015748},{"duration":0.1875,"midi":67,"time":483,"velocity":0.3937007874015748},{"duration":0.1875,"midi":52,"time":483,"velocity":0.3937007874015748},{"duration":0.1875,"midi":55,"time":483,"velocity":0.3937007874015748},{"duration":0.1875,"midi":93,"time":483,"velocity":0.3937007874015748},{"duration":0.1875,"midi":79,"time":483,"velocity":0.3937007874015748},{"duration":0.1875,"midi":28,"time":483,"velocity":0.3937007874015748},{"duration":0.1875,"midi":43,"time":483,"velocity":0.3937007874015748},{"duration":0.1875,"midi":40,"time":483,"velocity":0.3937007874015748},{"duration":0.1875,"midi":30,"time":483,"velocity":0.3937007874015748},{"duration":0.1875,"midi":88,"time":483,"velocity":0.3937007874015748},{"duration":0.1875,"midi":31,"time":483,"velocity":0.3937007874015748},{"duration":0.1875,"midi":76,"time":483,"velocity":0.3937007874015748},{"duration":0.1875,"midi":64,"time":483,"velocity":0.3937007874015748},{"duration":0.1875,"midi":92,"time":483.0234375,"velocity":0.3937007874015748},{"duration":0.1875,"midi":91,"time":483.0703125,"velocity":0.3937007874015748},{"duration":0.1875,"midi":90,"time":483.09375,"velocity":0.3937007874015748},{"duration":0.1875,"midi":89,"time":483.1171875,"velocity":0.3937007874015748},{"duration":0.1875,"midi":88,"time":483.140625,"velocity":0.3937007874015748},{"duration":0.1875,"midi":87,"time":483.1640625,"velocity":0.3937007874015748},{"duration":0.1875,"midi":41,"time":483.1875,"velocity":0.3937007874015748},{"duration":0.1875,"midi":30,"time":483.1875,"velocity":0.3937007874015748},{"duration":0.1875,"midi":54,"time":483.1875,"velocity":0.3937007874015748},{"duration":0.1875,"midi":90,"time":483.1875,"velocity":0.3937007874015748},{"duration":0.1875,"midi":89,"time":483.1875,"velocity":0.3937007874015748},{"duration":0.1875,"midi":65,"time":483.1875,"velocity":0.3937007874015748},{"duration":0.1875,"midi":78,"time":483.1875,"velocity":0.3937007874015748},{"duration":0.1875,"midi":42,"time":483.1875,"velocity":0.3937007874015748},{"duration":0.1875,"midi":53,"time":483.1875,"velocity":0.3937007874015748},{"duration":0.1875,"midi":66,"time":483.1875,"velocity":0.3937007874015748},{"duration":0.1875,"midi":29,"time":483.1875,"velocity":0.3937007874015748},{"duration":0.1875,"midi":77,"time":483.1875,"velocity":0.3937007874015748},{"duration":0.1875,"midi":86,"time":483.1875,"velocity":0.3937007874015748},{"duration":0.1875,"midi":85,"time":483.2109375,"velocity":0.3937007874015748},{"duration":0.1875,"midi":84,"time":483.234375,"velocity":0.3937007874015748},{"duration":0.1875,"midi":83,"time":483.2578125,"velocity":0.3937007874015748},{"duration":0.1875,"midi":82,"time":483.28125,"velocity":0.3937007874015748},{"duration":0.1875,"midi":81,"time":483.3046875,"velocity":0.3937007874015748},{"duration":0.1875,"midi":80,"time":483.328125,"velocity":0.3937007874015748},{"duration":0.1875,"midi":79,"time":483.3515625,"velocity":0.3937007874015748},{"duration":0.1875,"midi":41,"time":483.375,"velocity":0.3937007874015748},{"duration":0.1875,"midi":90,"time":483.375,"velocity":0.3937007874015748},{"duration":0.1875,"midi":29,"time":483.375,"velocity":0.3937007874015748},{"duration":0.1875,"midi":89,"time":483.375,"velocity":0.3937007874015748},{"duration":0.1875,"midi":42,"time":483.375,"velocity":0.3937007874015748},{"duration":0.1875,"midi":77,"time":483.375,"velocity":0.3937007874015748},{"duration":0.1875,"midi":53,"time":483.375,"velocity":0.3937007874015748},{"duration":0.1875,"midi":30,"time":483.375,"velocity":0.3937007874015748},{"duration":0.1875,"midi":66,"time":483.375,"velocity":0.3937007874015748},{"duration":0.1875,"midi":54,"time":483.375,"velocity":0.3937007874015748},{"duration":0.1875,"midi":78,"time":483.375,"velocity":0.3937007874015748},{"duration":0.1875,"midi":78,"time":483.375,"velocity":0.3937007874015748},{"duration":0.1875,"midi":65,"time":483.375,"velocity":0.3937007874015748},{"duration":0.1875,"midi":77,"time":483.3984375,"velocity":0.3937007874015748},{"duration":0.1875,"midi":76,"time":483.421875,"velocity":0.3937007874015748},{"duration":0.1875,"midi":75,"time":483.4453125,"velocity":0.3937007874015748},{"duration":0.1875,"midi":74,"time":483.46875,"velocity":0.3937007874015748},{"duration":0.1875,"midi":73,"time":483.4921875,"velocity":0.3937007874015748},{"duration":0.1875,"midi":72,"time":483.515625,"velocity":0.3937007874015748},{"duration":0.1875,"midi":71,"time":483.5390625,"velocity":0.3937007874015748},{"duration":0.1875,"midi":70,"time":483.5625,"velocity":0.3937007874015748},{"duration":0.1875,"midi":88,"time":483.5625,"velocity":0.3937007874015748},{"duration":0.1875,"midi":31,"time":483.5625,"velocity":0.3937007874015748},{"duration":0.1875,"midi":40,"time":483.5625,"velocity":0.3937007874015748},{"duration":0.1875,"midi":64,"time":483.5625,"velocity":0.3937007874015748},{"duration":0.1875,"midi":28,"time":483.5625,"velocity":0.3937007874015748},{"duration":0.1875,"midi":43,"time":483.5625,"velocity":0.3937007874015748},{"duration":0.1875,"midi":52,"time":483.5625,"velocity":0.3937007874015748},{"duration":0.1875,"midi":55,"time":483.5625,"velocity":0.3937007874015748},{"duration":0.1875,"midi":79,"time":483.5625,"velocity":0.3937007874015748},{"duration":0.1875,"midi":76,"time":483.5625,"velocity":0.3937007874015748},{"duration":0.1875,"midi":67,"time":483.5625,"velocity":0.3937007874015748},{"duration":0.1875,"midi":91,"time":483.5625,"velocity":0.3937007874015748},{"duration":0.1875,"midi":69,"time":483.5859375,"velocity":0.3937007874015748},{"duration":0.1875,"midi":68,"time":483.609375,"velocity":0.3937007874015748},{"duration":0.1875,"midi":67,"time":483.6328125,"velocity":0.3937007874015748},{"duration":0.1875,"midi":66,"time":483.65625,"velocity":0.3937007874015748},{"duration":0.1875,"midi":65,"time":483.6796875,"velocity":0.3937007874015748},{"duration":0.1875,"midi":64,"time":483.703125,"velocity":0.3937007874015748},{"duration":0.1875,"midi":63,"time":483.7265625,"velocity":0.3937007874015748},{"duration":0.1875,"midi":44,"time":483.75,"velocity":0.3937007874015748},{"duration":0.1875,"midi":75,"time":483.75,"velocity":0.3937007874015748},{"duration":0.1875,"midi":63,"time":483.75,"velocity":0.3937007874015748},{"duration":0.1875,"midi":51,"time":483.75,"velocity":0.3937007874015748},{"duration":0.1875,"midi":56,"time":483.75,"velocity":0.3937007874015748},{"duration":0.1875,"midi":39,"time":483.75,"velocity":0.3937007874015748},{"duration":0.1875,"midi":62,"time":483.75,"velocity":0.3937007874015748},{"duration":0.1875,"midi":80,"time":483.75,"velocity":0.3937007874015748},{"duration":0.1875,"midi":27,"time":483.75,"velocity":0.3937007874015748},{"duration":0.1875,"midi":32,"time":483.75,"velocity":0.3937007874015748},{"duration":0.1875,"midi":68,"time":483.75,"velocity":0.3937007874015748},{"duration":0.1875,"midi":92,"time":483.75,"velocity":0.3937007874015748},{"duration":0.1875,"midi":87,"time":483.75,"velocity":0.3937007874015748},{"duration":0.1875,"midi":61,"time":483.7734375,"velocity":0.3937007874015748},{"duration":0.1875,"midi":60,"time":483.796875,"velocity":0.3937007874015748},{"duration":0.1875,"midi":59,"time":483.8203125,"velocity":0.3937007874015748},{"duration":0.1875,"midi":58,"time":483.84375,"velocity":0.3937007874015748},{"duration":0.1875,"midi":57,"time":483.8671875,"velocity":0.3937007874015748},{"duration":0.1875,"midi":56,"time":483.890625,"velocity":0.3937007874015748},{"duration":0.1875,"midi":55,"time":483.9140625,"velocity":0.3937007874015748},{"duration":0.1875,"midi":45,"time":483.9375,"velocity":0.3937007874015748},{"duration":0.1875,"midi":26,"time":483.9375,"velocity":0.3937007874015748},{"duration":0.1875,"midi":62,"time":483.9375,"velocity":0.3937007874015748},{"duration":0.1875,"midi":38,"time":483.9375,"velocity":0.3937007874015748},{"duration":0.1875,"midi":74,"time":483.9375,"velocity":0.3937007874015748},{"duration":0.1875,"midi":50,"time":483.9375,"velocity":0.3937007874015748},{"duration":0.1875,"midi":93,"time":483.9375,"velocity":0.3937007874015748},{"duration":0.1875,"midi":54,"time":483.9375,"velocity":0.3937007874015748},{"duration":0.1875,"midi":69,"time":483.9375,"velocity":0.3937007874015748},{"duration":0.1875,"midi":33,"time":483.9375,"velocity":0.3937007874015748},{"duration":0.1875,"midi":57,"time":483.9375,"velocity":0.3937007874015748},{"duration":0.1875,"midi":86,"time":483.9375,"velocity":0.3937007874015748},{"duration":0.1875,"midi":81,"time":483.9375,"velocity":0.3937007874015748},{"duration":0.1875,"midi":53,"time":483.9609375,"velocity":0.3937007874015748},{"duration":0.1875,"midi":52,"time":483.984375,"velocity":0.3937007874015748},{"duration":0.1875,"midi":51,"time":484.0078125,"velocity":0.3937007874015748},{"duration":0.1875,"midi":50,"time":484.03125,"velocity":0.3937007874015748},{"duration":0.1875,"midi":49,"time":484.0546875,"velocity":0.3937007874015748},{"duration":0.1875,"midi":48,"time":484.078125,"velocity":0.3937007874015748},{"duration":0.1875,"midi":47,"time":484.1015625,"velocity":0.3937007874015748},{"duration":0.1875,"midi":70,"time":484.125,"velocity":0.3937007874015748},{"duration":0.1875,"midi":49,"time":484.125,"velocity":0.3937007874015748},{"duration":0.1875,"midi":37,"time":484.125,"velocity":0.3937007874015748},{"duration":0.1875,"midi":85,"time":484.125,"velocity":0.3937007874015748},{"duration":0.1875,"midi":73,"time":484.125,"velocity":0.3937007874015748},{"duration":0.1875,"midi":61,"time":484.125,"velocity":0.3937007874015748},{"duration":0.1875,"midi":46,"time":484.125,"velocity":0.3937007874015748},{"duration":0.1875,"midi":34,"time":484.125,"velocity":0.3937007874015748},{"duration":0.1875,"midi":46,"time":484.125,"velocity":0.3937007874015748},{"duration":0.1875,"midi":82,"time":484.125,"velocity":0.3937007874015748},{"duration":0.1875,"midi":25,"time":484.125,"velocity":0.3937007874015748},{"duration":0.1875,"midi":58,"time":484.125,"velocity":0.3937007874015748},{"duration":0.1875,"midi":94,"time":484.125,"velocity":0.3937007874015748},{"duration":0.1875,"midi":45,"time":484.1484375,"velocity":0.3937007874015748},{"duration":0.1875,"midi":44,"time":484.171875,"velocity":0.3937007874015748},{"duration":0.1875,"midi":43,"time":484.1953125,"velocity":0.3937007874015748},{"duration":0.1875,"midi":42,"time":484.21875,"velocity":0.3937007874015748},{"duration":0.1875,"midi":41,"time":484.2421875,"velocity":0.3937007874015748},{"duration":0.1875,"midi":40,"time":484.265625,"velocity":0.3937007874015748},{"duration":0.1875,"midi":39,"time":484.2890625,"velocity":0.3937007874015748},{"duration":0.1875,"midi":47,"time":484.3125,"velocity":0.3937007874015748},{"duration":0.1875,"midi":36,"time":484.3125,"velocity":0.3937007874015748},{"duration":0.1875,"midi":72,"time":484.3125,"velocity":0.3937007874015748},{"duration":0.1875,"midi":59,"time":484.3125,"velocity":0.3937007874015748},{"duration":0.1875,"midi":60,"time":484.3125,"velocity":0.3937007874015748},{"duration":0.1875,"midi":48,"time":484.3125,"velocity":0.3937007874015748},{"duration":0.1875,"midi":84,"time":484.3125,"velocity":0.3937007874015748},{"duration":0.1875,"midi":38,"time":484.3125,"velocity":0.3937007874015748},{"duration":0.1875,"midi":24,"time":484.3125,"velocity":0.3937007874015748},{"duration":0.1875,"midi":35,"time":484.3125,"velocity":0.3937007874015748},{"duration":0.1875,"midi":71,"time":484.3125,"velocity":0.3937007874015748},{"duration":0.1875,"midi":83,"time":484.3125,"velocity":0.3937007874015748},{"duration":0.1875,"midi":95,"time":484.3125,"velocity":0.3937007874015748},{"duration":0.1875,"midi":37,"time":484.3359375,"velocity":0.3937007874015748},{"duration":0.1875,"midi":36,"time":484.359375,"velocity":0.3937007874015748},{"duration":0.1875,"midi":35,"time":484.3828125,"velocity":0.3937007874015748},{"duration":0.1875,"midi":34,"time":484.40625,"velocity":0.3937007874015748},{"duration":0.1875,"midi":33,"time":484.4296875,"velocity":0.3937007874015748},{"duration":0.1875,"midi":32,"time":484.453125,"velocity":0.3937007874015748},{"duration":0.1875,"midi":31,"time":484.4765625,"velocity":0.3937007874015748},{"duration":0.1875,"midi":83,"time":484.5,"velocity":0.3937007874015748},{"duration":0.1875,"midi":71,"time":484.5,"velocity":0.3937007874015748},{"duration":0.1875,"midi":24,"time":484.5,"velocity":0.3937007874015748},{"duration":0.1875,"midi":95,"time":484.5,"velocity":0.3937007874015748},{"duration":0.1875,"midi":60,"time":484.5,"velocity":0.3937007874015748},{"duration":0.1875,"midi":47,"time":484.5,"velocity":0.3937007874015748},{"duration":0.1875,"midi":72,"time":484.5,"velocity":0.3937007874015748},{"duration":0.1875,"midi":84,"time":484.5,"velocity":0.3937007874015748},{"duration":0.1875,"midi":48,"time":484.5,"velocity":0.3937007874015748},{"duration":0.1875,"midi":30,"time":484.5,"velocity":0.3937007874015748},{"duration":0.1875,"midi":35,"time":484.5,"velocity":0.3937007874015748},{"duration":0.1875,"midi":93,"time":484.5,"velocity":0.3937007874015748},{"duration":0.1875,"midi":59,"time":484.5,"velocity":0.3937007874015748},{"duration":0.1875,"midi":36,"time":484.5,"velocity":0.3937007874015748},{"duration":0.1875,"midi":92,"time":484.5234375,"velocity":0.3937007874015748},{"duration":0.1875,"midi":91,"time":484.5703125,"velocity":0.3937007874015748},{"duration":0.1875,"midi":90,"time":484.59375,"velocity":0.3937007874015748},{"duration":0.1875,"midi":89,"time":484.6171875,"velocity":0.3937007874015748},{"duration":0.1875,"midi":88,"time":484.640625,"velocity":0.3937007874015748},{"duration":0.1875,"midi":87,"time":484.6640625,"velocity":0.3937007874015748},{"duration":0.1875,"midi":37,"time":484.6875,"velocity":0.3937007874015748},{"duration":0.1875,"midi":82,"time":484.6875,"velocity":0.3937007874015748},{"duration":0.1875,"midi":58,"time":484.6875,"velocity":0.3937007874015748},{"duration":0.1875,"midi":34,"time":484.6875,"velocity":0.3937007874015748},{"duration":0.1875,"midi":61,"time":484.6875,"velocity":0.3937007874015748},{"duration":0.1875,"midi":46,"time":484.6875,"velocity":0.3937007874015748},{"duration":0.1875,"midi":73,"time":484.6875,"velocity":0.3937007874015748},{"duration":0.1875,"midi":49,"time":484.6875,"velocity":0.3937007874015748},{"duration":0.1875,"midi":86,"time":484.6875,"velocity":0.3937007874015748},{"duration":0.1875,"midi":85,"time":484.6875,"velocity":0.3937007874015748},{"duration":0.1875,"midi":94,"time":484.6875,"velocity":0.3937007874015748},{"duration":0.1875,"midi":70,"time":484.6875,"velocity":0.3937007874015748},{"duration":0.1875,"midi":25,"time":484.6875,"velocity":0.3937007874015748},{"duration":0.1875,"midi":85,"time":484.7109375,"velocity":0.3937007874015748},{"duration":0.1875,"midi":84,"time":484.734375,"velocity":0.3937007874015748},{"duration":0.1875,"midi":83,"time":484.7578125,"velocity":0.3937007874015748},{"duration":0.1875,"midi":82,"time":484.78125,"velocity":0.3937007874015748},{"duration":0.1875,"midi":81,"time":484.8046875,"velocity":0.3937007874015748},{"duration":0.1875,"midi":80,"time":484.828125,"velocity":0.3937007874015748},{"duration":0.1875,"midi":79,"time":484.8515625,"velocity":0.3937007874015748},{"duration":0.1875,"midi":45,"time":484.875,"velocity":0.3937007874015748},{"duration":0.1875,"midi":74,"time":484.875,"velocity":0.3937007874015748},{"duration":0.1875,"midi":33,"time":484.875,"velocity":0.3937007874015748},{"duration":0.1875,"midi":57,"time":484.875,"velocity":0.3937007874015748},{"duration":0.1875,"midi":81,"time":484.875,"velocity":0.3937007874015748},{"duration":0.1875,"midi":26,"time":484.875,"velocity":0.3937007874015748},{"duration":0.1875,"midi":62,"time":484.875,"velocity":0.3937007874015748},{"duration":0.1875,"midi":78,"time":484.875,"velocity":0.3937007874015748},{"duration":0.1875,"midi":93,"time":484.875,"velocity":0.3937007874015748},{"duration":0.1875,"midi":50,"time":484.875,"velocity":0.3937007874015748},{"duration":0.1875,"midi":38,"time":484.875,"velocity":0.3937007874015748},{"duration":0.1875,"midi":86,"time":484.875,"velocity":0.3937007874015748},{"duration":0.1875,"midi":69,"time":484.875,"velocity":0.3937007874015748},{"duration":0.1875,"midi":77,"time":484.8984375,"velocity":0.3937007874015748},{"duration":0.1875,"midi":76,"time":484.921875,"velocity":0.3937007874015748},{"duration":0.1875,"midi":75,"time":484.9453125,"velocity":0.3937007874015748},{"duration":0.1875,"midi":74,"time":484.96875,"velocity":0.3937007874015748},{"duration":0.1875,"midi":73,"time":484.9921875,"velocity":0.3937007874015748},{"duration":0.1875,"midi":72,"time":485.015625,"velocity":0.3937007874015748},{"duration":0.1875,"midi":71,"time":485.0390625,"velocity":0.3937007874015748},{"duration":0.1875,"midi":68,"time":485.0625,"velocity":0.3937007874015748},{"duration":0.1875,"midi":70,"time":485.0625,"velocity":0.3937007874015748},{"duration":0.1875,"midi":44,"time":485.0625,"velocity":0.3937007874015748},{"duration":0.1875,"midi":27,"time":485.0625,"velocity":0.3937007874015748},{"duration":0.1875,"midi":87,"time":485.0625,"velocity":0.3937007874015748},{"duration":0.1875,"midi":39,"time":485.0625,"velocity":0.3937007874015748},{"duration":0.1875,"midi":92,"time":485.0625,"velocity":0.3937007874015748},{"duration":0.1875,"midi":32,"time":485.0625,"velocity":0.3937007874015748},{"duration":0.1875,"midi":80,"time":485.0625,"velocity":0.3937007874015748},{"duration":0.1875,"midi":51,"time":485.0625,"velocity":0.3937007874015748},{"duration":0.1875,"midi":56,"time":485.0625,"velocity":0.3937007874015748},{"duration":0.1875,"midi":75,"time":485.0625,"velocity":0.3937007874015748},{"duration":0.1875,"midi":63,"time":485.0625,"velocity":0.3937007874015748},{"duration":0.1875,"midi":69,"time":485.0859375,"velocity":0.3937007874015748},{"duration":0.1875,"midi":68,"time":485.109375,"velocity":0.3937007874015748},{"duration":0.1875,"midi":67,"time":485.1328125,"velocity":0.3937007874015748},{"duration":0.1875,"midi":66,"time":485.15625,"velocity":0.3937007874015748},{"duration":0.1875,"midi":65,"time":485.1796875,"velocity":0.3937007874015748},{"duration":0.1875,"midi":64,"time":485.203125,"velocity":0.3937007874015748},{"duration":0.1875,"midi":63,"time":485.2265625,"velocity":0.3937007874015748},{"duration":0.1875,"midi":64,"time":485.25,"velocity":0.3937007874015748},{"duration":0.1875,"midi":52,"time":485.25,"velocity":0.3937007874015748},{"duration":0.1875,"midi":88,"time":485.25,"velocity":0.3937007874015748},{"duration":0.1875,"midi":43,"time":485.25,"velocity":0.3937007874015748},{"duration":0.1875,"midi":67,"time":485.25,"velocity":0.3937007874015748},{"duration":0.1875,"midi":62,"time":485.25,"velocity":0.3937007874015748},{"duration":0.1875,"midi":55,"time":485.25,"velocity":0.3937007874015748},{"duration":0.1875,"midi":79,"time":485.25,"velocity":0.3937007874015748},{"duration":0.1875,"midi":76,"time":485.25,"velocity":0.3937007874015748},{"duration":0.1875,"midi":40,"time":485.25,"velocity":0.3937007874015748},{"duration":0.1875,"midi":31,"time":485.25,"velocity":0.3937007874015748},{"duration":0.1875,"midi":91,"time":485.25,"velocity":0.3937007874015748},{"duration":0.1875,"midi":28,"time":485.25,"velocity":0.3937007874015748},{"duration":0.1875,"midi":61,"time":485.2734375,"velocity":0.3937007874015748},{"duration":0.1875,"midi":60,"time":485.296875,"velocity":0.3937007874015748},{"duration":0.1875,"midi":59,"time":485.3203125,"velocity":0.3937007874015748},{"duration":0.1875,"midi":58,"time":485.34375,"velocity":0.3937007874015748},{"duration":0.1875,"midi":57,"time":485.3671875,"velocity":0.3937007874015748},{"duration":0.1875,"midi":56,"time":485.390625,"velocity":0.3937007874015748},{"duration":0.1875,"midi":55,"time":485.4140625,"velocity":0.3937007874015748},{"duration":0.1875,"midi":66,"time":485.4375,"velocity":0.3937007874015748},{"duration":0.1875,"midi":90,"time":485.4375,"velocity":0.3937007874015748},{"duration":0.1875,"midi":41,"time":485.4375,"velocity":0.3937007874015748},{"duration":0.1875,"midi":42,"time":485.4375,"velocity":0.3937007874015748},{"duration":0.1875,"midi":29,"time":485.4375,"velocity":0.3937007874015748},{"duration":0.1875,"midi":65,"time":485.4375,"velocity":0.3937007874015748},{"duration":0.1875,"midi":78,"time":485.4375,"velocity":0.3937007874015748},{"duration":0.1875,"midi":54,"time":485.4375,"velocity":0.3937007874015748},{"duration":0.1875,"midi":77,"time":485.4375,"velocity":0.3937007874015748},{"duration":0.1875,"midi":30,"time":485.4375,"velocity":0.3937007874015748},{"duration":0.1875,"midi":89,"time":485.4375,"velocity":0.3937007874015748},{"duration":0.1875,"midi":54,"time":485.4375,"velocity":0.3937007874015748},{"duration":0.1875,"midi":53,"time":485.4375,"velocity":0.3937007874015748},{"duration":0.1875,"midi":53,"time":485.4609375,"velocity":0.3937007874015748},{"duration":0.1875,"midi":52,"time":485.484375,"velocity":0.3937007874015748},{"duration":0.1875,"midi":51,"time":485.5078125,"velocity":0.3937007874015748},{"duration":0.1875,"midi":50,"time":485.53125,"velocity":0.3937007874015748},{"duration":0.1875,"midi":49,"time":485.5546875,"velocity":0.3937007874015748},{"duration":0.1875,"midi":48,"time":485.578125,"velocity":0.3937007874015748},{"duration":0.1875,"midi":47,"time":485.6015625,"velocity":0.3937007874015748},{"duration":0.1875,"midi":46,"time":485.625,"velocity":0.3937007874015748},{"duration":0.1875,"midi":89,"time":485.625,"velocity":0.3937007874015748},{"duration":0.1875,"midi":54,"time":485.625,"velocity":0.3937007874015748},{"duration":0.1875,"midi":42,"time":485.625,"velocity":0.3937007874015748},{"duration":0.1875,"midi":30,"time":485.625,"velocity":0.3937007874015748},{"duration":0.1875,"midi":65,"time":485.625,"velocity":0.3937007874015748},{"duration":0.1875,"midi":29,"time":485.625,"velocity":0.3937007874015748},{"duration":0.1875,"midi":53,"time":485.625,"velocity":0.3937007874015748},{"duration":0.1875,"midi":77,"time":485.625,"velocity":0.3937007874015748},{"duration":0.1875,"midi":41,"time":485.625,"velocity":0.3937007874015748},{"duration":0.1875,"midi":66,"time":485.625,"velocity":0.3937007874015748},{"duration":0.1875,"midi":78,"time":485.625,"velocity":0.3937007874015748},{"duration":0.1875,"midi":90,"time":485.625,"velocity":0.3937007874015748},{"duration":0.1875,"midi":45,"time":485.6484375,"velocity":0.3937007874015748},{"duration":0.1875,"midi":44,"time":485.671875,"velocity":0.3937007874015748},{"duration":0.1875,"midi":43,"time":485.6953125,"velocity":0.3937007874015748},{"duration":0.1875,"midi":42,"time":485.71875,"velocity":0.3937007874015748},{"duration":0.1875,"midi":41,"time":485.7421875,"velocity":0.3937007874015748},{"duration":0.1875,"midi":40,"time":485.765625,"velocity":0.3937007874015748},{"duration":0.1875,"midi":39,"time":485.7890625,"velocity":0.3937007874015748},{"duration":0.1875,"midi":38,"time":485.8125,"velocity":0.3937007874015748},{"duration":0.1875,"midi":67,"time":485.8125,"velocity":0.3937007874015748},{"duration":0.1875,"midi":31,"time":485.8125,"velocity":0.3937007874015748},{"duration":0.1875,"midi":55,"time":485.8125,"velocity":0.3937007874015748},{"duration":0.1875,"midi":91,"time":485.8125,"velocity":0.3937007874015748},{"duration":0.1875,"midi":79,"time":485.8125,"velocity":0.3937007874015748},{"duration":0.1875,"midi":88,"time":485.8125,"velocity":0.3937007874015748},{"duration":0.1875,"midi":76,"time":485.8125,"velocity":0.3937007874015748},{"duration":0.1875,"midi":28,"time":485.8125,"velocity":0.3937007874015748},{"duration":0.1875,"midi":52,"time":485.8125,"velocity":0.3937007874015748},{"duration":0.1875,"midi":64,"time":485.8125,"velocity":0.3937007874015748},{"duration":0.1875,"midi":43,"time":485.8125,"velocity":0.3937007874015748},{"duration":0.1875,"midi":40,"time":485.8125,"velocity":0.3937007874015748},{"duration":0.1875,"midi":37,"time":485.8359375,"velocity":0.3937007874015748},{"duration":0.1875,"midi":36,"time":485.859375,"velocity":0.3937007874015748},{"duration":0.1875,"midi":35,"time":485.8828125,"velocity":0.3937007874015748},{"duration":0.1875,"midi":34,"time":485.90625,"velocity":0.3937007874015748},{"duration":0.1875,"midi":33,"time":485.9296875,"velocity":0.3937007874015748},{"duration":0.1875,"midi":32,"time":485.953125,"velocity":0.3937007874015748},{"duration":0.1875,"midi":31,"time":485.9765625,"velocity":0.3937007874015748},{"duration":0.1875,"midi":56,"time":486,"velocity":0.3937007874015748},{"duration":0.1875,"midi":68,"time":486,"velocity":0.3937007874015748},{"duration":0.1875,"midi":80,"time":486,"velocity":0.3937007874015748},{"duration":0.1875,"midi":92,"time":486,"velocity":0.3937007874015748},{"duration":0.1875,"midi":32,"time":486,"velocity":0.3937007874015748},{"duration":0.1875,"midi":75,"time":486,"velocity":0.3937007874015748},{"duration":0.1875,"midi":63,"time":486,"velocity":0.3937007874015748},{"duration":0.1875,"midi":30,"time":486,"velocity":0.3937007874015748},{"duration":0.1875,"midi":93,"time":486,"velocity":0.3937007874015748},{"duration":0.1875,"midi":27,"time":486,"velocity":0.3937007874015748},{"duration":0.1875,"midi":87,"time":486,"velocity":0.3937007874015748},{"duration":0.1875,"midi":44,"time":486,"velocity":0.3937007874015748},{"duration":0.1875,"midi":51,"time":486,"velocity":0.3937007874015748},{"duration":0.1875,"midi":39,"time":486,"velocity":0.3937007874015748},{"duration":0.1875,"midi":92,"time":486.0234375,"velocity":0.3937007874015748},{"duration":0.1875,"midi":91,"time":486.0703125,"velocity":0.3937007874015748},{"duration":0.1875,"midi":90,"time":486.09375,"velocity":0.3937007874015748},{"duration":0.1875,"midi":89,"time":486.1171875,"velocity":0.3937007874015748},{"duration":0.1875,"midi":88,"time":486.140625,"velocity":0.3937007874015748},{"duration":0.1875,"midi":87,"time":486.1640625,"velocity":0.3937007874015748},{"duration":0.1875,"midi":26,"time":486.1875,"velocity":0.3937007874015748},{"duration":0.1875,"midi":33,"time":486.1875,"velocity":0.3937007874015748},{"duration":0.1875,"midi":74,"time":486.1875,"velocity":0.3937007874015748},{"duration":0.1875,"midi":81,"time":486.1875,"velocity":0.3937007874015748},{"duration":0.1875,"midi":86,"time":486.1875,"velocity":0.3937007874015748},{"duration":0.1875,"midi":62,"time":486.1875,"velocity":0.3937007874015748},{"duration":0.1875,"midi":57,"time":486.1875,"velocity":0.3937007874015748},{"duration":0.1875,"midi":38,"time":486.1875,"velocity":0.3937007874015748},{"duration":0.1875,"midi":50,"time":486.1875,"velocity":0.3937007874015748},{"duration":0.1875,"midi":93,"time":486.1875,"velocity":0.3937007874015748},{"duration":0.1875,"midi":69,"time":486.1875,"velocity":0.3937007874015748},{"duration":0.1875,"midi":45,"time":486.1875,"velocity":0.3937007874015748},{"duration":0.1875,"midi":86,"time":486.1875,"velocity":0.3937007874015748},{"duration":0.1875,"midi":85,"time":486.2109375,"velocity":0.3937007874015748},{"duration":0.1875,"midi":84,"time":486.234375,"velocity":0.3937007874015748},{"duration":0.1875,"midi":83,"time":486.2578125,"velocity":0.3937007874015748},{"duration":0.1875,"midi":82,"time":486.28125,"velocity":0.3937007874015748},{"duration":0.1875,"midi":81,"time":486.3046875,"velocity":0.3937007874015748},{"duration":0.1875,"midi":80,"time":486.328125,"velocity":0.3937007874015748},{"duration":0.1875,"midi":79,"time":486.3515625,"velocity":0.3937007874015748},{"duration":0.1875,"midi":78,"time":486.375,"velocity":0.3937007874015748},{"duration":0.1875,"midi":58,"time":486.375,"velocity":0.3937007874015748},{"duration":0.1875,"midi":46,"time":486.375,"velocity":0.3937007874015748},{"duration":0.1875,"midi":34,"time":486.375,"velocity":0.3937007874015748},{"duration":0.1875,"midi":94,"time":486.375,"velocity":0.3937007874015748},{"duration":0.1875,"midi":70,"time":486.375,"velocity":0.3937007874015748},{"duration":0.1875,"midi":25,"time":486.375,"velocity":0.3937007874015748},{"duration":0.1875,"midi":61,"time":486.375,"velocity":0.3937007874015748},{"duration":0.1875,"midi":85,"time":486.375,"velocity":0.3937007874015748},{"duration":0.1875,"midi":49,"time":486.375,"velocity":0.3937007874015748},{"duration":0.1875,"midi":37,"time":486.375,"velocity":0.3937007874015748},{"duration":0.1875,"midi":82,"time":486.375,"velocity":0.3937007874015748},{"duration":0.1875,"midi":73,"time":486.375,"velocity":0.3937007874015748},{"duration":0.1875,"midi":77,"time":486.3984375,"velocity":0.3937007874015748},{"duration":0.1875,"midi":76,"time":486.421875,"velocity":0.3937007874015748},{"duration":0.1875,"midi":75,"time":486.4453125,"velocity":0.3937007874015748},{"duration":0.1875,"midi":74,"time":486.46875,"velocity":0.3937007874015748},{"duration":0.1875,"midi":73,"time":486.4921875,"velocity":0.3937007874015748},{"duration":0.1875,"midi":72,"time":486.515625,"velocity":0.3937007874015748},{"duration":0.1875,"midi":71,"time":486.5390625,"velocity":0.3937007874015748},{"duration":0.1875,"midi":84,"time":486.5625,"velocity":0.3937007874015748},{"duration":0.1875,"midi":35,"time":486.5625,"velocity":0.3937007874015748},{"duration":0.1875,"midi":36,"time":486.5625,"velocity":0.3937007874015748},{"duration":0.1875,"midi":24,"time":486.5625,"velocity":0.3937007874015748},{"duration":0.1875,"midi":70,"time":486.5625,"velocity":0.3937007874015748},{"duration":0.1875,"midi":83,"time":486.5625,"velocity":0.3937007874015748},{"duration":0.1875,"midi":47,"time":486.5625,"velocity":0.3937007874015748},{"duration":0.1875,"midi":48,"time":486.5625,"velocity":0.3937007874015748},{"duration":0.1875,"midi":71,"time":486.5625,"velocity":0.3937007874015748},{"duration":0.1875,"midi":59,"time":486.5625,"velocity":0.3937007874015748},{"duration":0.1875,"midi":95,"time":486.5625,"velocity":0.3937007874015748},{"duration":0.1875,"midi":60,"time":486.5625,"velocity":0.3937007874015748},{"duration":0.1875,"midi":72,"time":486.5625,"velocity":0.3937007874015748},{"duration":0.1875,"midi":69,"time":486.5859375,"velocity":0.3937007874015748},{"duration":0.1875,"midi":68,"time":486.609375,"velocity":0.3937007874015748},{"duration":0.1875,"midi":67,"time":486.6328125,"velocity":0.3937007874015748},{"duration":0.1875,"midi":66,"time":486.65625,"velocity":0.3937007874015748},{"duration":0.1875,"midi":65,"time":486.6796875,"velocity":0.3937007874015748},{"duration":0.1875,"midi":64,"time":486.703125,"velocity":0.3937007874015748},{"duration":0.1875,"midi":63,"time":486.7265625,"velocity":0.3937007874015748},{"duration":0.1875,"midi":83,"time":486.75,"velocity":0.3937007874015748},{"duration":0.1875,"midi":62,"time":486.75,"velocity":0.3937007874015748},{"duration":0.1875,"midi":59,"time":486.75,"velocity":0.3937007874015748},{"duration":0.1875,"midi":48,"time":486.75,"velocity":0.3937007874015748},{"duration":0.1875,"midi":47,"time":486.75,"velocity":0.3937007874015748},{"duration":0.1875,"midi":84,"time":486.75,"velocity":0.3937007874015748},{"duration":0.1875,"midi":24,"time":486.75,"velocity":0.3937007874015748},{"duration":0.1875,"midi":60,"time":486.75,"velocity":0.3937007874015748},{"duration":0.1875,"midi":71,"time":486.75,"velocity":0.3937007874015748},{"duration":0.1875,"midi":72,"time":486.75,"velocity":0.3937007874015748},{"duration":0.1875,"midi":35,"time":486.75,"velocity":0.3937007874015748},{"duration":0.1875,"midi":36,"time":486.75,"velocity":0.3937007874015748},{"duration":0.1875,"midi":95,"time":486.75,"velocity":0.3937007874015748},{"duration":0.1875,"midi":61,"time":486.7734375,"velocity":0.3937007874015748},{"duration":0.1875,"midi":60,"time":486.796875,"velocity":0.3937007874015748},{"duration":0.1875,"midi":59,"time":486.8203125,"velocity":0.3937007874015748},{"duration":0.1875,"midi":58,"time":486.84375,"velocity":0.3937007874015748},{"duration":0.1875,"midi":57,"time":486.8671875,"velocity":0.3937007874015748},{"duration":0.1875,"midi":56,"time":486.890625,"velocity":0.3937007874015748},{"duration":0.1875,"midi":55,"time":486.9140625,"velocity":0.3937007874015748},{"duration":0.1875,"midi":85,"time":486.9375,"velocity":0.3937007874015748},{"duration":0.1875,"midi":82,"time":486.9375,"velocity":0.3937007874015748},{"duration":0.1875,"midi":49,"time":486.9375,"velocity":0.3937007874015748},{"duration":0.1875,"midi":73,"time":486.9375,"velocity":0.3937007874015748},{"duration":0.1875,"midi":61,"time":486.9375,"velocity":0.3937007874015748},{"duration":0.1875,"midi":70,"time":486.9375,"velocity":0.3937007874015748},{"duration":0.1875,"midi":58,"time":486.9375,"velocity":0.3937007874015748},{"duration":0.1875,"midi":94,"time":486.9375,"velocity":0.3937007874015748},{"duration":0.1875,"midi":37,"time":486.9375,"velocity":0.3937007874015748},{"duration":0.1875,"midi":46,"time":486.9375,"velocity":0.3937007874015748},{"duration":0.1875,"midi":25,"time":486.9375,"velocity":0.3937007874015748},{"duration":0.1875,"midi":54,"time":486.9375,"velocity":0.3937007874015748},{"duration":0.1875,"midi":34,"time":486.9375,"velocity":0.3937007874015748},{"duration":0.1875,"midi":53,"time":486.9609375,"velocity":0.3937007874015748},{"duration":0.1875,"midi":52,"time":486.984375,"velocity":0.3937007874015748},{"duration":0.1875,"midi":51,"time":487.0078125,"velocity":0.3937007874015748},{"duration":0.1875,"midi":50,"time":487.03125,"velocity":0.3937007874015748},{"duration":0.1875,"midi":49,"time":487.0546875,"velocity":0.3937007874015748},{"duration":0.1875,"midi":48,"time":487.078125,"velocity":0.3937007874015748},{"duration":0.1875,"midi":47,"time":487.1015625,"velocity":0.3937007874015748},{"duration":0.1875,"midi":38,"time":487.125,"velocity":0.3937007874015748},{"duration":0.1875,"midi":93,"time":487.125,"velocity":0.3937007874015748},{"duration":0.1875,"midi":69,"time":487.125,"velocity":0.3937007874015748},{"duration":0.1875,"midi":62,"time":487.125,"velocity":0.3937007874015748},{"duration":0.1875,"midi":46,"time":487.125,"velocity":0.3937007874015748},{"duration":0.1875,"midi":50,"time":487.125,"velocity":0.3937007874015748},{"duration":0.1875,"midi":57,"time":487.125,"velocity":0.3937007874015748},{"duration":0.1875,"midi":74,"time":487.125,"velocity":0.3937007874015748},{"duration":0.1875,"midi":33,"time":487.125,"velocity":0.3937007874015748},{"duration":0.1875,"midi":81,"time":487.125,"velocity":0.3937007874015748},{"duration":0.1875,"midi":86,"time":487.125,"velocity":0.3937007874015748},{"duration":0.1875,"midi":26,"time":487.125,"velocity":0.3937007874015748},{"duration":0.1875,"midi":45,"time":487.125,"velocity":0.3937007874015748},{"duration":0.1875,"midi":45,"time":487.1484375,"velocity":0.3937007874015748},{"duration":0.1875,"midi":44,"time":487.171875,"velocity":0.3937007874015748},{"duration":0.1875,"midi":43,"time":487.1953125,"velocity":0.3937007874015748},{"duration":0.1875,"midi":42,"time":487.21875,"velocity":0.3937007874015748},{"duration":0.1875,"midi":41,"time":487.2421875,"velocity":0.3937007874015748},{"duration":0.1875,"midi":40,"time":487.265625,"velocity":0.3937007874015748},{"duration":0.1875,"midi":39,"time":487.2890625,"velocity":0.3937007874015748},{"duration":0.1875,"midi":51,"time":487.3125,"velocity":0.3937007874015748},{"duration":0.1875,"midi":80,"time":487.3125,"velocity":0.3937007874015748},{"duration":0.1875,"midi":87,"time":487.3125,"velocity":0.3937007874015748},{"duration":0.1875,"midi":68,"time":487.3125,"velocity":0.3937007874015748},{"duration":0.1875,"midi":32,"time":487.3125,"velocity":0.3937007874015748},{"duration":0.1875,"midi":38,"time":487.3125,"velocity":0.3937007874015748},{"duration":0.1875,"midi":27,"time":487.3125,"velocity":0.3937007874015748},{"duration":0.1875,"midi":75,"time":487.3125,"velocity":0.3937007874015748},{"duration":0.1875,"midi":39,"time":487.3125,"velocity":0.3937007874015748},{"duration":0.1875,"midi":92,"time":487.3125,"velocity":0.3937007874015748},{"duration":0.1875,"midi":56,"time":487.3125,"velocity":0.3937007874015748},{"duration":0.1875,"midi":63,"time":487.3125,"velocity":0.3937007874015748},{"duration":0.1875,"midi":44,"time":487.3125,"velocity":0.3937007874015748},{"duration":0.1875,"midi":37,"time":487.3359375,"velocity":0.3937007874015748},{"duration":0.1875,"midi":36,"time":487.359375,"velocity":0.3937007874015748},{"duration":0.1875,"midi":35,"time":487.3828125,"velocity":0.3937007874015748},{"duration":0.1875,"midi":34,"time":487.40625,"velocity":0.3937007874015748},{"duration":0.1875,"midi":33,"time":487.4296875,"velocity":0.3937007874015748},{"duration":0.1875,"midi":32,"time":487.453125,"velocity":0.3937007874015748},{"duration":0.1875,"midi":31,"time":487.4765625,"velocity":0.3937007874015748},{"duration":0.1875,"midi":79,"time":487.5,"velocity":0.3937007874015748},{"duration":0.1875,"midi":93,"time":487.5,"velocity":0.3937007874015748},{"duration":0.1875,"midi":31,"time":487.5,"velocity":0.3937007874015748},{"duration":0.1875,"midi":76,"time":487.5,"velocity":0.3937007874015748},{"duration":0.1875,"midi":30,"time":487.5,"velocity":0.3937007874015748},{"duration":0.1875,"midi":28,"time":487.5,"velocity":0.3937007874015748},{"duration":0.1875,"midi":55,"time":487.5,"velocity":0.3937007874015748},{"duration":0.1875,"midi":40,"time":487.5,"velocity":0.3937007874015748},{"duration":0.1875,"midi":43,"time":487.5,"velocity":0.3937007874015748},{"duration":0.1875,"midi":88,"time":487.5,"velocity":0.3937007874015748},{"duration":0.1875,"midi":64,"time":487.5,"velocity":0.3937007874015748},{"duration":0.1875,"midi":52,"time":487.5,"velocity":0.3937007874015748},{"duration":0.1875,"midi":67,"time":487.5,"velocity":0.3937007874015748},{"duration":0.1875,"midi":91,"time":487.5,"velocity":0.3937007874015748},{"duration":0.1875,"midi":92,"time":487.5234375,"velocity":0.3937007874015748},{"duration":0.1875,"midi":91,"time":487.5703125,"velocity":0.3937007874015748},{"duration":0.1875,"midi":90,"time":487.59375,"velocity":0.3937007874015748},{"duration":0.1875,"midi":89,"time":487.6171875,"velocity":0.3937007874015748},{"duration":0.1875,"midi":88,"time":487.640625,"velocity":0.3937007874015748},{"duration":0.1875,"midi":87,"time":487.6640625,"velocity":0.3937007874015748},{"duration":0.1875,"midi":65,"time":487.6875,"velocity":0.3937007874015748},{"duration":0.1875,"midi":54,"time":487.6875,"velocity":0.3937007874015748},{"duration":0.1875,"midi":78,"time":487.6875,"velocity":0.3937007874015748},{"duration":0.1875,"midi":90,"time":487.6875,"velocity":0.3937007874015748},{"duration":0.1875,"midi":29,"time":487.6875,"velocity":0.3937007874015748},{"duration":0.1875,"midi":89,"time":487.6875,"velocity":0.3937007874015748},{"duration":0.1875,"midi":30,"time":487.6875,"velocity":0.3937007874015748},{"duration":0.1875,"midi":66,"time":487.6875,"velocity":0.3937007874015748},{"duration":0.1875,"midi":77,"time":487.6875,"velocity":0.3937007874015748},{"duration":0.1875,"midi":53,"time":487.6875,"velocity":0.3937007874015748},{"duration":0.1875,"midi":86,"time":487.6875,"velocity":0.3937007874015748},{"duration":0.1875,"midi":42,"time":487.6875,"velocity":0.3937007874015748},{"duration":0.1875,"midi":41,"time":487.6875,"velocity":0.3937007874015748},{"duration":0.1875,"midi":85,"time":487.7109375,"velocity":0.3937007874015748},{"duration":0.1875,"midi":84,"time":487.734375,"velocity":0.3937007874015748},{"duration":0.1875,"midi":83,"time":487.7578125,"velocity":0.3937007874015748},{"duration":0.1875,"midi":82,"time":487.78125,"velocity":0.3937007874015748},{"duration":0.1875,"midi":81,"time":487.8046875,"velocity":0.3937007874015748},{"duration":0.1875,"midi":80,"time":487.828125,"velocity":0.3937007874015748},{"duration":0.1875,"midi":79,"time":487.8515625,"velocity":0.3937007874015748},{"duration":0.1875,"midi":78,"time":487.875,"velocity":0.3937007874015748},{"duration":0.1875,"midi":30,"time":487.875,"velocity":0.3937007874015748},{"duration":0.1875,"midi":66,"time":487.875,"velocity":0.3937007874015748},{"duration":0.1875,"midi":65,"time":487.875,"velocity":0.3937007874015748},{"duration":0.1875,"midi":53,"time":487.875,"velocity":0.3937007874015748},{"duration":0.1875,"midi":41,"time":487.875,"velocity":0.3937007874015748},{"duration":0.1875,"midi":54,"time":487.875,"velocity":0.3937007874015748},{"duration":0.1875,"midi":77,"time":487.875,"velocity":0.3937007874015748},{"duration":0.1875,"midi":89,"time":487.875,"velocity":0.3937007874015748},{"duration":0.1875,"midi":42,"time":487.875,"velocity":0.3937007874015748},{"duration":0.1875,"midi":78,"time":487.875,"velocity":0.3937007874015748},{"duration":0.1875,"midi":90,"time":487.875,"velocity":0.3937007874015748},{"duration":0.1875,"midi":29,"time":487.875,"velocity":0.3937007874015748},{"duration":0.1875,"midi":77,"time":487.8984375,"velocity":0.3937007874015748},{"duration":0.1875,"midi":76,"time":487.921875,"velocity":0.3937007874015748},{"duration":0.1875,"midi":75,"time":487.9453125,"velocity":0.3937007874015748},{"duration":0.1875,"midi":74,"time":487.96875,"velocity":0.3937007874015748},{"duration":0.1875,"midi":73,"time":487.9921875,"velocity":0.3937007874015748},{"duration":0.1875,"midi":72,"time":488.015625,"velocity":0.3937007874015748},{"duration":0.1875,"midi":71,"time":488.0390625,"velocity":0.3937007874015748},{"duration":0.1875,"midi":79,"time":488.0625,"velocity":0.3937007874015748},{"duration":0.1875,"midi":64,"time":488.0625,"velocity":0.3937007874015748},{"duration":0.1875,"midi":67,"time":488.0625,"velocity":0.3937007874015748},{"duration":0.1875,"midi":70,"time":488.0625,"velocity":0.3937007874015748},{"duration":0.1875,"midi":43,"time":488.0625,"velocity":0.3937007874015748},{"duration":0.1875,"midi":28,"time":488.0625,"velocity":0.3937007874015748},{"duration":0.1875,"midi":76,"time":488.0625,"velocity":0.3937007874015748},{"duration":0.1875,"midi":40,"time":488.0625,"velocity":0.3937007874015748},{"duration":0.1875,"midi":55,"time":488.0625,"velocity":0.3937007874015748},{"duration":0.1875,"midi":91,"time":488.0625,"velocity":0.3937007874015748},{"duration":0.1875,"midi":88,"time":488.0625,"velocity":0.3937007874015748},{"duration":0.1875,"midi":52,"time":488.0625,"velocity":0.3937007874015748},{"duration":0.1875,"midi":31,"time":488.0625,"velocity":0.3937007874015748},{"duration":0.1875,"midi":69,"time":488.0859375,"velocity":0.3937007874015748},{"duration":0.1875,"midi":68,"time":488.109375,"velocity":0.3937007874015748},{"duration":0.1875,"midi":67,"time":488.1328125,"velocity":0.3937007874015748},{"duration":0.1875,"midi":66,"time":488.15625,"velocity":0.3937007874015748},{"duration":0.1875,"midi":65,"time":488.1796875,"velocity":0.3937007874015748},{"duration":0.1875,"midi":64,"time":488.203125,"velocity":0.3937007874015748},{"duration":0.1875,"midi":63,"time":488.2265625,"velocity":0.3937007874015748},{"duration":0.375,"midi":67,"time":488.25,"velocity":0.3937007874015748},{"duration":0.375,"midi":95,"time":488.25,"velocity":0.3937007874015748},{"duration":0.375,"midi":42,"time":488.25,"velocity":0.3937007874015748},{"duration":0.375,"midi":48,"time":488.25,"velocity":0.3937007874015748},{"duration":0.375,"midi":45,"time":488.25,"velocity":0.3937007874015748},{"duration":0.375,"midi":70,"time":488.25,"velocity":0.3937007874015748},{"duration":0.375,"midi":82,"time":488.25,"velocity":0.3937007874015748},{"duration":0.1875,"midi":75,"time":488.25,"velocity":0.3937007874015748},{"duration":0.1875,"midi":68,"time":488.25,"velocity":0.3937007874015748},{"duration":0.1875,"midi":62,"time":488.25,"velocity":0.3937007874015748},{"duration":0.375,"midi":29,"time":488.25,"velocity":0.3937007874015748},{"duration":0.375,"midi":41,"time":488.25,"velocity":0.3937007874015748},{"duration":0.1875,"midi":44,"time":488.25,"velocity":0.3937007874015748},{"duration":0.375,"midi":25,"time":488.25,"velocity":0.3937007874015748},{"duration":0.375,"midi":35,"time":488.25,"velocity":0.3937007874015748},{"duration":0.375,"midi":88,"time":488.25,"velocity":0.3937007874015748},{"duration":0.1875,"midi":87,"time":488.25,"velocity":0.3937007874015748},{"duration":0.375,"midi":47,"time":488.25,"velocity":0.3937007874015748},{"duration":0.1875,"midi":51,"time":488.25,"velocity":0.3937007874015748},{"duration":0.375,"midi":28,"time":488.25,"velocity":0.3937007874015748},{"duration":0.3515625,"midi":55,"time":488.25,"velocity":0.3937007874015748},{"duration":0.375,"midi":50,"time":488.25,"velocity":0.3937007874015748},{"duration":0.375,"midi":33,"time":488.25,"velocity":0.3937007874015748},{"duration":0.375,"midi":44,"time":488.25,"velocity":0.3937007874015748},{"duration":0.375,"midi":74,"time":488.25,"velocity":0.3937007874015748},{"duration":0.1875,"midi":27,"time":488.25,"velocity":0.3937007874015748},{"duration":0.375,"midi":46,"time":488.25,"velocity":0.3937007874015748},{"duration":0.375,"midi":31,"time":488.25,"velocity":0.3937007874015748},{"duration":0.375,"midi":78,"time":488.25,"velocity":0.3937007874015748},{"duration":0.375,"midi":34,"time":488.25,"velocity":0.3937007874015748},{"duration":0.375,"midi":79,"time":488.25,"velocity":0.3937007874015748},{"duration":0.375,"midi":51,"time":488.25,"velocity":0.3937007874015748},{"duration":0.375,"midi":66,"time":488.25,"velocity":0.3937007874015748},{"duration":0.1875,"midi":80,"time":488.25,"velocity":0.3937007874015748},{"duration":0.375,"midi":86,"time":488.25,"velocity":0.3937007874015748},{"duration":0.1875,"midi":32,"time":488.25,"velocity":0.3937007874015748},{"duration":0.1875,"midi":92,"time":488.25,"velocity":0.3937007874015748},{"duration":0.1875,"midi":63,"time":488.25,"velocity":0.3937007874015748},{"duration":0.375,"midi":76,"time":488.25,"velocity":0.3937007874015748},{"duration":0.375,"midi":43,"time":488.25,"velocity":0.3937007874015748},{"duration":0.375,"midi":85,"time":488.25,"velocity":0.3937007874015748},{"duration":0.1875,"midi":39,"time":488.25,"velocity":0.3937007874015748},{"duration":0.375,"midi":77,"time":488.25,"velocity":0.3937007874015748},{"duration":0.375,"midi":63,"time":488.25,"velocity":0.3937007874015748},{"duration":0.375,"midi":40,"time":488.25,"velocity":0.3937007874015748},{"duration":0.375,"midi":94,"time":488.25,"velocity":0.3937007874015748},{"duration":0.375,"midi":49,"time":488.25,"velocity":0.3937007874015748},{"duration":0.375,"midi":81,"time":488.25,"velocity":0.3937007874015748},{"duration":0.375,"midi":54,"time":488.25,"velocity":0.3937007874015748},{"duration":0.375,"midi":32,"time":488.25,"velocity":0.3937007874015748},{"duration":0.375,"midi":72,"time":488.25,"velocity":0.3937007874015748},{"duration":0.375,"midi":38,"time":488.25,"velocity":0.3937007874015748},{"duration":0.375,"midi":80,"time":488.25,"velocity":0.3937007874015748},{"duration":0.375,"midi":30,"time":488.25,"velocity":0.3937007874015748},{"duration":0.375,"midi":62,"time":488.25,"velocity":0.3937007874015748},{"duration":0.375,"midi":26,"time":488.25,"velocity":0.3937007874015748},{"duration":0.375,"midi":93,"time":488.25,"velocity":0.3937007874015748},{"duration":0.375,"midi":84,"time":488.25,"velocity":0.3937007874015748},{"duration":0.375,"midi":27,"time":488.25,"velocity":0.3937007874015748},{"duration":0.375,"midi":68,"time":488.25,"velocity":0.3937007874015748},{"duration":0.2578125,"midi":59,"time":488.25,"velocity":0.3937007874015748},{"duration":0.375,"midi":71,"time":488.25,"velocity":0.3937007874015748},{"duration":0.375,"midi":92,"time":488.25,"velocity":0.3937007874015748},{"duration":0.1875,"midi":56,"time":488.25,"velocity":0.3937007874015748},{"duration":0.375,"midi":52,"time":488.25,"velocity":0.3937007874015748},{"duration":0.3046875,"midi":57,"time":488.25,"velocity":0.3937007874015748},{"duration":0.375,"midi":89,"time":488.25,"velocity":0.3937007874015748},{"duration":0.375,"midi":64,"time":488.25,"velocity":0.3937007874015748},{"duration":0.375,"midi":37,"time":488.25,"velocity":0.3937007874015748},{"duration":0.375,"midi":73,"time":488.25,"velocity":0.3937007874015748},{"duration":0.375,"midi":75,"time":488.25,"velocity":0.3937007874015748},{"duration":0.375,"midi":90,"time":488.25,"velocity":0.3937007874015748},{"duration":0.375,"midi":53,"time":488.25,"velocity":0.3937007874015748},{"duration":0.375,"midi":69,"time":488.25,"velocity":0.3937007874015748},{"duration":0.234375,"midi":60,"time":488.25,"velocity":0.3937007874015748},{"duration":0.375,"midi":65,"time":488.25,"velocity":0.3937007874015748},{"duration":0.375,"midi":91,"time":488.25,"velocity":0.3937007874015748},{"duration":0.328125,"midi":56,"time":488.25,"velocity":0.3937007874015748},{"duration":0.2109375,"midi":61,"time":488.25,"velocity":0.3937007874015748},{"duration":0.375,"midi":39,"time":488.25,"velocity":0.3937007874015748},{"duration":0.375,"midi":87,"time":488.25,"velocity":0.3937007874015748},{"duration":0.375,"midi":36,"time":488.25,"velocity":0.3937007874015748},{"duration":0.28125,"midi":58,"time":488.25,"velocity":0.3937007874015748},{"duration":0.375,"midi":24,"time":488.25,"velocity":0.3937007874015748},{"duration":0.375,"midi":83,"time":488.25,"velocity":0.3937007874015748},{"duration":0.3515625,"midi":61,"time":488.2734375,"velocity":0.3937007874015748},{"duration":0.328125,"midi":60,"time":488.296875,"velocity":0.3937007874015748},{"duration":0.3046875,"midi":59,"time":488.3203125,"velocity":0.3937007874015748},{"duration":0.28125,"midi":58,"time":488.34375,"velocity":0.3937007874015748},{"duration":0.2578125,"midi":57,"time":488.3671875,"velocity":0.3937007874015748},{"duration":0.234375,"midi":56,"time":488.390625,"velocity":0.3937007874015748},{"duration":0.2109375,"midi":55,"time":488.4140625,"velocity":0.3937007874015748},{"duration":0.1875,"midi":93,"time":488.4375,"velocity":0.3937007874015748},{"duration":0.1875,"midi":81,"time":488.4375,"velocity":0.3937007874015748},{"duration":0.1875,"midi":69,"time":488.4375,"velocity":0.3937007874015748},{"duration":0.1875,"midi":57,"time":488.4375,"velocity":0.3937007874015748},{"duration":0.1875,"midi":74,"time":488.4375,"velocity":0.3937007874015748},{"duration":0.1875,"midi":50,"time":488.4375,"velocity":0.3937007874015748},{"duration":0.1875,"midi":54,"time":488.4375,"velocity":0.3937007874015748},{"duration":0.1875,"midi":33,"time":488.4375,"velocity":0.3937007874015748},{"duration":0.1875,"midi":26,"time":488.4375,"velocity":0.3937007874015748},{"duration":0.1875,"midi":62,"time":488.4375,"velocity":0.3937007874015748},{"duration":0.1875,"midi":38,"time":488.4375,"velocity":0.3937007874015748},{"duration":0.1875,"midi":45,"time":488.4375,"velocity":0.3937007874015748},{"duration":0.1875,"midi":86,"time":488.4375,"velocity":0.3937007874015748},{"duration":0.1875,"midi":53,"time":488.4609375,"velocity":0.3937007874015748},{"duration":0.1875,"midi":52,"time":488.484375,"velocity":0.3937007874015748},{"duration":0.1875,"midi":51,"time":488.5078125,"velocity":0.3937007874015748},{"duration":0.1875,"midi":50,"time":488.53125,"velocity":0.3937007874015748},{"duration":0.1875,"midi":49,"time":488.5546875,"velocity":0.3937007874015748},{"duration":0.1875,"midi":48,"time":488.578125,"velocity":0.3937007874015748},{"duration":0.1875,"midi":47,"time":488.6015625,"velocity":0.3937007874015748},{"duration":0.1875,"midi":46,"time":488.625,"velocity":0.3937007874015748},{"duration":0.1875,"midi":94,"time":488.625,"velocity":0.3937007874015748},{"duration":0.1875,"midi":37,"time":488.625,"velocity":0.3937007874015748},{"duration":0.1875,"midi":73,"time":488.625,"velocity":0.3937007874015748},{"duration":0.1875,"midi":34,"time":488.625,"velocity":0.3937007874015748},{"duration":0.1875,"midi":25,"time":488.625,"velocity":0.3937007874015748},{"duration":0.1875,"midi":46,"time":488.625,"velocity":0.3937007874015748},{"duration":0.1875,"midi":82,"time":488.625,"velocity":0.3937007874015748},{"duration":0.1875,"midi":85,"time":488.625,"velocity":0.3937007874015748},{"duration":0.1875,"midi":49,"time":488.625,"velocity":0.3937007874015748},{"duration":0.1875,"midi":61,"time":488.625,"velocity":0.3937007874015748},{"duration":0.1875,"midi":58,"time":488.625,"velocity":0.3937007874015748},{"duration":0.1875,"midi":70,"time":488.625,"velocity":0.3937007874015748},{"duration":0.1875,"midi":45,"time":488.6484375,"velocity":0.3937007874015748},{"duration":0.1875,"midi":44,"time":488.671875,"velocity":0.3937007874015748},{"duration":0.1875,"midi":43,"time":488.6953125,"velocity":0.3937007874015748},{"duration":0.1875,"midi":42,"time":488.71875,"velocity":0.3937007874015748},{"duration":0.1875,"midi":41,"time":488.7421875,"velocity":0.3937007874015748},{"duration":0.1875,"midi":40,"time":488.765625,"velocity":0.3937007874015748},{"duration":0.1875,"midi":39,"time":488.7890625,"velocity":0.3937007874015748},{"duration":0.1875,"midi":60,"time":488.8125,"velocity":0.3937007874015748},{"duration":0.1875,"midi":35,"time":488.8125,"velocity":0.3937007874015748},{"duration":0.1875,"midi":38,"time":488.8125,"velocity":0.3937007874015748},{"duration":0.1875,"midi":47,"time":488.8125,"velocity":0.3937007874015748},{"duration":0.1875,"midi":95,"time":488.8125,"velocity":0.3937007874015748},{"duration":0.1875,"midi":48,"time":488.8125,"velocity":0.3937007874015748},{"duration":0.1875,"midi":84,"time":488.8125,"velocity":0.3937007874015748},{"duration":0.1875,"midi":36,"time":488.8125,"velocity":0.3937007874015748},{"duration":0.1875,"midi":71,"time":488.8125,"velocity":0.3937007874015748},{"duration":0.1875,"midi":24,"time":488.8125,"velocity":0.3937007874015748},{"duration":0.1875,"midi":59,"time":488.8125,"velocity":0.3937007874015748},{"duration":0.1875,"midi":83,"time":488.8125,"velocity":0.3937007874015748},{"duration":0.1875,"midi":72,"time":488.8125,"velocity":0.3937007874015748},{"duration":0.1875,"midi":37,"time":488.8359375,"velocity":0.3937007874015748},{"duration":0.1875,"midi":36,"time":488.859375,"velocity":0.3937007874015748},{"duration":0.1875,"midi":35,"time":488.8828125,"velocity":0.3937007874015748},{"duration":0.1875,"midi":34,"time":488.90625,"velocity":0.3937007874015748},{"duration":0.1875,"midi":33,"time":488.9296875,"velocity":0.3937007874015748},{"duration":0.1875,"midi":32,"time":488.953125,"velocity":0.3937007874015748},{"duration":0.1875,"midi":31,"time":488.9765625,"velocity":0.3937007874015748},{"duration":0.375,"midi":66,"time":489,"velocity":0.3937007874015748},{"duration":0.375,"midi":92,"time":489,"velocity":0.3937007874015748},{"duration":0.375,"midi":34,"time":489,"velocity":0.3937007874015748},{"duration":0.375,"midi":39,"time":489,"velocity":0.3937007874015748},{"duration":0.375,"midi":35,"time":489,"velocity":0.3937007874015748},{"duration":0.1875,"midi":30,"time":489,"velocity":0.3937007874015748},{"duration":0.375,"midi":94,"time":489,"velocity":0.3937007874015748},{"duration":0.375,"midi":72,"time":489,"velocity":0.3937007874015748},{"duration":0.375,"midi":64,"time":489,"velocity":0.3937007874015748},{"duration":0.375,"midi":49,"time":489,"velocity":0.3937007874015748},{"duration":0.375,"midi":67,"time":489,"velocity":0.3937007874015748},{"duration":0.375,"midi":71,"time":489,"velocity":0.3937007874015748},{"duration":0.375,"midi":70,"time":489,"velocity":0.3937007874015748},{"duration":0.375,"midi":80,"time":489,"velocity":0.3937007874015748},{"duration":0.375,"midi":73,"time":489,"velocity":0.3937007874015748},{"duration":0.375,"midi":31,"time":489,"velocity":0.3937007874015748},{"duration":0.375,"midi":79,"time":489,"velocity":0.3937007874015748},{"duration":0.375,"midi":58,"time":489,"velocity":0.3937007874015748},{"duration":0.375,"midi":29,"time":489,"velocity":0.3937007874015748},{"duration":0.375,"midi":26,"time":489,"velocity":0.3937007874015748},{"duration":0.375,"midi":50,"time":489,"velocity":0.3937007874015748},{"duration":0.375,"midi":47,"time":489,"velocity":0.3937007874015748},{"duration":0.375,"midi":82,"time":489,"velocity":0.3937007874015748},{"duration":0.375,"midi":42,"time":489,"velocity":0.3937007874015748},{"duration":0.375,"midi":74,"time":489,"velocity":0.3937007874015748},{"duration":0.375,"midi":55,"time":489,"velocity":0.3937007874015748},{"duration":0.375,"midi":36,"time":489,"velocity":0.3937007874015748},{"duration":0.375,"midi":28,"time":489,"velocity":0.3937007874015748},{"duration":0.375,"midi":38,"time":489,"velocity":0.3937007874015748},{"duration":0.375,"midi":59,"time":489,"velocity":0.3937007874015748},{"duration":0.375,"midi":40,"time":489,"velocity":0.3937007874015748},{"duration":0.375,"midi":60,"time":489,"velocity":0.3937007874015748},{"duration":0.2109375,"midi":93,"time":489,"velocity":0.3937007874015748},{"duration":0.375,"midi":65,"time":489,"velocity":0.3937007874015748},{"duration":0.375,"midi":61,"time":489,"velocity":0.3937007874015748},{"duration":0.375,"midi":30,"time":489,"velocity":0.3937007874015748},{"duration":0.375,"midi":43,"time":489,"velocity":0.3937007874015748},{"duration":0.375,"midi":69,"time":489,"velocity":0.3937007874015748},{"duration":0.375,"midi":44,"time":489,"velocity":0.3937007874015748},{"duration":0.375,"midi":91,"time":489,"velocity":0.3937007874015748},{"duration":0.375,"midi":46,"time":489,"velocity":0.3937007874015748},{"duration":0.375,"midi":76,"time":489,"velocity":0.3937007874015748},{"duration":0.375,"midi":62,"time":489,"velocity":0.3937007874015748},{"duration":0.375,"midi":33,"time":489,"velocity":0.3937007874015748},{"duration":0.375,"midi":41,"time":489,"velocity":0.3937007874015748},{"duration":0.375,"midi":87,"time":489,"velocity":0.3937007874015748},{"duration":0.375,"midi":89,"time":489,"velocity":0.3937007874015748},{"duration":0.375,"midi":75,"time":489,"velocity":0.3937007874015748},{"duration":0.375,"midi":81,"time":489,"velocity":0.3937007874015748},{"duration":0.375,"midi":56,"time":489,"velocity":0.3937007874015748},{"duration":0.375,"midi":63,"time":489,"velocity":0.3937007874015748},{"duration":0.375,"midi":95,"time":489,"velocity":0.3937007874015748},{"duration":0.375,"midi":37,"time":489,"velocity":0.3937007874015748},{"duration":0.375,"midi":54,"time":489,"velocity":0.3937007874015748},{"duration":0.375,"midi":78,"time":489,"velocity":0.3937007874015748},{"duration":0.375,"midi":57,"time":489,"velocity":0.3937007874015748},{"duration":0.375,"midi":88,"time":489,"velocity":0.3937007874015748},{"duration":0.375,"midi":51,"time":489,"velocity":0.3937007874015748},{"duration":0.375,"midi":24,"time":489,"velocity":0.3937007874015748},{"duration":0.375,"midi":32,"time":489,"velocity":0.3937007874015748},{"duration":0.375,"midi":84,"time":489,"velocity":0.3937007874015748},{"duration":0.375,"midi":86,"time":489,"velocity":0.3937007874015748},{"duration":0.375,"midi":90,"time":489,"velocity":0.3937007874015748},{"duration":0.375,"midi":27,"time":489,"velocity":0.3937007874015748},{"duration":0.375,"midi":53,"time":489,"velocity":0.3937007874015748},{"duration":0.375,"midi":68,"time":489,"velocity":0.3937007874015748},{"duration":0.375,"midi":77,"time":489,"velocity":0.3937007874015748},{"duration":0.375,"midi":48,"time":489,"velocity":0.3937007874015748},{"duration":0.375,"midi":52,"time":489,"velocity":0.3937007874015748},{"duration":0.375,"midi":85,"time":489,"velocity":0.3937007874015748},{"duration":0.375,"midi":83,"time":489,"velocity":0.3937007874015748},{"duration":0.375,"midi":25,"time":489,"velocity":0.3937007874015748},{"duration":0.375,"midi":45,"time":489,"velocity":0.3937007874015748},{"duration":0.3515625,"midi":93,"time":489.0234375,"velocity":0.3937007874015748}]},{"instrument":{"family":"pipe","number":73,"name":"flute"},"notes":[{"duration":0.75,"midi":46,"time":504,"velocity":0.3937007874015748},{"duration":0.75,"midi":69,"time":504,"velocity":0.3937007874015748},{"duration":0.75,"midi":36,"time":504,"velocity":0.3937007874015748},{"duration":3,"midi":59,"time":504,"velocity":0.3937007874015748},{"duration":0.75,"midi":47,"time":504,"velocity":0.3937007874015748},{"duration":3,"midi":61,"time":504,"velocity":0.3937007874015748},{"duration":0.75,"midi":52,"time":504,"velocity":0.3937007874015748},{"duration":0.75,"midi":66,"time":504,"velocity":0.3937007874015748},{"duration":0.75,"midi":71,"time":504,"velocity":0.3937007874015748},{"duration":3,"midi":94,"time":504,"velocity":0.3937007874015748},{"duration":0.75,"midi":82,"time":504,"velocity":0.3937007874015748},{"duration":0.75,"midi":54,"time":504,"velocity":0.3937007874015748},{"duration":0.75,"midi":51,"time":504,"velocity":0.3937007874015748},{"duration":0.75,"midi":81,"time":504,"velocity":0.3937007874015748},{"duration":0.75,"midi":63,"time":504,"velocity":0.3937007874015748},{"duration":3,"midi":95,"time":504,"velocity":0.3937007874015748},{"duration":3,"midi":60,"time":504,"velocity":0.3937007874015748},{"duration":0.75,"midi":86,"time":504,"velocity":0.3937007874015748},{"duration":0.75,"midi":77,"time":504,"velocity":0.3937007874015748},{"duration":0.75,"midi":44,"time":504,"velocity":0.3937007874015748},{"duration":0.75,"midi":41,"time":504,"velocity":0.3937007874015748},{"duration":3,"midi":58,"time":504,"velocity":0.3937007874015748},{"duration":0.75,"midi":56,"time":504,"velocity":0.3937007874015748},{"duration":0.75,"midi":39,"time":504,"velocity":0.3937007874015748},{"duration":0.75,"midi":73,"time":504,"velocity":0.3937007874015748},{"duration":3,"midi":93,"time":504,"velocity":0.3937007874015748},{"duration":0.75,"midi":48,"time":504,"velocity":0.3937007874015748},{"duration":3,"midi":92,"time":504,"velocity":0.3937007874015748},{"duration":0.75,"midi":45,"time":504,"velocity":0.3937007874015748},{"duration":0.75,"midi":83,"time":504,"velocity":0.3937007874015748},{"duration":3,"midi":91,"time":504,"velocity":0.3937007874015748},{"duration":0.75,"midi":72,"time":504,"velocity":0.3937007874015748},{"duration":3,"midi":57,"time":504,"velocity":0.3937007874015748},{"duration":0.75,"midi":64,"time":504,"velocity":0.3937007874015748},{"duration":0.75,"midi":35,"time":504,"velocity":0.3937007874015748},{"duration":3,"midi":29,"time":504,"velocity":0.3937007874015748},{"duration":0.75,"midi":43,"time":504,"velocity":0.3937007874015748},{"duration":3,"midi":28,"time":504,"velocity":0.3937007874015748},{"duration":0.75,"midi":34,"time":504,"velocity":0.3937007874015748},{"duration":3,"midi":26,"time":504,"velocity":0.3937007874015748},{"duration":0.75,"midi":30,"time":504,"velocity":0.3937007874015748},{"duration":3,"midi":24,"time":504,"velocity":0.3937007874015748},{"duration":0.75,"midi":88,"time":504,"velocity":0.3937007874015748},{"duration":0.75,"midi":67,"time":504,"velocity":0.3937007874015748},{"duration":0.75,"midi":40,"time":504,"velocity":0.3937007874015748},{"duration":0.75,"midi":68,"time":504,"velocity":0.3937007874015748},{"duration":3,"midi":90,"time":504,"velocity":0.3937007874015748},{"duration":0.75,"midi":76,"time":504,"velocity":0.3937007874015748},{"duration":0.75,"midi":89,"time":504,"velocity":0.3937007874015748},{"duration":0.75,"midi":80,"time":504,"velocity":0.3937007874015748},{"duration":0.75,"midi":49,"time":504,"velocity":0.3937007874015748},{"duration":0.75,"midi":55,"time":504,"velocity":0.3937007874015748},{"duration":0.75,"midi":33,"time":504,"velocity":0.3937007874015748},{"duration":0.75,"midi":74,"time":504,"velocity":0.3937007874015748},{"duration":0.75,"midi":70,"time":504,"velocity":0.3937007874015748},{"duration":3,"midi":25,"time":504,"velocity":0.3937007874015748},{"duration":0.75,"midi":37,"time":504,"velocity":0.3937007874015748},{"duration":3,"midi":62,"time":504,"velocity":0.3937007874015748},{"duration":0.75,"midi":42,"time":504,"velocity":0.3937007874015748},{"duration":0.75,"midi":50,"time":504,"velocity":0.3937007874015748},{"duration":0.75,"midi":78,"time":504,"velocity":0.3937007874015748},{"duration":0.75,"midi":53,"time":504,"velocity":0.3937007874015748},{"duration":0.75,"midi":65,"time":504,"velocity":0.3937007874015748},{"duration":3,"midi":27,"time":504,"velocity":0.3937007874015748},{"duration":0.75,"midi":31,"time":504,"velocity":0.3937007874015748},{"duration":0.75,"midi":87,"time":504,"velocity":0.3937007874015748},{"duration":0.75,"midi":32,"time":504,"velocity":0.3937007874015748},{"duration":0.75,"midi":38,"time":504,"velocity":0.3937007874015748},{"duration":0.75,"midi":79,"time":504,"velocity":0.3937007874015748},{"duration":0.75,"midi":75,"time":504,"velocity":0.3937007874015748},{"duration":0.75,"midi":85,"time":504,"velocity":0.3937007874015748},{"duration":0.75,"midi":84,"time":504,"velocity":0.3937007874015748}]},{"instrument":{"family":"piano","number":0,"name":"acoustic grand piano"},"notes":[{"duration":0.09375,"midi":53,"time":260.15625,"velocity":0.3937007874015748},{"duration":0.09375,"midi":83,"time":260.15625,"velocity":0.3937007874015748},{"duration":0.09375,"midi":67,"time":260.15625,"velocity":0.3937007874015748},{"duration":0.09375,"midi":52,"time":260.15625,"velocity":0.3937007874015748},{"duration":0.09375,"midi":69,"time":260.15625,"velocity":0.3937007874015748},{"duration":0.09375,"midi":91,"time":260.15625,"velocity":0.3937007874015748},{"duration":0.09375,"midi":69,"time":260.15625,"velocity":0.3937007874015748},{"duration":0.09375,"midi":55,"time":260.15625,"velocity":0.3937007874015748},{"duration":0.09375,"midi":48,"time":260.15625,"velocity":0.3937007874015748},{"duration":0.09375,"midi":64,"time":260.15625,"velocity":0.3937007874015748},{"duration":0.09375,"midi":55,"time":260.15625,"velocity":0.3937007874015748},{"duration":0.09375,"midi":67,"time":260.15625,"velocity":0.3937007874015748},{"duration":0.09375,"midi":29,"time":260.15625,"velocity":0.3937007874015748},{"duration":0.09375,"midi":65,"time":260.15625,"velocity":0.3937007874015748},{"duration":0.09375,"midi":53,"time":260.15625,"velocity":0.3937007874015748},{"duration":0.09375,"midi":29,"time":260.15625,"velocity":0.3937007874015748},{"duration":0.09375,"midi":72,"time":260.15625,"velocity":0.3937007874015748},{"duration":0.09375,"midi":38,"time":260.15625,"velocity":0.3937007874015748},{"duration":0.09375,"midi":31,"time":260.15625,"velocity":0.3937007874015748},{"duration":0.09375,"midi":89,"time":260.15625,"velocity":0.3937007874015748},{"duration":0.09375,"midi":81,"time":260.15625,"velocity":0.3937007874015748},{"duration":0.09375,"midi":91,"time":260.15625,"velocity":0.3937007874015748},{"duration":0.09375,"midi":50,"time":260.15625,"velocity":0.3937007874015748},{"duration":0.09375,"midi":31,"time":260.15625,"velocity":0.3937007874015748},{"duration":0.09375,"midi":71,"time":260.15625,"velocity":0.3937007874015748},{"duration":0.09375,"midi":72,"time":260.15625,"velocity":0.3937007874015748},{"duration":0.09375,"midi":81,"time":260.15625,"velocity":0.3937007874015748},{"duration":0.09375,"midi":50,"time":260.15625,"velocity":0.3937007874015748},{"duration":0.09375,"midi":52,"time":260.15625,"velocity":0.3937007874015748},{"duration":0.09375,"midi":40,"time":260.15625,"velocity":0.3937007874015748},{"duration":0.09375,"midi":83,"time":260.15625,"velocity":0.3937007874015748},{"duration":0.09375,"midi":48,"time":260.15625,"velocity":0.3937007874015748},{"duration":0.09375,"midi":64,"time":260.15625,"velocity":0.3937007874015748},{"duration":0.09375,"midi":89,"time":260.15625,"velocity":0.3937007874015748},{"duration":0.09375,"midi":65,"time":260.15625,"velocity":0.3937007874015748},{"duration":0.09375,"midi":38,"time":260.15625,"velocity":0.3937007874015748},{"duration":0.09375,"midi":71,"time":260.15625,"velocity":0.3937007874015748},{"duration":0.09375,"midi":40,"time":260.15625,"velocity":0.3937007874015748},{"duration":0.09375,"midi":40,"time":260.25,"velocity":0.3937007874015748},{"duration":0.09375,"midi":48,"time":260.25,"velocity":0.3937007874015748},{"duration":0.09375,"midi":35,"time":260.25,"velocity":0.3937007874015748},{"duration":0.09375,"midi":31,"time":260.25,"velocity":0.3937007874015748},{"duration":0.09375,"midi":89,"time":260.25,"velocity":0.3937007874015748},{"duration":0.09375,"midi":48,"time":260.25,"velocity":0.3937007874015748},{"duration":0.09375,"midi":83,"time":260.25,"velocity":0.3937007874015748},{"duration":0.09375,"midi":55,"time":260.25,"velocity":0.3937007874015748},{"duration":0.09375,"midi":81,"time":260.25,"velocity":0.3937007874015748},{"duration":0.09375,"midi":72,"time":260.25,"velocity":0.3937007874015748},{"duration":0.09375,"midi":47,"time":260.25,"velocity":0.3937007874015748},{"duration":0.09375,"midi":83,"time":260.25,"velocity":0.3937007874015748},{"duration":0.09375,"midi":33,"time":260.25,"velocity":0.3937007874015748},{"duration":0.09375,"midi":81,"time":260.25,"velocity":0.3937007874015748},{"duration":0.09375,"midi":74,"time":260.25,"velocity":0.3937007874015748},{"duration":0.09375,"midi":47,"time":260.25,"velocity":0.3937007874015748},{"duration":0.09375,"midi":74,"time":260.25,"velocity":0.3937007874015748},{"duration":0.09375,"midi":89,"time":260.25,"velocity":0.3937007874015748},{"duration":0.09375,"midi":35,"time":260.25,"velocity":0.3937007874015748},{"duration":0.09375,"midi":33,"time":260.25,"velocity":0.3937007874015748},{"duration":0.09375,"midi":72,"time":260.25,"velocity":0.3937007874015748},{"duration":0.09375,"midi":40,"time":260.25,"velocity":0.3937007874015748},{"duration":0.09375,"midi":38,"time":260.25,"velocity":0.3937007874015748},{"duration":0.09375,"midi":55,"time":260.25,"velocity":0.3937007874015748},{"duration":0.09375,"midi":91,"time":260.25,"velocity":0.3937007874015748},{"duration":0.09375,"midi":38,"time":260.25,"velocity":0.3937007874015748},{"duration":0.09375,"midi":57,"time":260.25,"velocity":0.3937007874015748},{"duration":0.09375,"midi":91,"time":260.25,"velocity":0.3937007874015748},{"duration":0.09375,"midi":31,"time":260.25,"velocity":0.3937007874015748},{"duration":0.09375,"midi":57,"time":260.25,"velocity":0.3937007874015748},{"duration":0.09375,"midi":72,"time":260.34375,"velocity":0.3937007874015748},{"duration":0.09375,"midi":74,"time":260.34375,"velocity":0.3937007874015748},{"duration":0.09375,"midi":35,"time":260.34375,"velocity":0.3937007874015748},{"duration":0.09375,"midi":35,"time":260.34375,"velocity":0.3937007874015748},{"duration":0.09375,"midi":38,"time":260.34375,"velocity":0.3937007874015748},{"duration":0.09375,"midi":57,"time":260.34375,"velocity":0.3937007874015748},{"duration":0.09375,"midi":89,"time":260.34375,"velocity":0.3937007874015748},{"duration":0.09375,"midi":57,"time":260.34375,"velocity":0.3937007874015748},{"duration":0.09375,"midi":81,"time":260.34375,"velocity":0.3937007874015748},{"duration":0.09375,"midi":48,"time":260.34375,"velocity":0.3937007874015748},{"duration":0.09375,"midi":81,"time":260.34375,"velocity":0.3937007874015748},{"duration":0.09375,"midi":48,"time":260.34375,"velocity":0.3937007874015748},{"duration":0.09375,"midi":40,"time":260.34375,"velocity":0.3937007874015748},{"duration":0.09375,"midi":83,"time":260.34375,"velocity":0.3937007874015748},{"duration":0.09375,"midi":47,"time":260.34375,"velocity":0.3937007874015748},{"duration":0.09375,"midi":55,"time":260.34375,"velocity":0.3937007874015748},{"duration":0.09375,"midi":47,"time":260.34375,"velocity":0.3937007874015748},{"duration":0.09375,"midi":89,"time":260.34375,"velocity":0.3937007874015748},{"duration":0.09375,"midi":72,"time":260.34375,"velocity":0.3937007874015748},{"duration":0.09375,"midi":55,"time":260.34375,"velocity":0.3937007874015748},{"duration":0.09375,"midi":38,"time":260.34375,"velocity":0.3937007874015748},{"duration":0.09375,"midi":83,"time":260.34375,"velocity":0.3937007874015748},{"duration":0.09375,"midi":36,"time":260.34375,"velocity":0.3937007874015748},{"duration":0.09375,"midi":36,"time":260.34375,"velocity":0.3937007874015748},{"duration":0.09375,"midi":91,"time":260.34375,"velocity":0.3937007874015748},{"duration":0.09375,"midi":74,"time":260.34375,"velocity":0.3937007874015748},{"duration":0.09375,"midi":91,"time":260.34375,"velocity":0.3937007874015748},{"duration":0.09375,"midi":40,"time":260.34375,"velocity":0.3937007874015748},{"duration":0.09375,"midi":31,"time":260.4375,"velocity":0.3937007874015748},{"duration":0.09375,"midi":72,"time":260.4375,"velocity":0.3937007874015748},{"duration":0.09375,"midi":83,"time":260.4375,"velocity":0.3937007874015748},{"duration":0.09375,"midi":57,"time":260.4375,"velocity":0.3937007874015748},{"duration":0.09375,"midi":88,"time":260.4375,"velocity":0.3937007874015748},{"duration":0.09375,"midi":67,"time":260.4375,"velocity":0.3937007874015748},{"duration":0.09375,"midi":86,"time":260.4375,"velocity":0.3937007874015748},{"duration":0.09375,"midi":91,"time":260.4375,"velocity":0.3937007874015748},{"duration":0.09375,"midi":89,"time":260.4375,"velocity":0.3937007874015748},{"duration":0.09375,"midi":55,"time":260.4375,"velocity":0.3937007874015748},{"duration":0.09375,"midi":65,"time":260.4375,"velocity":0.3937007874015748},{"duration":0.09375,"midi":33,"time":260.4375,"velocity":0.3937007874015748},{"duration":0.09375,"midi":84,"time":260.4375,"velocity":0.3937007874015748},{"duration":0.09375,"midi":69,"time":260.4375,"velocity":0.3937007874015748},{"duration":0.09375,"midi":84,"time":260.4375,"velocity":0.3937007874015748},{"duration":0.09375,"midi":38,"time":260.4375,"velocity":0.3937007874015748},{"duration":0.09375,"midi":35,"time":260.4375,"velocity":0.3937007874015748},{"duration":0.09375,"midi":33,"time":260.4375,"velocity":0.3937007874015748},{"duration":0.09375,"midi":48,"time":260.4375,"velocity":0.3937007874015748},{"duration":0.09375,"midi":81,"time":260.4375,"velocity":0.3937007874015748},{"duration":0.09375,"midi":91,"time":260.4375,"velocity":0.3937007874015748},{"duration":0.09375,"midi":47,"time":260.4375,"velocity":0.3937007874015748},{"duration":0.09375,"midi":47,"time":260.4375,"velocity":0.3937007874015748},{"duration":0.09375,"midi":40,"time":260.4375,"velocity":0.3937007874015748},{"duration":0.09375,"midi":55,"time":260.4375,"velocity":0.3937007874015748},{"duration":0.09375,"midi":81,"time":260.4375,"velocity":0.3937007874015748},{"duration":0.09375,"midi":83,"time":260.4375,"velocity":0.3937007874015748},{"duration":0.09375,"midi":86,"time":260.4375,"velocity":0.3937007874015748},{"duration":0.09375,"midi":89,"time":260.4375,"velocity":0.3937007874015748},{"duration":0.09375,"midi":31,"time":260.4375,"velocity":0.3937007874015748},{"duration":0.09375,"midi":38,"time":260.4375,"velocity":0.3937007874015748},{"duration":0.09375,"midi":36,"time":260.4375,"velocity":0.3937007874015748},{"duration":0.09375,"midi":40,"time":260.4375,"velocity":0.3937007874015748},{"duration":0.09375,"midi":88,"time":260.4375,"velocity":0.3937007874015748},{"duration":0.09375,"midi":69,"time":260.4375,"velocity":0.3937007874015748},{"duration":0.09375,"midi":35,"time":260.4375,"velocity":0.3937007874015748},{"duration":0.09375,"midi":36,"time":260.4375,"velocity":0.3937007874015748},{"duration":0.09375,"midi":71,"time":260.4375,"velocity":0.3937007874015748},{"duration":0.09375,"midi":67,"time":260.4375,"velocity":0.3937007874015748},{"duration":0.09375,"midi":57,"time":260.4375,"velocity":0.3937007874015748},{"duration":0.09375,"midi":71,"time":260.4375,"velocity":0.3937007874015748},{"duration":0.09375,"midi":48,"time":260.4375,"velocity":0.3937007874015748},{"duration":0.09375,"midi":72,"time":260.4375,"velocity":0.3937007874015748},{"duration":0.09375,"midi":65,"time":260.4375,"velocity":0.3937007874015748},{"duration":0.09375,"midi":81,"time":260.53125,"velocity":0.3937007874015748},{"duration":0.09375,"midi":83,"time":260.53125,"velocity":0.3937007874015748},{"duration":0.09375,"midi":83,"time":260.53125,"velocity":0.3937007874015748},{"duration":0.09375,"midi":81,"time":260.53125,"velocity":0.3937007874015748},{"duration":0.09375,"midi":47,"time":260.53125,"velocity":0.3937007874015748},{"duration":0.09375,"midi":31,"time":260.53125,"velocity":0.3937007874015748},{"duration":0.09375,"midi":64,"time":260.53125,"velocity":0.3937007874015748},{"duration":0.09375,"midi":29,"time":260.53125,"velocity":0.3937007874015748},{"duration":0.09375,"midi":65,"time":260.53125,"velocity":0.3937007874015748},{"duration":0.09375,"midi":29,"time":260.53125,"velocity":0.3937007874015748},{"duration":0.09375,"midi":91,"time":260.53125,"velocity":0.3937007874015748},{"duration":0.09375,"midi":31,"time":260.53125,"velocity":0.3937007874015748},{"duration":0.09375,"midi":47,"time":260.53125,"velocity":0.3937007874015748},{"duration":0.09375,"midi":40,"time":260.53125,"velocity":0.3937007874015748},{"duration":0.09375,"midi":91,"time":260.53125,"velocity":0.3937007874015748},{"duration":0.09375,"midi":38,"time":260.53125,"velocity":0.3937007874015748},{"duration":0.09375,"midi":64,"time":260.53125,"velocity":0.3937007874015748},{"duration":0.09375,"midi":48,"time":260.53125,"velocity":0.3937007874015748},{"duration":0.09375,"midi":40,"time":260.53125,"velocity":0.3937007874015748},{"duration":0.09375,"midi":65,"time":260.53125,"velocity":0.3937007874015748},{"duration":0.09375,"midi":89,"time":260.53125,"velocity":0.3937007874015748},{"duration":0.09375,"midi":57,"time":260.53125,"velocity":0.3937007874015748},{"duration":0.09375,"midi":38,"time":260.53125,"velocity":0.3937007874015748},{"duration":0.09375,"midi":89,"time":260.53125,"velocity":0.3937007874015748},{"duration":0.09375,"midi":57,"time":260.53125,"velocity":0.3937007874015748},{"duration":0.09375,"midi":55,"time":260.53125,"velocity":0.3937007874015748},{"duration":0.09375,"midi":55,"time":260.53125,"velocity":0.3937007874015748},{"duration":0.09375,"midi":48,"time":260.53125,"velocity":0.3937007874015748},{"duration":0.09375,"midi":89,"time":260.625,"velocity":0.3937007874015748},{"duration":0.09375,"midi":38,"time":260.625,"velocity":0.3937007874015748},{"duration":0.09375,"midi":91,"time":260.625,"velocity":0.3937007874015748},{"duration":0.09375,"midi":55,"time":260.625,"velocity":0.3937007874015748},{"duration":0.09375,"midi":65,"time":260.625,"velocity":0.3937007874015748},{"duration":0.09375,"midi":89,"time":260.625,"velocity":0.3937007874015748},{"duration":0.09375,"midi":55,"time":260.625,"velocity":0.3937007874015748},{"duration":0.09375,"midi":57,"time":260.625,"velocity":0.3937007874015748},{"duration":0.09375,"midi":48,"time":260.625,"velocity":0.3937007874015748},{"duration":0.09375,"midi":38,"time":260.625,"velocity":0.3937007874015748},{"duration":0.09375,"midi":81,"time":260.625,"velocity":0.3937007874015748},{"duration":0.09375,"midi":64,"time":260.625,"velocity":0.3937007874015748},{"duration":0.09375,"midi":47,"time":260.625,"velocity":0.3937007874015748},{"duration":0.09375,"midi":29,"time":260.625,"velocity":0.3937007874015748},{"duration":0.09375,"midi":31,"time":260.625,"velocity":0.3937007874015748},{"duration":0.09375,"midi":64,"time":260.625,"velocity":0.3937007874015748},{"duration":0.09375,"midi":29,"time":260.625,"velocity":0.3937007874015748},{"duration":0.09375,"midi":40,"time":260.625,"velocity":0.3937007874015748},{"duration":0.09375,"midi":81,"time":260.625,"velocity":0.3937007874015748},{"duration":0.09375,"midi":48,"time":260.625,"velocity":0.3937007874015748},{"duration":0.09375,"midi":40,"time":260.625,"velocity":0.3937007874015748},{"duration":0.09375,"midi":83,"time":260.625,"velocity":0.3937007874015748},{"duration":0.09375,"midi":31,"time":260.625,"velocity":0.3937007874015748},{"duration":0.09375,"midi":47,"time":260.625,"velocity":0.3937007874015748},{"duration":0.09375,"midi":91,"time":260.625,"velocity":0.3937007874015748},{"duration":0.09375,"midi":83,"time":260.625,"velocity":0.3937007874015748},{"duration":0.09375,"midi":57,"time":260.625,"velocity":0.3937007874015748},{"duration":0.09375,"midi":65,"time":260.625,"velocity":0.3937007874015748},{"duration":0.09375,"midi":83,"time":260.71875,"velocity":0.3937007874015748},{"duration":0.09375,"midi":36,"time":260.71875,"velocity":0.3937007874015748},{"duration":0.09375,"midi":48,"time":260.71875,"velocity":0.3937007874015748},{"duration":0.09375,"midi":83,"time":260.71875,"velocity":0.3937007874015748},{"duration":0.09375,"midi":72,"time":260.71875,"velocity":0.3937007874015748},{"duration":0.09375,"midi":57,"time":260.71875,"velocity":0.3937007874015748},{"duration":0.09375,"midi":38,"time":260.71875,"velocity":0.3937007874015748},{"duration":0.09375,"midi":89,"time":260.71875,"velocity":0.3937007874015748},{"duration":0.09375,"midi":71,"time":260.71875,"velocity":0.3937007874015748},{"duration":0.09375,"midi":81,"time":260.71875,"velocity":0.3937007874015748},{"duration":0.09375,"midi":91,"time":260.71875,"velocity":0.3937007874015748},{"duration":0.09375,"midi":67,"time":260.71875,"velocity":0.3937007874015748},{"duration":0.09375,"midi":65,"time":260.71875,"velocity":0.3937007874015748},{"duration":0.09375,"midi":57,"time":260.71875,"velocity":0.3937007874015748},{"duration":0.09375,"midi":36,"time":260.71875,"velocity":0.3937007874015748},{"duration":0.09375,"midi":74,"time":260.71875,"velocity":0.3937007874015748},{"duration":0.09375,"midi":89,"time":260.71875,"velocity":0.3937007874015748},{"duration":0.09375,"midi":33,"time":260.71875,"velocity":0.3937007874015748},{"duration":0.09375,"midi":48,"time":260.71875,"velocity":0.3937007874015748},{"duration":0.09375,"midi":47,"time":260.71875,"velocity":0.3937007874015748},{"duration":0.09375,"midi":35,"time":260.71875,"velocity":0.3937007874015748},{"duration":0.09375,"midi":38,"time":260.71875,"velocity":0.3937007874015748},{"duration":0.09375,"midi":74,"time":260.71875,"velocity":0.3937007874015748},{"duration":0.09375,"midi":55,"time":260.71875,"velocity":0.3937007874015748},{"duration":0.09375,"midi":69,"time":260.71875,"velocity":0.3937007874015748},{"duration":0.09375,"midi":67,"time":260.71875,"velocity":0.3937007874015748},{"duration":0.09375,"midi":72,"time":260.71875,"velocity":0.3937007874015748},{"duration":0.09375,"midi":55,"time":260.71875,"velocity":0.3937007874015748},{"duration":0.09375,"midi":33,"time":260.71875,"velocity":0.3937007874015748},{"duration":0.09375,"midi":71,"time":260.71875,"velocity":0.3937007874015748},{"duration":0.09375,"midi":65,"time":260.71875,"velocity":0.3937007874015748},{"duration":0.09375,"midi":35,"time":260.71875,"velocity":0.3937007874015748},{"duration":0.09375,"midi":69,"time":260.71875,"velocity":0.3937007874015748},{"duration":0.09375,"midi":91,"time":260.71875,"velocity":0.3937007874015748},{"duration":0.09375,"midi":47,"time":260.71875,"velocity":0.3937007874015748},{"duration":0.09375,"midi":40,"time":260.71875,"velocity":0.3937007874015748},{"duration":0.09375,"midi":81,"time":260.71875,"velocity":0.3937007874015748},{"duration":0.09375,"midi":31,"time":260.71875,"velocity":0.3937007874015748},{"duration":0.09375,"midi":40,"time":260.71875,"velocity":0.3937007874015748},{"duration":0.09375,"midi":31,"time":260.71875,"velocity":0.3937007874015748},{"duration":0.09375,"midi":60,"time":263.15625,"velocity":0.3937007874015748},{"duration":0.09375,"midi":62,"time":263.15625,"velocity":0.3937007874015748},{"duration":0.09375,"midi":65,"time":263.15625,"velocity":0.3937007874015748},{"duration":0.09375,"midi":60,"time":263.15625,"velocity":0.3937007874015748},{"duration":0.09375,"midi":64,"time":263.15625,"velocity":0.3937007874015748},{"duration":0.09375,"midi":62,"time":263.15625,"velocity":0.3937007874015748},{"duration":0.09375,"midi":59,"time":263.15625,"velocity":0.3937007874015748},{"duration":0.09375,"midi":65,"time":263.15625,"velocity":0.3937007874015748},{"duration":0.09375,"midi":64,"time":263.15625,"velocity":0.3937007874015748},{"duration":0.09375,"midi":55,"time":263.15625,"velocity":0.3937007874015748},{"duration":0.09375,"midi":57,"time":263.15625,"velocity":0.3937007874015748},{"duration":0.09375,"midi":59,"time":263.15625,"velocity":0.3937007874015748},{"duration":0.09375,"midi":55,"time":263.15625,"velocity":0.3937007874015748},{"duration":0.09375,"midi":57,"time":263.15625,"velocity":0.3937007874015748},{"duration":0.09375,"midi":55,"time":263.25,"velocity":0.3937007874015748},{"duration":0.09375,"midi":55,"time":263.25,"velocity":0.3937007874015748},{"duration":0.09375,"midi":57,"time":263.25,"velocity":0.3937007874015748},{"duration":0.09375,"midi":57,"time":263.25,"velocity":0.3937007874015748},{"duration":0.09375,"midi":55,"time":263.34375,"velocity":0.3937007874015748},{"duration":0.09375,"midi":57,"time":263.34375,"velocity":0.3937007874015748},{"duration":0.09375,"midi":57,"time":263.34375,"velocity":0.3937007874015748},{"duration":0.09375,"midi":55,"time":263.34375,"velocity":0.3937007874015748},{"duration":0.09375,"midi":64,"time":263.4375,"velocity":0.3937007874015748},{"duration":0.09375,"midi":64,"time":263.4375,"velocity":0.3937007874015748},{"duration":0.09375,"midi":55,"time":263.4375,"velocity":0.3937007874015748},{"duration":0.09375,"midi":65,"time":263.4375,"velocity":0.3937007874015748},{"duration":0.09375,"midi":65,"time":263.4375,"velocity":0.3937007874015748},{"duration":0.09375,"midi":62,"time":263.4375,"velocity":0.3937007874015748},{"duration":0.09375,"midi":59,"time":263.4375,"velocity":0.3937007874015748},{"duration":0.09375,"midi":57,"time":263.4375,"velocity":0.3937007874015748},{"duration":0.09375,"midi":60,"time":263.4375,"velocity":0.3937007874015748},{"duration":0.09375,"midi":55,"time":263.4375,"velocity":0.3937007874015748},{"duration":0.09375,"midi":60,"time":263.4375,"velocity":0.3937007874015748},{"duration":0.09375,"midi":57,"time":263.4375,"velocity":0.3937007874015748},{"duration":0.09375,"midi":59,"time":263.4375,"velocity":0.3937007874015748},{"duration":0.09375,"midi":62,"time":263.4375,"velocity":0.3937007874015748},{"duration":0.09375,"midi":55,"time":263.53125,"velocity":0.3937007874015748},{"duration":0.09375,"midi":57,"time":263.53125,"velocity":0.3937007874015748},{"duration":0.09375,"midi":55,"time":263.53125,"velocity":0.3937007874015748},{"duration":0.09375,"midi":57,"time":263.53125,"velocity":0.3937007874015748},{"duration":0.09375,"midi":55,"time":263.625,"velocity":0.3937007874015748},{"duration":0.09375,"midi":57,"time":263.625,"velocity":0.3937007874015748},{"duration":0.09375,"midi":57,"time":263.625,"velocity":0.3937007874015748},{"duration":0.09375,"midi":55,"time":263.625,"velocity":0.3937007874015748},{"duration":0.09375,"midi":55,"time":263.71875,"velocity":0.3937007874015748},{"duration":0.09375,"midi":62,"time":263.71875,"velocity":0.3937007874015748},{"duration":0.09375,"midi":64,"time":263.71875,"velocity":0.3937007874015748},{"duration":0.09375,"midi":64,"time":263.71875,"velocity":0.3937007874015748},{"duration":0.09375,"midi":60,"time":263.71875,"velocity":0.3937007874015748},{"duration":0.09375,"midi":62,"time":263.71875,"velocity":0.3937007874015748},{"duration":0.09375,"midi":57,"time":263.71875,"velocity":0.3937007874015748},{"duration":0.09375,"midi":57,"time":263.71875,"velocity":0.3937007874015748},{"duration":0.09375,"midi":55,"time":263.71875,"velocity":0.3937007874015748},{"duration":0.09375,"midi":65,"time":263.71875,"velocity":0.3937007874015748},{"duration":0.09375,"midi":65,"time":263.71875,"velocity":0.3937007874015748},{"duration":0.09375,"midi":60,"time":263.71875,"velocity":0.3937007874015748},{"duration":0.09375,"midi":59,"time":263.71875,"velocity":0.3937007874015748},{"duration":0.09375,"midi":59,"time":263.71875,"velocity":0.3937007874015748},{"duration":0.09375,"midi":50,"time":266.15625,"velocity":0.3937007874015748},{"duration":0.09375,"midi":71,"time":266.15625,"velocity":0.3937007874015748},{"duration":0.09375,"midi":89,"time":266.15625,"velocity":0.3937007874015748},{"duration":0.09375,"midi":53,"time":266.15625,"velocity":0.3937007874015748},{"duration":0.09375,"midi":67,"time":266.15625,"velocity":0.3937007874015748},{"duration":0.09375,"midi":29,"time":266.15625,"velocity":0.3937007874015748},{"duration":0.09375,"midi":29,"time":266.15625,"velocity":0.3937007874015748},{"duration":0.09375,"midi":40,"time":266.15625,"velocity":0.3937007874015748},{"duration":0.09375,"midi":31,"time":266.15625,"velocity":0.3937007874015748},{"duration":0.09375,"midi":31,"time":266.15625,"velocity":0.3937007874015748},{"duration":0.09375,"midi":48,"time":266.15625,"velocity":0.3937007874015748},{"duration":0.09375,"midi":55,"time":266.15625,"velocity":0.3937007874015748},{"duration":0.09375,"midi":69,"time":266.15625,"velocity":0.3937007874015748},{"duration":0.09375,"midi":40,"time":266.15625,"velocity":0.3937007874015748},{"duration":0.09375,"midi":67,"time":266.15625,"velocity":0.3937007874015748},{"duration":0.09375,"midi":64,"time":266.15625,"velocity":0.3937007874015748},{"duration":0.09375,"midi":38,"time":266.15625,"velocity":0.3937007874015748},{"duration":0.09375,"midi":83,"time":266.15625,"velocity":0.3937007874015748},{"duration":0.09375,"midi":53,"time":266.15625,"velocity":0.3937007874015748},{"duration":0.09375,"midi":48,"time":266.15625,"velocity":0.3937007874015748},{"duration":0.09375,"midi":52,"time":266.15625,"velocity":0.3937007874015748},{"duration":0.09375,"midi":65,"time":266.15625,"velocity":0.3937007874015748},{"duration":0.09375,"midi":64,"time":266.15625,"velocity":0.3937007874015748},{"duration":0.09375,"midi":38,"time":266.15625,"velocity":0.3937007874015748},{"duration":0.09375,"midi":89,"time":266.15625,"velocity":0.3937007874015748},{"duration":0.09375,"midi":81,"time":266.15625,"velocity":0.3937007874015748},{"duration":0.09375,"midi":72,"time":266.15625,"velocity":0.3937007874015748},{"duration":0.09375,"midi":69,"time":266.15625,"velocity":0.3937007874015748},{"duration":0.09375,"midi":72,"time":266.15625,"velocity":0.3937007874015748},{"duration":0.09375,"midi":91,"time":266.15625,"velocity":0.3937007874015748},{"duration":0.09375,"midi":83,"time":266.15625,"velocity":0.3937007874015748},{"duration":0.09375,"midi":52,"time":266.15625,"velocity":0.3937007874015748},{"duration":0.09375,"midi":65,"time":266.15625,"velocity":0.3937007874015748},{"duration":0.09375,"midi":91,"time":266.15625,"velocity":0.3937007874015748},{"duration":0.09375,"midi":81,"time":266.15625,"velocity":0.3937007874015748},{"duration":0.09375,"midi":50,"time":266.15625,"velocity":0.3937007874015748},{"duration":0.09375,"midi":71,"time":266.15625,"velocity":0.3937007874015748},{"duration":0.09375,"midi":55,"time":266.15625,"velocity":0.3937007874015748},{"duration":0.09375,"midi":48,"time":266.25,"velocity":0.3937007874015748},{"duration":0.09375,"midi":38,"time":266.25,"velocity":0.3937007874015748},{"duration":0.09375,"midi":33,"time":266.25,"velocity":0.3937007874015748},{"duration":0.09375,"midi":31,"time":266.25,"velocity":0.3937007874015748},{"duration":0.09375,"midi":47,"time":266.25,"velocity":0.3937007874015748},{"duration":0.09375,"midi":40,"time":266.25,"velocity":0.3937007874015748},{"duration":0.09375,"midi":81,"time":266.25,"velocity":0.3937007874015748},{"duration":0.09375,"midi":40,"time":266.25,"velocity":0.3937007874015748},{"duration":0.09375,"midi":83,"time":266.25,"velocity":0.3937007874015748},{"duration":0.09375,"midi":35,"time":266.25,"velocity":0.3937007874015748},{"duration":0.09375,"midi":55,"time":266.25,"velocity":0.3937007874015748},{"duration":0.09375,"midi":74,"time":266.25,"velocity":0.3937007874015748},{"duration":0.09375,"midi":38,"time":266.25,"velocity":0.3937007874015748},{"duration":0.09375,"midi":48,"time":266.25,"velocity":0.3937007874015748},{"duration":0.09375,"midi":89,"time":266.25,"velocity":0.3937007874015748},{"duration":0.09375,"midi":72,"time":266.25,"velocity":0.3937007874015748},{"duration":0.09375,"midi":57,"time":266.25,"velocity":0.3937007874015748},{"duration":0.09375,"midi":74,"time":266.25,"velocity":0.3937007874015748},{"duration":0.09375,"midi":47,"time":266.25,"velocity":0.3937007874015748},{"duration":0.09375,"midi":57,"time":266.25,"velocity":0.3937007874015748},{"duration":0.09375,"midi":83,"time":266.25,"velocity":0.3937007874015748},{"duration":0.09375,"midi":72,"time":266.25,"velocity":0.3937007874015748},{"duration":0.09375,"midi":33,"time":266.25,"velocity":0.3937007874015748},{"duration":0.09375,"midi":35,"time":266.25,"velocity":0.3937007874015748},{"duration":0.09375,"midi":91,"time":266.25,"velocity":0.3937007874015748},{"duration":0.09375,"midi":91,"time":266.25,"velocity":0.3937007874015748},{"duration":0.09375,"midi":31,"time":266.25,"velocity":0.3937007874015748},{"duration":0.09375,"midi":55,"time":266.25,"velocity":0.3937007874015748},{"duration":0.09375,"midi":89,"time":266.25,"velocity":0.3937007874015748},{"duration":0.09375,"midi":81,"time":266.25,"velocity":0.3937007874015748},{"duration":0.09375,"midi":47,"time":266.34375,"velocity":0.3937007874015748},{"duration":0.09375,"midi":48,"time":266.34375,"velocity":0.3937007874015748},{"duration":0.09375,"midi":36,"time":266.34375,"velocity":0.3937007874015748},{"duration":0.09375,"midi":89,"time":266.34375,"velocity":0.3937007874015748},{"duration":0.09375,"midi":81,"time":266.34375,"velocity":0.3937007874015748},{"duration":0.09375,"midi":72,"time":266.34375,"velocity":0.3937007874015748},{"duration":0.09375,"midi":47,"time":266.34375,"velocity":0.3937007874015748},{"duration":0.09375,"midi":57,"time":266.34375,"velocity":0.3937007874015748},{"duration":0.09375,"midi":57,"time":266.34375,"velocity":0.3937007874015748},{"duration":0.09375,"midi":74,"time":266.34375,"velocity":0.3937007874015748},{"duration":0.09375,"midi":38,"time":266.34375,"velocity":0.3937007874015748},{"duration":0.09375,"midi":40,"time":266.34375,"velocity":0.3937007874015748},{"duration":0.09375,"midi":89,"time":266.34375,"velocity":0.3937007874015748},{"duration":0.09375,"midi":40,"time":266.34375,"velocity":0.3937007874015748},{"duration":0.09375,"midi":38,"time":266.34375,"velocity":0.3937007874015748},{"duration":0.09375,"midi":91,"time":266.34375,"velocity":0.3937007874015748},{"duration":0.09375,"midi":72,"time":266.34375,"velocity":0.3937007874015748},{"duration":0.09375,"midi":91,"time":266.34375,"velocity":0.3937007874015748},{"duration":0.09375,"midi":81,"time":266.34375,"velocity":0.3937007874015748},{"duration":0.09375,"midi":48,"time":266.34375,"velocity":0.3937007874015748},{"duration":0.09375,"midi":83,"time":266.34375,"velocity":0.3937007874015748},{"duration":0.09375,"midi":83,"time":266.34375,"velocity":0.3937007874015748},{"duration":0.09375,"midi":36,"time":266.34375,"velocity":0.3937007874015748},{"duration":0.09375,"midi":55,"time":266.34375,"velocity":0.3937007874015748},{"duration":0.09375,"midi":55,"time":266.34375,"velocity":0.3937007874015748},{"duration":0.09375,"midi":74,"time":266.34375,"velocity":0.3937007874015748},{"duration":0.09375,"midi":35,"time":266.34375,"velocity":0.3937007874015748},{"duration":0.09375,"midi":35,"time":266.34375,"velocity":0.3937007874015748},{"duration":0.09375,"midi":86,"time":266.4375,"velocity":0.3937007874015748},{"duration":0.09375,"midi":72,"time":266.4375,"velocity":0.3937007874015748},{"duration":0.09375,"midi":38,"time":266.4375,"velocity":0.3937007874015748},{"duration":0.09375,"midi":89,"time":266.4375,"velocity":0.3937007874015748},{"duration":0.09375,"midi":57,"time":266.4375,"velocity":0.3937007874015748},{"duration":0.09375,"midi":31,"time":266.4375,"velocity":0.3937007874015748},{"duration":0.09375,"midi":89,"time":266.4375,"velocity":0.3937007874015748},{"duration":0.09375,"midi":86,"time":266.4375,"velocity":0.3937007874015748},{"duration":0.09375,"midi":88,"time":266.4375,"velocity":0.3937007874015748},{"duration":0.09375,"midi":35,"time":266.4375,"velocity":0.3937007874015748},{"duration":0.09375,"midi":31,"time":266.4375,"velocity":0.3937007874015748},{"duration":0.09375,"midi":67,"time":266.4375,"velocity":0.3937007874015748},{"duration":0.09375,"midi":91,"time":266.4375,"velocity":0.3937007874015748},{"duration":0.09375,"midi":84,"time":266.4375,"velocity":0.3937007874015748},{"duration":0.09375,"midi":55,"time":266.4375,"velocity":0.3937007874015748},{"duration":0.09375,"midi":35,"time":266.4375,"velocity":0.3937007874015748},{"duration":0.09375,"midi":57,"time":266.4375,"velocity":0.3937007874015748},{"duration":0.09375,"midi":36,"time":266.4375,"velocity":0.3937007874015748},{"duration":0.09375,"midi":48,"time":266.4375,"velocity":0.3937007874015748},{"duration":0.09375,"midi":71,"time":266.4375,"velocity":0.3937007874015748},{"duration":0.09375,"midi":81,"time":266.4375,"velocity":0.3937007874015748},{"duration":0.09375,"midi":65,"time":266.4375,"velocity":0.3937007874015748},{"duration":0.09375,"midi":69,"time":266.4375,"velocity":0.3937007874015748},{"duration":0.09375,"midi":48,"time":266.4375,"velocity":0.3937007874015748},{"duration":0.09375,"midi":40,"time":266.4375,"velocity":0.3937007874015748},{"duration":0.09375,"midi":36,"time":266.4375,"velocity":0.3937007874015748},{"duration":0.09375,"midi":40,"time":266.4375,"velocity":0.3937007874015748},{"duration":0.09375,"midi":83,"time":266.4375,"velocity":0.3937007874015748},{"duration":0.09375,"midi":47,"time":266.4375,"velocity":0.3937007874015748},{"duration":0.09375,"midi":65,"time":266.4375,"velocity":0.3937007874015748},{"duration":0.09375,"midi":69,"time":266.4375,"velocity":0.3937007874015748},{"duration":0.09375,"midi":84,"time":266.4375,"velocity":0.3937007874015748},{"duration":0.09375,"midi":88,"time":266.4375,"velocity":0.3937007874015748},{"duration":0.09375,"midi":33,"time":266.4375,"velocity":0.3937007874015748},{"duration":0.09375,"midi":71,"time":266.4375,"velocity":0.3937007874015748},{"duration":0.09375,"midi":67,"time":266.4375,"velocity":0.3937007874015748},{"duration":0.09375,"midi":91,"time":266.4375,"velocity":0.3937007874015748},{"duration":0.09375,"midi":47,"time":266.4375,"velocity":0.3937007874015748},{"duration":0.09375,"midi":83,"time":266.4375,"velocity":0.3937007874015748},{"duration":0.09375,"midi":55,"time":266.4375,"velocity":0.3937007874015748},{"duration":0.09375,"midi":72,"time":266.4375,"velocity":0.3937007874015748},{"duration":0.09375,"midi":81,"time":266.4375,"velocity":0.3937007874015748},{"duration":0.09375,"midi":33,"time":266.4375,"velocity":0.3937007874015748},{"duration":0.09375,"midi":38,"time":266.4375,"velocity":0.3937007874015748},{"duration":0.09375,"midi":57,"time":266.53125,"velocity":0.3937007874015748},{"duration":0.09375,"midi":55,"time":266.53125,"velocity":0.3937007874015748},{"duration":0.09375,"midi":47,"time":266.53125,"velocity":0.3937007874015748},{"duration":0.09375,"midi":47,"time":266.53125,"velocity":0.3937007874015748},{"duration":0.09375,"midi":64,"time":266.53125,"velocity":0.3937007874015748},{"duration":0.09375,"midi":38,"time":266.53125,"velocity":0.3937007874015748},{"duration":0.09375,"midi":89,"time":266.53125,"velocity":0.3937007874015748},{"duration":0.09375,"midi":38,"time":266.53125,"velocity":0.3937007874015748},{"duration":0.09375,"midi":81,"time":266.53125,"velocity":0.3937007874015748},{"duration":0.09375,"midi":29,"time":266.53125,"velocity":0.3937007874015748},{"duration":0.09375,"midi":83,"time":266.53125,"velocity":0.3937007874015748},{"duration":0.09375,"midi":83,"time":266.53125,"velocity":0.3937007874015748},{"duration":0.09375,"midi":29,"time":266.53125,"velocity":0.3937007874015748},{"duration":0.09375,"midi":89,"time":266.53125,"velocity":0.3937007874015748},{"duration":0.09375,"midi":31,"time":266.53125,"velocity":0.3937007874015748},{"duration":0.09375,"midi":48,"time":266.53125,"velocity":0.3937007874015748},{"duration":0.09375,"midi":81,"time":266.53125,"velocity":0.3937007874015748},{"duration":0.09375,"midi":48,"time":266.53125,"velocity":0.3937007874015748},{"duration":0.09375,"midi":40,"time":266.53125,"velocity":0.3937007874015748},{"duration":0.09375,"midi":31,"time":266.53125,"velocity":0.3937007874015748},{"duration":0.09375,"midi":57,"time":266.53125,"velocity":0.3937007874015748},{"duration":0.09375,"midi":65,"time":266.53125,"velocity":0.3937007874015748},{"duration":0.09375,"midi":55,"time":266.53125,"velocity":0.3937007874015748},{"duration":0.09375,"midi":91,"time":266.53125,"velocity":0.3937007874015748},{"duration":0.09375,"midi":91,"time":266.53125,"velocity":0.3937007874015748},{"duration":0.09375,"midi":65,"time":266.53125,"velocity":0.3937007874015748},{"duration":0.09375,"midi":40,"time":266.53125,"velocity":0.3937007874015748},{"duration":0.09375,"midi":64,"time":266.53125,"velocity":0.3937007874015748},{"duration":0.09375,"midi":91,"time":266.625,"velocity":0.3937007874015748},{"duration":0.09375,"midi":89,"time":266.625,"velocity":0.3937007874015748},{"duration":0.09375,"midi":55,"time":266.625,"velocity":0.3937007874015748},{"duration":0.09375,"midi":83,"time":266.625,"velocity":0.3937007874015748},{"duration":0.09375,"midi":65,"time":266.625,"velocity":0.3937007874015748},{"duration":0.09375,"midi":81,"time":266.625,"velocity":0.3937007874015748},{"duration":0.09375,"midi":40,"time":266.625,"velocity":0.3937007874015748},{"duration":0.09375,"midi":81,"time":266.625,"velocity":0.3937007874015748},{"duration":0.09375,"midi":89,"time":266.625,"velocity":0.3937007874015748},{"duration":0.09375,"midi":38,"time":266.625,"velocity":0.3937007874015748},{"duration":0.09375,"midi":65,"time":266.625,"velocity":0.3937007874015748},{"duration":0.09375,"midi":64,"time":266.625,"velocity":0.3937007874015748},{"duration":0.09375,"midi":31,"time":266.625,"velocity":0.3937007874015748},{"duration":0.09375,"midi":83,"time":266.625,"velocity":0.3937007874015748},{"duration":0.09375,"midi":47,"time":266.625,"velocity":0.3937007874015748},{"duration":0.09375,"midi":64,"time":266.625,"velocity":0.3937007874015748},{"duration":0.09375,"midi":48,"time":266.625,"velocity":0.3937007874015748},{"duration":0.09375,"midi":38,"time":266.625,"velocity":0.3937007874015748},{"duration":0.09375,"midi":40,"time":266.625,"velocity":0.3937007874015748},{"duration":0.09375,"midi":47,"time":266.625,"velocity":0.3937007874015748},{"duration":0.09375,"midi":57,"time":266.625,"velocity":0.3937007874015748},{"duration":0.09375,"midi":57,"time":266.625,"velocity":0.3937007874015748},{"duration":0.09375,"midi":31,"time":266.625,"velocity":0.3937007874015748},{"duration":0.09375,"midi":91,"time":266.625,"velocity":0.3937007874015748},{"duration":0.09375,"midi":48,"time":266.625,"velocity":0.3937007874015748},{"duration":0.09375,"midi":55,"time":266.625,"velocity":0.3937007874015748},{"duration":0.09375,"midi":29,"time":266.625,"velocity":0.3937007874015748},{"duration":0.09375,"midi":29,"time":266.625,"velocity":0.3937007874015748},{"duration":0.09375,"midi":89,"time":266.71875,"velocity":0.3937007874015748},{"duration":0.09375,"midi":83,"time":266.71875,"velocity":0.3937007874015748},{"duration":0.09375,"midi":33,"time":266.71875,"velocity":0.3937007874015748},{"duration":0.09375,"midi":36,"time":266.71875,"velocity":0.3937007874015748},{"duration":0.09375,"midi":57,"time":266.71875,"velocity":0.3937007874015748},{"duration":0.09375,"midi":67,"time":266.71875,"velocity":0.3937007874015748},{"duration":0.09375,"midi":48,"time":266.71875,"velocity":0.3937007874015748},{"duration":0.09375,"midi":91,"time":266.71875,"velocity":0.3937007874015748},{"duration":0.09375,"midi":65,"time":266.71875,"velocity":0.3937007874015748},{"duration":0.09375,"midi":40,"time":266.71875,"velocity":0.3937007874015748},{"duration":0.09375,"midi":74,"time":266.71875,"velocity":0.3937007874015748},{"duration":0.09375,"midi":47,"time":266.71875,"velocity":0.3937007874015748},{"duration":0.09375,"midi":55,"time":266.71875,"velocity":0.3937007874015748},{"duration":0.09375,"midi":38,"time":266.71875,"velocity":0.3937007874015748},{"duration":0.09375,"midi":33,"time":266.71875,"velocity":0.3937007874015748},{"duration":0.09375,"midi":55,"time":266.71875,"velocity":0.3937007874015748},{"duration":0.09375,"midi":71,"time":266.71875,"velocity":0.3937007874015748},{"duration":0.09375,"midi":65,"time":266.71875,"velocity":0.3937007874015748},{"duration":0.09375,"midi":69,"time":266.71875,"velocity":0.3937007874015748},{"duration":0.09375,"midi":40,"time":266.71875,"velocity":0.3937007874015748},{"duration":0.09375,"midi":72,"time":266.71875,"velocity":0.3937007874015748},{"duration":0.09375,"midi":35,"time":266.71875,"velocity":0.3937007874015748},{"duration":0.09375,"midi":48,"time":266.71875,"velocity":0.3937007874015748},{"duration":0.09375,"midi":38,"time":266.71875,"velocity":0.3937007874015748},{"duration":0.09375,"midi":83,"time":266.71875,"velocity":0.3937007874015748},{"duration":0.09375,"midi":72,"time":266.71875,"velocity":0.3937007874015748},{"duration":0.09375,"midi":81,"time":266.71875,"velocity":0.3937007874015748},{"duration":0.09375,"midi":74,"time":266.71875,"velocity":0.3937007874015748},{"duration":0.09375,"midi":81,"time":266.71875,"velocity":0.3937007874015748},{"duration":0.09375,"midi":35,"time":266.71875,"velocity":0.3937007874015748},{"duration":0.09375,"midi":91,"time":266.71875,"velocity":0.3937007874015748},{"duration":0.09375,"midi":71,"time":266.71875,"velocity":0.3937007874015748},{"duration":0.09375,"midi":57,"time":266.71875,"velocity":0.3937007874015748},{"duration":0.09375,"midi":67,"time":266.71875,"velocity":0.3937007874015748},{"duration":0.09375,"midi":89,"time":266.71875,"velocity":0.3937007874015748},{"duration":0.09375,"midi":36,"time":266.71875,"velocity":0.3937007874015748},{"duration":0.09375,"midi":31,"time":266.71875,"velocity":0.3937007874015748},{"duration":0.09375,"midi":69,"time":266.71875,"velocity":0.3937007874015748},{"duration":0.09375,"midi":31,"time":266.71875,"velocity":0.3937007874015748},{"duration":0.09375,"midi":47,"time":266.71875,"velocity":0.3937007874015748},{"duration":0.09375,"midi":55,"time":269.15625,"velocity":0.3937007874015748},{"duration":0.09375,"midi":65,"time":269.15625,"velocity":0.3937007874015748},{"duration":0.09375,"midi":62,"time":269.15625,"velocity":0.3937007874015748},{"duration":0.09375,"midi":60,"time":269.15625,"velocity":0.3937007874015748},{"duration":0.09375,"midi":55,"time":269.15625,"velocity":0.3937007874015748},{"duration":0.09375,"midi":64,"time":269.15625,"velocity":0.3937007874015748},{"duration":0.09375,"midi":60,"time":269.15625,"velocity":0.3937007874015748},{"duration":0.09375,"midi":59,"time":269.15625,"velocity":0.3937007874015748},{"duration":0.09375,"midi":57,"time":269.15625,"velocity":0.3937007874015748},{"duration":0.09375,"midi":62,"time":269.15625,"velocity":0.3937007874015748},{"duration":0.09375,"midi":65,"time":269.15625,"velocity":0.3937007874015748},{"duration":0.09375,"midi":64,"time":269.15625,"velocity":0.3937007874015748},{"duration":0.09375,"midi":57,"time":269.15625,"velocity":0.3937007874015748},{"duration":0.09375,"midi":59,"time":269.15625,"velocity":0.3937007874015748},{"duration":0.09375,"midi":57,"time":269.25,"velocity":0.3937007874015748},{"duration":0.09375,"midi":57,"time":269.25,"velocity":0.3937007874015748},{"duration":0.09375,"midi":55,"time":269.25,"velocity":0.3937007874015748},{"duration":0.09375,"midi":55,"time":269.25,"velocity":0.3937007874015748},{"duration":0.09375,"midi":55,"time":269.34375,"velocity":0.3937007874015748},{"duration":0.09375,"midi":57,"time":269.34375,"velocity":0.3937007874015748},{"duration":0.09375,"midi":55,"time":269.34375,"velocity":0.3937007874015748},{"duration":0.09375,"midi":57,"time":269.34375,"velocity":0.3937007874015748},{"duration":0.09375,"midi":59,"time":269.4375,"velocity":0.3937007874015748},{"duration":0.09375,"midi":65,"time":269.4375,"velocity":0.3937007874015748},{"duration":0.09375,"midi":62,"time":269.4375,"velocity":0.3937007874015748},{"duration":0.09375,"midi":64,"time":269.4375,"velocity":0.3937007874015748},{"duration":0.09375,"midi":55,"time":269.4375,"velocity":0.3937007874015748},{"duration":0.09375,"midi":62,"time":269.4375,"velocity":0.3937007874015748},{"duration":0.09375,"midi":64,"time":269.4375,"velocity":0.3937007874015748},{"duration":0.09375,"midi":55,"time":269.4375,"velocity":0.3937007874015748},{"duration":0.09375,"midi":57,"time":269.4375,"velocity":0.3937007874015748},{"duration":0.09375,"midi":60,"time":269.4375,"velocity":0.3937007874015748},{"duration":0.09375,"midi":59,"time":269.4375,"velocity":0.3937007874015748},{"duration":0.09375,"midi":57,"time":269.4375,"velocity":0.3937007874015748},{"duration":0.09375,"midi":60,"time":269.4375,"velocity":0.3937007874015748},{"duration":0.09375,"midi":65,"time":269.4375,"velocity":0.3937007874015748},{"duration":0.09375,"midi":55,"time":269.53125,"velocity":0.3937007874015748},{"duration":0.09375,"midi":57,"time":269.53125,"velocity":0.3937007874015748},{"duration":0.09375,"midi":57,"time":269.53125,"velocity":0.3937007874015748},{"duration":0.09375,"midi":55,"time":269.53125,"velocity":0.3937007874015748},{"duration":0.09375,"midi":55,"time":269.625,"velocity":0.3937007874015748},{"duration":0.09375,"midi":55,"time":269.625,"velocity":0.3937007874015748},{"duration":0.09375,"midi":57,"time":269.625,"velocity":0.3937007874015748},{"duration":0.09375,"midi":57,"time":269.625,"velocity":0.3937007874015748},{"duration":0.09375,"midi":64,"time":269.71875,"velocity":0.3937007874015748},{"duration":0.09375,"midi":65,"time":269.71875,"velocity":0.3937007874015748},{"duration":0.09375,"midi":64,"time":269.71875,"velocity":0.3937007874015748},{"duration":0.09375,"midi":60,"time":269.71875,"velocity":0.3937007874015748},{"duration":0.09375,"midi":65,"time":269.71875,"velocity":0.3937007874015748},{"duration":0.09375,"midi":55,"time":269.71875,"velocity":0.3937007874015748},{"duration":0.09375,"midi":57,"time":269.71875,"velocity":0.3937007874015748},{"duration":0.09375,"midi":55,"time":269.71875,"velocity":0.3937007874015748},{"duration":0.09375,"midi":59,"time":269.71875,"velocity":0.3937007874015748},{"duration":0.09375,"midi":57,"time":269.71875,"velocity":0.3937007874015748},{"duration":0.09375,"midi":59,"time":269.71875,"velocity":0.3937007874015748},{"duration":0.09375,"midi":60,"time":269.71875,"velocity":0.3937007874015748},{"duration":0.09375,"midi":62,"time":269.71875,"velocity":0.3937007874015748},{"duration":0.09375,"midi":62,"time":269.71875,"velocity":0.3937007874015748},{"duration":0.09375,"midi":89,"time":272.15625,"velocity":0.3937007874015748},{"duration":0.09375,"midi":83,"time":272.15625,"velocity":0.3937007874015748},{"duration":0.09375,"midi":67,"time":272.15625,"velocity":0.3937007874015748},{"duration":0.09375,"midi":50,"time":272.15625,"velocity":0.3937007874015748},{"duration":0.09375,"midi":38,"time":272.15625,"velocity":0.3937007874015748},{"duration":0.09375,"midi":89,"time":272.15625,"velocity":0.3937007874015748},{"duration":0.09375,"midi":48,"time":272.15625,"velocity":0.3937007874015748},{"duration":0.09375,"midi":50,"time":272.15625,"velocity":0.3937007874015748},{"duration":0.09375,"midi":40,"time":272.15625,"velocity":0.3937007874015748},{"duration":0.09375,"midi":31,"time":272.15625,"velocity":0.3937007874015748},{"duration":0.09375,"midi":52,"time":272.15625,"velocity":0.3937007874015748},{"duration":0.09375,"midi":83,"time":272.15625,"velocity":0.3937007874015748},{"duration":0.09375,"midi":38,"time":272.15625,"velocity":0.3937007874015748},{"duration":0.09375,"midi":81,"time":272.15625,"velocity":0.3937007874015748},{"duration":0.09375,"midi":29,"time":272.15625,"velocity":0.3937007874015748},{"duration":0.09375,"midi":64,"time":272.15625,"velocity":0.3937007874015748},{"duration":0.09375,"midi":31,"time":272.15625,"velocity":0.3937007874015748},{"duration":0.09375,"midi":48,"time":272.15625,"velocity":0.3937007874015748},{"duration":0.09375,"midi":67,"time":272.15625,"velocity":0.3937007874015748},{"duration":0.09375,"midi":72,"time":272.15625,"velocity":0.3937007874015748},{"duration":0.09375,"midi":91,"time":272.15625,"velocity":0.3937007874015748},{"duration":0.09375,"midi":64,"time":272.15625,"velocity":0.3937007874015748},{"duration":0.09375,"midi":69,"time":272.15625,"velocity":0.3937007874015748},{"duration":0.09375,"midi":69,"time":272.15625,"velocity":0.3937007874015748},{"duration":0.09375,"midi":81,"time":272.15625,"velocity":0.3937007874015748},{"duration":0.09375,"midi":53,"time":272.15625,"velocity":0.3937007874015748},{"duration":0.09375,"midi":52,"time":272.15625,"velocity":0.3937007874015748},{"duration":0.09375,"midi":55,"time":272.15625,"velocity":0.3937007874015748},{"duration":0.09375,"midi":72,"time":272.15625,"velocity":0.3937007874015748},{"duration":0.09375,"midi":40,"time":272.15625,"velocity":0.3937007874015748},{"duration":0.09375,"midi":91,"time":272.15625,"velocity":0.3937007874015748},{"duration":0.09375,"midi":29,"time":272.15625,"velocity":0.3937007874015748},{"duration":0.09375,"midi":53,"time":272.15625,"velocity":0.3937007874015748},{"duration":0.09375,"midi":55,"time":272.15625,"velocity":0.3937007874015748},{"duration":0.09375,"midi":65,"time":272.15625,"velocity":0.3937007874015748},{"duration":0.09375,"midi":71,"time":272.15625,"velocity":0.3937007874015748},{"duration":0.09375,"midi":65,"time":272.15625,"velocity":0.3937007874015748},{"duration":0.09375,"midi":71,"time":272.15625,"velocity":0.3937007874015748},{"duration":0.09375,"midi":31,"time":272.25,"velocity":0.3937007874015748},{"duration":0.09375,"midi":47,"time":272.25,"velocity":0.3937007874015748},{"duration":0.09375,"midi":40,"time":272.25,"velocity":0.3937007874015748},{"duration":0.09375,"midi":38,"time":272.25,"velocity":0.3937007874015748},{"duration":0.09375,"midi":83,"time":272.25,"velocity":0.3937007874015748},{"duration":0.09375,"midi":38,"time":272.25,"velocity":0.3937007874015748},{"duration":0.09375,"midi":55,"time":272.25,"velocity":0.3937007874015748},{"duration":0.09375,"midi":57,"time":272.25,"velocity":0.3937007874015748},{"duration":0.09375,"midi":81,"time":272.25,"velocity":0.3937007874015748},{"duration":0.09375,"midi":91,"time":272.25,"velocity":0.3937007874015748},{"duration":0.09375,"midi":31,"time":272.25,"velocity":0.3937007874015748},{"duration":0.09375,"midi":35,"time":272.25,"velocity":0.3937007874015748},{"duration":0.09375,"midi":57,"time":272.25,"velocity":0.3937007874015748},{"duration":0.09375,"midi":89,"time":272.25,"velocity":0.3937007874015748},{"duration":0.09375,"midi":72,"time":272.25,"velocity":0.3937007874015748},{"duration":0.09375,"midi":83,"time":272.25,"velocity":0.3937007874015748},{"duration":0.09375,"midi":81,"time":272.25,"velocity":0.3937007874015748},{"duration":0.09375,"midi":33,"time":272.25,"velocity":0.3937007874015748},{"duration":0.09375,"midi":40,"time":272.25,"velocity":0.3937007874015748},{"duration":0.09375,"midi":33,"time":272.25,"velocity":0.3937007874015748},{"duration":0.09375,"midi":48,"time":272.25,"velocity":0.3937007874015748},{"duration":0.09375,"midi":74,"time":272.25,"velocity":0.3937007874015748},{"duration":0.09375,"midi":89,"time":272.25,"velocity":0.3937007874015748},{"duration":0.09375,"midi":91,"time":272.25,"velocity":0.3937007874015748},{"duration":0.09375,"midi":48,"time":272.25,"velocity":0.3937007874015748},{"duration":0.09375,"midi":47,"time":272.25,"velocity":0.3937007874015748},{"duration":0.09375,"midi":74,"time":272.25,"velocity":0.3937007874015748},{"duration":0.09375,"midi":35,"time":272.25,"velocity":0.3937007874015748},{"duration":0.09375,"midi":72,"time":272.25,"velocity":0.3937007874015748},{"duration":0.09375,"midi":55,"time":272.25,"velocity":0.3937007874015748},{"duration":0.09375,"midi":83,"time":272.34375,"velocity":0.3937007874015748},{"duration":0.09375,"midi":38,"time":272.34375,"velocity":0.3937007874015748},{"duration":0.09375,"midi":36,"time":272.34375,"velocity":0.3937007874015748},{"duration":0.09375,"midi":36,"time":272.34375,"velocity":0.3937007874015748},{"duration":0.09375,"midi":38,"time":272.34375,"velocity":0.3937007874015748},{"duration":0.09375,"midi":47,"time":272.34375,"velocity":0.3937007874015748},{"duration":0.09375,"midi":89,"time":272.34375,"velocity":0.3937007874015748},{"duration":0.09375,"midi":55,"time":272.34375,"velocity":0.3937007874015748},{"duration":0.09375,"midi":91,"time":272.34375,"velocity":0.3937007874015748},{"duration":0.09375,"midi":40,"time":272.34375,"velocity":0.3937007874015748},{"duration":0.09375,"midi":55,"time":272.34375,"velocity":0.3937007874015748},{"duration":0.09375,"midi":47,"time":272.34375,"velocity":0.3937007874015748},{"duration":0.09375,"midi":74,"time":272.34375,"velocity":0.3937007874015748},{"duration":0.09375,"midi":81,"time":272.34375,"velocity":0.3937007874015748},{"duration":0.09375,"midi":48,"time":272.34375,"velocity":0.3937007874015748},{"duration":0.09375,"midi":91,"time":272.34375,"velocity":0.3937007874015748},{"duration":0.09375,"midi":89,"time":272.34375,"velocity":0.3937007874015748},{"duration":0.09375,"midi":81,"time":272.34375,"velocity":0.3937007874015748},{"duration":0.09375,"midi":83,"time":272.34375,"velocity":0.3937007874015748},{"duration":0.09375,"midi":35,"time":272.34375,"velocity":0.3937007874015748},{"duration":0.09375,"midi":74,"time":272.34375,"velocity":0.3937007874015748},{"duration":0.09375,"midi":57,"time":272.34375,"velocity":0.3937007874015748},{"duration":0.09375,"midi":35,"time":272.34375,"velocity":0.3937007874015748},{"duration":0.09375,"midi":48,"time":272.34375,"velocity":0.3937007874015748},{"duration":0.09375,"midi":72,"time":272.34375,"velocity":0.3937007874015748},{"duration":0.09375,"midi":40,"time":272.34375,"velocity":0.3937007874015748},{"duration":0.09375,"midi":57,"time":272.34375,"velocity":0.3937007874015748},{"duration":0.09375,"midi":72,"time":272.34375,"velocity":0.3937007874015748},{"duration":0.09375,"midi":38,"time":272.4375,"velocity":0.3937007874015748},{"duration":0.09375,"midi":40,"time":272.4375,"velocity":0.3937007874015748},{"duration":0.09375,"midi":84,"time":272.4375,"velocity":0.3937007874015748},{"duration":0.09375,"midi":48,"time":272.4375,"velocity":0.3937007874015748},{"duration":0.09375,"midi":31,"time":272.4375,"velocity":0.3937007874015748},{"duration":0.09375,"midi":33,"time":272.4375,"velocity":0.3937007874015748},{"duration":0.09375,"midi":88,"time":272.4375,"velocity":0.3937007874015748},{"duration":0.09375,"midi":91,"time":272.4375,"velocity":0.3937007874015748},{"duration":0.09375,"midi":57,"time":272.4375,"velocity":0.3937007874015748},{"duration":0.09375,"midi":35,"time":272.4375,"velocity":0.3937007874015748},{"duration":0.09375,"midi":86,"time":272.4375,"velocity":0.3937007874015748},{"duration":0.09375,"midi":83,"time":272.4375,"velocity":0.3937007874015748},{"duration":0.09375,"midi":67,"time":272.4375,"velocity":0.3937007874015748},{"duration":0.09375,"midi":36,"time":272.4375,"velocity":0.3937007874015748},{"duration":0.09375,"midi":65,"time":272.4375,"velocity":0.3937007874015748},{"duration":0.09375,"midi":47,"time":272.4375,"velocity":0.3937007874015748},{"duration":0.09375,"midi":84,"time":272.4375,"velocity":0.3937007874015748},{"duration":0.09375,"midi":88,"time":272.4375,"velocity":0.3937007874015748},{"duration":0.09375,"midi":35,"time":272.4375,"velocity":0.3937007874015748},{"duration":0.09375,"midi":81,"time":272.4375,"velocity":0.3937007874015748},{"duration":0.09375,"midi":71,"time":272.4375,"velocity":0.3937007874015748},{"duration":0.09375,"midi":89,"time":272.4375,"velocity":0.3937007874015748},{"duration":0.09375,"midi":91,"time":272.4375,"velocity":0.3937007874015748},{"duration":0.09375,"midi":72,"time":272.4375,"velocity":0.3937007874015748},{"duration":0.09375,"midi":40,"time":272.4375,"velocity":0.3937007874015748},{"duration":0.09375,"midi":72,"time":272.4375,"velocity":0.3937007874015748},{"duration":0.09375,"midi":69,"time":272.4375,"velocity":0.3937007874015748},{"duration":0.09375,"midi":36,"time":272.4375,"velocity":0.3937007874015748},{"duration":0.09375,"midi":55,"time":272.4375,"velocity":0.3937007874015748},{"duration":0.09375,"midi":65,"time":272.4375,"velocity":0.3937007874015748},{"duration":0.09375,"midi":86,"time":272.4375,"velocity":0.3937007874015748},{"duration":0.09375,"midi":69,"time":272.4375,"velocity":0.3937007874015748},{"duration":0.09375,"midi":38,"time":272.4375,"velocity":0.3937007874015748},{"duration":0.09375,"midi":67,"time":272.4375,"velocity":0.3937007874015748},{"duration":0.09375,"midi":33,"time":272.4375,"velocity":0.3937007874015748},{"duration":0.09375,"midi":55,"time":272.4375,"velocity":0.3937007874015748},{"duration":0.09375,"midi":57,"time":272.4375,"velocity":0.3937007874015748},{"duration":0.09375,"midi":81,"time":272.4375,"velocity":0.3937007874015748},{"duration":0.09375,"midi":83,"time":272.4375,"velocity":0.3937007874015748},{"duration":0.09375,"midi":48,"time":272.4375,"velocity":0.3937007874015748},{"duration":0.09375,"midi":71,"time":272.4375,"velocity":0.3937007874015748},{"duration":0.09375,"midi":89,"time":272.4375,"velocity":0.3937007874015748},{"duration":0.09375,"midi":31,"time":272.4375,"velocity":0.3937007874015748},{"duration":0.09375,"midi":47,"time":272.4375,"velocity":0.3937007874015748},{"duration":0.09375,"midi":48,"time":272.53125,"velocity":0.3937007874015748},{"duration":0.09375,"midi":65,"time":272.53125,"velocity":0.3937007874015748},{"duration":0.09375,"midi":38,"time":272.53125,"velocity":0.3937007874015748},{"duration":0.09375,"midi":55,"time":272.53125,"velocity":0.3937007874015748},{"duration":0.09375,"midi":83,"time":272.53125,"velocity":0.3937007874015748},{"duration":0.09375,"midi":89,"time":272.53125,"velocity":0.3937007874015748},{"duration":0.09375,"midi":40,"time":272.53125,"velocity":0.3937007874015748},{"duration":0.09375,"midi":47,"time":272.53125,"velocity":0.3937007874015748},{"duration":0.09375,"midi":38,"time":272.53125,"velocity":0.3937007874015748},{"duration":0.09375,"midi":91,"time":272.53125,"velocity":0.3937007874015748},{"duration":0.09375,"midi":91,"time":272.53125,"velocity":0.3937007874015748},{"duration":0.09375,"midi":48,"time":272.53125,"velocity":0.3937007874015748},{"duration":0.09375,"midi":47,"time":272.53125,"velocity":0.3937007874015748},{"duration":0.09375,"midi":31,"time":272.53125,"velocity":0.3937007874015748},{"duration":0.09375,"midi":83,"time":272.53125,"velocity":0.3937007874015748},{"duration":0.09375,"midi":57,"time":272.53125,"velocity":0.3937007874015748},{"duration":0.09375,"midi":55,"time":272.53125,"velocity":0.3937007874015748},{"duration":0.09375,"midi":81,"time":272.53125,"velocity":0.3937007874015748},{"duration":0.09375,"midi":81,"time":272.53125,"velocity":0.3937007874015748},{"duration":0.09375,"midi":89,"time":272.53125,"velocity":0.3937007874015748},{"duration":0.09375,"midi":65,"time":272.53125,"velocity":0.3937007874015748},{"duration":0.09375,"midi":40,"time":272.53125,"velocity":0.3937007874015748},{"duration":0.09375,"midi":64,"time":272.53125,"velocity":0.3937007874015748},{"duration":0.09375,"midi":64,"time":272.53125,"velocity":0.3937007874015748},{"duration":0.09375,"midi":31,"time":272.53125,"velocity":0.3937007874015748},{"duration":0.09375,"midi":29,"time":272.53125,"velocity":0.3937007874015748},{"duration":0.09375,"midi":57,"time":272.53125,"velocity":0.3937007874015748},{"duration":0.09375,"midi":29,"time":272.53125,"velocity":0.3937007874015748},{"duration":0.09375,"midi":47,"time":272.625,"velocity":0.3937007874015748},{"duration":0.09375,"midi":83,"time":272.625,"velocity":0.3937007874015748},{"duration":0.09375,"midi":89,"time":272.625,"velocity":0.3937007874015748},{"duration":0.09375,"midi":64,"time":272.625,"velocity":0.3937007874015748},{"duration":0.09375,"midi":65,"time":272.625,"velocity":0.3937007874015748},{"duration":0.09375,"midi":55,"time":272.625,"velocity":0.3937007874015748},{"duration":0.09375,"midi":55,"time":272.625,"velocity":0.3937007874015748},{"duration":0.09375,"midi":29,"time":272.625,"velocity":0.3937007874015748},{"duration":0.09375,"midi":29,"time":272.625,"velocity":0.3937007874015748},{"duration":0.09375,"midi":48,"time":272.625,"velocity":0.3937007874015748},{"duration":0.09375,"midi":83,"time":272.625,"velocity":0.3937007874015748},{"duration":0.09375,"midi":91,"time":272.625,"velocity":0.3937007874015748},{"duration":0.09375,"midi":81,"time":272.625,"velocity":0.3937007874015748},{"duration":0.09375,"midi":81,"time":272.625,"velocity":0.3937007874015748},{"duration":0.09375,"midi":91,"time":272.625,"velocity":0.3937007874015748},{"duration":0.09375,"midi":31,"time":272.625,"velocity":0.3937007874015748},{"duration":0.09375,"midi":47,"time":272.625,"velocity":0.3937007874015748},{"duration":0.09375,"midi":31,"time":272.625,"velocity":0.3937007874015748},{"duration":0.09375,"midi":64,"time":272.625,"velocity":0.3937007874015748},{"duration":0.09375,"midi":57,"time":272.625,"velocity":0.3937007874015748},{"duration":0.09375,"midi":89,"time":272.625,"velocity":0.3937007874015748},{"duration":0.09375,"midi":40,"time":272.625,"velocity":0.3937007874015748},{"duration":0.09375,"midi":38,"time":272.625,"velocity":0.3937007874015748},{"duration":0.09375,"midi":57,"time":272.625,"velocity":0.3937007874015748},{"duration":0.09375,"midi":48,"time":272.625,"velocity":0.3937007874015748},{"duration":0.09375,"midi":65,"time":272.625,"velocity":0.3937007874015748},{"duration":0.09375,"midi":38,"time":272.625,"velocity":0.3937007874015748},{"duration":0.09375,"midi":40,"time":272.625,"velocity":0.3937007874015748},{"duration":0.09375,"midi":55,"time":272.71875,"velocity":0.3937007874015748},{"duration":0.09375,"midi":91,"time":272.71875,"velocity":0.3937007874015748},{"duration":0.09375,"midi":81,"time":272.71875,"velocity":0.3937007874015748},{"duration":0.09375,"midi":69,"time":272.71875,"velocity":0.3937007874015748},{"duration":0.09375,"midi":36,"time":272.71875,"velocity":0.3937007874015748},{"duration":0.09375,"midi":72,"time":272.71875,"velocity":0.3937007874015748},{"duration":0.09375,"midi":67,"time":272.71875,"velocity":0.3937007874015748},{"duration":0.09375,"midi":47,"time":272.71875,"velocity":0.3937007874015748},{"duration":0.09375,"midi":69,"time":272.71875,"velocity":0.3937007874015748},{"duration":0.09375,"midi":35,"time":272.71875,"velocity":0.3937007874015748},{"duration":0.09375,"midi":89,"time":272.71875,"velocity":0.3937007874015748},{"duration":0.09375,"midi":36,"time":272.71875,"velocity":0.3937007874015748},{"duration":0.09375,"midi":38,"time":272.71875,"velocity":0.3937007874015748},{"duration":0.09375,"midi":40,"time":272.71875,"velocity":0.3937007874015748},{"duration":0.09375,"midi":48,"time":272.71875,"velocity":0.3937007874015748},{"duration":0.09375,"midi":65,"time":272.71875,"velocity":0.3937007874015748},{"duration":0.09375,"midi":74,"time":272.71875,"velocity":0.3937007874015748},{"duration":0.09375,"midi":38,"time":272.71875,"velocity":0.3937007874015748},{"duration":0.09375,"midi":71,"time":272.71875,"velocity":0.3937007874015748},{"duration":0.09375,"midi":40,"time":272.71875,"velocity":0.3937007874015748},{"duration":0.09375,"midi":83,"time":272.71875,"velocity":0.3937007874015748},{"duration":0.09375,"midi":57,"time":272.71875,"velocity":0.3937007874015748},{"duration":0.09375,"midi":67,"time":272.71875,"velocity":0.3937007874015748},{"duration":0.09375,"midi":35,"time":272.71875,"velocity":0.3937007874015748},{"duration":0.09375,"midi":71,"time":272.71875,"velocity":0.3937007874015748},{"duration":0.09375,"midi":91,"time":272.71875,"velocity":0.3937007874015748},{"duration":0.09375,"midi":48,"time":272.71875,"velocity":0.3937007874015748},{"duration":0.09375,"midi":74,"time":272.71875,"velocity":0.3937007874015748},{"duration":0.09375,"midi":33,"time":272.71875,"velocity":0.3937007874015748},{"duration":0.09375,"midi":55,"time":272.71875,"velocity":0.3937007874015748},{"duration":0.09375,"midi":47,"time":272.71875,"velocity":0.3937007874015748},{"duration":0.09375,"midi":33,"time":272.71875,"velocity":0.3937007874015748},{"duration":0.09375,"midi":83,"time":272.71875,"velocity":0.3937007874015748},{"duration":0.09375,"midi":65,"time":272.71875,"velocity":0.3937007874015748},{"duration":0.09375,"midi":89,"time":272.71875,"velocity":0.3937007874015748},{"duration":0.09375,"midi":81,"time":272.71875,"velocity":0.3937007874015748},{"duration":0.09375,"midi":31,"time":272.71875,"velocity":0.3937007874015748},{"duration":0.09375,"midi":57,"time":272.71875,"velocity":0.3937007874015748},{"duration":0.09375,"midi":72,"time":272.71875,"velocity":0.3937007874015748},{"duration":0.09375,"midi":31,"time":272.71875,"velocity":0.3937007874015748},{"duration":0.09375,"midi":59,"time":275.15625,"velocity":0.3937007874015748},{"duration":0.09375,"midi":65,"time":275.15625,"velocity":0.3937007874015748},{"duration":0.09375,"midi":57,"time":275.15625,"velocity":0.3937007874015748},{"duration":0.09375,"midi":59,"time":275.15625,"velocity":0.3937007874015748},{"duration":0.09375,"midi":65,"time":275.15625,"velocity":0.3937007874015748},{"duration":0.09375,"midi":64,"time":275.15625,"velocity":0.3937007874015748},{"duration":0.09375,"midi":55,"time":275.15625,"velocity":0.3937007874015748},{"duration":0.09375,"midi":60,"time":275.15625,"velocity":0.3937007874015748},{"duration":0.09375,"midi":64,"time":275.15625,"velocity":0.3937007874015748},{"duration":0.09375,"midi":62,"time":275.15625,"velocity":0.3937007874015748},{"duration":0.09375,"midi":62,"time":275.15625,"velocity":0.3937007874015748},{"duration":0.09375,"midi":55,"time":275.15625,"velocity":0.3937007874015748},{"duration":0.09375,"midi":60,"time":275.15625,"velocity":0.3937007874015748},{"duration":0.09375,"midi":57,"time":275.15625,"velocity":0.3937007874015748},{"duration":0.09375,"midi":57,"time":275.25,"velocity":0.3937007874015748},{"duration":0.09375,"midi":55,"time":275.25,"velocity":0.3937007874015748},{"duration":0.09375,"midi":57,"time":275.25,"velocity":0.3937007874015748},{"duration":0.09375,"midi":55,"time":275.25,"velocity":0.3937007874015748},{"duration":0.09375,"midi":55,"time":275.34375,"velocity":0.3937007874015748},{"duration":0.09375,"midi":57,"time":275.34375,"velocity":0.3937007874015748},{"duration":0.09375,"midi":55,"time":275.34375,"velocity":0.3937007874015748},{"duration":0.09375,"midi":57,"time":275.34375,"velocity":0.3937007874015748},{"duration":0.09375,"midi":59,"time":275.4375,"velocity":0.3937007874015748},{"duration":0.09375,"midi":59,"time":275.4375,"velocity":0.3937007874015748},{"duration":0.09375,"midi":65,"time":275.4375,"velocity":0.3937007874015748},{"duration":0.09375,"midi":64,"time":275.4375,"velocity":0.3937007874015748},{"duration":0.09375,"midi":55,"time":275.4375,"velocity":0.3937007874015748},{"duration":0.09375,"midi":62,"time":275.4375,"velocity":0.3937007874015748},{"duration":0.09375,"midi":64,"time":275.4375,"velocity":0.3937007874015748},{"duration":0.09375,"midi":65,"time":275.4375,"velocity":0.3937007874015748},{"duration":0.09375,"midi":60,"time":275.4375,"velocity":0.3937007874015748},{"duration":0.09375,"midi":57,"time":275.4375,"velocity":0.3937007874015748},{"duration":0.09375,"midi":57,"time":275.4375,"velocity":0.3937007874015748},{"duration":0.09375,"midi":55,"time":275.4375,"velocity":0.3937007874015748},{"duration":0.09375,"midi":60,"time":275.4375,"velocity":0.3937007874015748},{"duration":0.09375,"midi":62,"time":275.4375,"velocity":0.3937007874015748},{"duration":0.09375,"midi":57,"time":275.53125,"velocity":0.3937007874015748},{"duration":0.09375,"midi":55,"time":275.53125,"velocity":0.3937007874015748},{"duration":0.09375,"midi":57,"time":275.53125,"velocity":0.3937007874015748},{"duration":0.09375,"midi":55,"time":275.53125,"velocity":0.3937007874015748},{"duration":0.09375,"midi":57,"time":275.625,"velocity":0.3937007874015748},{"duration":0.09375,"midi":57,"time":275.625,"velocity":0.3937007874015748},{"duration":0.09375,"midi":55,"time":275.625,"velocity":0.3937007874015748},{"duration":0.09375,"midi":55,"time":275.625,"velocity":0.3937007874015748},{"duration":0.09375,"midi":62,"time":275.71875,"velocity":0.3937007874015748},{"duration":0.09375,"midi":64,"time":275.71875,"velocity":0.3937007874015748},{"duration":0.09375,"midi":62,"time":275.71875,"velocity":0.3937007874015748},{"duration":0.09375,"midi":59,"time":275.71875,"velocity":0.3937007874015748},{"duration":0.09375,"midi":57,"time":275.71875,"velocity":0.3937007874015748},{"duration":0.09375,"midi":60,"time":275.71875,"velocity":0.3937007874015748},{"duration":0.09375,"midi":59,"time":275.71875,"velocity":0.3937007874015748},{"duration":0.09375,"midi":55,"time":275.71875,"velocity":0.3937007874015748},{"duration":0.09375,"midi":65,"time":275.71875,"velocity":0.3937007874015748},{"duration":0.09375,"midi":65,"time":275.71875,"velocity":0.3937007874015748},{"duration":0.09375,"midi":55,"time":275.71875,"velocity":0.3937007874015748},{"duration":0.09375,"midi":57,"time":275.71875,"velocity":0.3937007874015748},{"duration":0.09375,"midi":60,"time":275.71875,"velocity":0.3937007874015748},{"duration":0.09375,"midi":64,"time":275.71875,"velocity":0.3937007874015748},{"duration":0.09375,"midi":40,"time":278.15625,"velocity":0.3937007874015748},{"duration":0.09375,"midi":31,"time":278.15625,"velocity":0.3937007874015748},{"duration":0.09375,"midi":38,"time":278.15625,"velocity":0.3937007874015748},{"duration":0.09375,"midi":52,"time":278.15625,"velocity":0.3937007874015748},{"duration":0.09375,"midi":89,"time":278.15625,"velocity":0.3937007874015748},{"duration":0.09375,"midi":83,"time":278.15625,"velocity":0.3937007874015748},{"duration":0.09375,"midi":91,"time":278.15625,"velocity":0.3937007874015748},{"duration":0.09375,"midi":67,"time":278.15625,"velocity":0.3937007874015748},{"duration":0.09375,"midi":65,"time":278.15625,"velocity":0.3937007874015748},{"duration":0.09375,"midi":72,"time":278.15625,"velocity":0.3937007874015748},{"duration":0.09375,"midi":71,"time":278.15625,"velocity":0.3937007874015748},{"duration":0.09375,"midi":65,"time":278.15625,"velocity":0.3937007874015748},{"duration":0.09375,"midi":64,"time":278.15625,"velocity":0.3937007874015748},{"duration":0.09375,"midi":29,"time":278.15625,"velocity":0.3937007874015748},{"duration":0.09375,"midi":72,"time":278.15625,"velocity":0.3937007874015748},{"duration":0.09375,"midi":83,"time":278.15625,"velocity":0.3937007874015748},{"duration":0.09375,"midi":81,"time":278.15625,"velocity":0.3937007874015748},{"duration":0.09375,"midi":69,"time":278.15625,"velocity":0.3937007874015748},{"duration":0.09375,"midi":55,"time":278.15625,"velocity":0.3937007874015748},{"duration":0.09375,"midi":71,"time":278.15625,"velocity":0.3937007874015748},{"duration":0.09375,"midi":91,"time":278.15625,"velocity":0.3937007874015748},{"duration":0.09375,"midi":50,"time":278.15625,"velocity":0.3937007874015748},{"duration":0.09375,"midi":38,"time":278.15625,"velocity":0.3937007874015748},{"duration":0.09375,"midi":53,"time":278.15625,"velocity":0.3937007874015748},{"duration":0.09375,"midi":48,"time":278.15625,"velocity":0.3937007874015748},{"duration":0.09375,"midi":64,"time":278.15625,"velocity":0.3937007874015748},{"duration":0.09375,"midi":53,"time":278.15625,"velocity":0.3937007874015748},{"duration":0.09375,"midi":89,"time":278.15625,"velocity":0.3937007874015748},{"duration":0.09375,"midi":31,"time":278.15625,"velocity":0.3937007874015748},{"duration":0.09375,"midi":40,"time":278.15625,"velocity":0.3937007874015748},{"duration":0.09375,"midi":55,"time":278.15625,"velocity":0.3937007874015748},{"duration":0.09375,"midi":67,"time":278.15625,"velocity":0.3937007874015748},{"duration":0.09375,"midi":48,"time":278.15625,"velocity":0.3937007874015748},{"duration":0.09375,"midi":52,"time":278.15625,"velocity":0.3937007874015748},{"duration":0.09375,"midi":50,"time":278.15625,"velocity":0.3937007874015748},{"duration":0.09375,"midi":29,"time":278.15625,"velocity":0.3937007874015748},{"duration":0.09375,"midi":69,"time":278.15625,"velocity":0.3937007874015748},{"duration":0.09375,"midi":81,"time":278.15625,"velocity":0.3937007874015748},{"duration":0.09375,"midi":47,"time":278.25,"velocity":0.3937007874015748},{"duration":0.09375,"midi":47,"time":278.25,"velocity":0.3937007874015748},{"duration":0.09375,"midi":55,"time":278.25,"velocity":0.3937007874015748},{"duration":0.09375,"midi":89,"time":278.25,"velocity":0.3937007874015748},{"duration":0.09375,"midi":57,"time":278.25,"velocity":0.3937007874015748},{"duration":0.09375,"midi":74,"time":278.25,"velocity":0.3937007874015748},{"duration":0.09375,"midi":81,"time":278.25,"velocity":0.3937007874015748},{"duration":0.09375,"midi":35,"time":278.25,"velocity":0.3937007874015748},{"duration":0.09375,"midi":33,"time":278.25,"velocity":0.3937007874015748},{"duration":0.09375,"midi":48,"time":278.25,"velocity":0.3937007874015748},{"duration":0.09375,"midi":33,"time":278.25,"velocity":0.3937007874015748},{"duration":0.09375,"midi":83,"time":278.25,"velocity":0.3937007874015748},{"duration":0.09375,"midi":91,"time":278.25,"velocity":0.3937007874015748},{"duration":0.09375,"midi":72,"time":278.25,"velocity":0.3937007874015748},{"duration":0.09375,"midi":72,"time":278.25,"velocity":0.3937007874015748},{"duration":0.09375,"midi":40,"time":278.25,"velocity":0.3937007874015748},{"duration":0.09375,"midi":91,"time":278.25,"velocity":0.3937007874015748},{"duration":0.09375,"midi":89,"time":278.25,"velocity":0.3937007874015748},{"duration":0.09375,"midi":35,"time":278.25,"velocity":0.3937007874015748},{"duration":0.09375,"midi":38,"time":278.25,"velocity":0.3937007874015748},{"duration":0.09375,"midi":57,"time":278.25,"velocity":0.3937007874015748},{"duration":0.09375,"midi":38,"time":278.25,"velocity":0.3937007874015748},{"duration":0.09375,"midi":74,"time":278.25,"velocity":0.3937007874015748},{"duration":0.09375,"midi":55,"time":278.25,"velocity":0.3937007874015748},{"duration":0.09375,"midi":31,"time":278.25,"velocity":0.3937007874015748},{"duration":0.09375,"midi":83,"time":278.25,"velocity":0.3937007874015748},{"duration":0.09375,"midi":40,"time":278.25,"velocity":0.3937007874015748},{"duration":0.09375,"midi":48,"time":278.25,"velocity":0.3937007874015748},{"duration":0.09375,"midi":81,"time":278.25,"velocity":0.3937007874015748},{"duration":0.09375,"midi":31,"time":278.25,"velocity":0.3937007874015748},{"duration":0.09375,"midi":48,"time":278.34375,"velocity":0.3937007874015748},{"duration":0.09375,"midi":72,"time":278.34375,"velocity":0.3937007874015748},{"duration":0.09375,"midi":72,"time":278.34375,"velocity":0.3937007874015748},{"duration":0.09375,"midi":74,"time":278.34375,"velocity":0.3937007874015748},{"duration":0.09375,"midi":35,"time":278.34375,"velocity":0.3937007874015748},{"duration":0.09375,"midi":47,"time":278.34375,"velocity":0.3937007874015748},{"duration":0.09375,"midi":38,"time":278.34375,"velocity":0.3937007874015748},{"duration":0.09375,"midi":81,"time":278.34375,"velocity":0.3937007874015748},{"duration":0.09375,"midi":81,"time":278.34375,"velocity":0.3937007874015748},{"duration":0.09375,"midi":91,"time":278.34375,"velocity":0.3937007874015748},{"duration":0.09375,"midi":57,"time":278.34375,"velocity":0.3937007874015748},{"duration":0.09375,"midi":36,"time":278.34375,"velocity":0.3937007874015748},{"duration":0.09375,"midi":83,"time":278.34375,"velocity":0.3937007874015748},{"duration":0.09375,"midi":40,"time":278.34375,"velocity":0.3937007874015748},{"duration":0.09375,"midi":35,"time":278.34375,"velocity":0.3937007874015748},{"duration":0.09375,"midi":55,"time":278.34375,"velocity":0.3937007874015748},{"duration":0.09375,"midi":89,"time":278.34375,"velocity":0.3937007874015748},{"duration":0.09375,"midi":74,"time":278.34375,"velocity":0.3937007874015748},{"duration":0.09375,"midi":48,"time":278.34375,"velocity":0.3937007874015748},{"duration":0.09375,"midi":38,"time":278.34375,"velocity":0.3937007874015748},{"duration":0.09375,"midi":83,"time":278.34375,"velocity":0.3937007874015748},{"duration":0.09375,"midi":89,"time":278.34375,"velocity":0.3937007874015748},{"duration":0.09375,"midi":40,"time":278.34375,"velocity":0.3937007874015748},{"duration":0.09375,"midi":55,"time":278.34375,"velocity":0.3937007874015748},{"duration":0.09375,"midi":47,"time":278.34375,"velocity":0.3937007874015748},{"duration":0.09375,"midi":57,"time":278.34375,"velocity":0.3937007874015748},{"duration":0.09375,"midi":36,"time":278.34375,"velocity":0.3937007874015748},{"duration":0.09375,"midi":91,"time":278.34375,"velocity":0.3937007874015748},{"duration":0.09375,"midi":48,"time":278.4375,"velocity":0.3937007874015748},{"duration":0.09375,"midi":38,"time":278.4375,"velocity":0.3937007874015748},{"duration":0.09375,"midi":84,"time":278.4375,"velocity":0.3937007874015748},{"duration":0.09375,"midi":55,"time":278.4375,"velocity":0.3937007874015748},{"duration":0.09375,"midi":33,"time":278.4375,"velocity":0.3937007874015748},{"duration":0.09375,"midi":88,"time":278.4375,"velocity":0.3937007874015748},{"duration":0.09375,"midi":35,"time":278.4375,"velocity":0.3937007874015748},{"duration":0.09375,"midi":33,"time":278.4375,"velocity":0.3937007874015748},{"duration":0.09375,"midi":83,"time":278.4375,"velocity":0.3937007874015748},{"duration":0.09375,"midi":69,"time":278.4375,"velocity":0.3937007874015748},{"duration":0.09375,"midi":84,"time":278.4375,"velocity":0.3937007874015748},{"duration":0.09375,"midi":40,"time":278.4375,"velocity":0.3937007874015748},{"duration":0.09375,"midi":83,"time":278.4375,"velocity":0.3937007874015748},{"duration":0.09375,"midi":67,"time":278.4375,"velocity":0.3937007874015748},{"duration":0.09375,"midi":86,"time":278.4375,"velocity":0.3937007874015748},{"duration":0.09375,"midi":69,"time":278.4375,"velocity":0.3937007874015748},{"duration":0.09375,"midi":35,"time":278.4375,"velocity":0.3937007874015748},{"duration":0.09375,"midi":65,"time":278.4375,"velocity":0.3937007874015748},{"duration":0.09375,"midi":47,"time":278.4375,"velocity":0.3937007874015748},{"duration":0.09375,"midi":86,"time":278.4375,"velocity":0.3937007874015748},{"duration":0.09375,"midi":55,"time":278.4375,"velocity":0.3937007874015748},{"duration":0.09375,"midi":71,"time":278.4375,"velocity":0.3937007874015748},{"duration":0.09375,"midi":47,"time":278.4375,"velocity":0.3937007874015748},{"duration":0.09375,"midi":89,"time":278.4375,"velocity":0.3937007874015748},{"duration":0.09375,"midi":57,"time":278.4375,"velocity":0.3937007874015748},{"duration":0.09375,"midi":36,"time":278.4375,"velocity":0.3937007874015748},{"duration":0.09375,"midi":88,"time":278.4375,"velocity":0.3937007874015748},{"duration":0.09375,"midi":71,"time":278.4375,"velocity":0.3937007874015748},{"duration":0.09375,"midi":31,"time":278.4375,"velocity":0.3937007874015748},{"duration":0.09375,"midi":91,"time":278.4375,"velocity":0.3937007874015748},{"duration":0.09375,"midi":40,"time":278.4375,"velocity":0.3937007874015748},{"duration":0.09375,"midi":65,"time":278.4375,"velocity":0.3937007874015748},{"duration":0.09375,"midi":48,"time":278.4375,"velocity":0.3937007874015748},{"duration":0.09375,"midi":72,"time":278.4375,"velocity":0.3937007874015748},{"duration":0.09375,"midi":38,"time":278.4375,"velocity":0.3937007874015748},{"duration":0.09375,"midi":81,"time":278.4375,"velocity":0.3937007874015748},{"duration":0.09375,"midi":72,"time":278.4375,"velocity":0.3937007874015748},{"duration":0.09375,"midi":36,"time":278.4375,"velocity":0.3937007874015748},{"duration":0.09375,"midi":81,"time":278.4375,"velocity":0.3937007874015748},{"duration":0.09375,"midi":57,"time":278.4375,"velocity":0.3937007874015748},{"duration":0.09375,"midi":91,"time":278.4375,"velocity":0.3937007874015748},{"duration":0.09375,"midi":89,"time":278.4375,"velocity":0.3937007874015748},{"duration":0.09375,"midi":31,"time":278.4375,"velocity":0.3937007874015748},{"duration":0.09375,"midi":67,"time":278.4375,"velocity":0.3937007874015748},{"duration":0.09375,"midi":83,"time":278.53125,"velocity":0.3937007874015748},{"duration":0.09375,"midi":81,"time":278.53125,"velocity":0.3937007874015748},{"duration":0.09375,"midi":40,"time":278.53125,"velocity":0.3937007874015748},{"duration":0.09375,"midi":81,"time":278.53125,"velocity":0.3937007874015748},{"duration":0.09375,"midi":38,"time":278.53125,"velocity":0.3937007874015748},{"duration":0.09375,"midi":38,"time":278.53125,"velocity":0.3937007874015748},{"duration":0.09375,"midi":83,"time":278.53125,"velocity":0.3937007874015748},{"duration":0.09375,"midi":55,"time":278.53125,"velocity":0.3937007874015748},{"duration":0.09375,"midi":48,"time":278.53125,"velocity":0.3937007874015748},{"duration":0.09375,"midi":29,"time":278.53125,"velocity":0.3937007874015748},{"duration":0.09375,"midi":48,"time":278.53125,"velocity":0.3937007874015748},{"duration":0.09375,"midi":47,"time":278.53125,"velocity":0.3937007874015748},{"duration":0.09375,"midi":55,"time":278.53125,"velocity":0.3937007874015748},{"duration":0.09375,"midi":91,"time":278.53125,"velocity":0.3937007874015748},{"duration":0.09375,"midi":65,"time":278.53125,"velocity":0.3937007874015748},{"duration":0.09375,"midi":91,"time":278.53125,"velocity":0.3937007874015748},{"duration":0.09375,"midi":65,"time":278.53125,"velocity":0.3937007874015748},{"duration":0.09375,"midi":31,"time":278.53125,"velocity":0.3937007874015748},{"duration":0.09375,"midi":57,"time":278.53125,"velocity":0.3937007874015748},{"duration":0.09375,"midi":40,"time":278.53125,"velocity":0.3937007874015748},{"duration":0.09375,"midi":47,"time":278.53125,"velocity":0.3937007874015748},{"duration":0.09375,"midi":64,"time":278.53125,"velocity":0.3937007874015748},{"duration":0.09375,"midi":89,"time":278.53125,"velocity":0.3937007874015748},{"duration":0.09375,"midi":64,"time":278.53125,"velocity":0.3937007874015748},{"duration":0.09375,"midi":89,"time":278.53125,"velocity":0.3937007874015748},{"duration":0.09375,"midi":57,"time":278.53125,"velocity":0.3937007874015748},{"duration":0.09375,"midi":31,"time":278.53125,"velocity":0.3937007874015748},{"duration":0.09375,"midi":29,"time":278.53125,"velocity":0.3937007874015748},{"duration":0.09375,"midi":48,"time":278.625,"velocity":0.3937007874015748},{"duration":0.09375,"midi":65,"time":278.625,"velocity":0.3937007874015748},{"duration":0.09375,"midi":55,"time":278.625,"velocity":0.3937007874015748},{"duration":0.09375,"midi":47,"time":278.625,"velocity":0.3937007874015748},{"duration":0.09375,"midi":57,"time":278.625,"velocity":0.3937007874015748},{"duration":0.09375,"midi":38,"time":278.625,"velocity":0.3937007874015748},{"duration":0.09375,"midi":81,"time":278.625,"velocity":0.3937007874015748},{"duration":0.09375,"midi":55,"time":278.625,"velocity":0.3937007874015748},{"duration":0.09375,"midi":89,"time":278.625,"velocity":0.3937007874015748},{"duration":0.09375,"midi":57,"time":278.625,"velocity":0.3937007874015748},{"duration":0.09375,"midi":47,"time":278.625,"velocity":0.3937007874015748},{"duration":0.09375,"midi":91,"time":278.625,"velocity":0.3937007874015748},{"duration":0.09375,"midi":64,"time":278.625,"velocity":0.3937007874015748},{"duration":0.09375,"midi":40,"time":278.625,"velocity":0.3937007874015748},{"duration":0.09375,"midi":83,"time":278.625,"velocity":0.3937007874015748},{"duration":0.09375,"midi":31,"time":278.625,"velocity":0.3937007874015748},{"duration":0.09375,"midi":31,"time":278.625,"velocity":0.3937007874015748},{"duration":0.09375,"midi":38,"time":278.625,"velocity":0.3937007874015748},{"duration":0.09375,"midi":81,"time":278.625,"velocity":0.3937007874015748},{"duration":0.09375,"midi":40,"time":278.625,"velocity":0.3937007874015748},{"duration":0.09375,"midi":89,"time":278.625,"velocity":0.3937007874015748},{"duration":0.09375,"midi":83,"time":278.625,"velocity":0.3937007874015748},{"duration":0.09375,"midi":65,"time":278.625,"velocity":0.3937007874015748},{"duration":0.09375,"midi":29,"time":278.625,"velocity":0.3937007874015748},{"duration":0.09375,"midi":29,"time":278.625,"velocity":0.3937007874015748},{"duration":0.09375,"midi":91,"time":278.625,"velocity":0.3937007874015748},{"duration":0.09375,"midi":48,"time":278.625,"velocity":0.3937007874015748},{"duration":0.09375,"midi":64,"time":278.625,"velocity":0.3937007874015748},{"duration":0.09375,"midi":55,"time":278.71875,"velocity":0.3937007874015748},{"duration":0.09375,"midi":89,"time":278.71875,"velocity":0.3937007874015748},{"duration":0.09375,"midi":48,"time":278.71875,"velocity":0.3937007874015748},{"duration":0.09375,"midi":69,"time":278.71875,"velocity":0.3937007874015748},{"duration":0.09375,"midi":67,"time":278.71875,"velocity":0.3937007874015748},{"duration":0.09375,"midi":38,"time":278.71875,"velocity":0.3937007874015748},{"duration":0.09375,"midi":69,"time":278.71875,"velocity":0.3937007874015748},{"duration":0.09375,"midi":81,"time":278.71875,"velocity":0.3937007874015748},{"duration":0.09375,"midi":36,"time":278.71875,"velocity":0.3937007874015748},{"duration":0.09375,"midi":55,"time":278.71875,"velocity":0.3937007874015748},{"duration":0.09375,"midi":71,"time":278.71875,"velocity":0.3937007874015748},{"duration":0.09375,"midi":31,"time":278.71875,"velocity":0.3937007874015748},{"duration":0.09375,"midi":91,"time":278.71875,"velocity":0.3937007874015748},{"duration":0.09375,"midi":89,"time":278.71875,"velocity":0.3937007874015748},{"duration":0.09375,"midi":47,"time":278.71875,"velocity":0.3937007874015748},{"duration":0.09375,"midi":35,"time":278.71875,"velocity":0.3937007874015748},{"duration":0.09375,"midi":40,"time":278.71875,"velocity":0.3937007874015748},{"duration":0.09375,"midi":91,"time":278.71875,"velocity":0.3937007874015748},{"duration":0.09375,"midi":38,"time":278.71875,"velocity":0.3937007874015748},{"duration":0.09375,"midi":57,"time":278.71875,"velocity":0.3937007874015748},{"duration":0.09375,"midi":83,"time":278.71875,"velocity":0.3937007874015748},{"duration":0.09375,"midi":47,"time":278.71875,"velocity":0.3937007874015748},{"duration":0.09375,"midi":74,"time":278.71875,"velocity":0.3937007874015748},{"duration":0.09375,"midi":71,"time":278.71875,"velocity":0.3937007874015748},{"duration":0.09375,"midi":81,"time":278.71875,"velocity":0.3937007874015748},{"duration":0.09375,"midi":48,"time":278.71875,"velocity":0.3937007874015748},{"duration":0.09375,"midi":57,"time":278.71875,"velocity":0.3937007874015748},{"duration":0.09375,"midi":65,"time":278.71875,"velocity":0.3937007874015748},{"duration":0.09375,"midi":72,"time":278.71875,"velocity":0.3937007874015748},{"duration":0.09375,"midi":33,"time":278.71875,"velocity":0.3937007874015748},{"duration":0.09375,"midi":72,"time":278.71875,"velocity":0.3937007874015748},{"duration":0.09375,"midi":31,"time":278.71875,"velocity":0.3937007874015748},{"duration":0.09375,"midi":65,"time":278.71875,"velocity":0.3937007874015748},{"duration":0.09375,"midi":67,"time":278.71875,"velocity":0.3937007874015748},{"duration":0.09375,"midi":36,"time":278.71875,"velocity":0.3937007874015748},{"duration":0.09375,"midi":83,"time":278.71875,"velocity":0.3937007874015748},{"duration":0.09375,"midi":40,"time":278.71875,"velocity":0.3937007874015748},{"duration":0.09375,"midi":74,"time":278.71875,"velocity":0.3937007874015748},{"duration":0.09375,"midi":35,"time":278.71875,"velocity":0.3937007874015748},{"duration":0.09375,"midi":33,"time":278.71875,"velocity":0.3937007874015748},{"duration":0.09375,"midi":65,"time":281.15625,"velocity":0.3937007874015748},{"duration":0.09375,"midi":64,"time":281.15625,"velocity":0.3937007874015748},{"duration":0.09375,"midi":64,"time":281.15625,"velocity":0.3937007874015748},{"duration":0.09375,"midi":55,"time":281.15625,"velocity":0.3937007874015748},{"duration":0.09375,"midi":59,"time":281.15625,"velocity":0.3937007874015748},{"duration":0.09375,"midi":65,"time":281.15625,"velocity":0.3937007874015748},{"duration":0.09375,"midi":57,"time":281.15625,"velocity":0.3937007874015748},{"duration":0.09375,"midi":62,"time":281.15625,"velocity":0.3937007874015748},{"duration":0.09375,"midi":62,"time":281.15625,"velocity":0.3937007874015748},{"duration":0.09375,"midi":60,"time":281.15625,"velocity":0.3937007874015748},{"duration":0.09375,"midi":60,"time":281.15625,"velocity":0.3937007874015748},{"duration":0.09375,"midi":59,"time":281.15625,"velocity":0.3937007874015748},{"duration":0.09375,"midi":55,"time":281.15625,"velocity":0.3937007874015748},{"duration":0.09375,"midi":57,"time":281.15625,"velocity":0.3937007874015748},{"duration":0.09375,"midi":57,"time":281.25,"velocity":0.3937007874015748},{"duration":0.09375,"midi":55,"time":281.25,"velocity":0.3937007874015748},{"duration":0.09375,"midi":57,"time":281.25,"velocity":0.3937007874015748},{"duration":0.09375,"midi":55,"time":281.25,"velocity":0.3937007874015748},{"duration":0.09375,"midi":57,"time":281.34375,"velocity":0.3937007874015748},{"duration":0.09375,"midi":55,"time":281.34375,"velocity":0.3937007874015748},{"duration":0.09375,"midi":57,"time":281.34375,"velocity":0.3937007874015748},{"duration":0.09375,"midi":55,"time":281.34375,"velocity":0.3937007874015748},{"duration":0.09375,"midi":64,"time":281.4375,"velocity":0.3937007874015748},{"duration":0.09375,"midi":57,"time":281.4375,"velocity":0.3937007874015748},{"duration":0.09375,"midi":59,"time":281.4375,"velocity":0.3937007874015748},{"duration":0.09375,"midi":57,"time":281.4375,"velocity":0.3937007874015748},{"duration":0.09375,"midi":65,"time":281.4375,"velocity":0.3937007874015748},{"duration":0.09375,"midi":59,"time":281.4375,"velocity":0.3937007874015748},{"duration":0.09375,"midi":60,"time":281.4375,"velocity":0.3937007874015748},{"duration":0.09375,"midi":55,"time":281.4375,"velocity":0.3937007874015748},{"duration":0.09375,"midi":62,"time":281.4375,"velocity":0.3937007874015748},{"duration":0.09375,"midi":64,"time":281.4375,"velocity":0.3937007874015748},{"duration":0.09375,"midi":55,"time":281.4375,"velocity":0.3937007874015748},{"duration":0.09375,"midi":62,"time":281.4375,"velocity":0.3937007874015748},{"duration":0.09375,"midi":65,"time":281.4375,"velocity":0.3937007874015748},{"duration":0.09375,"midi":60,"time":281.4375,"velocity":0.3937007874015748},{"duration":0.09375,"midi":57,"time":281.53125,"velocity":0.3937007874015748},{"duration":0.09375,"midi":57,"time":281.53125,"velocity":0.3937007874015748},{"duration":0.09375,"midi":55,"time":281.53125,"velocity":0.3937007874015748},{"duration":0.09375,"midi":55,"time":281.53125,"velocity":0.3937007874015748},{"duration":0.09375,"midi":57,"time":281.625,"velocity":0.3937007874015748},{"duration":0.09375,"midi":55,"time":281.625,"velocity":0.3937007874015748},{"duration":0.09375,"midi":55,"time":281.625,"velocity":0.3937007874015748},{"duration":0.09375,"midi":57,"time":281.625,"velocity":0.3937007874015748},{"duration":0.09375,"midi":65,"time":281.71875,"velocity":0.3937007874015748},{"duration":0.09375,"midi":62,"time":281.71875,"velocity":0.3937007874015748},{"duration":0.09375,"midi":59,"time":281.71875,"velocity":0.3937007874015748},{"duration":0.09375,"midi":57,"time":281.71875,"velocity":0.3937007874015748},{"duration":0.09375,"midi":55,"time":281.71875,"velocity":0.3937007874015748},{"duration":0.09375,"midi":55,"time":281.71875,"velocity":0.3937007874015748},{"duration":0.09375,"midi":62,"time":281.71875,"velocity":0.3937007874015748},{"duration":0.09375,"midi":64,"time":281.71875,"velocity":0.3937007874015748},{"duration":0.09375,"midi":60,"time":281.71875,"velocity":0.3937007874015748},{"duration":0.09375,"midi":59,"time":281.71875,"velocity":0.3937007874015748},{"duration":0.09375,"midi":57,"time":281.71875,"velocity":0.3937007874015748},{"duration":0.09375,"midi":60,"time":281.71875,"velocity":0.3937007874015748},{"duration":0.09375,"midi":64,"time":281.71875,"velocity":0.3937007874015748},{"duration":0.09375,"midi":65,"time":281.71875,"velocity":0.3937007874015748},{"duration":0.09375,"midi":81,"time":284.15625,"velocity":0.3937007874015748},{"duration":0.09375,"midi":81,"time":284.15625,"velocity":0.3937007874015748},{"duration":0.09375,"midi":53,"time":284.15625,"velocity":0.3937007874015748},{"duration":0.09375,"midi":50,"time":284.15625,"velocity":0.3937007874015748},{"duration":0.09375,"midi":72,"time":284.15625,"velocity":0.3937007874015748},{"duration":0.09375,"midi":55,"time":284.15625,"velocity":0.3937007874015748},{"duration":0.09375,"midi":40,"time":284.15625,"velocity":0.3937007874015748},{"duration":0.09375,"midi":83,"time":284.15625,"velocity":0.3937007874015748},{"duration":0.09375,"midi":67,"time":284.15625,"velocity":0.3937007874015748},{"duration":0.09375,"midi":38,"time":284.15625,"velocity":0.3937007874015748},{"duration":0.09375,"midi":55,"time":284.15625,"velocity":0.3937007874015748},{"duration":0.09375,"midi":31,"time":284.15625,"velocity":0.3937007874015748},{"duration":0.09375,"midi":29,"time":284.15625,"velocity":0.3937007874015748},{"duration":0.09375,"midi":91,"time":284.15625,"velocity":0.3937007874015748},{"duration":0.09375,"midi":29,"time":284.15625,"velocity":0.3937007874015748},{"duration":0.09375,"midi":31,"time":284.15625,"velocity":0.3937007874015748},{"duration":0.09375,"midi":69,"time":284.15625,"velocity":0.3937007874015748},{"duration":0.09375,"midi":52,"time":284.15625,"velocity":0.3937007874015748},{"duration":0.09375,"midi":64,"time":284.15625,"velocity":0.3937007874015748},{"duration":0.09375,"midi":69,"time":284.15625,"velocity":0.3937007874015748},{"duration":0.09375,"midi":38,"time":284.15625,"velocity":0.3937007874015748},{"duration":0.09375,"midi":71,"time":284.15625,"velocity":0.3937007874015748},{"duration":0.09375,"midi":48,"time":284.15625,"velocity":0.3937007874015748},{"duration":0.09375,"midi":91,"time":284.15625,"velocity":0.3937007874015748},{"duration":0.09375,"midi":89,"time":284.15625,"velocity":0.3937007874015748},{"duration":0.09375,"midi":64,"time":284.15625,"velocity":0.3937007874015748},{"duration":0.09375,"midi":65,"time":284.15625,"velocity":0.3937007874015748},{"duration":0.09375,"midi":53,"time":284.15625,"velocity":0.3937007874015748},{"duration":0.09375,"midi":50,"time":284.15625,"velocity":0.3937007874015748},{"duration":0.09375,"midi":65,"time":284.15625,"velocity":0.3937007874015748},{"duration":0.09375,"midi":89,"time":284.15625,"velocity":0.3937007874015748},{"duration":0.09375,"midi":40,"time":284.15625,"velocity":0.3937007874015748},{"duration":0.09375,"midi":83,"time":284.15625,"velocity":0.3937007874015748},{"duration":0.09375,"midi":67,"time":284.15625,"velocity":0.3937007874015748},{"duration":0.09375,"midi":48,"time":284.15625,"velocity":0.3937007874015748},{"duration":0.09375,"midi":72,"time":284.15625,"velocity":0.3937007874015748},{"duration":0.09375,"midi":71,"time":284.15625,"velocity":0.3937007874015748},{"duration":0.09375,"midi":52,"time":284.15625,"velocity":0.3937007874015748},{"duration":0.09375,"midi":81,"time":284.25,"velocity":0.3937007874015748},{"duration":0.09375,"midi":57,"time":284.25,"velocity":0.3937007874015748},{"duration":0.09375,"midi":74,"time":284.25,"velocity":0.3937007874015748},{"duration":0.09375,"midi":38,"time":284.25,"velocity":0.3937007874015748},{"duration":0.09375,"midi":72,"time":284.25,"velocity":0.3937007874015748},{"duration":0.09375,"midi":74,"time":284.25,"velocity":0.3937007874015748},{"duration":0.09375,"midi":33,"time":284.25,"velocity":0.3937007874015748},{"duration":0.09375,"midi":72,"time":284.25,"velocity":0.3937007874015748},{"duration":0.09375,"midi":47,"time":284.25,"velocity":0.3937007874015748},{"duration":0.09375,"midi":83,"time":284.25,"velocity":0.3937007874015748},{"duration":0.09375,"midi":33,"time":284.25,"velocity":0.3937007874015748},{"duration":0.09375,"midi":89,"time":284.25,"velocity":0.3937007874015748},{"duration":0.09375,"midi":40,"time":284.25,"velocity":0.3937007874015748},{"duration":0.09375,"midi":35,"time":284.25,"velocity":0.3937007874015748},{"duration":0.09375,"midi":91,"time":284.25,"velocity":0.3937007874015748},{"duration":0.09375,"midi":55,"time":284.25,"velocity":0.3937007874015748},{"duration":0.09375,"midi":48,"time":284.25,"velocity":0.3937007874015748},{"duration":0.09375,"midi":48,"time":284.25,"velocity":0.3937007874015748},{"duration":0.09375,"midi":47,"time":284.25,"velocity":0.3937007874015748},{"duration":0.09375,"midi":81,"time":284.25,"velocity":0.3937007874015748},{"duration":0.09375,"midi":31,"time":284.25,"velocity":0.3937007874015748},{"duration":0.09375,"midi":91,"time":284.25,"velocity":0.3937007874015748},{"duration":0.09375,"midi":57,"time":284.25,"velocity":0.3937007874015748},{"duration":0.09375,"midi":55,"time":284.25,"velocity":0.3937007874015748},{"duration":0.09375,"midi":40,"time":284.25,"velocity":0.3937007874015748},{"duration":0.09375,"midi":89,"time":284.25,"velocity":0.3937007874015748},{"duration":0.09375,"midi":35,"time":284.25,"velocity":0.3937007874015748},{"duration":0.09375,"midi":38,"time":284.25,"velocity":0.3937007874015748},{"duration":0.09375,"midi":83,"time":284.25,"velocity":0.3937007874015748},{"duration":0.09375,"midi":31,"time":284.25,"velocity":0.3937007874015748},{"duration":0.09375,"midi":47,"time":284.34375,"velocity":0.3937007874015748},{"duration":0.09375,"midi":89,"time":284.34375,"velocity":0.3937007874015748},{"duration":0.09375,"midi":83,"time":284.34375,"velocity":0.3937007874015748},{"duration":0.09375,"midi":35,"time":284.34375,"velocity":0.3937007874015748},{"duration":0.09375,"midi":47,"time":284.34375,"velocity":0.3937007874015748},{"duration":0.09375,"midi":38,"time":284.34375,"velocity":0.3937007874015748},{"duration":0.09375,"midi":40,"time":284.34375,"velocity":0.3937007874015748},{"duration":0.09375,"midi":55,"time":284.34375,"velocity":0.3937007874015748},{"duration":0.09375,"midi":35,"time":284.34375,"velocity":0.3937007874015748},{"duration":0.09375,"midi":48,"time":284.34375,"velocity":0.3937007874015748},{"duration":0.09375,"midi":81,"time":284.34375,"velocity":0.3937007874015748},{"duration":0.09375,"midi":74,"time":284.34375,"velocity":0.3937007874015748},{"duration":0.09375,"midi":57,"time":284.34375,"velocity":0.3937007874015748},{"duration":0.09375,"midi":57,"time":284.34375,"velocity":0.3937007874015748},{"duration":0.09375,"midi":36,"time":284.34375,"velocity":0.3937007874015748},{"duration":0.09375,"midi":74,"time":284.34375,"velocity":0.3937007874015748},{"duration":0.09375,"midi":83,"time":284.34375,"velocity":0.3937007874015748},{"duration":0.09375,"midi":48,"time":284.34375,"velocity":0.3937007874015748},{"duration":0.09375,"midi":40,"time":284.34375,"velocity":0.3937007874015748},{"duration":0.09375,"midi":89,"time":284.34375,"velocity":0.3937007874015748},{"duration":0.09375,"midi":55,"time":284.34375,"velocity":0.3937007874015748},{"duration":0.09375,"midi":72,"time":284.34375,"velocity":0.3937007874015748},{"duration":0.09375,"midi":81,"time":284.34375,"velocity":0.3937007874015748},{"duration":0.09375,"midi":91,"time":284.34375,"velocity":0.3937007874015748},{"duration":0.09375,"midi":72,"time":284.34375,"velocity":0.3937007874015748},{"duration":0.09375,"midi":38,"time":284.34375,"velocity":0.3937007874015748},{"duration":0.09375,"midi":36,"time":284.34375,"velocity":0.3937007874015748},{"duration":0.09375,"midi":91,"time":284.34375,"velocity":0.3937007874015748},{"duration":0.09375,"midi":65,"time":284.4375,"velocity":0.3937007874015748},{"duration":0.09375,"midi":55,"time":284.4375,"velocity":0.3937007874015748},{"duration":0.09375,"midi":67,"time":284.4375,"velocity":0.3937007874015748},{"duration":0.09375,"midi":38,"time":284.4375,"velocity":0.3937007874015748},{"duration":0.09375,"midi":91,"time":284.4375,"velocity":0.3937007874015748},{"duration":0.09375,"midi":86,"time":284.4375,"velocity":0.3937007874015748},{"duration":0.09375,"midi":47,"time":284.4375,"velocity":0.3937007874015748},{"duration":0.09375,"midi":89,"time":284.4375,"velocity":0.3937007874015748},{"duration":0.09375,"midi":88,"time":284.4375,"velocity":0.3937007874015748},{"duration":0.09375,"midi":89,"time":284.4375,"velocity":0.3937007874015748},{"duration":0.09375,"midi":31,"time":284.4375,"velocity":0.3937007874015748},{"duration":0.09375,"midi":36,"time":284.4375,"velocity":0.3937007874015748},{"duration":0.09375,"midi":67,"time":284.4375,"velocity":0.3937007874015748},{"duration":0.09375,"midi":71,"time":284.4375,"velocity":0.3937007874015748},{"duration":0.09375,"midi":91,"time":284.4375,"velocity":0.3937007874015748},{"duration":0.09375,"midi":84,"time":284.4375,"velocity":0.3937007874015748},{"duration":0.09375,"midi":40,"time":284.4375,"velocity":0.3937007874015748},{"duration":0.09375,"midi":31,"time":284.4375,"velocity":0.3937007874015748},{"duration":0.09375,"midi":81,"time":284.4375,"velocity":0.3937007874015748},{"duration":0.09375,"midi":72,"time":284.4375,"velocity":0.3937007874015748},{"duration":0.09375,"midi":48,"time":284.4375,"velocity":0.3937007874015748},{"duration":0.09375,"midi":71,"time":284.4375,"velocity":0.3937007874015748},{"duration":0.09375,"midi":65,"time":284.4375,"velocity":0.3937007874015748},{"duration":0.09375,"midi":83,"time":284.4375,"velocity":0.3937007874015748},{"duration":0.09375,"midi":33,"time":284.4375,"velocity":0.3937007874015748},{"duration":0.09375,"midi":48,"time":284.4375,"velocity":0.3937007874015748},{"duration":0.09375,"midi":84,"time":284.4375,"velocity":0.3937007874015748},{"duration":0.09375,"midi":69,"time":284.4375,"velocity":0.3937007874015748},{"duration":0.09375,"midi":35,"time":284.4375,"velocity":0.3937007874015748},{"duration":0.09375,"midi":47,"time":284.4375,"velocity":0.3937007874015748},{"duration":0.09375,"midi":57,"time":284.4375,"velocity":0.3937007874015748},{"duration":0.09375,"midi":36,"time":284.4375,"velocity":0.3937007874015748},{"duration":0.09375,"midi":33,"time":284.4375,"velocity":0.3937007874015748},{"duration":0.09375,"midi":57,"time":284.4375,"velocity":0.3937007874015748},{"duration":0.09375,"midi":81,"time":284.4375,"velocity":0.3937007874015748},{"duration":0.09375,"midi":88,"time":284.4375,"velocity":0.3937007874015748},{"duration":0.09375,"midi":55,"time":284.4375,"velocity":0.3937007874015748},{"duration":0.09375,"midi":69,"time":284.4375,"velocity":0.3937007874015748},{"duration":0.09375,"midi":83,"time":284.4375,"velocity":0.3937007874015748},{"duration":0.09375,"midi":86,"time":284.4375,"velocity":0.3937007874015748},{"duration":0.09375,"midi":38,"time":284.4375,"velocity":0.3937007874015748},{"duration":0.09375,"midi":40,"time":284.4375,"velocity":0.3937007874015748},{"duration":0.09375,"midi":72,"time":284.4375,"velocity":0.3937007874015748},{"duration":0.09375,"midi":35,"time":284.4375,"velocity":0.3937007874015748},{"duration":0.09375,"midi":64,"time":284.53125,"velocity":0.3937007874015748},{"duration":0.09375,"midi":40,"time":284.53125,"velocity":0.3937007874015748},{"duration":0.09375,"midi":38,"time":284.53125,"velocity":0.3937007874015748},{"duration":0.09375,"midi":57,"time":284.53125,"velocity":0.3937007874015748},{"duration":0.09375,"midi":29,"time":284.53125,"velocity":0.3937007874015748},{"duration":0.09375,"midi":47,"time":284.53125,"velocity":0.3937007874015748},{"duration":0.09375,"midi":57,"time":284.53125,"velocity":0.3937007874015748},{"duration":0.09375,"midi":83,"time":284.53125,"velocity":0.3937007874015748},{"duration":0.09375,"midi":89,"time":284.53125,"velocity":0.3937007874015748},{"duration":0.09375,"midi":47,"time":284.53125,"velocity":0.3937007874015748},{"duration":0.09375,"midi":83,"time":284.53125,"velocity":0.3937007874015748},{"duration":0.09375,"midi":91,"time":284.53125,"velocity":0.3937007874015748},{"duration":0.09375,"midi":31,"time":284.53125,"velocity":0.3937007874015748},{"duration":0.09375,"midi":65,"time":284.53125,"velocity":0.3937007874015748},{"duration":0.09375,"midi":64,"time":284.53125,"velocity":0.3937007874015748},{"duration":0.09375,"midi":91,"time":284.53125,"velocity":0.3937007874015748},{"duration":0.09375,"midi":65,"time":284.53125,"velocity":0.3937007874015748},{"duration":0.09375,"midi":81,"time":284.53125,"velocity":0.3937007874015748},{"duration":0.09375,"midi":48,"time":284.53125,"velocity":0.3937007874015748},{"duration":0.09375,"midi":89,"time":284.53125,"velocity":0.3937007874015748},{"duration":0.09375,"midi":40,"time":284.53125,"velocity":0.3937007874015748},{"duration":0.09375,"midi":55,"time":284.53125,"velocity":0.3937007874015748},{"duration":0.09375,"midi":29,"time":284.53125,"velocity":0.3937007874015748},{"duration":0.09375,"midi":81,"time":284.53125,"velocity":0.3937007874015748},{"duration":0.09375,"midi":31,"time":284.53125,"velocity":0.3937007874015748},{"duration":0.09375,"midi":55,"time":284.53125,"velocity":0.3937007874015748},{"duration":0.09375,"midi":38,"time":284.53125,"velocity":0.3937007874015748},{"duration":0.09375,"midi":48,"time":284.53125,"velocity":0.3937007874015748},{"duration":0.09375,"midi":38,"time":284.625,"velocity":0.3937007874015748},{"duration":0.09375,"midi":31,"time":284.625,"velocity":0.3937007874015748},{"duration":0.09375,"midi":57,"time":284.625,"velocity":0.3937007874015748},{"duration":0.09375,"midi":55,"time":284.625,"velocity":0.3937007874015748},{"duration":0.09375,"midi":55,"time":284.625,"velocity":0.3937007874015748},{"duration":0.09375,"midi":65,"time":284.625,"velocity":0.3937007874015748},{"duration":0.09375,"midi":64,"time":284.625,"velocity":0.3937007874015748},{"duration":0.09375,"midi":29,"time":284.625,"velocity":0.3937007874015748},{"duration":0.09375,"midi":31,"time":284.625,"velocity":0.3937007874015748},{"duration":0.09375,"midi":48,"time":284.625,"velocity":0.3937007874015748},{"duration":0.09375,"midi":89,"time":284.625,"velocity":0.3937007874015748},{"duration":0.09375,"midi":40,"time":284.625,"velocity":0.3937007874015748},{"duration":0.09375,"midi":81,"time":284.625,"velocity":0.3937007874015748},{"duration":0.09375,"midi":83,"time":284.625,"velocity":0.3937007874015748},{"duration":0.09375,"midi":47,"time":284.625,"velocity":0.3937007874015748},{"duration":0.09375,"midi":64,"time":284.625,"velocity":0.3937007874015748},{"duration":0.09375,"midi":38,"time":284.625,"velocity":0.3937007874015748},{"duration":0.09375,"midi":47,"time":284.625,"velocity":0.3937007874015748},{"duration":0.09375,"midi":57,"time":284.625,"velocity":0.3937007874015748},{"duration":0.09375,"midi":91,"time":284.625,"velocity":0.3937007874015748},{"duration":0.09375,"midi":81,"time":284.625,"velocity":0.3937007874015748},{"duration":0.09375,"midi":83,"time":284.625,"velocity":0.3937007874015748},{"duration":0.09375,"midi":89,"time":284.625,"velocity":0.3937007874015748},{"duration":0.09375,"midi":48,"time":284.625,"velocity":0.3937007874015748},{"duration":0.09375,"midi":91,"time":284.625,"velocity":0.3937007874015748},{"duration":0.09375,"midi":65,"time":284.625,"velocity":0.3937007874015748},{"duration":0.09375,"midi":40,"time":284.625,"velocity":0.3937007874015748},{"duration":0.09375,"midi":29,"time":284.625,"velocity":0.3937007874015748},{"duration":0.09375,"midi":35,"time":284.71875,"velocity":0.3937007874015748},{"duration":0.09375,"midi":89,"time":284.71875,"velocity":0.3937007874015748},{"duration":0.09375,"midi":38,"time":284.71875,"velocity":0.3937007874015748},{"duration":0.09375,"midi":67,"time":284.71875,"velocity":0.3937007874015748},{"duration":0.09375,"midi":33,"time":284.71875,"velocity":0.3937007874015748},{"duration":0.09375,"midi":83,"time":284.71875,"velocity":0.3937007874015748},{"duration":0.09375,"midi":38,"time":284.71875,"velocity":0.3937007874015748},{"duration":0.09375,"midi":69,"time":284.71875,"velocity":0.3937007874015748},{"duration":0.09375,"midi":72,"time":284.71875,"velocity":0.3937007874015748},{"duration":0.09375,"midi":48,"time":284.71875,"velocity":0.3937007874015748},{"duration":0.09375,"midi":74,"time":284.71875,"velocity":0.3937007874015748},{"duration":0.09375,"midi":91,"time":284.71875,"velocity":0.3937007874015748},{"duration":0.09375,"midi":36,"time":284.71875,"velocity":0.3937007874015748},{"duration":0.09375,"midi":57,"time":284.71875,"velocity":0.3937007874015748},{"duration":0.09375,"midi":55,"time":284.71875,"velocity":0.3937007874015748},{"duration":0.09375,"midi":35,"time":284.71875,"velocity":0.3937007874015748},{"duration":0.09375,"midi":57,"time":284.71875,"velocity":0.3937007874015748},{"duration":0.09375,"midi":40,"time":284.71875,"velocity":0.3937007874015748},{"duration":0.09375,"midi":33,"time":284.71875,"velocity":0.3937007874015748},{"duration":0.09375,"midi":65,"time":284.71875,"velocity":0.3937007874015748},{"duration":0.09375,"midi":47,"time":284.71875,"velocity":0.3937007874015748},{"duration":0.09375,"midi":36,"time":284.71875,"velocity":0.3937007874015748},{"duration":0.09375,"midi":31,"time":284.71875,"velocity":0.3937007874015748},{"duration":0.09375,"midi":71,"time":284.71875,"velocity":0.3937007874015748},{"duration":0.09375,"midi":81,"time":284.71875,"velocity":0.3937007874015748},{"duration":0.09375,"midi":55,"time":284.71875,"velocity":0.3937007874015748},{"duration":0.09375,"midi":31,"time":284.71875,"velocity":0.3937007874015748},{"duration":0.09375,"midi":74,"time":284.71875,"velocity":0.3937007874015748},{"duration":0.09375,"midi":65,"time":284.71875,"velocity":0.3937007874015748},{"duration":0.09375,"midi":40,"time":284.71875,"velocity":0.3937007874015748},{"duration":0.09375,"midi":72,"time":284.71875,"velocity":0.3937007874015748},{"duration":0.09375,"midi":67,"time":284.71875,"velocity":0.3937007874015748},{"duration":0.09375,"midi":69,"time":284.71875,"velocity":0.3937007874015748},{"duration":0.09375,"midi":89,"time":284.71875,"velocity":0.3937007874015748},{"duration":0.09375,"midi":83,"time":284.71875,"velocity":0.3937007874015748},{"duration":0.09375,"midi":91,"time":284.71875,"velocity":0.3937007874015748},{"duration":0.09375,"midi":47,"time":284.71875,"velocity":0.3937007874015748},{"duration":0.09375,"midi":81,"time":284.71875,"velocity":0.3937007874015748},{"duration":0.09375,"midi":48,"time":284.71875,"velocity":0.3937007874015748},{"duration":0.09375,"midi":71,"time":284.71875,"velocity":0.3937007874015748},{"duration":0.09375,"midi":55,"time":287.15625,"velocity":0.3937007874015748},{"duration":0.09375,"midi":64,"time":287.15625,"velocity":0.3937007874015748},{"duration":0.09375,"midi":57,"time":287.15625,"velocity":0.3937007874015748},{"duration":0.09375,"midi":57,"time":287.15625,"velocity":0.3937007874015748},{"duration":0.09375,"midi":65,"time":287.15625,"velocity":0.3937007874015748},{"duration":0.09375,"midi":65,"time":287.15625,"velocity":0.3937007874015748},{"duration":0.09375,"midi":59,"time":287.15625,"velocity":0.3937007874015748},{"duration":0.09375,"midi":60,"time":287.15625,"velocity":0.3937007874015748},{"duration":0.09375,"midi":62,"time":287.15625,"velocity":0.3937007874015748},{"duration":0.09375,"midi":64,"time":287.15625,"velocity":0.3937007874015748},{"duration":0.09375,"midi":62,"time":287.15625,"velocity":0.3937007874015748},{"duration":0.09375,"midi":55,"time":287.15625,"velocity":0.3937007874015748},{"duration":0.09375,"midi":60,"time":287.15625,"velocity":0.3937007874015748},{"duration":0.09375,"midi":59,"time":287.15625,"velocity":0.3937007874015748},{"duration":0.09375,"midi":57,"time":287.25,"velocity":0.3937007874015748},{"duration":0.09375,"midi":55,"time":287.25,"velocity":0.3937007874015748},{"duration":0.09375,"midi":55,"time":287.25,"velocity":0.3937007874015748},{"duration":0.09375,"midi":57,"time":287.25,"velocity":0.3937007874015748},{"duration":0.09375,"midi":55,"time":287.34375,"velocity":0.3937007874015748},{"duration":0.09375,"midi":55,"time":287.34375,"velocity":0.3937007874015748},{"duration":0.09375,"midi":57,"time":287.34375,"velocity":0.3937007874015748},{"duration":0.09375,"midi":57,"time":287.34375,"velocity":0.3937007874015748},{"duration":0.09375,"midi":62,"time":287.4375,"velocity":0.3937007874015748},{"duration":0.09375,"midi":64,"time":287.4375,"velocity":0.3937007874015748},{"duration":0.09375,"midi":62,"time":287.4375,"velocity":0.3937007874015748},{"duration":0.09375,"midi":60,"time":287.4375,"velocity":0.3937007874015748},{"duration":0.09375,"midi":57,"time":287.4375,"velocity":0.3937007874015748},{"duration":0.09375,"midi":59,"time":287.4375,"velocity":0.3937007874015748},{"duration":0.09375,"midi":59,"time":287.4375,"velocity":0.3937007874015748},{"duration":0.09375,"midi":55,"time":287.4375,"velocity":0.3937007874015748},{"duration":0.09375,"midi":65,"time":287.4375,"velocity":0.3937007874015748},{"duration":0.09375,"midi":55,"time":287.4375,"velocity":0.3937007874015748},{"duration":0.09375,"midi":64,"time":287.4375,"velocity":0.3937007874015748},{"duration":0.09375,"midi":57,"time":287.4375,"velocity":0.3937007874015748},{"duration":0.09375,"midi":60,"time":287.4375,"velocity":0.3937007874015748},{"duration":0.09375,"midi":65,"time":287.4375,"velocity":0.3937007874015748},{"duration":0.09375,"midi":57,"time":287.53125,"velocity":0.3937007874015748},{"duration":0.09375,"midi":57,"time":287.53125,"velocity":0.3937007874015748},{"duration":0.09375,"midi":55,"time":287.53125,"velocity":0.3937007874015748},{"duration":0.09375,"midi":55,"time":287.53125,"velocity":0.3937007874015748},{"duration":0.09375,"midi":57,"time":287.625,"velocity":0.3937007874015748},{"duration":0.09375,"midi":57,"time":287.625,"velocity":0.3937007874015748},{"duration":0.09375,"midi":55,"time":287.625,"velocity":0.3937007874015748},{"duration":0.09375,"midi":55,"time":287.625,"velocity":0.3937007874015748},{"duration":0.09375,"midi":65,"time":287.71875,"velocity":0.3937007874015748},{"duration":0.09375,"midi":65,"time":287.71875,"velocity":0.3937007874015748},{"duration":0.09375,"midi":55,"time":287.71875,"velocity":0.3937007874015748},{"duration":0.09375,"midi":62,"time":287.71875,"velocity":0.3937007874015748},{"duration":0.09375,"midi":57,"time":287.71875,"velocity":0.3937007874015748},{"duration":0.09375,"midi":60,"time":287.71875,"velocity":0.3937007874015748},{"duration":0.09375,"midi":62,"time":287.71875,"velocity":0.3937007874015748},{"duration":0.09375,"midi":55,"time":287.71875,"velocity":0.3937007874015748},{"duration":0.09375,"midi":59,"time":287.71875,"velocity":0.3937007874015748},{"duration":0.09375,"midi":60,"time":287.71875,"velocity":0.3937007874015748},{"duration":0.09375,"midi":64,"time":287.71875,"velocity":0.3937007874015748},{"duration":0.09375,"midi":64,"time":287.71875,"velocity":0.3937007874015748},{"duration":0.09375,"midi":57,"time":287.71875,"velocity":0.3937007874015748},{"duration":0.09375,"midi":59,"time":287.71875,"velocity":0.3937007874015748},{"duration":0.09375,"midi":52,"time":290.15625,"velocity":0.3937007874015748},{"duration":0.09375,"midi":55,"time":290.15625,"velocity":0.3937007874015748},{"duration":0.09375,"midi":64,"time":290.15625,"velocity":0.3937007874015748},{"duration":0.09375,"midi":31,"time":290.15625,"velocity":0.3937007874015748},{"duration":0.09375,"midi":69,"time":290.15625,"velocity":0.3937007874015748},{"duration":0.09375,"midi":72,"time":290.15625,"velocity":0.3937007874015748},{"duration":0.09375,"midi":72,"time":290.15625,"velocity":0.3937007874015748},{"duration":0.09375,"midi":29,"time":290.15625,"velocity":0.3937007874015748},{"duration":0.09375,"midi":65,"time":290.15625,"velocity":0.3937007874015748},{"duration":0.09375,"midi":89,"time":290.15625,"velocity":0.3937007874015748},{"duration":0.09375,"midi":40,"time":290.15625,"velocity":0.3937007874015748},{"duration":0.09375,"midi":67,"time":290.15625,"velocity":0.3937007874015748},{"duration":0.09375,"midi":89,"time":290.15625,"velocity":0.3937007874015748},{"duration":0.09375,"midi":81,"time":290.15625,"velocity":0.3937007874015748},{"duration":0.09375,"midi":38,"time":290.15625,"velocity":0.3937007874015748},{"duration":0.09375,"midi":31,"time":290.15625,"velocity":0.3937007874015748},{"duration":0.09375,"midi":50,"time":290.15625,"velocity":0.3937007874015748},{"duration":0.09375,"midi":38,"time":290.15625,"velocity":0.3937007874015748},{"duration":0.09375,"midi":40,"time":290.15625,"velocity":0.3937007874015748},{"duration":0.09375,"midi":29,"time":290.15625,"velocity":0.3937007874015748},{"duration":0.09375,"midi":65,"time":290.15625,"velocity":0.3937007874015748},{"duration":0.09375,"midi":48,"time":290.15625,"velocity":0.3937007874015748},{"duration":0.09375,"midi":64,"time":290.15625,"velocity":0.3937007874015748},{"duration":0.09375,"midi":50,"time":290.15625,"velocity":0.3937007874015748},{"duration":0.09375,"midi":53,"time":290.15625,"velocity":0.3937007874015748},{"duration":0.09375,"midi":52,"time":290.15625,"velocity":0.3937007874015748},{"duration":0.09375,"midi":69,"time":290.15625,"velocity":0.3937007874015748},{"duration":0.09375,"midi":67,"time":290.15625,"velocity":0.3937007874015748},{"duration":0.09375,"midi":53,"time":290.15625,"velocity":0.3937007874015748},{"duration":0.09375,"midi":83,"time":290.15625,"velocity":0.3937007874015748},{"duration":0.09375,"midi":83,"time":290.15625,"velocity":0.3937007874015748},{"duration":0.09375,"midi":81,"time":290.15625,"velocity":0.3937007874015748},{"duration":0.09375,"midi":91,"time":290.15625,"velocity":0.3937007874015748},{"duration":0.09375,"midi":91,"time":290.15625,"velocity":0.3937007874015748},{"duration":0.09375,"midi":71,"time":290.15625,"velocity":0.3937007874015748},{"duration":0.09375,"midi":55,"time":290.15625,"velocity":0.3937007874015748},{"duration":0.09375,"midi":71,"time":290.15625,"velocity":0.3937007874015748},{"duration":0.09375,"midi":48,"time":290.15625,"velocity":0.3937007874015748},{"duration":0.09375,"midi":74,"time":290.25,"velocity":0.3937007874015748},{"duration":0.09375,"midi":33,"time":290.25,"velocity":0.3937007874015748},{"duration":0.09375,"midi":55,"time":290.25,"velocity":0.3937007874015748},{"duration":0.09375,"midi":72,"time":290.25,"velocity":0.3937007874015748},{"duration":0.09375,"midi":57,"time":290.25,"velocity":0.3937007874015748},{"duration":0.09375,"midi":48,"time":290.25,"velocity":0.3937007874015748},{"duration":0.09375,"midi":83,"time":290.25,"velocity":0.3937007874015748},{"duration":0.09375,"midi":57,"time":290.25,"velocity":0.3937007874015748},{"duration":0.09375,"midi":74,"time":290.25,"velocity":0.3937007874015748},{"duration":0.09375,"midi":35,"time":290.25,"velocity":0.3937007874015748},{"duration":0.09375,"midi":31,"time":290.25,"velocity":0.3937007874015748},{"duration":0.09375,"midi":47,"time":290.25,"velocity":0.3937007874015748},{"duration":0.09375,"midi":48,"time":290.25,"velocity":0.3937007874015748},{"duration":0.09375,"midi":35,"time":290.25,"velocity":0.3937007874015748},{"duration":0.09375,"midi":38,"time":290.25,"velocity":0.3937007874015748},{"duration":0.09375,"midi":33,"time":290.25,"velocity":0.3937007874015748},{"duration":0.09375,"midi":31,"time":290.25,"velocity":0.3937007874015748},{"duration":0.09375,"midi":55,"time":290.25,"velocity":0.3937007874015748},{"duration":0.09375,"midi":91,"time":290.25,"velocity":0.3937007874015748},{"duration":0.09375,"midi":81,"time":290.25,"velocity":0.3937007874015748},{"duration":0.09375,"midi":83,"time":290.25,"velocity":0.3937007874015748},{"duration":0.09375,"midi":81,"time":290.25,"velocity":0.3937007874015748},{"duration":0.09375,"midi":91,"time":290.25,"velocity":0.3937007874015748},{"duration":0.09375,"midi":40,"time":290.25,"velocity":0.3937007874015748},{"duration":0.09375,"midi":89,"time":290.25,"velocity":0.3937007874015748},{"duration":0.09375,"midi":38,"time":290.25,"velocity":0.3937007874015748},{"duration":0.09375,"midi":89,"time":290.25,"velocity":0.3937007874015748},{"duration":0.09375,"midi":40,"time":290.25,"velocity":0.3937007874015748},{"duration":0.09375,"midi":47,"time":290.25,"velocity":0.3937007874015748},{"duration":0.09375,"midi":72,"time":290.25,"velocity":0.3937007874015748},{"duration":0.09375,"midi":74,"time":290.34375,"velocity":0.3937007874015748},{"duration":0.09375,"midi":55,"time":290.34375,"velocity":0.3937007874015748},{"duration":0.09375,"midi":89,"time":290.34375,"velocity":0.3937007874015748},{"duration":0.09375,"midi":47,"time":290.34375,"velocity":0.3937007874015748},{"duration":0.09375,"midi":57,"time":290.34375,"velocity":0.3937007874015748},{"duration":0.09375,"midi":72,"time":290.34375,"velocity":0.3937007874015748},{"duration":0.09375,"midi":57,"time":290.34375,"velocity":0.3937007874015748},{"duration":0.09375,"midi":91,"time":290.34375,"velocity":0.3937007874015748},{"duration":0.09375,"midi":36,"time":290.34375,"velocity":0.3937007874015748},{"duration":0.09375,"midi":81,"time":290.34375,"velocity":0.3937007874015748},{"duration":0.09375,"midi":72,"time":290.34375,"velocity":0.3937007874015748},{"duration":0.09375,"midi":55,"time":290.34375,"velocity":0.3937007874015748},{"duration":0.09375,"midi":40,"time":290.34375,"velocity":0.3937007874015748},{"duration":0.09375,"midi":35,"time":290.34375,"velocity":0.3937007874015748},{"duration":0.09375,"midi":47,"time":290.34375,"velocity":0.3937007874015748},{"duration":0.09375,"midi":48,"time":290.34375,"velocity":0.3937007874015748},{"duration":0.09375,"midi":83,"time":290.34375,"velocity":0.3937007874015748},{"duration":0.09375,"midi":38,"time":290.34375,"velocity":0.3937007874015748},{"duration":0.09375,"midi":74,"time":290.34375,"velocity":0.3937007874015748},{"duration":0.09375,"midi":89,"time":290.34375,"velocity":0.3937007874015748},{"duration":0.09375,"midi":36,"time":290.34375,"velocity":0.3937007874015748},{"duration":0.09375,"midi":40,"time":290.34375,"velocity":0.3937007874015748},{"duration":0.09375,"midi":83,"time":290.34375,"velocity":0.3937007874015748},{"duration":0.09375,"midi":91,"time":290.34375,"velocity":0.3937007874015748},{"duration":0.09375,"midi":81,"time":290.34375,"velocity":0.3937007874015748},{"duration":0.09375,"midi":35,"time":290.34375,"velocity":0.3937007874015748},{"duration":0.09375,"midi":48,"time":290.34375,"velocity":0.3937007874015748},{"duration":0.09375,"midi":38,"time":290.34375,"velocity":0.3937007874015748},{"duration":0.09375,"midi":38,"time":290.4375,"velocity":0.3937007874015748},{"duration":0.09375,"midi":65,"time":290.4375,"velocity":0.3937007874015748},{"duration":0.09375,"midi":65,"time":290.4375,"velocity":0.3937007874015748},{"duration":0.09375,"midi":35,"time":290.4375,"velocity":0.3937007874015748},{"duration":0.09375,"midi":33,"time":290.4375,"velocity":0.3937007874015748},{"duration":0.09375,"midi":71,"time":290.4375,"velocity":0.3937007874015748},{"duration":0.09375,"midi":83,"time":290.4375,"velocity":0.3937007874015748},{"duration":0.09375,"midi":88,"time":290.4375,"velocity":0.3937007874015748},{"duration":0.09375,"midi":67,"time":290.4375,"velocity":0.3937007874015748},{"duration":0.09375,"midi":35,"time":290.4375,"velocity":0.3937007874015748},{"duration":0.09375,"midi":89,"time":290.4375,"velocity":0.3937007874015748},{"duration":0.09375,"midi":72,"time":290.4375,"velocity":0.3937007874015748},{"duration":0.09375,"midi":31,"time":290.4375,"velocity":0.3937007874015748},{"duration":0.09375,"midi":38,"time":290.4375,"velocity":0.3937007874015748},{"duration":0.09375,"midi":40,"time":290.4375,"velocity":0.3937007874015748},{"duration":0.09375,"midi":48,"time":290.4375,"velocity":0.3937007874015748},{"duration":0.09375,"midi":91,"time":290.4375,"velocity":0.3937007874015748},{"duration":0.09375,"midi":40,"time":290.4375,"velocity":0.3937007874015748},{"duration":0.09375,"midi":69,"time":290.4375,"velocity":0.3937007874015748},{"duration":0.09375,"midi":36,"time":290.4375,"velocity":0.3937007874015748},{"duration":0.09375,"midi":81,"time":290.4375,"velocity":0.3937007874015748},{"duration":0.09375,"midi":48,"time":290.4375,"velocity":0.3937007874015748},{"duration":0.09375,"midi":47,"time":290.4375,"velocity":0.3937007874015748},{"duration":0.09375,"midi":36,"time":290.4375,"velocity":0.3937007874015748},{"duration":0.09375,"midi":83,"time":290.4375,"velocity":0.3937007874015748},{"duration":0.09375,"midi":33,"time":290.4375,"velocity":0.3937007874015748},{"duration":0.09375,"midi":86,"time":290.4375,"velocity":0.3937007874015748},{"duration":0.09375,"midi":71,"time":290.4375,"velocity":0.3937007874015748},{"duration":0.09375,"midi":57,"time":290.4375,"velocity":0.3937007874015748},{"duration":0.09375,"midi":89,"time":290.4375,"velocity":0.3937007874015748},{"duration":0.09375,"midi":55,"time":290.4375,"velocity":0.3937007874015748},{"duration":0.09375,"midi":81,"time":290.4375,"velocity":0.3937007874015748},{"duration":0.09375,"midi":72,"time":290.4375,"velocity":0.3937007874015748},{"duration":0.09375,"midi":47,"time":290.4375,"velocity":0.3937007874015748},{"duration":0.09375,"midi":84,"time":290.4375,"velocity":0.3937007874015748},{"duration":0.09375,"midi":88,"time":290.4375,"velocity":0.3937007874015748},{"duration":0.09375,"midi":31,"time":290.4375,"velocity":0.3937007874015748},{"duration":0.09375,"midi":91,"time":290.4375,"velocity":0.3937007874015748},{"duration":0.09375,"midi":84,"time":290.4375,"velocity":0.3937007874015748},{"duration":0.09375,"midi":67,"time":290.4375,"velocity":0.3937007874015748},{"duration":0.09375,"midi":69,"time":290.4375,"velocity":0.3937007874015748},{"duration":0.09375,"midi":55,"time":290.4375,"velocity":0.3937007874015748},{"duration":0.09375,"midi":86,"time":290.4375,"velocity":0.3937007874015748},{"duration":0.09375,"midi":57,"time":290.4375,"velocity":0.3937007874015748},{"duration":0.09375,"midi":89,"time":290.53125,"velocity":0.3937007874015748},{"duration":0.09375,"midi":81,"time":290.53125,"velocity":0.3937007874015748},{"duration":0.09375,"midi":89,"time":290.53125,"velocity":0.3937007874015748},{"duration":0.09375,"midi":91,"time":290.53125,"velocity":0.3937007874015748},{"duration":0.09375,"midi":65,"time":290.53125,"velocity":0.3937007874015748},{"duration":0.09375,"midi":81,"time":290.53125,"velocity":0.3937007874015748},{"duration":0.09375,"midi":65,"time":290.53125,"velocity":0.3937007874015748},{"duration":0.09375,"midi":48,"time":290.53125,"velocity":0.3937007874015748},{"duration":0.09375,"midi":47,"time":290.53125,"velocity":0.3937007874015748},{"duration":0.09375,"midi":83,"time":290.53125,"velocity":0.3937007874015748},{"duration":0.09375,"midi":38,"time":290.53125,"velocity":0.3937007874015748},{"duration":0.09375,"midi":57,"time":290.53125,"velocity":0.3937007874015748},{"duration":0.09375,"midi":64,"time":290.53125,"velocity":0.3937007874015748},{"duration":0.09375,"midi":31,"time":290.53125,"velocity":0.3937007874015748},{"duration":0.09375,"midi":64,"time":290.53125,"velocity":0.3937007874015748},{"duration":0.09375,"midi":40,"time":290.53125,"velocity":0.3937007874015748},{"duration":0.09375,"midi":55,"time":290.53125,"velocity":0.3937007874015748},{"duration":0.09375,"midi":31,"time":290.53125,"velocity":0.3937007874015748},{"duration":0.09375,"midi":29,"time":290.53125,"velocity":0.3937007874015748},{"duration":0.09375,"midi":29,"time":290.53125,"velocity":0.3937007874015748},{"duration":0.09375,"midi":57,"time":290.53125,"velocity":0.3937007874015748},{"duration":0.09375,"midi":48,"time":290.53125,"velocity":0.3937007874015748},{"duration":0.09375,"midi":91,"time":290.53125,"velocity":0.3937007874015748},{"duration":0.09375,"midi":38,"time":290.53125,"velocity":0.3937007874015748},{"duration":0.09375,"midi":55,"time":290.53125,"velocity":0.3937007874015748},{"duration":0.09375,"midi":83,"time":290.53125,"velocity":0.3937007874015748},{"duration":0.09375,"midi":47,"time":290.53125,"velocity":0.3937007874015748},{"duration":0.09375,"midi":40,"time":290.53125,"velocity":0.3937007874015748},{"duration":0.09375,"midi":40,"time":290.625,"velocity":0.3937007874015748},{"duration":0.09375,"midi":31,"time":290.625,"velocity":0.3937007874015748},{"duration":0.09375,"midi":31,"time":290.625,"velocity":0.3937007874015748},{"duration":0.09375,"midi":47,"time":290.625,"velocity":0.3937007874015748},{"duration":0.09375,"midi":83,"time":290.625,"velocity":0.3937007874015748},{"duration":0.09375,"midi":83,"time":290.625,"velocity":0.3937007874015748},{"duration":0.09375,"midi":65,"time":290.625,"velocity":0.3937007874015748},{"duration":0.09375,"midi":55,"time":290.625,"velocity":0.3937007874015748},{"duration":0.09375,"midi":81,"time":290.625,"velocity":0.3937007874015748},{"duration":0.09375,"midi":81,"time":290.625,"velocity":0.3937007874015748},{"duration":0.09375,"midi":57,"time":290.625,"velocity":0.3937007874015748},{"duration":0.09375,"midi":91,"time":290.625,"velocity":0.3937007874015748},{"duration":0.09375,"midi":38,"time":290.625,"velocity":0.3937007874015748},{"duration":0.09375,"midi":40,"time":290.625,"velocity":0.3937007874015748},{"duration":0.09375,"midi":48,"time":290.625,"velocity":0.3937007874015748},{"duration":0.09375,"midi":91,"time":290.625,"velocity":0.3937007874015748},{"duration":0.09375,"midi":47,"time":290.625,"velocity":0.3937007874015748},{"duration":0.09375,"midi":55,"time":290.625,"velocity":0.3937007874015748},{"duration":0.09375,"midi":29,"time":290.625,"velocity":0.3937007874015748},{"duration":0.09375,"midi":65,"time":290.625,"velocity":0.3937007874015748},{"duration":0.09375,"midi":64,"time":290.625,"velocity":0.3937007874015748},{"duration":0.09375,"midi":38,"time":290.625,"velocity":0.3937007874015748},{"duration":0.09375,"midi":89,"time":290.625,"velocity":0.3937007874015748},{"duration":0.09375,"midi":64,"time":290.625,"velocity":0.3937007874015748},{"duration":0.09375,"midi":89,"time":290.625,"velocity":0.3937007874015748},{"duration":0.09375,"midi":48,"time":290.625,"velocity":0.3937007874015748},{"duration":0.09375,"midi":29,"time":290.625,"velocity":0.3937007874015748},{"duration":0.09375,"midi":57,"time":290.625,"velocity":0.3937007874015748},{"duration":0.09375,"midi":72,"time":290.71875,"velocity":0.3937007874015748},{"duration":0.09375,"midi":74,"time":290.71875,"velocity":0.3937007874015748},{"duration":0.09375,"midi":31,"time":290.71875,"velocity":0.3937007874015748},{"duration":0.09375,"midi":40,"time":290.71875,"velocity":0.3937007874015748},{"duration":0.09375,"midi":83,"time":290.71875,"velocity":0.3937007874015748},{"duration":0.09375,"midi":55,"time":290.71875,"velocity":0.3937007874015748},{"duration":0.09375,"midi":35,"time":290.71875,"velocity":0.3937007874015748},{"duration":0.09375,"midi":33,"time":290.71875,"velocity":0.3937007874015748},{"duration":0.09375,"midi":33,"time":290.71875,"velocity":0.3937007874015748},{"duration":0.09375,"midi":91,"time":290.71875,"velocity":0.3937007874015748},{"duration":0.09375,"midi":48,"time":290.71875,"velocity":0.3937007874015748},{"duration":0.09375,"midi":65,"time":290.71875,"velocity":0.3937007874015748},{"duration":0.09375,"midi":67,"time":290.71875,"velocity":0.3937007874015748},{"duration":0.09375,"midi":89,"time":290.71875,"velocity":0.3937007874015748},{"duration":0.09375,"midi":71,"time":290.71875,"velocity":0.3937007874015748},{"duration":0.09375,"midi":36,"time":290.71875,"velocity":0.3937007874015748},{"duration":0.09375,"midi":40,"time":290.71875,"velocity":0.3937007874015748},{"duration":0.09375,"midi":69,"time":290.71875,"velocity":0.3937007874015748},{"duration":0.09375,"midi":47,"time":290.71875,"velocity":0.3937007874015748},{"duration":0.09375,"midi":57,"time":290.71875,"velocity":0.3937007874015748},{"duration":0.09375,"midi":69,"time":290.71875,"velocity":0.3937007874015748},{"duration":0.09375,"midi":48,"time":290.71875,"velocity":0.3937007874015748},{"duration":0.09375,"midi":83,"time":290.71875,"velocity":0.3937007874015748},{"duration":0.09375,"midi":81,"time":290.71875,"velocity":0.3937007874015748},{"duration":0.09375,"midi":71,"time":290.71875,"velocity":0.3937007874015748},{"duration":0.09375,"midi":65,"time":290.71875,"velocity":0.3937007874015748},{"duration":0.09375,"midi":74,"time":290.71875,"velocity":0.3937007874015748},{"duration":0.09375,"midi":91,"time":290.71875,"velocity":0.3937007874015748},{"duration":0.09375,"midi":57,"time":290.71875,"velocity":0.3937007874015748},{"duration":0.09375,"midi":36,"time":290.71875,"velocity":0.3937007874015748},{"duration":0.09375,"midi":81,"time":290.71875,"velocity":0.3937007874015748},{"duration":0.09375,"midi":55,"time":290.71875,"velocity":0.3937007874015748},{"duration":0.09375,"midi":89,"time":290.71875,"velocity":0.3937007874015748},{"duration":0.09375,"midi":47,"time":290.71875,"velocity":0.3937007874015748},{"duration":0.09375,"midi":38,"time":290.71875,"velocity":0.3937007874015748},{"duration":0.09375,"midi":67,"time":290.71875,"velocity":0.3937007874015748},{"duration":0.09375,"midi":35,"time":290.71875,"velocity":0.3937007874015748},{"duration":0.09375,"midi":31,"time":290.71875,"velocity":0.3937007874015748},{"duration":0.09375,"midi":72,"time":290.71875,"velocity":0.3937007874015748},{"duration":0.09375,"midi":38,"time":290.71875,"velocity":0.3937007874015748},{"duration":0.09375,"midi":62,"time":293.15625,"velocity":0.3937007874015748},{"duration":0.09375,"midi":60,"time":293.15625,"velocity":0.3937007874015748},{"duration":0.09375,"midi":57,"time":293.15625,"velocity":0.3937007874015748},{"duration":0.09375,"midi":59,"time":293.15625,"velocity":0.3937007874015748},{"duration":0.09375,"midi":60,"time":293.15625,"velocity":0.3937007874015748},{"duration":0.09375,"midi":64,"time":293.15625,"velocity":0.3937007874015748},{"duration":0.09375,"midi":62,"time":293.15625,"velocity":0.3937007874015748},{"duration":0.09375,"midi":59,"time":293.15625,"velocity":0.3937007874015748},{"duration":0.09375,"midi":65,"time":293.15625,"velocity":0.3937007874015748},{"duration":0.09375,"midi":64,"time":293.15625,"velocity":0.3937007874015748},{"duration":0.09375,"midi":55,"time":293.15625,"velocity":0.3937007874015748},{"duration":0.09375,"midi":57,"time":293.15625,"velocity":0.3937007874015748},{"duration":0.09375,"midi":65,"time":293.15625,"velocity":0.3937007874015748},{"duration":0.09375,"midi":55,"time":293.15625,"velocity":0.3937007874015748},{"duration":0.09375,"midi":55,"time":293.25,"velocity":0.3937007874015748},{"duration":0.09375,"midi":57,"time":293.25,"velocity":0.3937007874015748},{"duration":0.09375,"midi":57,"time":293.25,"velocity":0.3937007874015748},{"duration":0.09375,"midi":55,"time":293.25,"velocity":0.3937007874015748},{"duration":0.09375,"midi":57,"time":293.34375,"velocity":0.3937007874015748},{"duration":0.09375,"midi":55,"time":293.34375,"velocity":0.3937007874015748},{"duration":0.09375,"midi":57,"time":293.34375,"velocity":0.3937007874015748},{"duration":0.09375,"midi":55,"time":293.34375,"velocity":0.3937007874015748},{"duration":0.09375,"midi":60,"time":293.4375,"velocity":0.3937007874015748},{"duration":0.09375,"midi":60,"time":293.4375,"velocity":0.3937007874015748},{"duration":0.09375,"midi":55,"time":293.4375,"velocity":0.3937007874015748},{"duration":0.09375,"midi":65,"time":293.4375,"velocity":0.3937007874015748},{"duration":0.09375,"midi":65,"time":293.4375,"velocity":0.3937007874015748},{"duration":0.09375,"midi":62,"time":293.4375,"velocity":0.3937007874015748},{"duration":0.09375,"midi":57,"time":293.4375,"velocity":0.3937007874015748},{"duration":0.09375,"midi":59,"time":293.4375,"velocity":0.3937007874015748},{"duration":0.09375,"midi":55,"time":293.4375,"velocity":0.3937007874015748},{"duration":0.09375,"midi":57,"time":293.4375,"velocity":0.3937007874015748},{"duration":0.09375,"midi":59,"time":293.4375,"velocity":0.3937007874015748},{"duration":0.09375,"midi":62,"time":293.4375,"velocity":0.3937007874015748},{"duration":0.09375,"midi":64,"time":293.4375,"velocity":0.3937007874015748},{"duration":0.09375,"midi":64,"time":293.4375,"velocity":0.3937007874015748},{"duration":0.09375,"midi":57,"time":293.53125,"velocity":0.3937007874015748},{"duration":0.09375,"midi":57,"time":293.53125,"velocity":0.3937007874015748},{"duration":0.09375,"midi":55,"time":293.53125,"velocity":0.3937007874015748},{"duration":0.09375,"midi":55,"time":293.53125,"velocity":0.3937007874015748},{"duration":0.09375,"midi":57,"time":293.625,"velocity":0.3937007874015748},{"duration":0.09375,"midi":55,"time":293.625,"velocity":0.3937007874015748},{"duration":0.09375,"midi":57,"time":293.625,"velocity":0.3937007874015748},{"duration":0.09375,"midi":55,"time":293.625,"velocity":0.3937007874015748},{"duration":0.09375,"midi":62,"time":293.71875,"velocity":0.3937007874015748},{"duration":0.09375,"midi":55,"time":293.71875,"velocity":0.3937007874015748},{"duration":0.09375,"midi":60,"time":293.71875,"velocity":0.3937007874015748},{"duration":0.09375,"midi":57,"time":293.71875,"velocity":0.3937007874015748},{"duration":0.09375,"midi":57,"time":293.71875,"velocity":0.3937007874015748},{"duration":0.09375,"midi":59,"time":293.71875,"velocity":0.3937007874015748},{"duration":0.09375,"midi":62,"time":293.71875,"velocity":0.3937007874015748},{"duration":0.09375,"midi":59,"time":293.71875,"velocity":0.3937007874015748},{"duration":0.09375,"midi":60,"time":293.71875,"velocity":0.3937007874015748},{"duration":0.09375,"midi":64,"time":293.71875,"velocity":0.3937007874015748},{"duration":0.09375,"midi":55,"time":293.71875,"velocity":0.3937007874015748},{"duration":0.09375,"midi":65,"time":293.71875,"velocity":0.3937007874015748},{"duration":0.09375,"midi":64,"time":293.71875,"velocity":0.3937007874015748},{"duration":0.09375,"midi":65,"time":293.71875,"velocity":0.3937007874015748},{"duration":0.046875,"midi":72,"time":295.078125,"velocity":0.3937007874015748},{"duration":0.046875,"midi":29,"time":295.078125,"velocity":0.3937007874015748},{"duration":0.046875,"midi":65,"time":295.078125,"velocity":0.3937007874015748},{"duration":0.046875,"midi":29,"time":295.078125,"velocity":0.3937007874015748},{"duration":0.046875,"midi":89,"time":295.078125,"velocity":0.3937007874015748},{"duration":0.046875,"midi":67,"time":295.078125,"velocity":0.3937007874015748},{"duration":0.046875,"midi":91,"time":295.078125,"velocity":0.3937007874015748},{"duration":0.046875,"midi":91,"time":295.078125,"velocity":0.3937007874015748},{"duration":0.046875,"midi":81,"time":295.078125,"velocity":0.3937007874015748},{"duration":0.046875,"midi":31,"time":295.078125,"velocity":0.3937007874015748},{"duration":0.046875,"midi":48,"time":295.078125,"velocity":0.3937007874015748},{"duration":0.046875,"midi":89,"time":295.078125,"velocity":0.3937007874015748},{"duration":0.046875,"midi":83,"time":295.078125,"velocity":0.3937007874015748},{"duration":0.046875,"midi":50,"time":295.078125,"velocity":0.3937007874015748},{"duration":0.046875,"midi":38,"time":295.078125,"velocity":0.3937007874015748},{"duration":0.046875,"midi":40,"time":295.078125,"velocity":0.3937007874015748},{"duration":0.046875,"midi":71,"time":295.078125,"velocity":0.3937007874015748},{"duration":0.046875,"midi":64,"time":295.078125,"velocity":0.3937007874015748},{"duration":0.046875,"midi":38,"time":295.078125,"velocity":0.3937007874015748},{"duration":0.046875,"midi":53,"time":295.078125,"velocity":0.3937007874015748},{"duration":0.046875,"midi":65,"time":295.078125,"velocity":0.3937007874015748},{"duration":0.046875,"midi":55,"time":295.078125,"velocity":0.3937007874015748},{"duration":0.046875,"midi":81,"time":295.078125,"velocity":0.3937007874015748},{"duration":0.046875,"midi":40,"time":295.078125,"velocity":0.3937007874015748},{"duration":0.046875,"midi":31,"time":295.078125,"velocity":0.3937007874015748},{"duration":0.046875,"midi":55,"time":295.078125,"velocity":0.3937007874015748},{"duration":0.046875,"midi":48,"time":295.078125,"velocity":0.3937007874015748},{"duration":0.046875,"midi":83,"time":295.078125,"velocity":0.3937007874015748},{"duration":0.046875,"midi":72,"time":295.078125,"velocity":0.3937007874015748},{"duration":0.046875,"midi":67,"time":295.078125,"velocity":0.3937007874015748},{"duration":0.046875,"midi":69,"time":295.078125,"velocity":0.3937007874015748},{"duration":0.046875,"midi":50,"time":295.078125,"velocity":0.3937007874015748},{"duration":0.046875,"midi":71,"time":295.078125,"velocity":0.3937007874015748},{"duration":0.046875,"midi":52,"time":295.078125,"velocity":0.3937007874015748},{"duration":0.046875,"midi":52,"time":295.078125,"velocity":0.3937007874015748},{"duration":0.046875,"midi":64,"time":295.078125,"velocity":0.3937007874015748},{"duration":0.046875,"midi":69,"time":295.078125,"velocity":0.3937007874015748},{"duration":0.046875,"midi":53,"time":295.078125,"velocity":0.3937007874015748},{"duration":0.046875,"midi":83,"time":295.125,"velocity":0.3937007874015748},{"duration":0.046875,"midi":31,"time":295.125,"velocity":0.3937007874015748},{"duration":0.046875,"midi":33,"time":295.125,"velocity":0.3937007874015748},{"duration":0.046875,"midi":81,"time":295.125,"velocity":0.3937007874015748},{"duration":0.046875,"midi":55,"time":295.125,"velocity":0.3937007874015748},{"duration":0.046875,"midi":57,"time":295.125,"velocity":0.3937007874015748},{"duration":0.046875,"midi":48,"time":295.125,"velocity":0.3937007874015748},{"duration":0.046875,"midi":38,"time":295.125,"velocity":0.3937007874015748},{"duration":0.046875,"midi":74,"time":295.125,"velocity":0.3937007874015748},{"duration":0.046875,"midi":72,"time":295.125,"velocity":0.3937007874015748},{"duration":0.046875,"midi":74,"time":295.125,"velocity":0.3937007874015748},{"duration":0.046875,"midi":91,"time":295.125,"velocity":0.3937007874015748},{"duration":0.046875,"midi":81,"time":295.125,"velocity":0.3937007874015748},{"duration":0.046875,"midi":89,"time":295.125,"velocity":0.3937007874015748},{"duration":0.046875,"midi":40,"time":295.125,"velocity":0.3937007874015748},{"duration":0.046875,"midi":55,"time":295.125,"velocity":0.3937007874015748},{"duration":0.046875,"midi":83,"time":295.125,"velocity":0.3937007874015748},{"duration":0.046875,"midi":40,"time":295.125,"velocity":0.3937007874015748},{"duration":0.046875,"midi":47,"time":295.125,"velocity":0.3937007874015748},{"duration":0.046875,"midi":35,"time":295.125,"velocity":0.3937007874015748},{"duration":0.046875,"midi":91,"time":295.125,"velocity":0.3937007874015748},{"duration":0.046875,"midi":57,"time":295.125,"velocity":0.3937007874015748},{"duration":0.046875,"midi":38,"time":295.125,"velocity":0.3937007874015748},{"duration":0.046875,"midi":35,"time":295.125,"velocity":0.3937007874015748},{"duration":0.046875,"midi":33,"time":295.125,"velocity":0.3937007874015748},{"duration":0.046875,"midi":47,"time":295.125,"velocity":0.3937007874015748},{"duration":0.046875,"midi":48,"time":295.125,"velocity":0.3937007874015748},{"duration":0.046875,"midi":89,"time":295.125,"velocity":0.3937007874015748},{"duration":0.046875,"midi":72,"time":295.125,"velocity":0.3937007874015748},{"duration":0.046875,"midi":31,"time":295.125,"velocity":0.3937007874015748},{"duration":0.046875,"midi":89,"time":295.171875,"velocity":0.3937007874015748},{"duration":0.046875,"midi":55,"time":295.171875,"velocity":0.3937007874015748},{"duration":0.046875,"midi":57,"time":295.171875,"velocity":0.3937007874015748},{"duration":0.046875,"midi":72,"time":295.171875,"velocity":0.3937007874015748},{"duration":0.046875,"midi":35,"time":295.171875,"velocity":0.3937007874015748},{"duration":0.046875,"midi":36,"time":295.171875,"velocity":0.3937007874015748},{"duration":0.046875,"midi":48,"time":295.171875,"velocity":0.3937007874015748},{"duration":0.046875,"midi":55,"time":295.171875,"velocity":0.3937007874015748},{"duration":0.046875,"midi":47,"time":295.171875,"velocity":0.3937007874015748},{"duration":0.046875,"midi":72,"time":295.171875,"velocity":0.3937007874015748},{"duration":0.046875,"midi":38,"time":295.171875,"velocity":0.3937007874015748},{"duration":0.046875,"midi":89,"time":295.171875,"velocity":0.3937007874015748},{"duration":0.046875,"midi":36,"time":295.171875,"velocity":0.3937007874015748},{"duration":0.046875,"midi":81,"time":295.171875,"velocity":0.3937007874015748},{"duration":0.046875,"midi":74,"time":295.171875,"velocity":0.3937007874015748},{"duration":0.046875,"midi":48,"time":295.171875,"velocity":0.3937007874015748},{"duration":0.046875,"midi":40,"time":295.171875,"velocity":0.3937007874015748},{"duration":0.046875,"midi":91,"time":295.171875,"velocity":0.3937007874015748},{"duration":0.046875,"midi":57,"time":295.171875,"velocity":0.3937007874015748},{"duration":0.046875,"midi":83,"time":295.171875,"velocity":0.3937007874015748},{"duration":0.046875,"midi":91,"time":295.171875,"velocity":0.3937007874015748},{"duration":0.046875,"midi":35,"time":295.171875,"velocity":0.3937007874015748},{"duration":0.046875,"midi":81,"time":295.171875,"velocity":0.3937007874015748},{"duration":0.046875,"midi":47,"time":295.171875,"velocity":0.3937007874015748},{"duration":0.046875,"midi":83,"time":295.171875,"velocity":0.3937007874015748},{"duration":0.046875,"midi":74,"time":295.171875,"velocity":0.3937007874015748},{"duration":0.046875,"midi":38,"time":295.171875,"velocity":0.3937007874015748},{"duration":0.046875,"midi":40,"time":295.171875,"velocity":0.3937007874015748},{"duration":0.046875,"midi":67,"time":295.21875,"velocity":0.3937007874015748},{"duration":0.046875,"midi":69,"time":295.21875,"velocity":0.3937007874015748},{"duration":0.046875,"midi":48,"time":295.21875,"velocity":0.3937007874015748},{"duration":0.046875,"midi":71,"time":295.21875,"velocity":0.3937007874015748},{"duration":0.046875,"midi":31,"time":295.21875,"velocity":0.3937007874015748},{"duration":0.046875,"midi":38,"time":295.21875,"velocity":0.3937007874015748},{"duration":0.046875,"midi":65,"time":295.21875,"velocity":0.3937007874015748},{"duration":0.046875,"midi":36,"time":295.21875,"velocity":0.3937007874015748},{"duration":0.046875,"midi":47,"time":295.21875,"velocity":0.3937007874015748},{"duration":0.046875,"midi":81,"time":295.21875,"velocity":0.3937007874015748},{"duration":0.046875,"midi":35,"time":295.21875,"velocity":0.3937007874015748},{"duration":0.046875,"midi":36,"time":295.21875,"velocity":0.3937007874015748},{"duration":0.046875,"midi":55,"time":295.21875,"velocity":0.3937007874015748},{"duration":0.046875,"midi":83,"time":295.21875,"velocity":0.3937007874015748},{"duration":0.046875,"midi":35,"time":295.21875,"velocity":0.3937007874015748},{"duration":0.046875,"midi":81,"time":295.21875,"velocity":0.3937007874015748},{"duration":0.046875,"midi":72,"time":295.21875,"velocity":0.3937007874015748},{"duration":0.046875,"midi":69,"time":295.21875,"velocity":0.3937007874015748},{"duration":0.046875,"midi":84,"time":295.21875,"velocity":0.3937007874015748},{"duration":0.046875,"midi":48,"time":295.21875,"velocity":0.3937007874015748},{"duration":0.046875,"midi":38,"time":295.21875,"velocity":0.3937007874015748},{"duration":0.046875,"midi":72,"time":295.21875,"velocity":0.3937007874015748},{"duration":0.046875,"midi":88,"time":295.21875,"velocity":0.3937007874015748},{"duration":0.046875,"midi":71,"time":295.21875,"velocity":0.3937007874015748},{"duration":0.046875,"midi":91,"time":295.21875,"velocity":0.3937007874015748},{"duration":0.046875,"midi":83,"time":295.21875,"velocity":0.3937007874015748},{"duration":0.046875,"midi":47,"time":295.21875,"velocity":0.3937007874015748},{"duration":0.046875,"midi":91,"time":295.21875,"velocity":0.3937007874015748},{"duration":0.046875,"midi":57,"time":295.21875,"velocity":0.3937007874015748},{"duration":0.046875,"midi":31,"time":295.21875,"velocity":0.3937007874015748},{"duration":0.046875,"midi":40,"time":295.21875,"velocity":0.3937007874015748},{"duration":0.046875,"midi":67,"time":295.21875,"velocity":0.3937007874015748},{"duration":0.046875,"midi":57,"time":295.21875,"velocity":0.3937007874015748},{"duration":0.046875,"midi":84,"time":295.21875,"velocity":0.3937007874015748},{"duration":0.046875,"midi":86,"time":295.21875,"velocity":0.3937007874015748},{"duration":0.046875,"midi":89,"time":295.21875,"velocity":0.3937007874015748},{"duration":0.046875,"midi":40,"time":295.21875,"velocity":0.3937007874015748},{"duration":0.046875,"midi":33,"time":295.21875,"velocity":0.3937007874015748},{"duration":0.046875,"midi":89,"time":295.21875,"velocity":0.3937007874015748},{"duration":0.046875,"midi":88,"time":295.21875,"velocity":0.3937007874015748},{"duration":0.046875,"midi":65,"time":295.21875,"velocity":0.3937007874015748},{"duration":0.046875,"midi":86,"time":295.21875,"velocity":0.3937007874015748},{"duration":0.046875,"midi":55,"time":295.21875,"velocity":0.3937007874015748},{"duration":0.046875,"midi":33,"time":295.21875,"velocity":0.3937007874015748},{"duration":0.046875,"midi":81,"time":295.265625,"velocity":0.3937007874015748},{"duration":0.046875,"midi":31,"time":295.265625,"velocity":0.3937007874015748},{"duration":0.046875,"midi":29,"time":295.265625,"velocity":0.3937007874015748},{"duration":0.046875,"midi":55,"time":295.265625,"velocity":0.3937007874015748},{"duration":0.046875,"midi":65,"time":295.265625,"velocity":0.3937007874015748},{"duration":0.046875,"midi":31,"time":295.265625,"velocity":0.3937007874015748},{"duration":0.046875,"midi":40,"time":295.265625,"velocity":0.3937007874015748},{"duration":0.046875,"midi":65,"time":295.265625,"velocity":0.3937007874015748},{"duration":0.046875,"midi":38,"time":295.265625,"velocity":0.3937007874015748},{"duration":0.046875,"midi":91,"time":295.265625,"velocity":0.3937007874015748},{"duration":0.046875,"midi":89,"time":295.265625,"velocity":0.3937007874015748},{"duration":0.046875,"midi":48,"time":295.265625,"velocity":0.3937007874015748},{"duration":0.046875,"midi":29,"time":295.265625,"velocity":0.3937007874015748},{"duration":0.046875,"midi":91,"time":295.265625,"velocity":0.3937007874015748},{"duration":0.046875,"midi":47,"time":295.265625,"velocity":0.3937007874015748},{"duration":0.046875,"midi":40,"time":295.265625,"velocity":0.3937007874015748},{"duration":0.046875,"midi":64,"time":295.265625,"velocity":0.3937007874015748},{"duration":0.046875,"midi":47,"time":295.265625,"velocity":0.3937007874015748},{"duration":0.046875,"midi":83,"time":295.265625,"velocity":0.3937007874015748},{"duration":0.046875,"midi":48,"time":295.265625,"velocity":0.3937007874015748},{"duration":0.046875,"midi":38,"time":295.265625,"velocity":0.3937007874015748},{"duration":0.046875,"midi":64,"time":295.265625,"velocity":0.3937007874015748},{"duration":0.046875,"midi":55,"time":295.265625,"velocity":0.3937007874015748},{"duration":0.046875,"midi":57,"time":295.265625,"velocity":0.3937007874015748},{"duration":0.046875,"midi":57,"time":295.265625,"velocity":0.3937007874015748},{"duration":0.046875,"midi":89,"time":295.265625,"velocity":0.3937007874015748},{"duration":0.046875,"midi":81,"time":295.265625,"velocity":0.3937007874015748},{"duration":0.046875,"midi":83,"time":295.265625,"velocity":0.3937007874015748},{"duration":0.046875,"midi":55,"time":295.3125,"velocity":0.3937007874015748},{"duration":0.046875,"midi":40,"time":295.3125,"velocity":0.3937007874015748},{"duration":0.046875,"midi":64,"time":295.3125,"velocity":0.3937007874015748},{"duration":0.046875,"midi":38,"time":295.3125,"velocity":0.3937007874015748},{"duration":0.046875,"midi":40,"time":295.3125,"velocity":0.3937007874015748},{"duration":0.046875,"midi":89,"time":295.3125,"velocity":0.3937007874015748},{"duration":0.046875,"midi":91,"time":295.3125,"velocity":0.3937007874015748},{"duration":0.046875,"midi":38,"time":295.3125,"velocity":0.3937007874015748},{"duration":0.046875,"midi":91,"time":295.3125,"velocity":0.3937007874015748},{"duration":0.046875,"midi":48,"time":295.3125,"velocity":0.3937007874015748},{"duration":0.046875,"midi":81,"time":295.3125,"velocity":0.3937007874015748},{"duration":0.046875,"midi":83,"time":295.3125,"velocity":0.3937007874015748},{"duration":0.046875,"midi":29,"time":295.3125,"velocity":0.3937007874015748},{"duration":0.046875,"midi":64,"time":295.3125,"velocity":0.3937007874015748},{"duration":0.046875,"midi":31,"time":295.3125,"velocity":0.3937007874015748},{"duration":0.046875,"midi":65,"time":295.3125,"velocity":0.3937007874015748},{"duration":0.046875,"midi":65,"time":295.3125,"velocity":0.3937007874015748},{"duration":0.046875,"midi":29,"time":295.3125,"velocity":0.3937007874015748},{"duration":0.046875,"midi":89,"time":295.3125,"velocity":0.3937007874015748},{"duration":0.046875,"midi":47,"time":295.3125,"velocity":0.3937007874015748},{"duration":0.046875,"midi":48,"time":295.3125,"velocity":0.3937007874015748},{"duration":0.046875,"midi":57,"time":295.3125,"velocity":0.3937007874015748},{"duration":0.046875,"midi":81,"time":295.3125,"velocity":0.3937007874015748},{"duration":0.046875,"midi":47,"time":295.3125,"velocity":0.3937007874015748},{"duration":0.046875,"midi":31,"time":295.3125,"velocity":0.3937007874015748},{"duration":0.046875,"midi":55,"time":295.3125,"velocity":0.3937007874015748},{"duration":0.046875,"midi":83,"time":295.3125,"velocity":0.3937007874015748},{"duration":0.046875,"midi":57,"time":295.3125,"velocity":0.3937007874015748},{"duration":0.046875,"midi":81,"time":295.359375,"velocity":0.3937007874015748},{"duration":0.046875,"midi":91,"time":295.359375,"velocity":0.3937007874015748},{"duration":0.046875,"midi":89,"time":295.359375,"velocity":0.3937007874015748},{"duration":0.046875,"midi":69,"time":295.359375,"velocity":0.3937007874015748},{"duration":0.046875,"midi":69,"time":295.359375,"velocity":0.3937007874015748},{"duration":0.046875,"midi":72,"time":295.359375,"velocity":0.3937007874015748},{"duration":0.046875,"midi":38,"time":295.359375,"velocity":0.3937007874015748},{"duration":0.046875,"midi":35,"time":295.359375,"velocity":0.3937007874015748},{"duration":0.046875,"midi":74,"time":295.359375,"velocity":0.3937007874015748},{"duration":0.046875,"midi":36,"time":295.359375,"velocity":0.3937007874015748},{"duration":0.046875,"midi":31,"time":295.359375,"velocity":0.3937007874015748},{"duration":0.046875,"midi":38,"time":295.359375,"velocity":0.3937007874015748},{"duration":0.046875,"midi":36,"time":295.359375,"velocity":0.3937007874015748},{"duration":0.046875,"midi":35,"time":295.359375,"velocity":0.3937007874015748},{"duration":0.046875,"midi":67,"time":295.359375,"velocity":0.3937007874015748},{"duration":0.046875,"midi":65,"time":295.359375,"velocity":0.3937007874015748},{"duration":0.046875,"midi":71,"time":295.359375,"velocity":0.3937007874015748},{"duration":0.046875,"midi":83,"time":295.359375,"velocity":0.3937007874015748},{"duration":0.046875,"midi":31,"time":295.359375,"velocity":0.3937007874015748},{"duration":0.046875,"midi":40,"time":295.359375,"velocity":0.3937007874015748},{"duration":0.046875,"midi":71,"time":295.359375,"velocity":0.3937007874015748},{"duration":0.046875,"midi":72,"time":295.359375,"velocity":0.3937007874015748},{"duration":0.046875,"midi":48,"time":295.359375,"velocity":0.3937007874015748},{"duration":0.046875,"midi":91,"time":295.359375,"velocity":0.3937007874015748},{"duration":0.046875,"midi":57,"time":295.359375,"velocity":0.3937007874015748},{"duration":0.046875,"midi":57,"time":295.359375,"velocity":0.3937007874015748},{"duration":0.046875,"midi":33,"time":295.359375,"velocity":0.3937007874015748},{"duration":0.046875,"midi":47,"time":295.359375,"velocity":0.3937007874015748},{"duration":0.046875,"midi":74,"time":295.359375,"velocity":0.3937007874015748},{"duration":0.046875,"midi":55,"time":295.359375,"velocity":0.3937007874015748},{"duration":0.046875,"midi":83,"time":295.359375,"velocity":0.3937007874015748},{"duration":0.046875,"midi":55,"time":295.359375,"velocity":0.3937007874015748},{"duration":0.046875,"midi":81,"time":295.359375,"velocity":0.3937007874015748},{"duration":0.046875,"midi":89,"time":295.359375,"velocity":0.3937007874015748},{"duration":0.046875,"midi":67,"time":295.359375,"velocity":0.3937007874015748},{"duration":0.046875,"midi":47,"time":295.359375,"velocity":0.3937007874015748},{"duration":0.046875,"midi":33,"time":295.359375,"velocity":0.3937007874015748},{"duration":0.046875,"midi":40,"time":295.359375,"velocity":0.3937007874015748},{"duration":0.046875,"midi":48,"time":295.359375,"velocity":0.3937007874015748},{"duration":0.046875,"midi":65,"time":295.359375,"velocity":0.3937007874015748},{"duration":0.046875,"midi":64,"time":296.578125,"velocity":0.3937007874015748},{"duration":0.046875,"midi":55,"time":296.578125,"velocity":0.3937007874015748},{"duration":0.046875,"midi":64,"time":296.578125,"velocity":0.3937007874015748},{"duration":0.046875,"midi":57,"time":296.578125,"velocity":0.3937007874015748},{"duration":0.046875,"midi":65,"time":296.578125,"velocity":0.3937007874015748},{"duration":0.046875,"midi":62,"time":296.578125,"velocity":0.3937007874015748},{"duration":0.046875,"midi":55,"time":296.578125,"velocity":0.3937007874015748},{"duration":0.046875,"midi":60,"time":296.578125,"velocity":0.3937007874015748},{"duration":0.046875,"midi":65,"time":296.578125,"velocity":0.3937007874015748},{"duration":0.046875,"midi":62,"time":296.578125,"velocity":0.3937007874015748},{"duration":0.046875,"midi":59,"time":296.578125,"velocity":0.3937007874015748},{"duration":0.046875,"midi":57,"time":296.578125,"velocity":0.3937007874015748},{"duration":0.046875,"midi":59,"time":296.578125,"velocity":0.3937007874015748},{"duration":0.046875,"midi":60,"time":296.578125,"velocity":0.3937007874015748},{"duration":0.046875,"midi":57,"time":296.625,"velocity":0.3937007874015748},{"duration":0.046875,"midi":55,"time":296.625,"velocity":0.3937007874015748},{"duration":0.046875,"midi":57,"time":296.625,"velocity":0.3937007874015748},{"duration":0.046875,"midi":55,"time":296.625,"velocity":0.3937007874015748},{"duration":0.046875,"midi":55,"time":296.671875,"velocity":0.3937007874015748},{"duration":0.046875,"midi":57,"time":296.671875,"velocity":0.3937007874015748},{"duration":0.046875,"midi":55,"time":296.671875,"velocity":0.3937007874015748},{"duration":0.046875,"midi":57,"time":296.671875,"velocity":0.3937007874015748},{"duration":0.046875,"midi":64,"time":296.71875,"velocity":0.3937007874015748},{"duration":0.046875,"midi":62,"time":296.71875,"velocity":0.3937007874015748},{"duration":0.046875,"midi":60,"time":296.71875,"velocity":0.3937007874015748},{"duration":0.046875,"midi":60,"time":296.71875,"velocity":0.3937007874015748},{"duration":0.046875,"midi":55,"time":296.71875,"velocity":0.3937007874015748},{"duration":0.046875,"midi":65,"time":296.71875,"velocity":0.3937007874015748},{"duration":0.046875,"midi":59,"time":296.71875,"velocity":0.3937007874015748},{"duration":0.046875,"midi":64,"time":296.71875,"velocity":0.3937007874015748},{"duration":0.046875,"midi":55,"time":296.71875,"velocity":0.3937007874015748},{"duration":0.046875,"midi":59,"time":296.71875,"velocity":0.3937007874015748},{"duration":0.046875,"midi":65,"time":296.71875,"velocity":0.3937007874015748},{"duration":0.046875,"midi":57,"time":296.71875,"velocity":0.3937007874015748},{"duration":0.046875,"midi":57,"time":296.71875,"velocity":0.3937007874015748},{"duration":0.046875,"midi":62,"time":296.71875,"velocity":0.3937007874015748},{"duration":0.046875,"midi":55,"time":296.765625,"velocity":0.3937007874015748},{"duration":0.046875,"midi":57,"time":296.765625,"velocity":0.3937007874015748},{"duration":0.046875,"midi":55,"time":296.765625,"velocity":0.3937007874015748},{"duration":0.046875,"midi":57,"time":296.765625,"velocity":0.3937007874015748},{"duration":0.046875,"midi":57,"time":296.8125,"velocity":0.3937007874015748},{"duration":0.046875,"midi":55,"time":296.8125,"velocity":0.3937007874015748},{"duration":0.046875,"midi":55,"time":296.8125,"velocity":0.3937007874015748},{"duration":0.046875,"midi":57,"time":296.8125,"velocity":0.3937007874015748},{"duration":0.046875,"midi":62,"time":296.859375,"velocity":0.3937007874015748},{"duration":0.046875,"midi":59,"time":296.859375,"velocity":0.3937007874015748},{"duration":0.046875,"midi":59,"time":296.859375,"velocity":0.3937007874015748},{"duration":0.046875,"midi":55,"time":296.859375,"velocity":0.3937007874015748},{"duration":0.046875,"midi":65,"time":296.859375,"velocity":0.3937007874015748},{"duration":0.046875,"midi":60,"time":296.859375,"velocity":0.3937007874015748},{"duration":0.046875,"midi":57,"time":296.859375,"velocity":0.3937007874015748},{"duration":0.046875,"midi":65,"time":296.859375,"velocity":0.3937007874015748},{"duration":0.046875,"midi":55,"time":296.859375,"velocity":0.3937007874015748},{"duration":0.046875,"midi":64,"time":296.859375,"velocity":0.3937007874015748},{"duration":0.046875,"midi":64,"time":296.859375,"velocity":0.3937007874015748},{"duration":0.046875,"midi":62,"time":296.859375,"velocity":0.3937007874015748},{"duration":0.046875,"midi":57,"time":296.859375,"velocity":0.3937007874015748},{"duration":0.046875,"midi":60,"time":296.859375,"velocity":0.3937007874015748},{"duration":0.046875,"midi":91,"time":298.078125,"velocity":0.3937007874015748},{"duration":0.046875,"midi":67,"time":298.078125,"velocity":0.3937007874015748},{"duration":0.046875,"midi":31,"time":298.078125,"velocity":0.3937007874015748},{"duration":0.046875,"midi":83,"time":298.078125,"velocity":0.3937007874015748},{"duration":0.046875,"midi":83,"time":298.078125,"velocity":0.3937007874015748},{"duration":0.046875,"midi":65,"time":298.078125,"velocity":0.3937007874015748},{"duration":0.046875,"midi":69,"time":298.078125,"velocity":0.3937007874015748},{"duration":0.046875,"midi":53,"time":298.078125,"velocity":0.3937007874015748},{"duration":0.046875,"midi":81,"time":298.078125,"velocity":0.3937007874015748},{"duration":0.046875,"midi":65,"time":298.078125,"velocity":0.3937007874015748},{"duration":0.046875,"midi":48,"time":298.078125,"velocity":0.3937007874015748},{"duration":0.046875,"midi":38,"time":298.078125,"velocity":0.3937007874015748},{"duration":0.046875,"midi":72,"time":298.078125,"velocity":0.3937007874015748},{"duration":0.046875,"midi":40,"time":298.078125,"velocity":0.3937007874015748},{"duration":0.046875,"midi":52,"time":298.078125,"velocity":0.3937007874015748},{"duration":0.046875,"midi":48,"time":298.078125,"velocity":0.3937007874015748},{"duration":0.046875,"midi":55,"time":298.078125,"velocity":0.3937007874015748},{"duration":0.046875,"midi":55,"time":298.078125,"velocity":0.3937007874015748},{"duration":0.046875,"midi":29,"time":298.078125,"velocity":0.3937007874015748},{"duration":0.046875,"midi":53,"time":298.078125,"velocity":0.3937007874015748},{"duration":0.046875,"midi":29,"time":298.078125,"velocity":0.3937007874015748},{"duration":0.046875,"midi":40,"time":298.078125,"velocity":0.3937007874015748},{"duration":0.046875,"midi":52,"time":298.078125,"velocity":0.3937007874015748},{"duration":0.046875,"midi":50,"time":298.078125,"velocity":0.3937007874015748},{"duration":0.046875,"midi":64,"time":298.078125,"velocity":0.3937007874015748},{"duration":0.046875,"midi":89,"time":298.078125,"velocity":0.3937007874015748},{"duration":0.046875,"midi":69,"time":298.078125,"velocity":0.3937007874015748},{"duration":0.046875,"midi":72,"time":298.078125,"velocity":0.3937007874015748},{"duration":0.046875,"midi":50,"time":298.078125,"velocity":0.3937007874015748},{"duration":0.046875,"midi":91,"time":298.078125,"velocity":0.3937007874015748},{"duration":0.046875,"midi":89,"time":298.078125,"velocity":0.3937007874015748},{"duration":0.046875,"midi":64,"time":298.078125,"velocity":0.3937007874015748},{"duration":0.046875,"midi":38,"time":298.078125,"velocity":0.3937007874015748},{"duration":0.046875,"midi":81,"time":298.078125,"velocity":0.3937007874015748},{"duration":0.046875,"midi":71,"time":298.078125,"velocity":0.3937007874015748},{"duration":0.046875,"midi":31,"time":298.078125,"velocity":0.3937007874015748},{"duration":0.046875,"midi":71,"time":298.078125,"velocity":0.3937007874015748},{"duration":0.046875,"midi":67,"time":298.078125,"velocity":0.3937007874015748},{"duration":0.046875,"midi":47,"time":298.125,"velocity":0.3937007874015748},{"duration":0.046875,"midi":38,"time":298.125,"velocity":0.3937007874015748},{"duration":0.046875,"midi":55,"time":298.125,"velocity":0.3937007874015748},{"duration":0.046875,"midi":89,"time":298.125,"velocity":0.3937007874015748},{"duration":0.046875,"midi":31,"time":298.125,"velocity":0.3937007874015748},{"duration":0.046875,"midi":40,"time":298.125,"velocity":0.3937007874015748},{"duration":0.046875,"midi":72,"time":298.125,"velocity":0.3937007874015748},{"duration":0.046875,"midi":35,"time":298.125,"velocity":0.3937007874015748},{"duration":0.046875,"midi":57,"time":298.125,"velocity":0.3937007874015748},{"duration":0.046875,"midi":38,"time":298.125,"velocity":0.3937007874015748},{"duration":0.046875,"midi":89,"time":298.125,"velocity":0.3937007874015748},{"duration":0.046875,"midi":33,"time":298.125,"velocity":0.3937007874015748},{"duration":0.046875,"midi":81,"time":298.125,"velocity":0.3937007874015748},{"duration":0.046875,"midi":81,"time":298.125,"velocity":0.3937007874015748},{"duration":0.046875,"midi":48,"time":298.125,"velocity":0.3937007874015748},{"duration":0.046875,"midi":40,"time":298.125,"velocity":0.3937007874015748},{"duration":0.046875,"midi":31,"time":298.125,"velocity":0.3937007874015748},{"duration":0.046875,"midi":91,"time":298.125,"velocity":0.3937007874015748},{"duration":0.046875,"midi":74,"time":298.125,"velocity":0.3937007874015748},{"duration":0.046875,"midi":35,"time":298.125,"velocity":0.3937007874015748},{"duration":0.046875,"midi":55,"time":298.125,"velocity":0.3937007874015748},{"duration":0.046875,"midi":74,"time":298.125,"velocity":0.3937007874015748},{"duration":0.046875,"midi":47,"time":298.125,"velocity":0.3937007874015748},{"duration":0.046875,"midi":91,"time":298.125,"velocity":0.3937007874015748},{"duration":0.046875,"midi":57,"time":298.125,"velocity":0.3937007874015748},{"duration":0.046875,"midi":72,"time":298.125,"velocity":0.3937007874015748},{"duration":0.046875,"midi":48,"time":298.125,"velocity":0.3937007874015748},{"duration":0.046875,"midi":33,"time":298.125,"velocity":0.3937007874015748},{"duration":0.046875,"midi":83,"time":298.125,"velocity":0.3937007874015748},{"duration":0.046875,"midi":83,"time":298.125,"velocity":0.3937007874015748},{"duration":0.046875,"midi":55,"time":298.171875,"velocity":0.3937007874015748},{"duration":0.046875,"midi":57,"time":298.171875,"velocity":0.3937007874015748},{"duration":0.046875,"midi":74,"time":298.171875,"velocity":0.3937007874015748},{"duration":0.046875,"midi":48,"time":298.171875,"velocity":0.3937007874015748},{"duration":0.046875,"midi":48,"time":298.171875,"velocity":0.3937007874015748},{"duration":0.046875,"midi":40,"time":298.171875,"velocity":0.3937007874015748},{"duration":0.046875,"midi":40,"time":298.171875,"velocity":0.3937007874015748},{"duration":0.046875,"midi":57,"time":298.171875,"velocity":0.3937007874015748},{"duration":0.046875,"midi":55,"time":298.171875,"velocity":0.3937007874015748},{"duration":0.046875,"midi":83,"time":298.171875,"velocity":0.3937007874015748},{"duration":0.046875,"midi":72,"time":298.171875,"velocity":0.3937007874015748},{"duration":0.046875,"midi":36,"time":298.171875,"velocity":0.3937007874015748},{"duration":0.046875,"midi":47,"time":298.171875,"velocity":0.3937007874015748},{"duration":0.046875,"midi":35,"time":298.171875,"velocity":0.3937007874015748},{"duration":0.046875,"midi":91,"time":298.171875,"velocity":0.3937007874015748},{"duration":0.046875,"midi":89,"time":298.171875,"velocity":0.3937007874015748},{"duration":0.046875,"midi":81,"time":298.171875,"velocity":0.3937007874015748},{"duration":0.046875,"midi":74,"time":298.171875,"velocity":0.3937007874015748},{"duration":0.046875,"midi":89,"time":298.171875,"velocity":0.3937007874015748},{"duration":0.046875,"midi":91,"time":298.171875,"velocity":0.3937007874015748},{"duration":0.046875,"midi":35,"time":298.171875,"velocity":0.3937007874015748},{"duration":0.046875,"midi":47,"time":298.171875,"velocity":0.3937007874015748},{"duration":0.046875,"midi":38,"time":298.171875,"velocity":0.3937007874015748},{"duration":0.046875,"midi":36,"time":298.171875,"velocity":0.3937007874015748},{"duration":0.046875,"midi":83,"time":298.171875,"velocity":0.3937007874015748},{"duration":0.046875,"midi":72,"time":298.171875,"velocity":0.3937007874015748},{"duration":0.046875,"midi":81,"time":298.171875,"velocity":0.3937007874015748},{"duration":0.046875,"midi":38,"time":298.171875,"velocity":0.3937007874015748},{"duration":0.046875,"midi":89,"time":298.21875,"velocity":0.3937007874015748},{"duration":0.046875,"midi":88,"time":298.21875,"velocity":0.3937007874015748},{"duration":0.046875,"midi":81,"time":298.21875,"velocity":0.3937007874015748},{"duration":0.046875,"midi":35,"time":298.21875,"velocity":0.3937007874015748},{"duration":0.046875,"midi":36,"time":298.21875,"velocity":0.3937007874015748},{"duration":0.046875,"midi":71,"time":298.21875,"velocity":0.3937007874015748},{"duration":0.046875,"midi":69,"time":298.21875,"velocity":0.3937007874015748},{"duration":0.046875,"midi":57,"time":298.21875,"velocity":0.3937007874015748},{"duration":0.046875,"midi":38,"time":298.21875,"velocity":0.3937007874015748},{"duration":0.046875,"midi":83,"time":298.21875,"velocity":0.3937007874015748},{"duration":0.046875,"midi":31,"time":298.21875,"velocity":0.3937007874015748},{"duration":0.046875,"midi":88,"time":298.21875,"velocity":0.3937007874015748},{"duration":0.046875,"midi":35,"time":298.21875,"velocity":0.3937007874015748},{"duration":0.046875,"midi":91,"time":298.21875,"velocity":0.3937007874015748},{"duration":0.046875,"midi":65,"time":298.21875,"velocity":0.3937007874015748},{"duration":0.046875,"midi":47,"time":298.21875,"velocity":0.3937007874015748},{"duration":0.046875,"midi":47,"time":298.21875,"velocity":0.3937007874015748},{"duration":0.046875,"midi":40,"time":298.21875,"velocity":0.3937007874015748},{"duration":0.046875,"midi":86,"time":298.21875,"velocity":0.3937007874015748},{"duration":0.046875,"midi":57,"time":298.21875,"velocity":0.3937007874015748},{"duration":0.046875,"midi":33,"time":298.21875,"velocity":0.3937007874015748},{"duration":0.046875,"midi":40,"time":298.21875,"velocity":0.3937007874015748},{"duration":0.046875,"midi":48,"time":298.21875,"velocity":0.3937007874015748},{"duration":0.046875,"midi":48,"time":298.21875,"velocity":0.3937007874015748},{"duration":0.046875,"midi":81,"time":298.21875,"velocity":0.3937007874015748},{"duration":0.046875,"midi":83,"time":298.21875,"velocity":0.3937007874015748},{"duration":0.046875,"midi":72,"time":298.21875,"velocity":0.3937007874015748},{"duration":0.046875,"midi":69,"time":298.21875,"velocity":0.3937007874015748},{"duration":0.046875,"midi":71,"time":298.21875,"velocity":0.3937007874015748},{"duration":0.046875,"midi":65,"time":298.21875,"velocity":0.3937007874015748},{"duration":0.046875,"midi":91,"time":298.21875,"velocity":0.3937007874015748},{"duration":0.046875,"midi":38,"time":298.21875,"velocity":0.3937007874015748},{"duration":0.046875,"midi":31,"time":298.21875,"velocity":0.3937007874015748},{"duration":0.046875,"midi":67,"time":298.21875,"velocity":0.3937007874015748},{"duration":0.046875,"midi":89,"time":298.21875,"velocity":0.3937007874015748},{"duration":0.046875,"midi":33,"time":298.21875,"velocity":0.3937007874015748},{"duration":0.046875,"midi":67,"time":298.21875,"velocity":0.3937007874015748},{"duration":0.046875,"midi":55,"time":298.21875,"velocity":0.3937007874015748},{"duration":0.046875,"midi":55,"time":298.21875,"velocity":0.3937007874015748},{"duration":0.046875,"midi":86,"time":298.21875,"velocity":0.3937007874015748},{"duration":0.046875,"midi":72,"time":298.21875,"velocity":0.3937007874015748},{"duration":0.046875,"midi":84,"time":298.21875,"velocity":0.3937007874015748},{"duration":0.046875,"midi":36,"time":298.21875,"velocity":0.3937007874015748},{"duration":0.046875,"midi":84,"time":298.21875,"velocity":0.3937007874015748},{"duration":0.046875,"midi":47,"time":298.265625,"velocity":0.3937007874015748},{"duration":0.046875,"midi":29,"time":298.265625,"velocity":0.3937007874015748},{"duration":0.046875,"midi":91,"time":298.265625,"velocity":0.3937007874015748},{"duration":0.046875,"midi":83,"time":298.265625,"velocity":0.3937007874015748},{"duration":0.046875,"midi":55,"time":298.265625,"velocity":0.3937007874015748},{"duration":0.046875,"midi":83,"time":298.265625,"velocity":0.3937007874015748},{"duration":0.046875,"midi":55,"time":298.265625,"velocity":0.3937007874015748},{"duration":0.046875,"midi":64,"time":298.265625,"velocity":0.3937007874015748},{"duration":0.046875,"midi":65,"time":298.265625,"velocity":0.3937007874015748},{"duration":0.046875,"midi":65,"time":298.265625,"velocity":0.3937007874015748},{"duration":0.046875,"midi":48,"time":298.265625,"velocity":0.3937007874015748},{"duration":0.046875,"midi":38,"time":298.265625,"velocity":0.3937007874015748},{"duration":0.046875,"midi":57,"time":298.265625,"velocity":0.3937007874015748},{"duration":0.046875,"midi":31,"time":298.265625,"velocity":0.3937007874015748},{"duration":0.046875,"midi":38,"time":298.265625,"velocity":0.3937007874015748},{"duration":0.046875,"midi":29,"time":298.265625,"velocity":0.3937007874015748},{"duration":0.046875,"midi":91,"time":298.265625,"velocity":0.3937007874015748},{"duration":0.046875,"midi":47,"time":298.265625,"velocity":0.3937007874015748},{"duration":0.046875,"midi":89,"time":298.265625,"velocity":0.3937007874015748},{"duration":0.046875,"midi":31,"time":298.265625,"velocity":0.3937007874015748},{"duration":0.046875,"midi":81,"time":298.265625,"velocity":0.3937007874015748},{"duration":0.046875,"midi":48,"time":298.265625,"velocity":0.3937007874015748},{"duration":0.046875,"midi":64,"time":298.265625,"velocity":0.3937007874015748},{"duration":0.046875,"midi":57,"time":298.265625,"velocity":0.3937007874015748},{"duration":0.046875,"midi":40,"time":298.265625,"velocity":0.3937007874015748},{"duration":0.046875,"midi":81,"time":298.265625,"velocity":0.3937007874015748},{"duration":0.046875,"midi":89,"time":298.265625,"velocity":0.3937007874015748},{"duration":0.046875,"midi":40,"time":298.265625,"velocity":0.3937007874015748},{"duration":0.046875,"midi":31,"time":298.3125,"velocity":0.3937007874015748},{"duration":0.046875,"midi":65,"time":298.3125,"velocity":0.3937007874015748},{"duration":0.046875,"midi":40,"time":298.3125,"velocity":0.3937007874015748},{"duration":0.046875,"midi":64,"time":298.3125,"velocity":0.3937007874015748},{"duration":0.046875,"midi":57,"time":298.3125,"velocity":0.3937007874015748},{"duration":0.046875,"midi":65,"time":298.3125,"velocity":0.3937007874015748},{"duration":0.046875,"midi":91,"time":298.3125,"velocity":0.3937007874015748},{"duration":0.046875,"midi":38,"time":298.3125,"velocity":0.3937007874015748},{"duration":0.046875,"midi":48,"time":298.3125,"velocity":0.3937007874015748},{"duration":0.046875,"midi":55,"time":298.3125,"velocity":0.3937007874015748},{"duration":0.046875,"midi":40,"time":298.3125,"velocity":0.3937007874015748},{"duration":0.046875,"midi":55,"time":298.3125,"velocity":0.3937007874015748},{"duration":0.046875,"midi":64,"time":298.3125,"velocity":0.3937007874015748},{"duration":0.046875,"midi":89,"time":298.3125,"velocity":0.3937007874015748},{"duration":0.046875,"midi":81,"time":298.3125,"velocity":0.3937007874015748},{"duration":0.046875,"midi":29,"time":298.3125,"velocity":0.3937007874015748},{"duration":0.046875,"midi":57,"time":298.3125,"velocity":0.3937007874015748},{"duration":0.046875,"midi":31,"time":298.3125,"velocity":0.3937007874015748},{"duration":0.046875,"midi":47,"time":298.3125,"velocity":0.3937007874015748},{"duration":0.046875,"midi":91,"time":298.3125,"velocity":0.3937007874015748},{"duration":0.046875,"midi":48,"time":298.3125,"velocity":0.3937007874015748},{"duration":0.046875,"midi":83,"time":298.3125,"velocity":0.3937007874015748},{"duration":0.046875,"midi":47,"time":298.3125,"velocity":0.3937007874015748},{"duration":0.046875,"midi":83,"time":298.3125,"velocity":0.3937007874015748},{"duration":0.046875,"midi":89,"time":298.3125,"velocity":0.3937007874015748},{"duration":0.046875,"midi":29,"time":298.3125,"velocity":0.3937007874015748},{"duration":0.046875,"midi":38,"time":298.3125,"velocity":0.3937007874015748},{"duration":0.046875,"midi":81,"time":298.3125,"velocity":0.3937007874015748},{"duration":0.046875,"midi":47,"time":298.359375,"velocity":0.3937007874015748},{"duration":0.046875,"midi":40,"time":298.359375,"velocity":0.3937007874015748},{"duration":0.046875,"midi":83,"time":298.359375,"velocity":0.3937007874015748},{"duration":0.046875,"midi":40,"time":298.359375,"velocity":0.3937007874015748},{"duration":0.046875,"midi":36,"time":298.359375,"velocity":0.3937007874015748},{"duration":0.046875,"midi":91,"time":298.359375,"velocity":0.3937007874015748},{"duration":0.046875,"midi":57,"time":298.359375,"velocity":0.3937007874015748},{"duration":0.046875,"midi":65,"time":298.359375,"velocity":0.3937007874015748},{"duration":0.046875,"midi":35,"time":298.359375,"velocity":0.3937007874015748},{"duration":0.046875,"midi":48,"time":298.359375,"velocity":0.3937007874015748},{"duration":0.046875,"midi":33,"time":298.359375,"velocity":0.3937007874015748},{"duration":0.046875,"midi":69,"time":298.359375,"velocity":0.3937007874015748},{"duration":0.046875,"midi":71,"time":298.359375,"velocity":0.3937007874015748},{"duration":0.046875,"midi":38,"time":298.359375,"velocity":0.3937007874015748},{"duration":0.046875,"midi":31,"time":298.359375,"velocity":0.3937007874015748},{"duration":0.046875,"midi":48,"time":298.359375,"velocity":0.3937007874015748},{"duration":0.046875,"midi":31,"time":298.359375,"velocity":0.3937007874015748},{"duration":0.046875,"midi":67,"time":298.359375,"velocity":0.3937007874015748},{"duration":0.046875,"midi":55,"time":298.359375,"velocity":0.3937007874015748},{"duration":0.046875,"midi":35,"time":298.359375,"velocity":0.3937007874015748},{"duration":0.046875,"midi":69,"time":298.359375,"velocity":0.3937007874015748},{"duration":0.046875,"midi":89,"time":298.359375,"velocity":0.3937007874015748},{"duration":0.046875,"midi":81,"time":298.359375,"velocity":0.3937007874015748},{"duration":0.046875,"midi":72,"time":298.359375,"velocity":0.3937007874015748},{"duration":0.046875,"midi":55,"time":298.359375,"velocity":0.3937007874015748},{"duration":0.046875,"midi":65,"time":298.359375,"velocity":0.3937007874015748},{"duration":0.046875,"midi":57,"time":298.359375,"velocity":0.3937007874015748},{"duration":0.046875,"midi":89,"time":298.359375,"velocity":0.3937007874015748},{"duration":0.046875,"midi":67,"time":298.359375,"velocity":0.3937007874015748},{"duration":0.046875,"midi":38,"time":298.359375,"velocity":0.3937007874015748},{"duration":0.046875,"midi":72,"time":298.359375,"velocity":0.3937007874015748},{"duration":0.046875,"midi":81,"time":298.359375,"velocity":0.3937007874015748},{"duration":0.046875,"midi":74,"time":298.359375,"velocity":0.3937007874015748},{"duration":0.046875,"midi":83,"time":298.359375,"velocity":0.3937007874015748},{"duration":0.046875,"midi":74,"time":298.359375,"velocity":0.3937007874015748},{"duration":0.046875,"midi":36,"time":298.359375,"velocity":0.3937007874015748},{"duration":0.046875,"midi":47,"time":298.359375,"velocity":0.3937007874015748},{"duration":0.046875,"midi":33,"time":298.359375,"velocity":0.3937007874015748},{"duration":0.046875,"midi":91,"time":298.359375,"velocity":0.3937007874015748},{"duration":0.046875,"midi":71,"time":298.359375,"velocity":0.3937007874015748},{"duration":0.046875,"midi":55,"time":299.578125,"velocity":0.3937007874015748},{"duration":0.046875,"midi":62,"time":299.578125,"velocity":0.3937007874015748},{"duration":0.046875,"midi":55,"time":299.578125,"velocity":0.3937007874015748},{"duration":0.046875,"midi":60,"time":299.578125,"velocity":0.3937007874015748},{"duration":0.046875,"midi":57,"time":299.578125,"velocity":0.3937007874015748},{"duration":0.046875,"midi":64,"time":299.578125,"velocity":0.3937007874015748},{"duration":0.046875,"midi":59,"time":299.578125,"velocity":0.3937007874015748},{"duration":0.046875,"midi":60,"time":299.578125,"velocity":0.3937007874015748},{"duration":0.046875,"midi":65,"time":299.578125,"velocity":0.3937007874015748},{"duration":0.046875,"midi":57,"time":299.578125,"velocity":0.3937007874015748},{"duration":0.046875,"midi":59,"time":299.578125,"velocity":0.3937007874015748},{"duration":0.046875,"midi":62,"time":299.578125,"velocity":0.3937007874015748},{"duration":0.046875,"midi":64,"time":299.578125,"velocity":0.3937007874015748},{"duration":0.046875,"midi":65,"time":299.578125,"velocity":0.3937007874015748},{"duration":0.046875,"midi":57,"time":299.625,"velocity":0.3937007874015748},{"duration":0.046875,"midi":55,"time":299.625,"velocity":0.3937007874015748},{"duration":0.046875,"midi":57,"time":299.625,"velocity":0.3937007874015748},{"duration":0.046875,"midi":55,"time":299.625,"velocity":0.3937007874015748},{"duration":0.046875,"midi":55,"time":299.671875,"velocity":0.3937007874015748},{"duration":0.046875,"midi":57,"time":299.671875,"velocity":0.3937007874015748},{"duration":0.046875,"midi":57,"time":299.671875,"velocity":0.3937007874015748},{"duration":0.046875,"midi":55,"time":299.671875,"velocity":0.3937007874015748},{"duration":0.046875,"midi":55,"time":299.71875,"velocity":0.3937007874015748},{"duration":0.046875,"midi":65,"time":299.71875,"velocity":0.3937007874015748},{"duration":0.046875,"midi":62,"time":299.71875,"velocity":0.3937007874015748},{"duration":0.046875,"midi":60,"time":299.71875,"velocity":0.3937007874015748},{"duration":0.046875,"midi":65,"time":299.71875,"velocity":0.3937007874015748},{"duration":0.046875,"midi":64,"time":299.71875,"velocity":0.3937007874015748},{"duration":0.046875,"midi":57,"time":299.71875,"velocity":0.3937007874015748},{"duration":0.046875,"midi":62,"time":299.71875,"velocity":0.3937007874015748},{"duration":0.046875,"midi":59,"time":299.71875,"velocity":0.3937007874015748},{"duration":0.046875,"midi":55,"time":299.71875,"velocity":0.3937007874015748},{"duration":0.046875,"midi":64,"time":299.71875,"velocity":0.3937007874015748},{"duration":0.046875,"midi":60,"time":299.71875,"velocity":0.3937007874015748},{"duration":0.046875,"midi":57,"time":299.71875,"velocity":0.3937007874015748},{"duration":0.046875,"midi":59,"time":299.71875,"velocity":0.3937007874015748},{"duration":0.046875,"midi":57,"time":299.765625,"velocity":0.3937007874015748},{"duration":0.046875,"midi":57,"time":299.765625,"velocity":0.3937007874015748},{"duration":0.046875,"midi":55,"time":299.765625,"velocity":0.3937007874015748},{"duration":0.046875,"midi":55,"time":299.765625,"velocity":0.3937007874015748},{"duration":0.046875,"midi":55,"time":299.8125,"velocity":0.3937007874015748},{"duration":0.046875,"midi":57,"time":299.8125,"velocity":0.3937007874015748},{"duration":0.046875,"midi":57,"time":299.8125,"velocity":0.3937007874015748},{"duration":0.046875,"midi":55,"time":299.8125,"velocity":0.3937007874015748},{"duration":0.046875,"midi":60,"time":299.859375,"velocity":0.3937007874015748},{"duration":0.046875,"midi":64,"time":299.859375,"velocity":0.3937007874015748},{"duration":0.046875,"midi":55,"time":299.859375,"velocity":0.3937007874015748},{"duration":0.046875,"midi":62,"time":299.859375,"velocity":0.3937007874015748},{"duration":0.046875,"midi":62,"time":299.859375,"velocity":0.3937007874015748},{"duration":0.046875,"midi":55,"time":299.859375,"velocity":0.3937007874015748},{"duration":0.046875,"midi":60,"time":299.859375,"velocity":0.3937007874015748},{"duration":0.046875,"midi":64,"time":299.859375,"velocity":0.3937007874015748},{"duration":0.046875,"midi":57,"time":299.859375,"velocity":0.3937007874015748},{"duration":0.046875,"midi":59,"time":299.859375,"velocity":0.3937007874015748},{"duration":0.046875,"midi":65,"time":299.859375,"velocity":0.3937007874015748},{"duration":0.046875,"midi":57,"time":299.859375,"velocity":0.3937007874015748},{"duration":0.046875,"midi":59,"time":299.859375,"velocity":0.3937007874015748},{"duration":0.046875,"midi":65,"time":299.859375,"velocity":0.3937007874015748},{"duration":0.09375,"midi":93,"time":300,"velocity":0.3937007874015748},{"duration":0.09375,"midi":84,"time":300,"velocity":0.3937007874015748},{"duration":0.09375,"midi":88,"time":300,"velocity":0.3937007874015748},{"duration":0.09375,"midi":69,"time":300,"velocity":0.3937007874015748},{"duration":0.09375,"midi":81,"time":300,"velocity":0.3937007874015748},{"duration":0.09375,"midi":72,"time":300,"velocity":0.3937007874015748},{"duration":0.09375,"midi":76,"time":300,"velocity":0.3937007874015748},{"duration":0.09375,"midi":84,"time":300.75,"velocity":0.3937007874015748},{"duration":0.09375,"midi":93,"time":300.75,"velocity":0.3937007874015748},{"duration":0.09375,"midi":81,"time":300.75,"velocity":0.3937007874015748},{"duration":0.09375,"midi":76,"time":300.75,"velocity":0.3937007874015748},{"duration":0.09375,"midi":88,"time":300.75,"velocity":0.3937007874015748},{"duration":0.09375,"midi":72,"time":300.75,"velocity":0.3937007874015748},{"duration":0.09375,"midi":69,"time":300.75,"velocity":0.3937007874015748},{"duration":0.09375,"midi":69,"time":301.125,"velocity":0.3937007874015748},{"duration":0.09375,"midi":72,"time":301.125,"velocity":0.3937007874015748},{"duration":0.09375,"midi":76,"time":301.125,"velocity":0.3937007874015748},{"duration":0.09375,"midi":81,"time":301.125,"velocity":0.3937007874015748},{"duration":0.09375,"midi":93,"time":301.125,"velocity":0.3937007874015748},{"duration":0.09375,"midi":88,"time":301.125,"velocity":0.3937007874015748},{"duration":0.09375,"midi":84,"time":301.125,"velocity":0.3937007874015748},{"duration":0.09375,"midi":72,"time":301.5,"velocity":0.3937007874015748},{"duration":0.09375,"midi":93,"time":301.5,"velocity":0.3937007874015748},{"duration":0.09375,"midi":76,"time":301.5,"velocity":0.3937007874015748},{"duration":0.09375,"midi":84,"time":301.5,"velocity":0.3937007874015748},{"duration":0.09375,"midi":81,"time":301.5,"velocity":0.3937007874015748},{"duration":0.09375,"midi":88,"time":301.5,"velocity":0.3937007874015748},{"duration":0.09375,"midi":69,"time":301.5,"velocity":0.3937007874015748},{"duration":0.09375,"midi":69,"time":302.25,"velocity":0.3937007874015748},{"duration":0.09375,"midi":93,"time":302.25,"velocity":0.3937007874015748},{"duration":0.09375,"midi":88,"time":302.25,"velocity":0.3937007874015748},{"duration":0.09375,"midi":81,"time":302.25,"velocity":0.3937007874015748},{"duration":0.09375,"midi":84,"time":302.25,"velocity":0.3937007874015748},{"duration":0.09375,"midi":76,"time":302.25,"velocity":0.3937007874015748},{"duration":0.09375,"midi":72,"time":302.25,"velocity":0.3937007874015748},{"duration":0.09375,"midi":88,"time":302.625,"velocity":0.3937007874015748},{"duration":0.09375,"midi":72,"time":302.625,"velocity":0.3937007874015748},{"duration":0.09375,"midi":84,"time":302.625,"velocity":0.3937007874015748},{"duration":0.09375,"midi":81,"time":302.625,"velocity":0.3937007874015748},{"duration":0.09375,"midi":93,"time":302.625,"velocity":0.3937007874015748},{"duration":0.09375,"midi":76,"time":302.625,"velocity":0.3937007874015748},{"duration":0.09375,"midi":69,"time":302.625,"velocity":0.3937007874015748},{"duration":0.09375,"midi":76,"time":303,"velocity":0.3937007874015748},{"duration":0.09375,"midi":72,"time":303,"velocity":0.3937007874015748},{"duration":0.09375,"midi":69,"time":303,"velocity":0.3937007874015748},{"duration":0.09375,"midi":81,"time":303,"velocity":0.3937007874015748},{"duration":0.09375,"midi":88,"time":303,"velocity":0.3937007874015748},{"duration":0.09375,"midi":93,"time":303,"velocity":0.3937007874015748},{"duration":0.09375,"midi":84,"time":303,"velocity":0.3937007874015748},{"duration":0.09375,"midi":69,"time":303.75,"velocity":0.3937007874015748},{"duration":0.09375,"midi":76,"time":303.75,"velocity":0.3937007874015748},{"duration":0.09375,"midi":93,"time":303.75,"velocity":0.3937007874015748},{"duration":0.09375,"midi":84,"time":303.75,"velocity":0.3937007874015748},{"duration":0.09375,"midi":81,"time":303.75,"velocity":0.3937007874015748},{"duration":0.09375,"midi":88,"time":303.75,"velocity":0.3937007874015748},{"duration":0.09375,"midi":72,"time":303.75,"velocity":0.3937007874015748},{"duration":0.09375,"midi":72,"time":304.125,"velocity":0.3937007874015748},{"duration":0.09375,"midi":69,"time":304.125,"velocity":0.3937007874015748},{"duration":0.09375,"midi":84,"time":304.125,"velocity":0.3937007874015748},{"duration":0.09375,"midi":93,"time":304.125,"velocity":0.3937007874015748},{"duration":0.09375,"midi":88,"time":304.125,"velocity":0.3937007874015748},{"duration":0.09375,"midi":81,"time":304.125,"velocity":0.3937007874015748},{"duration":0.09375,"midi":76,"time":304.125,"velocity":0.3937007874015748},{"duration":0.09375,"midi":81,"time":304.5,"velocity":0.3937007874015748},{"duration":0.09375,"midi":76,"time":304.5,"velocity":0.3937007874015748},{"duration":0.09375,"midi":69,"time":304.5,"velocity":0.3937007874015748},{"duration":0.09375,"midi":93,"time":304.5,"velocity":0.3937007874015748},{"duration":0.09375,"midi":88,"time":304.5,"velocity":0.3937007874015748},{"duration":0.09375,"midi":84,"time":304.5,"velocity":0.3937007874015748},{"duration":0.09375,"midi":72,"time":304.5,"velocity":0.3937007874015748},{"duration":0.09375,"midi":69,"time":305.25,"velocity":0.3937007874015748},{"duration":0.09375,"midi":93,"time":305.25,"velocity":0.3937007874015748},{"duration":0.09375,"midi":81,"time":305.25,"velocity":0.3937007874015748},{"duration":0.09375,"midi":76,"time":305.25,"velocity":0.3937007874015748},{"duration":0.09375,"midi":72,"time":305.25,"velocity":0.3937007874015748},{"duration":0.09375,"midi":88,"time":305.25,"velocity":0.3937007874015748},{"duration":0.09375,"midi":84,"time":305.25,"velocity":0.3937007874015748},{"duration":0.09375,"midi":72,"time":305.625,"velocity":0.3937007874015748},{"duration":0.09375,"midi":84,"time":305.625,"velocity":0.3937007874015748},{"duration":0.09375,"midi":69,"time":305.625,"velocity":0.3937007874015748},{"duration":0.09375,"midi":81,"time":305.625,"velocity":0.3937007874015748},{"duration":0.09375,"midi":88,"time":305.625,"velocity":0.3937007874015748},{"duration":0.09375,"midi":93,"time":305.625,"velocity":0.3937007874015748},{"duration":0.09375,"midi":76,"time":305.625,"velocity":0.3937007874015748},{"duration":0.09375,"midi":88,"time":306,"velocity":0.3937007874015748},{"duration":0.09375,"midi":84,"time":306,"velocity":0.3937007874015748},{"duration":0.09375,"midi":81,"time":306,"velocity":0.3937007874015748},{"duration":0.09375,"midi":72,"time":306,"velocity":0.3937007874015748},{"duration":0.09375,"midi":69,"time":306,"velocity":0.3937007874015748},{"duration":0.09375,"midi":76,"time":306,"velocity":0.3937007874015748},{"duration":0.09375,"midi":93,"time":306,"velocity":0.3937007874015748},{"duration":0.09375,"midi":76,"time":306.75,"velocity":0.3937007874015748},{"duration":0.09375,"midi":93,"time":306.75,"velocity":0.3937007874015748},{"duration":0.09375,"midi":72,"time":306.75,"velocity":0.3937007874015748},{"duration":0.09375,"midi":88,"time":306.75,"velocity":0.3937007874015748},{"duration":0.09375,"midi":84,"time":306.75,"velocity":0.3937007874015748},{"duration":0.09375,"midi":81,"time":306.75,"velocity":0.3937007874015748},{"duration":0.09375,"midi":69,"time":306.75,"velocity":0.3937007874015748},{"duration":0.09375,"midi":84,"time":307.125,"velocity":0.3937007874015748},{"duration":0.09375,"midi":88,"time":307.125,"velocity":0.3937007874015748},{"duration":0.09375,"midi":76,"time":307.125,"velocity":0.3937007874015748},{"duration":0.09375,"midi":69,"time":307.125,"velocity":0.3937007874015748},{"duration":0.09375,"midi":72,"time":307.125,"velocity":0.3937007874015748},{"duration":0.09375,"midi":93,"time":307.125,"velocity":0.3937007874015748},{"duration":0.09375,"midi":81,"time":307.125,"velocity":0.3937007874015748},{"duration":0.09375,"midi":81,"time":307.5,"velocity":0.3937007874015748},{"duration":0.09375,"midi":84,"time":307.5,"velocity":0.3937007874015748},{"duration":0.09375,"midi":88,"time":307.5,"velocity":0.3937007874015748},{"duration":0.09375,"midi":76,"time":307.5,"velocity":0.3937007874015748},{"duration":0.09375,"midi":72,"time":307.5,"velocity":0.3937007874015748},{"duration":0.09375,"midi":69,"time":307.5,"velocity":0.3937007874015748},{"duration":0.09375,"midi":93,"time":307.5,"velocity":0.3937007874015748},{"duration":0.09375,"midi":81,"time":308.25,"velocity":0.3937007874015748},{"duration":0.09375,"midi":69,"time":308.25,"velocity":0.3937007874015748},{"duration":0.09375,"midi":72,"time":308.25,"velocity":0.3937007874015748},{"duration":0.09375,"midi":88,"time":308.25,"velocity":0.3937007874015748},{"duration":0.09375,"midi":93,"time":308.25,"velocity":0.3937007874015748},{"duration":0.09375,"midi":76,"time":308.25,"velocity":0.3937007874015748},{"duration":0.09375,"midi":84,"time":308.25,"velocity":0.3937007874015748},{"duration":0.09375,"midi":72,"time":308.625,"velocity":0.3937007874015748},{"duration":0.09375,"midi":88,"time":308.625,"velocity":0.3937007874015748},{"duration":0.09375,"midi":81,"time":308.625,"velocity":0.3937007874015748},{"duration":0.09375,"midi":76,"time":308.625,"velocity":0.3937007874015748},{"duration":0.09375,"midi":93,"time":308.625,"velocity":0.3937007874015748},{"duration":0.09375,"midi":69,"time":308.625,"velocity":0.3937007874015748},{"duration":0.09375,"midi":84,"time":308.625,"velocity":0.3937007874015748},{"duration":0.09375,"midi":93,"time":309,"velocity":0.3937007874015748},{"duration":0.09375,"midi":81,"time":309,"velocity":0.3937007874015748},{"duration":0.09375,"midi":69,"time":309,"velocity":0.3937007874015748},{"duration":0.09375,"midi":88,"time":309,"velocity":0.3937007874015748},{"duration":0.09375,"midi":72,"time":309,"velocity":0.3937007874015748},{"duration":0.09375,"midi":76,"time":309,"velocity":0.3937007874015748},{"duration":0.09375,"midi":84,"time":309,"velocity":0.3937007874015748},{"duration":0.09375,"midi":72,"time":309.75,"velocity":0.3937007874015748},{"duration":0.09375,"midi":76,"time":309.75,"velocity":0.3937007874015748},{"duration":0.09375,"midi":93,"time":309.75,"velocity":0.3937007874015748},{"duration":0.09375,"midi":84,"time":309.75,"velocity":0.3937007874015748},{"duration":0.09375,"midi":88,"time":309.75,"velocity":0.3937007874015748},{"duration":0.09375,"midi":69,"time":309.75,"velocity":0.3937007874015748},{"duration":0.09375,"midi":81,"time":309.75,"velocity":0.3937007874015748},{"duration":0.09375,"midi":81,"time":310.125,"velocity":0.3937007874015748},{"duration":0.09375,"midi":88,"time":310.125,"velocity":0.3937007874015748},{"duration":0.09375,"midi":76,"time":310.125,"velocity":0.3937007874015748},{"duration":0.09375,"midi":69,"time":310.125,"velocity":0.3937007874015748},{"duration":0.09375,"midi":72,"time":310.125,"velocity":0.3937007874015748},{"duration":0.09375,"midi":84,"time":310.125,"velocity":0.3937007874015748},{"duration":0.09375,"midi":93,"time":310.125,"velocity":0.3937007874015748},{"duration":0.09375,"midi":88,"time":310.5,"velocity":0.3937007874015748},{"duration":0.09375,"midi":84,"time":310.5,"velocity":0.3937007874015748},{"duration":0.09375,"midi":72,"time":310.5,"velocity":0.3937007874015748},{"duration":0.09375,"midi":76,"time":310.5,"velocity":0.3937007874015748},{"duration":0.09375,"midi":69,"time":310.5,"velocity":0.3937007874015748},{"duration":0.09375,"midi":81,"time":310.5,"velocity":0.3937007874015748},{"duration":0.09375,"midi":93,"time":310.5,"velocity":0.3937007874015748},{"duration":0.09375,"midi":72,"time":311.25,"velocity":0.3937007874015748},{"duration":0.09375,"midi":93,"time":311.25,"velocity":0.3937007874015748},{"duration":0.09375,"midi":88,"time":311.25,"velocity":0.3937007874015748},{"duration":0.09375,"midi":76,"time":311.25,"velocity":0.3937007874015748},{"duration":0.09375,"midi":69,"time":311.25,"velocity":0.3937007874015748},{"duration":0.09375,"midi":81,"time":311.25,"velocity":0.3937007874015748},{"duration":0.09375,"midi":84,"time":311.25,"velocity":0.3937007874015748},{"duration":0.09375,"midi":81,"time":311.625,"velocity":0.3937007874015748},{"duration":0.09375,"midi":76,"time":311.625,"velocity":0.3937007874015748},{"duration":0.09375,"midi":93,"time":311.625,"velocity":0.3937007874015748},{"duration":0.09375,"midi":72,"time":311.625,"velocity":0.3937007874015748},{"duration":0.09375,"midi":69,"time":311.625,"velocity":0.3937007874015748},{"duration":0.09375,"midi":84,"time":311.625,"velocity":0.3937007874015748},{"duration":0.09375,"midi":88,"time":311.625,"velocity":0.3937007874015748},{"duration":0.09375,"midi":71,"time":312,"velocity":0.3937007874015748},{"duration":0.09375,"midi":88,"time":312,"velocity":0.3937007874015748},{"duration":0.09375,"midi":68,"time":312,"velocity":0.3937007874015748},{"duration":0.09375,"midi":92,"time":312,"velocity":0.3937007874015748},{"duration":0.09375,"midi":80,"time":312,"velocity":0.3937007874015748},{"duration":0.09375,"midi":83,"time":312,"velocity":0.3937007874015748},{"duration":0.09375,"midi":76,"time":312,"velocity":0.3937007874015748},{"duration":0.09375,"midi":92,"time":312.75,"velocity":0.3937007874015748},{"duration":0.09375,"midi":68,"time":312.75,"velocity":0.3937007874015748},{"duration":0.09375,"midi":88,"time":312.75,"velocity":0.3937007874015748},{"duration":0.09375,"midi":83,"time":312.75,"velocity":0.3937007874015748},{"duration":0.09375,"midi":71,"time":312.75,"velocity":0.3937007874015748},{"duration":0.09375,"midi":80,"time":312.75,"velocity":0.3937007874015748},{"duration":0.09375,"midi":76,"time":312.75,"velocity":0.3937007874015748},{"duration":0.09375,"midi":92,"time":313.125,"velocity":0.3937007874015748},{"duration":0.09375,"midi":68,"time":313.125,"velocity":0.3937007874015748},{"duration":0.09375,"midi":88,"time":313.125,"velocity":0.3937007874015748},{"duration":0.09375,"midi":80,"time":313.125,"velocity":0.3937007874015748},{"duration":0.09375,"midi":76,"time":313.125,"velocity":0.3937007874015748},{"duration":0.09375,"midi":71,"time":313.125,"velocity":0.3937007874015748},{"duration":0.09375,"midi":83,"time":313.125,"velocity":0.3937007874015748},{"duration":0.09375,"midi":76,"time":313.5,"velocity":0.3937007874015748},{"duration":0.09375,"midi":68,"time":313.5,"velocity":0.3937007874015748},{"duration":0.09375,"midi":92,"time":313.5,"velocity":0.3937007874015748},{"duration":0.09375,"midi":80,"time":313.5,"velocity":0.3937007874015748},{"duration":0.09375,"midi":83,"time":313.5,"velocity":0.3937007874015748},{"duration":0.09375,"midi":88,"time":313.5,"velocity":0.3937007874015748},{"duration":0.09375,"midi":71,"time":313.5,"velocity":0.3937007874015748},{"duration":0.09375,"midi":80,"time":314.25,"velocity":0.3937007874015748},{"duration":0.09375,"midi":92,"time":314.25,"velocity":0.3937007874015748},{"duration":0.09375,"midi":68,"time":314.25,"velocity":0.3937007874015748},{"duration":0.09375,"midi":71,"time":314.25,"velocity":0.3937007874015748},{"duration":0.09375,"midi":76,"time":314.25,"velocity":0.3937007874015748},{"duration":0.09375,"midi":88,"time":314.25,"velocity":0.3937007874015748},{"duration":0.09375,"midi":83,"time":314.25,"velocity":0.3937007874015748},{"duration":0.09375,"midi":68,"time":314.625,"velocity":0.3937007874015748},{"duration":0.09375,"midi":71,"time":314.625,"velocity":0.3937007874015748},{"duration":0.09375,"midi":76,"time":314.625,"velocity":0.3937007874015748},{"duration":0.09375,"midi":92,"time":314.625,"velocity":0.3937007874015748},{"duration":0.09375,"midi":83,"time":314.625,"velocity":0.3937007874015748},{"duration":0.09375,"midi":80,"time":314.625,"velocity":0.3937007874015748},{"duration":0.09375,"midi":88,"time":314.625,"velocity":0.3937007874015748},{"duration":0.09375,"midi":81,"time":315,"velocity":0.3937007874015748},{"duration":0.09375,"midi":84,"time":315,"velocity":0.3937007874015748},{"duration":0.09375,"midi":69,"time":315,"velocity":0.3937007874015748},{"duration":0.09375,"midi":88,"time":315,"velocity":0.3937007874015748},{"duration":0.09375,"midi":76,"time":315,"velocity":0.3937007874015748},{"duration":0.09375,"midi":92,"time":315,"velocity":0.3937007874015748},{"duration":0.09375,"midi":72,"time":315,"velocity":0.3937007874015748},{"duration":0.09375,"midi":76,"time":315.75,"velocity":0.3937007874015748},{"duration":0.09375,"midi":81,"time":315.75,"velocity":0.3937007874015748},{"duration":0.09375,"midi":72,"time":315.75,"velocity":0.3937007874015748},{"duration":0.09375,"midi":69,"time":315.75,"velocity":0.3937007874015748},{"duration":0.09375,"midi":88,"time":315.75,"velocity":0.3937007874015748},{"duration":0.09375,"midi":84,"time":315.75,"velocity":0.3937007874015748},{"duration":0.09375,"midi":92,"time":315.75,"velocity":0.3937007874015748},{"duration":0.09375,"midi":69,"time":316.125,"velocity":0.3937007874015748},{"duration":0.09375,"midi":81,"time":316.125,"velocity":0.3937007874015748},{"duration":0.09375,"midi":88,"time":316.125,"velocity":0.3937007874015748},{"duration":0.09375,"midi":76,"time":316.125,"velocity":0.3937007874015748},{"duration":0.09375,"midi":72,"time":316.125,"velocity":0.3937007874015748},{"duration":0.09375,"midi":84,"time":316.125,"velocity":0.3937007874015748},{"duration":0.09375,"midi":92,"time":316.125,"velocity":0.3937007874015748},{"duration":0.09375,"midi":92,"time":316.5,"velocity":0.3937007874015748},{"duration":0.09375,"midi":69,"time":316.5,"velocity":0.3937007874015748},{"duration":0.09375,"midi":84,"time":316.5,"velocity":0.3937007874015748},{"duration":0.09375,"midi":88,"time":316.5,"velocity":0.3937007874015748},{"duration":0.09375,"midi":76,"time":316.5,"velocity":0.3937007874015748},{"duration":0.09375,"midi":81,"time":316.5,"velocity":0.3937007874015748},{"duration":0.09375,"midi":72,"time":316.5,"velocity":0.3937007874015748},{"duration":0.09375,"midi":76,"time":317.25,"velocity":0.3937007874015748},{"duration":0.09375,"midi":69,"time":317.25,"velocity":0.3937007874015748},{"duration":0.09375,"midi":92,"time":317.25,"velocity":0.3937007874015748},{"duration":0.09375,"midi":81,"time":317.25,"velocity":0.3937007874015748},{"duration":0.09375,"midi":84,"time":317.25,"velocity":0.3937007874015748},{"duration":0.09375,"midi":88,"time":317.25,"velocity":0.3937007874015748},{"duration":0.09375,"midi":72,"time":317.25,"velocity":0.3937007874015748},{"duration":0.09375,"midi":76,"time":317.625,"velocity":0.3937007874015748},{"duration":0.09375,"midi":69,"time":317.625,"velocity":0.3937007874015748},{"duration":0.09375,"midi":81,"time":317.625,"velocity":0.3937007874015748},{"duration":0.09375,"midi":72,"time":317.625,"velocity":0.3937007874015748},{"duration":0.09375,"midi":88,"time":317.625,"velocity":0.3937007874015748},{"duration":0.09375,"midi":84,"time":317.625,"velocity":0.3937007874015748},{"duration":0.09375,"midi":92,"time":317.625,"velocity":0.3937007874015748},{"duration":0.09375,"midi":69,"time":318,"velocity":0.3937007874015748},{"duration":0.09375,"midi":81,"time":318,"velocity":0.3937007874015748},{"duration":0.09375,"midi":90,"time":318,"velocity":0.3937007874015748},{"duration":0.09375,"midi":87,"time":318,"velocity":0.3937007874015748},{"duration":0.09375,"midi":78,"time":318,"velocity":0.3937007874015748},{"duration":0.09375,"midi":93,"time":318,"velocity":0.3937007874015748},{"duration":0.09375,"midi":75,"time":318,"velocity":0.3937007874015748},{"duration":0.09375,"midi":78,"time":318.75,"velocity":0.3937007874015748},{"duration":0.09375,"midi":81,"time":318.75,"velocity":0.3937007874015748},{"duration":0.09375,"midi":93,"time":318.75,"velocity":0.3937007874015748},{"duration":0.09375,"midi":69,"time":318.75,"velocity":0.3937007874015748},{"duration":0.09375,"midi":75,"time":318.75,"velocity":0.3937007874015748},{"duration":0.09375,"midi":90,"time":318.75,"velocity":0.3937007874015748},{"duration":0.09375,"midi":87,"time":318.75,"velocity":0.3937007874015748},{"duration":0.09375,"midi":78,"time":319.5,"velocity":0.3937007874015748},{"duration":0.09375,"midi":93,"time":319.5,"velocity":0.3937007874015748},{"duration":0.09375,"midi":75,"time":319.5,"velocity":0.3937007874015748},{"duration":0.09375,"midi":90,"time":319.5,"velocity":0.3937007874015748},{"duration":0.09375,"midi":69,"time":319.5,"velocity":0.3937007874015748},{"duration":0.09375,"midi":87,"time":319.5,"velocity":0.3937007874015748},{"duration":0.09375,"midi":81,"time":319.5,"velocity":0.3937007874015748},{"duration":0.09375,"midi":69,"time":320.25,"velocity":0.3937007874015748},{"duration":0.09375,"midi":78,"time":320.25,"velocity":0.3937007874015748},{"duration":0.09375,"midi":81,"time":320.25,"velocity":0.3937007874015748},{"duration":0.09375,"midi":75,"time":320.25,"velocity":0.3937007874015748},{"duration":0.09375,"midi":87,"time":320.25,"velocity":0.3937007874015748},{"duration":0.09375,"midi":90,"time":320.25,"velocity":0.3937007874015748},{"duration":0.09375,"midi":93,"time":320.25,"velocity":0.3937007874015748},{"duration":0.09375,"midi":88,"time":321,"velocity":0.3937007874015748},{"duration":0.09375,"midi":71,"time":321,"velocity":0.3937007874015748},{"duration":0.09375,"midi":76,"time":321,"velocity":0.3937007874015748},{"duration":0.09375,"midi":92,"time":321,"velocity":0.3937007874015748},{"duration":0.09375,"midi":95,"time":321,"velocity":0.3937007874015748},{"duration":0.09375,"midi":68,"time":321,"velocity":0.3937007874015748},{"duration":0.09375,"midi":80,"time":321,"velocity":0.3937007874015748},{"duration":0.09375,"midi":83,"time":321,"velocity":0.3937007874015748},{"duration":0.09375,"midi":84,"time":324,"velocity":0.3937007874015748},{"duration":0.09375,"midi":81,"time":324,"velocity":0.3937007874015748},{"duration":0.09375,"midi":93,"time":324,"velocity":0.3937007874015748},{"duration":0.09375,"midi":76,"time":324,"velocity":0.3937007874015748},{"duration":0.09375,"midi":72,"time":324,"velocity":0.3937007874015748},{"duration":0.09375,"midi":88,"time":324,"velocity":0.3937007874015748},{"duration":0.09375,"midi":69,"time":324,"velocity":0.3937007874015748},{"duration":0.09375,"midi":72,"time":324.75,"velocity":0.3937007874015748},{"duration":0.09375,"midi":88,"time":324.75,"velocity":0.3937007874015748},{"duration":0.09375,"midi":84,"time":324.75,"velocity":0.3937007874015748},{"duration":0.09375,"midi":76,"time":324.75,"velocity":0.3937007874015748},{"duration":0.09375,"midi":93,"time":324.75,"velocity":0.3937007874015748},{"duration":0.09375,"midi":69,"time":324.75,"velocity":0.3937007874015748},{"duration":0.09375,"midi":81,"time":324.75,"velocity":0.3937007874015748},{"duration":0.09375,"midi":93,"time":325.125,"velocity":0.3937007874015748},{"duration":0.09375,"midi":88,"time":325.125,"velocity":0.3937007874015748},{"duration":0.09375,"midi":76,"time":325.125,"velocity":0.3937007874015748},{"duration":0.09375,"midi":69,"time":325.125,"velocity":0.3937007874015748},{"duration":0.09375,"midi":84,"time":325.125,"velocity":0.3937007874015748},{"duration":0.09375,"midi":72,"time":325.125,"velocity":0.3937007874015748},{"duration":0.09375,"midi":81,"time":325.125,"velocity":0.3937007874015748},{"duration":0.09375,"midi":72,"time":325.5,"velocity":0.3937007874015748},{"duration":0.09375,"midi":69,"time":325.5,"velocity":0.3937007874015748},{"duration":0.09375,"midi":84,"time":325.5,"velocity":0.3937007874015748},{"duration":0.09375,"midi":81,"time":325.5,"velocity":0.3937007874015748},{"duration":0.09375,"midi":76,"time":325.5,"velocity":0.3937007874015748},{"duration":0.09375,"midi":88,"time":325.5,"velocity":0.3937007874015748},{"duration":0.09375,"midi":93,"time":325.5,"velocity":0.3937007874015748},{"duration":0.09375,"midi":84,"time":326.25,"velocity":0.3937007874015748},{"duration":0.09375,"midi":88,"time":326.25,"velocity":0.3937007874015748},{"duration":0.09375,"midi":69,"time":326.25,"velocity":0.3937007874015748},{"duration":0.09375,"midi":72,"time":326.25,"velocity":0.3937007874015748},{"duration":0.09375,"midi":93,"time":326.25,"velocity":0.3937007874015748},{"duration":0.09375,"midi":81,"time":326.25,"velocity":0.3937007874015748},{"duration":0.09375,"midi":76,"time":326.25,"velocity":0.3937007874015748},{"duration":0.09375,"midi":69,"time":326.625,"velocity":0.3937007874015748},{"duration":0.09375,"midi":93,"time":326.625,"velocity":0.3937007874015748},{"duration":0.09375,"midi":72,"time":326.625,"velocity":0.3937007874015748},{"duration":0.09375,"midi":88,"time":326.625,"velocity":0.3937007874015748},{"duration":0.09375,"midi":84,"time":326.625,"velocity":0.3937007874015748},{"duration":0.09375,"midi":81,"time":326.625,"velocity":0.3937007874015748},{"duration":0.09375,"midi":76,"time":326.625,"velocity":0.3937007874015748},{"duration":0.09375,"midi":84,"time":327,"velocity":0.3937007874015748},{"duration":0.09375,"midi":69,"time":327,"velocity":0.3937007874015748},{"duration":0.09375,"midi":88,"time":327,"velocity":0.3937007874015748},{"duration":0.09375,"midi":76,"time":327,"velocity":0.3937007874015748},{"duration":0.09375,"midi":81,"time":327,"velocity":0.3937007874015748},{"duration":0.09375,"midi":72,"time":327,"velocity":0.3937007874015748},{"duration":0.09375,"midi":93,"time":327,"velocity":0.3937007874015748},{"duration":0.09375,"midi":76,"time":327.75,"velocity":0.3937007874015748},{"duration":0.09375,"midi":88,"time":327.75,"velocity":0.3937007874015748},{"duration":0.09375,"midi":69,"time":327.75,"velocity":0.3937007874015748},{"duration":0.09375,"midi":84,"time":327.75,"velocity":0.3937007874015748},{"duration":0.09375,"midi":81,"time":327.75,"velocity":0.3937007874015748},{"duration":0.09375,"midi":93,"time":327.75,"velocity":0.3937007874015748},{"duration":0.09375,"midi":72,"time":327.75,"velocity":0.3937007874015748},{"duration":0.09375,"midi":81,"time":328.125,"velocity":0.3937007874015748},{"duration":0.09375,"midi":76,"time":328.125,"velocity":0.3937007874015748},{"duration":0.09375,"midi":69,"time":328.125,"velocity":0.3937007874015748},{"duration":0.09375,"midi":93,"time":328.125,"velocity":0.3937007874015748},{"duration":0.09375,"midi":72,"time":328.125,"velocity":0.3937007874015748},{"duration":0.09375,"midi":88,"time":328.125,"velocity":0.3937007874015748},{"duration":0.09375,"midi":84,"time":328.125,"velocity":0.3937007874015748},{"duration":0.09375,"midi":84,"time":328.5,"velocity":0.3937007874015748},{"duration":0.09375,"midi":93,"time":328.5,"velocity":0.3937007874015748},{"duration":0.09375,"midi":72,"time":328.5,"velocity":0.3937007874015748},{"duration":0.09375,"midi":69,"time":328.5,"velocity":0.3937007874015748},{"duration":0.09375,"midi":76,"time":328.5,"velocity":0.3937007874015748},{"duration":0.09375,"midi":81,"time":328.5,"velocity":0.3937007874015748},{"duration":0.09375,"midi":88,"time":328.5,"velocity":0.3937007874015748},{"duration":0.09375,"midi":76,"time":329.25,"velocity":0.3937007874015748},{"duration":0.09375,"midi":72,"time":329.25,"velocity":0.3937007874015748},{"duration":0.09375,"midi":69,"time":329.25,"velocity":0.3937007874015748},{"duration":0.09375,"midi":81,"time":329.25,"velocity":0.3937007874015748},{"duration":0.09375,"midi":88,"time":329.25,"velocity":0.3937007874015748},{"duration":0.09375,"midi":93,"time":329.25,"velocity":0.3937007874015748},{"duration":0.09375,"midi":84,"time":329.25,"velocity":0.3937007874015748},{"duration":0.09375,"midi":69,"time":329.625,"velocity":0.3937007874015748},{"duration":0.09375,"midi":93,"time":329.625,"velocity":0.3937007874015748},{"duration":0.09375,"midi":84,"time":329.625,"velocity":0.3937007874015748},{"duration":0.09375,"midi":81,"time":329.625,"velocity":0.3937007874015748},{"duration":0.09375,"midi":76,"time":329.625,"velocity":0.3937007874015748},{"duration":0.09375,"midi":72,"time":329.625,"velocity":0.3937007874015748},{"duration":0.09375,"midi":88,"time":329.625,"velocity":0.3937007874015748},{"duration":0.09375,"midi":81,"time":330,"velocity":0.3937007874015748},{"duration":0.09375,"midi":84,"time":330,"velocity":0.3937007874015748},{"duration":0.09375,"midi":88,"time":330,"velocity":0.3937007874015748},{"duration":0.09375,"midi":69,"time":330,"velocity":0.3937007874015748},{"duration":0.09375,"midi":93,"time":330,"velocity":0.3937007874015748},{"duration":0.09375,"midi":72,"time":330,"velocity":0.3937007874015748},{"duration":0.09375,"midi":76,"time":330,"velocity":0.3937007874015748},{"duration":0.09375,"midi":88,"time":330.75,"velocity":0.3937007874015748},{"duration":0.09375,"midi":84,"time":330.75,"velocity":0.3937007874015748},{"duration":0.09375,"midi":81,"time":330.75,"velocity":0.3937007874015748},{"duration":0.09375,"midi":76,"time":330.75,"velocity":0.3937007874015748},{"duration":0.09375,"midi":69,"time":330.75,"velocity":0.3937007874015748},{"duration":0.09375,"midi":93,"time":330.75,"velocity":0.3937007874015748},{"duration":0.09375,"midi":72,"time":330.75,"velocity":0.3937007874015748},{"duration":0.09375,"midi":88,"time":331.125,"velocity":0.3937007874015748},{"duration":0.09375,"midi":76,"time":331.125,"velocity":0.3937007874015748},{"duration":0.09375,"midi":93,"time":331.125,"velocity":0.3937007874015748},{"duration":0.09375,"midi":81,"time":331.125,"velocity":0.3937007874015748},{"duration":0.09375,"midi":84,"time":331.125,"velocity":0.3937007874015748},{"duration":0.09375,"midi":72,"time":331.125,"velocity":0.3937007874015748},{"duration":0.09375,"midi":69,"time":331.125,"velocity":0.3937007874015748},{"duration":0.09375,"midi":93,"time":331.5,"velocity":0.3937007874015748},{"duration":0.09375,"midi":84,"time":331.5,"velocity":0.3937007874015748},{"duration":0.09375,"midi":69,"time":331.5,"velocity":0.3937007874015748},{"duration":0.09375,"midi":81,"time":331.5,"velocity":0.3937007874015748},{"duration":0.09375,"midi":88,"time":331.5,"velocity":0.3937007874015748},{"duration":0.09375,"midi":72,"time":331.5,"velocity":0.3937007874015748},{"duration":0.09375,"midi":76,"time":331.5,"velocity":0.3937007874015748},{"duration":0.09375,"midi":88,"time":332.25,"velocity":0.3937007874015748},{"duration":0.09375,"midi":69,"time":332.25,"velocity":0.3937007874015748},{"duration":0.09375,"midi":84,"time":332.25,"velocity":0.3937007874015748},{"duration":0.09375,"midi":93,"time":332.25,"velocity":0.3937007874015748},{"duration":0.09375,"midi":81,"time":332.25,"velocity":0.3937007874015748},{"duration":0.09375,"midi":72,"time":332.25,"velocity":0.3937007874015748},{"duration":0.09375,"midi":76,"time":332.25,"velocity":0.3937007874015748},{"duration":0.09375,"midi":76,"time":332.625,"velocity":0.3937007874015748},{"duration":0.09375,"midi":93,"time":332.625,"velocity":0.3937007874015748},{"duration":0.09375,"midi":88,"time":332.625,"velocity":0.3937007874015748},{"duration":0.09375,"midi":84,"time":332.625,"velocity":0.3937007874015748},{"duration":0.09375,"midi":69,"time":332.625,"velocity":0.3937007874015748},{"duration":0.09375,"midi":81,"time":332.625,"velocity":0.3937007874015748},{"duration":0.09375,"midi":72,"time":332.625,"velocity":0.3937007874015748},{"duration":0.09375,"midi":69,"time":333,"velocity":0.3937007874015748},{"duration":0.09375,"midi":93,"time":333,"velocity":0.3937007874015748},{"duration":0.09375,"midi":88,"time":333,"velocity":0.3937007874015748},{"duration":0.09375,"midi":81,"time":333,"velocity":0.3937007874015748},{"duration":0.09375,"midi":76,"time":333,"velocity":0.3937007874015748},{"duration":0.09375,"midi":72,"time":333,"velocity":0.3937007874015748},{"duration":0.09375,"midi":84,"time":333,"velocity":0.3937007874015748},{"duration":0.09375,"midi":88,"time":333.75,"velocity":0.3937007874015748},{"duration":0.09375,"midi":93,"time":333.75,"velocity":0.3937007874015748},{"duration":0.09375,"midi":69,"time":333.75,"velocity":0.3937007874015748},{"duration":0.09375,"midi":84,"time":333.75,"velocity":0.3937007874015748},{"duration":0.09375,"midi":81,"time":333.75,"velocity":0.3937007874015748},{"duration":0.09375,"midi":76,"time":333.75,"velocity":0.3937007874015748},{"duration":0.09375,"midi":72,"time":333.75,"velocity":0.3937007874015748},{"duration":0.09375,"midi":88,"time":334.125,"velocity":0.3937007874015748},{"duration":0.09375,"midi":81,"time":334.125,"velocity":0.3937007874015748},{"duration":0.09375,"midi":93,"time":334.125,"velocity":0.3937007874015748},{"duration":0.09375,"midi":72,"time":334.125,"velocity":0.3937007874015748},{"duration":0.09375,"midi":76,"time":334.125,"velocity":0.3937007874015748},{"duration":0.09375,"midi":69,"time":334.125,"velocity":0.3937007874015748},{"duration":0.09375,"midi":84,"time":334.125,"velocity":0.3937007874015748},{"duration":0.09375,"midi":88,"time":334.5,"velocity":0.3937007874015748},{"duration":0.09375,"midi":69,"time":334.5,"velocity":0.3937007874015748},{"duration":0.09375,"midi":72,"time":334.5,"velocity":0.3937007874015748},{"duration":0.09375,"midi":93,"time":334.5,"velocity":0.3937007874015748},{"duration":0.09375,"midi":76,"time":334.5,"velocity":0.3937007874015748},{"duration":0.09375,"midi":81,"time":334.5,"velocity":0.3937007874015748},{"duration":0.09375,"midi":84,"time":334.5,"velocity":0.3937007874015748},{"duration":0.09375,"midi":81,"time":335.25,"velocity":0.3937007874015748},{"duration":0.09375,"midi":69,"time":335.25,"velocity":0.3937007874015748},{"duration":0.09375,"midi":72,"time":335.25,"velocity":0.3937007874015748},{"duration":0.09375,"midi":93,"time":335.25,"velocity":0.3937007874015748},{"duration":0.09375,"midi":76,"time":335.25,"velocity":0.3937007874015748},{"duration":0.09375,"midi":84,"time":335.25,"velocity":0.3937007874015748},{"duration":0.09375,"midi":88,"time":335.25,"velocity":0.3937007874015748},{"duration":0.09375,"midi":84,"time":335.625,"velocity":0.3937007874015748},{"duration":0.09375,"midi":72,"time":335.625,"velocity":0.3937007874015748},{"duration":0.09375,"midi":76,"time":335.625,"velocity":0.3937007874015748},{"duration":0.09375,"midi":69,"time":335.625,"velocity":0.3937007874015748},{"duration":0.09375,"midi":88,"time":335.625,"velocity":0.3937007874015748},{"duration":0.09375,"midi":93,"time":335.625,"velocity":0.3937007874015748},{"duration":0.09375,"midi":81,"time":335.625,"velocity":0.3937007874015748},{"duration":0.09375,"midi":89,"time":336,"velocity":0.3937007874015748},{"duration":0.09375,"midi":69,"time":336,"velocity":0.3937007874015748},{"duration":0.09375,"midi":77,"time":336,"velocity":0.3937007874015748},{"duration":0.09375,"midi":86,"time":336,"velocity":0.3937007874015748},{"duration":0.09375,"midi":93,"time":336,"velocity":0.3937007874015748},{"duration":0.09375,"midi":81,"time":336,"velocity":0.3937007874015748},{"duration":0.09375,"midi":74,"time":336,"velocity":0.3937007874015748},{"duration":0.09375,"midi":77,"time":336.75,"velocity":0.3937007874015748},{"duration":0.09375,"midi":89,"time":336.75,"velocity":0.3937007874015748},{"duration":0.09375,"midi":93,"time":336.75,"velocity":0.3937007874015748},{"duration":0.09375,"midi":69,"time":336.75,"velocity":0.3937007874015748},{"duration":0.09375,"midi":74,"time":336.75,"velocity":0.3937007874015748},{"duration":0.09375,"midi":81,"time":336.75,"velocity":0.3937007874015748},{"duration":0.09375,"midi":86,"time":336.75,"velocity":0.3937007874015748},{"duration":0.09375,"midi":93,"time":337.125,"velocity":0.3937007874015748},{"duration":0.09375,"midi":69,"time":337.125,"velocity":0.3937007874015748},{"duration":0.09375,"midi":81,"time":337.125,"velocity":0.3937007874015748},{"duration":0.09375,"midi":89,"time":337.125,"velocity":0.3937007874015748},{"duration":0.09375,"midi":86,"time":337.125,"velocity":0.3937007874015748},{"duration":0.09375,"midi":74,"time":337.125,"velocity":0.3937007874015748},{"duration":0.09375,"midi":77,"time":337.125,"velocity":0.3937007874015748},{"duration":0.09375,"midi":93,"time":337.5,"velocity":0.3937007874015748},{"duration":0.09375,"midi":69,"time":337.5,"velocity":0.3937007874015748},{"duration":0.09375,"midi":84,"time":337.5,"velocity":0.3937007874015748},{"duration":0.09375,"midi":81,"time":337.5,"velocity":0.3937007874015748},{"duration":0.09375,"midi":88,"time":337.5,"velocity":0.3937007874015748},{"duration":0.09375,"midi":72,"time":337.5,"velocity":0.3937007874015748},{"duration":0.09375,"midi":76,"time":337.5,"velocity":0.3937007874015748},{"duration":0.09375,"midi":81,"time":338.25,"velocity":0.3937007874015748},{"duration":0.09375,"midi":76,"time":338.25,"velocity":0.3937007874015748},{"duration":0.09375,"midi":88,"time":338.25,"velocity":0.3937007874015748},{"duration":0.09375,"midi":93,"time":338.25,"velocity":0.3937007874015748},{"duration":0.09375,"midi":72,"time":338.25,"velocity":0.3937007874015748},{"duration":0.09375,"midi":84,"time":338.25,"velocity":0.3937007874015748},{"duration":0.09375,"midi":69,"time":338.25,"velocity":0.3937007874015748},{"duration":0.09375,"midi":84,"time":338.625,"velocity":0.3937007874015748},{"duration":0.09375,"midi":88,"time":338.625,"velocity":0.3937007874015748},{"duration":0.09375,"midi":72,"time":338.625,"velocity":0.3937007874015748},{"duration":0.09375,"midi":93,"time":338.625,"velocity":0.3937007874015748},{"duration":0.09375,"midi":76,"time":338.625,"velocity":0.3937007874015748},{"duration":0.09375,"midi":81,"time":338.625,"velocity":0.3937007874015748},{"duration":0.09375,"midi":69,"time":338.625,"velocity":0.3937007874015748},{"duration":0.09375,"midi":71,"time":339,"velocity":0.3937007874015748},{"duration":0.09375,"midi":68,"time":339,"velocity":0.3937007874015748},{"duration":0.09375,"midi":88,"time":339,"velocity":0.3937007874015748},{"duration":0.09375,"midi":92,"time":339,"velocity":0.3937007874015748},{"duration":0.09375,"midi":83,"time":339,"velocity":0.3937007874015748},{"duration":0.09375,"midi":80,"time":339,"velocity":0.3937007874015748},{"duration":0.09375,"midi":76,"time":339,"velocity":0.3937007874015748},{"duration":0.09375,"midi":71,"time":339.75,"velocity":0.3937007874015748},{"duration":0.09375,"midi":80,"time":339.75,"velocity":0.3937007874015748},{"duration":0.09375,"midi":76,"time":339.75,"velocity":0.3937007874015748},{"duration":0.09375,"midi":88,"time":339.75,"velocity":0.3937007874015748},{"duration":0.09375,"midi":68,"time":339.75,"velocity":0.3937007874015748},{"duration":0.09375,"midi":83,"time":339.75,"velocity":0.3937007874015748},{"duration":0.09375,"midi":92,"time":339.75,"velocity":0.3937007874015748},{"duration":0.09375,"midi":83,"time":340.125,"velocity":0.3937007874015748},{"duration":0.09375,"midi":88,"time":340.125,"velocity":0.3937007874015748},{"duration":0.09375,"midi":76,"time":340.125,"velocity":0.3937007874015748},{"duration":0.09375,"midi":71,"time":340.125,"velocity":0.3937007874015748},{"duration":0.09375,"midi":68,"time":340.125,"velocity":0.3937007874015748},{"duration":0.09375,"midi":92,"time":340.125,"velocity":0.3937007874015748},{"duration":0.09375,"midi":80,"time":340.125,"velocity":0.3937007874015748},{"duration":0.09375,"midi":72,"time":340.5,"velocity":0.3937007874015748},{"duration":0.09375,"midi":76,"time":340.5,"velocity":0.3937007874015748},{"duration":0.09375,"midi":69,"time":340.5,"velocity":0.3937007874015748},{"duration":0.09375,"midi":88,"time":340.5,"velocity":0.3937007874015748},{"duration":0.09375,"midi":84,"time":340.5,"velocity":0.3937007874015748},{"duration":0.09375,"midi":81,"time":340.5,"velocity":0.3937007874015748},{"duration":0.09375,"midi":93,"time":340.5,"velocity":0.3937007874015748},{"duration":0.09375,"midi":69,"time":341.25,"velocity":0.3937007874015748},{"duration":0.09375,"midi":76,"time":341.25,"velocity":0.3937007874015748},{"duration":0.09375,"midi":72,"time":341.25,"velocity":0.3937007874015748},{"duration":0.09375,"midi":84,"time":341.25,"velocity":0.3937007874015748},{"duration":0.09375,"midi":81,"time":341.25,"velocity":0.3937007874015748},{"duration":0.09375,"midi":88,"time":341.25,"velocity":0.3937007874015748},{"duration":0.09375,"midi":93,"time":341.25,"velocity":0.3937007874015748},{"duration":0.09375,"midi":69,"time":341.625,"velocity":0.3937007874015748},{"duration":0.09375,"midi":93,"time":341.625,"velocity":0.3937007874015748},{"duration":0.09375,"midi":72,"time":341.625,"velocity":0.3937007874015748},{"duration":0.09375,"midi":76,"time":341.625,"velocity":0.3937007874015748},{"duration":0.09375,"midi":81,"time":341.625,"velocity":0.3937007874015748},{"duration":0.09375,"midi":84,"time":341.625,"velocity":0.3937007874015748},{"duration":0.09375,"midi":88,"time":341.625,"velocity":0.3937007874015748},{"duration":0.09375,"midi":92,"time":342,"velocity":0.3937007874015748},{"duration":0.09375,"midi":83,"time":342,"velocity":0.3937007874015748},{"duration":0.09375,"midi":76,"time":342,"velocity":0.3937007874015748},{"duration":0.09375,"midi":71,"time":342,"velocity":0.3937007874015748},{"duration":0.09375,"midi":80,"time":342,"velocity":0.3937007874015748},{"duration":0.09375,"midi":88,"time":342,"velocity":0.3937007874015748},{"duration":0.09375,"midi":68,"time":342,"velocity":0.3937007874015748},{"duration":0.09375,"midi":68,"time":343.5,"velocity":0.3937007874015748},{"duration":0.09375,"midi":71,"time":343.5,"velocity":0.3937007874015748},{"duration":0.09375,"midi":83,"time":343.5,"velocity":0.3937007874015748},{"duration":0.09375,"midi":92,"time":343.5,"velocity":0.3937007874015748},{"duration":0.09375,"midi":80,"time":343.5,"velocity":0.3937007874015748},{"duration":0.09375,"midi":76,"time":343.5,"velocity":0.3937007874015748},{"duration":0.09375,"midi":88,"time":343.5,"velocity":0.3937007874015748},{"duration":0.09375,"midi":84,"time":345,"velocity":0.3937007874015748},{"duration":0.09375,"midi":76,"time":345,"velocity":0.3937007874015748},{"duration":0.09375,"midi":69,"time":345,"velocity":0.3937007874015748},{"duration":0.09375,"midi":88,"time":345,"velocity":0.3937007874015748},{"duration":0.09375,"midi":93,"time":345,"velocity":0.3937007874015748},{"duration":0.09375,"midi":72,"time":345,"velocity":0.3937007874015748},{"duration":0.09375,"midi":81,"time":345,"velocity":0.3937007874015748},{"duration":0.125,"midi":89,"time":348,"velocity":0.3937007874015748},{"duration":0.125,"midi":86,"time":348.125,"velocity":0.3937007874015748},{"duration":0.125,"midi":81,"time":348.25,"velocity":0.3937007874015748},{"duration":0.125,"midi":77,"time":348.375,"velocity":0.3937007874015748},{"duration":0.125,"midi":74,"time":348.5,"velocity":0.3937007874015748},{"duration":0.125,"midi":69,"time":348.625,"velocity":0.3937007874015748},{"duration":0.125,"midi":65,"time":348.75,"velocity":0.3937007874015748},{"duration":0.125,"midi":62,"time":348.875,"velocity":0.3937007874015748},{"duration":0.125,"midi":57,"time":349,"velocity":0.3937007874015748},{"duration":0.125,"midi":53,"time":349.125,"velocity":0.3937007874015748},{"duration":0.125,"midi":50,"time":349.25,"velocity":0.3937007874015748},{"duration":0.125,"midi":45,"time":349.375,"velocity":0.3937007874015748},{"duration":0.125,"midi":86,"time":349.5,"velocity":0.3937007874015748},{"duration":0.125,"midi":81,"time":349.625,"velocity":0.3937007874015748},{"duration":0.125,"midi":77,"time":349.75,"velocity":0.3937007874015748},{"duration":0.125,"midi":74,"time":349.875,"velocity":0.3937007874015748},{"duration":0.125,"midi":69,"time":350,"velocity":0.3937007874015748},{"duration":0.125,"midi":65,"time":350.125,"velocity":0.3937007874015748},{"duration":0.125,"midi":62,"time":350.25,"velocity":0.3937007874015748},{"duration":0.125,"midi":57,"time":350.375,"velocity":0.3937007874015748},{"duration":0.125,"midi":53,"time":350.5,"velocity":0.3937007874015748},{"duration":0.125,"midi":50,"time":350.625,"velocity":0.3937007874015748},{"duration":0.125,"midi":45,"time":350.75,"velocity":0.3937007874015748},{"duration":0.125,"midi":41,"time":350.875,"velocity":0.3937007874015748},{"duration":0.125,"midi":81,"time":351,"velocity":0.3937007874015748},{"duration":0.125,"midi":77,"time":351.125,"velocity":0.3937007874015748},{"duration":0.125,"midi":74,"time":351.25,"velocity":0.3937007874015748},{"duration":0.125,"midi":69,"time":351.375,"velocity":0.3937007874015748},{"duration":0.125,"midi":65,"time":351.5,"velocity":0.3937007874015748},{"duration":0.125,"midi":62,"time":351.625,"velocity":0.3937007874015748},{"duration":0.125,"midi":57,"time":351.75,"velocity":0.3937007874015748},{"duration":0.125,"midi":53,"time":351.875,"velocity":0.3937007874015748},{"duration":0.125,"midi":50,"time":352,"velocity":0.3937007874015748},{"duration":0.125,"midi":45,"time":352.125,"velocity":0.3937007874015748},{"duration":0.125,"midi":41,"time":352.25,"velocity":0.3937007874015748},{"duration":0.125,"midi":38,"time":352.375,"velocity":0.3937007874015748},{"duration":0.125,"midi":77,"time":352.5,"velocity":0.3937007874015748},{"duration":0.125,"midi":74,"time":352.625,"velocity":0.3937007874015748},{"duration":0.125,"midi":69,"time":352.75,"velocity":0.3937007874015748},{"duration":0.125,"midi":65,"time":352.875,"velocity":0.3937007874015748},{"duration":0.125,"midi":62,"time":353,"velocity":0.3937007874015748},{"duration":0.125,"midi":57,"time":353.125,"velocity":0.3937007874015748},{"duration":0.125,"midi":53,"time":353.25,"velocity":0.3937007874015748},{"duration":0.125,"midi":50,"time":353.375,"velocity":0.3937007874015748},{"duration":0.125,"midi":45,"time":353.5,"velocity":0.3937007874015748},{"duration":0.125,"midi":41,"time":353.625,"velocity":0.3937007874015748},{"duration":0.125,"midi":38,"time":353.75,"velocity":0.3937007874015748},{"duration":0.125,"midi":33,"time":353.875,"velocity":0.3937007874015748},{"duration":0.125,"midi":93,"time":354.125,"velocity":0.3937007874015748},{"duration":0.125,"midi":88,"time":354.25,"velocity":0.3937007874015748},{"duration":0.125,"midi":84,"time":354.375,"velocity":0.3937007874015748},{"duration":0.125,"midi":81,"time":354.5,"velocity":0.3937007874015748},{"duration":0.125,"midi":76,"time":354.625,"velocity":0.3937007874015748},{"duration":0.125,"midi":72,"time":354.75,"velocity":0.3937007874015748},{"duration":0.125,"midi":69,"time":354.875,"velocity":0.3937007874015748},{"duration":0.125,"midi":64,"time":355,"velocity":0.3937007874015748},{"duration":0.125,"midi":60,"time":355.125,"velocity":0.3937007874015748},{"duration":0.125,"midi":57,"time":355.25,"velocity":0.3937007874015748},{"duration":0.125,"midi":52,"time":355.375,"velocity":0.3937007874015748},{"duration":0.125,"midi":93,"time":355.5,"velocity":0.3937007874015748},{"duration":0.125,"midi":88,"time":355.625,"velocity":0.3937007874015748},{"duration":0.125,"midi":84,"time":355.75,"velocity":0.3937007874015748},{"duration":0.125,"midi":81,"time":355.875,"velocity":0.3937007874015748},{"duration":0.125,"midi":76,"time":356,"velocity":0.3937007874015748},{"duration":0.125,"midi":72,"time":356.125,"velocity":0.3937007874015748},{"duration":0.125,"midi":69,"time":356.25,"velocity":0.3937007874015748},{"duration":0.125,"midi":64,"time":356.375,"velocity":0.3937007874015748},{"duration":0.125,"midi":60,"time":356.5,"velocity":0.3937007874015748},{"duration":0.125,"midi":57,"time":356.625,"velocity":0.3937007874015748},{"duration":0.125,"midi":52,"time":356.75,"velocity":0.3937007874015748},{"duration":0.125,"midi":48,"time":356.875,"velocity":0.3937007874015748},{"duration":0.125,"midi":88,"time":357,"velocity":0.3937007874015748},{"duration":0.125,"midi":84,"time":357.125,"velocity":0.3937007874015748},{"duration":0.125,"midi":81,"time":357.25,"velocity":0.3937007874015748},{"duration":0.125,"midi":76,"time":357.375,"velocity":0.3937007874015748},{"duration":0.125,"midi":72,"time":357.5,"velocity":0.3937007874015748},{"duration":0.125,"midi":69,"time":357.625,"velocity":0.3937007874015748},{"duration":0.125,"midi":64,"time":357.75,"velocity":0.3937007874015748},{"duration":0.125,"midi":60,"time":357.875,"velocity":0.3937007874015748},{"duration":0.125,"midi":57,"time":358,"velocity":0.3937007874015748},{"duration":0.125,"midi":52,"time":358.125,"velocity":0.3937007874015748},{"duration":0.125,"midi":48,"time":358.25,"velocity":0.3937007874015748},{"duration":0.125,"midi":45,"time":358.375,"velocity":0.3937007874015748},{"duration":0.125,"midi":84,"time":358.5,"velocity":0.3937007874015748},{"duration":0.125,"midi":81,"time":358.625,"velocity":0.3937007874015748},{"duration":0.125,"midi":76,"time":358.75,"velocity":0.3937007874015748},{"duration":0.125,"midi":72,"time":358.875,"velocity":0.3937007874015748},{"duration":0.125,"midi":69,"time":359,"velocity":0.3937007874015748},{"duration":0.125,"midi":64,"time":359.125,"velocity":0.3937007874015748},{"duration":0.125,"midi":60,"time":359.25,"velocity":0.3937007874015748},{"duration":0.125,"midi":57,"time":359.375,"velocity":0.3937007874015748},{"duration":0.125,"midi":52,"time":359.5,"velocity":0.3937007874015748},{"duration":0.125,"midi":48,"time":359.625,"velocity":0.3937007874015748},{"duration":0.125,"midi":45,"time":359.75,"velocity":0.3937007874015748},{"duration":0.125,"midi":40,"time":359.875,"velocity":0.3937007874015748},{"duration":0.125,"midi":95,"time":360.125,"velocity":0.3937007874015748},{"duration":0.125,"midi":92,"time":360.25,"velocity":0.3937007874015748},{"duration":0.125,"midi":88,"time":360.375,"velocity":0.3937007874015748},{"duration":0.125,"midi":83,"time":360.5,"velocity":0.3937007874015748},{"duration":0.125,"midi":80,"time":360.625,"velocity":0.3937007874015748},{"duration":0.125,"midi":76,"time":360.75,"velocity":0.3937007874015748},{"duration":0.125,"midi":71,"time":360.875,"velocity":0.3937007874015748},{"duration":0.125,"midi":68,"time":361,"velocity":0.3937007874015748},{"duration":0.125,"midi":64,"time":361.125,"velocity":0.3937007874015748},{"duration":0.125,"midi":59,"time":361.25,"velocity":0.3937007874015748},{"duration":0.125,"midi":56,"time":361.375,"velocity":0.3937007874015748},{"duration":0.125,"midi":95,"time":361.5,"velocity":0.3937007874015748},{"duration":0.125,"midi":92,"time":361.625,"velocity":0.3937007874015748},{"duration":0.125,"midi":88,"time":361.75,"velocity":0.3937007874015748},{"duration":0.125,"midi":83,"time":361.875,"velocity":0.3937007874015748},{"duration":0.125,"midi":80,"time":362,"velocity":0.3937007874015748},{"duration":0.125,"midi":76,"time":362.125,"velocity":0.3937007874015748},{"duration":0.125,"midi":71,"time":362.25,"velocity":0.3937007874015748},{"duration":0.125,"midi":68,"time":362.375,"velocity":0.3937007874015748},{"duration":0.125,"midi":64,"time":362.5,"velocity":0.3937007874015748},{"duration":0.125,"midi":59,"time":362.625,"velocity":0.3937007874015748},{"duration":0.125,"midi":56,"time":362.75,"velocity":0.3937007874015748},{"duration":0.125,"midi":52,"time":362.875,"velocity":0.3937007874015748},{"duration":0.125,"midi":92,"time":363,"velocity":0.3937007874015748},{"duration":0.125,"midi":88,"time":363.125,"velocity":0.3937007874015748},{"duration":0.125,"midi":83,"time":363.25,"velocity":0.3937007874015748},{"duration":0.125,"midi":80,"time":363.375,"velocity":0.3937007874015748},{"duration":0.125,"midi":76,"time":363.5,"velocity":0.3937007874015748},{"duration":0.125,"midi":71,"time":363.625,"velocity":0.3937007874015748},{"duration":0.125,"midi":68,"time":363.75,"velocity":0.3937007874015748},{"duration":0.125,"midi":64,"time":363.875,"velocity":0.3937007874015748},{"duration":0.125,"midi":59,"time":364,"velocity":0.3937007874015748},{"duration":0.125,"midi":56,"time":364.125,"velocity":0.3937007874015748},{"duration":0.125,"midi":52,"time":364.25,"velocity":0.3937007874015748},{"duration":0.125,"midi":47,"time":364.375,"velocity":0.3937007874015748},{"duration":0.125,"midi":88,"time":364.5,"velocity":0.3937007874015748},{"duration":0.125,"midi":83,"time":364.625,"velocity":0.3937007874015748},{"duration":0.125,"midi":80,"time":364.75,"velocity":0.3937007874015748},{"duration":0.125,"midi":76,"time":364.875,"velocity":0.3937007874015748},{"duration":0.125,"midi":71,"time":365,"velocity":0.3937007874015748},{"duration":0.125,"midi":68,"time":365.125,"velocity":0.3937007874015748},{"duration":0.125,"midi":64,"time":365.25,"velocity":0.3937007874015748},{"duration":0.125,"midi":59,"time":365.375,"velocity":0.3937007874015748},{"duration":0.125,"midi":56,"time":365.5,"velocity":0.3937007874015748},{"duration":0.125,"midi":52,"time":365.625,"velocity":0.3937007874015748},{"duration":0.125,"midi":47,"time":365.75,"velocity":0.3937007874015748},{"duration":0.125,"midi":44,"time":365.875,"velocity":0.3937007874015748},{"duration":0.125,"midi":93,"time":366.125,"velocity":0.3937007874015748},{"duration":0.125,"midi":88,"time":366.25,"velocity":0.3937007874015748},{"duration":0.125,"midi":84,"time":366.375,"velocity":0.3937007874015748},{"duration":0.125,"midi":81,"time":366.5,"velocity":0.3937007874015748},{"duration":0.125,"midi":76,"time":366.625,"velocity":0.3937007874015748},{"duration":0.125,"midi":72,"time":366.75,"velocity":0.3937007874015748},{"duration":0.125,"midi":69,"time":366.875,"velocity":0.3937007874015748},{"duration":0.125,"midi":64,"time":367,"velocity":0.3937007874015748},{"duration":0.125,"midi":60,"time":367.125,"velocity":0.3937007874015748},{"duration":0.125,"midi":57,"time":367.25,"velocity":0.3937007874015748},{"duration":0.125,"midi":52,"time":367.375,"velocity":0.3937007874015748},{"duration":0.125,"midi":93,"time":367.5,"velocity":0.3937007874015748},{"duration":0.125,"midi":88,"time":367.625,"velocity":0.3937007874015748},{"duration":0.125,"midi":84,"time":367.75,"velocity":0.3937007874015748},{"duration":0.125,"midi":81,"time":367.875,"velocity":0.3937007874015748},{"duration":0.125,"midi":76,"time":368,"velocity":0.3937007874015748},{"duration":0.125,"midi":72,"time":368.125,"velocity":0.3937007874015748},{"duration":0.125,"midi":69,"time":368.25,"velocity":0.3937007874015748},{"duration":0.125,"midi":64,"time":368.375,"velocity":0.3937007874015748},{"duration":0.125,"midi":60,"time":368.5,"velocity":0.3937007874015748},{"duration":0.125,"midi":57,"time":368.625,"velocity":0.3937007874015748},{"duration":0.125,"midi":52,"time":368.75,"velocity":0.3937007874015748},{"duration":0.125,"midi":48,"time":368.875,"velocity":0.3937007874015748},{"duration":0.09375,"midi":86,"time":372,"velocity":0.3937007874015748},{"duration":0.09375,"midi":89,"time":372,"velocity":0.3937007874015748},{"duration":0.09375,"midi":62,"time":372,"velocity":0.3937007874015748},{"duration":0.09375,"midi":77,"time":372,"velocity":0.3937007874015748},{"duration":0.09375,"midi":65,"time":372,"velocity":0.3937007874015748},{"duration":0.09375,"midi":74,"time":372,"velocity":0.3937007874015748},{"duration":0.09375,"midi":81,"time":372.1875,"velocity":0.3937007874015748},{"duration":0.09375,"midi":57,"time":372.1875,"velocity":0.3937007874015748},{"duration":0.09375,"midi":93,"time":372.1875,"velocity":0.3937007874015748},{"duration":0.09375,"midi":69,"time":372.1875,"velocity":0.3937007874015748},{"duration":0.09375,"midi":89,"time":372.375,"velocity":0.3937007874015748},{"duration":0.09375,"midi":77,"time":372.375,"velocity":0.3937007874015748},{"duration":0.09375,"midi":86,"time":372.375,"velocity":0.3937007874015748},{"duration":0.09375,"midi":62,"time":372.375,"velocity":0.3937007874015748},{"duration":0.09375,"midi":74,"time":372.375,"velocity":0.3937007874015748},{"duration":0.09375,"midi":65,"time":372.375,"velocity":0.3937007874015748},{"duration":0.09375,"midi":69,"time":372.5625,"velocity":0.3937007874015748},{"duration":0.09375,"midi":57,"time":372.5625,"velocity":0.3937007874015748},{"duration":0.09375,"midi":81,"time":372.5625,"velocity":0.3937007874015748},{"duration":0.09375,"midi":93,"time":372.5625,"velocity":0.3937007874015748},{"duration":0.09375,"midi":74,"time":372.75,"velocity":0.3937007874015748},{"duration":0.09375,"midi":77,"time":372.75,"velocity":0.3937007874015748},{"duration":0.09375,"midi":62,"time":372.75,"velocity":0.3937007874015748},{"duration":0.09375,"midi":86,"time":372.75,"velocity":0.3937007874015748},{"duration":0.09375,"midi":89,"time":372.75,"velocity":0.3937007874015748},{"duration":0.09375,"midi":65,"time":372.75,"velocity":0.3937007874015748},{"duration":0.09375,"midi":81,"time":372.9375,"velocity":0.3937007874015748},{"duration":0.09375,"midi":69,"time":372.9375,"velocity":0.3937007874015748},{"duration":0.09375,"midi":93,"time":372.9375,"velocity":0.3937007874015748},{"duration":0.09375,"midi":57,"time":372.9375,"velocity":0.3937007874015748},{"duration":0.09375,"midi":77,"time":373.125,"velocity":0.3937007874015748},{"duration":0.09375,"midi":62,"time":373.125,"velocity":0.3937007874015748},{"duration":0.09375,"midi":86,"time":373.125,"velocity":0.3937007874015748},{"duration":0.09375,"midi":65,"time":373.125,"velocity":0.3937007874015748},{"duration":0.09375,"midi":89,"time":373.125,"velocity":0.3937007874015748},{"duration":0.09375,"midi":74,"time":373.125,"velocity":0.3937007874015748},{"duration":0.09375,"midi":69,"time":373.3125,"velocity":0.3937007874015748},{"duration":0.09375,"midi":81,"time":373.3125,"velocity":0.3937007874015748},{"duration":0.09375,"midi":57,"time":373.3125,"velocity":0.3937007874015748},{"duration":0.09375,"midi":93,"time":373.3125,"velocity":0.3937007874015748},{"duration":0.09375,"midi":65,"time":373.5,"velocity":0.3937007874015748},{"duration":0.09375,"midi":74,"time":373.5,"velocity":0.3937007874015748},{"duration":0.09375,"midi":89,"time":373.5,"velocity":0.3937007874015748},{"duration":0.09375,"midi":86,"time":373.5,"velocity":0.3937007874015748},{"duration":0.09375,"midi":77,"time":373.5,"velocity":0.3937007874015748},{"duration":0.09375,"midi":62,"time":373.5,"velocity":0.3937007874015748},{"duration":0.09375,"midi":69,"time":373.6875,"velocity":0.3937007874015748},{"duration":0.09375,"midi":57,"time":373.6875,"velocity":0.3937007874015748},{"duration":0.09375,"midi":93,"time":373.6875,"velocity":0.3937007874015748},{"duration":0.09375,"midi":81,"time":373.6875,"velocity":0.3937007874015748},{"duration":0.09375,"midi":74,"time":373.875,"velocity":0.3937007874015748},{"duration":0.09375,"midi":65,"time":373.875,"velocity":0.3937007874015748},{"duration":0.09375,"midi":77,"time":373.875,"velocity":0.3937007874015748},{"duration":0.09375,"midi":86,"time":373.875,"velocity":0.3937007874015748},{"duration":0.09375,"midi":62,"time":373.875,"velocity":0.3937007874015748},{"duration":0.09375,"midi":89,"time":373.875,"velocity":0.3937007874015748},{"duration":0.09375,"midi":69,"time":374.0625,"velocity":0.3937007874015748},{"duration":0.09375,"midi":93,"time":374.0625,"velocity":0.3937007874015748},{"duration":0.09375,"midi":57,"time":374.0625,"velocity":0.3937007874015748},{"duration":0.09375,"midi":81,"time":374.0625,"velocity":0.3937007874015748},{"duration":0.09375,"midi":77,"time":374.25,"velocity":0.3937007874015748},{"duration":0.09375,"midi":65,"time":374.25,"velocity":0.3937007874015748},{"duration":0.09375,"midi":74,"time":374.25,"velocity":0.3937007874015748},{"duration":0.09375,"midi":86,"time":374.25,"velocity":0.3937007874015748},{"duration":0.09375,"midi":89,"time":374.25,"velocity":0.3937007874015748},{"duration":0.09375,"midi":62,"time":374.25,"velocity":0.3937007874015748},{"duration":0.09375,"midi":69,"time":374.4375,"velocity":0.3937007874015748},{"duration":0.09375,"midi":81,"time":374.4375,"velocity":0.3937007874015748},{"duration":0.09375,"midi":57,"time":374.4375,"velocity":0.3937007874015748},{"duration":0.09375,"midi":93,"time":374.4375,"velocity":0.3937007874015748},{"duration":0.09375,"midi":77,"time":374.625,"velocity":0.3937007874015748},{"duration":0.09375,"midi":62,"time":374.625,"velocity":0.3937007874015748},{"duration":0.09375,"midi":86,"time":374.625,"velocity":0.3937007874015748},{"duration":0.09375,"midi":89,"time":374.625,"velocity":0.3937007874015748},{"duration":0.09375,"midi":65,"time":374.625,"velocity":0.3937007874015748},{"duration":0.09375,"midi":74,"time":374.625,"velocity":0.3937007874015748},{"duration":0.09375,"midi":81,"time":374.8125,"velocity":0.3937007874015748},{"duration":0.09375,"midi":69,"time":374.8125,"velocity":0.3937007874015748},{"duration":0.09375,"midi":57,"time":374.8125,"velocity":0.3937007874015748},{"duration":0.09375,"midi":93,"time":374.8125,"velocity":0.3937007874015748},{"duration":0.09375,"midi":62,"time":375,"velocity":0.3937007874015748},{"duration":0.09375,"midi":89,"time":375,"velocity":0.3937007874015748},{"duration":0.09375,"midi":86,"time":375,"velocity":0.3937007874015748},{"duration":0.09375,"midi":65,"time":375,"velocity":0.3937007874015748},{"duration":0.09375,"midi":77,"time":375,"velocity":0.3937007874015748},{"duration":0.09375,"midi":74,"time":375,"velocity":0.3937007874015748},{"duration":0.09375,"midi":93,"time":375.1875,"velocity":0.3937007874015748},{"duration":0.09375,"midi":57,"time":375.1875,"velocity":0.3937007874015748},{"duration":0.09375,"midi":81,"time":375.1875,"velocity":0.3937007874015748},{"duration":0.09375,"midi":69,"time":375.1875,"velocity":0.3937007874015748},{"duration":0.09375,"midi":77,"time":375.375,"velocity":0.3937007874015748},{"duration":0.09375,"midi":65,"time":375.375,"velocity":0.3937007874015748},{"duration":0.09375,"midi":74,"time":375.375,"velocity":0.3937007874015748},{"duration":0.09375,"midi":89,"time":375.375,"velocity":0.3937007874015748},{"duration":0.09375,"midi":62,"time":375.375,"velocity":0.3937007874015748},{"duration":0.09375,"midi":86,"time":375.375,"velocity":0.3937007874015748},{"duration":0.09375,"midi":57,"time":375.5625,"velocity":0.3937007874015748},{"duration":0.09375,"midi":69,"time":375.5625,"velocity":0.3937007874015748},{"duration":0.09375,"midi":81,"time":375.5625,"velocity":0.3937007874015748},{"duration":0.09375,"midi":93,"time":375.5625,"velocity":0.3937007874015748},{"duration":0.09375,"midi":62,"time":375.75,"velocity":0.3937007874015748},{"duration":0.09375,"midi":86,"time":375.75,"velocity":0.3937007874015748},{"duration":0.09375,"midi":89,"time":375.75,"velocity":0.3937007874015748},{"duration":0.09375,"midi":77,"time":375.75,"velocity":0.3937007874015748},{"duration":0.09375,"midi":65,"time":375.75,"velocity":0.3937007874015748},{"duration":0.09375,"midi":74,"time":375.75,"velocity":0.3937007874015748},{"duration":0.09375,"midi":69,"time":375.9375,"velocity":0.3937007874015748},{"duration":0.09375,"midi":81,"time":375.9375,"velocity":0.3937007874015748},{"duration":0.09375,"midi":57,"time":375.9375,"velocity":0.3937007874015748},{"duration":0.09375,"midi":93,"time":375.9375,"velocity":0.3937007874015748},{"duration":0.09375,"midi":86,"time":376.125,"velocity":0.3937007874015748},{"duration":0.09375,"midi":65,"time":376.125,"velocity":0.3937007874015748},{"duration":0.09375,"midi":62,"time":376.125,"velocity":0.3937007874015748},{"duration":0.09375,"midi":77,"time":376.125,"velocity":0.3937007874015748},{"duration":0.09375,"midi":89,"time":376.125,"velocity":0.3937007874015748},{"duration":0.09375,"midi":74,"time":376.125,"velocity":0.3937007874015748},{"duration":0.09375,"midi":57,"time":376.3125,"velocity":0.3937007874015748},{"duration":0.09375,"midi":93,"time":376.3125,"velocity":0.3937007874015748},{"duration":0.09375,"midi":69,"time":376.3125,"velocity":0.3937007874015748},{"duration":0.09375,"midi":81,"time":376.3125,"velocity":0.3937007874015748},{"duration":0.09375,"midi":86,"time":376.5,"velocity":0.3937007874015748},{"duration":0.09375,"midi":77,"time":376.5,"velocity":0.3937007874015748},{"duration":0.09375,"midi":74,"time":376.5,"velocity":0.3937007874015748},{"duration":0.09375,"midi":62,"time":376.5,"velocity":0.3937007874015748},{"duration":0.09375,"midi":65,"time":376.5,"velocity":0.3937007874015748},{"duration":0.09375,"midi":89,"time":376.5,"velocity":0.3937007874015748},{"duration":0.09375,"midi":57,"time":376.6875,"velocity":0.3937007874015748},{"duration":0.09375,"midi":69,"time":376.6875,"velocity":0.3937007874015748},{"duration":0.09375,"midi":93,"time":376.6875,"velocity":0.3937007874015748},{"duration":0.09375,"midi":81,"time":376.6875,"velocity":0.3937007874015748},{"duration":0.09375,"midi":62,"time":376.875,"velocity":0.3937007874015748},{"duration":0.09375,"midi":77,"time":376.875,"velocity":0.3937007874015748},{"duration":0.09375,"midi":89,"time":376.875,"velocity":0.3937007874015748},{"duration":0.09375,"midi":86,"time":376.875,"velocity":0.3937007874015748},{"duration":0.09375,"midi":74,"time":376.875,"velocity":0.3937007874015748},{"duration":0.09375,"midi":65,"time":376.875,"velocity":0.3937007874015748},{"duration":0.09375,"midi":57,"time":377.0625,"velocity":0.3937007874015748},{"duration":0.09375,"midi":93,"time":377.0625,"velocity":0.3937007874015748},{"duration":0.09375,"midi":69,"time":377.0625,"velocity":0.3937007874015748},{"duration":0.09375,"midi":81,"time":377.0625,"velocity":0.3937007874015748},{"duration":0.09375,"midi":74,"time":377.25,"velocity":0.3937007874015748},{"duration":0.09375,"midi":62,"time":377.25,"velocity":0.3937007874015748},{"duration":0.09375,"midi":77,"time":377.25,"velocity":0.3937007874015748},{"duration":0.09375,"midi":86,"time":377.25,"velocity":0.3937007874015748},{"duration":0.09375,"midi":65,"time":377.25,"velocity":0.3937007874015748},{"duration":0.09375,"midi":89,"time":377.25,"velocity":0.3937007874015748},{"duration":0.09375,"midi":93,"time":377.4375,"velocity":0.3937007874015748},{"duration":0.09375,"midi":69,"time":377.4375,"velocity":0.3937007874015748},{"duration":0.09375,"midi":81,"time":377.4375,"velocity":0.3937007874015748},{"duration":0.09375,"midi":57,"time":377.4375,"velocity":0.3937007874015748},{"duration":0.09375,"midi":62,"time":377.625,"velocity":0.3937007874015748},{"duration":0.09375,"midi":74,"time":377.625,"velocity":0.3937007874015748},{"duration":0.09375,"midi":86,"time":377.625,"velocity":0.3937007874015748},{"duration":0.09375,"midi":65,"time":377.625,"velocity":0.3937007874015748},{"duration":0.09375,"midi":77,"time":377.625,"velocity":0.3937007874015748},{"duration":0.09375,"midi":89,"time":377.625,"velocity":0.3937007874015748},{"duration":0.09375,"midi":69,"time":377.8125,"velocity":0.3937007874015748},{"duration":0.09375,"midi":93,"time":377.8125,"velocity":0.3937007874015748},{"duration":0.09375,"midi":57,"time":377.8125,"velocity":0.3937007874015748},{"duration":0.09375,"midi":81,"time":377.8125,"velocity":0.3937007874015748},{"duration":0.09375,"midi":84,"time":378,"velocity":0.3937007874015748},{"duration":0.09375,"midi":88,"time":378,"velocity":0.3937007874015748},{"duration":0.09375,"midi":64,"time":378,"velocity":0.3937007874015748},{"duration":0.09375,"midi":76,"time":378,"velocity":0.3937007874015748},{"duration":0.09375,"midi":60,"time":378,"velocity":0.3937007874015748},{"duration":0.09375,"midi":72,"time":378,"velocity":0.3937007874015748},{"duration":0.09375,"midi":93,"time":378.1875,"velocity":0.3937007874015748},{"duration":0.09375,"midi":57,"time":378.1875,"velocity":0.3937007874015748},{"duration":0.09375,"midi":81,"time":378.1875,"velocity":0.3937007874015748},{"duration":0.09375,"midi":69,"time":378.1875,"velocity":0.3937007874015748},{"duration":0.09375,"midi":88,"time":378.375,"velocity":0.3937007874015748},{"duration":0.09375,"midi":84,"time":378.375,"velocity":0.3937007874015748},{"duration":0.09375,"midi":76,"time":378.375,"velocity":0.3937007874015748},{"duration":0.09375,"midi":60,"time":378.375,"velocity":0.3937007874015748},{"duration":0.09375,"midi":64,"time":378.375,"velocity":0.3937007874015748},{"duration":0.09375,"midi":72,"time":378.375,"velocity":0.3937007874015748},{"duration":0.09375,"midi":81,"time":378.5625,"velocity":0.3937007874015748},{"duration":0.09375,"midi":69,"time":378.5625,"velocity":0.3937007874015748},{"duration":0.09375,"midi":57,"time":378.5625,"velocity":0.3937007874015748},{"duration":0.09375,"midi":93,"time":378.5625,"velocity":0.3937007874015748},{"duration":0.09375,"midi":72,"time":378.75,"velocity":0.3937007874015748},{"duration":0.09375,"midi":88,"time":378.75,"velocity":0.3937007874015748},{"duration":0.09375,"midi":60,"time":378.75,"velocity":0.3937007874015748},{"duration":0.09375,"midi":76,"time":378.75,"velocity":0.3937007874015748},{"duration":0.09375,"midi":84,"time":378.75,"velocity":0.3937007874015748},{"duration":0.09375,"midi":64,"time":378.75,"velocity":0.3937007874015748},{"duration":0.09375,"midi":93,"time":378.9375,"velocity":0.3937007874015748},{"duration":0.09375,"midi":81,"time":378.9375,"velocity":0.3937007874015748},{"duration":0.09375,"midi":57,"time":378.9375,"velocity":0.3937007874015748},{"duration":0.09375,"midi":69,"time":378.9375,"velocity":0.3937007874015748},{"duration":0.09375,"midi":84,"time":379.125,"velocity":0.3937007874015748},{"duration":0.09375,"midi":76,"time":379.125,"velocity":0.3937007874015748},{"duration":0.09375,"midi":60,"time":379.125,"velocity":0.3937007874015748},{"duration":0.09375,"midi":72,"time":379.125,"velocity":0.3937007874015748},{"duration":0.09375,"midi":88,"time":379.125,"velocity":0.3937007874015748},{"duration":0.09375,"midi":64,"time":379.125,"velocity":0.3937007874015748},{"duration":0.09375,"midi":81,"time":379.3125,"velocity":0.3937007874015748},{"duration":0.09375,"midi":69,"time":379.3125,"velocity":0.3937007874015748},{"duration":0.09375,"midi":57,"time":379.3125,"velocity":0.3937007874015748},{"duration":0.09375,"midi":93,"time":379.3125,"velocity":0.3937007874015748},{"duration":0.09375,"midi":76,"time":379.5,"velocity":0.3937007874015748},{"duration":0.09375,"midi":72,"time":379.5,"velocity":0.3937007874015748},{"duration":0.09375,"midi":84,"time":379.5,"velocity":0.3937007874015748},{"duration":0.09375,"midi":88,"time":379.5,"velocity":0.3937007874015748},{"duration":0.09375,"midi":64,"time":379.5,"velocity":0.3937007874015748},{"duration":0.09375,"midi":60,"time":379.5,"velocity":0.3937007874015748},{"duration":0.09375,"midi":69,"time":379.6875,"velocity":0.3937007874015748},{"duration":0.09375,"midi":57,"time":379.6875,"velocity":0.3937007874015748},{"duration":0.09375,"midi":93,"time":379.6875,"velocity":0.3937007874015748},{"duration":0.09375,"midi":81,"time":379.6875,"velocity":0.3937007874015748},{"duration":0.09375,"midi":76,"time":379.875,"velocity":0.3937007874015748},{"duration":0.09375,"midi":88,"time":379.875,"velocity":0.3937007874015748},{"duration":0.09375,"midi":60,"time":379.875,"velocity":0.3937007874015748},{"duration":0.09375,"midi":84,"time":379.875,"velocity":0.3937007874015748},{"duration":0.09375,"midi":64,"time":379.875,"velocity":0.3937007874015748},{"duration":0.09375,"midi":72,"time":379.875,"velocity":0.3937007874015748},{"duration":0.09375,"midi":69,"time":380.0625,"velocity":0.3937007874015748},{"duration":0.09375,"midi":57,"time":380.0625,"velocity":0.3937007874015748},{"duration":0.09375,"midi":93,"time":380.0625,"velocity":0.3937007874015748},{"duration":0.09375,"midi":81,"time":380.0625,"velocity":0.3937007874015748},{"duration":0.09375,"midi":72,"time":380.25,"velocity":0.3937007874015748},{"duration":0.09375,"midi":88,"time":380.25,"velocity":0.3937007874015748},{"duration":0.09375,"midi":60,"time":380.25,"velocity":0.3937007874015748},{"duration":0.09375,"midi":76,"time":380.25,"velocity":0.3937007874015748},{"duration":0.09375,"midi":84,"time":380.25,"velocity":0.3937007874015748},{"duration":0.09375,"midi":64,"time":380.25,"velocity":0.3937007874015748},{"duration":0.09375,"midi":81,"time":380.4375,"velocity":0.3937007874015748},{"duration":0.09375,"midi":69,"time":380.4375,"velocity":0.3937007874015748},{"duration":0.09375,"midi":57,"time":380.4375,"velocity":0.3937007874015748},{"duration":0.09375,"midi":93,"time":380.4375,"velocity":0.3937007874015748},{"duration":0.09375,"midi":84,"time":380.625,"velocity":0.3937007874015748},{"duration":0.09375,"midi":76,"time":380.625,"velocity":0.3937007874015748},{"duration":0.09375,"midi":64,"time":380.625,"velocity":0.3937007874015748},{"duration":0.09375,"midi":88,"time":380.625,"velocity":0.3937007874015748},{"duration":0.09375,"midi":60,"time":380.625,"velocity":0.3937007874015748},{"duration":0.09375,"midi":72,"time":380.625,"velocity":0.3937007874015748},{"duration":0.09375,"midi":93,"time":380.8125,"velocity":0.3937007874015748},{"duration":0.09375,"midi":57,"time":380.8125,"velocity":0.3937007874015748},{"duration":0.09375,"midi":81,"time":380.8125,"velocity":0.3937007874015748},{"duration":0.09375,"midi":69,"time":380.8125,"velocity":0.3937007874015748},{"duration":0.09375,"midi":84,"time":381,"velocity":0.3937007874015748},{"duration":0.09375,"midi":76,"time":381,"velocity":0.3937007874015748},{"duration":0.09375,"midi":72,"time":381,"velocity":0.3937007874015748},{"duration":0.09375,"midi":60,"time":381,"velocity":0.3937007874015748},{"duration":0.09375,"midi":88,"time":381,"velocity":0.3937007874015748},{"duration":0.09375,"midi":64,"time":381,"velocity":0.3937007874015748},{"duration":0.09375,"midi":57,"time":381.1875,"velocity":0.3937007874015748},{"duration":0.09375,"midi":93,"time":381.1875,"velocity":0.3937007874015748},{"duration":0.09375,"midi":69,"time":381.1875,"velocity":0.3937007874015748},{"duration":0.09375,"midi":81,"time":381.1875,"velocity":0.3937007874015748},{"duration":0.09375,"midi":60,"time":381.375,"velocity":0.3937007874015748},{"duration":0.09375,"midi":64,"time":381.375,"velocity":0.3937007874015748},{"duration":0.09375,"midi":84,"time":381.375,"velocity":0.3937007874015748},{"duration":0.09375,"midi":72,"time":381.375,"velocity":0.3937007874015748},{"duration":0.09375,"midi":76,"time":381.375,"velocity":0.3937007874015748},{"duration":0.09375,"midi":88,"time":381.375,"velocity":0.3937007874015748},{"duration":0.09375,"midi":81,"time":381.5625,"velocity":0.3937007874015748},{"duration":0.09375,"midi":69,"time":381.5625,"velocity":0.3937007874015748},{"duration":0.09375,"midi":57,"time":381.5625,"velocity":0.3937007874015748},{"duration":0.09375,"midi":93,"time":381.5625,"velocity":0.3937007874015748},{"duration":0.09375,"midi":84,"time":381.75,"velocity":0.3937007874015748},{"duration":0.09375,"midi":76,"time":381.75,"velocity":0.3937007874015748},{"duration":0.09375,"midi":60,"time":381.75,"velocity":0.3937007874015748},{"duration":0.09375,"midi":88,"time":381.75,"velocity":0.3937007874015748},{"duration":0.09375,"midi":64,"time":381.75,"velocity":0.3937007874015748},{"duration":0.09375,"midi":72,"time":381.75,"velocity":0.3937007874015748},{"duration":0.09375,"midi":93,"time":381.9375,"velocity":0.3937007874015748},{"duration":0.09375,"midi":81,"time":381.9375,"velocity":0.3937007874015748},{"duration":0.09375,"midi":69,"time":381.9375,"velocity":0.3937007874015748},{"duration":0.09375,"midi":57,"time":381.9375,"velocity":0.3937007874015748},{"duration":0.09375,"midi":84,"time":382.125,"velocity":0.3937007874015748},{"duration":0.09375,"midi":76,"time":382.125,"velocity":0.3937007874015748},{"duration":0.09375,"midi":64,"time":382.125,"velocity":0.3937007874015748},{"duration":0.09375,"midi":60,"time":382.125,"velocity":0.3937007874015748},{"duration":0.09375,"midi":88,"time":382.125,"velocity":0.3937007874015748},{"duration":0.09375,"midi":72,"time":382.125,"velocity":0.3937007874015748},{"duration":0.09375,"midi":93,"time":382.3125,"velocity":0.3937007874015748},{"duration":0.09375,"midi":81,"time":382.3125,"velocity":0.3937007874015748},{"duration":0.09375,"midi":69,"time":382.3125,"velocity":0.3937007874015748},{"duration":0.09375,"midi":57,"time":382.3125,"velocity":0.3937007874015748},{"duration":0.09375,"midi":84,"time":382.5,"velocity":0.3937007874015748},{"duration":0.09375,"midi":76,"time":382.5,"velocity":0.3937007874015748},{"duration":0.09375,"midi":88,"time":382.5,"velocity":0.3937007874015748},{"duration":0.09375,"midi":72,"time":382.5,"velocity":0.3937007874015748},{"duration":0.09375,"midi":64,"time":382.5,"velocity":0.3937007874015748},{"duration":0.09375,"midi":60,"time":382.5,"velocity":0.3937007874015748},{"duration":0.09375,"midi":93,"time":382.6875,"velocity":0.3937007874015748},{"duration":0.09375,"midi":69,"time":382.6875,"velocity":0.3937007874015748},{"duration":0.09375,"midi":57,"time":382.6875,"velocity":0.3937007874015748},{"duration":0.09375,"midi":81,"time":382.6875,"velocity":0.3937007874015748},{"duration":0.09375,"midi":76,"time":382.875,"velocity":0.3937007874015748},{"duration":0.09375,"midi":60,"time":382.875,"velocity":0.3937007874015748},{"duration":0.09375,"midi":84,"time":382.875,"velocity":0.3937007874015748},{"duration":0.09375,"midi":64,"time":382.875,"velocity":0.3937007874015748},{"duration":0.09375,"midi":88,"time":382.875,"velocity":0.3937007874015748},{"duration":0.09375,"midi":72,"time":382.875,"velocity":0.3937007874015748},{"duration":0.09375,"midi":81,"time":383.0625,"velocity":0.3937007874015748},{"duration":0.09375,"midi":69,"time":383.0625,"velocity":0.3937007874015748},{"duration":0.09375,"midi":57,"time":383.0625,"velocity":0.3937007874015748},{"duration":0.09375,"midi":93,"time":383.0625,"velocity":0.3937007874015748},{"duration":0.09375,"midi":64,"time":383.25,"velocity":0.3937007874015748},{"duration":0.09375,"midi":76,"time":383.25,"velocity":0.3937007874015748},{"duration":0.09375,"midi":60,"time":383.25,"velocity":0.3937007874015748},{"duration":0.09375,"midi":84,"time":383.25,"velocity":0.3937007874015748},{"duration":0.09375,"midi":72,"time":383.25,"velocity":0.3937007874015748},{"duration":0.09375,"midi":88,"time":383.25,"velocity":0.3937007874015748},{"duration":0.09375,"midi":81,"time":383.4375,"velocity":0.3937007874015748},{"duration":0.09375,"midi":57,"time":383.4375,"velocity":0.3937007874015748},{"duration":0.09375,"midi":93,"time":383.4375,"velocity":0.3937007874015748},{"duration":0.09375,"midi":69,"time":383.4375,"velocity":0.3937007874015748},{"duration":0.09375,"midi":60,"time":383.625,"velocity":0.3937007874015748},{"duration":0.09375,"midi":64,"time":383.625,"velocity":0.3937007874015748},{"duration":0.09375,"midi":84,"time":383.625,"velocity":0.3937007874015748},{"duration":0.09375,"midi":72,"time":383.625,"velocity":0.3937007874015748},{"duration":0.09375,"midi":76,"time":383.625,"velocity":0.3937007874015748},{"duration":0.09375,"midi":88,"time":383.625,"velocity":0.3937007874015748},{"duration":0.09375,"midi":69,"time":383.8125,"velocity":0.3937007874015748},{"duration":0.09375,"midi":81,"time":383.8125,"velocity":0.3937007874015748},{"duration":0.09375,"midi":57,"time":383.8125,"velocity":0.3937007874015748},{"duration":0.09375,"midi":93,"time":383.8125,"velocity":0.3937007874015748},{"duration":0.09375,"midi":65,"time":384,"velocity":0.3937007874015748},{"duration":0.09375,"midi":89,"time":384,"velocity":0.3937007874015748},{"duration":0.09375,"midi":74,"time":384,"velocity":0.3937007874015748},{"duration":0.09375,"midi":77,"time":384,"velocity":0.3937007874015748},{"duration":0.09375,"midi":86,"time":384,"velocity":0.3937007874015748},{"duration":0.09375,"midi":62,"time":384,"velocity":0.3937007874015748},{"duration":0.09375,"midi":69,"time":384.1875,"velocity":0.3937007874015748},{"duration":0.09375,"midi":57,"time":384.1875,"velocity":0.3937007874015748},{"duration":0.09375,"midi":93,"time":384.1875,"velocity":0.3937007874015748},{"duration":0.09375,"midi":81,"time":384.1875,"velocity":0.3937007874015748},{"duration":0.09375,"midi":62,"time":384.375,"velocity":0.3937007874015748},{"duration":0.09375,"midi":89,"time":384.375,"velocity":0.3937007874015748},{"duration":0.09375,"midi":77,"time":384.375,"velocity":0.3937007874015748},{"duration":0.09375,"midi":65,"time":384.375,"velocity":0.3937007874015748},{"duration":0.09375,"midi":74,"time":384.375,"velocity":0.3937007874015748},{"duration":0.09375,"midi":86,"time":384.375,"velocity":0.3937007874015748},{"duration":0.09375,"midi":93,"time":384.5625,"velocity":0.3937007874015748},{"duration":0.09375,"midi":57,"time":384.5625,"velocity":0.3937007874015748},{"duration":0.09375,"midi":69,"time":384.5625,"velocity":0.3937007874015748},{"duration":0.09375,"midi":81,"time":384.5625,"velocity":0.3937007874015748},{"duration":0.09375,"midi":62,"time":384.75,"velocity":0.3937007874015748},{"duration":0.09375,"midi":89,"time":384.75,"velocity":0.3937007874015748},{"duration":0.09375,"midi":65,"time":384.75,"velocity":0.3937007874015748},{"duration":0.09375,"midi":74,"time":384.75,"velocity":0.3937007874015748},{"duration":0.09375,"midi":86,"time":384.75,"velocity":0.3937007874015748},{"duration":0.09375,"midi":77,"time":384.75,"velocity":0.3937007874015748},{"duration":0.09375,"midi":69,"time":384.9375,"velocity":0.3937007874015748},{"duration":0.09375,"midi":57,"time":384.9375,"velocity":0.3937007874015748},{"duration":0.09375,"midi":93,"time":384.9375,"velocity":0.3937007874015748},{"duration":0.09375,"midi":81,"time":384.9375,"velocity":0.3937007874015748},{"duration":0.09375,"midi":89,"time":385.125,"velocity":0.3937007874015748},{"duration":0.09375,"midi":62,"time":385.125,"velocity":0.3937007874015748},{"duration":0.09375,"midi":65,"time":385.125,"velocity":0.3937007874015748},{"duration":0.09375,"midi":74,"time":385.125,"velocity":0.3937007874015748},{"duration":0.09375,"midi":77,"time":385.125,"velocity":0.3937007874015748},{"duration":0.09375,"midi":86,"time":385.125,"velocity":0.3937007874015748},{"duration":0.09375,"midi":93,"time":385.3125,"velocity":0.3937007874015748},{"duration":0.09375,"midi":69,"time":385.3125,"velocity":0.3937007874015748},{"duration":0.09375,"midi":81,"time":385.3125,"velocity":0.3937007874015748},{"duration":0.09375,"midi":57,"time":385.3125,"velocity":0.3937007874015748},{"duration":0.09375,"midi":74,"time":385.5,"velocity":0.3937007874015748},{"duration":0.09375,"midi":65,"time":385.5,"velocity":0.3937007874015748},{"duration":0.09375,"midi":62,"time":385.5,"velocity":0.3937007874015748},{"duration":0.09375,"midi":77,"time":385.5,"velocity":0.3937007874015748},{"duration":0.09375,"midi":89,"time":385.5,"velocity":0.3937007874015748},{"duration":0.09375,"midi":86,"time":385.5,"velocity":0.3937007874015748},{"duration":0.09375,"midi":81,"time":385.6875,"velocity":0.3937007874015748},{"duration":0.09375,"midi":69,"time":385.6875,"velocity":0.3937007874015748},{"duration":0.09375,"midi":57,"time":385.6875,"velocity":0.3937007874015748},{"duration":0.09375,"midi":93,"time":385.6875,"velocity":0.3937007874015748},{"duration":0.09375,"midi":86,"time":385.875,"velocity":0.3937007874015748},{"duration":0.09375,"midi":77,"time":385.875,"velocity":0.3937007874015748},{"duration":0.09375,"midi":62,"time":385.875,"velocity":0.3937007874015748},{"duration":0.09375,"midi":89,"time":385.875,"velocity":0.3937007874015748},{"duration":0.09375,"midi":74,"time":385.875,"velocity":0.3937007874015748},{"duration":0.09375,"midi":65,"time":385.875,"velocity":0.3937007874015748},{"duration":0.09375,"midi":69,"time":386.0625,"velocity":0.3937007874015748},{"duration":0.09375,"midi":57,"time":386.0625,"velocity":0.3937007874015748},{"duration":0.09375,"midi":93,"time":386.0625,"velocity":0.3937007874015748},{"duration":0.09375,"midi":81,"time":386.0625,"velocity":0.3937007874015748},{"duration":0.09375,"midi":65,"time":386.25,"velocity":0.3937007874015748},{"duration":0.09375,"midi":89,"time":386.25,"velocity":0.3937007874015748},{"duration":0.09375,"midi":74,"time":386.25,"velocity":0.3937007874015748},{"duration":0.09375,"midi":77,"time":386.25,"velocity":0.3937007874015748},{"duration":0.09375,"midi":86,"time":386.25,"velocity":0.3937007874015748},{"duration":0.09375,"midi":62,"time":386.25,"velocity":0.3937007874015748},{"duration":0.09375,"midi":81,"time":386.4375,"velocity":0.3937007874015748},{"duration":0.09375,"midi":69,"time":386.4375,"velocity":0.3937007874015748},{"duration":0.09375,"midi":57,"time":386.4375,"velocity":0.3937007874015748},{"duration":0.09375,"midi":93,"time":386.4375,"velocity":0.3937007874015748},{"duration":0.09375,"midi":89,"time":386.625,"velocity":0.3937007874015748},{"duration":0.09375,"midi":86,"time":386.625,"velocity":0.3937007874015748},{"duration":0.09375,"midi":62,"time":386.625,"velocity":0.3937007874015748},{"duration":0.09375,"midi":65,"time":386.625,"velocity":0.3937007874015748},{"duration":0.09375,"midi":74,"time":386.625,"velocity":0.3937007874015748},{"duration":0.09375,"midi":77,"time":386.625,"velocity":0.3937007874015748},{"duration":0.09375,"midi":81,"time":386.8125,"velocity":0.3937007874015748},{"duration":0.09375,"midi":93,"time":386.8125,"velocity":0.3937007874015748},{"duration":0.09375,"midi":69,"time":386.8125,"velocity":0.3937007874015748},{"duration":0.09375,"midi":57,"time":386.8125,"velocity":0.3937007874015748},{"duration":0.09375,"midi":74,"time":387,"velocity":0.3937007874015748},{"duration":0.09375,"midi":71,"time":387,"velocity":0.3937007874015748},{"duration":0.09375,"midi":62,"time":387,"velocity":0.3937007874015748},{"duration":0.09375,"midi":86,"time":387,"velocity":0.3937007874015748},{"duration":0.09375,"midi":83,"time":387,"velocity":0.3937007874015748},{"duration":0.09375,"midi":59,"time":387,"velocity":0.3937007874015748},{"duration":0.09375,"midi":92,"time":387.1875,"velocity":0.3937007874015748},{"duration":0.09375,"midi":68,"time":387.1875,"velocity":0.3937007874015748},{"duration":0.09375,"midi":56,"time":387.1875,"velocity":0.3937007874015748},{"duration":0.09375,"midi":80,"time":387.1875,"velocity":0.3937007874015748},{"duration":0.09375,"midi":71,"time":387.375,"velocity":0.3937007874015748},{"duration":0.09375,"midi":86,"time":387.375,"velocity":0.3937007874015748},{"duration":0.09375,"midi":59,"time":387.375,"velocity":0.3937007874015748},{"duration":0.09375,"midi":74,"time":387.375,"velocity":0.3937007874015748},{"duration":0.09375,"midi":83,"time":387.375,"velocity":0.3937007874015748},{"duration":0.09375,"midi":62,"time":387.375,"velocity":0.3937007874015748},{"duration":0.09375,"midi":80,"time":387.5625,"velocity":0.3937007874015748},{"duration":0.09375,"midi":68,"time":387.5625,"velocity":0.3937007874015748},{"duration":0.09375,"midi":56,"time":387.5625,"velocity":0.3937007874015748},{"duration":0.09375,"midi":92,"time":387.5625,"velocity":0.3937007874015748},{"duration":0.09375,"midi":86,"time":387.75,"velocity":0.3937007874015748},{"duration":0.09375,"midi":83,"time":387.75,"velocity":0.3937007874015748},{"duration":0.09375,"midi":71,"time":387.75,"velocity":0.3937007874015748},{"duration":0.09375,"midi":62,"time":387.75,"velocity":0.3937007874015748},{"duration":0.09375,"midi":59,"time":387.75,"velocity":0.3937007874015748},{"duration":0.09375,"midi":74,"time":387.75,"velocity":0.3937007874015748},{"duration":0.09375,"midi":80,"time":387.9375,"velocity":0.3937007874015748},{"duration":0.09375,"midi":92,"time":387.9375,"velocity":0.3937007874015748},{"duration":0.09375,"midi":68,"time":387.9375,"velocity":0.3937007874015748},{"duration":0.09375,"midi":56,"time":387.9375,"velocity":0.3937007874015748},{"duration":0.09375,"midi":59,"time":388.125,"velocity":0.3937007874015748},{"duration":0.09375,"midi":86,"time":388.125,"velocity":0.3937007874015748},{"duration":0.09375,"midi":74,"time":388.125,"velocity":0.3937007874015748},{"duration":0.09375,"midi":71,"time":388.125,"velocity":0.3937007874015748},{"duration":0.09375,"midi":83,"time":388.125,"velocity":0.3937007874015748},{"duration":0.09375,"midi":62,"time":388.125,"velocity":0.3937007874015748},{"duration":0.09375,"midi":80,"time":388.3125,"velocity":0.3937007874015748},{"duration":0.09375,"midi":92,"time":388.3125,"velocity":0.3937007874015748},{"duration":0.09375,"midi":68,"time":388.3125,"velocity":0.3937007874015748},{"duration":0.09375,"midi":56,"time":388.3125,"velocity":0.3937007874015748},{"duration":0.09375,"midi":74,"time":388.5,"velocity":0.3937007874015748},{"duration":0.09375,"midi":59,"time":388.5,"velocity":0.3937007874015748},{"duration":0.09375,"midi":71,"time":388.5,"velocity":0.3937007874015748},{"duration":0.09375,"midi":86,"time":388.5,"velocity":0.3937007874015748},{"duration":0.09375,"midi":83,"time":388.5,"velocity":0.3937007874015748},{"duration":0.09375,"midi":62,"time":388.5,"velocity":0.3937007874015748},{"duration":0.09375,"midi":68,"time":388.6875,"velocity":0.3937007874015748},{"duration":0.09375,"midi":56,"time":388.6875,"velocity":0.3937007874015748},{"duration":0.09375,"midi":92,"time":388.6875,"velocity":0.3937007874015748},{"duration":0.09375,"midi":80,"time":388.6875,"velocity":0.3937007874015748},{"duration":0.09375,"midi":83,"time":388.875,"velocity":0.3937007874015748},{"duration":0.09375,"midi":86,"time":388.875,"velocity":0.3937007874015748},{"duration":0.09375,"midi":62,"time":388.875,"velocity":0.3937007874015748},{"duration":0.09375,"midi":59,"time":388.875,"velocity":0.3937007874015748},{"duration":0.09375,"midi":74,"time":388.875,"velocity":0.3937007874015748},{"duration":0.09375,"midi":71,"time":388.875,"velocity":0.3937007874015748},{"duration":0.09375,"midi":92,"time":389.0625,"velocity":0.3937007874015748},{"duration":0.09375,"midi":68,"time":389.0625,"velocity":0.3937007874015748},{"duration":0.09375,"midi":80,"time":389.0625,"velocity":0.3937007874015748},{"duration":0.09375,"midi":56,"time":389.0625,"velocity":0.3937007874015748},{"duration":0.09375,"midi":86,"time":389.25,"velocity":0.3937007874015748},{"duration":0.09375,"midi":62,"time":389.25,"velocity":0.3937007874015748},{"duration":0.09375,"midi":83,"time":389.25,"velocity":0.3937007874015748},{"duration":0.09375,"midi":74,"time":389.25,"velocity":0.3937007874015748},{"duration":0.09375,"midi":59,"time":389.25,"velocity":0.3937007874015748},{"duration":0.09375,"midi":71,"time":389.25,"velocity":0.3937007874015748},{"duration":0.09375,"midi":92,"time":389.4375,"velocity":0.3937007874015748},{"duration":0.09375,"midi":80,"time":389.4375,"velocity":0.3937007874015748},{"duration":0.09375,"midi":68,"time":389.4375,"velocity":0.3937007874015748},{"duration":0.09375,"midi":56,"time":389.4375,"velocity":0.3937007874015748},{"duration":0.09375,"midi":83,"time":389.625,"velocity":0.3937007874015748},{"duration":0.09375,"midi":74,"time":389.625,"velocity":0.3937007874015748},{"duration":0.09375,"midi":71,"time":389.625,"velocity":0.3937007874015748},{"duration":0.09375,"midi":62,"time":389.625,"velocity":0.3937007874015748},{"duration":0.09375,"midi":86,"time":389.625,"velocity":0.3937007874015748},{"duration":0.09375,"midi":59,"time":389.625,"velocity":0.3937007874015748},{"duration":0.09375,"midi":56,"time":389.8125,"velocity":0.3937007874015748},{"duration":0.09375,"midi":92,"time":389.8125,"velocity":0.3937007874015748},{"duration":0.09375,"midi":68,"time":389.8125,"velocity":0.3937007874015748},{"duration":0.09375,"midi":80,"time":389.8125,"velocity":0.3937007874015748},{"duration":0.09375,"midi":81,"time":390,"velocity":0.3937007874015748},{"duration":0.09375,"midi":84,"time":390,"velocity":0.3937007874015748},{"duration":0.09375,"midi":57,"time":390,"velocity":0.3937007874015748},{"duration":0.09375,"midi":76,"time":390,"velocity":0.3937007874015748},{"duration":0.09375,"midi":64,"time":390,"velocity":0.3937007874015748},{"duration":0.09375,"midi":60,"time":390,"velocity":0.3937007874015748},{"duration":0.09375,"midi":72,"time":390,"velocity":0.3937007874015748},{"duration":0.09375,"midi":69,"time":390,"velocity":0.3937007874015748},{"duration":0.09375,"midi":93,"time":390,"velocity":0.3937007874015748},{"duration":0.09375,"midi":88,"time":390,"velocity":0.3937007874015748},{"duration":0.09375,"midi":29,"time":444,"velocity":0.3937007874015748},{"duration":0.09375,"midi":46,"time":444,"velocity":0.3937007874015748},{"duration":0.09375,"midi":37,"time":444,"velocity":0.3937007874015748},{"duration":0.09375,"midi":41,"time":444,"velocity":0.3937007874015748},{"duration":0.09375,"midi":34,"time":444,"velocity":0.3937007874015748},{"duration":0.09375,"midi":65,"time":444,"velocity":0.3937007874015748},{"duration":0.09375,"midi":77,"time":444,"velocity":0.3937007874015748},{"duration":0.09375,"midi":58,"time":444,"velocity":0.3937007874015748},{"duration":0.09375,"midi":82,"time":444,"velocity":0.3937007874015748},{"duration":0.09375,"midi":61,"time":444,"velocity":0.3937007874015748},{"duration":0.09375,"midi":70,"time":444,"velocity":0.3937007874015748},{"duration":0.09375,"midi":53,"time":444,"velocity":0.3937007874015748},{"duration":0.09375,"midi":49,"time":444,"velocity":0.3937007874015748},{"duration":0.09375,"midi":73,"time":444,"velocity":0.3937007874015748},{"duration":0.09375,"midi":94,"time":444,"velocity":0.3937007874015748},{"duration":0.09375,"midi":85,"time":444,"velocity":0.3937007874015748},{"duration":0.09375,"midi":25,"time":444,"velocity":0.3937007874015748},{"duration":0.09375,"midi":89,"time":444,"velocity":0.3937007874015748},{"duration":0.09375,"midi":70,"time":444.1875,"velocity":0.3937007874015748},{"duration":0.09375,"midi":29,"time":444.1875,"velocity":0.3937007874015748},{"duration":0.09375,"midi":53,"time":444.1875,"velocity":0.3937007874015748},{"duration":0.09375,"midi":89,"time":444.1875,"velocity":0.3937007874015748},{"duration":0.09375,"midi":85,"time":444.1875,"velocity":0.3937007874015748},{"duration":0.09375,"midi":41,"time":444.1875,"velocity":0.3937007874015748},{"duration":0.09375,"midi":37,"time":444.1875,"velocity":0.3937007874015748},{"duration":0.09375,"midi":65,"time":444.1875,"velocity":0.3937007874015748},{"duration":0.09375,"midi":77,"time":444.1875,"velocity":0.3937007874015748},{"duration":0.09375,"midi":58,"time":444.1875,"velocity":0.3937007874015748},{"duration":0.09375,"midi":46,"time":444.1875,"velocity":0.3937007874015748},{"duration":0.09375,"midi":82,"time":444.1875,"velocity":0.3937007874015748},{"duration":0.09375,"midi":25,"time":444.1875,"velocity":0.3937007874015748},{"duration":0.09375,"midi":34,"time":444.1875,"velocity":0.3937007874015748},{"duration":0.09375,"midi":73,"time":444.1875,"velocity":0.3937007874015748},{"duration":0.09375,"midi":61,"time":444.1875,"velocity":0.3937007874015748},{"duration":0.09375,"midi":49,"time":444.1875,"velocity":0.3937007874015748},{"duration":0.09375,"midi":94,"time":444.1875,"velocity":0.3937007874015748},{"duration":0.09375,"midi":82,"time":444.375,"velocity":0.3937007874015748},{"duration":0.09375,"midi":61,"time":444.375,"velocity":0.3937007874015748},{"duration":0.09375,"midi":85,"time":444.375,"velocity":0.3937007874015748},{"duration":0.09375,"midi":70,"time":444.375,"velocity":0.3937007874015748},{"duration":0.09375,"midi":89,"time":444.375,"velocity":0.3937007874015748},{"duration":0.09375,"midi":29,"time":444.375,"velocity":0.3937007874015748},{"duration":0.09375,"midi":65,"time":444.375,"velocity":0.3937007874015748},{"duration":0.09375,"midi":41,"time":444.375,"velocity":0.3937007874015748},{"duration":0.09375,"midi":49,"time":444.375,"velocity":0.3937007874015748},{"duration":0.09375,"midi":58,"time":444.375,"velocity":0.3937007874015748},{"duration":0.09375,"midi":53,"time":444.375,"velocity":0.3937007874015748},{"duration":0.09375,"midi":46,"time":444.375,"velocity":0.3937007874015748},{"duration":0.09375,"midi":94,"time":444.375,"velocity":0.3937007874015748},{"duration":0.09375,"midi":77,"time":444.375,"velocity":0.3937007874015748},{"duration":0.09375,"midi":34,"time":444.375,"velocity":0.3937007874015748},{"duration":0.09375,"midi":73,"time":444.375,"velocity":0.3937007874015748},{"duration":0.09375,"midi":25,"time":444.375,"velocity":0.3937007874015748},{"duration":0.09375,"midi":37,"time":444.375,"velocity":0.3937007874015748},{"duration":0.09375,"midi":65,"time":444.5625,"velocity":0.3937007874015748},{"duration":0.09375,"midi":77,"time":444.5625,"velocity":0.3937007874015748},{"duration":0.09375,"midi":70,"time":444.5625,"velocity":0.3937007874015748},{"duration":0.09375,"midi":37,"time":444.5625,"velocity":0.3937007874015748},{"duration":0.09375,"midi":73,"time":444.5625,"velocity":0.3937007874015748},{"duration":0.09375,"midi":82,"time":444.5625,"velocity":0.3937007874015748},{"duration":0.09375,"midi":53,"time":444.5625,"velocity":0.3937007874015748},{"duration":0.09375,"midi":34,"time":444.5625,"velocity":0.3937007874015748},{"duration":0.09375,"midi":49,"time":444.5625,"velocity":0.3937007874015748},{"duration":0.09375,"midi":41,"time":444.5625,"velocity":0.3937007874015748},{"duration":0.09375,"midi":94,"time":444.5625,"velocity":0.3937007874015748},{"duration":0.09375,"midi":25,"time":444.5625,"velocity":0.3937007874015748},{"duration":0.09375,"midi":29,"time":444.5625,"velocity":0.3937007874015748},{"duration":0.09375,"midi":46,"time":444.5625,"velocity":0.3937007874015748},{"duration":0.09375,"midi":61,"time":444.5625,"velocity":0.3937007874015748},{"duration":0.09375,"midi":89,"time":444.5625,"velocity":0.3937007874015748},{"duration":0.09375,"midi":85,"time":444.5625,"velocity":0.3937007874015748},{"duration":0.09375,"midi":58,"time":444.5625,"velocity":0.3937007874015748},{"duration":0.09375,"midi":41,"time":444.75,"velocity":0.3937007874015748},{"duration":0.09375,"midi":29,"time":444.75,"velocity":0.3937007874015748},{"duration":0.09375,"midi":77,"time":444.75,"velocity":0.3937007874015748},{"duration":0.09375,"midi":65,"time":444.75,"velocity":0.3937007874015748},{"duration":0.09375,"midi":34,"time":444.75,"velocity":0.3937007874015748},{"duration":0.09375,"midi":73,"time":444.75,"velocity":0.3937007874015748},{"duration":0.09375,"midi":82,"time":444.75,"velocity":0.3937007874015748},{"duration":0.09375,"midi":25,"time":444.75,"velocity":0.3937007874015748},{"duration":0.09375,"midi":46,"time":444.75,"velocity":0.3937007874015748},{"duration":0.09375,"midi":37,"time":444.75,"velocity":0.3937007874015748},{"duration":0.09375,"midi":53,"time":444.75,"velocity":0.3937007874015748},{"duration":0.09375,"midi":94,"time":444.75,"velocity":0.3937007874015748},{"duration":0.09375,"midi":58,"time":444.75,"velocity":0.3937007874015748},{"duration":0.09375,"midi":61,"time":444.75,"velocity":0.3937007874015748},{"duration":0.09375,"midi":89,"time":444.75,"velocity":0.3937007874015748},{"duration":0.09375,"midi":70,"time":444.75,"velocity":0.3937007874015748},{"duration":0.09375,"midi":49,"time":444.75,"velocity":0.3937007874015748},{"duration":0.09375,"midi":85,"time":444.75,"velocity":0.3937007874015748},{"duration":0.09375,"midi":53,"time":444.9375,"velocity":0.3937007874015748},{"duration":0.09375,"midi":29,"time":444.9375,"velocity":0.3937007874015748},{"duration":0.09375,"midi":34,"time":444.9375,"velocity":0.3937007874015748},{"duration":0.09375,"midi":46,"time":444.9375,"velocity":0.3937007874015748},{"duration":0.09375,"midi":77,"time":444.9375,"velocity":0.3937007874015748},{"duration":0.09375,"midi":82,"time":444.9375,"velocity":0.3937007874015748},{"duration":0.09375,"midi":58,"time":444.9375,"velocity":0.3937007874015748},{"duration":0.09375,"midi":25,"time":444.9375,"velocity":0.3937007874015748},{"duration":0.09375,"midi":65,"time":444.9375,"velocity":0.3937007874015748},{"duration":0.09375,"midi":73,"time":444.9375,"velocity":0.3937007874015748},{"duration":0.09375,"midi":49,"time":444.9375,"velocity":0.3937007874015748},{"duration":0.09375,"midi":41,"time":444.9375,"velocity":0.3937007874015748},{"duration":0.09375,"midi":70,"time":444.9375,"velocity":0.3937007874015748},{"duration":0.09375,"midi":85,"time":444.9375,"velocity":0.3937007874015748},{"duration":0.09375,"midi":37,"time":444.9375,"velocity":0.3937007874015748},{"duration":0.09375,"midi":89,"time":444.9375,"velocity":0.3937007874015748},{"duration":0.09375,"midi":94,"time":444.9375,"velocity":0.3937007874015748},{"duration":0.09375,"midi":61,"time":444.9375,"velocity":0.3937007874015748},{"duration":0.09375,"midi":37,"time":445.125,"velocity":0.3937007874015748},{"duration":0.09375,"midi":25,"time":445.125,"velocity":0.3937007874015748},{"duration":0.09375,"midi":46,"time":445.125,"velocity":0.3937007874015748},{"duration":0.09375,"midi":65,"time":445.125,"velocity":0.3937007874015748},{"duration":0.09375,"midi":73,"time":445.125,"velocity":0.3937007874015748},{"duration":0.09375,"midi":53,"time":445.125,"velocity":0.3937007874015748},{"duration":0.09375,"midi":82,"time":445.125,"velocity":0.3937007874015748},{"duration":0.09375,"midi":34,"time":445.125,"velocity":0.3937007874015748},{"duration":0.09375,"midi":70,"time":445.125,"velocity":0.3937007874015748},{"duration":0.09375,"midi":58,"time":445.125,"velocity":0.3937007874015748},{"duration":0.09375,"midi":41,"time":445.125,"velocity":0.3937007874015748},{"duration":0.09375,"midi":61,"time":445.125,"velocity":0.3937007874015748},{"duration":0.09375,"midi":49,"time":445.125,"velocity":0.3937007874015748},{"duration":0.09375,"midi":77,"time":445.125,"velocity":0.3937007874015748},{"duration":0.09375,"midi":94,"time":445.125,"velocity":0.3937007874015748},{"duration":0.09375,"midi":89,"time":445.125,"velocity":0.3937007874015748},{"duration":0.09375,"midi":29,"time":445.125,"velocity":0.3937007874015748},{"duration":0.09375,"midi":85,"time":445.125,"velocity":0.3937007874015748},{"duration":0.09375,"midi":53,"time":445.3125,"velocity":0.3937007874015748},{"duration":0.09375,"midi":34,"time":445.3125,"velocity":0.3937007874015748},{"duration":0.09375,"midi":49,"time":445.3125,"velocity":0.3937007874015748},{"duration":0.09375,"midi":94,"time":445.3125,"velocity":0.3937007874015748},{"duration":0.09375,"midi":65,"time":445.3125,"velocity":0.3937007874015748},{"duration":0.09375,"midi":82,"time":445.3125,"velocity":0.3937007874015748},{"duration":0.09375,"midi":73,"time":445.3125,"velocity":0.3937007874015748},{"duration":0.09375,"midi":58,"time":445.3125,"velocity":0.3937007874015748},{"duration":0.09375,"midi":41,"time":445.3125,"velocity":0.3937007874015748},{"duration":0.09375,"midi":77,"time":445.3125,"velocity":0.3937007874015748},{"duration":0.09375,"midi":85,"time":445.3125,"velocity":0.3937007874015748},{"duration":0.09375,"midi":70,"time":445.3125,"velocity":0.3937007874015748},{"duration":0.09375,"midi":46,"time":445.3125,"velocity":0.3937007874015748},{"duration":0.09375,"midi":29,"time":445.3125,"velocity":0.3937007874015748},{"duration":0.09375,"midi":37,"time":445.3125,"velocity":0.3937007874015748},{"duration":0.09375,"midi":89,"time":445.3125,"velocity":0.3937007874015748},{"duration":0.09375,"midi":61,"time":445.3125,"velocity":0.3937007874015748},{"duration":0.09375,"midi":25,"time":445.3125,"velocity":0.3937007874015748},{"duration":0.09375,"midi":65,"time":445.5,"velocity":0.3937007874015748},{"duration":0.09375,"midi":58,"time":445.5,"velocity":0.3937007874015748},{"duration":0.09375,"midi":82,"time":445.5,"velocity":0.3937007874015748},{"duration":0.09375,"midi":77,"time":445.5,"velocity":0.3937007874015748},{"duration":0.09375,"midi":85,"time":445.5,"velocity":0.3937007874015748},{"duration":0.09375,"midi":61,"time":445.5,"velocity":0.3937007874015748},{"duration":0.09375,"midi":53,"time":445.5,"velocity":0.3937007874015748},{"duration":0.09375,"midi":49,"time":445.5,"velocity":0.3937007874015748},{"duration":0.09375,"midi":94,"time":445.5,"velocity":0.3937007874015748},{"duration":0.09375,"midi":70,"time":445.5,"velocity":0.3937007874015748},{"duration":0.09375,"midi":89,"time":445.5,"velocity":0.3937007874015748},{"duration":0.09375,"midi":29,"time":445.5,"velocity":0.3937007874015748},{"duration":0.09375,"midi":34,"time":445.5,"velocity":0.3937007874015748},{"duration":0.09375,"midi":25,"time":445.5,"velocity":0.3937007874015748},{"duration":0.09375,"midi":73,"time":445.5,"velocity":0.3937007874015748},{"duration":0.09375,"midi":46,"time":445.5,"velocity":0.3937007874015748},{"duration":0.09375,"midi":41,"time":445.5,"velocity":0.3937007874015748},{"duration":0.09375,"midi":37,"time":445.5,"velocity":0.3937007874015748},{"duration":0.09375,"midi":85,"time":445.6875,"velocity":0.3937007874015748},{"duration":0.09375,"midi":65,"time":445.6875,"velocity":0.3937007874015748},{"duration":0.09375,"midi":46,"time":445.6875,"velocity":0.3937007874015748},{"duration":0.09375,"midi":61,"time":445.6875,"velocity":0.3937007874015748},{"duration":0.09375,"midi":58,"time":445.6875,"velocity":0.3937007874015748},{"duration":0.09375,"midi":34,"time":445.6875,"velocity":0.3937007874015748},{"duration":0.09375,"midi":29,"time":445.6875,"velocity":0.3937007874015748},{"duration":0.09375,"midi":49,"time":445.6875,"velocity":0.3937007874015748},{"duration":0.09375,"midi":94,"time":445.6875,"velocity":0.3937007874015748},{"duration":0.09375,"midi":25,"time":445.6875,"velocity":0.3937007874015748},{"duration":0.09375,"midi":37,"time":445.6875,"velocity":0.3937007874015748},{"duration":0.09375,"midi":77,"time":445.6875,"velocity":0.3937007874015748},{"duration":0.09375,"midi":82,"time":445.6875,"velocity":0.3937007874015748},{"duration":0.09375,"midi":70,"time":445.6875,"velocity":0.3937007874015748},{"duration":0.09375,"midi":73,"time":445.6875,"velocity":0.3937007874015748},{"duration":0.09375,"midi":53,"time":445.6875,"velocity":0.3937007874015748},{"duration":0.09375,"midi":89,"time":445.6875,"velocity":0.3937007874015748},{"duration":0.09375,"midi":41,"time":445.6875,"velocity":0.3937007874015748},{"duration":0.09375,"midi":37,"time":445.875,"velocity":0.3937007874015748},{"duration":0.09375,"midi":73,"time":445.875,"velocity":0.3937007874015748},{"duration":0.09375,"midi":46,"time":445.875,"velocity":0.3937007874015748},{"duration":0.09375,"midi":82,"time":445.875,"velocity":0.3937007874015748},{"duration":0.09375,"midi":41,"time":445.875,"velocity":0.3937007874015748},{"duration":0.09375,"midi":77,"time":445.875,"velocity":0.3937007874015748},{"duration":0.09375,"midi":94,"time":445.875,"velocity":0.3937007874015748},{"duration":0.09375,"midi":61,"time":445.875,"velocity":0.3937007874015748},{"duration":0.09375,"midi":70,"time":445.875,"velocity":0.3937007874015748},{"duration":0.09375,"midi":49,"time":445.875,"velocity":0.3937007874015748},{"duration":0.09375,"midi":34,"time":445.875,"velocity":0.3937007874015748},{"duration":0.09375,"midi":29,"time":445.875,"velocity":0.3937007874015748},{"duration":0.09375,"midi":89,"time":445.875,"velocity":0.3937007874015748},{"duration":0.09375,"midi":58,"time":445.875,"velocity":0.3937007874015748},{"duration":0.09375,"midi":25,"time":445.875,"velocity":0.3937007874015748},{"duration":0.09375,"midi":85,"time":445.875,"velocity":0.3937007874015748},{"duration":0.09375,"midi":53,"time":445.875,"velocity":0.3937007874015748},{"duration":0.09375,"midi":65,"time":445.875,"velocity":0.3937007874015748},{"duration":0.09375,"midi":41,"time":446.0625,"velocity":0.3937007874015748},{"duration":0.09375,"midi":29,"time":446.0625,"velocity":0.3937007874015748},{"duration":0.09375,"midi":65,"time":446.0625,"velocity":0.3937007874015748},{"duration":0.09375,"midi":94,"time":446.0625,"velocity":0.3937007874015748},{"duration":0.09375,"midi":58,"time":446.0625,"velocity":0.3937007874015748},{"duration":0.09375,"midi":46,"time":446.0625,"velocity":0.3937007874015748},{"duration":0.09375,"midi":82,"time":446.0625,"velocity":0.3937007874015748},{"duration":0.09375,"midi":73,"time":446.0625,"velocity":0.3937007874015748},{"duration":0.09375,"midi":77,"time":446.0625,"velocity":0.3937007874015748},{"duration":0.09375,"midi":89,"time":446.0625,"velocity":0.3937007874015748},{"duration":0.09375,"midi":49,"time":446.0625,"velocity":0.3937007874015748},{"duration":0.09375,"midi":37,"time":446.0625,"velocity":0.3937007874015748},{"duration":0.09375,"midi":85,"time":446.0625,"velocity":0.3937007874015748},{"duration":0.09375,"midi":53,"time":446.0625,"velocity":0.3937007874015748},{"duration":0.09375,"midi":70,"time":446.0625,"velocity":0.3937007874015748},{"duration":0.09375,"midi":34,"time":446.0625,"velocity":0.3937007874015748},{"duration":0.09375,"midi":25,"time":446.0625,"velocity":0.3937007874015748},{"duration":0.09375,"midi":61,"time":446.0625,"velocity":0.3937007874015748},{"duration":0.09375,"midi":46,"time":446.25,"velocity":0.3937007874015748},{"duration":0.09375,"midi":41,"time":446.25,"velocity":0.3937007874015748},{"duration":0.09375,"midi":77,"time":446.25,"velocity":0.3937007874015748},{"duration":0.09375,"midi":94,"time":446.25,"velocity":0.3937007874015748},{"duration":0.09375,"midi":85,"time":446.25,"velocity":0.3937007874015748},{"duration":0.09375,"midi":25,"time":446.25,"velocity":0.3937007874015748},{"duration":0.09375,"midi":37,"time":446.25,"velocity":0.3937007874015748},{"duration":0.09375,"midi":49,"time":446.25,"velocity":0.3937007874015748},{"duration":0.09375,"midi":65,"time":446.25,"velocity":0.3937007874015748},{"duration":0.09375,"midi":82,"time":446.25,"velocity":0.3937007874015748},{"duration":0.09375,"midi":73,"time":446.25,"velocity":0.3937007874015748},{"duration":0.09375,"midi":89,"time":446.25,"velocity":0.3937007874015748},{"duration":0.09375,"midi":70,"time":446.25,"velocity":0.3937007874015748},{"duration":0.09375,"midi":34,"time":446.25,"velocity":0.3937007874015748},{"duration":0.09375,"midi":61,"time":446.25,"velocity":0.3937007874015748},{"duration":0.09375,"midi":29,"time":446.25,"velocity":0.3937007874015748},{"duration":0.09375,"midi":53,"time":446.25,"velocity":0.3937007874015748},{"duration":0.09375,"midi":58,"time":446.25,"velocity":0.3937007874015748},{"duration":0.09375,"midi":73,"time":446.4375,"velocity":0.3937007874015748},{"duration":0.09375,"midi":29,"time":446.4375,"velocity":0.3937007874015748},{"duration":0.09375,"midi":94,"time":446.4375,"velocity":0.3937007874015748},{"duration":0.09375,"midi":25,"time":446.4375,"velocity":0.3937007874015748},{"duration":0.09375,"midi":85,"time":446.4375,"velocity":0.3937007874015748},{"duration":0.09375,"midi":58,"time":446.4375,"velocity":0.3937007874015748},{"duration":0.09375,"midi":46,"time":446.4375,"velocity":0.3937007874015748},{"duration":0.09375,"midi":37,"time":446.4375,"velocity":0.3937007874015748},{"duration":0.09375,"midi":49,"time":446.4375,"velocity":0.3937007874015748},{"duration":0.09375,"midi":34,"time":446.4375,"velocity":0.3937007874015748},{"duration":0.09375,"midi":70,"time":446.4375,"velocity":0.3937007874015748},{"duration":0.09375,"midi":82,"time":446.4375,"velocity":0.3937007874015748},{"duration":0.09375,"midi":61,"time":446.4375,"velocity":0.3937007874015748},{"duration":0.09375,"midi":41,"time":446.4375,"velocity":0.3937007874015748},{"duration":0.09375,"midi":89,"time":446.4375,"velocity":0.3937007874015748},{"duration":0.09375,"midi":65,"time":446.4375,"velocity":0.3937007874015748},{"duration":0.09375,"midi":77,"time":446.4375,"velocity":0.3937007874015748},{"duration":0.09375,"midi":53,"time":446.4375,"velocity":0.3937007874015748},{"duration":0.09375,"midi":25,"time":446.625,"velocity":0.3937007874015748},{"duration":0.09375,"midi":29,"time":446.625,"velocity":0.3937007874015748},{"duration":0.09375,"midi":49,"time":446.625,"velocity":0.3937007874015748},{"duration":0.09375,"midi":94,"time":446.625,"velocity":0.3937007874015748},{"duration":0.09375,"midi":58,"time":446.625,"velocity":0.3937007874015748},{"duration":0.09375,"midi":37,"time":446.625,"velocity":0.3937007874015748},{"duration":0.09375,"midi":53,"time":446.625,"velocity":0.3937007874015748},{"duration":0.09375,"midi":82,"time":446.625,"velocity":0.3937007874015748},{"duration":0.09375,"midi":46,"time":446.625,"velocity":0.3937007874015748},{"duration":0.09375,"midi":73,"time":446.625,"velocity":0.3937007874015748},{"duration":0.09375,"midi":70,"time":446.625,"velocity":0.3937007874015748},{"duration":0.09375,"midi":77,"time":446.625,"velocity":0.3937007874015748},{"duration":0.09375,"midi":85,"time":446.625,"velocity":0.3937007874015748},{"duration":0.09375,"midi":89,"time":446.625,"velocity":0.3937007874015748},{"duration":0.09375,"midi":65,"time":446.625,"velocity":0.3937007874015748},{"duration":0.09375,"midi":34,"time":446.625,"velocity":0.3937007874015748},{"duration":0.09375,"midi":61,"time":446.625,"velocity":0.3937007874015748},{"duration":0.09375,"midi":41,"time":446.625,"velocity":0.3937007874015748},{"duration":0.09375,"midi":49,"time":446.8125,"velocity":0.3937007874015748},{"duration":0.09375,"midi":89,"time":446.8125,"velocity":0.3937007874015748},{"duration":0.09375,"midi":61,"time":446.8125,"velocity":0.3937007874015748},{"duration":0.09375,"midi":73,"time":446.8125,"velocity":0.3937007874015748},{"duration":0.09375,"midi":85,"time":446.8125,"velocity":0.3937007874015748},{"duration":0.09375,"midi":53,"time":446.8125,"velocity":0.3937007874015748},{"duration":0.09375,"midi":94,"time":446.8125,"velocity":0.3937007874015748},{"duration":0.09375,"midi":77,"time":446.8125,"velocity":0.3937007874015748},{"duration":0.09375,"midi":58,"time":446.8125,"velocity":0.3937007874015748},{"duration":0.09375,"midi":70,"time":446.8125,"velocity":0.3937007874015748},{"duration":0.09375,"midi":46,"time":446.8125,"velocity":0.3937007874015748},{"duration":0.09375,"midi":37,"time":446.8125,"velocity":0.3937007874015748},{"duration":0.09375,"midi":65,"time":446.8125,"velocity":0.3937007874015748},{"duration":0.09375,"midi":34,"time":446.8125,"velocity":0.3937007874015748},{"duration":0.09375,"midi":25,"time":446.8125,"velocity":0.3937007874015748},{"duration":0.09375,"midi":82,"time":446.8125,"velocity":0.3937007874015748},{"duration":0.09375,"midi":29,"time":446.8125,"velocity":0.3937007874015748},{"duration":0.09375,"midi":41,"time":446.8125,"velocity":0.3937007874015748},{"duration":0.09375,"midi":49,"time":447,"velocity":0.3937007874015748},{"duration":0.09375,"midi":58,"time":447,"velocity":0.3937007874015748},{"duration":0.09375,"midi":37,"time":447,"velocity":0.3937007874015748},{"duration":0.09375,"midi":73,"time":447,"velocity":0.3937007874015748},{"duration":0.09375,"midi":25,"time":447,"velocity":0.3937007874015748},{"duration":0.09375,"midi":46,"time":447,"velocity":0.3937007874015748},{"duration":0.09375,"midi":61,"time":447,"velocity":0.3937007874015748},{"duration":0.09375,"midi":41,"time":447,"velocity":0.3937007874015748},{"duration":0.09375,"midi":53,"time":447,"velocity":0.3937007874015748},{"duration":0.09375,"midi":70,"time":447,"velocity":0.3937007874015748},{"duration":0.09375,"midi":85,"time":447,"velocity":0.3937007874015748},{"duration":0.09375,"midi":29,"time":447,"velocity":0.3937007874015748},{"duration":0.09375,"midi":82,"time":447,"velocity":0.3937007874015748},{"duration":0.09375,"midi":89,"time":447,"velocity":0.3937007874015748},{"duration":0.09375,"midi":34,"time":447,"velocity":0.3937007874015748},{"duration":0.09375,"midi":94,"time":447,"velocity":0.3937007874015748},{"duration":0.09375,"midi":77,"time":447,"velocity":0.3937007874015748},{"duration":0.09375,"midi":65,"time":447,"velocity":0.3937007874015748},{"duration":0.09375,"midi":73,"time":447.1875,"velocity":0.3937007874015748},{"duration":0.09375,"midi":70,"time":447.1875,"velocity":0.3937007874015748},{"duration":0.09375,"midi":85,"time":447.1875,"velocity":0.3937007874015748},{"duration":0.09375,"midi":65,"time":447.1875,"velocity":0.3937007874015748},{"duration":0.09375,"midi":25,"time":447.1875,"velocity":0.3937007874015748},{"duration":0.09375,"midi":77,"time":447.1875,"velocity":0.3937007874015748},{"duration":0.09375,"midi":49,"time":447.1875,"velocity":0.3937007874015748},{"duration":0.09375,"midi":61,"time":447.1875,"velocity":0.3937007874015748},{"duration":0.09375,"midi":94,"time":447.1875,"velocity":0.3937007874015748},{"duration":0.09375,"midi":89,"time":447.1875,"velocity":0.3937007874015748},{"duration":0.09375,"midi":82,"time":447.1875,"velocity":0.3937007874015748},{"duration":0.09375,"midi":58,"time":447.1875,"velocity":0.3937007874015748},{"duration":0.09375,"midi":37,"time":447.1875,"velocity":0.3937007874015748},{"duration":0.09375,"midi":29,"time":447.1875,"velocity":0.3937007874015748},{"duration":0.09375,"midi":53,"time":447.1875,"velocity":0.3937007874015748},{"duration":0.09375,"midi":34,"time":447.1875,"velocity":0.3937007874015748},{"duration":0.09375,"midi":41,"time":447.1875,"velocity":0.3937007874015748},{"duration":0.09375,"midi":46,"time":447.1875,"velocity":0.3937007874015748},{"duration":0.09375,"midi":58,"time":447.375,"velocity":0.3937007874015748},{"duration":0.09375,"midi":41,"time":447.375,"velocity":0.3937007874015748},{"duration":0.09375,"midi":25,"time":447.375,"velocity":0.3937007874015748},{"duration":0.09375,"midi":34,"time":447.375,"velocity":0.3937007874015748},{"duration":0.09375,"midi":94,"time":447.375,"velocity":0.3937007874015748},{"duration":0.09375,"midi":70,"time":447.375,"velocity":0.3937007874015748},{"duration":0.09375,"midi":61,"time":447.375,"velocity":0.3937007874015748},{"duration":0.09375,"midi":73,"time":447.375,"velocity":0.3937007874015748},{"duration":0.09375,"midi":89,"time":447.375,"velocity":0.3937007874015748},{"duration":0.09375,"midi":53,"time":447.375,"velocity":0.3937007874015748},{"duration":0.09375,"midi":37,"time":447.375,"velocity":0.3937007874015748},{"duration":0.09375,"midi":29,"time":447.375,"velocity":0.3937007874015748},{"duration":0.09375,"midi":65,"time":447.375,"velocity":0.3937007874015748},{"duration":0.09375,"midi":77,"time":447.375,"velocity":0.3937007874015748},{"duration":0.09375,"midi":85,"time":447.375,"velocity":0.3937007874015748},{"duration":0.09375,"midi":46,"time":447.375,"velocity":0.3937007874015748},{"duration":0.09375,"midi":49,"time":447.375,"velocity":0.3937007874015748},{"duration":0.09375,"midi":82,"time":447.375,"velocity":0.3937007874015748},{"duration":0.09375,"midi":89,"time":447.5625,"velocity":0.3937007874015748},{"duration":0.09375,"midi":29,"time":447.5625,"velocity":0.3937007874015748},{"duration":0.09375,"midi":49,"time":447.5625,"velocity":0.3937007874015748},{"duration":0.09375,"midi":25,"time":447.5625,"velocity":0.3937007874015748},{"duration":0.09375,"midi":46,"time":447.5625,"velocity":0.3937007874015748},{"duration":0.09375,"midi":61,"time":447.5625,"velocity":0.3937007874015748},{"duration":0.09375,"midi":85,"time":447.5625,"velocity":0.3937007874015748},{"duration":0.09375,"midi":34,"time":447.5625,"velocity":0.3937007874015748},{"duration":0.09375,"midi":53,"time":447.5625,"velocity":0.3937007874015748},{"duration":0.09375,"midi":58,"time":447.5625,"velocity":0.3937007874015748},{"duration":0.09375,"midi":37,"time":447.5625,"velocity":0.3937007874015748},{"duration":0.09375,"midi":94,"time":447.5625,"velocity":0.3937007874015748},{"duration":0.09375,"midi":73,"time":447.5625,"velocity":0.3937007874015748},{"duration":0.09375,"midi":70,"time":447.5625,"velocity":0.3937007874015748},{"duration":0.09375,"midi":82,"time":447.5625,"velocity":0.3937007874015748},{"duration":0.09375,"midi":41,"time":447.5625,"velocity":0.3937007874015748},{"duration":0.09375,"midi":77,"time":447.5625,"velocity":0.3937007874015748},{"duration":0.09375,"midi":65,"time":447.5625,"velocity":0.3937007874015748},{"duration":0.09375,"midi":65,"time":447.75,"velocity":0.3937007874015748},{"duration":0.09375,"midi":61,"time":447.75,"velocity":0.3937007874015748},{"duration":0.09375,"midi":25,"time":447.75,"velocity":0.3937007874015748},{"duration":0.09375,"midi":53,"time":447.75,"velocity":0.3937007874015748},{"duration":0.09375,"midi":49,"time":447.75,"velocity":0.3937007874015748},{"duration":0.09375,"midi":70,"time":447.75,"velocity":0.3937007874015748},{"duration":0.09375,"midi":34,"time":447.75,"velocity":0.3937007874015748},{"duration":0.09375,"midi":85,"time":447.75,"velocity":0.3937007874015748},{"duration":0.09375,"midi":46,"time":447.75,"velocity":0.3937007874015748},{"duration":0.09375,"midi":89,"time":447.75,"velocity":0.3937007874015748},{"duration":0.09375,"midi":73,"time":447.75,"velocity":0.3937007874015748},{"duration":0.09375,"midi":29,"time":447.75,"velocity":0.3937007874015748},{"duration":0.09375,"midi":94,"time":447.75,"velocity":0.3937007874015748},{"duration":0.09375,"midi":41,"time":447.75,"velocity":0.3937007874015748},{"duration":0.09375,"midi":77,"time":447.75,"velocity":0.3937007874015748},{"duration":0.09375,"midi":82,"time":447.75,"velocity":0.3937007874015748},{"duration":0.09375,"midi":37,"time":447.75,"velocity":0.3937007874015748},{"duration":0.09375,"midi":58,"time":447.75,"velocity":0.3937007874015748},{"duration":0.09375,"midi":70,"time":447.9375,"velocity":0.3937007874015748},{"duration":0.09375,"midi":53,"time":447.9375,"velocity":0.3937007874015748},{"duration":0.09375,"midi":58,"time":447.9375,"velocity":0.3937007874015748},{"duration":0.09375,"midi":77,"time":447.9375,"velocity":0.3937007874015748},{"duration":0.09375,"midi":94,"time":447.9375,"velocity":0.3937007874015748},{"duration":0.09375,"midi":82,"time":447.9375,"velocity":0.3937007874015748},{"duration":0.09375,"midi":61,"time":447.9375,"velocity":0.3937007874015748},{"duration":0.09375,"midi":49,"time":447.9375,"velocity":0.3937007874015748},{"duration":0.09375,"midi":29,"time":447.9375,"velocity":0.3937007874015748},{"duration":0.09375,"midi":41,"time":447.9375,"velocity":0.3937007874015748},{"duration":0.09375,"midi":89,"time":447.9375,"velocity":0.3937007874015748},{"duration":0.09375,"midi":34,"time":447.9375,"velocity":0.3937007874015748},{"duration":0.09375,"midi":25,"time":447.9375,"velocity":0.3937007874015748},{"duration":0.09375,"midi":65,"time":447.9375,"velocity":0.3937007874015748},{"duration":0.09375,"midi":73,"time":447.9375,"velocity":0.3937007874015748},{"duration":0.09375,"midi":85,"time":447.9375,"velocity":0.3937007874015748},{"duration":0.09375,"midi":37,"time":447.9375,"velocity":0.3937007874015748},{"duration":0.09375,"midi":46,"time":447.9375,"velocity":0.3937007874015748},{"duration":0.09375,"midi":46,"time":448.125,"velocity":0.3937007874015748},{"duration":0.09375,"midi":61,"time":448.125,"velocity":0.3937007874015748},{"duration":0.09375,"midi":94,"time":448.125,"velocity":0.3937007874015748},{"duration":0.09375,"midi":73,"time":448.125,"velocity":0.3937007874015748},{"duration":0.09375,"midi":89,"time":448.125,"velocity":0.3937007874015748},{"duration":0.09375,"midi":70,"time":448.125,"velocity":0.3937007874015748},{"duration":0.09375,"midi":58,"time":448.125,"velocity":0.3937007874015748},{"duration":0.09375,"midi":85,"time":448.125,"velocity":0.3937007874015748},{"duration":0.09375,"midi":77,"time":448.125,"velocity":0.3937007874015748},{"duration":0.09375,"midi":65,"time":448.125,"velocity":0.3937007874015748},{"duration":0.09375,"midi":41,"time":448.125,"velocity":0.3937007874015748},{"duration":0.09375,"midi":34,"time":448.125,"velocity":0.3937007874015748},{"duration":0.09375,"midi":49,"time":448.125,"velocity":0.3937007874015748},{"duration":0.09375,"midi":29,"time":448.125,"velocity":0.3937007874015748},{"duration":0.09375,"midi":82,"time":448.125,"velocity":0.3937007874015748},{"duration":0.09375,"midi":53,"time":448.125,"velocity":0.3937007874015748},{"duration":0.09375,"midi":25,"time":448.125,"velocity":0.3937007874015748},{"duration":0.09375,"midi":37,"time":448.125,"velocity":0.3937007874015748},{"duration":0.09375,"midi":49,"time":448.3125,"velocity":0.3937007874015748},{"duration":0.09375,"midi":46,"time":448.3125,"velocity":0.3937007874015748},{"duration":0.09375,"midi":61,"time":448.3125,"velocity":0.3937007874015748},{"duration":0.09375,"midi":77,"time":448.3125,"velocity":0.3937007874015748},{"duration":0.09375,"midi":53,"time":448.3125,"velocity":0.3937007874015748},{"duration":0.09375,"midi":29,"time":448.3125,"velocity":0.3937007874015748},{"duration":0.09375,"midi":89,"time":448.3125,"velocity":0.3937007874015748},{"duration":0.09375,"midi":65,"time":448.3125,"velocity":0.3937007874015748},{"duration":0.09375,"midi":70,"time":448.3125,"velocity":0.3937007874015748},{"duration":0.09375,"midi":58,"time":448.3125,"velocity":0.3937007874015748},{"duration":0.09375,"midi":37,"time":448.3125,"velocity":0.3937007874015748},{"duration":0.09375,"midi":41,"time":448.3125,"velocity":0.3937007874015748},{"duration":0.09375,"midi":73,"time":448.3125,"velocity":0.3937007874015748},{"duration":0.09375,"midi":94,"time":448.3125,"velocity":0.3937007874015748},{"duration":0.09375,"midi":25,"time":448.3125,"velocity":0.3937007874015748},{"duration":0.09375,"midi":34,"time":448.3125,"velocity":0.3937007874015748},{"duration":0.09375,"midi":82,"time":448.3125,"velocity":0.3937007874015748},{"duration":0.09375,"midi":85,"time":448.3125,"velocity":0.3937007874015748},{"duration":0.09375,"midi":65,"time":448.5,"velocity":0.3937007874015748},{"duration":0.09375,"midi":34,"time":448.5,"velocity":0.3937007874015748},{"duration":0.09375,"midi":61,"time":448.5,"velocity":0.3937007874015748},{"duration":0.09375,"midi":37,"time":448.5,"velocity":0.3937007874015748},{"duration":0.09375,"midi":53,"time":448.5,"velocity":0.3937007874015748},{"duration":0.09375,"midi":70,"time":448.5,"velocity":0.3937007874015748},{"duration":0.09375,"midi":46,"time":448.5,"velocity":0.3937007874015748},{"duration":0.09375,"midi":29,"time":448.5,"velocity":0.3937007874015748},{"duration":0.09375,"midi":89,"time":448.5,"velocity":0.3937007874015748},{"duration":0.09375,"midi":85,"time":448.5,"velocity":0.3937007874015748},{"duration":0.09375,"midi":25,"time":448.5,"velocity":0.3937007874015748},{"duration":0.09375,"midi":49,"time":448.5,"velocity":0.3937007874015748},{"duration":0.09375,"midi":73,"time":448.5,"velocity":0.3937007874015748},{"duration":0.09375,"midi":58,"time":448.5,"velocity":0.3937007874015748},{"duration":0.09375,"midi":82,"time":448.5,"velocity":0.3937007874015748},{"duration":0.09375,"midi":77,"time":448.5,"velocity":0.3937007874015748},{"duration":0.09375,"midi":94,"time":448.5,"velocity":0.3937007874015748},{"duration":0.09375,"midi":41,"time":448.5,"velocity":0.3937007874015748},{"duration":0.09375,"midi":73,"time":448.6875,"velocity":0.3937007874015748},{"duration":0.09375,"midi":70,"time":448.6875,"velocity":0.3937007874015748},{"duration":0.09375,"midi":77,"time":448.6875,"velocity":0.3937007874015748},{"duration":0.09375,"midi":94,"time":448.6875,"velocity":0.3937007874015748},{"duration":0.09375,"midi":82,"time":448.6875,"velocity":0.3937007874015748},{"duration":0.09375,"midi":89,"time":448.6875,"velocity":0.3937007874015748},{"duration":0.09375,"midi":65,"time":448.6875,"velocity":0.3937007874015748},{"duration":0.09375,"midi":61,"time":448.6875,"velocity":0.3937007874015748},{"duration":0.09375,"midi":25,"time":448.6875,"velocity":0.3937007874015748},{"duration":0.09375,"midi":85,"time":448.6875,"velocity":0.3937007874015748},{"duration":0.09375,"midi":34,"time":448.6875,"velocity":0.3937007874015748},{"duration":0.09375,"midi":29,"time":448.6875,"velocity":0.3937007874015748},{"duration":0.09375,"midi":49,"time":448.6875,"velocity":0.3937007874015748},{"duration":0.09375,"midi":41,"time":448.6875,"velocity":0.3937007874015748},{"duration":0.09375,"midi":53,"time":448.6875,"velocity":0.3937007874015748},{"duration":0.09375,"midi":58,"time":448.6875,"velocity":0.3937007874015748},{"duration":0.09375,"midi":37,"time":448.6875,"velocity":0.3937007874015748},{"duration":0.09375,"midi":46,"time":448.6875,"velocity":0.3937007874015748},{"duration":0.09375,"midi":70,"time":448.875,"velocity":0.3937007874015748},{"duration":0.09375,"midi":82,"time":448.875,"velocity":0.3937007874015748},{"duration":0.09375,"midi":61,"time":448.875,"velocity":0.3937007874015748},{"duration":0.09375,"midi":34,"time":448.875,"velocity":0.3937007874015748},{"duration":0.09375,"midi":77,"time":448.875,"velocity":0.3937007874015748},{"duration":0.09375,"midi":65,"time":448.875,"velocity":0.3937007874015748},{"duration":0.09375,"midi":73,"time":448.875,"velocity":0.3937007874015748},{"duration":0.09375,"midi":49,"time":448.875,"velocity":0.3937007874015748},{"duration":0.09375,"midi":25,"time":448.875,"velocity":0.3937007874015748},{"duration":0.09375,"midi":46,"time":448.875,"velocity":0.3937007874015748},{"duration":0.09375,"midi":41,"time":448.875,"velocity":0.3937007874015748},{"duration":0.09375,"midi":58,"time":448.875,"velocity":0.3937007874015748},{"duration":0.09375,"midi":29,"time":448.875,"velocity":0.3937007874015748},{"duration":0.09375,"midi":85,"time":448.875,"velocity":0.3937007874015748},{"duration":0.09375,"midi":53,"time":448.875,"velocity":0.3937007874015748},{"duration":0.09375,"midi":94,"time":448.875,"velocity":0.3937007874015748},{"duration":0.09375,"midi":89,"time":448.875,"velocity":0.3937007874015748},{"duration":0.09375,"midi":37,"time":448.875,"velocity":0.3937007874015748},{"duration":0.09375,"midi":89,"time":449.0625,"velocity":0.3937007874015748},{"duration":0.09375,"midi":34,"time":449.0625,"velocity":0.3937007874015748},{"duration":0.09375,"midi":70,"time":449.0625,"velocity":0.3937007874015748},{"duration":0.09375,"midi":29,"time":449.0625,"velocity":0.3937007874015748},{"duration":0.09375,"midi":25,"time":449.0625,"velocity":0.3937007874015748},{"duration":0.09375,"midi":58,"time":449.0625,"velocity":0.3937007874015748},{"duration":0.09375,"midi":85,"time":449.0625,"velocity":0.3937007874015748},{"duration":0.09375,"midi":37,"time":449.0625,"velocity":0.3937007874015748},{"duration":0.09375,"midi":61,"time":449.0625,"velocity":0.3937007874015748},{"duration":0.09375,"midi":41,"time":449.0625,"velocity":0.3937007874015748},{"duration":0.09375,"midi":94,"time":449.0625,"velocity":0.3937007874015748},{"duration":0.09375,"midi":73,"time":449.0625,"velocity":0.3937007874015748},{"duration":0.09375,"midi":65,"time":449.0625,"velocity":0.3937007874015748},{"duration":0.09375,"midi":49,"time":449.0625,"velocity":0.3937007874015748},{"duration":0.09375,"midi":53,"time":449.0625,"velocity":0.3937007874015748},{"duration":0.09375,"midi":77,"time":449.0625,"velocity":0.3937007874015748},{"duration":0.09375,"midi":46,"time":449.0625,"velocity":0.3937007874015748},{"duration":0.09375,"midi":82,"time":449.0625,"velocity":0.3937007874015748},{"duration":0.09375,"midi":61,"time":449.25,"velocity":0.3937007874015748},{"duration":0.09375,"midi":41,"time":449.25,"velocity":0.3937007874015748},{"duration":0.09375,"midi":34,"time":449.25,"velocity":0.3937007874015748},{"duration":0.09375,"midi":58,"time":449.25,"velocity":0.3937007874015748},{"duration":0.09375,"midi":89,"time":449.25,"velocity":0.3937007874015748},{"duration":0.09375,"midi":53,"time":449.25,"velocity":0.3937007874015748},{"duration":0.09375,"midi":94,"time":449.25,"velocity":0.3937007874015748},{"duration":0.09375,"midi":46,"time":449.25,"velocity":0.3937007874015748},{"duration":0.09375,"midi":82,"time":449.25,"velocity":0.3937007874015748},{"duration":0.09375,"midi":73,"time":449.25,"velocity":0.3937007874015748},{"duration":0.09375,"midi":29,"time":449.25,"velocity":0.3937007874015748},{"duration":0.09375,"midi":70,"time":449.25,"velocity":0.3937007874015748},{"duration":0.09375,"midi":85,"time":449.25,"velocity":0.3937007874015748},{"duration":0.09375,"midi":65,"time":449.25,"velocity":0.3937007874015748},{"duration":0.09375,"midi":77,"time":449.25,"velocity":0.3937007874015748},{"duration":0.09375,"midi":25,"time":449.25,"velocity":0.3937007874015748},{"duration":0.09375,"midi":49,"time":449.25,"velocity":0.3937007874015748},{"duration":0.09375,"midi":37,"time":449.25,"velocity":0.3937007874015748},{"duration":0.09375,"midi":34,"time":449.4375,"velocity":0.3937007874015748},{"duration":0.09375,"midi":77,"time":449.4375,"velocity":0.3937007874015748},{"duration":0.09375,"midi":89,"time":449.4375,"velocity":0.3937007874015748},{"duration":0.09375,"midi":41,"time":449.4375,"velocity":0.3937007874015748},{"duration":0.09375,"midi":85,"time":449.4375,"velocity":0.3937007874015748},{"duration":0.09375,"midi":82,"time":449.4375,"velocity":0.3937007874015748},{"duration":0.09375,"midi":70,"time":449.4375,"velocity":0.3937007874015748},{"duration":0.09375,"midi":53,"time":449.4375,"velocity":0.3937007874015748},{"duration":0.09375,"midi":58,"time":449.4375,"velocity":0.3937007874015748},{"duration":0.09375,"midi":25,"time":449.4375,"velocity":0.3937007874015748},{"duration":0.09375,"midi":29,"time":449.4375,"velocity":0.3937007874015748},{"duration":0.09375,"midi":65,"time":449.4375,"velocity":0.3937007874015748},{"duration":0.09375,"midi":73,"time":449.4375,"velocity":0.3937007874015748},{"duration":0.09375,"midi":49,"time":449.4375,"velocity":0.3937007874015748},{"duration":0.09375,"midi":37,"time":449.4375,"velocity":0.3937007874015748},{"duration":0.09375,"midi":61,"time":449.4375,"velocity":0.3937007874015748},{"duration":0.09375,"midi":94,"time":449.4375,"velocity":0.3937007874015748},{"duration":0.09375,"midi":46,"time":449.4375,"velocity":0.3937007874015748},{"duration":0.09375,"midi":73,"time":449.625,"velocity":0.3937007874015748},{"duration":0.09375,"midi":46,"time":449.625,"velocity":0.3937007874015748},{"duration":0.09375,"midi":29,"time":449.625,"velocity":0.3937007874015748},{"duration":0.09375,"midi":25,"time":449.625,"velocity":0.3937007874015748},{"duration":0.09375,"midi":34,"time":449.625,"velocity":0.3937007874015748},{"duration":0.09375,"midi":58,"time":449.625,"velocity":0.3937007874015748},{"duration":0.09375,"midi":53,"time":449.625,"velocity":0.3937007874015748},{"duration":0.09375,"midi":82,"time":449.625,"velocity":0.3937007874015748},{"duration":0.09375,"midi":89,"time":449.625,"velocity":0.3937007874015748},{"duration":0.09375,"midi":49,"time":449.625,"velocity":0.3937007874015748},{"duration":0.09375,"midi":70,"time":449.625,"velocity":0.3937007874015748},{"duration":0.09375,"midi":85,"time":449.625,"velocity":0.3937007874015748},{"duration":0.09375,"midi":37,"time":449.625,"velocity":0.3937007874015748},{"duration":0.09375,"midi":65,"time":449.625,"velocity":0.3937007874015748},{"duration":0.09375,"midi":77,"time":449.625,"velocity":0.3937007874015748},{"duration":0.09375,"midi":61,"time":449.625,"velocity":0.3937007874015748},{"duration":0.09375,"midi":94,"time":449.625,"velocity":0.3937007874015748},{"duration":0.09375,"midi":41,"time":449.625,"velocity":0.3937007874015748},{"duration":0.09375,"midi":37,"time":449.8125,"velocity":0.3937007874015748},{"duration":0.09375,"midi":41,"time":449.8125,"velocity":0.3937007874015748},{"duration":0.09375,"midi":73,"time":449.8125,"velocity":0.3937007874015748},{"duration":0.09375,"midi":29,"time":449.8125,"velocity":0.3937007874015748},{"duration":0.09375,"midi":65,"time":449.8125,"velocity":0.3937007874015748},{"duration":0.09375,"midi":53,"time":449.8125,"velocity":0.3937007874015748},{"duration":0.09375,"midi":77,"time":449.8125,"velocity":0.3937007874015748},{"duration":0.09375,"midi":58,"time":449.8125,"velocity":0.3937007874015748},{"duration":0.09375,"midi":46,"time":449.8125,"velocity":0.3937007874015748},{"duration":0.09375,"midi":89,"time":449.8125,"velocity":0.3937007874015748},{"duration":0.09375,"midi":82,"time":449.8125,"velocity":0.3937007874015748},{"duration":0.09375,"midi":34,"time":449.8125,"velocity":0.3937007874015748},{"duration":0.09375,"midi":25,"time":449.8125,"velocity":0.3937007874015748},{"duration":0.09375,"midi":94,"time":449.8125,"velocity":0.3937007874015748},{"duration":0.09375,"midi":49,"time":449.8125,"velocity":0.3937007874015748},{"duration":0.09375,"midi":70,"time":449.8125,"velocity":0.3937007874015748},{"duration":0.09375,"midi":85,"time":449.8125,"velocity":0.3937007874015748},{"duration":0.09375,"midi":61,"time":449.8125,"velocity":0.3937007874015748},{"duration":0.09375,"midi":29,"time":450,"velocity":0.3937007874015748},{"duration":0.09375,"midi":77,"time":450,"velocity":0.3937007874015748},{"duration":0.09375,"midi":70,"time":450,"velocity":0.3937007874015748},{"duration":0.09375,"midi":49,"time":450,"velocity":0.3937007874015748},{"duration":0.09375,"midi":37,"time":450,"velocity":0.3937007874015748},{"duration":0.09375,"midi":61,"time":450,"velocity":0.3937007874015748},{"duration":0.09375,"midi":25,"time":450,"velocity":0.3937007874015748},{"duration":0.09375,"midi":46,"time":450,"velocity":0.3937007874015748},{"duration":0.09375,"midi":65,"time":450,"velocity":0.3937007874015748},{"duration":0.09375,"midi":94,"time":450,"velocity":0.3937007874015748},{"duration":0.09375,"midi":85,"time":450,"velocity":0.3937007874015748},{"duration":0.09375,"midi":82,"time":450,"velocity":0.3937007874015748},{"duration":0.09375,"midi":89,"time":450,"velocity":0.3937007874015748},{"duration":0.09375,"midi":34,"time":450,"velocity":0.3937007874015748},{"duration":0.09375,"midi":41,"time":450,"velocity":0.3937007874015748},{"duration":0.09375,"midi":53,"time":450,"velocity":0.3937007874015748},{"duration":0.09375,"midi":73,"time":450,"velocity":0.3937007874015748},{"duration":0.09375,"midi":58,"time":450,"velocity":0.3937007874015748},{"duration":0.09375,"midi":94,"time":450.1875,"velocity":0.3937007874015748},{"duration":0.09375,"midi":82,"time":450.1875,"velocity":0.3937007874015748},{"duration":0.09375,"midi":85,"time":450.1875,"velocity":0.3937007874015748},{"duration":0.09375,"midi":77,"time":450.1875,"velocity":0.3937007874015748},{"duration":0.09375,"midi":41,"time":450.1875,"velocity":0.3937007874015748},{"duration":0.09375,"midi":46,"time":450.1875,"velocity":0.3937007874015748},{"duration":0.09375,"midi":58,"time":450.1875,"velocity":0.3937007874015748},{"duration":0.09375,"midi":37,"time":450.1875,"velocity":0.3937007874015748},{"duration":0.09375,"midi":49,"time":450.1875,"velocity":0.3937007874015748},{"duration":0.09375,"midi":29,"time":450.1875,"velocity":0.3937007874015748},{"duration":0.09375,"midi":34,"time":450.1875,"velocity":0.3937007874015748},{"duration":0.09375,"midi":73,"time":450.1875,"velocity":0.3937007874015748},{"duration":0.09375,"midi":25,"time":450.1875,"velocity":0.3937007874015748},{"duration":0.09375,"midi":89,"time":450.1875,"velocity":0.3937007874015748},{"duration":0.09375,"midi":53,"time":450.1875,"velocity":0.3937007874015748},{"duration":0.09375,"midi":65,"time":450.1875,"velocity":0.3937007874015748},{"duration":0.09375,"midi":61,"time":450.1875,"velocity":0.3937007874015748},{"duration":0.09375,"midi":70,"time":450.1875,"velocity":0.3937007874015748},{"duration":0.09375,"midi":58,"time":450.375,"velocity":0.3937007874015748},{"duration":0.09375,"midi":70,"time":450.375,"velocity":0.3937007874015748},{"duration":0.09375,"midi":37,"time":450.375,"velocity":0.3937007874015748},{"duration":0.09375,"midi":89,"time":450.375,"velocity":0.3937007874015748},{"duration":0.09375,"midi":34,"time":450.375,"velocity":0.3937007874015748},{"duration":0.09375,"midi":73,"time":450.375,"velocity":0.3937007874015748},{"duration":0.09375,"midi":49,"time":450.375,"velocity":0.3937007874015748},{"duration":0.09375,"midi":65,"time":450.375,"velocity":0.3937007874015748},{"duration":0.09375,"midi":25,"time":450.375,"velocity":0.3937007874015748},{"duration":0.09375,"midi":41,"time":450.375,"velocity":0.3937007874015748},{"duration":0.09375,"midi":77,"time":450.375,"velocity":0.3937007874015748},{"duration":0.09375,"midi":61,"time":450.375,"velocity":0.3937007874015748},{"duration":0.09375,"midi":85,"time":450.375,"velocity":0.3937007874015748},{"duration":0.09375,"midi":29,"time":450.375,"velocity":0.3937007874015748},{"duration":0.09375,"midi":46,"time":450.375,"velocity":0.3937007874015748},{"duration":0.09375,"midi":82,"time":450.375,"velocity":0.3937007874015748},{"duration":0.09375,"midi":53,"time":450.375,"velocity":0.3937007874015748},{"duration":0.09375,"midi":94,"time":450.375,"velocity":0.3937007874015748},{"duration":0.09375,"midi":65,"time":450.5625,"velocity":0.3937007874015748},{"duration":0.09375,"midi":77,"time":450.5625,"velocity":0.3937007874015748},{"duration":0.09375,"midi":46,"time":450.5625,"velocity":0.3937007874015748},{"duration":0.09375,"midi":29,"time":450.5625,"velocity":0.3937007874015748},{"duration":0.09375,"midi":73,"time":450.5625,"velocity":0.3937007874015748},{"duration":0.09375,"midi":82,"time":450.5625,"velocity":0.3937007874015748},{"duration":0.09375,"midi":58,"time":450.5625,"velocity":0.3937007874015748},{"duration":0.09375,"midi":85,"time":450.5625,"velocity":0.3937007874015748},{"duration":0.09375,"midi":89,"time":450.5625,"velocity":0.3937007874015748},{"duration":0.09375,"midi":94,"time":450.5625,"velocity":0.3937007874015748},{"duration":0.09375,"midi":70,"time":450.5625,"velocity":0.3937007874015748},{"duration":0.09375,"midi":61,"time":450.5625,"velocity":0.3937007874015748},{"duration":0.09375,"midi":25,"time":450.5625,"velocity":0.3937007874015748},{"duration":0.09375,"midi":49,"time":450.5625,"velocity":0.3937007874015748},{"duration":0.09375,"midi":34,"time":450.5625,"velocity":0.3937007874015748},{"duration":0.09375,"midi":53,"time":450.5625,"velocity":0.3937007874015748},{"duration":0.09375,"midi":41,"time":450.5625,"velocity":0.3937007874015748},{"duration":0.09375,"midi":37,"time":450.5625,"velocity":0.3937007874015748},{"duration":0.09375,"midi":25,"time":450.75,"velocity":0.3937007874015748},{"duration":0.09375,"midi":46,"time":450.75,"velocity":0.3937007874015748},{"duration":0.09375,"midi":61,"time":450.75,"velocity":0.3937007874015748},{"duration":0.09375,"midi":49,"time":450.75,"velocity":0.3937007874015748},{"duration":0.09375,"midi":41,"time":450.75,"velocity":0.3937007874015748},{"duration":0.09375,"midi":77,"time":450.75,"velocity":0.3937007874015748},{"duration":0.09375,"midi":37,"time":450.75,"velocity":0.3937007874015748},{"duration":0.09375,"midi":85,"time":450.75,"velocity":0.3937007874015748},{"duration":0.09375,"midi":89,"time":450.75,"velocity":0.3937007874015748},{"duration":0.09375,"midi":58,"time":450.75,"velocity":0.3937007874015748},{"duration":0.09375,"midi":65,"time":450.75,"velocity":0.3937007874015748},{"duration":0.09375,"midi":82,"time":450.75,"velocity":0.3937007874015748},{"duration":0.09375,"midi":34,"time":450.75,"velocity":0.3937007874015748},{"duration":0.09375,"midi":29,"time":450.75,"velocity":0.3937007874015748},{"duration":0.09375,"midi":73,"time":450.75,"velocity":0.3937007874015748},{"duration":0.09375,"midi":53,"time":450.75,"velocity":0.3937007874015748},{"duration":0.09375,"midi":94,"time":450.75,"velocity":0.3937007874015748},{"duration":0.09375,"midi":70,"time":450.75,"velocity":0.3937007874015748},{"duration":0.09375,"midi":37,"time":450.9375,"velocity":0.3937007874015748},{"duration":0.09375,"midi":29,"time":450.9375,"velocity":0.3937007874015748},{"duration":0.09375,"midi":77,"time":450.9375,"velocity":0.3937007874015748},{"duration":0.09375,"midi":49,"time":450.9375,"velocity":0.3937007874015748},{"duration":0.09375,"midi":65,"time":450.9375,"velocity":0.3937007874015748},{"duration":0.09375,"midi":53,"time":450.9375,"velocity":0.3937007874015748},{"duration":0.09375,"midi":70,"time":450.9375,"velocity":0.3937007874015748},{"duration":0.09375,"midi":85,"time":450.9375,"velocity":0.3937007874015748},{"duration":0.09375,"midi":89,"time":450.9375,"velocity":0.3937007874015748},{"duration":0.09375,"midi":41,"time":450.9375,"velocity":0.3937007874015748},{"duration":0.09375,"midi":94,"time":450.9375,"velocity":0.3937007874015748},{"duration":0.09375,"midi":34,"time":450.9375,"velocity":0.3937007874015748},{"duration":0.09375,"midi":73,"time":450.9375,"velocity":0.3937007874015748},{"duration":0.09375,"midi":25,"time":450.9375,"velocity":0.3937007874015748},{"duration":0.09375,"midi":58,"time":450.9375,"velocity":0.3937007874015748},{"duration":0.09375,"midi":46,"time":450.9375,"velocity":0.3937007874015748},{"duration":0.09375,"midi":61,"time":450.9375,"velocity":0.3937007874015748},{"duration":0.09375,"midi":82,"time":450.9375,"velocity":0.3937007874015748},{"duration":0.09375,"midi":58,"time":451.125,"velocity":0.3937007874015748},{"duration":0.09375,"midi":25,"time":451.125,"velocity":0.3937007874015748},{"duration":0.09375,"midi":70,"time":451.125,"velocity":0.3937007874015748},{"duration":0.09375,"midi":37,"time":451.125,"velocity":0.3937007874015748},{"duration":0.09375,"midi":41,"time":451.125,"velocity":0.3937007874015748},{"duration":0.09375,"midi":82,"time":451.125,"velocity":0.3937007874015748},{"duration":0.09375,"midi":77,"time":451.125,"velocity":0.3937007874015748},{"duration":0.09375,"midi":53,"time":451.125,"velocity":0.3937007874015748},{"duration":0.09375,"midi":94,"time":451.125,"velocity":0.3937007874015748},{"duration":0.09375,"midi":89,"time":451.125,"velocity":0.3937007874015748},{"duration":0.09375,"midi":73,"time":451.125,"velocity":0.3937007874015748},{"duration":0.09375,"midi":34,"time":451.125,"velocity":0.3937007874015748},{"duration":0.09375,"midi":29,"time":451.125,"velocity":0.3937007874015748},{"duration":0.09375,"midi":65,"time":451.125,"velocity":0.3937007874015748},{"duration":0.09375,"midi":49,"time":451.125,"velocity":0.3937007874015748},{"duration":0.09375,"midi":46,"time":451.125,"velocity":0.3937007874015748},{"duration":0.09375,"midi":61,"time":451.125,"velocity":0.3937007874015748},{"duration":0.09375,"midi":85,"time":451.125,"velocity":0.3937007874015748},{"duration":0.09375,"midi":58,"time":451.3125,"velocity":0.3937007874015748},{"duration":0.09375,"midi":37,"time":451.3125,"velocity":0.3937007874015748},{"duration":0.09375,"midi":53,"time":451.3125,"velocity":0.3937007874015748},{"duration":0.09375,"midi":29,"time":451.3125,"velocity":0.3937007874015748},{"duration":0.09375,"midi":34,"time":451.3125,"velocity":0.3937007874015748},{"duration":0.09375,"midi":94,"time":451.3125,"velocity":0.3937007874015748},{"duration":0.09375,"midi":85,"time":451.3125,"velocity":0.3937007874015748},{"duration":0.09375,"midi":70,"time":451.3125,"velocity":0.3937007874015748},{"duration":0.09375,"midi":25,"time":451.3125,"velocity":0.3937007874015748},{"duration":0.09375,"midi":49,"time":451.3125,"velocity":0.3937007874015748},{"duration":0.09375,"midi":77,"time":451.3125,"velocity":0.3937007874015748},{"duration":0.09375,"midi":65,"time":451.3125,"velocity":0.3937007874015748},{"duration":0.09375,"midi":73,"time":451.3125,"velocity":0.3937007874015748},{"duration":0.09375,"midi":41,"time":451.3125,"velocity":0.3937007874015748},{"duration":0.09375,"midi":46,"time":451.3125,"velocity":0.3937007874015748},{"duration":0.09375,"midi":82,"time":451.3125,"velocity":0.3937007874015748},{"duration":0.09375,"midi":61,"time":451.3125,"velocity":0.3937007874015748},{"duration":0.09375,"midi":89,"time":451.3125,"velocity":0.3937007874015748},{"duration":0.09375,"midi":53,"time":451.5,"velocity":0.3937007874015748},{"duration":0.09375,"midi":73,"time":451.5,"velocity":0.3937007874015748},{"duration":0.09375,"midi":70,"time":451.5,"velocity":0.3937007874015748},{"duration":0.09375,"midi":41,"time":451.5,"velocity":0.3937007874015748},{"duration":0.09375,"midi":61,"time":451.5,"velocity":0.3937007874015748},{"duration":0.09375,"midi":29,"time":451.5,"velocity":0.3937007874015748},{"duration":0.09375,"midi":89,"time":451.5,"velocity":0.3937007874015748},{"duration":0.09375,"midi":85,"time":451.5,"velocity":0.3937007874015748},{"duration":0.09375,"midi":94,"time":451.5,"velocity":0.3937007874015748},{"duration":0.09375,"midi":65,"time":451.5,"velocity":0.3937007874015748},{"duration":0.09375,"midi":82,"time":451.5,"velocity":0.3937007874015748},{"duration":0.09375,"midi":25,"time":451.5,"velocity":0.3937007874015748},{"duration":0.09375,"midi":49,"time":451.5,"velocity":0.3937007874015748},{"duration":0.09375,"midi":58,"time":451.5,"velocity":0.3937007874015748},{"duration":0.09375,"midi":37,"time":451.5,"velocity":0.3937007874015748},{"duration":0.09375,"midi":46,"time":451.5,"velocity":0.3937007874015748},{"duration":0.09375,"midi":34,"time":451.5,"velocity":0.3937007874015748},{"duration":0.09375,"midi":77,"time":451.5,"velocity":0.3937007874015748},{"duration":0.09375,"midi":89,"time":451.6875,"velocity":0.3937007874015748},{"duration":0.09375,"midi":82,"time":451.6875,"velocity":0.3937007874015748},{"duration":0.09375,"midi":85,"time":451.6875,"velocity":0.3937007874015748},{"duration":0.09375,"midi":49,"time":451.6875,"velocity":0.3937007874015748},{"duration":0.09375,"midi":34,"time":451.6875,"velocity":0.3937007874015748},{"duration":0.09375,"midi":46,"time":451.6875,"velocity":0.3937007874015748},{"duration":0.09375,"midi":61,"time":451.6875,"velocity":0.3937007874015748},{"duration":0.09375,"midi":77,"time":451.6875,"velocity":0.3937007874015748},{"duration":0.09375,"midi":73,"time":451.6875,"velocity":0.3937007874015748},{"duration":0.09375,"midi":41,"time":451.6875,"velocity":0.3937007874015748},{"duration":0.09375,"midi":37,"time":451.6875,"velocity":0.3937007874015748},{"duration":0.09375,"midi":25,"time":451.6875,"velocity":0.3937007874015748},{"duration":0.09375,"midi":58,"time":451.6875,"velocity":0.3937007874015748},{"duration":0.09375,"midi":70,"time":451.6875,"velocity":0.3937007874015748},{"duration":0.09375,"midi":94,"time":451.6875,"velocity":0.3937007874015748},{"duration":0.09375,"midi":53,"time":451.6875,"velocity":0.3937007874015748},{"duration":0.09375,"midi":65,"time":451.6875,"velocity":0.3937007874015748},{"duration":0.09375,"midi":29,"time":451.6875,"velocity":0.3937007874015748},{"duration":0.09375,"midi":53,"time":451.875,"velocity":0.3937007874015748},{"duration":0.09375,"midi":82,"time":451.875,"velocity":0.3937007874015748},{"duration":0.09375,"midi":46,"time":451.875,"velocity":0.3937007874015748},{"duration":0.09375,"midi":77,"time":451.875,"velocity":0.3937007874015748},{"duration":0.09375,"midi":41,"time":451.875,"velocity":0.3937007874015748},{"duration":0.09375,"midi":58,"time":451.875,"velocity":0.3937007874015748},{"duration":0.09375,"midi":73,"time":451.875,"velocity":0.3937007874015748},{"duration":0.09375,"midi":89,"time":451.875,"velocity":0.3937007874015748},{"duration":0.09375,"midi":70,"time":451.875,"velocity":0.3937007874015748},{"duration":0.09375,"midi":37,"time":451.875,"velocity":0.3937007874015748},{"duration":0.09375,"midi":85,"time":451.875,"velocity":0.3937007874015748},{"duration":0.09375,"midi":25,"time":451.875,"velocity":0.3937007874015748},{"duration":0.09375,"midi":94,"time":451.875,"velocity":0.3937007874015748},{"duration":0.09375,"midi":34,"time":451.875,"velocity":0.3937007874015748},{"duration":0.09375,"midi":49,"time":451.875,"velocity":0.3937007874015748},{"duration":0.09375,"midi":65,"time":451.875,"velocity":0.3937007874015748},{"duration":0.09375,"midi":29,"time":451.875,"velocity":0.3937007874015748},{"duration":0.09375,"midi":61,"time":451.875,"velocity":0.3937007874015748},{"duration":0.09375,"midi":25,"time":452.0625,"velocity":0.3937007874015748},{"duration":0.09375,"midi":61,"time":452.0625,"velocity":0.3937007874015748},{"duration":0.09375,"midi":41,"time":452.0625,"velocity":0.3937007874015748},{"duration":0.09375,"midi":82,"time":452.0625,"velocity":0.3937007874015748},{"duration":0.09375,"midi":37,"time":452.0625,"velocity":0.3937007874015748},{"duration":0.09375,"midi":70,"time":452.0625,"velocity":0.3937007874015748},{"duration":0.09375,"midi":89,"time":452.0625,"velocity":0.3937007874015748},{"duration":0.09375,"midi":77,"time":452.0625,"velocity":0.3937007874015748},{"duration":0.09375,"midi":29,"time":452.0625,"velocity":0.3937007874015748},{"duration":0.09375,"midi":46,"time":452.0625,"velocity":0.3937007874015748},{"duration":0.09375,"midi":94,"time":452.0625,"velocity":0.3937007874015748},{"duration":0.09375,"midi":85,"time":452.0625,"velocity":0.3937007874015748},{"duration":0.09375,"midi":73,"time":452.0625,"velocity":0.3937007874015748},{"duration":0.09375,"midi":34,"time":452.0625,"velocity":0.3937007874015748},{"duration":0.09375,"midi":49,"time":452.0625,"velocity":0.3937007874015748},{"duration":0.09375,"midi":58,"time":452.0625,"velocity":0.3937007874015748},{"duration":0.09375,"midi":65,"time":452.0625,"velocity":0.3937007874015748},{"duration":0.09375,"midi":53,"time":452.0625,"velocity":0.3937007874015748},{"duration":0.09375,"midi":53,"time":452.25,"velocity":0.3937007874015748},{"duration":0.09375,"midi":58,"time":452.25,"velocity":0.3937007874015748},{"duration":0.09375,"midi":65,"time":452.25,"velocity":0.3937007874015748},{"duration":0.09375,"midi":46,"time":452.25,"velocity":0.3937007874015748},{"duration":0.09375,"midi":29,"time":452.25,"velocity":0.3937007874015748},{"duration":0.09375,"midi":89,"time":452.25,"velocity":0.3937007874015748},{"duration":0.09375,"midi":41,"time":452.25,"velocity":0.3937007874015748},{"duration":0.09375,"midi":73,"time":452.25,"velocity":0.3937007874015748},{"duration":0.09375,"midi":77,"time":452.25,"velocity":0.3937007874015748},{"duration":0.09375,"midi":34,"time":452.25,"velocity":0.3937007874015748},{"duration":0.09375,"midi":61,"time":452.25,"velocity":0.3937007874015748},{"duration":0.09375,"midi":49,"time":452.25,"velocity":0.3937007874015748},{"duration":0.09375,"midi":25,"time":452.25,"velocity":0.3937007874015748},{"duration":0.09375,"midi":37,"time":452.25,"velocity":0.3937007874015748},{"duration":0.09375,"midi":82,"time":452.25,"velocity":0.3937007874015748},{"duration":0.09375,"midi":70,"time":452.25,"velocity":0.3937007874015748},{"duration":0.09375,"midi":85,"time":452.25,"velocity":0.3937007874015748},{"duration":0.09375,"midi":94,"time":452.25,"velocity":0.3937007874015748},{"duration":0.09375,"midi":53,"time":452.4375,"velocity":0.3937007874015748},{"duration":0.09375,"midi":41,"time":452.4375,"velocity":0.3937007874015748},{"duration":0.09375,"midi":29,"time":452.4375,"velocity":0.3937007874015748},{"duration":0.09375,"midi":94,"time":452.4375,"velocity":0.3937007874015748},{"duration":0.09375,"midi":70,"time":452.4375,"velocity":0.3937007874015748},{"duration":0.09375,"midi":89,"time":452.4375,"velocity":0.3937007874015748},{"duration":0.09375,"midi":61,"time":452.4375,"velocity":0.3937007874015748},{"duration":0.09375,"midi":34,"time":452.4375,"velocity":0.3937007874015748},{"duration":0.09375,"midi":85,"time":452.4375,"velocity":0.3937007874015748},{"duration":0.09375,"midi":65,"time":452.4375,"velocity":0.3937007874015748},{"duration":0.09375,"midi":25,"time":452.4375,"velocity":0.3937007874015748},{"duration":0.09375,"midi":77,"time":452.4375,"velocity":0.3937007874015748},{"duration":0.09375,"midi":73,"time":452.4375,"velocity":0.3937007874015748},{"duration":0.09375,"midi":49,"time":452.4375,"velocity":0.3937007874015748},{"duration":0.09375,"midi":46,"time":452.4375,"velocity":0.3937007874015748},{"duration":0.09375,"midi":82,"time":452.4375,"velocity":0.3937007874015748},{"duration":0.09375,"midi":58,"time":452.4375,"velocity":0.3937007874015748},{"duration":0.09375,"midi":37,"time":452.4375,"velocity":0.3937007874015748},{"duration":0.09375,"midi":89,"time":452.625,"velocity":0.3937007874015748},{"duration":0.09375,"midi":73,"time":452.625,"velocity":0.3937007874015748},{"duration":0.09375,"midi":77,"time":452.625,"velocity":0.3937007874015748},{"duration":0.09375,"midi":53,"time":452.625,"velocity":0.3937007874015748},{"duration":0.09375,"midi":46,"time":452.625,"velocity":0.3937007874015748},{"duration":0.09375,"midi":85,"time":452.625,"velocity":0.3937007874015748},{"duration":0.09375,"midi":82,"time":452.625,"velocity":0.3937007874015748},{"duration":0.09375,"midi":41,"time":452.625,"velocity":0.3937007874015748},{"duration":0.09375,"midi":94,"time":452.625,"velocity":0.3937007874015748},{"duration":0.09375,"midi":61,"time":452.625,"velocity":0.3937007874015748},{"duration":0.09375,"midi":49,"time":452.625,"velocity":0.3937007874015748},{"duration":0.09375,"midi":34,"time":452.625,"velocity":0.3937007874015748},{"duration":0.09375,"midi":25,"time":452.625,"velocity":0.3937007874015748},{"duration":0.09375,"midi":58,"time":452.625,"velocity":0.3937007874015748},{"duration":0.09375,"midi":65,"time":452.625,"velocity":0.3937007874015748},{"duration":0.09375,"midi":29,"time":452.625,"velocity":0.3937007874015748},{"duration":0.09375,"midi":70,"time":452.625,"velocity":0.3937007874015748},{"duration":0.09375,"midi":37,"time":452.625,"velocity":0.3937007874015748},{"duration":0.09375,"midi":65,"time":452.8125,"velocity":0.3937007874015748},{"duration":0.09375,"midi":29,"time":452.8125,"velocity":0.3937007874015748},{"duration":0.09375,"midi":73,"time":452.8125,"velocity":0.3937007874015748},{"duration":0.09375,"midi":37,"time":452.8125,"velocity":0.3937007874015748},{"duration":0.09375,"midi":58,"time":452.8125,"velocity":0.3937007874015748},{"duration":0.09375,"midi":41,"time":452.8125,"velocity":0.3937007874015748},{"duration":0.09375,"midi":25,"time":452.8125,"velocity":0.3937007874015748},{"duration":0.09375,"midi":82,"time":452.8125,"velocity":0.3937007874015748},{"duration":0.09375,"midi":77,"time":452.8125,"velocity":0.3937007874015748},{"duration":0.09375,"midi":49,"time":452.8125,"velocity":0.3937007874015748},{"duration":0.09375,"midi":85,"time":452.8125,"velocity":0.3937007874015748},{"duration":0.09375,"midi":46,"time":452.8125,"velocity":0.3937007874015748},{"duration":0.09375,"midi":70,"time":452.8125,"velocity":0.3937007874015748},{"duration":0.09375,"midi":53,"time":452.8125,"velocity":0.3937007874015748},{"duration":0.09375,"midi":89,"time":452.8125,"velocity":0.3937007874015748},{"duration":0.09375,"midi":34,"time":452.8125,"velocity":0.3937007874015748},{"duration":0.09375,"midi":94,"time":452.8125,"velocity":0.3937007874015748},{"duration":0.09375,"midi":61,"time":452.8125,"velocity":0.3937007874015748},{"duration":0.09375,"midi":89,"time":453,"velocity":0.3937007874015748},{"duration":0.09375,"midi":41,"time":453,"velocity":0.3937007874015748},{"duration":0.09375,"midi":58,"time":453,"velocity":0.3937007874015748},{"duration":0.09375,"midi":37,"time":453,"velocity":0.3937007874015748},{"duration":0.09375,"midi":34,"time":453,"velocity":0.3937007874015748},{"duration":0.09375,"midi":49,"time":453,"velocity":0.3937007874015748},{"duration":0.09375,"midi":53,"time":453,"velocity":0.3937007874015748},{"duration":0.09375,"midi":94,"time":453,"velocity":0.3937007874015748},{"duration":0.09375,"midi":61,"time":453,"velocity":0.3937007874015748},{"duration":0.09375,"midi":70,"time":453,"velocity":0.3937007874015748},{"duration":0.09375,"midi":65,"time":453,"velocity":0.3937007874015748},{"duration":0.09375,"midi":46,"time":453,"velocity":0.3937007874015748},{"duration":0.09375,"midi":77,"time":453,"velocity":0.3937007874015748},{"duration":0.09375,"midi":82,"time":453,"velocity":0.3937007874015748},{"duration":0.09375,"midi":85,"time":453,"velocity":0.3937007874015748},{"duration":0.09375,"midi":73,"time":453,"velocity":0.3937007874015748},{"duration":0.09375,"midi":25,"time":453,"velocity":0.3937007874015748},{"duration":0.09375,"midi":29,"time":453,"velocity":0.3937007874015748},{"duration":0.09375,"midi":73,"time":453.1875,"velocity":0.3937007874015748},{"duration":0.09375,"midi":70,"time":453.1875,"velocity":0.3937007874015748},{"duration":0.09375,"midi":29,"time":453.1875,"velocity":0.3937007874015748},{"duration":0.09375,"midi":89,"time":453.1875,"velocity":0.3937007874015748},{"duration":0.09375,"midi":94,"time":453.1875,"velocity":0.3937007874015748},{"duration":0.09375,"midi":25,"time":453.1875,"velocity":0.3937007874015748},{"duration":0.09375,"midi":61,"time":453.1875,"velocity":0.3937007874015748},{"duration":0.09375,"midi":85,"time":453.1875,"velocity":0.3937007874015748},{"duration":0.09375,"midi":34,"time":453.1875,"velocity":0.3937007874015748},{"duration":0.09375,"midi":77,"time":453.1875,"velocity":0.3937007874015748},{"duration":0.09375,"midi":41,"time":453.1875,"velocity":0.3937007874015748},{"duration":0.09375,"midi":58,"time":453.1875,"velocity":0.3937007874015748},{"duration":0.09375,"midi":53,"time":453.1875,"velocity":0.3937007874015748},{"duration":0.09375,"midi":46,"time":453.1875,"velocity":0.3937007874015748},{"duration":0.09375,"midi":65,"time":453.1875,"velocity":0.3937007874015748},{"duration":0.09375,"midi":49,"time":453.1875,"velocity":0.3937007874015748},{"duration":0.09375,"midi":37,"time":453.1875,"velocity":0.3937007874015748},{"duration":0.09375,"midi":82,"time":453.1875,"velocity":0.3937007874015748},{"duration":0.09375,"midi":29,"time":453.375,"velocity":0.3937007874015748},{"duration":0.09375,"midi":37,"time":453.375,"velocity":0.3937007874015748},{"duration":0.09375,"midi":58,"time":453.375,"velocity":0.3937007874015748},{"duration":0.09375,"midi":85,"time":453.375,"velocity":0.3937007874015748},{"duration":0.09375,"midi":53,"time":453.375,"velocity":0.3937007874015748},{"duration":0.09375,"midi":82,"time":453.375,"velocity":0.3937007874015748},{"duration":0.09375,"midi":49,"time":453.375,"velocity":0.3937007874015748},{"duration":0.09375,"midi":25,"time":453.375,"velocity":0.3937007874015748},{"duration":0.09375,"midi":46,"time":453.375,"velocity":0.3937007874015748},{"duration":0.09375,"midi":65,"time":453.375,"velocity":0.3937007874015748},{"duration":0.09375,"midi":73,"time":453.375,"velocity":0.3937007874015748},{"duration":0.09375,"midi":61,"time":453.375,"velocity":0.3937007874015748},{"duration":0.09375,"midi":41,"time":453.375,"velocity":0.3937007874015748},{"duration":0.09375,"midi":77,"time":453.375,"velocity":0.3937007874015748},{"duration":0.09375,"midi":94,"time":453.375,"velocity":0.3937007874015748},{"duration":0.09375,"midi":34,"time":453.375,"velocity":0.3937007874015748},{"duration":0.09375,"midi":70,"time":453.375,"velocity":0.3937007874015748},{"duration":0.09375,"midi":89,"time":453.375,"velocity":0.3937007874015748},{"duration":0.09375,"midi":61,"time":453.5625,"velocity":0.3937007874015748},{"duration":0.09375,"midi":89,"time":453.5625,"velocity":0.3937007874015748},{"duration":0.09375,"midi":37,"time":453.5625,"velocity":0.3937007874015748},{"duration":0.09375,"midi":49,"time":453.5625,"velocity":0.3937007874015748},{"duration":0.09375,"midi":41,"time":453.5625,"velocity":0.3937007874015748},{"duration":0.09375,"midi":73,"time":453.5625,"velocity":0.3937007874015748},{"duration":0.09375,"midi":58,"time":453.5625,"velocity":0.3937007874015748},{"duration":0.09375,"midi":29,"time":453.5625,"velocity":0.3937007874015748},{"duration":0.09375,"midi":70,"time":453.5625,"velocity":0.3937007874015748},{"duration":0.09375,"midi":34,"time":453.5625,"velocity":0.3937007874015748},{"duration":0.09375,"midi":53,"time":453.5625,"velocity":0.3937007874015748},{"duration":0.09375,"midi":65,"time":453.5625,"velocity":0.3937007874015748},{"duration":0.09375,"midi":25,"time":453.5625,"velocity":0.3937007874015748},{"duration":0.09375,"midi":94,"time":453.5625,"velocity":0.3937007874015748},{"duration":0.09375,"midi":85,"time":453.5625,"velocity":0.3937007874015748},{"duration":0.09375,"midi":46,"time":453.5625,"velocity":0.3937007874015748},{"duration":0.09375,"midi":77,"time":453.5625,"velocity":0.3937007874015748},{"duration":0.09375,"midi":82,"time":453.5625,"velocity":0.3937007874015748},{"duration":0.09375,"midi":94,"time":453.75,"velocity":0.3937007874015748},{"duration":0.09375,"midi":65,"time":453.75,"velocity":0.3937007874015748},{"duration":0.09375,"midi":53,"time":453.75,"velocity":0.3937007874015748},{"duration":0.09375,"midi":61,"time":453.75,"velocity":0.3937007874015748},{"duration":0.09375,"midi":41,"time":453.75,"velocity":0.3937007874015748},{"duration":0.09375,"midi":46,"time":453.75,"velocity":0.3937007874015748},{"duration":0.09375,"midi":34,"time":453.75,"velocity":0.3937007874015748},{"duration":0.09375,"midi":29,"time":453.75,"velocity":0.3937007874015748},{"duration":0.09375,"midi":85,"time":453.75,"velocity":0.3937007874015748},{"duration":0.09375,"midi":77,"time":453.75,"velocity":0.3937007874015748},{"duration":0.09375,"midi":82,"time":453.75,"velocity":0.3937007874015748},{"duration":0.09375,"midi":73,"time":453.75,"velocity":0.3937007874015748},{"duration":0.09375,"midi":25,"time":453.75,"velocity":0.3937007874015748},{"duration":0.09375,"midi":89,"time":453.75,"velocity":0.3937007874015748},{"duration":0.09375,"midi":58,"time":453.75,"velocity":0.3937007874015748},{"duration":0.09375,"midi":37,"time":453.75,"velocity":0.3937007874015748},{"duration":0.09375,"midi":49,"time":453.75,"velocity":0.3937007874015748},{"duration":0.09375,"midi":70,"time":453.75,"velocity":0.3937007874015748},{"duration":0.09375,"midi":46,"time":453.9375,"velocity":0.3937007874015748},{"duration":0.09375,"midi":77,"time":453.9375,"velocity":0.3937007874015748},{"duration":0.09375,"midi":82,"time":453.9375,"velocity":0.3937007874015748},{"duration":0.09375,"midi":34,"time":453.9375,"velocity":0.3937007874015748},{"duration":0.09375,"midi":94,"time":453.9375,"velocity":0.3937007874015748},{"duration":0.09375,"midi":89,"time":453.9375,"velocity":0.3937007874015748},{"duration":0.09375,"midi":85,"time":453.9375,"velocity":0.3937007874015748},{"duration":0.09375,"midi":65,"time":453.9375,"velocity":0.3937007874015748},{"duration":0.09375,"midi":61,"time":453.9375,"velocity":0.3937007874015748},{"duration":0.09375,"midi":73,"time":453.9375,"velocity":0.3937007874015748},{"duration":0.09375,"midi":49,"time":453.9375,"velocity":0.3937007874015748},{"duration":0.09375,"midi":25,"time":453.9375,"velocity":0.3937007874015748},{"duration":0.09375,"midi":53,"time":453.9375,"velocity":0.3937007874015748},{"duration":0.09375,"midi":29,"time":453.9375,"velocity":0.3937007874015748},{"duration":0.09375,"midi":41,"time":453.9375,"velocity":0.3937007874015748},{"duration":0.09375,"midi":58,"time":453.9375,"velocity":0.3937007874015748},{"duration":0.09375,"midi":70,"time":453.9375,"velocity":0.3937007874015748},{"duration":0.09375,"midi":37,"time":453.9375,"velocity":0.3937007874015748},{"duration":0.09375,"midi":49,"time":454.125,"velocity":0.3937007874015748},{"duration":0.09375,"midi":61,"time":454.125,"velocity":0.3937007874015748},{"duration":0.09375,"midi":77,"time":454.125,"velocity":0.3937007874015748},{"duration":0.09375,"midi":85,"time":454.125,"velocity":0.3937007874015748},{"duration":0.09375,"midi":41,"time":454.125,"velocity":0.3937007874015748},{"duration":0.09375,"midi":94,"time":454.125,"velocity":0.3937007874015748},{"duration":0.09375,"midi":73,"time":454.125,"velocity":0.3937007874015748},{"duration":0.09375,"midi":82,"time":454.125,"velocity":0.3937007874015748},{"duration":0.09375,"midi":37,"time":454.125,"velocity":0.3937007874015748},{"duration":0.09375,"midi":25,"time":454.125,"velocity":0.3937007874015748},{"duration":0.09375,"midi":89,"time":454.125,"velocity":0.3937007874015748},{"duration":0.09375,"midi":58,"time":454.125,"velocity":0.3937007874015748},{"duration":0.09375,"midi":34,"time":454.125,"velocity":0.3937007874015748},{"duration":0.09375,"midi":53,"time":454.125,"velocity":0.3937007874015748},{"duration":0.09375,"midi":46,"time":454.125,"velocity":0.3937007874015748},{"duration":0.09375,"midi":70,"time":454.125,"velocity":0.3937007874015748},{"duration":0.09375,"midi":65,"time":454.125,"velocity":0.3937007874015748},{"duration":0.09375,"midi":29,"time":454.125,"velocity":0.3937007874015748},{"duration":0.09375,"midi":89,"time":454.3125,"velocity":0.3937007874015748},{"duration":0.09375,"midi":41,"time":454.3125,"velocity":0.3937007874015748},{"duration":0.09375,"midi":29,"time":454.3125,"velocity":0.3937007874015748},{"duration":0.09375,"midi":49,"time":454.3125,"velocity":0.3937007874015748},{"duration":0.09375,"midi":82,"time":454.3125,"velocity":0.3937007874015748},{"duration":0.09375,"midi":53,"time":454.3125,"velocity":0.3937007874015748},{"duration":0.09375,"midi":73,"time":454.3125,"velocity":0.3937007874015748},{"duration":0.09375,"midi":77,"time":454.3125,"velocity":0.3937007874015748},{"duration":0.09375,"midi":65,"time":454.3125,"velocity":0.3937007874015748},{"duration":0.09375,"midi":25,"time":454.3125,"velocity":0.3937007874015748},{"duration":0.09375,"midi":46,"time":454.3125,"velocity":0.3937007874015748},{"duration":0.09375,"midi":85,"time":454.3125,"velocity":0.3937007874015748},{"duration":0.09375,"midi":61,"time":454.3125,"velocity":0.3937007874015748},{"duration":0.09375,"midi":94,"time":454.3125,"velocity":0.3937007874015748},{"duration":0.09375,"midi":34,"time":454.3125,"velocity":0.3937007874015748},{"duration":0.09375,"midi":58,"time":454.3125,"velocity":0.3937007874015748},{"duration":0.09375,"midi":70,"time":454.3125,"velocity":0.3937007874015748},{"duration":0.09375,"midi":37,"time":454.3125,"velocity":0.3937007874015748},{"duration":0.09375,"midi":89,"time":454.5,"velocity":0.3937007874015748},{"duration":0.09375,"midi":94,"time":454.5,"velocity":0.3937007874015748},{"duration":0.09375,"midi":85,"time":454.5,"velocity":0.3937007874015748},{"duration":0.09375,"midi":82,"time":454.5,"velocity":0.3937007874015748},{"duration":0.09375,"midi":58,"time":454.5,"velocity":0.3937007874015748},{"duration":0.09375,"midi":29,"time":454.5,"velocity":0.3937007874015748},{"duration":0.09375,"midi":53,"time":454.5,"velocity":0.3937007874015748},{"duration":0.09375,"midi":65,"time":454.5,"velocity":0.3937007874015748},{"duration":0.09375,"midi":73,"time":454.5,"velocity":0.3937007874015748},{"duration":0.09375,"midi":77,"time":454.5,"velocity":0.3937007874015748},{"duration":0.09375,"midi":46,"time":454.5,"velocity":0.3937007874015748},{"duration":0.09375,"midi":41,"time":454.5,"velocity":0.3937007874015748},{"duration":0.09375,"midi":49,"time":454.5,"velocity":0.3937007874015748},{"duration":0.09375,"midi":37,"time":454.5,"velocity":0.3937007874015748},{"duration":0.09375,"midi":70,"time":454.5,"velocity":0.3937007874015748},{"duration":0.09375,"midi":61,"time":454.5,"velocity":0.3937007874015748},{"duration":0.09375,"midi":34,"time":454.5,"velocity":0.3937007874015748},{"duration":0.09375,"midi":25,"time":454.5,"velocity":0.3937007874015748},{"duration":0.09375,"midi":61,"time":454.6875,"velocity":0.3937007874015748},{"duration":0.09375,"midi":34,"time":454.6875,"velocity":0.3937007874015748},{"duration":0.09375,"midi":58,"time":454.6875,"velocity":0.3937007874015748},{"duration":0.09375,"midi":41,"time":454.6875,"velocity":0.3937007874015748},{"duration":0.09375,"midi":25,"time":454.6875,"velocity":0.3937007874015748},{"duration":0.09375,"midi":53,"time":454.6875,"velocity":0.3937007874015748},{"duration":0.09375,"midi":85,"time":454.6875,"velocity":0.3937007874015748},{"duration":0.09375,"midi":77,"time":454.6875,"velocity":0.3937007874015748},{"duration":0.09375,"midi":65,"time":454.6875,"velocity":0.3937007874015748},{"duration":0.09375,"midi":82,"time":454.6875,"velocity":0.3937007874015748},{"duration":0.09375,"midi":46,"time":454.6875,"velocity":0.3937007874015748},{"duration":0.09375,"midi":73,"time":454.6875,"velocity":0.3937007874015748},{"duration":0.09375,"midi":29,"time":454.6875,"velocity":0.3937007874015748},{"duration":0.09375,"midi":89,"time":454.6875,"velocity":0.3937007874015748},{"duration":0.09375,"midi":70,"time":454.6875,"velocity":0.3937007874015748},{"duration":0.09375,"midi":49,"time":454.6875,"velocity":0.3937007874015748},{"duration":0.09375,"midi":37,"time":454.6875,"velocity":0.3937007874015748},{"duration":0.09375,"midi":94,"time":454.6875,"velocity":0.3937007874015748},{"duration":0.09375,"midi":34,"time":454.875,"velocity":0.3937007874015748},{"duration":0.09375,"midi":37,"time":454.875,"velocity":0.3937007874015748},{"duration":0.09375,"midi":70,"time":454.875,"velocity":0.3937007874015748},{"duration":0.09375,"midi":65,"time":454.875,"velocity":0.3937007874015748},{"duration":0.09375,"midi":41,"time":454.875,"velocity":0.3937007874015748},{"duration":0.09375,"midi":89,"time":454.875,"velocity":0.3937007874015748},{"duration":0.09375,"midi":25,"time":454.875,"velocity":0.3937007874015748},{"duration":0.09375,"midi":53,"time":454.875,"velocity":0.3937007874015748},{"duration":0.09375,"midi":94,"time":454.875,"velocity":0.3937007874015748},{"duration":0.09375,"midi":73,"time":454.875,"velocity":0.3937007874015748},{"duration":0.09375,"midi":61,"time":454.875,"velocity":0.3937007874015748},{"duration":0.09375,"midi":46,"time":454.875,"velocity":0.3937007874015748},{"duration":0.09375,"midi":58,"time":454.875,"velocity":0.3937007874015748},{"duration":0.09375,"midi":29,"time":454.875,"velocity":0.3937007874015748},{"duration":0.09375,"midi":77,"time":454.875,"velocity":0.3937007874015748},{"duration":0.09375,"midi":49,"time":454.875,"velocity":0.3937007874015748},{"duration":0.09375,"midi":85,"time":454.875,"velocity":0.3937007874015748},{"duration":0.09375,"midi":82,"time":454.875,"velocity":0.3937007874015748},{"duration":0.09375,"midi":53,"time":455.0625,"velocity":0.3937007874015748},{"duration":0.09375,"midi":49,"time":455.0625,"velocity":0.3937007874015748},{"duration":0.09375,"midi":70,"time":455.0625,"velocity":0.3937007874015748},{"duration":0.09375,"midi":25,"time":455.0625,"velocity":0.3937007874015748},{"duration":0.09375,"midi":46,"time":455.0625,"velocity":0.3937007874015748},{"duration":0.09375,"midi":58,"time":455.0625,"velocity":0.3937007874015748},{"duration":0.09375,"midi":29,"time":455.0625,"velocity":0.3937007874015748},{"duration":0.09375,"midi":65,"time":455.0625,"velocity":0.3937007874015748},{"duration":0.09375,"midi":82,"time":455.0625,"velocity":0.3937007874015748},{"duration":0.09375,"midi":34,"time":455.0625,"velocity":0.3937007874015748},{"duration":0.09375,"midi":61,"time":455.0625,"velocity":0.3937007874015748},{"duration":0.09375,"midi":94,"time":455.0625,"velocity":0.3937007874015748},{"duration":0.09375,"midi":89,"time":455.0625,"velocity":0.3937007874015748},{"duration":0.09375,"midi":77,"time":455.0625,"velocity":0.3937007874015748},{"duration":0.09375,"midi":85,"time":455.0625,"velocity":0.3937007874015748},{"duration":0.09375,"midi":37,"time":455.0625,"velocity":0.3937007874015748},{"duration":0.09375,"midi":41,"time":455.0625,"velocity":0.3937007874015748},{"duration":0.09375,"midi":73,"time":455.0625,"velocity":0.3937007874015748},{"duration":0.09375,"midi":41,"time":455.25,"velocity":0.3937007874015748},{"duration":0.09375,"midi":77,"time":455.25,"velocity":0.3937007874015748},{"duration":0.09375,"midi":25,"time":455.25,"velocity":0.3937007874015748},{"duration":0.09375,"midi":53,"time":455.25,"velocity":0.3937007874015748},{"duration":0.09375,"midi":37,"time":455.25,"velocity":0.3937007874015748},{"duration":0.09375,"midi":29,"time":455.25,"velocity":0.3937007874015748},{"duration":0.09375,"midi":61,"time":455.25,"velocity":0.3937007874015748},{"duration":0.09375,"midi":82,"time":455.25,"velocity":0.3937007874015748},{"duration":0.09375,"midi":70,"time":455.25,"velocity":0.3937007874015748},{"duration":0.09375,"midi":73,"time":455.25,"velocity":0.3937007874015748},{"duration":0.09375,"midi":58,"time":455.25,"velocity":0.3937007874015748},{"duration":0.09375,"midi":65,"time":455.25,"velocity":0.3937007874015748},{"duration":0.09375,"midi":34,"time":455.25,"velocity":0.3937007874015748},{"duration":0.09375,"midi":49,"time":455.25,"velocity":0.3937007874015748},{"duration":0.09375,"midi":94,"time":455.25,"velocity":0.3937007874015748},{"duration":0.09375,"midi":46,"time":455.25,"velocity":0.3937007874015748},{"duration":0.09375,"midi":89,"time":455.25,"velocity":0.3937007874015748},{"duration":0.09375,"midi":85,"time":455.25,"velocity":0.3937007874015748},{"duration":0.09375,"midi":53,"time":455.4375,"velocity":0.3937007874015748},{"duration":0.09375,"midi":82,"time":455.4375,"velocity":0.3937007874015748},{"duration":0.09375,"midi":65,"time":455.4375,"velocity":0.3937007874015748},{"duration":0.09375,"midi":61,"time":455.4375,"velocity":0.3937007874015748},{"duration":0.09375,"midi":94,"time":455.4375,"velocity":0.3937007874015748},{"duration":0.09375,"midi":34,"time":455.4375,"velocity":0.3937007874015748},{"duration":0.09375,"midi":41,"time":455.4375,"velocity":0.3937007874015748},{"duration":0.09375,"midi":37,"time":455.4375,"velocity":0.3937007874015748},{"duration":0.09375,"midi":58,"time":455.4375,"velocity":0.3937007874015748},{"duration":0.09375,"midi":77,"time":455.4375,"velocity":0.3937007874015748},{"duration":0.09375,"midi":89,"time":455.4375,"velocity":0.3937007874015748},{"duration":0.09375,"midi":73,"time":455.4375,"velocity":0.3937007874015748},{"duration":0.09375,"midi":25,"time":455.4375,"velocity":0.3937007874015748},{"duration":0.09375,"midi":85,"time":455.4375,"velocity":0.3937007874015748},{"duration":0.09375,"midi":70,"time":455.4375,"velocity":0.3937007874015748},{"duration":0.09375,"midi":49,"time":455.4375,"velocity":0.3937007874015748},{"duration":0.09375,"midi":46,"time":455.4375,"velocity":0.3937007874015748},{"duration":0.09375,"midi":29,"time":455.4375,"velocity":0.3937007874015748},{"duration":0.09375,"midi":70,"time":455.625,"velocity":0.3937007874015748},{"duration":0.09375,"midi":41,"time":455.625,"velocity":0.3937007874015748},{"duration":0.09375,"midi":65,"time":455.625,"velocity":0.3937007874015748},{"duration":0.09375,"midi":89,"time":455.625,"velocity":0.3937007874015748},{"duration":0.09375,"midi":46,"time":455.625,"velocity":0.3937007874015748},{"duration":0.09375,"midi":53,"time":455.625,"velocity":0.3937007874015748},{"duration":0.09375,"midi":29,"time":455.625,"velocity":0.3937007874015748},{"duration":0.09375,"midi":73,"time":455.625,"velocity":0.3937007874015748},{"duration":0.09375,"midi":85,"time":455.625,"velocity":0.3937007874015748},{"duration":0.09375,"midi":37,"time":455.625,"velocity":0.3937007874015748},{"duration":0.09375,"midi":77,"time":455.625,"velocity":0.3937007874015748},{"duration":0.09375,"midi":34,"time":455.625,"velocity":0.3937007874015748},{"duration":0.09375,"midi":82,"time":455.625,"velocity":0.3937007874015748},{"duration":0.09375,"midi":49,"time":455.625,"velocity":0.3937007874015748},{"duration":0.09375,"midi":58,"time":455.625,"velocity":0.3937007874015748},{"duration":0.09375,"midi":94,"time":455.625,"velocity":0.3937007874015748},{"duration":0.09375,"midi":61,"time":455.625,"velocity":0.3937007874015748},{"duration":0.09375,"midi":25,"time":455.625,"velocity":0.3937007874015748},{"duration":0.09375,"midi":70,"time":455.8125,"velocity":0.3937007874015748},{"duration":0.09375,"midi":65,"time":455.8125,"velocity":0.3937007874015748},{"duration":0.09375,"midi":82,"time":455.8125,"velocity":0.3937007874015748},{"duration":0.09375,"midi":94,"time":455.8125,"velocity":0.3937007874015748},{"duration":0.09375,"midi":89,"time":455.8125,"velocity":0.3937007874015748},{"duration":0.09375,"midi":53,"time":455.8125,"velocity":0.3937007874015748},{"duration":0.09375,"midi":41,"time":455.8125,"velocity":0.3937007874015748},{"duration":0.09375,"midi":77,"time":455.8125,"velocity":0.3937007874015748},{"duration":0.09375,"midi":34,"time":455.8125,"velocity":0.3937007874015748},{"duration":0.09375,"midi":46,"time":455.8125,"velocity":0.3937007874015748},{"duration":0.09375,"midi":25,"time":455.8125,"velocity":0.3937007874015748},{"duration":0.09375,"midi":49,"time":455.8125,"velocity":0.3937007874015748},{"duration":0.09375,"midi":37,"time":455.8125,"velocity":0.3937007874015748},{"duration":0.09375,"midi":85,"time":455.8125,"velocity":0.3937007874015748},{"duration":0.09375,"midi":73,"time":455.8125,"velocity":0.3937007874015748},{"duration":0.09375,"midi":58,"time":455.8125,"velocity":0.3937007874015748},{"duration":0.09375,"midi":29,"time":455.8125,"velocity":0.3937007874015748},{"duration":0.09375,"midi":61,"time":455.8125,"velocity":0.3937007874015748},{"duration":0.09375,"midi":78,"time":456,"velocity":0.3937007874015748},{"duration":0.09375,"midi":58,"time":456,"velocity":0.3937007874015748},{"duration":0.09375,"midi":82,"time":456,"velocity":0.3937007874015748},{"duration":0.09375,"midi":30,"time":456,"velocity":0.3937007874015748},{"duration":0.09375,"midi":94,"time":456,"velocity":0.3937007874015748},{"duration":0.09375,"midi":27,"time":456,"velocity":0.3937007874015748},{"duration":0.09375,"midi":90,"time":456,"velocity":0.3937007874015748},{"duration":0.09375,"midi":63,"time":456,"velocity":0.3937007874015748},{"duration":0.09375,"midi":87,"time":456,"velocity":0.3937007874015748},{"duration":0.09375,"midi":34,"time":456,"velocity":0.3937007874015748},{"duration":0.09375,"midi":42,"time":456,"velocity":0.3937007874015748},{"duration":0.09375,"midi":51,"time":456,"velocity":0.3937007874015748},{"duration":0.09375,"midi":46,"time":456,"velocity":0.3937007874015748},{"duration":0.09375,"midi":70,"time":456,"velocity":0.3937007874015748},{"duration":0.09375,"midi":39,"time":456,"velocity":0.3937007874015748},{"duration":0.09375,"midi":66,"time":456,"velocity":0.3937007874015748},{"duration":0.09375,"midi":75,"time":456,"velocity":0.3937007874015748},{"duration":0.09375,"midi":54,"time":456,"velocity":0.3937007874015748},{"duration":0.09375,"midi":66,"time":456.1875,"velocity":0.3937007874015748},{"duration":0.09375,"midi":42,"time":456.1875,"velocity":0.3937007874015748},{"duration":0.09375,"midi":30,"time":456.1875,"velocity":0.3937007874015748},{"duration":0.09375,"midi":87,"time":456.1875,"velocity":0.3937007874015748},{"duration":0.09375,"midi":54,"time":456.1875,"velocity":0.3937007874015748},{"duration":0.09375,"midi":46,"time":456.1875,"velocity":0.3937007874015748},{"duration":0.09375,"midi":70,"time":456.1875,"velocity":0.3937007874015748},{"duration":0.09375,"midi":90,"time":456.1875,"velocity":0.3937007874015748},{"duration":0.09375,"midi":27,"time":456.1875,"velocity":0.3937007874015748},{"duration":0.09375,"midi":75,"time":456.1875,"velocity":0.3937007874015748},{"duration":0.09375,"midi":82,"time":456.1875,"velocity":0.3937007874015748},{"duration":0.09375,"midi":34,"time":456.1875,"velocity":0.3937007874015748},{"duration":0.09375,"midi":63,"time":456.1875,"velocity":0.3937007874015748},{"duration":0.09375,"midi":78,"time":456.1875,"velocity":0.3937007874015748},{"duration":0.09375,"midi":94,"time":456.1875,"velocity":0.3937007874015748},{"duration":0.09375,"midi":39,"time":456.1875,"velocity":0.3937007874015748},{"duration":0.09375,"midi":51,"time":456.1875,"velocity":0.3937007874015748},{"duration":0.09375,"midi":58,"time":456.1875,"velocity":0.3937007874015748},{"duration":0.09375,"midi":51,"time":456.375,"velocity":0.3937007874015748},{"duration":0.09375,"midi":70,"time":456.375,"velocity":0.3937007874015748},{"duration":0.09375,"midi":75,"time":456.375,"velocity":0.3937007874015748},{"duration":0.09375,"midi":63,"time":456.375,"velocity":0.3937007874015748},{"duration":0.09375,"midi":78,"time":456.375,"velocity":0.3937007874015748},{"duration":0.09375,"midi":46,"time":456.375,"velocity":0.3937007874015748},{"duration":0.09375,"midi":34,"time":456.375,"velocity":0.3937007874015748},{"duration":0.09375,"midi":39,"time":456.375,"velocity":0.3937007874015748},{"duration":0.09375,"midi":42,"time":456.375,"velocity":0.3937007874015748},{"duration":0.09375,"midi":90,"time":456.375,"velocity":0.3937007874015748},{"duration":0.09375,"midi":87,"time":456.375,"velocity":0.3937007874015748},{"duration":0.09375,"midi":66,"time":456.375,"velocity":0.3937007874015748},{"duration":0.09375,"midi":82,"time":456.375,"velocity":0.3937007874015748},{"duration":0.09375,"midi":54,"time":456.375,"velocity":0.3937007874015748},{"duration":0.09375,"midi":27,"time":456.375,"velocity":0.3937007874015748},{"duration":0.09375,"midi":94,"time":456.375,"velocity":0.3937007874015748},{"duration":0.09375,"midi":58,"time":456.375,"velocity":0.3937007874015748},{"duration":0.09375,"midi":30,"time":456.375,"velocity":0.3937007874015748},{"duration":0.09375,"midi":66,"time":456.5625,"velocity":0.3937007874015748},{"duration":0.09375,"midi":63,"time":456.5625,"velocity":0.3937007874015748},{"duration":0.09375,"midi":54,"time":456.5625,"velocity":0.3937007874015748},{"duration":0.09375,"midi":58,"time":456.5625,"velocity":0.3937007874015748},{"duration":0.09375,"midi":70,"time":456.5625,"velocity":0.3937007874015748},{"duration":0.09375,"midi":87,"time":456.5625,"velocity":0.3937007874015748},{"duration":0.09375,"midi":82,"time":456.5625,"velocity":0.3937007874015748},{"duration":0.09375,"midi":94,"time":456.5625,"velocity":0.3937007874015748},{"duration":0.09375,"midi":42,"time":456.5625,"velocity":0.3937007874015748},{"duration":0.09375,"midi":78,"time":456.5625,"velocity":0.3937007874015748},{"duration":0.09375,"midi":46,"time":456.5625,"velocity":0.3937007874015748},{"duration":0.09375,"midi":51,"time":456.5625,"velocity":0.3937007874015748},{"duration":0.09375,"midi":30,"time":456.5625,"velocity":0.3937007874015748},{"duration":0.09375,"midi":34,"time":456.5625,"velocity":0.3937007874015748},{"duration":0.09375,"midi":27,"time":456.5625,"velocity":0.3937007874015748},{"duration":0.09375,"midi":75,"time":456.5625,"velocity":0.3937007874015748},{"duration":0.09375,"midi":39,"time":456.5625,"velocity":0.3937007874015748},{"duration":0.09375,"midi":90,"time":456.5625,"velocity":0.3937007874015748},{"duration":0.09375,"midi":94,"time":456.75,"velocity":0.3937007874015748},{"duration":0.09375,"midi":42,"time":456.75,"velocity":0.3937007874015748},{"duration":0.09375,"midi":82,"time":456.75,"velocity":0.3937007874015748},{"duration":0.09375,"midi":78,"time":456.75,"velocity":0.3937007874015748},{"duration":0.09375,"midi":51,"time":456.75,"velocity":0.3937007874015748},{"duration":0.09375,"midi":63,"time":456.75,"velocity":0.3937007874015748},{"duration":0.09375,"midi":87,"time":456.75,"velocity":0.3937007874015748},{"duration":0.09375,"midi":70,"time":456.75,"velocity":0.3937007874015748},{"duration":0.09375,"midi":54,"time":456.75,"velocity":0.3937007874015748},{"duration":0.09375,"midi":58,"time":456.75,"velocity":0.3937007874015748},{"duration":0.09375,"midi":90,"time":456.75,"velocity":0.3937007874015748},{"duration":0.09375,"midi":30,"time":456.75,"velocity":0.3937007874015748},{"duration":0.09375,"midi":34,"time":456.75,"velocity":0.3937007874015748},{"duration":0.09375,"midi":66,"time":456.75,"velocity":0.3937007874015748},{"duration":0.09375,"midi":75,"time":456.75,"velocity":0.3937007874015748},{"duration":0.09375,"midi":39,"time":456.75,"velocity":0.3937007874015748},{"duration":0.09375,"midi":46,"time":456.75,"velocity":0.3937007874015748},{"duration":0.09375,"midi":27,"time":456.75,"velocity":0.3937007874015748},{"duration":0.09375,"midi":87,"time":456.9375,"velocity":0.3937007874015748},{"duration":0.09375,"midi":27,"time":456.9375,"velocity":0.3937007874015748},{"duration":0.09375,"midi":51,"time":456.9375,"velocity":0.3937007874015748},{"duration":0.09375,"midi":30,"time":456.9375,"velocity":0.3937007874015748},{"duration":0.09375,"midi":78,"time":456.9375,"velocity":0.3937007874015748},{"duration":0.09375,"midi":54,"time":456.9375,"velocity":0.3937007874015748},{"duration":0.09375,"midi":58,"time":456.9375,"velocity":0.3937007874015748},{"duration":0.09375,"midi":94,"time":456.9375,"velocity":0.3937007874015748},{"duration":0.09375,"midi":42,"time":456.9375,"velocity":0.3937007874015748},{"duration":0.09375,"midi":70,"time":456.9375,"velocity":0.3937007874015748},{"duration":0.09375,"midi":66,"time":456.9375,"velocity":0.3937007874015748},{"duration":0.09375,"midi":34,"time":456.9375,"velocity":0.3937007874015748},{"duration":0.09375,"midi":82,"time":456.9375,"velocity":0.3937007874015748},{"duration":0.09375,"midi":90,"time":456.9375,"velocity":0.3937007874015748},{"duration":0.09375,"midi":46,"time":456.9375,"velocity":0.3937007874015748},{"duration":0.09375,"midi":75,"time":456.9375,"velocity":0.3937007874015748},{"duration":0.09375,"midi":39,"time":456.9375,"velocity":0.3937007874015748},{"duration":0.09375,"midi":63,"time":456.9375,"velocity":0.3937007874015748},{"duration":0.09375,"midi":82,"time":457.125,"velocity":0.3937007874015748},{"duration":0.09375,"midi":54,"time":457.125,"velocity":0.3937007874015748},{"duration":0.09375,"midi":70,"time":457.125,"velocity":0.3937007874015748},{"duration":0.09375,"midi":30,"time":457.125,"velocity":0.3937007874015748},{"duration":0.09375,"midi":90,"time":457.125,"velocity":0.3937007874015748},{"duration":0.09375,"midi":58,"time":457.125,"velocity":0.3937007874015748},{"duration":0.09375,"midi":34,"time":457.125,"velocity":0.3937007874015748},{"duration":0.09375,"midi":51,"time":457.125,"velocity":0.3937007874015748},{"duration":0.09375,"midi":42,"time":457.125,"velocity":0.3937007874015748},{"duration":0.09375,"midi":27,"time":457.125,"velocity":0.3937007874015748},{"duration":0.09375,"midi":87,"time":457.125,"velocity":0.3937007874015748},{"duration":0.09375,"midi":63,"time":457.125,"velocity":0.3937007874015748},{"duration":0.09375,"midi":75,"time":457.125,"velocity":0.3937007874015748},{"duration":0.09375,"midi":94,"time":457.125,"velocity":0.3937007874015748},{"duration":0.09375,"midi":78,"time":457.125,"velocity":0.3937007874015748},{"duration":0.09375,"midi":39,"time":457.125,"velocity":0.3937007874015748},{"duration":0.09375,"midi":46,"time":457.125,"velocity":0.3937007874015748},{"duration":0.09375,"midi":66,"time":457.125,"velocity":0.3937007874015748},{"duration":0.09375,"midi":58,"time":457.3125,"velocity":0.3937007874015748},{"duration":0.09375,"midi":30,"time":457.3125,"velocity":0.3937007874015748},{"duration":0.09375,"midi":54,"time":457.3125,"velocity":0.3937007874015748},{"duration":0.09375,"midi":66,"time":457.3125,"velocity":0.3937007874015748},{"duration":0.09375,"midi":94,"time":457.3125,"velocity":0.3937007874015748},{"duration":0.09375,"midi":27,"time":457.3125,"velocity":0.3937007874015748},{"duration":0.09375,"midi":39,"time":457.3125,"velocity":0.3937007874015748},{"duration":0.09375,"midi":87,"time":457.3125,"velocity":0.3937007874015748},{"duration":0.09375,"midi":75,"time":457.3125,"velocity":0.3937007874015748},{"duration":0.09375,"midi":82,"time":457.3125,"velocity":0.3937007874015748},{"duration":0.09375,"midi":70,"time":457.3125,"velocity":0.3937007874015748},{"duration":0.09375,"midi":78,"time":457.3125,"velocity":0.3937007874015748},{"duration":0.09375,"midi":46,"time":457.3125,"velocity":0.3937007874015748},{"duration":0.09375,"midi":51,"time":457.3125,"velocity":0.3937007874015748},{"duration":0.09375,"midi":34,"time":457.3125,"velocity":0.3937007874015748},{"duration":0.09375,"midi":42,"time":457.3125,"velocity":0.3937007874015748},{"duration":0.09375,"midi":90,"time":457.3125,"velocity":0.3937007874015748},{"duration":0.09375,"midi":63,"time":457.3125,"velocity":0.3937007874015748},{"duration":0.09375,"midi":78,"time":457.5,"velocity":0.3937007874015748},{"duration":0.09375,"midi":54,"time":457.5,"velocity":0.3937007874015748},{"duration":0.09375,"midi":90,"time":457.5,"velocity":0.3937007874015748},{"duration":0.09375,"midi":34,"time":457.5,"velocity":0.3937007874015748},{"duration":0.09375,"midi":75,"time":457.5,"velocity":0.3937007874015748},{"duration":0.09375,"midi":46,"time":457.5,"velocity":0.3937007874015748},{"duration":0.09375,"midi":82,"time":457.5,"velocity":0.3937007874015748},{"duration":0.09375,"midi":27,"time":457.5,"velocity":0.3937007874015748},{"duration":0.09375,"midi":63,"time":457.5,"velocity":0.3937007874015748},{"duration":0.09375,"midi":70,"time":457.5,"velocity":0.3937007874015748},{"duration":0.09375,"midi":30,"time":457.5,"velocity":0.3937007874015748},{"duration":0.09375,"midi":87,"time":457.5,"velocity":0.3937007874015748},{"duration":0.09375,"midi":39,"time":457.5,"velocity":0.3937007874015748},{"duration":0.09375,"midi":94,"time":457.5,"velocity":0.3937007874015748},{"duration":0.09375,"midi":66,"time":457.5,"velocity":0.3937007874015748},{"duration":0.09375,"midi":42,"time":457.5,"velocity":0.3937007874015748},{"duration":0.09375,"midi":58,"time":457.5,"velocity":0.3937007874015748},{"duration":0.09375,"midi":51,"time":457.5,"velocity":0.3937007874015748},{"duration":0.09375,"midi":63,"time":457.6875,"velocity":0.3937007874015748},{"duration":0.09375,"midi":70,"time":457.6875,"velocity":0.3937007874015748},{"duration":0.09375,"midi":90,"time":457.6875,"velocity":0.3937007874015748},{"duration":0.09375,"midi":39,"time":457.6875,"velocity":0.3937007874015748},{"duration":0.09375,"midi":27,"time":457.6875,"velocity":0.3937007874015748},{"duration":0.09375,"midi":66,"time":457.6875,"velocity":0.3937007874015748},{"duration":0.09375,"midi":46,"time":457.6875,"velocity":0.3937007874015748},{"duration":0.09375,"midi":82,"time":457.6875,"velocity":0.3937007874015748},{"duration":0.09375,"midi":54,"time":457.6875,"velocity":0.3937007874015748},{"duration":0.09375,"midi":30,"time":457.6875,"velocity":0.3937007874015748},{"duration":0.09375,"midi":78,"time":457.6875,"velocity":0.3937007874015748},{"duration":0.09375,"midi":51,"time":457.6875,"velocity":0.3937007874015748},{"duration":0.09375,"midi":75,"time":457.6875,"velocity":0.3937007874015748},{"duration":0.09375,"midi":87,"time":457.6875,"velocity":0.3937007874015748},{"duration":0.09375,"midi":58,"time":457.6875,"velocity":0.3937007874015748},{"duration":0.09375,"midi":42,"time":457.6875,"velocity":0.3937007874015748},{"duration":0.09375,"midi":94,"time":457.6875,"velocity":0.3937007874015748},{"duration":0.09375,"midi":34,"time":457.6875,"velocity":0.3937007874015748},{"duration":0.09375,"midi":63,"time":457.875,"velocity":0.3937007874015748},{"duration":0.09375,"midi":42,"time":457.875,"velocity":0.3937007874015748},{"duration":0.09375,"midi":75,"time":457.875,"velocity":0.3937007874015748},{"duration":0.09375,"midi":46,"time":457.875,"velocity":0.3937007874015748},{"duration":0.09375,"midi":30,"time":457.875,"velocity":0.3937007874015748},{"duration":0.09375,"midi":78,"time":457.875,"velocity":0.3937007874015748},{"duration":0.09375,"midi":51,"time":457.875,"velocity":0.3937007874015748},{"duration":0.09375,"midi":58,"time":457.875,"velocity":0.3937007874015748},{"duration":0.09375,"midi":27,"time":457.875,"velocity":0.3937007874015748},{"duration":0.09375,"midi":82,"time":457.875,"velocity":0.3937007874015748},{"duration":0.09375,"midi":54,"time":457.875,"velocity":0.3937007874015748},{"duration":0.09375,"midi":70,"time":457.875,"velocity":0.3937007874015748},{"duration":0.09375,"midi":34,"time":457.875,"velocity":0.3937007874015748},{"duration":0.09375,"midi":66,"time":457.875,"velocity":0.3937007874015748},{"duration":0.09375,"midi":94,"time":457.875,"velocity":0.3937007874015748},{"duration":0.09375,"midi":39,"time":457.875,"velocity":0.3937007874015748},{"duration":0.09375,"midi":90,"time":457.875,"velocity":0.3937007874015748},{"duration":0.09375,"midi":87,"time":457.875,"velocity":0.3937007874015748},{"duration":0.09375,"midi":51,"time":458.0625,"velocity":0.3937007874015748},{"duration":0.09375,"midi":75,"time":458.0625,"velocity":0.3937007874015748},{"duration":0.09375,"midi":82,"time":458.0625,"velocity":0.3937007874015748},{"duration":0.09375,"midi":34,"time":458.0625,"velocity":0.3937007874015748},{"duration":0.09375,"midi":27,"time":458.0625,"velocity":0.3937007874015748},{"duration":0.09375,"midi":94,"time":458.0625,"velocity":0.3937007874015748},{"duration":0.09375,"midi":42,"time":458.0625,"velocity":0.3937007874015748},{"duration":0.09375,"midi":30,"time":458.0625,"velocity":0.3937007874015748},{"duration":0.09375,"midi":54,"time":458.0625,"velocity":0.3937007874015748},{"duration":0.09375,"midi":66,"time":458.0625,"velocity":0.3937007874015748},{"duration":0.09375,"midi":70,"time":458.0625,"velocity":0.3937007874015748},{"duration":0.09375,"midi":63,"time":458.0625,"velocity":0.3937007874015748},{"duration":0.09375,"midi":46,"time":458.0625,"velocity":0.3937007874015748},{"duration":0.09375,"midi":58,"time":458.0625,"velocity":0.3937007874015748},{"duration":0.09375,"midi":87,"time":458.0625,"velocity":0.3937007874015748},{"duration":0.09375,"midi":39,"time":458.0625,"velocity":0.3937007874015748},{"duration":0.09375,"midi":78,"time":458.0625,"velocity":0.3937007874015748},{"duration":0.09375,"midi":90,"time":458.0625,"velocity":0.3937007874015748},{"duration":0.09375,"midi":82,"time":458.25,"velocity":0.3937007874015748},{"duration":0.09375,"midi":66,"time":458.25,"velocity":0.3937007874015748},{"duration":0.09375,"midi":78,"time":458.25,"velocity":0.3937007874015748},{"duration":0.09375,"midi":58,"time":458.25,"velocity":0.3937007874015748},{"duration":0.09375,"midi":94,"time":458.25,"velocity":0.3937007874015748},{"duration":0.09375,"midi":90,"time":458.25,"velocity":0.3937007874015748},{"duration":0.09375,"midi":63,"time":458.25,"velocity":0.3937007874015748},{"duration":0.09375,"midi":30,"time":458.25,"velocity":0.3937007874015748},{"duration":0.09375,"midi":70,"time":458.25,"velocity":0.3937007874015748},{"duration":0.09375,"midi":87,"time":458.25,"velocity":0.3937007874015748},{"duration":0.09375,"midi":34,"time":458.25,"velocity":0.3937007874015748},{"duration":0.09375,"midi":42,"time":458.25,"velocity":0.3937007874015748},{"duration":0.09375,"midi":46,"time":458.25,"velocity":0.3937007874015748},{"duration":0.09375,"midi":75,"time":458.25,"velocity":0.3937007874015748},{"duration":0.09375,"midi":39,"time":458.25,"velocity":0.3937007874015748},{"duration":0.09375,"midi":27,"time":458.25,"velocity":0.3937007874015748},{"duration":0.09375,"midi":51,"time":458.25,"velocity":0.3937007874015748},{"duration":0.09375,"midi":54,"time":458.25,"velocity":0.3937007874015748},{"duration":0.09375,"midi":63,"time":458.4375,"velocity":0.3937007874015748},{"duration":0.09375,"midi":27,"time":458.4375,"velocity":0.3937007874015748},{"duration":0.09375,"midi":78,"time":458.4375,"velocity":0.3937007874015748},{"duration":0.09375,"midi":70,"time":458.4375,"velocity":0.3937007874015748},{"duration":0.09375,"midi":75,"time":458.4375,"velocity":0.3937007874015748},{"duration":0.09375,"midi":54,"time":458.4375,"velocity":0.3937007874015748},{"duration":0.09375,"midi":42,"time":458.4375,"velocity":0.3937007874015748},{"duration":0.09375,"midi":90,"time":458.4375,"velocity":0.3937007874015748},{"duration":0.09375,"midi":46,"time":458.4375,"velocity":0.3937007874015748},{"duration":0.09375,"midi":39,"time":458.4375,"velocity":0.3937007874015748},{"duration":0.09375,"midi":51,"time":458.4375,"velocity":0.3937007874015748},{"duration":0.09375,"midi":58,"time":458.4375,"velocity":0.3937007874015748},{"duration":0.09375,"midi":30,"time":458.4375,"velocity":0.3937007874015748},{"duration":0.09375,"midi":87,"time":458.4375,"velocity":0.3937007874015748},{"duration":0.09375,"midi":66,"time":458.4375,"velocity":0.3937007874015748},{"duration":0.09375,"midi":34,"time":458.4375,"velocity":0.3937007874015748},{"duration":0.09375,"midi":82,"time":458.4375,"velocity":0.3937007874015748},{"duration":0.09375,"midi":94,"time":458.4375,"velocity":0.3937007874015748},{"duration":0.09375,"midi":54,"time":458.625,"velocity":0.3937007874015748},{"duration":0.09375,"midi":82,"time":458.625,"velocity":0.3937007874015748},{"duration":0.09375,"midi":58,"time":458.625,"velocity":0.3937007874015748},{"duration":0.09375,"midi":90,"time":458.625,"velocity":0.3937007874015748},{"duration":0.09375,"midi":46,"time":458.625,"velocity":0.3937007874015748},{"duration":0.09375,"midi":27,"time":458.625,"velocity":0.3937007874015748},{"duration":0.09375,"midi":78,"time":458.625,"velocity":0.3937007874015748},{"duration":0.09375,"midi":34,"time":458.625,"velocity":0.3937007874015748},{"duration":0.09375,"midi":75,"time":458.625,"velocity":0.3937007874015748},{"duration":0.09375,"midi":66,"time":458.625,"velocity":0.3937007874015748},{"duration":0.09375,"midi":42,"time":458.625,"velocity":0.3937007874015748},{"duration":0.09375,"midi":94,"time":458.625,"velocity":0.3937007874015748},{"duration":0.09375,"midi":63,"time":458.625,"velocity":0.3937007874015748},{"duration":0.09375,"midi":51,"time":458.625,"velocity":0.3937007874015748},{"duration":0.09375,"midi":87,"time":458.625,"velocity":0.3937007874015748},{"duration":0.09375,"midi":39,"time":458.625,"velocity":0.3937007874015748},{"duration":0.09375,"midi":70,"time":458.625,"velocity":0.3937007874015748},{"duration":0.09375,"midi":30,"time":458.625,"velocity":0.3937007874015748},{"duration":0.09375,"midi":63,"time":458.8125,"velocity":0.3937007874015748},{"duration":0.09375,"midi":27,"time":458.8125,"velocity":0.3937007874015748},{"duration":0.09375,"midi":51,"time":458.8125,"velocity":0.3937007874015748},{"duration":0.09375,"midi":54,"time":458.8125,"velocity":0.3937007874015748},{"duration":0.09375,"midi":78,"time":458.8125,"velocity":0.3937007874015748},{"duration":0.09375,"midi":34,"time":458.8125,"velocity":0.3937007874015748},{"duration":0.09375,"midi":66,"time":458.8125,"velocity":0.3937007874015748},{"duration":0.09375,"midi":94,"time":458.8125,"velocity":0.3937007874015748},{"duration":0.09375,"midi":39,"time":458.8125,"velocity":0.3937007874015748},{"duration":0.09375,"midi":70,"time":458.8125,"velocity":0.3937007874015748},{"duration":0.09375,"midi":58,"time":458.8125,"velocity":0.3937007874015748},{"duration":0.09375,"midi":75,"time":458.8125,"velocity":0.3937007874015748},{"duration":0.09375,"midi":90,"time":458.8125,"velocity":0.3937007874015748},{"duration":0.09375,"midi":87,"time":458.8125,"velocity":0.3937007874015748},{"duration":0.09375,"midi":30,"time":458.8125,"velocity":0.3937007874015748},{"duration":0.09375,"midi":42,"time":458.8125,"velocity":0.3937007874015748},{"duration":0.09375,"midi":82,"time":458.8125,"velocity":0.3937007874015748},{"duration":0.09375,"midi":46,"time":458.8125,"velocity":0.3937007874015748},{"duration":0.09375,"midi":65,"time":459,"velocity":0.3937007874015748},{"duration":0.09375,"midi":77,"time":459,"velocity":0.3937007874015748},{"duration":0.09375,"midi":85,"time":459,"velocity":0.3937007874015748},{"duration":0.09375,"midi":61,"time":459,"velocity":0.3937007874015748},{"duration":0.09375,"midi":34,"time":459,"velocity":0.3937007874015748},{"duration":0.09375,"midi":49,"time":459,"velocity":0.3937007874015748},{"duration":0.09375,"midi":37,"time":459,"velocity":0.3937007874015748},{"duration":0.09375,"midi":25,"time":459,"velocity":0.3937007874015748},{"duration":0.09375,"midi":73,"time":459,"velocity":0.3937007874015748},{"duration":0.09375,"midi":94,"time":459,"velocity":0.3937007874015748},{"duration":0.09375,"midi":53,"time":459,"velocity":0.3937007874015748},{"duration":0.09375,"midi":70,"time":459,"velocity":0.3937007874015748},{"duration":0.09375,"midi":29,"time":459,"velocity":0.3937007874015748},{"duration":0.09375,"midi":89,"time":459,"velocity":0.3937007874015748},{"duration":0.09375,"midi":58,"time":459,"velocity":0.3937007874015748},{"duration":0.09375,"midi":46,"time":459,"velocity":0.3937007874015748},{"duration":0.09375,"midi":41,"time":459,"velocity":0.3937007874015748},{"duration":0.09375,"midi":82,"time":459,"velocity":0.3937007874015748},{"duration":0.09375,"midi":70,"time":459.1875,"velocity":0.3937007874015748},{"duration":0.09375,"midi":89,"time":459.1875,"velocity":0.3937007874015748},{"duration":0.09375,"midi":37,"time":459.1875,"velocity":0.3937007874015748},{"duration":0.09375,"midi":58,"time":459.1875,"velocity":0.3937007874015748},{"duration":0.09375,"midi":49,"time":459.1875,"velocity":0.3937007874015748},{"duration":0.09375,"midi":53,"time":459.1875,"velocity":0.3937007874015748},{"duration":0.09375,"midi":34,"time":459.1875,"velocity":0.3937007874015748},{"duration":0.09375,"midi":29,"time":459.1875,"velocity":0.3937007874015748},{"duration":0.09375,"midi":46,"time":459.1875,"velocity":0.3937007874015748},{"duration":0.09375,"midi":77,"time":459.1875,"velocity":0.3937007874015748},{"duration":0.09375,"midi":94,"time":459.1875,"velocity":0.3937007874015748},{"duration":0.09375,"midi":73,"time":459.1875,"velocity":0.3937007874015748},{"duration":0.09375,"midi":61,"time":459.1875,"velocity":0.3937007874015748},{"duration":0.09375,"midi":85,"time":459.1875,"velocity":0.3937007874015748},{"duration":0.09375,"midi":82,"time":459.1875,"velocity":0.3937007874015748},{"duration":0.09375,"midi":25,"time":459.1875,"velocity":0.3937007874015748},{"duration":0.09375,"midi":41,"time":459.1875,"velocity":0.3937007874015748},{"duration":0.09375,"midi":65,"time":459.1875,"velocity":0.3937007874015748},{"duration":0.09375,"midi":29,"time":459.375,"velocity":0.3937007874015748},{"duration":0.09375,"midi":58,"time":459.375,"velocity":0.3937007874015748},{"duration":0.09375,"midi":89,"time":459.375,"velocity":0.3937007874015748},{"duration":0.09375,"midi":37,"time":459.375,"velocity":0.3937007874015748},{"duration":0.09375,"midi":85,"time":459.375,"velocity":0.3937007874015748},{"duration":0.09375,"midi":34,"time":459.375,"velocity":0.3937007874015748},{"duration":0.09375,"midi":25,"time":459.375,"velocity":0.3937007874015748},{"duration":0.09375,"midi":53,"time":459.375,"velocity":0.3937007874015748},{"duration":0.09375,"midi":73,"time":459.375,"velocity":0.3937007874015748},{"duration":0.09375,"midi":46,"time":459.375,"velocity":0.3937007874015748},{"duration":0.09375,"midi":61,"time":459.375,"velocity":0.3937007874015748},{"duration":0.09375,"midi":70,"time":459.375,"velocity":0.3937007874015748},{"duration":0.09375,"midi":82,"time":459.375,"velocity":0.3937007874015748},{"duration":0.09375,"midi":94,"time":459.375,"velocity":0.3937007874015748},{"duration":0.09375,"midi":41,"time":459.375,"velocity":0.3937007874015748},{"duration":0.09375,"midi":65,"time":459.375,"velocity":0.3937007874015748},{"duration":0.09375,"midi":77,"time":459.375,"velocity":0.3937007874015748},{"duration":0.09375,"midi":49,"time":459.375,"velocity":0.3937007874015748},{"duration":0.09375,"midi":41,"time":459.5625,"velocity":0.3937007874015748},{"duration":0.09375,"midi":58,"time":459.5625,"velocity":0.3937007874015748},{"duration":0.09375,"midi":49,"time":459.5625,"velocity":0.3937007874015748},{"duration":0.09375,"midi":85,"time":459.5625,"velocity":0.3937007874015748},{"duration":0.09375,"midi":46,"time":459.5625,"velocity":0.3937007874015748},{"duration":0.09375,"midi":29,"time":459.5625,"velocity":0.3937007874015748},{"duration":0.09375,"midi":37,"time":459.5625,"velocity":0.3937007874015748},{"duration":0.09375,"midi":70,"time":459.5625,"velocity":0.3937007874015748},{"duration":0.09375,"midi":53,"time":459.5625,"velocity":0.3937007874015748},{"duration":0.09375,"midi":34,"time":459.5625,"velocity":0.3937007874015748},{"duration":0.09375,"midi":25,"time":459.5625,"velocity":0.3937007874015748},{"duration":0.09375,"midi":61,"time":459.5625,"velocity":0.3937007874015748},{"duration":0.09375,"midi":77,"time":459.5625,"velocity":0.3937007874015748},{"duration":0.09375,"midi":89,"time":459.5625,"velocity":0.3937007874015748},{"duration":0.09375,"midi":82,"time":459.5625,"velocity":0.3937007874015748},{"duration":0.09375,"midi":73,"time":459.5625,"velocity":0.3937007874015748},{"duration":0.09375,"midi":65,"time":459.5625,"velocity":0.3937007874015748},{"duration":0.09375,"midi":94,"time":459.5625,"velocity":0.3937007874015748},{"duration":0.09375,"midi":65,"time":459.75,"velocity":0.3937007874015748},{"duration":0.09375,"midi":46,"time":459.75,"velocity":0.3937007874015748},{"duration":0.09375,"midi":25,"time":459.75,"velocity":0.3937007874015748},{"duration":0.09375,"midi":73,"time":459.75,"velocity":0.3937007874015748},{"duration":0.09375,"midi":58,"time":459.75,"velocity":0.3937007874015748},{"duration":0.09375,"midi":41,"time":459.75,"velocity":0.3937007874015748},{"duration":0.09375,"midi":85,"time":459.75,"velocity":0.3937007874015748},{"duration":0.09375,"midi":49,"time":459.75,"velocity":0.3937007874015748},{"duration":0.09375,"midi":70,"time":459.75,"velocity":0.3937007874015748},{"duration":0.09375,"midi":53,"time":459.75,"velocity":0.3937007874015748},{"duration":0.09375,"midi":89,"time":459.75,"velocity":0.3937007874015748},{"duration":0.09375,"midi":29,"time":459.75,"velocity":0.3937007874015748},{"duration":0.09375,"midi":94,"time":459.75,"velocity":0.3937007874015748},{"duration":0.09375,"midi":61,"time":459.75,"velocity":0.3937007874015748},{"duration":0.09375,"midi":34,"time":459.75,"velocity":0.3937007874015748},{"duration":0.09375,"midi":77,"time":459.75,"velocity":0.3937007874015748},{"duration":0.09375,"midi":37,"time":459.75,"velocity":0.3937007874015748},{"duration":0.09375,"midi":82,"time":459.75,"velocity":0.3937007874015748},{"duration":0.09375,"midi":41,"time":459.9375,"velocity":0.3937007874015748},{"duration":0.09375,"midi":34,"time":459.9375,"velocity":0.3937007874015748},{"duration":0.09375,"midi":53,"time":459.9375,"velocity":0.3937007874015748},{"duration":0.09375,"midi":85,"time":459.9375,"velocity":0.3937007874015748},{"duration":0.09375,"midi":25,"time":459.9375,"velocity":0.3937007874015748},{"duration":0.09375,"midi":58,"time":459.9375,"velocity":0.3937007874015748},{"duration":0.09375,"midi":94,"time":459.9375,"velocity":0.3937007874015748},{"duration":0.09375,"midi":73,"time":459.9375,"velocity":0.3937007874015748},{"duration":0.09375,"midi":82,"time":459.9375,"velocity":0.3937007874015748},{"duration":0.09375,"midi":37,"time":459.9375,"velocity":0.3937007874015748},{"duration":0.09375,"midi":61,"time":459.9375,"velocity":0.3937007874015748},{"duration":0.09375,"midi":65,"time":459.9375,"velocity":0.3937007874015748},{"duration":0.09375,"midi":46,"time":459.9375,"velocity":0.3937007874015748},{"duration":0.09375,"midi":77,"time":459.9375,"velocity":0.3937007874015748},{"duration":0.09375,"midi":70,"time":459.9375,"velocity":0.3937007874015748},{"duration":0.09375,"midi":89,"time":459.9375,"velocity":0.3937007874015748},{"duration":0.09375,"midi":49,"time":459.9375,"velocity":0.3937007874015748},{"duration":0.09375,"midi":29,"time":459.9375,"velocity":0.3937007874015748},{"duration":0.09375,"midi":37,"time":460.125,"velocity":0.3937007874015748},{"duration":0.09375,"midi":34,"time":460.125,"velocity":0.3937007874015748},{"duration":0.09375,"midi":82,"time":460.125,"velocity":0.3937007874015748},{"duration":0.09375,"midi":58,"time":460.125,"velocity":0.3937007874015748},{"duration":0.09375,"midi":29,"time":460.125,"velocity":0.3937007874015748},{"duration":0.09375,"midi":61,"time":460.125,"velocity":0.3937007874015748},{"duration":0.09375,"midi":65,"time":460.125,"velocity":0.3937007874015748},{"duration":0.09375,"midi":25,"time":460.125,"velocity":0.3937007874015748},{"duration":0.09375,"midi":89,"time":460.125,"velocity":0.3937007874015748},{"duration":0.09375,"midi":41,"time":460.125,"velocity":0.3937007874015748},{"duration":0.09375,"midi":77,"time":460.125,"velocity":0.3937007874015748},{"duration":0.09375,"midi":85,"time":460.125,"velocity":0.3937007874015748},{"duration":0.09375,"midi":94,"time":460.125,"velocity":0.3937007874015748},{"duration":0.09375,"midi":46,"time":460.125,"velocity":0.3937007874015748},{"duration":0.09375,"midi":73,"time":460.125,"velocity":0.3937007874015748},{"duration":0.09375,"midi":49,"time":460.125,"velocity":0.3937007874015748},{"duration":0.09375,"midi":70,"time":460.125,"velocity":0.3937007874015748},{"duration":0.09375,"midi":53,"time":460.125,"velocity":0.3937007874015748},{"duration":0.09375,"midi":70,"time":460.3125,"velocity":0.3937007874015748},{"duration":0.09375,"midi":85,"time":460.3125,"velocity":0.3937007874015748},{"duration":0.09375,"midi":41,"time":460.3125,"velocity":0.3937007874015748},{"duration":0.09375,"midi":37,"time":460.3125,"velocity":0.3937007874015748},{"duration":0.09375,"midi":77,"time":460.3125,"velocity":0.3937007874015748},{"duration":0.09375,"midi":49,"time":460.3125,"velocity":0.3937007874015748},{"duration":0.09375,"midi":89,"time":460.3125,"velocity":0.3937007874015748},{"duration":0.09375,"midi":65,"time":460.3125,"velocity":0.3937007874015748},{"duration":0.09375,"midi":46,"time":460.3125,"velocity":0.3937007874015748},{"duration":0.09375,"midi":94,"time":460.3125,"velocity":0.3937007874015748},{"duration":0.09375,"midi":61,"time":460.3125,"velocity":0.3937007874015748},{"duration":0.09375,"midi":73,"time":460.3125,"velocity":0.3937007874015748},{"duration":0.09375,"midi":25,"time":460.3125,"velocity":0.3937007874015748},{"duration":0.09375,"midi":58,"time":460.3125,"velocity":0.3937007874015748},{"duration":0.09375,"midi":53,"time":460.3125,"velocity":0.3937007874015748},{"duration":0.09375,"midi":29,"time":460.3125,"velocity":0.3937007874015748},{"duration":0.09375,"midi":82,"time":460.3125,"velocity":0.3937007874015748},{"duration":0.09375,"midi":34,"time":460.3125,"velocity":0.3937007874015748},{"duration":0.09375,"midi":58,"time":460.5,"velocity":0.3937007874015748},{"duration":0.09375,"midi":77,"time":460.5,"velocity":0.3937007874015748},{"duration":0.09375,"midi":89,"time":460.5,"velocity":0.3937007874015748},{"duration":0.09375,"midi":46,"time":460.5,"velocity":0.3937007874015748},{"duration":0.09375,"midi":82,"time":460.5,"velocity":0.3937007874015748},{"duration":0.09375,"midi":34,"time":460.5,"velocity":0.3937007874015748},{"duration":0.09375,"midi":25,"time":460.5,"velocity":0.3937007874015748},{"duration":0.09375,"midi":73,"time":460.5,"velocity":0.3937007874015748},{"duration":0.09375,"midi":85,"time":460.5,"velocity":0.3937007874015748},{"duration":0.09375,"midi":41,"time":460.5,"velocity":0.3937007874015748},{"duration":0.09375,"midi":29,"time":460.5,"velocity":0.3937007874015748},{"duration":0.09375,"midi":65,"time":460.5,"velocity":0.3937007874015748},{"duration":0.09375,"midi":94,"time":460.5,"velocity":0.3937007874015748},{"duration":0.09375,"midi":53,"time":460.5,"velocity":0.3937007874015748},{"duration":0.09375,"midi":61,"time":460.5,"velocity":0.3937007874015748},{"duration":0.09375,"midi":70,"time":460.5,"velocity":0.3937007874015748},{"duration":0.09375,"midi":37,"time":460.5,"velocity":0.3937007874015748},{"duration":0.09375,"midi":49,"time":460.5,"velocity":0.3937007874015748},{"duration":0.09375,"midi":37,"time":460.6875,"velocity":0.3937007874015748},{"duration":0.09375,"midi":73,"time":460.6875,"velocity":0.3937007874015748},{"duration":0.09375,"midi":85,"time":460.6875,"velocity":0.3937007874015748},{"duration":0.09375,"midi":89,"time":460.6875,"velocity":0.3937007874015748},{"duration":0.09375,"midi":46,"time":460.6875,"velocity":0.3937007874015748},{"duration":0.09375,"midi":53,"time":460.6875,"velocity":0.3937007874015748},{"duration":0.09375,"midi":49,"time":460.6875,"velocity":0.3937007874015748},{"duration":0.09375,"midi":82,"time":460.6875,"velocity":0.3937007874015748},{"duration":0.09375,"midi":70,"time":460.6875,"velocity":0.3937007874015748},{"duration":0.09375,"midi":34,"time":460.6875,"velocity":0.3937007874015748},{"duration":0.09375,"midi":25,"time":460.6875,"velocity":0.3937007874015748},{"duration":0.09375,"midi":77,"time":460.6875,"velocity":0.3937007874015748},{"duration":0.09375,"midi":29,"time":460.6875,"velocity":0.3937007874015748},{"duration":0.09375,"midi":58,"time":460.6875,"velocity":0.3937007874015748},{"duration":0.09375,"midi":65,"time":460.6875,"velocity":0.3937007874015748},{"duration":0.09375,"midi":41,"time":460.6875,"velocity":0.3937007874015748},{"duration":0.09375,"midi":61,"time":460.6875,"velocity":0.3937007874015748},{"duration":0.09375,"midi":94,"time":460.6875,"velocity":0.3937007874015748},{"duration":0.09375,"midi":53,"time":460.875,"velocity":0.3937007874015748},{"duration":0.09375,"midi":77,"time":460.875,"velocity":0.3937007874015748},{"duration":0.09375,"midi":34,"time":460.875,"velocity":0.3937007874015748},{"duration":0.09375,"midi":61,"time":460.875,"velocity":0.3937007874015748},{"duration":0.09375,"midi":49,"time":460.875,"velocity":0.3937007874015748},{"duration":0.09375,"midi":46,"time":460.875,"velocity":0.3937007874015748},{"duration":0.09375,"midi":70,"time":460.875,"velocity":0.3937007874015748},{"duration":0.09375,"midi":29,"time":460.875,"velocity":0.3937007874015748},{"duration":0.09375,"midi":82,"time":460.875,"velocity":0.3937007874015748},{"duration":0.09375,"midi":73,"time":460.875,"velocity":0.3937007874015748},{"duration":0.09375,"midi":89,"time":460.875,"velocity":0.3937007874015748},{"duration":0.09375,"midi":94,"time":460.875,"velocity":0.3937007874015748},{"duration":0.09375,"midi":85,"time":460.875,"velocity":0.3937007874015748},{"duration":0.09375,"midi":65,"time":460.875,"velocity":0.3937007874015748},{"duration":0.09375,"midi":37,"time":460.875,"velocity":0.3937007874015748},{"duration":0.09375,"midi":25,"time":460.875,"velocity":0.3937007874015748},{"duration":0.09375,"midi":58,"time":460.875,"velocity":0.3937007874015748},{"duration":0.09375,"midi":41,"time":460.875,"velocity":0.3937007874015748},{"duration":0.09375,"midi":46,"time":461.0625,"velocity":0.3937007874015748},{"duration":0.09375,"midi":41,"time":461.0625,"velocity":0.3937007874015748},{"duration":0.09375,"midi":82,"time":461.0625,"velocity":0.3937007874015748},{"duration":0.09375,"midi":37,"time":461.0625,"velocity":0.3937007874015748},{"duration":0.09375,"midi":70,"time":461.0625,"velocity":0.3937007874015748},{"duration":0.09375,"midi":85,"time":461.0625,"velocity":0.3937007874015748},{"duration":0.09375,"midi":61,"time":461.0625,"velocity":0.3937007874015748},{"duration":0.09375,"midi":25,"time":461.0625,"velocity":0.3937007874015748},{"duration":0.09375,"midi":65,"time":461.0625,"velocity":0.3937007874015748},{"duration":0.09375,"midi":49,"time":461.0625,"velocity":0.3937007874015748},{"duration":0.09375,"midi":58,"time":461.0625,"velocity":0.3937007874015748},{"duration":0.09375,"midi":89,"time":461.0625,"velocity":0.3937007874015748},{"duration":0.09375,"midi":73,"time":461.0625,"velocity":0.3937007874015748},{"duration":0.09375,"midi":77,"time":461.0625,"velocity":0.3937007874015748},{"duration":0.09375,"midi":34,"time":461.0625,"velocity":0.3937007874015748},{"duration":0.09375,"midi":53,"time":461.0625,"velocity":0.3937007874015748},{"duration":0.09375,"midi":94,"time":461.0625,"velocity":0.3937007874015748},{"duration":0.09375,"midi":29,"time":461.0625,"velocity":0.3937007874015748},{"duration":0.09375,"midi":77,"time":461.25,"velocity":0.3937007874015748},{"duration":0.09375,"midi":65,"time":461.25,"velocity":0.3937007874015748},{"duration":0.09375,"midi":53,"time":461.25,"velocity":0.3937007874015748},{"duration":0.09375,"midi":49,"time":461.25,"velocity":0.3937007874015748},{"duration":0.09375,"midi":46,"time":461.25,"velocity":0.3937007874015748},{"duration":0.09375,"midi":94,"time":461.25,"velocity":0.3937007874015748},{"duration":0.09375,"midi":82,"time":461.25,"velocity":0.3937007874015748},{"duration":0.09375,"midi":37,"time":461.25,"velocity":0.3937007874015748},{"duration":0.09375,"midi":89,"time":461.25,"velocity":0.3937007874015748},{"duration":0.09375,"midi":41,"time":461.25,"velocity":0.3937007874015748},{"duration":0.09375,"midi":29,"time":461.25,"velocity":0.3937007874015748},{"duration":0.09375,"midi":25,"time":461.25,"velocity":0.3937007874015748},{"duration":0.09375,"midi":70,"time":461.25,"velocity":0.3937007874015748},{"duration":0.09375,"midi":58,"time":461.25,"velocity":0.3937007874015748},{"duration":0.09375,"midi":73,"time":461.25,"velocity":0.3937007874015748},{"duration":0.09375,"midi":61,"time":461.25,"velocity":0.3937007874015748},{"duration":0.09375,"midi":34,"time":461.25,"velocity":0.3937007874015748},{"duration":0.09375,"midi":85,"time":461.25,"velocity":0.3937007874015748},{"duration":0.09375,"midi":53,"time":461.4375,"velocity":0.3937007874015748},{"duration":0.09375,"midi":77,"time":461.4375,"velocity":0.3937007874015748},{"duration":0.09375,"midi":49,"time":461.4375,"velocity":0.3937007874015748},{"duration":0.09375,"midi":58,"time":461.4375,"velocity":0.3937007874015748},{"duration":0.09375,"midi":70,"time":461.4375,"velocity":0.3937007874015748},{"duration":0.09375,"midi":61,"time":461.4375,"velocity":0.3937007874015748},{"duration":0.09375,"midi":41,"time":461.4375,"velocity":0.3937007874015748},{"duration":0.09375,"midi":85,"time":461.4375,"velocity":0.3937007874015748},{"duration":0.09375,"midi":34,"time":461.4375,"velocity":0.3937007874015748},{"duration":0.09375,"midi":89,"time":461.4375,"velocity":0.3937007874015748},{"duration":0.09375,"midi":25,"time":461.4375,"velocity":0.3937007874015748},{"duration":0.09375,"midi":94,"time":461.4375,"velocity":0.3937007874015748},{"duration":0.09375,"midi":29,"time":461.4375,"velocity":0.3937007874015748},{"duration":0.09375,"midi":37,"time":461.4375,"velocity":0.3937007874015748},{"duration":0.09375,"midi":73,"time":461.4375,"velocity":0.3937007874015748},{"duration":0.09375,"midi":82,"time":461.4375,"velocity":0.3937007874015748},{"duration":0.09375,"midi":46,"time":461.4375,"velocity":0.3937007874015748},{"duration":0.09375,"midi":65,"time":461.4375,"velocity":0.3937007874015748},{"duration":0.09375,"midi":73,"time":461.625,"velocity":0.3937007874015748},{"duration":0.09375,"midi":94,"time":461.625,"velocity":0.3937007874015748},{"duration":0.09375,"midi":85,"time":461.625,"velocity":0.3937007874015748},{"duration":0.09375,"midi":25,"time":461.625,"velocity":0.3937007874015748},{"duration":0.09375,"midi":41,"time":461.625,"velocity":0.3937007874015748},{"duration":0.09375,"midi":46,"time":461.625,"velocity":0.3937007874015748},{"duration":0.09375,"midi":34,"time":461.625,"velocity":0.3937007874015748},{"duration":0.09375,"midi":37,"time":461.625,"velocity":0.3937007874015748},{"duration":0.09375,"midi":70,"time":461.625,"velocity":0.3937007874015748},{"duration":0.09375,"midi":89,"time":461.625,"velocity":0.3937007874015748},{"duration":0.09375,"midi":65,"time":461.625,"velocity":0.3937007874015748},{"duration":0.09375,"midi":61,"time":461.625,"velocity":0.3937007874015748},{"duration":0.09375,"midi":29,"time":461.625,"velocity":0.3937007874015748},{"duration":0.09375,"midi":82,"time":461.625,"velocity":0.3937007874015748},{"duration":0.09375,"midi":77,"time":461.625,"velocity":0.3937007874015748},{"duration":0.09375,"midi":53,"time":461.625,"velocity":0.3937007874015748},{"duration":0.09375,"midi":49,"time":461.625,"velocity":0.3937007874015748},{"duration":0.09375,"midi":58,"time":461.625,"velocity":0.3937007874015748},{"duration":0.09375,"midi":46,"time":461.8125,"velocity":0.3937007874015748},{"duration":0.09375,"midi":77,"time":461.8125,"velocity":0.3937007874015748},{"duration":0.09375,"midi":25,"time":461.8125,"velocity":0.3937007874015748},{"duration":0.09375,"midi":58,"time":461.8125,"velocity":0.3937007874015748},{"duration":0.09375,"midi":73,"time":461.8125,"velocity":0.3937007874015748},{"duration":0.09375,"midi":94,"time":461.8125,"velocity":0.3937007874015748},{"duration":0.09375,"midi":89,"time":461.8125,"velocity":0.3937007874015748},{"duration":0.09375,"midi":85,"time":461.8125,"velocity":0.3937007874015748},{"duration":0.09375,"midi":53,"time":461.8125,"velocity":0.3937007874015748},{"duration":0.09375,"midi":37,"time":461.8125,"velocity":0.3937007874015748},{"duration":0.09375,"midi":29,"time":461.8125,"velocity":0.3937007874015748},{"duration":0.09375,"midi":70,"time":461.8125,"velocity":0.3937007874015748},{"duration":0.09375,"midi":34,"time":461.8125,"velocity":0.3937007874015748},{"duration":0.09375,"midi":41,"time":461.8125,"velocity":0.3937007874015748},{"duration":0.09375,"midi":65,"time":461.8125,"velocity":0.3937007874015748},{"duration":0.09375,"midi":82,"time":461.8125,"velocity":0.3937007874015748},{"duration":0.09375,"midi":49,"time":461.8125,"velocity":0.3937007874015748},{"duration":0.09375,"midi":61,"time":461.8125,"velocity":0.3937007874015748},{"duration":0.09375,"midi":84,"time":462,"velocity":0.3937007874015748},{"duration":0.09375,"midi":55,"time":462,"velocity":0.3937007874015748},{"duration":0.09375,"midi":31,"time":462,"velocity":0.3937007874015748},{"duration":0.09375,"midi":67,"time":462,"velocity":0.3937007874015748},{"duration":0.09375,"midi":28,"time":462,"velocity":0.3937007874015748},{"duration":0.09375,"midi":52,"time":462,"velocity":0.3937007874015748},{"duration":0.09375,"midi":43,"time":462,"velocity":0.3937007874015748},{"duration":0.09375,"midi":72,"time":462,"velocity":0.3937007874015748},{"duration":0.09375,"midi":79,"time":462,"velocity":0.3937007874015748},{"duration":0.09375,"midi":36,"time":462,"velocity":0.3937007874015748},{"duration":0.09375,"midi":24,"time":462,"velocity":0.3937007874015748},{"duration":0.09375,"midi":76,"time":462,"velocity":0.3937007874015748},{"duration":0.09375,"midi":91,"time":462,"velocity":0.3937007874015748},{"duration":0.09375,"midi":60,"time":462,"velocity":0.3937007874015748},{"duration":0.09375,"midi":88,"time":462,"velocity":0.3937007874015748},{"duration":0.09375,"midi":40,"time":462,"velocity":0.3937007874015748},{"duration":0.09375,"midi":48,"time":462,"velocity":0.3937007874015748},{"duration":0.09375,"midi":64,"time":462,"velocity":0.3937007874015748},{"duration":0.09375,"midi":60,"time":462.1875,"velocity":0.3937007874015748},{"duration":0.09375,"midi":64,"time":462.1875,"velocity":0.3937007874015748},{"duration":0.09375,"midi":84,"time":462.1875,"velocity":0.3937007874015748},{"duration":0.09375,"midi":79,"time":462.1875,"velocity":0.3937007874015748},{"duration":0.09375,"midi":31,"time":462.1875,"velocity":0.3937007874015748},{"duration":0.09375,"midi":76,"time":462.1875,"velocity":0.3937007874015748},{"duration":0.09375,"midi":88,"time":462.1875,"velocity":0.3937007874015748},{"duration":0.09375,"midi":28,"time":462.1875,"velocity":0.3937007874015748},{"duration":0.09375,"midi":43,"time":462.1875,"velocity":0.3937007874015748},{"duration":0.09375,"midi":55,"time":462.1875,"velocity":0.3937007874015748},{"duration":0.09375,"midi":67,"time":462.1875,"velocity":0.3937007874015748},{"duration":0.09375,"midi":91,"time":462.1875,"velocity":0.3937007874015748},{"duration":0.09375,"midi":24,"time":462.1875,"velocity":0.3937007874015748},{"duration":0.09375,"midi":72,"time":462.1875,"velocity":0.3937007874015748},{"duration":0.09375,"midi":48,"time":462.1875,"velocity":0.3937007874015748},{"duration":0.09375,"midi":40,"time":462.1875,"velocity":0.3937007874015748},{"duration":0.09375,"midi":52,"time":462.1875,"velocity":0.3937007874015748},{"duration":0.09375,"midi":36,"time":462.1875,"velocity":0.3937007874015748},{"duration":0.09375,"midi":72,"time":462.375,"velocity":0.3937007874015748},{"duration":0.09375,"midi":76,"time":462.375,"velocity":0.3937007874015748},{"duration":0.09375,"midi":88,"time":462.375,"velocity":0.3937007874015748},{"duration":0.09375,"midi":64,"time":462.375,"velocity":0.3937007874015748},{"duration":0.09375,"midi":48,"time":462.375,"velocity":0.3937007874015748},{"duration":0.09375,"midi":52,"time":462.375,"velocity":0.3937007874015748},{"duration":0.09375,"midi":91,"time":462.375,"velocity":0.3937007874015748},{"duration":0.09375,"midi":79,"time":462.375,"velocity":0.3937007874015748},{"duration":0.09375,"midi":43,"time":462.375,"velocity":0.3937007874015748},{"duration":0.09375,"midi":31,"time":462.375,"velocity":0.3937007874015748},{"duration":0.09375,"midi":28,"time":462.375,"velocity":0.3937007874015748},{"duration":0.09375,"midi":60,"time":462.375,"velocity":0.3937007874015748},{"duration":0.09375,"midi":40,"time":462.375,"velocity":0.3937007874015748},{"duration":0.09375,"midi":24,"time":462.375,"velocity":0.3937007874015748},{"duration":0.09375,"midi":84,"time":462.375,"velocity":0.3937007874015748},{"duration":0.09375,"midi":36,"time":462.375,"velocity":0.3937007874015748},{"duration":0.09375,"midi":67,"time":462.375,"velocity":0.3937007874015748},{"duration":0.09375,"midi":55,"time":462.375,"velocity":0.3937007874015748},{"duration":0.09375,"midi":76,"time":462.5625,"velocity":0.3937007874015748},{"duration":0.09375,"midi":52,"time":462.5625,"velocity":0.3937007874015748},{"duration":0.09375,"midi":84,"time":462.5625,"velocity":0.3937007874015748},{"duration":0.09375,"midi":31,"time":462.5625,"velocity":0.3937007874015748},{"duration":0.09375,"midi":43,"time":462.5625,"velocity":0.3937007874015748},{"duration":0.09375,"midi":40,"time":462.5625,"velocity":0.3937007874015748},{"duration":0.09375,"midi":88,"time":462.5625,"velocity":0.3937007874015748},{"duration":0.09375,"midi":67,"time":462.5625,"velocity":0.3937007874015748},{"duration":0.09375,"midi":36,"time":462.5625,"velocity":0.3937007874015748},{"duration":0.09375,"midi":28,"time":462.5625,"velocity":0.3937007874015748},{"duration":0.09375,"midi":24,"time":462.5625,"velocity":0.3937007874015748},{"duration":0.09375,"midi":79,"time":462.5625,"velocity":0.3937007874015748},{"duration":0.09375,"midi":48,"time":462.5625,"velocity":0.3937007874015748},{"duration":0.09375,"midi":55,"time":462.5625,"velocity":0.3937007874015748},{"duration":0.09375,"midi":72,"time":462.5625,"velocity":0.3937007874015748},{"duration":0.09375,"midi":64,"time":462.5625,"velocity":0.3937007874015748},{"duration":0.09375,"midi":91,"time":462.5625,"velocity":0.3937007874015748},{"duration":0.09375,"midi":60,"time":462.5625,"velocity":0.3937007874015748},{"duration":0.09375,"midi":67,"time":462.75,"velocity":0.3937007874015748},{"duration":0.09375,"midi":88,"time":462.75,"velocity":0.3937007874015748},{"duration":0.09375,"midi":31,"time":462.75,"velocity":0.3937007874015748},{"duration":0.09375,"midi":76,"time":462.75,"velocity":0.3937007874015748},{"duration":0.09375,"midi":55,"time":462.75,"velocity":0.3937007874015748},{"duration":0.09375,"midi":48,"time":462.75,"velocity":0.3937007874015748},{"duration":0.09375,"midi":91,"time":462.75,"velocity":0.3937007874015748},{"duration":0.09375,"midi":64,"time":462.75,"velocity":0.3937007874015748},{"duration":0.09375,"midi":84,"time":462.75,"velocity":0.3937007874015748},{"duration":0.09375,"midi":43,"time":462.75,"velocity":0.3937007874015748},{"duration":0.09375,"midi":28,"time":462.75,"velocity":0.3937007874015748},{"duration":0.09375,"midi":72,"time":462.75,"velocity":0.3937007874015748},{"duration":0.09375,"midi":36,"time":462.75,"velocity":0.3937007874015748},{"duration":0.09375,"midi":60,"time":462.75,"velocity":0.3937007874015748},{"duration":0.09375,"midi":40,"time":462.75,"velocity":0.3937007874015748},{"duration":0.09375,"midi":79,"time":462.75,"velocity":0.3937007874015748},{"duration":0.09375,"midi":52,"time":462.75,"velocity":0.3937007874015748},{"duration":0.09375,"midi":24,"time":462.75,"velocity":0.3937007874015748},{"duration":0.09375,"midi":40,"time":462.9375,"velocity":0.3937007874015748},{"duration":0.09375,"midi":84,"time":462.9375,"velocity":0.3937007874015748},{"duration":0.09375,"midi":24,"time":462.9375,"velocity":0.3937007874015748},{"duration":0.09375,"midi":91,"time":462.9375,"velocity":0.3937007874015748},{"duration":0.09375,"midi":79,"time":462.9375,"velocity":0.3937007874015748},{"duration":0.09375,"midi":60,"time":462.9375,"velocity":0.3937007874015748},{"duration":0.09375,"midi":31,"time":462.9375,"velocity":0.3937007874015748},{"duration":0.09375,"midi":88,"time":462.9375,"velocity":0.3937007874015748},{"duration":0.09375,"midi":55,"time":462.9375,"velocity":0.3937007874015748},{"duration":0.09375,"midi":36,"time":462.9375,"velocity":0.3937007874015748},{"duration":0.09375,"midi":67,"time":462.9375,"velocity":0.3937007874015748},{"duration":0.09375,"midi":48,"time":462.9375,"velocity":0.3937007874015748},{"duration":0.09375,"midi":72,"time":462.9375,"velocity":0.3937007874015748},{"duration":0.09375,"midi":28,"time":462.9375,"velocity":0.3937007874015748},{"duration":0.09375,"midi":64,"time":462.9375,"velocity":0.3937007874015748},{"duration":0.09375,"midi":43,"time":462.9375,"velocity":0.3937007874015748},{"duration":0.09375,"midi":52,"time":462.9375,"velocity":0.3937007874015748},{"duration":0.09375,"midi":76,"time":462.9375,"velocity":0.3937007874015748},{"duration":0.09375,"midi":79,"time":463.125,"velocity":0.3937007874015748},{"duration":0.09375,"midi":55,"time":463.125,"velocity":0.3937007874015748},{"duration":0.09375,"midi":28,"time":463.125,"velocity":0.3937007874015748},{"duration":0.09375,"midi":48,"time":463.125,"velocity":0.3937007874015748},{"duration":0.09375,"midi":24,"time":463.125,"velocity":0.3937007874015748},{"duration":0.09375,"midi":43,"time":463.125,"velocity":0.3937007874015748},{"duration":0.09375,"midi":60,"time":463.125,"velocity":0.3937007874015748},{"duration":0.09375,"midi":91,"time":463.125,"velocity":0.3937007874015748},{"duration":0.09375,"midi":72,"time":463.125,"velocity":0.3937007874015748},{"duration":0.09375,"midi":52,"time":463.125,"velocity":0.3937007874015748},{"duration":0.09375,"midi":67,"time":463.125,"velocity":0.3937007874015748},{"duration":0.09375,"midi":31,"time":463.125,"velocity":0.3937007874015748},{"duration":0.09375,"midi":76,"time":463.125,"velocity":0.3937007874015748},{"duration":0.09375,"midi":84,"time":463.125,"velocity":0.3937007874015748},{"duration":0.09375,"midi":40,"time":463.125,"velocity":0.3937007874015748},{"duration":0.09375,"midi":64,"time":463.125,"velocity":0.3937007874015748},{"duration":0.09375,"midi":36,"time":463.125,"velocity":0.3937007874015748},{"duration":0.09375,"midi":88,"time":463.125,"velocity":0.3937007874015748},{"duration":0.09375,"midi":64,"time":463.3125,"velocity":0.3937007874015748},{"duration":0.09375,"midi":28,"time":463.3125,"velocity":0.3937007874015748},{"duration":0.09375,"midi":60,"time":463.3125,"velocity":0.3937007874015748},{"duration":0.09375,"midi":52,"time":463.3125,"velocity":0.3937007874015748},{"duration":0.09375,"midi":48,"time":463.3125,"velocity":0.3937007874015748},{"duration":0.09375,"midi":43,"time":463.3125,"velocity":0.3937007874015748},{"duration":0.09375,"midi":76,"time":463.3125,"velocity":0.3937007874015748},{"duration":0.09375,"midi":79,"time":463.3125,"velocity":0.3937007874015748},{"duration":0.09375,"midi":72,"time":463.3125,"velocity":0.3937007874015748},{"duration":0.09375,"midi":91,"time":463.3125,"velocity":0.3937007874015748},{"duration":0.09375,"midi":67,"time":463.3125,"velocity":0.3937007874015748},{"duration":0.09375,"midi":55,"time":463.3125,"velocity":0.3937007874015748},{"duration":0.09375,"midi":24,"time":463.3125,"velocity":0.3937007874015748},{"duration":0.09375,"midi":88,"time":463.3125,"velocity":0.3937007874015748},{"duration":0.09375,"midi":84,"time":463.3125,"velocity":0.3937007874015748},{"duration":0.09375,"midi":40,"time":463.3125,"velocity":0.3937007874015748},{"duration":0.09375,"midi":36,"time":463.3125,"velocity":0.3937007874015748},{"duration":0.09375,"midi":31,"time":463.3125,"velocity":0.3937007874015748},{"duration":0.09375,"midi":67,"time":463.5,"velocity":0.3937007874015748},{"duration":0.09375,"midi":31,"time":463.5,"velocity":0.3937007874015748},{"duration":0.09375,"midi":40,"time":463.5,"velocity":0.3937007874015748},{"duration":0.09375,"midi":48,"time":463.5,"velocity":0.3937007874015748},{"duration":0.09375,"midi":36,"time":463.5,"velocity":0.3937007874015748},{"duration":0.09375,"midi":91,"time":463.5,"velocity":0.3937007874015748},{"duration":0.09375,"midi":84,"time":463.5,"velocity":0.3937007874015748},{"duration":0.09375,"midi":79,"time":463.5,"velocity":0.3937007874015748},{"duration":0.09375,"midi":76,"time":463.5,"velocity":0.3937007874015748},{"duration":0.09375,"midi":52,"time":463.5,"velocity":0.3937007874015748},{"duration":0.09375,"midi":55,"time":463.5,"velocity":0.3937007874015748},{"duration":0.09375,"midi":60,"time":463.5,"velocity":0.3937007874015748},{"duration":0.09375,"midi":64,"time":463.5,"velocity":0.3937007874015748},{"duration":0.09375,"midi":88,"time":463.5,"velocity":0.3937007874015748},{"duration":0.09375,"midi":24,"time":463.5,"velocity":0.3937007874015748},{"duration":0.09375,"midi":72,"time":463.5,"velocity":0.3937007874015748},{"duration":0.09375,"midi":28,"time":463.5,"velocity":0.3937007874015748},{"duration":0.09375,"midi":43,"time":463.5,"velocity":0.3937007874015748},{"duration":0.09375,"midi":84,"time":463.6875,"velocity":0.3937007874015748},{"duration":0.09375,"midi":76,"time":463.6875,"velocity":0.3937007874015748},{"duration":0.09375,"midi":28,"time":463.6875,"velocity":0.3937007874015748},{"duration":0.09375,"midi":48,"time":463.6875,"velocity":0.3937007874015748},{"duration":0.09375,"midi":60,"time":463.6875,"velocity":0.3937007874015748},{"duration":0.09375,"midi":79,"time":463.6875,"velocity":0.3937007874015748},{"duration":0.09375,"midi":67,"time":463.6875,"velocity":0.3937007874015748},{"duration":0.09375,"midi":72,"time":463.6875,"velocity":0.3937007874015748},{"duration":0.09375,"midi":43,"time":463.6875,"velocity":0.3937007874015748},{"duration":0.09375,"midi":24,"time":463.6875,"velocity":0.3937007874015748},{"duration":0.09375,"midi":64,"time":463.6875,"velocity":0.3937007874015748},{"duration":0.09375,"midi":36,"time":463.6875,"velocity":0.3937007874015748},{"duration":0.09375,"midi":91,"time":463.6875,"velocity":0.3937007874015748},{"duration":0.09375,"midi":40,"time":463.6875,"velocity":0.3937007874015748},{"duration":0.09375,"midi":88,"time":463.6875,"velocity":0.3937007874015748},{"duration":0.09375,"midi":52,"time":463.6875,"velocity":0.3937007874015748},{"duration":0.09375,"midi":31,"time":463.6875,"velocity":0.3937007874015748},{"duration":0.09375,"midi":55,"time":463.6875,"velocity":0.3937007874015748},{"duration":0.09375,"midi":88,"time":463.875,"velocity":0.3937007874015748},{"duration":0.09375,"midi":84,"time":463.875,"velocity":0.3937007874015748},{"duration":0.09375,"midi":76,"time":463.875,"velocity":0.3937007874015748},{"duration":0.09375,"midi":36,"time":463.875,"velocity":0.3937007874015748},{"duration":0.09375,"midi":55,"time":463.875,"velocity":0.3937007874015748},{"duration":0.09375,"midi":31,"time":463.875,"velocity":0.3937007874015748},{"duration":0.09375,"midi":64,"time":463.875,"velocity":0.3937007874015748},{"duration":0.09375,"midi":52,"time":463.875,"velocity":0.3937007874015748},{"duration":0.09375,"midi":48,"time":463.875,"velocity":0.3937007874015748},{"duration":0.09375,"midi":43,"time":463.875,"velocity":0.3937007874015748},{"duration":0.09375,"midi":60,"time":463.875,"velocity":0.3937007874015748},{"duration":0.09375,"midi":79,"time":463.875,"velocity":0.3937007874015748},{"duration":0.09375,"midi":24,"time":463.875,"velocity":0.3937007874015748},{"duration":0.09375,"midi":40,"time":463.875,"velocity":0.3937007874015748},{"duration":0.09375,"midi":67,"time":463.875,"velocity":0.3937007874015748},{"duration":0.09375,"midi":72,"time":463.875,"velocity":0.3937007874015748},{"duration":0.09375,"midi":91,"time":463.875,"velocity":0.3937007874015748},{"duration":0.09375,"midi":28,"time":463.875,"velocity":0.3937007874015748},{"duration":0.09375,"midi":84,"time":464.0625,"velocity":0.3937007874015748},{"duration":0.09375,"midi":28,"time":464.0625,"velocity":0.3937007874015748},{"duration":0.09375,"midi":31,"time":464.0625,"velocity":0.3937007874015748},{"duration":0.09375,"midi":43,"time":464.0625,"velocity":0.3937007874015748},{"duration":0.09375,"midi":79,"time":464.0625,"velocity":0.3937007874015748},{"duration":0.09375,"midi":76,"time":464.0625,"velocity":0.3937007874015748},{"duration":0.09375,"midi":48,"time":464.0625,"velocity":0.3937007874015748},{"duration":0.09375,"midi":60,"time":464.0625,"velocity":0.3937007874015748},{"duration":0.09375,"midi":55,"time":464.0625,"velocity":0.3937007874015748},{"duration":0.09375,"midi":36,"time":464.0625,"velocity":0.3937007874015748},{"duration":0.09375,"midi":40,"time":464.0625,"velocity":0.3937007874015748},{"duration":0.09375,"midi":64,"time":464.0625,"velocity":0.3937007874015748},{"duration":0.09375,"midi":91,"time":464.0625,"velocity":0.3937007874015748},{"duration":0.09375,"midi":24,"time":464.0625,"velocity":0.3937007874015748},{"duration":0.09375,"midi":52,"time":464.0625,"velocity":0.3937007874015748},{"duration":0.09375,"midi":88,"time":464.0625,"velocity":0.3937007874015748},{"duration":0.09375,"midi":72,"time":464.0625,"velocity":0.3937007874015748},{"duration":0.09375,"midi":67,"time":464.0625,"velocity":0.3937007874015748},{"duration":0.09375,"midi":72,"time":464.25,"velocity":0.3937007874015748},{"duration":0.09375,"midi":24,"time":464.25,"velocity":0.3937007874015748},{"duration":0.09375,"midi":67,"time":464.25,"velocity":0.3937007874015748},{"duration":0.09375,"midi":88,"time":464.25,"velocity":0.3937007874015748},{"duration":0.09375,"midi":31,"time":464.25,"velocity":0.3937007874015748},{"duration":0.09375,"midi":40,"time":464.25,"velocity":0.3937007874015748},{"duration":0.09375,"midi":84,"time":464.25,"velocity":0.3937007874015748},{"duration":0.09375,"midi":52,"time":464.25,"velocity":0.3937007874015748},{"duration":0.09375,"midi":91,"time":464.25,"velocity":0.3937007874015748},{"duration":0.09375,"midi":60,"time":464.25,"velocity":0.3937007874015748},{"duration":0.09375,"midi":64,"time":464.25,"velocity":0.3937007874015748},{"duration":0.09375,"midi":43,"time":464.25,"velocity":0.3937007874015748},{"duration":0.09375,"midi":48,"time":464.25,"velocity":0.3937007874015748},{"duration":0.09375,"midi":36,"time":464.25,"velocity":0.3937007874015748},{"duration":0.09375,"midi":28,"time":464.25,"velocity":0.3937007874015748},{"duration":0.09375,"midi":55,"time":464.25,"velocity":0.3937007874015748},{"duration":0.09375,"midi":79,"time":464.25,"velocity":0.3937007874015748},{"duration":0.09375,"midi":76,"time":464.25,"velocity":0.3937007874015748},{"duration":0.09375,"midi":48,"time":464.4375,"velocity":0.3937007874015748},{"duration":0.09375,"midi":52,"time":464.4375,"velocity":0.3937007874015748},{"duration":0.09375,"midi":36,"time":464.4375,"velocity":0.3937007874015748},{"duration":0.09375,"midi":67,"time":464.4375,"velocity":0.3937007874015748},{"duration":0.09375,"midi":55,"time":464.4375,"velocity":0.3937007874015748},{"duration":0.09375,"midi":76,"time":464.4375,"velocity":0.3937007874015748},{"duration":0.09375,"midi":64,"time":464.4375,"velocity":0.3937007874015748},{"duration":0.09375,"midi":40,"time":464.4375,"velocity":0.3937007874015748},{"duration":0.09375,"midi":60,"time":464.4375,"velocity":0.3937007874015748},{"duration":0.09375,"midi":43,"time":464.4375,"velocity":0.3937007874015748},{"duration":0.09375,"midi":79,"time":464.4375,"velocity":0.3937007874015748},{"duration":0.09375,"midi":24,"time":464.4375,"velocity":0.3937007874015748},{"duration":0.09375,"midi":91,"time":464.4375,"velocity":0.3937007874015748},{"duration":0.09375,"midi":31,"time":464.4375,"velocity":0.3937007874015748},{"duration":0.09375,"midi":88,"time":464.4375,"velocity":0.3937007874015748},{"duration":0.09375,"midi":72,"time":464.4375,"velocity":0.3937007874015748},{"duration":0.09375,"midi":28,"time":464.4375,"velocity":0.3937007874015748},{"duration":0.09375,"midi":84,"time":464.4375,"velocity":0.3937007874015748},{"duration":0.09375,"midi":28,"time":464.625,"velocity":0.3937007874015748},{"duration":0.09375,"midi":88,"time":464.625,"velocity":0.3937007874015748},{"duration":0.09375,"midi":76,"time":464.625,"velocity":0.3937007874015748},{"duration":0.09375,"midi":24,"time":464.625,"velocity":0.3937007874015748},{"duration":0.09375,"midi":67,"time":464.625,"velocity":0.3937007874015748},{"duration":0.09375,"midi":60,"time":464.625,"velocity":0.3937007874015748},{"duration":0.09375,"midi":52,"time":464.625,"velocity":0.3937007874015748},{"duration":0.09375,"midi":64,"time":464.625,"velocity":0.3937007874015748},{"duration":0.09375,"midi":91,"time":464.625,"velocity":0.3937007874015748},{"duration":0.09375,"midi":43,"time":464.625,"velocity":0.3937007874015748},{"duration":0.09375,"midi":31,"time":464.625,"velocity":0.3937007874015748},{"duration":0.09375,"midi":79,"time":464.625,"velocity":0.3937007874015748},{"duration":0.09375,"midi":36,"time":464.625,"velocity":0.3937007874015748},{"duration":0.09375,"midi":40,"time":464.625,"velocity":0.3937007874015748},{"duration":0.09375,"midi":84,"time":464.625,"velocity":0.3937007874015748},{"duration":0.09375,"midi":48,"time":464.625,"velocity":0.3937007874015748},{"duration":0.09375,"midi":72,"time":464.625,"velocity":0.3937007874015748},{"duration":0.09375,"midi":55,"time":464.625,"velocity":0.3937007874015748},{"duration":0.09375,"midi":67,"time":464.8125,"velocity":0.3937007874015748},{"duration":0.09375,"midi":40,"time":464.8125,"velocity":0.3937007874015748},{"duration":0.09375,"midi":91,"time":464.8125,"velocity":0.3937007874015748},{"duration":0.09375,"midi":28,"time":464.8125,"velocity":0.3937007874015748},{"duration":0.09375,"midi":31,"time":464.8125,"velocity":0.3937007874015748},{"duration":0.09375,"midi":55,"time":464.8125,"velocity":0.3937007874015748},{"duration":0.09375,"midi":60,"time":464.8125,"velocity":0.3937007874015748},{"duration":0.09375,"midi":88,"time":464.8125,"velocity":0.3937007874015748},{"duration":0.09375,"midi":64,"time":464.8125,"velocity":0.3937007874015748},{"duration":0.09375,"midi":79,"time":464.8125,"velocity":0.3937007874015748},{"duration":0.09375,"midi":48,"time":464.8125,"velocity":0.3937007874015748},{"duration":0.09375,"midi":24,"time":464.8125,"velocity":0.3937007874015748},{"duration":0.09375,"midi":72,"time":464.8125,"velocity":0.3937007874015748},{"duration":0.09375,"midi":84,"time":464.8125,"velocity":0.3937007874015748},{"duration":0.09375,"midi":76,"time":464.8125,"velocity":0.3937007874015748},{"duration":0.09375,"midi":52,"time":464.8125,"velocity":0.3937007874015748},{"duration":0.09375,"midi":36,"time":464.8125,"velocity":0.3937007874015748},{"duration":0.09375,"midi":43,"time":464.8125,"velocity":0.3937007874015748},{"duration":0.09375,"midi":81,"time":465,"velocity":0.3937007874015748},{"duration":0.09375,"midi":36,"time":465,"velocity":0.3937007874015748},{"duration":0.09375,"midi":32,"time":465,"velocity":0.3937007874015748},{"duration":0.09375,"midi":41,"time":465,"velocity":0.3937007874015748},{"duration":0.09375,"midi":45,"time":465,"velocity":0.3937007874015748},{"duration":0.09375,"midi":29,"time":465,"velocity":0.3937007874015748},{"duration":0.09375,"midi":84,"time":465,"velocity":0.3937007874015748},{"duration":0.09375,"midi":53,"time":465,"velocity":0.3937007874015748},{"duration":0.09375,"midi":77,"time":465,"velocity":0.3937007874015748},{"duration":0.09375,"midi":24,"time":465,"velocity":0.3937007874015748},{"duration":0.09375,"midi":69,"time":465,"velocity":0.3937007874015748},{"duration":0.09375,"midi":65,"time":465,"velocity":0.3937007874015748},{"duration":0.09375,"midi":57,"time":465,"velocity":0.3937007874015748},{"duration":0.09375,"midi":72,"time":465,"velocity":0.3937007874015748},{"duration":0.09375,"midi":93,"time":465,"velocity":0.3937007874015748},{"duration":0.09375,"midi":48,"time":465,"velocity":0.3937007874015748},{"duration":0.09375,"midi":89,"time":465,"velocity":0.3937007874015748},{"duration":0.09375,"midi":60,"time":465,"velocity":0.3937007874015748},{"duration":0.09375,"midi":29,"time":465.1875,"velocity":0.3937007874015748},{"duration":0.09375,"midi":24,"time":465.1875,"velocity":0.3937007874015748},{"duration":0.09375,"midi":77,"time":465.1875,"velocity":0.3937007874015748},{"duration":0.09375,"midi":60,"time":465.1875,"velocity":0.3937007874015748},{"duration":0.09375,"midi":45,"time":465.1875,"velocity":0.3937007874015748},{"duration":0.09375,"midi":32,"time":465.1875,"velocity":0.3937007874015748},{"duration":0.09375,"midi":89,"time":465.1875,"velocity":0.3937007874015748},{"duration":0.09375,"midi":84,"time":465.1875,"velocity":0.3937007874015748},{"duration":0.09375,"midi":53,"time":465.1875,"velocity":0.3937007874015748},{"duration":0.09375,"midi":48,"time":465.1875,"velocity":0.3937007874015748},{"duration":0.09375,"midi":57,"time":465.1875,"velocity":0.3937007874015748},{"duration":0.09375,"midi":69,"time":465.1875,"velocity":0.3937007874015748},{"duration":0.09375,"midi":65,"time":465.1875,"velocity":0.3937007874015748},{"duration":0.09375,"midi":41,"time":465.1875,"velocity":0.3937007874015748},{"duration":0.09375,"midi":72,"time":465.1875,"velocity":0.3937007874015748},{"duration":0.09375,"midi":93,"time":465.1875,"velocity":0.3937007874015748},{"duration":0.09375,"midi":36,"time":465.1875,"velocity":0.3937007874015748},{"duration":0.09375,"midi":81,"time":465.1875,"velocity":0.3937007874015748},{"duration":0.09375,"midi":69,"time":465.375,"velocity":0.3937007874015748},{"duration":0.09375,"midi":29,"time":465.375,"velocity":0.3937007874015748},{"duration":0.09375,"midi":45,"time":465.375,"velocity":0.3937007874015748},{"duration":0.09375,"midi":89,"time":465.375,"velocity":0.3937007874015748},{"duration":0.09375,"midi":65,"time":465.375,"velocity":0.3937007874015748},{"duration":0.09375,"midi":93,"time":465.375,"velocity":0.3937007874015748},{"duration":0.09375,"midi":84,"time":465.375,"velocity":0.3937007874015748},{"duration":0.09375,"midi":36,"time":465.375,"velocity":0.3937007874015748},{"duration":0.09375,"midi":60,"time":465.375,"velocity":0.3937007874015748},{"duration":0.09375,"midi":57,"time":465.375,"velocity":0.3937007874015748},{"duration":0.09375,"midi":53,"time":465.375,"velocity":0.3937007874015748},{"duration":0.09375,"midi":48,"time":465.375,"velocity":0.3937007874015748},{"duration":0.09375,"midi":77,"time":465.375,"velocity":0.3937007874015748},{"duration":0.09375,"midi":81,"time":465.375,"velocity":0.3937007874015748},{"duration":0.09375,"midi":41,"time":465.375,"velocity":0.3937007874015748},{"duration":0.09375,"midi":24,"time":465.375,"velocity":0.3937007874015748},{"duration":0.09375,"midi":72,"time":465.375,"velocity":0.3937007874015748},{"duration":0.09375,"midi":32,"time":465.375,"velocity":0.3937007874015748},{"duration":0.09375,"midi":48,"time":465.5625,"velocity":0.3937007874015748},{"duration":0.09375,"midi":65,"time":465.5625,"velocity":0.3937007874015748},{"duration":0.09375,"midi":53,"time":465.5625,"velocity":0.3937007874015748},{"duration":0.09375,"midi":45,"time":465.5625,"velocity":0.3937007874015748},{"duration":0.09375,"midi":93,"time":465.5625,"velocity":0.3937007874015748},{"duration":0.09375,"midi":60,"time":465.5625,"velocity":0.3937007874015748},{"duration":0.09375,"midi":32,"time":465.5625,"velocity":0.3937007874015748},{"duration":0.09375,"midi":89,"time":465.5625,"velocity":0.3937007874015748},{"duration":0.09375,"midi":41,"time":465.5625,"velocity":0.3937007874015748},{"duration":0.09375,"midi":29,"time":465.5625,"velocity":0.3937007874015748},{"duration":0.09375,"midi":77,"time":465.5625,"velocity":0.3937007874015748},{"duration":0.09375,"midi":84,"time":465.5625,"velocity":0.3937007874015748},{"duration":0.09375,"midi":72,"time":465.5625,"velocity":0.3937007874015748},{"duration":0.09375,"midi":69,"time":465.5625,"velocity":0.3937007874015748},{"duration":0.09375,"midi":24,"time":465.5625,"velocity":0.3937007874015748},{"duration":0.09375,"midi":57,"time":465.5625,"velocity":0.3937007874015748},{"duration":0.09375,"midi":36,"time":465.5625,"velocity":0.3937007874015748},{"duration":0.09375,"midi":81,"time":465.5625,"velocity":0.3937007874015748},{"duration":0.09375,"midi":45,"time":465.75,"velocity":0.3937007874015748},{"duration":0.09375,"midi":69,"time":465.75,"velocity":0.3937007874015748},{"duration":0.09375,"midi":65,"time":465.75,"velocity":0.3937007874015748},{"duration":0.09375,"midi":72,"time":465.75,"velocity":0.3937007874015748},{"duration":0.09375,"midi":77,"time":465.75,"velocity":0.3937007874015748},{"duration":0.09375,"midi":81,"time":465.75,"velocity":0.3937007874015748},{"duration":0.09375,"midi":93,"time":465.75,"velocity":0.3937007874015748},{"duration":0.09375,"midi":36,"time":465.75,"velocity":0.3937007874015748},{"duration":0.09375,"midi":84,"time":465.75,"velocity":0.3937007874015748},{"duration":0.09375,"midi":53,"time":465.75,"velocity":0.3937007874015748},{"duration":0.09375,"midi":41,"time":465.75,"velocity":0.3937007874015748},{"duration":0.09375,"midi":57,"time":465.75,"velocity":0.3937007874015748},{"duration":0.09375,"midi":29,"time":465.75,"velocity":0.3937007874015748},{"duration":0.09375,"midi":32,"time":465.75,"velocity":0.3937007874015748},{"duration":0.09375,"midi":60,"time":465.75,"velocity":0.3937007874015748},{"duration":0.09375,"midi":24,"time":465.75,"velocity":0.3937007874015748},{"duration":0.09375,"midi":89,"time":465.75,"velocity":0.3937007874015748},{"duration":0.09375,"midi":48,"time":465.75,"velocity":0.3937007874015748},{"duration":0.09375,"midi":53,"time":465.9375,"velocity":0.3937007874015748},{"duration":0.09375,"midi":57,"time":465.9375,"velocity":0.3937007874015748},{"duration":0.09375,"midi":65,"time":465.9375,"velocity":0.3937007874015748},{"duration":0.09375,"midi":89,"time":465.9375,"velocity":0.3937007874015748},{"duration":0.09375,"midi":48,"time":465.9375,"velocity":0.3937007874015748},{"duration":0.09375,"midi":29,"time":465.9375,"velocity":0.3937007874015748},{"duration":0.09375,"midi":41,"time":465.9375,"velocity":0.3937007874015748},{"duration":0.09375,"midi":93,"time":465.9375,"velocity":0.3937007874015748},{"duration":0.09375,"midi":81,"time":465.9375,"velocity":0.3937007874015748},{"duration":0.09375,"midi":24,"time":465.9375,"velocity":0.3937007874015748},{"duration":0.09375,"midi":69,"time":465.9375,"velocity":0.3937007874015748},{"duration":0.09375,"midi":84,"time":465.9375,"velocity":0.3937007874015748},{"duration":0.09375,"midi":72,"time":465.9375,"velocity":0.3937007874015748},{"duration":0.09375,"midi":60,"time":465.9375,"velocity":0.3937007874015748},{"duration":0.09375,"midi":45,"time":465.9375,"velocity":0.3937007874015748},{"duration":0.09375,"midi":32,"time":465.9375,"velocity":0.3937007874015748},{"duration":0.09375,"midi":77,"time":465.9375,"velocity":0.3937007874015748},{"duration":0.09375,"midi":36,"time":465.9375,"velocity":0.3937007874015748},{"duration":0.09375,"midi":41,"time":466.125,"velocity":0.3937007874015748},{"duration":0.09375,"midi":45,"time":466.125,"velocity":0.3937007874015748},{"duration":0.09375,"midi":36,"time":466.125,"velocity":0.3937007874015748},{"duration":0.09375,"midi":77,"time":466.125,"velocity":0.3937007874015748},{"duration":0.09375,"midi":72,"time":466.125,"velocity":0.3937007874015748},{"duration":0.09375,"midi":48,"time":466.125,"velocity":0.3937007874015748},{"duration":0.09375,"midi":69,"time":466.125,"velocity":0.3937007874015748},{"duration":0.09375,"midi":81,"time":466.125,"velocity":0.3937007874015748},{"duration":0.09375,"midi":65,"time":466.125,"velocity":0.3937007874015748},{"duration":0.09375,"midi":29,"time":466.125,"velocity":0.3937007874015748},{"duration":0.09375,"midi":60,"time":466.125,"velocity":0.3937007874015748},{"duration":0.09375,"midi":84,"time":466.125,"velocity":0.3937007874015748},{"duration":0.09375,"midi":57,"time":466.125,"velocity":0.3937007874015748},{"duration":0.09375,"midi":89,"time":466.125,"velocity":0.3937007874015748},{"duration":0.09375,"midi":53,"time":466.125,"velocity":0.3937007874015748},{"duration":0.09375,"midi":32,"time":466.125,"velocity":0.3937007874015748},{"duration":0.09375,"midi":93,"time":466.125,"velocity":0.3937007874015748},{"duration":0.09375,"midi":24,"time":466.125,"velocity":0.3937007874015748},{"duration":0.09375,"midi":60,"time":466.3125,"velocity":0.3937007874015748},{"duration":0.09375,"midi":65,"time":466.3125,"velocity":0.3937007874015748},{"duration":0.09375,"midi":29,"time":466.3125,"velocity":0.3937007874015748},{"duration":0.09375,"midi":32,"time":466.3125,"velocity":0.3937007874015748},{"duration":0.09375,"midi":48,"time":466.3125,"velocity":0.3937007874015748},{"duration":0.09375,"midi":24,"time":466.3125,"velocity":0.3937007874015748},{"duration":0.09375,"midi":53,"time":466.3125,"velocity":0.3937007874015748},{"duration":0.09375,"midi":36,"time":466.3125,"velocity":0.3937007874015748},{"duration":0.09375,"midi":93,"time":466.3125,"velocity":0.3937007874015748},{"duration":0.09375,"midi":41,"time":466.3125,"velocity":0.3937007874015748},{"duration":0.09375,"midi":77,"time":466.3125,"velocity":0.3937007874015748},{"duration":0.09375,"midi":72,"time":466.3125,"velocity":0.3937007874015748},{"duration":0.09375,"midi":89,"time":466.3125,"velocity":0.3937007874015748},{"duration":0.09375,"midi":69,"time":466.3125,"velocity":0.3937007874015748},{"duration":0.09375,"midi":45,"time":466.3125,"velocity":0.3937007874015748},{"duration":0.09375,"midi":57,"time":466.3125,"velocity":0.3937007874015748},{"duration":0.09375,"midi":84,"time":466.3125,"velocity":0.3937007874015748},{"duration":0.09375,"midi":81,"time":466.3125,"velocity":0.3937007874015748},{"duration":0.09375,"midi":57,"time":466.5,"velocity":0.3937007874015748},{"duration":0.09375,"midi":53,"time":466.5,"velocity":0.3937007874015748},{"duration":0.09375,"midi":89,"time":466.5,"velocity":0.3937007874015748},{"duration":0.09375,"midi":65,"time":466.5,"velocity":0.3937007874015748},{"duration":0.09375,"midi":60,"time":466.5,"velocity":0.3937007874015748},{"duration":0.09375,"midi":29,"time":466.5,"velocity":0.3937007874015748},{"duration":0.09375,"midi":69,"time":466.5,"velocity":0.3937007874015748},{"duration":0.09375,"midi":77,"time":466.5,"velocity":0.3937007874015748},{"duration":0.09375,"midi":45,"time":466.5,"velocity":0.3937007874015748},{"duration":0.09375,"midi":36,"time":466.5,"velocity":0.3937007874015748},{"duration":0.09375,"midi":48,"time":466.5,"velocity":0.3937007874015748},{"duration":0.09375,"midi":84,"time":466.5,"velocity":0.3937007874015748},{"duration":0.09375,"midi":41,"time":466.5,"velocity":0.3937007874015748},{"duration":0.09375,"midi":72,"time":466.5,"velocity":0.3937007874015748},{"duration":0.09375,"midi":32,"time":466.5,"velocity":0.3937007874015748},{"duration":0.09375,"midi":24,"time":466.5,"velocity":0.3937007874015748},{"duration":0.09375,"midi":81,"time":466.5,"velocity":0.3937007874015748},{"duration":0.09375,"midi":93,"time":466.5,"velocity":0.3937007874015748},{"duration":0.09375,"midi":48,"time":466.6875,"velocity":0.3937007874015748},{"duration":0.09375,"midi":45,"time":466.6875,"velocity":0.3937007874015748},{"duration":0.09375,"midi":81,"time":466.6875,"velocity":0.3937007874015748},{"duration":0.09375,"midi":84,"time":466.6875,"velocity":0.3937007874015748},{"duration":0.09375,"midi":24,"time":466.6875,"velocity":0.3937007874015748},{"duration":0.09375,"midi":53,"time":466.6875,"velocity":0.3937007874015748},{"duration":0.09375,"midi":89,"time":466.6875,"velocity":0.3937007874015748},{"duration":0.09375,"midi":69,"time":466.6875,"velocity":0.3937007874015748},{"duration":0.09375,"midi":93,"time":466.6875,"velocity":0.3937007874015748},{"duration":0.09375,"midi":65,"time":466.6875,"velocity":0.3937007874015748},{"duration":0.09375,"midi":60,"time":466.6875,"velocity":0.3937007874015748},{"duration":0.09375,"midi":29,"time":466.6875,"velocity":0.3937007874015748},{"duration":0.09375,"midi":77,"time":466.6875,"velocity":0.3937007874015748},{"duration":0.09375,"midi":41,"time":466.6875,"velocity":0.3937007874015748},{"duration":0.09375,"midi":32,"time":466.6875,"velocity":0.3937007874015748},{"duration":0.09375,"midi":36,"time":466.6875,"velocity":0.3937007874015748},{"duration":0.09375,"midi":57,"time":466.6875,"velocity":0.3937007874015748},{"duration":0.09375,"midi":72,"time":466.6875,"velocity":0.3937007874015748},{"duration":0.09375,"midi":93,"time":466.875,"velocity":0.3937007874015748},{"duration":0.09375,"midi":57,"time":466.875,"velocity":0.3937007874015748},{"duration":0.09375,"midi":24,"time":466.875,"velocity":0.3937007874015748},{"duration":0.09375,"midi":77,"time":466.875,"velocity":0.3937007874015748},{"duration":0.09375,"midi":29,"time":466.875,"velocity":0.3937007874015748},{"duration":0.09375,"midi":60,"time":466.875,"velocity":0.3937007874015748},{"duration":0.09375,"midi":72,"time":466.875,"velocity":0.3937007874015748},{"duration":0.09375,"midi":45,"time":466.875,"velocity":0.3937007874015748},{"duration":0.09375,"midi":65,"time":466.875,"velocity":0.3937007874015748},{"duration":0.09375,"midi":36,"time":466.875,"velocity":0.3937007874015748},{"duration":0.09375,"midi":69,"time":466.875,"velocity":0.3937007874015748},{"duration":0.09375,"midi":89,"time":466.875,"velocity":0.3937007874015748},{"duration":0.09375,"midi":48,"time":466.875,"velocity":0.3937007874015748},{"duration":0.09375,"midi":84,"time":466.875,"velocity":0.3937007874015748},{"duration":0.09375,"midi":81,"time":466.875,"velocity":0.3937007874015748},{"duration":0.09375,"midi":41,"time":466.875,"velocity":0.3937007874015748},{"duration":0.09375,"midi":32,"time":466.875,"velocity":0.3937007874015748},{"duration":0.09375,"midi":53,"time":466.875,"velocity":0.3937007874015748},{"duration":0.09375,"midi":65,"time":467.0625,"velocity":0.3937007874015748},{"duration":0.09375,"midi":60,"time":467.0625,"velocity":0.3937007874015748},{"duration":0.09375,"midi":93,"time":467.0625,"velocity":0.3937007874015748},{"duration":0.09375,"midi":29,"time":467.0625,"velocity":0.3937007874015748},{"duration":0.09375,"midi":77,"time":467.0625,"velocity":0.3937007874015748},{"duration":0.09375,"midi":72,"time":467.0625,"velocity":0.3937007874015748},{"duration":0.09375,"midi":24,"time":467.0625,"velocity":0.3937007874015748},{"duration":0.09375,"midi":36,"time":467.0625,"velocity":0.3937007874015748},{"duration":0.09375,"midi":69,"time":467.0625,"velocity":0.3937007874015748},{"duration":0.09375,"midi":57,"time":467.0625,"velocity":0.3937007874015748},{"duration":0.09375,"midi":45,"time":467.0625,"velocity":0.3937007874015748},{"duration":0.09375,"midi":48,"time":467.0625,"velocity":0.3937007874015748},{"duration":0.09375,"midi":32,"time":467.0625,"velocity":0.3937007874015748},{"duration":0.09375,"midi":41,"time":467.0625,"velocity":0.3937007874015748},{"duration":0.09375,"midi":53,"time":467.0625,"velocity":0.3937007874015748},{"duration":0.09375,"midi":89,"time":467.0625,"velocity":0.3937007874015748},{"duration":0.09375,"midi":84,"time":467.0625,"velocity":0.3937007874015748},{"duration":0.09375,"midi":81,"time":467.0625,"velocity":0.3937007874015748},{"duration":0.09375,"midi":77,"time":467.25,"velocity":0.3937007874015748},{"duration":0.09375,"midi":32,"time":467.25,"velocity":0.3937007874015748},{"duration":0.09375,"midi":45,"time":467.25,"velocity":0.3937007874015748},{"duration":0.09375,"midi":89,"time":467.25,"velocity":0.3937007874015748},{"duration":0.09375,"midi":69,"time":467.25,"velocity":0.3937007874015748},{"duration":0.09375,"midi":72,"time":467.25,"velocity":0.3937007874015748},{"duration":0.09375,"midi":41,"time":467.25,"velocity":0.3937007874015748},{"duration":0.09375,"midi":29,"time":467.25,"velocity":0.3937007874015748},{"duration":0.09375,"midi":93,"time":467.25,"velocity":0.3937007874015748},{"duration":0.09375,"midi":57,"time":467.25,"velocity":0.3937007874015748},{"duration":0.09375,"midi":81,"time":467.25,"velocity":0.3937007874015748},{"duration":0.09375,"midi":24,"time":467.25,"velocity":0.3937007874015748},{"duration":0.09375,"midi":53,"time":467.25,"velocity":0.3937007874015748},{"duration":0.09375,"midi":65,"time":467.25,"velocity":0.3937007874015748},{"duration":0.09375,"midi":60,"time":467.25,"velocity":0.3937007874015748},{"duration":0.09375,"midi":84,"time":467.25,"velocity":0.3937007874015748},{"duration":0.09375,"midi":36,"time":467.25,"velocity":0.3937007874015748},{"duration":0.09375,"midi":48,"time":467.25,"velocity":0.3937007874015748},{"duration":0.09375,"midi":89,"time":467.4375,"velocity":0.3937007874015748},{"duration":0.09375,"midi":57,"time":467.4375,"velocity":0.3937007874015748},{"duration":0.09375,"midi":84,"time":467.4375,"velocity":0.3937007874015748},{"duration":0.09375,"midi":93,"time":467.4375,"velocity":0.3937007874015748},{"duration":0.09375,"midi":45,"time":467.4375,"velocity":0.3937007874015748},{"duration":0.09375,"midi":36,"time":467.4375,"velocity":0.3937007874015748},{"duration":0.09375,"midi":81,"time":467.4375,"velocity":0.3937007874015748},{"duration":0.09375,"midi":24,"time":467.4375,"velocity":0.3937007874015748},{"duration":0.09375,"midi":29,"time":467.4375,"velocity":0.3937007874015748},{"duration":0.09375,"midi":53,"time":467.4375,"velocity":0.3937007874015748},{"duration":0.09375,"midi":72,"time":467.4375,"velocity":0.3937007874015748},{"duration":0.09375,"midi":48,"time":467.4375,"velocity":0.3937007874015748},{"duration":0.09375,"midi":65,"time":467.4375,"velocity":0.3937007874015748},{"duration":0.09375,"midi":77,"time":467.4375,"velocity":0.3937007874015748},{"duration":0.09375,"midi":32,"time":467.4375,"velocity":0.3937007874015748},{"duration":0.09375,"midi":41,"time":467.4375,"velocity":0.3937007874015748},{"duration":0.09375,"midi":60,"time":467.4375,"velocity":0.3937007874015748},{"duration":0.09375,"midi":69,"time":467.4375,"velocity":0.3937007874015748},{"duration":0.09375,"midi":29,"time":467.625,"velocity":0.3937007874015748},{"duration":0.09375,"midi":93,"time":467.625,"velocity":0.3937007874015748},{"duration":0.09375,"midi":24,"time":467.625,"velocity":0.3937007874015748},{"duration":0.09375,"midi":84,"time":467.625,"velocity":0.3937007874015748},{"duration":0.09375,"midi":81,"time":467.625,"velocity":0.3937007874015748},{"duration":0.09375,"midi":72,"time":467.625,"velocity":0.3937007874015748},{"duration":0.09375,"midi":36,"time":467.625,"velocity":0.3937007874015748},{"duration":0.09375,"midi":53,"time":467.625,"velocity":0.3937007874015748},{"duration":0.09375,"midi":48,"time":467.625,"velocity":0.3937007874015748},{"duration":0.09375,"midi":60,"time":467.625,"velocity":0.3937007874015748},{"duration":0.09375,"midi":45,"time":467.625,"velocity":0.3937007874015748},{"duration":0.09375,"midi":89,"time":467.625,"velocity":0.3937007874015748},{"duration":0.09375,"midi":41,"time":467.625,"velocity":0.3937007874015748},{"duration":0.09375,"midi":65,"time":467.625,"velocity":0.3937007874015748},{"duration":0.09375,"midi":32,"time":467.625,"velocity":0.3937007874015748},{"duration":0.09375,"midi":77,"time":467.625,"velocity":0.3937007874015748},{"duration":0.09375,"midi":57,"time":467.625,"velocity":0.3937007874015748},{"duration":0.09375,"midi":69,"time":467.625,"velocity":0.3937007874015748},{"duration":0.09375,"midi":72,"time":467.8125,"velocity":0.3937007874015748},{"duration":0.09375,"midi":24,"time":467.8125,"velocity":0.3937007874015748},{"duration":0.09375,"midi":69,"time":467.8125,"velocity":0.3937007874015748},{"duration":0.09375,"midi":65,"time":467.8125,"velocity":0.3937007874015748},{"duration":0.09375,"midi":81,"time":467.8125,"velocity":0.3937007874015748},{"duration":0.09375,"midi":60,"time":467.8125,"velocity":0.3937007874015748},{"duration":0.09375,"midi":29,"time":467.8125,"velocity":0.3937007874015748},{"duration":0.09375,"midi":84,"time":467.8125,"velocity":0.3937007874015748},{"duration":0.09375,"midi":77,"time":467.8125,"velocity":0.3937007874015748},{"duration":0.09375,"midi":45,"time":467.8125,"velocity":0.3937007874015748},{"duration":0.09375,"midi":53,"time":467.8125,"velocity":0.3937007874015748},{"duration":0.09375,"midi":32,"time":467.8125,"velocity":0.3937007874015748},{"duration":0.09375,"midi":41,"time":467.8125,"velocity":0.3937007874015748},{"duration":0.09375,"midi":48,"time":467.8125,"velocity":0.3937007874015748},{"duration":0.09375,"midi":36,"time":467.8125,"velocity":0.3937007874015748},{"duration":0.09375,"midi":93,"time":467.8125,"velocity":0.3937007874015748},{"duration":0.09375,"midi":57,"time":467.8125,"velocity":0.3937007874015748},{"duration":0.09375,"midi":89,"time":467.8125,"velocity":0.3937007874015748},{"duration":0.09375,"midi":73,"time":468,"velocity":0.3937007874015748},{"duration":0.09375,"midi":25,"time":468,"velocity":0.3937007874015748},{"duration":0.09375,"midi":85,"time":468,"velocity":0.3937007874015748},{"duration":0.09375,"midi":94,"time":468,"velocity":0.3937007874015748},{"duration":0.09375,"midi":49,"time":468,"velocity":0.3937007874015748},{"duration":0.09375,"midi":77,"time":468,"velocity":0.3937007874015748},{"duration":0.09375,"midi":82,"time":468,"velocity":0.3937007874015748},{"duration":0.09375,"midi":65,"time":468,"velocity":0.3937007874015748},{"duration":0.09375,"midi":29,"time":468,"velocity":0.3937007874015748},{"duration":0.09375,"midi":37,"time":468,"velocity":0.3937007874015748},{"duration":0.09375,"midi":89,"time":468,"velocity":0.3937007874015748},{"duration":0.09375,"midi":34,"time":468,"velocity":0.3937007874015748},{"duration":0.09375,"midi":61,"time":468,"velocity":0.3937007874015748},{"duration":0.09375,"midi":46,"time":468,"velocity":0.3937007874015748},{"duration":0.09375,"midi":70,"time":468,"velocity":0.3937007874015748},{"duration":0.09375,"midi":53,"time":468,"velocity":0.3937007874015748},{"duration":0.09375,"midi":41,"time":468,"velocity":0.3937007874015748},{"duration":0.09375,"midi":58,"time":468,"velocity":0.3937007874015748},{"duration":0.09375,"midi":25,"time":468.1875,"velocity":0.3937007874015748},{"duration":0.09375,"midi":29,"time":468.1875,"velocity":0.3937007874015748},{"duration":0.09375,"midi":58,"time":468.1875,"velocity":0.3937007874015748},{"duration":0.09375,"midi":89,"time":468.1875,"velocity":0.3937007874015748},{"duration":0.09375,"midi":61,"time":468.1875,"velocity":0.3937007874015748},{"duration":0.09375,"midi":85,"time":468.1875,"velocity":0.3937007874015748},{"duration":0.09375,"midi":94,"time":468.1875,"velocity":0.3937007874015748},{"duration":0.09375,"midi":34,"time":468.1875,"velocity":0.3937007874015748},{"duration":0.09375,"midi":37,"time":468.1875,"velocity":0.3937007874015748},{"duration":0.09375,"midi":65,"time":468.1875,"velocity":0.3937007874015748},{"duration":0.09375,"midi":49,"time":468.1875,"velocity":0.3937007874015748},{"duration":0.09375,"midi":77,"time":468.1875,"velocity":0.3937007874015748},{"duration":0.09375,"midi":46,"time":468.1875,"velocity":0.3937007874015748},{"duration":0.09375,"midi":82,"time":468.1875,"velocity":0.3937007874015748},{"duration":0.09375,"midi":41,"time":468.1875,"velocity":0.3937007874015748},{"duration":0.09375,"midi":73,"time":468.1875,"velocity":0.3937007874015748},{"duration":0.09375,"midi":53,"time":468.1875,"velocity":0.3937007874015748},{"duration":0.09375,"midi":70,"time":468.1875,"velocity":0.3937007874015748},{"duration":0.09375,"midi":61,"time":468.375,"velocity":0.3937007874015748},{"duration":0.09375,"midi":82,"time":468.375,"velocity":0.3937007874015748},{"duration":0.09375,"midi":34,"time":468.375,"velocity":0.3937007874015748},{"duration":0.09375,"midi":85,"time":468.375,"velocity":0.3937007874015748},{"duration":0.09375,"midi":94,"time":468.375,"velocity":0.3937007874015748},{"duration":0.09375,"midi":77,"time":468.375,"velocity":0.3937007874015748},{"duration":0.09375,"midi":49,"time":468.375,"velocity":0.3937007874015748},{"duration":0.09375,"midi":73,"time":468.375,"velocity":0.3937007874015748},{"duration":0.09375,"midi":46,"time":468.375,"velocity":0.3937007874015748},{"duration":0.09375,"midi":89,"time":468.375,"velocity":0.3937007874015748},{"duration":0.09375,"midi":25,"time":468.375,"velocity":0.3937007874015748},{"duration":0.09375,"midi":65,"time":468.375,"velocity":0.3937007874015748},{"duration":0.09375,"midi":58,"time":468.375,"velocity":0.3937007874015748},{"duration":0.09375,"midi":53,"time":468.375,"velocity":0.3937007874015748},{"duration":0.09375,"midi":37,"time":468.375,"velocity":0.3937007874015748},{"duration":0.09375,"midi":70,"time":468.375,"velocity":0.3937007874015748},{"duration":0.09375,"midi":29,"time":468.375,"velocity":0.3937007874015748},{"duration":0.09375,"midi":41,"time":468.375,"velocity":0.3937007874015748},{"duration":0.09375,"midi":85,"time":468.5625,"velocity":0.3937007874015748},{"duration":0.09375,"midi":94,"time":468.5625,"velocity":0.3937007874015748},{"duration":0.09375,"midi":46,"time":468.5625,"velocity":0.3937007874015748},{"duration":0.09375,"midi":34,"time":468.5625,"velocity":0.3937007874015748},{"duration":0.09375,"midi":82,"time":468.5625,"velocity":0.3937007874015748},{"duration":0.09375,"midi":77,"time":468.5625,"velocity":0.3937007874015748},{"duration":0.09375,"midi":58,"time":468.5625,"velocity":0.3937007874015748},{"duration":0.09375,"midi":65,"time":468.5625,"velocity":0.3937007874015748},{"duration":0.09375,"midi":29,"time":468.5625,"velocity":0.3937007874015748},{"duration":0.09375,"midi":37,"time":468.5625,"velocity":0.3937007874015748},{"duration":0.09375,"midi":70,"time":468.5625,"velocity":0.3937007874015748},{"duration":0.09375,"midi":89,"time":468.5625,"velocity":0.3937007874015748},{"duration":0.09375,"midi":41,"time":468.5625,"velocity":0.3937007874015748},{"duration":0.09375,"midi":53,"time":468.5625,"velocity":0.3937007874015748},{"duration":0.09375,"midi":25,"time":468.5625,"velocity":0.3937007874015748},{"duration":0.09375,"midi":61,"time":468.5625,"velocity":0.3937007874015748},{"duration":0.09375,"midi":49,"time":468.5625,"velocity":0.3937007874015748},{"duration":0.09375,"midi":73,"time":468.5625,"velocity":0.3937007874015748},{"duration":0.09375,"midi":46,"time":468.75,"velocity":0.3937007874015748},{"duration":0.09375,"midi":61,"time":468.75,"velocity":0.3937007874015748},{"duration":0.09375,"midi":82,"time":468.75,"velocity":0.3937007874015748},{"duration":0.09375,"midi":53,"time":468.75,"velocity":0.3937007874015748},{"duration":0.09375,"midi":58,"time":468.75,"velocity":0.3937007874015748},{"duration":0.09375,"midi":37,"time":468.75,"velocity":0.3937007874015748},{"duration":0.09375,"midi":94,"time":468.75,"velocity":0.3937007874015748},{"duration":0.09375,"midi":89,"time":468.75,"velocity":0.3937007874015748},{"duration":0.09375,"midi":77,"time":468.75,"velocity":0.3937007874015748},{"duration":0.09375,"midi":34,"time":468.75,"velocity":0.3937007874015748},{"duration":0.09375,"midi":70,"time":468.75,"velocity":0.3937007874015748},{"duration":0.09375,"midi":65,"time":468.75,"velocity":0.3937007874015748},{"duration":0.09375,"midi":73,"time":468.75,"velocity":0.3937007874015748},{"duration":0.09375,"midi":29,"time":468.75,"velocity":0.3937007874015748},{"duration":0.09375,"midi":49,"time":468.75,"velocity":0.3937007874015748},{"duration":0.09375,"midi":85,"time":468.75,"velocity":0.3937007874015748},{"duration":0.09375,"midi":41,"time":468.75,"velocity":0.3937007874015748},{"duration":0.09375,"midi":25,"time":468.75,"velocity":0.3937007874015748},{"duration":0.09375,"midi":25,"time":468.9375,"velocity":0.3937007874015748},{"duration":0.09375,"midi":41,"time":468.9375,"velocity":0.3937007874015748},{"duration":0.09375,"midi":46,"time":468.9375,"velocity":0.3937007874015748},{"duration":0.09375,"midi":34,"time":468.9375,"velocity":0.3937007874015748},{"duration":0.09375,"midi":77,"time":468.9375,"velocity":0.3937007874015748},{"duration":0.09375,"midi":94,"time":468.9375,"velocity":0.3937007874015748},{"duration":0.09375,"midi":29,"time":468.9375,"velocity":0.3937007874015748},{"duration":0.09375,"midi":53,"time":468.9375,"velocity":0.3937007874015748},{"duration":0.09375,"midi":70,"time":468.9375,"velocity":0.3937007874015748},{"duration":0.09375,"midi":82,"time":468.9375,"velocity":0.3937007874015748},{"duration":0.09375,"midi":49,"time":468.9375,"velocity":0.3937007874015748},{"duration":0.09375,"midi":85,"time":468.9375,"velocity":0.3937007874015748},{"duration":0.09375,"midi":65,"time":468.9375,"velocity":0.3937007874015748},{"duration":0.09375,"midi":37,"time":468.9375,"velocity":0.3937007874015748},{"duration":0.09375,"midi":61,"time":468.9375,"velocity":0.3937007874015748},{"duration":0.09375,"midi":73,"time":468.9375,"velocity":0.3937007874015748},{"duration":0.09375,"midi":58,"time":468.9375,"velocity":0.3937007874015748},{"duration":0.09375,"midi":89,"time":468.9375,"velocity":0.3937007874015748},{"duration":0.09375,"midi":37,"time":469.125,"velocity":0.3937007874015748},{"duration":0.09375,"midi":46,"time":469.125,"velocity":0.3937007874015748},{"duration":0.09375,"midi":53,"time":469.125,"velocity":0.3937007874015748},{"duration":0.09375,"midi":34,"time":469.125,"velocity":0.3937007874015748},{"duration":0.09375,"midi":25,"time":469.125,"velocity":0.3937007874015748},{"duration":0.09375,"midi":49,"time":469.125,"velocity":0.3937007874015748},{"duration":0.09375,"midi":29,"time":469.125,"velocity":0.3937007874015748},{"duration":0.09375,"midi":73,"time":469.125,"velocity":0.3937007874015748},{"duration":0.09375,"midi":94,"time":469.125,"velocity":0.3937007874015748},{"duration":0.09375,"midi":70,"time":469.125,"velocity":0.3937007874015748},{"duration":0.09375,"midi":82,"time":469.125,"velocity":0.3937007874015748},{"duration":0.09375,"midi":41,"time":469.125,"velocity":0.3937007874015748},{"duration":0.09375,"midi":77,"time":469.125,"velocity":0.3937007874015748},{"duration":0.09375,"midi":65,"time":469.125,"velocity":0.3937007874015748},{"duration":0.09375,"midi":85,"time":469.125,"velocity":0.3937007874015748},{"duration":0.09375,"midi":61,"time":469.125,"velocity":0.3937007874015748},{"duration":0.09375,"midi":89,"time":469.125,"velocity":0.3937007874015748},{"duration":0.09375,"midi":58,"time":469.125,"velocity":0.3937007874015748},{"duration":0.09375,"midi":65,"time":469.3125,"velocity":0.3937007874015748},{"duration":0.09375,"midi":58,"time":469.3125,"velocity":0.3937007874015748},{"duration":0.09375,"midi":29,"time":469.3125,"velocity":0.3937007874015748},{"duration":0.09375,"midi":46,"time":469.3125,"velocity":0.3937007874015748},{"duration":0.09375,"midi":70,"time":469.3125,"velocity":0.3937007874015748},{"duration":0.09375,"midi":73,"time":469.3125,"velocity":0.3937007874015748},{"duration":0.09375,"midi":37,"time":469.3125,"velocity":0.3937007874015748},{"duration":0.09375,"midi":25,"time":469.3125,"velocity":0.3937007874015748},{"duration":0.09375,"midi":61,"time":469.3125,"velocity":0.3937007874015748},{"duration":0.09375,"midi":49,"time":469.3125,"velocity":0.3937007874015748},{"duration":0.09375,"midi":82,"time":469.3125,"velocity":0.3937007874015748},{"duration":0.09375,"midi":85,"time":469.3125,"velocity":0.3937007874015748},{"duration":0.09375,"midi":41,"time":469.3125,"velocity":0.3937007874015748},{"duration":0.09375,"midi":53,"time":469.3125,"velocity":0.3937007874015748},{"duration":0.09375,"midi":34,"time":469.3125,"velocity":0.3937007874015748},{"duration":0.09375,"midi":77,"time":469.3125,"velocity":0.3937007874015748},{"duration":0.09375,"midi":94,"time":469.3125,"velocity":0.3937007874015748},{"duration":0.09375,"midi":89,"time":469.3125,"velocity":0.3937007874015748},{"duration":0.09375,"midi":89,"time":469.5,"velocity":0.3937007874015748},{"duration":0.09375,"midi":94,"time":469.5,"velocity":0.3937007874015748},{"duration":0.09375,"midi":65,"time":469.5,"velocity":0.3937007874015748},{"duration":0.09375,"midi":46,"time":469.5,"velocity":0.3937007874015748},{"duration":0.09375,"midi":73,"time":469.5,"velocity":0.3937007874015748},{"duration":0.09375,"midi":85,"time":469.5,"velocity":0.3937007874015748},{"duration":0.09375,"midi":34,"time":469.5,"velocity":0.3937007874015748},{"duration":0.09375,"midi":25,"time":469.5,"velocity":0.3937007874015748},{"duration":0.09375,"midi":49,"time":469.5,"velocity":0.3937007874015748},{"duration":0.09375,"midi":77,"time":469.5,"velocity":0.3937007874015748},{"duration":0.09375,"midi":58,"time":469.5,"velocity":0.3937007874015748},{"duration":0.09375,"midi":41,"time":469.5,"velocity":0.3937007874015748},{"duration":0.09375,"midi":53,"time":469.5,"velocity":0.3937007874015748},{"duration":0.09375,"midi":61,"time":469.5,"velocity":0.3937007874015748},{"duration":0.09375,"midi":70,"time":469.5,"velocity":0.3937007874015748},{"duration":0.09375,"midi":37,"time":469.5,"velocity":0.3937007874015748},{"duration":0.09375,"midi":82,"time":469.5,"velocity":0.3937007874015748},{"duration":0.09375,"midi":29,"time":469.5,"velocity":0.3937007874015748},{"duration":0.09375,"midi":34,"time":469.6875,"velocity":0.3937007874015748},{"duration":0.09375,"midi":85,"time":469.6875,"velocity":0.3937007874015748},{"duration":0.09375,"midi":46,"time":469.6875,"velocity":0.3937007874015748},{"duration":0.09375,"midi":70,"time":469.6875,"velocity":0.3937007874015748},{"duration":0.09375,"midi":37,"time":469.6875,"velocity":0.3937007874015748},{"duration":0.09375,"midi":65,"time":469.6875,"velocity":0.3937007874015748},{"duration":0.09375,"midi":53,"time":469.6875,"velocity":0.3937007874015748},{"duration":0.09375,"midi":29,"time":469.6875,"velocity":0.3937007874015748},{"duration":0.09375,"midi":82,"time":469.6875,"velocity":0.3937007874015748},{"duration":0.09375,"midi":73,"time":469.6875,"velocity":0.3937007874015748},{"duration":0.09375,"midi":89,"time":469.6875,"velocity":0.3937007874015748},{"duration":0.09375,"midi":77,"time":469.6875,"velocity":0.3937007874015748},{"duration":0.09375,"midi":58,"time":469.6875,"velocity":0.3937007874015748},{"duration":0.09375,"midi":49,"time":469.6875,"velocity":0.3937007874015748},{"duration":0.09375,"midi":61,"time":469.6875,"velocity":0.3937007874015748},{"duration":0.09375,"midi":41,"time":469.6875,"velocity":0.3937007874015748},{"duration":0.09375,"midi":25,"time":469.6875,"velocity":0.3937007874015748},{"duration":0.09375,"midi":94,"time":469.6875,"velocity":0.3937007874015748},{"duration":0.09375,"midi":94,"time":469.875,"velocity":0.3937007874015748},{"duration":0.09375,"midi":70,"time":469.875,"velocity":0.3937007874015748},{"duration":0.09375,"midi":37,"time":469.875,"velocity":0.3937007874015748},{"duration":0.09375,"midi":73,"time":469.875,"velocity":0.3937007874015748},{"duration":0.09375,"midi":65,"time":469.875,"velocity":0.3937007874015748},{"duration":0.09375,"midi":53,"time":469.875,"velocity":0.3937007874015748},{"duration":0.09375,"midi":82,"time":469.875,"velocity":0.3937007874015748},{"duration":0.09375,"midi":58,"time":469.875,"velocity":0.3937007874015748},{"duration":0.09375,"midi":85,"time":469.875,"velocity":0.3937007874015748},{"duration":0.09375,"midi":49,"time":469.875,"velocity":0.3937007874015748},{"duration":0.09375,"midi":46,"time":469.875,"velocity":0.3937007874015748},{"duration":0.09375,"midi":29,"time":469.875,"velocity":0.3937007874015748},{"duration":0.09375,"midi":41,"time":469.875,"velocity":0.3937007874015748},{"duration":0.09375,"midi":34,"time":469.875,"velocity":0.3937007874015748},{"duration":0.09375,"midi":77,"time":469.875,"velocity":0.3937007874015748},{"duration":0.09375,"midi":25,"time":469.875,"velocity":0.3937007874015748},{"duration":0.09375,"midi":61,"time":469.875,"velocity":0.3937007874015748},{"duration":0.09375,"midi":89,"time":469.875,"velocity":0.3937007874015748},{"duration":0.09375,"midi":29,"time":470.0625,"velocity":0.3937007874015748},{"duration":0.09375,"midi":89,"time":470.0625,"velocity":0.3937007874015748},{"duration":0.09375,"midi":73,"time":470.0625,"velocity":0.3937007874015748},{"duration":0.09375,"midi":46,"time":470.0625,"velocity":0.3937007874015748},{"duration":0.09375,"midi":70,"time":470.0625,"velocity":0.3937007874015748},{"duration":0.09375,"midi":41,"time":470.0625,"velocity":0.3937007874015748},{"duration":0.09375,"midi":65,"time":470.0625,"velocity":0.3937007874015748},{"duration":0.09375,"midi":34,"time":470.0625,"velocity":0.3937007874015748},{"duration":0.09375,"midi":49,"time":470.0625,"velocity":0.3937007874015748},{"duration":0.09375,"midi":37,"time":470.0625,"velocity":0.3937007874015748},{"duration":0.09375,"midi":94,"time":470.0625,"velocity":0.3937007874015748},{"duration":0.09375,"midi":85,"time":470.0625,"velocity":0.3937007874015748},{"duration":0.09375,"midi":77,"time":470.0625,"velocity":0.3937007874015748},{"duration":0.09375,"midi":58,"time":470.0625,"velocity":0.3937007874015748},{"duration":0.09375,"midi":53,"time":470.0625,"velocity":0.3937007874015748},{"duration":0.09375,"midi":61,"time":470.0625,"velocity":0.3937007874015748},{"duration":0.09375,"midi":82,"time":470.0625,"velocity":0.3937007874015748},{"duration":0.09375,"midi":25,"time":470.0625,"velocity":0.3937007874015748},{"duration":0.09375,"midi":46,"time":470.25,"velocity":0.3937007874015748},{"duration":0.09375,"midi":65,"time":470.25,"velocity":0.3937007874015748},{"duration":0.09375,"midi":73,"time":470.25,"velocity":0.3937007874015748},{"duration":0.09375,"midi":70,"time":470.25,"velocity":0.3937007874015748},{"duration":0.09375,"midi":77,"time":470.25,"velocity":0.3937007874015748},{"duration":0.09375,"midi":34,"time":470.25,"velocity":0.3937007874015748},{"duration":0.09375,"midi":82,"time":470.25,"velocity":0.3937007874015748},{"duration":0.09375,"midi":85,"time":470.25,"velocity":0.3937007874015748},{"duration":0.09375,"midi":94,"time":470.25,"velocity":0.3937007874015748},{"duration":0.09375,"midi":41,"time":470.25,"velocity":0.3937007874015748},{"duration":0.09375,"midi":61,"time":470.25,"velocity":0.3937007874015748},{"duration":0.09375,"midi":49,"time":470.25,"velocity":0.3937007874015748},{"duration":0.09375,"midi":53,"time":470.25,"velocity":0.3937007874015748},{"duration":0.09375,"midi":37,"time":470.25,"velocity":0.3937007874015748},{"duration":0.09375,"midi":29,"time":470.25,"velocity":0.3937007874015748},{"duration":0.09375,"midi":58,"time":470.25,"velocity":0.3937007874015748},{"duration":0.09375,"midi":25,"time":470.25,"velocity":0.3937007874015748},{"duration":0.09375,"midi":89,"time":470.25,"velocity":0.3937007874015748},{"duration":0.09375,"midi":73,"time":470.4375,"velocity":0.3937007874015748},{"duration":0.09375,"midi":29,"time":470.4375,"velocity":0.3937007874015748},{"duration":0.09375,"midi":49,"time":470.4375,"velocity":0.3937007874015748},{"duration":0.09375,"midi":37,"time":470.4375,"velocity":0.3937007874015748},{"duration":0.09375,"midi":77,"time":470.4375,"velocity":0.3937007874015748},{"duration":0.09375,"midi":89,"time":470.4375,"velocity":0.3937007874015748},{"duration":0.09375,"midi":65,"time":470.4375,"velocity":0.3937007874015748},{"duration":0.09375,"midi":85,"time":470.4375,"velocity":0.3937007874015748},{"duration":0.09375,"midi":61,"time":470.4375,"velocity":0.3937007874015748},{"duration":0.09375,"midi":41,"time":470.4375,"velocity":0.3937007874015748},{"duration":0.09375,"midi":70,"time":470.4375,"velocity":0.3937007874015748},{"duration":0.09375,"midi":25,"time":470.4375,"velocity":0.3937007874015748},{"duration":0.09375,"midi":94,"time":470.4375,"velocity":0.3937007874015748},{"duration":0.09375,"midi":58,"time":470.4375,"velocity":0.3937007874015748},{"duration":0.09375,"midi":46,"time":470.4375,"velocity":0.3937007874015748},{"duration":0.09375,"midi":53,"time":470.4375,"velocity":0.3937007874015748},{"duration":0.09375,"midi":82,"time":470.4375,"velocity":0.3937007874015748},{"duration":0.09375,"midi":34,"time":470.4375,"velocity":0.3937007874015748},{"duration":0.09375,"midi":85,"time":470.625,"velocity":0.3937007874015748},{"duration":0.09375,"midi":61,"time":470.625,"velocity":0.3937007874015748},{"duration":0.09375,"midi":49,"time":470.625,"velocity":0.3937007874015748},{"duration":0.09375,"midi":94,"time":470.625,"velocity":0.3937007874015748},{"duration":0.09375,"midi":25,"time":470.625,"velocity":0.3937007874015748},{"duration":0.09375,"midi":89,"time":470.625,"velocity":0.3937007874015748},{"duration":0.09375,"midi":77,"time":470.625,"velocity":0.3937007874015748},{"duration":0.09375,"midi":53,"time":470.625,"velocity":0.3937007874015748},{"duration":0.09375,"midi":46,"time":470.625,"velocity":0.3937007874015748},{"duration":0.09375,"midi":65,"time":470.625,"velocity":0.3937007874015748},{"duration":0.09375,"midi":41,"time":470.625,"velocity":0.3937007874015748},{"duration":0.09375,"midi":34,"time":470.625,"velocity":0.3937007874015748},{"duration":0.09375,"midi":70,"time":470.625,"velocity":0.3937007874015748},{"duration":0.09375,"midi":58,"time":470.625,"velocity":0.3937007874015748},{"duration":0.09375,"midi":73,"time":470.625,"velocity":0.3937007874015748},{"duration":0.09375,"midi":29,"time":470.625,"velocity":0.3937007874015748},{"duration":0.09375,"midi":37,"time":470.625,"velocity":0.3937007874015748},{"duration":0.09375,"midi":82,"time":470.625,"velocity":0.3937007874015748},{"duration":0.09375,"midi":73,"time":470.8125,"velocity":0.3937007874015748},{"duration":0.09375,"midi":77,"time":470.8125,"velocity":0.3937007874015748},{"duration":0.09375,"midi":29,"time":470.8125,"velocity":0.3937007874015748},{"duration":0.09375,"midi":89,"time":470.8125,"velocity":0.3937007874015748},{"duration":0.09375,"midi":49,"time":470.8125,"velocity":0.3937007874015748},{"duration":0.09375,"midi":58,"time":470.8125,"velocity":0.3937007874015748},{"duration":0.09375,"midi":94,"time":470.8125,"velocity":0.3937007874015748},{"duration":0.09375,"midi":25,"time":470.8125,"velocity":0.3937007874015748},{"duration":0.09375,"midi":82,"time":470.8125,"velocity":0.3937007874015748},{"duration":0.09375,"midi":41,"time":470.8125,"velocity":0.3937007874015748},{"duration":0.09375,"midi":65,"time":470.8125,"velocity":0.3937007874015748},{"duration":0.09375,"midi":70,"time":470.8125,"velocity":0.3937007874015748},{"duration":0.09375,"midi":37,"time":470.8125,"velocity":0.3937007874015748},{"duration":0.09375,"midi":85,"time":470.8125,"velocity":0.3937007874015748},{"duration":0.09375,"midi":53,"time":470.8125,"velocity":0.3937007874015748},{"duration":0.09375,"midi":61,"time":470.8125,"velocity":0.3937007874015748},{"duration":0.09375,"midi":46,"time":470.8125,"velocity":0.3937007874015748},{"duration":0.09375,"midi":34,"time":470.8125,"velocity":0.3937007874015748},{"duration":0.09375,"midi":73,"time":471,"velocity":0.3937007874015748},{"duration":0.09375,"midi":58,"time":471,"velocity":0.3937007874015748},{"duration":0.09375,"midi":85,"time":471,"velocity":0.3937007874015748},{"duration":0.09375,"midi":82,"time":471,"velocity":0.3937007874015748},{"duration":0.09375,"midi":77,"time":471,"velocity":0.3937007874015748},{"duration":0.09375,"midi":41,"time":471,"velocity":0.3937007874015748},{"duration":0.09375,"midi":89,"time":471,"velocity":0.3937007874015748},{"duration":0.09375,"midi":25,"time":471,"velocity":0.3937007874015748},{"duration":0.09375,"midi":61,"time":471,"velocity":0.3937007874015748},{"duration":0.09375,"midi":53,"time":471,"velocity":0.3937007874015748},{"duration":0.09375,"midi":34,"time":471,"velocity":0.3937007874015748},{"duration":0.09375,"midi":37,"time":471,"velocity":0.3937007874015748},{"duration":0.09375,"midi":70,"time":471,"velocity":0.3937007874015748},{"duration":0.09375,"midi":46,"time":471,"velocity":0.3937007874015748},{"duration":0.09375,"midi":65,"time":471,"velocity":0.3937007874015748},{"duration":0.09375,"midi":94,"time":471,"velocity":0.3937007874015748},{"duration":0.09375,"midi":49,"time":471,"velocity":0.3937007874015748},{"duration":0.09375,"midi":29,"time":471,"velocity":0.3937007874015748},{"duration":0.09375,"midi":49,"time":471.1875,"velocity":0.3937007874015748},{"duration":0.09375,"midi":46,"time":471.1875,"velocity":0.3937007874015748},{"duration":0.09375,"midi":65,"time":471.1875,"velocity":0.3937007874015748},{"duration":0.09375,"midi":82,"time":471.1875,"velocity":0.3937007874015748},{"duration":0.09375,"midi":34,"time":471.1875,"velocity":0.3937007874015748},{"duration":0.09375,"midi":53,"time":471.1875,"velocity":0.3937007874015748},{"duration":0.09375,"midi":89,"time":471.1875,"velocity":0.3937007874015748},{"duration":0.09375,"midi":41,"time":471.1875,"velocity":0.3937007874015748},{"duration":0.09375,"midi":94,"time":471.1875,"velocity":0.3937007874015748},{"duration":0.09375,"midi":70,"time":471.1875,"velocity":0.3937007874015748},{"duration":0.09375,"midi":37,"time":471.1875,"velocity":0.3937007874015748},{"duration":0.09375,"midi":77,"time":471.1875,"velocity":0.3937007874015748},{"duration":0.09375,"midi":25,"time":471.1875,"velocity":0.3937007874015748},{"duration":0.09375,"midi":61,"time":471.1875,"velocity":0.3937007874015748},{"duration":0.09375,"midi":73,"time":471.1875,"velocity":0.3937007874015748},{"duration":0.09375,"midi":29,"time":471.1875,"velocity":0.3937007874015748},{"duration":0.09375,"midi":58,"time":471.1875,"velocity":0.3937007874015748},{"duration":0.09375,"midi":85,"time":471.1875,"velocity":0.3937007874015748},{"duration":0.09375,"midi":46,"time":471.375,"velocity":0.3937007874015748},{"duration":0.09375,"midi":82,"time":471.375,"velocity":0.3937007874015748},{"duration":0.09375,"midi":61,"time":471.375,"velocity":0.3937007874015748},{"duration":0.09375,"midi":37,"time":471.375,"velocity":0.3937007874015748},{"duration":0.09375,"midi":77,"time":471.375,"velocity":0.3937007874015748},{"duration":0.09375,"midi":53,"time":471.375,"velocity":0.3937007874015748},{"duration":0.09375,"midi":58,"time":471.375,"velocity":0.3937007874015748},{"duration":0.09375,"midi":65,"time":471.375,"velocity":0.3937007874015748},{"duration":0.09375,"midi":85,"time":471.375,"velocity":0.3937007874015748},{"duration":0.09375,"midi":70,"time":471.375,"velocity":0.3937007874015748},{"duration":0.09375,"midi":73,"time":471.375,"velocity":0.3937007874015748},{"duration":0.09375,"midi":94,"time":471.375,"velocity":0.3937007874015748},{"duration":0.09375,"midi":29,"time":471.375,"velocity":0.3937007874015748},{"duration":0.09375,"midi":34,"time":471.375,"velocity":0.3937007874015748},{"duration":0.09375,"midi":49,"time":471.375,"velocity":0.3937007874015748},{"duration":0.09375,"midi":41,"time":471.375,"velocity":0.3937007874015748},{"duration":0.09375,"midi":89,"time":471.375,"velocity":0.3937007874015748},{"duration":0.09375,"midi":25,"time":471.375,"velocity":0.3937007874015748},{"duration":0.09375,"midi":70,"time":471.5625,"velocity":0.3937007874015748},{"duration":0.09375,"midi":85,"time":471.5625,"velocity":0.3937007874015748},{"duration":0.09375,"midi":77,"time":471.5625,"velocity":0.3937007874015748},{"duration":0.09375,"midi":29,"time":471.5625,"velocity":0.3937007874015748},{"duration":0.09375,"midi":34,"time":471.5625,"velocity":0.3937007874015748},{"duration":0.09375,"midi":65,"time":471.5625,"velocity":0.3937007874015748},{"duration":0.09375,"midi":49,"time":471.5625,"velocity":0.3937007874015748},{"duration":0.09375,"midi":37,"time":471.5625,"velocity":0.3937007874015748},{"duration":0.09375,"midi":73,"time":471.5625,"velocity":0.3937007874015748},{"duration":0.09375,"midi":89,"time":471.5625,"velocity":0.3937007874015748},{"duration":0.09375,"midi":53,"time":471.5625,"velocity":0.3937007874015748},{"duration":0.09375,"midi":58,"time":471.5625,"velocity":0.3937007874015748},{"duration":0.09375,"midi":82,"time":471.5625,"velocity":0.3937007874015748},{"duration":0.09375,"midi":41,"time":471.5625,"velocity":0.3937007874015748},{"duration":0.09375,"midi":25,"time":471.5625,"velocity":0.3937007874015748},{"duration":0.09375,"midi":94,"time":471.5625,"velocity":0.3937007874015748},{"duration":0.09375,"midi":61,"time":471.5625,"velocity":0.3937007874015748},{"duration":0.09375,"midi":46,"time":471.5625,"velocity":0.3937007874015748},{"duration":0.09375,"midi":58,"time":471.75,"velocity":0.3937007874015748},{"duration":0.09375,"midi":65,"time":471.75,"velocity":0.3937007874015748},{"duration":0.09375,"midi":70,"time":471.75,"velocity":0.3937007874015748},{"duration":0.09375,"midi":73,"time":471.75,"velocity":0.3937007874015748},{"duration":0.09375,"midi":61,"time":471.75,"velocity":0.3937007874015748},{"duration":0.09375,"midi":29,"time":471.75,"velocity":0.3937007874015748},{"duration":0.09375,"midi":53,"time":471.75,"velocity":0.3937007874015748},{"duration":0.09375,"midi":25,"time":471.75,"velocity":0.3937007874015748},{"duration":0.09375,"midi":94,"time":471.75,"velocity":0.3937007874015748},{"duration":0.09375,"midi":37,"time":471.75,"velocity":0.3937007874015748},{"duration":0.09375,"midi":82,"time":471.75,"velocity":0.3937007874015748},{"duration":0.09375,"midi":89,"time":471.75,"velocity":0.3937007874015748},{"duration":0.09375,"midi":34,"time":471.75,"velocity":0.3937007874015748},{"duration":0.09375,"midi":46,"time":471.75,"velocity":0.3937007874015748},{"duration":0.09375,"midi":77,"time":471.75,"velocity":0.3937007874015748},{"duration":0.09375,"midi":85,"time":471.75,"velocity":0.3937007874015748},{"duration":0.09375,"midi":49,"time":471.75,"velocity":0.3937007874015748},{"duration":0.09375,"midi":41,"time":471.75,"velocity":0.3937007874015748},{"duration":0.09375,"midi":89,"time":471.9375,"velocity":0.3937007874015748},{"duration":0.09375,"midi":65,"time":471.9375,"velocity":0.3937007874015748},{"duration":0.09375,"midi":41,"time":471.9375,"velocity":0.3937007874015748},{"duration":0.09375,"midi":29,"time":471.9375,"velocity":0.3937007874015748},{"duration":0.09375,"midi":34,"time":471.9375,"velocity":0.3937007874015748},{"duration":0.09375,"midi":77,"time":471.9375,"velocity":0.3937007874015748},{"duration":0.09375,"midi":70,"time":471.9375,"velocity":0.3937007874015748},{"duration":0.09375,"midi":25,"time":471.9375,"velocity":0.3937007874015748},{"duration":0.09375,"midi":85,"time":471.9375,"velocity":0.3937007874015748},{"duration":0.09375,"midi":53,"time":471.9375,"velocity":0.3937007874015748},{"duration":0.09375,"midi":37,"time":471.9375,"velocity":0.3937007874015748},{"duration":0.09375,"midi":94,"time":471.9375,"velocity":0.3937007874015748},{"duration":0.09375,"midi":82,"time":471.9375,"velocity":0.3937007874015748},{"duration":0.09375,"midi":73,"time":471.9375,"velocity":0.3937007874015748},{"duration":0.09375,"midi":49,"time":471.9375,"velocity":0.3937007874015748},{"duration":0.09375,"midi":61,"time":471.9375,"velocity":0.3937007874015748},{"duration":0.09375,"midi":58,"time":471.9375,"velocity":0.3937007874015748},{"duration":0.09375,"midi":46,"time":471.9375,"velocity":0.3937007874015748},{"duration":0.09375,"midi":46,"time":472.125,"velocity":0.3937007874015748},{"duration":0.09375,"midi":58,"time":472.125,"velocity":0.3937007874015748},{"duration":0.09375,"midi":25,"time":472.125,"velocity":0.3937007874015748},{"duration":0.09375,"midi":53,"time":472.125,"velocity":0.3937007874015748},{"duration":0.09375,"midi":34,"time":472.125,"velocity":0.3937007874015748},{"duration":0.09375,"midi":85,"time":472.125,"velocity":0.3937007874015748},{"duration":0.09375,"midi":29,"time":472.125,"velocity":0.3937007874015748},{"duration":0.09375,"midi":89,"time":472.125,"velocity":0.3937007874015748},{"duration":0.09375,"midi":41,"time":472.125,"velocity":0.3937007874015748},{"duration":0.09375,"midi":82,"time":472.125,"velocity":0.3937007874015748},{"duration":0.09375,"midi":49,"time":472.125,"velocity":0.3937007874015748},{"duration":0.09375,"midi":37,"time":472.125,"velocity":0.3937007874015748},{"duration":0.09375,"midi":70,"time":472.125,"velocity":0.3937007874015748},{"duration":0.09375,"midi":61,"time":472.125,"velocity":0.3937007874015748},{"duration":0.09375,"midi":65,"time":472.125,"velocity":0.3937007874015748},{"duration":0.09375,"midi":94,"time":472.125,"velocity":0.3937007874015748},{"duration":0.09375,"midi":77,"time":472.125,"velocity":0.3937007874015748},{"duration":0.09375,"midi":73,"time":472.125,"velocity":0.3937007874015748},{"duration":0.09375,"midi":70,"time":472.3125,"velocity":0.3937007874015748},{"duration":0.09375,"midi":25,"time":472.3125,"velocity":0.3937007874015748},{"duration":0.09375,"midi":94,"time":472.3125,"velocity":0.3937007874015748},{"duration":0.09375,"midi":77,"time":472.3125,"velocity":0.3937007874015748},{"duration":0.09375,"midi":29,"time":472.3125,"velocity":0.3937007874015748},{"duration":0.09375,"midi":65,"time":472.3125,"velocity":0.3937007874015748},{"duration":0.09375,"midi":53,"time":472.3125,"velocity":0.3937007874015748},{"duration":0.09375,"midi":46,"time":472.3125,"velocity":0.3937007874015748},{"duration":0.09375,"midi":89,"time":472.3125,"velocity":0.3937007874015748},{"duration":0.09375,"midi":58,"time":472.3125,"velocity":0.3937007874015748},{"duration":0.09375,"midi":37,"time":472.3125,"velocity":0.3937007874015748},{"duration":0.09375,"midi":85,"time":472.3125,"velocity":0.3937007874015748},{"duration":0.09375,"midi":41,"time":472.3125,"velocity":0.3937007874015748},{"duration":0.09375,"midi":73,"time":472.3125,"velocity":0.3937007874015748},{"duration":0.09375,"midi":34,"time":472.3125,"velocity":0.3937007874015748},{"duration":0.09375,"midi":82,"time":472.3125,"velocity":0.3937007874015748},{"duration":0.09375,"midi":61,"time":472.3125,"velocity":0.3937007874015748},{"duration":0.09375,"midi":49,"time":472.3125,"velocity":0.3937007874015748},{"duration":0.09375,"midi":70,"time":472.5,"velocity":0.3937007874015748},{"duration":0.09375,"midi":77,"time":472.5,"velocity":0.3937007874015748},{"duration":0.09375,"midi":82,"time":472.5,"velocity":0.3937007874015748},{"duration":0.09375,"midi":53,"time":472.5,"velocity":0.3937007874015748},{"duration":0.09375,"midi":58,"time":472.5,"velocity":0.3937007874015748},{"duration":0.09375,"midi":94,"time":472.5,"velocity":0.3937007874015748},{"duration":0.09375,"midi":34,"time":472.5,"velocity":0.3937007874015748},{"duration":0.09375,"midi":37,"time":472.5,"velocity":0.3937007874015748},{"duration":0.09375,"midi":61,"time":472.5,"velocity":0.3937007874015748},{"duration":0.09375,"midi":89,"time":472.5,"velocity":0.3937007874015748},{"duration":0.09375,"midi":49,"time":472.5,"velocity":0.3937007874015748},{"duration":0.09375,"midi":65,"time":472.5,"velocity":0.3937007874015748},{"duration":0.09375,"midi":73,"time":472.5,"velocity":0.3937007874015748},{"duration":0.09375,"midi":46,"time":472.5,"velocity":0.3937007874015748},{"duration":0.09375,"midi":41,"time":472.5,"velocity":0.3937007874015748},{"duration":0.09375,"midi":25,"time":472.5,"velocity":0.3937007874015748},{"duration":0.09375,"midi":85,"time":472.5,"velocity":0.3937007874015748},{"duration":0.09375,"midi":29,"time":472.5,"velocity":0.3937007874015748},{"duration":0.09375,"midi":37,"time":472.6875,"velocity":0.3937007874015748},{"duration":0.09375,"midi":70,"time":472.6875,"velocity":0.3937007874015748},{"duration":0.09375,"midi":29,"time":472.6875,"velocity":0.3937007874015748},{"duration":0.09375,"midi":41,"time":472.6875,"velocity":0.3937007874015748},{"duration":0.09375,"midi":25,"time":472.6875,"velocity":0.3937007874015748},{"duration":0.09375,"midi":94,"time":472.6875,"velocity":0.3937007874015748},{"duration":0.09375,"midi":46,"time":472.6875,"velocity":0.3937007874015748},{"duration":0.09375,"midi":34,"time":472.6875,"velocity":0.3937007874015748},{"duration":0.09375,"midi":65,"time":472.6875,"velocity":0.3937007874015748},{"duration":0.09375,"midi":89,"time":472.6875,"velocity":0.3937007874015748},{"duration":0.09375,"midi":85,"time":472.6875,"velocity":0.3937007874015748},{"duration":0.09375,"midi":61,"time":472.6875,"velocity":0.3937007874015748},{"duration":0.09375,"midi":53,"time":472.6875,"velocity":0.3937007874015748},{"duration":0.09375,"midi":77,"time":472.6875,"velocity":0.3937007874015748},{"duration":0.09375,"midi":58,"time":472.6875,"velocity":0.3937007874015748},{"duration":0.09375,"midi":49,"time":472.6875,"velocity":0.3937007874015748},{"duration":0.09375,"midi":73,"time":472.6875,"velocity":0.3937007874015748},{"duration":0.09375,"midi":82,"time":472.6875,"velocity":0.3937007874015748},{"duration":0.09375,"midi":73,"time":472.875,"velocity":0.3937007874015748},{"duration":0.09375,"midi":77,"time":472.875,"velocity":0.3937007874015748},{"duration":0.09375,"midi":34,"time":472.875,"velocity":0.3937007874015748},{"duration":0.09375,"midi":65,"time":472.875,"velocity":0.3937007874015748},{"duration":0.09375,"midi":70,"time":472.875,"velocity":0.3937007874015748},{"duration":0.09375,"midi":46,"time":472.875,"velocity":0.3937007874015748},{"duration":0.09375,"midi":37,"time":472.875,"velocity":0.3937007874015748},{"duration":0.09375,"midi":49,"time":472.875,"velocity":0.3937007874015748},{"duration":0.09375,"midi":94,"time":472.875,"velocity":0.3937007874015748},{"duration":0.09375,"midi":53,"time":472.875,"velocity":0.3937007874015748},{"duration":0.09375,"midi":82,"time":472.875,"velocity":0.3937007874015748},{"duration":0.09375,"midi":58,"time":472.875,"velocity":0.3937007874015748},{"duration":0.09375,"midi":61,"time":472.875,"velocity":0.3937007874015748},{"duration":0.09375,"midi":85,"time":472.875,"velocity":0.3937007874015748},{"duration":0.09375,"midi":29,"time":472.875,"velocity":0.3937007874015748},{"duration":0.09375,"midi":25,"time":472.875,"velocity":0.3937007874015748},{"duration":0.09375,"midi":41,"time":472.875,"velocity":0.3937007874015748},{"duration":0.09375,"midi":89,"time":472.875,"velocity":0.3937007874015748},{"duration":0.09375,"midi":29,"time":473.0625,"velocity":0.3937007874015748},{"duration":0.09375,"midi":73,"time":473.0625,"velocity":0.3937007874015748},{"duration":0.09375,"midi":37,"time":473.0625,"velocity":0.3937007874015748},{"duration":0.09375,"midi":65,"time":473.0625,"velocity":0.3937007874015748},{"duration":0.09375,"midi":46,"time":473.0625,"velocity":0.3937007874015748},{"duration":0.09375,"midi":70,"time":473.0625,"velocity":0.3937007874015748},{"duration":0.09375,"midi":77,"time":473.0625,"velocity":0.3937007874015748},{"duration":0.09375,"midi":82,"time":473.0625,"velocity":0.3937007874015748},{"duration":0.09375,"midi":34,"time":473.0625,"velocity":0.3937007874015748},{"duration":0.09375,"midi":41,"time":473.0625,"velocity":0.3937007874015748},{"duration":0.09375,"midi":85,"time":473.0625,"velocity":0.3937007874015748},{"duration":0.09375,"midi":94,"time":473.0625,"velocity":0.3937007874015748},{"duration":0.09375,"midi":61,"time":473.0625,"velocity":0.3937007874015748},{"duration":0.09375,"midi":25,"time":473.0625,"velocity":0.3937007874015748},{"duration":0.09375,"midi":53,"time":473.0625,"velocity":0.3937007874015748},{"duration":0.09375,"midi":58,"time":473.0625,"velocity":0.3937007874015748},{"duration":0.09375,"midi":89,"time":473.0625,"velocity":0.3937007874015748},{"duration":0.09375,"midi":49,"time":473.0625,"velocity":0.3937007874015748},{"duration":0.09375,"midi":46,"time":473.25,"velocity":0.3937007874015748},{"duration":0.09375,"midi":53,"time":473.25,"velocity":0.3937007874015748},{"duration":0.09375,"midi":61,"time":473.25,"velocity":0.3937007874015748},{"duration":0.09375,"midi":58,"time":473.25,"velocity":0.3937007874015748},{"duration":0.09375,"midi":37,"time":473.25,"velocity":0.3937007874015748},{"duration":0.09375,"midi":82,"time":473.25,"velocity":0.3937007874015748},{"duration":0.09375,"midi":25,"time":473.25,"velocity":0.3937007874015748},{"duration":0.09375,"midi":70,"time":473.25,"velocity":0.3937007874015748},{"duration":0.09375,"midi":34,"time":473.25,"velocity":0.3937007874015748},{"duration":0.09375,"midi":73,"time":473.25,"velocity":0.3937007874015748},{"duration":0.09375,"midi":41,"time":473.25,"velocity":0.3937007874015748},{"duration":0.09375,"midi":29,"time":473.25,"velocity":0.3937007874015748},{"duration":0.09375,"midi":65,"time":473.25,"velocity":0.3937007874015748},{"duration":0.09375,"midi":89,"time":473.25,"velocity":0.3937007874015748},{"duration":0.09375,"midi":77,"time":473.25,"velocity":0.3937007874015748},{"duration":0.09375,"midi":49,"time":473.25,"velocity":0.3937007874015748},{"duration":0.09375,"midi":85,"time":473.25,"velocity":0.3937007874015748},{"duration":0.09375,"midi":94,"time":473.25,"velocity":0.3937007874015748},{"duration":0.09375,"midi":70,"time":473.4375,"velocity":0.3937007874015748},{"duration":0.09375,"midi":77,"time":473.4375,"velocity":0.3937007874015748},{"duration":0.09375,"midi":82,"time":473.4375,"velocity":0.3937007874015748},{"duration":0.09375,"midi":61,"time":473.4375,"velocity":0.3937007874015748},{"duration":0.09375,"midi":89,"time":473.4375,"velocity":0.3937007874015748},{"duration":0.09375,"midi":41,"time":473.4375,"velocity":0.3937007874015748},{"duration":0.09375,"midi":46,"time":473.4375,"velocity":0.3937007874015748},{"duration":0.09375,"midi":53,"time":473.4375,"velocity":0.3937007874015748},{"duration":0.09375,"midi":49,"time":473.4375,"velocity":0.3937007874015748},{"duration":0.09375,"midi":29,"time":473.4375,"velocity":0.3937007874015748},{"duration":0.09375,"midi":37,"time":473.4375,"velocity":0.3937007874015748},{"duration":0.09375,"midi":85,"time":473.4375,"velocity":0.3937007874015748},{"duration":0.09375,"midi":94,"time":473.4375,"velocity":0.3937007874015748},{"duration":0.09375,"midi":25,"time":473.4375,"velocity":0.3937007874015748},{"duration":0.09375,"midi":65,"time":473.4375,"velocity":0.3937007874015748},{"duration":0.09375,"midi":58,"time":473.4375,"velocity":0.3937007874015748},{"duration":0.09375,"midi":34,"time":473.4375,"velocity":0.3937007874015748},{"duration":0.09375,"midi":73,"time":473.4375,"velocity":0.3937007874015748},{"duration":0.09375,"midi":85,"time":473.625,"velocity":0.3937007874015748},{"duration":0.09375,"midi":73,"time":473.625,"velocity":0.3937007874015748},{"duration":0.09375,"midi":25,"time":473.625,"velocity":0.3937007874015748},{"duration":0.09375,"midi":89,"time":473.625,"velocity":0.3937007874015748},{"duration":0.09375,"midi":58,"time":473.625,"velocity":0.3937007874015748},{"duration":0.09375,"midi":65,"time":473.625,"velocity":0.3937007874015748},{"duration":0.09375,"midi":49,"time":473.625,"velocity":0.3937007874015748},{"duration":0.09375,"midi":82,"time":473.625,"velocity":0.3937007874015748},{"duration":0.09375,"midi":53,"time":473.625,"velocity":0.3937007874015748},{"duration":0.09375,"midi":70,"time":473.625,"velocity":0.3937007874015748},{"duration":0.09375,"midi":41,"time":473.625,"velocity":0.3937007874015748},{"duration":0.09375,"midi":94,"time":473.625,"velocity":0.3937007874015748},{"duration":0.09375,"midi":46,"time":473.625,"velocity":0.3937007874015748},{"duration":0.09375,"midi":77,"time":473.625,"velocity":0.3937007874015748},{"duration":0.09375,"midi":37,"time":473.625,"velocity":0.3937007874015748},{"duration":0.09375,"midi":61,"time":473.625,"velocity":0.3937007874015748},{"duration":0.09375,"midi":29,"time":473.625,"velocity":0.3937007874015748},{"duration":0.09375,"midi":34,"time":473.625,"velocity":0.3937007874015748},{"duration":0.09375,"midi":34,"time":473.8125,"velocity":0.3937007874015748},{"duration":0.09375,"midi":37,"time":473.8125,"velocity":0.3937007874015748},{"duration":0.09375,"midi":41,"time":473.8125,"velocity":0.3937007874015748},{"duration":0.09375,"midi":61,"time":473.8125,"velocity":0.3937007874015748},{"duration":0.09375,"midi":89,"time":473.8125,"velocity":0.3937007874015748},{"duration":0.09375,"midi":94,"time":473.8125,"velocity":0.3937007874015748},{"duration":0.09375,"midi":82,"time":473.8125,"velocity":0.3937007874015748},{"duration":0.09375,"midi":65,"time":473.8125,"velocity":0.3937007874015748},{"duration":0.09375,"midi":46,"time":473.8125,"velocity":0.3937007874015748},{"duration":0.09375,"midi":58,"time":473.8125,"velocity":0.3937007874015748},{"duration":0.09375,"midi":73,"time":473.8125,"velocity":0.3937007874015748},{"duration":0.09375,"midi":53,"time":473.8125,"velocity":0.3937007874015748},{"duration":0.09375,"midi":85,"time":473.8125,"velocity":0.3937007874015748},{"duration":0.09375,"midi":77,"time":473.8125,"velocity":0.3937007874015748},{"duration":0.09375,"midi":49,"time":473.8125,"velocity":0.3937007874015748},{"duration":0.09375,"midi":29,"time":473.8125,"velocity":0.3937007874015748},{"duration":0.09375,"midi":70,"time":473.8125,"velocity":0.3937007874015748},{"duration":0.09375,"midi":25,"time":473.8125,"velocity":0.3937007874015748},{"duration":0.09375,"midi":77,"time":474,"velocity":0.3937007874015748},{"duration":0.09375,"midi":25,"time":474,"velocity":0.3937007874015748},{"duration":0.09375,"midi":82,"time":474,"velocity":0.3937007874015748},{"duration":0.09375,"midi":41,"time":474,"velocity":0.3937007874015748},{"duration":0.09375,"midi":73,"time":474,"velocity":0.3937007874015748},{"duration":0.09375,"midi":70,"time":474,"velocity":0.3937007874015748},{"duration":0.09375,"midi":29,"time":474,"velocity":0.3937007874015748},{"duration":0.09375,"midi":34,"time":474,"velocity":0.3937007874015748},{"duration":0.09375,"midi":37,"time":474,"velocity":0.3937007874015748},{"duration":0.09375,"midi":94,"time":474,"velocity":0.3937007874015748},{"duration":0.09375,"midi":85,"time":474,"velocity":0.3937007874015748},{"duration":0.09375,"midi":65,"time":474,"velocity":0.3937007874015748},{"duration":0.09375,"midi":89,"time":474,"velocity":0.3937007874015748},{"duration":0.09375,"midi":58,"time":474,"velocity":0.3937007874015748},{"duration":0.09375,"midi":46,"time":474,"velocity":0.3937007874015748},{"duration":0.09375,"midi":53,"time":474,"velocity":0.3937007874015748},{"duration":0.09375,"midi":49,"time":474,"velocity":0.3937007874015748},{"duration":0.09375,"midi":61,"time":474,"velocity":0.3937007874015748},{"duration":0.09375,"midi":61,"time":474.1875,"velocity":0.3937007874015748},{"duration":0.09375,"midi":82,"time":474.1875,"velocity":0.3937007874015748},{"duration":0.09375,"midi":85,"time":474.1875,"velocity":0.3937007874015748},{"duration":0.09375,"midi":53,"time":474.1875,"velocity":0.3937007874015748},{"duration":0.09375,"midi":49,"time":474.1875,"velocity":0.3937007874015748},{"duration":0.09375,"midi":58,"time":474.1875,"velocity":0.3937007874015748},{"duration":0.09375,"midi":94,"time":474.1875,"velocity":0.3937007874015748},{"duration":0.09375,"midi":29,"time":474.1875,"velocity":0.3937007874015748},{"duration":0.09375,"midi":41,"time":474.1875,"velocity":0.3937007874015748},{"duration":0.09375,"midi":77,"time":474.1875,"velocity":0.3937007874015748},{"duration":0.09375,"midi":73,"time":474.1875,"velocity":0.3937007874015748},{"duration":0.09375,"midi":25,"time":474.1875,"velocity":0.3937007874015748},{"duration":0.09375,"midi":34,"time":474.1875,"velocity":0.3937007874015748},{"duration":0.09375,"midi":46,"time":474.1875,"velocity":0.3937007874015748},{"duration":0.09375,"midi":70,"time":474.1875,"velocity":0.3937007874015748},{"duration":0.09375,"midi":65,"time":474.1875,"velocity":0.3937007874015748},{"duration":0.09375,"midi":89,"time":474.1875,"velocity":0.3937007874015748},{"duration":0.09375,"midi":37,"time":474.1875,"velocity":0.3937007874015748},{"duration":0.09375,"midi":89,"time":474.375,"velocity":0.3937007874015748},{"duration":0.09375,"midi":46,"time":474.375,"velocity":0.3937007874015748},{"duration":0.09375,"midi":77,"time":474.375,"velocity":0.3937007874015748},{"duration":0.09375,"midi":73,"time":474.375,"velocity":0.3937007874015748},{"duration":0.09375,"midi":70,"time":474.375,"velocity":0.3937007874015748},{"duration":0.09375,"midi":58,"time":474.375,"velocity":0.3937007874015748},{"duration":0.09375,"midi":37,"time":474.375,"velocity":0.3937007874015748},{"duration":0.09375,"midi":34,"time":474.375,"velocity":0.3937007874015748},{"duration":0.09375,"midi":25,"time":474.375,"velocity":0.3937007874015748},{"duration":0.09375,"midi":61,"time":474.375,"velocity":0.3937007874015748},{"duration":0.09375,"midi":82,"time":474.375,"velocity":0.3937007874015748},{"duration":0.09375,"midi":65,"time":474.375,"velocity":0.3937007874015748},{"duration":0.09375,"midi":94,"time":474.375,"velocity":0.3937007874015748},{"duration":0.09375,"midi":85,"time":474.375,"velocity":0.3937007874015748},{"duration":0.09375,"midi":49,"time":474.375,"velocity":0.3937007874015748},{"duration":0.09375,"midi":29,"time":474.375,"velocity":0.3937007874015748},{"duration":0.09375,"midi":41,"time":474.375,"velocity":0.3937007874015748},{"duration":0.09375,"midi":53,"time":474.375,"velocity":0.3937007874015748},{"duration":0.09375,"midi":70,"time":474.5625,"velocity":0.3937007874015748},{"duration":0.09375,"midi":53,"time":474.5625,"velocity":0.3937007874015748},{"duration":0.09375,"midi":34,"time":474.5625,"velocity":0.3937007874015748},{"duration":0.09375,"midi":37,"time":474.5625,"velocity":0.3937007874015748},{"duration":0.09375,"midi":49,"time":474.5625,"velocity":0.3937007874015748},{"duration":0.09375,"midi":77,"time":474.5625,"velocity":0.3937007874015748},{"duration":0.09375,"midi":73,"time":474.5625,"velocity":0.3937007874015748},{"duration":0.09375,"midi":89,"time":474.5625,"velocity":0.3937007874015748},{"duration":0.09375,"midi":46,"time":474.5625,"velocity":0.3937007874015748},{"duration":0.09375,"midi":82,"time":474.5625,"velocity":0.3937007874015748},{"duration":0.09375,"midi":58,"time":474.5625,"velocity":0.3937007874015748},{"duration":0.09375,"midi":61,"time":474.5625,"velocity":0.3937007874015748},{"duration":0.09375,"midi":65,"time":474.5625,"velocity":0.3937007874015748},{"duration":0.09375,"midi":25,"time":474.5625,"velocity":0.3937007874015748},{"duration":0.09375,"midi":85,"time":474.5625,"velocity":0.3937007874015748},{"duration":0.09375,"midi":94,"time":474.5625,"velocity":0.3937007874015748},{"duration":0.09375,"midi":29,"time":474.5625,"velocity":0.3937007874015748},{"duration":0.09375,"midi":41,"time":474.5625,"velocity":0.3937007874015748},{"duration":0.09375,"midi":89,"time":474.75,"velocity":0.3937007874015748},{"duration":0.09375,"midi":49,"time":474.75,"velocity":0.3937007874015748},{"duration":0.09375,"midi":73,"time":474.75,"velocity":0.3937007874015748},{"duration":0.09375,"midi":25,"time":474.75,"velocity":0.3937007874015748},{"duration":0.09375,"midi":77,"time":474.75,"velocity":0.3937007874015748},{"duration":0.09375,"midi":65,"time":474.75,"velocity":0.3937007874015748},{"duration":0.09375,"midi":82,"time":474.75,"velocity":0.3937007874015748},{"duration":0.09375,"midi":53,"time":474.75,"velocity":0.3937007874015748},{"duration":0.09375,"midi":58,"time":474.75,"velocity":0.3937007874015748},{"duration":0.09375,"midi":29,"time":474.75,"velocity":0.3937007874015748},{"duration":0.09375,"midi":94,"time":474.75,"velocity":0.3937007874015748},{"duration":0.09375,"midi":61,"time":474.75,"velocity":0.3937007874015748},{"duration":0.09375,"midi":34,"time":474.75,"velocity":0.3937007874015748},{"duration":0.09375,"midi":70,"time":474.75,"velocity":0.3937007874015748},{"duration":0.09375,"midi":41,"time":474.75,"velocity":0.3937007874015748},{"duration":0.09375,"midi":46,"time":474.75,"velocity":0.3937007874015748},{"duration":0.09375,"midi":37,"time":474.75,"velocity":0.3937007874015748},{"duration":0.09375,"midi":85,"time":474.75,"velocity":0.3937007874015748},{"duration":0.09375,"midi":25,"time":474.9375,"velocity":0.3937007874015748},{"duration":0.09375,"midi":77,"time":474.9375,"velocity":0.3937007874015748},{"duration":0.09375,"midi":53,"time":474.9375,"velocity":0.3937007874015748},{"duration":0.09375,"midi":41,"time":474.9375,"velocity":0.3937007874015748},{"duration":0.09375,"midi":70,"time":474.9375,"velocity":0.3937007874015748},{"duration":0.09375,"midi":85,"time":474.9375,"velocity":0.3937007874015748},{"duration":0.09375,"midi":94,"time":474.9375,"velocity":0.3937007874015748},{"duration":0.09375,"midi":46,"time":474.9375,"velocity":0.3937007874015748},{"duration":0.09375,"midi":58,"time":474.9375,"velocity":0.3937007874015748},{"duration":0.09375,"midi":34,"time":474.9375,"velocity":0.3937007874015748},{"duration":0.09375,"midi":29,"time":474.9375,"velocity":0.3937007874015748},{"duration":0.09375,"midi":65,"time":474.9375,"velocity":0.3937007874015748},{"duration":0.09375,"midi":49,"time":474.9375,"velocity":0.3937007874015748},{"duration":0.09375,"midi":61,"time":474.9375,"velocity":0.3937007874015748},{"duration":0.09375,"midi":73,"time":474.9375,"velocity":0.3937007874015748},{"duration":0.09375,"midi":37,"time":474.9375,"velocity":0.3937007874015748},{"duration":0.09375,"midi":89,"time":474.9375,"velocity":0.3937007874015748},{"duration":0.09375,"midi":82,"time":474.9375,"velocity":0.3937007874015748},{"duration":0.09375,"midi":58,"time":475.125,"velocity":0.3937007874015748},{"duration":0.09375,"midi":61,"time":475.125,"velocity":0.3937007874015748},{"duration":0.09375,"midi":53,"time":475.125,"velocity":0.3937007874015748},{"duration":0.09375,"midi":94,"time":475.125,"velocity":0.3937007874015748},{"duration":0.09375,"midi":25,"time":475.125,"velocity":0.3937007874015748},{"duration":0.09375,"midi":29,"time":475.125,"velocity":0.3937007874015748},{"duration":0.09375,"midi":77,"time":475.125,"velocity":0.3937007874015748},{"duration":0.09375,"midi":41,"time":475.125,"velocity":0.3937007874015748},{"duration":0.09375,"midi":70,"time":475.125,"velocity":0.3937007874015748},{"duration":0.09375,"midi":34,"time":475.125,"velocity":0.3937007874015748},{"duration":0.09375,"midi":46,"time":475.125,"velocity":0.3937007874015748},{"duration":0.09375,"midi":85,"time":475.125,"velocity":0.3937007874015748},{"duration":0.09375,"midi":49,"time":475.125,"velocity":0.3937007874015748},{"duration":0.09375,"midi":37,"time":475.125,"velocity":0.3937007874015748},{"duration":0.09375,"midi":73,"time":475.125,"velocity":0.3937007874015748},{"duration":0.09375,"midi":89,"time":475.125,"velocity":0.3937007874015748},{"duration":0.09375,"midi":82,"time":475.125,"velocity":0.3937007874015748},{"duration":0.09375,"midi":65,"time":475.125,"velocity":0.3937007874015748},{"duration":0.09375,"midi":65,"time":475.3125,"velocity":0.3937007874015748},{"duration":0.09375,"midi":85,"time":475.3125,"velocity":0.3937007874015748},{"duration":0.09375,"midi":46,"time":475.3125,"velocity":0.3937007874015748},{"duration":0.09375,"midi":73,"time":475.3125,"velocity":0.3937007874015748},{"duration":0.09375,"midi":37,"time":475.3125,"velocity":0.3937007874015748},{"duration":0.09375,"midi":94,"time":475.3125,"velocity":0.3937007874015748},{"duration":0.09375,"midi":53,"time":475.3125,"velocity":0.3937007874015748},{"duration":0.09375,"midi":41,"time":475.3125,"velocity":0.3937007874015748},{"duration":0.09375,"midi":89,"time":475.3125,"velocity":0.3937007874015748},{"duration":0.09375,"midi":25,"time":475.3125,"velocity":0.3937007874015748},{"duration":0.09375,"midi":58,"time":475.3125,"velocity":0.3937007874015748},{"duration":0.09375,"midi":49,"time":475.3125,"velocity":0.3937007874015748},{"duration":0.09375,"midi":29,"time":475.3125,"velocity":0.3937007874015748},{"duration":0.09375,"midi":61,"time":475.3125,"velocity":0.3937007874015748},{"duration":0.09375,"midi":82,"time":475.3125,"velocity":0.3937007874015748},{"duration":0.09375,"midi":34,"time":475.3125,"velocity":0.3937007874015748},{"duration":0.09375,"midi":77,"time":475.3125,"velocity":0.3937007874015748},{"duration":0.09375,"midi":70,"time":475.3125,"velocity":0.3937007874015748},{"duration":0.09375,"midi":77,"time":475.5,"velocity":0.3937007874015748},{"duration":0.09375,"midi":46,"time":475.5,"velocity":0.3937007874015748},{"duration":0.09375,"midi":70,"time":475.5,"velocity":0.3937007874015748},{"duration":0.09375,"midi":37,"time":475.5,"velocity":0.3937007874015748},{"duration":0.09375,"midi":58,"time":475.5,"velocity":0.3937007874015748},{"duration":0.09375,"midi":73,"time":475.5,"velocity":0.3937007874015748},{"duration":0.09375,"midi":65,"time":475.5,"velocity":0.3937007874015748},{"duration":0.09375,"midi":34,"time":475.5,"velocity":0.3937007874015748},{"duration":0.09375,"midi":82,"time":475.5,"velocity":0.3937007874015748},{"duration":0.09375,"midi":41,"time":475.5,"velocity":0.3937007874015748},{"duration":0.09375,"midi":29,"time":475.5,"velocity":0.3937007874015748},{"duration":0.09375,"midi":94,"time":475.5,"velocity":0.3937007874015748},{"duration":0.09375,"midi":49,"time":475.5,"velocity":0.3937007874015748},{"duration":0.09375,"midi":61,"time":475.5,"velocity":0.3937007874015748},{"duration":0.09375,"midi":85,"time":475.5,"velocity":0.3937007874015748},{"duration":0.09375,"midi":25,"time":475.5,"velocity":0.3937007874015748},{"duration":0.09375,"midi":89,"time":475.5,"velocity":0.3937007874015748},{"duration":0.09375,"midi":53,"time":475.5,"velocity":0.3937007874015748},{"duration":0.09375,"midi":49,"time":475.6875,"velocity":0.3937007874015748},{"duration":0.09375,"midi":70,"time":475.6875,"velocity":0.3937007874015748},{"duration":0.09375,"midi":41,"time":475.6875,"velocity":0.3937007874015748},{"duration":0.09375,"midi":58,"time":475.6875,"velocity":0.3937007874015748},{"duration":0.09375,"midi":29,"time":475.6875,"velocity":0.3937007874015748},{"duration":0.09375,"midi":85,"time":475.6875,"velocity":0.3937007874015748},{"duration":0.09375,"midi":25,"time":475.6875,"velocity":0.3937007874015748},{"duration":0.09375,"midi":89,"time":475.6875,"velocity":0.3937007874015748},{"duration":0.09375,"midi":53,"time":475.6875,"velocity":0.3937007874015748},{"duration":0.09375,"midi":65,"time":475.6875,"velocity":0.3937007874015748},{"duration":0.09375,"midi":94,"time":475.6875,"velocity":0.3937007874015748},{"duration":0.09375,"midi":34,"time":475.6875,"velocity":0.3937007874015748},{"duration":0.09375,"midi":77,"time":475.6875,"velocity":0.3937007874015748},{"duration":0.09375,"midi":46,"time":475.6875,"velocity":0.3937007874015748},{"duration":0.09375,"midi":82,"time":475.6875,"velocity":0.3937007874015748},{"duration":0.09375,"midi":61,"time":475.6875,"velocity":0.3937007874015748},{"duration":0.09375,"midi":73,"time":475.6875,"velocity":0.3937007874015748},{"duration":0.09375,"midi":37,"time":475.6875,"velocity":0.3937007874015748},{"duration":0.09375,"midi":73,"time":475.875,"velocity":0.3937007874015748},{"duration":0.09375,"midi":77,"time":475.875,"velocity":0.3937007874015748},{"duration":0.09375,"midi":58,"time":475.875,"velocity":0.3937007874015748},{"duration":0.09375,"midi":46,"time":475.875,"velocity":0.3937007874015748},{"duration":0.09375,"midi":94,"time":475.875,"velocity":0.3937007874015748},{"duration":0.09375,"midi":25,"time":475.875,"velocity":0.3937007874015748},{"duration":0.09375,"midi":53,"time":475.875,"velocity":0.3937007874015748},{"duration":0.09375,"midi":49,"time":475.875,"velocity":0.3937007874015748},{"duration":0.09375,"midi":82,"time":475.875,"velocity":0.3937007874015748},{"duration":0.09375,"midi":89,"time":475.875,"velocity":0.3937007874015748},{"duration":0.09375,"midi":85,"time":475.875,"velocity":0.3937007874015748},{"duration":0.09375,"midi":65,"time":475.875,"velocity":0.3937007874015748},{"duration":0.09375,"midi":37,"time":475.875,"velocity":0.3937007874015748},{"duration":0.09375,"midi":29,"time":475.875,"velocity":0.3937007874015748},{"duration":0.09375,"midi":70,"time":475.875,"velocity":0.3937007874015748},{"duration":0.09375,"midi":41,"time":475.875,"velocity":0.3937007874015748},{"duration":0.09375,"midi":61,"time":475.875,"velocity":0.3937007874015748},{"duration":0.09375,"midi":34,"time":475.875,"velocity":0.3937007874015748},{"duration":0.09375,"midi":61,"time":476.0625,"velocity":0.3937007874015748},{"duration":0.09375,"midi":34,"time":476.0625,"velocity":0.3937007874015748},{"duration":0.09375,"midi":73,"time":476.0625,"velocity":0.3937007874015748},{"duration":0.09375,"midi":53,"time":476.0625,"velocity":0.3937007874015748},{"duration":0.09375,"midi":37,"time":476.0625,"velocity":0.3937007874015748},{"duration":0.09375,"midi":85,"time":476.0625,"velocity":0.3937007874015748},{"duration":0.09375,"midi":89,"time":476.0625,"velocity":0.3937007874015748},{"duration":0.09375,"midi":41,"time":476.0625,"velocity":0.3937007874015748},{"duration":0.09375,"midi":77,"time":476.0625,"velocity":0.3937007874015748},{"duration":0.09375,"midi":29,"time":476.0625,"velocity":0.3937007874015748},{"duration":0.09375,"midi":82,"time":476.0625,"velocity":0.3937007874015748},{"duration":0.09375,"midi":49,"time":476.0625,"velocity":0.3937007874015748},{"duration":0.09375,"midi":65,"time":476.0625,"velocity":0.3937007874015748},{"duration":0.09375,"midi":70,"time":476.0625,"velocity":0.3937007874015748},{"duration":0.09375,"midi":94,"time":476.0625,"velocity":0.3937007874015748},{"duration":0.09375,"midi":25,"time":476.0625,"velocity":0.3937007874015748},{"duration":0.09375,"midi":46,"time":476.0625,"velocity":0.3937007874015748},{"duration":0.09375,"midi":58,"time":476.0625,"velocity":0.3937007874015748},{"duration":0.09375,"midi":61,"time":476.25,"velocity":0.3937007874015748},{"duration":0.09375,"midi":41,"time":476.25,"velocity":0.3937007874015748},{"duration":0.09375,"midi":29,"time":476.25,"velocity":0.3937007874015748},{"duration":0.09375,"midi":94,"time":476.25,"velocity":0.3937007874015748},{"duration":0.09375,"midi":25,"time":476.25,"velocity":0.3937007874015748},{"duration":0.09375,"midi":70,"time":476.25,"velocity":0.3937007874015748},{"duration":0.09375,"midi":34,"time":476.25,"velocity":0.3937007874015748},{"duration":0.09375,"midi":65,"time":476.25,"velocity":0.3937007874015748},{"duration":0.09375,"midi":77,"time":476.25,"velocity":0.3937007874015748},{"duration":0.09375,"midi":58,"time":476.25,"velocity":0.3937007874015748},{"duration":0.09375,"midi":89,"time":476.25,"velocity":0.3937007874015748},{"duration":0.09375,"midi":85,"time":476.25,"velocity":0.3937007874015748},{"duration":0.09375,"midi":49,"time":476.25,"velocity":0.3937007874015748},{"duration":0.09375,"midi":53,"time":476.25,"velocity":0.3937007874015748},{"duration":0.09375,"midi":46,"time":476.25,"velocity":0.3937007874015748},{"duration":0.09375,"midi":37,"time":476.25,"velocity":0.3937007874015748},{"duration":0.09375,"midi":82,"time":476.25,"velocity":0.3937007874015748},{"duration":0.09375,"midi":73,"time":476.25,"velocity":0.3937007874015748},{"duration":0.09375,"midi":70,"time":476.4375,"velocity":0.3937007874015748},{"duration":0.09375,"midi":61,"time":476.4375,"velocity":0.3937007874015748},{"duration":0.09375,"midi":41,"time":476.4375,"velocity":0.3937007874015748},{"duration":0.09375,"midi":77,"time":476.4375,"velocity":0.3937007874015748},{"duration":0.09375,"midi":85,"time":476.4375,"velocity":0.3937007874015748},{"duration":0.09375,"midi":46,"time":476.4375,"velocity":0.3937007874015748},{"duration":0.09375,"midi":94,"time":476.4375,"velocity":0.3937007874015748},{"duration":0.09375,"midi":49,"time":476.4375,"velocity":0.3937007874015748},{"duration":0.09375,"midi":89,"time":476.4375,"velocity":0.3937007874015748},{"duration":0.09375,"midi":65,"time":476.4375,"velocity":0.3937007874015748},{"duration":0.09375,"midi":29,"time":476.4375,"velocity":0.3937007874015748},{"duration":0.09375,"midi":53,"time":476.4375,"velocity":0.3937007874015748},{"duration":0.09375,"midi":82,"time":476.4375,"velocity":0.3937007874015748},{"duration":0.09375,"midi":25,"time":476.4375,"velocity":0.3937007874015748},{"duration":0.09375,"midi":34,"time":476.4375,"velocity":0.3937007874015748},{"duration":0.09375,"midi":58,"time":476.4375,"velocity":0.3937007874015748},{"duration":0.09375,"midi":37,"time":476.4375,"velocity":0.3937007874015748},{"duration":0.09375,"midi":73,"time":476.4375,"velocity":0.3937007874015748},{"duration":0.09375,"midi":85,"time":476.625,"velocity":0.3937007874015748},{"duration":0.09375,"midi":41,"time":476.625,"velocity":0.3937007874015748},{"duration":0.09375,"midi":94,"time":476.625,"velocity":0.3937007874015748},{"duration":0.09375,"midi":34,"time":476.625,"velocity":0.3937007874015748},{"duration":0.09375,"midi":37,"time":476.625,"velocity":0.3937007874015748},{"duration":0.09375,"midi":29,"time":476.625,"velocity":0.3937007874015748},{"duration":0.09375,"midi":73,"time":476.625,"velocity":0.3937007874015748},{"duration":0.09375,"midi":70,"time":476.625,"velocity":0.3937007874015748},{"duration":0.09375,"midi":77,"time":476.625,"velocity":0.3937007874015748},{"duration":0.09375,"midi":61,"time":476.625,"velocity":0.3937007874015748},{"duration":0.09375,"midi":25,"time":476.625,"velocity":0.3937007874015748},{"duration":0.09375,"midi":89,"time":476.625,"velocity":0.3937007874015748},{"duration":0.09375,"midi":58,"time":476.625,"velocity":0.3937007874015748},{"duration":0.09375,"midi":49,"time":476.625,"velocity":0.3937007874015748},{"duration":0.09375,"midi":46,"time":476.625,"velocity":0.3937007874015748},{"duration":0.09375,"midi":65,"time":476.625,"velocity":0.3937007874015748},{"duration":0.09375,"midi":53,"time":476.625,"velocity":0.3937007874015748},{"duration":0.09375,"midi":82,"time":476.625,"velocity":0.3937007874015748},{"duration":0.09375,"midi":41,"time":476.8125,"velocity":0.3937007874015748},{"duration":0.09375,"midi":29,"time":476.8125,"velocity":0.3937007874015748},{"duration":0.09375,"midi":94,"time":476.8125,"velocity":0.3937007874015748},{"duration":0.09375,"midi":65,"time":476.8125,"velocity":0.3937007874015748},{"duration":0.09375,"midi":34,"time":476.8125,"velocity":0.3937007874015748},{"duration":0.09375,"midi":46,"time":476.8125,"velocity":0.3937007874015748},{"duration":0.09375,"midi":49,"time":476.8125,"velocity":0.3937007874015748},{"duration":0.09375,"midi":61,"time":476.8125,"velocity":0.3937007874015748},{"duration":0.09375,"midi":73,"time":476.8125,"velocity":0.3937007874015748},{"duration":0.09375,"midi":37,"time":476.8125,"velocity":0.3937007874015748},{"duration":0.09375,"midi":89,"time":476.8125,"velocity":0.3937007874015748},{"duration":0.09375,"midi":82,"time":476.8125,"velocity":0.3937007874015748},{"duration":0.09375,"midi":77,"time":476.8125,"velocity":0.3937007874015748},{"duration":0.09375,"midi":58,"time":476.8125,"velocity":0.3937007874015748},{"duration":0.09375,"midi":85,"time":476.8125,"velocity":0.3937007874015748},{"duration":0.09375,"midi":53,"time":476.8125,"velocity":0.3937007874015748},{"duration":0.09375,"midi":70,"time":476.8125,"velocity":0.3937007874015748},{"duration":0.09375,"midi":25,"time":476.8125,"velocity":0.3937007874015748},{"duration":0.09375,"midi":58,"time":477,"velocity":0.3937007874015748},{"duration":0.09375,"midi":29,"time":477,"velocity":0.3937007874015748},{"duration":0.09375,"midi":25,"time":477,"velocity":0.3937007874015748},{"duration":0.09375,"midi":82,"time":477,"velocity":0.3937007874015748},{"duration":0.09375,"midi":94,"time":477,"velocity":0.3937007874015748},{"duration":0.09375,"midi":70,"time":477,"velocity":0.3937007874015748},{"duration":0.09375,"midi":65,"time":477,"velocity":0.3937007874015748},{"duration":0.09375,"midi":89,"time":477,"velocity":0.3937007874015748},{"duration":0.09375,"midi":34,"time":477,"velocity":0.3937007874015748},{"duration":0.09375,"midi":61,"time":477,"velocity":0.3937007874015748},{"duration":0.09375,"midi":53,"time":477,"velocity":0.3937007874015748},{"duration":0.09375,"midi":77,"time":477,"velocity":0.3937007874015748},{"duration":0.09375,"midi":85,"time":477,"velocity":0.3937007874015748},{"duration":0.09375,"midi":73,"time":477,"velocity":0.3937007874015748},{"duration":0.09375,"midi":49,"time":477,"velocity":0.3937007874015748},{"duration":0.09375,"midi":46,"time":477,"velocity":0.3937007874015748},{"duration":0.09375,"midi":37,"time":477,"velocity":0.3937007874015748},{"duration":0.09375,"midi":41,"time":477,"velocity":0.3937007874015748},{"duration":0.09375,"midi":70,"time":477.1875,"velocity":0.3937007874015748},{"duration":0.09375,"midi":34,"time":477.1875,"velocity":0.3937007874015748},{"duration":0.09375,"midi":25,"time":477.1875,"velocity":0.3937007874015748},{"duration":0.09375,"midi":41,"time":477.1875,"velocity":0.3937007874015748},{"duration":0.09375,"midi":46,"time":477.1875,"velocity":0.3937007874015748},{"duration":0.09375,"midi":94,"time":477.1875,"velocity":0.3937007874015748},{"duration":0.09375,"midi":37,"time":477.1875,"velocity":0.3937007874015748},{"duration":0.09375,"midi":49,"time":477.1875,"velocity":0.3937007874015748},{"duration":0.09375,"midi":73,"time":477.1875,"velocity":0.3937007874015748},{"duration":0.09375,"midi":61,"time":477.1875,"velocity":0.3937007874015748},{"duration":0.09375,"midi":77,"time":477.1875,"velocity":0.3937007874015748},{"duration":0.09375,"midi":29,"time":477.1875,"velocity":0.3937007874015748},{"duration":0.09375,"midi":65,"time":477.1875,"velocity":0.3937007874015748},{"duration":0.09375,"midi":82,"time":477.1875,"velocity":0.3937007874015748},{"duration":0.09375,"midi":85,"time":477.1875,"velocity":0.3937007874015748},{"duration":0.09375,"midi":89,"time":477.1875,"velocity":0.3937007874015748},{"duration":0.09375,"midi":53,"time":477.1875,"velocity":0.3937007874015748},{"duration":0.09375,"midi":58,"time":477.1875,"velocity":0.3937007874015748},{"duration":0.09375,"midi":37,"time":477.375,"velocity":0.3937007874015748},{"duration":0.09375,"midi":46,"time":477.375,"velocity":0.3937007874015748},{"duration":0.09375,"midi":82,"time":477.375,"velocity":0.3937007874015748},{"duration":0.09375,"midi":85,"time":477.375,"velocity":0.3937007874015748},{"duration":0.09375,"midi":25,"time":477.375,"velocity":0.3937007874015748},{"duration":0.09375,"midi":61,"time":477.375,"velocity":0.3937007874015748},{"duration":0.09375,"midi":70,"time":477.375,"velocity":0.3937007874015748},{"duration":0.09375,"midi":94,"time":477.375,"velocity":0.3937007874015748},{"duration":0.09375,"midi":73,"time":477.375,"velocity":0.3937007874015748},{"duration":0.09375,"midi":49,"time":477.375,"velocity":0.3937007874015748},{"duration":0.09375,"midi":34,"time":477.375,"velocity":0.3937007874015748},{"duration":0.09375,"midi":89,"time":477.375,"velocity":0.3937007874015748},{"duration":0.09375,"midi":41,"time":477.375,"velocity":0.3937007874015748},{"duration":0.09375,"midi":58,"time":477.375,"velocity":0.3937007874015748},{"duration":0.09375,"midi":53,"time":477.375,"velocity":0.3937007874015748},{"duration":0.09375,"midi":29,"time":477.375,"velocity":0.3937007874015748},{"duration":0.09375,"midi":77,"time":477.375,"velocity":0.3937007874015748},{"duration":0.09375,"midi":65,"time":477.375,"velocity":0.3937007874015748},{"duration":0.09375,"midi":37,"time":477.5625,"velocity":0.3937007874015748},{"duration":0.09375,"midi":82,"time":477.5625,"velocity":0.3937007874015748},{"duration":0.09375,"midi":70,"time":477.5625,"velocity":0.3937007874015748},{"duration":0.09375,"midi":29,"time":477.5625,"velocity":0.3937007874015748},{"duration":0.09375,"midi":77,"time":477.5625,"velocity":0.3937007874015748},{"duration":0.09375,"midi":58,"time":477.5625,"velocity":0.3937007874015748},{"duration":0.09375,"midi":49,"time":477.5625,"velocity":0.3937007874015748},{"duration":0.09375,"midi":89,"time":477.5625,"velocity":0.3937007874015748},{"duration":0.09375,"midi":34,"time":477.5625,"velocity":0.3937007874015748},{"duration":0.09375,"midi":94,"time":477.5625,"velocity":0.3937007874015748},{"duration":0.09375,"midi":85,"time":477.5625,"velocity":0.3937007874015748},{"duration":0.09375,"midi":41,"time":477.5625,"velocity":0.3937007874015748},{"duration":0.09375,"midi":25,"time":477.5625,"velocity":0.3937007874015748},{"duration":0.09375,"midi":53,"time":477.5625,"velocity":0.3937007874015748},{"duration":0.09375,"midi":73,"time":477.5625,"velocity":0.3937007874015748},{"duration":0.09375,"midi":65,"time":477.5625,"velocity":0.3937007874015748},{"duration":0.09375,"midi":46,"time":477.5625,"velocity":0.3937007874015748},{"duration":0.09375,"midi":61,"time":477.5625,"velocity":0.3937007874015748},{"duration":0.09375,"midi":46,"time":477.75,"velocity":0.3937007874015748},{"duration":0.09375,"midi":89,"time":477.75,"velocity":0.3937007874015748},{"duration":0.09375,"midi":85,"time":477.75,"velocity":0.3937007874015748},{"duration":0.09375,"midi":41,"time":477.75,"velocity":0.3937007874015748},{"duration":0.09375,"midi":49,"time":477.75,"velocity":0.3937007874015748},{"duration":0.09375,"midi":25,"time":477.75,"velocity":0.3937007874015748},{"duration":0.09375,"midi":94,"time":477.75,"velocity":0.3937007874015748},{"duration":0.09375,"midi":77,"time":477.75,"velocity":0.3937007874015748},{"duration":0.09375,"midi":61,"time":477.75,"velocity":0.3937007874015748},{"duration":0.09375,"midi":70,"time":477.75,"velocity":0.3937007874015748},{"duration":0.09375,"midi":37,"time":477.75,"velocity":0.3937007874015748},{"duration":0.09375,"midi":34,"time":477.75,"velocity":0.3937007874015748},{"duration":0.09375,"midi":58,"time":477.75,"velocity":0.3937007874015748},{"duration":0.09375,"midi":65,"time":477.75,"velocity":0.3937007874015748},{"duration":0.09375,"midi":53,"time":477.75,"velocity":0.3937007874015748},{"duration":0.09375,"midi":73,"time":477.75,"velocity":0.3937007874015748},{"duration":0.09375,"midi":82,"time":477.75,"velocity":0.3937007874015748},{"duration":0.09375,"midi":29,"time":477.75,"velocity":0.3937007874015748},{"duration":0.09375,"midi":61,"time":477.9375,"velocity":0.3937007874015748},{"duration":0.09375,"midi":70,"time":477.9375,"velocity":0.3937007874015748},{"duration":0.09375,"midi":58,"time":477.9375,"velocity":0.3937007874015748},{"duration":0.09375,"midi":94,"time":477.9375,"velocity":0.3937007874015748},{"duration":0.09375,"midi":49,"time":477.9375,"velocity":0.3937007874015748},{"duration":0.09375,"midi":25,"time":477.9375,"velocity":0.3937007874015748},{"duration":0.09375,"midi":29,"time":477.9375,"velocity":0.3937007874015748},{"duration":0.09375,"midi":46,"time":477.9375,"velocity":0.3937007874015748},{"duration":0.09375,"midi":34,"time":477.9375,"velocity":0.3937007874015748},{"duration":0.09375,"midi":37,"time":477.9375,"velocity":0.3937007874015748},{"duration":0.09375,"midi":53,"time":477.9375,"velocity":0.3937007874015748},{"duration":0.09375,"midi":41,"time":477.9375,"velocity":0.3937007874015748},{"duration":0.09375,"midi":82,"time":477.9375,"velocity":0.3937007874015748},{"duration":0.09375,"midi":77,"time":477.9375,"velocity":0.3937007874015748},{"duration":0.09375,"midi":73,"time":477.9375,"velocity":0.3937007874015748},{"duration":0.09375,"midi":85,"time":477.9375,"velocity":0.3937007874015748},{"duration":0.09375,"midi":65,"time":477.9375,"velocity":0.3937007874015748},{"duration":0.09375,"midi":89,"time":477.9375,"velocity":0.3937007874015748},{"duration":0.09375,"midi":46,"time":478.125,"velocity":0.3937007874015748},{"duration":0.09375,"midi":65,"time":478.125,"velocity":0.3937007874015748},{"duration":0.09375,"midi":61,"time":478.125,"velocity":0.3937007874015748},{"duration":0.09375,"midi":70,"time":478.125,"velocity":0.3937007874015748},{"duration":0.09375,"midi":34,"time":478.125,"velocity":0.3937007874015748},{"duration":0.09375,"midi":49,"time":478.125,"velocity":0.3937007874015748},{"duration":0.09375,"midi":94,"time":478.125,"velocity":0.3937007874015748},{"duration":0.09375,"midi":73,"time":478.125,"velocity":0.3937007874015748},{"duration":0.09375,"midi":37,"time":478.125,"velocity":0.3937007874015748},{"duration":0.09375,"midi":41,"time":478.125,"velocity":0.3937007874015748},{"duration":0.09375,"midi":82,"time":478.125,"velocity":0.3937007874015748},{"duration":0.09375,"midi":58,"time":478.125,"velocity":0.3937007874015748},{"duration":0.09375,"midi":89,"time":478.125,"velocity":0.3937007874015748},{"duration":0.09375,"midi":85,"time":478.125,"velocity":0.3937007874015748},{"duration":0.09375,"midi":53,"time":478.125,"velocity":0.3937007874015748},{"duration":0.09375,"midi":25,"time":478.125,"velocity":0.3937007874015748},{"duration":0.09375,"midi":77,"time":478.125,"velocity":0.3937007874015748},{"duration":0.09375,"midi":29,"time":478.125,"velocity":0.3937007874015748},{"duration":0.09375,"midi":65,"time":478.3125,"velocity":0.3937007874015748},{"duration":0.09375,"midi":34,"time":478.3125,"velocity":0.3937007874015748},{"duration":0.09375,"midi":58,"time":478.3125,"velocity":0.3937007874015748},{"duration":0.09375,"midi":77,"time":478.3125,"velocity":0.3937007874015748},{"duration":0.09375,"midi":61,"time":478.3125,"velocity":0.3937007874015748},{"duration":0.09375,"midi":53,"time":478.3125,"velocity":0.3937007874015748},{"duration":0.09375,"midi":85,"time":478.3125,"velocity":0.3937007874015748},{"duration":0.09375,"midi":37,"time":478.3125,"velocity":0.3937007874015748},{"duration":0.09375,"midi":94,"time":478.3125,"velocity":0.3937007874015748},{"duration":0.09375,"midi":25,"time":478.3125,"velocity":0.3937007874015748},{"duration":0.09375,"midi":49,"time":478.3125,"velocity":0.3937007874015748},{"duration":0.09375,"midi":29,"time":478.3125,"velocity":0.3937007874015748},{"duration":0.09375,"midi":46,"time":478.3125,"velocity":0.3937007874015748},{"duration":0.09375,"midi":41,"time":478.3125,"velocity":0.3937007874015748},{"duration":0.09375,"midi":70,"time":478.3125,"velocity":0.3937007874015748},{"duration":0.09375,"midi":73,"time":478.3125,"velocity":0.3937007874015748},{"duration":0.09375,"midi":89,"time":478.3125,"velocity":0.3937007874015748},{"duration":0.09375,"midi":82,"time":478.3125,"velocity":0.3937007874015748},{"duration":0.09375,"midi":49,"time":478.5,"velocity":0.3937007874015748},{"duration":0.09375,"midi":82,"time":478.5,"velocity":0.3937007874015748},{"duration":0.09375,"midi":41,"time":478.5,"velocity":0.3937007874015748},{"duration":0.09375,"midi":85,"time":478.5,"velocity":0.3937007874015748},{"duration":0.09375,"midi":94,"time":478.5,"velocity":0.3937007874015748},{"duration":0.09375,"midi":77,"time":478.5,"velocity":0.3937007874015748},{"duration":0.09375,"midi":37,"time":478.5,"velocity":0.3937007874015748},{"duration":0.09375,"midi":70,"time":478.5,"velocity":0.3937007874015748},{"duration":0.09375,"midi":46,"time":478.5,"velocity":0.3937007874015748},{"duration":0.09375,"midi":89,"time":478.5,"velocity":0.3937007874015748},{"duration":0.09375,"midi":53,"time":478.5,"velocity":0.3937007874015748},{"duration":0.09375,"midi":65,"time":478.5,"velocity":0.3937007874015748},{"duration":0.09375,"midi":61,"time":478.5,"velocity":0.3937007874015748},{"duration":0.09375,"midi":29,"time":478.5,"velocity":0.3937007874015748},{"duration":0.09375,"midi":34,"time":478.5,"velocity":0.3937007874015748},{"duration":0.09375,"midi":58,"time":478.5,"velocity":0.3937007874015748},{"duration":0.09375,"midi":25,"time":478.5,"velocity":0.3937007874015748},{"duration":0.09375,"midi":73,"time":478.5,"velocity":0.3937007874015748},{"duration":0.09375,"midi":89,"time":478.6875,"velocity":0.3937007874015748},{"duration":0.09375,"midi":82,"time":478.6875,"velocity":0.3937007874015748},{"duration":0.09375,"midi":29,"time":478.6875,"velocity":0.3937007874015748},{"duration":0.09375,"midi":65,"time":478.6875,"velocity":0.3937007874015748},{"duration":0.09375,"midi":58,"time":478.6875,"velocity":0.3937007874015748},{"duration":0.09375,"midi":25,"time":478.6875,"velocity":0.3937007874015748},{"duration":0.09375,"midi":37,"time":478.6875,"velocity":0.3937007874015748},{"duration":0.09375,"midi":41,"time":478.6875,"velocity":0.3937007874015748},{"duration":0.09375,"midi":70,"time":478.6875,"velocity":0.3937007874015748},{"duration":0.09375,"midi":73,"time":478.6875,"velocity":0.3937007874015748},{"duration":0.09375,"midi":77,"time":478.6875,"velocity":0.3937007874015748},{"duration":0.09375,"midi":94,"time":478.6875,"velocity":0.3937007874015748},{"duration":0.09375,"midi":53,"time":478.6875,"velocity":0.3937007874015748},{"duration":0.09375,"midi":85,"time":478.6875,"velocity":0.3937007874015748},{"duration":0.09375,"midi":34,"time":478.6875,"velocity":0.3937007874015748},{"duration":0.09375,"midi":61,"time":478.6875,"velocity":0.3937007874015748},{"duration":0.09375,"midi":46,"time":478.6875,"velocity":0.3937007874015748},{"duration":0.09375,"midi":49,"time":478.6875,"velocity":0.3937007874015748},{"duration":0.09375,"midi":25,"time":478.875,"velocity":0.3937007874015748},{"duration":0.09375,"midi":77,"time":478.875,"velocity":0.3937007874015748},{"duration":0.09375,"midi":41,"time":478.875,"velocity":0.3937007874015748},{"duration":0.09375,"midi":61,"time":478.875,"velocity":0.3937007874015748},{"duration":0.09375,"midi":73,"time":478.875,"velocity":0.3937007874015748},{"duration":0.09375,"midi":29,"time":478.875,"velocity":0.3937007874015748},{"duration":0.09375,"midi":58,"time":478.875,"velocity":0.3937007874015748},{"duration":0.09375,"midi":37,"time":478.875,"velocity":0.3937007874015748},{"duration":0.09375,"midi":85,"time":478.875,"velocity":0.3937007874015748},{"duration":0.09375,"midi":82,"time":478.875,"velocity":0.3937007874015748},{"duration":0.09375,"midi":46,"time":478.875,"velocity":0.3937007874015748},{"duration":0.09375,"midi":70,"time":478.875,"velocity":0.3937007874015748},{"duration":0.09375,"midi":94,"time":478.875,"velocity":0.3937007874015748},{"duration":0.09375,"midi":34,"time":478.875,"velocity":0.3937007874015748},{"duration":0.09375,"midi":89,"time":478.875,"velocity":0.3937007874015748},{"duration":0.09375,"midi":65,"time":478.875,"velocity":0.3937007874015748},{"duration":0.09375,"midi":49,"time":478.875,"velocity":0.3937007874015748},{"duration":0.09375,"midi":53,"time":478.875,"velocity":0.3937007874015748},{"duration":0.09375,"midi":53,"time":479.0625,"velocity":0.3937007874015748},{"duration":0.09375,"midi":58,"time":479.0625,"velocity":0.3937007874015748},{"duration":0.09375,"midi":82,"time":479.0625,"velocity":0.3937007874015748},{"duration":0.09375,"midi":77,"time":479.0625,"velocity":0.3937007874015748},{"duration":0.09375,"midi":41,"time":479.0625,"velocity":0.3937007874015748},{"duration":0.09375,"midi":29,"time":479.0625,"velocity":0.3937007874015748},{"duration":0.09375,"midi":46,"time":479.0625,"velocity":0.3937007874015748},{"duration":0.09375,"midi":49,"time":479.0625,"velocity":0.3937007874015748},{"duration":0.09375,"midi":25,"time":479.0625,"velocity":0.3937007874015748},{"duration":0.09375,"midi":89,"time":479.0625,"velocity":0.3937007874015748},{"duration":0.09375,"midi":73,"time":479.0625,"velocity":0.3937007874015748},{"duration":0.09375,"midi":34,"time":479.0625,"velocity":0.3937007874015748},{"duration":0.09375,"midi":61,"time":479.0625,"velocity":0.3937007874015748},{"duration":0.09375,"midi":94,"time":479.0625,"velocity":0.3937007874015748},{"duration":0.09375,"midi":37,"time":479.0625,"velocity":0.3937007874015748},{"duration":0.09375,"midi":65,"time":479.0625,"velocity":0.3937007874015748},{"duration":0.09375,"midi":70,"time":479.0625,"velocity":0.3937007874015748},{"duration":0.09375,"midi":85,"time":479.0625,"velocity":0.3937007874015748},{"duration":0.09375,"midi":25,"time":479.25,"velocity":0.3937007874015748},{"duration":0.09375,"midi":65,"time":479.25,"velocity":0.3937007874015748},{"duration":0.09375,"midi":85,"time":479.25,"velocity":0.3937007874015748},{"duration":0.09375,"midi":82,"time":479.25,"velocity":0.3937007874015748},{"duration":0.09375,"midi":58,"time":479.25,"velocity":0.3937007874015748},{"duration":0.09375,"midi":77,"time":479.25,"velocity":0.3937007874015748},{"duration":0.09375,"midi":29,"time":479.25,"velocity":0.3937007874015748},{"duration":0.09375,"midi":61,"time":479.25,"velocity":0.3937007874015748},{"duration":0.09375,"midi":89,"time":479.25,"velocity":0.3937007874015748},{"duration":0.09375,"midi":34,"time":479.25,"velocity":0.3937007874015748},{"duration":0.09375,"midi":53,"time":479.25,"velocity":0.3937007874015748},{"duration":0.09375,"midi":94,"time":479.25,"velocity":0.3937007874015748},{"duration":0.09375,"midi":46,"time":479.25,"velocity":0.3937007874015748},{"duration":0.09375,"midi":70,"time":479.25,"velocity":0.3937007874015748},{"duration":0.09375,"midi":73,"time":479.25,"velocity":0.3937007874015748},{"duration":0.09375,"midi":49,"time":479.25,"velocity":0.3937007874015748},{"duration":0.09375,"midi":37,"time":479.25,"velocity":0.3937007874015748},{"duration":0.09375,"midi":41,"time":479.25,"velocity":0.3937007874015748},{"duration":0.09375,"midi":94,"time":479.4375,"velocity":0.3937007874015748},{"duration":0.09375,"midi":34,"time":479.4375,"velocity":0.3937007874015748},{"duration":0.09375,"midi":49,"time":479.4375,"velocity":0.3937007874015748},{"duration":0.09375,"midi":61,"time":479.4375,"velocity":0.3937007874015748},{"duration":0.09375,"midi":46,"time":479.4375,"velocity":0.3937007874015748},{"duration":0.09375,"midi":70,"time":479.4375,"velocity":0.3937007874015748},{"duration":0.09375,"midi":29,"time":479.4375,"velocity":0.3937007874015748},{"duration":0.09375,"midi":58,"time":479.4375,"velocity":0.3937007874015748},{"duration":0.09375,"midi":25,"time":479.4375,"velocity":0.3937007874015748},{"duration":0.09375,"midi":37,"time":479.4375,"velocity":0.3937007874015748},{"duration":0.09375,"midi":82,"time":479.4375,"velocity":0.3937007874015748},{"duration":0.09375,"midi":53,"time":479.4375,"velocity":0.3937007874015748},{"duration":0.09375,"midi":89,"time":479.4375,"velocity":0.3937007874015748},{"duration":0.09375,"midi":85,"time":479.4375,"velocity":0.3937007874015748},{"duration":0.09375,"midi":65,"time":479.4375,"velocity":0.3937007874015748},{"duration":0.09375,"midi":77,"time":479.4375,"velocity":0.3937007874015748},{"duration":0.09375,"midi":73,"time":479.4375,"velocity":0.3937007874015748},{"duration":0.09375,"midi":41,"time":479.4375,"velocity":0.3937007874015748},{"duration":0.09375,"midi":58,"time":479.625,"velocity":0.3937007874015748},{"duration":0.09375,"midi":85,"time":479.625,"velocity":0.3937007874015748},{"duration":0.09375,"midi":37,"time":479.625,"velocity":0.3937007874015748},{"duration":0.09375,"midi":53,"time":479.625,"velocity":0.3937007874015748},{"duration":0.09375,"midi":77,"time":479.625,"velocity":0.3937007874015748},{"duration":0.09375,"midi":29,"time":479.625,"velocity":0.3937007874015748},{"duration":0.09375,"midi":94,"time":479.625,"velocity":0.3937007874015748},{"duration":0.09375,"midi":61,"time":479.625,"velocity":0.3937007874015748},{"duration":0.09375,"midi":82,"time":479.625,"velocity":0.3937007874015748},{"duration":0.09375,"midi":70,"time":479.625,"velocity":0.3937007874015748},{"duration":0.09375,"midi":89,"time":479.625,"velocity":0.3937007874015748},{"duration":0.09375,"midi":73,"time":479.625,"velocity":0.3937007874015748},{"duration":0.09375,"midi":25,"time":479.625,"velocity":0.3937007874015748},{"duration":0.09375,"midi":41,"time":479.625,"velocity":0.3937007874015748},{"duration":0.09375,"midi":49,"time":479.625,"velocity":0.3937007874015748},{"duration":0.09375,"midi":46,"time":479.625,"velocity":0.3937007874015748},{"duration":0.09375,"midi":34,"time":479.625,"velocity":0.3937007874015748},{"duration":0.09375,"midi":65,"time":479.625,"velocity":0.3937007874015748},{"duration":0.09375,"midi":70,"time":479.8125,"velocity":0.3937007874015748},{"duration":0.09375,"midi":89,"time":479.8125,"velocity":0.3937007874015748},{"duration":0.09375,"midi":37,"time":479.8125,"velocity":0.3937007874015748},{"duration":0.09375,"midi":65,"time":479.8125,"velocity":0.3937007874015748},{"duration":0.09375,"midi":58,"time":479.8125,"velocity":0.3937007874015748},{"duration":0.09375,"midi":82,"time":479.8125,"velocity":0.3937007874015748},{"duration":0.09375,"midi":41,"time":479.8125,"velocity":0.3937007874015748},{"duration":0.09375,"midi":46,"time":479.8125,"velocity":0.3937007874015748},{"duration":0.09375,"midi":25,"time":479.8125,"velocity":0.3937007874015748},{"duration":0.09375,"midi":73,"time":479.8125,"velocity":0.3937007874015748},{"duration":0.09375,"midi":77,"time":479.8125,"velocity":0.3937007874015748},{"duration":0.09375,"midi":53,"time":479.8125,"velocity":0.3937007874015748},{"duration":0.09375,"midi":49,"time":479.8125,"velocity":0.3937007874015748},{"duration":0.09375,"midi":94,"time":479.8125,"velocity":0.3937007874015748},{"duration":0.09375,"midi":85,"time":479.8125,"velocity":0.3937007874015748},{"duration":0.09375,"midi":34,"time":479.8125,"velocity":0.3937007874015748},{"duration":0.09375,"midi":29,"time":479.8125,"velocity":0.3937007874015748},{"duration":0.09375,"midi":61,"time":479.8125,"velocity":0.3937007874015748},{"duration":0.09375,"midi":87,"time":480,"velocity":0.3937007874015748},{"duration":0.09375,"midi":58,"time":480,"velocity":0.3937007874015748},{"duration":0.09375,"midi":94,"time":480,"velocity":0.3937007874015748},{"duration":0.09375,"midi":27,"time":480,"velocity":0.3937007874015748},{"duration":0.09375,"midi":78,"time":480,"velocity":0.3937007874015748},{"duration":0.09375,"midi":54,"time":480,"velocity":0.3937007874015748},{"duration":0.09375,"midi":39,"time":480,"velocity":0.3937007874015748},{"duration":0.09375,"midi":51,"time":480,"velocity":0.3937007874015748},{"duration":0.09375,"midi":90,"time":480,"velocity":0.3937007874015748},{"duration":0.09375,"midi":70,"time":480,"velocity":0.3937007874015748},{"duration":0.09375,"midi":66,"time":480,"velocity":0.3937007874015748},{"duration":0.09375,"midi":63,"time":480,"velocity":0.3937007874015748},{"duration":0.09375,"midi":46,"time":480,"velocity":0.3937007874015748},{"duration":0.09375,"midi":30,"time":480,"velocity":0.3937007874015748},{"duration":0.09375,"midi":75,"time":480,"velocity":0.3937007874015748},{"duration":0.09375,"midi":42,"time":480,"velocity":0.3937007874015748},{"duration":0.09375,"midi":34,"time":480,"velocity":0.3937007874015748},{"duration":0.09375,"midi":82,"time":480,"velocity":0.3937007874015748},{"duration":0.09375,"midi":58,"time":480.1875,"velocity":0.3937007874015748},{"duration":0.09375,"midi":78,"time":480.1875,"velocity":0.3937007874015748},{"duration":0.09375,"midi":75,"time":480.1875,"velocity":0.3937007874015748},{"duration":0.09375,"midi":70,"time":480.1875,"velocity":0.3937007874015748},{"duration":0.09375,"midi":46,"time":480.1875,"velocity":0.3937007874015748},{"duration":0.09375,"midi":42,"time":480.1875,"velocity":0.3937007874015748},{"duration":0.09375,"midi":51,"time":480.1875,"velocity":0.3937007874015748},{"duration":0.09375,"midi":63,"time":480.1875,"velocity":0.3937007874015748},{"duration":0.09375,"midi":87,"time":480.1875,"velocity":0.3937007874015748},{"duration":0.09375,"midi":39,"time":480.1875,"velocity":0.3937007874015748},{"duration":0.09375,"midi":34,"time":480.1875,"velocity":0.3937007874015748},{"duration":0.09375,"midi":54,"time":480.1875,"velocity":0.3937007874015748},{"duration":0.09375,"midi":66,"time":480.1875,"velocity":0.3937007874015748},{"duration":0.09375,"midi":27,"time":480.1875,"velocity":0.3937007874015748},{"duration":0.09375,"midi":94,"time":480.1875,"velocity":0.3937007874015748},{"duration":0.09375,"midi":90,"time":480.1875,"velocity":0.3937007874015748},{"duration":0.09375,"midi":82,"time":480.1875,"velocity":0.3937007874015748},{"duration":0.09375,"midi":30,"time":480.1875,"velocity":0.3937007874015748},{"duration":0.09375,"midi":39,"time":480.375,"velocity":0.3937007874015748},{"duration":0.09375,"midi":63,"time":480.375,"velocity":0.3937007874015748},{"duration":0.09375,"midi":46,"time":480.375,"velocity":0.3937007874015748},{"duration":0.09375,"midi":54,"time":480.375,"velocity":0.3937007874015748},{"duration":0.09375,"midi":58,"time":480.375,"velocity":0.3937007874015748},{"duration":0.09375,"midi":90,"time":480.375,"velocity":0.3937007874015748},{"duration":0.09375,"midi":94,"time":480.375,"velocity":0.3937007874015748},{"duration":0.09375,"midi":82,"time":480.375,"velocity":0.3937007874015748},{"duration":0.09375,"midi":42,"time":480.375,"velocity":0.3937007874015748},{"duration":0.09375,"midi":70,"time":480.375,"velocity":0.3937007874015748},{"duration":0.09375,"midi":87,"time":480.375,"velocity":0.3937007874015748},{"duration":0.09375,"midi":51,"time":480.375,"velocity":0.3937007874015748},{"duration":0.09375,"midi":30,"time":480.375,"velocity":0.3937007874015748},{"duration":0.09375,"midi":75,"time":480.375,"velocity":0.3937007874015748},{"duration":0.09375,"midi":66,"time":480.375,"velocity":0.3937007874015748},{"duration":0.09375,"midi":27,"time":480.375,"velocity":0.3937007874015748},{"duration":0.09375,"midi":34,"time":480.375,"velocity":0.3937007874015748},{"duration":0.09375,"midi":78,"time":480.375,"velocity":0.3937007874015748},{"duration":0.09375,"midi":54,"time":480.5625,"velocity":0.3937007874015748},{"duration":0.09375,"midi":51,"time":480.5625,"velocity":0.3937007874015748},{"duration":0.09375,"midi":42,"time":480.5625,"velocity":0.3937007874015748},{"duration":0.09375,"midi":70,"time":480.5625,"velocity":0.3937007874015748},{"duration":0.09375,"midi":46,"time":480.5625,"velocity":0.3937007874015748},{"duration":0.09375,"midi":63,"time":480.5625,"velocity":0.3937007874015748},{"duration":0.09375,"midi":75,"time":480.5625,"velocity":0.3937007874015748},{"duration":0.09375,"midi":78,"time":480.5625,"velocity":0.3937007874015748},{"duration":0.09375,"midi":34,"time":480.5625,"velocity":0.3937007874015748},{"duration":0.09375,"midi":39,"time":480.5625,"velocity":0.3937007874015748},{"duration":0.09375,"midi":82,"time":480.5625,"velocity":0.3937007874015748},{"duration":0.09375,"midi":27,"time":480.5625,"velocity":0.3937007874015748},{"duration":0.09375,"midi":66,"time":480.5625,"velocity":0.3937007874015748},{"duration":0.09375,"midi":87,"time":480.5625,"velocity":0.3937007874015748},{"duration":0.09375,"midi":30,"time":480.5625,"velocity":0.3937007874015748},{"duration":0.09375,"midi":94,"time":480.5625,"velocity":0.3937007874015748},{"duration":0.09375,"midi":58,"time":480.5625,"velocity":0.3937007874015748},{"duration":0.09375,"midi":90,"time":480.5625,"velocity":0.3937007874015748},{"duration":0.09375,"midi":78,"time":480.75,"velocity":0.3937007874015748},{"duration":0.09375,"midi":42,"time":480.75,"velocity":0.3937007874015748},{"duration":0.09375,"midi":54,"time":480.75,"velocity":0.3937007874015748},{"duration":0.09375,"midi":94,"time":480.75,"velocity":0.3937007874015748},{"duration":0.09375,"midi":46,"time":480.75,"velocity":0.3937007874015748},{"duration":0.09375,"midi":82,"time":480.75,"velocity":0.3937007874015748},{"duration":0.09375,"midi":70,"time":480.75,"velocity":0.3937007874015748},{"duration":0.09375,"midi":66,"time":480.75,"velocity":0.3937007874015748},{"duration":0.09375,"midi":27,"time":480.75,"velocity":0.3937007874015748},{"duration":0.09375,"midi":51,"time":480.75,"velocity":0.3937007874015748},{"duration":0.09375,"midi":39,"time":480.75,"velocity":0.3937007874015748},{"duration":0.09375,"midi":58,"time":480.75,"velocity":0.3937007874015748},{"duration":0.09375,"midi":87,"time":480.75,"velocity":0.3937007874015748},{"duration":0.09375,"midi":90,"time":480.75,"velocity":0.3937007874015748},{"duration":0.09375,"midi":30,"time":480.75,"velocity":0.3937007874015748},{"duration":0.09375,"midi":34,"time":480.75,"velocity":0.3937007874015748},{"duration":0.09375,"midi":63,"time":480.75,"velocity":0.3937007874015748},{"duration":0.09375,"midi":75,"time":480.75,"velocity":0.3937007874015748},{"duration":0.09375,"midi":39,"time":480.9375,"velocity":0.3937007874015748},{"duration":0.09375,"midi":46,"time":480.9375,"velocity":0.3937007874015748},{"duration":0.09375,"midi":75,"time":480.9375,"velocity":0.3937007874015748},{"duration":0.09375,"midi":58,"time":480.9375,"velocity":0.3937007874015748},{"duration":0.09375,"midi":63,"time":480.9375,"velocity":0.3937007874015748},{"duration":0.09375,"midi":42,"time":480.9375,"velocity":0.3937007874015748},{"duration":0.09375,"midi":94,"time":480.9375,"velocity":0.3937007874015748},{"duration":0.09375,"midi":82,"time":480.9375,"velocity":0.3937007874015748},{"duration":0.09375,"midi":70,"time":480.9375,"velocity":0.3937007874015748},{"duration":0.09375,"midi":78,"time":480.9375,"velocity":0.3937007874015748},{"duration":0.09375,"midi":54,"time":480.9375,"velocity":0.3937007874015748},{"duration":0.09375,"midi":34,"time":480.9375,"velocity":0.3937007874015748},{"duration":0.09375,"midi":30,"time":480.9375,"velocity":0.3937007874015748},{"duration":0.09375,"midi":87,"time":480.9375,"velocity":0.3937007874015748},{"duration":0.09375,"midi":27,"time":480.9375,"velocity":0.3937007874015748},{"duration":0.09375,"midi":51,"time":480.9375,"velocity":0.3937007874015748},{"duration":0.09375,"midi":66,"time":480.9375,"velocity":0.3937007874015748},{"duration":0.09375,"midi":90,"time":480.9375,"velocity":0.3937007874015748},{"duration":0.09375,"midi":51,"time":481.125,"velocity":0.3937007874015748},{"duration":0.09375,"midi":34,"time":481.125,"velocity":0.3937007874015748},{"duration":0.09375,"midi":87,"time":481.125,"velocity":0.3937007874015748},{"duration":0.09375,"midi":94,"time":481.125,"velocity":0.3937007874015748},{"duration":0.09375,"midi":70,"time":481.125,"velocity":0.3937007874015748},{"duration":0.09375,"midi":66,"time":481.125,"velocity":0.3937007874015748},{"duration":0.09375,"midi":82,"time":481.125,"velocity":0.3937007874015748},{"duration":0.09375,"midi":42,"time":481.125,"velocity":0.3937007874015748},{"duration":0.09375,"midi":39,"time":481.125,"velocity":0.3937007874015748},{"duration":0.09375,"midi":54,"time":481.125,"velocity":0.3937007874015748},{"duration":0.09375,"midi":90,"time":481.125,"velocity":0.3937007874015748},{"duration":0.09375,"midi":78,"time":481.125,"velocity":0.3937007874015748},{"duration":0.09375,"midi":63,"time":481.125,"velocity":0.3937007874015748},{"duration":0.09375,"midi":46,"time":481.125,"velocity":0.3937007874015748},{"duration":0.09375,"midi":58,"time":481.125,"velocity":0.3937007874015748},{"duration":0.09375,"midi":27,"time":481.125,"velocity":0.3937007874015748},{"duration":0.09375,"midi":30,"time":481.125,"velocity":0.3937007874015748},{"duration":0.09375,"midi":75,"time":481.125,"velocity":0.3937007874015748},{"duration":0.09375,"midi":90,"time":481.3125,"velocity":0.3937007874015748},{"duration":0.09375,"midi":30,"time":481.3125,"velocity":0.3937007874015748},{"duration":0.09375,"midi":51,"time":481.3125,"velocity":0.3937007874015748},{"duration":0.09375,"midi":54,"time":481.3125,"velocity":0.3937007874015748},{"duration":0.09375,"midi":66,"time":481.3125,"velocity":0.3937007874015748},{"duration":0.09375,"midi":75,"time":481.3125,"velocity":0.3937007874015748},{"duration":0.09375,"midi":94,"time":481.3125,"velocity":0.3937007874015748},{"duration":0.09375,"midi":78,"time":481.3125,"velocity":0.3937007874015748},{"duration":0.09375,"midi":39,"time":481.3125,"velocity":0.3937007874015748},{"duration":0.09375,"midi":82,"time":481.3125,"velocity":0.3937007874015748},{"duration":0.09375,"midi":34,"time":481.3125,"velocity":0.3937007874015748},{"duration":0.09375,"midi":58,"time":481.3125,"velocity":0.3937007874015748},{"duration":0.09375,"midi":27,"time":481.3125,"velocity":0.3937007874015748},{"duration":0.09375,"midi":42,"time":481.3125,"velocity":0.3937007874015748},{"duration":0.09375,"midi":87,"time":481.3125,"velocity":0.3937007874015748},{"duration":0.09375,"midi":70,"time":481.3125,"velocity":0.3937007874015748},{"duration":0.09375,"midi":46,"time":481.3125,"velocity":0.3937007874015748},{"duration":0.09375,"midi":63,"time":481.3125,"velocity":0.3937007874015748},{"duration":0.09375,"midi":65,"time":481.5,"velocity":0.3937007874015748},{"duration":0.09375,"midi":85,"time":481.5,"velocity":0.3937007874015748},{"duration":0.09375,"midi":61,"time":481.5,"velocity":0.3937007874015748},{"duration":0.09375,"midi":49,"time":481.5,"velocity":0.3937007874015748},{"duration":0.09375,"midi":37,"time":481.5,"velocity":0.3937007874015748},{"duration":0.09375,"midi":25,"time":481.5,"velocity":0.3937007874015748},{"duration":0.09375,"midi":89,"time":481.5,"velocity":0.3937007874015748},{"duration":0.09375,"midi":34,"time":481.5,"velocity":0.3937007874015748},{"duration":0.09375,"midi":94,"time":481.5,"velocity":0.3937007874015748},{"duration":0.09375,"midi":73,"time":481.5,"velocity":0.3937007874015748},{"duration":0.09375,"midi":70,"time":481.5,"velocity":0.3937007874015748},{"duration":0.09375,"midi":58,"time":481.5,"velocity":0.3937007874015748},{"duration":0.09375,"midi":41,"time":481.5,"velocity":0.3937007874015748},{"duration":0.09375,"midi":46,"time":481.5,"velocity":0.3937007874015748},{"duration":0.09375,"midi":82,"time":481.5,"velocity":0.3937007874015748},{"duration":0.09375,"midi":77,"time":481.5,"velocity":0.3937007874015748},{"duration":0.09375,"midi":29,"time":481.5,"velocity":0.3937007874015748},{"duration":0.09375,"midi":53,"time":481.5,"velocity":0.3937007874015748},{"duration":0.09375,"midi":65,"time":481.6875,"velocity":0.3937007874015748},{"duration":0.09375,"midi":34,"time":481.6875,"velocity":0.3937007874015748},{"duration":0.09375,"midi":61,"time":481.6875,"velocity":0.3937007874015748},{"duration":0.09375,"midi":37,"time":481.6875,"velocity":0.3937007874015748},{"duration":0.09375,"midi":53,"time":481.6875,"velocity":0.3937007874015748},{"duration":0.09375,"midi":77,"time":481.6875,"velocity":0.3937007874015748},{"duration":0.09375,"midi":85,"time":481.6875,"velocity":0.3937007874015748},{"duration":0.09375,"midi":58,"time":481.6875,"velocity":0.3937007874015748},{"duration":0.09375,"midi":82,"time":481.6875,"velocity":0.3937007874015748},{"duration":0.09375,"midi":25,"time":481.6875,"velocity":0.3937007874015748},{"duration":0.09375,"midi":73,"time":481.6875,"velocity":0.3937007874015748},{"duration":0.09375,"midi":29,"time":481.6875,"velocity":0.3937007874015748},{"duration":0.09375,"midi":70,"time":481.6875,"velocity":0.3937007874015748},{"duration":0.09375,"midi":49,"time":481.6875,"velocity":0.3937007874015748},{"duration":0.09375,"midi":41,"time":481.6875,"velocity":0.3937007874015748},{"duration":0.09375,"midi":46,"time":481.6875,"velocity":0.3937007874015748},{"duration":0.09375,"midi":89,"time":481.6875,"velocity":0.3937007874015748},{"duration":0.09375,"midi":94,"time":481.6875,"velocity":0.3937007874015748},{"duration":0.09375,"midi":73,"time":481.875,"velocity":0.3937007874015748},{"duration":0.09375,"midi":70,"time":481.875,"velocity":0.3937007874015748},{"duration":0.09375,"midi":94,"time":481.875,"velocity":0.3937007874015748},{"duration":0.09375,"midi":46,"time":481.875,"velocity":0.3937007874015748},{"duration":0.09375,"midi":82,"time":481.875,"velocity":0.3937007874015748},{"duration":0.09375,"midi":41,"time":481.875,"velocity":0.3937007874015748},{"duration":0.09375,"midi":61,"time":481.875,"velocity":0.3937007874015748},{"duration":0.09375,"midi":49,"time":481.875,"velocity":0.3937007874015748},{"duration":0.09375,"midi":65,"time":481.875,"velocity":0.3937007874015748},{"duration":0.09375,"midi":37,"time":481.875,"velocity":0.3937007874015748},{"duration":0.09375,"midi":77,"time":481.875,"velocity":0.3937007874015748},{"duration":0.09375,"midi":29,"time":481.875,"velocity":0.3937007874015748},{"duration":0.09375,"midi":85,"time":481.875,"velocity":0.3937007874015748},{"duration":0.09375,"midi":58,"time":481.875,"velocity":0.3937007874015748},{"duration":0.09375,"midi":25,"time":481.875,"velocity":0.3937007874015748},{"duration":0.09375,"midi":34,"time":481.875,"velocity":0.3937007874015748},{"duration":0.09375,"midi":89,"time":481.875,"velocity":0.3937007874015748},{"duration":0.09375,"midi":53,"time":481.875,"velocity":0.3937007874015748},{"duration":0.09375,"midi":73,"time":482.0625,"velocity":0.3937007874015748},{"duration":0.09375,"midi":77,"time":482.0625,"velocity":0.3937007874015748},{"duration":0.09375,"midi":41,"time":482.0625,"velocity":0.3937007874015748},{"duration":0.09375,"midi":89,"time":482.0625,"velocity":0.3937007874015748},{"duration":0.09375,"midi":94,"time":482.0625,"velocity":0.3937007874015748},{"duration":0.09375,"midi":70,"time":482.0625,"velocity":0.3937007874015748},{"duration":0.09375,"midi":85,"time":482.0625,"velocity":0.3937007874015748},{"duration":0.09375,"midi":49,"time":482.0625,"velocity":0.3937007874015748},{"duration":0.09375,"midi":25,"time":482.0625,"velocity":0.3937007874015748},{"duration":0.09375,"midi":37,"time":482.0625,"velocity":0.3937007874015748},{"duration":0.09375,"midi":29,"time":482.0625,"velocity":0.3937007874015748},{"duration":0.09375,"midi":58,"time":482.0625,"velocity":0.3937007874015748},{"duration":0.09375,"midi":53,"time":482.0625,"velocity":0.3937007874015748},{"duration":0.09375,"midi":61,"time":482.0625,"velocity":0.3937007874015748},{"duration":0.09375,"midi":65,"time":482.0625,"velocity":0.3937007874015748},{"duration":0.09375,"midi":82,"time":482.0625,"velocity":0.3937007874015748},{"duration":0.09375,"midi":34,"time":482.0625,"velocity":0.3937007874015748},{"duration":0.09375,"midi":46,"time":482.0625,"velocity":0.3937007874015748},{"duration":0.09375,"midi":65,"time":482.25,"velocity":0.3937007874015748},{"duration":0.09375,"midi":61,"time":482.25,"velocity":0.3937007874015748},{"duration":0.09375,"midi":41,"time":482.25,"velocity":0.3937007874015748},{"duration":0.09375,"midi":58,"time":482.25,"velocity":0.3937007874015748},{"duration":0.09375,"midi":73,"time":482.25,"velocity":0.3937007874015748},{"duration":0.09375,"midi":82,"time":482.25,"velocity":0.3937007874015748},{"duration":0.09375,"midi":53,"time":482.25,"velocity":0.3937007874015748},{"duration":0.09375,"midi":25,"time":482.25,"velocity":0.3937007874015748},{"duration":0.09375,"midi":29,"time":482.25,"velocity":0.3937007874015748},{"duration":0.09375,"midi":70,"time":482.25,"velocity":0.3937007874015748},{"duration":0.09375,"midi":46,"time":482.25,"velocity":0.3937007874015748},{"duration":0.09375,"midi":77,"time":482.25,"velocity":0.3937007874015748},{"duration":0.09375,"midi":49,"time":482.25,"velocity":0.3937007874015748},{"duration":0.09375,"midi":89,"time":482.25,"velocity":0.3937007874015748},{"duration":0.09375,"midi":94,"time":482.25,"velocity":0.3937007874015748},{"duration":0.09375,"midi":85,"time":482.25,"velocity":0.3937007874015748},{"duration":0.09375,"midi":37,"time":482.25,"velocity":0.3937007874015748},{"duration":0.09375,"midi":34,"time":482.25,"velocity":0.3937007874015748},{"duration":0.09375,"midi":82,"time":482.4375,"velocity":0.3937007874015748},{"duration":0.09375,"midi":46,"time":482.4375,"velocity":0.3937007874015748},{"duration":0.09375,"midi":77,"time":482.4375,"velocity":0.3937007874015748},{"duration":0.09375,"midi":58,"time":482.4375,"velocity":0.3937007874015748},{"duration":0.09375,"midi":41,"time":482.4375,"velocity":0.3937007874015748},{"duration":0.09375,"midi":34,"time":482.4375,"velocity":0.3937007874015748},{"duration":0.09375,"midi":61,"time":482.4375,"velocity":0.3937007874015748},{"duration":0.09375,"midi":37,"time":482.4375,"velocity":0.3937007874015748},{"duration":0.09375,"midi":94,"time":482.4375,"velocity":0.3937007874015748},{"duration":0.09375,"midi":73,"time":482.4375,"velocity":0.3937007874015748},{"duration":0.09375,"midi":49,"time":482.4375,"velocity":0.3937007874015748},{"duration":0.09375,"midi":25,"time":482.4375,"velocity":0.3937007874015748},{"duration":0.09375,"midi":29,"time":482.4375,"velocity":0.3937007874015748},{"duration":0.09375,"midi":85,"time":482.4375,"velocity":0.3937007874015748},{"duration":0.09375,"midi":89,"time":482.4375,"velocity":0.3937007874015748},{"duration":0.09375,"midi":70,"time":482.4375,"velocity":0.3937007874015748},{"duration":0.09375,"midi":53,"time":482.4375,"velocity":0.3937007874015748},{"duration":0.09375,"midi":65,"time":482.4375,"velocity":0.3937007874015748},{"duration":0.09375,"midi":73,"time":482.625,"velocity":0.3937007874015748},{"duration":0.09375,"midi":70,"time":482.625,"velocity":0.3937007874015748},{"duration":0.09375,"midi":49,"time":482.625,"velocity":0.3937007874015748},{"duration":0.09375,"midi":41,"time":482.625,"velocity":0.3937007874015748},{"duration":0.09375,"midi":58,"time":482.625,"velocity":0.3937007874015748},{"duration":0.09375,"midi":37,"time":482.625,"velocity":0.3937007874015748},{"duration":0.09375,"midi":85,"time":482.625,"velocity":0.3937007874015748},{"duration":0.09375,"midi":94,"time":482.625,"velocity":0.3937007874015748},{"duration":0.09375,"midi":89,"time":482.625,"velocity":0.3937007874015748},{"duration":0.09375,"midi":29,"time":482.625,"velocity":0.3937007874015748},{"duration":0.09375,"midi":34,"time":482.625,"velocity":0.3937007874015748},{"duration":0.09375,"midi":82,"time":482.625,"velocity":0.3937007874015748},{"duration":0.09375,"midi":61,"time":482.625,"velocity":0.3937007874015748},{"duration":0.09375,"midi":46,"time":482.625,"velocity":0.3937007874015748},{"duration":0.09375,"midi":25,"time":482.625,"velocity":0.3937007874015748},{"duration":0.09375,"midi":65,"time":482.625,"velocity":0.3937007874015748},{"duration":0.09375,"midi":53,"time":482.625,"velocity":0.3937007874015748},{"duration":0.09375,"midi":77,"time":482.625,"velocity":0.3937007874015748},{"duration":0.09375,"midi":89,"time":482.8125,"velocity":0.3937007874015748},{"duration":0.09375,"midi":77,"time":482.8125,"velocity":0.3937007874015748},{"duration":0.09375,"midi":25,"time":482.8125,"velocity":0.3937007874015748},{"duration":0.09375,"midi":29,"time":482.8125,"velocity":0.3937007874015748},{"duration":0.09375,"midi":65,"time":482.8125,"velocity":0.3937007874015748},{"duration":0.09375,"midi":58,"time":482.8125,"velocity":0.3937007874015748},{"duration":0.09375,"midi":53,"time":482.8125,"velocity":0.3937007874015748},{"duration":0.09375,"midi":49,"time":482.8125,"velocity":0.3937007874015748},{"duration":0.09375,"midi":70,"time":482.8125,"velocity":0.3937007874015748},{"duration":0.09375,"midi":37,"time":482.8125,"velocity":0.3937007874015748},{"duration":0.09375,"midi":82,"time":482.8125,"velocity":0.3937007874015748},{"duration":0.09375,"midi":94,"time":482.8125,"velocity":0.3937007874015748},{"duration":0.09375,"midi":85,"time":482.8125,"velocity":0.3937007874015748},{"duration":0.09375,"midi":46,"time":482.8125,"velocity":0.3937007874015748},{"duration":0.09375,"midi":73,"time":482.8125,"velocity":0.3937007874015748},{"duration":0.09375,"midi":41,"time":482.8125,"velocity":0.3937007874015748},{"duration":0.09375,"midi":34,"time":482.8125,"velocity":0.3937007874015748},{"duration":0.09375,"midi":61,"time":482.8125,"velocity":0.3937007874015748},{"duration":0.09375,"midi":48,"time":483,"velocity":0.3937007874015748},{"duration":0.09375,"midi":63,"time":483,"velocity":0.3937007874015748},{"duration":0.09375,"midi":24,"time":483,"velocity":0.3937007874015748},{"duration":0.09375,"midi":72,"time":483,"velocity":0.3937007874015748},{"duration":0.09375,"midi":75,"time":483,"velocity":0.3937007874015748},{"duration":0.09375,"midi":42,"time":483,"velocity":0.3937007874015748},{"duration":0.09375,"midi":27,"time":483,"velocity":0.3937007874015748},{"duration":0.09375,"midi":87,"time":483,"velocity":0.3937007874015748},{"duration":0.09375,"midi":84,"time":483,"velocity":0.3937007874015748},{"duration":0.09375,"midi":66,"time":483,"velocity":0.3937007874015748},{"duration":0.09375,"midi":30,"time":483,"velocity":0.3937007874015748},{"duration":0.09375,"midi":60,"time":483,"velocity":0.3937007874015748},{"duration":0.09375,"midi":78,"time":483,"velocity":0.3937007874015748},{"duration":0.09375,"midi":90,"time":483,"velocity":0.3937007874015748},{"duration":0.09375,"midi":54,"time":483,"velocity":0.3937007874015748},{"duration":0.09375,"midi":51,"time":483,"velocity":0.3937007874015748},{"duration":0.09375,"midi":39,"time":483,"velocity":0.3937007874015748},{"duration":0.09375,"midi":36,"time":483,"velocity":0.3937007874015748},{"duration":0.09375,"midi":72,"time":483.1875,"velocity":0.3937007874015748},{"duration":0.09375,"midi":60,"time":483.1875,"velocity":0.3937007874015748},{"duration":0.09375,"midi":24,"time":483.1875,"velocity":0.3937007874015748},{"duration":0.09375,"midi":51,"time":483.1875,"velocity":0.3937007874015748},{"duration":0.09375,"midi":78,"time":483.1875,"velocity":0.3937007874015748},{"duration":0.09375,"midi":90,"time":483.1875,"velocity":0.3937007874015748},{"duration":0.09375,"midi":75,"time":483.1875,"velocity":0.3937007874015748},{"duration":0.09375,"midi":48,"time":483.1875,"velocity":0.3937007874015748},{"duration":0.09375,"midi":54,"time":483.1875,"velocity":0.3937007874015748},{"duration":0.09375,"midi":39,"time":483.1875,"velocity":0.3937007874015748},{"duration":0.09375,"midi":63,"time":483.1875,"velocity":0.3937007874015748},{"duration":0.09375,"midi":36,"time":483.1875,"velocity":0.3937007874015748},{"duration":0.09375,"midi":66,"time":483.1875,"velocity":0.3937007874015748},{"duration":0.09375,"midi":84,"time":483.1875,"velocity":0.3937007874015748},{"duration":0.09375,"midi":42,"time":483.1875,"velocity":0.3937007874015748},{"duration":0.09375,"midi":27,"time":483.1875,"velocity":0.3937007874015748},{"duration":0.09375,"midi":30,"time":483.1875,"velocity":0.3937007874015748},{"duration":0.09375,"midi":87,"time":483.1875,"velocity":0.3937007874015748},{"duration":0.09375,"midi":87,"time":483.375,"velocity":0.3937007874015748},{"duration":0.09375,"midi":51,"time":483.375,"velocity":0.3937007874015748},{"duration":0.09375,"midi":72,"time":483.375,"velocity":0.3937007874015748},{"duration":0.09375,"midi":48,"time":483.375,"velocity":0.3937007874015748},{"duration":0.09375,"midi":63,"time":483.375,"velocity":0.3937007874015748},{"duration":0.09375,"midi":60,"time":483.375,"velocity":0.3937007874015748},{"duration":0.09375,"midi":39,"time":483.375,"velocity":0.3937007874015748},{"duration":0.09375,"midi":84,"time":483.375,"velocity":0.3937007874015748},{"duration":0.09375,"midi":78,"time":483.375,"velocity":0.3937007874015748},{"duration":0.09375,"midi":42,"time":483.375,"velocity":0.3937007874015748},{"duration":0.09375,"midi":30,"time":483.375,"velocity":0.3937007874015748},{"duration":0.09375,"midi":90,"time":483.375,"velocity":0.3937007874015748},{"duration":0.09375,"midi":27,"time":483.375,"velocity":0.3937007874015748},{"duration":0.09375,"midi":54,"time":483.375,"velocity":0.3937007874015748},{"duration":0.09375,"midi":36,"time":483.375,"velocity":0.3937007874015748},{"duration":0.09375,"midi":75,"time":483.375,"velocity":0.3937007874015748},{"duration":0.09375,"midi":66,"time":483.375,"velocity":0.3937007874015748},{"duration":0.09375,"midi":24,"time":483.375,"velocity":0.3937007874015748},{"duration":0.09375,"midi":51,"time":483.5625,"velocity":0.3937007874015748},{"duration":0.09375,"midi":36,"time":483.5625,"velocity":0.3937007874015748},{"duration":0.09375,"midi":78,"time":483.5625,"velocity":0.3937007874015748},{"duration":0.09375,"midi":39,"time":483.5625,"velocity":0.3937007874015748},{"duration":0.09375,"midi":63,"time":483.5625,"velocity":0.3937007874015748},{"duration":0.09375,"midi":60,"time":483.5625,"velocity":0.3937007874015748},{"duration":0.09375,"midi":84,"time":483.5625,"velocity":0.3937007874015748},{"duration":0.09375,"midi":72,"time":483.5625,"velocity":0.3937007874015748},{"duration":0.09375,"midi":30,"time":483.5625,"velocity":0.3937007874015748},{"duration":0.09375,"midi":42,"time":483.5625,"velocity":0.3937007874015748},{"duration":0.09375,"midi":87,"time":483.5625,"velocity":0.3937007874015748},{"duration":0.09375,"midi":54,"time":483.5625,"velocity":0.3937007874015748},{"duration":0.09375,"midi":66,"time":483.5625,"velocity":0.3937007874015748},{"duration":0.09375,"midi":24,"time":483.5625,"velocity":0.3937007874015748},{"duration":0.09375,"midi":27,"time":483.5625,"velocity":0.3937007874015748},{"duration":0.09375,"midi":90,"time":483.5625,"velocity":0.3937007874015748},{"duration":0.09375,"midi":75,"time":483.5625,"velocity":0.3937007874015748},{"duration":0.09375,"midi":48,"time":483.5625,"velocity":0.3937007874015748},{"duration":0.09375,"midi":87,"time":483.75,"velocity":0.3937007874015748},{"duration":0.09375,"midi":78,"time":483.75,"velocity":0.3937007874015748},{"duration":0.09375,"midi":42,"time":483.75,"velocity":0.3937007874015748},{"duration":0.09375,"midi":72,"time":483.75,"velocity":0.3937007874015748},{"duration":0.09375,"midi":27,"time":483.75,"velocity":0.3937007874015748},{"duration":0.09375,"midi":75,"time":483.75,"velocity":0.3937007874015748},{"duration":0.09375,"midi":84,"time":483.75,"velocity":0.3937007874015748},{"duration":0.09375,"midi":30,"time":483.75,"velocity":0.3937007874015748},{"duration":0.09375,"midi":24,"time":483.75,"velocity":0.3937007874015748},{"duration":0.09375,"midi":90,"time":483.75,"velocity":0.3937007874015748},{"duration":0.09375,"midi":63,"time":483.75,"velocity":0.3937007874015748},{"duration":0.09375,"midi":54,"time":483.75,"velocity":0.3937007874015748},{"duration":0.09375,"midi":66,"time":483.75,"velocity":0.3937007874015748},{"duration":0.09375,"midi":48,"time":483.75,"velocity":0.3937007874015748},{"duration":0.09375,"midi":36,"time":483.75,"velocity":0.3937007874015748},{"duration":0.09375,"midi":39,"time":483.75,"velocity":0.3937007874015748},{"duration":0.09375,"midi":51,"time":483.75,"velocity":0.3937007874015748},{"duration":0.09375,"midi":60,"time":483.75,"velocity":0.3937007874015748},{"duration":0.09375,"midi":42,"time":483.9375,"velocity":0.3937007874015748},{"duration":0.09375,"midi":75,"time":483.9375,"velocity":0.3937007874015748},{"duration":0.09375,"midi":48,"time":483.9375,"velocity":0.3937007874015748},{"duration":0.09375,"midi":63,"time":483.9375,"velocity":0.3937007874015748},{"duration":0.09375,"midi":36,"time":483.9375,"velocity":0.3937007874015748},{"duration":0.09375,"midi":24,"time":483.9375,"velocity":0.3937007874015748},{"duration":0.09375,"midi":30,"time":483.9375,"velocity":0.3937007874015748},{"duration":0.09375,"midi":51,"time":483.9375,"velocity":0.3937007874015748},{"duration":0.09375,"midi":60,"time":483.9375,"velocity":0.3937007874015748},{"duration":0.09375,"midi":39,"time":483.9375,"velocity":0.3937007874015748},{"duration":0.09375,"midi":72,"time":483.9375,"velocity":0.3937007874015748},{"duration":0.09375,"midi":78,"time":483.9375,"velocity":0.3937007874015748},{"duration":0.09375,"midi":84,"time":483.9375,"velocity":0.3937007874015748},{"duration":0.09375,"midi":27,"time":483.9375,"velocity":0.3937007874015748},{"duration":0.09375,"midi":87,"time":483.9375,"velocity":0.3937007874015748},{"duration":0.09375,"midi":66,"time":483.9375,"velocity":0.3937007874015748},{"duration":0.09375,"midi":90,"time":483.9375,"velocity":0.3937007874015748},{"duration":0.09375,"midi":54,"time":483.9375,"velocity":0.3937007874015748},{"duration":0.09375,"midi":24,"time":484.125,"velocity":0.3937007874015748},{"duration":0.09375,"midi":39,"time":484.125,"velocity":0.3937007874015748},{"duration":0.09375,"midi":90,"time":484.125,"velocity":0.3937007874015748},{"duration":0.09375,"midi":87,"time":484.125,"velocity":0.3937007874015748},{"duration":0.09375,"midi":48,"time":484.125,"velocity":0.3937007874015748},{"duration":0.09375,"midi":54,"time":484.125,"velocity":0.3937007874015748},{"duration":0.09375,"midi":51,"time":484.125,"velocity":0.3937007874015748},{"duration":0.09375,"midi":30,"time":484.125,"velocity":0.3937007874015748},{"duration":0.09375,"midi":72,"time":484.125,"velocity":0.3937007874015748},{"duration":0.09375,"midi":78,"time":484.125,"velocity":0.3937007874015748},{"duration":0.09375,"midi":42,"time":484.125,"velocity":0.3937007874015748},{"duration":0.09375,"midi":75,"time":484.125,"velocity":0.3937007874015748},{"duration":0.09375,"midi":27,"time":484.125,"velocity":0.3937007874015748},{"duration":0.09375,"midi":63,"time":484.125,"velocity":0.3937007874015748},{"duration":0.09375,"midi":66,"time":484.125,"velocity":0.3937007874015748},{"duration":0.09375,"midi":60,"time":484.125,"velocity":0.3937007874015748},{"duration":0.09375,"midi":84,"time":484.125,"velocity":0.3937007874015748},{"duration":0.09375,"midi":36,"time":484.125,"velocity":0.3937007874015748},{"duration":0.09375,"midi":90,"time":484.3125,"velocity":0.3937007874015748},{"duration":0.09375,"midi":30,"time":484.3125,"velocity":0.3937007874015748},{"duration":0.09375,"midi":24,"time":484.3125,"velocity":0.3937007874015748},{"duration":0.09375,"midi":39,"time":484.3125,"velocity":0.3937007874015748},{"duration":0.09375,"midi":27,"time":484.3125,"velocity":0.3937007874015748},{"duration":0.09375,"midi":54,"time":484.3125,"velocity":0.3937007874015748},{"duration":0.09375,"midi":48,"time":484.3125,"velocity":0.3937007874015748},{"duration":0.09375,"midi":78,"time":484.3125,"velocity":0.3937007874015748},{"duration":0.09375,"midi":75,"time":484.3125,"velocity":0.3937007874015748},{"duration":0.09375,"midi":72,"time":484.3125,"velocity":0.3937007874015748},{"duration":0.09375,"midi":66,"time":484.3125,"velocity":0.3937007874015748},{"duration":0.09375,"midi":60,"time":484.3125,"velocity":0.3937007874015748},{"duration":0.09375,"midi":51,"time":484.3125,"velocity":0.3937007874015748},{"duration":0.09375,"midi":87,"time":484.3125,"velocity":0.3937007874015748},{"duration":0.09375,"midi":63,"time":484.3125,"velocity":0.3937007874015748},{"duration":0.09375,"midi":36,"time":484.3125,"velocity":0.3937007874015748},{"duration":0.09375,"midi":42,"time":484.3125,"velocity":0.3937007874015748},{"duration":0.09375,"midi":84,"time":484.3125,"velocity":0.3937007874015748},{"duration":0.09375,"midi":65,"time":484.5,"velocity":0.3937007874015748},{"duration":0.09375,"midi":77,"time":484.5,"velocity":0.3937007874015748},{"duration":0.09375,"midi":85,"time":484.5,"velocity":0.3937007874015748},{"duration":0.09375,"midi":89,"time":484.5,"velocity":0.3937007874015748},{"duration":0.09375,"midi":70,"time":484.5,"velocity":0.3937007874015748},{"duration":0.09375,"midi":82,"time":484.5,"velocity":0.3937007874015748},{"duration":0.09375,"midi":41,"time":484.5,"velocity":0.3937007874015748},{"duration":0.09375,"midi":61,"time":484.5,"velocity":0.3937007874015748},{"duration":0.09375,"midi":49,"time":484.5,"velocity":0.3937007874015748},{"duration":0.09375,"midi":58,"time":484.5,"velocity":0.3937007874015748},{"duration":0.09375,"midi":37,"time":484.5,"velocity":0.3937007874015748},{"duration":0.09375,"midi":29,"time":484.5,"velocity":0.3937007874015748},{"duration":0.09375,"midi":46,"time":484.5,"velocity":0.3937007874015748},{"duration":0.09375,"midi":73,"time":484.5,"velocity":0.3937007874015748},{"duration":0.09375,"midi":25,"time":484.5,"velocity":0.3937007874015748},{"duration":0.09375,"midi":53,"time":484.5,"velocity":0.3937007874015748},{"duration":0.09375,"midi":34,"time":484.5,"velocity":0.3937007874015748},{"duration":0.09375,"midi":37,"time":484.6875,"velocity":0.3937007874015748},{"duration":0.09375,"midi":46,"time":484.6875,"velocity":0.3937007874015748},{"duration":0.09375,"midi":85,"time":484.6875,"velocity":0.3937007874015748},{"duration":0.09375,"midi":65,"time":484.6875,"velocity":0.3937007874015748},{"duration":0.09375,"midi":34,"time":484.6875,"velocity":0.3937007874015748},{"duration":0.09375,"midi":25,"time":484.6875,"velocity":0.3937007874015748},{"duration":0.09375,"midi":49,"time":484.6875,"velocity":0.3937007874015748},{"duration":0.09375,"midi":89,"time":484.6875,"velocity":0.3937007874015748},{"duration":0.09375,"midi":58,"time":484.6875,"velocity":0.3937007874015748},{"duration":0.09375,"midi":29,"time":484.6875,"velocity":0.3937007874015748},{"duration":0.09375,"midi":82,"time":484.6875,"velocity":0.3937007874015748},{"duration":0.09375,"midi":53,"time":484.6875,"velocity":0.3937007874015748},{"duration":0.09375,"midi":70,"time":484.6875,"velocity":0.3937007874015748},{"duration":0.09375,"midi":73,"time":484.6875,"velocity":0.3937007874015748},{"duration":0.09375,"midi":61,"time":484.6875,"velocity":0.3937007874015748},{"duration":0.09375,"midi":41,"time":484.6875,"velocity":0.3937007874015748},{"duration":0.09375,"midi":77,"time":484.6875,"velocity":0.3937007874015748},{"duration":0.09375,"midi":41,"time":484.875,"velocity":0.3937007874015748},{"duration":0.09375,"midi":49,"time":484.875,"velocity":0.3937007874015748},{"duration":0.09375,"midi":61,"time":484.875,"velocity":0.3937007874015748},{"duration":0.09375,"midi":77,"time":484.875,"velocity":0.3937007874015748},{"duration":0.09375,"midi":46,"time":484.875,"velocity":0.3937007874015748},{"duration":0.09375,"midi":34,"time":484.875,"velocity":0.3937007874015748},{"duration":0.09375,"midi":58,"time":484.875,"velocity":0.3937007874015748},{"duration":0.09375,"midi":85,"time":484.875,"velocity":0.3937007874015748},{"duration":0.09375,"midi":89,"time":484.875,"velocity":0.3937007874015748},{"duration":0.09375,"midi":65,"time":484.875,"velocity":0.3937007874015748},{"duration":0.09375,"midi":82,"time":484.875,"velocity":0.3937007874015748},{"duration":0.09375,"midi":25,"time":484.875,"velocity":0.3937007874015748},{"duration":0.09375,"midi":29,"time":484.875,"velocity":0.3937007874015748},{"duration":0.09375,"midi":53,"time":484.875,"velocity":0.3937007874015748},{"duration":0.09375,"midi":73,"time":484.875,"velocity":0.3937007874015748},{"duration":0.09375,"midi":70,"time":484.875,"velocity":0.3937007874015748},{"duration":0.09375,"midi":37,"time":484.875,"velocity":0.3937007874015748},{"duration":0.09375,"midi":61,"time":485.0625,"velocity":0.3937007874015748},{"duration":0.09375,"midi":85,"time":485.0625,"velocity":0.3937007874015748},{"duration":0.09375,"midi":89,"time":485.0625,"velocity":0.3937007874015748},{"duration":0.09375,"midi":34,"time":485.0625,"velocity":0.3937007874015748},{"duration":0.09375,"midi":73,"time":485.0625,"velocity":0.3937007874015748},{"duration":0.09375,"midi":53,"time":485.0625,"velocity":0.3937007874015748},{"duration":0.09375,"midi":25,"time":485.0625,"velocity":0.3937007874015748},{"duration":0.09375,"midi":37,"time":485.0625,"velocity":0.3937007874015748},{"duration":0.09375,"midi":70,"time":485.0625,"velocity":0.3937007874015748},{"duration":0.09375,"midi":77,"time":485.0625,"velocity":0.3937007874015748},{"duration":0.09375,"midi":82,"time":485.0625,"velocity":0.3937007874015748},{"duration":0.09375,"midi":58,"time":485.0625,"velocity":0.3937007874015748},{"duration":0.09375,"midi":65,"time":485.0625,"velocity":0.3937007874015748},{"duration":0.09375,"midi":29,"time":485.0625,"velocity":0.3937007874015748},{"duration":0.09375,"midi":41,"time":485.0625,"velocity":0.3937007874015748},{"duration":0.09375,"midi":46,"time":485.0625,"velocity":0.3937007874015748},{"duration":0.09375,"midi":49,"time":485.0625,"velocity":0.3937007874015748},{"duration":0.09375,"midi":77,"time":485.25,"velocity":0.3937007874015748},{"duration":0.09375,"midi":37,"time":485.25,"velocity":0.3937007874015748},{"duration":0.09375,"midi":49,"time":485.25,"velocity":0.3937007874015748},{"duration":0.09375,"midi":82,"time":485.25,"velocity":0.3937007874015748},{"duration":0.09375,"midi":61,"time":485.25,"velocity":0.3937007874015748},{"duration":0.09375,"midi":65,"time":485.25,"velocity":0.3937007874015748},{"duration":0.09375,"midi":53,"time":485.25,"velocity":0.3937007874015748},{"duration":0.09375,"midi":25,"time":485.25,"velocity":0.3937007874015748},{"duration":0.09375,"midi":70,"time":485.25,"velocity":0.3937007874015748},{"duration":0.09375,"midi":85,"time":485.25,"velocity":0.3937007874015748},{"duration":0.09375,"midi":89,"time":485.25,"velocity":0.3937007874015748},{"duration":0.09375,"midi":58,"time":485.25,"velocity":0.3937007874015748},{"duration":0.09375,"midi":73,"time":485.25,"velocity":0.3937007874015748},{"duration":0.09375,"midi":46,"time":485.25,"velocity":0.3937007874015748},{"duration":0.09375,"midi":34,"time":485.25,"velocity":0.3937007874015748},{"duration":0.09375,"midi":41,"time":485.25,"velocity":0.3937007874015748},{"duration":0.09375,"midi":29,"time":485.25,"velocity":0.3937007874015748},{"duration":0.09375,"midi":25,"time":485.4375,"velocity":0.3937007874015748},{"duration":0.09375,"midi":77,"time":485.4375,"velocity":0.3937007874015748},{"duration":0.09375,"midi":37,"time":485.4375,"velocity":0.3937007874015748},{"duration":0.09375,"midi":70,"time":485.4375,"velocity":0.3937007874015748},{"duration":0.09375,"midi":65,"time":485.4375,"velocity":0.3937007874015748},{"duration":0.09375,"midi":89,"time":485.4375,"velocity":0.3937007874015748},{"duration":0.09375,"midi":85,"time":485.4375,"velocity":0.3937007874015748},{"duration":0.09375,"midi":49,"time":485.4375,"velocity":0.3937007874015748},{"duration":0.09375,"midi":61,"time":485.4375,"velocity":0.3937007874015748},{"duration":0.09375,"midi":34,"time":485.4375,"velocity":0.3937007874015748},{"duration":0.09375,"midi":53,"time":485.4375,"velocity":0.3937007874015748},{"duration":0.09375,"midi":29,"time":485.4375,"velocity":0.3937007874015748},{"duration":0.09375,"midi":46,"time":485.4375,"velocity":0.3937007874015748},{"duration":0.09375,"midi":58,"time":485.4375,"velocity":0.3937007874015748},{"duration":0.09375,"midi":82,"time":485.4375,"velocity":0.3937007874015748},{"duration":0.09375,"midi":41,"time":485.4375,"velocity":0.3937007874015748},{"duration":0.09375,"midi":73,"time":485.4375,"velocity":0.3937007874015748},{"duration":0.09375,"midi":46,"time":485.625,"velocity":0.3937007874015748},{"duration":0.09375,"midi":73,"time":485.625,"velocity":0.3937007874015748},{"duration":0.09375,"midi":49,"time":485.625,"velocity":0.3937007874015748},{"duration":0.09375,"midi":41,"time":485.625,"velocity":0.3937007874015748},{"duration":0.09375,"midi":65,"time":485.625,"velocity":0.3937007874015748},{"duration":0.09375,"midi":29,"time":485.625,"velocity":0.3937007874015748},{"duration":0.09375,"midi":37,"time":485.625,"velocity":0.3937007874015748},{"duration":0.09375,"midi":34,"time":485.625,"velocity":0.3937007874015748},{"duration":0.09375,"midi":53,"time":485.625,"velocity":0.3937007874015748},{"duration":0.09375,"midi":25,"time":485.625,"velocity":0.3937007874015748},{"duration":0.09375,"midi":89,"time":485.625,"velocity":0.3937007874015748},{"duration":0.09375,"midi":82,"time":485.625,"velocity":0.3937007874015748},{"duration":0.09375,"midi":77,"time":485.625,"velocity":0.3937007874015748},{"duration":0.09375,"midi":85,"time":485.625,"velocity":0.3937007874015748},{"duration":0.09375,"midi":70,"time":485.625,"velocity":0.3937007874015748},{"duration":0.09375,"midi":61,"time":485.625,"velocity":0.3937007874015748},{"duration":0.09375,"midi":58,"time":485.625,"velocity":0.3937007874015748},{"duration":0.09375,"midi":89,"time":485.8125,"velocity":0.3937007874015748},{"duration":0.09375,"midi":77,"time":485.8125,"velocity":0.3937007874015748},{"duration":0.09375,"midi":25,"time":485.8125,"velocity":0.3937007874015748},{"duration":0.09375,"midi":58,"time":485.8125,"velocity":0.3937007874015748},{"duration":0.09375,"midi":34,"time":485.8125,"velocity":0.3937007874015748},{"duration":0.09375,"midi":85,"time":485.8125,"velocity":0.3937007874015748},{"duration":0.09375,"midi":82,"time":485.8125,"velocity":0.3937007874015748},{"duration":0.09375,"midi":49,"time":485.8125,"velocity":0.3937007874015748},{"duration":0.09375,"midi":46,"time":485.8125,"velocity":0.3937007874015748},{"duration":0.09375,"midi":53,"time":485.8125,"velocity":0.3937007874015748},{"duration":0.09375,"midi":65,"time":485.8125,"velocity":0.3937007874015748},{"duration":0.09375,"midi":41,"time":485.8125,"velocity":0.3937007874015748},{"duration":0.09375,"midi":70,"time":485.8125,"velocity":0.3937007874015748},{"duration":0.09375,"midi":29,"time":485.8125,"velocity":0.3937007874015748},{"duration":0.09375,"midi":61,"time":485.8125,"velocity":0.3937007874015748},{"duration":0.09375,"midi":73,"time":485.8125,"velocity":0.3937007874015748},{"duration":0.09375,"midi":37,"time":485.8125,"velocity":0.3937007874015748},{"duration":0.09375,"midi":94,"time":486,"velocity":0.3937007874015748},{"duration":0.09375,"midi":49,"time":486,"velocity":0.3937007874015748},{"duration":0.09375,"midi":54,"time":486,"velocity":0.3937007874015748},{"duration":0.09375,"midi":46,"time":486,"velocity":0.3937007874015748},{"duration":0.09375,"midi":42,"time":486,"velocity":0.3937007874015748},{"duration":0.09375,"midi":78,"time":486,"velocity":0.3937007874015748},{"duration":0.09375,"midi":85,"time":486,"velocity":0.3937007874015748},{"duration":0.09375,"midi":70,"time":486,"velocity":0.3937007874015748},{"duration":0.09375,"midi":73,"time":486,"velocity":0.3937007874015748},{"duration":0.09375,"midi":61,"time":486,"velocity":0.3937007874015748},{"duration":0.09375,"midi":90,"time":486,"velocity":0.3937007874015748},{"duration":0.09375,"midi":34,"time":486,"velocity":0.3937007874015748},{"duration":0.09375,"midi":25,"time":486,"velocity":0.3937007874015748},{"duration":0.09375,"midi":30,"time":486,"velocity":0.3937007874015748},{"duration":0.09375,"midi":58,"time":486,"velocity":0.3937007874015748},{"duration":0.09375,"midi":66,"time":486,"velocity":0.3937007874015748},{"duration":0.09375,"midi":82,"time":486,"velocity":0.3937007874015748},{"duration":0.09375,"midi":37,"time":486,"velocity":0.3937007874015748},{"duration":0.09375,"midi":70,"time":486.1875,"velocity":0.3937007874015748},{"duration":0.09375,"midi":78,"time":486.1875,"velocity":0.3937007874015748},{"duration":0.09375,"midi":82,"time":486.1875,"velocity":0.3937007874015748},{"duration":0.09375,"midi":25,"time":486.1875,"velocity":0.3937007874015748},{"duration":0.09375,"midi":73,"time":486.1875,"velocity":0.3937007874015748},{"duration":0.09375,"midi":34,"time":486.1875,"velocity":0.3937007874015748},{"duration":0.09375,"midi":61,"time":486.1875,"velocity":0.3937007874015748},{"duration":0.09375,"midi":54,"time":486.1875,"velocity":0.3937007874015748},{"duration":0.09375,"midi":90,"time":486.1875,"velocity":0.3937007874015748},{"duration":0.09375,"midi":94,"time":486.1875,"velocity":0.3937007874015748},{"duration":0.09375,"midi":30,"time":486.1875,"velocity":0.3937007874015748},{"duration":0.09375,"midi":42,"time":486.1875,"velocity":0.3937007874015748},{"duration":0.09375,"midi":37,"time":486.1875,"velocity":0.3937007874015748},{"duration":0.09375,"midi":58,"time":486.1875,"velocity":0.3937007874015748},{"duration":0.09375,"midi":66,"time":486.1875,"velocity":0.3937007874015748},{"duration":0.09375,"midi":85,"time":486.1875,"velocity":0.3937007874015748},{"duration":0.09375,"midi":46,"time":486.1875,"velocity":0.3937007874015748},{"duration":0.09375,"midi":49,"time":486.1875,"velocity":0.3937007874015748},{"duration":0.09375,"midi":54,"time":486.375,"velocity":0.3937007874015748},{"duration":0.09375,"midi":70,"time":486.375,"velocity":0.3937007874015748},{"duration":0.09375,"midi":94,"time":486.375,"velocity":0.3937007874015748},{"duration":0.09375,"midi":30,"time":486.375,"velocity":0.3937007874015748},{"duration":0.09375,"midi":66,"time":486.375,"velocity":0.3937007874015748},{"duration":0.09375,"midi":49,"time":486.375,"velocity":0.3937007874015748},{"duration":0.09375,"midi":85,"time":486.375,"velocity":0.3937007874015748},{"duration":0.09375,"midi":82,"time":486.375,"velocity":0.3937007874015748},{"duration":0.09375,"midi":46,"time":486.375,"velocity":0.3937007874015748},{"duration":0.09375,"midi":25,"time":486.375,"velocity":0.3937007874015748},{"duration":0.09375,"midi":58,"time":486.375,"velocity":0.3937007874015748},{"duration":0.09375,"midi":78,"time":486.375,"velocity":0.3937007874015748},{"duration":0.09375,"midi":61,"time":486.375,"velocity":0.3937007874015748},{"duration":0.09375,"midi":73,"time":486.375,"velocity":0.3937007874015748},{"duration":0.09375,"midi":90,"time":486.375,"velocity":0.3937007874015748},{"duration":0.09375,"midi":34,"time":486.375,"velocity":0.3937007874015748},{"duration":0.09375,"midi":37,"time":486.375,"velocity":0.3937007874015748},{"duration":0.09375,"midi":42,"time":486.375,"velocity":0.3937007874015748},{"duration":0.09375,"midi":46,"time":486.5625,"velocity":0.3937007874015748},{"duration":0.09375,"midi":30,"time":486.5625,"velocity":0.3937007874015748},{"duration":0.09375,"midi":34,"time":486.5625,"velocity":0.3937007874015748},{"duration":0.09375,"midi":70,"time":486.5625,"velocity":0.3937007874015748},{"duration":0.09375,"midi":25,"time":486.5625,"velocity":0.3937007874015748},{"duration":0.09375,"midi":66,"time":486.5625,"velocity":0.3937007874015748},{"duration":0.09375,"midi":37,"time":486.5625,"velocity":0.3937007874015748},{"duration":0.09375,"midi":61,"time":486.5625,"velocity":0.3937007874015748},{"duration":0.09375,"midi":82,"time":486.5625,"velocity":0.3937007874015748},{"duration":0.09375,"midi":73,"time":486.5625,"velocity":0.3937007874015748},{"duration":0.09375,"midi":54,"time":486.5625,"velocity":0.3937007874015748},{"duration":0.09375,"midi":94,"time":486.5625,"velocity":0.3937007874015748},{"duration":0.09375,"midi":90,"time":486.5625,"velocity":0.3937007874015748},{"duration":0.09375,"midi":58,"time":486.5625,"velocity":0.3937007874015748},{"duration":0.09375,"midi":49,"time":486.5625,"velocity":0.3937007874015748},{"duration":0.09375,"midi":78,"time":486.5625,"velocity":0.3937007874015748},{"duration":0.09375,"midi":42,"time":486.5625,"velocity":0.3937007874015748},{"duration":0.09375,"midi":85,"time":486.5625,"velocity":0.3937007874015748},{"duration":0.09375,"midi":46,"time":486.75,"velocity":0.3937007874015748},{"duration":0.09375,"midi":34,"time":486.75,"velocity":0.3937007874015748},{"duration":0.09375,"midi":90,"time":486.75,"velocity":0.3937007874015748},{"duration":0.09375,"midi":78,"time":486.75,"velocity":0.3937007874015748},{"duration":0.09375,"midi":66,"time":486.75,"velocity":0.3937007874015748},{"duration":0.09375,"midi":30,"time":486.75,"velocity":0.3937007874015748},{"duration":0.09375,"midi":85,"time":486.75,"velocity":0.3937007874015748},{"duration":0.09375,"midi":49,"time":486.75,"velocity":0.3937007874015748},{"duration":0.09375,"midi":73,"time":486.75,"velocity":0.3937007874015748},{"duration":0.09375,"midi":94,"time":486.75,"velocity":0.3937007874015748},{"duration":0.09375,"midi":61,"time":486.75,"velocity":0.3937007874015748},{"duration":0.09375,"midi":37,"time":486.75,"velocity":0.3937007874015748},{"duration":0.09375,"midi":54,"time":486.75,"velocity":0.3937007874015748},{"duration":0.09375,"midi":82,"time":486.75,"velocity":0.3937007874015748},{"duration":0.09375,"midi":58,"time":486.75,"velocity":0.3937007874015748},{"duration":0.09375,"midi":25,"time":486.75,"velocity":0.3937007874015748},{"duration":0.09375,"midi":70,"time":486.75,"velocity":0.3937007874015748},{"duration":0.09375,"midi":42,"time":486.75,"velocity":0.3937007874015748},{"duration":0.09375,"midi":49,"time":486.9375,"velocity":0.3937007874015748},{"duration":0.09375,"midi":61,"time":486.9375,"velocity":0.3937007874015748},{"duration":0.09375,"midi":34,"time":486.9375,"velocity":0.3937007874015748},{"duration":0.09375,"midi":66,"time":486.9375,"velocity":0.3937007874015748},{"duration":0.09375,"midi":42,"time":486.9375,"velocity":0.3937007874015748},{"duration":0.09375,"midi":46,"time":486.9375,"velocity":0.3937007874015748},{"duration":0.09375,"midi":90,"time":486.9375,"velocity":0.3937007874015748},{"duration":0.09375,"midi":94,"time":486.9375,"velocity":0.3937007874015748},{"duration":0.09375,"midi":70,"time":486.9375,"velocity":0.3937007874015748},{"duration":0.09375,"midi":82,"time":486.9375,"velocity":0.3937007874015748},{"duration":0.09375,"midi":30,"time":486.9375,"velocity":0.3937007874015748},{"duration":0.09375,"midi":78,"time":486.9375,"velocity":0.3937007874015748},{"duration":0.09375,"midi":85,"time":486.9375,"velocity":0.3937007874015748},{"duration":0.09375,"midi":25,"time":486.9375,"velocity":0.3937007874015748},{"duration":0.09375,"midi":73,"time":486.9375,"velocity":0.3937007874015748},{"duration":0.09375,"midi":37,"time":486.9375,"velocity":0.3937007874015748},{"duration":0.09375,"midi":58,"time":486.9375,"velocity":0.3937007874015748},{"duration":0.09375,"midi":54,"time":486.9375,"velocity":0.3937007874015748},{"duration":0.09375,"midi":30,"time":487.125,"velocity":0.3937007874015748},{"duration":0.09375,"midi":58,"time":487.125,"velocity":0.3937007874015748},{"duration":0.09375,"midi":70,"time":487.125,"velocity":0.3937007874015748},{"duration":0.09375,"midi":90,"time":487.125,"velocity":0.3937007874015748},{"duration":0.09375,"midi":85,"time":487.125,"velocity":0.3937007874015748},{"duration":0.09375,"midi":37,"time":487.125,"velocity":0.3937007874015748},{"duration":0.09375,"midi":34,"time":487.125,"velocity":0.3937007874015748},{"duration":0.09375,"midi":66,"time":487.125,"velocity":0.3937007874015748},{"duration":0.09375,"midi":78,"time":487.125,"velocity":0.3937007874015748},{"duration":0.09375,"midi":73,"time":487.125,"velocity":0.3937007874015748},{"duration":0.09375,"midi":94,"time":487.125,"velocity":0.3937007874015748},{"duration":0.09375,"midi":82,"time":487.125,"velocity":0.3937007874015748},{"duration":0.09375,"midi":42,"time":487.125,"velocity":0.3937007874015748},{"duration":0.09375,"midi":49,"time":487.125,"velocity":0.3937007874015748},{"duration":0.09375,"midi":54,"time":487.125,"velocity":0.3937007874015748},{"duration":0.09375,"midi":61,"time":487.125,"velocity":0.3937007874015748},{"duration":0.09375,"midi":25,"time":487.125,"velocity":0.3937007874015748},{"duration":0.09375,"midi":46,"time":487.125,"velocity":0.3937007874015748},{"duration":0.09375,"midi":58,"time":487.3125,"velocity":0.3937007874015748},{"duration":0.09375,"midi":61,"time":487.3125,"velocity":0.3937007874015748},{"duration":0.09375,"midi":94,"time":487.3125,"velocity":0.3937007874015748},{"duration":0.09375,"midi":54,"time":487.3125,"velocity":0.3937007874015748},{"duration":0.09375,"midi":42,"time":487.3125,"velocity":0.3937007874015748},{"duration":0.09375,"midi":78,"time":487.3125,"velocity":0.3937007874015748},{"duration":0.09375,"midi":70,"time":487.3125,"velocity":0.3937007874015748},{"duration":0.09375,"midi":66,"time":487.3125,"velocity":0.3937007874015748},{"duration":0.09375,"midi":90,"time":487.3125,"velocity":0.3937007874015748},{"duration":0.09375,"midi":34,"time":487.3125,"velocity":0.3937007874015748},{"duration":0.09375,"midi":49,"time":487.3125,"velocity":0.3937007874015748},{"duration":0.09375,"midi":30,"time":487.3125,"velocity":0.3937007874015748},{"duration":0.09375,"midi":25,"time":487.3125,"velocity":0.3937007874015748},{"duration":0.09375,"midi":85,"time":487.3125,"velocity":0.3937007874015748},{"duration":0.09375,"midi":46,"time":487.3125,"velocity":0.3937007874015748},{"duration":0.09375,"midi":37,"time":487.3125,"velocity":0.3937007874015748},{"duration":0.09375,"midi":82,"time":487.3125,"velocity":0.3937007874015748},{"duration":0.09375,"midi":73,"time":487.3125,"velocity":0.3937007874015748},{"duration":0.09375,"midi":54,"time":487.5,"velocity":0.3937007874015748},{"duration":0.09375,"midi":39,"time":487.5,"velocity":0.3937007874015748},{"duration":0.09375,"midi":30,"time":487.5,"velocity":0.3937007874015748},{"duration":0.09375,"midi":70,"time":487.5,"velocity":0.3937007874015748},{"duration":0.09375,"midi":66,"time":487.5,"velocity":0.3937007874015748},{"duration":0.09375,"midi":58,"time":487.5,"velocity":0.3937007874015748},{"duration":0.09375,"midi":63,"time":487.5,"velocity":0.3937007874015748},{"duration":0.09375,"midi":82,"time":487.5,"velocity":0.3937007874015748},{"duration":0.09375,"midi":90,"time":487.5,"velocity":0.3937007874015748},{"duration":0.09375,"midi":34,"time":487.5,"velocity":0.3937007874015748},{"duration":0.09375,"midi":46,"time":487.5,"velocity":0.3937007874015748},{"duration":0.09375,"midi":87,"time":487.5,"velocity":0.3937007874015748},{"duration":0.09375,"midi":42,"time":487.5,"velocity":0.3937007874015748},{"duration":0.09375,"midi":78,"time":487.5,"velocity":0.3937007874015748},{"duration":0.09375,"midi":27,"time":487.5,"velocity":0.3937007874015748},{"duration":0.09375,"midi":51,"time":487.5,"velocity":0.3937007874015748},{"duration":0.09375,"midi":94,"time":487.5,"velocity":0.3937007874015748},{"duration":0.09375,"midi":75,"time":487.5,"velocity":0.3937007874015748},{"duration":0.09375,"midi":46,"time":487.6875,"velocity":0.3937007874015748},{"duration":0.09375,"midi":30,"time":487.6875,"velocity":0.3937007874015748},{"duration":0.09375,"midi":82,"time":487.6875,"velocity":0.3937007874015748},{"duration":0.09375,"midi":34,"time":487.6875,"velocity":0.3937007874015748},{"duration":0.09375,"midi":63,"time":487.6875,"velocity":0.3937007874015748},{"duration":0.09375,"midi":90,"time":487.6875,"velocity":0.3937007874015748},{"duration":0.09375,"midi":39,"time":487.6875,"velocity":0.3937007874015748},{"duration":0.09375,"midi":42,"time":487.6875,"velocity":0.3937007874015748},{"duration":0.09375,"midi":94,"time":487.6875,"velocity":0.3937007874015748},{"duration":0.09375,"midi":27,"time":487.6875,"velocity":0.3937007874015748},{"duration":0.09375,"midi":70,"time":487.6875,"velocity":0.3937007874015748},{"duration":0.09375,"midi":87,"time":487.6875,"velocity":0.3937007874015748},{"duration":0.09375,"midi":51,"time":487.6875,"velocity":0.3937007874015748},{"duration":0.09375,"midi":58,"time":487.6875,"velocity":0.3937007874015748},{"duration":0.09375,"midi":54,"time":487.6875,"velocity":0.3937007874015748},{"duration":0.09375,"midi":75,"time":487.6875,"velocity":0.3937007874015748},{"duration":0.09375,"midi":78,"time":487.6875,"velocity":0.3937007874015748},{"duration":0.09375,"midi":66,"time":487.6875,"velocity":0.3937007874015748},{"duration":0.09375,"midi":82,"time":487.875,"velocity":0.3937007874015748},{"duration":0.09375,"midi":54,"time":487.875,"velocity":0.3937007874015748},{"duration":0.09375,"midi":51,"time":487.875,"velocity":0.3937007874015748},{"duration":0.09375,"midi":90,"time":487.875,"velocity":0.3937007874015748},{"duration":0.09375,"midi":42,"time":487.875,"velocity":0.3937007874015748},{"duration":0.09375,"midi":27,"time":487.875,"velocity":0.3937007874015748},{"duration":0.09375,"midi":70,"time":487.875,"velocity":0.3937007874015748},{"duration":0.09375,"midi":87,"time":487.875,"velocity":0.3937007874015748},{"duration":0.09375,"midi":63,"time":487.875,"velocity":0.3937007874015748},{"duration":0.09375,"midi":94,"time":487.875,"velocity":0.3937007874015748},{"duration":0.09375,"midi":75,"time":487.875,"velocity":0.3937007874015748},{"duration":0.09375,"midi":66,"time":487.875,"velocity":0.3937007874015748},{"duration":0.09375,"midi":46,"time":487.875,"velocity":0.3937007874015748},{"duration":0.09375,"midi":58,"time":487.875,"velocity":0.3937007874015748},{"duration":0.09375,"midi":30,"time":487.875,"velocity":0.3937007874015748},{"duration":0.09375,"midi":39,"time":487.875,"velocity":0.3937007874015748},{"duration":0.09375,"midi":34,"time":487.875,"velocity":0.3937007874015748},{"duration":0.09375,"midi":78,"time":487.875,"velocity":0.3937007874015748},{"duration":0.09375,"midi":42,"time":488.0625,"velocity":0.3937007874015748},{"duration":0.09375,"midi":63,"time":488.0625,"velocity":0.3937007874015748},{"duration":0.09375,"midi":46,"time":488.0625,"velocity":0.3937007874015748},{"duration":0.09375,"midi":90,"time":488.0625,"velocity":0.3937007874015748},{"duration":0.09375,"midi":82,"time":488.0625,"velocity":0.3937007874015748},{"duration":0.09375,"midi":54,"time":488.0625,"velocity":0.3937007874015748},{"duration":0.09375,"midi":70,"time":488.0625,"velocity":0.3937007874015748},{"duration":0.09375,"midi":39,"time":488.0625,"velocity":0.3937007874015748},{"duration":0.09375,"midi":75,"time":488.0625,"velocity":0.3937007874015748},{"duration":0.09375,"midi":87,"time":488.0625,"velocity":0.3937007874015748},{"duration":0.09375,"midi":51,"time":488.0625,"velocity":0.3937007874015748},{"duration":0.09375,"midi":58,"time":488.0625,"velocity":0.3937007874015748},{"duration":0.09375,"midi":30,"time":488.0625,"velocity":0.3937007874015748},{"duration":0.09375,"midi":66,"time":488.0625,"velocity":0.3937007874015748},{"duration":0.09375,"midi":34,"time":488.0625,"velocity":0.3937007874015748},{"duration":0.09375,"midi":94,"time":488.0625,"velocity":0.3937007874015748},{"duration":0.09375,"midi":27,"time":488.0625,"velocity":0.3937007874015748},{"duration":0.09375,"midi":78,"time":488.0625,"velocity":0.3937007874015748},{"duration":0.09375,"midi":54,"time":488.25,"velocity":0.3937007874015748},{"duration":0.09375,"midi":75,"time":488.25,"velocity":0.3937007874015748},{"duration":0.09375,"midi":63,"time":488.25,"velocity":0.3937007874015748},{"duration":0.09375,"midi":42,"time":488.25,"velocity":0.3937007874015748},{"duration":0.09375,"midi":94,"time":488.25,"velocity":0.3937007874015748},{"duration":0.09375,"midi":90,"time":488.25,"velocity":0.3937007874015748},{"duration":0.09375,"midi":46,"time":488.25,"velocity":0.3937007874015748},{"duration":0.09375,"midi":70,"time":488.25,"velocity":0.3937007874015748},{"duration":0.09375,"midi":51,"time":488.25,"velocity":0.3937007874015748},{"duration":0.09375,"midi":78,"time":488.25,"velocity":0.3937007874015748},{"duration":0.09375,"midi":66,"time":488.25,"velocity":0.3937007874015748},{"duration":0.09375,"midi":27,"time":488.25,"velocity":0.3937007874015748},{"duration":0.09375,"midi":58,"time":488.25,"velocity":0.3937007874015748},{"duration":0.09375,"midi":87,"time":488.25,"velocity":0.3937007874015748},{"duration":0.09375,"midi":39,"time":488.25,"velocity":0.3937007874015748},{"duration":0.09375,"midi":34,"time":488.25,"velocity":0.3937007874015748},{"duration":0.09375,"midi":30,"time":488.25,"velocity":0.3937007874015748},{"duration":0.09375,"midi":82,"time":488.25,"velocity":0.3937007874015748},{"duration":0.09375,"midi":75,"time":488.4375,"velocity":0.3937007874015748},{"duration":0.09375,"midi":30,"time":488.4375,"velocity":0.3937007874015748},{"duration":0.09375,"midi":82,"time":488.4375,"velocity":0.3937007874015748},{"duration":0.09375,"midi":90,"time":488.4375,"velocity":0.3937007874015748},{"duration":0.09375,"midi":51,"time":488.4375,"velocity":0.3937007874015748},{"duration":0.09375,"midi":34,"time":488.4375,"velocity":0.3937007874015748},{"duration":0.09375,"midi":58,"time":488.4375,"velocity":0.3937007874015748},{"duration":0.09375,"midi":39,"time":488.4375,"velocity":0.3937007874015748},{"duration":0.09375,"midi":94,"time":488.4375,"velocity":0.3937007874015748},{"duration":0.09375,"midi":27,"time":488.4375,"velocity":0.3937007874015748},{"duration":0.09375,"midi":63,"time":488.4375,"velocity":0.3937007874015748},{"duration":0.09375,"midi":70,"time":488.4375,"velocity":0.3937007874015748},{"duration":0.09375,"midi":66,"time":488.4375,"velocity":0.3937007874015748},{"duration":0.09375,"midi":42,"time":488.4375,"velocity":0.3937007874015748},{"duration":0.09375,"midi":78,"time":488.4375,"velocity":0.3937007874015748},{"duration":0.09375,"midi":46,"time":488.4375,"velocity":0.3937007874015748},{"duration":0.09375,"midi":54,"time":488.4375,"velocity":0.3937007874015748},{"duration":0.09375,"midi":87,"time":488.4375,"velocity":0.3937007874015748},{"duration":0.09375,"midi":54,"time":488.625,"velocity":0.3937007874015748},{"duration":0.09375,"midi":63,"time":488.625,"velocity":0.3937007874015748},{"duration":0.09375,"midi":58,"time":488.625,"velocity":0.3937007874015748},{"duration":0.09375,"midi":46,"time":488.625,"velocity":0.3937007874015748},{"duration":0.09375,"midi":34,"time":488.625,"velocity":0.3937007874015748},{"duration":0.09375,"midi":75,"time":488.625,"velocity":0.3937007874015748},{"duration":0.09375,"midi":94,"time":488.625,"velocity":0.3937007874015748},{"duration":0.09375,"midi":87,"time":488.625,"velocity":0.3937007874015748},{"duration":0.09375,"midi":66,"time":488.625,"velocity":0.3937007874015748},{"duration":0.09375,"midi":27,"time":488.625,"velocity":0.3937007874015748},{"duration":0.09375,"midi":82,"time":488.625,"velocity":0.3937007874015748},{"duration":0.09375,"midi":51,"time":488.625,"velocity":0.3937007874015748},{"duration":0.09375,"midi":78,"time":488.625,"velocity":0.3937007874015748},{"duration":0.09375,"midi":90,"time":488.625,"velocity":0.3937007874015748},{"duration":0.09375,"midi":70,"time":488.625,"velocity":0.3937007874015748},{"duration":0.09375,"midi":39,"time":488.625,"velocity":0.3937007874015748},{"duration":0.09375,"midi":42,"time":488.625,"velocity":0.3937007874015748},{"duration":0.09375,"midi":30,"time":488.625,"velocity":0.3937007874015748},{"duration":0.09375,"midi":82,"time":488.8125,"velocity":0.3937007874015748},{"duration":0.09375,"midi":70,"time":488.8125,"velocity":0.3937007874015748},{"duration":0.09375,"midi":39,"time":488.8125,"velocity":0.3937007874015748},{"duration":0.09375,"midi":66,"time":488.8125,"velocity":0.3937007874015748},{"duration":0.09375,"midi":87,"time":488.8125,"velocity":0.3937007874015748},{"duration":0.09375,"midi":34,"time":488.8125,"velocity":0.3937007874015748},{"duration":0.09375,"midi":90,"time":488.8125,"velocity":0.3937007874015748},{"duration":0.09375,"midi":51,"time":488.8125,"velocity":0.3937007874015748},{"duration":0.09375,"midi":75,"time":488.8125,"velocity":0.3937007874015748},{"duration":0.09375,"midi":63,"time":488.8125,"velocity":0.3937007874015748},{"duration":0.09375,"midi":58,"time":488.8125,"velocity":0.3937007874015748},{"duration":0.09375,"midi":54,"time":488.8125,"velocity":0.3937007874015748},{"duration":0.09375,"midi":78,"time":488.8125,"velocity":0.3937007874015748},{"duration":0.09375,"midi":42,"time":488.8125,"velocity":0.3937007874015748},{"duration":0.09375,"midi":94,"time":488.8125,"velocity":0.3937007874015748},{"duration":0.09375,"midi":27,"time":488.8125,"velocity":0.3937007874015748},{"duration":0.09375,"midi":30,"time":488.8125,"velocity":0.3937007874015748},{"duration":0.09375,"midi":46,"time":488.8125,"velocity":0.3937007874015748},{"duration":0.046875,"midi":71,"time":490.078125,"velocity":0.3937007874015748},{"duration":0.046875,"midi":69,"time":490.078125,"velocity":0.3937007874015748},{"duration":0.046875,"midi":48,"time":490.078125,"velocity":0.3937007874015748},{"duration":0.046875,"midi":72,"time":490.078125,"velocity":0.3937007874015748},{"duration":0.046875,"midi":81,"time":490.078125,"velocity":0.3937007874015748},{"duration":0.046875,"midi":83,"time":490.078125,"velocity":0.3937007874015748},{"duration":0.046875,"midi":53,"time":490.078125,"velocity":0.3937007874015748},{"duration":0.046875,"midi":40,"time":490.078125,"velocity":0.3937007874015748},{"duration":0.046875,"midi":65,"time":490.078125,"velocity":0.3937007874015748},{"duration":0.046875,"midi":55,"time":490.078125,"velocity":0.3937007874015748},{"duration":0.046875,"midi":50,"time":490.078125,"velocity":0.3937007874015748},{"duration":0.046875,"midi":29,"time":490.078125,"velocity":0.3937007874015748},{"duration":0.046875,"midi":89,"time":490.078125,"velocity":0.3937007874015748},{"duration":0.046875,"midi":91,"time":490.078125,"velocity":0.3937007874015748},{"duration":0.046875,"midi":31,"time":490.078125,"velocity":0.3937007874015748},{"duration":0.046875,"midi":64,"time":490.078125,"velocity":0.3937007874015748},{"duration":0.046875,"midi":67,"time":490.078125,"velocity":0.3937007874015748},{"duration":0.046875,"midi":38,"time":490.078125,"velocity":0.3937007874015748},{"duration":0.046875,"midi":52,"time":490.078125,"velocity":0.3937007874015748},{"duration":0.046875,"midi":38,"time":490.125,"velocity":0.3937007874015748},{"duration":0.046875,"midi":40,"time":490.125,"velocity":0.3937007874015748},{"duration":0.046875,"midi":57,"time":490.125,"velocity":0.3937007874015748},{"duration":0.046875,"midi":55,"time":490.125,"velocity":0.3937007874015748},{"duration":0.046875,"midi":33,"time":490.125,"velocity":0.3937007874015748},{"duration":0.046875,"midi":72,"time":490.125,"velocity":0.3937007874015748},{"duration":0.046875,"midi":91,"time":490.125,"velocity":0.3937007874015748},{"duration":0.046875,"midi":35,"time":490.125,"velocity":0.3937007874015748},{"duration":0.046875,"midi":83,"time":490.125,"velocity":0.3937007874015748},{"duration":0.046875,"midi":74,"time":490.125,"velocity":0.3937007874015748},{"duration":0.046875,"midi":48,"time":490.125,"velocity":0.3937007874015748},{"duration":0.046875,"midi":81,"time":490.125,"velocity":0.3937007874015748},{"duration":0.046875,"midi":89,"time":490.125,"velocity":0.3937007874015748},{"duration":0.046875,"midi":31,"time":490.125,"velocity":0.3937007874015748},{"duration":0.046875,"midi":47,"time":490.125,"velocity":0.3937007874015748},{"duration":0.046875,"midi":89,"time":490.171875,"velocity":0.3937007874015748},{"duration":0.046875,"midi":74,"time":490.171875,"velocity":0.3937007874015748},{"duration":0.046875,"midi":48,"time":490.171875,"velocity":0.3937007874015748},{"duration":0.046875,"midi":38,"time":490.171875,"velocity":0.3937007874015748},{"duration":0.046875,"midi":55,"time":490.171875,"velocity":0.3937007874015748},{"duration":0.046875,"midi":35,"time":490.171875,"velocity":0.3937007874015748},{"duration":0.046875,"midi":40,"time":490.171875,"velocity":0.3937007874015748},{"duration":0.046875,"midi":47,"time":490.171875,"velocity":0.3937007874015748},{"duration":0.046875,"midi":36,"time":490.171875,"velocity":0.3937007874015748},{"duration":0.046875,"midi":81,"time":490.171875,"velocity":0.3937007874015748},{"duration":0.046875,"midi":91,"time":490.171875,"velocity":0.3937007874015748},{"duration":0.046875,"midi":57,"time":490.171875,"velocity":0.3937007874015748},{"duration":0.046875,"midi":83,"time":490.171875,"velocity":0.3937007874015748},{"duration":0.046875,"midi":72,"time":490.171875,"velocity":0.3937007874015748},{"duration":0.046875,"midi":67,"time":490.21875,"velocity":0.3937007874015748},{"duration":0.046875,"midi":47,"time":490.21875,"velocity":0.3937007874015748},{"duration":0.046875,"midi":65,"time":490.21875,"velocity":0.3937007874015748},{"duration":0.046875,"midi":69,"time":490.21875,"velocity":0.3937007874015748},{"duration":0.046875,"midi":91,"time":490.21875,"velocity":0.3937007874015748},{"duration":0.046875,"midi":36,"time":490.21875,"velocity":0.3937007874015748},{"duration":0.046875,"midi":35,"time":490.21875,"velocity":0.3937007874015748},{"duration":0.046875,"midi":33,"time":490.21875,"velocity":0.3937007874015748},{"duration":0.046875,"midi":89,"time":490.21875,"velocity":0.3937007874015748},{"duration":0.046875,"midi":88,"time":490.21875,"velocity":0.3937007874015748},{"duration":0.046875,"midi":57,"time":490.21875,"velocity":0.3937007874015748},{"duration":0.046875,"midi":72,"time":490.21875,"velocity":0.3937007874015748},{"duration":0.046875,"midi":81,"time":490.21875,"velocity":0.3937007874015748},{"duration":0.046875,"midi":83,"time":490.21875,"velocity":0.3937007874015748},{"duration":0.046875,"midi":71,"time":490.21875,"velocity":0.3937007874015748},{"duration":0.046875,"midi":31,"time":490.21875,"velocity":0.3937007874015748},{"duration":0.046875,"midi":55,"time":490.21875,"velocity":0.3937007874015748},{"duration":0.046875,"midi":38,"time":490.21875,"velocity":0.3937007874015748},{"duration":0.046875,"midi":86,"time":490.21875,"velocity":0.3937007874015748},{"duration":0.046875,"midi":48,"time":490.21875,"velocity":0.3937007874015748},{"duration":0.046875,"midi":40,"time":490.21875,"velocity":0.3937007874015748},{"duration":0.046875,"midi":84,"time":490.21875,"velocity":0.3937007874015748},{"duration":0.046875,"midi":40,"time":490.265625,"velocity":0.3937007874015748},{"duration":0.046875,"midi":55,"time":490.265625,"velocity":0.3937007874015748},{"duration":0.046875,"midi":83,"time":490.265625,"velocity":0.3937007874015748},{"duration":0.046875,"midi":91,"time":490.265625,"velocity":0.3937007874015748},{"duration":0.046875,"midi":65,"time":490.265625,"velocity":0.3937007874015748},{"duration":0.046875,"midi":64,"time":490.265625,"velocity":0.3937007874015748},{"duration":0.046875,"midi":31,"time":490.265625,"velocity":0.3937007874015748},{"duration":0.046875,"midi":38,"time":490.265625,"velocity":0.3937007874015748},{"duration":0.046875,"midi":81,"time":490.265625,"velocity":0.3937007874015748},{"duration":0.046875,"midi":47,"time":490.265625,"velocity":0.3937007874015748},{"duration":0.046875,"midi":89,"time":490.265625,"velocity":0.3937007874015748},{"duration":0.046875,"midi":48,"time":490.265625,"velocity":0.3937007874015748},{"duration":0.046875,"midi":57,"time":490.265625,"velocity":0.3937007874015748},{"duration":0.046875,"midi":29,"time":490.265625,"velocity":0.3937007874015748},{"duration":0.046875,"midi":83,"time":490.3125,"velocity":0.3937007874015748},{"duration":0.046875,"midi":64,"time":490.3125,"velocity":0.3937007874015748},{"duration":0.046875,"midi":38,"time":490.3125,"velocity":0.3937007874015748},{"duration":0.046875,"midi":81,"time":490.3125,"velocity":0.3937007874015748},{"duration":0.046875,"midi":31,"time":490.3125,"velocity":0.3937007874015748},{"duration":0.046875,"midi":47,"time":490.3125,"velocity":0.3937007874015748},{"duration":0.046875,"midi":48,"time":490.3125,"velocity":0.3937007874015748},{"duration":0.046875,"midi":89,"time":490.3125,"velocity":0.3937007874015748},{"duration":0.046875,"midi":29,"time":490.3125,"velocity":0.3937007874015748},{"duration":0.046875,"midi":91,"time":490.3125,"velocity":0.3937007874015748},{"duration":0.046875,"midi":55,"time":490.3125,"velocity":0.3937007874015748},{"duration":0.046875,"midi":57,"time":490.3125,"velocity":0.3937007874015748},{"duration":0.046875,"midi":40,"time":490.3125,"velocity":0.3937007874015748},{"duration":0.046875,"midi":65,"time":490.3125,"velocity":0.3937007874015748},{"duration":0.046875,"midi":67,"time":490.359375,"velocity":0.3937007874015748},{"duration":0.046875,"midi":40,"time":490.359375,"velocity":0.3937007874015748},{"duration":0.046875,"midi":47,"time":490.359375,"velocity":0.3937007874015748},{"duration":0.046875,"midi":72,"time":490.359375,"velocity":0.3937007874015748},{"duration":0.046875,"midi":83,"time":490.359375,"velocity":0.3937007874015748},{"duration":0.046875,"midi":33,"time":490.359375,"velocity":0.3937007874015748},{"duration":0.046875,"midi":36,"time":490.359375,"velocity":0.3937007874015748},{"duration":0.046875,"midi":48,"time":490.359375,"velocity":0.3937007874015748},{"duration":0.046875,"midi":35,"time":490.359375,"velocity":0.3937007874015748},{"duration":0.046875,"midi":69,"time":490.359375,"velocity":0.3937007874015748},{"duration":0.046875,"midi":74,"time":490.359375,"velocity":0.3937007874015748},{"duration":0.046875,"midi":81,"time":490.359375,"velocity":0.3937007874015748},{"duration":0.046875,"midi":55,"time":490.359375,"velocity":0.3937007874015748},{"duration":0.046875,"midi":71,"time":490.359375,"velocity":0.3937007874015748},{"duration":0.046875,"midi":38,"time":490.359375,"velocity":0.3937007874015748},{"duration":0.046875,"midi":91,"time":490.359375,"velocity":0.3937007874015748},{"duration":0.046875,"midi":57,"time":490.359375,"velocity":0.3937007874015748},{"duration":0.046875,"midi":31,"time":490.359375,"velocity":0.3937007874015748},{"duration":0.046875,"midi":89,"time":490.359375,"velocity":0.3937007874015748},{"duration":0.046875,"midi":65,"time":490.359375,"velocity":0.3937007874015748},{"duration":0.046875,"midi":62,"time":491.0625,"velocity":0.3937007874015748},{"duration":0.046875,"midi":57,"time":491.0625,"velocity":0.3937007874015748},{"duration":0.046875,"midi":59,"time":491.0625,"velocity":0.3937007874015748},{"duration":0.046875,"midi":65,"time":491.0625,"velocity":0.3937007874015748},{"duration":0.046875,"midi":55,"time":491.0625,"velocity":0.3937007874015748},{"duration":0.046875,"midi":64,"time":491.0625,"velocity":0.3937007874015748},{"duration":0.046875,"midi":60,"time":491.0625,"velocity":0.3937007874015748},{"duration":0.046875,"midi":64,"time":491.109375,"velocity":0.3937007874015748},{"duration":0.046875,"midi":65,"time":491.109375,"velocity":0.3937007874015748},{"duration":0.046875,"midi":65,"time":491.15625,"velocity":0.3937007874015748},{"duration":0.046875,"midi":64,"time":491.15625,"velocity":0.3937007874015748},{"duration":0.046875,"midi":59,"time":491.203125,"velocity":0.3937007874015748},{"duration":0.046875,"midi":62,"time":491.203125,"velocity":0.3937007874015748},{"duration":0.046875,"midi":64,"time":491.203125,"velocity":0.3937007874015748},{"duration":0.046875,"midi":57,"time":491.203125,"velocity":0.3937007874015748},{"duration":0.046875,"midi":65,"time":491.203125,"velocity":0.3937007874015748},{"duration":0.046875,"midi":55,"time":491.203125,"velocity":0.3937007874015748},{"duration":0.046875,"midi":60,"time":491.203125,"velocity":0.3937007874015748},{"duration":0.046875,"midi":65,"time":491.25,"velocity":0.3937007874015748},{"duration":0.046875,"midi":64,"time":491.25,"velocity":0.3937007874015748},{"duration":0.046875,"midi":65,"time":491.296875,"velocity":0.3937007874015748},{"duration":0.046875,"midi":64,"time":491.296875,"velocity":0.3937007874015748},{"duration":0.046875,"midi":59,"time":491.34375,"velocity":0.3937007874015748},{"duration":0.046875,"midi":57,"time":491.34375,"velocity":0.3937007874015748},{"duration":0.046875,"midi":55,"time":491.34375,"velocity":0.3937007874015748},{"duration":0.046875,"midi":62,"time":491.34375,"velocity":0.3937007874015748},{"duration":0.046875,"midi":60,"time":491.34375,"velocity":0.3937007874015748},{"duration":0.046875,"midi":65,"time":491.34375,"velocity":0.3937007874015748},{"duration":0.046875,"midi":64,"time":491.34375,"velocity":0.3937007874015748},{"duration":6,"midi":75,"time":502.5,"velocity":0.3937007874015748},{"duration":6,"midi":81,"time":502.5,"velocity":0.3937007874015748},{"duration":6,"midi":41,"time":502.5,"velocity":0.3937007874015748},{"duration":6,"midi":26,"time":502.5,"velocity":0.3937007874015748},{"duration":6,"midi":24,"time":502.5,"velocity":0.3937007874015748},{"duration":6,"midi":36,"time":502.5,"velocity":0.3937007874015748},{"duration":6,"midi":56,"time":502.5,"velocity":0.3937007874015748},{"duration":6,"midi":93,"time":502.5,"velocity":0.3937007874015748},{"duration":6,"midi":82,"time":502.5,"velocity":0.3937007874015748},{"duration":6,"midi":92,"time":502.5,"velocity":0.3937007874015748},{"duration":6,"midi":28,"time":502.5,"velocity":0.3937007874015748},{"duration":6,"midi":27,"time":502.5,"velocity":0.3937007874015748},{"duration":6,"midi":79,"time":502.5,"velocity":0.3937007874015748},{"duration":6,"midi":95,"time":502.5,"velocity":0.3937007874015748},{"duration":6,"midi":40,"time":502.5,"velocity":0.3937007874015748},{"duration":6,"midi":34,"time":502.5,"velocity":0.3937007874015748},{"duration":6,"midi":58,"time":502.5,"velocity":0.3937007874015748},{"duration":6,"midi":38,"time":502.5,"velocity":0.3937007874015748},{"duration":6,"midi":37,"time":502.5,"velocity":0.3937007874015748},{"duration":6,"midi":27,"time":502.5,"velocity":0.3937007874015748},{"duration":6,"midi":94,"time":502.5,"velocity":0.3937007874015748},{"duration":6,"midi":78,"time":502.5,"velocity":0.3937007874015748},{"duration":6,"midi":75,"time":502.5,"velocity":0.3937007874015748},{"duration":6,"midi":93,"time":502.5,"velocity":0.3937007874015748},{"duration":6,"midi":83,"time":502.5,"velocity":0.3937007874015748},{"duration":6,"midi":25,"time":502.5,"velocity":0.3937007874015748},{"duration":6,"midi":26,"time":502.5,"velocity":0.3937007874015748},{"duration":6,"midi":78,"time":502.5,"velocity":0.3937007874015748},{"duration":6,"midi":88,"time":502.5,"velocity":0.3937007874015748},{"duration":6,"midi":24,"time":502.5,"velocity":0.3937007874015748},{"duration":6,"midi":31,"time":502.5,"velocity":0.3937007874015748},{"duration":6,"midi":72,"time":502.5,"velocity":0.3937007874015748},{"duration":6,"midi":49,"time":502.5,"velocity":0.3937007874015748},{"duration":6,"midi":37,"time":502.5,"velocity":0.3937007874015748},{"duration":6,"midi":90,"time":502.5,"velocity":0.3937007874015748},{"duration":6,"midi":94,"time":502.5,"velocity":0.3937007874015748},{"duration":6,"midi":26,"time":502.5,"velocity":0.3937007874015748},{"duration":6,"midi":44,"time":502.5,"velocity":0.3937007874015748},{"duration":6,"midi":84,"time":502.5,"velocity":0.3937007874015748},{"duration":6,"midi":82,"time":502.5,"velocity":0.3937007874015748},{"duration":6,"midi":29,"time":502.5,"velocity":0.3937007874015748},{"duration":6,"midi":38,"time":502.5,"velocity":0.3937007874015748},{"duration":6,"midi":74,"time":502.5,"velocity":0.3937007874015748},{"duration":6,"midi":50,"time":502.5,"velocity":0.3937007874015748},{"duration":6,"midi":78,"time":502.5,"velocity":0.3937007874015748},{"duration":6,"midi":34,"time":502.5,"velocity":0.3937007874015748},{"duration":6,"midi":41,"time":502.5,"velocity":0.3937007874015748},{"duration":6,"midi":83,"time":502.5,"velocity":0.3937007874015748},{"duration":6,"midi":63,"time":502.5,"velocity":0.3937007874015748},{"duration":6,"midi":36,"time":502.5,"velocity":0.3937007874015748},{"duration":6,"midi":28,"time":502.5,"velocity":0.3937007874015748},{"duration":6,"midi":30,"time":502.5,"velocity":0.3937007874015748},{"duration":6,"midi":31,"time":502.5,"velocity":0.3937007874015748},{"duration":6,"midi":76,"time":502.5,"velocity":0.3937007874015748},{"duration":6,"midi":44,"time":502.5,"velocity":0.3937007874015748},{"duration":6,"midi":93,"time":502.5,"velocity":0.3937007874015748},{"duration":6,"midi":46,"time":502.5,"velocity":0.3937007874015748},{"duration":6,"midi":33,"time":502.5,"velocity":0.3937007874015748},{"duration":6,"midi":27,"time":502.5,"velocity":0.3937007874015748},{"duration":6,"midi":51,"time":502.5,"velocity":0.3937007874015748},{"duration":6,"midi":60,"time":502.5,"velocity":0.3937007874015748},{"duration":6,"midi":32,"time":502.5,"velocity":0.3937007874015748},{"duration":6,"midi":80,"time":502.5,"velocity":0.3937007874015748},{"duration":6,"midi":51,"time":502.5,"velocity":0.3937007874015748},{"duration":6,"midi":32,"time":502.5,"velocity":0.3937007874015748},{"duration":6,"midi":39,"time":502.5,"velocity":0.3937007874015748},{"duration":6,"midi":34,"time":502.5,"velocity":0.3937007874015748},{"duration":6,"midi":76,"time":502.5,"velocity":0.3937007874015748},{"duration":6,"midi":35,"time":502.5,"velocity":0.3937007874015748},{"duration":6,"midi":73,"time":502.5,"velocity":0.3937007874015748},{"duration":6,"midi":46,"time":502.5,"velocity":0.3937007874015748},{"duration":6,"midi":60,"time":502.5,"velocity":0.3937007874015748},{"duration":6,"midi":59,"time":502.5,"velocity":0.3937007874015748},{"duration":6,"midi":37,"time":502.5,"velocity":0.3937007874015748},{"duration":6,"midi":95,"time":502.5,"velocity":0.3937007874015748},{"duration":6,"midi":39,"time":502.5,"velocity":0.3937007874015748},{"duration":6,"midi":46,"time":502.5,"velocity":0.3937007874015748},{"duration":6,"midi":36,"time":502.5,"velocity":0.3937007874015748},{"duration":6,"midi":42,"time":502.5,"velocity":0.3937007874015748},{"duration":6,"midi":67,"time":502.5,"velocity":0.3937007874015748},{"duration":6,"midi":31,"time":502.5,"velocity":0.3937007874015748},{"duration":6,"midi":35,"time":502.5,"velocity":0.3937007874015748},{"duration":6,"midi":39,"time":502.5,"velocity":0.3937007874015748},{"duration":6,"midi":63,"time":502.5,"velocity":0.3937007874015748},{"duration":6,"midi":38,"time":502.5,"velocity":0.3937007874015748},{"duration":6,"midi":69,"time":502.5,"velocity":0.3937007874015748},{"duration":6,"midi":46,"time":502.5,"velocity":0.3937007874015748},{"duration":6,"midi":35,"time":502.5,"velocity":0.3937007874015748},{"duration":6,"midi":32,"time":502.5,"velocity":0.3937007874015748},{"duration":6,"midi":42,"time":502.5,"velocity":0.3937007874015748},{"duration":6,"midi":72,"time":502.5,"velocity":0.3937007874015748},{"duration":6,"midi":40,"time":502.5,"velocity":0.3937007874015748},{"duration":6,"midi":45,"time":502.5,"velocity":0.3937007874015748},{"duration":6,"midi":41,"time":502.5,"velocity":0.3937007874015748},{"duration":6,"midi":67,"time":502.5,"velocity":0.3937007874015748},{"duration":6,"midi":74,"time":502.5,"velocity":0.3937007874015748},{"duration":6,"midi":40,"time":502.5,"velocity":0.3937007874015748},{"duration":6,"midi":33,"time":502.5,"velocity":0.3937007874015748},{"duration":6,"midi":40,"time":502.5,"velocity":0.3937007874015748},{"duration":6,"midi":45,"time":502.5,"velocity":0.3937007874015748},{"duration":6,"midi":43,"time":502.5,"velocity":0.3937007874015748},{"duration":6,"midi":66,"time":502.5,"velocity":0.3937007874015748},{"duration":6,"midi":42,"time":502.5,"velocity":0.3937007874015748},{"duration":6,"midi":42,"time":502.5,"velocity":0.3937007874015748},{"duration":6,"midi":37,"time":502.5,"velocity":0.3937007874015748},{"duration":6,"midi":45,"time":502.5,"velocity":0.3937007874015748},{"duration":6,"midi":94,"time":502.5,"velocity":0.3937007874015748},{"duration":6,"midi":29,"time":502.5,"velocity":0.3937007874015748},{"duration":6,"midi":44,"time":502.5,"velocity":0.3937007874015748},{"duration":6,"midi":44,"time":502.5,"velocity":0.3937007874015748},{"duration":6,"midi":43,"time":502.5,"velocity":0.3937007874015748},{"duration":6,"midi":89,"time":502.5,"velocity":0.3937007874015748},{"duration":6,"midi":39,"time":502.5,"velocity":0.3937007874015748},{"duration":6,"midi":32,"time":502.5,"velocity":0.3937007874015748},{"duration":6,"midi":46,"time":502.5,"velocity":0.3937007874015748},{"duration":6,"midi":38,"time":502.5,"velocity":0.3937007874015748},{"duration":6,"midi":47,"time":502.5,"velocity":0.3937007874015748},{"duration":6,"midi":74,"time":502.5,"velocity":0.3937007874015748},{"duration":6,"midi":40,"time":502.5,"velocity":0.3937007874015748},{"duration":6,"midi":38,"time":502.5,"velocity":0.3937007874015748},{"duration":6,"midi":42,"time":502.5,"velocity":0.3937007874015748},{"duration":6,"midi":49,"time":502.5,"velocity":0.3937007874015748},{"duration":6,"midi":91,"time":502.5,"velocity":0.3937007874015748},{"duration":6,"midi":57,"time":502.5,"velocity":0.3937007874015748},{"duration":6,"midi":46,"time":502.5,"velocity":0.3937007874015748},{"duration":6,"midi":48,"time":502.5,"velocity":0.3937007874015748},{"duration":6,"midi":88,"time":502.5,"velocity":0.3937007874015748},{"duration":6,"midi":83,"time":502.5,"velocity":0.3937007874015748},{"duration":6,"midi":40,"time":502.5,"velocity":0.3937007874015748},{"duration":6,"midi":34,"time":502.5,"velocity":0.3937007874015748},{"duration":6,"midi":51,"time":502.5,"velocity":0.3937007874015748},{"duration":6,"midi":37,"time":502.5,"velocity":0.3937007874015748},{"duration":6,"midi":50,"time":502.5,"velocity":0.3937007874015748},{"duration":6,"midi":73,"time":502.5,"velocity":0.3937007874015748},{"duration":6,"midi":77,"time":502.5,"velocity":0.3937007874015748},{"duration":6,"midi":69,"time":502.5,"velocity":0.3937007874015748},{"duration":6,"midi":45,"time":502.5,"velocity":0.3937007874015748},{"duration":6,"midi":54,"time":502.5,"velocity":0.3937007874015748},{"duration":6,"midi":78,"time":502.5,"velocity":0.3937007874015748},{"duration":6,"midi":86,"time":502.5,"velocity":0.3937007874015748},{"duration":6,"midi":43,"time":502.5,"velocity":0.3937007874015748},{"duration":6,"midi":53,"time":502.5,"velocity":0.3937007874015748},{"duration":6,"midi":36,"time":502.5,"velocity":0.3937007874015748},{"duration":6,"midi":30,"time":502.5,"velocity":0.3937007874015748},{"duration":6,"midi":46,"time":502.5,"velocity":0.3937007874015748},{"duration":6,"midi":31,"time":502.5,"velocity":0.3937007874015748},{"duration":6,"midi":52,"time":502.5,"velocity":0.3937007874015748},{"duration":6,"midi":36,"time":502.5,"velocity":0.3937007874015748},{"duration":6,"midi":55,"time":502.5,"velocity":0.3937007874015748},{"duration":6,"midi":76,"time":502.5,"velocity":0.3937007874015748},{"duration":6,"midi":70,"time":502.5,"velocity":0.3937007874015748},{"duration":6,"midi":64,"time":502.5,"velocity":0.3937007874015748},{"duration":6,"midi":93,"time":502.5,"velocity":0.3937007874015748},{"duration":6,"midi":57,"time":502.5,"velocity":0.3937007874015748},{"duration":6,"midi":54,"time":502.5,"velocity":0.3937007874015748},{"duration":6,"midi":32,"time":502.5,"velocity":0.3937007874015748},{"duration":6,"midi":42,"time":502.5,"velocity":0.3937007874015748},{"duration":6,"midi":56,"time":502.5,"velocity":0.3937007874015748},{"duration":6,"midi":83,"time":502.5,"velocity":0.3937007874015748},{"duration":6,"midi":29,"time":502.5,"velocity":0.3937007874015748},{"duration":6,"midi":73,"time":502.5,"velocity":0.3937007874015748},{"duration":6,"midi":30,"time":502.5,"velocity":0.3937007874015748},{"duration":6,"midi":58,"time":502.5,"velocity":0.3937007874015748},{"duration":6,"midi":40,"time":502.5,"velocity":0.3937007874015748},{"duration":6,"midi":59,"time":502.5,"velocity":0.3937007874015748},{"duration":6,"midi":56,"time":502.5,"velocity":0.3937007874015748},{"duration":6,"midi":66,"time":502.5,"velocity":0.3937007874015748},{"duration":6,"midi":86,"time":502.5,"velocity":0.3937007874015748},{"duration":6,"midi":34,"time":502.5,"velocity":0.3937007874015748},{"duration":6,"midi":61,"time":502.5,"velocity":0.3937007874015748},{"duration":6,"midi":67,"time":502.5,"velocity":0.3937007874015748},{"duration":6,"midi":95,"time":502.5,"velocity":0.3937007874015748},{"duration":6,"midi":41,"time":502.5,"velocity":0.3937007874015748},{"duration":6,"midi":60,"time":502.5,"velocity":0.3937007874015748},{"duration":6,"midi":39,"time":502.5,"velocity":0.3937007874015748},{"duration":6,"midi":47,"time":502.5,"velocity":0.3937007874015748},{"duration":6,"midi":77,"time":502.5,"velocity":0.3937007874015748},{"duration":6,"midi":29,"time":502.5,"velocity":0.3937007874015748},{"duration":6,"midi":63,"time":502.5,"velocity":0.3937007874015748},{"duration":6,"midi":43,"time":502.5,"velocity":0.3937007874015748},{"duration":6,"midi":62,"time":502.5,"velocity":0.3937007874015748},{"duration":6,"midi":53,"time":502.5,"velocity":0.3937007874015748},{"duration":6,"midi":64,"time":502.5,"velocity":0.3937007874015748},{"duration":6,"midi":58,"time":502.5,"velocity":0.3937007874015748},{"duration":6,"midi":50,"time":502.5,"velocity":0.3937007874015748},{"duration":6,"midi":66,"time":502.5,"velocity":0.3937007874015748},{"duration":6,"midi":82,"time":502.5,"velocity":0.3937007874015748},{"duration":6,"midi":64,"time":502.5,"velocity":0.3937007874015748},{"duration":6,"midi":44,"time":502.5,"velocity":0.3937007874015748},{"duration":6,"midi":65,"time":502.5,"velocity":0.3937007874015748},{"duration":6,"midi":33,"time":502.5,"velocity":0.3937007874015748},{"duration":6,"midi":24,"time":502.5,"velocity":0.3937007874015748},{"duration":6,"midi":40,"time":502.5,"velocity":0.3937007874015748},{"duration":6,"midi":28,"time":502.5,"velocity":0.3937007874015748},{"duration":6,"midi":64,"time":502.5,"velocity":0.3937007874015748},{"duration":6,"midi":39,"time":502.5,"velocity":0.3937007874015748},{"duration":6,"midi":67,"time":502.5,"velocity":0.3937007874015748},{"duration":6,"midi":48,"time":502.5,"velocity":0.3937007874015748},{"duration":6,"midi":79,"time":502.5,"velocity":0.3937007874015748},{"duration":6,"midi":88,"time":502.5,"velocity":0.3937007874015748},{"duration":6,"midi":55,"time":502.5,"velocity":0.3937007874015748},{"duration":6,"midi":69,"time":502.5,"velocity":0.3937007874015748},{"duration":6,"midi":81,"time":502.5,"velocity":0.3937007874015748},{"duration":6,"midi":34,"time":502.5,"velocity":0.3937007874015748},{"duration":6,"midi":30,"time":502.5,"velocity":0.3937007874015748},{"duration":6,"midi":68,"time":502.5,"velocity":0.3937007874015748},{"duration":6,"midi":35,"time":502.5,"velocity":0.3937007874015748},{"duration":6,"midi":67,"time":502.5,"velocity":0.3937007874015748},{"duration":6,"midi":38,"time":502.5,"velocity":0.3937007874015748},{"duration":6,"midi":26,"time":502.5,"velocity":0.3937007874015748},{"duration":6,"midi":70,"time":502.5,"velocity":0.3937007874015748},{"duration":6,"midi":33,"time":502.5,"velocity":0.3937007874015748},{"duration":6,"midi":71,"time":502.5,"velocity":0.3937007874015748},{"duration":6,"midi":33,"time":502.5,"velocity":0.3937007874015748},{"duration":6,"midi":61,"time":502.5,"velocity":0.3937007874015748},{"duration":6,"midi":26,"time":502.5,"velocity":0.3937007874015748},{"duration":6,"midi":29,"time":502.5,"velocity":0.3937007874015748},{"duration":6,"midi":95,"time":502.5,"velocity":0.3937007874015748},{"duration":6,"midi":24,"time":502.5,"velocity":0.3937007874015748},{"duration":6,"midi":91,"time":502.5,"velocity":0.3937007874015748},{"duration":6,"midi":92,"time":502.5,"velocity":0.3937007874015748},{"duration":6,"midi":72,"time":502.5,"velocity":0.3937007874015748},{"duration":6,"midi":89,"time":502.5,"velocity":0.3937007874015748},{"duration":6,"midi":54,"time":502.5,"velocity":0.3937007874015748},{"duration":6,"midi":37,"time":502.5,"velocity":0.3937007874015748},{"duration":6,"midi":25,"time":502.5,"velocity":0.3937007874015748},{"duration":6,"midi":75,"time":502.5,"velocity":0.3937007874015748},{"duration":6,"midi":29,"time":502.5,"velocity":0.3937007874015748},{"duration":6,"midi":31,"time":502.5,"velocity":0.3937007874015748},{"duration":6,"midi":37,"time":502.5,"velocity":0.3937007874015748},{"duration":6,"midi":88,"time":502.5,"velocity":0.3937007874015748},{"duration":6,"midi":36,"time":502.5,"velocity":0.3937007874015748},{"duration":6,"midi":90,"time":502.5,"velocity":0.3937007874015748},{"duration":6,"midi":26,"time":502.5,"velocity":0.3937007874015748},{"duration":6,"midi":94,"time":502.5,"velocity":0.3937007874015748},{"duration":6,"midi":73,"time":502.5,"velocity":0.3937007874015748},{"duration":6,"midi":93,"time":502.5,"velocity":0.3937007874015748},{"duration":6,"midi":65,"time":502.5,"velocity":0.3937007874015748},{"duration":6,"midi":27,"time":502.5,"velocity":0.3937007874015748},{"duration":6,"midi":92,"time":502.5,"velocity":0.3937007874015748},{"duration":6,"midi":25,"time":502.5,"velocity":0.3937007874015748},{"duration":6,"midi":74,"time":502.5,"velocity":0.3937007874015748},{"duration":6,"midi":28,"time":502.5,"velocity":0.3937007874015748},{"duration":6,"midi":74,"time":502.5,"velocity":0.3937007874015748},{"duration":6,"midi":30,"time":502.5,"velocity":0.3937007874015748},{"duration":6,"midi":33,"time":502.5,"velocity":0.3937007874015748},{"duration":6,"midi":25,"time":502.5,"velocity":0.3937007874015748},{"duration":6,"midi":39,"time":502.5,"velocity":0.3937007874015748},{"duration":6,"midi":33,"time":502.5,"velocity":0.3937007874015748},{"duration":6,"midi":51,"time":502.5,"velocity":0.3937007874015748},{"duration":6,"midi":42,"time":502.5,"velocity":0.3937007874015748},{"duration":6,"midi":76,"time":502.5,"velocity":0.3937007874015748},{"duration":6,"midi":47,"time":502.5,"velocity":0.3937007874015748},{"duration":6,"midi":24,"time":502.5,"velocity":0.3937007874015748},{"duration":6,"midi":52,"time":502.5,"velocity":0.3937007874015748},{"duration":6,"midi":51,"time":502.5,"velocity":0.3937007874015748},{"duration":6,"midi":56,"time":502.5,"velocity":0.3937007874015748},{"duration":6,"midi":36,"time":502.5,"velocity":0.3937007874015748},{"duration":6,"midi":61,"time":502.5,"velocity":0.3937007874015748},{"duration":6,"midi":77,"time":502.5,"velocity":0.3937007874015748},{"duration":6,"midi":67,"time":502.5,"velocity":0.3937007874015748},{"duration":6,"midi":81,"time":502.5,"velocity":0.3937007874015748},{"duration":6,"midi":78,"time":502.5,"velocity":0.3937007874015748},{"duration":6,"midi":62,"time":502.5,"velocity":0.3937007874015748},{"duration":6,"midi":77,"time":502.5,"velocity":0.3937007874015748},{"duration":6,"midi":87,"time":502.5,"velocity":0.3937007874015748},{"duration":6,"midi":89,"time":502.5,"velocity":0.3937007874015748},{"duration":6,"midi":78,"time":502.5,"velocity":0.3937007874015748},{"duration":6,"midi":77,"time":502.5,"velocity":0.3937007874015748},{"duration":6,"midi":62,"time":502.5,"velocity":0.3937007874015748},{"duration":6,"midi":90,"time":502.5,"velocity":0.3937007874015748},{"duration":6,"midi":44,"time":502.5,"velocity":0.3937007874015748},{"duration":6,"midi":95,"time":502.5,"velocity":0.3937007874015748},{"duration":6,"midi":54,"time":502.5,"velocity":0.3937007874015748},{"duration":6,"midi":28,"time":502.5,"velocity":0.3937007874015748},{"duration":6,"midi":79,"time":502.5,"velocity":0.3937007874015748},{"duration":6,"midi":32,"time":502.5,"velocity":0.3937007874015748},{"duration":6,"midi":26,"time":502.5,"velocity":0.3937007874015748},{"duration":6,"midi":35,"time":502.5,"velocity":0.3937007874015748},{"duration":6,"midi":50,"time":502.5,"velocity":0.3937007874015748},{"duration":6,"midi":53,"time":502.5,"velocity":0.3937007874015748},{"duration":6,"midi":59,"time":502.5,"velocity":0.3937007874015748},{"duration":6,"midi":93,"time":502.5,"velocity":0.3937007874015748},{"duration":6,"midi":82,"time":502.5,"velocity":0.3937007874015748},{"duration":6,"midi":33,"time":502.5,"velocity":0.3937007874015748},{"duration":6,"midi":27,"time":502.5,"velocity":0.3937007874015748},{"duration":6,"midi":41,"time":502.5,"velocity":0.3937007874015748},{"duration":6,"midi":47,"time":502.5,"velocity":0.3937007874015748},{"duration":6,"midi":55,"time":502.5,"velocity":0.3937007874015748},{"duration":6,"midi":39,"time":502.5,"velocity":0.3937007874015748},{"duration":6,"midi":60,"time":502.5,"velocity":0.3937007874015748},{"duration":6,"midi":80,"time":502.5,"velocity":0.3937007874015748},{"duration":6,"midi":70,"time":502.5,"velocity":0.3937007874015748},{"duration":6,"midi":60,"time":502.5,"velocity":0.3937007874015748},{"duration":6,"midi":32,"time":502.5,"velocity":0.3937007874015748},{"duration":6,"midi":65,"time":502.5,"velocity":0.3937007874015748},{"duration":6,"midi":93,"time":502.5,"velocity":0.3937007874015748},{"duration":6,"midi":24,"time":502.5,"velocity":0.3937007874015748},{"duration":6,"midi":92,"time":502.5,"velocity":0.3937007874015748},{"duration":6,"midi":81,"time":502.5,"velocity":0.3937007874015748},{"duration":6,"midi":32,"time":502.5,"velocity":0.3937007874015748},{"duration":6,"midi":87,"time":502.5,"velocity":0.3937007874015748},{"duration":6,"midi":48,"time":502.5,"velocity":0.3937007874015748},{"duration":6,"midi":58,"time":502.5,"velocity":0.3937007874015748},{"duration":6,"midi":94,"time":502.5,"velocity":0.3937007874015748},{"duration":6,"midi":60,"time":502.5,"velocity":0.3937007874015748},{"duration":6,"midi":59,"time":502.5,"velocity":0.3937007874015748},{"duration":6,"midi":83,"time":502.5,"velocity":0.3937007874015748},{"duration":6,"midi":75,"time":502.5,"velocity":0.3937007874015748},{"duration":6,"midi":60,"time":502.5,"velocity":0.3937007874015748},{"duration":6,"midi":79,"time":502.5,"velocity":0.3937007874015748},{"duration":6,"midi":72,"time":502.5,"velocity":0.3937007874015748},{"duration":6,"midi":91,"time":502.5,"velocity":0.3937007874015748},{"duration":6,"midi":27,"time":502.5,"velocity":0.3937007874015748},{"duration":6,"midi":94,"time":502.5,"velocity":0.3937007874015748},{"duration":6,"midi":87,"time":502.5,"velocity":0.3937007874015748},{"duration":6,"midi":34,"time":502.5,"velocity":0.3937007874015748},{"duration":6,"midi":95,"time":502.5,"velocity":0.3937007874015748},{"duration":6,"midi":89,"time":502.5,"velocity":0.3937007874015748},{"duration":6,"midi":73,"time":502.5,"velocity":0.3937007874015748},{"duration":6,"midi":56,"time":502.5,"velocity":0.3937007874015748},{"duration":6,"midi":35,"time":502.5,"velocity":0.3937007874015748},{"duration":6,"midi":88,"time":502.5,"velocity":0.3937007874015748},{"duration":6,"midi":84,"time":502.5,"velocity":0.3937007874015748},{"duration":6,"midi":76,"time":502.5,"velocity":0.3937007874015748},{"duration":6,"midi":51,"time":502.5,"velocity":0.3937007874015748},{"duration":6,"midi":59,"time":502.5,"velocity":0.3937007874015748},{"duration":6,"midi":81,"time":502.5,"velocity":0.3937007874015748},{"duration":6,"midi":57,"time":502.5,"velocity":0.3937007874015748},{"duration":6,"midi":52,"time":502.5,"velocity":0.3937007874015748},{"duration":6,"midi":91,"time":502.5,"velocity":0.3937007874015748},{"duration":6,"midi":85,"time":502.5,"velocity":0.3937007874015748},{"duration":6,"midi":31,"time":502.5,"velocity":0.3937007874015748},{"duration":6,"midi":85,"time":502.5,"velocity":0.3937007874015748},{"duration":6,"midi":49,"time":502.5,"velocity":0.3937007874015748},{"duration":6,"midi":90,"time":502.5,"velocity":0.3937007874015748},{"duration":6,"midi":90,"time":502.5,"velocity":0.3937007874015748},{"duration":6,"midi":64,"time":502.5,"velocity":0.3937007874015748},{"duration":6,"midi":90,"time":502.5,"velocity":0.3937007874015748},{"duration":6,"midi":86,"time":502.5,"velocity":0.3937007874015748},{"duration":6,"midi":42,"time":502.5,"velocity":0.3937007874015748},{"duration":6,"midi":65,"time":502.5,"velocity":0.3937007874015748},{"duration":6,"midi":70,"time":502.5,"velocity":0.3937007874015748},{"duration":6,"midi":86,"time":502.5,"velocity":0.3937007874015748},{"duration":6,"midi":91,"time":502.5,"velocity":0.3937007874015748},{"duration":6,"midi":79,"time":502.5,"velocity":0.3937007874015748},{"duration":6,"midi":83,"time":502.5,"velocity":0.3937007874015748},{"duration":6,"midi":71,"time":502.5,"velocity":0.3937007874015748},{"duration":6,"midi":74,"time":502.5,"velocity":0.3937007874015748},{"duration":6,"midi":32,"time":502.5,"velocity":0.3937007874015748},{"duration":6,"midi":67,"time":502.5,"velocity":0.3937007874015748},{"duration":6,"midi":91,"time":502.5,"velocity":0.3937007874015748},{"duration":6,"midi":30,"time":502.5,"velocity":0.3937007874015748},{"duration":6,"midi":90,"time":502.5,"velocity":0.3937007874015748},{"duration":6,"midi":34,"time":502.5,"velocity":0.3937007874015748},{"duration":6,"midi":77,"time":502.5,"velocity":0.3937007874015748},{"duration":6,"midi":95,"time":502.5,"velocity":0.3937007874015748},{"duration":6,"midi":59,"time":502.5,"velocity":0.3937007874015748},{"duration":6,"midi":65,"time":502.5,"velocity":0.3937007874015748},{"duration":6,"midi":52,"time":502.5,"velocity":0.3937007874015748},{"duration":6,"midi":68,"time":502.5,"velocity":0.3937007874015748},{"duration":6,"midi":86,"time":502.5,"velocity":0.3937007874015748},{"duration":6,"midi":72,"time":502.5,"velocity":0.3937007874015748},{"duration":6,"midi":33,"time":502.5,"velocity":0.3937007874015748},{"duration":6,"midi":77,"time":502.5,"velocity":0.3937007874015748},{"duration":6,"midi":56,"time":502.5,"velocity":0.3937007874015748},{"duration":6,"midi":80,"time":502.5,"velocity":0.3937007874015748},{"duration":6,"midi":58,"time":502.5,"velocity":0.3937007874015748},{"duration":6,"midi":84,"time":502.5,"velocity":0.3937007874015748},{"duration":6,"midi":79,"time":502.5,"velocity":0.3937007874015748},{"duration":6,"midi":92,"time":502.5,"velocity":0.3937007874015748},{"duration":6,"midi":35,"time":502.5,"velocity":0.3937007874015748},{"duration":6,"midi":92,"time":502.5,"velocity":0.3937007874015748},{"duration":6,"midi":34,"time":502.5,"velocity":0.3937007874015748},{"duration":6,"midi":64,"time":502.5,"velocity":0.3937007874015748},{"duration":6,"midi":57,"time":502.5,"velocity":0.3937007874015748},{"duration":6,"midi":66,"time":502.5,"velocity":0.3937007874015748},{"duration":6,"midi":63,"time":502.5,"velocity":0.3937007874015748},{"duration":6,"midi":70,"time":502.5,"velocity":0.3937007874015748},{"duration":6,"midi":39,"time":502.5,"velocity":0.3937007874015748},{"duration":6,"midi":69,"time":502.5,"velocity":0.3937007874015748},{"duration":6,"midi":89,"time":502.5,"velocity":0.3937007874015748},{"duration":6,"midi":75,"time":502.5,"velocity":0.3937007874015748},{"duration":6,"midi":61,"time":502.5,"velocity":0.3937007874015748},{"duration":6,"midi":73,"time":502.5,"velocity":0.3937007874015748},{"duration":6,"midi":29,"time":502.5,"velocity":0.3937007874015748},{"duration":6,"midi":76,"time":502.5,"velocity":0.3937007874015748},{"duration":6,"midi":36,"time":502.5,"velocity":0.3937007874015748},{"duration":6,"midi":78,"time":502.5,"velocity":0.3937007874015748},{"duration":6,"midi":50,"time":502.5,"velocity":0.3937007874015748},{"duration":6,"midi":82,"time":502.5,"velocity":0.3937007874015748},{"duration":6,"midi":66,"time":502.5,"velocity":0.3937007874015748},{"duration":6,"midi":81,"time":502.5,"velocity":0.3937007874015748},{"duration":6,"midi":61,"time":502.5,"velocity":0.3937007874015748},{"duration":6,"midi":87,"time":502.5,"velocity":0.3937007874015748},{"duration":6,"midi":37,"time":502.5,"velocity":0.3937007874015748},{"duration":6,"midi":85,"time":502.5,"velocity":0.3937007874015748},{"duration":6,"midi":57,"time":502.5,"velocity":0.3937007874015748},{"duration":6,"midi":84,"time":502.5,"velocity":0.3937007874015748},{"duration":6,"midi":69,"time":502.5,"velocity":0.3937007874015748},{"duration":6,"midi":55,"time":502.5,"velocity":0.3937007874015748},{"duration":6,"midi":81,"time":502.5,"velocity":0.3937007874015748},{"duration":6,"midi":94,"time":502.5,"velocity":0.3937007874015748},{"duration":6,"midi":38,"time":502.5,"velocity":0.3937007874015748},{"duration":6,"midi":93,"time":502.5,"velocity":0.3937007874015748},{"duration":6,"midi":24,"time":502.5,"velocity":0.3937007874015748},{"duration":6,"midi":46,"time":502.5,"velocity":0.3937007874015748},{"duration":6,"midi":93,"time":502.5,"velocity":0.3937007874015748},{"duration":6,"midi":49,"time":502.5,"velocity":0.3937007874015748},{"duration":6,"midi":62,"time":502.5,"velocity":0.3937007874015748},{"duration":6,"midi":60,"time":502.5,"velocity":0.3937007874015748},{"duration":6,"midi":40,"time":502.5,"velocity":0.3937007874015748},{"duration":6,"midi":67,"time":502.5,"velocity":0.3937007874015748},{"duration":6,"midi":88,"time":502.5,"velocity":0.3937007874015748},{"duration":6,"midi":43,"time":502.5,"velocity":0.3937007874015748},{"duration":6,"midi":45,"time":502.5,"velocity":0.3937007874015748},{"duration":6,"midi":51,"time":502.5,"velocity":0.3937007874015748},{"duration":6,"midi":28,"time":502.5,"velocity":0.3937007874015748},{"duration":6,"midi":53,"time":502.5,"velocity":0.3937007874015748},{"duration":6,"midi":41,"time":502.5,"velocity":0.3937007874015748},{"duration":6,"midi":83,"time":502.5,"velocity":0.3937007874015748},{"duration":6,"midi":44,"time":502.5,"velocity":0.3937007874015748},{"duration":6,"midi":82,"time":502.5,"velocity":0.3937007874015748},{"duration":6,"midi":81,"time":502.5,"velocity":0.3937007874015748},{"duration":6,"midi":44,"time":502.5,"velocity":0.3937007874015748},{"duration":6,"midi":84,"time":502.5,"velocity":0.3937007874015748},{"duration":6,"midi":68,"time":502.5,"velocity":0.3937007874015748},{"duration":6,"midi":42,"time":502.5,"velocity":0.3937007874015748},{"duration":6,"midi":61,"time":502.5,"velocity":0.3937007874015748},{"duration":6,"midi":94,"time":502.5,"velocity":0.3937007874015748},{"duration":6,"midi":74,"time":502.5,"velocity":0.3937007874015748},{"duration":6,"midi":85,"time":502.5,"velocity":0.3937007874015748},{"duration":6,"midi":52,"time":502.5,"velocity":0.3937007874015748},{"duration":6,"midi":85,"time":502.5,"velocity":0.3937007874015748},{"duration":6,"midi":78,"time":502.5,"velocity":0.3937007874015748},{"duration":6,"midi":43,"time":502.5,"velocity":0.3937007874015748},{"duration":6,"midi":43,"time":502.5,"velocity":0.3937007874015748},{"duration":6,"midi":92,"time":502.5,"velocity":0.3937007874015748},{"duration":6,"midi":35,"time":502.5,"velocity":0.3937007874015748},{"duration":6,"midi":43,"time":502.5,"velocity":0.3937007874015748},{"duration":6,"midi":76,"time":502.5,"velocity":0.3937007874015748},{"duration":6,"midi":87,"time":502.5,"velocity":0.3937007874015748},{"duration":6,"midi":82,"time":502.5,"velocity":0.3937007874015748},{"duration":6,"midi":46,"time":502.5,"velocity":0.3937007874015748},{"duration":6,"midi":87,"time":502.5,"velocity":0.3937007874015748},{"duration":6,"midi":86,"time":502.5,"velocity":0.3937007874015748},{"duration":6,"midi":88,"time":502.5,"velocity":0.3937007874015748},{"duration":6,"midi":51,"time":502.5,"velocity":0.3937007874015748},{"duration":6,"midi":94,"time":502.5,"velocity":0.3937007874015748},{"duration":6,"midi":26,"time":502.5,"velocity":0.3937007874015748},{"duration":6,"midi":27,"time":502.5,"velocity":0.3937007874015748},{"duration":6,"midi":44,"time":502.5,"velocity":0.3937007874015748},{"duration":6,"midi":28,"time":502.5,"velocity":0.3937007874015748},{"duration":6,"midi":52,"time":502.5,"velocity":0.3937007874015748},{"duration":6,"midi":34,"time":502.5,"velocity":0.3937007874015748},{"duration":6,"midi":25,"time":502.5,"velocity":0.3937007874015748},{"duration":6,"midi":39,"time":502.5,"velocity":0.3937007874015748},{"duration":6,"midi":75,"time":502.5,"velocity":0.3937007874015748},{"duration":6,"midi":40,"time":502.5,"velocity":0.3937007874015748},{"duration":6,"midi":45,"time":502.5,"velocity":0.3937007874015748},{"duration":6,"midi":75,"time":502.5,"velocity":0.3937007874015748},{"duration":6,"midi":93,"time":502.5,"velocity":0.3937007874015748},{"duration":6,"midi":44,"time":502.5,"velocity":0.3937007874015748},{"duration":6,"midi":59,"time":502.5,"velocity":0.3937007874015748},{"duration":6,"midi":88,"time":502.5,"velocity":0.3937007874015748},{"duration":6,"midi":42,"time":502.5,"velocity":0.3937007874015748},{"duration":6,"midi":49,"time":502.5,"velocity":0.3937007874015748},{"duration":6,"midi":47,"time":502.5,"velocity":0.3937007874015748},{"duration":6,"midi":91,"time":502.5,"velocity":0.3937007874015748},{"duration":6,"midi":27,"time":502.5,"velocity":0.3937007874015748},{"duration":6,"midi":29,"time":502.5,"velocity":0.3937007874015748},{"duration":6,"midi":64,"time":502.5,"velocity":0.3937007874015748},{"duration":6,"midi":77,"time":502.5,"velocity":0.3937007874015748},{"duration":6,"midi":72,"time":502.5,"velocity":0.3937007874015748},{"duration":6,"midi":81,"time":502.5,"velocity":0.3937007874015748},{"duration":6,"midi":51,"time":502.5,"velocity":0.3937007874015748},{"duration":6,"midi":76,"time":502.5,"velocity":0.3937007874015748},{"duration":6,"midi":85,"time":502.5,"velocity":0.3937007874015748},{"duration":6,"midi":48,"time":502.5,"velocity":0.3937007874015748},{"duration":6,"midi":37,"time":502.5,"velocity":0.3937007874015748},{"duration":6,"midi":44,"time":502.5,"velocity":0.3937007874015748},{"duration":6,"midi":65,"time":502.5,"velocity":0.3937007874015748},{"duration":6,"midi":50,"time":502.5,"velocity":0.3937007874015748},{"duration":6,"midi":48,"time":502.5,"velocity":0.3937007874015748},{"duration":6,"midi":95,"time":502.5,"velocity":0.3937007874015748},{"duration":6,"midi":45,"time":502.5,"velocity":0.3937007874015748},{"duration":6,"midi":30,"time":502.5,"velocity":0.3937007874015748},{"duration":6,"midi":42,"time":502.5,"velocity":0.3937007874015748},{"duration":6,"midi":71,"time":502.5,"velocity":0.3937007874015748},{"duration":6,"midi":90,"time":502.5,"velocity":0.3937007874015748},{"duration":6,"midi":80,"time":502.5,"velocity":0.3937007874015748},{"duration":6,"midi":49,"time":502.5,"velocity":0.3937007874015748},{"duration":6,"midi":75,"time":502.5,"velocity":0.3937007874015748},{"duration":6,"midi":55,"time":502.5,"velocity":0.3937007874015748},{"duration":6,"midi":55,"time":502.5,"velocity":0.3937007874015748},{"duration":6,"midi":28,"time":502.5,"velocity":0.3937007874015748},{"duration":6,"midi":75,"time":502.5,"velocity":0.3937007874015748},{"duration":6,"midi":69,"time":502.5,"velocity":0.3937007874015748},{"duration":6,"midi":63,"time":502.5,"velocity":0.3937007874015748},{"duration":6,"midi":50,"time":502.5,"velocity":0.3937007874015748},{"duration":6,"midi":93,"time":502.5,"velocity":0.3937007874015748},{"duration":6,"midi":31,"time":502.5,"velocity":0.3937007874015748},{"duration":6,"midi":95,"time":502.5,"velocity":0.3937007874015748},{"duration":6,"midi":94,"time":502.5,"velocity":0.3937007874015748},{"duration":6,"midi":73,"time":502.5,"velocity":0.3937007874015748},{"duration":6,"midi":88,"time":502.5,"velocity":0.3937007874015748},{"duration":6,"midi":82,"time":502.5,"velocity":0.3937007874015748},{"duration":6,"midi":52,"time":502.5,"velocity":0.3937007874015748},{"duration":6,"midi":70,"time":502.5,"velocity":0.3937007874015748},{"duration":6,"midi":84,"time":502.5,"velocity":0.3937007874015748},{"duration":6,"midi":49,"time":502.5,"velocity":0.3937007874015748},{"duration":6,"midi":87,"time":502.5,"velocity":0.3937007874015748},{"duration":6,"midi":73,"time":502.5,"velocity":0.3937007874015748},{"duration":6,"midi":34,"time":502.5,"velocity":0.3937007874015748},{"duration":6,"midi":28,"time":502.5,"velocity":0.3937007874015748},{"duration":6,"midi":53,"time":502.5,"velocity":0.3937007874015748},{"duration":6,"midi":92,"time":502.5,"velocity":0.3937007874015748},{"duration":6,"midi":53,"time":502.5,"velocity":0.3937007874015748},{"duration":6,"midi":58,"time":502.5,"velocity":0.3937007874015748},{"duration":6,"midi":76,"time":502.5,"velocity":0.3937007874015748},{"duration":6,"midi":75,"time":502.5,"velocity":0.3937007874015748},{"duration":6,"midi":85,"time":502.5,"velocity":0.3937007874015748},{"duration":6,"midi":79,"time":502.5,"velocity":0.3937007874015748},{"duration":6,"midi":54,"time":502.5,"velocity":0.3937007874015748},{"duration":6,"midi":64,"time":502.5,"velocity":0.3937007874015748},{"duration":6,"midi":53,"time":502.5,"velocity":0.3937007874015748},{"duration":6,"midi":58,"time":502.5,"velocity":0.3937007874015748},{"duration":6,"midi":69,"time":502.5,"velocity":0.3937007874015748},{"duration":6,"midi":71,"time":502.5,"velocity":0.3937007874015748},{"duration":6,"midi":25,"time":502.5,"velocity":0.3937007874015748},{"duration":6,"midi":60,"time":502.5,"velocity":0.3937007874015748},{"duration":6,"midi":55,"time":502.5,"velocity":0.3937007874015748},{"duration":6,"midi":94,"time":502.5,"velocity":0.3937007874015748},{"duration":6,"midi":82,"time":502.5,"velocity":0.3937007874015748},{"duration":6,"midi":39,"time":502.5,"velocity":0.3937007874015748},{"duration":6,"midi":57,"time":502.5,"velocity":0.3937007874015748},{"duration":6,"midi":76,"time":502.5,"velocity":0.3937007874015748},{"duration":6,"midi":79,"time":502.5,"velocity":0.3937007874015748},{"duration":6,"midi":78,"time":502.5,"velocity":0.3937007874015748},{"duration":6,"midi":58,"time":502.5,"velocity":0.3937007874015748},{"duration":6,"midi":63,"time":502.5,"velocity":0.3937007874015748},{"duration":6,"midi":87,"time":502.5,"velocity":0.3937007874015748},{"duration":6,"midi":95,"time":502.5,"velocity":0.3937007874015748},{"duration":6,"midi":49,"time":502.5,"velocity":0.3937007874015748},{"duration":6,"midi":77,"time":502.5,"velocity":0.3937007874015748},{"duration":6,"midi":87,"time":502.5,"velocity":0.3937007874015748},{"duration":6,"midi":49,"time":502.5,"velocity":0.3937007874015748},{"duration":6,"midi":56,"time":502.5,"velocity":0.3937007874015748},{"duration":6,"midi":91,"time":502.5,"velocity":0.3937007874015748},{"duration":6,"midi":92,"time":502.5,"velocity":0.3937007874015748},{"duration":6,"midi":29,"time":502.5,"velocity":0.3937007874015748},{"duration":6,"midi":41,"time":502.5,"velocity":0.3937007874015748},{"duration":6,"midi":58,"time":502.5,"velocity":0.3937007874015748},{"duration":6,"midi":70,"time":502.5,"velocity":0.3937007874015748},{"duration":6,"midi":77,"time":502.5,"velocity":0.3937007874015748},{"duration":6,"midi":57,"time":502.5,"velocity":0.3937007874015748},{"duration":6,"midi":81,"time":502.5,"velocity":0.3937007874015748},{"duration":6,"midi":27,"time":502.5,"velocity":0.3937007874015748},{"duration":6,"midi":56,"time":502.5,"velocity":0.3937007874015748},{"duration":6,"midi":32,"time":502.5,"velocity":0.3937007874015748},{"duration":6,"midi":68,"time":502.5,"velocity":0.3937007874015748},{"duration":6,"midi":24,"time":502.5,"velocity":0.3937007874015748},{"duration":6,"midi":51,"time":502.5,"velocity":0.3937007874015748},{"duration":6,"midi":59,"time":502.5,"velocity":0.3937007874015748},{"duration":6,"midi":86,"time":502.5,"velocity":0.3937007874015748},{"duration":6,"midi":57,"time":502.5,"velocity":0.3937007874015748},{"duration":6,"midi":80,"time":502.5,"velocity":0.3937007874015748},{"duration":6,"midi":24,"time":502.5,"velocity":0.3937007874015748},{"duration":6,"midi":52,"time":502.5,"velocity":0.3937007874015748},{"duration":6,"midi":69,"time":502.5,"velocity":0.3937007874015748},{"duration":6,"midi":76,"time":502.5,"velocity":0.3937007874015748},{"duration":6,"midi":63,"time":502.5,"velocity":0.3937007874015748},{"duration":6,"midi":43,"time":502.5,"velocity":0.3937007874015748},{"duration":6,"midi":83,"time":502.5,"velocity":0.3937007874015748},{"duration":6,"midi":53,"time":502.5,"velocity":0.3937007874015748},{"duration":6,"midi":25,"time":502.5,"velocity":0.3937007874015748},{"duration":6,"midi":49,"time":502.5,"velocity":0.3937007874015748},{"duration":6,"midi":82,"time":502.5,"velocity":0.3937007874015748},{"duration":6,"midi":45,"time":502.5,"velocity":0.3937007874015748},{"duration":6,"midi":60,"time":502.5,"velocity":0.3937007874015748},{"duration":6,"midi":71,"time":502.5,"velocity":0.3937007874015748},{"duration":6,"midi":54,"time":502.5,"velocity":0.3937007874015748},{"duration":6,"midi":54,"time":502.5,"velocity":0.3937007874015748},{"duration":6,"midi":34,"time":502.5,"velocity":0.3937007874015748},{"duration":6,"midi":54,"time":502.5,"velocity":0.3937007874015748},{"duration":6,"midi":47,"time":502.5,"velocity":0.3937007874015748},{"duration":6,"midi":74,"time":502.5,"velocity":0.3937007874015748},{"duration":6,"midi":61,"time":502.5,"velocity":0.3937007874015748},{"duration":6,"midi":89,"time":502.5,"velocity":0.3937007874015748},{"duration":6,"midi":25,"time":502.5,"velocity":0.3937007874015748},{"duration":6,"midi":57,"time":502.5,"velocity":0.3937007874015748},{"duration":6,"midi":37,"time":502.5,"velocity":0.3937007874015748},{"duration":6,"midi":52,"time":502.5,"velocity":0.3937007874015748},{"duration":6,"midi":27,"time":502.5,"velocity":0.3937007874015748},{"duration":6,"midi":38,"time":502.5,"velocity":0.3937007874015748},{"duration":6,"midi":62,"time":502.5,"velocity":0.3937007874015748},{"duration":6,"midi":86,"time":502.5,"velocity":0.3937007874015748},{"duration":6,"midi":58,"time":502.5,"velocity":0.3937007874015748},{"duration":6,"midi":63,"time":502.5,"velocity":0.3937007874015748},{"duration":6,"midi":37,"time":502.5,"velocity":0.3937007874015748},{"duration":6,"midi":68,"time":502.5,"velocity":0.3937007874015748},{"duration":6,"midi":38,"time":502.5,"velocity":0.3937007874015748},{"duration":6,"midi":53,"time":502.5,"velocity":0.3937007874015748},{"duration":6,"midi":87,"time":502.5,"velocity":0.3937007874015748},{"duration":6,"midi":45,"time":502.5,"velocity":0.3937007874015748},{"duration":6,"midi":24,"time":502.5,"velocity":0.3937007874015748},{"duration":6,"midi":61,"time":502.5,"velocity":0.3937007874015748},{"duration":6,"midi":68,"time":502.5,"velocity":0.3937007874015748},{"duration":6,"midi":84,"time":502.5,"velocity":0.3937007874015748},{"duration":6,"midi":73,"time":502.5,"velocity":0.3937007874015748},{"duration":6,"midi":27,"time":502.5,"velocity":0.3937007874015748},{"duration":6,"midi":49,"time":502.5,"velocity":0.3937007874015748},{"duration":6,"midi":77,"time":502.5,"velocity":0.3937007874015748},{"duration":6,"midi":50,"time":502.5,"velocity":0.3937007874015748},{"duration":6,"midi":84,"time":502.5,"velocity":0.3937007874015748},{"duration":6,"midi":63,"time":502.5,"velocity":0.3937007874015748},{"duration":6,"midi":78,"time":502.5,"velocity":0.3937007874015748},{"duration":6,"midi":47,"time":502.5,"velocity":0.3937007874015748},{"duration":6,"midi":87,"time":502.5,"velocity":0.3937007874015748},{"duration":6,"midi":25,"time":502.5,"velocity":0.3937007874015748},{"duration":6,"midi":32,"time":502.5,"velocity":0.3937007874015748},{"duration":6,"midi":36,"time":502.5,"velocity":0.3937007874015748},{"duration":6,"midi":48,"time":502.5,"velocity":0.3937007874015748},{"duration":6,"midi":95,"time":502.5,"velocity":0.3937007874015748},{"duration":6,"midi":56,"time":502.5,"velocity":0.3937007874015748},{"duration":6,"midi":83,"time":502.5,"velocity":0.3937007874015748},{"duration":6,"midi":65,"time":502.5,"velocity":0.3937007874015748},{"duration":6,"midi":26,"time":502.5,"velocity":0.3937007874015748},{"duration":6,"midi":72,"time":502.5,"velocity":0.3937007874015748},{"duration":6,"midi":28,"time":502.5,"velocity":0.3937007874015748},{"duration":6,"midi":80,"time":502.5,"velocity":0.3937007874015748},{"duration":6,"midi":65,"time":502.5,"velocity":0.3937007874015748},{"duration":6,"midi":88,"time":502.5,"velocity":0.3937007874015748},{"duration":6,"midi":62,"time":502.5,"velocity":0.3937007874015748},{"duration":6,"midi":69,"time":502.5,"velocity":0.3937007874015748},{"duration":6,"midi":28,"time":502.5,"velocity":0.3937007874015748},{"duration":6,"midi":79,"time":502.5,"velocity":0.3937007874015748},{"duration":6,"midi":72,"time":502.5,"velocity":0.3937007874015748},{"duration":6,"midi":47,"time":502.5,"velocity":0.3937007874015748},{"duration":6,"midi":25,"time":502.5,"velocity":0.3937007874015748},{"duration":6,"midi":93,"time":502.5,"velocity":0.3937007874015748},{"duration":6,"midi":80,"time":502.5,"velocity":0.3937007874015748},{"duration":6,"midi":84,"time":502.5,"velocity":0.3937007874015748},{"duration":6,"midi":29,"time":502.5,"velocity":0.3937007874015748},{"duration":6,"midi":41,"time":502.5,"velocity":0.3937007874015748},{"duration":6,"midi":59,"time":502.5,"velocity":0.3937007874015748},{"duration":6,"midi":47,"time":502.5,"velocity":0.3937007874015748},{"duration":6,"midi":69,"time":502.5,"velocity":0.3937007874015748},{"duration":6,"midi":50,"time":502.5,"velocity":0.3937007874015748},{"duration":6,"midi":91,"time":502.5,"velocity":0.3937007874015748},{"duration":6,"midi":55,"time":502.5,"velocity":0.3937007874015748},{"duration":6,"midi":30,"time":502.5,"velocity":0.3937007874015748},{"duration":6,"midi":59,"time":502.5,"velocity":0.3937007874015748},{"duration":6,"midi":35,"time":502.5,"velocity":0.3937007874015748},{"duration":6,"midi":62,"time":502.5,"velocity":0.3937007874015748},{"duration":6,"midi":26,"time":502.5,"velocity":0.3937007874015748},{"duration":6,"midi":67,"time":502.5,"velocity":0.3937007874015748},{"duration":6,"midi":79,"time":502.5,"velocity":0.3937007874015748},{"duration":6,"midi":71,"time":502.5,"velocity":0.3937007874015748},{"duration":6,"midi":31,"time":502.5,"velocity":0.3937007874015748},{"duration":6,"midi":74,"time":502.5,"velocity":0.3937007874015748},{"duration":6,"midi":92,"time":502.5,"velocity":0.3937007874015748},{"duration":6,"midi":79,"time":502.5,"velocity":0.3937007874015748},{"duration":6,"midi":74,"time":502.5,"velocity":0.3937007874015748},{"duration":6,"midi":83,"time":502.5,"velocity":0.3937007874015748},{"duration":6,"midi":40,"time":502.5,"velocity":0.3937007874015748},{"duration":6,"midi":86,"time":502.5,"velocity":0.3937007874015748},{"duration":6,"midi":34,"time":502.5,"velocity":0.3937007874015748},{"duration":6,"midi":57,"time":502.5,"velocity":0.3937007874015748},{"duration":6,"midi":75,"time":502.5,"velocity":0.3937007874015748},{"duration":6,"midi":66,"time":502.5,"velocity":0.3937007874015748},{"duration":6,"midi":30,"time":502.5,"velocity":0.3937007874015748},{"duration":6,"midi":73,"time":502.5,"velocity":0.3937007874015748},{"duration":6,"midi":77,"time":502.5,"velocity":0.3937007874015748},{"duration":6,"midi":81,"time":502.5,"velocity":0.3937007874015748},{"duration":6,"midi":32,"time":502.5,"velocity":0.3937007874015748},{"duration":6,"midi":66,"time":502.5,"velocity":0.3937007874015748},{"duration":6,"midi":48,"time":502.5,"velocity":0.3937007874015748},{"duration":6,"midi":48,"time":502.5,"velocity":0.3937007874015748},{"duration":6,"midi":82,"time":502.5,"velocity":0.3937007874015748},{"duration":6,"midi":95,"time":502.5,"velocity":0.3937007874015748},{"duration":6,"midi":30,"time":502.5,"velocity":0.3937007874015748},{"duration":6,"midi":51,"time":502.5,"velocity":0.3937007874015748},{"duration":6,"midi":33,"time":502.5,"velocity":0.3937007874015748},{"duration":6,"midi":86,"time":502.5,"velocity":0.3937007874015748},{"duration":6,"midi":61,"time":502.5,"velocity":0.3937007874015748},{"duration":6,"midi":37,"time":502.5,"velocity":0.3937007874015748},{"duration":6,"midi":90,"time":502.5,"velocity":0.3937007874015748},{"duration":6,"midi":46,"time":502.5,"velocity":0.3937007874015748},{"duration":6,"midi":74,"time":502.5,"velocity":0.3937007874015748},{"duration":6,"midi":94,"time":502.5,"velocity":0.3937007874015748},{"duration":6,"midi":35,"time":502.5,"velocity":0.3937007874015748},{"duration":6,"midi":39,"time":502.5,"velocity":0.3937007874015748},{"duration":6,"midi":94,"time":502.5,"velocity":0.3937007874015748},{"duration":6,"midi":39,"time":502.5,"velocity":0.3937007874015748},{"duration":6,"midi":83,"time":502.5,"velocity":0.3937007874015748},{"duration":6,"midi":51,"time":502.5,"velocity":0.3937007874015748},{"duration":6,"midi":90,"time":502.5,"velocity":0.3937007874015748},{"duration":6,"midi":49,"time":502.5,"velocity":0.3937007874015748},{"duration":6,"midi":39,"time":502.5,"velocity":0.3937007874015748},{"duration":6,"midi":52,"time":502.5,"velocity":0.3937007874015748},{"duration":6,"midi":71,"time":502.5,"velocity":0.3937007874015748},{"duration":6,"midi":54,"time":502.5,"velocity":0.3937007874015748},{"duration":6,"midi":33,"time":502.5,"velocity":0.3937007874015748},{"duration":6,"midi":58,"time":502.5,"velocity":0.3937007874015748},{"duration":6,"midi":72,"time":502.5,"velocity":0.3937007874015748},{"duration":6,"midi":57,"time":502.5,"velocity":0.3937007874015748},{"duration":6,"midi":36,"time":502.5,"velocity":0.3937007874015748},{"duration":6,"midi":85,"time":502.5,"velocity":0.3937007874015748},{"duration":6,"midi":63,"time":502.5,"velocity":0.3937007874015748},{"duration":6,"midi":61,"time":502.5,"velocity":0.3937007874015748},{"duration":6,"midi":88,"time":502.5,"velocity":0.3937007874015748},{"duration":6,"midi":64,"time":502.5,"velocity":0.3937007874015748},{"duration":6,"midi":91,"time":502.5,"velocity":0.3937007874015748},{"duration":6,"midi":66,"time":502.5,"velocity":0.3937007874015748},{"duration":6,"midi":37,"time":502.5,"velocity":0.3937007874015748},{"duration":6,"midi":70,"time":502.5,"velocity":0.3937007874015748},{"duration":6,"midi":33,"time":502.5,"velocity":0.3937007874015748},{"duration":6,"midi":69,"time":502.5,"velocity":0.3937007874015748},{"duration":6,"midi":36,"time":502.5,"velocity":0.3937007874015748},{"duration":6,"midi":75,"time":502.5,"velocity":0.3937007874015748},{"duration":6,"midi":71,"time":502.5,"velocity":0.3937007874015748},{"duration":6,"midi":73,"time":502.5,"velocity":0.3937007874015748},{"duration":6,"midi":38,"time":502.5,"velocity":0.3937007874015748},{"duration":6,"midi":76,"time":502.5,"velocity":0.3937007874015748},{"duration":6,"midi":64,"time":502.5,"velocity":0.3937007874015748},{"duration":6,"midi":78,"time":502.5,"velocity":0.3937007874015748},{"duration":6,"midi":92,"time":502.5,"velocity":0.3937007874015748},{"duration":6,"midi":82,"time":502.5,"velocity":0.3937007874015748},{"duration":6,"midi":27,"time":502.5,"velocity":0.3937007874015748},{"duration":6,"midi":81,"time":502.5,"velocity":0.3937007874015748},{"duration":6,"midi":40,"time":502.5,"velocity":0.3937007874015748},{"duration":6,"midi":87,"time":502.5,"velocity":0.3937007874015748},{"duration":6,"midi":69,"time":502.5,"velocity":0.3937007874015748},{"duration":6,"midi":85,"time":502.5,"velocity":0.3937007874015748},{"duration":6,"midi":62,"time":502.5,"velocity":0.3937007874015748},{"duration":6,"midi":70,"time":502.5,"velocity":0.3937007874015748},{"duration":6,"midi":68,"time":502.5,"velocity":0.3937007874015748},{"duration":6,"midi":64,"time":502.5,"velocity":0.3937007874015748},{"duration":6,"midi":41,"time":502.5,"velocity":0.3937007874015748},{"duration":6,"midi":63,"time":502.5,"velocity":0.3937007874015748},{"duration":6,"midi":56,"time":502.5,"velocity":0.3937007874015748},{"duration":6,"midi":58,"time":502.5,"velocity":0.3937007874015748},{"duration":6,"midi":25,"time":502.5,"velocity":0.3937007874015748},{"duration":6,"midi":52,"time":502.5,"velocity":0.3937007874015748},{"duration":6,"midi":68,"time":502.5,"velocity":0.3937007874015748},{"duration":6,"midi":47,"time":502.5,"velocity":0.3937007874015748},{"duration":6,"midi":42,"time":502.5,"velocity":0.3937007874015748},{"duration":6,"midi":43,"time":502.5,"velocity":0.3937007874015748},{"duration":6,"midi":34,"time":502.5,"velocity":0.3937007874015748},{"duration":6,"midi":38,"time":502.5,"velocity":0.3937007874015748},{"duration":6,"midi":41,"time":502.5,"velocity":0.3937007874015748},{"duration":6,"midi":35,"time":502.5,"velocity":0.3937007874015748},{"duration":6,"midi":67,"time":502.5,"velocity":0.3937007874015748},{"duration":6,"midi":31,"time":502.5,"velocity":0.3937007874015748},{"duration":6,"midi":43,"time":502.5,"velocity":0.3937007874015748},{"duration":6,"midi":26,"time":502.5,"velocity":0.3937007874015748},{"duration":6,"midi":26,"time":502.5,"velocity":0.3937007874015748},{"duration":6,"midi":95,"time":502.5,"velocity":0.3937007874015748},{"duration":6,"midi":31,"time":502.5,"velocity":0.3937007874015748},{"duration":6,"midi":91,"time":502.5,"velocity":0.3937007874015748},{"duration":6,"midi":85,"time":502.5,"velocity":0.3937007874015748},{"duration":6,"midi":28,"time":502.5,"velocity":0.3937007874015748},{"duration":6,"midi":46,"time":502.5,"velocity":0.3937007874015748},{"duration":6,"midi":89,"time":502.5,"velocity":0.3937007874015748},{"duration":6,"midi":68,"time":502.5,"velocity":0.3937007874015748},{"duration":6,"midi":33,"time":502.5,"velocity":0.3937007874015748},{"duration":6,"midi":46,"time":502.5,"velocity":0.3937007874015748},{"duration":6,"midi":86,"time":502.5,"velocity":0.3937007874015748},{"duration":6,"midi":38,"time":502.5,"velocity":0.3937007874015748},{"duration":6,"midi":40,"time":502.5,"velocity":0.3937007874015748},{"duration":6,"midi":44,"time":502.5,"velocity":0.3937007874015748},{"duration":6,"midi":84,"time":502.5,"velocity":0.3937007874015748},{"duration":6,"midi":60,"time":502.5,"velocity":0.3937007874015748},{"duration":6,"midi":45,"time":502.5,"velocity":0.3937007874015748},{"duration":6,"midi":39,"time":502.5,"velocity":0.3937007874015748},{"duration":6,"midi":83,"time":502.5,"velocity":0.3937007874015748},{"duration":6,"midi":24,"time":502.5,"velocity":0.3937007874015748},{"duration":6,"midi":86,"time":502.5,"velocity":0.3937007874015748},{"duration":6,"midi":45,"time":502.5,"velocity":0.3937007874015748},{"duration":6,"midi":84,"time":502.5,"velocity":0.3937007874015748},{"duration":6,"midi":30,"time":502.5,"velocity":0.3937007874015748},{"duration":6,"midi":82,"time":502.5,"velocity":0.3937007874015748},{"duration":6,"midi":44,"time":502.5,"velocity":0.3937007874015748},{"duration":6,"midi":65,"time":502.5,"velocity":0.3937007874015748},{"duration":6,"midi":62,"time":502.5,"velocity":0.3937007874015748},{"duration":6,"midi":78,"time":502.5,"velocity":0.3937007874015748},{"duration":6,"midi":47,"time":502.5,"velocity":0.3937007874015748},{"duration":6,"midi":41,"time":502.5,"velocity":0.3937007874015748},{"duration":6,"midi":81,"time":502.5,"velocity":0.3937007874015748},{"duration":6,"midi":43,"time":502.5,"velocity":0.3937007874015748},{"duration":6,"midi":48,"time":502.5,"velocity":0.3937007874015748},{"duration":6,"midi":45,"time":502.5,"velocity":0.3937007874015748},{"duration":6,"midi":43,"time":502.5,"velocity":0.3937007874015748},{"duration":6,"midi":45,"time":502.5,"velocity":0.3937007874015748},{"duration":6,"midi":51,"time":502.5,"velocity":0.3937007874015748},{"duration":6,"midi":50,"time":502.5,"velocity":0.3937007874015748},{"duration":6,"midi":70,"time":502.5,"velocity":0.3937007874015748},{"duration":6,"midi":48,"time":502.5,"velocity":0.3937007874015748},{"duration":6,"midi":29,"time":502.5,"velocity":0.3937007874015748},{"duration":6,"midi":53,"time":502.5,"velocity":0.3937007874015748},{"duration":6,"midi":60,"time":502.5,"velocity":0.3937007874015748},{"duration":6,"midi":84,"time":502.5,"velocity":0.3937007874015748},{"duration":6,"midi":48,"time":502.5,"velocity":0.3937007874015748},{"duration":6,"midi":80,"time":502.5,"velocity":0.3937007874015748},{"duration":6,"midi":57,"time":502.5,"velocity":0.3937007874015748},{"duration":6,"midi":78,"time":502.5,"velocity":0.3937007874015748},{"duration":6,"midi":59,"time":502.5,"velocity":0.3937007874015748},{"duration":6,"midi":45,"time":502.5,"velocity":0.3937007874015748},{"duration":6,"midi":79,"time":502.5,"velocity":0.3937007874015748},{"duration":6,"midi":74,"time":502.5,"velocity":0.3937007874015748},{"duration":6,"midi":49,"time":502.5,"velocity":0.3937007874015748},{"duration":6,"midi":71,"time":502.5,"velocity":0.3937007874015748},{"duration":6,"midi":42,"time":502.5,"velocity":0.3937007874015748},{"duration":6,"midi":67,"time":502.5,"velocity":0.3937007874015748},{"duration":6,"midi":24,"time":502.5,"velocity":0.3937007874015748},{"duration":6,"midi":62,"time":502.5,"velocity":0.3937007874015748},{"duration":6,"midi":59,"time":502.5,"velocity":0.3937007874015748},{"duration":6,"midi":63,"time":502.5,"velocity":0.3937007874015748},{"duration":6,"midi":50,"time":502.5,"velocity":0.3937007874015748},{"duration":6,"midi":73,"time":502.5,"velocity":0.3937007874015748},{"duration":6,"midi":53,"time":502.5,"velocity":0.3937007874015748},{"duration":6,"midi":76,"time":502.5,"velocity":0.3937007874015748},{"duration":6,"midi":54,"time":502.5,"velocity":0.3937007874015748},{"duration":6,"midi":54,"time":502.5,"velocity":0.3937007874015748},{"duration":6,"midi":58,"time":502.5,"velocity":0.3937007874015748},{"duration":6,"midi":49,"time":502.5,"velocity":0.3937007874015748},{"duration":6,"midi":52,"time":502.5,"velocity":0.3937007874015748},{"duration":6,"midi":46,"time":502.5,"velocity":0.3937007874015748},{"duration":6,"midi":67,"time":502.5,"velocity":0.3937007874015748},{"duration":6,"midi":47,"time":502.5,"velocity":0.3937007874015748},{"duration":6,"midi":92,"time":502.5,"velocity":0.3937007874015748},{"duration":6,"midi":44,"time":502.5,"velocity":0.3937007874015748},{"duration":6,"midi":56,"time":502.5,"velocity":0.3937007874015748},{"duration":6,"midi":41,"time":502.5,"velocity":0.3937007874015748},{"duration":6,"midi":53,"time":502.5,"velocity":0.3937007874015748},{"duration":6,"midi":36,"time":502.5,"velocity":0.3937007874015748},{"duration":6,"midi":61,"time":502.5,"velocity":0.3937007874015748},{"duration":6,"midi":41,"time":502.5,"velocity":0.3937007874015748},{"duration":6,"midi":56,"time":502.5,"velocity":0.3937007874015748},{"duration":6,"midi":74,"time":502.5,"velocity":0.3937007874015748},{"duration":6,"midi":95,"time":502.5,"velocity":0.3937007874015748},{"duration":6,"midi":77,"time":502.5,"velocity":0.3937007874015748},{"duration":6,"midi":54,"time":502.5,"velocity":0.3937007874015748},{"duration":6,"midi":79,"time":502.5,"velocity":0.3937007874015748},{"duration":6,"midi":29,"time":502.5,"velocity":0.3937007874015748},{"duration":6,"midi":80,"time":502.5,"velocity":0.3937007874015748},{"duration":6,"midi":89,"time":502.5,"velocity":0.3937007874015748},{"duration":6,"midi":83,"time":502.5,"velocity":0.3937007874015748},{"duration":6,"midi":55,"time":502.5,"velocity":0.3937007874015748},{"duration":6,"midi":84,"time":502.5,"velocity":0.3937007874015748},{"duration":6,"midi":55,"time":502.5,"velocity":0.3937007874015748},{"duration":6,"midi":86,"time":502.5,"velocity":0.3937007874015748},{"duration":6,"midi":77,"time":502.5,"velocity":0.3937007874015748},{"duration":6,"midi":89,"time":502.5,"velocity":0.3937007874015748},{"duration":6,"midi":63,"time":502.5,"velocity":0.3937007874015748},{"duration":6,"midi":91,"time":502.5,"velocity":0.3937007874015748},{"duration":6,"midi":57,"time":502.5,"velocity":0.3937007874015748},{"duration":6,"midi":92,"time":502.5,"velocity":0.3937007874015748},{"duration":6,"midi":58,"time":502.5,"velocity":0.3937007874015748},{"duration":6,"midi":95,"time":502.5,"velocity":0.3937007874015748},{"duration":6,"midi":66,"time":502.5,"velocity":0.3937007874015748},{"duration":6,"midi":24,"time":502.5,"velocity":0.3937007874015748},{"duration":6,"midi":84,"time":502.5,"velocity":0.3937007874015748},{"duration":6,"midi":26,"time":502.5,"velocity":0.3937007874015748},{"duration":6,"midi":87,"time":502.5,"velocity":0.3937007874015748},{"duration":6,"midi":29,"time":502.5,"velocity":0.3937007874015748},{"duration":6,"midi":56,"time":502.5,"velocity":0.3937007874015748},{"duration":6,"midi":31,"time":502.5,"velocity":0.3937007874015748},{"duration":6,"midi":47,"time":502.5,"velocity":0.3937007874015748},{"duration":6,"midi":32,"time":502.5,"velocity":0.3937007874015748},{"duration":6,"midi":64,"time":502.5,"velocity":0.3937007874015748},{"duration":6,"midi":35,"time":502.5,"velocity":0.3937007874015748},{"duration":6,"midi":80,"time":502.5,"velocity":0.3937007874015748},{"duration":6,"midi":80,"time":502.5,"velocity":0.3937007874015748},{"duration":6,"midi":57,"time":502.5,"velocity":0.3937007874015748},{"duration":6,"midi":55,"time":502.5,"velocity":0.3937007874015748},{"duration":6,"midi":26,"time":502.5,"velocity":0.3937007874015748},{"duration":6,"midi":56,"time":502.5,"velocity":0.3937007874015748},{"duration":6,"midi":80,"time":502.5,"velocity":0.3937007874015748},{"duration":6,"midi":29,"time":502.5,"velocity":0.3937007874015748},{"duration":6,"midi":59,"time":502.5,"velocity":0.3937007874015748},{"duration":6,"midi":67,"time":502.5,"velocity":0.3937007874015748},{"duration":6,"midi":80,"time":502.5,"velocity":0.3937007874015748},{"duration":6,"midi":60,"time":502.5,"velocity":0.3937007874015748},{"duration":6,"midi":25,"time":502.5,"velocity":0.3937007874015748},{"duration":6,"midi":86,"time":502.5,"velocity":0.3937007874015748},{"duration":6,"midi":70,"time":502.5,"velocity":0.3937007874015748},{"duration":6,"midi":26,"time":502.5,"velocity":0.3937007874015748},{"duration":6,"midi":55,"time":502.5,"velocity":0.3937007874015748},{"duration":6,"midi":89,"time":502.5,"velocity":0.3937007874015748},{"duration":6,"midi":82,"time":502.5,"velocity":0.3937007874015748},{"duration":6,"midi":61,"time":502.5,"velocity":0.3937007874015748},{"duration":6,"midi":65,"time":502.5,"velocity":0.3937007874015748},{"duration":6,"midi":58,"time":502.5,"velocity":0.3937007874015748},{"duration":6,"midi":90,"time":502.5,"velocity":0.3937007874015748},{"duration":6,"midi":90,"time":502.5,"velocity":0.3937007874015748},{"duration":6,"midi":37,"time":502.5,"velocity":0.3937007874015748},{"duration":6,"midi":66,"time":502.5,"velocity":0.3937007874015748},{"duration":6,"midi":32,"time":502.5,"velocity":0.3937007874015748},{"duration":6,"midi":62,"time":502.5,"velocity":0.3937007874015748},{"duration":6,"midi":62,"time":502.5,"velocity":0.3937007874015748},{"duration":6,"midi":35,"time":502.5,"velocity":0.3937007874015748},{"duration":6,"midi":92,"time":502.5,"velocity":0.3937007874015748},{"duration":6,"midi":94,"time":502.5,"velocity":0.3937007874015748},{"duration":6,"midi":53,"time":502.5,"velocity":0.3937007874015748},{"duration":6,"midi":89,"time":502.5,"velocity":0.3937007874015748},{"duration":6,"midi":61,"time":502.5,"velocity":0.3937007874015748},{"duration":6,"midi":64,"time":502.5,"velocity":0.3937007874015748},{"duration":6,"midi":24,"time":502.5,"velocity":0.3937007874015748},{"duration":6,"midi":55,"time":502.5,"velocity":0.3937007874015748},{"duration":6,"midi":72,"time":502.5,"velocity":0.3937007874015748},{"duration":6,"midi":93,"time":502.5,"velocity":0.3937007874015748},{"duration":6,"midi":85,"time":502.5,"velocity":0.3937007874015748},{"duration":6,"midi":70,"time":502.5,"velocity":0.3937007874015748},{"duration":6,"midi":62,"time":502.5,"velocity":0.3937007874015748},{"duration":6,"midi":65,"time":502.5,"velocity":0.3937007874015748},{"duration":6,"midi":91,"time":502.5,"velocity":0.3937007874015748},{"duration":6,"midi":85,"time":502.5,"velocity":0.3937007874015748},{"duration":6,"midi":25,"time":502.5,"velocity":0.3937007874015748},{"duration":6,"midi":27,"time":502.5,"velocity":0.3937007874015748},{"duration":6,"midi":50,"time":502.5,"velocity":0.3937007874015748},{"duration":6,"midi":66,"time":502.5,"velocity":0.3937007874015748},{"duration":6,"midi":64,"time":502.5,"velocity":0.3937007874015748},{"duration":6,"midi":48,"time":502.5,"velocity":0.3937007874015748},{"duration":6,"midi":64,"time":502.5,"velocity":0.3937007874015748},{"duration":6,"midi":54,"time":502.5,"velocity":0.3937007874015748},{"duration":6,"midi":29,"time":502.5,"velocity":0.3937007874015748},{"duration":6,"midi":25,"time":502.5,"velocity":0.3937007874015748},{"duration":6,"midi":54,"time":502.5,"velocity":0.3937007874015748},{"duration":6,"midi":35,"time":502.5,"velocity":0.3937007874015748},{"duration":6,"midi":65,"time":502.5,"velocity":0.3937007874015748},{"duration":6,"midi":66,"time":502.5,"velocity":0.3937007874015748},{"duration":6,"midi":60,"time":502.5,"velocity":0.3937007874015748},{"duration":6,"midi":87,"time":502.5,"velocity":0.3937007874015748},{"duration":6,"midi":82,"time":502.5,"velocity":0.3937007874015748},{"duration":6,"midi":28,"time":502.5,"velocity":0.3937007874015748},{"duration":6,"midi":68,"time":502.5,"velocity":0.3937007874015748},{"duration":6,"midi":31,"time":502.5,"velocity":0.3937007874015748},{"duration":6,"midi":66,"time":502.5,"velocity":0.3937007874015748},{"duration":6,"midi":67,"time":502.5,"velocity":0.3937007874015748},{"duration":6,"midi":30,"time":502.5,"velocity":0.3937007874015748},{"duration":6,"midi":53,"time":502.5,"velocity":0.3937007874015748},{"duration":6,"midi":89,"time":502.5,"velocity":0.3937007874015748},{"duration":6,"midi":30,"time":502.5,"velocity":0.3937007874015748},{"duration":6,"midi":52,"time":502.5,"velocity":0.3937007874015748},{"duration":6,"midi":68,"time":502.5,"velocity":0.3937007874015748},{"duration":6,"midi":67,"time":502.5,"velocity":0.3937007874015748},{"duration":6,"midi":70,"time":502.5,"velocity":0.3937007874015748},{"duration":6,"midi":38,"time":502.5,"velocity":0.3937007874015748},{"duration":6,"midi":81,"time":502.5,"velocity":0.3937007874015748},{"duration":6,"midi":80,"time":502.5,"velocity":0.3937007874015748},{"duration":6,"midi":34,"time":502.5,"velocity":0.3937007874015748},{"duration":6,"midi":48,"time":502.5,"velocity":0.3937007874015748},{"duration":6,"midi":92,"time":502.5,"velocity":0.3937007874015748},{"duration":6,"midi":70,"time":502.5,"velocity":0.3937007874015748},{"duration":6,"midi":68,"time":502.5,"velocity":0.3937007874015748},{"duration":6,"midi":50,"time":502.5,"velocity":0.3937007874015748},{"duration":6,"midi":52,"time":502.5,"velocity":0.3937007874015748},{"duration":6,"midi":38,"time":502.5,"velocity":0.3937007874015748},{"duration":6,"midi":33,"time":502.5,"velocity":0.3937007874015748},{"duration":6,"midi":51,"time":502.5,"velocity":0.3937007874015748},{"duration":6,"midi":68,"time":502.5,"velocity":0.3937007874015748},{"duration":6,"midi":68,"time":502.5,"velocity":0.3937007874015748},{"duration":6,"midi":94,"time":502.5,"velocity":0.3937007874015748},{"duration":6,"midi":62,"time":502.5,"velocity":0.3937007874015748},{"duration":6,"midi":65,"time":502.5,"velocity":0.3937007874015748},{"duration":6,"midi":88,"time":502.5,"velocity":0.3937007874015748},{"duration":6,"midi":39,"time":502.5,"velocity":0.3937007874015748},{"duration":6,"midi":47,"time":502.5,"velocity":0.3937007874015748},{"duration":6,"midi":84,"time":502.5,"velocity":0.3937007874015748},{"duration":6,"midi":69,"time":502.5,"velocity":0.3937007874015748},{"duration":6,"midi":92,"time":502.5,"velocity":0.3937007874015748},{"duration":6,"midi":64,"time":502.5,"velocity":0.3937007874015748},{"duration":6,"midi":50,"time":502.5,"velocity":0.3937007874015748},{"duration":6,"midi":46,"time":502.5,"velocity":0.3937007874015748},{"duration":6,"midi":37,"time":502.5,"velocity":0.3937007874015748},{"duration":6,"midi":48,"time":502.5,"velocity":0.3937007874015748},{"duration":6,"midi":69,"time":502.5,"velocity":0.3937007874015748},{"duration":6,"midi":71,"time":502.5,"velocity":0.3937007874015748},{"duration":6,"midi":93,"time":502.5,"velocity":0.3937007874015748},{"duration":6,"midi":27,"time":502.5,"velocity":0.3937007874015748},{"duration":6,"midi":80,"time":502.5,"velocity":0.3937007874015748},{"duration":6,"midi":47,"time":502.5,"velocity":0.3937007874015748},{"duration":6,"midi":40,"time":502.5,"velocity":0.3937007874015748},{"duration":6,"midi":44,"time":502.5,"velocity":0.3937007874015748},{"duration":6,"midi":71,"time":502.5,"velocity":0.3937007874015748},{"duration":6,"midi":75,"time":502.5,"velocity":0.3937007874015748},{"duration":6,"midi":95,"time":502.5,"velocity":0.3937007874015748},{"duration":6,"midi":36,"time":502.5,"velocity":0.3937007874015748},{"duration":6,"midi":49,"time":502.5,"velocity":0.3937007874015748},{"duration":6,"midi":54,"time":502.5,"velocity":0.3937007874015748},{"duration":6,"midi":42,"time":502.5,"velocity":0.3937007874015748},{"duration":6,"midi":49,"time":502.5,"velocity":0.3937007874015748},{"duration":6,"midi":69,"time":502.5,"velocity":0.3937007874015748},{"duration":6,"midi":72,"time":502.5,"velocity":0.3937007874015748},{"duration":6,"midi":27,"time":502.5,"velocity":0.3937007874015748},{"duration":6,"midi":61,"time":502.5,"velocity":0.3937007874015748},{"duration":6,"midi":66,"time":502.5,"velocity":0.3937007874015748},{"duration":6,"midi":52,"time":502.5,"velocity":0.3937007874015748},{"duration":6,"midi":46,"time":502.5,"velocity":0.3937007874015748},{"duration":6,"midi":87,"time":502.5,"velocity":0.3937007874015748},{"duration":6,"midi":70,"time":502.5,"velocity":0.3937007874015748},{"duration":6,"midi":73,"time":502.5,"velocity":0.3937007874015748},{"duration":6,"midi":24,"time":502.5,"velocity":0.3937007874015748},{"duration":6,"midi":61,"time":502.5,"velocity":0.3937007874015748},{"duration":6,"midi":48,"time":502.5,"velocity":0.3937007874015748},{"duration":6,"midi":55,"time":502.5,"velocity":0.3937007874015748},{"duration":6,"midi":45,"time":502.5,"velocity":0.3937007874015748},{"duration":6,"midi":50,"time":502.5,"velocity":0.3937007874015748},{"duration":6,"midi":71,"time":502.5,"velocity":0.3937007874015748},{"duration":6,"midi":74,"time":502.5,"velocity":0.3937007874015748},{"duration":6,"midi":25,"time":502.5,"velocity":0.3937007874015748},{"duration":6,"midi":93,"time":502.5,"velocity":0.3937007874015748},{"duration":6,"midi":79,"time":502.5,"velocity":0.3937007874015748},{"duration":6,"midi":28,"time":502.5,"velocity":0.3937007874015748},{"duration":6,"midi":51,"time":502.5,"velocity":0.3937007874015748},{"duration":6,"midi":43,"time":502.5,"velocity":0.3937007874015748},{"duration":6,"midi":91,"time":502.5,"velocity":0.3937007874015748},{"duration":6,"midi":76,"time":502.5,"velocity":0.3937007874015748},{"duration":6,"midi":69,"time":502.5,"velocity":0.3937007874015748},{"duration":6,"midi":24,"time":502.5,"velocity":0.3937007874015748},{"duration":6,"midi":51,"time":502.5,"velocity":0.3937007874015748},{"duration":6,"midi":63,"time":502.5,"velocity":0.3937007874015748},{"duration":6,"midi":50,"time":502.5,"velocity":0.3937007874015748},{"duration":6,"midi":52,"time":502.5,"velocity":0.3937007874015748},{"duration":6,"midi":36,"time":502.5,"velocity":0.3937007874015748},{"duration":6,"midi":77,"time":502.5,"velocity":0.3937007874015748},{"duration":6,"midi":71,"time":502.5,"velocity":0.3937007874015748},{"duration":6,"midi":60,"time":502.5,"velocity":0.3937007874015748},{"duration":6,"midi":31,"time":502.5,"velocity":0.3937007874015748},{"duration":6,"midi":62,"time":502.5,"velocity":0.3937007874015748},{"duration":6,"midi":53,"time":502.5,"velocity":0.3937007874015748},{"duration":6,"midi":41,"time":502.5,"velocity":0.3937007874015748},{"duration":6,"midi":85,"time":502.5,"velocity":0.3937007874015748},{"duration":6,"midi":78,"time":502.5,"velocity":0.3937007874015748},{"duration":6,"midi":26,"time":502.5,"velocity":0.3937007874015748},{"duration":6,"midi":65,"time":502.5,"velocity":0.3937007874015748},{"duration":6,"midi":47,"time":502.5,"velocity":0.3937007874015748},{"duration":6,"midi":42,"time":502.5,"velocity":0.3937007874015748},{"duration":6,"midi":55,"time":502.5,"velocity":0.3937007874015748},{"duration":6,"midi":53,"time":502.5,"velocity":0.3937007874015748},{"duration":6,"midi":75,"time":502.5,"velocity":0.3937007874015748},{"duration":6,"midi":79,"time":502.5,"velocity":0.3937007874015748},{"duration":6,"midi":28,"time":502.5,"velocity":0.3937007874015748},{"duration":6,"midi":94,"time":502.5,"velocity":0.3937007874015748},{"duration":6,"midi":78,"time":502.5,"velocity":0.3937007874015748},{"duration":6,"midi":70,"time":502.5,"velocity":0.3937007874015748},{"duration":6,"midi":56,"time":502.5,"velocity":0.3937007874015748},{"duration":6,"midi":38,"time":502.5,"velocity":0.3937007874015748},{"duration":6,"midi":43,"time":502.5,"velocity":0.3937007874015748},{"duration":6,"midi":82,"time":502.5,"velocity":0.3937007874015748},{"duration":6,"midi":29,"time":502.5,"velocity":0.3937007874015748},{"duration":6,"midi":83,"time":502.5,"velocity":0.3937007874015748},{"duration":6,"midi":45,"time":502.5,"velocity":0.3937007874015748},{"duration":6,"midi":71,"time":502.5,"velocity":0.3937007874015748},{"duration":6,"midi":59,"time":502.5,"velocity":0.3937007874015748},{"duration":6,"midi":54,"time":502.5,"velocity":0.3937007874015748},{"duration":6,"midi":72,"time":502.5,"velocity":0.3937007874015748},{"duration":6,"midi":80,"time":502.5,"velocity":0.3937007874015748},{"duration":6,"midi":30,"time":502.5,"velocity":0.3937007874015748},{"duration":6,"midi":63,"time":502.5,"velocity":0.3937007874015748},{"duration":6,"midi":76,"time":502.5,"velocity":0.3937007874015748},{"duration":6,"midi":40,"time":502.5,"velocity":0.3937007874015748},{"duration":6,"midi":60,"time":502.5,"velocity":0.3937007874015748},{"duration":6,"midi":85,"time":502.5,"velocity":0.3937007874015748},{"duration":6,"midi":76,"time":502.5,"velocity":0.3937007874015748},{"duration":6,"midi":81,"time":502.5,"velocity":0.3937007874015748},{"duration":6,"midi":31,"time":502.5,"velocity":0.3937007874015748},{"duration":6,"midi":36,"time":502.5,"velocity":0.3937007874015748},{"duration":6,"midi":44,"time":502.5,"velocity":0.3937007874015748},{"duration":6,"midi":33,"time":502.5,"velocity":0.3937007874015748},{"duration":6,"midi":62,"time":502.5,"velocity":0.3937007874015748},{"duration":6,"midi":55,"time":502.5,"velocity":0.3937007874015748},{"duration":6,"midi":72,"time":502.5,"velocity":0.3937007874015748},{"duration":6,"midi":83,"time":502.5,"velocity":0.3937007874015748},{"duration":6,"midi":34,"time":502.5,"velocity":0.3937007874015748},{"duration":6,"midi":37,"time":502.5,"velocity":0.3937007874015748},{"duration":6,"midi":73,"time":502.5,"velocity":0.3937007874015748},{"duration":6,"midi":30,"time":502.5,"velocity":0.3937007874015748},{"duration":6,"midi":65,"time":502.5,"velocity":0.3937007874015748},{"duration":6,"midi":36,"time":502.5,"velocity":0.3937007874015748},{"duration":6,"midi":90,"time":502.5,"velocity":0.3937007874015748},{"duration":6,"midi":87,"time":502.5,"velocity":0.3937007874015748},{"duration":6,"midi":30,"time":502.5,"velocity":0.3937007874015748},{"duration":6,"midi":48,"time":502.5,"velocity":0.3937007874015748},{"duration":6,"midi":46,"time":502.5,"velocity":0.3937007874015748},{"duration":6,"midi":25,"time":502.5,"velocity":0.3937007874015748},{"duration":6,"midi":67,"time":502.5,"velocity":0.3937007874015748},{"duration":6,"midi":58,"time":502.5,"velocity":0.3937007874015748},{"duration":6,"midi":41,"time":502.5,"velocity":0.3937007874015748},{"duration":6,"midi":84,"time":502.5,"velocity":0.3937007874015748},{"duration":6,"midi":31,"time":502.5,"velocity":0.3937007874015748},{"duration":6,"midi":59,"time":502.5,"velocity":0.3937007874015748},{"duration":6,"midi":28,"time":502.5,"velocity":0.3937007874015748},{"duration":6,"midi":93,"time":502.5,"velocity":0.3937007874015748},{"duration":6,"midi":68,"time":502.5,"velocity":0.3937007874015748},{"duration":6,"midi":35,"time":502.5,"velocity":0.3937007874015748},{"duration":6,"midi":83,"time":502.5,"velocity":0.3937007874015748},{"duration":6,"midi":85,"time":502.5,"velocity":0.3937007874015748},{"duration":6,"midi":75,"time":502.5,"velocity":0.3937007874015748},{"duration":6,"midi":66,"time":502.5,"velocity":0.3937007874015748},{"duration":6,"midi":43,"time":502.5,"velocity":0.3937007874015748},{"duration":6,"midi":90,"time":502.5,"velocity":0.3937007874015748},{"duration":6,"midi":71,"time":502.5,"velocity":0.3937007874015748},{"duration":6,"midi":56,"time":502.5,"velocity":0.3937007874015748},{"duration":6,"midi":73,"time":502.5,"velocity":0.3937007874015748},{"duration":6,"midi":86,"time":502.5,"velocity":0.3937007874015748},{"duration":6,"midi":72,"time":502.5,"velocity":0.3937007874015748},{"duration":6,"midi":91,"time":502.5,"velocity":0.3937007874015748},{"duration":6,"midi":72,"time":502.5,"velocity":0.3937007874015748},{"duration":6,"midi":85,"time":502.5,"velocity":0.3937007874015748},{"duration":6,"midi":72,"time":502.5,"velocity":0.3937007874015748},{"duration":6,"midi":32,"time":502.5,"velocity":0.3937007874015748},{"duration":6,"midi":38,"time":502.5,"velocity":0.3937007874015748},{"duration":6,"midi":88,"time":502.5,"velocity":0.3937007874015748},{"duration":6,"midi":32,"time":502.5,"velocity":0.3937007874015748},{"duration":6,"midi":88,"time":502.5,"velocity":0.3937007874015748},{"duration":6,"midi":42,"time":502.5,"velocity":0.3937007874015748},{"duration":6,"midi":81,"time":502.5,"velocity":0.3937007874015748},{"duration":6,"midi":91,"time":502.5,"velocity":0.3937007874015748},{"duration":6,"midi":57,"time":502.5,"velocity":0.3937007874015748},{"duration":6,"midi":35,"time":502.5,"velocity":0.3937007874015748},{"duration":6,"midi":89,"time":502.5,"velocity":0.3937007874015748},{"duration":6,"midi":33,"time":502.5,"velocity":0.3937007874015748},{"duration":6,"midi":57,"time":502.5,"velocity":0.3937007874015748},{"duration":6,"midi":71,"time":502.5,"velocity":0.3937007874015748},{"duration":6,"midi":78,"time":502.5,"velocity":0.3937007874015748},{"duration":6,"midi":74,"time":502.5,"velocity":0.3937007874015748},{"duration":6,"midi":88,"time":502.5,"velocity":0.3937007874015748},{"duration":6,"midi":86,"time":502.5,"velocity":0.3937007874015748},{"duration":6,"midi":90,"time":502.5,"velocity":0.3937007874015748},{"duration":6,"midi":90,"time":502.5,"velocity":0.3937007874015748},{"duration":6,"midi":65,"time":502.5,"velocity":0.3937007874015748},{"duration":6,"midi":41,"time":502.5,"velocity":0.3937007874015748},{"duration":6,"midi":73,"time":502.5,"velocity":0.3937007874015748},{"duration":6,"midi":77,"time":502.5,"velocity":0.3937007874015748},{"duration":6,"midi":59,"time":502.5,"velocity":0.3937007874015748},{"duration":6,"midi":74,"time":502.5,"velocity":0.3937007874015748},{"duration":6,"midi":66,"time":502.5,"velocity":0.3937007874015748},{"duration":6,"midi":89,"time":502.5,"velocity":0.3937007874015748},{"duration":6,"midi":89,"time":502.5,"velocity":0.3937007874015748},{"duration":6,"midi":68,"time":502.5,"velocity":0.3937007874015748},{"duration":6,"midi":75,"time":502.5,"velocity":0.3937007874015748},{"duration":6,"midi":79,"time":502.5,"velocity":0.3937007874015748},{"duration":6,"midi":31,"time":502.5,"velocity":0.3937007874015748},{"duration":6,"midi":89,"time":502.5,"velocity":0.3937007874015748},{"duration":6,"midi":61,"time":502.5,"velocity":0.3937007874015748},{"duration":6,"midi":88,"time":502.5,"velocity":0.3937007874015748},{"duration":6,"midi":27,"time":502.5,"velocity":0.3937007874015748},{"duration":6,"midi":40,"time":502.5,"velocity":0.3937007874015748},{"duration":6,"midi":63,"time":502.5,"velocity":0.3937007874015748}]},{"instrument":{"family":"piano","number":0,"name":"acoustic grand piano"},"notes":[{"duration":0.046875,"midi":64,"time":0,"velocity":0.3937007874015748},{"duration":0.046875,"midi":64,"time":0,"velocity":0.3937007874015748},{"duration":0.046875,"midi":64,"time":0.75,"velocity":0.3937007874015748},{"duration":0.046875,"midi":64,"time":0.75,"velocity":0.3937007874015748},{"duration":0.046875,"midi":64,"time":1.125,"velocity":0.3937007874015748},{"duration":0.046875,"midi":64,"time":1.125,"velocity":0.3937007874015748},{"duration":0.09375,"midi":64,"time":1.5,"velocity":0.3937007874015748},{"duration":0.09375,"midi":64,"time":1.5,"velocity":0.3937007874015748},{"duration":0.09375,"midi":64,"time":1.875,"velocity":0.3937007874015748},{"duration":0.09375,"midi":64,"time":1.875,"velocity":0.3937007874015748},{"duration":0.09375,"midi":64,"time":2.25,"velocity":0.3937007874015748},{"duration":0.09375,"midi":64,"time":2.25,"velocity":0.3937007874015748},{"duration":0.09375,"midi":64,"time":2.625,"velocity":0.3937007874015748},{"duration":0.09375,"midi":64,"time":2.625,"velocity":0.3937007874015748},{"duration":0.09375,"midi":64,"time":3,"velocity":0.3937007874015748},{"duration":0.09375,"midi":64,"time":3,"velocity":0.3937007874015748},{"duration":0.09375,"midi":64,"time":3.375,"velocity":0.3937007874015748},{"duration":0.09375,"midi":64,"time":3.375,"velocity":0.3937007874015748},{"duration":0.09375,"midi":64,"time":3.75,"velocity":0.3937007874015748},{"duration":0.09375,"midi":64,"time":3.75,"velocity":0.3937007874015748},{"duration":0.09375,"midi":64,"time":4.125,"velocity":0.3937007874015748},{"duration":0.09375,"midi":64,"time":4.125,"velocity":0.3937007874015748},{"duration":0.09375,"midi":64,"time":4.5,"velocity":0.3937007874015748},{"duration":0.09375,"midi":64,"time":4.5,"velocity":0.3937007874015748},{"duration":0.09375,"midi":64,"time":4.875,"velocity":0.3937007874015748},{"duration":0.09375,"midi":64,"time":4.875,"velocity":0.3937007874015748},{"duration":0.09375,"midi":64,"time":5.25,"velocity":0.3937007874015748},{"duration":0.09375,"midi":64,"time":5.25,"velocity":0.3937007874015748},{"duration":0.09375,"midi":64,"time":5.625,"velocity":0.3937007874015748},{"duration":0.09375,"midi":64,"time":5.625,"velocity":0.3937007874015748},{"duration":0.09375,"midi":64,"time":6,"velocity":0.3937007874015748},{"duration":0.09375,"midi":64,"time":6,"velocity":0.3937007874015748},{"duration":0.09375,"midi":64,"time":6.375,"velocity":0.3937007874015748},{"duration":0.09375,"midi":64,"time":6.375,"velocity":0.3937007874015748},{"duration":0.09375,"midi":64,"time":6.75,"velocity":0.3937007874015748},{"duration":0.09375,"midi":64,"time":6.75,"velocity":0.3937007874015748},{"duration":0.09375,"midi":64,"time":7.125,"velocity":0.3937007874015748},{"duration":0.09375,"midi":64,"time":7.125,"velocity":0.3937007874015748},{"duration":0.09375,"midi":64,"time":7.5,"velocity":0.3937007874015748},{"duration":0.09375,"midi":64,"time":7.5,"velocity":0.3937007874015748},{"duration":0.09375,"midi":64,"time":7.875,"velocity":0.3937007874015748},{"duration":0.09375,"midi":64,"time":7.875,"velocity":0.3937007874015748},{"duration":0.09375,"midi":64,"time":8.25,"velocity":0.3937007874015748},{"duration":0.09375,"midi":76,"time":8.25,"velocity":0.3937007874015748},{"duration":0.09375,"midi":76,"time":8.25,"velocity":0.3937007874015748},{"duration":0.09375,"midi":64,"time":8.25,"velocity":0.3937007874015748},{"duration":0.09375,"midi":76,"time":8.625,"velocity":0.3937007874015748},{"duration":0.09375,"midi":64,"time":8.625,"velocity":0.3937007874015748},{"duration":0.09375,"midi":64,"time":8.625,"velocity":0.3937007874015748},{"duration":0.09375,"midi":76,"time":8.625,"velocity":0.3937007874015748},{"duration":0.09375,"midi":64,"time":9,"velocity":0.3937007874015748},{"duration":0.09375,"midi":76,"time":9,"velocity":0.3937007874015748},{"duration":0.09375,"midi":88,"time":9,"velocity":0.3937007874015748},{"duration":0.09375,"midi":64,"time":9,"velocity":0.3937007874015748},{"duration":0.09375,"midi":76,"time":9,"velocity":0.3937007874015748},{"duration":0.09375,"midi":88,"time":9,"velocity":0.3937007874015748},{"duration":0.09375,"midi":64,"time":9.375,"velocity":0.3937007874015748},{"duration":0.09375,"midi":88,"time":9.375,"velocity":0.3937007874015748},{"duration":0.09375,"midi":76,"time":9.375,"velocity":0.3937007874015748},{"duration":0.09375,"midi":76,"time":9.375,"velocity":0.3937007874015748},{"duration":0.09375,"midi":88,"time":9.375,"velocity":0.3937007874015748},{"duration":0.09375,"midi":64,"time":9.375,"velocity":0.3937007874015748},{"duration":0.09375,"midi":64,"time":9.75,"velocity":0.3937007874015748},{"duration":0.09375,"midi":76,"time":9.75,"velocity":0.3937007874015748},{"duration":0.09375,"midi":88,"time":9.75,"velocity":0.3937007874015748},{"duration":0.09375,"midi":52,"time":9.75,"velocity":0.3937007874015748},{"duration":0.09375,"midi":76,"time":9.75,"velocity":0.3937007874015748},{"duration":0.09375,"midi":88,"time":9.75,"velocity":0.3937007874015748},{"duration":0.09375,"midi":52,"time":9.75,"velocity":0.3937007874015748},{"duration":0.09375,"midi":64,"time":9.75,"velocity":0.3937007874015748},{"duration":0.09375,"midi":64,"time":10.125,"velocity":0.3937007874015748},{"duration":0.09375,"midi":88,"time":10.125,"velocity":0.3937007874015748},{"duration":0.09375,"midi":76,"time":10.125,"velocity":0.3937007874015748},{"duration":0.09375,"midi":52,"time":10.125,"velocity":0.3937007874015748},{"duration":0.09375,"midi":76,"time":10.125,"velocity":0.3937007874015748},{"duration":0.09375,"midi":88,"time":10.125,"velocity":0.3937007874015748},{"duration":0.09375,"midi":52,"time":10.125,"velocity":0.3937007874015748},{"duration":0.09375,"midi":64,"time":10.125,"velocity":0.3937007874015748},{"duration":0.09375,"midi":52,"time":10.5,"velocity":0.3937007874015748},{"duration":0.09375,"midi":64,"time":10.5,"velocity":0.3937007874015748},{"duration":0.09375,"midi":40,"time":10.5,"velocity":0.3937007874015748},{"duration":0.09375,"midi":76,"time":10.5,"velocity":0.3937007874015748},{"duration":0.09375,"midi":88,"time":10.5,"velocity":0.3937007874015748},{"duration":0.09375,"midi":64,"time":10.5,"velocity":0.3937007874015748},{"duration":0.09375,"midi":52,"time":10.5,"velocity":0.3937007874015748},{"duration":0.09375,"midi":76,"time":10.5,"velocity":0.3937007874015748},{"duration":0.09375,"midi":88,"time":10.5,"velocity":0.3937007874015748},{"duration":0.09375,"midi":40,"time":10.5,"velocity":0.3937007874015748},{"duration":0.09375,"midi":88,"time":10.875,"velocity":0.3937007874015748},{"duration":0.09375,"midi":76,"time":10.875,"velocity":0.3937007874015748},{"duration":0.09375,"midi":52,"time":10.875,"velocity":0.3937007874015748},{"duration":0.09375,"midi":64,"time":10.875,"velocity":0.3937007874015748},{"duration":0.09375,"midi":76,"time":10.875,"velocity":0.3937007874015748},{"duration":0.09375,"midi":88,"time":10.875,"velocity":0.3937007874015748},{"duration":0.09375,"midi":52,"time":10.875,"velocity":0.3937007874015748},{"duration":0.09375,"midi":40,"time":10.875,"velocity":0.3937007874015748},{"duration":0.09375,"midi":40,"time":10.875,"velocity":0.3937007874015748},{"duration":0.09375,"midi":64,"time":10.875,"velocity":0.3937007874015748},{"duration":0.09375,"midi":76,"time":11.25,"velocity":0.3937007874015748},{"duration":0.09375,"midi":64,"time":11.25,"velocity":0.3937007874015748},{"duration":0.09375,"midi":40,"time":11.25,"velocity":0.3937007874015748},{"duration":0.09375,"midi":88,"time":11.25,"velocity":0.3937007874015748},{"duration":0.09375,"midi":88,"time":11.25,"velocity":0.3937007874015748},{"duration":0.09375,"midi":28,"time":11.25,"velocity":0.3937007874015748},{"duration":0.09375,"midi":52,"time":11.25,"velocity":0.3937007874015748},{"duration":0.09375,"midi":40,"time":11.25,"velocity":0.3937007874015748},{"duration":0.09375,"midi":76,"time":11.25,"velocity":0.3937007874015748},{"duration":0.09375,"midi":28,"time":11.25,"velocity":0.3937007874015748},{"duration":0.09375,"midi":64,"time":11.25,"velocity":0.3937007874015748},{"duration":0.09375,"midi":52,"time":11.25,"velocity":0.3937007874015748},{"duration":0.09375,"midi":52,"time":11.625,"velocity":0.3937007874015748},{"duration":0.09375,"midi":88,"time":11.625,"velocity":0.3937007874015748},{"duration":0.09375,"midi":88,"time":11.625,"velocity":0.3937007874015748},{"duration":0.09375,"midi":64,"time":11.625,"velocity":0.3937007874015748},{"duration":0.09375,"midi":40,"time":11.625,"velocity":0.3937007874015748},{"duration":0.09375,"midi":40,"time":11.625,"velocity":0.3937007874015748},{"duration":0.09375,"midi":76,"time":11.625,"velocity":0.3937007874015748},{"duration":0.09375,"midi":28,"time":11.625,"velocity":0.3937007874015748},{"duration":0.09375,"midi":52,"time":11.625,"velocity":0.3937007874015748},{"duration":0.09375,"midi":28,"time":11.625,"velocity":0.3937007874015748},{"duration":0.09375,"midi":76,"time":11.625,"velocity":0.3937007874015748},{"duration":0.09375,"midi":64,"time":11.625,"velocity":0.3937007874015748},{"duration":0.09375,"midi":40,"time":12,"velocity":0.3937007874015748},{"duration":0.09375,"midi":28,"time":12,"velocity":0.3937007874015748},{"duration":0.09375,"midi":52,"time":12,"velocity":0.3937007874015748},{"duration":0.09375,"midi":88,"time":12,"velocity":0.3937007874015748},{"duration":0.09375,"midi":76,"time":12,"velocity":0.3937007874015748},{"duration":0.09375,"midi":28,"time":12,"velocity":0.3937007874015748},{"duration":0.09375,"midi":76,"time":12,"velocity":0.3937007874015748},{"duration":0.09375,"midi":88,"time":12,"velocity":0.3937007874015748},{"duration":0.09375,"midi":64,"time":12,"velocity":0.3937007874015748},{"duration":0.09375,"midi":40,"time":12,"velocity":0.3937007874015748},{"duration":0.09375,"midi":52,"time":12,"velocity":0.3937007874015748},{"duration":0.09375,"midi":64,"time":12,"velocity":0.3937007874015748},{"duration":0.09375,"midi":76,"time":12.375,"velocity":0.3937007874015748},{"duration":0.09375,"midi":64,"time":12.375,"velocity":0.3937007874015748},{"duration":0.09375,"midi":88,"time":12.375,"velocity":0.3937007874015748},{"duration":0.09375,"midi":64,"time":12.375,"velocity":0.3937007874015748},{"duration":0.09375,"midi":52,"time":12.375,"velocity":0.3937007874015748},{"duration":0.09375,"midi":52,"time":12.375,"velocity":0.3937007874015748},{"duration":0.09375,"midi":40,"time":12.375,"velocity":0.3937007874015748},{"duration":0.09375,"midi":88,"time":12.375,"velocity":0.3937007874015748},{"duration":0.09375,"midi":28,"time":12.375,"velocity":0.3937007874015748},{"duration":0.09375,"midi":76,"time":12.375,"velocity":0.3937007874015748},{"duration":0.09375,"midi":40,"time":12.375,"velocity":0.3937007874015748},{"duration":0.09375,"midi":28,"time":12.375,"velocity":0.3937007874015748},{"duration":0.09375,"midi":28,"time":12.75,"velocity":0.3937007874015748},{"duration":0.09375,"midi":88,"time":12.75,"velocity":0.3937007874015748},{"duration":0.09375,"midi":40,"time":12.75,"velocity":0.3937007874015748},{"duration":0.09375,"midi":52,"time":12.75,"velocity":0.3937007874015748},{"duration":0.09375,"midi":88,"time":12.75,"velocity":0.3937007874015748},{"duration":0.09375,"midi":28,"time":12.75,"velocity":0.3937007874015748},{"duration":0.09375,"midi":64,"time":12.75,"velocity":0.3937007874015748},{"duration":0.09375,"midi":52,"time":12.75,"velocity":0.3937007874015748},{"duration":0.09375,"midi":76,"time":12.75,"velocity":0.3937007874015748},{"duration":0.09375,"midi":40,"time":12.75,"velocity":0.3937007874015748},{"duration":0.09375,"midi":64,"time":12.75,"velocity":0.3937007874015748},{"duration":0.09375,"midi":76,"time":12.75,"velocity":0.3937007874015748},{"duration":0.09375,"midi":28,"time":13.125,"velocity":0.3937007874015748},{"duration":0.09375,"midi":88,"time":13.125,"velocity":0.3937007874015748},{"duration":0.09375,"midi":76,"time":13.125,"velocity":0.3937007874015748},{"duration":0.09375,"midi":88,"time":13.125,"velocity":0.3937007874015748},{"duration":0.09375,"midi":40,"time":13.125,"velocity":0.3937007874015748},{"duration":0.09375,"midi":64,"time":13.125,"velocity":0.3937007874015748},{"duration":0.09375,"midi":40,"time":13.125,"velocity":0.3937007874015748},{"duration":0.09375,"midi":64,"time":13.125,"velocity":0.3937007874015748},{"duration":0.09375,"midi":28,"time":13.125,"velocity":0.3937007874015748},{"duration":0.09375,"midi":76,"time":13.125,"velocity":0.3937007874015748},{"duration":0.09375,"midi":52,"time":13.125,"velocity":0.3937007874015748},{"duration":0.09375,"midi":52,"time":13.125,"velocity":0.3937007874015748},{"duration":0.09375,"midi":64,"time":13.5,"velocity":0.3937007874015748},{"duration":0.09375,"midi":52,"time":13.5,"velocity":0.3937007874015748},{"duration":0.09375,"midi":28,"time":13.5,"velocity":0.3937007874015748},{"duration":0.09375,"midi":40,"time":13.5,"velocity":0.3937007874015748},{"duration":0.09375,"midi":52,"time":13.5,"velocity":0.3937007874015748},{"duration":0.09375,"midi":76,"time":13.5,"velocity":0.3937007874015748},{"duration":0.09375,"midi":40,"time":13.5,"velocity":0.3937007874015748},{"duration":0.09375,"midi":88,"time":13.5,"velocity":0.3937007874015748},{"duration":0.09375,"midi":88,"time":13.5,"velocity":0.3937007874015748},{"duration":0.09375,"midi":64,"time":13.5,"velocity":0.3937007874015748},{"duration":0.09375,"midi":28,"time":13.5,"velocity":0.3937007874015748},{"duration":0.09375,"midi":76,"time":13.5,"velocity":0.3937007874015748},{"duration":0.09375,"midi":64,"time":13.875,"velocity":0.3937007874015748},{"duration":0.09375,"midi":28,"time":13.875,"velocity":0.3937007874015748},{"duration":0.09375,"midi":52,"time":13.875,"velocity":0.3937007874015748},{"duration":0.09375,"midi":40,"time":13.875,"velocity":0.3937007874015748},{"duration":0.09375,"midi":88,"time":13.875,"velocity":0.3937007874015748},{"duration":0.09375,"midi":28,"time":13.875,"velocity":0.3937007874015748},{"duration":0.09375,"midi":40,"time":13.875,"velocity":0.3937007874015748},{"duration":0.09375,"midi":52,"time":13.875,"velocity":0.3937007874015748},{"duration":0.09375,"midi":76,"time":13.875,"velocity":0.3937007874015748},{"duration":0.09375,"midi":64,"time":13.875,"velocity":0.3937007874015748},{"duration":0.09375,"midi":76,"time":13.875,"velocity":0.3937007874015748},{"duration":0.09375,"midi":88,"time":13.875,"velocity":0.3937007874015748},{"duration":0.09375,"midi":28,"time":14.25,"velocity":0.3937007874015748},{"duration":0.09375,"midi":40,"time":14.25,"velocity":0.3937007874015748},{"duration":0.09375,"midi":28,"time":14.25,"velocity":0.3937007874015748},{"duration":0.09375,"midi":52,"time":14.25,"velocity":0.3937007874015748},{"duration":0.09375,"midi":76,"time":14.25,"velocity":0.3937007874015748},{"duration":0.09375,"midi":76,"time":14.25,"velocity":0.3937007874015748},{"duration":0.09375,"midi":52,"time":14.25,"velocity":0.3937007874015748},{"duration":0.09375,"midi":88,"time":14.25,"velocity":0.3937007874015748},{"duration":0.09375,"midi":88,"time":14.25,"velocity":0.3937007874015748},{"duration":0.09375,"midi":64,"time":14.25,"velocity":0.3937007874015748},{"duration":0.09375,"midi":64,"time":14.25,"velocity":0.3937007874015748},{"duration":0.09375,"midi":40,"time":14.25,"velocity":0.3937007874015748},{"duration":0.09375,"midi":76,"time":14.625,"velocity":0.3937007874015748},{"duration":0.09375,"midi":76,"time":14.625,"velocity":0.3937007874015748},{"duration":0.09375,"midi":64,"time":14.625,"velocity":0.3937007874015748},{"duration":0.09375,"midi":52,"time":14.625,"velocity":0.3937007874015748},{"duration":0.09375,"midi":88,"time":14.625,"velocity":0.3937007874015748},{"duration":0.09375,"midi":88,"time":14.625,"velocity":0.3937007874015748},{"duration":0.09375,"midi":28,"time":14.625,"velocity":0.3937007874015748},{"duration":0.09375,"midi":64,"time":14.625,"velocity":0.3937007874015748},{"duration":0.09375,"midi":52,"time":14.625,"velocity":0.3937007874015748},{"duration":0.09375,"midi":40,"time":14.625,"velocity":0.3937007874015748},{"duration":0.09375,"midi":40,"time":14.625,"velocity":0.3937007874015748},{"duration":0.09375,"midi":28,"time":14.625,"velocity":0.3937007874015748},{"duration":0.09375,"midi":40,"time":15,"velocity":0.3937007874015748},{"duration":0.09375,"midi":52,"time":15,"velocity":0.3937007874015748},{"duration":0.09375,"midi":28,"time":15,"velocity":0.3937007874015748},{"duration":0.09375,"midi":52,"time":15,"velocity":0.3937007874015748},{"duration":0.09375,"midi":64,"time":15,"velocity":0.3937007874015748},{"duration":0.09375,"midi":88,"time":15,"velocity":0.3937007874015748},{"duration":0.09375,"midi":76,"time":15,"velocity":0.3937007874015748},{"duration":0.09375,"midi":40,"time":15,"velocity":0.3937007874015748},{"duration":0.09375,"midi":88,"time":15,"velocity":0.3937007874015748},{"duration":0.09375,"midi":64,"time":15,"velocity":0.3937007874015748},{"duration":0.09375,"midi":76,"time":15,"velocity":0.3937007874015748},{"duration":0.09375,"midi":28,"time":15,"velocity":0.3937007874015748},{"duration":0.09375,"midi":40,"time":15.375,"velocity":0.3937007874015748},{"duration":0.09375,"midi":76,"time":15.375,"velocity":0.3937007874015748},{"duration":0.09375,"midi":76,"time":15.375,"velocity":0.3937007874015748},{"duration":0.09375,"midi":28,"time":15.375,"velocity":0.3937007874015748},{"duration":0.09375,"midi":64,"time":15.375,"velocity":0.3937007874015748},{"duration":0.09375,"midi":28,"time":15.375,"velocity":0.3937007874015748},{"duration":0.09375,"midi":52,"time":15.375,"velocity":0.3937007874015748},{"duration":0.09375,"midi":88,"time":15.375,"velocity":0.3937007874015748},{"duration":0.09375,"midi":88,"time":15.375,"velocity":0.3937007874015748},{"duration":0.09375,"midi":52,"time":15.375,"velocity":0.3937007874015748},{"duration":0.09375,"midi":64,"time":15.375,"velocity":0.3937007874015748},{"duration":0.09375,"midi":40,"time":15.375,"velocity":0.3937007874015748},{"duration":0.09375,"midi":28,"time":15.75,"velocity":0.3937007874015748},{"duration":0.09375,"midi":64,"time":15.75,"velocity":0.3937007874015748},{"duration":0.09375,"midi":28,"time":15.75,"velocity":0.3937007874015748},{"duration":0.09375,"midi":40,"time":15.75,"velocity":0.3937007874015748},{"duration":0.09375,"midi":88,"time":15.75,"velocity":0.3937007874015748},{"duration":0.09375,"midi":40,"time":15.75,"velocity":0.3937007874015748},{"duration":0.09375,"midi":88,"time":15.75,"velocity":0.3937007874015748},{"duration":0.09375,"midi":52,"time":15.75,"velocity":0.3937007874015748},{"duration":0.09375,"midi":76,"time":15.75,"velocity":0.3937007874015748},{"duration":0.09375,"midi":64,"time":15.75,"velocity":0.3937007874015748},{"duration":0.09375,"midi":76,"time":15.75,"velocity":0.3937007874015748},{"duration":0.09375,"midi":52,"time":15.75,"velocity":0.3937007874015748},{"duration":0.09375,"midi":52,"time":16.125,"velocity":0.3937007874015748},{"duration":0.09375,"midi":40,"time":16.125,"velocity":0.3937007874015748},{"duration":0.09375,"midi":64,"time":16.125,"velocity":0.3937007874015748},{"duration":0.09375,"midi":28,"time":16.125,"velocity":0.3937007874015748},{"duration":0.09375,"midi":76,"time":16.125,"velocity":0.3937007874015748},{"duration":0.09375,"midi":64,"time":16.125,"velocity":0.3937007874015748},{"duration":0.09375,"midi":88,"time":16.125,"velocity":0.3937007874015748},{"duration":0.09375,"midi":28,"time":16.125,"velocity":0.3937007874015748},{"duration":0.09375,"midi":40,"time":16.125,"velocity":0.3937007874015748},{"duration":0.09375,"midi":76,"time":16.125,"velocity":0.3937007874015748},{"duration":0.09375,"midi":52,"time":16.125,"velocity":0.3937007874015748},{"duration":0.09375,"midi":88,"time":16.125,"velocity":0.3937007874015748},{"duration":0.09375,"midi":28,"time":16.5,"velocity":0.3937007874015748},{"duration":0.09375,"midi":64,"time":16.5,"velocity":0.3937007874015748},{"duration":0.09375,"midi":40,"time":16.5,"velocity":0.3937007874015748},{"duration":0.09375,"midi":40,"time":16.5,"velocity":0.3937007874015748},{"duration":0.09375,"midi":52,"time":16.5,"velocity":0.3937007874015748},{"duration":0.09375,"midi":88,"time":16.5,"velocity":0.3937007874015748},{"duration":0.09375,"midi":88,"time":16.5,"velocity":0.3937007874015748},{"duration":0.09375,"midi":64,"time":16.5,"velocity":0.3937007874015748},{"duration":0.09375,"midi":28,"time":16.5,"velocity":0.3937007874015748},{"duration":0.09375,"midi":76,"time":16.5,"velocity":0.3937007874015748},{"duration":0.09375,"midi":76,"time":16.5,"velocity":0.3937007874015748},{"duration":0.09375,"midi":52,"time":16.5,"velocity":0.3937007874015748},{"duration":0.09375,"midi":28,"time":16.875,"velocity":0.3937007874015748},{"duration":0.09375,"midi":76,"time":16.875,"velocity":0.3937007874015748},{"duration":0.09375,"midi":64,"time":16.875,"velocity":0.3937007874015748},{"duration":0.09375,"midi":28,"time":16.875,"velocity":0.3937007874015748},{"duration":0.09375,"midi":52,"time":16.875,"velocity":0.3937007874015748},{"duration":0.09375,"midi":88,"time":16.875,"velocity":0.3937007874015748},{"duration":0.09375,"midi":52,"time":16.875,"velocity":0.3937007874015748},{"duration":0.09375,"midi":64,"time":16.875,"velocity":0.3937007874015748},{"duration":0.09375,"midi":40,"time":16.875,"velocity":0.3937007874015748},{"duration":0.09375,"midi":76,"time":16.875,"velocity":0.3937007874015748},{"duration":0.09375,"midi":88,"time":16.875,"velocity":0.3937007874015748},{"duration":0.09375,"midi":40,"time":16.875,"velocity":0.3937007874015748},{"duration":0.09375,"midi":28,"time":17.25,"velocity":0.3937007874015748},{"duration":0.09375,"midi":52,"time":17.25,"velocity":0.3937007874015748},{"duration":0.09375,"midi":64,"time":17.25,"velocity":0.3937007874015748},{"duration":0.09375,"midi":76,"time":17.25,"velocity":0.3937007874015748},{"duration":0.09375,"midi":76,"time":17.25,"velocity":0.3937007874015748},{"duration":0.09375,"midi":64,"time":17.25,"velocity":0.3937007874015748},{"duration":0.09375,"midi":28,"time":17.25,"velocity":0.3937007874015748},{"duration":0.09375,"midi":40,"time":17.25,"velocity":0.3937007874015748},{"duration":0.09375,"midi":88,"time":17.25,"velocity":0.3937007874015748},{"duration":0.09375,"midi":88,"time":17.25,"velocity":0.3937007874015748},{"duration":0.09375,"midi":40,"time":17.25,"velocity":0.3937007874015748},{"duration":0.09375,"midi":52,"time":17.25,"velocity":0.3937007874015748},{"duration":0.09375,"midi":76,"time":17.625,"velocity":0.3937007874015748},{"duration":0.09375,"midi":52,"time":17.625,"velocity":0.3937007874015748},{"duration":0.09375,"midi":76,"time":17.625,"velocity":0.3937007874015748},{"duration":0.09375,"midi":40,"time":17.625,"velocity":0.3937007874015748},{"duration":0.09375,"midi":88,"time":17.625,"velocity":0.3937007874015748},{"duration":0.09375,"midi":40,"time":17.625,"velocity":0.3937007874015748},{"duration":0.09375,"midi":64,"time":17.625,"velocity":0.3937007874015748},{"duration":0.09375,"midi":28,"time":17.625,"velocity":0.3937007874015748},{"duration":0.09375,"midi":28,"time":17.625,"velocity":0.3937007874015748},{"duration":0.09375,"midi":64,"time":17.625,"velocity":0.3937007874015748},{"duration":0.09375,"midi":52,"time":17.625,"velocity":0.3937007874015748},{"duration":0.09375,"midi":88,"time":17.625,"velocity":0.3937007874015748},{"duration":1.5,"midi":45,"time":18,"velocity":0.3937007874015748},{"duration":1.5,"midi":33,"time":18,"velocity":0.3937007874015748},{"duration":0.375,"midi":52,"time":19.5,"velocity":0.3937007874015748},{"duration":0.375,"midi":48,"time":19.5,"velocity":0.3937007874015748},{"duration":0.375,"midi":40,"time":21,"velocity":0.3937007874015748},{"duration":0.46875,"midi":48,"time":22.5,"velocity":0.3937007874015748},{"duration":0.46875,"midi":52,"time":22.5,"velocity":0.3937007874015748},{"duration":0.28125,"midi":28,"time":23.71875,"velocity":0.3937007874015748},{"duration":0.28125,"midi":40,"time":23.71875,"velocity":0.3937007874015748},{"duration":0.28125,"midi":30,"time":23.8125,"velocity":0.3937007874015748},{"duration":0.28125,"midi":42,"time":23.8125,"velocity":0.3937007874015748},{"duration":0.28125,"midi":32,"time":23.90625,"velocity":0.3937007874015748},{"duration":0.28125,"midi":44,"time":23.90625,"velocity":0.3937007874015748},{"duration":1.5,"midi":45,"time":24,"velocity":0.3937007874015748},{"duration":1.5,"midi":33,"time":24,"velocity":0.3937007874015748},{"duration":0.375,"midi":52,"time":25.5,"velocity":0.3937007874015748},{"duration":0.375,"midi":48,"time":25.5,"velocity":0.3937007874015748},{"duration":0.375,"midi":40,"time":27,"velocity":0.3937007874015748},{"duration":0.46875,"midi":52,"time":28.5,"velocity":0.3937007874015748},{"duration":0.46875,"midi":48,"time":28.5,"velocity":0.3937007874015748},{"duration":0.1875,"midi":64,"time":30,"velocity":0.3937007874015748},{"duration":1.5,"midi":45,"time":30,"velocity":0.3937007874015748},{"duration":0.1875,"midi":64,"time":30.75,"velocity":0.3937007874015748},{"duration":0.375,"midi":52,"time":31.5,"velocity":0.3937007874015748},{"duration":0.1875,"midi":64,"time":31.5,"velocity":0.3937007874015748},{"duration":0.375,"midi":48,"time":31.5,"velocity":0.3937007874015748},{"duration":0.1875,"midi":64,"time":32.25,"velocity":0.3937007874015748},{"duration":0.375,"midi":40,"time":33,"velocity":0.3937007874015748},{"duration":0.1875,"midi":64,"time":33,"velocity":0.3937007874015748},{"duration":0.1875,"midi":64,"time":33.75,"velocity":0.3937007874015748},{"duration":0.46875,"midi":48,"time":34.5,"velocity":0.3937007874015748},{"duration":0.1875,"midi":64,"time":34.5,"velocity":0.3937007874015748},{"duration":0.46875,"midi":52,"time":34.5,"velocity":0.3937007874015748},{"duration":0.1875,"midi":64,"time":35.25,"velocity":0.3937007874015748},{"duration":0.375,"midi":45,"time":36,"velocity":0.3937007874015748},{"duration":0.1875,"midi":64,"time":36,"velocity":0.3937007874015748},{"duration":0.1875,"midi":64,"time":36.75,"velocity":0.3937007874015748},{"duration":0.375,"midi":48,"time":37.5,"velocity":0.3937007874015748},{"duration":0.1875,"midi":64,"time":37.5,"velocity":0.3937007874015748},{"duration":0.375,"midi":52,"time":37.5,"velocity":0.3937007874015748},{"duration":0.1875,"midi":64,"time":38.25,"velocity":0.3937007874015748},{"duration":0.375,"midi":40,"time":39,"velocity":0.3937007874015748},{"duration":0.1875,"midi":64,"time":39,"velocity":0.3937007874015748},{"duration":0.1875,"midi":64,"time":39.75,"velocity":0.3937007874015748},{"duration":0.1875,"midi":64,"time":40.5,"velocity":0.3937007874015748},{"duration":0.46875,"midi":52,"time":40.5,"velocity":0.3937007874015748},{"duration":0.46875,"midi":48,"time":40.5,"velocity":0.3937007874015748},{"duration":0.1875,"midi":64,"time":41.25,"velocity":0.3937007874015748},{"duration":0.1875,"midi":64,"time":42,"velocity":0.3937007874015748},{"duration":0.5625,"midi":45,"time":42,"velocity":0.3937007874015748},{"duration":0.1875,"midi":64,"time":42.75,"velocity":0.3937007874015748},{"duration":0.375,"midi":52,"time":43.5,"velocity":0.3937007874015748},{"duration":0.375,"midi":48,"time":43.5,"velocity":0.3937007874015748},{"duration":0.1875,"midi":64,"time":43.5,"velocity":0.3937007874015748},{"duration":0.1875,"midi":64,"time":44.25,"velocity":0.3937007874015748},{"duration":0.375,"midi":40,"time":45,"velocity":0.3937007874015748},{"duration":0.75,"midi":64,"time":45,"velocity":0.3937007874015748},{"duration":0.75,"midi":65,"time":45.75,"velocity":0.3937007874015748},{"duration":0.75,"midi":64,"time":46.5,"velocity":0.3937007874015748},{"duration":0.46875,"midi":52,"time":46.5,"velocity":0.3937007874015748},{"duration":0.46875,"midi":48,"time":46.5,"velocity":0.3937007874015748},{"duration":0.75,"midi":63,"time":47.25,"velocity":0.3937007874015748},{"duration":0.375,"midi":64,"time":48,"velocity":0.3937007874015748},{"duration":0.5625,"midi":45,"time":48,"velocity":0.3937007874015748},{"duration":0.1875,"midi":69,"time":49.5,"velocity":0.3937007874015748},{"duration":0.375,"midi":52,"time":49.5,"velocity":0.3937007874015748},{"duration":0.375,"midi":48,"time":49.5,"velocity":0.3937007874015748},{"duration":0.375,"midi":40,"time":51,"velocity":0.3937007874015748},{"duration":1.5,"midi":72,"time":51,"velocity":0.3937007874015748},{"duration":0.46875,"midi":52,"time":52.5,"velocity":0.3937007874015748},{"duration":0.46875,"midi":48,"time":52.5,"velocity":0.3937007874015748},{"duration":0.1875,"midi":74,"time":54,"velocity":0.3937007874015748},{"duration":0.5625,"midi":44,"time":54,"velocity":0.3937007874015748},{"duration":0.1875,"midi":74,"time":54.75,"velocity":0.3937007874015748},{"duration":0.375,"midi":50,"time":55.5,"velocity":0.3937007874015748},{"duration":0.375,"midi":52,"time":55.5,"velocity":0.3937007874015748},{"duration":0.1875,"midi":74,"time":55.5,"velocity":0.3937007874015748},{"duration":0.1875,"midi":74,"time":56.25,"velocity":0.3937007874015748},{"duration":0.375,"midi":40,"time":57,"velocity":0.3937007874015748},{"duration":0.1875,"midi":74,"time":57,"velocity":0.3937007874015748},{"duration":0.1875,"midi":72,"time":57.75,"velocity":0.3937007874015748},{"duration":0.375,"midi":50,"time":58.5,"velocity":0.3937007874015748},{"duration":0.375,"midi":52,"time":58.5,"velocity":0.3937007874015748},{"duration":0.1875,"midi":71,"time":58.5,"velocity":0.3937007874015748},{"duration":0.1875,"midi":74,"time":59.25,"velocity":0.3937007874015748},{"duration":0.1875,"midi":72,"time":60,"velocity":0.3937007874015748},{"duration":0.5625,"midi":45,"time":60,"velocity":0.3937007874015748},{"duration":0.1875,"midi":72,"time":60.75,"velocity":0.3937007874015748},{"duration":0.375,"midi":52,"time":61.5,"velocity":0.3937007874015748},{"duration":0.375,"midi":48,"time":61.5,"velocity":0.3937007874015748},{"duration":0.1875,"midi":72,"time":61.5,"velocity":0.3937007874015748},{"duration":0.1875,"midi":72,"time":62.25,"velocity":0.3937007874015748},{"duration":0.1875,"midi":72,"time":63,"velocity":0.3937007874015748},{"duration":0.375,"midi":40,"time":63,"velocity":0.3937007874015748},{"duration":0.1875,"midi":71,"time":63.75,"velocity":0.3937007874015748},{"duration":0.1875,"midi":69,"time":64.5,"velocity":0.3937007874015748},{"duration":0.375,"midi":52,"time":64.5,"velocity":0.3937007874015748},{"duration":0.375,"midi":48,"time":64.5,"velocity":0.3937007874015748},{"duration":0.1875,"midi":72,"time":65.25,"velocity":0.3937007874015748},{"duration":0.375,"midi":47,"time":66,"velocity":0.3937007874015748},{"duration":0.1875,"midi":71,"time":66,"velocity":0.3937007874015748},{"duration":0.1875,"midi":71,"time":66.75,"velocity":0.3937007874015748},{"duration":0.1875,"midi":71,"time":67.5,"velocity":0.3937007874015748},{"duration":0.375,"midi":59,"time":67.5,"velocity":0.3937007874015748},{"duration":0.375,"midi":51,"time":67.5,"velocity":0.3937007874015748},{"duration":0.1875,"midi":71,"time":68.25,"velocity":0.3937007874015748},{"duration":0.375,"midi":42,"time":69,"velocity":0.3937007874015748},{"duration":0.1875,"midi":66,"time":69,"velocity":0.3937007874015748},{"duration":0.375,"midi":51,"time":70.5,"velocity":0.3937007874015748},{"duration":0.375,"midi":59,"time":70.5,"velocity":0.3937007874015748},{"duration":0.1875,"midi":71,"time":70.5,"velocity":0.3937007874015748},{"duration":0.375,"midi":68,"time":72,"velocity":0.3937007874015748},{"duration":0.375,"midi":52,"time":72,"velocity":0.3937007874015748},{"duration":0.375,"midi":47,"time":72,"velocity":0.3937007874015748},{"duration":0.375,"midi":56,"time":72,"velocity":0.3937007874015748},{"duration":2.8125,"midi":28,"time":75,"velocity":0.3937007874015748},{"duration":2.8125,"midi":40,"time":75,"velocity":0.3937007874015748},{"duration":3,"midi":52,"time":75,"velocity":0.3937007874015748},{"duration":0.375,"midi":42,"time":77.625,"velocity":0.3937007874015748},{"duration":0.375,"midi":30,"time":77.625,"velocity":0.3937007874015748},{"duration":0.375,"midi":32,"time":77.8125,"velocity":0.3937007874015748},{"duration":0.375,"midi":44,"time":77.8125,"velocity":0.3937007874015748},{"duration":1.5,"midi":45,"time":78,"velocity":0.3937007874015748},{"duration":1.5,"midi":33,"time":78,"velocity":0.3937007874015748},{"duration":0.1875,"midi":64,"time":78,"velocity":0.3937007874015748},{"duration":0.1875,"midi":64,"time":78.75,"velocity":0.3937007874015748},{"duration":0.375,"midi":52,"time":79.5,"velocity":0.3937007874015748},{"duration":0.375,"midi":48,"time":79.5,"velocity":0.3937007874015748},{"duration":0.1875,"midi":64,"time":79.5,"velocity":0.3937007874015748},{"duration":0.1875,"midi":64,"time":80.25,"velocity":0.3937007874015748},{"duration":0.375,"midi":40,"time":81,"velocity":0.3937007874015748},{"duration":0.1875,"midi":64,"time":81,"velocity":0.3937007874015748},{"duration":0.1875,"midi":64,"time":81.75,"velocity":0.3937007874015748},{"duration":0.375,"midi":48,"time":82.5,"velocity":0.3937007874015748},{"duration":0.1875,"midi":64,"time":82.5,"velocity":0.3937007874015748},{"duration":0.375,"midi":52,"time":82.5,"velocity":0.3937007874015748},{"duration":0.1875,"midi":64,"time":83.25,"velocity":0.3937007874015748},{"duration":0.5625,"midi":45,"time":84,"velocity":0.3937007874015748},{"duration":0.1875,"midi":64,"time":84,"velocity":0.3937007874015748},{"duration":0.1875,"midi":64,"time":84.75,"velocity":0.3937007874015748},{"duration":0.375,"midi":52,"time":85.5,"velocity":0.3937007874015748},{"duration":0.375,"midi":48,"time":85.5,"velocity":0.3937007874015748},{"duration":0.1875,"midi":64,"time":85.5,"velocity":0.3937007874015748},{"duration":0.1875,"midi":64,"time":86.25,"velocity":0.3937007874015748},{"duration":0.1875,"midi":64,"time":87,"velocity":0.3937007874015748},{"duration":0.375,"midi":40,"time":87,"velocity":0.3937007874015748},{"duration":0.1875,"midi":64,"time":87.75,"velocity":0.3937007874015748},{"duration":0.1875,"midi":64,"time":88.5,"velocity":0.3937007874015748},{"duration":0.375,"midi":52,"time":88.5,"velocity":0.3937007874015748},{"duration":0.375,"midi":48,"time":88.5,"velocity":0.3937007874015748},{"duration":0.1875,"midi":64,"time":89.25,"velocity":0.3937007874015748},{"duration":0.375,"midi":45,"time":90,"velocity":0.3937007874015748},{"duration":0.5625,"midi":64,"time":90,"velocity":0.3937007874015748},{"duration":0.75,"midi":65,"time":90.75,"velocity":0.3937007874015748},{"duration":0.5625,"midi":64,"time":91.5,"velocity":0.3937007874015748},{"duration":0.375,"midi":52,"time":91.5,"velocity":0.3937007874015748},{"duration":0.375,"midi":48,"time":91.5,"velocity":0.3937007874015748},{"duration":0.5625,"midi":63,"time":92.25,"velocity":0.3937007874015748},{"duration":0.375,"midi":40,"time":93,"velocity":0.3937007874015748},{"duration":0.5625,"midi":64,"time":93,"velocity":0.3937007874015748},{"duration":0.75,"midi":69,"time":94.5,"velocity":0.3937007874015748},{"duration":0.375,"midi":52,"time":94.5,"velocity":0.3937007874015748},{"duration":0.375,"midi":48,"time":94.5,"velocity":0.3937007874015748},{"duration":0.75,"midi":72,"time":95.25,"velocity":0.3937007874015748},{"duration":0.75,"midi":76,"time":96,"velocity":0.3937007874015748},{"duration":0.375,"midi":45,"time":96,"velocity":0.3937007874015748},{"duration":0.375,"midi":48,"time":97.5,"velocity":0.3937007874015748},{"duration":0.375,"midi":52,"time":97.5,"velocity":0.3937007874015748},{"duration":0.375,"midi":81,"time":97.5,"velocity":0.3937007874015748},{"duration":0.375,"midi":40,"time":99,"velocity":0.3937007874015748},{"duration":2.625,"midi":84,"time":99,"velocity":0.3937007874015748},{"duration":0.375,"midi":52,"time":100.5,"velocity":0.3937007874015748},{"duration":0.375,"midi":48,"time":100.5,"velocity":0.3937007874015748},{"duration":0.1875,"midi":86,"time":102,"velocity":0.3937007874015748},{"duration":0.1875,"midi":50,"time":102,"velocity":0.3937007874015748},{"duration":0.1875,"midi":84,"time":102.375,"velocity":0.3937007874015748},{"duration":0.1875,"midi":53,"time":102.75,"velocity":0.3937007874015748},{"duration":0.1875,"midi":83,"time":102.75,"velocity":0.3937007874015748},{"duration":0.1875,"midi":59,"time":102.75,"velocity":0.3937007874015748},{"duration":0.1875,"midi":86,"time":103.125,"velocity":0.3937007874015748},{"duration":0.1875,"midi":48,"time":103.5,"velocity":0.3937007874015748},{"duration":0.1875,"midi":84,"time":103.5,"velocity":0.3937007874015748},{"duration":0.1875,"midi":83,"time":103.875,"velocity":0.3937007874015748},{"duration":0.1875,"midi":52,"time":104.25,"velocity":0.3937007874015748},{"duration":0.1875,"midi":60,"time":104.25,"velocity":0.3937007874015748},{"duration":0.1875,"midi":81,"time":104.25,"velocity":0.3937007874015748},{"duration":0.1875,"midi":84,"time":104.625,"velocity":0.3937007874015748},{"duration":0.1875,"midi":47,"time":105,"velocity":0.3937007874015748},{"duration":0.1875,"midi":83,"time":105,"velocity":0.3937007874015748},{"duration":0.1875,"midi":81,"time":105.375,"velocity":0.3937007874015748},{"duration":0.1875,"midi":56,"time":105.75,"velocity":0.3937007874015748},{"duration":0.1875,"midi":50,"time":105.75,"velocity":0.3937007874015748},{"duration":0.1875,"midi":80,"time":105.75,"velocity":0.3937007874015748},{"duration":0.1875,"midi":83,"time":106.125,"velocity":0.3937007874015748},{"duration":0.1875,"midi":81,"time":106.5,"velocity":0.3937007874015748},{"duration":0.1875,"midi":45,"time":106.5,"velocity":0.3937007874015748},{"duration":0.1875,"midi":76,"time":106.875,"velocity":0.3937007874015748},{"duration":0.1875,"midi":72,"time":107.25,"velocity":0.3937007874015748},{"duration":0.1875,"midi":48,"time":107.25,"velocity":0.3937007874015748},{"duration":0.1875,"midi":57,"time":107.25,"velocity":0.3937007874015748},{"duration":0.1875,"midi":69,"time":107.625,"velocity":0.3937007874015748},{"duration":0.1875,"midi":40,"time":108,"velocity":0.3937007874015748},{"duration":0.1875,"midi":77,"time":108,"velocity":0.3937007874015748},{"duration":0.1875,"midi":52,"time":108,"velocity":0.3937007874015748},{"duration":0.1875,"midi":76,"time":108.375,"velocity":0.3937007874015748},{"duration":0.1875,"midi":54,"time":108.75,"velocity":0.3937007874015748},{"duration":0.1875,"midi":42,"time":108.75,"velocity":0.3937007874015748},{"duration":0.1875,"midi":74,"time":108.75,"velocity":0.3937007874015748},{"duration":0.1875,"midi":72,"time":109.125,"velocity":0.3937007874015748},{"duration":0.1875,"midi":44,"time":109.5,"velocity":0.3937007874015748},{"duration":0.1875,"midi":56,"time":109.5,"velocity":0.3937007874015748},{"duration":0.1875,"midi":71,"time":109.5,"velocity":0.3937007874015748},{"duration":0.1875,"midi":69,"time":109.875,"velocity":0.3937007874015748},{"duration":0.1875,"midi":68,"time":110.25,"velocity":0.3937007874015748},{"duration":0.1875,"midi":40,"time":110.25,"velocity":0.3937007874015748},{"duration":0.1875,"midi":52,"time":110.25,"velocity":0.3937007874015748},{"duration":0.1875,"midi":71,"time":110.625,"velocity":0.3937007874015748},{"duration":0.1875,"midi":69,"time":111,"velocity":0.3937007874015748},{"duration":0.1875,"midi":45,"time":111,"velocity":0.3937007874015748},{"duration":0.1875,"midi":57,"time":111,"velocity":0.3937007874015748},{"duration":1.40625,"midi":28,"time":112.5,"velocity":0.3937007874015748},{"duration":1.40625,"midi":40,"time":112.5,"velocity":0.3937007874015748},{"duration":0.1875,"midi":30,"time":113.8125,"velocity":0.3937007874015748},{"duration":0.1875,"midi":42,"time":113.8125,"velocity":0.3937007874015748},{"duration":0.1875,"midi":44,"time":113.90625,"velocity":0.3937007874015748},{"duration":0.1875,"midi":32,"time":113.90625,"velocity":0.3937007874015748},{"duration":0.75,"midi":33,"time":114,"velocity":0.3937007874015748},{"duration":0.1875,"midi":64,"time":114,"velocity":0.3937007874015748},{"duration":0.75,"midi":45,"time":114,"velocity":0.3937007874015748},{"duration":0.1875,"midi":64,"time":114.375,"velocity":0.3937007874015748},{"duration":0.1875,"midi":64,"time":114.75,"velocity":0.3937007874015748},{"duration":0.1875,"midi":52,"time":114.75,"velocity":0.3937007874015748},{"duration":0.1875,"midi":48,"time":114.75,"velocity":0.3937007874015748},{"duration":0.1875,"midi":64,"time":115.125,"velocity":0.3937007874015748},{"duration":0.1875,"midi":64,"time":115.5,"velocity":0.3937007874015748},{"duration":0.375,"midi":40,"time":115.5,"velocity":0.3937007874015748},{"duration":0.1875,"midi":64,"time":115.875,"velocity":0.3937007874015748},{"duration":0.1875,"midi":48,"time":116.25,"velocity":0.3937007874015748},{"duration":0.1875,"midi":52,"time":116.25,"velocity":0.3937007874015748},{"duration":0.1875,"midi":64,"time":116.25,"velocity":0.3937007874015748},{"duration":0.1875,"midi":64,"time":116.625,"velocity":0.3937007874015748},{"duration":0.375,"midi":45,"time":117,"velocity":0.3937007874015748},{"duration":0.1875,"midi":64,"time":117,"velocity":0.3937007874015748},{"duration":0.1875,"midi":64,"time":117.375,"velocity":0.3937007874015748},{"duration":0.1875,"midi":48,"time":117.75,"velocity":0.3937007874015748},{"duration":0.1875,"midi":52,"time":117.75,"velocity":0.3937007874015748},{"duration":0.1875,"midi":64,"time":117.75,"velocity":0.3937007874015748},{"duration":0.1875,"midi":64,"time":118.125,"velocity":0.3937007874015748},{"duration":0.1875,"midi":64,"time":118.5,"velocity":0.3937007874015748},{"duration":0.375,"midi":40,"time":118.5,"velocity":0.3937007874015748},{"duration":0.1875,"midi":64,"time":118.875,"velocity":0.3937007874015748},{"duration":0.1875,"midi":52,"time":119.25,"velocity":0.3937007874015748},{"duration":0.1875,"midi":64,"time":119.25,"velocity":0.3937007874015748},{"duration":0.1875,"midi":48,"time":119.25,"velocity":0.3937007874015748},{"duration":0.1875,"midi":64,"time":119.625,"velocity":0.3937007874015748},{"duration":0.375,"midi":45,"time":120,"velocity":0.3937007874015748},{"duration":0.1875,"midi":64,"time":120,"velocity":0.3937007874015748},{"duration":0.1875,"midi":64,"time":120.375,"velocity":0.3937007874015748},{"duration":0.1875,"midi":52,"time":120.75,"velocity":0.3937007874015748},{"duration":0.1875,"midi":64,"time":120.75,"velocity":0.3937007874015748},{"duration":0.1875,"midi":48,"time":120.75,"velocity":0.3937007874015748},{"duration":0.1875,"midi":64,"time":121.125,"velocity":0.3937007874015748},{"duration":0.28125,"midi":64,"time":121.5,"velocity":0.3937007874015748},{"duration":0.375,"midi":40,"time":121.5,"velocity":0.3937007874015748},{"duration":0.375,"midi":65,"time":121.875,"velocity":0.3937007874015748},{"duration":0.1875,"midi":52,"time":122.25,"velocity":0.3937007874015748},{"duration":0.1875,"midi":48,"time":122.25,"velocity":0.3937007874015748},{"duration":0.28125,"midi":64,"time":122.25,"velocity":0.3937007874015748},{"duration":0.28125,"midi":63,"time":122.625,"velocity":0.3937007874015748},{"duration":0.375,"midi":45,"time":123,"velocity":0.3937007874015748},{"duration":0.28125,"midi":64,"time":123,"velocity":0.3937007874015748},{"duration":0.1875,"midi":52,"time":123.75,"velocity":0.3937007874015748},{"duration":0.1875,"midi":69,"time":123.75,"velocity":0.3937007874015748},{"duration":0.1875,"midi":48,"time":123.75,"velocity":0.3937007874015748},{"duration":0.375,"midi":40,"time":124.5,"velocity":0.3937007874015748},{"duration":1.21875,"midi":72,"time":124.5,"velocity":0.3937007874015748},{"duration":0.1875,"midi":48,"time":125.25,"velocity":0.3937007874015748},{"duration":0.1875,"midi":52,"time":125.25,"velocity":0.3937007874015748},{"duration":0.1875,"midi":74,"time":126,"velocity":0.3937007874015748},{"duration":0.375,"midi":44,"time":126,"velocity":0.3937007874015748},{"duration":0.1875,"midi":74,"time":126.375,"velocity":0.3937007874015748},{"duration":0.1875,"midi":50,"time":126.75,"velocity":0.3937007874015748},{"duration":0.1875,"midi":74,"time":126.75,"velocity":0.3937007874015748},{"duration":0.1875,"midi":52,"time":126.75,"velocity":0.3937007874015748},{"duration":0.1875,"midi":74,"time":127.125,"velocity":0.3937007874015748},{"duration":0.1875,"midi":74,"time":127.5,"velocity":0.3937007874015748},{"duration":0.375,"midi":40,"time":127.5,"velocity":0.3937007874015748},{"duration":0.1875,"midi":72,"time":127.875,"velocity":0.3937007874015748},{"duration":0.1875,"midi":52,"time":128.25,"velocity":0.3937007874015748},{"duration":0.1875,"midi":71,"time":128.25,"velocity":0.3937007874015748},{"duration":0.1875,"midi":50,"time":128.25,"velocity":0.3937007874015748},{"duration":0.1875,"midi":74,"time":128.625,"velocity":0.3937007874015748},{"duration":0.375,"midi":45,"time":129,"velocity":0.3937007874015748},{"duration":0.1875,"midi":72,"time":129,"velocity":0.3937007874015748},{"duration":0.1875,"midi":72,"time":129.375,"velocity":0.3937007874015748},{"duration":0.1875,"midi":72,"time":129.75,"velocity":0.3937007874015748},{"duration":0.1875,"midi":52,"time":129.75,"velocity":0.3937007874015748},{"duration":0.1875,"midi":48,"time":129.75,"velocity":0.3937007874015748},{"duration":0.1875,"midi":72,"time":130.125,"velocity":0.3937007874015748},{"duration":0.1875,"midi":72,"time":130.5,"velocity":0.3937007874015748},{"duration":0.375,"midi":40,"time":130.5,"velocity":0.3937007874015748},{"duration":0.1875,"midi":71,"time":130.875,"velocity":0.3937007874015748},{"duration":0.1875,"midi":48,"time":131.25,"velocity":0.3937007874015748},{"duration":0.1875,"midi":52,"time":131.25,"velocity":0.3937007874015748},{"duration":0.1875,"midi":69,"time":131.25,"velocity":0.3937007874015748},{"duration":0.1875,"midi":72,"time":131.625,"velocity":0.3937007874015748},{"duration":0.1875,"midi":71,"time":132,"velocity":0.3937007874015748},{"duration":0.375,"midi":47,"time":132,"velocity":0.3937007874015748},{"duration":0.1875,"midi":71,"time":132.375,"velocity":0.3937007874015748},{"duration":0.1875,"midi":71,"time":132.75,"velocity":0.3937007874015748},{"duration":0.1875,"midi":47,"time":132.75,"velocity":0.3937007874015748},{"duration":0.1875,"midi":51,"time":132.75,"velocity":0.3937007874015748},{"duration":0.1875,"midi":71,"time":133.125,"velocity":0.3937007874015748},{"duration":0.375,"midi":66,"time":133.5,"velocity":0.3937007874015748},{"duration":0.375,"midi":42,"time":133.5,"velocity":0.3937007874015748},{"duration":0.1875,"midi":51,"time":134.25,"velocity":0.3937007874015748},{"duration":0.375,"midi":71,"time":134.25,"velocity":0.3937007874015748},{"duration":0.1875,"midi":47,"time":134.25,"velocity":0.3937007874015748},{"duration":0.375,"midi":52,"time":135,"velocity":0.3937007874015748},{"duration":0.375,"midi":47,"time":135,"velocity":0.3937007874015748},{"duration":0.375,"midi":56,"time":135,"velocity":0.3937007874015748},{"duration":0.375,"midi":68,"time":135,"velocity":0.3937007874015748},{"duration":1.40625,"midi":28,"time":136.5,"velocity":0.3937007874015748},{"duration":1.40625,"midi":40,"time":136.5,"velocity":0.3937007874015748},{"duration":1.5,"midi":52,"time":136.5,"velocity":0.3937007874015748},{"duration":0.1875,"midi":30,"time":137.8125,"velocity":0.3937007874015748},{"duration":0.1875,"midi":42,"time":137.8125,"velocity":0.3937007874015748},{"duration":0.1875,"midi":32,"time":137.90625,"velocity":0.3937007874015748},{"duration":0.1875,"midi":44,"time":137.90625,"velocity":0.3937007874015748},{"duration":0.1875,"midi":64,"time":138,"velocity":0.3937007874015748},{"duration":0.75,"midi":45,"time":138,"velocity":0.3937007874015748},{"duration":0.75,"midi":33,"time":138,"velocity":0.3937007874015748},{"duration":0.1875,"midi":64,"time":138.375,"velocity":0.3937007874015748},{"duration":0.375,"midi":48,"time":138.75,"velocity":0.3937007874015748},{"duration":0.1875,"midi":64,"time":138.75,"velocity":0.3937007874015748},{"duration":0.375,"midi":52,"time":138.75,"velocity":0.3937007874015748},{"duration":0.1875,"midi":64,"time":139.125,"velocity":0.3937007874015748},{"duration":0.1875,"midi":64,"time":139.5,"velocity":0.3937007874015748},{"duration":0.375,"midi":40,"time":139.5,"velocity":0.3937007874015748},{"duration":0.1875,"midi":64,"time":139.875,"velocity":0.3937007874015748},{"duration":0.375,"midi":52,"time":140.25,"velocity":0.3937007874015748},{"duration":0.375,"midi":48,"time":140.25,"velocity":0.3937007874015748},{"duration":0.1875,"midi":64,"time":140.25,"velocity":0.3937007874015748},{"duration":0.1875,"midi":64,"time":140.625,"velocity":0.3937007874015748},{"duration":0.1875,"midi":64,"time":141,"velocity":0.3937007874015748},{"duration":0.375,"midi":45,"time":141,"velocity":0.3937007874015748},{"duration":0.1875,"midi":64,"time":141.375,"velocity":0.3937007874015748},{"duration":0.375,"midi":48,"time":141.75,"velocity":0.3937007874015748},{"duration":0.375,"midi":52,"time":141.75,"velocity":0.3937007874015748},{"duration":0.1875,"midi":64,"time":141.75,"velocity":0.3937007874015748},{"duration":0.1875,"midi":64,"time":142.125,"velocity":0.3937007874015748},{"duration":0.1875,"midi":64,"time":142.5,"velocity":0.3937007874015748},{"duration":0.375,"midi":40,"time":142.5,"velocity":0.3937007874015748},{"duration":0.1875,"midi":64,"time":142.875,"velocity":0.3937007874015748},{"duration":0.375,"midi":48,"time":143.25,"velocity":0.3937007874015748},{"duration":0.375,"midi":52,"time":143.25,"velocity":0.3937007874015748},{"duration":0.1875,"midi":64,"time":143.25,"velocity":0.3937007874015748},{"duration":0.1875,"midi":64,"time":143.625,"velocity":0.3937007874015748},{"duration":0.1875,"midi":64,"time":144,"velocity":0.3937007874015748},{"duration":0.375,"midi":45,"time":144,"velocity":0.3937007874015748},{"duration":0.1875,"midi":65,"time":144.375,"velocity":0.3937007874015748},{"duration":0.1875,"midi":64,"time":144.75,"velocity":0.3937007874015748},{"duration":0.375,"midi":48,"time":144.75,"velocity":0.3937007874015748},{"duration":0.375,"midi":52,"time":144.75,"velocity":0.3937007874015748},{"duration":0.1875,"midi":63,"time":145.125,"velocity":0.3937007874015748},{"duration":0.1875,"midi":64,"time":145.5,"velocity":0.3937007874015748},{"duration":0.375,"midi":40,"time":145.5,"velocity":0.3937007874015748},{"duration":0.375,"midi":48,"time":146.25,"velocity":0.3937007874015748},{"duration":0.375,"midi":52,"time":146.25,"velocity":0.3937007874015748},{"duration":0.375,"midi":69,"time":146.25,"velocity":0.3937007874015748},{"duration":0.375,"midi":72,"time":146.625,"velocity":0.3937007874015748},{"duration":0.375,"midi":76,"time":147,"velocity":0.3937007874015748},{"duration":0.375,"midi":45,"time":147,"velocity":0.3937007874015748},{"duration":0.1875,"midi":81,"time":147.75,"velocity":0.3937007874015748},{"duration":0.375,"midi":48,"time":147.75,"velocity":0.3937007874015748},{"duration":0.375,"midi":52,"time":147.75,"velocity":0.3937007874015748},{"duration":1.5,"midi":84,"time":148.5,"velocity":0.3937007874015748},{"duration":0.375,"midi":40,"time":148.5,"velocity":0.3937007874015748},{"duration":0.375,"midi":52,"time":149.25,"velocity":0.3937007874015748},{"duration":0.375,"midi":48,"time":149.25,"velocity":0.3937007874015748},{"duration":0.375,"midi":50,"time":150,"velocity":0.3937007874015748},{"duration":0.375,"midi":86,"time":150,"velocity":0.3937007874015748},{"duration":0.375,"midi":84,"time":150.375,"velocity":0.3937007874015748},{"duration":0.1875,"midi":53,"time":150.75,"velocity":0.3937007874015748},{"duration":0.1875,"midi":59,"time":150.75,"velocity":0.3937007874015748},{"duration":0.375,"midi":83,"time":150.75,"velocity":0.3937007874015748},{"duration":0.375,"midi":86,"time":151.125,"velocity":0.3937007874015748},{"duration":0.375,"midi":84,"time":151.5,"velocity":0.3937007874015748},{"duration":0.375,"midi":48,"time":151.5,"velocity":0.3937007874015748},{"duration":0.375,"midi":83,"time":151.875,"velocity":0.3937007874015748},{"duration":0.375,"midi":81,"time":152.25,"velocity":0.3937007874015748},{"duration":0.1875,"midi":52,"time":152.25,"velocity":0.3937007874015748},{"duration":0.1875,"midi":60,"time":152.25,"velocity":0.3937007874015748},{"duration":0.375,"midi":84,"time":152.625,"velocity":0.3937007874015748},{"duration":0.375,"midi":47,"time":153,"velocity":0.3937007874015748},{"duration":0.375,"midi":83,"time":153,"velocity":0.3937007874015748},{"duration":0.375,"midi":81,"time":153.375,"velocity":0.3937007874015748},{"duration":0.1875,"midi":56,"time":153.75,"velocity":0.3937007874015748},{"duration":0.375,"midi":80,"time":153.75,"velocity":0.3937007874015748},{"duration":0.1875,"midi":50,"time":153.75,"velocity":0.3937007874015748},{"duration":0.375,"midi":83,"time":154.125,"velocity":0.3937007874015748},{"duration":0.375,"midi":45,"time":154.5,"velocity":0.3937007874015748},{"duration":0.375,"midi":81,"time":154.5,"velocity":0.3937007874015748},{"duration":0.375,"midi":76,"time":154.875,"velocity":0.3937007874015748},{"duration":0.1875,"midi":57,"time":155.25,"velocity":0.3937007874015748},{"duration":0.375,"midi":72,"time":155.25,"velocity":0.3937007874015748},{"duration":0.1875,"midi":48,"time":155.25,"velocity":0.3937007874015748},{"duration":0.375,"midi":69,"time":155.625,"velocity":0.3937007874015748},{"duration":0.1875,"midi":52,"time":156,"velocity":0.3937007874015748},{"duration":0.1875,"midi":40,"time":156,"velocity":0.3937007874015748},{"duration":0.375,"midi":77,"time":156,"velocity":0.3937007874015748},{"duration":0.375,"midi":76,"time":156.375,"velocity":0.3937007874015748},{"duration":0.375,"midi":74,"time":156.75,"velocity":0.3937007874015748},{"duration":0.1875,"midi":42,"time":156.75,"velocity":0.3937007874015748},{"duration":0.1875,"midi":54,"time":156.75,"velocity":0.3937007874015748},{"duration":0.375,"midi":72,"time":157.125,"velocity":0.3937007874015748},{"duration":0.375,"midi":71,"time":157.5,"velocity":0.3937007874015748},{"duration":0.1875,"midi":56,"time":157.5,"velocity":0.3937007874015748},{"duration":0.1875,"midi":44,"time":157.5,"velocity":0.3937007874015748},{"duration":0.375,"midi":69,"time":157.875,"velocity":0.3937007874015748},{"duration":0.1875,"midi":52,"time":158.25,"velocity":0.3937007874015748},{"duration":0.1875,"midi":40,"time":158.25,"velocity":0.3937007874015748},{"duration":0.375,"midi":68,"time":158.25,"velocity":0.3937007874015748},{"duration":0.375,"midi":71,"time":158.625,"velocity":0.3937007874015748},{"duration":0.1875,"midi":57,"time":159,"velocity":0.3937007874015748},{"duration":0.375,"midi":69,"time":159,"velocity":0.3937007874015748},{"duration":0.1875,"midi":45,"time":159,"velocity":0.3937007874015748},{"duration":1.40625,"midi":45,"time":160.5,"velocity":0.3937007874015748},{"duration":1.40625,"midi":33,"time":160.5,"velocity":0.3937007874015748},{"duration":0.1875,"midi":47,"time":161.8125,"velocity":0.3937007874015748},{"duration":0.1875,"midi":35,"time":161.8125,"velocity":0.3937007874015748},{"duration":0.1875,"midi":37,"time":161.90625,"velocity":0.3937007874015748},{"duration":0.1875,"midi":49,"time":161.90625,"velocity":0.3937007874015748},{"duration":1.125,"midi":74,"time":162,"velocity":0.3937007874015748},{"duration":0.75,"midi":38,"time":162,"velocity":0.3937007874015748},{"duration":0.75,"midi":50,"time":162,"velocity":0.3937007874015748},{"duration":0.375,"midi":57,"time":162.75,"velocity":0.3937007874015748},{"duration":0.375,"midi":53,"time":162.75,"velocity":0.3937007874015748},{"duration":0.1875,"midi":73,"time":163.125,"velocity":0.3937007874015748},{"duration":0.1875,"midi":74,"time":163.5,"velocity":0.3937007874015748},{"duration":0.375,"midi":45,"time":163.5,"velocity":0.3937007874015748},{"duration":0.375,"midi":57,"time":164.25,"velocity":0.3937007874015748},{"duration":0.1875,"midi":76,"time":164.25,"velocity":0.3937007874015748},{"duration":0.375,"midi":53,"time":164.25,"velocity":0.3937007874015748},{"duration":0.1875,"midi":77,"time":165,"velocity":0.3937007874015748},{"duration":0.5625,"midi":50,"time":165,"velocity":0.3937007874015748},{"duration":0.375,"midi":53,"time":165.75,"velocity":0.3937007874015748},{"duration":0.1875,"midi":76,"time":165.75,"velocity":0.3937007874015748},{"duration":0.375,"midi":57,"time":165.75,"velocity":0.3937007874015748},{"duration":0.1875,"midi":74,"time":166.5,"velocity":0.3937007874015748},{"duration":0.375,"midi":45,"time":166.5,"velocity":0.3937007874015748},{"duration":0.375,"midi":53,"time":167.25,"velocity":0.3937007874015748},{"duration":0.1875,"midi":77,"time":167.25,"velocity":0.3937007874015748},{"duration":0.375,"midi":57,"time":167.25,"velocity":0.3937007874015748},{"duration":0.5625,"midi":48,"time":168,"velocity":0.3937007874015748},{"duration":0.9375,"midi":76,"time":168,"velocity":0.3937007874015748},{"duration":0.375,"midi":57,"time":168.75,"velocity":0.3937007874015748},{"duration":0.375,"midi":52,"time":168.75,"velocity":0.3937007874015748},{"duration":0.1875,"midi":74,"time":169.125,"velocity":0.3937007874015748},{"duration":0.375,"midi":45,"time":169.5,"velocity":0.3937007874015748},{"duration":0.1875,"midi":72,"time":169.5,"velocity":0.3937007874015748},{"duration":0.1875,"midi":74,"time":170.25,"velocity":0.3937007874015748},{"duration":0.375,"midi":57,"time":170.25,"velocity":0.3937007874015748},{"duration":0.375,"midi":52,"time":170.25,"velocity":0.3937007874015748},{"duration":1.875,"midi":76,"time":171,"velocity":0.3937007874015748},{"duration":0.5625,"midi":48,"time":171,"velocity":0.3937007874015748},{"duration":0.375,"midi":57,"time":171.75,"velocity":0.3937007874015748},{"duration":0.375,"midi":52,"time":171.75,"velocity":0.3937007874015748},{"duration":0.375,"midi":45,"time":172.5,"velocity":0.3937007874015748},{"duration":0.375,"midi":52,"time":173.25,"velocity":0.3937007874015748},{"duration":0.375,"midi":57,"time":173.25,"velocity":0.3937007874015748},{"duration":0.1875,"midi":72,"time":173.25,"velocity":0.3937007874015748},{"duration":0.9375,"midi":71,"time":174,"velocity":0.3937007874015748},{"duration":0.5625,"midi":47,"time":174,"velocity":0.3937007874015748},{"duration":0.375,"midi":56,"time":174.75,"velocity":0.3937007874015748},{"duration":0.375,"midi":50,"time":174.75,"velocity":0.3937007874015748},{"duration":0.1875,"midi":70,"time":175.125,"velocity":0.3937007874015748},{"duration":0.1875,"midi":71,"time":175.5,"velocity":0.3937007874015748},{"duration":0.375,"midi":40,"time":175.5,"velocity":0.3937007874015748},{"duration":0.375,"midi":56,"time":176.25,"velocity":0.3937007874015748},{"duration":0.375,"midi":50,"time":176.25,"velocity":0.3937007874015748},{"duration":0.1875,"midi":72,"time":176.25,"velocity":0.3937007874015748},{"duration":0.5625,"midi":47,"time":177,"velocity":0.3937007874015748},{"duration":0.1875,"midi":74,"time":177,"velocity":0.3937007874015748},{"duration":0.375,"midi":56,"time":177.75,"velocity":0.3937007874015748},{"duration":0.1875,"midi":72,"time":177.75,"velocity":0.3937007874015748},{"duration":0.375,"midi":50,"time":177.75,"velocity":0.3937007874015748},{"duration":0.375,"midi":40,"time":178.5,"velocity":0.3937007874015748},{"duration":0.1875,"midi":71,"time":178.5,"velocity":0.3937007874015748},{"duration":0.1875,"midi":74,"time":179.25,"velocity":0.3937007874015748},{"duration":0.375,"midi":56,"time":179.25,"velocity":0.3937007874015748},{"duration":0.375,"midi":50,"time":179.25,"velocity":0.3937007874015748},{"duration":0.375,"midi":48,"time":180,"velocity":0.3937007874015748},{"duration":0.1875,"midi":72,"time":180,"velocity":0.3937007874015748},{"duration":0.375,"midi":36,"time":180,"velocity":0.3937007874015748},{"duration":0.1875,"midi":69,"time":180.75,"velocity":0.3937007874015748},{"duration":0.375,"midi":45,"time":180.75,"velocity":0.3937007874015748},{"duration":0.375,"midi":33,"time":180.75,"velocity":0.3937007874015748},{"duration":0.375,"midi":36,"time":181.5,"velocity":0.3937007874015748},{"duration":0.1875,"midi":72,"time":181.5,"velocity":0.3937007874015748},{"duration":0.375,"midi":48,"time":181.5,"velocity":0.3937007874015748},{"duration":0.375,"midi":52,"time":182.25,"velocity":0.3937007874015748},{"duration":0.375,"midi":40,"time":182.25,"velocity":0.3937007874015748},{"duration":0.1875,"midi":76,"time":182.25,"velocity":0.3937007874015748},{"duration":0.1875,"midi":81,"time":183,"velocity":0.3937007874015748},{"duration":0.375,"midi":57,"time":183,"velocity":0.3937007874015748},{"duration":0.375,"midi":45,"time":183,"velocity":0.3937007874015748},{"duration":0.1875,"midi":76,"time":183.75,"velocity":0.3937007874015748},{"duration":1.5,"midi":33,"time":184.5,"velocity":0.3937007874015748},{"duration":1.5,"midi":45,"time":184.5,"velocity":0.3937007874015748},{"duration":0.1875,"midi":72,"time":184.5,"velocity":0.3937007874015748},{"duration":0.1875,"midi":69,"time":185.25,"velocity":0.3937007874015748},{"duration":1.125,"midi":74,"time":186,"velocity":0.3937007874015748},{"duration":0.75,"midi":50,"time":186,"velocity":0.3937007874015748},{"duration":0.375,"midi":53,"time":186.75,"velocity":0.3937007874015748},{"duration":0.375,"midi":57,"time":186.75,"velocity":0.3937007874015748},{"duration":0.1875,"midi":73,"time":187.125,"velocity":0.3937007874015748},{"duration":0.1875,"midi":74,"time":187.5,"velocity":0.3937007874015748},{"duration":0.375,"midi":45,"time":187.5,"velocity":0.3937007874015748},{"duration":0.1875,"midi":76,"time":188.25,"velocity":0.3937007874015748},{"duration":0.375,"midi":57,"time":188.25,"velocity":0.3937007874015748},{"duration":0.375,"midi":53,"time":188.25,"velocity":0.3937007874015748},{"duration":0.1875,"midi":77,"time":189,"velocity":0.3937007874015748},{"duration":0.5625,"midi":50,"time":189,"velocity":0.3937007874015748},{"duration":0.375,"midi":57,"time":189.75,"velocity":0.3937007874015748},{"duration":0.375,"midi":53,"time":189.75,"velocity":0.3937007874015748},{"duration":0.1875,"midi":76,"time":189.75,"velocity":0.3937007874015748},{"duration":0.375,"midi":45,"time":190.5,"velocity":0.3937007874015748},{"duration":0.1875,"midi":74,"time":190.5,"velocity":0.3937007874015748},{"duration":0.375,"midi":57,"time":191.25,"velocity":0.3937007874015748},{"duration":0.375,"midi":53,"time":191.25,"velocity":0.3937007874015748},{"duration":0.1875,"midi":77,"time":191.25,"velocity":0.3937007874015748},{"duration":0.5625,"midi":48,"time":192,"velocity":0.3937007874015748},{"duration":0.9375,"midi":76,"time":192,"velocity":0.3937007874015748},{"duration":0.375,"midi":57,"time":192.75,"velocity":0.3937007874015748},{"duration":0.375,"midi":52,"time":192.75,"velocity":0.3937007874015748},{"duration":0.1875,"midi":74,"time":193.125,"velocity":0.3937007874015748},{"duration":0.375,"midi":45,"time":193.5,"velocity":0.3937007874015748},{"duration":0.1875,"midi":72,"time":193.5,"velocity":0.3937007874015748},{"duration":0.375,"midi":57,"time":194.25,"velocity":0.3937007874015748},{"duration":0.1875,"midi":74,"time":194.25,"velocity":0.3937007874015748},{"duration":0.375,"midi":52,"time":194.25,"velocity":0.3937007874015748},{"duration":0.5625,"midi":48,"time":195,"velocity":0.3937007874015748},{"duration":0.5625,"midi":76,"time":195,"velocity":0.3937007874015748},{"duration":0.375,"midi":52,"time":195.75,"velocity":0.3937007874015748},{"duration":0.375,"midi":57,"time":195.75,"velocity":0.3937007874015748},{"duration":1.5,"midi":81,"time":196.5,"velocity":0.3937007874015748},{"duration":0.375,"midi":45,"time":196.5,"velocity":0.3937007874015748},{"duration":0.375,"midi":52,"time":197.25,"velocity":0.3937007874015748},{"duration":0.375,"midi":57,"time":197.25,"velocity":0.3937007874015748},{"duration":0.5625,"midi":47,"time":198,"velocity":0.3937007874015748},{"duration":0.375,"midi":53,"time":198.75,"velocity":0.3937007874015748},{"duration":0.375,"midi":57,"time":198.75,"velocity":0.3937007874015748},{"duration":1.125,"midi":74,"time":198.75,"velocity":0.3937007874015748},{"duration":0.375,"midi":50,"time":199.5,"velocity":0.3937007874015748},{"duration":0.375,"midi":57,"time":200.25,"velocity":0.3937007874015748},{"duration":0.1875,"midi":77,"time":200.25,"velocity":0.3937007874015748},{"duration":0.375,"midi":53,"time":200.25,"velocity":0.3937007874015748},{"duration":0.1875,"midi":76,"time":201,"velocity":0.3937007874015748},{"duration":0.375,"midi":52,"time":201,"velocity":0.3937007874015748},{"duration":0.375,"midi":40,"time":201,"velocity":0.3937007874015748},{"duration":0.375,"midi":56,"time":201,"velocity":0.3937007874015748},{"duration":0.375,"midi":36,"time":201.75,"velocity":0.3937007874015748},{"duration":0.375,"midi":48,"time":201.75,"velocity":0.3937007874015748},{"duration":0.1875,"midi":72,"time":201.75,"velocity":0.3937007874015748},{"duration":0.375,"midi":38,"time":202.5,"velocity":0.3937007874015748},{"duration":0.375,"midi":50,"time":202.5,"velocity":0.3937007874015748},{"duration":0.1875,"midi":74,"time":202.5,"velocity":0.3937007874015748},{"duration":0.1875,"midi":71,"time":203.25,"velocity":0.3937007874015748},{"duration":0.375,"midi":47,"time":203.25,"velocity":0.3937007874015748},{"duration":0.375,"midi":35,"time":203.25,"velocity":0.3937007874015748},{"duration":0.375,"midi":45,"time":204,"velocity":0.3937007874015748},{"duration":0.1875,"midi":69,"time":204,"velocity":0.3937007874015748},{"duration":0.375,"midi":33,"time":204,"velocity":0.3937007874015748},{"duration":0.375,"midi":56,"time":206.25,"velocity":0.3937007874015748},{"duration":0.375,"midi":28,"time":206.25,"velocity":0.3937007874015748},{"duration":0.375,"midi":59,"time":206.25,"velocity":0.3937007874015748},{"duration":0.375,"midi":40,"time":206.25,"velocity":0.3937007874015748},{"duration":0.375,"midi":52,"time":206.25,"velocity":0.3937007874015748},{"duration":0.1875,"midi":76,"time":206.25,"velocity":0.3937007874015748},{"duration":0.375,"midi":33,"time":207,"velocity":0.3937007874015748},{"duration":0.375,"midi":45,"time":207,"velocity":0.3937007874015748},{"duration":0.375,"midi":52,"time":207,"velocity":0.3937007874015748},{"duration":0.375,"midi":60,"time":207,"velocity":0.3937007874015748},{"duration":0.375,"midi":57,"time":207,"velocity":0.3937007874015748},{"duration":0.1875,"midi":81,"time":207,"velocity":0.3937007874015748},{"duration":1.40625,"midi":28,"time":208.5,"velocity":0.3937007874015748},{"duration":1.40625,"midi":40,"time":208.5,"velocity":0.3937007874015748},{"duration":0.1875,"midi":30,"time":209.8125,"velocity":0.3937007874015748},{"duration":0.1875,"midi":42,"time":209.8125,"velocity":0.3937007874015748},{"duration":0.1875,"midi":32,"time":209.90625,"velocity":0.3937007874015748},{"duration":0.1875,"midi":44,"time":209.90625,"velocity":0.3937007874015748},{"duration":0.1875,"midi":64,"time":210,"velocity":0.3937007874015748},{"duration":0.1875,"midi":76,"time":210,"velocity":0.3937007874015748},{"duration":0.75,"midi":33,"time":210,"velocity":0.3937007874015748},{"duration":0.75,"midi":45,"time":210,"velocity":0.3937007874015748},{"duration":0.1875,"midi":76,"time":210.375,"velocity":0.3937007874015748},{"duration":0.1875,"midi":64,"time":210.375,"velocity":0.3937007874015748},{"duration":0.1875,"midi":52,"time":210.75,"velocity":0.3937007874015748},{"duration":0.1875,"midi":48,"time":210.75,"velocity":0.3937007874015748},{"duration":0.1875,"midi":64,"time":210.75,"velocity":0.3937007874015748},{"duration":0.1875,"midi":76,"time":210.75,"velocity":0.3937007874015748},{"duration":0.1875,"midi":76,"time":211.125,"velocity":0.3937007874015748},{"duration":0.1875,"midi":64,"time":211.125,"velocity":0.3937007874015748},{"duration":0.1875,"midi":40,"time":211.5,"velocity":0.3937007874015748},{"duration":0.1875,"midi":76,"time":211.5,"velocity":0.3937007874015748},{"duration":0.1875,"midi":64,"time":211.5,"velocity":0.3937007874015748},{"duration":0.1875,"midi":64,"time":211.875,"velocity":0.3937007874015748},{"duration":0.1875,"midi":76,"time":211.875,"velocity":0.3937007874015748},{"duration":0.1875,"midi":64,"time":212.25,"velocity":0.3937007874015748},{"duration":0.1875,"midi":48,"time":212.25,"velocity":0.3937007874015748},{"duration":0.1875,"midi":76,"time":212.25,"velocity":0.3937007874015748},{"duration":0.1875,"midi":52,"time":212.25,"velocity":0.3937007874015748},{"duration":0.1875,"midi":64,"time":212.625,"velocity":0.3937007874015748},{"duration":0.1875,"midi":76,"time":212.625,"velocity":0.3937007874015748},{"duration":0.09375,"midi":88,"time":213,"velocity":0.3937007874015748},{"duration":0.1875,"midi":64,"time":213,"velocity":0.3937007874015748},{"duration":0.1875,"midi":45,"time":213,"velocity":0.3937007874015748},{"duration":0.1875,"midi":76,"time":213,"velocity":0.3937007874015748},{"duration":0.09375,"midi":88,"time":213.1875,"velocity":0.3937007874015748},{"duration":0.1875,"midi":76,"time":213.375,"velocity":0.3937007874015748},{"duration":0.1875,"midi":64,"time":213.375,"velocity":0.3937007874015748},{"duration":0.09375,"midi":88,"time":213.375,"velocity":0.3937007874015748},{"duration":0.09375,"midi":88,"time":213.5625,"velocity":0.3937007874015748},{"duration":0.1875,"midi":64,"time":213.75,"velocity":0.3937007874015748},{"duration":0.1875,"midi":76,"time":213.75,"velocity":0.3937007874015748},{"duration":0.1875,"midi":52,"time":213.75,"velocity":0.3937007874015748},{"duration":0.1875,"midi":48,"time":213.75,"velocity":0.3937007874015748},{"duration":0.09375,"midi":88,"time":213.75,"velocity":0.3937007874015748},{"duration":0.09375,"midi":88,"time":213.9375,"velocity":0.3937007874015748},{"duration":0.1875,"midi":64,"time":214.125,"velocity":0.3937007874015748},{"duration":0.09375,"midi":88,"time":214.125,"velocity":0.3937007874015748},{"duration":0.1875,"midi":76,"time":214.125,"velocity":0.3937007874015748},{"duration":0.09375,"midi":88,"time":214.3125,"velocity":0.3937007874015748},{"duration":0.1875,"midi":40,"time":214.5,"velocity":0.3937007874015748},{"duration":0.1875,"midi":64,"time":214.5,"velocity":0.3937007874015748},{"duration":0.1875,"midi":76,"time":214.5,"velocity":0.3937007874015748},{"duration":0.1875,"midi":64,"time":214.875,"velocity":0.3937007874015748},{"duration":0.1875,"midi":76,"time":214.875,"velocity":0.3937007874015748},{"duration":0.1875,"midi":52,"time":215.25,"velocity":0.3937007874015748},{"duration":0.1875,"midi":48,"time":215.25,"velocity":0.3937007874015748},{"duration":0.1875,"midi":64,"time":215.25,"velocity":0.3937007874015748},{"duration":0.1875,"midi":76,"time":215.25,"velocity":0.3937007874015748},{"duration":0.1875,"midi":64,"time":215.625,"velocity":0.3937007874015748},{"duration":0.1875,"midi":76,"time":215.625,"velocity":0.3937007874015748},{"duration":0.1875,"midi":45,"time":216,"velocity":0.3937007874015748},{"duration":0.1875,"midi":64,"time":216,"velocity":0.3937007874015748},{"duration":0.1875,"midi":76,"time":216,"velocity":0.3937007874015748},{"duration":0.1875,"midi":64,"time":216.375,"velocity":0.3937007874015748},{"duration":0.1875,"midi":76,"time":216.375,"velocity":0.3937007874015748},{"duration":0.1875,"midi":76,"time":216.75,"velocity":0.3937007874015748},{"duration":0.1875,"midi":48,"time":216.75,"velocity":0.3937007874015748},{"duration":0.1875,"midi":64,"time":216.75,"velocity":0.3937007874015748},{"duration":0.1875,"midi":52,"time":216.75,"velocity":0.3937007874015748},{"duration":0.1875,"midi":76,"time":217.125,"velocity":0.3937007874015748},{"duration":0.1875,"midi":64,"time":217.125,"velocity":0.3937007874015748},{"duration":0.1875,"midi":40,"time":217.5,"velocity":0.3937007874015748},{"duration":0.1875,"midi":76,"time":217.5,"velocity":0.3937007874015748},{"duration":0.1875,"midi":64,"time":217.5,"velocity":0.3937007874015748},{"duration":0.1875,"midi":65,"time":217.875,"velocity":0.3937007874015748},{"duration":0.1875,"midi":77,"time":217.875,"velocity":0.3937007874015748},{"duration":0.1875,"midi":64,"time":218.25,"velocity":0.3937007874015748},{"duration":0.1875,"midi":76,"time":218.25,"velocity":0.3937007874015748},{"duration":0.1875,"midi":52,"time":218.25,"velocity":0.3937007874015748},{"duration":0.1875,"midi":48,"time":218.25,"velocity":0.3937007874015748},{"duration":0.1875,"midi":63,"time":218.625,"velocity":0.3937007874015748},{"duration":0.1875,"midi":75,"time":218.625,"velocity":0.3937007874015748},{"duration":0.1875,"midi":45,"time":219,"velocity":0.3937007874015748},{"duration":0.1875,"midi":76,"time":219,"velocity":0.3937007874015748},{"duration":0.1875,"midi":64,"time":219,"velocity":0.3937007874015748},{"duration":0.1875,"midi":52,"time":219.75,"velocity":0.3937007874015748},{"duration":0.1875,"midi":81,"time":219.75,"velocity":0.3937007874015748},{"duration":0.1875,"midi":69,"time":219.75,"velocity":0.3937007874015748},{"duration":0.1875,"midi":48,"time":219.75,"velocity":0.3937007874015748},{"duration":0.1875,"midi":40,"time":220.5,"velocity":0.3937007874015748},{"duration":1.125,"midi":72,"time":220.5,"velocity":0.3937007874015748},{"duration":1.125,"midi":84,"time":220.5,"velocity":0.3937007874015748},{"duration":0.1875,"midi":52,"time":221.25,"velocity":0.3937007874015748},{"duration":0.1875,"midi":48,"time":221.25,"velocity":0.3937007874015748},{"duration":0.1875,"midi":44,"time":222,"velocity":0.3937007874015748},{"duration":0.1875,"midi":86,"time":222,"velocity":0.3937007874015748},{"duration":0.1875,"midi":74,"time":222,"velocity":0.3937007874015748},{"duration":0.1875,"midi":74,"time":222.375,"velocity":0.3937007874015748},{"duration":0.1875,"midi":86,"time":222.375,"velocity":0.3937007874015748},{"duration":0.1875,"midi":74,"time":222.75,"velocity":0.3937007874015748},{"duration":0.1875,"midi":52,"time":222.75,"velocity":0.3937007874015748},{"duration":0.1875,"midi":50,"time":222.75,"velocity":0.3937007874015748},{"duration":0.1875,"midi":86,"time":222.75,"velocity":0.3937007874015748},{"duration":0.1875,"midi":74,"time":223.125,"velocity":0.3937007874015748},{"duration":0.1875,"midi":86,"time":223.125,"velocity":0.3937007874015748},{"duration":0.1875,"midi":86,"time":223.5,"velocity":0.3937007874015748},{"duration":0.1875,"midi":40,"time":223.5,"velocity":0.3937007874015748},{"duration":0.1875,"midi":74,"time":223.5,"velocity":0.3937007874015748},{"duration":0.1875,"midi":72,"time":223.875,"velocity":0.3937007874015748},{"duration":0.1875,"midi":84,"time":223.875,"velocity":0.3937007874015748},{"duration":0.1875,"midi":71,"time":224.25,"velocity":0.3937007874015748},{"duration":0.1875,"midi":52,"time":224.25,"velocity":0.3937007874015748},{"duration":0.1875,"midi":83,"time":224.25,"velocity":0.3937007874015748},{"duration":0.1875,"midi":50,"time":224.25,"velocity":0.3937007874015748},{"duration":0.1875,"midi":86,"time":224.625,"velocity":0.3937007874015748},{"duration":0.1875,"midi":74,"time":224.625,"velocity":0.3937007874015748},{"duration":0.1875,"midi":72,"time":225,"velocity":0.3937007874015748},{"duration":0.1875,"midi":45,"time":225,"velocity":0.3937007874015748},{"duration":0.1875,"midi":84,"time":225,"velocity":0.3937007874015748},{"duration":0.1875,"midi":84,"time":225.375,"velocity":0.3937007874015748},{"duration":0.1875,"midi":72,"time":225.375,"velocity":0.3937007874015748},{"duration":0.1875,"midi":72,"time":225.75,"velocity":0.3937007874015748},{"duration":0.1875,"midi":84,"time":225.75,"velocity":0.3937007874015748},{"duration":0.1875,"midi":48,"time":225.75,"velocity":0.3937007874015748},{"duration":0.1875,"midi":52,"time":225.75,"velocity":0.3937007874015748},{"duration":0.1875,"midi":84,"time":226.125,"velocity":0.3937007874015748},{"duration":0.1875,"midi":72,"time":226.125,"velocity":0.3937007874015748},{"duration":0.1875,"midi":72,"time":226.5,"velocity":0.3937007874015748},{"duration":0.1875,"midi":84,"time":226.5,"velocity":0.3937007874015748},{"duration":0.1875,"midi":40,"time":226.5,"velocity":0.3937007874015748},{"duration":0.1875,"midi":83,"time":226.875,"velocity":0.3937007874015748},{"duration":0.1875,"midi":71,"time":226.875,"velocity":0.3937007874015748},{"duration":0.1875,"midi":81,"time":227.25,"velocity":0.3937007874015748},{"duration":0.1875,"midi":69,"time":227.25,"velocity":0.3937007874015748},{"duration":0.1875,"midi":48,"time":227.25,"velocity":0.3937007874015748},{"duration":0.1875,"midi":52,"time":227.25,"velocity":0.3937007874015748},{"duration":0.1875,"midi":72,"time":227.625,"velocity":0.3937007874015748},{"duration":0.1875,"midi":84,"time":227.625,"velocity":0.3937007874015748},{"duration":0.1875,"midi":71,"time":228,"velocity":0.3937007874015748},{"duration":0.1875,"midi":47,"time":228,"velocity":0.3937007874015748},{"duration":0.1875,"midi":83,"time":228,"velocity":0.3937007874015748},{"duration":0.1875,"midi":71,"time":228.375,"velocity":0.3937007874015748},{"duration":0.1875,"midi":83,"time":228.375,"velocity":0.3937007874015748},{"duration":0.1875,"midi":83,"time":228.75,"velocity":0.3937007874015748},{"duration":0.1875,"midi":71,"time":228.75,"velocity":0.3937007874015748},{"duration":0.1875,"midi":59,"time":228.75,"velocity":0.3937007874015748},{"duration":0.1875,"midi":51,"time":228.75,"velocity":0.3937007874015748},{"duration":0.1875,"midi":83,"time":229.125,"velocity":0.3937007874015748},{"duration":0.1875,"midi":71,"time":229.125,"velocity":0.3937007874015748},{"duration":0.1875,"midi":42,"time":229.5,"velocity":0.3937007874015748},{"duration":0.1875,"midi":66,"time":229.5,"velocity":0.3937007874015748},{"duration":0.1875,"midi":78,"time":229.5,"velocity":0.3937007874015748},{"duration":0.1875,"midi":71,"time":230.25,"velocity":0.3937007874015748},{"duration":0.1875,"midi":83,"time":230.25,"velocity":0.3937007874015748},{"duration":0.1875,"midi":59,"time":230.25,"velocity":0.3937007874015748},{"duration":0.1875,"midi":51,"time":230.25,"velocity":0.3937007874015748},{"duration":0.1875,"midi":56,"time":231,"velocity":0.3937007874015748},{"duration":0.1875,"midi":80,"time":231,"velocity":0.3937007874015748},{"duration":0.1875,"midi":68,"time":231,"velocity":0.3937007874015748},{"duration":0.1875,"midi":47,"time":231,"velocity":0.3937007874015748},{"duration":0.1875,"midi":52,"time":231,"velocity":0.3937007874015748},{"duration":1.40625,"midi":28,"time":232.5,"velocity":0.3937007874015748},{"duration":1.40625,"midi":52,"time":232.5,"velocity":0.3937007874015748},{"duration":1.40625,"midi":40,"time":232.5,"velocity":0.3937007874015748},{"duration":0.1875,"midi":42,"time":233.8125,"velocity":0.3937007874015748},{"duration":0.1875,"midi":30,"time":233.8125,"velocity":0.3937007874015748},{"duration":0.1875,"midi":32,"time":233.90625,"velocity":0.3937007874015748},{"duration":0.1875,"midi":44,"time":233.90625,"velocity":0.3937007874015748},{"duration":0.1875,"midi":76,"time":234,"velocity":0.3937007874015748},{"duration":0.75,"midi":45,"time":234,"velocity":0.3937007874015748},{"duration":0.75,"midi":33,"time":234,"velocity":0.3937007874015748},{"duration":0.1875,"midi":64,"time":234,"velocity":0.3937007874015748},{"duration":0.1875,"midi":76,"time":234.375,"velocity":0.3937007874015748},{"duration":0.1875,"midi":64,"time":234.375,"velocity":0.3937007874015748},{"duration":0.1875,"midi":52,"time":234.75,"velocity":0.3937007874015748},{"duration":0.1875,"midi":76,"time":234.75,"velocity":0.3937007874015748},{"duration":0.1875,"midi":48,"time":234.75,"velocity":0.3937007874015748},{"duration":0.1875,"midi":64,"time":234.75,"velocity":0.3937007874015748},{"duration":0.1875,"midi":76,"time":235.125,"velocity":0.3937007874015748},{"duration":0.1875,"midi":64,"time":235.125,"velocity":0.3937007874015748},{"duration":0.1875,"midi":76,"time":235.5,"velocity":0.3937007874015748},{"duration":0.1875,"midi":64,"time":235.5,"velocity":0.3937007874015748},{"duration":0.1875,"midi":40,"time":235.5,"velocity":0.3937007874015748},{"duration":0.1875,"midi":64,"time":235.875,"velocity":0.3937007874015748},{"duration":0.1875,"midi":76,"time":235.875,"velocity":0.3937007874015748},{"duration":0.1875,"midi":52,"time":236.25,"velocity":0.3937007874015748},{"duration":0.1875,"midi":64,"time":236.25,"velocity":0.3937007874015748},{"duration":0.1875,"midi":76,"time":236.25,"velocity":0.3937007874015748},{"duration":0.1875,"midi":48,"time":236.25,"velocity":0.3937007874015748},{"duration":0.1875,"midi":76,"time":236.625,"velocity":0.3937007874015748},{"duration":0.1875,"midi":64,"time":236.625,"velocity":0.3937007874015748},{"duration":0.1875,"midi":64,"time":237,"velocity":0.3937007874015748},{"duration":0.1875,"midi":76,"time":237,"velocity":0.3937007874015748},{"duration":0.09375,"midi":88,"time":237,"velocity":0.3937007874015748},{"duration":0.1875,"midi":45,"time":237,"velocity":0.3937007874015748},{"duration":0.09375,"midi":88,"time":237.1875,"velocity":0.3937007874015748},{"duration":0.1875,"midi":76,"time":237.375,"velocity":0.3937007874015748},{"duration":0.1875,"midi":64,"time":237.375,"velocity":0.3937007874015748},{"duration":0.09375,"midi":88,"time":237.375,"velocity":0.3937007874015748},{"duration":0.09375,"midi":88,"time":237.5625,"velocity":0.3937007874015748},{"duration":0.1875,"midi":64,"time":237.75,"velocity":0.3937007874015748},{"duration":0.1875,"midi":76,"time":237.75,"velocity":0.3937007874015748},{"duration":0.09375,"midi":88,"time":237.75,"velocity":0.3937007874015748},{"duration":0.1875,"midi":48,"time":237.75,"velocity":0.3937007874015748},{"duration":0.1875,"midi":52,"time":237.75,"velocity":0.3937007874015748},{"duration":0.09375,"midi":88,"time":237.9375,"velocity":0.3937007874015748},{"duration":0.1875,"midi":64,"time":238.125,"velocity":0.3937007874015748},{"duration":0.1875,"midi":76,"time":238.125,"velocity":0.3937007874015748},{"duration":0.09375,"midi":88,"time":238.125,"velocity":0.3937007874015748},{"duration":0.09375,"midi":88,"time":238.3125,"velocity":0.3937007874015748},{"duration":0.09375,"midi":88,"time":238.5,"velocity":0.3937007874015748},{"duration":0.1875,"midi":40,"time":238.5,"velocity":0.3937007874015748},{"duration":0.1875,"midi":76,"time":238.5,"velocity":0.3937007874015748},{"duration":0.1875,"midi":64,"time":238.5,"velocity":0.3937007874015748},{"duration":0.09375,"midi":88,"time":238.6875,"velocity":0.3937007874015748},{"duration":0.1875,"midi":76,"time":238.875,"velocity":0.3937007874015748},{"duration":0.1875,"midi":64,"time":238.875,"velocity":0.3937007874015748},{"duration":0.09375,"midi":88,"time":238.875,"velocity":0.3937007874015748},{"duration":0.09375,"midi":88,"time":239.0625,"velocity":0.3937007874015748},{"duration":0.1875,"midi":52,"time":239.25,"velocity":0.3937007874015748},{"duration":0.1875,"midi":48,"time":239.25,"velocity":0.3937007874015748},{"duration":0.1875,"midi":64,"time":239.25,"velocity":0.3937007874015748},{"duration":0.09375,"midi":88,"time":239.25,"velocity":0.3937007874015748},{"duration":0.1875,"midi":76,"time":239.25,"velocity":0.3937007874015748},{"duration":0.09375,"midi":88,"time":239.4375,"velocity":0.3937007874015748},{"duration":0.09375,"midi":88,"time":239.625,"velocity":0.3937007874015748},{"duration":0.1875,"midi":64,"time":239.625,"velocity":0.3937007874015748},{"duration":0.1875,"midi":76,"time":239.625,"velocity":0.3937007874015748},{"duration":0.09375,"midi":88,"time":239.8125,"velocity":0.3937007874015748},{"duration":0.1875,"midi":64,"time":240,"velocity":0.3937007874015748},{"duration":0.1875,"midi":45,"time":240,"velocity":0.3937007874015748},{"duration":0.09375,"midi":88,"time":240,"velocity":0.3937007874015748},{"duration":0.1875,"midi":76,"time":240,"velocity":0.3937007874015748},{"duration":0.1875,"midi":77,"time":240.375,"velocity":0.3937007874015748},{"duration":0.1875,"midi":65,"time":240.375,"velocity":0.3937007874015748},{"duration":0.1875,"midi":48,"time":240.75,"velocity":0.3937007874015748},{"duration":0.1875,"midi":64,"time":240.75,"velocity":0.3937007874015748},{"duration":0.1875,"midi":52,"time":240.75,"velocity":0.3937007874015748},{"duration":0.1875,"midi":76,"time":240.75,"velocity":0.3937007874015748},{"duration":0.1875,"midi":63,"time":241.125,"velocity":0.3937007874015748},{"duration":0.1875,"midi":75,"time":241.125,"velocity":0.3937007874015748},{"duration":0.1875,"midi":40,"time":241.5,"velocity":0.3937007874015748},{"duration":0.1875,"midi":76,"time":241.5,"velocity":0.3937007874015748},{"duration":0.1875,"midi":64,"time":241.5,"velocity":0.3937007874015748},{"duration":0.1875,"midi":52,"time":242.25,"velocity":0.3937007874015748},{"duration":0.1875,"midi":48,"time":242.25,"velocity":0.3937007874015748},{"duration":0.28125,"midi":81,"time":242.25,"velocity":0.3937007874015748},{"duration":0.28125,"midi":69,"time":242.25,"velocity":0.3937007874015748},{"duration":0.28125,"midi":84,"time":242.625,"velocity":0.3937007874015748},{"duration":0.28125,"midi":72,"time":242.625,"velocity":0.3937007874015748},{"duration":0.1875,"midi":45,"time":243,"velocity":0.3937007874015748},{"duration":0.28125,"midi":76,"time":243,"velocity":0.3937007874015748},{"duration":0.28125,"midi":88,"time":243,"velocity":0.3937007874015748},{"duration":0.1875,"midi":52,"time":243.75,"velocity":0.3937007874015748},{"duration":0.28125,"midi":93,"time":243.75,"velocity":0.3937007874015748},{"duration":0.28125,"midi":81,"time":243.75,"velocity":0.3937007874015748},{"duration":0.1875,"midi":48,"time":243.75,"velocity":0.3937007874015748},{"duration":0.1875,"midi":40,"time":244.5,"velocity":0.3937007874015748},{"duration":0.75,"midi":84,"time":244.5,"velocity":0.3937007874015748},{"duration":0.75,"midi":84,"time":244.5,"velocity":0.3937007874015748},{"duration":0.1875,"midi":52,"time":245.25,"velocity":0.3937007874015748},{"duration":0.1875,"midi":48,"time":245.25,"velocity":0.3937007874015748},{"duration":0.375,"midi":50,"time":246,"velocity":0.3937007874015748},{"duration":0.375,"midi":86,"time":246,"velocity":0.3937007874015748},{"duration":0.375,"midi":74,"time":246,"velocity":0.3937007874015748},{"duration":0.375,"midi":89,"time":246,"velocity":0.3937007874015748},{"duration":0.375,"midi":38,"time":246,"velocity":0.3937007874015748},{"duration":0.375,"midi":88,"time":246.375,"velocity":0.3937007874015748},{"duration":0.375,"midi":84,"time":246.375,"velocity":0.3937007874015748},{"duration":0.375,"midi":72,"time":246.375,"velocity":0.3937007874015748},{"duration":0.375,"midi":71,"time":246.75,"velocity":0.3937007874015748},{"duration":0.1875,"midi":53,"time":246.75,"velocity":0.3937007874015748},{"duration":0.1875,"midi":47,"time":246.75,"velocity":0.3937007874015748},{"duration":0.375,"midi":86,"time":246.75,"velocity":0.3937007874015748},{"duration":0.375,"midi":83,"time":246.75,"velocity":0.3937007874015748},{"duration":0.375,"midi":86,"time":247.125,"velocity":0.3937007874015748},{"duration":0.375,"midi":74,"time":247.125,"velocity":0.3937007874015748},{"duration":0.375,"midi":89,"time":247.125,"velocity":0.3937007874015748},{"duration":0.375,"midi":88,"time":247.5,"velocity":0.3937007874015748},{"duration":0.375,"midi":36,"time":247.5,"velocity":0.3937007874015748},{"duration":0.375,"midi":84,"time":247.5,"velocity":0.3937007874015748},{"duration":0.375,"midi":72,"time":247.5,"velocity":0.3937007874015748},{"duration":0.375,"midi":48,"time":247.5,"velocity":0.3937007874015748},{"duration":0.375,"midi":86,"time":247.875,"velocity":0.3937007874015748},{"duration":0.375,"midi":71,"time":247.875,"velocity":0.3937007874015748},{"duration":0.375,"midi":95,"time":247.875,"velocity":0.3937007874015748},{"duration":0.375,"midi":83,"time":247.875,"velocity":0.3937007874015748},{"duration":0.375,"midi":84,"time":248.25,"velocity":0.3937007874015748},{"duration":0.1875,"midi":52,"time":248.25,"velocity":0.3937007874015748},{"duration":0.375,"midi":93,"time":248.25,"velocity":0.3937007874015748},{"duration":0.1875,"midi":48,"time":248.25,"velocity":0.3937007874015748},{"duration":0.375,"midi":69,"time":248.25,"velocity":0.3937007874015748},{"duration":0.375,"midi":81,"time":248.25,"velocity":0.3937007874015748},{"duration":0.375,"midi":72,"time":248.625,"velocity":0.3937007874015748},{"duration":0.375,"midi":84,"time":248.625,"velocity":0.3937007874015748},{"duration":0.375,"midi":84,"time":248.625,"velocity":0.3937007874015748},{"duration":0.375,"midi":88,"time":248.625,"velocity":0.3937007874015748},{"duration":0.375,"midi":71,"time":249,"velocity":0.3937007874015748},{"duration":0.375,"midi":35,"time":249,"velocity":0.3937007874015748},{"duration":0.375,"midi":86,"time":249,"velocity":0.3937007874015748},{"duration":0.375,"midi":83,"time":249,"velocity":0.3937007874015748},{"duration":0.375,"midi":47,"time":249,"velocity":0.3937007874015748},{"duration":0.375,"midi":95,"time":249,"velocity":0.3937007874015748},{"duration":0.375,"midi":69,"time":249.375,"velocity":0.3937007874015748},{"duration":0.375,"midi":84,"time":249.375,"velocity":0.3937007874015748},{"duration":0.375,"midi":93,"time":249.375,"velocity":0.3937007874015748},{"duration":0.375,"midi":81,"time":249.375,"velocity":0.3937007874015748},{"duration":0.375,"midi":68,"time":249.75,"velocity":0.3937007874015748},{"duration":0.375,"midi":80,"time":249.75,"velocity":0.3937007874015748},{"duration":0.375,"midi":83,"time":249.75,"velocity":0.3937007874015748},{"duration":0.1875,"midi":50,"time":249.75,"velocity":0.3937007874015748},{"duration":0.375,"midi":92,"time":249.75,"velocity":0.3937007874015748},{"duration":0.1875,"midi":44,"time":249.75,"velocity":0.3937007874015748},{"duration":0.375,"midi":95,"time":250.125,"velocity":0.3937007874015748},{"duration":0.375,"midi":71,"time":250.125,"velocity":0.3937007874015748},{"duration":0.375,"midi":86,"time":250.125,"velocity":0.3937007874015748},{"duration":0.375,"midi":83,"time":250.125,"velocity":0.3937007874015748},{"duration":0.375,"midi":45,"time":250.5,"velocity":0.3937007874015748},{"duration":0.375,"midi":69,"time":250.5,"velocity":0.3937007874015748},{"duration":0.375,"midi":81,"time":250.5,"velocity":0.3937007874015748},{"duration":0.375,"midi":84,"time":250.5,"velocity":0.3937007874015748},{"duration":0.375,"midi":33,"time":250.5,"velocity":0.3937007874015748},{"duration":0.375,"midi":93,"time":250.5,"velocity":0.3937007874015748},{"duration":0.375,"midi":81,"time":250.875,"velocity":0.3937007874015748},{"duration":0.375,"midi":64,"time":250.875,"velocity":0.3937007874015748},{"duration":0.375,"midi":88,"time":250.875,"velocity":0.3937007874015748},{"duration":0.375,"midi":76,"time":250.875,"velocity":0.3937007874015748},{"duration":0.375,"midi":72,"time":251.25,"velocity":0.3937007874015748},{"duration":0.375,"midi":76,"time":251.25,"velocity":0.3937007874015748},{"duration":0.1875,"midi":48,"time":251.25,"velocity":0.3937007874015748},{"duration":0.375,"midi":60,"time":251.25,"velocity":0.3937007874015748},{"duration":0.375,"midi":84,"time":251.25,"velocity":0.3937007874015748},{"duration":0.1875,"midi":45,"time":251.25,"velocity":0.3937007874015748},{"duration":0.375,"midi":72,"time":251.625,"velocity":0.3937007874015748},{"duration":0.375,"midi":81,"time":251.625,"velocity":0.3937007874015748},{"duration":0.375,"midi":57,"time":251.625,"velocity":0.3937007874015748},{"duration":0.375,"midi":69,"time":251.625,"velocity":0.3937007874015748},{"duration":0.375,"midi":77,"time":252,"velocity":0.3937007874015748},{"duration":0.375,"midi":65,"time":252,"velocity":0.3937007874015748},{"duration":0.375,"midi":89,"time":252,"velocity":0.3937007874015748},{"duration":0.375,"midi":40,"time":252,"velocity":0.3937007874015748},{"duration":0.375,"midi":28,"time":252,"velocity":0.3937007874015748},{"duration":0.375,"midi":81,"time":252,"velocity":0.3937007874015748},{"duration":0.375,"midi":76,"time":252.375,"velocity":0.3937007874015748},{"duration":0.375,"midi":64,"time":252.375,"velocity":0.3937007874015748},{"duration":0.375,"midi":79,"time":252.375,"velocity":0.3937007874015748},{"duration":0.375,"midi":88,"time":252.375,"velocity":0.3937007874015748},{"duration":0.375,"midi":86,"time":252.75,"velocity":0.3937007874015748},{"duration":0.375,"midi":42,"time":252.75,"velocity":0.3937007874015748},{"duration":0.375,"midi":62,"time":252.75,"velocity":0.3937007874015748},{"duration":0.375,"midi":77,"time":252.75,"velocity":0.3937007874015748},{"duration":0.375,"midi":74,"time":252.75,"velocity":0.3937007874015748},{"duration":0.375,"midi":30,"time":252.75,"velocity":0.3937007874015748},{"duration":0.375,"midi":76,"time":253.125,"velocity":0.3937007874015748},{"duration":0.375,"midi":72,"time":253.125,"velocity":0.3937007874015748},{"duration":0.375,"midi":84,"time":253.125,"velocity":0.3937007874015748},{"duration":0.375,"midi":60,"time":253.125,"velocity":0.3937007874015748},{"duration":0.375,"midi":44,"time":253.5,"velocity":0.3937007874015748},{"duration":0.375,"midi":32,"time":253.5,"velocity":0.3937007874015748},{"duration":0.375,"midi":59,"time":253.5,"velocity":0.3937007874015748},{"duration":0.375,"midi":74,"time":253.5,"velocity":0.3937007874015748},{"duration":0.375,"midi":83,"time":253.5,"velocity":0.3937007874015748},{"duration":0.375,"midi":71,"time":253.5,"velocity":0.3937007874015748},{"duration":0.375,"midi":81,"time":253.875,"velocity":0.3937007874015748},{"duration":0.375,"midi":72,"time":253.875,"velocity":0.3937007874015748},{"duration":0.375,"midi":57,"time":253.875,"velocity":0.3937007874015748},{"duration":0.375,"midi":69,"time":253.875,"velocity":0.3937007874015748},{"duration":0.375,"midi":71,"time":254.25,"velocity":0.3937007874015748},{"duration":0.375,"midi":56,"time":254.25,"velocity":0.3937007874015748},{"duration":0.375,"midi":28,"time":254.25,"velocity":0.3937007874015748},{"duration":0.375,"midi":68,"time":254.25,"velocity":0.3937007874015748},{"duration":0.375,"midi":80,"time":254.25,"velocity":0.3937007874015748},{"duration":0.375,"midi":40,"time":254.25,"velocity":0.3937007874015748},{"duration":0.375,"midi":74,"time":254.625,"velocity":0.3937007874015748},{"duration":0.375,"midi":83,"time":254.625,"velocity":0.3937007874015748},{"duration":0.375,"midi":71,"time":254.625,"velocity":0.3937007874015748},{"duration":0.375,"midi":59,"time":254.625,"velocity":0.3937007874015748},{"duration":0.375,"midi":57,"time":255,"velocity":0.3937007874015748},{"duration":0.375,"midi":33,"time":255,"velocity":0.3937007874015748},{"duration":0.375,"midi":72,"time":255,"velocity":0.3937007874015748},{"duration":0.375,"midi":81,"time":255,"velocity":0.3937007874015748},{"duration":0.375,"midi":45,"time":255,"velocity":0.3937007874015748},{"duration":0.375,"midi":69,"time":255,"velocity":0.3937007874015748},{"duration":1.5,"midi":33,"time":258,"velocity":0.3937007874015748},{"duration":1.5,"midi":45,"time":258,"velocity":0.3937007874015748},{"duration":0.1875,"midi":48,"time":259.5,"velocity":0.3937007874015748},{"duration":0.1875,"midi":52,"time":259.5,"velocity":0.3937007874015748},{"duration":0.375,"midi":40,"time":261,"velocity":0.3937007874015748},{"duration":0.1875,"midi":48,"time":262.5,"velocity":0.3937007874015748},{"duration":0.1875,"midi":52,"time":262.5,"velocity":0.3937007874015748},{"duration":1.5,"midi":33,"time":264,"velocity":0.3937007874015748},{"duration":1.5,"midi":45,"time":264,"velocity":0.3937007874015748},{"duration":0.1875,"midi":48,"time":265.5,"velocity":0.3937007874015748},{"duration":0.1875,"midi":52,"time":265.5,"velocity":0.3937007874015748},{"duration":0.375,"midi":40,"time":267,"velocity":0.3937007874015748},{"duration":0.1875,"midi":48,"time":268.5,"velocity":0.3937007874015748},{"duration":0.1875,"midi":52,"time":268.5,"velocity":0.3937007874015748},{"duration":1.5,"midi":45,"time":270,"velocity":0.3937007874015748},{"duration":1.5,"midi":33,"time":270,"velocity":0.3937007874015748},{"duration":0.1875,"midi":57,"time":271.5,"velocity":0.3937007874015748},{"duration":0.1875,"midi":60,"time":271.5,"velocity":0.3937007874015748},{"duration":0.1875,"midi":64,"time":271.5,"velocity":0.3937007874015748},{"duration":0.1875,"midi":52,"time":271.5,"velocity":0.3937007874015748},{"duration":0.1875,"midi":48,"time":271.5,"velocity":0.3937007874015748},{"duration":0.375,"midi":40,"time":273,"velocity":0.3937007874015748},{"duration":0.1875,"midi":57,"time":274.5,"velocity":0.3937007874015748},{"duration":0.1875,"midi":48,"time":274.5,"velocity":0.3937007874015748},{"duration":0.1875,"midi":64,"time":274.5,"velocity":0.3937007874015748},{"duration":0.1875,"midi":60,"time":274.5,"velocity":0.3937007874015748},{"duration":0.1875,"midi":52,"time":274.5,"velocity":0.3937007874015748},{"duration":1.5,"midi":33,"time":276,"velocity":0.3937007874015748},{"duration":1.5,"midi":45,"time":276,"velocity":0.3937007874015748},{"duration":0.1875,"midi":60,"time":277.5,"velocity":0.3937007874015748},{"duration":0.1875,"midi":64,"time":277.5,"velocity":0.3937007874015748},{"duration":0.1875,"midi":52,"time":277.5,"velocity":0.3937007874015748},{"duration":0.1875,"midi":57,"time":277.5,"velocity":0.3937007874015748},{"duration":0.1875,"midi":48,"time":277.5,"velocity":0.3937007874015748},{"duration":0.375,"midi":40,"time":279,"velocity":0.3937007874015748},{"duration":0.1875,"midi":52,"time":280.5,"velocity":0.3937007874015748},{"duration":0.1875,"midi":64,"time":280.5,"velocity":0.3937007874015748},{"duration":0.1875,"midi":60,"time":280.5,"velocity":0.3937007874015748},{"duration":0.1875,"midi":57,"time":280.5,"velocity":0.3937007874015748},{"duration":0.1875,"midi":48,"time":280.5,"velocity":0.3937007874015748},{"duration":1.5,"midi":33,"time":282,"velocity":0.3937007874015748},{"duration":1.5,"midi":45,"time":282,"velocity":0.3937007874015748},{"duration":1.5,"midi":57,"time":282,"velocity":0.3937007874015748},{"duration":0.1875,"midi":48,"time":283.5,"velocity":0.3937007874015748},{"duration":0.1875,"midi":60,"time":283.5,"velocity":0.3937007874015748},{"duration":0.1875,"midi":52,"time":283.5,"velocity":0.3937007874015748},{"duration":0.1875,"midi":57,"time":283.5,"velocity":0.3937007874015748},{"duration":0.1875,"midi":76,"time":283.5,"velocity":0.3937007874015748},{"duration":0.1875,"midi":72,"time":283.5,"velocity":0.3937007874015748},{"duration":0.1875,"midi":64,"time":283.5,"velocity":0.3937007874015748},{"duration":0.1875,"midi":69,"time":283.5,"velocity":0.3937007874015748},{"duration":0.375,"midi":52,"time":285,"velocity":0.3937007874015748},{"duration":0.375,"midi":40,"time":285,"velocity":0.3937007874015748},{"duration":0.1875,"midi":60,"time":286.5,"velocity":0.3937007874015748},{"duration":0.1875,"midi":57,"time":286.5,"velocity":0.3937007874015748},{"duration":0.1875,"midi":64,"time":286.5,"velocity":0.3937007874015748},{"duration":0.1875,"midi":48,"time":286.5,"velocity":0.3937007874015748},{"duration":0.1875,"midi":52,"time":286.5,"velocity":0.3937007874015748},{"duration":0.1875,"midi":72,"time":286.5,"velocity":0.3937007874015748},{"duration":0.1875,"midi":69,"time":286.5,"velocity":0.3937007874015748},{"duration":0.1875,"midi":76,"time":286.5,"velocity":0.3937007874015748},{"duration":1.5,"midi":57,"time":288,"velocity":0.3937007874015748},{"duration":1.5,"midi":45,"time":288,"velocity":0.3937007874015748},{"duration":1.5,"midi":33,"time":288,"velocity":0.3937007874015748},{"duration":0.1875,"midi":64,"time":289.5,"velocity":0.3937007874015748},{"duration":0.1875,"midi":72,"time":289.5,"velocity":0.3937007874015748},{"duration":0.1875,"midi":57,"time":289.5,"velocity":0.3937007874015748},{"duration":0.1875,"midi":69,"time":289.5,"velocity":0.3937007874015748},{"duration":0.1875,"midi":48,"time":289.5,"velocity":0.3937007874015748},{"duration":0.1875,"midi":52,"time":289.5,"velocity":0.3937007874015748},{"duration":0.1875,"midi":76,"time":289.5,"velocity":0.3937007874015748},{"duration":0.1875,"midi":60,"time":289.5,"velocity":0.3937007874015748},{"duration":0.375,"midi":52,"time":291,"velocity":0.3937007874015748},{"duration":0.375,"midi":40,"time":291,"velocity":0.3937007874015748},{"duration":0.1875,"midi":52,"time":292.5,"velocity":0.3937007874015748},{"duration":0.1875,"midi":72,"time":292.5,"velocity":0.3937007874015748},{"duration":0.1875,"midi":69,"time":292.5,"velocity":0.3937007874015748},{"duration":0.1875,"midi":76,"time":292.5,"velocity":0.3937007874015748},{"duration":0.1875,"midi":57,"time":292.5,"velocity":0.3937007874015748},{"duration":0.1875,"midi":60,"time":292.5,"velocity":0.3937007874015748},{"duration":0.1875,"midi":64,"time":292.5,"velocity":0.3937007874015748},{"duration":0.1875,"midi":48,"time":292.5,"velocity":0.3937007874015748},{"duration":0.75,"midi":45,"time":294,"velocity":0.3937007874015748},{"duration":0.75,"midi":57,"time":294,"velocity":0.3937007874015748},{"duration":0.75,"midi":33,"time":294,"velocity":0.3937007874015748},{"duration":0.1875,"midi":48,"time":294.75,"velocity":0.3937007874015748},{"duration":0.1875,"midi":52,"time":294.75,"velocity":0.3937007874015748},{"duration":0.1875,"midi":72,"time":294.75,"velocity":0.3937007874015748},{"duration":0.1875,"midi":64,"time":294.75,"velocity":0.3937007874015748},{"duration":0.1875,"midi":57,"time":294.75,"velocity":0.3937007874015748},{"duration":0.1875,"midi":69,"time":294.75,"velocity":0.3937007874015748},{"duration":0.1875,"midi":60,"time":294.75,"velocity":0.3937007874015748},{"duration":0.1875,"midi":84,"time":294.75,"velocity":0.3937007874015748},{"duration":0.1875,"midi":76,"time":294.75,"velocity":0.3937007874015748},{"duration":0.1875,"midi":81,"time":294.75,"velocity":0.3937007874015748},{"duration":0.1875,"midi":88,"time":294.75,"velocity":0.3937007874015748},{"duration":0.375,"midi":52,"time":295.5,"velocity":0.3937007874015748},{"duration":0.375,"midi":40,"time":295.5,"velocity":0.3937007874015748},{"duration":0.1875,"midi":88,"time":296.25,"velocity":0.3937007874015748},{"duration":0.1875,"midi":57,"time":296.25,"velocity":0.3937007874015748},{"duration":0.1875,"midi":60,"time":296.25,"velocity":0.3937007874015748},{"duration":0.1875,"midi":84,"time":296.25,"velocity":0.3937007874015748},{"duration":0.1875,"midi":64,"time":296.25,"velocity":0.3937007874015748},{"duration":0.1875,"midi":76,"time":296.25,"velocity":0.3937007874015748},{"duration":0.1875,"midi":81,"time":296.25,"velocity":0.3937007874015748},{"duration":0.1875,"midi":72,"time":296.25,"velocity":0.3937007874015748},{"duration":0.1875,"midi":69,"time":296.25,"velocity":0.3937007874015748},{"duration":0.1875,"midi":48,"time":296.25,"velocity":0.3937007874015748},{"duration":0.1875,"midi":52,"time":296.25,"velocity":0.3937007874015748},{"duration":0.75,"midi":33,"time":297,"velocity":0.3937007874015748},{"duration":0.75,"midi":45,"time":297,"velocity":0.3937007874015748},{"duration":0.75,"midi":57,"time":297,"velocity":0.3937007874015748},{"duration":0.1875,"midi":69,"time":297.75,"velocity":0.3937007874015748},{"duration":0.1875,"midi":81,"time":297.75,"velocity":0.3937007874015748},{"duration":0.1875,"midi":93,"time":297.75,"velocity":0.3937007874015748},{"duration":0.1875,"midi":84,"time":297.75,"velocity":0.3937007874015748},{"duration":0.1875,"midi":52,"time":297.75,"velocity":0.3937007874015748},{"duration":0.1875,"midi":48,"time":297.75,"velocity":0.3937007874015748},{"duration":0.1875,"midi":88,"time":297.75,"velocity":0.3937007874015748},{"duration":0.1875,"midi":64,"time":297.75,"velocity":0.3937007874015748},{"duration":0.1875,"midi":60,"time":297.75,"velocity":0.3937007874015748},{"duration":0.1875,"midi":57,"time":297.75,"velocity":0.3937007874015748},{"duration":0.1875,"midi":76,"time":297.75,"velocity":0.3937007874015748},{"duration":0.1875,"midi":72,"time":297.75,"velocity":0.3937007874015748},{"duration":0.375,"midi":40,"time":298.5,"velocity":0.3937007874015748},{"duration":0.375,"midi":52,"time":298.5,"velocity":0.3937007874015748},{"duration":0.1875,"midi":52,"time":299.25,"velocity":0.3937007874015748},{"duration":0.1875,"midi":93,"time":299.25,"velocity":0.3937007874015748},{"duration":0.1875,"midi":60,"time":299.25,"velocity":0.3937007874015748},{"duration":0.1875,"midi":76,"time":299.25,"velocity":0.3937007874015748},{"duration":0.1875,"midi":57,"time":299.25,"velocity":0.3937007874015748},{"duration":0.1875,"midi":64,"time":299.25,"velocity":0.3937007874015748},{"duration":0.1875,"midi":84,"time":299.25,"velocity":0.3937007874015748},{"duration":0.1875,"midi":81,"time":299.25,"velocity":0.3937007874015748},{"duration":0.1875,"midi":48,"time":299.25,"velocity":0.3937007874015748},{"duration":0.1875,"midi":69,"time":299.25,"velocity":0.3937007874015748},{"duration":0.1875,"midi":88,"time":299.25,"velocity":0.3937007874015748},{"duration":0.1875,"midi":72,"time":299.25,"velocity":0.3937007874015748},{"duration":0.1875,"midi":24,"time":300,"velocity":0.3937007874015748},{"duration":0.1875,"midi":76,"time":300,"velocity":0.3937007874015748},{"duration":0.1875,"midi":31,"time":300,"velocity":0.3937007874015748},{"duration":0.1875,"midi":32,"time":300,"velocity":0.3937007874015748},{"duration":0.1875,"midi":30,"time":300,"velocity":0.3937007874015748},{"duration":0.1875,"midi":29,"time":300,"velocity":0.3937007874015748},{"duration":0.75,"midi":45,"time":300,"velocity":0.3937007874015748},{"duration":0.1875,"midi":27,"time":300,"velocity":0.3937007874015748},{"duration":0.1875,"midi":26,"time":300,"velocity":0.3937007874015748},{"duration":0.1875,"midi":28,"time":300,"velocity":0.3937007874015748},{"duration":0.1875,"midi":25,"time":300,"velocity":0.3937007874015748},{"duration":0.1875,"midi":64,"time":300,"velocity":0.3937007874015748},{"duration":0.75,"midi":33,"time":300,"velocity":0.3937007874015748},{"duration":0.1875,"midi":64,"time":300.375,"velocity":0.3937007874015748},{"duration":0.1875,"midi":76,"time":300.375,"velocity":0.3937007874015748},{"duration":0.1875,"midi":48,"time":300.75,"velocity":0.3937007874015748},{"duration":0.1875,"midi":76,"time":300.75,"velocity":0.3937007874015748},{"duration":0.1875,"midi":52,"time":300.75,"velocity":0.3937007874015748},{"duration":0.1875,"midi":64,"time":300.75,"velocity":0.3937007874015748},{"duration":0.1875,"midi":64,"time":301.125,"velocity":0.3937007874015748},{"duration":0.1875,"midi":76,"time":301.125,"velocity":0.3937007874015748},{"duration":0.1875,"midi":38,"time":301.5,"velocity":0.3937007874015748},{"duration":0.1875,"midi":39,"time":301.5,"velocity":0.3937007874015748},{"duration":0.1875,"midi":34,"time":301.5,"velocity":0.3937007874015748},{"duration":0.1875,"midi":37,"time":301.5,"velocity":0.3937007874015748},{"duration":0.1875,"midi":76,"time":301.5,"velocity":0.3937007874015748},{"duration":0.1875,"midi":35,"time":301.5,"velocity":0.3937007874015748},{"duration":0.1875,"midi":64,"time":301.5,"velocity":0.3937007874015748},{"duration":0.1875,"midi":41,"time":301.5,"velocity":0.3937007874015748},{"duration":0.75,"midi":28,"time":301.5,"velocity":0.3937007874015748},{"duration":0.1875,"midi":36,"time":301.5,"velocity":0.3937007874015748},{"duration":0.1875,"midi":33,"time":301.5,"velocity":0.3937007874015748},{"duration":0.1875,"midi":40,"time":301.5,"velocity":0.3937007874015748},{"duration":0.75,"midi":40,"time":301.5,"velocity":0.3937007874015748},{"duration":0.1875,"midi":64,"time":301.875,"velocity":0.3937007874015748},{"duration":0.1875,"midi":76,"time":301.875,"velocity":0.3937007874015748},{"duration":0.1875,"midi":76,"time":302.25,"velocity":0.3937007874015748},{"duration":0.1875,"midi":52,"time":302.25,"velocity":0.3937007874015748},{"duration":0.1875,"midi":48,"time":302.25,"velocity":0.3937007874015748},{"duration":0.1875,"midi":64,"time":302.25,"velocity":0.3937007874015748},{"duration":0.1875,"midi":64,"time":302.625,"velocity":0.3937007874015748},{"duration":0.1875,"midi":76,"time":302.625,"velocity":0.3937007874015748},{"duration":0.1875,"midi":76,"time":303,"velocity":0.3937007874015748},{"duration":0.1875,"midi":31,"time":303,"velocity":0.3937007874015748},{"duration":0.1875,"midi":32,"time":303,"velocity":0.3937007874015748},{"duration":0.75,"midi":33,"time":303,"velocity":0.3937007874015748},{"duration":0.1875,"midi":25,"time":303,"velocity":0.3937007874015748},{"duration":0.1875,"midi":24,"time":303,"velocity":0.3937007874015748},{"duration":0.1875,"midi":28,"time":303,"velocity":0.3937007874015748},{"duration":0.1875,"midi":26,"time":303,"velocity":0.3937007874015748},{"duration":0.75,"midi":45,"time":303,"velocity":0.3937007874015748},{"duration":0.1875,"midi":29,"time":303,"velocity":0.3937007874015748},{"duration":0.1875,"midi":27,"time":303,"velocity":0.3937007874015748},{"duration":0.09375,"midi":88,"time":303,"velocity":0.3937007874015748},{"duration":0.1875,"midi":30,"time":303,"velocity":0.3937007874015748},{"duration":0.1875,"midi":64,"time":303,"velocity":0.3937007874015748},{"duration":0.09375,"midi":88,"time":303.1875,"velocity":0.3937007874015748},{"duration":0.09375,"midi":88,"time":303.375,"velocity":0.3937007874015748},{"duration":0.1875,"midi":64,"time":303.375,"velocity":0.3937007874015748},{"duration":0.1875,"midi":76,"time":303.375,"velocity":0.3937007874015748},{"duration":0.09375,"midi":88,"time":303.5625,"velocity":0.3937007874015748},{"duration":0.1875,"midi":48,"time":303.75,"velocity":0.3937007874015748},{"duration":0.09375,"midi":88,"time":303.75,"velocity":0.3937007874015748},{"duration":0.1875,"midi":64,"time":303.75,"velocity":0.3937007874015748},{"duration":0.1875,"midi":52,"time":303.75,"velocity":0.3937007874015748},{"duration":0.1875,"midi":76,"time":303.75,"velocity":0.3937007874015748},{"duration":0.09375,"midi":88,"time":303.9375,"velocity":0.3937007874015748},{"duration":0.1875,"midi":76,"time":304.125,"velocity":0.3937007874015748},{"duration":0.1875,"midi":64,"time":304.125,"velocity":0.3937007874015748},{"duration":0.09375,"midi":88,"time":304.125,"velocity":0.3937007874015748},{"duration":0.09375,"midi":88,"time":304.3125,"velocity":0.3937007874015748},{"duration":0.09375,"midi":88,"time":304.5,"velocity":0.3937007874015748},{"duration":0.1875,"midi":76,"time":304.5,"velocity":0.3937007874015748},{"duration":0.75,"midi":28,"time":304.5,"velocity":0.3937007874015748},{"duration":0.1875,"midi":36,"time":304.5,"velocity":0.3937007874015748},{"duration":0.1875,"midi":38,"time":304.5,"velocity":0.3937007874015748},{"duration":0.1875,"midi":34,"time":304.5,"velocity":0.3937007874015748},{"duration":0.1875,"midi":33,"time":304.5,"velocity":0.3937007874015748},{"duration":0.1875,"midi":64,"time":304.5,"velocity":0.3937007874015748},{"duration":0.1875,"midi":35,"time":304.5,"velocity":0.3937007874015748},{"duration":0.1875,"midi":37,"time":304.5,"velocity":0.3937007874015748},{"duration":0.1875,"midi":40,"time":304.5,"velocity":0.3937007874015748},{"duration":0.1875,"midi":41,"time":304.5,"velocity":0.3937007874015748},{"duration":0.75,"midi":40,"time":304.5,"velocity":0.3937007874015748},{"duration":0.1875,"midi":39,"time":304.5,"velocity":0.3937007874015748},{"duration":0.09375,"midi":88,"time":304.6875,"velocity":0.3937007874015748},{"duration":0.1875,"midi":76,"time":304.875,"velocity":0.3937007874015748},{"duration":0.1875,"midi":64,"time":304.875,"velocity":0.3937007874015748},{"duration":0.09375,"midi":88,"time":304.875,"velocity":0.3937007874015748},{"duration":0.09375,"midi":88,"time":305.0625,"velocity":0.3937007874015748},{"duration":0.1875,"midi":64,"time":305.25,"velocity":0.3937007874015748},{"duration":0.1875,"midi":76,"time":305.25,"velocity":0.3937007874015748},{"duration":0.1875,"midi":52,"time":305.25,"velocity":0.3937007874015748},{"duration":0.09375,"midi":88,"time":305.25,"velocity":0.3937007874015748},{"duration":0.1875,"midi":48,"time":305.25,"velocity":0.3937007874015748},{"duration":0.09375,"midi":88,"time":305.4375,"velocity":0.3937007874015748},{"duration":0.1875,"midi":76,"time":305.625,"velocity":0.3937007874015748},{"duration":0.1875,"midi":64,"time":305.625,"velocity":0.3937007874015748},{"duration":0.09375,"midi":88,"time":305.625,"velocity":0.3937007874015748},{"duration":0.09375,"midi":88,"time":305.8125,"velocity":0.3937007874015748},{"duration":0.1875,"midi":64,"time":306,"velocity":0.3937007874015748},{"duration":0.1875,"midi":24,"time":306,"velocity":0.3937007874015748},{"duration":0.75,"midi":45,"time":306,"velocity":0.3937007874015748},{"duration":0.1875,"midi":26,"time":306,"velocity":0.3937007874015748},{"duration":0.1875,"midi":28,"time":306,"velocity":0.3937007874015748},{"duration":0.1875,"midi":27,"time":306,"velocity":0.3937007874015748},{"duration":0.75,"midi":33,"time":306,"velocity":0.3937007874015748},{"duration":0.1875,"midi":29,"time":306,"velocity":0.3937007874015748},{"duration":0.1875,"midi":32,"time":306,"velocity":0.3937007874015748},{"duration":0.1875,"midi":31,"time":306,"velocity":0.3937007874015748},{"duration":0.09375,"midi":88,"time":306,"velocity":0.3937007874015748},{"duration":0.1875,"midi":25,"time":306,"velocity":0.3937007874015748},{"duration":0.1875,"midi":30,"time":306,"velocity":0.3937007874015748},{"duration":0.1875,"midi":76,"time":306,"velocity":0.3937007874015748},{"duration":0.09375,"midi":88,"time":306.1875,"velocity":0.3937007874015748},{"duration":0.1875,"midi":64,"time":306.375,"velocity":0.3937007874015748},{"duration":0.09375,"midi":88,"time":306.375,"velocity":0.3937007874015748},{"duration":0.1875,"midi":76,"time":306.375,"velocity":0.3937007874015748},{"duration":0.09375,"midi":88,"time":306.5625,"velocity":0.3937007874015748},{"duration":0.1875,"midi":48,"time":306.75,"velocity":0.3937007874015748},{"duration":0.09375,"midi":88,"time":306.75,"velocity":0.3937007874015748},{"duration":0.1875,"midi":64,"time":306.75,"velocity":0.3937007874015748},{"duration":0.1875,"midi":76,"time":306.75,"velocity":0.3937007874015748},{"duration":0.1875,"midi":52,"time":306.75,"velocity":0.3937007874015748},{"duration":0.09375,"midi":88,"time":306.9375,"velocity":0.3937007874015748},{"duration":0.1875,"midi":76,"time":307.125,"velocity":0.3937007874015748},{"duration":0.1875,"midi":64,"time":307.125,"velocity":0.3937007874015748},{"duration":0.09375,"midi":88,"time":307.125,"velocity":0.3937007874015748},{"duration":0.09375,"midi":88,"time":307.3125,"velocity":0.3937007874015748},{"duration":0.1875,"midi":40,"time":307.5,"velocity":0.3937007874015748},{"duration":0.1875,"midi":76,"time":307.5,"velocity":0.3937007874015748},{"duration":0.75,"midi":28,"time":307.5,"velocity":0.3937007874015748},{"duration":0.1875,"midi":36,"time":307.5,"velocity":0.3937007874015748},{"duration":0.1875,"midi":34,"time":307.5,"velocity":0.3937007874015748},{"duration":0.1875,"midi":37,"time":307.5,"velocity":0.3937007874015748},{"duration":0.1875,"midi":38,"time":307.5,"velocity":0.3937007874015748},{"duration":0.1875,"midi":35,"time":307.5,"velocity":0.3937007874015748},{"duration":0.1875,"midi":33,"time":307.5,"velocity":0.3937007874015748},{"duration":0.09375,"midi":88,"time":307.5,"velocity":0.3937007874015748},{"duration":0.1875,"midi":64,"time":307.5,"velocity":0.3937007874015748},{"duration":0.1875,"midi":41,"time":307.5,"velocity":0.3937007874015748},{"duration":0.1875,"midi":39,"time":307.5,"velocity":0.3937007874015748},{"duration":0.75,"midi":40,"time":307.5,"velocity":0.3937007874015748},{"duration":0.09375,"midi":88,"time":307.6875,"velocity":0.3937007874015748},{"duration":0.1875,"midi":77,"time":307.875,"velocity":0.3937007874015748},{"duration":0.1875,"midi":65,"time":307.875,"velocity":0.3937007874015748},{"duration":0.09375,"midi":88,"time":307.875,"velocity":0.3937007874015748},{"duration":0.09375,"midi":88,"time":308.0625,"velocity":0.3937007874015748},{"duration":0.1875,"midi":64,"time":308.25,"velocity":0.3937007874015748},{"duration":0.1875,"midi":76,"time":308.25,"velocity":0.3937007874015748},{"duration":0.1875,"midi":52,"time":308.25,"velocity":0.3937007874015748},{"duration":0.1875,"midi":48,"time":308.25,"velocity":0.3937007874015748},{"duration":0.1875,"midi":63,"time":308.625,"velocity":0.3937007874015748},{"duration":0.1875,"midi":75,"time":308.625,"velocity":0.3937007874015748},{"duration":0.1875,"midi":28,"time":309,"velocity":0.3937007874015748},{"duration":0.1875,"midi":27,"time":309,"velocity":0.3937007874015748},{"duration":0.1875,"midi":26,"time":309,"velocity":0.3937007874015748},{"duration":0.1875,"midi":29,"time":309,"velocity":0.3937007874015748},{"duration":0.1875,"midi":31,"time":309,"velocity":0.3937007874015748},{"duration":0.1875,"midi":30,"time":309,"velocity":0.3937007874015748},{"duration":0.75,"midi":45,"time":309,"velocity":0.3937007874015748},{"duration":0.1875,"midi":24,"time":309,"velocity":0.3937007874015748},{"duration":0.75,"midi":33,"time":309,"velocity":0.3937007874015748},{"duration":0.1875,"midi":76,"time":309,"velocity":0.3937007874015748},{"duration":0.1875,"midi":32,"time":309,"velocity":0.3937007874015748},{"duration":0.1875,"midi":25,"time":309,"velocity":0.3937007874015748},{"duration":0.1875,"midi":64,"time":309,"velocity":0.3937007874015748},{"duration":0.1875,"midi":69,"time":309.75,"velocity":0.3937007874015748},{"duration":0.1875,"midi":52,"time":309.75,"velocity":0.3937007874015748},{"duration":0.1875,"midi":81,"time":309.75,"velocity":0.3937007874015748},{"duration":0.1875,"midi":48,"time":309.75,"velocity":0.3937007874015748},{"duration":0.1875,"midi":33,"time":310.5,"velocity":0.3937007874015748},{"duration":0.1875,"midi":34,"time":310.5,"velocity":0.3937007874015748},{"duration":0.75,"midi":72,"time":310.5,"velocity":0.3937007874015748},{"duration":0.1875,"midi":40,"time":310.5,"velocity":0.3937007874015748},{"duration":0.1875,"midi":39,"time":310.5,"velocity":0.3937007874015748},{"duration":0.1875,"midi":36,"time":310.5,"velocity":0.3937007874015748},{"duration":0.75,"midi":28,"time":310.5,"velocity":0.3937007874015748},{"duration":0.75,"midi":84,"time":310.5,"velocity":0.3937007874015748},{"duration":0.1875,"midi":37,"time":310.5,"velocity":0.3937007874015748},{"duration":0.75,"midi":40,"time":310.5,"velocity":0.3937007874015748},{"duration":0.1875,"midi":35,"time":310.5,"velocity":0.3937007874015748},{"duration":0.1875,"midi":38,"time":310.5,"velocity":0.3937007874015748},{"duration":0.1875,"midi":41,"time":310.5,"velocity":0.3937007874015748},{"duration":0.1875,"midi":52,"time":311.25,"velocity":0.3937007874015748},{"duration":0.1875,"midi":48,"time":311.25,"velocity":0.3937007874015748},{"duration":0.75,"midi":44,"time":312,"velocity":0.3937007874015748},{"duration":0.1875,"midi":32,"time":312,"velocity":0.3937007874015748},{"duration":0.1875,"midi":26,"time":312,"velocity":0.3937007874015748},{"duration":0.1875,"midi":28,"time":312,"velocity":0.3937007874015748},{"duration":0.1875,"midi":27,"time":312,"velocity":0.3937007874015748},{"duration":0.1875,"midi":31,"time":312,"velocity":0.3937007874015748},{"duration":0.1875,"midi":29,"time":312,"velocity":0.3937007874015748},{"duration":0.1875,"midi":30,"time":312,"velocity":0.3937007874015748},{"duration":0.1875,"midi":86,"time":312,"velocity":0.3937007874015748},{"duration":0.75,"midi":32,"time":312,"velocity":0.3937007874015748},{"duration":0.1875,"midi":74,"time":312,"velocity":0.3937007874015748},{"duration":0.1875,"midi":25,"time":312,"velocity":0.3937007874015748},{"duration":0.1875,"midi":24,"time":312,"velocity":0.3937007874015748},{"duration":0.1875,"midi":86,"time":312.375,"velocity":0.3937007874015748},{"duration":0.1875,"midi":74,"time":312.375,"velocity":0.3937007874015748},{"duration":0.1875,"midi":74,"time":312.75,"velocity":0.3937007874015748},{"duration":0.1875,"midi":50,"time":312.75,"velocity":0.3937007874015748},{"duration":0.1875,"midi":52,"time":312.75,"velocity":0.3937007874015748},{"duration":0.1875,"midi":86,"time":312.75,"velocity":0.3937007874015748},{"duration":0.1875,"midi":86,"time":313.125,"velocity":0.3937007874015748},{"duration":0.1875,"midi":74,"time":313.125,"velocity":0.3937007874015748},{"duration":0.1875,"midi":41,"time":313.5,"velocity":0.3937007874015748},{"duration":0.1875,"midi":74,"time":313.5,"velocity":0.3937007874015748},{"duration":0.1875,"midi":36,"time":313.5,"velocity":0.3937007874015748},{"duration":0.1875,"midi":34,"time":313.5,"velocity":0.3937007874015748},{"duration":0.1875,"midi":37,"time":313.5,"velocity":0.3937007874015748},{"duration":0.1875,"midi":39,"time":313.5,"velocity":0.3937007874015748},{"duration":0.1875,"midi":40,"time":313.5,"velocity":0.3937007874015748},{"duration":0.1875,"midi":38,"time":313.5,"velocity":0.3937007874015748},{"duration":0.1875,"midi":33,"time":313.5,"velocity":0.3937007874015748},{"duration":0.75,"midi":40,"time":313.5,"velocity":0.3937007874015748},{"duration":0.1875,"midi":86,"time":313.5,"velocity":0.3937007874015748},{"duration":0.1875,"midi":35,"time":313.5,"velocity":0.3937007874015748},{"duration":0.1875,"midi":84,"time":313.875,"velocity":0.3937007874015748},{"duration":0.1875,"midi":72,"time":313.875,"velocity":0.3937007874015748},{"duration":0.1875,"midi":50,"time":314.25,"velocity":0.3937007874015748},{"duration":0.1875,"midi":83,"time":314.25,"velocity":0.3937007874015748},{"duration":0.1875,"midi":71,"time":314.25,"velocity":0.3937007874015748},{"duration":0.1875,"midi":52,"time":314.25,"velocity":0.3937007874015748},{"duration":0.1875,"midi":86,"time":314.625,"velocity":0.3937007874015748},{"duration":0.1875,"midi":74,"time":314.625,"velocity":0.3937007874015748},{"duration":0.1875,"midi":84,"time":315,"velocity":0.3937007874015748},{"duration":0.1875,"midi":32,"time":315,"velocity":0.3937007874015748},{"duration":0.1875,"midi":29,"time":315,"velocity":0.3937007874015748},{"duration":0.1875,"midi":31,"time":315,"velocity":0.3937007874015748},{"duration":0.1875,"midi":26,"time":315,"velocity":0.3937007874015748},{"duration":0.1875,"midi":30,"time":315,"velocity":0.3937007874015748},{"duration":0.75,"midi":45,"time":315,"velocity":0.3937007874015748},{"duration":0.1875,"midi":28,"time":315,"velocity":0.3937007874015748},{"duration":0.1875,"midi":24,"time":315,"velocity":0.3937007874015748},{"duration":0.1875,"midi":72,"time":315,"velocity":0.3937007874015748},{"duration":0.75,"midi":33,"time":315,"velocity":0.3937007874015748},{"duration":0.1875,"midi":27,"time":315,"velocity":0.3937007874015748},{"duration":0.1875,"midi":25,"time":315,"velocity":0.3937007874015748},{"duration":0.1875,"midi":72,"time":315.375,"velocity":0.3937007874015748},{"duration":0.1875,"midi":84,"time":315.375,"velocity":0.3937007874015748},{"duration":0.1875,"midi":48,"time":315.75,"velocity":0.3937007874015748},{"duration":0.1875,"midi":52,"time":315.75,"velocity":0.3937007874015748},{"duration":0.1875,"midi":84,"time":315.75,"velocity":0.3937007874015748},{"duration":0.1875,"midi":72,"time":315.75,"velocity":0.3937007874015748},{"duration":0.1875,"midi":84,"time":316.125,"velocity":0.3937007874015748},{"duration":0.1875,"midi":72,"time":316.125,"velocity":0.3937007874015748},{"duration":0.1875,"midi":72,"time":316.5,"velocity":0.3937007874015748},{"duration":0.1875,"midi":41,"time":316.5,"velocity":0.3937007874015748},{"duration":0.1875,"midi":40,"time":316.5,"velocity":0.3937007874015748},{"duration":0.75,"midi":40,"time":316.5,"velocity":0.3937007874015748},{"duration":0.1875,"midi":38,"time":316.5,"velocity":0.3937007874015748},{"duration":0.1875,"midi":36,"time":316.5,"velocity":0.3937007874015748},{"duration":0.1875,"midi":35,"time":316.5,"velocity":0.3937007874015748},{"duration":0.1875,"midi":39,"time":316.5,"velocity":0.3937007874015748},{"duration":0.1875,"midi":34,"time":316.5,"velocity":0.3937007874015748},{"duration":0.1875,"midi":37,"time":316.5,"velocity":0.3937007874015748},{"duration":0.1875,"midi":84,"time":316.5,"velocity":0.3937007874015748},{"duration":0.1875,"midi":33,"time":316.5,"velocity":0.3937007874015748},{"duration":0.1875,"midi":83,"time":316.875,"velocity":0.3937007874015748},{"duration":0.1875,"midi":71,"time":316.875,"velocity":0.3937007874015748},{"duration":0.1875,"midi":69,"time":317.25,"velocity":0.3937007874015748},{"duration":0.1875,"midi":81,"time":317.25,"velocity":0.3937007874015748},{"duration":0.1875,"midi":52,"time":317.25,"velocity":0.3937007874015748},{"duration":0.1875,"midi":48,"time":317.25,"velocity":0.3937007874015748},{"duration":0.1875,"midi":72,"time":317.625,"velocity":0.3937007874015748},{"duration":0.1875,"midi":84,"time":317.625,"velocity":0.3937007874015748},{"duration":0.1875,"midi":31,"time":318,"velocity":0.3937007874015748},{"duration":0.75,"midi":47,"time":318,"velocity":0.3937007874015748},{"duration":0.1875,"midi":25,"time":318,"velocity":0.3937007874015748},{"duration":0.1875,"midi":26,"time":318,"velocity":0.3937007874015748},{"duration":0.1875,"midi":27,"time":318,"velocity":0.3937007874015748},{"duration":0.1875,"midi":32,"time":318,"velocity":0.3937007874015748},{"duration":0.1875,"midi":29,"time":318,"velocity":0.3937007874015748},{"duration":0.75,"midi":35,"time":318,"velocity":0.3937007874015748},{"duration":0.1875,"midi":24,"time":318,"velocity":0.3937007874015748},{"duration":0.1875,"midi":83,"time":318,"velocity":0.3937007874015748},{"duration":0.1875,"midi":30,"time":318,"velocity":0.3937007874015748},{"duration":0.1875,"midi":28,"time":318,"velocity":0.3937007874015748},{"duration":0.1875,"midi":71,"time":318,"velocity":0.3937007874015748},{"duration":0.1875,"midi":71,"time":318.375,"velocity":0.3937007874015748},{"duration":0.1875,"midi":83,"time":318.375,"velocity":0.3937007874015748},{"duration":0.1875,"midi":83,"time":318.75,"velocity":0.3937007874015748},{"duration":0.1875,"midi":51,"time":318.75,"velocity":0.3937007874015748},{"duration":0.1875,"midi":47,"time":318.75,"velocity":0.3937007874015748},{"duration":0.1875,"midi":71,"time":318.75,"velocity":0.3937007874015748},{"duration":0.1875,"midi":71,"time":319.125,"velocity":0.3937007874015748},{"duration":0.1875,"midi":83,"time":319.125,"velocity":0.3937007874015748},{"duration":0.1875,"midi":37,"time":319.5,"velocity":0.3937007874015748},{"duration":0.1875,"midi":66,"time":319.5,"velocity":0.3937007874015748},{"duration":0.1875,"midi":36,"time":319.5,"velocity":0.3937007874015748},{"duration":0.1875,"midi":34,"time":319.5,"velocity":0.3937007874015748},{"duration":0.1875,"midi":40,"time":319.5,"velocity":0.3937007874015748},{"duration":0.1875,"midi":35,"time":319.5,"velocity":0.3937007874015748},{"duration":0.1875,"midi":41,"time":319.5,"velocity":0.3937007874015748},{"duration":0.75,"midi":47,"time":319.5,"velocity":0.3937007874015748},{"duration":0.1875,"midi":39,"time":319.5,"velocity":0.3937007874015748},{"duration":0.1875,"midi":33,"time":319.5,"velocity":0.3937007874015748},{"duration":0.1875,"midi":38,"time":319.5,"velocity":0.3937007874015748},{"duration":0.1875,"midi":78,"time":319.5,"velocity":0.3937007874015748},{"duration":0.1875,"midi":71,"time":320.25,"velocity":0.3937007874015748},{"duration":0.1875,"midi":47,"time":320.25,"velocity":0.3937007874015748},{"duration":0.1875,"midi":51,"time":320.25,"velocity":0.3937007874015748},{"duration":0.1875,"midi":83,"time":320.25,"velocity":0.3937007874015748},{"duration":0.1875,"midi":26,"time":321,"velocity":0.3937007874015748},{"duration":0.1875,"midi":28,"time":321,"velocity":0.3937007874015748},{"duration":0.1875,"midi":30,"time":321,"velocity":0.3937007874015748},{"duration":0.1875,"midi":52,"time":321,"velocity":0.3937007874015748},{"duration":0.1875,"midi":29,"time":321,"velocity":0.3937007874015748},{"duration":0.1875,"midi":68,"time":321,"velocity":0.3937007874015748},{"duration":0.1875,"midi":31,"time":321,"velocity":0.3937007874015748},{"duration":0.1875,"midi":80,"time":321,"velocity":0.3937007874015748},{"duration":0.1875,"midi":32,"time":321,"velocity":0.3937007874015748},{"duration":0.75,"midi":40,"time":321,"velocity":0.3937007874015748},{"duration":0.1875,"midi":25,"time":321,"velocity":0.3937007874015748},{"duration":0.1875,"midi":44,"time":321,"velocity":0.3937007874015748},{"duration":0.1875,"midi":24,"time":321,"velocity":0.3937007874015748},{"duration":0.75,"midi":52,"time":321,"velocity":0.3937007874015748},{"duration":0.1875,"midi":27,"time":321,"velocity":0.3937007874015748},{"duration":0.75,"midi":56,"time":321,"velocity":0.3937007874015748},{"duration":1.5,"midi":52,"time":322.5,"velocity":0.3937007874015748},{"duration":1.40625,"midi":28,"time":322.5,"velocity":0.3937007874015748},{"duration":1.40625,"midi":40,"time":322.5,"velocity":0.3937007874015748},{"duration":1.5,"midi":64,"time":322.5,"velocity":0.3937007874015748},{"duration":0.1875,"midi":42,"time":323.8125,"velocity":0.3937007874015748},{"duration":0.1875,"midi":30,"time":323.8125,"velocity":0.3937007874015748},{"duration":0.1875,"midi":44,"time":323.90625,"velocity":0.3937007874015748},{"duration":0.1875,"midi":32,"time":323.90625,"velocity":0.3937007874015748},{"duration":0.1875,"midi":26,"time":324,"velocity":0.3937007874015748},{"duration":0.1875,"midi":31,"time":324,"velocity":0.3937007874015748},{"duration":0.1875,"midi":32,"time":324,"velocity":0.3937007874015748},{"duration":0.1875,"midi":25,"time":324,"velocity":0.3937007874015748},{"duration":0.1875,"midi":28,"time":324,"velocity":0.3937007874015748},{"duration":0.1875,"midi":29,"time":324,"velocity":0.3937007874015748},{"duration":0.1875,"midi":76,"time":324,"velocity":0.3937007874015748},{"duration":0.1875,"midi":64,"time":324,"velocity":0.3937007874015748},{"duration":0.1875,"midi":24,"time":324,"velocity":0.3937007874015748},{"duration":0.1875,"midi":27,"time":324,"velocity":0.3937007874015748},{"duration":0.75,"midi":33,"time":324,"velocity":0.3937007874015748},{"duration":0.1875,"midi":30,"time":324,"velocity":0.3937007874015748},{"duration":0.75,"midi":45,"time":324,"velocity":0.3937007874015748},{"duration":0.1875,"midi":64,"time":324.375,"velocity":0.3937007874015748},{"duration":0.1875,"midi":76,"time":324.375,"velocity":0.3937007874015748},{"duration":0.1875,"midi":52,"time":324.75,"velocity":0.3937007874015748},{"duration":0.1875,"midi":64,"time":324.75,"velocity":0.3937007874015748},{"duration":0.1875,"midi":48,"time":324.75,"velocity":0.3937007874015748},{"duration":0.1875,"midi":76,"time":324.75,"velocity":0.3937007874015748},{"duration":0.1875,"midi":76,"time":325.125,"velocity":0.3937007874015748},{"duration":0.1875,"midi":64,"time":325.125,"velocity":0.3937007874015748},{"duration":0.1875,"midi":64,"time":325.5,"velocity":0.3937007874015748},{"duration":0.1875,"midi":37,"time":325.5,"velocity":0.3937007874015748},{"duration":0.1875,"midi":76,"time":325.5,"velocity":0.3937007874015748},{"duration":0.1875,"midi":33,"time":325.5,"velocity":0.3937007874015748},{"duration":0.1875,"midi":36,"time":325.5,"velocity":0.3937007874015748},{"duration":0.1875,"midi":38,"time":325.5,"velocity":0.3937007874015748},{"duration":0.1875,"midi":34,"time":325.5,"velocity":0.3937007874015748},{"duration":0.1875,"midi":39,"time":325.5,"velocity":0.3937007874015748},{"duration":0.75,"midi":28,"time":325.5,"velocity":0.3937007874015748},{"duration":0.1875,"midi":41,"time":325.5,"velocity":0.3937007874015748},{"duration":0.1875,"midi":40,"time":325.5,"velocity":0.3937007874015748},{"duration":0.75,"midi":40,"time":325.5,"velocity":0.3937007874015748},{"duration":0.1875,"midi":35,"time":325.5,"velocity":0.3937007874015748},{"duration":0.1875,"midi":64,"time":325.875,"velocity":0.3937007874015748},{"duration":0.1875,"midi":76,"time":325.875,"velocity":0.3937007874015748},{"duration":0.1875,"midi":52,"time":326.25,"velocity":0.3937007874015748},{"duration":0.1875,"midi":48,"time":326.25,"velocity":0.3937007874015748},{"duration":0.1875,"midi":64,"time":326.25,"velocity":0.3937007874015748},{"duration":0.1875,"midi":76,"time":326.25,"velocity":0.3937007874015748},{"duration":0.1875,"midi":76,"time":326.625,"velocity":0.3937007874015748},{"duration":0.1875,"midi":64,"time":326.625,"velocity":0.3937007874015748},{"duration":0.1875,"midi":27,"time":327,"velocity":0.3937007874015748},{"duration":0.1875,"midi":64,"time":327,"velocity":0.3937007874015748},{"duration":0.1875,"midi":29,"time":327,"velocity":0.3937007874015748},{"duration":0.1875,"midi":25,"time":327,"velocity":0.3937007874015748},{"duration":0.1875,"midi":30,"time":327,"velocity":0.3937007874015748},{"duration":0.1875,"midi":26,"time":327,"velocity":0.3937007874015748},{"duration":0.1875,"midi":24,"time":327,"velocity":0.3937007874015748},{"duration":0.1875,"midi":28,"time":327,"velocity":0.3937007874015748},{"duration":0.1875,"midi":32,"time":327,"velocity":0.3937007874015748},{"duration":0.75,"midi":45,"time":327,"velocity":0.3937007874015748},{"duration":0.75,"midi":33,"time":327,"velocity":0.3937007874015748},{"duration":0.1875,"midi":31,"time":327,"velocity":0.3937007874015748},{"duration":0.09375,"midi":88,"time":327,"velocity":0.3937007874015748},{"duration":0.1875,"midi":76,"time":327,"velocity":0.3937007874015748},{"duration":0.09375,"midi":88,"time":327.1875,"velocity":0.3937007874015748},{"duration":0.1875,"midi":64,"time":327.375,"velocity":0.3937007874015748},{"duration":0.09375,"midi":88,"time":327.375,"velocity":0.3937007874015748},{"duration":0.1875,"midi":76,"time":327.375,"velocity":0.3937007874015748},{"duration":0.09375,"midi":88,"time":327.5625,"velocity":0.3937007874015748},{"duration":0.1875,"midi":48,"time":327.75,"velocity":0.3937007874015748},{"duration":0.09375,"midi":88,"time":327.75,"velocity":0.3937007874015748},{"duration":0.1875,"midi":76,"time":327.75,"velocity":0.3937007874015748},{"duration":0.1875,"midi":64,"time":327.75,"velocity":0.3937007874015748},{"duration":0.1875,"midi":52,"time":327.75,"velocity":0.3937007874015748},{"duration":0.09375,"midi":88,"time":327.9375,"velocity":0.3937007874015748},{"duration":0.1875,"midi":76,"time":328.125,"velocity":0.3937007874015748},{"duration":0.1875,"midi":64,"time":328.125,"velocity":0.3937007874015748},{"duration":0.09375,"midi":88,"time":328.125,"velocity":0.3937007874015748},{"duration":0.09375,"midi":88,"time":328.3125,"velocity":0.3937007874015748},{"duration":0.1875,"midi":33,"time":328.5,"velocity":0.3937007874015748},{"duration":0.1875,"midi":76,"time":328.5,"velocity":0.3937007874015748},{"duration":0.1875,"midi":39,"time":328.5,"velocity":0.3937007874015748},{"duration":0.1875,"midi":34,"time":328.5,"velocity":0.3937007874015748},{"duration":0.1875,"midi":35,"time":328.5,"velocity":0.3937007874015748},{"duration":0.1875,"midi":40,"time":328.5,"velocity":0.3937007874015748},{"duration":0.1875,"midi":37,"time":328.5,"velocity":0.3937007874015748},{"duration":0.1875,"midi":41,"time":328.5,"velocity":0.3937007874015748},{"duration":0.1875,"midi":64,"time":328.5,"velocity":0.3937007874015748},{"duration":0.1875,"midi":38,"time":328.5,"velocity":0.3937007874015748},{"duration":0.75,"midi":28,"time":328.5,"velocity":0.3937007874015748},{"duration":0.09375,"midi":88,"time":328.5,"velocity":0.3937007874015748},{"duration":0.75,"midi":40,"time":328.5,"velocity":0.3937007874015748},{"duration":0.1875,"midi":36,"time":328.5,"velocity":0.3937007874015748},{"duration":0.09375,"midi":88,"time":328.6875,"velocity":0.3937007874015748},{"duration":0.1875,"midi":76,"time":328.875,"velocity":0.3937007874015748},{"duration":0.09375,"midi":88,"time":328.875,"velocity":0.3937007874015748},{"duration":0.1875,"midi":64,"time":328.875,"velocity":0.3937007874015748},{"duration":0.09375,"midi":88,"time":329.0625,"velocity":0.3937007874015748},{"duration":0.1875,"midi":52,"time":329.25,"velocity":0.3937007874015748},{"duration":0.1875,"midi":76,"time":329.25,"velocity":0.3937007874015748},{"duration":0.1875,"midi":64,"time":329.25,"velocity":0.3937007874015748},{"duration":0.09375,"midi":88,"time":329.25,"velocity":0.3937007874015748},{"duration":0.1875,"midi":48,"time":329.25,"velocity":0.3937007874015748},{"duration":0.09375,"midi":88,"time":329.4375,"velocity":0.3937007874015748},{"duration":0.1875,"midi":64,"time":329.625,"velocity":0.3937007874015748},{"duration":0.09375,"midi":88,"time":329.625,"velocity":0.3937007874015748},{"duration":0.1875,"midi":76,"time":329.625,"velocity":0.3937007874015748},{"duration":0.09375,"midi":88,"time":329.8125,"velocity":0.3937007874015748},{"duration":0.1875,"midi":26,"time":330,"velocity":0.3937007874015748},{"duration":0.09375,"midi":88,"time":330,"velocity":0.3937007874015748},{"duration":0.75,"midi":33,"time":330,"velocity":0.3937007874015748},{"duration":0.1875,"midi":29,"time":330,"velocity":0.3937007874015748},{"duration":0.1875,"midi":28,"time":330,"velocity":0.3937007874015748},{"duration":0.1875,"midi":27,"time":330,"velocity":0.3937007874015748},{"duration":0.1875,"midi":30,"time":330,"velocity":0.3937007874015748},{"duration":0.1875,"midi":64,"time":330,"velocity":0.3937007874015748},{"duration":0.75,"midi":45,"time":330,"velocity":0.3937007874015748},{"duration":0.1875,"midi":25,"time":330,"velocity":0.3937007874015748},{"duration":0.1875,"midi":76,"time":330,"velocity":0.3937007874015748},{"duration":0.1875,"midi":31,"time":330,"velocity":0.3937007874015748},{"duration":0.1875,"midi":24,"time":330,"velocity":0.3937007874015748},{"duration":0.1875,"midi":32,"time":330,"velocity":0.3937007874015748},{"duration":0.09375,"midi":88,"time":330.1875,"velocity":0.3937007874015748},{"duration":0.1875,"midi":77,"time":330.375,"velocity":0.3937007874015748},{"duration":0.09375,"midi":88,"time":330.375,"velocity":0.3937007874015748},{"duration":0.1875,"midi":65,"time":330.375,"velocity":0.3937007874015748},{"duration":0.09375,"midi":88,"time":330.5625,"velocity":0.3937007874015748},{"duration":0.1875,"midi":48,"time":330.75,"velocity":0.3937007874015748},{"duration":0.1875,"midi":76,"time":330.75,"velocity":0.3937007874015748},{"duration":0.1875,"midi":52,"time":330.75,"velocity":0.3937007874015748},{"duration":0.1875,"midi":64,"time":330.75,"velocity":0.3937007874015748},{"duration":0.1875,"midi":63,"time":331.125,"velocity":0.3937007874015748},{"duration":0.1875,"midi":75,"time":331.125,"velocity":0.3937007874015748},{"duration":0.1875,"midi":41,"time":331.5,"velocity":0.3937007874015748},{"duration":0.1875,"midi":40,"time":331.5,"velocity":0.3937007874015748},{"duration":0.1875,"midi":39,"time":331.5,"velocity":0.3937007874015748},{"duration":0.1875,"midi":38,"time":331.5,"velocity":0.3937007874015748},{"duration":0.1875,"midi":33,"time":331.5,"velocity":0.3937007874015748},{"duration":0.1875,"midi":37,"time":331.5,"velocity":0.3937007874015748},{"duration":0.1875,"midi":64,"time":331.5,"velocity":0.3937007874015748},{"duration":0.1875,"midi":36,"time":331.5,"velocity":0.3937007874015748},{"duration":0.1875,"midi":34,"time":331.5,"velocity":0.3937007874015748},{"duration":0.75,"midi":28,"time":331.5,"velocity":0.3937007874015748},{"duration":0.1875,"midi":35,"time":331.5,"velocity":0.3937007874015748},{"duration":0.1875,"midi":76,"time":331.5,"velocity":0.3937007874015748},{"duration":0.75,"midi":40,"time":331.5,"velocity":0.3937007874015748},{"duration":0.1875,"midi":69,"time":332.25,"velocity":0.3937007874015748},{"duration":0.1875,"midi":81,"time":332.25,"velocity":0.3937007874015748},{"duration":0.1875,"midi":52,"time":332.25,"velocity":0.3937007874015748},{"duration":0.1875,"midi":48,"time":332.25,"velocity":0.3937007874015748},{"duration":0.1875,"midi":72,"time":332.625,"velocity":0.3937007874015748},{"duration":0.1875,"midi":84,"time":332.625,"velocity":0.3937007874015748},{"duration":0.1875,"midi":88,"time":333,"velocity":0.3937007874015748},{"duration":0.1875,"midi":76,"time":333,"velocity":0.3937007874015748},{"duration":0.75,"midi":33,"time":333,"velocity":0.3937007874015748},{"duration":0.1875,"midi":26,"time":333,"velocity":0.3937007874015748},{"duration":0.1875,"midi":29,"time":333,"velocity":0.3937007874015748},{"duration":0.1875,"midi":25,"time":333,"velocity":0.3937007874015748},{"duration":0.1875,"midi":27,"time":333,"velocity":0.3937007874015748},{"duration":0.1875,"midi":31,"time":333,"velocity":0.3937007874015748},{"duration":0.1875,"midi":24,"time":333,"velocity":0.3937007874015748},{"duration":0.75,"midi":45,"time":333,"velocity":0.3937007874015748},{"duration":0.1875,"midi":32,"time":333,"velocity":0.3937007874015748},{"duration":0.1875,"midi":30,"time":333,"velocity":0.3937007874015748},{"duration":0.1875,"midi":28,"time":333,"velocity":0.3937007874015748},{"duration":0.1875,"midi":93,"time":333.75,"velocity":0.3937007874015748},{"duration":0.1875,"midi":52,"time":333.75,"velocity":0.3937007874015748},{"duration":0.1875,"midi":48,"time":333.75,"velocity":0.3937007874015748},{"duration":0.1875,"midi":81,"time":333.75,"velocity":0.3937007874015748},{"duration":0.75,"midi":28,"time":334.5,"velocity":0.3937007874015748},{"duration":0.75,"midi":84,"time":334.5,"velocity":0.3937007874015748},{"duration":0.1875,"midi":34,"time":334.5,"velocity":0.3937007874015748},{"duration":0.1875,"midi":35,"time":334.5,"velocity":0.3937007874015748},{"duration":0.1875,"midi":37,"time":334.5,"velocity":0.3937007874015748},{"duration":0.1875,"midi":41,"time":334.5,"velocity":0.3937007874015748},{"duration":0.1875,"midi":33,"time":334.5,"velocity":0.3937007874015748},{"duration":0.1875,"midi":38,"time":334.5,"velocity":0.3937007874015748},{"duration":0.1875,"midi":40,"time":334.5,"velocity":0.3937007874015748},{"duration":0.1875,"midi":36,"time":334.5,"velocity":0.3937007874015748},{"duration":0.1875,"midi":39,"time":334.5,"velocity":0.3937007874015748},{"duration":0.75,"midi":40,"time":334.5,"velocity":0.3937007874015748},{"duration":0.1875,"midi":48,"time":335.25,"velocity":0.3937007874015748},{"duration":0.1875,"midi":52,"time":335.25,"velocity":0.3937007874015748},{"duration":0.75,"midi":38,"time":336,"velocity":0.3937007874015748},{"duration":0.1875,"midi":31,"time":336,"velocity":0.3937007874015748},{"duration":0.1875,"midi":32,"time":336,"velocity":0.3937007874015748},{"duration":0.1875,"midi":29,"time":336,"velocity":0.3937007874015748},{"duration":0.1875,"midi":26,"time":336,"velocity":0.3937007874015748},{"duration":0.1875,"midi":30,"time":336,"velocity":0.3937007874015748},{"duration":0.1875,"midi":28,"time":336,"velocity":0.3937007874015748},{"duration":0.1875,"midi":24,"time":336,"velocity":0.3937007874015748},{"duration":0.75,"midi":50,"time":336,"velocity":0.3937007874015748},{"duration":0.1875,"midi":27,"time":336,"velocity":0.3937007874015748},{"duration":0.1875,"midi":86,"time":336,"velocity":0.3937007874015748},{"duration":0.1875,"midi":25,"time":336,"velocity":0.3937007874015748},{"duration":0.1875,"midi":84,"time":336.375,"velocity":0.3937007874015748},{"duration":0.1875,"midi":95,"time":336.75,"velocity":0.3937007874015748},{"duration":0.1875,"midi":50,"time":336.75,"velocity":0.3937007874015748},{"duration":0.1875,"midi":83,"time":336.75,"velocity":0.3937007874015748},{"duration":0.1875,"midi":53,"time":336.75,"velocity":0.3937007874015748},{"duration":0.1875,"midi":86,"time":337.125,"velocity":0.3937007874015748},{"duration":0.1875,"midi":36,"time":337.5,"velocity":0.3937007874015748},{"duration":0.1875,"midi":39,"time":337.5,"velocity":0.3937007874015748},{"duration":0.1875,"midi":33,"time":337.5,"velocity":0.3937007874015748},{"duration":0.75,"midi":48,"time":337.5,"velocity":0.3937007874015748},{"duration":0.1875,"midi":84,"time":337.5,"velocity":0.3937007874015748},{"duration":0.1875,"midi":41,"time":337.5,"velocity":0.3937007874015748},{"duration":0.75,"midi":36,"time":337.5,"velocity":0.3937007874015748},{"duration":0.1875,"midi":37,"time":337.5,"velocity":0.3937007874015748},{"duration":0.1875,"midi":38,"time":337.5,"velocity":0.3937007874015748},{"duration":0.1875,"midi":40,"time":337.5,"velocity":0.3937007874015748},{"duration":0.1875,"midi":34,"time":337.5,"velocity":0.3937007874015748},{"duration":0.1875,"midi":35,"time":337.5,"velocity":0.3937007874015748},{"duration":0.1875,"midi":95,"time":337.875,"velocity":0.3937007874015748},{"duration":0.1875,"midi":83,"time":337.875,"velocity":0.3937007874015748},{"duration":0.1875,"midi":48,"time":338.25,"velocity":0.3937007874015748},{"duration":0.1875,"midi":93,"time":338.25,"velocity":0.3937007874015748},{"duration":0.1875,"midi":81,"time":338.25,"velocity":0.3937007874015748},{"duration":0.1875,"midi":52,"time":338.25,"velocity":0.3937007874015748},{"duration":0.1875,"midi":84,"time":338.625,"velocity":0.3937007874015748},{"duration":0.75,"midi":35,"time":339,"velocity":0.3937007874015748},{"duration":0.1875,"midi":30,"time":339,"velocity":0.3937007874015748},{"duration":0.1875,"midi":95,"time":339,"velocity":0.3937007874015748},{"duration":0.1875,"midi":28,"time":339,"velocity":0.3937007874015748},{"duration":0.1875,"midi":29,"time":339,"velocity":0.3937007874015748},{"duration":0.1875,"midi":26,"time":339,"velocity":0.3937007874015748},{"duration":0.1875,"midi":27,"time":339,"velocity":0.3937007874015748},{"duration":0.1875,"midi":32,"time":339,"velocity":0.3937007874015748},{"duration":0.1875,"midi":31,"time":339,"velocity":0.3937007874015748},{"duration":0.1875,"midi":83,"time":339,"velocity":0.3937007874015748},{"duration":0.75,"midi":47,"time":339,"velocity":0.3937007874015748},{"duration":0.1875,"midi":24,"time":339,"velocity":0.3937007874015748},{"duration":0.1875,"midi":25,"time":339,"velocity":0.3937007874015748},{"duration":0.1875,"midi":81,"time":339.375,"velocity":0.3937007874015748},{"duration":0.1875,"midi":93,"time":339.375,"velocity":0.3937007874015748},{"duration":0.1875,"midi":50,"time":339.75,"velocity":0.3937007874015748},{"duration":0.1875,"midi":92,"time":339.75,"velocity":0.3937007874015748},{"duration":0.1875,"midi":80,"time":339.75,"velocity":0.3937007874015748},{"duration":0.1875,"midi":47,"time":339.75,"velocity":0.3937007874015748},{"duration":0.1875,"midi":95,"time":340.125,"velocity":0.3937007874015748},{"duration":0.1875,"midi":83,"time":340.125,"velocity":0.3937007874015748},{"duration":0.1875,"midi":39,"time":340.5,"velocity":0.3937007874015748},{"duration":0.1875,"midi":37,"time":340.5,"velocity":0.3937007874015748},{"duration":0.1875,"midi":81,"time":340.5,"velocity":0.3937007874015748},{"duration":0.1875,"midi":41,"time":340.5,"velocity":0.3937007874015748},{"duration":0.1875,"midi":40,"time":340.5,"velocity":0.3937007874015748},{"duration":0.1875,"midi":33,"time":340.5,"velocity":0.3937007874015748},{"duration":0.1875,"midi":34,"time":340.5,"velocity":0.3937007874015748},{"duration":0.1875,"midi":35,"time":340.5,"velocity":0.3937007874015748},{"duration":0.75,"midi":45,"time":340.5,"velocity":0.3937007874015748},{"duration":0.1875,"midi":36,"time":340.5,"velocity":0.3937007874015748},{"duration":0.75,"midi":33,"time":340.5,"velocity":0.3937007874015748},{"duration":0.1875,"midi":93,"time":340.5,"velocity":0.3937007874015748},{"duration":0.1875,"midi":38,"time":340.5,"velocity":0.3937007874015748},{"duration":0.1875,"midi":88,"time":340.875,"velocity":0.3937007874015748},{"duration":0.1875,"midi":76,"time":340.875,"velocity":0.3937007874015748},{"duration":0.1875,"midi":48,"time":341.25,"velocity":0.3937007874015748},{"duration":0.1875,"midi":84,"time":341.25,"velocity":0.3937007874015748},{"duration":0.1875,"midi":72,"time":341.25,"velocity":0.3937007874015748},{"duration":0.1875,"midi":45,"time":341.25,"velocity":0.3937007874015748},{"duration":0.1875,"midi":69,"time":341.625,"velocity":0.3937007874015748},{"duration":0.1875,"midi":81,"time":341.625,"velocity":0.3937007874015748},{"duration":0.1875,"midi":30,"time":342,"velocity":0.3937007874015748},{"duration":0.1875,"midi":29,"time":342,"velocity":0.3937007874015748},{"duration":0.1875,"midi":28,"time":342,"velocity":0.3937007874015748},{"duration":0.1875,"midi":32,"time":342,"velocity":0.3937007874015748},{"duration":0.1875,"midi":31,"time":342,"velocity":0.3937007874015748},{"duration":0.1875,"midi":24,"time":342,"velocity":0.3937007874015748},{"duration":0.1875,"midi":27,"time":342,"velocity":0.3937007874015748},{"duration":0.1875,"midi":25,"time":342,"velocity":0.3937007874015748},{"duration":0.75,"midi":28,"time":342,"velocity":0.3937007874015748},{"duration":0.1875,"midi":89,"time":342,"velocity":0.3937007874015748},{"duration":0.75,"midi":40,"time":342,"velocity":0.3937007874015748},{"duration":0.1875,"midi":26,"time":342,"velocity":0.3937007874015748},{"duration":0.1875,"midi":77,"time":342,"velocity":0.3937007874015748},{"duration":0.1875,"midi":88,"time":342.375,"velocity":0.3937007874015748},{"duration":0.1875,"midi":76,"time":342.375,"velocity":0.3937007874015748},{"duration":0.75,"midi":30,"time":342.75,"velocity":0.3937007874015748},{"duration":0.1875,"midi":74,"time":342.75,"velocity":0.3937007874015748},{"duration":0.1875,"midi":86,"time":342.75,"velocity":0.3937007874015748},{"duration":0.75,"midi":42,"time":342.75,"velocity":0.3937007874015748},{"duration":0.1875,"midi":72,"time":343.125,"velocity":0.3937007874015748},{"duration":0.1875,"midi":84,"time":343.125,"velocity":0.3937007874015748},{"duration":0.1875,"midi":41,"time":343.5,"velocity":0.3937007874015748},{"duration":0.1875,"midi":39,"time":343.5,"velocity":0.3937007874015748},{"duration":0.1875,"midi":34,"time":343.5,"velocity":0.3937007874015748},{"duration":0.1875,"midi":40,"time":343.5,"velocity":0.3937007874015748},{"duration":0.1875,"midi":36,"time":343.5,"velocity":0.3937007874015748},{"duration":0.1875,"midi":33,"time":343.5,"velocity":0.3937007874015748},{"duration":0.1875,"midi":38,"time":343.5,"velocity":0.3937007874015748},{"duration":0.75,"midi":32,"time":343.5,"velocity":0.3937007874015748},{"duration":0.1875,"midi":83,"time":343.5,"velocity":0.3937007874015748},{"duration":0.1875,"midi":35,"time":343.5,"velocity":0.3937007874015748},{"duration":0.1875,"midi":71,"time":343.5,"velocity":0.3937007874015748},{"duration":0.1875,"midi":37,"time":343.5,"velocity":0.3937007874015748},{"duration":0.75,"midi":44,"time":343.5,"velocity":0.3937007874015748},{"duration":0.1875,"midi":81,"time":343.875,"velocity":0.3937007874015748},{"duration":0.1875,"midi":69,"time":343.875,"velocity":0.3937007874015748},{"duration":0.1875,"midi":80,"time":344.25,"velocity":0.3937007874015748},{"duration":0.75,"midi":28,"time":344.25,"velocity":0.3937007874015748},{"duration":0.1875,"midi":68,"time":344.25,"velocity":0.3937007874015748},{"duration":0.75,"midi":40,"time":344.25,"velocity":0.3937007874015748},{"duration":0.1875,"midi":71,"time":344.625,"velocity":0.3937007874015748},{"duration":0.1875,"midi":83,"time":344.625,"velocity":0.3937007874015748},{"duration":0.1875,"midi":69,"time":345,"velocity":0.3937007874015748},{"duration":0.1875,"midi":24,"time":345,"velocity":0.3937007874015748},{"duration":0.1875,"midi":30,"time":345,"velocity":0.3937007874015748},{"duration":0.1875,"midi":28,"time":345,"velocity":0.3937007874015748},{"duration":0.1875,"midi":27,"time":345,"velocity":0.3937007874015748},{"duration":0.75,"midi":33,"time":345,"velocity":0.3937007874015748},{"duration":0.1875,"midi":32,"time":345,"velocity":0.3937007874015748},{"duration":0.75,"midi":45,"time":345,"velocity":0.3937007874015748},{"duration":0.1875,"midi":31,"time":345,"velocity":0.3937007874015748},{"duration":0.1875,"midi":25,"time":345,"velocity":0.3937007874015748},{"duration":0.1875,"midi":26,"time":345,"velocity":0.3937007874015748},{"duration":0.1875,"midi":81,"time":345,"velocity":0.3937007874015748},{"duration":0.1875,"midi":29,"time":345,"velocity":0.3937007874015748},{"duration":1.40625,"midi":33,"time":346.5,"velocity":0.3937007874015748},{"duration":1.40625,"midi":45,"time":346.5,"velocity":0.3937007874015748},{"duration":0.1875,"midi":47,"time":347.8125,"velocity":0.3937007874015748},{"duration":0.1875,"midi":35,"time":347.8125,"velocity":0.3937007874015748},{"duration":0.1875,"midi":37,"time":347.90625,"velocity":0.3937007874015748},{"duration":0.1875,"midi":49,"time":347.90625,"velocity":0.3937007874015748},{"duration":0.75,"midi":50,"time":348,"velocity":0.3937007874015748},{"duration":0.9375,"midi":77,"time":348,"velocity":0.3937007874015748},{"duration":0.9375,"midi":74,"time":348,"velocity":0.3937007874015748},{"duration":0.9375,"midi":86,"time":348,"velocity":0.3937007874015748},{"duration":0.75,"midi":38,"time":348,"velocity":0.3937007874015748},{"duration":0.9375,"midi":65,"time":348,"velocity":0.3937007874015748},{"duration":0.1875,"midi":50,"time":348.75,"velocity":0.3937007874015748},{"duration":0.1875,"midi":57,"time":348.75,"velocity":0.3937007874015748},{"duration":0.1875,"midi":53,"time":348.75,"velocity":0.3937007874015748},{"duration":0.1875,"midi":64,"time":349.125,"velocity":0.3937007874015748},{"duration":0.1875,"midi":77,"time":349.125,"velocity":0.3937007874015748},{"duration":0.1875,"midi":73,"time":349.125,"velocity":0.3937007874015748},{"duration":0.1875,"midi":85,"time":349.125,"velocity":0.3937007874015748},{"duration":0.1875,"midi":65,"time":349.5,"velocity":0.3937007874015748},{"duration":0.1875,"midi":86,"time":349.5,"velocity":0.3937007874015748},{"duration":0.1875,"midi":77,"time":349.5,"velocity":0.3937007874015748},{"duration":0.1875,"midi":74,"time":349.5,"velocity":0.3937007874015748},{"duration":0.1875,"midi":53,"time":350.25,"velocity":0.3937007874015748},{"duration":0.1875,"midi":57,"time":350.25,"velocity":0.3937007874015748},{"duration":0.375,"midi":79,"time":350.25,"velocity":0.3937007874015748},{"duration":0.375,"midi":88,"time":350.25,"velocity":0.3937007874015748},{"duration":0.375,"midi":67,"time":350.25,"velocity":0.3937007874015748},{"duration":0.375,"midi":76,"time":350.25,"velocity":0.3937007874015748},{"duration":0.1875,"midi":50,"time":350.25,"velocity":0.3937007874015748},{"duration":0.375,"midi":69,"time":351,"velocity":0.3937007874015748},{"duration":0.375,"midi":77,"time":351,"velocity":0.3937007874015748},{"duration":0.375,"midi":81,"time":351,"velocity":0.3937007874015748},{"duration":0.375,"midi":89,"time":351,"velocity":0.3937007874015748},{"duration":0.1875,"midi":57,"time":351.75,"velocity":0.3937007874015748},{"duration":0.375,"midi":76,"time":351.75,"velocity":0.3937007874015748},{"duration":0.1875,"midi":53,"time":351.75,"velocity":0.3937007874015748},{"duration":0.375,"midi":67,"time":351.75,"velocity":0.3937007874015748},{"duration":0.1875,"midi":50,"time":351.75,"velocity":0.3937007874015748},{"duration":0.375,"midi":79,"time":351.75,"velocity":0.3937007874015748},{"duration":0.375,"midi":88,"time":351.75,"velocity":0.3937007874015748},{"duration":0.9375,"midi":50,"time":352.5,"velocity":0.3937007874015748},{"duration":0.375,"midi":65,"time":352.5,"velocity":0.3937007874015748},{"duration":0.375,"midi":77,"time":352.5,"velocity":0.3937007874015748},{"duration":1.40625,"midi":38,"time":352.5,"velocity":0.3937007874015748},{"duration":0.375,"midi":74,"time":352.5,"velocity":0.3937007874015748},{"duration":0.375,"midi":86,"time":352.5,"velocity":0.3937007874015748},{"duration":0.375,"midi":77,"time":353.25,"velocity":0.3937007874015748},{"duration":0.1875,"midi":57,"time":353.25,"velocity":0.3937007874015748},{"duration":0.1875,"midi":53,"time":353.25,"velocity":0.3937007874015748},{"duration":0.65625,"midi":50,"time":353.25,"velocity":0.3937007874015748},{"duration":0.375,"midi":89,"time":353.25,"velocity":0.3937007874015748},{"duration":0.375,"midi":81,"time":353.25,"velocity":0.3937007874015748},{"duration":0.375,"midi":69,"time":353.25,"velocity":0.3937007874015748},{"duration":0.1875,"midi":36,"time":353.8125,"velocity":0.3937007874015748},{"duration":0.1875,"midi":48,"time":353.8125,"velocity":0.3937007874015748},{"duration":0.1875,"midi":35,"time":353.90625,"velocity":0.3937007874015748},{"duration":0.1875,"midi":47,"time":353.90625,"velocity":0.3937007874015748},{"duration":0.75,"midi":33,"time":354,"velocity":0.3937007874015748},{"duration":0.75,"midi":45,"time":354,"velocity":0.3937007874015748},{"duration":0.9375,"midi":88,"time":354,"velocity":0.3937007874015748},{"duration":0.9375,"midi":72,"time":354,"velocity":0.3937007874015748},{"duration":0.9375,"midi":84,"time":354,"velocity":0.3937007874015748},{"duration":0.9375,"midi":76,"time":354,"velocity":0.3937007874015748},{"duration":0.1875,"midi":57,"time":354.75,"velocity":0.3937007874015748},{"duration":0.1875,"midi":52,"time":354.75,"velocity":0.3937007874015748},{"duration":0.1875,"midi":48,"time":354.75,"velocity":0.3937007874015748},{"duration":0.1875,"midi":74,"time":355.125,"velocity":0.3937007874015748},{"duration":0.1875,"midi":83,"time":355.125,"velocity":0.3937007874015748},{"duration":0.1875,"midi":71,"time":355.125,"velocity":0.3937007874015748},{"duration":0.1875,"midi":86,"time":355.125,"velocity":0.3937007874015748},{"duration":0.375,"midi":81,"time":355.5,"velocity":0.3937007874015748},{"duration":0.375,"midi":84,"time":355.5,"velocity":0.3937007874015748},{"duration":0.375,"midi":72,"time":355.5,"velocity":0.3937007874015748},{"duration":0.375,"midi":69,"time":355.5,"velocity":0.3937007874015748},{"duration":0.375,"midi":74,"time":356.25,"velocity":0.3937007874015748},{"duration":0.375,"midi":71,"time":356.25,"velocity":0.3937007874015748},{"duration":0.1875,"midi":52,"time":356.25,"velocity":0.3937007874015748},{"duration":0.375,"midi":86,"time":356.25,"velocity":0.3937007874015748},{"duration":0.375,"midi":83,"time":356.25,"velocity":0.3937007874015748},{"duration":0.1875,"midi":48,"time":356.25,"velocity":0.3937007874015748},{"duration":0.1875,"midi":57,"time":356.25,"velocity":0.3937007874015748},{"duration":1.875,"midi":88,"time":357,"velocity":0.3937007874015748},{"duration":1.875,"midi":84,"time":357,"velocity":0.3937007874015748},{"duration":1.875,"midi":76,"time":357,"velocity":0.3937007874015748},{"duration":1.875,"midi":72,"time":357,"velocity":0.3937007874015748},{"duration":0.1875,"midi":52,"time":357.75,"velocity":0.3937007874015748},{"duration":0.1875,"midi":48,"time":357.75,"velocity":0.3937007874015748},{"duration":0.1875,"midi":57,"time":357.75,"velocity":0.3937007874015748},{"duration":1.3125,"midi":45,"time":358.5,"velocity":0.3937007874015748},{"duration":1.3125,"midi":33,"time":358.5,"velocity":0.3937007874015748},{"duration":0.1875,"midi":48,"time":359.25,"velocity":0.3937007874015748},{"duration":0.1875,"midi":57,"time":359.25,"velocity":0.3937007874015748},{"duration":0.375,"midi":72,"time":359.25,"velocity":0.3937007874015748},{"duration":0.375,"midi":69,"time":359.25,"velocity":0.3937007874015748},{"duration":0.375,"midi":81,"time":359.25,"velocity":0.3937007874015748},{"duration":0.1875,"midi":52,"time":359.25,"velocity":0.3937007874015748},{"duration":0.375,"midi":84,"time":359.25,"velocity":0.3937007874015748},{"duration":0.1875,"midi":47,"time":359.71875,"velocity":0.3937007874015748},{"duration":0.1875,"midi":35,"time":359.71875,"velocity":0.3937007874015748},{"duration":0.1875,"midi":48,"time":359.8125,"velocity":0.3937007874015748},{"duration":0.1875,"midi":36,"time":359.8125,"velocity":0.3937007874015748},{"duration":0.1875,"midi":38,"time":359.90625,"velocity":0.3937007874015748},{"duration":0.1875,"midi":50,"time":359.90625,"velocity":0.3937007874015748},{"duration":0.9375,"midi":68,"time":360,"velocity":0.3937007874015748},{"duration":0.9375,"midi":71,"time":360,"velocity":0.3937007874015748},{"duration":0.9375,"midi":80,"time":360,"velocity":0.3937007874015748},{"duration":0.75,"midi":40,"time":360,"velocity":0.3937007874015748},{"duration":0.75,"midi":52,"time":360,"velocity":0.3937007874015748},{"duration":0.9375,"midi":83,"time":360,"velocity":0.3937007874015748},{"duration":0.1875,"midi":52,"time":360.75,"velocity":0.3937007874015748},{"duration":0.1875,"midi":59,"time":360.75,"velocity":0.3937007874015748},{"duration":0.1875,"midi":56,"time":360.75,"velocity":0.3937007874015748},{"duration":0.1875,"midi":70,"time":361.125,"velocity":0.3937007874015748},{"duration":0.1875,"midi":82,"time":361.125,"velocity":0.3937007874015748},{"duration":0.1875,"midi":79,"time":361.125,"velocity":0.3937007874015748},{"duration":0.1875,"midi":67,"time":361.125,"velocity":0.3937007874015748},{"duration":0.5625,"midi":80,"time":361.5,"velocity":0.3937007874015748},{"duration":0.5625,"midi":83,"time":361.5,"velocity":0.3937007874015748},{"duration":0.5625,"midi":68,"time":361.5,"velocity":0.3937007874015748},{"duration":0.5625,"midi":71,"time":361.5,"velocity":0.3937007874015748},{"duration":0.375,"midi":81,"time":362.25,"velocity":0.3937007874015748},{"duration":0.375,"midi":84,"time":362.25,"velocity":0.3937007874015748},{"duration":0.1875,"midi":56,"time":362.25,"velocity":0.3937007874015748},{"duration":0.375,"midi":69,"time":362.25,"velocity":0.3937007874015748},{"duration":0.1875,"midi":52,"time":362.25,"velocity":0.3937007874015748},{"duration":0.375,"midi":72,"time":362.25,"velocity":0.3937007874015748},{"duration":0.1875,"midi":59,"time":362.25,"velocity":0.3937007874015748},{"duration":0.375,"midi":83,"time":363,"velocity":0.3937007874015748},{"duration":0.375,"midi":71,"time":363,"velocity":0.3937007874015748},{"duration":0.375,"midi":74,"time":363,"velocity":0.3937007874015748},{"duration":0.375,"midi":86,"time":363,"velocity":0.3937007874015748},{"duration":0.375,"midi":69,"time":363.75,"velocity":0.3937007874015748},{"duration":0.375,"midi":81,"time":363.75,"velocity":0.3937007874015748},{"duration":0.1875,"midi":59,"time":363.75,"velocity":0.3937007874015748},{"duration":0.375,"midi":84,"time":363.75,"velocity":0.3937007874015748},{"duration":0.1875,"midi":56,"time":363.75,"velocity":0.3937007874015748},{"duration":0.1875,"midi":52,"time":363.75,"velocity":0.3937007874015748},{"duration":0.375,"midi":72,"time":363.75,"velocity":0.3937007874015748},{"duration":0.375,"midi":68,"time":364.5,"velocity":0.3937007874015748},{"duration":0.375,"midi":80,"time":364.5,"velocity":0.3937007874015748},{"duration":0.9375,"midi":52,"time":364.5,"velocity":0.3937007874015748},{"duration":0.375,"midi":71,"time":364.5,"velocity":0.3937007874015748},{"duration":0.375,"midi":83,"time":364.5,"velocity":0.3937007874015748},{"duration":1.3125,"midi":40,"time":364.5,"velocity":0.3937007874015748},{"duration":0.375,"midi":86,"time":365.25,"velocity":0.3937007874015748},{"duration":0.375,"midi":71,"time":365.25,"velocity":0.3937007874015748},{"duration":0.375,"midi":74,"time":365.25,"velocity":0.3937007874015748},{"duration":0.1875,"midi":59,"time":365.25,"velocity":0.3937007874015748},{"duration":0.1875,"midi":56,"time":365.25,"velocity":0.3937007874015748},{"duration":0.5625,"midi":52,"time":365.25,"velocity":0.3937007874015748},{"duration":0.375,"midi":83,"time":365.25,"velocity":0.3937007874015748},{"duration":0.1875,"midi":38,"time":365.71875,"velocity":0.3937007874015748},{"duration":0.1875,"midi":50,"time":365.71875,"velocity":0.3937007874015748},{"duration":0.1875,"midi":36,"time":365.8125,"velocity":0.3937007874015748},{"duration":0.1875,"midi":48,"time":365.8125,"velocity":0.3937007874015748},{"duration":0.1875,"midi":47,"time":365.90625,"velocity":0.3937007874015748},{"duration":0.1875,"midi":35,"time":365.90625,"velocity":0.3937007874015748},{"duration":0.375,"midi":84,"time":366,"velocity":0.3937007874015748},{"duration":0.375,"midi":69,"time":366,"velocity":0.3937007874015748},{"duration":0.375,"midi":81,"time":366,"velocity":0.3937007874015748},{"duration":0.375,"midi":45,"time":366,"velocity":0.3937007874015748},{"duration":0.375,"midi":72,"time":366,"velocity":0.3937007874015748},{"duration":0.375,"midi":33,"time":366,"velocity":0.3937007874015748},{"duration":0.375,"midi":33,"time":366.75,"velocity":0.3937007874015748},{"duration":0.375,"midi":69,"time":366.75,"velocity":0.3937007874015748},{"duration":0.375,"midi":72,"time":366.75,"velocity":0.3937007874015748},{"duration":0.375,"midi":81,"time":366.75,"velocity":0.3937007874015748},{"duration":0.375,"midi":60,"time":366.75,"velocity":0.3937007874015748},{"duration":0.375,"midi":45,"time":366.75,"velocity":0.3937007874015748},{"duration":0.375,"midi":76,"time":367.5,"velocity":0.3937007874015748},{"duration":0.375,"midi":48,"time":367.5,"velocity":0.3937007874015748},{"duration":0.375,"midi":64,"time":367.5,"velocity":0.3937007874015748},{"duration":0.375,"midi":84,"time":367.5,"velocity":0.3937007874015748},{"duration":0.375,"midi":36,"time":367.5,"velocity":0.3937007874015748},{"duration":0.375,"midi":72,"time":367.5,"velocity":0.3937007874015748},{"duration":0.375,"midi":81,"time":368.25,"velocity":0.3937007874015748},{"duration":0.375,"midi":88,"time":368.25,"velocity":0.3937007874015748},{"duration":0.375,"midi":52,"time":368.25,"velocity":0.3937007874015748},{"duration":0.375,"midi":69,"time":368.25,"velocity":0.3937007874015748},{"duration":0.375,"midi":76,"time":368.25,"velocity":0.3937007874015748},{"duration":0.375,"midi":40,"time":368.25,"velocity":0.3937007874015748},{"duration":0.375,"midi":57,"time":369,"velocity":0.3937007874015748},{"duration":0.375,"midi":45,"time":369,"velocity":0.3937007874015748},{"duration":0.375,"midi":45,"time":369,"velocity":0.3937007874015748},{"duration":0.375,"midi":76,"time":369,"velocity":0.3937007874015748},{"duration":0.375,"midi":45,"time":369,"velocity":0.3937007874015748},{"duration":0.375,"midi":57,"time":369,"velocity":0.3937007874015748},{"duration":0.375,"midi":93,"time":369,"velocity":0.3937007874015748},{"duration":0.375,"midi":81,"time":369,"velocity":0.3937007874015748},{"duration":0.375,"midi":45,"time":369,"velocity":0.3937007874015748},{"duration":0.375,"midi":57,"time":369,"velocity":0.3937007874015748},{"duration":0.375,"midi":45,"time":369,"velocity":0.3937007874015748},{"duration":0.375,"midi":88,"time":369,"velocity":0.3937007874015748},{"duration":0.375,"midi":45,"time":369,"velocity":0.3937007874015748},{"duration":0.375,"midi":57,"time":369,"velocity":0.3937007874015748},{"duration":0.375,"midi":76,"time":369.75,"velocity":0.3937007874015748},{"duration":0.375,"midi":81,"time":369.75,"velocity":0.3937007874015748},{"duration":0.375,"midi":52,"time":369.75,"velocity":0.3937007874015748},{"duration":0.375,"midi":69,"time":369.75,"velocity":0.3937007874015748},{"duration":0.375,"midi":40,"time":369.75,"velocity":0.3937007874015748},{"duration":0.375,"midi":40,"time":369.75,"velocity":0.3937007874015748},{"duration":0.375,"midi":52,"time":369.75,"velocity":0.3937007874015748},{"duration":0.375,"midi":88,"time":369.75,"velocity":0.3937007874015748},{"duration":0.375,"midi":76,"time":370.5,"velocity":0.3937007874015748},{"duration":0.375,"midi":84,"time":370.5,"velocity":0.3937007874015748},{"duration":0.375,"midi":36,"time":370.5,"velocity":0.3937007874015748},{"duration":0.375,"midi":48,"time":370.5,"velocity":0.3937007874015748},{"duration":0.375,"midi":64,"time":370.5,"velocity":0.3937007874015748},{"duration":0.375,"midi":48,"time":370.5,"velocity":0.3937007874015748},{"duration":0.375,"midi":36,"time":370.5,"velocity":0.3937007874015748},{"duration":0.375,"midi":72,"time":370.5,"velocity":0.3937007874015748},{"duration":0.375,"midi":33,"time":371.25,"velocity":0.3937007874015748},{"duration":0.375,"midi":45,"time":371.25,"velocity":0.3937007874015748},{"duration":0.375,"midi":45,"time":371.25,"velocity":0.3937007874015748},{"duration":0.375,"midi":72,"time":371.25,"velocity":0.3937007874015748},{"duration":0.375,"midi":33,"time":371.25,"velocity":0.3937007874015748},{"duration":0.375,"midi":33,"time":371.25,"velocity":0.3937007874015748},{"duration":0.375,"midi":45,"time":371.25,"velocity":0.3937007874015748},{"duration":0.375,"midi":45,"time":371.25,"velocity":0.3937007874015748},{"duration":0.375,"midi":60,"time":371.25,"velocity":0.3937007874015748},{"duration":0.375,"midi":33,"time":371.25,"velocity":0.3937007874015748},{"duration":0.375,"midi":81,"time":371.25,"velocity":0.3937007874015748},{"duration":0.375,"midi":69,"time":371.25,"velocity":0.3937007874015748},{"duration":0.9375,"midi":65,"time":372,"velocity":0.3937007874015748},{"duration":0.1875,"midi":34,"time":372,"velocity":0.3937007874015748},{"duration":0.1875,"midi":38,"time":372,"velocity":0.3937007874015748},{"duration":0.1875,"midi":33,"time":372,"velocity":0.3937007874015748},{"duration":0.9375,"midi":86,"time":372,"velocity":0.3937007874015748},{"duration":0.1875,"midi":36,"time":372,"velocity":0.3937007874015748},{"duration":0.1875,"midi":39,"time":372,"velocity":0.3937007874015748},{"duration":0.75,"midi":50,"time":372,"velocity":0.3937007874015748},{"duration":0.9375,"midi":74,"time":372,"velocity":0.3937007874015748},{"duration":0.1875,"midi":37,"time":372,"velocity":0.3937007874015748},{"duration":0.1875,"midi":41,"time":372,"velocity":0.3937007874015748},{"duration":0.1875,"midi":35,"time":372,"velocity":0.3937007874015748},{"duration":0.75,"midi":38,"time":372,"velocity":0.3937007874015748},{"duration":0.1875,"midi":40,"time":372,"velocity":0.3937007874015748},{"duration":0.9375,"midi":77,"time":372,"velocity":0.3937007874015748},{"duration":0.28125,"midi":57,"time":372.75,"velocity":0.3937007874015748},{"duration":0.28125,"midi":53,"time":372.75,"velocity":0.3937007874015748},{"duration":0.28125,"midi":50,"time":372.75,"velocity":0.3937007874015748},{"duration":0.1875,"midi":64,"time":373.125,"velocity":0.3937007874015748},{"duration":0.1875,"midi":73,"time":373.125,"velocity":0.3937007874015748},{"duration":0.1875,"midi":77,"time":373.125,"velocity":0.3937007874015748},{"duration":0.1875,"midi":85,"time":373.125,"velocity":0.3937007874015748},{"duration":0.1875,"midi":86,"time":373.5,"velocity":0.3937007874015748},{"duration":0.1875,"midi":74,"time":373.5,"velocity":0.3937007874015748},{"duration":0.1875,"midi":26,"time":373.5,"velocity":0.3937007874015748},{"duration":0.1875,"midi":65,"time":373.5,"velocity":0.3937007874015748},{"duration":0.1875,"midi":32,"time":373.5,"velocity":0.3937007874015748},{"duration":0.1875,"midi":28,"time":373.5,"velocity":0.3937007874015748},{"duration":0.1875,"midi":25,"time":373.5,"velocity":0.3937007874015748},{"duration":0.1875,"midi":29,"time":373.5,"velocity":0.3937007874015748},{"duration":0.1875,"midi":77,"time":373.5,"velocity":0.3937007874015748},{"duration":0.75,"midi":45,"time":373.5,"velocity":0.3937007874015748},{"duration":0.1875,"midi":31,"time":373.5,"velocity":0.3937007874015748},{"duration":0.1875,"midi":24,"time":373.5,"velocity":0.3937007874015748},{"duration":0.1875,"midi":30,"time":373.5,"velocity":0.3937007874015748},{"duration":0.1875,"midi":27,"time":373.5,"velocity":0.3937007874015748},{"duration":0.375,"midi":76,"time":374.25,"velocity":0.3937007874015748},{"duration":0.375,"midi":88,"time":374.25,"velocity":0.3937007874015748},{"duration":0.375,"midi":67,"time":374.25,"velocity":0.3937007874015748},{"duration":0.28125,"midi":57,"time":374.25,"velocity":0.3937007874015748},{"duration":0.28125,"midi":53,"time":374.25,"velocity":0.3937007874015748},{"duration":0.28125,"midi":50,"time":374.25,"velocity":0.3937007874015748},{"duration":0.375,"midi":79,"time":374.25,"velocity":0.3937007874015748},{"duration":0.1875,"midi":34,"time":375,"velocity":0.3937007874015748},{"duration":0.375,"midi":89,"time":375,"velocity":0.3937007874015748},{"duration":0.1875,"midi":37,"time":375,"velocity":0.3937007874015748},{"duration":0.1875,"midi":40,"time":375,"velocity":0.3937007874015748},{"duration":0.1875,"midi":39,"time":375,"velocity":0.3937007874015748},{"duration":0.1875,"midi":41,"time":375,"velocity":0.3937007874015748},{"duration":0.1875,"midi":38,"time":375,"velocity":0.3937007874015748},{"duration":0.1875,"midi":35,"time":375,"velocity":0.3937007874015748},{"duration":0.75,"midi":38,"time":375,"velocity":0.3937007874015748},{"duration":0.375,"midi":77,"time":375,"velocity":0.3937007874015748},{"duration":0.375,"midi":81,"time":375,"velocity":0.3937007874015748},{"duration":0.1875,"midi":33,"time":375,"velocity":0.3937007874015748},{"duration":0.75,"midi":50,"time":375,"velocity":0.3937007874015748},{"duration":0.1875,"midi":36,"time":375,"velocity":0.3937007874015748},{"duration":0.375,"midi":69,"time":375,"velocity":0.3937007874015748},{"duration":0.375,"midi":76,"time":375.75,"velocity":0.3937007874015748},{"duration":0.28125,"midi":50,"time":375.75,"velocity":0.3937007874015748},{"duration":0.375,"midi":79,"time":375.75,"velocity":0.3937007874015748},{"duration":0.375,"midi":88,"time":375.75,"velocity":0.3937007874015748},{"duration":0.28125,"midi":53,"time":375.75,"velocity":0.3937007874015748},{"duration":0.375,"midi":67,"time":375.75,"velocity":0.3937007874015748},{"duration":0.28125,"midi":57,"time":375.75,"velocity":0.3937007874015748},{"duration":0.1875,"midi":30,"time":376.5,"velocity":0.3937007874015748},{"duration":0.375,"midi":77,"time":376.5,"velocity":0.3937007874015748},{"duration":0.1875,"midi":28,"time":376.5,"velocity":0.3937007874015748},{"duration":0.375,"midi":74,"time":376.5,"velocity":0.3937007874015748},{"duration":0.75,"midi":45,"time":376.5,"velocity":0.3937007874015748},{"duration":0.1875,"midi":29,"time":376.5,"velocity":0.3937007874015748},{"duration":0.1875,"midi":24,"time":376.5,"velocity":0.3937007874015748},{"duration":0.1875,"midi":25,"time":376.5,"velocity":0.3937007874015748},{"duration":0.1875,"midi":32,"time":376.5,"velocity":0.3937007874015748},{"duration":0.375,"midi":86,"time":376.5,"velocity":0.3937007874015748},{"duration":0.375,"midi":65,"time":376.5,"velocity":0.3937007874015748},{"duration":0.1875,"midi":26,"time":376.5,"velocity":0.3937007874015748},{"duration":0.1875,"midi":27,"time":376.5,"velocity":0.3937007874015748},{"duration":0.1875,"midi":31,"time":376.5,"velocity":0.3937007874015748},{"duration":0.375,"midi":81,"time":377.25,"velocity":0.3937007874015748},{"duration":0.375,"midi":77,"time":377.25,"velocity":0.3937007874015748},{"duration":0.28125,"midi":57,"time":377.25,"velocity":0.3937007874015748},{"duration":0.28125,"midi":50,"time":377.25,"velocity":0.3937007874015748},{"duration":0.28125,"midi":53,"time":377.25,"velocity":0.3937007874015748},{"duration":0.375,"midi":89,"time":377.25,"velocity":0.3937007874015748},{"duration":0.375,"midi":69,"time":377.25,"velocity":0.3937007874015748},{"duration":0.9375,"midi":60,"time":378,"velocity":0.3937007874015748},{"duration":0.9375,"midi":84,"time":378,"velocity":0.3937007874015748},{"duration":0.1875,"midi":35,"time":378,"velocity":0.3937007874015748},{"duration":0.1875,"midi":38,"time":378,"velocity":0.3937007874015748},{"duration":0.1875,"midi":40,"time":378,"velocity":0.3937007874015748},{"duration":0.1875,"midi":33,"time":378,"velocity":0.3937007874015748},{"duration":0.1875,"midi":36,"time":378,"velocity":0.3937007874015748},{"duration":0.1875,"midi":39,"time":378,"velocity":0.3937007874015748},{"duration":0.1875,"midi":37,"time":378,"velocity":0.3937007874015748},{"duration":0.75,"midi":48,"time":378,"velocity":0.3937007874015748},{"duration":0.75,"midi":36,"time":378,"velocity":0.3937007874015748},{"duration":0.1875,"midi":34,"time":378,"velocity":0.3937007874015748},{"duration":0.9375,"midi":64,"time":378,"velocity":0.3937007874015748},{"duration":0.1875,"midi":41,"time":378,"velocity":0.3937007874015748},{"duration":0.9375,"midi":76,"time":378,"velocity":0.3937007874015748},{"duration":0.9375,"midi":88,"time":378,"velocity":0.3937007874015748},{"duration":0.9375,"midi":72,"time":378,"velocity":0.3937007874015748},{"duration":0.28125,"midi":57,"time":378.75,"velocity":0.3937007874015748},{"duration":0.28125,"midi":52,"time":378.75,"velocity":0.3937007874015748},{"duration":0.28125,"midi":48,"time":378.75,"velocity":0.3937007874015748},{"duration":0.1875,"midi":86,"time":379.125,"velocity":0.3937007874015748},{"duration":0.1875,"midi":71,"time":379.125,"velocity":0.3937007874015748},{"duration":0.1875,"midi":74,"time":379.125,"velocity":0.3937007874015748},{"duration":0.1875,"midi":83,"time":379.125,"velocity":0.3937007874015748},{"duration":0.1875,"midi":62,"time":379.125,"velocity":0.3937007874015748},{"duration":0.1875,"midi":59,"time":379.125,"velocity":0.3937007874015748},{"duration":0.375,"midi":60,"time":379.5,"velocity":0.3937007874015748},{"duration":0.1875,"midi":25,"time":379.5,"velocity":0.3937007874015748},{"duration":0.1875,"midi":24,"time":379.5,"velocity":0.3937007874015748},{"duration":0.1875,"midi":26,"time":379.5,"velocity":0.3937007874015748},{"duration":0.375,"midi":72,"time":379.5,"velocity":0.3937007874015748},{"duration":0.1875,"midi":32,"time":379.5,"velocity":0.3937007874015748},{"duration":0.375,"midi":84,"time":379.5,"velocity":0.3937007874015748},{"duration":0.375,"midi":57,"time":379.5,"velocity":0.3937007874015748},{"duration":0.46875,"midi":45,"time":379.5,"velocity":0.3937007874015748},{"duration":0.1875,"midi":31,"time":379.5,"velocity":0.3937007874015748},{"duration":0.1875,"midi":28,"time":379.5,"velocity":0.3937007874015748},{"duration":0.1875,"midi":29,"time":379.5,"velocity":0.3937007874015748},{"duration":0.1875,"midi":27,"time":379.5,"velocity":0.3937007874015748},{"duration":0.1875,"midi":30,"time":379.5,"velocity":0.3937007874015748},{"duration":0.375,"midi":69,"time":379.5,"velocity":0.3937007874015748},{"duration":0.375,"midi":81,"time":379.5,"velocity":0.3937007874015748},{"duration":0.28125,"midi":57,"time":380.25,"velocity":0.3937007874015748},{"duration":0.375,"midi":74,"time":380.25,"velocity":0.3937007874015748},{"duration":0.28125,"midi":52,"time":380.25,"velocity":0.3937007874015748},{"duration":0.28125,"midi":48,"time":380.25,"velocity":0.3937007874015748},{"duration":0.375,"midi":59,"time":380.25,"velocity":0.3937007874015748},{"duration":0.375,"midi":71,"time":380.25,"velocity":0.3937007874015748},{"duration":0.375,"midi":86,"time":380.25,"velocity":0.3937007874015748},{"duration":0.375,"midi":62,"time":380.25,"velocity":0.3937007874015748},{"duration":0.375,"midi":83,"time":380.25,"velocity":0.3937007874015748},{"duration":1.125,"midi":88,"time":381,"velocity":0.3937007874015748},{"duration":0.1875,"midi":40,"time":381,"velocity":0.3937007874015748},{"duration":1.125,"midi":76,"time":381,"velocity":0.3937007874015748},{"duration":0.75,"midi":48,"time":381,"velocity":0.3937007874015748},{"duration":1.125,"midi":72,"time":381,"velocity":0.3937007874015748},{"duration":0.1875,"midi":39,"time":381,"velocity":0.3937007874015748},{"duration":1.125,"midi":84,"time":381,"velocity":0.3937007874015748},{"duration":1.125,"midi":64,"time":381,"velocity":0.3937007874015748},{"duration":0.1875,"midi":33,"time":381,"velocity":0.3937007874015748},{"duration":0.1875,"midi":41,"time":381,"velocity":0.3937007874015748},{"duration":0.1875,"midi":37,"time":381,"velocity":0.3937007874015748},{"duration":1.125,"midi":60,"time":381,"velocity":0.3937007874015748},{"duration":0.1875,"midi":36,"time":381,"velocity":0.3937007874015748},{"duration":0.75,"midi":36,"time":381,"velocity":0.3937007874015748},{"duration":0.1875,"midi":34,"time":381,"velocity":0.3937007874015748},{"duration":0.1875,"midi":38,"time":381,"velocity":0.3937007874015748},{"duration":0.1875,"midi":35,"time":381,"velocity":0.3937007874015748},{"duration":0.28125,"midi":57,"time":381.75,"velocity":0.3937007874015748},{"duration":0.28125,"midi":48,"time":381.75,"velocity":0.3937007874015748},{"duration":0.28125,"midi":52,"time":381.75,"velocity":0.3937007874015748},{"duration":1.40625,"midi":64,"time":382.5,"velocity":0.3937007874015748},{"duration":0.1875,"midi":30,"time":382.5,"velocity":0.3937007874015748},{"duration":1.40625,"midi":88,"time":382.5,"velocity":0.3937007874015748},{"duration":0.46875,"midi":45,"time":382.5,"velocity":0.3937007874015748},{"duration":1.40625,"midi":93,"time":382.5,"velocity":0.3937007874015748},{"duration":0.1875,"midi":28,"time":382.5,"velocity":0.3937007874015748},{"duration":0.1875,"midi":32,"time":382.5,"velocity":0.3937007874015748},{"duration":0.1875,"midi":25,"time":382.5,"velocity":0.3937007874015748},{"duration":0.1875,"midi":27,"time":382.5,"velocity":0.3937007874015748},{"duration":0.1875,"midi":24,"time":382.5,"velocity":0.3937007874015748},{"duration":0.1875,"midi":26,"time":382.5,"velocity":0.3937007874015748},{"duration":0.1875,"midi":31,"time":382.5,"velocity":0.3937007874015748},{"duration":1.40625,"midi":69,"time":382.5,"velocity":0.3937007874015748},{"duration":1.40625,"midi":76,"time":382.5,"velocity":0.3937007874015748},{"duration":0.1875,"midi":29,"time":382.5,"velocity":0.3937007874015748},{"duration":1.40625,"midi":81,"time":382.5,"velocity":0.3937007874015748},{"duration":0.28125,"midi":52,"time":383.25,"velocity":0.3937007874015748},{"duration":0.28125,"midi":48,"time":383.25,"velocity":0.3937007874015748},{"duration":0.28125,"midi":57,"time":383.25,"velocity":0.3937007874015748},{"duration":0.75,"midi":53,"time":384,"velocity":0.3937007874015748},{"duration":0.1875,"midi":37,"time":384,"velocity":0.3937007874015748},{"duration":0.1875,"midi":33,"time":384,"velocity":0.3937007874015748},{"duration":0.1875,"midi":38,"time":384,"velocity":0.3937007874015748},{"duration":0.1875,"midi":41,"time":384,"velocity":0.3937007874015748},{"duration":0.1875,"midi":34,"time":384,"velocity":0.3937007874015748},{"duration":0.1875,"midi":35,"time":384,"velocity":0.3937007874015748},{"duration":0.1875,"midi":39,"time":384,"velocity":0.3937007874015748},{"duration":0.1875,"midi":36,"time":384,"velocity":0.3937007874015748},{"duration":0.1875,"midi":40,"time":384,"velocity":0.3937007874015748},{"duration":0.75,"midi":41,"time":384,"velocity":0.3937007874015748},{"duration":1.21875,"midi":74,"time":384.75,"velocity":0.3937007874015748},{"duration":1.21875,"midi":86,"time":384.75,"velocity":0.3937007874015748},{"duration":1.21875,"midi":77,"time":384.75,"velocity":0.3937007874015748},{"duration":1.21875,"midi":89,"time":384.75,"velocity":0.3937007874015748},{"duration":1.21875,"midi":62,"time":384.75,"velocity":0.3937007874015748},{"duration":0.28125,"midi":57,"time":384.75,"velocity":0.3937007874015748},{"duration":0.28125,"midi":53,"time":384.75,"velocity":0.3937007874015748},{"duration":1.21875,"midi":65,"time":384.75,"velocity":0.3937007874015748},{"duration":0.28125,"midi":50,"time":384.75,"velocity":0.3937007874015748},{"duration":0.1875,"midi":32,"time":385.5,"velocity":0.3937007874015748},{"duration":0.1875,"midi":31,"time":385.5,"velocity":0.3937007874015748},{"duration":0.1875,"midi":25,"time":385.5,"velocity":0.3937007874015748},{"duration":0.1875,"midi":30,"time":385.5,"velocity":0.3937007874015748},{"duration":0.1875,"midi":24,"time":385.5,"velocity":0.3937007874015748},{"duration":0.1875,"midi":29,"time":385.5,"velocity":0.3937007874015748},{"duration":0.1875,"midi":27,"time":385.5,"velocity":0.3937007874015748},{"duration":0.1875,"midi":26,"time":385.5,"velocity":0.3937007874015748},{"duration":0.1875,"midi":28,"time":385.5,"velocity":0.3937007874015748},{"duration":0.46875,"midi":50,"time":385.5,"velocity":0.3937007874015748},{"duration":0.28125,"midi":57,"time":386.25,"velocity":0.3937007874015748},{"duration":0.28125,"midi":50,"time":386.25,"velocity":0.3937007874015748},{"duration":0.375,"midi":77,"time":386.25,"velocity":0.3937007874015748},{"duration":0.375,"midi":69,"time":386.25,"velocity":0.3937007874015748},{"duration":0.375,"midi":81,"time":386.25,"velocity":0.3937007874015748},{"duration":0.375,"midi":89,"time":386.25,"velocity":0.3937007874015748},{"duration":0.28125,"midi":53,"time":386.25,"velocity":0.3937007874015748},{"duration":0.375,"midi":65,"time":386.25,"velocity":0.3937007874015748},{"duration":0.375,"midi":93,"time":386.25,"velocity":0.3937007874015748},{"duration":0.375,"midi":64,"time":387,"velocity":0.3937007874015748},{"duration":0.375,"midi":88,"time":387,"velocity":0.3937007874015748},{"duration":0.1875,"midi":40,"time":387,"velocity":0.3937007874015748},{"duration":0.75,"midi":40,"time":387,"velocity":0.3937007874015748},{"duration":0.75,"midi":52,"time":387,"velocity":0.3937007874015748},{"duration":0.375,"midi":80,"time":387,"velocity":0.3937007874015748},{"duration":0.1875,"midi":37,"time":387,"velocity":0.3937007874015748},{"duration":0.375,"midi":76,"time":387,"velocity":0.3937007874015748},{"duration":0.1875,"midi":38,"time":387,"velocity":0.3937007874015748},{"duration":0.1875,"midi":34,"time":387,"velocity":0.3937007874015748},{"duration":0.1875,"midi":35,"time":387,"velocity":0.3937007874015748},{"duration":0.1875,"midi":33,"time":387,"velocity":0.3937007874015748},{"duration":0.1875,"midi":36,"time":387,"velocity":0.3937007874015748},{"duration":0.375,"midi":92,"time":387,"velocity":0.3937007874015748},{"duration":0.1875,"midi":41,"time":387,"velocity":0.3937007874015748},{"duration":0.1875,"midi":39,"time":387,"velocity":0.3937007874015748},{"duration":0.375,"midi":68,"time":387,"velocity":0.3937007874015748},{"duration":0.375,"midi":76,"time":387.75,"velocity":0.3937007874015748},{"duration":0.28125,"midi":52,"time":387.75,"velocity":0.3937007874015748},{"duration":0.28125,"midi":56,"time":387.75,"velocity":0.3937007874015748},{"duration":0.375,"midi":72,"time":387.75,"velocity":0.3937007874015748},{"duration":0.375,"midi":84,"time":387.75,"velocity":0.3937007874015748},{"duration":0.28125,"midi":47,"time":387.75,"velocity":0.3937007874015748},{"duration":0.375,"midi":64,"time":387.75,"velocity":0.3937007874015748},{"duration":0.375,"midi":60,"time":387.75,"velocity":0.3937007874015748},{"duration":0.375,"midi":88,"time":387.75,"velocity":0.3937007874015748},{"duration":0.375,"midi":77,"time":388.5,"velocity":0.3937007874015748},{"duration":0.1875,"midi":32,"time":388.5,"velocity":0.3937007874015748},{"duration":0.1875,"midi":27,"time":388.5,"velocity":0.3937007874015748},{"duration":0.1875,"midi":30,"time":388.5,"velocity":0.3937007874015748},{"duration":0.375,"midi":65,"time":388.5,"velocity":0.3937007874015748},{"duration":0.1875,"midi":29,"time":388.5,"velocity":0.3937007874015748},{"duration":0.1875,"midi":24,"time":388.5,"velocity":0.3937007874015748},{"duration":0.1875,"midi":26,"time":388.5,"velocity":0.3937007874015748},{"duration":0.375,"midi":86,"time":388.5,"velocity":0.3937007874015748},{"duration":0.1875,"midi":25,"time":388.5,"velocity":0.3937007874015748},{"duration":0.1875,"midi":31,"time":388.5,"velocity":0.3937007874015748},{"duration":0.375,"midi":62,"time":388.5,"velocity":0.3937007874015748},{"duration":0.75,"midi":40,"time":388.5,"velocity":0.3937007874015748},{"duration":0.1875,"midi":28,"time":388.5,"velocity":0.3937007874015748},{"duration":0.75,"midi":28,"time":388.5,"velocity":0.3937007874015748},{"duration":0.375,"midi":89,"time":388.5,"velocity":0.3937007874015748},{"duration":0.375,"midi":74,"time":388.5,"velocity":0.3937007874015748},{"duration":0.375,"midi":74,"time":389.25,"velocity":0.3937007874015748},{"duration":0.375,"midi":71,"time":389.25,"velocity":0.3937007874015748},{"duration":0.28125,"midi":47,"time":389.25,"velocity":0.3937007874015748},{"duration":0.28125,"midi":52,"time":389.25,"velocity":0.3937007874015748},{"duration":0.375,"midi":86,"time":389.25,"velocity":0.3937007874015748},{"duration":0.375,"midi":62,"time":389.25,"velocity":0.3937007874015748},{"duration":0.375,"midi":59,"time":389.25,"velocity":0.3937007874015748},{"duration":0.375,"midi":83,"time":389.25,"velocity":0.3937007874015748},{"duration":0.28125,"midi":56,"time":389.25,"velocity":0.3937007874015748},{"duration":0.1875,"midi":40,"time":390,"velocity":0.3937007874015748},{"duration":0.1875,"midi":26,"time":390,"velocity":0.3937007874015748},{"duration":0.1875,"midi":34,"time":390,"velocity":0.3937007874015748},{"duration":0.1875,"midi":35,"time":390,"velocity":0.3937007874015748},{"duration":0.1875,"midi":32,"time":390,"velocity":0.3937007874015748},{"duration":0.1875,"midi":29,"time":390,"velocity":0.3937007874015748},{"duration":0.375,"midi":84,"time":390,"velocity":0.3937007874015748},{"duration":0.375,"midi":57,"time":390,"velocity":0.3937007874015748},{"duration":0.1875,"midi":38,"time":390,"velocity":0.3937007874015748},{"duration":0.1875,"midi":24,"time":390,"velocity":0.3937007874015748},{"duration":0.375,"midi":69,"time":390,"velocity":0.3937007874015748},{"duration":0.375,"midi":81,"time":390,"velocity":0.3937007874015748},{"duration":0.1875,"midi":39,"time":390,"velocity":0.3937007874015748},{"duration":0.1875,"midi":31,"time":390,"velocity":0.3937007874015748},{"duration":0.1875,"midi":30,"time":390,"velocity":0.3937007874015748},{"duration":0.1875,"midi":33,"time":390,"velocity":0.3937007874015748},{"duration":0.1875,"midi":37,"time":390,"velocity":0.3937007874015748},{"duration":0.375,"midi":45,"time":390,"velocity":0.3937007874015748},{"duration":0.1875,"midi":36,"time":390,"velocity":0.3937007874015748},{"duration":0.1875,"midi":25,"time":390,"velocity":0.3937007874015748},{"duration":0.375,"midi":33,"time":390,"velocity":0.3937007874015748},{"duration":0.1875,"midi":41,"time":390,"velocity":0.3937007874015748},{"duration":0.1875,"midi":27,"time":390,"velocity":0.3937007874015748},{"duration":0.1875,"midi":28,"time":390,"velocity":0.3937007874015748},{"duration":0.375,"midi":72,"time":390,"velocity":0.3937007874015748},{"duration":0.375,"midi":60,"time":390,"velocity":0.3937007874015748},{"duration":0.375,"midi":76,"time":392.25,"velocity":0.3937007874015748},{"duration":0.375,"midi":88,"time":392.25,"velocity":0.3937007874015748},{"duration":0.375,"midi":52,"time":392.25,"velocity":0.3937007874015748},{"duration":0.375,"midi":64,"time":392.25,"velocity":0.3937007874015748},{"duration":0.375,"midi":40,"time":392.25,"velocity":0.3937007874015748},{"duration":0.375,"midi":33,"time":393,"velocity":0.3937007874015748},{"duration":0.375,"midi":48,"time":393,"velocity":0.3937007874015748},{"duration":0.375,"midi":93,"time":393,"velocity":0.3937007874015748},{"duration":0.375,"midi":81,"time":393,"velocity":0.3937007874015748},{"duration":0.375,"midi":69,"time":393,"velocity":0.3937007874015748},{"duration":0.375,"midi":57,"time":393,"velocity":0.3937007874015748},{"duration":0.375,"midi":45,"time":393,"velocity":0.3937007874015748},{"duration":0.046875,"midi":40,"time":394.078125,"velocity":0.3937007874015748},{"duration":0.046875,"midi":91,"time":394.078125,"velocity":0.3937007874015748},{"duration":0.046875,"midi":69,"time":394.078125,"velocity":0.3937007874015748},{"duration":0.046875,"midi":81,"time":394.078125,"velocity":0.3937007874015748},{"duration":0.046875,"midi":65,"time":394.078125,"velocity":0.3937007874015748},{"duration":0.046875,"midi":50,"time":394.078125,"velocity":0.3937007874015748},{"duration":0.046875,"midi":38,"time":394.078125,"velocity":0.3937007874015748},{"duration":0.046875,"midi":67,"time":394.078125,"velocity":0.3937007874015748},{"duration":0.046875,"midi":52,"time":394.078125,"velocity":0.3937007874015748},{"duration":0.046875,"midi":55,"time":394.078125,"velocity":0.3937007874015748},{"duration":0.046875,"midi":83,"time":394.078125,"velocity":0.3937007874015748},{"duration":0.046875,"midi":29,"time":394.078125,"velocity":0.3937007874015748},{"duration":0.046875,"midi":71,"time":394.078125,"velocity":0.3937007874015748},{"duration":0.046875,"midi":31,"time":394.078125,"velocity":0.3937007874015748},{"duration":0.046875,"midi":64,"time":394.078125,"velocity":0.3937007874015748},{"duration":0.046875,"midi":48,"time":394.078125,"velocity":0.3937007874015748},{"duration":0.046875,"midi":89,"time":394.078125,"velocity":0.3937007874015748},{"duration":0.046875,"midi":72,"time":394.078125,"velocity":0.3937007874015748},{"duration":0.046875,"midi":53,"time":394.078125,"velocity":0.3937007874015748},{"duration":0.046875,"midi":91,"time":394.125,"velocity":0.3937007874015748},{"duration":0.046875,"midi":40,"time":394.125,"velocity":0.3937007874015748},{"duration":0.046875,"midi":72,"time":394.125,"velocity":0.3937007874015748},{"duration":0.046875,"midi":31,"time":394.125,"velocity":0.3937007874015748},{"duration":0.046875,"midi":55,"time":394.125,"velocity":0.3937007874015748},{"duration":0.046875,"midi":83,"time":394.125,"velocity":0.3937007874015748},{"duration":0.046875,"midi":38,"time":394.125,"velocity":0.3937007874015748},{"duration":0.046875,"midi":74,"time":394.125,"velocity":0.3937007874015748},{"duration":0.046875,"midi":48,"time":394.125,"velocity":0.3937007874015748},{"duration":0.046875,"midi":35,"time":394.125,"velocity":0.3937007874015748},{"duration":0.046875,"midi":33,"time":394.125,"velocity":0.3937007874015748},{"duration":0.046875,"midi":81,"time":394.125,"velocity":0.3937007874015748},{"duration":0.046875,"midi":47,"time":394.125,"velocity":0.3937007874015748},{"duration":0.046875,"midi":89,"time":394.125,"velocity":0.3937007874015748},{"duration":0.046875,"midi":57,"time":394.125,"velocity":0.3937007874015748},{"duration":0.046875,"midi":89,"time":394.171875,"velocity":0.3937007874015748},{"duration":0.046875,"midi":83,"time":394.171875,"velocity":0.3937007874015748},{"duration":0.046875,"midi":81,"time":394.171875,"velocity":0.3937007874015748},{"duration":0.046875,"midi":91,"time":394.171875,"velocity":0.3937007874015748},{"duration":0.046875,"midi":36,"time":394.171875,"velocity":0.3937007874015748},{"duration":0.046875,"midi":47,"time":394.171875,"velocity":0.3937007874015748},{"duration":0.046875,"midi":38,"time":394.171875,"velocity":0.3937007874015748},{"duration":0.046875,"midi":55,"time":394.171875,"velocity":0.3937007874015748},{"duration":0.046875,"midi":40,"time":394.171875,"velocity":0.3937007874015748},{"duration":0.046875,"midi":57,"time":394.171875,"velocity":0.3937007874015748},{"duration":0.046875,"midi":35,"time":394.171875,"velocity":0.3937007874015748},{"duration":0.046875,"midi":74,"time":394.171875,"velocity":0.3937007874015748},{"duration":0.046875,"midi":48,"time":394.171875,"velocity":0.3937007874015748},{"duration":0.046875,"midi":72,"time":394.171875,"velocity":0.3937007874015748},{"duration":0.046875,"midi":83,"time":394.21875,"velocity":0.3937007874015748},{"duration":0.046875,"midi":84,"time":394.21875,"velocity":0.3937007874015748},{"duration":0.046875,"midi":40,"time":394.21875,"velocity":0.3937007874015748},{"duration":0.046875,"midi":71,"time":394.21875,"velocity":0.3937007874015748},{"duration":0.046875,"midi":38,"time":394.21875,"velocity":0.3937007874015748},{"duration":0.046875,"midi":35,"time":394.21875,"velocity":0.3937007874015748},{"duration":0.046875,"midi":36,"time":394.21875,"velocity":0.3937007874015748},{"duration":0.046875,"midi":81,"time":394.21875,"velocity":0.3937007874015748},{"duration":0.046875,"midi":91,"time":394.21875,"velocity":0.3937007874015748},{"duration":0.046875,"midi":72,"time":394.21875,"velocity":0.3937007874015748},{"duration":0.046875,"midi":57,"time":394.21875,"velocity":0.3937007874015748},{"duration":0.046875,"midi":65,"time":394.21875,"velocity":0.3937007874015748},{"duration":0.046875,"midi":31,"time":394.21875,"velocity":0.3937007874015748},{"duration":0.046875,"midi":89,"time":394.21875,"velocity":0.3937007874015748},{"duration":0.046875,"midi":86,"time":394.21875,"velocity":0.3937007874015748},{"duration":0.046875,"midi":48,"time":394.21875,"velocity":0.3937007874015748},{"duration":0.046875,"midi":69,"time":394.21875,"velocity":0.3937007874015748},{"duration":0.046875,"midi":55,"time":394.21875,"velocity":0.3937007874015748},{"duration":0.046875,"midi":33,"time":394.21875,"velocity":0.3937007874015748},{"duration":0.046875,"midi":88,"time":394.21875,"velocity":0.3937007874015748},{"duration":0.046875,"midi":67,"time":394.21875,"velocity":0.3937007874015748},{"duration":0.046875,"midi":47,"time":394.21875,"velocity":0.3937007874015748},{"duration":0.046875,"midi":47,"time":394.265625,"velocity":0.3937007874015748},{"duration":0.046875,"midi":65,"time":394.265625,"velocity":0.3937007874015748},{"duration":0.046875,"midi":29,"time":394.265625,"velocity":0.3937007874015748},{"duration":0.046875,"midi":48,"time":394.265625,"velocity":0.3937007874015748},{"duration":0.046875,"midi":57,"time":394.265625,"velocity":0.3937007874015748},{"duration":0.046875,"midi":38,"time":394.265625,"velocity":0.3937007874015748},{"duration":0.046875,"midi":40,"time":394.265625,"velocity":0.3937007874015748},{"duration":0.046875,"midi":31,"time":394.265625,"velocity":0.3937007874015748},{"duration":0.046875,"midi":89,"time":394.265625,"velocity":0.3937007874015748},{"duration":0.046875,"midi":55,"time":394.265625,"velocity":0.3937007874015748},{"duration":0.046875,"midi":64,"time":394.265625,"velocity":0.3937007874015748},{"duration":0.046875,"midi":81,"time":394.265625,"velocity":0.3937007874015748},{"duration":0.046875,"midi":83,"time":394.265625,"velocity":0.3937007874015748},{"duration":0.046875,"midi":91,"time":394.265625,"velocity":0.3937007874015748},{"duration":0.046875,"midi":38,"time":394.3125,"velocity":0.3937007874015748},{"duration":0.046875,"midi":40,"time":394.3125,"velocity":0.3937007874015748},{"duration":0.046875,"midi":48,"time":394.3125,"velocity":0.3937007874015748},{"duration":0.046875,"midi":64,"time":394.3125,"velocity":0.3937007874015748},{"duration":0.046875,"midi":55,"time":394.3125,"velocity":0.3937007874015748},{"duration":0.046875,"midi":91,"time":394.3125,"velocity":0.3937007874015748},{"duration":0.046875,"midi":89,"time":394.3125,"velocity":0.3937007874015748},{"duration":0.046875,"midi":81,"time":394.3125,"velocity":0.3937007874015748},{"duration":0.046875,"midi":65,"time":394.3125,"velocity":0.3937007874015748},{"duration":0.046875,"midi":31,"time":394.3125,"velocity":0.3937007874015748},{"duration":0.046875,"midi":29,"time":394.3125,"velocity":0.3937007874015748},{"duration":0.046875,"midi":47,"time":394.3125,"velocity":0.3937007874015748},{"duration":0.046875,"midi":57,"time":394.3125,"velocity":0.3937007874015748},{"duration":0.046875,"midi":83,"time":394.3125,"velocity":0.3937007874015748},{"duration":0.046875,"midi":65,"time":394.359375,"velocity":0.3937007874015748},{"duration":0.046875,"midi":67,"time":394.359375,"velocity":0.3937007874015748},{"duration":0.046875,"midi":48,"time":394.359375,"velocity":0.3937007874015748},{"duration":0.046875,"midi":69,"time":394.359375,"velocity":0.3937007874015748},{"duration":0.046875,"midi":71,"time":394.359375,"velocity":0.3937007874015748},{"duration":0.046875,"midi":91,"time":394.359375,"velocity":0.3937007874015748},{"duration":0.046875,"midi":57,"time":394.359375,"velocity":0.3937007874015748},{"duration":0.046875,"midi":55,"time":394.359375,"velocity":0.3937007874015748},{"duration":0.046875,"midi":38,"time":394.359375,"velocity":0.3937007874015748},{"duration":0.046875,"midi":89,"time":394.359375,"velocity":0.3937007874015748},{"duration":0.046875,"midi":40,"time":394.359375,"velocity":0.3937007874015748},{"duration":0.046875,"midi":74,"time":394.359375,"velocity":0.3937007874015748},{"duration":0.046875,"midi":72,"time":394.359375,"velocity":0.3937007874015748},{"duration":0.046875,"midi":47,"time":394.359375,"velocity":0.3937007874015748},{"duration":0.046875,"midi":81,"time":394.359375,"velocity":0.3937007874015748},{"duration":0.046875,"midi":31,"time":394.359375,"velocity":0.3937007874015748},{"duration":0.046875,"midi":33,"time":394.359375,"velocity":0.3937007874015748},{"duration":0.046875,"midi":35,"time":394.359375,"velocity":0.3937007874015748},{"duration":0.046875,"midi":83,"time":394.359375,"velocity":0.3937007874015748},{"duration":0.046875,"midi":36,"time":394.359375,"velocity":0.3937007874015748},{"duration":0.046875,"midi":57,"time":394.921875,"velocity":0.3937007874015748},{"duration":0.046875,"midi":60,"time":394.921875,"velocity":0.3937007874015748},{"duration":0.046875,"midi":55,"time":394.921875,"velocity":0.3937007874015748},{"duration":0.046875,"midi":62,"time":394.921875,"velocity":0.3937007874015748},{"duration":0.046875,"midi":64,"time":394.921875,"velocity":0.3937007874015748},{"duration":0.046875,"midi":65,"time":394.921875,"velocity":0.3937007874015748},{"duration":0.046875,"midi":59,"time":394.921875,"velocity":0.3937007874015748},{"duration":0.046875,"midi":65,"time":394.96875,"velocity":0.3937007874015748},{"duration":0.046875,"midi":64,"time":394.96875,"velocity":0.3937007874015748},{"duration":0.046875,"midi":65,"time":395.015625,"velocity":0.3937007874015748},{"duration":0.046875,"midi":64,"time":395.015625,"velocity":0.3937007874015748},{"duration":0.046875,"midi":57,"time":395.0625,"velocity":0.3937007874015748},{"duration":0.046875,"midi":60,"time":395.0625,"velocity":0.3937007874015748},{"duration":0.046875,"midi":62,"time":395.0625,"velocity":0.3937007874015748},{"duration":0.046875,"midi":64,"time":395.0625,"velocity":0.3937007874015748},{"duration":0.046875,"midi":65,"time":395.0625,"velocity":0.3937007874015748},{"duration":0.046875,"midi":55,"time":395.0625,"velocity":0.3937007874015748},{"duration":0.046875,"midi":59,"time":395.0625,"velocity":0.3937007874015748},{"duration":0.046875,"midi":65,"time":395.109375,"velocity":0.3937007874015748},{"duration":0.046875,"midi":64,"time":395.109375,"velocity":0.3937007874015748},{"duration":0.046875,"midi":64,"time":395.15625,"velocity":0.3937007874015748},{"duration":0.046875,"midi":65,"time":395.15625,"velocity":0.3937007874015748},{"duration":0.046875,"midi":64,"time":395.203125,"velocity":0.3937007874015748},{"duration":0.046875,"midi":65,"time":395.203125,"velocity":0.3937007874015748},{"duration":0.046875,"midi":57,"time":395.203125,"velocity":0.3937007874015748},{"duration":0.046875,"midi":60,"time":395.203125,"velocity":0.3937007874015748},{"duration":0.046875,"midi":55,"time":395.203125,"velocity":0.3937007874015748},{"duration":0.046875,"midi":62,"time":395.203125,"velocity":0.3937007874015748},{"duration":0.046875,"midi":59,"time":395.203125,"velocity":0.3937007874015748},{"duration":0.75,"midi":33,"time":396,"velocity":0.3937007874015748},{"duration":0.1875,"midi":64,"time":396,"velocity":0.3937007874015748},{"duration":0.75,"midi":45,"time":396,"velocity":0.3937007874015748},{"duration":0.1875,"midi":25,"time":396,"velocity":0.3937007874015748},{"duration":0.1875,"midi":31,"time":396,"velocity":0.3937007874015748},{"duration":0.1875,"midi":30,"time":396,"velocity":0.3937007874015748},{"duration":0.1875,"midi":60,"time":396,"velocity":0.3937007874015748},{"duration":0.1875,"midi":28,"time":396,"velocity":0.3937007874015748},{"duration":0.1875,"midi":32,"time":396,"velocity":0.3937007874015748},{"duration":0.1875,"midi":69,"time":396,"velocity":0.3937007874015748},{"duration":0.1875,"midi":26,"time":396,"velocity":0.3937007874015748},{"duration":0.1875,"midi":27,"time":396,"velocity":0.3937007874015748},{"duration":0.1875,"midi":76,"time":396,"velocity":0.3937007874015748},{"duration":0.1875,"midi":72,"time":396,"velocity":0.3937007874015748},{"duration":0.1875,"midi":24,"time":396,"velocity":0.3937007874015748},{"duration":0.1875,"midi":57,"time":396,"velocity":0.3937007874015748},{"duration":0.1875,"midi":29,"time":396,"velocity":0.3937007874015748},{"duration":0.1875,"midi":76,"time":396.375,"velocity":0.3937007874015748},{"duration":0.1875,"midi":64,"time":396.375,"velocity":0.3937007874015748},{"duration":0.1875,"midi":72,"time":396.375,"velocity":0.3937007874015748},{"duration":0.1875,"midi":69,"time":396.375,"velocity":0.3937007874015748},{"duration":0.1875,"midi":57,"time":396.375,"velocity":0.3937007874015748},{"duration":0.1875,"midi":60,"time":396.375,"velocity":0.3937007874015748},{"duration":0.1875,"midi":69,"time":396.75,"velocity":0.3937007874015748},{"duration":0.1875,"midi":52,"time":396.75,"velocity":0.3937007874015748},{"duration":0.1875,"midi":69,"time":396.75,"velocity":0.3937007874015748},{"duration":0.1875,"midi":48,"time":396.75,"velocity":0.3937007874015748},{"duration":0.1875,"midi":72,"time":396.75,"velocity":0.3937007874015748},{"duration":0.1875,"midi":64,"time":396.75,"velocity":0.3937007874015748},{"duration":0.1875,"midi":64,"time":396.75,"velocity":0.3937007874015748},{"duration":0.1875,"midi":76,"time":396.75,"velocity":0.3937007874015748},{"duration":0.1875,"midi":57,"time":396.75,"velocity":0.3937007874015748},{"duration":0.1875,"midi":60,"time":396.75,"velocity":0.3937007874015748},{"duration":0.1875,"midi":57,"time":396.75,"velocity":0.3937007874015748},{"duration":0.1875,"midi":60,"time":396.75,"velocity":0.3937007874015748},{"duration":0.1875,"midi":60,"time":397.125,"velocity":0.3937007874015748},{"duration":0.1875,"midi":57,"time":397.125,"velocity":0.3937007874015748},{"duration":0.1875,"midi":76,"time":397.125,"velocity":0.3937007874015748},{"duration":0.1875,"midi":72,"time":397.125,"velocity":0.3937007874015748},{"duration":0.1875,"midi":69,"time":397.125,"velocity":0.3937007874015748},{"duration":0.1875,"midi":64,"time":397.125,"velocity":0.3937007874015748},{"duration":0.1875,"midi":38,"time":397.5,"velocity":0.3937007874015748},{"duration":0.1875,"midi":60,"time":397.5,"velocity":0.3937007874015748},{"duration":0.1875,"midi":57,"time":397.5,"velocity":0.3937007874015748},{"duration":0.1875,"midi":34,"time":397.5,"velocity":0.3937007874015748},{"duration":0.1875,"midi":41,"time":397.5,"velocity":0.3937007874015748},{"duration":0.1875,"midi":40,"time":397.5,"velocity":0.3937007874015748},{"duration":0.1875,"midi":35,"time":397.5,"velocity":0.3937007874015748},{"duration":0.1875,"midi":36,"time":397.5,"velocity":0.3937007874015748},{"duration":0.1875,"midi":72,"time":397.5,"velocity":0.3937007874015748},{"duration":0.75,"midi":40,"time":397.5,"velocity":0.3937007874015748},{"duration":0.1875,"midi":76,"time":397.5,"velocity":0.3937007874015748},{"duration":0.75,"midi":28,"time":397.5,"velocity":0.3937007874015748},{"duration":0.1875,"midi":64,"time":397.5,"velocity":0.3937007874015748},{"duration":0.1875,"midi":69,"time":397.5,"velocity":0.3937007874015748},{"duration":0.1875,"midi":33,"time":397.5,"velocity":0.3937007874015748},{"duration":0.1875,"midi":37,"time":397.5,"velocity":0.3937007874015748},{"duration":0.1875,"midi":39,"time":397.5,"velocity":0.3937007874015748},{"duration":0.1875,"midi":60,"time":397.875,"velocity":0.3937007874015748},{"duration":0.1875,"midi":72,"time":397.875,"velocity":0.3937007874015748},{"duration":0.1875,"midi":57,"time":397.875,"velocity":0.3937007874015748},{"duration":0.1875,"midi":64,"time":397.875,"velocity":0.3937007874015748},{"duration":0.1875,"midi":76,"time":397.875,"velocity":0.3937007874015748},{"duration":0.1875,"midi":69,"time":397.875,"velocity":0.3937007874015748},{"duration":0.1875,"midi":60,"time":398.25,"velocity":0.3937007874015748},{"duration":0.1875,"midi":69,"time":398.25,"velocity":0.3937007874015748},{"duration":0.1875,"midi":76,"time":398.25,"velocity":0.3937007874015748},{"duration":0.1875,"midi":64,"time":398.25,"velocity":0.3937007874015748},{"duration":0.1875,"midi":60,"time":398.25,"velocity":0.3937007874015748},{"duration":0.1875,"midi":57,"time":398.25,"velocity":0.3937007874015748},{"duration":0.1875,"midi":64,"time":398.25,"velocity":0.3937007874015748},{"duration":0.1875,"midi":57,"time":398.25,"velocity":0.3937007874015748},{"duration":0.1875,"midi":48,"time":398.25,"velocity":0.3937007874015748},{"duration":0.1875,"midi":72,"time":398.25,"velocity":0.3937007874015748},{"duration":0.1875,"midi":52,"time":398.25,"velocity":0.3937007874015748},{"duration":0.1875,"midi":69,"time":398.25,"velocity":0.3937007874015748},{"duration":0.1875,"midi":64,"time":398.625,"velocity":0.3937007874015748},{"duration":0.1875,"midi":57,"time":398.625,"velocity":0.3937007874015748},{"duration":0.1875,"midi":72,"time":398.625,"velocity":0.3937007874015748},{"duration":0.1875,"midi":60,"time":398.625,"velocity":0.3937007874015748},{"duration":0.1875,"midi":69,"time":398.625,"velocity":0.3937007874015748},{"duration":0.1875,"midi":76,"time":398.625,"velocity":0.3937007874015748},{"duration":0.1875,"midi":64,"time":399,"velocity":0.3937007874015748},{"duration":0.75,"midi":33,"time":399,"velocity":0.3937007874015748},{"duration":0.1875,"midi":31,"time":399,"velocity":0.3937007874015748},{"duration":0.1875,"midi":69,"time":399,"velocity":0.3937007874015748},{"duration":0.1875,"midi":29,"time":399,"velocity":0.3937007874015748},{"duration":0.1875,"midi":27,"time":399,"velocity":0.3937007874015748},{"duration":0.75,"midi":45,"time":399,"velocity":0.3937007874015748},{"duration":0.1875,"midi":26,"time":399,"velocity":0.3937007874015748},{"duration":0.1875,"midi":25,"time":399,"velocity":0.3937007874015748},{"duration":0.1875,"midi":32,"time":399,"velocity":0.3937007874015748},{"duration":0.1875,"midi":60,"time":399,"velocity":0.3937007874015748},{"duration":0.1875,"midi":76,"time":399,"velocity":0.3937007874015748},{"duration":0.1875,"midi":24,"time":399,"velocity":0.3937007874015748},{"duration":0.1875,"midi":28,"time":399,"velocity":0.3937007874015748},{"duration":0.1875,"midi":57,"time":399,"velocity":0.3937007874015748},{"duration":0.1875,"midi":72,"time":399,"velocity":0.3937007874015748},{"duration":0.1875,"midi":30,"time":399,"velocity":0.3937007874015748},{"duration":0.1875,"midi":57,"time":399.375,"velocity":0.3937007874015748},{"duration":0.1875,"midi":72,"time":399.375,"velocity":0.3937007874015748},{"duration":0.1875,"midi":60,"time":399.375,"velocity":0.3937007874015748},{"duration":0.1875,"midi":76,"time":399.375,"velocity":0.3937007874015748},{"duration":0.1875,"midi":64,"time":399.375,"velocity":0.3937007874015748},{"duration":0.1875,"midi":69,"time":399.375,"velocity":0.3937007874015748},{"duration":0.1875,"midi":52,"time":399.75,"velocity":0.3937007874015748},{"duration":0.1875,"midi":48,"time":399.75,"velocity":0.3937007874015748},{"duration":0.1875,"midi":57,"time":399.75,"velocity":0.3937007874015748},{"duration":0.1875,"midi":60,"time":399.75,"velocity":0.3937007874015748},{"duration":0.1875,"midi":69,"time":399.75,"velocity":0.3937007874015748},{"duration":0.1875,"midi":64,"time":399.75,"velocity":0.3937007874015748},{"duration":0.1875,"midi":60,"time":399.75,"velocity":0.3937007874015748},{"duration":0.1875,"midi":69,"time":399.75,"velocity":0.3937007874015748},{"duration":0.1875,"midi":76,"time":399.75,"velocity":0.3937007874015748},{"duration":0.1875,"midi":57,"time":399.75,"velocity":0.3937007874015748},{"duration":0.1875,"midi":64,"time":399.75,"velocity":0.3937007874015748},{"duration":0.1875,"midi":72,"time":399.75,"velocity":0.3937007874015748},{"duration":0.1875,"midi":57,"time":400.125,"velocity":0.3937007874015748},{"duration":0.1875,"midi":64,"time":400.125,"velocity":0.3937007874015748},{"duration":0.1875,"midi":76,"time":400.125,"velocity":0.3937007874015748},{"duration":0.1875,"midi":69,"time":400.125,"velocity":0.3937007874015748},{"duration":0.1875,"midi":72,"time":400.125,"velocity":0.3937007874015748},{"duration":0.1875,"midi":60,"time":400.125,"velocity":0.3937007874015748},{"duration":0.1875,"midi":37,"time":400.5,"velocity":0.3937007874015748},{"duration":0.1875,"midi":36,"time":400.5,"velocity":0.3937007874015748},{"duration":0.1875,"midi":76,"time":400.5,"velocity":0.3937007874015748},{"duration":0.1875,"midi":39,"time":400.5,"velocity":0.3937007874015748},{"duration":0.1875,"midi":40,"time":400.5,"velocity":0.3937007874015748},{"duration":0.75,"midi":40,"time":400.5,"velocity":0.3937007874015748},{"duration":0.1875,"midi":72,"time":400.5,"velocity":0.3937007874015748},{"duration":0.1875,"midi":60,"time":400.5,"velocity":0.3937007874015748},{"duration":0.1875,"midi":34,"time":400.5,"velocity":0.3937007874015748},{"duration":0.1875,"midi":57,"time":400.5,"velocity":0.3937007874015748},{"duration":0.1875,"midi":38,"time":400.5,"velocity":0.3937007874015748},{"duration":0.09375,"midi":88,"time":400.5,"velocity":0.3937007874015748},{"duration":0.1875,"midi":41,"time":400.5,"velocity":0.3937007874015748},{"duration":0.75,"midi":28,"time":400.5,"velocity":0.3937007874015748},{"duration":0.1875,"midi":33,"time":400.5,"velocity":0.3937007874015748},{"duration":0.1875,"midi":69,"time":400.5,"velocity":0.3937007874015748},{"duration":0.1875,"midi":64,"time":400.5,"velocity":0.3937007874015748},{"duration":0.1875,"midi":35,"time":400.5,"velocity":0.3937007874015748},{"duration":0.09375,"midi":88,"time":400.6875,"velocity":0.3937007874015748},{"duration":0.1875,"midi":60,"time":400.875,"velocity":0.3937007874015748},{"duration":0.1875,"midi":64,"time":400.875,"velocity":0.3937007874015748},{"duration":0.1875,"midi":72,"time":400.875,"velocity":0.3937007874015748},{"duration":0.1875,"midi":76,"time":400.875,"velocity":0.3937007874015748},{"duration":0.09375,"midi":88,"time":400.875,"velocity":0.3937007874015748},{"duration":0.1875,"midi":57,"time":400.875,"velocity":0.3937007874015748},{"duration":0.1875,"midi":69,"time":400.875,"velocity":0.3937007874015748},{"duration":0.09375,"midi":88,"time":401.0625,"velocity":0.3937007874015748},{"duration":0.1875,"midi":69,"time":401.25,"velocity":0.3937007874015748},{"duration":0.1875,"midi":64,"time":401.25,"velocity":0.3937007874015748},{"duration":0.1875,"midi":57,"time":401.25,"velocity":0.3937007874015748},{"duration":0.1875,"midi":64,"time":401.25,"velocity":0.3937007874015748},{"duration":0.1875,"midi":60,"time":401.25,"velocity":0.3937007874015748},{"duration":0.1875,"midi":69,"time":401.25,"velocity":0.3937007874015748},{"duration":0.1875,"midi":52,"time":401.25,"velocity":0.3937007874015748},{"duration":0.1875,"midi":60,"time":401.25,"velocity":0.3937007874015748},{"duration":0.1875,"midi":72,"time":401.25,"velocity":0.3937007874015748},{"duration":0.1875,"midi":48,"time":401.25,"velocity":0.3937007874015748},{"duration":0.1875,"midi":76,"time":401.25,"velocity":0.3937007874015748},{"duration":0.1875,"midi":57,"time":401.25,"velocity":0.3937007874015748},{"duration":0.09375,"midi":88,"time":401.25,"velocity":0.3937007874015748},{"duration":0.09375,"midi":88,"time":401.4375,"velocity":0.3937007874015748},{"duration":0.1875,"midi":72,"time":401.625,"velocity":0.3937007874015748},{"duration":0.1875,"midi":69,"time":401.625,"velocity":0.3937007874015748},{"duration":0.1875,"midi":57,"time":401.625,"velocity":0.3937007874015748},{"duration":0.09375,"midi":88,"time":401.625,"velocity":0.3937007874015748},{"duration":0.1875,"midi":60,"time":401.625,"velocity":0.3937007874015748},{"duration":0.1875,"midi":64,"time":401.625,"velocity":0.3937007874015748},{"duration":0.1875,"midi":76,"time":401.625,"velocity":0.3937007874015748},{"duration":0.09375,"midi":88,"time":401.8125,"velocity":0.3937007874015748},{"duration":0.09375,"midi":88,"time":402,"velocity":0.3937007874015748},{"duration":0.1875,"midi":76,"time":402,"velocity":0.3937007874015748},{"duration":0.1875,"midi":69,"time":402,"velocity":0.3937007874015748},{"duration":0.1875,"midi":24,"time":402,"velocity":0.3937007874015748},{"duration":0.1875,"midi":31,"time":402,"velocity":0.3937007874015748},{"duration":0.1875,"midi":57,"time":402,"velocity":0.3937007874015748},{"duration":0.1875,"midi":27,"time":402,"velocity":0.3937007874015748},{"duration":0.1875,"midi":26,"time":402,"velocity":0.3937007874015748},{"duration":0.1875,"midi":28,"time":402,"velocity":0.3937007874015748},{"duration":0.1875,"midi":25,"time":402,"velocity":0.3937007874015748},{"duration":0.75,"midi":33,"time":402,"velocity":0.3937007874015748},{"duration":0.75,"midi":45,"time":402,"velocity":0.3937007874015748},{"duration":0.1875,"midi":72,"time":402,"velocity":0.3937007874015748},{"duration":0.1875,"midi":29,"time":402,"velocity":0.3937007874015748},{"duration":0.1875,"midi":60,"time":402,"velocity":0.3937007874015748},{"duration":0.1875,"midi":30,"time":402,"velocity":0.3937007874015748},{"duration":0.1875,"midi":32,"time":402,"velocity":0.3937007874015748},{"duration":0.1875,"midi":64,"time":402,"velocity":0.3937007874015748},{"duration":0.09375,"midi":88,"time":402.1875,"velocity":0.3937007874015748},{"duration":0.1875,"midi":64,"time":402.375,"velocity":0.3937007874015748},{"duration":0.1875,"midi":72,"time":402.375,"velocity":0.3937007874015748},{"duration":0.1875,"midi":69,"time":402.375,"velocity":0.3937007874015748},{"duration":0.1875,"midi":76,"time":402.375,"velocity":0.3937007874015748},{"duration":0.1875,"midi":57,"time":402.375,"velocity":0.3937007874015748},{"duration":0.1875,"midi":60,"time":402.375,"velocity":0.3937007874015748},{"duration":0.09375,"midi":88,"time":402.375,"velocity":0.3937007874015748},{"duration":0.09375,"midi":88,"time":402.5625,"velocity":0.3937007874015748},{"duration":0.1875,"midi":52,"time":402.75,"velocity":0.3937007874015748},{"duration":0.1875,"midi":48,"time":402.75,"velocity":0.3937007874015748},{"duration":0.1875,"midi":57,"time":402.75,"velocity":0.3937007874015748},{"duration":0.1875,"midi":60,"time":402.75,"velocity":0.3937007874015748},{"duration":0.1875,"midi":64,"time":402.75,"velocity":0.3937007874015748},{"duration":0.1875,"midi":69,"time":402.75,"velocity":0.3937007874015748},{"duration":0.09375,"midi":88,"time":402.75,"velocity":0.3937007874015748},{"duration":0.1875,"midi":72,"time":402.75,"velocity":0.3937007874015748},{"duration":0.1875,"midi":76,"time":402.75,"velocity":0.3937007874015748},{"duration":0.1875,"midi":69,"time":402.75,"velocity":0.3937007874015748},{"duration":0.1875,"midi":64,"time":402.75,"velocity":0.3937007874015748},{"duration":0.1875,"midi":60,"time":402.75,"velocity":0.3937007874015748},{"duration":0.1875,"midi":57,"time":402.75,"velocity":0.3937007874015748},{"duration":0.09375,"midi":88,"time":402.9375,"velocity":0.3937007874015748},{"duration":0.1875,"midi":57,"time":403.125,"velocity":0.3937007874015748},{"duration":0.1875,"midi":72,"time":403.125,"velocity":0.3937007874015748},{"duration":0.09375,"midi":88,"time":403.125,"velocity":0.3937007874015748},{"duration":0.1875,"midi":76,"time":403.125,"velocity":0.3937007874015748},{"duration":0.1875,"midi":64,"time":403.125,"velocity":0.3937007874015748},{"duration":0.1875,"midi":60,"time":403.125,"velocity":0.3937007874015748},{"duration":0.1875,"midi":69,"time":403.125,"velocity":0.3937007874015748},{"duration":0.09375,"midi":88,"time":403.3125,"velocity":0.3937007874015748},{"duration":0.1875,"midi":38,"time":403.5,"velocity":0.3937007874015748},{"duration":0.1875,"midi":40,"time":403.5,"velocity":0.3937007874015748},{"duration":0.1875,"midi":57,"time":403.5,"velocity":0.3937007874015748},{"duration":0.1875,"midi":34,"time":403.5,"velocity":0.3937007874015748},{"duration":0.1875,"midi":69,"time":403.5,"velocity":0.3937007874015748},{"duration":0.1875,"midi":60,"time":403.5,"velocity":0.3937007874015748},{"duration":0.1875,"midi":64,"time":403.5,"velocity":0.3937007874015748},{"duration":0.1875,"midi":35,"time":403.5,"velocity":0.3937007874015748},{"duration":0.1875,"midi":37,"time":403.5,"velocity":0.3937007874015748},{"duration":0.1875,"midi":39,"time":403.5,"velocity":0.3937007874015748},{"duration":0.75,"midi":40,"time":403.5,"velocity":0.3937007874015748},{"duration":0.1875,"midi":33,"time":403.5,"velocity":0.3937007874015748},{"duration":0.75,"midi":28,"time":403.5,"velocity":0.3937007874015748},{"duration":0.1875,"midi":41,"time":403.5,"velocity":0.3937007874015748},{"duration":0.1875,"midi":72,"time":403.5,"velocity":0.3937007874015748},{"duration":0.1875,"midi":36,"time":403.5,"velocity":0.3937007874015748},{"duration":0.09375,"midi":88,"time":403.5,"velocity":0.3937007874015748},{"duration":0.1875,"midi":76,"time":403.5,"velocity":0.3937007874015748},{"duration":0.09375,"midi":88,"time":403.6875,"velocity":0.3937007874015748},{"duration":0.1875,"midi":62,"time":403.875,"velocity":0.3937007874015748},{"duration":0.1875,"midi":65,"time":403.875,"velocity":0.3937007874015748},{"duration":0.1875,"midi":69,"time":403.875,"velocity":0.3937007874015748},{"duration":0.1875,"midi":74,"time":403.875,"velocity":0.3937007874015748},{"duration":0.1875,"midi":77,"time":403.875,"velocity":0.3937007874015748},{"duration":0.1875,"midi":57,"time":403.875,"velocity":0.3937007874015748},{"duration":0.09375,"midi":88,"time":403.875,"velocity":0.3937007874015748},{"duration":0.09375,"midi":88,"time":404.0625,"velocity":0.3937007874015748},{"duration":0.1875,"midi":64,"time":404.25,"velocity":0.3937007874015748},{"duration":0.1875,"midi":69,"time":404.25,"velocity":0.3937007874015748},{"duration":0.1875,"midi":48,"time":404.25,"velocity":0.3937007874015748},{"duration":0.1875,"midi":60,"time":404.25,"velocity":0.3937007874015748},{"duration":0.1875,"midi":69,"time":404.25,"velocity":0.3937007874015748},{"duration":0.1875,"midi":72,"time":404.25,"velocity":0.3937007874015748},{"duration":0.1875,"midi":52,"time":404.25,"velocity":0.3937007874015748},{"duration":0.1875,"midi":64,"time":404.25,"velocity":0.3937007874015748},{"duration":0.1875,"midi":57,"time":404.25,"velocity":0.3937007874015748},{"duration":0.1875,"midi":57,"time":404.25,"velocity":0.3937007874015748},{"duration":0.1875,"midi":76,"time":404.25,"velocity":0.3937007874015748},{"duration":0.1875,"midi":60,"time":404.25,"velocity":0.3937007874015748},{"duration":0.1875,"midi":71,"time":404.625,"velocity":0.3937007874015748},{"duration":0.1875,"midi":63,"time":404.625,"velocity":0.3937007874015748},{"duration":0.1875,"midi":57,"time":404.625,"velocity":0.3937007874015748},{"duration":0.1875,"midi":69,"time":404.625,"velocity":0.3937007874015748},{"duration":0.1875,"midi":59,"time":404.625,"velocity":0.3937007874015748},{"duration":0.1875,"midi":75,"time":404.625,"velocity":0.3937007874015748},{"duration":0.1875,"midi":24,"time":405,"velocity":0.3937007874015748},{"duration":0.1875,"midi":26,"time":405,"velocity":0.3937007874015748},{"duration":0.1875,"midi":27,"time":405,"velocity":0.3937007874015748},{"duration":0.75,"midi":45,"time":405,"velocity":0.3937007874015748},{"duration":0.1875,"midi":60,"time":405,"velocity":0.3937007874015748},{"duration":0.1875,"midi":76,"time":405,"velocity":0.3937007874015748},{"duration":0.75,"midi":33,"time":405,"velocity":0.3937007874015748},{"duration":0.1875,"midi":31,"time":405,"velocity":0.3937007874015748},{"duration":0.1875,"midi":57,"time":405,"velocity":0.3937007874015748},{"duration":0.1875,"midi":29,"time":405,"velocity":0.3937007874015748},{"duration":0.1875,"midi":28,"time":405,"velocity":0.3937007874015748},{"duration":0.1875,"midi":72,"time":405,"velocity":0.3937007874015748},{"duration":0.1875,"midi":32,"time":405,"velocity":0.3937007874015748},{"duration":0.1875,"midi":69,"time":405,"velocity":0.3937007874015748},{"duration":0.1875,"midi":30,"time":405,"velocity":0.3937007874015748},{"duration":0.1875,"midi":25,"time":405,"velocity":0.3937007874015748},{"duration":0.1875,"midi":64,"time":405,"velocity":0.3937007874015748},{"duration":0.1875,"midi":69,"time":405.75,"velocity":0.3937007874015748},{"duration":0.1875,"midi":64,"time":405.75,"velocity":0.3937007874015748},{"duration":0.1875,"midi":69,"time":405.75,"velocity":0.3937007874015748},{"duration":0.1875,"midi":52,"time":405.75,"velocity":0.3937007874015748},{"duration":0.1875,"midi":57,"time":405.75,"velocity":0.3937007874015748},{"duration":0.1875,"midi":81,"time":405.75,"velocity":0.3937007874015748},{"duration":0.1875,"midi":48,"time":405.75,"velocity":0.3937007874015748},{"duration":0.1875,"midi":64,"time":405.75,"velocity":0.3937007874015748},{"duration":0.1875,"midi":72,"time":405.75,"velocity":0.3937007874015748},{"duration":0.1875,"midi":60,"time":405.75,"velocity":0.3937007874015748},{"duration":0.1875,"midi":60,"time":405.75,"velocity":0.3937007874015748},{"duration":0.1875,"midi":76,"time":405.75,"velocity":0.3937007874015748},{"duration":0.1875,"midi":36,"time":406.5,"velocity":0.3937007874015748},{"duration":0.1875,"midi":34,"time":406.5,"velocity":0.3937007874015748},{"duration":0.9375,"midi":69,"time":406.5,"velocity":0.3937007874015748},{"duration":0.1875,"midi":40,"time":406.5,"velocity":0.3937007874015748},{"duration":0.1875,"midi":39,"time":406.5,"velocity":0.3937007874015748},{"duration":1.125,"midi":84,"time":406.5,"velocity":0.3937007874015748},{"duration":0.1875,"midi":35,"time":406.5,"velocity":0.3937007874015748},{"duration":1.125,"midi":72,"time":406.5,"velocity":0.3937007874015748},{"duration":1.125,"midi":81,"time":406.5,"velocity":0.3937007874015748},{"duration":0.9375,"midi":64,"time":406.5,"velocity":0.3937007874015748},{"duration":1.125,"midi":76,"time":406.5,"velocity":0.3937007874015748},{"duration":0.1875,"midi":41,"time":406.5,"velocity":0.3937007874015748},{"duration":0.75,"midi":28,"time":406.5,"velocity":0.3937007874015748},{"duration":0.1875,"midi":33,"time":406.5,"velocity":0.3937007874015748},{"duration":0.1875,"midi":37,"time":406.5,"velocity":0.3937007874015748},{"duration":0.75,"midi":40,"time":406.5,"velocity":0.3937007874015748},{"duration":0.1875,"midi":38,"time":406.5,"velocity":0.3937007874015748},{"duration":0.1875,"midi":48,"time":407.25,"velocity":0.3937007874015748},{"duration":0.1875,"midi":52,"time":407.25,"velocity":0.3937007874015748},{"duration":0.1875,"midi":57,"time":407.25,"velocity":0.3937007874015748},{"duration":0.375,"midi":69,"time":407.25,"velocity":0.3937007874015748},{"duration":0.1875,"midi":60,"time":407.25,"velocity":0.3937007874015748},{"duration":0.375,"midi":64,"time":407.25,"velocity":0.3937007874015748},{"duration":0.1875,"midi":81,"time":408,"velocity":0.3937007874015748},{"duration":0.1875,"midi":86,"time":408,"velocity":0.3937007874015748},{"duration":0.75,"midi":44,"time":408,"velocity":0.3937007874015748},{"duration":0.1875,"midi":28,"time":408,"velocity":0.3937007874015748},{"duration":0.1875,"midi":65,"time":408,"velocity":0.3937007874015748},{"duration":0.1875,"midi":77,"time":408,"velocity":0.3937007874015748},{"duration":0.1875,"midi":74,"time":408,"velocity":0.3937007874015748},{"duration":0.1875,"midi":32,"time":408,"velocity":0.3937007874015748},{"duration":0.75,"midi":32,"time":408,"velocity":0.3937007874015748},{"duration":0.1875,"midi":29,"time":408,"velocity":0.3937007874015748},{"duration":0.1875,"midi":30,"time":408,"velocity":0.3937007874015748},{"duration":0.1875,"midi":69,"time":408,"velocity":0.3937007874015748},{"duration":0.1875,"midi":31,"time":408,"velocity":0.3937007874015748},{"duration":0.1875,"midi":26,"time":408,"velocity":0.3937007874015748},{"duration":0.1875,"midi":27,"time":408,"velocity":0.3937007874015748},{"duration":0.1875,"midi":24,"time":408,"velocity":0.3937007874015748},{"duration":0.1875,"midi":25,"time":408,"velocity":0.3937007874015748},{"duration":0.1875,"midi":81,"time":408.375,"velocity":0.3937007874015748},{"duration":0.1875,"midi":74,"time":408.375,"velocity":0.3937007874015748},{"duration":0.1875,"midi":65,"time":408.375,"velocity":0.3937007874015748},{"duration":0.1875,"midi":86,"time":408.375,"velocity":0.3937007874015748},{"duration":0.1875,"midi":77,"time":408.375,"velocity":0.3937007874015748},{"duration":0.1875,"midi":69,"time":408.375,"velocity":0.3937007874015748},{"duration":0.1875,"midi":74,"time":408.75,"velocity":0.3937007874015748},{"duration":0.1875,"midi":69,"time":408.75,"velocity":0.3937007874015748},{"duration":0.1875,"midi":65,"time":408.75,"velocity":0.3937007874015748},{"duration":0.1875,"midi":71,"time":408.75,"velocity":0.3937007874015748},{"duration":0.1875,"midi":59,"time":408.75,"velocity":0.3937007874015748},{"duration":0.1875,"midi":56,"time":408.75,"velocity":0.3937007874015748},{"duration":0.1875,"midi":64,"time":408.75,"velocity":0.3937007874015748},{"duration":0.1875,"midi":52,"time":408.75,"velocity":0.3937007874015748},{"duration":0.1875,"midi":68,"time":408.75,"velocity":0.3937007874015748},{"duration":0.1875,"midi":77,"time":408.75,"velocity":0.3937007874015748},{"duration":0.1875,"midi":81,"time":408.75,"velocity":0.3937007874015748},{"duration":0.1875,"midi":86,"time":408.75,"velocity":0.3937007874015748},{"duration":0.1875,"midi":74,"time":409.125,"velocity":0.3937007874015748},{"duration":0.1875,"midi":81,"time":409.125,"velocity":0.3937007874015748},{"duration":0.1875,"midi":86,"time":409.125,"velocity":0.3937007874015748},{"duration":0.1875,"midi":69,"time":409.125,"velocity":0.3937007874015748},{"duration":0.1875,"midi":77,"time":409.125,"velocity":0.3937007874015748},{"duration":0.1875,"midi":65,"time":409.125,"velocity":0.3937007874015748},{"duration":0.1875,"midi":86,"time":409.5,"velocity":0.3937007874015748},{"duration":0.1875,"midi":69,"time":409.5,"velocity":0.3937007874015748},{"duration":0.1875,"midi":77,"time":409.5,"velocity":0.3937007874015748},{"duration":0.1875,"midi":81,"time":409.5,"velocity":0.3937007874015748},{"duration":0.1875,"midi":74,"time":409.5,"velocity":0.3937007874015748},{"duration":0.1875,"midi":41,"time":409.5,"velocity":0.3937007874015748},{"duration":0.1875,"midi":37,"time":409.5,"velocity":0.3937007874015748},{"duration":0.1875,"midi":36,"time":409.5,"velocity":0.3937007874015748},{"duration":0.1875,"midi":38,"time":409.5,"velocity":0.3937007874015748},{"duration":0.1875,"midi":35,"time":409.5,"velocity":0.3937007874015748},{"duration":0.1875,"midi":39,"time":409.5,"velocity":0.3937007874015748},{"duration":0.1875,"midi":33,"time":409.5,"velocity":0.3937007874015748},{"duration":0.1875,"midi":34,"time":409.5,"velocity":0.3937007874015748},{"duration":0.1875,"midi":40,"time":409.5,"velocity":0.3937007874015748},{"duration":0.75,"midi":40,"time":409.5,"velocity":0.3937007874015748},{"duration":0.1875,"midi":65,"time":409.5,"velocity":0.3937007874015748},{"duration":0.1875,"midi":76,"time":409.875,"velocity":0.3937007874015748},{"duration":0.1875,"midi":72,"time":409.875,"velocity":0.3937007874015748},{"duration":0.1875,"midi":69,"time":409.875,"velocity":0.3937007874015748},{"duration":0.1875,"midi":81,"time":409.875,"velocity":0.3937007874015748},{"duration":0.1875,"midi":84,"time":409.875,"velocity":0.3937007874015748},{"duration":0.1875,"midi":64,"time":409.875,"velocity":0.3937007874015748},{"duration":0.1875,"midi":64,"time":410.25,"velocity":0.3937007874015748},{"duration":0.1875,"midi":62,"time":410.25,"velocity":0.3937007874015748},{"duration":0.1875,"midi":52,"time":410.25,"velocity":0.3937007874015748},{"duration":0.1875,"midi":80,"time":410.25,"velocity":0.3937007874015748},{"duration":0.1875,"midi":74,"time":410.25,"velocity":0.3937007874015748},{"duration":0.1875,"midi":59,"time":410.25,"velocity":0.3937007874015748},{"duration":0.1875,"midi":56,"time":410.25,"velocity":0.3937007874015748},{"duration":0.1875,"midi":83,"time":410.25,"velocity":0.3937007874015748},{"duration":0.1875,"midi":71,"time":410.25,"velocity":0.3937007874015748},{"duration":0.1875,"midi":68,"time":410.25,"velocity":0.3937007874015748},{"duration":0.1875,"midi":71,"time":410.25,"velocity":0.3937007874015748},{"duration":0.1875,"midi":68,"time":410.25,"velocity":0.3937007874015748},{"duration":0.1875,"midi":81,"time":410.625,"velocity":0.3937007874015748},{"duration":0.1875,"midi":77,"time":410.625,"velocity":0.3937007874015748},{"duration":0.1875,"midi":65,"time":410.625,"velocity":0.3937007874015748},{"duration":0.1875,"midi":69,"time":410.625,"velocity":0.3937007874015748},{"duration":0.1875,"midi":74,"time":410.625,"velocity":0.3937007874015748},{"duration":0.1875,"midi":86,"time":410.625,"velocity":0.3937007874015748},{"duration":0.1875,"midi":31,"time":411,"velocity":0.3937007874015748},{"duration":0.1875,"midi":27,"time":411,"velocity":0.3937007874015748},{"duration":0.1875,"midi":30,"time":411,"velocity":0.3937007874015748},{"duration":0.1875,"midi":24,"time":411,"velocity":0.3937007874015748},{"duration":0.1875,"midi":81,"time":411,"velocity":0.3937007874015748},{"duration":0.1875,"midi":72,"time":411,"velocity":0.3937007874015748},{"duration":0.1875,"midi":26,"time":411,"velocity":0.3937007874015748},{"duration":0.1875,"midi":76,"time":411,"velocity":0.3937007874015748},{"duration":0.75,"midi":45,"time":411,"velocity":0.3937007874015748},{"duration":0.1875,"midi":29,"time":411,"velocity":0.3937007874015748},{"duration":0.75,"midi":33,"time":411,"velocity":0.3937007874015748},{"duration":0.1875,"midi":69,"time":411,"velocity":0.3937007874015748},{"duration":0.1875,"midi":64,"time":411,"velocity":0.3937007874015748},{"duration":0.1875,"midi":28,"time":411,"velocity":0.3937007874015748},{"duration":0.1875,"midi":84,"time":411,"velocity":0.3937007874015748},{"duration":0.1875,"midi":32,"time":411,"velocity":0.3937007874015748},{"duration":0.1875,"midi":25,"time":411,"velocity":0.3937007874015748},{"duration":0.1875,"midi":76,"time":411.375,"velocity":0.3937007874015748},{"duration":0.1875,"midi":69,"time":411.375,"velocity":0.3937007874015748},{"duration":0.1875,"midi":72,"time":411.375,"velocity":0.3937007874015748},{"duration":0.1875,"midi":81,"time":411.375,"velocity":0.3937007874015748},{"duration":0.1875,"midi":64,"time":411.375,"velocity":0.3937007874015748},{"duration":0.1875,"midi":84,"time":411.375,"velocity":0.3937007874015748},{"duration":0.1875,"midi":69,"time":411.75,"velocity":0.3937007874015748},{"duration":0.1875,"midi":69,"time":411.75,"velocity":0.3937007874015748},{"duration":0.1875,"midi":81,"time":411.75,"velocity":0.3937007874015748},{"duration":0.1875,"midi":72,"time":411.75,"velocity":0.3937007874015748},{"duration":0.1875,"midi":52,"time":411.75,"velocity":0.3937007874015748},{"duration":0.1875,"midi":64,"time":411.75,"velocity":0.3937007874015748},{"duration":0.1875,"midi":48,"time":411.75,"velocity":0.3937007874015748},{"duration":0.1875,"midi":64,"time":411.75,"velocity":0.3937007874015748},{"duration":0.1875,"midi":84,"time":411.75,"velocity":0.3937007874015748},{"duration":0.1875,"midi":57,"time":411.75,"velocity":0.3937007874015748},{"duration":0.1875,"midi":76,"time":411.75,"velocity":0.3937007874015748},{"duration":0.1875,"midi":60,"time":411.75,"velocity":0.3937007874015748},{"duration":0.1875,"midi":69,"time":412.125,"velocity":0.3937007874015748},{"duration":0.1875,"midi":81,"time":412.125,"velocity":0.3937007874015748},{"duration":0.1875,"midi":84,"time":412.125,"velocity":0.3937007874015748},{"duration":0.1875,"midi":76,"time":412.125,"velocity":0.3937007874015748},{"duration":0.1875,"midi":64,"time":412.125,"velocity":0.3937007874015748},{"duration":0.1875,"midi":72,"time":412.125,"velocity":0.3937007874015748},{"duration":0.1875,"midi":81,"time":412.5,"velocity":0.3937007874015748},{"duration":0.1875,"midi":64,"time":412.5,"velocity":0.3937007874015748},{"duration":0.1875,"midi":37,"time":412.5,"velocity":0.3937007874015748},{"duration":0.1875,"midi":72,"time":412.5,"velocity":0.3937007874015748},{"duration":0.1875,"midi":40,"time":412.5,"velocity":0.3937007874015748},{"duration":0.1875,"midi":33,"time":412.5,"velocity":0.3937007874015748},{"duration":0.1875,"midi":36,"time":412.5,"velocity":0.3937007874015748},{"duration":0.1875,"midi":35,"time":412.5,"velocity":0.3937007874015748},{"duration":0.1875,"midi":38,"time":412.5,"velocity":0.3937007874015748},{"duration":0.1875,"midi":39,"time":412.5,"velocity":0.3937007874015748},{"duration":0.1875,"midi":34,"time":412.5,"velocity":0.3937007874015748},{"duration":0.1875,"midi":69,"time":412.5,"velocity":0.3937007874015748},{"duration":0.1875,"midi":41,"time":412.5,"velocity":0.3937007874015748},{"duration":0.1875,"midi":76,"time":412.5,"velocity":0.3937007874015748},{"duration":0.75,"midi":40,"time":412.5,"velocity":0.3937007874015748},{"duration":0.1875,"midi":84,"time":412.5,"velocity":0.3937007874015748},{"duration":0.1875,"midi":71,"time":412.875,"velocity":0.3937007874015748},{"duration":0.1875,"midi":83,"time":412.875,"velocity":0.3937007874015748},{"duration":0.1875,"midi":62,"time":412.875,"velocity":0.3937007874015748},{"duration":0.1875,"midi":74,"time":412.875,"velocity":0.3937007874015748},{"duration":0.1875,"midi":80,"time":412.875,"velocity":0.3937007874015748},{"duration":0.1875,"midi":68,"time":412.875,"velocity":0.3937007874015748},{"duration":0.1875,"midi":76,"time":413.25,"velocity":0.3937007874015748},{"duration":0.1875,"midi":60,"time":413.25,"velocity":0.3937007874015748},{"duration":0.1875,"midi":60,"time":413.25,"velocity":0.3937007874015748},{"duration":0.1875,"midi":69,"time":413.25,"velocity":0.3937007874015748},{"duration":0.1875,"midi":64,"time":413.25,"velocity":0.3937007874015748},{"duration":0.1875,"midi":81,"time":413.25,"velocity":0.3937007874015748},{"duration":0.1875,"midi":48,"time":413.25,"velocity":0.3937007874015748},{"duration":0.1875,"midi":64,"time":413.25,"velocity":0.3937007874015748},{"duration":0.1875,"midi":72,"time":413.25,"velocity":0.3937007874015748},{"duration":0.1875,"midi":57,"time":413.25,"velocity":0.3937007874015748},{"duration":0.1875,"midi":69,"time":413.25,"velocity":0.3937007874015748},{"duration":0.1875,"midi":52,"time":413.25,"velocity":0.3937007874015748},{"duration":0.1875,"midi":76,"time":413.625,"velocity":0.3937007874015748},{"duration":0.1875,"midi":84,"time":413.625,"velocity":0.3937007874015748},{"duration":0.1875,"midi":81,"time":413.625,"velocity":0.3937007874015748},{"duration":0.1875,"midi":64,"time":413.625,"velocity":0.3937007874015748},{"duration":0.1875,"midi":69,"time":413.625,"velocity":0.3937007874015748},{"duration":0.1875,"midi":72,"time":413.625,"velocity":0.3937007874015748},{"duration":0.1875,"midi":31,"time":414,"velocity":0.3937007874015748},{"duration":0.1875,"midi":83,"time":414,"velocity":0.3937007874015748},{"duration":0.1875,"midi":75,"time":414,"velocity":0.3937007874015748},{"duration":0.1875,"midi":25,"time":414,"velocity":0.3937007874015748},{"duration":0.1875,"midi":32,"time":414,"velocity":0.3937007874015748},{"duration":0.1875,"midi":26,"time":414,"velocity":0.3937007874015748},{"duration":0.1875,"midi":27,"time":414,"velocity":0.3937007874015748},{"duration":0.1875,"midi":66,"time":414,"velocity":0.3937007874015748},{"duration":0.1875,"midi":30,"time":414,"velocity":0.3937007874015748},{"duration":0.1875,"midi":24,"time":414,"velocity":0.3937007874015748},{"duration":0.75,"midi":47,"time":414,"velocity":0.3937007874015748},{"duration":0.1875,"midi":71,"time":414,"velocity":0.3937007874015748},{"duration":0.1875,"midi":29,"time":414,"velocity":0.3937007874015748},{"duration":0.1875,"midi":63,"time":414,"velocity":0.3937007874015748},{"duration":0.1875,"midi":78,"time":414,"velocity":0.3937007874015748},{"duration":0.1875,"midi":28,"time":414,"velocity":0.3937007874015748},{"duration":0.75,"midi":35,"time":414,"velocity":0.3937007874015748},{"duration":0.1875,"midi":71,"time":414.375,"velocity":0.3937007874015748},{"duration":0.1875,"midi":78,"time":414.375,"velocity":0.3937007874015748},{"duration":0.1875,"midi":63,"time":414.375,"velocity":0.3937007874015748},{"duration":0.1875,"midi":66,"time":414.375,"velocity":0.3937007874015748},{"duration":0.1875,"midi":83,"time":414.375,"velocity":0.3937007874015748},{"duration":0.1875,"midi":75,"time":414.375,"velocity":0.3937007874015748},{"duration":0.1875,"midi":51,"time":414.75,"velocity":0.3937007874015748},{"duration":0.1875,"midi":63,"time":414.75,"velocity":0.3937007874015748},{"duration":0.1875,"midi":63,"time":414.75,"velocity":0.3937007874015748},{"duration":0.1875,"midi":57,"time":414.75,"velocity":0.3937007874015748},{"duration":0.1875,"midi":59,"time":414.75,"velocity":0.3937007874015748},{"duration":0.1875,"midi":83,"time":414.75,"velocity":0.3937007874015748},{"duration":0.1875,"midi":78,"time":414.75,"velocity":0.3937007874015748},{"duration":0.1875,"midi":75,"time":414.75,"velocity":0.3937007874015748},{"duration":0.1875,"midi":47,"time":414.75,"velocity":0.3937007874015748},{"duration":0.1875,"midi":69,"time":414.75,"velocity":0.3937007874015748},{"duration":0.1875,"midi":71,"time":414.75,"velocity":0.3937007874015748},{"duration":0.1875,"midi":66,"time":414.75,"velocity":0.3937007874015748},{"duration":0.1875,"midi":78,"time":415.125,"velocity":0.3937007874015748},{"duration":0.1875,"midi":71,"time":415.125,"velocity":0.3937007874015748},{"duration":0.1875,"midi":66,"time":415.125,"velocity":0.3937007874015748},{"duration":0.1875,"midi":63,"time":415.125,"velocity":0.3937007874015748},{"duration":0.1875,"midi":83,"time":415.125,"velocity":0.3937007874015748},{"duration":0.1875,"midi":75,"time":415.125,"velocity":0.3937007874015748},{"duration":0.1875,"midi":37,"time":415.5,"velocity":0.3937007874015748},{"duration":0.1875,"midi":78,"time":415.5,"velocity":0.3937007874015748},{"duration":0.1875,"midi":33,"time":415.5,"velocity":0.3937007874015748},{"duration":0.1875,"midi":71,"time":415.5,"velocity":0.3937007874015748},{"duration":0.1875,"midi":34,"time":415.5,"velocity":0.3937007874015748},{"duration":0.1875,"midi":38,"time":415.5,"velocity":0.3937007874015748},{"duration":0.75,"midi":47,"time":415.5,"velocity":0.3937007874015748},{"duration":0.1875,"midi":41,"time":415.5,"velocity":0.3937007874015748},{"duration":0.1875,"midi":39,"time":415.5,"velocity":0.3937007874015748},{"duration":0.1875,"midi":35,"time":415.5,"velocity":0.3937007874015748},{"duration":0.1875,"midi":75,"time":415.5,"velocity":0.3937007874015748},{"duration":0.1875,"midi":36,"time":415.5,"velocity":0.3937007874015748},{"duration":0.1875,"midi":40,"time":415.5,"velocity":0.3937007874015748},{"duration":0.1875,"midi":66,"time":415.5,"velocity":0.3937007874015748},{"duration":0.1875,"midi":59,"time":415.5,"velocity":0.3937007874015748},{"duration":0.1875,"midi":63,"time":415.5,"velocity":0.3937007874015748},{"duration":0.1875,"midi":63,"time":416.25,"velocity":0.3937007874015748},{"duration":0.1875,"midi":71,"time":416.25,"velocity":0.3937007874015748},{"duration":0.1875,"midi":59,"time":416.25,"velocity":0.3937007874015748},{"duration":0.1875,"midi":47,"time":416.25,"velocity":0.3937007874015748},{"duration":0.1875,"midi":51,"time":416.25,"velocity":0.3937007874015748},{"duration":0.1875,"midi":78,"time":416.25,"velocity":0.3937007874015748},{"duration":0.1875,"midi":66,"time":416.25,"velocity":0.3937007874015748},{"duration":0.1875,"midi":75,"time":416.25,"velocity":0.3937007874015748},{"duration":0.1875,"midi":57,"time":416.25,"velocity":0.3937007874015748},{"duration":0.1875,"midi":83,"time":416.25,"velocity":0.3937007874015748},{"duration":0.1875,"midi":69,"time":416.25,"velocity":0.3937007874015748},{"duration":0.1875,"midi":63,"time":416.25,"velocity":0.3937007874015748},{"duration":0.75,"midi":56,"time":417,"velocity":0.3937007874015748},{"duration":0.1875,"midi":32,"time":417,"velocity":0.3937007874015748},{"duration":0.1875,"midi":52,"time":417,"velocity":0.3937007874015748},{"duration":0.1875,"midi":26,"time":417,"velocity":0.3937007874015748},{"duration":0.1875,"midi":75,"time":417,"velocity":0.3937007874015748},{"duration":0.1875,"midi":25,"time":417,"velocity":0.3937007874015748},{"duration":0.1875,"midi":59,"time":417,"velocity":0.3937007874015748},{"duration":0.1875,"midi":27,"time":417,"velocity":0.3937007874015748},{"duration":0.1875,"midi":63,"time":417,"velocity":0.3937007874015748},{"duration":0.1875,"midi":28,"time":417,"velocity":0.3937007874015748},{"duration":0.1875,"midi":80,"time":417,"velocity":0.3937007874015748},{"duration":0.1875,"midi":29,"time":417,"velocity":0.3937007874015748},{"duration":0.75,"midi":52,"time":417,"velocity":0.3937007874015748},{"duration":0.1875,"midi":31,"time":417,"velocity":0.3937007874015748},{"duration":0.75,"midi":40,"time":417,"velocity":0.3937007874015748},{"duration":0.1875,"midi":71,"time":417,"velocity":0.3937007874015748},{"duration":0.1875,"midi":68,"time":417,"velocity":0.3937007874015748},{"duration":0.1875,"midi":24,"time":417,"velocity":0.3937007874015748},{"duration":0.1875,"midi":44,"time":417,"velocity":0.3937007874015748},{"duration":0.1875,"midi":30,"time":417,"velocity":0.3937007874015748},{"duration":0.1875,"midi":33,"time":418.5,"velocity":0.3937007874015748},{"duration":0.1875,"midi":38,"time":418.5,"velocity":0.3937007874015748},{"duration":0.1875,"midi":40,"time":418.5,"velocity":0.3937007874015748},{"duration":1.5,"midi":40,"time":418.5,"velocity":0.3937007874015748},{"duration":0.1875,"midi":41,"time":418.5,"velocity":0.3937007874015748},{"duration":0.1875,"midi":34,"time":418.5,"velocity":0.3937007874015748},{"duration":1.5,"midi":28,"time":418.5,"velocity":0.3937007874015748},{"duration":0.1875,"midi":36,"time":418.5,"velocity":0.3937007874015748},{"duration":0.1875,"midi":35,"time":418.5,"velocity":0.3937007874015748},{"duration":0.1875,"midi":37,"time":418.5,"velocity":0.3937007874015748},{"duration":0.1875,"midi":39,"time":418.5,"velocity":0.3937007874015748},{"duration":0.1875,"midi":32,"time":420,"velocity":0.3937007874015748},{"duration":0.1875,"midi":30,"time":420,"velocity":0.3937007874015748},{"duration":0.1875,"midi":31,"time":420,"velocity":0.3937007874015748},{"duration":0.75,"midi":33,"time":420,"velocity":0.3937007874015748},{"duration":0.75,"midi":45,"time":420,"velocity":0.3937007874015748},{"duration":0.1875,"midi":64,"time":420,"velocity":0.3937007874015748},{"duration":0.1875,"midi":76,"time":420,"velocity":0.3937007874015748},{"duration":0.1875,"midi":26,"time":420,"velocity":0.3937007874015748},{"duration":0.1875,"midi":60,"time":420,"velocity":0.3937007874015748},{"duration":0.1875,"midi":28,"time":420,"velocity":0.3937007874015748},{"duration":0.1875,"midi":69,"time":420,"velocity":0.3937007874015748},{"duration":0.1875,"midi":27,"time":420,"velocity":0.3937007874015748},{"duration":0.1875,"midi":25,"time":420,"velocity":0.3937007874015748},{"duration":0.1875,"midi":29,"time":420,"velocity":0.3937007874015748},{"duration":0.1875,"midi":57,"time":420,"velocity":0.3937007874015748},{"duration":0.1875,"midi":72,"time":420,"velocity":0.3937007874015748},{"duration":0.1875,"midi":24,"time":420,"velocity":0.3937007874015748},{"duration":0.1875,"midi":57,"time":420.375,"velocity":0.3937007874015748},{"duration":0.1875,"midi":76,"time":420.375,"velocity":0.3937007874015748},{"duration":0.1875,"midi":64,"time":420.375,"velocity":0.3937007874015748},{"duration":0.1875,"midi":60,"time":420.375,"velocity":0.3937007874015748},{"duration":0.1875,"midi":72,"time":420.375,"velocity":0.3937007874015748},{"duration":0.1875,"midi":69,"time":420.375,"velocity":0.3937007874015748},{"duration":0.1875,"midi":64,"time":420.75,"velocity":0.3937007874015748},{"duration":0.1875,"midi":64,"time":420.75,"velocity":0.3937007874015748},{"duration":0.1875,"midi":60,"time":420.75,"velocity":0.3937007874015748},{"duration":0.1875,"midi":69,"time":420.75,"velocity":0.3937007874015748},{"duration":0.1875,"midi":69,"time":420.75,"velocity":0.3937007874015748},{"duration":0.1875,"midi":57,"time":420.75,"velocity":0.3937007874015748},{"duration":0.1875,"midi":60,"time":420.75,"velocity":0.3937007874015748},{"duration":0.1875,"midi":52,"time":420.75,"velocity":0.3937007874015748},{"duration":0.1875,"midi":72,"time":420.75,"velocity":0.3937007874015748},{"duration":0.1875,"midi":48,"time":420.75,"velocity":0.3937007874015748},{"duration":0.1875,"midi":76,"time":420.75,"velocity":0.3937007874015748},{"duration":0.1875,"midi":57,"time":420.75,"velocity":0.3937007874015748},{"duration":0.1875,"midi":72,"time":421.125,"velocity":0.3937007874015748},{"duration":0.1875,"midi":57,"time":421.125,"velocity":0.3937007874015748},{"duration":0.1875,"midi":64,"time":421.125,"velocity":0.3937007874015748},{"duration":0.1875,"midi":69,"time":421.125,"velocity":0.3937007874015748},{"duration":0.1875,"midi":76,"time":421.125,"velocity":0.3937007874015748},{"duration":0.1875,"midi":60,"time":421.125,"velocity":0.3937007874015748},{"duration":0.1875,"midi":64,"time":421.5,"velocity":0.3937007874015748},{"duration":0.1875,"midi":34,"time":421.5,"velocity":0.3937007874015748},{"duration":0.1875,"midi":35,"time":421.5,"velocity":0.3937007874015748},{"duration":0.1875,"midi":36,"time":421.5,"velocity":0.3937007874015748},{"duration":0.1875,"midi":76,"time":421.5,"velocity":0.3937007874015748},{"duration":0.1875,"midi":33,"time":421.5,"velocity":0.3937007874015748},{"duration":0.1875,"midi":60,"time":421.5,"velocity":0.3937007874015748},{"duration":0.1875,"midi":41,"time":421.5,"velocity":0.3937007874015748},{"duration":0.1875,"midi":40,"time":421.5,"velocity":0.3937007874015748},{"duration":0.1875,"midi":57,"time":421.5,"velocity":0.3937007874015748},{"duration":0.1875,"midi":38,"time":421.5,"velocity":0.3937007874015748},{"duration":0.1875,"midi":69,"time":421.5,"velocity":0.3937007874015748},{"duration":0.75,"midi":40,"time":421.5,"velocity":0.3937007874015748},{"duration":0.1875,"midi":39,"time":421.5,"velocity":0.3937007874015748},{"duration":0.1875,"midi":72,"time":421.5,"velocity":0.3937007874015748},{"duration":0.75,"midi":28,"time":421.5,"velocity":0.3937007874015748},{"duration":0.1875,"midi":37,"time":421.5,"velocity":0.3937007874015748},{"duration":0.1875,"midi":57,"time":421.875,"velocity":0.3937007874015748},{"duration":0.1875,"midi":72,"time":421.875,"velocity":0.3937007874015748},{"duration":0.1875,"midi":60,"time":421.875,"velocity":0.3937007874015748},{"duration":0.1875,"midi":64,"time":421.875,"velocity":0.3937007874015748},{"duration":0.1875,"midi":76,"time":421.875,"velocity":0.3937007874015748},{"duration":0.1875,"midi":69,"time":421.875,"velocity":0.3937007874015748},{"duration":0.1875,"midi":72,"time":422.25,"velocity":0.3937007874015748},{"duration":0.1875,"midi":76,"time":422.25,"velocity":0.3937007874015748},{"duration":0.1875,"midi":60,"time":422.25,"velocity":0.3937007874015748},{"duration":0.1875,"midi":64,"time":422.25,"velocity":0.3937007874015748},{"duration":0.1875,"midi":48,"time":422.25,"velocity":0.3937007874015748},{"duration":0.1875,"midi":69,"time":422.25,"velocity":0.3937007874015748},{"duration":0.1875,"midi":69,"time":422.25,"velocity":0.3937007874015748},{"duration":0.1875,"midi":64,"time":422.25,"velocity":0.3937007874015748},{"duration":0.1875,"midi":52,"time":422.25,"velocity":0.3937007874015748},{"duration":0.1875,"midi":60,"time":422.25,"velocity":0.3937007874015748},{"duration":0.1875,"midi":57,"time":422.25,"velocity":0.3937007874015748},{"duration":0.1875,"midi":57,"time":422.25,"velocity":0.3937007874015748},{"duration":0.1875,"midi":76,"time":422.625,"velocity":0.3937007874015748},{"duration":0.1875,"midi":64,"time":422.625,"velocity":0.3937007874015748},{"duration":0.1875,"midi":69,"time":422.625,"velocity":0.3937007874015748},{"duration":0.1875,"midi":57,"time":422.625,"velocity":0.3937007874015748},{"duration":0.1875,"midi":60,"time":422.625,"velocity":0.3937007874015748},{"duration":0.1875,"midi":72,"time":422.625,"velocity":0.3937007874015748},{"duration":0.1875,"midi":64,"time":423,"velocity":0.3937007874015748},{"duration":0.1875,"midi":30,"time":423,"velocity":0.3937007874015748},{"duration":0.1875,"midi":28,"time":423,"velocity":0.3937007874015748},{"duration":0.1875,"midi":57,"time":423,"velocity":0.3937007874015748},{"duration":0.1875,"midi":26,"time":423,"velocity":0.3937007874015748},{"duration":0.1875,"midi":31,"time":423,"velocity":0.3937007874015748},{"duration":0.1875,"midi":29,"time":423,"velocity":0.3937007874015748},{"duration":0.1875,"midi":27,"time":423,"velocity":0.3937007874015748},{"duration":0.1875,"midi":25,"time":423,"velocity":0.3937007874015748},{"duration":0.1875,"midi":32,"time":423,"velocity":0.3937007874015748},{"duration":0.75,"midi":45,"time":423,"velocity":0.3937007874015748},{"duration":0.1875,"midi":76,"time":423,"velocity":0.3937007874015748},{"duration":0.09375,"midi":88,"time":423,"velocity":0.3937007874015748},{"duration":0.1875,"midi":69,"time":423,"velocity":0.3937007874015748},{"duration":0.1875,"midi":24,"time":423,"velocity":0.3937007874015748},{"duration":0.1875,"midi":60,"time":423,"velocity":0.3937007874015748},{"duration":0.75,"midi":33,"time":423,"velocity":0.3937007874015748},{"duration":0.1875,"midi":72,"time":423,"velocity":0.3937007874015748},{"duration":0.09375,"midi":88,"time":423.1875,"velocity":0.3937007874015748},{"duration":0.1875,"midi":69,"time":423.375,"velocity":0.3937007874015748},{"duration":0.1875,"midi":57,"time":423.375,"velocity":0.3937007874015748},{"duration":0.1875,"midi":64,"time":423.375,"velocity":0.3937007874015748},{"duration":0.09375,"midi":88,"time":423.375,"velocity":0.3937007874015748},{"duration":0.1875,"midi":60,"time":423.375,"velocity":0.3937007874015748},{"duration":0.1875,"midi":72,"time":423.375,"velocity":0.3937007874015748},{"duration":0.1875,"midi":76,"time":423.375,"velocity":0.3937007874015748},{"duration":0.09375,"midi":88,"time":423.5625,"velocity":0.3937007874015748},{"duration":0.1875,"midi":76,"time":423.75,"velocity":0.3937007874015748},{"duration":0.1875,"midi":60,"time":423.75,"velocity":0.3937007874015748},{"duration":0.1875,"midi":48,"time":423.75,"velocity":0.3937007874015748},{"duration":0.1875,"midi":60,"time":423.75,"velocity":0.3937007874015748},{"duration":0.1875,"midi":69,"time":423.75,"velocity":0.3937007874015748},{"duration":0.1875,"midi":69,"time":423.75,"velocity":0.3937007874015748},{"duration":0.09375,"midi":88,"time":423.75,"velocity":0.3937007874015748},{"duration":0.1875,"midi":64,"time":423.75,"velocity":0.3937007874015748},{"duration":0.1875,"midi":57,"time":423.75,"velocity":0.3937007874015748},{"duration":0.1875,"midi":64,"time":423.75,"velocity":0.3937007874015748},{"duration":0.1875,"midi":52,"time":423.75,"velocity":0.3937007874015748},{"duration":0.1875,"midi":72,"time":423.75,"velocity":0.3937007874015748},{"duration":0.1875,"midi":57,"time":423.75,"velocity":0.3937007874015748},{"duration":0.09375,"midi":88,"time":423.9375,"velocity":0.3937007874015748},{"duration":0.1875,"midi":69,"time":424.125,"velocity":0.3937007874015748},{"duration":0.1875,"midi":72,"time":424.125,"velocity":0.3937007874015748},{"duration":0.1875,"midi":57,"time":424.125,"velocity":0.3937007874015748},{"duration":0.1875,"midi":76,"time":424.125,"velocity":0.3937007874015748},{"duration":0.09375,"midi":88,"time":424.125,"velocity":0.3937007874015748},{"duration":0.1875,"midi":64,"time":424.125,"velocity":0.3937007874015748},{"duration":0.1875,"midi":60,"time":424.125,"velocity":0.3937007874015748},{"duration":0.09375,"midi":88,"time":424.3125,"velocity":0.3937007874015748},{"duration":0.09375,"midi":88,"time":424.5,"velocity":0.3937007874015748},{"duration":0.75,"midi":28,"time":424.5,"velocity":0.3937007874015748},{"duration":0.1875,"midi":37,"time":424.5,"velocity":0.3937007874015748},{"duration":0.1875,"midi":39,"time":424.5,"velocity":0.3937007874015748},{"duration":0.1875,"midi":72,"time":424.5,"velocity":0.3937007874015748},{"duration":0.1875,"midi":36,"time":424.5,"velocity":0.3937007874015748},{"duration":0.1875,"midi":40,"time":424.5,"velocity":0.3937007874015748},{"duration":0.1875,"midi":57,"time":424.5,"velocity":0.3937007874015748},{"duration":0.1875,"midi":76,"time":424.5,"velocity":0.3937007874015748},{"duration":0.1875,"midi":41,"time":424.5,"velocity":0.3937007874015748},{"duration":0.75,"midi":40,"time":424.5,"velocity":0.3937007874015748},{"duration":0.1875,"midi":35,"time":424.5,"velocity":0.3937007874015748},{"duration":0.1875,"midi":69,"time":424.5,"velocity":0.3937007874015748},{"duration":0.1875,"midi":64,"time":424.5,"velocity":0.3937007874015748},{"duration":0.1875,"midi":33,"time":424.5,"velocity":0.3937007874015748},{"duration":0.1875,"midi":34,"time":424.5,"velocity":0.3937007874015748},{"duration":0.1875,"midi":38,"time":424.5,"velocity":0.3937007874015748},{"duration":0.1875,"midi":60,"time":424.5,"velocity":0.3937007874015748},{"duration":0.09375,"midi":88,"time":424.6875,"velocity":0.3937007874015748},{"duration":0.1875,"midi":69,"time":424.875,"velocity":0.3937007874015748},{"duration":0.09375,"midi":88,"time":424.875,"velocity":0.3937007874015748},{"duration":0.1875,"midi":72,"time":424.875,"velocity":0.3937007874015748},{"duration":0.1875,"midi":64,"time":424.875,"velocity":0.3937007874015748},{"duration":0.1875,"midi":57,"time":424.875,"velocity":0.3937007874015748},{"duration":0.1875,"midi":76,"time":424.875,"velocity":0.3937007874015748},{"duration":0.1875,"midi":60,"time":424.875,"velocity":0.3937007874015748},{"duration":0.09375,"midi":88,"time":425.0625,"velocity":0.3937007874015748},{"duration":0.1875,"midi":57,"time":425.25,"velocity":0.3937007874015748},{"duration":0.1875,"midi":60,"time":425.25,"velocity":0.3937007874015748},{"duration":0.1875,"midi":69,"time":425.25,"velocity":0.3937007874015748},{"duration":0.1875,"midi":48,"time":425.25,"velocity":0.3937007874015748},{"duration":0.1875,"midi":64,"time":425.25,"velocity":0.3937007874015748},{"duration":0.1875,"midi":76,"time":425.25,"velocity":0.3937007874015748},{"duration":0.1875,"midi":69,"time":425.25,"velocity":0.3937007874015748},{"duration":0.1875,"midi":60,"time":425.25,"velocity":0.3937007874015748},{"duration":0.09375,"midi":88,"time":425.25,"velocity":0.3937007874015748},{"duration":0.1875,"midi":64,"time":425.25,"velocity":0.3937007874015748},{"duration":0.1875,"midi":72,"time":425.25,"velocity":0.3937007874015748},{"duration":0.1875,"midi":57,"time":425.25,"velocity":0.3937007874015748},{"duration":0.1875,"midi":52,"time":425.25,"velocity":0.3937007874015748},{"duration":0.09375,"midi":88,"time":425.4375,"velocity":0.3937007874015748},{"duration":0.1875,"midi":72,"time":425.625,"velocity":0.3937007874015748},{"duration":0.1875,"midi":69,"time":425.625,"velocity":0.3937007874015748},{"duration":0.1875,"midi":64,"time":425.625,"velocity":0.3937007874015748},{"duration":0.09375,"midi":88,"time":425.625,"velocity":0.3937007874015748},{"duration":0.1875,"midi":76,"time":425.625,"velocity":0.3937007874015748},{"duration":0.1875,"midi":57,"time":425.625,"velocity":0.3937007874015748},{"duration":0.1875,"midi":60,"time":425.625,"velocity":0.3937007874015748},{"duration":0.09375,"midi":88,"time":425.8125,"velocity":0.3937007874015748},{"duration":0.1875,"midi":57,"time":426,"velocity":0.3937007874015748},{"duration":0.1875,"midi":69,"time":426,"velocity":0.3937007874015748},{"duration":0.1875,"midi":72,"time":426,"velocity":0.3937007874015748},{"duration":0.75,"midi":45,"time":426,"velocity":0.3937007874015748},{"duration":0.1875,"midi":60,"time":426,"velocity":0.3937007874015748},{"duration":0.09375,"midi":88,"time":426,"velocity":0.3937007874015748},{"duration":0.1875,"midi":27,"time":426,"velocity":0.3937007874015748},{"duration":0.1875,"midi":76,"time":426,"velocity":0.3937007874015748},{"duration":0.1875,"midi":25,"time":426,"velocity":0.3937007874015748},{"duration":0.1875,"midi":64,"time":426,"velocity":0.3937007874015748},{"duration":0.1875,"midi":31,"time":426,"velocity":0.3937007874015748},{"duration":0.1875,"midi":26,"time":426,"velocity":0.3937007874015748},{"duration":0.1875,"midi":24,"time":426,"velocity":0.3937007874015748},{"duration":0.75,"midi":33,"time":426,"velocity":0.3937007874015748},{"duration":0.1875,"midi":28,"time":426,"velocity":0.3937007874015748},{"duration":0.1875,"midi":29,"time":426,"velocity":0.3937007874015748},{"duration":0.1875,"midi":30,"time":426,"velocity":0.3937007874015748},{"duration":0.1875,"midi":32,"time":426,"velocity":0.3937007874015748},{"duration":0.09375,"midi":88,"time":426.1875,"velocity":0.3937007874015748},{"duration":0.1875,"midi":57,"time":426.375,"velocity":0.3937007874015748},{"duration":0.1875,"midi":62,"time":426.375,"velocity":0.3937007874015748},{"duration":0.1875,"midi":65,"time":426.375,"velocity":0.3937007874015748},{"duration":0.1875,"midi":77,"time":426.375,"velocity":0.3937007874015748},{"duration":0.1875,"midi":69,"time":426.375,"velocity":0.3937007874015748},{"duration":0.09375,"midi":88,"time":426.375,"velocity":0.3937007874015748},{"duration":0.1875,"midi":74,"time":426.375,"velocity":0.3937007874015748},{"duration":0.09375,"midi":88,"time":426.5625,"velocity":0.3937007874015748},{"duration":0.1875,"midi":64,"time":426.75,"velocity":0.3937007874015748},{"duration":0.1875,"midi":57,"time":426.75,"velocity":0.3937007874015748},{"duration":0.1875,"midi":48,"time":426.75,"velocity":0.3937007874015748},{"duration":0.1875,"midi":69,"time":426.75,"velocity":0.3937007874015748},{"duration":0.1875,"midi":52,"time":426.75,"velocity":0.3937007874015748},{"duration":0.1875,"midi":57,"time":426.75,"velocity":0.3937007874015748},{"duration":0.1875,"midi":60,"time":426.75,"velocity":0.3937007874015748},{"duration":0.1875,"midi":64,"time":426.75,"velocity":0.3937007874015748},{"duration":0.1875,"midi":76,"time":426.75,"velocity":0.3937007874015748},{"duration":0.1875,"midi":60,"time":426.75,"velocity":0.3937007874015748},{"duration":0.1875,"midi":72,"time":426.75,"velocity":0.3937007874015748},{"duration":0.1875,"midi":69,"time":426.75,"velocity":0.3937007874015748},{"duration":0.1875,"midi":75,"time":427.125,"velocity":0.3937007874015748},{"duration":0.1875,"midi":69,"time":427.125,"velocity":0.3937007874015748},{"duration":0.1875,"midi":59,"time":427.125,"velocity":0.3937007874015748},{"duration":0.1875,"midi":57,"time":427.125,"velocity":0.3937007874015748},{"duration":0.1875,"midi":63,"time":427.125,"velocity":0.3937007874015748},{"duration":0.1875,"midi":71,"time":427.125,"velocity":0.3937007874015748},{"duration":0.1875,"midi":57,"time":427.5,"velocity":0.3937007874015748},{"duration":0.1875,"midi":76,"time":427.5,"velocity":0.3937007874015748},{"duration":0.1875,"midi":72,"time":427.5,"velocity":0.3937007874015748},{"duration":0.1875,"midi":60,"time":427.5,"velocity":0.3937007874015748},{"duration":0.1875,"midi":40,"time":427.5,"velocity":0.3937007874015748},{"duration":0.1875,"midi":34,"time":427.5,"velocity":0.3937007874015748},{"duration":0.1875,"midi":36,"time":427.5,"velocity":0.3937007874015748},{"duration":0.1875,"midi":35,"time":427.5,"velocity":0.3937007874015748},{"duration":0.75,"midi":28,"time":427.5,"velocity":0.3937007874015748},{"duration":0.75,"midi":40,"time":427.5,"velocity":0.3937007874015748},{"duration":0.1875,"midi":33,"time":427.5,"velocity":0.3937007874015748},{"duration":0.1875,"midi":39,"time":427.5,"velocity":0.3937007874015748},{"duration":0.1875,"midi":69,"time":427.5,"velocity":0.3937007874015748},{"duration":0.1875,"midi":41,"time":427.5,"velocity":0.3937007874015748},{"duration":0.1875,"midi":64,"time":427.5,"velocity":0.3937007874015748},{"duration":0.1875,"midi":37,"time":427.5,"velocity":0.3937007874015748},{"duration":0.1875,"midi":38,"time":427.5,"velocity":0.3937007874015748},{"duration":0.1875,"midi":60,"time":428.25,"velocity":0.3937007874015748},{"duration":0.1875,"midi":52,"time":428.25,"velocity":0.3937007874015748},{"duration":0.1875,"midi":69,"time":428.25,"velocity":0.3937007874015748},{"duration":0.1875,"midi":65,"time":428.25,"velocity":0.3937007874015748},{"duration":0.1875,"midi":62,"time":428.25,"velocity":0.3937007874015748},{"duration":0.1875,"midi":57,"time":428.25,"velocity":0.3937007874015748},{"duration":0.1875,"midi":74,"time":428.25,"velocity":0.3937007874015748},{"duration":0.1875,"midi":77,"time":428.25,"velocity":0.3937007874015748},{"duration":0.1875,"midi":48,"time":428.25,"velocity":0.3937007874015748},{"duration":0.1875,"midi":69,"time":428.25,"velocity":0.3937007874015748},{"duration":0.1875,"midi":64,"time":428.25,"velocity":0.3937007874015748},{"duration":0.1875,"midi":81,"time":428.25,"velocity":0.3937007874015748},{"duration":0.1875,"midi":64,"time":428.625,"velocity":0.3937007874015748},{"duration":0.1875,"midi":72,"time":428.625,"velocity":0.3937007874015748},{"duration":0.1875,"midi":81,"time":428.625,"velocity":0.3937007874015748},{"duration":0.1875,"midi":84,"time":428.625,"velocity":0.3937007874015748},{"duration":0.1875,"midi":76,"time":428.625,"velocity":0.3937007874015748},{"duration":0.1875,"midi":69,"time":428.625,"velocity":0.3937007874015748},{"duration":0.1875,"midi":76,"time":429,"velocity":0.3937007874015748},{"duration":0.75,"midi":45,"time":429,"velocity":0.3937007874015748},{"duration":0.1875,"midi":81,"time":429,"velocity":0.3937007874015748},{"duration":0.1875,"midi":69,"time":429,"velocity":0.3937007874015748},{"duration":0.1875,"midi":84,"time":429,"velocity":0.3937007874015748},{"duration":0.1875,"midi":72,"time":429,"velocity":0.3937007874015748},{"duration":0.1875,"midi":28,"time":429,"velocity":0.3937007874015748},{"duration":0.1875,"midi":25,"time":429,"velocity":0.3937007874015748},{"duration":0.1875,"midi":26,"time":429,"velocity":0.3937007874015748},{"duration":0.1875,"midi":31,"time":429,"velocity":0.3937007874015748},{"duration":0.1875,"midi":27,"time":429,"velocity":0.3937007874015748},{"duration":0.75,"midi":33,"time":429,"velocity":0.3937007874015748},{"duration":0.1875,"midi":88,"time":429,"velocity":0.3937007874015748},{"duration":0.1875,"midi":32,"time":429,"velocity":0.3937007874015748},{"duration":0.1875,"midi":30,"time":429,"velocity":0.3937007874015748},{"duration":0.1875,"midi":29,"time":429,"velocity":0.3937007874015748},{"duration":0.1875,"midi":24,"time":429,"velocity":0.3937007874015748},{"duration":0.1875,"midi":88,"time":429.75,"velocity":0.3937007874015748},{"duration":0.1875,"midi":69,"time":429.75,"velocity":0.3937007874015748},{"duration":0.1875,"midi":48,"time":429.75,"velocity":0.3937007874015748},{"duration":0.1875,"midi":76,"time":429.75,"velocity":0.3937007874015748},{"duration":0.1875,"midi":81,"time":429.75,"velocity":0.3937007874015748},{"duration":0.1875,"midi":72,"time":429.75,"velocity":0.3937007874015748},{"duration":0.1875,"midi":60,"time":429.75,"velocity":0.3937007874015748},{"duration":0.1875,"midi":84,"time":429.75,"velocity":0.3937007874015748},{"duration":0.1875,"midi":64,"time":429.75,"velocity":0.3937007874015748},{"duration":0.1875,"midi":52,"time":429.75,"velocity":0.3937007874015748},{"duration":0.1875,"midi":93,"time":429.75,"velocity":0.3937007874015748},{"duration":0.1875,"midi":57,"time":429.75,"velocity":0.3937007874015748},{"duration":0.1875,"midi":39,"time":430.5,"velocity":0.3937007874015748},{"duration":1.40625,"midi":76,"time":430.5,"velocity":0.3937007874015748},{"duration":0.1875,"midi":38,"time":430.5,"velocity":0.3937007874015748},{"duration":0.1875,"midi":36,"time":430.5,"velocity":0.3937007874015748},{"duration":0.75,"midi":28,"time":430.5,"velocity":0.3937007874015748},{"duration":0.1875,"midi":40,"time":430.5,"velocity":0.3937007874015748},{"duration":1.40625,"midi":93,"time":430.5,"velocity":0.3937007874015748},{"duration":0.1875,"midi":33,"time":430.5,"velocity":0.3937007874015748},{"duration":0.1875,"midi":37,"time":430.5,"velocity":0.3937007874015748},{"duration":1.40625,"midi":88,"time":430.5,"velocity":0.3937007874015748},{"duration":0.1875,"midi":35,"time":430.5,"velocity":0.3937007874015748},{"duration":0.75,"midi":40,"time":430.5,"velocity":0.3937007874015748},{"duration":0.1875,"midi":34,"time":430.5,"velocity":0.3937007874015748},{"duration":0.1875,"midi":41,"time":430.5,"velocity":0.3937007874015748},{"duration":1.40625,"midi":84,"time":430.5,"velocity":0.3937007874015748},{"duration":1.40625,"midi":81,"time":430.5,"velocity":0.3937007874015748},{"duration":0.1875,"midi":52,"time":431.25,"velocity":0.3937007874015748},{"duration":0.1875,"midi":48,"time":431.25,"velocity":0.3937007874015748},{"duration":0.1875,"midi":69,"time":431.25,"velocity":0.3937007874015748},{"duration":0.1875,"midi":60,"time":431.25,"velocity":0.3937007874015748},{"duration":0.1875,"midi":57,"time":431.25,"velocity":0.3937007874015748},{"duration":0.1875,"midi":64,"time":431.25,"velocity":0.3937007874015748},{"duration":0.1875,"midi":30,"time":432,"velocity":0.3937007874015748},{"duration":0.1875,"midi":25,"time":432,"velocity":0.3937007874015748},{"duration":0.75,"midi":50,"time":432,"velocity":0.3937007874015748},{"duration":0.1875,"midi":32,"time":432,"velocity":0.3937007874015748},{"duration":0.1875,"midi":27,"time":432,"velocity":0.3937007874015748},{"duration":0.1875,"midi":24,"time":432,"velocity":0.3937007874015748},{"duration":0.1875,"midi":83,"time":432,"velocity":0.3937007874015748},{"duration":0.1875,"midi":31,"time":432,"velocity":0.3937007874015748},{"duration":0.1875,"midi":29,"time":432,"velocity":0.3937007874015748},{"duration":0.1875,"midi":86,"time":432,"velocity":0.3937007874015748},{"duration":0.1875,"midi":26,"time":432,"velocity":0.3937007874015748},{"duration":0.1875,"midi":28,"time":432,"velocity":0.3937007874015748},{"duration":0.1875,"midi":95,"time":432,"velocity":0.3937007874015748},{"duration":0.75,"midi":38,"time":432,"velocity":0.3937007874015748},{"duration":0.1875,"midi":77,"time":432,"velocity":0.3937007874015748},{"duration":0.1875,"midi":89,"time":432,"velocity":0.3937007874015748},{"duration":0.1875,"midi":84,"time":432.375,"velocity":0.3937007874015748},{"duration":0.1875,"midi":76,"time":432.375,"velocity":0.3937007874015748},{"duration":0.1875,"midi":81,"time":432.375,"velocity":0.3937007874015748},{"duration":0.1875,"midi":93,"time":432.375,"velocity":0.3937007874015748},{"duration":0.1875,"midi":88,"time":432.375,"velocity":0.3937007874015748},{"duration":0.1875,"midi":80,"time":432.75,"velocity":0.3937007874015748},{"duration":0.1875,"midi":47,"time":432.75,"velocity":0.3937007874015748},{"duration":0.1875,"midi":53,"time":432.75,"velocity":0.3937007874015748},{"duration":0.1875,"midi":57,"time":432.75,"velocity":0.3937007874015748},{"duration":0.1875,"midi":74,"time":432.75,"velocity":0.3937007874015748},{"duration":0.1875,"midi":50,"time":432.75,"velocity":0.3937007874015748},{"duration":0.1875,"midi":65,"time":432.75,"velocity":0.3937007874015748},{"duration":0.1875,"midi":92,"time":432.75,"velocity":0.3937007874015748},{"duration":0.1875,"midi":62,"time":432.75,"velocity":0.3937007874015748},{"duration":0.1875,"midi":95,"time":432.75,"velocity":0.3937007874015748},{"duration":0.1875,"midi":69,"time":432.75,"velocity":0.3937007874015748},{"duration":0.1875,"midi":86,"time":432.75,"velocity":0.3937007874015748},{"duration":0.1875,"midi":83,"time":432.75,"velocity":0.3937007874015748},{"duration":0.1875,"midi":95,"time":433.125,"velocity":0.3937007874015748},{"duration":0.1875,"midi":83,"time":433.125,"velocity":0.3937007874015748},{"duration":0.1875,"midi":86,"time":433.125,"velocity":0.3937007874015748},{"duration":0.1875,"midi":89,"time":433.125,"velocity":0.3937007874015748},{"duration":0.1875,"midi":77,"time":433.125,"velocity":0.3937007874015748},{"duration":0.1875,"midi":84,"time":433.5,"velocity":0.3937007874015748},{"duration":0.75,"midi":48,"time":433.5,"velocity":0.3937007874015748},{"duration":0.1875,"midi":41,"time":433.5,"velocity":0.3937007874015748},{"duration":0.1875,"midi":76,"time":433.5,"velocity":0.3937007874015748},{"duration":0.1875,"midi":33,"time":433.5,"velocity":0.3937007874015748},{"duration":0.1875,"midi":93,"time":433.5,"velocity":0.3937007874015748},{"duration":0.1875,"midi":36,"time":433.5,"velocity":0.3937007874015748},{"duration":0.1875,"midi":81,"time":433.5,"velocity":0.3937007874015748},{"duration":0.1875,"midi":34,"time":433.5,"velocity":0.3937007874015748},{"duration":0.75,"midi":36,"time":433.5,"velocity":0.3937007874015748},{"duration":0.1875,"midi":88,"time":433.5,"velocity":0.3937007874015748},{"duration":0.1875,"midi":37,"time":433.5,"velocity":0.3937007874015748},{"duration":0.1875,"midi":39,"time":433.5,"velocity":0.3937007874015748},{"duration":0.1875,"midi":38,"time":433.5,"velocity":0.3937007874015748},{"duration":0.1875,"midi":35,"time":433.5,"velocity":0.3937007874015748},{"duration":0.1875,"midi":40,"time":433.5,"velocity":0.3937007874015748},{"duration":0.1875,"midi":95,"time":433.875,"velocity":0.3937007874015748},{"duration":0.1875,"midi":80,"time":433.875,"velocity":0.3937007874015748},{"duration":0.1875,"midi":92,"time":433.875,"velocity":0.3937007874015748},{"duration":0.1875,"midi":83,"time":433.875,"velocity":0.3937007874015748},{"duration":0.1875,"midi":86,"time":433.875,"velocity":0.3937007874015748},{"duration":0.1875,"midi":74,"time":433.875,"velocity":0.3937007874015748},{"duration":0.1875,"midi":48,"time":434.25,"velocity":0.3937007874015748},{"duration":0.1875,"midi":52,"time":434.25,"velocity":0.3937007874015748},{"duration":0.1875,"midi":72,"time":434.25,"velocity":0.3937007874015748},{"duration":0.1875,"midi":81,"time":434.25,"velocity":0.3937007874015748},{"duration":0.1875,"midi":45,"time":434.25,"velocity":0.3937007874015748},{"duration":0.1875,"midi":88,"time":434.25,"velocity":0.3937007874015748},{"duration":0.1875,"midi":60,"time":434.25,"velocity":0.3937007874015748},{"duration":0.1875,"midi":64,"time":434.25,"velocity":0.3937007874015748},{"duration":0.1875,"midi":69,"time":434.25,"velocity":0.3937007874015748},{"duration":0.1875,"midi":84,"time":434.25,"velocity":0.3937007874015748},{"duration":0.1875,"midi":57,"time":434.25,"velocity":0.3937007874015748},{"duration":0.1875,"midi":76,"time":434.25,"velocity":0.3937007874015748},{"duration":0.1875,"midi":93,"time":434.25,"velocity":0.3937007874015748},{"duration":0.1875,"midi":84,"time":434.625,"velocity":0.3937007874015748},{"duration":0.1875,"midi":81,"time":434.625,"velocity":0.3937007874015748},{"duration":0.1875,"midi":88,"time":434.625,"velocity":0.3937007874015748},{"duration":0.1875,"midi":76,"time":434.625,"velocity":0.3937007874015748},{"duration":0.1875,"midi":93,"time":434.625,"velocity":0.3937007874015748},{"duration":0.1875,"midi":92,"time":435,"velocity":0.3937007874015748},{"duration":0.75,"midi":47,"time":435,"velocity":0.3937007874015748},{"duration":0.1875,"midi":24,"time":435,"velocity":0.3937007874015748},{"duration":0.1875,"midi":29,"time":435,"velocity":0.3937007874015748},{"duration":0.1875,"midi":74,"time":435,"velocity":0.3937007874015748},{"duration":0.1875,"midi":31,"time":435,"velocity":0.3937007874015748},{"duration":0.1875,"midi":28,"time":435,"velocity":0.3937007874015748},{"duration":0.1875,"midi":27,"time":435,"velocity":0.3937007874015748},{"duration":0.1875,"midi":80,"time":435,"velocity":0.3937007874015748},{"duration":0.1875,"midi":25,"time":435,"velocity":0.3937007874015748},{"duration":0.1875,"midi":26,"time":435,"velocity":0.3937007874015748},{"duration":0.75,"midi":35,"time":435,"velocity":0.3937007874015748},{"duration":0.1875,"midi":83,"time":435,"velocity":0.3937007874015748},{"duration":0.1875,"midi":86,"time":435,"velocity":0.3937007874015748},{"duration":0.1875,"midi":32,"time":435,"velocity":0.3937007874015748},{"duration":0.1875,"midi":95,"time":435,"velocity":0.3937007874015748},{"duration":0.1875,"midi":30,"time":435,"velocity":0.3937007874015748},{"duration":0.1875,"midi":76,"time":435.375,"velocity":0.3937007874015748},{"duration":0.1875,"midi":72,"time":435.375,"velocity":0.3937007874015748},{"duration":0.1875,"midi":88,"time":435.375,"velocity":0.3937007874015748},{"duration":0.1875,"midi":84,"time":435.375,"velocity":0.3937007874015748},{"duration":0.1875,"midi":93,"time":435.375,"velocity":0.3937007874015748},{"duration":0.1875,"midi":81,"time":435.375,"velocity":0.3937007874015748},{"duration":0.1875,"midi":59,"time":435.75,"velocity":0.3937007874015748},{"duration":0.1875,"midi":47,"time":435.75,"velocity":0.3937007874015748},{"duration":0.1875,"midi":44,"time":435.75,"velocity":0.3937007874015748},{"duration":0.1875,"midi":62,"time":435.75,"velocity":0.3937007874015748},{"duration":0.1875,"midi":56,"time":435.75,"velocity":0.3937007874015748},{"duration":0.1875,"midi":71,"time":435.75,"velocity":0.3937007874015748},{"duration":0.1875,"midi":68,"time":435.75,"velocity":0.3937007874015748},{"duration":0.1875,"midi":80,"time":435.75,"velocity":0.3937007874015748},{"duration":0.1875,"midi":92,"time":435.75,"velocity":0.3937007874015748},{"duration":0.1875,"midi":74,"time":435.75,"velocity":0.3937007874015748},{"duration":0.1875,"midi":50,"time":435.75,"velocity":0.3937007874015748},{"duration":0.1875,"midi":86,"time":435.75,"velocity":0.3937007874015748},{"duration":0.1875,"midi":83,"time":435.75,"velocity":0.3937007874015748},{"duration":0.1875,"midi":83,"time":436.125,"velocity":0.3937007874015748},{"duration":0.1875,"midi":74,"time":436.125,"velocity":0.3937007874015748},{"duration":0.1875,"midi":86,"time":436.125,"velocity":0.3937007874015748},{"duration":0.1875,"midi":80,"time":436.125,"velocity":0.3937007874015748},{"duration":0.1875,"midi":95,"time":436.125,"velocity":0.3937007874015748},{"duration":0.1875,"midi":92,"time":436.125,"velocity":0.3937007874015748},{"duration":0.1875,"midi":76,"time":436.5,"velocity":0.3937007874015748},{"duration":0.1875,"midi":72,"time":436.5,"velocity":0.3937007874015748},{"duration":0.1875,"midi":33,"time":436.5,"velocity":0.3937007874015748},{"duration":0.75,"midi":45,"time":436.5,"velocity":0.3937007874015748},{"duration":0.1875,"midi":41,"time":436.5,"velocity":0.3937007874015748},{"duration":0.75,"midi":33,"time":436.5,"velocity":0.3937007874015748},{"duration":0.1875,"midi":88,"time":436.5,"velocity":0.3937007874015748},{"duration":0.1875,"midi":35,"time":436.5,"velocity":0.3937007874015748},{"duration":0.1875,"midi":37,"time":436.5,"velocity":0.3937007874015748},{"duration":0.1875,"midi":34,"time":436.5,"velocity":0.3937007874015748},{"duration":0.1875,"midi":84,"time":436.5,"velocity":0.3937007874015748},{"duration":0.1875,"midi":36,"time":436.5,"velocity":0.3937007874015748},{"duration":0.1875,"midi":38,"time":436.5,"velocity":0.3937007874015748},{"duration":0.1875,"midi":40,"time":436.5,"velocity":0.3937007874015748},{"duration":0.1875,"midi":93,"time":436.5,"velocity":0.3937007874015748},{"duration":0.1875,"midi":39,"time":436.5,"velocity":0.3937007874015748},{"duration":0.1875,"midi":81,"time":436.5,"velocity":0.3937007874015748},{"duration":0.1875,"midi":84,"time":436.875,"velocity":0.3937007874015748},{"duration":0.1875,"midi":81,"time":436.875,"velocity":0.3937007874015748},{"duration":0.1875,"midi":88,"time":436.875,"velocity":0.3937007874015748},{"duration":0.1875,"midi":67,"time":436.875,"velocity":0.3937007874015748},{"duration":0.1875,"midi":72,"time":436.875,"velocity":0.3937007874015748},{"duration":0.1875,"midi":76,"time":436.875,"velocity":0.3937007874015748},{"duration":0.1875,"midi":63,"time":437.25,"velocity":0.3937007874015748},{"duration":0.1875,"midi":72,"time":437.25,"velocity":0.3937007874015748},{"duration":0.1875,"midi":76,"time":437.25,"velocity":0.3937007874015748},{"duration":0.1875,"midi":57,"time":437.25,"velocity":0.3937007874015748},{"duration":0.1875,"midi":52,"time":437.25,"velocity":0.3937007874015748},{"duration":0.1875,"midi":45,"time":437.25,"velocity":0.3937007874015748},{"duration":0.1875,"midi":84,"time":437.25,"velocity":0.3937007874015748},{"duration":0.1875,"midi":48,"time":437.25,"velocity":0.3937007874015748},{"duration":0.1875,"midi":64,"time":437.25,"velocity":0.3937007874015748},{"duration":0.1875,"midi":81,"time":437.25,"velocity":0.3937007874015748},{"duration":0.1875,"midi":69,"time":437.25,"velocity":0.3937007874015748},{"duration":0.1875,"midi":60,"time":437.25,"velocity":0.3937007874015748},{"duration":0.1875,"midi":81,"time":437.625,"velocity":0.3937007874015748},{"duration":0.1875,"midi":72,"time":437.625,"velocity":0.3937007874015748},{"duration":0.1875,"midi":76,"time":437.625,"velocity":0.3937007874015748},{"duration":0.1875,"midi":69,"time":437.625,"velocity":0.3937007874015748},{"duration":0.1875,"midi":64,"time":437.625,"velocity":0.3937007874015748},{"duration":0.1875,"midi":60,"time":437.625,"velocity":0.3937007874015748},{"duration":0.1875,"midi":36,"time":438,"velocity":0.3937007874015748},{"duration":0.1875,"midi":77,"time":438,"velocity":0.3937007874015748},{"duration":0.1875,"midi":28,"time":438,"velocity":0.3937007874015748},{"duration":0.1875,"midi":74,"time":438,"velocity":0.3937007874015748},{"duration":0.1875,"midi":32,"time":438,"velocity":0.3937007874015748},{"duration":0.1875,"midi":35,"time":438,"velocity":0.3937007874015748},{"duration":0.1875,"midi":27,"time":438,"velocity":0.3937007874015748},{"duration":0.1875,"midi":38,"time":438,"velocity":0.3937007874015748},{"duration":0.1875,"midi":56,"time":438,"velocity":0.3937007874015748},{"duration":0.1875,"midi":37,"time":438,"velocity":0.3937007874015748},{"duration":0.1875,"midi":86,"time":438,"velocity":0.3937007874015748},{"duration":0.1875,"midi":26,"time":438,"velocity":0.3937007874015748},{"duration":0.1875,"midi":89,"time":438,"velocity":0.3937007874015748},{"duration":0.1875,"midi":25,"time":438,"velocity":0.3937007874015748},{"duration":0.1875,"midi":40,"time":438,"velocity":0.3937007874015748},{"duration":0.75,"midi":28,"time":438,"velocity":0.3937007874015748},{"duration":0.1875,"midi":39,"time":438,"velocity":0.3937007874015748},{"duration":0.1875,"midi":34,"time":438,"velocity":0.3937007874015748},{"duration":0.1875,"midi":31,"time":438,"velocity":0.3937007874015748},{"duration":0.75,"midi":40,"time":438,"velocity":0.3937007874015748},{"duration":0.1875,"midi":69,"time":438,"velocity":0.3937007874015748},{"duration":0.1875,"midi":33,"time":438,"velocity":0.3937007874015748},{"duration":0.1875,"midi":50,"time":438,"velocity":0.3937007874015748},{"duration":0.1875,"midi":59,"time":438,"velocity":0.3937007874015748},{"duration":0.1875,"midi":47,"time":438,"velocity":0.3937007874015748},{"duration":0.1875,"midi":44,"time":438,"velocity":0.3937007874015748},{"duration":0.1875,"midi":29,"time":438,"velocity":0.3937007874015748},{"duration":0.1875,"midi":24,"time":438,"velocity":0.3937007874015748},{"duration":0.1875,"midi":62,"time":438,"velocity":0.3937007874015748},{"duration":0.1875,"midi":68,"time":438,"velocity":0.3937007874015748},{"duration":0.1875,"midi":81,"time":438,"velocity":0.3937007874015748},{"duration":0.1875,"midi":30,"time":438,"velocity":0.3937007874015748},{"duration":0.1875,"midi":84,"time":438.375,"velocity":0.3937007874015748},{"duration":0.1875,"midi":76,"time":438.375,"velocity":0.3937007874015748},{"duration":0.1875,"midi":88,"time":438.375,"velocity":0.3937007874015748},{"duration":0.1875,"midi":72,"time":438.375,"velocity":0.3937007874015748},{"duration":0.1875,"midi":81,"time":438.375,"velocity":0.3937007874015748},{"duration":0.1875,"midi":69,"time":438.375,"velocity":0.3937007874015748},{"duration":0.1875,"midi":65,"time":438.75,"velocity":0.3937007874015748},{"duration":0.1875,"midi":77,"time":438.75,"velocity":0.3937007874015748},{"duration":0.1875,"midi":69,"time":438.75,"velocity":0.3937007874015748},{"duration":0.1875,"midi":81,"time":438.75,"velocity":0.3937007874015748},{"duration":0.1875,"midi":86,"time":438.75,"velocity":0.3937007874015748},{"duration":0.1875,"midi":74,"time":438.75,"velocity":0.3937007874015748},{"duration":0.1875,"midi":72,"time":439.125,"velocity":0.3937007874015748},{"duration":0.1875,"midi":64,"time":439.125,"velocity":0.3937007874015748},{"duration":0.1875,"midi":69,"time":439.125,"velocity":0.3937007874015748},{"duration":0.1875,"midi":84,"time":439.125,"velocity":0.3937007874015748},{"duration":0.1875,"midi":76,"time":439.125,"velocity":0.3937007874015748},{"duration":0.1875,"midi":81,"time":439.125,"velocity":0.3937007874015748},{"duration":0.1875,"midi":64,"time":439.5,"velocity":0.3937007874015748},{"duration":0.1875,"midi":76,"time":439.5,"velocity":0.3937007874015748},{"duration":0.1875,"midi":80,"time":439.5,"velocity":0.3937007874015748},{"duration":0.1875,"midi":83,"time":439.5,"velocity":0.3937007874015748},{"duration":0.1875,"midi":68,"time":439.5,"velocity":0.3937007874015748},{"duration":0.1875,"midi":71,"time":439.5,"velocity":0.3937007874015748},{"duration":0.1875,"midi":60,"time":439.875,"velocity":0.3937007874015748},{"duration":0.1875,"midi":81,"time":439.875,"velocity":0.3937007874015748},{"duration":0.1875,"midi":69,"time":439.875,"velocity":0.3937007874015748},{"duration":0.1875,"midi":64,"time":439.875,"velocity":0.3937007874015748},{"duration":0.1875,"midi":76,"time":439.875,"velocity":0.3937007874015748},{"duration":0.1875,"midi":72,"time":439.875,"velocity":0.3937007874015748},{"duration":0.1875,"midi":59,"time":440.25,"velocity":0.3937007874015748},{"duration":0.1875,"midi":68,"time":440.25,"velocity":0.3937007874015748},{"duration":0.1875,"midi":47,"time":440.25,"velocity":0.3937007874015748},{"duration":0.75,"midi":40,"time":440.25,"velocity":0.3937007874015748},{"duration":0.75,"midi":28,"time":440.25,"velocity":0.3937007874015748},{"duration":0.1875,"midi":59,"time":440.25,"velocity":0.3937007874015748},{"duration":0.1875,"midi":63,"time":440.25,"velocity":0.3937007874015748},{"duration":0.1875,"midi":71,"time":440.25,"velocity":0.3937007874015748},{"duration":0.1875,"midi":80,"time":440.25,"velocity":0.3937007874015748},{"duration":0.1875,"midi":44,"time":440.25,"velocity":0.3937007874015748},{"duration":0.1875,"midi":75,"time":440.25,"velocity":0.3937007874015748},{"duration":0.1875,"midi":64,"time":440.25,"velocity":0.3937007874015748},{"duration":0.1875,"midi":68,"time":440.25,"velocity":0.3937007874015748},{"duration":0.1875,"midi":76,"time":440.25,"velocity":0.3937007874015748},{"duration":0.1875,"midi":56,"time":440.25,"velocity":0.3937007874015748},{"duration":0.1875,"midi":64,"time":440.625,"velocity":0.3937007874015748},{"duration":0.1875,"midi":80,"time":440.625,"velocity":0.3937007874015748},{"duration":0.1875,"midi":83,"time":440.625,"velocity":0.3937007874015748},{"duration":0.1875,"midi":68,"time":440.625,"velocity":0.3937007874015748},{"duration":0.1875,"midi":76,"time":440.625,"velocity":0.3937007874015748},{"duration":0.1875,"midi":71,"time":440.625,"velocity":0.3937007874015748},{"duration":0.1875,"midi":64,"time":441,"velocity":0.3937007874015748},{"duration":0.75,"midi":33,"time":441,"velocity":0.3937007874015748},{"duration":0.1875,"midi":72,"time":441,"velocity":0.3937007874015748},{"duration":0.1875,"midi":48,"time":441,"velocity":0.3937007874015748},{"duration":0.1875,"midi":60,"time":441,"velocity":0.3937007874015748},{"duration":0.1875,"midi":81,"time":441,"velocity":0.3937007874015748},{"duration":0.1875,"midi":69,"time":441,"velocity":0.3937007874015748},{"duration":0.1875,"midi":76,"time":441,"velocity":0.3937007874015748},{"duration":0.1875,"midi":69,"time":441,"velocity":0.3937007874015748},{"duration":0.1875,"midi":57,"time":441,"velocity":0.3937007874015748},{"duration":0.1875,"midi":81,"time":441,"velocity":0.3937007874015748},{"duration":0.75,"midi":45,"time":441,"velocity":0.3937007874015748},{"duration":0.1875,"midi":77,"time":444,"velocity":0.3937007874015748},{"duration":0.1875,"midi":25,"time":444,"velocity":0.3937007874015748},{"duration":0.1875,"midi":58,"time":444,"velocity":0.3937007874015748},{"duration":0.75,"midi":34,"time":444,"velocity":0.3937007874015748},{"duration":0.1875,"midi":24,"time":444,"velocity":0.3937007874015748},{"duration":0.1875,"midi":30,"time":444,"velocity":0.3937007874015748},{"duration":0.1875,"midi":61,"time":444,"velocity":0.3937007874015748},{"duration":0.1875,"midi":27,"time":444,"velocity":0.3937007874015748},{"duration":0.1875,"midi":32,"time":444,"velocity":0.3937007874015748},{"duration":0.75,"midi":46,"time":444,"velocity":0.3937007874015748},{"duration":0.1875,"midi":29,"time":444,"velocity":0.3937007874015748},{"duration":0.1875,"midi":31,"time":444,"velocity":0.3937007874015748},{"duration":0.1875,"midi":70,"time":444,"velocity":0.3937007874015748},{"duration":0.1875,"midi":26,"time":444,"velocity":0.3937007874015748},{"duration":0.1875,"midi":28,"time":444,"velocity":0.3937007874015748},{"duration":0.1875,"midi":65,"time":444,"velocity":0.3937007874015748},{"duration":0.1875,"midi":73,"time":444,"velocity":0.3937007874015748},{"duration":0.1875,"midi":61,"time":444.375,"velocity":0.3937007874015748},{"duration":0.1875,"midi":70,"time":444.375,"velocity":0.3937007874015748},{"duration":0.1875,"midi":77,"time":444.375,"velocity":0.3937007874015748},{"duration":0.1875,"midi":65,"time":444.375,"velocity":0.3937007874015748},{"duration":0.1875,"midi":73,"time":444.375,"velocity":0.3937007874015748},{"duration":0.1875,"midi":58,"time":444.375,"velocity":0.3937007874015748},{"duration":0.1875,"midi":61,"time":444.75,"velocity":0.3937007874015748},{"duration":0.1875,"midi":65,"time":444.75,"velocity":0.3937007874015748},{"duration":0.1875,"midi":70,"time":444.75,"velocity":0.3937007874015748},{"duration":0.1875,"midi":53,"time":444.75,"velocity":0.3937007874015748},{"duration":0.1875,"midi":49,"time":444.75,"velocity":0.3937007874015748},{"duration":0.1875,"midi":73,"time":444.75,"velocity":0.3937007874015748},{"duration":0.1875,"midi":65,"time":444.75,"velocity":0.3937007874015748},{"duration":0.1875,"midi":61,"time":444.75,"velocity":0.3937007874015748},{"duration":0.1875,"midi":58,"time":444.75,"velocity":0.3937007874015748},{"duration":0.1875,"midi":58,"time":444.75,"velocity":0.3937007874015748},{"duration":0.1875,"midi":77,"time":444.75,"velocity":0.3937007874015748},{"duration":0.1875,"midi":70,"time":444.75,"velocity":0.3937007874015748},{"duration":0.1875,"midi":70,"time":445.125,"velocity":0.3937007874015748},{"duration":0.1875,"midi":65,"time":445.125,"velocity":0.3937007874015748},{"duration":0.1875,"midi":58,"time":445.125,"velocity":0.3937007874015748},{"duration":0.1875,"midi":77,"time":445.125,"velocity":0.3937007874015748},{"duration":0.1875,"midi":73,"time":445.125,"velocity":0.3937007874015748},{"duration":0.1875,"midi":61,"time":445.125,"velocity":0.3937007874015748},{"duration":0.1875,"midi":38,"time":445.5,"velocity":0.3937007874015748},{"duration":0.1875,"midi":61,"time":445.5,"velocity":0.3937007874015748},{"duration":0.1875,"midi":36,"time":445.5,"velocity":0.3937007874015748},{"duration":0.75,"midi":29,"time":445.5,"velocity":0.3937007874015748},{"duration":0.1875,"midi":41,"time":445.5,"velocity":0.3937007874015748},{"duration":0.1875,"midi":37,"time":445.5,"velocity":0.3937007874015748},{"duration":0.1875,"midi":58,"time":445.5,"velocity":0.3937007874015748},{"duration":0.1875,"midi":35,"time":445.5,"velocity":0.3937007874015748},{"duration":0.75,"midi":41,"time":445.5,"velocity":0.3937007874015748},{"duration":0.1875,"midi":40,"time":445.5,"velocity":0.3937007874015748},{"duration":0.1875,"midi":77,"time":445.5,"velocity":0.3937007874015748},{"duration":0.1875,"midi":34,"time":445.5,"velocity":0.3937007874015748},{"duration":0.1875,"midi":70,"time":445.5,"velocity":0.3937007874015748},{"duration":0.1875,"midi":33,"time":445.5,"velocity":0.3937007874015748},{"duration":0.1875,"midi":39,"time":445.5,"velocity":0.3937007874015748},{"duration":0.1875,"midi":73,"time":445.5,"velocity":0.3937007874015748},{"duration":0.1875,"midi":65,"time":445.5,"velocity":0.3937007874015748},{"duration":0.1875,"midi":61,"time":445.875,"velocity":0.3937007874015748},{"duration":0.1875,"midi":77,"time":445.875,"velocity":0.3937007874015748},{"duration":0.1875,"midi":65,"time":445.875,"velocity":0.3937007874015748},{"duration":0.1875,"midi":70,"time":445.875,"velocity":0.3937007874015748},{"duration":0.1875,"midi":58,"time":445.875,"velocity":0.3937007874015748},{"duration":0.1875,"midi":73,"time":445.875,"velocity":0.3937007874015748},{"duration":0.1875,"midi":49,"time":446.25,"velocity":0.3937007874015748},{"duration":0.1875,"midi":53,"time":446.25,"velocity":0.3937007874015748},{"duration":0.1875,"midi":61,"time":446.25,"velocity":0.3937007874015748},{"duration":0.1875,"midi":70,"time":446.25,"velocity":0.3937007874015748},{"duration":0.1875,"midi":77,"time":446.25,"velocity":0.3937007874015748},{"duration":0.1875,"midi":65,"time":446.25,"velocity":0.3937007874015748},{"duration":0.1875,"midi":70,"time":446.25,"velocity":0.3937007874015748},{"duration":0.1875,"midi":58,"time":446.25,"velocity":0.3937007874015748},{"duration":0.1875,"midi":65,"time":446.25,"velocity":0.3937007874015748},{"duration":0.1875,"midi":58,"time":446.25,"velocity":0.3937007874015748},{"duration":0.1875,"midi":61,"time":446.25,"velocity":0.3937007874015748},{"duration":0.1875,"midi":73,"time":446.25,"velocity":0.3937007874015748},{"duration":0.1875,"midi":73,"time":446.625,"velocity":0.3937007874015748},{"duration":0.1875,"midi":77,"time":446.625,"velocity":0.3937007874015748},{"duration":0.1875,"midi":65,"time":446.625,"velocity":0.3937007874015748},{"duration":0.1875,"midi":61,"time":446.625,"velocity":0.3937007874015748},{"duration":0.1875,"midi":70,"time":446.625,"velocity":0.3937007874015748},{"duration":0.1875,"midi":58,"time":446.625,"velocity":0.3937007874015748},{"duration":0.1875,"midi":32,"time":447,"velocity":0.3937007874015748},{"duration":0.75,"midi":46,"time":447,"velocity":0.3937007874015748},{"duration":0.1875,"midi":77,"time":447,"velocity":0.3937007874015748},{"duration":0.1875,"midi":25,"time":447,"velocity":0.3937007874015748},{"duration":0.1875,"midi":65,"time":447,"velocity":0.3937007874015748},{"duration":0.1875,"midi":28,"time":447,"velocity":0.3937007874015748},{"duration":0.1875,"midi":70,"time":447,"velocity":0.3937007874015748},{"duration":0.1875,"midi":24,"time":447,"velocity":0.3937007874015748},{"duration":0.1875,"midi":58,"time":447,"velocity":0.3937007874015748},{"duration":0.1875,"midi":26,"time":447,"velocity":0.3937007874015748},{"duration":0.1875,"midi":27,"time":447,"velocity":0.3937007874015748},{"duration":0.1875,"midi":73,"time":447,"velocity":0.3937007874015748},{"duration":0.1875,"midi":31,"time":447,"velocity":0.3937007874015748},{"duration":0.1875,"midi":30,"time":447,"velocity":0.3937007874015748},{"duration":0.1875,"midi":29,"time":447,"velocity":0.3937007874015748},{"duration":0.75,"midi":34,"time":447,"velocity":0.3937007874015748},{"duration":0.1875,"midi":61,"time":447,"velocity":0.3937007874015748},{"duration":0.1875,"midi":61,"time":447.375,"velocity":0.3937007874015748},{"duration":0.1875,"midi":73,"time":447.375,"velocity":0.3937007874015748},{"duration":0.1875,"midi":70,"time":447.375,"velocity":0.3937007874015748},{"duration":0.1875,"midi":58,"time":447.375,"velocity":0.3937007874015748},{"duration":0.1875,"midi":65,"time":447.375,"velocity":0.3937007874015748},{"duration":0.1875,"midi":77,"time":447.375,"velocity":0.3937007874015748},{"duration":0.1875,"midi":53,"time":447.75,"velocity":0.3937007874015748},{"duration":0.1875,"midi":77,"time":447.75,"velocity":0.3937007874015748},{"duration":0.1875,"midi":70,"time":447.75,"velocity":0.3937007874015748},{"duration":0.1875,"midi":49,"time":447.75,"velocity":0.3937007874015748},{"duration":0.1875,"midi":65,"time":447.75,"velocity":0.3937007874015748},{"duration":0.1875,"midi":73,"time":447.75,"velocity":0.3937007874015748},{"duration":0.1875,"midi":58,"time":447.75,"velocity":0.3937007874015748},{"duration":0.1875,"midi":58,"time":447.75,"velocity":0.3937007874015748},{"duration":0.1875,"midi":70,"time":447.75,"velocity":0.3937007874015748},{"duration":0.1875,"midi":61,"time":447.75,"velocity":0.3937007874015748},{"duration":0.1875,"midi":65,"time":447.75,"velocity":0.3937007874015748},{"duration":0.1875,"midi":61,"time":447.75,"velocity":0.3937007874015748},{"duration":0.1875,"midi":77,"time":448.125,"velocity":0.3937007874015748},{"duration":0.1875,"midi":73,"time":448.125,"velocity":0.3937007874015748},{"duration":0.1875,"midi":61,"time":448.125,"velocity":0.3937007874015748},{"duration":0.1875,"midi":70,"time":448.125,"velocity":0.3937007874015748},{"duration":0.1875,"midi":65,"time":448.125,"velocity":0.3937007874015748},{"duration":0.1875,"midi":58,"time":448.125,"velocity":0.3937007874015748},{"duration":0.1875,"midi":40,"time":448.5,"velocity":0.3937007874015748},{"duration":0.1875,"midi":73,"time":448.5,"velocity":0.3937007874015748},{"duration":0.1875,"midi":65,"time":448.5,"velocity":0.3937007874015748},{"duration":0.09375,"midi":89,"time":448.5,"velocity":0.3937007874015748},{"duration":0.1875,"midi":33,"time":448.5,"velocity":0.3937007874015748},{"duration":0.1875,"midi":37,"time":448.5,"velocity":0.3937007874015748},{"duration":0.1875,"midi":34,"time":448.5,"velocity":0.3937007874015748},{"duration":0.1875,"midi":41,"time":448.5,"velocity":0.3937007874015748},{"duration":0.1875,"midi":39,"time":448.5,"velocity":0.3937007874015748},{"duration":0.1875,"midi":36,"time":448.5,"velocity":0.3937007874015748},{"duration":0.1875,"midi":77,"time":448.5,"velocity":0.3937007874015748},{"duration":0.1875,"midi":70,"time":448.5,"velocity":0.3937007874015748},{"duration":0.75,"midi":29,"time":448.5,"velocity":0.3937007874015748},{"duration":0.75,"midi":41,"time":448.5,"velocity":0.3937007874015748},{"duration":0.1875,"midi":58,"time":448.5,"velocity":0.3937007874015748},{"duration":0.1875,"midi":61,"time":448.5,"velocity":0.3937007874015748},{"duration":0.1875,"midi":38,"time":448.5,"velocity":0.3937007874015748},{"duration":0.1875,"midi":35,"time":448.5,"velocity":0.3937007874015748},{"duration":0.09375,"midi":89,"time":448.6875,"velocity":0.3937007874015748},{"duration":0.09375,"midi":89,"time":448.875,"velocity":0.3937007874015748},{"duration":0.1875,"midi":65,"time":448.875,"velocity":0.3937007874015748},{"duration":0.1875,"midi":77,"time":448.875,"velocity":0.3937007874015748},{"duration":0.1875,"midi":73,"time":448.875,"velocity":0.3937007874015748},{"duration":0.1875,"midi":58,"time":448.875,"velocity":0.3937007874015748},{"duration":0.1875,"midi":70,"time":448.875,"velocity":0.3937007874015748},{"duration":0.1875,"midi":61,"time":448.875,"velocity":0.3937007874015748},{"duration":0.09375,"midi":89,"time":449.0625,"velocity":0.3937007874015748},{"duration":0.1875,"midi":65,"time":449.25,"velocity":0.3937007874015748},{"duration":0.1875,"midi":70,"time":449.25,"velocity":0.3937007874015748},{"duration":0.1875,"midi":70,"time":449.25,"velocity":0.3937007874015748},{"duration":0.09375,"midi":89,"time":449.25,"velocity":0.3937007874015748},{"duration":0.1875,"midi":58,"time":449.25,"velocity":0.3937007874015748},{"duration":0.1875,"midi":61,"time":449.25,"velocity":0.3937007874015748},{"duration":0.1875,"midi":53,"time":449.25,"velocity":0.3937007874015748},{"duration":0.1875,"midi":65,"time":449.25,"velocity":0.3937007874015748},{"duration":0.1875,"midi":61,"time":449.25,"velocity":0.3937007874015748},{"duration":0.1875,"midi":58,"time":449.25,"velocity":0.3937007874015748},{"duration":0.1875,"midi":77,"time":449.25,"velocity":0.3937007874015748},{"duration":0.1875,"midi":49,"time":449.25,"velocity":0.3937007874015748},{"duration":0.1875,"midi":73,"time":449.25,"velocity":0.3937007874015748},{"duration":0.09375,"midi":89,"time":449.4375,"velocity":0.3937007874015748},{"duration":0.1875,"midi":58,"time":449.625,"velocity":0.3937007874015748},{"duration":0.1875,"midi":70,"time":449.625,"velocity":0.3937007874015748},{"duration":0.1875,"midi":61,"time":449.625,"velocity":0.3937007874015748},{"duration":0.09375,"midi":89,"time":449.625,"velocity":0.3937007874015748},{"duration":0.1875,"midi":65,"time":449.625,"velocity":0.3937007874015748},{"duration":0.1875,"midi":73,"time":449.625,"velocity":0.3937007874015748},{"duration":0.1875,"midi":77,"time":449.625,"velocity":0.3937007874015748},{"duration":0.09375,"midi":89,"time":449.8125,"velocity":0.3937007874015748},{"duration":0.09375,"midi":89,"time":450,"velocity":0.3937007874015748},{"duration":0.1875,"midi":28,"time":450,"velocity":0.3937007874015748},{"duration":0.1875,"midi":27,"time":450,"velocity":0.3937007874015748},{"duration":0.1875,"midi":24,"time":450,"velocity":0.3937007874015748},{"duration":0.1875,"midi":73,"time":450,"velocity":0.3937007874015748},{"duration":0.1875,"midi":61,"time":450,"velocity":0.3937007874015748},{"duration":0.75,"midi":46,"time":450,"velocity":0.3937007874015748},{"duration":0.1875,"midi":29,"time":450,"velocity":0.3937007874015748},{"duration":0.1875,"midi":26,"time":450,"velocity":0.3937007874015748},{"duration":0.1875,"midi":32,"time":450,"velocity":0.3937007874015748},{"duration":0.1875,"midi":65,"time":450,"velocity":0.3937007874015748},{"duration":0.75,"midi":34,"time":450,"velocity":0.3937007874015748},{"duration":0.1875,"midi":25,"time":450,"velocity":0.3937007874015748},{"duration":0.1875,"midi":77,"time":450,"velocity":0.3937007874015748},{"duration":0.1875,"midi":70,"time":450,"velocity":0.3937007874015748},{"duration":0.1875,"midi":58,"time":450,"velocity":0.3937007874015748},{"duration":0.1875,"midi":31,"time":450,"velocity":0.3937007874015748},{"duration":0.1875,"midi":30,"time":450,"velocity":0.3937007874015748},{"duration":0.09375,"midi":89,"time":450.1875,"velocity":0.3937007874015748},{"duration":0.1875,"midi":61,"time":450.375,"velocity":0.3937007874015748},{"duration":0.1875,"midi":58,"time":450.375,"velocity":0.3937007874015748},{"duration":0.1875,"midi":77,"time":450.375,"velocity":0.3937007874015748},{"duration":0.09375,"midi":89,"time":450.375,"velocity":0.3937007874015748},{"duration":0.1875,"midi":73,"time":450.375,"velocity":0.3937007874015748},{"duration":0.1875,"midi":65,"time":450.375,"velocity":0.3937007874015748},{"duration":0.1875,"midi":70,"time":450.375,"velocity":0.3937007874015748},{"duration":0.09375,"midi":89,"time":450.5625,"velocity":0.3937007874015748},{"duration":0.1875,"midi":65,"time":450.75,"velocity":0.3937007874015748},{"duration":0.09375,"midi":89,"time":450.75,"velocity":0.3937007874015748},{"duration":0.1875,"midi":73,"time":450.75,"velocity":0.3937007874015748},{"duration":0.1875,"midi":49,"time":450.75,"velocity":0.3937007874015748},{"duration":0.1875,"midi":70,"time":450.75,"velocity":0.3937007874015748},{"duration":0.1875,"midi":58,"time":450.75,"velocity":0.3937007874015748},{"duration":0.1875,"midi":61,"time":450.75,"velocity":0.3937007874015748},{"duration":0.1875,"midi":65,"time":450.75,"velocity":0.3937007874015748},{"duration":0.1875,"midi":70,"time":450.75,"velocity":0.3937007874015748},{"duration":0.1875,"midi":61,"time":450.75,"velocity":0.3937007874015748},{"duration":0.1875,"midi":58,"time":450.75,"velocity":0.3937007874015748},{"duration":0.1875,"midi":77,"time":450.75,"velocity":0.3937007874015748},{"duration":0.1875,"midi":53,"time":450.75,"velocity":0.3937007874015748},{"duration":0.09375,"midi":89,"time":450.9375,"velocity":0.3937007874015748},{"duration":0.1875,"midi":73,"time":451.125,"velocity":0.3937007874015748},{"duration":0.1875,"midi":58,"time":451.125,"velocity":0.3937007874015748},{"duration":0.1875,"midi":61,"time":451.125,"velocity":0.3937007874015748},{"duration":0.1875,"midi":70,"time":451.125,"velocity":0.3937007874015748},{"duration":0.1875,"midi":65,"time":451.125,"velocity":0.3937007874015748},{"duration":0.1875,"midi":77,"time":451.125,"velocity":0.3937007874015748},{"duration":0.09375,"midi":89,"time":451.125,"velocity":0.3937007874015748},{"duration":0.09375,"midi":89,"time":451.3125,"velocity":0.3937007874015748},{"duration":0.1875,"midi":35,"time":451.5,"velocity":0.3937007874015748},{"duration":0.1875,"midi":36,"time":451.5,"velocity":0.3937007874015748},{"duration":0.1875,"midi":34,"time":451.5,"velocity":0.3937007874015748},{"duration":0.1875,"midi":37,"time":451.5,"velocity":0.3937007874015748},{"duration":0.1875,"midi":39,"time":451.5,"velocity":0.3937007874015748},{"duration":0.1875,"midi":65,"time":451.5,"velocity":0.3937007874015748},{"duration":0.1875,"midi":40,"time":451.5,"velocity":0.3937007874015748},{"duration":0.09375,"midi":89,"time":451.5,"velocity":0.3937007874015748},{"duration":0.1875,"midi":70,"time":451.5,"velocity":0.3937007874015748},{"duration":0.1875,"midi":33,"time":451.5,"velocity":0.3937007874015748},{"duration":0.1875,"midi":41,"time":451.5,"velocity":0.3937007874015748},{"duration":0.1875,"midi":77,"time":451.5,"velocity":0.3937007874015748},{"duration":0.75,"midi":41,"time":451.5,"velocity":0.3937007874015748},{"duration":0.1875,"midi":73,"time":451.5,"velocity":0.3937007874015748},{"duration":0.1875,"midi":61,"time":451.5,"velocity":0.3937007874015748},{"duration":0.75,"midi":29,"time":451.5,"velocity":0.3937007874015748},{"duration":0.1875,"midi":38,"time":451.5,"velocity":0.3937007874015748},{"duration":0.1875,"midi":58,"time":451.5,"velocity":0.3937007874015748},{"duration":0.09375,"midi":89,"time":451.6875,"velocity":0.3937007874015748},{"duration":0.1875,"midi":63,"time":451.875,"velocity":0.3937007874015748},{"duration":0.1875,"midi":78,"time":451.875,"velocity":0.3937007874015748},{"duration":0.1875,"midi":75,"time":451.875,"velocity":0.3937007874015748},{"duration":0.1875,"midi":58,"time":451.875,"velocity":0.3937007874015748},{"duration":0.1875,"midi":66,"time":451.875,"velocity":0.3937007874015748},{"duration":0.09375,"midi":89,"time":451.875,"velocity":0.3937007874015748},{"duration":0.1875,"midi":70,"time":451.875,"velocity":0.3937007874015748},{"duration":0.09375,"midi":89,"time":452.0625,"velocity":0.3937007874015748},{"duration":0.1875,"midi":49,"time":452.25,"velocity":0.3937007874015748},{"duration":0.1875,"midi":61,"time":452.25,"velocity":0.3937007874015748},{"duration":0.1875,"midi":65,"time":452.25,"velocity":0.3937007874015748},{"duration":0.1875,"midi":58,"time":452.25,"velocity":0.3937007874015748},{"duration":0.1875,"midi":58,"time":452.25,"velocity":0.3937007874015748},{"duration":0.1875,"midi":65,"time":452.25,"velocity":0.3937007874015748},{"duration":0.1875,"midi":73,"time":452.25,"velocity":0.3937007874015748},{"duration":0.1875,"midi":61,"time":452.25,"velocity":0.3937007874015748},{"duration":0.1875,"midi":70,"time":452.25,"velocity":0.3937007874015748},{"duration":0.1875,"midi":70,"time":452.25,"velocity":0.3937007874015748},{"duration":0.1875,"midi":77,"time":452.25,"velocity":0.3937007874015748},{"duration":0.1875,"midi":53,"time":452.25,"velocity":0.3937007874015748},{"duration":0.1875,"midi":60,"time":452.625,"velocity":0.3937007874015748},{"duration":0.1875,"midi":64,"time":452.625,"velocity":0.3937007874015748},{"duration":0.1875,"midi":76,"time":452.625,"velocity":0.3937007874015748},{"duration":0.1875,"midi":58,"time":452.625,"velocity":0.3937007874015748},{"duration":0.1875,"midi":70,"time":452.625,"velocity":0.3937007874015748},{"duration":0.1875,"midi":72,"time":452.625,"velocity":0.3937007874015748},{"duration":0.1875,"midi":28,"time":453,"velocity":0.3937007874015748},{"duration":0.1875,"midi":70,"time":453,"velocity":0.3937007874015748},{"duration":0.1875,"midi":27,"time":453,"velocity":0.3937007874015748},{"duration":0.1875,"midi":26,"time":453,"velocity":0.3937007874015748},{"duration":0.1875,"midi":65,"time":453,"velocity":0.3937007874015748},{"duration":0.1875,"midi":24,"time":453,"velocity":0.3937007874015748},{"duration":0.1875,"midi":30,"time":453,"velocity":0.3937007874015748},{"duration":0.1875,"midi":32,"time":453,"velocity":0.3937007874015748},{"duration":0.1875,"midi":31,"time":453,"velocity":0.3937007874015748},{"duration":0.75,"midi":34,"time":453,"velocity":0.3937007874015748},{"duration":0.75,"midi":46,"time":453,"velocity":0.3937007874015748},{"duration":0.1875,"midi":77,"time":453,"velocity":0.3937007874015748},{"duration":0.1875,"midi":58,"time":453,"velocity":0.3937007874015748},{"duration":0.1875,"midi":73,"time":453,"velocity":0.3937007874015748},{"duration":0.1875,"midi":61,"time":453,"velocity":0.3937007874015748},{"duration":0.1875,"midi":29,"time":453,"velocity":0.3937007874015748},{"duration":0.1875,"midi":25,"time":453,"velocity":0.3937007874015748},{"duration":0.1875,"midi":70,"time":453.75,"velocity":0.3937007874015748},{"duration":0.1875,"midi":65,"time":453.75,"velocity":0.3937007874015748},{"duration":0.1875,"midi":77,"time":453.75,"velocity":0.3937007874015748},{"duration":0.1875,"midi":61,"time":453.75,"velocity":0.3937007874015748},{"duration":0.1875,"midi":61,"time":453.75,"velocity":0.3937007874015748},{"duration":0.1875,"midi":82,"time":453.75,"velocity":0.3937007874015748},{"duration":0.1875,"midi":65,"time":453.75,"velocity":0.3937007874015748},{"duration":0.1875,"midi":58,"time":453.75,"velocity":0.3937007874015748},{"duration":0.1875,"midi":49,"time":453.75,"velocity":0.3937007874015748},{"duration":0.1875,"midi":73,"time":453.75,"velocity":0.3937007874015748},{"duration":0.1875,"midi":53,"time":453.75,"velocity":0.3937007874015748},{"duration":0.1875,"midi":70,"time":453.75,"velocity":0.3937007874015748},{"duration":0.1875,"midi":37,"time":454.5,"velocity":0.3937007874015748},{"duration":0.1875,"midi":35,"time":454.5,"velocity":0.3937007874015748},{"duration":0.1875,"midi":39,"time":454.5,"velocity":0.3937007874015748},{"duration":0.1875,"midi":34,"time":454.5,"velocity":0.3937007874015748},{"duration":0.9375,"midi":65,"time":454.5,"velocity":0.3937007874015748},{"duration":0.1875,"midi":40,"time":454.5,"velocity":0.3937007874015748},{"duration":0.9375,"midi":70,"time":454.5,"velocity":0.3937007874015748},{"duration":0.75,"midi":29,"time":454.5,"velocity":0.3937007874015748},{"duration":1.125,"midi":85,"time":454.5,"velocity":0.3937007874015748},{"duration":1.125,"midi":73,"time":454.5,"velocity":0.3937007874015748},{"duration":0.1875,"midi":33,"time":454.5,"velocity":0.3937007874015748},{"duration":0.1875,"midi":36,"time":454.5,"velocity":0.3937007874015748},{"duration":0.1875,"midi":41,"time":454.5,"velocity":0.3937007874015748},{"duration":0.75,"midi":41,"time":454.5,"velocity":0.3937007874015748},{"duration":0.1875,"midi":38,"time":454.5,"velocity":0.3937007874015748},{"duration":1.125,"midi":82,"time":454.5,"velocity":0.3937007874015748},{"duration":1.125,"midi":77,"time":454.5,"velocity":0.3937007874015748},{"duration":0.1875,"midi":61,"time":455.25,"velocity":0.3937007874015748},{"duration":0.375,"midi":70,"time":455.25,"velocity":0.3937007874015748},{"duration":0.375,"midi":65,"time":455.25,"velocity":0.3937007874015748},{"duration":0.1875,"midi":49,"time":455.25,"velocity":0.3937007874015748},{"duration":0.1875,"midi":53,"time":455.25,"velocity":0.3937007874015748},{"duration":0.1875,"midi":58,"time":455.25,"velocity":0.3937007874015748},{"duration":0.1875,"midi":66,"time":456,"velocity":0.3937007874015748},{"duration":0.1875,"midi":31,"time":456,"velocity":0.3937007874015748},{"duration":0.1875,"midi":33,"time":456,"velocity":0.3937007874015748},{"duration":0.1875,"midi":82,"time":456,"velocity":0.3937007874015748},{"duration":0.1875,"midi":25,"time":456,"velocity":0.3937007874015748},{"duration":0.1875,"midi":30,"time":456,"velocity":0.3937007874015748},{"duration":0.1875,"midi":78,"time":456,"velocity":0.3937007874015748},{"duration":0.1875,"midi":29,"time":456,"velocity":0.3937007874015748},{"duration":0.1875,"midi":28,"time":456,"velocity":0.3937007874015748},{"duration":0.75,"midi":33,"time":456,"velocity":0.3937007874015748},{"duration":0.1875,"midi":32,"time":456,"velocity":0.3937007874015748},{"duration":0.75,"midi":45,"time":456,"velocity":0.3937007874015748},{"duration":0.1875,"midi":70,"time":456,"velocity":0.3937007874015748},{"duration":0.1875,"midi":26,"time":456,"velocity":0.3937007874015748},{"duration":0.1875,"midi":87,"time":456,"velocity":0.3937007874015748},{"duration":0.1875,"midi":27,"time":456,"velocity":0.3937007874015748},{"duration":0.1875,"midi":75,"time":456,"velocity":0.3937007874015748},{"duration":0.1875,"midi":66,"time":456.375,"velocity":0.3937007874015748},{"duration":0.1875,"midi":87,"time":456.375,"velocity":0.3937007874015748},{"duration":0.1875,"midi":75,"time":456.375,"velocity":0.3937007874015748},{"duration":0.1875,"midi":78,"time":456.375,"velocity":0.3937007874015748},{"duration":0.1875,"midi":82,"time":456.375,"velocity":0.3937007874015748},{"duration":0.1875,"midi":70,"time":456.375,"velocity":0.3937007874015748},{"duration":0.1875,"midi":82,"time":456.75,"velocity":0.3937007874015748},{"duration":0.1875,"midi":70,"time":456.75,"velocity":0.3937007874015748},{"duration":0.1875,"midi":78,"time":456.75,"velocity":0.3937007874015748},{"duration":0.1875,"midi":75,"time":456.75,"velocity":0.3937007874015748},{"duration":0.1875,"midi":60,"time":456.75,"velocity":0.3937007874015748},{"duration":0.1875,"midi":69,"time":456.75,"velocity":0.3937007874015748},{"duration":0.1875,"midi":72,"time":456.75,"velocity":0.3937007874015748},{"duration":0.1875,"midi":53,"time":456.75,"velocity":0.3937007874015748},{"duration":0.1875,"midi":87,"time":456.75,"velocity":0.3937007874015748},{"duration":0.1875,"midi":66,"time":456.75,"velocity":0.3937007874015748},{"duration":0.1875,"midi":65,"time":456.75,"velocity":0.3937007874015748},{"duration":0.1875,"midi":57,"time":456.75,"velocity":0.3937007874015748},{"duration":0.1875,"midi":78,"time":457.125,"velocity":0.3937007874015748},{"duration":0.1875,"midi":70,"time":457.125,"velocity":0.3937007874015748},{"duration":0.1875,"midi":87,"time":457.125,"velocity":0.3937007874015748},{"duration":0.1875,"midi":75,"time":457.125,"velocity":0.3937007874015748},{"duration":0.1875,"midi":82,"time":457.125,"velocity":0.3937007874015748},{"duration":0.1875,"midi":66,"time":457.125,"velocity":0.3937007874015748},{"duration":0.1875,"midi":82,"time":457.5,"velocity":0.3937007874015748},{"duration":0.1875,"midi":78,"time":457.5,"velocity":0.3937007874015748},{"duration":0.1875,"midi":37,"time":457.5,"velocity":0.3937007874015748},{"duration":0.1875,"midi":39,"time":457.5,"velocity":0.3937007874015748},{"duration":0.1875,"midi":40,"time":457.5,"velocity":0.3937007874015748},{"duration":0.1875,"midi":41,"time":457.5,"velocity":0.3937007874015748},{"duration":0.1875,"midi":33,"time":457.5,"velocity":0.3937007874015748},{"duration":0.1875,"midi":36,"time":457.5,"velocity":0.3937007874015748},{"duration":0.1875,"midi":38,"time":457.5,"velocity":0.3937007874015748},{"duration":0.75,"midi":41,"time":457.5,"velocity":0.3937007874015748},{"duration":0.1875,"midi":75,"time":457.5,"velocity":0.3937007874015748},{"duration":0.1875,"midi":34,"time":457.5,"velocity":0.3937007874015748},{"duration":0.1875,"midi":66,"time":457.5,"velocity":0.3937007874015748},{"duration":0.1875,"midi":35,"time":457.5,"velocity":0.3937007874015748},{"duration":0.1875,"midi":87,"time":457.5,"velocity":0.3937007874015748},{"duration":0.1875,"midi":70,"time":457.5,"velocity":0.3937007874015748},{"duration":0.1875,"midi":65,"time":457.875,"velocity":0.3937007874015748},{"duration":0.1875,"midi":70,"time":457.875,"velocity":0.3937007874015748},{"duration":0.1875,"midi":82,"time":457.875,"velocity":0.3937007874015748},{"duration":0.1875,"midi":85,"time":457.875,"velocity":0.3937007874015748},{"duration":0.1875,"midi":77,"time":457.875,"velocity":0.3937007874015748},{"duration":0.1875,"midi":73,"time":457.875,"velocity":0.3937007874015748},{"duration":0.1875,"midi":81,"time":458.25,"velocity":0.3937007874015748},{"duration":0.1875,"midi":72,"time":458.25,"velocity":0.3937007874015748},{"duration":0.1875,"midi":69,"time":458.25,"velocity":0.3937007874015748},{"duration":0.1875,"midi":63,"time":458.25,"velocity":0.3937007874015748},{"duration":0.1875,"midi":84,"time":458.25,"velocity":0.3937007874015748},{"duration":0.1875,"midi":53,"time":458.25,"velocity":0.3937007874015748},{"duration":0.1875,"midi":72,"time":458.25,"velocity":0.3937007874015748},{"duration":0.1875,"midi":69,"time":458.25,"velocity":0.3937007874015748},{"duration":0.1875,"midi":65,"time":458.25,"velocity":0.3937007874015748},{"duration":0.1875,"midi":57,"time":458.25,"velocity":0.3937007874015748},{"duration":0.1875,"midi":75,"time":458.25,"velocity":0.3937007874015748},{"duration":0.1875,"midi":60,"time":458.25,"velocity":0.3937007874015748},{"duration":0.1875,"midi":75,"time":458.625,"velocity":0.3937007874015748},{"duration":0.1875,"midi":66,"time":458.625,"velocity":0.3937007874015748},{"duration":0.1875,"midi":82,"time":458.625,"velocity":0.3937007874015748},{"duration":0.1875,"midi":70,"time":458.625,"velocity":0.3937007874015748},{"duration":0.1875,"midi":78,"time":458.625,"velocity":0.3937007874015748},{"duration":0.1875,"midi":87,"time":458.625,"velocity":0.3937007874015748},{"duration":0.75,"midi":46,"time":459,"velocity":0.3937007874015748},{"duration":0.1875,"midi":27,"time":459,"velocity":0.3937007874015748},{"duration":0.1875,"midi":77,"time":459,"velocity":0.3937007874015748},{"duration":0.1875,"midi":29,"time":459,"velocity":0.3937007874015748},{"duration":0.1875,"midi":26,"time":459,"velocity":0.3937007874015748},{"duration":0.1875,"midi":32,"time":459,"velocity":0.3937007874015748},{"duration":0.1875,"midi":25,"time":459,"velocity":0.3937007874015748},{"duration":0.1875,"midi":31,"time":459,"velocity":0.3937007874015748},{"duration":0.1875,"midi":73,"time":459,"velocity":0.3937007874015748},{"duration":0.1875,"midi":24,"time":459,"velocity":0.3937007874015748},{"duration":0.1875,"midi":28,"time":459,"velocity":0.3937007874015748},{"duration":0.1875,"midi":65,"time":459,"velocity":0.3937007874015748},{"duration":0.75,"midi":34,"time":459,"velocity":0.3937007874015748},{"duration":0.1875,"midi":30,"time":459,"velocity":0.3937007874015748},{"duration":0.1875,"midi":70,"time":459,"velocity":0.3937007874015748},{"duration":0.1875,"midi":82,"time":459,"velocity":0.3937007874015748},{"duration":0.1875,"midi":85,"time":459,"velocity":0.3937007874015748},{"duration":0.1875,"midi":85,"time":459.375,"velocity":0.3937007874015748},{"duration":0.1875,"midi":70,"time":459.375,"velocity":0.3937007874015748},{"duration":0.1875,"midi":65,"time":459.375,"velocity":0.3937007874015748},{"duration":0.1875,"midi":82,"time":459.375,"velocity":0.3937007874015748},{"duration":0.1875,"midi":73,"time":459.375,"velocity":0.3937007874015748},{"duration":0.1875,"midi":77,"time":459.375,"velocity":0.3937007874015748},{"duration":0.1875,"midi":53,"time":459.75,"velocity":0.3937007874015748},{"duration":0.1875,"midi":82,"time":459.75,"velocity":0.3937007874015748},{"duration":0.1875,"midi":49,"time":459.75,"velocity":0.3937007874015748},{"duration":0.1875,"midi":61,"time":459.75,"velocity":0.3937007874015748},{"duration":0.1875,"midi":58,"time":459.75,"velocity":0.3937007874015748},{"duration":0.1875,"midi":85,"time":459.75,"velocity":0.3937007874015748},{"duration":0.1875,"midi":73,"time":459.75,"velocity":0.3937007874015748},{"duration":0.1875,"midi":77,"time":459.75,"velocity":0.3937007874015748},{"duration":0.1875,"midi":70,"time":459.75,"velocity":0.3937007874015748},{"duration":0.1875,"midi":65,"time":459.75,"velocity":0.3937007874015748},{"duration":0.1875,"midi":65,"time":459.75,"velocity":0.3937007874015748},{"duration":0.1875,"midi":70,"time":459.75,"velocity":0.3937007874015748},{"duration":0.1875,"midi":70,"time":460.125,"velocity":0.3937007874015748},{"duration":0.1875,"midi":82,"time":460.125,"velocity":0.3937007874015748},{"duration":0.1875,"midi":85,"time":460.125,"velocity":0.3937007874015748},{"duration":0.1875,"midi":73,"time":460.125,"velocity":0.3937007874015748},{"duration":0.1875,"midi":77,"time":460.125,"velocity":0.3937007874015748},{"duration":0.1875,"midi":65,"time":460.125,"velocity":0.3937007874015748},{"duration":0.1875,"midi":41,"time":460.5,"velocity":0.3937007874015748},{"duration":0.1875,"midi":38,"time":460.5,"velocity":0.3937007874015748},{"duration":0.1875,"midi":39,"time":460.5,"velocity":0.3937007874015748},{"duration":0.1875,"midi":82,"time":460.5,"velocity":0.3937007874015748},{"duration":0.1875,"midi":37,"time":460.5,"velocity":0.3937007874015748},{"duration":0.1875,"midi":35,"time":460.5,"velocity":0.3937007874015748},{"duration":0.1875,"midi":85,"time":460.5,"velocity":0.3937007874015748},{"duration":0.1875,"midi":34,"time":460.5,"velocity":0.3937007874015748},{"duration":0.1875,"midi":40,"time":460.5,"velocity":0.3937007874015748},{"duration":0.1875,"midi":33,"time":460.5,"velocity":0.3937007874015748},{"duration":0.1875,"midi":77,"time":460.5,"velocity":0.3937007874015748},{"duration":0.1875,"midi":36,"time":460.5,"velocity":0.3937007874015748},{"duration":0.75,"midi":41,"time":460.5,"velocity":0.3937007874015748},{"duration":0.1875,"midi":70,"time":460.5,"velocity":0.3937007874015748},{"duration":0.1875,"midi":73,"time":460.5,"velocity":0.3937007874015748},{"duration":0.1875,"midi":65,"time":460.5,"velocity":0.3937007874015748},{"duration":0.1875,"midi":75,"time":460.875,"velocity":0.3937007874015748},{"duration":0.1875,"midi":69,"time":460.875,"velocity":0.3937007874015748},{"duration":0.1875,"midi":81,"time":460.875,"velocity":0.3937007874015748},{"duration":0.1875,"midi":84,"time":460.875,"velocity":0.3937007874015748},{"duration":0.1875,"midi":72,"time":460.875,"velocity":0.3937007874015748},{"duration":0.1875,"midi":63,"time":460.875,"velocity":0.3937007874015748},{"duration":0.1875,"midi":73,"time":461.25,"velocity":0.3937007874015748},{"duration":0.1875,"midi":61,"time":461.25,"velocity":0.3937007874015748},{"duration":0.1875,"midi":49,"time":461.25,"velocity":0.3937007874015748},{"duration":0.1875,"midi":82,"time":461.25,"velocity":0.3937007874015748},{"duration":0.1875,"midi":70,"time":461.25,"velocity":0.3937007874015748},{"duration":0.1875,"midi":77,"time":461.25,"velocity":0.3937007874015748},{"duration":0.1875,"midi":61,"time":461.25,"velocity":0.3937007874015748},{"duration":0.1875,"midi":70,"time":461.25,"velocity":0.3937007874015748},{"duration":0.1875,"midi":58,"time":461.25,"velocity":0.3937007874015748},{"duration":0.1875,"midi":65,"time":461.25,"velocity":0.3937007874015748},{"duration":0.1875,"midi":65,"time":461.25,"velocity":0.3937007874015748},{"duration":0.1875,"midi":53,"time":461.25,"velocity":0.3937007874015748},{"duration":0.1875,"midi":82,"time":461.625,"velocity":0.3937007874015748},{"duration":0.1875,"midi":65,"time":461.625,"velocity":0.3937007874015748},{"duration":0.1875,"midi":85,"time":461.625,"velocity":0.3937007874015748},{"duration":0.1875,"midi":70,"time":461.625,"velocity":0.3937007874015748},{"duration":0.1875,"midi":73,"time":461.625,"velocity":0.3937007874015748},{"duration":0.1875,"midi":77,"time":461.625,"velocity":0.3937007874015748},{"duration":0.1875,"midi":84,"time":462,"velocity":0.3937007874015748},{"duration":0.1875,"midi":76,"time":462,"velocity":0.3937007874015748},{"duration":0.1875,"midi":79,"time":462,"velocity":0.3937007874015748},{"duration":0.1875,"midi":32,"time":462,"velocity":0.3937007874015748},{"duration":0.1875,"midi":64,"time":462,"velocity":0.3937007874015748},{"duration":0.1875,"midi":31,"time":462,"velocity":0.3937007874015748},{"duration":0.1875,"midi":26,"time":462,"velocity":0.3937007874015748},{"duration":0.1875,"midi":67,"time":462,"velocity":0.3937007874015748},{"duration":0.1875,"midi":27,"time":462,"velocity":0.3937007874015748},{"duration":0.1875,"midi":29,"time":462,"velocity":0.3937007874015748},{"duration":0.75,"midi":48,"time":462,"velocity":0.3937007874015748},{"duration":0.1875,"midi":24,"time":462,"velocity":0.3937007874015748},{"duration":0.1875,"midi":25,"time":462,"velocity":0.3937007874015748},{"duration":0.1875,"midi":28,"time":462,"velocity":0.3937007874015748},{"duration":0.75,"midi":36,"time":462,"velocity":0.3937007874015748},{"duration":0.1875,"midi":72,"time":462,"velocity":0.3937007874015748},{"duration":0.1875,"midi":30,"time":462,"velocity":0.3937007874015748},{"duration":0.1875,"midi":84,"time":462.375,"velocity":0.3937007874015748},{"duration":0.1875,"midi":64,"time":462.375,"velocity":0.3937007874015748},{"duration":0.1875,"midi":79,"time":462.375,"velocity":0.3937007874015748},{"duration":0.1875,"midi":67,"time":462.375,"velocity":0.3937007874015748},{"duration":0.1875,"midi":76,"time":462.375,"velocity":0.3937007874015748},{"duration":0.1875,"midi":72,"time":462.375,"velocity":0.3937007874015748},{"duration":0.1875,"midi":72,"time":462.75,"velocity":0.3937007874015748},{"duration":0.1875,"midi":84,"time":462.75,"velocity":0.3937007874015748},{"duration":0.1875,"midi":60,"time":462.75,"velocity":0.3937007874015748},{"duration":0.1875,"midi":76,"time":462.75,"velocity":0.3937007874015748},{"duration":0.1875,"midi":79,"time":462.75,"velocity":0.3937007874015748},{"duration":0.1875,"midi":64,"time":462.75,"velocity":0.3937007874015748},{"duration":0.1875,"midi":58,"time":462.75,"velocity":0.3937007874015748},{"duration":0.1875,"midi":48,"time":462.75,"velocity":0.3937007874015748},{"duration":0.1875,"midi":64,"time":462.75,"velocity":0.3937007874015748},{"duration":0.1875,"midi":52,"time":462.75,"velocity":0.3937007874015748},{"duration":0.1875,"midi":70,"time":462.75,"velocity":0.3937007874015748},{"duration":0.1875,"midi":67,"time":462.75,"velocity":0.3937007874015748},{"duration":0.1875,"midi":84,"time":463.125,"velocity":0.3937007874015748},{"duration":0.1875,"midi":72,"time":463.125,"velocity":0.3937007874015748},{"duration":0.1875,"midi":79,"time":463.125,"velocity":0.3937007874015748},{"duration":0.1875,"midi":64,"time":463.125,"velocity":0.3937007874015748},{"duration":0.1875,"midi":67,"time":463.125,"velocity":0.3937007874015748},{"duration":0.1875,"midi":76,"time":463.125,"velocity":0.3937007874015748},{"duration":0.1875,"midi":38,"time":463.5,"velocity":0.3937007874015748},{"duration":0.1875,"midi":76,"time":463.5,"velocity":0.3937007874015748},{"duration":0.1875,"midi":36,"time":463.5,"velocity":0.3937007874015748},{"duration":0.1875,"midi":33,"time":463.5,"velocity":0.3937007874015748},{"duration":0.1875,"midi":34,"time":463.5,"velocity":0.3937007874015748},{"duration":0.1875,"midi":79,"time":463.5,"velocity":0.3937007874015748},{"duration":0.75,"midi":48,"time":463.5,"velocity":0.3937007874015748},{"duration":0.1875,"midi":37,"time":463.5,"velocity":0.3937007874015748},{"duration":0.1875,"midi":64,"time":463.5,"velocity":0.3937007874015748},{"duration":0.1875,"midi":35,"time":463.5,"velocity":0.3937007874015748},{"duration":0.1875,"midi":60,"time":463.5,"velocity":0.3937007874015748},{"duration":0.1875,"midi":41,"time":463.5,"velocity":0.3937007874015748},{"duration":0.1875,"midi":72,"time":463.5,"velocity":0.3937007874015748},{"duration":0.1875,"midi":39,"time":463.5,"velocity":0.3937007874015748},{"duration":0.1875,"midi":67,"time":463.5,"velocity":0.3937007874015748},{"duration":0.1875,"midi":40,"time":463.5,"velocity":0.3937007874015748},{"duration":0.1875,"midi":64,"time":464.25,"velocity":0.3937007874015748},{"duration":0.1875,"midi":58,"time":464.25,"velocity":0.3937007874015748},{"duration":0.1875,"midi":67,"time":464.25,"velocity":0.3937007874015748},{"duration":0.1875,"midi":70,"time":464.25,"velocity":0.3937007874015748},{"duration":0.1875,"midi":72,"time":464.25,"velocity":0.3937007874015748},{"duration":0.1875,"midi":84,"time":464.25,"velocity":0.3937007874015748},{"duration":0.1875,"midi":48,"time":464.25,"velocity":0.3937007874015748},{"duration":0.1875,"midi":79,"time":464.25,"velocity":0.3937007874015748},{"duration":0.1875,"midi":52,"time":464.25,"velocity":0.3937007874015748},{"duration":0.1875,"midi":60,"time":464.25,"velocity":0.3937007874015748},{"duration":0.1875,"midi":76,"time":464.25,"velocity":0.3937007874015748},{"duration":0.1875,"midi":64,"time":464.25,"velocity":0.3937007874015748},{"duration":0.1875,"midi":26,"time":465,"velocity":0.3937007874015748},{"duration":0.1875,"midi":28,"time":465,"velocity":0.3937007874015748},{"duration":0.75,"midi":57,"time":465,"velocity":0.3937007874015748},{"duration":0.1875,"midi":25,"time":465,"velocity":0.3937007874015748},{"duration":0.1875,"midi":53,"time":465,"velocity":0.3937007874015748},{"duration":0.1875,"midi":31,"time":465,"velocity":0.3937007874015748},{"duration":0.1875,"midi":81,"time":465,"velocity":0.3937007874015748},{"duration":0.1875,"midi":27,"time":465,"velocity":0.3937007874015748},{"duration":0.1875,"midi":65,"time":465,"velocity":0.3937007874015748},{"duration":0.1875,"midi":30,"time":465,"velocity":0.3937007874015748},{"duration":0.1875,"midi":45,"time":465,"velocity":0.3937007874015748},{"duration":0.1875,"midi":32,"time":465,"velocity":0.3937007874015748},{"duration":0.75,"midi":53,"time":465,"velocity":0.3937007874015748},{"duration":0.1875,"midi":72,"time":465,"velocity":0.3937007874015748},{"duration":0.1875,"midi":29,"time":465,"velocity":0.3937007874015748},{"duration":0.1875,"midi":60,"time":465,"velocity":0.3937007874015748},{"duration":0.75,"midi":41,"time":465,"velocity":0.3937007874015748},{"duration":0.1875,"midi":69,"time":465,"velocity":0.3937007874015748},{"duration":0.1875,"midi":77,"time":465,"velocity":0.3937007874015748},{"duration":0.1875,"midi":24,"time":465,"velocity":0.3937007874015748},{"duration":0.1875,"midi":41,"time":466.5,"velocity":0.3937007874015748},{"duration":0.1875,"midi":42,"time":466.5,"velocity":0.3937007874015748},{"duration":0.1875,"midi":37,"time":466.5,"velocity":0.3937007874015748},{"duration":1.5,"midi":41,"time":466.5,"velocity":0.3937007874015748},{"duration":0.1875,"midi":36,"time":466.5,"velocity":0.3937007874015748},{"duration":1.5,"midi":29,"time":466.5,"velocity":0.3937007874015748},{"duration":0.1875,"midi":34,"time":466.5,"velocity":0.3937007874015748},{"duration":0.1875,"midi":39,"time":466.5,"velocity":0.3937007874015748},{"duration":0.1875,"midi":38,"time":466.5,"velocity":0.3937007874015748},{"duration":0.1875,"midi":40,"time":466.5,"velocity":0.3937007874015748},{"duration":0.1875,"midi":35,"time":466.5,"velocity":0.3937007874015748},{"duration":0.1875,"midi":25,"time":468,"velocity":0.3937007874015748},{"duration":0.1875,"midi":27,"time":468,"velocity":0.3937007874015748},{"duration":0.1875,"midi":26,"time":468,"velocity":0.3937007874015748},{"duration":0.1875,"midi":77,"time":468,"velocity":0.3937007874015748},{"duration":0.75,"midi":46,"time":468,"velocity":0.3937007874015748},{"duration":0.1875,"midi":24,"time":468,"velocity":0.3937007874015748},{"duration":0.1875,"midi":32,"time":468,"velocity":0.3937007874015748},{"duration":0.75,"midi":34,"time":468,"velocity":0.3937007874015748},{"duration":0.1875,"midi":30,"time":468,"velocity":0.3937007874015748},{"duration":0.1875,"midi":65,"time":468,"velocity":0.3937007874015748},{"duration":0.1875,"midi":29,"time":468,"velocity":0.3937007874015748},{"duration":0.1875,"midi":28,"time":468,"velocity":0.3937007874015748},{"duration":0.1875,"midi":61,"time":468,"velocity":0.3937007874015748},{"duration":0.1875,"midi":31,"time":468,"velocity":0.3937007874015748},{"duration":0.1875,"midi":70,"time":468,"velocity":0.3937007874015748},{"duration":0.1875,"midi":73,"time":468,"velocity":0.3937007874015748},{"duration":0.1875,"midi":58,"time":468,"velocity":0.3937007874015748},{"duration":0.1875,"midi":77,"time":468.375,"velocity":0.3937007874015748},{"duration":0.1875,"midi":61,"time":468.375,"velocity":0.3937007874015748},{"duration":0.1875,"midi":58,"time":468.375,"velocity":0.3937007874015748},{"duration":0.1875,"midi":73,"time":468.375,"velocity":0.3937007874015748},{"duration":0.1875,"midi":70,"time":468.375,"velocity":0.3937007874015748},{"duration":0.1875,"midi":65,"time":468.375,"velocity":0.3937007874015748},{"duration":0.1875,"midi":65,"time":468.75,"velocity":0.3937007874015748},{"duration":0.1875,"midi":61,"time":468.75,"velocity":0.3937007874015748},{"duration":0.1875,"midi":58,"time":468.75,"velocity":0.3937007874015748},{"duration":0.1875,"midi":73,"time":468.75,"velocity":0.3937007874015748},{"duration":0.1875,"midi":70,"time":468.75,"velocity":0.3937007874015748},{"duration":0.1875,"midi":61,"time":468.75,"velocity":0.3937007874015748},{"duration":0.1875,"midi":58,"time":468.75,"velocity":0.3937007874015748},{"duration":0.1875,"midi":70,"time":468.75,"velocity":0.3937007874015748},{"duration":0.1875,"midi":49,"time":468.75,"velocity":0.3937007874015748},{"duration":0.1875,"midi":53,"time":468.75,"velocity":0.3937007874015748},{"duration":0.1875,"midi":77,"time":468.75,"velocity":0.3937007874015748},{"duration":0.1875,"midi":65,"time":468.75,"velocity":0.3937007874015748},{"duration":0.1875,"midi":73,"time":469.125,"velocity":0.3937007874015748},{"duration":0.1875,"midi":70,"time":469.125,"velocity":0.3937007874015748},{"duration":0.1875,"midi":77,"time":469.125,"velocity":0.3937007874015748},{"duration":0.1875,"midi":61,"time":469.125,"velocity":0.3937007874015748},{"duration":0.1875,"midi":58,"time":469.125,"velocity":0.3937007874015748},{"duration":0.1875,"midi":65,"time":469.125,"velocity":0.3937007874015748},{"duration":0.1875,"midi":34,"time":469.5,"velocity":0.3937007874015748},{"duration":0.1875,"midi":58,"time":469.5,"velocity":0.3937007874015748},{"duration":0.1875,"midi":38,"time":469.5,"velocity":0.3937007874015748},{"duration":0.1875,"midi":61,"time":469.5,"velocity":0.3937007874015748},{"duration":0.1875,"midi":33,"time":469.5,"velocity":0.3937007874015748},{"duration":0.1875,"midi":41,"time":469.5,"velocity":0.3937007874015748},{"duration":0.1875,"midi":37,"time":469.5,"velocity":0.3937007874015748},{"duration":0.1875,"midi":40,"time":469.5,"velocity":0.3937007874015748},{"duration":0.1875,"midi":65,"time":469.5,"velocity":0.3937007874015748},{"duration":0.1875,"midi":36,"time":469.5,"velocity":0.3937007874015748},{"duration":0.1875,"midi":73,"time":469.5,"velocity":0.3937007874015748},{"duration":0.75,"midi":41,"time":469.5,"velocity":0.3937007874015748},{"duration":0.75,"midi":29,"time":469.5,"velocity":0.3937007874015748},{"duration":0.1875,"midi":70,"time":469.5,"velocity":0.3937007874015748},{"duration":0.1875,"midi":39,"time":469.5,"velocity":0.3937007874015748},{"duration":0.1875,"midi":35,"time":469.5,"velocity":0.3937007874015748},{"duration":0.1875,"midi":77,"time":469.5,"velocity":0.3937007874015748},{"duration":0.1875,"midi":65,"time":469.875,"velocity":0.3937007874015748},{"duration":0.1875,"midi":61,"time":469.875,"velocity":0.3937007874015748},{"duration":0.1875,"midi":70,"time":469.875,"velocity":0.3937007874015748},{"duration":0.1875,"midi":58,"time":469.875,"velocity":0.3937007874015748},{"duration":0.1875,"midi":77,"time":469.875,"velocity":0.3937007874015748},{"duration":0.1875,"midi":73,"time":469.875,"velocity":0.3937007874015748},{"duration":0.1875,"midi":77,"time":470.25,"velocity":0.3937007874015748},{"duration":0.1875,"midi":61,"time":470.25,"velocity":0.3937007874015748},{"duration":0.1875,"midi":49,"time":470.25,"velocity":0.3937007874015748},{"duration":0.1875,"midi":58,"time":470.25,"velocity":0.3937007874015748},{"duration":0.1875,"midi":70,"time":470.25,"velocity":0.3937007874015748},{"duration":0.1875,"midi":70,"time":470.25,"velocity":0.3937007874015748},{"duration":0.1875,"midi":58,"time":470.25,"velocity":0.3937007874015748},{"duration":0.1875,"midi":65,"time":470.25,"velocity":0.3937007874015748},{"duration":0.1875,"midi":73,"time":470.25,"velocity":0.3937007874015748},{"duration":0.1875,"midi":61,"time":470.25,"velocity":0.3937007874015748},{"duration":0.1875,"midi":65,"time":470.25,"velocity":0.3937007874015748},{"duration":0.1875,"midi":53,"time":470.25,"velocity":0.3937007874015748},{"duration":0.1875,"midi":65,"time":470.625,"velocity":0.3937007874015748},{"duration":0.1875,"midi":70,"time":470.625,"velocity":0.3937007874015748},{"duration":0.1875,"midi":61,"time":470.625,"velocity":0.3937007874015748},{"duration":0.1875,"midi":58,"time":470.625,"velocity":0.3937007874015748},{"duration":0.1875,"midi":77,"time":470.625,"velocity":0.3937007874015748},{"duration":0.1875,"midi":73,"time":470.625,"velocity":0.3937007874015748},{"duration":0.1875,"midi":70,"time":471,"velocity":0.3937007874015748},{"duration":0.1875,"midi":29,"time":471,"velocity":0.3937007874015748},{"duration":0.1875,"midi":31,"time":471,"velocity":0.3937007874015748},{"duration":0.75,"midi":46,"time":471,"velocity":0.3937007874015748},{"duration":0.1875,"midi":61,"time":471,"velocity":0.3937007874015748},{"duration":0.1875,"midi":77,"time":471,"velocity":0.3937007874015748},{"duration":0.1875,"midi":32,"time":471,"velocity":0.3937007874015748},{"duration":0.1875,"midi":58,"time":471,"velocity":0.3937007874015748},{"duration":0.1875,"midi":24,"time":471,"velocity":0.3937007874015748},{"duration":0.1875,"midi":30,"time":471,"velocity":0.3937007874015748},{"duration":0.1875,"midi":73,"time":471,"velocity":0.3937007874015748},{"duration":0.1875,"midi":65,"time":471,"velocity":0.3937007874015748},{"duration":0.1875,"midi":28,"time":471,"velocity":0.3937007874015748},{"duration":0.1875,"midi":25,"time":471,"velocity":0.3937007874015748},{"duration":0.1875,"midi":27,"time":471,"velocity":0.3937007874015748},{"duration":0.75,"midi":34,"time":471,"velocity":0.3937007874015748},{"duration":0.1875,"midi":26,"time":471,"velocity":0.3937007874015748},{"duration":0.09375,"midi":89,"time":471,"velocity":0.3937007874015748},{"duration":0.09375,"midi":89,"time":471.1875,"velocity":0.3937007874015748},{"duration":0.1875,"midi":70,"time":471.375,"velocity":0.3937007874015748},{"duration":0.09375,"midi":89,"time":471.375,"velocity":0.3937007874015748},{"duration":0.1875,"midi":65,"time":471.375,"velocity":0.3937007874015748},{"duration":0.1875,"midi":61,"time":471.375,"velocity":0.3937007874015748},{"duration":0.1875,"midi":77,"time":471.375,"velocity":0.3937007874015748},{"duration":0.1875,"midi":58,"time":471.375,"velocity":0.3937007874015748},{"duration":0.1875,"midi":73,"time":471.375,"velocity":0.3937007874015748},{"duration":0.09375,"midi":89,"time":471.5625,"velocity":0.3937007874015748},{"duration":0.1875,"midi":65,"time":471.75,"velocity":0.3937007874015748},{"duration":0.1875,"midi":49,"time":471.75,"velocity":0.3937007874015748},{"duration":0.1875,"midi":58,"time":471.75,"velocity":0.3937007874015748},{"duration":0.1875,"midi":61,"time":471.75,"velocity":0.3937007874015748},{"duration":0.1875,"midi":70,"time":471.75,"velocity":0.3937007874015748},{"duration":0.1875,"midi":53,"time":471.75,"velocity":0.3937007874015748},{"duration":0.1875,"midi":58,"time":471.75,"velocity":0.3937007874015748},{"duration":0.1875,"midi":65,"time":471.75,"velocity":0.3937007874015748},{"duration":0.1875,"midi":61,"time":471.75,"velocity":0.3937007874015748},{"duration":0.1875,"midi":77,"time":471.75,"velocity":0.3937007874015748},{"duration":0.09375,"midi":89,"time":471.75,"velocity":0.3937007874015748},{"duration":0.1875,"midi":73,"time":471.75,"velocity":0.3937007874015748},{"duration":0.1875,"midi":70,"time":471.75,"velocity":0.3937007874015748},{"duration":0.09375,"midi":89,"time":471.9375,"velocity":0.3937007874015748},{"duration":0.1875,"midi":70,"time":472.125,"velocity":0.3937007874015748},{"duration":0.1875,"midi":61,"time":472.125,"velocity":0.3937007874015748},{"duration":0.1875,"midi":73,"time":472.125,"velocity":0.3937007874015748},{"duration":0.1875,"midi":65,"time":472.125,"velocity":0.3937007874015748},{"duration":0.09375,"midi":89,"time":472.125,"velocity":0.3937007874015748},{"duration":0.1875,"midi":77,"time":472.125,"velocity":0.3937007874015748},{"duration":0.1875,"midi":58,"time":472.125,"velocity":0.3937007874015748},{"duration":0.09375,"midi":89,"time":472.3125,"velocity":0.3937007874015748},{"duration":0.1875,"midi":41,"time":472.5,"velocity":0.3937007874015748},{"duration":0.75,"midi":29,"time":472.5,"velocity":0.3937007874015748},{"duration":0.09375,"midi":89,"time":472.5,"velocity":0.3937007874015748},{"duration":0.1875,"midi":40,"time":472.5,"velocity":0.3937007874015748},{"duration":0.1875,"midi":61,"time":472.5,"velocity":0.3937007874015748},{"duration":0.1875,"midi":36,"time":472.5,"velocity":0.3937007874015748},{"duration":0.1875,"midi":33,"time":472.5,"velocity":0.3937007874015748},{"duration":0.1875,"midi":35,"time":472.5,"velocity":0.3937007874015748},{"duration":0.1875,"midi":65,"time":472.5,"velocity":0.3937007874015748},{"duration":0.75,"midi":41,"time":472.5,"velocity":0.3937007874015748},{"duration":0.1875,"midi":38,"time":472.5,"velocity":0.3937007874015748},{"duration":0.1875,"midi":70,"time":472.5,"velocity":0.3937007874015748},{"duration":0.1875,"midi":73,"time":472.5,"velocity":0.3937007874015748},{"duration":0.1875,"midi":58,"time":472.5,"velocity":0.3937007874015748},{"duration":0.1875,"midi":39,"time":472.5,"velocity":0.3937007874015748},{"duration":0.1875,"midi":77,"time":472.5,"velocity":0.3937007874015748},{"duration":0.1875,"midi":34,"time":472.5,"velocity":0.3937007874015748},{"duration":0.1875,"midi":37,"time":472.5,"velocity":0.3937007874015748},{"duration":0.09375,"midi":89,"time":472.6875,"velocity":0.3937007874015748},{"duration":0.1875,"midi":77,"time":472.875,"velocity":0.3937007874015748},{"duration":0.1875,"midi":70,"time":472.875,"velocity":0.3937007874015748},{"duration":0.09375,"midi":89,"time":472.875,"velocity":0.3937007874015748},{"duration":0.1875,"midi":61,"time":472.875,"velocity":0.3937007874015748},{"duration":0.1875,"midi":65,"time":472.875,"velocity":0.3937007874015748},{"duration":0.1875,"midi":58,"time":472.875,"velocity":0.3937007874015748},{"duration":0.1875,"midi":73,"time":472.875,"velocity":0.3937007874015748},{"duration":0.09375,"midi":89,"time":473.0625,"velocity":0.3937007874015748},{"duration":0.09375,"midi":89,"time":473.25,"velocity":0.3937007874015748},{"duration":0.1875,"midi":61,"time":473.25,"velocity":0.3937007874015748},{"duration":0.1875,"midi":77,"time":473.25,"velocity":0.3937007874015748},{"duration":0.1875,"midi":58,"time":473.25,"velocity":0.3937007874015748},{"duration":0.1875,"midi":65,"time":473.25,"velocity":0.3937007874015748},{"duration":0.1875,"midi":65,"time":473.25,"velocity":0.3937007874015748},{"duration":0.1875,"midi":61,"time":473.25,"velocity":0.3937007874015748},{"duration":0.1875,"midi":70,"time":473.25,"velocity":0.3937007874015748},{"duration":0.1875,"midi":53,"time":473.25,"velocity":0.3937007874015748},{"duration":0.1875,"midi":70,"time":473.25,"velocity":0.3937007874015748},{"duration":0.1875,"midi":58,"time":473.25,"velocity":0.3937007874015748},{"duration":0.1875,"midi":73,"time":473.25,"velocity":0.3937007874015748},{"duration":0.1875,"midi":49,"time":473.25,"velocity":0.3937007874015748},{"duration":0.09375,"midi":89,"time":473.4375,"velocity":0.3937007874015748},{"duration":0.1875,"midi":77,"time":473.625,"velocity":0.3937007874015748},{"duration":0.09375,"midi":89,"time":473.625,"velocity":0.3937007874015748},{"duration":0.1875,"midi":70,"time":473.625,"velocity":0.3937007874015748},{"duration":0.1875,"midi":73,"time":473.625,"velocity":0.3937007874015748},{"duration":0.1875,"midi":58,"time":473.625,"velocity":0.3937007874015748},{"duration":0.1875,"midi":65,"time":473.625,"velocity":0.3937007874015748},{"duration":0.1875,"midi":61,"time":473.625,"velocity":0.3937007874015748},{"duration":0.09375,"midi":89,"time":473.8125,"velocity":0.3937007874015748},{"duration":0.1875,"midi":73,"time":474,"velocity":0.3937007874015748},{"duration":0.1875,"midi":70,"time":474,"velocity":0.3937007874015748},{"duration":0.1875,"midi":25,"time":474,"velocity":0.3937007874015748},{"duration":0.1875,"midi":24,"time":474,"velocity":0.3937007874015748},{"duration":0.75,"midi":46,"time":474,"velocity":0.3937007874015748},{"duration":0.09375,"midi":89,"time":474,"velocity":0.3937007874015748},{"duration":0.75,"midi":34,"time":474,"velocity":0.3937007874015748},{"duration":0.1875,"midi":30,"time":474,"velocity":0.3937007874015748},{"duration":0.1875,"midi":58,"time":474,"velocity":0.3937007874015748},{"duration":0.1875,"midi":77,"time":474,"velocity":0.3937007874015748},{"duration":0.1875,"midi":32,"time":474,"velocity":0.3937007874015748},{"duration":0.1875,"midi":65,"time":474,"velocity":0.3937007874015748},{"duration":0.1875,"midi":26,"time":474,"velocity":0.3937007874015748},{"duration":0.1875,"midi":31,"time":474,"velocity":0.3937007874015748},{"duration":0.1875,"midi":61,"time":474,"velocity":0.3937007874015748},{"duration":0.1875,"midi":27,"time":474,"velocity":0.3937007874015748},{"duration":0.1875,"midi":29,"time":474,"velocity":0.3937007874015748},{"duration":0.1875,"midi":28,"time":474,"velocity":0.3937007874015748},{"duration":0.09375,"midi":89,"time":474.1875,"velocity":0.3937007874015748},{"duration":0.1875,"midi":78,"time":474.375,"velocity":0.3937007874015748},{"duration":0.1875,"midi":58,"time":474.375,"velocity":0.3937007874015748},{"duration":0.09375,"midi":89,"time":474.375,"velocity":0.3937007874015748},{"duration":0.1875,"midi":66,"time":474.375,"velocity":0.3937007874015748},{"duration":0.1875,"midi":63,"time":474.375,"velocity":0.3937007874015748},{"duration":0.1875,"midi":75,"time":474.375,"velocity":0.3937007874015748},{"duration":0.1875,"midi":70,"time":474.375,"velocity":0.3937007874015748},{"duration":0.09375,"midi":89,"time":474.5625,"velocity":0.3937007874015748},{"duration":0.1875,"midi":49,"time":474.75,"velocity":0.3937007874015748},{"duration":0.1875,"midi":70,"time":474.75,"velocity":0.3937007874015748},{"duration":0.1875,"midi":65,"time":474.75,"velocity":0.3937007874015748},{"duration":0.1875,"midi":70,"time":474.75,"velocity":0.3937007874015748},{"duration":0.1875,"midi":53,"time":474.75,"velocity":0.3937007874015748},{"duration":0.1875,"midi":58,"time":474.75,"velocity":0.3937007874015748},{"duration":0.1875,"midi":77,"time":474.75,"velocity":0.3937007874015748},{"duration":0.1875,"midi":58,"time":474.75,"velocity":0.3937007874015748},{"duration":0.1875,"midi":61,"time":474.75,"velocity":0.3937007874015748},{"duration":0.1875,"midi":61,"time":474.75,"velocity":0.3937007874015748},{"duration":0.1875,"midi":73,"time":474.75,"velocity":0.3937007874015748},{"duration":0.1875,"midi":65,"time":474.75,"velocity":0.3937007874015748},{"duration":0.1875,"midi":60,"time":475.125,"velocity":0.3937007874015748},{"duration":0.1875,"midi":58,"time":475.125,"velocity":0.3937007874015748},{"duration":0.1875,"midi":72,"time":475.125,"velocity":0.3937007874015748},{"duration":0.1875,"midi":70,"time":475.125,"velocity":0.3937007874015748},{"duration":0.1875,"midi":76,"time":475.125,"velocity":0.3937007874015748},{"duration":0.1875,"midi":64,"time":475.125,"velocity":0.3937007874015748},{"duration":0.1875,"midi":35,"time":475.5,"velocity":0.3937007874015748},{"duration":0.1875,"midi":39,"time":475.5,"velocity":0.3937007874015748},{"duration":0.1875,"midi":41,"time":475.5,"velocity":0.3937007874015748},{"duration":0.1875,"midi":33,"time":475.5,"velocity":0.3937007874015748},{"duration":0.1875,"midi":73,"time":475.5,"velocity":0.3937007874015748},{"duration":0.1875,"midi":37,"time":475.5,"velocity":0.3937007874015748},{"duration":0.1875,"midi":38,"time":475.5,"velocity":0.3937007874015748},{"duration":0.1875,"midi":36,"time":475.5,"velocity":0.3937007874015748},{"duration":0.1875,"midi":70,"time":475.5,"velocity":0.3937007874015748},{"duration":0.1875,"midi":40,"time":475.5,"velocity":0.3937007874015748},{"duration":0.1875,"midi":65,"time":475.5,"velocity":0.3937007874015748},{"duration":0.1875,"midi":77,"time":475.5,"velocity":0.3937007874015748},{"duration":0.1875,"midi":61,"time":475.5,"velocity":0.3937007874015748},{"duration":0.75,"midi":41,"time":475.5,"velocity":0.3937007874015748},{"duration":0.1875,"midi":34,"time":475.5,"velocity":0.3937007874015748},{"duration":0.75,"midi":29,"time":475.5,"velocity":0.3937007874015748},{"duration":0.1875,"midi":58,"time":475.5,"velocity":0.3937007874015748},{"duration":0.1875,"midi":49,"time":476.25,"velocity":0.3937007874015748},{"duration":0.1875,"midi":53,"time":476.25,"velocity":0.3937007874015748},{"duration":0.1875,"midi":77,"time":476.25,"velocity":0.3937007874015748},{"duration":0.1875,"midi":70,"time":476.25,"velocity":0.3937007874015748},{"duration":0.1875,"midi":65,"time":476.25,"velocity":0.3937007874015748},{"duration":0.1875,"midi":73,"time":476.25,"velocity":0.3937007874015748},{"duration":0.1875,"midi":82,"time":476.25,"velocity":0.3937007874015748},{"duration":0.1875,"midi":61,"time":476.25,"velocity":0.3937007874015748},{"duration":0.1875,"midi":65,"time":476.625,"velocity":0.3937007874015748},{"duration":0.1875,"midi":85,"time":476.625,"velocity":0.3937007874015748},{"duration":0.1875,"midi":70,"time":476.625,"velocity":0.3937007874015748},{"duration":0.1875,"midi":82,"time":476.625,"velocity":0.3937007874015748},{"duration":0.1875,"midi":77,"time":476.625,"velocity":0.3937007874015748},{"duration":0.1875,"midi":73,"time":476.625,"velocity":0.3937007874015748},{"duration":0.1875,"midi":27,"time":477,"velocity":0.3937007874015748},{"duration":0.1875,"midi":28,"time":477,"velocity":0.3937007874015748},{"duration":0.1875,"midi":82,"time":477,"velocity":0.3937007874015748},{"duration":0.1875,"midi":29,"time":477,"velocity":0.3937007874015748},{"duration":0.75,"midi":46,"time":477,"velocity":0.3937007874015748},{"duration":0.1875,"midi":31,"time":477,"velocity":0.3937007874015748},{"duration":0.1875,"midi":30,"time":477,"velocity":0.3937007874015748},{"duration":0.1875,"midi":25,"time":477,"velocity":0.3937007874015748},{"duration":0.1875,"midi":73,"time":477,"velocity":0.3937007874015748},{"duration":0.1875,"midi":70,"time":477,"velocity":0.3937007874015748},{"duration":0.1875,"midi":26,"time":477,"velocity":0.3937007874015748},{"duration":0.1875,"midi":77,"time":477,"velocity":0.3937007874015748},{"duration":0.1875,"midi":85,"time":477,"velocity":0.3937007874015748},{"duration":0.1875,"midi":89,"time":477,"velocity":0.3937007874015748},{"duration":0.75,"midi":34,"time":477,"velocity":0.3937007874015748},{"duration":0.1875,"midi":32,"time":477,"velocity":0.3937007874015748},{"duration":0.1875,"midi":24,"time":477,"velocity":0.3937007874015748},{"duration":0.1875,"midi":49,"time":477.75,"velocity":0.3937007874015748},{"duration":0.1875,"midi":73,"time":477.75,"velocity":0.3937007874015748},{"duration":0.1875,"midi":89,"time":477.75,"velocity":0.3937007874015748},{"duration":0.1875,"midi":65,"time":477.75,"velocity":0.3937007874015748},{"duration":0.1875,"midi":53,"time":477.75,"velocity":0.3937007874015748},{"duration":0.1875,"midi":94,"time":477.75,"velocity":0.3937007874015748},{"duration":0.1875,"midi":85,"time":477.75,"velocity":0.3937007874015748},{"duration":0.1875,"midi":61,"time":477.75,"velocity":0.3937007874015748},{"duration":0.1875,"midi":77,"time":477.75,"velocity":0.3937007874015748},{"duration":0.1875,"midi":58,"time":477.75,"velocity":0.3937007874015748},{"duration":0.1875,"midi":80,"time":477.75,"velocity":0.3937007874015748},{"duration":0.1875,"midi":70,"time":477.75,"velocity":0.3937007874015748},{"duration":1.125,"midi":89,"time":478.5,"velocity":0.3937007874015748},{"duration":0.75,"midi":29,"time":478.5,"velocity":0.3937007874015748},{"duration":0.1875,"midi":33,"time":478.5,"velocity":0.3937007874015748},{"duration":0.1875,"midi":37,"time":478.5,"velocity":0.3937007874015748},{"duration":0.1875,"midi":40,"time":478.5,"velocity":0.3937007874015748},{"duration":1.125,"midi":94,"time":478.5,"velocity":0.3937007874015748},{"duration":1.125,"midi":77,"time":478.5,"velocity":0.3937007874015748},{"duration":0.1875,"midi":36,"time":478.5,"velocity":0.3937007874015748},{"duration":0.1875,"midi":34,"time":478.5,"velocity":0.3937007874015748},{"duration":0.1875,"midi":41,"time":478.5,"velocity":0.3937007874015748},{"duration":0.1875,"midi":38,"time":478.5,"velocity":0.3937007874015748},{"duration":1.125,"midi":73,"time":478.5,"velocity":0.3937007874015748},{"duration":0.1875,"midi":39,"time":478.5,"velocity":0.3937007874015748},{"duration":1.125,"midi":82,"time":478.5,"velocity":0.3937007874015748},{"duration":0.1875,"midi":35,"time":478.5,"velocity":0.3937007874015748},{"duration":1.125,"midi":85,"time":478.5,"velocity":0.3937007874015748},{"duration":0.75,"midi":41,"time":478.5,"velocity":0.3937007874015748},{"duration":0.1875,"midi":58,"time":479.25,"velocity":0.3937007874015748},{"duration":0.1875,"midi":65,"time":479.25,"velocity":0.3937007874015748},{"duration":0.1875,"midi":70,"time":479.25,"velocity":0.3937007874015748},{"duration":0.1875,"midi":49,"time":479.25,"velocity":0.3937007874015748},{"duration":0.1875,"midi":53,"time":479.25,"velocity":0.3937007874015748},{"duration":0.1875,"midi":61,"time":479.25,"velocity":0.3937007874015748},{"duration":0.75,"midi":51,"time":480,"velocity":0.3937007874015748},{"duration":0.75,"midi":39,"time":480,"velocity":0.3937007874015748},{"duration":0.1875,"midi":26,"time":480,"velocity":0.3937007874015748},{"duration":0.1875,"midi":90,"time":480,"velocity":0.3937007874015748},{"duration":0.1875,"midi":28,"time":480,"velocity":0.3937007874015748},{"duration":0.1875,"midi":78,"time":480,"velocity":0.3937007874015748},{"duration":0.1875,"midi":94,"time":480,"velocity":0.3937007874015748},{"duration":0.1875,"midi":27,"time":480,"velocity":0.3937007874015748},{"duration":0.1875,"midi":25,"time":480,"velocity":0.3937007874015748},{"duration":0.1875,"midi":29,"time":480,"velocity":0.3937007874015748},{"duration":0.1875,"midi":32,"time":480,"velocity":0.3937007874015748},{"duration":0.1875,"midi":75,"time":480,"velocity":0.3937007874015748},{"duration":0.1875,"midi":31,"time":480,"velocity":0.3937007874015748},{"duration":0.1875,"midi":30,"time":480,"velocity":0.3937007874015748},{"duration":0.1875,"midi":82,"time":480,"velocity":0.3937007874015748},{"duration":0.1875,"midi":24,"time":480,"velocity":0.3937007874015748},{"duration":0.1875,"midi":87,"time":480,"velocity":0.3937007874015748},{"duration":0.1875,"midi":73,"time":480.375,"velocity":0.3937007874015748},{"duration":0.1875,"midi":94,"time":480.375,"velocity":0.3937007874015748},{"duration":0.1875,"midi":82,"time":480.375,"velocity":0.3937007874015748},{"duration":0.1875,"midi":77,"time":480.375,"velocity":0.3937007874015748},{"duration":0.1875,"midi":85,"time":480.375,"velocity":0.3937007874015748},{"duration":0.1875,"midi":89,"time":480.375,"velocity":0.3937007874015748},{"duration":0.1875,"midi":54,"time":480.75,"velocity":0.3937007874015748},{"duration":0.1875,"midi":72,"time":480.75,"velocity":0.3937007874015748},{"duration":0.1875,"midi":48,"time":480.75,"velocity":0.3937007874015748},{"duration":0.1875,"midi":66,"time":480.75,"velocity":0.3937007874015748},{"duration":0.1875,"midi":63,"time":480.75,"velocity":0.3937007874015748},{"duration":0.1875,"midi":90,"time":480.75,"velocity":0.3937007874015748},{"duration":0.1875,"midi":70,"time":480.75,"velocity":0.3937007874015748},{"duration":0.1875,"midi":87,"time":480.75,"velocity":0.3937007874015748},{"duration":0.1875,"midi":78,"time":480.75,"velocity":0.3937007874015748},{"duration":0.1875,"midi":75,"time":480.75,"velocity":0.3937007874015748},{"duration":0.1875,"midi":51,"time":480.75,"velocity":0.3937007874015748},{"duration":0.1875,"midi":58,"time":480.75,"velocity":0.3937007874015748},{"duration":0.1875,"midi":82,"time":480.75,"velocity":0.3937007874015748},{"duration":0.1875,"midi":94,"time":480.75,"velocity":0.3937007874015748},{"duration":0.1875,"midi":94,"time":481.125,"velocity":0.3937007874015748},{"duration":0.1875,"midi":75,"time":481.125,"velocity":0.3937007874015748},{"duration":0.1875,"midi":90,"time":481.125,"velocity":0.3937007874015748},{"duration":0.1875,"midi":82,"time":481.125,"velocity":0.3937007874015748},{"duration":0.1875,"midi":87,"time":481.125,"velocity":0.3937007874015748},{"duration":0.1875,"midi":78,"time":481.125,"velocity":0.3937007874015748},{"duration":0.1875,"midi":37,"time":481.5,"velocity":0.3937007874015748},{"duration":0.1875,"midi":73,"time":481.5,"velocity":0.3937007874015748},{"duration":0.1875,"midi":38,"time":481.5,"velocity":0.3937007874015748},{"duration":0.75,"midi":49,"time":481.5,"velocity":0.3937007874015748},{"duration":0.1875,"midi":89,"time":481.5,"velocity":0.3937007874015748},{"duration":0.1875,"midi":36,"time":481.5,"velocity":0.3937007874015748},{"duration":0.75,"midi":37,"time":481.5,"velocity":0.3937007874015748},{"duration":0.1875,"midi":40,"time":481.5,"velocity":0.3937007874015748},{"duration":0.1875,"midi":77,"time":481.5,"velocity":0.3937007874015748},{"duration":0.1875,"midi":41,"time":481.5,"velocity":0.3937007874015748},{"duration":0.1875,"midi":85,"time":481.5,"velocity":0.3937007874015748},{"duration":0.1875,"midi":34,"time":481.5,"velocity":0.3937007874015748},{"duration":0.1875,"midi":94,"time":481.5,"velocity":0.3937007874015748},{"duration":0.1875,"midi":39,"time":481.5,"velocity":0.3937007874015748},{"duration":0.1875,"midi":82,"time":481.5,"velocity":0.3937007874015748},{"duration":0.1875,"midi":33,"time":481.5,"velocity":0.3937007874015748},{"duration":0.1875,"midi":35,"time":481.5,"velocity":0.3937007874015748},{"duration":0.1875,"midi":82,"time":481.875,"velocity":0.3937007874015748},{"duration":0.1875,"midi":90,"time":481.875,"velocity":0.3937007874015748},{"duration":0.1875,"midi":78,"time":481.875,"velocity":0.3937007874015748},{"duration":0.1875,"midi":87,"time":481.875,"velocity":0.3937007874015748},{"duration":0.1875,"midi":72,"time":481.875,"velocity":0.3937007874015748},{"duration":0.1875,"midi":94,"time":481.875,"velocity":0.3937007874015748},{"duration":0.1875,"midi":75,"time":481.875,"velocity":0.3937007874015748},{"duration":0.1875,"midi":58,"time":482.25,"velocity":0.3937007874015748},{"duration":0.1875,"midi":70,"time":482.25,"velocity":0.3937007874015748},{"duration":0.1875,"midi":82,"time":482.25,"velocity":0.3937007874015748},{"duration":0.1875,"midi":77,"time":482.25,"velocity":0.3937007874015748},{"duration":0.1875,"midi":85,"time":482.25,"velocity":0.3937007874015748},{"duration":0.1875,"midi":46,"time":482.25,"velocity":0.3937007874015748},{"duration":0.1875,"midi":53,"time":482.25,"velocity":0.3937007874015748},{"duration":0.1875,"midi":89,"time":482.25,"velocity":0.3937007874015748},{"duration":0.1875,"midi":65,"time":482.25,"velocity":0.3937007874015748},{"duration":0.1875,"midi":61,"time":482.25,"velocity":0.3937007874015748},{"duration":0.1875,"midi":73,"time":482.25,"velocity":0.3937007874015748},{"duration":0.1875,"midi":49,"time":482.25,"velocity":0.3937007874015748},{"duration":0.1875,"midi":70,"time":482.25,"velocity":0.3937007874015748},{"duration":0.1875,"midi":77,"time":482.625,"velocity":0.3937007874015748},{"duration":0.1875,"midi":89,"time":482.625,"velocity":0.3937007874015748},{"duration":0.1875,"midi":85,"time":482.625,"velocity":0.3937007874015748},{"duration":0.1875,"midi":73,"time":482.625,"velocity":0.3937007874015748},{"duration":0.1875,"midi":94,"time":482.625,"velocity":0.3937007874015748},{"duration":0.1875,"midi":82,"time":482.625,"velocity":0.3937007874015748},{"duration":0.1875,"midi":26,"time":483,"velocity":0.3937007874015748},{"duration":0.1875,"midi":24,"time":483,"velocity":0.3937007874015748},{"duration":0.1875,"midi":28,"time":483,"velocity":0.3937007874015748},{"duration":0.1875,"midi":32,"time":483,"velocity":0.3937007874015748},{"duration":0.1875,"midi":30,"time":483,"velocity":0.3937007874015748},{"duration":0.1875,"midi":84,"time":483,"velocity":0.3937007874015748},{"duration":0.1875,"midi":87,"time":483,"velocity":0.3937007874015748},{"duration":0.75,"midi":48,"time":483,"velocity":0.3937007874015748},{"duration":0.75,"midi":36,"time":483,"velocity":0.3937007874015748},{"duration":0.1875,"midi":29,"time":483,"velocity":0.3937007874015748},{"duration":0.1875,"midi":90,"time":483,"velocity":0.3937007874015748},{"duration":0.1875,"midi":75,"time":483,"velocity":0.3937007874015748},{"duration":0.1875,"midi":27,"time":483,"velocity":0.3937007874015748},{"duration":0.1875,"midi":72,"time":483,"velocity":0.3937007874015748},{"duration":0.1875,"midi":25,"time":483,"velocity":0.3937007874015748},{"duration":0.1875,"midi":78,"time":483,"velocity":0.3937007874015748},{"duration":0.1875,"midi":31,"time":483,"velocity":0.3937007874015748},{"duration":0.1875,"midi":82,"time":483.375,"velocity":0.3937007874015748},{"duration":0.1875,"midi":73,"time":483.375,"velocity":0.3937007874015748},{"duration":0.1875,"midi":70,"time":483.375,"velocity":0.3937007874015748},{"duration":0.1875,"midi":89,"time":483.375,"velocity":0.3937007874015748},{"duration":0.1875,"midi":85,"time":483.375,"velocity":0.3937007874015748},{"duration":0.1875,"midi":77,"time":483.375,"velocity":0.3937007874015748},{"duration":0.1875,"midi":77,"time":483.75,"velocity":0.3937007874015748},{"duration":0.1875,"midi":72,"time":483.75,"velocity":0.3937007874015748},{"duration":0.1875,"midi":60,"time":483.75,"velocity":0.3937007874015748},{"duration":0.1875,"midi":48,"time":483.75,"velocity":0.3937007874015748},{"duration":0.1875,"midi":57,"time":483.75,"velocity":0.3937007874015748},{"duration":0.1875,"midi":63,"time":483.75,"velocity":0.3937007874015748},{"duration":0.1875,"midi":45,"time":483.75,"velocity":0.3937007874015748},{"duration":0.1875,"midi":69,"time":483.75,"velocity":0.3937007874015748},{"duration":0.1875,"midi":81,"time":483.75,"velocity":0.3937007874015748},{"duration":0.1875,"midi":51,"time":483.75,"velocity":0.3937007874015748},{"duration":0.1875,"midi":84,"time":483.75,"velocity":0.3937007874015748},{"duration":0.1875,"midi":89,"time":483.75,"velocity":0.3937007874015748},{"duration":0.1875,"midi":69,"time":483.75,"velocity":0.3937007874015748},{"duration":0.1875,"midi":78,"time":484.125,"velocity":0.3937007874015748},{"duration":0.1875,"midi":72,"time":484.125,"velocity":0.3937007874015748},{"duration":0.1875,"midi":87,"time":484.125,"velocity":0.3937007874015748},{"duration":0.1875,"midi":84,"time":484.125,"velocity":0.3937007874015748},{"duration":0.1875,"midi":90,"time":484.125,"velocity":0.3937007874015748},{"duration":0.1875,"midi":75,"time":484.125,"velocity":0.3937007874015748},{"duration":0.1875,"midi":82,"time":484.5,"velocity":0.3937007874015748},{"duration":0.75,"midi":46,"time":484.5,"velocity":0.3937007874015748},{"duration":0.1875,"midi":41,"time":484.5,"velocity":0.3937007874015748},{"duration":0.1875,"midi":70,"time":484.5,"velocity":0.3937007874015748},{"duration":0.1875,"midi":73,"time":484.5,"velocity":0.3937007874015748},{"duration":0.1875,"midi":35,"time":484.5,"velocity":0.3937007874015748},{"duration":0.1875,"midi":34,"time":484.5,"velocity":0.3937007874015748},{"duration":0.1875,"midi":37,"time":484.5,"velocity":0.3937007874015748},{"duration":0.1875,"midi":38,"time":484.5,"velocity":0.3937007874015748},{"duration":0.1875,"midi":77,"time":484.5,"velocity":0.3937007874015748},{"duration":0.1875,"midi":85,"time":484.5,"velocity":0.3937007874015748},{"duration":0.1875,"midi":33,"time":484.5,"velocity":0.3937007874015748},{"duration":0.1875,"midi":36,"time":484.5,"velocity":0.3937007874015748},{"duration":0.1875,"midi":39,"time":484.5,"velocity":0.3937007874015748},{"duration":0.1875,"midi":89,"time":484.5,"velocity":0.3937007874015748},{"duration":0.75,"midi":34,"time":484.5,"velocity":0.3937007874015748},{"duration":0.1875,"midi":40,"time":484.5,"velocity":0.3937007874015748},{"duration":0.1875,"midi":77,"time":484.875,"velocity":0.3937007874015748},{"duration":0.1875,"midi":82,"time":484.875,"velocity":0.3937007874015748},{"duration":0.1875,"midi":70,"time":484.875,"velocity":0.3937007874015748},{"duration":0.1875,"midi":73,"time":484.875,"velocity":0.3937007874015748},{"duration":0.1875,"midi":65,"time":484.875,"velocity":0.3937007874015748},{"duration":0.1875,"midi":85,"time":484.875,"velocity":0.3937007874015748},{"duration":0.1875,"midi":58,"time":485.25,"velocity":0.3937007874015748},{"duration":0.1875,"midi":70,"time":485.25,"velocity":0.3937007874015748},{"duration":0.1875,"midi":46,"time":485.25,"velocity":0.3937007874015748},{"duration":0.1875,"midi":64,"time":485.25,"velocity":0.3937007874015748},{"duration":0.1875,"midi":61,"time":485.25,"velocity":0.3937007874015748},{"duration":0.1875,"midi":77,"time":485.25,"velocity":0.3937007874015748},{"duration":0.1875,"midi":53,"time":485.25,"velocity":0.3937007874015748},{"duration":0.1875,"midi":49,"time":485.25,"velocity":0.3937007874015748},{"duration":0.1875,"midi":73,"time":485.25,"velocity":0.3937007874015748},{"duration":0.1875,"midi":65,"time":485.25,"velocity":0.3937007874015748},{"duration":0.1875,"midi":61,"time":485.25,"velocity":0.3937007874015748},{"duration":0.1875,"midi":82,"time":485.25,"velocity":0.3937007874015748},{"duration":0.1875,"midi":65,"time":485.625,"velocity":0.3937007874015748},{"duration":0.1875,"midi":70,"time":485.625,"velocity":0.3937007874015748},{"duration":0.1875,"midi":77,"time":485.625,"velocity":0.3937007874015748},{"duration":0.1875,"midi":73,"time":485.625,"velocity":0.3937007874015748},{"duration":0.1875,"midi":61,"time":485.625,"velocity":0.3937007874015748},{"duration":0.1875,"midi":58,"time":485.625,"velocity":0.3937007874015748},{"duration":0.1875,"midi":28,"time":486,"velocity":0.3937007874015748},{"duration":0.1875,"midi":45,"time":486,"velocity":0.3937007874015748},{"duration":0.1875,"midi":57,"time":486,"velocity":0.3937007874015748},{"duration":0.1875,"midi":63,"time":486,"velocity":0.3937007874015748},{"duration":0.1875,"midi":26,"time":486,"velocity":0.3937007874015748},{"duration":0.1875,"midi":30,"time":486,"velocity":0.3937007874015748},{"duration":0.1875,"midi":27,"time":486,"velocity":0.3937007874015748},{"duration":0.1875,"midi":29,"time":486,"velocity":0.3937007874015748},{"duration":0.1875,"midi":32,"time":486,"velocity":0.3937007874015748},{"duration":0.1875,"midi":24,"time":486,"velocity":0.3937007874015748},{"duration":0.1875,"midi":48,"time":486,"velocity":0.3937007874015748},{"duration":0.1875,"midi":94,"time":486,"velocity":0.3937007874015748},{"duration":0.75,"midi":41,"time":486,"velocity":0.3937007874015748},{"duration":0.1875,"midi":85,"time":486,"velocity":0.3937007874015748},{"duration":0.1875,"midi":90,"time":486,"velocity":0.3937007874015748},{"duration":0.1875,"midi":69,"time":486,"velocity":0.3937007874015748},{"duration":0.1875,"midi":78,"time":486,"velocity":0.3937007874015748},{"duration":0.1875,"midi":51,"time":486,"velocity":0.3937007874015748},{"duration":0.1875,"midi":60,"time":486,"velocity":0.3937007874015748},{"duration":0.1875,"midi":31,"time":486,"velocity":0.3937007874015748},{"duration":0.75,"midi":29,"time":486,"velocity":0.3937007874015748},{"duration":0.1875,"midi":25,"time":486,"velocity":0.3937007874015748},{"duration":0.1875,"midi":82,"time":486,"velocity":0.3937007874015748},{"duration":0.1875,"midi":77,"time":486.375,"velocity":0.3937007874015748},{"duration":0.1875,"midi":82,"time":486.375,"velocity":0.3937007874015748},{"duration":0.1875,"midi":94,"time":486.375,"velocity":0.3937007874015748},{"duration":0.1875,"midi":85,"time":486.375,"velocity":0.3937007874015748},{"duration":0.1875,"midi":89,"time":486.375,"velocity":0.3937007874015748},{"duration":0.1875,"midi":82,"time":486.75,"velocity":0.3937007874015748},{"duration":0.1875,"midi":87,"time":486.75,"velocity":0.3937007874015748},{"duration":0.1875,"midi":75,"time":486.75,"velocity":0.3937007874015748},{"duration":0.1875,"midi":78,"time":486.75,"velocity":0.3937007874015748},{"duration":0.1875,"midi":90,"time":486.75,"velocity":0.3937007874015748},{"duration":0.1875,"midi":94,"time":486.75,"velocity":0.3937007874015748},{"duration":0.1875,"midi":89,"time":487.125,"velocity":0.3937007874015748},{"duration":0.1875,"midi":85,"time":487.125,"velocity":0.3937007874015748},{"duration":0.1875,"midi":94,"time":487.125,"velocity":0.3937007874015748},{"duration":0.1875,"midi":77,"time":487.125,"velocity":0.3937007874015748},{"duration":0.1875,"midi":82,"time":487.125,"velocity":0.3937007874015748},{"duration":0.1875,"midi":73,"time":487.125,"velocity":0.3937007874015748},{"duration":0.1875,"midi":37,"time":487.5,"velocity":0.3937007874015748},{"duration":0.1875,"midi":36,"time":487.5,"velocity":0.3937007874015748},{"duration":0.1875,"midi":78,"time":487.5,"velocity":0.3937007874015748},{"duration":0.1875,"midi":72,"time":487.5,"velocity":0.3937007874015748},{"duration":0.1875,"midi":33,"time":487.5,"velocity":0.3937007874015748},{"duration":0.1875,"midi":34,"time":487.5,"velocity":0.3937007874015748},{"duration":0.1875,"midi":75,"time":487.5,"velocity":0.3937007874015748},{"duration":0.1875,"midi":39,"time":487.5,"velocity":0.3937007874015748},{"duration":0.1875,"midi":41,"time":487.5,"velocity":0.3937007874015748},{"duration":0.1875,"midi":87,"time":487.5,"velocity":0.3937007874015748},{"duration":0.1875,"midi":38,"time":487.5,"velocity":0.3937007874015748},{"duration":0.1875,"midi":40,"time":487.5,"velocity":0.3937007874015748},{"duration":0.1875,"midi":90,"time":487.5,"velocity":0.3937007874015748},{"duration":0.1875,"midi":35,"time":487.5,"velocity":0.3937007874015748},{"duration":0.1875,"midi":84,"time":487.5,"velocity":0.3937007874015748},{"duration":0.1875,"midi":70,"time":487.875,"velocity":0.3937007874015748},{"duration":0.1875,"midi":82,"time":487.875,"velocity":0.3937007874015748},{"duration":0.1875,"midi":89,"time":487.875,"velocity":0.3937007874015748},{"duration":0.1875,"midi":73,"time":487.875,"velocity":0.3937007874015748},{"duration":0.1875,"midi":85,"time":487.875,"velocity":0.3937007874015748},{"duration":0.1875,"midi":77,"time":487.875,"velocity":0.3937007874015748},{"duration":0.75,"midi":29,"time":488.25,"velocity":0.3937007874015748},{"duration":0.1875,"midi":81,"time":488.25,"velocity":0.3937007874015748},{"duration":0.1875,"midi":51,"time":488.25,"velocity":0.3937007874015748},{"duration":0.1875,"midi":77,"time":488.25,"velocity":0.3937007874015748},{"duration":0.1875,"midi":72,"time":488.25,"velocity":0.3937007874015748},{"duration":0.1875,"midi":85,"time":488.25,"velocity":0.3937007874015748},{"duration":0.1875,"midi":48,"time":488.25,"velocity":0.3937007874015748},{"duration":0.1875,"midi":69,"time":488.25,"velocity":0.3937007874015748},{"duration":0.1875,"midi":60,"time":488.25,"velocity":0.3937007874015748},{"duration":0.75,"midi":41,"time":488.25,"velocity":0.3937007874015748},{"duration":0.1875,"midi":45,"time":488.25,"velocity":0.3937007874015748},{"duration":0.1875,"midi":63,"time":488.25,"velocity":0.3937007874015748},{"duration":0.1875,"midi":57,"time":488.25,"velocity":0.3937007874015748},{"duration":0.1875,"midi":89,"time":488.25,"velocity":0.3937007874015748},{"duration":0.1875,"midi":87,"time":488.625,"velocity":0.3937007874015748},{"duration":0.1875,"midi":90,"time":488.625,"velocity":0.3937007874015748},{"duration":0.1875,"midi":78,"time":488.625,"velocity":0.3937007874015748},{"duration":0.1875,"midi":72,"time":488.625,"velocity":0.3937007874015748},{"duration":0.1875,"midi":84,"time":488.625,"velocity":0.3937007874015748},{"duration":0.1875,"midi":75,"time":488.625,"velocity":0.3937007874015748},{"duration":0.1875,"midi":73,"time":489,"velocity":0.3937007874015748},{"duration":0.1875,"midi":30,"time":489,"velocity":0.3937007874015748},{"duration":0.1875,"midi":24,"time":489,"velocity":0.3937007874015748},{"duration":0.1875,"midi":49,"time":489,"velocity":0.3937007874015748},{"duration":0.1875,"midi":53,"time":489,"velocity":0.3937007874015748},{"duration":0.375,"midi":34,"time":489,"velocity":0.3937007874015748},{"duration":0.1875,"midi":70,"time":489,"velocity":0.3937007874015748},{"duration":0.1875,"midi":77,"time":489,"velocity":0.3937007874015748},{"duration":0.375,"midi":46,"time":489,"velocity":0.3937007874015748},{"duration":0.1875,"midi":89,"time":489,"velocity":0.3937007874015748},{"duration":0.1875,"midi":61,"time":489,"velocity":0.3937007874015748},{"duration":0.1875,"midi":58,"time":489,"velocity":0.3937007874015748},{"duration":0.1875,"midi":82,"time":489,"velocity":0.3937007874015748},{"duration":0.1875,"midi":27,"time":489,"velocity":0.3937007874015748},{"duration":0.1875,"midi":29,"time":489,"velocity":0.3937007874015748},{"duration":0.1875,"midi":26,"time":489,"velocity":0.3937007874015748},{"duration":0.1875,"midi":31,"time":489,"velocity":0.3937007874015748},{"duration":0.1875,"midi":28,"time":489,"velocity":0.3937007874015748},{"duration":0.1875,"midi":65,"time":489,"velocity":0.3937007874015748},{"duration":0.1875,"midi":32,"time":489,"velocity":0.3937007874015748},{"duration":0.1875,"midi":85,"time":489,"velocity":0.3937007874015748},{"duration":0.1875,"midi":25,"time":489,"velocity":0.3937007874015748},{"duration":0.1875,"midi":75,"time":492,"velocity":0.3937007874015748},{"duration":0.1875,"midi":73,"time":492.375,"velocity":0.3937007874015748},{"duration":0.1875,"midi":72,"time":492.75,"velocity":0.3937007874015748},{"duration":0.1875,"midi":75,"time":493.125,"velocity":0.3937007874015748},{"duration":0.1875,"midi":73,"time":493.5,"velocity":0.3937007874015748},{"duration":0.1875,"midi":72,"time":493.875,"velocity":0.3937007874015748},{"duration":0.1875,"midi":70,"time":494.25,"velocity":0.3937007874015748},{"duration":0.1875,"midi":73,"time":494.625,"velocity":0.3937007874015748},{"duration":0.1875,"midi":72,"time":495,"velocity":0.3937007874015748},{"duration":0.1875,"midi":70,"time":495.375,"velocity":0.3937007874015748},{"duration":0.1875,"midi":69,"time":495.75,"velocity":0.3937007874015748},{"duration":0.1875,"midi":72,"time":496.125,"velocity":0.3937007874015748},{"duration":0.1875,"midi":70,"time":496.5,"velocity":0.3937007874015748},{"duration":0.1875,"midi":65,"time":496.875,"velocity":0.3937007874015748},{"duration":0.1875,"midi":61,"time":497.25,"velocity":0.3937007874015748},{"duration":0.1875,"midi":58,"time":497.625,"velocity":0.3937007874015748},{"duration":0.1875,"midi":60,"time":498,"velocity":0.3937007874015748},{"duration":0.1875,"midi":75,"time":498,"velocity":0.3937007874015748},{"duration":0.1875,"midi":63,"time":498,"velocity":0.3937007874015748},{"duration":0.75,"midi":36,"time":498,"velocity":0.3937007874015748},{"duration":0.1875,"midi":77,"time":498,"velocity":0.3937007874015748},{"duration":0.1875,"midi":78,"time":498,"velocity":0.3937007874015748},{"duration":0.75,"midi":48,"time":498,"velocity":0.3937007874015748},{"duration":0.1875,"midi":90,"time":498,"velocity":0.3937007874015748},{"duration":0.1875,"midi":54,"time":498,"velocity":0.3937007874015748},{"duration":0.1875,"midi":66,"time":498,"velocity":0.3937007874015748},{"duration":0.1875,"midi":65,"time":498,"velocity":0.3937007874015748},{"duration":0.1875,"midi":72,"time":498,"velocity":0.3937007874015748},{"duration":0.1875,"midi":53,"time":498.375,"velocity":0.3937007874015748},{"duration":0.1875,"midi":77,"time":498.375,"velocity":0.3937007874015748},{"duration":0.1875,"midi":65,"time":498.375,"velocity":0.3937007874015748},{"duration":0.1875,"midi":89,"time":498.375,"velocity":0.3937007874015748},{"duration":0.75,"midi":34,"time":498.75,"velocity":0.3937007874015748},{"duration":0.1875,"midi":63,"time":498.75,"velocity":0.3937007874015748},{"duration":0.1875,"midi":51,"time":498.75,"velocity":0.3937007874015748},{"duration":0.1875,"midi":70,"time":498.75,"velocity":0.3937007874015748},{"duration":0.1875,"midi":77,"time":498.75,"velocity":0.3937007874015748},{"duration":0.1875,"midi":63,"time":498.75,"velocity":0.3937007874015748},{"duration":0.1875,"midi":75,"time":498.75,"velocity":0.3937007874015748},{"duration":0.1875,"midi":75,"time":498.75,"velocity":0.3937007874015748},{"duration":0.1875,"midi":87,"time":498.75,"velocity":0.3937007874015748},{"duration":0.75,"midi":46,"time":498.75,"velocity":0.3937007874015748},{"duration":0.1875,"midi":65,"time":498.75,"velocity":0.3937007874015748},{"duration":0.1875,"midi":61,"time":499.125,"velocity":0.3937007874015748},{"duration":0.1875,"midi":73,"time":499.125,"velocity":0.3937007874015748},{"duration":0.1875,"midi":49,"time":499.125,"velocity":0.3937007874015748},{"duration":0.1875,"midi":85,"time":499.125,"velocity":0.3937007874015748},{"duration":0.1875,"midi":63,"time":499.5,"velocity":0.3937007874015748},{"duration":0.75,"midi":45,"time":499.5,"velocity":0.3937007874015748},{"duration":0.1875,"midi":48,"time":499.5,"velocity":0.3937007874015748},{"duration":0.75,"midi":33,"time":499.5,"velocity":0.3937007874015748},{"duration":0.1875,"midi":77,"time":499.5,"velocity":0.3937007874015748},{"duration":0.1875,"midi":60,"time":499.5,"velocity":0.3937007874015748},{"duration":0.1875,"midi":72,"time":499.5,"velocity":0.3937007874015748},{"duration":0.1875,"midi":57,"time":499.5,"velocity":0.3937007874015748},{"duration":0.1875,"midi":65,"time":499.5,"velocity":0.3937007874015748},{"duration":0.1875,"midi":69,"time":499.5,"velocity":0.3937007874015748},{"duration":0.1875,"midi":84,"time":499.5,"velocity":0.3937007874015748},{"duration":0.1875,"midi":75,"time":499.5,"velocity":0.3937007874015748},{"duration":0.1875,"midi":46,"time":499.875,"velocity":0.3937007874015748},{"duration":0.1875,"midi":58,"time":499.875,"velocity":0.3937007874015748},{"duration":0.1875,"midi":70,"time":499.875,"velocity":0.3937007874015748},{"duration":0.1875,"midi":82,"time":499.875,"velocity":0.3937007874015748},{"duration":0.1875,"midi":60,"time":500.25,"velocity":0.3937007874015748},{"duration":0.5625,"midi":48,"time":500.25,"velocity":0.3937007874015748},{"duration":0.75,"midi":36,"time":500.25,"velocity":0.3937007874015748},{"duration":0.1875,"midi":75,"time":500.25,"velocity":0.3937007874015748},{"duration":0.1875,"midi":81,"time":500.25,"velocity":0.3937007874015748},{"duration":0.1875,"midi":57,"time":500.25,"velocity":0.3937007874015748},{"duration":0.1875,"midi":72,"time":500.25,"velocity":0.3937007874015748},{"duration":0.1875,"midi":77,"time":500.25,"velocity":0.3937007874015748},{"duration":0.1875,"midi":45,"time":500.25,"velocity":0.3937007874015748},{"duration":0.1875,"midi":63,"time":500.25,"velocity":0.3937007874015748},{"duration":0.1875,"midi":69,"time":500.25,"velocity":0.3937007874015748},{"duration":0.1875,"midi":65,"time":500.25,"velocity":0.3937007874015748},{"duration":0.1875,"midi":72,"time":500.625,"velocity":0.3937007874015748},{"duration":0.1875,"midi":84,"time":500.625,"velocity":0.3937007874015748},{"duration":0.375,"midi":48,"time":500.625,"velocity":0.3937007874015748},{"duration":0.1875,"midi":60,"time":500.625,"velocity":0.3937007874015748},{"duration":0.1875,"midi":61,"time":501,"velocity":0.3937007874015748},{"duration":0.1875,"midi":73,"time":501,"velocity":0.3937007874015748},{"duration":0.1875,"midi":77,"time":501,"velocity":0.3937007874015748},{"duration":0.1875,"midi":70,"time":501,"velocity":0.3937007874015748},{"duration":0.1875,"midi":58,"time":501,"velocity":0.3937007874015748},{"duration":0.1875,"midi":70,"time":501,"velocity":0.3937007874015748},{"duration":0.1875,"midi":58,"time":501,"velocity":0.3937007874015748},{"duration":0.75,"midi":34,"time":501,"velocity":0.3937007874015748},{"duration":0.1875,"midi":46,"time":501,"velocity":0.3937007874015748},{"duration":0.75,"midi":46,"time":501,"velocity":0.3937007874015748},{"duration":0.1875,"midi":65,"time":501,"velocity":0.3937007874015748},{"duration":0.1875,"midi":82,"time":501,"velocity":0.3937007874015748}]}]}
