{"tracks":[{"instrument":{"family":"piano","number":0,"name":"acoustic grand piano"},"notes":[{"duration":0.5113635,"midi":69,"time":0,"velocity":0.3937007874015748},{"duration":0.5113635,"midi":76,"time":0,"velocity":0.3937007874015748},{"duration":0.25568175,"midi":45,"time":0.34090899999999996,"velocity":0.3937007874015748},{"duration":0.5113635,"midi":69,"time":0.6818179999999999,"velocity":0.3937007874015748},{"duration":0.5113635,"midi":76,"time":0.6818179999999999,"velocity":0.3937007874015748},{"duration":0.25568174999999993,"midi":45,"time":1.022727,"velocity":0.3937007874015748},{"duration":0.25568174999999993,"midi":45,"time":1.3636359999999998,"velocity":0.3937007874015748},{"duration":0.25568174999999993,"midi":76,"time":1.3636359999999998,"velocity":0.3937007874015748},{"duration":0.25568174999999993,"midi":69,"time":1.3636359999999998,"velocity":0.3937007874015748},{"duration":0.17045449999999995,"midi":45,"time":1.7045449999999998,"velocity":0.3937007874015748},{"duration":0.25568174999999993,"midi":73,"time":1.7045449999999998,"velocity":0.3937007874015748},{"duration":0.08522724999999998,"midi":57,"time":1.8749994999999997,"velocity":0.3937007874015748},{"duration":0.0852272500000002,"midi":45,"time":1.9602267499999997,"velocity":0.3937007874015748},{"duration":0.25568174999999993,"midi":71,"time":2.045454,"velocity":0.3937007874015748},{"duration":0.17045449999999995,"midi":47,"time":2.045454,"velocity":0.3937007874015748},{"duration":0.17045449999999995,"midi":47,"time":2.2159085,"velocity":0.3937007874015748},{"duration":0.17045449999999995,"midi":48,"time":2.386363,"velocity":0.3937007874015748},{"duration":0.25568174999999993,"midi":70,"time":2.386363,"velocity":0.3937007874015748},{"duration":0.17045449999999995,"midi":49,"time":2.5568174999999997,"velocity":0.3937007874015748},{"duration":0.5965907499999998,"midi":69,"time":2.7272719999999997,"velocity":0.3937007874015748},{"duration":0.25568174999999993,"midi":50,"time":2.7272719999999997,"velocity":0.3937007874015748},{"duration":0.17045449999999995,"midi":42,"time":2.7272719999999997,"velocity":0.3937007874015748},{"duration":0.17045449999999995,"midi":55,"time":2.7272719999999997,"velocity":0.3937007874015748},{"duration":0.17045449999999995,"midi":57,"time":2.7272719999999997,"velocity":0.3937007874015748},{"duration":0.08522724999999998,"midi":66,"time":2.8977264999999996,"velocity":0.3937007874015748},{"duration":0.08522724999999998,"midi":62,"time":2.8977264999999996,"velocity":0.3937007874015748},{"duration":0.08522724999999998,"midi":42,"time":2.8977264999999996,"velocity":0.3937007874015748},{"duration":0.08522724999999998,"midi":57,"time":2.8977264999999996,"velocity":0.3937007874015748},{"duration":0.08522724999999998,"midi":42,"time":2.9829537499999996,"velocity":0.3937007874015748},{"duration":0.25568174999999993,"midi":45,"time":3.0681809999999996,"velocity":0.3937007874015748},{"duration":0.17045449999999995,"midi":42,"time":3.0681809999999996,"velocity":0.3937007874015748},{"duration":0.08522724999999998,"midi":62,"time":3.2386354999999996,"velocity":0.3937007874015748},{"duration":0.08522724999999998,"midi":66,"time":3.2386354999999996,"velocity":0.3937007874015748},{"duration":0.08522724999999998,"midi":42,"time":3.2386354999999996,"velocity":0.3937007874015748},{"duration":0.08522724999999998,"midi":57,"time":3.2386354999999996,"velocity":0.3937007874015748},{"duration":0.08522724999999998,"midi":42,"time":3.3238627499999995,"velocity":0.3937007874015748},{"duration":0.25568174999999993,"midi":71,"time":3.4090899999999995,"velocity":0.3937007874015748},{"duration":0.17045449999999995,"midi":42,"time":3.4090899999999995,"velocity":0.3937007874015748},{"duration":0.25568174999999993,"midi":50,"time":3.4090899999999995,"velocity":0.3937007874015748},{"duration":0.08522724999999998,"midi":62,"time":3.5795444999999995,"velocity":0.3937007874015748},{"duration":0.08522724999999998,"midi":57,"time":3.5795444999999995,"velocity":0.3937007874015748},{"duration":0.08522724999999998,"midi":42,"time":3.5795444999999995,"velocity":0.3937007874015748},{"duration":0.08522724999999998,"midi":66,"time":3.5795444999999995,"velocity":0.3937007874015748},{"duration":0.08522724999999998,"midi":42,"time":3.6647717499999994,"velocity":0.3937007874015748},{"duration":0.08522724999999998,"midi":50,"time":3.6647717499999994,"velocity":0.3937007874015748},{"duration":0.17045449999999995,"midi":42,"time":3.7499989999999994,"velocity":0.3937007874015748},{"duration":0.17045449999999995,"midi":47,"time":3.7499989999999994,"velocity":0.3937007874015748},{"duration":0.2556817500000004,"midi":69,"time":3.7499989999999994,"velocity":0.3937007874015748},{"duration":0.08522725000000042,"midi":42,"time":3.9204534999999994,"velocity":0.3937007874015748},{"duration":0.08522725000000042,"midi":62,"time":3.9204534999999994,"velocity":0.3937007874015748},{"duration":0.08522725000000042,"midi":57,"time":3.9204534999999994,"velocity":0.3937007874015748},{"duration":0.1704545000000004,"midi":49,"time":3.9204534999999994,"velocity":0.3937007874015748},{"duration":0.08522725000000042,"midi":66,"time":3.9204534999999994,"velocity":0.3937007874015748},{"duration":0.08522724999999998,"midi":42,"time":4.00568075,"velocity":0.3937007874015748},{"duration":0.17045449999999995,"midi":42,"time":4.090908,"velocity":0.3937007874015748},{"duration":0.25568174999999993,"midi":50,"time":4.090908,"velocity":0.3937007874015748},{"duration":0.25568174999999993,"midi":62,"time":4.090908,"velocity":0.3937007874015748},{"duration":0.08522724999999998,"midi":42,"time":4.2613625,"velocity":0.3937007874015748},{"duration":0.08522724999999998,"midi":66,"time":4.2613625,"velocity":0.3937007874015748},{"duration":0.4261362499999999,"midi":62,"time":4.2613625,"velocity":0.3937007874015748},{"duration":0.17045449999999995,"midi":74,"time":4.2613625,"velocity":0.3937007874015748},{"duration":0.08522724999999998,"midi":57,"time":4.2613625,"velocity":0.3937007874015748},{"duration":0.08522724999999998,"midi":42,"time":4.34658975,"velocity":0.3937007874015748},{"duration":0.17045449999999995,"midi":73,"time":4.431817,"velocity":0.3937007874015748},{"duration":0.25568174999999993,"midi":45,"time":4.431817,"velocity":0.3937007874015748},{"duration":0.17045449999999995,"midi":42,"time":4.431817,"velocity":0.3937007874015748},{"duration":0.08522724999999998,"midi":66,"time":4.6022715,"velocity":0.3937007874015748},{"duration":0.17045449999999995,"midi":74,"time":4.6022715,"velocity":0.3937007874015748},{"duration":0.4261362499999999,"midi":62,"time":4.6022715,"velocity":0.3937007874015748},{"duration":0.08522724999999998,"midi":57,"time":4.6022715,"velocity":0.3937007874015748},{"duration":0.08522724999999998,"midi":42,"time":4.6022715,"velocity":0.3937007874015748},{"duration":0.08522724999999998,"midi":42,"time":4.68749875,"velocity":0.3937007874015748},{"duration":0.17045449999999995,"midi":42,"time":4.772726,"velocity":0.3937007874015748},{"duration":0.25568174999999993,"midi":50,"time":4.772726,"velocity":0.3937007874015748},{"duration":0.3409089999999999,"midi":78,"time":4.772726,"velocity":0.3937007874015748},{"duration":0.08522724999999998,"midi":66,"time":4.9431804999999995,"velocity":0.3937007874015748},{"duration":0.4261362499999999,"midi":62,"time":4.9431804999999995,"velocity":0.3937007874015748},{"duration":0.08522724999999998,"midi":57,"time":4.9431804999999995,"velocity":0.3937007874015748},{"duration":0.08522724999999998,"midi":42,"time":4.9431804999999995,"velocity":0.3937007874015748},{"duration":0.08522724999999998,"midi":50,"time":5.0284077499999995,"velocity":0.3937007874015748},{"duration":0.08522724999999998,"midi":42,"time":5.0284077499999995,"velocity":0.3937007874015748},{"duration":0.17045449999999995,"midi":76,"time":5.1136349999999995,"velocity":0.3937007874015748},{"duration":0.17045449999999995,"midi":42,"time":5.1136349999999995,"velocity":0.3937007874015748},{"duration":0.17045449999999995,"midi":48,"time":5.1136349999999995,"velocity":0.3937007874015748},{"duration":0.08522724999999998,"midi":57,"time":5.284089499999999,"velocity":0.3937007874015748},{"duration":0.17045449999999995,"midi":47,"time":5.284089499999999,"velocity":0.3937007874015748},{"duration":0.08522724999999998,"midi":62,"time":5.284089499999999,"velocity":0.3937007874015748},{"duration":0.08522724999999998,"midi":66,"time":5.284089499999999,"velocity":0.3937007874015748},{"duration":0.17045449999999995,"midi":74,"time":5.284089499999999,"velocity":0.3937007874015748},{"duration":0.08522724999999998,"midi":42,"time":5.284089499999999,"velocity":0.3937007874015748},{"duration":0.08522724999999998,"midi":42,"time":5.369316749999999,"velocity":0.3937007874015748},{"duration":0.25568174999999993,"midi":59,"time":5.454543999999999,"velocity":0.3937007874015748},{"duration":0.25568174999999993,"midi":43,"time":5.454543999999999,"velocity":0.3937007874015748},{"duration":1.2784087499999996,"midi":71,"time":5.454543999999999,"velocity":0.3937007874015748},{"duration":0.17045449999999995,"midi":42,"time":5.454543999999999,"velocity":0.3937007874015748},{"duration":0.08522724999999998,"midi":62,"time":5.624998499999999,"velocity":0.3937007874015748},{"duration":0.08522724999999998,"midi":67,"time":5.624998499999999,"velocity":0.3937007874015748},{"duration":0.4261362499999999,"midi":59,"time":5.624998499999999,"velocity":0.3937007874015748},{"duration":0.08522724999999998,"midi":42,"time":5.624998499999999,"velocity":0.3937007874015748},{"duration":0.08522724999999998,"midi":42,"time":5.710225749999999,"velocity":0.3937007874015748},{"duration":0.17045449999999995,"midi":42,"time":5.795452999999999,"velocity":0.3937007874015748},{"duration":0.25568174999999993,"midi":38,"time":5.795452999999999,"velocity":0.3937007874015748},{"duration":0.08522724999999998,"midi":67,"time":5.965907499999999,"velocity":0.3937007874015748},{"duration":0.08522724999999998,"midi":42,"time":5.965907499999999,"velocity":0.3937007874015748},{"duration":0.08522724999999998,"midi":59,"time":5.965907499999999,"velocity":0.3937007874015748},{"duration":0.08522724999999998,"midi":62,"time":5.965907499999999,"velocity":0.3937007874015748},{"duration":0.08522724999999998,"midi":42,"time":6.051134749999999,"velocity":0.3937007874015748},{"duration":0.25568174999999993,"midi":43,"time":6.136361999999999,"velocity":0.3937007874015748},{"duration":0.17045449999999995,"midi":42,"time":6.136361999999999,"velocity":0.3937007874015748},{"duration":0.25568174999999993,"midi":64,"time":6.136361999999999,"velocity":0.3937007874015748},{"duration":0.08522724999999998,"midi":59,"time":6.306816499999999,"velocity":0.3937007874015748},{"duration":0.08522724999999998,"midi":67,"time":6.306816499999999,"velocity":0.3937007874015748},{"duration":0.08522724999999998,"midi":42,"time":6.306816499999999,"velocity":0.3937007874015748},{"duration":0.08522724999999998,"midi":62,"time":6.306816499999999,"velocity":0.3937007874015748},{"duration":0.08522724999999998,"midi":42,"time":6.392043749999999,"velocity":0.3937007874015748},{"duration":0.17045449999999995,"midi":42,"time":6.477270999999999,"velocity":0.3937007874015748},{"duration":0.25568174999999993,"midi":38,"time":6.477270999999999,"velocity":0.3937007874015748},{"duration":0.25568174999999993,"midi":62,"time":6.477270999999999,"velocity":0.3937007874015748},{"duration":0.08522724999999998,"midi":59,"time":6.647725499999999,"velocity":0.3937007874015748},{"duration":0.08522724999999998,"midi":62,"time":6.647725499999999,"velocity":0.3937007874015748},{"duration":0.08522724999999998,"midi":67,"time":6.647725499999999,"velocity":0.3937007874015748},{"duration":0.08522724999999998,"midi":42,"time":6.647725499999999,"velocity":0.3937007874015748},{"duration":0.08522724999999998,"midi":42,"time":6.732952749999999,"velocity":0.3937007874015748},{"duration":0.25568174999999993,"midi":44,"time":6.818179999999999,"velocity":0.3937007874015748},{"duration":0.25568174999999993,"midi":59,"time":6.818179999999999,"velocity":0.3937007874015748},{"duration":0.17045449999999995,"midi":42,"time":6.818179999999999,"velocity":0.3937007874015748},{"duration":0.08522724999999998,"midi":42,"time":6.988634499999999,"velocity":0.3937007874015748},{"duration":0.08522724999999998,"midi":62,"time":6.988634499999999,"velocity":0.3937007874015748},{"duration":0.4261362499999999,"midi":59,"time":6.988634499999999,"velocity":0.3937007874015748},{"duration":0.17045449999999995,"midi":71,"time":6.988634499999999,"velocity":0.3937007874015748},{"duration":0.08522724999999998,"midi":68,"time":6.988634499999999,"velocity":0.3937007874015748},{"duration":0.08522724999999998,"midi":42,"time":7.073861749999999,"velocity":0.3937007874015748},{"duration":0.17045449999999995,"midi":70,"time":7.159088999999999,"velocity":0.3937007874015748},{"duration":0.17045449999999995,"midi":42,"time":7.159088999999999,"velocity":0.3937007874015748},{"duration":0.25568174999999993,"midi":38,"time":7.159088999999999,"velocity":0.3937007874015748},{"duration":0.08522724999999998,"midi":68,"time":7.329543499999999,"velocity":0.3937007874015748},{"duration":0.08522724999999998,"midi":42,"time":7.329543499999999,"velocity":0.3937007874015748},{"duration":0.17045449999999995,"midi":71,"time":7.329543499999999,"velocity":0.3937007874015748},{"duration":0.4261362499999999,"midi":59,"time":7.329543499999999,"velocity":0.3937007874015748},{"duration":0.08522724999999998,"midi":62,"time":7.329543499999999,"velocity":0.3937007874015748},{"duration":0.08522724999999998,"midi":42,"time":7.414770749999999,"velocity":0.3937007874015748},{"duration":0.25568174999999993,"midi":44,"time":7.499997999999999,"velocity":0.3937007874015748},{"duration":0.3409089999999999,"midi":74,"time":7.499997999999999,"velocity":0.3937007874015748},{"duration":0.17045449999999995,"midi":42,"time":7.499997999999999,"velocity":0.3937007874015748},{"duration":0.08522724999999998,"midi":42,"time":7.670452499999999,"velocity":0.3937007874015748},{"duration":0.08522724999999998,"midi":68,"time":7.670452499999999,"velocity":0.3937007874015748},{"duration":0.08522724999999998,"midi":62,"time":7.670452499999999,"velocity":0.3937007874015748},{"duration":0.4261362499999999,"midi":59,"time":7.670452499999999,"velocity":0.3937007874015748},{"duration":0.08522724999999998,"midi":42,"time":7.755679749999999,"velocity":0.3937007874015748},{"duration":0.25568174999999993,"midi":38,"time":7.840906999999999,"velocity":0.3937007874015748},{"duration":0.17045450000000084,"midi":42,"time":7.840906999999999,"velocity":0.3937007874015748},{"duration":0.17045450000000084,"midi":73,"time":7.840906999999999,"velocity":0.3937007874015748},{"duration":0.08522724999999909,"midi":68,"time":8.0113615,"velocity":0.3937007874015748},{"duration":0.08522724999999909,"midi":59,"time":8.0113615,"velocity":0.3937007874015748},{"duration":0.08522724999999909,"midi":42,"time":8.0113615,"velocity":0.3937007874015748},{"duration":0.08522724999999909,"midi":62,"time":8.0113615,"velocity":0.3937007874015748},{"duration":0.17045449999999995,"midi":71,"time":8.0113615,"velocity":0.3937007874015748},{"duration":0.08522725000000086,"midi":42,"time":8.096588749999999,"velocity":0.3937007874015748},{"duration":0.17045449999999995,"midi":42,"time":8.181816,"velocity":0.3937007874015748},{"duration":0.426136249999999,"midi":57,"time":8.181816,"velocity":0.3937007874015748},{"duration":0.25568174999999904,"midi":42,"time":8.181816,"velocity":0.3937007874015748},{"duration":1.2784087499999988,"midi":69,"time":8.181816,"velocity":0.3937007874015748},{"duration":0.08522724999999909,"midi":64,"time":8.3522705,"velocity":0.3937007874015748},{"duration":0.08522724999999909,"midi":61,"time":8.3522705,"velocity":0.3937007874015748},{"duration":0.08522724999999909,"midi":42,"time":8.3522705,"velocity":0.3937007874015748},{"duration":0.08522724999999909,"midi":67,"time":8.3522705,"velocity":0.3937007874015748},{"duration":0.08522725000000086,"midi":42,"time":8.437497749999999,"velocity":0.3937007874015748},{"duration":0.25568174999999904,"midi":38,"time":8.522725,"velocity":0.3937007874015748},{"duration":0.17045449999999995,"midi":42,"time":8.522725,"velocity":0.3937007874015748},{"duration":0.426136249999999,"midi":57,"time":8.6931795,"velocity":0.3937007874015748},{"duration":0.08522724999999909,"midi":67,"time":8.6931795,"velocity":0.3937007874015748},{"duration":0.08522724999999909,"midi":64,"time":8.6931795,"velocity":0.3937007874015748},{"duration":0.08522724999999909,"midi":42,"time":8.6931795,"velocity":0.3937007874015748},{"duration":0.08522724999999909,"midi":61,"time":8.6931795,"velocity":0.3937007874015748},{"duration":0.08522725000000086,"midi":42,"time":8.778406749999998,"velocity":0.3937007874015748},{"duration":0.17045449999999995,"midi":42,"time":8.863634,"velocity":0.3937007874015748},{"duration":0.25568174999999904,"midi":42,"time":8.863634,"velocity":0.3937007874015748},{"duration":0.08522724999999909,"midi":64,"time":9.0340885,"velocity":0.3937007874015748},{"duration":0.08522724999999909,"midi":67,"time":9.0340885,"velocity":0.3937007874015748},{"duration":0.08522724999999909,"midi":61,"time":9.0340885,"velocity":0.3937007874015748},{"duration":0.08522724999999909,"midi":42,"time":9.0340885,"velocity":0.3937007874015748},{"duration":0.08522725000000086,"midi":42,"time":9.119315749999998,"velocity":0.3937007874015748},{"duration":0.08522725000000086,"midi":42,"time":9.119315749999998,"velocity":0.3937007874015748},{"duration":0.17045449999999995,"midi":45,"time":9.204543,"velocity":0.3937007874015748},{"duration":0.17045449999999995,"midi":42,"time":9.204543,"velocity":0.3937007874015748},{"duration":0.5113634999999999,"midi":69,"time":9.204543,"velocity":0.3937007874015748},{"duration":0.08522724999999909,"midi":64,"time":9.3749975,"velocity":0.3937007874015748},{"duration":0.17045449999999995,"midi":48,"time":9.3749975,"velocity":0.3937007874015748},{"duration":0.08522724999999909,"midi":67,"time":9.3749975,"velocity":0.3937007874015748},{"duration":0.08522724999999909,"midi":61,"time":9.3749975,"velocity":0.3937007874015748},{"duration":0.08522724999999909,"midi":42,"time":9.3749975,"velocity":0.3937007874015748},{"duration":0.08522725000000086,"midi":42,"time":9.460224749999998,"velocity":0.3937007874015748},{"duration":0.17045449999999995,"midi":42,"time":9.545452,"velocity":0.3937007874015748},{"duration":0.25568174999999904,"midi":41,"time":9.545452,"velocity":0.3937007874015748},{"duration":0.426136249999999,"midi":57,"time":9.7159065,"velocity":0.3937007874015748},{"duration":0.08522724999999909,"midi":66,"time":9.7159065,"velocity":0.3937007874015748},{"duration":0.08522724999999909,"midi":60,"time":9.7159065,"velocity":0.3937007874015748},{"duration":0.08522724999999909,"midi":63,"time":9.7159065,"velocity":0.3937007874015748},{"duration":0.08522724999999909,"midi":42,"time":9.7159065,"velocity":0.3937007874015748},{"duration":0.08522725000000086,"midi":42,"time":9.801133749999998,"velocity":0.3937007874015748},{"duration":0.17045449999999995,"midi":42,"time":9.886360999999999,"velocity":0.3937007874015748},{"duration":0.25568174999999904,"midi":36,"time":9.886360999999999,"velocity":0.3937007874015748},{"duration":0.17045449999999995,"midi":69,"time":9.886360999999999,"velocity":0.3937007874015748},{"duration":0.17045449999999995,"midi":68,"time":10.056815499999999,"velocity":0.3937007874015748},{"duration":0.08522724999999909,"midi":42,"time":10.056815499999999,"velocity":0.3937007874015748},{"duration":0.08522724999999909,"midi":60,"time":10.056815499999999,"velocity":0.3937007874015748},{"duration":0.08522724999999909,"midi":63,"time":10.056815499999999,"velocity":0.3937007874015748},{"duration":0.08522724999999909,"midi":66,"time":10.056815499999999,"velocity":0.3937007874015748},{"duration":0.08522725000000086,"midi":42,"time":10.142042749999998,"velocity":0.3937007874015748},{"duration":0.25568174999999904,"midi":41,"time":10.227269999999999,"velocity":0.3937007874015748},{"duration":0.25568174999999904,"midi":57,"time":10.227269999999999,"velocity":0.3937007874015748},{"duration":0.17045449999999995,"midi":69,"time":10.227269999999999,"velocity":0.3937007874015748},{"duration":0.17045449999999995,"midi":42,"time":10.227269999999999,"velocity":0.3937007874015748},{"duration":0.08522724999999909,"midi":66,"time":10.397724499999999,"velocity":0.3937007874015748},{"duration":0.08522724999999909,"midi":63,"time":10.397724499999999,"velocity":0.3937007874015748},{"duration":0.08522724999999909,"midi":42,"time":10.397724499999999,"velocity":0.3937007874015748},{"duration":0.426136249999999,"midi":81,"time":10.397724499999999,"velocity":0.3937007874015748},{"duration":0.08522724999999909,"midi":60,"time":10.397724499999999,"velocity":0.3937007874015748},{"duration":0.08522725000000086,"midi":42,"time":10.482951749999998,"velocity":0.3937007874015748},{"duration":0.08522725000000086,"midi":41,"time":10.482951749999998,"velocity":0.3937007874015748},{"duration":0.25568174999999904,"midi":69,"time":10.568178999999999,"velocity":0.3937007874015748},{"duration":0.17045449999999995,"midi":45,"time":10.568178999999999,"velocity":0.3937007874015748},{"duration":0.17045449999999995,"midi":42,"time":10.568178999999999,"velocity":0.3937007874015748},{"duration":0.08522724999999909,"midi":42,"time":10.738633499999999,"velocity":0.3937007874015748},{"duration":0.08522724999999909,"midi":63,"time":10.738633499999999,"velocity":0.3937007874015748},{"duration":0.08522724999999909,"midi":66,"time":10.738633499999999,"velocity":0.3937007874015748},{"duration":0.17045449999999995,"midi":48,"time":10.738633499999999,"velocity":0.3937007874015748},{"duration":0.08522724999999909,"midi":60,"time":10.738633499999999,"velocity":0.3937007874015748},{"duration":0.08522725000000086,"midi":42,"time":10.823860749999998,"velocity":0.3937007874015748},{"duration":0.42613625000000077,"midi":57,"time":10.909087999999999,"velocity":0.3937007874015748},{"duration":0.17045449999999995,"midi":42,"time":10.909087999999999,"velocity":0.3937007874015748},{"duration":0.2556817500000008,"midi":40,"time":10.909087999999999,"velocity":0.3937007874015748},{"duration":0.08522725000000086,"midi":59,"time":11.079542499999999,"velocity":0.3937007874015748},{"duration":0.08522725000000086,"midi":42,"time":11.079542499999999,"velocity":0.3937007874015748},{"duration":0.08522725000000086,"midi":67,"time":11.079542499999999,"velocity":0.3937007874015748},{"duration":0.08522725000000086,"midi":62,"time":11.079542499999999,"velocity":0.3937007874015748},{"duration":0.08522724999999909,"midi":42,"time":11.16476975,"velocity":0.3937007874015748},{"duration":0.17045449999999995,"midi":69,"time":11.249996999999999,"velocity":0.3937007874015748},{"duration":0.2556817500000008,"midi":35,"time":11.249996999999999,"velocity":0.3937007874015748},{"duration":0.17045449999999995,"midi":42,"time":11.249996999999999,"velocity":0.3937007874015748},{"duration":0.08522725000000086,"midi":62,"time":11.420451499999999,"velocity":0.3937007874015748},{"duration":0.08522725000000086,"midi":42,"time":11.420451499999999,"velocity":0.3937007874015748},{"duration":0.08522725000000086,"midi":67,"time":11.420451499999999,"velocity":0.3937007874015748},{"duration":0.17045449999999995,"midi":68,"time":11.420451499999999,"velocity":0.3937007874015748},{"duration":0.42613625000000077,"midi":57,"time":11.420451499999999,"velocity":0.3937007874015748},{"duration":0.08522725000000086,"midi":59,"time":11.420451499999999,"velocity":0.3937007874015748},{"duration":0.08522724999999909,"midi":42,"time":11.50567875,"velocity":0.3937007874015748},{"duration":0.2556817500000008,"midi":40,"time":11.590905999999999,"velocity":0.3937007874015748},{"duration":0.17045449999999995,"midi":42,"time":11.590905999999999,"velocity":0.3937007874015748},{"duration":0.17045449999999995,"midi":69,"time":11.590905999999999,"velocity":0.3937007874015748},{"duration":0.42613625000000077,"midi":81,"time":11.761360499999999,"velocity":0.3937007874015748},{"duration":0.08522725000000086,"midi":67,"time":11.761360499999999,"velocity":0.3937007874015748},{"duration":0.08522725000000086,"midi":59,"time":11.761360499999999,"velocity":0.3937007874015748},{"duration":0.08522725000000086,"midi":62,"time":11.761360499999999,"velocity":0.3937007874015748},{"duration":0.08522725000000086,"midi":42,"time":11.761360499999999,"velocity":0.3937007874015748},{"duration":0.08522724999999909,"midi":40,"time":11.84658775,"velocity":0.3937007874015748},{"duration":0.08522724999999909,"midi":42,"time":11.84658775,"velocity":0.3937007874015748},{"duration":0.17045449999999995,"midi":42,"time":11.931814999999999,"velocity":0.3937007874015748},{"duration":0.17045449999999995,"midi":42,"time":11.931814999999999,"velocity":0.3937007874015748},{"duration":0.2556817500000008,"midi":69,"time":11.931814999999999,"velocity":0.3937007874015748},{"duration":0.17045449999999995,"midi":43,"time":12.102269499999998,"velocity":0.3937007874015748},{"duration":0.08522725000000086,"midi":62,"time":12.102269499999998,"velocity":0.3937007874015748},{"duration":0.08522725000000086,"midi":42,"time":12.102269499999998,"velocity":0.3937007874015748},{"duration":0.08522725000000086,"midi":67,"time":12.102269499999998,"velocity":0.3937007874015748},{"duration":0.08522725000000086,"midi":59,"time":12.102269499999998,"velocity":0.3937007874015748},{"duration":0.08522724999999909,"midi":42,"time":12.18749675,"velocity":0.3937007874015748},{"duration":1.2784087500000005,"midi":76,"time":12.272723999999998,"velocity":0.3937007874015748},{"duration":0.2556817500000008,"midi":64,"time":12.272723999999998,"velocity":0.3937007874015748},{"duration":0.17045449999999995,"midi":42,"time":12.272723999999998,"velocity":0.3937007874015748},{"duration":0.2556817500000008,"midi":45,"time":12.272723999999998,"velocity":0.3937007874015748},{"duration":0.08522725000000086,"midi":67,"time":12.443178499999998,"velocity":0.3937007874015748},{"duration":0.08522725000000086,"midi":42,"time":12.443178499999998,"velocity":0.3937007874015748},{"duration":0.42613625000000077,"midi":64,"time":12.443178499999998,"velocity":0.3937007874015748},{"duration":0.08522725000000086,"midi":61,"time":12.443178499999998,"velocity":0.3937007874015748},{"duration":0.08522724999999909,"midi":42,"time":12.52840575,"velocity":0.3937007874015748},{"duration":0.2556817500000008,"midi":40,"time":12.613632999999998,"velocity":0.3937007874015748},{"duration":0.17045449999999995,"midi":42,"time":12.613632999999998,"velocity":0.3937007874015748},{"duration":0.08522725000000086,"midi":42,"time":12.784087499999998,"velocity":0.3937007874015748},{"duration":0.08522725000000086,"midi":61,"time":12.784087499999998,"velocity":0.3937007874015748},{"duration":0.08522725000000086,"midi":67,"time":12.784087499999998,"velocity":0.3937007874015748},{"duration":0.42613625000000077,"midi":64,"time":12.784087499999998,"velocity":0.3937007874015748},{"duration":0.08522724999999909,"midi":42,"time":12.86931475,"velocity":0.3937007874015748},{"duration":0.17045449999999995,"midi":42,"time":12.954541999999998,"velocity":0.3937007874015748},{"duration":0.2556817500000008,"midi":45,"time":12.954541999999998,"velocity":0.3937007874015748},{"duration":0.08522725000000086,"midi":42,"time":13.124996499999998,"velocity":0.3937007874015748},{"duration":0.42613625000000077,"midi":64,"time":13.124996499999998,"velocity":0.3937007874015748},{"duration":0.08522725000000086,"midi":67,"time":13.124996499999998,"velocity":0.3937007874015748},{"duration":0.08522725000000086,"midi":61,"time":13.124996499999998,"velocity":0.3937007874015748},{"duration":0.08522724999999909,"midi":42,"time":13.210223749999999,"velocity":0.3937007874015748},{"duration":0.17045449999999995,"midi":42,"time":13.295450999999998,"velocity":0.3937007874015748},{"duration":0.17045449999999995,"midi":47,"time":13.295450999999998,"velocity":0.3937007874015748},{"duration":0.08522725000000086,"midi":61,"time":13.465905499999998,"velocity":0.3937007874015748},{"duration":0.08522725000000086,"midi":67,"time":13.465905499999998,"velocity":0.3937007874015748},{"duration":0.08522725000000086,"midi":64,"time":13.465905499999998,"velocity":0.3937007874015748},{"duration":0.17045449999999995,"midi":49,"time":13.465905499999998,"velocity":0.3937007874015748},{"duration":0.08522725000000086,"midi":42,"time":13.465905499999998,"velocity":0.3937007874015748},{"duration":0.08522724999999909,"midi":42,"time":13.551132749999999,"velocity":0.3937007874015748},{"duration":1.2784087500000005,"midi":74,"time":13.636359999999998,"velocity":0.3937007874015748},{"duration":0.17045449999999995,"midi":42,"time":13.636359999999998,"velocity":0.3937007874015748},{"duration":0.2556817500000008,"midi":66,"time":13.636359999999998,"velocity":0.3937007874015748},{"duration":0.17045449999999995,"midi":57,"time":13.636359999999998,"velocity":0.3937007874015748},{"duration":0.17045449999999995,"midi":55,"time":13.636359999999998,"velocity":0.3937007874015748},{"duration":0.2556817500000008,"midi":50,"time":13.636359999999998,"velocity":0.3937007874015748},{"duration":0.08522725000000086,"midi":57,"time":13.806814499999998,"velocity":0.3937007874015748},{"duration":0.42613625000000077,"midi":66,"time":13.806814499999998,"velocity":0.3937007874015748},{"duration":0.08522725000000086,"midi":62,"time":13.806814499999998,"velocity":0.3937007874015748},{"duration":0.08522725000000086,"midi":42,"time":13.806814499999998,"velocity":0.3937007874015748},{"duration":0.08522724999999909,"midi":42,"time":13.892041749999999,"velocity":0.3937007874015748},{"duration":0.17045449999999995,"midi":42,"time":13.977268999999998,"velocity":0.3937007874015748},{"duration":0.2556817500000008,"midi":45,"time":13.977268999999998,"velocity":0.3937007874015748},{"duration":0.08522725000000086,"midi":42,"time":14.147723499999998,"velocity":0.3937007874015748},{"duration":0.08522725000000086,"midi":57,"time":14.147723499999998,"velocity":0.3937007874015748},{"duration":0.08522725000000086,"midi":66,"time":14.147723499999998,"velocity":0.3937007874015748},{"duration":0.08522725000000086,"midi":62,"time":14.147723499999998,"velocity":0.3937007874015748},{"duration":0.08522724999999909,"midi":42,"time":14.232950749999999,"velocity":0.3937007874015748},{"duration":0.2556817500000008,"midi":71,"time":14.318177999999998,"velocity":0.3937007874015748},{"duration":0.2556817500000008,"midi":50,"time":14.318177999999998,"velocity":0.3937007874015748},{"duration":0.17045449999999995,"midi":42,"time":14.318177999999998,"velocity":0.3937007874015748},{"duration":0.08522725000000086,"midi":66,"time":14.488632499999998,"velocity":0.3937007874015748},{"duration":0.08522725000000086,"midi":42,"time":14.488632499999998,"velocity":0.3937007874015748},{"duration":0.08522725000000086,"midi":62,"time":14.488632499999998,"velocity":0.3937007874015748},{"duration":0.08522725000000086,"midi":57,"time":14.488632499999998,"velocity":0.3937007874015748},{"duration":0.08522724999999909,"midi":42,"time":14.573859749999999,"velocity":0.3937007874015748},{"duration":0.08522724999999909,"midi":50,"time":14.573859749999999,"velocity":0.3937007874015748},{"duration":0.17045449999999995,"midi":42,"time":14.659086999999998,"velocity":0.3937007874015748},{"duration":0.2556817500000008,"midi":69,"time":14.659086999999998,"velocity":0.3937007874015748},{"duration":0.17045449999999995,"midi":42,"time":14.659086999999998,"velocity":0.3937007874015748},{"duration":0.08522725000000086,"midi":66,"time":14.829541499999998,"velocity":0.3937007874015748},{"duration":0.08522725000000086,"midi":42,"time":14.829541499999998,"velocity":0.3937007874015748},{"duration":0.08522725000000086,"midi":62,"time":14.829541499999998,"velocity":0.3937007874015748},{"duration":0.08522725000000086,"midi":57,"time":14.829541499999998,"velocity":0.3937007874015748},{"duration":0.17045449999999995,"midi":45,"time":14.829541499999998,"velocity":0.3937007874015748},{"duration":0.08522724999999909,"midi":42,"time":14.914768749999999,"velocity":0.3937007874015748},{"duration":0.17045449999999995,"midi":42,"time":14.999995999999998,"velocity":0.3937007874015748},{"duration":1.2784087499999988,"midi":72,"time":14.999995999999998,"velocity":0.3937007874015748},{"duration":0.2556817500000008,"midi":51,"time":14.999995999999998,"velocity":0.3937007874015748},{"duration":0.17045449999999995,"midi":74,"time":15.170450499999998,"velocity":0.3937007874015748},{"duration":0.08522725000000086,"midi":66,"time":15.170450499999998,"velocity":0.3937007874015748},{"duration":0.08522725000000086,"midi":42,"time":15.170450499999998,"velocity":0.3937007874015748},{"duration":0.08522725000000086,"midi":62,"time":15.170450499999998,"velocity":0.3937007874015748},{"duration":0.08522725000000086,"midi":57,"time":15.170450499999998,"velocity":0.3937007874015748},{"duration":0.08522724999999909,"midi":42,"time":15.255677749999998,"velocity":0.3937007874015748},{"duration":0.17045449999999995,"midi":42,"time":15.340904999999998,"velocity":0.3937007874015748},{"duration":0.17045449999999995,"midi":76,"time":15.340904999999998,"velocity":0.3937007874015748},{"duration":0.2556817500000008,"midi":45,"time":15.340904999999998,"velocity":0.3937007874015748},{"duration":0.08522725000000086,"midi":42,"time":15.511359499999998,"velocity":0.3937007874015748},{"duration":0.42613625000000077,"midi":78,"time":15.511359499999998,"velocity":0.3937007874015748},{"duration":0.08522725000000086,"midi":66,"time":15.511359499999998,"velocity":0.3937007874015748},{"duration":0.08522725000000086,"midi":57,"time":15.511359499999998,"velocity":0.3937007874015748},{"duration":0.08522725000000086,"midi":62,"time":15.511359499999998,"velocity":0.3937007874015748},{"duration":0.08522724999999909,"midi":42,"time":15.596586749999998,"velocity":0.3937007874015748},{"duration":0.17045449999999995,"midi":42,"time":15.681813999999997,"velocity":0.3937007874015748},{"duration":0.2556817500000008,"midi":51,"time":15.681813999999997,"velocity":0.3937007874015748},{"duration":0.08522725000000086,"midi":62,"time":15.852268499999997,"velocity":0.3937007874015748},{"duration":0.08522725000000086,"midi":66,"time":15.852268499999997,"velocity":0.3937007874015748},{"duration":0.08522725000000086,"midi":42,"time":15.852268499999997,"velocity":0.3937007874015748},{"duration":0.08522725000000086,"midi":57,"time":15.852268499999997,"velocity":0.3937007874015748},{"duration":0.08522725000000086,"midi":42,"time":15.937495749999998,"velocity":0.3937007874015748},{"duration":0.25568174999999727,"midi":45,"time":16.022723,"velocity":0.3937007874015748},{"duration":0.17045449999999818,"midi":42,"time":16.022723,"velocity":0.3937007874015748},{"duration":0.17045449999999818,"midi":76,"time":16.022723,"velocity":0.3937007874015748},{"duration":0.08522724999999909,"midi":66,"time":16.193177499999997,"velocity":0.3937007874015748},{"duration":0.08522724999999909,"midi":42,"time":16.193177499999997,"velocity":0.3937007874015748},{"duration":0.08522724999999909,"midi":57,"time":16.193177499999997,"velocity":0.3937007874015748},{"duration":0.17045450000000173,"midi":74,"time":16.193177499999997,"velocity":0.3937007874015748},{"duration":0.08522724999999909,"midi":62,"time":16.193177499999997,"velocity":0.3937007874015748},{"duration":0.08522725000000264,"midi":42,"time":16.278404749999996,"velocity":0.3937007874015748},{"duration":0.2556817500000008,"midi":71,"time":16.363632,"velocity":0.3937007874015748},{"duration":0.2556817500000008,"midi":52,"time":16.363632,"velocity":0.3937007874015748},{"duration":0.17045449999999818,"midi":42,"time":16.363632,"velocity":0.3937007874015748},{"duration":0.5965907500000007,"midi":71,"time":16.363632,"velocity":0.3937007874015748},{"duration":0.08522725000000264,"midi":67,"time":16.534086499999997,"velocity":0.3937007874015748},{"duration":0.08522725000000264,"midi":59,"time":16.534086499999997,"velocity":0.3937007874015748},{"duration":0.08522725000000264,"midi":62,"time":16.534086499999997,"velocity":0.3937007874015748},{"duration":0.08522725000000264,"midi":42,"time":16.534086499999997,"velocity":0.3937007874015748},{"duration":0.08522724999999909,"midi":42,"time":16.61931375,"velocity":0.3937007874015748},{"duration":0.17045449999999818,"midi":42,"time":16.704541,"velocity":0.3937007874015748},{"duration":0.9374997500000006,"midi":71,"time":16.704541,"velocity":0.3937007874015748},{"duration":0.2556817500000008,"midi":47,"time":16.704541,"velocity":0.3937007874015748},{"duration":0.08522725000000264,"midi":59,"time":16.874995499999997,"velocity":0.3937007874015748},{"duration":0.08522725000000264,"midi":42,"time":16.874995499999997,"velocity":0.3937007874015748},{"duration":0.08522725000000264,"midi":67,"time":16.874995499999997,"velocity":0.3937007874015748},{"duration":0.08522725000000264,"midi":62,"time":16.874995499999997,"velocity":0.3937007874015748},{"duration":0.08522724999999909,"midi":42,"time":16.96022275,"velocity":0.3937007874015748},{"duration":0.2556817500000008,"midi":76,"time":17.04545,"velocity":0.3937007874015748},{"duration":0.17045449999999818,"midi":42,"time":17.04545,"velocity":0.3937007874015748},{"duration":0.2556817500000008,"midi":52,"time":17.04545,"velocity":0.3937007874015748},{"duration":0.08522725000000264,"midi":42,"time":17.215904499999997,"velocity":0.3937007874015748},{"duration":0.08522725000000264,"midi":59,"time":17.215904499999997,"velocity":0.3937007874015748},{"duration":0.08522725000000264,"midi":67,"time":17.215904499999997,"velocity":0.3937007874015748},{"duration":0.08522725000000264,"midi":62,"time":17.215904499999997,"velocity":0.3937007874015748},{"duration":0.08522724999999909,"midi":42,"time":17.30113175,"velocity":0.3937007874015748},{"duration":0.2556817500000008,"midi":74,"time":17.386359,"velocity":0.3937007874015748},{"duration":0.2556817500000008,"midi":47,"time":17.386359,"velocity":0.3937007874015748},{"duration":0.17045449999999818,"midi":42,"time":17.386359,"velocity":0.3937007874015748},{"duration":0.08522725000000264,"midi":42,"time":17.556813499999997,"velocity":0.3937007874015748},{"duration":0.08522725000000264,"midi":67,"time":17.556813499999997,"velocity":0.3937007874015748},{"duration":0.08522725000000264,"midi":62,"time":17.556813499999997,"velocity":0.3937007874015748},{"duration":0.08522725000000264,"midi":59,"time":17.556813499999997,"velocity":0.3937007874015748},{"duration":0.08522724999999909,"midi":42,"time":17.64204075,"velocity":0.3937007874015748},{"duration":0.2556817500000008,"midi":53,"time":17.727268,"velocity":0.3937007874015748},{"duration":0.17045449999999818,"midi":42,"time":17.727268,"velocity":0.3937007874015748},{"duration":0.3409089999999999,"midi":71,"time":17.727268,"velocity":0.3937007874015748},{"duration":1.1079542500000024,"midi":71,"time":17.897722499999997,"velocity":0.3937007874015748},{"duration":0.08522725000000264,"midi":42,"time":17.897722499999997,"velocity":0.3937007874015748},{"duration":0.08522725000000264,"midi":68,"time":17.897722499999997,"velocity":0.3937007874015748},{"duration":0.08522725000000264,"midi":62,"time":17.897722499999997,"velocity":0.3937007874015748},{"duration":0.08522725000000264,"midi":59,"time":17.897722499999997,"velocity":0.3937007874015748},{"duration":0.08522724999999909,"midi":42,"time":17.98294975,"velocity":0.3937007874015748},{"duration":0.17045449999999818,"midi":73,"time":18.068177,"velocity":0.3937007874015748},{"duration":0.2556817500000008,"midi":47,"time":18.068177,"velocity":0.3937007874015748},{"duration":0.17045449999999818,"midi":42,"time":18.068177,"velocity":0.3937007874015748},{"duration":0.42613625000000255,"midi":74,"time":18.238631499999997,"velocity":0.3937007874015748},{"duration":0.08522725000000264,"midi":42,"time":18.238631499999997,"velocity":0.3937007874015748},{"duration":0.08522725000000264,"midi":68,"time":18.238631499999997,"velocity":0.3937007874015748},{"duration":0.08522725000000264,"midi":59,"time":18.238631499999997,"velocity":0.3937007874015748},{"duration":0.08522725000000264,"midi":62,"time":18.238631499999997,"velocity":0.3937007874015748},{"duration":0.08522724999999909,"midi":42,"time":18.32385875,"velocity":0.3937007874015748},{"duration":0.2556817500000008,"midi":53,"time":18.409086,"velocity":0.3937007874015748},{"duration":0.17045449999999818,"midi":42,"time":18.409086,"velocity":0.3937007874015748},{"duration":0.08522725000000264,"midi":42,"time":18.579540499999997,"velocity":0.3937007874015748},{"duration":0.08522725000000264,"midi":59,"time":18.579540499999997,"velocity":0.3937007874015748},{"duration":0.08522725000000264,"midi":68,"time":18.579540499999997,"velocity":0.3937007874015748},{"duration":0.08522725000000264,"midi":62,"time":18.579540499999997,"velocity":0.3937007874015748},{"duration":0.08522724999999909,"midi":42,"time":18.66476775,"velocity":0.3937007874015748},{"duration":0.17045449999999818,"midi":73,"time":18.749995,"velocity":0.3937007874015748},{"duration":0.2556817500000008,"midi":47,"time":18.749995,"velocity":0.3937007874015748},{"duration":0.17045449999999818,"midi":42,"time":18.749995,"velocity":0.3937007874015748},{"duration":0.17045450000000173,"midi":71,"time":18.920449499999997,"velocity":0.3937007874015748},{"duration":0.08522725000000264,"midi":59,"time":18.920449499999997,"velocity":0.3937007874015748},{"duration":0.08522725000000264,"midi":62,"time":18.920449499999997,"velocity":0.3937007874015748},{"duration":0.08522725000000264,"midi":42,"time":18.920449499999997,"velocity":0.3937007874015748},{"duration":0.08522725000000264,"midi":68,"time":18.920449499999997,"velocity":0.3937007874015748},{"duration":0.08522724999999909,"midi":42,"time":19.00567675,"velocity":0.3937007874015748},{"duration":0.2556817500000008,"midi":54,"time":19.090904,"velocity":0.3937007874015748},{"duration":0.2556817500000008,"midi":69,"time":19.090904,"velocity":0.3937007874015748},{"duration":0.17045449999999818,"midi":42,"time":19.090904,"velocity":0.3937007874015748},{"duration":0.426136249999999,"midi":69,"time":19.090904,"velocity":0.3937007874015748},{"duration":0.42613625000000255,"midi":69,"time":19.261358499999996,"velocity":0.3937007874015748},{"duration":0.08522725000000264,"midi":42,"time":19.261358499999996,"velocity":0.3937007874015748},{"duration":0.08522725000000264,"midi":64,"time":19.261358499999996,"velocity":0.3937007874015748},{"duration":0.08522725000000264,"midi":61,"time":19.261358499999996,"velocity":0.3937007874015748},{"duration":0.08522724999999909,"midi":42,"time":19.34658575,"velocity":0.3937007874015748},{"duration":0.17045449999999818,"midi":42,"time":19.431813,"velocity":0.3937007874015748},{"duration":0.2556817500000008,"midi":54,"time":19.431813,"velocity":0.3937007874015748},{"duration":0.42613625000000255,"midi":69,"time":19.602267499999996,"velocity":0.3937007874015748},{"duration":0.42613625000000255,"midi":69,"time":19.602267499999996,"velocity":0.3937007874015748},{"duration":0.08522725000000264,"midi":61,"time":19.602267499999996,"velocity":0.3937007874015748},{"duration":0.08522725000000264,"midi":42,"time":19.602267499999996,"velocity":0.3937007874015748},{"duration":0.08522725000000264,"midi":64,"time":19.602267499999996,"velocity":0.3937007874015748},{"duration":0.08522724999999909,"midi":42,"time":19.68749475,"velocity":0.3937007874015748},{"duration":0.17045449999999818,"midi":42,"time":19.772721999999998,"velocity":0.3937007874015748},{"duration":0.2556817500000008,"midi":53,"time":19.772721999999998,"velocity":0.3937007874015748},{"duration":0.08522725000000264,"midi":60,"time":19.943176499999996,"velocity":0.3937007874015748},{"duration":0.08522725000000264,"midi":65,"time":19.943176499999996,"velocity":0.3937007874015748},{"duration":0.08522725000000264,"midi":42,"time":19.943176499999996,"velocity":0.3937007874015748},{"duration":0.42613625000000255,"midi":69,"time":19.943176499999996,"velocity":0.3937007874015748},{"duration":0.08522724999999909,"midi":42,"time":20.02840375,"velocity":0.3937007874015748},{"duration":0.2556817500000008,"midi":53,"time":20.113630999999998,"velocity":0.3937007874015748},{"duration":0.5113634999999981,"midi":57,"time":20.113630999999998,"velocity":0.3937007874015748},{"duration":0.17045449999999818,"midi":42,"time":20.113630999999998,"velocity":0.3937007874015748},{"duration":0.08522725000000264,"midi":69,"time":20.284085499999996,"velocity":0.3937007874015748},{"duration":0.08522725000000264,"midi":42,"time":20.284085499999996,"velocity":0.3937007874015748},{"duration":0.08522725000000264,"midi":60,"time":20.284085499999996,"velocity":0.3937007874015748},{"duration":0.08522725000000264,"midi":65,"time":20.284085499999996,"velocity":0.3937007874015748},{"duration":0.08522724999999909,"midi":42,"time":20.36931275,"velocity":0.3937007874015748},{"duration":0.17045449999999818,"midi":42,"time":20.454539999999998,"velocity":0.3937007874015748},{"duration":0.5965907500000007,"midi":81,"time":20.454539999999998,"velocity":0.3937007874015748},{"duration":0.2556817500000008,"midi":52,"time":20.454539999999998,"velocity":0.3937007874015748},{"duration":0.08522725000000264,"midi":59,"time":20.624994499999996,"velocity":0.3937007874015748},{"duration":0.42613625000000255,"midi":69,"time":20.624994499999996,"velocity":0.3937007874015748},{"duration":0.08522725000000264,"midi":42,"time":20.624994499999996,"velocity":0.3937007874015748},{"duration":0.08522725000000264,"midi":64,"time":20.624994499999996,"velocity":0.3937007874015748},{"duration":0.08522725000000264,"midi":61,"time":20.624994499999996,"velocity":0.3937007874015748},{"duration":0.08522725000000264,"midi":67,"time":20.624994499999996,"velocity":0.3937007874015748},{"duration":0.08522724999999909,"midi":42,"time":20.71022175,"velocity":0.3937007874015748},{"duration":0.17045449999999818,"midi":42,"time":20.795448999999998,"velocity":0.3937007874015748},{"duration":0.2556817500000008,"midi":52,"time":20.795448999999998,"velocity":0.3937007874015748},{"duration":0.08522725000000264,"midi":61,"time":20.965903499999996,"velocity":0.3937007874015748},{"duration":0.08522725000000264,"midi":67,"time":20.965903499999996,"velocity":0.3937007874015748},{"duration":0.08522725000000264,"midi":42,"time":20.965903499999996,"velocity":0.3937007874015748},{"duration":0.08522725000000264,"midi":64,"time":20.965903499999996,"velocity":0.3937007874015748},{"duration":0.08522725000000264,"midi":59,"time":20.965903499999996,"velocity":0.3937007874015748},{"duration":0.08522724999999909,"midi":42,"time":21.05113075,"velocity":0.3937007874015748},{"duration":0.2556817500000008,"midi":51,"time":21.136357999999998,"velocity":0.3937007874015748},{"duration":0.17045449999999818,"midi":42,"time":21.136357999999998,"velocity":0.3937007874015748},{"duration":0.2556817500000008,"midi":57,"time":21.136357999999998,"velocity":0.3937007874015748},{"duration":0.5965907500000007,"midi":73,"time":21.136357999999998,"velocity":0.3937007874015748},{"duration":0.08522725000000264,"midi":64,"time":21.306812499999996,"velocity":0.3937007874015748},{"duration":0.08522725000000264,"midi":58,"time":21.306812499999996,"velocity":0.3937007874015748},{"duration":0.08522725000000264,"midi":61,"time":21.306812499999996,"velocity":0.3937007874015748},{"duration":0.08522725000000264,"midi":67,"time":21.306812499999996,"velocity":0.3937007874015748},{"duration":0.08522725000000264,"midi":42,"time":21.306812499999996,"velocity":0.3937007874015748},{"duration":0.08522724999999909,"midi":42,"time":21.39203975,"velocity":0.3937007874015748},{"duration":0.17045449999999818,"midi":42,"time":21.477266999999998,"velocity":0.3937007874015748},{"duration":0.2556817500000008,"midi":64,"time":21.477266999999998,"velocity":0.3937007874015748},{"duration":0.2556817500000008,"midi":51,"time":21.477266999999998,"velocity":0.3937007874015748},{"duration":0.08522725000000264,"midi":42,"time":21.647721499999996,"velocity":0.3937007874015748},{"duration":0.08522725000000264,"midi":61,"time":21.647721499999996,"velocity":0.3937007874015748},{"duration":0.08522725000000264,"midi":58,"time":21.647721499999996,"velocity":0.3937007874015748},{"duration":0.08522725000000264,"midi":67,"time":21.647721499999996,"velocity":0.3937007874015748},{"duration":0.08522725000000264,"midi":64,"time":21.647721499999996,"velocity":0.3937007874015748},{"duration":0.08522724999999909,"midi":42,"time":21.73294875,"velocity":0.3937007874015748},{"duration":0.08522724999999909,"midi":57,"time":21.818175999999998,"velocity":0.3937007874015748},{"duration":0.17045450000000173,"midi":42,"time":21.818175999999998,"velocity":0.3937007874015748},{"duration":0.08522724999999909,"midi":66,"time":21.818175999999998,"velocity":0.3937007874015748},{"duration":0.08522724999999909,"midi":62,"time":21.818175999999998,"velocity":0.3937007874015748},{"duration":1.9602267500000004,"midi":74,"time":21.818175999999998,"velocity":0.3937007874015748},{"duration":0.426136249999999,"midi":62,"time":21.818175999999998,"velocity":0.3937007874015748},{"duration":0.2556817500000008,"midi":50,"time":21.818175999999998,"velocity":0.3937007874015748},{"duration":0.08522724999999909,"midi":42,"time":21.9886305,"velocity":0.3937007874015748},{"duration":0.08522724999999909,"midi":42,"time":22.07385775,"velocity":0.3937007874015748},{"duration":0.5965907500000007,"midi":62,"time":22.159084999999997,"velocity":0.3937007874015748},{"duration":0.08522724999999909,"midi":57,"time":22.159084999999997,"velocity":0.3937007874015748},{"duration":0.17045450000000173,"midi":42,"time":22.159084999999997,"velocity":0.3937007874015748},{"duration":0.08522724999999909,"midi":66,"time":22.159084999999997,"velocity":0.3937007874015748},{"duration":0.2556817500000008,"midi":50,"time":22.159084999999997,"velocity":0.3937007874015748},{"duration":0.08522724999999909,"midi":42,"time":22.3295395,"velocity":0.3937007874015748},{"duration":0.08522724999999909,"midi":42,"time":22.41476675,"velocity":0.3937007874015748},{"duration":0.2556817500000008,"midi":47,"time":22.499993999999997,"velocity":0.3937007874015748},{"duration":0.17045450000000173,"midi":42,"time":22.499993999999997,"velocity":0.3937007874015748},{"duration":0.08522724999999909,"midi":42,"time":22.6704485,"velocity":0.3937007874015748},{"duration":0.08522724999999909,"midi":66,"time":22.6704485,"velocity":0.3937007874015748},{"duration":0.08522724999999909,"midi":57,"time":22.6704485,"velocity":0.3937007874015748},{"duration":0.426136249999999,"midi":62,"time":22.6704485,"velocity":0.3937007874015748},{"duration":0.08522724999999909,"midi":42,"time":22.755675749999998,"velocity":0.3937007874015748},{"duration":0.17045450000000173,"midi":42,"time":22.840902999999997,"velocity":0.3937007874015748},{"duration":0.2556817500000008,"midi":47,"time":22.840902999999997,"velocity":0.3937007874015748},{"duration":0.08522724999999909,"midi":57,"time":23.0113575,"velocity":0.3937007874015748},{"duration":0.08522724999999909,"midi":42,"time":23.0113575,"velocity":0.3937007874015748},{"duration":0.7670452499999989,"midi":62,"time":23.0113575,"velocity":0.3937007874015748},{"duration":0.08522724999999909,"midi":66,"time":23.0113575,"velocity":0.3937007874015748},{"duration":0.08522724999999909,"midi":42,"time":23.096584749999998,"velocity":0.3937007874015748},{"duration":0.2556817500000008,"midi":46,"time":23.181811999999997,"velocity":0.3937007874015748},{"duration":0.17045450000000173,"midi":42,"time":23.181811999999997,"velocity":0.3937007874015748},{"duration":0.08522724999999909,"midi":60,"time":23.3522665,"velocity":0.3937007874015748},{"duration":0.17045449999999818,"midi":42,"time":23.3522665,"velocity":0.3937007874015748},{"duration":0.08522724999999909,"midi":65,"time":23.3522665,"velocity":0.3937007874015748},{"duration":0.08522724999999909,"midi":57,"time":23.3522665,"velocity":0.3937007874015748},{"duration":0.2556817500000008,"midi":46,"time":23.522720999999997,"velocity":0.3937007874015748},{"duration":0.17045450000000173,"midi":42,"time":23.522720999999997,"velocity":0.3937007874015748},{"duration":0.08522724999999909,"midi":57,"time":23.6931755,"velocity":0.3937007874015748},{"duration":0.17045449999999818,"midi":57,"time":23.6931755,"velocity":0.3937007874015748},{"duration":0.08522724999999909,"midi":65,"time":23.6931755,"velocity":0.3937007874015748},{"duration":0.17045449999999818,"midi":55,"time":23.6931755,"velocity":0.3937007874015748},{"duration":0.08522724999999909,"midi":60,"time":23.6931755,"velocity":0.3937007874015748},{"duration":0.2556817500000008,"midi":51,"time":23.863629999999997,"velocity":0.3937007874015748},{"duration":0.17045450000000173,"midi":42,"time":23.863629999999997,"velocity":0.3937007874015748},{"duration":0.08522724999999909,"midi":58,"time":24.0340845,"velocity":0.3937007874015748},{"duration":0.08522724999999909,"midi":62,"time":24.0340845,"velocity":0.3937007874015748},{"duration":0.08522724999999909,"midi":65,"time":24.0340845,"velocity":0.3937007874015748},{"duration":0.17045450000000173,"midi":42,"time":24.204538999999997,"velocity":0.3937007874015748},{"duration":0.2556817500000008,"midi":51,"time":24.204538999999997,"velocity":0.3937007874015748},{"duration":0.17045449999999818,"midi":42,"time":24.3749935,"velocity":0.3937007874015748},{"duration":0.08522724999999909,"midi":65,"time":24.3749935,"velocity":0.3937007874015748},{"duration":0.17045449999999818,"midi":55,"time":24.3749935,"velocity":0.3937007874015748},{"duration":0.08522724999999909,"midi":58,"time":24.3749935,"velocity":0.3937007874015748},{"duration":0.08522724999999909,"midi":62,"time":24.3749935,"velocity":0.3937007874015748},{"duration":0.5965907500000007,"midi":69,"time":24.545447999999997,"velocity":0.3937007874015748},{"duration":0.17045450000000173,"midi":55,"time":24.545447999999997,"velocity":0.3937007874015748},{"duration":0.17045450000000173,"midi":42,"time":24.545447999999997,"velocity":0.3937007874015748},{"duration":0.17045450000000173,"midi":57,"time":24.545447999999997,"velocity":0.3937007874015748},{"duration":0.2556817500000008,"midi":50,"time":24.545447999999997,"velocity":0.3937007874015748},{"duration":0.08522724999999909,"midi":62,"time":24.7159025,"velocity":0.3937007874015748},{"duration":0.08522724999999909,"midi":42,"time":24.7159025,"velocity":0.3937007874015748},{"duration":0.08522724999999909,"midi":57,"time":24.7159025,"velocity":0.3937007874015748},{"duration":0.08522724999999909,"midi":66,"time":24.7159025,"velocity":0.3937007874015748},{"duration":0.08522724999999909,"midi":42,"time":24.801129749999998,"velocity":0.3937007874015748},{"duration":0.17045450000000173,"midi":42,"time":24.886356999999997,"velocity":0.3937007874015748},{"duration":0.2556817500000008,"midi":45,"time":24.886356999999997,"velocity":0.3937007874015748},{"duration":0.08522724999999909,"midi":66,"time":25.0568115,"velocity":0.3937007874015748},{"duration":0.08522724999999909,"midi":62,"time":25.0568115,"velocity":0.3937007874015748},{"duration":0.08522724999999909,"midi":57,"time":25.0568115,"velocity":0.3937007874015748},{"duration":0.08522724999999909,"midi":42,"time":25.0568115,"velocity":0.3937007874015748},{"duration":0.08522724999999909,"midi":42,"time":25.142038749999998,"velocity":0.3937007874015748},{"duration":0.2556817500000008,"midi":50,"time":25.227265999999997,"velocity":0.3937007874015748},{"duration":0.17045450000000173,"midi":42,"time":25.227265999999997,"velocity":0.3937007874015748},{"duration":0.2556817500000008,"midi":71,"time":25.227265999999997,"velocity":0.3937007874015748},{"duration":0.08522724999999909,"midi":62,"time":25.3977205,"velocity":0.3937007874015748},{"duration":0.08522724999999909,"midi":66,"time":25.3977205,"velocity":0.3937007874015748},{"duration":0.08522724999999909,"midi":42,"time":25.3977205,"velocity":0.3937007874015748},{"duration":0.08522724999999909,"midi":57,"time":25.3977205,"velocity":0.3937007874015748},{"duration":0.08522724999999909,"midi":42,"time":25.482947749999997,"velocity":0.3937007874015748},{"duration":0.08522724999999909,"midi":50,"time":25.482947749999997,"velocity":0.3937007874015748},{"duration":0.2556817500000008,"midi":69,"time":25.568174999999997,"velocity":0.3937007874015748},{"duration":0.17045450000000173,"midi":47,"time":25.568174999999997,"velocity":0.3937007874015748},{"duration":0.17045450000000173,"midi":42,"time":25.568174999999997,"velocity":0.3937007874015748},{"duration":0.08522724999999909,"midi":62,"time":25.7386295,"velocity":0.3937007874015748},{"duration":0.08522724999999909,"midi":57,"time":25.7386295,"velocity":0.3937007874015748},{"duration":0.08522724999999909,"midi":42,"time":25.7386295,"velocity":0.3937007874015748},{"duration":0.08522724999999909,"midi":66,"time":25.7386295,"velocity":0.3937007874015748},{"duration":0.17045449999999818,"midi":49,"time":25.7386295,"velocity":0.3937007874015748},{"duration":0.08522724999999909,"midi":42,"time":25.823856749999997,"velocity":0.3937007874015748},{"duration":0.2556817500000008,"midi":50,"time":25.909083999999996,"velocity":0.3937007874015748},{"duration":0.2556817500000008,"midi":62,"time":25.909083999999996,"velocity":0.3937007874015748},{"duration":0.17045450000000173,"midi":42,"time":25.909083999999996,"velocity":0.3937007874015748},{"duration":0.17045449999999818,"midi":74,"time":26.079538499999998,"velocity":0.3937007874015748},{"duration":0.426136249999999,"midi":62,"time":26.079538499999998,"velocity":0.3937007874015748},{"duration":0.08522724999999909,"midi":57,"time":26.079538499999998,"velocity":0.3937007874015748},{"duration":0.08522724999999909,"midi":66,"time":26.079538499999998,"velocity":0.3937007874015748},{"duration":0.08522724999999909,"midi":42,"time":26.079538499999998,"velocity":0.3937007874015748},{"duration":0.08522724999999909,"midi":42,"time":26.164765749999997,"velocity":0.3937007874015748},{"duration":0.2556817500000008,"midi":45,"time":26.249992999999996,"velocity":0.3937007874015748},{"duration":0.17045450000000173,"midi":42,"time":26.249992999999996,"velocity":0.3937007874015748},{"duration":0.17045450000000173,"midi":73,"time":26.249992999999996,"velocity":0.3937007874015748},{"duration":0.08522724999999909,"midi":66,"time":26.420447499999998,"velocity":0.3937007874015748},{"duration":0.08522724999999909,"midi":42,"time":26.420447499999998,"velocity":0.3937007874015748},{"duration":0.426136249999999,"midi":62,"time":26.420447499999998,"velocity":0.3937007874015748},{"duration":0.17045449999999818,"midi":74,"time":26.420447499999998,"velocity":0.3937007874015748},{"duration":0.08522724999999909,"midi":57,"time":26.420447499999998,"velocity":0.3937007874015748},{"duration":0.08522724999999909,"midi":42,"time":26.505674749999997,"velocity":0.3937007874015748},{"duration":0.3409089999999999,"midi":78,"time":26.590901999999996,"velocity":0.3937007874015748},{"duration":0.17045450000000173,"midi":42,"time":26.590901999999996,"velocity":0.3937007874015748},{"duration":0.2556817500000008,"midi":50,"time":26.590901999999996,"velocity":0.3937007874015748},{"duration":0.08522724999999909,"midi":66,"time":26.761356499999998,"velocity":0.3937007874015748},{"duration":0.08522724999999909,"midi":57,"time":26.761356499999998,"velocity":0.3937007874015748},{"duration":0.426136249999999,"midi":62,"time":26.761356499999998,"velocity":0.3937007874015748},{"duration":0.08522724999999909,"midi":42,"time":26.761356499999998,"velocity":0.3937007874015748},{"duration":0.08522724999999909,"midi":42,"time":26.846583749999997,"velocity":0.3937007874015748},{"duration":0.08522724999999909,"midi":50,"time":26.846583749999997,"velocity":0.3937007874015748},{"duration":0.17045450000000173,"midi":76,"time":26.931810999999996,"velocity":0.3937007874015748},{"duration":0.17045450000000173,"midi":48,"time":26.931810999999996,"velocity":0.3937007874015748},{"duration":0.17045450000000173,"midi":42,"time":26.931810999999996,"velocity":0.3937007874015748},{"duration":0.08522724999999909,"midi":57,"time":27.102265499999998,"velocity":0.3937007874015748},{"duration":0.08522724999999909,"midi":42,"time":27.102265499999998,"velocity":0.3937007874015748},{"duration":0.17045449999999818,"midi":47,"time":27.102265499999998,"velocity":0.3937007874015748},{"duration":0.17045449999999818,"midi":74,"time":27.102265499999998,"velocity":0.3937007874015748},{"duration":0.08522724999999909,"midi":66,"time":27.102265499999998,"velocity":0.3937007874015748},{"duration":0.08522724999999909,"midi":62,"time":27.102265499999998,"velocity":0.3937007874015748},{"duration":0.08522724999999909,"midi":42,"time":27.187492749999997,"velocity":0.3937007874015748},{"duration":0.17045450000000173,"midi":42,"time":27.272719999999996,"velocity":0.3937007874015748},{"duration":0.2556817500000008,"midi":59,"time":27.272719999999996,"velocity":0.3937007874015748},{"duration":1.2784087500000005,"midi":71,"time":27.272719999999996,"velocity":0.3937007874015748},{"duration":0.2556817500000008,"midi":43,"time":27.272719999999996,"velocity":0.3937007874015748},{"duration":0.426136249999999,"midi":59,"time":27.443174499999998,"velocity":0.3937007874015748},{"duration":0.08522724999999909,"midi":42,"time":27.443174499999998,"velocity":0.3937007874015748},{"duration":0.08522724999999909,"midi":67,"time":27.443174499999998,"velocity":0.3937007874015748},{"duration":0.08522724999999909,"midi":62,"time":27.443174499999998,"velocity":0.3937007874015748},{"duration":0.08522724999999909,"midi":42,"time":27.528401749999997,"velocity":0.3937007874015748},{"duration":0.17045450000000173,"midi":42,"time":27.613628999999996,"velocity":0.3937007874015748},{"duration":0.2556817500000008,"midi":38,"time":27.613628999999996,"velocity":0.3937007874015748},{"duration":0.08522724999999909,"midi":62,"time":27.784083499999998,"velocity":0.3937007874015748},{"duration":0.08522724999999909,"midi":42,"time":27.784083499999998,"velocity":0.3937007874015748},{"duration":0.08522724999999909,"midi":59,"time":27.784083499999998,"velocity":0.3937007874015748},{"duration":0.08522724999999909,"midi":67,"time":27.784083499999998,"velocity":0.3937007874015748},{"duration":0.08522724999999909,"midi":42,"time":27.869310749999997,"velocity":0.3937007874015748},{"duration":0.17045450000000173,"midi":42,"time":27.954537999999996,"velocity":0.3937007874015748},{"duration":0.2556817500000008,"midi":43,"time":27.954537999999996,"velocity":0.3937007874015748},{"duration":0.2556817500000008,"midi":64,"time":27.954537999999996,"velocity":0.3937007874015748},{"duration":0.08522724999999909,"midi":42,"time":28.124992499999998,"velocity":0.3937007874015748},{"duration":0.08522724999999909,"midi":62,"time":28.124992499999998,"velocity":0.3937007874015748},{"duration":0.08522724999999909,"midi":67,"time":28.124992499999998,"velocity":0.3937007874015748},{"duration":0.08522724999999909,"midi":59,"time":28.124992499999998,"velocity":0.3937007874015748},{"duration":0.08522724999999909,"midi":42,"time":28.210219749999997,"velocity":0.3937007874015748},{"duration":0.17045450000000173,"midi":42,"time":28.295446999999996,"velocity":0.3937007874015748},{"duration":0.2556817500000008,"midi":62,"time":28.295446999999996,"velocity":0.3937007874015748},{"duration":0.2556817500000008,"midi":38,"time":28.295446999999996,"velocity":0.3937007874015748},{"duration":0.08522724999999909,"midi":42,"time":28.465901499999998,"velocity":0.3937007874015748},{"duration":0.08522724999999909,"midi":59,"time":28.465901499999998,"velocity":0.3937007874015748},{"duration":0.08522724999999909,"midi":62,"time":28.465901499999998,"velocity":0.3937007874015748},{"duration":0.08522724999999909,"midi":67,"time":28.465901499999998,"velocity":0.3937007874015748},{"duration":0.08522724999999909,"midi":42,"time":28.551128749999997,"velocity":0.3937007874015748},{"duration":0.2556817500000008,"midi":59,"time":28.636355999999996,"velocity":0.3937007874015748},{"duration":0.2556817500000008,"midi":44,"time":28.636355999999996,"velocity":0.3937007874015748},{"duration":0.17045450000000173,"midi":42,"time":28.636355999999996,"velocity":0.3937007874015748},{"duration":0.08522724999999909,"midi":42,"time":28.806810499999997,"velocity":0.3937007874015748},{"duration":0.17045449999999818,"midi":71,"time":28.806810499999997,"velocity":0.3937007874015748},{"duration":0.08522724999999909,"midi":62,"time":28.806810499999997,"velocity":0.3937007874015748},{"duration":0.426136249999999,"midi":59,"time":28.806810499999997,"velocity":0.3937007874015748},{"duration":0.08522724999999909,"midi":68,"time":28.806810499999997,"velocity":0.3937007874015748},{"duration":0.08522724999999909,"midi":42,"time":28.892037749999997,"velocity":0.3937007874015748},{"duration":0.17045450000000173,"midi":42,"time":28.977264999999996,"velocity":0.3937007874015748},{"duration":0.17045450000000173,"midi":70,"time":28.977264999999996,"velocity":0.3937007874015748},{"duration":0.2556817500000008,"midi":38,"time":28.977264999999996,"velocity":0.3937007874015748},{"duration":0.426136249999999,"midi":59,"time":29.147719499999997,"velocity":0.3937007874015748},{"duration":0.08522724999999909,"midi":62,"time":29.147719499999997,"velocity":0.3937007874015748},{"duration":0.08522724999999909,"midi":42,"time":29.147719499999997,"velocity":0.3937007874015748},{"duration":0.08522724999999909,"midi":68,"time":29.147719499999997,"velocity":0.3937007874015748},{"duration":0.17045449999999818,"midi":71,"time":29.147719499999997,"velocity":0.3937007874015748},{"duration":0.08522724999999909,"midi":42,"time":29.232946749999996,"velocity":0.3937007874015748},{"duration":0.3409089999999999,"midi":74,"time":29.318173999999996,"velocity":0.3937007874015748},{"duration":0.2556817500000008,"midi":44,"time":29.318173999999996,"velocity":0.3937007874015748},{"duration":0.17045450000000173,"midi":42,"time":29.318173999999996,"velocity":0.3937007874015748},{"duration":0.08522724999999909,"midi":68,"time":29.488628499999997,"velocity":0.3937007874015748},{"duration":0.08522724999999909,"midi":62,"time":29.488628499999997,"velocity":0.3937007874015748},{"duration":0.426136249999999,"midi":59,"time":29.488628499999997,"velocity":0.3937007874015748},{"duration":0.08522724999999909,"midi":42,"time":29.488628499999997,"velocity":0.3937007874015748},{"duration":0.08522724999999909,"midi":42,"time":29.573855749999996,"velocity":0.3937007874015748},{"duration":0.2556817500000008,"midi":38,"time":29.659082999999995,"velocity":0.3937007874015748},{"duration":0.17045450000000173,"midi":42,"time":29.659082999999995,"velocity":0.3937007874015748},{"duration":0.17045450000000173,"midi":73,"time":29.659082999999995,"velocity":0.3937007874015748},{"duration":0.08522724999999909,"midi":59,"time":29.829537499999997,"velocity":0.3937007874015748},{"duration":0.08522724999999909,"midi":68,"time":29.829537499999997,"velocity":0.3937007874015748},{"duration":0.08522724999999909,"midi":62,"time":29.829537499999997,"velocity":0.3937007874015748},{"duration":0.17045449999999818,"midi":71,"time":29.829537499999997,"velocity":0.3937007874015748},{"duration":0.08522724999999909,"midi":42,"time":29.829537499999997,"velocity":0.3937007874015748},{"duration":0.08522724999999909,"midi":42,"time":29.914764749999996,"velocity":0.3937007874015748},{"duration":0.17045450000000173,"midi":42,"time":29.999991999999995,"velocity":0.3937007874015748},{"duration":1.2784087500000005,"midi":69,"time":29.999991999999995,"velocity":0.3937007874015748},{"duration":0.2556817500000008,"midi":42,"time":29.999991999999995,"velocity":0.3937007874015748},{"duration":0.42613625000000255,"midi":57,"time":29.999991999999995,"velocity":0.3937007874015748},{"duration":0.08522724999999909,"midi":61,"time":30.170446499999997,"velocity":0.3937007874015748},{"duration":0.08522724999999909,"midi":64,"time":30.170446499999997,"velocity":0.3937007874015748},{"duration":0.08522724999999909,"midi":67,"time":30.170446499999997,"velocity":0.3937007874015748},{"duration":0.08522724999999909,"midi":42,"time":30.170446499999997,"velocity":0.3937007874015748},{"duration":0.08522724999999909,"midi":42,"time":30.255673749999996,"velocity":0.3937007874015748},{"duration":0.17045450000000173,"midi":42,"time":30.340900999999995,"velocity":0.3937007874015748},{"duration":0.2556817500000008,"midi":38,"time":30.340900999999995,"velocity":0.3937007874015748},{"duration":0.08522724999999909,"midi":64,"time":30.511355499999997,"velocity":0.3937007874015748},{"duration":0.08522724999999909,"midi":67,"time":30.511355499999997,"velocity":0.3937007874015748},{"duration":0.08522724999999909,"midi":42,"time":30.511355499999997,"velocity":0.3937007874015748},{"duration":0.426136249999999,"midi":57,"time":30.511355499999997,"velocity":0.3937007874015748},{"duration":0.08522724999999909,"midi":61,"time":30.511355499999997,"velocity":0.3937007874015748},{"duration":0.08522724999999909,"midi":42,"time":30.596582749999996,"velocity":0.3937007874015748},{"duration":0.17045450000000173,"midi":42,"time":30.681809999999995,"velocity":0.3937007874015748},{"duration":0.2556817500000008,"midi":42,"time":30.681809999999995,"velocity":0.3937007874015748},{"duration":0.08522724999999909,"midi":67,"time":30.852264499999997,"velocity":0.3937007874015748},{"duration":0.08522724999999909,"midi":61,"time":30.852264499999997,"velocity":0.3937007874015748},{"duration":0.08522724999999909,"midi":64,"time":30.852264499999997,"velocity":0.3937007874015748},{"duration":0.08522724999999909,"midi":42,"time":30.852264499999997,"velocity":0.3937007874015748},{"duration":0.08522724999999909,"midi":42,"time":30.937491749999996,"velocity":0.3937007874015748},{"duration":0.08522724999999909,"midi":42,"time":30.937491749999996,"velocity":0.3937007874015748},{"duration":0.5113635000000016,"midi":69,"time":31.022718999999995,"velocity":0.3937007874015748},{"duration":0.17045450000000173,"midi":42,"time":31.022718999999995,"velocity":0.3937007874015748},{"duration":0.17045450000000173,"midi":45,"time":31.022718999999995,"velocity":0.3937007874015748},{"duration":0.08522724999999909,"midi":61,"time":31.193173499999997,"velocity":0.3937007874015748},{"duration":0.08522724999999909,"midi":67,"time":31.193173499999997,"velocity":0.3937007874015748},{"duration":0.08522724999999909,"midi":42,"time":31.193173499999997,"velocity":0.3937007874015748},{"duration":0.17045449999999818,"midi":48,"time":31.193173499999997,"velocity":0.3937007874015748},{"duration":0.08522724999999909,"midi":64,"time":31.193173499999997,"velocity":0.3937007874015748},{"duration":0.08522724999999909,"midi":42,"time":31.278400749999996,"velocity":0.3937007874015748},{"duration":0.2556817500000008,"midi":41,"time":31.363627999999995,"velocity":0.3937007874015748},{"duration":0.17045450000000173,"midi":42,"time":31.363627999999995,"velocity":0.3937007874015748},{"duration":0.08522724999999909,"midi":63,"time":31.534082499999997,"velocity":0.3937007874015748},{"duration":0.08522724999999909,"midi":60,"time":31.534082499999997,"velocity":0.3937007874015748},{"duration":0.426136249999999,"midi":57,"time":31.534082499999997,"velocity":0.3937007874015748},{"duration":0.08522724999999909,"midi":66,"time":31.534082499999997,"velocity":0.3937007874015748},{"duration":0.08522724999999909,"midi":42,"time":31.534082499999997,"velocity":0.3937007874015748},{"duration":0.08522724999999909,"midi":42,"time":31.619309749999996,"velocity":0.3937007874015748},{"duration":0.2556817500000008,"midi":36,"time":31.704536999999995,"velocity":0.3937007874015748},{"duration":0.17045450000000173,"midi":42,"time":31.704536999999995,"velocity":0.3937007874015748},{"duration":0.17045450000000173,"midi":69,"time":31.704536999999995,"velocity":0.3937007874015748},{"duration":0.08522724999999909,"midi":66,"time":31.874991499999997,"velocity":0.3937007874015748},{"duration":0.08522724999999909,"midi":60,"time":31.874991499999997,"velocity":0.3937007874015748},{"duration":0.17045450000000173,"midi":68,"time":31.874991499999997,"velocity":0.3937007874015748},{"duration":0.08522724999999909,"midi":42,"time":31.874991499999997,"velocity":0.3937007874015748},{"duration":0.08522724999999909,"midi":63,"time":31.874991499999997,"velocity":0.3937007874015748},{"duration":0.08522725000000264,"midi":42,"time":31.960218749999996,"velocity":0.3937007874015748},{"duration":0.17045449999999818,"midi":42,"time":32.045446,"velocity":0.3937007874015748},{"duration":0.2556817500000008,"midi":57,"time":32.045446,"velocity":0.3937007874015748},{"duration":0.2556817500000008,"midi":41,"time":32.045446,"velocity":0.3937007874015748},{"duration":0.17045449999999818,"midi":69,"time":32.045446,"velocity":0.3937007874015748},{"duration":0.08522725000000264,"midi":60,"time":32.2159005,"velocity":0.3937007874015748},{"duration":0.08522725000000264,"midi":66,"time":32.2159005,"velocity":0.3937007874015748},{"duration":0.426136249999999,"midi":81,"time":32.2159005,"velocity":0.3937007874015748},{"duration":0.08522725000000264,"midi":42,"time":32.2159005,"velocity":0.3937007874015748},{"duration":0.08522725000000264,"midi":63,"time":32.2159005,"velocity":0.3937007874015748},{"duration":0.08522724999999554,"midi":42,"time":32.30112775,"velocity":0.3937007874015748},{"duration":0.08522724999999554,"midi":41,"time":32.30112775,"velocity":0.3937007874015748},{"duration":0.2556817500000008,"midi":69,"time":32.386354999999995,"velocity":0.3937007874015748},{"duration":0.17045449999999818,"midi":45,"time":32.386354999999995,"velocity":0.3937007874015748},{"duration":0.17045449999999818,"midi":42,"time":32.386354999999995,"velocity":0.3937007874015748},{"duration":0.17045450000000528,"midi":48,"time":32.55680949999999,"velocity":0.3937007874015748},{"duration":0.08522725000000264,"midi":63,"time":32.55680949999999,"velocity":0.3937007874015748},{"duration":0.08522725000000264,"midi":60,"time":32.55680949999999,"velocity":0.3937007874015748},{"duration":0.08522725000000264,"midi":42,"time":32.55680949999999,"velocity":0.3937007874015748},{"duration":0.08522725000000264,"midi":66,"time":32.55680949999999,"velocity":0.3937007874015748},{"duration":0.08522725000000264,"midi":42,"time":32.642036749999995,"velocity":0.3937007874015748},{"duration":0.2556817500000008,"midi":40,"time":32.727264,"velocity":0.3937007874015748},{"duration":0.426136249999999,"midi":57,"time":32.727264,"velocity":0.3937007874015748},{"duration":0.17045449999999818,"midi":42,"time":32.727264,"velocity":0.3937007874015748},{"duration":0.08522725000000264,"midi":62,"time":32.897718499999996,"velocity":0.3937007874015748},{"duration":0.08522725000000264,"midi":67,"time":32.897718499999996,"velocity":0.3937007874015748},{"duration":0.08522725000000264,"midi":42,"time":32.897718499999996,"velocity":0.3937007874015748},{"duration":0.08522725000000264,"midi":59,"time":32.897718499999996,"velocity":0.3937007874015748},{"duration":0.08522724999999554,"midi":42,"time":32.98294575,"velocity":0.3937007874015748},{"duration":0.17045450000000528,"midi":69,"time":33.068172999999994,"velocity":0.3937007874015748},{"duration":0.17045450000000528,"midi":42,"time":33.068172999999994,"velocity":0.3937007874015748},{"duration":0.2556817500000008,"midi":35,"time":33.068172999999994,"velocity":0.3937007874015748},{"duration":0.17045449999999818,"midi":68,"time":33.2386275,"velocity":0.3937007874015748},{"duration":0.08522724999999554,"midi":62,"time":33.2386275,"velocity":0.3937007874015748},{"duration":0.08522724999999554,"midi":59,"time":33.2386275,"velocity":0.3937007874015748},{"duration":0.426136249999999,"midi":57,"time":33.2386275,"velocity":0.3937007874015748},{"duration":0.08522724999999554,"midi":42,"time":33.2386275,"velocity":0.3937007874015748},{"duration":0.08522724999999554,"midi":67,"time":33.2386275,"velocity":0.3937007874015748},{"duration":0.08522725000000264,"midi":42,"time":33.323854749999995,"velocity":0.3937007874015748},{"duration":0.17045449999999818,"midi":69,"time":33.409082,"velocity":0.3937007874015748},{"duration":0.2556817500000008,"midi":40,"time":33.409082,"velocity":0.3937007874015748},{"duration":0.17045449999999818,"midi":42,"time":33.409082,"velocity":0.3937007874015748},{"duration":0.08522725000000264,"midi":62,"time":33.579536499999996,"velocity":0.3937007874015748},{"duration":0.08522725000000264,"midi":42,"time":33.579536499999996,"velocity":0.3937007874015748},{"duration":0.08522725000000264,"midi":67,"time":33.579536499999996,"velocity":0.3937007874015748},{"duration":0.426136249999999,"midi":81,"time":33.579536499999996,"velocity":0.3937007874015748},{"duration":0.08522725000000264,"midi":59,"time":33.579536499999996,"velocity":0.3937007874015748},{"duration":0.08522724999999554,"midi":40,"time":33.66476375,"velocity":0.3937007874015748},{"duration":0.08522724999999554,"midi":42,"time":33.66476375,"velocity":0.3937007874015748},{"duration":0.17045450000000528,"midi":42,"time":33.749990999999994,"velocity":0.3937007874015748},{"duration":0.17045450000000528,"midi":42,"time":33.749990999999994,"velocity":0.3937007874015748},{"duration":0.2556817500000008,"midi":69,"time":33.749990999999994,"velocity":0.3937007874015748},{"duration":0.08522724999999554,"midi":59,"time":33.9204455,"velocity":0.3937007874015748},{"duration":0.08522724999999554,"midi":62,"time":33.9204455,"velocity":0.3937007874015748},{"duration":0.08522724999999554,"midi":42,"time":33.9204455,"velocity":0.3937007874015748},{"duration":0.17045449999999818,"midi":43,"time":33.9204455,"velocity":0.3937007874015748},{"duration":0.08522724999999554,"midi":67,"time":33.9204455,"velocity":0.3937007874015748},{"duration":0.08522725000000264,"midi":42,"time":34.005672749999995,"velocity":0.3937007874015748},{"duration":1.278408749999997,"midi":76,"time":34.0909,"velocity":0.3937007874015748},{"duration":0.2556817500000008,"midi":45,"time":34.0909,"velocity":0.3937007874015748},{"duration":0.17045449999999818,"midi":42,"time":34.0909,"velocity":0.3937007874015748},{"duration":0.2556817500000008,"midi":64,"time":34.0909,"velocity":0.3937007874015748},{"duration":0.08522725000000264,"midi":42,"time":34.261354499999996,"velocity":0.3937007874015748},{"duration":0.08522725000000264,"midi":67,"time":34.261354499999996,"velocity":0.3937007874015748},{"duration":0.426136249999999,"midi":64,"time":34.261354499999996,"velocity":0.3937007874015748},{"duration":0.08522725000000264,"midi":61,"time":34.261354499999996,"velocity":0.3937007874015748},{"duration":0.08522724999999554,"midi":42,"time":34.34658175,"velocity":0.3937007874015748},{"duration":0.2556817500000008,"midi":40,"time":34.431808999999994,"velocity":0.3937007874015748},{"duration":0.17045450000000528,"midi":42,"time":34.431808999999994,"velocity":0.3937007874015748},{"duration":0.08522724999999554,"midi":42,"time":34.6022635,"velocity":0.3937007874015748},{"duration":0.08522724999999554,"midi":67,"time":34.6022635,"velocity":0.3937007874015748},{"duration":0.08522724999999554,"midi":61,"time":34.6022635,"velocity":0.3937007874015748},{"duration":0.426136249999999,"midi":64,"time":34.6022635,"velocity":0.3937007874015748},{"duration":0.08522725000000264,"midi":42,"time":34.687490749999995,"velocity":0.3937007874015748},{"duration":0.17045449999999818,"midi":42,"time":34.772718,"velocity":0.3937007874015748},{"duration":0.2556817500000008,"midi":45,"time":34.772718,"velocity":0.3937007874015748},{"duration":0.08522725000000264,"midi":67,"time":34.943172499999996,"velocity":0.3937007874015748},{"duration":0.08522725000000264,"midi":61,"time":34.943172499999996,"velocity":0.3937007874015748},{"duration":0.08522725000000264,"midi":42,"time":34.943172499999996,"velocity":0.3937007874015748},{"duration":0.426136249999999,"midi":64,"time":34.943172499999996,"velocity":0.3937007874015748},{"duration":0.08522724999999554,"midi":42,"time":35.02839975,"velocity":0.3937007874015748},{"duration":0.17045450000000528,"midi":42,"time":35.113626999999994,"velocity":0.3937007874015748},{"duration":0.17045450000000528,"midi":47,"time":35.113626999999994,"velocity":0.3937007874015748},{"duration":0.08522724999999554,"midi":64,"time":35.2840815,"velocity":0.3937007874015748},{"duration":0.17045449999999818,"midi":49,"time":35.2840815,"velocity":0.3937007874015748},{"duration":0.08522724999999554,"midi":61,"time":35.2840815,"velocity":0.3937007874015748},{"duration":0.08522724999999554,"midi":42,"time":35.2840815,"velocity":0.3937007874015748},{"duration":0.08522724999999554,"midi":67,"time":35.2840815,"velocity":0.3937007874015748},{"duration":0.08522725000000264,"midi":42,"time":35.369308749999995,"velocity":0.3937007874015748},{"duration":0.2556817500000008,"midi":50,"time":35.454536,"velocity":0.3937007874015748},{"duration":0.17045449999999818,"midi":57,"time":35.454536,"velocity":0.3937007874015748},{"duration":1.278408749999997,"midi":74,"time":35.454536,"velocity":0.3937007874015748},{"duration":0.17045449999999818,"midi":55,"time":35.454536,"velocity":0.3937007874015748},{"duration":0.2556817500000008,"midi":66,"time":35.454536,"velocity":0.3937007874015748},{"duration":0.17045449999999818,"midi":42,"time":35.454536,"velocity":0.3937007874015748},{"duration":0.08522725000000264,"midi":62,"time":35.624990499999996,"velocity":0.3937007874015748},{"duration":0.426136249999999,"midi":66,"time":35.624990499999996,"velocity":0.3937007874015748},{"duration":0.08522725000000264,"midi":42,"time":35.624990499999996,"velocity":0.3937007874015748},{"duration":0.08522725000000264,"midi":57,"time":35.624990499999996,"velocity":0.3937007874015748},{"duration":0.08522724999999554,"midi":42,"time":35.71021775,"velocity":0.3937007874015748},{"duration":0.2556817500000008,"midi":45,"time":35.795444999999994,"velocity":0.3937007874015748},{"duration":0.17045450000000528,"midi":42,"time":35.795444999999994,"velocity":0.3937007874015748},{"duration":0.08522724999999554,"midi":42,"time":35.9658995,"velocity":0.3937007874015748},{"duration":0.08522724999999554,"midi":62,"time":35.9658995,"velocity":0.3937007874015748},{"duration":0.08522724999999554,"midi":57,"time":35.9658995,"velocity":0.3937007874015748},{"duration":0.08522724999999554,"midi":66,"time":35.9658995,"velocity":0.3937007874015748},{"duration":0.08522725000000264,"midi":42,"time":36.051126749999995,"velocity":0.3937007874015748},{"duration":0.2556817500000008,"midi":50,"time":36.136354,"velocity":0.3937007874015748},{"duration":0.2556817500000008,"midi":71,"time":36.136354,"velocity":0.3937007874015748},{"duration":0.17045449999999818,"midi":42,"time":36.136354,"velocity":0.3937007874015748},{"duration":0.08522725000000264,"midi":62,"time":36.306808499999995,"velocity":0.3937007874015748},{"duration":0.08522725000000264,"midi":66,"time":36.306808499999995,"velocity":0.3937007874015748},{"duration":0.08522725000000264,"midi":42,"time":36.306808499999995,"velocity":0.3937007874015748},{"duration":0.08522725000000264,"midi":57,"time":36.306808499999995,"velocity":0.3937007874015748},{"duration":0.08522724999999554,"midi":42,"time":36.39203575,"velocity":0.3937007874015748},{"duration":0.08522724999999554,"midi":50,"time":36.39203575,"velocity":0.3937007874015748},{"duration":0.17045450000000528,"midi":42,"time":36.477262999999994,"velocity":0.3937007874015748},{"duration":0.17045450000000528,"midi":42,"time":36.477262999999994,"velocity":0.3937007874015748},{"duration":0.2556817500000008,"midi":69,"time":36.477262999999994,"velocity":0.3937007874015748},{"duration":0.08522724999999554,"midi":42,"time":36.6477175,"velocity":0.3937007874015748},{"duration":0.08522724999999554,"midi":66,"time":36.6477175,"velocity":0.3937007874015748},{"duration":0.08522724999999554,"midi":57,"time":36.6477175,"velocity":0.3937007874015748},{"duration":0.08522724999999554,"midi":62,"time":36.6477175,"velocity":0.3937007874015748},{"duration":0.17045449999999818,"midi":45,"time":36.6477175,"velocity":0.3937007874015748},{"duration":0.08522725000000264,"midi":42,"time":36.732944749999994,"velocity":0.3937007874015748},{"duration":0.2556817500000008,"midi":51,"time":36.818172,"velocity":0.3937007874015748},{"duration":0.17045449999999818,"midi":42,"time":36.818172,"velocity":0.3937007874015748},{"duration":1.278408749999997,"midi":72,"time":36.818172,"velocity":0.3937007874015748},{"duration":0.08522725000000264,"midi":62,"time":36.988626499999995,"velocity":0.3937007874015748},{"duration":0.08522725000000264,"midi":42,"time":36.988626499999995,"velocity":0.3937007874015748},{"duration":0.17045449999999818,"midi":74,"time":36.988626499999995,"velocity":0.3937007874015748},{"duration":0.08522725000000264,"midi":66,"time":36.988626499999995,"velocity":0.3937007874015748},{"duration":0.08522725000000264,"midi":57,"time":36.988626499999995,"velocity":0.3937007874015748},{"duration":0.08522724999999554,"midi":42,"time":37.07385375,"velocity":0.3937007874015748},{"duration":0.17045450000000528,"midi":76,"time":37.15908099999999,"velocity":0.3937007874015748},{"duration":0.17045450000000528,"midi":42,"time":37.15908099999999,"velocity":0.3937007874015748},{"duration":0.2556817500000008,"midi":45,"time":37.15908099999999,"velocity":0.3937007874015748},{"duration":0.426136249999999,"midi":78,"time":37.3295355,"velocity":0.3937007874015748},{"duration":0.08522724999999554,"midi":57,"time":37.3295355,"velocity":0.3937007874015748},{"duration":0.08522724999999554,"midi":62,"time":37.3295355,"velocity":0.3937007874015748},{"duration":0.08522724999999554,"midi":66,"time":37.3295355,"velocity":0.3937007874015748},{"duration":0.08522724999999554,"midi":42,"time":37.3295355,"velocity":0.3937007874015748},{"duration":0.08522725000000264,"midi":42,"time":37.414762749999994,"velocity":0.3937007874015748},{"duration":0.17045449999999818,"midi":42,"time":37.49999,"velocity":0.3937007874015748},{"duration":0.2556817500000008,"midi":51,"time":37.49999,"velocity":0.3937007874015748},{"duration":0.08522725000000264,"midi":62,"time":37.670444499999995,"velocity":0.3937007874015748},{"duration":0.08522725000000264,"midi":57,"time":37.670444499999995,"velocity":0.3937007874015748},{"duration":0.08522725000000264,"midi":66,"time":37.670444499999995,"velocity":0.3937007874015748},{"duration":0.08522725000000264,"midi":42,"time":37.670444499999995,"velocity":0.3937007874015748},{"duration":0.08522724999999554,"midi":42,"time":37.75567175,"velocity":0.3937007874015748},{"duration":0.17045450000000528,"midi":42,"time":37.84089899999999,"velocity":0.3937007874015748},{"duration":0.2556817500000008,"midi":45,"time":37.84089899999999,"velocity":0.3937007874015748},{"duration":0.17045450000000528,"midi":76,"time":37.84089899999999,"velocity":0.3937007874015748},{"duration":0.08522724999999554,"midi":42,"time":38.0113535,"velocity":0.3937007874015748},{"duration":0.08522724999999554,"midi":62,"time":38.0113535,"velocity":0.3937007874015748},{"duration":0.08522724999999554,"midi":66,"time":38.0113535,"velocity":0.3937007874015748},{"duration":0.08522724999999554,"midi":57,"time":38.0113535,"velocity":0.3937007874015748},{"duration":0.17045449999999818,"midi":74,"time":38.0113535,"velocity":0.3937007874015748},{"duration":0.08522725000000264,"midi":42,"time":38.096580749999994,"velocity":0.3937007874015748},{"duration":0.17045449999999818,"midi":42,"time":38.181808,"velocity":0.3937007874015748},{"duration":0.2556817500000008,"midi":71,"time":38.181808,"velocity":0.3937007874015748},{"duration":0.5965907499999972,"midi":71,"time":38.181808,"velocity":0.3937007874015748},{"duration":0.2556817500000008,"midi":52,"time":38.181808,"velocity":0.3937007874015748},{"duration":0.08522725000000264,"midi":42,"time":38.352262499999995,"velocity":0.3937007874015748},{"duration":0.08522725000000264,"midi":62,"time":38.352262499999995,"velocity":0.3937007874015748},{"duration":0.08522725000000264,"midi":67,"time":38.352262499999995,"velocity":0.3937007874015748},{"duration":0.08522725000000264,"midi":59,"time":38.352262499999995,"velocity":0.3937007874015748},{"duration":0.08522724999999554,"midi":42,"time":38.43748975,"velocity":0.3937007874015748},{"duration":0.17045450000000528,"midi":42,"time":38.52271699999999,"velocity":0.3937007874015748},{"duration":0.2556817500000008,"midi":47,"time":38.52271699999999,"velocity":0.3937007874015748},{"duration":0.9374997500000006,"midi":71,"time":38.52271699999999,"velocity":0.3937007874015748},{"duration":0.08522724999999554,"midi":59,"time":38.6931715,"velocity":0.3937007874015748},{"duration":0.08522724999999554,"midi":67,"time":38.6931715,"velocity":0.3937007874015748},{"duration":0.08522724999999554,"midi":62,"time":38.6931715,"velocity":0.3937007874015748},{"duration":0.08522724999999554,"midi":42,"time":38.6931715,"velocity":0.3937007874015748},{"duration":0.08522725000000264,"midi":42,"time":38.778398749999994,"velocity":0.3937007874015748},{"duration":0.2556817500000008,"midi":52,"time":38.863626,"velocity":0.3937007874015748},{"duration":0.17045449999999818,"midi":42,"time":38.863626,"velocity":0.3937007874015748},{"duration":0.2556817500000008,"midi":76,"time":38.863626,"velocity":0.3937007874015748},{"duration":0.08522725000000264,"midi":42,"time":39.034080499999995,"velocity":0.3937007874015748},{"duration":0.08522725000000264,"midi":62,"time":39.034080499999995,"velocity":0.3937007874015748},{"duration":0.08522725000000264,"midi":59,"time":39.034080499999995,"velocity":0.3937007874015748},{"duration":0.08522725000000264,"midi":67,"time":39.034080499999995,"velocity":0.3937007874015748},{"duration":0.08522724999999554,"midi":42,"time":39.11930775,"velocity":0.3937007874015748},{"duration":0.2556817500000008,"midi":47,"time":39.20453499999999,"velocity":0.3937007874015748},{"duration":0.17045450000000528,"midi":42,"time":39.20453499999999,"velocity":0.3937007874015748},{"duration":0.2556817500000008,"midi":74,"time":39.20453499999999,"velocity":0.3937007874015748},{"duration":0.08522724999999554,"midi":42,"time":39.3749895,"velocity":0.3937007874015748},{"duration":0.08522724999999554,"midi":62,"time":39.3749895,"velocity":0.3937007874015748},{"duration":0.08522724999999554,"midi":59,"time":39.3749895,"velocity":0.3937007874015748},{"duration":0.08522724999999554,"midi":67,"time":39.3749895,"velocity":0.3937007874015748},{"duration":0.08522725000000264,"midi":42,"time":39.460216749999994,"velocity":0.3937007874015748},{"duration":0.17045449999999818,"midi":42,"time":39.545443999999996,"velocity":0.3937007874015748},{"duration":0.2556817500000008,"midi":53,"time":39.545443999999996,"velocity":0.3937007874015748},{"duration":0.34090899999999635,"midi":71,"time":39.545443999999996,"velocity":0.3937007874015748},{"duration":0.08522725000000264,"midi":59,"time":39.715898499999994,"velocity":0.3937007874015748},{"duration":1.1079542499999988,"midi":71,"time":39.715898499999994,"velocity":0.3937007874015748},{"duration":0.08522725000000264,"midi":42,"time":39.715898499999994,"velocity":0.3937007874015748},{"duration":0.08522725000000264,"midi":62,"time":39.715898499999994,"velocity":0.3937007874015748},{"duration":0.08522725000000264,"midi":68,"time":39.715898499999994,"velocity":0.3937007874015748},{"duration":0.08522724999999554,"midi":42,"time":39.80112575,"velocity":0.3937007874015748},{"duration":0.17045450000000528,"midi":42,"time":39.88635299999999,"velocity":0.3937007874015748},{"duration":0.2556817500000008,"midi":47,"time":39.88635299999999,"velocity":0.3937007874015748},{"duration":0.17045450000000528,"midi":73,"time":39.88635299999999,"velocity":0.3937007874015748},{"duration":0.08522724999999554,"midi":62,"time":40.0568075,"velocity":0.3937007874015748},{"duration":0.426136249999999,"midi":74,"time":40.0568075,"velocity":0.3937007874015748},{"duration":0.08522724999999554,"midi":59,"time":40.0568075,"velocity":0.3937007874015748},{"duration":0.08522724999999554,"midi":42,"time":40.0568075,"velocity":0.3937007874015748},{"duration":0.08522724999999554,"midi":68,"time":40.0568075,"velocity":0.3937007874015748},{"duration":0.08522725000000264,"midi":42,"time":40.14203474999999,"velocity":0.3937007874015748},{"duration":0.2556817500000008,"midi":53,"time":40.227261999999996,"velocity":0.3937007874015748},{"duration":0.17045449999999818,"midi":42,"time":40.227261999999996,"velocity":0.3937007874015748},{"duration":0.08522725000000264,"midi":68,"time":40.397716499999994,"velocity":0.3937007874015748},{"duration":0.08522725000000264,"midi":42,"time":40.397716499999994,"velocity":0.3937007874015748},{"duration":0.08522725000000264,"midi":59,"time":40.397716499999994,"velocity":0.3937007874015748},{"duration":0.08522725000000264,"midi":62,"time":40.397716499999994,"velocity":0.3937007874015748},{"duration":0.08522724999999554,"midi":42,"time":40.48294375,"velocity":0.3937007874015748},{"duration":0.17045450000000528,"midi":42,"time":40.56817099999999,"velocity":0.3937007874015748},{"duration":0.17045450000000528,"midi":73,"time":40.56817099999999,"velocity":0.3937007874015748},{"duration":0.2556817500000008,"midi":47,"time":40.56817099999999,"velocity":0.3937007874015748},{"duration":0.08522724999999554,"midi":59,"time":40.7386255,"velocity":0.3937007874015748},{"duration":0.08522724999999554,"midi":68,"time":40.7386255,"velocity":0.3937007874015748},{"duration":0.17045449999999818,"midi":71,"time":40.7386255,"velocity":0.3937007874015748},{"duration":0.08522724999999554,"midi":42,"time":40.7386255,"velocity":0.3937007874015748},{"duration":0.08522724999999554,"midi":62,"time":40.7386255,"velocity":0.3937007874015748},{"duration":0.08522725000000264,"midi":42,"time":40.82385274999999,"velocity":0.3937007874015748},{"duration":0.2556817500000008,"midi":69,"time":40.909079999999996,"velocity":0.3937007874015748},{"duration":0.17045449999999818,"midi":42,"time":40.909079999999996,"velocity":0.3937007874015748},{"duration":0.2556817500000008,"midi":54,"time":40.909079999999996,"velocity":0.3937007874015748},{"duration":0.426136249999999,"midi":69,"time":40.909079999999996,"velocity":0.3937007874015748},{"duration":0.08522725000000264,"midi":61,"time":41.079534499999994,"velocity":0.3937007874015748},{"duration":0.08522725000000264,"midi":64,"time":41.079534499999994,"velocity":0.3937007874015748},{"duration":0.08522725000000264,"midi":42,"time":41.079534499999994,"velocity":0.3937007874015748},{"duration":0.426136249999999,"midi":69,"time":41.079534499999994,"velocity":0.3937007874015748},{"duration":0.08522724999999554,"midi":42,"time":41.16476175,"velocity":0.3937007874015748},{"duration":0.2556817500000008,"midi":54,"time":41.24998899999999,"velocity":0.3937007874015748},{"duration":0.17045450000000528,"midi":42,"time":41.24998899999999,"velocity":0.3937007874015748},{"duration":0.08522724999999554,"midi":42,"time":41.4204435,"velocity":0.3937007874015748},{"duration":0.08522724999999554,"midi":64,"time":41.4204435,"velocity":0.3937007874015748},{"duration":0.426136249999999,"midi":69,"time":41.4204435,"velocity":0.3937007874015748},{"duration":0.08522724999999554,"midi":61,"time":41.4204435,"velocity":0.3937007874015748},{"duration":0.426136249999999,"midi":69,"time":41.4204435,"velocity":0.3937007874015748},{"duration":0.08522725000000264,"midi":42,"time":41.50567074999999,"velocity":0.3937007874015748},{"duration":0.2556817500000008,"midi":53,"time":41.590897999999996,"velocity":0.3937007874015748},{"duration":0.17045449999999818,"midi":42,"time":41.590897999999996,"velocity":0.3937007874015748},{"duration":0.08522725000000264,"midi":60,"time":41.761352499999994,"velocity":0.3937007874015748},{"duration":0.08522725000000264,"midi":65,"time":41.761352499999994,"velocity":0.3937007874015748},{"duration":0.426136249999999,"midi":69,"time":41.761352499999994,"velocity":0.3937007874015748},{"duration":0.08522725000000264,"midi":42,"time":41.761352499999994,"velocity":0.3937007874015748},{"duration":0.08522724999999554,"midi":42,"time":41.84657975,"velocity":0.3937007874015748},{"duration":0.2556817500000008,"midi":53,"time":41.93180699999999,"velocity":0.3937007874015748},{"duration":0.5113635000000016,"midi":57,"time":41.93180699999999,"velocity":0.3937007874015748},{"duration":0.17045450000000528,"midi":42,"time":41.93180699999999,"velocity":0.3937007874015748},{"duration":0.08522724999999554,"midi":69,"time":42.1022615,"velocity":0.3937007874015748},{"duration":0.08522724999999554,"midi":42,"time":42.1022615,"velocity":0.3937007874015748},{"duration":0.08522724999999554,"midi":60,"time":42.1022615,"velocity":0.3937007874015748},{"duration":0.08522724999999554,"midi":65,"time":42.1022615,"velocity":0.3937007874015748},{"duration":0.08522725000000264,"midi":42,"time":42.18748874999999,"velocity":0.3937007874015748},{"duration":0.5965907499999972,"midi":81,"time":42.272715999999996,"velocity":0.3937007874015748},{"duration":0.2556817500000008,"midi":52,"time":42.272715999999996,"velocity":0.3937007874015748},{"duration":0.17045449999999818,"midi":42,"time":42.272715999999996,"velocity":0.3937007874015748},{"duration":0.426136249999999,"midi":69,"time":42.443170499999994,"velocity":0.3937007874015748},{"duration":0.08522725000000264,"midi":59,"time":42.443170499999994,"velocity":0.3937007874015748},{"duration":0.08522725000000264,"midi":61,"time":42.443170499999994,"velocity":0.3937007874015748},{"duration":0.08522725000000264,"midi":42,"time":42.443170499999994,"velocity":0.3937007874015748},{"duration":0.08522725000000264,"midi":64,"time":42.443170499999994,"velocity":0.3937007874015748},{"duration":0.08522725000000264,"midi":67,"time":42.443170499999994,"velocity":0.3937007874015748},{"duration":0.08522724999999554,"midi":42,"time":42.528397749999996,"velocity":0.3937007874015748},{"duration":0.17045450000000528,"midi":42,"time":42.61362499999999,"velocity":0.3937007874015748},{"duration":0.2556817500000008,"midi":52,"time":42.61362499999999,"velocity":0.3937007874015748},{"duration":0.08522724999999554,"midi":59,"time":42.7840795,"velocity":0.3937007874015748},{"duration":0.08522724999999554,"midi":61,"time":42.7840795,"velocity":0.3937007874015748},{"duration":0.08522724999999554,"midi":42,"time":42.7840795,"velocity":0.3937007874015748},{"duration":0.08522724999999554,"midi":64,"time":42.7840795,"velocity":0.3937007874015748},{"duration":0.08522724999999554,"midi":67,"time":42.7840795,"velocity":0.3937007874015748},{"duration":0.08522725000000264,"midi":42,"time":42.86930674999999,"velocity":0.3937007874015748},{"duration":0.17045449999999818,"midi":42,"time":42.954533999999995,"velocity":0.3937007874015748},{"duration":0.2556817500000008,"midi":51,"time":42.954533999999995,"velocity":0.3937007874015748},{"duration":0.2556817500000008,"midi":57,"time":42.954533999999995,"velocity":0.3937007874015748},{"duration":0.5965907499999972,"midi":73,"time":42.954533999999995,"velocity":0.3937007874015748},{"duration":0.08522725000000264,"midi":42,"time":43.12498849999999,"velocity":0.3937007874015748},{"duration":0.08522725000000264,"midi":64,"time":43.12498849999999,"velocity":0.3937007874015748},{"duration":0.08522725000000264,"midi":61,"time":43.12498849999999,"velocity":0.3937007874015748},{"duration":0.08522725000000264,"midi":58,"time":43.12498849999999,"velocity":0.3937007874015748},{"duration":0.08522725000000264,"midi":67,"time":43.12498849999999,"velocity":0.3937007874015748},{"duration":0.08522724999999554,"midi":42,"time":43.210215749999996,"velocity":0.3937007874015748},{"duration":0.17045450000000528,"midi":42,"time":43.29544299999999,"velocity":0.3937007874015748},{"duration":0.2556817500000008,"midi":51,"time":43.29544299999999,"velocity":0.3937007874015748},{"duration":0.2556817500000008,"midi":64,"time":43.29544299999999,"velocity":0.3937007874015748},{"duration":0.08522724999999554,"midi":67,"time":43.4658975,"velocity":0.3937007874015748},{"duration":0.08522724999999554,"midi":58,"time":43.4658975,"velocity":0.3937007874015748},{"duration":0.08522724999999554,"midi":42,"time":43.4658975,"velocity":0.3937007874015748},{"duration":0.08522724999999554,"midi":64,"time":43.4658975,"velocity":0.3937007874015748},{"duration":0.08522724999999554,"midi":61,"time":43.4658975,"velocity":0.3937007874015748},{"duration":0.08522725000000264,"midi":42,"time":43.55112474999999,"velocity":0.3937007874015748},{"duration":0.2556817500000008,"midi":62,"time":43.636351999999995,"velocity":0.3937007874015748},{"duration":0.2556817500000008,"midi":50,"time":43.636351999999995,"velocity":0.3937007874015748},{"duration":1.5340904999999978,"midi":74,"time":43.636351999999995,"velocity":0.3937007874015748},{"duration":0.17045449999999818,"midi":42,"time":43.636351999999995,"velocity":0.3937007874015748},{"duration":0.426136249999999,"midi":62,"time":43.80680649999999,"velocity":0.3937007874015748},{"duration":0.08522725000000264,"midi":42,"time":43.80680649999999,"velocity":0.3937007874015748},{"duration":0.08522725000000264,"midi":57,"time":43.80680649999999,"velocity":0.3937007874015748},{"duration":0.08522725000000264,"midi":66,"time":43.80680649999999,"velocity":0.3937007874015748},{"duration":0.08522725000000264,"midi":42,"time":43.892033749999996,"velocity":0.3937007874015748},{"duration":0.17045449999999818,"midi":42,"time":43.977261,"velocity":0.3937007874015748},{"duration":0.17045449999999818,"midi":47,"time":43.977261,"velocity":0.3937007874015748},{"duration":0.08522724999999554,"midi":66,"time":44.1477155,"velocity":0.3937007874015748},{"duration":0.426136249999999,"midi":62,"time":44.1477155,"velocity":0.3937007874015748},{"duration":0.17045449999999818,"midi":49,"time":44.1477155,"velocity":0.3937007874015748},{"duration":0.08522724999999554,"midi":57,"time":44.1477155,"velocity":0.3937007874015748},{"duration":0.08522724999999554,"midi":42,"time":44.1477155,"velocity":0.3937007874015748},{"duration":0.08522725000000264,"midi":42,"time":44.23294274999999,"velocity":0.3937007874015748},{"duration":0.17045449999999818,"midi":42,"time":44.318169999999995,"velocity":0.3937007874015748},{"duration":0.2556817500000008,"midi":50,"time":44.318169999999995,"velocity":0.3937007874015748},{"duration":0.08522725000000264,"midi":66,"time":44.48862449999999,"velocity":0.3937007874015748},{"duration":0.08522725000000264,"midi":42,"time":44.48862449999999,"velocity":0.3937007874015748},{"duration":0.08522725000000264,"midi":57,"time":44.48862449999999,"velocity":0.3937007874015748},{"duration":0.426136249999999,"midi":62,"time":44.48862449999999,"velocity":0.3937007874015748},{"duration":0.08522725000000264,"midi":42,"time":44.573851749999996,"velocity":0.3937007874015748},{"duration":0.17045449999999818,"midi":42,"time":44.659079,"velocity":0.3937007874015748},{"duration":0.2556817499999937,"midi":45,"time":44.659079,"velocity":0.3937007874015748},{"duration":0.08522724999999554,"midi":57,"time":44.8295335,"velocity":0.3937007874015748},{"duration":0.426136249999999,"midi":62,"time":44.8295335,"velocity":0.3937007874015748},{"duration":0.08522724999999554,"midi":42,"time":44.8295335,"velocity":0.3937007874015748},{"duration":0.08522724999999554,"midi":66,"time":44.8295335,"velocity":0.3937007874015748},{"duration":0.08522725000000264,"midi":42,"time":44.91476074999999,"velocity":0.3937007874015748},{"duration":0.17045449999999818,"midi":42,"time":44.999987999999995,"velocity":0.3937007874015748},{"duration":0.2556817500000008,"midi":50,"time":44.999987999999995,"velocity":0.3937007874015748},{"duration":0.426136249999999,"midi":62,"time":45.17044249999999,"velocity":0.3937007874015748},{"duration":0.08522725000000264,"midi":57,"time":45.17044249999999,"velocity":0.3937007874015748},{"duration":0.17045450000000528,"midi":42,"time":45.17044249999999,"velocity":0.3937007874015748},{"duration":0.08522725000000264,"midi":66,"time":45.17044249999999,"velocity":0.3937007874015748},{"duration":0.17045450000000528,"midi":74,"time":45.17044249999999,"velocity":0.3937007874015748},{"duration":0.2556817499999937,"midi":45,"time":45.340897,"velocity":0.3937007874015748},{"duration":0.17045449999999818,"midi":73,"time":45.340897,"velocity":0.3937007874015748},{"duration":0.17045449999999818,"midi":42,"time":45.340897,"velocity":0.3937007874015748},{"duration":0.17045449999999818,"midi":74,"time":45.511351499999996,"velocity":0.3937007874015748},{"duration":0.08522724999999554,"midi":62,"time":45.511351499999996,"velocity":0.3937007874015748},{"duration":0.08522724999999554,"midi":57,"time":45.511351499999996,"velocity":0.3937007874015748},{"duration":0.17045449999999818,"midi":57,"time":45.511351499999996,"velocity":0.3937007874015748},{"duration":0.17045449999999818,"midi":55,"time":45.511351499999996,"velocity":0.3937007874015748},{"duration":0.08522724999999554,"midi":66,"time":45.511351499999996,"velocity":0.3937007874015748},{"duration":0.17045449999999818,"midi":42,"time":45.681805999999995,"velocity":0.3937007874015748},{"duration":0.2556817500000008,"midi":50,"time":45.681805999999995,"velocity":0.3937007874015748},{"duration":0.17045449999999818,"midi":76,"time":45.681805999999995,"velocity":0.3937007874015748},{"duration":0.08522725000000264,"midi":62,"time":45.85226049999999,"velocity":0.3937007874015748},{"duration":0.08522725000000264,"midi":57,"time":45.85226049999999,"velocity":0.3937007874015748},{"duration":0.08522725000000264,"midi":66,"time":45.85226049999999,"velocity":0.3937007874015748},{"duration":0.17045450000000528,"midi":78,"time":45.85226049999999,"velocity":0.3937007874015748},{"duration":0.17045449999999818,"midi":79,"time":46.022715,"velocity":0.3937007874015748},{"duration":0.17045449999999818,"midi":52,"time":46.022715,"velocity":0.3937007874015748},{"duration":0.17045449999999818,"midi":42,"time":46.022715,"velocity":0.3937007874015748},{"duration":0.08522724999999554,"midi":57,"time":46.193169499999996,"velocity":0.3937007874015748},{"duration":0.17045449999999818,"midi":54,"time":46.193169499999996,"velocity":0.3937007874015748},{"duration":0.17045449999999818,"midi":81,"time":46.193169499999996,"velocity":0.3937007874015748},{"duration":0.08522724999999554,"midi":42,"time":46.193169499999996,"velocity":0.3937007874015748},{"duration":0.08522724999999554,"midi":66,"time":46.193169499999996,"velocity":0.3937007874015748},{"duration":0.08522724999999554,"midi":62,"time":46.193169499999996,"velocity":0.3937007874015748},{"duration":0.08522725000000264,"midi":42,"time":46.27839674999999,"velocity":0.3937007874015748},{"duration":0.5965907499999972,"midi":83,"time":46.363623999999994,"velocity":0.3937007874015748},{"duration":0.2556817500000008,"midi":55,"time":46.363623999999994,"velocity":0.3937007874015748},{"duration":0.17045449999999818,"midi":42,"time":46.363623999999994,"velocity":0.3937007874015748},{"duration":0.08522725000000264,"midi":62,"time":46.53407849999999,"velocity":0.3937007874015748},{"duration":0.08522725000000264,"midi":71,"time":46.53407849999999,"velocity":0.3937007874015748},{"duration":0.08522725000000264,"midi":67,"time":46.53407849999999,"velocity":0.3937007874015748},{"duration":0.08522725000000264,"midi":59,"time":46.53407849999999,"velocity":0.3937007874015748},{"duration":0.17045450000000528,"midi":42,"time":46.53407849999999,"velocity":0.3937007874015748},{"duration":0.2556817499999937,"midi":55,"time":46.704533,"velocity":0.3937007874015748},{"duration":0.17045449999999818,"midi":42,"time":46.704533,"velocity":0.3937007874015748},{"duration":0.08522724999999554,"midi":74,"time":46.704533,"velocity":0.3937007874015748},{"duration":0.17045449999999818,"midi":42,"time":46.874987499999996,"velocity":0.3937007874015748},{"duration":0.08522724999999554,"midi":67,"time":46.874987499999996,"velocity":0.3937007874015748},{"duration":0.08522724999999554,"midi":59,"time":46.874987499999996,"velocity":0.3937007874015748},{"duration":0.08522724999999554,"midi":62,"time":46.874987499999996,"velocity":0.3937007874015748},{"duration":0.08522724999999554,"midi":71,"time":46.874987499999996,"velocity":0.3937007874015748},{"duration":0.5965907499999972,"midi":83,"time":47.045441999999994,"velocity":0.3937007874015748},{"duration":0.17045449999999818,"midi":42,"time":47.045441999999994,"velocity":0.3937007874015748},{"duration":0.08522725000000264,"midi":70,"time":47.045441999999994,"velocity":0.3937007874015748},{"duration":0.2556817500000008,"midi":55,"time":47.045441999999994,"velocity":0.3937007874015748},{"duration":0.08522725000000264,"midi":62,"time":47.21589649999999,"velocity":0.3937007874015748},{"duration":0.17045450000000528,"midi":42,"time":47.21589649999999,"velocity":0.3937007874015748},{"duration":0.08522725000000264,"midi":67,"time":47.21589649999999,"velocity":0.3937007874015748},{"duration":0.08522725000000264,"midi":59,"time":47.21589649999999,"velocity":0.3937007874015748},{"duration":0.08522725000000264,"midi":71,"time":47.21589649999999,"velocity":0.3937007874015748},{"duration":0.17045449999999818,"midi":42,"time":47.386351,"velocity":0.3937007874015748},{"duration":0.2556817499999937,"midi":55,"time":47.386351,"velocity":0.3937007874015748},{"duration":0.08522724999999554,"midi":74,"time":47.386351,"velocity":0.3937007874015748},{"duration":0.08522724999999554,"midi":71,"time":47.556805499999996,"velocity":0.3937007874015748},{"duration":0.08522724999999554,"midi":67,"time":47.556805499999996,"velocity":0.3937007874015748},{"duration":0.08522724999999554,"midi":59,"time":47.556805499999996,"velocity":0.3937007874015748},{"duration":0.08522724999999554,"midi":62,"time":47.556805499999996,"velocity":0.3937007874015748},{"duration":0.17045449999999818,"midi":46,"time":47.556805499999996,"velocity":0.3937007874015748},{"duration":0.17045449999999818,"midi":42,"time":47.727259999999994,"velocity":0.3937007874015748},{"duration":0.2556817500000008,"midi":54,"time":47.727259999999994,"velocity":0.3937007874015748},{"duration":0.5965907499999972,"midi":81,"time":47.727259999999994,"velocity":0.3937007874015748},{"duration":0.08522725000000264,"midi":69,"time":47.89771449999999,"velocity":0.3937007874015748},{"duration":0.08522725000000264,"midi":57,"time":47.89771449999999,"velocity":0.3937007874015748},{"duration":0.08522725000000264,"midi":62,"time":47.89771449999999,"velocity":0.3937007874015748},{"duration":0.08522725000000264,"midi":66,"time":47.89771449999999,"velocity":0.3937007874015748},{"duration":0.17045450000000528,"midi":42,"time":47.89771449999999,"velocity":0.3937007874015748},{"duration":0.17045449999999818,"midi":42,"time":48.068169,"velocity":0.3937007874015748},{"duration":0.08522724999999554,"midi":74,"time":48.068169,"velocity":0.3937007874015748},{"duration":0.2556817499999937,"midi":54,"time":48.068169,"velocity":0.3937007874015748},{"duration":0.17045449999999818,"midi":42,"time":48.238623499999996,"velocity":0.3937007874015748},{"duration":0.08522724999999554,"midi":62,"time":48.238623499999996,"velocity":0.3937007874015748},{"duration":0.08522724999999554,"midi":57,"time":48.238623499999996,"velocity":0.3937007874015748},{"duration":0.08522724999999554,"midi":69,"time":48.238623499999996,"velocity":0.3937007874015748},{"duration":0.08522724999999554,"midi":66,"time":48.238623499999996,"velocity":0.3937007874015748},{"duration":0.2556817500000008,"midi":53,"time":48.409077999999994,"velocity":0.3937007874015748},{"duration":0.17045449999999818,"midi":42,"time":48.409077999999994,"velocity":0.3937007874015748},{"duration":0.2556817500000008,"midi":83,"time":48.409077999999994,"velocity":0.3937007874015748},{"duration":0.08522724999999554,"midi":69,"time":48.49430525,"velocity":0.3937007874015748},{"duration":0.17045450000000528,"midi":42,"time":48.57953249999999,"velocity":0.3937007874015748},{"duration":0.08522725000000264,"midi":65,"time":48.57953249999999,"velocity":0.3937007874015748},{"duration":0.08522725000000264,"midi":57,"time":48.57953249999999,"velocity":0.3937007874015748},{"duration":0.08522725000000264,"midi":62,"time":48.57953249999999,"velocity":0.3937007874015748},{"duration":0.2556817499999937,"midi":53,"time":48.749987,"velocity":0.3937007874015748},{"duration":0.08522724999999554,"midi":74,"time":48.749987,"velocity":0.3937007874015748},{"duration":0.17045449999999818,"midi":42,"time":48.749987,"velocity":0.3937007874015748},{"duration":0.2556817499999937,"midi":78,"time":48.749987,"velocity":0.3937007874015748},{"duration":0.08522724999999554,"midi":65,"time":48.920441499999995,"velocity":0.3937007874015748},{"duration":0.08522724999999554,"midi":57,"time":48.920441499999995,"velocity":0.3937007874015748},{"duration":0.08522724999999554,"midi":69,"time":48.920441499999995,"velocity":0.3937007874015748},{"duration":0.17045449999999818,"midi":46,"time":48.920441499999995,"velocity":0.3937007874015748},{"duration":0.08522724999999554,"midi":62,"time":48.920441499999995,"velocity":0.3937007874015748},{"duration":0.17045449999999818,"midi":42,"time":49.090895999999994,"velocity":0.3937007874015748},{"duration":0.5965907500000043,"midi":79,"time":49.090895999999994,"velocity":0.3937007874015748},{"duration":0.2556817500000008,"midi":52,"time":49.090895999999994,"velocity":0.3937007874015748},{"duration":0.17045450000000528,"midi":42,"time":49.26135049999999,"velocity":0.3937007874015748},{"duration":0.08522725000000264,"midi":59,"time":49.26135049999999,"velocity":0.3937007874015748},{"duration":0.08522725000000264,"midi":67,"time":49.26135049999999,"velocity":0.3937007874015748},{"duration":0.08522725000000264,"midi":64,"time":49.26135049999999,"velocity":0.3937007874015748},{"duration":0.08522725000000264,"midi":67,"time":49.26135049999999,"velocity":0.3937007874015748},{"duration":0.2556817500000008,"midi":52,"time":49.431805,"velocity":0.3937007874015748},{"duration":0.17045449999999818,"midi":42,"time":49.431805,"velocity":0.3937007874015748},{"duration":0.08522724999999554,"midi":74,"time":49.431805,"velocity":0.3937007874015748},{"duration":0.08522725000000264,"midi":64,"time":49.602259499999995,"velocity":0.3937007874015748},{"duration":0.08522725000000264,"midi":67,"time":49.602259499999995,"velocity":0.3937007874015748},{"duration":0.08522725000000264,"midi":59,"time":49.602259499999995,"velocity":0.3937007874015748},{"duration":0.17045449999999818,"midi":42,"time":49.602259499999995,"velocity":0.3937007874015748},{"duration":0.08522725000000264,"midi":67,"time":49.602259499999995,"velocity":0.3937007874015748},{"duration":0.17045449999999818,"midi":42,"time":49.77271399999999,"velocity":0.3937007874015748},{"duration":0.2556817500000008,"midi":51,"time":49.77271399999999,"velocity":0.3937007874015748},{"duration":0.08522725000000264,"midi":66,"time":49.77271399999999,"velocity":0.3937007874015748},{"duration":0.5965907500000043,"midi":81,"time":49.77271399999999,"velocity":0.3937007874015748},{"duration":0.17045450000000528,"midi":42,"time":49.94316849999999,"velocity":0.3937007874015748},{"duration":0.08522725000000264,"midi":61,"time":49.94316849999999,"velocity":0.3937007874015748},{"duration":0.08522725000000264,"midi":66,"time":49.94316849999999,"velocity":0.3937007874015748},{"duration":0.08522725000000264,"midi":69,"time":49.94316849999999,"velocity":0.3937007874015748},{"duration":0.08522725000000264,"midi":67,"time":49.94316849999999,"velocity":0.3937007874015748},{"duration":0.08522724999999554,"midi":74,"time":50.113623,"velocity":0.3937007874015748},{"duration":0.2556817500000008,"midi":51,"time":50.113623,"velocity":0.3937007874015748},{"duration":0.17045449999999818,"midi":42,"time":50.113623,"velocity":0.3937007874015748},{"duration":0.08522725000000264,"midi":69,"time":50.284077499999995,"velocity":0.3937007874015748},{"duration":0.08522725000000264,"midi":66,"time":50.284077499999995,"velocity":0.3937007874015748},{"duration":0.08522725000000264,"midi":66,"time":50.284077499999995,"velocity":0.3937007874015748},{"duration":0.08522725000000264,"midi":61,"time":50.284077499999995,"velocity":0.3937007874015748},{"duration":0.17045449999999818,"midi":42,"time":50.284077499999995,"velocity":0.3937007874015748},{"duration":0.852272499999998,"midi":78,"time":50.45453199999999,"velocity":0.3937007874015748},{"duration":0.17045449999999818,"midi":42,"time":50.45453199999999,"velocity":0.3937007874015748},{"duration":0.2556817500000008,"midi":50,"time":50.45453199999999,"velocity":0.3937007874015748},{"duration":0.08522725000000264,"midi":69,"time":50.62498649999999,"velocity":0.3937007874015748},{"duration":0.08522725000000264,"midi":66,"time":50.62498649999999,"velocity":0.3937007874015748},{"duration":0.08522725000000264,"midi":62,"time":50.62498649999999,"velocity":0.3937007874015748},{"duration":0.08522725000000264,"midi":66,"time":50.62498649999999,"velocity":0.3937007874015748},{"duration":0.17045450000000528,"midi":42,"time":50.62498649999999,"velocity":0.3937007874015748},{"duration":0.08522724999999554,"midi":74,"time":50.795441,"velocity":0.3937007874015748},{"duration":0.17045449999999818,"midi":42,"time":50.795441,"velocity":0.3937007874015748},{"duration":0.2556817500000008,"midi":45,"time":50.795441,"velocity":0.3937007874015748},{"duration":0.08522725000000264,"midi":66,"time":50.965895499999995,"velocity":0.3937007874015748},{"duration":0.08522725000000264,"midi":66,"time":50.965895499999995,"velocity":0.3937007874015748},{"duration":0.17045449999999818,"midi":42,"time":50.965895499999995,"velocity":0.3937007874015748},{"duration":0.08522725000000264,"midi":62,"time":50.965895499999995,"velocity":0.3937007874015748},{"duration":0.08522725000000264,"midi":69,"time":50.965895499999995,"velocity":0.3937007874015748},{"duration":0.08522725000000264,"midi":65,"time":51.13634999999999,"velocity":0.3937007874015748},{"duration":0.17045449999999818,"midi":42,"time":51.13634999999999,"velocity":0.3937007874015748},{"duration":0.2556817500000008,"midi":50,"time":51.13634999999999,"velocity":0.3937007874015748},{"duration":0.08522725000000264,"midi":62,"time":51.30680449999999,"velocity":0.3937007874015748},{"duration":0.08522725000000264,"midi":66,"time":51.30680449999999,"velocity":0.3937007874015748},{"duration":0.08522725000000264,"midi":69,"time":51.30680449999999,"velocity":0.3937007874015748},{"duration":0.08522725000000264,"midi":66,"time":51.30680449999999,"velocity":0.3937007874015748},{"duration":0.17045450000000528,"midi":81,"time":51.30680449999999,"velocity":0.3937007874015748},{"duration":0.17045450000000528,"midi":42,"time":51.30680449999999,"velocity":0.3937007874015748},{"duration":0.17045449999999818,"midi":52,"time":51.477259,"velocity":0.3937007874015748},{"duration":0.17045449999999818,"midi":83,"time":51.477259,"velocity":0.3937007874015748},{"duration":0.17045449999999818,"midi":42,"time":51.477259,"velocity":0.3937007874015748},{"duration":0.08522724999999554,"midi":67,"time":51.477259,"velocity":0.3937007874015748},{"duration":0.08522725000000264,"midi":69,"time":51.647713499999995,"velocity":0.3937007874015748},{"duration":0.17045449999999818,"midi":54,"time":51.647713499999995,"velocity":0.3937007874015748},{"duration":0.17045449999999818,"midi":85,"time":51.647713499999995,"velocity":0.3937007874015748},{"duration":0.08522725000000264,"midi":62,"time":51.647713499999995,"velocity":0.3937007874015748},{"duration":0.17045449999999818,"midi":42,"time":51.647713499999995,"velocity":0.3937007874015748},{"duration":0.08522725000000264,"midi":66,"time":51.647713499999995,"velocity":0.3937007874015748},{"duration":0.08522725000000264,"midi":69,"time":51.647713499999995,"velocity":0.3937007874015748},{"duration":0.2556817500000008,"midi":55,"time":51.81816799999999,"velocity":0.3937007874015748},{"duration":0.17045449999999818,"midi":42,"time":51.81816799999999,"velocity":0.3937007874015748},{"duration":0.852272499999998,"midi":86,"time":51.81816799999999,"velocity":0.3937007874015748},{"duration":0.17045450000000528,"midi":42,"time":51.98862249999999,"velocity":0.3937007874015748},{"duration":0.08522725000000264,"midi":71,"time":51.98862249999999,"velocity":0.3937007874015748},{"duration":0.08522725000000264,"midi":67,"time":51.98862249999999,"velocity":0.3937007874015748},{"duration":0.08522725000000264,"midi":71,"time":51.98862249999999,"velocity":0.3937007874015748},{"duration":0.08522725000000264,"midi":62,"time":51.98862249999999,"velocity":0.3937007874015748},{"duration":0.08522724999999554,"midi":74,"time":52.159076999999996,"velocity":0.3937007874015748},{"duration":0.2556817500000008,"midi":55,"time":52.159076999999996,"velocity":0.3937007874015748},{"duration":0.17045449999999818,"midi":42,"time":52.159076999999996,"velocity":0.3937007874015748},{"duration":0.17045449999999818,"midi":42,"time":52.329531499999995,"velocity":0.3937007874015748},{"duration":0.08522725000000264,"midi":71,"time":52.329531499999995,"velocity":0.3937007874015748},{"duration":0.08522725000000264,"midi":67,"time":52.329531499999995,"velocity":0.3937007874015748},{"duration":0.08522725000000264,"midi":62,"time":52.329531499999995,"velocity":0.3937007874015748},{"duration":0.08522725000000264,"midi":71,"time":52.329531499999995,"velocity":0.3937007874015748},{"duration":0.17045449999999818,"midi":42,"time":52.49998599999999,"velocity":0.3937007874015748},{"duration":0.08522725000000264,"midi":70,"time":52.49998599999999,"velocity":0.3937007874015748},{"duration":0.2556817500000008,"midi":55,"time":52.49998599999999,"velocity":0.3937007874015748},{"duration":0.08522725000000264,"midi":62,"time":52.67044049999999,"velocity":0.3937007874015748},{"duration":0.08522725000000264,"midi":71,"time":52.67044049999999,"velocity":0.3937007874015748},{"duration":0.17045450000000528,"midi":85,"time":52.67044049999999,"velocity":0.3937007874015748},{"duration":0.08522725000000264,"midi":67,"time":52.67044049999999,"velocity":0.3937007874015748},{"duration":0.17045450000000528,"midi":42,"time":52.67044049999999,"velocity":0.3937007874015748},{"duration":0.08522725000000264,"midi":71,"time":52.67044049999999,"velocity":0.3937007874015748},{"duration":0.17045449999999818,"midi":86,"time":52.840894999999996,"velocity":0.3937007874015748},{"duration":0.08522724999999554,"midi":74,"time":52.840894999999996,"velocity":0.3937007874015748},{"duration":0.2556817500000008,"midi":55,"time":52.840894999999996,"velocity":0.3937007874015748},{"duration":0.17045449999999818,"midi":42,"time":52.840894999999996,"velocity":0.3937007874015748},{"duration":0.17045449999999818,"midi":88,"time":53.011349499999994,"velocity":0.3937007874015748},{"duration":0.17045449999999818,"midi":46,"time":53.011349499999994,"velocity":0.3937007874015748},{"duration":0.08522725000000264,"midi":71,"time":53.011349499999994,"velocity":0.3937007874015748},{"duration":0.08522725000000264,"midi":62,"time":53.011349499999994,"velocity":0.3937007874015748},{"duration":0.08522725000000264,"midi":67,"time":53.011349499999994,"velocity":0.3937007874015748},{"duration":0.08522725000000264,"midi":71,"time":53.011349499999994,"velocity":0.3937007874015748},{"duration":0.5965907500000043,"midi":90,"time":53.18180399999999,"velocity":0.3937007874015748},{"duration":0.2556817500000008,"midi":54,"time":53.18180399999999,"velocity":0.3937007874015748},{"duration":0.17045449999999818,"midi":42,"time":53.18180399999999,"velocity":0.3937007874015748},{"duration":0.08522725000000264,"midi":69,"time":53.35225849999999,"velocity":0.3937007874015748},{"duration":0.08522725000000264,"midi":66,"time":53.35225849999999,"velocity":0.3937007874015748},{"duration":0.08522725000000264,"midi":69,"time":53.35225849999999,"velocity":0.3937007874015748},{"duration":0.17045450000000528,"midi":42,"time":53.35225849999999,"velocity":0.3937007874015748},{"duration":0.08522725000000264,"midi":62,"time":53.35225849999999,"velocity":0.3937007874015748},{"duration":0.17045449999999818,"midi":42,"time":53.522712999999996,"velocity":0.3937007874015748},{"duration":0.17045449999999818,"midi":50,"time":53.522712999999996,"velocity":0.3937007874015748},{"duration":0.08522724999999554,"midi":74,"time":53.522712999999996,"velocity":0.3937007874015748},{"duration":0.17045449999999818,"midi":52,"time":53.693167499999994,"velocity":0.3937007874015748},{"duration":0.08522725000000264,"midi":69,"time":53.693167499999994,"velocity":0.3937007874015748},{"duration":0.17045449999999818,"midi":42,"time":53.693167499999994,"velocity":0.3937007874015748},{"duration":0.08522725000000264,"midi":66,"time":53.693167499999994,"velocity":0.3937007874015748},{"duration":0.08522725000000264,"midi":69,"time":53.693167499999994,"velocity":0.3937007874015748},{"duration":0.08522725000000264,"midi":62,"time":53.693167499999994,"velocity":0.3937007874015748},{"duration":0.17045449999999818,"midi":42,"time":53.86362199999999,"velocity":0.3937007874015748},{"duration":0.2556817500000008,"midi":81,"time":53.86362199999999,"velocity":0.3937007874015748},{"duration":0.08522725000000264,"midi":68,"time":53.86362199999999,"velocity":0.3937007874015748},{"duration":0.2556817500000008,"midi":53,"time":53.86362199999999,"velocity":0.3937007874015748},{"duration":0.08522725000000264,"midi":65,"time":54.03407649999999,"velocity":0.3937007874015748},{"duration":0.08522725000000264,"midi":69,"time":54.03407649999999,"velocity":0.3937007874015748},{"duration":0.08522725000000264,"midi":69,"time":54.03407649999999,"velocity":0.3937007874015748},{"duration":0.08522725000000264,"midi":62,"time":54.03407649999999,"velocity":0.3937007874015748},{"duration":0.17045450000000528,"midi":42,"time":54.03407649999999,"velocity":0.3937007874015748},{"duration":0.08522724999999554,"midi":74,"time":54.204530999999996,"velocity":0.3937007874015748},{"duration":0.2556817500000008,"midi":90,"time":54.204530999999996,"velocity":0.3937007874015748},{"duration":0.17045449999999818,"midi":42,"time":54.204530999999996,"velocity":0.3937007874015748},{"duration":0.2556817500000008,"midi":53,"time":54.204530999999996,"velocity":0.3937007874015748},{"duration":0.17045449999999818,"midi":42,"time":54.374985499999994,"velocity":0.3937007874015748},{"duration":0.08522725000000264,"midi":65,"time":54.374985499999994,"velocity":0.3937007874015748},{"duration":0.08522725000000264,"midi":69,"time":54.374985499999994,"velocity":0.3937007874015748},{"duration":0.08522725000000264,"midi":69,"time":54.374985499999994,"velocity":0.3937007874015748},{"duration":0.08522725000000264,"midi":62,"time":54.374985499999994,"velocity":0.3937007874015748},{"duration":0.2556817500000008,"midi":52,"time":54.54543999999999,"velocity":0.3937007874015748},{"duration":0.5965907500000043,"midi":88,"time":54.54543999999999,"velocity":0.3937007874015748},{"duration":0.17045450000000528,"midi":42,"time":54.54543999999999,"velocity":0.3937007874015748},{"duration":0.08522724999999554,"midi":61,"time":54.7158945,"velocity":0.3937007874015748},{"duration":0.08522724999999554,"midi":64,"time":54.7158945,"velocity":0.3937007874015748},{"duration":0.08522724999999554,"midi":67,"time":54.7158945,"velocity":0.3937007874015748},{"duration":0.17045449999999818,"midi":42,"time":54.7158945,"velocity":0.3937007874015748},{"duration":0.08522724999999554,"midi":67,"time":54.7158945,"velocity":0.3937007874015748},{"duration":0.2556817500000008,"midi":52,"time":54.886348999999996,"velocity":0.3937007874015748},{"duration":0.17045449999999818,"midi":42,"time":54.886348999999996,"velocity":0.3937007874015748},{"duration":0.17045449999999818,"midi":42,"time":55.056803499999994,"velocity":0.3937007874015748},{"duration":0.08522725000000264,"midi":61,"time":55.056803499999994,"velocity":0.3937007874015748},{"duration":0.08522725000000264,"midi":67,"time":55.056803499999994,"velocity":0.3937007874015748},{"duration":0.08522725000000264,"midi":64,"time":55.056803499999994,"velocity":0.3937007874015748},{"duration":0.08522725000000264,"midi":67,"time":55.056803499999994,"velocity":0.3937007874015748},{"duration":0.2556817500000008,"midi":51,"time":55.22725799999999,"velocity":0.3937007874015748},{"duration":0.08522725000000264,"midi":66,"time":55.22725799999999,"velocity":0.3937007874015748},{"duration":0.2556817500000008,"midi":86,"time":55.22725799999999,"velocity":0.3937007874015748},{"duration":0.17045450000000528,"midi":42,"time":55.22725799999999,"velocity":0.3937007874015748},{"duration":0.08522724999999554,"midi":64,"time":55.3977125,"velocity":0.3937007874015748},{"duration":0.08522724999999554,"midi":67,"time":55.3977125,"velocity":0.3937007874015748},{"duration":0.17045449999999818,"midi":42,"time":55.3977125,"velocity":0.3937007874015748},{"duration":0.08522724999999554,"midi":61,"time":55.3977125,"velocity":0.3937007874015748},{"duration":0.08522724999999554,"midi":67,"time":55.3977125,"velocity":0.3937007874015748},{"duration":0.2556817500000008,"midi":51,"time":55.568166999999995,"velocity":0.3937007874015748},{"duration":0.08522724999999554,"midi":74,"time":55.568166999999995,"velocity":0.3937007874015748},{"duration":0.2556817500000008,"midi":85,"time":55.568166999999995,"velocity":0.3937007874015748},{"duration":0.17045449999999818,"midi":42,"time":55.568166999999995,"velocity":0.3937007874015748},{"duration":0.08522725000000264,"midi":64,"time":55.738621499999994,"velocity":0.3937007874015748},{"duration":0.08522725000000264,"midi":67,"time":55.738621499999994,"velocity":0.3937007874015748},{"duration":0.08522725000000264,"midi":66,"time":55.738621499999994,"velocity":0.3937007874015748},{"duration":0.17045449999999818,"midi":42,"time":55.738621499999994,"velocity":0.3937007874015748},{"duration":0.08522725000000264,"midi":61,"time":55.738621499999994,"velocity":0.3937007874015748},{"duration":1.278408750000004,"midi":86,"time":55.90907599999999,"velocity":0.3937007874015748},{"duration":0.17045450000000528,"midi":42,"time":55.90907599999999,"velocity":0.3937007874015748},{"duration":0.2556817500000008,"midi":50,"time":55.90907599999999,"velocity":0.3937007874015748},{"duration":0.08522724999999554,"midi":66,"time":56.0795305,"velocity":0.3937007874015748},{"duration":0.17045449999999818,"midi":42,"time":56.0795305,"velocity":0.3937007874015748},{"duration":0.08522724999999554,"midi":69,"time":56.0795305,"velocity":0.3937007874015748},{"duration":0.08522724999999554,"midi":66,"time":56.0795305,"velocity":0.3937007874015748},{"duration":0.08522724999999554,"midi":62,"time":56.0795305,"velocity":0.3937007874015748},{"duration":0.17045449999999818,"midi":42,"time":56.249984999999995,"velocity":0.3937007874015748},{"duration":0.2556817500000008,"midi":45,"time":56.249984999999995,"velocity":0.3937007874015748},{"duration":0.08522724999999554,"midi":74,"time":56.249984999999995,"velocity":0.3937007874015748},{"duration":0.17045449999999818,"midi":46,"time":56.42043949999999,"velocity":0.3937007874015748},{"duration":0.08522725000000264,"midi":66,"time":56.42043949999999,"velocity":0.3937007874015748},{"duration":0.08522725000000264,"midi":69,"time":56.42043949999999,"velocity":0.3937007874015748},{"duration":0.08522725000000264,"midi":66,"time":56.42043949999999,"velocity":0.3937007874015748},{"duration":0.08522725000000264,"midi":62,"time":56.42043949999999,"velocity":0.3937007874015748},{"duration":0.17045450000000528,"midi":42,"time":56.59089399999999,"velocity":0.3937007874015748},{"duration":0.08522725000000264,"midi":65,"time":56.59089399999999,"velocity":0.3937007874015748},{"duration":0.2556817500000008,"midi":50,"time":56.59089399999999,"velocity":0.3937007874015748},{"duration":0.08522724999999554,"midi":66,"time":56.7613485,"velocity":0.3937007874015748},{"duration":0.08522724999999554,"midi":66,"time":56.7613485,"velocity":0.3937007874015748},{"duration":0.08522724999999554,"midi":62,"time":56.7613485,"velocity":0.3937007874015748},{"duration":0.17045449999999818,"midi":42,"time":56.7613485,"velocity":0.3937007874015748},{"duration":0.08522724999999554,"midi":69,"time":56.7613485,"velocity":0.3937007874015748},{"duration":0.17045449999999818,"midi":42,"time":56.931802999999995,"velocity":0.3937007874015748},{"duration":0.08522724999999554,"midi":67,"time":56.931802999999995,"velocity":0.3937007874015748},{"duration":0.2556817500000008,"midi":45,"time":56.931802999999995,"velocity":0.3937007874015748},{"duration":0.08522725000000264,"midi":66,"time":57.10225749999999,"velocity":0.3937007874015748},{"duration":0.08522725000000264,"midi":42,"time":57.10225749999999,"velocity":0.3937007874015748},{"duration":0.08522725000000264,"midi":62,"time":57.10225749999999,"velocity":0.3937007874015748},{"duration":0.08522725000000264,"midi":69,"time":57.10225749999999,"velocity":0.3937007874015748},{"duration":0.08522725000000264,"midi":69,"time":57.10225749999999,"velocity":0.3937007874015748},{"duration":0.08522724999999554,"midi":42,"time":57.187484749999996,"velocity":0.3937007874015748},{"duration":0.17045450000000528,"midi":57,"time":57.27271199999999,"velocity":0.3937007874015748},{"duration":0.17045450000000528,"midi":42,"time":57.27271199999999,"velocity":0.3937007874015748},{"duration":0.17045450000000528,"midi":55,"time":57.27271199999999,"velocity":0.3937007874015748},{"duration":0.08522725000000264,"midi":61,"time":57.27271199999999,"velocity":0.3937007874015748},{"duration":0.2556817500000008,"midi":50,"time":57.27271199999999,"velocity":0.3937007874015748},{"duration":0.08522725000000264,"midi":62,"time":57.357939249999994,"velocity":0.3937007874015748},{"duration":0.08522724999999554,"midi":66,"time":57.4431665,"velocity":0.3937007874015748},{"duration":0.08522724999999554,"midi":62,"time":57.4431665,"velocity":0.3937007874015748},{"duration":0.08522724999999554,"midi":61,"time":57.4431665,"velocity":0.3937007874015748},{"duration":0.08522724999999554,"midi":57,"time":57.4431665,"velocity":0.3937007874015748},{"duration":0.08522724999999554,"midi":42,"time":57.4431665,"velocity":0.3937007874015748},{"duration":0.08522725000000264,"midi":62,"time":57.52839374999999,"velocity":0.3937007874015748},{"duration":0.08522725000000264,"midi":42,"time":57.52839374999999,"velocity":0.3937007874015748},{"duration":0.08522724999999554,"midi":64,"time":57.613620999999995,"velocity":0.3937007874015748},{"duration":0.17045449999999818,"midi":42,"time":57.613620999999995,"velocity":0.3937007874015748},{"duration":0.2556817500000008,"midi":48,"time":57.613620999999995,"velocity":0.3937007874015748},{"duration":0.08522725000000264,"midi":62,"time":57.69884824999999,"velocity":0.3937007874015748},{"duration":0.08522725000000264,"midi":62,"time":57.78407549999999,"velocity":0.3937007874015748},{"duration":0.08522725000000264,"midi":42,"time":57.78407549999999,"velocity":0.3937007874015748},{"duration":0.08522725000000264,"midi":66,"time":57.78407549999999,"velocity":0.3937007874015748},{"duration":0.08522725000000264,"midi":57,"time":57.78407549999999,"velocity":0.3937007874015748},{"duration":0.08522725000000264,"midi":61,"time":57.78407549999999,"velocity":0.3937007874015748},{"duration":0.08522724999999554,"midi":42,"time":57.869302749999996,"velocity":0.3937007874015748},{"duration":0.08522724999999554,"midi":62,"time":57.869302749999996,"velocity":0.3937007874015748},{"duration":0.17045450000000528,"midi":42,"time":57.95452999999999,"velocity":0.3937007874015748},{"duration":0.08522725000000264,"midi":61,"time":57.95452999999999,"velocity":0.3937007874015748},{"duration":0.2556817500000008,"midi":47,"time":57.95452999999999,"velocity":0.3937007874015748},{"duration":0.08522725000000264,"midi":62,"time":58.039757249999994,"velocity":0.3937007874015748},{"duration":0.08522724999999554,"midi":61,"time":58.1249845,"velocity":0.3937007874015748},{"duration":0.08522724999999554,"midi":66,"time":58.1249845,"velocity":0.3937007874015748},{"duration":0.08522724999999554,"midi":42,"time":58.1249845,"velocity":0.3937007874015748},{"duration":0.08522724999999554,"midi":62,"time":58.1249845,"velocity":0.3937007874015748},{"duration":0.08522724999999554,"midi":57,"time":58.1249845,"velocity":0.3937007874015748},{"duration":0.08522725000000264,"midi":62,"time":58.21021174999999,"velocity":0.3937007874015748},{"duration":0.08522725000000264,"midi":42,"time":58.21021174999999,"velocity":0.3937007874015748},{"duration":0.08522724999999554,"midi":66,"time":58.295438999999995,"velocity":0.3937007874015748},{"duration":0.2556817500000008,"midi":45,"time":58.295438999999995,"velocity":0.3937007874015748},{"duration":0.08522724999999554,"midi":64,"time":58.295438999999995,"velocity":0.3937007874015748},{"duration":0.17045449999999818,"midi":42,"time":58.295438999999995,"velocity":0.3937007874015748},{"duration":0.08522725000000264,"midi":62,"time":58.38066624999999,"velocity":0.3937007874015748},{"duration":0.08522725000000264,"midi":66,"time":58.46589349999999,"velocity":0.3937007874015748},{"duration":0.08522725000000264,"midi":61,"time":58.46589349999999,"velocity":0.3937007874015748},{"duration":0.08522725000000264,"midi":62,"time":58.46589349999999,"velocity":0.3937007874015748},{"duration":0.08522725000000264,"midi":42,"time":58.46589349999999,"velocity":0.3937007874015748},{"duration":0.08522725000000264,"midi":57,"time":58.46589349999999,"velocity":0.3937007874015748},{"duration":0.08522724999999554,"midi":62,"time":58.551120749999995,"velocity":0.3937007874015748},{"duration":0.08522724999999554,"midi":42,"time":58.551120749999995,"velocity":0.3937007874015748},{"duration":0.2556817500000008,"midi":50,"time":58.63634799999999,"velocity":0.3937007874015748},{"duration":0.08522725000000264,"midi":61,"time":58.63634799999999,"velocity":0.3937007874015748},{"duration":0.17045450000000528,"midi":42,"time":58.63634799999999,"velocity":0.3937007874015748},{"duration":0.08522725000000264,"midi":62,"time":58.721575249999994,"velocity":0.3937007874015748},{"duration":0.08522724999999554,"midi":66,"time":58.806802499999996,"velocity":0.3937007874015748},{"duration":0.08522724999999554,"midi":61,"time":58.806802499999996,"velocity":0.3937007874015748},{"duration":0.08522724999999554,"midi":57,"time":58.806802499999996,"velocity":0.3937007874015748},{"duration":0.08522724999999554,"midi":62,"time":58.806802499999996,"velocity":0.3937007874015748},{"duration":0.08522724999999554,"midi":42,"time":58.806802499999996,"velocity":0.3937007874015748},{"duration":0.08522725000000264,"midi":42,"time":58.89202974999999,"velocity":0.3937007874015748},{"duration":0.08522725000000264,"midi":62,"time":58.89202974999999,"velocity":0.3937007874015748},{"duration":0.17045449999999818,"midi":42,"time":58.977256999999994,"velocity":0.3937007874015748},{"duration":0.2556817500000008,"midi":45,"time":58.977256999999994,"velocity":0.3937007874015748},{"duration":0.08522724999999554,"midi":64,"time":58.977256999999994,"velocity":0.3937007874015748},{"duration":0.08522724999999554,"midi":67,"time":58.977256999999994,"velocity":0.3937007874015748},{"duration":0.08522725000000264,"midi":62,"time":59.06248424999999,"velocity":0.3937007874015748},{"duration":0.08522725000000264,"midi":62,"time":59.14771149999999,"velocity":0.3937007874015748},{"duration":0.08522725000000264,"midi":61,"time":59.14771149999999,"velocity":0.3937007874015748},{"duration":0.08522725000000264,"midi":57,"time":59.14771149999999,"velocity":0.3937007874015748},{"duration":0.08522725000000264,"midi":66,"time":59.14771149999999,"velocity":0.3937007874015748},{"duration":0.08522725000000264,"midi":42,"time":59.14771149999999,"velocity":0.3937007874015748},{"duration":0.08522724999999554,"midi":42,"time":59.232938749999995,"velocity":0.3937007874015748},{"duration":0.08522724999999554,"midi":62,"time":59.232938749999995,"velocity":0.3937007874015748},{"duration":0.17045450000000528,"midi":42,"time":59.31816599999999,"velocity":0.3937007874015748},{"duration":0.08522725000000264,"midi":61,"time":59.31816599999999,"velocity":0.3937007874015748},{"duration":0.2556817500000008,"midi":50,"time":59.31816599999999,"velocity":0.3937007874015748},{"duration":0.08522725000000264,"midi":69,"time":59.31816599999999,"velocity":0.3937007874015748},{"duration":0.08522725000000264,"midi":62,"time":59.40339324999999,"velocity":0.3937007874015748},{"duration":0.08522724999999554,"midi":66,"time":59.488620499999996,"velocity":0.3937007874015748},{"duration":0.08522724999999554,"midi":62,"time":59.488620499999996,"velocity":0.3937007874015748},{"duration":0.08522724999999554,"midi":57,"time":59.488620499999996,"velocity":0.3937007874015748},{"duration":0.08522724999999554,"midi":61,"time":59.488620499999996,"velocity":0.3937007874015748},{"duration":0.08522724999999554,"midi":42,"time":59.488620499999996,"velocity":0.3937007874015748},{"duration":0.08522725000000264,"midi":62,"time":59.57384774999999,"velocity":0.3937007874015748},{"duration":0.08522725000000264,"midi":42,"time":59.57384774999999,"velocity":0.3937007874015748},{"duration":0.08522724999999554,"midi":64,"time":59.659074999999994,"velocity":0.3937007874015748},{"duration":0.17045449999999818,"midi":42,"time":59.659074999999994,"velocity":0.3937007874015748},{"duration":0.17045449999999818,"midi":52,"time":59.659074999999994,"velocity":0.3937007874015748},{"duration":0.08522724999999554,"midi":67,"time":59.659074999999994,"velocity":0.3937007874015748},{"duration":0.08522725000000264,"midi":62,"time":59.74430224999999,"velocity":0.3937007874015748},{"duration":0.08522725000000264,"midi":61,"time":59.82952949999999,"velocity":0.3937007874015748},{"duration":0.08522725000000264,"midi":62,"time":59.82952949999999,"velocity":0.3937007874015748},{"duration":0.17045449999999818,"midi":54,"time":59.82952949999999,"velocity":0.3937007874015748},{"duration":0.08522725000000264,"midi":57,"time":59.82952949999999,"velocity":0.3937007874015748},{"duration":0.08522725000000264,"midi":42,"time":59.82952949999999,"velocity":0.3937007874015748},{"duration":0.08522725000000264,"midi":66,"time":59.82952949999999,"velocity":0.3937007874015748},{"duration":0.08522724999999554,"midi":42,"time":59.914756749999995,"velocity":0.3937007874015748},{"duration":0.08522724999999554,"midi":62,"time":59.914756749999995,"velocity":0.3937007874015748},{"duration":0.2556817500000008,"midi":55,"time":59.99998399999999,"velocity":0.3937007874015748},{"duration":0.17045450000000528,"midi":42,"time":59.99998399999999,"velocity":0.3937007874015748},{"duration":0.08522725000000264,"midi":65,"time":59.99998399999999,"velocity":0.3937007874015748},{"duration":0.08522725000000264,"midi":61,"time":59.99998399999999,"velocity":0.3937007874015748},{"duration":0.08522725000000264,"midi":62,"time":60.08521124999999,"velocity":0.3937007874015748},{"duration":0.08522724999999554,"midi":59,"time":60.170438499999996,"velocity":0.3937007874015748},{"duration":0.08522724999999554,"midi":61,"time":60.170438499999996,"velocity":0.3937007874015748},{"duration":0.08522724999999554,"midi":65,"time":60.170438499999996,"velocity":0.3937007874015748},{"duration":0.08522724999999554,"midi":42,"time":60.170438499999996,"velocity":0.3937007874015748},{"duration":0.08522724999999554,"midi":62,"time":60.170438499999996,"velocity":0.3937007874015748},{"duration":0.08522724999999554,"midi":67,"time":60.170438499999996,"velocity":0.3937007874015748},{"duration":0.08522725000000264,"midi":42,"time":60.25566574999999,"velocity":0.3937007874015748},{"duration":0.08522725000000264,"midi":62,"time":60.25566574999999,"velocity":0.3937007874015748},{"duration":0.2556817500000008,"midi":53,"time":60.340892999999994,"velocity":0.3937007874015748},{"duration":0.17045449999999818,"midi":42,"time":60.340892999999994,"velocity":0.3937007874015748},{"duration":0.08522725000000264,"midi":64,"time":60.340892999999994,"velocity":0.3937007874015748},{"duration":0.08522724999999554,"midi":62,"time":60.42612025,"velocity":0.3937007874015748},{"duration":0.08522725000000264,"midi":59,"time":60.51134749999999,"velocity":0.3937007874015748},{"duration":0.08522725000000264,"midi":62,"time":60.51134749999999,"velocity":0.3937007874015748},{"duration":0.08522725000000264,"midi":42,"time":60.51134749999999,"velocity":0.3937007874015748},{"duration":0.08522725000000264,"midi":65,"time":60.51134749999999,"velocity":0.3937007874015748},{"duration":0.08522725000000264,"midi":67,"time":60.51134749999999,"velocity":0.3937007874015748},{"duration":0.08522725000000264,"midi":61,"time":60.51134749999999,"velocity":0.3937007874015748},{"duration":0.08522724999999554,"midi":62,"time":60.596574749999995,"velocity":0.3937007874015748},{"duration":0.08522724999999554,"midi":42,"time":60.596574749999995,"velocity":0.3937007874015748},{"duration":0.08522725000000264,"midi":61,"time":60.68180199999999,"velocity":0.3937007874015748},{"duration":0.17045450000000528,"midi":42,"time":60.68180199999999,"velocity":0.3937007874015748},{"duration":0.2556817500000008,"midi":52,"time":60.68180199999999,"velocity":0.3937007874015748},{"duration":0.08522725000000264,"midi":62,"time":60.76702924999999,"velocity":0.3937007874015748},{"duration":0.08522724999999554,"midi":65,"time":60.852256499999996,"velocity":0.3937007874015748},{"duration":0.08522724999999554,"midi":42,"time":60.852256499999996,"velocity":0.3937007874015748},{"duration":0.08522724999999554,"midi":61,"time":60.852256499999996,"velocity":0.3937007874015748},{"duration":0.08522724999999554,"midi":62,"time":60.852256499999996,"velocity":0.3937007874015748},{"duration":0.08522724999999554,"midi":59,"time":60.852256499999996,"velocity":0.3937007874015748},{"duration":0.08522724999999554,"midi":67,"time":60.852256499999996,"velocity":0.3937007874015748},{"duration":0.08522725000000264,"midi":62,"time":60.93748374999999,"velocity":0.3937007874015748},{"duration":0.08522725000000264,"midi":42,"time":60.93748374999999,"velocity":0.3937007874015748},{"duration":0.17045449999999818,"midi":42,"time":61.022710999999994,"velocity":0.3937007874015748},{"duration":0.2556817500000008,"midi":50,"time":61.022710999999994,"velocity":0.3937007874015748},{"duration":0.08522725000000264,"midi":64,"time":61.022710999999994,"velocity":0.3937007874015748},{"duration":0.08522724999999554,"midi":62,"time":61.10793825,"velocity":0.3937007874015748},{"duration":0.08522725000000264,"midi":42,"time":61.19316549999999,"velocity":0.3937007874015748},{"duration":0.08522725000000264,"midi":65,"time":61.19316549999999,"velocity":0.3937007874015748},{"duration":0.08522725000000264,"midi":59,"time":61.19316549999999,"velocity":0.3937007874015748},{"duration":0.08522725000000264,"midi":61,"time":61.19316549999999,"velocity":0.3937007874015748},{"duration":0.08522725000000264,"midi":62,"time":61.19316549999999,"velocity":0.3937007874015748},{"duration":0.08522725000000264,"midi":67,"time":61.19316549999999,"velocity":0.3937007874015748},{"duration":0.08522724999999554,"midi":62,"time":61.278392749999995,"velocity":0.3937007874015748},{"duration":0.08522724999999554,"midi":42,"time":61.278392749999995,"velocity":0.3937007874015748},{"duration":0.2556817500000008,"midi":55,"time":61.36361999999999,"velocity":0.3937007874015748},{"duration":0.17045450000000528,"midi":42,"time":61.36361999999999,"velocity":0.3937007874015748},{"duration":0.08522725000000264,"midi":61,"time":61.36361999999999,"velocity":0.3937007874015748},{"duration":0.08522725000000264,"midi":62,"time":61.44884724999999,"velocity":0.3937007874015748},{"duration":0.08522724999999554,"midi":67,"time":61.534074499999996,"velocity":0.3937007874015748},{"duration":0.08522724999999554,"midi":65,"time":61.534074499999996,"velocity":0.3937007874015748},{"duration":0.08522724999999554,"midi":59,"time":61.534074499999996,"velocity":0.3937007874015748},{"duration":0.08522724999999554,"midi":62,"time":61.534074499999996,"velocity":0.3937007874015748},{"duration":0.08522724999999554,"midi":61,"time":61.534074499999996,"velocity":0.3937007874015748},{"duration":0.08522724999999554,"midi":42,"time":61.534074499999996,"velocity":0.3937007874015748},{"duration":0.08522725000000264,"midi":62,"time":61.61930174999999,"velocity":0.3937007874015748},{"duration":0.08522725000000264,"midi":42,"time":61.61930174999999,"velocity":0.3937007874015748},{"duration":0.08522725000000264,"midi":67,"time":61.704528999999994,"velocity":0.3937007874015748},{"duration":0.08522725000000264,"midi":64,"time":61.704528999999994,"velocity":0.3937007874015748},{"duration":0.17045449999999818,"midi":42,"time":61.704528999999994,"velocity":0.3937007874015748},{"duration":0.2556817500000008,"midi":50,"time":61.704528999999994,"velocity":0.3937007874015748},{"duration":0.08522724999999554,"midi":62,"time":61.789756249999996,"velocity":0.3937007874015748},{"duration":0.08522725000000264,"midi":61,"time":61.87498349999999,"velocity":0.3937007874015748},{"duration":0.08522725000000264,"midi":65,"time":61.87498349999999,"velocity":0.3937007874015748},{"duration":0.08522725000000264,"midi":67,"time":61.87498349999999,"velocity":0.3937007874015748},{"duration":0.08522725000000264,"midi":62,"time":61.87498349999999,"velocity":0.3937007874015748},{"duration":0.08522725000000264,"midi":42,"time":61.87498349999999,"velocity":0.3937007874015748},{"duration":0.08522725000000264,"midi":59,"time":61.87498349999999,"velocity":0.3937007874015748},{"duration":0.08522724999999554,"midi":42,"time":61.960210749999995,"velocity":0.3937007874015748},{"duration":0.08522724999999554,"midi":62,"time":61.960210749999995,"velocity":0.3937007874015748},{"duration":0.17045450000000528,"midi":42,"time":62.04543799999999,"velocity":0.3937007874015748},{"duration":0.2556817500000008,"midi":55,"time":62.04543799999999,"velocity":0.3937007874015748},{"duration":0.08522725000000264,"midi":61,"time":62.04543799999999,"velocity":0.3937007874015748},{"duration":0.08522725000000264,"midi":69,"time":62.04543799999999,"velocity":0.3937007874015748},{"duration":0.08522725000000264,"midi":62,"time":62.13066524999999,"velocity":0.3937007874015748},{"duration":0.08522724999999554,"midi":67,"time":62.215892499999995,"velocity":0.3937007874015748},{"duration":0.08522724999999554,"midi":42,"time":62.215892499999995,"velocity":0.3937007874015748},{"duration":0.08522724999999554,"midi":62,"time":62.215892499999995,"velocity":0.3937007874015748},{"duration":0.08522724999999554,"midi":65,"time":62.215892499999995,"velocity":0.3937007874015748},{"duration":0.08522724999999554,"midi":59,"time":62.215892499999995,"velocity":0.3937007874015748},{"duration":0.08522724999999554,"midi":61,"time":62.215892499999995,"velocity":0.3937007874015748},{"duration":0.08522725000000264,"midi":42,"time":62.30111974999999,"velocity":0.3937007874015748},{"duration":0.08522725000000264,"midi":62,"time":62.30111974999999,"velocity":0.3937007874015748},{"duration":0.17045449999999818,"midi":53,"time":62.386346999999994,"velocity":0.3937007874015748},{"duration":0.17045449999999818,"midi":42,"time":62.386346999999994,"velocity":0.3937007874015748},{"duration":0.08522725000000264,"midi":64,"time":62.386346999999994,"velocity":0.3937007874015748},{"duration":0.08522725000000264,"midi":67,"time":62.386346999999994,"velocity":0.3937007874015748},{"duration":0.08522724999999554,"midi":62,"time":62.471574249999996,"velocity":0.3937007874015748},{"duration":0.08522725000000264,"midi":59,"time":62.55680149999999,"velocity":0.3937007874015748},{"duration":0.17045449999999818,"midi":52,"time":62.55680149999999,"velocity":0.3937007874015748},{"duration":0.08522725000000264,"midi":61,"time":62.55680149999999,"velocity":0.3937007874015748},{"duration":0.08522725000000264,"midi":67,"time":62.55680149999999,"velocity":0.3937007874015748},{"duration":0.08522725000000264,"midi":65,"time":62.55680149999999,"velocity":0.3937007874015748},{"duration":0.08522725000000264,"midi":62,"time":62.55680149999999,"velocity":0.3937007874015748},{"duration":0.08522725000000264,"midi":42,"time":62.55680149999999,"velocity":0.3937007874015748},{"duration":0.08522724999999554,"midi":62,"time":62.642028749999994,"velocity":0.3937007874015748},{"duration":0.08522724999999554,"midi":42,"time":62.642028749999994,"velocity":0.3937007874015748},{"duration":0.5965907500000043,"midi":74,"time":62.72725599999999,"velocity":0.3937007874015748},{"duration":0.5965907500000043,"midi":81,"time":62.72725599999999,"velocity":0.3937007874015748},{"duration":0.17045450000000528,"midi":55,"time":62.72725599999999,"velocity":0.3937007874015748},{"duration":0.2556817500000008,"midi":50,"time":62.72725599999999,"velocity":0.3937007874015748},{"duration":0.17045450000000528,"midi":57,"time":62.72725599999999,"velocity":0.3937007874015748},{"duration":0.17045450000000528,"midi":42,"time":62.72725599999999,"velocity":0.3937007874015748},{"duration":0.08522724999999554,"midi":57,"time":62.897710499999995,"velocity":0.3937007874015748},{"duration":0.08522724999999554,"midi":66,"time":62.897710499999995,"velocity":0.3937007874015748},{"duration":0.08522724999999554,"midi":42,"time":62.897710499999995,"velocity":0.3937007874015748},{"duration":0.08522724999999554,"midi":62,"time":62.897710499999995,"velocity":0.3937007874015748},{"duration":0.08522725000000264,"midi":42,"time":62.98293774999999,"velocity":0.3937007874015748},{"duration":0.17045449999999818,"midi":42,"time":63.06816499999999,"velocity":0.3937007874015748},{"duration":0.2556817500000008,"midi":48,"time":63.06816499999999,"velocity":0.3937007874015748},{"duration":0.08522725000000264,"midi":42,"time":63.23861949999999,"velocity":0.3937007874015748},{"duration":0.08522725000000264,"midi":57,"time":63.23861949999999,"velocity":0.3937007874015748},{"duration":0.08522725000000264,"midi":62,"time":63.23861949999999,"velocity":0.3937007874015748},{"duration":0.08522725000000264,"midi":66,"time":63.23861949999999,"velocity":0.3937007874015748},{"duration":0.08522724999999554,"midi":42,"time":63.323846749999994,"velocity":0.3937007874015748},{"duration":0.5965907500000043,"midi":81,"time":63.40907399999999,"velocity":0.3937007874015748},{"duration":0.5965907500000043,"midi":74,"time":63.40907399999999,"velocity":0.3937007874015748},{"duration":0.2556817500000008,"midi":47,"time":63.40907399999999,"velocity":0.3937007874015748},{"duration":0.17045450000000528,"midi":42,"time":63.40907399999999,"velocity":0.3937007874015748},{"duration":0.08522724999999554,"midi":62,"time":63.579528499999995,"velocity":0.3937007874015748},{"duration":0.08522724999999554,"midi":66,"time":63.579528499999995,"velocity":0.3937007874015748},{"duration":0.08522724999999554,"midi":42,"time":63.579528499999995,"velocity":0.3937007874015748},{"duration":0.08522724999999554,"midi":57,"time":63.579528499999995,"velocity":0.3937007874015748},{"duration":0.08522725000000264,"midi":42,"time":63.66475574999999,"velocity":0.3937007874015748},{"duration":0.17045449999999818,"midi":42,"time":63.74998299999999,"velocity":0.3937007874015748},{"duration":0.2556817500000008,"midi":45,"time":63.74998299999999,"velocity":0.3937007874015748},{"duration":0.08522725000000264,"midi":57,"time":63.92043749999999,"velocity":0.3937007874015748},{"duration":0.08522725000000264,"midi":62,"time":63.92043749999999,"velocity":0.3937007874015748},{"duration":0.08522725000000264,"midi":66,"time":63.92043749999999,"velocity":0.3937007874015748},{"duration":0.08522725000000264,"midi":42,"time":63.92043749999999,"velocity":0.3937007874015748},{"duration":0.08522725000000264,"midi":42,"time":64.00566475,"velocity":0.3937007874015748},{"duration":0.17045449999999107,"midi":42,"time":64.090892,"velocity":0.3937007874015748},{"duration":0.2556817499999937,"midi":50,"time":64.090892,"velocity":0.3937007874015748},{"duration":0.08522725000000264,"midi":80,"time":64.090892,"velocity":0.3937007874015748},{"duration":0.08522725000000264,"midi":73,"time":64.090892,"velocity":0.3937007874015748},{"duration":0.2556817499999937,"midi":81,"time":64.133505625,"velocity":0.3937007874015748},{"duration":0.2556817499999937,"midi":74,"time":64.133505625,"velocity":0.3937007874015748},{"duration":0.08522725000000264,"midi":57,"time":64.26134649999999,"velocity":0.3937007874015748},{"duration":0.08522725000000264,"midi":62,"time":64.26134649999999,"velocity":0.3937007874015748},{"duration":0.08522725000000264,"midi":66,"time":64.26134649999999,"velocity":0.3937007874015748},{"duration":0.08522725000000264,"midi":42,"time":64.26134649999999,"velocity":0.3937007874015748},{"duration":0.08522725000000264,"midi":42,"time":64.34657374999999,"velocity":0.3937007874015748},{"duration":0.2556817499999937,"midi":45,"time":64.431801,"velocity":0.3937007874015748},{"duration":0.2556817499999937,"midi":78,"time":64.431801,"velocity":0.3937007874015748},{"duration":0.17045450000000528,"midi":42,"time":64.431801,"velocity":0.3937007874015748},{"duration":0.08522724999998843,"midi":66,"time":64.6022555,"velocity":0.3937007874015748},{"duration":0.08522724999998843,"midi":57,"time":64.6022555,"velocity":0.3937007874015748},{"duration":0.08522724999998843,"midi":42,"time":64.6022555,"velocity":0.3937007874015748},{"duration":0.08522724999998843,"midi":62,"time":64.6022555,"velocity":0.3937007874015748},{"duration":0.08522725000000264,"midi":42,"time":64.68748274999999,"velocity":0.3937007874015748},{"duration":0.17045450000000528,"midi":42,"time":64.77270999999999,"velocity":0.3937007874015748},{"duration":0.2556817500000079,"midi":76,"time":64.77270999999999,"velocity":0.3937007874015748},{"duration":0.2556817500000079,"midi":50,"time":64.77270999999999,"velocity":0.3937007874015748},{"duration":0.08522725000000264,"midi":42,"time":64.9431645,"velocity":0.3937007874015748},{"duration":0.08522725000000264,"midi":66,"time":64.9431645,"velocity":0.3937007874015748},{"duration":0.08522725000000264,"midi":62,"time":64.9431645,"velocity":0.3937007874015748},{"duration":0.08522725000000264,"midi":57,"time":64.9431645,"velocity":0.3937007874015748},{"duration":0.08522724999998843,"midi":42,"time":65.02839175,"velocity":0.3937007874015748},{"duration":0.17045450000000528,"midi":42,"time":65.11361899999999,"velocity":0.3937007874015748},{"duration":0.2556817500000079,"midi":75,"time":65.11361899999999,"velocity":0.3937007874015748},{"duration":0.17045450000000528,"midi":52,"time":65.11361899999999,"velocity":0.3937007874015748},{"duration":0.08522725000000264,"midi":62,"time":65.28407349999999,"velocity":0.3937007874015748},{"duration":0.08522725000000264,"midi":66,"time":65.28407349999999,"velocity":0.3937007874015748},{"duration":0.17045450000000528,"midi":54,"time":65.28407349999999,"velocity":0.3937007874015748},{"duration":0.08522725000000264,"midi":57,"time":65.28407349999999,"velocity":0.3937007874015748},{"duration":0.08522725000000264,"midi":42,"time":65.28407349999999,"velocity":0.3937007874015748},{"duration":0.08522725000000264,"midi":42,"time":65.36930075,"velocity":0.3937007874015748},{"duration":0.2556817499999937,"midi":67,"time":65.454528,"velocity":0.3937007874015748},{"duration":0.5965907499999901,"midi":74,"time":65.454528,"velocity":0.3937007874015748},{"duration":0.2556817499999937,"midi":55,"time":65.454528,"velocity":0.3937007874015748},{"duration":0.17045449999999107,"midi":42,"time":65.454528,"velocity":0.3937007874015748},{"duration":0.08522725000000264,"midi":59,"time":65.62498249999999,"velocity":0.3937007874015748},{"duration":0.426136249999999,"midi":67,"time":65.62498249999999,"velocity":0.3937007874015748},{"duration":0.08522725000000264,"midi":42,"time":65.62498249999999,"velocity":0.3937007874015748},{"duration":0.08522725000000264,"midi":62,"time":65.62498249999999,"velocity":0.3937007874015748},{"duration":0.08522725000000264,"midi":65,"time":65.62498249999999,"velocity":0.3937007874015748},{"duration":0.08522725000000264,"midi":42,"time":65.71020974999999,"velocity":0.3937007874015748},{"duration":0.2556817499999937,"midi":50,"time":65.79543699999999,"velocity":0.3937007874015748},{"duration":0.17045450000000528,"midi":42,"time":65.79543699999999,"velocity":0.3937007874015748},{"duration":0.08522724999998843,"midi":59,"time":65.9658915,"velocity":0.3937007874015748},{"duration":0.08522724999998843,"midi":42,"time":65.9658915,"velocity":0.3937007874015748},{"duration":0.08522724999998843,"midi":65,"time":65.9658915,"velocity":0.3937007874015748},{"duration":0.08522724999998843,"midi":62,"time":65.9658915,"velocity":0.3937007874015748},{"duration":0.08522724999998843,"midi":67,"time":65.9658915,"velocity":0.3937007874015748},{"duration":0.08522725000000264,"midi":42,"time":66.05111874999999,"velocity":0.3937007874015748},{"duration":0.5965907500000043,"midi":74,"time":66.13634599999999,"velocity":0.3937007874015748},{"duration":0.17045450000000528,"midi":42,"time":66.13634599999999,"velocity":0.3937007874015748},{"duration":0.2556817500000079,"midi":55,"time":66.13634599999999,"velocity":0.3937007874015748},{"duration":0.2556817500000079,"midi":67,"time":66.13634599999999,"velocity":0.3937007874015748},{"duration":0.08522725000000264,"midi":62,"time":66.3068005,"velocity":0.3937007874015748},{"duration":0.426136249999999,"midi":67,"time":66.3068005,"velocity":0.3937007874015748},{"duration":0.08522725000000264,"midi":42,"time":66.3068005,"velocity":0.3937007874015748},{"duration":0.08522725000000264,"midi":65,"time":66.3068005,"velocity":0.3937007874015748},{"duration":0.08522725000000264,"midi":59,"time":66.3068005,"velocity":0.3937007874015748},{"duration":0.08522725000000264,"midi":42,"time":66.39202775,"velocity":0.3937007874015748},{"duration":0.17045449999999107,"midi":42,"time":66.477255,"velocity":0.3937007874015748},{"duration":0.2556817499999937,"midi":50,"time":66.477255,"velocity":0.3937007874015748},{"duration":0.08522725000000264,"midi":42,"time":66.64770949999999,"velocity":0.3937007874015748},{"duration":0.08522725000000264,"midi":62,"time":66.64770949999999,"velocity":0.3937007874015748},{"duration":0.08522725000000264,"midi":59,"time":66.64770949999999,"velocity":0.3937007874015748},{"duration":0.08522725000000264,"midi":67,"time":66.64770949999999,"velocity":0.3937007874015748},{"duration":0.08522725000000264,"midi":65,"time":66.64770949999999,"velocity":0.3937007874015748},{"duration":0.08522725000000264,"midi":42,"time":66.73293675,"velocity":0.3937007874015748},{"duration":0.5113635000000016,"midi":74,"time":66.818164,"velocity":0.3937007874015748},{"duration":0.2556817499999937,"midi":67,"time":66.818164,"velocity":0.3937007874015748},{"duration":0.17045449999999107,"midi":42,"time":66.818164,"velocity":0.3937007874015748},{"duration":0.2556817499999937,"midi":55,"time":66.818164,"velocity":0.3937007874015748},{"duration":0.34090900000001056,"midi":67,"time":66.98861849999999,"velocity":0.3937007874015748},{"duration":0.08522725000000264,"midi":59,"time":66.98861849999999,"velocity":0.3937007874015748},{"duration":0.08522725000000264,"midi":65,"time":66.98861849999999,"velocity":0.3937007874015748},{"duration":0.08522725000000264,"midi":62,"time":66.98861849999999,"velocity":0.3937007874015748},{"duration":0.08522725000000264,"midi":42,"time":66.98861849999999,"velocity":0.3937007874015748},{"duration":0.08522725000000264,"midi":42,"time":67.07384574999999,"velocity":0.3937007874015748},{"duration":0.17045450000000528,"midi":42,"time":67.15907299999999,"velocity":0.3937007874015748},{"duration":0.2556817499999937,"midi":50,"time":67.15907299999999,"velocity":0.3937007874015748},{"duration":0.08522724999998843,"midi":65,"time":67.3295275,"velocity":0.3937007874015748},{"duration":0.08522724999998843,"midi":67,"time":67.3295275,"velocity":0.3937007874015748},{"duration":0.08522724999998843,"midi":59,"time":67.3295275,"velocity":0.3937007874015748},{"duration":0.08522724999998843,"midi":62,"time":67.3295275,"velocity":0.3937007874015748},{"duration":0.08522724999998843,"midi":42,"time":67.3295275,"velocity":0.3937007874015748},{"duration":0.08522725000000264,"midi":69,"time":67.41475474999999,"velocity":0.3937007874015748},{"duration":0.08522725000000264,"midi":42,"time":67.41475474999999,"velocity":0.3937007874015748},{"duration":0.08522725000000264,"midi":73,"time":67.45736837499999,"velocity":0.3937007874015748},{"duration":0.2556817500000079,"midi":67,"time":67.49998199999999,"velocity":0.3937007874015748},{"duration":0.17045450000000528,"midi":42,"time":67.49998199999999,"velocity":0.3937007874015748},{"duration":0.2556817500000079,"midi":74,"time":67.49998199999999,"velocity":0.3937007874015748},{"duration":0.2556817500000079,"midi":55,"time":67.49998199999999,"velocity":0.3937007874015748},{"duration":0.08522725000000264,"midi":59,"time":67.6704365,"velocity":0.3937007874015748},{"duration":0.08522725000000264,"midi":65,"time":67.6704365,"velocity":0.3937007874015748},{"duration":0.08522725000000264,"midi":67,"time":67.6704365,"velocity":0.3937007874015748},{"duration":0.08522725000000264,"midi":42,"time":67.6704365,"velocity":0.3937007874015748},{"duration":0.08522725000000264,"midi":62,"time":67.6704365,"velocity":0.3937007874015748},{"duration":0.08522725000000264,"midi":42,"time":67.75566375,"velocity":0.3937007874015748},{"duration":0.2556817499999937,"midi":76,"time":67.840891,"velocity":0.3937007874015748},{"duration":0.17045449999999107,"midi":42,"time":67.840891,"velocity":0.3937007874015748},{"duration":0.17045449999999107,"midi":53,"time":67.840891,"velocity":0.3937007874015748},{"duration":0.2556817499999937,"midi":67,"time":67.840891,"velocity":0.3937007874015748},{"duration":0.08522725000000264,"midi":42,"time":68.01134549999999,"velocity":0.3937007874015748},{"duration":0.08522725000000264,"midi":67,"time":68.01134549999999,"velocity":0.3937007874015748},{"duration":0.08522725000000264,"midi":65,"time":68.01134549999999,"velocity":0.3937007874015748},{"duration":0.08522725000000264,"midi":62,"time":68.01134549999999,"velocity":0.3937007874015748},{"duration":0.17045450000000528,"midi":52,"time":68.01134549999999,"velocity":0.3937007874015748},{"duration":0.08522725000000264,"midi":59,"time":68.01134549999999,"velocity":0.3937007874015748},{"duration":0.08522725000000264,"midi":42,"time":68.09657274999999,"velocity":0.3937007874015748},{"duration":0.2556817499999937,"midi":50,"time":68.1818,"velocity":0.3937007874015748},{"duration":0.17045449999999107,"midi":42,"time":68.1818,"velocity":0.3937007874015748},{"duration":0.426136249999999,"midi":74,"time":68.1818,"velocity":0.3937007874015748},{"duration":0.2556817499999937,"midi":69,"time":68.1818,"velocity":0.3937007874015748},{"duration":0.08522725000000264,"midi":60,"time":68.35225449999999,"velocity":0.3937007874015748},{"duration":0.08522725000000264,"midi":66,"time":68.35225449999999,"velocity":0.3937007874015748},{"duration":0.2556817500000079,"midi":69,"time":68.35225449999999,"velocity":0.3937007874015748},{"duration":0.08522725000000264,"midi":62,"time":68.35225449999999,"velocity":0.3937007874015748},{"duration":0.08522725000000264,"midi":42,"time":68.35225449999999,"velocity":0.3937007874015748},{"duration":0.08522725000000264,"midi":42,"time":68.43748174999999,"velocity":0.3937007874015748},{"duration":0.17045450000000528,"midi":42,"time":68.52270899999999,"velocity":0.3937007874015748},{"duration":0.2556817499999937,"midi":45,"time":68.52270899999999,"velocity":0.3937007874015748},{"duration":0.08522724999998843,"midi":66,"time":68.6931635,"velocity":0.3937007874015748},{"duration":0.08522724999998843,"midi":60,"time":68.6931635,"velocity":0.3937007874015748},{"duration":0.17045449999999107,"midi":74,"time":68.6931635,"velocity":0.3937007874015748},{"duration":0.08522724999998843,"midi":69,"time":68.6931635,"velocity":0.3937007874015748},{"duration":0.08522724999998843,"midi":42,"time":68.6931635,"velocity":0.3937007874015748},{"duration":0.17045449999999107,"midi":69,"time":68.6931635,"velocity":0.3937007874015748},{"duration":0.08522724999998843,"midi":62,"time":68.6931635,"velocity":0.3937007874015748},{"duration":0.08522725000000264,"midi":42,"time":68.77839074999999,"velocity":0.3937007874015748},{"duration":0.2556817500000079,"midi":50,"time":68.86361799999999,"velocity":0.3937007874015748},{"duration":0.17045450000000528,"midi":42,"time":68.86361799999999,"velocity":0.3937007874015748},{"duration":0.2556817500000079,"midi":78,"time":68.86361799999999,"velocity":0.3937007874015748},{"duration":0.2556817500000079,"midi":69,"time":68.86361799999999,"velocity":0.3937007874015748},{"duration":0.08522725000000264,"midi":69,"time":69.0340725,"velocity":0.3937007874015748},{"duration":0.08522725000000264,"midi":62,"time":69.0340725,"velocity":0.3937007874015748},{"duration":0.08522725000000264,"midi":66,"time":69.0340725,"velocity":0.3937007874015748},{"duration":0.08522725000000264,"midi":60,"time":69.0340725,"velocity":0.3937007874015748},{"duration":0.08522725000000264,"midi":42,"time":69.0340725,"velocity":0.3937007874015748},{"duration":0.08522725000000264,"midi":42,"time":69.11929975,"velocity":0.3937007874015748},{"duration":0.2556817499999937,"midi":69,"time":69.204527,"velocity":0.3937007874015748},{"duration":0.2556817499999937,"midi":45,"time":69.204527,"velocity":0.3937007874015748},{"duration":0.17045449999999107,"midi":42,"time":69.204527,"velocity":0.3937007874015748},{"duration":0.2556817499999937,"midi":81,"time":69.204527,"velocity":0.3937007874015748},{"duration":0.08522725000000264,"midi":69,"time":69.37498149999999,"velocity":0.3937007874015748},{"duration":0.08522725000000264,"midi":66,"time":69.37498149999999,"velocity":0.3937007874015748},{"duration":0.08522725000000264,"midi":62,"time":69.37498149999999,"velocity":0.3937007874015748},{"duration":0.08522725000000264,"midi":60,"time":69.37498149999999,"velocity":0.3937007874015748},{"duration":0.08522725000000264,"midi":42,"time":69.37498149999999,"velocity":0.3937007874015748},{"duration":0.08522725000000264,"midi":42,"time":69.46020874999999,"velocity":0.3937007874015748},{"duration":0.2556817499999937,"midi":69,"time":69.545436,"velocity":0.3937007874015748},{"duration":0.2556817499999937,"midi":80,"time":69.545436,"velocity":0.3937007874015748},{"duration":0.2556817499999937,"midi":50,"time":69.545436,"velocity":0.3937007874015748},{"duration":0.17045449999999107,"midi":42,"time":69.545436,"velocity":0.3937007874015748},{"duration":0.08522725000000264,"midi":62,"time":69.71589049999999,"velocity":0.3937007874015748},{"duration":0.08522725000000264,"midi":66,"time":69.71589049999999,"velocity":0.3937007874015748},{"duration":0.08522725000000264,"midi":60,"time":69.71589049999999,"velocity":0.3937007874015748},{"duration":0.08522725000000264,"midi":42,"time":69.71589049999999,"velocity":0.3937007874015748},{"duration":0.08522725000000264,"midi":69,"time":69.71589049999999,"velocity":0.3937007874015748},{"duration":0.08522725000000264,"midi":42,"time":69.80111774999999,"velocity":0.3937007874015748},{"duration":0.2556817499999937,"midi":69,"time":69.88634499999999,"velocity":0.3937007874015748},{"duration":0.2556817499999937,"midi":45,"time":69.88634499999999,"velocity":0.3937007874015748},{"duration":0.2556817499999937,"midi":81,"time":69.88634499999999,"velocity":0.3937007874015748},{"duration":0.17045450000000528,"midi":42,"time":69.88634499999999,"velocity":0.3937007874015748},{"duration":0.08522724999998843,"midi":42,"time":70.0567995,"velocity":0.3937007874015748},{"duration":0.08522724999998843,"midi":62,"time":70.0567995,"velocity":0.3937007874015748},{"duration":0.08522724999998843,"midi":60,"time":70.0567995,"velocity":0.3937007874015748},{"duration":0.08522724999998843,"midi":66,"time":70.0567995,"velocity":0.3937007874015748},{"duration":0.08522724999998843,"midi":69,"time":70.0567995,"velocity":0.3937007874015748},{"duration":0.08522725000000264,"midi":42,"time":70.14202674999999,"velocity":0.3937007874015748},{"duration":0.17045450000000528,"midi":42,"time":70.22725399999999,"velocity":0.3937007874015748},{"duration":0.08522725000000264,"midi":80,"time":70.22725399999999,"velocity":0.3937007874015748},{"duration":0.2556817500000079,"midi":50,"time":70.22725399999999,"velocity":0.3937007874015748},{"duration":0.08522725000000264,"midi":81,"time":70.31248124999999,"velocity":0.3937007874015748},{"duration":0.08522725000000264,"midi":69,"time":70.3977085,"velocity":0.3937007874015748},{"duration":0.08522725000000264,"midi":78,"time":70.3977085,"velocity":0.3937007874015748},{"duration":0.08522725000000264,"midi":66,"time":70.3977085,"velocity":0.3937007874015748},{"duration":0.08522725000000264,"midi":60,"time":70.3977085,"velocity":0.3937007874015748},{"duration":0.08522725000000264,"midi":42,"time":70.3977085,"velocity":0.3937007874015748},{"duration":0.08522725000000264,"midi":62,"time":70.3977085,"velocity":0.3937007874015748},{"duration":0.08522725000000264,"midi":74,"time":70.48293575,"velocity":0.3937007874015748},{"duration":0.08522725000000264,"midi":42,"time":70.48293575,"velocity":0.3937007874015748},{"duration":0.17045449999999107,"midi":73,"time":70.568163,"velocity":0.3937007874015748},{"duration":0.17045449999999107,"midi":52,"time":70.568163,"velocity":0.3937007874015748},{"duration":0.17045449999999107,"midi":42,"time":70.568163,"velocity":0.3937007874015748},{"duration":0.08522725000000264,"midi":69,"time":70.73861749999999,"velocity":0.3937007874015748},{"duration":0.08522725000000264,"midi":66,"time":70.73861749999999,"velocity":0.3937007874015748},{"duration":0.17045450000000528,"midi":69,"time":70.73861749999999,"velocity":0.3937007874015748},{"duration":0.08522725000000264,"midi":60,"time":70.73861749999999,"velocity":0.3937007874015748},{"duration":0.08522725000000264,"midi":62,"time":70.73861749999999,"velocity":0.3937007874015748},{"duration":0.08522725000000264,"midi":42,"time":70.73861749999999,"velocity":0.3937007874015748},{"duration":0.17045450000000528,"midi":54,"time":70.73861749999999,"velocity":0.3937007874015748},{"duration":0.08522725000000264,"midi":42,"time":70.82384474999999,"velocity":0.3937007874015748},{"duration":0.17045449999999107,"midi":42,"time":70.909072,"velocity":0.3937007874015748},{"duration":0.2556817499999937,"midi":55,"time":70.909072,"velocity":0.3937007874015748},{"duration":0.2556817499999937,"midi":71,"time":70.909072,"velocity":0.3937007874015748},{"duration":0.08522725000000264,"midi":62,"time":71.07952649999999,"velocity":0.3937007874015748},{"duration":0.08522725000000264,"midi":42,"time":71.07952649999999,"velocity":0.3937007874015748},{"duration":0.08522725000000264,"midi":59,"time":71.07952649999999,"velocity":0.3937007874015748},{"duration":0.08522725000000264,"midi":67,"time":71.07952649999999,"velocity":0.3937007874015748},{"duration":0.08522725000000264,"midi":42,"time":71.16475374999999,"velocity":0.3937007874015748},{"duration":0.08522725000000264,"midi":73,"time":71.16475374999999,"velocity":0.3937007874015748},{"duration":0.2556817500000079,"midi":74,"time":71.24998099999999,"velocity":0.3937007874015748},{"duration":0.2556817500000079,"midi":50,"time":71.24998099999999,"velocity":0.3937007874015748},{"duration":0.17045450000000528,"midi":42,"time":71.24998099999999,"velocity":0.3937007874015748},{"duration":0.08522725000000264,"midi":42,"time":71.4204355,"velocity":0.3937007874015748},{"duration":0.08522725000000264,"midi":59,"time":71.4204355,"velocity":0.3937007874015748},{"duration":0.08522725000000264,"midi":67,"time":71.4204355,"velocity":0.3937007874015748},{"duration":0.08522725000000264,"midi":62,"time":71.4204355,"velocity":0.3937007874015748},{"duration":0.08522724999998843,"midi":42,"time":71.50566275,"velocity":0.3937007874015748},{"duration":0.08522724999998843,"midi":76,"time":71.50566275,"velocity":0.3937007874015748},{"duration":0.08522725000000264,"midi":78,"time":71.59088999999999,"velocity":0.3937007874015748},{"duration":0.2556817500000079,"midi":55,"time":71.59088999999999,"velocity":0.3937007874015748},{"duration":0.17045450000000528,"midi":42,"time":71.59088999999999,"velocity":0.3937007874015748},{"duration":0.08522725000000264,"midi":77,"time":71.67611724999999,"velocity":0.3937007874015748},{"duration":0.08522725000000264,"midi":78,"time":71.76134449999999,"velocity":0.3937007874015748},{"duration":0.08522725000000264,"midi":59,"time":71.76134449999999,"velocity":0.3937007874015748},{"duration":0.08522725000000264,"midi":67,"time":71.76134449999999,"velocity":0.3937007874015748},{"duration":0.08522725000000264,"midi":62,"time":71.76134449999999,"velocity":0.3937007874015748},{"duration":0.08522725000000264,"midi":42,"time":71.76134449999999,"velocity":0.3937007874015748},{"duration":0.08522725000000264,"midi":79,"time":71.84657175,"velocity":0.3937007874015748},{"duration":0.08522725000000264,"midi":42,"time":71.84657175,"velocity":0.3937007874015748},{"duration":0.17045449999999107,"midi":42,"time":71.931799,"velocity":0.3937007874015748},{"duration":0.17045449999999107,"midi":50,"time":71.931799,"velocity":0.3937007874015748},{"duration":0.08522724999998843,"midi":81,"time":71.931799,"velocity":0.3937007874015748},{"duration":0.08522725000000264,"midi":80,"time":72.01702624999999,"velocity":0.3937007874015748},{"duration":0.08522725000000264,"midi":42,"time":72.10225349999999,"velocity":0.3937007874015748},{"duration":0.08522725000000264,"midi":79,"time":72.10225349999999,"velocity":0.3937007874015748},{"duration":0.17045450000000528,"midi":55,"time":72.10225349999999,"velocity":0.3937007874015748},{"duration":0.08522725000000264,"midi":59,"time":72.10225349999999,"velocity":0.3937007874015748},{"duration":0.08522725000000264,"midi":62,"time":72.10225349999999,"velocity":0.3937007874015748},{"duration":0.08522725000000264,"midi":67,"time":72.10225349999999,"velocity":0.3937007874015748},{"duration":0.08522725000000264,"midi":76,"time":72.18748074999999,"velocity":0.3937007874015748},{"duration":0.08522725000000264,"midi":42,"time":72.18748074999999,"velocity":0.3937007874015748},{"duration":0.17045449999999107,"midi":42,"time":72.272708,"velocity":0.3937007874015748},{"duration":0.08522725000000264,"midi":74,"time":72.272708,"velocity":0.3937007874015748},{"duration":0.2556817499999937,"midi":57,"time":72.272708,"velocity":0.3937007874015748},{"duration":0.08522724999998843,"midi":73,"time":72.35793525,"velocity":0.3937007874015748},{"duration":0.08522725000000264,"midi":62,"time":72.44316249999999,"velocity":0.3937007874015748},{"duration":0.08522725000000264,"midi":59,"time":72.44316249999999,"velocity":0.3937007874015748},{"duration":0.08522725000000264,"midi":74,"time":72.44316249999999,"velocity":0.3937007874015748},{"duration":0.08522725000000264,"midi":67,"time":72.44316249999999,"velocity":0.3937007874015748},{"duration":0.08522725000000264,"midi":42,"time":72.44316249999999,"velocity":0.3937007874015748},{"duration":0.08522725000000264,"midi":81,"time":72.52838974999999,"velocity":0.3937007874015748},{"duration":0.08522725000000264,"midi":42,"time":72.52838974999999,"velocity":0.3937007874015748},{"duration":0.17045450000000528,"midi":42,"time":72.61361699999999,"velocity":0.3937007874015748},{"duration":0.08522725000000264,"midi":73,"time":72.61361699999999,"velocity":0.3937007874015748},{"duration":0.2556817500000079,"midi":52,"time":72.61361699999999,"velocity":0.3937007874015748},{"duration":0.08522725000000264,"midi":72,"time":72.69884425,"velocity":0.3937007874015748},{"duration":0.08522725000000264,"midi":62,"time":72.7840715,"velocity":0.3937007874015748},{"duration":0.08522725000000264,"midi":42,"time":72.7840715,"velocity":0.3937007874015748},{"duration":0.08522725000000264,"midi":73,"time":72.7840715,"velocity":0.3937007874015748},{"duration":0.08522725000000264,"midi":67,"time":72.7840715,"velocity":0.3937007874015748},{"duration":0.08522725000000264,"midi":59,"time":72.7840715,"velocity":0.3937007874015748},{"duration":0.08522724999998843,"midi":81,"time":72.86929875,"velocity":0.3937007874015748},{"duration":0.08522724999998843,"midi":42,"time":72.86929875,"velocity":0.3937007874015748},{"duration":0.17045450000000528,"midi":42,"time":72.95452599999999,"velocity":0.3937007874015748},{"duration":0.08522725000000264,"midi":73,"time":72.95452599999999,"velocity":0.3937007874015748},{"duration":0.2556817500000079,"midi":57,"time":72.95452599999999,"velocity":0.3937007874015748},{"duration":0.08522725000000264,"midi":72,"time":73.03975324999999,"velocity":0.3937007874015748},{"duration":0.08522725000000264,"midi":64,"time":73.12498049999999,"velocity":0.3937007874015748},{"duration":0.08522725000000264,"midi":42,"time":73.12498049999999,"velocity":0.3937007874015748},{"duration":0.08522725000000264,"midi":71,"time":73.12498049999999,"velocity":0.3937007874015748},{"duration":0.08522725000000264,"midi":61,"time":73.12498049999999,"velocity":0.3937007874015748},{"duration":0.08522725000000264,"midi":69,"time":73.12498049999999,"velocity":0.3937007874015748},{"duration":0.08522725000000264,"midi":42,"time":73.21020775,"velocity":0.3937007874015748},{"duration":0.08522725000000264,"midi":70,"time":73.21020775,"velocity":0.3937007874015748},{"duration":0.08522724999998843,"midi":69,"time":73.295435,"velocity":0.3937007874015748},{"duration":0.17045449999999107,"midi":42,"time":73.295435,"velocity":0.3937007874015748},{"duration":0.2556817499999937,"midi":52,"time":73.295435,"velocity":0.3937007874015748},{"duration":0.08522725000000264,"midi":68,"time":73.38066224999999,"velocity":0.3937007874015748},{"duration":0.08522725000000264,"midi":42,"time":73.46588949999999,"velocity":0.3937007874015748},{"duration":0.08522725000000264,"midi":64,"time":73.46588949999999,"velocity":0.3937007874015748},{"duration":0.08522725000000264,"midi":69,"time":73.46588949999999,"velocity":0.3937007874015748},{"duration":0.08522725000000264,"midi":67,"time":73.46588949999999,"velocity":0.3937007874015748},{"duration":0.08522725000000264,"midi":61,"time":73.46588949999999,"velocity":0.3937007874015748},{"duration":0.08522725000000264,"midi":64,"time":73.55111674999999,"velocity":0.3937007874015748},{"duration":0.08522725000000264,"midi":42,"time":73.55111674999999,"velocity":0.3937007874015748},{"duration":0.17045449999999107,"midi":42,"time":73.636344,"velocity":0.3937007874015748},{"duration":0.5965907500000043,"midi":69,"time":73.636344,"velocity":0.3937007874015748},{"duration":0.17045449999999107,"midi":55,"time":73.636344,"velocity":0.3937007874015748},{"duration":0.2556817499999937,"midi":50,"time":73.636344,"velocity":0.3937007874015748},{"duration":0.17045449999999107,"midi":57,"time":73.636344,"velocity":0.3937007874015748},{"duration":0.08522725000000264,"midi":62,"time":73.80679849999999,"velocity":0.3937007874015748},{"duration":0.08522725000000264,"midi":66,"time":73.80679849999999,"velocity":0.3937007874015748},{"duration":0.08522725000000264,"midi":42,"time":73.80679849999999,"velocity":0.3937007874015748},{"duration":0.08522725000000264,"midi":57,"time":73.80679849999999,"velocity":0.3937007874015748},{"duration":0.08522725000000264,"midi":42,"time":73.89202574999999,"velocity":0.3937007874015748},{"duration":0.17045450000000528,"midi":42,"time":73.97725299999999,"velocity":0.3937007874015748},{"duration":0.2556817500000079,"midi":45,"time":73.97725299999999,"velocity":0.3937007874015748},{"duration":0.08522725000000264,"midi":57,"time":74.1477075,"velocity":0.3937007874015748},{"duration":0.08522725000000264,"midi":66,"time":74.1477075,"velocity":0.3937007874015748},{"duration":0.08522725000000264,"midi":62,"time":74.1477075,"velocity":0.3937007874015748},{"duration":0.08522725000000264,"midi":42,"time":74.1477075,"velocity":0.3937007874015748},{"duration":0.08522724999998843,"midi":42,"time":74.23293475,"velocity":0.3937007874015748},{"duration":0.17045450000000528,"midi":42,"time":74.31816199999999,"velocity":0.3937007874015748},{"duration":0.2556817500000079,"midi":50,"time":74.31816199999999,"velocity":0.3937007874015748},{"duration":0.2556817500000079,"midi":71,"time":74.31816199999999,"velocity":0.3937007874015748},{"duration":0.08522725000000264,"midi":62,"time":74.48861649999999,"velocity":0.3937007874015748},{"duration":0.08522725000000264,"midi":42,"time":74.48861649999999,"velocity":0.3937007874015748},{"duration":0.08522725000000264,"midi":66,"time":74.48861649999999,"velocity":0.3937007874015748},{"duration":0.08522725000000264,"midi":57,"time":74.48861649999999,"velocity":0.3937007874015748},{"duration":0.08522725000000264,"midi":50,"time":74.57384375,"velocity":0.3937007874015748},{"duration":0.08522725000000264,"midi":42,"time":74.57384375,"velocity":0.3937007874015748},{"duration":0.2556817499999937,"midi":69,"time":74.659071,"velocity":0.3937007874015748},{"duration":0.17045449999999107,"midi":42,"time":74.659071,"velocity":0.3937007874015748},{"duration":0.17045449999999107,"midi":47,"time":74.659071,"velocity":0.3937007874015748},{"duration":0.17045450000000528,"midi":49,"time":74.82952549999999,"velocity":0.3937007874015748},{"duration":0.08522725000000264,"midi":42,"time":74.82952549999999,"velocity":0.3937007874015748},{"duration":0.08522725000000264,"midi":57,"time":74.82952549999999,"velocity":0.3937007874015748},{"duration":0.08522725000000264,"midi":66,"time":74.82952549999999,"velocity":0.3937007874015748},{"duration":0.08522725000000264,"midi":62,"time":74.82952549999999,"velocity":0.3937007874015748},{"duration":0.08522725000000264,"midi":42,"time":74.91475274999999,"velocity":0.3937007874015748},{"duration":0.2556817499999937,"midi":50,"time":74.99998,"velocity":0.3937007874015748},{"duration":0.17045449999999107,"midi":42,"time":74.99998,"velocity":0.3937007874015748},{"duration":0.2556817499999937,"midi":62,"time":74.99998,"velocity":0.3937007874015748},{"duration":0.08522725000000264,"midi":42,"time":75.17043449999998,"velocity":0.3937007874015748},{"duration":0.08522725000000264,"midi":66,"time":75.17043449999998,"velocity":0.3937007874015748},{"duration":0.4261362500000132,"midi":62,"time":75.17043449999998,"velocity":0.3937007874015748},{"duration":0.17045450000000528,"midi":74,"time":75.17043449999998,"velocity":0.3937007874015748},{"duration":0.08522725000000264,"midi":57,"time":75.17043449999998,"velocity":0.3937007874015748},{"duration":0.08522725000000264,"midi":42,"time":75.25566174999999,"velocity":0.3937007874015748},{"duration":0.17045450000000528,"midi":73,"time":75.34088899999999,"velocity":0.3937007874015748},{"duration":0.2556817500000079,"midi":45,"time":75.34088899999999,"velocity":0.3937007874015748},{"duration":0.17045450000000528,"midi":42,"time":75.34088899999999,"velocity":0.3937007874015748},{"duration":0.08522725000000264,"midi":57,"time":75.5113435,"velocity":0.3937007874015748},{"duration":0.08522725000000264,"midi":66,"time":75.5113435,"velocity":0.3937007874015748},{"duration":0.17045449999999107,"midi":74,"time":75.5113435,"velocity":0.3937007874015748},{"duration":0.426136249999999,"midi":62,"time":75.5113435,"velocity":0.3937007874015748},{"duration":0.08522725000000264,"midi":42,"time":75.5113435,"velocity":0.3937007874015748},{"duration":0.08522724999998843,"midi":42,"time":75.59657075,"velocity":0.3937007874015748},{"duration":0.2556817500000079,"midi":50,"time":75.68179799999999,"velocity":0.3937007874015748},{"duration":0.34090900000001056,"midi":78,"time":75.68179799999999,"velocity":0.3937007874015748},{"duration":0.17045450000000528,"midi":42,"time":75.68179799999999,"velocity":0.3937007874015748},{"duration":0.08522725000000264,"midi":66,"time":75.85225249999999,"velocity":0.3937007874015748},{"duration":0.08522725000000264,"midi":42,"time":75.85225249999999,"velocity":0.3937007874015748},{"duration":0.08522725000000264,"midi":57,"time":75.85225249999999,"velocity":0.3937007874015748},{"duration":0.426136249999999,"midi":62,"time":75.85225249999999,"velocity":0.3937007874015748},{"duration":0.08522725000000264,"midi":50,"time":75.93747975,"velocity":0.3937007874015748},{"duration":0.08522725000000264,"midi":42,"time":75.93747975,"velocity":0.3937007874015748},{"duration":0.17045449999999107,"midi":76,"time":76.022707,"velocity":0.3937007874015748},{"duration":0.17045449999999107,"midi":48,"time":76.022707,"velocity":0.3937007874015748},{"duration":0.17045449999999107,"midi":42,"time":76.022707,"velocity":0.3937007874015748},{"duration":0.08522725000000264,"midi":62,"time":76.19316149999999,"velocity":0.3937007874015748},{"duration":0.17045450000000528,"midi":74,"time":76.19316149999999,"velocity":0.3937007874015748},{"duration":0.08522725000000264,"midi":57,"time":76.19316149999999,"velocity":0.3937007874015748},{"duration":0.17045450000000528,"midi":47,"time":76.19316149999999,"velocity":0.3937007874015748},{"duration":0.08522725000000264,"midi":42,"time":76.19316149999999,"velocity":0.3937007874015748},{"duration":0.08522725000000264,"midi":66,"time":76.19316149999999,"velocity":0.3937007874015748},{"duration":0.08522725000000264,"midi":42,"time":76.27838874999999,"velocity":0.3937007874015748},{"duration":0.2556817499999937,"midi":43,"time":76.363616,"velocity":0.3937007874015748},{"duration":0.17045450000000528,"midi":42,"time":76.363616,"velocity":0.3937007874015748},{"duration":0.2556817499999937,"midi":59,"time":76.363616,"velocity":0.3937007874015748},{"duration":1.278408749999997,"midi":71,"time":76.363616,"velocity":0.3937007874015748},{"duration":0.426136249999999,"midi":59,"time":76.5340705,"velocity":0.3937007874015748},{"duration":0.08522724999998843,"midi":67,"time":76.5340705,"velocity":0.3937007874015748},{"duration":0.08522724999998843,"midi":62,"time":76.5340705,"velocity":0.3937007874015748},{"duration":0.08522724999998843,"midi":42,"time":76.5340705,"velocity":0.3937007874015748},{"duration":0.08522725000000264,"midi":42,"time":76.61929774999999,"velocity":0.3937007874015748},{"duration":0.17045450000000528,"midi":42,"time":76.70452499999999,"velocity":0.3937007874015748},{"duration":0.2556817500000079,"midi":38,"time":76.70452499999999,"velocity":0.3937007874015748},{"duration":0.08522725000000264,"midi":42,"time":76.8749795,"velocity":0.3937007874015748},{"duration":0.08522725000000264,"midi":62,"time":76.8749795,"velocity":0.3937007874015748},{"duration":0.08522725000000264,"midi":67,"time":76.8749795,"velocity":0.3937007874015748},{"duration":0.08522725000000264,"midi":59,"time":76.8749795,"velocity":0.3937007874015748},{"duration":0.08522724999998843,"midi":42,"time":76.96020675,"velocity":0.3937007874015748},{"duration":0.17045450000000528,"midi":42,"time":77.04543399999999,"velocity":0.3937007874015748},{"duration":0.2556817500000079,"midi":64,"time":77.04543399999999,"velocity":0.3937007874015748},{"duration":0.2556817500000079,"midi":43,"time":77.04543399999999,"velocity":0.3937007874015748},{"duration":0.08522725000000264,"midi":62,"time":77.21588849999999,"velocity":0.3937007874015748},{"duration":0.08522725000000264,"midi":42,"time":77.21588849999999,"velocity":0.3937007874015748},{"duration":0.08522725000000264,"midi":67,"time":77.21588849999999,"velocity":0.3937007874015748},{"duration":0.08522725000000264,"midi":59,"time":77.21588849999999,"velocity":0.3937007874015748},{"duration":0.08522725000000264,"midi":42,"time":77.30111575,"velocity":0.3937007874015748},{"duration":0.17045449999999107,"midi":42,"time":77.386343,"velocity":0.3937007874015748},{"duration":0.2556817499999937,"midi":38,"time":77.386343,"velocity":0.3937007874015748},{"duration":0.2556817499999937,"midi":62,"time":77.386343,"velocity":0.3937007874015748},{"duration":0.08522725000000264,"midi":59,"time":77.55679749999999,"velocity":0.3937007874015748},{"duration":0.08522725000000264,"midi":42,"time":77.55679749999999,"velocity":0.3937007874015748},{"duration":0.08522725000000264,"midi":62,"time":77.55679749999999,"velocity":0.3937007874015748},{"duration":0.08522725000000264,"midi":67,"time":77.55679749999999,"velocity":0.3937007874015748},{"duration":0.08522725000000264,"midi":42,"time":77.64202474999999,"velocity":0.3937007874015748},{"duration":0.2556817499999937,"midi":59,"time":77.727252,"velocity":0.3937007874015748},{"duration":0.2556817499999937,"midi":44,"time":77.727252,"velocity":0.3937007874015748},{"duration":0.17045450000000528,"midi":42,"time":77.727252,"velocity":0.3937007874015748},{"duration":0.08522724999998843,"midi":42,"time":77.8977065,"velocity":0.3937007874015748},{"duration":0.17045449999999107,"midi":71,"time":77.8977065,"velocity":0.3937007874015748},{"duration":0.08522724999998843,"midi":68,"time":77.8977065,"velocity":0.3937007874015748},{"duration":0.426136249999999,"midi":59,"time":77.8977065,"velocity":0.3937007874015748},{"duration":0.08522724999998843,"midi":62,"time":77.8977065,"velocity":0.3937007874015748},{"duration":0.08522725000000264,"midi":42,"time":77.98293374999999,"velocity":0.3937007874015748},{"duration":0.17045450000000528,"midi":42,"time":78.06816099999999,"velocity":0.3937007874015748},{"duration":0.2556817500000079,"midi":38,"time":78.06816099999999,"velocity":0.3937007874015748},{"duration":0.17045450000000528,"midi":70,"time":78.06816099999999,"velocity":0.3937007874015748},{"duration":0.426136249999999,"midi":59,"time":78.2386155,"velocity":0.3937007874015748},{"duration":0.08522725000000264,"midi":62,"time":78.2386155,"velocity":0.3937007874015748},{"duration":0.08522725000000264,"midi":42,"time":78.2386155,"velocity":0.3937007874015748},{"duration":0.08522725000000264,"midi":68,"time":78.2386155,"velocity":0.3937007874015748},{"duration":0.17045449999999107,"midi":71,"time":78.2386155,"velocity":0.3937007874015748},{"duration":0.08522724999998843,"midi":42,"time":78.32384275,"velocity":0.3937007874015748},{"duration":0.2556817500000079,"midi":44,"time":78.40906999999999,"velocity":0.3937007874015748},{"duration":0.17045450000000528,"midi":42,"time":78.40906999999999,"velocity":0.3937007874015748},{"duration":0.34090900000001056,"midi":74,"time":78.40906999999999,"velocity":0.3937007874015748},{"duration":0.426136249999999,"midi":59,"time":78.57952449999999,"velocity":0.3937007874015748},{"duration":0.08522725000000264,"midi":68,"time":78.57952449999999,"velocity":0.3937007874015748},{"duration":0.08522725000000264,"midi":42,"time":78.57952449999999,"velocity":0.3937007874015748},{"duration":0.08522725000000264,"midi":62,"time":78.57952449999999,"velocity":0.3937007874015748},{"duration":0.08522725000000264,"midi":42,"time":78.66475175,"velocity":0.3937007874015748},{"duration":0.2556817499999937,"midi":38,"time":78.749979,"velocity":0.3937007874015748},{"duration":0.17045449999999107,"midi":42,"time":78.749979,"velocity":0.3937007874015748},{"duration":0.17045449999999107,"midi":73,"time":78.749979,"velocity":0.3937007874015748},{"duration":0.08522725000000264,"midi":59,"time":78.92043349999999,"velocity":0.3937007874015748},{"duration":0.08522725000000264,"midi":42,"time":78.92043349999999,"velocity":0.3937007874015748},{"duration":0.17045450000000528,"midi":71,"time":78.92043349999999,"velocity":0.3937007874015748},{"duration":0.08522725000000264,"midi":68,"time":78.92043349999999,"velocity":0.3937007874015748},{"duration":0.08522725000000264,"midi":62,"time":78.92043349999999,"velocity":0.3937007874015748},{"duration":0.08522725000000264,"midi":42,"time":79.00566074999999,"velocity":0.3937007874015748},{"duration":0.426136249999999,"midi":57,"time":79.09088799999999,"velocity":0.3937007874015748},{"duration":0.17045450000000528,"midi":42,"time":79.09088799999999,"velocity":0.3937007874015748},{"duration":0.2556817499999937,"midi":42,"time":79.09088799999999,"velocity":0.3937007874015748},{"duration":1.278408749999997,"midi":69,"time":79.09088799999999,"velocity":0.3937007874015748},{"duration":0.08522724999998843,"midi":61,"time":79.2613425,"velocity":0.3937007874015748},{"duration":0.08522724999998843,"midi":42,"time":79.2613425,"velocity":0.3937007874015748},{"duration":0.08522724999998843,"midi":67,"time":79.2613425,"velocity":0.3937007874015748},{"duration":0.08522724999998843,"midi":64,"time":79.2613425,"velocity":0.3937007874015748},{"duration":0.08522725000000264,"midi":42,"time":79.34656974999999,"velocity":0.3937007874015748},{"duration":0.2556817500000079,"midi":38,"time":79.43179699999999,"velocity":0.3937007874015748},{"duration":0.17045450000000528,"midi":42,"time":79.43179699999999,"velocity":0.3937007874015748},{"duration":0.08522725000000264,"midi":61,"time":79.6022515,"velocity":0.3937007874015748},{"duration":0.08522725000000264,"midi":64,"time":79.6022515,"velocity":0.3937007874015748},{"duration":0.08522725000000264,"midi":67,"time":79.6022515,"velocity":0.3937007874015748},{"duration":0.08522725000000264,"midi":42,"time":79.6022515,"velocity":0.3937007874015748},{"duration":0.426136249999999,"midi":57,"time":79.6022515,"velocity":0.3937007874015748},{"duration":0.08522724999998843,"midi":42,"time":79.68747875,"velocity":0.3937007874015748},{"duration":0.17045450000000528,"midi":42,"time":79.77270599999999,"velocity":0.3937007874015748},{"duration":0.2556817500000079,"midi":42,"time":79.77270599999999,"velocity":0.3937007874015748},{"duration":0.08522725000000264,"midi":61,"time":79.94316049999999,"velocity":0.3937007874015748},{"duration":0.08522725000000264,"midi":67,"time":79.94316049999999,"velocity":0.3937007874015748},{"duration":0.08522725000000264,"midi":64,"time":79.94316049999999,"velocity":0.3937007874015748},{"duration":0.08522725000000264,"midi":42,"time":79.94316049999999,"velocity":0.3937007874015748},{"duration":0.08522725000000264,"midi":42,"time":80.02838775,"velocity":0.3937007874015748},{"duration":0.08522725000000264,"midi":42,"time":80.02838775,"velocity":0.3937007874015748},{"duration":0.17045449999999107,"midi":42,"time":80.113615,"velocity":0.3937007874015748},{"duration":0.17045449999999107,"midi":45,"time":80.113615,"velocity":0.3937007874015748},{"duration":0.5113635000000016,"midi":69,"time":80.113615,"velocity":0.3937007874015748},{"duration":0.17045450000000528,"midi":48,"time":80.28406949999999,"velocity":0.3937007874015748},{"duration":0.08522725000000264,"midi":67,"time":80.28406949999999,"velocity":0.3937007874015748},{"duration":0.08522725000000264,"midi":64,"time":80.28406949999999,"velocity":0.3937007874015748},{"duration":0.08522725000000264,"midi":42,"time":80.28406949999999,"velocity":0.3937007874015748},{"duration":0.08522725000000264,"midi":61,"time":80.28406949999999,"velocity":0.3937007874015748},{"duration":0.08522725000000264,"midi":42,"time":80.36929674999999,"velocity":0.3937007874015748},{"duration":0.17045450000000528,"midi":42,"time":80.45452399999999,"velocity":0.3937007874015748},{"duration":0.2556817499999937,"midi":41,"time":80.45452399999999,"velocity":0.3937007874015748},{"duration":0.08522724999998843,"midi":60,"time":80.6249785,"velocity":0.3937007874015748},{"duration":0.08522724999998843,"midi":42,"time":80.6249785,"velocity":0.3937007874015748},{"duration":0.08522724999998843,"midi":63,"time":80.6249785,"velocity":0.3937007874015748},{"duration":0.08522724999998843,"midi":66,"time":80.6249785,"velocity":0.3937007874015748},{"duration":0.426136249999999,"midi":57,"time":80.6249785,"velocity":0.3937007874015748},{"duration":0.08522725000000264,"midi":42,"time":80.71020574999999,"velocity":0.3937007874015748},{"duration":0.17045450000000528,"midi":42,"time":80.79543299999999,"velocity":0.3937007874015748},{"duration":0.2556817500000079,"midi":36,"time":80.79543299999999,"velocity":0.3937007874015748},{"duration":0.17045450000000528,"midi":69,"time":80.79543299999999,"velocity":0.3937007874015748},{"duration":0.08522725000000264,"midi":66,"time":80.9658875,"velocity":0.3937007874015748},{"duration":0.17045449999999107,"midi":68,"time":80.9658875,"velocity":0.3937007874015748},{"duration":0.08522725000000264,"midi":63,"time":80.9658875,"velocity":0.3937007874015748},{"duration":0.08522725000000264,"midi":60,"time":80.9658875,"velocity":0.3937007874015748},{"duration":0.08522725000000264,"midi":42,"time":80.9658875,"velocity":0.3937007874015748},{"duration":0.08522724999998843,"midi":42,"time":81.05111475,"velocity":0.3937007874015748},{"duration":0.2556817500000079,"midi":57,"time":81.13634199999998,"velocity":0.3937007874015748},{"duration":0.17045450000000528,"midi":69,"time":81.13634199999998,"velocity":0.3937007874015748},{"duration":0.2556817500000079,"midi":41,"time":81.13634199999998,"velocity":0.3937007874015748},{"duration":0.17045450000000528,"midi":42,"time":81.13634199999998,"velocity":0.3937007874015748},{"duration":0.08522725000000264,"midi":63,"time":81.30679649999999,"velocity":0.3937007874015748},{"duration":0.08522725000000264,"midi":42,"time":81.30679649999999,"velocity":0.3937007874015748},{"duration":0.08522725000000264,"midi":66,"time":81.30679649999999,"velocity":0.3937007874015748},{"duration":0.08522725000000264,"midi":60,"time":81.30679649999999,"velocity":0.3937007874015748},{"duration":0.426136249999999,"midi":81,"time":81.30679649999999,"velocity":0.3937007874015748},{"duration":0.08522725000000264,"midi":42,"time":81.39202374999999,"velocity":0.3937007874015748},{"duration":0.08522725000000264,"midi":41,"time":81.39202374999999,"velocity":0.3937007874015748},{"duration":0.17045449999999107,"midi":42,"time":81.477251,"velocity":0.3937007874015748},{"duration":0.17045449999999107,"midi":45,"time":81.477251,"velocity":0.3937007874015748},{"duration":0.2556817499999937,"midi":69,"time":81.477251,"velocity":0.3937007874015748},{"duration":0.08522725000000264,"midi":42,"time":81.64770549999999,"velocity":0.3937007874015748},{"duration":0.08522725000000264,"midi":63,"time":81.64770549999999,"velocity":0.3937007874015748},{"duration":0.17045450000000528,"midi":48,"time":81.64770549999999,"velocity":0.3937007874015748},{"duration":0.08522725000000264,"midi":66,"time":81.64770549999999,"velocity":0.3937007874015748},{"duration":0.08522725000000264,"midi":60,"time":81.64770549999999,"velocity":0.3937007874015748},{"duration":0.08522725000000264,"midi":42,"time":81.73293274999999,"velocity":0.3937007874015748},{"duration":0.2556817499999937,"midi":40,"time":81.81815999999999,"velocity":0.3937007874015748},{"duration":0.17045450000000528,"midi":42,"time":81.81815999999999,"velocity":0.3937007874015748},{"duration":0.426136249999999,"midi":57,"time":81.81815999999999,"velocity":0.3937007874015748},{"duration":0.08522724999998843,"midi":67,"time":81.9886145,"velocity":0.3937007874015748},{"duration":0.08522724999998843,"midi":62,"time":81.9886145,"velocity":0.3937007874015748},{"duration":0.08522724999998843,"midi":59,"time":81.9886145,"velocity":0.3937007874015748},{"duration":0.08522724999998843,"midi":42,"time":81.9886145,"velocity":0.3937007874015748},{"duration":0.08522725000000264,"midi":42,"time":82.07384174999999,"velocity":0.3937007874015748},{"duration":0.17045450000000528,"midi":69,"time":82.15906899999999,"velocity":0.3937007874015748},{"duration":0.2556817500000079,"midi":35,"time":82.15906899999999,"velocity":0.3937007874015748},{"duration":0.17045450000000528,"midi":42,"time":82.15906899999999,"velocity":0.3937007874015748},{"duration":0.17045449999999107,"midi":68,"time":82.3295235,"velocity":0.3937007874015748},{"duration":0.08522725000000264,"midi":67,"time":82.3295235,"velocity":0.3937007874015748},{"duration":0.08522725000000264,"midi":59,"time":82.3295235,"velocity":0.3937007874015748},{"duration":0.08522725000000264,"midi":62,"time":82.3295235,"velocity":0.3937007874015748},{"duration":0.426136249999999,"midi":57,"time":82.3295235,"velocity":0.3937007874015748},{"duration":0.08522725000000264,"midi":42,"time":82.3295235,"velocity":0.3937007874015748},{"duration":0.08522724999998843,"midi":42,"time":82.41475075,"velocity":0.3937007874015748},{"duration":0.2556817500000079,"midi":40,"time":82.49997799999998,"velocity":0.3937007874015748},{"duration":0.17045450000000528,"midi":69,"time":82.49997799999998,"velocity":0.3937007874015748},{"duration":0.17045450000000528,"midi":42,"time":82.49997799999998,"velocity":0.3937007874015748},{"duration":0.426136249999999,"midi":81,"time":82.67043249999999,"velocity":0.3937007874015748},{"duration":0.08522725000000264,"midi":62,"time":82.67043249999999,"velocity":0.3937007874015748},{"duration":0.08522725000000264,"midi":67,"time":82.67043249999999,"velocity":0.3937007874015748},{"duration":0.08522725000000264,"midi":59,"time":82.67043249999999,"velocity":0.3937007874015748},{"duration":0.08522725000000264,"midi":42,"time":82.67043249999999,"velocity":0.3937007874015748},{"duration":0.08522725000000264,"midi":40,"time":82.75565974999999,"velocity":0.3937007874015748},{"duration":0.08522725000000264,"midi":42,"time":82.75565974999999,"velocity":0.3937007874015748},{"duration":0.17045449999999107,"midi":42,"time":82.840887,"velocity":0.3937007874015748},{"duration":0.17045449999999107,"midi":42,"time":82.840887,"velocity":0.3937007874015748},{"duration":0.2556817499999937,"midi":69,"time":82.840887,"velocity":0.3937007874015748},{"duration":0.08522725000000264,"midi":62,"time":83.01134149999999,"velocity":0.3937007874015748},{"duration":0.08522725000000264,"midi":67,"time":83.01134149999999,"velocity":0.3937007874015748},{"duration":0.08522725000000264,"midi":42,"time":83.01134149999999,"velocity":0.3937007874015748},{"duration":0.17045450000000528,"midi":43,"time":83.01134149999999,"velocity":0.3937007874015748},{"duration":0.08522725000000264,"midi":59,"time":83.01134149999999,"velocity":0.3937007874015748},{"duration":0.08522725000000264,"midi":42,"time":83.09656874999999,"velocity":0.3937007874015748},{"duration":0.2556817499999937,"midi":45,"time":83.18179599999999,"velocity":0.3937007874015748},{"duration":0.17045450000000528,"midi":42,"time":83.18179599999999,"velocity":0.3937007874015748},{"duration":1.278408749999997,"midi":76,"time":83.18179599999999,"velocity":0.3937007874015748},{"duration":0.2556817499999937,"midi":64,"time":83.18179599999999,"velocity":0.3937007874015748},{"duration":0.426136249999999,"midi":64,"time":83.3522505,"velocity":0.3937007874015748},{"duration":0.08522724999998843,"midi":61,"time":83.3522505,"velocity":0.3937007874015748},{"duration":0.08522724999998843,"midi":42,"time":83.3522505,"velocity":0.3937007874015748},{"duration":0.08522724999998843,"midi":67,"time":83.3522505,"velocity":0.3937007874015748},{"duration":0.08522725000000264,"midi":42,"time":83.43747774999999,"velocity":0.3937007874015748},{"duration":0.2556817500000079,"midi":40,"time":83.52270499999999,"velocity":0.3937007874015748},{"duration":0.17045450000000528,"midi":42,"time":83.52270499999999,"velocity":0.3937007874015748},{"duration":0.08522725000000264,"midi":61,"time":83.6931595,"velocity":0.3937007874015748},{"duration":0.426136249999999,"midi":64,"time":83.6931595,"velocity":0.3937007874015748},{"duration":0.08522725000000264,"midi":67,"time":83.6931595,"velocity":0.3937007874015748},{"duration":0.08522725000000264,"midi":42,"time":83.6931595,"velocity":0.3937007874015748},{"duration":0.08522724999998843,"midi":42,"time":83.77838675,"velocity":0.3937007874015748},{"duration":0.17045450000000528,"midi":42,"time":83.86361399999998,"velocity":0.3937007874015748},{"duration":0.2556817500000079,"midi":45,"time":83.86361399999998,"velocity":0.3937007874015748},{"duration":0.426136249999999,"midi":64,"time":84.03406849999999,"velocity":0.3937007874015748},{"duration":0.08522725000000264,"midi":67,"time":84.03406849999999,"velocity":0.3937007874015748},{"duration":0.08522725000000264,"midi":42,"time":84.03406849999999,"velocity":0.3937007874015748},{"duration":0.08522725000000264,"midi":61,"time":84.03406849999999,"velocity":0.3937007874015748},{"duration":0.08522725000000264,"midi":42,"time":84.11929574999999,"velocity":0.3937007874015748},{"duration":0.17045449999999107,"midi":47,"time":84.204523,"velocity":0.3937007874015748},{"duration":0.17045449999999107,"midi":42,"time":84.204523,"velocity":0.3937007874015748},{"duration":0.08522725000000264,"midi":64,"time":84.37497749999999,"velocity":0.3937007874015748},{"duration":0.08522725000000264,"midi":67,"time":84.37497749999999,"velocity":0.3937007874015748},{"duration":0.08522725000000264,"midi":42,"time":84.37497749999999,"velocity":0.3937007874015748},{"duration":0.08522725000000264,"midi":61,"time":84.37497749999999,"velocity":0.3937007874015748},{"duration":0.17045450000000528,"midi":49,"time":84.37497749999999,"velocity":0.3937007874015748},{"duration":0.08522725000000264,"midi":42,"time":84.46020474999999,"velocity":0.3937007874015748},{"duration":0.2556817499999937,"midi":50,"time":84.54543199999999,"velocity":0.3937007874015748},{"duration":0.2556817499999937,"midi":66,"time":84.54543199999999,"velocity":0.3937007874015748},{"duration":1.278408749999997,"midi":74,"time":84.54543199999999,"velocity":0.3937007874015748},{"duration":0.17045450000000528,"midi":42,"time":84.54543199999999,"velocity":0.3937007874015748},{"duration":0.17045450000000528,"midi":57,"time":84.54543199999999,"velocity":0.3937007874015748},{"duration":0.17045450000000528,"midi":55,"time":84.54543199999999,"velocity":0.3937007874015748},{"duration":0.426136249999999,"midi":66,"time":84.7158865,"velocity":0.3937007874015748},{"duration":0.08522724999998843,"midi":42,"time":84.7158865,"velocity":0.3937007874015748},{"duration":0.08522724999998843,"midi":57,"time":84.7158865,"velocity":0.3937007874015748},{"duration":0.08522724999998843,"midi":62,"time":84.7158865,"velocity":0.3937007874015748},{"duration":0.08522725000000264,"midi":42,"time":84.80111374999998,"velocity":0.3937007874015748},{"duration":0.2556817500000079,"midi":45,"time":84.88634099999999,"velocity":0.3937007874015748},{"duration":0.17045450000000528,"midi":42,"time":84.88634099999999,"velocity":0.3937007874015748},{"duration":0.08522725000000264,"midi":66,"time":85.05679549999999,"velocity":0.3937007874015748},{"duration":0.08522725000000264,"midi":62,"time":85.05679549999999,"velocity":0.3937007874015748},{"duration":0.08522725000000264,"midi":42,"time":85.05679549999999,"velocity":0.3937007874015748},{"duration":0.08522725000000264,"midi":57,"time":85.05679549999999,"velocity":0.3937007874015748},{"duration":0.08522724999998843,"midi":42,"time":85.14202275,"velocity":0.3937007874015748},{"duration":0.17045450000000528,"midi":42,"time":85.22724999999998,"velocity":0.3937007874015748},{"duration":0.2556817500000079,"midi":50,"time":85.22724999999998,"velocity":0.3937007874015748},{"duration":0.2556817500000079,"midi":71,"time":85.22724999999998,"velocity":0.3937007874015748},{"duration":0.08522725000000264,"midi":42,"time":85.39770449999999,"velocity":0.3937007874015748},{"duration":0.08522725000000264,"midi":57,"time":85.39770449999999,"velocity":0.3937007874015748},{"duration":0.08522725000000264,"midi":62,"time":85.39770449999999,"velocity":0.3937007874015748},{"duration":0.08522725000000264,"midi":66,"time":85.39770449999999,"velocity":0.3937007874015748},{"duration":0.08522725000000264,"midi":42,"time":85.48293174999999,"velocity":0.3937007874015748},{"duration":0.08522725000000264,"midi":50,"time":85.48293174999999,"velocity":0.3937007874015748},{"duration":0.17045449999999107,"midi":42,"time":85.568159,"velocity":0.3937007874015748},{"duration":0.17045449999999107,"midi":42,"time":85.568159,"velocity":0.3937007874015748},{"duration":0.2556817499999937,"midi":69,"time":85.568159,"velocity":0.3937007874015748},{"duration":0.08522725000000264,"midi":62,"time":85.73861349999999,"velocity":0.3937007874015748},{"duration":0.08522725000000264,"midi":42,"time":85.73861349999999,"velocity":0.3937007874015748},{"duration":0.08522725000000264,"midi":57,"time":85.73861349999999,"velocity":0.3937007874015748},{"duration":0.17045450000000528,"midi":45,"time":85.73861349999999,"velocity":0.3937007874015748},{"duration":0.08522725000000264,"midi":66,"time":85.73861349999999,"velocity":0.3937007874015748},{"duration":0.08522725000000264,"midi":42,"time":85.82384074999999,"velocity":0.3937007874015748},{"duration":1.278408749999997,"midi":72,"time":85.90906799999999,"velocity":0.3937007874015748},{"duration":0.2556817499999937,"midi":51,"time":85.90906799999999,"velocity":0.3937007874015748},{"duration":0.17045450000000528,"midi":42,"time":85.90906799999999,"velocity":0.3937007874015748},{"duration":0.08522724999998843,"midi":42,"time":86.0795225,"velocity":0.3937007874015748},{"duration":0.08522724999998843,"midi":62,"time":86.0795225,"velocity":0.3937007874015748},{"duration":0.08522724999998843,"midi":57,"time":86.0795225,"velocity":0.3937007874015748},{"duration":0.17045449999999107,"midi":74,"time":86.0795225,"velocity":0.3937007874015748},{"duration":0.08522724999998843,"midi":66,"time":86.0795225,"velocity":0.3937007874015748},{"duration":0.08522725000000264,"midi":42,"time":86.16474974999998,"velocity":0.3937007874015748},{"duration":0.17045450000000528,"midi":42,"time":86.24997699999999,"velocity":0.3937007874015748},{"duration":0.2556817500000079,"midi":45,"time":86.24997699999999,"velocity":0.3937007874015748},{"duration":0.17045450000000528,"midi":76,"time":86.24997699999999,"velocity":0.3937007874015748},{"duration":0.08522725000000264,"midi":42,"time":86.42043149999999,"velocity":0.3937007874015748},{"duration":0.08522725000000264,"midi":62,"time":86.42043149999999,"velocity":0.3937007874015748},{"duration":0.08522725000000264,"midi":57,"time":86.42043149999999,"velocity":0.3937007874015748},{"duration":0.08522725000000264,"midi":66,"time":86.42043149999999,"velocity":0.3937007874015748},{"duration":0.426136249999999,"midi":78,"time":86.42043149999999,"velocity":0.3937007874015748},{"duration":0.08522724999998843,"midi":42,"time":86.50565875,"velocity":0.3937007874015748},{"duration":0.17045450000000528,"midi":42,"time":86.59088599999998,"velocity":0.3937007874015748},{"duration":0.2556817500000079,"midi":51,"time":86.59088599999998,"velocity":0.3937007874015748},{"duration":0.08522725000000264,"midi":57,"time":86.76134049999999,"velocity":0.3937007874015748},{"duration":0.08522725000000264,"midi":42,"time":86.76134049999999,"velocity":0.3937007874015748},{"duration":0.08522725000000264,"midi":62,"time":86.76134049999999,"velocity":0.3937007874015748},{"duration":0.08522725000000264,"midi":66,"time":86.76134049999999,"velocity":0.3937007874015748},{"duration":0.08522725000000264,"midi":42,"time":86.84656774999999,"velocity":0.3937007874015748},{"duration":0.2556817499999937,"midi":45,"time":86.931795,"velocity":0.3937007874015748},{"duration":0.17045449999999107,"midi":76,"time":86.931795,"velocity":0.3937007874015748},{"duration":0.17045449999999107,"midi":42,"time":86.931795,"velocity":0.3937007874015748},{"duration":0.08522725000000264,"midi":42,"time":87.10224949999999,"velocity":0.3937007874015748},{"duration":0.17045450000000528,"midi":74,"time":87.10224949999999,"velocity":0.3937007874015748},{"duration":0.08522725000000264,"midi":62,"time":87.10224949999999,"velocity":0.3937007874015748},{"duration":0.08522725000000264,"midi":57,"time":87.10224949999999,"velocity":0.3937007874015748},{"duration":0.08522725000000264,"midi":66,"time":87.10224949999999,"velocity":0.3937007874015748},{"duration":0.08522725000000264,"midi":42,"time":87.18747674999999,"velocity":0.3937007874015748},{"duration":0.17045450000000528,"midi":42,"time":87.27270399999999,"velocity":0.3937007874015748},{"duration":0.2556817499999937,"midi":71,"time":87.27270399999999,"velocity":0.3937007874015748},{"duration":0.2556817499999937,"midi":52,"time":87.27270399999999,"velocity":0.3937007874015748},{"duration":0.5965907500000043,"midi":71,"time":87.27270399999999,"velocity":0.3937007874015748},{"duration":0.08522724999998843,"midi":42,"time":87.4431585,"velocity":0.3937007874015748},{"duration":0.08522724999998843,"midi":62,"time":87.4431585,"velocity":0.3937007874015748},{"duration":0.08522724999998843,"midi":67,"time":87.4431585,"velocity":0.3937007874015748},{"duration":0.08522724999998843,"midi":59,"time":87.4431585,"velocity":0.3937007874015748},{"duration":0.08522725000000264,"midi":42,"time":87.52838574999998,"velocity":0.3937007874015748},{"duration":0.2556817500000079,"midi":47,"time":87.61361299999999,"velocity":0.3937007874015748},{"duration":0.17045450000000528,"midi":42,"time":87.61361299999999,"velocity":0.3937007874015748},{"duration":0.9374997500000006,"midi":71,"time":87.61361299999999,"velocity":0.3937007874015748},{"duration":0.08522725000000264,"midi":67,"time":87.78406749999999,"velocity":0.3937007874015748},{"duration":0.08522725000000264,"midi":62,"time":87.78406749999999,"velocity":0.3937007874015748},{"duration":0.08522725000000264,"midi":59,"time":87.78406749999999,"velocity":0.3937007874015748},{"duration":0.08522725000000264,"midi":42,"time":87.78406749999999,"velocity":0.3937007874015748},{"duration":0.08522725000000264,"midi":42,"time":87.86929475,"velocity":0.3937007874015748},{"duration":0.2556817499999937,"midi":52,"time":87.954522,"velocity":0.3937007874015748},{"duration":0.2556817499999937,"midi":76,"time":87.954522,"velocity":0.3937007874015748},{"duration":0.17045449999999107,"midi":42,"time":87.954522,"velocity":0.3937007874015748},{"duration":0.08522725000000264,"midi":42,"time":88.12497649999999,"velocity":0.3937007874015748},{"duration":0.08522725000000264,"midi":59,"time":88.12497649999999,"velocity":0.3937007874015748},{"duration":0.08522725000000264,"midi":67,"time":88.12497649999999,"velocity":0.3937007874015748},{"duration":0.08522725000000264,"midi":62,"time":88.12497649999999,"velocity":0.3937007874015748},{"duration":0.08522725000000264,"midi":42,"time":88.21020374999999,"velocity":0.3937007874015748},{"duration":0.2556817499999937,"midi":47,"time":88.295431,"velocity":0.3937007874015748},{"duration":0.2556817499999937,"midi":74,"time":88.295431,"velocity":0.3937007874015748},{"duration":0.17045449999999107,"midi":42,"time":88.295431,"velocity":0.3937007874015748},{"duration":0.08522725000000264,"midi":59,"time":88.46588549999998,"velocity":0.3937007874015748},{"duration":0.08522725000000264,"midi":42,"time":88.46588549999998,"velocity":0.3937007874015748},{"duration":0.08522725000000264,"midi":62,"time":88.46588549999998,"velocity":0.3937007874015748},{"duration":0.08522725000000264,"midi":67,"time":88.46588549999998,"velocity":0.3937007874015748},{"duration":0.08522725000000264,"midi":42,"time":88.55111274999999,"velocity":0.3937007874015748},{"duration":0.34090899999999635,"midi":71,"time":88.63633999999999,"velocity":0.3937007874015748},{"duration":0.2556817499999937,"midi":53,"time":88.63633999999999,"velocity":0.3937007874015748},{"duration":0.17045450000000528,"midi":42,"time":88.63633999999999,"velocity":0.3937007874015748},{"duration":1.1079542499999917,"midi":71,"time":88.8067945,"velocity":0.3937007874015748},{"duration":0.08522724999998843,"midi":62,"time":88.8067945,"velocity":0.3937007874015748},{"duration":0.08522724999998843,"midi":68,"time":88.8067945,"velocity":0.3937007874015748},{"duration":0.08522724999998843,"midi":42,"time":88.8067945,"velocity":0.3937007874015748},{"duration":0.08522724999998843,"midi":59,"time":88.8067945,"velocity":0.3937007874015748},{"duration":0.08522725000000264,"midi":42,"time":88.89202174999998,"velocity":0.3937007874015748},{"duration":0.17045450000000528,"midi":42,"time":88.97724899999999,"velocity":0.3937007874015748},{"duration":0.17045450000000528,"midi":73,"time":88.97724899999999,"velocity":0.3937007874015748},{"duration":0.2556817500000079,"midi":47,"time":88.97724899999999,"velocity":0.3937007874015748},{"duration":0.426136249999999,"midi":74,"time":89.14770349999999,"velocity":0.3937007874015748},{"duration":0.08522725000000264,"midi":68,"time":89.14770349999999,"velocity":0.3937007874015748},{"duration":0.08522725000000264,"midi":62,"time":89.14770349999999,"velocity":0.3937007874015748},{"duration":0.08522725000000264,"midi":59,"time":89.14770349999999,"velocity":0.3937007874015748},{"duration":0.08522725000000264,"midi":42,"time":89.14770349999999,"velocity":0.3937007874015748},{"duration":0.08522725000000264,"midi":42,"time":89.23293075,"velocity":0.3937007874015748},{"duration":0.2556817499999937,"midi":53,"time":89.318158,"velocity":0.3937007874015748},{"duration":0.17045449999999107,"midi":42,"time":89.318158,"velocity":0.3937007874015748},{"duration":0.08522725000000264,"midi":42,"time":89.48861249999999,"velocity":0.3937007874015748},{"duration":0.08522725000000264,"midi":68,"time":89.48861249999999,"velocity":0.3937007874015748},{"duration":0.08522725000000264,"midi":59,"time":89.48861249999999,"velocity":0.3937007874015748},{"duration":0.08522725000000264,"midi":62,"time":89.48861249999999,"velocity":0.3937007874015748},{"duration":0.08522725000000264,"midi":42,"time":89.57383974999999,"velocity":0.3937007874015748},{"duration":0.17045449999999107,"midi":73,"time":89.659067,"velocity":0.3937007874015748},{"duration":0.17045449999999107,"midi":42,"time":89.659067,"velocity":0.3937007874015748},{"duration":0.2556817499999937,"midi":47,"time":89.659067,"velocity":0.3937007874015748},{"duration":0.08522725000000264,"midi":62,"time":89.82952149999998,"velocity":0.3937007874015748},{"duration":0.08522725000000264,"midi":68,"time":89.82952149999998,"velocity":0.3937007874015748},{"duration":0.17045450000000528,"midi":71,"time":89.82952149999998,"velocity":0.3937007874015748},{"duration":0.08522725000000264,"midi":42,"time":89.82952149999998,"velocity":0.3937007874015748},{"duration":0.08522725000000264,"midi":59,"time":89.82952149999998,"velocity":0.3937007874015748},{"duration":0.08522725000000264,"midi":42,"time":89.91474874999999,"velocity":0.3937007874015748},{"duration":0.17045450000000528,"midi":42,"time":89.99997599999999,"velocity":0.3937007874015748},{"duration":0.2556817499999937,"midi":54,"time":89.99997599999999,"velocity":0.3937007874015748},{"duration":0.2556817499999937,"midi":69,"time":89.99997599999999,"velocity":0.3937007874015748},{"duration":0.426136249999999,"midi":69,"time":89.99997599999999,"velocity":0.3937007874015748},{"duration":0.08522724999998843,"midi":64,"time":90.1704305,"velocity":0.3937007874015748},{"duration":0.08522724999998843,"midi":42,"time":90.1704305,"velocity":0.3937007874015748},{"duration":0.426136249999999,"midi":69,"time":90.1704305,"velocity":0.3937007874015748},{"duration":0.08522724999998843,"midi":61,"time":90.1704305,"velocity":0.3937007874015748},{"duration":0.08522725000000264,"midi":42,"time":90.25565774999998,"velocity":0.3937007874015748},{"duration":0.2556817500000079,"midi":54,"time":90.34088499999999,"velocity":0.3937007874015748},{"duration":0.17045450000000528,"midi":42,"time":90.34088499999999,"velocity":0.3937007874015748},{"duration":0.426136249999999,"midi":69,"time":90.51133949999999,"velocity":0.3937007874015748},{"duration":0.08522725000000264,"midi":61,"time":90.51133949999999,"velocity":0.3937007874015748},{"duration":0.08522725000000264,"midi":64,"time":90.51133949999999,"velocity":0.3937007874015748},{"duration":0.08522725000000264,"midi":42,"time":90.51133949999999,"velocity":0.3937007874015748},{"duration":0.426136249999999,"midi":69,"time":90.51133949999999,"velocity":0.3937007874015748},{"duration":0.08522725000000264,"midi":42,"time":90.59656675,"velocity":0.3937007874015748},{"duration":0.17045449999999107,"midi":42,"time":90.681794,"velocity":0.3937007874015748},{"duration":0.2556817499999937,"midi":53,"time":90.681794,"velocity":0.3937007874015748},{"duration":0.08522725000000264,"midi":42,"time":90.85224849999999,"velocity":0.3937007874015748},{"duration":0.426136249999999,"midi":69,"time":90.85224849999999,"velocity":0.3937007874015748},{"duration":0.08522725000000264,"midi":60,"time":90.85224849999999,"velocity":0.3937007874015748},{"duration":0.08522725000000264,"midi":65,"time":90.85224849999999,"velocity":0.3937007874015748},{"duration":0.08522725000000264,"midi":42,"time":90.93747574999999,"velocity":0.3937007874015748},{"duration":0.17045449999999107,"midi":42,"time":91.02270299999999,"velocity":0.3937007874015748},{"duration":0.5113635000000016,"midi":57,"time":91.02270299999999,"velocity":0.3937007874015748},{"duration":0.2556817499999937,"midi":53,"time":91.02270299999999,"velocity":0.3937007874015748},{"duration":0.08522725000000264,"midi":42,"time":91.19315749999998,"velocity":0.3937007874015748},{"duration":0.08522725000000264,"midi":69,"time":91.19315749999998,"velocity":0.3937007874015748},{"duration":0.08522725000000264,"midi":65,"time":91.19315749999998,"velocity":0.3937007874015748},{"duration":0.08522725000000264,"midi":60,"time":91.19315749999998,"velocity":0.3937007874015748},{"duration":0.08522725000000264,"midi":42,"time":91.27838474999999,"velocity":0.3937007874015748},{"duration":0.17045450000000528,"midi":42,"time":91.36361199999999,"velocity":0.3937007874015748},{"duration":0.5965907500000043,"midi":81,"time":91.36361199999999,"velocity":0.3937007874015748},{"duration":0.2556817499999937,"midi":52,"time":91.36361199999999,"velocity":0.3937007874015748},{"duration":0.08522724999998843,"midi":67,"time":91.5340665,"velocity":0.3937007874015748},{"duration":0.08522724999998843,"midi":61,"time":91.5340665,"velocity":0.3937007874015748},{"duration":0.08522724999998843,"midi":64,"time":91.5340665,"velocity":0.3937007874015748},{"duration":0.08522724999998843,"midi":42,"time":91.5340665,"velocity":0.3937007874015748},{"duration":0.08522724999998843,"midi":59,"time":91.5340665,"velocity":0.3937007874015748},{"duration":0.426136249999999,"midi":69,"time":91.5340665,"velocity":0.3937007874015748},{"duration":0.08522725000000264,"midi":42,"time":91.61929374999998,"velocity":0.3937007874015748},{"duration":0.2556817500000079,"midi":52,"time":91.70452099999999,"velocity":0.3937007874015748},{"duration":0.17045450000000528,"midi":42,"time":91.70452099999999,"velocity":0.3937007874015748},{"duration":0.08522725000000264,"midi":67,"time":91.87497549999999,"velocity":0.3937007874015748},{"duration":0.08522725000000264,"midi":64,"time":91.87497549999999,"velocity":0.3937007874015748},{"duration":0.08522725000000264,"midi":59,"time":91.87497549999999,"velocity":0.3937007874015748},{"duration":0.08522725000000264,"midi":42,"time":91.87497549999999,"velocity":0.3937007874015748},{"duration":0.08522725000000264,"midi":61,"time":91.87497549999999,"velocity":0.3937007874015748},{"duration":0.08522725000000264,"midi":42,"time":91.96020275,"velocity":0.3937007874015748},{"duration":0.17045449999999107,"midi":42,"time":92.04543,"velocity":0.3937007874015748},{"duration":0.5965907499999901,"midi":73,"time":92.04543,"velocity":0.3937007874015748},{"duration":0.2556817499999937,"midi":57,"time":92.04543,"velocity":0.3937007874015748},{"duration":0.2556817499999937,"midi":51,"time":92.04543,"velocity":0.3937007874015748},{"duration":0.08522725000000264,"midi":64,"time":92.21588449999999,"velocity":0.3937007874015748},{"duration":0.08522725000000264,"midi":42,"time":92.21588449999999,"velocity":0.3937007874015748},{"duration":0.08522725000000264,"midi":58,"time":92.21588449999999,"velocity":0.3937007874015748},{"duration":0.08522725000000264,"midi":61,"time":92.21588449999999,"velocity":0.3937007874015748},{"duration":0.08522725000000264,"midi":67,"time":92.21588449999999,"velocity":0.3937007874015748},{"duration":0.08522725000000264,"midi":42,"time":92.30111174999999,"velocity":0.3937007874015748},{"duration":0.2556817499999937,"midi":51,"time":92.38633899999999,"velocity":0.3937007874015748},{"duration":0.2556817499999937,"midi":64,"time":92.38633899999999,"velocity":0.3937007874015748},{"duration":0.17045449999999107,"midi":42,"time":92.38633899999999,"velocity":0.3937007874015748},{"duration":0.08522725000000264,"midi":42,"time":92.55679349999998,"velocity":0.3937007874015748},{"duration":0.08522725000000264,"midi":61,"time":92.55679349999998,"velocity":0.3937007874015748},{"duration":0.08522725000000264,"midi":64,"time":92.55679349999998,"velocity":0.3937007874015748},{"duration":0.08522725000000264,"midi":67,"time":92.55679349999998,"velocity":0.3937007874015748},{"duration":0.08522725000000264,"midi":58,"time":92.55679349999998,"velocity":0.3937007874015748},{"duration":0.08522725000000264,"midi":42,"time":92.64202074999999,"velocity":0.3937007874015748},{"duration":0.08522725000000264,"midi":57,"time":92.72724799999999,"velocity":0.3937007874015748},{"duration":0.08522725000000264,"midi":62,"time":92.72724799999999,"velocity":0.3937007874015748},{"duration":0.17045450000000528,"midi":42,"time":92.72724799999999,"velocity":0.3937007874015748},{"duration":1.960226750000004,"midi":74,"time":92.72724799999999,"velocity":0.3937007874015748},{"duration":0.08522725000000264,"midi":66,"time":92.72724799999999,"velocity":0.3937007874015748},{"duration":0.426136249999999,"midi":62,"time":92.72724799999999,"velocity":0.3937007874015748},{"duration":0.2556817500000079,"midi":50,"time":92.72724799999999,"velocity":0.3937007874015748},{"duration":0.08522725000000264,"midi":42,"time":92.8977025,"velocity":0.3937007874015748},{"duration":0.08522724999998843,"midi":42,"time":92.98292975,"velocity":0.3937007874015748},{"duration":0.5965907500000043,"midi":62,"time":93.06815699999999,"velocity":0.3937007874015748},{"duration":0.08522725000000264,"midi":66,"time":93.06815699999999,"velocity":0.3937007874015748},{"duration":0.2556817500000079,"midi":50,"time":93.06815699999999,"velocity":0.3937007874015748},{"duration":0.17045450000000528,"midi":42,"time":93.06815699999999,"velocity":0.3937007874015748},{"duration":0.08522725000000264,"midi":57,"time":93.06815699999999,"velocity":0.3937007874015748},{"duration":0.08522725000000264,"midi":42,"time":93.23861149999999,"velocity":0.3937007874015748},{"duration":0.08522725000000264,"midi":42,"time":93.32383875,"velocity":0.3937007874015748},{"duration":0.17045449999999107,"midi":42,"time":93.409066,"velocity":0.3937007874015748},{"duration":0.2556817499999937,"midi":47,"time":93.409066,"velocity":0.3937007874015748},{"duration":0.08522725000000264,"midi":57,"time":93.57952049999999,"velocity":0.3937007874015748},{"duration":0.426136249999999,"midi":62,"time":93.57952049999999,"velocity":0.3937007874015748},{"duration":0.08522725000000264,"midi":42,"time":93.57952049999999,"velocity":0.3937007874015748},{"duration":0.08522725000000264,"midi":66,"time":93.57952049999999,"velocity":0.3937007874015748},{"duration":0.08522725000000264,"midi":42,"time":93.66474774999999,"velocity":0.3937007874015748},{"duration":0.2556817499999937,"midi":47,"time":93.74997499999999,"velocity":0.3937007874015748},{"duration":0.17045449999999107,"midi":42,"time":93.74997499999999,"velocity":0.3937007874015748},{"duration":0.7670452500000096,"midi":62,"time":93.92042949999998,"velocity":0.3937007874015748},{"duration":0.08522725000000264,"midi":57,"time":93.92042949999998,"velocity":0.3937007874015748},{"duration":0.08522725000000264,"midi":66,"time":93.92042949999998,"velocity":0.3937007874015748},{"duration":0.08522725000000264,"midi":42,"time":93.92042949999998,"velocity":0.3937007874015748},{"duration":0.08522725000000264,"midi":42,"time":94.00565674999999,"velocity":0.3937007874015748},{"duration":0.2556817500000079,"midi":46,"time":94.09088399999999,"velocity":0.3937007874015748},{"duration":0.17045450000000528,"midi":42,"time":94.09088399999999,"velocity":0.3937007874015748},{"duration":0.08522725000000264,"midi":60,"time":94.2613385,"velocity":0.3937007874015748},{"duration":0.08522725000000264,"midi":65,"time":94.2613385,"velocity":0.3937007874015748},{"duration":0.08522725000000264,"midi":57,"time":94.2613385,"velocity":0.3937007874015748},{"duration":0.17045449999999107,"midi":42,"time":94.2613385,"velocity":0.3937007874015748},{"duration":0.2556817500000079,"midi":46,"time":94.43179299999998,"velocity":0.3937007874015748},{"duration":0.17045450000000528,"midi":42,"time":94.43179299999998,"velocity":0.3937007874015748},{"duration":0.08522725000000264,"midi":65,"time":94.60224749999999,"velocity":0.3937007874015748},{"duration":0.08522725000000264,"midi":57,"time":94.60224749999999,"velocity":0.3937007874015748},{"duration":0.17045450000000528,"midi":57,"time":94.60224749999999,"velocity":0.3937007874015748},{"duration":0.17045450000000528,"midi":55,"time":94.60224749999999,"velocity":0.3937007874015748},{"duration":0.08522725000000264,"midi":60,"time":94.60224749999999,"velocity":0.3937007874015748},{"duration":0.2556817499999937,"midi":51,"time":94.772702,"velocity":0.3937007874015748},{"duration":0.17045449999999107,"midi":42,"time":94.772702,"velocity":0.3937007874015748},{"duration":0.08522725000000264,"midi":62,"time":94.94315649999999,"velocity":0.3937007874015748},{"duration":0.08522725000000264,"midi":58,"time":94.94315649999999,"velocity":0.3937007874015748},{"duration":0.08522725000000264,"midi":65,"time":94.94315649999999,"velocity":0.3937007874015748},{"duration":0.2556817499999937,"midi":51,"time":95.11361099999999,"velocity":0.3937007874015748},{"duration":0.17045449999999107,"midi":42,"time":95.11361099999999,"velocity":0.3937007874015748},{"duration":0.17045450000000528,"midi":55,"time":95.28406549999998,"velocity":0.3937007874015748},{"duration":0.08522725000000264,"midi":62,"time":95.28406549999998,"velocity":0.3937007874015748},{"duration":0.17045450000000528,"midi":42,"time":95.28406549999998,"velocity":0.3937007874015748},{"duration":0.08522725000000264,"midi":65,"time":95.28406549999998,"velocity":0.3937007874015748},{"duration":0.08522725000000264,"midi":58,"time":95.28406549999998,"velocity":0.3937007874015748},{"duration":0.17045450000000528,"midi":55,"time":95.45451999999999,"velocity":0.3937007874015748},{"duration":0.5965907500000043,"midi":69,"time":95.45451999999999,"velocity":0.3937007874015748},{"duration":0.17045450000000528,"midi":42,"time":95.45451999999999,"velocity":0.3937007874015748},{"duration":0.2556817500000079,"midi":50,"time":95.45451999999999,"velocity":0.3937007874015748},{"duration":0.17045450000000528,"midi":57,"time":95.45451999999999,"velocity":0.3937007874015748},{"duration":0.08522725000000264,"midi":62,"time":95.6249745,"velocity":0.3937007874015748},{"duration":0.08522725000000264,"midi":57,"time":95.6249745,"velocity":0.3937007874015748},{"duration":0.08522725000000264,"midi":66,"time":95.6249745,"velocity":0.3937007874015748},{"duration":0.08522725000000264,"midi":42,"time":95.6249745,"velocity":0.3937007874015748},{"duration":0.08522724999998843,"midi":42,"time":95.71020175,"velocity":0.3937007874015748},{"duration":0.17045450000000528,"midi":42,"time":95.79542899999998,"velocity":0.3937007874015748},{"duration":0.2556817500000079,"midi":45,"time":95.79542899999998,"velocity":0.3937007874015748},{"duration":0.08522725000000264,"midi":66,"time":95.96588349999999,"velocity":0.3937007874015748},{"duration":0.08522725000000264,"midi":42,"time":95.96588349999999,"velocity":0.3937007874015748},{"duration":0.08522725000000264,"midi":62,"time":95.96588349999999,"velocity":0.3937007874015748},{"duration":0.08522725000000264,"midi":57,"time":95.96588349999999,"velocity":0.3937007874015748},{"duration":0.08522725000000264,"midi":42,"time":96.05111074999999,"velocity":0.3937007874015748},{"duration":0.2556817499999937,"midi":50,"time":96.136338,"velocity":0.3937007874015748},{"duration":0.17045449999999107,"midi":42,"time":96.136338,"velocity":0.3937007874015748},{"duration":0.2556817499999937,"midi":71,"time":96.136338,"velocity":0.3937007874015748},{"duration":0.08522725000000264,"midi":42,"time":96.30679249999999,"velocity":0.3937007874015748},{"duration":0.08522725000000264,"midi":62,"time":96.30679249999999,"velocity":0.3937007874015748},{"duration":0.08522725000000264,"midi":66,"time":96.30679249999999,"velocity":0.3937007874015748},{"duration":0.08522725000000264,"midi":57,"time":96.30679249999999,"velocity":0.3937007874015748},{"duration":0.08522725000000264,"midi":50,"time":96.39201974999999,"velocity":0.3937007874015748},{"duration":0.08522725000000264,"midi":42,"time":96.39201974999999,"velocity":0.3937007874015748},{"duration":0.2556817499999937,"midi":69,"time":96.47724699999999,"velocity":0.3937007874015748},{"duration":0.17045449999999107,"midi":42,"time":96.47724699999999,"velocity":0.3937007874015748},{"duration":0.17045449999999107,"midi":47,"time":96.47724699999999,"velocity":0.3937007874015748},{"duration":0.08522725000000264,"midi":57,"time":96.64770149999998,"velocity":0.3937007874015748},{"duration":0.08522725000000264,"midi":42,"time":96.64770149999998,"velocity":0.3937007874015748},{"duration":0.08522725000000264,"midi":62,"time":96.64770149999998,"velocity":0.3937007874015748},{"duration":0.08522725000000264,"midi":66,"time":96.64770149999998,"velocity":0.3937007874015748},{"duration":0.17045450000000528,"midi":49,"time":96.64770149999998,"velocity":0.3937007874015748},{"duration":0.08522725000000264,"midi":42,"time":96.73292874999999,"velocity":0.3937007874015748},{"duration":0.2556817500000079,"midi":50,"time":96.81815599999999,"velocity":0.3937007874015748},{"duration":0.2556817500000079,"midi":62,"time":96.81815599999999,"velocity":0.3937007874015748},{"duration":0.17045450000000528,"midi":42,"time":96.81815599999999,"velocity":0.3937007874015748},{"duration":0.426136249999999,"midi":62,"time":96.9886105,"velocity":0.3937007874015748},{"duration":0.08522725000000264,"midi":66,"time":96.9886105,"velocity":0.3937007874015748},{"duration":0.08522725000000264,"midi":57,"time":96.9886105,"velocity":0.3937007874015748},{"duration":0.08522725000000264,"midi":42,"time":96.9886105,"velocity":0.3937007874015748},{"duration":0.17045449999999107,"midi":74,"time":96.9886105,"velocity":0.3937007874015748},{"duration":0.08522724999998843,"midi":42,"time":97.07383775,"velocity":0.3937007874015748},{"duration":0.17045450000000528,"midi":73,"time":97.15906499999998,"velocity":0.3937007874015748},{"duration":0.2556817500000079,"midi":45,"time":97.15906499999998,"velocity":0.3937007874015748},{"duration":0.17045450000000528,"midi":42,"time":97.15906499999998,"velocity":0.3937007874015748},{"duration":0.426136249999999,"midi":62,"time":97.32951949999999,"velocity":0.3937007874015748},{"duration":0.08522725000000264,"midi":66,"time":97.32951949999999,"velocity":0.3937007874015748},{"duration":0.08522725000000264,"midi":57,"time":97.32951949999999,"velocity":0.3937007874015748},{"duration":0.08522725000000264,"midi":42,"time":97.32951949999999,"velocity":0.3937007874015748},{"duration":0.17045450000000528,"midi":74,"time":97.32951949999999,"velocity":0.3937007874015748},{"duration":0.08522725000000264,"midi":42,"time":97.41474674999999,"velocity":0.3937007874015748},{"duration":0.34090899999999635,"midi":78,"time":97.499974,"velocity":0.3937007874015748},{"duration":0.17045449999999107,"midi":42,"time":97.499974,"velocity":0.3937007874015748},{"duration":0.2556817499999937,"midi":50,"time":97.499974,"velocity":0.3937007874015748},{"duration":0.08522725000000264,"midi":66,"time":97.67042849999999,"velocity":0.3937007874015748},{"duration":0.08522725000000264,"midi":57,"time":97.67042849999999,"velocity":0.3937007874015748},{"duration":0.08522725000000264,"midi":42,"time":97.67042849999999,"velocity":0.3937007874015748},{"duration":0.426136249999999,"midi":62,"time":97.67042849999999,"velocity":0.3937007874015748},{"duration":0.08522725000000264,"midi":50,"time":97.75565574999999,"velocity":0.3937007874015748},{"duration":0.08522725000000264,"midi":42,"time":97.75565574999999,"velocity":0.3937007874015748},{"duration":0.17045449999999107,"midi":42,"time":97.84088299999999,"velocity":0.3937007874015748},{"duration":0.17045449999999107,"midi":76,"time":97.84088299999999,"velocity":0.3937007874015748},{"duration":0.17045449999999107,"midi":48,"time":97.84088299999999,"velocity":0.3937007874015748},{"duration":0.08522725000000264,"midi":42,"time":98.01133749999998,"velocity":0.3937007874015748},{"duration":0.17045450000000528,"midi":74,"time":98.01133749999998,"velocity":0.3937007874015748},{"duration":0.08522725000000264,"midi":57,"time":98.01133749999998,"velocity":0.3937007874015748},{"duration":0.17045450000000528,"midi":47,"time":98.01133749999998,"velocity":0.3937007874015748},{"duration":0.08522725000000264,"midi":62,"time":98.01133749999998,"velocity":0.3937007874015748},{"duration":0.08522725000000264,"midi":66,"time":98.01133749999998,"velocity":0.3937007874015748},{"duration":0.08522725000000264,"midi":42,"time":98.09656474999998,"velocity":0.3937007874015748},{"duration":0.17045450000000528,"midi":42,"time":98.18179199999999,"velocity":0.3937007874015748},{"duration":1.278408749999997,"midi":71,"time":98.18179199999999,"velocity":0.3937007874015748},{"duration":0.2556817500000079,"midi":43,"time":98.18179199999999,"velocity":0.3937007874015748},{"duration":0.2556817500000079,"midi":59,"time":98.18179199999999,"velocity":0.3937007874015748},{"duration":0.08522725000000264,"midi":62,"time":98.35224649999999,"velocity":0.3937007874015748},{"duration":0.426136249999999,"midi":59,"time":98.35224649999999,"velocity":0.3937007874015748},{"duration":0.08522725000000264,"midi":67,"time":98.35224649999999,"velocity":0.3937007874015748},{"duration":0.08522725000000264,"midi":42,"time":98.35224649999999,"velocity":0.3937007874015748},{"duration":0.08522724999998843,"midi":42,"time":98.43747375,"velocity":0.3937007874015748},{"duration":0.17045450000000528,"midi":42,"time":98.52270099999998,"velocity":0.3937007874015748},{"duration":0.2556817500000079,"midi":38,"time":98.52270099999998,"velocity":0.3937007874015748},{"duration":0.08522725000000264,"midi":62,"time":98.69315549999999,"velocity":0.3937007874015748},{"duration":0.08522725000000264,"midi":42,"time":98.69315549999999,"velocity":0.3937007874015748},{"duration":0.08522725000000264,"midi":67,"time":98.69315549999999,"velocity":0.3937007874015748},{"duration":0.08522725000000264,"midi":59,"time":98.69315549999999,"velocity":0.3937007874015748},{"duration":0.08522725000000264,"midi":42,"time":98.77838274999999,"velocity":0.3937007874015748},{"duration":0.2556817499999937,"midi":43,"time":98.86361,"velocity":0.3937007874015748},{"duration":0.2556817499999937,"midi":64,"time":98.86361,"velocity":0.3937007874015748},{"duration":0.17045449999999107,"midi":42,"time":98.86361,"velocity":0.3937007874015748},{"duration":0.08522725000000264,"midi":62,"time":99.03406449999999,"velocity":0.3937007874015748},{"duration":0.08522725000000264,"midi":59,"time":99.03406449999999,"velocity":0.3937007874015748},{"duration":0.08522725000000264,"midi":67,"time":99.03406449999999,"velocity":0.3937007874015748},{"duration":0.08522725000000264,"midi":42,"time":99.03406449999999,"velocity":0.3937007874015748},{"duration":0.08522725000000264,"midi":42,"time":99.11929174999999,"velocity":0.3937007874015748},{"duration":0.2556817499999937,"midi":38,"time":99.20451899999999,"velocity":0.3937007874015748},{"duration":0.2556817499999937,"midi":62,"time":99.20451899999999,"velocity":0.3937007874015748},{"duration":0.17045450000000528,"midi":42,"time":99.20451899999999,"velocity":0.3937007874015748},{"duration":0.08522724999998843,"midi":59,"time":99.3749735,"velocity":0.3937007874015748},{"duration":0.08522724999998843,"midi":67,"time":99.3749735,"velocity":0.3937007874015748},{"duration":0.08522724999998843,"midi":62,"time":99.3749735,"velocity":0.3937007874015748},{"duration":0.08522724999998843,"midi":42,"time":99.3749735,"velocity":0.3937007874015748},{"duration":0.08522725000000264,"midi":42,"time":99.46020074999998,"velocity":0.3937007874015748},{"duration":0.2556817500000079,"midi":59,"time":99.54542799999999,"velocity":0.3937007874015748},{"duration":0.17045450000000528,"midi":42,"time":99.54542799999999,"velocity":0.3937007874015748},{"duration":0.2556817500000079,"midi":44,"time":99.54542799999999,"velocity":0.3937007874015748},{"duration":0.426136249999999,"midi":59,"time":99.71588249999999,"velocity":0.3937007874015748},{"duration":0.17045449999999107,"midi":71,"time":99.71588249999999,"velocity":0.3937007874015748},{"duration":0.08522725000000264,"midi":62,"time":99.71588249999999,"velocity":0.3937007874015748},{"duration":0.08522725000000264,"midi":68,"time":99.71588249999999,"velocity":0.3937007874015748},{"duration":0.08522725000000264,"midi":42,"time":99.71588249999999,"velocity":0.3937007874015748},{"duration":0.08522724999998843,"midi":42,"time":99.80110975,"velocity":0.3937007874015748},{"duration":0.17045450000000528,"midi":70,"time":99.88633699999998,"velocity":0.3937007874015748},{"duration":0.17045450000000528,"midi":42,"time":99.88633699999998,"velocity":0.3937007874015748},{"duration":0.2556817500000079,"midi":38,"time":99.88633699999998,"velocity":0.3937007874015748},{"duration":0.426136249999999,"midi":59,"time":100.05679149999999,"velocity":0.3937007874015748},{"duration":0.08522725000000264,"midi":42,"time":100.05679149999999,"velocity":0.3937007874015748},{"duration":0.08522725000000264,"midi":68,"time":100.05679149999999,"velocity":0.3937007874015748},{"duration":0.08522725000000264,"midi":62,"time":100.05679149999999,"velocity":0.3937007874015748},{"duration":0.17045450000000528,"midi":71,"time":100.05679149999999,"velocity":0.3937007874015748},{"duration":0.08522725000000264,"midi":42,"time":100.14201874999999,"velocity":0.3937007874015748},{"duration":0.17045449999999107,"midi":42,"time":100.227246,"velocity":0.3937007874015748},{"duration":0.2556817499999937,"midi":44,"time":100.227246,"velocity":0.3937007874015748},{"duration":0.34090899999999635,"midi":74,"time":100.227246,"velocity":0.3937007874015748},{"duration":0.08522725000000264,"midi":42,"time":100.39770049999998,"velocity":0.3937007874015748},{"duration":0.426136249999999,"midi":59,"time":100.39770049999998,"velocity":0.3937007874015748},{"duration":0.08522725000000264,"midi":62,"time":100.39770049999998,"velocity":0.3937007874015748},{"duration":0.08522725000000264,"midi":68,"time":100.39770049999998,"velocity":0.3937007874015748},{"duration":0.08522725000000264,"midi":42,"time":100.48292774999999,"velocity":0.3937007874015748},{"duration":0.2556817499999937,"midi":38,"time":100.56815499999999,"velocity":0.3937007874015748},{"duration":0.17045450000000528,"midi":73,"time":100.56815499999999,"velocity":0.3937007874015748},{"duration":0.17045450000000528,"midi":42,"time":100.56815499999999,"velocity":0.3937007874015748},{"duration":0.08522724999998843,"midi":59,"time":100.7386095,"velocity":0.3937007874015748},{"duration":0.08522724999998843,"midi":42,"time":100.7386095,"velocity":0.3937007874015748},{"duration":0.17045449999999107,"midi":71,"time":100.7386095,"velocity":0.3937007874015748},{"duration":0.08522724999998843,"midi":62,"time":100.7386095,"velocity":0.3937007874015748},{"duration":0.08522724999998843,"midi":68,"time":100.7386095,"velocity":0.3937007874015748},{"duration":0.08522725000000264,"midi":42,"time":100.82383674999998,"velocity":0.3937007874015748},{"duration":0.17045450000000528,"midi":42,"time":100.90906399999999,"velocity":0.3937007874015748},{"duration":0.2556817500000079,"midi":42,"time":100.90906399999999,"velocity":0.3937007874015748},{"duration":0.426136249999999,"midi":57,"time":100.90906399999999,"velocity":0.3937007874015748},{"duration":1.278408749999997,"midi":69,"time":100.90906399999999,"velocity":0.3937007874015748},{"duration":0.08522725000000264,"midi":61,"time":101.07951849999999,"velocity":0.3937007874015748},{"duration":0.08522725000000264,"midi":64,"time":101.07951849999999,"velocity":0.3937007874015748},{"duration":0.08522725000000264,"midi":42,"time":101.07951849999999,"velocity":0.3937007874015748},{"duration":0.08522725000000264,"midi":67,"time":101.07951849999999,"velocity":0.3937007874015748},{"duration":0.08522724999998843,"midi":42,"time":101.16474575,"velocity":0.3937007874015748},{"duration":0.17045450000000528,"midi":42,"time":101.24997299999998,"velocity":0.3937007874015748},{"duration":0.2556817500000079,"midi":38,"time":101.24997299999998,"velocity":0.3937007874015748},{"duration":0.426136249999999,"midi":57,"time":101.42042749999999,"velocity":0.3937007874015748},{"duration":0.08522725000000264,"midi":61,"time":101.42042749999999,"velocity":0.3937007874015748},{"duration":0.08522725000000264,"midi":67,"time":101.42042749999999,"velocity":0.3937007874015748},{"duration":0.08522725000000264,"midi":64,"time":101.42042749999999,"velocity":0.3937007874015748},{"duration":0.08522725000000264,"midi":42,"time":101.42042749999999,"velocity":0.3937007874015748},{"duration":0.08522725000000264,"midi":42,"time":101.50565474999999,"velocity":0.3937007874015748},{"duration":0.17045449999999107,"midi":42,"time":101.590882,"velocity":0.3937007874015748},{"duration":0.2556817499999937,"midi":42,"time":101.590882,"velocity":0.3937007874015748},{"duration":0.08522725000000264,"midi":61,"time":101.76133649999998,"velocity":0.3937007874015748},{"duration":0.08522725000000264,"midi":67,"time":101.76133649999998,"velocity":0.3937007874015748},{"duration":0.08522725000000264,"midi":42,"time":101.76133649999998,"velocity":0.3937007874015748},{"duration":0.08522725000000264,"midi":64,"time":101.76133649999998,"velocity":0.3937007874015748},{"duration":0.08522725000000264,"midi":42,"time":101.84656374999999,"velocity":0.3937007874015748},{"duration":0.08522725000000264,"midi":42,"time":101.84656374999999,"velocity":0.3937007874015748},{"duration":0.17045450000000528,"midi":42,"time":101.93179099999999,"velocity":0.3937007874015748},{"duration":0.17045450000000528,"midi":45,"time":101.93179099999999,"velocity":0.3937007874015748},{"duration":0.5113635000000016,"midi":69,"time":101.93179099999999,"velocity":0.3937007874015748},{"duration":0.08522724999998843,"midi":64,"time":102.1022455,"velocity":0.3937007874015748},{"duration":0.08522724999998843,"midi":67,"time":102.1022455,"velocity":0.3937007874015748},{"duration":0.17045449999999107,"midi":48,"time":102.1022455,"velocity":0.3937007874015748},{"duration":0.08522724999998843,"midi":61,"time":102.1022455,"velocity":0.3937007874015748},{"duration":0.08522724999998843,"midi":42,"time":102.1022455,"velocity":0.3937007874015748},{"duration":0.08522725000000264,"midi":42,"time":102.18747274999998,"velocity":0.3937007874015748},{"duration":0.17045450000000528,"midi":42,"time":102.27269999999999,"velocity":0.3937007874015748},{"duration":0.2556817500000079,"midi":41,"time":102.27269999999999,"velocity":0.3937007874015748},{"duration":0.08522725000000264,"midi":42,"time":102.44315449999999,"velocity":0.3937007874015748},{"duration":0.08522725000000264,"midi":63,"time":102.44315449999999,"velocity":0.3937007874015748},{"duration":0.426136249999999,"midi":57,"time":102.44315449999999,"velocity":0.3937007874015748},{"duration":0.08522725000000264,"midi":60,"time":102.44315449999999,"velocity":0.3937007874015748},{"duration":0.08522725000000264,"midi":66,"time":102.44315449999999,"velocity":0.3937007874015748},{"duration":0.08522724999998843,"midi":42,"time":102.52838175,"velocity":0.3937007874015748},{"duration":0.17045450000000528,"midi":42,"time":102.61360899999998,"velocity":0.3937007874015748},{"duration":0.2556817500000079,"midi":36,"time":102.61360899999998,"velocity":0.3937007874015748},{"duration":0.17045450000000528,"midi":69,"time":102.61360899999998,"velocity":0.3937007874015748},{"duration":0.08522725000000264,"midi":42,"time":102.78406349999999,"velocity":0.3937007874015748},{"duration":0.08522725000000264,"midi":60,"time":102.78406349999999,"velocity":0.3937007874015748},{"duration":0.08522725000000264,"midi":66,"time":102.78406349999999,"velocity":0.3937007874015748},{"duration":0.17045450000000528,"midi":68,"time":102.78406349999999,"velocity":0.3937007874015748},{"duration":0.08522725000000264,"midi":63,"time":102.78406349999999,"velocity":0.3937007874015748},{"duration":0.08522725000000264,"midi":42,"time":102.86929074999999,"velocity":0.3937007874015748},{"duration":0.17045449999999107,"midi":42,"time":102.954518,"velocity":0.3937007874015748},{"duration":0.2556817499999937,"midi":57,"time":102.954518,"velocity":0.3937007874015748},{"duration":0.2556817499999937,"midi":41,"time":102.954518,"velocity":0.3937007874015748},{"duration":0.17045449999999107,"midi":69,"time":102.954518,"velocity":0.3937007874015748},{"duration":0.08522725000000264,"midi":60,"time":103.12497249999998,"velocity":0.3937007874015748},{"duration":0.08522725000000264,"midi":42,"time":103.12497249999998,"velocity":0.3937007874015748},{"duration":0.08522725000000264,"midi":63,"time":103.12497249999998,"velocity":0.3937007874015748},{"duration":0.08522725000000264,"midi":66,"time":103.12497249999998,"velocity":0.3937007874015748},{"duration":0.426136249999999,"midi":81,"time":103.12497249999998,"velocity":0.3937007874015748},{"duration":0.08522725000000264,"midi":42,"time":103.21019974999999,"velocity":0.3937007874015748},{"duration":0.08522725000000264,"midi":41,"time":103.21019974999999,"velocity":0.3937007874015748},{"duration":0.2556817499999937,"midi":69,"time":103.29542699999999,"velocity":0.3937007874015748},{"duration":0.17045450000000528,"midi":45,"time":103.29542699999999,"velocity":0.3937007874015748},{"duration":0.17045450000000528,"midi":42,"time":103.29542699999999,"velocity":0.3937007874015748},{"duration":0.08522724999998843,"midi":60,"time":103.4658815,"velocity":0.3937007874015748},{"duration":0.08522724999998843,"midi":66,"time":103.4658815,"velocity":0.3937007874015748},{"duration":0.08522724999998843,"midi":63,"time":103.4658815,"velocity":0.3937007874015748},{"duration":0.17045449999999107,"midi":48,"time":103.4658815,"velocity":0.3937007874015748},{"duration":0.08522724999998843,"midi":42,"time":103.4658815,"velocity":0.3937007874015748},{"duration":0.08522725000000264,"midi":42,"time":103.55110874999998,"velocity":0.3937007874015748},{"duration":0.426136249999999,"midi":57,"time":103.63633599999999,"velocity":0.3937007874015748},{"duration":0.17045450000000528,"midi":42,"time":103.63633599999999,"velocity":0.3937007874015748},{"duration":0.2556817500000079,"midi":40,"time":103.63633599999999,"velocity":0.3937007874015748},{"duration":0.08522725000000264,"midi":62,"time":103.80679049999999,"velocity":0.3937007874015748},{"duration":0.08522725000000264,"midi":42,"time":103.80679049999999,"velocity":0.3937007874015748},{"duration":0.08522725000000264,"midi":67,"time":103.80679049999999,"velocity":0.3937007874015748},{"duration":0.08522725000000264,"midi":59,"time":103.80679049999999,"velocity":0.3937007874015748},{"duration":0.08522724999998843,"midi":42,"time":103.89201775,"velocity":0.3937007874015748},{"duration":0.2556817500000079,"midi":35,"time":103.97724499999998,"velocity":0.3937007874015748},{"duration":0.17045450000000528,"midi":69,"time":103.97724499999998,"velocity":0.3937007874015748},{"duration":0.17045450000000528,"midi":42,"time":103.97724499999998,"velocity":0.3937007874015748},{"duration":0.08522725000000264,"midi":59,"time":104.14769949999999,"velocity":0.3937007874015748},{"duration":0.426136249999999,"midi":57,"time":104.14769949999999,"velocity":0.3937007874015748},{"duration":0.08522725000000264,"midi":42,"time":104.14769949999999,"velocity":0.3937007874015748},{"duration":0.08522725000000264,"midi":62,"time":104.14769949999999,"velocity":0.3937007874015748},{"duration":0.17045450000000528,"midi":68,"time":104.14769949999999,"velocity":0.3937007874015748},{"duration":0.08522725000000264,"midi":67,"time":104.14769949999999,"velocity":0.3937007874015748},{"duration":0.08522725000000264,"midi":42,"time":104.23292674999999,"velocity":0.3937007874015748},{"duration":0.17045449999999107,"midi":69,"time":104.31815399999999,"velocity":0.3937007874015748},{"duration":0.17045449999999107,"midi":42,"time":104.31815399999999,"velocity":0.3937007874015748},{"duration":0.2556817499999937,"midi":40,"time":104.31815399999999,"velocity":0.3937007874015748},{"duration":0.08522725000000264,"midi":62,"time":104.48860849999998,"velocity":0.3937007874015748},{"duration":0.08522725000000264,"midi":67,"time":104.48860849999998,"velocity":0.3937007874015748},{"duration":0.08522725000000264,"midi":42,"time":104.48860849999998,"velocity":0.3937007874015748},{"duration":0.08522725000000264,"midi":59,"time":104.48860849999998,"velocity":0.3937007874015748},{"duration":0.426136249999999,"midi":81,"time":104.48860849999998,"velocity":0.3937007874015748},{"duration":0.08522725000000264,"midi":40,"time":104.57383574999999,"velocity":0.3937007874015748},{"duration":0.08522725000000264,"midi":42,"time":104.57383574999999,"velocity":0.3937007874015748},{"duration":0.17045450000000528,"midi":42,"time":104.65906299999999,"velocity":0.3937007874015748},{"duration":0.17045450000000528,"midi":42,"time":104.65906299999999,"velocity":0.3937007874015748},{"duration":0.2556817499999937,"midi":69,"time":104.65906299999999,"velocity":0.3937007874015748},{"duration":0.08522724999998843,"midi":42,"time":104.8295175,"velocity":0.3937007874015748},{"duration":0.08522724999998843,"midi":59,"time":104.8295175,"velocity":0.3937007874015748},{"duration":0.08522724999998843,"midi":62,"time":104.8295175,"velocity":0.3937007874015748},{"duration":0.08522724999998843,"midi":67,"time":104.8295175,"velocity":0.3937007874015748},{"duration":0.17045449999999107,"midi":43,"time":104.8295175,"velocity":0.3937007874015748},{"duration":0.08522725000000264,"midi":42,"time":104.91474474999998,"velocity":0.3937007874015748},{"duration":0.17045450000000528,"midi":42,"time":104.99997199999999,"velocity":0.3937007874015748},{"duration":0.2556817500000079,"midi":64,"time":104.99997199999999,"velocity":0.3937007874015748},{"duration":0.2556817500000079,"midi":45,"time":104.99997199999999,"velocity":0.3937007874015748},{"duration":1.278408749999997,"midi":76,"time":104.99997199999999,"velocity":0.3937007874015748},{"duration":0.426136249999999,"midi":64,"time":105.17042649999999,"velocity":0.3937007874015748},{"duration":0.08522725000000264,"midi":42,"time":105.17042649999999,"velocity":0.3937007874015748},{"duration":0.08522725000000264,"midi":61,"time":105.17042649999999,"velocity":0.3937007874015748},{"duration":0.08522725000000264,"midi":67,"time":105.17042649999999,"velocity":0.3937007874015748},{"duration":0.08522724999998843,"midi":42,"time":105.25565375,"velocity":0.3937007874015748},{"duration":0.17045450000000528,"midi":42,"time":105.34088099999998,"velocity":0.3937007874015748},{"duration":0.2556817500000079,"midi":40,"time":105.34088099999998,"velocity":0.3937007874015748},{"duration":0.08522725000000264,"midi":42,"time":105.51133549999999,"velocity":0.3937007874015748},{"duration":0.08522725000000264,"midi":61,"time":105.51133549999999,"velocity":0.3937007874015748},{"duration":0.08522725000000264,"midi":67,"time":105.51133549999999,"velocity":0.3937007874015748},{"duration":0.426136249999999,"midi":64,"time":105.51133549999999,"velocity":0.3937007874015748},{"duration":0.08522725000000264,"midi":42,"time":105.59656274999999,"velocity":0.3937007874015748},{"duration":0.17045449999999107,"midi":42,"time":105.68178999999999,"velocity":0.3937007874015748},{"duration":0.2556817499999937,"midi":45,"time":105.68178999999999,"velocity":0.3937007874015748},{"duration":0.08522725000000264,"midi":61,"time":105.85224449999998,"velocity":0.3937007874015748},{"duration":0.08522725000000264,"midi":67,"time":105.85224449999998,"velocity":0.3937007874015748},{"duration":0.426136249999999,"midi":64,"time":105.85224449999998,"velocity":0.3937007874015748},{"duration":0.08522725000000264,"midi":42,"time":105.85224449999998,"velocity":0.3937007874015748},{"duration":0.08522725000000264,"midi":42,"time":105.93747174999999,"velocity":0.3937007874015748},{"duration":0.17045450000000528,"midi":42,"time":106.02269899999999,"velocity":0.3937007874015748},{"duration":0.17045450000000528,"midi":47,"time":106.02269899999999,"velocity":0.3937007874015748},{"duration":0.17045449999999107,"midi":49,"time":106.1931535,"velocity":0.3937007874015748},{"duration":0.08522724999998843,"midi":67,"time":106.1931535,"velocity":0.3937007874015748},{"duration":0.08522724999998843,"midi":61,"time":106.1931535,"velocity":0.3937007874015748},{"duration":0.08522724999998843,"midi":64,"time":106.1931535,"velocity":0.3937007874015748},{"duration":0.08522724999998843,"midi":42,"time":106.1931535,"velocity":0.3937007874015748},{"duration":0.08522725000000264,"midi":42,"time":106.27838074999998,"velocity":0.3937007874015748},{"duration":0.2556817500000079,"midi":66,"time":106.36360799999999,"velocity":0.3937007874015748},{"duration":0.17045450000000528,"midi":42,"time":106.36360799999999,"velocity":0.3937007874015748},{"duration":0.2556817500000079,"midi":50,"time":106.36360799999999,"velocity":0.3937007874015748},{"duration":1.278408749999997,"midi":74,"time":106.36360799999999,"velocity":0.3937007874015748},{"duration":0.17045450000000528,"midi":57,"time":106.36360799999999,"velocity":0.3937007874015748},{"duration":0.17045450000000528,"midi":55,"time":106.36360799999999,"velocity":0.3937007874015748},{"duration":0.08522725000000264,"midi":62,"time":106.53406249999999,"velocity":0.3937007874015748},{"duration":0.08522725000000264,"midi":57,"time":106.53406249999999,"velocity":0.3937007874015748},{"duration":0.08522725000000264,"midi":42,"time":106.53406249999999,"velocity":0.3937007874015748},{"duration":0.426136249999999,"midi":66,"time":106.53406249999999,"velocity":0.3937007874015748},{"duration":0.08522724999998843,"midi":42,"time":106.61928975,"velocity":0.3937007874015748},{"duration":0.17045450000000528,"midi":42,"time":106.70451699999998,"velocity":0.3937007874015748},{"duration":0.2556817500000079,"midi":45,"time":106.70451699999998,"velocity":0.3937007874015748},{"duration":0.08522725000000264,"midi":42,"time":106.87497149999999,"velocity":0.3937007874015748},{"duration":0.08522725000000264,"midi":57,"time":106.87497149999999,"velocity":0.3937007874015748},{"duration":0.08522725000000264,"midi":66,"time":106.87497149999999,"velocity":0.3937007874015748},{"duration":0.08522725000000264,"midi":62,"time":106.87497149999999,"velocity":0.3937007874015748},{"duration":0.08522725000000264,"midi":42,"time":106.96019874999999,"velocity":0.3937007874015748},{"duration":0.2556817499999937,"midi":71,"time":107.04542599999999,"velocity":0.3937007874015748},{"duration":0.17045449999999107,"midi":42,"time":107.04542599999999,"velocity":0.3937007874015748},{"duration":0.2556817499999937,"midi":50,"time":107.04542599999999,"velocity":0.3937007874015748},{"duration":0.08522725000000264,"midi":57,"time":107.21588049999998,"velocity":0.3937007874015748},{"duration":0.08522725000000264,"midi":42,"time":107.21588049999998,"velocity":0.3937007874015748},{"duration":0.08522725000000264,"midi":66,"time":107.21588049999998,"velocity":0.3937007874015748},{"duration":0.08522725000000264,"midi":62,"time":107.21588049999998,"velocity":0.3937007874015748},{"duration":0.08522725000000264,"midi":50,"time":107.30110774999999,"velocity":0.3937007874015748},{"duration":0.08522725000000264,"midi":42,"time":107.30110774999999,"velocity":0.3937007874015748},{"duration":0.17045450000000528,"midi":42,"time":107.38633499999999,"velocity":0.3937007874015748},{"duration":0.2556817499999937,"midi":69,"time":107.38633499999999,"velocity":0.3937007874015748},{"duration":0.17045450000000528,"midi":42,"time":107.38633499999999,"velocity":0.3937007874015748},{"duration":0.17045449999999107,"midi":45,"time":107.5567895,"velocity":0.3937007874015748},{"duration":0.08522724999998843,"midi":42,"time":107.5567895,"velocity":0.3937007874015748},{"duration":0.08522724999998843,"midi":57,"time":107.5567895,"velocity":0.3937007874015748},{"duration":0.08522724999998843,"midi":66,"time":107.5567895,"velocity":0.3937007874015748},{"duration":0.08522724999998843,"midi":62,"time":107.5567895,"velocity":0.3937007874015748},{"duration":0.08522725000000264,"midi":42,"time":107.64201674999998,"velocity":0.3937007874015748},{"duration":0.17045450000000528,"midi":42,"time":107.72724399999998,"velocity":0.3937007874015748},{"duration":1.278408749999997,"midi":72,"time":107.72724399999998,"velocity":0.3937007874015748},{"duration":0.2556817500000079,"midi":51,"time":107.72724399999998,"velocity":0.3937007874015748},{"duration":0.08522725000000264,"midi":57,"time":107.89769849999999,"velocity":0.3937007874015748},{"duration":0.08522725000000264,"midi":66,"time":107.89769849999999,"velocity":0.3937007874015748},{"duration":0.08522725000000264,"midi":42,"time":107.89769849999999,"velocity":0.3937007874015748},{"duration":0.17045449999999107,"midi":74,"time":107.89769849999999,"velocity":0.3937007874015748},{"duration":0.08522725000000264,"midi":62,"time":107.89769849999999,"velocity":0.3937007874015748},{"duration":0.08522724999998843,"midi":42,"time":107.98292574999999,"velocity":0.3937007874015748},{"duration":0.17045450000000528,"midi":42,"time":108.06815299999998,"velocity":0.3937007874015748},{"duration":0.17045450000000528,"midi":76,"time":108.06815299999998,"velocity":0.3937007874015748},{"duration":0.2556817500000079,"midi":45,"time":108.06815299999998,"velocity":0.3937007874015748},{"duration":0.08522725000000264,"midi":66,"time":108.23860749999999,"velocity":0.3937007874015748},{"duration":0.426136249999999,"midi":78,"time":108.23860749999999,"velocity":0.3937007874015748},{"duration":0.08522725000000264,"midi":62,"time":108.23860749999999,"velocity":0.3937007874015748},{"duration":0.08522725000000264,"midi":57,"time":108.23860749999999,"velocity":0.3937007874015748},{"duration":0.08522725000000264,"midi":42,"time":108.23860749999999,"velocity":0.3937007874015748},{"duration":0.08522725000000264,"midi":42,"time":108.32383474999999,"velocity":0.3937007874015748},{"duration":0.17045449999999107,"midi":42,"time":108.40906199999999,"velocity":0.3937007874015748},{"duration":0.2556817499999937,"midi":51,"time":108.40906199999999,"velocity":0.3937007874015748},{"duration":0.08522725000000264,"midi":62,"time":108.57951649999998,"velocity":0.3937007874015748},{"duration":0.08522725000000264,"midi":57,"time":108.57951649999998,"velocity":0.3937007874015748},{"duration":0.08522725000000264,"midi":66,"time":108.57951649999998,"velocity":0.3937007874015748},{"duration":0.08522725000000264,"midi":42,"time":108.57951649999998,"velocity":0.3937007874015748},{"duration":0.08522725000000264,"midi":42,"time":108.66474374999999,"velocity":0.3937007874015748},{"duration":0.17045450000000528,"midi":76,"time":108.74997099999999,"velocity":0.3937007874015748},{"duration":0.2556817499999937,"midi":45,"time":108.74997099999999,"velocity":0.3937007874015748},{"duration":0.17045450000000528,"midi":42,"time":108.74997099999999,"velocity":0.3937007874015748},{"duration":0.17045449999999107,"midi":74,"time":108.9204255,"velocity":0.3937007874015748},{"duration":0.08522724999998843,"midi":57,"time":108.9204255,"velocity":0.3937007874015748},{"duration":0.08522724999998843,"midi":42,"time":108.9204255,"velocity":0.3937007874015748},{"duration":0.08522724999998843,"midi":62,"time":108.9204255,"velocity":0.3937007874015748},{"duration":0.08522724999998843,"midi":66,"time":108.9204255,"velocity":0.3937007874015748},{"duration":0.08522725000000264,"midi":42,"time":109.00565274999998,"velocity":0.3937007874015748},{"duration":0.2556817500000079,"midi":71,"time":109.09087999999998,"velocity":0.3937007874015748},{"duration":0.17045450000000528,"midi":42,"time":109.09087999999998,"velocity":0.3937007874015748},{"duration":0.5965907500000043,"midi":71,"time":109.09087999999998,"velocity":0.3937007874015748},{"duration":0.2556817500000079,"midi":52,"time":109.09087999999998,"velocity":0.3937007874015748},{"duration":0.08522725000000264,"midi":67,"time":109.26133449999999,"velocity":0.3937007874015748},{"duration":0.08522725000000264,"midi":62,"time":109.26133449999999,"velocity":0.3937007874015748},{"duration":0.08522725000000264,"midi":59,"time":109.26133449999999,"velocity":0.3937007874015748},{"duration":0.08522725000000264,"midi":42,"time":109.26133449999999,"velocity":0.3937007874015748},{"duration":0.08522725000000264,"midi":42,"time":109.34656174999999,"velocity":0.3937007874015748},{"duration":0.2556817499999937,"midi":47,"time":109.431789,"velocity":0.3937007874015748},{"duration":0.17045449999999107,"midi":42,"time":109.431789,"velocity":0.3937007874015748},{"duration":0.9374997499999864,"midi":71,"time":109.431789,"velocity":0.3937007874015748},{"duration":0.08522725000000264,"midi":42,"time":109.60224349999999,"velocity":0.3937007874015748},{"duration":0.08522725000000264,"midi":67,"time":109.60224349999999,"velocity":0.3937007874015748},{"duration":0.08522725000000264,"midi":59,"time":109.60224349999999,"velocity":0.3937007874015748},{"duration":0.08522725000000264,"midi":62,"time":109.60224349999999,"velocity":0.3937007874015748},{"duration":0.08522725000000264,"midi":42,"time":109.68747074999999,"velocity":0.3937007874015748},{"duration":0.17045449999999107,"midi":42,"time":109.77269799999999,"velocity":0.3937007874015748},{"duration":0.2556817499999937,"midi":52,"time":109.77269799999999,"velocity":0.3937007874015748},{"duration":0.2556817499999937,"midi":76,"time":109.77269799999999,"velocity":0.3937007874015748},{"duration":0.08522725000000264,"midi":42,"time":109.94315249999998,"velocity":0.3937007874015748},{"duration":0.08522725000000264,"midi":62,"time":109.94315249999998,"velocity":0.3937007874015748},{"duration":0.08522725000000264,"midi":67,"time":109.94315249999998,"velocity":0.3937007874015748},{"duration":0.08522725000000264,"midi":59,"time":109.94315249999998,"velocity":0.3937007874015748},{"duration":0.08522725000000264,"midi":42,"time":110.02837974999998,"velocity":0.3937007874015748},{"duration":0.17045450000000528,"midi":42,"time":110.11360699999999,"velocity":0.3937007874015748},{"duration":0.2556817499999937,"midi":47,"time":110.11360699999999,"velocity":0.3937007874015748},{"duration":0.2556817499999937,"midi":74,"time":110.11360699999999,"velocity":0.3937007874015748},{"duration":0.08522724999998843,"midi":59,"time":110.28406149999999,"velocity":0.3937007874015748},{"duration":0.08522724999998843,"midi":42,"time":110.28406149999999,"velocity":0.3937007874015748},{"duration":0.08522724999998843,"midi":67,"time":110.28406149999999,"velocity":0.3937007874015748},{"duration":0.08522724999998843,"midi":62,"time":110.28406149999999,"velocity":0.3937007874015748},{"duration":0.08522725000000264,"midi":42,"time":110.36928874999998,"velocity":0.3937007874015748},{"duration":0.2556817500000079,"midi":53,"time":110.45451599999998,"velocity":0.3937007874015748},{"duration":0.17045450000000528,"midi":42,"time":110.45451599999998,"velocity":0.3937007874015748},{"duration":0.34090900000001056,"midi":71,"time":110.45451599999998,"velocity":0.3937007874015748},{"duration":0.08522725000000264,"midi":68,"time":110.62497049999999,"velocity":0.3937007874015748},{"duration":0.08522725000000264,"midi":62,"time":110.62497049999999,"velocity":0.3937007874015748},{"duration":0.08522725000000264,"midi":59,"time":110.62497049999999,"velocity":0.3937007874015748},{"duration":1.1079542499999917,"midi":71,"time":110.62497049999999,"velocity":0.3937007874015748},{"duration":0.08522725000000264,"midi":42,"time":110.62497049999999,"velocity":0.3937007874015748},{"duration":0.08522725000000264,"midi":42,"time":110.71019774999999,"velocity":0.3937007874015748},{"duration":0.17045449999999107,"midi":73,"time":110.795425,"velocity":0.3937007874015748},{"duration":0.17045449999999107,"midi":42,"time":110.795425,"velocity":0.3937007874015748},{"duration":0.2556817499999937,"midi":47,"time":110.795425,"velocity":0.3937007874015748},{"duration":0.08522725000000264,"midi":59,"time":110.96587949999999,"velocity":0.3937007874015748},{"duration":0.08522725000000264,"midi":68,"time":110.96587949999999,"velocity":0.3937007874015748},{"duration":0.426136249999999,"midi":74,"time":110.96587949999999,"velocity":0.3937007874015748},{"duration":0.08522725000000264,"midi":62,"time":110.96587949999999,"velocity":0.3937007874015748},{"duration":0.08522725000000264,"midi":42,"time":110.96587949999999,"velocity":0.3937007874015748},{"duration":0.08522725000000264,"midi":42,"time":111.05110674999999,"velocity":0.3937007874015748},{"duration":0.17045449999999107,"midi":42,"time":111.13633399999999,"velocity":0.3937007874015748},{"duration":0.2556817499999937,"midi":53,"time":111.13633399999999,"velocity":0.3937007874015748},{"duration":0.08522725000000264,"midi":42,"time":111.30678849999998,"velocity":0.3937007874015748},{"duration":0.08522725000000264,"midi":59,"time":111.30678849999998,"velocity":0.3937007874015748},{"duration":0.08522725000000264,"midi":68,"time":111.30678849999998,"velocity":0.3937007874015748},{"duration":0.08522725000000264,"midi":62,"time":111.30678849999998,"velocity":0.3937007874015748},{"duration":0.08522725000000264,"midi":42,"time":111.39201574999998,"velocity":0.3937007874015748},{"duration":0.17045450000000528,"midi":73,"time":111.47724299999999,"velocity":0.3937007874015748},{"duration":0.17045450000000528,"midi":42,"time":111.47724299999999,"velocity":0.3937007874015748},{"duration":0.2556817499999937,"midi":47,"time":111.47724299999999,"velocity":0.3937007874015748},{"duration":0.08522724999998843,"midi":42,"time":111.64769749999999,"velocity":0.3937007874015748},{"duration":0.08522724999998843,"midi":59,"time":111.64769749999999,"velocity":0.3937007874015748},{"duration":0.08522724999998843,"midi":62,"time":111.64769749999999,"velocity":0.3937007874015748},{"duration":0.08522724999998843,"midi":68,"time":111.64769749999999,"velocity":0.3937007874015748},{"duration":0.17045449999999107,"midi":71,"time":111.64769749999999,"velocity":0.3937007874015748},{"duration":0.08522725000000264,"midi":42,"time":111.73292474999998,"velocity":0.3937007874015748},{"duration":0.2556817500000079,"midi":69,"time":111.81815199999998,"velocity":0.3937007874015748},{"duration":0.17045450000000528,"midi":42,"time":111.81815199999998,"velocity":0.3937007874015748},{"duration":0.426136249999999,"midi":69,"time":111.81815199999998,"velocity":0.3937007874015748},{"duration":0.2556817500000079,"midi":54,"time":111.81815199999998,"velocity":0.3937007874015748},{"duration":0.08522725000000264,"midi":42,"time":111.98860649999999,"velocity":0.3937007874015748},{"duration":0.08522725000000264,"midi":61,"time":111.98860649999999,"velocity":0.3937007874015748},{"duration":0.426136249999999,"midi":69,"time":111.98860649999999,"velocity":0.3937007874015748},{"duration":0.08522725000000264,"midi":64,"time":111.98860649999999,"velocity":0.3937007874015748},{"duration":0.08522725000000264,"midi":42,"time":112.07383374999999,"velocity":0.3937007874015748},{"duration":0.2556817499999937,"midi":54,"time":112.159061,"velocity":0.3937007874015748},{"duration":0.17045449999999107,"midi":42,"time":112.159061,"velocity":0.3937007874015748},{"duration":0.08522725000000264,"midi":42,"time":112.32951549999999,"velocity":0.3937007874015748},{"duration":0.426136249999999,"midi":69,"time":112.32951549999999,"velocity":0.3937007874015748},{"duration":0.08522725000000264,"midi":61,"time":112.32951549999999,"velocity":0.3937007874015748},{"duration":0.426136249999999,"midi":69,"time":112.32951549999999,"velocity":0.3937007874015748},{"duration":0.08522725000000264,"midi":64,"time":112.32951549999999,"velocity":0.3937007874015748},{"duration":0.08522725000000264,"midi":42,"time":112.41474274999999,"velocity":0.3937007874015748},{"duration":0.2556817499999937,"midi":53,"time":112.49996999999999,"velocity":0.3937007874015748},{"duration":0.17045449999999107,"midi":42,"time":112.49996999999999,"velocity":0.3937007874015748},{"duration":0.08522725000000264,"midi":65,"time":112.67042449999998,"velocity":0.3937007874015748},{"duration":0.08522725000000264,"midi":42,"time":112.67042449999998,"velocity":0.3937007874015748},{"duration":0.08522725000000264,"midi":60,"time":112.67042449999998,"velocity":0.3937007874015748},{"duration":0.426136249999999,"midi":69,"time":112.67042449999998,"velocity":0.3937007874015748},{"duration":0.08522725000000264,"midi":42,"time":112.75565174999998,"velocity":0.3937007874015748},{"duration":0.17045450000000528,"midi":42,"time":112.84087899999999,"velocity":0.3937007874015748},{"duration":0.2556817499999937,"midi":53,"time":112.84087899999999,"velocity":0.3937007874015748},{"duration":0.5113635000000016,"midi":57,"time":112.84087899999999,"velocity":0.3937007874015748},{"duration":0.08522724999998843,"midi":60,"time":113.01133349999999,"velocity":0.3937007874015748},{"duration":0.08522724999998843,"midi":65,"time":113.01133349999999,"velocity":0.3937007874015748},{"duration":0.08522724999998843,"midi":69,"time":113.01133349999999,"velocity":0.3937007874015748},{"duration":0.08522724999998843,"midi":42,"time":113.01133349999999,"velocity":0.3937007874015748},{"duration":0.08522725000000264,"midi":42,"time":113.09656074999998,"velocity":0.3937007874015748},{"duration":0.2556817500000079,"midi":52,"time":113.18178799999998,"velocity":0.3937007874015748},{"duration":0.5965907500000043,"midi":81,"time":113.18178799999998,"velocity":0.3937007874015748},{"duration":0.17045450000000528,"midi":42,"time":113.18178799999998,"velocity":0.3937007874015748},{"duration":0.426136249999999,"midi":69,"time":113.35224249999999,"velocity":0.3937007874015748},{"duration":0.08522725000000264,"midi":64,"time":113.35224249999999,"velocity":0.3937007874015748},{"duration":0.08522725000000264,"midi":42,"time":113.35224249999999,"velocity":0.3937007874015748},{"duration":0.08522725000000264,"midi":67,"time":113.35224249999999,"velocity":0.3937007874015748},{"duration":0.08522725000000264,"midi":59,"time":113.35224249999999,"velocity":0.3937007874015748},{"duration":0.08522725000000264,"midi":61,"time":113.35224249999999,"velocity":0.3937007874015748},{"duration":0.08522725000000264,"midi":42,"time":113.43746974999999,"velocity":0.3937007874015748},{"duration":0.17045449999999107,"midi":42,"time":113.522697,"velocity":0.3937007874015748},{"duration":0.2556817499999937,"midi":52,"time":113.522697,"velocity":0.3937007874015748},{"duration":0.08522725000000264,"midi":61,"time":113.69315149999998,"velocity":0.3937007874015748},{"duration":0.08522725000000264,"midi":59,"time":113.69315149999998,"velocity":0.3937007874015748},{"duration":0.08522725000000264,"midi":67,"time":113.69315149999998,"velocity":0.3937007874015748},{"duration":0.08522725000000264,"midi":42,"time":113.69315149999998,"velocity":0.3937007874015748},{"duration":0.08522725000000264,"midi":64,"time":113.69315149999998,"velocity":0.3937007874015748},{"duration":0.08522725000000264,"midi":42,"time":113.77837874999999,"velocity":0.3937007874015748},{"duration":0.17045449999999107,"midi":42,"time":113.86360599999999,"velocity":0.3937007874015748},{"duration":0.2556817499999937,"midi":51,"time":113.86360599999999,"velocity":0.3937007874015748},{"duration":0.5965907499999901,"midi":73,"time":113.86360599999999,"velocity":0.3937007874015748},{"duration":0.2556817499999937,"midi":57,"time":113.86360599999999,"velocity":0.3937007874015748},{"duration":0.08522725000000264,"midi":64,"time":114.03406049999998,"velocity":0.3937007874015748},{"duration":0.08522725000000264,"midi":58,"time":114.03406049999998,"velocity":0.3937007874015748},{"duration":0.08522725000000264,"midi":42,"time":114.03406049999998,"velocity":0.3937007874015748},{"duration":0.08522725000000264,"midi":61,"time":114.03406049999998,"velocity":0.3937007874015748},{"duration":0.08522725000000264,"midi":67,"time":114.03406049999998,"velocity":0.3937007874015748},{"duration":0.08522725000000264,"midi":42,"time":114.11928774999998,"velocity":0.3937007874015748},{"duration":0.17045450000000528,"midi":42,"time":114.20451499999999,"velocity":0.3937007874015748},{"duration":0.2556817499999937,"midi":51,"time":114.20451499999999,"velocity":0.3937007874015748},{"duration":0.2556817499999937,"midi":64,"time":114.20451499999999,"velocity":0.3937007874015748},{"duration":0.08522724999998843,"midi":58,"time":114.37496949999999,"velocity":0.3937007874015748},{"duration":0.08522724999998843,"midi":42,"time":114.37496949999999,"velocity":0.3937007874015748},{"duration":0.08522724999998843,"midi":64,"time":114.37496949999999,"velocity":0.3937007874015748},{"duration":0.08522724999998843,"midi":61,"time":114.37496949999999,"velocity":0.3937007874015748},{"duration":0.08522724999998843,"midi":67,"time":114.37496949999999,"velocity":0.3937007874015748},{"duration":0.08522725000000264,"midi":42,"time":114.46019674999998,"velocity":0.3937007874015748},{"duration":0.2556817500000079,"midi":62,"time":114.54542399999998,"velocity":0.3937007874015748},{"duration":0.17045450000000528,"midi":42,"time":114.54542399999998,"velocity":0.3937007874015748},{"duration":1.534090500000005,"midi":74,"time":114.54542399999998,"velocity":0.3937007874015748},{"duration":0.2556817500000079,"midi":50,"time":114.54542399999998,"velocity":0.3937007874015748},{"duration":0.08522725000000264,"midi":42,"time":114.71587849999999,"velocity":0.3937007874015748},{"duration":0.426136249999999,"midi":62,"time":114.71587849999999,"velocity":0.3937007874015748},{"duration":0.08522725000000264,"midi":66,"time":114.71587849999999,"velocity":0.3937007874015748},{"duration":0.08522725000000264,"midi":57,"time":114.71587849999999,"velocity":0.3937007874015748},{"duration":0.08522725000000264,"midi":42,"time":114.80110574999999,"velocity":0.3937007874015748},{"duration":0.17045449999999107,"midi":47,"time":114.886333,"velocity":0.3937007874015748},{"duration":0.17045449999999107,"midi":42,"time":114.886333,"velocity":0.3937007874015748},{"duration":0.08522725000000264,"midi":57,"time":115.05678749999998,"velocity":0.3937007874015748},{"duration":0.426136249999999,"midi":62,"time":115.05678749999998,"velocity":0.3937007874015748},{"duration":0.08522725000000264,"midi":66,"time":115.05678749999998,"velocity":0.3937007874015748},{"duration":0.17045450000000528,"midi":49,"time":115.05678749999998,"velocity":0.3937007874015748},{"duration":0.08522725000000264,"midi":42,"time":115.05678749999998,"velocity":0.3937007874015748},{"duration":0.08522725000000264,"midi":42,"time":115.14201474999999,"velocity":0.3937007874015748},{"duration":0.2556817499999937,"midi":50,"time":115.22724199999999,"velocity":0.3937007874015748},{"duration":0.17045449999999107,"midi":42,"time":115.22724199999999,"velocity":0.3937007874015748},{"duration":0.08522725000000264,"midi":66,"time":115.39769649999998,"velocity":0.3937007874015748},{"duration":0.08522725000000264,"midi":42,"time":115.39769649999998,"velocity":0.3937007874015748},{"duration":0.08522725000000264,"midi":57,"time":115.39769649999998,"velocity":0.3937007874015748},{"duration":0.4261362500000132,"midi":62,"time":115.39769649999998,"velocity":0.3937007874015748},{"duration":0.08522725000000264,"midi":42,"time":115.48292374999998,"velocity":0.3937007874015748},{"duration":0.2556817500000079,"midi":45,"time":115.56815099999999,"velocity":0.3937007874015748},{"duration":0.17045450000000528,"midi":42,"time":115.56815099999999,"velocity":0.3937007874015748},{"duration":0.08522725000000264,"midi":42,"time":115.73860549999999,"velocity":0.3937007874015748},{"duration":0.08522725000000264,"midi":57,"time":115.73860549999999,"velocity":0.3937007874015748},{"duration":0.08522725000000264,"midi":66,"time":115.73860549999999,"velocity":0.3937007874015748},{"duration":0.426136249999999,"midi":62,"time":115.73860549999999,"velocity":0.3937007874015748},{"duration":0.08522724999998843,"midi":42,"time":115.82383275,"velocity":0.3937007874015748},{"duration":0.17045450000000528,"midi":42,"time":115.90905999999998,"velocity":0.3937007874015748},{"duration":0.2556817500000079,"midi":50,"time":115.90905999999998,"velocity":0.3937007874015748},{"duration":0.426136249999999,"midi":62,"time":116.07951449999999,"velocity":0.3937007874015748},{"duration":0.08522725000000264,"midi":57,"time":116.07951449999999,"velocity":0.3937007874015748},{"duration":0.17045450000000528,"midi":74,"time":116.07951449999999,"velocity":0.3937007874015748},{"duration":0.17045450000000528,"midi":42,"time":116.07951449999999,"velocity":0.3937007874015748},{"duration":0.08522725000000264,"midi":66,"time":116.07951449999999,"velocity":0.3937007874015748},{"duration":0.17045449999999107,"midi":73,"time":116.249969,"velocity":0.3937007874015748},{"duration":0.2556817499999937,"midi":45,"time":116.249969,"velocity":0.3937007874015748},{"duration":0.17045449999999107,"midi":42,"time":116.249969,"velocity":0.3937007874015748},{"duration":0.08522725000000264,"midi":66,"time":116.42042349999998,"velocity":0.3937007874015748},{"duration":0.17045450000000528,"midi":55,"time":116.42042349999998,"velocity":0.3937007874015748},{"duration":0.17045450000000528,"midi":74,"time":116.42042349999998,"velocity":0.3937007874015748},{"duration":0.08522725000000264,"midi":62,"time":116.42042349999998,"velocity":0.3937007874015748},{"duration":0.08522725000000264,"midi":57,"time":116.42042349999998,"velocity":0.3937007874015748},{"duration":0.17045450000000528,"midi":57,"time":116.42042349999998,"velocity":0.3937007874015748},{"duration":0.17045449999999107,"midi":76,"time":116.59087799999999,"velocity":0.3937007874015748},{"duration":0.17045449999999107,"midi":42,"time":116.59087799999999,"velocity":0.3937007874015748},{"duration":0.2556817499999937,"midi":50,"time":116.59087799999999,"velocity":0.3937007874015748},{"duration":0.17045450000000528,"midi":78,"time":116.76133249999998,"velocity":0.3937007874015748},{"duration":0.08522725000000264,"midi":57,"time":116.76133249999998,"velocity":0.3937007874015748},{"duration":0.08522725000000264,"midi":62,"time":116.76133249999998,"velocity":0.3937007874015748},{"duration":0.08522725000000264,"midi":66,"time":116.76133249999998,"velocity":0.3937007874015748},{"duration":0.17045450000000528,"midi":79,"time":116.93178699999999,"velocity":0.3937007874015748},{"duration":0.17045450000000528,"midi":42,"time":116.93178699999999,"velocity":0.3937007874015748},{"duration":0.17045450000000528,"midi":52,"time":116.93178699999999,"velocity":0.3937007874015748},{"duration":0.17045449999999107,"midi":54,"time":117.10224149999999,"velocity":0.3937007874015748},{"duration":0.08522725000000264,"midi":57,"time":117.10224149999999,"velocity":0.3937007874015748},{"duration":0.08522725000000264,"midi":66,"time":117.10224149999999,"velocity":0.3937007874015748},{"duration":0.08522725000000264,"midi":62,"time":117.10224149999999,"velocity":0.3937007874015748},{"duration":0.17045449999999107,"midi":81,"time":117.10224149999999,"velocity":0.3937007874015748},{"duration":0.08522725000000264,"midi":42,"time":117.10224149999999,"velocity":0.3937007874015748},{"duration":0.08522724999998843,"midi":42,"time":117.18746875,"velocity":0.3937007874015748},{"duration":0.5965907500000043,"midi":83,"time":117.27269599999998,"velocity":0.3937007874015748},{"duration":0.17045450000000528,"midi":42,"time":117.27269599999998,"velocity":0.3937007874015748},{"duration":0.2556817500000079,"midi":55,"time":117.27269599999998,"velocity":0.3937007874015748},{"duration":0.08522725000000264,"midi":67,"time":117.44315049999999,"velocity":0.3937007874015748},{"duration":0.08522725000000264,"midi":59,"time":117.44315049999999,"velocity":0.3937007874015748},{"duration":0.17045450000000528,"midi":42,"time":117.44315049999999,"velocity":0.3937007874015748},{"duration":0.08522725000000264,"midi":62,"time":117.44315049999999,"velocity":0.3937007874015748},{"duration":0.08522725000000264,"midi":71,"time":117.44315049999999,"velocity":0.3937007874015748},{"duration":0.08522724999998843,"midi":74,"time":117.61360499999999,"velocity":0.3937007874015748},{"duration":0.17045449999999107,"midi":42,"time":117.61360499999999,"velocity":0.3937007874015748},{"duration":0.2556817499999937,"midi":55,"time":117.61360499999999,"velocity":0.3937007874015748},{"duration":0.08522725000000264,"midi":62,"time":117.78405949999998,"velocity":0.3937007874015748},{"duration":0.08522725000000264,"midi":67,"time":117.78405949999998,"velocity":0.3937007874015748},{"duration":0.08522725000000264,"midi":59,"time":117.78405949999998,"velocity":0.3937007874015748},{"duration":0.17045450000000528,"midi":42,"time":117.78405949999998,"velocity":0.3937007874015748},{"duration":0.08522725000000264,"midi":71,"time":117.78405949999998,"velocity":0.3937007874015748},{"duration":0.2556817499999937,"midi":55,"time":117.95451399999999,"velocity":0.3937007874015748},{"duration":0.08522725000000264,"midi":70,"time":117.95451399999999,"velocity":0.3937007874015748},{"duration":0.17045449999999107,"midi":42,"time":117.95451399999999,"velocity":0.3937007874015748},{"duration":0.5965907500000043,"midi":83,"time":117.95451399999999,"velocity":0.3937007874015748},{"duration":0.17045450000000528,"midi":42,"time":118.12496849999998,"velocity":0.3937007874015748},{"duration":0.08522725000000264,"midi":59,"time":118.12496849999998,"velocity":0.3937007874015748},{"duration":0.08522725000000264,"midi":62,"time":118.12496849999998,"velocity":0.3937007874015748},{"duration":0.08522725000000264,"midi":67,"time":118.12496849999998,"velocity":0.3937007874015748},{"duration":0.08522725000000264,"midi":71,"time":118.12496849999998,"velocity":0.3937007874015748},{"duration":0.08522725000000264,"midi":74,"time":118.29542299999999,"velocity":0.3937007874015748},{"duration":0.17045450000000528,"midi":42,"time":118.29542299999999,"velocity":0.3937007874015748},{"duration":0.2556817500000079,"midi":55,"time":118.29542299999999,"velocity":0.3937007874015748},{"duration":0.17045449999999107,"midi":46,"time":118.46587749999999,"velocity":0.3937007874015748},{"duration":0.08522725000000264,"midi":59,"time":118.46587749999999,"velocity":0.3937007874015748},{"duration":0.08522725000000264,"midi":71,"time":118.46587749999999,"velocity":0.3937007874015748},{"duration":0.08522725000000264,"midi":67,"time":118.46587749999999,"velocity":0.3937007874015748},{"duration":0.08522725000000264,"midi":62,"time":118.46587749999999,"velocity":0.3937007874015748},{"duration":0.17045450000000528,"midi":42,"time":118.63633199999998,"velocity":0.3937007874015748},{"duration":0.2556817500000079,"midi":54,"time":118.63633199999998,"velocity":0.3937007874015748},{"duration":0.5965907500000043,"midi":81,"time":118.63633199999998,"velocity":0.3937007874015748},{"duration":0.08522725000000264,"midi":57,"time":118.80678649999999,"velocity":0.3937007874015748},{"duration":0.08522725000000264,"midi":62,"time":118.80678649999999,"velocity":0.3937007874015748},{"duration":0.17045450000000528,"midi":42,"time":118.80678649999999,"velocity":0.3937007874015748},{"duration":0.08522725000000264,"midi":69,"time":118.80678649999999,"velocity":0.3937007874015748},{"duration":0.08522725000000264,"midi":66,"time":118.80678649999999,"velocity":0.3937007874015748},{"duration":0.2556817499999937,"midi":54,"time":118.97724099999999,"velocity":0.3937007874015748},{"duration":0.08522724999998843,"midi":74,"time":118.97724099999999,"velocity":0.3937007874015748},{"duration":0.17045449999999107,"midi":42,"time":118.97724099999999,"velocity":0.3937007874015748},{"duration":0.08522725000000264,"midi":66,"time":119.14769549999998,"velocity":0.3937007874015748},{"duration":0.08522725000000264,"midi":57,"time":119.14769549999998,"velocity":0.3937007874015748},{"duration":0.08522725000000264,"midi":69,"time":119.14769549999998,"velocity":0.3937007874015748},{"duration":0.08522725000000264,"midi":62,"time":119.14769549999998,"velocity":0.3937007874015748},{"duration":0.17045450000000528,"midi":42,"time":119.14769549999998,"velocity":0.3937007874015748},{"duration":0.2556817499999937,"midi":53,"time":119.31814999999999,"velocity":0.3937007874015748},{"duration":0.17045449999999107,"midi":42,"time":119.31814999999999,"velocity":0.3937007874015748},{"duration":0.2556817499999937,"midi":83,"time":119.31814999999999,"velocity":0.3937007874015748},{"duration":0.08522724999998843,"midi":69,"time":119.40337724999999,"velocity":0.3937007874015748},{"duration":0.08522725000000264,"midi":65,"time":119.48860449999998,"velocity":0.3937007874015748},{"duration":0.08522725000000264,"midi":62,"time":119.48860449999998,"velocity":0.3937007874015748},{"duration":0.17045450000000528,"midi":42,"time":119.48860449999998,"velocity":0.3937007874015748},{"duration":0.08522725000000264,"midi":57,"time":119.48860449999998,"velocity":0.3937007874015748},{"duration":0.2556817500000079,"midi":53,"time":119.65905899999998,"velocity":0.3937007874015748},{"duration":0.17045450000000528,"midi":42,"time":119.65905899999998,"velocity":0.3937007874015748},{"duration":0.08522725000000264,"midi":74,"time":119.65905899999998,"velocity":0.3937007874015748},{"duration":0.2556817500000079,"midi":78,"time":119.65905899999998,"velocity":0.3937007874015748},{"duration":0.08522725000000264,"midi":62,"time":119.82951349999999,"velocity":0.3937007874015748},{"duration":0.08522725000000264,"midi":57,"time":119.82951349999999,"velocity":0.3937007874015748},{"duration":0.17045449999999107,"midi":46,"time":119.82951349999999,"velocity":0.3937007874015748},{"duration":0.08522725000000264,"midi":65,"time":119.82951349999999,"velocity":0.3937007874015748},{"duration":0.08522725000000264,"midi":69,"time":119.82951349999999,"velocity":0.3937007874015748},{"duration":0.2556817500000079,"midi":52,"time":119.99996799999998,"velocity":0.3937007874015748},{"duration":0.5965907500000043,"midi":79,"time":119.99996799999998,"velocity":0.3937007874015748},{"duration":0.17045450000000528,"midi":42,"time":119.99996799999998,"velocity":0.3937007874015748},{"duration":0.17045450000000528,"midi":42,"time":120.17042249999999,"velocity":0.3937007874015748},{"duration":0.08522725000000264,"midi":64,"time":120.17042249999999,"velocity":0.3937007874015748},{"duration":0.08522725000000264,"midi":67,"time":120.17042249999999,"velocity":0.3937007874015748},{"duration":0.08522725000000264,"midi":59,"time":120.17042249999999,"velocity":0.3937007874015748},{"duration":0.08522725000000264,"midi":67,"time":120.17042249999999,"velocity":0.3937007874015748},{"duration":0.08522724999998843,"midi":74,"time":120.34087699999999,"velocity":0.3937007874015748},{"duration":0.2556817499999937,"midi":52,"time":120.34087699999999,"velocity":0.3937007874015748},{"duration":0.17045449999999107,"midi":42,"time":120.34087699999999,"velocity":0.3937007874015748},{"duration":0.08522725000000264,"midi":67,"time":120.51133149999998,"velocity":0.3937007874015748},{"duration":0.08522725000000264,"midi":67,"time":120.51133149999998,"velocity":0.3937007874015748},{"duration":0.08522725000000264,"midi":64,"time":120.51133149999998,"velocity":0.3937007874015748},{"duration":0.17045450000000528,"midi":42,"time":120.51133149999998,"velocity":0.3937007874015748},{"duration":0.08522725000000264,"midi":59,"time":120.51133149999998,"velocity":0.3937007874015748},{"duration":0.08522725000000264,"midi":66,"time":120.68178599999999,"velocity":0.3937007874015748},{"duration":0.17045450000000528,"midi":42,"time":120.68178599999999,"velocity":0.3937007874015748},{"duration":0.2556817499999937,"midi":51,"time":120.68178599999999,"velocity":0.3937007874015748},{"duration":0.5965907500000043,"midi":81,"time":120.68178599999999,"velocity":0.3937007874015748},{"duration":0.08522724999998843,"midi":67,"time":120.8522405,"velocity":0.3937007874015748},{"duration":0.08522724999998843,"midi":66,"time":120.8522405,"velocity":0.3937007874015748},{"duration":0.08522724999998843,"midi":69,"time":120.8522405,"velocity":0.3937007874015748},{"duration":0.17045449999999107,"midi":42,"time":120.8522405,"velocity":0.3937007874015748},{"duration":0.08522724999998843,"midi":61,"time":120.8522405,"velocity":0.3937007874015748},{"duration":0.17045450000000528,"midi":42,"time":121.02269499999998,"velocity":0.3937007874015748},{"duration":0.08522725000000264,"midi":74,"time":121.02269499999998,"velocity":0.3937007874015748},{"duration":0.2556817500000079,"midi":51,"time":121.02269499999998,"velocity":0.3937007874015748},{"duration":0.08522725000000264,"midi":61,"time":121.19314949999999,"velocity":0.3937007874015748},{"duration":0.08522725000000264,"midi":66,"time":121.19314949999999,"velocity":0.3937007874015748},{"duration":0.17045449999999107,"midi":42,"time":121.19314949999999,"velocity":0.3937007874015748},{"duration":0.08522725000000264,"midi":66,"time":121.19314949999999,"velocity":0.3937007874015748},{"duration":0.08522725000000264,"midi":69,"time":121.19314949999999,"velocity":0.3937007874015748},{"duration":0.17045450000000528,"midi":42,"time":121.36360399999998,"velocity":0.3937007874015748},{"duration":0.8522725000000122,"midi":78,"time":121.36360399999998,"velocity":0.3937007874015748},{"duration":0.2556817500000079,"midi":50,"time":121.36360399999998,"velocity":0.3937007874015748},{"duration":0.08522725000000264,"midi":69,"time":121.53405849999999,"velocity":0.3937007874015748},{"duration":0.08522725000000264,"midi":62,"time":121.53405849999999,"velocity":0.3937007874015748},{"duration":0.08522725000000264,"midi":66,"time":121.53405849999999,"velocity":0.3937007874015748},{"duration":0.17045450000000528,"midi":42,"time":121.53405849999999,"velocity":0.3937007874015748},{"duration":0.08522725000000264,"midi":66,"time":121.53405849999999,"velocity":0.3937007874015748},{"duration":0.2556817499999937,"midi":45,"time":121.70451299999999,"velocity":0.3937007874015748},{"duration":0.17045449999999107,"midi":42,"time":121.70451299999999,"velocity":0.3937007874015748},{"duration":0.08522724999998843,"midi":74,"time":121.70451299999999,"velocity":0.3937007874015748},{"duration":0.08522725000000264,"midi":62,"time":121.87496749999998,"velocity":0.3937007874015748},{"duration":0.08522725000000264,"midi":66,"time":121.87496749999998,"velocity":0.3937007874015748},{"duration":0.08522725000000264,"midi":69,"time":121.87496749999998,"velocity":0.3937007874015748},{"duration":0.08522725000000264,"midi":66,"time":121.87496749999998,"velocity":0.3937007874015748},{"duration":0.17045450000000528,"midi":42,"time":121.87496749999998,"velocity":0.3937007874015748},{"duration":0.17045450000000528,"midi":42,"time":122.04542199999999,"velocity":0.3937007874015748},{"duration":0.08522725000000264,"midi":65,"time":122.04542199999999,"velocity":0.3937007874015748},{"duration":0.2556817499999937,"midi":50,"time":122.04542199999999,"velocity":0.3937007874015748},{"duration":0.17045449999999107,"midi":81,"time":122.2158765,"velocity":0.3937007874015748},{"duration":0.08522724999998843,"midi":66,"time":122.2158765,"velocity":0.3937007874015748},{"duration":0.08522724999998843,"midi":66,"time":122.2158765,"velocity":0.3937007874015748},{"duration":0.08522724999998843,"midi":69,"time":122.2158765,"velocity":0.3937007874015748},{"duration":0.17045449999999107,"midi":42,"time":122.2158765,"velocity":0.3937007874015748},{"duration":0.08522724999998843,"midi":62,"time":122.2158765,"velocity":0.3937007874015748},{"duration":0.08522725000000264,"midi":67,"time":122.38633099999998,"velocity":0.3937007874015748},{"duration":0.17045450000000528,"midi":83,"time":122.38633099999998,"velocity":0.3937007874015748},{"duration":0.17045450000000528,"midi":42,"time":122.38633099999998,"velocity":0.3937007874015748},{"duration":0.17045450000000528,"midi":52,"time":122.38633099999998,"velocity":0.3937007874015748},{"duration":0.08522725000000264,"midi":69,"time":122.55678549999999,"velocity":0.3937007874015748},{"duration":0.17045449999999107,"midi":54,"time":122.55678549999999,"velocity":0.3937007874015748},{"duration":0.17045449999999107,"midi":42,"time":122.55678549999999,"velocity":0.3937007874015748},{"duration":0.17045449999999107,"midi":85,"time":122.55678549999999,"velocity":0.3937007874015748},{"duration":0.08522725000000264,"midi":69,"time":122.55678549999999,"velocity":0.3937007874015748},{"duration":0.08522725000000264,"midi":66,"time":122.55678549999999,"velocity":0.3937007874015748},{"duration":0.08522725000000264,"midi":62,"time":122.55678549999999,"velocity":0.3937007874015748},{"duration":0.2556817500000079,"midi":55,"time":122.72723999999998,"velocity":0.3937007874015748},{"duration":0.17045450000000528,"midi":42,"time":122.72723999999998,"velocity":0.3937007874015748},{"duration":0.8522725000000122,"midi":86,"time":122.72723999999998,"velocity":0.3937007874015748},{"duration":0.08522725000000264,"midi":71,"time":122.89769449999999,"velocity":0.3937007874015748},{"duration":0.08522725000000264,"midi":62,"time":122.89769449999999,"velocity":0.3937007874015748},{"duration":0.17045450000000528,"midi":42,"time":122.89769449999999,"velocity":0.3937007874015748},{"duration":0.08522725000000264,"midi":71,"time":122.89769449999999,"velocity":0.3937007874015748},{"duration":0.08522725000000264,"midi":67,"time":122.89769449999999,"velocity":0.3937007874015748},{"duration":0.2556817499999937,"midi":55,"time":123.06814899999999,"velocity":0.3937007874015748},{"duration":0.17045449999999107,"midi":42,"time":123.06814899999999,"velocity":0.3937007874015748},{"duration":0.08522724999998843,"midi":74,"time":123.06814899999999,"velocity":0.3937007874015748},{"duration":0.08522725000000264,"midi":71,"time":123.23860349999998,"velocity":0.3937007874015748},{"duration":0.17045450000000528,"midi":42,"time":123.23860349999998,"velocity":0.3937007874015748},{"duration":0.08522725000000264,"midi":62,"time":123.23860349999998,"velocity":0.3937007874015748},{"duration":0.08522725000000264,"midi":67,"time":123.23860349999998,"velocity":0.3937007874015748},{"duration":0.08522725000000264,"midi":71,"time":123.23860349999998,"velocity":0.3937007874015748},{"duration":0.08522725000000264,"midi":70,"time":123.40905799999999,"velocity":0.3937007874015748},{"duration":0.2556817499999937,"midi":55,"time":123.40905799999999,"velocity":0.3937007874015748},{"duration":0.17045450000000528,"midi":42,"time":123.40905799999999,"velocity":0.3937007874015748},{"duration":0.17045449999999107,"midi":85,"time":123.57951249999999,"velocity":0.3937007874015748},{"duration":0.17045449999999107,"midi":42,"time":123.57951249999999,"velocity":0.3937007874015748},{"duration":0.08522724999998843,"midi":62,"time":123.57951249999999,"velocity":0.3937007874015748},{"duration":0.08522724999998843,"midi":67,"time":123.57951249999999,"velocity":0.3937007874015748},{"duration":0.08522724999998843,"midi":71,"time":123.57951249999999,"velocity":0.3937007874015748},{"duration":0.08522724999998843,"midi":71,"time":123.57951249999999,"velocity":0.3937007874015748},{"duration":0.17045450000000528,"midi":42,"time":123.74996699999998,"velocity":0.3937007874015748},{"duration":0.2556817500000079,"midi":55,"time":123.74996699999998,"velocity":0.3937007874015748},{"duration":0.08522725000000264,"midi":74,"time":123.74996699999998,"velocity":0.3937007874015748},{"duration":0.17045450000000528,"midi":86,"time":123.74996699999998,"velocity":0.3937007874015748},{"duration":0.08522725000000264,"midi":62,"time":123.92042149999999,"velocity":0.3937007874015748},{"duration":0.08522725000000264,"midi":67,"time":123.92042149999999,"velocity":0.3937007874015748},{"duration":0.17045449999999107,"midi":46,"time":123.92042149999999,"velocity":0.3937007874015748},{"duration":0.08522725000000264,"midi":71,"time":123.92042149999999,"velocity":0.3937007874015748},{"duration":0.08522725000000264,"midi":71,"time":123.92042149999999,"velocity":0.3937007874015748},{"duration":0.17045449999999107,"midi":88,"time":123.92042149999999,"velocity":0.3937007874015748},{"duration":0.2556817500000079,"midi":54,"time":124.09087599999998,"velocity":0.3937007874015748},{"duration":0.5965907500000043,"midi":90,"time":124.09087599999998,"velocity":0.3937007874015748},{"duration":0.17045450000000528,"midi":42,"time":124.09087599999998,"velocity":0.3937007874015748},{"duration":0.08522725000000264,"midi":69,"time":124.26133049999999,"velocity":0.3937007874015748},{"duration":0.08522725000000264,"midi":66,"time":124.26133049999999,"velocity":0.3937007874015748},{"duration":0.17045450000000528,"midi":42,"time":124.26133049999999,"velocity":0.3937007874015748},{"duration":0.08522725000000264,"midi":62,"time":124.26133049999999,"velocity":0.3937007874015748},{"duration":0.08522725000000264,"midi":69,"time":124.26133049999999,"velocity":0.3937007874015748},{"duration":0.17045449999999107,"midi":42,"time":124.43178499999999,"velocity":0.3937007874015748},{"duration":0.08522724999998843,"midi":74,"time":124.43178499999999,"velocity":0.3937007874015748},{"duration":0.17045449999999107,"midi":50,"time":124.43178499999999,"velocity":0.3937007874015748},{"duration":0.08522725000000264,"midi":62,"time":124.60223949999998,"velocity":0.3937007874015748},{"duration":0.08522725000000264,"midi":69,"time":124.60223949999998,"velocity":0.3937007874015748},{"duration":0.08522725000000264,"midi":66,"time":124.60223949999998,"velocity":0.3937007874015748},{"duration":0.17045450000000528,"midi":52,"time":124.60223949999998,"velocity":0.3937007874015748},{"duration":0.08522725000000264,"midi":69,"time":124.60223949999998,"velocity":0.3937007874015748},{"duration":0.17045450000000528,"midi":42,"time":124.60223949999998,"velocity":0.3937007874015748},{"duration":0.2556817499999937,"midi":81,"time":124.77269399999999,"velocity":0.3937007874015748},{"duration":0.2556817499999937,"midi":53,"time":124.77269399999999,"velocity":0.3937007874015748},{"duration":0.08522725000000264,"midi":68,"time":124.77269399999999,"velocity":0.3937007874015748},{"duration":0.17045450000000528,"midi":42,"time":124.77269399999999,"velocity":0.3937007874015748},{"duration":0.08522724999998843,"midi":62,"time":124.94314849999999,"velocity":0.3937007874015748},{"duration":0.08522724999998843,"midi":65,"time":124.94314849999999,"velocity":0.3937007874015748},{"duration":0.08522724999998843,"midi":69,"time":124.94314849999999,"velocity":0.3937007874015748},{"duration":0.17045449999999107,"midi":42,"time":124.94314849999999,"velocity":0.3937007874015748},{"duration":0.08522724999998843,"midi":69,"time":124.94314849999999,"velocity":0.3937007874015748},{"duration":0.17045450000000528,"midi":42,"time":125.11360299999998,"velocity":0.3937007874015748},{"duration":0.08522725000000264,"midi":74,"time":125.11360299999998,"velocity":0.3937007874015748},{"duration":0.2556817500000079,"midi":53,"time":125.11360299999998,"velocity":0.3937007874015748},{"duration":0.2556817500000079,"midi":90,"time":125.11360299999998,"velocity":0.3937007874015748},{"duration":0.08522725000000264,"midi":62,"time":125.28405749999999,"velocity":0.3937007874015748},{"duration":0.17045449999999107,"midi":42,"time":125.28405749999999,"velocity":0.3937007874015748},{"duration":0.08522725000000264,"midi":65,"time":125.28405749999999,"velocity":0.3937007874015748},{"duration":0.08522725000000264,"midi":69,"time":125.28405749999999,"velocity":0.3937007874015748},{"duration":0.08522725000000264,"midi":69,"time":125.28405749999999,"velocity":0.3937007874015748},{"duration":0.17045450000000528,"midi":42,"time":125.45451199999998,"velocity":0.3937007874015748},{"duration":0.2556817500000079,"midi":52,"time":125.45451199999998,"velocity":0.3937007874015748},{"duration":0.5965907500000043,"midi":88,"time":125.45451199999998,"velocity":0.3937007874015748},{"duration":0.17045450000000528,"midi":42,"time":125.62496649999999,"velocity":0.3937007874015748},{"duration":0.08522725000000264,"midi":67,"time":125.62496649999999,"velocity":0.3937007874015748},{"duration":0.08522725000000264,"midi":67,"time":125.62496649999999,"velocity":0.3937007874015748},{"duration":0.08522725000000264,"midi":61,"time":125.62496649999999,"velocity":0.3937007874015748},{"duration":0.08522725000000264,"midi":64,"time":125.62496649999999,"velocity":0.3937007874015748},{"duration":0.17045449999999107,"midi":42,"time":125.79542099999999,"velocity":0.3937007874015748},{"duration":0.2556817499999937,"midi":52,"time":125.79542099999999,"velocity":0.3937007874015748},{"duration":0.17045450000000528,"midi":42,"time":125.96587549999998,"velocity":0.3937007874015748},{"duration":0.08522725000000264,"midi":61,"time":125.96587549999998,"velocity":0.3937007874015748},{"duration":0.08522725000000264,"midi":64,"time":125.96587549999998,"velocity":0.3937007874015748},{"duration":0.08522725000000264,"midi":67,"time":125.96587549999998,"velocity":0.3937007874015748},{"duration":0.08522725000000264,"midi":67,"time":125.96587549999998,"velocity":0.3937007874015748},{"duration":0.2556817499999937,"midi":86,"time":126.13632999999999,"velocity":0.3937007874015748},{"duration":0.08522725000000264,"midi":66,"time":126.13632999999999,"velocity":0.3937007874015748},{"duration":0.17045450000000528,"midi":42,"time":126.13632999999999,"velocity":0.3937007874015748},{"duration":0.2556817499999937,"midi":51,"time":126.13632999999999,"velocity":0.3937007874015748},{"duration":0.08522724999998843,"midi":67,"time":126.30678449999999,"velocity":0.3937007874015748},{"duration":0.08522724999998843,"midi":64,"time":126.30678449999999,"velocity":0.3937007874015748},{"duration":0.17045449999999107,"midi":42,"time":126.30678449999999,"velocity":0.3937007874015748},{"duration":0.08522724999998843,"midi":67,"time":126.30678449999999,"velocity":0.3937007874015748},{"duration":0.08522724999998843,"midi":61,"time":126.30678449999999,"velocity":0.3937007874015748},{"duration":0.2556817500000079,"midi":51,"time":126.47723899999998,"velocity":0.3937007874015748},{"duration":0.17045450000000528,"midi":42,"time":126.47723899999998,"velocity":0.3937007874015748},{"duration":0.08522725000000264,"midi":74,"time":126.47723899999998,"velocity":0.3937007874015748},{"duration":0.2556817500000079,"midi":85,"time":126.47723899999998,"velocity":0.3937007874015748},{"duration":0.17045449999999107,"midi":42,"time":126.64769349999999,"velocity":0.3937007874015748},{"duration":0.08522725000000264,"midi":67,"time":126.64769349999999,"velocity":0.3937007874015748},{"duration":0.08522725000000264,"midi":64,"time":126.64769349999999,"velocity":0.3937007874015748},{"duration":0.08522725000000264,"midi":66,"time":126.64769349999999,"velocity":0.3937007874015748},{"duration":0.08522725000000264,"midi":61,"time":126.64769349999999,"velocity":0.3937007874015748},{"duration":0.17045450000000528,"midi":42,"time":126.81814799999998,"velocity":0.3937007874015748},{"duration":0.2556817500000079,"midi":50,"time":126.81814799999998,"velocity":0.3937007874015748},{"duration":1.2784087500000112,"midi":86,"time":126.81814799999998,"velocity":0.3937007874015748},{"duration":0.08522725000000264,"midi":69,"time":126.98860249999998,"velocity":0.3937007874015748},{"duration":0.08522725000000264,"midi":66,"time":126.98860249999998,"velocity":0.3937007874015748},{"duration":0.08522725000000264,"midi":66,"time":126.98860249999998,"velocity":0.3937007874015748},{"duration":0.08522725000000264,"midi":62,"time":126.98860249999998,"velocity":0.3937007874015748},{"duration":0.17045450000000528,"midi":42,"time":126.98860249999998,"velocity":0.3937007874015748},{"duration":0.2556817499999937,"midi":45,"time":127.15905699999999,"velocity":0.3937007874015748},{"duration":0.08522725000000264,"midi":74,"time":127.15905699999999,"velocity":0.3937007874015748},{"duration":0.17045449999999107,"midi":42,"time":127.15905699999999,"velocity":0.3937007874015748},{"duration":0.08522725000000264,"midi":66,"time":127.32951149999998,"velocity":0.3937007874015748},{"duration":0.17045450000000528,"midi":46,"time":127.32951149999998,"velocity":0.3937007874015748},{"duration":0.08522725000000264,"midi":66,"time":127.32951149999998,"velocity":0.3937007874015748},{"duration":0.08522725000000264,"midi":69,"time":127.32951149999998,"velocity":0.3937007874015748},{"duration":0.08522725000000264,"midi":62,"time":127.32951149999998,"velocity":0.3937007874015748},{"duration":0.17045450000000528,"midi":42,"time":127.49996599999999,"velocity":0.3937007874015748},{"duration":0.08522725000000264,"midi":65,"time":127.49996599999999,"velocity":0.3937007874015748},{"duration":0.2556817499999937,"midi":50,"time":127.49996599999999,"velocity":0.3937007874015748},{"duration":0.17045449999999107,"midi":42,"time":127.67042049999999,"velocity":0.3937007874015748},{"duration":0.08522724999998843,"midi":66,"time":127.67042049999999,"velocity":0.3937007874015748},{"duration":0.08522724999998843,"midi":69,"time":127.67042049999999,"velocity":0.3937007874015748},{"duration":0.08522724999998843,"midi":66,"time":127.67042049999999,"velocity":0.3937007874015748},{"duration":0.08522724999998843,"midi":62,"time":127.67042049999999,"velocity":0.3937007874015748},{"duration":0.08522725000000264,"midi":67,"time":127.84087499999998,"velocity":0.3937007874015748},{"duration":0.2556817500000079,"midi":45,"time":127.84087499999998,"velocity":0.3937007874015748},{"duration":0.17045450000000528,"midi":42,"time":127.84087499999998,"velocity":0.3937007874015748},{"duration":0.08522725000000264,"midi":69,"time":128.0113295,"velocity":0.3937007874015748},{"duration":0.08522725000000264,"midi":66,"time":128.0113295,"velocity":0.3937007874015748},{"duration":0.08522725000000264,"midi":42,"time":128.0113295,"velocity":0.3937007874015748},{"duration":0.08522725000000264,"midi":69,"time":128.0113295,"velocity":0.3937007874015748},{"duration":0.08522725000000264,"midi":62,"time":128.0113295,"velocity":0.3937007874015748},{"duration":0.08522725000000264,"midi":42,"time":128.09655675,"velocity":0.3937007874015748},{"duration":0.2556817499999795,"midi":50,"time":128.181784,"velocity":0.3937007874015748},{"duration":0.17045450000000528,"midi":57,"time":128.181784,"velocity":0.3937007874015748},{"duration":0.17045450000000528,"midi":55,"time":128.181784,"velocity":0.3937007874015748},{"duration":0.17045450000000528,"midi":42,"time":128.181784,"velocity":0.3937007874015748},{"duration":0.08522725000000264,"midi":61,"time":128.181784,"velocity":0.3937007874015748},{"duration":0.08522725000000264,"midi":62,"time":128.26701125,"velocity":0.3937007874015748},{"duration":0.08522724999997422,"midi":66,"time":128.3522385,"velocity":0.3937007874015748},{"duration":0.08522724999997422,"midi":57,"time":128.3522385,"velocity":0.3937007874015748},{"duration":0.08522724999997422,"midi":61,"time":128.3522385,"velocity":0.3937007874015748},{"duration":0.08522724999997422,"midi":42,"time":128.3522385,"velocity":0.3937007874015748},{"duration":0.08522724999997422,"midi":62,"time":128.3522385,"velocity":0.3937007874015748},{"duration":0.08522725000000264,"midi":42,"time":128.43746574999997,"velocity":0.3937007874015748},{"duration":0.08522725000000264,"midi":62,"time":128.43746574999997,"velocity":0.3937007874015748},{"duration":0.08522725000000264,"midi":64,"time":128.52269299999998,"velocity":0.3937007874015748},{"duration":0.2556817500000079,"midi":48,"time":128.52269299999998,"velocity":0.3937007874015748},{"duration":0.17045450000000528,"midi":42,"time":128.52269299999998,"velocity":0.3937007874015748},{"duration":0.08522725000000264,"midi":62,"time":128.60792024999998,"velocity":0.3937007874015748},{"duration":0.08522725000000264,"midi":57,"time":128.69314749999998,"velocity":0.3937007874015748},{"duration":0.08522725000000264,"midi":42,"time":128.69314749999998,"velocity":0.3937007874015748},{"duration":0.08522725000000264,"midi":61,"time":128.69314749999998,"velocity":0.3937007874015748},{"duration":0.08522725000000264,"midi":66,"time":128.69314749999998,"velocity":0.3937007874015748},{"duration":0.08522725000000264,"midi":62,"time":128.69314749999998,"velocity":0.3937007874015748},{"duration":0.08522725000000264,"midi":62,"time":128.77837474999998,"velocity":0.3937007874015748},{"duration":0.08522725000000264,"midi":42,"time":128.77837474999998,"velocity":0.3937007874015748},{"duration":0.2556817500000079,"midi":47,"time":128.863602,"velocity":0.3937007874015748},{"duration":0.08522725000000264,"midi":61,"time":128.863602,"velocity":0.3937007874015748},{"duration":0.17045450000000528,"midi":42,"time":128.863602,"velocity":0.3937007874015748},{"duration":0.08522725000000264,"midi":62,"time":128.94882925,"velocity":0.3937007874015748},{"duration":0.08522725000000264,"midi":57,"time":129.0340565,"velocity":0.3937007874015748},{"duration":0.08522725000000264,"midi":62,"time":129.0340565,"velocity":0.3937007874015748},{"duration":0.08522725000000264,"midi":66,"time":129.0340565,"velocity":0.3937007874015748},{"duration":0.08522725000000264,"midi":61,"time":129.0340565,"velocity":0.3937007874015748},{"duration":0.08522725000000264,"midi":42,"time":129.0340565,"velocity":0.3937007874015748},{"duration":0.08522725000000264,"midi":42,"time":129.11928375,"velocity":0.3937007874015748},{"duration":0.08522725000000264,"midi":62,"time":129.11928375,"velocity":0.3937007874015748},{"duration":0.08522725000000264,"midi":64,"time":129.204511,"velocity":0.3937007874015748},{"duration":0.17045449999997686,"midi":42,"time":129.204511,"velocity":0.3937007874015748},{"duration":0.08522725000000264,"midi":66,"time":129.204511,"velocity":0.3937007874015748},{"duration":0.2556817499999795,"midi":45,"time":129.204511,"velocity":0.3937007874015748},{"duration":0.08522724999997422,"midi":62,"time":129.28973825,"velocity":0.3937007874015748},{"duration":0.08522725000000264,"midi":61,"time":129.37496549999997,"velocity":0.3937007874015748},{"duration":0.08522725000000264,"midi":66,"time":129.37496549999997,"velocity":0.3937007874015748},{"duration":0.08522725000000264,"midi":42,"time":129.37496549999997,"velocity":0.3937007874015748},{"duration":0.08522725000000264,"midi":57,"time":129.37496549999997,"velocity":0.3937007874015748},{"duration":0.08522725000000264,"midi":62,"time":129.37496549999997,"velocity":0.3937007874015748},{"duration":0.08522725000000264,"midi":62,"time":129.46019274999998,"velocity":0.3937007874015748},{"duration":0.08522725000000264,"midi":42,"time":129.46019274999998,"velocity":0.3937007874015748},{"duration":0.08522725000000264,"midi":61,"time":129.54541999999998,"velocity":0.3937007874015748},{"duration":0.2556817500000079,"midi":50,"time":129.54541999999998,"velocity":0.3937007874015748},{"duration":0.17045450000000528,"midi":42,"time":129.54541999999998,"velocity":0.3937007874015748},{"duration":0.08522725000000264,"midi":62,"time":129.63064724999998,"velocity":0.3937007874015748},{"duration":0.08522725000000264,"midi":61,"time":129.71587449999998,"velocity":0.3937007874015748},{"duration":0.08522725000000264,"midi":57,"time":129.71587449999998,"velocity":0.3937007874015748},{"duration":0.08522725000000264,"midi":66,"time":129.71587449999998,"velocity":0.3937007874015748},{"duration":0.08522725000000264,"midi":62,"time":129.71587449999998,"velocity":0.3937007874015748},{"duration":0.08522725000000264,"midi":42,"time":129.71587449999998,"velocity":0.3937007874015748},{"duration":0.08522725000000264,"midi":42,"time":129.80110175,"velocity":0.3937007874015748},{"duration":0.08522725000000264,"midi":62,"time":129.80110175,"velocity":0.3937007874015748},{"duration":0.08522725000000264,"midi":64,"time":129.886329,"velocity":0.3937007874015748},{"duration":0.08522725000000264,"midi":67,"time":129.886329,"velocity":0.3937007874015748},{"duration":0.2556817500000079,"midi":45,"time":129.886329,"velocity":0.3937007874015748},{"duration":0.17045450000000528,"midi":42,"time":129.886329,"velocity":0.3937007874015748},{"duration":0.08522725000000264,"midi":62,"time":129.97155625,"velocity":0.3937007874015748},{"duration":0.08522725000000264,"midi":66,"time":130.0567835,"velocity":0.3937007874015748},{"duration":0.08522725000000264,"midi":62,"time":130.0567835,"velocity":0.3937007874015748},{"duration":0.08522725000000264,"midi":42,"time":130.0567835,"velocity":0.3937007874015748},{"duration":0.08522725000000264,"midi":61,"time":130.0567835,"velocity":0.3937007874015748},{"duration":0.08522725000000264,"midi":57,"time":130.0567835,"velocity":0.3937007874015748},{"duration":0.08522724999997422,"midi":62,"time":130.14201075,"velocity":0.3937007874015748},{"duration":0.08522724999997422,"midi":42,"time":130.14201075,"velocity":0.3937007874015748},{"duration":0.17045450000000528,"midi":42,"time":130.22723799999997,"velocity":0.3937007874015748},{"duration":0.08522725000000264,"midi":69,"time":130.22723799999997,"velocity":0.3937007874015748},{"duration":0.2556817500000079,"midi":50,"time":130.22723799999997,"velocity":0.3937007874015748},{"duration":0.08522725000000264,"midi":61,"time":130.22723799999997,"velocity":0.3937007874015748},{"duration":0.08522725000000264,"midi":62,"time":130.31246524999997,"velocity":0.3937007874015748},{"duration":0.08522725000000264,"midi":57,"time":130.39769249999998,"velocity":0.3937007874015748},{"duration":0.08522725000000264,"midi":66,"time":130.39769249999998,"velocity":0.3937007874015748},{"duration":0.08522725000000264,"midi":42,"time":130.39769249999998,"velocity":0.3937007874015748},{"duration":0.08522725000000264,"midi":61,"time":130.39769249999998,"velocity":0.3937007874015748},{"duration":0.08522725000000264,"midi":62,"time":130.39769249999998,"velocity":0.3937007874015748},{"duration":0.08522725000000264,"midi":62,"time":130.48291974999998,"velocity":0.3937007874015748},{"duration":0.08522725000000264,"midi":42,"time":130.48291974999998,"velocity":0.3937007874015748},{"duration":0.08522725000000264,"midi":64,"time":130.56814699999998,"velocity":0.3937007874015748},{"duration":0.17045450000000528,"midi":42,"time":130.56814699999998,"velocity":0.3937007874015748},{"duration":0.17045450000000528,"midi":52,"time":130.56814699999998,"velocity":0.3937007874015748},{"duration":0.08522725000000264,"midi":67,"time":130.56814699999998,"velocity":0.3937007874015748},{"duration":0.08522725000000264,"midi":62,"time":130.65337424999998,"velocity":0.3937007874015748},{"duration":0.08522725000000264,"midi":62,"time":130.7386015,"velocity":0.3937007874015748},{"duration":0.08522725000000264,"midi":66,"time":130.7386015,"velocity":0.3937007874015748},{"duration":0.08522725000000264,"midi":42,"time":130.7386015,"velocity":0.3937007874015748},{"duration":0.08522725000000264,"midi":57,"time":130.7386015,"velocity":0.3937007874015748},{"duration":0.08522725000000264,"midi":61,"time":130.7386015,"velocity":0.3937007874015748},{"duration":0.17045450000000528,"midi":54,"time":130.7386015,"velocity":0.3937007874015748},{"duration":0.08522725000000264,"midi":42,"time":130.82382875,"velocity":0.3937007874015748},{"duration":0.08522725000000264,"midi":62,"time":130.82382875,"velocity":0.3937007874015748},{"duration":0.08522725000000264,"midi":65,"time":130.909056,"velocity":0.3937007874015748},{"duration":0.2556817499999795,"midi":55,"time":130.909056,"velocity":0.3937007874015748},{"duration":0.08522725000000264,"midi":61,"time":130.909056,"velocity":0.3937007874015748},{"duration":0.17045450000000528,"midi":42,"time":130.909056,"velocity":0.3937007874015748},{"duration":0.08522725000000264,"midi":62,"time":130.99428325,"velocity":0.3937007874015748},{"duration":0.08522724999997422,"midi":65,"time":131.0795105,"velocity":0.3937007874015748},{"duration":0.08522724999997422,"midi":59,"time":131.0795105,"velocity":0.3937007874015748},{"duration":0.08522724999997422,"midi":67,"time":131.0795105,"velocity":0.3937007874015748},{"duration":0.08522724999997422,"midi":62,"time":131.0795105,"velocity":0.3937007874015748},{"duration":0.08522724999997422,"midi":42,"time":131.0795105,"velocity":0.3937007874015748},{"duration":0.08522724999997422,"midi":61,"time":131.0795105,"velocity":0.3937007874015748},{"duration":0.08522725000000264,"midi":42,"time":131.16473774999997,"velocity":0.3937007874015748},{"duration":0.08522725000000264,"midi":62,"time":131.16473774999997,"velocity":0.3937007874015748},{"duration":0.08522725000000264,"midi":64,"time":131.24996499999997,"velocity":0.3937007874015748},{"duration":0.17045450000000528,"midi":42,"time":131.24996499999997,"velocity":0.3937007874015748},{"duration":0.2556817500000079,"midi":53,"time":131.24996499999997,"velocity":0.3937007874015748},{"duration":0.08522725000000264,"midi":62,"time":131.33519224999998,"velocity":0.3937007874015748},{"duration":0.08522725000000264,"midi":65,"time":131.42041949999998,"velocity":0.3937007874015748},{"duration":0.08522725000000264,"midi":62,"time":131.42041949999998,"velocity":0.3937007874015748},{"duration":0.08522725000000264,"midi":59,"time":131.42041949999998,"velocity":0.3937007874015748},{"duration":0.08522725000000264,"midi":61,"time":131.42041949999998,"velocity":0.3937007874015748},{"duration":0.08522725000000264,"midi":67,"time":131.42041949999998,"velocity":0.3937007874015748},{"duration":0.08522725000000264,"midi":42,"time":131.42041949999998,"velocity":0.3937007874015748},{"duration":0.08522725000000264,"midi":42,"time":131.50564674999998,"velocity":0.3937007874015748},{"duration":0.08522725000000264,"midi":62,"time":131.50564674999998,"velocity":0.3937007874015748},{"duration":0.17045450000000528,"midi":42,"time":131.59087399999999,"velocity":0.3937007874015748},{"duration":0.08522725000000264,"midi":61,"time":131.59087399999999,"velocity":0.3937007874015748},{"duration":0.2556817500000079,"midi":52,"time":131.59087399999999,"velocity":0.3937007874015748},{"duration":0.08522725000000264,"midi":62,"time":131.67610125,"velocity":0.3937007874015748},{"duration":0.08522725000000264,"midi":61,"time":131.7613285,"velocity":0.3937007874015748},{"duration":0.08522725000000264,"midi":62,"time":131.7613285,"velocity":0.3937007874015748},{"duration":0.08522725000000264,"midi":42,"time":131.7613285,"velocity":0.3937007874015748},{"duration":0.08522725000000264,"midi":65,"time":131.7613285,"velocity":0.3937007874015748},{"duration":0.08522725000000264,"midi":67,"time":131.7613285,"velocity":0.3937007874015748},{"duration":0.08522725000000264,"midi":59,"time":131.7613285,"velocity":0.3937007874015748},{"duration":0.08522725000000264,"midi":42,"time":131.84655575,"velocity":0.3937007874015748},{"duration":0.08522725000000264,"midi":62,"time":131.84655575,"velocity":0.3937007874015748},{"duration":0.17045449999997686,"midi":42,"time":131.931783,"velocity":0.3937007874015748},{"duration":0.08522725000000264,"midi":64,"time":131.931783,"velocity":0.3937007874015748},{"duration":0.2556817499999795,"midi":50,"time":131.931783,"velocity":0.3937007874015748},{"duration":0.08522724999997422,"midi":62,"time":132.01701025,"velocity":0.3937007874015748},{"duration":0.08522725000000264,"midi":59,"time":132.10223749999997,"velocity":0.3937007874015748},{"duration":0.08522725000000264,"midi":61,"time":132.10223749999997,"velocity":0.3937007874015748},{"duration":0.08522725000000264,"midi":67,"time":132.10223749999997,"velocity":0.3937007874015748},{"duration":0.08522725000000264,"midi":65,"time":132.10223749999997,"velocity":0.3937007874015748},{"duration":0.08522725000000264,"midi":62,"time":132.10223749999997,"velocity":0.3937007874015748},{"duration":0.08522725000000264,"midi":42,"time":132.10223749999997,"velocity":0.3937007874015748},{"duration":0.08522725000000264,"midi":42,"time":132.18746474999998,"velocity":0.3937007874015748},{"duration":0.08522725000000264,"midi":62,"time":132.18746474999998,"velocity":0.3937007874015748},{"duration":0.08522725000000264,"midi":61,"time":132.27269199999998,"velocity":0.3937007874015748},{"duration":0.17045450000000528,"midi":42,"time":132.27269199999998,"velocity":0.3937007874015748},{"duration":0.2556817500000079,"midi":55,"time":132.27269199999998,"velocity":0.3937007874015748},{"duration":0.08522725000000264,"midi":62,"time":132.35791924999998,"velocity":0.3937007874015748},{"duration":0.08522725000000264,"midi":59,"time":132.44314649999998,"velocity":0.3937007874015748},{"duration":0.08522725000000264,"midi":42,"time":132.44314649999998,"velocity":0.3937007874015748},{"duration":0.08522725000000264,"midi":62,"time":132.44314649999998,"velocity":0.3937007874015748},{"duration":0.08522725000000264,"midi":67,"time":132.44314649999998,"velocity":0.3937007874015748},{"duration":0.08522725000000264,"midi":65,"time":132.44314649999998,"velocity":0.3937007874015748},{"duration":0.08522725000000264,"midi":61,"time":132.44314649999998,"velocity":0.3937007874015748},{"duration":0.08522725000000264,"midi":62,"time":132.52837375,"velocity":0.3937007874015748},{"duration":0.08522725000000264,"midi":42,"time":132.52837375,"velocity":0.3937007874015748},{"duration":0.2556817500000079,"midi":50,"time":132.613601,"velocity":0.3937007874015748},{"duration":0.08522725000000264,"midi":64,"time":132.613601,"velocity":0.3937007874015748},{"duration":0.17045450000000528,"midi":42,"time":132.613601,"velocity":0.3937007874015748},{"duration":0.08522725000000264,"midi":67,"time":132.613601,"velocity":0.3937007874015748},{"duration":0.08522725000000264,"midi":62,"time":132.69882825,"velocity":0.3937007874015748},{"duration":0.08522725000000264,"midi":59,"time":132.7840555,"velocity":0.3937007874015748},{"duration":0.08522725000000264,"midi":65,"time":132.7840555,"velocity":0.3937007874015748},{"duration":0.08522725000000264,"midi":61,"time":132.7840555,"velocity":0.3937007874015748},{"duration":0.08522725000000264,"midi":42,"time":132.7840555,"velocity":0.3937007874015748},{"duration":0.08522725000000264,"midi":67,"time":132.7840555,"velocity":0.3937007874015748},{"duration":0.08522725000000264,"midi":62,"time":132.7840555,"velocity":0.3937007874015748},{"duration":0.08522725000000264,"midi":62,"time":132.86928275,"velocity":0.3937007874015748},{"duration":0.08522725000000264,"midi":42,"time":132.86928275,"velocity":0.3937007874015748},{"duration":0.2556817499999795,"midi":55,"time":132.95451,"velocity":0.3937007874015748},{"duration":0.08522724999997422,"midi":69,"time":132.95451,"velocity":0.3937007874015748},{"duration":0.08522724999997422,"midi":61,"time":132.95451,"velocity":0.3937007874015748},{"duration":0.17045449999997686,"midi":42,"time":132.95451,"velocity":0.3937007874015748},{"duration":0.08522725000000264,"midi":62,"time":133.03973724999997,"velocity":0.3937007874015748},{"duration":0.08522725000000264,"midi":65,"time":133.12496449999998,"velocity":0.3937007874015748},{"duration":0.08522725000000264,"midi":67,"time":133.12496449999998,"velocity":0.3937007874015748},{"duration":0.08522725000000264,"midi":62,"time":133.12496449999998,"velocity":0.3937007874015748},{"duration":0.08522725000000264,"midi":59,"time":133.12496449999998,"velocity":0.3937007874015748},{"duration":0.08522725000000264,"midi":61,"time":133.12496449999998,"velocity":0.3937007874015748},{"duration":0.08522725000000264,"midi":42,"time":133.12496449999998,"velocity":0.3937007874015748},{"duration":0.08522725000000264,"midi":42,"time":133.21019174999998,"velocity":0.3937007874015748},{"duration":0.08522725000000264,"midi":62,"time":133.21019174999998,"velocity":0.3937007874015748},{"duration":0.17045450000000528,"midi":42,"time":133.29541899999998,"velocity":0.3937007874015748},{"duration":0.17045450000000528,"midi":53,"time":133.29541899999998,"velocity":0.3937007874015748},{"duration":0.08522725000000264,"midi":64,"time":133.29541899999998,"velocity":0.3937007874015748},{"duration":0.08522725000000264,"midi":67,"time":133.29541899999998,"velocity":0.3937007874015748},{"duration":0.08522725000000264,"midi":62,"time":133.38064624999998,"velocity":0.3937007874015748},{"duration":0.08522725000000264,"midi":59,"time":133.4658735,"velocity":0.3937007874015748},{"duration":0.08522725000000264,"midi":62,"time":133.4658735,"velocity":0.3937007874015748},{"duration":0.08522725000000264,"midi":65,"time":133.4658735,"velocity":0.3937007874015748},{"duration":0.08522725000000264,"midi":61,"time":133.4658735,"velocity":0.3937007874015748},{"duration":0.08522725000000264,"midi":42,"time":133.4658735,"velocity":0.3937007874015748},{"duration":0.17045450000000528,"midi":52,"time":133.4658735,"velocity":0.3937007874015748},{"duration":0.08522725000000264,"midi":67,"time":133.4658735,"velocity":0.3937007874015748},{"duration":0.08522725000000264,"midi":42,"time":133.55110075,"velocity":0.3937007874015748},{"duration":0.08522725000000264,"midi":62,"time":133.55110075,"velocity":0.3937007874015748},{"duration":0.2556817499999795,"midi":50,"time":133.636328,"velocity":0.3937007874015748},{"duration":0.17045450000000528,"midi":57,"time":133.636328,"velocity":0.3937007874015748},{"duration":0.17045450000000528,"midi":42,"time":133.636328,"velocity":0.3937007874015748},{"duration":0.5965907499999901,"midi":74,"time":133.636328,"velocity":0.3937007874015748},{"duration":0.5965907499999901,"midi":81,"time":133.636328,"velocity":0.3937007874015748},{"duration":0.17045450000000528,"midi":55,"time":133.636328,"velocity":0.3937007874015748},{"duration":0.08522724999997422,"midi":66,"time":133.8067825,"velocity":0.3937007874015748},{"duration":0.08522724999997422,"midi":57,"time":133.8067825,"velocity":0.3937007874015748},{"duration":0.08522724999997422,"midi":62,"time":133.8067825,"velocity":0.3937007874015748},{"duration":0.08522724999997422,"midi":42,"time":133.8067825,"velocity":0.3937007874015748},{"duration":0.08522725000000264,"midi":42,"time":133.89200974999997,"velocity":0.3937007874015748},{"duration":0.17045450000000528,"midi":42,"time":133.97723699999997,"velocity":0.3937007874015748},{"duration":0.2556817500000079,"midi":48,"time":133.97723699999997,"velocity":0.3937007874015748},{"duration":0.08522725000000264,"midi":42,"time":134.14769149999998,"velocity":0.3937007874015748},{"duration":0.08522725000000264,"midi":57,"time":134.14769149999998,"velocity":0.3937007874015748},{"duration":0.08522725000000264,"midi":66,"time":134.14769149999998,"velocity":0.3937007874015748},{"duration":0.08522725000000264,"midi":62,"time":134.14769149999998,"velocity":0.3937007874015748},{"duration":0.08522725000000264,"midi":42,"time":134.23291874999998,"velocity":0.3937007874015748},{"duration":0.5965907499999901,"midi":74,"time":134.31814599999998,"velocity":0.3937007874015748},{"duration":0.2556817500000079,"midi":47,"time":134.31814599999998,"velocity":0.3937007874015748},{"duration":0.17045450000000528,"midi":42,"time":134.31814599999998,"velocity":0.3937007874015748},{"duration":0.5965907499999901,"midi":81,"time":134.31814599999998,"velocity":0.3937007874015748},{"duration":0.08522725000000264,"midi":42,"time":134.4886005,"velocity":0.3937007874015748},{"duration":0.08522725000000264,"midi":57,"time":134.4886005,"velocity":0.3937007874015748},{"duration":0.08522725000000264,"midi":62,"time":134.4886005,"velocity":0.3937007874015748},{"duration":0.08522725000000264,"midi":66,"time":134.4886005,"velocity":0.3937007874015748},{"duration":0.08522725000000264,"midi":42,"time":134.57382775,"velocity":0.3937007874015748},{"duration":0.2556817499999795,"midi":45,"time":134.659055,"velocity":0.3937007874015748},{"duration":0.17045449999997686,"midi":42,"time":134.659055,"velocity":0.3937007874015748},{"duration":0.08522725000000264,"midi":66,"time":134.82950949999997,"velocity":0.3937007874015748},{"duration":0.08522725000000264,"midi":57,"time":134.82950949999997,"velocity":0.3937007874015748},{"duration":0.08522725000000264,"midi":42,"time":134.82950949999997,"velocity":0.3937007874015748},{"duration":0.08522725000000264,"midi":62,"time":134.82950949999997,"velocity":0.3937007874015748},{"duration":0.08522725000000264,"midi":42,"time":134.91473674999997,"velocity":0.3937007874015748},{"duration":0.17045450000000528,"midi":42,"time":134.99996399999998,"velocity":0.3937007874015748},{"duration":0.08522725000000264,"midi":80,"time":134.99996399999998,"velocity":0.3937007874015748},{"duration":0.2556817500000079,"midi":50,"time":134.99996399999998,"velocity":0.3937007874015748},{"duration":0.08522725000000264,"midi":73,"time":134.99996399999998,"velocity":0.3937007874015748},{"duration":0.2556817500000079,"midi":74,"time":135.04257762499998,"velocity":0.3937007874015748},{"duration":0.2556817500000079,"midi":81,"time":135.04257762499998,"velocity":0.3937007874015748},{"duration":0.08522725000000264,"midi":62,"time":135.17041849999998,"velocity":0.3937007874015748},{"duration":0.08522725000000264,"midi":57,"time":135.17041849999998,"velocity":0.3937007874015748},{"duration":0.08522725000000264,"midi":66,"time":135.17041849999998,"velocity":0.3937007874015748},{"duration":0.08522725000000264,"midi":42,"time":135.17041849999998,"velocity":0.3937007874015748},{"duration":0.08522725000000264,"midi":42,"time":135.25564574999999,"velocity":0.3937007874015748},{"duration":0.17045450000000528,"midi":42,"time":135.340873,"velocity":0.3937007874015748},{"duration":0.2556817500000079,"midi":78,"time":135.340873,"velocity":0.3937007874015748},{"duration":0.2556817500000079,"midi":45,"time":135.340873,"velocity":0.3937007874015748},{"duration":0.08522725000000264,"midi":66,"time":135.5113275,"velocity":0.3937007874015748},{"duration":0.08522725000000264,"midi":62,"time":135.5113275,"velocity":0.3937007874015748},{"duration":0.08522725000000264,"midi":57,"time":135.5113275,"velocity":0.3937007874015748},{"duration":0.08522725000000264,"midi":42,"time":135.5113275,"velocity":0.3937007874015748},{"duration":0.08522725000000264,"midi":42,"time":135.59655475,"velocity":0.3937007874015748},{"duration":0.2556817499999795,"midi":50,"time":135.681782,"velocity":0.3937007874015748},{"duration":0.17045449999997686,"midi":42,"time":135.681782,"velocity":0.3937007874015748},{"duration":0.2556817499999795,"midi":76,"time":135.681782,"velocity":0.3937007874015748},{"duration":0.08522725000000264,"midi":62,"time":135.85223649999998,"velocity":0.3937007874015748},{"duration":0.08522725000000264,"midi":42,"time":135.85223649999998,"velocity":0.3937007874015748},{"duration":0.08522725000000264,"midi":66,"time":135.85223649999998,"velocity":0.3937007874015748},{"duration":0.08522725000000264,"midi":57,"time":135.85223649999998,"velocity":0.3937007874015748},{"duration":0.08522725000000264,"midi":42,"time":135.93746374999998,"velocity":0.3937007874015748},{"duration":0.17045450000000528,"midi":42,"time":136.02269099999998,"velocity":0.3937007874015748},{"duration":0.17045450000000528,"midi":52,"time":136.02269099999998,"velocity":0.3937007874015748},{"duration":0.2556817500000079,"midi":75,"time":136.02269099999998,"velocity":0.3937007874015748},{"duration":0.08522725000000264,"midi":66,"time":136.19314549999999,"velocity":0.3937007874015748},{"duration":0.08522725000000264,"midi":57,"time":136.19314549999999,"velocity":0.3937007874015748},{"duration":0.08522725000000264,"midi":42,"time":136.19314549999999,"velocity":0.3937007874015748},{"duration":0.17045450000000528,"midi":54,"time":136.19314549999999,"velocity":0.3937007874015748},{"duration":0.08522725000000264,"midi":62,"time":136.19314549999999,"velocity":0.3937007874015748},{"duration":0.08522725000000264,"midi":42,"time":136.27837275,"velocity":0.3937007874015748},{"duration":0.2556817500000079,"midi":67,"time":136.3636,"velocity":0.3937007874015748},{"duration":0.2556817500000079,"midi":55,"time":136.3636,"velocity":0.3937007874015748},{"duration":0.17045450000000528,"midi":42,"time":136.3636,"velocity":0.3937007874015748},{"duration":0.5965907499999901,"midi":74,"time":136.3636,"velocity":0.3937007874015748},{"duration":0.08522725000000264,"midi":65,"time":136.5340545,"velocity":0.3937007874015748},{"duration":0.08522725000000264,"midi":42,"time":136.5340545,"velocity":0.3937007874015748},{"duration":0.4261362499999848,"midi":67,"time":136.5340545,"velocity":0.3937007874015748},{"duration":0.08522725000000264,"midi":59,"time":136.5340545,"velocity":0.3937007874015748},{"duration":0.08522725000000264,"midi":62,"time":136.5340545,"velocity":0.3937007874015748},{"duration":0.08522724999997422,"midi":42,"time":136.61928175,"velocity":0.3937007874015748},{"duration":0.2556817500000079,"midi":50,"time":136.70450899999997,"velocity":0.3937007874015748},{"duration":0.17045450000000528,"midi":42,"time":136.70450899999997,"velocity":0.3937007874015748},{"duration":0.08522725000000264,"midi":67,"time":136.87496349999998,"velocity":0.3937007874015748},{"duration":0.08522725000000264,"midi":59,"time":136.87496349999998,"velocity":0.3937007874015748},{"duration":0.08522725000000264,"midi":42,"time":136.87496349999998,"velocity":0.3937007874015748},{"duration":0.08522725000000264,"midi":62,"time":136.87496349999998,"velocity":0.3937007874015748},{"duration":0.08522725000000264,"midi":65,"time":136.87496349999998,"velocity":0.3937007874015748},{"duration":0.08522725000000264,"midi":42,"time":136.96019074999998,"velocity":0.3937007874015748},{"duration":0.5965907499999901,"midi":74,"time":137.04541799999998,"velocity":0.3937007874015748},{"duration":0.2556817500000079,"midi":67,"time":137.04541799999998,"velocity":0.3937007874015748},{"duration":0.17045450000000528,"midi":42,"time":137.04541799999998,"velocity":0.3937007874015748},{"duration":0.2556817500000079,"midi":55,"time":137.04541799999998,"velocity":0.3937007874015748},{"duration":0.4261362499999848,"midi":67,"time":137.2158725,"velocity":0.3937007874015748},{"duration":0.08522725000000264,"midi":62,"time":137.2158725,"velocity":0.3937007874015748},{"duration":0.08522725000000264,"midi":42,"time":137.2158725,"velocity":0.3937007874015748},{"duration":0.08522725000000264,"midi":59,"time":137.2158725,"velocity":0.3937007874015748},{"duration":0.08522725000000264,"midi":65,"time":137.2158725,"velocity":0.3937007874015748},{"duration":0.08522725000000264,"midi":42,"time":137.30109975,"velocity":0.3937007874015748},{"duration":0.17045449999997686,"midi":42,"time":137.386327,"velocity":0.3937007874015748},{"duration":0.2556817499999795,"midi":50,"time":137.386327,"velocity":0.3937007874015748},{"duration":0.08522725000000264,"midi":42,"time":137.55678149999997,"velocity":0.3937007874015748},{"duration":0.08522725000000264,"midi":65,"time":137.55678149999997,"velocity":0.3937007874015748},{"duration":0.08522725000000264,"midi":62,"time":137.55678149999997,"velocity":0.3937007874015748},{"duration":0.08522725000000264,"midi":67,"time":137.55678149999997,"velocity":0.3937007874015748},{"duration":0.08522725000000264,"midi":59,"time":137.55678149999997,"velocity":0.3937007874015748},{"duration":0.08522725000000264,"midi":42,"time":137.64200874999997,"velocity":0.3937007874015748},{"duration":0.2556817500000079,"midi":55,"time":137.72723599999998,"velocity":0.3937007874015748},{"duration":0.2556817500000079,"midi":67,"time":137.72723599999998,"velocity":0.3937007874015748},{"duration":0.17045450000000528,"midi":42,"time":137.72723599999998,"velocity":0.3937007874015748},{"duration":0.5113635000000158,"midi":74,"time":137.72723599999998,"velocity":0.3937007874015748},{"duration":0.34090900000001056,"midi":67,"time":137.89769049999998,"velocity":0.3937007874015748},{"duration":0.08522725000000264,"midi":65,"time":137.89769049999998,"velocity":0.3937007874015748},{"duration":0.08522725000000264,"midi":62,"time":137.89769049999998,"velocity":0.3937007874015748},{"duration":0.08522725000000264,"midi":42,"time":137.89769049999998,"velocity":0.3937007874015748},{"duration":0.08522725000000264,"midi":59,"time":137.89769049999998,"velocity":0.3937007874015748},{"duration":0.08522725000000264,"midi":42,"time":137.98291774999998,"velocity":0.3937007874015748},{"duration":0.2556817500000079,"midi":50,"time":138.068145,"velocity":0.3937007874015748},{"duration":0.17045450000000528,"midi":42,"time":138.068145,"velocity":0.3937007874015748},{"duration":0.08522725000000264,"midi":62,"time":138.2385995,"velocity":0.3937007874015748},{"duration":0.08522725000000264,"midi":65,"time":138.2385995,"velocity":0.3937007874015748},{"duration":0.08522725000000264,"midi":42,"time":138.2385995,"velocity":0.3937007874015748},{"duration":0.08522725000000264,"midi":59,"time":138.2385995,"velocity":0.3937007874015748},{"duration":0.08522725000000264,"midi":67,"time":138.2385995,"velocity":0.3937007874015748},{"duration":0.08522725000000264,"midi":69,"time":138.32382675,"velocity":0.3937007874015748},{"duration":0.08522725000000264,"midi":42,"time":138.32382675,"velocity":0.3937007874015748},{"duration":0.08522724999997422,"midi":73,"time":138.366440375,"velocity":0.3937007874015748},{"duration":0.2556817499999795,"midi":55,"time":138.409054,"velocity":0.3937007874015748},{"duration":0.17045449999997686,"midi":42,"time":138.409054,"velocity":0.3937007874015748},{"duration":0.2556817499999795,"midi":74,"time":138.409054,"velocity":0.3937007874015748},{"duration":0.2556817499999795,"midi":67,"time":138.409054,"velocity":0.3937007874015748},{"duration":0.08522725000000264,"midi":62,"time":138.57950849999997,"velocity":0.3937007874015748},{"duration":0.08522725000000264,"midi":67,"time":138.57950849999997,"velocity":0.3937007874015748},{"duration":0.08522725000000264,"midi":59,"time":138.57950849999997,"velocity":0.3937007874015748},{"duration":0.08522725000000264,"midi":42,"time":138.57950849999997,"velocity":0.3937007874015748},{"duration":0.08522725000000264,"midi":65,"time":138.57950849999997,"velocity":0.3937007874015748},{"duration":0.08522725000000264,"midi":42,"time":138.66473574999998,"velocity":0.3937007874015748},{"duration":0.2556817500000079,"midi":67,"time":138.74996299999998,"velocity":0.3937007874015748},{"duration":0.17045450000000528,"midi":42,"time":138.74996299999998,"velocity":0.3937007874015748},{"duration":0.17045450000000528,"midi":53,"time":138.74996299999998,"velocity":0.3937007874015748},{"duration":0.2556817500000079,"midi":76,"time":138.74996299999998,"velocity":0.3937007874015748},{"duration":0.08522725000000264,"midi":62,"time":138.92041749999999,"velocity":0.3937007874015748},{"duration":0.08522725000000264,"midi":65,"time":138.92041749999999,"velocity":0.3937007874015748},{"duration":0.08522725000000264,"midi":59,"time":138.92041749999999,"velocity":0.3937007874015748},{"duration":0.08522725000000264,"midi":67,"time":138.92041749999999,"velocity":0.3937007874015748},{"duration":0.17045450000000528,"midi":52,"time":138.92041749999999,"velocity":0.3937007874015748},{"duration":0.08522725000000264,"midi":42,"time":138.92041749999999,"velocity":0.3937007874015748},{"duration":0.08522725000000264,"midi":42,"time":139.00564475,"velocity":0.3937007874015748},{"duration":0.17045450000000528,"midi":42,"time":139.090872,"velocity":0.3937007874015748},{"duration":0.2556817500000079,"midi":50,"time":139.090872,"velocity":0.3937007874015748},{"duration":0.4261362499999848,"midi":74,"time":139.090872,"velocity":0.3937007874015748},{"duration":0.2556817500000079,"midi":69,"time":139.090872,"velocity":0.3937007874015748},{"duration":0.08522725000000264,"midi":62,"time":139.2613265,"velocity":0.3937007874015748},{"duration":0.08522725000000264,"midi":60,"time":139.2613265,"velocity":0.3937007874015748},{"duration":0.2556817499999795,"midi":69,"time":139.2613265,"velocity":0.3937007874015748},{"duration":0.08522725000000264,"midi":66,"time":139.2613265,"velocity":0.3937007874015748},{"duration":0.08522725000000264,"midi":42,"time":139.2613265,"velocity":0.3937007874015748},{"duration":0.08522724999997422,"midi":42,"time":139.34655375,"velocity":0.3937007874015748},{"duration":0.2556817500000079,"midi":45,"time":139.43178099999997,"velocity":0.3937007874015748},{"duration":0.17045450000000528,"midi":42,"time":139.43178099999997,"velocity":0.3937007874015748},{"duration":0.08522725000000264,"midi":42,"time":139.60223549999998,"velocity":0.3937007874015748},{"duration":0.08522725000000264,"midi":60,"time":139.60223549999998,"velocity":0.3937007874015748},{"duration":0.08522725000000264,"midi":66,"time":139.60223549999998,"velocity":0.3937007874015748},{"duration":0.08522725000000264,"midi":62,"time":139.60223549999998,"velocity":0.3937007874015748},{"duration":0.17045450000000528,"midi":74,"time":139.60223549999998,"velocity":0.3937007874015748},{"duration":0.08522725000000264,"midi":69,"time":139.60223549999998,"velocity":0.3937007874015748},{"duration":0.17045450000000528,"midi":69,"time":139.60223549999998,"velocity":0.3937007874015748},{"duration":0.08522725000000264,"midi":42,"time":139.68746274999998,"velocity":0.3937007874015748},{"duration":0.2556817500000079,"midi":50,"time":139.77268999999998,"velocity":0.3937007874015748},{"duration":0.17045450000000528,"midi":42,"time":139.77268999999998,"velocity":0.3937007874015748},{"duration":0.2556817500000079,"midi":69,"time":139.77268999999998,"velocity":0.3937007874015748},{"duration":0.2556817500000079,"midi":78,"time":139.77268999999998,"velocity":0.3937007874015748},{"duration":0.08522725000000264,"midi":62,"time":139.9431445,"velocity":0.3937007874015748},{"duration":0.08522725000000264,"midi":60,"time":139.9431445,"velocity":0.3937007874015748},{"duration":0.08522725000000264,"midi":42,"time":139.9431445,"velocity":0.3937007874015748},{"duration":0.08522725000000264,"midi":66,"time":139.9431445,"velocity":0.3937007874015748},{"duration":0.08522725000000264,"midi":69,"time":139.9431445,"velocity":0.3937007874015748},{"duration":0.08522725000000264,"midi":42,"time":140.02837175,"velocity":0.3937007874015748},{"duration":0.2556817499999795,"midi":81,"time":140.113599,"velocity":0.3937007874015748},{"duration":0.2556817499999795,"midi":69,"time":140.113599,"velocity":0.3937007874015748},{"duration":0.17045449999997686,"midi":42,"time":140.113599,"velocity":0.3937007874015748},{"duration":0.2556817499999795,"midi":45,"time":140.113599,"velocity":0.3937007874015748},{"duration":0.08522725000000264,"midi":60,"time":140.28405349999997,"velocity":0.3937007874015748},{"duration":0.08522725000000264,"midi":66,"time":140.28405349999997,"velocity":0.3937007874015748},{"duration":0.08522725000000264,"midi":69,"time":140.28405349999997,"velocity":0.3937007874015748},{"duration":0.08522725000000264,"midi":42,"time":140.28405349999997,"velocity":0.3937007874015748},{"duration":0.08522725000000264,"midi":62,"time":140.28405349999997,"velocity":0.3937007874015748},{"duration":0.08522725000000264,"midi":42,"time":140.36928074999997,"velocity":0.3937007874015748},{"duration":0.17045450000000528,"midi":42,"time":140.45450799999998,"velocity":0.3937007874015748},{"duration":0.2556817500000079,"midi":69,"time":140.45450799999998,"velocity":0.3937007874015748},{"duration":0.2556817500000079,"midi":80,"time":140.45450799999998,"velocity":0.3937007874015748},{"duration":0.2556817500000079,"midi":50,"time":140.45450799999998,"velocity":0.3937007874015748},{"duration":0.08522725000000264,"midi":42,"time":140.62496249999998,"velocity":0.3937007874015748},{"duration":0.08522725000000264,"midi":60,"time":140.62496249999998,"velocity":0.3937007874015748},{"duration":0.08522725000000264,"midi":66,"time":140.62496249999998,"velocity":0.3937007874015748},{"duration":0.08522725000000264,"midi":62,"time":140.62496249999998,"velocity":0.3937007874015748},{"duration":0.08522725000000264,"midi":69,"time":140.62496249999998,"velocity":0.3937007874015748},{"duration":0.08522725000000264,"midi":42,"time":140.71018974999998,"velocity":0.3937007874015748},{"duration":0.2556817500000079,"midi":69,"time":140.795417,"velocity":0.3937007874015748},{"duration":0.2556817500000079,"midi":45,"time":140.795417,"velocity":0.3937007874015748},{"duration":0.2556817500000079,"midi":81,"time":140.795417,"velocity":0.3937007874015748},{"duration":0.17045450000000528,"midi":42,"time":140.795417,"velocity":0.3937007874015748},{"duration":0.08522725000000264,"midi":60,"time":140.9658715,"velocity":0.3937007874015748},{"duration":0.08522725000000264,"midi":62,"time":140.9658715,"velocity":0.3937007874015748},{"duration":0.08522725000000264,"midi":69,"time":140.9658715,"velocity":0.3937007874015748},{"duration":0.08522725000000264,"midi":66,"time":140.9658715,"velocity":0.3937007874015748},{"duration":0.08522725000000264,"midi":42,"time":140.9658715,"velocity":0.3937007874015748},{"duration":0.08522725000000264,"midi":42,"time":141.05109875,"velocity":0.3937007874015748},{"duration":0.2556817499999795,"midi":50,"time":141.136326,"velocity":0.3937007874015748},{"duration":0.08522724999997422,"midi":80,"time":141.136326,"velocity":0.3937007874015748},{"duration":0.17045449999997686,"midi":42,"time":141.136326,"velocity":0.3937007874015748},{"duration":0.08522725000000264,"midi":81,"time":141.22155324999997,"velocity":0.3937007874015748},{"duration":0.08522725000000264,"midi":78,"time":141.30678049999997,"velocity":0.3937007874015748},{"duration":0.08522725000000264,"midi":69,"time":141.30678049999997,"velocity":0.3937007874015748},{"duration":0.08522725000000264,"midi":42,"time":141.30678049999997,"velocity":0.3937007874015748},{"duration":0.08522725000000264,"midi":66,"time":141.30678049999997,"velocity":0.3937007874015748},{"duration":0.08522725000000264,"midi":62,"time":141.30678049999997,"velocity":0.3937007874015748},{"duration":0.08522725000000264,"midi":60,"time":141.30678049999997,"velocity":0.3937007874015748},{"duration":0.08522725000000264,"midi":74,"time":141.39200774999998,"velocity":0.3937007874015748},{"duration":0.08522725000000264,"midi":42,"time":141.39200774999998,"velocity":0.3937007874015748},{"duration":0.17045450000000528,"midi":52,"time":141.47723499999998,"velocity":0.3937007874015748},{"duration":0.17045450000000528,"midi":42,"time":141.47723499999998,"velocity":0.3937007874015748},{"duration":0.17045450000000528,"midi":73,"time":141.47723499999998,"velocity":0.3937007874015748},{"duration":0.08522725000000264,"midi":62,"time":141.64768949999998,"velocity":0.3937007874015748},{"duration":0.08522725000000264,"midi":69,"time":141.64768949999998,"velocity":0.3937007874015748},{"duration":0.08522725000000264,"midi":42,"time":141.64768949999998,"velocity":0.3937007874015748},{"duration":0.17045450000000528,"midi":54,"time":141.64768949999998,"velocity":0.3937007874015748},{"duration":0.08522725000000264,"midi":66,"time":141.64768949999998,"velocity":0.3937007874015748},{"duration":0.08522725000000264,"midi":60,"time":141.64768949999998,"velocity":0.3937007874015748},{"duration":0.17045450000000528,"midi":69,"time":141.64768949999998,"velocity":0.3937007874015748},{"duration":0.08522725000000264,"midi":42,"time":141.73291675,"velocity":0.3937007874015748},{"duration":0.2556817500000079,"midi":55,"time":141.818144,"velocity":0.3937007874015748},{"duration":0.17045450000000528,"midi":42,"time":141.818144,"velocity":0.3937007874015748},{"duration":0.2556817500000079,"midi":71,"time":141.818144,"velocity":0.3937007874015748},{"duration":0.08522725000000264,"midi":67,"time":141.9885985,"velocity":0.3937007874015748},{"duration":0.08522725000000264,"midi":59,"time":141.9885985,"velocity":0.3937007874015748},{"duration":0.08522725000000264,"midi":42,"time":141.9885985,"velocity":0.3937007874015748},{"duration":0.08522725000000264,"midi":62,"time":141.9885985,"velocity":0.3937007874015748},{"duration":0.08522724999997422,"midi":73,"time":142.07382575,"velocity":0.3937007874015748},{"duration":0.08522724999997422,"midi":42,"time":142.07382575,"velocity":0.3937007874015748},{"duration":0.2556817500000079,"midi":50,"time":142.15905299999997,"velocity":0.3937007874015748},{"duration":0.17045450000000528,"midi":42,"time":142.15905299999997,"velocity":0.3937007874015748},{"duration":0.2556817500000079,"midi":74,"time":142.15905299999997,"velocity":0.3937007874015748},{"duration":0.08522725000000264,"midi":59,"time":142.32950749999998,"velocity":0.3937007874015748},{"duration":0.08522725000000264,"midi":42,"time":142.32950749999998,"velocity":0.3937007874015748},{"duration":0.08522725000000264,"midi":62,"time":142.32950749999998,"velocity":0.3937007874015748},{"duration":0.08522725000000264,"midi":67,"time":142.32950749999998,"velocity":0.3937007874015748},{"duration":0.08522725000000264,"midi":42,"time":142.41473474999998,"velocity":0.3937007874015748},{"duration":0.08522725000000264,"midi":76,"time":142.41473474999998,"velocity":0.3937007874015748},{"duration":0.08522725000000264,"midi":78,"time":142.49996199999998,"velocity":0.3937007874015748},{"duration":0.2556817500000079,"midi":55,"time":142.49996199999998,"velocity":0.3937007874015748},{"duration":0.17045450000000528,"midi":42,"time":142.49996199999998,"velocity":0.3937007874015748},{"duration":0.08522725000000264,"midi":77,"time":142.58518924999998,"velocity":0.3937007874015748},{"duration":0.08522725000000264,"midi":59,"time":142.6704165,"velocity":0.3937007874015748},{"duration":0.08522725000000264,"midi":42,"time":142.6704165,"velocity":0.3937007874015748},{"duration":0.08522725000000264,"midi":67,"time":142.6704165,"velocity":0.3937007874015748},{"duration":0.08522725000000264,"midi":78,"time":142.6704165,"velocity":0.3937007874015748},{"duration":0.08522725000000264,"midi":62,"time":142.6704165,"velocity":0.3937007874015748},{"duration":0.08522725000000264,"midi":79,"time":142.75564375,"velocity":0.3937007874015748},{"duration":0.08522725000000264,"midi":42,"time":142.75564375,"velocity":0.3937007874015748},{"duration":0.17045450000000528,"midi":42,"time":142.840871,"velocity":0.3937007874015748},{"duration":0.17045450000000528,"midi":50,"time":142.840871,"velocity":0.3937007874015748},{"duration":0.08522725000000264,"midi":81,"time":142.840871,"velocity":0.3937007874015748},{"duration":0.08522725000000264,"midi":80,"time":142.92609825,"velocity":0.3937007874015748},{"duration":0.08522724999997422,"midi":62,"time":143.0113255,"velocity":0.3937007874015748},{"duration":0.08522724999997422,"midi":67,"time":143.0113255,"velocity":0.3937007874015748},{"duration":0.08522724999997422,"midi":79,"time":143.0113255,"velocity":0.3937007874015748},{"duration":0.08522724999997422,"midi":42,"time":143.0113255,"velocity":0.3937007874015748},{"duration":0.08522724999997422,"midi":59,"time":143.0113255,"velocity":0.3937007874015748},{"duration":0.17045449999997686,"midi":55,"time":143.0113255,"velocity":0.3937007874015748},{"duration":0.08522725000000264,"midi":76,"time":143.09655274999997,"velocity":0.3937007874015748},{"duration":0.08522725000000264,"midi":42,"time":143.09655274999997,"velocity":0.3937007874015748},{"duration":0.08522725000000264,"midi":74,"time":143.18177999999997,"velocity":0.3937007874015748},{"duration":0.17045450000000528,"midi":42,"time":143.18177999999997,"velocity":0.3937007874015748},{"duration":0.2556817500000079,"midi":57,"time":143.18177999999997,"velocity":0.3937007874015748},{"duration":0.08522725000000264,"midi":73,"time":143.26700724999998,"velocity":0.3937007874015748},{"duration":0.08522725000000264,"midi":67,"time":143.35223449999998,"velocity":0.3937007874015748},{"duration":0.08522725000000264,"midi":74,"time":143.35223449999998,"velocity":0.3937007874015748},{"duration":0.08522725000000264,"midi":59,"time":143.35223449999998,"velocity":0.3937007874015748},{"duration":0.08522725000000264,"midi":42,"time":143.35223449999998,"velocity":0.3937007874015748},{"duration":0.08522725000000264,"midi":62,"time":143.35223449999998,"velocity":0.3937007874015748},{"duration":0.08522725000000264,"midi":42,"time":143.43746174999998,"velocity":0.3937007874015748},{"duration":0.08522725000000264,"midi":81,"time":143.43746174999998,"velocity":0.3937007874015748},{"duration":0.2556817500000079,"midi":52,"time":143.52268899999999,"velocity":0.3937007874015748},{"duration":0.08522725000000264,"midi":73,"time":143.52268899999999,"velocity":0.3937007874015748},{"duration":0.17045450000000528,"midi":42,"time":143.52268899999999,"velocity":0.3937007874015748},{"duration":0.08522725000000264,"midi":72,"time":143.60791625,"velocity":0.3937007874015748},{"duration":0.08522725000000264,"midi":73,"time":143.6931435,"velocity":0.3937007874015748},{"duration":0.08522725000000264,"midi":59,"time":143.6931435,"velocity":0.3937007874015748},{"duration":0.08522725000000264,"midi":62,"time":143.6931435,"velocity":0.3937007874015748},{"duration":0.08522725000000264,"midi":67,"time":143.6931435,"velocity":0.3937007874015748},{"duration":0.08522725000000264,"midi":42,"time":143.6931435,"velocity":0.3937007874015748},{"duration":0.08522725000000264,"midi":81,"time":143.77837075,"velocity":0.3937007874015748},{"duration":0.08522725000000264,"midi":42,"time":143.77837075,"velocity":0.3937007874015748},{"duration":0.17045449999997686,"midi":42,"time":143.863598,"velocity":0.3937007874015748},{"duration":0.2556817499999795,"midi":57,"time":143.863598,"velocity":0.3937007874015748},{"duration":0.08522724999997422,"midi":73,"time":143.863598,"velocity":0.3937007874015748},{"duration":0.08522725000000264,"midi":72,"time":143.94882524999997,"velocity":0.3937007874015748},{"duration":0.08522725000000264,"midi":42,"time":144.03405249999997,"velocity":0.3937007874015748},{"duration":0.08522725000000264,"midi":64,"time":144.03405249999997,"velocity":0.3937007874015748},{"duration":0.08522725000000264,"midi":61,"time":144.03405249999997,"velocity":0.3937007874015748},{"duration":0.08522725000000264,"midi":71,"time":144.03405249999997,"velocity":0.3937007874015748},{"duration":0.08522725000000264,"midi":69,"time":144.03405249999997,"velocity":0.3937007874015748},{"duration":0.08522725000000264,"midi":42,"time":144.11927974999998,"velocity":0.3937007874015748},{"duration":0.08522725000000264,"midi":70,"time":144.11927974999998,"velocity":0.3937007874015748},{"duration":0.2556817500000079,"midi":52,"time":144.20450699999998,"velocity":0.3937007874015748},{"duration":0.08522725000000264,"midi":69,"time":144.20450699999998,"velocity":0.3937007874015748},{"duration":0.17045450000000528,"midi":42,"time":144.20450699999998,"velocity":0.3937007874015748},{"duration":0.08522725000000264,"midi":68,"time":144.28973424999998,"velocity":0.3937007874015748},{"duration":0.08522725000000264,"midi":61,"time":144.37496149999998,"velocity":0.3937007874015748},{"duration":0.08522725000000264,"midi":67,"time":144.37496149999998,"velocity":0.3937007874015748},{"duration":0.08522725000000264,"midi":42,"time":144.37496149999998,"velocity":0.3937007874015748},{"duration":0.08522725000000264,"midi":64,"time":144.37496149999998,"velocity":0.3937007874015748},{"duration":0.08522725000000264,"midi":69,"time":144.37496149999998,"velocity":0.3937007874015748},{"duration":0.08522725000000264,"midi":64,"time":144.46018875,"velocity":0.3937007874015748},{"duration":0.08522725000000264,"midi":42,"time":144.46018875,"velocity":0.3937007874015748}]}]}
