{"tracks":[{"instrument":{"family":"piano","number":0,"name":"acoustic grand piano"},"notes":[{"duration":0.04285700000000148,"midi":48,"time":23.99992,"velocity":0.3937007874015748},{"duration":0.04285700000000148,"midi":60,"time":23.99992,"velocity":0.3937007874015748},{"duration":0.042856999999997925,"midi":67,"time":24.342776,"velocity":0.3937007874015748},{"duration":0.042856999999997925,"midi":63,"time":24.342776,"velocity":0.3937007874015748},{"duration":0.042856999999997925,"midi":60,"time":24.342776,"velocity":0.3937007874015748},{"duration":0.04285700000000148,"midi":68,"time":24.685632,"velocity":0.3937007874015748},{"duration":0.04285700000000148,"midi":60,"time":24.685632,"velocity":0.3937007874015748},{"duration":0.04285700000000148,"midi":65,"time":24.685632,"velocity":0.3937007874015748},{"duration":0.04285700000000148,"midi":60,"time":25.028488,"velocity":0.3937007874015748},{"duration":0.04285700000000148,"midi":65,"time":25.028488,"velocity":0.3937007874015748},{"duration":0.042856999999997925,"midi":67,"time":25.371344,"velocity":0.3937007874015748},{"duration":0.042856999999997925,"midi":59,"time":25.371344,"velocity":0.3937007874015748},{"duration":0.042856999999997925,"midi":62,"time":25.371344,"velocity":0.3937007874015748},{"duration":0.04285700000000148,"midi":48,"time":26.742767999999998,"velocity":0.3937007874015748},{"duration":0.04285700000000148,"midi":60,"time":26.742767999999998,"velocity":0.3937007874015748},{"duration":0.04285700000000148,"midi":67,"time":27.085624,"velocity":0.3937007874015748},{"duration":0.04285700000000148,"midi":64,"time":27.085624,"velocity":0.3937007874015748},{"duration":0.04285700000000148,"midi":60,"time":27.085624,"velocity":0.3937007874015748},{"duration":0.042856999999997925,"midi":60,"time":27.42848,"velocity":0.3937007874015748},{"duration":0.042856999999997925,"midi":67,"time":27.42848,"velocity":0.3937007874015748},{"duration":0.042856999999997925,"midi":70,"time":27.42848,"velocity":0.3937007874015748},{"duration":0.042856999999997925,"midi":60,"time":27.942764,"velocity":0.3937007874015748},{"duration":0.042856999999997925,"midi":67,"time":27.942764,"velocity":0.3937007874015748},{"duration":0.042856999999997925,"midi":64,"time":27.942764,"velocity":0.3937007874015748},{"duration":0.04285700000000148,"midi":68,"time":28.114192,"velocity":0.3937007874015748},{"duration":0.04285700000000148,"midi":60,"time":28.114192,"velocity":0.3937007874015748},{"duration":0.04285700000000148,"midi":65,"time":28.114192,"velocity":0.3937007874015748},{"duration":0.042856999999997925,"midi":56,"time":29.485616,"velocity":0.3937007874015748},{"duration":0.042856999999997925,"midi":68,"time":29.485616,"velocity":0.3937007874015748},{"duration":0.04285700000000148,"midi":63,"time":29.828471999999998,"velocity":0.3937007874015748},{"duration":0.04285700000000148,"midi":68,"time":29.828471999999998,"velocity":0.3937007874015748},{"duration":0.04285700000000148,"midi":72,"time":29.828471999999998,"velocity":0.3937007874015748},{"duration":0.04285700000000148,"midi":71,"time":30.171328,"velocity":0.3937007874015748},{"duration":0.04285700000000148,"midi":62,"time":30.171328,"velocity":0.3937007874015748},{"duration":0.04285700000000148,"midi":67,"time":30.171328,"velocity":0.3937007874015748},{"duration":0.042856999999997925,"midi":67,"time":30.514184,"velocity":0.3937007874015748},{"duration":0.042856999999997925,"midi":71,"time":30.514184,"velocity":0.3937007874015748},{"duration":0.042856999999997925,"midi":74,"time":30.514184,"velocity":0.3937007874015748},{"duration":0.04285700000000148,"midi":72,"time":30.857039999999998,"velocity":0.3937007874015748},{"duration":0.04285700000000148,"midi":60,"time":30.857039999999998,"velocity":0.3937007874015748},{"duration":0.04285700000000148,"midi":67,"time":30.857039999999998,"velocity":0.3937007874015748},{"duration":0.04285700000000148,"midi":63,"time":30.857039999999998,"velocity":0.3937007874015748},{"duration":0.04285700000000148,"midi":58,"time":31.199896,"velocity":0.3937007874015748},{"duration":0.04285700000000148,"midi":62,"time":31.199896,"velocity":0.3937007874015748},{"duration":0.04285700000000148,"midi":65,"time":31.199896,"velocity":0.3937007874015748},{"duration":0.04285700000000148,"midi":70,"time":31.199896,"velocity":0.3937007874015748},{"duration":0.042856999999997925,"midi":60,"time":31.542752,"velocity":0.3937007874015748},{"duration":0.042856999999997925,"midi":57,"time":31.542752,"velocity":0.3937007874015748},{"duration":0.042856999999997925,"midi":63,"time":31.542752,"velocity":0.3937007874015748},{"duration":0.042856999999997925,"midi":69,"time":31.542752,"velocity":0.3937007874015748},{"duration":0.042856999999997925,"midi":56,"time":32.228464,"velocity":0.3937007874015748},{"duration":0.042856999999997925,"midi":68,"time":32.228464,"velocity":0.3937007874015748},{"duration":0.042856999999997925,"midi":63,"time":32.228464,"velocity":0.3937007874015748},{"duration":0.042856999999997925,"midi":60,"time":32.228464,"velocity":0.3937007874015748},{"duration":0.04285700000000503,"midi":68,"time":32.914176,"velocity":0.3937007874015748},{"duration":0.04285700000000503,"midi":62,"time":32.914176,"velocity":0.3937007874015748},{"duration":0.04285700000000503,"midi":56,"time":32.914176,"velocity":0.3937007874015748},{"duration":0.04285700000000503,"midi":65,"time":32.914176,"velocity":0.3937007874015748},{"duration":0.042856999999997925,"midi":54,"time":33.599888,"velocity":0.3937007874015748},{"duration":0.042856999999997925,"midi":60,"time":33.599888,"velocity":0.3937007874015748},{"duration":0.042856999999997925,"midi":57,"time":33.599888,"velocity":0.3937007874015748},{"duration":0.042856999999997925,"midi":63,"time":33.599888,"velocity":0.3937007874015748},{"duration":0.04285700000000503,"midi":67,"time":33.942744,"velocity":0.3937007874015748},{"duration":0.04285700000000503,"midi":59,"time":33.942744,"velocity":0.3937007874015748},{"duration":0.04285700000000503,"midi":55,"time":33.942744,"velocity":0.3937007874015748},{"duration":0.04285700000000503,"midi":62,"time":33.942744,"velocity":0.3937007874015748},{"duration":0.04285700000000503,"midi":48,"time":34.971312,"velocity":0.3937007874015748},{"duration":0.04285700000000503,"midi":60,"time":34.971312,"velocity":0.3937007874015748},{"duration":0.042856999999997925,"midi":67,"time":35.314168,"velocity":0.3937007874015748},{"duration":0.042856999999997925,"midi":63,"time":35.314168,"velocity":0.3937007874015748},{"duration":0.042856999999997925,"midi":60,"time":35.314168,"velocity":0.3937007874015748},{"duration":0.042856999999997925,"midi":68,"time":35.657024,"velocity":0.3937007874015748},{"duration":0.042856999999997925,"midi":65,"time":35.657024,"velocity":0.3937007874015748},{"duration":0.042856999999997925,"midi":60,"time":35.657024,"velocity":0.3937007874015748},{"duration":0.04285700000000503,"midi":60,"time":35.99988,"velocity":0.3937007874015748},{"duration":0.04285700000000503,"midi":65,"time":35.99988,"velocity":0.3937007874015748},{"duration":0.042856999999997925,"midi":67,"time":36.342736,"velocity":0.3937007874015748},{"duration":0.042856999999997925,"midi":62,"time":36.342736,"velocity":0.3937007874015748},{"duration":0.042856999999997925,"midi":59,"time":36.342736,"velocity":0.3937007874015748},{"duration":0.042856999999997925,"midi":48,"time":37.71416,"velocity":0.3937007874015748},{"duration":0.042856999999997925,"midi":60,"time":37.71416,"velocity":0.3937007874015748},{"duration":0.04285700000000503,"midi":64,"time":38.057016,"velocity":0.3937007874015748},{"duration":0.04285700000000503,"midi":67,"time":38.057016,"velocity":0.3937007874015748},{"duration":0.04285700000000503,"midi":60,"time":38.057016,"velocity":0.3937007874015748},{"duration":0.042856999999997925,"midi":60,"time":38.399872,"velocity":0.3937007874015748},{"duration":0.042856999999997925,"midi":67,"time":38.399872,"velocity":0.3937007874015748},{"duration":0.042856999999997925,"midi":70,"time":38.399872,"velocity":0.3937007874015748},{"duration":0.042856999999997925,"midi":64,"time":38.914156,"velocity":0.3937007874015748},{"duration":0.042856999999997925,"midi":67,"time":38.914156,"velocity":0.3937007874015748},{"duration":0.042856999999997925,"midi":60,"time":38.914156,"velocity":0.3937007874015748},{"duration":0.04285700000000503,"midi":68,"time":39.085584,"velocity":0.3937007874015748},{"duration":0.04285700000000503,"midi":60,"time":39.085584,"velocity":0.3937007874015748},{"duration":0.04285700000000503,"midi":65,"time":39.085584,"velocity":0.3937007874015748},{"duration":0.042856999999997925,"midi":56,"time":40.457008,"velocity":0.3937007874015748},{"duration":0.042856999999997925,"midi":68,"time":40.457008,"velocity":0.3937007874015748},{"duration":0.042856999999997925,"midi":68,"time":40.799864,"velocity":0.3937007874015748},{"duration":0.042856999999997925,"midi":72,"time":40.799864,"velocity":0.3937007874015748},{"duration":0.042856999999997925,"midi":63,"time":40.799864,"velocity":0.3937007874015748},{"duration":0.04285700000000503,"midi":62,"time":41.14272,"velocity":0.3937007874015748},{"duration":0.04285700000000503,"midi":67,"time":41.14272,"velocity":0.3937007874015748},{"duration":0.04285700000000503,"midi":71,"time":41.14272,"velocity":0.3937007874015748},{"duration":0.042856999999997925,"midi":74,"time":41.485576,"velocity":0.3937007874015748},{"duration":0.042856999999997925,"midi":67,"time":41.485576,"velocity":0.3937007874015748},{"duration":0.042856999999997925,"midi":71,"time":41.485576,"velocity":0.3937007874015748},{"duration":0.042856999999997925,"midi":67,"time":41.828432,"velocity":0.3937007874015748},{"duration":0.042856999999997925,"midi":63,"time":41.828432,"velocity":0.3937007874015748},{"duration":0.042856999999997925,"midi":72,"time":41.828432,"velocity":0.3937007874015748},{"duration":0.042856999999997925,"midi":60,"time":41.828432,"velocity":0.3937007874015748},{"duration":0.04285700000000503,"midi":70,"time":42.171288,"velocity":0.3937007874015748},{"duration":0.04285700000000503,"midi":58,"time":42.171288,"velocity":0.3937007874015748},{"duration":0.04285700000000503,"midi":62,"time":42.171288,"velocity":0.3937007874015748},{"duration":0.04285700000000503,"midi":65,"time":42.171288,"velocity":0.3937007874015748},{"duration":0.042856999999997925,"midi":60,"time":42.514144,"velocity":0.3937007874015748},{"duration":0.042856999999997925,"midi":63,"time":42.514144,"velocity":0.3937007874015748},{"duration":0.042856999999997925,"midi":69,"time":42.514144,"velocity":0.3937007874015748},{"duration":0.042856999999997925,"midi":57,"time":42.514144,"velocity":0.3937007874015748},{"duration":0.042856999999997925,"midi":65,"time":42.857,"velocity":0.3937007874015748},{"duration":0.04285700000000503,"midi":54,"time":43.199856,"velocity":0.3937007874015748},{"duration":0.04285700000000503,"midi":63,"time":43.199856,"velocity":0.3937007874015748},{"duration":0.04285700000000503,"midi":60,"time":43.199856,"velocity":0.3937007874015748},{"duration":0.04285700000000503,"midi":57,"time":43.199856,"velocity":0.3937007874015748},{"duration":0.042856999999997925,"midi":55,"time":43.885568,"velocity":0.3937007874015748},{"duration":0.042856999999997925,"midi":62,"time":43.885568,"velocity":0.3937007874015748},{"duration":0.042856999999997925,"midi":67,"time":43.885568,"velocity":0.3937007874015748},{"duration":0.042856999999997925,"midi":59,"time":43.885568,"velocity":0.3937007874015748},{"duration":0.042856999999997925,"midi":43,"time":44.914136,"velocity":0.3937007874015748},{"duration":0.042856999999997925,"midi":55,"time":44.914136,"velocity":0.3937007874015748},{"duration":0.04285700000000503,"midi":48,"time":45.256992,"velocity":0.3937007874015748},{"duration":0.04285700000000503,"midi":60,"time":45.256992,"velocity":0.3937007874015748}]},{"instrument":{"family":"guitar","number":24,"name":"acoustic guitar (nylon)"},"notes":[{"duration":0.04285700000000148,"midi":35,"time":25.714199999999998,"velocity":0.3937007874015748},{"duration":0.04285700000000148,"midi":47,"time":25.714199999999998,"velocity":0.3937007874015748},{"duration":0.04285700000000148,"midi":35,"time":25.714199999999998,"velocity":0.3937007874015748},{"duration":0.04285700000000148,"midi":47,"time":25.714199999999998,"velocity":0.3937007874015748},{"duration":0.04285700000000148,"midi":36,"time":26.057056,"velocity":0.3937007874015748},{"duration":0.04285700000000148,"midi":48,"time":26.057056,"velocity":0.3937007874015748},{"duration":0.04285700000000148,"midi":36,"time":26.057056,"velocity":0.3937007874015748},{"duration":0.04285700000000148,"midi":48,"time":26.057056,"velocity":0.3937007874015748},{"duration":0.042856999999997925,"midi":38,"time":26.399912,"velocity":0.3937007874015748},{"duration":0.042856999999997925,"midi":50,"time":26.399912,"velocity":0.3937007874015748},{"duration":0.042856999999997925,"midi":50,"time":26.399912,"velocity":0.3937007874015748},{"duration":0.042856999999997925,"midi":38,"time":26.399912,"velocity":0.3937007874015748},{"duration":0.042856999999997925,"midi":40,"time":28.457048,"velocity":0.3937007874015748},{"duration":0.042856999999997925,"midi":52,"time":28.457048,"velocity":0.3937007874015748},{"duration":0.042856999999997925,"midi":40,"time":28.457048,"velocity":0.3937007874015748},{"duration":0.042856999999997925,"midi":52,"time":28.457048,"velocity":0.3937007874015748},{"duration":0.04285700000000148,"midi":53,"time":28.799903999999998,"velocity":0.3937007874015748},{"duration":0.04285700000000148,"midi":41,"time":28.799903999999998,"velocity":0.3937007874015748},{"duration":0.04285700000000148,"midi":41,"time":28.799903999999998,"velocity":0.3937007874015748},{"duration":0.04285700000000148,"midi":53,"time":28.799903999999998,"velocity":0.3937007874015748},{"duration":0.04285700000000148,"midi":43,"time":29.14276,"velocity":0.3937007874015748},{"duration":0.04285700000000148,"midi":55,"time":29.14276,"velocity":0.3937007874015748},{"duration":0.04285700000000148,"midi":43,"time":29.14276,"velocity":0.3937007874015748},{"duration":0.04285700000000148,"midi":55,"time":29.14276,"velocity":0.3937007874015748},{"duration":0.042856999999997925,"midi":35,"time":36.685592,"velocity":0.3937007874015748},{"duration":0.042856999999997925,"midi":47,"time":36.685592,"velocity":0.3937007874015748},{"duration":0.042856999999997925,"midi":35,"time":36.685592,"velocity":0.3937007874015748},{"duration":0.042856999999997925,"midi":47,"time":36.685592,"velocity":0.3937007874015748},{"duration":0.04285700000000503,"midi":48,"time":37.028448,"velocity":0.3937007874015748},{"duration":0.04285700000000503,"midi":36,"time":37.028448,"velocity":0.3937007874015748},{"duration":0.04285700000000503,"midi":48,"time":37.028448,"velocity":0.3937007874015748},{"duration":0.04285700000000503,"midi":36,"time":37.028448,"velocity":0.3937007874015748},{"duration":0.042856999999997925,"midi":50,"time":37.371304,"velocity":0.3937007874015748},{"duration":0.042856999999997925,"midi":50,"time":37.371304,"velocity":0.3937007874015748},{"duration":0.042856999999997925,"midi":38,"time":37.371304,"velocity":0.3937007874015748},{"duration":0.042856999999997925,"midi":38,"time":37.371304,"velocity":0.3937007874015748},{"duration":0.042856999999997925,"midi":40,"time":39.42844,"velocity":0.3937007874015748},{"duration":0.042856999999997925,"midi":52,"time":39.42844,"velocity":0.3937007874015748},{"duration":0.042856999999997925,"midi":40,"time":39.42844,"velocity":0.3937007874015748},{"duration":0.042856999999997925,"midi":52,"time":39.42844,"velocity":0.3937007874015748},{"duration":0.042856999999997925,"midi":41,"time":39.771296,"velocity":0.3937007874015748},{"duration":0.042856999999997925,"midi":53,"time":39.771296,"velocity":0.3937007874015748},{"duration":0.042856999999997925,"midi":41,"time":39.771296,"velocity":0.3937007874015748},{"duration":0.042856999999997925,"midi":53,"time":39.771296,"velocity":0.3937007874015748},{"duration":0.04285700000000503,"midi":55,"time":40.114152,"velocity":0.3937007874015748},{"duration":0.04285700000000503,"midi":43,"time":40.114152,"velocity":0.3937007874015748},{"duration":0.04285700000000503,"midi":55,"time":40.114152,"velocity":0.3937007874015748},{"duration":0.04285700000000503,"midi":43,"time":40.114152,"velocity":0.3937007874015748},{"duration":0.042856999999997925,"midi":24,"time":45.942704,"velocity":0.3937007874015748},{"duration":0.042856999999997925,"midi":60,"time":45.942704,"velocity":0.3937007874015748},{"duration":0.042856999999997925,"midi":26,"time":45.942704,"velocity":0.3937007874015748},{"duration":0.042856999999997925,"midi":26,"time":45.942704,"velocity":0.3937007874015748},{"duration":0.042856999999997925,"midi":63,"time":45.942704,"velocity":0.3937007874015748},{"duration":0.042856999999997925,"midi":36,"time":45.942704,"velocity":0.3937007874015748},{"duration":0.042856999999997925,"midi":31,"time":45.942704,"velocity":0.3937007874015748},{"duration":0.042856999999997925,"midi":31,"time":45.942704,"velocity":0.3937007874015748},{"duration":0.042856999999997925,"midi":55,"time":45.942704,"velocity":0.3937007874015748},{"duration":0.042856999999997925,"midi":24,"time":45.942704,"velocity":0.3937007874015748},{"duration":0.042856999999997925,"midi":63,"time":45.942704,"velocity":0.3937007874015748},{"duration":0.042856999999997925,"midi":36,"time":45.942704,"velocity":0.3937007874015748},{"duration":0.042856999999997925,"midi":60,"time":45.942704,"velocity":0.3937007874015748},{"duration":0.042856999999997925,"midi":55,"time":45.942704,"velocity":0.3937007874015748},{"duration":0.04285700000000503,"midi":24,"time":46.28556,"velocity":0.3937007874015748},{"duration":0.04285700000000503,"midi":48,"time":46.28556,"velocity":0.3937007874015748},{"duration":0.04285700000000503,"midi":48,"time":46.28556,"velocity":0.3937007874015748},{"duration":0.04285700000000503,"midi":24,"time":46.28556,"velocity":0.3937007874015748},{"duration":0.042856999999997925,"midi":36,"time":46.456988,"velocity":0.3937007874015748},{"duration":0.042856999999997925,"midi":36,"time":46.456988,"velocity":0.3937007874015748},{"duration":0.042856999999997925,"midi":36,"time":46.628416,"velocity":0.3937007874015748},{"duration":0.042856999999997925,"midi":36,"time":46.628416,"velocity":0.3937007874015748},{"duration":0.042856999999997925,"midi":60,"time":46.628416,"velocity":0.3937007874015748},{"duration":0.042856999999997925,"midi":60,"time":46.628416,"velocity":0.3937007874015748},{"duration":0.042856999999997925,"midi":60,"time":46.799844,"velocity":0.3937007874015748},{"duration":0.042856999999997925,"midi":36,"time":46.799844,"velocity":0.3937007874015748},{"duration":0.042856999999997925,"midi":36,"time":46.799844,"velocity":0.3937007874015748},{"duration":0.042856999999997925,"midi":60,"time":46.799844,"velocity":0.3937007874015748},{"duration":0.042856999999997925,"midi":24,"time":46.971272,"velocity":0.3937007874015748},{"duration":0.042856999999997925,"midi":63,"time":46.971272,"velocity":0.3937007874015748},{"duration":0.042856999999997925,"midi":55,"time":46.971272,"velocity":0.3937007874015748},{"duration":0.042856999999997925,"midi":55,"time":46.971272,"velocity":0.3937007874015748},{"duration":0.042856999999997925,"midi":60,"time":46.971272,"velocity":0.3937007874015748},{"duration":0.042856999999997925,"midi":63,"time":46.971272,"velocity":0.3937007874015748},{"duration":0.042856999999997925,"midi":60,"time":46.971272,"velocity":0.3937007874015748},{"duration":0.042856999999997925,"midi":24,"time":46.971272,"velocity":0.3937007874015748},{"duration":0.042856999999997925,"midi":36,"time":47.1427,"velocity":0.3937007874015748},{"duration":0.042856999999997925,"midi":36,"time":47.1427,"velocity":0.3937007874015748},{"duration":0.04285700000000503,"midi":65,"time":47.314128,"velocity":0.3937007874015748},{"duration":0.04285700000000503,"midi":62,"time":47.314128,"velocity":0.3937007874015748},{"duration":0.04285700000000503,"midi":56,"time":47.314128,"velocity":0.3937007874015748},{"duration":0.04285700000000503,"midi":24,"time":47.314128,"velocity":0.3937007874015748},{"duration":0.04285700000000503,"midi":62,"time":47.314128,"velocity":0.3937007874015748},{"duration":0.04285700000000503,"midi":56,"time":47.314128,"velocity":0.3937007874015748},{"duration":0.04285700000000503,"midi":59,"time":47.314128,"velocity":0.3937007874015748},{"duration":0.04285700000000503,"midi":65,"time":47.314128,"velocity":0.3937007874015748},{"duration":0.04285700000000503,"midi":24,"time":47.314128,"velocity":0.3937007874015748},{"duration":0.04285700000000503,"midi":59,"time":47.314128,"velocity":0.3937007874015748},{"duration":0.042856999999997925,"midi":24,"time":47.656984,"velocity":0.3937007874015748},{"duration":0.042856999999997925,"midi":24,"time":47.656984,"velocity":0.3937007874015748},{"duration":0.042856999999997925,"midi":36,"time":47.828412,"velocity":0.3937007874015748},{"duration":0.042856999999997925,"midi":36,"time":47.828412,"velocity":0.3937007874015748},{"duration":0.042856999999997925,"midi":24,"time":48.171268,"velocity":0.3937007874015748},{"duration":0.042856999999997925,"midi":24,"time":48.171268,"velocity":0.3937007874015748},{"duration":0.04285700000000503,"midi":36,"time":48.342696,"velocity":0.3937007874015748},{"duration":0.04285700000000503,"midi":36,"time":48.342696,"velocity":0.3937007874015748},{"duration":0.042856999999997925,"midi":24,"time":48.514124,"velocity":0.3937007874015748},{"duration":0.042856999999997925,"midi":24,"time":48.514124,"velocity":0.3937007874015748},{"duration":0.042856999999997925,"midi":24,"time":48.685552,"velocity":0.3937007874015748},{"duration":0.042856999999997925,"midi":53,"time":48.685552,"velocity":0.3937007874015748},{"duration":0.042856999999997925,"midi":56,"time":48.685552,"velocity":0.3937007874015748},{"duration":0.042856999999997925,"midi":24,"time":48.685552,"velocity":0.3937007874015748},{"duration":0.042856999999997925,"midi":59,"time":48.685552,"velocity":0.3937007874015748},{"duration":0.042856999999997925,"midi":62,"time":48.685552,"velocity":0.3937007874015748},{"duration":0.042856999999997925,"midi":62,"time":48.685552,"velocity":0.3937007874015748},{"duration":0.042856999999997925,"midi":56,"time":48.685552,"velocity":0.3937007874015748},{"duration":0.042856999999997925,"midi":59,"time":48.685552,"velocity":0.3937007874015748},{"duration":0.042856999999997925,"midi":53,"time":48.685552,"velocity":0.3937007874015748},{"duration":0.042856999999997925,"midi":24,"time":49.028408,"velocity":0.3937007874015748},{"duration":0.042856999999997925,"midi":36,"time":49.028408,"velocity":0.3937007874015748},{"duration":0.042856999999997925,"midi":36,"time":49.028408,"velocity":0.3937007874015748},{"duration":0.042856999999997925,"midi":24,"time":49.028408,"velocity":0.3937007874015748},{"duration":0.042856999999997925,"midi":48,"time":49.028408,"velocity":0.3937007874015748},{"duration":0.042856999999997925,"midi":48,"time":49.028408,"velocity":0.3937007874015748},{"duration":0.042856999999997925,"midi":24,"time":49.199836,"velocity":0.3937007874015748},{"duration":0.042856999999997925,"midi":36,"time":49.199836,"velocity":0.3937007874015748},{"duration":0.042856999999997925,"midi":48,"time":49.199836,"velocity":0.3937007874015748},{"duration":0.042856999999997925,"midi":36,"time":49.199836,"velocity":0.3937007874015748},{"duration":0.042856999999997925,"midi":24,"time":49.199836,"velocity":0.3937007874015748},{"duration":0.042856999999997925,"midi":48,"time":49.199836,"velocity":0.3937007874015748},{"duration":0.04285700000000503,"midi":48,"time":49.371264,"velocity":0.3937007874015748},{"duration":0.04285700000000503,"midi":36,"time":49.371264,"velocity":0.3937007874015748},{"duration":0.04285700000000503,"midi":24,"time":49.371264,"velocity":0.3937007874015748},{"duration":0.04285700000000503,"midi":24,"time":49.371264,"velocity":0.3937007874015748},{"duration":0.04285700000000503,"midi":36,"time":49.371264,"velocity":0.3937007874015748},{"duration":0.04285700000000503,"midi":48,"time":49.371264,"velocity":0.3937007874015748},{"duration":0.042856999999997925,"midi":48,"time":49.542692,"velocity":0.3937007874015748},{"duration":0.042856999999997925,"midi":24,"time":49.542692,"velocity":0.3937007874015748},{"duration":0.042856999999997925,"midi":48,"time":49.542692,"velocity":0.3937007874015748},{"duration":0.042856999999997925,"midi":24,"time":49.542692,"velocity":0.3937007874015748},{"duration":0.042856999999997925,"midi":36,"time":49.542692,"velocity":0.3937007874015748},{"duration":0.042856999999997925,"midi":36,"time":49.542692,"velocity":0.3937007874015748},{"duration":0.042856999999997925,"midi":24,"time":49.71412,"velocity":0.3937007874015748},{"duration":0.042856999999997925,"midi":36,"time":49.71412,"velocity":0.3937007874015748},{"duration":0.042856999999997925,"midi":48,"time":49.71412,"velocity":0.3937007874015748},{"duration":0.042856999999997925,"midi":24,"time":49.71412,"velocity":0.3937007874015748},{"duration":0.042856999999997925,"midi":36,"time":49.71412,"velocity":0.3937007874015748},{"duration":0.042856999999997925,"midi":48,"time":49.71412,"velocity":0.3937007874015748},{"duration":0.042856999999997925,"midi":36,"time":49.885548,"velocity":0.3937007874015748},{"duration":0.042856999999997925,"midi":24,"time":49.885548,"velocity":0.3937007874015748},{"duration":0.042856999999997925,"midi":48,"time":49.885548,"velocity":0.3937007874015748},{"duration":0.042856999999997925,"midi":36,"time":49.885548,"velocity":0.3937007874015748},{"duration":0.042856999999997925,"midi":24,"time":49.885548,"velocity":0.3937007874015748},{"duration":0.042856999999997925,"midi":48,"time":49.885548,"velocity":0.3937007874015748},{"duration":0.042856999999997925,"midi":63,"time":50.056976,"velocity":0.3937007874015748},{"duration":0.042856999999997925,"midi":39,"time":50.056976,"velocity":0.3937007874015748},{"duration":0.042856999999997925,"midi":39,"time":50.056976,"velocity":0.3937007874015748},{"duration":0.042856999999997925,"midi":63,"time":50.056976,"velocity":0.3937007874015748},{"duration":0.04285700000000503,"midi":55,"time":50.228404,"velocity":0.3937007874015748},{"duration":0.04285700000000503,"midi":55,"time":50.228404,"velocity":0.3937007874015748},{"duration":0.04285700000000503,"midi":31,"time":50.228404,"velocity":0.3937007874015748},{"duration":0.04285700000000503,"midi":31,"time":50.228404,"velocity":0.3937007874015748},{"duration":0.04285700000000503,"midi":62,"time":50.399831999999996,"velocity":0.3937007874015748},{"duration":0.04285700000000503,"midi":38,"time":50.399831999999996,"velocity":0.3937007874015748},{"duration":0.04285700000000503,"midi":62,"time":50.399831999999996,"velocity":0.3937007874015748},{"duration":0.04285700000000503,"midi":38,"time":50.399831999999996,"velocity":0.3937007874015748},{"duration":0.042856999999997925,"midi":55,"time":50.57126,"velocity":0.3937007874015748},{"duration":0.042856999999997925,"midi":31,"time":50.57126,"velocity":0.3937007874015748},{"duration":0.042856999999997925,"midi":31,"time":50.57126,"velocity":0.3937007874015748},{"duration":0.042856999999997925,"midi":55,"time":50.57126,"velocity":0.3937007874015748},{"duration":0.042856999999997925,"midi":60,"time":50.742688,"velocity":0.3937007874015748},{"duration":0.042856999999997925,"midi":36,"time":50.742688,"velocity":0.3937007874015748},{"duration":0.042856999999997925,"midi":60,"time":50.742688,"velocity":0.3937007874015748},{"duration":0.042856999999997925,"midi":36,"time":50.742688,"velocity":0.3937007874015748},{"duration":0.042856999999997925,"midi":36,"time":50.914116,"velocity":0.3937007874015748},{"duration":0.042856999999997925,"midi":36,"time":50.914116,"velocity":0.3937007874015748},{"duration":0.042856999999997925,"midi":36,"time":51.085544,"velocity":0.3937007874015748},{"duration":0.042856999999997925,"midi":36,"time":51.085544,"velocity":0.3937007874015748},{"duration":0.04285700000000503,"midi":48,"time":51.256972,"velocity":0.3937007874015748},{"duration":0.04285700000000503,"midi":48,"time":51.256972,"velocity":0.3937007874015748},{"duration":0.04285700000000503,"midi":63,"time":51.428399999999996,"velocity":0.3937007874015748},{"duration":0.04285700000000503,"midi":67,"time":51.428399999999996,"velocity":0.3937007874015748},{"duration":0.04285700000000503,"midi":60,"time":51.428399999999996,"velocity":0.3937007874015748},{"duration":0.04285700000000503,"midi":63,"time":51.428399999999996,"velocity":0.3937007874015748},{"duration":0.04285700000000503,"midi":60,"time":51.428399999999996,"velocity":0.3937007874015748},{"duration":0.04285700000000503,"midi":36,"time":51.428399999999996,"velocity":0.3937007874015748},{"duration":0.04285700000000503,"midi":67,"time":51.428399999999996,"velocity":0.3937007874015748},{"duration":0.04285700000000503,"midi":36,"time":51.428399999999996,"velocity":0.3937007874015748},{"duration":0.042856999999997925,"midi":36,"time":51.771256,"velocity":0.3937007874015748},{"duration":0.042856999999997925,"midi":36,"time":51.771256,"velocity":0.3937007874015748},{"duration":0.042856999999997925,"midi":48,"time":51.942684,"velocity":0.3937007874015748},{"duration":0.042856999999997925,"midi":48,"time":51.942684,"velocity":0.3937007874015748},{"duration":0.042856999999997925,"midi":60,"time":52.114112,"velocity":0.3937007874015748},{"duration":0.042856999999997925,"midi":60,"time":52.114112,"velocity":0.3937007874015748},{"duration":0.042856999999997925,"midi":48,"time":52.199826,"velocity":0.3937007874015748},{"duration":0.042856999999997925,"midi":48,"time":52.199826,"velocity":0.3937007874015748},{"duration":0.04285700000000503,"midi":60,"time":52.28554,"velocity":0.3937007874015748},{"duration":0.04285700000000503,"midi":60,"time":52.28554,"velocity":0.3937007874015748},{"duration":0.04285700000000503,"midi":48,"time":52.456967999999996,"velocity":0.3937007874015748},{"duration":0.04285700000000503,"midi":48,"time":52.456967999999996,"velocity":0.3937007874015748},{"duration":0.042856999999997925,"midi":60,"time":52.628396,"velocity":0.3937007874015748},{"duration":0.042856999999997925,"midi":60,"time":52.628396,"velocity":0.3937007874015748},{"duration":0.042856999999997925,"midi":36,"time":52.799824,"velocity":0.3937007874015748},{"duration":0.042856999999997925,"midi":60,"time":52.799824,"velocity":0.3937007874015748},{"duration":0.042856999999997925,"midi":36,"time":52.799824,"velocity":0.3937007874015748},{"duration":0.042856999999997925,"midi":63,"time":52.799824,"velocity":0.3937007874015748},{"duration":0.042856999999997925,"midi":66,"time":52.799824,"velocity":0.3937007874015748},{"duration":0.042856999999997925,"midi":66,"time":52.799824,"velocity":0.3937007874015748},{"duration":0.042856999999997925,"midi":63,"time":52.799824,"velocity":0.3937007874015748},{"duration":0.042856999999997925,"midi":60,"time":52.799824,"velocity":0.3937007874015748},{"duration":0.042856999999997925,"midi":36,"time":53.14268,"velocity":0.3937007874015748},{"duration":0.042856999999997925,"midi":36,"time":53.14268,"velocity":0.3937007874015748},{"duration":0.04285700000000503,"midi":48,"time":53.314108,"velocity":0.3937007874015748},{"duration":0.04285700000000503,"midi":48,"time":53.314108,"velocity":0.3937007874015748},{"duration":0.042856999999997925,"midi":36,"time":53.656964,"velocity":0.3937007874015748},{"duration":0.042856999999997925,"midi":36,"time":53.656964,"velocity":0.3937007874015748},{"duration":0.042856999999997925,"midi":48,"time":53.828392,"velocity":0.3937007874015748},{"duration":0.042856999999997925,"midi":48,"time":53.828392,"velocity":0.3937007874015748},{"duration":0.042856999999997925,"midi":36,"time":53.99982,"velocity":0.3937007874015748},{"duration":0.042856999999997925,"midi":36,"time":53.99982,"velocity":0.3937007874015748},{"duration":0.042856999999997925,"midi":65,"time":54.171248,"velocity":0.3937007874015748},{"duration":0.042856999999997925,"midi":62,"time":54.171248,"velocity":0.3937007874015748},{"duration":0.042856999999997925,"midi":36,"time":54.171248,"velocity":0.3937007874015748},{"duration":0.042856999999997925,"midi":56,"time":54.171248,"velocity":0.3937007874015748},{"duration":0.042856999999997925,"midi":36,"time":54.171248,"velocity":0.3937007874015748},{"duration":0.042856999999997925,"midi":65,"time":54.171248,"velocity":0.3937007874015748},{"duration":0.042856999999997925,"midi":56,"time":54.171248,"velocity":0.3937007874015748},{"duration":0.042856999999997925,"midi":62,"time":54.171248,"velocity":0.3937007874015748},{"duration":0.04285700000000503,"midi":24,"time":54.514103999999996,"velocity":0.3937007874015748},{"duration":0.04285700000000503,"midi":24,"time":54.514103999999996,"velocity":0.3937007874015748},{"duration":0.042856999999997925,"midi":36,"time":54.599818,"velocity":0.3937007874015748},{"duration":0.042856999999997925,"midi":36,"time":54.599818,"velocity":0.3937007874015748},{"duration":0.042856999999997925,"midi":48,"time":54.685532,"velocity":0.3937007874015748},{"duration":0.042856999999997925,"midi":48,"time":54.685532,"velocity":0.3937007874015748},{"duration":0.042856999999997925,"midi":60,"time":54.771246,"velocity":0.3937007874015748},{"duration":0.042856999999997925,"midi":60,"time":54.771246,"velocity":0.3937007874015748},{"duration":0.042856999999997925,"midi":24,"time":54.85696,"velocity":0.3937007874015748},{"duration":0.042856999999997925,"midi":48,"time":54.85696,"velocity":0.3937007874015748},{"duration":0.042856999999997925,"midi":24,"time":54.85696,"velocity":0.3937007874015748},{"duration":0.042856999999997925,"midi":36,"time":54.85696,"velocity":0.3937007874015748},{"duration":0.042856999999997925,"midi":36,"time":54.85696,"velocity":0.3937007874015748},{"duration":0.042856999999997925,"midi":48,"time":54.85696,"velocity":0.3937007874015748},{"duration":0.042856999999997925,"midi":48,"time":55.028388,"velocity":0.3937007874015748},{"duration":0.042856999999997925,"midi":24,"time":55.028388,"velocity":0.3937007874015748},{"duration":0.042856999999997925,"midi":36,"time":55.028388,"velocity":0.3937007874015748},{"duration":0.042856999999997925,"midi":48,"time":55.028388,"velocity":0.3937007874015748},{"duration":0.042856999999997925,"midi":24,"time":55.028388,"velocity":0.3937007874015748},{"duration":0.042856999999997925,"midi":36,"time":55.028388,"velocity":0.3937007874015748},{"duration":0.042856999999997925,"midi":24,"time":55.199816,"velocity":0.3937007874015748},{"duration":0.042856999999997925,"midi":36,"time":55.199816,"velocity":0.3937007874015748},{"duration":0.042856999999997925,"midi":48,"time":55.199816,"velocity":0.3937007874015748},{"duration":0.042856999999997925,"midi":24,"time":55.199816,"velocity":0.3937007874015748},{"duration":0.042856999999997925,"midi":36,"time":55.199816,"velocity":0.3937007874015748},{"duration":0.042856999999997925,"midi":48,"time":55.199816,"velocity":0.3937007874015748},{"duration":0.04285700000000503,"midi":36,"time":55.371244,"velocity":0.3937007874015748},{"duration":0.04285700000000503,"midi":24,"time":55.371244,"velocity":0.3937007874015748},{"duration":0.04285700000000503,"midi":48,"time":55.371244,"velocity":0.3937007874015748},{"duration":0.04285700000000503,"midi":24,"time":55.371244,"velocity":0.3937007874015748},{"duration":0.04285700000000503,"midi":48,"time":55.371244,"velocity":0.3937007874015748},{"duration":0.04285700000000503,"midi":36,"time":55.371244,"velocity":0.3937007874015748},{"duration":0.04285700000000503,"midi":39,"time":55.542671999999996,"velocity":0.3937007874015748},{"duration":0.04285700000000503,"midi":39,"time":55.542671999999996,"velocity":0.3937007874015748},{"duration":0.04285700000000503,"midi":43,"time":55.542671999999996,"velocity":0.3937007874015748},{"duration":0.04285700000000503,"midi":55,"time":55.542671999999996,"velocity":0.3937007874015748},{"duration":0.04285700000000503,"midi":43,"time":55.542671999999996,"velocity":0.3937007874015748},{"duration":0.04285700000000503,"midi":55,"time":55.542671999999996,"velocity":0.3937007874015748},{"duration":0.04285700000000503,"midi":60,"time":55.542671999999996,"velocity":0.3937007874015748},{"duration":0.04285700000000503,"midi":60,"time":55.542671999999996,"velocity":0.3937007874015748},{"duration":0.04285700000000503,"midi":63,"time":55.542671999999996,"velocity":0.3937007874015748},{"duration":0.04285700000000503,"midi":63,"time":55.542671999999996,"velocity":0.3937007874015748},{"duration":0.042856999999997925,"midi":38,"time":55.885528,"velocity":0.3937007874015748},{"duration":0.042856999999997925,"midi":41,"time":55.885528,"velocity":0.3937007874015748},{"duration":0.042856999999997925,"midi":56,"time":55.885528,"velocity":0.3937007874015748},{"duration":0.042856999999997925,"midi":56,"time":55.885528,"velocity":0.3937007874015748},{"duration":0.042856999999997925,"midi":62,"time":55.885528,"velocity":0.3937007874015748},{"duration":0.042856999999997925,"midi":53,"time":55.885528,"velocity":0.3937007874015748},{"duration":0.042856999999997925,"midi":53,"time":55.885528,"velocity":0.3937007874015748},{"duration":0.042856999999997925,"midi":62,"time":55.885528,"velocity":0.3937007874015748},{"duration":0.042856999999997925,"midi":41,"time":55.885528,"velocity":0.3937007874015748},{"duration":0.042856999999997925,"midi":38,"time":55.885528,"velocity":0.3937007874015748},{"duration":0.042856999999997925,"midi":51,"time":56.228384,"velocity":0.3937007874015748},{"duration":0.042856999999997925,"midi":36,"time":56.228384,"velocity":0.3937007874015748},{"duration":0.042856999999997925,"midi":60,"time":56.228384,"velocity":0.3937007874015748},{"duration":0.042856999999997925,"midi":60,"time":56.228384,"velocity":0.3937007874015748},{"duration":0.042856999999997925,"midi":55,"time":56.228384,"velocity":0.3937007874015748},{"duration":0.042856999999997925,"midi":51,"time":56.228384,"velocity":0.3937007874015748},{"duration":0.042856999999997925,"midi":55,"time":56.228384,"velocity":0.3937007874015748},{"duration":0.042856999999997925,"midi":39,"time":56.228384,"velocity":0.3937007874015748},{"duration":0.042856999999997925,"midi":39,"time":56.228384,"velocity":0.3937007874015748},{"duration":0.042856999999997925,"midi":36,"time":56.228384,"velocity":0.3937007874015748},{"duration":0.04285700000000503,"midi":31,"time":56.571239999999996,"velocity":0.3937007874015748},{"duration":0.04285700000000503,"midi":43,"time":56.571239999999996,"velocity":0.3937007874015748},{"duration":0.04285700000000503,"midi":43,"time":56.571239999999996,"velocity":0.3937007874015748},{"duration":0.04285700000000503,"midi":31,"time":56.571239999999996,"velocity":0.3937007874015748},{"duration":0.042856999999997925,"midi":75,"time":78.85688,"velocity":0.3937007874015748},{"duration":0.042856999999997925,"midi":68,"time":78.85688,"velocity":0.3937007874015748},{"duration":0.042856999999997925,"midi":68,"time":78.85688,"velocity":0.3937007874015748},{"duration":0.042856999999997925,"midi":75,"time":78.85688,"velocity":0.3937007874015748},{"duration":0.042856999999997925,"midi":72,"time":78.85688,"velocity":0.3937007874015748},{"duration":0.042856999999997925,"midi":72,"time":78.85688,"velocity":0.3937007874015748},{"duration":0.042857000000012135,"midi":77,"time":79.371164,"velocity":0.3937007874015748},{"duration":0.042857000000012135,"midi":77,"time":79.371164,"velocity":0.3937007874015748},{"duration":0.042856999999997925,"midi":68,"time":79.542592,"velocity":0.3937007874015748},{"duration":0.042856999999997925,"midi":68,"time":79.542592,"velocity":0.3937007874015748},{"duration":0.042856999999997925,"midi":75,"time":79.542592,"velocity":0.3937007874015748},{"duration":0.042856999999997925,"midi":72,"time":79.542592,"velocity":0.3937007874015748},{"duration":0.042856999999997925,"midi":75,"time":79.542592,"velocity":0.3937007874015748},{"duration":0.042856999999997925,"midi":72,"time":79.542592,"velocity":0.3937007874015748},{"duration":0.042856999999997925,"midi":74,"time":80.056876,"velocity":0.3937007874015748},{"duration":0.042856999999997925,"midi":74,"time":80.056876,"velocity":0.3937007874015748},{"duration":0.042856999999997925,"midi":68,"time":80.228304,"velocity":0.3937007874015748},{"duration":0.042856999999997925,"midi":68,"time":80.228304,"velocity":0.3937007874015748},{"duration":0.042856999999997925,"midi":72,"time":80.228304,"velocity":0.3937007874015748},{"duration":0.042856999999997925,"midi":72,"time":80.228304,"velocity":0.3937007874015748},{"duration":0.042857000000012135,"midi":65,"time":80.57115999999999,"velocity":0.3937007874015748},{"duration":0.042857000000012135,"midi":65,"time":80.57115999999999,"velocity":0.3937007874015748},{"duration":0.042856999999997925,"midi":67,"time":80.914016,"velocity":0.3937007874015748},{"duration":0.042856999999997925,"midi":67,"time":80.914016,"velocity":0.3937007874015748},{"duration":0.042856999999997925,"midi":71,"time":81.256872,"velocity":0.3937007874015748},{"duration":0.042856999999997925,"midi":71,"time":81.256872,"velocity":0.3937007874015748},{"duration":0.042856999999997925,"midi":71,"time":81.599728,"velocity":0.3937007874015748},{"duration":0.042856999999997925,"midi":74,"time":81.599728,"velocity":0.3937007874015748},{"duration":0.042856999999997925,"midi":71,"time":81.599728,"velocity":0.3937007874015748},{"duration":0.042856999999997925,"midi":74,"time":81.599728,"velocity":0.3937007874015748},{"duration":0.042856999999997925,"midi":72,"time":82.114012,"velocity":0.3937007874015748},{"duration":0.042856999999997925,"midi":72,"time":82.114012,"velocity":0.3937007874015748},{"duration":0.042856999999997925,"midi":71,"time":82.28544,"velocity":0.3937007874015748},{"duration":0.042856999999997925,"midi":67,"time":82.28544,"velocity":0.3937007874015748},{"duration":0.042856999999997925,"midi":67,"time":82.28544,"velocity":0.3937007874015748},{"duration":0.042856999999997925,"midi":71,"time":82.28544,"velocity":0.3937007874015748},{"duration":0.042856999999997925,"midi":72,"time":82.799724,"velocity":0.3937007874015748},{"duration":0.042856999999997925,"midi":72,"time":82.799724,"velocity":0.3937007874015748},{"duration":0.042856999999997925,"midi":67,"time":82.971152,"velocity":0.3937007874015748},{"duration":0.042856999999997925,"midi":67,"time":82.971152,"velocity":0.3937007874015748},{"duration":0.042856999999997925,"midi":74,"time":83.828292,"velocity":0.3937007874015748},{"duration":0.042856999999997925,"midi":74,"time":83.828292,"velocity":0.3937007874015748},{"duration":0.042856999999997925,"midi":75,"time":83.99972,"velocity":0.3937007874015748},{"duration":0.042856999999997925,"midi":75,"time":83.99972,"velocity":0.3937007874015748},{"duration":0.042856999999997925,"midi":77,"time":84.171148,"velocity":0.3937007874015748},{"duration":0.042856999999997925,"midi":77,"time":84.171148,"velocity":0.3937007874015748},{"duration":0.042856999999997925,"midi":79,"time":84.342576,"velocity":0.3937007874015748},{"duration":0.042856999999997925,"midi":79,"time":84.342576,"velocity":0.3937007874015748},{"duration":0.042857000000012135,"midi":77,"time":84.68543199999999,"velocity":0.3937007874015748},{"duration":0.042857000000012135,"midi":77,"time":84.68543199999999,"velocity":0.3937007874015748},{"duration":0.042856999999997925,"midi":72,"time":85.028288,"velocity":0.3937007874015748},{"duration":0.042856999999997925,"midi":72,"time":85.028288,"velocity":0.3937007874015748},{"duration":0.042856999999997925,"midi":79,"time":85.371144,"velocity":0.3937007874015748},{"duration":0.042856999999997925,"midi":79,"time":85.371144,"velocity":0.3937007874015748},{"duration":0.042856999999997925,"midi":77,"time":85.714,"velocity":0.3937007874015748},{"duration":0.042856999999997925,"midi":77,"time":85.714,"velocity":0.3937007874015748},{"duration":0.042856999999997925,"midi":72,"time":86.056856,"velocity":0.3937007874015748},{"duration":0.042856999999997925,"midi":72,"time":86.056856,"velocity":0.3937007874015748},{"duration":0.042856999999997925,"midi":75,"time":86.399712,"velocity":0.3937007874015748},{"duration":0.042856999999997925,"midi":75,"time":86.399712,"velocity":0.3937007874015748},{"duration":0.042856999999997925,"midi":74,"time":86.57114,"velocity":0.3937007874015748},{"duration":0.042856999999997925,"midi":74,"time":86.57114,"velocity":0.3937007874015748},{"duration":0.042857000000012135,"midi":72,"time":86.74256799999999,"velocity":0.3937007874015748},{"duration":0.042857000000012135,"midi":72,"time":86.74256799999999,"velocity":0.3937007874015748},{"duration":0.042856999999997925,"midi":74,"time":86.913996,"velocity":0.3937007874015748},{"duration":0.042856999999997925,"midi":74,"time":86.913996,"velocity":0.3937007874015748},{"duration":0.042856999999997925,"midi":67,"time":87.085424,"velocity":0.3937007874015748},{"duration":0.042856999999997925,"midi":72,"time":87.085424,"velocity":0.3937007874015748},{"duration":0.042856999999997925,"midi":72,"time":87.085424,"velocity":0.3937007874015748},{"duration":0.042856999999997925,"midi":67,"time":87.085424,"velocity":0.3937007874015748},{"duration":0.042856999999997925,"midi":65,"time":87.771136,"velocity":0.3937007874015748},{"duration":0.042856999999997925,"midi":71,"time":87.771136,"velocity":0.3937007874015748},{"duration":0.042856999999997925,"midi":65,"time":87.771136,"velocity":0.3937007874015748},{"duration":0.042856999999997925,"midi":71,"time":87.771136,"velocity":0.3937007874015748},{"duration":0.042856999999997925,"midi":63,"time":88.456848,"velocity":0.3937007874015748},{"duration":0.042856999999997925,"midi":67,"time":88.456848,"velocity":0.3937007874015748},{"duration":0.042856999999997925,"midi":72,"time":88.456848,"velocity":0.3937007874015748},{"duration":0.042856999999997925,"midi":72,"time":88.456848,"velocity":0.3937007874015748},{"duration":0.042856999999997925,"midi":67,"time":88.456848,"velocity":0.3937007874015748},{"duration":0.042856999999997925,"midi":63,"time":88.456848,"velocity":0.3937007874015748},{"duration":0.042856999999997925,"midi":65,"time":89.14256,"velocity":0.3937007874015748},{"duration":0.042856999999997925,"midi":68,"time":89.14256,"velocity":0.3937007874015748},{"duration":0.042856999999997925,"midi":74,"time":89.14256,"velocity":0.3937007874015748},{"duration":0.042856999999997925,"midi":65,"time":89.14256,"velocity":0.3937007874015748},{"duration":0.042856999999997925,"midi":68,"time":89.14256,"velocity":0.3937007874015748},{"duration":0.042856999999997925,"midi":74,"time":89.14256,"velocity":0.3937007874015748},{"duration":0.042857000000026346,"midi":41,"time":144.68523199999998,"velocity":0.3937007874015748},{"duration":0.042856999999997925,"midi":63,"time":145.028088,"velocity":0.3937007874015748},{"duration":0.042856999999997925,"midi":60,"time":145.028088,"velocity":0.3937007874015748},{"duration":0.042856999999997925,"midi":72,"time":145.028088,"velocity":0.3937007874015748},{"duration":0.042856999999997925,"midi":67,"time":145.028088,"velocity":0.3937007874015748},{"duration":0.042856999999997925,"midi":43,"time":145.370944,"velocity":0.3937007874015748},{"duration":0.042856999999997925,"midi":62,"time":145.370944,"velocity":0.3937007874015748},{"duration":0.042856999999997925,"midi":65,"time":145.370944,"velocity":0.3937007874015748},{"duration":0.042856999999997925,"midi":59,"time":145.370944,"velocity":0.3937007874015748},{"duration":0.042856999999997925,"midi":71,"time":145.370944,"velocity":0.3937007874015748},{"duration":0.042856999999997925,"midi":74,"time":145.7138,"velocity":0.3937007874015748},{"duration":0.042856999999997925,"midi":63,"time":146.056656,"velocity":0.3937007874015748},{"duration":0.042856999999997925,"midi":72,"time":146.056656,"velocity":0.3937007874015748},{"duration":0.042856999999997925,"midi":39,"time":146.056656,"velocity":0.3937007874015748},{"duration":0.042856999999997925,"midi":67,"time":146.056656,"velocity":0.3937007874015748},{"duration":0.042856999999997925,"midi":38,"time":146.399512,"velocity":0.3937007874015748},{"duration":0.042856999999997925,"midi":67,"time":146.57094,"velocity":0.3937007874015748},{"duration":0.042856999999997925,"midi":60,"time":146.742368,"velocity":0.3937007874015748},{"duration":0.042856999999997925,"midi":63,"time":146.742368,"velocity":0.3937007874015748},{"duration":0.042856999999997925,"midi":67,"time":146.742368,"velocity":0.3937007874015748},{"duration":0.042856999999997925,"midi":48,"time":146.742368,"velocity":0.3937007874015748},{"duration":0.042856999999997925,"midi":65,"time":147.085224,"velocity":0.3937007874015748},{"duration":0.042856999999997925,"midi":41,"time":147.42808,"velocity":0.3937007874015748},{"duration":0.042856999999997925,"midi":63,"time":147.42808,"velocity":0.3937007874015748},{"duration":0.042856999999997925,"midi":53,"time":147.42808,"velocity":0.3937007874015748},{"duration":0.042856999999997925,"midi":59,"time":148.113792,"velocity":0.3937007874015748},{"duration":0.042856999999997925,"midi":67,"time":148.113792,"velocity":0.3937007874015748},{"duration":0.042856999999997925,"midi":55,"time":148.113792,"velocity":0.3937007874015748},{"duration":0.042856999999997925,"midi":43,"time":148.113792,"velocity":0.3937007874015748},{"duration":0.042856999999997925,"midi":62,"time":148.113792,"velocity":0.3937007874015748},{"duration":0.042857000000026346,"midi":60,"time":148.79950399999998,"velocity":0.3937007874015748},{"duration":0.042857000000026346,"midi":55,"time":148.79950399999998,"velocity":0.3937007874015748},{"duration":0.042857000000026346,"midi":51,"time":148.79950399999998,"velocity":0.3937007874015748},{"duration":0.042857000000026346,"midi":48,"time":148.79950399999998,"velocity":0.3937007874015748}]},{"instrument":{"family":"drums","number":0,"name":"standard kit"},"notes":[{"duration":0.042857000000000145,"midi":36,"time":2.057136,"velocity":0.4881889763779528},{"duration":0.042857000000000145,"midi":49,"time":2.057136,"velocity":0.4881889763779528},{"duration":0.042857000000000145,"midi":57,"time":2.057136,"velocity":0.4881889763779528},{"duration":0.042857000000000145,"midi":49,"time":2.057136,"velocity":0.4881889763779528},{"duration":0.042857000000000145,"midi":55,"time":2.057136,"velocity":0.4881889763779528},{"duration":0.042857000000000145,"midi":36,"time":2.057136,"velocity":0.4881889763779528},{"duration":0.042857000000000145,"midi":35,"time":2.057136,"velocity":0.4881889763779528},{"duration":0.042857000000000145,"midi":36,"time":2.057136,"velocity":0.4881889763779528},{"duration":0.042857000000000145,"midi":57,"time":2.057136,"velocity":0.4881889763779528},{"duration":0.042857000000000145,"midi":52,"time":2.057136,"velocity":0.4881889763779528},{"duration":0.042857000000000145,"midi":35,"time":2.057136,"velocity":0.4881889763779528},{"duration":0.042857000000000145,"midi":35,"time":2.057136,"velocity":0.4881889763779528},{"duration":0.042857000000000145,"midi":35,"time":2.057136,"velocity":0.4881889763779528},{"duration":0.042857000000000145,"midi":35,"time":2.057136,"velocity":0.4881889763779528},{"duration":0.042857000000000145,"midi":52,"time":2.057136,"velocity":0.4881889763779528},{"duration":0.042857000000000145,"midi":36,"time":2.057136,"velocity":0.4881889763779528},{"duration":0.042857000000000145,"midi":36,"time":2.057136,"velocity":0.4881889763779528},{"duration":0.042857000000000145,"midi":55,"time":2.057136,"velocity":0.4881889763779528},{"duration":0.0428569999999997,"midi":36,"time":13.028528,"velocity":0.4881889763779528},{"duration":0.0428569999999997,"midi":35,"time":13.028528,"velocity":0.4881889763779528},{"duration":0.0428569999999997,"midi":52,"time":13.028528,"velocity":0.4881889763779528},{"duration":0.0428569999999997,"midi":35,"time":13.028528,"velocity":0.4881889763779528},{"duration":0.0428569999999997,"midi":36,"time":13.028528,"velocity":0.4881889763779528},{"duration":0.0428569999999997,"midi":41,"time":13.028528,"velocity":0.4881889763779528},{"duration":0.0428569999999997,"midi":36,"time":13.028528,"velocity":0.4881889763779528},{"duration":0.0428569999999997,"midi":36,"time":13.028528,"velocity":0.4881889763779528},{"duration":0.0428569999999997,"midi":35,"time":13.028528,"velocity":0.4881889763779528},{"duration":0.0428569999999997,"midi":41,"time":13.028528,"velocity":0.4881889763779528},{"duration":0.0428569999999997,"midi":43,"time":13.028528,"velocity":0.4881889763779528},{"duration":0.0428569999999997,"midi":36,"time":13.028528,"velocity":0.4881889763779528},{"duration":0.0428569999999997,"midi":36,"time":13.028528,"velocity":0.4881889763779528},{"duration":0.0428569999999997,"midi":43,"time":13.028528,"velocity":0.4881889763779528},{"duration":0.0428569999999997,"midi":55,"time":13.028528,"velocity":0.4881889763779528},{"duration":0.0428569999999997,"midi":35,"time":13.028528,"velocity":0.4881889763779528},{"duration":0.0428569999999997,"midi":49,"time":13.028528,"velocity":0.4881889763779528},{"duration":0.0428569999999997,"midi":36,"time":13.028528,"velocity":0.4881889763779528},{"duration":0.0428569999999997,"midi":35,"time":13.028528,"velocity":0.4881889763779528},{"duration":0.0428569999999997,"midi":49,"time":13.028528,"velocity":0.4881889763779528},{"duration":0.0428569999999997,"midi":36,"time":13.028528,"velocity":0.4881889763779528},{"duration":0.0428569999999997,"midi":43,"time":13.028528,"velocity":0.4881889763779528},{"duration":0.0428569999999997,"midi":35,"time":13.028528,"velocity":0.4881889763779528},{"duration":0.0428569999999997,"midi":41,"time":13.028528,"velocity":0.4881889763779528},{"duration":0.0428569999999997,"midi":43,"time":13.028528,"velocity":0.4881889763779528},{"duration":0.0428569999999997,"midi":57,"time":13.028528,"velocity":0.4881889763779528},{"duration":0.0428569999999997,"midi":55,"time":13.028528,"velocity":0.4881889763779528},{"duration":0.0428569999999997,"midi":41,"time":13.028528,"velocity":0.4881889763779528},{"duration":0.0428569999999997,"midi":35,"time":13.028528,"velocity":0.4881889763779528},{"duration":0.0428569999999997,"midi":36,"time":13.028528,"velocity":0.4881889763779528},{"duration":0.0428569999999997,"midi":35,"time":13.028528,"velocity":0.4881889763779528},{"duration":0.0428569999999997,"midi":41,"time":13.028528,"velocity":0.4881889763779528},{"duration":0.0428569999999997,"midi":43,"time":13.028528,"velocity":0.4881889763779528},{"duration":0.0428569999999997,"midi":36,"time":13.028528,"velocity":0.4881889763779528},{"duration":0.0428569999999997,"midi":35,"time":13.028528,"velocity":0.4881889763779528},{"duration":0.0428569999999997,"midi":35,"time":13.028528,"velocity":0.4881889763779528},{"duration":0.0428569999999997,"midi":40,"time":13.71424,"velocity":0.4881889763779528},{"duration":0.0428569999999997,"midi":38,"time":13.71424,"velocity":0.4881889763779528},{"duration":0.0428569999999997,"midi":38,"time":13.71424,"velocity":0.4881889763779528},{"duration":0.0428569999999997,"midi":40,"time":13.71424,"velocity":0.4881889763779528},{"duration":0.0428569999999997,"midi":38,"time":13.71424,"velocity":0.4881889763779528},{"duration":0.0428569999999997,"midi":40,"time":13.71424,"velocity":0.4881889763779528},{"duration":0.0428569999999997,"midi":40,"time":13.71424,"velocity":0.4881889763779528},{"duration":0.0428569999999997,"midi":38,"time":13.71424,"velocity":0.4881889763779528},{"duration":0.0428569999999997,"midi":38,"time":13.71424,"velocity":0.4881889763779528},{"duration":0.0428569999999997,"midi":40,"time":13.71424,"velocity":0.4881889763779528},{"duration":0.0428569999999997,"midi":40,"time":13.71424,"velocity":0.4881889763779528},{"duration":0.0428569999999997,"midi":38,"time":13.71424,"velocity":0.4881889763779528},{"duration":0.0428569999999997,"midi":36,"time":14.57138,"velocity":0.4881889763779528},{"duration":0.0428569999999997,"midi":35,"time":14.57138,"velocity":0.4881889763779528},{"duration":0.0428569999999997,"midi":35,"time":14.57138,"velocity":0.4881889763779528},{"duration":0.0428569999999997,"midi":41,"time":14.57138,"velocity":0.4881889763779528},{"duration":0.0428569999999997,"midi":35,"time":14.57138,"velocity":0.4881889763779528},{"duration":0.0428569999999997,"midi":35,"time":14.57138,"velocity":0.4881889763779528},{"duration":0.0428569999999997,"midi":36,"time":14.57138,"velocity":0.4881889763779528},{"duration":0.0428569999999997,"midi":36,"time":14.57138,"velocity":0.4881889763779528},{"duration":0.0428569999999997,"midi":41,"time":14.57138,"velocity":0.4881889763779528},{"duration":0.0428569999999997,"midi":36,"time":14.57138,"velocity":0.4881889763779528},{"duration":0.0428569999999997,"midi":36,"time":14.57138,"velocity":0.4881889763779528},{"duration":0.0428569999999997,"midi":43,"time":14.57138,"velocity":0.4881889763779528},{"duration":0.0428569999999997,"midi":35,"time":14.57138,"velocity":0.4881889763779528},{"duration":0.0428569999999997,"midi":35,"time":14.57138,"velocity":0.4881889763779528},{"duration":0.0428569999999997,"midi":41,"time":14.57138,"velocity":0.4881889763779528},{"duration":0.0428569999999997,"midi":43,"time":14.57138,"velocity":0.4881889763779528},{"duration":0.0428569999999997,"midi":41,"time":14.57138,"velocity":0.4881889763779528},{"duration":0.0428569999999997,"midi":35,"time":14.57138,"velocity":0.4881889763779528},{"duration":0.0428569999999997,"midi":43,"time":14.57138,"velocity":0.4881889763779528},{"duration":0.0428569999999997,"midi":36,"time":14.57138,"velocity":0.4881889763779528},{"duration":0.0428569999999997,"midi":36,"time":14.57138,"velocity":0.4881889763779528},{"duration":0.0428569999999997,"midi":43,"time":14.57138,"velocity":0.4881889763779528},{"duration":0.0428569999999997,"midi":35,"time":14.57138,"velocity":0.4881889763779528},{"duration":0.0428569999999997,"midi":43,"time":14.57138,"velocity":0.4881889763779528},{"duration":0.0428569999999997,"midi":35,"time":14.57138,"velocity":0.4881889763779528},{"duration":0.0428569999999997,"midi":35,"time":14.57138,"velocity":0.4881889763779528},{"duration":0.0428569999999997,"midi":36,"time":14.57138,"velocity":0.4881889763779528},{"duration":0.0428569999999997,"midi":41,"time":14.57138,"velocity":0.4881889763779528},{"duration":0.0428569999999997,"midi":36,"time":14.57138,"velocity":0.4881889763779528},{"duration":0.0428569999999997,"midi":36,"time":14.57138,"velocity":0.4881889763779528},{"duration":0.0428569999999997,"midi":36,"time":14.742808,"velocity":0.4881889763779528},{"duration":0.0428569999999997,"midi":35,"time":14.742808,"velocity":0.4881889763779528},{"duration":0.0428569999999997,"midi":36,"time":14.742808,"velocity":0.4881889763779528},{"duration":0.0428569999999997,"midi":36,"time":14.742808,"velocity":0.4881889763779528},{"duration":0.0428569999999997,"midi":36,"time":14.742808,"velocity":0.4881889763779528},{"duration":0.0428569999999997,"midi":35,"time":14.742808,"velocity":0.4881889763779528},{"duration":0.0428569999999997,"midi":41,"time":14.742808,"velocity":0.4881889763779528},{"duration":0.0428569999999997,"midi":35,"time":14.742808,"velocity":0.4881889763779528},{"duration":0.0428569999999997,"midi":35,"time":14.742808,"velocity":0.4881889763779528},{"duration":0.0428569999999997,"midi":41,"time":14.742808,"velocity":0.4881889763779528},{"duration":0.0428569999999997,"midi":43,"time":14.742808,"velocity":0.4881889763779528},{"duration":0.0428569999999997,"midi":35,"time":14.742808,"velocity":0.4881889763779528},{"duration":0.0428569999999997,"midi":35,"time":14.742808,"velocity":0.4881889763779528},{"duration":0.0428569999999997,"midi":43,"time":14.742808,"velocity":0.4881889763779528},{"duration":0.0428569999999997,"midi":36,"time":14.742808,"velocity":0.4881889763779528},{"duration":0.0428569999999997,"midi":35,"time":14.742808,"velocity":0.4881889763779528},{"duration":0.0428569999999997,"midi":35,"time":14.742808,"velocity":0.4881889763779528},{"duration":0.0428569999999997,"midi":41,"time":14.742808,"velocity":0.4881889763779528},{"duration":0.0428569999999997,"midi":36,"time":14.742808,"velocity":0.4881889763779528},{"duration":0.0428569999999997,"midi":43,"time":14.742808,"velocity":0.4881889763779528},{"duration":0.0428569999999997,"midi":36,"time":14.742808,"velocity":0.4881889763779528},{"duration":0.0428569999999997,"midi":43,"time":14.742808,"velocity":0.4881889763779528},{"duration":0.0428569999999997,"midi":35,"time":14.742808,"velocity":0.4881889763779528},{"duration":0.0428569999999997,"midi":43,"time":14.742808,"velocity":0.4881889763779528},{"duration":0.0428569999999997,"midi":36,"time":14.742808,"velocity":0.4881889763779528},{"duration":0.0428569999999997,"midi":41,"time":14.742808,"velocity":0.4881889763779528},{"duration":0.0428569999999997,"midi":41,"time":14.742808,"velocity":0.4881889763779528},{"duration":0.0428569999999997,"midi":36,"time":14.742808,"velocity":0.4881889763779528},{"duration":0.0428569999999997,"midi":36,"time":14.742808,"velocity":0.4881889763779528},{"duration":0.0428569999999997,"midi":35,"time":14.742808,"velocity":0.4881889763779528},{"duration":0.0428569999999997,"midi":40,"time":15.085664,"velocity":0.4881889763779528},{"duration":0.0428569999999997,"midi":38,"time":15.085664,"velocity":0.4881889763779528},{"duration":0.0428569999999997,"midi":38,"time":15.085664,"velocity":0.4881889763779528},{"duration":0.0428569999999997,"midi":38,"time":15.085664,"velocity":0.4881889763779528},{"duration":0.0428569999999997,"midi":40,"time":15.085664,"velocity":0.4881889763779528},{"duration":0.0428569999999997,"midi":40,"time":15.085664,"velocity":0.4881889763779528},{"duration":0.0428569999999997,"midi":38,"time":15.085664,"velocity":0.4881889763779528},{"duration":0.0428569999999997,"midi":38,"time":15.085664,"velocity":0.4881889763779528},{"duration":0.0428569999999997,"midi":40,"time":15.085664,"velocity":0.4881889763779528},{"duration":0.0428569999999997,"midi":40,"time":15.085664,"velocity":0.4881889763779528},{"duration":0.0428569999999997,"midi":38,"time":15.085664,"velocity":0.4881889763779528},{"duration":0.0428569999999997,"midi":40,"time":15.085664,"velocity":0.4881889763779528},{"duration":0.0428569999999997,"midi":43,"time":15.771376,"velocity":0.4881889763779528},{"duration":0.0428569999999997,"midi":41,"time":15.771376,"velocity":0.4881889763779528},{"duration":0.0428569999999997,"midi":36,"time":15.771376,"velocity":0.4881889763779528},{"duration":0.0428569999999997,"midi":36,"time":15.771376,"velocity":0.4881889763779528},{"duration":0.0428569999999997,"midi":36,"time":15.771376,"velocity":0.4881889763779528},{"duration":0.0428569999999997,"midi":36,"time":15.771376,"velocity":0.4881889763779528},{"duration":0.0428569999999997,"midi":36,"time":15.771376,"velocity":0.4881889763779528},{"duration":0.0428569999999997,"midi":36,"time":15.771376,"velocity":0.4881889763779528},{"duration":0.0428569999999997,"midi":41,"time":15.771376,"velocity":0.4881889763779528},{"duration":0.0428569999999997,"midi":43,"time":15.771376,"velocity":0.4881889763779528},{"duration":0.0428569999999997,"midi":35,"time":15.771376,"velocity":0.4881889763779528},{"duration":0.0428569999999997,"midi":36,"time":15.771376,"velocity":0.4881889763779528},{"duration":0.0428569999999997,"midi":41,"time":15.771376,"velocity":0.4881889763779528},{"duration":0.0428569999999997,"midi":43,"time":15.771376,"velocity":0.4881889763779528},{"duration":0.0428569999999997,"midi":35,"time":15.771376,"velocity":0.4881889763779528},{"duration":0.0428569999999997,"midi":43,"time":15.771376,"velocity":0.4881889763779528},{"duration":0.0428569999999997,"midi":43,"time":15.771376,"velocity":0.4881889763779528},{"duration":0.0428569999999997,"midi":35,"time":15.771376,"velocity":0.4881889763779528},{"duration":0.0428569999999997,"midi":35,"time":15.771376,"velocity":0.4881889763779528},{"duration":0.0428569999999997,"midi":35,"time":15.771376,"velocity":0.4881889763779528},{"duration":0.0428569999999997,"midi":41,"time":15.771376,"velocity":0.4881889763779528},{"duration":0.0428569999999997,"midi":36,"time":15.771376,"velocity":0.4881889763779528},{"duration":0.0428569999999997,"midi":35,"time":15.771376,"velocity":0.4881889763779528},{"duration":0.0428569999999997,"midi":35,"time":15.771376,"velocity":0.4881889763779528},{"duration":0.0428569999999997,"midi":36,"time":15.771376,"velocity":0.4881889763779528},{"duration":0.0428569999999997,"midi":35,"time":15.771376,"velocity":0.4881889763779528},{"duration":0.0428569999999997,"midi":35,"time":15.771376,"velocity":0.4881889763779528},{"duration":0.0428569999999997,"midi":35,"time":15.771376,"velocity":0.4881889763779528},{"duration":0.0428569999999997,"midi":41,"time":15.771376,"velocity":0.4881889763779528},{"duration":0.0428569999999997,"midi":36,"time":15.771376,"velocity":0.4881889763779528},{"duration":0.04285700000000148,"midi":38,"time":16.457088,"velocity":0.4881889763779528},{"duration":0.04285700000000148,"midi":38,"time":16.457088,"velocity":0.4881889763779528},{"duration":0.04285700000000148,"midi":40,"time":16.457088,"velocity":0.4881889763779528},{"duration":0.04285700000000148,"midi":40,"time":16.457088,"velocity":0.4881889763779528},{"duration":0.04285700000000148,"midi":40,"time":16.457088,"velocity":0.4881889763779528},{"duration":0.04285700000000148,"midi":38,"time":16.457088,"velocity":0.4881889763779528},{"duration":0.04285700000000148,"midi":38,"time":16.457088,"velocity":0.4881889763779528},{"duration":0.04285700000000148,"midi":38,"time":16.457088,"velocity":0.4881889763779528},{"duration":0.04285700000000148,"midi":38,"time":16.457088,"velocity":0.4881889763779528},{"duration":0.04285700000000148,"midi":40,"time":16.457088,"velocity":0.4881889763779528},{"duration":0.04285700000000148,"midi":40,"time":16.457088,"velocity":0.4881889763779528},{"duration":0.04285700000000148,"midi":40,"time":16.457088,"velocity":0.4881889763779528},{"duration":0.04285700000000148,"midi":43,"time":17.314228,"velocity":0.4881889763779528},{"duration":0.04285700000000148,"midi":43,"time":17.314228,"velocity":0.4881889763779528},{"duration":0.04285700000000148,"midi":35,"time":17.314228,"velocity":0.4881889763779528},{"duration":0.04285700000000148,"midi":35,"time":17.314228,"velocity":0.4881889763779528},{"duration":0.04285700000000148,"midi":43,"time":17.314228,"velocity":0.4881889763779528},{"duration":0.04285700000000148,"midi":36,"time":17.314228,"velocity":0.4881889763779528},{"duration":0.04285700000000148,"midi":43,"time":17.314228,"velocity":0.4881889763779528},{"duration":0.04285700000000148,"midi":36,"time":17.314228,"velocity":0.4881889763779528},{"duration":0.04285700000000148,"midi":36,"time":17.314228,"velocity":0.4881889763779528},{"duration":0.04285700000000148,"midi":43,"time":17.314228,"velocity":0.4881889763779528},{"duration":0.04285700000000148,"midi":35,"time":17.314228,"velocity":0.4881889763779528},{"duration":0.04285700000000148,"midi":41,"time":17.314228,"velocity":0.4881889763779528},{"duration":0.04285700000000148,"midi":35,"time":17.314228,"velocity":0.4881889763779528},{"duration":0.04285700000000148,"midi":35,"time":17.314228,"velocity":0.4881889763779528},{"duration":0.04285700000000148,"midi":36,"time":17.314228,"velocity":0.4881889763779528},{"duration":0.04285700000000148,"midi":41,"time":17.314228,"velocity":0.4881889763779528},{"duration":0.04285700000000148,"midi":36,"time":17.314228,"velocity":0.4881889763779528},{"duration":0.04285700000000148,"midi":36,"time":17.314228,"velocity":0.4881889763779528},{"duration":0.04285700000000148,"midi":41,"time":17.314228,"velocity":0.4881889763779528},{"duration":0.04285700000000148,"midi":35,"time":17.314228,"velocity":0.4881889763779528},{"duration":0.04285700000000148,"midi":41,"time":17.314228,"velocity":0.4881889763779528},{"duration":0.04285700000000148,"midi":36,"time":17.314228,"velocity":0.4881889763779528},{"duration":0.04285700000000148,"midi":35,"time":17.314228,"velocity":0.4881889763779528},{"duration":0.04285700000000148,"midi":36,"time":17.314228,"velocity":0.4881889763779528},{"duration":0.04285700000000148,"midi":36,"time":17.314228,"velocity":0.4881889763779528},{"duration":0.04285700000000148,"midi":36,"time":17.314228,"velocity":0.4881889763779528},{"duration":0.04285700000000148,"midi":35,"time":17.314228,"velocity":0.4881889763779528},{"duration":0.04285700000000148,"midi":35,"time":17.314228,"velocity":0.4881889763779528},{"duration":0.04285700000000148,"midi":41,"time":17.314228,"velocity":0.4881889763779528},{"duration":0.04285700000000148,"midi":35,"time":17.314228,"velocity":0.4881889763779528},{"duration":0.04285700000000148,"midi":35,"time":17.485656,"velocity":0.4881889763779528},{"duration":0.04285700000000148,"midi":36,"time":17.485656,"velocity":0.4881889763779528},{"duration":0.04285700000000148,"midi":35,"time":17.485656,"velocity":0.4881889763779528},{"duration":0.04285700000000148,"midi":35,"time":17.485656,"velocity":0.4881889763779528},{"duration":0.04285700000000148,"midi":35,"time":17.485656,"velocity":0.4881889763779528},{"duration":0.04285700000000148,"midi":43,"time":17.485656,"velocity":0.4881889763779528},{"duration":0.04285700000000148,"midi":43,"time":17.485656,"velocity":0.4881889763779528},{"duration":0.04285700000000148,"midi":36,"time":17.485656,"velocity":0.4881889763779528},{"duration":0.04285700000000148,"midi":43,"time":17.485656,"velocity":0.4881889763779528},{"duration":0.04285700000000148,"midi":36,"time":17.485656,"velocity":0.4881889763779528},{"duration":0.04285700000000148,"midi":36,"time":17.485656,"velocity":0.4881889763779528},{"duration":0.04285700000000148,"midi":35,"time":17.485656,"velocity":0.4881889763779528},{"duration":0.04285700000000148,"midi":36,"time":17.485656,"velocity":0.4881889763779528},{"duration":0.04285700000000148,"midi":36,"time":17.485656,"velocity":0.4881889763779528},{"duration":0.04285700000000148,"midi":43,"time":17.485656,"velocity":0.4881889763779528},{"duration":0.04285700000000148,"midi":35,"time":17.485656,"velocity":0.4881889763779528},{"duration":0.04285700000000148,"midi":41,"time":17.485656,"velocity":0.4881889763779528},{"duration":0.04285700000000148,"midi":41,"time":17.485656,"velocity":0.4881889763779528},{"duration":0.04285700000000148,"midi":41,"time":17.485656,"velocity":0.4881889763779528},{"duration":0.04285700000000148,"midi":35,"time":17.485656,"velocity":0.4881889763779528},{"duration":0.04285700000000148,"midi":36,"time":17.485656,"velocity":0.4881889763779528},{"duration":0.04285700000000148,"midi":35,"time":17.485656,"velocity":0.4881889763779528},{"duration":0.04285700000000148,"midi":41,"time":17.485656,"velocity":0.4881889763779528},{"duration":0.04285700000000148,"midi":41,"time":17.485656,"velocity":0.4881889763779528},{"duration":0.04285700000000148,"midi":36,"time":17.485656,"velocity":0.4881889763779528},{"duration":0.04285700000000148,"midi":43,"time":17.485656,"velocity":0.4881889763779528},{"duration":0.04285700000000148,"midi":35,"time":17.485656,"velocity":0.4881889763779528},{"duration":0.04285700000000148,"midi":36,"time":17.485656,"velocity":0.4881889763779528},{"duration":0.04285700000000148,"midi":36,"time":17.485656,"velocity":0.4881889763779528},{"duration":0.04285700000000148,"midi":35,"time":17.485656,"velocity":0.4881889763779528},{"duration":0.04285700000000148,"midi":38,"time":17.828512,"velocity":0.4881889763779528},{"duration":0.04285700000000148,"midi":40,"time":17.828512,"velocity":0.4881889763779528},{"duration":0.04285700000000148,"midi":38,"time":17.828512,"velocity":0.4881889763779528},{"duration":0.04285700000000148,"midi":40,"time":17.828512,"velocity":0.4881889763779528},{"duration":0.04285700000000148,"midi":40,"time":17.828512,"velocity":0.4881889763779528},{"duration":0.04285700000000148,"midi":38,"time":17.828512,"velocity":0.4881889763779528},{"duration":0.04285700000000148,"midi":38,"time":17.828512,"velocity":0.4881889763779528},{"duration":0.04285700000000148,"midi":40,"time":17.828512,"velocity":0.4881889763779528},{"duration":0.04285700000000148,"midi":38,"time":17.828512,"velocity":0.4881889763779528},{"duration":0.04285700000000148,"midi":38,"time":17.828512,"velocity":0.4881889763779528},{"duration":0.04285700000000148,"midi":40,"time":17.828512,"velocity":0.4881889763779528},{"duration":0.04285700000000148,"midi":40,"time":17.828512,"velocity":0.4881889763779528},{"duration":0.04285700000000148,"midi":36,"time":18.514224,"velocity":0.4881889763779528},{"duration":0.04285700000000148,"midi":41,"time":18.514224,"velocity":0.4881889763779528},{"duration":0.04285700000000148,"midi":35,"time":18.514224,"velocity":0.4881889763779528},{"duration":0.04285700000000148,"midi":36,"time":18.514224,"velocity":0.4881889763779528},{"duration":0.04285700000000148,"midi":35,"time":18.514224,"velocity":0.4881889763779528},{"duration":0.04285700000000148,"midi":36,"time":18.514224,"velocity":0.4881889763779528},{"duration":0.04285700000000148,"midi":36,"time":18.514224,"velocity":0.4881889763779528},{"duration":0.04285700000000148,"midi":36,"time":18.514224,"velocity":0.4881889763779528},{"duration":0.04285700000000148,"midi":43,"time":18.514224,"velocity":0.4881889763779528},{"duration":0.04285700000000148,"midi":35,"time":18.514224,"velocity":0.4881889763779528},{"duration":0.04285700000000148,"midi":41,"time":18.514224,"velocity":0.4881889763779528},{"duration":0.04285700000000148,"midi":43,"time":18.514224,"velocity":0.4881889763779528},{"duration":0.04285700000000148,"midi":35,"time":18.514224,"velocity":0.4881889763779528},{"duration":0.04285700000000148,"midi":43,"time":18.514224,"velocity":0.4881889763779528},{"duration":0.04285700000000148,"midi":43,"time":18.514224,"velocity":0.4881889763779528},{"duration":0.04285700000000148,"midi":36,"time":18.514224,"velocity":0.4881889763779528},{"duration":0.04285700000000148,"midi":35,"time":18.514224,"velocity":0.4881889763779528},{"duration":0.04285700000000148,"midi":36,"time":18.514224,"velocity":0.4881889763779528},{"duration":0.04285700000000148,"midi":41,"time":18.514224,"velocity":0.4881889763779528},{"duration":0.04285700000000148,"midi":36,"time":18.514224,"velocity":0.4881889763779528},{"duration":0.04285700000000148,"midi":43,"time":18.514224,"velocity":0.4881889763779528},{"duration":0.04285700000000148,"midi":35,"time":18.514224,"velocity":0.4881889763779528},{"duration":0.04285700000000148,"midi":36,"time":18.514224,"velocity":0.4881889763779528},{"duration":0.04285700000000148,"midi":35,"time":18.514224,"velocity":0.4881889763779528},{"duration":0.04285700000000148,"midi":35,"time":18.514224,"velocity":0.4881889763779528},{"duration":0.04285700000000148,"midi":36,"time":18.514224,"velocity":0.4881889763779528},{"duration":0.04285700000000148,"midi":41,"time":18.514224,"velocity":0.4881889763779528},{"duration":0.04285700000000148,"midi":41,"time":18.514224,"velocity":0.4881889763779528},{"duration":0.04285700000000148,"midi":35,"time":18.514224,"velocity":0.4881889763779528},{"duration":0.04285700000000148,"midi":35,"time":18.514224,"velocity":0.4881889763779528},{"duration":0.042856999999997925,"midi":38,"time":19.199936,"velocity":0.4881889763779528},{"duration":0.042856999999997925,"midi":40,"time":19.199936,"velocity":0.4881889763779528},{"duration":0.042856999999997925,"midi":38,"time":19.199936,"velocity":0.4881889763779528},{"duration":0.042856999999997925,"midi":40,"time":19.199936,"velocity":0.4881889763779528},{"duration":0.042856999999997925,"midi":38,"time":19.199936,"velocity":0.4881889763779528},{"duration":0.042856999999997925,"midi":40,"time":19.199936,"velocity":0.4881889763779528},{"duration":0.042856999999997925,"midi":40,"time":19.199936,"velocity":0.4881889763779528},{"duration":0.042856999999997925,"midi":40,"time":19.199936,"velocity":0.4881889763779528},{"duration":0.042856999999997925,"midi":38,"time":19.199936,"velocity":0.4881889763779528},{"duration":0.042856999999997925,"midi":40,"time":19.199936,"velocity":0.4881889763779528},{"duration":0.042856999999997925,"midi":38,"time":19.199936,"velocity":0.4881889763779528},{"duration":0.042856999999997925,"midi":38,"time":19.199936,"velocity":0.4881889763779528},{"duration":0.04285700000000148,"midi":41,"time":20.057076,"velocity":0.4881889763779528},{"duration":0.04285700000000148,"midi":36,"time":20.057076,"velocity":0.4881889763779528},{"duration":0.04285700000000148,"midi":36,"time":20.057076,"velocity":0.4881889763779528},{"duration":0.04285700000000148,"midi":35,"time":20.057076,"velocity":0.4881889763779528},{"duration":0.04285700000000148,"midi":36,"time":20.057076,"velocity":0.4881889763779528},{"duration":0.04285700000000148,"midi":43,"time":20.057076,"velocity":0.4881889763779528},{"duration":0.04285700000000148,"midi":36,"time":20.057076,"velocity":0.4881889763779528},{"duration":0.04285700000000148,"midi":35,"time":20.057076,"velocity":0.4881889763779528},{"duration":0.04285700000000148,"midi":43,"time":20.057076,"velocity":0.4881889763779528},{"duration":0.04285700000000148,"midi":36,"time":20.057076,"velocity":0.4881889763779528},{"duration":0.04285700000000148,"midi":43,"time":20.057076,"velocity":0.4881889763779528},{"duration":0.04285700000000148,"midi":35,"time":20.057076,"velocity":0.4881889763779528},{"duration":0.04285700000000148,"midi":35,"time":20.057076,"velocity":0.4881889763779528},{"duration":0.04285700000000148,"midi":41,"time":20.057076,"velocity":0.4881889763779528},{"duration":0.04285700000000148,"midi":35,"time":20.057076,"velocity":0.4881889763779528},{"duration":0.04285700000000148,"midi":36,"time":20.057076,"velocity":0.4881889763779528},{"duration":0.04285700000000148,"midi":43,"time":20.057076,"velocity":0.4881889763779528},{"duration":0.04285700000000148,"midi":35,"time":20.057076,"velocity":0.4881889763779528},{"duration":0.04285700000000148,"midi":35,"time":20.057076,"velocity":0.4881889763779528},{"duration":0.04285700000000148,"midi":41,"time":20.057076,"velocity":0.4881889763779528},{"duration":0.04285700000000148,"midi":36,"time":20.057076,"velocity":0.4881889763779528},{"duration":0.04285700000000148,"midi":36,"time":20.057076,"velocity":0.4881889763779528},{"duration":0.04285700000000148,"midi":43,"time":20.057076,"velocity":0.4881889763779528},{"duration":0.04285700000000148,"midi":36,"time":20.057076,"velocity":0.4881889763779528},{"duration":0.04285700000000148,"midi":41,"time":20.057076,"velocity":0.4881889763779528},{"duration":0.04285700000000148,"midi":36,"time":20.057076,"velocity":0.4881889763779528},{"duration":0.04285700000000148,"midi":35,"time":20.057076,"velocity":0.4881889763779528},{"duration":0.04285700000000148,"midi":35,"time":20.057076,"velocity":0.4881889763779528},{"duration":0.04285700000000148,"midi":35,"time":20.057076,"velocity":0.4881889763779528},{"duration":0.04285700000000148,"midi":41,"time":20.057076,"velocity":0.4881889763779528},{"duration":0.042856999999997925,"midi":35,"time":20.228504,"velocity":0.4881889763779528},{"duration":0.042856999999997925,"midi":35,"time":20.228504,"velocity":0.4881889763779528},{"duration":0.042856999999997925,"midi":35,"time":20.228504,"velocity":0.4881889763779528},{"duration":0.042856999999997925,"midi":35,"time":20.228504,"velocity":0.4881889763779528},{"duration":0.042856999999997925,"midi":36,"time":20.228504,"velocity":0.4881889763779528},{"duration":0.042856999999997925,"midi":43,"time":20.228504,"velocity":0.4881889763779528},{"duration":0.042856999999997925,"midi":41,"time":20.228504,"velocity":0.4881889763779528},{"duration":0.042856999999997925,"midi":36,"time":20.228504,"velocity":0.4881889763779528},{"duration":0.042856999999997925,"midi":35,"time":20.228504,"velocity":0.4881889763779528},{"duration":0.042856999999997925,"midi":41,"time":20.228504,"velocity":0.4881889763779528},{"duration":0.042856999999997925,"midi":35,"time":20.228504,"velocity":0.4881889763779528},{"duration":0.042856999999997925,"midi":43,"time":20.228504,"velocity":0.4881889763779528},{"duration":0.042856999999997925,"midi":35,"time":20.228504,"velocity":0.4881889763779528},{"duration":0.042856999999997925,"midi":36,"time":20.228504,"velocity":0.4881889763779528},{"duration":0.042856999999997925,"midi":43,"time":20.228504,"velocity":0.4881889763779528},{"duration":0.042856999999997925,"midi":41,"time":20.228504,"velocity":0.4881889763779528},{"duration":0.042856999999997925,"midi":36,"time":20.228504,"velocity":0.4881889763779528},{"duration":0.042856999999997925,"midi":36,"time":20.228504,"velocity":0.4881889763779528},{"duration":0.042856999999997925,"midi":43,"time":20.228504,"velocity":0.4881889763779528},{"duration":0.042856999999997925,"midi":35,"time":20.228504,"velocity":0.4881889763779528},{"duration":0.042856999999997925,"midi":43,"time":20.228504,"velocity":0.4881889763779528},{"duration":0.042856999999997925,"midi":36,"time":20.228504,"velocity":0.4881889763779528},{"duration":0.042856999999997925,"midi":35,"time":20.228504,"velocity":0.4881889763779528},{"duration":0.042856999999997925,"midi":36,"time":20.228504,"velocity":0.4881889763779528},{"duration":0.042856999999997925,"midi":41,"time":20.228504,"velocity":0.4881889763779528},{"duration":0.042856999999997925,"midi":36,"time":20.228504,"velocity":0.4881889763779528},{"duration":0.042856999999997925,"midi":35,"time":20.228504,"velocity":0.4881889763779528},{"duration":0.042856999999997925,"midi":41,"time":20.228504,"velocity":0.4881889763779528},{"duration":0.042856999999997925,"midi":36,"time":20.228504,"velocity":0.4881889763779528},{"duration":0.042856999999997925,"midi":36,"time":20.228504,"velocity":0.4881889763779528},{"duration":0.04285700000000148,"midi":40,"time":20.57136,"velocity":0.4881889763779528},{"duration":0.04285700000000148,"midi":38,"time":20.57136,"velocity":0.4881889763779528},{"duration":0.04285700000000148,"midi":40,"time":20.57136,"velocity":0.4881889763779528},{"duration":0.04285700000000148,"midi":38,"time":20.57136,"velocity":0.4881889763779528},{"duration":0.04285700000000148,"midi":38,"time":20.57136,"velocity":0.4881889763779528},{"duration":0.04285700000000148,"midi":38,"time":20.57136,"velocity":0.4881889763779528},{"duration":0.04285700000000148,"midi":40,"time":20.57136,"velocity":0.4881889763779528},{"duration":0.04285700000000148,"midi":40,"time":20.57136,"velocity":0.4881889763779528},{"duration":0.04285700000000148,"midi":40,"time":20.57136,"velocity":0.4881889763779528},{"duration":0.04285700000000148,"midi":38,"time":20.57136,"velocity":0.4881889763779528},{"duration":0.04285700000000148,"midi":40,"time":20.57136,"velocity":0.4881889763779528},{"duration":0.04285700000000148,"midi":38,"time":20.57136,"velocity":0.4881889763779528},{"duration":0.042856999999997925,"midi":35,"time":21.257072,"velocity":0.4881889763779528},{"duration":0.042856999999997925,"midi":41,"time":21.257072,"velocity":0.4881889763779528},{"duration":0.042856999999997925,"midi":35,"time":21.257072,"velocity":0.4881889763779528},{"duration":0.042856999999997925,"midi":36,"time":21.257072,"velocity":0.4881889763779528},{"duration":0.042856999999997925,"midi":36,"time":21.257072,"velocity":0.4881889763779528},{"duration":0.042856999999997925,"midi":35,"time":21.257072,"velocity":0.4881889763779528},{"duration":0.042856999999997925,"midi":36,"time":21.257072,"velocity":0.4881889763779528},{"duration":0.042856999999997925,"midi":35,"time":21.257072,"velocity":0.4881889763779528},{"duration":0.042856999999997925,"midi":36,"time":21.257072,"velocity":0.4881889763779528},{"duration":0.042856999999997925,"midi":43,"time":21.257072,"velocity":0.4881889763779528},{"duration":0.042856999999997925,"midi":36,"time":21.257072,"velocity":0.4881889763779528},{"duration":0.042856999999997925,"midi":43,"time":21.257072,"velocity":0.4881889763779528},{"duration":0.042856999999997925,"midi":35,"time":21.257072,"velocity":0.4881889763779528},{"duration":0.042856999999997925,"midi":41,"time":21.257072,"velocity":0.4881889763779528},{"duration":0.042856999999997925,"midi":43,"time":21.257072,"velocity":0.4881889763779528},{"duration":0.042856999999997925,"midi":35,"time":21.257072,"velocity":0.4881889763779528},{"duration":0.042856999999997925,"midi":41,"time":21.257072,"velocity":0.4881889763779528},{"duration":0.042856999999997925,"midi":35,"time":21.257072,"velocity":0.4881889763779528},{"duration":0.042856999999997925,"midi":35,"time":21.257072,"velocity":0.4881889763779528},{"duration":0.042856999999997925,"midi":36,"time":21.257072,"velocity":0.4881889763779528},{"duration":0.042856999999997925,"midi":36,"time":21.257072,"velocity":0.4881889763779528},{"duration":0.042856999999997925,"midi":35,"time":21.257072,"velocity":0.4881889763779528},{"duration":0.042856999999997925,"midi":36,"time":21.257072,"velocity":0.4881889763779528},{"duration":0.042856999999997925,"midi":43,"time":21.257072,"velocity":0.4881889763779528},{"duration":0.042856999999997925,"midi":35,"time":21.257072,"velocity":0.4881889763779528},{"duration":0.042856999999997925,"midi":41,"time":21.257072,"velocity":0.4881889763779528},{"duration":0.042856999999997925,"midi":36,"time":21.257072,"velocity":0.4881889763779528},{"duration":0.042856999999997925,"midi":43,"time":21.257072,"velocity":0.4881889763779528},{"duration":0.042856999999997925,"midi":41,"time":21.257072,"velocity":0.4881889763779528},{"duration":0.042856999999997925,"midi":36,"time":21.257072,"velocity":0.4881889763779528},{"duration":0.04285700000000148,"midi":40,"time":21.942784,"velocity":0.4881889763779528},{"duration":0.04285700000000148,"midi":40,"time":21.942784,"velocity":0.4881889763779528},{"duration":0.04285700000000148,"midi":38,"time":21.942784,"velocity":0.4881889763779528},{"duration":0.04285700000000148,"midi":40,"time":21.942784,"velocity":0.4881889763779528},{"duration":0.04285700000000148,"midi":38,"time":21.942784,"velocity":0.4881889763779528},{"duration":0.04285700000000148,"midi":38,"time":21.942784,"velocity":0.4881889763779528},{"duration":0.04285700000000148,"midi":40,"time":21.942784,"velocity":0.4881889763779528},{"duration":0.04285700000000148,"midi":40,"time":21.942784,"velocity":0.4881889763779528},{"duration":0.04285700000000148,"midi":38,"time":21.942784,"velocity":0.4881889763779528},{"duration":0.04285700000000148,"midi":38,"time":21.942784,"velocity":0.4881889763779528},{"duration":0.04285700000000148,"midi":38,"time":21.942784,"velocity":0.4881889763779528},{"duration":0.04285700000000148,"midi":40,"time":21.942784,"velocity":0.4881889763779528},{"duration":0.042856999999997925,"midi":36,"time":22.799924,"velocity":0.4881889763779528},{"duration":0.042856999999997925,"midi":41,"time":22.799924,"velocity":0.4881889763779528},{"duration":0.042856999999997925,"midi":36,"time":22.799924,"velocity":0.4881889763779528},{"duration":0.042856999999997925,"midi":35,"time":22.799924,"velocity":0.4881889763779528},{"duration":0.042856999999997925,"midi":35,"time":22.799924,"velocity":0.4881889763779528},{"duration":0.042856999999997925,"midi":35,"time":22.799924,"velocity":0.4881889763779528},{"duration":0.042856999999997925,"midi":36,"time":22.799924,"velocity":0.4881889763779528},{"duration":0.042856999999997925,"midi":35,"time":22.799924,"velocity":0.4881889763779528},{"duration":0.042856999999997925,"midi":36,"time":22.799924,"velocity":0.4881889763779528},{"duration":0.042856999999997925,"midi":35,"time":22.799924,"velocity":0.4881889763779528},{"duration":0.042856999999997925,"midi":43,"time":22.799924,"velocity":0.4881889763779528},{"duration":0.042856999999997925,"midi":41,"time":22.799924,"velocity":0.4881889763779528},{"duration":0.042856999999997925,"midi":36,"time":22.799924,"velocity":0.4881889763779528},{"duration":0.042856999999997925,"midi":43,"time":22.799924,"velocity":0.4881889763779528},{"duration":0.042856999999997925,"midi":41,"time":22.799924,"velocity":0.4881889763779528},{"duration":0.042856999999997925,"midi":35,"time":22.799924,"velocity":0.4881889763779528},{"duration":0.042856999999997925,"midi":43,"time":22.799924,"velocity":0.4881889763779528},{"duration":0.042856999999997925,"midi":36,"time":22.799924,"velocity":0.4881889763779528},{"duration":0.042856999999997925,"midi":43,"time":22.799924,"velocity":0.4881889763779528},{"duration":0.042856999999997925,"midi":36,"time":22.799924,"velocity":0.4881889763779528},{"duration":0.042856999999997925,"midi":36,"time":22.799924,"velocity":0.4881889763779528},{"duration":0.042856999999997925,"midi":41,"time":22.799924,"velocity":0.4881889763779528},{"duration":0.042856999999997925,"midi":36,"time":22.799924,"velocity":0.4881889763779528},{"duration":0.042856999999997925,"midi":36,"time":22.799924,"velocity":0.4881889763779528},{"duration":0.042856999999997925,"midi":35,"time":22.799924,"velocity":0.4881889763779528},{"duration":0.042856999999997925,"midi":35,"time":22.799924,"velocity":0.4881889763779528},{"duration":0.042856999999997925,"midi":43,"time":22.799924,"velocity":0.4881889763779528},{"duration":0.042856999999997925,"midi":41,"time":22.799924,"velocity":0.4881889763779528},{"duration":0.042856999999997925,"midi":35,"time":22.799924,"velocity":0.4881889763779528},{"duration":0.042856999999997925,"midi":35,"time":22.799924,"velocity":0.4881889763779528},{"duration":0.04285700000000148,"midi":35,"time":22.971352,"velocity":0.4881889763779528},{"duration":0.04285700000000148,"midi":41,"time":22.971352,"velocity":0.4881889763779528},{"duration":0.04285700000000148,"midi":35,"time":22.971352,"velocity":0.4881889763779528},{"duration":0.04285700000000148,"midi":43,"time":22.971352,"velocity":0.4881889763779528},{"duration":0.04285700000000148,"midi":35,"time":22.971352,"velocity":0.4881889763779528},{"duration":0.04285700000000148,"midi":43,"time":22.971352,"velocity":0.4881889763779528},{"duration":0.04285700000000148,"midi":36,"time":22.971352,"velocity":0.4881889763779528},{"duration":0.04285700000000148,"midi":35,"time":22.971352,"velocity":0.4881889763779528},{"duration":0.04285700000000148,"midi":41,"time":22.971352,"velocity":0.4881889763779528},{"duration":0.04285700000000148,"midi":43,"time":22.971352,"velocity":0.4881889763779528},{"duration":0.04285700000000148,"midi":35,"time":22.971352,"velocity":0.4881889763779528},{"duration":0.04285700000000148,"midi":35,"time":22.971352,"velocity":0.4881889763779528},{"duration":0.04285700000000148,"midi":36,"time":22.971352,"velocity":0.4881889763779528},{"duration":0.04285700000000148,"midi":35,"time":22.971352,"velocity":0.4881889763779528},{"duration":0.04285700000000148,"midi":43,"time":22.971352,"velocity":0.4881889763779528},{"duration":0.04285700000000148,"midi":41,"time":22.971352,"velocity":0.4881889763779528},{"duration":0.04285700000000148,"midi":36,"time":22.971352,"velocity":0.4881889763779528},{"duration":0.04285700000000148,"midi":43,"time":22.971352,"velocity":0.4881889763779528},{"duration":0.04285700000000148,"midi":36,"time":22.971352,"velocity":0.4881889763779528},{"duration":0.04285700000000148,"midi":41,"time":22.971352,"velocity":0.4881889763779528},{"duration":0.04285700000000148,"midi":36,"time":22.971352,"velocity":0.4881889763779528},{"duration":0.04285700000000148,"midi":41,"time":22.971352,"velocity":0.4881889763779528},{"duration":0.04285700000000148,"midi":35,"time":22.971352,"velocity":0.4881889763779528},{"duration":0.04285700000000148,"midi":35,"time":22.971352,"velocity":0.4881889763779528},{"duration":0.04285700000000148,"midi":36,"time":22.971352,"velocity":0.4881889763779528},{"duration":0.04285700000000148,"midi":36,"time":22.971352,"velocity":0.4881889763779528},{"duration":0.04285700000000148,"midi":36,"time":22.971352,"velocity":0.4881889763779528},{"duration":0.04285700000000148,"midi":35,"time":22.971352,"velocity":0.4881889763779528},{"duration":0.04285700000000148,"midi":36,"time":22.971352,"velocity":0.4881889763779528},{"duration":0.04285700000000148,"midi":36,"time":22.971352,"velocity":0.4881889763779528},{"duration":0.042856999999997925,"midi":40,"time":23.314208,"velocity":0.4881889763779528},{"duration":0.042856999999997925,"midi":38,"time":23.314208,"velocity":0.4881889763779528},{"duration":0.042856999999997925,"midi":38,"time":23.314208,"velocity":0.4881889763779528},{"duration":0.042856999999997925,"midi":38,"time":23.314208,"velocity":0.4881889763779528},{"duration":0.042856999999997925,"midi":38,"time":23.314208,"velocity":0.4881889763779528},{"duration":0.042856999999997925,"midi":38,"time":23.314208,"velocity":0.4881889763779528},{"duration":0.042856999999997925,"midi":40,"time":23.314208,"velocity":0.4881889763779528},{"duration":0.042856999999997925,"midi":40,"time":23.314208,"velocity":0.4881889763779528},{"duration":0.042856999999997925,"midi":40,"time":23.314208,"velocity":0.4881889763779528},{"duration":0.042856999999997925,"midi":40,"time":23.314208,"velocity":0.4881889763779528},{"duration":0.042856999999997925,"midi":40,"time":23.314208,"velocity":0.4881889763779528},{"duration":0.042856999999997925,"midi":38,"time":23.314208,"velocity":0.4881889763779528},{"duration":0.04285700000000148,"midi":41,"time":23.99992,"velocity":0.4881889763779528},{"duration":0.04285700000000148,"midi":36,"time":23.99992,"velocity":0.4881889763779528},{"duration":0.04285700000000148,"midi":36,"time":23.99992,"velocity":0.4881889763779528},{"duration":0.04285700000000148,"midi":35,"time":23.99992,"velocity":0.4881889763779528},{"duration":0.04285700000000148,"midi":43,"time":23.99992,"velocity":0.4881889763779528},{"duration":0.04285700000000148,"midi":43,"time":23.99992,"velocity":0.4881889763779528},{"duration":0.04285700000000148,"midi":36,"time":23.99992,"velocity":0.4881889763779528},{"duration":0.04285700000000148,"midi":36,"time":23.99992,"velocity":0.4881889763779528},{"duration":0.04285700000000148,"midi":43,"time":23.99992,"velocity":0.4881889763779528},{"duration":0.04285700000000148,"midi":35,"time":23.99992,"velocity":0.4881889763779528},{"duration":0.04285700000000148,"midi":36,"time":23.99992,"velocity":0.4881889763779528},{"duration":0.04285700000000148,"midi":35,"time":23.99992,"velocity":0.4881889763779528},{"duration":0.04285700000000148,"midi":41,"time":23.99992,"velocity":0.4881889763779528},{"duration":0.04285700000000148,"midi":41,"time":23.99992,"velocity":0.4881889763779528},{"duration":0.04285700000000148,"midi":36,"time":23.99992,"velocity":0.4881889763779528},{"duration":0.04285700000000148,"midi":41,"time":23.99992,"velocity":0.4881889763779528},{"duration":0.04285700000000148,"midi":43,"time":23.99992,"velocity":0.4881889763779528},{"duration":0.04285700000000148,"midi":35,"time":23.99992,"velocity":0.4881889763779528},{"duration":0.04285700000000148,"midi":35,"time":23.99992,"velocity":0.4881889763779528},{"duration":0.04285700000000148,"midi":36,"time":23.99992,"velocity":0.4881889763779528},{"duration":0.04285700000000148,"midi":35,"time":23.99992,"velocity":0.4881889763779528},{"duration":0.04285700000000148,"midi":41,"time":23.99992,"velocity":0.4881889763779528},{"duration":0.04285700000000148,"midi":35,"time":23.99992,"velocity":0.4881889763779528},{"duration":0.04285700000000148,"midi":35,"time":23.99992,"velocity":0.4881889763779528},{"duration":0.04285700000000148,"midi":36,"time":23.99992,"velocity":0.4881889763779528},{"duration":0.04285700000000148,"midi":36,"time":23.99992,"velocity":0.4881889763779528},{"duration":0.04285700000000148,"midi":35,"time":23.99992,"velocity":0.4881889763779528},{"duration":0.04285700000000148,"midi":35,"time":23.99992,"velocity":0.4881889763779528},{"duration":0.04285700000000148,"midi":43,"time":23.99992,"velocity":0.4881889763779528},{"duration":0.04285700000000148,"midi":36,"time":23.99992,"velocity":0.4881889763779528},{"duration":0.04285700000000503,"midi":35,"time":34.971312,"velocity":0.4881889763779528},{"duration":0.04285700000000503,"midi":41,"time":34.971312,"velocity":0.4881889763779528},{"duration":0.04285700000000503,"midi":43,"time":34.971312,"velocity":0.4881889763779528},{"duration":0.04285700000000503,"midi":43,"time":34.971312,"velocity":0.4881889763779528},{"duration":0.04285700000000503,"midi":43,"time":34.971312,"velocity":0.4881889763779528},{"duration":0.04285700000000503,"midi":36,"time":34.971312,"velocity":0.4881889763779528},{"duration":0.04285700000000503,"midi":35,"time":34.971312,"velocity":0.4881889763779528},{"duration":0.04285700000000503,"midi":36,"time":34.971312,"velocity":0.4881889763779528},{"duration":0.04285700000000503,"midi":35,"time":34.971312,"velocity":0.4881889763779528},{"duration":0.04285700000000503,"midi":41,"time":34.971312,"velocity":0.4881889763779528},{"duration":0.04285700000000503,"midi":41,"time":34.971312,"velocity":0.4881889763779528},{"duration":0.04285700000000503,"midi":41,"time":34.971312,"velocity":0.4881889763779528},{"duration":0.04285700000000503,"midi":36,"time":34.971312,"velocity":0.4881889763779528},{"duration":0.04285700000000503,"midi":35,"time":34.971312,"velocity":0.4881889763779528},{"duration":0.04285700000000503,"midi":36,"time":34.971312,"velocity":0.4881889763779528},{"duration":0.04285700000000503,"midi":35,"time":34.971312,"velocity":0.4881889763779528},{"duration":0.04285700000000503,"midi":36,"time":34.971312,"velocity":0.4881889763779528},{"duration":0.04285700000000503,"midi":36,"time":34.971312,"velocity":0.4881889763779528},{"duration":0.04285700000000503,"midi":35,"time":34.971312,"velocity":0.4881889763779528},{"duration":0.04285700000000503,"midi":41,"time":34.971312,"velocity":0.4881889763779528},{"duration":0.04285700000000503,"midi":36,"time":34.971312,"velocity":0.4881889763779528},{"duration":0.04285700000000503,"midi":36,"time":34.971312,"velocity":0.4881889763779528},{"duration":0.04285700000000503,"midi":35,"time":34.971312,"velocity":0.4881889763779528},{"duration":0.04285700000000503,"midi":35,"time":34.971312,"velocity":0.4881889763779528},{"duration":0.04285700000000503,"midi":43,"time":34.971312,"velocity":0.4881889763779528},{"duration":0.04285700000000503,"midi":36,"time":34.971312,"velocity":0.4881889763779528},{"duration":0.04285700000000503,"midi":35,"time":34.971312,"velocity":0.4881889763779528},{"duration":0.04285700000000503,"midi":35,"time":34.971312,"velocity":0.4881889763779528},{"duration":0.04285700000000503,"midi":43,"time":34.971312,"velocity":0.4881889763779528},{"duration":0.04285700000000503,"midi":36,"time":34.971312,"velocity":0.4881889763779528},{"duration":0.04285700000000503,"midi":57,"time":45.256992,"velocity":0.4881889763779528},{"duration":0.04285700000000503,"midi":59,"time":45.256992,"velocity":0.4881889763779528},{"duration":0.04285700000000503,"midi":49,"time":45.256992,"velocity":0.4881889763779528},{"duration":0.04285700000000503,"midi":49,"time":45.256992,"velocity":0.4881889763779528},{"duration":0.042856999999997925,"midi":35,"time":45.942704,"velocity":0.4881889763779528},{"duration":0.042856999999997925,"midi":35,"time":45.942704,"velocity":0.4881889763779528},{"duration":0.042856999999997925,"midi":36,"time":45.942704,"velocity":0.4881889763779528},{"duration":0.042856999999997925,"midi":36,"time":45.942704,"velocity":0.4881889763779528},{"duration":0.042856999999997925,"midi":35,"time":45.942704,"velocity":0.4881889763779528},{"duration":0.042856999999997925,"midi":41,"time":45.942704,"velocity":0.4881889763779528},{"duration":0.042856999999997925,"midi":36,"time":45.942704,"velocity":0.4881889763779528},{"duration":0.042856999999997925,"midi":35,"time":45.942704,"velocity":0.4881889763779528},{"duration":0.042856999999997925,"midi":43,"time":45.942704,"velocity":0.4881889763779528},{"duration":0.042856999999997925,"midi":36,"time":45.942704,"velocity":0.4881889763779528},{"duration":0.04285700000000503,"midi":50,"time":46.28556,"velocity":0.4881889763779528},{"duration":0.04285700000000503,"midi":38,"time":46.28556,"velocity":0.4881889763779528},{"duration":0.04285700000000503,"midi":38,"time":46.28556,"velocity":0.4881889763779528},{"duration":0.04285700000000503,"midi":40,"time":46.28556,"velocity":0.4881889763779528},{"duration":0.04285700000000503,"midi":40,"time":46.28556,"velocity":0.4881889763779528},{"duration":0.04285700000000503,"midi":48,"time":46.28556,"velocity":0.4881889763779528},{"duration":0.04285700000000503,"midi":40,"time":46.28556,"velocity":0.4881889763779528},{"duration":0.04285700000000503,"midi":38,"time":46.28556,"velocity":0.4881889763779528},{"duration":0.042856999999997925,"midi":36,"time":46.799844,"velocity":0.4881889763779528},{"duration":0.042856999999997925,"midi":35,"time":46.799844,"velocity":0.4881889763779528},{"duration":0.042856999999997925,"midi":35,"time":46.799844,"velocity":0.4881889763779528},{"duration":0.042856999999997925,"midi":35,"time":46.799844,"velocity":0.4881889763779528},{"duration":0.042856999999997925,"midi":36,"time":46.799844,"velocity":0.4881889763779528},{"duration":0.042856999999997925,"midi":43,"time":46.799844,"velocity":0.4881889763779528},{"duration":0.042856999999997925,"midi":41,"time":46.799844,"velocity":0.4881889763779528},{"duration":0.042856999999997925,"midi":35,"time":46.799844,"velocity":0.4881889763779528},{"duration":0.042856999999997925,"midi":36,"time":46.799844,"velocity":0.4881889763779528},{"duration":0.042856999999997925,"midi":36,"time":46.799844,"velocity":0.4881889763779528},{"duration":0.042856999999997925,"midi":50,"time":46.971272,"velocity":0.4881889763779528},{"duration":0.042856999999997925,"midi":48,"time":46.971272,"velocity":0.4881889763779528},{"duration":0.042856999999997925,"midi":38,"time":46.971272,"velocity":0.4881889763779528},{"duration":0.042856999999997925,"midi":38,"time":46.971272,"velocity":0.4881889763779528},{"duration":0.042856999999997925,"midi":40,"time":46.971272,"velocity":0.4881889763779528},{"duration":0.042856999999997925,"midi":40,"time":46.971272,"velocity":0.4881889763779528},{"duration":0.042856999999997925,"midi":38,"time":46.971272,"velocity":0.4881889763779528},{"duration":0.042856999999997925,"midi":40,"time":46.971272,"velocity":0.4881889763779528},{"duration":0.04285700000000503,"midi":35,"time":47.314128,"velocity":0.4881889763779528},{"duration":0.04285700000000503,"midi":36,"time":47.314128,"velocity":0.4881889763779528},{"duration":0.04285700000000503,"midi":36,"time":47.314128,"velocity":0.4881889763779528},{"duration":0.04285700000000503,"midi":36,"time":47.314128,"velocity":0.4881889763779528},{"duration":0.04285700000000503,"midi":35,"time":47.314128,"velocity":0.4881889763779528},{"duration":0.04285700000000503,"midi":36,"time":47.314128,"velocity":0.4881889763779528},{"duration":0.04285700000000503,"midi":41,"time":47.314128,"velocity":0.4881889763779528},{"duration":0.04285700000000503,"midi":35,"time":47.314128,"velocity":0.4881889763779528},{"duration":0.04285700000000503,"midi":43,"time":47.314128,"velocity":0.4881889763779528},{"duration":0.04285700000000503,"midi":35,"time":47.314128,"velocity":0.4881889763779528},{"duration":0.042856999999997925,"midi":48,"time":47.656984,"velocity":0.4881889763779528},{"duration":0.042856999999997925,"midi":38,"time":47.656984,"velocity":0.4881889763779528},{"duration":0.042856999999997925,"midi":38,"time":47.656984,"velocity":0.4881889763779528},{"duration":0.042856999999997925,"midi":38,"time":47.656984,"velocity":0.4881889763779528},{"duration":0.042856999999997925,"midi":50,"time":47.656984,"velocity":0.4881889763779528},{"duration":0.042856999999997925,"midi":40,"time":47.656984,"velocity":0.4881889763779528},{"duration":0.042856999999997925,"midi":40,"time":47.656984,"velocity":0.4881889763779528},{"duration":0.042856999999997925,"midi":40,"time":47.656984,"velocity":0.4881889763779528},{"duration":0.042856999999997925,"midi":36,"time":48.171268,"velocity":0.4881889763779528},{"duration":0.042856999999997925,"midi":36,"time":48.171268,"velocity":0.4881889763779528},{"duration":0.042856999999997925,"midi":35,"time":48.171268,"velocity":0.4881889763779528},{"duration":0.042856999999997925,"midi":35,"time":48.171268,"velocity":0.4881889763779528},{"duration":0.042856999999997925,"midi":35,"time":48.171268,"velocity":0.4881889763779528},{"duration":0.042856999999997925,"midi":35,"time":48.171268,"velocity":0.4881889763779528},{"duration":0.042856999999997925,"midi":41,"time":48.171268,"velocity":0.4881889763779528},{"duration":0.042856999999997925,"midi":36,"time":48.171268,"velocity":0.4881889763779528},{"duration":0.042856999999997925,"midi":43,"time":48.171268,"velocity":0.4881889763779528},{"duration":0.042856999999997925,"midi":36,"time":48.171268,"velocity":0.4881889763779528},{"duration":0.04285700000000503,"midi":40,"time":48.342696,"velocity":0.4881889763779528},{"duration":0.04285700000000503,"midi":38,"time":48.342696,"velocity":0.4881889763779528},{"duration":0.04285700000000503,"midi":40,"time":48.342696,"velocity":0.4881889763779528},{"duration":0.04285700000000503,"midi":40,"time":48.342696,"velocity":0.4881889763779528},{"duration":0.04285700000000503,"midi":48,"time":48.342696,"velocity":0.4881889763779528},{"duration":0.04285700000000503,"midi":50,"time":48.342696,"velocity":0.4881889763779528},{"duration":0.04285700000000503,"midi":38,"time":48.342696,"velocity":0.4881889763779528},{"duration":0.04285700000000503,"midi":38,"time":48.342696,"velocity":0.4881889763779528},{"duration":0.042856999999997925,"midi":36,"time":48.514124,"velocity":0.4881889763779528},{"duration":0.042856999999997925,"midi":35,"time":48.514124,"velocity":0.4881889763779528},{"duration":0.042856999999997925,"midi":35,"time":48.514124,"velocity":0.4881889763779528},{"duration":0.042856999999997925,"midi":43,"time":48.514124,"velocity":0.4881889763779528},{"duration":0.042856999999997925,"midi":35,"time":48.514124,"velocity":0.4881889763779528},{"duration":0.042856999999997925,"midi":36,"time":48.514124,"velocity":0.4881889763779528},{"duration":0.042856999999997925,"midi":36,"time":48.514124,"velocity":0.4881889763779528},{"duration":0.042856999999997925,"midi":41,"time":48.514124,"velocity":0.4881889763779528},{"duration":0.042856999999997925,"midi":35,"time":48.514124,"velocity":0.4881889763779528},{"duration":0.042856999999997925,"midi":36,"time":48.514124,"velocity":0.4881889763779528},{"duration":0.042856999999997925,"midi":36,"time":48.685552,"velocity":0.4881889763779528},{"duration":0.042856999999997925,"midi":35,"time":48.685552,"velocity":0.4881889763779528},{"duration":0.042856999999997925,"midi":41,"time":48.685552,"velocity":0.4881889763779528},{"duration":0.042856999999997925,"midi":43,"time":48.685552,"velocity":0.4881889763779528},{"duration":0.042856999999997925,"midi":35,"time":48.685552,"velocity":0.4881889763779528},{"duration":0.042856999999997925,"midi":36,"time":48.685552,"velocity":0.4881889763779528},{"duration":0.042856999999997925,"midi":35,"time":48.685552,"velocity":0.4881889763779528},{"duration":0.042856999999997925,"midi":36,"time":48.685552,"velocity":0.4881889763779528},{"duration":0.042856999999997925,"midi":36,"time":48.685552,"velocity":0.4881889763779528},{"duration":0.042856999999997925,"midi":35,"time":48.685552,"velocity":0.4881889763779528},{"duration":0.042856999999997925,"midi":48,"time":49.028408,"velocity":0.4881889763779528},{"duration":0.042856999999997925,"midi":38,"time":49.028408,"velocity":0.4881889763779528},{"duration":0.042856999999997925,"midi":50,"time":49.028408,"velocity":0.4881889763779528},{"duration":0.042856999999997925,"midi":38,"time":49.028408,"velocity":0.4881889763779528},{"duration":0.042856999999997925,"midi":79,"time":49.028408,"velocity":0.4881889763779528},{"duration":0.042856999999997925,"midi":40,"time":49.028408,"velocity":0.4881889763779528},{"duration":0.042856999999997925,"midi":79,"time":49.028408,"velocity":0.4881889763779528},{"duration":0.042856999999997925,"midi":40,"time":49.028408,"velocity":0.4881889763779528},{"duration":0.042856999999997925,"midi":38,"time":49.028408,"velocity":0.4881889763779528},{"duration":0.042856999999997925,"midi":40,"time":49.028408,"velocity":0.4881889763779528},{"duration":0.042856999999997925,"midi":79,"time":49.0498365,"velocity":0.4881889763779528},{"duration":0.042856999999997925,"midi":79,"time":49.0498365,"velocity":0.4881889763779528},{"duration":0.04285700000000503,"midi":79,"time":49.071265,"velocity":0.4881889763779528},{"duration":0.04285700000000503,"midi":79,"time":49.071265,"velocity":0.4881889763779528},{"duration":0.04285700000000503,"midi":79,"time":49.092693499999996,"velocity":0.4881889763779528},{"duration":0.04285700000000503,"midi":79,"time":49.092693499999996,"velocity":0.4881889763779528},{"duration":0.042856999999997925,"midi":79,"time":49.199836,"velocity":0.4881889763779528},{"duration":0.042856999999997925,"midi":79,"time":49.199836,"velocity":0.4881889763779528},{"duration":0.04285700000000503,"midi":79,"time":49.2212645,"velocity":0.4881889763779528},{"duration":0.04285700000000503,"midi":79,"time":49.2212645,"velocity":0.4881889763779528},{"duration":0.04285700000000503,"midi":79,"time":49.242692999999996,"velocity":0.4881889763779528},{"duration":0.04285700000000503,"midi":79,"time":49.242692999999996,"velocity":0.4881889763779528},{"duration":0.042856999999997925,"midi":79,"time":49.2641215,"velocity":0.4881889763779528},{"duration":0.042856999999997925,"midi":79,"time":49.2641215,"velocity":0.4881889763779528},{"duration":0.04285700000000503,"midi":79,"time":49.371264,"velocity":0.4881889763779528},{"duration":0.04285700000000503,"midi":79,"time":49.371264,"velocity":0.4881889763779528},{"duration":0.042856999999997925,"midi":79,"time":49.3926925,"velocity":0.4881889763779528},{"duration":0.042856999999997925,"midi":79,"time":49.3926925,"velocity":0.4881889763779528},{"duration":0.042856999999997925,"midi":79,"time":49.414121,"velocity":0.4881889763779528},{"duration":0.042856999999997925,"midi":79,"time":49.414121,"velocity":0.4881889763779528},{"duration":0.042856999999997925,"midi":79,"time":49.4355495,"velocity":0.4881889763779528},{"duration":0.042856999999997925,"midi":79,"time":49.4355495,"velocity":0.4881889763779528},{"duration":0.042856999999997925,"midi":35,"time":49.542692,"velocity":0.4881889763779528},{"duration":0.042856999999997925,"midi":41,"time":49.542692,"velocity":0.4881889763779528},{"duration":0.042856999999997925,"midi":35,"time":49.542692,"velocity":0.4881889763779528},{"duration":0.042856999999997925,"midi":79,"time":49.542692,"velocity":0.4881889763779528},{"duration":0.042856999999997925,"midi":36,"time":49.542692,"velocity":0.4881889763779528},{"duration":0.042856999999997925,"midi":79,"time":49.542692,"velocity":0.4881889763779528},{"duration":0.042856999999997925,"midi":43,"time":49.542692,"velocity":0.4881889763779528},{"duration":0.042856999999997925,"midi":35,"time":49.542692,"velocity":0.4881889763779528},{"duration":0.042856999999997925,"midi":36,"time":49.542692,"velocity":0.4881889763779528},{"duration":0.042856999999997925,"midi":35,"time":49.542692,"velocity":0.4881889763779528},{"duration":0.042856999999997925,"midi":36,"time":49.542692,"velocity":0.4881889763779528},{"duration":0.042856999999997925,"midi":36,"time":49.542692,"velocity":0.4881889763779528},{"duration":0.042856999999997925,"midi":79,"time":49.5641205,"velocity":0.4881889763779528},{"duration":0.042856999999997925,"midi":79,"time":49.5641205,"velocity":0.4881889763779528},{"duration":0.042856999999997925,"midi":79,"time":49.585549,"velocity":0.4881889763779528},{"duration":0.042856999999997925,"midi":79,"time":49.585549,"velocity":0.4881889763779528},{"duration":0.042856999999997925,"midi":79,"time":49.6069775,"velocity":0.4881889763779528},{"duration":0.042856999999997925,"midi":79,"time":49.6069775,"velocity":0.4881889763779528},{"duration":0.042856999999997925,"midi":38,"time":49.71412,"velocity":0.4881889763779528},{"duration":0.042856999999997925,"midi":40,"time":49.71412,"velocity":0.4881889763779528},{"duration":0.042856999999997925,"midi":79,"time":49.71412,"velocity":0.4881889763779528},{"duration":0.042856999999997925,"midi":79,"time":49.71412,"velocity":0.4881889763779528},{"duration":0.042856999999997925,"midi":40,"time":49.71412,"velocity":0.4881889763779528},{"duration":0.042856999999997925,"midi":40,"time":49.71412,"velocity":0.4881889763779528},{"duration":0.042856999999997925,"midi":38,"time":49.71412,"velocity":0.4881889763779528},{"duration":0.042856999999997925,"midi":50,"time":49.71412,"velocity":0.4881889763779528},{"duration":0.042856999999997925,"midi":48,"time":49.71412,"velocity":0.4881889763779528},{"duration":0.042856999999997925,"midi":38,"time":49.71412,"velocity":0.4881889763779528},{"duration":0.042856999999997925,"midi":79,"time":49.7355485,"velocity":0.4881889763779528},{"duration":0.042856999999997925,"midi":79,"time":49.7355485,"velocity":0.4881889763779528},{"duration":0.042856999999997925,"midi":79,"time":49.756977,"velocity":0.4881889763779528},{"duration":0.042856999999997925,"midi":79,"time":49.756977,"velocity":0.4881889763779528},{"duration":0.042856999999997925,"midi":79,"time":49.7784055,"velocity":0.4881889763779528},{"duration":0.042856999999997925,"midi":79,"time":49.7784055,"velocity":0.4881889763779528},{"duration":0.042856999999997925,"midi":79,"time":49.885548,"velocity":0.4881889763779528},{"duration":0.042856999999997925,"midi":79,"time":49.885548,"velocity":0.4881889763779528},{"duration":0.042856999999997925,"midi":79,"time":49.9069765,"velocity":0.4881889763779528},{"duration":0.042856999999997925,"midi":79,"time":49.9069765,"velocity":0.4881889763779528},{"duration":0.042856999999997925,"midi":79,"time":49.928405,"velocity":0.4881889763779528},{"duration":0.042856999999997925,"midi":79,"time":49.928405,"velocity":0.4881889763779528},{"duration":0.04285700000000503,"midi":79,"time":49.9498335,"velocity":0.4881889763779528},{"duration":0.04285700000000503,"midi":79,"time":49.9498335,"velocity":0.4881889763779528},{"duration":0.042856999999997925,"midi":43,"time":50.056976,"velocity":0.4881889763779528},{"duration":0.042856999999997925,"midi":35,"time":50.056976,"velocity":0.4881889763779528},{"duration":0.042856999999997925,"midi":35,"time":50.056976,"velocity":0.4881889763779528},{"duration":0.042856999999997925,"midi":41,"time":50.056976,"velocity":0.4881889763779528},{"duration":0.042856999999997925,"midi":35,"time":50.056976,"velocity":0.4881889763779528},{"duration":0.042856999999997925,"midi":35,"time":50.056976,"velocity":0.4881889763779528},{"duration":0.042856999999997925,"midi":36,"time":50.056976,"velocity":0.4881889763779528},{"duration":0.042856999999997925,"midi":36,"time":50.056976,"velocity":0.4881889763779528},{"duration":0.042856999999997925,"midi":36,"time":50.056976,"velocity":0.4881889763779528},{"duration":0.042856999999997925,"midi":36,"time":50.056976,"velocity":0.4881889763779528},{"duration":0.04285700000000503,"midi":50,"time":50.399831999999996,"velocity":0.4881889763779528},{"duration":0.04285700000000503,"midi":38,"time":50.399831999999996,"velocity":0.4881889763779528},{"duration":0.04285700000000503,"midi":40,"time":50.399831999999996,"velocity":0.4881889763779528},{"duration":0.04285700000000503,"midi":38,"time":50.399831999999996,"velocity":0.4881889763779528},{"duration":0.04285700000000503,"midi":40,"time":50.399831999999996,"velocity":0.4881889763779528},{"duration":0.04285700000000503,"midi":48,"time":50.399831999999996,"velocity":0.4881889763779528},{"duration":0.04285700000000503,"midi":38,"time":50.399831999999996,"velocity":0.4881889763779528},{"duration":0.04285700000000503,"midi":40,"time":50.399831999999996,"velocity":0.4881889763779528},{"duration":0.042856999999997925,"midi":36,"time":50.914116,"velocity":0.4881889763779528},{"duration":0.042856999999997925,"midi":35,"time":50.914116,"velocity":0.4881889763779528},{"duration":0.042856999999997925,"midi":35,"time":50.914116,"velocity":0.4881889763779528},{"duration":0.042856999999997925,"midi":36,"time":50.914116,"velocity":0.4881889763779528},{"duration":0.042856999999997925,"midi":36,"time":50.914116,"velocity":0.4881889763779528},{"duration":0.042856999999997925,"midi":35,"time":50.914116,"velocity":0.4881889763779528},{"duration":0.042856999999997925,"midi":41,"time":50.914116,"velocity":0.4881889763779528},{"duration":0.042856999999997925,"midi":35,"time":50.914116,"velocity":0.4881889763779528},{"duration":0.042856999999997925,"midi":43,"time":50.914116,"velocity":0.4881889763779528},{"duration":0.042856999999997925,"midi":36,"time":50.914116,"velocity":0.4881889763779528},{"duration":0.04285700000000503,"midi":35,"time":50.999829999999996,"velocity":0.4881889763779528},{"duration":0.04285700000000503,"midi":36,"time":50.999829999999996,"velocity":0.4881889763779528},{"duration":0.04285700000000503,"midi":41,"time":50.999829999999996,"velocity":0.4881889763779528},{"duration":0.04285700000000503,"midi":36,"time":50.999829999999996,"velocity":0.4881889763779528},{"duration":0.04285700000000503,"midi":35,"time":50.999829999999996,"velocity":0.4881889763779528},{"duration":0.04285700000000503,"midi":36,"time":50.999829999999996,"velocity":0.4881889763779528},{"duration":0.04285700000000503,"midi":35,"time":50.999829999999996,"velocity":0.4881889763779528},{"duration":0.04285700000000503,"midi":36,"time":50.999829999999996,"velocity":0.4881889763779528},{"duration":0.04285700000000503,"midi":43,"time":50.999829999999996,"velocity":0.4881889763779528},{"duration":0.04285700000000503,"midi":35,"time":50.999829999999996,"velocity":0.4881889763779528},{"duration":0.042856999999997925,"midi":40,"time":51.085544,"velocity":0.4881889763779528},{"duration":0.042856999999997925,"midi":38,"time":51.085544,"velocity":0.4881889763779528},{"duration":0.042856999999997925,"midi":40,"time":51.085544,"velocity":0.4881889763779528},{"duration":0.042856999999997925,"midi":38,"time":51.085544,"velocity":0.4881889763779528},{"duration":0.042856999999997925,"midi":40,"time":51.085544,"velocity":0.4881889763779528},{"duration":0.042856999999997925,"midi":50,"time":51.085544,"velocity":0.4881889763779528},{"duration":0.042856999999997925,"midi":48,"time":51.085544,"velocity":0.4881889763779528},{"duration":0.042856999999997925,"midi":38,"time":51.085544,"velocity":0.4881889763779528},{"duration":0.04285700000000503,"midi":35,"time":51.256972,"velocity":0.4881889763779528},{"duration":0.04285700000000503,"midi":41,"time":51.256972,"velocity":0.4881889763779528},{"duration":0.04285700000000503,"midi":36,"time":51.256972,"velocity":0.4881889763779528},{"duration":0.04285700000000503,"midi":35,"time":51.256972,"velocity":0.4881889763779528},{"duration":0.04285700000000503,"midi":36,"time":51.256972,"velocity":0.4881889763779528},{"duration":0.04285700000000503,"midi":43,"time":51.256972,"velocity":0.4881889763779528},{"duration":0.04285700000000503,"midi":35,"time":51.256972,"velocity":0.4881889763779528},{"duration":0.04285700000000503,"midi":35,"time":51.256972,"velocity":0.4881889763779528},{"duration":0.04285700000000503,"midi":36,"time":51.256972,"velocity":0.4881889763779528},{"duration":0.04285700000000503,"midi":36,"time":51.256972,"velocity":0.4881889763779528},{"duration":0.04285700000000503,"midi":36,"time":51.428399999999996,"velocity":0.4881889763779528},{"duration":0.04285700000000503,"midi":35,"time":51.428399999999996,"velocity":0.4881889763779528},{"duration":0.04285700000000503,"midi":36,"time":51.428399999999996,"velocity":0.4881889763779528},{"duration":0.04285700000000503,"midi":35,"time":51.428399999999996,"velocity":0.4881889763779528},{"duration":0.04285700000000503,"midi":36,"time":51.428399999999996,"velocity":0.4881889763779528},{"duration":0.04285700000000503,"midi":41,"time":51.428399999999996,"velocity":0.4881889763779528},{"duration":0.04285700000000503,"midi":35,"time":51.428399999999996,"velocity":0.4881889763779528},{"duration":0.04285700000000503,"midi":36,"time":51.428399999999996,"velocity":0.4881889763779528},{"duration":0.04285700000000503,"midi":43,"time":51.428399999999996,"velocity":0.4881889763779528},{"duration":0.04285700000000503,"midi":35,"time":51.428399999999996,"velocity":0.4881889763779528},{"duration":0.042856999999997925,"midi":40,"time":51.771256,"velocity":0.4881889763779528},{"duration":0.042856999999997925,"midi":40,"time":51.771256,"velocity":0.4881889763779528},{"duration":0.042856999999997925,"midi":38,"time":51.771256,"velocity":0.4881889763779528},{"duration":0.042856999999997925,"midi":48,"time":51.771256,"velocity":0.4881889763779528},{"duration":0.042856999999997925,"midi":38,"time":51.771256,"velocity":0.4881889763779528},{"duration":0.042856999999997925,"midi":40,"time":51.771256,"velocity":0.4881889763779528},{"duration":0.042856999999997925,"midi":38,"time":51.771256,"velocity":0.4881889763779528},{"duration":0.042856999999997925,"midi":50,"time":51.771256,"velocity":0.4881889763779528},{"duration":0.042856999999997925,"midi":50,"time":52.071255,"velocity":0.4881889763779528},{"duration":0.042856999999997925,"midi":50,"time":52.114112,"velocity":0.4881889763779528},{"duration":0.04285700000000503,"midi":50,"time":52.156969,"velocity":0.4881889763779528},{"duration":0.042856999999997925,"midi":50,"time":52.199826,"velocity":0.4881889763779528},{"duration":0.042856999999997925,"midi":45,"time":52.242683,"velocity":0.4881889763779528},{"duration":0.04285700000000503,"midi":35,"time":52.28554,"velocity":0.4881889763779528},{"duration":0.04285700000000503,"midi":36,"time":52.28554,"velocity":0.4881889763779528},{"duration":0.04285700000000503,"midi":36,"time":52.28554,"velocity":0.4881889763779528},{"duration":0.04285700000000503,"midi":36,"time":52.28554,"velocity":0.4881889763779528},{"duration":0.04285700000000503,"midi":35,"time":52.28554,"velocity":0.4881889763779528},{"duration":0.04285700000000503,"midi":43,"time":52.28554,"velocity":0.4881889763779528},{"duration":0.04285700000000503,"midi":41,"time":52.28554,"velocity":0.4881889763779528},{"duration":0.04285700000000503,"midi":35,"time":52.28554,"velocity":0.4881889763779528},{"duration":0.04285700000000503,"midi":45,"time":52.28554,"velocity":0.4881889763779528},{"duration":0.04285700000000503,"midi":36,"time":52.28554,"velocity":0.4881889763779528},{"duration":0.04285700000000503,"midi":35,"time":52.28554,"velocity":0.4881889763779528},{"duration":0.042856999999997925,"midi":45,"time":52.328397,"velocity":0.4881889763779528},{"duration":0.042856999999997925,"midi":45,"time":52.371254,"velocity":0.4881889763779528},{"duration":0.042856999999997925,"midi":47,"time":52.414111,"velocity":0.4881889763779528},{"duration":0.04285700000000503,"midi":47,"time":52.456967999999996,"velocity":0.4881889763779528},{"duration":0.04285700000000503,"midi":38,"time":52.456967999999996,"velocity":0.4881889763779528},{"duration":0.04285700000000503,"midi":50,"time":52.456967999999996,"velocity":0.4881889763779528},{"duration":0.04285700000000503,"midi":40,"time":52.456967999999996,"velocity":0.4881889763779528},{"duration":0.04285700000000503,"midi":40,"time":52.456967999999996,"velocity":0.4881889763779528},{"duration":0.04285700000000503,"midi":40,"time":52.456967999999996,"velocity":0.4881889763779528},{"duration":0.04285700000000503,"midi":38,"time":52.456967999999996,"velocity":0.4881889763779528},{"duration":0.04285700000000503,"midi":38,"time":52.456967999999996,"velocity":0.4881889763779528},{"duration":0.042856999999997925,"midi":47,"time":52.499825,"velocity":0.4881889763779528},{"duration":0.042856999999997925,"midi":47,"time":52.542682,"velocity":0.4881889763779528},{"duration":0.04285700000000503,"midi":43,"time":52.585539,"velocity":0.4881889763779528},{"duration":0.042856999999997925,"midi":43,"time":52.628396,"velocity":0.4881889763779528},{"duration":0.042856999999997925,"midi":43,"time":52.671253,"velocity":0.4881889763779528},{"duration":0.042856999999997925,"midi":43,"time":52.71411,"velocity":0.4881889763779528},{"duration":0.042856999999997925,"midi":36,"time":52.799824,"velocity":0.4881889763779528},{"duration":0.042856999999997925,"midi":35,"time":52.799824,"velocity":0.4881889763779528},{"duration":0.042856999999997925,"midi":41,"time":52.799824,"velocity":0.4881889763779528},{"duration":0.042856999999997925,"midi":35,"time":52.799824,"velocity":0.4881889763779528},{"duration":0.042856999999997925,"midi":36,"time":52.799824,"velocity":0.4881889763779528},{"duration":0.042856999999997925,"midi":36,"time":52.799824,"velocity":0.4881889763779528},{"duration":0.042856999999997925,"midi":35,"time":52.799824,"velocity":0.4881889763779528},{"duration":0.042856999999997925,"midi":35,"time":52.799824,"velocity":0.4881889763779528},{"duration":0.042856999999997925,"midi":36,"time":52.799824,"velocity":0.4881889763779528},{"duration":0.042856999999997925,"midi":43,"time":52.799824,"velocity":0.4881889763779528},{"duration":0.042856999999997925,"midi":40,"time":53.14268,"velocity":0.4881889763779528},{"duration":0.042856999999997925,"midi":48,"time":53.14268,"velocity":0.4881889763779528},{"duration":0.042856999999997925,"midi":50,"time":53.14268,"velocity":0.4881889763779528},{"duration":0.042856999999997925,"midi":38,"time":53.14268,"velocity":0.4881889763779528},{"duration":0.042856999999997925,"midi":40,"time":53.14268,"velocity":0.4881889763779528},{"duration":0.042856999999997925,"midi":38,"time":53.14268,"velocity":0.4881889763779528},{"duration":0.042856999999997925,"midi":38,"time":53.14268,"velocity":0.4881889763779528},{"duration":0.042856999999997925,"midi":40,"time":53.14268,"velocity":0.4881889763779528},{"duration":0.042856999999997925,"midi":35,"time":53.656964,"velocity":0.4881889763779528},{"duration":0.042856999999997925,"midi":41,"time":53.656964,"velocity":0.4881889763779528},{"duration":0.042856999999997925,"midi":35,"time":53.656964,"velocity":0.4881889763779528},{"duration":0.042856999999997925,"midi":36,"time":53.656964,"velocity":0.4881889763779528},{"duration":0.042856999999997925,"midi":35,"time":53.656964,"velocity":0.4881889763779528},{"duration":0.042856999999997925,"midi":36,"time":53.656964,"velocity":0.4881889763779528},{"duration":0.042856999999997925,"midi":36,"time":53.656964,"velocity":0.4881889763779528},{"duration":0.042856999999997925,"midi":35,"time":53.656964,"velocity":0.4881889763779528},{"duration":0.042856999999997925,"midi":36,"time":53.656964,"velocity":0.4881889763779528},{"duration":0.042856999999997925,"midi":43,"time":53.656964,"velocity":0.4881889763779528},{"duration":0.042856999999997925,"midi":38,"time":53.828392,"velocity":0.4881889763779528},{"duration":0.042856999999997925,"midi":40,"time":53.828392,"velocity":0.4881889763779528},{"duration":0.042856999999997925,"midi":38,"time":53.828392,"velocity":0.4881889763779528},{"duration":0.042856999999997925,"midi":38,"time":53.828392,"velocity":0.4881889763779528},{"duration":0.042856999999997925,"midi":50,"time":53.828392,"velocity":0.4881889763779528},{"duration":0.042856999999997925,"midi":40,"time":53.828392,"velocity":0.4881889763779528},{"duration":0.042856999999997925,"midi":48,"time":53.828392,"velocity":0.4881889763779528},{"duration":0.042856999999997925,"midi":40,"time":53.828392,"velocity":0.4881889763779528},{"duration":0.042856999999997925,"midi":35,"time":53.99982,"velocity":0.4881889763779528},{"duration":0.042856999999997925,"midi":36,"time":53.99982,"velocity":0.4881889763779528},{"duration":0.042856999999997925,"midi":36,"time":53.99982,"velocity":0.4881889763779528},{"duration":0.042856999999997925,"midi":36,"time":53.99982,"velocity":0.4881889763779528},{"duration":0.042856999999997925,"midi":36,"time":53.99982,"velocity":0.4881889763779528},{"duration":0.042856999999997925,"midi":35,"time":53.99982,"velocity":0.4881889763779528},{"duration":0.042856999999997925,"midi":43,"time":53.99982,"velocity":0.4881889763779528},{"duration":0.042856999999997925,"midi":35,"time":53.99982,"velocity":0.4881889763779528},{"duration":0.042856999999997925,"midi":41,"time":53.99982,"velocity":0.4881889763779528},{"duration":0.042856999999997925,"midi":35,"time":53.99982,"velocity":0.4881889763779528},{"duration":0.042856999999997925,"midi":35,"time":54.171248,"velocity":0.4881889763779528},{"duration":0.042856999999997925,"midi":35,"time":54.171248,"velocity":0.4881889763779528},{"duration":0.042856999999997925,"midi":36,"time":54.171248,"velocity":0.4881889763779528},{"duration":0.042856999999997925,"midi":41,"time":54.171248,"velocity":0.4881889763779528},{"duration":0.042856999999997925,"midi":36,"time":54.171248,"velocity":0.4881889763779528},{"duration":0.042856999999997925,"midi":36,"time":54.171248,"velocity":0.4881889763779528},{"duration":0.042856999999997925,"midi":35,"time":54.171248,"velocity":0.4881889763779528},{"duration":0.042856999999997925,"midi":36,"time":54.171248,"velocity":0.4881889763779528},{"duration":0.042856999999997925,"midi":43,"time":54.171248,"velocity":0.4881889763779528},{"duration":0.042856999999997925,"midi":35,"time":54.171248,"velocity":0.4881889763779528},{"duration":0.04285700000000503,"midi":79,"time":54.514103999999996,"velocity":0.4881889763779528},{"duration":0.04285700000000503,"midi":79,"time":54.514103999999996,"velocity":0.4881889763779528},{"duration":0.04285700000000503,"midi":38,"time":54.514103999999996,"velocity":0.4881889763779528},{"duration":0.04285700000000503,"midi":40,"time":54.514103999999996,"velocity":0.4881889763779528},{"duration":0.04285700000000503,"midi":38,"time":54.514103999999996,"velocity":0.4881889763779528},{"duration":0.04285700000000503,"midi":48,"time":54.514103999999996,"velocity":0.4881889763779528},{"duration":0.04285700000000503,"midi":40,"time":54.514103999999996,"velocity":0.4881889763779528},{"duration":0.04285700000000503,"midi":38,"time":54.514103999999996,"velocity":0.4881889763779528},{"duration":0.04285700000000503,"midi":40,"time":54.514103999999996,"velocity":0.4881889763779528},{"duration":0.04285700000000503,"midi":50,"time":54.514103999999996,"velocity":0.4881889763779528},{"duration":0.042856999999997925,"midi":79,"time":54.5355325,"velocity":0.4881889763779528},{"duration":0.042856999999997925,"midi":79,"time":54.5355325,"velocity":0.4881889763779528},{"duration":0.042856999999997925,"midi":79,"time":54.556961,"velocity":0.4881889763779528},{"duration":0.042856999999997925,"midi":79,"time":54.556961,"velocity":0.4881889763779528},{"duration":0.042856999999997925,"midi":79,"time":54.5783895,"velocity":0.4881889763779528},{"duration":0.042856999999997925,"midi":79,"time":54.5783895,"velocity":0.4881889763779528},{"duration":0.042856999999997925,"midi":79,"time":54.599818,"velocity":0.4881889763779528},{"duration":0.042856999999997925,"midi":79,"time":54.599818,"velocity":0.4881889763779528},{"duration":0.042856999999997925,"midi":79,"time":54.6212465,"velocity":0.4881889763779528},{"duration":0.042856999999997925,"midi":79,"time":54.6212465,"velocity":0.4881889763779528},{"duration":0.04285700000000503,"midi":79,"time":54.642675,"velocity":0.4881889763779528},{"duration":0.04285700000000503,"midi":79,"time":54.642675,"velocity":0.4881889763779528},{"duration":0.04285700000000503,"midi":79,"time":54.664103499999996,"velocity":0.4881889763779528},{"duration":0.04285700000000503,"midi":79,"time":54.664103499999996,"velocity":0.4881889763779528},{"duration":0.042856999999997925,"midi":79,"time":54.685532,"velocity":0.4881889763779528},{"duration":0.042856999999997925,"midi":79,"time":54.685532,"velocity":0.4881889763779528},{"duration":0.042856999999997925,"midi":79,"time":54.7069605,"velocity":0.4881889763779528},{"duration":0.042856999999997925,"midi":79,"time":54.7069605,"velocity":0.4881889763779528},{"duration":0.042856999999997925,"midi":79,"time":54.728389,"velocity":0.4881889763779528},{"duration":0.042856999999997925,"midi":79,"time":54.728389,"velocity":0.4881889763779528},{"duration":0.042856999999997925,"midi":79,"time":54.7498175,"velocity":0.4881889763779528},{"duration":0.042856999999997925,"midi":79,"time":54.7498175,"velocity":0.4881889763779528},{"duration":0.042856999999997925,"midi":79,"time":54.771246,"velocity":0.4881889763779528},{"duration":0.042856999999997925,"midi":79,"time":54.771246,"velocity":0.4881889763779528},{"duration":0.04285700000000503,"midi":79,"time":54.7926745,"velocity":0.4881889763779528},{"duration":0.04285700000000503,"midi":79,"time":54.7926745,"velocity":0.4881889763779528},{"duration":0.04285700000000503,"midi":79,"time":54.814102999999996,"velocity":0.4881889763779528},{"duration":0.04285700000000503,"midi":79,"time":54.814102999999996,"velocity":0.4881889763779528},{"duration":0.042856999999997925,"midi":79,"time":54.8355315,"velocity":0.4881889763779528},{"duration":0.042856999999997925,"midi":79,"time":54.8355315,"velocity":0.4881889763779528},{"duration":0.042856999999997925,"midi":79,"time":54.85696,"velocity":0.4881889763779528},{"duration":0.042856999999997925,"midi":79,"time":54.85696,"velocity":0.4881889763779528},{"duration":0.042856999999997925,"midi":79,"time":54.8783885,"velocity":0.4881889763779528},{"duration":0.042856999999997925,"midi":79,"time":54.8783885,"velocity":0.4881889763779528},{"duration":0.042856999999997925,"midi":79,"time":54.899817,"velocity":0.4881889763779528},{"duration":0.042856999999997925,"midi":79,"time":54.899817,"velocity":0.4881889763779528},{"duration":0.042856999999997925,"midi":79,"time":54.9212455,"velocity":0.4881889763779528},{"duration":0.042856999999997925,"midi":79,"time":54.9212455,"velocity":0.4881889763779528},{"duration":0.042856999999997925,"midi":79,"time":55.028388,"velocity":0.4881889763779528},{"duration":0.042856999999997925,"midi":35,"time":55.028388,"velocity":0.4881889763779528},{"duration":0.042856999999997925,"midi":36,"time":55.028388,"velocity":0.4881889763779528},{"duration":0.042856999999997925,"midi":35,"time":55.028388,"velocity":0.4881889763779528},{"duration":0.042856999999997925,"midi":36,"time":55.028388,"velocity":0.4881889763779528},{"duration":0.042856999999997925,"midi":79,"time":55.028388,"velocity":0.4881889763779528},{"duration":0.042856999999997925,"midi":36,"time":55.028388,"velocity":0.4881889763779528},{"duration":0.042856999999997925,"midi":36,"time":55.028388,"velocity":0.4881889763779528},{"duration":0.042856999999997925,"midi":35,"time":55.028388,"velocity":0.4881889763779528},{"duration":0.042856999999997925,"midi":35,"time":55.028388,"velocity":0.4881889763779528},{"duration":0.042856999999997925,"midi":43,"time":55.028388,"velocity":0.4881889763779528},{"duration":0.042856999999997925,"midi":41,"time":55.028388,"velocity":0.4881889763779528},{"duration":0.042856999999997925,"midi":79,"time":55.0498165,"velocity":0.4881889763779528},{"duration":0.042856999999997925,"midi":79,"time":55.0498165,"velocity":0.4881889763779528},{"duration":0.04285700000000503,"midi":79,"time":55.071245,"velocity":0.4881889763779528},{"duration":0.04285700000000503,"midi":79,"time":55.071245,"velocity":0.4881889763779528},{"duration":0.04285700000000503,"midi":79,"time":55.0926735,"velocity":0.4881889763779528},{"duration":0.04285700000000503,"midi":79,"time":55.0926735,"velocity":0.4881889763779528},{"duration":0.042856999999997925,"midi":40,"time":55.199816,"velocity":0.4881889763779528},{"duration":0.042856999999997925,"midi":40,"time":55.199816,"velocity":0.4881889763779528},{"duration":0.042856999999997925,"midi":79,"time":55.199816,"velocity":0.4881889763779528},{"duration":0.042856999999997925,"midi":50,"time":55.199816,"velocity":0.4881889763779528},{"duration":0.042856999999997925,"midi":38,"time":55.199816,"velocity":0.4881889763779528},{"duration":0.042856999999997925,"midi":48,"time":55.199816,"velocity":0.4881889763779528},{"duration":0.042856999999997925,"midi":40,"time":55.199816,"velocity":0.4881889763779528},{"duration":0.042856999999997925,"midi":38,"time":55.199816,"velocity":0.4881889763779528},{"duration":0.042856999999997925,"midi":38,"time":55.199816,"velocity":0.4881889763779528},{"duration":0.042856999999997925,"midi":79,"time":55.199816,"velocity":0.4881889763779528},{"duration":0.04285700000000503,"midi":79,"time":55.2212445,"velocity":0.4881889763779528},{"duration":0.04285700000000503,"midi":79,"time":55.2212445,"velocity":0.4881889763779528},{"duration":0.04285700000000503,"midi":79,"time":55.242672999999996,"velocity":0.4881889763779528},{"duration":0.04285700000000503,"midi":79,"time":55.242672999999996,"velocity":0.4881889763779528},{"duration":0.042856999999997925,"midi":79,"time":55.2641015,"velocity":0.4881889763779528},{"duration":0.042856999999997925,"midi":79,"time":55.2641015,"velocity":0.4881889763779528},{"duration":0.04285700000000503,"midi":79,"time":55.371244,"velocity":0.4881889763779528},{"duration":0.04285700000000503,"midi":79,"time":55.371244,"velocity":0.4881889763779528},{"duration":0.04285700000000503,"midi":79,"time":55.392672499999996,"velocity":0.4881889763779528},{"duration":0.04285700000000503,"midi":79,"time":55.392672499999996,"velocity":0.4881889763779528},{"duration":0.042856999999997925,"midi":79,"time":55.414101,"velocity":0.4881889763779528},{"duration":0.042856999999997925,"midi":79,"time":55.414101,"velocity":0.4881889763779528},{"duration":0.042856999999997925,"midi":79,"time":55.4355295,"velocity":0.4881889763779528},{"duration":0.042856999999997925,"midi":79,"time":55.4355295,"velocity":0.4881889763779528},{"duration":0.04285700000000503,"midi":40,"time":55.542671999999996,"velocity":0.4881889763779528},{"duration":0.04285700000000503,"midi":38,"time":55.542671999999996,"velocity":0.4881889763779528},{"duration":0.04285700000000503,"midi":40,"time":55.542671999999996,"velocity":0.4881889763779528},{"duration":0.04285700000000503,"midi":38,"time":55.542671999999996,"velocity":0.4881889763779528},{"duration":0.04285700000000503,"midi":38,"time":55.542671999999996,"velocity":0.4881889763779528},{"duration":0.04285700000000503,"midi":50,"time":55.542671999999996,"velocity":0.4881889763779528},{"duration":0.04285700000000503,"midi":40,"time":55.542671999999996,"velocity":0.4881889763779528},{"duration":0.04285700000000503,"midi":48,"time":55.542671999999996,"velocity":0.4881889763779528},{"duration":0.042856999999997925,"midi":36,"time":55.7141,"velocity":0.4881889763779528},{"duration":0.042856999999997925,"midi":35,"time":55.7141,"velocity":0.4881889763779528},{"duration":0.042856999999997925,"midi":35,"time":55.7141,"velocity":0.4881889763779528},{"duration":0.042856999999997925,"midi":43,"time":55.7141,"velocity":0.4881889763779528},{"duration":0.042856999999997925,"midi":36,"time":55.7141,"velocity":0.4881889763779528},{"duration":0.042856999999997925,"midi":36,"time":55.7141,"velocity":0.4881889763779528},{"duration":0.042856999999997925,"midi":35,"time":55.7141,"velocity":0.4881889763779528},{"duration":0.042856999999997925,"midi":35,"time":55.7141,"velocity":0.4881889763779528},{"duration":0.042856999999997925,"midi":41,"time":55.7141,"velocity":0.4881889763779528},{"duration":0.042856999999997925,"midi":36,"time":55.7141,"velocity":0.4881889763779528},{"duration":0.042856999999997925,"midi":50,"time":55.885528,"velocity":0.4881889763779528},{"duration":0.042856999999997925,"midi":48,"time":55.885528,"velocity":0.4881889763779528},{"duration":0.042856999999997925,"midi":38,"time":55.885528,"velocity":0.4881889763779528},{"duration":0.042856999999997925,"midi":40,"time":55.885528,"velocity":0.4881889763779528},{"duration":0.042856999999997925,"midi":40,"time":55.885528,"velocity":0.4881889763779528},{"duration":0.042856999999997925,"midi":40,"time":55.885528,"velocity":0.4881889763779528},{"duration":0.042856999999997925,"midi":38,"time":55.885528,"velocity":0.4881889763779528},{"duration":0.042856999999997925,"midi":38,"time":55.885528,"velocity":0.4881889763779528},{"duration":0.042856999999997925,"midi":36,"time":56.056956,"velocity":0.4881889763779528},{"duration":0.042856999999997925,"midi":41,"time":56.056956,"velocity":0.4881889763779528},{"duration":0.042856999999997925,"midi":35,"time":56.056956,"velocity":0.4881889763779528},{"duration":0.042856999999997925,"midi":35,"time":56.056956,"velocity":0.4881889763779528},{"duration":0.042856999999997925,"midi":36,"time":56.056956,"velocity":0.4881889763779528},{"duration":0.042856999999997925,"midi":36,"time":56.056956,"velocity":0.4881889763779528},{"duration":0.042856999999997925,"midi":35,"time":56.056956,"velocity":0.4881889763779528},{"duration":0.042856999999997925,"midi":36,"time":56.056956,"velocity":0.4881889763779528},{"duration":0.042856999999997925,"midi":43,"time":56.056956,"velocity":0.4881889763779528},{"duration":0.042856999999997925,"midi":35,"time":56.056956,"velocity":0.4881889763779528},{"duration":0.042856999999997925,"midi":50,"time":56.228384,"velocity":0.4881889763779528},{"duration":0.042856999999997925,"midi":40,"time":56.228384,"velocity":0.4881889763779528},{"duration":0.042856999999997925,"midi":48,"time":56.228384,"velocity":0.4881889763779528},{"duration":0.042856999999997925,"midi":38,"time":56.228384,"velocity":0.4881889763779528},{"duration":0.042856999999997925,"midi":40,"time":56.228384,"velocity":0.4881889763779528},{"duration":0.042856999999997925,"midi":38,"time":56.228384,"velocity":0.4881889763779528},{"duration":0.042856999999997925,"midi":40,"time":56.228384,"velocity":0.4881889763779528},{"duration":0.042856999999997925,"midi":38,"time":56.228384,"velocity":0.4881889763779528},{"duration":0.042856999999997925,"midi":50,"time":56.314098,"velocity":0.4881889763779528},{"duration":0.042856999999997925,"midi":38,"time":56.314098,"velocity":0.4881889763779528},{"duration":0.042856999999997925,"midi":38,"time":56.314098,"velocity":0.4881889763779528},{"duration":0.042856999999997925,"midi":40,"time":56.314098,"velocity":0.4881889763779528},{"duration":0.042856999999997925,"midi":38,"time":56.314098,"velocity":0.4881889763779528},{"duration":0.042856999999997925,"midi":40,"time":56.314098,"velocity":0.4881889763779528},{"duration":0.042856999999997925,"midi":40,"time":56.314098,"velocity":0.4881889763779528},{"duration":0.042856999999997925,"midi":48,"time":56.314098,"velocity":0.4881889763779528},{"duration":0.04285700000000503,"midi":36,"time":56.399812,"velocity":0.4881889763779528},{"duration":0.04285700000000503,"midi":35,"time":56.399812,"velocity":0.4881889763779528},{"duration":0.04285700000000503,"midi":36,"time":56.399812,"velocity":0.4881889763779528},{"duration":0.04285700000000503,"midi":43,"time":56.399812,"velocity":0.4881889763779528},{"duration":0.04285700000000503,"midi":36,"time":56.399812,"velocity":0.4881889763779528},{"duration":0.04285700000000503,"midi":35,"time":56.399812,"velocity":0.4881889763779528},{"duration":0.04285700000000503,"midi":35,"time":56.399812,"velocity":0.4881889763779528},{"duration":0.04285700000000503,"midi":36,"time":56.399812,"velocity":0.4881889763779528},{"duration":0.04285700000000503,"midi":35,"time":56.399812,"velocity":0.4881889763779528},{"duration":0.04285700000000503,"midi":41,"time":56.399812,"velocity":0.4881889763779528},{"duration":0.04285700000000503,"midi":40,"time":56.571239999999996,"velocity":0.4881889763779528},{"duration":0.04285700000000503,"midi":48,"time":56.571239999999996,"velocity":0.4881889763779528},{"duration":0.04285700000000503,"midi":40,"time":56.571239999999996,"velocity":0.4881889763779528},{"duration":0.04285700000000503,"midi":50,"time":56.571239999999996,"velocity":0.4881889763779528},{"duration":0.04285700000000503,"midi":38,"time":56.571239999999996,"velocity":0.4881889763779528},{"duration":0.04285700000000503,"midi":38,"time":56.571239999999996,"velocity":0.4881889763779528},{"duration":0.04285700000000503,"midi":38,"time":56.571239999999996,"velocity":0.4881889763779528},{"duration":0.04285700000000503,"midi":40,"time":56.571239999999996,"velocity":0.4881889763779528},{"duration":0.042856999999997925,"midi":35,"time":56.914096,"velocity":0.4881889763779528},{"duration":0.042856999999997925,"midi":41,"time":56.914096,"velocity":0.4881889763779528},{"duration":0.042856999999997925,"midi":36,"time":56.914096,"velocity":0.4881889763779528},{"duration":0.042856999999997925,"midi":35,"time":56.914096,"velocity":0.4881889763779528},{"duration":0.042856999999997925,"midi":36,"time":56.914096,"velocity":0.4881889763779528},{"duration":0.042856999999997925,"midi":43,"time":56.914096,"velocity":0.4881889763779528},{"duration":0.042856999999997925,"midi":36,"time":56.914096,"velocity":0.4881889763779528},{"duration":0.042856999999997925,"midi":35,"time":56.914096,"velocity":0.4881889763779528},{"duration":0.042856999999997925,"midi":35,"time":56.914096,"velocity":0.4881889763779528},{"duration":0.042856999999997925,"midi":36,"time":56.914096,"velocity":0.4881889763779528},{"duration":0.042856999999997925,"midi":40,"time":57.256952,"velocity":0.4881889763779528},{"duration":0.042856999999997925,"midi":38,"time":57.256952,"velocity":0.4881889763779528},{"duration":0.042856999999997925,"midi":38,"time":57.256952,"velocity":0.4881889763779528},{"duration":0.042856999999997925,"midi":50,"time":57.256952,"velocity":0.4881889763779528},{"duration":0.042856999999997925,"midi":40,"time":57.256952,"velocity":0.4881889763779528},{"duration":0.042856999999997925,"midi":38,"time":57.256952,"velocity":0.4881889763779528},{"duration":0.042856999999997925,"midi":48,"time":57.256952,"velocity":0.4881889763779528},{"duration":0.042856999999997925,"midi":40,"time":57.256952,"velocity":0.4881889763779528},{"duration":0.042856999999997925,"midi":35,"time":57.771236,"velocity":0.4881889763779528},{"duration":0.042856999999997925,"midi":41,"time":57.771236,"velocity":0.4881889763779528},{"duration":0.042856999999997925,"midi":36,"time":57.771236,"velocity":0.4881889763779528},{"duration":0.042856999999997925,"midi":35,"time":57.771236,"velocity":0.4881889763779528},{"duration":0.042856999999997925,"midi":36,"time":57.771236,"velocity":0.4881889763779528},{"duration":0.042856999999997925,"midi":36,"time":57.771236,"velocity":0.4881889763779528},{"duration":0.042856999999997925,"midi":35,"time":57.771236,"velocity":0.4881889763779528},{"duration":0.042856999999997925,"midi":43,"time":57.771236,"velocity":0.4881889763779528},{"duration":0.042856999999997925,"midi":35,"time":57.771236,"velocity":0.4881889763779528},{"duration":0.042856999999997925,"midi":36,"time":57.771236,"velocity":0.4881889763779528},{"duration":0.042856999999997925,"midi":40,"time":57.942664,"velocity":0.4881889763779528},{"duration":0.042856999999997925,"midi":38,"time":57.942664,"velocity":0.4881889763779528},{"duration":0.042856999999997925,"midi":40,"time":57.942664,"velocity":0.4881889763779528},{"duration":0.042856999999997925,"midi":38,"time":57.942664,"velocity":0.4881889763779528},{"duration":0.042856999999997925,"midi":50,"time":57.942664,"velocity":0.4881889763779528},{"duration":0.042856999999997925,"midi":40,"time":57.942664,"velocity":0.4881889763779528},{"duration":0.042856999999997925,"midi":48,"time":57.942664,"velocity":0.4881889763779528},{"duration":0.042856999999997925,"midi":38,"time":57.942664,"velocity":0.4881889763779528},{"duration":0.042856999999997925,"midi":36,"time":58.28552,"velocity":0.4881889763779528},{"duration":0.042856999999997925,"midi":41,"time":58.28552,"velocity":0.4881889763779528},{"duration":0.042856999999997925,"midi":35,"time":58.28552,"velocity":0.4881889763779528},{"duration":0.042856999999997925,"midi":35,"time":58.28552,"velocity":0.4881889763779528},{"duration":0.042856999999997925,"midi":36,"time":58.28552,"velocity":0.4881889763779528},{"duration":0.042856999999997925,"midi":36,"time":58.28552,"velocity":0.4881889763779528},{"duration":0.042856999999997925,"midi":43,"time":58.28552,"velocity":0.4881889763779528},{"duration":0.042856999999997925,"midi":35,"time":58.28552,"velocity":0.4881889763779528},{"duration":0.042856999999997925,"midi":35,"time":58.28552,"velocity":0.4881889763779528},{"duration":0.042856999999997925,"midi":36,"time":58.28552,"velocity":0.4881889763779528},{"duration":0.04285700000000503,"midi":38,"time":58.628375999999996,"velocity":0.4881889763779528},{"duration":0.04285700000000503,"midi":50,"time":58.628375999999996,"velocity":0.4881889763779528},{"duration":0.04285700000000503,"midi":40,"time":58.628375999999996,"velocity":0.4881889763779528},{"duration":0.04285700000000503,"midi":38,"time":58.628375999999996,"velocity":0.4881889763779528},{"duration":0.04285700000000503,"midi":40,"time":58.628375999999996,"velocity":0.4881889763779528},{"duration":0.04285700000000503,"midi":48,"time":58.628375999999996,"velocity":0.4881889763779528},{"duration":0.04285700000000503,"midi":40,"time":58.628375999999996,"velocity":0.4881889763779528},{"duration":0.04285700000000503,"midi":38,"time":58.628375999999996,"velocity":0.4881889763779528},{"duration":0.042856999999997925,"midi":43,"time":59.14266,"velocity":0.4881889763779528},{"duration":0.042856999999997925,"midi":36,"time":59.14266,"velocity":0.4881889763779528},{"duration":0.042856999999997925,"midi":35,"time":59.14266,"velocity":0.4881889763779528},{"duration":0.042856999999997925,"midi":36,"time":59.14266,"velocity":0.4881889763779528},{"duration":0.042856999999997925,"midi":36,"time":59.14266,"velocity":0.4881889763779528},{"duration":0.042856999999997925,"midi":35,"time":59.14266,"velocity":0.4881889763779528},{"duration":0.042856999999997925,"midi":35,"time":59.14266,"velocity":0.4881889763779528},{"duration":0.042856999999997925,"midi":41,"time":59.14266,"velocity":0.4881889763779528},{"duration":0.042856999999997925,"midi":35,"time":59.14266,"velocity":0.4881889763779528},{"duration":0.042856999999997925,"midi":36,"time":59.14266,"velocity":0.4881889763779528},{"duration":0.042856999999997925,"midi":40,"time":59.314088,"velocity":0.4881889763779528},{"duration":0.042856999999997925,"midi":40,"time":59.314088,"velocity":0.4881889763779528},{"duration":0.042856999999997925,"midi":38,"time":59.314088,"velocity":0.4881889763779528},{"duration":0.042856999999997925,"midi":38,"time":59.314088,"velocity":0.4881889763779528},{"duration":0.042856999999997925,"midi":50,"time":59.314088,"velocity":0.4881889763779528},{"duration":0.042856999999997925,"midi":38,"time":59.314088,"velocity":0.4881889763779528},{"duration":0.042856999999997925,"midi":48,"time":59.314088,"velocity":0.4881889763779528},{"duration":0.042856999999997925,"midi":40,"time":59.314088,"velocity":0.4881889763779528},{"duration":0.04285700000000503,"midi":36,"time":59.485516,"velocity":0.4881889763779528},{"duration":0.04285700000000503,"midi":35,"time":59.485516,"velocity":0.4881889763779528},{"duration":0.04285700000000503,"midi":43,"time":59.485516,"velocity":0.4881889763779528},{"duration":0.04285700000000503,"midi":36,"time":59.485516,"velocity":0.4881889763779528},{"duration":0.04285700000000503,"midi":35,"time":59.485516,"velocity":0.4881889763779528},{"duration":0.04285700000000503,"midi":36,"time":59.485516,"velocity":0.4881889763779528},{"duration":0.04285700000000503,"midi":36,"time":59.485516,"velocity":0.4881889763779528},{"duration":0.04285700000000503,"midi":41,"time":59.485516,"velocity":0.4881889763779528},{"duration":0.04285700000000503,"midi":35,"time":59.485516,"velocity":0.4881889763779528},{"duration":0.04285700000000503,"midi":35,"time":59.485516,"velocity":0.4881889763779528},{"duration":0.04285700000000503,"midi":35,"time":59.656943999999996,"velocity":0.4881889763779528},{"duration":0.04285700000000503,"midi":43,"time":59.656943999999996,"velocity":0.4881889763779528},{"duration":0.04285700000000503,"midi":36,"time":59.656943999999996,"velocity":0.4881889763779528},{"duration":0.04285700000000503,"midi":35,"time":59.656943999999996,"velocity":0.4881889763779528},{"duration":0.04285700000000503,"midi":35,"time":59.656943999999996,"velocity":0.4881889763779528},{"duration":0.04285700000000503,"midi":36,"time":59.656943999999996,"velocity":0.4881889763779528},{"duration":0.04285700000000503,"midi":36,"time":59.656943999999996,"velocity":0.4881889763779528},{"duration":0.04285700000000503,"midi":41,"time":59.656943999999996,"velocity":0.4881889763779528},{"duration":0.04285700000000503,"midi":36,"time":59.656943999999996,"velocity":0.4881889763779528},{"duration":0.04285700000000503,"midi":35,"time":59.656943999999996,"velocity":0.4881889763779528},{"duration":0.042856999999997925,"midi":40,"time":59.9998,"velocity":0.4881889763779528},{"duration":0.042856999999997925,"midi":48,"time":59.9998,"velocity":0.4881889763779528},{"duration":0.042856999999997925,"midi":38,"time":59.9998,"velocity":0.4881889763779528},{"duration":0.042856999999997925,"midi":40,"time":59.9998,"velocity":0.4881889763779528},{"duration":0.042856999999997925,"midi":50,"time":59.9998,"velocity":0.4881889763779528},{"duration":0.042856999999997925,"midi":38,"time":59.9998,"velocity":0.4881889763779528},{"duration":0.042856999999997925,"midi":40,"time":59.9998,"velocity":0.4881889763779528},{"duration":0.042856999999997925,"midi":38,"time":59.9998,"velocity":0.4881889763779528},{"duration":0.04285700000000503,"midi":43,"time":60.514084,"velocity":0.4881889763779528},{"duration":0.04285700000000503,"midi":41,"time":60.514084,"velocity":0.4881889763779528},{"duration":0.04285700000000503,"midi":35,"time":60.514084,"velocity":0.4881889763779528},{"duration":0.04285700000000503,"midi":36,"time":60.514084,"velocity":0.4881889763779528},{"duration":0.04285700000000503,"midi":35,"time":60.514084,"velocity":0.4881889763779528},{"duration":0.04285700000000503,"midi":36,"time":60.514084,"velocity":0.4881889763779528},{"duration":0.04285700000000503,"midi":36,"time":60.514084,"velocity":0.4881889763779528},{"duration":0.04285700000000503,"midi":35,"time":60.514084,"velocity":0.4881889763779528},{"duration":0.04285700000000503,"midi":35,"time":60.514084,"velocity":0.4881889763779528},{"duration":0.04285700000000503,"midi":36,"time":60.514084,"velocity":0.4881889763779528},{"duration":0.04285700000000503,"midi":48,"time":60.685511999999996,"velocity":0.4881889763779528},{"duration":0.04285700000000503,"midi":38,"time":60.685511999999996,"velocity":0.4881889763779528},{"duration":0.04285700000000503,"midi":38,"time":60.685511999999996,"velocity":0.4881889763779528},{"duration":0.04285700000000503,"midi":40,"time":60.685511999999996,"velocity":0.4881889763779528},{"duration":0.04285700000000503,"midi":50,"time":60.685511999999996,"velocity":0.4881889763779528},{"duration":0.04285700000000503,"midi":40,"time":60.685511999999996,"velocity":0.4881889763779528},{"duration":0.04285700000000503,"midi":38,"time":60.685511999999996,"velocity":0.4881889763779528},{"duration":0.04285700000000503,"midi":40,"time":60.685511999999996,"velocity":0.4881889763779528},{"duration":0.042856999999997925,"midi":43,"time":61.028368,"velocity":0.4881889763779528},{"duration":0.042856999999997925,"midi":41,"time":61.028368,"velocity":0.4881889763779528},{"duration":0.042856999999997925,"midi":36,"time":61.028368,"velocity":0.4881889763779528},{"duration":0.042856999999997925,"midi":35,"time":61.028368,"velocity":0.4881889763779528},{"duration":0.042856999999997925,"midi":36,"time":61.028368,"velocity":0.4881889763779528},{"duration":0.042856999999997925,"midi":36,"time":61.028368,"velocity":0.4881889763779528},{"duration":0.042856999999997925,"midi":35,"time":61.028368,"velocity":0.4881889763779528},{"duration":0.042856999999997925,"midi":35,"time":61.028368,"velocity":0.4881889763779528},{"duration":0.042856999999997925,"midi":35,"time":61.028368,"velocity":0.4881889763779528},{"duration":0.042856999999997925,"midi":36,"time":61.028368,"velocity":0.4881889763779528},{"duration":0.042856999999997925,"midi":48,"time":61.371224,"velocity":0.4881889763779528},{"duration":0.042856999999997925,"midi":40,"time":61.371224,"velocity":0.4881889763779528},{"duration":0.042856999999997925,"midi":40,"time":61.371224,"velocity":0.4881889763779528},{"duration":0.042856999999997925,"midi":40,"time":61.371224,"velocity":0.4881889763779528},{"duration":0.042856999999997925,"midi":50,"time":61.371224,"velocity":0.4881889763779528},{"duration":0.042856999999997925,"midi":38,"time":61.371224,"velocity":0.4881889763779528},{"duration":0.042856999999997925,"midi":38,"time":61.371224,"velocity":0.4881889763779528},{"duration":0.042856999999997925,"midi":38,"time":61.371224,"velocity":0.4881889763779528},{"duration":0.042856999999997925,"midi":43,"time":61.885508,"velocity":0.4881889763779528},{"duration":0.042856999999997925,"midi":41,"time":61.885508,"velocity":0.4881889763779528},{"duration":0.042856999999997925,"midi":35,"time":61.885508,"velocity":0.4881889763779528},{"duration":0.042856999999997925,"midi":36,"time":61.885508,"velocity":0.4881889763779528},{"duration":0.042856999999997925,"midi":36,"time":61.885508,"velocity":0.4881889763779528},{"duration":0.042856999999997925,"midi":35,"time":61.885508,"velocity":0.4881889763779528},{"duration":0.042856999999997925,"midi":35,"time":61.885508,"velocity":0.4881889763779528},{"duration":0.042856999999997925,"midi":36,"time":61.885508,"velocity":0.4881889763779528},{"duration":0.042856999999997925,"midi":36,"time":61.885508,"velocity":0.4881889763779528},{"duration":0.042856999999997925,"midi":35,"time":61.885508,"velocity":0.4881889763779528},{"duration":0.04285700000000503,"midi":41,"time":61.971222,"velocity":0.4881889763779528},{"duration":0.04285700000000503,"midi":35,"time":61.971222,"velocity":0.4881889763779528},{"duration":0.04285700000000503,"midi":36,"time":61.971222,"velocity":0.4881889763779528},{"duration":0.04285700000000503,"midi":36,"time":61.971222,"velocity":0.4881889763779528},{"duration":0.04285700000000503,"midi":35,"time":61.971222,"velocity":0.4881889763779528},{"duration":0.04285700000000503,"midi":35,"time":61.971222,"velocity":0.4881889763779528},{"duration":0.04285700000000503,"midi":36,"time":61.971222,"velocity":0.4881889763779528},{"duration":0.04285700000000503,"midi":35,"time":61.971222,"velocity":0.4881889763779528},{"duration":0.04285700000000503,"midi":36,"time":61.971222,"velocity":0.4881889763779528},{"duration":0.04285700000000503,"midi":43,"time":61.971222,"velocity":0.4881889763779528},{"duration":0.042856999999997925,"midi":38,"time":62.056936,"velocity":0.4881889763779528},{"duration":0.042856999999997925,"midi":40,"time":62.056936,"velocity":0.4881889763779528},{"duration":0.042856999999997925,"midi":38,"time":62.056936,"velocity":0.4881889763779528},{"duration":0.042856999999997925,"midi":40,"time":62.056936,"velocity":0.4881889763779528},{"duration":0.042856999999997925,"midi":38,"time":62.056936,"velocity":0.4881889763779528},{"duration":0.042856999999997925,"midi":40,"time":62.056936,"velocity":0.4881889763779528},{"duration":0.042856999999997925,"midi":50,"time":62.056936,"velocity":0.4881889763779528},{"duration":0.042856999999997925,"midi":48,"time":62.056936,"velocity":0.4881889763779528},{"duration":0.042856999999997925,"midi":36,"time":62.228364,"velocity":0.4881889763779528},{"duration":0.042856999999997925,"midi":36,"time":62.228364,"velocity":0.4881889763779528},{"duration":0.042856999999997925,"midi":35,"time":62.228364,"velocity":0.4881889763779528},{"duration":0.042856999999997925,"midi":36,"time":62.228364,"velocity":0.4881889763779528},{"duration":0.042856999999997925,"midi":36,"time":62.228364,"velocity":0.4881889763779528},{"duration":0.042856999999997925,"midi":43,"time":62.228364,"velocity":0.4881889763779528},{"duration":0.042856999999997925,"midi":41,"time":62.228364,"velocity":0.4881889763779528},{"duration":0.042856999999997925,"midi":35,"time":62.228364,"velocity":0.4881889763779528},{"duration":0.042856999999997925,"midi":35,"time":62.228364,"velocity":0.4881889763779528},{"duration":0.042856999999997925,"midi":35,"time":62.228364,"velocity":0.4881889763779528},{"duration":0.042856999999997925,"midi":36,"time":62.399792,"velocity":0.4881889763779528},{"duration":0.042856999999997925,"midi":35,"time":62.399792,"velocity":0.4881889763779528},{"duration":0.042856999999997925,"midi":35,"time":62.399792,"velocity":0.4881889763779528},{"duration":0.042856999999997925,"midi":35,"time":62.399792,"velocity":0.4881889763779528},{"duration":0.042856999999997925,"midi":36,"time":62.399792,"velocity":0.4881889763779528},{"duration":0.042856999999997925,"midi":35,"time":62.399792,"velocity":0.4881889763779528},{"duration":0.042856999999997925,"midi":43,"time":62.399792,"velocity":0.4881889763779528},{"duration":0.042856999999997925,"midi":36,"time":62.399792,"velocity":0.4881889763779528},{"duration":0.042856999999997925,"midi":41,"time":62.399792,"velocity":0.4881889763779528},{"duration":0.042856999999997925,"midi":36,"time":62.399792,"velocity":0.4881889763779528},{"duration":0.04285700000000503,"midi":40,"time":62.742647999999996,"velocity":0.4881889763779528},{"duration":0.04285700000000503,"midi":40,"time":62.742647999999996,"velocity":0.4881889763779528},{"duration":0.04285700000000503,"midi":40,"time":62.742647999999996,"velocity":0.4881889763779528},{"duration":0.04285700000000503,"midi":48,"time":62.742647999999996,"velocity":0.4881889763779528},{"duration":0.04285700000000503,"midi":50,"time":62.742647999999996,"velocity":0.4881889763779528},{"duration":0.04285700000000503,"midi":38,"time":62.742647999999996,"velocity":0.4881889763779528},{"duration":0.04285700000000503,"midi":38,"time":62.742647999999996,"velocity":0.4881889763779528},{"duration":0.04285700000000503,"midi":38,"time":62.742647999999996,"velocity":0.4881889763779528},{"duration":0.042856999999997925,"midi":43,"time":63.256932,"velocity":0.4881889763779528},{"duration":0.042856999999997925,"midi":35,"time":63.256932,"velocity":0.4881889763779528},{"duration":0.042856999999997925,"midi":35,"time":63.256932,"velocity":0.4881889763779528},{"duration":0.042856999999997925,"midi":36,"time":63.256932,"velocity":0.4881889763779528},{"duration":0.042856999999997925,"midi":36,"time":63.256932,"velocity":0.4881889763779528},{"duration":0.042856999999997925,"midi":35,"time":63.256932,"velocity":0.4881889763779528},{"duration":0.042856999999997925,"midi":35,"time":63.256932,"velocity":0.4881889763779528},{"duration":0.042856999999997925,"midi":36,"time":63.256932,"velocity":0.4881889763779528},{"duration":0.042856999999997925,"midi":41,"time":63.256932,"velocity":0.4881889763779528},{"duration":0.042856999999997925,"midi":36,"time":63.256932,"velocity":0.4881889763779528},{"duration":0.042856999999997925,"midi":40,"time":63.42836,"velocity":0.4881889763779528},{"duration":0.042856999999997925,"midi":38,"time":63.42836,"velocity":0.4881889763779528},{"duration":0.042856999999997925,"midi":40,"time":63.42836,"velocity":0.4881889763779528},{"duration":0.042856999999997925,"midi":38,"time":63.42836,"velocity":0.4881889763779528},{"duration":0.042856999999997925,"midi":38,"time":63.42836,"velocity":0.4881889763779528},{"duration":0.042856999999997925,"midi":40,"time":63.42836,"velocity":0.4881889763779528},{"duration":0.042856999999997925,"midi":50,"time":63.42836,"velocity":0.4881889763779528},{"duration":0.04285700000000503,"midi":36,"time":63.771215999999995,"velocity":0.4881889763779528},{"duration":0.04285700000000503,"midi":35,"time":63.771215999999995,"velocity":0.4881889763779528},{"duration":0.04285700000000503,"midi":41,"time":63.771215999999995,"velocity":0.4881889763779528},{"duration":0.04285700000000503,"midi":35,"time":63.771215999999995,"velocity":0.4881889763779528},{"duration":0.04285700000000503,"midi":35,"time":63.771215999999995,"velocity":0.4881889763779528},{"duration":0.04285700000000503,"midi":36,"time":63.771215999999995,"velocity":0.4881889763779528},{"duration":0.04285700000000503,"midi":36,"time":63.771215999999995,"velocity":0.4881889763779528},{"duration":0.04285700000000503,"midi":36,"time":63.771215999999995,"velocity":0.4881889763779528},{"duration":0.04285700000000503,"midi":43,"time":63.771215999999995,"velocity":0.4881889763779528},{"duration":0.04285700000000503,"midi":35,"time":63.771215999999995,"velocity":0.4881889763779528},{"duration":0.042857000000012135,"midi":38,"time":64.114072,"velocity":0.4881889763779528},{"duration":0.042857000000012135,"midi":48,"time":64.114072,"velocity":0.4881889763779528},{"duration":0.042857000000012135,"midi":40,"time":64.114072,"velocity":0.4881889763779528},{"duration":0.042857000000012135,"midi":50,"time":64.114072,"velocity":0.4881889763779528},{"duration":0.042857000000012135,"midi":38,"time":64.114072,"velocity":0.4881889763779528},{"duration":0.042857000000012135,"midi":40,"time":64.114072,"velocity":0.4881889763779528},{"duration":0.042857000000012135,"midi":40,"time":64.114072,"velocity":0.4881889763779528},{"duration":0.042857000000012135,"midi":38,"time":64.114072,"velocity":0.4881889763779528},{"duration":0.042856999999997925,"midi":36,"time":64.628356,"velocity":0.4881889763779528},{"duration":0.042856999999997925,"midi":35,"time":64.628356,"velocity":0.4881889763779528},{"duration":0.042856999999997925,"midi":36,"time":64.628356,"velocity":0.4881889763779528},{"duration":0.042856999999997925,"midi":35,"time":64.628356,"velocity":0.4881889763779528},{"duration":0.042856999999997925,"midi":43,"time":64.628356,"velocity":0.4881889763779528},{"duration":0.042856999999997925,"midi":41,"time":64.628356,"velocity":0.4881889763779528},{"duration":0.042856999999997925,"midi":36,"time":64.628356,"velocity":0.4881889763779528},{"duration":0.042856999999997925,"midi":36,"time":64.628356,"velocity":0.4881889763779528},{"duration":0.042856999999997925,"midi":35,"time":64.628356,"velocity":0.4881889763779528},{"duration":0.042856999999997925,"midi":35,"time":64.628356,"velocity":0.4881889763779528},{"duration":0.042856999999997925,"midi":48,"time":64.799784,"velocity":0.4881889763779528},{"duration":0.042856999999997925,"midi":40,"time":64.799784,"velocity":0.4881889763779528},{"duration":0.042856999999997925,"midi":50,"time":64.799784,"velocity":0.4881889763779528},{"duration":0.042856999999997925,"midi":40,"time":64.799784,"velocity":0.4881889763779528},{"duration":0.042856999999997925,"midi":40,"time":64.799784,"velocity":0.4881889763779528},{"duration":0.042856999999997925,"midi":38,"time":64.799784,"velocity":0.4881889763779528},{"duration":0.042856999999997925,"midi":38,"time":64.799784,"velocity":0.4881889763779528},{"duration":0.042856999999997925,"midi":38,"time":64.799784,"velocity":0.4881889763779528},{"duration":0.042856999999997925,"midi":41,"time":64.971212,"velocity":0.4881889763779528},{"duration":0.042856999999997925,"midi":36,"time":64.971212,"velocity":0.4881889763779528},{"duration":0.042856999999997925,"midi":36,"time":64.971212,"velocity":0.4881889763779528},{"duration":0.042856999999997925,"midi":35,"time":64.971212,"velocity":0.4881889763779528},{"duration":0.042856999999997925,"midi":43,"time":64.971212,"velocity":0.4881889763779528},{"duration":0.042856999999997925,"midi":36,"time":64.971212,"velocity":0.4881889763779528},{"duration":0.042856999999997925,"midi":35,"time":64.971212,"velocity":0.4881889763779528},{"duration":0.042856999999997925,"midi":35,"time":64.971212,"velocity":0.4881889763779528},{"duration":0.042856999999997925,"midi":36,"time":64.971212,"velocity":0.4881889763779528},{"duration":0.042856999999997925,"midi":35,"time":64.971212,"velocity":0.4881889763779528},{"duration":0.042856999999997925,"midi":43,"time":65.14264,"velocity":0.4881889763779528},{"duration":0.042856999999997925,"midi":41,"time":65.14264,"velocity":0.4881889763779528},{"duration":0.042856999999997925,"midi":35,"time":65.14264,"velocity":0.4881889763779528},{"duration":0.042856999999997925,"midi":36,"time":65.14264,"velocity":0.4881889763779528},{"duration":0.042856999999997925,"midi":35,"time":65.14264,"velocity":0.4881889763779528},{"duration":0.042856999999997925,"midi":36,"time":65.14264,"velocity":0.4881889763779528},{"duration":0.042856999999997925,"midi":35,"time":65.14264,"velocity":0.4881889763779528},{"duration":0.042856999999997925,"midi":35,"time":65.14264,"velocity":0.4881889763779528},{"duration":0.042856999999997925,"midi":36,"time":65.14264,"velocity":0.4881889763779528},{"duration":0.042856999999997925,"midi":36,"time":65.14264,"velocity":0.4881889763779528},{"duration":0.042856999999997925,"midi":48,"time":65.485496,"velocity":0.4881889763779528},{"duration":0.042856999999997925,"midi":38,"time":65.485496,"velocity":0.4881889763779528},{"duration":0.042856999999997925,"midi":40,"time":65.485496,"velocity":0.4881889763779528},{"duration":0.042856999999997925,"midi":40,"time":65.485496,"velocity":0.4881889763779528},{"duration":0.042856999999997925,"midi":38,"time":65.485496,"velocity":0.4881889763779528},{"duration":0.042856999999997925,"midi":50,"time":65.485496,"velocity":0.4881889763779528},{"duration":0.042856999999997925,"midi":38,"time":65.485496,"velocity":0.4881889763779528},{"duration":0.042856999999997925,"midi":40,"time":65.485496,"velocity":0.4881889763779528},{"duration":0.042856999999997925,"midi":38,"time":65.828352,"velocity":0.4881889763779528},{"duration":0.042856999999997925,"midi":50,"time":65.828352,"velocity":0.4881889763779528},{"duration":0.042856999999997925,"midi":38,"time":65.828352,"velocity":0.4881889763779528},{"duration":0.042856999999997925,"midi":40,"time":65.828352,"velocity":0.4881889763779528},{"duration":0.042856999999997925,"midi":38,"time":65.828352,"velocity":0.4881889763779528},{"duration":0.042856999999997925,"midi":40,"time":65.828352,"velocity":0.4881889763779528},{"duration":0.042856999999997925,"midi":40,"time":65.828352,"velocity":0.4881889763779528},{"duration":0.042856999999997925,"midi":48,"time":65.828352,"velocity":0.4881889763779528},{"duration":0.042856999999997925,"midi":40,"time":65.914066,"velocity":0.4881889763779528},{"duration":0.042856999999997925,"midi":38,"time":65.914066,"velocity":0.4881889763779528},{"duration":0.042856999999997925,"midi":50,"time":65.914066,"velocity":0.4881889763779528},{"duration":0.042856999999997925,"midi":48,"time":65.914066,"velocity":0.4881889763779528},{"duration":0.042856999999997925,"midi":38,"time":65.914066,"velocity":0.4881889763779528},{"duration":0.042856999999997925,"midi":40,"time":65.914066,"velocity":0.4881889763779528},{"duration":0.042856999999997925,"midi":40,"time":65.914066,"velocity":0.4881889763779528},{"duration":0.042856999999997925,"midi":38,"time":65.914066,"velocity":0.4881889763779528},{"duration":0.042856999999997925,"midi":41,"time":65.99978,"velocity":0.4881889763779528},{"duration":0.042856999999997925,"midi":36,"time":65.99978,"velocity":0.4881889763779528},{"duration":0.042856999999997925,"midi":35,"time":65.99978,"velocity":0.4881889763779528},{"duration":0.042856999999997925,"midi":43,"time":65.99978,"velocity":0.4881889763779528},{"duration":0.042856999999997925,"midi":36,"time":65.99978,"velocity":0.4881889763779528},{"duration":0.042856999999997925,"midi":36,"time":65.99978,"velocity":0.4881889763779528},{"duration":0.042856999999997925,"midi":35,"time":65.99978,"velocity":0.4881889763779528},{"duration":0.042856999999997925,"midi":35,"time":65.99978,"velocity":0.4881889763779528},{"duration":0.042856999999997925,"midi":36,"time":65.99978,"velocity":0.4881889763779528},{"duration":0.042856999999997925,"midi":35,"time":65.99978,"velocity":0.4881889763779528},{"duration":0.042857000000012135,"midi":50,"time":66.171208,"velocity":0.4881889763779528},{"duration":0.042857000000012135,"midi":40,"time":66.171208,"velocity":0.4881889763779528},{"duration":0.042857000000012135,"midi":40,"time":66.171208,"velocity":0.4881889763779528},{"duration":0.042857000000012135,"midi":38,"time":66.171208,"velocity":0.4881889763779528},{"duration":0.042857000000012135,"midi":48,"time":66.171208,"velocity":0.4881889763779528},{"duration":0.042857000000012135,"midi":38,"time":66.171208,"velocity":0.4881889763779528},{"duration":0.042857000000012135,"midi":38,"time":66.171208,"velocity":0.4881889763779528},{"duration":0.042857000000012135,"midi":40,"time":66.171208,"velocity":0.4881889763779528},{"duration":0.042856999999997925,"midi":43,"time":66.342636,"velocity":0.4881889763779528},{"duration":0.042856999999997925,"midi":36,"time":66.342636,"velocity":0.4881889763779528},{"duration":0.042856999999997925,"midi":35,"time":66.342636,"velocity":0.4881889763779528},{"duration":0.042856999999997925,"midi":36,"time":66.342636,"velocity":0.4881889763779528},{"duration":0.042856999999997925,"midi":35,"time":66.342636,"velocity":0.4881889763779528},{"duration":0.042856999999997925,"midi":36,"time":66.342636,"velocity":0.4881889763779528},{"duration":0.042856999999997925,"midi":41,"time":66.342636,"velocity":0.4881889763779528},{"duration":0.042856999999997925,"midi":35,"time":66.342636,"velocity":0.4881889763779528},{"duration":0.042856999999997925,"midi":35,"time":66.342636,"velocity":0.4881889763779528},{"duration":0.042856999999997925,"midi":36,"time":66.342636,"velocity":0.4881889763779528},{"duration":0.042856999999997925,"midi":52,"time":66.514064,"velocity":0.4881889763779528},{"duration":0.042856999999997925,"midi":35,"time":66.514064,"velocity":0.4881889763779528},{"duration":0.042856999999997925,"midi":36,"time":66.514064,"velocity":0.4881889763779528},{"duration":0.042856999999997925,"midi":43,"time":66.514064,"velocity":0.4881889763779528},{"duration":0.042856999999997925,"midi":53,"time":66.514064,"velocity":0.4881889763779528},{"duration":0.042856999999997925,"midi":36,"time":66.514064,"velocity":0.4881889763779528},{"duration":0.042856999999997925,"midi":35,"time":66.514064,"velocity":0.4881889763779528},{"duration":0.042856999999997925,"midi":35,"time":66.514064,"velocity":0.4881889763779528},{"duration":0.042856999999997925,"midi":41,"time":66.514064,"velocity":0.4881889763779528},{"duration":0.042856999999997925,"midi":36,"time":66.514064,"velocity":0.4881889763779528},{"duration":0.042856999999997925,"midi":35,"time":66.514064,"velocity":0.4881889763779528},{"duration":0.042856999999997925,"midi":36,"time":66.514064,"velocity":0.4881889763779528},{"duration":0.042856999999997925,"midi":43,"time":67.885488,"velocity":0.4881889763779528},{"duration":0.042856999999997925,"midi":41,"time":67.885488,"velocity":0.4881889763779528},{"duration":0.042856999999997925,"midi":41,"time":67.885488,"velocity":0.4881889763779528},{"duration":0.042856999999997925,"midi":49,"time":67.885488,"velocity":0.4881889763779528},{"duration":0.042856999999997925,"midi":43,"time":67.885488,"velocity":0.4881889763779528},{"duration":0.042856999999997925,"midi":36,"time":67.885488,"velocity":0.4881889763779528},{"duration":0.042856999999997925,"midi":52,"time":67.885488,"velocity":0.4881889763779528},{"duration":0.042856999999997925,"midi":43,"time":67.885488,"velocity":0.4881889763779528},{"duration":0.042856999999997925,"midi":43,"time":67.885488,"velocity":0.4881889763779528},{"duration":0.042856999999997925,"midi":55,"time":67.885488,"velocity":0.4881889763779528},{"duration":0.042856999999997925,"midi":36,"time":67.885488,"velocity":0.4881889763779528},{"duration":0.042856999999997925,"midi":41,"time":67.885488,"velocity":0.4881889763779528},{"duration":0.042856999999997925,"midi":36,"time":67.885488,"velocity":0.4881889763779528},{"duration":0.042856999999997925,"midi":36,"time":67.885488,"velocity":0.4881889763779528},{"duration":0.042856999999997925,"midi":55,"time":67.885488,"velocity":0.4881889763779528},{"duration":0.042856999999997925,"midi":35,"time":67.885488,"velocity":0.4881889763779528},{"duration":0.042856999999997925,"midi":49,"time":67.885488,"velocity":0.4881889763779528},{"duration":0.042856999999997925,"midi":36,"time":67.885488,"velocity":0.4881889763779528},{"duration":0.042856999999997925,"midi":41,"time":67.885488,"velocity":0.4881889763779528},{"duration":0.042856999999997925,"midi":35,"time":67.885488,"velocity":0.4881889763779528},{"duration":0.042856999999997925,"midi":36,"time":67.885488,"velocity":0.4881889763779528},{"duration":0.042856999999997925,"midi":36,"time":67.885488,"velocity":0.4881889763779528},{"duration":0.042856999999997925,"midi":35,"time":67.885488,"velocity":0.4881889763779528},{"duration":0.042856999999997925,"midi":35,"time":67.885488,"velocity":0.4881889763779528},{"duration":0.042856999999997925,"midi":41,"time":67.885488,"velocity":0.4881889763779528},{"duration":0.042856999999997925,"midi":35,"time":67.885488,"velocity":0.4881889763779528},{"duration":0.042856999999997925,"midi":35,"time":67.885488,"velocity":0.4881889763779528},{"duration":0.042856999999997925,"midi":57,"time":67.885488,"velocity":0.4881889763779528},{"duration":0.042856999999997925,"midi":35,"time":67.885488,"velocity":0.4881889763779528},{"duration":0.042856999999997925,"midi":43,"time":67.885488,"velocity":0.4881889763779528},{"duration":0.042856999999997925,"midi":36,"time":67.885488,"velocity":0.4881889763779528},{"duration":0.042856999999997925,"midi":35,"time":67.885488,"velocity":0.4881889763779528},{"duration":0.042856999999997925,"midi":36,"time":67.885488,"velocity":0.4881889763779528},{"duration":0.042856999999997925,"midi":35,"time":67.885488,"velocity":0.4881889763779528},{"duration":0.042856999999997925,"midi":35,"time":67.885488,"velocity":0.4881889763779528},{"duration":0.042856999999997925,"midi":36,"time":67.885488,"velocity":0.4881889763779528},{"duration":0.042856999999997925,"midi":40,"time":68.5712,"velocity":0.4881889763779528},{"duration":0.042856999999997925,"midi":38,"time":68.5712,"velocity":0.4881889763779528},{"duration":0.042856999999997925,"midi":38,"time":68.5712,"velocity":0.4881889763779528},{"duration":0.042856999999997925,"midi":38,"time":68.5712,"velocity":0.4881889763779528},{"duration":0.042856999999997925,"midi":38,"time":68.5712,"velocity":0.4881889763779528},{"duration":0.042856999999997925,"midi":40,"time":68.5712,"velocity":0.4881889763779528},{"duration":0.042856999999997925,"midi":38,"time":68.5712,"velocity":0.4881889763779528},{"duration":0.042856999999997925,"midi":40,"time":68.5712,"velocity":0.4881889763779528},{"duration":0.042856999999997925,"midi":38,"time":68.5712,"velocity":0.4881889763779528},{"duration":0.042856999999997925,"midi":40,"time":68.5712,"velocity":0.4881889763779528},{"duration":0.042856999999997925,"midi":40,"time":68.5712,"velocity":0.4881889763779528},{"duration":0.042856999999997925,"midi":40,"time":68.5712,"velocity":0.4881889763779528},{"duration":0.042856999999997925,"midi":35,"time":69.42834,"velocity":0.4881889763779528},{"duration":0.042856999999997925,"midi":43,"time":69.42834,"velocity":0.4881889763779528},{"duration":0.042856999999997925,"midi":35,"time":69.42834,"velocity":0.4881889763779528},{"duration":0.042856999999997925,"midi":41,"time":69.42834,"velocity":0.4881889763779528},{"duration":0.042856999999997925,"midi":35,"time":69.42834,"velocity":0.4881889763779528},{"duration":0.042856999999997925,"midi":36,"time":69.42834,"velocity":0.4881889763779528},{"duration":0.042856999999997925,"midi":36,"time":69.42834,"velocity":0.4881889763779528},{"duration":0.042856999999997925,"midi":41,"time":69.42834,"velocity":0.4881889763779528},{"duration":0.042856999999997925,"midi":36,"time":69.42834,"velocity":0.4881889763779528},{"duration":0.042856999999997925,"midi":35,"time":69.42834,"velocity":0.4881889763779528},{"duration":0.042856999999997925,"midi":41,"time":69.42834,"velocity":0.4881889763779528},{"duration":0.042856999999997925,"midi":36,"time":69.42834,"velocity":0.4881889763779528},{"duration":0.042856999999997925,"midi":41,"time":69.42834,"velocity":0.4881889763779528},{"duration":0.042856999999997925,"midi":35,"time":69.42834,"velocity":0.4881889763779528},{"duration":0.042856999999997925,"midi":43,"time":69.42834,"velocity":0.4881889763779528},{"duration":0.042856999999997925,"midi":36,"time":69.42834,"velocity":0.4881889763779528},{"duration":0.042856999999997925,"midi":35,"time":69.42834,"velocity":0.4881889763779528},{"duration":0.042856999999997925,"midi":43,"time":69.42834,"velocity":0.4881889763779528},{"duration":0.042856999999997925,"midi":35,"time":69.42834,"velocity":0.4881889763779528},{"duration":0.042856999999997925,"midi":36,"time":69.42834,"velocity":0.4881889763779528},{"duration":0.042856999999997925,"midi":43,"time":69.42834,"velocity":0.4881889763779528},{"duration":0.042856999999997925,"midi":41,"time":69.42834,"velocity":0.4881889763779528},{"duration":0.042856999999997925,"midi":36,"time":69.42834,"velocity":0.4881889763779528},{"duration":0.042856999999997925,"midi":35,"time":69.42834,"velocity":0.4881889763779528},{"duration":0.042856999999997925,"midi":36,"time":69.42834,"velocity":0.4881889763779528},{"duration":0.042856999999997925,"midi":35,"time":69.42834,"velocity":0.4881889763779528},{"duration":0.042856999999997925,"midi":36,"time":69.42834,"velocity":0.4881889763779528},{"duration":0.042856999999997925,"midi":35,"time":69.42834,"velocity":0.4881889763779528},{"duration":0.042856999999997925,"midi":43,"time":69.42834,"velocity":0.4881889763779528},{"duration":0.042856999999997925,"midi":36,"time":69.42834,"velocity":0.4881889763779528},{"duration":0.042856999999997925,"midi":36,"time":69.599768,"velocity":0.4881889763779528},{"duration":0.042856999999997925,"midi":35,"time":69.599768,"velocity":0.4881889763779528},{"duration":0.042856999999997925,"midi":43,"time":69.599768,"velocity":0.4881889763779528},{"duration":0.042856999999997925,"midi":35,"time":69.599768,"velocity":0.4881889763779528},{"duration":0.042856999999997925,"midi":35,"time":69.599768,"velocity":0.4881889763779528},{"duration":0.042856999999997925,"midi":36,"time":69.599768,"velocity":0.4881889763779528},{"duration":0.042856999999997925,"midi":41,"time":69.599768,"velocity":0.4881889763779528},{"duration":0.042856999999997925,"midi":36,"time":69.599768,"velocity":0.4881889763779528},{"duration":0.042856999999997925,"midi":41,"time":69.599768,"velocity":0.4881889763779528},{"duration":0.042856999999997925,"midi":36,"time":69.599768,"velocity":0.4881889763779528},{"duration":0.042856999999997925,"midi":35,"time":69.599768,"velocity":0.4881889763779528},{"duration":0.042856999999997925,"midi":36,"time":69.599768,"velocity":0.4881889763779528},{"duration":0.042856999999997925,"midi":43,"time":69.599768,"velocity":0.4881889763779528},{"duration":0.042856999999997925,"midi":36,"time":69.599768,"velocity":0.4881889763779528},{"duration":0.042856999999997925,"midi":43,"time":69.599768,"velocity":0.4881889763779528},{"duration":0.042856999999997925,"midi":35,"time":69.599768,"velocity":0.4881889763779528},{"duration":0.042856999999997925,"midi":35,"time":69.599768,"velocity":0.4881889763779528},{"duration":0.042856999999997925,"midi":36,"time":69.599768,"velocity":0.4881889763779528},{"duration":0.042856999999997925,"midi":35,"time":69.599768,"velocity":0.4881889763779528},{"duration":0.042856999999997925,"midi":41,"time":69.599768,"velocity":0.4881889763779528},{"duration":0.042856999999997925,"midi":35,"time":69.599768,"velocity":0.4881889763779528},{"duration":0.042856999999997925,"midi":36,"time":69.599768,"velocity":0.4881889763779528},{"duration":0.042856999999997925,"midi":35,"time":69.599768,"velocity":0.4881889763779528},{"duration":0.042856999999997925,"midi":41,"time":69.599768,"velocity":0.4881889763779528},{"duration":0.042856999999997925,"midi":41,"time":69.599768,"velocity":0.4881889763779528},{"duration":0.042856999999997925,"midi":36,"time":69.599768,"velocity":0.4881889763779528},{"duration":0.042856999999997925,"midi":43,"time":69.599768,"velocity":0.4881889763779528},{"duration":0.042856999999997925,"midi":35,"time":69.599768,"velocity":0.4881889763779528},{"duration":0.042856999999997925,"midi":43,"time":69.599768,"velocity":0.4881889763779528},{"duration":0.042856999999997925,"midi":36,"time":69.599768,"velocity":0.4881889763779528},{"duration":0.042856999999997925,"midi":40,"time":69.942624,"velocity":0.4881889763779528},{"duration":0.042856999999997925,"midi":40,"time":69.942624,"velocity":0.4881889763779528},{"duration":0.042856999999997925,"midi":38,"time":69.942624,"velocity":0.4881889763779528},{"duration":0.042856999999997925,"midi":38,"time":69.942624,"velocity":0.4881889763779528},{"duration":0.042856999999997925,"midi":40,"time":69.942624,"velocity":0.4881889763779528},{"duration":0.042856999999997925,"midi":38,"time":69.942624,"velocity":0.4881889763779528},{"duration":0.042856999999997925,"midi":38,"time":69.942624,"velocity":0.4881889763779528},{"duration":0.042856999999997925,"midi":38,"time":69.942624,"velocity":0.4881889763779528},{"duration":0.042856999999997925,"midi":40,"time":69.942624,"velocity":0.4881889763779528},{"duration":0.042856999999997925,"midi":38,"time":69.942624,"velocity":0.4881889763779528},{"duration":0.042856999999997925,"midi":40,"time":69.942624,"velocity":0.4881889763779528},{"duration":0.042856999999997925,"midi":40,"time":69.942624,"velocity":0.4881889763779528},{"duration":0.042856999999997925,"midi":36,"time":70.628336,"velocity":0.4881889763779528},{"duration":0.042856999999997925,"midi":41,"time":70.628336,"velocity":0.4881889763779528},{"duration":0.042856999999997925,"midi":35,"time":70.628336,"velocity":0.4881889763779528},{"duration":0.042856999999997925,"midi":36,"time":70.628336,"velocity":0.4881889763779528},{"duration":0.042856999999997925,"midi":35,"time":70.628336,"velocity":0.4881889763779528},{"duration":0.042856999999997925,"midi":35,"time":70.628336,"velocity":0.4881889763779528},{"duration":0.042856999999997925,"midi":35,"time":70.628336,"velocity":0.4881889763779528},{"duration":0.042856999999997925,"midi":36,"time":70.628336,"velocity":0.4881889763779528},{"duration":0.042856999999997925,"midi":36,"time":70.628336,"velocity":0.4881889763779528},{"duration":0.042856999999997925,"midi":35,"time":70.628336,"velocity":0.4881889763779528},{"duration":0.042856999999997925,"midi":43,"time":70.628336,"velocity":0.4881889763779528},{"duration":0.042856999999997925,"midi":41,"time":70.628336,"velocity":0.4881889763779528},{"duration":0.042856999999997925,"midi":43,"time":70.628336,"velocity":0.4881889763779528},{"duration":0.042856999999997925,"midi":36,"time":70.628336,"velocity":0.4881889763779528},{"duration":0.042856999999997925,"midi":43,"time":70.628336,"velocity":0.4881889763779528},{"duration":0.042856999999997925,"midi":43,"time":70.628336,"velocity":0.4881889763779528},{"duration":0.042856999999997925,"midi":35,"time":70.628336,"velocity":0.4881889763779528},{"duration":0.042856999999997925,"midi":35,"time":70.628336,"velocity":0.4881889763779528},{"duration":0.042856999999997925,"midi":36,"time":70.628336,"velocity":0.4881889763779528},{"duration":0.042856999999997925,"midi":41,"time":70.628336,"velocity":0.4881889763779528},{"duration":0.042856999999997925,"midi":36,"time":70.628336,"velocity":0.4881889763779528},{"duration":0.042856999999997925,"midi":36,"time":70.628336,"velocity":0.4881889763779528},{"duration":0.042856999999997925,"midi":35,"time":70.628336,"velocity":0.4881889763779528},{"duration":0.042856999999997925,"midi":43,"time":70.628336,"velocity":0.4881889763779528},{"duration":0.042856999999997925,"midi":36,"time":70.628336,"velocity":0.4881889763779528},{"duration":0.042856999999997925,"midi":36,"time":70.628336,"velocity":0.4881889763779528},{"duration":0.042856999999997925,"midi":35,"time":70.628336,"velocity":0.4881889763779528},{"duration":0.042856999999997925,"midi":41,"time":70.628336,"velocity":0.4881889763779528},{"duration":0.042856999999997925,"midi":41,"time":70.628336,"velocity":0.4881889763779528},{"duration":0.042856999999997925,"midi":35,"time":70.628336,"velocity":0.4881889763779528},{"duration":0.042856999999997925,"midi":40,"time":71.314048,"velocity":0.4881889763779528},{"duration":0.042856999999997925,"midi":38,"time":71.314048,"velocity":0.4881889763779528},{"duration":0.042856999999997925,"midi":40,"time":71.314048,"velocity":0.4881889763779528},{"duration":0.042856999999997925,"midi":40,"time":71.314048,"velocity":0.4881889763779528},{"duration":0.042856999999997925,"midi":38,"time":71.314048,"velocity":0.4881889763779528},{"duration":0.042856999999997925,"midi":38,"time":71.314048,"velocity":0.4881889763779528},{"duration":0.042856999999997925,"midi":40,"time":71.314048,"velocity":0.4881889763779528},{"duration":0.042856999999997925,"midi":38,"time":71.314048,"velocity":0.4881889763779528},{"duration":0.042856999999997925,"midi":38,"time":71.314048,"velocity":0.4881889763779528},{"duration":0.042856999999997925,"midi":40,"time":71.314048,"velocity":0.4881889763779528},{"duration":0.042856999999997925,"midi":40,"time":71.314048,"velocity":0.4881889763779528},{"duration":0.042856999999997925,"midi":38,"time":71.314048,"velocity":0.4881889763779528},{"duration":0.042856999999997925,"midi":43,"time":72.171188,"velocity":0.4881889763779528},{"duration":0.042856999999997925,"midi":41,"time":72.171188,"velocity":0.4881889763779528},{"duration":0.042856999999997925,"midi":36,"time":72.171188,"velocity":0.4881889763779528},{"duration":0.042856999999997925,"midi":35,"time":72.171188,"velocity":0.4881889763779528},{"duration":0.042856999999997925,"midi":43,"time":72.171188,"velocity":0.4881889763779528},{"duration":0.042856999999997925,"midi":35,"time":72.171188,"velocity":0.4881889763779528},{"duration":0.042856999999997925,"midi":35,"time":72.171188,"velocity":0.4881889763779528},{"duration":0.042856999999997925,"midi":35,"time":72.171188,"velocity":0.4881889763779528},{"duration":0.042856999999997925,"midi":43,"time":72.171188,"velocity":0.4881889763779528},{"duration":0.042856999999997925,"midi":35,"time":72.171188,"velocity":0.4881889763779528},{"duration":0.042856999999997925,"midi":36,"time":72.171188,"velocity":0.4881889763779528},{"duration":0.042856999999997925,"midi":41,"time":72.171188,"velocity":0.4881889763779528},{"duration":0.042856999999997925,"midi":35,"time":72.171188,"velocity":0.4881889763779528},{"duration":0.042856999999997925,"midi":36,"time":72.171188,"velocity":0.4881889763779528},{"duration":0.042856999999997925,"midi":43,"time":72.171188,"velocity":0.4881889763779528},{"duration":0.042856999999997925,"midi":36,"time":72.171188,"velocity":0.4881889763779528},{"duration":0.042856999999997925,"midi":36,"time":72.171188,"velocity":0.4881889763779528},{"duration":0.042856999999997925,"midi":36,"time":72.171188,"velocity":0.4881889763779528},{"duration":0.042856999999997925,"midi":36,"time":72.171188,"velocity":0.4881889763779528},{"duration":0.042856999999997925,"midi":36,"time":72.171188,"velocity":0.4881889763779528},{"duration":0.042856999999997925,"midi":43,"time":72.171188,"velocity":0.4881889763779528},{"duration":0.042856999999997925,"midi":35,"time":72.171188,"velocity":0.4881889763779528},{"duration":0.042856999999997925,"midi":41,"time":72.171188,"velocity":0.4881889763779528},{"duration":0.042856999999997925,"midi":36,"time":72.171188,"velocity":0.4881889763779528},{"duration":0.042856999999997925,"midi":35,"time":72.171188,"velocity":0.4881889763779528},{"duration":0.042856999999997925,"midi":36,"time":72.171188,"velocity":0.4881889763779528},{"duration":0.042856999999997925,"midi":35,"time":72.171188,"velocity":0.4881889763779528},{"duration":0.042856999999997925,"midi":41,"time":72.171188,"velocity":0.4881889763779528},{"duration":0.042856999999997925,"midi":41,"time":72.171188,"velocity":0.4881889763779528},{"duration":0.042856999999997925,"midi":35,"time":72.171188,"velocity":0.4881889763779528},{"duration":0.042857000000012135,"midi":36,"time":72.34261599999999,"velocity":0.4881889763779528},{"duration":0.042857000000012135,"midi":35,"time":72.34261599999999,"velocity":0.4881889763779528},{"duration":0.042857000000012135,"midi":43,"time":72.34261599999999,"velocity":0.4881889763779528},{"duration":0.042857000000012135,"midi":35,"time":72.34261599999999,"velocity":0.4881889763779528},{"duration":0.042857000000012135,"midi":36,"time":72.34261599999999,"velocity":0.4881889763779528},{"duration":0.042857000000012135,"midi":43,"time":72.34261599999999,"velocity":0.4881889763779528},{"duration":0.042857000000012135,"midi":41,"time":72.34261599999999,"velocity":0.4881889763779528},{"duration":0.042857000000012135,"midi":35,"time":72.34261599999999,"velocity":0.4881889763779528},{"duration":0.042857000000012135,"midi":41,"time":72.34261599999999,"velocity":0.4881889763779528},{"duration":0.042857000000012135,"midi":36,"time":72.34261599999999,"velocity":0.4881889763779528},{"duration":0.042857000000012135,"midi":36,"time":72.34261599999999,"velocity":0.4881889763779528},{"duration":0.042857000000012135,"midi":35,"time":72.34261599999999,"velocity":0.4881889763779528},{"duration":0.042857000000012135,"midi":35,"time":72.34261599999999,"velocity":0.4881889763779528},{"duration":0.042857000000012135,"midi":35,"time":72.34261599999999,"velocity":0.4881889763779528},{"duration":0.042857000000012135,"midi":36,"time":72.34261599999999,"velocity":0.4881889763779528},{"duration":0.042857000000012135,"midi":36,"time":72.34261599999999,"velocity":0.4881889763779528},{"duration":0.042857000000012135,"midi":41,"time":72.34261599999999,"velocity":0.4881889763779528},{"duration":0.042857000000012135,"midi":35,"time":72.34261599999999,"velocity":0.4881889763779528},{"duration":0.042857000000012135,"midi":36,"time":72.34261599999999,"velocity":0.4881889763779528},{"duration":0.042857000000012135,"midi":36,"time":72.34261599999999,"velocity":0.4881889763779528},{"duration":0.042857000000012135,"midi":41,"time":72.34261599999999,"velocity":0.4881889763779528},{"duration":0.042857000000012135,"midi":41,"time":72.34261599999999,"velocity":0.4881889763779528},{"duration":0.042857000000012135,"midi":35,"time":72.34261599999999,"velocity":0.4881889763779528},{"duration":0.042857000000012135,"midi":43,"time":72.34261599999999,"velocity":0.4881889763779528},{"duration":0.042857000000012135,"midi":36,"time":72.34261599999999,"velocity":0.4881889763779528},{"duration":0.042857000000012135,"midi":36,"time":72.34261599999999,"velocity":0.4881889763779528},{"duration":0.042857000000012135,"midi":35,"time":72.34261599999999,"velocity":0.4881889763779528},{"duration":0.042857000000012135,"midi":43,"time":72.34261599999999,"velocity":0.4881889763779528},{"duration":0.042857000000012135,"midi":43,"time":72.34261599999999,"velocity":0.4881889763779528},{"duration":0.042857000000012135,"midi":35,"time":72.34261599999999,"velocity":0.4881889763779528},{"duration":0.042856999999997925,"midi":40,"time":72.685472,"velocity":0.4881889763779528},{"duration":0.042856999999997925,"midi":40,"time":72.685472,"velocity":0.4881889763779528},{"duration":0.042856999999997925,"midi":38,"time":72.685472,"velocity":0.4881889763779528},{"duration":0.042856999999997925,"midi":38,"time":72.685472,"velocity":0.4881889763779528},{"duration":0.042856999999997925,"midi":40,"time":72.685472,"velocity":0.4881889763779528},{"duration":0.042856999999997925,"midi":38,"time":72.685472,"velocity":0.4881889763779528},{"duration":0.042856999999997925,"midi":38,"time":72.685472,"velocity":0.4881889763779528},{"duration":0.042856999999997925,"midi":38,"time":72.685472,"velocity":0.4881889763779528},{"duration":0.042856999999997925,"midi":40,"time":72.685472,"velocity":0.4881889763779528},{"duration":0.042856999999997925,"midi":40,"time":72.685472,"velocity":0.4881889763779528},{"duration":0.042856999999997925,"midi":40,"time":72.685472,"velocity":0.4881889763779528},{"duration":0.042856999999997925,"midi":38,"time":72.685472,"velocity":0.4881889763779528},{"duration":0.042856999999997925,"midi":36,"time":73.371184,"velocity":0.4881889763779528},{"duration":0.042856999999997925,"midi":41,"time":73.371184,"velocity":0.4881889763779528},{"duration":0.042856999999997925,"midi":36,"time":73.371184,"velocity":0.4881889763779528},{"duration":0.042856999999997925,"midi":41,"time":73.371184,"velocity":0.4881889763779528},{"duration":0.042856999999997925,"midi":35,"time":73.371184,"velocity":0.4881889763779528},{"duration":0.042856999999997925,"midi":43,"time":73.371184,"velocity":0.4881889763779528},{"duration":0.042856999999997925,"midi":36,"time":73.371184,"velocity":0.4881889763779528},{"duration":0.042856999999997925,"midi":43,"time":73.371184,"velocity":0.4881889763779528},{"duration":0.042856999999997925,"midi":43,"time":73.371184,"velocity":0.4881889763779528},{"duration":0.042856999999997925,"midi":35,"time":73.371184,"velocity":0.4881889763779528},{"duration":0.042856999999997925,"midi":36,"time":73.371184,"velocity":0.4881889763779528},{"duration":0.042856999999997925,"midi":35,"time":73.371184,"velocity":0.4881889763779528},{"duration":0.042856999999997925,"midi":35,"time":73.371184,"velocity":0.4881889763779528},{"duration":0.042856999999997925,"midi":43,"time":73.371184,"velocity":0.4881889763779528},{"duration":0.042856999999997925,"midi":36,"time":73.371184,"velocity":0.4881889763779528},{"duration":0.042856999999997925,"midi":35,"time":73.371184,"velocity":0.4881889763779528},{"duration":0.042856999999997925,"midi":36,"time":73.371184,"velocity":0.4881889763779528},{"duration":0.042856999999997925,"midi":36,"time":73.371184,"velocity":0.4881889763779528},{"duration":0.042856999999997925,"midi":41,"time":73.371184,"velocity":0.4881889763779528},{"duration":0.042856999999997925,"midi":41,"time":73.371184,"velocity":0.4881889763779528},{"duration":0.042856999999997925,"midi":36,"time":73.371184,"velocity":0.4881889763779528},{"duration":0.042856999999997925,"midi":36,"time":73.371184,"velocity":0.4881889763779528},{"duration":0.042856999999997925,"midi":35,"time":73.371184,"velocity":0.4881889763779528},{"duration":0.042856999999997925,"midi":35,"time":73.371184,"velocity":0.4881889763779528},{"duration":0.042856999999997925,"midi":36,"time":73.371184,"velocity":0.4881889763779528},{"duration":0.042856999999997925,"midi":35,"time":73.371184,"velocity":0.4881889763779528},{"duration":0.042856999999997925,"midi":41,"time":73.371184,"velocity":0.4881889763779528},{"duration":0.042856999999997925,"midi":35,"time":73.371184,"velocity":0.4881889763779528},{"duration":0.042856999999997925,"midi":35,"time":73.371184,"velocity":0.4881889763779528},{"duration":0.042856999999997925,"midi":43,"time":73.371184,"velocity":0.4881889763779528},{"duration":0.042856999999997925,"midi":40,"time":74.056896,"velocity":0.4881889763779528},{"duration":0.042856999999997925,"midi":40,"time":74.056896,"velocity":0.4881889763779528},{"duration":0.042856999999997925,"midi":40,"time":74.056896,"velocity":0.4881889763779528},{"duration":0.042856999999997925,"midi":38,"time":74.056896,"velocity":0.4881889763779528},{"duration":0.042856999999997925,"midi":40,"time":74.056896,"velocity":0.4881889763779528},{"duration":0.042856999999997925,"midi":38,"time":74.056896,"velocity":0.4881889763779528},{"duration":0.042856999999997925,"midi":38,"time":74.056896,"velocity":0.4881889763779528},{"duration":0.042856999999997925,"midi":38,"time":74.056896,"velocity":0.4881889763779528},{"duration":0.042856999999997925,"midi":40,"time":74.056896,"velocity":0.4881889763779528},{"duration":0.042856999999997925,"midi":40,"time":74.056896,"velocity":0.4881889763779528},{"duration":0.042856999999997925,"midi":38,"time":74.056896,"velocity":0.4881889763779528},{"duration":0.042856999999997925,"midi":38,"time":74.056896,"velocity":0.4881889763779528},{"duration":0.042856999999997925,"midi":43,"time":74.914036,"velocity":0.4881889763779528},{"duration":0.042856999999997925,"midi":41,"time":74.914036,"velocity":0.4881889763779528},{"duration":0.042856999999997925,"midi":35,"time":74.914036,"velocity":0.4881889763779528},{"duration":0.042856999999997925,"midi":36,"time":74.914036,"velocity":0.4881889763779528},{"duration":0.042856999999997925,"midi":35,"time":74.914036,"velocity":0.4881889763779528},{"duration":0.042856999999997925,"midi":41,"time":74.914036,"velocity":0.4881889763779528},{"duration":0.042856999999997925,"midi":41,"time":74.914036,"velocity":0.4881889763779528},{"duration":0.042856999999997925,"midi":43,"time":74.914036,"velocity":0.4881889763779528},{"duration":0.042856999999997925,"midi":41,"time":74.914036,"velocity":0.4881889763779528},{"duration":0.042856999999997925,"midi":36,"time":74.914036,"velocity":0.4881889763779528},{"duration":0.042856999999997925,"midi":36,"time":74.914036,"velocity":0.4881889763779528},{"duration":0.042856999999997925,"midi":35,"time":74.914036,"velocity":0.4881889763779528},{"duration":0.042856999999997925,"midi":43,"time":74.914036,"velocity":0.4881889763779528},{"duration":0.042856999999997925,"midi":35,"time":74.914036,"velocity":0.4881889763779528},{"duration":0.042856999999997925,"midi":35,"time":74.914036,"velocity":0.4881889763779528},{"duration":0.042856999999997925,"midi":35,"time":74.914036,"velocity":0.4881889763779528},{"duration":0.042856999999997925,"midi":43,"time":74.914036,"velocity":0.4881889763779528},{"duration":0.042856999999997925,"midi":35,"time":74.914036,"velocity":0.4881889763779528},{"duration":0.042856999999997925,"midi":43,"time":74.914036,"velocity":0.4881889763779528},{"duration":0.042856999999997925,"midi":35,"time":74.914036,"velocity":0.4881889763779528},{"duration":0.042856999999997925,"midi":35,"time":74.914036,"velocity":0.4881889763779528},{"duration":0.042856999999997925,"midi":36,"time":74.914036,"velocity":0.4881889763779528},{"duration":0.042856999999997925,"midi":36,"time":74.914036,"velocity":0.4881889763779528},{"duration":0.042856999999997925,"midi":36,"time":74.914036,"velocity":0.4881889763779528},{"duration":0.042856999999997925,"midi":36,"time":74.914036,"velocity":0.4881889763779528},{"duration":0.042856999999997925,"midi":36,"time":74.914036,"velocity":0.4881889763779528},{"duration":0.042856999999997925,"midi":35,"time":74.914036,"velocity":0.4881889763779528},{"duration":0.042856999999997925,"midi":36,"time":74.914036,"velocity":0.4881889763779528},{"duration":0.042856999999997925,"midi":36,"time":74.914036,"velocity":0.4881889763779528},{"duration":0.042856999999997925,"midi":41,"time":74.914036,"velocity":0.4881889763779528},{"duration":0.042856999999997925,"midi":36,"time":75.085464,"velocity":0.4881889763779528},{"duration":0.042856999999997925,"midi":35,"time":75.085464,"velocity":0.4881889763779528},{"duration":0.042856999999997925,"midi":36,"time":75.085464,"velocity":0.4881889763779528},{"duration":0.042856999999997925,"midi":35,"time":75.085464,"velocity":0.4881889763779528},{"duration":0.042856999999997925,"midi":35,"time":75.085464,"velocity":0.4881889763779528},{"duration":0.042856999999997925,"midi":36,"time":75.085464,"velocity":0.4881889763779528},{"duration":0.042856999999997925,"midi":36,"time":75.085464,"velocity":0.4881889763779528},{"duration":0.042856999999997925,"midi":41,"time":75.085464,"velocity":0.4881889763779528},{"duration":0.042856999999997925,"midi":35,"time":75.085464,"velocity":0.4881889763779528},{"duration":0.042856999999997925,"midi":36,"time":75.085464,"velocity":0.4881889763779528},{"duration":0.042856999999997925,"midi":43,"time":75.085464,"velocity":0.4881889763779528},{"duration":0.042856999999997925,"midi":35,"time":75.085464,"velocity":0.4881889763779528},{"duration":0.042856999999997925,"midi":43,"time":75.085464,"velocity":0.4881889763779528},{"duration":0.042856999999997925,"midi":36,"time":75.085464,"velocity":0.4881889763779528},{"duration":0.042856999999997925,"midi":35,"time":75.085464,"velocity":0.4881889763779528},{"duration":0.042856999999997925,"midi":35,"time":75.085464,"velocity":0.4881889763779528},{"duration":0.042856999999997925,"midi":43,"time":75.085464,"velocity":0.4881889763779528},{"duration":0.042856999999997925,"midi":41,"time":75.085464,"velocity":0.4881889763779528},{"duration":0.042856999999997925,"midi":36,"time":75.085464,"velocity":0.4881889763779528},{"duration":0.042856999999997925,"midi":41,"time":75.085464,"velocity":0.4881889763779528},{"duration":0.042856999999997925,"midi":36,"time":75.085464,"velocity":0.4881889763779528},{"duration":0.042856999999997925,"midi":36,"time":75.085464,"velocity":0.4881889763779528},{"duration":0.042856999999997925,"midi":35,"time":75.085464,"velocity":0.4881889763779528},{"duration":0.042856999999997925,"midi":35,"time":75.085464,"velocity":0.4881889763779528},{"duration":0.042856999999997925,"midi":35,"time":75.085464,"velocity":0.4881889763779528},{"duration":0.042856999999997925,"midi":41,"time":75.085464,"velocity":0.4881889763779528},{"duration":0.042856999999997925,"midi":43,"time":75.085464,"velocity":0.4881889763779528},{"duration":0.042856999999997925,"midi":36,"time":75.085464,"velocity":0.4881889763779528},{"duration":0.042856999999997925,"midi":41,"time":75.085464,"velocity":0.4881889763779528},{"duration":0.042856999999997925,"midi":43,"time":75.085464,"velocity":0.4881889763779528},{"duration":0.042856999999997925,"midi":38,"time":75.42832,"velocity":0.4881889763779528},{"duration":0.042856999999997925,"midi":40,"time":75.42832,"velocity":0.4881889763779528},{"duration":0.042856999999997925,"midi":38,"time":75.42832,"velocity":0.4881889763779528},{"duration":0.042856999999997925,"midi":38,"time":75.42832,"velocity":0.4881889763779528},{"duration":0.042856999999997925,"midi":40,"time":75.42832,"velocity":0.4881889763779528},{"duration":0.042856999999997925,"midi":38,"time":75.42832,"velocity":0.4881889763779528},{"duration":0.042856999999997925,"midi":38,"time":75.42832,"velocity":0.4881889763779528},{"duration":0.042856999999997925,"midi":38,"time":75.42832,"velocity":0.4881889763779528},{"duration":0.042856999999997925,"midi":40,"time":75.42832,"velocity":0.4881889763779528},{"duration":0.042856999999997925,"midi":40,"time":75.42832,"velocity":0.4881889763779528},{"duration":0.042856999999997925,"midi":40,"time":75.42832,"velocity":0.4881889763779528},{"duration":0.042856999999997925,"midi":40,"time":75.42832,"velocity":0.4881889763779528},{"duration":0.042856999999997925,"midi":36,"time":76.114032,"velocity":0.4881889763779528},{"duration":0.042856999999997925,"midi":35,"time":76.114032,"velocity":0.4881889763779528},{"duration":0.042856999999997925,"midi":35,"time":76.114032,"velocity":0.4881889763779528},{"duration":0.042856999999997925,"midi":41,"time":76.114032,"velocity":0.4881889763779528},{"duration":0.042856999999997925,"midi":36,"time":76.114032,"velocity":0.4881889763779528},{"duration":0.042856999999997925,"midi":36,"time":76.114032,"velocity":0.4881889763779528},{"duration":0.042856999999997925,"midi":35,"time":76.114032,"velocity":0.4881889763779528},{"duration":0.042856999999997925,"midi":36,"time":76.114032,"velocity":0.4881889763779528},{"duration":0.042856999999997925,"midi":35,"time":76.114032,"velocity":0.4881889763779528},{"duration":0.042856999999997925,"midi":41,"time":76.114032,"velocity":0.4881889763779528},{"duration":0.042856999999997925,"midi":43,"time":76.114032,"velocity":0.4881889763779528},{"duration":0.042856999999997925,"midi":41,"time":76.114032,"velocity":0.4881889763779528},{"duration":0.042856999999997925,"midi":35,"time":76.114032,"velocity":0.4881889763779528},{"duration":0.042856999999997925,"midi":43,"time":76.114032,"velocity":0.4881889763779528},{"duration":0.042856999999997925,"midi":41,"time":76.114032,"velocity":0.4881889763779528},{"duration":0.042856999999997925,"midi":36,"time":76.114032,"velocity":0.4881889763779528},{"duration":0.042856999999997925,"midi":41,"time":76.114032,"velocity":0.4881889763779528},{"duration":0.042856999999997925,"midi":35,"time":76.114032,"velocity":0.4881889763779528},{"duration":0.042856999999997925,"midi":36,"time":76.114032,"velocity":0.4881889763779528},{"duration":0.042856999999997925,"midi":35,"time":76.114032,"velocity":0.4881889763779528},{"duration":0.042856999999997925,"midi":35,"time":76.114032,"velocity":0.4881889763779528},{"duration":0.042856999999997925,"midi":43,"time":76.114032,"velocity":0.4881889763779528},{"duration":0.042856999999997925,"midi":35,"time":76.114032,"velocity":0.4881889763779528},{"duration":0.042856999999997925,"midi":35,"time":76.114032,"velocity":0.4881889763779528},{"duration":0.042856999999997925,"midi":36,"time":76.114032,"velocity":0.4881889763779528},{"duration":0.042856999999997925,"midi":36,"time":76.114032,"velocity":0.4881889763779528},{"duration":0.042856999999997925,"midi":43,"time":76.114032,"velocity":0.4881889763779528},{"duration":0.042856999999997925,"midi":43,"time":76.114032,"velocity":0.4881889763779528},{"duration":0.042856999999997925,"midi":36,"time":76.114032,"velocity":0.4881889763779528},{"duration":0.042856999999997925,"midi":36,"time":76.114032,"velocity":0.4881889763779528},{"duration":0.042856999999997925,"midi":87,"time":78.85688,"velocity":0.4881889763779528},{"duration":0.042856999999997925,"midi":55,"time":78.85688,"velocity":0.4881889763779528},{"duration":0.042856999999997925,"midi":87,"time":78.85688,"velocity":0.4881889763779528},{"duration":0.042856999999997925,"midi":51,"time":78.85688,"velocity":0.4881889763779528},{"duration":0.042856999999997925,"midi":87,"time":78.85688,"velocity":0.4881889763779528},{"duration":0.042856999999997925,"midi":86,"time":78.85688,"velocity":0.4881889763779528},{"duration":0.042856999999997925,"midi":87,"time":78.85688,"velocity":0.4881889763779528},{"duration":0.042856999999997925,"midi":87,"time":78.85688,"velocity":0.4881889763779528},{"duration":0.042856999999997925,"midi":87,"time":78.85688,"velocity":0.4881889763779528},{"duration":0.042856999999997925,"midi":87,"time":80.399732,"velocity":0.4881889763779528},{"duration":0.042856999999997925,"midi":87,"time":80.399732,"velocity":0.4881889763779528},{"duration":0.042856999999997925,"midi":86,"time":80.399732,"velocity":0.4881889763779528},{"duration":0.042856999999997925,"midi":87,"time":80.399732,"velocity":0.4881889763779528},{"duration":0.042857000000012135,"midi":87,"time":80.57115999999999,"velocity":0.4881889763779528},{"duration":0.042857000000012135,"midi":87,"time":80.57115999999999,"velocity":0.4881889763779528},{"duration":0.042857000000012135,"midi":86,"time":80.57115999999999,"velocity":0.4881889763779528},{"duration":0.042856999999997925,"midi":86,"time":81.599728,"velocity":0.4881889763779528},{"duration":0.042856999999997925,"midi":87,"time":81.599728,"velocity":0.4881889763779528},{"duration":0.042856999999997925,"midi":87,"time":81.599728,"velocity":0.4881889763779528},{"duration":0.042856999999997925,"midi":51,"time":81.599728,"velocity":0.4881889763779528},{"duration":0.042856999999997925,"midi":87,"time":81.599728,"velocity":0.4881889763779528},{"duration":0.042856999999997925,"midi":87,"time":81.599728,"velocity":0.4881889763779528},{"duration":0.042856999999997925,"midi":55,"time":81.599728,"velocity":0.4881889763779528},{"duration":0.042856999999997925,"midi":87,"time":81.599728,"velocity":0.4881889763779528},{"duration":0.042856999999997925,"midi":87,"time":81.599728,"velocity":0.4881889763779528},{"duration":0.042856999999997925,"midi":87,"time":83.14258,"velocity":0.4881889763779528},{"duration":0.042856999999997925,"midi":86,"time":83.14258,"velocity":0.4881889763779528},{"duration":0.042856999999997925,"midi":87,"time":83.14258,"velocity":0.4881889763779528},{"duration":0.042856999999997925,"midi":87,"time":83.14258,"velocity":0.4881889763779528},{"duration":0.042856999999997925,"midi":87,"time":83.314008,"velocity":0.4881889763779528},{"duration":0.042856999999997925,"midi":87,"time":83.314008,"velocity":0.4881889763779528},{"duration":0.042856999999997925,"midi":86,"time":83.314008,"velocity":0.4881889763779528},{"duration":0.042856999999997925,"midi":87,"time":84.342576,"velocity":0.4881889763779528},{"duration":0.042856999999997925,"midi":87,"time":84.342576,"velocity":0.4881889763779528},{"duration":0.042856999999997925,"midi":86,"time":84.342576,"velocity":0.4881889763779528},{"duration":0.042856999999997925,"midi":87,"time":84.342576,"velocity":0.4881889763779528},{"duration":0.042856999999997925,"midi":87,"time":84.342576,"velocity":0.4881889763779528},{"duration":0.042856999999997925,"midi":51,"time":84.342576,"velocity":0.4881889763779528},{"duration":0.042856999999997925,"midi":55,"time":84.342576,"velocity":0.4881889763779528},{"duration":0.042856999999997925,"midi":87,"time":84.342576,"velocity":0.4881889763779528},{"duration":0.042856999999997925,"midi":87,"time":84.342576,"velocity":0.4881889763779528},{"duration":0.042856999999997925,"midi":87,"time":85.885428,"velocity":0.4881889763779528},{"duration":0.042856999999997925,"midi":87,"time":85.885428,"velocity":0.4881889763779528},{"duration":0.042856999999997925,"midi":87,"time":85.885428,"velocity":0.4881889763779528},{"duration":0.042856999999997925,"midi":86,"time":85.885428,"velocity":0.4881889763779528},{"duration":0.042856999999997925,"midi":87,"time":86.056856,"velocity":0.4881889763779528},{"duration":0.042856999999997925,"midi":86,"time":86.056856,"velocity":0.4881889763779528},{"duration":0.042856999999997925,"midi":87,"time":86.056856,"velocity":0.4881889763779528},{"duration":0.042856999999997925,"midi":87,"time":87.085424,"velocity":0.4881889763779528},{"duration":0.042856999999997925,"midi":86,"time":87.085424,"velocity":0.4881889763779528},{"duration":0.042856999999997925,"midi":51,"time":87.085424,"velocity":0.4881889763779528},{"duration":0.042856999999997925,"midi":87,"time":87.085424,"velocity":0.4881889763779528},{"duration":0.042856999999997925,"midi":55,"time":87.085424,"velocity":0.4881889763779528},{"duration":0.042856999999997925,"midi":87,"time":87.085424,"velocity":0.4881889763779528},{"duration":0.042856999999997925,"midi":87,"time":87.085424,"velocity":0.4881889763779528},{"duration":0.042856999999997925,"midi":87,"time":87.085424,"velocity":0.4881889763779528},{"duration":0.042856999999997925,"midi":87,"time":87.085424,"velocity":0.4881889763779528},{"duration":0.042856999999997925,"midi":87,"time":88.628276,"velocity":0.4881889763779528},{"duration":0.042856999999997925,"midi":86,"time":88.628276,"velocity":0.4881889763779528},{"duration":0.042856999999997925,"midi":87,"time":88.628276,"velocity":0.4881889763779528},{"duration":0.042856999999997925,"midi":87,"time":88.628276,"velocity":0.4881889763779528},{"duration":0.042856999999997925,"midi":87,"time":88.799704,"velocity":0.4881889763779528},{"duration":0.042856999999997925,"midi":87,"time":88.799704,"velocity":0.4881889763779528},{"duration":0.042856999999997925,"midi":86,"time":88.799704,"velocity":0.4881889763779528},{"duration":0.042856999999997925,"midi":43,"time":89.828272,"velocity":0.4881889763779528},{"duration":0.042856999999997925,"midi":36,"time":89.828272,"velocity":0.4881889763779528},{"duration":0.042856999999997925,"midi":36,"time":89.828272,"velocity":0.4881889763779528},{"duration":0.042856999999997925,"midi":35,"time":89.828272,"velocity":0.4881889763779528},{"duration":0.042856999999997925,"midi":35,"time":89.828272,"velocity":0.4881889763779528},{"duration":0.042856999999997925,"midi":35,"time":89.828272,"velocity":0.4881889763779528},{"duration":0.042856999999997925,"midi":35,"time":89.828272,"velocity":0.4881889763779528},{"duration":0.042856999999997925,"midi":35,"time":89.828272,"velocity":0.4881889763779528},{"duration":0.042856999999997925,"midi":36,"time":89.828272,"velocity":0.4881889763779528},{"duration":0.042856999999997925,"midi":36,"time":89.828272,"velocity":0.4881889763779528},{"duration":0.042856999999997925,"midi":41,"time":89.828272,"velocity":0.4881889763779528},{"duration":0.042856999999997925,"midi":41,"time":89.828272,"velocity":0.4881889763779528},{"duration":0.042856999999997925,"midi":41,"time":89.828272,"velocity":0.4881889763779528},{"duration":0.042856999999997925,"midi":35,"time":89.828272,"velocity":0.4881889763779528},{"duration":0.042856999999997925,"midi":43,"time":89.828272,"velocity":0.4881889763779528},{"duration":0.042856999999997925,"midi":51,"time":89.828272,"velocity":0.4881889763779528},{"duration":0.042856999999997925,"midi":36,"time":89.828272,"velocity":0.4881889763779528},{"duration":0.042856999999997925,"midi":57,"time":89.828272,"velocity":0.4881889763779528},{"duration":0.042856999999997925,"midi":41,"time":89.828272,"velocity":0.4881889763779528},{"duration":0.042856999999997925,"midi":43,"time":89.828272,"velocity":0.4881889763779528},{"duration":0.042856999999997925,"midi":43,"time":89.828272,"velocity":0.4881889763779528},{"duration":0.042856999999997925,"midi":55,"time":89.828272,"velocity":0.4881889763779528},{"duration":0.042856999999997925,"midi":36,"time":89.828272,"velocity":0.4881889763779528},{"duration":0.042856999999997925,"midi":35,"time":89.828272,"velocity":0.4881889763779528},{"duration":0.042856999999997925,"midi":35,"time":89.828272,"velocity":0.4881889763779528},{"duration":0.042856999999997925,"midi":35,"time":89.828272,"velocity":0.4881889763779528},{"duration":0.042856999999997925,"midi":36,"time":89.828272,"velocity":0.4881889763779528},{"duration":0.042856999999997925,"midi":36,"time":89.828272,"velocity":0.4881889763779528},{"duration":0.042856999999997925,"midi":49,"time":89.828272,"velocity":0.4881889763779528},{"duration":0.042856999999997925,"midi":35,"time":89.828272,"velocity":0.4881889763779528},{"duration":0.042856999999997925,"midi":36,"time":89.828272,"velocity":0.4881889763779528},{"duration":0.042856999999997925,"midi":41,"time":89.828272,"velocity":0.4881889763779528},{"duration":0.042856999999997925,"midi":43,"time":89.828272,"velocity":0.4881889763779528},{"duration":0.042856999999997925,"midi":36,"time":89.828272,"velocity":0.4881889763779528},{"duration":0.042856999999997925,"midi":40,"time":90.513984,"velocity":0.4881889763779528},{"duration":0.042856999999997925,"midi":38,"time":90.513984,"velocity":0.4881889763779528},{"duration":0.042856999999997925,"midi":40,"time":90.513984,"velocity":0.4881889763779528},{"duration":0.042856999999997925,"midi":38,"time":90.513984,"velocity":0.4881889763779528},{"duration":0.042856999999997925,"midi":40,"time":90.513984,"velocity":0.4881889763779528},{"duration":0.042856999999997925,"midi":40,"time":90.513984,"velocity":0.4881889763779528},{"duration":0.042856999999997925,"midi":38,"time":90.513984,"velocity":0.4881889763779528},{"duration":0.042856999999997925,"midi":40,"time":90.513984,"velocity":0.4881889763779528},{"duration":0.042856999999997925,"midi":38,"time":90.513984,"velocity":0.4881889763779528},{"duration":0.042856999999997925,"midi":38,"time":90.513984,"velocity":0.4881889763779528},{"duration":0.042856999999997925,"midi":40,"time":90.513984,"velocity":0.4881889763779528},{"duration":0.042856999999997925,"midi":38,"time":90.513984,"velocity":0.4881889763779528},{"duration":0.042856999999997925,"midi":35,"time":91.371124,"velocity":0.4881889763779528},{"duration":0.042856999999997925,"midi":41,"time":91.371124,"velocity":0.4881889763779528},{"duration":0.042856999999997925,"midi":35,"time":91.371124,"velocity":0.4881889763779528},{"duration":0.042856999999997925,"midi":36,"time":91.371124,"velocity":0.4881889763779528},{"duration":0.042856999999997925,"midi":43,"time":91.371124,"velocity":0.4881889763779528},{"duration":0.042856999999997925,"midi":43,"time":91.371124,"velocity":0.4881889763779528},{"duration":0.042856999999997925,"midi":35,"time":91.371124,"velocity":0.4881889763779528},{"duration":0.042856999999997925,"midi":43,"time":91.371124,"velocity":0.4881889763779528},{"duration":0.042856999999997925,"midi":36,"time":91.371124,"velocity":0.4881889763779528},{"duration":0.042856999999997925,"midi":36,"time":91.371124,"velocity":0.4881889763779528},{"duration":0.042856999999997925,"midi":35,"time":91.371124,"velocity":0.4881889763779528},{"duration":0.042856999999997925,"midi":36,"time":91.371124,"velocity":0.4881889763779528},{"duration":0.042856999999997925,"midi":41,"time":91.371124,"velocity":0.4881889763779528},{"duration":0.042856999999997925,"midi":35,"time":91.371124,"velocity":0.4881889763779528},{"duration":0.042856999999997925,"midi":35,"time":91.371124,"velocity":0.4881889763779528},{"duration":0.042856999999997925,"midi":41,"time":91.371124,"velocity":0.4881889763779528},{"duration":0.042856999999997925,"midi":36,"time":91.371124,"velocity":0.4881889763779528},{"duration":0.042856999999997925,"midi":35,"time":91.371124,"velocity":0.4881889763779528},{"duration":0.042856999999997925,"midi":36,"time":91.371124,"velocity":0.4881889763779528},{"duration":0.042856999999997925,"midi":35,"time":91.371124,"velocity":0.4881889763779528},{"duration":0.042856999999997925,"midi":35,"time":91.371124,"velocity":0.4881889763779528},{"duration":0.042856999999997925,"midi":36,"time":91.371124,"velocity":0.4881889763779528},{"duration":0.042856999999997925,"midi":41,"time":91.371124,"velocity":0.4881889763779528},{"duration":0.042856999999997925,"midi":43,"time":91.371124,"velocity":0.4881889763779528},{"duration":0.042856999999997925,"midi":36,"time":91.371124,"velocity":0.4881889763779528},{"duration":0.042856999999997925,"midi":36,"time":91.371124,"velocity":0.4881889763779528},{"duration":0.042856999999997925,"midi":35,"time":91.371124,"velocity":0.4881889763779528},{"duration":0.042856999999997925,"midi":36,"time":91.371124,"velocity":0.4881889763779528},{"duration":0.042856999999997925,"midi":41,"time":91.371124,"velocity":0.4881889763779528},{"duration":0.042856999999997925,"midi":43,"time":91.371124,"velocity":0.4881889763779528},{"duration":0.042856999999997925,"midi":35,"time":91.542552,"velocity":0.4881889763779528},{"duration":0.042856999999997925,"midi":35,"time":91.542552,"velocity":0.4881889763779528},{"duration":0.042856999999997925,"midi":36,"time":91.542552,"velocity":0.4881889763779528},{"duration":0.042856999999997925,"midi":35,"time":91.542552,"velocity":0.4881889763779528},{"duration":0.042856999999997925,"midi":35,"time":91.542552,"velocity":0.4881889763779528},{"duration":0.042856999999997925,"midi":36,"time":91.542552,"velocity":0.4881889763779528},{"duration":0.042856999999997925,"midi":43,"time":91.542552,"velocity":0.4881889763779528},{"duration":0.042856999999997925,"midi":36,"time":91.542552,"velocity":0.4881889763779528},{"duration":0.042856999999997925,"midi":43,"time":91.542552,"velocity":0.4881889763779528},{"duration":0.042856999999997925,"midi":35,"time":91.542552,"velocity":0.4881889763779528},{"duration":0.042856999999997925,"midi":43,"time":91.542552,"velocity":0.4881889763779528},{"duration":0.042856999999997925,"midi":35,"time":91.542552,"velocity":0.4881889763779528},{"duration":0.042856999999997925,"midi":43,"time":91.542552,"velocity":0.4881889763779528},{"duration":0.042856999999997925,"midi":35,"time":91.542552,"velocity":0.4881889763779528},{"duration":0.042856999999997925,"midi":41,"time":91.542552,"velocity":0.4881889763779528},{"duration":0.042856999999997925,"midi":36,"time":91.542552,"velocity":0.4881889763779528},{"duration":0.042856999999997925,"midi":36,"time":91.542552,"velocity":0.4881889763779528},{"duration":0.042856999999997925,"midi":35,"time":91.542552,"velocity":0.4881889763779528},{"duration":0.042856999999997925,"midi":43,"time":91.542552,"velocity":0.4881889763779528},{"duration":0.042856999999997925,"midi":41,"time":91.542552,"velocity":0.4881889763779528},{"duration":0.042856999999997925,"midi":36,"time":91.542552,"velocity":0.4881889763779528},{"duration":0.042856999999997925,"midi":36,"time":91.542552,"velocity":0.4881889763779528},{"duration":0.042856999999997925,"midi":36,"time":91.542552,"velocity":0.4881889763779528},{"duration":0.042856999999997925,"midi":41,"time":91.542552,"velocity":0.4881889763779528},{"duration":0.042856999999997925,"midi":35,"time":91.542552,"velocity":0.4881889763779528},{"duration":0.042856999999997925,"midi":35,"time":91.542552,"velocity":0.4881889763779528},{"duration":0.042856999999997925,"midi":41,"time":91.542552,"velocity":0.4881889763779528},{"duration":0.042856999999997925,"midi":36,"time":91.542552,"velocity":0.4881889763779528},{"duration":0.042856999999997925,"midi":41,"time":91.542552,"velocity":0.4881889763779528},{"duration":0.042856999999997925,"midi":36,"time":91.542552,"velocity":0.4881889763779528},{"duration":0.042856999999997925,"midi":38,"time":91.885408,"velocity":0.4881889763779528},{"duration":0.042856999999997925,"midi":40,"time":91.885408,"velocity":0.4881889763779528},{"duration":0.042856999999997925,"midi":40,"time":91.885408,"velocity":0.4881889763779528},{"duration":0.042856999999997925,"midi":38,"time":91.885408,"velocity":0.4881889763779528},{"duration":0.042856999999997925,"midi":38,"time":91.885408,"velocity":0.4881889763779528},{"duration":0.042856999999997925,"midi":40,"time":91.885408,"velocity":0.4881889763779528},{"duration":0.042856999999997925,"midi":38,"time":91.885408,"velocity":0.4881889763779528},{"duration":0.042856999999997925,"midi":40,"time":91.885408,"velocity":0.4881889763779528},{"duration":0.042856999999997925,"midi":40,"time":91.885408,"velocity":0.4881889763779528},{"duration":0.042856999999997925,"midi":38,"time":91.885408,"velocity":0.4881889763779528},{"duration":0.042856999999997925,"midi":40,"time":91.885408,"velocity":0.4881889763779528},{"duration":0.042856999999997925,"midi":38,"time":91.885408,"velocity":0.4881889763779528},{"duration":0.042856999999997925,"midi":36,"time":92.57112,"velocity":0.4881889763779528},{"duration":0.042856999999997925,"midi":35,"time":92.57112,"velocity":0.4881889763779528},{"duration":0.042856999999997925,"midi":41,"time":92.57112,"velocity":0.4881889763779528},{"duration":0.042856999999997925,"midi":36,"time":92.57112,"velocity":0.4881889763779528},{"duration":0.042856999999997925,"midi":36,"time":92.57112,"velocity":0.4881889763779528},{"duration":0.042856999999997925,"midi":36,"time":92.57112,"velocity":0.4881889763779528},{"duration":0.042856999999997925,"midi":36,"time":92.57112,"velocity":0.4881889763779528},{"duration":0.042856999999997925,"midi":43,"time":92.57112,"velocity":0.4881889763779528},{"duration":0.042856999999997925,"midi":35,"time":92.57112,"velocity":0.4881889763779528},{"duration":0.042856999999997925,"midi":43,"time":92.57112,"velocity":0.4881889763779528},{"duration":0.042856999999997925,"midi":41,"time":92.57112,"velocity":0.4881889763779528},{"duration":0.042856999999997925,"midi":43,"time":92.57112,"velocity":0.4881889763779528},{"duration":0.042856999999997925,"midi":43,"time":92.57112,"velocity":0.4881889763779528},{"duration":0.042856999999997925,"midi":35,"time":92.57112,"velocity":0.4881889763779528},{"duration":0.042856999999997925,"midi":35,"time":92.57112,"velocity":0.4881889763779528},{"duration":0.042856999999997925,"midi":35,"time":92.57112,"velocity":0.4881889763779528},{"duration":0.042856999999997925,"midi":51,"time":92.57112,"velocity":0.4881889763779528},{"duration":0.042856999999997925,"midi":36,"time":92.57112,"velocity":0.4881889763779528},{"duration":0.042856999999997925,"midi":43,"time":92.57112,"velocity":0.4881889763779528},{"duration":0.042856999999997925,"midi":36,"time":92.57112,"velocity":0.4881889763779528},{"duration":0.042856999999997925,"midi":35,"time":92.57112,"velocity":0.4881889763779528},{"duration":0.042856999999997925,"midi":36,"time":92.57112,"velocity":0.4881889763779528},{"duration":0.042856999999997925,"midi":36,"time":92.57112,"velocity":0.4881889763779528},{"duration":0.042856999999997925,"midi":35,"time":92.57112,"velocity":0.4881889763779528},{"duration":0.042856999999997925,"midi":36,"time":92.57112,"velocity":0.4881889763779528},{"duration":0.042856999999997925,"midi":41,"time":92.57112,"velocity":0.4881889763779528},{"duration":0.042856999999997925,"midi":41,"time":92.57112,"velocity":0.4881889763779528},{"duration":0.042856999999997925,"midi":55,"time":92.57112,"velocity":0.4881889763779528},{"duration":0.042856999999997925,"midi":41,"time":92.57112,"velocity":0.4881889763779528},{"duration":0.042856999999997925,"midi":35,"time":92.57112,"velocity":0.4881889763779528},{"duration":0.042856999999997925,"midi":35,"time":92.57112,"velocity":0.4881889763779528},{"duration":0.042856999999997925,"midi":35,"time":92.57112,"velocity":0.4881889763779528},{"duration":0.042856999999997925,"midi":38,"time":93.256832,"velocity":0.4881889763779528},{"duration":0.042856999999997925,"midi":40,"time":93.256832,"velocity":0.4881889763779528},{"duration":0.042856999999997925,"midi":38,"time":93.256832,"velocity":0.4881889763779528},{"duration":0.042856999999997925,"midi":38,"time":93.256832,"velocity":0.4881889763779528},{"duration":0.042856999999997925,"midi":40,"time":93.256832,"velocity":0.4881889763779528},{"duration":0.042856999999997925,"midi":40,"time":93.256832,"velocity":0.4881889763779528},{"duration":0.042856999999997925,"midi":38,"time":93.256832,"velocity":0.4881889763779528},{"duration":0.042856999999997925,"midi":40,"time":93.256832,"velocity":0.4881889763779528},{"duration":0.042856999999997925,"midi":40,"time":93.256832,"velocity":0.4881889763779528},{"duration":0.042856999999997925,"midi":38,"time":93.256832,"velocity":0.4881889763779528},{"duration":0.042856999999997925,"midi":40,"time":93.256832,"velocity":0.4881889763779528},{"duration":0.042856999999997925,"midi":38,"time":93.256832,"velocity":0.4881889763779528},{"duration":0.042856999999997925,"midi":36,"time":94.113972,"velocity":0.4881889763779528},{"duration":0.042856999999997925,"midi":36,"time":94.113972,"velocity":0.4881889763779528},{"duration":0.042856999999997925,"midi":36,"time":94.113972,"velocity":0.4881889763779528},{"duration":0.042856999999997925,"midi":36,"time":94.113972,"velocity":0.4881889763779528},{"duration":0.042856999999997925,"midi":35,"time":94.113972,"velocity":0.4881889763779528},{"duration":0.042856999999997925,"midi":43,"time":94.113972,"velocity":0.4881889763779528},{"duration":0.042856999999997925,"midi":35,"time":94.113972,"velocity":0.4881889763779528},{"duration":0.042856999999997925,"midi":35,"time":94.113972,"velocity":0.4881889763779528},{"duration":0.042856999999997925,"midi":41,"time":94.113972,"velocity":0.4881889763779528},{"duration":0.042856999999997925,"midi":41,"time":94.113972,"velocity":0.4881889763779528},{"duration":0.042856999999997925,"midi":43,"time":94.113972,"velocity":0.4881889763779528},{"duration":0.042856999999997925,"midi":36,"time":94.113972,"velocity":0.4881889763779528},{"duration":0.042856999999997925,"midi":36,"time":94.113972,"velocity":0.4881889763779528},{"duration":0.042856999999997925,"midi":41,"time":94.113972,"velocity":0.4881889763779528},{"duration":0.042856999999997925,"midi":35,"time":94.113972,"velocity":0.4881889763779528},{"duration":0.042856999999997925,"midi":36,"time":94.113972,"velocity":0.4881889763779528},{"duration":0.042856999999997925,"midi":36,"time":94.113972,"velocity":0.4881889763779528},{"duration":0.042856999999997925,"midi":35,"time":94.113972,"velocity":0.4881889763779528},{"duration":0.042856999999997925,"midi":41,"time":94.113972,"velocity":0.4881889763779528},{"duration":0.042856999999997925,"midi":35,"time":94.113972,"velocity":0.4881889763779528},{"duration":0.042856999999997925,"midi":43,"time":94.113972,"velocity":0.4881889763779528},{"duration":0.042856999999997925,"midi":35,"time":94.113972,"velocity":0.4881889763779528},{"duration":0.042856999999997925,"midi":36,"time":94.113972,"velocity":0.4881889763779528},{"duration":0.042856999999997925,"midi":36,"time":94.113972,"velocity":0.4881889763779528},{"duration":0.042856999999997925,"midi":43,"time":94.113972,"velocity":0.4881889763779528},{"duration":0.042856999999997925,"midi":35,"time":94.113972,"velocity":0.4881889763779528},{"duration":0.042856999999997925,"midi":35,"time":94.113972,"velocity":0.4881889763779528},{"duration":0.042856999999997925,"midi":41,"time":94.113972,"velocity":0.4881889763779528},{"duration":0.042856999999997925,"midi":35,"time":94.113972,"velocity":0.4881889763779528},{"duration":0.042856999999997925,"midi":43,"time":94.113972,"velocity":0.4881889763779528},{"duration":0.042856999999997925,"midi":35,"time":94.2854,"velocity":0.4881889763779528},{"duration":0.042856999999997925,"midi":35,"time":94.2854,"velocity":0.4881889763779528},{"duration":0.042856999999997925,"midi":36,"time":94.2854,"velocity":0.4881889763779528},{"duration":0.042856999999997925,"midi":43,"time":94.2854,"velocity":0.4881889763779528},{"duration":0.042856999999997925,"midi":43,"time":94.2854,"velocity":0.4881889763779528},{"duration":0.042856999999997925,"midi":35,"time":94.2854,"velocity":0.4881889763779528},{"duration":0.042856999999997925,"midi":41,"time":94.2854,"velocity":0.4881889763779528},{"duration":0.042856999999997925,"midi":41,"time":94.2854,"velocity":0.4881889763779528},{"duration":0.042856999999997925,"midi":41,"time":94.2854,"velocity":0.4881889763779528},{"duration":0.042856999999997925,"midi":35,"time":94.2854,"velocity":0.4881889763779528},{"duration":0.042856999999997925,"midi":43,"time":94.2854,"velocity":0.4881889763779528},{"duration":0.042856999999997925,"midi":36,"time":94.2854,"velocity":0.4881889763779528},{"duration":0.042856999999997925,"midi":36,"time":94.2854,"velocity":0.4881889763779528},{"duration":0.042856999999997925,"midi":43,"time":94.2854,"velocity":0.4881889763779528},{"duration":0.042856999999997925,"midi":35,"time":94.2854,"velocity":0.4881889763779528},{"duration":0.042856999999997925,"midi":41,"time":94.2854,"velocity":0.4881889763779528},{"duration":0.042856999999997925,"midi":35,"time":94.2854,"velocity":0.4881889763779528},{"duration":0.042856999999997925,"midi":36,"time":94.2854,"velocity":0.4881889763779528},{"duration":0.042856999999997925,"midi":36,"time":94.2854,"velocity":0.4881889763779528},{"duration":0.042856999999997925,"midi":36,"time":94.2854,"velocity":0.4881889763779528},{"duration":0.042856999999997925,"midi":36,"time":94.2854,"velocity":0.4881889763779528},{"duration":0.042856999999997925,"midi":43,"time":94.2854,"velocity":0.4881889763779528},{"duration":0.042856999999997925,"midi":35,"time":94.2854,"velocity":0.4881889763779528},{"duration":0.042856999999997925,"midi":35,"time":94.2854,"velocity":0.4881889763779528},{"duration":0.042856999999997925,"midi":36,"time":94.2854,"velocity":0.4881889763779528},{"duration":0.042856999999997925,"midi":35,"time":94.2854,"velocity":0.4881889763779528},{"duration":0.042856999999997925,"midi":36,"time":94.2854,"velocity":0.4881889763779528},{"duration":0.042856999999997925,"midi":36,"time":94.2854,"velocity":0.4881889763779528},{"duration":0.042856999999997925,"midi":41,"time":94.2854,"velocity":0.4881889763779528},{"duration":0.042856999999997925,"midi":35,"time":94.2854,"velocity":0.4881889763779528},{"duration":0.042857000000012135,"midi":38,"time":94.628256,"velocity":0.4881889763779528},{"duration":0.042857000000012135,"midi":38,"time":94.628256,"velocity":0.4881889763779528},{"duration":0.042857000000012135,"midi":38,"time":94.628256,"velocity":0.4881889763779528},{"duration":0.042857000000012135,"midi":40,"time":94.628256,"velocity":0.4881889763779528},{"duration":0.042857000000012135,"midi":40,"time":94.628256,"velocity":0.4881889763779528},{"duration":0.042857000000012135,"midi":40,"time":94.628256,"velocity":0.4881889763779528},{"duration":0.042857000000012135,"midi":38,"time":94.628256,"velocity":0.4881889763779528},{"duration":0.042857000000012135,"midi":38,"time":94.628256,"velocity":0.4881889763779528},{"duration":0.042857000000012135,"midi":38,"time":94.628256,"velocity":0.4881889763779528},{"duration":0.042857000000012135,"midi":40,"time":94.628256,"velocity":0.4881889763779528},{"duration":0.042857000000012135,"midi":40,"time":94.628256,"velocity":0.4881889763779528},{"duration":0.042857000000012135,"midi":40,"time":94.628256,"velocity":0.4881889763779528},{"duration":0.042856999999997925,"midi":36,"time":95.313968,"velocity":0.4881889763779528},{"duration":0.042856999999997925,"midi":41,"time":95.313968,"velocity":0.4881889763779528},{"duration":0.042856999999997925,"midi":36,"time":95.313968,"velocity":0.4881889763779528},{"duration":0.042856999999997925,"midi":36,"time":95.313968,"velocity":0.4881889763779528},{"duration":0.042856999999997925,"midi":35,"time":95.313968,"velocity":0.4881889763779528},{"duration":0.042856999999997925,"midi":43,"time":95.313968,"velocity":0.4881889763779528},{"duration":0.042856999999997925,"midi":36,"time":95.313968,"velocity":0.4881889763779528},{"duration":0.042856999999997925,"midi":43,"time":95.313968,"velocity":0.4881889763779528},{"duration":0.042856999999997925,"midi":51,"time":95.313968,"velocity":0.4881889763779528},{"duration":0.042856999999997925,"midi":55,"time":95.313968,"velocity":0.4881889763779528},{"duration":0.042856999999997925,"midi":35,"time":95.313968,"velocity":0.4881889763779528},{"duration":0.042856999999997925,"midi":35,"time":95.313968,"velocity":0.4881889763779528},{"duration":0.042856999999997925,"midi":41,"time":95.313968,"velocity":0.4881889763779528},{"duration":0.042856999999997925,"midi":35,"time":95.313968,"velocity":0.4881889763779528},{"duration":0.042856999999997925,"midi":43,"time":95.313968,"velocity":0.4881889763779528},{"duration":0.042856999999997925,"midi":41,"time":95.313968,"velocity":0.4881889763779528},{"duration":0.042856999999997925,"midi":35,"time":95.313968,"velocity":0.4881889763779528},{"duration":0.042856999999997925,"midi":36,"time":95.313968,"velocity":0.4881889763779528},{"duration":0.042856999999997925,"midi":41,"time":95.313968,"velocity":0.4881889763779528},{"duration":0.042856999999997925,"midi":41,"time":95.313968,"velocity":0.4881889763779528},{"duration":0.042856999999997925,"midi":35,"time":95.313968,"velocity":0.4881889763779528},{"duration":0.042856999999997925,"midi":35,"time":95.313968,"velocity":0.4881889763779528},{"duration":0.042856999999997925,"midi":35,"time":95.313968,"velocity":0.4881889763779528},{"duration":0.042856999999997925,"midi":36,"time":95.313968,"velocity":0.4881889763779528},{"duration":0.042856999999997925,"midi":43,"time":95.313968,"velocity":0.4881889763779528},{"duration":0.042856999999997925,"midi":43,"time":95.313968,"velocity":0.4881889763779528},{"duration":0.042856999999997925,"midi":35,"time":95.313968,"velocity":0.4881889763779528},{"duration":0.042856999999997925,"midi":35,"time":95.313968,"velocity":0.4881889763779528},{"duration":0.042856999999997925,"midi":36,"time":95.313968,"velocity":0.4881889763779528},{"duration":0.042856999999997925,"midi":36,"time":95.313968,"velocity":0.4881889763779528},{"duration":0.042856999999997925,"midi":36,"time":95.313968,"velocity":0.4881889763779528},{"duration":0.042856999999997925,"midi":36,"time":95.313968,"velocity":0.4881889763779528},{"duration":0.042856999999997925,"midi":40,"time":95.99968,"velocity":0.4881889763779528},{"duration":0.042856999999997925,"midi":38,"time":95.99968,"velocity":0.4881889763779528},{"duration":0.042856999999997925,"midi":40,"time":95.99968,"velocity":0.4881889763779528},{"duration":0.042856999999997925,"midi":40,"time":95.99968,"velocity":0.4881889763779528},{"duration":0.042856999999997925,"midi":38,"time":95.99968,"velocity":0.4881889763779528},{"duration":0.042856999999997925,"midi":38,"time":95.99968,"velocity":0.4881889763779528},{"duration":0.042856999999997925,"midi":40,"time":95.99968,"velocity":0.4881889763779528},{"duration":0.042856999999997925,"midi":38,"time":95.99968,"velocity":0.4881889763779528},{"duration":0.042856999999997925,"midi":40,"time":95.99968,"velocity":0.4881889763779528},{"duration":0.042856999999997925,"midi":38,"time":95.99968,"velocity":0.4881889763779528},{"duration":0.042856999999997925,"midi":40,"time":95.99968,"velocity":0.4881889763779528},{"duration":0.042856999999997925,"midi":38,"time":95.99968,"velocity":0.4881889763779528},{"duration":0.042856999999997925,"midi":43,"time":96.85682,"velocity":0.4881889763779528},{"duration":0.042856999999997925,"midi":41,"time":96.85682,"velocity":0.4881889763779528},{"duration":0.042856999999997925,"midi":36,"time":96.85682,"velocity":0.4881889763779528},{"duration":0.042856999999997925,"midi":35,"time":96.85682,"velocity":0.4881889763779528},{"duration":0.042856999999997925,"midi":35,"time":96.85682,"velocity":0.4881889763779528},{"duration":0.042856999999997925,"midi":36,"time":96.85682,"velocity":0.4881889763779528},{"duration":0.042856999999997925,"midi":36,"time":96.85682,"velocity":0.4881889763779528},{"duration":0.042856999999997925,"midi":35,"time":96.85682,"velocity":0.4881889763779528},{"duration":0.042856999999997925,"midi":36,"time":96.85682,"velocity":0.4881889763779528},{"duration":0.042856999999997925,"midi":43,"time":96.85682,"velocity":0.4881889763779528},{"duration":0.042856999999997925,"midi":36,"time":96.85682,"velocity":0.4881889763779528},{"duration":0.042856999999997925,"midi":41,"time":96.85682,"velocity":0.4881889763779528},{"duration":0.042856999999997925,"midi":41,"time":96.85682,"velocity":0.4881889763779528},{"duration":0.042856999999997925,"midi":36,"time":96.85682,"velocity":0.4881889763779528},{"duration":0.042856999999997925,"midi":41,"time":96.85682,"velocity":0.4881889763779528},{"duration":0.042856999999997925,"midi":35,"time":96.85682,"velocity":0.4881889763779528},{"duration":0.042856999999997925,"midi":35,"time":96.85682,"velocity":0.4881889763779528},{"duration":0.042856999999997925,"midi":41,"time":96.85682,"velocity":0.4881889763779528},{"duration":0.042856999999997925,"midi":35,"time":96.85682,"velocity":0.4881889763779528},{"duration":0.042856999999997925,"midi":35,"time":96.85682,"velocity":0.4881889763779528},{"duration":0.042856999999997925,"midi":43,"time":96.85682,"velocity":0.4881889763779528},{"duration":0.042856999999997925,"midi":43,"time":96.85682,"velocity":0.4881889763779528},{"duration":0.042856999999997925,"midi":43,"time":96.85682,"velocity":0.4881889763779528},{"duration":0.042856999999997925,"midi":36,"time":96.85682,"velocity":0.4881889763779528},{"duration":0.042856999999997925,"midi":36,"time":96.85682,"velocity":0.4881889763779528},{"duration":0.042856999999997925,"midi":36,"time":96.85682,"velocity":0.4881889763779528},{"duration":0.042856999999997925,"midi":35,"time":96.85682,"velocity":0.4881889763779528},{"duration":0.042856999999997925,"midi":36,"time":96.85682,"velocity":0.4881889763779528},{"duration":0.042856999999997925,"midi":35,"time":96.85682,"velocity":0.4881889763779528},{"duration":0.042856999999997925,"midi":35,"time":96.85682,"velocity":0.4881889763779528},{"duration":0.042856999999997925,"midi":41,"time":97.028248,"velocity":0.4881889763779528},{"duration":0.042856999999997925,"midi":43,"time":97.028248,"velocity":0.4881889763779528},{"duration":0.042856999999997925,"midi":35,"time":97.028248,"velocity":0.4881889763779528},{"duration":0.042856999999997925,"midi":35,"time":97.028248,"velocity":0.4881889763779528},{"duration":0.042856999999997925,"midi":43,"time":97.028248,"velocity":0.4881889763779528},{"duration":0.042856999999997925,"midi":36,"time":97.028248,"velocity":0.4881889763779528},{"duration":0.042856999999997925,"midi":41,"time":97.028248,"velocity":0.4881889763779528},{"duration":0.042856999999997925,"midi":36,"time":97.028248,"velocity":0.4881889763779528},{"duration":0.042856999999997925,"midi":36,"time":97.028248,"velocity":0.4881889763779528},{"duration":0.042856999999997925,"midi":41,"time":97.028248,"velocity":0.4881889763779528},{"duration":0.042856999999997925,"midi":43,"time":97.028248,"velocity":0.4881889763779528},{"duration":0.042856999999997925,"midi":35,"time":97.028248,"velocity":0.4881889763779528},{"duration":0.042856999999997925,"midi":36,"time":97.028248,"velocity":0.4881889763779528},{"duration":0.042856999999997925,"midi":35,"time":97.028248,"velocity":0.4881889763779528},{"duration":0.042856999999997925,"midi":41,"time":97.028248,"velocity":0.4881889763779528},{"duration":0.042856999999997925,"midi":35,"time":97.028248,"velocity":0.4881889763779528},{"duration":0.042856999999997925,"midi":36,"time":97.028248,"velocity":0.4881889763779528},{"duration":0.042856999999997925,"midi":36,"time":97.028248,"velocity":0.4881889763779528},{"duration":0.042856999999997925,"midi":35,"time":97.028248,"velocity":0.4881889763779528},{"duration":0.042856999999997925,"midi":35,"time":97.028248,"velocity":0.4881889763779528},{"duration":0.042856999999997925,"midi":43,"time":97.028248,"velocity":0.4881889763779528},{"duration":0.042856999999997925,"midi":36,"time":97.028248,"velocity":0.4881889763779528},{"duration":0.042856999999997925,"midi":36,"time":97.028248,"velocity":0.4881889763779528},{"duration":0.042856999999997925,"midi":35,"time":97.028248,"velocity":0.4881889763779528},{"duration":0.042856999999997925,"midi":43,"time":97.028248,"velocity":0.4881889763779528},{"duration":0.042856999999997925,"midi":36,"time":97.028248,"velocity":0.4881889763779528},{"duration":0.042856999999997925,"midi":35,"time":97.028248,"velocity":0.4881889763779528},{"duration":0.042856999999997925,"midi":41,"time":97.028248,"velocity":0.4881889763779528},{"duration":0.042856999999997925,"midi":35,"time":97.028248,"velocity":0.4881889763779528},{"duration":0.042856999999997925,"midi":36,"time":97.028248,"velocity":0.4881889763779528},{"duration":0.042856999999997925,"midi":38,"time":97.371104,"velocity":0.4881889763779528},{"duration":0.042856999999997925,"midi":38,"time":97.371104,"velocity":0.4881889763779528},{"duration":0.042856999999997925,"midi":38,"time":97.371104,"velocity":0.4881889763779528},{"duration":0.042856999999997925,"midi":40,"time":97.371104,"velocity":0.4881889763779528},{"duration":0.042856999999997925,"midi":40,"time":97.371104,"velocity":0.4881889763779528},{"duration":0.042856999999997925,"midi":38,"time":97.371104,"velocity":0.4881889763779528},{"duration":0.042856999999997925,"midi":40,"time":97.371104,"velocity":0.4881889763779528},{"duration":0.042856999999997925,"midi":38,"time":97.371104,"velocity":0.4881889763779528},{"duration":0.042856999999997925,"midi":40,"time":97.371104,"velocity":0.4881889763779528},{"duration":0.042856999999997925,"midi":38,"time":97.371104,"velocity":0.4881889763779528},{"duration":0.042856999999997925,"midi":40,"time":97.371104,"velocity":0.4881889763779528},{"duration":0.042856999999997925,"midi":40,"time":97.371104,"velocity":0.4881889763779528},{"duration":0.042856999999997925,"midi":41,"time":98.056816,"velocity":0.4881889763779528},{"duration":0.042856999999997925,"midi":49,"time":98.056816,"velocity":0.4881889763779528},{"duration":0.042856999999997925,"midi":35,"time":98.056816,"velocity":0.4881889763779528},{"duration":0.042856999999997925,"midi":41,"time":98.056816,"velocity":0.4881889763779528},{"duration":0.042856999999997925,"midi":51,"time":98.056816,"velocity":0.4881889763779528},{"duration":0.042856999999997925,"midi":43,"time":98.056816,"velocity":0.4881889763779528},{"duration":0.042856999999997925,"midi":43,"time":98.056816,"velocity":0.4881889763779528},{"duration":0.042856999999997925,"midi":43,"time":98.056816,"velocity":0.4881889763779528},{"duration":0.042856999999997925,"midi":36,"time":98.056816,"velocity":0.4881889763779528},{"duration":0.042856999999997925,"midi":36,"time":98.056816,"velocity":0.4881889763779528},{"duration":0.042856999999997925,"midi":41,"time":98.056816,"velocity":0.4881889763779528},{"duration":0.042856999999997925,"midi":36,"time":98.056816,"velocity":0.4881889763779528},{"duration":0.042856999999997925,"midi":36,"time":98.056816,"velocity":0.4881889763779528},{"duration":0.042856999999997925,"midi":35,"time":98.056816,"velocity":0.4881889763779528},{"duration":0.042856999999997925,"midi":36,"time":98.056816,"velocity":0.4881889763779528},{"duration":0.042856999999997925,"midi":43,"time":98.056816,"velocity":0.4881889763779528},{"duration":0.042856999999997925,"midi":41,"time":98.056816,"velocity":0.4881889763779528},{"duration":0.042856999999997925,"midi":36,"time":98.056816,"velocity":0.4881889763779528},{"duration":0.042856999999997925,"midi":35,"time":98.056816,"velocity":0.4881889763779528},{"duration":0.042856999999997925,"midi":35,"time":98.056816,"velocity":0.4881889763779528},{"duration":0.042856999999997925,"midi":35,"time":98.056816,"velocity":0.4881889763779528},{"duration":0.042856999999997925,"midi":36,"time":98.056816,"velocity":0.4881889763779528},{"duration":0.042856999999997925,"midi":35,"time":98.056816,"velocity":0.4881889763779528},{"duration":0.042856999999997925,"midi":36,"time":98.056816,"velocity":0.4881889763779528},{"duration":0.042856999999997925,"midi":43,"time":98.056816,"velocity":0.4881889763779528},{"duration":0.042856999999997925,"midi":35,"time":98.056816,"velocity":0.4881889763779528},{"duration":0.042856999999997925,"midi":36,"time":98.056816,"velocity":0.4881889763779528},{"duration":0.042856999999997925,"midi":57,"time":98.056816,"velocity":0.4881889763779528},{"duration":0.042856999999997925,"midi":41,"time":98.056816,"velocity":0.4881889763779528},{"duration":0.042856999999997925,"midi":35,"time":98.056816,"velocity":0.4881889763779528},{"duration":0.042856999999997925,"midi":55,"time":98.056816,"velocity":0.4881889763779528},{"duration":0.042856999999997925,"midi":35,"time":98.056816,"velocity":0.4881889763779528},{"duration":0.042856999999997925,"midi":35,"time":98.056816,"velocity":0.4881889763779528},{"duration":0.042856999999997925,"midi":36,"time":98.056816,"velocity":0.4881889763779528},{"duration":0.042856999999997925,"midi":55,"time":110.399632,"velocity":0.4881889763779528},{"duration":0.042856999999997925,"midi":51,"time":110.399632,"velocity":0.4881889763779528},{"duration":0.042857000000012135,"midi":35,"time":117.25675199999999,"velocity":0.4881889763779528},{"duration":0.042857000000012135,"midi":36,"time":117.25675199999999,"velocity":0.4881889763779528},{"duration":0.042857000000012135,"midi":36,"time":117.25675199999999,"velocity":0.4881889763779528},{"duration":0.042857000000012135,"midi":43,"time":117.25675199999999,"velocity":0.4881889763779528},{"duration":0.042857000000012135,"midi":35,"time":117.25675199999999,"velocity":0.4881889763779528},{"duration":0.042857000000012135,"midi":49,"time":117.25675199999999,"velocity":0.4881889763779528},{"duration":0.042857000000012135,"midi":55,"time":117.25675199999999,"velocity":0.4881889763779528},{"duration":0.042857000000012135,"midi":35,"time":117.25675199999999,"velocity":0.4881889763779528},{"duration":0.042857000000012135,"midi":36,"time":117.25675199999999,"velocity":0.4881889763779528},{"duration":0.042857000000012135,"midi":41,"time":117.25675199999999,"velocity":0.4881889763779528},{"duration":0.042857000000012135,"midi":36,"time":117.25675199999999,"velocity":0.4881889763779528},{"duration":0.042857000000012135,"midi":57,"time":117.25675199999999,"velocity":0.4881889763779528},{"duration":0.042857000000012135,"midi":35,"time":117.25675199999999,"velocity":0.4881889763779528},{"duration":0.042857000000012135,"midi":51,"time":117.25675199999999,"velocity":0.4881889763779528},{"duration":0.042856999999997925,"midi":38,"time":117.599608,"velocity":0.4881889763779528},{"duration":0.042856999999997925,"midi":40,"time":117.599608,"velocity":0.4881889763779528},{"duration":0.042856999999997925,"midi":38,"time":117.599608,"velocity":0.4881889763779528},{"duration":0.042856999999997925,"midi":40,"time":117.599608,"velocity":0.4881889763779528},{"duration":0.042856999999997925,"midi":48,"time":117.599608,"velocity":0.4881889763779528},{"duration":0.042856999999997925,"midi":50,"time":117.599608,"velocity":0.4881889763779528},{"duration":0.042856999999997925,"midi":38,"time":117.599608,"velocity":0.4881889763779528},{"duration":0.042856999999997925,"midi":40,"time":117.599608,"velocity":0.4881889763779528},{"duration":0.042857000000012135,"midi":36,"time":118.11389199999999,"velocity":0.4881889763779528},{"duration":0.042857000000012135,"midi":35,"time":118.11389199999999,"velocity":0.4881889763779528},{"duration":0.042857000000012135,"midi":35,"time":118.11389199999999,"velocity":0.4881889763779528},{"duration":0.042857000000012135,"midi":35,"time":118.11389199999999,"velocity":0.4881889763779528},{"duration":0.042857000000012135,"midi":36,"time":118.11389199999999,"velocity":0.4881889763779528},{"duration":0.042857000000012135,"midi":36,"time":118.11389199999999,"velocity":0.4881889763779528},{"duration":0.042857000000012135,"midi":35,"time":118.11389199999999,"velocity":0.4881889763779528},{"duration":0.042857000000012135,"midi":43,"time":118.11389199999999,"velocity":0.4881889763779528},{"duration":0.042857000000012135,"midi":36,"time":118.11389199999999,"velocity":0.4881889763779528},{"duration":0.042857000000012135,"midi":41,"time":118.11389199999999,"velocity":0.4881889763779528},{"duration":0.042856999999997925,"midi":40,"time":118.28532,"velocity":0.4881889763779528},{"duration":0.042856999999997925,"midi":40,"time":118.28532,"velocity":0.4881889763779528},{"duration":0.042856999999997925,"midi":48,"time":118.28532,"velocity":0.4881889763779528},{"duration":0.042856999999997925,"midi":38,"time":118.28532,"velocity":0.4881889763779528},{"duration":0.042856999999997925,"midi":38,"time":118.28532,"velocity":0.4881889763779528},{"duration":0.042856999999997925,"midi":38,"time":118.28532,"velocity":0.4881889763779528},{"duration":0.042856999999997925,"midi":40,"time":118.28532,"velocity":0.4881889763779528},{"duration":0.042856999999997925,"midi":50,"time":118.28532,"velocity":0.4881889763779528},{"duration":0.042856999999997925,"midi":36,"time":118.628176,"velocity":0.4881889763779528},{"duration":0.042856999999997925,"midi":35,"time":118.628176,"velocity":0.4881889763779528},{"duration":0.042856999999997925,"midi":36,"time":118.628176,"velocity":0.4881889763779528},{"duration":0.042856999999997925,"midi":35,"time":118.628176,"velocity":0.4881889763779528},{"duration":0.042856999999997925,"midi":41,"time":118.628176,"velocity":0.4881889763779528},{"duration":0.042856999999997925,"midi":36,"time":118.628176,"velocity":0.4881889763779528},{"duration":0.042856999999997925,"midi":43,"time":118.628176,"velocity":0.4881889763779528},{"duration":0.042856999999997925,"midi":35,"time":118.628176,"velocity":0.4881889763779528},{"duration":0.042856999999997925,"midi":35,"time":118.628176,"velocity":0.4881889763779528},{"duration":0.042856999999997925,"midi":36,"time":118.628176,"velocity":0.4881889763779528},{"duration":0.042856999999997925,"midi":40,"time":118.971032,"velocity":0.4881889763779528},{"duration":0.042856999999997925,"midi":40,"time":118.971032,"velocity":0.4881889763779528},{"duration":0.042856999999997925,"midi":48,"time":118.971032,"velocity":0.4881889763779528},{"duration":0.042856999999997925,"midi":38,"time":118.971032,"velocity":0.4881889763779528},{"duration":0.042856999999997925,"midi":38,"time":118.971032,"velocity":0.4881889763779528},{"duration":0.042856999999997925,"midi":40,"time":118.971032,"velocity":0.4881889763779528},{"duration":0.042856999999997925,"midi":38,"time":118.971032,"velocity":0.4881889763779528},{"duration":0.042856999999997925,"midi":50,"time":118.971032,"velocity":0.4881889763779528},{"duration":0.042856999999997925,"midi":36,"time":119.485316,"velocity":0.4881889763779528},{"duration":0.042856999999997925,"midi":35,"time":119.485316,"velocity":0.4881889763779528},{"duration":0.042856999999997925,"midi":43,"time":119.485316,"velocity":0.4881889763779528},{"duration":0.042856999999997925,"midi":35,"time":119.485316,"velocity":0.4881889763779528},{"duration":0.042856999999997925,"midi":36,"time":119.485316,"velocity":0.4881889763779528},{"duration":0.042856999999997925,"midi":35,"time":119.485316,"velocity":0.4881889763779528},{"duration":0.042856999999997925,"midi":35,"time":119.485316,"velocity":0.4881889763779528},{"duration":0.042856999999997925,"midi":41,"time":119.485316,"velocity":0.4881889763779528},{"duration":0.042856999999997925,"midi":36,"time":119.485316,"velocity":0.4881889763779528},{"duration":0.042856999999997925,"midi":36,"time":119.485316,"velocity":0.4881889763779528},{"duration":0.042856999999997925,"midi":40,"time":119.656744,"velocity":0.4881889763779528},{"duration":0.042856999999997925,"midi":50,"time":119.656744,"velocity":0.4881889763779528},{"duration":0.042856999999997925,"midi":40,"time":119.656744,"velocity":0.4881889763779528},{"duration":0.042856999999997925,"midi":38,"time":119.656744,"velocity":0.4881889763779528},{"duration":0.042856999999997925,"midi":38,"time":119.656744,"velocity":0.4881889763779528},{"duration":0.042856999999997925,"midi":40,"time":119.656744,"velocity":0.4881889763779528},{"duration":0.042856999999997925,"midi":38,"time":119.656744,"velocity":0.4881889763779528},{"duration":0.042856999999997925,"midi":48,"time":119.656744,"velocity":0.4881889763779528},{"duration":0.042856999999997925,"midi":36,"time":119.828172,"velocity":0.4881889763779528},{"duration":0.042856999999997925,"midi":35,"time":119.828172,"velocity":0.4881889763779528},{"duration":0.042856999999997925,"midi":43,"time":119.828172,"velocity":0.4881889763779528},{"duration":0.042856999999997925,"midi":35,"time":119.828172,"velocity":0.4881889763779528},{"duration":0.042856999999997925,"midi":35,"time":119.828172,"velocity":0.4881889763779528},{"duration":0.042856999999997925,"midi":36,"time":119.828172,"velocity":0.4881889763779528},{"duration":0.042856999999997925,"midi":35,"time":119.828172,"velocity":0.4881889763779528},{"duration":0.042856999999997925,"midi":36,"time":119.828172,"velocity":0.4881889763779528},{"duration":0.042856999999997925,"midi":36,"time":119.828172,"velocity":0.4881889763779528},{"duration":0.042856999999997925,"midi":41,"time":119.828172,"velocity":0.4881889763779528},{"duration":0.042856999999997925,"midi":41,"time":119.9996,"velocity":0.4881889763779528},{"duration":0.042856999999997925,"midi":43,"time":119.9996,"velocity":0.4881889763779528},{"duration":0.042856999999997925,"midi":36,"time":119.9996,"velocity":0.4881889763779528},{"duration":0.042856999999997925,"midi":36,"time":119.9996,"velocity":0.4881889763779528},{"duration":0.042856999999997925,"midi":35,"time":119.9996,"velocity":0.4881889763779528},{"duration":0.042856999999997925,"midi":36,"time":119.9996,"velocity":0.4881889763779528},{"duration":0.042856999999997925,"midi":36,"time":119.9996,"velocity":0.4881889763779528},{"duration":0.042856999999997925,"midi":35,"time":119.9996,"velocity":0.4881889763779528},{"duration":0.042856999999997925,"midi":35,"time":119.9996,"velocity":0.4881889763779528},{"duration":0.042856999999997925,"midi":35,"time":119.9996,"velocity":0.4881889763779528},{"duration":0.042856999999997925,"midi":38,"time":120.342456,"velocity":0.4881889763779528},{"duration":0.042856999999997925,"midi":38,"time":120.342456,"velocity":0.4881889763779528},{"duration":0.042856999999997925,"midi":50,"time":120.342456,"velocity":0.4881889763779528},{"duration":0.042856999999997925,"midi":40,"time":120.342456,"velocity":0.4881889763779528},{"duration":0.042856999999997925,"midi":38,"time":120.342456,"velocity":0.4881889763779528},{"duration":0.042856999999997925,"midi":40,"time":120.342456,"velocity":0.4881889763779528},{"duration":0.042856999999997925,"midi":40,"time":120.342456,"velocity":0.4881889763779528},{"duration":0.042856999999997925,"midi":48,"time":120.342456,"velocity":0.4881889763779528},{"duration":0.042856999999997925,"midi":36,"time":120.85674,"velocity":0.4881889763779528},{"duration":0.042856999999997925,"midi":36,"time":120.85674,"velocity":0.4881889763779528},{"duration":0.042856999999997925,"midi":35,"time":120.85674,"velocity":0.4881889763779528},{"duration":0.042856999999997925,"midi":36,"time":120.85674,"velocity":0.4881889763779528},{"duration":0.042856999999997925,"midi":43,"time":120.85674,"velocity":0.4881889763779528},{"duration":0.042856999999997925,"midi":35,"time":120.85674,"velocity":0.4881889763779528},{"duration":0.042856999999997925,"midi":41,"time":120.85674,"velocity":0.4881889763779528},{"duration":0.042856999999997925,"midi":36,"time":120.85674,"velocity":0.4881889763779528},{"duration":0.042856999999997925,"midi":35,"time":120.85674,"velocity":0.4881889763779528},{"duration":0.042856999999997925,"midi":35,"time":120.85674,"velocity":0.4881889763779528},{"duration":0.042856999999997925,"midi":38,"time":121.028168,"velocity":0.4881889763779528},{"duration":0.042856999999997925,"midi":40,"time":121.028168,"velocity":0.4881889763779528},{"duration":0.042856999999997925,"midi":40,"time":121.028168,"velocity":0.4881889763779528},{"duration":0.042856999999997925,"midi":50,"time":121.028168,"velocity":0.4881889763779528},{"duration":0.042856999999997925,"midi":38,"time":121.028168,"velocity":0.4881889763779528},{"duration":0.042856999999997925,"midi":48,"time":121.028168,"velocity":0.4881889763779528},{"duration":0.042856999999997925,"midi":40,"time":121.028168,"velocity":0.4881889763779528},{"duration":0.042856999999997925,"midi":38,"time":121.028168,"velocity":0.4881889763779528},{"duration":0.042857000000012135,"midi":43,"time":121.37102399999999,"velocity":0.4881889763779528},{"duration":0.042857000000012135,"midi":41,"time":121.37102399999999,"velocity":0.4881889763779528},{"duration":0.042857000000012135,"midi":36,"time":121.37102399999999,"velocity":0.4881889763779528},{"duration":0.042857000000012135,"midi":35,"time":121.37102399999999,"velocity":0.4881889763779528},{"duration":0.042857000000012135,"midi":36,"time":121.37102399999999,"velocity":0.4881889763779528},{"duration":0.042857000000012135,"midi":35,"time":121.37102399999999,"velocity":0.4881889763779528},{"duration":0.042857000000012135,"midi":35,"time":121.37102399999999,"velocity":0.4881889763779528},{"duration":0.042857000000012135,"midi":36,"time":121.37102399999999,"velocity":0.4881889763779528},{"duration":0.042857000000012135,"midi":36,"time":121.37102399999999,"velocity":0.4881889763779528},{"duration":0.042857000000012135,"midi":35,"time":121.37102399999999,"velocity":0.4881889763779528},{"duration":0.042856999999997925,"midi":40,"time":121.71388,"velocity":0.4881889763779528},{"duration":0.042856999999997925,"midi":48,"time":121.71388,"velocity":0.4881889763779528},{"duration":0.042856999999997925,"midi":40,"time":121.71388,"velocity":0.4881889763779528},{"duration":0.042856999999997925,"midi":38,"time":121.71388,"velocity":0.4881889763779528},{"duration":0.042856999999997925,"midi":50,"time":121.71388,"velocity":0.4881889763779528},{"duration":0.042856999999997925,"midi":40,"time":121.71388,"velocity":0.4881889763779528},{"duration":0.042856999999997925,"midi":38,"time":121.71388,"velocity":0.4881889763779528},{"duration":0.042856999999997925,"midi":38,"time":121.71388,"velocity":0.4881889763779528},{"duration":0.042857000000012135,"midi":36,"time":122.22816399999999,"velocity":0.4881889763779528},{"duration":0.042857000000012135,"midi":43,"time":122.22816399999999,"velocity":0.4881889763779528},{"duration":0.042857000000012135,"midi":35,"time":122.22816399999999,"velocity":0.4881889763779528},{"duration":0.042857000000012135,"midi":41,"time":122.22816399999999,"velocity":0.4881889763779528},{"duration":0.042857000000012135,"midi":35,"time":122.22816399999999,"velocity":0.4881889763779528},{"duration":0.042857000000012135,"midi":36,"time":122.22816399999999,"velocity":0.4881889763779528},{"duration":0.042857000000012135,"midi":36,"time":122.22816399999999,"velocity":0.4881889763779528},{"duration":0.042857000000012135,"midi":35,"time":122.22816399999999,"velocity":0.4881889763779528},{"duration":0.042857000000012135,"midi":36,"time":122.22816399999999,"velocity":0.4881889763779528},{"duration":0.042857000000012135,"midi":35,"time":122.22816399999999,"velocity":0.4881889763779528},{"duration":0.042856999999997925,"midi":36,"time":122.313878,"velocity":0.4881889763779528},{"duration":0.042856999999997925,"midi":35,"time":122.313878,"velocity":0.4881889763779528},{"duration":0.042856999999997925,"midi":36,"time":122.313878,"velocity":0.4881889763779528},{"duration":0.042856999999997925,"midi":36,"time":122.313878,"velocity":0.4881889763779528},{"duration":0.042856999999997925,"midi":35,"time":122.313878,"velocity":0.4881889763779528},{"duration":0.042856999999997925,"midi":41,"time":122.313878,"velocity":0.4881889763779528},{"duration":0.042856999999997925,"midi":35,"time":122.313878,"velocity":0.4881889763779528},{"duration":0.042856999999997925,"midi":43,"time":122.313878,"velocity":0.4881889763779528},{"duration":0.042856999999997925,"midi":36,"time":122.313878,"velocity":0.4881889763779528},{"duration":0.042856999999997925,"midi":35,"time":122.313878,"velocity":0.4881889763779528},{"duration":0.042856999999997925,"midi":50,"time":122.399592,"velocity":0.4881889763779528},{"duration":0.042856999999997925,"midi":40,"time":122.399592,"velocity":0.4881889763779528},{"duration":0.042856999999997925,"midi":48,"time":122.399592,"velocity":0.4881889763779528},{"duration":0.042856999999997925,"midi":38,"time":122.399592,"velocity":0.4881889763779528},{"duration":0.042856999999997925,"midi":38,"time":122.399592,"velocity":0.4881889763779528},{"duration":0.042856999999997925,"midi":38,"time":122.399592,"velocity":0.4881889763779528},{"duration":0.042856999999997925,"midi":40,"time":122.399592,"velocity":0.4881889763779528},{"duration":0.042856999999997925,"midi":40,"time":122.399592,"velocity":0.4881889763779528},{"duration":0.042856999999997925,"midi":43,"time":122.57102,"velocity":0.4881889763779528},{"duration":0.042856999999997925,"midi":35,"time":122.57102,"velocity":0.4881889763779528},{"duration":0.042856999999997925,"midi":36,"time":122.57102,"velocity":0.4881889763779528},{"duration":0.042856999999997925,"midi":36,"time":122.57102,"velocity":0.4881889763779528},{"duration":0.042856999999997925,"midi":35,"time":122.57102,"velocity":0.4881889763779528},{"duration":0.042856999999997925,"midi":35,"time":122.57102,"velocity":0.4881889763779528},{"duration":0.042856999999997925,"midi":36,"time":122.57102,"velocity":0.4881889763779528},{"duration":0.042856999999997925,"midi":35,"time":122.57102,"velocity":0.4881889763779528},{"duration":0.042856999999997925,"midi":36,"time":122.57102,"velocity":0.4881889763779528},{"duration":0.042856999999997925,"midi":41,"time":122.57102,"velocity":0.4881889763779528},{"duration":0.042856999999997925,"midi":36,"time":122.742448,"velocity":0.4881889763779528},{"duration":0.042856999999997925,"midi":35,"time":122.742448,"velocity":0.4881889763779528},{"duration":0.042856999999997925,"midi":35,"time":122.742448,"velocity":0.4881889763779528},{"duration":0.042856999999997925,"midi":35,"time":122.742448,"velocity":0.4881889763779528},{"duration":0.042856999999997925,"midi":36,"time":122.742448,"velocity":0.4881889763779528},{"duration":0.042856999999997925,"midi":36,"time":122.742448,"velocity":0.4881889763779528},{"duration":0.042856999999997925,"midi":43,"time":122.742448,"velocity":0.4881889763779528},{"duration":0.042856999999997925,"midi":36,"time":122.742448,"velocity":0.4881889763779528},{"duration":0.042856999999997925,"midi":41,"time":122.742448,"velocity":0.4881889763779528},{"duration":0.042856999999997925,"midi":35,"time":122.742448,"velocity":0.4881889763779528},{"duration":0.042856999999997925,"midi":38,"time":123.085304,"velocity":0.4881889763779528},{"duration":0.042856999999997925,"midi":48,"time":123.085304,"velocity":0.4881889763779528},{"duration":0.042856999999997925,"midi":40,"time":123.085304,"velocity":0.4881889763779528},{"duration":0.042856999999997925,"midi":50,"time":123.085304,"velocity":0.4881889763779528},{"duration":0.042856999999997925,"midi":40,"time":123.085304,"velocity":0.4881889763779528},{"duration":0.042856999999997925,"midi":38,"time":123.085304,"velocity":0.4881889763779528},{"duration":0.042856999999997925,"midi":40,"time":123.085304,"velocity":0.4881889763779528},{"duration":0.042856999999997925,"midi":38,"time":123.085304,"velocity":0.4881889763779528},{"duration":0.042856999999997925,"midi":36,"time":123.599588,"velocity":0.4881889763779528},{"duration":0.042856999999997925,"midi":35,"time":123.599588,"velocity":0.4881889763779528},{"duration":0.042856999999997925,"midi":35,"time":123.599588,"velocity":0.4881889763779528},{"duration":0.042856999999997925,"midi":35,"time":123.599588,"velocity":0.4881889763779528},{"duration":0.042856999999997925,"midi":36,"time":123.599588,"velocity":0.4881889763779528},{"duration":0.042856999999997925,"midi":43,"time":123.599588,"velocity":0.4881889763779528},{"duration":0.042856999999997925,"midi":36,"time":123.599588,"velocity":0.4881889763779528},{"duration":0.042856999999997925,"midi":35,"time":123.599588,"velocity":0.4881889763779528},{"duration":0.042856999999997925,"midi":36,"time":123.599588,"velocity":0.4881889763779528},{"duration":0.042856999999997925,"midi":41,"time":123.599588,"velocity":0.4881889763779528},{"duration":0.042856999999997925,"midi":40,"time":123.771016,"velocity":0.4881889763779528},{"duration":0.042856999999997925,"midi":50,"time":123.771016,"velocity":0.4881889763779528},{"duration":0.042856999999997925,"midi":38,"time":123.771016,"velocity":0.4881889763779528},{"duration":0.042856999999997925,"midi":38,"time":123.771016,"velocity":0.4881889763779528},{"duration":0.042856999999997925,"midi":40,"time":123.771016,"velocity":0.4881889763779528},{"duration":0.042856999999997925,"midi":40,"time":123.771016,"velocity":0.4881889763779528},{"duration":0.042856999999997925,"midi":38,"time":123.771016,"velocity":0.4881889763779528},{"duration":0.042856999999997925,"midi":43,"time":124.113872,"velocity":0.4881889763779528},{"duration":0.042856999999997925,"midi":35,"time":124.113872,"velocity":0.4881889763779528},{"duration":0.042856999999997925,"midi":36,"time":124.113872,"velocity":0.4881889763779528},{"duration":0.042856999999997925,"midi":41,"time":124.113872,"velocity":0.4881889763779528},{"duration":0.042856999999997925,"midi":36,"time":124.113872,"velocity":0.4881889763779528},{"duration":0.042856999999997925,"midi":36,"time":124.113872,"velocity":0.4881889763779528},{"duration":0.042856999999997925,"midi":36,"time":124.113872,"velocity":0.4881889763779528},{"duration":0.042856999999997925,"midi":35,"time":124.113872,"velocity":0.4881889763779528},{"duration":0.042856999999997925,"midi":35,"time":124.113872,"velocity":0.4881889763779528},{"duration":0.042856999999997925,"midi":35,"time":124.113872,"velocity":0.4881889763779528},{"duration":0.042856999999997925,"midi":40,"time":124.456728,"velocity":0.4881889763779528},{"duration":0.042856999999997925,"midi":38,"time":124.456728,"velocity":0.4881889763779528},{"duration":0.042856999999997925,"midi":48,"time":124.456728,"velocity":0.4881889763779528},{"duration":0.042856999999997925,"midi":38,"time":124.456728,"velocity":0.4881889763779528},{"duration":0.042856999999997925,"midi":50,"time":124.456728,"velocity":0.4881889763779528},{"duration":0.042856999999997925,"midi":40,"time":124.456728,"velocity":0.4881889763779528},{"duration":0.042856999999997925,"midi":40,"time":124.456728,"velocity":0.4881889763779528},{"duration":0.042856999999997925,"midi":38,"time":124.456728,"velocity":0.4881889763779528},{"duration":0.042856999999997925,"midi":35,"time":124.971012,"velocity":0.4881889763779528},{"duration":0.042856999999997925,"midi":36,"time":124.971012,"velocity":0.4881889763779528},{"duration":0.042856999999997925,"midi":36,"time":124.971012,"velocity":0.4881889763779528},{"duration":0.042856999999997925,"midi":36,"time":124.971012,"velocity":0.4881889763779528},{"duration":0.042856999999997925,"midi":35,"time":124.971012,"velocity":0.4881889763779528},{"duration":0.042856999999997925,"midi":41,"time":124.971012,"velocity":0.4881889763779528},{"duration":0.042856999999997925,"midi":43,"time":124.971012,"velocity":0.4881889763779528},{"duration":0.042856999999997925,"midi":35,"time":124.971012,"velocity":0.4881889763779528},{"duration":0.042856999999997925,"midi":35,"time":124.971012,"velocity":0.4881889763779528},{"duration":0.042856999999997925,"midi":36,"time":124.971012,"velocity":0.4881889763779528},{"duration":0.042856999999997925,"midi":50,"time":125.14244,"velocity":0.4881889763779528},{"duration":0.042856999999997925,"midi":40,"time":125.14244,"velocity":0.4881889763779528},{"duration":0.042856999999997925,"midi":48,"time":125.14244,"velocity":0.4881889763779528},{"duration":0.042856999999997925,"midi":40,"time":125.14244,"velocity":0.4881889763779528},{"duration":0.042856999999997925,"midi":38,"time":125.14244,"velocity":0.4881889763779528},{"duration":0.042856999999997925,"midi":38,"time":125.14244,"velocity":0.4881889763779528},{"duration":0.042856999999997925,"midi":38,"time":125.14244,"velocity":0.4881889763779528},{"duration":0.042856999999997925,"midi":40,"time":125.14244,"velocity":0.4881889763779528},{"duration":0.042856999999997925,"midi":35,"time":125.313868,"velocity":0.4881889763779528},{"duration":0.042856999999997925,"midi":36,"time":125.313868,"velocity":0.4881889763779528},{"duration":0.042856999999997925,"midi":43,"time":125.313868,"velocity":0.4881889763779528},{"duration":0.042856999999997925,"midi":41,"time":125.313868,"velocity":0.4881889763779528},{"duration":0.042856999999997925,"midi":35,"time":125.313868,"velocity":0.4881889763779528},{"duration":0.042856999999997925,"midi":36,"time":125.313868,"velocity":0.4881889763779528},{"duration":0.042856999999997925,"midi":36,"time":125.313868,"velocity":0.4881889763779528},{"duration":0.042856999999997925,"midi":35,"time":125.313868,"velocity":0.4881889763779528},{"duration":0.042856999999997925,"midi":36,"time":125.313868,"velocity":0.4881889763779528},{"duration":0.042856999999997925,"midi":35,"time":125.313868,"velocity":0.4881889763779528},{"duration":0.042857000000012135,"midi":43,"time":125.48529599999999,"velocity":0.4881889763779528},{"duration":0.042857000000012135,"midi":35,"time":125.48529599999999,"velocity":0.4881889763779528},{"duration":0.042857000000012135,"midi":35,"time":125.48529599999999,"velocity":0.4881889763779528},{"duration":0.042857000000012135,"midi":36,"time":125.48529599999999,"velocity":0.4881889763779528},{"duration":0.042857000000012135,"midi":36,"time":125.48529599999999,"velocity":0.4881889763779528},{"duration":0.042857000000012135,"midi":35,"time":125.48529599999999,"velocity":0.4881889763779528},{"duration":0.042857000000012135,"midi":36,"time":125.48529599999999,"velocity":0.4881889763779528},{"duration":0.042857000000012135,"midi":35,"time":125.48529599999999,"velocity":0.4881889763779528},{"duration":0.042857000000012135,"midi":41,"time":125.48529599999999,"velocity":0.4881889763779528},{"duration":0.042857000000012135,"midi":36,"time":125.48529599999999,"velocity":0.4881889763779528},{"duration":0.042856999999997925,"midi":48,"time":125.828152,"velocity":0.4881889763779528},{"duration":0.042856999999997925,"midi":38,"time":125.828152,"velocity":0.4881889763779528},{"duration":0.042856999999997925,"midi":38,"time":125.828152,"velocity":0.4881889763779528},{"duration":0.042856999999997925,"midi":50,"time":125.828152,"velocity":0.4881889763779528},{"duration":0.042856999999997925,"midi":38,"time":125.828152,"velocity":0.4881889763779528},{"duration":0.042856999999997925,"midi":40,"time":125.828152,"velocity":0.4881889763779528},{"duration":0.042856999999997925,"midi":40,"time":125.828152,"velocity":0.4881889763779528},{"duration":0.042856999999997925,"midi":40,"time":125.828152,"velocity":0.4881889763779528},{"duration":0.042856999999997925,"midi":36,"time":126.171008,"velocity":0.4881889763779528},{"duration":0.042856999999997925,"midi":41,"time":126.171008,"velocity":0.4881889763779528},{"duration":0.042856999999997925,"midi":35,"time":126.171008,"velocity":0.4881889763779528},{"duration":0.042856999999997925,"midi":36,"time":126.171008,"velocity":0.4881889763779528},{"duration":0.042856999999997925,"midi":35,"time":126.171008,"velocity":0.4881889763779528},{"duration":0.042856999999997925,"midi":36,"time":126.171008,"velocity":0.4881889763779528},{"duration":0.042856999999997925,"midi":43,"time":126.171008,"velocity":0.4881889763779528},{"duration":0.042856999999997925,"midi":35,"time":126.171008,"velocity":0.4881889763779528},{"duration":0.042856999999997925,"midi":36,"time":126.171008,"velocity":0.4881889763779528},{"duration":0.042856999999997925,"midi":35,"time":126.171008,"velocity":0.4881889763779528},{"duration":0.042856999999997925,"midi":36,"time":126.256722,"velocity":0.4881889763779528},{"duration":0.042856999999997925,"midi":36,"time":126.256722,"velocity":0.4881889763779528},{"duration":0.042856999999997925,"midi":35,"time":126.256722,"velocity":0.4881889763779528},{"duration":0.042856999999997925,"midi":35,"time":126.256722,"velocity":0.4881889763779528},{"duration":0.042856999999997925,"midi":36,"time":126.256722,"velocity":0.4881889763779528},{"duration":0.042856999999997925,"midi":35,"time":126.256722,"velocity":0.4881889763779528},{"duration":0.042856999999997925,"midi":43,"time":126.256722,"velocity":0.4881889763779528},{"duration":0.042856999999997925,"midi":41,"time":126.256722,"velocity":0.4881889763779528},{"duration":0.042856999999997925,"midi":35,"time":126.256722,"velocity":0.4881889763779528},{"duration":0.042856999999997925,"midi":36,"time":126.256722,"velocity":0.4881889763779528},{"duration":0.042857000000012135,"midi":36,"time":126.34243599999999,"velocity":0.4881889763779528},{"duration":0.042857000000012135,"midi":43,"time":126.34243599999999,"velocity":0.4881889763779528},{"duration":0.042857000000012135,"midi":36,"time":126.34243599999999,"velocity":0.4881889763779528},{"duration":0.042857000000012135,"midi":36,"time":126.34243599999999,"velocity":0.4881889763779528},{"duration":0.042857000000012135,"midi":35,"time":126.34243599999999,"velocity":0.4881889763779528},{"duration":0.042857000000012135,"midi":41,"time":126.34243599999999,"velocity":0.4881889763779528},{"duration":0.042857000000012135,"midi":35,"time":126.34243599999999,"velocity":0.4881889763779528},{"duration":0.042857000000012135,"midi":35,"time":126.34243599999999,"velocity":0.4881889763779528},{"duration":0.042857000000012135,"midi":35,"time":126.34243599999999,"velocity":0.4881889763779528},{"duration":0.042857000000012135,"midi":36,"time":126.34243599999999,"velocity":0.4881889763779528},{"duration":0.042856999999997925,"midi":38,"time":126.513864,"velocity":0.4881889763779528},{"duration":0.042856999999997925,"midi":38,"time":126.513864,"velocity":0.4881889763779528},{"duration":0.042856999999997925,"midi":40,"time":126.513864,"velocity":0.4881889763779528},{"duration":0.042856999999997925,"midi":50,"time":126.513864,"velocity":0.4881889763779528},{"duration":0.042856999999997925,"midi":48,"time":126.513864,"velocity":0.4881889763779528},{"duration":0.042856999999997925,"midi":40,"time":126.513864,"velocity":0.4881889763779528},{"duration":0.042856999999997925,"midi":38,"time":126.513864,"velocity":0.4881889763779528},{"duration":0.042856999999997925,"midi":40,"time":126.513864,"velocity":0.4881889763779528},{"duration":0.042856999999997925,"midi":36,"time":126.685292,"velocity":0.4881889763779528},{"duration":0.042856999999997925,"midi":41,"time":126.685292,"velocity":0.4881889763779528},{"duration":0.042856999999997925,"midi":35,"time":126.685292,"velocity":0.4881889763779528},{"duration":0.042856999999997925,"midi":36,"time":126.685292,"velocity":0.4881889763779528},{"duration":0.042856999999997925,"midi":36,"time":126.685292,"velocity":0.4881889763779528},{"duration":0.042856999999997925,"midi":36,"time":126.685292,"velocity":0.4881889763779528},{"duration":0.042856999999997925,"midi":35,"time":126.685292,"velocity":0.4881889763779528},{"duration":0.042856999999997925,"midi":35,"time":126.685292,"velocity":0.4881889763779528},{"duration":0.042856999999997925,"midi":43,"time":126.685292,"velocity":0.4881889763779528},{"duration":0.042856999999997925,"midi":35,"time":126.685292,"velocity":0.4881889763779528},{"duration":0.042856999999997925,"midi":48,"time":126.85672,"velocity":0.4881889763779528},{"duration":0.042856999999997925,"midi":50,"time":126.85672,"velocity":0.4881889763779528},{"duration":0.042856999999997925,"midi":40,"time":126.85672,"velocity":0.4881889763779528},{"duration":0.042856999999997925,"midi":38,"time":126.85672,"velocity":0.4881889763779528},{"duration":0.042856999999997925,"midi":38,"time":126.85672,"velocity":0.4881889763779528},{"duration":0.042856999999997925,"midi":40,"time":126.85672,"velocity":0.4881889763779528},{"duration":0.042856999999997925,"midi":40,"time":126.85672,"velocity":0.4881889763779528},{"duration":0.042856999999997925,"midi":38,"time":126.85672,"velocity":0.4881889763779528},{"duration":0.042856999999997925,"midi":35,"time":127.028148,"velocity":0.4881889763779528},{"duration":0.042856999999997925,"midi":36,"time":127.028148,"velocity":0.4881889763779528},{"duration":0.042856999999997925,"midi":35,"time":127.028148,"velocity":0.4881889763779528},{"duration":0.042856999999997925,"midi":41,"time":127.028148,"velocity":0.4881889763779528},{"duration":0.042856999999997925,"midi":43,"time":127.028148,"velocity":0.4881889763779528},{"duration":0.042856999999997925,"midi":35,"time":127.028148,"velocity":0.4881889763779528},{"duration":0.042856999999997925,"midi":36,"time":127.028148,"velocity":0.4881889763779528},{"duration":0.042856999999997925,"midi":36,"time":127.028148,"velocity":0.4881889763779528},{"duration":0.042856999999997925,"midi":35,"time":127.028148,"velocity":0.4881889763779528},{"duration":0.042856999999997925,"midi":36,"time":127.028148,"velocity":0.4881889763779528},{"duration":0.042856999999997925,"midi":40,"time":127.199576,"velocity":0.4881889763779528},{"duration":0.042856999999997925,"midi":48,"time":127.199576,"velocity":0.4881889763779528},{"duration":0.042856999999997925,"midi":38,"time":127.199576,"velocity":0.4881889763779528},{"duration":0.042856999999997925,"midi":40,"time":127.199576,"velocity":0.4881889763779528},{"duration":0.042856999999997925,"midi":38,"time":127.199576,"velocity":0.4881889763779528},{"duration":0.042856999999997925,"midi":38,"time":127.199576,"velocity":0.4881889763779528},{"duration":0.042856999999997925,"midi":40,"time":127.199576,"velocity":0.4881889763779528},{"duration":0.042856999999997925,"midi":50,"time":127.199576,"velocity":0.4881889763779528},{"duration":0.042856999999997925,"midi":36,"time":127.371004,"velocity":0.4881889763779528},{"duration":0.042856999999997925,"midi":36,"time":127.371004,"velocity":0.4881889763779528},{"duration":0.042856999999997925,"midi":36,"time":127.371004,"velocity":0.4881889763779528},{"duration":0.042856999999997925,"midi":35,"time":127.371004,"velocity":0.4881889763779528},{"duration":0.042856999999997925,"midi":35,"time":127.371004,"velocity":0.4881889763779528},{"duration":0.042856999999997925,"midi":36,"time":127.371004,"velocity":0.4881889763779528},{"duration":0.042856999999997925,"midi":41,"time":127.371004,"velocity":0.4881889763779528},{"duration":0.042856999999997925,"midi":35,"time":127.371004,"velocity":0.4881889763779528},{"duration":0.042856999999997925,"midi":43,"time":127.371004,"velocity":0.4881889763779528},{"duration":0.042856999999997925,"midi":35,"time":127.371004,"velocity":0.4881889763779528},{"duration":0.042857000000012135,"midi":40,"time":127.54243199999999,"velocity":0.4881889763779528},{"duration":0.042857000000012135,"midi":40,"time":127.54243199999999,"velocity":0.4881889763779528},{"duration":0.042857000000012135,"midi":38,"time":127.54243199999999,"velocity":0.4881889763779528},{"duration":0.042857000000012135,"midi":38,"time":127.54243199999999,"velocity":0.4881889763779528},{"duration":0.042857000000012135,"midi":50,"time":127.54243199999999,"velocity":0.4881889763779528},{"duration":0.042857000000012135,"midi":40,"time":127.54243199999999,"velocity":0.4881889763779528},{"duration":0.042857000000012135,"midi":48,"time":127.54243199999999,"velocity":0.4881889763779528},{"duration":0.042857000000012135,"midi":38,"time":127.54243199999999,"velocity":0.4881889763779528},{"duration":0.042856999999997925,"midi":38,"time":127.628146,"velocity":0.4881889763779528},{"duration":0.042856999999997925,"midi":38,"time":127.628146,"velocity":0.4881889763779528},{"duration":0.042856999999997925,"midi":50,"time":127.628146,"velocity":0.4881889763779528},{"duration":0.042856999999997925,"midi":40,"time":127.628146,"velocity":0.4881889763779528},{"duration":0.042856999999997925,"midi":40,"time":127.628146,"velocity":0.4881889763779528},{"duration":0.042856999999997925,"midi":48,"time":127.628146,"velocity":0.4881889763779528},{"duration":0.042856999999997925,"midi":40,"time":127.628146,"velocity":0.4881889763779528},{"duration":0.042856999999997925,"midi":38,"time":127.628146,"velocity":0.4881889763779528},{"duration":0.042856999999997925,"midi":35,"time":127.71386,"velocity":0.4881889763779528},{"duration":0.042856999999997925,"midi":43,"time":127.71386,"velocity":0.4881889763779528},{"duration":0.042856999999997925,"midi":35,"time":127.71386,"velocity":0.4881889763779528},{"duration":0.042856999999997925,"midi":41,"time":127.71386,"velocity":0.4881889763779528},{"duration":0.042856999999997925,"midi":36,"time":127.71386,"velocity":0.4881889763779528},{"duration":0.042856999999997925,"midi":36,"time":127.71386,"velocity":0.4881889763779528},{"duration":0.042856999999997925,"midi":35,"time":127.71386,"velocity":0.4881889763779528},{"duration":0.042856999999997925,"midi":35,"time":127.71386,"velocity":0.4881889763779528},{"duration":0.042856999999997925,"midi":36,"time":127.71386,"velocity":0.4881889763779528},{"duration":0.042856999999997925,"midi":36,"time":127.71386,"velocity":0.4881889763779528},{"duration":0.042856999999997925,"midi":38,"time":127.885288,"velocity":0.4881889763779528},{"duration":0.042856999999997925,"midi":48,"time":127.885288,"velocity":0.4881889763779528},{"duration":0.042856999999997925,"midi":40,"time":127.885288,"velocity":0.4881889763779528},{"duration":0.042856999999997925,"midi":50,"time":127.885288,"velocity":0.4881889763779528},{"duration":0.042856999999997925,"midi":40,"time":127.885288,"velocity":0.4881889763779528},{"duration":0.042856999999997925,"midi":40,"time":127.885288,"velocity":0.4881889763779528},{"duration":0.042856999999997925,"midi":38,"time":127.885288,"velocity":0.4881889763779528},{"duration":0.042856999999997925,"midi":38,"time":127.885288,"velocity":0.4881889763779528},{"duration":0.042856999999997925,"midi":35,"time":128.228144,"velocity":0.4881889763779528},{"duration":0.042856999999997925,"midi":36,"time":128.228144,"velocity":0.4881889763779528},{"duration":0.042856999999997925,"midi":36,"time":128.228144,"velocity":0.4881889763779528},{"duration":0.042856999999997925,"midi":35,"time":128.228144,"velocity":0.4881889763779528},{"duration":0.042856999999997925,"midi":57,"time":128.228144,"velocity":0.4881889763779528},{"duration":0.042856999999997925,"midi":51,"time":128.228144,"velocity":0.4881889763779528},{"duration":0.042856999999997925,"midi":49,"time":128.228144,"velocity":0.4881889763779528},{"duration":0.042856999999997925,"midi":35,"time":128.228144,"velocity":0.4881889763779528},{"duration":0.042856999999997925,"midi":41,"time":128.228144,"velocity":0.4881889763779528},{"duration":0.042856999999997925,"midi":36,"time":128.228144,"velocity":0.4881889763779528},{"duration":0.042856999999997925,"midi":55,"time":128.228144,"velocity":0.4881889763779528},{"duration":0.042856999999997925,"midi":35,"time":128.228144,"velocity":0.4881889763779528},{"duration":0.042856999999997925,"midi":43,"time":128.228144,"velocity":0.4881889763779528},{"duration":0.042856999999997925,"midi":36,"time":128.228144,"velocity":0.4881889763779528},{"duration":0.042856999999997925,"midi":50,"time":128.571,"velocity":0.4881889763779528},{"duration":0.042856999999997925,"midi":48,"time":128.571,"velocity":0.4881889763779528},{"duration":0.042856999999997925,"midi":38,"time":128.571,"velocity":0.4881889763779528},{"duration":0.042856999999997925,"midi":40,"time":128.571,"velocity":0.4881889763779528},{"duration":0.042856999999997925,"midi":38,"time":128.571,"velocity":0.4881889763779528},{"duration":0.042856999999997925,"midi":38,"time":128.571,"velocity":0.4881889763779528},{"duration":0.042856999999997925,"midi":40,"time":128.571,"velocity":0.4881889763779528},{"duration":0.042856999999997925,"midi":40,"time":128.571,"velocity":0.4881889763779528},{"duration":0.042856999999997925,"midi":36,"time":129.085284,"velocity":0.4881889763779528},{"duration":0.042856999999997925,"midi":35,"time":129.085284,"velocity":0.4881889763779528},{"duration":0.042856999999997925,"midi":41,"time":129.085284,"velocity":0.4881889763779528},{"duration":0.042856999999997925,"midi":36,"time":129.085284,"velocity":0.4881889763779528},{"duration":0.042856999999997925,"midi":43,"time":129.085284,"velocity":0.4881889763779528},{"duration":0.042856999999997925,"midi":35,"time":129.085284,"velocity":0.4881889763779528},{"duration":0.042856999999997925,"midi":35,"time":129.085284,"velocity":0.4881889763779528},{"duration":0.042856999999997925,"midi":36,"time":129.085284,"velocity":0.4881889763779528},{"duration":0.042856999999997925,"midi":35,"time":129.085284,"velocity":0.4881889763779528},{"duration":0.042856999999997925,"midi":36,"time":129.085284,"velocity":0.4881889763779528},{"duration":0.042856999999997925,"midi":38,"time":129.256712,"velocity":0.4881889763779528},{"duration":0.042856999999997925,"midi":40,"time":129.256712,"velocity":0.4881889763779528},{"duration":0.042856999999997925,"midi":40,"time":129.256712,"velocity":0.4881889763779528},{"duration":0.042856999999997925,"midi":50,"time":129.256712,"velocity":0.4881889763779528},{"duration":0.042856999999997925,"midi":38,"time":129.256712,"velocity":0.4881889763779528},{"duration":0.042856999999997925,"midi":38,"time":129.256712,"velocity":0.4881889763779528},{"duration":0.042856999999997925,"midi":48,"time":129.256712,"velocity":0.4881889763779528},{"duration":0.042856999999997925,"midi":40,"time":129.256712,"velocity":0.4881889763779528},{"duration":0.042856999999997925,"midi":35,"time":129.599568,"velocity":0.4881889763779528},{"duration":0.042856999999997925,"midi":36,"time":129.599568,"velocity":0.4881889763779528},{"duration":0.042856999999997925,"midi":35,"time":129.599568,"velocity":0.4881889763779528},{"duration":0.042856999999997925,"midi":43,"time":129.599568,"velocity":0.4881889763779528},{"duration":0.042856999999997925,"midi":35,"time":129.599568,"velocity":0.4881889763779528},{"duration":0.042856999999997925,"midi":36,"time":129.599568,"velocity":0.4881889763779528},{"duration":0.042856999999997925,"midi":35,"time":129.599568,"velocity":0.4881889763779528},{"duration":0.042856999999997925,"midi":41,"time":129.599568,"velocity":0.4881889763779528},{"duration":0.042856999999997925,"midi":36,"time":129.599568,"velocity":0.4881889763779528},{"duration":0.042856999999997925,"midi":36,"time":129.599568,"velocity":0.4881889763779528},{"duration":0.042856999999997925,"midi":50,"time":129.942424,"velocity":0.4881889763779528},{"duration":0.042856999999997925,"midi":38,"time":129.942424,"velocity":0.4881889763779528},{"duration":0.042856999999997925,"midi":38,"time":129.942424,"velocity":0.4881889763779528},{"duration":0.042856999999997925,"midi":38,"time":129.942424,"velocity":0.4881889763779528},{"duration":0.042856999999997925,"midi":40,"time":129.942424,"velocity":0.4881889763779528},{"duration":0.042856999999997925,"midi":40,"time":129.942424,"velocity":0.4881889763779528},{"duration":0.042856999999997925,"midi":48,"time":129.942424,"velocity":0.4881889763779528},{"duration":0.042856999999997925,"midi":40,"time":129.942424,"velocity":0.4881889763779528},{"duration":0.042856999999997925,"midi":35,"time":130.456708,"velocity":0.4881889763779528},{"duration":0.042856999999997925,"midi":35,"time":130.456708,"velocity":0.4881889763779528},{"duration":0.042856999999997925,"midi":36,"time":130.456708,"velocity":0.4881889763779528},{"duration":0.042856999999997925,"midi":43,"time":130.456708,"velocity":0.4881889763779528},{"duration":0.042856999999997925,"midi":35,"time":130.456708,"velocity":0.4881889763779528},{"duration":0.042856999999997925,"midi":36,"time":130.456708,"velocity":0.4881889763779528},{"duration":0.042856999999997925,"midi":35,"time":130.456708,"velocity":0.4881889763779528},{"duration":0.042856999999997925,"midi":36,"time":130.456708,"velocity":0.4881889763779528},{"duration":0.042856999999997925,"midi":36,"time":130.456708,"velocity":0.4881889763779528},{"duration":0.042856999999997925,"midi":41,"time":130.456708,"velocity":0.4881889763779528},{"duration":0.042857000000026346,"midi":50,"time":130.62813599999998,"velocity":0.4881889763779528},{"duration":0.042857000000026346,"midi":40,"time":130.62813599999998,"velocity":0.4881889763779528},{"duration":0.042857000000026346,"midi":38,"time":130.62813599999998,"velocity":0.4881889763779528},{"duration":0.042857000000026346,"midi":40,"time":130.62813599999998,"velocity":0.4881889763779528},{"duration":0.042857000000026346,"midi":38,"time":130.62813599999998,"velocity":0.4881889763779528},{"duration":0.042857000000026346,"midi":48,"time":130.62813599999998,"velocity":0.4881889763779528},{"duration":0.042857000000026346,"midi":38,"time":130.62813599999998,"velocity":0.4881889763779528},{"duration":0.042857000000026346,"midi":40,"time":130.62813599999998,"velocity":0.4881889763779528},{"duration":0.042856999999997925,"midi":36,"time":130.799564,"velocity":0.4881889763779528},{"duration":0.042856999999997925,"midi":36,"time":130.799564,"velocity":0.4881889763779528},{"duration":0.042856999999997925,"midi":35,"time":130.799564,"velocity":0.4881889763779528},{"duration":0.042856999999997925,"midi":35,"time":130.799564,"velocity":0.4881889763779528},{"duration":0.042856999999997925,"midi":36,"time":130.799564,"velocity":0.4881889763779528},{"duration":0.042856999999997925,"midi":35,"time":130.799564,"velocity":0.4881889763779528},{"duration":0.042856999999997925,"midi":36,"time":130.799564,"velocity":0.4881889763779528},{"duration":0.042856999999997925,"midi":43,"time":130.799564,"velocity":0.4881889763779528},{"duration":0.042856999999997925,"midi":35,"time":130.799564,"velocity":0.4881889763779528},{"duration":0.042856999999997925,"midi":41,"time":130.799564,"velocity":0.4881889763779528},{"duration":0.042856999999997925,"midi":43,"time":130.970992,"velocity":0.4881889763779528},{"duration":0.042856999999997925,"midi":41,"time":130.970992,"velocity":0.4881889763779528},{"duration":0.042856999999997925,"midi":35,"time":130.970992,"velocity":0.4881889763779528},{"duration":0.042856999999997925,"midi":36,"time":130.970992,"velocity":0.4881889763779528},{"duration":0.042856999999997925,"midi":35,"time":130.970992,"velocity":0.4881889763779528},{"duration":0.042856999999997925,"midi":36,"time":130.970992,"velocity":0.4881889763779528},{"duration":0.042856999999997925,"midi":36,"time":130.970992,"velocity":0.4881889763779528},{"duration":0.042856999999997925,"midi":35,"time":130.970992,"velocity":0.4881889763779528},{"duration":0.042856999999997925,"midi":35,"time":130.970992,"velocity":0.4881889763779528},{"duration":0.042856999999997925,"midi":36,"time":130.970992,"velocity":0.4881889763779528},{"duration":0.042856999999997925,"midi":40,"time":131.313848,"velocity":0.4881889763779528},{"duration":0.042856999999997925,"midi":38,"time":131.313848,"velocity":0.4881889763779528},{"duration":0.042856999999997925,"midi":40,"time":131.313848,"velocity":0.4881889763779528},{"duration":0.042856999999997925,"midi":50,"time":131.313848,"velocity":0.4881889763779528},{"duration":0.042856999999997925,"midi":38,"time":131.313848,"velocity":0.4881889763779528},{"duration":0.042856999999997925,"midi":48,"time":131.313848,"velocity":0.4881889763779528},{"duration":0.042856999999997925,"midi":40,"time":131.313848,"velocity":0.4881889763779528},{"duration":0.042856999999997925,"midi":38,"time":131.313848,"velocity":0.4881889763779528},{"duration":0.042856999999997925,"midi":35,"time":131.828132,"velocity":0.4881889763779528},{"duration":0.042856999999997925,"midi":35,"time":131.828132,"velocity":0.4881889763779528},{"duration":0.042856999999997925,"midi":35,"time":131.828132,"velocity":0.4881889763779528},{"duration":0.042856999999997925,"midi":36,"time":131.828132,"velocity":0.4881889763779528},{"duration":0.042856999999997925,"midi":36,"time":131.828132,"velocity":0.4881889763779528},{"duration":0.042856999999997925,"midi":36,"time":131.828132,"velocity":0.4881889763779528},{"duration":0.042856999999997925,"midi":36,"time":131.828132,"velocity":0.4881889763779528},{"duration":0.042856999999997925,"midi":43,"time":131.828132,"velocity":0.4881889763779528},{"duration":0.042856999999997925,"midi":35,"time":131.828132,"velocity":0.4881889763779528},{"duration":0.042856999999997925,"midi":41,"time":131.828132,"velocity":0.4881889763779528},{"duration":0.042856999999997925,"midi":38,"time":131.99956,"velocity":0.4881889763779528},{"duration":0.042856999999997925,"midi":38,"time":131.99956,"velocity":0.4881889763779528},{"duration":0.042856999999997925,"midi":40,"time":131.99956,"velocity":0.4881889763779528},{"duration":0.042856999999997925,"midi":48,"time":131.99956,"velocity":0.4881889763779528},{"duration":0.042856999999997925,"midi":40,"time":131.99956,"velocity":0.4881889763779528},{"duration":0.042856999999997925,"midi":38,"time":131.99956,"velocity":0.4881889763779528},{"duration":0.042856999999997925,"midi":50,"time":131.99956,"velocity":0.4881889763779528},{"duration":0.042856999999997925,"midi":40,"time":131.99956,"velocity":0.4881889763779528},{"duration":0.042856999999997925,"midi":43,"time":132.342416,"velocity":0.4881889763779528},{"duration":0.042856999999997925,"midi":41,"time":132.342416,"velocity":0.4881889763779528},{"duration":0.042856999999997925,"midi":35,"time":132.342416,"velocity":0.4881889763779528},{"duration":0.042856999999997925,"midi":36,"time":132.342416,"velocity":0.4881889763779528},{"duration":0.042856999999997925,"midi":36,"time":132.342416,"velocity":0.4881889763779528},{"duration":0.042856999999997925,"midi":36,"time":132.342416,"velocity":0.4881889763779528},{"duration":0.042856999999997925,"midi":36,"time":132.342416,"velocity":0.4881889763779528},{"duration":0.042856999999997925,"midi":35,"time":132.342416,"velocity":0.4881889763779528},{"duration":0.042856999999997925,"midi":35,"time":132.342416,"velocity":0.4881889763779528},{"duration":0.042856999999997925,"midi":35,"time":132.342416,"velocity":0.4881889763779528},{"duration":0.042856999999997925,"midi":38,"time":132.685272,"velocity":0.4881889763779528},{"duration":0.042856999999997925,"midi":50,"time":132.685272,"velocity":0.4881889763779528},{"duration":0.042856999999997925,"midi":38,"time":132.685272,"velocity":0.4881889763779528},{"duration":0.042856999999997925,"midi":40,"time":132.685272,"velocity":0.4881889763779528},{"duration":0.042856999999997925,"midi":40,"time":132.685272,"velocity":0.4881889763779528},{"duration":0.042856999999997925,"midi":40,"time":132.685272,"velocity":0.4881889763779528},{"duration":0.042856999999997925,"midi":38,"time":132.685272,"velocity":0.4881889763779528},{"duration":0.042856999999997925,"midi":48,"time":132.685272,"velocity":0.4881889763779528},{"duration":0.042856999999997925,"midi":36,"time":133.199556,"velocity":0.4881889763779528},{"duration":0.042856999999997925,"midi":36,"time":133.199556,"velocity":0.4881889763779528},{"duration":0.042856999999997925,"midi":35,"time":133.199556,"velocity":0.4881889763779528},{"duration":0.042856999999997925,"midi":36,"time":133.199556,"velocity":0.4881889763779528},{"duration":0.042856999999997925,"midi":35,"time":133.199556,"velocity":0.4881889763779528},{"duration":0.042856999999997925,"midi":41,"time":133.199556,"velocity":0.4881889763779528},{"duration":0.042856999999997925,"midi":35,"time":133.199556,"velocity":0.4881889763779528},{"duration":0.042856999999997925,"midi":36,"time":133.199556,"velocity":0.4881889763779528},{"duration":0.042856999999997925,"midi":35,"time":133.199556,"velocity":0.4881889763779528},{"duration":0.042856999999997925,"midi":43,"time":133.199556,"velocity":0.4881889763779528},{"duration":0.042856999999997925,"midi":35,"time":133.28527,"velocity":0.4881889763779528},{"duration":0.042856999999997925,"midi":41,"time":133.28527,"velocity":0.4881889763779528},{"duration":0.042856999999997925,"midi":36,"time":133.28527,"velocity":0.4881889763779528},{"duration":0.042856999999997925,"midi":35,"time":133.28527,"velocity":0.4881889763779528},{"duration":0.042856999999997925,"midi":35,"time":133.28527,"velocity":0.4881889763779528},{"duration":0.042856999999997925,"midi":36,"time":133.28527,"velocity":0.4881889763779528},{"duration":0.042856999999997925,"midi":43,"time":133.28527,"velocity":0.4881889763779528},{"duration":0.042856999999997925,"midi":36,"time":133.28527,"velocity":0.4881889763779528},{"duration":0.042856999999997925,"midi":36,"time":133.28527,"velocity":0.4881889763779528},{"duration":0.042856999999997925,"midi":35,"time":133.28527,"velocity":0.4881889763779528},{"duration":0.042856999999997925,"midi":40,"time":133.370984,"velocity":0.4881889763779528},{"duration":0.042856999999997925,"midi":38,"time":133.370984,"velocity":0.4881889763779528},{"duration":0.042856999999997925,"midi":38,"time":133.370984,"velocity":0.4881889763779528},{"duration":0.042856999999997925,"midi":50,"time":133.370984,"velocity":0.4881889763779528},{"duration":0.042856999999997925,"midi":38,"time":133.370984,"velocity":0.4881889763779528},{"duration":0.042856999999997925,"midi":48,"time":133.370984,"velocity":0.4881889763779528},{"duration":0.042856999999997925,"midi":40,"time":133.370984,"velocity":0.4881889763779528},{"duration":0.042856999999997925,"midi":40,"time":133.370984,"velocity":0.4881889763779528},{"duration":0.042857000000026346,"midi":36,"time":133.54241199999998,"velocity":0.4881889763779528},{"duration":0.042857000000026346,"midi":35,"time":133.54241199999998,"velocity":0.4881889763779528},{"duration":0.042857000000026346,"midi":35,"time":133.54241199999998,"velocity":0.4881889763779528},{"duration":0.042857000000026346,"midi":36,"time":133.54241199999998,"velocity":0.4881889763779528},{"duration":0.042857000000026346,"midi":43,"time":133.54241199999998,"velocity":0.4881889763779528},{"duration":0.042857000000026346,"midi":36,"time":133.54241199999998,"velocity":0.4881889763779528},{"duration":0.042857000000026346,"midi":36,"time":133.54241199999998,"velocity":0.4881889763779528},{"duration":0.042857000000026346,"midi":35,"time":133.54241199999998,"velocity":0.4881889763779528},{"duration":0.042857000000026346,"midi":41,"time":133.54241199999998,"velocity":0.4881889763779528},{"duration":0.042857000000026346,"midi":35,"time":133.54241199999998,"velocity":0.4881889763779528},{"duration":0.042856999999997925,"midi":35,"time":133.71384,"velocity":0.4881889763779528},{"duration":0.042856999999997925,"midi":36,"time":133.71384,"velocity":0.4881889763779528},{"duration":0.042856999999997925,"midi":35,"time":133.71384,"velocity":0.4881889763779528},{"duration":0.042856999999997925,"midi":41,"time":133.71384,"velocity":0.4881889763779528},{"duration":0.042856999999997925,"midi":43,"time":133.71384,"velocity":0.4881889763779528},{"duration":0.042856999999997925,"midi":36,"time":133.71384,"velocity":0.4881889763779528},{"duration":0.042856999999997925,"midi":36,"time":133.71384,"velocity":0.4881889763779528},{"duration":0.042856999999997925,"midi":35,"time":133.71384,"velocity":0.4881889763779528},{"duration":0.042856999999997925,"midi":35,"time":133.71384,"velocity":0.4881889763779528},{"duration":0.042856999999997925,"midi":36,"time":133.71384,"velocity":0.4881889763779528},{"duration":0.042856999999997925,"midi":48,"time":134.056696,"velocity":0.4881889763779528},{"duration":0.042856999999997925,"midi":38,"time":134.056696,"velocity":0.4881889763779528},{"duration":0.042856999999997925,"midi":38,"time":134.056696,"velocity":0.4881889763779528},{"duration":0.042856999999997925,"midi":40,"time":134.056696,"velocity":0.4881889763779528},{"duration":0.042856999999997925,"midi":40,"time":134.056696,"velocity":0.4881889763779528},{"duration":0.042856999999997925,"midi":38,"time":134.056696,"velocity":0.4881889763779528},{"duration":0.042856999999997925,"midi":40,"time":134.056696,"velocity":0.4881889763779528},{"duration":0.042856999999997925,"midi":50,"time":134.056696,"velocity":0.4881889763779528},{"duration":0.042856999999997925,"midi":35,"time":134.57098,"velocity":0.4881889763779528},{"duration":0.042856999999997925,"midi":35,"time":134.57098,"velocity":0.4881889763779528},{"duration":0.042856999999997925,"midi":36,"time":134.57098,"velocity":0.4881889763779528},{"duration":0.042856999999997925,"midi":35,"time":134.57098,"velocity":0.4881889763779528},{"duration":0.042856999999997925,"midi":36,"time":134.57098,"velocity":0.4881889763779528},{"duration":0.042856999999997925,"midi":36,"time":134.57098,"velocity":0.4881889763779528},{"duration":0.042856999999997925,"midi":41,"time":134.57098,"velocity":0.4881889763779528},{"duration":0.042856999999997925,"midi":35,"time":134.57098,"velocity":0.4881889763779528},{"duration":0.042856999999997925,"midi":43,"time":134.57098,"velocity":0.4881889763779528},{"duration":0.042856999999997925,"midi":36,"time":134.57098,"velocity":0.4881889763779528},{"duration":0.042856999999997925,"midi":50,"time":134.742408,"velocity":0.4881889763779528},{"duration":0.042856999999997925,"midi":40,"time":134.742408,"velocity":0.4881889763779528},{"duration":0.042856999999997925,"midi":38,"time":134.742408,"velocity":0.4881889763779528},{"duration":0.042856999999997925,"midi":38,"time":134.742408,"velocity":0.4881889763779528},{"duration":0.042856999999997925,"midi":40,"time":134.742408,"velocity":0.4881889763779528},{"duration":0.042856999999997925,"midi":38,"time":134.742408,"velocity":0.4881889763779528},{"duration":0.042856999999997925,"midi":40,"time":134.742408,"velocity":0.4881889763779528},{"duration":0.042856999999997925,"midi":36,"time":135.085264,"velocity":0.4881889763779528},{"duration":0.042856999999997925,"midi":35,"time":135.085264,"velocity":0.4881889763779528},{"duration":0.042856999999997925,"midi":43,"time":135.085264,"velocity":0.4881889763779528},{"duration":0.042856999999997925,"midi":36,"time":135.085264,"velocity":0.4881889763779528},{"duration":0.042856999999997925,"midi":41,"time":135.085264,"velocity":0.4881889763779528},{"duration":0.042856999999997925,"midi":35,"time":135.085264,"velocity":0.4881889763779528},{"duration":0.042856999999997925,"midi":36,"time":135.085264,"velocity":0.4881889763779528},{"duration":0.042856999999997925,"midi":35,"time":135.085264,"velocity":0.4881889763779528},{"duration":0.042856999999997925,"midi":36,"time":135.085264,"velocity":0.4881889763779528},{"duration":0.042856999999997925,"midi":35,"time":135.085264,"velocity":0.4881889763779528},{"duration":0.042856999999997925,"midi":40,"time":135.42812,"velocity":0.4881889763779528},{"duration":0.042856999999997925,"midi":38,"time":135.42812,"velocity":0.4881889763779528},{"duration":0.042856999999997925,"midi":50,"time":135.42812,"velocity":0.4881889763779528},{"duration":0.042856999999997925,"midi":40,"time":135.42812,"velocity":0.4881889763779528},{"duration":0.042856999999997925,"midi":48,"time":135.42812,"velocity":0.4881889763779528},{"duration":0.042856999999997925,"midi":38,"time":135.42812,"velocity":0.4881889763779528},{"duration":0.042856999999997925,"midi":40,"time":135.42812,"velocity":0.4881889763779528},{"duration":0.042856999999997925,"midi":38,"time":135.42812,"velocity":0.4881889763779528},{"duration":0.042856999999997925,"midi":35,"time":135.942404,"velocity":0.4881889763779528},{"duration":0.042856999999997925,"midi":36,"time":135.942404,"velocity":0.4881889763779528},{"duration":0.042856999999997925,"midi":43,"time":135.942404,"velocity":0.4881889763779528},{"duration":0.042856999999997925,"midi":35,"time":135.942404,"velocity":0.4881889763779528},{"duration":0.042856999999997925,"midi":35,"time":135.942404,"velocity":0.4881889763779528},{"duration":0.042856999999997925,"midi":35,"time":135.942404,"velocity":0.4881889763779528},{"duration":0.042856999999997925,"midi":36,"time":135.942404,"velocity":0.4881889763779528},{"duration":0.042856999999997925,"midi":36,"time":135.942404,"velocity":0.4881889763779528},{"duration":0.042856999999997925,"midi":36,"time":135.942404,"velocity":0.4881889763779528},{"duration":0.042856999999997925,"midi":41,"time":135.942404,"velocity":0.4881889763779528},{"duration":0.042856999999997925,"midi":38,"time":136.113832,"velocity":0.4881889763779528},{"duration":0.042856999999997925,"midi":50,"time":136.113832,"velocity":0.4881889763779528},{"duration":0.042856999999997925,"midi":38,"time":136.113832,"velocity":0.4881889763779528},{"duration":0.042856999999997925,"midi":40,"time":136.113832,"velocity":0.4881889763779528},{"duration":0.042856999999997925,"midi":40,"time":136.113832,"velocity":0.4881889763779528},{"duration":0.042856999999997925,"midi":38,"time":136.113832,"velocity":0.4881889763779528},{"duration":0.042856999999997925,"midi":40,"time":136.113832,"velocity":0.4881889763779528},{"duration":0.042856999999997925,"midi":48,"time":136.113832,"velocity":0.4881889763779528},{"duration":0.042856999999997925,"midi":35,"time":136.28526,"velocity":0.4881889763779528},{"duration":0.042856999999997925,"midi":41,"time":136.28526,"velocity":0.4881889763779528},{"duration":0.042856999999997925,"midi":36,"time":136.28526,"velocity":0.4881889763779528},{"duration":0.042856999999997925,"midi":36,"time":136.28526,"velocity":0.4881889763779528},{"duration":0.042856999999997925,"midi":35,"time":136.28526,"velocity":0.4881889763779528},{"duration":0.042856999999997925,"midi":36,"time":136.28526,"velocity":0.4881889763779528},{"duration":0.042856999999997925,"midi":35,"time":136.28526,"velocity":0.4881889763779528},{"duration":0.042856999999997925,"midi":35,"time":136.28526,"velocity":0.4881889763779528},{"duration":0.042856999999997925,"midi":43,"time":136.28526,"velocity":0.4881889763779528},{"duration":0.042856999999997925,"midi":36,"time":136.28526,"velocity":0.4881889763779528},{"duration":0.042856999999997925,"midi":43,"time":136.45668799999999,"velocity":0.4881889763779528},{"duration":0.042856999999997925,"midi":41,"time":136.45668799999999,"velocity":0.4881889763779528},{"duration":0.042856999999997925,"midi":35,"time":136.45668799999999,"velocity":0.4881889763779528},{"duration":0.042856999999997925,"midi":35,"time":136.45668799999999,"velocity":0.4881889763779528},{"duration":0.042856999999997925,"midi":35,"time":136.45668799999999,"velocity":0.4881889763779528},{"duration":0.042856999999997925,"midi":36,"time":136.45668799999999,"velocity":0.4881889763779528},{"duration":0.042856999999997925,"midi":36,"time":136.45668799999999,"velocity":0.4881889763779528},{"duration":0.042856999999997925,"midi":36,"time":136.45668799999999,"velocity":0.4881889763779528},{"duration":0.042856999999997925,"midi":35,"time":136.45668799999999,"velocity":0.4881889763779528},{"duration":0.042856999999997925,"midi":36,"time":136.45668799999999,"velocity":0.4881889763779528},{"duration":0.042856999999997925,"midi":40,"time":136.799544,"velocity":0.4881889763779528},{"duration":0.042856999999997925,"midi":38,"time":136.799544,"velocity":0.4881889763779528},{"duration":0.042856999999997925,"midi":38,"time":136.799544,"velocity":0.4881889763779528},{"duration":0.042856999999997925,"midi":48,"time":136.799544,"velocity":0.4881889763779528},{"duration":0.042856999999997925,"midi":50,"time":136.799544,"velocity":0.4881889763779528},{"duration":0.042856999999997925,"midi":40,"time":136.799544,"velocity":0.4881889763779528},{"duration":0.042856999999997925,"midi":40,"time":136.799544,"velocity":0.4881889763779528},{"duration":0.042856999999997925,"midi":38,"time":136.799544,"velocity":0.4881889763779528},{"duration":0.042856999999997925,"midi":38,"time":137.1424,"velocity":0.4881889763779528},{"duration":0.042856999999997925,"midi":40,"time":137.1424,"velocity":0.4881889763779528},{"duration":0.042856999999997925,"midi":50,"time":137.1424,"velocity":0.4881889763779528},{"duration":0.042856999999997925,"midi":40,"time":137.1424,"velocity":0.4881889763779528},{"duration":0.042856999999997925,"midi":40,"time":137.1424,"velocity":0.4881889763779528},{"duration":0.042856999999997925,"midi":38,"time":137.1424,"velocity":0.4881889763779528},{"duration":0.042856999999997925,"midi":38,"time":137.1424,"velocity":0.4881889763779528},{"duration":0.042856999999997925,"midi":48,"time":137.1424,"velocity":0.4881889763779528},{"duration":0.042856999999997925,"midi":40,"time":137.228114,"velocity":0.4881889763779528},{"duration":0.042856999999997925,"midi":38,"time":137.228114,"velocity":0.4881889763779528},{"duration":0.042856999999997925,"midi":48,"time":137.228114,"velocity":0.4881889763779528},{"duration":0.042856999999997925,"midi":38,"time":137.228114,"velocity":0.4881889763779528},{"duration":0.042856999999997925,"midi":40,"time":137.228114,"velocity":0.4881889763779528},{"duration":0.042856999999997925,"midi":50,"time":137.228114,"velocity":0.4881889763779528},{"duration":0.042856999999997925,"midi":40,"time":137.228114,"velocity":0.4881889763779528},{"duration":0.042856999999997925,"midi":38,"time":137.228114,"velocity":0.4881889763779528},{"duration":0.042856999999997925,"midi":35,"time":137.313828,"velocity":0.4881889763779528},{"duration":0.042856999999997925,"midi":36,"time":137.313828,"velocity":0.4881889763779528},{"duration":0.042856999999997925,"midi":41,"time":137.313828,"velocity":0.4881889763779528},{"duration":0.042856999999997925,"midi":35,"time":137.313828,"velocity":0.4881889763779528},{"duration":0.042856999999997925,"midi":36,"time":137.313828,"velocity":0.4881889763779528},{"duration":0.042856999999997925,"midi":43,"time":137.313828,"velocity":0.4881889763779528},{"duration":0.042856999999997925,"midi":36,"time":137.313828,"velocity":0.4881889763779528},{"duration":0.042856999999997925,"midi":36,"time":137.313828,"velocity":0.4881889763779528},{"duration":0.042856999999997925,"midi":35,"time":137.313828,"velocity":0.4881889763779528},{"duration":0.042856999999997925,"midi":35,"time":137.313828,"velocity":0.4881889763779528},{"duration":0.042856999999997925,"midi":48,"time":137.485256,"velocity":0.4881889763779528},{"duration":0.042856999999997925,"midi":38,"time":137.485256,"velocity":0.4881889763779528},{"duration":0.042856999999997925,"midi":50,"time":137.485256,"velocity":0.4881889763779528},{"duration":0.042856999999997925,"midi":38,"time":137.485256,"velocity":0.4881889763779528},{"duration":0.042856999999997925,"midi":40,"time":137.485256,"velocity":0.4881889763779528},{"duration":0.042856999999997925,"midi":38,"time":137.485256,"velocity":0.4881889763779528},{"duration":0.042856999999997925,"midi":40,"time":137.485256,"velocity":0.4881889763779528},{"duration":0.042856999999997925,"midi":40,"time":137.485256,"velocity":0.4881889763779528},{"duration":0.042857000000026346,"midi":36,"time":137.65668399999998,"velocity":0.4881889763779528},{"duration":0.042857000000026346,"midi":35,"time":137.65668399999998,"velocity":0.4881889763779528},{"duration":0.042857000000026346,"midi":35,"time":137.65668399999998,"velocity":0.4881889763779528},{"duration":0.042857000000026346,"midi":36,"time":137.65668399999998,"velocity":0.4881889763779528},{"duration":0.042857000000026346,"midi":36,"time":137.65668399999998,"velocity":0.4881889763779528},{"duration":0.042857000000026346,"midi":36,"time":137.65668399999998,"velocity":0.4881889763779528},{"duration":0.042857000000026346,"midi":35,"time":137.65668399999998,"velocity":0.4881889763779528},{"duration":0.042857000000026346,"midi":43,"time":137.65668399999998,"velocity":0.4881889763779528},{"duration":0.042857000000026346,"midi":41,"time":137.65668399999998,"velocity":0.4881889763779528},{"duration":0.042857000000026346,"midi":35,"time":137.65668399999998,"velocity":0.4881889763779528},{"duration":0.042856999999997925,"midi":51,"time":137.828112,"velocity":0.4881889763779528},{"duration":0.042856999999997925,"midi":55,"time":137.828112,"velocity":0.4881889763779528},{"duration":0.042856999999997925,"midi":43,"time":137.828112,"velocity":0.4881889763779528},{"duration":0.042856999999997925,"midi":36,"time":137.828112,"velocity":0.4881889763779528},{"duration":0.042856999999997925,"midi":35,"time":137.828112,"velocity":0.4881889763779528},{"duration":0.042856999999997925,"midi":53,"time":137.828112,"velocity":0.4881889763779528},{"duration":0.042856999999997925,"midi":36,"time":137.828112,"velocity":0.4881889763779528},{"duration":0.042856999999997925,"midi":35,"time":137.828112,"velocity":0.4881889763779528},{"duration":0.042856999999997925,"midi":36,"time":137.828112,"velocity":0.4881889763779528},{"duration":0.042856999999997925,"midi":35,"time":137.828112,"velocity":0.4881889763779528},{"duration":0.042856999999997925,"midi":52,"time":137.828112,"velocity":0.4881889763779528},{"duration":0.042856999999997925,"midi":41,"time":137.828112,"velocity":0.4881889763779528},{"duration":0.042856999999997925,"midi":36,"time":137.828112,"velocity":0.4881889763779528},{"duration":0.042856999999997925,"midi":35,"time":137.828112,"velocity":0.4881889763779528},{"duration":0.042856999999997925,"midi":35,"time":139.199536,"velocity":0.4881889763779528},{"duration":0.042856999999997925,"midi":35,"time":139.199536,"velocity":0.4881889763779528},{"duration":0.042856999999997925,"midi":53,"time":139.199536,"velocity":0.4881889763779528},{"duration":0.042856999999997925,"midi":35,"time":139.199536,"velocity":0.4881889763779528},{"duration":0.042856999999997925,"midi":36,"time":139.199536,"velocity":0.4881889763779528},{"duration":0.042856999999997925,"midi":51,"time":139.199536,"velocity":0.4881889763779528},{"duration":0.042856999999997925,"midi":36,"time":139.199536,"velocity":0.4881889763779528},{"duration":0.042856999999997925,"midi":55,"time":139.199536,"velocity":0.4881889763779528},{"duration":0.042856999999997925,"midi":36,"time":139.199536,"velocity":0.4881889763779528},{"duration":0.042856999999997925,"midi":36,"time":139.199536,"velocity":0.4881889763779528},{"duration":0.042856999999997925,"midi":35,"time":139.199536,"velocity":0.4881889763779528},{"duration":0.042856999999997925,"midi":52,"time":139.199536,"velocity":0.4881889763779528},{"duration":0.042857000000026346,"midi":36,"time":140.57095999999999,"velocity":0.4881889763779528},{"duration":0.042857000000026346,"midi":35,"time":140.57095999999999,"velocity":0.4881889763779528},{"duration":0.042857000000026346,"midi":35,"time":140.57095999999999,"velocity":0.4881889763779528},{"duration":0.042857000000026346,"midi":36,"time":140.57095999999999,"velocity":0.4881889763779528},{"duration":0.042857000000026346,"midi":52,"time":140.57095999999999,"velocity":0.4881889763779528},{"duration":0.042857000000026346,"midi":36,"time":140.57095999999999,"velocity":0.4881889763779528},{"duration":0.042857000000026346,"midi":55,"time":140.57095999999999,"velocity":0.4881889763779528},{"duration":0.042857000000026346,"midi":53,"time":140.57095999999999,"velocity":0.4881889763779528},{"duration":0.042857000000026346,"midi":36,"time":140.57095999999999,"velocity":0.4881889763779528},{"duration":0.042857000000026346,"midi":35,"time":140.57095999999999,"velocity":0.4881889763779528},{"duration":0.042857000000026346,"midi":51,"time":140.57095999999999,"velocity":0.4881889763779528},{"duration":0.042857000000026346,"midi":35,"time":140.57095999999999,"velocity":0.4881889763779528},{"duration":0.042856999999997925,"midi":55,"time":141.942384,"velocity":0.4881889763779528},{"duration":0.042856999999997925,"midi":35,"time":141.942384,"velocity":0.4881889763779528},{"duration":0.042856999999997925,"midi":35,"time":141.942384,"velocity":0.4881889763779528},{"duration":0.042856999999997925,"midi":36,"time":141.942384,"velocity":0.4881889763779528},{"duration":0.042856999999997925,"midi":36,"time":141.942384,"velocity":0.4881889763779528},{"duration":0.042856999999997925,"midi":35,"time":141.942384,"velocity":0.4881889763779528},{"duration":0.042856999999997925,"midi":36,"time":141.942384,"velocity":0.4881889763779528},{"duration":0.042856999999997925,"midi":53,"time":141.942384,"velocity":0.4881889763779528},{"duration":0.042856999999997925,"midi":36,"time":141.942384,"velocity":0.4881889763779528},{"duration":0.042856999999997925,"midi":35,"time":141.942384,"velocity":0.4881889763779528},{"duration":0.042856999999997925,"midi":52,"time":141.942384,"velocity":0.4881889763779528},{"duration":0.042856999999997925,"midi":51,"time":141.942384,"velocity":0.4881889763779528},{"duration":0.042856999999997925,"midi":36,"time":142.628096,"velocity":0.4881889763779528},{"duration":0.042856999999997925,"midi":36,"time":142.628096,"velocity":0.4881889763779528},{"duration":0.042856999999997925,"midi":55,"time":142.628096,"velocity":0.4881889763779528},{"duration":0.042856999999997925,"midi":53,"time":142.628096,"velocity":0.4881889763779528},{"duration":0.042856999999997925,"midi":36,"time":142.628096,"velocity":0.4881889763779528},{"duration":0.042856999999997925,"midi":35,"time":142.628096,"velocity":0.4881889763779528},{"duration":0.042856999999997925,"midi":51,"time":142.628096,"velocity":0.4881889763779528},{"duration":0.042856999999997925,"midi":35,"time":142.628096,"velocity":0.4881889763779528},{"duration":0.042856999999997925,"midi":52,"time":142.628096,"velocity":0.4881889763779528},{"duration":0.042856999999997925,"midi":35,"time":142.628096,"velocity":0.4881889763779528},{"duration":0.042856999999997925,"midi":35,"time":142.628096,"velocity":0.4881889763779528},{"duration":0.042856999999997925,"midi":36,"time":142.628096,"velocity":0.4881889763779528},{"duration":0.042856999999997925,"midi":36,"time":143.99952,"velocity":0.4881889763779528},{"duration":0.042856999999997925,"midi":53,"time":143.99952,"velocity":0.4881889763779528},{"duration":0.042856999999997925,"midi":52,"time":143.99952,"velocity":0.4881889763779528},{"duration":0.042856999999997925,"midi":36,"time":143.99952,"velocity":0.4881889763779528},{"duration":0.042856999999997925,"midi":55,"time":143.99952,"velocity":0.4881889763779528},{"duration":0.042856999999997925,"midi":35,"time":143.99952,"velocity":0.4881889763779528},{"duration":0.042856999999997925,"midi":36,"time":143.99952,"velocity":0.4881889763779528},{"duration":0.042856999999997925,"midi":35,"time":143.99952,"velocity":0.4881889763779528},{"duration":0.042856999999997925,"midi":35,"time":143.99952,"velocity":0.4881889763779528},{"duration":0.042856999999997925,"midi":51,"time":143.99952,"velocity":0.4881889763779528},{"duration":0.042856999999997925,"midi":36,"time":143.99952,"velocity":0.4881889763779528},{"duration":0.042856999999997925,"midi":35,"time":143.99952,"velocity":0.4881889763779528},{"duration":0.042856999999997925,"midi":24,"time":150.170928,"velocity":0.4881889763779528},{"duration":0.042856999999997925,"midi":24,"time":150.85664,"velocity":0.4881889763779528},{"duration":0.042856999999997925,"midi":24,"time":151.542352,"velocity":0.4881889763779528},{"duration":0.042856999999997925,"midi":24,"time":152.228064,"velocity":0.4881889763779528}]},{"instrument":{"family":"synth lead","number":80,"name":"lead 1 (square)"},"notes":[{"duration":0.042857000000000034,"midi":67,"time":0.771426,"velocity":0.3937007874015748},{"duration":0.042857000000000034,"midi":67,"time":0.942854,"velocity":0.3937007874015748},{"duration":0.042857000000000145,"midi":67,"time":1.028568,"velocity":0.3937007874015748},{"duration":0.04285699999999992,"midi":67,"time":1.071425,"velocity":0.3937007874015748},{"duration":0.04285699999999992,"midi":67,"time":1.114282,"velocity":0.3937007874015748},{"duration":0.042857000000000145,"midi":67,"time":1.157139,"velocity":0.3937007874015748},{"duration":0.04285699999999992,"midi":67,"time":1.199996,"velocity":0.3937007874015748},{"duration":0.04285699999999992,"midi":67,"time":1.242853,"velocity":0.3937007874015748},{"duration":0.042857000000000145,"midi":67,"time":1.28571,"velocity":0.3937007874015748},{"duration":0.04285699999999992,"midi":67,"time":1.328567,"velocity":0.3937007874015748},{"duration":0.04285699999999992,"midi":67,"time":1.371424,"velocity":0.3937007874015748},{"duration":0.04285699999999992,"midi":67,"time":1.371424,"velocity":0.3937007874015748},{"duration":0.042857000000000145,"midi":67,"time":1.414281,"velocity":0.3937007874015748},{"duration":0.042857000000000145,"midi":67,"time":1.414281,"velocity":0.3937007874015748},{"duration":0.04285699999999992,"midi":67,"time":1.457138,"velocity":0.3937007874015748},{"duration":0.04285699999999992,"midi":67,"time":1.457138,"velocity":0.3937007874015748},{"duration":0.04285699999999992,"midi":67,"time":1.499995,"velocity":0.3937007874015748},{"duration":0.04285699999999992,"midi":67,"time":1.499995,"velocity":0.3937007874015748},{"duration":0.042857000000000145,"midi":67,"time":1.542852,"velocity":0.3937007874015748},{"duration":0.042857000000000145,"midi":67,"time":1.542852,"velocity":0.3937007874015748},{"duration":0.04285699999999992,"midi":67,"time":1.585709,"velocity":0.3937007874015748},{"duration":0.04285699999999992,"midi":67,"time":1.585709,"velocity":0.3937007874015748},{"duration":0.04285699999999992,"midi":67,"time":1.628566,"velocity":0.3937007874015748},{"duration":0.04285699999999992,"midi":67,"time":1.628566,"velocity":0.3937007874015748},{"duration":0.042857000000000145,"midi":67,"time":1.6714229999999999,"velocity":0.3937007874015748},{"duration":0.042857000000000145,"midi":67,"time":1.6714229999999999,"velocity":0.3937007874015748},{"duration":0.04285699999999992,"midi":67,"time":1.71428,"velocity":0.3937007874015748},{"duration":0.04285699999999992,"midi":67,"time":1.71428,"velocity":0.3937007874015748},{"duration":0.042857000000000145,"midi":67,"time":1.7357084999999999,"velocity":0.3937007874015748},{"duration":0.042857000000000145,"midi":67,"time":1.7357084999999999,"velocity":0.3937007874015748},{"duration":0.04285699999999992,"midi":67,"time":1.757137,"velocity":0.3937007874015748},{"duration":0.04285699999999992,"midi":67,"time":1.757137,"velocity":0.3937007874015748},{"duration":0.04285699999999992,"midi":67,"time":1.7785655,"velocity":0.3937007874015748},{"duration":0.04285699999999992,"midi":67,"time":1.7785655,"velocity":0.3937007874015748},{"duration":0.042857000000000145,"midi":67,"time":1.7999939999999999,"velocity":0.3937007874015748},{"duration":0.042857000000000145,"midi":67,"time":1.7999939999999999,"velocity":0.3937007874015748},{"duration":0.04285699999999992,"midi":67,"time":1.8214225,"velocity":0.3937007874015748},{"duration":0.04285699999999992,"midi":67,"time":1.8214225,"velocity":0.3937007874015748},{"duration":0.04285699999999992,"midi":67,"time":1.842851,"velocity":0.3937007874015748},{"duration":0.04285699999999992,"midi":67,"time":1.842851,"velocity":0.3937007874015748},{"duration":0.042857000000000145,"midi":67,"time":1.8642794999999999,"velocity":0.3937007874015748},{"duration":0.042857000000000145,"midi":67,"time":1.8642794999999999,"velocity":0.3937007874015748},{"duration":0.04285699999999992,"midi":67,"time":1.885708,"velocity":0.3937007874015748},{"duration":0.04285699999999992,"midi":67,"time":1.885708,"velocity":0.3937007874015748},{"duration":0.042857000000000145,"midi":67,"time":1.8964222499999999,"velocity":0.3937007874015748},{"duration":0.042857000000000145,"midi":67,"time":1.8964222499999999,"velocity":0.3937007874015748},{"duration":0.04285699999999992,"midi":67,"time":1.9071365,"velocity":0.3937007874015748},{"duration":0.04285699999999992,"midi":67,"time":1.9071365,"velocity":0.3937007874015748},{"duration":0.04285699999999992,"midi":67,"time":1.91785075,"velocity":0.3937007874015748},{"duration":0.04285699999999992,"midi":67,"time":1.91785075,"velocity":0.3937007874015748},{"duration":0.042857000000000145,"midi":67,"time":1.9285649999999999,"velocity":0.3937007874015748},{"duration":0.042857000000000145,"midi":67,"time":1.9285649999999999,"velocity":0.3937007874015748},{"duration":0.04285699999999992,"midi":67,"time":1.93927925,"velocity":0.3937007874015748},{"duration":0.04285699999999992,"midi":67,"time":1.93927925,"velocity":0.3937007874015748},{"duration":0.04285699999999992,"midi":67,"time":1.9499935,"velocity":0.3937007874015748},{"duration":0.04285699999999992,"midi":67,"time":1.9499935,"velocity":0.3937007874015748},{"duration":0.04285699999999992,"midi":67,"time":1.9607077499999999,"velocity":0.3937007874015748},{"duration":0.04285699999999992,"midi":67,"time":1.9607077499999999,"velocity":0.3937007874015748},{"duration":0.042857000000000145,"midi":67,"time":1.971422,"velocity":0.3937007874015748},{"duration":0.042857000000000145,"midi":67,"time":1.971422,"velocity":0.3937007874015748},{"duration":0.042857000000000145,"midi":67,"time":1.98213625,"velocity":0.3937007874015748},{"duration":0.042857000000000145,"midi":67,"time":1.98213625,"velocity":0.3937007874015748},{"duration":0.042857000000000145,"midi":67,"time":1.9928504999999999,"velocity":0.3937007874015748},{"duration":0.042857000000000145,"midi":67,"time":1.9928504999999999,"velocity":0.3937007874015748},{"duration":0.042857000000000145,"midi":67,"time":2.00356475,"velocity":0.3937007874015748},{"duration":0.042857000000000145,"midi":67,"time":2.00356475,"velocity":0.3937007874015748},{"duration":0.0428569999999997,"midi":67,"time":2.014279,"velocity":0.3937007874015748},{"duration":0.0428569999999997,"midi":36,"time":2.014279,"velocity":0.3937007874015748},{"duration":0.0428569999999997,"midi":67,"time":2.014279,"velocity":0.3937007874015748},{"duration":0.0428569999999997,"midi":67,"time":2.02499325,"velocity":0.3937007874015748},{"duration":0.0428569999999997,"midi":67,"time":2.02499325,"velocity":0.3937007874015748},{"duration":0.042857000000000145,"midi":67,"time":2.0357075,"velocity":0.3937007874015748},{"duration":0.042857000000000145,"midi":67,"time":2.0357075,"velocity":0.3937007874015748},{"duration":0.042857000000000145,"midi":67,"time":2.04642175,"velocity":0.3937007874015748},{"duration":0.042857000000000145,"midi":67,"time":2.04642175,"velocity":0.3937007874015748},{"duration":0.042857000000000145,"midi":67,"time":2.057136,"velocity":0.3937007874015748},{"duration":0.042857000000000145,"midi":67,"time":2.057136,"velocity":0.3937007874015748},{"duration":0.042857000000000145,"midi":36,"time":2.099993,"velocity":0.3937007874015748},{"duration":0.0428569999999997,"midi":68,"time":2.14285,"velocity":0.3937007874015748},{"duration":0.042857000000000145,"midi":36,"time":2.185707,"velocity":0.3937007874015748},{"duration":0.042857000000000145,"midi":67,"time":2.228564,"velocity":0.3937007874015748},{"duration":0.0428569999999997,"midi":36,"time":2.271421,"velocity":0.3937007874015748},{"duration":0.042857000000000145,"midi":66,"time":2.314278,"velocity":0.3937007874015748},{"duration":0.042857000000000145,"midi":36,"time":2.357135,"velocity":0.3937007874015748},{"duration":0.0428569999999997,"midi":67,"time":2.399992,"velocity":0.3937007874015748},{"duration":0.042857000000000145,"midi":36,"time":2.442849,"velocity":0.3937007874015748},{"duration":0.0428569999999997,"midi":36,"time":2.528563,"velocity":0.3937007874015748},{"duration":0.042857000000000145,"midi":60,"time":2.57142,"velocity":0.3937007874015748},{"duration":0.042857000000000145,"midi":36,"time":2.614277,"velocity":0.3937007874015748},{"duration":0.042857000000000145,"midi":36,"time":2.699991,"velocity":0.3937007874015748},{"duration":0.042857000000000145,"midi":63,"time":2.742848,"velocity":0.3937007874015748},{"duration":0.0428569999999997,"midi":36,"time":2.785705,"velocity":0.3937007874015748},{"duration":0.042857000000000145,"midi":36,"time":2.871419,"velocity":0.3937007874015748},{"duration":0.042857000000000145,"midi":36,"time":2.957133,"velocity":0.3937007874015748},{"duration":0.0428569999999997,"midi":36,"time":3.042847,"velocity":0.3937007874015748},{"duration":0.042857000000000145,"midi":62,"time":3.085704,"velocity":0.3937007874015748},{"duration":0.042857000000000145,"midi":36,"time":3.128561,"velocity":0.3937007874015748},{"duration":0.0428569999999997,"midi":63,"time":3.171418,"velocity":0.3937007874015748},{"duration":0.042857000000000145,"midi":36,"time":3.2142749999999998,"velocity":0.3937007874015748},{"duration":0.042857000000000145,"midi":62,"time":3.257132,"velocity":0.3937007874015748},{"duration":0.0428569999999997,"midi":36,"time":3.299989,"velocity":0.3937007874015748},{"duration":0.042857000000000145,"midi":60,"time":3.3428459999999998,"velocity":0.3937007874015748},{"duration":0.042857000000000145,"midi":35,"time":3.385703,"velocity":0.3937007874015748},{"duration":0.0428569999999997,"midi":62,"time":3.42856,"velocity":0.3937007874015748},{"duration":0.042857000000000145,"midi":35,"time":3.4714169999999998,"velocity":0.3937007874015748},{"duration":0.0428569999999997,"midi":35,"time":3.557131,"velocity":0.3937007874015748},{"duration":0.042857000000000145,"midi":59,"time":3.5999879999999997,"velocity":0.3937007874015748},{"duration":0.042857000000000145,"midi":35,"time":3.642845,"velocity":0.3937007874015748},{"duration":0.042857000000000145,"midi":35,"time":3.7285589999999997,"velocity":0.3937007874015748},{"duration":0.042857000000000145,"midi":55,"time":3.771416,"velocity":0.3937007874015748},{"duration":0.0428569999999997,"midi":35,"time":3.814273,"velocity":0.3937007874015748},{"duration":0.042857000000000145,"midi":35,"time":3.899987,"velocity":0.3937007874015748},{"duration":0.04285700000000059,"midi":35,"time":3.9857009999999997,"velocity":0.3937007874015748},{"duration":0.0428569999999997,"midi":35,"time":4.071415,"velocity":0.3937007874015748},{"duration":0.04285700000000059,"midi":50,"time":4.114272,"velocity":0.3937007874015748},{"duration":0.0428569999999997,"midi":35,"time":4.157129,"velocity":0.3937007874015748},{"duration":0.04285700000000059,"midi":35,"time":4.242843,"velocity":0.3937007874015748},{"duration":0.0428569999999997,"midi":47,"time":4.2857,"velocity":0.3937007874015748},{"duration":0.0428569999999997,"midi":35,"time":4.328557,"velocity":0.3937007874015748},{"duration":0.0428569999999997,"midi":35,"time":4.414271,"velocity":0.3937007874015748},{"duration":0.0428569999999997,"midi":43,"time":4.457128,"velocity":0.3937007874015748},{"duration":0.04285700000000059,"midi":35,"time":4.499985,"velocity":0.3937007874015748},{"duration":0.0428569999999997,"midi":35,"time":4.585699,"velocity":0.3937007874015748},{"duration":0.0428569999999997,"midi":35,"time":4.671413,"velocity":0.3937007874015748},{"duration":0.04285700000000059,"midi":36,"time":4.757127,"velocity":0.3937007874015748},{"duration":0.0428569999999997,"midi":60,"time":4.799984,"velocity":0.3937007874015748},{"duration":0.0428569999999997,"midi":36,"time":4.842841,"velocity":0.3937007874015748},{"duration":0.04285700000000059,"midi":61,"time":4.885698,"velocity":0.3937007874015748},{"duration":0.0428569999999997,"midi":36,"time":4.928555,"velocity":0.3937007874015748},{"duration":0.0428569999999997,"midi":60,"time":4.971412,"velocity":0.3937007874015748},{"duration":0.04285700000000059,"midi":36,"time":5.014269,"velocity":0.3937007874015748},{"duration":0.0428569999999997,"midi":59,"time":5.057126,"velocity":0.3937007874015748},{"duration":0.0428569999999997,"midi":36,"time":5.099983,"velocity":0.3937007874015748},{"duration":0.04285700000000059,"midi":60,"time":5.14284,"velocity":0.3937007874015748},{"duration":0.0428569999999997,"midi":36,"time":5.185697,"velocity":0.3937007874015748},{"duration":0.04285700000000059,"midi":36,"time":5.271411,"velocity":0.3937007874015748},{"duration":0.0428569999999997,"midi":64,"time":5.314268,"velocity":0.3937007874015748},{"duration":0.0428569999999997,"midi":36,"time":5.357125,"velocity":0.3937007874015748},{"duration":0.0428569999999997,"midi":40,"time":5.442839,"velocity":0.3937007874015748},{"duration":0.0428569999999997,"midi":67,"time":5.485696,"velocity":0.3937007874015748},{"duration":0.04285700000000059,"midi":40,"time":5.528553,"velocity":0.3937007874015748},{"duration":0.0428569999999997,"midi":40,"time":5.614267,"velocity":0.3937007874015748},{"duration":0.0428569999999997,"midi":40,"time":5.699981,"velocity":0.3937007874015748},{"duration":0.04285700000000059,"midi":40,"time":5.785695,"velocity":0.3937007874015748},{"duration":0.0428569999999997,"midi":60,"time":5.828552,"velocity":0.3937007874015748},{"duration":0.0428569999999997,"midi":40,"time":5.871409,"velocity":0.3937007874015748},{"duration":0.0428569999999997,"midi":40,"time":5.957123,"velocity":0.3937007874015748},{"duration":0.0428569999999997,"midi":70,"time":5.99998,"velocity":0.3937007874015748},{"duration":0.04285700000000059,"midi":40,"time":6.042837,"velocity":0.3937007874015748},{"duration":0.0428569999999997,"midi":41,"time":6.128551,"velocity":0.3937007874015748},{"duration":0.04285700000000059,"midi":68,"time":6.171408,"velocity":0.3937007874015748},{"duration":0.0428569999999997,"midi":41,"time":6.214265,"velocity":0.3937007874015748},{"duration":0.04285700000000059,"midi":41,"time":6.2999789999999996,"velocity":0.3937007874015748},{"duration":0.0428569999999997,"midi":41,"time":6.385693,"velocity":0.3937007874015748},{"duration":0.04285700000000059,"midi":67,"time":6.4285499999999995,"velocity":0.3937007874015748},{"duration":0.0428569999999997,"midi":41,"time":6.471407,"velocity":0.3937007874015748},{"duration":0.0428569999999997,"midi":65,"time":6.514264,"velocity":0.3937007874015748},{"duration":0.04285700000000059,"midi":41,"time":6.5571209999999995,"velocity":0.3937007874015748},{"duration":0.0428569999999997,"midi":41,"time":6.642835,"velocity":0.3937007874015748},{"duration":0.0428569999999997,"midi":41,"time":6.728549,"velocity":0.3937007874015748},{"duration":0.04285700000000059,"midi":41,"time":6.8142629999999995,"velocity":0.3937007874015748},{"duration":0.0428569999999997,"midi":56,"time":6.85712,"velocity":0.3937007874015748},{"duration":0.0428569999999997,"midi":41,"time":6.899977,"velocity":0.3937007874015748},{"duration":0.0428569999999997,"midi":41,"time":6.985691,"velocity":0.3937007874015748},{"duration":0.04285700000000059,"midi":41,"time":7.0714049999999995,"velocity":0.3937007874015748},{"duration":0.0428569999999997,"midi":55,"time":7.114262,"velocity":0.3937007874015748},{"duration":0.0428569999999997,"midi":41,"time":7.157119,"velocity":0.3937007874015748},{"duration":0.04285700000000059,"midi":53,"time":7.1999759999999995,"velocity":0.3937007874015748},{"duration":0.0428569999999997,"midi":41,"time":7.242833,"velocity":0.3937007874015748},{"duration":0.04285700000000059,"midi":41,"time":7.3285469999999995,"velocity":0.3937007874015748},{"duration":0.0428569999999997,"midi":41,"time":7.414261,"velocity":0.3937007874015748},{"duration":0.0428569999999997,"midi":38,"time":7.499975,"velocity":0.3937007874015748},{"duration":0.0428569999999997,"midi":65,"time":7.542832,"velocity":0.3937007874015748},{"duration":0.04285700000000059,"midi":38,"time":7.5856889999999995,"velocity":0.3937007874015748},{"duration":0.0428569999999997,"midi":67,"time":7.628546,"velocity":0.3937007874015748},{"duration":0.0428569999999997,"midi":38,"time":7.671403,"velocity":0.3937007874015748},{"duration":0.04285700000000059,"midi":65,"time":7.7142599999999995,"velocity":0.3937007874015748},{"duration":0.0428569999999997,"midi":38,"time":7.757117,"velocity":0.3937007874015748},{"duration":0.0428569999999997,"midi":64,"time":7.799974,"velocity":0.3937007874015748},{"duration":0.04285700000000059,"midi":38,"time":7.842830999999999,"velocity":0.3937007874015748},{"duration":0.0428569999999997,"midi":65,"time":7.885688,"velocity":0.3937007874015748},{"duration":0.0428569999999997,"midi":38,"time":7.928545,"velocity":0.3937007874015748},{"duration":0.04285700000000148,"midi":38,"time":8.014259,"velocity":0.3937007874015748},{"duration":0.0428569999999997,"midi":68,"time":8.057116,"velocity":0.3937007874015748},{"duration":0.0428569999999997,"midi":38,"time":8.099973,"velocity":0.3937007874015748},{"duration":0.0428569999999997,"midi":35,"time":8.185687,"velocity":0.3937007874015748},{"duration":0.0428569999999997,"midi":67,"time":8.228544,"velocity":0.3937007874015748},{"duration":0.04285700000000148,"midi":35,"time":8.271401,"velocity":0.3937007874015748},{"duration":0.0428569999999997,"midi":35,"time":8.357115,"velocity":0.3937007874015748},{"duration":0.0428569999999997,"midi":35,"time":8.442829,"velocity":0.3937007874015748},{"duration":0.04285700000000148,"midi":35,"time":8.528542999999999,"velocity":0.3937007874015748},{"duration":0.0428569999999997,"midi":62,"time":8.5714,"velocity":0.3937007874015748},{"duration":0.0428569999999997,"midi":35,"time":8.614257,"velocity":0.3937007874015748},{"duration":0.0428569999999997,"midi":35,"time":8.699971,"velocity":0.3937007874015748},{"duration":0.0428569999999997,"midi":65,"time":8.742828,"velocity":0.3937007874015748},{"duration":0.04285700000000148,"midi":35,"time":8.785684999999999,"velocity":0.3937007874015748},{"duration":0.0428569999999997,"midi":36,"time":8.871399,"velocity":0.3937007874015748},{"duration":0.0428569999999997,"midi":63,"time":8.914256,"velocity":0.3937007874015748},{"duration":0.0428569999999997,"midi":36,"time":8.957113,"velocity":0.3937007874015748},{"duration":0.04285700000000148,"midi":36,"time":9.042826999999999,"velocity":0.3937007874015748},{"duration":0.0428569999999997,"midi":63,"time":9.085684,"velocity":0.3937007874015748},{"duration":0.0428569999999997,"midi":36,"time":9.128541,"velocity":0.3937007874015748},{"duration":0.0428569999999997,"midi":62,"time":9.171398,"velocity":0.3937007874015748},{"duration":0.0428569999999997,"midi":34,"time":9.214255,"velocity":0.3937007874015748},{"duration":0.0428569999999997,"midi":60,"time":9.257112,"velocity":0.3937007874015748},{"duration":0.04285700000000148,"midi":34,"time":9.299968999999999,"velocity":0.3937007874015748},{"duration":0.0428569999999997,"midi":62,"time":9.342826,"velocity":0.3937007874015748},{"duration":0.0428569999999997,"midi":34,"time":9.385683,"velocity":0.3937007874015748},{"duration":0.0428569999999997,"midi":63,"time":9.42854,"velocity":0.3937007874015748},{"duration":0.0428569999999997,"midi":34,"time":9.471397,"velocity":0.3937007874015748},{"duration":0.0428569999999997,"midi":67,"time":9.514254,"velocity":0.3937007874015748},{"duration":0.04285700000000148,"midi":33,"time":9.557110999999999,"velocity":0.3937007874015748},{"duration":0.0428569999999997,"midi":72,"time":9.599968,"velocity":0.3937007874015748},{"duration":0.0428569999999997,"midi":33,"time":9.642825,"velocity":0.3937007874015748},{"duration":0.0428569999999997,"midi":33,"time":9.728539,"velocity":0.3937007874015748},{"duration":0.04285700000000148,"midi":33,"time":9.814252999999999,"velocity":0.3937007874015748},{"duration":0.0428569999999997,"midi":33,"time":9.899967,"velocity":0.3937007874015748},{"duration":0.0428569999999997,"midi":33,"time":9.985681,"velocity":0.3937007874015748},{"duration":0.04285700000000148,"midi":33,"time":10.071394999999999,"velocity":0.3937007874015748},{"duration":0.0428569999999997,"midi":74,"time":10.114252,"velocity":0.3937007874015748},{"duration":0.0428569999999997,"midi":33,"time":10.157109,"velocity":0.3937007874015748},{"duration":0.0428569999999997,"midi":75,"time":10.199966,"velocity":0.3937007874015748},{"duration":0.0428569999999997,"midi":38,"time":10.242823,"velocity":0.3937007874015748},{"duration":0.0428569999999997,"midi":74,"time":10.28568,"velocity":0.3937007874015748},{"duration":0.04285700000000148,"midi":38,"time":10.328536999999999,"velocity":0.3937007874015748},{"duration":0.0428569999999997,"midi":38,"time":10.414251,"velocity":0.3937007874015748},{"duration":0.0428569999999997,"midi":38,"time":10.499965,"velocity":0.3937007874015748},{"duration":0.0428569999999997,"midi":72,"time":10.542822,"velocity":0.3937007874015748},{"duration":0.04285700000000148,"midi":38,"time":10.585678999999999,"velocity":0.3937007874015748},{"duration":0.0428569999999997,"midi":72,"time":10.628536,"velocity":0.3937007874015748},{"duration":0.0428569999999997,"midi":38,"time":10.671393,"velocity":0.3937007874015748},{"duration":0.0428569999999997,"midi":38,"time":10.757107,"velocity":0.3937007874015748},{"duration":0.04285700000000148,"midi":38,"time":10.842820999999999,"velocity":0.3937007874015748},{"duration":0.0428569999999997,"midi":70,"time":10.885678,"velocity":0.3937007874015748},{"duration":0.0428569999999997,"midi":32,"time":10.928535,"velocity":0.3937007874015748},{"duration":0.0428569999999997,"midi":70,"time":10.971392,"velocity":0.3937007874015748},{"duration":0.0428569999999997,"midi":32,"time":11.014249,"velocity":0.3937007874015748},{"duration":0.0428569999999997,"midi":32,"time":11.099963,"velocity":0.3937007874015748},{"duration":0.0428569999999997,"midi":32,"time":11.185677,"velocity":0.3937007874015748},{"duration":0.0428569999999997,"midi":68,"time":11.228534,"velocity":0.3937007874015748},{"duration":0.0428569999999997,"midi":32,"time":11.271391,"velocity":0.3937007874015748},{"duration":0.04285700000000148,"midi":68,"time":11.314248,"velocity":0.3937007874015748},{"duration":0.0428569999999997,"midi":32,"time":11.357105,"velocity":0.3937007874015748},{"duration":0.0428569999999997,"midi":32,"time":11.442819,"velocity":0.3937007874015748},{"duration":0.0428569999999997,"midi":32,"time":11.528533,"velocity":0.3937007874015748},{"duration":0.04285700000000148,"midi":66,"time":11.57139,"velocity":0.3937007874015748},{"duration":0.0428569999999997,"midi":30,"time":11.614247,"velocity":0.3937007874015748},{"duration":0.0428569999999997,"midi":67,"time":11.657104,"velocity":0.3937007874015748},{"duration":0.0428569999999997,"midi":30,"time":11.699961,"velocity":0.3937007874015748},{"duration":0.0428569999999997,"midi":30,"time":11.785675,"velocity":0.3937007874015748},{"duration":0.04285700000000148,"midi":67,"time":11.828532,"velocity":0.3937007874015748},{"duration":0.0428569999999997,"midi":30,"time":11.871389,"velocity":0.3937007874015748},{"duration":0.0428569999999997,"midi":68,"time":11.914246,"velocity":0.3937007874015748},{"duration":0.0428569999999997,"midi":31,"time":11.957103,"velocity":0.3937007874015748},{"duration":0.0428569999999997,"midi":67,"time":11.99996,"velocity":0.3937007874015748},{"duration":0.0428569999999997,"midi":31,"time":12.042817,"velocity":0.3937007874015748},{"duration":0.0428569999999997,"midi":31,"time":12.128531,"velocity":0.3937007874015748},{"duration":0.0428569999999997,"midi":31,"time":12.214245,"velocity":0.3937007874015748},{"duration":0.0428569999999997,"midi":31,"time":12.299959,"velocity":0.3937007874015748},{"duration":0.0428569999999997,"midi":31,"time":12.385673,"velocity":0.3937007874015748},{"duration":0.0428569999999997,"midi":31,"time":12.471387,"velocity":0.3937007874015748},{"duration":0.0428569999999997,"midi":31,"time":12.557101,"velocity":0.3937007874015748},{"duration":0.0428569999999997,"midi":31,"time":12.642815,"velocity":0.3937007874015748},{"duration":0.0428569999999997,"midi":31,"time":12.728529,"velocity":0.3937007874015748},{"duration":0.0428569999999997,"midi":31,"time":12.814243,"velocity":0.3937007874015748},{"duration":0.0428569999999997,"midi":31,"time":12.899957,"velocity":0.3937007874015748},{"duration":0.0428569999999997,"midi":36,"time":12.985671,"velocity":0.3937007874015748},{"duration":0.0428569999999997,"midi":36,"time":13.028528,"velocity":0.3937007874015748},{"duration":0.0428569999999997,"midi":67,"time":13.028528,"velocity":0.3937007874015748},{"duration":0.0428569999999997,"midi":36,"time":13.071385,"velocity":0.3937007874015748},{"duration":0.04285700000000148,"midi":68,"time":13.114241999999999,"velocity":0.3937007874015748},{"duration":0.04285700000000148,"midi":34,"time":13.114241999999999,"velocity":0.3937007874015748},{"duration":0.0428569999999997,"midi":36,"time":13.157099,"velocity":0.3937007874015748},{"duration":0.0428569999999997,"midi":67,"time":13.199956,"velocity":0.3937007874015748},{"duration":0.0428569999999997,"midi":32,"time":13.199956,"velocity":0.3937007874015748},{"duration":0.0428569999999997,"midi":36,"time":13.242813,"velocity":0.3937007874015748},{"duration":0.0428569999999997,"midi":66,"time":13.28567,"velocity":0.3937007874015748},{"duration":0.0428569999999997,"midi":30,"time":13.28567,"velocity":0.3937007874015748},{"duration":0.0428569999999997,"midi":36,"time":13.328527,"velocity":0.3937007874015748},{"duration":0.04285700000000148,"midi":28,"time":13.371383999999999,"velocity":0.3937007874015748},{"duration":0.04285700000000148,"midi":67,"time":13.371383999999999,"velocity":0.3937007874015748},{"duration":0.0428569999999997,"midi":36,"time":13.414241,"velocity":0.3937007874015748},{"duration":0.0428569999999997,"midi":26,"time":13.457098,"velocity":0.3937007874015748},{"duration":0.0428569999999997,"midi":36,"time":13.499955,"velocity":0.3937007874015748},{"duration":0.0428569999999997,"midi":24,"time":13.542812,"velocity":0.3937007874015748},{"duration":0.0428569999999997,"midi":60,"time":13.542812,"velocity":0.3937007874015748},{"duration":0.0428569999999997,"midi":36,"time":13.585669,"velocity":0.3937007874015748},{"duration":0.0428569999999997,"midi":36,"time":13.671383,"velocity":0.3937007874015748},{"duration":0.0428569999999997,"midi":63,"time":13.71424,"velocity":0.3937007874015748},{"duration":0.0428569999999997,"midi":36,"time":13.757097,"velocity":0.3937007874015748},{"duration":0.0428569999999997,"midi":36,"time":13.842811,"velocity":0.3937007874015748},{"duration":0.0428569999999997,"midi":36,"time":13.928525,"velocity":0.3937007874015748},{"duration":0.0428569999999997,"midi":36,"time":14.014239,"velocity":0.3937007874015748},{"duration":0.0428569999999997,"midi":62,"time":14.057096,"velocity":0.3937007874015748},{"duration":0.0428569999999997,"midi":36,"time":14.099953,"velocity":0.3937007874015748},{"duration":0.04285700000000148,"midi":63,"time":14.142809999999999,"velocity":0.3937007874015748},{"duration":0.0428569999999997,"midi":36,"time":14.185667,"velocity":0.3937007874015748},{"duration":0.0428569999999997,"midi":62,"time":14.228524,"velocity":0.3937007874015748},{"duration":0.0428569999999997,"midi":36,"time":14.271381,"velocity":0.3937007874015748},{"duration":0.0428569999999997,"midi":60,"time":14.314238,"velocity":0.3937007874015748},{"duration":0.0428569999999997,"midi":35,"time":14.357095,"velocity":0.3937007874015748},{"duration":0.04285700000000148,"midi":62,"time":14.399951999999999,"velocity":0.3937007874015748},{"duration":0.0428569999999997,"midi":35,"time":14.442809,"velocity":0.3937007874015748},{"duration":0.0428569999999997,"midi":35,"time":14.528523,"velocity":0.3937007874015748},{"duration":0.0428569999999997,"midi":59,"time":14.57138,"velocity":0.3937007874015748},{"duration":0.0428569999999997,"midi":35,"time":14.614237,"velocity":0.3937007874015748},{"duration":0.0428569999999997,"midi":35,"time":14.699951,"velocity":0.3937007874015748},{"duration":0.0428569999999997,"midi":55,"time":14.742808,"velocity":0.3937007874015748},{"duration":0.0428569999999997,"midi":35,"time":14.785665,"velocity":0.3937007874015748},{"duration":0.0428569999999997,"midi":35,"time":14.871379,"velocity":0.3937007874015748},{"duration":0.0428569999999997,"midi":35,"time":14.957093,"velocity":0.3937007874015748},{"duration":0.0428569999999997,"midi":35,"time":15.042807,"velocity":0.3937007874015748},{"duration":0.0428569999999997,"midi":50,"time":15.085664,"velocity":0.3937007874015748},{"duration":0.0428569999999997,"midi":35,"time":15.128521,"velocity":0.3937007874015748},{"duration":0.0428569999999997,"midi":35,"time":15.214235,"velocity":0.3937007874015748},{"duration":0.0428569999999997,"midi":47,"time":15.257092,"velocity":0.3937007874015748},{"duration":0.0428569999999997,"midi":35,"time":15.299949,"velocity":0.3937007874015748},{"duration":0.0428569999999997,"midi":35,"time":15.385663,"velocity":0.3937007874015748},{"duration":0.04285700000000148,"midi":43,"time":15.428519999999999,"velocity":0.3937007874015748},{"duration":0.0428569999999997,"midi":35,"time":15.471377,"velocity":0.3937007874015748},{"duration":0.0428569999999997,"midi":35,"time":15.557091,"velocity":0.3937007874015748},{"duration":0.0428569999999997,"midi":35,"time":15.642805,"velocity":0.3937007874015748},{"duration":0.0428569999999997,"midi":36,"time":15.728519,"velocity":0.3937007874015748},{"duration":0.0428569999999997,"midi":60,"time":15.771376,"velocity":0.3937007874015748},{"duration":0.0428569999999997,"midi":40,"time":15.771376,"velocity":0.3937007874015748},{"duration":0.0428569999999997,"midi":36,"time":15.814233,"velocity":0.3937007874015748},{"duration":0.0428569999999997,"midi":38,"time":15.85709,"velocity":0.3937007874015748},{"duration":0.0428569999999997,"midi":61,"time":15.85709,"velocity":0.3937007874015748},{"duration":0.0428569999999997,"midi":36,"time":15.899947,"velocity":0.3937007874015748},{"duration":0.04285700000000148,"midi":36,"time":15.942803999999999,"velocity":0.3937007874015748},{"duration":0.04285700000000148,"midi":60,"time":15.942803999999999,"velocity":0.3937007874015748},{"duration":0.042856999999997925,"midi":36,"time":15.985661,"velocity":0.3937007874015748},{"duration":0.04285700000000148,"midi":34,"time":16.028518,"velocity":0.3937007874015748},{"duration":0.04285700000000148,"midi":59,"time":16.028518,"velocity":0.3937007874015748},{"duration":0.04285700000000148,"midi":36,"time":16.071375,"velocity":0.3937007874015748},{"duration":0.042856999999997925,"midi":32,"time":16.114232,"velocity":0.3937007874015748},{"duration":0.042856999999997925,"midi":60,"time":16.114232,"velocity":0.3937007874015748},{"duration":0.04285700000000148,"midi":36,"time":16.157089,"velocity":0.3937007874015748},{"duration":0.042856999999997925,"midi":30,"time":16.199946,"velocity":0.3937007874015748},{"duration":0.04285700000000148,"midi":36,"time":16.242803,"velocity":0.3937007874015748},{"duration":0.042856999999997925,"midi":28,"time":16.28566,"velocity":0.3937007874015748},{"duration":0.042856999999997925,"midi":64,"time":16.28566,"velocity":0.3937007874015748},{"duration":0.04285700000000148,"midi":36,"time":16.328516999999998,"velocity":0.3937007874015748},{"duration":0.042856999999997925,"midi":40,"time":16.414231,"velocity":0.3937007874015748},{"duration":0.04285700000000148,"midi":67,"time":16.457088,"velocity":0.3937007874015748},{"duration":0.042856999999997925,"midi":40,"time":16.499945,"velocity":0.3937007874015748},{"duration":0.04285700000000148,"midi":40,"time":16.585659,"velocity":0.3937007874015748},{"duration":0.04285700000000148,"midi":40,"time":16.671373,"velocity":0.3937007874015748},{"duration":0.04285700000000148,"midi":40,"time":16.757087,"velocity":0.3937007874015748},{"duration":0.04285700000000148,"midi":60,"time":16.799944,"velocity":0.3937007874015748},{"duration":0.042856999999997925,"midi":40,"time":16.842801,"velocity":0.3937007874015748},{"duration":0.042856999999997925,"midi":40,"time":16.928515,"velocity":0.3937007874015748},{"duration":0.04285700000000148,"midi":70,"time":16.971372,"velocity":0.3937007874015748},{"duration":0.042856999999997925,"midi":40,"time":17.014229,"velocity":0.3937007874015748},{"duration":0.04285700000000148,"midi":41,"time":17.099943,"velocity":0.3937007874015748},{"duration":0.042856999999997925,"midi":68,"time":17.1428,"velocity":0.3937007874015748},{"duration":0.04285700000000148,"midi":41,"time":17.185657,"velocity":0.3937007874015748},{"duration":0.04285700000000148,"midi":41,"time":17.271371,"velocity":0.3937007874015748},{"duration":0.042856999999997925,"midi":41,"time":17.357085,"velocity":0.3937007874015748},{"duration":0.04285700000000148,"midi":67,"time":17.399942,"velocity":0.3937007874015748},{"duration":0.042856999999997925,"midi":41,"time":17.442799,"velocity":0.3937007874015748},{"duration":0.04285700000000148,"midi":65,"time":17.485656,"velocity":0.3937007874015748},{"duration":0.042856999999997925,"midi":41,"time":17.528513,"velocity":0.3937007874015748},{"duration":0.04285700000000148,"midi":41,"time":17.614227,"velocity":0.3937007874015748},{"duration":0.04285700000000148,"midi":41,"time":17.699941,"velocity":0.3937007874015748},{"duration":0.04285700000000148,"midi":41,"time":17.785655,"velocity":0.3937007874015748},{"duration":0.04285700000000148,"midi":56,"time":17.828512,"velocity":0.3937007874015748},{"duration":0.042856999999997925,"midi":41,"time":17.871369,"velocity":0.3937007874015748},{"duration":0.042856999999997925,"midi":41,"time":17.957083,"velocity":0.3937007874015748},{"duration":0.042856999999997925,"midi":41,"time":18.042797,"velocity":0.3937007874015748},{"duration":0.04285700000000148,"midi":55,"time":18.085653999999998,"velocity":0.3937007874015748},{"duration":0.04285700000000148,"midi":41,"time":18.128511,"velocity":0.3937007874015748},{"duration":0.042856999999997925,"midi":53,"time":18.171368,"velocity":0.3937007874015748},{"duration":0.04285700000000148,"midi":41,"time":18.214225,"velocity":0.3937007874015748},{"duration":0.04285700000000148,"midi":41,"time":18.299939,"velocity":0.3937007874015748},{"duration":0.042856999999997925,"midi":41,"time":18.385653,"velocity":0.3937007874015748},{"duration":0.042856999999997925,"midi":38,"time":18.471367,"velocity":0.3937007874015748},{"duration":0.04285700000000148,"midi":65,"time":18.514224,"velocity":0.3937007874015748},{"duration":0.04285700000000148,"midi":38,"time":18.514224,"velocity":0.3937007874015748},{"duration":0.042856999999997925,"midi":38,"time":18.557081,"velocity":0.3937007874015748},{"duration":0.04285700000000148,"midi":36,"time":18.599937999999998,"velocity":0.3937007874015748},{"duration":0.04285700000000148,"midi":67,"time":18.599937999999998,"velocity":0.3937007874015748},{"duration":0.04285700000000148,"midi":38,"time":18.642795,"velocity":0.3937007874015748},{"duration":0.042856999999997925,"midi":65,"time":18.685652,"velocity":0.3937007874015748},{"duration":0.042856999999997925,"midi":34,"time":18.685652,"velocity":0.3937007874015748},{"duration":0.04285700000000148,"midi":38,"time":18.728509,"velocity":0.3937007874015748},{"duration":0.042856999999997925,"midi":32,"time":18.771366,"velocity":0.3937007874015748},{"duration":0.042856999999997925,"midi":64,"time":18.771366,"velocity":0.3937007874015748},{"duration":0.04285700000000148,"midi":38,"time":18.814223,"velocity":0.3937007874015748},{"duration":0.04285700000000148,"midi":30,"time":18.85708,"velocity":0.3937007874015748},{"duration":0.04285700000000148,"midi":65,"time":18.85708,"velocity":0.3937007874015748},{"duration":0.042856999999997925,"midi":38,"time":18.899937,"velocity":0.3937007874015748},{"duration":0.04285700000000148,"midi":28,"time":18.942794,"velocity":0.3937007874015748},{"duration":0.042856999999997925,"midi":38,"time":18.985651,"velocity":0.3937007874015748},{"duration":0.04285700000000148,"midi":26,"time":19.028508,"velocity":0.3937007874015748},{"duration":0.04285700000000148,"midi":68,"time":19.028508,"velocity":0.3937007874015748},{"duration":0.042856999999997925,"midi":38,"time":19.071365,"velocity":0.3937007874015748},{"duration":0.04285700000000148,"midi":35,"time":19.157079,"velocity":0.3937007874015748},{"duration":0.042856999999997925,"midi":67,"time":19.199936,"velocity":0.3937007874015748},{"duration":0.04285700000000148,"midi":35,"time":19.242793,"velocity":0.3937007874015748},{"duration":0.04285700000000148,"midi":35,"time":19.328507,"velocity":0.3937007874015748},{"duration":0.042856999999997925,"midi":35,"time":19.414221,"velocity":0.3937007874015748},{"duration":0.042856999999997925,"midi":35,"time":19.499935,"velocity":0.3937007874015748},{"duration":0.04285700000000148,"midi":62,"time":19.542792,"velocity":0.3937007874015748},{"duration":0.042856999999997925,"midi":35,"time":19.585649,"velocity":0.3937007874015748},{"duration":0.04285700000000148,"midi":35,"time":19.671363,"velocity":0.3937007874015748},{"duration":0.042856999999997925,"midi":65,"time":19.71422,"velocity":0.3937007874015748},{"duration":0.04285700000000148,"midi":35,"time":19.757077,"velocity":0.3937007874015748},{"duration":0.04285700000000148,"midi":36,"time":19.842791,"velocity":0.3937007874015748},{"duration":0.04285700000000148,"midi":63,"time":19.885648,"velocity":0.3937007874015748},{"duration":0.042856999999997925,"midi":36,"time":19.928505,"velocity":0.3937007874015748},{"duration":0.042856999999997925,"midi":36,"time":20.014219,"velocity":0.3937007874015748},{"duration":0.04285700000000148,"midi":63,"time":20.057076,"velocity":0.3937007874015748},{"duration":0.042856999999997925,"midi":36,"time":20.099933,"velocity":0.3937007874015748},{"duration":0.04285700000000148,"midi":62,"time":20.142789999999998,"velocity":0.3937007874015748},{"duration":0.04285700000000148,"midi":34,"time":20.185647,"velocity":0.3937007874015748},{"duration":0.042856999999997925,"midi":60,"time":20.228504,"velocity":0.3937007874015748},{"duration":0.04285700000000148,"midi":34,"time":20.271361,"velocity":0.3937007874015748},{"duration":0.042856999999997925,"midi":62,"time":20.314218,"velocity":0.3937007874015748},{"duration":0.04285700000000148,"midi":34,"time":20.357075,"velocity":0.3937007874015748},{"duration":0.04285700000000148,"midi":63,"time":20.399932,"velocity":0.3937007874015748},{"duration":0.042856999999997925,"midi":34,"time":20.442789,"velocity":0.3937007874015748},{"duration":0.04285700000000148,"midi":67,"time":20.485646,"velocity":0.3937007874015748},{"duration":0.042856999999997925,"midi":33,"time":20.528503,"velocity":0.3937007874015748},{"duration":0.04285700000000148,"midi":72,"time":20.57136,"velocity":0.3937007874015748},{"duration":0.042856999999997925,"midi":33,"time":20.614217,"velocity":0.3937007874015748},{"duration":0.04285700000000148,"midi":33,"time":20.699931,"velocity":0.3937007874015748},{"duration":0.04285700000000148,"midi":33,"time":20.785645,"velocity":0.3937007874015748},{"duration":0.04285700000000148,"midi":33,"time":20.871358999999998,"velocity":0.3937007874015748},{"duration":0.042856999999997925,"midi":33,"time":20.957073,"velocity":0.3937007874015748},{"duration":0.042856999999997925,"midi":33,"time":21.042787,"velocity":0.3937007874015748},{"duration":0.04285700000000148,"midi":74,"time":21.085644,"velocity":0.3937007874015748},{"duration":0.042856999999997925,"midi":33,"time":21.128501,"velocity":0.3937007874015748},{"duration":0.04285700000000148,"midi":75,"time":21.171357999999998,"velocity":0.3937007874015748},{"duration":0.042856999999997925,"midi":62,"time":21.257072,"velocity":0.3937007874015748},{"duration":0.042856999999997925,"midi":41,"time":21.257072,"velocity":0.3937007874015748},{"duration":0.042856999999997925,"midi":74,"time":21.257072,"velocity":0.3937007874015748},{"duration":0.042856999999997925,"midi":39,"time":21.342786,"velocity":0.3937007874015748},{"duration":0.04285700000000148,"midi":60,"time":21.4285,"velocity":0.3937007874015748},{"duration":0.04285700000000148,"midi":72,"time":21.4285,"velocity":0.3937007874015748},{"duration":0.04285700000000148,"midi":37,"time":21.4285,"velocity":0.3937007874015748},{"duration":0.04285700000000148,"midi":57,"time":21.514214,"velocity":0.3937007874015748},{"duration":0.04285700000000148,"midi":35,"time":21.514214,"velocity":0.3937007874015748},{"duration":0.04285700000000148,"midi":69,"time":21.514214,"velocity":0.3937007874015748},{"duration":0.04285700000000148,"midi":33,"time":21.599928,"velocity":0.3937007874015748},{"duration":0.04285700000000148,"midi":66,"time":21.599928,"velocity":0.3937007874015748},{"duration":0.04285700000000148,"midi":54,"time":21.599928,"velocity":0.3937007874015748},{"duration":0.04285700000000148,"midi":51,"time":21.685641999999998,"velocity":0.3937007874015748},{"duration":0.04285700000000148,"midi":63,"time":21.685641999999998,"velocity":0.3937007874015748},{"duration":0.04285700000000148,"midi":31,"time":21.685641999999998,"velocity":0.3937007874015748},{"duration":0.042856999999997925,"midi":29,"time":21.771356,"velocity":0.3937007874015748},{"duration":0.042856999999997925,"midi":48,"time":21.771356,"velocity":0.3937007874015748},{"duration":0.042856999999997925,"midi":60,"time":21.771356,"velocity":0.3937007874015748},{"duration":0.042856999999997925,"midi":57,"time":21.85707,"velocity":0.3937007874015748},{"duration":0.042856999999997925,"midi":45,"time":21.85707,"velocity":0.3937007874015748},{"duration":0.04285700000000148,"midi":31,"time":21.899926999999998,"velocity":0.3937007874015748},{"duration":0.04285700000000148,"midi":47,"time":21.942784,"velocity":0.3937007874015748},{"duration":0.04285700000000148,"midi":59,"time":21.942784,"velocity":0.3937007874015748},{"duration":0.042856999999997925,"midi":31,"time":21.985641,"velocity":0.3937007874015748},{"duration":0.042856999999997925,"midi":31,"time":22.071355,"velocity":0.3937007874015748},{"duration":0.04285700000000148,"midi":31,"time":22.157069,"velocity":0.3937007874015748},{"duration":0.04285700000000148,"midi":31,"time":22.242783,"velocity":0.3937007874015748},{"duration":0.04285700000000148,"midi":31,"time":22.328497,"velocity":0.3937007874015748},{"duration":0.04285700000000148,"midi":31,"time":22.414210999999998,"velocity":0.3937007874015748},{"duration":0.04285700000000148,"midi":48,"time":22.457068,"velocity":0.3937007874015748},{"duration":0.04285700000000148,"midi":60,"time":22.457068,"velocity":0.3937007874015748},{"duration":0.042856999999997925,"midi":31,"time":22.499925,"velocity":0.3937007874015748},{"duration":0.042856999999997925,"midi":36,"time":22.585639,"velocity":0.3937007874015748},{"duration":0.04285700000000148,"midi":60,"time":22.628496,"velocity":0.3937007874015748},{"duration":0.04285700000000148,"midi":48,"time":22.628496,"velocity":0.3937007874015748},{"duration":0.04285700000000148,"midi":36,"time":22.671353,"velocity":0.3937007874015748},{"duration":0.04285700000000148,"midi":36,"time":22.757067,"velocity":0.3937007874015748},{"duration":0.04285700000000148,"midi":36,"time":22.842781,"velocity":0.3937007874015748},{"duration":0.04285700000000148,"midi":36,"time":22.928494999999998,"velocity":0.3937007874015748},{"duration":0.042856999999997925,"midi":36,"time":23.014209,"velocity":0.3937007874015748},{"duration":0.042856999999997925,"midi":36,"time":23.099923,"velocity":0.3937007874015748},{"duration":0.04285700000000148,"midi":36,"time":23.185637,"velocity":0.3937007874015748},{"duration":0.04285700000000148,"midi":36,"time":23.271351,"velocity":0.3937007874015748},{"duration":0.04285700000000148,"midi":36,"time":23.357065,"velocity":0.3937007874015748},{"duration":0.04285700000000148,"midi":36,"time":23.442778999999998,"velocity":0.3937007874015748},{"duration":0.042856999999997925,"midi":36,"time":23.528493,"velocity":0.3937007874015748},{"duration":0.042856999999997925,"midi":36,"time":23.614207,"velocity":0.3937007874015748},{"duration":0.04285700000000148,"midi":36,"time":23.699921,"velocity":0.3937007874015748},{"duration":0.04285700000000148,"midi":36,"time":23.785635,"velocity":0.3937007874015748},{"duration":0.04285700000000148,"midi":36,"time":23.871349,"velocity":0.3937007874015748},{"duration":0.042856999999997925,"midi":36,"time":34.928455,"velocity":0.3937007874015748},{"duration":0.04285700000000503,"midi":56,"time":34.971312,"velocity":0.3937007874015748},{"duration":0.04285700000000503,"midi":48,"time":34.971312,"velocity":0.3937007874015748},{"duration":0.042856999999997925,"midi":36,"time":35.014169,"velocity":0.3937007874015748},{"duration":0.042856999999997925,"midi":56,"time":35.057026,"velocity":0.3937007874015748},{"duration":0.042856999999997925,"midi":36,"time":35.099883,"velocity":0.3937007874015748},{"duration":0.04285700000000503,"midi":56,"time":35.142739999999996,"velocity":0.3937007874015748},{"duration":0.04285700000000503,"midi":48,"time":35.142739999999996,"velocity":0.3937007874015748},{"duration":0.042856999999997925,"midi":36,"time":35.185597,"velocity":0.3937007874015748},{"duration":0.042856999999997925,"midi":56,"time":35.228454,"velocity":0.3937007874015748},{"duration":0.04285700000000503,"midi":36,"time":35.271311,"velocity":0.3937007874015748},{"duration":0.042856999999997925,"midi":48,"time":35.314168,"velocity":0.3937007874015748},{"duration":0.042856999999997925,"midi":57,"time":35.314168,"velocity":0.3937007874015748},{"duration":0.042856999999997925,"midi":36,"time":35.357025,"velocity":0.3937007874015748},{"duration":0.042856999999997925,"midi":57,"time":35.399882,"velocity":0.3937007874015748},{"duration":0.04285700000000503,"midi":36,"time":35.442738999999996,"velocity":0.3937007874015748},{"duration":0.042856999999997925,"midi":57,"time":35.485596,"velocity":0.3937007874015748},{"duration":0.042856999999997925,"midi":48,"time":35.485596,"velocity":0.3937007874015748},{"duration":0.042856999999997925,"midi":36,"time":35.528453,"velocity":0.3937007874015748},{"duration":0.04285700000000503,"midi":57,"time":35.57131,"velocity":0.3937007874015748},{"duration":0.042856999999997925,"midi":36,"time":35.614167,"velocity":0.3937007874015748},{"duration":0.042856999999997925,"midi":58,"time":35.657024,"velocity":0.3937007874015748},{"duration":0.042856999999997925,"midi":48,"time":35.657024,"velocity":0.3937007874015748},{"duration":0.04285700000000503,"midi":36,"time":35.699881,"velocity":0.3937007874015748},{"duration":0.042856999999997925,"midi":58,"time":35.742738,"velocity":0.3937007874015748},{"duration":0.042856999999997925,"midi":36,"time":35.785595,"velocity":0.3937007874015748},{"duration":0.042856999999997925,"midi":48,"time":35.828452,"velocity":0.3937007874015748},{"duration":0.042856999999997925,"midi":58,"time":35.828452,"velocity":0.3937007874015748},{"duration":0.04285700000000503,"midi":36,"time":35.871309,"velocity":0.3937007874015748},{"duration":0.042856999999997925,"midi":58,"time":35.914166,"velocity":0.3937007874015748},{"duration":0.042856999999997925,"midi":36,"time":35.957023,"velocity":0.3937007874015748},{"duration":0.04285700000000503,"midi":59,"time":35.99988,"velocity":0.3937007874015748},{"duration":0.04285700000000503,"midi":48,"time":35.99988,"velocity":0.3937007874015748},{"duration":0.042856999999997925,"midi":36,"time":36.042737,"velocity":0.3937007874015748},{"duration":0.042856999999997925,"midi":59,"time":36.085594,"velocity":0.3937007874015748},{"duration":0.042856999999997925,"midi":36,"time":36.128451,"velocity":0.3937007874015748},{"duration":0.04285700000000503,"midi":48,"time":36.171307999999996,"velocity":0.3937007874015748},{"duration":0.04285700000000503,"midi":59,"time":36.171307999999996,"velocity":0.3937007874015748},{"duration":0.042856999999997925,"midi":36,"time":36.214165,"velocity":0.3937007874015748},{"duration":0.042856999999997925,"midi":59,"time":36.257022,"velocity":0.3937007874015748},{"duration":0.04285700000000503,"midi":35,"time":36.299879,"velocity":0.3937007874015748},{"duration":0.042856999999997925,"midi":60,"time":36.342736,"velocity":0.3937007874015748},{"duration":0.042856999999997925,"midi":47,"time":36.342736,"velocity":0.3937007874015748},{"duration":0.042856999999997925,"midi":35,"time":36.385593,"velocity":0.3937007874015748},{"duration":0.042856999999997925,"midi":60,"time":36.42845,"velocity":0.3937007874015748},{"duration":0.04285700000000503,"midi":35,"time":36.471306999999996,"velocity":0.3937007874015748},{"duration":0.042856999999997925,"midi":60,"time":36.514164,"velocity":0.3937007874015748},{"duration":0.042856999999997925,"midi":47,"time":36.514164,"velocity":0.3937007874015748},{"duration":0.042856999999997925,"midi":35,"time":36.557021,"velocity":0.3937007874015748},{"duration":0.04285700000000503,"midi":60,"time":36.599878,"velocity":0.3937007874015748},{"duration":0.042856999999997925,"midi":35,"time":36.642735,"velocity":0.3937007874015748},{"duration":0.042856999999997925,"midi":47,"time":36.685592,"velocity":0.3937007874015748},{"duration":0.042856999999997925,"midi":61,"time":36.685592,"velocity":0.3937007874015748},{"duration":0.04285700000000503,"midi":35,"time":36.728449,"velocity":0.3937007874015748},{"duration":0.042856999999997925,"midi":61,"time":36.771306,"velocity":0.3937007874015748},{"duration":0.042856999999997925,"midi":35,"time":36.814163,"velocity":0.3937007874015748},{"duration":0.042856999999997925,"midi":47,"time":36.85702,"velocity":0.3937007874015748},{"duration":0.042856999999997925,"midi":61,"time":36.85702,"velocity":0.3937007874015748},{"duration":0.04285700000000503,"midi":35,"time":36.899877,"velocity":0.3937007874015748},{"duration":0.042856999999997925,"midi":61,"time":36.942734,"velocity":0.3937007874015748},{"duration":0.042856999999997925,"midi":35,"time":36.985591,"velocity":0.3937007874015748},{"duration":0.04285700000000503,"midi":47,"time":37.028448,"velocity":0.3937007874015748},{"duration":0.04285700000000503,"midi":62,"time":37.028448,"velocity":0.3937007874015748},{"duration":0.042856999999997925,"midi":35,"time":37.071305,"velocity":0.3937007874015748},{"duration":0.042856999999997925,"midi":62,"time":37.114162,"velocity":0.3937007874015748},{"duration":0.042856999999997925,"midi":35,"time":37.157019,"velocity":0.3937007874015748},{"duration":0.04285700000000503,"midi":47,"time":37.199875999999996,"velocity":0.3937007874015748},{"duration":0.04285700000000503,"midi":62,"time":37.199875999999996,"velocity":0.3937007874015748},{"duration":0.042856999999997925,"midi":35,"time":37.242733,"velocity":0.3937007874015748},{"duration":0.042856999999997925,"midi":62,"time":37.28559,"velocity":0.3937007874015748},{"duration":0.04285700000000503,"midi":35,"time":37.328447,"velocity":0.3937007874015748},{"duration":0.042856999999997925,"midi":47,"time":37.371304,"velocity":0.3937007874015748},{"duration":0.042856999999997925,"midi":63,"time":37.371304,"velocity":0.3937007874015748},{"duration":0.042856999999997925,"midi":35,"time":37.414161,"velocity":0.3937007874015748},{"duration":0.042856999999997925,"midi":63,"time":37.457018,"velocity":0.3937007874015748},{"duration":0.04285700000000503,"midi":35,"time":37.499874999999996,"velocity":0.3937007874015748},{"duration":0.042856999999997925,"midi":47,"time":37.542732,"velocity":0.3937007874015748},{"duration":0.042856999999997925,"midi":63,"time":37.542732,"velocity":0.3937007874015748},{"duration":0.042856999999997925,"midi":35,"time":37.585589,"velocity":0.3937007874015748},{"duration":0.04285700000000503,"midi":63,"time":37.628446,"velocity":0.3937007874015748},{"duration":0.042856999999997925,"midi":36,"time":37.671303,"velocity":0.3937007874015748},{"duration":0.042856999999997925,"midi":48,"time":37.71416,"velocity":0.3937007874015748},{"duration":0.042856999999997925,"midi":64,"time":37.71416,"velocity":0.3937007874015748},{"duration":0.04285700000000503,"midi":36,"time":37.757017,"velocity":0.3937007874015748},{"duration":0.042856999999997925,"midi":64,"time":37.799874,"velocity":0.3937007874015748},{"duration":0.042856999999997925,"midi":36,"time":37.842731,"velocity":0.3937007874015748},{"duration":0.042856999999997925,"midi":64,"time":37.885588,"velocity":0.3937007874015748},{"duration":0.042856999999997925,"midi":48,"time":37.885588,"velocity":0.3937007874015748},{"duration":0.04285700000000503,"midi":36,"time":37.928444999999996,"velocity":0.3937007874015748},{"duration":0.042856999999997925,"midi":64,"time":37.971302,"velocity":0.3937007874015748},{"duration":0.042856999999997925,"midi":36,"time":38.014159,"velocity":0.3937007874015748},{"duration":0.04285700000000503,"midi":65,"time":38.057016,"velocity":0.3937007874015748},{"duration":0.04285700000000503,"midi":48,"time":38.057016,"velocity":0.3937007874015748},{"duration":0.042856999999997925,"midi":36,"time":38.099873,"velocity":0.3937007874015748},{"duration":0.042856999999997925,"midi":65,"time":38.14273,"velocity":0.3937007874015748},{"duration":0.042856999999997925,"midi":36,"time":38.185587,"velocity":0.3937007874015748},{"duration":0.04285700000000503,"midi":65,"time":38.228443999999996,"velocity":0.3937007874015748},{"duration":0.04285700000000503,"midi":48,"time":38.228443999999996,"velocity":0.3937007874015748},{"duration":0.042856999999997925,"midi":36,"time":38.271301,"velocity":0.3937007874015748},{"duration":0.042856999999997925,"midi":65,"time":38.314158,"velocity":0.3937007874015748},{"duration":0.04285700000000503,"midi":36,"time":38.357015,"velocity":0.3937007874015748},{"duration":0.042856999999997925,"midi":48,"time":38.399872,"velocity":0.3937007874015748},{"duration":0.042856999999997925,"midi":66,"time":38.399872,"velocity":0.3937007874015748},{"duration":0.042856999999997925,"midi":36,"time":38.442729,"velocity":0.3937007874015748},{"duration":0.04285700000000503,"midi":66,"time":38.485586,"velocity":0.3937007874015748},{"duration":0.042856999999997925,"midi":36,"time":38.528443,"velocity":0.3937007874015748},{"duration":0.042856999999997925,"midi":48,"time":38.5713,"velocity":0.3937007874015748},{"duration":0.042856999999997925,"midi":66,"time":38.5713,"velocity":0.3937007874015748},{"duration":0.042856999999997925,"midi":36,"time":38.614157,"velocity":0.3937007874015748},{"duration":0.04285700000000503,"midi":66,"time":38.657014,"velocity":0.3937007874015748},{"duration":0.042856999999997925,"midi":36,"time":38.699871,"velocity":0.3937007874015748},{"duration":0.042856999999997925,"midi":48,"time":38.742728,"velocity":0.3937007874015748},{"duration":0.042856999999997925,"midi":67,"time":38.742728,"velocity":0.3937007874015748},{"duration":0.04285700000000503,"midi":36,"time":38.785585,"velocity":0.3937007874015748},{"duration":0.042856999999997925,"midi":67,"time":38.828442,"velocity":0.3937007874015748},{"duration":0.042856999999997925,"midi":36,"time":38.871299,"velocity":0.3937007874015748},{"duration":0.042856999999997925,"midi":67,"time":38.914156,"velocity":0.3937007874015748},{"duration":0.042856999999997925,"midi":48,"time":38.914156,"velocity":0.3937007874015748},{"duration":0.04285700000000503,"midi":36,"time":38.957012999999996,"velocity":0.3937007874015748},{"duration":0.042856999999997925,"midi":67,"time":38.99987,"velocity":0.3937007874015748},{"duration":0.042856999999997925,"midi":41,"time":39.042727,"velocity":0.3937007874015748},{"duration":0.04285700000000503,"midi":53,"time":39.085584,"velocity":0.3937007874015748},{"duration":0.04285700000000503,"midi":68,"time":39.085584,"velocity":0.3937007874015748},{"duration":0.042856999999997925,"midi":41,"time":39.128441,"velocity":0.3937007874015748},{"duration":0.042856999999997925,"midi":68,"time":39.171298,"velocity":0.3937007874015748},{"duration":0.042856999999997925,"midi":41,"time":39.214155,"velocity":0.3937007874015748},{"duration":0.04285700000000503,"midi":53,"time":39.257011999999996,"velocity":0.3937007874015748},{"duration":0.04285700000000503,"midi":68,"time":39.257011999999996,"velocity":0.3937007874015748},{"duration":0.042856999999997925,"midi":41,"time":39.299869,"velocity":0.3937007874015748},{"duration":0.042856999999997925,"midi":68,"time":39.342726,"velocity":0.3937007874015748},{"duration":0.04285700000000503,"midi":41,"time":39.385583,"velocity":0.3937007874015748},{"duration":0.042856999999997925,"midi":53,"time":39.42844,"velocity":0.3937007874015748},{"duration":0.042856999999997925,"midi":69,"time":39.42844,"velocity":0.3937007874015748},{"duration":0.042856999999997925,"midi":41,"time":39.471297,"velocity":0.3937007874015748},{"duration":0.04285700000000503,"midi":69,"time":39.514154,"velocity":0.3937007874015748},{"duration":0.042856999999997925,"midi":41,"time":39.557011,"velocity":0.3937007874015748},{"duration":0.042856999999997925,"midi":53,"time":39.599868,"velocity":0.3937007874015748},{"duration":0.042856999999997925,"midi":69,"time":39.599868,"velocity":0.3937007874015748},{"duration":0.042856999999997925,"midi":41,"time":39.642725,"velocity":0.3937007874015748},{"duration":0.04285700000000503,"midi":69,"time":39.685582,"velocity":0.3937007874015748},{"duration":0.042856999999997925,"midi":41,"time":39.728439,"velocity":0.3937007874015748},{"duration":0.042856999999997925,"midi":70,"time":39.771296,"velocity":0.3937007874015748},{"duration":0.042856999999997925,"midi":53,"time":39.771296,"velocity":0.3937007874015748},{"duration":0.04285700000000503,"midi":41,"time":39.814153,"velocity":0.3937007874015748},{"duration":0.042856999999997925,"midi":70,"time":39.85701,"velocity":0.3937007874015748},{"duration":0.042856999999997925,"midi":41,"time":39.899867,"velocity":0.3937007874015748},{"duration":0.042856999999997925,"midi":70,"time":39.942724,"velocity":0.3937007874015748},{"duration":0.042856999999997925,"midi":53,"time":39.942724,"velocity":0.3937007874015748},{"duration":0.04285700000000503,"midi":41,"time":39.985580999999996,"velocity":0.3937007874015748},{"duration":0.042856999999997925,"midi":70,"time":40.028438,"velocity":0.3937007874015748},{"duration":0.042856999999997925,"midi":41,"time":40.071295,"velocity":0.3937007874015748},{"duration":0.04285700000000503,"midi":71,"time":40.114152,"velocity":0.3937007874015748},{"duration":0.04285700000000503,"midi":53,"time":40.114152,"velocity":0.3937007874015748},{"duration":0.042856999999997925,"midi":41,"time":40.157009,"velocity":0.3937007874015748},{"duration":0.042856999999997925,"midi":71,"time":40.199866,"velocity":0.3937007874015748},{"duration":0.042856999999997925,"midi":41,"time":40.242723,"velocity":0.3937007874015748},{"duration":0.04285700000000503,"midi":71,"time":40.285579999999996,"velocity":0.3937007874015748},{"duration":0.04285700000000503,"midi":53,"time":40.285579999999996,"velocity":0.3937007874015748},{"duration":0.042856999999997925,"midi":41,"time":40.328437,"velocity":0.3937007874015748},{"duration":0.042856999999997925,"midi":71,"time":40.371294,"velocity":0.3937007874015748},{"duration":0.04285700000000503,"midi":32,"time":40.414151,"velocity":0.3937007874015748},{"duration":0.042856999999997925,"midi":44,"time":40.457008,"velocity":0.3937007874015748},{"duration":0.042856999999997925,"midi":72,"time":40.457008,"velocity":0.3937007874015748},{"duration":0.042856999999997925,"midi":32,"time":40.499865,"velocity":0.3937007874015748},{"duration":0.04285700000000503,"midi":72,"time":40.542722,"velocity":0.3937007874015748},{"duration":0.042856999999997925,"midi":32,"time":40.585579,"velocity":0.3937007874015748},{"duration":0.042856999999997925,"midi":44,"time":40.628436,"velocity":0.3937007874015748},{"duration":0.042856999999997925,"midi":72,"time":40.628436,"velocity":0.3937007874015748},{"duration":0.042856999999997925,"midi":32,"time":40.671293,"velocity":0.3937007874015748},{"duration":0.04285700000000503,"midi":72,"time":40.71415,"velocity":0.3937007874015748},{"duration":0.042856999999997925,"midi":32,"time":40.757007,"velocity":0.3937007874015748},{"duration":0.042856999999997925,"midi":44,"time":40.799864,"velocity":0.3937007874015748},{"duration":0.042856999999997925,"midi":73,"time":40.799864,"velocity":0.3937007874015748},{"duration":0.04285700000000503,"midi":32,"time":40.842721,"velocity":0.3937007874015748},{"duration":0.042856999999997925,"midi":73,"time":40.885578,"velocity":0.3937007874015748},{"duration":0.042856999999997925,"midi":32,"time":40.928435,"velocity":0.3937007874015748},{"duration":0.042856999999997925,"midi":44,"time":40.971292,"velocity":0.3937007874015748},{"duration":0.042856999999997925,"midi":73,"time":40.971292,"velocity":0.3937007874015748},{"duration":0.04285700000000503,"midi":32,"time":41.014148999999996,"velocity":0.3937007874015748},{"duration":0.042856999999997925,"midi":73,"time":41.057006,"velocity":0.3937007874015748},{"duration":0.042856999999997925,"midi":32,"time":41.099863,"velocity":0.3937007874015748},{"duration":0.04285700000000503,"midi":74,"time":41.14272,"velocity":0.3937007874015748},{"duration":0.04285700000000503,"midi":44,"time":41.14272,"velocity":0.3937007874015748},{"duration":0.042856999999997925,"midi":32,"time":41.185577,"velocity":0.3937007874015748},{"duration":0.042856999999997925,"midi":74,"time":41.228434,"velocity":0.3937007874015748},{"duration":0.042856999999997925,"midi":32,"time":41.271291,"velocity":0.3937007874015748},{"duration":0.04285700000000503,"midi":44,"time":41.314147999999996,"velocity":0.3937007874015748},{"duration":0.04285700000000503,"midi":74,"time":41.314147999999996,"velocity":0.3937007874015748},{"duration":0.042856999999997925,"midi":32,"time":41.357005,"velocity":0.3937007874015748},{"duration":0.042856999999997925,"midi":74,"time":41.399862,"velocity":0.3937007874015748},{"duration":0.04285700000000503,"midi":32,"time":41.442719,"velocity":0.3937007874015748},{"duration":0.042856999999997925,"midi":75,"time":41.485576,"velocity":0.3937007874015748},{"duration":0.042856999999997925,"midi":44,"time":41.485576,"velocity":0.3937007874015748},{"duration":0.042856999999997925,"midi":32,"time":41.528433,"velocity":0.3937007874015748},{"duration":0.04285700000000503,"midi":75,"time":41.57129,"velocity":0.3937007874015748},{"duration":0.042856999999997925,"midi":32,"time":41.614147,"velocity":0.3937007874015748},{"duration":0.042856999999997925,"midi":75,"time":41.657004,"velocity":0.3937007874015748},{"duration":0.042856999999997925,"midi":44,"time":41.657004,"velocity":0.3937007874015748},{"duration":0.042856999999997925,"midi":32,"time":41.699861,"velocity":0.3937007874015748},{"duration":0.04285700000000503,"midi":75,"time":41.742717999999996,"velocity":0.3937007874015748},{"duration":0.042856999999997925,"midi":36,"time":41.785575,"velocity":0.3937007874015748},{"duration":0.042856999999997925,"midi":76,"time":41.828432,"velocity":0.3937007874015748},{"duration":0.042856999999997925,"midi":48,"time":41.828432,"velocity":0.3937007874015748},{"duration":0.04285700000000503,"midi":36,"time":41.871289,"velocity":0.3937007874015748},{"duration":0.042856999999997925,"midi":76,"time":41.914146,"velocity":0.3937007874015748},{"duration":0.042856999999997925,"midi":36,"time":41.957003,"velocity":0.3937007874015748},{"duration":0.042856999999997925,"midi":48,"time":41.99986,"velocity":0.3937007874015748},{"duration":0.042856999999997925,"midi":76,"time":41.99986,"velocity":0.3937007874015748},{"duration":0.04285700000000503,"midi":36,"time":42.042716999999996,"velocity":0.3937007874015748},{"duration":0.042856999999997925,"midi":76,"time":42.085574,"velocity":0.3937007874015748},{"duration":0.042856999999997925,"midi":36,"time":42.128431,"velocity":0.3937007874015748},{"duration":0.04285700000000503,"midi":48,"time":42.171288,"velocity":0.3937007874015748},{"duration":0.04285700000000503,"midi":77,"time":42.171288,"velocity":0.3937007874015748},{"duration":0.042856999999997925,"midi":36,"time":42.214145,"velocity":0.3937007874015748},{"duration":0.042856999999997925,"midi":77,"time":42.257002,"velocity":0.3937007874015748},{"duration":0.042856999999997925,"midi":36,"time":42.299859,"velocity":0.3937007874015748},{"duration":0.04285700000000503,"midi":48,"time":42.342715999999996,"velocity":0.3937007874015748},{"duration":0.04285700000000503,"midi":77,"time":42.342715999999996,"velocity":0.3937007874015748},{"duration":0.042856999999997925,"midi":36,"time":42.385573,"velocity":0.3937007874015748},{"duration":0.042856999999997925,"midi":77,"time":42.42843,"velocity":0.3937007874015748},{"duration":0.04285700000000503,"midi":36,"time":42.471287,"velocity":0.3937007874015748},{"duration":0.042856999999997925,"midi":78,"time":42.514144,"velocity":0.3937007874015748},{"duration":0.042856999999997925,"midi":48,"time":42.514144,"velocity":0.3937007874015748},{"duration":0.042856999999997925,"midi":36,"time":42.557001,"velocity":0.3937007874015748},{"duration":0.04285700000000503,"midi":78,"time":42.599858,"velocity":0.3937007874015748},{"duration":0.042856999999997925,"midi":36,"time":42.642715,"velocity":0.3937007874015748},{"duration":0.042856999999997925,"midi":48,"time":42.685572,"velocity":0.3937007874015748},{"duration":0.042856999999997925,"midi":78,"time":42.685572,"velocity":0.3937007874015748},{"duration":0.042856999999997925,"midi":36,"time":42.728429,"velocity":0.3937007874015748},{"duration":0.04285700000000503,"midi":78,"time":42.771285999999996,"velocity":0.3937007874015748},{"duration":0.042856999999997925,"midi":36,"time":42.814143,"velocity":0.3937007874015748},{"duration":0.042856999999997925,"midi":48,"time":42.857,"velocity":0.3937007874015748},{"duration":0.042856999999997925,"midi":79,"time":42.857,"velocity":0.3937007874015748},{"duration":0.04285700000000503,"midi":36,"time":42.899857,"velocity":0.3937007874015748},{"duration":0.042856999999997925,"midi":79,"time":42.942714,"velocity":0.3937007874015748},{"duration":0.042856999999997925,"midi":36,"time":42.985571,"velocity":0.3937007874015748},{"duration":0.042856999999997925,"midi":48,"time":43.028428,"velocity":0.3937007874015748},{"duration":0.042856999999997925,"midi":79,"time":43.028428,"velocity":0.3937007874015748},{"duration":0.04285700000000503,"midi":36,"time":43.071284999999996,"velocity":0.3937007874015748},{"duration":0.042856999999997925,"midi":79,"time":43.114142,"velocity":0.3937007874015748},{"duration":0.042856999999997925,"midi":39,"time":43.156999,"velocity":0.3937007874015748},{"duration":0.04285700000000503,"midi":51,"time":43.199856,"velocity":0.3937007874015748},{"duration":0.04285700000000503,"midi":80,"time":43.199856,"velocity":0.3937007874015748},{"duration":0.042856999999997925,"midi":39,"time":43.242713,"velocity":0.3937007874015748},{"duration":0.042856999999997925,"midi":80,"time":43.28557,"velocity":0.3937007874015748},{"duration":0.042856999999997925,"midi":39,"time":43.328427,"velocity":0.3937007874015748},{"duration":0.04285700000000503,"midi":80,"time":43.371283999999996,"velocity":0.3937007874015748},{"duration":0.04285700000000503,"midi":51,"time":43.371283999999996,"velocity":0.3937007874015748},{"duration":0.042856999999997925,"midi":39,"time":43.414141,"velocity":0.3937007874015748},{"duration":0.042856999999997925,"midi":80,"time":43.456998,"velocity":0.3937007874015748},{"duration":0.04285700000000503,"midi":39,"time":43.499855,"velocity":0.3937007874015748},{"duration":0.042856999999997925,"midi":51,"time":43.542712,"velocity":0.3937007874015748},{"duration":0.042856999999997925,"midi":81,"time":43.542712,"velocity":0.3937007874015748},{"duration":0.042856999999997925,"midi":39,"time":43.585569,"velocity":0.3937007874015748},{"duration":0.04285700000000503,"midi":81,"time":43.628426,"velocity":0.3937007874015748},{"duration":0.042856999999997925,"midi":39,"time":43.671283,"velocity":0.3937007874015748},{"duration":0.042856999999997925,"midi":51,"time":43.71414,"velocity":0.3937007874015748},{"duration":0.042856999999997925,"midi":81,"time":43.71414,"velocity":0.3937007874015748},{"duration":0.042856999999997925,"midi":39,"time":43.756997,"velocity":0.3937007874015748},{"duration":0.04285700000000503,"midi":81,"time":43.799853999999996,"velocity":0.3937007874015748},{"duration":0.042856999999997925,"midi":38,"time":43.842711,"velocity":0.3937007874015748},{"duration":0.042856999999997925,"midi":82,"time":43.885568,"velocity":0.3937007874015748},{"duration":0.042856999999997925,"midi":50,"time":43.885568,"velocity":0.3937007874015748},{"duration":0.04285700000000503,"midi":38,"time":43.928425,"velocity":0.3937007874015748},{"duration":0.042856999999997925,"midi":82,"time":43.971282,"velocity":0.3937007874015748},{"duration":0.042856999999997925,"midi":38,"time":44.014139,"velocity":0.3937007874015748},{"duration":0.042856999999997925,"midi":82,"time":44.056996,"velocity":0.3937007874015748},{"duration":0.042856999999997925,"midi":50,"time":44.056996,"velocity":0.3937007874015748},{"duration":0.04285700000000503,"midi":38,"time":44.099852999999996,"velocity":0.3937007874015748},{"duration":0.042856999999997925,"midi":82,"time":44.14271,"velocity":0.3937007874015748},{"duration":0.042856999999997925,"midi":38,"time":44.185567,"velocity":0.3937007874015748},{"duration":0.04285700000000503,"midi":50,"time":44.228424,"velocity":0.3937007874015748},{"duration":0.04285700000000503,"midi":83,"time":44.228424,"velocity":0.3937007874015748},{"duration":0.042856999999997925,"midi":38,"time":44.271281,"velocity":0.3937007874015748},{"duration":0.042856999999997925,"midi":83,"time":44.314138,"velocity":0.3937007874015748},{"duration":0.04285700000000503,"midi":38,"time":44.356995,"velocity":0.3937007874015748},{"duration":0.042856999999997925,"midi":50,"time":44.399852,"velocity":0.3937007874015748},{"duration":0.042856999999997925,"midi":83,"time":44.399852,"velocity":0.3937007874015748},{"duration":0.042856999999997925,"midi":38,"time":44.442709,"velocity":0.3937007874015748},{"duration":0.042856999999997925,"midi":83,"time":44.485566,"velocity":0.3937007874015748},{"duration":0.04285700000000503,"midi":36,"time":44.528423,"velocity":0.3937007874015748},{"duration":0.042856999999997925,"midi":48,"time":44.57128,"velocity":0.3937007874015748},{"duration":0.042856999999997925,"midi":36,"time":44.614137,"velocity":0.3937007874015748},{"duration":0.042856999999997925,"midi":36,"time":44.699851,"velocity":0.3937007874015748},{"duration":0.042856999999997925,"midi":48,"time":44.742708,"velocity":0.3937007874015748},{"duration":0.042856999999997925,"midi":36,"time":44.785565,"velocity":0.3937007874015748},{"duration":0.042856999999997925,"midi":36,"time":44.871279,"velocity":0.3937007874015748},{"duration":0.042856999999997925,"midi":48,"time":44.914136,"velocity":0.3937007874015748},{"duration":0.04285700000000503,"midi":36,"time":44.956993,"velocity":0.3937007874015748},{"duration":0.042856999999997925,"midi":36,"time":45.042707,"velocity":0.3937007874015748},{"duration":0.042856999999997925,"midi":48,"time":45.085564,"velocity":0.3937007874015748},{"duration":0.04285700000000503,"midi":36,"time":45.128420999999996,"velocity":0.3937007874015748},{"duration":0.042856999999997925,"midi":36,"time":45.214135,"velocity":0.3937007874015748},{"duration":0.04285700000000503,"midi":48,"time":45.256992,"velocity":0.3937007874015748},{"duration":0.042856999999997925,"midi":36,"time":45.299849,"velocity":0.3937007874015748},{"duration":0.04285700000000503,"midi":36,"time":45.385563,"velocity":0.3937007874015748},{"duration":0.042856999999997925,"midi":48,"time":45.42842,"velocity":0.3937007874015748},{"duration":0.042856999999997925,"midi":36,"time":45.471277,"velocity":0.3937007874015748},{"duration":0.04285700000000503,"midi":36,"time":45.556991,"velocity":0.3937007874015748},{"duration":0.042856999999997925,"midi":48,"time":45.599848,"velocity":0.3937007874015748},{"duration":0.042856999999997925,"midi":36,"time":45.642705,"velocity":0.3937007874015748},{"duration":0.042856999999997925,"midi":36,"time":45.728419,"velocity":0.3937007874015748},{"duration":0.042856999999997925,"midi":48,"time":45.771276,"velocity":0.3937007874015748},{"duration":0.042856999999997925,"midi":36,"time":45.814133,"velocity":0.3937007874015748},{"duration":0.04285700000000503,"midi":58,"time":47.914125999999996,"velocity":0.3937007874015748},{"duration":0.04285700000000503,"midi":70,"time":47.914125999999996,"velocity":0.3937007874015748},{"duration":0.04285700000000503,"midi":64,"time":47.914125999999996,"velocity":0.3937007874015748},{"duration":0.042856999999997925,"midi":71,"time":47.956983,"velocity":0.3937007874015748},{"duration":0.042856999999997925,"midi":59,"time":47.956983,"velocity":0.3937007874015748},{"duration":0.042856999999997925,"midi":65,"time":47.956983,"velocity":0.3937007874015748},{"duration":0.042856999999997925,"midi":66,"time":47.99984,"velocity":0.3937007874015748},{"duration":0.042856999999997925,"midi":72,"time":47.99984,"velocity":0.3937007874015748},{"duration":0.042856999999997925,"midi":60,"time":47.99984,"velocity":0.3937007874015748},{"duration":0.04285700000000503,"midi":73,"time":48.042697,"velocity":0.3937007874015748},{"duration":0.04285700000000503,"midi":61,"time":48.042697,"velocity":0.3937007874015748},{"duration":0.04285700000000503,"midi":67,"time":48.042697,"velocity":0.3937007874015748},{"duration":0.042856999999997925,"midi":74,"time":48.085554,"velocity":0.3937007874015748},{"duration":0.042856999999997925,"midi":62,"time":48.085554,"velocity":0.3937007874015748},{"duration":0.042856999999997925,"midi":68,"time":48.085554,"velocity":0.3937007874015748},{"duration":0.042856999999997925,"midi":69,"time":48.128411,"velocity":0.3937007874015748},{"duration":0.042856999999997925,"midi":75,"time":48.128411,"velocity":0.3937007874015748},{"duration":0.042856999999997925,"midi":63,"time":48.128411,"velocity":0.3937007874015748},{"duration":0.042856999999997925,"midi":64,"time":48.171268,"velocity":0.3937007874015748},{"duration":0.042856999999997925,"midi":76,"time":48.171268,"velocity":0.3937007874015748},{"duration":0.042856999999997925,"midi":70,"time":48.171268,"velocity":0.3937007874015748},{"duration":0.04285700000000503,"midi":65,"time":48.214124999999996,"velocity":0.3937007874015748},{"duration":0.04285700000000503,"midi":71,"time":48.214124999999996,"velocity":0.3937007874015748},{"duration":0.04285700000000503,"midi":77,"time":48.214124999999996,"velocity":0.3937007874015748},{"duration":0.042856999999997925,"midi":72,"time":48.256982,"velocity":0.3937007874015748},{"duration":0.042856999999997925,"midi":78,"time":48.256982,"velocity":0.3937007874015748},{"duration":0.042856999999997925,"midi":66,"time":48.256982,"velocity":0.3937007874015748},{"duration":0.042856999999997925,"midi":67,"time":48.299839,"velocity":0.3937007874015748},{"duration":0.042856999999997925,"midi":79,"time":48.299839,"velocity":0.3937007874015748},{"duration":0.042856999999997925,"midi":73,"time":48.299839,"velocity":0.3937007874015748},{"duration":0.04285700000000503,"midi":74,"time":48.342696,"velocity":0.3937007874015748},{"duration":0.04285700000000503,"midi":68,"time":48.342696,"velocity":0.3937007874015748},{"duration":0.04285700000000503,"midi":80,"time":48.342696,"velocity":0.3937007874015748},{"duration":0.042856999999997925,"midi":75,"time":48.385553,"velocity":0.3937007874015748},{"duration":0.042856999999997925,"midi":69,"time":48.385553,"velocity":0.3937007874015748},{"duration":0.042856999999997925,"midi":81,"time":48.385553,"velocity":0.3937007874015748},{"duration":0.042856999999997925,"midi":76,"time":48.42841,"velocity":0.3937007874015748},{"duration":0.042856999999997925,"midi":82,"time":48.42841,"velocity":0.3937007874015748},{"duration":0.042856999999997925,"midi":70,"time":48.42841,"velocity":0.3937007874015748},{"duration":0.04285700000000503,"midi":83,"time":48.471267,"velocity":0.3937007874015748},{"duration":0.04285700000000503,"midi":71,"time":48.471267,"velocity":0.3937007874015748},{"duration":0.04285700000000503,"midi":77,"time":48.471267,"velocity":0.3937007874015748},{"duration":0.042856999999997925,"midi":58,"time":53.399822,"velocity":0.3937007874015748},{"duration":0.042856999999997925,"midi":70,"time":53.399822,"velocity":0.3937007874015748},{"duration":0.042856999999997925,"midi":64,"time":53.399822,"velocity":0.3937007874015748},{"duration":0.042856999999997925,"midi":71,"time":53.442679,"velocity":0.3937007874015748},{"duration":0.042856999999997925,"midi":59,"time":53.442679,"velocity":0.3937007874015748},{"duration":0.042856999999997925,"midi":65,"time":53.442679,"velocity":0.3937007874015748},{"duration":0.04285700000000503,"midi":66,"time":53.485535999999996,"velocity":0.3937007874015748},{"duration":0.04285700000000503,"midi":60,"time":53.485535999999996,"velocity":0.3937007874015748},{"duration":0.04285700000000503,"midi":72,"time":53.485535999999996,"velocity":0.3937007874015748},{"duration":0.042856999999997925,"midi":67,"time":53.528393,"velocity":0.3937007874015748},{"duration":0.042856999999997925,"midi":73,"time":53.528393,"velocity":0.3937007874015748},{"duration":0.042856999999997925,"midi":61,"time":53.528393,"velocity":0.3937007874015748},{"duration":0.042856999999997925,"midi":74,"time":53.57125,"velocity":0.3937007874015748},{"duration":0.042856999999997925,"midi":62,"time":53.57125,"velocity":0.3937007874015748},{"duration":0.042856999999997925,"midi":68,"time":53.57125,"velocity":0.3937007874015748},{"duration":0.04285700000000503,"midi":69,"time":53.614107,"velocity":0.3937007874015748},{"duration":0.04285700000000503,"midi":63,"time":53.614107,"velocity":0.3937007874015748},{"duration":0.04285700000000503,"midi":75,"time":53.614107,"velocity":0.3937007874015748},{"duration":0.042856999999997925,"midi":76,"time":53.656964,"velocity":0.3937007874015748},{"duration":0.042856999999997925,"midi":70,"time":53.656964,"velocity":0.3937007874015748},{"duration":0.042856999999997925,"midi":64,"time":53.656964,"velocity":0.3937007874015748},{"duration":0.042856999999997925,"midi":71,"time":53.699821,"velocity":0.3937007874015748},{"duration":0.042856999999997925,"midi":77,"time":53.699821,"velocity":0.3937007874015748},{"duration":0.042856999999997925,"midi":65,"time":53.699821,"velocity":0.3937007874015748},{"duration":0.042856999999997925,"midi":78,"time":53.742678,"velocity":0.3937007874015748},{"duration":0.042856999999997925,"midi":72,"time":53.742678,"velocity":0.3937007874015748},{"duration":0.042856999999997925,"midi":66,"time":53.742678,"velocity":0.3937007874015748},{"duration":0.04285700000000503,"midi":79,"time":53.785534999999996,"velocity":0.3937007874015748},{"duration":0.04285700000000503,"midi":73,"time":53.785534999999996,"velocity":0.3937007874015748},{"duration":0.04285700000000503,"midi":67,"time":53.785534999999996,"velocity":0.3937007874015748},{"duration":0.042856999999997925,"midi":80,"time":53.828392,"velocity":0.3937007874015748},{"duration":0.042856999999997925,"midi":74,"time":53.828392,"velocity":0.3937007874015748},{"duration":0.042856999999997925,"midi":68,"time":53.828392,"velocity":0.3937007874015748},{"duration":0.042856999999997925,"midi":69,"time":53.871249,"velocity":0.3937007874015748},{"duration":0.042856999999997925,"midi":75,"time":53.871249,"velocity":0.3937007874015748},{"duration":0.042856999999997925,"midi":81,"time":53.871249,"velocity":0.3937007874015748},{"duration":0.04285700000000503,"midi":76,"time":53.914106,"velocity":0.3937007874015748},{"duration":0.04285700000000503,"midi":70,"time":53.914106,"velocity":0.3937007874015748},{"duration":0.04285700000000503,"midi":82,"time":53.914106,"velocity":0.3937007874015748},{"duration":0.042856999999997925,"midi":71,"time":53.956963,"velocity":0.3937007874015748},{"duration":0.042856999999997925,"midi":83,"time":53.956963,"velocity":0.3937007874015748},{"duration":0.042856999999997925,"midi":77,"time":53.956963,"velocity":0.3937007874015748},{"duration":0.04285700000000503,"midi":36,"time":56.871238999999996,"velocity":0.3937007874015748},{"duration":0.042856999999997925,"midi":36,"time":56.956953,"velocity":0.3937007874015748},{"duration":0.042856999999997925,"midi":36,"time":57.042667,"velocity":0.3937007874015748},{"duration":0.04285700000000503,"midi":36,"time":57.128381,"velocity":0.3937007874015748},{"duration":0.042856999999997925,"midi":36,"time":57.214095,"velocity":0.3937007874015748},{"duration":0.04285700000000503,"midi":36,"time":57.299808999999996,"velocity":0.3937007874015748},{"duration":0.042856999999997925,"midi":36,"time":57.385523,"velocity":0.3937007874015748},{"duration":0.042856999999997925,"midi":36,"time":57.471237,"velocity":0.3937007874015748},{"duration":0.042856999999997925,"midi":36,"time":57.556951,"velocity":0.3937007874015748},{"duration":0.042856999999997925,"midi":36,"time":57.642665,"velocity":0.3937007874015748},{"duration":0.04285700000000503,"midi":36,"time":57.728379,"velocity":0.3937007874015748},{"duration":0.042856999999997925,"midi":36,"time":57.814093,"velocity":0.3937007874015748},{"duration":0.04285700000000503,"midi":36,"time":57.899806999999996,"velocity":0.3937007874015748},{"duration":0.042856999999997925,"midi":36,"time":57.985521,"velocity":0.3937007874015748},{"duration":0.042856999999997925,"midi":36,"time":58.071235,"velocity":0.3937007874015748},{"duration":0.04285700000000503,"midi":36,"time":58.156949,"velocity":0.3937007874015748},{"duration":0.042856999999997925,"midi":39,"time":58.242663,"velocity":0.3937007874015748},{"duration":0.04285700000000503,"midi":39,"time":58.328376999999996,"velocity":0.3937007874015748},{"duration":0.042856999999997925,"midi":39,"time":58.414091,"velocity":0.3937007874015748},{"duration":0.042856999999997925,"midi":39,"time":58.499805,"velocity":0.3937007874015748},{"duration":0.042856999999997925,"midi":39,"time":58.585519,"velocity":0.3937007874015748},{"duration":0.042856999999997925,"midi":39,"time":58.671233,"velocity":0.3937007874015748},{"duration":0.04285700000000503,"midi":39,"time":58.756947,"velocity":0.3937007874015748},{"duration":0.042856999999997925,"midi":39,"time":58.842661,"velocity":0.3937007874015748},{"duration":0.04285700000000503,"midi":39,"time":58.928374999999996,"velocity":0.3937007874015748},{"duration":0.042856999999997925,"midi":39,"time":59.014089,"velocity":0.3937007874015748},{"duration":0.042856999999997925,"midi":39,"time":59.099803,"velocity":0.3937007874015748},{"duration":0.04285700000000503,"midi":39,"time":59.185517,"velocity":0.3937007874015748},{"duration":0.042856999999997925,"midi":39,"time":59.271231,"velocity":0.3937007874015748},{"duration":0.04285700000000503,"midi":39,"time":59.356944999999996,"velocity":0.3937007874015748},{"duration":0.042856999999997925,"midi":39,"time":59.442659,"velocity":0.3937007874015748},{"duration":0.042856999999997925,"midi":39,"time":59.528373,"velocity":0.3937007874015748},{"duration":0.042856999999997925,"midi":38,"time":59.614087,"velocity":0.3937007874015748},{"duration":0.042856999999997925,"midi":38,"time":59.699801,"velocity":0.3937007874015748},{"duration":0.04285700000000503,"midi":38,"time":59.785515,"velocity":0.3937007874015748},{"duration":0.042856999999997925,"midi":38,"time":59.871229,"velocity":0.3937007874015748},{"duration":0.04285700000000503,"midi":38,"time":59.956942999999995,"velocity":0.3937007874015748},{"duration":0.042856999999997925,"midi":38,"time":60.042657,"velocity":0.3937007874015748},{"duration":0.042856999999997925,"midi":38,"time":60.128371,"velocity":0.3937007874015748},{"duration":0.04285700000000503,"midi":38,"time":60.214085,"velocity":0.3937007874015748},{"duration":0.042856999999997925,"midi":38,"time":60.299799,"velocity":0.3937007874015748},{"duration":0.04285700000000503,"midi":38,"time":60.385512999999996,"velocity":0.3937007874015748},{"duration":0.042856999999997925,"midi":38,"time":60.471227,"velocity":0.3937007874015748},{"duration":0.042856999999997925,"midi":38,"time":60.556941,"velocity":0.3937007874015748},{"duration":0.042856999999997925,"midi":38,"time":60.642655,"velocity":0.3937007874015748},{"duration":0.042856999999997925,"midi":38,"time":60.728369,"velocity":0.3937007874015748},{"duration":0.04285700000000503,"midi":38,"time":60.814083,"velocity":0.3937007874015748},{"duration":0.042856999999997925,"midi":38,"time":60.899797,"velocity":0.3937007874015748},{"duration":0.042856999999997925,"midi":43,"time":60.985511,"velocity":0.3937007874015748},{"duration":0.042856999999997925,"midi":43,"time":61.071225,"velocity":0.3937007874015748},{"duration":0.042856999999997925,"midi":43,"time":61.156939,"velocity":0.3937007874015748},{"duration":0.04285700000000503,"midi":43,"time":61.242653,"velocity":0.3937007874015748},{"duration":0.042856999999997925,"midi":41,"time":61.328367,"velocity":0.3937007874015748},{"duration":0.04285700000000503,"midi":41,"time":61.414080999999996,"velocity":0.3937007874015748},{"duration":0.042856999999997925,"midi":41,"time":61.499795,"velocity":0.3937007874015748},{"duration":0.042856999999997925,"midi":41,"time":61.585509,"velocity":0.3937007874015748},{"duration":0.042856999999997925,"midi":39,"time":61.671223,"velocity":0.3937007874015748},{"duration":0.042856999999997925,"midi":39,"time":61.756937,"velocity":0.3937007874015748},{"duration":0.04285700000000503,"midi":39,"time":61.842651,"velocity":0.3937007874015748},{"duration":0.042856999999997925,"midi":39,"time":61.928365,"velocity":0.3937007874015748},{"duration":0.042856999999997925,"midi":38,"time":62.014079,"velocity":0.3937007874015748},{"duration":0.042856999999997925,"midi":38,"time":62.099793,"velocity":0.3937007874015748},{"duration":0.042856999999997925,"midi":38,"time":62.185507,"velocity":0.3937007874015748},{"duration":0.04285700000000503,"midi":38,"time":62.271221,"velocity":0.3937007874015748},{"duration":0.042856999999997925,"midi":36,"time":62.356935,"velocity":0.3937007874015748},{"duration":0.04285700000000503,"midi":36,"time":62.442648999999996,"velocity":0.3937007874015748},{"duration":0.042856999999997925,"midi":36,"time":62.528363,"velocity":0.3937007874015748},{"duration":0.042856999999997925,"midi":36,"time":62.614077,"velocity":0.3937007874015748},{"duration":0.042856999999997925,"midi":36,"time":62.699791,"velocity":0.3937007874015748},{"duration":0.042856999999997925,"midi":36,"time":62.785505,"velocity":0.3937007874015748},{"duration":0.04285700000000503,"midi":36,"time":62.871218999999996,"velocity":0.3937007874015748},{"duration":0.042856999999997925,"midi":36,"time":62.956933,"velocity":0.3937007874015748},{"duration":0.042856999999997925,"midi":36,"time":63.042647,"velocity":0.3937007874015748},{"duration":0.042856999999997925,"midi":36,"time":63.128361,"velocity":0.3937007874015748},{"duration":0.042856999999997925,"midi":36,"time":63.214075,"velocity":0.3937007874015748},{"duration":0.04285700000000503,"midi":36,"time":63.299789,"velocity":0.3937007874015748},{"duration":0.042856999999997925,"midi":36,"time":63.385503,"velocity":0.3937007874015748},{"duration":0.04285700000000503,"midi":36,"time":63.471216999999996,"velocity":0.3937007874015748},{"duration":0.042856999999997925,"midi":36,"time":63.556931,"velocity":0.3937007874015748},{"duration":0.042856999999997925,"midi":36,"time":63.642645,"velocity":0.3937007874015748},{"duration":0.042856999999997925,"midi":39,"time":63.728359,"velocity":0.3937007874015748},{"duration":0.042856999999997925,"midi":39,"time":63.814073,"velocity":0.3937007874015748},{"duration":0.04285700000000503,"midi":39,"time":63.899786999999996,"velocity":0.3937007874015748},{"duration":0.042856999999997925,"midi":39,"time":63.985501,"velocity":0.3937007874015748},{"duration":0.042856999999997925,"midi":39,"time":64.071215,"velocity":0.3937007874015748},{"duration":0.042856999999997925,"midi":39,"time":64.156929,"velocity":0.3937007874015748},{"duration":0.042856999999997925,"midi":39,"time":64.242643,"velocity":0.3937007874015748},{"duration":0.042856999999997925,"midi":39,"time":64.328357,"velocity":0.3937007874015748},{"duration":0.042857000000012135,"midi":39,"time":64.41407099999999,"velocity":0.3937007874015748},{"duration":0.042856999999997925,"midi":39,"time":64.499785,"velocity":0.3937007874015748},{"duration":0.042856999999997925,"midi":39,"time":64.585499,"velocity":0.3937007874015748},{"duration":0.042856999999997925,"midi":39,"time":64.671213,"velocity":0.3937007874015748},{"duration":0.042856999999997925,"midi":39,"time":64.756927,"velocity":0.3937007874015748},{"duration":0.042856999999997925,"midi":39,"time":64.842641,"velocity":0.3937007874015748},{"duration":0.042856999999997925,"midi":39,"time":64.928355,"velocity":0.3937007874015748},{"duration":0.042857000000012135,"midi":39,"time":65.01406899999999,"velocity":0.3937007874015748},{"duration":0.042856999999997925,"midi":44,"time":65.099783,"velocity":0.3937007874015748},{"duration":0.042856999999997925,"midi":44,"time":65.185497,"velocity":0.3937007874015748},{"duration":0.042856999999997925,"midi":44,"time":65.271211,"velocity":0.3937007874015748},{"duration":0.042856999999997925,"midi":44,"time":65.356925,"velocity":0.3937007874015748},{"duration":0.042856999999997925,"midi":44,"time":65.442639,"velocity":0.3937007874015748},{"duration":0.042856999999997925,"midi":44,"time":65.528353,"velocity":0.3937007874015748},{"duration":0.042856999999997925,"midi":44,"time":65.614067,"velocity":0.3937007874015748},{"duration":0.042856999999997925,"midi":44,"time":65.699781,"velocity":0.3937007874015748},{"duration":0.042856999999997925,"midi":44,"time":65.785495,"velocity":0.3937007874015748},{"duration":0.042857000000012135,"midi":44,"time":65.871209,"velocity":0.3937007874015748},{"duration":0.042856999999997925,"midi":44,"time":65.956923,"velocity":0.3937007874015748},{"duration":0.042856999999997925,"midi":44,"time":66.042637,"velocity":0.3937007874015748},{"duration":0.042856999999997925,"midi":44,"time":66.128351,"velocity":0.3937007874015748},{"duration":0.042856999999997925,"midi":44,"time":66.214065,"velocity":0.3937007874015748},{"duration":0.042856999999997925,"midi":44,"time":66.299779,"velocity":0.3937007874015748},{"duration":0.042856999999997925,"midi":44,"time":66.385493,"velocity":0.3937007874015748},{"duration":0.042857000000012135,"midi":43,"time":66.47120699999999,"velocity":0.3937007874015748},{"duration":0.042856999999997925,"midi":43,"time":66.556921,"velocity":0.3937007874015748},{"duration":0.042856999999997925,"midi":43,"time":66.642635,"velocity":0.3937007874015748},{"duration":0.042856999999997925,"midi":43,"time":66.728349,"velocity":0.3937007874015748},{"duration":0.042856999999997925,"midi":43,"time":66.814063,"velocity":0.3937007874015748},{"duration":0.042856999999997925,"midi":43,"time":66.899777,"velocity":0.3937007874015748},{"duration":0.042856999999997925,"midi":43,"time":66.985491,"velocity":0.3937007874015748},{"duration":0.042857000000012135,"midi":43,"time":67.07120499999999,"velocity":0.3937007874015748},{"duration":0.042856999999997925,"midi":43,"time":67.156919,"velocity":0.3937007874015748},{"duration":0.042856999999997925,"midi":43,"time":67.242633,"velocity":0.3937007874015748},{"duration":0.042857000000012135,"midi":43,"time":67.328347,"velocity":0.3937007874015748},{"duration":0.042856999999997925,"midi":43,"time":67.414061,"velocity":0.3937007874015748},{"duration":0.042856999999997925,"midi":43,"time":67.499775,"velocity":0.3937007874015748},{"duration":0.042856999999997925,"midi":43,"time":67.585489,"velocity":0.3937007874015748},{"duration":0.042856999999997925,"midi":43,"time":67.671203,"velocity":0.3937007874015748},{"duration":0.042856999999997925,"midi":43,"time":67.756917,"velocity":0.3937007874015748},{"duration":0.042856999999997925,"midi":36,"time":67.842631,"velocity":0.3937007874015748},{"duration":0.042857000000012135,"midi":36,"time":67.928345,"velocity":0.3937007874015748},{"duration":0.042856999999997925,"midi":36,"time":68.014059,"velocity":0.3937007874015748},{"duration":0.042856999999997925,"midi":36,"time":68.099773,"velocity":0.3937007874015748},{"duration":0.042856999999997925,"midi":36,"time":68.185487,"velocity":0.3937007874015748},{"duration":0.042856999999997925,"midi":36,"time":68.271201,"velocity":0.3937007874015748},{"duration":0.042856999999997925,"midi":36,"time":68.356915,"velocity":0.3937007874015748},{"duration":0.042856999999997925,"midi":36,"time":68.442629,"velocity":0.3937007874015748},{"duration":0.042857000000012135,"midi":36,"time":68.52834299999999,"velocity":0.3937007874015748},{"duration":0.042856999999997925,"midi":36,"time":68.614057,"velocity":0.3937007874015748},{"duration":0.042856999999997925,"midi":36,"time":68.699771,"velocity":0.3937007874015748},{"duration":0.042856999999997925,"midi":36,"time":68.785485,"velocity":0.3937007874015748},{"duration":0.042856999999997925,"midi":36,"time":68.871199,"velocity":0.3937007874015748},{"duration":0.042856999999997925,"midi":36,"time":68.956913,"velocity":0.3937007874015748},{"duration":0.042856999999997925,"midi":36,"time":69.042627,"velocity":0.3937007874015748},{"duration":0.042857000000012135,"midi":36,"time":69.12834099999999,"velocity":0.3937007874015748},{"duration":0.042856999999997925,"midi":39,"time":69.214055,"velocity":0.3937007874015748},{"duration":0.042856999999997925,"midi":51,"time":69.214055,"velocity":0.3937007874015748},{"duration":0.042856999999997925,"midi":39,"time":69.299769,"velocity":0.3937007874015748},{"duration":0.042856999999997925,"midi":51,"time":69.299769,"velocity":0.3937007874015748},{"duration":0.042857000000012135,"midi":51,"time":69.385483,"velocity":0.3937007874015748},{"duration":0.042857000000012135,"midi":39,"time":69.385483,"velocity":0.3937007874015748},{"duration":0.042856999999997925,"midi":39,"time":69.471197,"velocity":0.3937007874015748},{"duration":0.042856999999997925,"midi":51,"time":69.471197,"velocity":0.3937007874015748},{"duration":0.042856999999997925,"midi":39,"time":69.556911,"velocity":0.3937007874015748},{"duration":0.042856999999997925,"midi":51,"time":69.556911,"velocity":0.3937007874015748},{"duration":0.042856999999997925,"midi":51,"time":69.642625,"velocity":0.3937007874015748},{"duration":0.042856999999997925,"midi":39,"time":69.642625,"velocity":0.3937007874015748},{"duration":0.042856999999997925,"midi":51,"time":69.728339,"velocity":0.3937007874015748},{"duration":0.042856999999997925,"midi":39,"time":69.728339,"velocity":0.3937007874015748},{"duration":0.042856999999997925,"midi":39,"time":69.814053,"velocity":0.3937007874015748},{"duration":0.042856999999997925,"midi":51,"time":69.814053,"velocity":0.3937007874015748},{"duration":0.042856999999997925,"midi":51,"time":69.899767,"velocity":0.3937007874015748},{"duration":0.042856999999997925,"midi":39,"time":69.899767,"velocity":0.3937007874015748},{"duration":0.042857000000012135,"midi":39,"time":69.985481,"velocity":0.3937007874015748},{"duration":0.042857000000012135,"midi":51,"time":69.985481,"velocity":0.3937007874015748},{"duration":0.042856999999997925,"midi":51,"time":70.071195,"velocity":0.3937007874015748},{"duration":0.042856999999997925,"midi":39,"time":70.071195,"velocity":0.3937007874015748},{"duration":0.042856999999997925,"midi":51,"time":70.156909,"velocity":0.3937007874015748},{"duration":0.042856999999997925,"midi":39,"time":70.156909,"velocity":0.3937007874015748},{"duration":0.042856999999997925,"midi":51,"time":70.242623,"velocity":0.3937007874015748},{"duration":0.042856999999997925,"midi":39,"time":70.242623,"velocity":0.3937007874015748},{"duration":0.042856999999997925,"midi":39,"time":70.328337,"velocity":0.3937007874015748},{"duration":0.042856999999997925,"midi":51,"time":70.328337,"velocity":0.3937007874015748},{"duration":0.042856999999997925,"midi":51,"time":70.414051,"velocity":0.3937007874015748},{"duration":0.042856999999997925,"midi":39,"time":70.414051,"velocity":0.3937007874015748},{"duration":0.042856999999997925,"midi":51,"time":70.499765,"velocity":0.3937007874015748},{"duration":0.042856999999997925,"midi":39,"time":70.499765,"velocity":0.3937007874015748},{"duration":0.042857000000012135,"midi":38,"time":70.58547899999999,"velocity":0.3937007874015748},{"duration":0.042857000000012135,"midi":50,"time":70.58547899999999,"velocity":0.3937007874015748},{"duration":0.042856999999997925,"midi":38,"time":70.671193,"velocity":0.3937007874015748},{"duration":0.042856999999997925,"midi":50,"time":70.671193,"velocity":0.3937007874015748},{"duration":0.042856999999997925,"midi":38,"time":70.756907,"velocity":0.3937007874015748},{"duration":0.042856999999997925,"midi":50,"time":70.756907,"velocity":0.3937007874015748},{"duration":0.042856999999997925,"midi":50,"time":70.842621,"velocity":0.3937007874015748},{"duration":0.042856999999997925,"midi":38,"time":70.842621,"velocity":0.3937007874015748},{"duration":0.042856999999997925,"midi":50,"time":70.928335,"velocity":0.3937007874015748},{"duration":0.042856999999997925,"midi":38,"time":70.928335,"velocity":0.3937007874015748},{"duration":0.042856999999997925,"midi":38,"time":71.014049,"velocity":0.3937007874015748},{"duration":0.042856999999997925,"midi":50,"time":71.014049,"velocity":0.3937007874015748},{"duration":0.042856999999997925,"midi":50,"time":71.099763,"velocity":0.3937007874015748},{"duration":0.042856999999997925,"midi":38,"time":71.099763,"velocity":0.3937007874015748},{"duration":0.042857000000012135,"midi":50,"time":71.18547699999999,"velocity":0.3937007874015748},{"duration":0.042857000000012135,"midi":38,"time":71.18547699999999,"velocity":0.3937007874015748},{"duration":0.042856999999997925,"midi":50,"time":71.271191,"velocity":0.3937007874015748},{"duration":0.042856999999997925,"midi":38,"time":71.271191,"velocity":0.3937007874015748},{"duration":0.042856999999997925,"midi":50,"time":71.356905,"velocity":0.3937007874015748},{"duration":0.042856999999997925,"midi":38,"time":71.356905,"velocity":0.3937007874015748},{"duration":0.042857000000012135,"midi":50,"time":71.442619,"velocity":0.3937007874015748},{"duration":0.042857000000012135,"midi":38,"time":71.442619,"velocity":0.3937007874015748},{"duration":0.042856999999997925,"midi":38,"time":71.528333,"velocity":0.3937007874015748},{"duration":0.042856999999997925,"midi":50,"time":71.528333,"velocity":0.3937007874015748},{"duration":0.042856999999997925,"midi":38,"time":71.614047,"velocity":0.3937007874015748},{"duration":0.042856999999997925,"midi":50,"time":71.614047,"velocity":0.3937007874015748},{"duration":0.042856999999997925,"midi":50,"time":71.699761,"velocity":0.3937007874015748},{"duration":0.042856999999997925,"midi":38,"time":71.699761,"velocity":0.3937007874015748},{"duration":0.042856999999997925,"midi":50,"time":71.785475,"velocity":0.3937007874015748},{"duration":0.042856999999997925,"midi":38,"time":71.785475,"velocity":0.3937007874015748},{"duration":0.042856999999997925,"midi":50,"time":71.871189,"velocity":0.3937007874015748},{"duration":0.042856999999997925,"midi":38,"time":71.871189,"velocity":0.3937007874015748},{"duration":0.042856999999997925,"midi":55,"time":71.956903,"velocity":0.3937007874015748},{"duration":0.042856999999997925,"midi":43,"time":71.956903,"velocity":0.3937007874015748},{"duration":0.042857000000012135,"midi":43,"time":72.04261699999999,"velocity":0.3937007874015748},{"duration":0.042857000000012135,"midi":55,"time":72.04261699999999,"velocity":0.3937007874015748},{"duration":0.042856999999997925,"midi":43,"time":72.128331,"velocity":0.3937007874015748},{"duration":0.042856999999997925,"midi":55,"time":72.128331,"velocity":0.3937007874015748},{"duration":0.042856999999997925,"midi":55,"time":72.214045,"velocity":0.3937007874015748},{"duration":0.042856999999997925,"midi":43,"time":72.214045,"velocity":0.3937007874015748},{"duration":0.042856999999997925,"midi":53,"time":72.299759,"velocity":0.3937007874015748},{"duration":0.042856999999997925,"midi":41,"time":72.299759,"velocity":0.3937007874015748},{"duration":0.042856999999997925,"midi":41,"time":72.385473,"velocity":0.3937007874015748},{"duration":0.042856999999997925,"midi":53,"time":72.385473,"velocity":0.3937007874015748},{"duration":0.042856999999997925,"midi":53,"time":72.471187,"velocity":0.3937007874015748},{"duration":0.042856999999997925,"midi":41,"time":72.471187,"velocity":0.3937007874015748},{"duration":0.042856999999997925,"midi":41,"time":72.556901,"velocity":0.3937007874015748},{"duration":0.042856999999997925,"midi":53,"time":72.556901,"velocity":0.3937007874015748},{"duration":0.042857000000012135,"midi":39,"time":72.64261499999999,"velocity":0.3937007874015748},{"duration":0.042857000000012135,"midi":51,"time":72.64261499999999,"velocity":0.3937007874015748},{"duration":0.042856999999997925,"midi":39,"time":72.728329,"velocity":0.3937007874015748},{"duration":0.042856999999997925,"midi":51,"time":72.728329,"velocity":0.3937007874015748},{"duration":0.042856999999997925,"midi":39,"time":72.814043,"velocity":0.3937007874015748},{"duration":0.042856999999997925,"midi":51,"time":72.814043,"velocity":0.3937007874015748},{"duration":0.042856999999997925,"midi":51,"time":72.899757,"velocity":0.3937007874015748},{"duration":0.042856999999997925,"midi":39,"time":72.899757,"velocity":0.3937007874015748},{"duration":0.042856999999997925,"midi":50,"time":72.985471,"velocity":0.3937007874015748},{"duration":0.042856999999997925,"midi":38,"time":72.985471,"velocity":0.3937007874015748},{"duration":0.042856999999997925,"midi":50,"time":73.071185,"velocity":0.3937007874015748},{"duration":0.042856999999997925,"midi":38,"time":73.071185,"velocity":0.3937007874015748},{"duration":0.042856999999997925,"midi":50,"time":73.156899,"velocity":0.3937007874015748},{"duration":0.042856999999997925,"midi":38,"time":73.156899,"velocity":0.3937007874015748},{"duration":0.042856999999997925,"midi":38,"time":73.242613,"velocity":0.3937007874015748},{"duration":0.042856999999997925,"midi":50,"time":73.242613,"velocity":0.3937007874015748},{"duration":0.042856999999997925,"midi":36,"time":73.328327,"velocity":0.3937007874015748},{"duration":0.042856999999997925,"midi":36,"time":73.414041,"velocity":0.3937007874015748},{"duration":0.042857000000012135,"midi":36,"time":73.499755,"velocity":0.3937007874015748},{"duration":0.042856999999997925,"midi":36,"time":73.585469,"velocity":0.3937007874015748},{"duration":0.042856999999997925,"midi":36,"time":73.671183,"velocity":0.3937007874015748},{"duration":0.042856999999997925,"midi":36,"time":73.756897,"velocity":0.3937007874015748},{"duration":0.042856999999997925,"midi":36,"time":73.842611,"velocity":0.3937007874015748},{"duration":0.042856999999997925,"midi":36,"time":73.928325,"velocity":0.3937007874015748},{"duration":0.042856999999997925,"midi":36,"time":74.014039,"velocity":0.3937007874015748},{"duration":0.042857000000012135,"midi":36,"time":74.09975299999999,"velocity":0.3937007874015748},{"duration":0.042856999999997925,"midi":36,"time":74.185467,"velocity":0.3937007874015748},{"duration":0.042856999999997925,"midi":36,"time":74.271181,"velocity":0.3937007874015748},{"duration":0.042856999999997925,"midi":36,"time":74.356895,"velocity":0.3937007874015748},{"duration":0.042856999999997925,"midi":36,"time":74.442609,"velocity":0.3937007874015748},{"duration":0.042856999999997925,"midi":36,"time":74.528323,"velocity":0.3937007874015748},{"duration":0.042856999999997925,"midi":36,"time":74.614037,"velocity":0.3937007874015748},{"duration":0.042857000000012135,"midi":51,"time":74.69975099999999,"velocity":0.3937007874015748},{"duration":0.042857000000012135,"midi":39,"time":74.69975099999999,"velocity":0.3937007874015748},{"duration":0.042856999999997925,"midi":51,"time":74.785465,"velocity":0.3937007874015748},{"duration":0.042856999999997925,"midi":39,"time":74.785465,"velocity":0.3937007874015748},{"duration":0.042856999999997925,"midi":51,"time":74.871179,"velocity":0.3937007874015748},{"duration":0.042856999999997925,"midi":39,"time":74.871179,"velocity":0.3937007874015748},{"duration":0.042856999999997925,"midi":39,"time":74.956893,"velocity":0.3937007874015748},{"duration":0.042856999999997925,"midi":51,"time":74.956893,"velocity":0.3937007874015748},{"duration":0.042856999999997925,"midi":39,"time":75.042607,"velocity":0.3937007874015748},{"duration":0.042856999999997925,"midi":51,"time":75.042607,"velocity":0.3937007874015748},{"duration":0.042856999999997925,"midi":39,"time":75.128321,"velocity":0.3937007874015748},{"duration":0.042856999999997925,"midi":51,"time":75.128321,"velocity":0.3937007874015748},{"duration":0.042856999999997925,"midi":39,"time":75.214035,"velocity":0.3937007874015748},{"duration":0.042856999999997925,"midi":51,"time":75.214035,"velocity":0.3937007874015748},{"duration":0.042856999999997925,"midi":39,"time":75.299749,"velocity":0.3937007874015748},{"duration":0.042856999999997925,"midi":51,"time":75.299749,"velocity":0.3937007874015748},{"duration":0.042856999999997925,"midi":39,"time":75.385463,"velocity":0.3937007874015748},{"duration":0.042856999999997925,"midi":51,"time":75.385463,"velocity":0.3937007874015748},{"duration":0.042856999999997925,"midi":51,"time":75.471177,"velocity":0.3937007874015748},{"duration":0.042856999999997925,"midi":39,"time":75.471177,"velocity":0.3937007874015748},{"duration":0.042857000000012135,"midi":51,"time":75.556891,"velocity":0.3937007874015748},{"duration":0.042857000000012135,"midi":39,"time":75.556891,"velocity":0.3937007874015748},{"duration":0.042856999999997925,"midi":51,"time":75.642605,"velocity":0.3937007874015748},{"duration":0.042856999999997925,"midi":39,"time":75.642605,"velocity":0.3937007874015748},{"duration":0.042856999999997925,"midi":39,"time":75.728319,"velocity":0.3937007874015748},{"duration":0.042856999999997925,"midi":51,"time":75.728319,"velocity":0.3937007874015748},{"duration":0.042856999999997925,"midi":39,"time":75.814033,"velocity":0.3937007874015748},{"duration":0.042856999999997925,"midi":51,"time":75.814033,"velocity":0.3937007874015748},{"duration":0.042856999999997925,"midi":51,"time":75.899747,"velocity":0.3937007874015748},{"duration":0.042856999999997925,"midi":39,"time":75.899747,"velocity":0.3937007874015748},{"duration":0.042856999999997925,"midi":39,"time":75.985461,"velocity":0.3937007874015748},{"duration":0.042856999999997925,"midi":51,"time":75.985461,"velocity":0.3937007874015748},{"duration":0.042856999999997925,"midi":44,"time":76.071175,"velocity":0.3937007874015748},{"duration":0.042856999999997925,"midi":56,"time":76.071175,"velocity":0.3937007874015748},{"duration":0.042857000000012135,"midi":44,"time":76.15688899999999,"velocity":0.3937007874015748},{"duration":0.042857000000012135,"midi":56,"time":76.15688899999999,"velocity":0.3937007874015748},{"duration":0.042856999999997925,"midi":44,"time":76.242603,"velocity":0.3937007874015748},{"duration":0.042856999999997925,"midi":56,"time":76.242603,"velocity":0.3937007874015748},{"duration":0.042856999999997925,"midi":56,"time":76.328317,"velocity":0.3937007874015748},{"duration":0.042856999999997925,"midi":44,"time":76.328317,"velocity":0.3937007874015748},{"duration":0.042856999999997925,"midi":44,"time":76.414031,"velocity":0.3937007874015748},{"duration":0.042856999999997925,"midi":56,"time":76.414031,"velocity":0.3937007874015748},{"duration":0.042856999999997925,"midi":56,"time":76.499745,"velocity":0.3937007874015748},{"duration":0.042856999999997925,"midi":44,"time":76.499745,"velocity":0.3937007874015748},{"duration":0.042856999999997925,"midi":56,"time":76.585459,"velocity":0.3937007874015748},{"duration":0.042856999999997925,"midi":44,"time":76.585459,"velocity":0.3937007874015748},{"duration":0.042856999999997925,"midi":56,"time":76.671173,"velocity":0.3937007874015748},{"duration":0.042856999999997925,"midi":44,"time":76.671173,"velocity":0.3937007874015748},{"duration":0.042857000000012135,"midi":44,"time":76.75688699999999,"velocity":0.3937007874015748},{"duration":0.042857000000012135,"midi":56,"time":76.75688699999999,"velocity":0.3937007874015748},{"duration":0.042856999999997925,"midi":56,"time":76.842601,"velocity":0.3937007874015748},{"duration":0.042856999999997925,"midi":44,"time":76.842601,"velocity":0.3937007874015748},{"duration":0.042856999999997925,"midi":56,"time":76.928315,"velocity":0.3937007874015748},{"duration":0.042856999999997925,"midi":44,"time":76.928315,"velocity":0.3937007874015748},{"duration":0.042857000000012135,"midi":56,"time":77.014029,"velocity":0.3937007874015748},{"duration":0.042857000000012135,"midi":44,"time":77.014029,"velocity":0.3937007874015748},{"duration":0.042856999999997925,"midi":44,"time":77.099743,"velocity":0.3937007874015748},{"duration":0.042856999999997925,"midi":56,"time":77.099743,"velocity":0.3937007874015748},{"duration":0.042856999999997925,"midi":44,"time":77.185457,"velocity":0.3937007874015748},{"duration":0.042856999999997925,"midi":56,"time":77.185457,"velocity":0.3937007874015748},{"duration":0.042856999999997925,"midi":56,"time":77.271171,"velocity":0.3937007874015748},{"duration":0.042856999999997925,"midi":44,"time":77.271171,"velocity":0.3937007874015748},{"duration":0.042856999999997925,"midi":56,"time":77.356885,"velocity":0.3937007874015748},{"duration":0.042856999999997925,"midi":44,"time":77.356885,"velocity":0.3937007874015748},{"duration":0.042856999999997925,"midi":55,"time":77.442599,"velocity":0.3937007874015748},{"duration":0.042856999999997925,"midi":43,"time":77.442599,"velocity":0.3937007874015748},{"duration":0.042856999999997925,"midi":43,"time":77.528313,"velocity":0.3937007874015748},{"duration":0.042856999999997925,"midi":55,"time":77.528313,"velocity":0.3937007874015748},{"duration":0.042857000000012135,"midi":43,"time":77.614027,"velocity":0.3937007874015748},{"duration":0.042857000000012135,"midi":55,"time":77.614027,"velocity":0.3937007874015748},{"duration":0.042856999999997925,"midi":55,"time":77.699741,"velocity":0.3937007874015748},{"duration":0.042856999999997925,"midi":43,"time":77.699741,"velocity":0.3937007874015748},{"duration":0.042856999999997925,"midi":55,"time":77.785455,"velocity":0.3937007874015748},{"duration":0.042856999999997925,"midi":43,"time":77.785455,"velocity":0.3937007874015748},{"duration":0.042856999999997925,"midi":55,"time":77.871169,"velocity":0.3937007874015748},{"duration":0.042856999999997925,"midi":43,"time":77.871169,"velocity":0.3937007874015748},{"duration":0.042856999999997925,"midi":43,"time":77.956883,"velocity":0.3937007874015748},{"duration":0.042856999999997925,"midi":55,"time":77.956883,"velocity":0.3937007874015748},{"duration":0.042856999999997925,"midi":55,"time":78.042597,"velocity":0.3937007874015748},{"duration":0.042856999999997925,"midi":43,"time":78.042597,"velocity":0.3937007874015748},{"duration":0.042856999999997925,"midi":55,"time":78.128311,"velocity":0.3937007874015748},{"duration":0.042856999999997925,"midi":43,"time":78.128311,"velocity":0.3937007874015748},{"duration":0.042857000000012135,"midi":55,"time":78.21402499999999,"velocity":0.3937007874015748},{"duration":0.042857000000012135,"midi":43,"time":78.21402499999999,"velocity":0.3937007874015748},{"duration":0.042856999999997925,"midi":55,"time":78.299739,"velocity":0.3937007874015748},{"duration":0.042856999999997925,"midi":43,"time":78.299739,"velocity":0.3937007874015748},{"duration":0.042856999999997925,"midi":43,"time":78.385453,"velocity":0.3937007874015748},{"duration":0.042856999999997925,"midi":55,"time":78.385453,"velocity":0.3937007874015748},{"duration":0.042856999999997925,"midi":43,"time":78.471167,"velocity":0.3937007874015748},{"duration":0.042856999999997925,"midi":55,"time":78.471167,"velocity":0.3937007874015748},{"duration":0.042856999999997925,"midi":43,"time":78.556881,"velocity":0.3937007874015748},{"duration":0.042856999999997925,"midi":55,"time":78.556881,"velocity":0.3937007874015748},{"duration":0.042856999999997925,"midi":43,"time":78.642595,"velocity":0.3937007874015748},{"duration":0.042856999999997925,"midi":55,"time":78.642595,"velocity":0.3937007874015748},{"duration":0.042856999999997925,"midi":43,"time":78.728309,"velocity":0.3937007874015748},{"duration":0.042856999999997925,"midi":55,"time":78.728309,"velocity":0.3937007874015748},{"duration":0.042857000000012135,"midi":53,"time":78.81402299999999,"velocity":0.3937007874015748},{"duration":0.042856999999997925,"midi":53,"time":78.899737,"velocity":0.3937007874015748},{"duration":0.042856999999997925,"midi":53,"time":78.985451,"velocity":0.3937007874015748},{"duration":0.042857000000012135,"midi":53,"time":79.071165,"velocity":0.3937007874015748},{"duration":0.042856999999997925,"midi":53,"time":79.156879,"velocity":0.3937007874015748},{"duration":0.042856999999997925,"midi":53,"time":79.242593,"velocity":0.3937007874015748},{"duration":0.042856999999997925,"midi":53,"time":79.328307,"velocity":0.3937007874015748},{"duration":0.042856999999997925,"midi":53,"time":79.414021,"velocity":0.3937007874015748},{"duration":0.042856999999997925,"midi":53,"time":79.499735,"velocity":0.3937007874015748},{"duration":0.042856999999997925,"midi":53,"time":79.585449,"velocity":0.3937007874015748},{"duration":0.042857000000012135,"midi":53,"time":79.67116299999999,"velocity":0.3937007874015748},{"duration":0.042856999999997925,"midi":53,"time":79.756877,"velocity":0.3937007874015748},{"duration":0.042856999999997925,"midi":53,"time":79.842591,"velocity":0.3937007874015748},{"duration":0.042856999999997925,"midi":53,"time":79.928305,"velocity":0.3937007874015748},{"duration":0.042856999999997925,"midi":53,"time":80.014019,"velocity":0.3937007874015748},{"duration":0.042856999999997925,"midi":53,"time":80.099733,"velocity":0.3937007874015748},{"duration":0.042856999999997925,"midi":53,"time":80.185447,"velocity":0.3937007874015748},{"duration":0.042857000000012135,"midi":53,"time":80.27116099999999,"velocity":0.3937007874015748},{"duration":0.042856999999997925,"midi":53,"time":80.356875,"velocity":0.3937007874015748},{"duration":0.042856999999997925,"midi":53,"time":80.442589,"velocity":0.3937007874015748},{"duration":0.042856999999997925,"midi":53,"time":80.528303,"velocity":0.3937007874015748},{"duration":0.042856999999997925,"midi":53,"time":80.614017,"velocity":0.3937007874015748},{"duration":0.042856999999997925,"midi":53,"time":80.699731,"velocity":0.3937007874015748},{"duration":0.042856999999997925,"midi":53,"time":80.785445,"velocity":0.3937007874015748},{"duration":0.042857000000012135,"midi":53,"time":80.87115899999999,"velocity":0.3937007874015748},{"duration":0.042856999999997925,"midi":53,"time":80.956873,"velocity":0.3937007874015748},{"duration":0.042856999999997925,"midi":53,"time":81.042587,"velocity":0.3937007874015748},{"duration":0.042857000000012135,"midi":53,"time":81.128301,"velocity":0.3937007874015748},{"duration":0.042856999999997925,"midi":53,"time":81.214015,"velocity":0.3937007874015748},{"duration":0.042856999999997925,"midi":53,"time":81.299729,"velocity":0.3937007874015748},{"duration":0.042856999999997925,"midi":53,"time":81.385443,"velocity":0.3937007874015748},{"duration":0.042856999999997925,"midi":53,"time":81.471157,"velocity":0.3937007874015748},{"duration":0.042856999999997925,"midi":51,"time":81.556871,"velocity":0.3937007874015748},{"duration":0.042856999999997925,"midi":51,"time":81.642585,"velocity":0.3937007874015748},{"duration":0.042857000000012135,"midi":51,"time":81.72829899999999,"velocity":0.3937007874015748},{"duration":0.042856999999997925,"midi":51,"time":81.814013,"velocity":0.3937007874015748},{"duration":0.042856999999997925,"midi":51,"time":81.899727,"velocity":0.3937007874015748},{"duration":0.042856999999997925,"midi":51,"time":81.985441,"velocity":0.3937007874015748},{"duration":0.042856999999997925,"midi":51,"time":82.071155,"velocity":0.3937007874015748},{"duration":0.042856999999997925,"midi":51,"time":82.156869,"velocity":0.3937007874015748},{"duration":0.042856999999997925,"midi":51,"time":82.242583,"velocity":0.3937007874015748},{"duration":0.042857000000012135,"midi":51,"time":82.32829699999999,"velocity":0.3937007874015748},{"duration":0.042856999999997925,"midi":51,"time":82.414011,"velocity":0.3937007874015748},{"duration":0.042856999999997925,"midi":51,"time":82.499725,"velocity":0.3937007874015748},{"duration":0.042856999999997925,"midi":51,"time":82.585439,"velocity":0.3937007874015748},{"duration":0.042856999999997925,"midi":51,"time":82.671153,"velocity":0.3937007874015748},{"duration":0.042856999999997925,"midi":51,"time":82.756867,"velocity":0.3937007874015748},{"duration":0.042856999999997925,"midi":51,"time":82.842581,"velocity":0.3937007874015748},{"duration":0.042856999999997925,"midi":51,"time":82.928295,"velocity":0.3937007874015748},{"duration":0.042856999999997925,"midi":51,"time":83.014009,"velocity":0.3937007874015748},{"duration":0.042856999999997925,"midi":51,"time":83.099723,"velocity":0.3937007874015748},{"duration":0.042857000000012135,"midi":51,"time":83.185437,"velocity":0.3937007874015748},{"duration":0.042856999999997925,"midi":51,"time":83.271151,"velocity":0.3937007874015748},{"duration":0.042856999999997925,"midi":51,"time":83.356865,"velocity":0.3937007874015748},{"duration":0.042856999999997925,"midi":51,"time":83.442579,"velocity":0.3937007874015748},{"duration":0.042856999999997925,"midi":51,"time":83.528293,"velocity":0.3937007874015748},{"duration":0.042856999999997925,"midi":51,"time":83.614007,"velocity":0.3937007874015748},{"duration":0.042856999999997925,"midi":51,"time":83.699721,"velocity":0.3937007874015748},{"duration":0.042857000000012135,"midi":51,"time":83.78543499999999,"velocity":0.3937007874015748},{"duration":0.042856999999997925,"midi":51,"time":83.871149,"velocity":0.3937007874015748},{"duration":0.042856999999997925,"midi":51,"time":83.956863,"velocity":0.3937007874015748},{"duration":0.042856999999997925,"midi":51,"time":84.042577,"velocity":0.3937007874015748},{"duration":0.042856999999997925,"midi":51,"time":84.128291,"velocity":0.3937007874015748},{"duration":0.042856999999997925,"midi":51,"time":84.214005,"velocity":0.3937007874015748},{"duration":0.042856999999997925,"midi":53,"time":84.299719,"velocity":0.3937007874015748},{"duration":0.042857000000012135,"midi":53,"time":84.38543299999999,"velocity":0.3937007874015748},{"duration":0.042856999999997925,"midi":53,"time":84.471147,"velocity":0.3937007874015748},{"duration":0.042856999999997925,"midi":53,"time":84.556861,"velocity":0.3937007874015748},{"duration":0.042856999999997925,"midi":53,"time":84.642575,"velocity":0.3937007874015748},{"duration":0.042856999999997925,"midi":53,"time":84.728289,"velocity":0.3937007874015748},{"duration":0.042856999999997925,"midi":53,"time":84.814003,"velocity":0.3937007874015748},{"duration":0.042856999999997925,"midi":53,"time":84.899717,"velocity":0.3937007874015748},{"duration":0.042856999999997925,"midi":53,"time":84.985431,"velocity":0.3937007874015748},{"duration":0.042856999999997925,"midi":53,"time":85.071145,"velocity":0.3937007874015748},{"duration":0.042856999999997925,"midi":53,"time":85.156859,"velocity":0.3937007874015748},{"duration":0.042857000000012135,"midi":53,"time":85.242573,"velocity":0.3937007874015748},{"duration":0.042856999999997925,"midi":53,"time":85.328287,"velocity":0.3937007874015748},{"duration":0.042856999999997925,"midi":53,"time":85.414001,"velocity":0.3937007874015748},{"duration":0.042856999999997925,"midi":53,"time":85.499715,"velocity":0.3937007874015748},{"duration":0.042856999999997925,"midi":53,"time":85.585429,"velocity":0.3937007874015748},{"duration":0.042856999999997925,"midi":53,"time":85.671143,"velocity":0.3937007874015748},{"duration":0.042856999999997925,"midi":53,"time":85.756857,"velocity":0.3937007874015748},{"duration":0.042857000000012135,"midi":53,"time":85.84257099999999,"velocity":0.3937007874015748},{"duration":0.042856999999997925,"midi":53,"time":85.928285,"velocity":0.3937007874015748},{"duration":0.042856999999997925,"midi":53,"time":86.013999,"velocity":0.3937007874015748},{"duration":0.042856999999997925,"midi":53,"time":86.099713,"velocity":0.3937007874015748},{"duration":0.042856999999997925,"midi":53,"time":86.185427,"velocity":0.3937007874015748},{"duration":0.042856999999997925,"midi":53,"time":86.271141,"velocity":0.3937007874015748},{"duration":0.042856999999997925,"midi":53,"time":86.356855,"velocity":0.3937007874015748},{"duration":0.042857000000012135,"midi":53,"time":86.44256899999999,"velocity":0.3937007874015748},{"duration":0.042856999999997925,"midi":53,"time":86.528283,"velocity":0.3937007874015748},{"duration":0.042856999999997925,"midi":53,"time":86.613997,"velocity":0.3937007874015748},{"duration":0.042856999999997925,"midi":53,"time":86.699711,"velocity":0.3937007874015748},{"duration":0.042856999999997925,"midi":53,"time":86.785425,"velocity":0.3937007874015748},{"duration":0.042856999999997925,"midi":53,"time":86.871139,"velocity":0.3937007874015748},{"duration":0.042856999999997925,"midi":53,"time":86.956853,"velocity":0.3937007874015748},{"duration":0.042856999999997925,"midi":51,"time":87.042567,"velocity":0.3937007874015748},{"duration":0.042856999999997925,"midi":51,"time":87.128281,"velocity":0.3937007874015748},{"duration":0.042856999999997925,"midi":51,"time":87.213995,"velocity":0.3937007874015748},{"duration":0.042857000000012135,"midi":51,"time":87.299709,"velocity":0.3937007874015748},{"duration":0.042856999999997925,"midi":51,"time":87.385423,"velocity":0.3937007874015748},{"duration":0.042856999999997925,"midi":51,"time":87.471137,"velocity":0.3937007874015748},{"duration":0.042856999999997925,"midi":51,"time":87.556851,"velocity":0.3937007874015748},{"duration":0.042856999999997925,"midi":51,"time":87.642565,"velocity":0.3937007874015748},{"duration":0.042856999999997925,"midi":51,"time":87.728279,"velocity":0.3937007874015748},{"duration":0.042856999999997925,"midi":51,"time":87.813993,"velocity":0.3937007874015748},{"duration":0.042857000000012135,"midi":51,"time":87.89970699999999,"velocity":0.3937007874015748},{"duration":0.042856999999997925,"midi":51,"time":87.985421,"velocity":0.3937007874015748},{"duration":0.042856999999997925,"midi":51,"time":88.071135,"velocity":0.3937007874015748},{"duration":0.042856999999997925,"midi":51,"time":88.156849,"velocity":0.3937007874015748},{"duration":0.042856999999997925,"midi":51,"time":88.242563,"velocity":0.3937007874015748},{"duration":0.042856999999997925,"midi":51,"time":88.328277,"velocity":0.3937007874015748},{"duration":0.042856999999997925,"midi":51,"time":88.413991,"velocity":0.3937007874015748},{"duration":0.042857000000012135,"midi":51,"time":88.49970499999999,"velocity":0.3937007874015748},{"duration":0.042856999999997925,"midi":51,"time":88.585419,"velocity":0.3937007874015748},{"duration":0.042856999999997925,"midi":51,"time":88.671133,"velocity":0.3937007874015748},{"duration":0.042857000000012135,"midi":51,"time":88.756847,"velocity":0.3937007874015748},{"duration":0.042856999999997925,"midi":51,"time":88.842561,"velocity":0.3937007874015748},{"duration":0.042856999999997925,"midi":51,"time":88.928275,"velocity":0.3937007874015748},{"duration":0.042856999999997925,"midi":51,"time":89.013989,"velocity":0.3937007874015748},{"duration":0.042856999999997925,"midi":51,"time":89.099703,"velocity":0.3937007874015748},{"duration":0.042856999999997925,"midi":51,"time":89.185417,"velocity":0.3937007874015748},{"duration":0.042856999999997925,"midi":51,"time":89.271131,"velocity":0.3937007874015748},{"duration":0.042857000000012135,"midi":51,"time":89.35684499999999,"velocity":0.3937007874015748},{"duration":0.042856999999997925,"midi":51,"time":89.442559,"velocity":0.3937007874015748},{"duration":0.042856999999997925,"midi":51,"time":89.528273,"velocity":0.3937007874015748},{"duration":0.042856999999997925,"midi":51,"time":89.613987,"velocity":0.3937007874015748},{"duration":0.042856999999997925,"midi":51,"time":89.699701,"velocity":0.3937007874015748},{"duration":0.042856999999997925,"midi":53,"time":89.785415,"velocity":0.3937007874015748},{"duration":0.042856999999997925,"midi":53,"time":89.871129,"velocity":0.3937007874015748},{"duration":0.042857000000012135,"midi":53,"time":89.95684299999999,"velocity":0.3937007874015748},{"duration":0.042856999999997925,"midi":53,"time":90.042557,"velocity":0.3937007874015748},{"duration":0.042856999999997925,"midi":53,"time":90.128271,"velocity":0.3937007874015748},{"duration":0.042856999999997925,"midi":53,"time":90.213985,"velocity":0.3937007874015748},{"duration":0.042856999999997925,"midi":53,"time":90.299699,"velocity":0.3937007874015748},{"duration":0.042856999999997925,"midi":53,"time":90.385413,"velocity":0.3937007874015748},{"duration":0.042856999999997925,"midi":53,"time":90.471127,"velocity":0.3937007874015748},{"duration":0.042857000000012135,"midi":53,"time":90.55684099999999,"velocity":0.3937007874015748},{"duration":0.042856999999997925,"midi":53,"time":90.642555,"velocity":0.3937007874015748},{"duration":0.042856999999997925,"midi":53,"time":90.728269,"velocity":0.3937007874015748},{"duration":0.042857000000012135,"midi":53,"time":90.813983,"velocity":0.3937007874015748},{"duration":0.042856999999997925,"midi":53,"time":90.899697,"velocity":0.3937007874015748},{"duration":0.042856999999997925,"midi":53,"time":90.985411,"velocity":0.3937007874015748},{"duration":0.042856999999997925,"midi":53,"time":91.071125,"velocity":0.3937007874015748},{"duration":0.042856999999997925,"midi":53,"time":91.156839,"velocity":0.3937007874015748},{"duration":0.042856999999997925,"midi":53,"time":91.242553,"velocity":0.3937007874015748},{"duration":0.042856999999997925,"midi":53,"time":91.328267,"velocity":0.3937007874015748},{"duration":0.042857000000012135,"midi":53,"time":91.41398099999999,"velocity":0.3937007874015748},{"duration":0.042856999999997925,"midi":53,"time":91.499695,"velocity":0.3937007874015748},{"duration":0.042856999999997925,"midi":53,"time":91.585409,"velocity":0.3937007874015748},{"duration":0.042856999999997925,"midi":53,"time":91.671123,"velocity":0.3937007874015748},{"duration":0.042856999999997925,"midi":53,"time":91.756837,"velocity":0.3937007874015748},{"duration":0.042856999999997925,"midi":53,"time":91.842551,"velocity":0.3937007874015748},{"duration":0.042856999999997925,"midi":53,"time":91.928265,"velocity":0.3937007874015748},{"duration":0.042857000000012135,"midi":53,"time":92.01397899999999,"velocity":0.3937007874015748},{"duration":0.042856999999997925,"midi":53,"time":92.099693,"velocity":0.3937007874015748},{"duration":0.042856999999997925,"midi":53,"time":92.185407,"velocity":0.3937007874015748},{"duration":0.042856999999997925,"midi":53,"time":92.271121,"velocity":0.3937007874015748},{"duration":0.042856999999997925,"midi":53,"time":92.356835,"velocity":0.3937007874015748},{"duration":0.042856999999997925,"midi":53,"time":92.442549,"velocity":0.3937007874015748},{"duration":0.042856999999997925,"midi":51,"time":92.528263,"velocity":0.3937007874015748},{"duration":0.042857000000012135,"midi":51,"time":92.61397699999999,"velocity":0.3937007874015748},{"duration":0.042856999999997925,"midi":51,"time":92.699691,"velocity":0.3937007874015748},{"duration":0.042856999999997925,"midi":51,"time":92.785405,"velocity":0.3937007874015748},{"duration":0.042857000000012135,"midi":51,"time":92.871119,"velocity":0.3937007874015748},{"duration":0.042856999999997925,"midi":51,"time":92.956833,"velocity":0.3937007874015748},{"duration":0.042856999999997925,"midi":51,"time":93.042547,"velocity":0.3937007874015748},{"duration":0.042856999999997925,"midi":51,"time":93.128261,"velocity":0.3937007874015748},{"duration":0.042856999999997925,"midi":51,"time":93.213975,"velocity":0.3937007874015748},{"duration":0.042856999999997925,"midi":51,"time":93.299689,"velocity":0.3937007874015748},{"duration":0.042856999999997925,"midi":51,"time":93.385403,"velocity":0.3937007874015748},{"duration":0.042857000000012135,"midi":51,"time":93.47111699999999,"velocity":0.3937007874015748},{"duration":0.042856999999997925,"midi":51,"time":93.556831,"velocity":0.3937007874015748},{"duration":0.042856999999997925,"midi":51,"time":93.642545,"velocity":0.3937007874015748},{"duration":0.042856999999997925,"midi":51,"time":93.728259,"velocity":0.3937007874015748},{"duration":0.042856999999997925,"midi":51,"time":93.813973,"velocity":0.3937007874015748},{"duration":0.042856999999997925,"midi":51,"time":93.899687,"velocity":0.3937007874015748},{"duration":0.042856999999997925,"midi":51,"time":93.985401,"velocity":0.3937007874015748},{"duration":0.042857000000012135,"midi":51,"time":94.07111499999999,"velocity":0.3937007874015748},{"duration":0.042856999999997925,"midi":51,"time":94.156829,"velocity":0.3937007874015748},{"duration":0.042856999999997925,"midi":51,"time":94.242543,"velocity":0.3937007874015748},{"duration":0.042856999999997925,"midi":51,"time":94.328257,"velocity":0.3937007874015748},{"duration":0.042856999999997925,"midi":51,"time":94.413971,"velocity":0.3937007874015748},{"duration":0.042856999999997925,"midi":51,"time":94.499685,"velocity":0.3937007874015748},{"duration":0.042856999999997925,"midi":51,"time":94.585399,"velocity":0.3937007874015748},{"duration":0.042856999999997925,"midi":51,"time":94.671113,"velocity":0.3937007874015748},{"duration":0.042856999999997925,"midi":51,"time":94.756827,"velocity":0.3937007874015748},{"duration":0.042856999999997925,"midi":51,"time":94.842541,"velocity":0.3937007874015748},{"duration":0.042857000000012135,"midi":51,"time":94.928255,"velocity":0.3937007874015748},{"duration":0.042856999999997925,"midi":51,"time":95.013969,"velocity":0.3937007874015748},{"duration":0.042856999999997925,"midi":51,"time":95.099683,"velocity":0.3937007874015748},{"duration":0.042856999999997925,"midi":51,"time":95.185397,"velocity":0.3937007874015748},{"duration":0.042856999999997925,"midi":53,"time":95.271111,"velocity":0.3937007874015748},{"duration":0.042856999999997925,"midi":53,"time":95.356825,"velocity":0.3937007874015748},{"duration":0.042856999999997925,"midi":53,"time":95.442539,"velocity":0.3937007874015748},{"duration":0.042857000000012135,"midi":53,"time":95.52825299999999,"velocity":0.3937007874015748},{"duration":0.042856999999997925,"midi":53,"time":95.613967,"velocity":0.3937007874015748},{"duration":0.042856999999997925,"midi":53,"time":95.699681,"velocity":0.3937007874015748},{"duration":0.042856999999997925,"midi":53,"time":95.785395,"velocity":0.3937007874015748},{"duration":0.042856999999997925,"midi":53,"time":95.871109,"velocity":0.3937007874015748},{"duration":0.042856999999997925,"midi":53,"time":95.956823,"velocity":0.3937007874015748},{"duration":0.042856999999997925,"midi":53,"time":96.042537,"velocity":0.3937007874015748},{"duration":0.042857000000012135,"midi":53,"time":96.12825099999999,"velocity":0.3937007874015748},{"duration":0.042856999999997925,"midi":53,"time":96.213965,"velocity":0.3937007874015748},{"duration":0.042856999999997925,"midi":53,"time":96.299679,"velocity":0.3937007874015748},{"duration":0.042856999999997925,"midi":53,"time":96.385393,"velocity":0.3937007874015748},{"duration":0.042856999999997925,"midi":53,"time":96.471107,"velocity":0.3937007874015748},{"duration":0.042856999999997925,"midi":53,"time":96.556821,"velocity":0.3937007874015748},{"duration":0.042856999999997925,"midi":53,"time":96.642535,"velocity":0.3937007874015748},{"duration":0.042856999999997925,"midi":53,"time":96.728249,"velocity":0.3937007874015748},{"duration":0.042856999999997925,"midi":53,"time":96.813963,"velocity":0.3937007874015748},{"duration":0.042856999999997925,"midi":53,"time":96.899677,"velocity":0.3937007874015748},{"duration":0.042857000000012135,"midi":53,"time":96.98539099999999,"velocity":0.3937007874015748},{"duration":0.042856999999997925,"midi":53,"time":97.071105,"velocity":0.3937007874015748},{"duration":0.042856999999997925,"midi":53,"time":97.156819,"velocity":0.3937007874015748},{"duration":0.042856999999997925,"midi":53,"time":97.242533,"velocity":0.3937007874015748},{"duration":0.042856999999997925,"midi":53,"time":97.328247,"velocity":0.3937007874015748},{"duration":0.042856999999997925,"midi":53,"time":97.413961,"velocity":0.3937007874015748},{"duration":0.042856999999997925,"midi":53,"time":97.499675,"velocity":0.3937007874015748},{"duration":0.042857000000012135,"midi":53,"time":97.58538899999999,"velocity":0.3937007874015748},{"duration":0.042856999999997925,"midi":53,"time":97.671103,"velocity":0.3937007874015748},{"duration":0.042856999999997925,"midi":53,"time":97.756817,"velocity":0.3937007874015748},{"duration":0.042856999999997925,"midi":53,"time":97.842531,"velocity":0.3937007874015748},{"duration":0.042856999999997925,"midi":53,"time":97.928245,"velocity":0.3937007874015748},{"duration":0.042856999999997925,"midi":55,"time":98.013959,"velocity":0.3937007874015748},{"duration":0.042856999999997925,"midi":55,"time":98.099673,"velocity":0.3937007874015748},{"duration":0.042857000000012135,"midi":55,"time":98.18538699999999,"velocity":0.3937007874015748},{"duration":0.042856999999997925,"midi":55,"time":98.271101,"velocity":0.3937007874015748},{"duration":0.042856999999997925,"midi":55,"time":98.356815,"velocity":0.3937007874015748},{"duration":0.042856999999997925,"midi":55,"time":98.442529,"velocity":0.3937007874015748},{"duration":0.042856999999997925,"midi":55,"time":98.528243,"velocity":0.3937007874015748},{"duration":0.042856999999997925,"midi":55,"time":98.613957,"velocity":0.3937007874015748},{"duration":0.042856999999997925,"midi":55,"time":98.699671,"velocity":0.3937007874015748},{"duration":0.042856999999997925,"midi":55,"time":98.785385,"velocity":0.3937007874015748},{"duration":0.042856999999997925,"midi":55,"time":98.871099,"velocity":0.3937007874015748},{"duration":0.042856999999997925,"midi":55,"time":98.956813,"velocity":0.3937007874015748},{"duration":0.042857000000012135,"midi":55,"time":99.04252699999999,"velocity":0.3937007874015748},{"duration":0.042856999999997925,"midi":55,"time":99.128241,"velocity":0.3937007874015748},{"duration":0.042856999999997925,"midi":55,"time":99.213955,"velocity":0.3937007874015748},{"duration":0.042856999999997925,"midi":55,"time":99.299669,"velocity":0.3937007874015748},{"duration":0.042856999999997925,"midi":55,"time":99.385383,"velocity":0.3937007874015748},{"duration":0.042856999999997925,"midi":55,"time":99.471097,"velocity":0.3937007874015748},{"duration":0.042856999999997925,"midi":55,"time":99.556811,"velocity":0.3937007874015748},{"duration":0.042857000000012135,"midi":55,"time":99.64252499999999,"velocity":0.3937007874015748},{"duration":0.042856999999997925,"midi":53,"time":99.728239,"velocity":0.3937007874015748},{"duration":0.042856999999997925,"midi":53,"time":99.813953,"velocity":0.3937007874015748},{"duration":0.042856999999997925,"midi":53,"time":99.899667,"velocity":0.3937007874015748},{"duration":0.042856999999997925,"midi":53,"time":99.985381,"velocity":0.3937007874015748},{"duration":0.042856999999997925,"midi":51,"time":100.071095,"velocity":0.3937007874015748},{"duration":0.042856999999997925,"midi":51,"time":100.156809,"velocity":0.3937007874015748},{"duration":0.042857000000012135,"midi":51,"time":100.24252299999999,"velocity":0.3937007874015748},{"duration":0.042856999999997925,"midi":51,"time":100.328237,"velocity":0.3937007874015748},{"duration":0.042856999999997925,"midi":50,"time":100.413951,"velocity":0.3937007874015748},{"duration":0.042857000000012135,"midi":50,"time":100.499665,"velocity":0.3937007874015748},{"duration":0.042856999999997925,"midi":50,"time":100.585379,"velocity":0.3937007874015748},{"duration":0.042856999999997925,"midi":50,"time":100.671093,"velocity":0.3937007874015748},{"duration":0.042856999999997925,"midi":48,"time":110.356775,"velocity":0.3937007874015748},{"duration":0.042856999999997925,"midi":48,"time":110.442489,"velocity":0.3937007874015748},{"duration":0.042856999999997925,"midi":48,"time":110.528203,"velocity":0.3937007874015748},{"duration":0.042856999999997925,"midi":48,"time":110.613917,"velocity":0.3937007874015748},{"duration":0.042856999999997925,"midi":48,"time":110.699631,"velocity":0.3937007874015748},{"duration":0.042857000000012135,"midi":48,"time":110.78534499999999,"velocity":0.3937007874015748},{"duration":0.042856999999997925,"midi":48,"time":110.871059,"velocity":0.3937007874015748},{"duration":0.042856999999997925,"midi":48,"time":110.956773,"velocity":0.3937007874015748},{"duration":0.042856999999997925,"midi":48,"time":111.042487,"velocity":0.3937007874015748},{"duration":0.042856999999997925,"midi":48,"time":111.128201,"velocity":0.3937007874015748},{"duration":0.042856999999997925,"midi":48,"time":111.213915,"velocity":0.3937007874015748},{"duration":0.042856999999997925,"midi":48,"time":111.299629,"velocity":0.3937007874015748},{"duration":0.042857000000012135,"midi":48,"time":111.38534299999999,"velocity":0.3937007874015748},{"duration":0.042856999999997925,"midi":48,"time":111.471057,"velocity":0.3937007874015748},{"duration":0.042856999999997925,"midi":48,"time":111.556771,"velocity":0.3937007874015748},{"duration":0.042856999999997925,"midi":48,"time":111.642485,"velocity":0.3937007874015748},{"duration":0.042856999999997925,"midi":48,"time":111.728199,"velocity":0.3937007874015748},{"duration":0.042856999999997925,"midi":48,"time":111.813913,"velocity":0.3937007874015748},{"duration":0.042856999999997925,"midi":48,"time":111.899627,"velocity":0.3937007874015748},{"duration":0.042857000000012135,"midi":48,"time":111.98534099999999,"velocity":0.3937007874015748},{"duration":0.042856999999997925,"midi":48,"time":112.071055,"velocity":0.3937007874015748},{"duration":0.042856999999997925,"midi":48,"time":112.156769,"velocity":0.3937007874015748},{"duration":0.042857000000012135,"midi":48,"time":112.242483,"velocity":0.3937007874015748},{"duration":0.042856999999997925,"midi":48,"time":112.328197,"velocity":0.3937007874015748},{"duration":0.042856999999997925,"midi":48,"time":112.413911,"velocity":0.3937007874015748},{"duration":0.042856999999997925,"midi":48,"time":112.499625,"velocity":0.3937007874015748},{"duration":0.042856999999997925,"midi":48,"time":112.585339,"velocity":0.3937007874015748},{"duration":0.042856999999997925,"midi":48,"time":112.671053,"velocity":0.3937007874015748},{"duration":0.042856999999997925,"midi":48,"time":112.756767,"velocity":0.3937007874015748},{"duration":0.042857000000012135,"midi":48,"time":112.84248099999999,"velocity":0.3937007874015748},{"duration":0.042856999999997925,"midi":48,"time":112.928195,"velocity":0.3937007874015748},{"duration":0.042856999999997925,"midi":48,"time":113.013909,"velocity":0.3937007874015748},{"duration":0.042856999999997925,"midi":48,"time":113.099623,"velocity":0.3937007874015748},{"duration":0.042856999999997925,"midi":48,"time":113.185337,"velocity":0.3937007874015748},{"duration":0.042856999999997925,"midi":48,"time":113.271051,"velocity":0.3937007874015748},{"duration":0.042856999999997925,"midi":48,"time":113.356765,"velocity":0.3937007874015748},{"duration":0.042857000000012135,"midi":48,"time":113.44247899999999,"velocity":0.3937007874015748},{"duration":0.042856999999997925,"midi":48,"time":113.528193,"velocity":0.3937007874015748},{"duration":0.042856999999997925,"midi":48,"time":113.613907,"velocity":0.3937007874015748},{"duration":0.042856999999997925,"midi":48,"time":113.699621,"velocity":0.3937007874015748},{"duration":0.042856999999997925,"midi":48,"time":113.785335,"velocity":0.3937007874015748},{"duration":0.042856999999997925,"midi":48,"time":113.871049,"velocity":0.3937007874015748},{"duration":0.042856999999997925,"midi":48,"time":113.956763,"velocity":0.3937007874015748},{"duration":0.042857000000012135,"midi":48,"time":114.04247699999999,"velocity":0.3937007874015748},{"duration":0.042856999999997925,"midi":48,"time":114.128191,"velocity":0.3937007874015748},{"duration":0.042856999999997925,"midi":48,"time":114.213905,"velocity":0.3937007874015748},{"duration":0.042857000000012135,"midi":48,"time":114.29961899999999,"velocity":0.3937007874015748},{"duration":0.042856999999997925,"midi":48,"time":114.385333,"velocity":0.3937007874015748},{"duration":0.042856999999997925,"midi":48,"time":114.471047,"velocity":0.3937007874015748},{"duration":0.042856999999997925,"midi":48,"time":114.556761,"velocity":0.3937007874015748},{"duration":0.042856999999997925,"midi":48,"time":114.642475,"velocity":0.3937007874015748},{"duration":0.042856999999997925,"midi":48,"time":114.728189,"velocity":0.3937007874015748},{"duration":0.042856999999997925,"midi":48,"time":114.813903,"velocity":0.3937007874015748},{"duration":0.042857000000012135,"midi":48,"time":114.89961699999999,"velocity":0.3937007874015748},{"duration":0.042856999999997925,"midi":48,"time":114.985331,"velocity":0.3937007874015748},{"duration":0.042856999999997925,"midi":48,"time":115.071045,"velocity":0.3937007874015748},{"duration":0.042856999999997925,"midi":48,"time":115.156759,"velocity":0.3937007874015748},{"duration":0.042856999999997925,"midi":48,"time":115.242473,"velocity":0.3937007874015748},{"duration":0.042856999999997925,"midi":48,"time":115.328187,"velocity":0.3937007874015748},{"duration":0.042856999999997925,"midi":48,"time":115.413901,"velocity":0.3937007874015748},{"duration":0.042857000000012135,"midi":48,"time":115.49961499999999,"velocity":0.3937007874015748},{"duration":0.042856999999997925,"midi":48,"time":115.585329,"velocity":0.3937007874015748},{"duration":0.042856999999997925,"midi":48,"time":115.671043,"velocity":0.3937007874015748},{"duration":0.042856999999997925,"midi":48,"time":115.756757,"velocity":0.3937007874015748},{"duration":0.042856999999997925,"midi":36,"time":117.213895,"velocity":0.3937007874015748},{"duration":0.042856999999997925,"midi":36,"time":117.299609,"velocity":0.3937007874015748},{"duration":0.042856999999997925,"midi":36,"time":117.385323,"velocity":0.3937007874015748},{"duration":0.042856999999997925,"midi":36,"time":117.471037,"velocity":0.3937007874015748},{"duration":0.042857000000012135,"midi":36,"time":117.55675099999999,"velocity":0.3937007874015748},{"duration":0.042856999999997925,"midi":36,"time":117.642465,"velocity":0.3937007874015748},{"duration":0.042856999999997925,"midi":36,"time":117.728179,"velocity":0.3937007874015748},{"duration":0.042856999999997925,"midi":36,"time":117.813893,"velocity":0.3937007874015748},{"duration":0.042856999999997925,"midi":36,"time":117.899607,"velocity":0.3937007874015748},{"duration":0.042856999999997925,"midi":36,"time":117.985321,"velocity":0.3937007874015748},{"duration":0.042856999999997925,"midi":36,"time":118.071035,"velocity":0.3937007874015748},{"duration":0.042856999999997925,"midi":36,"time":118.156749,"velocity":0.3937007874015748},{"duration":0.042856999999997925,"midi":36,"time":118.242463,"velocity":0.3937007874015748},{"duration":0.042856999999997925,"midi":36,"time":118.328177,"velocity":0.3937007874015748},{"duration":0.042857000000012135,"midi":36,"time":118.41389099999999,"velocity":0.3937007874015748},{"duration":0.042856999999997925,"midi":36,"time":118.499605,"velocity":0.3937007874015748},{"duration":0.042856999999997925,"midi":39,"time":118.585319,"velocity":0.3937007874015748},{"duration":0.042856999999997925,"midi":39,"time":118.671033,"velocity":0.3937007874015748},{"duration":0.042856999999997925,"midi":39,"time":118.756747,"velocity":0.3937007874015748},{"duration":0.042856999999997925,"midi":39,"time":118.842461,"velocity":0.3937007874015748},{"duration":0.042856999999997925,"midi":39,"time":118.928175,"velocity":0.3937007874015748},{"duration":0.042857000000012135,"midi":39,"time":119.01388899999999,"velocity":0.3937007874015748},{"duration":0.042856999999997925,"midi":39,"time":119.099603,"velocity":0.3937007874015748},{"duration":0.042856999999997925,"midi":39,"time":119.185317,"velocity":0.3937007874015748},{"duration":0.042856999999997925,"midi":39,"time":119.271031,"velocity":0.3937007874015748},{"duration":0.042856999999997925,"midi":39,"time":119.356745,"velocity":0.3937007874015748},{"duration":0.042856999999997925,"midi":39,"time":119.442459,"velocity":0.3937007874015748},{"duration":0.042856999999997925,"midi":39,"time":119.528173,"velocity":0.3937007874015748},{"duration":0.042857000000012135,"midi":39,"time":119.61388699999999,"velocity":0.3937007874015748},{"duration":0.042856999999997925,"midi":39,"time":119.699601,"velocity":0.3937007874015748},{"duration":0.042856999999997925,"midi":39,"time":119.785315,"velocity":0.3937007874015748},{"duration":0.042856999999997925,"midi":39,"time":119.871029,"velocity":0.3937007874015748},{"duration":0.042856999999997925,"midi":38,"time":119.956743,"velocity":0.3937007874015748},{"duration":0.042856999999997925,"midi":38,"time":120.042457,"velocity":0.3937007874015748},{"duration":0.042856999999997925,"midi":38,"time":120.128171,"velocity":0.3937007874015748},{"duration":0.042856999999997925,"midi":38,"time":120.213885,"velocity":0.3937007874015748},{"duration":0.042856999999997925,"midi":38,"time":120.299599,"velocity":0.3937007874015748},{"duration":0.042856999999997925,"midi":38,"time":120.385313,"velocity":0.3937007874015748},{"duration":0.042857000000012135,"midi":38,"time":120.47102699999999,"velocity":0.3937007874015748},{"duration":0.042856999999997925,"midi":38,"time":120.556741,"velocity":0.3937007874015748},{"duration":0.042856999999997925,"midi":38,"time":120.642455,"velocity":0.3937007874015748},{"duration":0.042856999999997925,"midi":38,"time":120.728169,"velocity":0.3937007874015748},{"duration":0.042856999999997925,"midi":38,"time":120.813883,"velocity":0.3937007874015748},{"duration":0.042856999999997925,"midi":38,"time":120.899597,"velocity":0.3937007874015748},{"duration":0.042856999999997925,"midi":38,"time":120.985311,"velocity":0.3937007874015748},{"duration":0.042857000000012135,"midi":38,"time":121.07102499999999,"velocity":0.3937007874015748},{"duration":0.042856999999997925,"midi":38,"time":121.156739,"velocity":0.3937007874015748},{"duration":0.042856999999997925,"midi":38,"time":121.242453,"velocity":0.3937007874015748},{"duration":0.042856999999997925,"midi":43,"time":121.328167,"velocity":0.3937007874015748},{"duration":0.042856999999997925,"midi":43,"time":121.413881,"velocity":0.3937007874015748},{"duration":0.042856999999997925,"midi":43,"time":121.499595,"velocity":0.3937007874015748},{"duration":0.042856999999997925,"midi":43,"time":121.585309,"velocity":0.3937007874015748},{"duration":0.042857000000012135,"midi":41,"time":121.67102299999999,"velocity":0.3937007874015748},{"duration":0.042856999999997925,"midi":41,"time":121.756737,"velocity":0.3937007874015748},{"duration":0.042856999999997925,"midi":41,"time":121.842451,"velocity":0.3937007874015748},{"duration":0.042857000000012135,"midi":41,"time":121.92816499999999,"velocity":0.3937007874015748},{"duration":0.042856999999997925,"midi":39,"time":122.013879,"velocity":0.3937007874015748},{"duration":0.042856999999997925,"midi":39,"time":122.099593,"velocity":0.3937007874015748},{"duration":0.042856999999997925,"midi":39,"time":122.185307,"velocity":0.3937007874015748},{"duration":0.042856999999997925,"midi":39,"time":122.271021,"velocity":0.3937007874015748},{"duration":0.042856999999997925,"midi":38,"time":122.356735,"velocity":0.3937007874015748},{"duration":0.042856999999997925,"midi":38,"time":122.442449,"velocity":0.3937007874015748},{"duration":0.042857000000012135,"midi":38,"time":122.52816299999999,"velocity":0.3937007874015748},{"duration":0.042856999999997925,"midi":38,"time":122.613877,"velocity":0.3937007874015748},{"duration":0.042856999999997925,"midi":36,"time":122.699591,"velocity":0.3937007874015748},{"duration":0.042856999999997925,"midi":36,"time":122.785305,"velocity":0.3937007874015748},{"duration":0.042856999999997925,"midi":36,"time":122.871019,"velocity":0.3937007874015748},{"duration":0.042856999999997925,"midi":36,"time":122.956733,"velocity":0.3937007874015748},{"duration":0.042856999999997925,"midi":36,"time":123.042447,"velocity":0.3937007874015748},{"duration":0.042857000000012135,"midi":36,"time":123.12816099999999,"velocity":0.3937007874015748},{"duration":0.042856999999997925,"midi":36,"time":123.213875,"velocity":0.3937007874015748},{"duration":0.042856999999997925,"midi":36,"time":123.299589,"velocity":0.3937007874015748},{"duration":0.042856999999997925,"midi":36,"time":123.385303,"velocity":0.3937007874015748},{"duration":0.042856999999997925,"midi":36,"time":123.471017,"velocity":0.3937007874015748},{"duration":0.042856999999997925,"midi":36,"time":123.556731,"velocity":0.3937007874015748},{"duration":0.042856999999997925,"midi":36,"time":123.642445,"velocity":0.3937007874015748},{"duration":0.042857000000012135,"midi":36,"time":123.72815899999999,"velocity":0.3937007874015748},{"duration":0.042856999999997925,"midi":36,"time":123.813873,"velocity":0.3937007874015748},{"duration":0.042856999999997925,"midi":36,"time":123.899587,"velocity":0.3937007874015748},{"duration":0.042857000000012135,"midi":36,"time":123.98530099999999,"velocity":0.3937007874015748},{"duration":0.042856999999997925,"midi":39,"time":124.071015,"velocity":0.3937007874015748},{"duration":0.042856999999997925,"midi":39,"time":124.156729,"velocity":0.3937007874015748},{"duration":0.042856999999997925,"midi":39,"time":124.242443,"velocity":0.3937007874015748},{"duration":0.042856999999997925,"midi":39,"time":124.328157,"velocity":0.3937007874015748},{"duration":0.042856999999997925,"midi":39,"time":124.413871,"velocity":0.3937007874015748},{"duration":0.042856999999997925,"midi":39,"time":124.499585,"velocity":0.3937007874015748},{"duration":0.042857000000012135,"midi":39,"time":124.58529899999999,"velocity":0.3937007874015748},{"duration":0.042856999999997925,"midi":39,"time":124.671013,"velocity":0.3937007874015748},{"duration":0.042856999999997925,"midi":39,"time":124.756727,"velocity":0.3937007874015748},{"duration":0.042856999999997925,"midi":39,"time":124.842441,"velocity":0.3937007874015748},{"duration":0.042856999999997925,"midi":39,"time":124.928155,"velocity":0.3937007874015748},{"duration":0.042856999999997925,"midi":39,"time":125.013869,"velocity":0.3937007874015748},{"duration":0.042856999999997925,"midi":39,"time":125.099583,"velocity":0.3937007874015748},{"duration":0.042857000000012135,"midi":39,"time":125.18529699999999,"velocity":0.3937007874015748},{"duration":0.042856999999997925,"midi":39,"time":125.271011,"velocity":0.3937007874015748},{"duration":0.042856999999997925,"midi":39,"time":125.356725,"velocity":0.3937007874015748},{"duration":0.042856999999997925,"midi":44,"time":125.442439,"velocity":0.3937007874015748},{"duration":0.042856999999997925,"midi":44,"time":125.528153,"velocity":0.3937007874015748},{"duration":0.042856999999997925,"midi":44,"time":125.613867,"velocity":0.3937007874015748},{"duration":0.042856999999997925,"midi":44,"time":125.699581,"velocity":0.3937007874015748},{"duration":0.042857000000012135,"midi":44,"time":125.78529499999999,"velocity":0.3937007874015748},{"duration":0.042856999999997925,"midi":44,"time":125.871009,"velocity":0.3937007874015748},{"duration":0.042856999999997925,"midi":44,"time":125.956723,"velocity":0.3937007874015748},{"duration":0.042857000000012135,"midi":44,"time":126.04243699999999,"velocity":0.3937007874015748},{"duration":0.042856999999997925,"midi":44,"time":126.128151,"velocity":0.3937007874015748},{"duration":0.042856999999997925,"midi":44,"time":126.213865,"velocity":0.3937007874015748},{"duration":0.042856999999997925,"midi":44,"time":126.299579,"velocity":0.3937007874015748},{"duration":0.042856999999997925,"midi":44,"time":126.385293,"velocity":0.3937007874015748},{"duration":0.042856999999997925,"midi":44,"time":126.471007,"velocity":0.3937007874015748},{"duration":0.042856999999997925,"midi":44,"time":126.556721,"velocity":0.3937007874015748},{"duration":0.042857000000012135,"midi":44,"time":126.64243499999999,"velocity":0.3937007874015748},{"duration":0.042856999999997925,"midi":44,"time":126.728149,"velocity":0.3937007874015748},{"duration":0.042856999999997925,"midi":43,"time":126.813863,"velocity":0.3937007874015748},{"duration":0.042856999999997925,"midi":43,"time":126.899577,"velocity":0.3937007874015748},{"duration":0.042856999999997925,"midi":43,"time":126.985291,"velocity":0.3937007874015748},{"duration":0.042856999999997925,"midi":43,"time":127.071005,"velocity":0.3937007874015748},{"duration":0.042856999999997925,"midi":43,"time":127.156719,"velocity":0.3937007874015748},{"duration":0.042857000000012135,"midi":43,"time":127.24243299999999,"velocity":0.3937007874015748},{"duration":0.042856999999997925,"midi":43,"time":127.328147,"velocity":0.3937007874015748},{"duration":0.042856999999997925,"midi":43,"time":127.413861,"velocity":0.3937007874015748},{"duration":0.042856999999997925,"midi":43,"time":127.499575,"velocity":0.3937007874015748},{"duration":0.042856999999997925,"midi":43,"time":127.585289,"velocity":0.3937007874015748},{"duration":0.042856999999997925,"midi":43,"time":127.671003,"velocity":0.3937007874015748},{"duration":0.042856999999997925,"midi":43,"time":127.756717,"velocity":0.3937007874015748},{"duration":0.042856999999997925,"midi":43,"time":127.842431,"velocity":0.3937007874015748},{"duration":0.042856999999997925,"midi":43,"time":127.928145,"velocity":0.3937007874015748},{"duration":0.042856999999997925,"midi":43,"time":128.013859,"velocity":0.3937007874015748},{"duration":0.042856999999997925,"midi":43,"time":128.099573,"velocity":0.3937007874015748},{"duration":0.042856999999997925,"midi":36,"time":128.185287,"velocity":0.3937007874015748},{"duration":0.042857000000026346,"midi":36,"time":128.27100099999998,"velocity":0.3937007874015748},{"duration":0.042856999999997925,"midi":36,"time":128.356715,"velocity":0.3937007874015748},{"duration":0.042856999999997925,"midi":36,"time":128.442429,"velocity":0.3937007874015748},{"duration":0.042856999999997925,"midi":36,"time":128.528143,"velocity":0.3937007874015748},{"duration":0.042856999999997925,"midi":36,"time":128.613857,"velocity":0.3937007874015748},{"duration":0.042856999999997925,"midi":36,"time":128.699571,"velocity":0.3937007874015748},{"duration":0.042856999999997925,"midi":36,"time":128.785285,"velocity":0.3937007874015748},{"duration":0.042856999999997925,"midi":36,"time":128.870999,"velocity":0.3937007874015748},{"duration":0.042856999999997925,"midi":36,"time":128.956713,"velocity":0.3937007874015748},{"duration":0.042856999999997925,"midi":36,"time":129.042427,"velocity":0.3937007874015748},{"duration":0.042856999999997925,"midi":36,"time":129.128141,"velocity":0.3937007874015748},{"duration":0.042856999999997925,"midi":36,"time":129.213855,"velocity":0.3937007874015748},{"duration":0.042856999999997925,"midi":36,"time":129.299569,"velocity":0.3937007874015748},{"duration":0.042856999999997925,"midi":36,"time":129.385283,"velocity":0.3937007874015748},{"duration":0.042856999999997925,"midi":36,"time":129.470997,"velocity":0.3937007874015748},{"duration":0.042856999999997925,"midi":39,"time":129.556711,"velocity":0.3937007874015748},{"duration":0.042856999999997925,"midi":51,"time":129.556711,"velocity":0.3937007874015748},{"duration":0.042856999999997925,"midi":51,"time":129.642425,"velocity":0.3937007874015748},{"duration":0.042856999999997925,"midi":39,"time":129.642425,"velocity":0.3937007874015748},{"duration":0.042856999999997925,"midi":51,"time":129.728139,"velocity":0.3937007874015748},{"duration":0.042856999999997925,"midi":39,"time":129.728139,"velocity":0.3937007874015748},{"duration":0.042856999999997925,"midi":39,"time":129.813853,"velocity":0.3937007874015748},{"duration":0.042856999999997925,"midi":51,"time":129.813853,"velocity":0.3937007874015748},{"duration":0.042856999999997925,"midi":39,"time":129.899567,"velocity":0.3937007874015748},{"duration":0.042856999999997925,"midi":51,"time":129.899567,"velocity":0.3937007874015748},{"duration":0.042856999999997925,"midi":39,"time":129.985281,"velocity":0.3937007874015748},{"duration":0.042856999999997925,"midi":51,"time":129.985281,"velocity":0.3937007874015748},{"duration":0.042856999999997925,"midi":51,"time":130.070995,"velocity":0.3937007874015748},{"duration":0.042856999999997925,"midi":39,"time":130.070995,"velocity":0.3937007874015748},{"duration":0.042856999999997925,"midi":51,"time":130.156709,"velocity":0.3937007874015748},{"duration":0.042856999999997925,"midi":39,"time":130.156709,"velocity":0.3937007874015748},{"duration":0.042856999999997925,"midi":39,"time":130.242423,"velocity":0.3937007874015748},{"duration":0.042856999999997925,"midi":51,"time":130.242423,"velocity":0.3937007874015748},{"duration":0.042856999999997925,"midi":51,"time":130.328137,"velocity":0.3937007874015748},{"duration":0.042856999999997925,"midi":39,"time":130.328137,"velocity":0.3937007874015748},{"duration":0.042856999999997925,"midi":51,"time":130.413851,"velocity":0.3937007874015748},{"duration":0.042856999999997925,"midi":39,"time":130.413851,"velocity":0.3937007874015748},{"duration":0.042856999999997925,"midi":39,"time":130.499565,"velocity":0.3937007874015748},{"duration":0.042856999999997925,"midi":51,"time":130.499565,"velocity":0.3937007874015748},{"duration":0.042856999999997925,"midi":51,"time":130.58527899999999,"velocity":0.3937007874015748},{"duration":0.042856999999997925,"midi":39,"time":130.58527899999999,"velocity":0.3937007874015748},{"duration":0.042856999999997925,"midi":39,"time":130.670993,"velocity":0.3937007874015748},{"duration":0.042856999999997925,"midi":51,"time":130.670993,"velocity":0.3937007874015748},{"duration":0.042856999999997925,"midi":51,"time":130.756707,"velocity":0.3937007874015748},{"duration":0.042856999999997925,"midi":39,"time":130.756707,"velocity":0.3937007874015748},{"duration":0.042856999999997925,"midi":39,"time":130.842421,"velocity":0.3937007874015748},{"duration":0.042856999999997925,"midi":51,"time":130.842421,"velocity":0.3937007874015748},{"duration":0.042856999999997925,"midi":50,"time":130.928135,"velocity":0.3937007874015748},{"duration":0.042856999999997925,"midi":38,"time":130.928135,"velocity":0.3937007874015748},{"duration":0.042856999999997925,"midi":50,"time":131.013849,"velocity":0.3937007874015748},{"duration":0.042856999999997925,"midi":38,"time":131.013849,"velocity":0.3937007874015748},{"duration":0.042856999999997925,"midi":38,"time":131.099563,"velocity":0.3937007874015748},{"duration":0.042856999999997925,"midi":50,"time":131.099563,"velocity":0.3937007874015748},{"duration":0.042857000000026346,"midi":50,"time":131.18527699999999,"velocity":0.3937007874015748},{"duration":0.042857000000026346,"midi":38,"time":131.18527699999999,"velocity":0.3937007874015748},{"duration":0.042856999999997925,"midi":50,"time":131.270991,"velocity":0.3937007874015748},{"duration":0.042856999999997925,"midi":38,"time":131.270991,"velocity":0.3937007874015748},{"duration":0.042856999999997925,"midi":50,"time":131.356705,"velocity":0.3937007874015748},{"duration":0.042856999999997925,"midi":38,"time":131.356705,"velocity":0.3937007874015748},{"duration":0.042856999999997925,"midi":50,"time":131.442419,"velocity":0.3937007874015748},{"duration":0.042856999999997925,"midi":38,"time":131.442419,"velocity":0.3937007874015748},{"duration":0.042856999999997925,"midi":50,"time":131.528133,"velocity":0.3937007874015748},{"duration":0.042856999999997925,"midi":38,"time":131.528133,"velocity":0.3937007874015748},{"duration":0.042856999999997925,"midi":50,"time":131.613847,"velocity":0.3937007874015748},{"duration":0.042856999999997925,"midi":38,"time":131.613847,"velocity":0.3937007874015748},{"duration":0.042856999999997925,"midi":50,"time":131.699561,"velocity":0.3937007874015748},{"duration":0.042856999999997925,"midi":38,"time":131.699561,"velocity":0.3937007874015748},{"duration":0.042857000000026346,"midi":50,"time":131.78527499999998,"velocity":0.3937007874015748},{"duration":0.042857000000026346,"midi":38,"time":131.78527499999998,"velocity":0.3937007874015748},{"duration":0.042856999999997925,"midi":50,"time":131.870989,"velocity":0.3937007874015748},{"duration":0.042856999999997925,"midi":38,"time":131.870989,"velocity":0.3937007874015748},{"duration":0.042856999999997925,"midi":50,"time":131.956703,"velocity":0.3937007874015748},{"duration":0.042856999999997925,"midi":38,"time":131.956703,"velocity":0.3937007874015748},{"duration":0.042856999999997925,"midi":38,"time":132.042417,"velocity":0.3937007874015748},{"duration":0.042856999999997925,"midi":50,"time":132.042417,"velocity":0.3937007874015748},{"duration":0.042856999999997925,"midi":38,"time":132.128131,"velocity":0.3937007874015748},{"duration":0.042856999999997925,"midi":50,"time":132.128131,"velocity":0.3937007874015748},{"duration":0.042856999999997925,"midi":50,"time":132.213845,"velocity":0.3937007874015748},{"duration":0.042856999999997925,"midi":38,"time":132.213845,"velocity":0.3937007874015748},{"duration":0.042856999999997925,"midi":43,"time":132.299559,"velocity":0.3937007874015748},{"duration":0.042856999999997925,"midi":55,"time":132.299559,"velocity":0.3937007874015748},{"duration":0.042857000000026346,"midi":43,"time":132.38527299999998,"velocity":0.3937007874015748},{"duration":0.042857000000026346,"midi":55,"time":132.38527299999998,"velocity":0.3937007874015748},{"duration":0.042856999999997925,"midi":55,"time":132.470987,"velocity":0.3937007874015748},{"duration":0.042856999999997925,"midi":43,"time":132.470987,"velocity":0.3937007874015748},{"duration":0.042856999999997925,"midi":43,"time":132.556701,"velocity":0.3937007874015748},{"duration":0.042856999999997925,"midi":55,"time":132.556701,"velocity":0.3937007874015748},{"duration":0.042856999999997925,"midi":41,"time":132.642415,"velocity":0.3937007874015748},{"duration":0.042856999999997925,"midi":53,"time":132.642415,"velocity":0.3937007874015748},{"duration":0.042856999999997925,"midi":41,"time":132.728129,"velocity":0.3937007874015748},{"duration":0.042856999999997925,"midi":53,"time":132.728129,"velocity":0.3937007874015748},{"duration":0.042856999999997925,"midi":41,"time":132.813843,"velocity":0.3937007874015748},{"duration":0.042856999999997925,"midi":53,"time":132.813843,"velocity":0.3937007874015748},{"duration":0.042856999999997925,"midi":41,"time":132.899557,"velocity":0.3937007874015748},{"duration":0.042856999999997925,"midi":53,"time":132.899557,"velocity":0.3937007874015748},{"duration":0.042856999999997925,"midi":51,"time":132.985271,"velocity":0.3937007874015748},{"duration":0.042856999999997925,"midi":39,"time":132.985271,"velocity":0.3937007874015748},{"duration":0.042856999999997925,"midi":51,"time":133.070985,"velocity":0.3937007874015748},{"duration":0.042856999999997925,"midi":39,"time":133.070985,"velocity":0.3937007874015748},{"duration":0.042856999999997925,"midi":51,"time":133.156699,"velocity":0.3937007874015748},{"duration":0.042856999999997925,"midi":39,"time":133.156699,"velocity":0.3937007874015748},{"duration":0.042856999999997925,"midi":51,"time":133.242413,"velocity":0.3937007874015748},{"duration":0.042856999999997925,"midi":39,"time":133.242413,"velocity":0.3937007874015748},{"duration":0.042856999999997925,"midi":38,"time":133.328127,"velocity":0.3937007874015748},{"duration":0.042856999999997925,"midi":50,"time":133.328127,"velocity":0.3937007874015748},{"duration":0.042856999999997925,"midi":38,"time":133.413841,"velocity":0.3937007874015748},{"duration":0.042856999999997925,"midi":50,"time":133.413841,"velocity":0.3937007874015748},{"duration":0.042856999999997925,"midi":50,"time":133.499555,"velocity":0.3937007874015748},{"duration":0.042856999999997925,"midi":38,"time":133.499555,"velocity":0.3937007874015748},{"duration":0.042856999999997925,"midi":38,"time":133.585269,"velocity":0.3937007874015748},{"duration":0.042856999999997925,"midi":50,"time":133.585269,"velocity":0.3937007874015748},{"duration":0.042856999999997925,"midi":36,"time":133.670983,"velocity":0.3937007874015748},{"duration":0.042856999999997925,"midi":36,"time":133.756697,"velocity":0.3937007874015748},{"duration":0.042856999999997925,"midi":36,"time":133.842411,"velocity":0.3937007874015748},{"duration":0.042856999999997925,"midi":36,"time":133.928125,"velocity":0.3937007874015748},{"duration":0.042856999999997925,"midi":36,"time":134.013839,"velocity":0.3937007874015748},{"duration":0.042856999999997925,"midi":36,"time":134.099553,"velocity":0.3937007874015748},{"duration":0.042856999999997925,"midi":36,"time":134.185267,"velocity":0.3937007874015748},{"duration":0.042856999999997925,"midi":36,"time":134.270981,"velocity":0.3937007874015748},{"duration":0.042856999999997925,"midi":36,"time":134.356695,"velocity":0.3937007874015748},{"duration":0.042856999999997925,"midi":36,"time":134.442409,"velocity":0.3937007874015748},{"duration":0.042856999999997925,"midi":36,"time":134.528123,"velocity":0.3937007874015748},{"duration":0.042856999999997925,"midi":36,"time":134.613837,"velocity":0.3937007874015748},{"duration":0.042857000000026346,"midi":36,"time":134.69955099999999,"velocity":0.3937007874015748},{"duration":0.042856999999997925,"midi":36,"time":134.785265,"velocity":0.3937007874015748},{"duration":0.042856999999997925,"midi":36,"time":134.870979,"velocity":0.3937007874015748},{"duration":0.042856999999997925,"midi":36,"time":134.956693,"velocity":0.3937007874015748},{"duration":0.042856999999997925,"midi":39,"time":135.042407,"velocity":0.3937007874015748},{"duration":0.042856999999997925,"midi":51,"time":135.042407,"velocity":0.3937007874015748},{"duration":0.042856999999997925,"midi":51,"time":135.128121,"velocity":0.3937007874015748},{"duration":0.042856999999997925,"midi":39,"time":135.128121,"velocity":0.3937007874015748},{"duration":0.042856999999997925,"midi":39,"time":135.213835,"velocity":0.3937007874015748},{"duration":0.042856999999997925,"midi":51,"time":135.213835,"velocity":0.3937007874015748},{"duration":0.042857000000026346,"midi":39,"time":135.29954899999998,"velocity":0.3937007874015748},{"duration":0.042857000000026346,"midi":51,"time":135.29954899999998,"velocity":0.3937007874015748},{"duration":0.042856999999997925,"midi":51,"time":135.385263,"velocity":0.3937007874015748},{"duration":0.042856999999997925,"midi":39,"time":135.385263,"velocity":0.3937007874015748},{"duration":0.042856999999997925,"midi":51,"time":135.470977,"velocity":0.3937007874015748},{"duration":0.042856999999997925,"midi":39,"time":135.470977,"velocity":0.3937007874015748},{"duration":0.042856999999997925,"midi":39,"time":135.556691,"velocity":0.3937007874015748},{"duration":0.042856999999997925,"midi":51,"time":135.556691,"velocity":0.3937007874015748},{"duration":0.042856999999997925,"midi":39,"time":135.642405,"velocity":0.3937007874015748},{"duration":0.042856999999997925,"midi":51,"time":135.642405,"velocity":0.3937007874015748},{"duration":0.042856999999997925,"midi":39,"time":135.728119,"velocity":0.3937007874015748},{"duration":0.042856999999997925,"midi":51,"time":135.728119,"velocity":0.3937007874015748},{"duration":0.042856999999997925,"midi":51,"time":135.813833,"velocity":0.3937007874015748},{"duration":0.042856999999997925,"midi":39,"time":135.813833,"velocity":0.3937007874015748},{"duration":0.042857000000026346,"midi":51,"time":135.89954699999998,"velocity":0.3937007874015748},{"duration":0.042857000000026346,"midi":39,"time":135.89954699999998,"velocity":0.3937007874015748},{"duration":0.042856999999997925,"midi":51,"time":135.985261,"velocity":0.3937007874015748},{"duration":0.042856999999997925,"midi":39,"time":135.985261,"velocity":0.3937007874015748},{"duration":0.042856999999997925,"midi":51,"time":136.070975,"velocity":0.3937007874015748},{"duration":0.042856999999997925,"midi":39,"time":136.070975,"velocity":0.3937007874015748},{"duration":0.042856999999997925,"midi":39,"time":136.156689,"velocity":0.3937007874015748},{"duration":0.042856999999997925,"midi":51,"time":136.156689,"velocity":0.3937007874015748},{"duration":0.042856999999997925,"midi":51,"time":136.242403,"velocity":0.3937007874015748},{"duration":0.042856999999997925,"midi":39,"time":136.242403,"velocity":0.3937007874015748},{"duration":0.042856999999997925,"midi":51,"time":136.328117,"velocity":0.3937007874015748},{"duration":0.042856999999997925,"midi":39,"time":136.328117,"velocity":0.3937007874015748},{"duration":0.042856999999997925,"midi":44,"time":136.413831,"velocity":0.3937007874015748},{"duration":0.042856999999997925,"midi":56,"time":136.413831,"velocity":0.3937007874015748},{"duration":0.042857000000026346,"midi":44,"time":136.49954499999998,"velocity":0.3937007874015748},{"duration":0.042857000000026346,"midi":56,"time":136.49954499999998,"velocity":0.3937007874015748},{"duration":0.042856999999997925,"midi":56,"time":136.585259,"velocity":0.3937007874015748},{"duration":0.042856999999997925,"midi":44,"time":136.585259,"velocity":0.3937007874015748},{"duration":0.042856999999997925,"midi":56,"time":136.670973,"velocity":0.3937007874015748},{"duration":0.042856999999997925,"midi":44,"time":136.670973,"velocity":0.3937007874015748},{"duration":0.042856999999997925,"midi":44,"time":136.756687,"velocity":0.3937007874015748},{"duration":0.042856999999997925,"midi":56,"time":136.756687,"velocity":0.3937007874015748},{"duration":0.042856999999997925,"midi":44,"time":136.842401,"velocity":0.3937007874015748},{"duration":0.042856999999997925,"midi":56,"time":136.842401,"velocity":0.3937007874015748},{"duration":0.042856999999997925,"midi":56,"time":136.928115,"velocity":0.3937007874015748},{"duration":0.042856999999997925,"midi":44,"time":136.928115,"velocity":0.3937007874015748},{"duration":0.042856999999997925,"midi":44,"time":137.013829,"velocity":0.3937007874015748},{"duration":0.042856999999997925,"midi":56,"time":137.013829,"velocity":0.3937007874015748},{"duration":0.042856999999997925,"midi":44,"time":137.099543,"velocity":0.3937007874015748},{"duration":0.042856999999997925,"midi":56,"time":137.099543,"velocity":0.3937007874015748},{"duration":0.042856999999997925,"midi":56,"time":137.185257,"velocity":0.3937007874015748},{"duration":0.042856999999997925,"midi":44,"time":137.185257,"velocity":0.3937007874015748},{"duration":0.042856999999997925,"midi":44,"time":137.270971,"velocity":0.3937007874015748},{"duration":0.042856999999997925,"midi":56,"time":137.270971,"velocity":0.3937007874015748},{"duration":0.042856999999997925,"midi":56,"time":137.356685,"velocity":0.3937007874015748},{"duration":0.042856999999997925,"midi":44,"time":137.356685,"velocity":0.3937007874015748},{"duration":0.042856999999997925,"midi":44,"time":137.442399,"velocity":0.3937007874015748},{"duration":0.042856999999997925,"midi":56,"time":137.442399,"velocity":0.3937007874015748},{"duration":0.042856999999997925,"midi":44,"time":137.528113,"velocity":0.3937007874015748},{"duration":0.042856999999997925,"midi":56,"time":137.528113,"velocity":0.3937007874015748},{"duration":0.042856999999997925,"midi":44,"time":137.613827,"velocity":0.3937007874015748},{"duration":0.042856999999997925,"midi":56,"time":137.613827,"velocity":0.3937007874015748},{"duration":0.042856999999997925,"midi":56,"time":137.699541,"velocity":0.3937007874015748},{"duration":0.042856999999997925,"midi":44,"time":137.699541,"velocity":0.3937007874015748},{"duration":0.042856999999997925,"midi":55,"time":137.785255,"velocity":0.3937007874015748},{"duration":0.042856999999997925,"midi":43,"time":137.785255,"velocity":0.3937007874015748},{"duration":0.042856999999997925,"midi":55,"time":137.870969,"velocity":0.3937007874015748},{"duration":0.042856999999997925,"midi":43,"time":137.870969,"velocity":0.3937007874015748},{"duration":0.042856999999997925,"midi":55,"time":137.956683,"velocity":0.3937007874015748},{"duration":0.042856999999997925,"midi":43,"time":137.956683,"velocity":0.3937007874015748},{"duration":0.042856999999997925,"midi":55,"time":138.042397,"velocity":0.3937007874015748},{"duration":0.042856999999997925,"midi":43,"time":138.042397,"velocity":0.3937007874015748},{"duration":0.042856999999997925,"midi":55,"time":138.128111,"velocity":0.3937007874015748},{"duration":0.042856999999997925,"midi":43,"time":138.128111,"velocity":0.3937007874015748},{"duration":0.042856999999997925,"midi":55,"time":138.21382499999999,"velocity":0.3937007874015748},{"duration":0.042856999999997925,"midi":43,"time":138.21382499999999,"velocity":0.3937007874015748},{"duration":0.042856999999997925,"midi":43,"time":138.299539,"velocity":0.3937007874015748},{"duration":0.042856999999997925,"midi":55,"time":138.299539,"velocity":0.3937007874015748},{"duration":0.042856999999997925,"midi":43,"time":138.385253,"velocity":0.3937007874015748},{"duration":0.042856999999997925,"midi":55,"time":138.385253,"velocity":0.3937007874015748},{"duration":0.042856999999997925,"midi":43,"time":138.470967,"velocity":0.3937007874015748},{"duration":0.042856999999997925,"midi":55,"time":138.470967,"velocity":0.3937007874015748},{"duration":0.042856999999997925,"midi":55,"time":138.556681,"velocity":0.3937007874015748},{"duration":0.042856999999997925,"midi":43,"time":138.556681,"velocity":0.3937007874015748},{"duration":0.042856999999997925,"midi":43,"time":138.642395,"velocity":0.3937007874015748},{"duration":0.042856999999997925,"midi":55,"time":138.642395,"velocity":0.3937007874015748},{"duration":0.042856999999997925,"midi":55,"time":138.728109,"velocity":0.3937007874015748},{"duration":0.042856999999997925,"midi":43,"time":138.728109,"velocity":0.3937007874015748},{"duration":0.042857000000026346,"midi":55,"time":138.81382299999999,"velocity":0.3937007874015748},{"duration":0.042857000000026346,"midi":43,"time":138.81382299999999,"velocity":0.3937007874015748},{"duration":0.042856999999997925,"midi":55,"time":138.899537,"velocity":0.3937007874015748},{"duration":0.042856999999997925,"midi":43,"time":138.899537,"velocity":0.3937007874015748},{"duration":0.042856999999997925,"midi":55,"time":138.985251,"velocity":0.3937007874015748},{"duration":0.042856999999997925,"midi":43,"time":138.985251,"velocity":0.3937007874015748},{"duration":0.042856999999997925,"midi":43,"time":139.070965,"velocity":0.3937007874015748},{"duration":0.042856999999997925,"midi":55,"time":139.070965,"velocity":0.3937007874015748},{"duration":0.042856999999997925,"midi":41,"time":139.156679,"velocity":0.3937007874015748},{"duration":0.042856999999997925,"midi":53,"time":139.156679,"velocity":0.3937007874015748},{"duration":0.042856999999997925,"midi":41,"time":139.242393,"velocity":0.3937007874015748},{"duration":0.042856999999997925,"midi":53,"time":139.242393,"velocity":0.3937007874015748},{"duration":0.042856999999997925,"midi":53,"time":139.328107,"velocity":0.3937007874015748},{"duration":0.042856999999997925,"midi":41,"time":139.328107,"velocity":0.3937007874015748},{"duration":0.042857000000026346,"midi":53,"time":139.41382099999998,"velocity":0.3937007874015748},{"duration":0.042857000000026346,"midi":41,"time":139.41382099999998,"velocity":0.3937007874015748},{"duration":0.042856999999997925,"midi":41,"time":139.499535,"velocity":0.3937007874015748},{"duration":0.042856999999997925,"midi":53,"time":139.499535,"velocity":0.3937007874015748},{"duration":0.042856999999997925,"midi":41,"time":139.585249,"velocity":0.3937007874015748},{"duration":0.042856999999997925,"midi":53,"time":139.585249,"velocity":0.3937007874015748},{"duration":0.042856999999997925,"midi":41,"time":139.670963,"velocity":0.3937007874015748},{"duration":0.042856999999997925,"midi":53,"time":139.670963,"velocity":0.3937007874015748},{"duration":0.042856999999997925,"midi":53,"time":139.756677,"velocity":0.3937007874015748},{"duration":0.042856999999997925,"midi":41,"time":139.756677,"velocity":0.3937007874015748},{"duration":0.042856999999997925,"midi":43,"time":139.842391,"velocity":0.3937007874015748},{"duration":0.042856999999997925,"midi":55,"time":139.842391,"velocity":0.3937007874015748},{"duration":0.042856999999997925,"midi":43,"time":139.928105,"velocity":0.3937007874015748},{"duration":0.042856999999997925,"midi":55,"time":139.928105,"velocity":0.3937007874015748},{"duration":0.042857000000026346,"midi":55,"time":140.01381899999998,"velocity":0.3937007874015748},{"duration":0.042857000000026346,"midi":43,"time":140.01381899999998,"velocity":0.3937007874015748},{"duration":0.042856999999997925,"midi":55,"time":140.099533,"velocity":0.3937007874015748},{"duration":0.042856999999997925,"midi":43,"time":140.099533,"velocity":0.3937007874015748},{"duration":0.042856999999997925,"midi":55,"time":140.185247,"velocity":0.3937007874015748},{"duration":0.042856999999997925,"midi":43,"time":140.185247,"velocity":0.3937007874015748},{"duration":0.042856999999997925,"midi":55,"time":140.270961,"velocity":0.3937007874015748},{"duration":0.042856999999997925,"midi":43,"time":140.270961,"velocity":0.3937007874015748},{"duration":0.042856999999997925,"midi":55,"time":140.356675,"velocity":0.3937007874015748},{"duration":0.042856999999997925,"midi":43,"time":140.356675,"velocity":0.3937007874015748},{"duration":0.042856999999997925,"midi":55,"time":140.442389,"velocity":0.3937007874015748},{"duration":0.042856999999997925,"midi":43,"time":140.442389,"velocity":0.3937007874015748},{"duration":0.042856999999997925,"midi":51,"time":140.528103,"velocity":0.3937007874015748},{"duration":0.042856999999997925,"midi":39,"time":140.528103,"velocity":0.3937007874015748},{"duration":0.042856999999997925,"midi":51,"time":140.613817,"velocity":0.3937007874015748},{"duration":0.042856999999997925,"midi":39,"time":140.613817,"velocity":0.3937007874015748},{"duration":0.042856999999997925,"midi":51,"time":140.699531,"velocity":0.3937007874015748},{"duration":0.042856999999997925,"midi":39,"time":140.699531,"velocity":0.3937007874015748},{"duration":0.042856999999997925,"midi":51,"time":140.785245,"velocity":0.3937007874015748},{"duration":0.042856999999997925,"midi":39,"time":140.785245,"velocity":0.3937007874015748},{"duration":0.042856999999997925,"midi":51,"time":140.870959,"velocity":0.3937007874015748},{"duration":0.042856999999997925,"midi":39,"time":140.870959,"velocity":0.3937007874015748},{"duration":0.042856999999997925,"midi":51,"time":140.956673,"velocity":0.3937007874015748},{"duration":0.042856999999997925,"midi":39,"time":140.956673,"velocity":0.3937007874015748},{"duration":0.042856999999997925,"midi":39,"time":141.042387,"velocity":0.3937007874015748},{"duration":0.042856999999997925,"midi":51,"time":141.042387,"velocity":0.3937007874015748},{"duration":0.042856999999997925,"midi":39,"time":141.128101,"velocity":0.3937007874015748},{"duration":0.042856999999997925,"midi":51,"time":141.128101,"velocity":0.3937007874015748},{"duration":0.042856999999997925,"midi":36,"time":141.213815,"velocity":0.3937007874015748},{"duration":0.042856999999997925,"midi":48,"time":141.213815,"velocity":0.3937007874015748},{"duration":0.042856999999997925,"midi":36,"time":141.299529,"velocity":0.3937007874015748},{"duration":0.042856999999997925,"midi":48,"time":141.299529,"velocity":0.3937007874015748},{"duration":0.042856999999997925,"midi":48,"time":141.385243,"velocity":0.3937007874015748},{"duration":0.042856999999997925,"midi":36,"time":141.385243,"velocity":0.3937007874015748},{"duration":0.042856999999997925,"midi":36,"time":141.470957,"velocity":0.3937007874015748},{"duration":0.042856999999997925,"midi":48,"time":141.470957,"velocity":0.3937007874015748},{"duration":0.042856999999997925,"midi":36,"time":141.556671,"velocity":0.3937007874015748},{"duration":0.042856999999997925,"midi":48,"time":141.556671,"velocity":0.3937007874015748},{"duration":0.042856999999997925,"midi":36,"time":141.642385,"velocity":0.3937007874015748},{"duration":0.042856999999997925,"midi":48,"time":141.642385,"velocity":0.3937007874015748},{"duration":0.042856999999997925,"midi":36,"time":141.728099,"velocity":0.3937007874015748},{"duration":0.042856999999997925,"midi":48,"time":141.728099,"velocity":0.3937007874015748},{"duration":0.042856999999997925,"midi":36,"time":141.813813,"velocity":0.3937007874015748},{"duration":0.042856999999997925,"midi":48,"time":141.813813,"velocity":0.3937007874015748},{"duration":0.042856999999997925,"midi":42,"time":141.899527,"velocity":0.3937007874015748},{"duration":0.042856999999997925,"midi":54,"time":141.899527,"velocity":0.3937007874015748},{"duration":0.042856999999997925,"midi":42,"time":141.985241,"velocity":0.3937007874015748},{"duration":0.042856999999997925,"midi":54,"time":141.985241,"velocity":0.3937007874015748},{"duration":0.042856999999997925,"midi":54,"time":142.070955,"velocity":0.3937007874015748},{"duration":0.042856999999997925,"midi":42,"time":142.070955,"velocity":0.3937007874015748},{"duration":0.042856999999997925,"midi":54,"time":142.156669,"velocity":0.3937007874015748},{"duration":0.042856999999997925,"midi":42,"time":142.156669,"velocity":0.3937007874015748},{"duration":0.042856999999997925,"midi":50,"time":142.242383,"velocity":0.3937007874015748},{"duration":0.042856999999997925,"midi":38,"time":142.242383,"velocity":0.3937007874015748},{"duration":0.042856999999997925,"midi":38,"time":142.32809699999999,"velocity":0.3937007874015748},{"duration":0.042856999999997925,"midi":50,"time":142.32809699999999,"velocity":0.3937007874015748},{"duration":0.042856999999997925,"midi":38,"time":142.413811,"velocity":0.3937007874015748},{"duration":0.042856999999997925,"midi":50,"time":142.413811,"velocity":0.3937007874015748},{"duration":0.042856999999997925,"midi":38,"time":142.499525,"velocity":0.3937007874015748},{"duration":0.042856999999997925,"midi":50,"time":142.499525,"velocity":0.3937007874015748},{"duration":0.042856999999997925,"midi":43,"time":142.585239,"velocity":0.3937007874015748},{"duration":0.042856999999997925,"midi":55,"time":142.585239,"velocity":0.3937007874015748},{"duration":0.042856999999997925,"midi":55,"time":142.670953,"velocity":0.3937007874015748},{"duration":0.042856999999997925,"midi":43,"time":142.670953,"velocity":0.3937007874015748},{"duration":0.042856999999997925,"midi":43,"time":142.756667,"velocity":0.3937007874015748},{"duration":0.042856999999997925,"midi":55,"time":142.756667,"velocity":0.3937007874015748},{"duration":0.042856999999997925,"midi":43,"time":142.842381,"velocity":0.3937007874015748},{"duration":0.042856999999997925,"midi":55,"time":142.842381,"velocity":0.3937007874015748},{"duration":0.042857000000026346,"midi":59,"time":142.92809499999998,"velocity":0.3937007874015748},{"duration":0.042857000000026346,"midi":47,"time":142.92809499999998,"velocity":0.3937007874015748},{"duration":0.042856999999997925,"midi":59,"time":143.013809,"velocity":0.3937007874015748},{"duration":0.042856999999997925,"midi":47,"time":143.013809,"velocity":0.3937007874015748},{"duration":0.042856999999997925,"midi":59,"time":143.099523,"velocity":0.3937007874015748},{"duration":0.042856999999997925,"midi":47,"time":143.099523,"velocity":0.3937007874015748},{"duration":0.042856999999997925,"midi":47,"time":143.185237,"velocity":0.3937007874015748},{"duration":0.042856999999997925,"midi":59,"time":143.185237,"velocity":0.3937007874015748},{"duration":0.042856999999997925,"midi":48,"time":143.270951,"velocity":0.3937007874015748},{"duration":0.042856999999997925,"midi":60,"time":143.270951,"velocity":0.3937007874015748},{"duration":0.042856999999997925,"midi":60,"time":143.356665,"velocity":0.3937007874015748},{"duration":0.042856999999997925,"midi":48,"time":143.356665,"velocity":0.3937007874015748},{"duration":0.042856999999997925,"midi":48,"time":143.442379,"velocity":0.3937007874015748},{"duration":0.042856999999997925,"midi":60,"time":143.442379,"velocity":0.3937007874015748},{"duration":0.042857000000026346,"midi":48,"time":143.52809299999998,"velocity":0.3937007874015748},{"duration":0.042857000000026346,"midi":60,"time":143.52809299999998,"velocity":0.3937007874015748},{"duration":0.042856999999997925,"midi":55,"time":143.613807,"velocity":0.3937007874015748},{"duration":0.042856999999997925,"midi":43,"time":143.613807,"velocity":0.3937007874015748},{"duration":0.042856999999997925,"midi":43,"time":143.699521,"velocity":0.3937007874015748},{"duration":0.042856999999997925,"midi":55,"time":143.699521,"velocity":0.3937007874015748},{"duration":0.042856999999997925,"midi":55,"time":143.785235,"velocity":0.3937007874015748},{"duration":0.042856999999997925,"midi":43,"time":143.785235,"velocity":0.3937007874015748},{"duration":0.042856999999997925,"midi":43,"time":143.870949,"velocity":0.3937007874015748},{"duration":0.042856999999997925,"midi":55,"time":143.870949,"velocity":0.3937007874015748},{"duration":0.042856999999997925,"midi":48,"time":143.956663,"velocity":0.3937007874015748},{"duration":0.042856999999997925,"midi":48,"time":144.042377,"velocity":0.3937007874015748},{"duration":0.042857000000026346,"midi":48,"time":144.12809099999998,"velocity":0.3937007874015748},{"duration":0.042856999999997925,"midi":48,"time":144.213805,"velocity":0.3937007874015748},{"duration":0.042856999999997925,"midi":48,"time":144.299519,"velocity":0.3937007874015748},{"duration":0.042856999999997925,"midi":48,"time":144.385233,"velocity":0.3937007874015748},{"duration":0.042856999999997925,"midi":48,"time":144.470947,"velocity":0.3937007874015748},{"duration":0.042856999999997925,"midi":48,"time":144.556661,"velocity":0.3937007874015748}]},{"instrument":{"family":"bass","number":32,"name":"acoustic bass"},"notes":[{"duration":0.042857000000000145,"midi":36,"time":2.057136,"velocity":0.3937007874015748},{"duration":0.0428569999999997,"midi":36,"time":2.14285,"velocity":0.3937007874015748},{"duration":0.042857000000000145,"midi":36,"time":2.228564,"velocity":0.3937007874015748},{"duration":0.042857000000000145,"midi":36,"time":2.314278,"velocity":0.3937007874015748},{"duration":0.0428569999999997,"midi":36,"time":2.399992,"velocity":0.3937007874015748},{"duration":0.042857000000000145,"midi":36,"time":2.485706,"velocity":0.3937007874015748},{"duration":0.042857000000000145,"midi":36,"time":2.57142,"velocity":0.3937007874015748},{"duration":0.0428569999999997,"midi":36,"time":2.657134,"velocity":0.3937007874015748},{"duration":0.042857000000000145,"midi":36,"time":2.742848,"velocity":0.3937007874015748},{"duration":0.042857000000000145,"midi":36,"time":2.828562,"velocity":0.3937007874015748},{"duration":0.0428569999999997,"midi":36,"time":2.914276,"velocity":0.3937007874015748},{"duration":0.042857000000000145,"midi":36,"time":2.99999,"velocity":0.3937007874015748},{"duration":0.042857000000000145,"midi":36,"time":3.085704,"velocity":0.3937007874015748},{"duration":0.0428569999999997,"midi":36,"time":3.171418,"velocity":0.3937007874015748},{"duration":0.042857000000000145,"midi":36,"time":3.257132,"velocity":0.3937007874015748},{"duration":0.042857000000000145,"midi":36,"time":3.3428459999999998,"velocity":0.3937007874015748},{"duration":0.0428569999999997,"midi":35,"time":3.42856,"velocity":0.3937007874015748},{"duration":0.042857000000000145,"midi":35,"time":3.514274,"velocity":0.3937007874015748},{"duration":0.042857000000000145,"midi":35,"time":3.5999879999999997,"velocity":0.3937007874015748},{"duration":0.0428569999999997,"midi":35,"time":3.685702,"velocity":0.3937007874015748},{"duration":0.042857000000000145,"midi":35,"time":3.771416,"velocity":0.3937007874015748},{"duration":0.042857000000000145,"midi":35,"time":3.8571299999999997,"velocity":0.3937007874015748},{"duration":0.0428569999999997,"midi":35,"time":3.942844,"velocity":0.3937007874015748},{"duration":0.0428569999999997,"midi":35,"time":4.028558,"velocity":0.3937007874015748},{"duration":0.04285700000000059,"midi":35,"time":4.114272,"velocity":0.3937007874015748},{"duration":0.0428569999999997,"midi":35,"time":4.199986,"velocity":0.3937007874015748},{"duration":0.0428569999999997,"midi":35,"time":4.2857,"velocity":0.3937007874015748},{"duration":0.04285700000000059,"midi":35,"time":4.371414,"velocity":0.3937007874015748},{"duration":0.0428569999999997,"midi":35,"time":4.457128,"velocity":0.3937007874015748},{"duration":0.0428569999999997,"midi":35,"time":4.542842,"velocity":0.3937007874015748},{"duration":0.04285700000000059,"midi":35,"time":4.628556,"velocity":0.3937007874015748},{"duration":0.0428569999999997,"midi":35,"time":4.71427,"velocity":0.3937007874015748},{"duration":0.0428569999999997,"midi":36,"time":4.799984,"velocity":0.3937007874015748},{"duration":0.04285700000000059,"midi":36,"time":4.885698,"velocity":0.3937007874015748},{"duration":0.0428569999999997,"midi":36,"time":4.971412,"velocity":0.3937007874015748},{"duration":0.0428569999999997,"midi":36,"time":5.057126,"velocity":0.3937007874015748},{"duration":0.04285700000000059,"midi":36,"time":5.14284,"velocity":0.3937007874015748},{"duration":0.0428569999999997,"midi":36,"time":5.228554,"velocity":0.3937007874015748},{"duration":0.0428569999999997,"midi":36,"time":5.314268,"velocity":0.3937007874015748},{"duration":0.04285700000000059,"midi":36,"time":5.399982,"velocity":0.3937007874015748},{"duration":0.0428569999999997,"midi":40,"time":5.485696,"velocity":0.3937007874015748},{"duration":0.0428569999999997,"midi":40,"time":5.57141,"velocity":0.3937007874015748},{"duration":0.04285700000000059,"midi":40,"time":5.657124,"velocity":0.3937007874015748},{"duration":0.0428569999999997,"midi":40,"time":5.742838,"velocity":0.3937007874015748},{"duration":0.0428569999999997,"midi":40,"time":5.828552,"velocity":0.3937007874015748},{"duration":0.04285700000000059,"midi":40,"time":5.914266,"velocity":0.3937007874015748},{"duration":0.0428569999999997,"midi":40,"time":5.99998,"velocity":0.3937007874015748},{"duration":0.0428569999999997,"midi":40,"time":6.085694,"velocity":0.3937007874015748},{"duration":0.04285700000000059,"midi":41,"time":6.171408,"velocity":0.3937007874015748},{"duration":0.0428569999999997,"midi":41,"time":6.257122,"velocity":0.3937007874015748},{"duration":0.0428569999999997,"midi":41,"time":6.342836,"velocity":0.3937007874015748},{"duration":0.04285700000000059,"midi":41,"time":6.4285499999999995,"velocity":0.3937007874015748},{"duration":0.0428569999999997,"midi":41,"time":6.514264,"velocity":0.3937007874015748},{"duration":0.0428569999999997,"midi":41,"time":6.599978,"velocity":0.3937007874015748},{"duration":0.04285700000000059,"midi":41,"time":6.6856919999999995,"velocity":0.3937007874015748},{"duration":0.0428569999999997,"midi":41,"time":6.771406,"velocity":0.3937007874015748},{"duration":0.0428569999999997,"midi":41,"time":6.85712,"velocity":0.3937007874015748},{"duration":0.04285700000000059,"midi":41,"time":6.9428339999999995,"velocity":0.3937007874015748},{"duration":0.0428569999999997,"midi":41,"time":7.028548,"velocity":0.3937007874015748},{"duration":0.0428569999999997,"midi":41,"time":7.114262,"velocity":0.3937007874015748},{"duration":0.04285700000000059,"midi":41,"time":7.1999759999999995,"velocity":0.3937007874015748},{"duration":0.0428569999999997,"midi":41,"time":7.28569,"velocity":0.3937007874015748},{"duration":0.0428569999999997,"midi":41,"time":7.371404,"velocity":0.3937007874015748},{"duration":0.04285700000000059,"midi":41,"time":7.4571179999999995,"velocity":0.3937007874015748},{"duration":0.0428569999999997,"midi":38,"time":7.542832,"velocity":0.3937007874015748},{"duration":0.0428569999999997,"midi":38,"time":7.628546,"velocity":0.3937007874015748},{"duration":0.04285700000000059,"midi":38,"time":7.7142599999999995,"velocity":0.3937007874015748},{"duration":0.0428569999999997,"midi":38,"time":7.799974,"velocity":0.3937007874015748},{"duration":0.0428569999999997,"midi":38,"time":7.885688,"velocity":0.3937007874015748},{"duration":0.0428569999999997,"midi":38,"time":7.971401999999999,"velocity":0.3937007874015748},{"duration":0.0428569999999997,"midi":38,"time":8.057116,"velocity":0.3937007874015748},{"duration":0.0428569999999997,"midi":38,"time":8.14283,"velocity":0.3937007874015748},{"duration":0.0428569999999997,"midi":35,"time":8.228544,"velocity":0.3937007874015748},{"duration":0.0428569999999997,"midi":35,"time":8.314258,"velocity":0.3937007874015748},{"duration":0.0428569999999997,"midi":35,"time":8.399972,"velocity":0.3937007874015748},{"duration":0.0428569999999997,"midi":35,"time":8.485686,"velocity":0.3937007874015748},{"duration":0.0428569999999997,"midi":35,"time":8.5714,"velocity":0.3937007874015748},{"duration":0.0428569999999997,"midi":35,"time":8.657114,"velocity":0.3937007874015748},{"duration":0.0428569999999997,"midi":35,"time":8.742828,"velocity":0.3937007874015748},{"duration":0.0428569999999997,"midi":35,"time":8.828542,"velocity":0.3937007874015748},{"duration":0.0428569999999997,"midi":36,"time":8.914256,"velocity":0.3937007874015748},{"duration":0.0428569999999997,"midi":36,"time":8.99997,"velocity":0.3937007874015748},{"duration":0.0428569999999997,"midi":36,"time":9.085684,"velocity":0.3937007874015748},{"duration":0.0428569999999997,"midi":36,"time":9.171398,"velocity":0.3937007874015748},{"duration":0.0428569999999997,"midi":34,"time":9.257112,"velocity":0.3937007874015748},{"duration":0.0428569999999997,"midi":34,"time":9.342826,"velocity":0.3937007874015748},{"duration":0.0428569999999997,"midi":34,"time":9.42854,"velocity":0.3937007874015748},{"duration":0.0428569999999997,"midi":34,"time":9.514254,"velocity":0.3937007874015748},{"duration":0.0428569999999997,"midi":33,"time":9.599968,"velocity":0.3937007874015748},{"duration":0.0428569999999997,"midi":33,"time":9.685682,"velocity":0.3937007874015748},{"duration":0.0428569999999997,"midi":33,"time":9.771396,"velocity":0.3937007874015748},{"duration":0.0428569999999997,"midi":33,"time":9.85711,"velocity":0.3937007874015748},{"duration":0.0428569999999997,"midi":33,"time":9.942824,"velocity":0.3937007874015748},{"duration":0.0428569999999997,"midi":33,"time":10.028538,"velocity":0.3937007874015748},{"duration":0.0428569999999997,"midi":33,"time":10.114252,"velocity":0.3937007874015748},{"duration":0.0428569999999997,"midi":33,"time":10.199966,"velocity":0.3937007874015748},{"duration":0.0428569999999997,"midi":38,"time":10.28568,"velocity":0.3937007874015748},{"duration":0.0428569999999997,"midi":38,"time":10.371394,"velocity":0.3937007874015748},{"duration":0.0428569999999997,"midi":38,"time":10.457108,"velocity":0.3937007874015748},{"duration":0.0428569999999997,"midi":38,"time":10.542822,"velocity":0.3937007874015748},{"duration":0.0428569999999997,"midi":38,"time":10.628536,"velocity":0.3937007874015748},{"duration":0.0428569999999997,"midi":38,"time":10.71425,"velocity":0.3937007874015748},{"duration":0.0428569999999997,"midi":38,"time":10.799964,"velocity":0.3937007874015748},{"duration":0.0428569999999997,"midi":38,"time":10.885678,"velocity":0.3937007874015748},{"duration":0.0428569999999997,"midi":32,"time":10.971392,"velocity":0.3937007874015748},{"duration":0.04285700000000148,"midi":32,"time":11.057106,"velocity":0.3937007874015748},{"duration":0.0428569999999997,"midi":32,"time":11.14282,"velocity":0.3937007874015748},{"duration":0.0428569999999997,"midi":32,"time":11.228534,"velocity":0.3937007874015748},{"duration":0.04285700000000148,"midi":32,"time":11.314248,"velocity":0.3937007874015748},{"duration":0.0428569999999997,"midi":32,"time":11.399962,"velocity":0.3937007874015748},{"duration":0.0428569999999997,"midi":32,"time":11.485676,"velocity":0.3937007874015748},{"duration":0.04285700000000148,"midi":32,"time":11.57139,"velocity":0.3937007874015748},{"duration":0.0428569999999997,"midi":30,"time":11.657104,"velocity":0.3937007874015748},{"duration":0.0428569999999997,"midi":30,"time":11.742818,"velocity":0.3937007874015748},{"duration":0.04285700000000148,"midi":30,"time":11.828532,"velocity":0.3937007874015748},{"duration":0.0428569999999997,"midi":30,"time":11.914246,"velocity":0.3937007874015748},{"duration":0.0428569999999997,"midi":31,"time":11.99996,"velocity":0.3937007874015748},{"duration":0.04285700000000148,"midi":31,"time":12.085674,"velocity":0.3937007874015748},{"duration":0.0428569999999997,"midi":31,"time":12.171388,"velocity":0.3937007874015748},{"duration":0.0428569999999997,"midi":31,"time":12.257102,"velocity":0.3937007874015748},{"duration":0.04285700000000148,"midi":31,"time":12.342816,"velocity":0.3937007874015748},{"duration":0.0428569999999997,"midi":31,"time":12.42853,"velocity":0.3937007874015748},{"duration":0.0428569999999997,"midi":31,"time":12.514244,"velocity":0.3937007874015748},{"duration":0.04285700000000148,"midi":31,"time":12.599957999999999,"velocity":0.3937007874015748},{"duration":0.0428569999999997,"midi":31,"time":12.685672,"velocity":0.3937007874015748},{"duration":0.0428569999999997,"midi":31,"time":12.771386,"velocity":0.3937007874015748},{"duration":0.04285700000000148,"midi":31,"time":12.857099999999999,"velocity":0.3937007874015748},{"duration":0.0428569999999997,"midi":31,"time":12.942814,"velocity":0.3937007874015748},{"duration":0.0428569999999997,"midi":36,"time":13.028528,"velocity":0.3937007874015748},{"duration":0.04285700000000148,"midi":36,"time":13.114241999999999,"velocity":0.3937007874015748},{"duration":0.0428569999999997,"midi":36,"time":13.199956,"velocity":0.3937007874015748},{"duration":0.0428569999999997,"midi":36,"time":13.28567,"velocity":0.3937007874015748},{"duration":0.04285700000000148,"midi":36,"time":13.371383999999999,"velocity":0.3937007874015748},{"duration":0.0428569999999997,"midi":36,"time":13.457098,"velocity":0.3937007874015748},{"duration":0.0428569999999997,"midi":36,"time":13.542812,"velocity":0.3937007874015748},{"duration":0.04285700000000148,"midi":36,"time":13.628525999999999,"velocity":0.3937007874015748},{"duration":0.0428569999999997,"midi":36,"time":13.71424,"velocity":0.3937007874015748},{"duration":0.0428569999999997,"midi":36,"time":13.799954,"velocity":0.3937007874015748},{"duration":0.04285700000000148,"midi":36,"time":13.885667999999999,"velocity":0.3937007874015748},{"duration":0.0428569999999997,"midi":36,"time":13.971382,"velocity":0.3937007874015748},{"duration":0.0428569999999997,"midi":36,"time":14.057096,"velocity":0.3937007874015748},{"duration":0.04285700000000148,"midi":36,"time":14.142809999999999,"velocity":0.3937007874015748},{"duration":0.0428569999999997,"midi":36,"time":14.228524,"velocity":0.3937007874015748},{"duration":0.0428569999999997,"midi":36,"time":14.314238,"velocity":0.3937007874015748},{"duration":0.04285700000000148,"midi":35,"time":14.399951999999999,"velocity":0.3937007874015748},{"duration":0.0428569999999997,"midi":35,"time":14.485666,"velocity":0.3937007874015748},{"duration":0.0428569999999997,"midi":35,"time":14.57138,"velocity":0.3937007874015748},{"duration":0.04285700000000148,"midi":35,"time":14.657093999999999,"velocity":0.3937007874015748},{"duration":0.0428569999999997,"midi":35,"time":14.742808,"velocity":0.3937007874015748},{"duration":0.0428569999999997,"midi":35,"time":14.828522,"velocity":0.3937007874015748},{"duration":0.04285700000000148,"midi":35,"time":14.914235999999999,"velocity":0.3937007874015748},{"duration":0.0428569999999997,"midi":35,"time":14.99995,"velocity":0.3937007874015748},{"duration":0.0428569999999997,"midi":35,"time":15.085664,"velocity":0.3937007874015748},{"duration":0.04285700000000148,"midi":35,"time":15.171377999999999,"velocity":0.3937007874015748},{"duration":0.0428569999999997,"midi":35,"time":15.257092,"velocity":0.3937007874015748},{"duration":0.0428569999999997,"midi":35,"time":15.342806,"velocity":0.3937007874015748},{"duration":0.04285700000000148,"midi":35,"time":15.428519999999999,"velocity":0.3937007874015748},{"duration":0.0428569999999997,"midi":35,"time":15.514234,"velocity":0.3937007874015748},{"duration":0.0428569999999997,"midi":35,"time":15.599948,"velocity":0.3937007874015748},{"duration":0.04285700000000148,"midi":35,"time":15.685661999999999,"velocity":0.3937007874015748},{"duration":0.0428569999999997,"midi":36,"time":15.771376,"velocity":0.3937007874015748},{"duration":0.0428569999999997,"midi":36,"time":15.85709,"velocity":0.3937007874015748},{"duration":0.04285700000000148,"midi":36,"time":15.942803999999999,"velocity":0.3937007874015748},{"duration":0.04285700000000148,"midi":36,"time":16.028518,"velocity":0.3937007874015748},{"duration":0.042856999999997925,"midi":36,"time":16.114232,"velocity":0.3937007874015748},{"duration":0.042856999999997925,"midi":36,"time":16.199946,"velocity":0.3937007874015748},{"duration":0.042856999999997925,"midi":36,"time":16.28566,"velocity":0.3937007874015748},{"duration":0.04285700000000148,"midi":36,"time":16.371374,"velocity":0.3937007874015748},{"duration":0.04285700000000148,"midi":40,"time":16.457088,"velocity":0.3937007874015748},{"duration":0.04285700000000148,"midi":40,"time":16.542802,"velocity":0.3937007874015748},{"duration":0.042856999999997925,"midi":40,"time":16.628516,"velocity":0.3937007874015748},{"duration":0.042856999999997925,"midi":40,"time":16.71423,"velocity":0.3937007874015748},{"duration":0.04285700000000148,"midi":40,"time":16.799944,"velocity":0.3937007874015748},{"duration":0.04285700000000148,"midi":40,"time":16.885658,"velocity":0.3937007874015748},{"duration":0.04285700000000148,"midi":40,"time":16.971372,"velocity":0.3937007874015748},{"duration":0.04285700000000148,"midi":40,"time":17.057085999999998,"velocity":0.3937007874015748},{"duration":0.042856999999997925,"midi":41,"time":17.1428,"velocity":0.3937007874015748},{"duration":0.042856999999997925,"midi":41,"time":17.228514,"velocity":0.3937007874015748},{"duration":0.04285700000000148,"midi":41,"time":17.314228,"velocity":0.3937007874015748},{"duration":0.04285700000000148,"midi":41,"time":17.399942,"velocity":0.3937007874015748},{"duration":0.04285700000000148,"midi":41,"time":17.485656,"velocity":0.3937007874015748},{"duration":0.04285700000000148,"midi":41,"time":17.571369999999998,"velocity":0.3937007874015748},{"duration":0.042856999999997925,"midi":41,"time":17.657084,"velocity":0.3937007874015748},{"duration":0.042856999999997925,"midi":41,"time":17.742798,"velocity":0.3937007874015748},{"duration":0.04285700000000148,"midi":41,"time":17.828512,"velocity":0.3937007874015748},{"duration":0.04285700000000148,"midi":41,"time":17.914226,"velocity":0.3937007874015748},{"duration":0.04285700000000148,"midi":41,"time":17.99994,"velocity":0.3937007874015748},{"duration":0.04285700000000148,"midi":41,"time":18.085653999999998,"velocity":0.3937007874015748},{"duration":0.042856999999997925,"midi":41,"time":18.171368,"velocity":0.3937007874015748},{"duration":0.042856999999997925,"midi":41,"time":18.257082,"velocity":0.3937007874015748},{"duration":0.04285700000000148,"midi":41,"time":18.342796,"velocity":0.3937007874015748},{"duration":0.04285700000000148,"midi":41,"time":18.42851,"velocity":0.3937007874015748},{"duration":0.04285700000000148,"midi":38,"time":18.514224,"velocity":0.3937007874015748},{"duration":0.04285700000000148,"midi":38,"time":18.599937999999998,"velocity":0.3937007874015748},{"duration":0.042856999999997925,"midi":38,"time":18.685652,"velocity":0.3937007874015748},{"duration":0.042856999999997925,"midi":38,"time":18.771366,"velocity":0.3937007874015748},{"duration":0.04285700000000148,"midi":38,"time":18.85708,"velocity":0.3937007874015748},{"duration":0.04285700000000148,"midi":38,"time":18.942794,"velocity":0.3937007874015748},{"duration":0.04285700000000148,"midi":38,"time":19.028508,"velocity":0.3937007874015748},{"duration":0.04285700000000148,"midi":38,"time":19.114221999999998,"velocity":0.3937007874015748},{"duration":0.042856999999997925,"midi":35,"time":19.199936,"velocity":0.3937007874015748},{"duration":0.042856999999997925,"midi":35,"time":19.28565,"velocity":0.3937007874015748},{"duration":0.04285700000000148,"midi":35,"time":19.371364,"velocity":0.3937007874015748},{"duration":0.04285700000000148,"midi":35,"time":19.457078,"velocity":0.3937007874015748},{"duration":0.04285700000000148,"midi":35,"time":19.542792,"velocity":0.3937007874015748},{"duration":0.04285700000000148,"midi":35,"time":19.628505999999998,"velocity":0.3937007874015748},{"duration":0.042856999999997925,"midi":35,"time":19.71422,"velocity":0.3937007874015748},{"duration":0.042856999999997925,"midi":35,"time":19.799934,"velocity":0.3937007874015748},{"duration":0.04285700000000148,"midi":36,"time":19.885648,"velocity":0.3937007874015748},{"duration":0.04285700000000148,"midi":36,"time":19.971362,"velocity":0.3937007874015748},{"duration":0.04285700000000148,"midi":36,"time":20.057076,"velocity":0.3937007874015748},{"duration":0.04285700000000148,"midi":36,"time":20.142789999999998,"velocity":0.3937007874015748},{"duration":0.042856999999997925,"midi":34,"time":20.228504,"velocity":0.3937007874015748},{"duration":0.042856999999997925,"midi":34,"time":20.314218,"velocity":0.3937007874015748},{"duration":0.04285700000000148,"midi":34,"time":20.399932,"velocity":0.3937007874015748},{"duration":0.04285700000000148,"midi":34,"time":20.485646,"velocity":0.3937007874015748},{"duration":0.04285700000000148,"midi":33,"time":20.57136,"velocity":0.3937007874015748},{"duration":0.04285700000000148,"midi":33,"time":20.657073999999998,"velocity":0.3937007874015748},{"duration":0.042856999999997925,"midi":33,"time":20.742788,"velocity":0.3937007874015748},{"duration":0.042856999999997925,"midi":33,"time":20.828502,"velocity":0.3937007874015748},{"duration":0.04285700000000148,"midi":33,"time":20.914216,"velocity":0.3937007874015748},{"duration":0.04285700000000148,"midi":33,"time":20.99993,"velocity":0.3937007874015748},{"duration":0.04285700000000148,"midi":33,"time":21.085644,"velocity":0.3937007874015748},{"duration":0.04285700000000148,"midi":33,"time":21.171357999999998,"velocity":0.3937007874015748},{"duration":0.042856999999997925,"midi":29,"time":21.257072,"velocity":0.3937007874015748},{"duration":0.042856999999997925,"midi":29,"time":21.342786,"velocity":0.3937007874015748},{"duration":0.04285700000000148,"midi":29,"time":21.4285,"velocity":0.3937007874015748},{"duration":0.04285700000000148,"midi":29,"time":21.514214,"velocity":0.3937007874015748},{"duration":0.04285700000000148,"midi":29,"time":21.599928,"velocity":0.3937007874015748},{"duration":0.04285700000000148,"midi":29,"time":21.685641999999998,"velocity":0.3937007874015748},{"duration":0.042856999999997925,"midi":29,"time":21.771356,"velocity":0.3937007874015748},{"duration":0.042856999999997925,"midi":29,"time":21.85707,"velocity":0.3937007874015748},{"duration":0.04285700000000148,"midi":31,"time":21.942784,"velocity":0.3937007874015748},{"duration":0.04285700000000148,"midi":31,"time":22.028498,"velocity":0.3937007874015748},{"duration":0.04285700000000148,"midi":31,"time":22.114212,"velocity":0.3937007874015748},{"duration":0.042856999999997925,"midi":31,"time":22.199926,"velocity":0.3937007874015748},{"duration":0.042856999999997925,"midi":31,"time":22.28564,"velocity":0.3937007874015748},{"duration":0.042856999999997925,"midi":31,"time":22.371354,"velocity":0.3937007874015748},{"duration":0.04285700000000148,"midi":31,"time":22.457068,"velocity":0.3937007874015748},{"duration":0.04285700000000148,"midi":31,"time":22.542782,"velocity":0.3937007874015748},{"duration":0.04285700000000148,"midi":36,"time":22.628496,"velocity":0.3937007874015748},{"duration":0.042856999999997925,"midi":36,"time":22.71421,"velocity":0.3937007874015748},{"duration":0.042856999999997925,"midi":36,"time":22.799924,"velocity":0.3937007874015748},{"duration":0.042856999999997925,"midi":36,"time":22.885638,"velocity":0.3937007874015748},{"duration":0.04285700000000148,"midi":36,"time":22.971352,"velocity":0.3937007874015748},{"duration":0.04285700000000148,"midi":36,"time":23.057066,"velocity":0.3937007874015748},{"duration":0.04285700000000148,"midi":36,"time":23.14278,"velocity":0.3937007874015748},{"duration":0.042856999999997925,"midi":36,"time":23.228494,"velocity":0.3937007874015748},{"duration":0.042856999999997925,"midi":36,"time":23.314208,"velocity":0.3937007874015748},{"duration":0.042856999999997925,"midi":36,"time":23.399922,"velocity":0.3937007874015748},{"duration":0.04285700000000148,"midi":36,"time":23.485636,"velocity":0.3937007874015748},{"duration":0.04285700000000148,"midi":36,"time":23.57135,"velocity":0.3937007874015748},{"duration":0.04285700000000148,"midi":36,"time":23.657064,"velocity":0.3937007874015748},{"duration":0.042856999999997925,"midi":36,"time":23.742778,"velocity":0.3937007874015748},{"duration":0.042856999999997925,"midi":36,"time":23.828492,"velocity":0.3937007874015748},{"duration":0.042856999999997925,"midi":36,"time":23.914206,"velocity":0.3937007874015748},{"duration":0.04285700000000148,"midi":36,"time":23.99992,"velocity":0.3937007874015748},{"duration":0.04285700000000148,"midi":36,"time":24.085634,"velocity":0.3937007874015748},{"duration":0.04285700000000148,"midi":36,"time":24.171348,"velocity":0.3937007874015748},{"duration":0.042856999999997925,"midi":36,"time":24.257062,"velocity":0.3937007874015748},{"duration":0.042856999999997925,"midi":36,"time":24.342776,"velocity":0.3937007874015748},{"duration":0.042856999999997925,"midi":36,"time":24.42849,"velocity":0.3937007874015748},{"duration":0.04285700000000148,"midi":36,"time":24.514204,"velocity":0.3937007874015748},{"duration":0.04285700000000148,"midi":36,"time":24.599918,"velocity":0.3937007874015748},{"duration":0.04285700000000148,"midi":36,"time":24.685632,"velocity":0.3937007874015748},{"duration":0.042856999999997925,"midi":36,"time":24.771346,"velocity":0.3937007874015748},{"duration":0.042856999999997925,"midi":36,"time":24.85706,"velocity":0.3937007874015748},{"duration":0.042856999999997925,"midi":36,"time":24.942774,"velocity":0.3937007874015748},{"duration":0.04285700000000148,"midi":36,"time":25.028488,"velocity":0.3937007874015748},{"duration":0.04285700000000148,"midi":36,"time":25.114202,"velocity":0.3937007874015748},{"duration":0.04285700000000148,"midi":36,"time":25.199915999999998,"velocity":0.3937007874015748},{"duration":0.042856999999997925,"midi":36,"time":25.28563,"velocity":0.3937007874015748},{"duration":0.042856999999997925,"midi":35,"time":25.371344,"velocity":0.3937007874015748},{"duration":0.042856999999997925,"midi":35,"time":25.457058,"velocity":0.3937007874015748},{"duration":0.04285700000000148,"midi":35,"time":25.542772,"velocity":0.3937007874015748},{"duration":0.04285700000000148,"midi":35,"time":25.628486,"velocity":0.3937007874015748},{"duration":0.04285700000000148,"midi":35,"time":25.714199999999998,"velocity":0.3937007874015748},{"duration":0.042856999999997925,"midi":35,"time":25.799914,"velocity":0.3937007874015748},{"duration":0.042856999999997925,"midi":35,"time":25.885628,"velocity":0.3937007874015748},{"duration":0.042856999999997925,"midi":35,"time":25.971342,"velocity":0.3937007874015748},{"duration":0.04285700000000148,"midi":35,"time":26.057056,"velocity":0.3937007874015748},{"duration":0.04285700000000148,"midi":35,"time":26.14277,"velocity":0.3937007874015748},{"duration":0.04285700000000148,"midi":35,"time":26.228483999999998,"velocity":0.3937007874015748},{"duration":0.042856999999997925,"midi":35,"time":26.314198,"velocity":0.3937007874015748},{"duration":0.042856999999997925,"midi":35,"time":26.399912,"velocity":0.3937007874015748},{"duration":0.042856999999997925,"midi":35,"time":26.485626,"velocity":0.3937007874015748},{"duration":0.04285700000000148,"midi":35,"time":26.57134,"velocity":0.3937007874015748},{"duration":0.04285700000000148,"midi":35,"time":26.657054,"velocity":0.3937007874015748},{"duration":0.04285700000000148,"midi":36,"time":26.742767999999998,"velocity":0.3937007874015748},{"duration":0.042856999999997925,"midi":36,"time":26.828482,"velocity":0.3937007874015748},{"duration":0.042856999999997925,"midi":36,"time":26.914196,"velocity":0.3937007874015748},{"duration":0.042856999999997925,"midi":36,"time":26.99991,"velocity":0.3937007874015748},{"duration":0.04285700000000148,"midi":36,"time":27.085624,"velocity":0.3937007874015748},{"duration":0.04285700000000148,"midi":36,"time":27.171338,"velocity":0.3937007874015748},{"duration":0.04285700000000148,"midi":36,"time":27.257051999999998,"velocity":0.3937007874015748},{"duration":0.042856999999997925,"midi":36,"time":27.342766,"velocity":0.3937007874015748},{"duration":0.042856999999997925,"midi":36,"time":27.42848,"velocity":0.3937007874015748},{"duration":0.04285700000000148,"midi":36,"time":27.514194,"velocity":0.3937007874015748},{"duration":0.04285700000000148,"midi":36,"time":27.599908,"velocity":0.3937007874015748},{"duration":0.04285700000000148,"midi":36,"time":27.685622,"velocity":0.3937007874015748},{"duration":0.04285700000000148,"midi":36,"time":27.771335999999998,"velocity":0.3937007874015748},{"duration":0.042856999999997925,"midi":36,"time":27.85705,"velocity":0.3937007874015748},{"duration":0.042856999999997925,"midi":36,"time":27.942764,"velocity":0.3937007874015748},{"duration":0.04285700000000148,"midi":36,"time":28.028478,"velocity":0.3937007874015748},{"duration":0.04285700000000148,"midi":41,"time":28.114192,"velocity":0.3937007874015748},{"duration":0.04285700000000148,"midi":41,"time":28.199906,"velocity":0.3937007874015748},{"duration":0.04285700000000148,"midi":41,"time":28.285619999999998,"velocity":0.3937007874015748},{"duration":0.042856999999997925,"midi":41,"time":28.371334,"velocity":0.3937007874015748},{"duration":0.042856999999997925,"midi":41,"time":28.457048,"velocity":0.3937007874015748},{"duration":0.04285700000000148,"midi":41,"time":28.542762,"velocity":0.3937007874015748},{"duration":0.04285700000000148,"midi":41,"time":28.628476,"velocity":0.3937007874015748},{"duration":0.04285700000000148,"midi":41,"time":28.71419,"velocity":0.3937007874015748},{"duration":0.04285700000000148,"midi":41,"time":28.799903999999998,"velocity":0.3937007874015748},{"duration":0.042856999999997925,"midi":41,"time":28.885618,"velocity":0.3937007874015748},{"duration":0.042856999999997925,"midi":41,"time":28.971332,"velocity":0.3937007874015748},{"duration":0.04285700000000148,"midi":41,"time":29.057046,"velocity":0.3937007874015748},{"duration":0.04285700000000148,"midi":41,"time":29.14276,"velocity":0.3937007874015748},{"duration":0.04285700000000148,"midi":41,"time":29.228474,"velocity":0.3937007874015748},{"duration":0.04285700000000148,"midi":41,"time":29.314187999999998,"velocity":0.3937007874015748},{"duration":0.042856999999997925,"midi":41,"time":29.399902,"velocity":0.3937007874015748},{"duration":0.042856999999997925,"midi":32,"time":29.485616,"velocity":0.3937007874015748},{"duration":0.04285700000000148,"midi":32,"time":29.57133,"velocity":0.3937007874015748},{"duration":0.04285700000000148,"midi":32,"time":29.657044,"velocity":0.3937007874015748},{"duration":0.04285700000000148,"midi":32,"time":29.742758,"velocity":0.3937007874015748},{"duration":0.04285700000000148,"midi":32,"time":29.828471999999998,"velocity":0.3937007874015748},{"duration":0.042856999999997925,"midi":32,"time":29.914186,"velocity":0.3937007874015748},{"duration":0.042856999999997925,"midi":32,"time":29.9999,"velocity":0.3937007874015748},{"duration":0.04285700000000148,"midi":32,"time":30.085614,"velocity":0.3937007874015748},{"duration":0.04285700000000148,"midi":32,"time":30.171328,"velocity":0.3937007874015748},{"duration":0.04285700000000148,"midi":32,"time":30.257042,"velocity":0.3937007874015748},{"duration":0.04285700000000148,"midi":32,"time":30.342755999999998,"velocity":0.3937007874015748},{"duration":0.042856999999997925,"midi":32,"time":30.42847,"velocity":0.3937007874015748},{"duration":0.042856999999997925,"midi":32,"time":30.514184,"velocity":0.3937007874015748},{"duration":0.04285700000000148,"midi":32,"time":30.599898,"velocity":0.3937007874015748},{"duration":0.04285700000000148,"midi":32,"time":30.685612,"velocity":0.3937007874015748},{"duration":0.04285700000000148,"midi":32,"time":30.771326,"velocity":0.3937007874015748},{"duration":0.04285700000000148,"midi":36,"time":30.857039999999998,"velocity":0.3937007874015748},{"duration":0.042856999999997925,"midi":36,"time":30.942754,"velocity":0.3937007874015748},{"duration":0.042856999999997925,"midi":36,"time":31.028468,"velocity":0.3937007874015748},{"duration":0.04285700000000148,"midi":36,"time":31.114182,"velocity":0.3937007874015748},{"duration":0.04285700000000148,"midi":36,"time":31.199896,"velocity":0.3937007874015748},{"duration":0.04285700000000148,"midi":36,"time":31.28561,"velocity":0.3937007874015748},{"duration":0.04285700000000148,"midi":36,"time":31.371323999999998,"velocity":0.3937007874015748},{"duration":0.042856999999997925,"midi":36,"time":31.457038,"velocity":0.3937007874015748},{"duration":0.042856999999997925,"midi":36,"time":31.542752,"velocity":0.3937007874015748},{"duration":0.04285700000000148,"midi":36,"time":31.628466,"velocity":0.3937007874015748},{"duration":0.04285700000000148,"midi":36,"time":31.71418,"velocity":0.3937007874015748},{"duration":0.04285700000000148,"midi":36,"time":31.799894,"velocity":0.3937007874015748},{"duration":0.04285700000000148,"midi":36,"time":31.885607999999998,"velocity":0.3937007874015748},{"duration":0.042856999999997925,"midi":36,"time":31.971322,"velocity":0.3937007874015748},{"duration":0.04285700000000503,"midi":36,"time":32.057036,"velocity":0.3937007874015748},{"duration":0.042856999999997925,"midi":36,"time":32.14275,"velocity":0.3937007874015748},{"duration":0.042856999999997925,"midi":32,"time":32.228464,"velocity":0.3937007874015748},{"duration":0.042856999999997925,"midi":32,"time":32.314178,"velocity":0.3937007874015748},{"duration":0.042856999999997925,"midi":32,"time":32.399892,"velocity":0.3937007874015748},{"duration":0.04285700000000503,"midi":32,"time":32.485606,"velocity":0.3937007874015748},{"duration":0.042856999999997925,"midi":32,"time":32.57132,"velocity":0.3937007874015748},{"duration":0.04285700000000503,"midi":32,"time":32.657033999999996,"velocity":0.3937007874015748},{"duration":0.042856999999997925,"midi":32,"time":32.742748,"velocity":0.3937007874015748},{"duration":0.042856999999997925,"midi":32,"time":32.828462,"velocity":0.3937007874015748},{"duration":0.04285700000000503,"midi":32,"time":32.914176,"velocity":0.3937007874015748},{"duration":0.042856999999997925,"midi":32,"time":32.99989,"velocity":0.3937007874015748},{"duration":0.04285700000000503,"midi":32,"time":33.085604,"velocity":0.3937007874015748},{"duration":0.042856999999997925,"midi":32,"time":33.171318,"velocity":0.3937007874015748},{"duration":0.042856999999997925,"midi":32,"time":33.257032,"velocity":0.3937007874015748},{"duration":0.042856999999997925,"midi":32,"time":33.342746,"velocity":0.3937007874015748},{"duration":0.042856999999997925,"midi":32,"time":33.42846,"velocity":0.3937007874015748},{"duration":0.04285700000000503,"midi":32,"time":33.514174,"velocity":0.3937007874015748},{"duration":0.042856999999997925,"midi":36,"time":33.599888,"velocity":0.3937007874015748},{"duration":0.042856999999997925,"midi":36,"time":33.685602,"velocity":0.3937007874015748},{"duration":0.042856999999997925,"midi":36,"time":33.771316,"velocity":0.3937007874015748},{"duration":0.042856999999997925,"midi":36,"time":33.85703,"velocity":0.3937007874015748},{"duration":0.04285700000000503,"midi":36,"time":33.942744,"velocity":0.3937007874015748},{"duration":0.042856999999997925,"midi":36,"time":34.028458,"velocity":0.3937007874015748},{"duration":0.04285700000000503,"midi":36,"time":34.114171999999996,"velocity":0.3937007874015748},{"duration":0.042856999999997925,"midi":36,"time":34.199886,"velocity":0.3937007874015748},{"duration":0.042856999999997925,"midi":35,"time":34.2856,"velocity":0.3937007874015748},{"duration":0.042856999999997925,"midi":35,"time":34.371314,"velocity":0.3937007874015748},{"duration":0.042856999999997925,"midi":35,"time":34.457028,"velocity":0.3937007874015748},{"duration":0.04285700000000503,"midi":35,"time":34.542742,"velocity":0.3937007874015748},{"duration":0.042856999999997925,"midi":35,"time":34.628456,"velocity":0.3937007874015748},{"duration":0.042856999999997925,"midi":35,"time":34.71417,"velocity":0.3937007874015748},{"duration":0.042856999999997925,"midi":35,"time":34.799884,"velocity":0.3937007874015748},{"duration":0.042856999999997925,"midi":35,"time":34.885598,"velocity":0.3937007874015748},{"duration":0.04285700000000503,"midi":36,"time":34.971312,"velocity":0.3937007874015748},{"duration":0.042856999999997925,"midi":36,"time":35.057026,"velocity":0.3937007874015748},{"duration":0.04285700000000503,"midi":36,"time":35.142739999999996,"velocity":0.3937007874015748},{"duration":0.042856999999997925,"midi":36,"time":35.228454,"velocity":0.3937007874015748},{"duration":0.042856999999997925,"midi":36,"time":35.314168,"velocity":0.3937007874015748},{"duration":0.042856999999997925,"midi":36,"time":35.399882,"velocity":0.3937007874015748},{"duration":0.042856999999997925,"midi":36,"time":35.485596,"velocity":0.3937007874015748},{"duration":0.04285700000000503,"midi":36,"time":35.57131,"velocity":0.3937007874015748},{"duration":0.042856999999997925,"midi":36,"time":35.657024,"velocity":0.3937007874015748},{"duration":0.042856999999997925,"midi":36,"time":35.742738,"velocity":0.3937007874015748},{"duration":0.042856999999997925,"midi":36,"time":35.828452,"velocity":0.3937007874015748},{"duration":0.042856999999997925,"midi":36,"time":35.914166,"velocity":0.3937007874015748},{"duration":0.04285700000000503,"midi":36,"time":35.99988,"velocity":0.3937007874015748},{"duration":0.042856999999997925,"midi":36,"time":36.085594,"velocity":0.3937007874015748},{"duration":0.04285700000000503,"midi":36,"time":36.171307999999996,"velocity":0.3937007874015748},{"duration":0.042856999999997925,"midi":36,"time":36.257022,"velocity":0.3937007874015748},{"duration":0.042856999999997925,"midi":35,"time":36.342736,"velocity":0.3937007874015748},{"duration":0.042856999999997925,"midi":35,"time":36.42845,"velocity":0.3937007874015748},{"duration":0.042856999999997925,"midi":35,"time":36.514164,"velocity":0.3937007874015748},{"duration":0.04285700000000503,"midi":35,"time":36.599878,"velocity":0.3937007874015748},{"duration":0.042856999999997925,"midi":35,"time":36.685592,"velocity":0.3937007874015748},{"duration":0.042856999999997925,"midi":35,"time":36.771306,"velocity":0.3937007874015748},{"duration":0.042856999999997925,"midi":35,"time":36.85702,"velocity":0.3937007874015748},{"duration":0.042856999999997925,"midi":35,"time":36.942734,"velocity":0.3937007874015748},{"duration":0.04285700000000503,"midi":35,"time":37.028448,"velocity":0.3937007874015748},{"duration":0.042856999999997925,"midi":35,"time":37.114162,"velocity":0.3937007874015748},{"duration":0.04285700000000503,"midi":35,"time":37.199875999999996,"velocity":0.3937007874015748},{"duration":0.042856999999997925,"midi":35,"time":37.28559,"velocity":0.3937007874015748},{"duration":0.042856999999997925,"midi":35,"time":37.371304,"velocity":0.3937007874015748},{"duration":0.042856999999997925,"midi":35,"time":37.457018,"velocity":0.3937007874015748},{"duration":0.042856999999997925,"midi":35,"time":37.542732,"velocity":0.3937007874015748},{"duration":0.04285700000000503,"midi":35,"time":37.628446,"velocity":0.3937007874015748},{"duration":0.042856999999997925,"midi":36,"time":37.71416,"velocity":0.3937007874015748},{"duration":0.042856999999997925,"midi":36,"time":37.799874,"velocity":0.3937007874015748},{"duration":0.042856999999997925,"midi":36,"time":37.885588,"velocity":0.3937007874015748},{"duration":0.042856999999997925,"midi":36,"time":37.971302,"velocity":0.3937007874015748},{"duration":0.04285700000000503,"midi":36,"time":38.057016,"velocity":0.3937007874015748},{"duration":0.042856999999997925,"midi":36,"time":38.14273,"velocity":0.3937007874015748},{"duration":0.04285700000000503,"midi":36,"time":38.228443999999996,"velocity":0.3937007874015748},{"duration":0.042856999999997925,"midi":36,"time":38.314158,"velocity":0.3937007874015748},{"duration":0.042856999999997925,"midi":36,"time":38.399872,"velocity":0.3937007874015748},{"duration":0.04285700000000503,"midi":36,"time":38.485586,"velocity":0.3937007874015748},{"duration":0.042856999999997925,"midi":36,"time":38.5713,"velocity":0.3937007874015748},{"duration":0.04285700000000503,"midi":36,"time":38.657014,"velocity":0.3937007874015748},{"duration":0.042856999999997925,"midi":36,"time":38.742728,"velocity":0.3937007874015748},{"duration":0.042856999999997925,"midi":36,"time":38.828442,"velocity":0.3937007874015748},{"duration":0.042856999999997925,"midi":36,"time":38.914156,"velocity":0.3937007874015748},{"duration":0.042856999999997925,"midi":36,"time":38.99987,"velocity":0.3937007874015748},{"duration":0.04285700000000503,"midi":41,"time":39.085584,"velocity":0.3937007874015748},{"duration":0.042856999999997925,"midi":41,"time":39.171298,"velocity":0.3937007874015748},{"duration":0.04285700000000503,"midi":41,"time":39.257011999999996,"velocity":0.3937007874015748},{"duration":0.042856999999997925,"midi":41,"time":39.342726,"velocity":0.3937007874015748},{"duration":0.042856999999997925,"midi":41,"time":39.42844,"velocity":0.3937007874015748},{"duration":0.04285700000000503,"midi":41,"time":39.514154,"velocity":0.3937007874015748},{"duration":0.042856999999997925,"midi":41,"time":39.599868,"velocity":0.3937007874015748},{"duration":0.04285700000000503,"midi":41,"time":39.685582,"velocity":0.3937007874015748},{"duration":0.042856999999997925,"midi":41,"time":39.771296,"velocity":0.3937007874015748},{"duration":0.042856999999997925,"midi":41,"time":39.85701,"velocity":0.3937007874015748},{"duration":0.042856999999997925,"midi":41,"time":39.942724,"velocity":0.3937007874015748},{"duration":0.042856999999997925,"midi":41,"time":40.028438,"velocity":0.3937007874015748},{"duration":0.04285700000000503,"midi":41,"time":40.114152,"velocity":0.3937007874015748},{"duration":0.042856999999997925,"midi":41,"time":40.199866,"velocity":0.3937007874015748},{"duration":0.04285700000000503,"midi":41,"time":40.285579999999996,"velocity":0.3937007874015748},{"duration":0.042856999999997925,"midi":41,"time":40.371294,"velocity":0.3937007874015748},{"duration":0.042856999999997925,"midi":32,"time":40.457008,"velocity":0.3937007874015748},{"duration":0.04285700000000503,"midi":32,"time":40.542722,"velocity":0.3937007874015748},{"duration":0.042856999999997925,"midi":32,"time":40.628436,"velocity":0.3937007874015748},{"duration":0.04285700000000503,"midi":32,"time":40.71415,"velocity":0.3937007874015748},{"duration":0.042856999999997925,"midi":32,"time":40.799864,"velocity":0.3937007874015748},{"duration":0.042856999999997925,"midi":32,"time":40.885578,"velocity":0.3937007874015748},{"duration":0.042856999999997925,"midi":32,"time":40.971292,"velocity":0.3937007874015748},{"duration":0.042856999999997925,"midi":32,"time":41.057006,"velocity":0.3937007874015748},{"duration":0.04285700000000503,"midi":32,"time":41.14272,"velocity":0.3937007874015748},{"duration":0.042856999999997925,"midi":32,"time":41.228434,"velocity":0.3937007874015748},{"duration":0.04285700000000503,"midi":32,"time":41.314147999999996,"velocity":0.3937007874015748},{"duration":0.042856999999997925,"midi":32,"time":41.399862,"velocity":0.3937007874015748},{"duration":0.042856999999997925,"midi":32,"time":41.485576,"velocity":0.3937007874015748},{"duration":0.04285700000000503,"midi":32,"time":41.57129,"velocity":0.3937007874015748},{"duration":0.042856999999997925,"midi":32,"time":41.657004,"velocity":0.3937007874015748},{"duration":0.04285700000000503,"midi":32,"time":41.742717999999996,"velocity":0.3937007874015748},{"duration":0.042856999999997925,"midi":36,"time":41.828432,"velocity":0.3937007874015748},{"duration":0.042856999999997925,"midi":36,"time":41.914146,"velocity":0.3937007874015748},{"duration":0.042856999999997925,"midi":36,"time":41.99986,"velocity":0.3937007874015748},{"duration":0.042856999999997925,"midi":36,"time":42.085574,"velocity":0.3937007874015748},{"duration":0.04285700000000503,"midi":36,"time":42.171288,"velocity":0.3937007874015748},{"duration":0.042856999999997925,"midi":36,"time":42.257002,"velocity":0.3937007874015748},{"duration":0.04285700000000503,"midi":36,"time":42.342715999999996,"velocity":0.3937007874015748},{"duration":0.042856999999997925,"midi":36,"time":42.42843,"velocity":0.3937007874015748},{"duration":0.042856999999997925,"midi":36,"time":42.514144,"velocity":0.3937007874015748},{"duration":0.04285700000000503,"midi":36,"time":42.599858,"velocity":0.3937007874015748},{"duration":0.042856999999997925,"midi":36,"time":42.685572,"velocity":0.3937007874015748},{"duration":0.04285700000000503,"midi":36,"time":42.771285999999996,"velocity":0.3937007874015748},{"duration":0.042856999999997925,"midi":36,"time":42.857,"velocity":0.3937007874015748},{"duration":0.042856999999997925,"midi":36,"time":42.942714,"velocity":0.3937007874015748},{"duration":0.042856999999997925,"midi":36,"time":43.028428,"velocity":0.3937007874015748},{"duration":0.042856999999997925,"midi":36,"time":43.114142,"velocity":0.3937007874015748},{"duration":0.04285700000000503,"midi":39,"time":43.199856,"velocity":0.3937007874015748},{"duration":0.042856999999997925,"midi":39,"time":43.28557,"velocity":0.3937007874015748},{"duration":0.04285700000000503,"midi":39,"time":43.371283999999996,"velocity":0.3937007874015748},{"duration":0.042856999999997925,"midi":39,"time":43.456998,"velocity":0.3937007874015748},{"duration":0.042856999999997925,"midi":39,"time":43.542712,"velocity":0.3937007874015748},{"duration":0.04285700000000503,"midi":39,"time":43.628426,"velocity":0.3937007874015748},{"duration":0.042856999999997925,"midi":39,"time":43.71414,"velocity":0.3937007874015748},{"duration":0.04285700000000503,"midi":39,"time":43.799853999999996,"velocity":0.3937007874015748},{"duration":0.042856999999997925,"midi":38,"time":43.885568,"velocity":0.3937007874015748},{"duration":0.042856999999997925,"midi":38,"time":43.971282,"velocity":0.3937007874015748},{"duration":0.042856999999997925,"midi":38,"time":44.056996,"velocity":0.3937007874015748},{"duration":0.042856999999997925,"midi":38,"time":44.14271,"velocity":0.3937007874015748},{"duration":0.04285700000000503,"midi":38,"time":44.228424,"velocity":0.3937007874015748},{"duration":0.042856999999997925,"midi":38,"time":44.314138,"velocity":0.3937007874015748},{"duration":0.042856999999997925,"midi":38,"time":44.399852,"velocity":0.3937007874015748},{"duration":0.042856999999997925,"midi":38,"time":44.485566,"velocity":0.3937007874015748},{"duration":0.042856999999997925,"midi":36,"time":44.57128,"velocity":0.3937007874015748},{"duration":0.04285700000000503,"midi":36,"time":44.656994,"velocity":0.3937007874015748},{"duration":0.042856999999997925,"midi":36,"time":44.742708,"velocity":0.3937007874015748},{"duration":0.04285700000000503,"midi":36,"time":44.828421999999996,"velocity":0.3937007874015748},{"duration":0.042856999999997925,"midi":36,"time":44.914136,"velocity":0.3937007874015748},{"duration":0.042856999999997925,"midi":36,"time":44.99985,"velocity":0.3937007874015748},{"duration":0.042856999999997925,"midi":36,"time":45.085564,"velocity":0.3937007874015748},{"duration":0.042856999999997925,"midi":36,"time":45.171278,"velocity":0.3937007874015748},{"duration":0.04285700000000503,"midi":36,"time":45.256992,"velocity":0.3937007874015748},{"duration":0.042856999999997925,"midi":36,"time":45.342706,"velocity":0.3937007874015748},{"duration":0.042856999999997925,"midi":36,"time":45.42842,"velocity":0.3937007874015748},{"duration":0.042856999999997925,"midi":36,"time":45.514134,"velocity":0.3937007874015748},{"duration":0.042856999999997925,"midi":36,"time":45.599848,"velocity":0.3937007874015748},{"duration":0.04285700000000503,"midi":36,"time":45.685562,"velocity":0.3937007874015748},{"duration":0.042856999999997925,"midi":36,"time":45.771276,"velocity":0.3937007874015748},{"duration":0.04285700000000503,"midi":36,"time":45.856989999999996,"velocity":0.3937007874015748},{"duration":0.042856999999997925,"midi":36,"time":56.914096,"velocity":0.3937007874015748},{"duration":0.04285700000000503,"midi":36,"time":56.99981,"velocity":0.3937007874015748},{"duration":0.042856999999997925,"midi":36,"time":57.085524,"velocity":0.3937007874015748},{"duration":0.042856999999997925,"midi":36,"time":57.171238,"velocity":0.3937007874015748},{"duration":0.042856999999997925,"midi":36,"time":57.256952,"velocity":0.3937007874015748},{"duration":0.042856999999997925,"midi":36,"time":57.342666,"velocity":0.3937007874015748},{"duration":0.04285700000000503,"midi":36,"time":57.42838,"velocity":0.3937007874015748},{"duration":0.042856999999997925,"midi":36,"time":57.514094,"velocity":0.3937007874015748},{"duration":0.04285700000000503,"midi":36,"time":57.599807999999996,"velocity":0.3937007874015748},{"duration":0.042856999999997925,"midi":36,"time":57.685522,"velocity":0.3937007874015748},{"duration":0.042856999999997925,"midi":36,"time":57.771236,"velocity":0.3937007874015748},{"duration":0.042856999999997925,"midi":36,"time":57.85695,"velocity":0.3937007874015748},{"duration":0.042856999999997925,"midi":36,"time":57.942664,"velocity":0.3937007874015748},{"duration":0.04285700000000503,"midi":36,"time":58.028378,"velocity":0.3937007874015748},{"duration":0.042856999999997925,"midi":36,"time":58.114092,"velocity":0.3937007874015748},{"duration":0.042856999999997925,"midi":36,"time":58.199806,"velocity":0.3937007874015748},{"duration":0.042856999999997925,"midi":39,"time":58.28552,"velocity":0.3937007874015748},{"duration":0.042856999999997925,"midi":39,"time":58.371234,"velocity":0.3937007874015748},{"duration":0.04285700000000503,"midi":39,"time":58.456948,"velocity":0.3937007874015748},{"duration":0.042856999999997925,"midi":39,"time":58.542662,"velocity":0.3937007874015748},{"duration":0.04285700000000503,"midi":39,"time":58.628375999999996,"velocity":0.3937007874015748},{"duration":0.042856999999997925,"midi":39,"time":58.71409,"velocity":0.3937007874015748},{"duration":0.042856999999997925,"midi":39,"time":58.799804,"velocity":0.3937007874015748},{"duration":0.042856999999997925,"midi":39,"time":58.885518,"velocity":0.3937007874015748},{"duration":0.042856999999997925,"midi":39,"time":58.971232,"velocity":0.3937007874015748},{"duration":0.04285700000000503,"midi":39,"time":59.056945999999996,"velocity":0.3937007874015748},{"duration":0.042856999999997925,"midi":39,"time":59.14266,"velocity":0.3937007874015748},{"duration":0.042856999999997925,"midi":39,"time":59.228374,"velocity":0.3937007874015748},{"duration":0.042856999999997925,"midi":39,"time":59.314088,"velocity":0.3937007874015748},{"duration":0.042856999999997925,"midi":39,"time":59.399802,"velocity":0.3937007874015748},{"duration":0.04285700000000503,"midi":39,"time":59.485516,"velocity":0.3937007874015748},{"duration":0.042856999999997925,"midi":39,"time":59.57123,"velocity":0.3937007874015748},{"duration":0.04285700000000503,"midi":38,"time":59.656943999999996,"velocity":0.3937007874015748},{"duration":0.042856999999997925,"midi":38,"time":59.742658,"velocity":0.3937007874015748},{"duration":0.042856999999997925,"midi":38,"time":59.828372,"velocity":0.3937007874015748},{"duration":0.042856999999997925,"midi":38,"time":59.914086,"velocity":0.3937007874015748},{"duration":0.042856999999997925,"midi":38,"time":59.9998,"velocity":0.3937007874015748},{"duration":0.04285700000000503,"midi":38,"time":60.085513999999996,"velocity":0.3937007874015748},{"duration":0.042856999999997925,"midi":38,"time":60.171228,"velocity":0.3937007874015748},{"duration":0.042856999999997925,"midi":38,"time":60.256942,"velocity":0.3937007874015748},{"duration":0.042856999999997925,"midi":38,"time":60.342656,"velocity":0.3937007874015748},{"duration":0.042856999999997925,"midi":38,"time":60.42837,"velocity":0.3937007874015748},{"duration":0.04285700000000503,"midi":38,"time":60.514084,"velocity":0.3937007874015748},{"duration":0.042856999999997925,"midi":38,"time":60.599798,"velocity":0.3937007874015748},{"duration":0.04285700000000503,"midi":38,"time":60.685511999999996,"velocity":0.3937007874015748},{"duration":0.042856999999997925,"midi":38,"time":60.771226,"velocity":0.3937007874015748},{"duration":0.042856999999997925,"midi":38,"time":60.85694,"velocity":0.3937007874015748},{"duration":0.04285700000000503,"midi":38,"time":60.942654,"velocity":0.3937007874015748},{"duration":0.042856999999997925,"midi":43,"time":61.028368,"velocity":0.3937007874015748},{"duration":0.04285700000000503,"midi":43,"time":61.114081999999996,"velocity":0.3937007874015748},{"duration":0.042856999999997925,"midi":43,"time":61.199796,"velocity":0.3937007874015748},{"duration":0.042856999999997925,"midi":43,"time":61.28551,"velocity":0.3937007874015748},{"duration":0.042856999999997925,"midi":41,"time":61.371224,"velocity":0.3937007874015748},{"duration":0.042856999999997925,"midi":41,"time":61.456938,"velocity":0.3937007874015748},{"duration":0.04285700000000503,"midi":41,"time":61.542652,"velocity":0.3937007874015748},{"duration":0.042856999999997925,"midi":41,"time":61.628366,"velocity":0.3937007874015748},{"duration":0.04285700000000503,"midi":39,"time":61.714079999999996,"velocity":0.3937007874015748},{"duration":0.042856999999997925,"midi":39,"time":61.799794,"velocity":0.3937007874015748},{"duration":0.042856999999997925,"midi":39,"time":61.885508,"velocity":0.3937007874015748},{"duration":0.04285700000000503,"midi":39,"time":61.971222,"velocity":0.3937007874015748},{"duration":0.042856999999997925,"midi":38,"time":62.056936,"velocity":0.3937007874015748},{"duration":0.04285700000000503,"midi":38,"time":62.142649999999996,"velocity":0.3937007874015748},{"duration":0.042856999999997925,"midi":38,"time":62.228364,"velocity":0.3937007874015748},{"duration":0.042856999999997925,"midi":38,"time":62.314078,"velocity":0.3937007874015748},{"duration":0.042856999999997925,"midi":36,"time":62.399792,"velocity":0.3937007874015748},{"duration":0.042856999999997925,"midi":36,"time":62.485506,"velocity":0.3937007874015748},{"duration":0.04285700000000503,"midi":36,"time":62.57122,"velocity":0.3937007874015748},{"duration":0.042856999999997925,"midi":36,"time":62.656934,"velocity":0.3937007874015748},{"duration":0.04285700000000503,"midi":36,"time":62.742647999999996,"velocity":0.3937007874015748},{"duration":0.042856999999997925,"midi":36,"time":62.828362,"velocity":0.3937007874015748},{"duration":0.042856999999997925,"midi":36,"time":62.914076,"velocity":0.3937007874015748},{"duration":0.04285700000000503,"midi":36,"time":62.99979,"velocity":0.3937007874015748},{"duration":0.042856999999997925,"midi":36,"time":63.085504,"velocity":0.3937007874015748},{"duration":0.04285700000000503,"midi":36,"time":63.171217999999996,"velocity":0.3937007874015748},{"duration":0.042856999999997925,"midi":36,"time":63.256932,"velocity":0.3937007874015748},{"duration":0.042856999999997925,"midi":36,"time":63.342646,"velocity":0.3937007874015748},{"duration":0.042856999999997925,"midi":36,"time":63.42836,"velocity":0.3937007874015748},{"duration":0.042856999999997925,"midi":36,"time":63.514074,"velocity":0.3937007874015748},{"duration":0.04285700000000503,"midi":36,"time":63.599788,"velocity":0.3937007874015748},{"duration":0.042856999999997925,"midi":36,"time":63.685502,"velocity":0.3937007874015748},{"duration":0.04285700000000503,"midi":39,"time":63.771215999999995,"velocity":0.3937007874015748},{"duration":0.042856999999997925,"midi":39,"time":63.85693,"velocity":0.3937007874015748},{"duration":0.042856999999997925,"midi":39,"time":63.942644,"velocity":0.3937007874015748},{"duration":0.042856999999997925,"midi":39,"time":64.028358,"velocity":0.3937007874015748},{"duration":0.042857000000012135,"midi":39,"time":64.114072,"velocity":0.3937007874015748},{"duration":0.042856999999997925,"midi":39,"time":64.199786,"velocity":0.3937007874015748},{"duration":0.042856999999997925,"midi":39,"time":64.2855,"velocity":0.3937007874015748},{"duration":0.042856999999997925,"midi":39,"time":64.371214,"velocity":0.3937007874015748},{"duration":0.042856999999997925,"midi":39,"time":64.456928,"velocity":0.3937007874015748},{"duration":0.042856999999997925,"midi":39,"time":64.542642,"velocity":0.3937007874015748},{"duration":0.042856999999997925,"midi":39,"time":64.628356,"velocity":0.3937007874015748},{"duration":0.042857000000012135,"midi":39,"time":64.71406999999999,"velocity":0.3937007874015748},{"duration":0.042856999999997925,"midi":39,"time":64.799784,"velocity":0.3937007874015748},{"duration":0.042856999999997925,"midi":39,"time":64.885498,"velocity":0.3937007874015748},{"duration":0.042856999999997925,"midi":39,"time":64.971212,"velocity":0.3937007874015748},{"duration":0.042856999999997925,"midi":39,"time":65.056926,"velocity":0.3937007874015748},{"duration":0.042856999999997925,"midi":44,"time":65.14264,"velocity":0.3937007874015748},{"duration":0.042856999999997925,"midi":44,"time":65.228354,"velocity":0.3937007874015748},{"duration":0.042857000000012135,"midi":44,"time":65.31406799999999,"velocity":0.3937007874015748},{"duration":0.042856999999997925,"midi":44,"time":65.399782,"velocity":0.3937007874015748},{"duration":0.042856999999997925,"midi":44,"time":65.485496,"velocity":0.3937007874015748},{"duration":0.042857000000012135,"midi":44,"time":65.57121,"velocity":0.3937007874015748},{"duration":0.042856999999997925,"midi":44,"time":65.656924,"velocity":0.3937007874015748},{"duration":0.042856999999997925,"midi":44,"time":65.742638,"velocity":0.3937007874015748},{"duration":0.042856999999997925,"midi":44,"time":65.828352,"velocity":0.3937007874015748},{"duration":0.042856999999997925,"midi":44,"time":65.914066,"velocity":0.3937007874015748},{"duration":0.042856999999997925,"midi":44,"time":65.99978,"velocity":0.3937007874015748},{"duration":0.042856999999997925,"midi":44,"time":66.085494,"velocity":0.3937007874015748},{"duration":0.042857000000012135,"midi":44,"time":66.171208,"velocity":0.3937007874015748},{"duration":0.042856999999997925,"midi":44,"time":66.256922,"velocity":0.3937007874015748},{"duration":0.042856999999997925,"midi":44,"time":66.342636,"velocity":0.3937007874015748},{"duration":0.042856999999997925,"midi":44,"time":66.42835,"velocity":0.3937007874015748},{"duration":0.042856999999997925,"midi":43,"time":66.514064,"velocity":0.3937007874015748},{"duration":0.042856999999997925,"midi":43,"time":66.599778,"velocity":0.3937007874015748},{"duration":0.042856999999997925,"midi":43,"time":66.685492,"velocity":0.3937007874015748},{"duration":0.042857000000012135,"midi":43,"time":66.77120599999999,"velocity":0.3937007874015748},{"duration":0.042856999999997925,"midi":43,"time":66.85692,"velocity":0.3937007874015748},{"duration":0.042856999999997925,"midi":43,"time":66.942634,"velocity":0.3937007874015748},{"duration":0.042856999999997925,"midi":43,"time":67.028348,"velocity":0.3937007874015748},{"duration":0.042856999999997925,"midi":43,"time":67.114062,"velocity":0.3937007874015748},{"duration":0.042856999999997925,"midi":43,"time":67.199776,"velocity":0.3937007874015748},{"duration":0.042856999999997925,"midi":43,"time":67.28549,"velocity":0.3937007874015748},{"duration":0.042856999999997925,"midi":43,"time":67.371204,"velocity":0.3937007874015748},{"duration":0.042856999999997925,"midi":43,"time":67.456918,"velocity":0.3937007874015748},{"duration":0.042856999999997925,"midi":43,"time":67.542632,"velocity":0.3937007874015748},{"duration":0.042857000000012135,"midi":43,"time":67.628346,"velocity":0.3937007874015748},{"duration":0.042856999999997925,"midi":43,"time":67.71406,"velocity":0.3937007874015748},{"duration":0.042856999999997925,"midi":43,"time":67.799774,"velocity":0.3937007874015748},{"duration":0.042856999999997925,"midi":36,"time":67.885488,"velocity":0.3937007874015748},{"duration":0.042856999999997925,"midi":48,"time":67.885488,"velocity":0.3937007874015748},{"duration":0.042856999999997925,"midi":36,"time":67.971202,"velocity":0.3937007874015748},{"duration":0.042856999999997925,"midi":48,"time":67.971202,"velocity":0.3937007874015748},{"duration":0.042856999999997925,"midi":36,"time":68.056916,"velocity":0.3937007874015748},{"duration":0.042856999999997925,"midi":48,"time":68.056916,"velocity":0.3937007874015748},{"duration":0.042856999999997925,"midi":36,"time":68.14263,"velocity":0.3937007874015748},{"duration":0.042856999999997925,"midi":48,"time":68.14263,"velocity":0.3937007874015748},{"duration":0.042857000000012135,"midi":36,"time":68.22834399999999,"velocity":0.3937007874015748},{"duration":0.042857000000012135,"midi":48,"time":68.22834399999999,"velocity":0.3937007874015748},{"duration":0.042856999999997925,"midi":36,"time":68.314058,"velocity":0.3937007874015748},{"duration":0.042856999999997925,"midi":48,"time":68.314058,"velocity":0.3937007874015748},{"duration":0.042856999999997925,"midi":48,"time":68.399772,"velocity":0.3937007874015748},{"duration":0.042856999999997925,"midi":36,"time":68.399772,"velocity":0.3937007874015748},{"duration":0.042856999999997925,"midi":36,"time":68.485486,"velocity":0.3937007874015748},{"duration":0.042856999999997925,"midi":48,"time":68.485486,"velocity":0.3937007874015748},{"duration":0.042856999999997925,"midi":48,"time":68.5712,"velocity":0.3937007874015748},{"duration":0.042856999999997925,"midi":36,"time":68.5712,"velocity":0.3937007874015748},{"duration":0.042856999999997925,"midi":48,"time":68.656914,"velocity":0.3937007874015748},{"duration":0.042856999999997925,"midi":36,"time":68.656914,"velocity":0.3937007874015748},{"duration":0.042856999999997925,"midi":36,"time":68.742628,"velocity":0.3937007874015748},{"duration":0.042856999999997925,"midi":48,"time":68.742628,"velocity":0.3937007874015748},{"duration":0.042857000000012135,"midi":48,"time":68.82834199999999,"velocity":0.3937007874015748},{"duration":0.042857000000012135,"midi":36,"time":68.82834199999999,"velocity":0.3937007874015748},{"duration":0.042856999999997925,"midi":36,"time":68.914056,"velocity":0.3937007874015748},{"duration":0.042856999999997925,"midi":48,"time":68.914056,"velocity":0.3937007874015748},{"duration":0.042856999999997925,"midi":48,"time":68.99977,"velocity":0.3937007874015748},{"duration":0.042856999999997925,"midi":36,"time":68.99977,"velocity":0.3937007874015748},{"duration":0.042856999999997925,"midi":36,"time":69.085484,"velocity":0.3937007874015748},{"duration":0.042856999999997925,"midi":48,"time":69.085484,"velocity":0.3937007874015748},{"duration":0.042856999999997925,"midi":48,"time":69.171198,"velocity":0.3937007874015748},{"duration":0.042856999999997925,"midi":36,"time":69.171198,"velocity":0.3937007874015748},{"duration":0.042856999999997925,"midi":51,"time":69.256912,"velocity":0.3937007874015748},{"duration":0.042856999999997925,"midi":39,"time":69.256912,"velocity":0.3937007874015748},{"duration":0.042856999999997925,"midi":51,"time":69.342626,"velocity":0.3937007874015748},{"duration":0.042856999999997925,"midi":39,"time":69.342626,"velocity":0.3937007874015748},{"duration":0.042856999999997925,"midi":39,"time":69.42834,"velocity":0.3937007874015748},{"duration":0.042856999999997925,"midi":51,"time":69.42834,"velocity":0.3937007874015748},{"duration":0.042856999999997925,"midi":39,"time":69.514054,"velocity":0.3937007874015748},{"duration":0.042856999999997925,"midi":51,"time":69.514054,"velocity":0.3937007874015748},{"duration":0.042856999999997925,"midi":39,"time":69.599768,"velocity":0.3937007874015748},{"duration":0.042856999999997925,"midi":51,"time":69.599768,"velocity":0.3937007874015748},{"duration":0.042857000000012135,"midi":39,"time":69.685482,"velocity":0.3937007874015748},{"duration":0.042857000000012135,"midi":51,"time":69.685482,"velocity":0.3937007874015748},{"duration":0.042856999999997925,"midi":51,"time":69.771196,"velocity":0.3937007874015748},{"duration":0.042856999999997925,"midi":39,"time":69.771196,"velocity":0.3937007874015748},{"duration":0.042856999999997925,"midi":51,"time":69.85691,"velocity":0.3937007874015748},{"duration":0.042856999999997925,"midi":39,"time":69.85691,"velocity":0.3937007874015748},{"duration":0.042856999999997925,"midi":51,"time":69.942624,"velocity":0.3937007874015748},{"duration":0.042856999999997925,"midi":39,"time":69.942624,"velocity":0.3937007874015748},{"duration":0.042856999999997925,"midi":39,"time":70.028338,"velocity":0.3937007874015748},{"duration":0.042856999999997925,"midi":51,"time":70.028338,"velocity":0.3937007874015748},{"duration":0.042856999999997925,"midi":39,"time":70.114052,"velocity":0.3937007874015748},{"duration":0.042856999999997925,"midi":51,"time":70.114052,"velocity":0.3937007874015748},{"duration":0.042856999999997925,"midi":39,"time":70.199766,"velocity":0.3937007874015748},{"duration":0.042856999999997925,"midi":51,"time":70.199766,"velocity":0.3937007874015748},{"duration":0.042857000000012135,"midi":39,"time":70.28547999999999,"velocity":0.3937007874015748},{"duration":0.042857000000012135,"midi":51,"time":70.28547999999999,"velocity":0.3937007874015748},{"duration":0.042856999999997925,"midi":39,"time":70.371194,"velocity":0.3937007874015748},{"duration":0.042856999999997925,"midi":51,"time":70.371194,"velocity":0.3937007874015748},{"duration":0.042856999999997925,"midi":39,"time":70.456908,"velocity":0.3937007874015748},{"duration":0.042856999999997925,"midi":51,"time":70.456908,"velocity":0.3937007874015748},{"duration":0.042856999999997925,"midi":51,"time":70.542622,"velocity":0.3937007874015748},{"duration":0.042856999999997925,"midi":39,"time":70.542622,"velocity":0.3937007874015748},{"duration":0.042856999999997925,"midi":50,"time":70.628336,"velocity":0.3937007874015748},{"duration":0.042856999999997925,"midi":38,"time":70.628336,"velocity":0.3937007874015748},{"duration":0.042856999999997925,"midi":38,"time":70.71405,"velocity":0.3937007874015748},{"duration":0.042856999999997925,"midi":50,"time":70.71405,"velocity":0.3937007874015748},{"duration":0.042856999999997925,"midi":38,"time":70.799764,"velocity":0.3937007874015748},{"duration":0.042856999999997925,"midi":50,"time":70.799764,"velocity":0.3937007874015748},{"duration":0.042857000000012135,"midi":38,"time":70.88547799999999,"velocity":0.3937007874015748},{"duration":0.042857000000012135,"midi":50,"time":70.88547799999999,"velocity":0.3937007874015748},{"duration":0.042856999999997925,"midi":50,"time":70.971192,"velocity":0.3937007874015748},{"duration":0.042856999999997925,"midi":38,"time":70.971192,"velocity":0.3937007874015748},{"duration":0.042856999999997925,"midi":50,"time":71.056906,"velocity":0.3937007874015748},{"duration":0.042856999999997925,"midi":38,"time":71.056906,"velocity":0.3937007874015748},{"duration":0.042856999999997925,"midi":50,"time":71.14262,"velocity":0.3937007874015748},{"duration":0.042856999999997925,"midi":38,"time":71.14262,"velocity":0.3937007874015748},{"duration":0.042856999999997925,"midi":50,"time":71.228334,"velocity":0.3937007874015748},{"duration":0.042856999999997925,"midi":38,"time":71.228334,"velocity":0.3937007874015748},{"duration":0.042856999999997925,"midi":38,"time":71.314048,"velocity":0.3937007874015748},{"duration":0.042856999999997925,"midi":50,"time":71.314048,"velocity":0.3937007874015748},{"duration":0.042856999999997925,"midi":38,"time":71.399762,"velocity":0.3937007874015748},{"duration":0.042856999999997925,"midi":50,"time":71.399762,"velocity":0.3937007874015748},{"duration":0.042856999999997925,"midi":38,"time":71.485476,"velocity":0.3937007874015748},{"duration":0.042856999999997925,"midi":50,"time":71.485476,"velocity":0.3937007874015748},{"duration":0.042856999999997925,"midi":50,"time":71.57119,"velocity":0.3937007874015748},{"duration":0.042856999999997925,"midi":38,"time":71.57119,"velocity":0.3937007874015748},{"duration":0.042856999999997925,"midi":38,"time":71.656904,"velocity":0.3937007874015748},{"duration":0.042856999999997925,"midi":50,"time":71.656904,"velocity":0.3937007874015748},{"duration":0.042857000000012135,"midi":50,"time":71.742618,"velocity":0.3937007874015748},{"duration":0.042857000000012135,"midi":38,"time":71.742618,"velocity":0.3937007874015748},{"duration":0.042856999999997925,"midi":38,"time":71.828332,"velocity":0.3937007874015748},{"duration":0.042856999999997925,"midi":50,"time":71.828332,"velocity":0.3937007874015748},{"duration":0.042856999999997925,"midi":38,"time":71.914046,"velocity":0.3937007874015748},{"duration":0.042856999999997925,"midi":50,"time":71.914046,"velocity":0.3937007874015748},{"duration":0.042856999999997925,"midi":43,"time":71.99976,"velocity":0.3937007874015748},{"duration":0.042856999999997925,"midi":55,"time":71.99976,"velocity":0.3937007874015748},{"duration":0.042856999999997925,"midi":43,"time":72.085474,"velocity":0.3937007874015748},{"duration":0.042856999999997925,"midi":55,"time":72.085474,"velocity":0.3937007874015748},{"duration":0.042856999999997925,"midi":55,"time":72.171188,"velocity":0.3937007874015748},{"duration":0.042856999999997925,"midi":43,"time":72.171188,"velocity":0.3937007874015748},{"duration":0.042856999999997925,"midi":43,"time":72.256902,"velocity":0.3937007874015748},{"duration":0.042856999999997925,"midi":55,"time":72.256902,"velocity":0.3937007874015748},{"duration":0.042857000000012135,"midi":41,"time":72.34261599999999,"velocity":0.3937007874015748},{"duration":0.042857000000012135,"midi":53,"time":72.34261599999999,"velocity":0.3937007874015748},{"duration":0.042856999999997925,"midi":53,"time":72.42833,"velocity":0.3937007874015748},{"duration":0.042856999999997925,"midi":41,"time":72.42833,"velocity":0.3937007874015748},{"duration":0.042856999999997925,"midi":41,"time":72.514044,"velocity":0.3937007874015748},{"duration":0.042856999999997925,"midi":53,"time":72.514044,"velocity":0.3937007874015748},{"duration":0.042856999999997925,"midi":41,"time":72.599758,"velocity":0.3937007874015748},{"duration":0.042856999999997925,"midi":53,"time":72.599758,"velocity":0.3937007874015748},{"duration":0.042856999999997925,"midi":39,"time":72.685472,"velocity":0.3937007874015748},{"duration":0.042856999999997925,"midi":51,"time":72.685472,"velocity":0.3937007874015748},{"duration":0.042856999999997925,"midi":39,"time":72.771186,"velocity":0.3937007874015748},{"duration":0.042856999999997925,"midi":51,"time":72.771186,"velocity":0.3937007874015748},{"duration":0.042856999999997925,"midi":39,"time":72.8569,"velocity":0.3937007874015748},{"duration":0.042856999999997925,"midi":51,"time":72.8569,"velocity":0.3937007874015748},{"duration":0.042857000000012135,"midi":51,"time":72.94261399999999,"velocity":0.3937007874015748},{"duration":0.042857000000012135,"midi":39,"time":72.94261399999999,"velocity":0.3937007874015748},{"duration":0.042856999999997925,"midi":50,"time":73.028328,"velocity":0.3937007874015748},{"duration":0.042856999999997925,"midi":38,"time":73.028328,"velocity":0.3937007874015748},{"duration":0.042856999999997925,"midi":38,"time":73.114042,"velocity":0.3937007874015748},{"duration":0.042856999999997925,"midi":50,"time":73.114042,"velocity":0.3937007874015748},{"duration":0.042857000000012135,"midi":50,"time":73.199756,"velocity":0.3937007874015748},{"duration":0.042857000000012135,"midi":38,"time":73.199756,"velocity":0.3937007874015748},{"duration":0.042856999999997925,"midi":38,"time":73.28547,"velocity":0.3937007874015748},{"duration":0.042856999999997925,"midi":50,"time":73.28547,"velocity":0.3937007874015748},{"duration":0.042856999999997925,"midi":36,"time":73.371184,"velocity":0.3937007874015748},{"duration":0.042856999999997925,"midi":48,"time":73.371184,"velocity":0.3937007874015748},{"duration":0.042856999999997925,"midi":36,"time":73.456898,"velocity":0.3937007874015748},{"duration":0.042856999999997925,"midi":48,"time":73.456898,"velocity":0.3937007874015748},{"duration":0.042856999999997925,"midi":36,"time":73.542612,"velocity":0.3937007874015748},{"duration":0.042856999999997925,"midi":48,"time":73.542612,"velocity":0.3937007874015748},{"duration":0.042856999999997925,"midi":36,"time":73.628326,"velocity":0.3937007874015748},{"duration":0.042856999999997925,"midi":48,"time":73.628326,"velocity":0.3937007874015748},{"duration":0.042856999999997925,"midi":36,"time":73.71404,"velocity":0.3937007874015748},{"duration":0.042856999999997925,"midi":48,"time":73.71404,"velocity":0.3937007874015748},{"duration":0.042857000000012135,"midi":36,"time":73.799754,"velocity":0.3937007874015748},{"duration":0.042857000000012135,"midi":48,"time":73.799754,"velocity":0.3937007874015748},{"duration":0.042856999999997925,"midi":36,"time":73.885468,"velocity":0.3937007874015748},{"duration":0.042856999999997925,"midi":48,"time":73.885468,"velocity":0.3937007874015748},{"duration":0.042856999999997925,"midi":48,"time":73.971182,"velocity":0.3937007874015748},{"duration":0.042856999999997925,"midi":36,"time":73.971182,"velocity":0.3937007874015748},{"duration":0.042856999999997925,"midi":36,"time":74.056896,"velocity":0.3937007874015748},{"duration":0.042856999999997925,"midi":48,"time":74.056896,"velocity":0.3937007874015748},{"duration":0.042856999999997925,"midi":36,"time":74.14261,"velocity":0.3937007874015748},{"duration":0.042856999999997925,"midi":48,"time":74.14261,"velocity":0.3937007874015748},{"duration":0.042856999999997925,"midi":48,"time":74.228324,"velocity":0.3937007874015748},{"duration":0.042856999999997925,"midi":36,"time":74.228324,"velocity":0.3937007874015748},{"duration":0.042856999999997925,"midi":48,"time":74.314038,"velocity":0.3937007874015748},{"duration":0.042856999999997925,"midi":36,"time":74.314038,"velocity":0.3937007874015748},{"duration":0.042857000000012135,"midi":36,"time":74.39975199999999,"velocity":0.3937007874015748},{"duration":0.042857000000012135,"midi":48,"time":74.39975199999999,"velocity":0.3937007874015748},{"duration":0.042856999999997925,"midi":48,"time":74.485466,"velocity":0.3937007874015748},{"duration":0.042856999999997925,"midi":36,"time":74.485466,"velocity":0.3937007874015748},{"duration":0.042856999999997925,"midi":36,"time":74.57118,"velocity":0.3937007874015748},{"duration":0.042856999999997925,"midi":48,"time":74.57118,"velocity":0.3937007874015748},{"duration":0.042856999999997925,"midi":36,"time":74.656894,"velocity":0.3937007874015748},{"duration":0.042856999999997925,"midi":48,"time":74.656894,"velocity":0.3937007874015748},{"duration":0.042856999999997925,"midi":51,"time":74.742608,"velocity":0.3937007874015748},{"duration":0.042856999999997925,"midi":39,"time":74.742608,"velocity":0.3937007874015748},{"duration":0.042856999999997925,"midi":39,"time":74.828322,"velocity":0.3937007874015748},{"duration":0.042856999999997925,"midi":51,"time":74.828322,"velocity":0.3937007874015748},{"duration":0.042856999999997925,"midi":39,"time":74.914036,"velocity":0.3937007874015748},{"duration":0.042856999999997925,"midi":51,"time":74.914036,"velocity":0.3937007874015748},{"duration":0.042857000000012135,"midi":51,"time":74.99974999999999,"velocity":0.3937007874015748},{"duration":0.042857000000012135,"midi":39,"time":74.99974999999999,"velocity":0.3937007874015748},{"duration":0.042856999999997925,"midi":39,"time":75.085464,"velocity":0.3937007874015748},{"duration":0.042856999999997925,"midi":51,"time":75.085464,"velocity":0.3937007874015748},{"duration":0.042856999999997925,"midi":51,"time":75.171178,"velocity":0.3937007874015748},{"duration":0.042856999999997925,"midi":39,"time":75.171178,"velocity":0.3937007874015748},{"duration":0.042857000000012135,"midi":39,"time":75.256892,"velocity":0.3937007874015748},{"duration":0.042857000000012135,"midi":51,"time":75.256892,"velocity":0.3937007874015748},{"duration":0.042856999999997925,"midi":51,"time":75.342606,"velocity":0.3937007874015748},{"duration":0.042856999999997925,"midi":39,"time":75.342606,"velocity":0.3937007874015748},{"duration":0.042856999999997925,"midi":51,"time":75.42832,"velocity":0.3937007874015748},{"duration":0.042856999999997925,"midi":39,"time":75.42832,"velocity":0.3937007874015748},{"duration":0.042856999999997925,"midi":39,"time":75.514034,"velocity":0.3937007874015748},{"duration":0.042856999999997925,"midi":51,"time":75.514034,"velocity":0.3937007874015748},{"duration":0.042856999999997925,"midi":39,"time":75.599748,"velocity":0.3937007874015748},{"duration":0.042856999999997925,"midi":51,"time":75.599748,"velocity":0.3937007874015748},{"duration":0.042856999999997925,"midi":51,"time":75.685462,"velocity":0.3937007874015748},{"duration":0.042856999999997925,"midi":39,"time":75.685462,"velocity":0.3937007874015748},{"duration":0.042856999999997925,"midi":39,"time":75.771176,"velocity":0.3937007874015748},{"duration":0.042856999999997925,"midi":51,"time":75.771176,"velocity":0.3937007874015748},{"duration":0.042857000000012135,"midi":39,"time":75.85688999999999,"velocity":0.3937007874015748},{"duration":0.042857000000012135,"midi":51,"time":75.85688999999999,"velocity":0.3937007874015748},{"duration":0.042856999999997925,"midi":39,"time":75.942604,"velocity":0.3937007874015748},{"duration":0.042856999999997925,"midi":51,"time":75.942604,"velocity":0.3937007874015748},{"duration":0.042856999999997925,"midi":51,"time":76.028318,"velocity":0.3937007874015748},{"duration":0.042856999999997925,"midi":39,"time":76.028318,"velocity":0.3937007874015748},{"duration":0.042856999999997925,"midi":56,"time":76.114032,"velocity":0.3937007874015748},{"duration":0.042856999999997925,"midi":44,"time":76.114032,"velocity":0.3937007874015748},{"duration":0.042856999999997925,"midi":44,"time":76.199746,"velocity":0.3937007874015748},{"duration":0.042856999999997925,"midi":56,"time":76.199746,"velocity":0.3937007874015748},{"duration":0.042856999999997925,"midi":44,"time":76.28546,"velocity":0.3937007874015748},{"duration":0.042856999999997925,"midi":56,"time":76.28546,"velocity":0.3937007874015748},{"duration":0.042856999999997925,"midi":56,"time":76.371174,"velocity":0.3937007874015748},{"duration":0.042856999999997925,"midi":44,"time":76.371174,"velocity":0.3937007874015748},{"duration":0.042857000000012135,"midi":56,"time":76.45688799999999,"velocity":0.3937007874015748},{"duration":0.042857000000012135,"midi":44,"time":76.45688799999999,"velocity":0.3937007874015748},{"duration":0.042856999999997925,"midi":56,"time":76.542602,"velocity":0.3937007874015748},{"duration":0.042856999999997925,"midi":44,"time":76.542602,"velocity":0.3937007874015748},{"duration":0.042856999999997925,"midi":56,"time":76.628316,"velocity":0.3937007874015748},{"duration":0.042856999999997925,"midi":44,"time":76.628316,"velocity":0.3937007874015748},{"duration":0.042856999999997925,"midi":56,"time":76.71403,"velocity":0.3937007874015748},{"duration":0.042856999999997925,"midi":44,"time":76.71403,"velocity":0.3937007874015748},{"duration":0.042856999999997925,"midi":56,"time":76.799744,"velocity":0.3937007874015748},{"duration":0.042856999999997925,"midi":44,"time":76.799744,"velocity":0.3937007874015748},{"duration":0.042856999999997925,"midi":56,"time":76.885458,"velocity":0.3937007874015748},{"duration":0.042856999999997925,"midi":44,"time":76.885458,"velocity":0.3937007874015748},{"duration":0.042856999999997925,"midi":44,"time":76.971172,"velocity":0.3937007874015748},{"duration":0.042856999999997925,"midi":56,"time":76.971172,"velocity":0.3937007874015748},{"duration":0.042856999999997925,"midi":44,"time":77.056886,"velocity":0.3937007874015748},{"duration":0.042856999999997925,"midi":56,"time":77.056886,"velocity":0.3937007874015748},{"duration":0.042856999999997925,"midi":44,"time":77.1426,"velocity":0.3937007874015748},{"duration":0.042856999999997925,"midi":56,"time":77.1426,"velocity":0.3937007874015748},{"duration":0.042856999999997925,"midi":44,"time":77.228314,"velocity":0.3937007874015748},{"duration":0.042856999999997925,"midi":56,"time":77.228314,"velocity":0.3937007874015748},{"duration":0.042857000000012135,"midi":44,"time":77.314028,"velocity":0.3937007874015748},{"duration":0.042857000000012135,"midi":56,"time":77.314028,"velocity":0.3937007874015748},{"duration":0.042856999999997925,"midi":44,"time":77.399742,"velocity":0.3937007874015748},{"duration":0.042856999999997925,"midi":56,"time":77.399742,"velocity":0.3937007874015748},{"duration":0.042856999999997925,"midi":43,"time":77.485456,"velocity":0.3937007874015748},{"duration":0.042856999999997925,"midi":55,"time":77.485456,"velocity":0.3937007874015748},{"duration":0.042856999999997925,"midi":55,"time":77.57117,"velocity":0.3937007874015748},{"duration":0.042856999999997925,"midi":43,"time":77.57117,"velocity":0.3937007874015748},{"duration":0.042856999999997925,"midi":43,"time":77.656884,"velocity":0.3937007874015748},{"duration":0.042856999999997925,"midi":55,"time":77.656884,"velocity":0.3937007874015748},{"duration":0.042856999999997925,"midi":55,"time":77.742598,"velocity":0.3937007874015748},{"duration":0.042856999999997925,"midi":43,"time":77.742598,"velocity":0.3937007874015748},{"duration":0.042856999999997925,"midi":55,"time":77.828312,"velocity":0.3937007874015748},{"duration":0.042856999999997925,"midi":43,"time":77.828312,"velocity":0.3937007874015748},{"duration":0.042857000000012135,"midi":55,"time":77.91402599999999,"velocity":0.3937007874015748},{"duration":0.042857000000012135,"midi":43,"time":77.91402599999999,"velocity":0.3937007874015748},{"duration":0.042856999999997925,"midi":43,"time":77.99974,"velocity":0.3937007874015748},{"duration":0.042856999999997925,"midi":55,"time":77.99974,"velocity":0.3937007874015748},{"duration":0.042856999999997925,"midi":55,"time":78.085454,"velocity":0.3937007874015748},{"duration":0.042856999999997925,"midi":43,"time":78.085454,"velocity":0.3937007874015748},{"duration":0.042856999999997925,"midi":55,"time":78.171168,"velocity":0.3937007874015748},{"duration":0.042856999999997925,"midi":43,"time":78.171168,"velocity":0.3937007874015748},{"duration":0.042856999999997925,"midi":55,"time":78.256882,"velocity":0.3937007874015748},{"duration":0.042856999999997925,"midi":43,"time":78.256882,"velocity":0.3937007874015748},{"duration":0.042856999999997925,"midi":43,"time":78.342596,"velocity":0.3937007874015748},{"duration":0.042856999999997925,"midi":55,"time":78.342596,"velocity":0.3937007874015748},{"duration":0.042856999999997925,"midi":43,"time":78.42831,"velocity":0.3937007874015748},{"duration":0.042856999999997925,"midi":55,"time":78.42831,"velocity":0.3937007874015748},{"duration":0.042857000000012135,"midi":43,"time":78.51402399999999,"velocity":0.3937007874015748},{"duration":0.042857000000012135,"midi":55,"time":78.51402399999999,"velocity":0.3937007874015748},{"duration":0.042856999999997925,"midi":55,"time":78.599738,"velocity":0.3937007874015748},{"duration":0.042856999999997925,"midi":43,"time":78.599738,"velocity":0.3937007874015748},{"duration":0.042856999999997925,"midi":43,"time":78.685452,"velocity":0.3937007874015748},{"duration":0.042856999999997925,"midi":55,"time":78.685452,"velocity":0.3937007874015748},{"duration":0.042856999999997925,"midi":43,"time":78.771166,"velocity":0.3937007874015748},{"duration":0.042856999999997925,"midi":55,"time":78.771166,"velocity":0.3937007874015748},{"duration":0.042856999999997925,"midi":53,"time":78.85688,"velocity":0.3937007874015748},{"duration":0.042856999999997925,"midi":53,"time":78.942594,"velocity":0.3937007874015748},{"duration":0.042856999999997925,"midi":53,"time":79.028308,"velocity":0.3937007874015748},{"duration":0.042856999999997925,"midi":53,"time":79.114022,"velocity":0.3937007874015748},{"duration":0.042856999999997925,"midi":53,"time":79.199736,"velocity":0.3937007874015748},{"duration":0.042856999999997925,"midi":53,"time":79.28545,"velocity":0.3937007874015748},{"duration":0.042857000000012135,"midi":53,"time":79.371164,"velocity":0.3937007874015748},{"duration":0.042856999999997925,"midi":53,"time":79.456878,"velocity":0.3937007874015748},{"duration":0.042856999999997925,"midi":53,"time":79.542592,"velocity":0.3937007874015748},{"duration":0.042856999999997925,"midi":53,"time":79.628306,"velocity":0.3937007874015748},{"duration":0.042856999999997925,"midi":53,"time":79.71402,"velocity":0.3937007874015748},{"duration":0.042856999999997925,"midi":53,"time":79.799734,"velocity":0.3937007874015748},{"duration":0.042856999999997925,"midi":53,"time":79.885448,"velocity":0.3937007874015748},{"duration":0.042857000000012135,"midi":53,"time":79.97116199999999,"velocity":0.3937007874015748},{"duration":0.042856999999997925,"midi":53,"time":80.056876,"velocity":0.3937007874015748},{"duration":0.042856999999997925,"midi":53,"time":80.14259,"velocity":0.3937007874015748},{"duration":0.042856999999997925,"midi":53,"time":80.228304,"velocity":0.3937007874015748},{"duration":0.042856999999997925,"midi":53,"time":80.314018,"velocity":0.3937007874015748},{"duration":0.042856999999997925,"midi":53,"time":80.399732,"velocity":0.3937007874015748},{"duration":0.042856999999997925,"midi":53,"time":80.485446,"velocity":0.3937007874015748},{"duration":0.042857000000012135,"midi":53,"time":80.57115999999999,"velocity":0.3937007874015748},{"duration":0.042856999999997925,"midi":53,"time":80.656874,"velocity":0.3937007874015748},{"duration":0.042856999999997925,"midi":53,"time":80.742588,"velocity":0.3937007874015748},{"duration":0.042856999999997925,"midi":53,"time":80.828302,"velocity":0.3937007874015748},{"duration":0.042856999999997925,"midi":53,"time":80.914016,"velocity":0.3937007874015748},{"duration":0.042856999999997925,"midi":53,"time":80.99973,"velocity":0.3937007874015748},{"duration":0.042856999999997925,"midi":53,"time":81.085444,"velocity":0.3937007874015748},{"duration":0.042856999999997925,"midi":53,"time":81.171158,"velocity":0.3937007874015748},{"duration":0.042856999999997925,"midi":53,"time":81.256872,"velocity":0.3937007874015748},{"duration":0.042856999999997925,"midi":53,"time":81.342586,"velocity":0.3937007874015748},{"duration":0.042857000000012135,"midi":53,"time":81.4283,"velocity":0.3937007874015748},{"duration":0.042856999999997925,"midi":53,"time":81.514014,"velocity":0.3937007874015748},{"duration":0.042856999999997925,"midi":51,"time":81.599728,"velocity":0.3937007874015748},{"duration":0.042856999999997925,"midi":51,"time":81.685442,"velocity":0.3937007874015748},{"duration":0.042856999999997925,"midi":51,"time":81.771156,"velocity":0.3937007874015748},{"duration":0.042856999999997925,"midi":51,"time":81.85687,"velocity":0.3937007874015748},{"duration":0.042856999999997925,"midi":51,"time":81.942584,"velocity":0.3937007874015748},{"duration":0.042857000000012135,"midi":51,"time":82.02829799999999,"velocity":0.3937007874015748},{"duration":0.042856999999997925,"midi":51,"time":82.114012,"velocity":0.3937007874015748},{"duration":0.042856999999997925,"midi":51,"time":82.199726,"velocity":0.3937007874015748},{"duration":0.042856999999997925,"midi":51,"time":82.28544,"velocity":0.3937007874015748},{"duration":0.042856999999997925,"midi":51,"time":82.371154,"velocity":0.3937007874015748},{"duration":0.042856999999997925,"midi":51,"time":82.456868,"velocity":0.3937007874015748},{"duration":0.042856999999997925,"midi":51,"time":82.542582,"velocity":0.3937007874015748},{"duration":0.042857000000012135,"midi":51,"time":82.62829599999999,"velocity":0.3937007874015748},{"duration":0.042856999999997925,"midi":51,"time":82.71401,"velocity":0.3937007874015748},{"duration":0.042856999999997925,"midi":51,"time":82.799724,"velocity":0.3937007874015748},{"duration":0.042857000000012135,"midi":51,"time":82.885438,"velocity":0.3937007874015748},{"duration":0.042856999999997925,"midi":51,"time":82.971152,"velocity":0.3937007874015748},{"duration":0.042856999999997925,"midi":51,"time":83.056866,"velocity":0.3937007874015748},{"duration":0.042856999999997925,"midi":51,"time":83.14258,"velocity":0.3937007874015748},{"duration":0.042856999999997925,"midi":51,"time":83.228294,"velocity":0.3937007874015748},{"duration":0.042856999999997925,"midi":51,"time":83.314008,"velocity":0.3937007874015748},{"duration":0.042856999999997925,"midi":51,"time":83.399722,"velocity":0.3937007874015748},{"duration":0.042857000000012135,"midi":51,"time":83.48543599999999,"velocity":0.3937007874015748},{"duration":0.042856999999997925,"midi":51,"time":83.57115,"velocity":0.3937007874015748},{"duration":0.042856999999997925,"midi":51,"time":83.656864,"velocity":0.3937007874015748},{"duration":0.042856999999997925,"midi":51,"time":83.742578,"velocity":0.3937007874015748},{"duration":0.042856999999997925,"midi":51,"time":83.828292,"velocity":0.3937007874015748},{"duration":0.042856999999997925,"midi":51,"time":83.914006,"velocity":0.3937007874015748},{"duration":0.042856999999997925,"midi":51,"time":83.99972,"velocity":0.3937007874015748},{"duration":0.042857000000012135,"midi":51,"time":84.08543399999999,"velocity":0.3937007874015748},{"duration":0.042856999999997925,"midi":51,"time":84.171148,"velocity":0.3937007874015748},{"duration":0.042856999999997925,"midi":51,"time":84.256862,"velocity":0.3937007874015748},{"duration":0.042856999999997925,"midi":53,"time":84.342576,"velocity":0.3937007874015748},{"duration":0.042856999999997925,"midi":53,"time":84.42829,"velocity":0.3937007874015748},{"duration":0.042856999999997925,"midi":53,"time":84.514004,"velocity":0.3937007874015748},{"duration":0.042856999999997925,"midi":53,"time":84.599718,"velocity":0.3937007874015748},{"duration":0.042857000000012135,"midi":53,"time":84.68543199999999,"velocity":0.3937007874015748},{"duration":0.042856999999997925,"midi":53,"time":84.771146,"velocity":0.3937007874015748},{"duration":0.042856999999997925,"midi":53,"time":84.85686,"velocity":0.3937007874015748},{"duration":0.042857000000012135,"midi":53,"time":84.942574,"velocity":0.3937007874015748},{"duration":0.042856999999997925,"midi":53,"time":85.028288,"velocity":0.3937007874015748},{"duration":0.042856999999997925,"midi":53,"time":85.114002,"velocity":0.3937007874015748},{"duration":0.042856999999997925,"midi":53,"time":85.199716,"velocity":0.3937007874015748},{"duration":0.042856999999997925,"midi":53,"time":85.28543,"velocity":0.3937007874015748},{"duration":0.042856999999997925,"midi":53,"time":85.371144,"velocity":0.3937007874015748},{"duration":0.042856999999997925,"midi":53,"time":85.456858,"velocity":0.3937007874015748},{"duration":0.042857000000012135,"midi":53,"time":85.54257199999999,"velocity":0.3937007874015748},{"duration":0.042856999999997925,"midi":53,"time":85.628286,"velocity":0.3937007874015748},{"duration":0.042856999999997925,"midi":53,"time":85.714,"velocity":0.3937007874015748},{"duration":0.042856999999997925,"midi":53,"time":85.799714,"velocity":0.3937007874015748},{"duration":0.042856999999997925,"midi":53,"time":85.885428,"velocity":0.3937007874015748},{"duration":0.042856999999997925,"midi":53,"time":85.971142,"velocity":0.3937007874015748},{"duration":0.042856999999997925,"midi":53,"time":86.056856,"velocity":0.3937007874015748},{"duration":0.042857000000012135,"midi":53,"time":86.14256999999999,"velocity":0.3937007874015748},{"duration":0.042856999999997925,"midi":53,"time":86.228284,"velocity":0.3937007874015748},{"duration":0.042856999999997925,"midi":53,"time":86.313998,"velocity":0.3937007874015748},{"duration":0.042856999999997925,"midi":53,"time":86.399712,"velocity":0.3937007874015748},{"duration":0.042856999999997925,"midi":53,"time":86.485426,"velocity":0.3937007874015748},{"duration":0.042856999999997925,"midi":53,"time":86.57114,"velocity":0.3937007874015748},{"duration":0.042856999999997925,"midi":53,"time":86.656854,"velocity":0.3937007874015748},{"duration":0.042857000000012135,"midi":53,"time":86.74256799999999,"velocity":0.3937007874015748},{"duration":0.042856999999997925,"midi":53,"time":86.828282,"velocity":0.3937007874015748},{"duration":0.042856999999997925,"midi":53,"time":86.913996,"velocity":0.3937007874015748},{"duration":0.042857000000012135,"midi":53,"time":86.99971,"velocity":0.3937007874015748},{"duration":0.042856999999997925,"midi":51,"time":87.085424,"velocity":0.3937007874015748},{"duration":0.042856999999997925,"midi":51,"time":87.171138,"velocity":0.3937007874015748},{"duration":0.042856999999997925,"midi":51,"time":87.256852,"velocity":0.3937007874015748},{"duration":0.042856999999997925,"midi":51,"time":87.342566,"velocity":0.3937007874015748},{"duration":0.042856999999997925,"midi":51,"time":87.42828,"velocity":0.3937007874015748},{"duration":0.042856999999997925,"midi":51,"time":87.513994,"velocity":0.3937007874015748},{"duration":0.042857000000012135,"midi":51,"time":87.59970799999999,"velocity":0.3937007874015748},{"duration":0.042856999999997925,"midi":51,"time":87.685422,"velocity":0.3937007874015748},{"duration":0.042856999999997925,"midi":51,"time":87.771136,"velocity":0.3937007874015748},{"duration":0.042856999999997925,"midi":51,"time":87.85685,"velocity":0.3937007874015748},{"duration":0.042856999999997925,"midi":51,"time":87.942564,"velocity":0.3937007874015748},{"duration":0.042856999999997925,"midi":51,"time":88.028278,"velocity":0.3937007874015748},{"duration":0.042856999999997925,"midi":51,"time":88.113992,"velocity":0.3937007874015748},{"duration":0.042857000000012135,"midi":51,"time":88.19970599999999,"velocity":0.3937007874015748},{"duration":0.042856999999997925,"midi":51,"time":88.28542,"velocity":0.3937007874015748},{"duration":0.042856999999997925,"midi":51,"time":88.371134,"velocity":0.3937007874015748},{"duration":0.042856999999997925,"midi":51,"time":88.456848,"velocity":0.3937007874015748},{"duration":0.042856999999997925,"midi":51,"time":88.542562,"velocity":0.3937007874015748},{"duration":0.042856999999997925,"midi":51,"time":88.628276,"velocity":0.3937007874015748},{"duration":0.042856999999997925,"midi":51,"time":88.71399,"velocity":0.3937007874015748},{"duration":0.042856999999997925,"midi":51,"time":88.799704,"velocity":0.3937007874015748},{"duration":0.042856999999997925,"midi":51,"time":88.885418,"velocity":0.3937007874015748},{"duration":0.042856999999997925,"midi":51,"time":88.971132,"velocity":0.3937007874015748},{"duration":0.042857000000012135,"midi":51,"time":89.056846,"velocity":0.3937007874015748},{"duration":0.042856999999997925,"midi":51,"time":89.14256,"velocity":0.3937007874015748},{"duration":0.042856999999997925,"midi":51,"time":89.228274,"velocity":0.3937007874015748},{"duration":0.042856999999997925,"midi":51,"time":89.313988,"velocity":0.3937007874015748},{"duration":0.042856999999997925,"midi":51,"time":89.399702,"velocity":0.3937007874015748},{"duration":0.042856999999997925,"midi":51,"time":89.485416,"velocity":0.3937007874015748},{"duration":0.042856999999997925,"midi":51,"time":89.57113,"velocity":0.3937007874015748},{"duration":0.042857000000012135,"midi":51,"time":89.65684399999999,"velocity":0.3937007874015748},{"duration":0.042856999999997925,"midi":51,"time":89.742558,"velocity":0.3937007874015748},{"duration":0.042856999999997925,"midi":53,"time":89.828272,"velocity":0.3937007874015748},{"duration":0.042856999999997925,"midi":53,"time":89.913986,"velocity":0.3937007874015748},{"duration":0.042856999999997925,"midi":53,"time":89.9997,"velocity":0.3937007874015748},{"duration":0.042856999999997925,"midi":53,"time":90.085414,"velocity":0.3937007874015748},{"duration":0.042856999999997925,"midi":53,"time":90.171128,"velocity":0.3937007874015748},{"duration":0.042857000000012135,"midi":53,"time":90.25684199999999,"velocity":0.3937007874015748},{"duration":0.042856999999997925,"midi":53,"time":90.342556,"velocity":0.3937007874015748},{"duration":0.042856999999997925,"midi":53,"time":90.42827,"velocity":0.3937007874015748},{"duration":0.042856999999997925,"midi":53,"time":90.513984,"velocity":0.3937007874015748},{"duration":0.042856999999997925,"midi":53,"time":90.599698,"velocity":0.3937007874015748},{"duration":0.042856999999997925,"midi":53,"time":90.685412,"velocity":0.3937007874015748},{"duration":0.042856999999997925,"midi":53,"time":90.771126,"velocity":0.3937007874015748},{"duration":0.042856999999997925,"midi":53,"time":90.85684,"velocity":0.3937007874015748},{"duration":0.042856999999997925,"midi":53,"time":90.942554,"velocity":0.3937007874015748},{"duration":0.042856999999997925,"midi":53,"time":91.028268,"velocity":0.3937007874015748},{"duration":0.042857000000012135,"midi":53,"time":91.113982,"velocity":0.3937007874015748},{"duration":0.042856999999997925,"midi":53,"time":91.199696,"velocity":0.3937007874015748},{"duration":0.042856999999997925,"midi":53,"time":91.28541,"velocity":0.3937007874015748},{"duration":0.042856999999997925,"midi":53,"time":91.371124,"velocity":0.3937007874015748},{"duration":0.042856999999997925,"midi":53,"time":91.456838,"velocity":0.3937007874015748},{"duration":0.042856999999997925,"midi":53,"time":91.542552,"velocity":0.3937007874015748},{"duration":0.042856999999997925,"midi":53,"time":91.628266,"velocity":0.3937007874015748},{"duration":0.042857000000012135,"midi":53,"time":91.71397999999999,"velocity":0.3937007874015748},{"duration":0.042856999999997925,"midi":53,"time":91.799694,"velocity":0.3937007874015748},{"duration":0.042856999999997925,"midi":53,"time":91.885408,"velocity":0.3937007874015748},{"duration":0.042856999999997925,"midi":53,"time":91.971122,"velocity":0.3937007874015748},{"duration":0.042856999999997925,"midi":53,"time":92.056836,"velocity":0.3937007874015748},{"duration":0.042856999999997925,"midi":53,"time":92.14255,"velocity":0.3937007874015748},{"duration":0.042856999999997925,"midi":53,"time":92.228264,"velocity":0.3937007874015748},{"duration":0.042857000000012135,"midi":53,"time":92.31397799999999,"velocity":0.3937007874015748},{"duration":0.042856999999997925,"midi":53,"time":92.399692,"velocity":0.3937007874015748},{"duration":0.042856999999997925,"midi":53,"time":92.485406,"velocity":0.3937007874015748},{"duration":0.042856999999997925,"midi":51,"time":92.57112,"velocity":0.3937007874015748},{"duration":0.042856999999997925,"midi":51,"time":92.656834,"velocity":0.3937007874015748},{"duration":0.042856999999997925,"midi":51,"time":92.742548,"velocity":0.3937007874015748},{"duration":0.042856999999997925,"midi":51,"time":92.828262,"velocity":0.3937007874015748},{"duration":0.042856999999997925,"midi":51,"time":92.913976,"velocity":0.3937007874015748},{"duration":0.042856999999997925,"midi":51,"time":92.99969,"velocity":0.3937007874015748},{"duration":0.042856999999997925,"midi":51,"time":93.085404,"velocity":0.3937007874015748},{"duration":0.042857000000012135,"midi":51,"time":93.17111799999999,"velocity":0.3937007874015748},{"duration":0.042856999999997925,"midi":51,"time":93.256832,"velocity":0.3937007874015748},{"duration":0.042856999999997925,"midi":51,"time":93.342546,"velocity":0.3937007874015748},{"duration":0.042856999999997925,"midi":51,"time":93.42826,"velocity":0.3937007874015748},{"duration":0.042856999999997925,"midi":51,"time":93.513974,"velocity":0.3937007874015748},{"duration":0.042856999999997925,"midi":51,"time":93.599688,"velocity":0.3937007874015748},{"duration":0.042856999999997925,"midi":51,"time":93.685402,"velocity":0.3937007874015748},{"duration":0.042857000000012135,"midi":51,"time":93.77111599999999,"velocity":0.3937007874015748},{"duration":0.042856999999997925,"midi":51,"time":93.85683,"velocity":0.3937007874015748},{"duration":0.042856999999997925,"midi":51,"time":93.942544,"velocity":0.3937007874015748},{"duration":0.042856999999997925,"midi":51,"time":94.028258,"velocity":0.3937007874015748},{"duration":0.042856999999997925,"midi":51,"time":94.113972,"velocity":0.3937007874015748},{"duration":0.042856999999997925,"midi":51,"time":94.199686,"velocity":0.3937007874015748},{"duration":0.042856999999997925,"midi":51,"time":94.2854,"velocity":0.3937007874015748},{"duration":0.042857000000012135,"midi":51,"time":94.37111399999999,"velocity":0.3937007874015748},{"duration":0.042856999999997925,"midi":51,"time":94.456828,"velocity":0.3937007874015748},{"duration":0.042856999999997925,"midi":51,"time":94.542542,"velocity":0.3937007874015748},{"duration":0.042857000000012135,"midi":51,"time":94.628256,"velocity":0.3937007874015748},{"duration":0.042856999999997925,"midi":51,"time":94.71397,"velocity":0.3937007874015748},{"duration":0.042856999999997925,"midi":51,"time":94.799684,"velocity":0.3937007874015748},{"duration":0.042856999999997925,"midi":51,"time":94.885398,"velocity":0.3937007874015748},{"duration":0.042856999999997925,"midi":51,"time":94.971112,"velocity":0.3937007874015748},{"duration":0.042856999999997925,"midi":51,"time":95.056826,"velocity":0.3937007874015748},{"duration":0.042856999999997925,"midi":51,"time":95.14254,"velocity":0.3937007874015748},{"duration":0.042857000000012135,"midi":51,"time":95.22825399999999,"velocity":0.3937007874015748},{"duration":0.042856999999997925,"midi":53,"time":95.313968,"velocity":0.3937007874015748},{"duration":0.042856999999997925,"midi":53,"time":95.399682,"velocity":0.3937007874015748},{"duration":0.042856999999997925,"midi":53,"time":95.485396,"velocity":0.3937007874015748},{"duration":0.042856999999997925,"midi":53,"time":95.57111,"velocity":0.3937007874015748},{"duration":0.042856999999997925,"midi":53,"time":95.656824,"velocity":0.3937007874015748},{"duration":0.042856999999997925,"midi":53,"time":95.742538,"velocity":0.3937007874015748},{"duration":0.042857000000012135,"midi":53,"time":95.82825199999999,"velocity":0.3937007874015748},{"duration":0.042856999999997925,"midi":53,"time":95.913966,"velocity":0.3937007874015748},{"duration":0.042856999999997925,"midi":53,"time":95.99968,"velocity":0.3937007874015748},{"duration":0.042856999999997925,"midi":53,"time":96.085394,"velocity":0.3937007874015748},{"duration":0.042856999999997925,"midi":53,"time":96.171108,"velocity":0.3937007874015748},{"duration":0.042856999999997925,"midi":53,"time":96.256822,"velocity":0.3937007874015748},{"duration":0.042856999999997925,"midi":53,"time":96.342536,"velocity":0.3937007874015748},{"duration":0.042857000000012135,"midi":53,"time":96.42824999999999,"velocity":0.3937007874015748},{"duration":0.042856999999997925,"midi":53,"time":96.513964,"velocity":0.3937007874015748},{"duration":0.042856999999997925,"midi":53,"time":96.599678,"velocity":0.3937007874015748},{"duration":0.042857000000012135,"midi":53,"time":96.685392,"velocity":0.3937007874015748},{"duration":0.042856999999997925,"midi":53,"time":96.771106,"velocity":0.3937007874015748},{"duration":0.042856999999997925,"midi":53,"time":96.85682,"velocity":0.3937007874015748},{"duration":0.042856999999997925,"midi":53,"time":96.942534,"velocity":0.3937007874015748},{"duration":0.042856999999997925,"midi":53,"time":97.028248,"velocity":0.3937007874015748},{"duration":0.042856999999997925,"midi":53,"time":97.113962,"velocity":0.3937007874015748},{"duration":0.042856999999997925,"midi":53,"time":97.199676,"velocity":0.3937007874015748},{"duration":0.042857000000012135,"midi":53,"time":97.28538999999999,"velocity":0.3937007874015748},{"duration":0.042856999999997925,"midi":53,"time":97.371104,"velocity":0.3937007874015748},{"duration":0.042856999999997925,"midi":53,"time":97.456818,"velocity":0.3937007874015748},{"duration":0.042856999999997925,"midi":53,"time":97.542532,"velocity":0.3937007874015748},{"duration":0.042856999999997925,"midi":53,"time":97.628246,"velocity":0.3937007874015748},{"duration":0.042856999999997925,"midi":53,"time":97.71396,"velocity":0.3937007874015748},{"duration":0.042856999999997925,"midi":53,"time":97.799674,"velocity":0.3937007874015748},{"duration":0.042857000000012135,"midi":53,"time":97.88538799999999,"velocity":0.3937007874015748},{"duration":0.042856999999997925,"midi":53,"time":97.971102,"velocity":0.3937007874015748},{"duration":0.042856999999997925,"midi":55,"time":98.056816,"velocity":0.3937007874015748},{"duration":0.042856999999997925,"midi":55,"time":98.14253,"velocity":0.3937007874015748},{"duration":0.042856999999997925,"midi":55,"time":98.228244,"velocity":0.3937007874015748},{"duration":0.042856999999997925,"midi":55,"time":98.313958,"velocity":0.3937007874015748},{"duration":0.042856999999997925,"midi":55,"time":98.399672,"velocity":0.3937007874015748},{"duration":0.042857000000012135,"midi":55,"time":98.48538599999999,"velocity":0.3937007874015748},{"duration":0.042856999999997925,"midi":55,"time":98.5711,"velocity":0.3937007874015748},{"duration":0.042856999999997925,"midi":55,"time":98.656814,"velocity":0.3937007874015748},{"duration":0.042857000000012135,"midi":55,"time":98.742528,"velocity":0.3937007874015748},{"duration":0.042856999999997925,"midi":55,"time":98.828242,"velocity":0.3937007874015748},{"duration":0.042856999999997925,"midi":55,"time":98.913956,"velocity":0.3937007874015748},{"duration":0.042856999999997925,"midi":55,"time":98.99967,"velocity":0.3937007874015748},{"duration":0.042856999999997925,"midi":55,"time":99.085384,"velocity":0.3937007874015748},{"duration":0.042856999999997925,"midi":55,"time":99.171098,"velocity":0.3937007874015748},{"duration":0.042856999999997925,"midi":55,"time":99.256812,"velocity":0.3937007874015748},{"duration":0.042857000000012135,"midi":55,"time":99.34252599999999,"velocity":0.3937007874015748},{"duration":0.042856999999997925,"midi":55,"time":99.42824,"velocity":0.3937007874015748},{"duration":0.042856999999997925,"midi":55,"time":99.513954,"velocity":0.3937007874015748},{"duration":0.042856999999997925,"midi":55,"time":99.599668,"velocity":0.3937007874015748},{"duration":0.042856999999997925,"midi":55,"time":99.685382,"velocity":0.3937007874015748},{"duration":0.042856999999997925,"midi":53,"time":99.771096,"velocity":0.3937007874015748},{"duration":0.042856999999997925,"midi":53,"time":99.85681,"velocity":0.3937007874015748},{"duration":0.042857000000012135,"midi":53,"time":99.94252399999999,"velocity":0.3937007874015748},{"duration":0.042856999999997925,"midi":53,"time":100.028238,"velocity":0.3937007874015748},{"duration":0.042856999999997925,"midi":51,"time":100.113952,"velocity":0.3937007874015748},{"duration":0.042856999999997925,"midi":51,"time":100.199666,"velocity":0.3937007874015748},{"duration":0.042856999999997925,"midi":51,"time":100.28538,"velocity":0.3937007874015748},{"duration":0.042856999999997925,"midi":51,"time":100.371094,"velocity":0.3937007874015748},{"duration":0.042856999999997925,"midi":50,"time":100.456808,"velocity":0.3937007874015748},{"duration":0.042856999999997925,"midi":50,"time":100.542522,"velocity":0.3937007874015748},{"duration":0.042856999999997925,"midi":50,"time":100.628236,"velocity":0.3937007874015748},{"duration":0.042856999999997925,"midi":50,"time":100.71395,"velocity":0.3937007874015748},{"duration":0.042856999999997925,"midi":36,"time":110.399632,"velocity":0.3937007874015748},{"duration":0.042857000000012135,"midi":36,"time":110.48534599999999,"velocity":0.3937007874015748},{"duration":0.042856999999997925,"midi":36,"time":110.57106,"velocity":0.3937007874015748},{"duration":0.042856999999997925,"midi":36,"time":110.656774,"velocity":0.3937007874015748},{"duration":0.042856999999997925,"midi":36,"time":110.742488,"velocity":0.3937007874015748},{"duration":0.042856999999997925,"midi":36,"time":110.828202,"velocity":0.3937007874015748},{"duration":0.042856999999997925,"midi":36,"time":110.913916,"velocity":0.3937007874015748},{"duration":0.042856999999997925,"midi":36,"time":110.99963,"velocity":0.3937007874015748},{"duration":0.042857000000012135,"midi":36,"time":111.08534399999999,"velocity":0.3937007874015748},{"duration":0.042856999999997925,"midi":36,"time":111.171058,"velocity":0.3937007874015748},{"duration":0.042856999999997925,"midi":36,"time":111.256772,"velocity":0.3937007874015748},{"duration":0.042856999999997925,"midi":36,"time":111.342486,"velocity":0.3937007874015748},{"duration":0.042856999999997925,"midi":36,"time":111.4282,"velocity":0.3937007874015748},{"duration":0.042856999999997925,"midi":36,"time":111.513914,"velocity":0.3937007874015748},{"duration":0.042856999999997925,"midi":36,"time":111.599628,"velocity":0.3937007874015748},{"duration":0.042857000000012135,"midi":36,"time":111.68534199999999,"velocity":0.3937007874015748},{"duration":0.042856999999997925,"midi":36,"time":111.771056,"velocity":0.3937007874015748},{"duration":0.042856999999997925,"midi":36,"time":111.85677,"velocity":0.3937007874015748},{"duration":0.042856999999997925,"midi":36,"time":111.942484,"velocity":0.3937007874015748},{"duration":0.042856999999997925,"midi":36,"time":112.028198,"velocity":0.3937007874015748},{"duration":0.042856999999997925,"midi":36,"time":112.113912,"velocity":0.3937007874015748},{"duration":0.042856999999997925,"midi":36,"time":112.199626,"velocity":0.3937007874015748},{"duration":0.042856999999997925,"midi":36,"time":112.28534,"velocity":0.3937007874015748},{"duration":0.042856999999997925,"midi":36,"time":112.371054,"velocity":0.3937007874015748},{"duration":0.042856999999997925,"midi":36,"time":112.456768,"velocity":0.3937007874015748},{"duration":0.042857000000012135,"midi":36,"time":112.54248199999999,"velocity":0.3937007874015748},{"duration":0.042856999999997925,"midi":36,"time":112.628196,"velocity":0.3937007874015748},{"duration":0.042856999999997925,"midi":36,"time":112.71391,"velocity":0.3937007874015748},{"duration":0.042856999999997925,"midi":36,"time":112.799624,"velocity":0.3937007874015748},{"duration":0.042856999999997925,"midi":36,"time":112.885338,"velocity":0.3937007874015748},{"duration":0.042856999999997925,"midi":36,"time":112.971052,"velocity":0.3937007874015748},{"duration":0.042856999999997925,"midi":36,"time":113.056766,"velocity":0.3937007874015748},{"duration":0.042857000000012135,"midi":36,"time":113.14247999999999,"velocity":0.3937007874015748},{"duration":0.042856999999997925,"midi":36,"time":113.228194,"velocity":0.3937007874015748},{"duration":0.042856999999997925,"midi":36,"time":113.313908,"velocity":0.3937007874015748},{"duration":0.042856999999997925,"midi":36,"time":113.399622,"velocity":0.3937007874015748},{"duration":0.042856999999997925,"midi":36,"time":113.485336,"velocity":0.3937007874015748},{"duration":0.042856999999997925,"midi":36,"time":113.57105,"velocity":0.3937007874015748},{"duration":0.042856999999997925,"midi":36,"time":113.656764,"velocity":0.3937007874015748},{"duration":0.042857000000012135,"midi":36,"time":113.74247799999999,"velocity":0.3937007874015748},{"duration":0.042856999999997925,"midi":36,"time":113.828192,"velocity":0.3937007874015748},{"duration":0.042856999999997925,"midi":36,"time":113.913906,"velocity":0.3937007874015748},{"duration":0.042856999999997925,"midi":36,"time":113.99962,"velocity":0.3937007874015748},{"duration":0.042856999999997925,"midi":36,"time":114.085334,"velocity":0.3937007874015748},{"duration":0.042856999999997925,"midi":36,"time":114.171048,"velocity":0.3937007874015748},{"duration":0.042856999999997925,"midi":36,"time":114.256762,"velocity":0.3937007874015748},{"duration":0.042856999999997925,"midi":36,"time":114.342476,"velocity":0.3937007874015748},{"duration":0.042856999999997925,"midi":36,"time":114.42819,"velocity":0.3937007874015748},{"duration":0.042856999999997925,"midi":36,"time":114.513904,"velocity":0.3937007874015748},{"duration":0.042857000000012135,"midi":36,"time":114.59961799999999,"velocity":0.3937007874015748},{"duration":0.042856999999997925,"midi":36,"time":114.685332,"velocity":0.3937007874015748},{"duration":0.042856999999997925,"midi":36,"time":114.771046,"velocity":0.3937007874015748},{"duration":0.042856999999997925,"midi":36,"time":114.85676,"velocity":0.3937007874015748},{"duration":0.042856999999997925,"midi":36,"time":114.942474,"velocity":0.3937007874015748},{"duration":0.042856999999997925,"midi":36,"time":115.028188,"velocity":0.3937007874015748},{"duration":0.042856999999997925,"midi":36,"time":115.113902,"velocity":0.3937007874015748},{"duration":0.042857000000012135,"midi":36,"time":115.19961599999999,"velocity":0.3937007874015748},{"duration":0.042856999999997925,"midi":36,"time":115.28533,"velocity":0.3937007874015748},{"duration":0.042856999999997925,"midi":36,"time":115.371044,"velocity":0.3937007874015748},{"duration":0.042856999999997925,"midi":36,"time":115.456758,"velocity":0.3937007874015748},{"duration":0.042856999999997925,"midi":36,"time":115.542472,"velocity":0.3937007874015748},{"duration":0.042856999999997925,"midi":36,"time":115.628186,"velocity":0.3937007874015748},{"duration":0.042856999999997925,"midi":36,"time":115.7139,"velocity":0.3937007874015748},{"duration":0.042857000000012135,"midi":36,"time":115.79961399999999,"velocity":0.3937007874015748},{"duration":0.042857000000012135,"midi":36,"time":117.25675199999999,"velocity":0.3937007874015748},{"duration":0.042856999999997925,"midi":36,"time":117.342466,"velocity":0.3937007874015748},{"duration":0.042856999999997925,"midi":36,"time":117.42818,"velocity":0.3937007874015748},{"duration":0.042856999999997925,"midi":36,"time":117.513894,"velocity":0.3937007874015748},{"duration":0.042856999999997925,"midi":36,"time":117.599608,"velocity":0.3937007874015748},{"duration":0.042856999999997925,"midi":36,"time":117.685322,"velocity":0.3937007874015748},{"duration":0.042856999999997925,"midi":36,"time":117.771036,"velocity":0.3937007874015748},{"duration":0.042857000000012135,"midi":36,"time":117.85674999999999,"velocity":0.3937007874015748},{"duration":0.042856999999997925,"midi":36,"time":117.942464,"velocity":0.3937007874015748},{"duration":0.042856999999997925,"midi":36,"time":118.028178,"velocity":0.3937007874015748},{"duration":0.042857000000012135,"midi":36,"time":118.11389199999999,"velocity":0.3937007874015748},{"duration":0.042856999999997925,"midi":36,"time":118.199606,"velocity":0.3937007874015748},{"duration":0.042856999999997925,"midi":36,"time":118.28532,"velocity":0.3937007874015748},{"duration":0.042856999999997925,"midi":36,"time":118.371034,"velocity":0.3937007874015748},{"duration":0.042856999999997925,"midi":36,"time":118.456748,"velocity":0.3937007874015748},{"duration":0.042856999999997925,"midi":36,"time":118.542462,"velocity":0.3937007874015748},{"duration":0.042856999999997925,"midi":39,"time":118.628176,"velocity":0.3937007874015748},{"duration":0.042857000000012135,"midi":39,"time":118.71388999999999,"velocity":0.3937007874015748},{"duration":0.042856999999997925,"midi":39,"time":118.799604,"velocity":0.3937007874015748},{"duration":0.042856999999997925,"midi":39,"time":118.885318,"velocity":0.3937007874015748},{"duration":0.042856999999997925,"midi":39,"time":118.971032,"velocity":0.3937007874015748},{"duration":0.042856999999997925,"midi":39,"time":119.056746,"velocity":0.3937007874015748},{"duration":0.042856999999997925,"midi":39,"time":119.14246,"velocity":0.3937007874015748},{"duration":0.042856999999997925,"midi":39,"time":119.228174,"velocity":0.3937007874015748},{"duration":0.042857000000012135,"midi":39,"time":119.31388799999999,"velocity":0.3937007874015748},{"duration":0.042856999999997925,"midi":39,"time":119.399602,"velocity":0.3937007874015748},{"duration":0.042856999999997925,"midi":39,"time":119.485316,"velocity":0.3937007874015748},{"duration":0.042856999999997925,"midi":39,"time":119.57103,"velocity":0.3937007874015748},{"duration":0.042856999999997925,"midi":39,"time":119.656744,"velocity":0.3937007874015748},{"duration":0.042856999999997925,"midi":39,"time":119.742458,"velocity":0.3937007874015748},{"duration":0.042856999999997925,"midi":39,"time":119.828172,"velocity":0.3937007874015748},{"duration":0.042857000000012135,"midi":39,"time":119.91388599999999,"velocity":0.3937007874015748},{"duration":0.042856999999997925,"midi":38,"time":119.9996,"velocity":0.3937007874015748},{"duration":0.042856999999997925,"midi":38,"time":120.085314,"velocity":0.3937007874015748},{"duration":0.042857000000012135,"midi":38,"time":120.17102799999999,"velocity":0.3937007874015748},{"duration":0.042856999999997925,"midi":38,"time":120.256742,"velocity":0.3937007874015748},{"duration":0.042856999999997925,"midi":38,"time":120.342456,"velocity":0.3937007874015748},{"duration":0.042856999999997925,"midi":38,"time":120.42817,"velocity":0.3937007874015748},{"duration":0.042856999999997925,"midi":38,"time":120.513884,"velocity":0.3937007874015748},{"duration":0.042856999999997925,"midi":38,"time":120.599598,"velocity":0.3937007874015748},{"duration":0.042856999999997925,"midi":38,"time":120.685312,"velocity":0.3937007874015748},{"duration":0.042857000000012135,"midi":38,"time":120.77102599999999,"velocity":0.3937007874015748},{"duration":0.042856999999997925,"midi":38,"time":120.85674,"velocity":0.3937007874015748},{"duration":0.042856999999997925,"midi":38,"time":120.942454,"velocity":0.3937007874015748},{"duration":0.042856999999997925,"midi":38,"time":121.028168,"velocity":0.3937007874015748},{"duration":0.042856999999997925,"midi":38,"time":121.113882,"velocity":0.3937007874015748},{"duration":0.042856999999997925,"midi":38,"time":121.199596,"velocity":0.3937007874015748},{"duration":0.042856999999997925,"midi":38,"time":121.28531,"velocity":0.3937007874015748},{"duration":0.042857000000012135,"midi":43,"time":121.37102399999999,"velocity":0.3937007874015748},{"duration":0.042856999999997925,"midi":43,"time":121.456738,"velocity":0.3937007874015748},{"duration":0.042856999999997925,"midi":43,"time":121.542452,"velocity":0.3937007874015748},{"duration":0.042856999999997925,"midi":43,"time":121.628166,"velocity":0.3937007874015748},{"duration":0.042856999999997925,"midi":41,"time":121.71388,"velocity":0.3937007874015748},{"duration":0.042856999999997925,"midi":41,"time":121.799594,"velocity":0.3937007874015748},{"duration":0.042856999999997925,"midi":41,"time":121.885308,"velocity":0.3937007874015748},{"duration":0.042856999999997925,"midi":41,"time":121.971022,"velocity":0.3937007874015748},{"duration":0.042856999999997925,"midi":39,"time":122.056736,"velocity":0.3937007874015748},{"duration":0.042856999999997925,"midi":39,"time":122.14245,"velocity":0.3937007874015748},{"duration":0.042857000000012135,"midi":39,"time":122.22816399999999,"velocity":0.3937007874015748},{"duration":0.042856999999997925,"midi":39,"time":122.313878,"velocity":0.3937007874015748},{"duration":0.042856999999997925,"midi":38,"time":122.399592,"velocity":0.3937007874015748},{"duration":0.042856999999997925,"midi":38,"time":122.485306,"velocity":0.3937007874015748},{"duration":0.042856999999997925,"midi":38,"time":122.57102,"velocity":0.3937007874015748},{"duration":0.042856999999997925,"midi":38,"time":122.656734,"velocity":0.3937007874015748},{"duration":0.042856999999997925,"midi":36,"time":122.742448,"velocity":0.3937007874015748},{"duration":0.042857000000012135,"midi":36,"time":122.82816199999999,"velocity":0.3937007874015748},{"duration":0.042856999999997925,"midi":36,"time":122.913876,"velocity":0.3937007874015748},{"duration":0.042856999999997925,"midi":36,"time":122.99959,"velocity":0.3937007874015748},{"duration":0.042856999999997925,"midi":36,"time":123.085304,"velocity":0.3937007874015748},{"duration":0.042856999999997925,"midi":36,"time":123.171018,"velocity":0.3937007874015748},{"duration":0.042856999999997925,"midi":36,"time":123.256732,"velocity":0.3937007874015748},{"duration":0.042856999999997925,"midi":36,"time":123.342446,"velocity":0.3937007874015748},{"duration":0.042857000000012135,"midi":36,"time":123.42815999999999,"velocity":0.3937007874015748},{"duration":0.042856999999997925,"midi":36,"time":123.513874,"velocity":0.3937007874015748},{"duration":0.042856999999997925,"midi":36,"time":123.599588,"velocity":0.3937007874015748},{"duration":0.042856999999997925,"midi":36,"time":123.685302,"velocity":0.3937007874015748},{"duration":0.042856999999997925,"midi":36,"time":123.771016,"velocity":0.3937007874015748},{"duration":0.042856999999997925,"midi":36,"time":123.85673,"velocity":0.3937007874015748},{"duration":0.042856999999997925,"midi":36,"time":123.942444,"velocity":0.3937007874015748},{"duration":0.042856999999997925,"midi":36,"time":124.028158,"velocity":0.3937007874015748},{"duration":0.042856999999997925,"midi":39,"time":124.113872,"velocity":0.3937007874015748},{"duration":0.042856999999997925,"midi":39,"time":124.199586,"velocity":0.3937007874015748},{"duration":0.042857000000012135,"midi":39,"time":124.28529999999999,"velocity":0.3937007874015748},{"duration":0.042856999999997925,"midi":39,"time":124.371014,"velocity":0.3937007874015748},{"duration":0.042856999999997925,"midi":39,"time":124.456728,"velocity":0.3937007874015748},{"duration":0.042856999999997925,"midi":39,"time":124.542442,"velocity":0.3937007874015748},{"duration":0.042856999999997925,"midi":39,"time":124.628156,"velocity":0.3937007874015748},{"duration":0.042856999999997925,"midi":39,"time":124.71387,"velocity":0.3937007874015748},{"duration":0.042856999999997925,"midi":39,"time":124.799584,"velocity":0.3937007874015748},{"duration":0.042857000000012135,"midi":39,"time":124.88529799999999,"velocity":0.3937007874015748},{"duration":0.042856999999997925,"midi":39,"time":124.971012,"velocity":0.3937007874015748},{"duration":0.042856999999997925,"midi":39,"time":125.056726,"velocity":0.3937007874015748},{"duration":0.042856999999997925,"midi":39,"time":125.14244,"velocity":0.3937007874015748},{"duration":0.042856999999997925,"midi":39,"time":125.228154,"velocity":0.3937007874015748},{"duration":0.042856999999997925,"midi":39,"time":125.313868,"velocity":0.3937007874015748},{"duration":0.042856999999997925,"midi":39,"time":125.399582,"velocity":0.3937007874015748},{"duration":0.042857000000012135,"midi":44,"time":125.48529599999999,"velocity":0.3937007874015748},{"duration":0.042856999999997925,"midi":44,"time":125.57101,"velocity":0.3937007874015748},{"duration":0.042856999999997925,"midi":44,"time":125.656724,"velocity":0.3937007874015748},{"duration":0.042856999999997925,"midi":44,"time":125.74243799999999,"velocity":0.3937007874015748},{"duration":0.042856999999997925,"midi":44,"time":125.828152,"velocity":0.3937007874015748},{"duration":0.042856999999997925,"midi":44,"time":125.913866,"velocity":0.3937007874015748},{"duration":0.042856999999997925,"midi":44,"time":125.99958,"velocity":0.3937007874015748},{"duration":0.042856999999997925,"midi":44,"time":126.085294,"velocity":0.3937007874015748},{"duration":0.042856999999997925,"midi":44,"time":126.171008,"velocity":0.3937007874015748},{"duration":0.042856999999997925,"midi":44,"time":126.256722,"velocity":0.3937007874015748},{"duration":0.042857000000012135,"midi":44,"time":126.34243599999999,"velocity":0.3937007874015748},{"duration":0.042856999999997925,"midi":44,"time":126.42815,"velocity":0.3937007874015748},{"duration":0.042856999999997925,"midi":44,"time":126.513864,"velocity":0.3937007874015748},{"duration":0.042856999999997925,"midi":44,"time":126.599578,"velocity":0.3937007874015748},{"duration":0.042856999999997925,"midi":44,"time":126.685292,"velocity":0.3937007874015748},{"duration":0.042856999999997925,"midi":44,"time":126.771006,"velocity":0.3937007874015748},{"duration":0.042856999999997925,"midi":43,"time":126.85672,"velocity":0.3937007874015748},{"duration":0.042857000000012135,"midi":43,"time":126.94243399999999,"velocity":0.3937007874015748},{"duration":0.042856999999997925,"midi":43,"time":127.028148,"velocity":0.3937007874015748},{"duration":0.042856999999997925,"midi":43,"time":127.113862,"velocity":0.3937007874015748},{"duration":0.042856999999997925,"midi":43,"time":127.199576,"velocity":0.3937007874015748},{"duration":0.042856999999997925,"midi":43,"time":127.28529,"velocity":0.3937007874015748},{"duration":0.042856999999997925,"midi":43,"time":127.371004,"velocity":0.3937007874015748},{"duration":0.042856999999997925,"midi":43,"time":127.456718,"velocity":0.3937007874015748},{"duration":0.042857000000012135,"midi":43,"time":127.54243199999999,"velocity":0.3937007874015748},{"duration":0.042856999999997925,"midi":43,"time":127.628146,"velocity":0.3937007874015748},{"duration":0.042856999999997925,"midi":43,"time":127.71386,"velocity":0.3937007874015748},{"duration":0.042857000000012135,"midi":43,"time":127.79957399999999,"velocity":0.3937007874015748},{"duration":0.042856999999997925,"midi":43,"time":127.885288,"velocity":0.3937007874015748},{"duration":0.042856999999997925,"midi":43,"time":127.971002,"velocity":0.3937007874015748},{"duration":0.042856999999997925,"midi":43,"time":128.056716,"velocity":0.3937007874015748},{"duration":0.042856999999997925,"midi":43,"time":128.14243,"velocity":0.3937007874015748},{"duration":0.042856999999997925,"midi":36,"time":128.228144,"velocity":0.3937007874015748},{"duration":0.042856999999997925,"midi":48,"time":128.228144,"velocity":0.3937007874015748},{"duration":0.042856999999997925,"midi":48,"time":128.313858,"velocity":0.3937007874015748},{"duration":0.042856999999997925,"midi":36,"time":128.313858,"velocity":0.3937007874015748},{"duration":0.042856999999997925,"midi":36,"time":128.399572,"velocity":0.3937007874015748},{"duration":0.042856999999997925,"midi":48,"time":128.399572,"velocity":0.3937007874015748},{"duration":0.042856999999997925,"midi":48,"time":128.485286,"velocity":0.3937007874015748},{"duration":0.042856999999997925,"midi":36,"time":128.485286,"velocity":0.3937007874015748},{"duration":0.042856999999997925,"midi":48,"time":128.571,"velocity":0.3937007874015748},{"duration":0.042856999999997925,"midi":36,"time":128.571,"velocity":0.3937007874015748},{"duration":0.042856999999997925,"midi":48,"time":128.656714,"velocity":0.3937007874015748},{"duration":0.042856999999997925,"midi":36,"time":128.656714,"velocity":0.3937007874015748},{"duration":0.042856999999997925,"midi":48,"time":128.742428,"velocity":0.3937007874015748},{"duration":0.042856999999997925,"midi":36,"time":128.742428,"velocity":0.3937007874015748},{"duration":0.042857000000026346,"midi":48,"time":128.82814199999999,"velocity":0.3937007874015748},{"duration":0.042857000000026346,"midi":36,"time":128.82814199999999,"velocity":0.3937007874015748},{"duration":0.042856999999997925,"midi":36,"time":128.913856,"velocity":0.3937007874015748},{"duration":0.042856999999997925,"midi":48,"time":128.913856,"velocity":0.3937007874015748},{"duration":0.042856999999997925,"midi":48,"time":128.99957,"velocity":0.3937007874015748},{"duration":0.042856999999997925,"midi":36,"time":128.99957,"velocity":0.3937007874015748},{"duration":0.042856999999997925,"midi":36,"time":129.085284,"velocity":0.3937007874015748},{"duration":0.042856999999997925,"midi":48,"time":129.085284,"velocity":0.3937007874015748},{"duration":0.042856999999997925,"midi":36,"time":129.170998,"velocity":0.3937007874015748},{"duration":0.042856999999997925,"midi":48,"time":129.170998,"velocity":0.3937007874015748},{"duration":0.042856999999997925,"midi":36,"time":129.256712,"velocity":0.3937007874015748},{"duration":0.042856999999997925,"midi":48,"time":129.256712,"velocity":0.3937007874015748},{"duration":0.042856999999997925,"midi":36,"time":129.342426,"velocity":0.3937007874015748},{"duration":0.042856999999997925,"midi":48,"time":129.342426,"velocity":0.3937007874015748},{"duration":0.042857000000026346,"midi":48,"time":129.42813999999998,"velocity":0.3937007874015748},{"duration":0.042857000000026346,"midi":36,"time":129.42813999999998,"velocity":0.3937007874015748},{"duration":0.042856999999997925,"midi":48,"time":129.513854,"velocity":0.3937007874015748},{"duration":0.042856999999997925,"midi":36,"time":129.513854,"velocity":0.3937007874015748},{"duration":0.042856999999997925,"midi":39,"time":129.599568,"velocity":0.3937007874015748},{"duration":0.042856999999997925,"midi":51,"time":129.599568,"velocity":0.3937007874015748},{"duration":0.042856999999997925,"midi":39,"time":129.685282,"velocity":0.3937007874015748},{"duration":0.042856999999997925,"midi":51,"time":129.685282,"velocity":0.3937007874015748},{"duration":0.042856999999997925,"midi":51,"time":129.770996,"velocity":0.3937007874015748},{"duration":0.042856999999997925,"midi":39,"time":129.770996,"velocity":0.3937007874015748},{"duration":0.042856999999997925,"midi":51,"time":129.85671,"velocity":0.3937007874015748},{"duration":0.042856999999997925,"midi":39,"time":129.85671,"velocity":0.3937007874015748},{"duration":0.042856999999997925,"midi":39,"time":129.942424,"velocity":0.3937007874015748},{"duration":0.042856999999997925,"midi":51,"time":129.942424,"velocity":0.3937007874015748},{"duration":0.042857000000026346,"midi":51,"time":130.02813799999998,"velocity":0.3937007874015748},{"duration":0.042857000000026346,"midi":39,"time":130.02813799999998,"velocity":0.3937007874015748},{"duration":0.042856999999997925,"midi":51,"time":130.113852,"velocity":0.3937007874015748},{"duration":0.042856999999997925,"midi":39,"time":130.113852,"velocity":0.3937007874015748},{"duration":0.042856999999997925,"midi":39,"time":130.199566,"velocity":0.3937007874015748},{"duration":0.042856999999997925,"midi":51,"time":130.199566,"velocity":0.3937007874015748},{"duration":0.042856999999997925,"midi":39,"time":130.28528,"velocity":0.3937007874015748},{"duration":0.042856999999997925,"midi":51,"time":130.28528,"velocity":0.3937007874015748},{"duration":0.042856999999997925,"midi":51,"time":130.370994,"velocity":0.3937007874015748},{"duration":0.042856999999997925,"midi":39,"time":130.370994,"velocity":0.3937007874015748},{"duration":0.042856999999997925,"midi":39,"time":130.456708,"velocity":0.3937007874015748},{"duration":0.042856999999997925,"midi":51,"time":130.456708,"velocity":0.3937007874015748},{"duration":0.042856999999997925,"midi":51,"time":130.542422,"velocity":0.3937007874015748},{"duration":0.042856999999997925,"midi":39,"time":130.542422,"velocity":0.3937007874015748},{"duration":0.042857000000026346,"midi":51,"time":130.62813599999998,"velocity":0.3937007874015748},{"duration":0.042857000000026346,"midi":39,"time":130.62813599999998,"velocity":0.3937007874015748},{"duration":0.042856999999997925,"midi":51,"time":130.71385,"velocity":0.3937007874015748},{"duration":0.042856999999997925,"midi":39,"time":130.71385,"velocity":0.3937007874015748},{"duration":0.042856999999997925,"midi":39,"time":130.799564,"velocity":0.3937007874015748},{"duration":0.042856999999997925,"midi":51,"time":130.799564,"velocity":0.3937007874015748},{"duration":0.042856999999997925,"midi":51,"time":130.885278,"velocity":0.3937007874015748},{"duration":0.042856999999997925,"midi":39,"time":130.885278,"velocity":0.3937007874015748},{"duration":0.042856999999997925,"midi":38,"time":130.970992,"velocity":0.3937007874015748},{"duration":0.042856999999997925,"midi":50,"time":130.970992,"velocity":0.3937007874015748},{"duration":0.042856999999997925,"midi":38,"time":131.056706,"velocity":0.3937007874015748},{"duration":0.042856999999997925,"midi":50,"time":131.056706,"velocity":0.3937007874015748},{"duration":0.042856999999997925,"midi":50,"time":131.14242,"velocity":0.3937007874015748},{"duration":0.042856999999997925,"midi":38,"time":131.14242,"velocity":0.3937007874015748},{"duration":0.042856999999997925,"midi":50,"time":131.228134,"velocity":0.3937007874015748},{"duration":0.042856999999997925,"midi":38,"time":131.228134,"velocity":0.3937007874015748},{"duration":0.042856999999997925,"midi":38,"time":131.313848,"velocity":0.3937007874015748},{"duration":0.042856999999997925,"midi":50,"time":131.313848,"velocity":0.3937007874015748},{"duration":0.042856999999997925,"midi":38,"time":131.399562,"velocity":0.3937007874015748},{"duration":0.042856999999997925,"midi":50,"time":131.399562,"velocity":0.3937007874015748},{"duration":0.042856999999997925,"midi":38,"time":131.485276,"velocity":0.3937007874015748},{"duration":0.042856999999997925,"midi":50,"time":131.485276,"velocity":0.3937007874015748},{"duration":0.042856999999997925,"midi":38,"time":131.57099,"velocity":0.3937007874015748},{"duration":0.042856999999997925,"midi":50,"time":131.57099,"velocity":0.3937007874015748},{"duration":0.042856999999997925,"midi":50,"time":131.656704,"velocity":0.3937007874015748},{"duration":0.042856999999997925,"midi":38,"time":131.656704,"velocity":0.3937007874015748},{"duration":0.042856999999997925,"midi":38,"time":131.742418,"velocity":0.3937007874015748},{"duration":0.042856999999997925,"midi":50,"time":131.742418,"velocity":0.3937007874015748},{"duration":0.042856999999997925,"midi":50,"time":131.828132,"velocity":0.3937007874015748},{"duration":0.042856999999997925,"midi":38,"time":131.828132,"velocity":0.3937007874015748},{"duration":0.042856999999997925,"midi":50,"time":131.913846,"velocity":0.3937007874015748},{"duration":0.042856999999997925,"midi":38,"time":131.913846,"velocity":0.3937007874015748},{"duration":0.042856999999997925,"midi":38,"time":131.99956,"velocity":0.3937007874015748},{"duration":0.042856999999997925,"midi":50,"time":131.99956,"velocity":0.3937007874015748},{"duration":0.042856999999997925,"midi":50,"time":132.085274,"velocity":0.3937007874015748},{"duration":0.042856999999997925,"midi":38,"time":132.085274,"velocity":0.3937007874015748},{"duration":0.042856999999997925,"midi":50,"time":132.170988,"velocity":0.3937007874015748},{"duration":0.042856999999997925,"midi":38,"time":132.170988,"velocity":0.3937007874015748},{"duration":0.042856999999997925,"midi":38,"time":132.256702,"velocity":0.3937007874015748},{"duration":0.042856999999997925,"midi":50,"time":132.256702,"velocity":0.3937007874015748},{"duration":0.042856999999997925,"midi":55,"time":132.342416,"velocity":0.3937007874015748},{"duration":0.042856999999997925,"midi":43,"time":132.342416,"velocity":0.3937007874015748},{"duration":0.042856999999997925,"midi":55,"time":132.42813,"velocity":0.3937007874015748},{"duration":0.042856999999997925,"midi":43,"time":132.42813,"velocity":0.3937007874015748},{"duration":0.042856999999997925,"midi":43,"time":132.513844,"velocity":0.3937007874015748},{"duration":0.042856999999997925,"midi":55,"time":132.513844,"velocity":0.3937007874015748},{"duration":0.042856999999997925,"midi":43,"time":132.599558,"velocity":0.3937007874015748},{"duration":0.042856999999997925,"midi":55,"time":132.599558,"velocity":0.3937007874015748},{"duration":0.042856999999997925,"midi":41,"time":132.685272,"velocity":0.3937007874015748},{"duration":0.042856999999997925,"midi":53,"time":132.685272,"velocity":0.3937007874015748},{"duration":0.042856999999997925,"midi":53,"time":132.770986,"velocity":0.3937007874015748},{"duration":0.042856999999997925,"midi":41,"time":132.770986,"velocity":0.3937007874015748},{"duration":0.042856999999997925,"midi":41,"time":132.8567,"velocity":0.3937007874015748},{"duration":0.042856999999997925,"midi":53,"time":132.8567,"velocity":0.3937007874015748},{"duration":0.042857000000026346,"midi":41,"time":132.94241399999999,"velocity":0.3937007874015748},{"duration":0.042857000000026346,"midi":53,"time":132.94241399999999,"velocity":0.3937007874015748},{"duration":0.042856999999997925,"midi":39,"time":133.028128,"velocity":0.3937007874015748},{"duration":0.042856999999997925,"midi":51,"time":133.028128,"velocity":0.3937007874015748},{"duration":0.042856999999997925,"midi":51,"time":133.113842,"velocity":0.3937007874015748},{"duration":0.042856999999997925,"midi":39,"time":133.113842,"velocity":0.3937007874015748},{"duration":0.042856999999997925,"midi":51,"time":133.199556,"velocity":0.3937007874015748},{"duration":0.042856999999997925,"midi":39,"time":133.199556,"velocity":0.3937007874015748},{"duration":0.042856999999997925,"midi":39,"time":133.28527,"velocity":0.3937007874015748},{"duration":0.042856999999997925,"midi":51,"time":133.28527,"velocity":0.3937007874015748},{"duration":0.042856999999997925,"midi":50,"time":133.370984,"velocity":0.3937007874015748},{"duration":0.042856999999997925,"midi":38,"time":133.370984,"velocity":0.3937007874015748},{"duration":0.042856999999997925,"midi":38,"time":133.456698,"velocity":0.3937007874015748},{"duration":0.042856999999997925,"midi":50,"time":133.456698,"velocity":0.3937007874015748},{"duration":0.042857000000026346,"midi":50,"time":133.54241199999998,"velocity":0.3937007874015748},{"duration":0.042857000000026346,"midi":38,"time":133.54241199999998,"velocity":0.3937007874015748},{"duration":0.042856999999997925,"midi":38,"time":133.628126,"velocity":0.3937007874015748},{"duration":0.042856999999997925,"midi":50,"time":133.628126,"velocity":0.3937007874015748},{"duration":0.042856999999997925,"midi":48,"time":133.71384,"velocity":0.3937007874015748},{"duration":0.042856999999997925,"midi":36,"time":133.71384,"velocity":0.3937007874015748},{"duration":0.042856999999997925,"midi":48,"time":133.799554,"velocity":0.3937007874015748},{"duration":0.042856999999997925,"midi":36,"time":133.799554,"velocity":0.3937007874015748},{"duration":0.042856999999997925,"midi":48,"time":133.885268,"velocity":0.3937007874015748},{"duration":0.042856999999997925,"midi":36,"time":133.885268,"velocity":0.3937007874015748},{"duration":0.042856999999997925,"midi":48,"time":133.970982,"velocity":0.3937007874015748},{"duration":0.042856999999997925,"midi":36,"time":133.970982,"velocity":0.3937007874015748},{"duration":0.042856999999997925,"midi":36,"time":134.056696,"velocity":0.3937007874015748},{"duration":0.042856999999997925,"midi":48,"time":134.056696,"velocity":0.3937007874015748},{"duration":0.042857000000026346,"midi":36,"time":134.14240999999998,"velocity":0.3937007874015748},{"duration":0.042857000000026346,"midi":48,"time":134.14240999999998,"velocity":0.3937007874015748},{"duration":0.042856999999997925,"midi":36,"time":134.228124,"velocity":0.3937007874015748},{"duration":0.042856999999997925,"midi":48,"time":134.228124,"velocity":0.3937007874015748},{"duration":0.042856999999997925,"midi":48,"time":134.313838,"velocity":0.3937007874015748},{"duration":0.042856999999997925,"midi":36,"time":134.313838,"velocity":0.3937007874015748},{"duration":0.042856999999997925,"midi":36,"time":134.399552,"velocity":0.3937007874015748},{"duration":0.042856999999997925,"midi":48,"time":134.399552,"velocity":0.3937007874015748},{"duration":0.042856999999997925,"midi":36,"time":134.485266,"velocity":0.3937007874015748},{"duration":0.042856999999997925,"midi":48,"time":134.485266,"velocity":0.3937007874015748},{"duration":0.042856999999997925,"midi":36,"time":134.57098,"velocity":0.3937007874015748},{"duration":0.042856999999997925,"midi":48,"time":134.57098,"velocity":0.3937007874015748},{"duration":0.042856999999997925,"midi":36,"time":134.656694,"velocity":0.3937007874015748},{"duration":0.042856999999997925,"midi":48,"time":134.656694,"velocity":0.3937007874015748},{"duration":0.042856999999997925,"midi":48,"time":134.742408,"velocity":0.3937007874015748},{"duration":0.042856999999997925,"midi":36,"time":134.742408,"velocity":0.3937007874015748},{"duration":0.042856999999997925,"midi":48,"time":134.828122,"velocity":0.3937007874015748},{"duration":0.042856999999997925,"midi":36,"time":134.828122,"velocity":0.3937007874015748},{"duration":0.042856999999997925,"midi":36,"time":134.913836,"velocity":0.3937007874015748},{"duration":0.042856999999997925,"midi":48,"time":134.913836,"velocity":0.3937007874015748},{"duration":0.042856999999997925,"midi":36,"time":134.99955,"velocity":0.3937007874015748},{"duration":0.042856999999997925,"midi":48,"time":134.99955,"velocity":0.3937007874015748},{"duration":0.042856999999997925,"midi":39,"time":135.085264,"velocity":0.3937007874015748},{"duration":0.042856999999997925,"midi":51,"time":135.085264,"velocity":0.3937007874015748},{"duration":0.042856999999997925,"midi":51,"time":135.170978,"velocity":0.3937007874015748},{"duration":0.042856999999997925,"midi":39,"time":135.170978,"velocity":0.3937007874015748},{"duration":0.042856999999997925,"midi":39,"time":135.256692,"velocity":0.3937007874015748},{"duration":0.042856999999997925,"midi":51,"time":135.256692,"velocity":0.3937007874015748},{"duration":0.042856999999997925,"midi":51,"time":135.342406,"velocity":0.3937007874015748},{"duration":0.042856999999997925,"midi":39,"time":135.342406,"velocity":0.3937007874015748},{"duration":0.042856999999997925,"midi":39,"time":135.42812,"velocity":0.3937007874015748},{"duration":0.042856999999997925,"midi":51,"time":135.42812,"velocity":0.3937007874015748},{"duration":0.042856999999997925,"midi":39,"time":135.513834,"velocity":0.3937007874015748},{"duration":0.042856999999997925,"midi":51,"time":135.513834,"velocity":0.3937007874015748},{"duration":0.042856999999997925,"midi":51,"time":135.599548,"velocity":0.3937007874015748},{"duration":0.042856999999997925,"midi":39,"time":135.599548,"velocity":0.3937007874015748},{"duration":0.042856999999997925,"midi":39,"time":135.685262,"velocity":0.3937007874015748},{"duration":0.042856999999997925,"midi":51,"time":135.685262,"velocity":0.3937007874015748},{"duration":0.042856999999997925,"midi":51,"time":135.770976,"velocity":0.3937007874015748},{"duration":0.042856999999997925,"midi":39,"time":135.770976,"velocity":0.3937007874015748},{"duration":0.042856999999997925,"midi":51,"time":135.85669,"velocity":0.3937007874015748},{"duration":0.042856999999997925,"midi":39,"time":135.85669,"velocity":0.3937007874015748},{"duration":0.042856999999997925,"midi":39,"time":135.942404,"velocity":0.3937007874015748},{"duration":0.042856999999997925,"midi":51,"time":135.942404,"velocity":0.3937007874015748},{"duration":0.042856999999997925,"midi":39,"time":136.028118,"velocity":0.3937007874015748},{"duration":0.042856999999997925,"midi":51,"time":136.028118,"velocity":0.3937007874015748},{"duration":0.042856999999997925,"midi":39,"time":136.113832,"velocity":0.3937007874015748},{"duration":0.042856999999997925,"midi":51,"time":136.113832,"velocity":0.3937007874015748},{"duration":0.042856999999997925,"midi":39,"time":136.199546,"velocity":0.3937007874015748},{"duration":0.042856999999997925,"midi":51,"time":136.199546,"velocity":0.3937007874015748},{"duration":0.042856999999997925,"midi":51,"time":136.28526,"velocity":0.3937007874015748},{"duration":0.042856999999997925,"midi":39,"time":136.28526,"velocity":0.3937007874015748},{"duration":0.042856999999997925,"midi":39,"time":136.370974,"velocity":0.3937007874015748},{"duration":0.042856999999997925,"midi":51,"time":136.370974,"velocity":0.3937007874015748},{"duration":0.042856999999997925,"midi":56,"time":136.45668799999999,"velocity":0.3937007874015748},{"duration":0.042856999999997925,"midi":44,"time":136.45668799999999,"velocity":0.3937007874015748},{"duration":0.042856999999997925,"midi":56,"time":136.542402,"velocity":0.3937007874015748},{"duration":0.042856999999997925,"midi":44,"time":136.542402,"velocity":0.3937007874015748},{"duration":0.042856999999997925,"midi":56,"time":136.628116,"velocity":0.3937007874015748},{"duration":0.042856999999997925,"midi":44,"time":136.628116,"velocity":0.3937007874015748},{"duration":0.042856999999997925,"midi":44,"time":136.71383,"velocity":0.3937007874015748},{"duration":0.042856999999997925,"midi":56,"time":136.71383,"velocity":0.3937007874015748},{"duration":0.042856999999997925,"midi":44,"time":136.799544,"velocity":0.3937007874015748},{"duration":0.042856999999997925,"midi":56,"time":136.799544,"velocity":0.3937007874015748},{"duration":0.042856999999997925,"midi":44,"time":136.885258,"velocity":0.3937007874015748},{"duration":0.042856999999997925,"midi":56,"time":136.885258,"velocity":0.3937007874015748},{"duration":0.042856999999997925,"midi":56,"time":136.970972,"velocity":0.3937007874015748},{"duration":0.042856999999997925,"midi":44,"time":136.970972,"velocity":0.3937007874015748},{"duration":0.042857000000026346,"midi":56,"time":137.05668599999998,"velocity":0.3937007874015748},{"duration":0.042857000000026346,"midi":44,"time":137.05668599999998,"velocity":0.3937007874015748},{"duration":0.042856999999997925,"midi":44,"time":137.1424,"velocity":0.3937007874015748},{"duration":0.042856999999997925,"midi":56,"time":137.1424,"velocity":0.3937007874015748},{"duration":0.042856999999997925,"midi":44,"time":137.228114,"velocity":0.3937007874015748},{"duration":0.042856999999997925,"midi":56,"time":137.228114,"velocity":0.3937007874015748},{"duration":0.042856999999997925,"midi":56,"time":137.313828,"velocity":0.3937007874015748},{"duration":0.042856999999997925,"midi":44,"time":137.313828,"velocity":0.3937007874015748},{"duration":0.042856999999997925,"midi":56,"time":137.399542,"velocity":0.3937007874015748},{"duration":0.042856999999997925,"midi":44,"time":137.399542,"velocity":0.3937007874015748},{"duration":0.042856999999997925,"midi":44,"time":137.485256,"velocity":0.3937007874015748},{"duration":0.042856999999997925,"midi":56,"time":137.485256,"velocity":0.3937007874015748},{"duration":0.042856999999997925,"midi":44,"time":137.57097,"velocity":0.3937007874015748},{"duration":0.042856999999997925,"midi":56,"time":137.57097,"velocity":0.3937007874015748},{"duration":0.042857000000026346,"midi":44,"time":137.65668399999998,"velocity":0.3937007874015748},{"duration":0.042857000000026346,"midi":56,"time":137.65668399999998,"velocity":0.3937007874015748},{"duration":0.042856999999997925,"midi":56,"time":137.742398,"velocity":0.3937007874015748},{"duration":0.042856999999997925,"midi":44,"time":137.742398,"velocity":0.3937007874015748},{"duration":0.042856999999997925,"midi":43,"time":137.828112,"velocity":0.3937007874015748},{"duration":0.042856999999997925,"midi":55,"time":137.828112,"velocity":0.3937007874015748},{"duration":0.042856999999997925,"midi":43,"time":137.913826,"velocity":0.3937007874015748},{"duration":0.042856999999997925,"midi":55,"time":137.913826,"velocity":0.3937007874015748},{"duration":0.042856999999997925,"midi":55,"time":137.99954,"velocity":0.3937007874015748},{"duration":0.042856999999997925,"midi":43,"time":137.99954,"velocity":0.3937007874015748},{"duration":0.042856999999997925,"midi":43,"time":138.085254,"velocity":0.3937007874015748},{"duration":0.042856999999997925,"midi":55,"time":138.085254,"velocity":0.3937007874015748},{"duration":0.042856999999997925,"midi":43,"time":138.170968,"velocity":0.3937007874015748},{"duration":0.042856999999997925,"midi":55,"time":138.170968,"velocity":0.3937007874015748},{"duration":0.042857000000026346,"midi":55,"time":138.25668199999998,"velocity":0.3937007874015748},{"duration":0.042857000000026346,"midi":43,"time":138.25668199999998,"velocity":0.3937007874015748},{"duration":0.042856999999997925,"midi":55,"time":138.342396,"velocity":0.3937007874015748},{"duration":0.042856999999997925,"midi":43,"time":138.342396,"velocity":0.3937007874015748},{"duration":0.042856999999997925,"midi":43,"time":138.42811,"velocity":0.3937007874015748},{"duration":0.042856999999997925,"midi":55,"time":138.42811,"velocity":0.3937007874015748},{"duration":0.042856999999997925,"midi":43,"time":138.513824,"velocity":0.3937007874015748},{"duration":0.042856999999997925,"midi":55,"time":138.513824,"velocity":0.3937007874015748},{"duration":0.042856999999997925,"midi":55,"time":138.599538,"velocity":0.3937007874015748},{"duration":0.042856999999997925,"midi":43,"time":138.599538,"velocity":0.3937007874015748},{"duration":0.042856999999997925,"midi":43,"time":138.685252,"velocity":0.3937007874015748},{"duration":0.042856999999997925,"midi":55,"time":138.685252,"velocity":0.3937007874015748},{"duration":0.042856999999997925,"midi":43,"time":138.770966,"velocity":0.3937007874015748},{"duration":0.042856999999997925,"midi":55,"time":138.770966,"velocity":0.3937007874015748},{"duration":0.042856999999997925,"midi":55,"time":138.85668,"velocity":0.3937007874015748},{"duration":0.042856999999997925,"midi":43,"time":138.85668,"velocity":0.3937007874015748},{"duration":0.042856999999997925,"midi":55,"time":138.942394,"velocity":0.3937007874015748},{"duration":0.042856999999997925,"midi":43,"time":138.942394,"velocity":0.3937007874015748},{"duration":0.042856999999997925,"midi":55,"time":139.028108,"velocity":0.3937007874015748},{"duration":0.042856999999997925,"midi":43,"time":139.028108,"velocity":0.3937007874015748},{"duration":0.042856999999997925,"midi":43,"time":139.113822,"velocity":0.3937007874015748},{"duration":0.042856999999997925,"midi":55,"time":139.113822,"velocity":0.3937007874015748},{"duration":0.042856999999997925,"midi":53,"time":139.199536,"velocity":0.3937007874015748},{"duration":0.042856999999997925,"midi":41,"time":139.199536,"velocity":0.3937007874015748},{"duration":0.042856999999997925,"midi":41,"time":139.28525,"velocity":0.3937007874015748},{"duration":0.042856999999997925,"midi":53,"time":139.28525,"velocity":0.3937007874015748},{"duration":0.042856999999997925,"midi":41,"time":139.370964,"velocity":0.3937007874015748},{"duration":0.042856999999997925,"midi":53,"time":139.370964,"velocity":0.3937007874015748},{"duration":0.042856999999997925,"midi":41,"time":139.456678,"velocity":0.3937007874015748},{"duration":0.042856999999997925,"midi":53,"time":139.456678,"velocity":0.3937007874015748},{"duration":0.042856999999997925,"midi":41,"time":139.542392,"velocity":0.3937007874015748},{"duration":0.042856999999997925,"midi":53,"time":139.542392,"velocity":0.3937007874015748},{"duration":0.042856999999997925,"midi":41,"time":139.628106,"velocity":0.3937007874015748},{"duration":0.042856999999997925,"midi":53,"time":139.628106,"velocity":0.3937007874015748},{"duration":0.042856999999997925,"midi":53,"time":139.71382,"velocity":0.3937007874015748},{"duration":0.042856999999997925,"midi":41,"time":139.71382,"velocity":0.3937007874015748},{"duration":0.042856999999997925,"midi":41,"time":139.799534,"velocity":0.3937007874015748},{"duration":0.042856999999997925,"midi":53,"time":139.799534,"velocity":0.3937007874015748},{"duration":0.042856999999997925,"midi":55,"time":139.885248,"velocity":0.3937007874015748},{"duration":0.042856999999997925,"midi":43,"time":139.885248,"velocity":0.3937007874015748},{"duration":0.042856999999997925,"midi":43,"time":139.970962,"velocity":0.3937007874015748},{"duration":0.042856999999997925,"midi":55,"time":139.970962,"velocity":0.3937007874015748},{"duration":0.042856999999997925,"midi":55,"time":140.056676,"velocity":0.3937007874015748},{"duration":0.042856999999997925,"midi":43,"time":140.056676,"velocity":0.3937007874015748},{"duration":0.042856999999997925,"midi":55,"time":140.14239,"velocity":0.3937007874015748},{"duration":0.042856999999997925,"midi":43,"time":140.14239,"velocity":0.3937007874015748},{"duration":0.042856999999997925,"midi":43,"time":140.228104,"velocity":0.3937007874015748},{"duration":0.042856999999997925,"midi":55,"time":140.228104,"velocity":0.3937007874015748},{"duration":0.042856999999997925,"midi":55,"time":140.313818,"velocity":0.3937007874015748},{"duration":0.042856999999997925,"midi":43,"time":140.313818,"velocity":0.3937007874015748},{"duration":0.042856999999997925,"midi":43,"time":140.399532,"velocity":0.3937007874015748},{"duration":0.042856999999997925,"midi":55,"time":140.399532,"velocity":0.3937007874015748},{"duration":0.042856999999997925,"midi":43,"time":140.485246,"velocity":0.3937007874015748},{"duration":0.042856999999997925,"midi":55,"time":140.485246,"velocity":0.3937007874015748},{"duration":0.042857000000026346,"midi":51,"time":140.57095999999999,"velocity":0.3937007874015748},{"duration":0.042857000000026346,"midi":39,"time":140.57095999999999,"velocity":0.3937007874015748},{"duration":0.042856999999997925,"midi":39,"time":140.656674,"velocity":0.3937007874015748},{"duration":0.042856999999997925,"midi":51,"time":140.656674,"velocity":0.3937007874015748},{"duration":0.042856999999997925,"midi":39,"time":140.742388,"velocity":0.3937007874015748},{"duration":0.042856999999997925,"midi":51,"time":140.742388,"velocity":0.3937007874015748},{"duration":0.042856999999997925,"midi":51,"time":140.828102,"velocity":0.3937007874015748},{"duration":0.042856999999997925,"midi":39,"time":140.828102,"velocity":0.3937007874015748},{"duration":0.042856999999997925,"midi":51,"time":140.913816,"velocity":0.3937007874015748},{"duration":0.042856999999997925,"midi":39,"time":140.913816,"velocity":0.3937007874015748},{"duration":0.042856999999997925,"midi":39,"time":140.99953,"velocity":0.3937007874015748},{"duration":0.042856999999997925,"midi":51,"time":140.99953,"velocity":0.3937007874015748},{"duration":0.042856999999997925,"midi":39,"time":141.085244,"velocity":0.3937007874015748},{"duration":0.042856999999997925,"midi":51,"time":141.085244,"velocity":0.3937007874015748},{"duration":0.042857000000026346,"midi":51,"time":141.17095799999998,"velocity":0.3937007874015748},{"duration":0.042857000000026346,"midi":39,"time":141.17095799999998,"velocity":0.3937007874015748},{"duration":0.042856999999997925,"midi":36,"time":141.256672,"velocity":0.3937007874015748},{"duration":0.042856999999997925,"midi":48,"time":141.256672,"velocity":0.3937007874015748},{"duration":0.042856999999997925,"midi":36,"time":141.342386,"velocity":0.3937007874015748},{"duration":0.042856999999997925,"midi":48,"time":141.342386,"velocity":0.3937007874015748},{"duration":0.042856999999997925,"midi":48,"time":141.4281,"velocity":0.3937007874015748},{"duration":0.042856999999997925,"midi":36,"time":141.4281,"velocity":0.3937007874015748},{"duration":0.042856999999997925,"midi":48,"time":141.513814,"velocity":0.3937007874015748},{"duration":0.042856999999997925,"midi":36,"time":141.513814,"velocity":0.3937007874015748},{"duration":0.042856999999997925,"midi":36,"time":141.599528,"velocity":0.3937007874015748},{"duration":0.042856999999997925,"midi":48,"time":141.599528,"velocity":0.3937007874015748},{"duration":0.042856999999997925,"midi":36,"time":141.685242,"velocity":0.3937007874015748},{"duration":0.042856999999997925,"midi":48,"time":141.685242,"velocity":0.3937007874015748},{"duration":0.042857000000026346,"midi":36,"time":141.77095599999998,"velocity":0.3937007874015748},{"duration":0.042857000000026346,"midi":48,"time":141.77095599999998,"velocity":0.3937007874015748},{"duration":0.042856999999997925,"midi":36,"time":141.85667,"velocity":0.3937007874015748},{"duration":0.042856999999997925,"midi":48,"time":141.85667,"velocity":0.3937007874015748},{"duration":0.042856999999997925,"midi":42,"time":141.942384,"velocity":0.3937007874015748},{"duration":0.042856999999997925,"midi":54,"time":141.942384,"velocity":0.3937007874015748},{"duration":0.042856999999997925,"midi":54,"time":142.028098,"velocity":0.3937007874015748},{"duration":0.042856999999997925,"midi":42,"time":142.028098,"velocity":0.3937007874015748},{"duration":0.042856999999997925,"midi":54,"time":142.113812,"velocity":0.3937007874015748},{"duration":0.042856999999997925,"midi":42,"time":142.113812,"velocity":0.3937007874015748},{"duration":0.042856999999997925,"midi":42,"time":142.199526,"velocity":0.3937007874015748},{"duration":0.042856999999997925,"midi":54,"time":142.199526,"velocity":0.3937007874015748},{"duration":0.042856999999997925,"midi":50,"time":142.28524,"velocity":0.3937007874015748},{"duration":0.042856999999997925,"midi":38,"time":142.28524,"velocity":0.3937007874015748},{"duration":0.042857000000026346,"midi":50,"time":142.37095399999998,"velocity":0.3937007874015748},{"duration":0.042857000000026346,"midi":38,"time":142.37095399999998,"velocity":0.3937007874015748},{"duration":0.042856999999997925,"midi":38,"time":142.456668,"velocity":0.3937007874015748},{"duration":0.042856999999997925,"midi":50,"time":142.456668,"velocity":0.3937007874015748},{"duration":0.042856999999997925,"midi":38,"time":142.542382,"velocity":0.3937007874015748},{"duration":0.042856999999997925,"midi":50,"time":142.542382,"velocity":0.3937007874015748},{"duration":0.042856999999997925,"midi":43,"time":142.628096,"velocity":0.3937007874015748},{"duration":0.042856999999997925,"midi":55,"time":142.628096,"velocity":0.3937007874015748},{"duration":0.042856999999997925,"midi":43,"time":142.71381,"velocity":0.3937007874015748},{"duration":0.042856999999997925,"midi":55,"time":142.71381,"velocity":0.3937007874015748},{"duration":0.042856999999997925,"midi":43,"time":142.799524,"velocity":0.3937007874015748},{"duration":0.042856999999997925,"midi":55,"time":142.799524,"velocity":0.3937007874015748},{"duration":0.042856999999997925,"midi":43,"time":142.885238,"velocity":0.3937007874015748},{"duration":0.042856999999997925,"midi":55,"time":142.885238,"velocity":0.3937007874015748},{"duration":0.042856999999997925,"midi":47,"time":142.970952,"velocity":0.3937007874015748},{"duration":0.042856999999997925,"midi":59,"time":142.970952,"velocity":0.3937007874015748},{"duration":0.042856999999997925,"midi":47,"time":143.056666,"velocity":0.3937007874015748},{"duration":0.042856999999997925,"midi":59,"time":143.056666,"velocity":0.3937007874015748},{"duration":0.042856999999997925,"midi":59,"time":143.14238,"velocity":0.3937007874015748},{"duration":0.042856999999997925,"midi":47,"time":143.14238,"velocity":0.3937007874015748},{"duration":0.042856999999997925,"midi":59,"time":143.228094,"velocity":0.3937007874015748},{"duration":0.042856999999997925,"midi":47,"time":143.228094,"velocity":0.3937007874015748},{"duration":0.042856999999997925,"midi":60,"time":143.313808,"velocity":0.3937007874015748},{"duration":0.042856999999997925,"midi":48,"time":143.313808,"velocity":0.3937007874015748},{"duration":0.042856999999997925,"midi":48,"time":143.399522,"velocity":0.3937007874015748},{"duration":0.042856999999997925,"midi":60,"time":143.399522,"velocity":0.3937007874015748},{"duration":0.042856999999997925,"midi":60,"time":143.485236,"velocity":0.3937007874015748},{"duration":0.042856999999997925,"midi":48,"time":143.485236,"velocity":0.3937007874015748},{"duration":0.042856999999997925,"midi":60,"time":143.57095,"velocity":0.3937007874015748},{"duration":0.042856999999997925,"midi":48,"time":143.57095,"velocity":0.3937007874015748},{"duration":0.042856999999997925,"midi":43,"time":143.656664,"velocity":0.3937007874015748},{"duration":0.042856999999997925,"midi":55,"time":143.656664,"velocity":0.3937007874015748},{"duration":0.042856999999997925,"midi":43,"time":143.742378,"velocity":0.3937007874015748},{"duration":0.042856999999997925,"midi":55,"time":143.742378,"velocity":0.3937007874015748},{"duration":0.042856999999997925,"midi":43,"time":143.828092,"velocity":0.3937007874015748},{"duration":0.042856999999997925,"midi":55,"time":143.828092,"velocity":0.3937007874015748},{"duration":0.042856999999997925,"midi":43,"time":143.913806,"velocity":0.3937007874015748},{"duration":0.042856999999997925,"midi":55,"time":143.913806,"velocity":0.3937007874015748},{"duration":0.042856999999997925,"midi":48,"time":143.99952,"velocity":0.3937007874015748},{"duration":0.042856999999997925,"midi":36,"time":143.99952,"velocity":0.3937007874015748},{"duration":0.042856999999997925,"midi":48,"time":144.08523399999999,"velocity":0.3937007874015748},{"duration":0.042856999999997925,"midi":36,"time":144.08523399999999,"velocity":0.3937007874015748},{"duration":0.042856999999997925,"midi":48,"time":144.170948,"velocity":0.3937007874015748},{"duration":0.042856999999997925,"midi":36,"time":144.170948,"velocity":0.3937007874015748},{"duration":0.042856999999997925,"midi":36,"time":144.256662,"velocity":0.3937007874015748},{"duration":0.042856999999997925,"midi":48,"time":144.256662,"velocity":0.3937007874015748},{"duration":0.042856999999997925,"midi":36,"time":144.342376,"velocity":0.3937007874015748},{"duration":0.042856999999997925,"midi":48,"time":144.342376,"velocity":0.3937007874015748},{"duration":0.042856999999997925,"midi":36,"time":144.42809,"velocity":0.3937007874015748},{"duration":0.042856999999997925,"midi":48,"time":144.42809,"velocity":0.3937007874015748},{"duration":0.042856999999997925,"midi":36,"time":144.513804,"velocity":0.3937007874015748},{"duration":0.042856999999997925,"midi":48,"time":144.513804,"velocity":0.3937007874015748},{"duration":0.042856999999997925,"midi":36,"time":144.599518,"velocity":0.3937007874015748},{"duration":0.042856999999997925,"midi":48,"time":144.599518,"velocity":0.3937007874015748}]},{"instrument":{"family":"synth lead","number":87,"name":"lead 8 (bass + lead)"},"notes":[{"duration":0.042857000000000145,"midi":67,"time":2.057136,"velocity":0.5511811023622047},{"duration":0.042857000000000145,"midi":55,"time":2.057136,"velocity":0.5511811023622047},{"duration":0.0428569999999997,"midi":68,"time":2.14285,"velocity":0.5511811023622047},{"duration":0.0428569999999997,"midi":56,"time":2.14285,"velocity":0.5511811023622047},{"duration":0.042857000000000145,"midi":55,"time":2.228564,"velocity":0.5511811023622047},{"duration":0.042857000000000145,"midi":67,"time":2.228564,"velocity":0.5511811023622047},{"duration":0.042857000000000145,"midi":66,"time":2.314278,"velocity":0.5511811023622047},{"duration":0.042857000000000145,"midi":54,"time":2.314278,"velocity":0.5511811023622047},{"duration":0.0428569999999997,"midi":67,"time":2.399992,"velocity":0.5511811023622047},{"duration":0.0428569999999997,"midi":55,"time":2.399992,"velocity":0.5511811023622047},{"duration":0.042857000000000145,"midi":48,"time":2.57142,"velocity":0.5511811023622047},{"duration":0.042857000000000145,"midi":60,"time":2.57142,"velocity":0.5511811023622047},{"duration":0.042857000000000145,"midi":51,"time":2.742848,"velocity":0.5511811023622047},{"duration":0.042857000000000145,"midi":63,"time":2.742848,"velocity":0.5511811023622047},{"duration":0.042857000000000145,"midi":50,"time":3.085704,"velocity":0.5511811023622047},{"duration":0.042857000000000145,"midi":62,"time":3.085704,"velocity":0.5511811023622047},{"duration":0.0428569999999997,"midi":63,"time":3.171418,"velocity":0.5511811023622047},{"duration":0.0428569999999997,"midi":51,"time":3.171418,"velocity":0.5511811023622047},{"duration":0.042857000000000145,"midi":50,"time":3.257132,"velocity":0.5511811023622047},{"duration":0.042857000000000145,"midi":62,"time":3.257132,"velocity":0.5511811023622047},{"duration":0.042857000000000145,"midi":48,"time":3.3428459999999998,"velocity":0.5511811023622047},{"duration":0.042857000000000145,"midi":60,"time":3.3428459999999998,"velocity":0.5511811023622047},{"duration":0.0428569999999997,"midi":50,"time":3.42856,"velocity":0.5511811023622047},{"duration":0.0428569999999997,"midi":62,"time":3.42856,"velocity":0.5511811023622047},{"duration":0.042857000000000145,"midi":47,"time":3.5999879999999997,"velocity":0.5511811023622047},{"duration":0.042857000000000145,"midi":59,"time":3.5999879999999997,"velocity":0.5511811023622047},{"duration":0.042857000000000145,"midi":43,"time":3.771416,"velocity":0.5511811023622047},{"duration":0.042857000000000145,"midi":55,"time":3.771416,"velocity":0.5511811023622047},{"duration":0.04285700000000059,"midi":38,"time":4.114272,"velocity":0.5511811023622047},{"duration":0.04285700000000059,"midi":50,"time":4.114272,"velocity":0.5511811023622047},{"duration":0.0428569999999997,"midi":35,"time":4.2857,"velocity":0.5511811023622047},{"duration":0.0428569999999997,"midi":47,"time":4.2857,"velocity":0.5511811023622047},{"duration":0.0428569999999997,"midi":43,"time":4.457128,"velocity":0.5511811023622047},{"duration":0.0428569999999997,"midi":43,"time":4.457128,"velocity":0.5511811023622047},{"duration":0.0428569999999997,"midi":48,"time":4.799984,"velocity":0.5511811023622047},{"duration":0.0428569999999997,"midi":60,"time":4.799984,"velocity":0.5511811023622047},{"duration":0.04285700000000059,"midi":49,"time":4.885698,"velocity":0.5511811023622047},{"duration":0.04285700000000059,"midi":61,"time":4.885698,"velocity":0.5511811023622047},{"duration":0.0428569999999997,"midi":60,"time":4.971412,"velocity":0.5511811023622047},{"duration":0.0428569999999997,"midi":48,"time":4.971412,"velocity":0.5511811023622047},{"duration":0.0428569999999997,"midi":59,"time":5.057126,"velocity":0.5511811023622047},{"duration":0.0428569999999997,"midi":47,"time":5.057126,"velocity":0.5511811023622047},{"duration":0.04285700000000059,"midi":48,"time":5.14284,"velocity":0.5511811023622047},{"duration":0.04285700000000059,"midi":60,"time":5.14284,"velocity":0.5511811023622047},{"duration":0.0428569999999997,"midi":64,"time":5.314268,"velocity":0.5511811023622047},{"duration":0.0428569999999997,"midi":52,"time":5.314268,"velocity":0.5511811023622047},{"duration":0.0428569999999997,"midi":67,"time":5.485696,"velocity":0.5511811023622047},{"duration":0.0428569999999997,"midi":55,"time":5.485696,"velocity":0.5511811023622047},{"duration":0.0428569999999997,"midi":60,"time":5.828552,"velocity":0.5511811023622047},{"duration":0.0428569999999997,"midi":48,"time":5.828552,"velocity":0.5511811023622047},{"duration":0.0428569999999997,"midi":58,"time":5.99998,"velocity":0.5511811023622047},{"duration":0.0428569999999997,"midi":70,"time":5.99998,"velocity":0.5511811023622047},{"duration":0.04285700000000059,"midi":56,"time":6.171408,"velocity":0.5511811023622047},{"duration":0.04285700000000059,"midi":68,"time":6.171408,"velocity":0.5511811023622047},{"duration":0.04285700000000059,"midi":55,"time":6.4285499999999995,"velocity":0.5511811023622047},{"duration":0.04285700000000059,"midi":67,"time":6.4285499999999995,"velocity":0.5511811023622047},{"duration":0.0428569999999997,"midi":53,"time":6.514264,"velocity":0.5511811023622047},{"duration":0.0428569999999997,"midi":65,"time":6.514264,"velocity":0.5511811023622047},{"duration":0.0428569999999997,"midi":44,"time":6.85712,"velocity":0.5511811023622047},{"duration":0.0428569999999997,"midi":56,"time":6.85712,"velocity":0.5511811023622047},{"duration":0.0428569999999997,"midi":55,"time":7.114262,"velocity":0.5511811023622047},{"duration":0.0428569999999997,"midi":43,"time":7.114262,"velocity":0.5511811023622047},{"duration":0.04285700000000059,"midi":41,"time":7.1999759999999995,"velocity":0.5511811023622047},{"duration":0.04285700000000059,"midi":53,"time":7.1999759999999995,"velocity":0.5511811023622047},{"duration":0.0428569999999997,"midi":65,"time":7.542832,"velocity":0.5511811023622047},{"duration":0.0428569999999997,"midi":53,"time":7.542832,"velocity":0.5511811023622047},{"duration":0.0428569999999997,"midi":55,"time":7.628546,"velocity":0.5511811023622047},{"duration":0.0428569999999997,"midi":67,"time":7.628546,"velocity":0.5511811023622047},{"duration":0.04285700000000059,"midi":53,"time":7.7142599999999995,"velocity":0.5511811023622047},{"duration":0.04285700000000059,"midi":65,"time":7.7142599999999995,"velocity":0.5511811023622047},{"duration":0.0428569999999997,"midi":52,"time":7.799974,"velocity":0.5511811023622047},{"duration":0.0428569999999997,"midi":64,"time":7.799974,"velocity":0.5511811023622047},{"duration":0.0428569999999997,"midi":65,"time":7.885688,"velocity":0.5511811023622047},{"duration":0.0428569999999997,"midi":53,"time":7.885688,"velocity":0.5511811023622047},{"duration":0.0428569999999997,"midi":56,"time":8.057116,"velocity":0.5511811023622047},{"duration":0.0428569999999997,"midi":68,"time":8.057116,"velocity":0.5511811023622047},{"duration":0.0428569999999997,"midi":67,"time":8.228544,"velocity":0.5511811023622047},{"duration":0.0428569999999997,"midi":55,"time":8.228544,"velocity":0.5511811023622047},{"duration":0.0428569999999997,"midi":50,"time":8.5714,"velocity":0.5511811023622047},{"duration":0.0428569999999997,"midi":62,"time":8.5714,"velocity":0.5511811023622047},{"duration":0.0428569999999997,"midi":53,"time":8.742828,"velocity":0.5511811023622047},{"duration":0.0428569999999997,"midi":65,"time":8.742828,"velocity":0.5511811023622047},{"duration":0.0428569999999997,"midi":63,"time":8.914256,"velocity":0.5511811023622047},{"duration":0.0428569999999997,"midi":51,"time":8.914256,"velocity":0.5511811023622047},{"duration":0.0428569999999997,"midi":51,"time":9.085684,"velocity":0.5511811023622047},{"duration":0.0428569999999997,"midi":63,"time":9.085684,"velocity":0.5511811023622047},{"duration":0.0428569999999997,"midi":50,"time":9.171398,"velocity":0.5511811023622047},{"duration":0.0428569999999997,"midi":62,"time":9.171398,"velocity":0.5511811023622047},{"duration":0.0428569999999997,"midi":60,"time":9.257112,"velocity":0.5511811023622047},{"duration":0.0428569999999997,"midi":48,"time":9.257112,"velocity":0.5511811023622047},{"duration":0.0428569999999997,"midi":50,"time":9.342826,"velocity":0.5511811023622047},{"duration":0.0428569999999997,"midi":62,"time":9.342826,"velocity":0.5511811023622047},{"duration":0.0428569999999997,"midi":51,"time":9.42854,"velocity":0.5511811023622047},{"duration":0.0428569999999997,"midi":63,"time":9.42854,"velocity":0.5511811023622047},{"duration":0.0428569999999997,"midi":55,"time":9.514254,"velocity":0.5511811023622047},{"duration":0.0428569999999997,"midi":67,"time":9.514254,"velocity":0.5511811023622047},{"duration":0.0428569999999997,"midi":60,"time":9.599968,"velocity":0.5511811023622047},{"duration":0.0428569999999997,"midi":72,"time":9.599968,"velocity":0.5511811023622047},{"duration":0.0428569999999997,"midi":62,"time":10.114252,"velocity":0.5511811023622047},{"duration":0.0428569999999997,"midi":74,"time":10.114252,"velocity":0.5511811023622047},{"duration":0.0428569999999997,"midi":63,"time":10.199966,"velocity":0.5511811023622047},{"duration":0.0428569999999997,"midi":75,"time":10.199966,"velocity":0.5511811023622047},{"duration":0.0428569999999997,"midi":62,"time":10.28568,"velocity":0.5511811023622047},{"duration":0.0428569999999997,"midi":74,"time":10.28568,"velocity":0.5511811023622047},{"duration":0.0428569999999997,"midi":72,"time":10.542822,"velocity":0.5511811023622047},{"duration":0.0428569999999997,"midi":60,"time":10.542822,"velocity":0.5511811023622047},{"duration":0.0428569999999997,"midi":60,"time":10.628536,"velocity":0.5511811023622047},{"duration":0.0428569999999997,"midi":72,"time":10.628536,"velocity":0.5511811023622047},{"duration":0.0428569999999997,"midi":58,"time":10.885678,"velocity":0.5511811023622047},{"duration":0.0428569999999997,"midi":70,"time":10.885678,"velocity":0.5511811023622047},{"duration":0.0428569999999997,"midi":58,"time":10.971392,"velocity":0.5511811023622047},{"duration":0.0428569999999997,"midi":70,"time":10.971392,"velocity":0.5511811023622047},{"duration":0.0428569999999997,"midi":56,"time":11.228534,"velocity":0.5511811023622047},{"duration":0.0428569999999997,"midi":68,"time":11.228534,"velocity":0.5511811023622047},{"duration":0.04285700000000148,"midi":68,"time":11.314248,"velocity":0.5511811023622047},{"duration":0.04285700000000148,"midi":56,"time":11.314248,"velocity":0.5511811023622047},{"duration":0.04285700000000148,"midi":54,"time":11.57139,"velocity":0.5511811023622047},{"duration":0.04285700000000148,"midi":66,"time":11.57139,"velocity":0.5511811023622047},{"duration":0.0428569999999997,"midi":67,"time":11.657104,"velocity":0.5511811023622047},{"duration":0.0428569999999997,"midi":55,"time":11.657104,"velocity":0.5511811023622047},{"duration":0.04285700000000148,"midi":55,"time":11.828532,"velocity":0.5511811023622047},{"duration":0.04285700000000148,"midi":67,"time":11.828532,"velocity":0.5511811023622047},{"duration":0.0428569999999997,"midi":68,"time":11.914246,"velocity":0.5511811023622047},{"duration":0.0428569999999997,"midi":56,"time":11.914246,"velocity":0.5511811023622047},{"duration":0.0428569999999997,"midi":67,"time":11.99996,"velocity":0.5511811023622047},{"duration":0.0428569999999997,"midi":55,"time":11.99996,"velocity":0.5511811023622047},{"duration":0.0428569999999997,"midi":55,"time":13.028528,"velocity":0.5511811023622047},{"duration":0.0428569999999997,"midi":67,"time":13.028528,"velocity":0.5511811023622047},{"duration":0.04285700000000148,"midi":68,"time":13.114241999999999,"velocity":0.5511811023622047},{"duration":0.04285700000000148,"midi":56,"time":13.114241999999999,"velocity":0.5511811023622047},{"duration":0.0428569999999997,"midi":67,"time":13.199956,"velocity":0.5511811023622047},{"duration":0.0428569999999997,"midi":55,"time":13.199956,"velocity":0.5511811023622047},{"duration":0.0428569999999997,"midi":54,"time":13.28567,"velocity":0.5511811023622047},{"duration":0.0428569999999997,"midi":66,"time":13.28567,"velocity":0.5511811023622047},{"duration":0.04285700000000148,"midi":67,"time":13.371383999999999,"velocity":0.5511811023622047},{"duration":0.04285700000000148,"midi":55,"time":13.371383999999999,"velocity":0.5511811023622047},{"duration":0.0428569999999997,"midi":60,"time":13.542812,"velocity":0.5511811023622047},{"duration":0.0428569999999997,"midi":48,"time":13.542812,"velocity":0.5511811023622047},{"duration":0.0428569999999997,"midi":63,"time":13.71424,"velocity":0.5511811023622047},{"duration":0.0428569999999997,"midi":51,"time":13.71424,"velocity":0.5511811023622047},{"duration":0.0428569999999997,"midi":62,"time":14.057096,"velocity":0.5511811023622047},{"duration":0.0428569999999997,"midi":50,"time":14.057096,"velocity":0.5511811023622047},{"duration":0.04285700000000148,"midi":63,"time":14.142809999999999,"velocity":0.5511811023622047},{"duration":0.04285700000000148,"midi":51,"time":14.142809999999999,"velocity":0.5511811023622047},{"duration":0.0428569999999997,"midi":50,"time":14.228524,"velocity":0.5511811023622047},{"duration":0.0428569999999997,"midi":62,"time":14.228524,"velocity":0.5511811023622047},{"duration":0.0428569999999997,"midi":48,"time":14.314238,"velocity":0.5511811023622047},{"duration":0.0428569999999997,"midi":60,"time":14.314238,"velocity":0.5511811023622047},{"duration":0.04285700000000148,"midi":62,"time":14.399951999999999,"velocity":0.5511811023622047},{"duration":0.04285700000000148,"midi":50,"time":14.399951999999999,"velocity":0.5511811023622047},{"duration":0.0428569999999997,"midi":47,"time":14.57138,"velocity":0.5511811023622047},{"duration":0.0428569999999997,"midi":59,"time":14.57138,"velocity":0.5511811023622047},{"duration":0.0428569999999997,"midi":55,"time":14.742808,"velocity":0.5511811023622047},{"duration":0.0428569999999997,"midi":43,"time":14.742808,"velocity":0.5511811023622047},{"duration":0.0428569999999997,"midi":38,"time":15.085664,"velocity":0.5511811023622047},{"duration":0.0428569999999997,"midi":50,"time":15.085664,"velocity":0.5511811023622047},{"duration":0.0428569999999997,"midi":47,"time":15.257092,"velocity":0.5511811023622047},{"duration":0.0428569999999997,"midi":35,"time":15.257092,"velocity":0.5511811023622047},{"duration":0.04285700000000148,"midi":43,"time":15.428519999999999,"velocity":0.5511811023622047},{"duration":0.04285700000000148,"midi":43,"time":15.428519999999999,"velocity":0.5511811023622047},{"duration":0.0428569999999997,"midi":60,"time":15.771376,"velocity":0.5511811023622047},{"duration":0.0428569999999997,"midi":48,"time":15.771376,"velocity":0.5511811023622047},{"duration":0.0428569999999997,"midi":49,"time":15.85709,"velocity":0.5511811023622047},{"duration":0.0428569999999997,"midi":61,"time":15.85709,"velocity":0.5511811023622047},{"duration":0.04285700000000148,"midi":60,"time":15.942803999999999,"velocity":0.5511811023622047},{"duration":0.04285700000000148,"midi":48,"time":15.942803999999999,"velocity":0.5511811023622047},{"duration":0.04285700000000148,"midi":47,"time":16.028518,"velocity":0.5511811023622047},{"duration":0.04285700000000148,"midi":59,"time":16.028518,"velocity":0.5511811023622047},{"duration":0.042856999999997925,"midi":60,"time":16.114232,"velocity":0.5511811023622047},{"duration":0.042856999999997925,"midi":48,"time":16.114232,"velocity":0.5511811023622047},{"duration":0.042856999999997925,"midi":64,"time":16.28566,"velocity":0.5511811023622047},{"duration":0.042856999999997925,"midi":52,"time":16.28566,"velocity":0.5511811023622047},{"duration":0.04285700000000148,"midi":67,"time":16.457088,"velocity":0.5511811023622047},{"duration":0.04285700000000148,"midi":55,"time":16.457088,"velocity":0.5511811023622047},{"duration":0.04285700000000148,"midi":48,"time":16.799944,"velocity":0.5511811023622047},{"duration":0.04285700000000148,"midi":60,"time":16.799944,"velocity":0.5511811023622047},{"duration":0.04285700000000148,"midi":70,"time":16.971372,"velocity":0.5511811023622047},{"duration":0.04285700000000148,"midi":58,"time":16.971372,"velocity":0.5511811023622047},{"duration":0.042856999999997925,"midi":56,"time":17.1428,"velocity":0.5511811023622047},{"duration":0.042856999999997925,"midi":68,"time":17.1428,"velocity":0.5511811023622047},{"duration":0.04285700000000148,"midi":67,"time":17.399942,"velocity":0.5511811023622047},{"duration":0.04285700000000148,"midi":55,"time":17.399942,"velocity":0.5511811023622047},{"duration":0.04285700000000148,"midi":65,"time":17.485656,"velocity":0.5511811023622047},{"duration":0.04285700000000148,"midi":53,"time":17.485656,"velocity":0.5511811023622047},{"duration":0.04285700000000148,"midi":44,"time":17.828512,"velocity":0.5511811023622047},{"duration":0.04285700000000148,"midi":56,"time":17.828512,"velocity":0.5511811023622047},{"duration":0.04285700000000148,"midi":55,"time":18.085653999999998,"velocity":0.5511811023622047},{"duration":0.04285700000000148,"midi":43,"time":18.085653999999998,"velocity":0.5511811023622047},{"duration":0.042856999999997925,"midi":53,"time":18.171368,"velocity":0.5511811023622047},{"duration":0.042856999999997925,"midi":41,"time":18.171368,"velocity":0.5511811023622047},{"duration":0.04285700000000148,"midi":53,"time":18.514224,"velocity":0.5511811023622047},{"duration":0.04285700000000148,"midi":65,"time":18.514224,"velocity":0.5511811023622047},{"duration":0.04285700000000148,"midi":67,"time":18.599937999999998,"velocity":0.5511811023622047},{"duration":0.04285700000000148,"midi":55,"time":18.599937999999998,"velocity":0.5511811023622047},{"duration":0.042856999999997925,"midi":53,"time":18.685652,"velocity":0.5511811023622047},{"duration":0.042856999999997925,"midi":65,"time":18.685652,"velocity":0.5511811023622047},{"duration":0.042856999999997925,"midi":64,"time":18.771366,"velocity":0.5511811023622047},{"duration":0.042856999999997925,"midi":52,"time":18.771366,"velocity":0.5511811023622047},{"duration":0.04285700000000148,"midi":53,"time":18.85708,"velocity":0.5511811023622047},{"duration":0.04285700000000148,"midi":65,"time":18.85708,"velocity":0.5511811023622047},{"duration":0.04285700000000148,"midi":56,"time":19.028508,"velocity":0.5511811023622047},{"duration":0.04285700000000148,"midi":68,"time":19.028508,"velocity":0.5511811023622047},{"duration":0.042856999999997925,"midi":55,"time":19.199936,"velocity":0.5511811023622047},{"duration":0.042856999999997925,"midi":67,"time":19.199936,"velocity":0.5511811023622047},{"duration":0.04285700000000148,"midi":62,"time":19.542792,"velocity":0.5511811023622047},{"duration":0.04285700000000148,"midi":50,"time":19.542792,"velocity":0.5511811023622047},{"duration":0.042856999999997925,"midi":65,"time":19.71422,"velocity":0.5511811023622047},{"duration":0.042856999999997925,"midi":53,"time":19.71422,"velocity":0.5511811023622047},{"duration":0.04285700000000148,"midi":51,"time":19.885648,"velocity":0.5511811023622047},{"duration":0.04285700000000148,"midi":63,"time":19.885648,"velocity":0.5511811023622047},{"duration":0.04285700000000148,"midi":51,"time":20.057076,"velocity":0.5511811023622047},{"duration":0.04285700000000148,"midi":63,"time":20.057076,"velocity":0.5511811023622047},{"duration":0.04285700000000148,"midi":62,"time":20.142789999999998,"velocity":0.5511811023622047},{"duration":0.04285700000000148,"midi":50,"time":20.142789999999998,"velocity":0.5511811023622047},{"duration":0.042856999999997925,"midi":48,"time":20.228504,"velocity":0.5511811023622047},{"duration":0.042856999999997925,"midi":60,"time":20.228504,"velocity":0.5511811023622047},{"duration":0.042856999999997925,"midi":62,"time":20.314218,"velocity":0.5511811023622047},{"duration":0.042856999999997925,"midi":50,"time":20.314218,"velocity":0.5511811023622047},{"duration":0.04285700000000148,"midi":51,"time":20.399932,"velocity":0.5511811023622047},{"duration":0.04285700000000148,"midi":63,"time":20.399932,"velocity":0.5511811023622047},{"duration":0.04285700000000148,"midi":55,"time":20.485646,"velocity":0.5511811023622047},{"duration":0.04285700000000148,"midi":67,"time":20.485646,"velocity":0.5511811023622047},{"duration":0.04285700000000148,"midi":72,"time":20.57136,"velocity":0.5511811023622047},{"duration":0.04285700000000148,"midi":60,"time":20.57136,"velocity":0.5511811023622047},{"duration":0.04285700000000148,"midi":74,"time":21.085644,"velocity":0.5511811023622047},{"duration":0.04285700000000148,"midi":62,"time":21.085644,"velocity":0.5511811023622047},{"duration":0.04285700000000148,"midi":63,"time":21.171357999999998,"velocity":0.5511811023622047},{"duration":0.04285700000000148,"midi":75,"time":21.171357999999998,"velocity":0.5511811023622047},{"duration":0.042856999999997925,"midi":62,"time":21.257072,"velocity":0.5511811023622047},{"duration":0.042856999999997925,"midi":74,"time":21.257072,"velocity":0.5511811023622047},{"duration":0.04285700000000148,"midi":72,"time":21.4285,"velocity":0.5511811023622047},{"duration":0.04285700000000148,"midi":60,"time":21.4285,"velocity":0.5511811023622047},{"duration":0.04285700000000148,"midi":57,"time":21.514214,"velocity":0.5511811023622047},{"duration":0.04285700000000148,"midi":69,"time":21.514214,"velocity":0.5511811023622047},{"duration":0.04285700000000148,"midi":66,"time":21.599928,"velocity":0.5511811023622047},{"duration":0.04285700000000148,"midi":54,"time":21.599928,"velocity":0.5511811023622047},{"duration":0.04285700000000148,"midi":63,"time":21.685641999999998,"velocity":0.5511811023622047},{"duration":0.04285700000000148,"midi":51,"time":21.685641999999998,"velocity":0.5511811023622047},{"duration":0.042856999999997925,"midi":48,"time":21.771356,"velocity":0.5511811023622047},{"duration":0.042856999999997925,"midi":60,"time":21.771356,"velocity":0.5511811023622047},{"duration":0.042856999999997925,"midi":45,"time":21.85707,"velocity":0.5511811023622047},{"duration":0.042856999999997925,"midi":57,"time":21.85707,"velocity":0.5511811023622047},{"duration":0.04285700000000148,"midi":59,"time":21.942784,"velocity":0.5511811023622047},{"duration":0.04285700000000148,"midi":47,"time":21.942784,"velocity":0.5511811023622047},{"duration":0.04285700000000148,"midi":60,"time":22.457068,"velocity":0.5511811023622047},{"duration":0.04285700000000148,"midi":48,"time":22.457068,"velocity":0.5511811023622047},{"duration":0.04285700000000148,"midi":60,"time":22.628496,"velocity":0.5511811023622047},{"duration":0.04285700000000148,"midi":48,"time":22.628496,"velocity":0.5511811023622047},{"duration":0.042856999999997925,"midi":75,"time":50.056976,"velocity":0.5511811023622047},{"duration":0.04285700000000503,"midi":67,"time":50.228404,"velocity":0.5511811023622047},{"duration":0.04285700000000503,"midi":74,"time":50.399831999999996,"velocity":0.5511811023622047},{"duration":0.042856999999997925,"midi":67,"time":50.57126,"velocity":0.5511811023622047},{"duration":0.042856999999997925,"midi":72,"time":50.742688,"velocity":0.5511811023622047},{"duration":0.04285700000000503,"midi":75,"time":55.542671999999996,"velocity":0.5511811023622047},{"duration":0.04285700000000503,"midi":67,"time":55.542671999999996,"velocity":0.5511811023622047},{"duration":0.04285700000000503,"midi":72,"time":55.542671999999996,"velocity":0.5511811023622047},{"duration":0.042856999999997925,"midi":68,"time":55.885528,"velocity":0.5511811023622047},{"duration":0.042856999999997925,"midi":65,"time":55.885528,"velocity":0.5511811023622047},{"duration":0.042856999999997925,"midi":74,"time":55.885528,"velocity":0.5511811023622047},{"duration":0.042856999999997925,"midi":72,"time":56.228384,"velocity":0.5511811023622047},{"duration":0.042856999999997925,"midi":63,"time":56.228384,"velocity":0.5511811023622047},{"duration":0.042856999999997925,"midi":67,"time":56.228384,"velocity":0.5511811023622047},{"duration":0.04285700000000503,"midi":55,"time":56.571239999999996,"velocity":0.5511811023622047},{"duration":0.042856999999997925,"midi":60,"time":78.85688,"velocity":0.5511811023622047},{"duration":0.042856999999997925,"midi":56,"time":78.85688,"velocity":0.5511811023622047},{"duration":0.042856999999997925,"midi":48,"time":78.85688,"velocity":0.5511811023622047},{"duration":0.042856999999997925,"midi":51,"time":78.85688,"velocity":0.5511811023622047},{"duration":0.042856999999997925,"midi":63,"time":78.85688,"velocity":0.5511811023622047},{"duration":0.042856999999997925,"midi":44,"time":78.85688,"velocity":0.5511811023622047},{"duration":0.042857000000012135,"midi":53,"time":79.371164,"velocity":0.5511811023622047},{"duration":0.042857000000012135,"midi":65,"time":79.371164,"velocity":0.5511811023622047},{"duration":0.042856999999997925,"midi":44,"time":79.542592,"velocity":0.5511811023622047},{"duration":0.042856999999997925,"midi":60,"time":79.542592,"velocity":0.5511811023622047},{"duration":0.042856999999997925,"midi":48,"time":79.542592,"velocity":0.5511811023622047},{"duration":0.042856999999997925,"midi":63,"time":79.542592,"velocity":0.5511811023622047},{"duration":0.042856999999997925,"midi":51,"time":79.542592,"velocity":0.5511811023622047},{"duration":0.042856999999997925,"midi":56,"time":79.542592,"velocity":0.5511811023622047},{"duration":0.042856999999997925,"midi":62,"time":80.056876,"velocity":0.5511811023622047},{"duration":0.042856999999997925,"midi":50,"time":80.056876,"velocity":0.5511811023622047},{"duration":0.042856999999997925,"midi":44,"time":80.228304,"velocity":0.5511811023622047},{"duration":0.042856999999997925,"midi":60,"time":80.228304,"velocity":0.5511811023622047},{"duration":0.042856999999997925,"midi":56,"time":80.228304,"velocity":0.5511811023622047},{"duration":0.042856999999997925,"midi":48,"time":80.228304,"velocity":0.5511811023622047},{"duration":0.042857000000012135,"midi":41,"time":80.57115999999999,"velocity":0.5511811023622047},{"duration":0.042857000000012135,"midi":53,"time":80.57115999999999,"velocity":0.5511811023622047},{"duration":0.042856999999997925,"midi":55,"time":80.914016,"velocity":0.5511811023622047},{"duration":0.042856999999997925,"midi":43,"time":80.914016,"velocity":0.5511811023622047},{"duration":0.042856999999997925,"midi":47,"time":81.256872,"velocity":0.5511811023622047},{"duration":0.042856999999997925,"midi":59,"time":81.256872,"velocity":0.5511811023622047},{"duration":0.042856999999997925,"midi":50,"time":81.599728,"velocity":0.5511811023622047},{"duration":0.042856999999997925,"midi":62,"time":81.599728,"velocity":0.5511811023622047},{"duration":0.042856999999997925,"midi":47,"time":81.599728,"velocity":0.5511811023622047},{"duration":0.042856999999997925,"midi":59,"time":81.599728,"velocity":0.5511811023622047},{"duration":0.042856999999997925,"midi":48,"time":82.114012,"velocity":0.5511811023622047},{"duration":0.042856999999997925,"midi":60,"time":82.114012,"velocity":0.5511811023622047},{"duration":0.042856999999997925,"midi":47,"time":82.28544,"velocity":0.5511811023622047},{"duration":0.042856999999997925,"midi":43,"time":82.28544,"velocity":0.5511811023622047},{"duration":0.042856999999997925,"midi":59,"time":82.28544,"velocity":0.5511811023622047},{"duration":0.042856999999997925,"midi":55,"time":82.28544,"velocity":0.5511811023622047},{"duration":0.042856999999997925,"midi":48,"time":82.799724,"velocity":0.5511811023622047},{"duration":0.042856999999997925,"midi":60,"time":82.799724,"velocity":0.5511811023622047},{"duration":0.042856999999997925,"midi":55,"time":82.971152,"velocity":0.5511811023622047},{"duration":0.042856999999997925,"midi":43,"time":82.971152,"velocity":0.5511811023622047},{"duration":0.042856999999997925,"midi":62,"time":83.828292,"velocity":0.5511811023622047},{"duration":0.042856999999997925,"midi":50,"time":83.828292,"velocity":0.5511811023622047},{"duration":0.042856999999997925,"midi":51,"time":83.99972,"velocity":0.5511811023622047},{"duration":0.042856999999997925,"midi":63,"time":83.99972,"velocity":0.5511811023622047},{"duration":0.042856999999997925,"midi":65,"time":84.171148,"velocity":0.5511811023622047},{"duration":0.042856999999997925,"midi":53,"time":84.171148,"velocity":0.5511811023622047},{"duration":0.042856999999997925,"midi":55,"time":84.342576,"velocity":0.5511811023622047},{"duration":0.042856999999997925,"midi":67,"time":84.342576,"velocity":0.5511811023622047},{"duration":0.042857000000012135,"midi":53,"time":84.68543199999999,"velocity":0.5511811023622047},{"duration":0.042857000000012135,"midi":65,"time":84.68543199999999,"velocity":0.5511811023622047},{"duration":0.042856999999997925,"midi":60,"time":85.028288,"velocity":0.5511811023622047},{"duration":0.042856999999997925,"midi":48,"time":85.028288,"velocity":0.5511811023622047},{"duration":0.042856999999997925,"midi":67,"time":85.371144,"velocity":0.5511811023622047},{"duration":0.042856999999997925,"midi":55,"time":85.371144,"velocity":0.5511811023622047},{"duration":0.042856999999997925,"midi":53,"time":85.714,"velocity":0.5511811023622047},{"duration":0.042856999999997925,"midi":65,"time":85.714,"velocity":0.5511811023622047},{"duration":0.042856999999997925,"midi":48,"time":86.056856,"velocity":0.5511811023622047},{"duration":0.042856999999997925,"midi":60,"time":86.056856,"velocity":0.5511811023622047},{"duration":0.042856999999997925,"midi":63,"time":86.399712,"velocity":0.5511811023622047},{"duration":0.042856999999997925,"midi":51,"time":86.399712,"velocity":0.5511811023622047},{"duration":0.042856999999997925,"midi":62,"time":86.57114,"velocity":0.5511811023622047},{"duration":0.042856999999997925,"midi":50,"time":86.57114,"velocity":0.5511811023622047},{"duration":0.042857000000012135,"midi":60,"time":86.74256799999999,"velocity":0.5511811023622047},{"duration":0.042857000000012135,"midi":48,"time":86.74256799999999,"velocity":0.5511811023622047},{"duration":0.042856999999997925,"midi":62,"time":86.913996,"velocity":0.5511811023622047},{"duration":0.042856999999997925,"midi":50,"time":86.913996,"velocity":0.5511811023622047},{"duration":0.042856999999997925,"midi":43,"time":87.085424,"velocity":0.5511811023622047},{"duration":0.042856999999997925,"midi":48,"time":87.085424,"velocity":0.5511811023622047},{"duration":0.042856999999997925,"midi":55,"time":87.085424,"velocity":0.5511811023622047},{"duration":0.042856999999997925,"midi":60,"time":87.085424,"velocity":0.5511811023622047},{"duration":0.042856999999997925,"midi":41,"time":87.771136,"velocity":0.5511811023622047},{"duration":0.042856999999997925,"midi":53,"time":87.771136,"velocity":0.5511811023622047},{"duration":0.042856999999997925,"midi":59,"time":87.771136,"velocity":0.5511811023622047},{"duration":0.042856999999997925,"midi":47,"time":87.771136,"velocity":0.5511811023622047},{"duration":0.042856999999997925,"midi":43,"time":88.456848,"velocity":0.5511811023622047},{"duration":0.042856999999997925,"midi":55,"time":88.456848,"velocity":0.5511811023622047},{"duration":0.042856999999997925,"midi":60,"time":88.456848,"velocity":0.5511811023622047},{"duration":0.042856999999997925,"midi":48,"time":88.456848,"velocity":0.5511811023622047},{"duration":0.042856999999997925,"midi":39,"time":88.456848,"velocity":0.5511811023622047},{"duration":0.042856999999997925,"midi":51,"time":88.456848,"velocity":0.5511811023622047},{"duration":0.042856999999997925,"midi":41,"time":89.14256,"velocity":0.5511811023622047},{"duration":0.042856999999997925,"midi":53,"time":89.14256,"velocity":0.5511811023622047},{"duration":0.042856999999997925,"midi":50,"time":89.14256,"velocity":0.5511811023622047},{"duration":0.042856999999997925,"midi":44,"time":89.14256,"velocity":0.5511811023622047},{"duration":0.042856999999997925,"midi":56,"time":89.14256,"velocity":0.5511811023622047},{"duration":0.042856999999997925,"midi":62,"time":89.14256,"velocity":0.5511811023622047},{"duration":0.042856999999997925,"midi":60,"time":89.828272,"velocity":0.5511811023622047},{"duration":0.042856999999997925,"midi":44,"time":89.828272,"velocity":0.5511811023622047},{"duration":0.042856999999997925,"midi":56,"time":89.828272,"velocity":0.5511811023622047},{"duration":0.042856999999997925,"midi":48,"time":89.828272,"velocity":0.5511811023622047},{"duration":0.042856999999997925,"midi":51,"time":89.828272,"velocity":0.5511811023622047},{"duration":0.042856999999997925,"midi":63,"time":89.828272,"velocity":0.5511811023622047},{"duration":0.042856999999997925,"midi":53,"time":90.342556,"velocity":0.5511811023622047},{"duration":0.042856999999997925,"midi":65,"time":90.342556,"velocity":0.5511811023622047},{"duration":0.042856999999997925,"midi":60,"time":90.513984,"velocity":0.5511811023622047},{"duration":0.042856999999997925,"midi":56,"time":90.513984,"velocity":0.5511811023622047},{"duration":0.042856999999997925,"midi":63,"time":90.513984,"velocity":0.5511811023622047},{"duration":0.042856999999997925,"midi":44,"time":90.513984,"velocity":0.5511811023622047},{"duration":0.042856999999997925,"midi":48,"time":90.513984,"velocity":0.5511811023622047},{"duration":0.042856999999997925,"midi":51,"time":90.513984,"velocity":0.5511811023622047},{"duration":0.042856999999997925,"midi":50,"time":91.028268,"velocity":0.5511811023622047},{"duration":0.042856999999997925,"midi":62,"time":91.028268,"velocity":0.5511811023622047},{"duration":0.042856999999997925,"midi":44,"time":91.199696,"velocity":0.5511811023622047},{"duration":0.042856999999997925,"midi":60,"time":91.199696,"velocity":0.5511811023622047},{"duration":0.042856999999997925,"midi":56,"time":91.199696,"velocity":0.5511811023622047},{"duration":0.042856999999997925,"midi":48,"time":91.199696,"velocity":0.5511811023622047},{"duration":0.042856999999997925,"midi":41,"time":91.542552,"velocity":0.5511811023622047},{"duration":0.042856999999997925,"midi":53,"time":91.542552,"velocity":0.5511811023622047},{"duration":0.042856999999997925,"midi":55,"time":91.885408,"velocity":0.5511811023622047},{"duration":0.042856999999997925,"midi":43,"time":91.885408,"velocity":0.5511811023622047},{"duration":0.042856999999997925,"midi":47,"time":92.228264,"velocity":0.5511811023622047},{"duration":0.042856999999997925,"midi":59,"time":92.228264,"velocity":0.5511811023622047},{"duration":0.042856999999997925,"midi":50,"time":92.57112,"velocity":0.5511811023622047},{"duration":0.042856999999997925,"midi":59,"time":92.57112,"velocity":0.5511811023622047},{"duration":0.042856999999997925,"midi":47,"time":92.57112,"velocity":0.5511811023622047},{"duration":0.042856999999997925,"midi":62,"time":92.57112,"velocity":0.5511811023622047},{"duration":0.042856999999997925,"midi":48,"time":93.085404,"velocity":0.5511811023622047},{"duration":0.042856999999997925,"midi":60,"time":93.085404,"velocity":0.5511811023622047},{"duration":0.042856999999997925,"midi":55,"time":93.256832,"velocity":0.5511811023622047},{"duration":0.042856999999997925,"midi":47,"time":93.256832,"velocity":0.5511811023622047},{"duration":0.042856999999997925,"midi":43,"time":93.256832,"velocity":0.5511811023622047},{"duration":0.042856999999997925,"midi":59,"time":93.256832,"velocity":0.5511811023622047},{"duration":0.042857000000012135,"midi":60,"time":93.77111599999999,"velocity":0.5511811023622047},{"duration":0.042857000000012135,"midi":48,"time":93.77111599999999,"velocity":0.5511811023622047},{"duration":0.042856999999997925,"midi":55,"time":93.942544,"velocity":0.5511811023622047},{"duration":0.042856999999997925,"midi":43,"time":93.942544,"velocity":0.5511811023622047},{"duration":0.042856999999997925,"midi":50,"time":94.799684,"velocity":0.5511811023622047},{"duration":0.042856999999997925,"midi":62,"time":94.799684,"velocity":0.5511811023622047},{"duration":0.042856999999997925,"midi":63,"time":94.971112,"velocity":0.5511811023622047},{"duration":0.042856999999997925,"midi":51,"time":94.971112,"velocity":0.5511811023622047},{"duration":0.042856999999997925,"midi":53,"time":95.14254,"velocity":0.5511811023622047},{"duration":0.042856999999997925,"midi":65,"time":95.14254,"velocity":0.5511811023622047},{"duration":0.042856999999997925,"midi":55,"time":95.313968,"velocity":0.5511811023622047},{"duration":0.042856999999997925,"midi":67,"time":95.313968,"velocity":0.5511811023622047},{"duration":0.042856999999997925,"midi":53,"time":95.656824,"velocity":0.5511811023622047},{"duration":0.042856999999997925,"midi":65,"time":95.656824,"velocity":0.5511811023622047},{"duration":0.042856999999997925,"midi":64,"time":95.99968,"velocity":0.5511811023622047},{"duration":0.042856999999997925,"midi":52,"time":95.99968,"velocity":0.5511811023622047},{"duration":0.042856999999997925,"midi":65,"time":96.342536,"velocity":0.5511811023622047},{"duration":0.042856999999997925,"midi":53,"time":96.342536,"velocity":0.5511811023622047},{"duration":0.042857000000012135,"midi":50,"time":96.685392,"velocity":0.5511811023622047},{"duration":0.042857000000012135,"midi":62,"time":96.685392,"velocity":0.5511811023622047},{"duration":0.042856999999997925,"midi":48,"time":98.056816,"velocity":0.5511811023622047},{"duration":0.042856999999997925,"midi":60,"time":98.056816,"velocity":0.5511811023622047},{"duration":0.042856999999997925,"midi":62,"time":98.5711,"velocity":0.5511811023622047},{"duration":0.042856999999997925,"midi":50,"time":98.5711,"velocity":0.5511811023622047},{"duration":0.042857000000012135,"midi":60,"time":98.742528,"velocity":0.5511811023622047},{"duration":0.042857000000012135,"midi":63,"time":98.742528,"velocity":0.5511811023622047},{"duration":0.042857000000012135,"midi":51,"time":98.742528,"velocity":0.5511811023622047},{"duration":0.042857000000012135,"midi":48,"time":98.742528,"velocity":0.5511811023622047},{"duration":0.042856999999997925,"midi":65,"time":99.256812,"velocity":0.5511811023622047},{"duration":0.042856999999997925,"midi":62,"time":99.256812,"velocity":0.5511811023622047},{"duration":0.042856999999997925,"midi":50,"time":99.256812,"velocity":0.5511811023622047},{"duration":0.042856999999997925,"midi":53,"time":99.256812,"velocity":0.5511811023622047},{"duration":0.042856999999997925,"midi":55,"time":99.42824,"velocity":0.5511811023622047},{"duration":0.042856999999997925,"midi":59,"time":99.42824,"velocity":0.5511811023622047},{"duration":0.042856999999997925,"midi":67,"time":99.42824,"velocity":0.5511811023622047},{"duration":0.042856999999997925,"midi":62,"time":99.42824,"velocity":0.5511811023622047},{"duration":0.042856999999997925,"midi":47,"time":99.42824,"velocity":0.5511811023622047},{"duration":0.042856999999997925,"midi":50,"time":99.42824,"velocity":0.5511811023622047},{"duration":0.042856999999997925,"midi":55,"time":139.199536,"velocity":0.5511811023622047},{"duration":0.042856999999997925,"midi":67,"time":139.199536,"velocity":0.5511811023622047},{"duration":0.042856999999997925,"midi":68,"time":139.28525,"velocity":0.5511811023622047},{"duration":0.042856999999997925,"midi":56,"time":139.28525,"velocity":0.5511811023622047},{"duration":0.042856999999997925,"midi":55,"time":139.370964,"velocity":0.5511811023622047},{"duration":0.042856999999997925,"midi":67,"time":139.370964,"velocity":0.5511811023622047},{"duration":0.042856999999997925,"midi":66,"time":139.456678,"velocity":0.5511811023622047},{"duration":0.042856999999997925,"midi":54,"time":139.456678,"velocity":0.5511811023622047},{"duration":0.042856999999997925,"midi":55,"time":139.542392,"velocity":0.5511811023622047},{"duration":0.042856999999997925,"midi":67,"time":139.542392,"velocity":0.5511811023622047},{"duration":0.042856999999997925,"midi":60,"time":139.71382,"velocity":0.5511811023622047},{"duration":0.042856999999997925,"midi":48,"time":139.71382,"velocity":0.5511811023622047},{"duration":0.042856999999997925,"midi":51,"time":139.885248,"velocity":0.5511811023622047},{"duration":0.042856999999997925,"midi":63,"time":139.885248,"velocity":0.5511811023622047},{"duration":0.042856999999997925,"midi":62,"time":140.228104,"velocity":0.5511811023622047},{"duration":0.042856999999997925,"midi":50,"time":140.228104,"velocity":0.5511811023622047},{"duration":0.042856999999997925,"midi":63,"time":140.313818,"velocity":0.5511811023622047},{"duration":0.042856999999997925,"midi":51,"time":140.313818,"velocity":0.5511811023622047},{"duration":0.042856999999997925,"midi":62,"time":140.399532,"velocity":0.5511811023622047},{"duration":0.042856999999997925,"midi":50,"time":140.399532,"velocity":0.5511811023622047},{"duration":0.042856999999997925,"midi":60,"time":140.485246,"velocity":0.5511811023622047},{"duration":0.042856999999997925,"midi":48,"time":140.485246,"velocity":0.5511811023622047},{"duration":0.042857000000026346,"midi":67,"time":140.57095999999999,"velocity":0.5511811023622047},{"duration":0.042857000000026346,"midi":55,"time":140.57095999999999,"velocity":0.5511811023622047},{"duration":0.042856999999997925,"midi":68,"time":140.656674,"velocity":0.5511811023622047},{"duration":0.042856999999997925,"midi":56,"time":140.656674,"velocity":0.5511811023622047},{"duration":0.042856999999997925,"midi":67,"time":140.742388,"velocity":0.5511811023622047},{"duration":0.042856999999997925,"midi":55,"time":140.742388,"velocity":0.5511811023622047},{"duration":0.042856999999997925,"midi":66,"time":140.828102,"velocity":0.5511811023622047},{"duration":0.042856999999997925,"midi":54,"time":140.828102,"velocity":0.5511811023622047},{"duration":0.042856999999997925,"midi":55,"time":140.913816,"velocity":0.5511811023622047},{"duration":0.042856999999997925,"midi":67,"time":140.913816,"velocity":0.5511811023622047},{"duration":0.042856999999997925,"midi":48,"time":141.085244,"velocity":0.5511811023622047},{"duration":0.042856999999997925,"midi":60,"time":141.085244,"velocity":0.5511811023622047},{"duration":0.042856999999997925,"midi":63,"time":141.256672,"velocity":0.5511811023622047},{"duration":0.042856999999997925,"midi":51,"time":141.256672,"velocity":0.5511811023622047},{"duration":0.042856999999997925,"midi":62,"time":141.599528,"velocity":0.5511811023622047},{"duration":0.042856999999997925,"midi":50,"time":141.599528,"velocity":0.5511811023622047},{"duration":0.042856999999997925,"midi":51,"time":141.685242,"velocity":0.5511811023622047},{"duration":0.042856999999997925,"midi":63,"time":141.685242,"velocity":0.5511811023622047},{"duration":0.042857000000026346,"midi":62,"time":141.77095599999998,"velocity":0.5511811023622047},{"duration":0.042857000000026346,"midi":50,"time":141.77095599999998,"velocity":0.5511811023622047},{"duration":0.042856999999997925,"midi":48,"time":141.85667,"velocity":0.5511811023622047},{"duration":0.042856999999997925,"midi":60,"time":141.85667,"velocity":0.5511811023622047},{"duration":0.042856999999997925,"midi":67,"time":141.942384,"velocity":0.5511811023622047},{"duration":0.042856999999997925,"midi":55,"time":141.942384,"velocity":0.5511811023622047},{"duration":0.042856999999997925,"midi":68,"time":142.028098,"velocity":0.5511811023622047},{"duration":0.042856999999997925,"midi":56,"time":142.028098,"velocity":0.5511811023622047},{"duration":0.042856999999997925,"midi":67,"time":142.113812,"velocity":0.5511811023622047},{"duration":0.042856999999997925,"midi":55,"time":142.113812,"velocity":0.5511811023622047},{"duration":0.042856999999997925,"midi":54,"time":142.199526,"velocity":0.5511811023622047},{"duration":0.042856999999997925,"midi":66,"time":142.199526,"velocity":0.5511811023622047},{"duration":0.042856999999997925,"midi":55,"time":142.28524,"velocity":0.5511811023622047},{"duration":0.042856999999997925,"midi":67,"time":142.28524,"velocity":0.5511811023622047},{"duration":0.042856999999997925,"midi":60,"time":142.456668,"velocity":0.5511811023622047},{"duration":0.042856999999997925,"midi":48,"time":142.456668,"velocity":0.5511811023622047},{"duration":0.042856999999997925,"midi":63,"time":142.628096,"velocity":0.5511811023622047},{"duration":0.042856999999997925,"midi":51,"time":142.628096,"velocity":0.5511811023622047},{"duration":0.042856999999997925,"midi":67,"time":142.970952,"velocity":0.5511811023622047},{"duration":0.042856999999997925,"midi":55,"time":142.970952,"velocity":0.5511811023622047},{"duration":0.042856999999997925,"midi":65,"time":143.056666,"velocity":0.5511811023622047},{"duration":0.042856999999997925,"midi":53,"time":143.056666,"velocity":0.5511811023622047},{"duration":0.042856999999997925,"midi":51,"time":143.14238,"velocity":0.5511811023622047},{"duration":0.042856999999997925,"midi":63,"time":143.14238,"velocity":0.5511811023622047},{"duration":0.042856999999997925,"midi":62,"time":143.228094,"velocity":0.5511811023622047},{"duration":0.042856999999997925,"midi":50,"time":143.228094,"velocity":0.5511811023622047},{"duration":0.042856999999997925,"midi":60,"time":143.313808,"velocity":0.5511811023622047},{"duration":0.042856999999997925,"midi":48,"time":143.313808,"velocity":0.5511811023622047},{"duration":0.042856999999997925,"midi":62,"time":143.399522,"velocity":0.5511811023622047},{"duration":0.042856999999997925,"midi":50,"time":143.399522,"velocity":0.5511811023622047},{"duration":0.042856999999997925,"midi":48,"time":143.485236,"velocity":0.5511811023622047},{"duration":0.042856999999997925,"midi":60,"time":143.485236,"velocity":0.5511811023622047},{"duration":0.042856999999997925,"midi":47,"time":143.57095,"velocity":0.5511811023622047},{"duration":0.042856999999997925,"midi":59,"time":143.57095,"velocity":0.5511811023622047},{"duration":0.042856999999997925,"midi":48,"time":143.656664,"velocity":0.5511811023622047},{"duration":0.042856999999997925,"midi":60,"time":143.656664,"velocity":0.5511811023622047},{"duration":0.042856999999997925,"midi":62,"time":143.742378,"velocity":0.5511811023622047},{"duration":0.042856999999997925,"midi":50,"time":143.742378,"velocity":0.5511811023622047},{"duration":0.042856999999997925,"midi":51,"time":143.828092,"velocity":0.5511811023622047},{"duration":0.042856999999997925,"midi":63,"time":143.828092,"velocity":0.5511811023622047},{"duration":0.042856999999997925,"midi":67,"time":143.913806,"velocity":0.5511811023622047},{"duration":0.042856999999997925,"midi":55,"time":143.913806,"velocity":0.5511811023622047},{"duration":0.042856999999997925,"midi":60,"time":143.99952,"velocity":0.5511811023622047},{"duration":0.042856999999997925,"midi":72,"time":143.99952,"velocity":0.5511811023622047},{"duration":0.042856999999997925,"midi":72,"time":145.028088,"velocity":0.5511811023622047},{"duration":0.042856999999997925,"midi":71,"time":145.370944,"velocity":0.5511811023622047},{"duration":0.042856999999997925,"midi":74,"time":145.7138,"velocity":0.5511811023622047},{"duration":0.042856999999997925,"midi":72,"time":146.056656,"velocity":0.5511811023622047},{"duration":0.042856999999997925,"midi":67,"time":146.57094,"velocity":0.5511811023622047},{"duration":0.042856999999997925,"midi":67,"time":146.742368,"velocity":0.5511811023622047},{"duration":0.042856999999997925,"midi":65,"time":147.085224,"velocity":0.5511811023622047},{"duration":0.042856999999997925,"midi":63,"time":147.42808,"velocity":0.5511811023622047},{"duration":0.042856999999997925,"midi":67,"time":148.113792,"velocity":0.5511811023622047},{"duration":0.042857000000026346,"midi":60,"time":148.79950399999998,"velocity":0.5511811023622047}]},{"instrument":{"family":"synth effects","number":99,"name":"fx 4 (atmosphere)"},"notes":[{"duration":0.042856999999997925,"midi":77,"time":78.85688,"velocity":0.2677165354330709},{"duration":0.042856999999997925,"midi":80,"time":79.028308,"velocity":0.2677165354330709},{"duration":0.042856999999997925,"midi":84,"time":79.199736,"velocity":0.2677165354330709},{"duration":0.042857000000012135,"midi":80,"time":79.371164,"velocity":0.2677165354330709},{"duration":0.042856999999997925,"midi":77,"time":79.542592,"velocity":0.2677165354330709},{"duration":0.042856999999997925,"midi":80,"time":79.71402,"velocity":0.2677165354330709},{"duration":0.042856999999997925,"midi":84,"time":79.885448,"velocity":0.2677165354330709},{"duration":0.042856999999997925,"midi":80,"time":80.056876,"velocity":0.2677165354330709},{"duration":0.042856999999997925,"midi":77,"time":80.228304,"velocity":0.2677165354330709},{"duration":0.042856999999997925,"midi":80,"time":80.399732,"velocity":0.2677165354330709},{"duration":0.042857000000012135,"midi":84,"time":80.57115999999999,"velocity":0.2677165354330709},{"duration":0.042856999999997925,"midi":80,"time":80.742588,"velocity":0.2677165354330709},{"duration":0.042856999999997925,"midi":77,"time":80.914016,"velocity":0.2677165354330709},{"duration":0.042856999999997925,"midi":80,"time":81.085444,"velocity":0.2677165354330709},{"duration":0.042856999999997925,"midi":84,"time":81.256872,"velocity":0.2677165354330709},{"duration":0.042857000000012135,"midi":80,"time":81.4283,"velocity":0.2677165354330709},{"duration":0.042856999999997925,"midi":75,"time":81.599728,"velocity":0.2677165354330709},{"duration":0.042856999999997925,"midi":79,"time":81.771156,"velocity":0.2677165354330709},{"duration":0.042856999999997925,"midi":84,"time":81.942584,"velocity":0.2677165354330709},{"duration":0.042856999999997925,"midi":79,"time":82.114012,"velocity":0.2677165354330709},{"duration":0.042856999999997925,"midi":75,"time":82.28544,"velocity":0.2677165354330709},{"duration":0.042856999999997925,"midi":79,"time":82.456868,"velocity":0.2677165354330709},{"duration":0.042857000000012135,"midi":84,"time":82.62829599999999,"velocity":0.2677165354330709},{"duration":0.042856999999997925,"midi":79,"time":82.799724,"velocity":0.2677165354330709},{"duration":0.042856999999997925,"midi":75,"time":82.971152,"velocity":0.2677165354330709},{"duration":0.042856999999997925,"midi":79,"time":83.14258,"velocity":0.2677165354330709},{"duration":0.042856999999997925,"midi":84,"time":83.314008,"velocity":0.2677165354330709},{"duration":0.042857000000012135,"midi":79,"time":83.48543599999999,"velocity":0.2677165354330709},{"duration":0.042856999999997925,"midi":75,"time":83.656864,"velocity":0.2677165354330709},{"duration":0.042856999999997925,"midi":79,"time":83.828292,"velocity":0.2677165354330709},{"duration":0.042856999999997925,"midi":84,"time":83.99972,"velocity":0.2677165354330709},{"duration":0.042856999999997925,"midi":79,"time":84.171148,"velocity":0.2677165354330709},{"duration":0.042856999999997925,"midi":77,"time":84.342576,"velocity":0.2677165354330709},{"duration":0.042856999999997925,"midi":80,"time":84.514004,"velocity":0.2677165354330709},{"duration":0.042857000000012135,"midi":84,"time":84.68543199999999,"velocity":0.2677165354330709},{"duration":0.042856999999997925,"midi":80,"time":84.85686,"velocity":0.2677165354330709},{"duration":0.042856999999997925,"midi":77,"time":85.028288,"velocity":0.2677165354330709},{"duration":0.042856999999997925,"midi":80,"time":85.199716,"velocity":0.2677165354330709},{"duration":0.042856999999997925,"midi":84,"time":85.371144,"velocity":0.2677165354330709},{"duration":0.042857000000012135,"midi":80,"time":85.54257199999999,"velocity":0.2677165354330709},{"duration":0.042856999999997925,"midi":77,"time":85.714,"velocity":0.2677165354330709},{"duration":0.042856999999997925,"midi":80,"time":85.885428,"velocity":0.2677165354330709},{"duration":0.042856999999997925,"midi":84,"time":86.056856,"velocity":0.2677165354330709},{"duration":0.042856999999997925,"midi":80,"time":86.228284,"velocity":0.2677165354330709},{"duration":0.042856999999997925,"midi":77,"time":86.399712,"velocity":0.2677165354330709},{"duration":0.042856999999997925,"midi":80,"time":86.57114,"velocity":0.2677165354330709},{"duration":0.042857000000012135,"midi":84,"time":86.74256799999999,"velocity":0.2677165354330709},{"duration":0.042856999999997925,"midi":80,"time":86.913996,"velocity":0.2677165354330709},{"duration":0.042856999999997925,"midi":75,"time":87.085424,"velocity":0.2677165354330709},{"duration":0.042856999999997925,"midi":79,"time":87.256852,"velocity":0.2677165354330709},{"duration":0.042856999999997925,"midi":84,"time":87.42828,"velocity":0.2677165354330709},{"duration":0.042857000000012135,"midi":79,"time":87.59970799999999,"velocity":0.2677165354330709},{"duration":0.042856999999997925,"midi":75,"time":87.771136,"velocity":0.2677165354330709},{"duration":0.042856999999997925,"midi":79,"time":87.942564,"velocity":0.2677165354330709},{"duration":0.042856999999997925,"midi":84,"time":88.113992,"velocity":0.2677165354330709},{"duration":0.042856999999997925,"midi":79,"time":88.28542,"velocity":0.2677165354330709},{"duration":0.042856999999997925,"midi":75,"time":88.456848,"velocity":0.2677165354330709},{"duration":0.042856999999997925,"midi":79,"time":88.628276,"velocity":0.2677165354330709},{"duration":0.042856999999997925,"midi":84,"time":88.799704,"velocity":0.2677165354330709},{"duration":0.042856999999997925,"midi":79,"time":88.971132,"velocity":0.2677165354330709},{"duration":0.042856999999997925,"midi":75,"time":89.14256,"velocity":0.2677165354330709},{"duration":0.042856999999997925,"midi":79,"time":89.313988,"velocity":0.2677165354330709},{"duration":0.042856999999997925,"midi":84,"time":89.485416,"velocity":0.2677165354330709},{"duration":0.042857000000012135,"midi":79,"time":89.65684399999999,"velocity":0.2677165354330709}]},{"instrument":{"family":"piano","number":0,"name":"acoustic grand piano"},"notes":[{"duration":0.042856999999997925,"midi":79,"time":24.342776,"velocity":0.3937007874015748},{"duration":0.042856999999997925,"midi":72,"time":24.342776,"velocity":0.3937007874015748},{"duration":0.042856999999997925,"midi":75,"time":24.342776,"velocity":0.3937007874015748},{"duration":0.04285700000000148,"midi":77,"time":24.685632,"velocity":0.3937007874015748},{"duration":0.04285700000000148,"midi":72,"time":24.685632,"velocity":0.3937007874015748},{"duration":0.04285700000000148,"midi":80,"time":24.685632,"velocity":0.3937007874015748},{"duration":0.04285700000000148,"midi":77,"time":25.028488,"velocity":0.3937007874015748},{"duration":0.04285700000000148,"midi":72,"time":25.028488,"velocity":0.3937007874015748},{"duration":0.042856999999997925,"midi":79,"time":25.371344,"velocity":0.3937007874015748},{"duration":0.042856999999997925,"midi":71,"time":25.371344,"velocity":0.3937007874015748},{"duration":0.042856999999997925,"midi":74,"time":25.371344,"velocity":0.3937007874015748},{"duration":0.04285700000000148,"midi":76,"time":27.085624,"velocity":0.3937007874015748},{"duration":0.04285700000000148,"midi":79,"time":27.085624,"velocity":0.3937007874015748},{"duration":0.04285700000000148,"midi":72,"time":27.085624,"velocity":0.3937007874015748},{"duration":0.042856999999997925,"midi":82,"time":27.42848,"velocity":0.3937007874015748},{"duration":0.042856999999997925,"midi":79,"time":27.42848,"velocity":0.3937007874015748},{"duration":0.042856999999997925,"midi":72,"time":27.42848,"velocity":0.3937007874015748},{"duration":0.042856999999997925,"midi":76,"time":27.942764,"velocity":0.3937007874015748},{"duration":0.042856999999997925,"midi":79,"time":27.942764,"velocity":0.3937007874015748},{"duration":0.042856999999997925,"midi":72,"time":27.942764,"velocity":0.3937007874015748},{"duration":0.04285700000000148,"midi":80,"time":28.114192,"velocity":0.3937007874015748},{"duration":0.04285700000000148,"midi":77,"time":28.114192,"velocity":0.3937007874015748},{"duration":0.04285700000000148,"midi":72,"time":28.114192,"velocity":0.3937007874015748},{"duration":0.04285700000000148,"midi":80,"time":29.828471999999998,"velocity":0.3937007874015748},{"duration":0.04285700000000148,"midi":75,"time":29.828471999999998,"velocity":0.3937007874015748},{"duration":0.04285700000000148,"midi":84,"time":29.828471999999998,"velocity":0.3937007874015748},{"duration":0.04285700000000148,"midi":74,"time":30.171328,"velocity":0.3937007874015748},{"duration":0.04285700000000148,"midi":79,"time":30.171328,"velocity":0.3937007874015748},{"duration":0.04285700000000148,"midi":83,"time":30.171328,"velocity":0.3937007874015748},{"duration":0.042856999999997925,"midi":83,"time":30.514184,"velocity":0.3937007874015748},{"duration":0.042856999999997925,"midi":86,"time":30.514184,"velocity":0.3937007874015748},{"duration":0.042856999999997925,"midi":79,"time":30.514184,"velocity":0.3937007874015748},{"duration":0.04285700000000148,"midi":79,"time":30.857039999999998,"velocity":0.3937007874015748},{"duration":0.04285700000000148,"midi":75,"time":30.857039999999998,"velocity":0.3937007874015748},{"duration":0.04285700000000148,"midi":84,"time":30.857039999999998,"velocity":0.3937007874015748},{"duration":0.04285700000000148,"midi":72,"time":31.371323999999998,"velocity":0.3937007874015748},{"duration":0.04285700000000148,"midi":75,"time":31.371323999999998,"velocity":0.3937007874015748},{"duration":0.04285700000000148,"midi":79,"time":31.371323999999998,"velocity":0.3937007874015748},{"duration":0.042856999999997925,"midi":72,"time":31.542752,"velocity":0.3937007874015748},{"duration":0.042856999999997925,"midi":79,"time":31.542752,"velocity":0.3937007874015748},{"duration":0.042856999999997925,"midi":75,"time":31.542752,"velocity":0.3937007874015748},{"duration":0.042856999999997925,"midi":84,"time":32.57132,"velocity":0.3937007874015748},{"duration":0.042856999999997925,"midi":75,"time":32.57132,"velocity":0.3937007874015748},{"duration":0.042856999999997925,"midi":80,"time":32.57132,"velocity":0.3937007874015748},{"duration":0.04285700000000503,"midi":74,"time":32.914176,"velocity":0.3937007874015748},{"duration":0.04285700000000503,"midi":79,"time":32.914176,"velocity":0.3937007874015748},{"duration":0.04285700000000503,"midi":83,"time":32.914176,"velocity":0.3937007874015748},{"duration":0.042856999999997925,"midi":84,"time":33.257032,"velocity":0.3937007874015748},{"duration":0.042856999999997925,"midi":75,"time":33.257032,"velocity":0.3937007874015748},{"duration":0.042856999999997925,"midi":80,"time":33.257032,"velocity":0.3937007874015748},{"duration":0.042856999999997925,"midi":87,"time":33.599888,"velocity":0.3937007874015748},{"duration":0.042856999999997925,"midi":84,"time":33.599888,"velocity":0.3937007874015748},{"duration":0.042856999999997925,"midi":80,"time":33.599888,"velocity":0.3937007874015748},{"duration":0.04285700000000503,"midi":79,"time":34.114171999999996,"velocity":0.3937007874015748},{"duration":0.04285700000000503,"midi":83,"time":34.114171999999996,"velocity":0.3937007874015748},{"duration":0.04285700000000503,"midi":86,"time":34.114171999999996,"velocity":0.3937007874015748},{"duration":0.042856999999997925,"midi":83,"time":34.2856,"velocity":0.3937007874015748},{"duration":0.042856999999997925,"midi":79,"time":34.2856,"velocity":0.3937007874015748},{"duration":0.042856999999997925,"midi":86,"time":34.2856,"velocity":0.3937007874015748},{"duration":0.042856999999997925,"midi":72,"time":35.314168,"velocity":0.3937007874015748},{"duration":0.042856999999997925,"midi":75,"time":35.314168,"velocity":0.3937007874015748},{"duration":0.042856999999997925,"midi":79,"time":35.314168,"velocity":0.3937007874015748},{"duration":0.042856999999997925,"midi":72,"time":35.657024,"velocity":0.3937007874015748},{"duration":0.042856999999997925,"midi":77,"time":35.657024,"velocity":0.3937007874015748},{"duration":0.042856999999997925,"midi":80,"time":35.657024,"velocity":0.3937007874015748},{"duration":0.04285700000000503,"midi":72,"time":35.99988,"velocity":0.3937007874015748},{"duration":0.04285700000000503,"midi":77,"time":35.99988,"velocity":0.3937007874015748},{"duration":0.042856999999997925,"midi":74,"time":36.342736,"velocity":0.3937007874015748},{"duration":0.042856999999997925,"midi":71,"time":36.342736,"velocity":0.3937007874015748},{"duration":0.042856999999997925,"midi":79,"time":36.342736,"velocity":0.3937007874015748},{"duration":0.04285700000000503,"midi":72,"time":38.057016,"velocity":0.3937007874015748},{"duration":0.04285700000000503,"midi":79,"time":38.057016,"velocity":0.3937007874015748},{"duration":0.04285700000000503,"midi":76,"time":38.057016,"velocity":0.3937007874015748},{"duration":0.042856999999997925,"midi":82,"time":38.399872,"velocity":0.3937007874015748},{"duration":0.042856999999997925,"midi":79,"time":38.399872,"velocity":0.3937007874015748},{"duration":0.042856999999997925,"midi":72,"time":38.399872,"velocity":0.3937007874015748},{"duration":0.042856999999997925,"midi":72,"time":38.914156,"velocity":0.3937007874015748},{"duration":0.042856999999997925,"midi":79,"time":38.914156,"velocity":0.3937007874015748},{"duration":0.042856999999997925,"midi":76,"time":38.914156,"velocity":0.3937007874015748},{"duration":0.04285700000000503,"midi":72,"time":39.085584,"velocity":0.3937007874015748},{"duration":0.04285700000000503,"midi":77,"time":39.085584,"velocity":0.3937007874015748},{"duration":0.04285700000000503,"midi":80,"time":39.085584,"velocity":0.3937007874015748},{"duration":0.042856999999997925,"midi":80,"time":40.799864,"velocity":0.3937007874015748},{"duration":0.042856999999997925,"midi":75,"time":40.799864,"velocity":0.3937007874015748},{"duration":0.042856999999997925,"midi":84,"time":40.799864,"velocity":0.3937007874015748},{"duration":0.04285700000000503,"midi":79,"time":41.14272,"velocity":0.3937007874015748},{"duration":0.04285700000000503,"midi":74,"time":41.14272,"velocity":0.3937007874015748},{"duration":0.04285700000000503,"midi":83,"time":41.14272,"velocity":0.3937007874015748},{"duration":0.042856999999997925,"midi":79,"time":41.485576,"velocity":0.3937007874015748},{"duration":0.042856999999997925,"midi":83,"time":41.485576,"velocity":0.3937007874015748},{"duration":0.042856999999997925,"midi":86,"time":41.485576,"velocity":0.3937007874015748},{"duration":0.042856999999997925,"midi":79,"time":41.828432,"velocity":0.3937007874015748},{"duration":0.042856999999997925,"midi":84,"time":41.828432,"velocity":0.3937007874015748},{"duration":0.042856999999997925,"midi":75,"time":41.828432,"velocity":0.3937007874015748},{"duration":0.04285700000000503,"midi":79,"time":42.342715999999996,"velocity":0.3937007874015748},{"duration":0.04285700000000503,"midi":72,"time":42.342715999999996,"velocity":0.3937007874015748},{"duration":0.04285700000000503,"midi":75,"time":42.342715999999996,"velocity":0.3937007874015748},{"duration":0.042856999999997925,"midi":79,"time":42.514144,"velocity":0.3937007874015748},{"duration":0.042856999999997925,"midi":75,"time":42.514144,"velocity":0.3937007874015748},{"duration":0.042856999999997925,"midi":72,"time":42.514144,"velocity":0.3937007874015748},{"duration":0.042856999999997925,"midi":77,"time":42.857,"velocity":0.3937007874015748},{"duration":0.04285700000000503,"midi":66,"time":43.199856,"velocity":0.3937007874015748},{"duration":0.04285700000000503,"midi":75,"time":43.199856,"velocity":0.3937007874015748},{"duration":0.04285700000000503,"midi":72,"time":43.199856,"velocity":0.3937007874015748},{"duration":0.04285700000000503,"midi":69,"time":43.199856,"velocity":0.3937007874015748},{"duration":0.042856999999997925,"midi":74,"time":43.885568,"velocity":0.3937007874015748},{"duration":0.042856999999997925,"midi":79,"time":43.885568,"velocity":0.3937007874015748},{"duration":0.042856999999997925,"midi":71,"time":43.885568,"velocity":0.3937007874015748},{"duration":0.042856999999997925,"midi":72,"time":44.57128,"velocity":0.3937007874015748},{"duration":0.042856999999997925,"midi":53,"time":78.85688,"velocity":0.3937007874015748},{"duration":0.042856999999997925,"midi":60,"time":79.542592,"velocity":0.3937007874015748},{"duration":0.042856999999997925,"midi":56,"time":79.542592,"velocity":0.3937007874015748},{"duration":0.042856999999997925,"midi":53,"time":80.399732,"velocity":0.3937007874015748},{"duration":0.042857000000012135,"midi":53,"time":80.57115999999999,"velocity":0.3937007874015748},{"duration":0.042856999999997925,"midi":60,"time":80.914016,"velocity":0.3937007874015748},{"duration":0.042856999999997925,"midi":56,"time":80.914016,"velocity":0.3937007874015748},{"duration":0.042856999999997925,"midi":51,"time":81.599728,"velocity":0.3937007874015748},{"duration":0.042856999999997925,"midi":55,"time":82.28544,"velocity":0.3937007874015748},{"duration":0.042856999999997925,"midi":60,"time":82.28544,"velocity":0.3937007874015748},{"duration":0.042856999999997925,"midi":51,"time":83.14258,"velocity":0.3937007874015748},{"duration":0.042856999999997925,"midi":51,"time":83.314008,"velocity":0.3937007874015748},{"duration":0.042856999999997925,"midi":55,"time":83.656864,"velocity":0.3937007874015748},{"duration":0.042856999999997925,"midi":60,"time":83.656864,"velocity":0.3937007874015748},{"duration":0.042856999999997925,"midi":53,"time":84.342576,"velocity":0.3937007874015748},{"duration":0.042856999999997925,"midi":56,"time":85.028288,"velocity":0.3937007874015748},{"duration":0.042856999999997925,"midi":60,"time":85.028288,"velocity":0.3937007874015748},{"duration":0.042856999999997925,"midi":53,"time":85.885428,"velocity":0.3937007874015748},{"duration":0.042856999999997925,"midi":53,"time":86.056856,"velocity":0.3937007874015748},{"duration":0.042856999999997925,"midi":56,"time":86.399712,"velocity":0.3937007874015748},{"duration":0.042856999999997925,"midi":60,"time":86.399712,"velocity":0.3937007874015748},{"duration":0.042856999999997925,"midi":51,"time":87.085424,"velocity":0.3937007874015748},{"duration":0.042856999999997925,"midi":60,"time":87.771136,"velocity":0.3937007874015748},{"duration":0.042856999999997925,"midi":55,"time":87.771136,"velocity":0.3937007874015748},{"duration":0.042856999999997925,"midi":51,"time":88.628276,"velocity":0.3937007874015748},{"duration":0.042856999999997925,"midi":51,"time":88.842561,"velocity":0.3937007874015748},{"duration":0.042856999999997925,"midi":55,"time":89.14256,"velocity":0.3937007874015748},{"duration":0.042856999999997925,"midi":60,"time":89.14256,"velocity":0.3937007874015748},{"duration":0.042856999999997925,"midi":53,"time":89.828272,"velocity":0.3937007874015748},{"duration":0.042856999999997925,"midi":41,"time":89.828272,"velocity":0.3937007874015748},{"duration":0.042856999999997925,"midi":60,"time":90.513984,"velocity":0.3937007874015748},{"duration":0.042856999999997925,"midi":53,"time":90.513984,"velocity":0.3937007874015748},{"duration":0.042856999999997925,"midi":56,"time":90.513984,"velocity":0.3937007874015748},{"duration":0.042856999999997925,"midi":53,"time":91.371124,"velocity":0.3937007874015748},{"duration":0.042856999999997925,"midi":41,"time":91.371124,"velocity":0.3937007874015748},{"duration":0.042856999999997925,"midi":41,"time":91.542552,"velocity":0.3937007874015748},{"duration":0.042856999999997925,"midi":53,"time":91.542552,"velocity":0.3937007874015748},{"duration":0.042856999999997925,"midi":56,"time":91.885408,"velocity":0.3937007874015748},{"duration":0.042856999999997925,"midi":60,"time":91.885408,"velocity":0.3937007874015748},{"duration":0.042856999999997925,"midi":53,"time":91.885408,"velocity":0.3937007874015748},{"duration":0.042856999999997925,"midi":51,"time":92.57112,"velocity":0.3937007874015748},{"duration":0.042856999999997925,"midi":39,"time":92.57112,"velocity":0.3937007874015748},{"duration":0.042856999999997925,"midi":51,"time":93.256832,"velocity":0.3937007874015748},{"duration":0.042856999999997925,"midi":55,"time":93.256832,"velocity":0.3937007874015748},{"duration":0.042856999999997925,"midi":60,"time":93.256832,"velocity":0.3937007874015748},{"duration":0.042856999999997925,"midi":39,"time":94.113972,"velocity":0.3937007874015748},{"duration":0.042856999999997925,"midi":51,"time":94.113972,"velocity":0.3937007874015748},{"duration":0.042856999999997925,"midi":39,"time":94.2854,"velocity":0.3937007874015748},{"duration":0.042856999999997925,"midi":51,"time":94.2854,"velocity":0.3937007874015748},{"duration":0.042857000000012135,"midi":51,"time":94.628256,"velocity":0.3937007874015748},{"duration":0.042857000000012135,"midi":55,"time":94.628256,"velocity":0.3937007874015748},{"duration":0.042857000000012135,"midi":60,"time":94.628256,"velocity":0.3937007874015748},{"duration":0.042856999999997925,"midi":41,"time":95.313968,"velocity":0.3937007874015748},{"duration":0.042856999999997925,"midi":53,"time":95.313968,"velocity":0.3937007874015748},{"duration":0.042856999999997925,"midi":53,"time":95.99968,"velocity":0.3937007874015748},{"duration":0.042856999999997925,"midi":60,"time":95.99968,"velocity":0.3937007874015748},{"duration":0.042856999999997925,"midi":56,"time":95.99968,"velocity":0.3937007874015748},{"duration":0.042856999999997925,"midi":53,"time":96.85682,"velocity":0.3937007874015748},{"duration":0.042856999999997925,"midi":41,"time":96.85682,"velocity":0.3937007874015748},{"duration":0.042856999999997925,"midi":41,"time":97.028248,"velocity":0.3937007874015748},{"duration":0.042856999999997925,"midi":53,"time":97.028248,"velocity":0.3937007874015748},{"duration":0.042856999999997925,"midi":56,"time":97.371104,"velocity":0.3937007874015748},{"duration":0.042856999999997925,"midi":53,"time":97.371104,"velocity":0.3937007874015748},{"duration":0.042856999999997925,"midi":60,"time":97.371104,"velocity":0.3937007874015748},{"duration":0.042856999999997925,"midi":55,"time":98.056816,"velocity":0.3937007874015748},{"duration":0.042856999999997925,"midi":43,"time":98.056816,"velocity":0.3937007874015748},{"duration":0.042857000000012135,"midi":62,"time":98.742528,"velocity":0.3937007874015748},{"duration":0.042857000000012135,"midi":59,"time":98.742528,"velocity":0.3937007874015748},{"duration":0.042857000000012135,"midi":55,"time":98.742528,"velocity":0.3937007874015748},{"duration":0.042856999999997925,"midi":55,"time":99.42824,"velocity":0.3937007874015748},{"duration":0.042856999999997925,"midi":43,"time":99.42824,"velocity":0.3937007874015748},{"duration":0.042856999999997925,"midi":41,"time":99.771096,"velocity":0.3937007874015748},{"duration":0.042856999999997925,"midi":53,"time":99.771096,"velocity":0.3937007874015748},{"duration":0.042856999999997925,"midi":51,"time":100.113952,"velocity":0.3937007874015748},{"duration":0.042856999999997925,"midi":39,"time":100.113952,"velocity":0.3937007874015748},{"duration":0.042856999999997925,"midi":38,"time":100.456808,"velocity":0.3937007874015748},{"duration":0.042856999999997925,"midi":50,"time":100.456808,"velocity":0.3937007874015748},{"duration":0.042857000000012135,"midi":36,"time":100.79966399999999,"velocity":0.3937007874015748},{"duration":0.042857000000012135,"midi":48,"time":100.79966399999999,"velocity":0.3937007874015748},{"duration":0.042856999999997925,"midi":67,"time":101.14252,"velocity":0.3937007874015748},{"duration":0.042856999999997925,"midi":63,"time":101.14252,"velocity":0.3937007874015748},{"duration":0.042856999999997925,"midi":44,"time":101.485376,"velocity":0.3937007874015748},{"duration":0.042856999999997925,"midi":56,"time":101.485376,"velocity":0.3937007874015748},{"duration":0.042856999999997925,"midi":68,"time":101.485376,"velocity":0.3937007874015748},{"duration":0.042856999999997925,"midi":65,"time":101.485376,"velocity":0.3937007874015748},{"duration":0.042856999999997925,"midi":56,"time":101.828232,"velocity":0.3937007874015748},{"duration":0.042856999999997925,"midi":65,"time":101.828232,"velocity":0.3937007874015748},{"duration":0.042856999999997925,"midi":67,"time":102.171088,"velocity":0.3937007874015748},{"duration":0.042856999999997925,"midi":62,"time":102.171088,"velocity":0.3937007874015748},{"duration":0.042856999999997925,"midi":55,"time":102.171088,"velocity":0.3937007874015748},{"duration":0.042856999999997925,"midi":43,"time":102.171088,"velocity":0.3937007874015748},{"duration":0.042856999999997925,"midi":39,"time":103.542512,"velocity":0.3937007874015748},{"duration":0.042856999999997925,"midi":51,"time":103.542512,"velocity":0.3937007874015748},{"duration":0.042856999999997925,"midi":67,"time":103.885368,"velocity":0.3937007874015748},{"duration":0.042856999999997925,"midi":60,"time":103.885368,"velocity":0.3937007874015748},{"duration":0.042856999999997925,"midi":48,"time":104.228224,"velocity":0.3937007874015748},{"duration":0.042856999999997925,"midi":70,"time":104.228224,"velocity":0.3937007874015748},{"duration":0.042856999999997925,"midi":64,"time":104.228224,"velocity":0.3937007874015748},{"duration":0.042856999999997925,"midi":36,"time":104.228224,"velocity":0.3937007874015748},{"duration":0.042856999999997925,"midi":67,"time":104.742508,"velocity":0.3937007874015748},{"duration":0.042856999999997925,"midi":64,"time":104.742508,"velocity":0.3937007874015748},{"duration":0.042857000000012135,"midi":41,"time":104.91393599999999,"velocity":0.3937007874015748},{"duration":0.042857000000012135,"midi":53,"time":104.91393599999999,"velocity":0.3937007874015748},{"duration":0.042856999999997925,"midi":50,"time":106.28536,"velocity":0.3937007874015748},{"duration":0.042856999999997925,"midi":38,"time":106.28536,"velocity":0.3937007874015748},{"duration":0.042856999999997925,"midi":62,"time":106.628216,"velocity":0.3937007874015748},{"duration":0.042856999999997925,"midi":68,"time":106.628216,"velocity":0.3937007874015748},{"duration":0.042857000000012135,"midi":43,"time":106.97107199999999,"velocity":0.3937007874015748},{"duration":0.042857000000012135,"midi":55,"time":106.97107199999999,"velocity":0.3937007874015748},{"duration":0.042857000000012135,"midi":67,"time":106.97107199999999,"velocity":0.3937007874015748},{"duration":0.042857000000012135,"midi":59,"time":106.97107199999999,"velocity":0.3937007874015748},{"duration":0.042856999999997925,"midi":65,"time":107.313928,"velocity":0.3937007874015748},{"duration":0.042856999999997925,"midi":62,"time":107.313928,"velocity":0.3937007874015748},{"duration":0.042856999999997925,"midi":36,"time":107.656784,"velocity":0.3937007874015748},{"duration":0.042856999999997925,"midi":48,"time":107.656784,"velocity":0.3937007874015748},{"duration":0.042856999999997925,"midi":63,"time":107.656784,"velocity":0.3937007874015748},{"duration":0.042856999999997925,"midi":60,"time":107.656784,"velocity":0.3937007874015748},{"duration":0.042856999999997925,"midi":63,"time":107.99964,"velocity":0.3937007874015748},{"duration":0.042856999999997925,"midi":67,"time":107.99964,"velocity":0.3937007874015748},{"duration":0.042856999999997925,"midi":72,"time":108.342496,"velocity":0.3937007874015748},{"duration":0.042856999999997925,"midi":45,"time":108.342496,"velocity":0.3937007874015748},{"duration":0.042856999999997925,"midi":57,"time":108.342496,"velocity":0.3937007874015748},{"duration":0.042856999999997925,"midi":66,"time":108.342496,"velocity":0.3937007874015748},{"duration":0.042856999999997925,"midi":69,"time":108.685352,"velocity":0.3937007874015748},{"duration":0.042856999999997925,"midi":66,"time":108.685352,"velocity":0.3937007874015748},{"duration":0.042857000000012135,"midi":54,"time":109.02820799999999,"velocity":0.3937007874015748},{"duration":0.042857000000012135,"midi":42,"time":109.02820799999999,"velocity":0.3937007874015748},{"duration":0.042857000000012135,"midi":72,"time":109.02820799999999,"velocity":0.3937007874015748},{"duration":0.042857000000012135,"midi":66,"time":109.02820799999999,"velocity":0.3937007874015748},{"duration":0.042856999999997925,"midi":71,"time":109.71392,"velocity":0.3937007874015748},{"duration":0.042856999999997925,"midi":55,"time":109.71392,"velocity":0.3937007874015748},{"duration":0.042856999999997925,"midi":43,"time":109.71392,"velocity":0.3937007874015748},{"duration":0.042856999999997925,"midi":67,"time":109.71392,"velocity":0.3937007874015748},{"duration":0.042856999999997925,"midi":72,"time":110.228204,"velocity":0.3937007874015748},{"duration":0.042856999999997925,"midi":72,"time":110.399632,"velocity":0.3937007874015748},{"duration":0.042856999999997925,"midi":60,"time":110.399632,"velocity":0.3937007874015748},{"duration":0.042856999999997925,"midi":48,"time":110.399632,"velocity":0.3937007874015748}]},{"instrument":{"family":"brass","number":57,"name":"trombone"},"notes":[{"duration":0.04285700000000503,"midi":55,"time":56.571239999999996,"velocity":0.48031496062992124},{"duration":0.042856999999997925,"midi":48,"time":56.914096,"velocity":0.48031496062992124},{"duration":0.042856999999997925,"midi":63,"time":56.914096,"velocity":0.48031496062992124},{"duration":0.042856999999997925,"midi":60,"time":56.914096,"velocity":0.48031496062992124},{"duration":0.042856999999997925,"midi":51,"time":56.914096,"velocity":0.48031496062992124},{"duration":0.042856999999997925,"midi":63,"time":56.956953,"velocity":0.48031496062992124},{"duration":0.042856999999997925,"midi":51,"time":56.956953,"velocity":0.48031496062992124},{"duration":0.04285700000000503,"midi":63,"time":56.99981,"velocity":0.48031496062992124},{"duration":0.042856999999997925,"midi":60,"time":57.256952,"velocity":0.48031496062992124},{"duration":0.04285700000000503,"midi":60,"time":57.42838,"velocity":0.48031496062992124},{"duration":0.04285700000000503,"midi":48,"time":57.42838,"velocity":0.48031496062992124},{"duration":0.042856999999997925,"midi":48,"time":57.471237,"velocity":0.48031496062992124},{"duration":0.042856999999997925,"midi":60,"time":57.471237,"velocity":0.48031496062992124},{"duration":0.042856999999997925,"midi":60,"time":57.514094,"velocity":0.48031496062992124},{"duration":0.04285700000000503,"midi":59,"time":57.599807999999996,"velocity":0.48031496062992124},{"duration":0.04285700000000503,"midi":47,"time":57.599807999999996,"velocity":0.48031496062992124},{"duration":0.042856999999997925,"midi":59,"time":57.642665,"velocity":0.48031496062992124},{"duration":0.042856999999997925,"midi":47,"time":57.642665,"velocity":0.48031496062992124},{"duration":0.042856999999997925,"midi":59,"time":57.685522,"velocity":0.48031496062992124},{"duration":0.042856999999997925,"midi":48,"time":57.771236,"velocity":0.48031496062992124},{"duration":0.042856999999997925,"midi":60,"time":57.942664,"velocity":0.48031496062992124},{"duration":0.042856999999997925,"midi":60,"time":58.114092,"velocity":0.48031496062992124},{"duration":0.042856999999997925,"midi":48,"time":58.114092,"velocity":0.48031496062992124},{"duration":0.04285700000000503,"midi":48,"time":58.156949,"velocity":0.48031496062992124},{"duration":0.04285700000000503,"midi":60,"time":58.156949,"velocity":0.48031496062992124},{"duration":0.042856999999997925,"midi":60,"time":58.199806,"velocity":0.48031496062992124},{"duration":0.042856999999997925,"midi":51,"time":58.28552,"velocity":0.48031496062992124},{"duration":0.042856999999997925,"midi":63,"time":58.28552,"velocity":0.48031496062992124},{"duration":0.042856999999997925,"midi":43,"time":58.28552,"velocity":0.48031496062992124},{"duration":0.042856999999997925,"midi":55,"time":58.28552,"velocity":0.48031496062992124},{"duration":0.04285700000000503,"midi":55,"time":58.328376999999996,"velocity":0.48031496062992124},{"duration":0.04285700000000503,"midi":43,"time":58.328376999999996,"velocity":0.48031496062992124},{"duration":0.042856999999997925,"midi":55,"time":58.371234,"velocity":0.48031496062992124},{"duration":0.04285700000000503,"midi":63,"time":58.628375999999996,"velocity":0.48031496062992124},{"duration":0.042856999999997925,"midi":51,"time":59.14266,"velocity":0.48031496062992124},{"duration":0.042856999999997925,"midi":43,"time":59.314088,"velocity":0.48031496062992124},{"duration":0.042856999999997925,"midi":63,"time":59.314088,"velocity":0.48031496062992124},{"duration":0.042856999999997925,"midi":55,"time":59.314088,"velocity":0.48031496062992124},{"duration":0.04285700000000503,"midi":43,"time":59.356944999999996,"velocity":0.48031496062992124},{"duration":0.04285700000000503,"midi":55,"time":59.356944999999996,"velocity":0.48031496062992124},{"duration":0.042856999999997925,"midi":55,"time":59.399802,"velocity":0.48031496062992124},{"duration":0.04285700000000503,"midi":62,"time":59.656943999999996,"velocity":0.48031496062992124},{"duration":0.04285700000000503,"midi":42,"time":59.656943999999996,"velocity":0.48031496062992124},{"duration":0.04285700000000503,"midi":54,"time":59.656943999999996,"velocity":0.48031496062992124},{"duration":0.04285700000000503,"midi":50,"time":59.656943999999996,"velocity":0.48031496062992124},{"duration":0.042856999999997925,"midi":54,"time":59.699801,"velocity":0.48031496062992124},{"duration":0.042856999999997925,"midi":42,"time":59.699801,"velocity":0.48031496062992124},{"duration":0.042856999999997925,"midi":54,"time":59.742658,"velocity":0.48031496062992124},{"duration":0.042856999999997925,"midi":62,"time":59.9998,"velocity":0.48031496062992124},{"duration":0.042856999999997925,"midi":43,"time":60.171228,"velocity":0.48031496062992124},{"duration":0.042856999999997925,"midi":55,"time":60.171228,"velocity":0.48031496062992124},{"duration":0.04285700000000503,"midi":43,"time":60.214085,"velocity":0.48031496062992124},{"duration":0.04285700000000503,"midi":55,"time":60.214085,"velocity":0.48031496062992124},{"duration":0.042856999999997925,"midi":55,"time":60.256942,"velocity":0.48031496062992124},{"duration":0.042856999999997925,"midi":51,"time":60.342656,"velocity":0.48031496062992124},{"duration":0.042856999999997925,"midi":63,"time":60.342656,"velocity":0.48031496062992124},{"duration":0.04285700000000503,"midi":51,"time":60.385512999999996,"velocity":0.48031496062992124},{"duration":0.04285700000000503,"midi":63,"time":60.385512999999996,"velocity":0.48031496062992124},{"duration":0.042856999999997925,"midi":63,"time":60.42837,"velocity":0.48031496062992124},{"duration":0.04285700000000503,"midi":50,"time":60.514084,"velocity":0.48031496062992124},{"duration":0.04285700000000503,"midi":62,"time":60.685511999999996,"velocity":0.48031496062992124},{"duration":0.042856999999997925,"midi":50,"time":60.85694,"velocity":0.48031496062992124},{"duration":0.042856999999997925,"midi":62,"time":60.85694,"velocity":0.48031496062992124},{"duration":0.042856999999997925,"midi":50,"time":60.899797,"velocity":0.48031496062992124},{"duration":0.042856999999997925,"midi":62,"time":60.899797,"velocity":0.48031496062992124},{"duration":0.04285700000000503,"midi":62,"time":60.942654,"velocity":0.48031496062992124},{"duration":0.042856999999997925,"midi":55,"time":61.028368,"velocity":0.48031496062992124},{"duration":0.042856999999997925,"midi":48,"time":61.028368,"velocity":0.48031496062992124},{"duration":0.042856999999997925,"midi":60,"time":61.028368,"velocity":0.48031496062992124},{"duration":0.042856999999997925,"midi":60,"time":61.071225,"velocity":0.48031496062992124},{"duration":0.042856999999997925,"midi":48,"time":61.071225,"velocity":0.48031496062992124},{"duration":0.04285700000000503,"midi":60,"time":61.114081999999996,"velocity":0.48031496062992124},{"duration":0.042856999999997925,"midi":53,"time":61.199796,"velocity":0.48031496062992124},{"duration":0.042856999999997925,"midi":53,"time":61.371224,"velocity":0.48031496062992124},{"duration":0.042856999999997925,"midi":55,"time":61.371224,"velocity":0.48031496062992124},{"duration":0.042856999999997925,"midi":53,"time":61.371224,"velocity":0.48031496062992124},{"duration":0.04285700000000503,"midi":55,"time":61.542652,"velocity":0.48031496062992124},{"duration":0.04285700000000503,"midi":56,"time":61.542652,"velocity":0.48031496062992124},{"duration":0.04285700000000503,"midi":51,"time":61.714079999999996,"velocity":0.48031496062992124},{"duration":0.04285700000000503,"midi":56,"time":61.714079999999996,"velocity":0.48031496062992124},{"duration":0.04285700000000503,"midi":47,"time":61.714079999999996,"velocity":0.48031496062992124},{"duration":0.04285700000000503,"midi":59,"time":61.714079999999996,"velocity":0.48031496062992124},{"duration":0.04285700000000503,"midi":59,"time":61.714079999999996,"velocity":0.48031496062992124},{"duration":0.042856999999997925,"midi":59,"time":61.756937,"velocity":0.48031496062992124},{"duration":0.042856999999997925,"midi":47,"time":61.756937,"velocity":0.48031496062992124},{"duration":0.042856999999997925,"midi":59,"time":61.799794,"velocity":0.48031496062992124},{"duration":0.042856999999997925,"midi":59,"time":61.885508,"velocity":0.48031496062992124},{"duration":0.042856999999997925,"midi":60,"time":61.885508,"velocity":0.48031496062992124},{"duration":0.042856999999997925,"midi":50,"time":62.056936,"velocity":0.48031496062992124},{"duration":0.042856999999997925,"midi":62,"time":62.056936,"velocity":0.48031496062992124},{"duration":0.042856999999997925,"midi":60,"time":62.056936,"velocity":0.48031496062992124},{"duration":0.042856999999997925,"midi":62,"time":62.228364,"velocity":0.48031496062992124},{"duration":0.042856999999997925,"midi":65,"time":62.228364,"velocity":0.48031496062992124},{"duration":0.042856999999997925,"midi":63,"time":62.399792,"velocity":0.48031496062992124},{"duration":0.042856999999997925,"midi":60,"time":62.399792,"velocity":0.48031496062992124},{"duration":0.042856999999997925,"midi":51,"time":62.399792,"velocity":0.48031496062992124},{"duration":0.042856999999997925,"midi":48,"time":62.399792,"velocity":0.48031496062992124},{"duration":0.042856999999997925,"midi":65,"time":62.399792,"velocity":0.48031496062992124},{"duration":0.04285700000000503,"midi":63,"time":62.442648999999996,"velocity":0.48031496062992124},{"duration":0.04285700000000503,"midi":51,"time":62.442648999999996,"velocity":0.48031496062992124},{"duration":0.042856999999997925,"midi":63,"time":62.485506,"velocity":0.48031496062992124},{"duration":0.04285700000000503,"midi":60,"time":62.742647999999996,"velocity":0.48031496062992124},{"duration":0.042856999999997925,"midi":48,"time":62.914076,"velocity":0.48031496062992124},{"duration":0.042856999999997925,"midi":60,"time":62.914076,"velocity":0.48031496062992124},{"duration":0.042856999999997925,"midi":48,"time":62.956933,"velocity":0.48031496062992124},{"duration":0.042856999999997925,"midi":60,"time":62.956933,"velocity":0.48031496062992124},{"duration":0.04285700000000503,"midi":60,"time":62.99979,"velocity":0.48031496062992124},{"duration":0.042856999999997925,"midi":47,"time":63.085504,"velocity":0.48031496062992124},{"duration":0.042856999999997925,"midi":59,"time":63.085504,"velocity":0.48031496062992124},{"duration":0.042856999999997925,"midi":47,"time":63.128361,"velocity":0.48031496062992124},{"duration":0.042856999999997925,"midi":59,"time":63.128361,"velocity":0.48031496062992124},{"duration":0.04285700000000503,"midi":59,"time":63.171217999999996,"velocity":0.48031496062992124},{"duration":0.042856999999997925,"midi":48,"time":63.256932,"velocity":0.48031496062992124},{"duration":0.042856999999997925,"midi":60,"time":63.42836,"velocity":0.48031496062992124},{"duration":0.04285700000000503,"midi":60,"time":63.599788,"velocity":0.48031496062992124},{"duration":0.04285700000000503,"midi":48,"time":63.599788,"velocity":0.48031496062992124},{"duration":0.042856999999997925,"midi":48,"time":63.642645,"velocity":0.48031496062992124},{"duration":0.042856999999997925,"midi":60,"time":63.642645,"velocity":0.48031496062992124},{"duration":0.042856999999997925,"midi":60,"time":63.685502,"velocity":0.48031496062992124},{"duration":0.04285700000000503,"midi":43,"time":63.771215999999995,"velocity":0.48031496062992124},{"duration":0.04285700000000503,"midi":55,"time":63.771215999999995,"velocity":0.48031496062992124},{"duration":0.04285700000000503,"midi":63,"time":63.771215999999995,"velocity":0.48031496062992124},{"duration":0.04285700000000503,"midi":51,"time":63.771215999999995,"velocity":0.48031496062992124},{"duration":0.042856999999997925,"midi":43,"time":63.814073,"velocity":0.48031496062992124},{"duration":0.042856999999997925,"midi":55,"time":63.814073,"velocity":0.48031496062992124},{"duration":0.042856999999997925,"midi":55,"time":63.85693,"velocity":0.48031496062992124},{"duration":0.042857000000012135,"midi":63,"time":64.114072,"velocity":0.48031496062992124},{"duration":0.042856999999997925,"midi":51,"time":64.628356,"velocity":0.48031496062992124},{"duration":0.042856999999997925,"midi":67,"time":64.799784,"velocity":0.48031496062992124},{"duration":0.042856999999997925,"midi":55,"time":64.799784,"velocity":0.48031496062992124},{"duration":0.042856999999997925,"midi":63,"time":64.799784,"velocity":0.48031496062992124},{"duration":0.042856999999997925,"midi":55,"time":64.842641,"velocity":0.48031496062992124},{"duration":0.042856999999997925,"midi":67,"time":64.842641,"velocity":0.48031496062992124},{"duration":0.042856999999997925,"midi":67,"time":64.885498,"velocity":0.48031496062992124},{"duration":0.042856999999997925,"midi":44,"time":65.14264,"velocity":0.48031496062992124},{"duration":0.042856999999997925,"midi":54,"time":65.14264,"velocity":0.48031496062992124},{"duration":0.042856999999997925,"midi":66,"time":65.14264,"velocity":0.48031496062992124},{"duration":0.042856999999997925,"midi":56,"time":65.14264,"velocity":0.48031496062992124},{"duration":0.042856999999997925,"midi":66,"time":65.185497,"velocity":0.48031496062992124},{"duration":0.042856999999997925,"midi":54,"time":65.185497,"velocity":0.48031496062992124},{"duration":0.042856999999997925,"midi":66,"time":65.228354,"velocity":0.48031496062992124},{"duration":0.042856999999997925,"midi":56,"time":65.485496,"velocity":0.48031496062992124},{"duration":0.042856999999997925,"midi":63,"time":65.656924,"velocity":0.48031496062992124},{"duration":0.042856999999997925,"midi":51,"time":65.656924,"velocity":0.48031496062992124},{"duration":0.042856999999997925,"midi":63,"time":65.699781,"velocity":0.48031496062992124},{"duration":0.042856999999997925,"midi":51,"time":65.699781,"velocity":0.48031496062992124},{"duration":0.042856999999997925,"midi":63,"time":65.742638,"velocity":0.48031496062992124},{"duration":0.042856999999997925,"midi":62,"time":65.828352,"velocity":0.48031496062992124},{"duration":0.042856999999997925,"midi":50,"time":65.828352,"velocity":0.48031496062992124},{"duration":0.042857000000012135,"midi":62,"time":65.871209,"velocity":0.48031496062992124},{"duration":0.042857000000012135,"midi":50,"time":65.871209,"velocity":0.48031496062992124},{"duration":0.042856999999997925,"midi":62,"time":65.914066,"velocity":0.48031496062992124},{"duration":0.042856999999997925,"midi":44,"time":65.99978,"velocity":0.48031496062992124},{"duration":0.042857000000012135,"midi":56,"time":66.171208,"velocity":0.48031496062992124},{"duration":0.042856999999997925,"midi":60,"time":66.342636,"velocity":0.48031496062992124},{"duration":0.042856999999997925,"midi":48,"time":66.342636,"velocity":0.48031496062992124},{"duration":0.042856999999997925,"midi":48,"time":66.385493,"velocity":0.48031496062992124},{"duration":0.042856999999997925,"midi":60,"time":66.385493,"velocity":0.48031496062992124},{"duration":0.042856999999997925,"midi":60,"time":66.42835,"velocity":0.48031496062992124},{"duration":0.042856999999997925,"midi":47,"time":66.514064,"velocity":0.48031496062992124},{"duration":0.042856999999997925,"midi":48,"time":66.514064,"velocity":0.48031496062992124},{"duration":0.042856999999997925,"midi":60,"time":66.514064,"velocity":0.48031496062992124},{"duration":0.042856999999997925,"midi":55,"time":66.514064,"velocity":0.48031496062992124},{"duration":0.042856999999997925,"midi":43,"time":66.514064,"velocity":0.48031496062992124},{"duration":0.042856999999997925,"midi":50,"time":66.514064,"velocity":0.48031496062992124},{"duration":0.042856999999997925,"midi":48,"time":66.556921,"velocity":0.48031496062992124},{"duration":0.042856999999997925,"midi":60,"time":66.556921,"velocity":0.48031496062992124},{"duration":0.042856999999997925,"midi":60,"time":66.599778,"velocity":0.48031496062992124},{"duration":0.042856999999997925,"midi":60,"time":66.642635,"velocity":0.48031496062992124},{"duration":0.042856999999997925,"midi":60,"time":66.685492,"velocity":0.48031496062992124},{"duration":0.042856999999997925,"midi":60,"time":66.728349,"velocity":0.48031496062992124},{"duration":0.042856999999997925,"midi":50,"time":67.199776,"velocity":0.48031496062992124},{"duration":0.042856999999997925,"midi":62,"time":67.199776,"velocity":0.48031496062992124},{"duration":0.042856999999997925,"midi":62,"time":67.199776,"velocity":0.48031496062992124},{"duration":0.042856999999997925,"midi":50,"time":67.242633,"velocity":0.48031496062992124},{"duration":0.042856999999997925,"midi":62,"time":67.242633,"velocity":0.48031496062992124},{"duration":0.042856999999997925,"midi":62,"time":67.28549,"velocity":0.48031496062992124},{"duration":0.042857000000012135,"midi":62,"time":67.328347,"velocity":0.48031496062992124},{"duration":0.042856999999997925,"midi":62,"time":67.371204,"velocity":0.48031496062992124},{"duration":0.042856999999997925,"midi":62,"time":67.414061,"velocity":0.48031496062992124},{"duration":0.042856999999997925,"midi":75,"time":67.885488,"velocity":0.48031496062992124},{"duration":0.042856999999997925,"midi":63,"time":67.885488,"velocity":0.48031496062992124},{"duration":0.042856999999997925,"midi":48,"time":67.885488,"velocity":0.48031496062992124},{"duration":0.042857000000012135,"midi":75,"time":67.928345,"velocity":0.48031496062992124},{"duration":0.042857000000012135,"midi":63,"time":67.928345,"velocity":0.48031496062992124},{"duration":0.042856999999997925,"midi":75,"time":67.971202,"velocity":0.48031496062992124},{"duration":0.042856999999997925,"midi":60,"time":68.399772,"velocity":0.48031496062992124},{"duration":0.042856999999997925,"midi":72,"time":68.399772,"velocity":0.48031496062992124},{"duration":0.042856999999997925,"midi":60,"time":68.442629,"velocity":0.48031496062992124},{"duration":0.042856999999997925,"midi":72,"time":68.442629,"velocity":0.48031496062992124},{"duration":0.042856999999997925,"midi":72,"time":68.485486,"velocity":0.48031496062992124},{"duration":0.042856999999997925,"midi":59,"time":68.5712,"velocity":0.48031496062992124},{"duration":0.042856999999997925,"midi":71,"time":68.5712,"velocity":0.48031496062992124},{"duration":0.042856999999997925,"midi":48,"time":68.5712,"velocity":0.48031496062992124},{"duration":0.042856999999997925,"midi":71,"time":68.614057,"velocity":0.48031496062992124},{"duration":0.042856999999997925,"midi":59,"time":68.614057,"velocity":0.48031496062992124},{"duration":0.042856999999997925,"midi":71,"time":68.656914,"velocity":0.48031496062992124},{"duration":0.042856999999997925,"midi":72,"time":69.085484,"velocity":0.48031496062992124},{"duration":0.042856999999997925,"midi":60,"time":69.085484,"velocity":0.48031496062992124},{"duration":0.042857000000012135,"midi":60,"time":69.12834099999999,"velocity":0.48031496062992124},{"duration":0.042857000000012135,"midi":72,"time":69.12834099999999,"velocity":0.48031496062992124},{"duration":0.042856999999997925,"midi":72,"time":69.171198,"velocity":0.48031496062992124},{"duration":0.042856999999997925,"midi":67,"time":69.256912,"velocity":0.48031496062992124},{"duration":0.042856999999997925,"midi":55,"time":69.256912,"velocity":0.48031496062992124},{"duration":0.042856999999997925,"midi":67,"time":69.299769,"velocity":0.48031496062992124},{"duration":0.042856999999997925,"midi":55,"time":69.299769,"velocity":0.48031496062992124},{"duration":0.042856999999997925,"midi":67,"time":69.342626,"velocity":0.48031496062992124},{"duration":0.042856999999997925,"midi":51,"time":69.42834,"velocity":0.48031496062992124},{"duration":0.042856999999997925,"midi":51,"time":69.599768,"velocity":0.48031496062992124},{"duration":0.042856999999997925,"midi":63,"time":69.942624,"velocity":0.48031496062992124},{"duration":0.042857000000012135,"midi":55,"time":70.28547999999999,"velocity":0.48031496062992124},{"duration":0.042857000000012135,"midi":67,"time":70.28547999999999,"velocity":0.48031496062992124},{"duration":0.042856999999997925,"midi":67,"time":70.328337,"velocity":0.48031496062992124},{"duration":0.042856999999997925,"midi":55,"time":70.328337,"velocity":0.48031496062992124},{"duration":0.042856999999997925,"midi":67,"time":70.371194,"velocity":0.48031496062992124},{"duration":0.042856999999997925,"midi":66,"time":70.628336,"velocity":0.48031496062992124},{"duration":0.042856999999997925,"midi":50,"time":70.628336,"velocity":0.48031496062992124},{"duration":0.042856999999997925,"midi":54,"time":70.628336,"velocity":0.48031496062992124},{"duration":0.042856999999997925,"midi":54,"time":70.671193,"velocity":0.48031496062992124},{"duration":0.042856999999997925,"midi":66,"time":70.671193,"velocity":0.48031496062992124},{"duration":0.042856999999997925,"midi":66,"time":70.71405,"velocity":0.48031496062992124},{"duration":0.042856999999997925,"midi":55,"time":71.14262,"velocity":0.48031496062992124},{"duration":0.042856999999997925,"midi":67,"time":71.14262,"velocity":0.48031496062992124},{"duration":0.042857000000012135,"midi":55,"time":71.18547699999999,"velocity":0.48031496062992124},{"duration":0.042857000000012135,"midi":67,"time":71.18547699999999,"velocity":0.48031496062992124},{"duration":0.042856999999997925,"midi":67,"time":71.228334,"velocity":0.48031496062992124},{"duration":0.042856999999997925,"midi":75,"time":71.314048,"velocity":0.48031496062992124},{"duration":0.042856999999997925,"midi":62,"time":71.314048,"velocity":0.48031496062992124},{"duration":0.042856999999997925,"midi":63,"time":71.314048,"velocity":0.48031496062992124},{"duration":0.042856999999997925,"midi":63,"time":71.356905,"velocity":0.48031496062992124},{"duration":0.042856999999997925,"midi":75,"time":71.356905,"velocity":0.48031496062992124},{"duration":0.042856999999997925,"midi":75,"time":71.399762,"velocity":0.48031496062992124},{"duration":0.042856999999997925,"midi":50,"time":71.399762,"velocity":0.48031496062992124},{"duration":0.042856999999997925,"midi":62,"time":71.485476,"velocity":0.48031496062992124},{"duration":0.042856999999997925,"midi":50,"time":71.57119,"velocity":0.48031496062992124},{"duration":0.042856999999997925,"midi":62,"time":71.656904,"velocity":0.48031496062992124},{"duration":0.042857000000012135,"midi":50,"time":71.742618,"velocity":0.48031496062992124},{"duration":0.042856999999997925,"midi":62,"time":71.828332,"velocity":0.48031496062992124},{"duration":0.042856999999997925,"midi":62,"time":71.828332,"velocity":0.48031496062992124},{"duration":0.042856999999997925,"midi":74,"time":71.828332,"velocity":0.48031496062992124},{"duration":0.042856999999997925,"midi":62,"time":71.871189,"velocity":0.48031496062992124},{"duration":0.042856999999997925,"midi":74,"time":71.871189,"velocity":0.48031496062992124},{"duration":0.042856999999997925,"midi":50,"time":71.914046,"velocity":0.48031496062992124},{"duration":0.042856999999997925,"midi":74,"time":71.914046,"velocity":0.48031496062992124},{"duration":0.042856999999997925,"midi":72,"time":71.99976,"velocity":0.48031496062992124},{"duration":0.042856999999997925,"midi":60,"time":71.99976,"velocity":0.48031496062992124},{"duration":0.042856999999997925,"midi":50,"time":71.99976,"velocity":0.48031496062992124},{"duration":0.042857000000012135,"midi":72,"time":72.04261699999999,"velocity":0.48031496062992124},{"duration":0.042857000000012135,"midi":60,"time":72.04261699999999,"velocity":0.48031496062992124},{"duration":0.042856999999997925,"midi":72,"time":72.085474,"velocity":0.48031496062992124},{"duration":0.042856999999997925,"midi":43,"time":72.171188,"velocity":0.48031496062992124},{"duration":0.042857000000012135,"midi":43,"time":72.34261599999999,"velocity":0.48031496062992124},{"duration":0.042856999999997925,"midi":71,"time":72.685472,"velocity":0.48031496062992124},{"duration":0.042856999999997925,"midi":55,"time":72.685472,"velocity":0.48031496062992124},{"duration":0.042856999999997925,"midi":59,"time":72.685472,"velocity":0.48031496062992124},{"duration":0.042856999999997925,"midi":71,"time":72.728329,"velocity":0.48031496062992124},{"duration":0.042856999999997925,"midi":59,"time":72.728329,"velocity":0.48031496062992124},{"duration":0.042856999999997925,"midi":71,"time":72.771186,"velocity":0.48031496062992124},{"duration":0.042856999999997925,"midi":43,"time":72.8569,"velocity":0.48031496062992124},{"duration":0.042856999999997925,"midi":43,"time":73.028328,"velocity":0.48031496062992124},{"duration":0.042856999999997925,"midi":75,"time":73.371184,"velocity":0.48031496062992124},{"duration":0.042856999999997925,"midi":63,"time":73.371184,"velocity":0.48031496062992124},{"duration":0.042856999999997925,"midi":48,"time":73.371184,"velocity":0.48031496062992124},{"duration":0.042856999999997925,"midi":75,"time":73.414041,"velocity":0.48031496062992124},{"duration":0.042856999999997925,"midi":63,"time":73.414041,"velocity":0.48031496062992124},{"duration":0.042856999999997925,"midi":75,"time":73.456898,"velocity":0.48031496062992124},{"duration":0.042856999999997925,"midi":72,"time":73.885468,"velocity":0.48031496062992124},{"duration":0.042856999999997925,"midi":60,"time":73.885468,"velocity":0.48031496062992124},{"duration":0.042856999999997925,"midi":60,"time":73.928325,"velocity":0.48031496062992124},{"duration":0.042856999999997925,"midi":72,"time":73.928325,"velocity":0.48031496062992124},{"duration":0.042856999999997925,"midi":72,"time":73.971182,"velocity":0.48031496062992124},{"duration":0.042856999999997925,"midi":48,"time":74.056896,"velocity":0.48031496062992124},{"duration":0.042856999999997925,"midi":71,"time":74.056896,"velocity":0.48031496062992124},{"duration":0.042856999999997925,"midi":59,"time":74.056896,"velocity":0.48031496062992124},{"duration":0.042857000000012135,"midi":59,"time":74.09975299999999,"velocity":0.48031496062992124},{"duration":0.042857000000012135,"midi":71,"time":74.09975299999999,"velocity":0.48031496062992124},{"duration":0.042856999999997925,"midi":71,"time":74.14261,"velocity":0.48031496062992124},{"duration":0.042856999999997925,"midi":72,"time":74.57118,"velocity":0.48031496062992124},{"duration":0.042856999999997925,"midi":60,"time":74.57118,"velocity":0.48031496062992124},{"duration":0.042856999999997925,"midi":60,"time":74.614037,"velocity":0.48031496062992124},{"duration":0.042856999999997925,"midi":72,"time":74.614037,"velocity":0.48031496062992124},{"duration":0.042856999999997925,"midi":72,"time":74.656894,"velocity":0.48031496062992124},{"duration":0.042856999999997925,"midi":67,"time":74.742608,"velocity":0.48031496062992124},{"duration":0.042856999999997925,"midi":55,"time":74.742608,"velocity":0.48031496062992124},{"duration":0.042856999999997925,"midi":67,"time":74.785465,"velocity":0.48031496062992124},{"duration":0.042856999999997925,"midi":55,"time":74.785465,"velocity":0.48031496062992124},{"duration":0.042856999999997925,"midi":67,"time":74.828322,"velocity":0.48031496062992124},{"duration":0.042856999999997925,"midi":51,"time":74.914036,"velocity":0.48031496062992124},{"duration":0.042856999999997925,"midi":51,"time":75.085464,"velocity":0.48031496062992124},{"duration":0.042856999999997925,"midi":63,"time":75.42832,"velocity":0.48031496062992124},{"duration":0.042856999999997925,"midi":79,"time":75.771176,"velocity":0.48031496062992124},{"duration":0.042856999999997925,"midi":67,"time":75.771176,"velocity":0.48031496062992124},{"duration":0.042856999999997925,"midi":79,"time":75.814033,"velocity":0.48031496062992124},{"duration":0.042856999999997925,"midi":67,"time":75.814033,"velocity":0.48031496062992124},{"duration":0.042857000000012135,"midi":79,"time":75.85688999999999,"velocity":0.48031496062992124},{"duration":0.042856999999997925,"midi":56,"time":76.114032,"velocity":0.48031496062992124},{"duration":0.042856999999997925,"midi":78,"time":76.114032,"velocity":0.48031496062992124},{"duration":0.042856999999997925,"midi":44,"time":76.114032,"velocity":0.48031496062992124},{"duration":0.042856999999997925,"midi":66,"time":76.114032,"velocity":0.48031496062992124},{"duration":0.042857000000012135,"midi":78,"time":76.15688899999999,"velocity":0.48031496062992124},{"duration":0.042857000000012135,"midi":66,"time":76.15688899999999,"velocity":0.48031496062992124},{"duration":0.042856999999997925,"midi":78,"time":76.199746,"velocity":0.48031496062992124},{"duration":0.042856999999997925,"midi":75,"time":76.628316,"velocity":0.48031496062992124},{"duration":0.042856999999997925,"midi":63,"time":76.628316,"velocity":0.48031496062992124},{"duration":0.042856999999997925,"midi":75,"time":76.671173,"velocity":0.48031496062992124},{"duration":0.042856999999997925,"midi":63,"time":76.671173,"velocity":0.48031496062992124},{"duration":0.042856999999997925,"midi":75,"time":76.71403,"velocity":0.48031496062992124},{"duration":0.042856999999997925,"midi":74,"time":76.799744,"velocity":0.48031496062992124},{"duration":0.042856999999997925,"midi":56,"time":76.799744,"velocity":0.48031496062992124},{"duration":0.042856999999997925,"midi":62,"time":76.799744,"velocity":0.48031496062992124},{"duration":0.042856999999997925,"midi":74,"time":76.842601,"velocity":0.48031496062992124},{"duration":0.042856999999997925,"midi":62,"time":76.842601,"velocity":0.48031496062992124},{"duration":0.042856999999997925,"midi":44,"time":76.885458,"velocity":0.48031496062992124},{"duration":0.042856999999997925,"midi":74,"time":76.885458,"velocity":0.48031496062992124},{"duration":0.042856999999997925,"midi":56,"time":76.971172,"velocity":0.48031496062992124},{"duration":0.042856999999997925,"midi":44,"time":77.056886,"velocity":0.48031496062992124},{"duration":0.042856999999997925,"midi":56,"time":77.1426,"velocity":0.48031496062992124},{"duration":0.042856999999997925,"midi":44,"time":77.228314,"velocity":0.48031496062992124},{"duration":0.042857000000012135,"midi":60,"time":77.314028,"velocity":0.48031496062992124},{"duration":0.042857000000012135,"midi":72,"time":77.314028,"velocity":0.48031496062992124},{"duration":0.042857000000012135,"midi":56,"time":77.314028,"velocity":0.48031496062992124},{"duration":0.042856999999997925,"midi":72,"time":77.356885,"velocity":0.48031496062992124},{"duration":0.042856999999997925,"midi":60,"time":77.356885,"velocity":0.48031496062992124},{"duration":0.042856999999997925,"midi":72,"time":77.399742,"velocity":0.48031496062992124},{"duration":0.042856999999997925,"midi":44,"time":77.399742,"velocity":0.48031496062992124},{"duration":0.042856999999997925,"midi":50,"time":77.485456,"velocity":0.48031496062992124},{"duration":0.042856999999997925,"midi":72,"time":77.485456,"velocity":0.48031496062992124},{"duration":0.042856999999997925,"midi":55,"time":77.485456,"velocity":0.48031496062992124},{"duration":0.042856999999997925,"midi":43,"time":77.485456,"velocity":0.48031496062992124},{"duration":0.042856999999997925,"midi":60,"time":77.485456,"velocity":0.48031496062992124},{"duration":0.042856999999997925,"midi":47,"time":77.485456,"velocity":0.48031496062992124},{"duration":0.042856999999997925,"midi":72,"time":77.528313,"velocity":0.48031496062992124},{"duration":0.042856999999997925,"midi":60,"time":77.528313,"velocity":0.48031496062992124},{"duration":0.042856999999997925,"midi":72,"time":77.57117,"velocity":0.48031496062992124},{"duration":0.042857000000012135,"midi":72,"time":77.614027,"velocity":0.48031496062992124},{"duration":0.042856999999997925,"midi":72,"time":77.656884,"velocity":0.48031496062992124},{"duration":0.042856999999997925,"midi":74,"time":78.171168,"velocity":0.48031496062992124},{"duration":0.042856999999997925,"midi":62,"time":78.171168,"velocity":0.48031496062992124},{"duration":0.042857000000012135,"midi":62,"time":78.21402499999999,"velocity":0.48031496062992124},{"duration":0.042857000000012135,"midi":74,"time":78.21402499999999,"velocity":0.48031496062992124},{"duration":0.042856999999997925,"midi":74,"time":78.256882,"velocity":0.48031496062992124},{"duration":0.042856999999997925,"midi":74,"time":78.299739,"velocity":0.48031496062992124},{"duration":0.042856999999997925,"midi":74,"time":78.342596,"velocity":0.48031496062992124},{"duration":0.042856999999997925,"midi":55,"time":116.913896,"velocity":0.48031496062992124},{"duration":0.042857000000012135,"midi":55,"time":116.95675299999999,"velocity":0.48031496062992124},{"duration":0.042856999999997925,"midi":55,"time":116.99961,"velocity":0.48031496062992124},{"duration":0.042857000000012135,"midi":48,"time":117.25675199999999,"velocity":0.48031496062992124},{"duration":0.042857000000012135,"midi":63,"time":117.25675199999999,"velocity":0.48031496062992124},{"duration":0.042857000000012135,"midi":60,"time":117.25675199999999,"velocity":0.48031496062992124},{"duration":0.042857000000012135,"midi":51,"time":117.25675199999999,"velocity":0.48031496062992124},{"duration":0.042856999999997925,"midi":63,"time":117.299609,"velocity":0.48031496062992124},{"duration":0.042856999999997925,"midi":51,"time":117.299609,"velocity":0.48031496062992124},{"duration":0.042856999999997925,"midi":63,"time":117.342466,"velocity":0.48031496062992124},{"duration":0.042856999999997925,"midi":60,"time":117.599608,"velocity":0.48031496062992124},{"duration":0.042856999999997925,"midi":48,"time":117.771036,"velocity":0.48031496062992124},{"duration":0.042856999999997925,"midi":60,"time":117.771036,"velocity":0.48031496062992124},{"duration":0.042856999999997925,"midi":48,"time":117.813893,"velocity":0.48031496062992124},{"duration":0.042856999999997925,"midi":60,"time":117.813893,"velocity":0.48031496062992124},{"duration":0.042857000000012135,"midi":60,"time":117.85674999999999,"velocity":0.48031496062992124},{"duration":0.042856999999997925,"midi":59,"time":117.942464,"velocity":0.48031496062992124},{"duration":0.042856999999997925,"midi":47,"time":117.942464,"velocity":0.48031496062992124},{"duration":0.042856999999997925,"midi":47,"time":117.985321,"velocity":0.48031496062992124},{"duration":0.042856999999997925,"midi":59,"time":117.985321,"velocity":0.48031496062992124},{"duration":0.042856999999997925,"midi":59,"time":118.028178,"velocity":0.48031496062992124},{"duration":0.042857000000012135,"midi":48,"time":118.11389199999999,"velocity":0.48031496062992124},{"duration":0.042856999999997925,"midi":60,"time":118.28532,"velocity":0.48031496062992124},{"duration":0.042856999999997925,"midi":60,"time":118.456748,"velocity":0.48031496062992124},{"duration":0.042856999999997925,"midi":48,"time":118.456748,"velocity":0.48031496062992124},{"duration":0.042856999999997925,"midi":48,"time":118.499605,"velocity":0.48031496062992124},{"duration":0.042856999999997925,"midi":60,"time":118.499605,"velocity":0.48031496062992124},{"duration":0.042856999999997925,"midi":60,"time":118.542462,"velocity":0.48031496062992124},{"duration":0.042856999999997925,"midi":63,"time":118.628176,"velocity":0.48031496062992124},{"duration":0.042856999999997925,"midi":51,"time":118.628176,"velocity":0.48031496062992124},{"duration":0.042856999999997925,"midi":55,"time":118.628176,"velocity":0.48031496062992124},{"duration":0.042856999999997925,"midi":43,"time":118.628176,"velocity":0.48031496062992124},{"duration":0.042856999999997925,"midi":55,"time":118.671033,"velocity":0.48031496062992124},{"duration":0.042856999999997925,"midi":43,"time":118.671033,"velocity":0.48031496062992124},{"duration":0.042857000000012135,"midi":55,"time":118.71388999999999,"velocity":0.48031496062992124},{"duration":0.042856999999997925,"midi":63,"time":118.971032,"velocity":0.48031496062992124},{"duration":0.042856999999997925,"midi":51,"time":119.485316,"velocity":0.48031496062992124},{"duration":0.042856999999997925,"midi":55,"time":119.656744,"velocity":0.48031496062992124},{"duration":0.042856999999997925,"midi":63,"time":119.656744,"velocity":0.48031496062992124},{"duration":0.042856999999997925,"midi":43,"time":119.656744,"velocity":0.48031496062992124},{"duration":0.042856999999997925,"midi":55,"time":119.699601,"velocity":0.48031496062992124},{"duration":0.042856999999997925,"midi":43,"time":119.699601,"velocity":0.48031496062992124},{"duration":0.042856999999997925,"midi":55,"time":119.742458,"velocity":0.48031496062992124},{"duration":0.042856999999997925,"midi":42,"time":119.9996,"velocity":0.48031496062992124},{"duration":0.042856999999997925,"midi":62,"time":119.9996,"velocity":0.48031496062992124},{"duration":0.042856999999997925,"midi":50,"time":119.9996,"velocity":0.48031496062992124},{"duration":0.042856999999997925,"midi":54,"time":119.9996,"velocity":0.48031496062992124},{"duration":0.042856999999997925,"midi":42,"time":120.042457,"velocity":0.48031496062992124},{"duration":0.042856999999997925,"midi":54,"time":120.042457,"velocity":0.48031496062992124},{"duration":0.042856999999997925,"midi":54,"time":120.085314,"velocity":0.48031496062992124},{"duration":0.042856999999997925,"midi":62,"time":120.342456,"velocity":0.48031496062992124},{"duration":0.042856999999997925,"midi":55,"time":120.513884,"velocity":0.48031496062992124},{"duration":0.042856999999997925,"midi":43,"time":120.513884,"velocity":0.48031496062992124},{"duration":0.042856999999997925,"midi":43,"time":120.556741,"velocity":0.48031496062992124},{"duration":0.042856999999997925,"midi":55,"time":120.556741,"velocity":0.48031496062992124},{"duration":0.042856999999997925,"midi":55,"time":120.599598,"velocity":0.48031496062992124},{"duration":0.042856999999997925,"midi":63,"time":120.685312,"velocity":0.48031496062992124},{"duration":0.042856999999997925,"midi":51,"time":120.685312,"velocity":0.48031496062992124},{"duration":0.042856999999997925,"midi":51,"time":120.728169,"velocity":0.48031496062992124},{"duration":0.042856999999997925,"midi":63,"time":120.728169,"velocity":0.48031496062992124},{"duration":0.042857000000012135,"midi":63,"time":120.77102599999999,"velocity":0.48031496062992124},{"duration":0.042856999999997925,"midi":50,"time":120.85674,"velocity":0.48031496062992124},{"duration":0.042856999999997925,"midi":62,"time":121.028168,"velocity":0.48031496062992124},{"duration":0.042856999999997925,"midi":62,"time":121.199596,"velocity":0.48031496062992124},{"duration":0.042856999999997925,"midi":50,"time":121.199596,"velocity":0.48031496062992124},{"duration":0.042856999999997925,"midi":62,"time":121.242453,"velocity":0.48031496062992124},{"duration":0.042856999999997925,"midi":50,"time":121.242453,"velocity":0.48031496062992124},{"duration":0.042856999999997925,"midi":62,"time":121.28531,"velocity":0.48031496062992124},{"duration":0.042857000000012135,"midi":60,"time":121.37102399999999,"velocity":0.48031496062992124},{"duration":0.042857000000012135,"midi":55,"time":121.37102399999999,"velocity":0.48031496062992124},{"duration":0.042857000000012135,"midi":48,"time":121.37102399999999,"velocity":0.48031496062992124},{"duration":0.042856999999997925,"midi":48,"time":121.413881,"velocity":0.48031496062992124},{"duration":0.042856999999997925,"midi":60,"time":121.413881,"velocity":0.48031496062992124},{"duration":0.042856999999997925,"midi":60,"time":121.456738,"velocity":0.48031496062992124},{"duration":0.042856999999997925,"midi":53,"time":121.71388,"velocity":0.48031496062992124},{"duration":0.042856999999997925,"midi":47,"time":122.056736,"velocity":0.48031496062992124},{"duration":0.042856999999997925,"midi":59,"time":122.056736,"velocity":0.48031496062992124},{"duration":0.042856999999997925,"midi":51,"time":122.056736,"velocity":0.48031496062992124},{"duration":0.042856999999997925,"midi":59,"time":122.099593,"velocity":0.48031496062992124},{"duration":0.042856999999997925,"midi":47,"time":122.099593,"velocity":0.48031496062992124},{"duration":0.042856999999997925,"midi":59,"time":122.14245,"velocity":0.48031496062992124},{"duration":0.042856999999997925,"midi":50,"time":122.399592,"velocity":0.48031496062992124},{"duration":0.042856999999997925,"midi":48,"time":122.742448,"velocity":0.48031496062992124},{"duration":0.042856999999997925,"midi":63,"time":122.742448,"velocity":0.48031496062992124},{"duration":0.042856999999997925,"midi":60,"time":122.742448,"velocity":0.48031496062992124},{"duration":0.042856999999997925,"midi":51,"time":122.742448,"velocity":0.48031496062992124},{"duration":0.042856999999997925,"midi":51,"time":122.785305,"velocity":0.48031496062992124},{"duration":0.042856999999997925,"midi":63,"time":122.785305,"velocity":0.48031496062992124},{"duration":0.042857000000012135,"midi":63,"time":122.82816199999999,"velocity":0.48031496062992124},{"duration":0.042856999999997925,"midi":60,"time":123.085304,"velocity":0.48031496062992124},{"duration":0.042856999999997925,"midi":60,"time":123.256732,"velocity":0.48031496062992124},{"duration":0.042856999999997925,"midi":48,"time":123.256732,"velocity":0.48031496062992124},{"duration":0.042856999999997925,"midi":60,"time":123.299589,"velocity":0.48031496062992124},{"duration":0.042856999999997925,"midi":48,"time":123.299589,"velocity":0.48031496062992124},{"duration":0.042856999999997925,"midi":60,"time":123.342446,"velocity":0.48031496062992124},{"duration":0.042857000000012135,"midi":59,"time":123.42815999999999,"velocity":0.48031496062992124},{"duration":0.042857000000012135,"midi":47,"time":123.42815999999999,"velocity":0.48031496062992124},{"duration":0.042856999999997925,"midi":59,"time":123.471017,"velocity":0.48031496062992124},{"duration":0.042856999999997925,"midi":47,"time":123.471017,"velocity":0.48031496062992124},{"duration":0.042856999999997925,"midi":59,"time":123.513874,"velocity":0.48031496062992124},{"duration":0.042856999999997925,"midi":48,"time":123.599588,"velocity":0.48031496062992124},{"duration":0.042856999999997925,"midi":60,"time":123.771016,"velocity":0.48031496062992124},{"duration":0.042856999999997925,"midi":48,"time":123.942444,"velocity":0.48031496062992124},{"duration":0.042856999999997925,"midi":60,"time":123.942444,"velocity":0.48031496062992124},{"duration":0.042857000000012135,"midi":60,"time":123.98530099999999,"velocity":0.48031496062992124},{"duration":0.042857000000012135,"midi":48,"time":123.98530099999999,"velocity":0.48031496062992124},{"duration":0.042856999999997925,"midi":60,"time":124.028158,"velocity":0.48031496062992124},{"duration":0.042856999999997925,"midi":55,"time":124.113872,"velocity":0.48031496062992124},{"duration":0.042856999999997925,"midi":43,"time":124.113872,"velocity":0.48031496062992124},{"duration":0.042856999999997925,"midi":63,"time":124.113872,"velocity":0.48031496062992124},{"duration":0.042856999999997925,"midi":51,"time":124.113872,"velocity":0.48031496062992124},{"duration":0.042856999999997925,"midi":55,"time":124.156729,"velocity":0.48031496062992124},{"duration":0.042856999999997925,"midi":43,"time":124.156729,"velocity":0.48031496062992124},{"duration":0.042856999999997925,"midi":55,"time":124.199586,"velocity":0.48031496062992124},{"duration":0.042856999999997925,"midi":63,"time":124.456728,"velocity":0.48031496062992124},{"duration":0.042856999999997925,"midi":51,"time":124.971012,"velocity":0.48031496062992124},{"duration":0.042856999999997925,"midi":63,"time":125.14244,"velocity":0.48031496062992124},{"duration":0.042856999999997925,"midi":67,"time":125.14244,"velocity":0.48031496062992124},{"duration":0.042856999999997925,"midi":55,"time":125.14244,"velocity":0.48031496062992124},{"duration":0.042857000000012135,"midi":67,"time":125.18529699999999,"velocity":0.48031496062992124},{"duration":0.042857000000012135,"midi":55,"time":125.18529699999999,"velocity":0.48031496062992124},{"duration":0.042856999999997925,"midi":67,"time":125.228154,"velocity":0.48031496062992124},{"duration":0.042857000000012135,"midi":66,"time":125.48529599999999,"velocity":0.48031496062992124},{"duration":0.042857000000012135,"midi":54,"time":125.48529599999999,"velocity":0.48031496062992124},{"duration":0.042857000000012135,"midi":56,"time":125.48529599999999,"velocity":0.48031496062992124},{"duration":0.042857000000012135,"midi":44,"time":125.48529599999999,"velocity":0.48031496062992124},{"duration":0.042856999999997925,"midi":66,"time":125.528153,"velocity":0.48031496062992124},{"duration":0.042856999999997925,"midi":54,"time":125.528153,"velocity":0.48031496062992124},{"duration":0.042856999999997925,"midi":66,"time":125.57101,"velocity":0.48031496062992124},{"duration":0.042856999999997925,"midi":56,"time":125.828152,"velocity":0.48031496062992124},{"duration":0.042856999999997925,"midi":63,"time":125.99958,"velocity":0.48031496062992124},{"duration":0.042856999999997925,"midi":51,"time":125.99958,"velocity":0.48031496062992124},{"duration":0.042857000000012135,"midi":51,"time":126.04243699999999,"velocity":0.48031496062992124},{"duration":0.042857000000012135,"midi":63,"time":126.04243699999999,"velocity":0.48031496062992124},{"duration":0.042856999999997925,"midi":63,"time":126.085294,"velocity":0.48031496062992124},{"duration":0.042856999999997925,"midi":50,"time":126.171008,"velocity":0.48031496062992124},{"duration":0.042856999999997925,"midi":62,"time":126.171008,"velocity":0.48031496062992124},{"duration":0.042856999999997925,"midi":50,"time":126.213865,"velocity":0.48031496062992124},{"duration":0.042856999999997925,"midi":62,"time":126.213865,"velocity":0.48031496062992124},{"duration":0.042856999999997925,"midi":62,"time":126.256722,"velocity":0.48031496062992124},{"duration":0.042857000000012135,"midi":44,"time":126.34243599999999,"velocity":0.48031496062992124},{"duration":0.042856999999997925,"midi":56,"time":126.513864,"velocity":0.48031496062992124},{"duration":0.042856999999997925,"midi":48,"time":126.685292,"velocity":0.48031496062992124},{"duration":0.042856999999997925,"midi":60,"time":126.685292,"velocity":0.48031496062992124},{"duration":0.042856999999997925,"midi":48,"time":126.728149,"velocity":0.48031496062992124},{"duration":0.042856999999997925,"midi":60,"time":126.728149,"velocity":0.48031496062992124},{"duration":0.042856999999997925,"midi":60,"time":126.771006,"velocity":0.48031496062992124},{"duration":0.042856999999997925,"midi":60,"time":126.85672,"velocity":0.48031496062992124},{"duration":0.042856999999997925,"midi":48,"time":126.85672,"velocity":0.48031496062992124},{"duration":0.042856999999997925,"midi":50,"time":126.85672,"velocity":0.48031496062992124},{"duration":0.042856999999997925,"midi":55,"time":126.85672,"velocity":0.48031496062992124},{"duration":0.042856999999997925,"midi":47,"time":126.85672,"velocity":0.48031496062992124},{"duration":0.042856999999997925,"midi":43,"time":126.85672,"velocity":0.48031496062992124},{"duration":0.042856999999997925,"midi":48,"time":126.899577,"velocity":0.48031496062992124},{"duration":0.042856999999997925,"midi":60,"time":126.899577,"velocity":0.48031496062992124},{"duration":0.042857000000012135,"midi":60,"time":126.94243399999999,"velocity":0.48031496062992124},{"duration":0.042856999999997925,"midi":60,"time":126.985291,"velocity":0.48031496062992124},{"duration":0.042856999999997925,"midi":60,"time":127.028148,"velocity":0.48031496062992124},{"duration":0.042856999999997925,"midi":60,"time":127.071005,"velocity":0.48031496062992124},{"duration":0.042857000000012135,"midi":62,"time":127.54243199999999,"velocity":0.48031496062992124},{"duration":0.042857000000012135,"midi":50,"time":127.54243199999999,"velocity":0.48031496062992124},{"duration":0.042856999999997925,"midi":62,"time":127.585289,"velocity":0.48031496062992124},{"duration":0.042856999999997925,"midi":50,"time":127.585289,"velocity":0.48031496062992124},{"duration":0.042856999999997925,"midi":62,"time":127.628146,"velocity":0.48031496062992124},{"duration":0.042856999999997925,"midi":62,"time":127.671003,"velocity":0.48031496062992124},{"duration":0.042856999999997925,"midi":62,"time":127.71386,"velocity":0.48031496062992124},{"duration":0.042856999999997925,"midi":62,"time":127.756717,"velocity":0.48031496062992124},{"duration":0.042856999999997925,"midi":75,"time":128.228144,"velocity":0.48031496062992124},{"duration":0.042856999999997925,"midi":63,"time":128.228144,"velocity":0.48031496062992124},{"duration":0.042856999999997925,"midi":48,"time":128.228144,"velocity":0.48031496062992124},{"duration":0.042857000000026346,"midi":63,"time":128.27100099999998,"velocity":0.48031496062992124},{"duration":0.042857000000026346,"midi":75,"time":128.27100099999998,"velocity":0.48031496062992124},{"duration":0.042856999999997925,"midi":75,"time":128.313858,"velocity":0.48031496062992124},{"duration":0.042856999999997925,"midi":60,"time":128.742428,"velocity":0.48031496062992124},{"duration":0.042856999999997925,"midi":72,"time":128.742428,"velocity":0.48031496062992124},{"duration":0.042856999999997925,"midi":60,"time":128.785285,"velocity":0.48031496062992124},{"duration":0.042856999999997925,"midi":72,"time":128.785285,"velocity":0.48031496062992124},{"duration":0.042857000000026346,"midi":72,"time":128.82814199999999,"velocity":0.48031496062992124},{"duration":0.042856999999997925,"midi":48,"time":128.913856,"velocity":0.48031496062992124},{"duration":0.042856999999997925,"midi":71,"time":128.913856,"velocity":0.48031496062992124},{"duration":0.042856999999997925,"midi":59,"time":128.913856,"velocity":0.48031496062992124},{"duration":0.042856999999997925,"midi":59,"time":128.956713,"velocity":0.48031496062992124},{"duration":0.042856999999997925,"midi":71,"time":128.956713,"velocity":0.48031496062992124},{"duration":0.042856999999997925,"midi":71,"time":128.99957,"velocity":0.48031496062992124},{"duration":0.042857000000026346,"midi":72,"time":129.42813999999998,"velocity":0.48031496062992124},{"duration":0.042857000000026346,"midi":60,"time":129.42813999999998,"velocity":0.48031496062992124},{"duration":0.042856999999997925,"midi":60,"time":129.470997,"velocity":0.48031496062992124},{"duration":0.042856999999997925,"midi":72,"time":129.470997,"velocity":0.48031496062992124},{"duration":0.042856999999997925,"midi":72,"time":129.513854,"velocity":0.48031496062992124},{"duration":0.042856999999997925,"midi":55,"time":129.599568,"velocity":0.48031496062992124},{"duration":0.042856999999997925,"midi":67,"time":129.599568,"velocity":0.48031496062992124},{"duration":0.042856999999997925,"midi":67,"time":129.642425,"velocity":0.48031496062992124},{"duration":0.042856999999997925,"midi":55,"time":129.642425,"velocity":0.48031496062992124},{"duration":0.042856999999997925,"midi":67,"time":129.685282,"velocity":0.48031496062992124},{"duration":0.042856999999997925,"midi":51,"time":129.770996,"velocity":0.48031496062992124},{"duration":0.042856999999997925,"midi":51,"time":129.942424,"velocity":0.48031496062992124},{"duration":0.042856999999997925,"midi":63,"time":130.28528,"velocity":0.48031496062992124},{"duration":0.042857000000026346,"midi":55,"time":130.62813599999998,"velocity":0.48031496062992124},{"duration":0.042857000000026346,"midi":67,"time":130.62813599999998,"velocity":0.48031496062992124},{"duration":0.042856999999997925,"midi":67,"time":130.670993,"velocity":0.48031496062992124},{"duration":0.042856999999997925,"midi":55,"time":130.670993,"velocity":0.48031496062992124},{"duration":0.042856999999997925,"midi":67,"time":130.71385,"velocity":0.48031496062992124},{"duration":0.042856999999997925,"midi":54,"time":130.970992,"velocity":0.48031496062992124},{"duration":0.042856999999997925,"midi":50,"time":130.970992,"velocity":0.48031496062992124},{"duration":0.042856999999997925,"midi":66,"time":130.970992,"velocity":0.48031496062992124},{"duration":0.042856999999997925,"midi":54,"time":131.013849,"velocity":0.48031496062992124},{"duration":0.042856999999997925,"midi":66,"time":131.013849,"velocity":0.48031496062992124},{"duration":0.042856999999997925,"midi":66,"time":131.056706,"velocity":0.48031496062992124},{"duration":0.042856999999997925,"midi":55,"time":131.485276,"velocity":0.48031496062992124},{"duration":0.042856999999997925,"midi":67,"time":131.485276,"velocity":0.48031496062992124},{"duration":0.042856999999997925,"midi":67,"time":131.528133,"velocity":0.48031496062992124},{"duration":0.042856999999997925,"midi":55,"time":131.528133,"velocity":0.48031496062992124},{"duration":0.042856999999997925,"midi":67,"time":131.57099,"velocity":0.48031496062992124},{"duration":0.042856999999997925,"midi":75,"time":131.656704,"velocity":0.48031496062992124},{"duration":0.042856999999997925,"midi":63,"time":131.656704,"velocity":0.48031496062992124},{"duration":0.042856999999997925,"midi":62,"time":131.656704,"velocity":0.48031496062992124},{"duration":0.042856999999997925,"midi":63,"time":131.699561,"velocity":0.48031496062992124},{"duration":0.042856999999997925,"midi":75,"time":131.699561,"velocity":0.48031496062992124},{"duration":0.042856999999997925,"midi":50,"time":131.742418,"velocity":0.48031496062992124},{"duration":0.042856999999997925,"midi":75,"time":131.742418,"velocity":0.48031496062992124},{"duration":0.042856999999997925,"midi":62,"time":131.828132,"velocity":0.48031496062992124},{"duration":0.042856999999997925,"midi":50,"time":131.913846,"velocity":0.48031496062992124},{"duration":0.042856999999997925,"midi":62,"time":131.99956,"velocity":0.48031496062992124},{"duration":0.042856999999997925,"midi":50,"time":132.085274,"velocity":0.48031496062992124},{"duration":0.042856999999997925,"midi":74,"time":132.170988,"velocity":0.48031496062992124},{"duration":0.042856999999997925,"midi":62,"time":132.170988,"velocity":0.48031496062992124},{"duration":0.042856999999997925,"midi":62,"time":132.170988,"velocity":0.48031496062992124},{"duration":0.042856999999997925,"midi":62,"time":132.213845,"velocity":0.48031496062992124},{"duration":0.042856999999997925,"midi":74,"time":132.213845,"velocity":0.48031496062992124},{"duration":0.042856999999997925,"midi":74,"time":132.256702,"velocity":0.48031496062992124},{"duration":0.042856999999997925,"midi":50,"time":132.256702,"velocity":0.48031496062992124},{"duration":0.042856999999997925,"midi":60,"time":132.342416,"velocity":0.48031496062992124},{"duration":0.042856999999997925,"midi":72,"time":132.342416,"velocity":0.48031496062992124},{"duration":0.042856999999997925,"midi":50,"time":132.342416,"velocity":0.48031496062992124},{"duration":0.042857000000026346,"midi":60,"time":132.38527299999998,"velocity":0.48031496062992124},{"duration":0.042857000000026346,"midi":72,"time":132.38527299999998,"velocity":0.48031496062992124},{"duration":0.042856999999997925,"midi":72,"time":132.42813,"velocity":0.48031496062992124},{"duration":0.042856999999997925,"midi":43,"time":132.513844,"velocity":0.48031496062992124},{"duration":0.042856999999997925,"midi":43,"time":132.685272,"velocity":0.48031496062992124},{"duration":0.042856999999997925,"midi":55,"time":133.028128,"velocity":0.48031496062992124},{"duration":0.042856999999997925,"midi":59,"time":133.028128,"velocity":0.48031496062992124},{"duration":0.042856999999997925,"midi":71,"time":133.028128,"velocity":0.48031496062992124},{"duration":0.042856999999997925,"midi":59,"time":133.070985,"velocity":0.48031496062992124},{"duration":0.042856999999997925,"midi":71,"time":133.070985,"velocity":0.48031496062992124},{"duration":0.042856999999997925,"midi":71,"time":133.113842,"velocity":0.48031496062992124},{"duration":0.042856999999997925,"midi":43,"time":133.199556,"velocity":0.48031496062992124},{"duration":0.042856999999997925,"midi":43,"time":133.370984,"velocity":0.48031496062992124},{"duration":0.042856999999997925,"midi":48,"time":133.71384,"velocity":0.48031496062992124},{"duration":0.042856999999997925,"midi":75,"time":133.71384,"velocity":0.48031496062992124},{"duration":0.042856999999997925,"midi":63,"time":133.71384,"velocity":0.48031496062992124},{"duration":0.042856999999997925,"midi":75,"time":133.756697,"velocity":0.48031496062992124},{"duration":0.042856999999997925,"midi":63,"time":133.756697,"velocity":0.48031496062992124},{"duration":0.042856999999997925,"midi":75,"time":133.799554,"velocity":0.48031496062992124},{"duration":0.042856999999997925,"midi":72,"time":134.228124,"velocity":0.48031496062992124},{"duration":0.042856999999997925,"midi":60,"time":134.228124,"velocity":0.48031496062992124},{"duration":0.042856999999997925,"midi":60,"time":134.270981,"velocity":0.48031496062992124},{"duration":0.042856999999997925,"midi":72,"time":134.270981,"velocity":0.48031496062992124},{"duration":0.042856999999997925,"midi":72,"time":134.313838,"velocity":0.48031496062992124},{"duration":0.042856999999997925,"midi":59,"time":134.399552,"velocity":0.48031496062992124},{"duration":0.042856999999997925,"midi":48,"time":134.399552,"velocity":0.48031496062992124},{"duration":0.042856999999997925,"midi":71,"time":134.399552,"velocity":0.48031496062992124},{"duration":0.042856999999997925,"midi":59,"time":134.442409,"velocity":0.48031496062992124},{"duration":0.042856999999997925,"midi":71,"time":134.442409,"velocity":0.48031496062992124},{"duration":0.042856999999997925,"midi":71,"time":134.485266,"velocity":0.48031496062992124},{"duration":0.042856999999997925,"midi":72,"time":134.913836,"velocity":0.48031496062992124},{"duration":0.042856999999997925,"midi":60,"time":134.913836,"velocity":0.48031496062992124},{"duration":0.042856999999997925,"midi":60,"time":134.956693,"velocity":0.48031496062992124},{"duration":0.042856999999997925,"midi":72,"time":134.956693,"velocity":0.48031496062992124},{"duration":0.042856999999997925,"midi":72,"time":134.99955,"velocity":0.48031496062992124},{"duration":0.042856999999997925,"midi":67,"time":135.085264,"velocity":0.48031496062992124},{"duration":0.042856999999997925,"midi":55,"time":135.085264,"velocity":0.48031496062992124},{"duration":0.042856999999997925,"midi":55,"time":135.128121,"velocity":0.48031496062992124},{"duration":0.042856999999997925,"midi":67,"time":135.128121,"velocity":0.48031496062992124},{"duration":0.042856999999997925,"midi":67,"time":135.170978,"velocity":0.48031496062992124},{"duration":0.042856999999997925,"midi":51,"time":135.256692,"velocity":0.48031496062992124},{"duration":0.042856999999997925,"midi":51,"time":135.42812,"velocity":0.48031496062992124},{"duration":0.042856999999997925,"midi":63,"time":135.770976,"velocity":0.48031496062992124},{"duration":0.042856999999997925,"midi":79,"time":136.113832,"velocity":0.48031496062992124},{"duration":0.042856999999997925,"midi":67,"time":136.113832,"velocity":0.48031496062992124},{"duration":0.042856999999997925,"midi":79,"time":136.156689,"velocity":0.48031496062992124},{"duration":0.042856999999997925,"midi":67,"time":136.156689,"velocity":0.48031496062992124},{"duration":0.042856999999997925,"midi":79,"time":136.199546,"velocity":0.48031496062992124},{"duration":0.042856999999997925,"midi":66,"time":136.45668799999999,"velocity":0.48031496062992124},{"duration":0.042856999999997925,"midi":78,"time":136.45668799999999,"velocity":0.48031496062992124},{"duration":0.042856999999997925,"midi":44,"time":136.45668799999999,"velocity":0.48031496062992124},{"duration":0.042856999999997925,"midi":56,"time":136.45668799999999,"velocity":0.48031496062992124},{"duration":0.042857000000026346,"midi":66,"time":136.49954499999998,"velocity":0.48031496062992124},{"duration":0.042857000000026346,"midi":78,"time":136.49954499999998,"velocity":0.48031496062992124},{"duration":0.042856999999997925,"midi":78,"time":136.542402,"velocity":0.48031496062992124},{"duration":0.042856999999997925,"midi":63,"time":136.970972,"velocity":0.48031496062992124},{"duration":0.042856999999997925,"midi":75,"time":136.970972,"velocity":0.48031496062992124},{"duration":0.042856999999997925,"midi":75,"time":137.013829,"velocity":0.48031496062992124},{"duration":0.042856999999997925,"midi":63,"time":137.013829,"velocity":0.48031496062992124},{"duration":0.042857000000026346,"midi":75,"time":137.05668599999998,"velocity":0.48031496062992124},{"duration":0.042856999999997925,"midi":56,"time":137.1424,"velocity":0.48031496062992124},{"duration":0.042856999999997925,"midi":74,"time":137.1424,"velocity":0.48031496062992124},{"duration":0.042856999999997925,"midi":62,"time":137.1424,"velocity":0.48031496062992124},{"duration":0.042856999999997925,"midi":62,"time":137.185257,"velocity":0.48031496062992124},{"duration":0.042856999999997925,"midi":74,"time":137.185257,"velocity":0.48031496062992124},{"duration":0.042856999999997925,"midi":74,"time":137.228114,"velocity":0.48031496062992124},{"duration":0.042856999999997925,"midi":44,"time":137.228114,"velocity":0.48031496062992124},{"duration":0.042856999999997925,"midi":56,"time":137.313828,"velocity":0.48031496062992124},{"duration":0.042856999999997925,"midi":44,"time":137.399542,"velocity":0.48031496062992124},{"duration":0.042856999999997925,"midi":56,"time":137.485256,"velocity":0.48031496062992124},{"duration":0.042856999999997925,"midi":44,"time":137.57097,"velocity":0.48031496062992124},{"duration":0.042857000000026346,"midi":60,"time":137.65668399999998,"velocity":0.48031496062992124},{"duration":0.042857000000026346,"midi":56,"time":137.65668399999998,"velocity":0.48031496062992124},{"duration":0.042857000000026346,"midi":72,"time":137.65668399999998,"velocity":0.48031496062992124},{"duration":0.042856999999997925,"midi":60,"time":137.699541,"velocity":0.48031496062992124},{"duration":0.042856999999997925,"midi":72,"time":137.699541,"velocity":0.48031496062992124},{"duration":0.042856999999997925,"midi":72,"time":137.742398,"velocity":0.48031496062992124},{"duration":0.042856999999997925,"midi":44,"time":137.742398,"velocity":0.48031496062992124},{"duration":0.042856999999997925,"midi":60,"time":137.828112,"velocity":0.48031496062992124},{"duration":0.042856999999997925,"midi":47,"time":137.828112,"velocity":0.48031496062992124},{"duration":0.042856999999997925,"midi":50,"time":137.828112,"velocity":0.48031496062992124},{"duration":0.042856999999997925,"midi":55,"time":137.828112,"velocity":0.48031496062992124},{"duration":0.042856999999997925,"midi":72,"time":137.828112,"velocity":0.48031496062992124},{"duration":0.042856999999997925,"midi":43,"time":137.828112,"velocity":0.48031496062992124},{"duration":0.042856999999997925,"midi":72,"time":137.870969,"velocity":0.48031496062992124},{"duration":0.042856999999997925,"midi":60,"time":137.870969,"velocity":0.48031496062992124},{"duration":0.042856999999997925,"midi":72,"time":137.913826,"velocity":0.48031496062992124},{"duration":0.042856999999997925,"midi":72,"time":137.956683,"velocity":0.48031496062992124},{"duration":0.042856999999997925,"midi":72,"time":137.99954,"velocity":0.48031496062992124},{"duration":0.042856999999997925,"midi":74,"time":138.513824,"velocity":0.48031496062992124},{"duration":0.042856999999997925,"midi":62,"time":138.513824,"velocity":0.48031496062992124},{"duration":0.042856999999997925,"midi":74,"time":138.556681,"velocity":0.48031496062992124},{"duration":0.042856999999997925,"midi":62,"time":138.556681,"velocity":0.48031496062992124},{"duration":0.042856999999997925,"midi":74,"time":138.599538,"velocity":0.48031496062992124},{"duration":0.042856999999997925,"midi":74,"time":138.642395,"velocity":0.48031496062992124},{"duration":0.042856999999997925,"midi":74,"time":138.685252,"velocity":0.48031496062992124},{"duration":0.042856999999997925,"midi":55,"time":139.199536,"velocity":0.48031496062992124},{"duration":0.042856999999997925,"midi":67,"time":139.199536,"velocity":0.48031496062992124},{"duration":0.042856999999997925,"midi":67,"time":139.242393,"velocity":0.48031496062992124},{"duration":0.042856999999997925,"midi":68,"time":139.28525,"velocity":0.48031496062992124},{"duration":0.042856999999997925,"midi":56,"time":139.28525,"velocity":0.48031496062992124},{"duration":0.042856999999997925,"midi":68,"time":139.328107,"velocity":0.48031496062992124},{"duration":0.042856999999997925,"midi":55,"time":139.370964,"velocity":0.48031496062992124},{"duration":0.042856999999997925,"midi":67,"time":139.370964,"velocity":0.48031496062992124},{"duration":0.042857000000026346,"midi":67,"time":139.41382099999998,"velocity":0.48031496062992124},{"duration":0.042856999999997925,"midi":66,"time":139.456678,"velocity":0.48031496062992124},{"duration":0.042856999999997925,"midi":54,"time":139.456678,"velocity":0.48031496062992124},{"duration":0.042856999999997925,"midi":66,"time":139.499535,"velocity":0.48031496062992124},{"duration":0.042856999999997925,"midi":55,"time":139.542392,"velocity":0.48031496062992124},{"duration":0.042856999999997925,"midi":67,"time":139.542392,"velocity":0.48031496062992124},{"duration":0.042856999999997925,"midi":67,"time":139.585249,"velocity":0.48031496062992124},{"duration":0.042856999999997925,"midi":60,"time":139.71382,"velocity":0.48031496062992124},{"duration":0.042856999999997925,"midi":48,"time":139.71382,"velocity":0.48031496062992124},{"duration":0.042856999999997925,"midi":60,"time":139.756677,"velocity":0.48031496062992124},{"duration":0.042856999999997925,"midi":51,"time":139.885248,"velocity":0.48031496062992124},{"duration":0.042856999999997925,"midi":63,"time":139.885248,"velocity":0.48031496062992124},{"duration":0.042856999999997925,"midi":63,"time":139.928105,"velocity":0.48031496062992124},{"duration":0.042856999999997925,"midi":62,"time":140.228104,"velocity":0.48031496062992124},{"duration":0.042856999999997925,"midi":50,"time":140.228104,"velocity":0.48031496062992124},{"duration":0.042856999999997925,"midi":62,"time":140.270961,"velocity":0.48031496062992124},{"duration":0.042856999999997925,"midi":51,"time":140.313818,"velocity":0.48031496062992124},{"duration":0.042856999999997925,"midi":63,"time":140.313818,"velocity":0.48031496062992124},{"duration":0.042856999999997925,"midi":63,"time":140.356675,"velocity":0.48031496062992124},{"duration":0.042856999999997925,"midi":50,"time":140.399532,"velocity":0.48031496062992124},{"duration":0.042856999999997925,"midi":62,"time":140.399532,"velocity":0.48031496062992124},{"duration":0.042856999999997925,"midi":62,"time":140.442389,"velocity":0.48031496062992124},{"duration":0.042856999999997925,"midi":60,"time":140.485246,"velocity":0.48031496062992124},{"duration":0.042856999999997925,"midi":48,"time":140.485246,"velocity":0.48031496062992124},{"duration":0.042856999999997925,"midi":60,"time":140.528103,"velocity":0.48031496062992124},{"duration":0.042857000000026346,"midi":67,"time":140.57095999999999,"velocity":0.48031496062992124},{"duration":0.042857000000026346,"midi":55,"time":140.57095999999999,"velocity":0.48031496062992124},{"duration":0.042856999999997925,"midi":67,"time":140.613817,"velocity":0.48031496062992124},{"duration":0.042856999999997925,"midi":56,"time":140.656674,"velocity":0.48031496062992124},{"duration":0.042856999999997925,"midi":68,"time":140.656674,"velocity":0.48031496062992124},{"duration":0.042856999999997925,"midi":68,"time":140.699531,"velocity":0.48031496062992124},{"duration":0.042856999999997925,"midi":55,"time":140.742388,"velocity":0.48031496062992124},{"duration":0.042856999999997925,"midi":67,"time":140.742388,"velocity":0.48031496062992124},{"duration":0.042856999999997925,"midi":67,"time":140.785245,"velocity":0.48031496062992124},{"duration":0.042856999999997925,"midi":54,"time":140.828102,"velocity":0.48031496062992124},{"duration":0.042856999999997925,"midi":66,"time":140.828102,"velocity":0.48031496062992124},{"duration":0.042856999999997925,"midi":66,"time":140.870959,"velocity":0.48031496062992124},{"duration":0.042856999999997925,"midi":55,"time":140.913816,"velocity":0.48031496062992124},{"duration":0.042856999999997925,"midi":67,"time":140.913816,"velocity":0.48031496062992124},{"duration":0.042856999999997925,"midi":67,"time":140.956673,"velocity":0.48031496062992124},{"duration":0.042856999999997925,"midi":48,"time":141.085244,"velocity":0.48031496062992124},{"duration":0.042856999999997925,"midi":60,"time":141.085244,"velocity":0.48031496062992124},{"duration":0.042856999999997925,"midi":60,"time":141.128101,"velocity":0.48031496062992124},{"duration":0.042856999999997925,"midi":63,"time":141.256672,"velocity":0.48031496062992124},{"duration":0.042856999999997925,"midi":51,"time":141.256672,"velocity":0.48031496062992124},{"duration":0.042856999999997925,"midi":63,"time":141.299529,"velocity":0.48031496062992124},{"duration":0.042856999999997925,"midi":62,"time":141.599528,"velocity":0.48031496062992124},{"duration":0.042856999999997925,"midi":50,"time":141.599528,"velocity":0.48031496062992124},{"duration":0.042856999999997925,"midi":62,"time":141.642385,"velocity":0.48031496062992124},{"duration":0.042856999999997925,"midi":63,"time":141.685242,"velocity":0.48031496062992124},{"duration":0.042856999999997925,"midi":51,"time":141.685242,"velocity":0.48031496062992124},{"duration":0.042856999999997925,"midi":63,"time":141.728099,"velocity":0.48031496062992124},{"duration":0.042857000000026346,"midi":62,"time":141.77095599999998,"velocity":0.48031496062992124},{"duration":0.042857000000026346,"midi":50,"time":141.77095599999998,"velocity":0.48031496062992124},{"duration":0.042856999999997925,"midi":62,"time":141.813813,"velocity":0.48031496062992124},{"duration":0.042856999999997925,"midi":48,"time":141.85667,"velocity":0.48031496062992124},{"duration":0.042856999999997925,"midi":60,"time":141.85667,"velocity":0.48031496062992124},{"duration":0.042856999999997925,"midi":60,"time":141.899527,"velocity":0.48031496062992124},{"duration":0.042856999999997925,"midi":67,"time":141.942384,"velocity":0.48031496062992124},{"duration":0.042856999999997925,"midi":55,"time":141.942384,"velocity":0.48031496062992124},{"duration":0.042856999999997925,"midi":67,"time":141.985241,"velocity":0.48031496062992124},{"duration":0.042856999999997925,"midi":68,"time":142.028098,"velocity":0.48031496062992124},{"duration":0.042856999999997925,"midi":56,"time":142.028098,"velocity":0.48031496062992124},{"duration":0.042856999999997925,"midi":68,"time":142.070955,"velocity":0.48031496062992124},{"duration":0.042856999999997925,"midi":67,"time":142.113812,"velocity":0.48031496062992124},{"duration":0.042856999999997925,"midi":55,"time":142.113812,"velocity":0.48031496062992124},{"duration":0.042856999999997925,"midi":67,"time":142.156669,"velocity":0.48031496062992124},{"duration":0.042856999999997925,"midi":54,"time":142.199526,"velocity":0.48031496062992124},{"duration":0.042856999999997925,"midi":66,"time":142.199526,"velocity":0.48031496062992124},{"duration":0.042856999999997925,"midi":66,"time":142.242383,"velocity":0.48031496062992124},{"duration":0.042856999999997925,"midi":67,"time":142.28524,"velocity":0.48031496062992124},{"duration":0.042856999999997925,"midi":55,"time":142.28524,"velocity":0.48031496062992124},{"duration":0.042856999999997925,"midi":67,"time":142.32809699999999,"velocity":0.48031496062992124},{"duration":0.042856999999997925,"midi":48,"time":142.456668,"velocity":0.48031496062992124},{"duration":0.042856999999997925,"midi":60,"time":142.456668,"velocity":0.48031496062992124},{"duration":0.042856999999997925,"midi":60,"time":142.499525,"velocity":0.48031496062992124},{"duration":0.042856999999997925,"midi":63,"time":142.628096,"velocity":0.48031496062992124},{"duration":0.042856999999997925,"midi":51,"time":142.628096,"velocity":0.48031496062992124},{"duration":0.042856999999997925,"midi":63,"time":142.670953,"velocity":0.48031496062992124},{"duration":0.042856999999997925,"midi":67,"time":142.970952,"velocity":0.48031496062992124},{"duration":0.042856999999997925,"midi":55,"time":142.970952,"velocity":0.48031496062992124},{"duration":0.042856999999997925,"midi":67,"time":143.013809,"velocity":0.48031496062992124},{"duration":0.042856999999997925,"midi":53,"time":143.056666,"velocity":0.48031496062992124},{"duration":0.042856999999997925,"midi":65,"time":143.056666,"velocity":0.48031496062992124},{"duration":0.042856999999997925,"midi":65,"time":143.099523,"velocity":0.48031496062992124},{"duration":0.042856999999997925,"midi":63,"time":143.14238,"velocity":0.48031496062992124},{"duration":0.042856999999997925,"midi":51,"time":143.14238,"velocity":0.48031496062992124},{"duration":0.042856999999997925,"midi":63,"time":143.185237,"velocity":0.48031496062992124},{"duration":0.042856999999997925,"midi":50,"time":143.228094,"velocity":0.48031496062992124},{"duration":0.042856999999997925,"midi":62,"time":143.228094,"velocity":0.48031496062992124},{"duration":0.042856999999997925,"midi":62,"time":143.270951,"velocity":0.48031496062992124},{"duration":0.042856999999997925,"midi":60,"time":143.313808,"velocity":0.48031496062992124},{"duration":0.042856999999997925,"midi":48,"time":143.313808,"velocity":0.48031496062992124},{"duration":0.042856999999997925,"midi":60,"time":143.356665,"velocity":0.48031496062992124},{"duration":0.042856999999997925,"midi":62,"time":143.399522,"velocity":0.48031496062992124},{"duration":0.042856999999997925,"midi":50,"time":143.399522,"velocity":0.48031496062992124},{"duration":0.042856999999997925,"midi":62,"time":143.442379,"velocity":0.48031496062992124},{"duration":0.042856999999997925,"midi":60,"time":143.485236,"velocity":0.48031496062992124},{"duration":0.042856999999997925,"midi":48,"time":143.485236,"velocity":0.48031496062992124},{"duration":0.042857000000026346,"midi":60,"time":143.52809299999998,"velocity":0.48031496062992124},{"duration":0.042856999999997925,"midi":47,"time":143.57095,"velocity":0.48031496062992124},{"duration":0.042856999999997925,"midi":59,"time":143.57095,"velocity":0.48031496062992124},{"duration":0.042856999999997925,"midi":59,"time":143.613807,"velocity":0.48031496062992124},{"duration":0.042856999999997925,"midi":60,"time":143.656664,"velocity":0.48031496062992124},{"duration":0.042856999999997925,"midi":48,"time":143.656664,"velocity":0.48031496062992124},{"duration":0.042856999999997925,"midi":60,"time":143.699521,"velocity":0.48031496062992124},{"duration":0.042856999999997925,"midi":62,"time":143.742378,"velocity":0.48031496062992124},{"duration":0.042856999999997925,"midi":50,"time":143.742378,"velocity":0.48031496062992124},{"duration":0.042856999999997925,"midi":62,"time":143.785235,"velocity":0.48031496062992124},{"duration":0.042856999999997925,"midi":63,"time":143.828092,"velocity":0.48031496062992124},{"duration":0.042856999999997925,"midi":51,"time":143.828092,"velocity":0.48031496062992124},{"duration":0.042856999999997925,"midi":63,"time":143.870949,"velocity":0.48031496062992124},{"duration":0.042856999999997925,"midi":55,"time":143.913806,"velocity":0.48031496062992124},{"duration":0.042856999999997925,"midi":67,"time":143.913806,"velocity":0.48031496062992124},{"duration":0.042856999999997925,"midi":67,"time":143.956663,"velocity":0.48031496062992124},{"duration":0.042856999999997925,"midi":60,"time":143.99952,"velocity":0.48031496062992124},{"duration":0.042856999999997925,"midi":72,"time":143.99952,"velocity":0.48031496062992124},{"duration":0.042856999999997925,"midi":72,"time":144.042377,"velocity":0.48031496062992124}]},{"instrument":{"family":"strings","number":40,"name":"violin"},"notes":[{"duration":0.042857000000000145,"midi":60,"time":2.057136,"velocity":0.4251968503937008},{"duration":0.042857000000000145,"midi":63,"time":2.057136,"velocity":0.4251968503937008},{"duration":0.042857000000000145,"midi":67,"time":2.057136,"velocity":0.4251968503937008},{"duration":0.042857000000000145,"midi":68,"time":2.742848,"velocity":0.4251968503937008},{"duration":0.042857000000000145,"midi":60,"time":2.742848,"velocity":0.4251968503937008},{"duration":0.042857000000000145,"midi":65,"time":2.742848,"velocity":0.4251968503937008},{"duration":0.0428569999999997,"midi":67,"time":3.42856,"velocity":0.4251968503937008},{"duration":0.0428569999999997,"midi":62,"time":3.42856,"velocity":0.4251968503937008},{"duration":0.0428569999999997,"midi":59,"time":3.42856,"velocity":0.4251968503937008},{"duration":0.0428569999999997,"midi":64,"time":4.799984,"velocity":0.4251968503937008},{"duration":0.0428569999999997,"midi":67,"time":4.799984,"velocity":0.4251968503937008},{"duration":0.0428569999999997,"midi":60,"time":4.799984,"velocity":0.4251968503937008},{"duration":0.0428569999999997,"midi":64,"time":5.485696,"velocity":0.4251968503937008},{"duration":0.0428569999999997,"midi":67,"time":5.485696,"velocity":0.4251968503937008},{"duration":0.0428569999999997,"midi":70,"time":5.485696,"velocity":0.4251968503937008},{"duration":0.04285700000000059,"midi":68,"time":6.171408,"velocity":0.4251968503937008},{"duration":0.04285700000000059,"midi":72,"time":6.171408,"velocity":0.4251968503937008},{"duration":0.04285700000000059,"midi":65,"time":6.171408,"velocity":0.4251968503937008},{"duration":0.0428569999999997,"midi":65,"time":7.542832,"velocity":0.4251968503937008},{"duration":0.0428569999999997,"midi":68,"time":7.542832,"velocity":0.4251968503937008},{"duration":0.0428569999999997,"midi":62,"time":7.542832,"velocity":0.4251968503937008},{"duration":0.0428569999999997,"midi":67,"time":8.228544,"velocity":0.4251968503937008},{"duration":0.0428569999999997,"midi":62,"time":8.228544,"velocity":0.4251968503937008},{"duration":0.0428569999999997,"midi":59,"time":8.228544,"velocity":0.4251968503937008},{"duration":0.0428569999999997,"midi":67,"time":8.914256,"velocity":0.4251968503937008},{"duration":0.0428569999999997,"midi":63,"time":8.914256,"velocity":0.4251968503937008},{"duration":0.0428569999999997,"midi":60,"time":8.914256,"velocity":0.4251968503937008},{"duration":0.0428569999999997,"midi":58,"time":9.257112,"velocity":0.4251968503937008},{"duration":0.0428569999999997,"midi":65,"time":9.257112,"velocity":0.4251968503937008},{"duration":0.0428569999999997,"midi":62,"time":9.257112,"velocity":0.4251968503937008},{"duration":0.0428569999999997,"midi":60,"time":9.599968,"velocity":0.4251968503937008},{"duration":0.0428569999999997,"midi":57,"time":9.599968,"velocity":0.4251968503937008},{"duration":0.0428569999999997,"midi":63,"time":9.599968,"velocity":0.4251968503937008},{"duration":0.0428569999999997,"midi":68,"time":10.28568,"velocity":0.4251968503937008},{"duration":0.0428569999999997,"midi":62,"time":10.28568,"velocity":0.4251968503937008},{"duration":0.0428569999999997,"midi":65,"time":10.28568,"velocity":0.4251968503937008},{"duration":0.0428569999999997,"midi":63,"time":10.971392,"velocity":0.4251968503937008},{"duration":0.0428569999999997,"midi":60,"time":10.971392,"velocity":0.4251968503937008},{"duration":0.0428569999999997,"midi":56,"time":10.971392,"velocity":0.4251968503937008},{"duration":0.0428569999999997,"midi":62,"time":11.99996,"velocity":0.4251968503937008},{"duration":0.0428569999999997,"midi":59,"time":11.99996,"velocity":0.4251968503937008},{"duration":0.0428569999999997,"midi":55,"time":11.99996,"velocity":0.4251968503937008},{"duration":0.0428569999999997,"midi":63,"time":13.028528,"velocity":0.4251968503937008},{"duration":0.0428569999999997,"midi":67,"time":13.028528,"velocity":0.4251968503937008},{"duration":0.0428569999999997,"midi":60,"time":13.028528,"velocity":0.4251968503937008},{"duration":0.0428569999999997,"midi":60,"time":13.71424,"velocity":0.4251968503937008},{"duration":0.0428569999999997,"midi":65,"time":13.71424,"velocity":0.4251968503937008},{"duration":0.0428569999999997,"midi":68,"time":13.71424,"velocity":0.4251968503937008},{"duration":0.04285700000000148,"midi":62,"time":14.399951999999999,"velocity":0.4251968503937008},{"duration":0.04285700000000148,"midi":59,"time":14.399951999999999,"velocity":0.4251968503937008},{"duration":0.04285700000000148,"midi":67,"time":14.399951999999999,"velocity":0.4251968503937008},{"duration":0.0428569999999997,"midi":67,"time":15.771376,"velocity":0.4251968503937008},{"duration":0.0428569999999997,"midi":60,"time":15.771376,"velocity":0.4251968503937008},{"duration":0.0428569999999997,"midi":64,"time":15.771376,"velocity":0.4251968503937008},{"duration":0.04285700000000148,"midi":70,"time":16.457088,"velocity":0.4251968503937008},{"duration":0.04285700000000148,"midi":67,"time":16.457088,"velocity":0.4251968503937008},{"duration":0.04285700000000148,"midi":64,"time":16.457088,"velocity":0.4251968503937008},{"duration":0.042856999999997925,"midi":68,"time":17.1428,"velocity":0.4251968503937008},{"duration":0.042856999999997925,"midi":65,"time":17.1428,"velocity":0.4251968503937008},{"duration":0.042856999999997925,"midi":72,"time":17.1428,"velocity":0.4251968503937008},{"duration":0.04285700000000148,"midi":62,"time":18.514224,"velocity":0.4251968503937008},{"duration":0.04285700000000148,"midi":65,"time":18.514224,"velocity":0.4251968503937008},{"duration":0.04285700000000148,"midi":68,"time":18.514224,"velocity":0.4251968503937008},{"duration":0.042856999999997925,"midi":67,"time":19.199936,"velocity":0.4251968503937008},{"duration":0.042856999999997925,"midi":62,"time":19.199936,"velocity":0.4251968503937008},{"duration":0.042856999999997925,"midi":59,"time":19.199936,"velocity":0.4251968503937008},{"duration":0.04285700000000148,"midi":60,"time":19.885648,"velocity":0.4251968503937008},{"duration":0.04285700000000148,"midi":67,"time":19.885648,"velocity":0.4251968503937008},{"duration":0.04285700000000148,"midi":63,"time":19.885648,"velocity":0.4251968503937008},{"duration":0.042856999999997925,"midi":65,"time":20.228504,"velocity":0.4251968503937008},{"duration":0.042856999999997925,"midi":58,"time":20.228504,"velocity":0.4251968503937008},{"duration":0.042856999999997925,"midi":62,"time":20.228504,"velocity":0.4251968503937008},{"duration":0.04285700000000148,"midi":60,"time":20.57136,"velocity":0.4251968503937008},{"duration":0.04285700000000148,"midi":57,"time":20.57136,"velocity":0.4251968503937008},{"duration":0.04285700000000148,"midi":63,"time":20.57136,"velocity":0.4251968503937008},{"duration":0.042856999999997925,"midi":56,"time":21.257072,"velocity":0.4251968503937008},{"duration":0.042856999999997925,"midi":60,"time":21.257072,"velocity":0.4251968503937008},{"duration":0.042856999999997925,"midi":65,"time":21.257072,"velocity":0.4251968503937008},{"duration":0.04285700000000148,"midi":62,"time":21.942784,"velocity":0.4251968503937008},{"duration":0.04285700000000148,"midi":67,"time":21.942784,"velocity":0.4251968503937008},{"duration":0.04285700000000148,"midi":59,"time":21.942784,"velocity":0.4251968503937008},{"duration":0.04285700000000148,"midi":55,"time":21.942784,"velocity":0.4251968503937008},{"duration":0.04285700000000148,"midi":60,"time":22.628496,"velocity":0.4251968503937008},{"duration":0.04285700000000148,"midi":67,"time":22.628496,"velocity":0.4251968503937008},{"duration":0.04285700000000148,"midi":63,"time":22.628496,"velocity":0.4251968503937008},{"duration":0.04285700000000148,"midi":72,"time":22.628496,"velocity":0.4251968503937008},{"duration":0.042856999999997925,"midi":79,"time":24.342776,"velocity":0.4251968503937008},{"duration":0.042856999999997925,"midi":75,"time":24.342776,"velocity":0.4251968503937008},{"duration":0.042856999999997925,"midi":79,"time":24.342776,"velocity":0.4251968503937008},{"duration":0.042856999999997925,"midi":75,"time":24.342776,"velocity":0.4251968503937008},{"duration":0.042856999999997925,"midi":72,"time":24.342776,"velocity":0.4251968503937008},{"duration":0.042856999999997925,"midi":72,"time":24.342776,"velocity":0.4251968503937008},{"duration":0.04285700000000148,"midi":80,"time":24.685632,"velocity":0.4251968503937008},{"duration":0.04285700000000148,"midi":77,"time":24.685632,"velocity":0.4251968503937008},{"duration":0.04285700000000148,"midi":80,"time":24.685632,"velocity":0.4251968503937008},{"duration":0.04285700000000148,"midi":72,"time":24.685632,"velocity":0.4251968503937008},{"duration":0.04285700000000148,"midi":77,"time":24.685632,"velocity":0.4251968503937008},{"duration":0.04285700000000148,"midi":72,"time":24.685632,"velocity":0.4251968503937008},{"duration":0.04285700000000148,"midi":77,"time":25.028488,"velocity":0.4251968503937008},{"duration":0.04285700000000148,"midi":77,"time":25.028488,"velocity":0.4251968503937008},{"duration":0.04285700000000148,"midi":72,"time":25.028488,"velocity":0.4251968503937008},{"duration":0.04285700000000148,"midi":72,"time":25.028488,"velocity":0.4251968503937008},{"duration":0.042856999999997925,"midi":74,"time":25.371344,"velocity":0.4251968503937008},{"duration":0.042856999999997925,"midi":71,"time":25.371344,"velocity":0.4251968503937008},{"duration":0.042856999999997925,"midi":79,"time":25.371344,"velocity":0.4251968503937008},{"duration":0.042856999999997925,"midi":71,"time":25.371344,"velocity":0.4251968503937008},{"duration":0.042856999999997925,"midi":79,"time":25.371344,"velocity":0.4251968503937008},{"duration":0.042856999999997925,"midi":74,"time":25.371344,"velocity":0.4251968503937008},{"duration":0.04285700000000148,"midi":72,"time":27.085624,"velocity":0.4251968503937008},{"duration":0.04285700000000148,"midi":76,"time":27.085624,"velocity":0.4251968503937008},{"duration":0.04285700000000148,"midi":79,"time":27.085624,"velocity":0.4251968503937008},{"duration":0.04285700000000148,"midi":72,"time":27.085624,"velocity":0.4251968503937008},{"duration":0.04285700000000148,"midi":76,"time":27.085624,"velocity":0.4251968503937008},{"duration":0.04285700000000148,"midi":79,"time":27.085624,"velocity":0.4251968503937008},{"duration":0.042856999999997925,"midi":72,"time":27.42848,"velocity":0.4251968503937008},{"duration":0.042856999999997925,"midi":79,"time":27.42848,"velocity":0.4251968503937008},{"duration":0.042856999999997925,"midi":72,"time":27.42848,"velocity":0.4251968503937008},{"duration":0.042856999999997925,"midi":82,"time":27.42848,"velocity":0.4251968503937008},{"duration":0.042856999999997925,"midi":79,"time":27.42848,"velocity":0.4251968503937008},{"duration":0.042856999999997925,"midi":82,"time":27.42848,"velocity":0.4251968503937008},{"duration":0.042856999999997925,"midi":72,"time":27.942764,"velocity":0.4251968503937008},{"duration":0.042856999999997925,"midi":79,"time":27.942764,"velocity":0.4251968503937008},{"duration":0.042856999999997925,"midi":79,"time":27.942764,"velocity":0.4251968503937008},{"duration":0.042856999999997925,"midi":76,"time":27.942764,"velocity":0.4251968503937008},{"duration":0.042856999999997925,"midi":72,"time":27.942764,"velocity":0.4251968503937008},{"duration":0.042856999999997925,"midi":76,"time":27.942764,"velocity":0.4251968503937008},{"duration":0.04285700000000148,"midi":72,"time":28.114192,"velocity":0.4251968503937008},{"duration":0.04285700000000148,"midi":77,"time":28.114192,"velocity":0.4251968503937008},{"duration":0.04285700000000148,"midi":72,"time":28.114192,"velocity":0.4251968503937008},{"duration":0.04285700000000148,"midi":80,"time":28.114192,"velocity":0.4251968503937008},{"duration":0.04285700000000148,"midi":80,"time":28.114192,"velocity":0.4251968503937008},{"duration":0.04285700000000148,"midi":77,"time":28.114192,"velocity":0.4251968503937008},{"duration":0.04285700000000148,"midi":84,"time":29.828471999999998,"velocity":0.4251968503937008},{"duration":0.04285700000000148,"midi":84,"time":29.828471999999998,"velocity":0.4251968503937008},{"duration":0.04285700000000148,"midi":80,"time":29.828471999999998,"velocity":0.4251968503937008},{"duration":0.04285700000000148,"midi":80,"time":29.828471999999998,"velocity":0.4251968503937008},{"duration":0.04285700000000148,"midi":75,"time":29.828471999999998,"velocity":0.4251968503937008},{"duration":0.04285700000000148,"midi":75,"time":29.828471999999998,"velocity":0.4251968503937008},{"duration":0.04285700000000148,"midi":83,"time":30.171328,"velocity":0.4251968503937008},{"duration":0.04285700000000148,"midi":74,"time":30.171328,"velocity":0.4251968503937008},{"duration":0.04285700000000148,"midi":74,"time":30.171328,"velocity":0.4251968503937008},{"duration":0.04285700000000148,"midi":79,"time":30.171328,"velocity":0.4251968503937008},{"duration":0.04285700000000148,"midi":83,"time":30.171328,"velocity":0.4251968503937008},{"duration":0.04285700000000148,"midi":79,"time":30.171328,"velocity":0.4251968503937008},{"duration":0.042856999999997925,"midi":83,"time":30.514184,"velocity":0.4251968503937008},{"duration":0.042856999999997925,"midi":86,"time":30.514184,"velocity":0.4251968503937008},{"duration":0.042856999999997925,"midi":83,"time":30.514184,"velocity":0.4251968503937008},{"duration":0.042856999999997925,"midi":79,"time":30.514184,"velocity":0.4251968503937008},{"duration":0.042856999999997925,"midi":86,"time":30.514184,"velocity":0.4251968503937008},{"duration":0.042856999999997925,"midi":79,"time":30.514184,"velocity":0.4251968503937008},{"duration":0.04285700000000148,"midi":75,"time":30.857039999999998,"velocity":0.4251968503937008},{"duration":0.04285700000000148,"midi":84,"time":30.857039999999998,"velocity":0.4251968503937008},{"duration":0.04285700000000148,"midi":84,"time":30.857039999999998,"velocity":0.4251968503937008},{"duration":0.04285700000000148,"midi":79,"time":30.857039999999998,"velocity":0.4251968503937008},{"duration":0.04285700000000148,"midi":75,"time":30.857039999999998,"velocity":0.4251968503937008},{"duration":0.04285700000000148,"midi":79,"time":30.857039999999998,"velocity":0.4251968503937008},{"duration":0.04285700000000148,"midi":72,"time":31.371323999999998,"velocity":0.4251968503937008},{"duration":0.04285700000000148,"midi":75,"time":31.371323999999998,"velocity":0.4251968503937008},{"duration":0.04285700000000148,"midi":79,"time":31.371323999999998,"velocity":0.4251968503937008},{"duration":0.04285700000000148,"midi":79,"time":31.371323999999998,"velocity":0.4251968503937008},{"duration":0.04285700000000148,"midi":75,"time":31.371323999999998,"velocity":0.4251968503937008},{"duration":0.04285700000000148,"midi":72,"time":31.371323999999998,"velocity":0.4251968503937008},{"duration":0.042856999999997925,"midi":79,"time":31.542752,"velocity":0.4251968503937008},{"duration":0.042856999999997925,"midi":79,"time":31.542752,"velocity":0.4251968503937008},{"duration":0.042856999999997925,"midi":75,"time":31.542752,"velocity":0.4251968503937008},{"duration":0.042856999999997925,"midi":75,"time":31.542752,"velocity":0.4251968503937008},{"duration":0.042856999999997925,"midi":72,"time":31.542752,"velocity":0.4251968503937008},{"duration":0.042856999999997925,"midi":72,"time":31.542752,"velocity":0.4251968503937008},{"duration":0.042856999999997925,"midi":75,"time":32.57132,"velocity":0.4251968503937008},{"duration":0.042856999999997925,"midi":80,"time":32.57132,"velocity":0.4251968503937008},{"duration":0.042856999999997925,"midi":75,"time":32.57132,"velocity":0.4251968503937008},{"duration":0.042856999999997925,"midi":84,"time":32.57132,"velocity":0.4251968503937008},{"duration":0.042856999999997925,"midi":80,"time":32.57132,"velocity":0.4251968503937008},{"duration":0.042856999999997925,"midi":84,"time":32.57132,"velocity":0.4251968503937008},{"duration":0.04285700000000503,"midi":74,"time":32.914176,"velocity":0.4251968503937008},{"duration":0.04285700000000503,"midi":83,"time":32.914176,"velocity":0.4251968503937008},{"duration":0.04285700000000503,"midi":79,"time":32.914176,"velocity":0.4251968503937008},{"duration":0.04285700000000503,"midi":83,"time":32.914176,"velocity":0.4251968503937008},{"duration":0.04285700000000503,"midi":74,"time":32.914176,"velocity":0.4251968503937008},{"duration":0.04285700000000503,"midi":79,"time":32.914176,"velocity":0.4251968503937008},{"duration":0.042856999999997925,"midi":80,"time":33.257032,"velocity":0.4251968503937008},{"duration":0.042856999999997925,"midi":75,"time":33.257032,"velocity":0.4251968503937008},{"duration":0.042856999999997925,"midi":84,"time":33.257032,"velocity":0.4251968503937008},{"duration":0.042856999999997925,"midi":84,"time":33.257032,"velocity":0.4251968503937008},{"duration":0.042856999999997925,"midi":80,"time":33.257032,"velocity":0.4251968503937008},{"duration":0.042856999999997925,"midi":75,"time":33.257032,"velocity":0.4251968503937008},{"duration":0.042856999999997925,"midi":84,"time":33.599888,"velocity":0.4251968503937008},{"duration":0.042856999999997925,"midi":87,"time":33.599888,"velocity":0.4251968503937008},{"duration":0.042856999999997925,"midi":87,"time":33.599888,"velocity":0.4251968503937008},{"duration":0.042856999999997925,"midi":80,"time":33.599888,"velocity":0.4251968503937008},{"duration":0.042856999999997925,"midi":84,"time":33.599888,"velocity":0.4251968503937008},{"duration":0.042856999999997925,"midi":80,"time":33.599888,"velocity":0.4251968503937008},{"duration":0.04285700000000503,"midi":79,"time":34.114171999999996,"velocity":0.4251968503937008},{"duration":0.04285700000000503,"midi":83,"time":34.114171999999996,"velocity":0.4251968503937008},{"duration":0.04285700000000503,"midi":86,"time":34.114171999999996,"velocity":0.4251968503937008},{"duration":0.04285700000000503,"midi":83,"time":34.114171999999996,"velocity":0.4251968503937008},{"duration":0.04285700000000503,"midi":86,"time":34.114171999999996,"velocity":0.4251968503937008},{"duration":0.04285700000000503,"midi":79,"time":34.114171999999996,"velocity":0.4251968503937008},{"duration":0.042856999999997925,"midi":79,"time":34.2856,"velocity":0.4251968503937008},{"duration":0.042856999999997925,"midi":86,"time":34.2856,"velocity":0.4251968503937008},{"duration":0.042856999999997925,"midi":79,"time":34.2856,"velocity":0.4251968503937008},{"duration":0.042856999999997925,"midi":83,"time":34.2856,"velocity":0.4251968503937008},{"duration":0.042856999999997925,"midi":83,"time":34.2856,"velocity":0.4251968503937008},{"duration":0.042856999999997925,"midi":86,"time":34.2856,"velocity":0.4251968503937008},{"duration":0.042856999999997925,"midi":72,"time":35.314168,"velocity":0.4251968503937008},{"duration":0.042856999999997925,"midi":79,"time":35.314168,"velocity":0.4251968503937008},{"duration":0.042856999999997925,"midi":75,"time":35.314168,"velocity":0.4251968503937008},{"duration":0.042856999999997925,"midi":72,"time":35.314168,"velocity":0.4251968503937008},{"duration":0.042856999999997925,"midi":79,"time":35.314168,"velocity":0.4251968503937008},{"duration":0.042856999999997925,"midi":75,"time":35.314168,"velocity":0.4251968503937008},{"duration":0.042856999999997925,"midi":80,"time":35.657024,"velocity":0.4251968503937008},{"duration":0.042856999999997925,"midi":72,"time":35.657024,"velocity":0.4251968503937008},{"duration":0.042856999999997925,"midi":77,"time":35.657024,"velocity":0.4251968503937008},{"duration":0.042856999999997925,"midi":77,"time":35.657024,"velocity":0.4251968503937008},{"duration":0.042856999999997925,"midi":72,"time":35.657024,"velocity":0.4251968503937008},{"duration":0.042856999999997925,"midi":80,"time":35.657024,"velocity":0.4251968503937008},{"duration":0.04285700000000503,"midi":77,"time":35.99988,"velocity":0.4251968503937008},{"duration":0.04285700000000503,"midi":72,"time":35.99988,"velocity":0.4251968503937008},{"duration":0.04285700000000503,"midi":72,"time":35.99988,"velocity":0.4251968503937008},{"duration":0.04285700000000503,"midi":77,"time":35.99988,"velocity":0.4251968503937008},{"duration":0.042856999999997925,"midi":74,"time":36.342736,"velocity":0.4251968503937008},{"duration":0.042856999999997925,"midi":71,"time":36.342736,"velocity":0.4251968503937008},{"duration":0.042856999999997925,"midi":74,"time":36.342736,"velocity":0.4251968503937008},{"duration":0.042856999999997925,"midi":71,"time":36.342736,"velocity":0.4251968503937008},{"duration":0.042856999999997925,"midi":79,"time":36.342736,"velocity":0.4251968503937008},{"duration":0.042856999999997925,"midi":79,"time":36.342736,"velocity":0.4251968503937008},{"duration":0.04285700000000503,"midi":79,"time":38.057016,"velocity":0.4251968503937008},{"duration":0.04285700000000503,"midi":76,"time":38.057016,"velocity":0.4251968503937008},{"duration":0.04285700000000503,"midi":72,"time":38.057016,"velocity":0.4251968503937008},{"duration":0.04285700000000503,"midi":72,"time":38.057016,"velocity":0.4251968503937008},{"duration":0.04285700000000503,"midi":79,"time":38.057016,"velocity":0.4251968503937008},{"duration":0.04285700000000503,"midi":76,"time":38.057016,"velocity":0.4251968503937008},{"duration":0.042856999999997925,"midi":79,"time":38.399872,"velocity":0.4251968503937008},{"duration":0.042856999999997925,"midi":72,"time":38.399872,"velocity":0.4251968503937008},{"duration":0.042856999999997925,"midi":72,"time":38.399872,"velocity":0.4251968503937008},{"duration":0.042856999999997925,"midi":82,"time":38.399872,"velocity":0.4251968503937008},{"duration":0.042856999999997925,"midi":79,"time":38.399872,"velocity":0.4251968503937008},{"duration":0.042856999999997925,"midi":82,"time":38.399872,"velocity":0.4251968503937008},{"duration":0.042856999999997925,"midi":79,"time":38.914156,"velocity":0.4251968503937008},{"duration":0.042856999999997925,"midi":76,"time":38.914156,"velocity":0.4251968503937008},{"duration":0.042856999999997925,"midi":72,"time":38.914156,"velocity":0.4251968503937008},{"duration":0.042856999999997925,"midi":79,"time":38.914156,"velocity":0.4251968503937008},{"duration":0.042856999999997925,"midi":76,"time":38.914156,"velocity":0.4251968503937008},{"duration":0.042856999999997925,"midi":72,"time":38.914156,"velocity":0.4251968503937008},{"duration":0.04285700000000503,"midi":72,"time":39.085584,"velocity":0.4251968503937008},{"duration":0.04285700000000503,"midi":77,"time":39.085584,"velocity":0.4251968503937008},{"duration":0.04285700000000503,"midi":80,"time":39.085584,"velocity":0.4251968503937008},{"duration":0.04285700000000503,"midi":72,"time":39.085584,"velocity":0.4251968503937008},{"duration":0.04285700000000503,"midi":77,"time":39.085584,"velocity":0.4251968503937008},{"duration":0.04285700000000503,"midi":80,"time":39.085584,"velocity":0.4251968503937008},{"duration":0.042856999999997925,"midi":80,"time":40.799864,"velocity":0.4251968503937008},{"duration":0.042856999999997925,"midi":84,"time":40.799864,"velocity":0.4251968503937008},{"duration":0.042856999999997925,"midi":75,"time":40.799864,"velocity":0.4251968503937008},{"duration":0.042856999999997925,"midi":84,"time":40.799864,"velocity":0.4251968503937008},{"duration":0.042856999999997925,"midi":75,"time":40.799864,"velocity":0.4251968503937008},{"duration":0.042856999999997925,"midi":80,"time":40.799864,"velocity":0.4251968503937008},{"duration":0.04285700000000503,"midi":79,"time":41.14272,"velocity":0.4251968503937008},{"duration":0.04285700000000503,"midi":74,"time":41.14272,"velocity":0.4251968503937008},{"duration":0.04285700000000503,"midi":83,"time":41.14272,"velocity":0.4251968503937008},{"duration":0.04285700000000503,"midi":74,"time":41.14272,"velocity":0.4251968503937008},{"duration":0.04285700000000503,"midi":83,"time":41.14272,"velocity":0.4251968503937008},{"duration":0.04285700000000503,"midi":79,"time":41.14272,"velocity":0.4251968503937008},{"duration":0.042856999999997925,"midi":86,"time":41.485576,"velocity":0.4251968503937008},{"duration":0.042856999999997925,"midi":86,"time":41.485576,"velocity":0.4251968503937008},{"duration":0.042856999999997925,"midi":79,"time":41.485576,"velocity":0.4251968503937008},{"duration":0.042856999999997925,"midi":83,"time":41.485576,"velocity":0.4251968503937008},{"duration":0.042856999999997925,"midi":83,"time":41.485576,"velocity":0.4251968503937008},{"duration":0.042856999999997925,"midi":79,"time":41.485576,"velocity":0.4251968503937008},{"duration":0.042856999999997925,"midi":84,"time":41.828432,"velocity":0.4251968503937008},{"duration":0.042856999999997925,"midi":79,"time":41.828432,"velocity":0.4251968503937008},{"duration":0.042856999999997925,"midi":79,"time":41.828432,"velocity":0.4251968503937008},{"duration":0.042856999999997925,"midi":75,"time":41.828432,"velocity":0.4251968503937008},{"duration":0.042856999999997925,"midi":84,"time":41.828432,"velocity":0.4251968503937008},{"duration":0.042856999999997925,"midi":75,"time":41.828432,"velocity":0.4251968503937008},{"duration":0.04285700000000503,"midi":72,"time":42.342715999999996,"velocity":0.4251968503937008},{"duration":0.04285700000000503,"midi":75,"time":42.342715999999996,"velocity":0.4251968503937008},{"duration":0.04285700000000503,"midi":75,"time":42.342715999999996,"velocity":0.4251968503937008},{"duration":0.04285700000000503,"midi":79,"time":42.342715999999996,"velocity":0.4251968503937008},{"duration":0.04285700000000503,"midi":72,"time":42.342715999999996,"velocity":0.4251968503937008},{"duration":0.04285700000000503,"midi":79,"time":42.342715999999996,"velocity":0.4251968503937008},{"duration":0.042856999999997925,"midi":72,"time":42.514144,"velocity":0.4251968503937008},{"duration":0.042856999999997925,"midi":75,"time":42.514144,"velocity":0.4251968503937008},{"duration":0.042856999999997925,"midi":79,"time":42.514144,"velocity":0.4251968503937008},{"duration":0.042856999999997925,"midi":79,"time":42.514144,"velocity":0.4251968503937008},{"duration":0.042856999999997925,"midi":75,"time":42.514144,"velocity":0.4251968503937008},{"duration":0.042856999999997925,"midi":72,"time":42.514144,"velocity":0.4251968503937008},{"duration":0.042856999999997925,"midi":77,"time":42.857,"velocity":0.4251968503937008},{"duration":0.042856999999997925,"midi":77,"time":42.857,"velocity":0.4251968503937008},{"duration":0.04285700000000503,"midi":66,"time":43.199856,"velocity":0.4251968503937008},{"duration":0.04285700000000503,"midi":75,"time":43.199856,"velocity":0.4251968503937008},{"duration":0.04285700000000503,"midi":66,"time":43.199856,"velocity":0.4251968503937008},{"duration":0.04285700000000503,"midi":69,"time":43.199856,"velocity":0.4251968503937008},{"duration":0.04285700000000503,"midi":75,"time":43.199856,"velocity":0.4251968503937008},{"duration":0.04285700000000503,"midi":69,"time":43.199856,"velocity":0.4251968503937008},{"duration":0.04285700000000503,"midi":72,"time":43.199856,"velocity":0.4251968503937008},{"duration":0.04285700000000503,"midi":72,"time":43.199856,"velocity":0.4251968503937008},{"duration":0.042856999999997925,"midi":71,"time":43.885568,"velocity":0.4251968503937008},{"duration":0.042856999999997925,"midi":79,"time":43.885568,"velocity":0.4251968503937008},{"duration":0.042856999999997925,"midi":74,"time":43.885568,"velocity":0.4251968503937008},{"duration":0.042856999999997925,"midi":79,"time":43.885568,"velocity":0.4251968503937008},{"duration":0.042856999999997925,"midi":71,"time":43.885568,"velocity":0.4251968503937008},{"duration":0.042856999999997925,"midi":74,"time":43.885568,"velocity":0.4251968503937008},{"duration":0.042856999999997925,"midi":72,"time":44.57128,"velocity":0.4251968503937008},{"duration":0.042856999999997925,"midi":75,"time":44.914136,"velocity":0.4251968503937008},{"duration":0.042856999999997925,"midi":67,"time":44.914136,"velocity":0.4251968503937008},{"duration":0.042856999999997925,"midi":75,"time":44.914136,"velocity":0.4251968503937008},{"duration":0.042856999999997925,"midi":79,"time":44.914136,"velocity":0.4251968503937008},{"duration":0.042856999999997925,"midi":72,"time":44.914136,"velocity":0.4251968503937008},{"duration":0.042856999999997925,"midi":67,"time":44.914136,"velocity":0.4251968503937008},{"duration":0.042856999999997925,"midi":79,"time":44.914136,"velocity":0.4251968503937008},{"duration":0.042856999999997925,"midi":72,"time":44.914136,"velocity":0.4251968503937008},{"duration":0.04285700000000503,"midi":67,"time":45.256992,"velocity":0.4251968503937008},{"duration":0.04285700000000503,"midi":84,"time":45.256992,"velocity":0.4251968503937008},{"duration":0.04285700000000503,"midi":75,"time":45.256992,"velocity":0.4251968503937008},{"duration":0.04285700000000503,"midi":60,"time":45.256992,"velocity":0.4251968503937008},{"duration":0.04285700000000503,"midi":84,"time":45.256992,"velocity":0.4251968503937008},{"duration":0.04285700000000503,"midi":67,"time":45.256992,"velocity":0.4251968503937008},{"duration":0.04285700000000503,"midi":60,"time":45.256992,"velocity":0.4251968503937008},{"duration":0.04285700000000503,"midi":75,"time":45.256992,"velocity":0.4251968503937008},{"duration":0.04285700000000503,"midi":87,"time":55.542671999999996,"velocity":0.4251968503937008},{"duration":0.04285700000000503,"midi":84,"time":55.542671999999996,"velocity":0.4251968503937008},{"duration":0.04285700000000503,"midi":79,"time":55.542671999999996,"velocity":0.4251968503937008},{"duration":0.042856999999997925,"midi":86,"time":55.885528,"velocity":0.4251968503937008},{"duration":0.042856999999997925,"midi":80,"time":55.885528,"velocity":0.4251968503937008},{"duration":0.042856999999997925,"midi":77,"time":55.885528,"velocity":0.4251968503937008},{"duration":0.042856999999997925,"midi":84,"time":56.228384,"velocity":0.4251968503937008},{"duration":0.042856999999997925,"midi":75,"time":56.228384,"velocity":0.4251968503937008},{"duration":0.042856999999997925,"midi":79,"time":56.228384,"velocity":0.4251968503937008},{"duration":0.042856999999997925,"midi":75,"time":56.914096,"velocity":0.4251968503937008},{"duration":0.042856999999997925,"midi":75,"time":56.956953,"velocity":0.4251968503937008},{"duration":0.04285700000000503,"midi":75,"time":56.99981,"velocity":0.4251968503937008},{"duration":0.04285700000000503,"midi":72,"time":57.42838,"velocity":0.4251968503937008},{"duration":0.042856999999997925,"midi":72,"time":57.471237,"velocity":0.4251968503937008},{"duration":0.042856999999997925,"midi":72,"time":57.514094,"velocity":0.4251968503937008},{"duration":0.04285700000000503,"midi":71,"time":57.599807999999996,"velocity":0.4251968503937008},{"duration":0.042856999999997925,"midi":71,"time":57.642665,"velocity":0.4251968503937008},{"duration":0.042856999999997925,"midi":71,"time":57.685522,"velocity":0.4251968503937008},{"duration":0.042856999999997925,"midi":72,"time":58.114092,"velocity":0.4251968503937008},{"duration":0.04285700000000503,"midi":72,"time":58.156949,"velocity":0.4251968503937008},{"duration":0.042856999999997925,"midi":72,"time":58.199806,"velocity":0.4251968503937008},{"duration":0.042856999999997925,"midi":67,"time":58.28552,"velocity":0.4251968503937008},{"duration":0.042856999999997925,"midi":87,"time":58.28552,"velocity":0.4251968503937008},{"duration":0.04285700000000503,"midi":67,"time":58.328376999999996,"velocity":0.4251968503937008},{"duration":0.042856999999997925,"midi":67,"time":58.371234,"velocity":0.4251968503937008},{"duration":0.04285700000000503,"midi":84,"time":58.456948,"velocity":0.4251968503937008},{"duration":0.04285700000000503,"midi":84,"time":58.628375999999996,"velocity":0.4251968503937008},{"duration":0.042856999999997925,"midi":84,"time":58.799804,"velocity":0.4251968503937008},{"duration":0.042856999999997925,"midi":84,"time":58.971232,"velocity":0.4251968503937008},{"duration":0.042856999999997925,"midi":84,"time":59.14266,"velocity":0.4251968503937008},{"duration":0.042856999999997925,"midi":67,"time":59.314088,"velocity":0.4251968503937008},{"duration":0.04285700000000503,"midi":67,"time":59.356944999999996,"velocity":0.4251968503937008},{"duration":0.042856999999997925,"midi":67,"time":59.399802,"velocity":0.4251968503937008},{"duration":0.04285700000000503,"midi":66,"time":59.656943999999996,"velocity":0.4251968503937008},{"duration":0.042856999999997925,"midi":66,"time":59.699801,"velocity":0.4251968503937008},{"duration":0.042856999999997925,"midi":66,"time":59.742658,"velocity":0.4251968503937008},{"duration":0.042856999999997925,"midi":67,"time":60.171228,"velocity":0.4251968503937008},{"duration":0.04285700000000503,"midi":67,"time":60.214085,"velocity":0.4251968503937008},{"duration":0.042856999999997925,"midi":67,"time":60.256942,"velocity":0.4251968503937008},{"duration":0.042856999999997925,"midi":75,"time":60.342656,"velocity":0.4251968503937008},{"duration":0.04285700000000503,"midi":75,"time":60.385512999999996,"velocity":0.4251968503937008},{"duration":0.042856999999997925,"midi":75,"time":60.42837,"velocity":0.4251968503937008},{"duration":0.042856999999997925,"midi":74,"time":60.85694,"velocity":0.4251968503937008},{"duration":0.042856999999997925,"midi":74,"time":60.899797,"velocity":0.4251968503937008},{"duration":0.04285700000000503,"midi":74,"time":60.942654,"velocity":0.4251968503937008},{"duration":0.042856999999997925,"midi":72,"time":61.028368,"velocity":0.4251968503937008},{"duration":0.042856999999997925,"midi":72,"time":61.071225,"velocity":0.4251968503937008},{"duration":0.04285700000000503,"midi":72,"time":61.114081999999996,"velocity":0.4251968503937008},{"duration":0.042856999999997925,"midi":65,"time":61.199796,"velocity":0.4251968503937008},{"duration":0.042856999999997925,"midi":67,"time":61.371224,"velocity":0.4251968503937008},{"duration":0.04285700000000503,"midi":68,"time":61.542652,"velocity":0.4251968503937008},{"duration":0.04285700000000503,"midi":71,"time":61.714079999999996,"velocity":0.4251968503937008},{"duration":0.04285700000000503,"midi":71,"time":61.714079999999996,"velocity":0.4251968503937008},{"duration":0.042856999999997925,"midi":71,"time":61.756937,"velocity":0.4251968503937008},{"duration":0.042856999999997925,"midi":71,"time":61.799794,"velocity":0.4251968503937008},{"duration":0.042856999999997925,"midi":72,"time":61.885508,"velocity":0.4251968503937008},{"duration":0.042856999999997925,"midi":74,"time":62.056936,"velocity":0.4251968503937008},{"duration":0.042856999999997925,"midi":77,"time":62.228364,"velocity":0.4251968503937008},{"duration":0.042856999999997925,"midi":75,"time":62.399792,"velocity":0.4251968503937008},{"duration":0.04285700000000503,"midi":75,"time":62.442648999999996,"velocity":0.4251968503937008},{"duration":0.042856999999997925,"midi":75,"time":62.485506,"velocity":0.4251968503937008},{"duration":0.042856999999997925,"midi":72,"time":62.914076,"velocity":0.4251968503937008},{"duration":0.042856999999997925,"midi":72,"time":62.956933,"velocity":0.4251968503937008},{"duration":0.04285700000000503,"midi":72,"time":62.99979,"velocity":0.4251968503937008},{"duration":0.042856999999997925,"midi":71,"time":63.085504,"velocity":0.4251968503937008},{"duration":0.042856999999997925,"midi":71,"time":63.128361,"velocity":0.4251968503937008},{"duration":0.04285700000000503,"midi":71,"time":63.171217999999996,"velocity":0.4251968503937008},{"duration":0.04285700000000503,"midi":72,"time":63.599788,"velocity":0.4251968503937008},{"duration":0.042856999999997925,"midi":72,"time":63.642645,"velocity":0.4251968503937008},{"duration":0.042856999999997925,"midi":72,"time":63.685502,"velocity":0.4251968503937008},{"duration":0.04285700000000503,"midi":87,"time":63.771215999999995,"velocity":0.4251968503937008},{"duration":0.04285700000000503,"midi":67,"time":63.771215999999995,"velocity":0.4251968503937008},{"duration":0.042856999999997925,"midi":67,"time":63.814073,"velocity":0.4251968503937008},{"duration":0.042856999999997925,"midi":67,"time":63.85693,"velocity":0.4251968503937008},{"duration":0.042856999999997925,"midi":84,"time":63.942644,"velocity":0.4251968503937008},{"duration":0.042857000000012135,"midi":84,"time":64.114072,"velocity":0.4251968503937008},{"duration":0.042856999999997925,"midi":84,"time":64.2855,"velocity":0.4251968503937008},{"duration":0.042856999999997925,"midi":84,"time":64.456928,"velocity":0.4251968503937008},{"duration":0.042856999999997925,"midi":84,"time":64.628356,"velocity":0.4251968503937008},{"duration":0.042856999999997925,"midi":79,"time":64.799784,"velocity":0.4251968503937008},{"duration":0.042856999999997925,"midi":79,"time":64.842641,"velocity":0.4251968503937008},{"duration":0.042856999999997925,"midi":79,"time":64.885498,"velocity":0.4251968503937008},{"duration":0.042856999999997925,"midi":78,"time":65.14264,"velocity":0.4251968503937008},{"duration":0.042856999999997925,"midi":78,"time":65.185497,"velocity":0.4251968503937008},{"duration":0.042856999999997925,"midi":78,"time":65.228354,"velocity":0.4251968503937008},{"duration":0.042856999999997925,"midi":75,"time":65.656924,"velocity":0.4251968503937008},{"duration":0.042856999999997925,"midi":75,"time":65.699781,"velocity":0.4251968503937008},{"duration":0.042856999999997925,"midi":75,"time":65.742638,"velocity":0.4251968503937008},{"duration":0.042856999999997925,"midi":74,"time":65.828352,"velocity":0.4251968503937008},{"duration":0.042857000000012135,"midi":74,"time":65.871209,"velocity":0.4251968503937008},{"duration":0.042856999999997925,"midi":74,"time":65.914066,"velocity":0.4251968503937008},{"duration":0.042856999999997925,"midi":72,"time":66.342636,"velocity":0.4251968503937008},{"duration":0.042856999999997925,"midi":72,"time":66.385493,"velocity":0.4251968503937008},{"duration":0.042856999999997925,"midi":72,"time":66.42835,"velocity":0.4251968503937008},{"duration":0.042856999999997925,"midi":72,"time":66.514064,"velocity":0.4251968503937008},{"duration":0.042856999999997925,"midi":72,"time":66.556921,"velocity":0.4251968503937008},{"duration":0.042856999999997925,"midi":72,"time":66.599778,"velocity":0.4251968503937008},{"duration":0.042856999999997925,"midi":72,"time":66.642635,"velocity":0.4251968503937008},{"duration":0.042856999999997925,"midi":72,"time":66.685492,"velocity":0.4251968503937008},{"duration":0.042856999999997925,"midi":72,"time":66.728349,"velocity":0.4251968503937008},{"duration":0.042856999999997925,"midi":74,"time":67.199776,"velocity":0.4251968503937008},{"duration":0.042856999999997925,"midi":74,"time":67.242633,"velocity":0.4251968503937008},{"duration":0.042856999999997925,"midi":74,"time":67.28549,"velocity":0.4251968503937008},{"duration":0.042857000000012135,"midi":74,"time":67.328347,"velocity":0.4251968503937008},{"duration":0.042856999999997925,"midi":74,"time":67.371204,"velocity":0.4251968503937008},{"duration":0.042856999999997925,"midi":74,"time":67.414061,"velocity":0.4251968503937008},{"duration":0.042856999999997925,"midi":87,"time":67.885488,"velocity":0.4251968503937008},{"duration":0.042857000000012135,"midi":87,"time":67.928345,"velocity":0.4251968503937008},{"duration":0.042856999999997925,"midi":87,"time":67.971202,"velocity":0.4251968503937008},{"duration":0.042856999999997925,"midi":84,"time":68.399772,"velocity":0.4251968503937008},{"duration":0.042856999999997925,"midi":84,"time":68.442629,"velocity":0.4251968503937008},{"duration":0.042856999999997925,"midi":84,"time":68.485486,"velocity":0.4251968503937008},{"duration":0.042856999999997925,"midi":83,"time":68.5712,"velocity":0.4251968503937008},{"duration":0.042856999999997925,"midi":83,"time":68.614057,"velocity":0.4251968503937008},{"duration":0.042856999999997925,"midi":83,"time":68.656914,"velocity":0.4251968503937008},{"duration":0.042856999999997925,"midi":84,"time":69.085484,"velocity":0.4251968503937008},{"duration":0.042857000000012135,"midi":84,"time":69.12834099999999,"velocity":0.4251968503937008},{"duration":0.042856999999997925,"midi":84,"time":69.171198,"velocity":0.4251968503937008},{"duration":0.042856999999997925,"midi":79,"time":69.256912,"velocity":0.4251968503937008},{"duration":0.042856999999997925,"midi":79,"time":69.299769,"velocity":0.4251968503937008},{"duration":0.042856999999997925,"midi":79,"time":69.342626,"velocity":0.4251968503937008},{"duration":0.042857000000012135,"midi":79,"time":70.28547999999999,"velocity":0.4251968503937008},{"duration":0.042856999999997925,"midi":79,"time":70.328337,"velocity":0.4251968503937008},{"duration":0.042856999999997925,"midi":79,"time":70.371194,"velocity":0.4251968503937008},{"duration":0.042856999999997925,"midi":78,"time":70.628336,"velocity":0.4251968503937008},{"duration":0.042856999999997925,"midi":78,"time":70.671193,"velocity":0.4251968503937008},{"duration":0.042856999999997925,"midi":78,"time":70.71405,"velocity":0.4251968503937008},{"duration":0.042856999999997925,"midi":79,"time":71.14262,"velocity":0.4251968503937008},{"duration":0.042857000000012135,"midi":79,"time":71.18547699999999,"velocity":0.4251968503937008},{"duration":0.042856999999997925,"midi":79,"time":71.228334,"velocity":0.4251968503937008},{"duration":0.042856999999997925,"midi":87,"time":71.314048,"velocity":0.4251968503937008},{"duration":0.042856999999997925,"midi":87,"time":71.356905,"velocity":0.4251968503937008},{"duration":0.042856999999997925,"midi":87,"time":71.399762,"velocity":0.4251968503937008},{"duration":0.042856999999997925,"midi":86,"time":71.828332,"velocity":0.4251968503937008},{"duration":0.042856999999997925,"midi":86,"time":71.871189,"velocity":0.4251968503937008},{"duration":0.042856999999997925,"midi":86,"time":71.914046,"velocity":0.4251968503937008},{"duration":0.042856999999997925,"midi":84,"time":71.99976,"velocity":0.4251968503937008},{"duration":0.042857000000012135,"midi":84,"time":72.04261699999999,"velocity":0.4251968503937008},{"duration":0.042856999999997925,"midi":84,"time":72.085474,"velocity":0.4251968503937008},{"duration":0.042856999999997925,"midi":83,"time":72.685472,"velocity":0.4251968503937008},{"duration":0.042856999999997925,"midi":83,"time":72.685472,"velocity":0.4251968503937008},{"duration":0.042856999999997925,"midi":83,"time":72.728329,"velocity":0.4251968503937008},{"duration":0.042856999999997925,"midi":83,"time":72.771186,"velocity":0.4251968503937008},{"duration":0.042856999999997925,"midi":87,"time":73.371184,"velocity":0.4251968503937008},{"duration":0.042856999999997925,"midi":87,"time":73.414041,"velocity":0.4251968503937008},{"duration":0.042856999999997925,"midi":87,"time":73.456898,"velocity":0.4251968503937008},{"duration":0.042856999999997925,"midi":84,"time":73.885468,"velocity":0.4251968503937008},{"duration":0.042856999999997925,"midi":84,"time":73.928325,"velocity":0.4251968503937008},{"duration":0.042856999999997925,"midi":84,"time":73.971182,"velocity":0.4251968503937008},{"duration":0.042856999999997925,"midi":83,"time":74.056896,"velocity":0.4251968503937008},{"duration":0.042857000000012135,"midi":83,"time":74.09975299999999,"velocity":0.4251968503937008},{"duration":0.042856999999997925,"midi":83,"time":74.14261,"velocity":0.4251968503937008},{"duration":0.042856999999997925,"midi":84,"time":74.57118,"velocity":0.4251968503937008},{"duration":0.042856999999997925,"midi":84,"time":74.614037,"velocity":0.4251968503937008},{"duration":0.042856999999997925,"midi":84,"time":74.656894,"velocity":0.4251968503937008},{"duration":0.042856999999997925,"midi":79,"time":74.742608,"velocity":0.4251968503937008},{"duration":0.042856999999997925,"midi":79,"time":74.785465,"velocity":0.4251968503937008},{"duration":0.042856999999997925,"midi":79,"time":74.828322,"velocity":0.4251968503937008},{"duration":0.042856999999997925,"midi":91,"time":75.771176,"velocity":0.4251968503937008},{"duration":0.042856999999997925,"midi":91,"time":75.814033,"velocity":0.4251968503937008},{"duration":0.042857000000012135,"midi":91,"time":75.85688999999999,"velocity":0.4251968503937008},{"duration":0.042856999999997925,"midi":90,"time":76.114032,"velocity":0.4251968503937008},{"duration":0.042857000000012135,"midi":90,"time":76.15688899999999,"velocity":0.4251968503937008},{"duration":0.042856999999997925,"midi":90,"time":76.199746,"velocity":0.4251968503937008},{"duration":0.042856999999997925,"midi":87,"time":76.628316,"velocity":0.4251968503937008},{"duration":0.042856999999997925,"midi":87,"time":76.671173,"velocity":0.4251968503937008},{"duration":0.042856999999997925,"midi":87,"time":76.71403,"velocity":0.4251968503937008},{"duration":0.042856999999997925,"midi":86,"time":76.799744,"velocity":0.4251968503937008},{"duration":0.042856999999997925,"midi":86,"time":76.842601,"velocity":0.4251968503937008},{"duration":0.042856999999997925,"midi":86,"time":76.885458,"velocity":0.4251968503937008},{"duration":0.042857000000012135,"midi":84,"time":77.314028,"velocity":0.4251968503937008},{"duration":0.042856999999997925,"midi":84,"time":77.356885,"velocity":0.4251968503937008},{"duration":0.042856999999997925,"midi":84,"time":77.399742,"velocity":0.4251968503937008},{"duration":0.042856999999997925,"midi":84,"time":77.485456,"velocity":0.4251968503937008},{"duration":0.042856999999997925,"midi":84,"time":77.528313,"velocity":0.4251968503937008},{"duration":0.042856999999997925,"midi":84,"time":77.57117,"velocity":0.4251968503937008},{"duration":0.042857000000012135,"midi":84,"time":77.614027,"velocity":0.4251968503937008},{"duration":0.042856999999997925,"midi":65,"time":77.656884,"velocity":0.4251968503937008},{"duration":0.042856999999997925,"midi":84,"time":77.656884,"velocity":0.4251968503937008},{"duration":0.042856999999997925,"midi":67,"time":77.828312,"velocity":0.4251968503937008},{"duration":0.042856999999997925,"midi":68,"time":77.99974,"velocity":0.4251968503937008},{"duration":0.042856999999997925,"midi":86,"time":78.171168,"velocity":0.4251968503937008},{"duration":0.042856999999997925,"midi":71,"time":78.171168,"velocity":0.4251968503937008},{"duration":0.042857000000012135,"midi":86,"time":78.21402499999999,"velocity":0.4251968503937008},{"duration":0.042856999999997925,"midi":86,"time":78.256882,"velocity":0.4251968503937008},{"duration":0.042856999999997925,"midi":86,"time":78.299739,"velocity":0.4251968503937008},{"duration":0.042856999999997925,"midi":72,"time":78.342596,"velocity":0.4251968503937008},{"duration":0.042856999999997925,"midi":86,"time":78.342596,"velocity":0.4251968503937008},{"duration":0.042857000000012135,"midi":74,"time":78.51402399999999,"velocity":0.4251968503937008},{"duration":0.042856999999997925,"midi":77,"time":78.685452,"velocity":0.4251968503937008},{"duration":0.042856999999997925,"midi":75,"time":89.828272,"velocity":0.4251968503937008},{"duration":0.042856999999997925,"midi":68,"time":89.828272,"velocity":0.4251968503937008},{"duration":0.042856999999997925,"midi":68,"time":89.828272,"velocity":0.4251968503937008},{"duration":0.042856999999997925,"midi":72,"time":89.828272,"velocity":0.4251968503937008},{"duration":0.042856999999997925,"midi":75,"time":89.828272,"velocity":0.4251968503937008},{"duration":0.042856999999997925,"midi":72,"time":89.828272,"velocity":0.4251968503937008},{"duration":0.042856999999997925,"midi":77,"time":90.342556,"velocity":0.4251968503937008},{"duration":0.042856999999997925,"midi":77,"time":90.342556,"velocity":0.4251968503937008},{"duration":0.042856999999997925,"midi":72,"time":90.513984,"velocity":0.4251968503937008},{"duration":0.042856999999997925,"midi":72,"time":90.513984,"velocity":0.4251968503937008},{"duration":0.042856999999997925,"midi":68,"time":90.513984,"velocity":0.4251968503937008},{"duration":0.042856999999997925,"midi":75,"time":90.513984,"velocity":0.4251968503937008},{"duration":0.042856999999997925,"midi":68,"time":90.513984,"velocity":0.4251968503937008},{"duration":0.042856999999997925,"midi":75,"time":90.513984,"velocity":0.4251968503937008},{"duration":0.042856999999997925,"midi":74,"time":91.028268,"velocity":0.4251968503937008},{"duration":0.042856999999997925,"midi":74,"time":91.028268,"velocity":0.4251968503937008},{"duration":0.042856999999997925,"midi":68,"time":91.199696,"velocity":0.4251968503937008},{"duration":0.042856999999997925,"midi":72,"time":91.199696,"velocity":0.4251968503937008},{"duration":0.042856999999997925,"midi":72,"time":91.199696,"velocity":0.4251968503937008},{"duration":0.042856999999997925,"midi":68,"time":91.199696,"velocity":0.4251968503937008},{"duration":0.042856999999997925,"midi":65,"time":91.542552,"velocity":0.4251968503937008},{"duration":0.042856999999997925,"midi":65,"time":91.542552,"velocity":0.4251968503937008},{"duration":0.042856999999997925,"midi":67,"time":91.885408,"velocity":0.4251968503937008},{"duration":0.042856999999997925,"midi":67,"time":91.885408,"velocity":0.4251968503937008},{"duration":0.042856999999997925,"midi":71,"time":92.228264,"velocity":0.4251968503937008},{"duration":0.042856999999997925,"midi":71,"time":92.228264,"velocity":0.4251968503937008},{"duration":0.042856999999997925,"midi":71,"time":92.57112,"velocity":0.4251968503937008},{"duration":0.042856999999997925,"midi":71,"time":92.57112,"velocity":0.4251968503937008},{"duration":0.042856999999997925,"midi":74,"time":92.57112,"velocity":0.4251968503937008},{"duration":0.042856999999997925,"midi":74,"time":92.57112,"velocity":0.4251968503937008},{"duration":0.042856999999997925,"midi":72,"time":93.085404,"velocity":0.4251968503937008},{"duration":0.042856999999997925,"midi":72,"time":93.085404,"velocity":0.4251968503937008},{"duration":0.042856999999997925,"midi":71,"time":93.256832,"velocity":0.4251968503937008},{"duration":0.042856999999997925,"midi":67,"time":93.256832,"velocity":0.4251968503937008},{"duration":0.042856999999997925,"midi":67,"time":93.256832,"velocity":0.4251968503937008},{"duration":0.042856999999997925,"midi":71,"time":93.256832,"velocity":0.4251968503937008},{"duration":0.042857000000012135,"midi":72,"time":93.77111599999999,"velocity":0.4251968503937008},{"duration":0.042857000000012135,"midi":72,"time":93.77111599999999,"velocity":0.4251968503937008},{"duration":0.042856999999997925,"midi":67,"time":93.942544,"velocity":0.4251968503937008},{"duration":0.042856999999997925,"midi":67,"time":93.942544,"velocity":0.4251968503937008},{"duration":0.042856999999997925,"midi":74,"time":94.799684,"velocity":0.4251968503937008},{"duration":0.042856999999997925,"midi":74,"time":94.799684,"velocity":0.4251968503937008},{"duration":0.042856999999997925,"midi":75,"time":94.971112,"velocity":0.4251968503937008},{"duration":0.042856999999997925,"midi":75,"time":94.971112,"velocity":0.4251968503937008},{"duration":0.042856999999997925,"midi":77,"time":95.14254,"velocity":0.4251968503937008},{"duration":0.042856999999997925,"midi":77,"time":95.14254,"velocity":0.4251968503937008},{"duration":0.042856999999997925,"midi":79,"time":95.313968,"velocity":0.4251968503937008},{"duration":0.042856999999997925,"midi":79,"time":95.313968,"velocity":0.4251968503937008},{"duration":0.042856999999997925,"midi":77,"time":95.656824,"velocity":0.4251968503937008},{"duration":0.042856999999997925,"midi":77,"time":95.656824,"velocity":0.4251968503937008},{"duration":0.042856999999997925,"midi":76,"time":95.99968,"velocity":0.4251968503937008},{"duration":0.042856999999997925,"midi":76,"time":95.99968,"velocity":0.4251968503937008},{"duration":0.042856999999997925,"midi":77,"time":96.342536,"velocity":0.4251968503937008},{"duration":0.042856999999997925,"midi":77,"time":96.342536,"velocity":0.4251968503937008},{"duration":0.042857000000012135,"midi":74,"time":96.685392,"velocity":0.4251968503937008},{"duration":0.042857000000012135,"midi":74,"time":96.685392,"velocity":0.4251968503937008},{"duration":0.042856999999997925,"midi":72,"time":98.056816,"velocity":0.4251968503937008},{"duration":0.042856999999997925,"midi":72,"time":98.056816,"velocity":0.4251968503937008},{"duration":0.042856999999997925,"midi":74,"time":98.5711,"velocity":0.4251968503937008},{"duration":0.042856999999997925,"midi":74,"time":98.5711,"velocity":0.4251968503937008},{"duration":0.042857000000012135,"midi":75,"time":98.742528,"velocity":0.4251968503937008},{"duration":0.042857000000012135,"midi":72,"time":98.742528,"velocity":0.4251968503937008},{"duration":0.042857000000012135,"midi":75,"time":98.742528,"velocity":0.4251968503937008},{"duration":0.042857000000012135,"midi":72,"time":98.742528,"velocity":0.4251968503937008},{"duration":0.042856999999997925,"midi":77,"time":99.256812,"velocity":0.4251968503937008},{"duration":0.042856999999997925,"midi":74,"time":99.256812,"velocity":0.4251968503937008},{"duration":0.042856999999997925,"midi":74,"time":99.256812,"velocity":0.4251968503937008},{"duration":0.042856999999997925,"midi":77,"time":99.256812,"velocity":0.4251968503937008},{"duration":0.042856999999997925,"midi":74,"time":99.42824,"velocity":0.4251968503937008},{"duration":0.042856999999997925,"midi":71,"time":99.42824,"velocity":0.4251968503937008},{"duration":0.042856999999997925,"midi":74,"time":99.42824,"velocity":0.4251968503937008},{"duration":0.042856999999997925,"midi":79,"time":99.42824,"velocity":0.4251968503937008},{"duration":0.042856999999997925,"midi":71,"time":99.42824,"velocity":0.4251968503937008},{"duration":0.042856999999997925,"midi":79,"time":99.42824,"velocity":0.4251968503937008},{"duration":0.042857000000012135,"midi":79,"time":100.79966399999999,"velocity":0.4251968503937008},{"duration":0.042856999999997925,"midi":80,"time":100.885378,"velocity":0.4251968503937008},{"duration":0.042856999999997925,"midi":79,"time":100.971092,"velocity":0.4251968503937008},{"duration":0.042856999999997925,"midi":78,"time":101.056806,"velocity":0.4251968503937008},{"duration":0.042856999999997925,"midi":79,"time":101.14252,"velocity":0.4251968503937008},{"duration":0.042856999999997925,"midi":72,"time":101.313948,"velocity":0.4251968503937008},{"duration":0.042856999999997925,"midi":75,"time":101.485376,"velocity":0.4251968503937008},{"duration":0.042856999999997925,"midi":74,"time":101.828232,"velocity":0.4251968503937008},{"duration":0.042856999999997925,"midi":75,"time":101.913946,"velocity":0.4251968503937008},{"duration":0.042857000000012135,"midi":74,"time":101.99965999999999,"velocity":0.4251968503937008},{"duration":0.042856999999997925,"midi":72,"time":102.085374,"velocity":0.4251968503937008},{"duration":0.042856999999997925,"midi":74,"time":102.171088,"velocity":0.4251968503937008},{"duration":0.042856999999997925,"midi":71,"time":102.342516,"velocity":0.4251968503937008},{"duration":0.042856999999997925,"midi":67,"time":102.513944,"velocity":0.4251968503937008},{"duration":0.042856999999997925,"midi":79,"time":102.513944,"velocity":0.4251968503937008},{"duration":0.042856999999997925,"midi":80,"time":102.599658,"velocity":0.4251968503937008},{"duration":0.042856999999997925,"midi":79,"time":102.685372,"velocity":0.4251968503937008},{"duration":0.042856999999997925,"midi":77,"time":102.771086,"velocity":0.4251968503937008},{"duration":0.042857000000012135,"midi":79,"time":102.85679999999999,"velocity":0.4251968503937008},{"duration":0.042856999999997925,"midi":77,"time":102.942514,"velocity":0.4251968503937008},{"duration":0.042856999999997925,"midi":74,"time":103.028228,"velocity":0.4251968503937008},{"duration":0.042856999999997925,"midi":71,"time":103.113942,"velocity":0.4251968503937008},{"duration":0.042856999999997925,"midi":67,"time":103.199656,"velocity":0.4251968503937008},{"duration":0.042856999999997925,"midi":68,"time":103.28537,"velocity":0.4251968503937008},{"duration":0.042856999999997925,"midi":69,"time":103.371084,"velocity":0.4251968503937008},{"duration":0.042857000000012135,"midi":71,"time":103.45679799999999,"velocity":0.4251968503937008},{"duration":0.042856999999997925,"midi":72,"time":103.542512,"velocity":0.4251968503937008},{"duration":0.042856999999997925,"midi":73,"time":103.628226,"velocity":0.4251968503937008},{"duration":0.042856999999997925,"midi":72,"time":103.71394,"velocity":0.4251968503937008},{"duration":0.042856999999997925,"midi":71,"time":103.799654,"velocity":0.4251968503937008},{"duration":0.042856999999997925,"midi":72,"time":103.885368,"velocity":0.4251968503937008},{"duration":0.042857000000012135,"midi":76,"time":104.05679599999999,"velocity":0.4251968503937008},{"duration":0.042856999999997925,"midi":79,"time":104.228224,"velocity":0.4251968503937008},{"duration":0.042856999999997925,"midi":72,"time":104.57108,"velocity":0.4251968503937008},{"duration":0.042856999999997925,"midi":82,"time":104.742508,"velocity":0.4251968503937008},{"duration":0.042857000000012135,"midi":80,"time":104.91393599999999,"velocity":0.4251968503937008},{"duration":0.042856999999997925,"midi":79,"time":105.171078,"velocity":0.4251968503937008},{"duration":0.042856999999997925,"midi":80,"time":105.256792,"velocity":0.4251968503937008},{"duration":0.042856999999997925,"midi":77,"time":105.256792,"velocity":0.4251968503937008},{"duration":0.042856999999997925,"midi":79,"time":105.342506,"velocity":0.4251968503937008},{"duration":0.042856999999997925,"midi":77,"time":105.42822,"velocity":0.4251968503937008},{"duration":0.042857000000012135,"midi":72,"time":105.51393399999999,"velocity":0.4251968503937008},{"duration":0.042856999999997925,"midi":68,"time":105.599648,"velocity":0.4251968503937008},{"duration":0.042856999999997925,"midi":69,"time":105.685362,"velocity":0.4251968503937008},{"duration":0.042856999999997925,"midi":71,"time":105.771076,"velocity":0.4251968503937008},{"duration":0.042856999999997925,"midi":72,"time":105.85679,"velocity":0.4251968503937008},{"duration":0.042856999999997925,"midi":73,"time":105.942504,"velocity":0.4251968503937008},{"duration":0.042856999999997925,"midi":74,"time":106.028218,"velocity":0.4251968503937008},{"duration":0.042857000000012135,"midi":75,"time":106.11393199999999,"velocity":0.4251968503937008},{"duration":0.042856999999997925,"midi":76,"time":106.199646,"velocity":0.4251968503937008},{"duration":0.042856999999997925,"midi":77,"time":106.28536,"velocity":0.4251968503937008},{"duration":0.042857000000012135,"midi":79,"time":106.371074,"velocity":0.4251968503937008},{"duration":0.042856999999997925,"midi":77,"time":106.456788,"velocity":0.4251968503937008},{"duration":0.042856999999997925,"midi":76,"time":106.542502,"velocity":0.4251968503937008},{"duration":0.042856999999997925,"midi":77,"time":106.628216,"velocity":0.4251968503937008},{"duration":0.042856999999997925,"midi":80,"time":106.799644,"velocity":0.4251968503937008},{"duration":0.042857000000012135,"midi":79,"time":106.97107199999999,"velocity":0.4251968503937008},{"duration":0.042856999999997925,"midi":74,"time":107.313928,"velocity":0.4251968503937008},{"duration":0.042856999999997925,"midi":77,"time":107.485356,"velocity":0.4251968503937008},{"duration":0.042856999999997925,"midi":75,"time":107.656784,"velocity":0.4251968503937008},{"duration":0.042856999999997925,"midi":75,"time":107.828212,"velocity":0.4251968503937008},{"duration":0.042856999999997925,"midi":74,"time":107.913926,"velocity":0.4251968503937008},{"duration":0.042856999999997925,"midi":72,"time":107.99964,"velocity":0.4251968503937008},{"duration":0.042856999999997925,"midi":74,"time":108.085354,"velocity":0.4251968503937008},{"duration":0.042857000000012135,"midi":75,"time":108.17106799999999,"velocity":0.4251968503937008},{"duration":0.042856999999997925,"midi":79,"time":108.256782,"velocity":0.4251968503937008},{"duration":0.042856999999997925,"midi":84,"time":108.342496,"velocity":0.4251968503937008},{"duration":0.042856999999997925,"midi":86,"time":108.85678,"velocity":0.4251968503937008},{"duration":0.042856999999997925,"midi":87,"time":108.942494,"velocity":0.4251968503937008},{"duration":0.042857000000012135,"midi":86,"time":109.02820799999999,"velocity":0.4251968503937008},{"duration":0.042856999999997925,"midi":84,"time":109.199636,"velocity":0.4251968503937008},{"duration":0.042856999999997925,"midi":81,"time":109.28535,"velocity":0.4251968503937008},{"duration":0.042856999999997925,"midi":78,"time":109.371064,"velocity":0.4251968503937008},{"duration":0.042856999999997925,"midi":75,"time":109.456778,"velocity":0.4251968503937008},{"duration":0.042856999999997925,"midi":72,"time":109.542492,"velocity":0.4251968503937008},{"duration":0.042857000000012135,"midi":69,"time":109.62820599999999,"velocity":0.4251968503937008},{"duration":0.042856999999997925,"midi":71,"time":109.71392,"velocity":0.4251968503937008},{"duration":0.042856999999997925,"midi":67,"time":109.71392,"velocity":0.4251968503937008},{"duration":0.042856999999997925,"midi":95,"time":109.71392,"velocity":0.4251968503937008},{"duration":0.042856999999997925,"midi":91,"time":109.799634,"velocity":0.4251968503937008},{"duration":0.042856999999997925,"midi":86,"time":109.885348,"velocity":0.4251968503937008},{"duration":0.042856999999997925,"midi":83,"time":109.971062,"velocity":0.4251968503937008},{"duration":0.042856999999997925,"midi":79,"time":110.056776,"velocity":0.4251968503937008},{"duration":0.042856999999997925,"midi":74,"time":110.14249,"velocity":0.4251968503937008},{"duration":0.042856999999997925,"midi":71,"time":110.228204,"velocity":0.4251968503937008},{"duration":0.042856999999997925,"midi":72,"time":110.228204,"velocity":0.4251968503937008},{"duration":0.042856999999997925,"midi":67,"time":110.313918,"velocity":0.4251968503937008},{"duration":0.042856999999997925,"midi":72,"time":110.399632,"velocity":0.4251968503937008},{"duration":0.042856999999997925,"midi":72,"time":110.442489,"velocity":0.4251968503937008},{"duration":0.042857000000012135,"midi":72,"time":110.48534599999999,"velocity":0.4251968503937008},{"duration":0.042856999999997925,"midi":72,"time":110.528203,"velocity":0.4251968503937008},{"duration":0.042856999999997925,"midi":72,"time":110.57106,"velocity":0.4251968503937008},{"duration":0.042856999999997925,"midi":80,"time":112.113912,"velocity":0.4251968503937008},{"duration":0.042856999999997925,"midi":75,"time":112.113912,"velocity":0.4251968503937008},{"duration":0.042856999999997925,"midi":84,"time":112.113912,"velocity":0.4251968503937008},{"duration":0.042856999999997925,"midi":84,"time":112.156769,"velocity":0.4251968503937008},{"duration":0.042856999999997925,"midi":80,"time":112.156769,"velocity":0.4251968503937008},{"duration":0.042856999999997925,"midi":75,"time":112.156769,"velocity":0.4251968503937008},{"duration":0.042856999999997925,"midi":83,"time":112.456768,"velocity":0.4251968503937008},{"duration":0.042856999999997925,"midi":79,"time":112.456768,"velocity":0.4251968503937008},{"duration":0.042856999999997925,"midi":74,"time":112.456768,"velocity":0.4251968503937008},{"duration":0.042856999999997925,"midi":79,"time":112.499625,"velocity":0.4251968503937008},{"duration":0.042856999999997925,"midi":74,"time":112.499625,"velocity":0.4251968503937008},{"duration":0.042856999999997925,"midi":83,"time":112.499625,"velocity":0.4251968503937008},{"duration":0.042856999999997925,"midi":86,"time":112.799624,"velocity":0.4251968503937008},{"duration":0.042856999999997925,"midi":79,"time":112.799624,"velocity":0.4251968503937008},{"duration":0.042856999999997925,"midi":83,"time":112.799624,"velocity":0.4251968503937008},{"duration":0.042857000000012135,"midi":83,"time":112.84248099999999,"velocity":0.4251968503937008},{"duration":0.042857000000012135,"midi":79,"time":112.84248099999999,"velocity":0.4251968503937008},{"duration":0.042857000000012135,"midi":86,"time":112.84248099999999,"velocity":0.4251968503937008},{"duration":0.042857000000012135,"midi":79,"time":113.14247999999999,"velocity":0.4251968503937008},{"duration":0.042857000000012135,"midi":84,"time":113.14247999999999,"velocity":0.4251968503937008},{"duration":0.042857000000012135,"midi":75,"time":113.14247999999999,"velocity":0.4251968503937008},{"duration":0.042856999999997925,"midi":79,"time":113.185337,"velocity":0.4251968503937008},{"duration":0.042856999999997925,"midi":84,"time":113.185337,"velocity":0.4251968503937008},{"duration":0.042856999999997925,"midi":75,"time":113.185337,"velocity":0.4251968503937008},{"duration":0.042856999999997925,"midi":79,"time":113.656764,"velocity":0.4251968503937008},{"duration":0.042856999999997925,"midi":75,"time":113.656764,"velocity":0.4251968503937008},{"duration":0.042856999999997925,"midi":72,"time":113.656764,"velocity":0.4251968503937008},{"duration":0.042856999999997925,"midi":72,"time":113.699621,"velocity":0.4251968503937008},{"duration":0.042856999999997925,"midi":75,"time":113.699621,"velocity":0.4251968503937008},{"duration":0.042856999999997925,"midi":79,"time":113.699621,"velocity":0.4251968503937008},{"duration":0.042856999999997925,"midi":79,"time":113.828192,"velocity":0.4251968503937008},{"duration":0.042856999999997925,"midi":75,"time":113.828192,"velocity":0.4251968503937008},{"duration":0.042856999999997925,"midi":72,"time":113.828192,"velocity":0.4251968503937008},{"duration":0.042856999999997925,"midi":75,"time":113.871049,"velocity":0.4251968503937008},{"duration":0.042856999999997925,"midi":72,"time":113.871049,"velocity":0.4251968503937008},{"duration":0.042856999999997925,"midi":79,"time":113.871049,"velocity":0.4251968503937008},{"duration":0.042856999999997925,"midi":77,"time":114.171048,"velocity":0.4251968503937008},{"duration":0.042856999999997925,"midi":77,"time":114.213905,"velocity":0.4251968503937008},{"duration":0.042856999999997925,"midi":75,"time":114.513904,"velocity":0.4251968503937008},{"duration":0.042856999999997925,"midi":66,"time":114.513904,"velocity":0.4251968503937008},{"duration":0.042856999999997925,"midi":69,"time":114.513904,"velocity":0.4251968503937008},{"duration":0.042856999999997925,"midi":72,"time":114.513904,"velocity":0.4251968503937008},{"duration":0.042856999999997925,"midi":75,"time":114.556761,"velocity":0.4251968503937008},{"duration":0.042856999999997925,"midi":69,"time":114.556761,"velocity":0.4251968503937008},{"duration":0.042856999999997925,"midi":72,"time":114.556761,"velocity":0.4251968503937008},{"duration":0.042856999999997925,"midi":66,"time":114.556761,"velocity":0.4251968503937008},{"duration":0.042857000000012135,"midi":66,"time":114.59961799999999,"velocity":0.4251968503937008},{"duration":0.042857000000012135,"midi":72,"time":114.59961799999999,"velocity":0.4251968503937008},{"duration":0.042857000000012135,"midi":69,"time":114.59961799999999,"velocity":0.4251968503937008},{"duration":0.042857000000012135,"midi":75,"time":114.59961799999999,"velocity":0.4251968503937008},{"duration":0.042856999999997925,"midi":72,"time":114.642475,"velocity":0.4251968503937008},{"duration":0.042856999999997925,"midi":75,"time":114.642475,"velocity":0.4251968503937008},{"duration":0.042856999999997925,"midi":69,"time":114.642475,"velocity":0.4251968503937008},{"duration":0.042856999999997925,"midi":66,"time":114.642475,"velocity":0.4251968503937008},{"duration":0.042857000000012135,"midi":74,"time":115.19961599999999,"velocity":0.4251968503937008},{"duration":0.042857000000012135,"midi":71,"time":115.19961599999999,"velocity":0.4251968503937008},{"duration":0.042857000000012135,"midi":79,"time":115.19961599999999,"velocity":0.4251968503937008},{"duration":0.042856999999997925,"midi":79,"time":115.242473,"velocity":0.4251968503937008},{"duration":0.042856999999997925,"midi":71,"time":115.242473,"velocity":0.4251968503937008},{"duration":0.042856999999997925,"midi":74,"time":115.242473,"velocity":0.4251968503937008},{"duration":0.042856999999997925,"midi":74,"time":115.28533,"velocity":0.4251968503937008},{"duration":0.042856999999997925,"midi":71,"time":115.28533,"velocity":0.4251968503937008},{"duration":0.042856999999997925,"midi":79,"time":115.28533,"velocity":0.4251968503937008},{"duration":0.042856999999997925,"midi":71,"time":115.328187,"velocity":0.4251968503937008},{"duration":0.042856999999997925,"midi":74,"time":115.328187,"velocity":0.4251968503937008},{"duration":0.042856999999997925,"midi":79,"time":115.328187,"velocity":0.4251968503937008},{"duration":0.042856999999997925,"midi":72,"time":115.885328,"velocity":0.4251968503937008},{"duration":0.042856999999997925,"midi":72,"time":115.885328,"velocity":0.4251968503937008},{"duration":0.042856999999997925,"midi":72,"time":115.928185,"velocity":0.4251968503937008},{"duration":0.042856999999997925,"midi":72,"time":115.928185,"velocity":0.4251968503937008},{"duration":0.042856999999997925,"midi":77,"time":115.971042,"velocity":0.4251968503937008},{"duration":0.042857000000012135,"midi":75,"time":116.056756,"velocity":0.4251968503937008},{"duration":0.042856999999997925,"midi":74,"time":116.14247,"velocity":0.4251968503937008},{"duration":0.042856999999997925,"midi":72,"time":116.228184,"velocity":0.4251968503937008},{"duration":0.042856999999997925,"midi":74,"time":116.313898,"velocity":0.4251968503937008},{"duration":0.042856999999997925,"midi":75,"time":116.399612,"velocity":0.4251968503937008},{"duration":0.042856999999997925,"midi":79,"time":116.485326,"velocity":0.4251968503937008},{"duration":0.042856999999997925,"midi":84,"time":116.57104,"velocity":0.4251968503937008},{"duration":0.042856999999997925,"midi":67,"time":116.913896,"velocity":0.4251968503937008},{"duration":0.042857000000012135,"midi":67,"time":116.95675299999999,"velocity":0.4251968503937008},{"duration":0.042856999999997925,"midi":67,"time":116.99961,"velocity":0.4251968503937008},{"duration":0.042857000000012135,"midi":75,"time":117.25675199999999,"velocity":0.4251968503937008},{"duration":0.042856999999997925,"midi":75,"time":117.299609,"velocity":0.4251968503937008},{"duration":0.042856999999997925,"midi":75,"time":117.342466,"velocity":0.4251968503937008},{"duration":0.042856999999997925,"midi":72,"time":117.771036,"velocity":0.4251968503937008},{"duration":0.042856999999997925,"midi":72,"time":117.813893,"velocity":0.4251968503937008},{"duration":0.042857000000012135,"midi":72,"time":117.85674999999999,"velocity":0.4251968503937008},{"duration":0.042856999999997925,"midi":71,"time":117.942464,"velocity":0.4251968503937008},{"duration":0.042856999999997925,"midi":71,"time":117.985321,"velocity":0.4251968503937008},{"duration":0.042856999999997925,"midi":71,"time":118.028178,"velocity":0.4251968503937008},{"duration":0.042856999999997925,"midi":72,"time":118.456748,"velocity":0.4251968503937008},{"duration":0.042856999999997925,"midi":72,"time":118.499605,"velocity":0.4251968503937008},{"duration":0.042856999999997925,"midi":72,"time":118.542462,"velocity":0.4251968503937008},{"duration":0.042856999999997925,"midi":87,"time":118.628176,"velocity":0.4251968503937008},{"duration":0.042856999999997925,"midi":67,"time":118.628176,"velocity":0.4251968503937008},{"duration":0.042856999999997925,"midi":67,"time":118.671033,"velocity":0.4251968503937008},{"duration":0.042857000000012135,"midi":67,"time":118.71388999999999,"velocity":0.4251968503937008},{"duration":0.042856999999997925,"midi":84,"time":118.799604,"velocity":0.4251968503937008},{"duration":0.042856999999997925,"midi":84,"time":118.971032,"velocity":0.4251968503937008},{"duration":0.042856999999997925,"midi":84,"time":119.14246,"velocity":0.4251968503937008},{"duration":0.042857000000012135,"midi":84,"time":119.31388799999999,"velocity":0.4251968503937008},{"duration":0.042856999999997925,"midi":84,"time":119.485316,"velocity":0.4251968503937008},{"duration":0.042856999999997925,"midi":67,"time":119.656744,"velocity":0.4251968503937008},{"duration":0.042856999999997925,"midi":67,"time":119.699601,"velocity":0.4251968503937008},{"duration":0.042856999999997925,"midi":67,"time":119.742458,"velocity":0.4251968503937008},{"duration":0.042856999999997925,"midi":66,"time":119.9996,"velocity":0.4251968503937008},{"duration":0.042856999999997925,"midi":66,"time":120.042457,"velocity":0.4251968503937008},{"duration":0.042856999999997925,"midi":66,"time":120.085314,"velocity":0.4251968503937008},{"duration":0.042856999999997925,"midi":67,"time":120.513884,"velocity":0.4251968503937008},{"duration":0.042856999999997925,"midi":67,"time":120.556741,"velocity":0.4251968503937008},{"duration":0.042856999999997925,"midi":67,"time":120.599598,"velocity":0.4251968503937008},{"duration":0.042856999999997925,"midi":75,"time":120.685312,"velocity":0.4251968503937008},{"duration":0.042856999999997925,"midi":75,"time":120.728169,"velocity":0.4251968503937008},{"duration":0.042857000000012135,"midi":75,"time":120.77102599999999,"velocity":0.4251968503937008},{"duration":0.042856999999997925,"midi":74,"time":121.199596,"velocity":0.4251968503937008},{"duration":0.042856999999997925,"midi":74,"time":121.242453,"velocity":0.4251968503937008},{"duration":0.042856999999997925,"midi":74,"time":121.28531,"velocity":0.4251968503937008},{"duration":0.042857000000012135,"midi":72,"time":121.37102399999999,"velocity":0.4251968503937008},{"duration":0.042856999999997925,"midi":72,"time":121.413881,"velocity":0.4251968503937008},{"duration":0.042856999999997925,"midi":72,"time":121.456738,"velocity":0.4251968503937008},{"duration":0.042856999999997925,"midi":65,"time":121.542452,"velocity":0.4251968503937008},{"duration":0.042856999999997925,"midi":67,"time":121.71388,"velocity":0.4251968503937008},{"duration":0.042856999999997925,"midi":68,"time":121.885308,"velocity":0.4251968503937008},{"duration":0.042856999999997925,"midi":71,"time":122.056736,"velocity":0.4251968503937008},{"duration":0.042856999999997925,"midi":71,"time":122.056736,"velocity":0.4251968503937008},{"duration":0.042856999999997925,"midi":71,"time":122.099593,"velocity":0.4251968503937008},{"duration":0.042856999999997925,"midi":71,"time":122.14245,"velocity":0.4251968503937008},{"duration":0.042857000000012135,"midi":72,"time":122.22816399999999,"velocity":0.4251968503937008},{"duration":0.042856999999997925,"midi":74,"time":122.399592,"velocity":0.4251968503937008},{"duration":0.042856999999997925,"midi":77,"time":122.57102,"velocity":0.4251968503937008},{"duration":0.042856999999997925,"midi":75,"time":122.742448,"velocity":0.4251968503937008},{"duration":0.042856999999997925,"midi":75,"time":122.785305,"velocity":0.4251968503937008},{"duration":0.042857000000012135,"midi":75,"time":122.82816199999999,"velocity":0.4251968503937008},{"duration":0.042856999999997925,"midi":72,"time":123.256732,"velocity":0.4251968503937008},{"duration":0.042856999999997925,"midi":72,"time":123.299589,"velocity":0.4251968503937008},{"duration":0.042856999999997925,"midi":72,"time":123.342446,"velocity":0.4251968503937008},{"duration":0.042857000000012135,"midi":71,"time":123.42815999999999,"velocity":0.4251968503937008},{"duration":0.042856999999997925,"midi":71,"time":123.471017,"velocity":0.4251968503937008},{"duration":0.042856999999997925,"midi":71,"time":123.513874,"velocity":0.4251968503937008},{"duration":0.042856999999997925,"midi":72,"time":123.942444,"velocity":0.4251968503937008},{"duration":0.042857000000012135,"midi":72,"time":123.98530099999999,"velocity":0.4251968503937008},{"duration":0.042856999999997925,"midi":72,"time":124.028158,"velocity":0.4251968503937008},{"duration":0.042856999999997925,"midi":67,"time":124.113872,"velocity":0.4251968503937008},{"duration":0.042856999999997925,"midi":87,"time":124.113872,"velocity":0.4251968503937008},{"duration":0.042856999999997925,"midi":67,"time":124.156729,"velocity":0.4251968503937008},{"duration":0.042856999999997925,"midi":67,"time":124.199586,"velocity":0.4251968503937008},{"duration":0.042857000000012135,"midi":84,"time":124.28529999999999,"velocity":0.4251968503937008},{"duration":0.042856999999997925,"midi":84,"time":124.456728,"velocity":0.4251968503937008},{"duration":0.042856999999997925,"midi":84,"time":124.628156,"velocity":0.4251968503937008},{"duration":0.042856999999997925,"midi":84,"time":124.799584,"velocity":0.4251968503937008},{"duration":0.042856999999997925,"midi":84,"time":124.971012,"velocity":0.4251968503937008},{"duration":0.042856999999997925,"midi":79,"time":125.14244,"velocity":0.4251968503937008},{"duration":0.042857000000012135,"midi":79,"time":125.18529699999999,"velocity":0.4251968503937008},{"duration":0.042856999999997925,"midi":79,"time":125.228154,"velocity":0.4251968503937008},{"duration":0.042857000000012135,"midi":78,"time":125.48529599999999,"velocity":0.4251968503937008},{"duration":0.042856999999997925,"midi":78,"time":125.528153,"velocity":0.4251968503937008},{"duration":0.042856999999997925,"midi":78,"time":125.57101,"velocity":0.4251968503937008},{"duration":0.042856999999997925,"midi":75,"time":125.99958,"velocity":0.4251968503937008},{"duration":0.042857000000012135,"midi":75,"time":126.04243699999999,"velocity":0.4251968503937008},{"duration":0.042856999999997925,"midi":75,"time":126.085294,"velocity":0.4251968503937008},{"duration":0.042856999999997925,"midi":74,"time":126.171008,"velocity":0.4251968503937008},{"duration":0.042856999999997925,"midi":74,"time":126.213865,"velocity":0.4251968503937008},{"duration":0.042856999999997925,"midi":74,"time":126.256722,"velocity":0.4251968503937008},{"duration":0.042856999999997925,"midi":72,"time":126.685292,"velocity":0.4251968503937008},{"duration":0.042856999999997925,"midi":72,"time":126.728149,"velocity":0.4251968503937008},{"duration":0.042856999999997925,"midi":72,"time":126.771006,"velocity":0.4251968503937008},{"duration":0.042856999999997925,"midi":72,"time":126.85672,"velocity":0.4251968503937008},{"duration":0.042856999999997925,"midi":72,"time":126.899577,"velocity":0.4251968503937008},{"duration":0.042857000000012135,"midi":72,"time":126.94243399999999,"velocity":0.4251968503937008},{"duration":0.042856999999997925,"midi":72,"time":126.985291,"velocity":0.4251968503937008},{"duration":0.042856999999997925,"midi":72,"time":127.028148,"velocity":0.4251968503937008},{"duration":0.042856999999997925,"midi":72,"time":127.071005,"velocity":0.4251968503937008},{"duration":0.042857000000012135,"midi":74,"time":127.54243199999999,"velocity":0.4251968503937008},{"duration":0.042856999999997925,"midi":74,"time":127.585289,"velocity":0.4251968503937008},{"duration":0.042856999999997925,"midi":74,"time":127.628146,"velocity":0.4251968503937008},{"duration":0.042856999999997925,"midi":74,"time":127.671003,"velocity":0.4251968503937008},{"duration":0.042856999999997925,"midi":74,"time":127.71386,"velocity":0.4251968503937008},{"duration":0.042856999999997925,"midi":74,"time":127.756717,"velocity":0.4251968503937008},{"duration":0.042856999999997925,"midi":87,"time":128.228144,"velocity":0.4251968503937008},{"duration":0.042857000000026346,"midi":87,"time":128.27100099999998,"velocity":0.4251968503937008},{"duration":0.042856999999997925,"midi":87,"time":128.313858,"velocity":0.4251968503937008},{"duration":0.042856999999997925,"midi":84,"time":128.742428,"velocity":0.4251968503937008},{"duration":0.042856999999997925,"midi":84,"time":128.785285,"velocity":0.4251968503937008},{"duration":0.042857000000026346,"midi":84,"time":128.82814199999999,"velocity":0.4251968503937008},{"duration":0.042856999999997925,"midi":83,"time":128.913856,"velocity":0.4251968503937008},{"duration":0.042856999999997925,"midi":83,"time":128.956713,"velocity":0.4251968503937008},{"duration":0.042856999999997925,"midi":83,"time":128.99957,"velocity":0.4251968503937008},{"duration":0.042857000000026346,"midi":84,"time":129.42813999999998,"velocity":0.4251968503937008},{"duration":0.042856999999997925,"midi":84,"time":129.470997,"velocity":0.4251968503937008},{"duration":0.042856999999997925,"midi":84,"time":129.513854,"velocity":0.4251968503937008},{"duration":0.042856999999997925,"midi":79,"time":129.599568,"velocity":0.4251968503937008},{"duration":0.042856999999997925,"midi":79,"time":129.642425,"velocity":0.4251968503937008},{"duration":0.042856999999997925,"midi":79,"time":129.685282,"velocity":0.4251968503937008},{"duration":0.042857000000026346,"midi":79,"time":130.62813599999998,"velocity":0.4251968503937008},{"duration":0.042856999999997925,"midi":79,"time":130.670993,"velocity":0.4251968503937008},{"duration":0.042856999999997925,"midi":79,"time":130.71385,"velocity":0.4251968503937008},{"duration":0.042856999999997925,"midi":78,"time":130.970992,"velocity":0.4251968503937008},{"duration":0.042856999999997925,"midi":78,"time":131.013849,"velocity":0.4251968503937008},{"duration":0.042856999999997925,"midi":78,"time":131.056706,"velocity":0.4251968503937008},{"duration":0.042856999999997925,"midi":79,"time":131.485276,"velocity":0.4251968503937008},{"duration":0.042856999999997925,"midi":79,"time":131.528133,"velocity":0.4251968503937008},{"duration":0.042856999999997925,"midi":79,"time":131.57099,"velocity":0.4251968503937008},{"duration":0.042856999999997925,"midi":87,"time":131.656704,"velocity":0.4251968503937008},{"duration":0.042856999999997925,"midi":87,"time":131.699561,"velocity":0.4251968503937008},{"duration":0.042856999999997925,"midi":87,"time":131.742418,"velocity":0.4251968503937008},{"duration":0.042856999999997925,"midi":86,"time":132.170988,"velocity":0.4251968503937008},{"duration":0.042856999999997925,"midi":86,"time":132.213845,"velocity":0.4251968503937008},{"duration":0.042856999999997925,"midi":86,"time":132.256702,"velocity":0.4251968503937008},{"duration":0.042856999999997925,"midi":84,"time":132.342416,"velocity":0.4251968503937008},{"duration":0.042857000000026346,"midi":84,"time":132.38527299999998,"velocity":0.4251968503937008},{"duration":0.042856999999997925,"midi":84,"time":132.42813,"velocity":0.4251968503937008},{"duration":0.042856999999997925,"midi":83,"time":133.028128,"velocity":0.4251968503937008},{"duration":0.042856999999997925,"midi":83,"time":133.028128,"velocity":0.4251968503937008},{"duration":0.042856999999997925,"midi":83,"time":133.070985,"velocity":0.4251968503937008},{"duration":0.042856999999997925,"midi":83,"time":133.113842,"velocity":0.4251968503937008},{"duration":0.042856999999997925,"midi":87,"time":133.71384,"velocity":0.4251968503937008},{"duration":0.042856999999997925,"midi":87,"time":133.756697,"velocity":0.4251968503937008},{"duration":0.042856999999997925,"midi":87,"time":133.799554,"velocity":0.4251968503937008},{"duration":0.042856999999997925,"midi":84,"time":134.228124,"velocity":0.4251968503937008},{"duration":0.042856999999997925,"midi":84,"time":134.270981,"velocity":0.4251968503937008},{"duration":0.042856999999997925,"midi":84,"time":134.313838,"velocity":0.4251968503937008},{"duration":0.042856999999997925,"midi":83,"time":134.399552,"velocity":0.4251968503937008},{"duration":0.042856999999997925,"midi":83,"time":134.442409,"velocity":0.4251968503937008},{"duration":0.042856999999997925,"midi":83,"time":134.485266,"velocity":0.4251968503937008},{"duration":0.042856999999997925,"midi":84,"time":134.913836,"velocity":0.4251968503937008},{"duration":0.042856999999997925,"midi":84,"time":134.956693,"velocity":0.4251968503937008},{"duration":0.042856999999997925,"midi":84,"time":134.99955,"velocity":0.4251968503937008},{"duration":0.042856999999997925,"midi":79,"time":135.085264,"velocity":0.4251968503937008},{"duration":0.042856999999997925,"midi":79,"time":135.128121,"velocity":0.4251968503937008},{"duration":0.042856999999997925,"midi":79,"time":135.170978,"velocity":0.4251968503937008},{"duration":0.042856999999997925,"midi":91,"time":136.113832,"velocity":0.4251968503937008},{"duration":0.042856999999997925,"midi":91,"time":136.156689,"velocity":0.4251968503937008},{"duration":0.042856999999997925,"midi":91,"time":136.199546,"velocity":0.4251968503937008},{"duration":0.042856999999997925,"midi":90,"time":136.45668799999999,"velocity":0.4251968503937008},{"duration":0.042857000000026346,"midi":90,"time":136.49954499999998,"velocity":0.4251968503937008},{"duration":0.042856999999997925,"midi":90,"time":136.542402,"velocity":0.4251968503937008},{"duration":0.042856999999997925,"midi":87,"time":136.970972,"velocity":0.4251968503937008},{"duration":0.042856999999997925,"midi":87,"time":137.013829,"velocity":0.4251968503937008},{"duration":0.042857000000026346,"midi":87,"time":137.05668599999998,"velocity":0.4251968503937008},{"duration":0.042856999999997925,"midi":86,"time":137.1424,"velocity":0.4251968503937008},{"duration":0.042856999999997925,"midi":86,"time":137.185257,"velocity":0.4251968503937008},{"duration":0.042856999999997925,"midi":86,"time":137.228114,"velocity":0.4251968503937008},{"duration":0.042857000000026346,"midi":84,"time":137.65668399999998,"velocity":0.4251968503937008},{"duration":0.042856999999997925,"midi":84,"time":137.699541,"velocity":0.4251968503937008},{"duration":0.042856999999997925,"midi":84,"time":137.742398,"velocity":0.4251968503937008},{"duration":0.042856999999997925,"midi":84,"time":137.828112,"velocity":0.4251968503937008},{"duration":0.042856999999997925,"midi":84,"time":137.870969,"velocity":0.4251968503937008},{"duration":0.042856999999997925,"midi":84,"time":137.913826,"velocity":0.4251968503937008},{"duration":0.042856999999997925,"midi":84,"time":137.956683,"velocity":0.4251968503937008},{"duration":0.042856999999997925,"midi":84,"time":137.99954,"velocity":0.4251968503937008},{"duration":0.042856999999997925,"midi":65,"time":137.99954,"velocity":0.4251968503937008},{"duration":0.042856999999997925,"midi":67,"time":138.170968,"velocity":0.4251968503937008},{"duration":0.042856999999997925,"midi":68,"time":138.342396,"velocity":0.4251968503937008},{"duration":0.042856999999997925,"midi":71,"time":138.513824,"velocity":0.4251968503937008},{"duration":0.042856999999997925,"midi":86,"time":138.513824,"velocity":0.4251968503937008},{"duration":0.042856999999997925,"midi":86,"time":138.556681,"velocity":0.4251968503937008},{"duration":0.042856999999997925,"midi":86,"time":138.599538,"velocity":0.4251968503937008},{"duration":0.042856999999997925,"midi":86,"time":138.642395,"velocity":0.4251968503937008},{"duration":0.042856999999997925,"midi":86,"time":138.685252,"velocity":0.4251968503937008},{"duration":0.042856999999997925,"midi":72,"time":138.685252,"velocity":0.4251968503937008},{"duration":0.042856999999997925,"midi":74,"time":138.85668,"velocity":0.4251968503937008},{"duration":0.042856999999997925,"midi":77,"time":139.028108,"velocity":0.4251968503937008},{"duration":0.042856999999997925,"midi":79,"time":139.199536,"velocity":0.4251968503937008},{"duration":0.042856999999997925,"midi":79,"time":139.242393,"velocity":0.4251968503937008},{"duration":0.042856999999997925,"midi":80,"time":139.28525,"velocity":0.4251968503937008},{"duration":0.042856999999997925,"midi":80,"time":139.328107,"velocity":0.4251968503937008},{"duration":0.042856999999997925,"midi":79,"time":139.370964,"velocity":0.4251968503937008},{"duration":0.042857000000026346,"midi":79,"time":139.41382099999998,"velocity":0.4251968503937008},{"duration":0.042856999999997925,"midi":78,"time":139.456678,"velocity":0.4251968503937008},{"duration":0.042856999999997925,"midi":78,"time":139.499535,"velocity":0.4251968503937008},{"duration":0.042856999999997925,"midi":79,"time":139.542392,"velocity":0.4251968503937008},{"duration":0.042856999999997925,"midi":79,"time":139.585249,"velocity":0.4251968503937008},{"duration":0.042856999999997925,"midi":72,"time":139.71382,"velocity":0.4251968503937008},{"duration":0.042856999999997925,"midi":72,"time":139.756677,"velocity":0.4251968503937008},{"duration":0.042856999999997925,"midi":75,"time":139.885248,"velocity":0.4251968503937008},{"duration":0.042856999999997925,"midi":75,"time":139.928105,"velocity":0.4251968503937008},{"duration":0.042856999999997925,"midi":74,"time":140.228104,"velocity":0.4251968503937008},{"duration":0.042856999999997925,"midi":74,"time":140.270961,"velocity":0.4251968503937008},{"duration":0.042856999999997925,"midi":75,"time":140.313818,"velocity":0.4251968503937008},{"duration":0.042856999999997925,"midi":75,"time":140.356675,"velocity":0.4251968503937008},{"duration":0.042856999999997925,"midi":74,"time":140.399532,"velocity":0.4251968503937008},{"duration":0.042856999999997925,"midi":74,"time":140.442389,"velocity":0.4251968503937008},{"duration":0.042856999999997925,"midi":72,"time":140.485246,"velocity":0.4251968503937008},{"duration":0.042856999999997925,"midi":72,"time":140.528103,"velocity":0.4251968503937008},{"duration":0.042857000000026346,"midi":79,"time":140.57095999999999,"velocity":0.4251968503937008},{"duration":0.042856999999997925,"midi":79,"time":140.613817,"velocity":0.4251968503937008},{"duration":0.042856999999997925,"midi":80,"time":140.656674,"velocity":0.4251968503937008},{"duration":0.042856999999997925,"midi":80,"time":140.699531,"velocity":0.4251968503937008},{"duration":0.042856999999997925,"midi":79,"time":140.742388,"velocity":0.4251968503937008},{"duration":0.042856999999997925,"midi":79,"time":140.785245,"velocity":0.4251968503937008},{"duration":0.042856999999997925,"midi":78,"time":140.828102,"velocity":0.4251968503937008},{"duration":0.042856999999997925,"midi":78,"time":140.870959,"velocity":0.4251968503937008},{"duration":0.042856999999997925,"midi":79,"time":140.913816,"velocity":0.4251968503937008},{"duration":0.042856999999997925,"midi":79,"time":140.956673,"velocity":0.4251968503937008},{"duration":0.042856999999997925,"midi":72,"time":141.085244,"velocity":0.4251968503937008},{"duration":0.042856999999997925,"midi":72,"time":141.128101,"velocity":0.4251968503937008},{"duration":0.042856999999997925,"midi":75,"time":141.256672,"velocity":0.4251968503937008},{"duration":0.042856999999997925,"midi":75,"time":141.299529,"velocity":0.4251968503937008},{"duration":0.042856999999997925,"midi":74,"time":141.599528,"velocity":0.4251968503937008},{"duration":0.042856999999997925,"midi":74,"time":141.642385,"velocity":0.4251968503937008},{"duration":0.042856999999997925,"midi":75,"time":141.685242,"velocity":0.4251968503937008},{"duration":0.042856999999997925,"midi":75,"time":141.728099,"velocity":0.4251968503937008},{"duration":0.042857000000026346,"midi":74,"time":141.77095599999998,"velocity":0.4251968503937008},{"duration":0.042856999999997925,"midi":74,"time":141.813813,"velocity":0.4251968503937008},{"duration":0.042856999999997925,"midi":72,"time":141.85667,"velocity":0.4251968503937008},{"duration":0.042856999999997925,"midi":72,"time":141.899527,"velocity":0.4251968503937008},{"duration":0.042856999999997925,"midi":79,"time":141.942384,"velocity":0.4251968503937008},{"duration":0.042856999999997925,"midi":79,"time":141.985241,"velocity":0.4251968503937008},{"duration":0.042856999999997925,"midi":80,"time":142.028098,"velocity":0.4251968503937008},{"duration":0.042856999999997925,"midi":80,"time":142.070955,"velocity":0.4251968503937008},{"duration":0.042856999999997925,"midi":79,"time":142.113812,"velocity":0.4251968503937008},{"duration":0.042856999999997925,"midi":79,"time":142.156669,"velocity":0.4251968503937008},{"duration":0.042856999999997925,"midi":78,"time":142.199526,"velocity":0.4251968503937008},{"duration":0.042856999999997925,"midi":78,"time":142.242383,"velocity":0.4251968503937008},{"duration":0.042856999999997925,"midi":79,"time":142.28524,"velocity":0.4251968503937008},{"duration":0.042856999999997925,"midi":79,"time":142.32809699999999,"velocity":0.4251968503937008},{"duration":0.042856999999997925,"midi":72,"time":142.456668,"velocity":0.4251968503937008},{"duration":0.042856999999997925,"midi":72,"time":142.499525,"velocity":0.4251968503937008},{"duration":0.042856999999997925,"midi":75,"time":142.628096,"velocity":0.4251968503937008},{"duration":0.042856999999997925,"midi":75,"time":142.670953,"velocity":0.4251968503937008},{"duration":0.042856999999997925,"midi":79,"time":142.970952,"velocity":0.4251968503937008},{"duration":0.042856999999997925,"midi":79,"time":143.013809,"velocity":0.4251968503937008},{"duration":0.042856999999997925,"midi":77,"time":143.056666,"velocity":0.4251968503937008},{"duration":0.042856999999997925,"midi":77,"time":143.099523,"velocity":0.4251968503937008},{"duration":0.042856999999997925,"midi":75,"time":143.14238,"velocity":0.4251968503937008},{"duration":0.042856999999997925,"midi":75,"time":143.185237,"velocity":0.4251968503937008},{"duration":0.042856999999997925,"midi":74,"time":143.228094,"velocity":0.4251968503937008},{"duration":0.042856999999997925,"midi":74,"time":143.270951,"velocity":0.4251968503937008},{"duration":0.042856999999997925,"midi":72,"time":143.313808,"velocity":0.4251968503937008},{"duration":0.042856999999997925,"midi":72,"time":143.356665,"velocity":0.4251968503937008},{"duration":0.042856999999997925,"midi":74,"time":143.399522,"velocity":0.4251968503937008},{"duration":0.042856999999997925,"midi":74,"time":143.442379,"velocity":0.4251968503937008},{"duration":0.042856999999997925,"midi":72,"time":143.485236,"velocity":0.4251968503937008},{"duration":0.042857000000026346,"midi":72,"time":143.52809299999998,"velocity":0.4251968503937008},{"duration":0.042856999999997925,"midi":71,"time":143.57095,"velocity":0.4251968503937008},{"duration":0.042856999999997925,"midi":71,"time":143.613807,"velocity":0.4251968503937008},{"duration":0.042856999999997925,"midi":72,"time":143.656664,"velocity":0.4251968503937008},{"duration":0.042856999999997925,"midi":72,"time":143.699521,"velocity":0.4251968503937008},{"duration":0.042856999999997925,"midi":74,"time":143.742378,"velocity":0.4251968503937008},{"duration":0.042856999999997925,"midi":74,"time":143.785235,"velocity":0.4251968503937008},{"duration":0.042856999999997925,"midi":75,"time":143.828092,"velocity":0.4251968503937008},{"duration":0.042856999999997925,"midi":75,"time":143.870949,"velocity":0.4251968503937008},{"duration":0.042856999999997925,"midi":79,"time":143.913806,"velocity":0.4251968503937008},{"duration":0.042856999999997925,"midi":79,"time":143.956663,"velocity":0.4251968503937008},{"duration":0.042856999999997925,"midi":84,"time":143.99952,"velocity":0.4251968503937008},{"duration":0.042856999999997925,"midi":84,"time":144.042377,"velocity":0.4251968503937008}]},{"instrument":{"family":"strings","number":42,"name":"cello"},"notes":[{"duration":0.042857000000000145,"midi":48,"time":2.057136,"velocity":0.3937007874015748},{"duration":0.042857000000000145,"midi":51,"time":2.057136,"velocity":0.3937007874015748},{"duration":0.042857000000000145,"midi":55,"time":2.057136,"velocity":0.3937007874015748},{"duration":0.042857000000000145,"midi":48,"time":2.742848,"velocity":0.3937007874015748},{"duration":0.042857000000000145,"midi":53,"time":2.742848,"velocity":0.3937007874015748},{"duration":0.042857000000000145,"midi":56,"time":2.742848,"velocity":0.3937007874015748},{"duration":0.0428569999999997,"midi":47,"time":3.42856,"velocity":0.3937007874015748},{"duration":0.0428569999999997,"midi":50,"time":3.42856,"velocity":0.3937007874015748},{"duration":0.0428569999999997,"midi":55,"time":3.42856,"velocity":0.3937007874015748},{"duration":0.0428569999999997,"midi":48,"time":4.799984,"velocity":0.3937007874015748},{"duration":0.0428569999999997,"midi":52,"time":4.799984,"velocity":0.3937007874015748},{"duration":0.0428569999999997,"midi":55,"time":4.799984,"velocity":0.3937007874015748},{"duration":0.0428569999999997,"midi":55,"time":5.485696,"velocity":0.3937007874015748},{"duration":0.0428569999999997,"midi":58,"time":5.485696,"velocity":0.3937007874015748},{"duration":0.0428569999999997,"midi":52,"time":5.485696,"velocity":0.3937007874015748},{"duration":0.04285700000000059,"midi":53,"time":6.171408,"velocity":0.3937007874015748},{"duration":0.04285700000000059,"midi":60,"time":6.171408,"velocity":0.3937007874015748},{"duration":0.04285700000000059,"midi":56,"time":6.171408,"velocity":0.3937007874015748},{"duration":0.0428569999999997,"midi":53,"time":7.542832,"velocity":0.3937007874015748},{"duration":0.0428569999999997,"midi":56,"time":7.542832,"velocity":0.3937007874015748},{"duration":0.0428569999999997,"midi":50,"time":7.542832,"velocity":0.3937007874015748},{"duration":0.0428569999999997,"midi":55,"time":8.228544,"velocity":0.3937007874015748},{"duration":0.0428569999999997,"midi":50,"time":8.228544,"velocity":0.3937007874015748},{"duration":0.0428569999999997,"midi":47,"time":8.228544,"velocity":0.3937007874015748},{"duration":0.0428569999999997,"midi":55,"time":8.914256,"velocity":0.3937007874015748},{"duration":0.0428569999999997,"midi":51,"time":8.914256,"velocity":0.3937007874015748},{"duration":0.0428569999999997,"midi":48,"time":8.914256,"velocity":0.3937007874015748},{"duration":0.0428569999999997,"midi":46,"time":9.257112,"velocity":0.3937007874015748},{"duration":0.0428569999999997,"midi":53,"time":9.257112,"velocity":0.3937007874015748},{"duration":0.0428569999999997,"midi":50,"time":9.257112,"velocity":0.3937007874015748},{"duration":0.0428569999999997,"midi":48,"time":9.599968,"velocity":0.3937007874015748},{"duration":0.0428569999999997,"midi":45,"time":9.599968,"velocity":0.3937007874015748},{"duration":0.0428569999999997,"midi":51,"time":9.599968,"velocity":0.3937007874015748},{"duration":0.0428569999999997,"midi":56,"time":10.28568,"velocity":0.3937007874015748},{"duration":0.0428569999999997,"midi":50,"time":10.28568,"velocity":0.3937007874015748},{"duration":0.0428569999999997,"midi":53,"time":10.28568,"velocity":0.3937007874015748},{"duration":0.0428569999999997,"midi":51,"time":10.971392,"velocity":0.3937007874015748},{"duration":0.0428569999999997,"midi":48,"time":10.971392,"velocity":0.3937007874015748},{"duration":0.0428569999999997,"midi":44,"time":10.971392,"velocity":0.3937007874015748},{"duration":0.0428569999999997,"midi":47,"time":11.99996,"velocity":0.3937007874015748},{"duration":0.0428569999999997,"midi":43,"time":11.99996,"velocity":0.3937007874015748},{"duration":0.0428569999999997,"midi":50,"time":11.99996,"velocity":0.3937007874015748},{"duration":0.0428569999999997,"midi":55,"time":13.028528,"velocity":0.3937007874015748},{"duration":0.0428569999999997,"midi":48,"time":13.028528,"velocity":0.3937007874015748},{"duration":0.0428569999999997,"midi":51,"time":13.028528,"velocity":0.3937007874015748},{"duration":0.0428569999999997,"midi":48,"time":13.71424,"velocity":0.3937007874015748},{"duration":0.0428569999999997,"midi":53,"time":13.71424,"velocity":0.3937007874015748},{"duration":0.0428569999999997,"midi":56,"time":13.71424,"velocity":0.3937007874015748},{"duration":0.04285700000000148,"midi":55,"time":14.399951999999999,"velocity":0.3937007874015748},{"duration":0.04285700000000148,"midi":50,"time":14.399951999999999,"velocity":0.3937007874015748},{"duration":0.04285700000000148,"midi":47,"time":14.399951999999999,"velocity":0.3937007874015748},{"duration":0.0428569999999997,"midi":48,"time":15.771376,"velocity":0.3937007874015748},{"duration":0.0428569999999997,"midi":52,"time":15.771376,"velocity":0.3937007874015748},{"duration":0.0428569999999997,"midi":55,"time":15.771376,"velocity":0.3937007874015748},{"duration":0.04285700000000148,"midi":58,"time":16.457088,"velocity":0.3937007874015748},{"duration":0.04285700000000148,"midi":52,"time":16.457088,"velocity":0.3937007874015748},{"duration":0.04285700000000148,"midi":55,"time":16.457088,"velocity":0.3937007874015748},{"duration":0.042856999999997925,"midi":53,"time":17.1428,"velocity":0.3937007874015748},{"duration":0.042856999999997925,"midi":56,"time":17.1428,"velocity":0.3937007874015748},{"duration":0.042856999999997925,"midi":60,"time":17.1428,"velocity":0.3937007874015748},{"duration":0.04285700000000148,"midi":50,"time":18.514224,"velocity":0.3937007874015748},{"duration":0.04285700000000148,"midi":53,"time":18.514224,"velocity":0.3937007874015748},{"duration":0.04285700000000148,"midi":56,"time":18.514224,"velocity":0.3937007874015748},{"duration":0.042856999999997925,"midi":55,"time":19.199936,"velocity":0.3937007874015748},{"duration":0.042856999999997925,"midi":47,"time":19.199936,"velocity":0.3937007874015748},{"duration":0.042856999999997925,"midi":50,"time":19.199936,"velocity":0.3937007874015748},{"duration":0.04285700000000148,"midi":48,"time":19.885648,"velocity":0.3937007874015748},{"duration":0.04285700000000148,"midi":51,"time":19.885648,"velocity":0.3937007874015748},{"duration":0.04285700000000148,"midi":55,"time":19.885648,"velocity":0.3937007874015748},{"duration":0.042856999999997925,"midi":53,"time":20.228504,"velocity":0.3937007874015748},{"duration":0.042856999999997925,"midi":50,"time":20.228504,"velocity":0.3937007874015748},{"duration":0.042856999999997925,"midi":46,"time":20.228504,"velocity":0.3937007874015748},{"duration":0.04285700000000148,"midi":45,"time":20.57136,"velocity":0.3937007874015748},{"duration":0.04285700000000148,"midi":48,"time":20.57136,"velocity":0.3937007874015748},{"duration":0.04285700000000148,"midi":51,"time":20.57136,"velocity":0.3937007874015748},{"duration":0.042856999999997925,"midi":48,"time":21.257072,"velocity":0.3937007874015748},{"duration":0.042856999999997925,"midi":53,"time":21.257072,"velocity":0.3937007874015748},{"duration":0.042856999999997925,"midi":44,"time":21.257072,"velocity":0.3937007874015748},{"duration":0.04285700000000148,"midi":55,"time":21.942784,"velocity":0.3937007874015748},{"duration":0.04285700000000148,"midi":50,"time":21.942784,"velocity":0.3937007874015748},{"duration":0.04285700000000148,"midi":43,"time":21.942784,"velocity":0.3937007874015748},{"duration":0.04285700000000148,"midi":47,"time":21.942784,"velocity":0.3937007874015748},{"duration":0.04285700000000148,"midi":48,"time":22.628496,"velocity":0.3937007874015748},{"duration":0.04285700000000148,"midi":55,"time":22.628496,"velocity":0.3937007874015748},{"duration":0.04285700000000148,"midi":60,"time":22.628496,"velocity":0.3937007874015748},{"duration":0.04285700000000148,"midi":51,"time":22.628496,"velocity":0.3937007874015748},{"duration":0.042856999999997925,"midi":55,"time":44.914136,"velocity":0.3937007874015748},{"duration":0.042856999999997925,"midi":55,"time":44.914136,"velocity":0.3937007874015748},{"duration":0.042856999999997925,"midi":67,"time":44.914136,"velocity":0.3937007874015748},{"duration":0.042856999999997925,"midi":63,"time":44.914136,"velocity":0.3937007874015748},{"duration":0.042856999999997925,"midi":67,"time":44.914136,"velocity":0.3937007874015748},{"duration":0.042856999999997925,"midi":60,"time":44.914136,"velocity":0.3937007874015748},{"duration":0.042856999999997925,"midi":63,"time":44.914136,"velocity":0.3937007874015748},{"duration":0.042856999999997925,"midi":60,"time":44.914136,"velocity":0.3937007874015748},{"duration":0.04285700000000503,"midi":63,"time":45.256992,"velocity":0.3937007874015748},{"duration":0.04285700000000503,"midi":48,"time":45.256992,"velocity":0.3937007874015748},{"duration":0.04285700000000503,"midi":48,"time":45.256992,"velocity":0.3937007874015748},{"duration":0.04285700000000503,"midi":55,"time":45.256992,"velocity":0.3937007874015748},{"duration":0.04285700000000503,"midi":72,"time":45.256992,"velocity":0.3937007874015748},{"duration":0.04285700000000503,"midi":72,"time":45.256992,"velocity":0.3937007874015748},{"duration":0.04285700000000503,"midi":55,"time":45.256992,"velocity":0.3937007874015748},{"duration":0.04285700000000503,"midi":63,"time":45.256992,"velocity":0.3937007874015748},{"duration":0.042856999999997925,"midi":48,"time":49.03912225,"velocity":0.3937007874015748},{"duration":0.042856999999997925,"midi":36,"time":49.03912225,"velocity":0.3937007874015748},{"duration":0.04285700000000503,"midi":48,"time":49.06055075,"velocity":0.3937007874015748},{"duration":0.04285700000000503,"midi":36,"time":49.06055075,"velocity":0.3937007874015748},{"duration":0.04285700000000503,"midi":48,"time":49.06055075,"velocity":0.3937007874015748},{"duration":0.04285700000000503,"midi":36,"time":49.06055075,"velocity":0.3937007874015748},{"duration":0.04285700000000503,"midi":48,"time":49.21055025,"velocity":0.3937007874015748},{"duration":0.04285700000000503,"midi":36,"time":49.21055025,"velocity":0.3937007874015748},{"duration":0.04285700000000503,"midi":36,"time":49.231978749999996,"velocity":0.3937007874015748},{"duration":0.04285700000000503,"midi":48,"time":49.231978749999996,"velocity":0.3937007874015748},{"duration":0.04285700000000503,"midi":36,"time":49.231978749999996,"velocity":0.3937007874015748},{"duration":0.04285700000000503,"midi":48,"time":49.231978749999996,"velocity":0.3937007874015748},{"duration":0.04285700000000503,"midi":48,"time":49.381978249999996,"velocity":0.3937007874015748},{"duration":0.04285700000000503,"midi":36,"time":49.381978249999996,"velocity":0.3937007874015748},{"duration":0.042856999999997925,"midi":36,"time":49.40340675,"velocity":0.3937007874015748},{"duration":0.042856999999997925,"midi":48,"time":49.40340675,"velocity":0.3937007874015748},{"duration":0.042856999999997925,"midi":36,"time":49.40340675,"velocity":0.3937007874015748},{"duration":0.042856999999997925,"midi":48,"time":49.40340675,"velocity":0.3937007874015748},{"duration":0.042856999999997925,"midi":36,"time":49.55340625,"velocity":0.3937007874015748},{"duration":0.042856999999997925,"midi":48,"time":49.55340625,"velocity":0.3937007874015748},{"duration":0.042856999999997925,"midi":48,"time":49.57483475,"velocity":0.3937007874015748},{"duration":0.042856999999997925,"midi":48,"time":49.57483475,"velocity":0.3937007874015748},{"duration":0.042856999999997925,"midi":36,"time":49.57483475,"velocity":0.3937007874015748},{"duration":0.042856999999997925,"midi":36,"time":49.57483475,"velocity":0.3937007874015748},{"duration":0.042856999999997925,"midi":48,"time":49.72483425,"velocity":0.3937007874015748},{"duration":0.042856999999997925,"midi":36,"time":49.72483425,"velocity":0.3937007874015748},{"duration":0.042856999999997925,"midi":48,"time":49.74626275,"velocity":0.3937007874015748},{"duration":0.042856999999997925,"midi":48,"time":49.74626275,"velocity":0.3937007874015748},{"duration":0.042856999999997925,"midi":36,"time":49.74626275,"velocity":0.3937007874015748},{"duration":0.042856999999997925,"midi":36,"time":49.74626275,"velocity":0.3937007874015748},{"duration":0.042856999999997925,"midi":36,"time":49.89626225,"velocity":0.3937007874015748},{"duration":0.042856999999997925,"midi":48,"time":49.89626225,"velocity":0.3937007874015748},{"duration":0.042856999999997925,"midi":36,"time":49.91769075,"velocity":0.3937007874015748},{"duration":0.042856999999997925,"midi":36,"time":49.91769075,"velocity":0.3937007874015748},{"duration":0.042856999999997925,"midi":48,"time":49.91769075,"velocity":0.3937007874015748},{"duration":0.042856999999997925,"midi":48,"time":49.91769075,"velocity":0.3937007874015748},{"duration":0.04285700000000503,"midi":36,"time":54.524818249999996,"velocity":0.3937007874015748},{"duration":0.04285700000000503,"midi":48,"time":54.524818249999996,"velocity":0.3937007874015748},{"duration":0.042856999999997925,"midi":36,"time":54.54624675,"velocity":0.3937007874015748},{"duration":0.042856999999997925,"midi":36,"time":54.54624675,"velocity":0.3937007874015748},{"duration":0.042856999999997925,"midi":48,"time":54.54624675,"velocity":0.3937007874015748},{"duration":0.042856999999997925,"midi":48,"time":54.54624675,"velocity":0.3937007874015748},{"duration":0.042856999999997925,"midi":48,"time":54.61053225,"velocity":0.3937007874015748},{"duration":0.042856999999997925,"midi":36,"time":54.61053225,"velocity":0.3937007874015748},{"duration":0.04285700000000503,"midi":48,"time":54.63196075,"velocity":0.3937007874015748},{"duration":0.04285700000000503,"midi":48,"time":54.63196075,"velocity":0.3937007874015748},{"duration":0.04285700000000503,"midi":36,"time":54.63196075,"velocity":0.3937007874015748},{"duration":0.04285700000000503,"midi":36,"time":54.63196075,"velocity":0.3937007874015748},{"duration":0.042856999999997925,"midi":36,"time":54.69624625,"velocity":0.3937007874015748},{"duration":0.042856999999997925,"midi":48,"time":54.69624625,"velocity":0.3937007874015748},{"duration":0.042856999999997925,"midi":36,"time":54.71767475,"velocity":0.3937007874015748},{"duration":0.042856999999997925,"midi":36,"time":54.71767475,"velocity":0.3937007874015748},{"duration":0.042856999999997925,"midi":48,"time":54.71767475,"velocity":0.3937007874015748},{"duration":0.042856999999997925,"midi":48,"time":54.71767475,"velocity":0.3937007874015748},{"duration":0.04285700000000503,"midi":48,"time":54.78196025,"velocity":0.3937007874015748},{"duration":0.04285700000000503,"midi":36,"time":54.78196025,"velocity":0.3937007874015748},{"duration":0.04285700000000503,"midi":36,"time":54.803388749999996,"velocity":0.3937007874015748},{"duration":0.04285700000000503,"midi":48,"time":54.803388749999996,"velocity":0.3937007874015748},{"duration":0.04285700000000503,"midi":48,"time":54.803388749999996,"velocity":0.3937007874015748},{"duration":0.04285700000000503,"midi":36,"time":54.803388749999996,"velocity":0.3937007874015748},{"duration":0.042856999999997925,"midi":48,"time":54.86767425,"velocity":0.3937007874015748},{"duration":0.042856999999997925,"midi":36,"time":54.86767425,"velocity":0.3937007874015748},{"duration":0.042856999999997925,"midi":48,"time":54.88910275,"velocity":0.3937007874015748},{"duration":0.042856999999997925,"midi":36,"time":54.88910275,"velocity":0.3937007874015748},{"duration":0.042856999999997925,"midi":36,"time":54.88910275,"velocity":0.3937007874015748},{"duration":0.042856999999997925,"midi":48,"time":54.88910275,"velocity":0.3937007874015748},{"duration":0.042856999999997925,"midi":36,"time":55.03910225,"velocity":0.3937007874015748},{"duration":0.042856999999997925,"midi":48,"time":55.03910225,"velocity":0.3937007874015748},{"duration":0.042856999999997925,"midi":48,"time":55.06053075,"velocity":0.3937007874015748},{"duration":0.042856999999997925,"midi":36,"time":55.06053075,"velocity":0.3937007874015748},{"duration":0.042856999999997925,"midi":48,"time":55.06053075,"velocity":0.3937007874015748},{"duration":0.042856999999997925,"midi":36,"time":55.06053075,"velocity":0.3937007874015748},{"duration":0.042856999999997925,"midi":36,"time":55.21053025,"velocity":0.3937007874015748},{"duration":0.042856999999997925,"midi":48,"time":55.21053025,"velocity":0.3937007874015748},{"duration":0.04285700000000503,"midi":48,"time":55.23195875,"velocity":0.3937007874015748},{"duration":0.04285700000000503,"midi":36,"time":55.23195875,"velocity":0.3937007874015748},{"duration":0.04285700000000503,"midi":36,"time":55.23195875,"velocity":0.3937007874015748},{"duration":0.04285700000000503,"midi":48,"time":55.23195875,"velocity":0.3937007874015748},{"duration":0.04285700000000503,"midi":48,"time":55.38195825,"velocity":0.3937007874015748},{"duration":0.04285700000000503,"midi":36,"time":55.38195825,"velocity":0.3937007874015748},{"duration":0.04285700000000503,"midi":36,"time":55.403386749999996,"velocity":0.3937007874015748},{"duration":0.04285700000000503,"midi":48,"time":55.403386749999996,"velocity":0.3937007874015748},{"duration":0.04285700000000503,"midi":36,"time":55.403386749999996,"velocity":0.3937007874015748},{"duration":0.04285700000000503,"midi":48,"time":55.403386749999996,"velocity":0.3937007874015748},{"duration":0.042856999999997925,"midi":36,"time":56.914096,"velocity":0.3937007874015748},{"duration":0.042856999999997925,"midi":48,"time":57.085524,"velocity":0.3937007874015748},{"duration":0.042856999999997925,"midi":36,"time":57.256952,"velocity":0.3937007874015748},{"duration":0.04285700000000503,"midi":48,"time":57.42838,"velocity":0.3937007874015748},{"duration":0.04285700000000503,"midi":36,"time":57.599807999999996,"velocity":0.3937007874015748},{"duration":0.042856999999997925,"midi":48,"time":57.771236,"velocity":0.3937007874015748},{"duration":0.042856999999997925,"midi":36,"time":57.942664,"velocity":0.3937007874015748},{"duration":0.042856999999997925,"midi":48,"time":58.114092,"velocity":0.3937007874015748},{"duration":0.042856999999997925,"midi":39,"time":58.28552,"velocity":0.3937007874015748},{"duration":0.04285700000000503,"midi":51,"time":58.456948,"velocity":0.3937007874015748},{"duration":0.04285700000000503,"midi":72,"time":58.456948,"velocity":0.3937007874015748},{"duration":0.04285700000000503,"midi":39,"time":58.628375999999996,"velocity":0.3937007874015748},{"duration":0.04285700000000503,"midi":72,"time":58.628375999999996,"velocity":0.3937007874015748},{"duration":0.042856999999997925,"midi":72,"time":58.799804,"velocity":0.3937007874015748},{"duration":0.042856999999997925,"midi":51,"time":58.799804,"velocity":0.3937007874015748},{"duration":0.042856999999997925,"midi":39,"time":58.971232,"velocity":0.3937007874015748},{"duration":0.042856999999997925,"midi":72,"time":58.971232,"velocity":0.3937007874015748},{"duration":0.042856999999997925,"midi":51,"time":59.14266,"velocity":0.3937007874015748},{"duration":0.042856999999997925,"midi":72,"time":59.14266,"velocity":0.3937007874015748},{"duration":0.042856999999997925,"midi":39,"time":59.314088,"velocity":0.3937007874015748},{"duration":0.04285700000000503,"midi":51,"time":59.485516,"velocity":0.3937007874015748},{"duration":0.04285700000000503,"midi":38,"time":59.656943999999996,"velocity":0.3937007874015748},{"duration":0.042856999999997925,"midi":50,"time":59.828372,"velocity":0.3937007874015748},{"duration":0.042856999999997925,"midi":38,"time":59.9998,"velocity":0.3937007874015748},{"duration":0.042856999999997925,"midi":50,"time":60.171228,"velocity":0.3937007874015748},{"duration":0.042856999999997925,"midi":38,"time":60.342656,"velocity":0.3937007874015748},{"duration":0.04285700000000503,"midi":50,"time":60.514084,"velocity":0.3937007874015748},{"duration":0.04285700000000503,"midi":38,"time":60.685511999999996,"velocity":0.3937007874015748},{"duration":0.042856999999997925,"midi":50,"time":60.85694,"velocity":0.3937007874015748},{"duration":0.042856999999997925,"midi":43,"time":61.028368,"velocity":0.3937007874015748},{"duration":0.042856999999997925,"midi":55,"time":61.199796,"velocity":0.3937007874015748},{"duration":0.042856999999997925,"midi":41,"time":61.371224,"velocity":0.3937007874015748},{"duration":0.04285700000000503,"midi":53,"time":61.542652,"velocity":0.3937007874015748},{"duration":0.04285700000000503,"midi":39,"time":61.714079999999996,"velocity":0.3937007874015748},{"duration":0.042856999999997925,"midi":51,"time":61.885508,"velocity":0.3937007874015748},{"duration":0.042856999999997925,"midi":38,"time":62.056936,"velocity":0.3937007874015748},{"duration":0.042856999999997925,"midi":50,"time":62.228364,"velocity":0.3937007874015748},{"duration":0.042856999999997925,"midi":36,"time":62.399792,"velocity":0.3937007874015748},{"duration":0.04285700000000503,"midi":48,"time":62.57122,"velocity":0.3937007874015748},{"duration":0.04285700000000503,"midi":36,"time":62.742647999999996,"velocity":0.3937007874015748},{"duration":0.042856999999997925,"midi":48,"time":62.914076,"velocity":0.3937007874015748},{"duration":0.042856999999997925,"midi":36,"time":63.085504,"velocity":0.3937007874015748},{"duration":0.042856999999997925,"midi":48,"time":63.256932,"velocity":0.3937007874015748},{"duration":0.042856999999997925,"midi":36,"time":63.42836,"velocity":0.3937007874015748},{"duration":0.04285700000000503,"midi":48,"time":63.599788,"velocity":0.3937007874015748},{"duration":0.04285700000000503,"midi":39,"time":63.771215999999995,"velocity":0.3937007874015748},{"duration":0.042856999999997925,"midi":72,"time":63.942644,"velocity":0.3937007874015748},{"duration":0.042856999999997925,"midi":51,"time":63.942644,"velocity":0.3937007874015748},{"duration":0.042857000000012135,"midi":72,"time":64.114072,"velocity":0.3937007874015748},{"duration":0.042857000000012135,"midi":39,"time":64.114072,"velocity":0.3937007874015748},{"duration":0.042856999999997925,"midi":51,"time":64.2855,"velocity":0.3937007874015748},{"duration":0.042856999999997925,"midi":72,"time":64.2855,"velocity":0.3937007874015748},{"duration":0.042856999999997925,"midi":39,"time":64.456928,"velocity":0.3937007874015748},{"duration":0.042856999999997925,"midi":72,"time":64.456928,"velocity":0.3937007874015748},{"duration":0.042856999999997925,"midi":51,"time":64.628356,"velocity":0.3937007874015748},{"duration":0.042856999999997925,"midi":72,"time":64.628356,"velocity":0.3937007874015748},{"duration":0.042856999999997925,"midi":39,"time":64.799784,"velocity":0.3937007874015748},{"duration":0.042856999999997925,"midi":51,"time":64.971212,"velocity":0.3937007874015748},{"duration":0.042856999999997925,"midi":44,"time":65.14264,"velocity":0.3937007874015748},{"duration":0.042857000000012135,"midi":56,"time":65.31406799999999,"velocity":0.3937007874015748},{"duration":0.042856999999997925,"midi":44,"time":65.485496,"velocity":0.3937007874015748},{"duration":0.042856999999997925,"midi":56,"time":65.656924,"velocity":0.3937007874015748},{"duration":0.042856999999997925,"midi":44,"time":65.828352,"velocity":0.3937007874015748},{"duration":0.042856999999997925,"midi":56,"time":65.99978,"velocity":0.3937007874015748},{"duration":0.042857000000012135,"midi":44,"time":66.171208,"velocity":0.3937007874015748},{"duration":0.042856999999997925,"midi":56,"time":66.342636,"velocity":0.3937007874015748},{"duration":0.042856999999997925,"midi":43,"time":66.514064,"velocity":0.3937007874015748},{"duration":0.042856999999997925,"midi":43,"time":66.685492,"velocity":0.3937007874015748},{"duration":0.042856999999997925,"midi":43,"time":66.85692,"velocity":0.3937007874015748},{"duration":0.042856999999997925,"midi":43,"time":67.028348,"velocity":0.3937007874015748},{"duration":0.042856999999997925,"midi":43,"time":67.199776,"velocity":0.3937007874015748},{"duration":0.042856999999997925,"midi":43,"time":67.371204,"velocity":0.3937007874015748},{"duration":0.042856999999997925,"midi":43,"time":67.542632,"velocity":0.3937007874015748},{"duration":0.042856999999997925,"midi":43,"time":67.71406,"velocity":0.3937007874015748},{"duration":0.042856999999997925,"midi":43,"time":99.42824,"velocity":0.3937007874015748},{"duration":0.042856999999997925,"midi":43,"time":99.42824,"velocity":0.3937007874015748},{"duration":0.042856999999997925,"midi":43,"time":99.42824,"velocity":0.3937007874015748},{"duration":0.042856999999997925,"midi":43,"time":99.42824,"velocity":0.3937007874015748},{"duration":0.042856999999997925,"midi":55,"time":99.42824,"velocity":0.3937007874015748},{"duration":0.042856999999997925,"midi":55,"time":99.42824,"velocity":0.3937007874015748},{"duration":0.042856999999997925,"midi":41,"time":99.771096,"velocity":0.3937007874015748},{"duration":0.042856999999997925,"midi":41,"time":99.771096,"velocity":0.3937007874015748},{"duration":0.042856999999997925,"midi":41,"time":99.771096,"velocity":0.3937007874015748},{"duration":0.042856999999997925,"midi":53,"time":99.771096,"velocity":0.3937007874015748},{"duration":0.042856999999997925,"midi":41,"time":99.771096,"velocity":0.3937007874015748},{"duration":0.042856999999997925,"midi":53,"time":99.771096,"velocity":0.3937007874015748},{"duration":0.042856999999997925,"midi":39,"time":100.113952,"velocity":0.3937007874015748},{"duration":0.042856999999997925,"midi":51,"time":100.113952,"velocity":0.3937007874015748},{"duration":0.042856999999997925,"midi":39,"time":100.113952,"velocity":0.3937007874015748},{"duration":0.042856999999997925,"midi":39,"time":100.113952,"velocity":0.3937007874015748},{"duration":0.042856999999997925,"midi":39,"time":100.113952,"velocity":0.3937007874015748},{"duration":0.042856999999997925,"midi":51,"time":100.113952,"velocity":0.3937007874015748},{"duration":0.042856999999997925,"midi":50,"time":100.456808,"velocity":0.3937007874015748},{"duration":0.042856999999997925,"midi":38,"time":100.456808,"velocity":0.3937007874015748},{"duration":0.042856999999997925,"midi":38,"time":100.456808,"velocity":0.3937007874015748},{"duration":0.042856999999997925,"midi":38,"time":100.456808,"velocity":0.3937007874015748},{"duration":0.042856999999997925,"midi":50,"time":100.456808,"velocity":0.3937007874015748},{"duration":0.042856999999997925,"midi":38,"time":100.456808,"velocity":0.3937007874015748},{"duration":0.042857000000012135,"midi":36,"time":100.79966399999999,"velocity":0.3937007874015748},{"duration":0.042857000000012135,"midi":48,"time":100.79966399999999,"velocity":0.3937007874015748},{"duration":0.042857000000012135,"midi":36,"time":100.79966399999999,"velocity":0.3937007874015748},{"duration":0.042857000000012135,"midi":36,"time":100.79966399999999,"velocity":0.3937007874015748},{"duration":0.042857000000012135,"midi":48,"time":100.79966399999999,"velocity":0.3937007874015748},{"duration":0.042857000000012135,"midi":36,"time":100.79966399999999,"velocity":0.3937007874015748},{"duration":0.042856999999997925,"midi":67,"time":101.14252,"velocity":0.3937007874015748},{"duration":0.042856999999997925,"midi":63,"time":101.14252,"velocity":0.3937007874015748},{"duration":0.042856999999997925,"midi":65,"time":101.485376,"velocity":0.3937007874015748},{"duration":0.042856999999997925,"midi":68,"time":101.485376,"velocity":0.3937007874015748},{"duration":0.042856999999997925,"midi":56,"time":101.485376,"velocity":0.3937007874015748},{"duration":0.042856999999997925,"midi":44,"time":101.485376,"velocity":0.3937007874015748},{"duration":0.042856999999997925,"midi":56,"time":101.828232,"velocity":0.3937007874015748},{"duration":0.042856999999997925,"midi":65,"time":101.828232,"velocity":0.3937007874015748},{"duration":0.042856999999997925,"midi":62,"time":102.171088,"velocity":0.3937007874015748},{"duration":0.042856999999997925,"midi":55,"time":102.171088,"velocity":0.3937007874015748},{"duration":0.042856999999997925,"midi":43,"time":102.171088,"velocity":0.3937007874015748},{"duration":0.042856999999997925,"midi":67,"time":102.171088,"velocity":0.3937007874015748},{"duration":0.042856999999997925,"midi":51,"time":103.542512,"velocity":0.3937007874015748},{"duration":0.042856999999997925,"midi":39,"time":103.542512,"velocity":0.3937007874015748},{"duration":0.042856999999997925,"midi":60,"time":103.885368,"velocity":0.3937007874015748},{"duration":0.042856999999997925,"midi":67,"time":103.885368,"velocity":0.3937007874015748},{"duration":0.042856999999997925,"midi":64,"time":104.228224,"velocity":0.3937007874015748},{"duration":0.042856999999997925,"midi":70,"time":104.228224,"velocity":0.3937007874015748},{"duration":0.042856999999997925,"midi":48,"time":104.228224,"velocity":0.3937007874015748},{"duration":0.042856999999997925,"midi":36,"time":104.228224,"velocity":0.3937007874015748},{"duration":0.042856999999997925,"midi":67,"time":104.742508,"velocity":0.3937007874015748},{"duration":0.042856999999997925,"midi":64,"time":104.742508,"velocity":0.3937007874015748},{"duration":0.042857000000012135,"midi":41,"time":104.91393599999999,"velocity":0.3937007874015748},{"duration":0.042857000000012135,"midi":53,"time":104.91393599999999,"velocity":0.3937007874015748},{"duration":0.042856999999997925,"midi":50,"time":106.28536,"velocity":0.3937007874015748},{"duration":0.042856999999997925,"midi":38,"time":106.28536,"velocity":0.3937007874015748},{"duration":0.042856999999997925,"midi":62,"time":106.628216,"velocity":0.3937007874015748},{"duration":0.042856999999997925,"midi":68,"time":106.628216,"velocity":0.3937007874015748},{"duration":0.042857000000012135,"midi":67,"time":106.97107199999999,"velocity":0.3937007874015748},{"duration":0.042857000000012135,"midi":59,"time":106.97107199999999,"velocity":0.3937007874015748},{"duration":0.042857000000012135,"midi":55,"time":106.97107199999999,"velocity":0.3937007874015748},{"duration":0.042857000000012135,"midi":43,"time":106.97107199999999,"velocity":0.3937007874015748},{"duration":0.042856999999997925,"midi":65,"time":107.313928,"velocity":0.3937007874015748},{"duration":0.042856999999997925,"midi":62,"time":107.313928,"velocity":0.3937007874015748},{"duration":0.042856999999997925,"midi":63,"time":107.656784,"velocity":0.3937007874015748},{"duration":0.042856999999997925,"midi":60,"time":107.656784,"velocity":0.3937007874015748},{"duration":0.042856999999997925,"midi":48,"time":107.656784,"velocity":0.3937007874015748},{"duration":0.042856999999997925,"midi":36,"time":107.656784,"velocity":0.3937007874015748},{"duration":0.042856999999997925,"midi":67,"time":107.99964,"velocity":0.3937007874015748},{"duration":0.042856999999997925,"midi":63,"time":107.99964,"velocity":0.3937007874015748},{"duration":0.042856999999997925,"midi":66,"time":108.342496,"velocity":0.3937007874015748},{"duration":0.042856999999997925,"midi":72,"time":108.342496,"velocity":0.3937007874015748},{"duration":0.042856999999997925,"midi":45,"time":108.342496,"velocity":0.3937007874015748},{"duration":0.042856999999997925,"midi":57,"time":108.342496,"velocity":0.3937007874015748},{"duration":0.042856999999997925,"midi":69,"time":108.685352,"velocity":0.3937007874015748},{"duration":0.042856999999997925,"midi":66,"time":108.685352,"velocity":0.3937007874015748},{"duration":0.042857000000012135,"midi":42,"time":109.02820799999999,"velocity":0.3937007874015748},{"duration":0.042857000000012135,"midi":72,"time":109.02820799999999,"velocity":0.3937007874015748},{"duration":0.042857000000012135,"midi":66,"time":109.02820799999999,"velocity":0.3937007874015748},{"duration":0.042857000000012135,"midi":54,"time":109.02820799999999,"velocity":0.3937007874015748},{"duration":0.042856999999997925,"midi":67,"time":109.71392,"velocity":0.3937007874015748},{"duration":0.042856999999997925,"midi":71,"time":109.71392,"velocity":0.3937007874015748},{"duration":0.042856999999997925,"midi":55,"time":109.71392,"velocity":0.3937007874015748},{"duration":0.042856999999997925,"midi":43,"time":109.71392,"velocity":0.3937007874015748},{"duration":0.042856999999997925,"midi":72,"time":110.228204,"velocity":0.3937007874015748},{"duration":0.042856999999997925,"midi":48,"time":110.399632,"velocity":0.3937007874015748},{"duration":0.042856999999997925,"midi":72,"time":110.399632,"velocity":0.3937007874015748},{"duration":0.042856999999997925,"midi":60,"time":110.399632,"velocity":0.3937007874015748},{"duration":0.042857000000012135,"midi":36,"time":117.25675199999999,"velocity":0.3937007874015748},{"duration":0.042856999999997925,"midi":48,"time":117.42818,"velocity":0.3937007874015748},{"duration":0.042856999999997925,"midi":36,"time":117.599608,"velocity":0.3937007874015748},{"duration":0.042856999999997925,"midi":48,"time":117.771036,"velocity":0.3937007874015748},{"duration":0.042856999999997925,"midi":36,"time":117.942464,"velocity":0.3937007874015748},{"duration":0.042857000000012135,"midi":48,"time":118.11389199999999,"velocity":0.3937007874015748},{"duration":0.042856999999997925,"midi":36,"time":118.28532,"velocity":0.3937007874015748},{"duration":0.042856999999997925,"midi":48,"time":118.456748,"velocity":0.3937007874015748},{"duration":0.042856999999997925,"midi":39,"time":118.628176,"velocity":0.3937007874015748},{"duration":0.042856999999997925,"midi":72,"time":118.799604,"velocity":0.3937007874015748},{"duration":0.042856999999997925,"midi":51,"time":118.799604,"velocity":0.3937007874015748},{"duration":0.042856999999997925,"midi":39,"time":118.971032,"velocity":0.3937007874015748},{"duration":0.042856999999997925,"midi":72,"time":118.971032,"velocity":0.3937007874015748},{"duration":0.042856999999997925,"midi":72,"time":119.14246,"velocity":0.3937007874015748},{"duration":0.042856999999997925,"midi":51,"time":119.14246,"velocity":0.3937007874015748},{"duration":0.042857000000012135,"midi":39,"time":119.31388799999999,"velocity":0.3937007874015748},{"duration":0.042857000000012135,"midi":72,"time":119.31388799999999,"velocity":0.3937007874015748},{"duration":0.042856999999997925,"midi":51,"time":119.485316,"velocity":0.3937007874015748},{"duration":0.042856999999997925,"midi":72,"time":119.485316,"velocity":0.3937007874015748},{"duration":0.042856999999997925,"midi":39,"time":119.656744,"velocity":0.3937007874015748},{"duration":0.042856999999997925,"midi":51,"time":119.828172,"velocity":0.3937007874015748},{"duration":0.042856999999997925,"midi":38,"time":119.9996,"velocity":0.3937007874015748},{"duration":0.042857000000012135,"midi":50,"time":120.17102799999999,"velocity":0.3937007874015748},{"duration":0.042856999999997925,"midi":38,"time":120.342456,"velocity":0.3937007874015748},{"duration":0.042856999999997925,"midi":50,"time":120.513884,"velocity":0.3937007874015748},{"duration":0.042856999999997925,"midi":38,"time":120.685312,"velocity":0.3937007874015748},{"duration":0.042856999999997925,"midi":50,"time":120.85674,"velocity":0.3937007874015748},{"duration":0.042856999999997925,"midi":38,"time":121.028168,"velocity":0.3937007874015748},{"duration":0.042856999999997925,"midi":50,"time":121.199596,"velocity":0.3937007874015748},{"duration":0.042857000000012135,"midi":43,"time":121.37102399999999,"velocity":0.3937007874015748},{"duration":0.042856999999997925,"midi":55,"time":121.542452,"velocity":0.3937007874015748},{"duration":0.042856999999997925,"midi":41,"time":121.71388,"velocity":0.3937007874015748},{"duration":0.042856999999997925,"midi":53,"time":121.885308,"velocity":0.3937007874015748},{"duration":0.042856999999997925,"midi":39,"time":122.056736,"velocity":0.3937007874015748},{"duration":0.042857000000012135,"midi":51,"time":122.22816399999999,"velocity":0.3937007874015748},{"duration":0.042856999999997925,"midi":38,"time":122.399592,"velocity":0.3937007874015748},{"duration":0.042856999999997925,"midi":50,"time":122.57102,"velocity":0.3937007874015748},{"duration":0.042856999999997925,"midi":36,"time":122.742448,"velocity":0.3937007874015748},{"duration":0.042856999999997925,"midi":48,"time":122.913876,"velocity":0.3937007874015748},{"duration":0.042856999999997925,"midi":36,"time":123.085304,"velocity":0.3937007874015748},{"duration":0.042856999999997925,"midi":48,"time":123.256732,"velocity":0.3937007874015748},{"duration":0.042857000000012135,"midi":36,"time":123.42815999999999,"velocity":0.3937007874015748},{"duration":0.042856999999997925,"midi":48,"time":123.599588,"velocity":0.3937007874015748},{"duration":0.042856999999997925,"midi":36,"time":123.771016,"velocity":0.3937007874015748},{"duration":0.042856999999997925,"midi":48,"time":123.942444,"velocity":0.3937007874015748},{"duration":0.042856999999997925,"midi":39,"time":124.113872,"velocity":0.3937007874015748},{"duration":0.042857000000012135,"midi":51,"time":124.28529999999999,"velocity":0.3937007874015748},{"duration":0.042857000000012135,"midi":72,"time":124.28529999999999,"velocity":0.3937007874015748},{"duration":0.042856999999997925,"midi":39,"time":124.456728,"velocity":0.3937007874015748},{"duration":0.042856999999997925,"midi":72,"time":124.456728,"velocity":0.3937007874015748},{"duration":0.042856999999997925,"midi":51,"time":124.628156,"velocity":0.3937007874015748},{"duration":0.042856999999997925,"midi":72,"time":124.628156,"velocity":0.3937007874015748},{"duration":0.042856999999997925,"midi":39,"time":124.799584,"velocity":0.3937007874015748},{"duration":0.042856999999997925,"midi":72,"time":124.799584,"velocity":0.3937007874015748},{"duration":0.042856999999997925,"midi":72,"time":124.971012,"velocity":0.3937007874015748},{"duration":0.042856999999997925,"midi":51,"time":124.971012,"velocity":0.3937007874015748},{"duration":0.042856999999997925,"midi":39,"time":125.14244,"velocity":0.3937007874015748},{"duration":0.042856999999997925,"midi":51,"time":125.313868,"velocity":0.3937007874015748},{"duration":0.042857000000012135,"midi":44,"time":125.48529599999999,"velocity":0.3937007874015748},{"duration":0.042856999999997925,"midi":56,"time":125.656724,"velocity":0.3937007874015748},{"duration":0.042856999999997925,"midi":44,"time":125.828152,"velocity":0.3937007874015748},{"duration":0.042856999999997925,"midi":56,"time":125.99958,"velocity":0.3937007874015748},{"duration":0.042856999999997925,"midi":44,"time":126.171008,"velocity":0.3937007874015748},{"duration":0.042857000000012135,"midi":56,"time":126.34243599999999,"velocity":0.3937007874015748},{"duration":0.042856999999997925,"midi":44,"time":126.513864,"velocity":0.3937007874015748},{"duration":0.042856999999997925,"midi":56,"time":126.685292,"velocity":0.3937007874015748},{"duration":0.042856999999997925,"midi":43,"time":126.85672,"velocity":0.3937007874015748},{"duration":0.042856999999997925,"midi":43,"time":127.028148,"velocity":0.3937007874015748},{"duration":0.042856999999997925,"midi":43,"time":127.199576,"velocity":0.3937007874015748},{"duration":0.042856999999997925,"midi":43,"time":127.371004,"velocity":0.3937007874015748},{"duration":0.042857000000012135,"midi":43,"time":127.54243199999999,"velocity":0.3937007874015748},{"duration":0.042856999999997925,"midi":43,"time":127.71386,"velocity":0.3937007874015748},{"duration":0.042856999999997925,"midi":43,"time":127.885288,"velocity":0.3937007874015748},{"duration":0.042856999999997925,"midi":43,"time":128.056716,"velocity":0.3937007874015748},{"duration":0.042856999999997925,"midi":55,"time":149.14236,"velocity":0.3937007874015748},{"duration":0.042856999999997925,"midi":43,"time":149.14236,"velocity":0.3937007874015748},{"duration":0.042856999999997925,"midi":55,"time":149.14236,"velocity":0.3937007874015748},{"duration":0.042856999999997925,"midi":43,"time":149.14236,"velocity":0.3937007874015748},{"duration":0.042856999999997925,"midi":43,"time":149.14236,"velocity":0.3937007874015748},{"duration":0.042856999999997925,"midi":55,"time":149.14236,"velocity":0.3937007874015748},{"duration":0.042856999999997925,"midi":43,"time":149.14236,"velocity":0.3937007874015748},{"duration":0.042856999999997925,"midi":36,"time":149.485216,"velocity":0.3937007874015748},{"duration":0.042856999999997925,"midi":36,"time":149.485216,"velocity":0.3937007874015748},{"duration":0.042856999999997925,"midi":48,"time":149.485216,"velocity":0.3937007874015748},{"duration":0.042856999999997925,"midi":48,"time":149.485216,"velocity":0.3937007874015748},{"duration":0.042856999999997925,"midi":36,"time":149.485216,"velocity":0.3937007874015748},{"duration":0.042856999999997925,"midi":48,"time":149.485216,"velocity":0.3937007874015748},{"duration":0.042856999999997925,"midi":36,"time":149.485216,"velocity":0.3937007874015748}]},{"instrument":{"family":"piano","number":6,"name":"harpsichord"},"notes":[{"duration":0.042857000000026346,"midi":67,"time":145.00665949999998,"velocity":0.2283464566929134},{"duration":0.042857000000026346,"midi":72,"time":145.00665949999998,"velocity":0.2283464566929134},{"duration":0.042856999999997925,"midi":71,"time":145.3495155,"velocity":0.2283464566929134},{"duration":0.042856999999997925,"midi":65,"time":145.3495155,"velocity":0.2283464566929134},{"duration":0.042856999999997925,"midi":74,"time":145.6923715,"velocity":0.2283464566929134},{"duration":0.042856999999997925,"midi":72,"time":146.0352275,"velocity":0.2283464566929134},{"duration":0.042856999999997925,"midi":67,"time":146.0352275,"velocity":0.2283464566929134},{"duration":0.042856999999997925,"midi":67,"time":146.5495115,"velocity":0.2283464566929134},{"duration":0.042856999999997925,"midi":63,"time":146.7209395,"velocity":0.2283464566929134},{"duration":0.042856999999997925,"midi":67,"time":146.7209395,"velocity":0.2283464566929134},{"duration":0.042856999999997925,"midi":65,"time":147.0637955,"velocity":0.2283464566929134},{"duration":0.042856999999997925,"midi":63,"time":147.4066515,"velocity":0.2283464566929134},{"duration":0.042856999999997925,"midi":53,"time":147.4066515,"velocity":0.2283464566929134},{"duration":0.042856999999997925,"midi":67,"time":148.0923635,"velocity":0.2283464566929134},{"duration":0.042856999999997925,"midi":62,"time":148.0923635,"velocity":0.2283464566929134},{"duration":0.042856999999997925,"midi":59,"time":148.0923635,"velocity":0.2283464566929134},{"duration":0.042856999999997925,"midi":55,"time":148.7780755,"velocity":0.2283464566929134},{"duration":0.042856999999997925,"midi":60,"time":148.7780755,"velocity":0.2283464566929134},{"duration":0.042856999999997925,"midi":51,"time":148.7780755,"velocity":0.2283464566929134}]},{"instrument":{"family":"piano","number":3,"name":"honky-tonk piano"},"notes":[{"duration":0.042856999999997925,"midi":55,"time":149.14236,"velocity":0.3937007874015748},{"duration":0.042856999999997925,"midi":43,"time":149.14236,"velocity":0.3937007874015748},{"duration":0.042856999999997925,"midi":48,"time":149.485216,"velocity":0.3937007874015748},{"duration":0.042856999999997925,"midi":36,"time":149.485216,"velocity":0.3937007874015748}]},{"instrument":{"family":"guitar","number":28,"name":"electric guitar (muted)"},"notes":[{"duration":0.04285700000000148,"midi":47,"time":25.714199999999998,"velocity":0.3937007874015748},{"duration":0.04285700000000148,"midi":35,"time":25.714199999999998,"velocity":0.3937007874015748},{"duration":0.04285700000000148,"midi":48,"time":26.057056,"velocity":0.3937007874015748},{"duration":0.04285700000000148,"midi":36,"time":26.057056,"velocity":0.3937007874015748},{"duration":0.042856999999997925,"midi":38,"time":26.399912,"velocity":0.3937007874015748},{"duration":0.042856999999997925,"midi":50,"time":26.399912,"velocity":0.3937007874015748},{"duration":0.042856999999997925,"midi":52,"time":28.457048,"velocity":0.3937007874015748},{"duration":0.042856999999997925,"midi":40,"time":28.457048,"velocity":0.3937007874015748},{"duration":0.04285700000000148,"midi":53,"time":28.799903999999998,"velocity":0.3937007874015748},{"duration":0.04285700000000148,"midi":41,"time":28.799903999999998,"velocity":0.3937007874015748},{"duration":0.04285700000000148,"midi":43,"time":29.14276,"velocity":0.3937007874015748},{"duration":0.04285700000000148,"midi":55,"time":29.14276,"velocity":0.3937007874015748},{"duration":0.042856999999997925,"midi":35,"time":36.685592,"velocity":0.3937007874015748},{"duration":0.042856999999997925,"midi":47,"time":36.685592,"velocity":0.3937007874015748},{"duration":0.04285700000000503,"midi":36,"time":37.028448,"velocity":0.3937007874015748},{"duration":0.04285700000000503,"midi":48,"time":37.028448,"velocity":0.3937007874015748},{"duration":0.042856999999997925,"midi":50,"time":37.371304,"velocity":0.3937007874015748},{"duration":0.042856999999997925,"midi":38,"time":37.371304,"velocity":0.3937007874015748},{"duration":0.042856999999997925,"midi":40,"time":39.42844,"velocity":0.3937007874015748},{"duration":0.042856999999997925,"midi":52,"time":39.42844,"velocity":0.3937007874015748},{"duration":0.042856999999997925,"midi":53,"time":39.771296,"velocity":0.3937007874015748},{"duration":0.042856999999997925,"midi":41,"time":39.771296,"velocity":0.3937007874015748},{"duration":0.04285700000000503,"midi":43,"time":40.114152,"velocity":0.3937007874015748},{"duration":0.04285700000000503,"midi":55,"time":40.114152,"velocity":0.3937007874015748},{"duration":0.042856999999997925,"midi":55,"time":45.942704,"velocity":0.3937007874015748},{"duration":0.042856999999997925,"midi":63,"time":45.942704,"velocity":0.3937007874015748},{"duration":0.042856999999997925,"midi":26,"time":45.942704,"velocity":0.3937007874015748},{"duration":0.042856999999997925,"midi":24,"time":45.942704,"velocity":0.3937007874015748},{"duration":0.042856999999997925,"midi":31,"time":45.942704,"velocity":0.3937007874015748},{"duration":0.042856999999997925,"midi":60,"time":45.942704,"velocity":0.3937007874015748},{"duration":0.042856999999997925,"midi":36,"time":45.942704,"velocity":0.3937007874015748},{"duration":0.04285700000000503,"midi":48,"time":46.28556,"velocity":0.3937007874015748},{"duration":0.04285700000000503,"midi":24,"time":46.28556,"velocity":0.3937007874015748},{"duration":0.042856999999997925,"midi":36,"time":46.456988,"velocity":0.3937007874015748},{"duration":0.042856999999997925,"midi":60,"time":46.628416,"velocity":0.3937007874015748},{"duration":0.042856999999997925,"midi":36,"time":46.628416,"velocity":0.3937007874015748},{"duration":0.042856999999997925,"midi":60,"time":46.799844,"velocity":0.3937007874015748},{"duration":0.042856999999997925,"midi":36,"time":46.799844,"velocity":0.3937007874015748},{"duration":0.042856999999997925,"midi":24,"time":46.971272,"velocity":0.3937007874015748},{"duration":0.042856999999997925,"midi":63,"time":46.971272,"velocity":0.3937007874015748},{"duration":0.042856999999997925,"midi":55,"time":46.971272,"velocity":0.3937007874015748},{"duration":0.042856999999997925,"midi":60,"time":46.971272,"velocity":0.3937007874015748},{"duration":0.042856999999997925,"midi":36,"time":47.1427,"velocity":0.3937007874015748},{"duration":0.04285700000000503,"midi":65,"time":47.314128,"velocity":0.3937007874015748},{"duration":0.04285700000000503,"midi":59,"time":47.314128,"velocity":0.3937007874015748},{"duration":0.04285700000000503,"midi":62,"time":47.314128,"velocity":0.3937007874015748},{"duration":0.04285700000000503,"midi":24,"time":47.314128,"velocity":0.3937007874015748},{"duration":0.04285700000000503,"midi":56,"time":47.314128,"velocity":0.3937007874015748},{"duration":0.042856999999997925,"midi":24,"time":47.656984,"velocity":0.3937007874015748},{"duration":0.042856999999997925,"midi":36,"time":47.828412,"velocity":0.3937007874015748},{"duration":0.042856999999997925,"midi":24,"time":48.171268,"velocity":0.3937007874015748},{"duration":0.04285700000000503,"midi":36,"time":48.342696,"velocity":0.3937007874015748},{"duration":0.042856999999997925,"midi":24,"time":48.514124,"velocity":0.3937007874015748},{"duration":0.042856999999997925,"midi":62,"time":48.685552,"velocity":0.3937007874015748},{"duration":0.042856999999997925,"midi":53,"time":48.685552,"velocity":0.3937007874015748},{"duration":0.042856999999997925,"midi":24,"time":48.685552,"velocity":0.3937007874015748},{"duration":0.042856999999997925,"midi":56,"time":48.685552,"velocity":0.3937007874015748},{"duration":0.042856999999997925,"midi":59,"time":48.685552,"velocity":0.3937007874015748},{"duration":0.042856999999997925,"midi":48,"time":49.028408,"velocity":0.3937007874015748},{"duration":0.042856999999997925,"midi":24,"time":49.028408,"velocity":0.3937007874015748},{"duration":0.042856999999997925,"midi":36,"time":49.028408,"velocity":0.3937007874015748},{"duration":0.042856999999997925,"midi":36,"time":49.199836,"velocity":0.3937007874015748},{"duration":0.042856999999997925,"midi":24,"time":49.199836,"velocity":0.3937007874015748},{"duration":0.042856999999997925,"midi":48,"time":49.199836,"velocity":0.3937007874015748},{"duration":0.04285700000000503,"midi":48,"time":49.371264,"velocity":0.3937007874015748},{"duration":0.04285700000000503,"midi":24,"time":49.371264,"velocity":0.3937007874015748},{"duration":0.04285700000000503,"midi":36,"time":49.371264,"velocity":0.3937007874015748},{"duration":0.042856999999997925,"midi":36,"time":49.542692,"velocity":0.3937007874015748},{"duration":0.042856999999997925,"midi":48,"time":49.542692,"velocity":0.3937007874015748},{"duration":0.042856999999997925,"midi":24,"time":49.542692,"velocity":0.3937007874015748},{"duration":0.042856999999997925,"midi":48,"time":49.71412,"velocity":0.3937007874015748},{"duration":0.042856999999997925,"midi":36,"time":49.71412,"velocity":0.3937007874015748},{"duration":0.042856999999997925,"midi":24,"time":49.71412,"velocity":0.3937007874015748},{"duration":0.042856999999997925,"midi":24,"time":49.885548,"velocity":0.3937007874015748},{"duration":0.042856999999997925,"midi":36,"time":49.885548,"velocity":0.3937007874015748},{"duration":0.042856999999997925,"midi":48,"time":49.885548,"velocity":0.3937007874015748},{"duration":0.042856999999997925,"midi":39,"time":50.056976,"velocity":0.3937007874015748},{"duration":0.042856999999997925,"midi":63,"time":50.056976,"velocity":0.3937007874015748},{"duration":0.04285700000000503,"midi":55,"time":50.228404,"velocity":0.3937007874015748},{"duration":0.04285700000000503,"midi":31,"time":50.228404,"velocity":0.3937007874015748},{"duration":0.04285700000000503,"midi":62,"time":50.399831999999996,"velocity":0.3937007874015748},{"duration":0.04285700000000503,"midi":38,"time":50.399831999999996,"velocity":0.3937007874015748},{"duration":0.042856999999997925,"midi":31,"time":50.57126,"velocity":0.3937007874015748},{"duration":0.042856999999997925,"midi":55,"time":50.57126,"velocity":0.3937007874015748},{"duration":0.042856999999997925,"midi":60,"time":50.742688,"velocity":0.3937007874015748},{"duration":0.042856999999997925,"midi":36,"time":50.742688,"velocity":0.3937007874015748},{"duration":0.042856999999997925,"midi":36,"time":50.914116,"velocity":0.3937007874015748},{"duration":0.042856999999997925,"midi":36,"time":51.085544,"velocity":0.3937007874015748},{"duration":0.04285700000000503,"midi":48,"time":51.256972,"velocity":0.3937007874015748},{"duration":0.04285700000000503,"midi":36,"time":51.428399999999996,"velocity":0.3937007874015748},{"duration":0.04285700000000503,"midi":67,"time":51.428399999999996,"velocity":0.3937007874015748},{"duration":0.04285700000000503,"midi":60,"time":51.428399999999996,"velocity":0.3937007874015748},{"duration":0.04285700000000503,"midi":63,"time":51.428399999999996,"velocity":0.3937007874015748},{"duration":0.042856999999997925,"midi":36,"time":51.771256,"velocity":0.3937007874015748},{"duration":0.042856999999997925,"midi":48,"time":51.942684,"velocity":0.3937007874015748},{"duration":0.042856999999997925,"midi":60,"time":52.114112,"velocity":0.3937007874015748},{"duration":0.042856999999997925,"midi":48,"time":52.199826,"velocity":0.3937007874015748},{"duration":0.04285700000000503,"midi":60,"time":52.28554,"velocity":0.3937007874015748},{"duration":0.04285700000000503,"midi":48,"time":52.456967999999996,"velocity":0.3937007874015748},{"duration":0.042856999999997925,"midi":60,"time":52.628396,"velocity":0.3937007874015748},{"duration":0.042856999999997925,"midi":63,"time":52.799824,"velocity":0.3937007874015748},{"duration":0.042856999999997925,"midi":66,"time":52.799824,"velocity":0.3937007874015748},{"duration":0.042856999999997925,"midi":60,"time":52.799824,"velocity":0.3937007874015748},{"duration":0.042856999999997925,"midi":36,"time":52.799824,"velocity":0.3937007874015748},{"duration":0.042856999999997925,"midi":36,"time":53.14268,"velocity":0.3937007874015748},{"duration":0.04285700000000503,"midi":48,"time":53.314108,"velocity":0.3937007874015748},{"duration":0.042856999999997925,"midi":36,"time":53.656964,"velocity":0.3937007874015748},{"duration":0.042856999999997925,"midi":48,"time":53.828392,"velocity":0.3937007874015748},{"duration":0.042856999999997925,"midi":36,"time":53.99982,"velocity":0.3937007874015748},{"duration":0.042856999999997925,"midi":56,"time":54.171248,"velocity":0.3937007874015748},{"duration":0.042856999999997925,"midi":36,"time":54.171248,"velocity":0.3937007874015748},{"duration":0.042856999999997925,"midi":65,"time":54.171248,"velocity":0.3937007874015748},{"duration":0.042856999999997925,"midi":62,"time":54.171248,"velocity":0.3937007874015748},{"duration":0.04285700000000503,"midi":24,"time":54.514103999999996,"velocity":0.3937007874015748},{"duration":0.042856999999997925,"midi":36,"time":54.599818,"velocity":0.3937007874015748},{"duration":0.042856999999997925,"midi":48,"time":54.685532,"velocity":0.3937007874015748},{"duration":0.042856999999997925,"midi":60,"time":54.771246,"velocity":0.3937007874015748},{"duration":0.042856999999997925,"midi":36,"time":54.85696,"velocity":0.3937007874015748},{"duration":0.042856999999997925,"midi":48,"time":54.85696,"velocity":0.3937007874015748},{"duration":0.042856999999997925,"midi":24,"time":54.85696,"velocity":0.3937007874015748},{"duration":0.042856999999997925,"midi":36,"time":55.028388,"velocity":0.3937007874015748},{"duration":0.042856999999997925,"midi":24,"time":55.028388,"velocity":0.3937007874015748},{"duration":0.042856999999997925,"midi":48,"time":55.028388,"velocity":0.3937007874015748},{"duration":0.042856999999997925,"midi":36,"time":55.199816,"velocity":0.3937007874015748},{"duration":0.042856999999997925,"midi":24,"time":55.199816,"velocity":0.3937007874015748},{"duration":0.042856999999997925,"midi":48,"time":55.199816,"velocity":0.3937007874015748},{"duration":0.04285700000000503,"midi":24,"time":55.371244,"velocity":0.3937007874015748},{"duration":0.04285700000000503,"midi":48,"time":55.371244,"velocity":0.3937007874015748},{"duration":0.04285700000000503,"midi":36,"time":55.371244,"velocity":0.3937007874015748},{"duration":0.04285700000000503,"midi":55,"time":55.542671999999996,"velocity":0.3937007874015748},{"duration":0.04285700000000503,"midi":43,"time":55.542671999999996,"velocity":0.3937007874015748},{"duration":0.04285700000000503,"midi":60,"time":55.542671999999996,"velocity":0.3937007874015748},{"duration":0.04285700000000503,"midi":63,"time":55.542671999999996,"velocity":0.3937007874015748},{"duration":0.04285700000000503,"midi":39,"time":55.542671999999996,"velocity":0.3937007874015748},{"duration":0.042856999999997925,"midi":53,"time":55.885528,"velocity":0.3937007874015748},{"duration":0.042856999999997925,"midi":41,"time":55.885528,"velocity":0.3937007874015748},{"duration":0.042856999999997925,"midi":62,"time":55.885528,"velocity":0.3937007874015748},{"duration":0.042856999999997925,"midi":56,"time":55.885528,"velocity":0.3937007874015748},{"duration":0.042856999999997925,"midi":38,"time":55.885528,"velocity":0.3937007874015748},{"duration":0.042856999999997925,"midi":39,"time":56.228384,"velocity":0.3937007874015748},{"duration":0.042856999999997925,"midi":51,"time":56.228384,"velocity":0.3937007874015748},{"duration":0.042856999999997925,"midi":60,"time":56.228384,"velocity":0.3937007874015748},{"duration":0.042856999999997925,"midi":36,"time":56.228384,"velocity":0.3937007874015748},{"duration":0.042856999999997925,"midi":55,"time":56.228384,"velocity":0.3937007874015748},{"duration":0.04285700000000503,"midi":31,"time":56.571239999999996,"velocity":0.3937007874015748},{"duration":0.04285700000000503,"midi":43,"time":56.571239999999996,"velocity":0.3937007874015748}]}]}
