{"tracks":[{"instrument":{"family":"piano","number":0,"name":"acoustic grand piano"},"notes":[{"duration":0.10000000000000142,"midi":40,"time":39.5,"velocity":0.3937007874015748},{"duration":0.10000000000000142,"midi":42,"time":40,"velocity":0.3937007874015748},{"duration":0.10000000000000142,"midi":47,"time":40.7,"velocity":0.3937007874015748},{"duration":0.10000000000000142,"midi":44,"time":41.2,"velocity":0.3937007874015748},{"duration":0.09999999999999432,"midi":49,"time":41.900000000000006,"velocity":0.3937007874015748},{"duration":0.09999999999999432,"midi":39,"time":42.400000000000006,"velocity":0.3937007874015748},{"duration":0.10000000000000142,"midi":44,"time":43.1,"velocity":0.3937007874015748},{"duration":0.10000000000000142,"midi":42,"time":43.6,"velocity":0.3937007874015748},{"duration":0.10000000000000142,"midi":49,"time":44.300000000000004,"velocity":0.3937007874015748},{"duration":0.10000000000000142,"midi":42,"time":44.800000000000004,"velocity":0.3937007874015748},{"duration":0.10000000000000142,"midi":47,"time":45.5,"velocity":0.3937007874015748},{"duration":0.10000000000000142,"midi":39,"time":46,"velocity":0.3937007874015748},{"duration":0.10000000000000142,"midi":44,"time":46.7,"velocity":0.3937007874015748},{"duration":0.10000000000000142,"midi":39,"time":47.2,"velocity":0.3937007874015748},{"duration":0.09999999999999432,"midi":44,"time":47.900000000000006,"velocity":0.3937007874015748},{"duration":0.10000000000000142,"midi":51,"time":48.5,"velocity":0.3937007874015748},{"duration":0.10000000000000142,"midi":47,"time":48.800000000000004,"velocity":0.3937007874015748},{"duration":0.10000000000000142,"midi":49,"time":49.1,"velocity":0.3937007874015748},{"duration":0.10000000000000142,"midi":42,"time":49.6,"velocity":0.3937007874015748},{"duration":0.10000000000000142,"midi":47,"time":50.300000000000004,"velocity":0.3937007874015748},{"duration":0.10000000000000142,"midi":35,"time":50.800000000000004,"velocity":0.3937007874015748},{"duration":0.10000000000000142,"midi":46,"time":51.5,"velocity":0.3937007874015748},{"duration":0.10000000000000142,"midi":42,"time":52,"velocity":0.3937007874015748},{"duration":0.10000000000000142,"midi":44,"time":52.7,"velocity":0.3937007874015748},{"duration":0.10000000000000142,"midi":42,"time":53.2,"velocity":0.3937007874015748},{"duration":0.10000000000000142,"midi":47,"time":53.6,"velocity":0.3937007874015748},{"duration":0.09999999999999432,"midi":49,"time":53.900000000000006,"velocity":0.3937007874015748},{"duration":0.09999999999999432,"midi":42,"time":54.400000000000006,"velocity":0.3937007874015748},{"duration":0.10000000000000142,"midi":47,"time":55.1,"velocity":0.3937007874015748},{"duration":0.10000000000000142,"midi":35,"time":55.6,"velocity":0.3937007874015748},{"duration":0.10000000000000142,"midi":46,"time":56.300000000000004,"velocity":0.3937007874015748},{"duration":0.10000000000000142,"midi":42,"time":56.800000000000004,"velocity":0.3937007874015748},{"duration":0.10000000000000142,"midi":44,"time":57.5,"velocity":0.3937007874015748},{"duration":0.09999999999999432,"midi":70,"time":73.10000000000001,"velocity":0.3937007874015748},{"duration":0.09999999999999432,"midi":67,"time":73.10000000000001,"velocity":0.3937007874015748},{"duration":0.09999999999999432,"midi":68,"time":73.7,"velocity":0.3937007874015748},{"duration":0.09999999999999432,"midi":71,"time":73.7,"velocity":0.3937007874015748},{"duration":0.10000000000000853,"midi":67,"time":74.3,"velocity":0.3937007874015748},{"duration":0.10000000000000853,"midi":70,"time":74.3,"velocity":0.3937007874015748},{"duration":0.10000000000000853,"midi":67,"time":82.7,"velocity":0.3937007874015748},{"duration":0.10000000000000853,"midi":70,"time":82.7,"velocity":0.3937007874015748},{"duration":0.09999999999999432,"midi":71,"time":83.30000000000001,"velocity":0.3937007874015748},{"duration":0.09999999999999432,"midi":68,"time":83.30000000000001,"velocity":0.3937007874015748},{"duration":0.09999999999999432,"midi":70,"time":83.9,"velocity":0.3937007874015748},{"duration":0.09999999999999432,"midi":67,"time":83.9,"velocity":0.3937007874015748},{"duration":0.09999999999999432,"midi":80,"time":90.10000000000001,"velocity":0.3937007874015748},{"duration":0.09999999999999432,"midi":75,"time":90.10000000000001,"velocity":0.3937007874015748},{"duration":0.10000000000000853,"midi":80,"time":90.5,"velocity":0.3937007874015748},{"duration":0.10000000000000853,"midi":75,"time":90.5,"velocity":0.3937007874015748},{"duration":0.09999999999999432,"midi":79,"time":91.10000000000001,"velocity":0.3937007874015748},{"duration":0.09999999999999432,"midi":75,"time":91.10000000000001,"velocity":0.3937007874015748},{"duration":0.09999999999999432,"midi":75,"time":91.60000000000001,"velocity":0.3937007874015748},{"duration":0.09999999999999432,"midi":79,"time":91.60000000000001,"velocity":0.3937007874015748},{"duration":0.10000000000000853,"midi":78,"time":92.5,"velocity":0.3937007874015748},{"duration":0.10000000000000853,"midi":75,"time":92.5,"velocity":0.3937007874015748},{"duration":0.09999999999999432,"midi":78,"time":92.9,"velocity":0.3937007874015748},{"duration":0.09999999999999432,"midi":75,"time":92.9,"velocity":0.3937007874015748},{"duration":0.10000000000000853,"midi":75,"time":93.5,"velocity":0.3937007874015748},{"duration":0.10000000000000853,"midi":68,"time":93.5,"velocity":0.3937007874015748},{"duration":0.10000000000000853,"midi":80,"time":93.5,"velocity":0.3937007874015748},{"duration":0.10000000000000853,"midi":56,"time":94,"velocity":0.3937007874015748},{"duration":0.09999999999999432,"midi":63,"time":94.10000000000001,"velocity":0.3937007874015748},{"duration":0.09999999999999432,"midi":68,"time":94.30000000000001,"velocity":0.3937007874015748},{"duration":0.09999999999999432,"midi":63,"time":94.4,"velocity":0.3937007874015748},{"duration":0.09999999999999432,"midi":59,"time":94.60000000000001,"velocity":0.3937007874015748},{"duration":0.10000000000000853,"midi":61,"time":94.7,"velocity":0.3937007874015748},{"duration":0.09999999999999432,"midi":80,"time":94.9,"velocity":0.3937007874015748},{"duration":0.09999999999999432,"midi":56,"time":94.9,"velocity":0.3937007874015748},{"duration":0.09999999999999432,"midi":75,"time":94.9,"velocity":0.3937007874015748},{"duration":0.09999999999999432,"midi":80,"time":95.30000000000001,"velocity":0.3937007874015748},{"duration":0.09999999999999432,"midi":68,"time":95.30000000000001,"velocity":0.3937007874015748},{"duration":0.09999999999999432,"midi":75,"time":95.30000000000001,"velocity":0.3937007874015748},{"duration":0.09999999999999432,"midi":71,"time":95.60000000000001,"velocity":0.3937007874015748},{"duration":0.09999999999999432,"midi":75,"time":95.9,"velocity":0.3937007874015748},{"duration":0.09999999999999432,"midi":73,"time":95.9,"velocity":0.3937007874015748},{"duration":0.09999999999999432,"midi":80,"time":95.9,"velocity":0.3937007874015748},{"duration":0.10000000000000853,"midi":71,"time":96.2,"velocity":0.3937007874015748},{"duration":0.09999999999999432,"midi":75,"time":96.4,"velocity":0.3937007874015748},{"duration":0.09999999999999432,"midi":80,"time":96.4,"velocity":0.3937007874015748},{"duration":0.10000000000000853,"midi":68,"time":96.5,"velocity":0.3937007874015748},{"duration":0.024999999999991473,"midi":79,"time":96.67500000000001,"velocity":0.3937007874015748},{"duration":0.10000000000000853,"midi":75,"time":96.7,"velocity":0.3937007874015748},{"duration":0.10000000000000853,"midi":80,"time":96.7,"velocity":0.3937007874015748},{"duration":0.025000000000005684,"midi":79,"time":96.775,"velocity":0.3937007874015748},{"duration":0.09999999999999432,"midi":73,"time":96.80000000000001,"velocity":0.3937007874015748},{"duration":0.09999999999999432,"midi":75,"time":96.80000000000001,"velocity":0.3937007874015748},{"duration":0.09999999999999432,"midi":80,"time":96.80000000000001,"velocity":0.3937007874015748},{"duration":0.024999999999991473,"midi":79,"time":96.97500000000001,"velocity":0.3937007874015748},{"duration":0.10000000000000853,"midi":71,"time":97,"velocity":0.3937007874015748},{"duration":0.10000000000000853,"midi":75,"time":97,"velocity":0.3937007874015748},{"duration":0.10000000000000853,"midi":80,"time":97,"velocity":0.3937007874015748},{"duration":0.09999999999999432,"midi":80,"time":97.10000000000001,"velocity":0.3937007874015748},{"duration":0.09999999999999432,"midi":73,"time":97.10000000000001,"velocity":0.3937007874015748},{"duration":0.09999999999999432,"midi":78,"time":97.30000000000001,"velocity":0.3937007874015748},{"duration":0.09999999999999432,"midi":71,"time":97.30000000000001,"velocity":0.3937007874015748},{"duration":0.09999999999999432,"midi":66,"time":97.4,"velocity":0.3937007874015748},{"duration":0.09999999999999432,"midi":75,"time":97.4,"velocity":0.3937007874015748},{"duration":0.09999999999999432,"midi":68,"time":97.60000000000001,"velocity":0.3937007874015748},{"duration":0.09999999999999432,"midi":75,"time":97.60000000000001,"velocity":0.3937007874015748},{"duration":0.10000000000000853,"midi":71,"time":97.7,"velocity":0.3937007874015748},{"duration":0.10000000000000853,"midi":76,"time":97.7,"velocity":0.3937007874015748},{"duration":0.025000000000005684,"midi":82,"time":97.875,"velocity":0.3937007874015748},{"duration":0.09999999999999432,"midi":75,"time":97.9,"velocity":0.3937007874015748},{"duration":0.09999999999999432,"midi":83,"time":97.9,"velocity":0.3937007874015748},{"duration":0.024999999999991473,"midi":82,"time":97.97500000000001,"velocity":0.3937007874015748},{"duration":0.10000000000000853,"midi":83,"time":98,"velocity":0.3937007874015748},{"duration":0.10000000000000853,"midi":75,"time":98,"velocity":0.3937007874015748},{"duration":0.10000000000000853,"midi":73,"time":98,"velocity":0.3937007874015748},{"duration":0.09999999999999432,"midi":75,"time":98.10000000000001,"velocity":0.3937007874015748},{"duration":0.09999999999999432,"midi":82,"time":98.10000000000001,"velocity":0.3937007874015748},{"duration":0.10000000000000853,"midi":80,"time":98.2,"velocity":0.3937007874015748},{"duration":0.10000000000000853,"midi":71,"time":98.2,"velocity":0.3937007874015748},{"duration":0.09999999999999432,"midi":82,"time":98.30000000000001,"velocity":0.3937007874015748},{"duration":0.09999999999999432,"midi":73,"time":98.30000000000001,"velocity":0.3937007874015748},{"duration":0.09999999999999432,"midi":82,"time":98.30000000000001,"velocity":0.3937007874015748},{"duration":0.09999999999999432,"midi":82,"time":98.30000000000001,"velocity":0.3937007874015748},{"duration":0.10000000000000853,"midi":80,"time":98.5,"velocity":0.3937007874015748},{"duration":0.10000000000000853,"midi":71,"time":98.5,"velocity":0.3937007874015748},{"duration":0.09999999999999432,"midi":68,"time":98.60000000000001,"velocity":0.3937007874015748},{"duration":0.025000000000005684,"midi":82,"time":98.775,"velocity":0.3937007874015748},{"duration":0.09999999999999432,"midi":75,"time":98.80000000000001,"velocity":0.3937007874015748},{"duration":0.09999999999999432,"midi":83,"time":98.80000000000001,"velocity":0.3937007874015748},{"duration":0.025000000000005684,"midi":82,"time":98.875,"velocity":0.3937007874015748},{"duration":0.09999999999999432,"midi":75,"time":98.9,"velocity":0.3937007874015748},{"duration":0.09999999999999432,"midi":71,"time":98.9,"velocity":0.3937007874015748},{"duration":0.09999999999999432,"midi":83,"time":98.9,"velocity":0.3937007874015748},{"duration":0.10000000000000853,"midi":82,"time":99,"velocity":0.3937007874015748},{"duration":0.09999999999999432,"midi":80,"time":99.10000000000001,"velocity":0.3937007874015748},{"duration":0.024999999999991473,"midi":74,"time":99.17500000000001,"velocity":0.3937007874015748},{"duration":0.10000000000000853,"midi":75,"time":99.2,"velocity":0.3937007874015748},{"duration":0.10000000000000853,"midi":82,"time":99.2,"velocity":0.3937007874015748},{"duration":0.09999999999999432,"midi":80,"time":99.4,"velocity":0.3937007874015748},{"duration":0.025000000000005684,"midi":74,"time":99.4,"velocity":0.3937007874015748},{"duration":0.09999999999999432,"midi":75,"time":99.4,"velocity":0.3937007874015748},{"duration":0.025000000000005684,"midi":83,"time":99.775,"velocity":0.3937007874015748},{"duration":0.09999999999999432,"midi":85,"time":99.80000000000001,"velocity":0.3937007874015748},{"duration":0.09999999999999432,"midi":80,"time":99.80000000000001,"velocity":0.3937007874015748},{"duration":0.10000000000000853,"midi":78,"time":100,"velocity":0.3937007874015748},{"duration":0.10000000000000853,"midi":83,"time":100,"velocity":0.3937007874015748},{"duration":0.09999999999999432,"midi":75,"time":100.10000000000001,"velocity":0.3937007874015748},{"duration":0.09999999999999432,"midi":80,"time":100.10000000000001,"velocity":0.3937007874015748},{"duration":0.09999999999999432,"midi":73,"time":100.30000000000001,"velocity":0.3937007874015748},{"duration":0.09999999999999432,"midi":78,"time":100.30000000000001,"velocity":0.3937007874015748},{"duration":0.09999999999999432,"midi":75,"time":100.4,"velocity":0.3937007874015748},{"duration":0.09999999999999432,"midi":85,"time":100.60000000000001,"velocity":0.3937007874015748},{"duration":0.09999999999999432,"midi":78,"time":100.60000000000001,"velocity":0.3937007874015748},{"duration":0.10000000000000853,"midi":87,"time":100.7,"velocity":0.3937007874015748},{"duration":0.10000000000000853,"midi":80,"time":100.7,"velocity":0.3937007874015748},{"duration":0.09999999999999432,"midi":75,"time":100.9,"velocity":0.3937007874015748},{"duration":0.09999999999999432,"midi":83,"time":100.9,"velocity":0.3937007874015748},{"duration":0.10000000000000853,"midi":73,"time":101,"velocity":0.3937007874015748},{"duration":0.10000000000000853,"midi":82,"time":101,"velocity":0.3937007874015748},{"duration":0.10000000000000853,"midi":75,"time":101.2,"velocity":0.3937007874015748},{"duration":0.10000000000000853,"midi":83,"time":101.2,"velocity":0.3937007874015748},{"duration":0.10000000000000853,"midi":83,"time":101.5,"velocity":0.3937007874015748},{"duration":0.10000000000000853,"midi":78,"time":101.5,"velocity":0.3937007874015748},{"duration":0.10000000000000853,"midi":87,"time":101.5,"velocity":0.3937007874015748},{"duration":0.09999999999999432,"midi":85,"time":101.80000000000001,"velocity":0.3937007874015748},{"duration":0.09999999999999432,"midi":80,"time":101.80000000000001,"velocity":0.3937007874015748},{"duration":0.09999999999999432,"midi":88,"time":101.80000000000001,"velocity":0.3937007874015748},{"duration":0.09999999999999432,"midi":83,"time":102.10000000000001,"velocity":0.3937007874015748},{"duration":0.10000000000000853,"midi":80,"time":102.2,"velocity":0.3937007874015748},{"duration":0.09999999999999432,"midi":83,"time":102.30000000000001,"velocity":0.3937007874015748},{"duration":0.09999999999999432,"midi":88,"time":102.4,"velocity":0.3937007874015748},{"duration":0.10000000000000853,"midi":87,"time":102.5,"velocity":0.3937007874015748},{"duration":0.09999999999999432,"midi":85,"time":102.60000000000001,"velocity":0.3937007874015748},{"duration":0.10000000000000853,"midi":78,"time":102.7,"velocity":0.3937007874015748},{"duration":0.09999999999999432,"midi":75,"time":102.80000000000001,"velocity":0.3937007874015748},{"duration":0.09999999999999432,"midi":73,"time":102.9,"velocity":0.3937007874015748},{"duration":0.10000000000000853,"midi":71,"time":103,"velocity":0.3937007874015748},{"duration":0.09999999999999432,"midi":75,"time":103.10000000000001,"velocity":0.3937007874015748},{"duration":0.09999999999999432,"midi":74,"time":103.10000000000001,"velocity":0.3937007874015748},{"duration":0.09999999999999432,"midi":73,"time":103.4,"velocity":0.3937007874015748},{"duration":0.09999999999999432,"midi":71,"time":103.60000000000001,"velocity":0.3937007874015748},{"duration":0.10000000000000853,"midi":73,"time":103.7,"velocity":0.3937007874015748},{"duration":0.09999999999999432,"midi":71,"time":103.9,"velocity":0.3937007874015748},{"duration":0.025000000000005684,"midi":87,"time":104.275,"velocity":0.3937007874015748},{"duration":0.025000000000005684,"midi":91,"time":104.275,"velocity":0.3937007874015748},{"duration":0.09999999999999432,"midi":92,"time":104.30000000000001,"velocity":0.3937007874015748},{"duration":0.09999999999999432,"midi":83,"time":104.60000000000001,"velocity":0.3937007874015748},{"duration":0.025000000000005684,"midi":87,"time":104.775,"velocity":0.3937007874015748},{"duration":0.025000000000005684,"midi":91,"time":104.775,"velocity":0.3937007874015748},{"duration":0.09999999999999432,"midi":92,"time":104.80000000000001,"velocity":0.3937007874015748},{"duration":0.09999999999999432,"midi":83,"time":105.10000000000001,"velocity":0.3937007874015748},{"duration":0.024999999999991473,"midi":91,"time":105.17500000000001,"velocity":0.3937007874015748},{"duration":0.024999999999991473,"midi":87,"time":105.17500000000001,"velocity":0.3937007874015748},{"duration":0.10000000000000853,"midi":92,"time":105.2,"velocity":0.3937007874015748},{"duration":0.10000000000000853,"midi":83,"time":105.5,"velocity":0.3937007874015748},{"duration":0.024999999999991473,"midi":91,"time":105.67500000000001,"velocity":0.3937007874015748},{"duration":0.024999999999991473,"midi":87,"time":105.67500000000001,"velocity":0.3937007874015748},{"duration":0.10000000000000853,"midi":92,"time":105.7,"velocity":0.3937007874015748},{"duration":0.10000000000000853,"midi":83,"time":106,"velocity":0.3937007874015748},{"duration":0.025000000000005684,"midi":87,"time":106.075,"velocity":0.3937007874015748},{"duration":0.025000000000005684,"midi":91,"time":106.075,"velocity":0.3937007874015748},{"duration":0.09999999999999432,"midi":92,"time":106.10000000000001,"velocity":0.3937007874015748},{"duration":0.10000000000000853,"midi":95,"time":106.7,"velocity":0.3937007874015748},{"duration":0.10000000000000853,"midi":92,"time":106.7,"velocity":0.3937007874015748},{"duration":0.10000000000000853,"midi":87,"time":106.7,"velocity":0.3937007874015748},{"duration":0.09999999999999432,"midi":91,"time":106.9,"velocity":0.3937007874015748},{"duration":0.09999999999999432,"midi":94,"time":106.9,"velocity":0.3937007874015748},{"duration":0.10000000000000853,"midi":92,"time":107.2,"velocity":0.3937007874015748},{"duration":0.10000000000000853,"midi":87,"time":107.2,"velocity":0.3937007874015748},{"duration":0.10000000000000853,"midi":90,"time":107.5,"velocity":0.3937007874015748},{"duration":0.10000000000000853,"midi":87,"time":107.5,"velocity":0.3937007874015748},{"duration":0.09999999999999432,"midi":89,"time":107.80000000000001,"velocity":0.3937007874015748},{"duration":0.09999999999999432,"midi":85,"time":107.80000000000001,"velocity":0.3937007874015748}]},{"instrument":{"family":"drums","number":0,"name":"standard kit"},"notes":[{"duration":0.1,"midi":38,"time":0,"velocity":0.3937007874015748},{"duration":0.1,"midi":38,"time":0,"velocity":0.3937007874015748},{"duration":0.1,"midi":38,"time":0,"velocity":0.3937007874015748},{"duration":0.1,"midi":38,"time":0,"velocity":0.3937007874015748},{"duration":0.1,"midi":38,"time":0,"velocity":0.3937007874015748},{"duration":0.1,"midi":38,"time":0.1,"velocity":0.3937007874015748},{"duration":0.1,"midi":38,"time":0.1,"velocity":0.3937007874015748},{"duration":0.1,"midi":38,"time":0.1,"velocity":0.3937007874015748},{"duration":0.1,"midi":38,"time":0.1,"velocity":0.3937007874015748},{"duration":0.1,"midi":38,"time":0.1,"velocity":0.3937007874015748},{"duration":0.10000000000000003,"midi":38,"time":0.2,"velocity":0.3937007874015748},{"duration":0.10000000000000003,"midi":38,"time":0.2,"velocity":0.3937007874015748},{"duration":0.10000000000000003,"midi":38,"time":0.2,"velocity":0.3937007874015748},{"duration":0.10000000000000003,"midi":38,"time":0.2,"velocity":0.3937007874015748},{"duration":0.10000000000000003,"midi":38,"time":0.2,"velocity":0.3937007874015748},{"duration":0.09999999999999998,"midi":38,"time":0.30000000000000004,"velocity":0.3937007874015748},{"duration":0.09999999999999998,"midi":38,"time":0.30000000000000004,"velocity":0.3937007874015748},{"duration":0.09999999999999998,"midi":38,"time":0.30000000000000004,"velocity":0.3937007874015748},{"duration":0.09999999999999998,"midi":38,"time":0.30000000000000004,"velocity":0.3937007874015748},{"duration":0.09999999999999998,"midi":38,"time":0.30000000000000004,"velocity":0.3937007874015748},{"duration":0.09999999999999998,"midi":38,"time":0.4,"velocity":0.3937007874015748},{"duration":0.09999999999999998,"midi":38,"time":0.4,"velocity":0.3937007874015748},{"duration":0.09999999999999998,"midi":38,"time":0.4,"velocity":0.3937007874015748},{"duration":0.09999999999999998,"midi":38,"time":0.4,"velocity":0.3937007874015748},{"duration":0.09999999999999998,"midi":38,"time":0.4,"velocity":0.3937007874015748},{"duration":0.10000000000000009,"midi":38,"time":0.5,"velocity":0.3937007874015748},{"duration":0.10000000000000009,"midi":38,"time":0.5,"velocity":0.3937007874015748},{"duration":0.10000000000000009,"midi":38,"time":0.5,"velocity":0.3937007874015748},{"duration":0.10000000000000009,"midi":38,"time":0.5,"velocity":0.3937007874015748},{"duration":0.10000000000000009,"midi":38,"time":0.5,"velocity":0.3937007874015748},{"duration":0.09999999999999998,"midi":38,"time":0.6000000000000001,"velocity":0.3937007874015748},{"duration":0.09999999999999998,"midi":38,"time":0.6000000000000001,"velocity":0.3937007874015748},{"duration":0.09999999999999998,"midi":38,"time":0.6000000000000001,"velocity":0.3937007874015748},{"duration":0.09999999999999998,"midi":38,"time":0.6000000000000001,"velocity":0.3937007874015748},{"duration":0.09999999999999998,"midi":38,"time":0.6000000000000001,"velocity":0.3937007874015748},{"duration":0.09999999999999998,"midi":38,"time":0.7000000000000001,"velocity":0.3937007874015748},{"duration":0.09999999999999998,"midi":38,"time":0.7000000000000001,"velocity":0.3937007874015748},{"duration":0.09999999999999998,"midi":38,"time":0.7000000000000001,"velocity":0.3937007874015748},{"duration":0.09999999999999998,"midi":38,"time":0.7000000000000001,"velocity":0.3937007874015748},{"duration":0.09999999999999998,"midi":38,"time":0.7000000000000001,"velocity":0.3937007874015748},{"duration":0.09999999999999998,"midi":38,"time":0.8,"velocity":0.3937007874015748},{"duration":0.09999999999999998,"midi":38,"time":0.8,"velocity":0.3937007874015748},{"duration":0.09999999999999998,"midi":38,"time":0.8,"velocity":0.3937007874015748},{"duration":0.09999999999999998,"midi":38,"time":0.8,"velocity":0.3937007874015748},{"duration":0.09999999999999998,"midi":38,"time":0.8,"velocity":0.3937007874015748},{"duration":0.09999999999999998,"midi":38,"time":0.9,"velocity":0.3937007874015748},{"duration":0.09999999999999998,"midi":38,"time":0.9,"velocity":0.3937007874015748},{"duration":0.09999999999999998,"midi":38,"time":0.9,"velocity":0.3937007874015748},{"duration":0.09999999999999998,"midi":38,"time":0.9,"velocity":0.3937007874015748},{"duration":0.09999999999999998,"midi":38,"time":0.9,"velocity":0.3937007874015748},{"duration":0.10000000000000009,"midi":38,"time":1,"velocity":0.3937007874015748},{"duration":0.10000000000000009,"midi":38,"time":1,"velocity":0.3937007874015748},{"duration":0.10000000000000009,"midi":38,"time":1,"velocity":0.3937007874015748},{"duration":0.10000000000000009,"midi":38,"time":1,"velocity":0.3937007874015748},{"duration":0.10000000000000009,"midi":38,"time":1,"velocity":0.3937007874015748},{"duration":0.10000000000000009,"midi":38,"time":1.1,"velocity":0.3937007874015748},{"duration":0.10000000000000009,"midi":38,"time":1.1,"velocity":0.3937007874015748},{"duration":0.10000000000000009,"midi":38,"time":1.1,"velocity":0.3937007874015748},{"duration":0.10000000000000009,"midi":38,"time":1.1,"velocity":0.3937007874015748},{"duration":0.10000000000000009,"midi":38,"time":1.1,"velocity":0.3937007874015748},{"duration":0.09999999999999987,"midi":49,"time":1.2000000000000002,"velocity":0.3937007874015748},{"duration":0.10000000000000009,"midi":38,"time":1.5,"velocity":0.3937007874015748},{"duration":0.10000000000000009,"midi":38,"time":1.5,"velocity":0.3937007874015748},{"duration":0.10000000000000009,"midi":38,"time":1.5,"velocity":0.3937007874015748},{"duration":0.10000000000000009,"midi":38,"time":1.5,"velocity":0.3937007874015748},{"duration":0.10000000000000009,"midi":49,"time":1.5,"velocity":0.3937007874015748},{"duration":0.10000000000000009,"midi":38,"time":1.5,"velocity":0.3937007874015748},{"duration":0.10000000000000009,"midi":49,"time":1.8,"velocity":0.3937007874015748},{"duration":0.10000000000000009,"midi":38,"time":2.1,"velocity":0.3937007874015748},{"duration":0.10000000000000009,"midi":49,"time":2.1,"velocity":0.3937007874015748},{"duration":0.10000000000000009,"midi":38,"time":2.1,"velocity":0.3937007874015748},{"duration":0.10000000000000009,"midi":38,"time":2.1,"velocity":0.3937007874015748},{"duration":0.10000000000000009,"midi":38,"time":2.1,"velocity":0.3937007874015748},{"duration":0.10000000000000009,"midi":38,"time":2.1,"velocity":0.3937007874015748},{"duration":0.09999999999999964,"midi":49,"time":2.4000000000000004,"velocity":0.3937007874015748},{"duration":0.10000000000000009,"midi":38,"time":2.7,"velocity":0.3937007874015748},{"duration":0.10000000000000009,"midi":38,"time":2.7,"velocity":0.3937007874015748},{"duration":0.10000000000000009,"midi":38,"time":2.7,"velocity":0.3937007874015748},{"duration":0.10000000000000009,"midi":38,"time":2.7,"velocity":0.3937007874015748},{"duration":0.10000000000000009,"midi":49,"time":2.7,"velocity":0.3937007874015748},{"duration":0.10000000000000009,"midi":38,"time":2.7,"velocity":0.3937007874015748},{"duration":0.10000000000000009,"midi":49,"time":3,"velocity":0.3937007874015748},{"duration":0.10000000000000009,"midi":38,"time":3.3000000000000003,"velocity":0.3937007874015748},{"duration":0.10000000000000009,"midi":38,"time":3.3000000000000003,"velocity":0.3937007874015748},{"duration":0.10000000000000009,"midi":49,"time":3.3000000000000003,"velocity":0.3937007874015748},{"duration":0.10000000000000009,"midi":38,"time":3.3000000000000003,"velocity":0.3937007874015748},{"duration":0.10000000000000009,"midi":38,"time":3.3000000000000003,"velocity":0.3937007874015748},{"duration":0.10000000000000009,"midi":38,"time":3.3000000000000003,"velocity":0.3937007874015748},{"duration":0.10000000000000009,"midi":49,"time":3.6,"velocity":0.3937007874015748},{"duration":0.09999999999999964,"midi":38,"time":3.9000000000000004,"velocity":0.3937007874015748},{"duration":0.09999999999999964,"midi":38,"time":3.9000000000000004,"velocity":0.3937007874015748},{"duration":0.09999999999999964,"midi":49,"time":3.9000000000000004,"velocity":0.3937007874015748},{"duration":0.09999999999999964,"midi":38,"time":3.9000000000000004,"velocity":0.3937007874015748},{"duration":0.09999999999999964,"midi":38,"time":3.9000000000000004,"velocity":0.3937007874015748},{"duration":0.09999999999999964,"midi":38,"time":3.9000000000000004,"velocity":0.3937007874015748},{"duration":0.09999999999999964,"midi":49,"time":4.2,"velocity":0.3937007874015748},{"duration":0.10000000000000053,"midi":38,"time":4.5,"velocity":0.3937007874015748},{"duration":0.10000000000000053,"midi":38,"time":4.5,"velocity":0.3937007874015748},{"duration":0.10000000000000053,"midi":38,"time":4.5,"velocity":0.3937007874015748},{"duration":0.10000000000000053,"midi":49,"time":4.5,"velocity":0.3937007874015748},{"duration":0.10000000000000053,"midi":38,"time":4.5,"velocity":0.3937007874015748},{"duration":0.10000000000000053,"midi":38,"time":4.5,"velocity":0.3937007874015748},{"duration":0.09999999999999964,"midi":49,"time":4.800000000000001,"velocity":0.3937007874015748},{"duration":0.09999999999999964,"midi":38,"time":5.1000000000000005,"velocity":0.3937007874015748},{"duration":0.09999999999999964,"midi":38,"time":5.1000000000000005,"velocity":0.3937007874015748},{"duration":0.09999999999999964,"midi":38,"time":5.1000000000000005,"velocity":0.3937007874015748},{"duration":0.09999999999999964,"midi":38,"time":5.1000000000000005,"velocity":0.3937007874015748},{"duration":0.09999999999999964,"midi":38,"time":5.1000000000000005,"velocity":0.3937007874015748},{"duration":0.09999999999999964,"midi":49,"time":5.1000000000000005,"velocity":0.3937007874015748},{"duration":0.09999999999999964,"midi":49,"time":5.4,"velocity":0.3937007874015748},{"duration":0.10000000000000053,"midi":38,"time":5.7,"velocity":0.3937007874015748},{"duration":0.10000000000000053,"midi":38,"time":5.7,"velocity":0.3937007874015748},{"duration":0.10000000000000053,"midi":49,"time":5.7,"velocity":0.3937007874015748},{"duration":0.10000000000000053,"midi":38,"time":5.7,"velocity":0.3937007874015748},{"duration":0.10000000000000053,"midi":38,"time":5.7,"velocity":0.3937007874015748},{"duration":0.10000000000000053,"midi":38,"time":5.7,"velocity":0.3937007874015748},{"duration":0.10000000000000053,"midi":49,"time":6,"velocity":0.3937007874015748},{"duration":0.09999999999999964,"midi":38,"time":6.300000000000001,"velocity":0.3937007874015748},{"duration":0.09999999999999964,"midi":38,"time":6.300000000000001,"velocity":0.3937007874015748},{"duration":0.09999999999999964,"midi":49,"time":6.300000000000001,"velocity":0.3937007874015748},{"duration":0.09999999999999964,"midi":38,"time":6.300000000000001,"velocity":0.3937007874015748},{"duration":0.09999999999999964,"midi":38,"time":6.300000000000001,"velocity":0.3937007874015748},{"duration":0.09999999999999964,"midi":38,"time":6.300000000000001,"velocity":0.3937007874015748},{"duration":0.09999999999999964,"midi":49,"time":6.6000000000000005,"velocity":0.3937007874015748},{"duration":0.09999999999999964,"midi":49,"time":6.9,"velocity":0.3937007874015748},{"duration":0.09999999999999964,"midi":38,"time":6.9,"velocity":0.3937007874015748},{"duration":0.09999999999999964,"midi":38,"time":6.9,"velocity":0.3937007874015748},{"duration":0.09999999999999964,"midi":38,"time":6.9,"velocity":0.3937007874015748},{"duration":0.09999999999999964,"midi":38,"time":6.9,"velocity":0.3937007874015748},{"duration":0.09999999999999964,"midi":38,"time":6.9,"velocity":0.3937007874015748},{"duration":0.10000000000000053,"midi":49,"time":7.2,"velocity":0.3937007874015748},{"duration":0.10000000000000053,"midi":38,"time":7.5,"velocity":0.3937007874015748},{"duration":0.10000000000000053,"midi":38,"time":7.5,"velocity":0.3937007874015748},{"duration":0.10000000000000053,"midi":38,"time":7.5,"velocity":0.3937007874015748},{"duration":0.10000000000000053,"midi":49,"time":7.5,"velocity":0.3937007874015748},{"duration":0.10000000000000053,"midi":38,"time":7.5,"velocity":0.3937007874015748},{"duration":0.10000000000000053,"midi":38,"time":7.5,"velocity":0.3937007874015748},{"duration":0.09999999999999964,"midi":49,"time":7.800000000000001,"velocity":0.3937007874015748},{"duration":0.10000000000000142,"midi":38,"time":8.1,"velocity":0.3937007874015748},{"duration":0.10000000000000142,"midi":38,"time":8.1,"velocity":0.3937007874015748},{"duration":0.10000000000000142,"midi":38,"time":8.1,"velocity":0.3937007874015748},{"duration":0.10000000000000142,"midi":49,"time":8.1,"velocity":0.3937007874015748},{"duration":0.10000000000000142,"midi":38,"time":8.1,"velocity":0.3937007874015748},{"duration":0.10000000000000142,"midi":38,"time":8.1,"velocity":0.3937007874015748},{"duration":0.09999999999999964,"midi":49,"time":8.4,"velocity":0.3937007874015748},{"duration":0.09999999999999964,"midi":38,"time":8.700000000000001,"velocity":0.3937007874015748},{"duration":0.09999999999999964,"midi":38,"time":8.700000000000001,"velocity":0.3937007874015748},{"duration":0.09999999999999964,"midi":38,"time":8.700000000000001,"velocity":0.3937007874015748},{"duration":0.09999999999999964,"midi":38,"time":8.700000000000001,"velocity":0.3937007874015748},{"duration":0.09999999999999964,"midi":38,"time":8.700000000000001,"velocity":0.3937007874015748},{"duration":0.09999999999999964,"midi":49,"time":8.700000000000001,"velocity":0.3937007874015748},{"duration":0.09999999999999964,"midi":49,"time":9,"velocity":0.3937007874015748},{"duration":0.09999999999999964,"midi":38,"time":9.3,"velocity":0.3937007874015748},{"duration":0.09999999999999964,"midi":38,"time":9.3,"velocity":0.3937007874015748},{"duration":0.09999999999999964,"midi":38,"time":9.3,"velocity":0.3937007874015748},{"duration":0.09999999999999964,"midi":49,"time":9.3,"velocity":0.3937007874015748},{"duration":0.09999999999999964,"midi":38,"time":9.3,"velocity":0.3937007874015748},{"duration":0.09999999999999964,"midi":38,"time":9.3,"velocity":0.3937007874015748},{"duration":0.09999999999999964,"midi":49,"time":9.600000000000001,"velocity":0.3937007874015748},{"duration":0.09999999999999964,"midi":38,"time":9.9,"velocity":0.3937007874015748},{"duration":0.09999999999999964,"midi":38,"time":9.9,"velocity":0.3937007874015748},{"duration":0.09999999999999964,"midi":49,"time":9.9,"velocity":0.3937007874015748},{"duration":0.09999999999999964,"midi":38,"time":9.9,"velocity":0.3937007874015748},{"duration":0.09999999999999964,"midi":38,"time":9.9,"velocity":0.3937007874015748},{"duration":0.09999999999999964,"midi":38,"time":9.9,"velocity":0.3937007874015748},{"duration":0.09999999999999964,"midi":38,"time":10.200000000000001,"velocity":0.3937007874015748},{"duration":0.09999999999999964,"midi":38,"time":10.200000000000001,"velocity":0.3937007874015748},{"duration":0.09999999999999964,"midi":38,"time":10.200000000000001,"velocity":0.3937007874015748},{"duration":0.09999999999999964,"midi":38,"time":10.200000000000001,"velocity":0.3937007874015748},{"duration":0.09999999999999964,"midi":49,"time":10.200000000000001,"velocity":0.3937007874015748},{"duration":0.09999999999999964,"midi":38,"time":10.200000000000001,"velocity":0.3937007874015748},{"duration":0.09999999999999964,"midi":49,"time":10.3,"velocity":0.3937007874015748},{"duration":0.09999999999999964,"midi":38,"time":10.3,"velocity":0.3937007874015748},{"duration":0.09999999999999964,"midi":38,"time":10.3,"velocity":0.3937007874015748},{"duration":0.09999999999999964,"midi":38,"time":10.3,"velocity":0.3937007874015748},{"duration":0.09999999999999964,"midi":38,"time":10.3,"velocity":0.3937007874015748},{"duration":0.09999999999999964,"midi":38,"time":10.3,"velocity":0.3937007874015748},{"duration":0.09999999999999964,"midi":38,"time":10.4,"velocity":0.3937007874015748},{"duration":0.09999999999999964,"midi":38,"time":10.4,"velocity":0.3937007874015748},{"duration":0.09999999999999964,"midi":38,"time":10.4,"velocity":0.3937007874015748},{"duration":0.09999999999999964,"midi":49,"time":10.4,"velocity":0.3937007874015748},{"duration":0.09999999999999964,"midi":38,"time":10.4,"velocity":0.3937007874015748},{"duration":0.09999999999999964,"midi":38,"time":10.4,"velocity":0.3937007874015748},{"duration":0.10000000000000142,"midi":38,"time":10.5,"velocity":0.3937007874015748},{"duration":0.10000000000000142,"midi":38,"time":10.5,"velocity":0.3937007874015748},{"duration":0.10000000000000142,"midi":38,"time":10.5,"velocity":0.3937007874015748},{"duration":0.10000000000000142,"midi":38,"time":10.5,"velocity":0.3937007874015748},{"duration":0.10000000000000142,"midi":38,"time":10.5,"velocity":0.3937007874015748},{"duration":0.10000000000000142,"midi":49,"time":10.5,"velocity":0.3937007874015748},{"duration":0.09999999999999964,"midi":38,"time":10.600000000000001,"velocity":0.3937007874015748},{"duration":0.09999999999999964,"midi":38,"time":10.600000000000001,"velocity":0.3937007874015748},{"duration":0.09999999999999964,"midi":38,"time":10.600000000000001,"velocity":0.3937007874015748},{"duration":0.09999999999999964,"midi":49,"time":10.600000000000001,"velocity":0.3937007874015748},{"duration":0.09999999999999964,"midi":38,"time":10.600000000000001,"velocity":0.3937007874015748},{"duration":0.09999999999999964,"midi":38,"time":10.600000000000001,"velocity":0.3937007874015748},{"duration":0.09999999999999964,"midi":49,"time":10.700000000000001,"velocity":0.3937007874015748},{"duration":0.09999999999999964,"midi":38,"time":10.700000000000001,"velocity":0.3937007874015748},{"duration":0.09999999999999964,"midi":38,"time":10.700000000000001,"velocity":0.3937007874015748},{"duration":0.09999999999999964,"midi":38,"time":10.700000000000001,"velocity":0.3937007874015748},{"duration":0.09999999999999964,"midi":38,"time":10.700000000000001,"velocity":0.3937007874015748},{"duration":0.09999999999999964,"midi":38,"time":10.700000000000001,"velocity":0.3937007874015748},{"duration":0.09999999999999964,"midi":35,"time":10.8,"velocity":0.3937007874015748},{"duration":0.09999999999999964,"midi":35,"time":10.8,"velocity":0.3937007874015748},{"duration":0.09999999999999964,"midi":38,"time":10.8,"velocity":0.3937007874015748},{"duration":0.09999999999999964,"midi":35,"time":10.8,"velocity":0.3937007874015748},{"duration":0.09999999999999964,"midi":38,"time":10.8,"velocity":0.3937007874015748},{"duration":0.09999999999999964,"midi":35,"time":10.8,"velocity":0.3937007874015748},{"duration":0.09999999999999964,"midi":38,"time":10.8,"velocity":0.3937007874015748},{"duration":0.09999999999999964,"midi":38,"time":10.8,"velocity":0.3937007874015748},{"duration":0.09999999999999964,"midi":38,"time":10.8,"velocity":0.3937007874015748},{"duration":0.09999999999999964,"midi":49,"time":10.8,"velocity":0.3937007874015748},{"duration":0.09999999999999964,"midi":35,"time":10.8,"velocity":0.3937007874015748},{"duration":0.09999999999999964,"midi":49,"time":11.100000000000001,"velocity":0.3937007874015748},{"duration":0.09999999999999964,"midi":35,"time":11.4,"velocity":0.3937007874015748},{"duration":0.09999999999999964,"midi":38,"time":11.4,"velocity":0.3937007874015748},{"duration":0.09999999999999964,"midi":35,"time":11.4,"velocity":0.3937007874015748},{"duration":0.09999999999999964,"midi":35,"time":11.4,"velocity":0.3937007874015748},{"duration":0.09999999999999964,"midi":38,"time":11.4,"velocity":0.3937007874015748},{"duration":0.09999999999999964,"midi":38,"time":11.4,"velocity":0.3937007874015748},{"duration":0.09999999999999964,"midi":35,"time":11.4,"velocity":0.3937007874015748},{"duration":0.09999999999999964,"midi":49,"time":11.4,"velocity":0.3937007874015748},{"duration":0.09999999999999964,"midi":38,"time":11.4,"velocity":0.3937007874015748},{"duration":0.09999999999999964,"midi":49,"time":11.700000000000001,"velocity":0.3937007874015748},{"duration":0.09999999999999964,"midi":49,"time":11.9,"velocity":0.3937007874015748},{"duration":0.09999999999999964,"midi":38,"time":11.9,"velocity":0.3937007874015748},{"duration":0.09999999999999964,"midi":38,"time":11.9,"velocity":0.3937007874015748},{"duration":0.09999999999999964,"midi":35,"time":11.9,"velocity":0.3937007874015748},{"duration":0.09999999999999964,"midi":35,"time":11.9,"velocity":0.3937007874015748},{"duration":0.09999999999999964,"midi":35,"time":11.9,"velocity":0.3937007874015748},{"duration":0.09999999999999964,"midi":35,"time":11.9,"velocity":0.3937007874015748},{"duration":0.09999999999999964,"midi":38,"time":11.9,"velocity":0.3937007874015748},{"duration":0.09999999999999964,"midi":38,"time":11.9,"velocity":0.3937007874015748},{"duration":0.09999999999999964,"midi":35,"time":11.9,"velocity":0.3937007874015748},{"duration":0.09999999999999964,"midi":38,"time":11.9,"velocity":0.3937007874015748},{"duration":0.09999999999999964,"midi":49,"time":12.200000000000001,"velocity":0.3937007874015748},{"duration":0.09999999999999964,"midi":38,"time":12.200000000000001,"velocity":0.3937007874015748},{"duration":0.09999999999999964,"midi":35,"time":12.200000000000001,"velocity":0.3937007874015748},{"duration":0.09999999999999964,"midi":35,"time":12.200000000000001,"velocity":0.3937007874015748},{"duration":0.09999999999999964,"midi":35,"time":12.200000000000001,"velocity":0.3937007874015748},{"duration":0.09999999999999964,"midi":38,"time":12.200000000000001,"velocity":0.3937007874015748},{"duration":0.09999999999999964,"midi":38,"time":12.200000000000001,"velocity":0.3937007874015748},{"duration":0.09999999999999964,"midi":35,"time":12.200000000000001,"velocity":0.3937007874015748},{"duration":0.09999999999999964,"midi":38,"time":12.200000000000001,"velocity":0.3937007874015748},{"duration":0.09999999999999964,"midi":38,"time":12.200000000000001,"velocity":0.3937007874015748},{"duration":0.09999999999999964,"midi":35,"time":12.200000000000001,"velocity":0.3937007874015748},{"duration":0.10000000000000142,"midi":49,"time":12.5,"velocity":0.3937007874015748},{"duration":0.09999999999999964,"midi":35,"time":12.600000000000001,"velocity":0.3937007874015748},{"duration":0.09999999999999964,"midi":38,"time":12.600000000000001,"velocity":0.3937007874015748},{"duration":0.09999999999999964,"midi":38,"time":12.600000000000001,"velocity":0.3937007874015748},{"duration":0.09999999999999964,"midi":35,"time":12.600000000000001,"velocity":0.3937007874015748},{"duration":0.09999999999999964,"midi":38,"time":12.600000000000001,"velocity":0.3937007874015748},{"duration":0.09999999999999964,"midi":35,"time":12.600000000000001,"velocity":0.3937007874015748},{"duration":0.09999999999999964,"midi":38,"time":12.600000000000001,"velocity":0.3937007874015748},{"duration":0.09999999999999964,"midi":35,"time":12.600000000000001,"velocity":0.3937007874015748},{"duration":0.09999999999999964,"midi":38,"time":12.600000000000001,"velocity":0.3937007874015748},{"duration":0.09999999999999964,"midi":35,"time":12.600000000000001,"velocity":0.3937007874015748},{"duration":0.09999999999999964,"midi":49,"time":12.8,"velocity":0.3937007874015748},{"duration":0.09999999999999964,"midi":49,"time":13.100000000000001,"velocity":0.3937007874015748},{"duration":0.09999999999999964,"midi":35,"time":13.200000000000001,"velocity":0.3937007874015748},{"duration":0.09999999999999964,"midi":35,"time":13.200000000000001,"velocity":0.3937007874015748},{"duration":0.09999999999999964,"midi":38,"time":13.200000000000001,"velocity":0.3937007874015748},{"duration":0.09999999999999964,"midi":38,"time":13.200000000000001,"velocity":0.3937007874015748},{"duration":0.09999999999999964,"midi":38,"time":13.200000000000001,"velocity":0.3937007874015748},{"duration":0.09999999999999964,"midi":35,"time":13.200000000000001,"velocity":0.3937007874015748},{"duration":0.09999999999999964,"midi":38,"time":13.200000000000001,"velocity":0.3937007874015748},{"duration":0.09999999999999964,"midi":35,"time":13.200000000000001,"velocity":0.3937007874015748},{"duration":0.09999999999999964,"midi":35,"time":13.200000000000001,"velocity":0.3937007874015748},{"duration":0.09999999999999964,"midi":38,"time":13.200000000000001,"velocity":0.3937007874015748},{"duration":0.09999999999999964,"midi":49,"time":13.4,"velocity":0.3937007874015748},{"duration":0.09999999999999964,"midi":35,"time":13.700000000000001,"velocity":0.3937007874015748},{"duration":0.09999999999999964,"midi":38,"time":13.700000000000001,"velocity":0.3937007874015748},{"duration":0.09999999999999964,"midi":35,"time":13.700000000000001,"velocity":0.3937007874015748},{"duration":0.09999999999999964,"midi":35,"time":13.700000000000001,"velocity":0.3937007874015748},{"duration":0.09999999999999964,"midi":49,"time":13.700000000000001,"velocity":0.3937007874015748},{"duration":0.09999999999999964,"midi":38,"time":13.700000000000001,"velocity":0.3937007874015748},{"duration":0.09999999999999964,"midi":35,"time":13.700000000000001,"velocity":0.3937007874015748},{"duration":0.09999999999999964,"midi":38,"time":13.700000000000001,"velocity":0.3937007874015748},{"duration":0.09999999999999964,"midi":38,"time":13.700000000000001,"velocity":0.3937007874015748},{"duration":0.09999999999999964,"midi":38,"time":13.700000000000001,"velocity":0.3937007874015748},{"duration":0.09999999999999964,"midi":35,"time":13.700000000000001,"velocity":0.3937007874015748},{"duration":0.09999999999999964,"midi":51,"time":14.3,"velocity":0.3937007874015748},{"duration":0.09999999999999964,"midi":40,"time":14.3,"velocity":0.3937007874015748},{"duration":0.09999999999999964,"midi":35,"time":14.3,"velocity":0.3937007874015748},{"duration":0.09999999999999964,"midi":38,"time":14.3,"velocity":0.3937007874015748},{"duration":0.09999999999999964,"midi":38,"time":14.3,"velocity":0.3937007874015748},{"duration":0.09999999999999964,"midi":38,"time":14.3,"velocity":0.3937007874015748},{"duration":0.09999999999999964,"midi":38,"time":14.3,"velocity":0.3937007874015748},{"duration":0.09999999999999964,"midi":35,"time":14.3,"velocity":0.3937007874015748},{"duration":0.09999999999999964,"midi":38,"time":14.3,"velocity":0.3937007874015748},{"duration":0.09999999999999964,"midi":49,"time":14.3,"velocity":0.3937007874015748},{"duration":0.09999999999999964,"midi":35,"time":14.3,"velocity":0.3937007874015748},{"duration":0.09999999999999964,"midi":49,"time":14.3,"velocity":0.3937007874015748},{"duration":0.09999999999999964,"midi":49,"time":14.3,"velocity":0.3937007874015748},{"duration":0.09999999999999964,"midi":35,"time":14.3,"velocity":0.3937007874015748},{"duration":0.10000000000000142,"midi":48,"time":14.5,"velocity":0.3937007874015748},{"duration":0.10000000000000142,"midi":48,"time":14.5,"velocity":0.3937007874015748},{"duration":0.10000000000000142,"midi":48,"time":14.5,"velocity":0.3937007874015748},{"duration":0.10000000000000142,"midi":48,"time":14.5,"velocity":0.3937007874015748},{"duration":0.10000000000000142,"midi":48,"time":14.5,"velocity":0.3937007874015748},{"duration":0.09999999999999964,"midi":47,"time":14.600000000000001,"velocity":0.3937007874015748},{"duration":0.09999999999999964,"midi":47,"time":14.600000000000001,"velocity":0.3937007874015748},{"duration":0.09999999999999964,"midi":47,"time":14.600000000000001,"velocity":0.3937007874015748},{"duration":0.09999999999999964,"midi":47,"time":14.600000000000001,"velocity":0.3937007874015748},{"duration":0.09999999999999964,"midi":47,"time":14.600000000000001,"velocity":0.3937007874015748},{"duration":0.09999999999999964,"midi":48,"time":14.9,"velocity":0.3937007874015748},{"duration":0.09999999999999964,"midi":48,"time":14.9,"velocity":0.3937007874015748},{"duration":0.09999999999999964,"midi":48,"time":14.9,"velocity":0.3937007874015748},{"duration":0.09999999999999964,"midi":48,"time":14.9,"velocity":0.3937007874015748},{"duration":0.09999999999999964,"midi":48,"time":14.9,"velocity":0.3937007874015748},{"duration":0.09999999999999964,"midi":47,"time":15.100000000000001,"velocity":0.3937007874015748},{"duration":0.09999999999999964,"midi":47,"time":15.100000000000001,"velocity":0.3937007874015748},{"duration":0.09999999999999964,"midi":47,"time":15.100000000000001,"velocity":0.3937007874015748},{"duration":0.09999999999999964,"midi":47,"time":15.100000000000001,"velocity":0.3937007874015748},{"duration":0.09999999999999964,"midi":47,"time":15.100000000000001,"velocity":0.3937007874015748},{"duration":0.09999999999999964,"midi":38,"time":15.600000000000001,"velocity":0.3937007874015748},{"duration":0.09999999999999964,"midi":49,"time":15.600000000000001,"velocity":0.3937007874015748},{"duration":0.09999999999999964,"midi":40,"time":15.600000000000001,"velocity":0.3937007874015748},{"duration":0.09999999999999964,"midi":35,"time":15.600000000000001,"velocity":0.3937007874015748},{"duration":0.09999999999999964,"midi":40,"time":15.600000000000001,"velocity":0.3937007874015748},{"duration":0.09999999999999964,"midi":38,"time":15.600000000000001,"velocity":0.3937007874015748},{"duration":0.09999999999999964,"midi":40,"time":15.600000000000001,"velocity":0.3937007874015748},{"duration":0.09999999999999964,"midi":35,"time":15.600000000000001,"velocity":0.3937007874015748},{"duration":0.09999999999999964,"midi":40,"time":15.600000000000001,"velocity":0.3937007874015748},{"duration":0.09999999999999964,"midi":51,"time":15.600000000000001,"velocity":0.3937007874015748},{"duration":0.09999999999999964,"midi":35,"time":15.600000000000001,"velocity":0.3937007874015748},{"duration":0.09999999999999964,"midi":38,"time":15.600000000000001,"velocity":0.3937007874015748},{"duration":0.09999999999999964,"midi":35,"time":15.600000000000001,"velocity":0.3937007874015748},{"duration":0.09999999999999964,"midi":35,"time":15.600000000000001,"velocity":0.3937007874015748},{"duration":0.09999999999999964,"midi":38,"time":15.600000000000001,"velocity":0.3937007874015748},{"duration":0.10000000000000142,"midi":40,"time":16.2,"velocity":0.3937007874015748},{"duration":0.10000000000000142,"midi":40,"time":16.2,"velocity":0.3937007874015748},{"duration":0.10000000000000142,"midi":51,"time":16.2,"velocity":0.3937007874015748},{"duration":0.10000000000000142,"midi":38,"time":16.2,"velocity":0.3937007874015748},{"duration":0.10000000000000142,"midi":49,"time":16.2,"velocity":0.3937007874015748},{"duration":0.10000000000000142,"midi":35,"time":16.2,"velocity":0.3937007874015748},{"duration":0.10000000000000142,"midi":35,"time":16.2,"velocity":0.3937007874015748},{"duration":0.10000000000000142,"midi":38,"time":16.2,"velocity":0.3937007874015748},{"duration":0.10000000000000142,"midi":35,"time":16.2,"velocity":0.3937007874015748},{"duration":0.10000000000000142,"midi":40,"time":16.2,"velocity":0.3937007874015748},{"duration":0.10000000000000142,"midi":38,"time":16.2,"velocity":0.3937007874015748},{"duration":0.10000000000000142,"midi":35,"time":16.2,"velocity":0.3937007874015748},{"duration":0.10000000000000142,"midi":40,"time":16.2,"velocity":0.3937007874015748},{"duration":0.10000000000000142,"midi":35,"time":16.2,"velocity":0.3937007874015748},{"duration":0.10000000000000142,"midi":38,"time":16.2,"velocity":0.3937007874015748},{"duration":0.10000000000000142,"midi":35,"time":16.8,"velocity":0.3937007874015748},{"duration":0.10000000000000142,"midi":40,"time":16.8,"velocity":0.3937007874015748},{"duration":0.10000000000000142,"midi":35,"time":16.8,"velocity":0.3937007874015748},{"duration":0.10000000000000142,"midi":49,"time":16.8,"velocity":0.3937007874015748},{"duration":0.10000000000000142,"midi":38,"time":16.8,"velocity":0.3937007874015748},{"duration":0.10000000000000142,"midi":38,"time":16.8,"velocity":0.3937007874015748},{"duration":0.10000000000000142,"midi":40,"time":16.8,"velocity":0.3937007874015748},{"duration":0.10000000000000142,"midi":35,"time":16.8,"velocity":0.3937007874015748},{"duration":0.10000000000000142,"midi":40,"time":16.8,"velocity":0.3937007874015748},{"duration":0.10000000000000142,"midi":35,"time":16.8,"velocity":0.3937007874015748},{"duration":0.10000000000000142,"midi":38,"time":16.8,"velocity":0.3937007874015748},{"duration":0.10000000000000142,"midi":35,"time":16.8,"velocity":0.3937007874015748},{"duration":0.10000000000000142,"midi":40,"time":16.8,"velocity":0.3937007874015748},{"duration":0.10000000000000142,"midi":38,"time":16.8,"velocity":0.3937007874015748},{"duration":0.10000000000000142,"midi":51,"time":16.8,"velocity":0.3937007874015748},{"duration":0.09999999999999787,"midi":40,"time":17.400000000000002,"velocity":0.3937007874015748},{"duration":0.09999999999999787,"midi":38,"time":17.400000000000002,"velocity":0.3937007874015748},{"duration":0.09999999999999787,"midi":40,"time":17.400000000000002,"velocity":0.3937007874015748},{"duration":0.09999999999999787,"midi":40,"time":17.400000000000002,"velocity":0.3937007874015748},{"duration":0.09999999999999787,"midi":35,"time":17.400000000000002,"velocity":0.3937007874015748},{"duration":0.09999999999999787,"midi":38,"time":17.400000000000002,"velocity":0.3937007874015748},{"duration":0.09999999999999787,"midi":35,"time":17.400000000000002,"velocity":0.3937007874015748},{"duration":0.09999999999999787,"midi":38,"time":17.400000000000002,"velocity":0.3937007874015748},{"duration":0.09999999999999787,"midi":38,"time":17.400000000000002,"velocity":0.3937007874015748},{"duration":0.09999999999999787,"midi":35,"time":17.400000000000002,"velocity":0.3937007874015748},{"duration":0.09999999999999787,"midi":49,"time":17.400000000000002,"velocity":0.3937007874015748},{"duration":0.09999999999999787,"midi":35,"time":17.400000000000002,"velocity":0.3937007874015748},{"duration":0.09999999999999787,"midi":51,"time":17.400000000000002,"velocity":0.3937007874015748},{"duration":0.09999999999999787,"midi":40,"time":17.400000000000002,"velocity":0.3937007874015748},{"duration":0.09999999999999787,"midi":35,"time":17.400000000000002,"velocity":0.3937007874015748},{"duration":0.09999999999999787,"midi":40,"time":17.900000000000002,"velocity":0.3937007874015748},{"duration":0.09999999999999787,"midi":35,"time":17.900000000000002,"velocity":0.3937007874015748},{"duration":0.09999999999999787,"midi":38,"time":17.900000000000002,"velocity":0.3937007874015748},{"duration":0.09999999999999787,"midi":51,"time":17.900000000000002,"velocity":0.3937007874015748},{"duration":0.09999999999999787,"midi":40,"time":17.900000000000002,"velocity":0.3937007874015748},{"duration":0.09999999999999787,"midi":38,"time":17.900000000000002,"velocity":0.3937007874015748},{"duration":0.09999999999999787,"midi":38,"time":17.900000000000002,"velocity":0.3937007874015748},{"duration":0.09999999999999787,"midi":35,"time":17.900000000000002,"velocity":0.3937007874015748},{"duration":0.09999999999999787,"midi":49,"time":17.900000000000002,"velocity":0.3937007874015748},{"duration":0.09999999999999787,"midi":35,"time":17.900000000000002,"velocity":0.3937007874015748},{"duration":0.09999999999999787,"midi":38,"time":17.900000000000002,"velocity":0.3937007874015748},{"duration":0.09999999999999787,"midi":40,"time":17.900000000000002,"velocity":0.3937007874015748},{"duration":0.09999999999999787,"midi":35,"time":17.900000000000002,"velocity":0.3937007874015748},{"duration":0.09999999999999787,"midi":40,"time":17.900000000000002,"velocity":0.3937007874015748},{"duration":0.09999999999999787,"midi":35,"time":17.900000000000002,"velocity":0.3937007874015748},{"duration":0.10000000000000142,"midi":48,"time":18.2,"velocity":0.3937007874015748},{"duration":0.10000000000000142,"midi":48,"time":18.2,"velocity":0.3937007874015748},{"duration":0.10000000000000142,"midi":48,"time":18.2,"velocity":0.3937007874015748},{"duration":0.10000000000000142,"midi":48,"time":18.2,"velocity":0.3937007874015748},{"duration":0.10000000000000142,"midi":48,"time":18.2,"velocity":0.3937007874015748},{"duration":0.10000000000000142,"midi":47,"time":18.3,"velocity":0.3937007874015748},{"duration":0.10000000000000142,"midi":47,"time":18.3,"velocity":0.3937007874015748},{"duration":0.10000000000000142,"midi":47,"time":18.3,"velocity":0.3937007874015748},{"duration":0.10000000000000142,"midi":47,"time":18.3,"velocity":0.3937007874015748},{"duration":0.10000000000000142,"midi":47,"time":18.3,"velocity":0.3937007874015748},{"duration":0.09999999999999787,"midi":48,"time":18.6,"velocity":0.3937007874015748},{"duration":0.09999999999999787,"midi":48,"time":18.6,"velocity":0.3937007874015748},{"duration":0.09999999999999787,"midi":48,"time":18.6,"velocity":0.3937007874015748},{"duration":0.09999999999999787,"midi":48,"time":18.6,"velocity":0.3937007874015748},{"duration":0.09999999999999787,"midi":48,"time":18.6,"velocity":0.3937007874015748},{"duration":0.09999999999999787,"midi":47,"time":18.900000000000002,"velocity":0.3937007874015748},{"duration":0.09999999999999787,"midi":47,"time":18.900000000000002,"velocity":0.3937007874015748},{"duration":0.09999999999999787,"midi":47,"time":18.900000000000002,"velocity":0.3937007874015748},{"duration":0.09999999999999787,"midi":47,"time":18.900000000000002,"velocity":0.3937007874015748},{"duration":0.09999999999999787,"midi":47,"time":18.900000000000002,"velocity":0.3937007874015748},{"duration":0.09999999999999787,"midi":38,"time":19.200000000000003,"velocity":0.3937007874015748},{"duration":0.09999999999999787,"midi":38,"time":19.200000000000003,"velocity":0.3937007874015748},{"duration":0.09999999999999787,"midi":38,"time":19.200000000000003,"velocity":0.3937007874015748},{"duration":0.09999999999999787,"midi":38,"time":19.200000000000003,"velocity":0.3937007874015748},{"duration":0.09999999999999787,"midi":38,"time":19.200000000000003,"velocity":0.3937007874015748},{"duration":0.10000000000000142,"midi":38,"time":19.3,"velocity":0.3937007874015748},{"duration":0.10000000000000142,"midi":38,"time":19.3,"velocity":0.3937007874015748},{"duration":0.10000000000000142,"midi":38,"time":19.3,"velocity":0.3937007874015748},{"duration":0.10000000000000142,"midi":38,"time":19.3,"velocity":0.3937007874015748},{"duration":0.10000000000000142,"midi":38,"time":19.3,"velocity":0.3937007874015748},{"duration":0.09999999999999787,"midi":38,"time":19.400000000000002,"velocity":0.3937007874015748},{"duration":0.09999999999999787,"midi":38,"time":19.400000000000002,"velocity":0.3937007874015748},{"duration":0.09999999999999787,"midi":38,"time":19.400000000000002,"velocity":0.3937007874015748},{"duration":0.09999999999999787,"midi":38,"time":19.400000000000002,"velocity":0.3937007874015748},{"duration":0.09999999999999787,"midi":38,"time":19.400000000000002,"velocity":0.3937007874015748},{"duration":0.10000000000000142,"midi":38,"time":19.5,"velocity":0.3937007874015748},{"duration":0.10000000000000142,"midi":38,"time":19.5,"velocity":0.3937007874015748},{"duration":0.10000000000000142,"midi":38,"time":19.5,"velocity":0.3937007874015748},{"duration":0.10000000000000142,"midi":38,"time":19.5,"velocity":0.3937007874015748},{"duration":0.10000000000000142,"midi":38,"time":19.5,"velocity":0.3937007874015748},{"duration":0.10000000000000142,"midi":38,"time":19.6,"velocity":0.3937007874015748},{"duration":0.10000000000000142,"midi":38,"time":19.6,"velocity":0.3937007874015748},{"duration":0.10000000000000142,"midi":38,"time":19.6,"velocity":0.3937007874015748},{"duration":0.10000000000000142,"midi":38,"time":19.6,"velocity":0.3937007874015748},{"duration":0.10000000000000142,"midi":38,"time":19.6,"velocity":0.3937007874015748},{"duration":0.09999999999999787,"midi":38,"time":19.700000000000003,"velocity":0.3937007874015748},{"duration":0.09999999999999787,"midi":38,"time":19.700000000000003,"velocity":0.3937007874015748},{"duration":0.09999999999999787,"midi":38,"time":19.700000000000003,"velocity":0.3937007874015748},{"duration":0.09999999999999787,"midi":38,"time":19.700000000000003,"velocity":0.3937007874015748},{"duration":0.09999999999999787,"midi":38,"time":19.700000000000003,"velocity":0.3937007874015748},{"duration":0.10000000000000142,"midi":38,"time":19.8,"velocity":0.3937007874015748},{"duration":0.10000000000000142,"midi":38,"time":19.8,"velocity":0.3937007874015748},{"duration":0.10000000000000142,"midi":38,"time":19.8,"velocity":0.3937007874015748},{"duration":0.10000000000000142,"midi":38,"time":19.8,"velocity":0.3937007874015748},{"duration":0.10000000000000142,"midi":38,"time":19.8,"velocity":0.3937007874015748},{"duration":0.09999999999999787,"midi":38,"time":19.900000000000002,"velocity":0.3937007874015748},{"duration":0.09999999999999787,"midi":38,"time":19.900000000000002,"velocity":0.3937007874015748},{"duration":0.09999999999999787,"midi":38,"time":19.900000000000002,"velocity":0.3937007874015748},{"duration":0.09999999999999787,"midi":38,"time":19.900000000000002,"velocity":0.3937007874015748},{"duration":0.09999999999999787,"midi":38,"time":19.900000000000002,"velocity":0.3937007874015748},{"duration":0.10000000000000142,"midi":38,"time":20,"velocity":0.3937007874015748},{"duration":0.10000000000000142,"midi":38,"time":20,"velocity":0.3937007874015748},{"duration":0.10000000000000142,"midi":38,"time":20,"velocity":0.3937007874015748},{"duration":0.10000000000000142,"midi":38,"time":20,"velocity":0.3937007874015748},{"duration":0.10000000000000142,"midi":38,"time":20,"velocity":0.3937007874015748},{"duration":0.10000000000000142,"midi":38,"time":20.1,"velocity":0.3937007874015748},{"duration":0.10000000000000142,"midi":38,"time":20.1,"velocity":0.3937007874015748},{"duration":0.10000000000000142,"midi":38,"time":20.1,"velocity":0.3937007874015748},{"duration":0.10000000000000142,"midi":38,"time":20.1,"velocity":0.3937007874015748},{"duration":0.10000000000000142,"midi":38,"time":20.1,"velocity":0.3937007874015748},{"duration":0.09999999999999787,"midi":38,"time":20.200000000000003,"velocity":0.3937007874015748},{"duration":0.09999999999999787,"midi":38,"time":20.200000000000003,"velocity":0.3937007874015748},{"duration":0.09999999999999787,"midi":38,"time":20.200000000000003,"velocity":0.3937007874015748},{"duration":0.09999999999999787,"midi":38,"time":20.200000000000003,"velocity":0.3937007874015748},{"duration":0.09999999999999787,"midi":38,"time":20.200000000000003,"velocity":0.3937007874015748},{"duration":0.10000000000000142,"midi":38,"time":20.3,"velocity":0.3937007874015748},{"duration":0.10000000000000142,"midi":38,"time":20.3,"velocity":0.3937007874015748},{"duration":0.10000000000000142,"midi":38,"time":20.3,"velocity":0.3937007874015748},{"duration":0.10000000000000142,"midi":38,"time":20.3,"velocity":0.3937007874015748},{"duration":0.10000000000000142,"midi":38,"time":20.3,"velocity":0.3937007874015748},{"duration":0.09999999999999787,"midi":49,"time":20.400000000000002,"velocity":0.3937007874015748},{"duration":0.09999999999999787,"midi":38,"time":20.700000000000003,"velocity":0.3937007874015748},{"duration":0.09999999999999787,"midi":38,"time":20.700000000000003,"velocity":0.3937007874015748},{"duration":0.09999999999999787,"midi":49,"time":20.700000000000003,"velocity":0.3937007874015748},{"duration":0.09999999999999787,"midi":38,"time":20.700000000000003,"velocity":0.3937007874015748},{"duration":0.09999999999999787,"midi":38,"time":20.700000000000003,"velocity":0.3937007874015748},{"duration":0.09999999999999787,"midi":38,"time":20.700000000000003,"velocity":0.3937007874015748},{"duration":0.10000000000000142,"midi":49,"time":21,"velocity":0.3937007874015748},{"duration":0.10000000000000142,"midi":49,"time":21.3,"velocity":0.3937007874015748},{"duration":0.10000000000000142,"midi":38,"time":21.3,"velocity":0.3937007874015748},{"duration":0.10000000000000142,"midi":38,"time":21.3,"velocity":0.3937007874015748},{"duration":0.10000000000000142,"midi":38,"time":21.3,"velocity":0.3937007874015748},{"duration":0.10000000000000142,"midi":38,"time":21.3,"velocity":0.3937007874015748},{"duration":0.10000000000000142,"midi":38,"time":21.3,"velocity":0.3937007874015748},{"duration":0.10000000000000142,"midi":49,"time":21.6,"velocity":0.3937007874015748},{"duration":0.09999999999999787,"midi":38,"time":21.900000000000002,"velocity":0.3937007874015748},{"duration":0.09999999999999787,"midi":38,"time":21.900000000000002,"velocity":0.3937007874015748},{"duration":0.09999999999999787,"midi":49,"time":21.900000000000002,"velocity":0.3937007874015748},{"duration":0.09999999999999787,"midi":38,"time":21.900000000000002,"velocity":0.3937007874015748},{"duration":0.09999999999999787,"midi":38,"time":21.900000000000002,"velocity":0.3937007874015748},{"duration":0.09999999999999787,"midi":38,"time":21.900000000000002,"velocity":0.3937007874015748},{"duration":0.09999999999999787,"midi":49,"time":22.200000000000003,"velocity":0.3937007874015748},{"duration":0.10000000000000142,"midi":38,"time":22.5,"velocity":0.3937007874015748},{"duration":0.10000000000000142,"midi":38,"time":22.5,"velocity":0.3937007874015748},{"duration":0.10000000000000142,"midi":38,"time":22.5,"velocity":0.3937007874015748},{"duration":0.10000000000000142,"midi":38,"time":22.5,"velocity":0.3937007874015748},{"duration":0.10000000000000142,"midi":49,"time":22.5,"velocity":0.3937007874015748},{"duration":0.10000000000000142,"midi":38,"time":22.5,"velocity":0.3937007874015748},{"duration":0.10000000000000142,"midi":49,"time":22.8,"velocity":0.3937007874015748},{"duration":0.10000000000000142,"midi":38,"time":23.1,"velocity":0.3937007874015748},{"duration":0.10000000000000142,"midi":49,"time":23.1,"velocity":0.3937007874015748},{"duration":0.10000000000000142,"midi":38,"time":23.1,"velocity":0.3937007874015748},{"duration":0.10000000000000142,"midi":38,"time":23.1,"velocity":0.3937007874015748},{"duration":0.10000000000000142,"midi":38,"time":23.1,"velocity":0.3937007874015748},{"duration":0.10000000000000142,"midi":38,"time":23.1,"velocity":0.3937007874015748},{"duration":0.09999999999999787,"midi":49,"time":23.400000000000002,"velocity":0.3937007874015748},{"duration":0.09999999999999787,"midi":38,"time":23.700000000000003,"velocity":0.3937007874015748},{"duration":0.09999999999999787,"midi":38,"time":23.700000000000003,"velocity":0.3937007874015748},{"duration":0.09999999999999787,"midi":49,"time":23.700000000000003,"velocity":0.3937007874015748},{"duration":0.09999999999999787,"midi":38,"time":23.700000000000003,"velocity":0.3937007874015748},{"duration":0.09999999999999787,"midi":38,"time":23.700000000000003,"velocity":0.3937007874015748},{"duration":0.09999999999999787,"midi":38,"time":23.700000000000003,"velocity":0.3937007874015748},{"duration":0.10000000000000142,"midi":49,"time":24,"velocity":0.3937007874015748},{"duration":0.10000000000000142,"midi":38,"time":24.3,"velocity":0.3937007874015748},{"duration":0.10000000000000142,"midi":38,"time":24.3,"velocity":0.3937007874015748},{"duration":0.10000000000000142,"midi":38,"time":24.3,"velocity":0.3937007874015748},{"duration":0.10000000000000142,"midi":49,"time":24.3,"velocity":0.3937007874015748},{"duration":0.10000000000000142,"midi":38,"time":24.3,"velocity":0.3937007874015748},{"duration":0.10000000000000142,"midi":38,"time":24.3,"velocity":0.3937007874015748},{"duration":0.10000000000000142,"midi":49,"time":24.6,"velocity":0.3937007874015748},{"duration":0.09999999999999787,"midi":38,"time":24.900000000000002,"velocity":0.3937007874015748},{"duration":0.09999999999999787,"midi":38,"time":24.900000000000002,"velocity":0.3937007874015748},{"duration":0.09999999999999787,"midi":38,"time":24.900000000000002,"velocity":0.3937007874015748},{"duration":0.09999999999999787,"midi":38,"time":24.900000000000002,"velocity":0.3937007874015748},{"duration":0.09999999999999787,"midi":49,"time":24.900000000000002,"velocity":0.3937007874015748},{"duration":0.09999999999999787,"midi":38,"time":24.900000000000002,"velocity":0.3937007874015748},{"duration":0.09999999999999787,"midi":49,"time":25.200000000000003,"velocity":0.3937007874015748},{"duration":0.10000000000000142,"midi":38,"time":25.5,"velocity":0.3937007874015748},{"duration":0.10000000000000142,"midi":38,"time":25.5,"velocity":0.3937007874015748},{"duration":0.10000000000000142,"midi":49,"time":25.5,"velocity":0.3937007874015748},{"duration":0.10000000000000142,"midi":38,"time":25.5,"velocity":0.3937007874015748},{"duration":0.10000000000000142,"midi":38,"time":25.5,"velocity":0.3937007874015748},{"duration":0.10000000000000142,"midi":38,"time":25.5,"velocity":0.3937007874015748},{"duration":0.10000000000000142,"midi":49,"time":25.8,"velocity":0.3937007874015748},{"duration":0.10000000000000142,"midi":38,"time":26.1,"velocity":0.3937007874015748},{"duration":0.10000000000000142,"midi":38,"time":26.1,"velocity":0.3937007874015748},{"duration":0.10000000000000142,"midi":38,"time":26.1,"velocity":0.3937007874015748},{"duration":0.10000000000000142,"midi":38,"time":26.1,"velocity":0.3937007874015748},{"duration":0.10000000000000142,"midi":38,"time":26.1,"velocity":0.3937007874015748},{"duration":0.10000000000000142,"midi":49,"time":26.1,"velocity":0.3937007874015748},{"duration":0.09999999999999787,"midi":49,"time":26.400000000000002,"velocity":0.3937007874015748},{"duration":0.09999999999999787,"midi":38,"time":26.700000000000003,"velocity":0.3937007874015748},{"duration":0.09999999999999787,"midi":38,"time":26.700000000000003,"velocity":0.3937007874015748},{"duration":0.09999999999999787,"midi":38,"time":26.700000000000003,"velocity":0.3937007874015748},{"duration":0.09999999999999787,"midi":49,"time":26.700000000000003,"velocity":0.3937007874015748},{"duration":0.09999999999999787,"midi":38,"time":26.700000000000003,"velocity":0.3937007874015748},{"duration":0.09999999999999787,"midi":38,"time":26.700000000000003,"velocity":0.3937007874015748},{"duration":0.10000000000000142,"midi":49,"time":27,"velocity":0.3937007874015748},{"duration":0.10000000000000142,"midi":38,"time":27.3,"velocity":0.3937007874015748},{"duration":0.10000000000000142,"midi":38,"time":27.3,"velocity":0.3937007874015748},{"duration":0.10000000000000142,"midi":38,"time":27.3,"velocity":0.3937007874015748},{"duration":0.10000000000000142,"midi":38,"time":27.3,"velocity":0.3937007874015748},{"duration":0.10000000000000142,"midi":38,"time":27.3,"velocity":0.3937007874015748},{"duration":0.10000000000000142,"midi":49,"time":27.3,"velocity":0.3937007874015748},{"duration":0.10000000000000142,"midi":49,"time":27.6,"velocity":0.3937007874015748},{"duration":0.09999999999999787,"midi":49,"time":27.900000000000002,"velocity":0.3937007874015748},{"duration":0.09999999999999787,"midi":38,"time":27.900000000000002,"velocity":0.3937007874015748},{"duration":0.09999999999999787,"midi":38,"time":27.900000000000002,"velocity":0.3937007874015748},{"duration":0.09999999999999787,"midi":38,"time":27.900000000000002,"velocity":0.3937007874015748},{"duration":0.09999999999999787,"midi":38,"time":27.900000000000002,"velocity":0.3937007874015748},{"duration":0.09999999999999787,"midi":38,"time":27.900000000000002,"velocity":0.3937007874015748},{"duration":0.09999999999999787,"midi":49,"time":28.200000000000003,"velocity":0.3937007874015748},{"duration":0.10000000000000142,"midi":38,"time":28.5,"velocity":0.3937007874015748},{"duration":0.10000000000000142,"midi":49,"time":28.5,"velocity":0.3937007874015748},{"duration":0.10000000000000142,"midi":38,"time":28.5,"velocity":0.3937007874015748},{"duration":0.10000000000000142,"midi":38,"time":28.5,"velocity":0.3937007874015748},{"duration":0.10000000000000142,"midi":38,"time":28.5,"velocity":0.3937007874015748},{"duration":0.10000000000000142,"midi":38,"time":28.5,"velocity":0.3937007874015748},{"duration":0.10000000000000142,"midi":49,"time":28.8,"velocity":0.3937007874015748},{"duration":0.10000000000000142,"midi":38,"time":29.1,"velocity":0.3937007874015748},{"duration":0.10000000000000142,"midi":49,"time":29.1,"velocity":0.3937007874015748},{"duration":0.10000000000000142,"midi":38,"time":29.1,"velocity":0.3937007874015748},{"duration":0.10000000000000142,"midi":38,"time":29.1,"velocity":0.3937007874015748},{"duration":0.10000000000000142,"midi":38,"time":29.1,"velocity":0.3937007874015748},{"duration":0.10000000000000142,"midi":38,"time":29.1,"velocity":0.3937007874015748},{"duration":0.09999999999999787,"midi":38,"time":29.400000000000002,"velocity":0.3937007874015748},{"duration":0.09999999999999787,"midi":38,"time":29.400000000000002,"velocity":0.3937007874015748},{"duration":0.09999999999999787,"midi":38,"time":29.400000000000002,"velocity":0.3937007874015748},{"duration":0.09999999999999787,"midi":38,"time":29.400000000000002,"velocity":0.3937007874015748},{"duration":0.09999999999999787,"midi":49,"time":29.400000000000002,"velocity":0.3937007874015748},{"duration":0.09999999999999787,"midi":38,"time":29.400000000000002,"velocity":0.3937007874015748},{"duration":0.10000000000000142,"midi":38,"time":29.5,"velocity":0.3937007874015748},{"duration":0.10000000000000142,"midi":38,"time":29.5,"velocity":0.3937007874015748},{"duration":0.10000000000000142,"midi":38,"time":29.5,"velocity":0.3937007874015748},{"duration":0.10000000000000142,"midi":38,"time":29.5,"velocity":0.3937007874015748},{"duration":0.10000000000000142,"midi":38,"time":29.5,"velocity":0.3937007874015748},{"duration":0.10000000000000142,"midi":49,"time":29.5,"velocity":0.3937007874015748},{"duration":0.10000000000000142,"midi":49,"time":29.6,"velocity":0.3937007874015748},{"duration":0.10000000000000142,"midi":38,"time":29.6,"velocity":0.3937007874015748},{"duration":0.10000000000000142,"midi":38,"time":29.6,"velocity":0.3937007874015748},{"duration":0.10000000000000142,"midi":38,"time":29.6,"velocity":0.3937007874015748},{"duration":0.10000000000000142,"midi":38,"time":29.6,"velocity":0.3937007874015748},{"duration":0.10000000000000142,"midi":38,"time":29.6,"velocity":0.3937007874015748},{"duration":0.09999999999999787,"midi":38,"time":29.700000000000003,"velocity":0.3937007874015748},{"duration":0.09999999999999787,"midi":38,"time":29.700000000000003,"velocity":0.3937007874015748},{"duration":0.09999999999999787,"midi":38,"time":29.700000000000003,"velocity":0.3937007874015748},{"duration":0.09999999999999787,"midi":38,"time":29.700000000000003,"velocity":0.3937007874015748},{"duration":0.09999999999999787,"midi":38,"time":29.700000000000003,"velocity":0.3937007874015748},{"duration":0.09999999999999787,"midi":49,"time":29.700000000000003,"velocity":0.3937007874015748},{"duration":0.10000000000000142,"midi":38,"time":29.8,"velocity":0.3937007874015748},{"duration":0.10000000000000142,"midi":38,"time":29.8,"velocity":0.3937007874015748},{"duration":0.10000000000000142,"midi":49,"time":29.8,"velocity":0.3937007874015748},{"duration":0.10000000000000142,"midi":38,"time":29.8,"velocity":0.3937007874015748},{"duration":0.10000000000000142,"midi":38,"time":29.8,"velocity":0.3937007874015748},{"duration":0.10000000000000142,"midi":38,"time":29.8,"velocity":0.3937007874015748},{"duration":0.09999999999999787,"midi":38,"time":29.900000000000002,"velocity":0.3937007874015748},{"duration":0.09999999999999787,"midi":38,"time":29.900000000000002,"velocity":0.3937007874015748},{"duration":0.09999999999999787,"midi":38,"time":29.900000000000002,"velocity":0.3937007874015748},{"duration":0.09999999999999787,"midi":38,"time":29.900000000000002,"velocity":0.3937007874015748},{"duration":0.09999999999999787,"midi":38,"time":29.900000000000002,"velocity":0.3937007874015748},{"duration":0.09999999999999787,"midi":49,"time":29.900000000000002,"velocity":0.3937007874015748},{"duration":0.10000000000000142,"midi":35,"time":30,"velocity":0.3937007874015748},{"duration":0.10000000000000142,"midi":35,"time":30,"velocity":0.3937007874015748},{"duration":0.10000000000000142,"midi":35,"time":30,"velocity":0.3937007874015748},{"duration":0.10000000000000142,"midi":38,"time":30,"velocity":0.3937007874015748},{"duration":0.10000000000000142,"midi":49,"time":30,"velocity":0.3937007874015748},{"duration":0.10000000000000142,"midi":38,"time":30,"velocity":0.3937007874015748},{"duration":0.10000000000000142,"midi":35,"time":30,"velocity":0.3937007874015748},{"duration":0.10000000000000142,"midi":38,"time":30,"velocity":0.3937007874015748},{"duration":0.10000000000000142,"midi":35,"time":30,"velocity":0.3937007874015748},{"duration":0.10000000000000142,"midi":38,"time":30,"velocity":0.3937007874015748},{"duration":0.10000000000000142,"midi":38,"time":30,"velocity":0.3937007874015748},{"duration":0.10000000000000142,"midi":49,"time":30.3,"velocity":0.3937007874015748},{"duration":0.10000000000000142,"midi":38,"time":30.6,"velocity":0.3937007874015748},{"duration":0.10000000000000142,"midi":35,"time":30.6,"velocity":0.3937007874015748},{"duration":0.10000000000000142,"midi":38,"time":30.6,"velocity":0.3937007874015748},{"duration":0.10000000000000142,"midi":49,"time":30.6,"velocity":0.3937007874015748},{"duration":0.10000000000000142,"midi":35,"time":30.6,"velocity":0.3937007874015748},{"duration":0.10000000000000142,"midi":35,"time":30.6,"velocity":0.3937007874015748},{"duration":0.10000000000000142,"midi":38,"time":30.6,"velocity":0.3937007874015748},{"duration":0.10000000000000142,"midi":38,"time":30.6,"velocity":0.3937007874015748},{"duration":0.10000000000000142,"midi":35,"time":30.6,"velocity":0.3937007874015748},{"duration":0.09999999999999787,"midi":49,"time":30.900000000000002,"velocity":0.3937007874015748},{"duration":0.10000000000000142,"midi":35,"time":31.1,"velocity":0.3937007874015748},{"duration":0.10000000000000142,"midi":35,"time":31.1,"velocity":0.3937007874015748},{"duration":0.10000000000000142,"midi":38,"time":31.1,"velocity":0.3937007874015748},{"duration":0.10000000000000142,"midi":38,"time":31.1,"velocity":0.3937007874015748},{"duration":0.10000000000000142,"midi":35,"time":31.1,"velocity":0.3937007874015748},{"duration":0.10000000000000142,"midi":38,"time":31.1,"velocity":0.3937007874015748},{"duration":0.10000000000000142,"midi":38,"time":31.1,"velocity":0.3937007874015748},{"duration":0.10000000000000142,"midi":35,"time":31.1,"velocity":0.3937007874015748},{"duration":0.10000000000000142,"midi":49,"time":31.1,"velocity":0.3937007874015748},{"duration":0.10000000000000142,"midi":38,"time":31.1,"velocity":0.3937007874015748},{"duration":0.10000000000000142,"midi":35,"time":31.1,"velocity":0.3937007874015748},{"duration":0.09999999999999787,"midi":38,"time":31.400000000000002,"velocity":0.3937007874015748},{"duration":0.09999999999999787,"midi":38,"time":31.400000000000002,"velocity":0.3937007874015748},{"duration":0.09999999999999787,"midi":35,"time":31.400000000000002,"velocity":0.3937007874015748},{"duration":0.09999999999999787,"midi":38,"time":31.400000000000002,"velocity":0.3937007874015748},{"duration":0.09999999999999787,"midi":35,"time":31.400000000000002,"velocity":0.3937007874015748},{"duration":0.09999999999999787,"midi":35,"time":31.400000000000002,"velocity":0.3937007874015748},{"duration":0.09999999999999787,"midi":35,"time":31.400000000000002,"velocity":0.3937007874015748},{"duration":0.09999999999999787,"midi":35,"time":31.400000000000002,"velocity":0.3937007874015748},{"duration":0.09999999999999787,"midi":38,"time":31.400000000000002,"velocity":0.3937007874015748},{"duration":0.09999999999999787,"midi":49,"time":31.400000000000002,"velocity":0.3937007874015748},{"duration":0.09999999999999787,"midi":38,"time":31.400000000000002,"velocity":0.3937007874015748},{"duration":0.09999999999999787,"midi":49,"time":31.700000000000003,"velocity":0.3937007874015748},{"duration":0.10000000000000142,"midi":38,"time":31.8,"velocity":0.3937007874015748},{"duration":0.10000000000000142,"midi":38,"time":31.8,"velocity":0.3937007874015748},{"duration":0.10000000000000142,"midi":38,"time":31.8,"velocity":0.3937007874015748},{"duration":0.10000000000000142,"midi":35,"time":31.8,"velocity":0.3937007874015748},{"duration":0.10000000000000142,"midi":38,"time":31.8,"velocity":0.3937007874015748},{"duration":0.10000000000000142,"midi":35,"time":31.8,"velocity":0.3937007874015748},{"duration":0.10000000000000142,"midi":38,"time":31.8,"velocity":0.3937007874015748},{"duration":0.10000000000000142,"midi":35,"time":31.8,"velocity":0.3937007874015748},{"duration":0.10000000000000142,"midi":35,"time":31.8,"velocity":0.3937007874015748},{"duration":0.10000000000000142,"midi":35,"time":31.8,"velocity":0.3937007874015748},{"duration":0.10000000000000142,"midi":49,"time":32,"velocity":0.3937007874015748},{"duration":0.09999999999999432,"midi":49,"time":32.300000000000004,"velocity":0.3937007874015748},{"duration":0.10000000000000142,"midi":38,"time":32.4,"velocity":0.3937007874015748},{"duration":0.10000000000000142,"midi":38,"time":32.4,"velocity":0.3937007874015748},{"duration":0.10000000000000142,"midi":38,"time":32.4,"velocity":0.3937007874015748},{"duration":0.10000000000000142,"midi":35,"time":32.4,"velocity":0.3937007874015748},{"duration":0.10000000000000142,"midi":35,"time":32.4,"velocity":0.3937007874015748},{"duration":0.10000000000000142,"midi":38,"time":32.4,"velocity":0.3937007874015748},{"duration":0.10000000000000142,"midi":35,"time":32.4,"velocity":0.3937007874015748},{"duration":0.10000000000000142,"midi":35,"time":32.4,"velocity":0.3937007874015748},{"duration":0.10000000000000142,"midi":38,"time":32.4,"velocity":0.3937007874015748},{"duration":0.10000000000000142,"midi":35,"time":32.4,"velocity":0.3937007874015748},{"duration":0.10000000000000142,"midi":49,"time":32.6,"velocity":0.3937007874015748},{"duration":0.10000000000000142,"midi":38,"time":32.9,"velocity":0.3937007874015748},{"duration":0.10000000000000142,"midi":38,"time":32.9,"velocity":0.3937007874015748},{"duration":0.10000000000000142,"midi":38,"time":32.9,"velocity":0.3937007874015748},{"duration":0.10000000000000142,"midi":38,"time":32.9,"velocity":0.3937007874015748},{"duration":0.10000000000000142,"midi":35,"time":32.9,"velocity":0.3937007874015748},{"duration":0.10000000000000142,"midi":35,"time":32.9,"velocity":0.3937007874015748},{"duration":0.10000000000000142,"midi":35,"time":32.9,"velocity":0.3937007874015748},{"duration":0.10000000000000142,"midi":49,"time":32.9,"velocity":0.3937007874015748},{"duration":0.10000000000000142,"midi":35,"time":32.9,"velocity":0.3937007874015748},{"duration":0.10000000000000142,"midi":35,"time":32.9,"velocity":0.3937007874015748},{"duration":0.10000000000000142,"midi":38,"time":32.9,"velocity":0.3937007874015748},{"duration":0.10000000000000142,"midi":35,"time":33.5,"velocity":0.3937007874015748},{"duration":0.10000000000000142,"midi":38,"time":33.5,"velocity":0.3937007874015748},{"duration":0.10000000000000142,"midi":35,"time":33.5,"velocity":0.3937007874015748},{"duration":0.10000000000000142,"midi":38,"time":33.5,"velocity":0.3937007874015748},{"duration":0.10000000000000142,"midi":35,"time":33.5,"velocity":0.3937007874015748},{"duration":0.10000000000000142,"midi":38,"time":33.5,"velocity":0.3937007874015748},{"duration":0.10000000000000142,"midi":49,"time":33.5,"velocity":0.3937007874015748},{"duration":0.10000000000000142,"midi":40,"time":33.5,"velocity":0.3937007874015748},{"duration":0.10000000000000142,"midi":49,"time":33.5,"velocity":0.3937007874015748},{"duration":0.10000000000000142,"midi":51,"time":33.5,"velocity":0.3937007874015748},{"duration":0.10000000000000142,"midi":49,"time":33.5,"velocity":0.3937007874015748},{"duration":0.10000000000000142,"midi":38,"time":33.5,"velocity":0.3937007874015748},{"duration":0.10000000000000142,"midi":38,"time":33.5,"velocity":0.3937007874015748},{"duration":0.10000000000000142,"midi":35,"time":33.5,"velocity":0.3937007874015748},{"duration":0.10000000000000142,"midi":48,"time":33.7,"velocity":0.3937007874015748},{"duration":0.10000000000000142,"midi":48,"time":33.7,"velocity":0.3937007874015748},{"duration":0.10000000000000142,"midi":48,"time":33.7,"velocity":0.3937007874015748},{"duration":0.10000000000000142,"midi":48,"time":33.7,"velocity":0.3937007874015748},{"duration":0.10000000000000142,"midi":48,"time":33.7,"velocity":0.3937007874015748},{"duration":0.09999999999999432,"midi":47,"time":33.800000000000004,"velocity":0.3937007874015748},{"duration":0.09999999999999432,"midi":47,"time":33.800000000000004,"velocity":0.3937007874015748},{"duration":0.09999999999999432,"midi":47,"time":33.800000000000004,"velocity":0.3937007874015748},{"duration":0.09999999999999432,"midi":47,"time":33.800000000000004,"velocity":0.3937007874015748},{"duration":0.09999999999999432,"midi":47,"time":33.800000000000004,"velocity":0.3937007874015748},{"duration":0.10000000000000142,"midi":48,"time":34.1,"velocity":0.3937007874015748},{"duration":0.10000000000000142,"midi":48,"time":34.1,"velocity":0.3937007874015748},{"duration":0.10000000000000142,"midi":48,"time":34.1,"velocity":0.3937007874015748},{"duration":0.10000000000000142,"midi":48,"time":34.1,"velocity":0.3937007874015748},{"duration":0.10000000000000142,"midi":48,"time":34.1,"velocity":0.3937007874015748},{"duration":0.09999999999999432,"midi":47,"time":34.300000000000004,"velocity":0.3937007874015748},{"duration":0.09999999999999432,"midi":47,"time":34.300000000000004,"velocity":0.3937007874015748},{"duration":0.09999999999999432,"midi":47,"time":34.300000000000004,"velocity":0.3937007874015748},{"duration":0.09999999999999432,"midi":47,"time":34.300000000000004,"velocity":0.3937007874015748},{"duration":0.09999999999999432,"midi":47,"time":34.300000000000004,"velocity":0.3937007874015748},{"duration":0.09999999999999432,"midi":35,"time":34.800000000000004,"velocity":0.3937007874015748},{"duration":0.09999999999999432,"midi":49,"time":34.800000000000004,"velocity":0.3937007874015748},{"duration":0.09999999999999432,"midi":40,"time":34.800000000000004,"velocity":0.3937007874015748},{"duration":0.09999999999999432,"midi":38,"time":34.800000000000004,"velocity":0.3937007874015748},{"duration":0.09999999999999432,"midi":35,"time":34.800000000000004,"velocity":0.3937007874015748},{"duration":0.09999999999999432,"midi":38,"time":34.800000000000004,"velocity":0.3937007874015748},{"duration":0.09999999999999432,"midi":40,"time":34.800000000000004,"velocity":0.3937007874015748},{"duration":0.09999999999999432,"midi":38,"time":34.800000000000004,"velocity":0.3937007874015748},{"duration":0.09999999999999432,"midi":51,"time":34.800000000000004,"velocity":0.3937007874015748},{"duration":0.09999999999999432,"midi":38,"time":34.800000000000004,"velocity":0.3937007874015748},{"duration":0.09999999999999432,"midi":40,"time":34.800000000000004,"velocity":0.3937007874015748},{"duration":0.09999999999999432,"midi":35,"time":34.800000000000004,"velocity":0.3937007874015748},{"duration":0.09999999999999432,"midi":35,"time":34.800000000000004,"velocity":0.3937007874015748},{"duration":0.09999999999999432,"midi":35,"time":34.800000000000004,"velocity":0.3937007874015748},{"duration":0.09999999999999432,"midi":40,"time":34.800000000000004,"velocity":0.3937007874015748},{"duration":0.09999999999999432,"midi":48,"time":37.300000000000004,"velocity":0.3937007874015748},{"duration":0.09999999999999432,"midi":48,"time":37.300000000000004,"velocity":0.3937007874015748},{"duration":0.09999999999999432,"midi":48,"time":37.300000000000004,"velocity":0.3937007874015748},{"duration":0.09999999999999432,"midi":48,"time":37.300000000000004,"velocity":0.3937007874015748},{"duration":0.09999999999999432,"midi":48,"time":37.300000000000004,"velocity":0.3937007874015748},{"duration":0.10000000000000142,"midi":47,"time":37.4,"velocity":0.3937007874015748},{"duration":0.10000000000000142,"midi":38,"time":37.4,"velocity":0.3937007874015748},{"duration":0.10000000000000142,"midi":47,"time":37.4,"velocity":0.3937007874015748},{"duration":0.10000000000000142,"midi":47,"time":37.4,"velocity":0.3937007874015748},{"duration":0.10000000000000142,"midi":38,"time":37.4,"velocity":0.3937007874015748},{"duration":0.10000000000000142,"midi":38,"time":37.4,"velocity":0.3937007874015748},{"duration":0.10000000000000142,"midi":47,"time":37.4,"velocity":0.3937007874015748},{"duration":0.10000000000000142,"midi":38,"time":37.4,"velocity":0.3937007874015748},{"duration":0.10000000000000142,"midi":47,"time":37.4,"velocity":0.3937007874015748},{"duration":0.10000000000000142,"midi":38,"time":37.4,"velocity":0.3937007874015748},{"duration":0.10000000000000142,"midi":38,"time":37.7,"velocity":0.3937007874015748},{"duration":0.10000000000000142,"midi":47,"time":37.7,"velocity":0.3937007874015748},{"duration":0.10000000000000142,"midi":47,"time":37.7,"velocity":0.3937007874015748},{"duration":0.10000000000000142,"midi":38,"time":37.7,"velocity":0.3937007874015748},{"duration":0.10000000000000142,"midi":47,"time":37.7,"velocity":0.3937007874015748},{"duration":0.10000000000000142,"midi":47,"time":37.7,"velocity":0.3937007874015748},{"duration":0.10000000000000142,"midi":47,"time":37.7,"velocity":0.3937007874015748},{"duration":0.10000000000000142,"midi":38,"time":37.7,"velocity":0.3937007874015748},{"duration":0.10000000000000142,"midi":38,"time":37.7,"velocity":0.3937007874015748},{"duration":0.10000000000000142,"midi":38,"time":37.7,"velocity":0.3937007874015748},{"duration":0.10000000000000142,"midi":38,"time":38,"velocity":0.3937007874015748},{"duration":0.10000000000000142,"midi":47,"time":38,"velocity":0.3937007874015748},{"duration":0.10000000000000142,"midi":38,"time":38,"velocity":0.3937007874015748},{"duration":0.10000000000000142,"midi":47,"time":38,"velocity":0.3937007874015748},{"duration":0.10000000000000142,"midi":47,"time":38,"velocity":0.3937007874015748},{"duration":0.10000000000000142,"midi":38,"time":38,"velocity":0.3937007874015748},{"duration":0.10000000000000142,"midi":38,"time":38,"velocity":0.3937007874015748},{"duration":0.10000000000000142,"midi":47,"time":38,"velocity":0.3937007874015748},{"duration":0.10000000000000142,"midi":38,"time":38,"velocity":0.3937007874015748},{"duration":0.10000000000000142,"midi":47,"time":38,"velocity":0.3937007874015748},{"duration":0.10000000000000142,"midi":49,"time":38.300000000000004,"velocity":0.3937007874015748},{"duration":0.10000000000000142,"midi":49,"time":38.300000000000004,"velocity":0.3937007874015748},{"duration":0.10000000000000142,"midi":47,"time":38.300000000000004,"velocity":0.3937007874015748},{"duration":0.10000000000000142,"midi":47,"time":38.300000000000004,"velocity":0.3937007874015748},{"duration":0.10000000000000142,"midi":47,"time":38.300000000000004,"velocity":0.3937007874015748},{"duration":0.10000000000000142,"midi":47,"time":38.300000000000004,"velocity":0.3937007874015748},{"duration":0.10000000000000142,"midi":38,"time":38.300000000000004,"velocity":0.3937007874015748},{"duration":0.10000000000000142,"midi":38,"time":38.300000000000004,"velocity":0.3937007874015748},{"duration":0.10000000000000142,"midi":49,"time":38.300000000000004,"velocity":0.3937007874015748},{"duration":0.10000000000000142,"midi":38,"time":38.300000000000004,"velocity":0.3937007874015748},{"duration":0.10000000000000142,"midi":47,"time":38.300000000000004,"velocity":0.3937007874015748},{"duration":0.10000000000000142,"midi":38,"time":38.300000000000004,"velocity":0.3937007874015748},{"duration":0.10000000000000142,"midi":38,"time":38.300000000000004,"velocity":0.3937007874015748},{"duration":0.10000000000000142,"midi":37,"time":39.800000000000004,"velocity":0.3937007874015748},{"duration":0.10000000000000142,"midi":37,"time":39.800000000000004,"velocity":0.3937007874015748},{"duration":0.10000000000000142,"midi":37,"time":39.800000000000004,"velocity":0.3937007874015748},{"duration":0.10000000000000142,"midi":37,"time":39.800000000000004,"velocity":0.3937007874015748},{"duration":0.10000000000000142,"midi":37,"time":39.800000000000004,"velocity":0.3937007874015748},{"duration":0.10000000000000142,"midi":37,"time":39.800000000000004,"velocity":0.3937007874015748},{"duration":0.09999999999999432,"midi":37,"time":40.400000000000006,"velocity":0.3937007874015748},{"duration":0.09999999999999432,"midi":37,"time":40.400000000000006,"velocity":0.3937007874015748},{"duration":0.09999999999999432,"midi":37,"time":40.400000000000006,"velocity":0.3937007874015748},{"duration":0.09999999999999432,"midi":37,"time":40.400000000000006,"velocity":0.3937007874015748},{"duration":0.09999999999999432,"midi":37,"time":40.400000000000006,"velocity":0.3937007874015748},{"duration":0.09999999999999432,"midi":37,"time":40.400000000000006,"velocity":0.3937007874015748},{"duration":0.10000000000000142,"midi":37,"time":41,"velocity":0.3937007874015748},{"duration":0.10000000000000142,"midi":37,"time":41,"velocity":0.3937007874015748},{"duration":0.10000000000000142,"midi":37,"time":41,"velocity":0.3937007874015748},{"duration":0.10000000000000142,"midi":37,"time":41,"velocity":0.3937007874015748},{"duration":0.10000000000000142,"midi":37,"time":41,"velocity":0.3937007874015748},{"duration":0.10000000000000142,"midi":37,"time":41,"velocity":0.3937007874015748},{"duration":0.10000000000000142,"midi":37,"time":41.6,"velocity":0.3937007874015748},{"duration":0.10000000000000142,"midi":37,"time":41.6,"velocity":0.3937007874015748},{"duration":0.10000000000000142,"midi":37,"time":41.6,"velocity":0.3937007874015748},{"duration":0.10000000000000142,"midi":37,"time":41.6,"velocity":0.3937007874015748},{"duration":0.10000000000000142,"midi":37,"time":41.6,"velocity":0.3937007874015748},{"duration":0.10000000000000142,"midi":37,"time":41.6,"velocity":0.3937007874015748},{"duration":0.10000000000000142,"midi":37,"time":42.2,"velocity":0.3937007874015748},{"duration":0.10000000000000142,"midi":37,"time":42.2,"velocity":0.3937007874015748},{"duration":0.10000000000000142,"midi":37,"time":42.2,"velocity":0.3937007874015748},{"duration":0.10000000000000142,"midi":37,"time":42.2,"velocity":0.3937007874015748},{"duration":0.10000000000000142,"midi":37,"time":42.2,"velocity":0.3937007874015748},{"duration":0.10000000000000142,"midi":37,"time":42.2,"velocity":0.3937007874015748},{"duration":0.10000000000000142,"midi":37,"time":42.800000000000004,"velocity":0.3937007874015748},{"duration":0.10000000000000142,"midi":37,"time":42.800000000000004,"velocity":0.3937007874015748},{"duration":0.10000000000000142,"midi":37,"time":42.800000000000004,"velocity":0.3937007874015748},{"duration":0.10000000000000142,"midi":37,"time":42.800000000000004,"velocity":0.3937007874015748},{"duration":0.10000000000000142,"midi":37,"time":42.800000000000004,"velocity":0.3937007874015748},{"duration":0.10000000000000142,"midi":37,"time":42.800000000000004,"velocity":0.3937007874015748},{"duration":0.09999999999999432,"midi":37,"time":43.400000000000006,"velocity":0.3937007874015748},{"duration":0.09999999999999432,"midi":37,"time":43.400000000000006,"velocity":0.3937007874015748},{"duration":0.09999999999999432,"midi":37,"time":43.400000000000006,"velocity":0.3937007874015748},{"duration":0.09999999999999432,"midi":37,"time":43.400000000000006,"velocity":0.3937007874015748},{"duration":0.09999999999999432,"midi":37,"time":43.400000000000006,"velocity":0.3937007874015748},{"duration":0.09999999999999432,"midi":37,"time":43.400000000000006,"velocity":0.3937007874015748},{"duration":0.10000000000000142,"midi":37,"time":44,"velocity":0.3937007874015748},{"duration":0.10000000000000142,"midi":37,"time":44,"velocity":0.3937007874015748},{"duration":0.10000000000000142,"midi":37,"time":44,"velocity":0.3937007874015748},{"duration":0.10000000000000142,"midi":37,"time":44,"velocity":0.3937007874015748},{"duration":0.10000000000000142,"midi":37,"time":44,"velocity":0.3937007874015748},{"duration":0.10000000000000142,"midi":37,"time":44,"velocity":0.3937007874015748},{"duration":0.10000000000000142,"midi":37,"time":44.6,"velocity":0.3937007874015748},{"duration":0.10000000000000142,"midi":37,"time":44.6,"velocity":0.3937007874015748},{"duration":0.10000000000000142,"midi":37,"time":44.6,"velocity":0.3937007874015748},{"duration":0.10000000000000142,"midi":37,"time":44.6,"velocity":0.3937007874015748},{"duration":0.10000000000000142,"midi":37,"time":44.6,"velocity":0.3937007874015748},{"duration":0.10000000000000142,"midi":37,"time":44.6,"velocity":0.3937007874015748},{"duration":0.10000000000000142,"midi":37,"time":45.2,"velocity":0.3937007874015748},{"duration":0.10000000000000142,"midi":37,"time":45.2,"velocity":0.3937007874015748},{"duration":0.10000000000000142,"midi":37,"time":45.2,"velocity":0.3937007874015748},{"duration":0.10000000000000142,"midi":37,"time":45.2,"velocity":0.3937007874015748},{"duration":0.10000000000000142,"midi":37,"time":45.2,"velocity":0.3937007874015748},{"duration":0.10000000000000142,"midi":37,"time":45.2,"velocity":0.3937007874015748},{"duration":0.10000000000000142,"midi":37,"time":45.800000000000004,"velocity":0.3937007874015748},{"duration":0.10000000000000142,"midi":37,"time":45.800000000000004,"velocity":0.3937007874015748},{"duration":0.10000000000000142,"midi":37,"time":45.800000000000004,"velocity":0.3937007874015748},{"duration":0.10000000000000142,"midi":37,"time":45.800000000000004,"velocity":0.3937007874015748},{"duration":0.10000000000000142,"midi":37,"time":45.800000000000004,"velocity":0.3937007874015748},{"duration":0.10000000000000142,"midi":37,"time":45.800000000000004,"velocity":0.3937007874015748},{"duration":0.09999999999999432,"midi":37,"time":46.400000000000006,"velocity":0.3937007874015748},{"duration":0.09999999999999432,"midi":37,"time":46.400000000000006,"velocity":0.3937007874015748},{"duration":0.09999999999999432,"midi":37,"time":46.400000000000006,"velocity":0.3937007874015748},{"duration":0.09999999999999432,"midi":37,"time":46.400000000000006,"velocity":0.3937007874015748},{"duration":0.09999999999999432,"midi":37,"time":46.400000000000006,"velocity":0.3937007874015748},{"duration":0.09999999999999432,"midi":37,"time":46.400000000000006,"velocity":0.3937007874015748},{"duration":0.10000000000000142,"midi":37,"time":47,"velocity":0.3937007874015748},{"duration":0.10000000000000142,"midi":37,"time":47,"velocity":0.3937007874015748},{"duration":0.10000000000000142,"midi":37,"time":47,"velocity":0.3937007874015748},{"duration":0.10000000000000142,"midi":37,"time":47,"velocity":0.3937007874015748},{"duration":0.10000000000000142,"midi":37,"time":47,"velocity":0.3937007874015748},{"duration":0.10000000000000142,"midi":37,"time":47,"velocity":0.3937007874015748},{"duration":0.10000000000000142,"midi":37,"time":47.6,"velocity":0.3937007874015748},{"duration":0.10000000000000142,"midi":37,"time":47.6,"velocity":0.3937007874015748},{"duration":0.10000000000000142,"midi":37,"time":47.6,"velocity":0.3937007874015748},{"duration":0.10000000000000142,"midi":37,"time":47.6,"velocity":0.3937007874015748},{"duration":0.10000000000000142,"midi":37,"time":47.6,"velocity":0.3937007874015748},{"duration":0.10000000000000142,"midi":37,"time":47.6,"velocity":0.3937007874015748},{"duration":0.10000000000000142,"midi":37,"time":48.2,"velocity":0.3937007874015748},{"duration":0.10000000000000142,"midi":37,"time":48.2,"velocity":0.3937007874015748},{"duration":0.10000000000000142,"midi":37,"time":48.2,"velocity":0.3937007874015748},{"duration":0.10000000000000142,"midi":37,"time":48.2,"velocity":0.3937007874015748},{"duration":0.10000000000000142,"midi":37,"time":48.2,"velocity":0.3937007874015748},{"duration":0.10000000000000142,"midi":37,"time":48.2,"velocity":0.3937007874015748},{"duration":0.10000000000000142,"midi":37,"time":48.800000000000004,"velocity":0.3937007874015748},{"duration":0.10000000000000142,"midi":37,"time":48.800000000000004,"velocity":0.3937007874015748},{"duration":0.10000000000000142,"midi":37,"time":48.800000000000004,"velocity":0.3937007874015748},{"duration":0.10000000000000142,"midi":37,"time":48.800000000000004,"velocity":0.3937007874015748},{"duration":0.10000000000000142,"midi":37,"time":48.800000000000004,"velocity":0.3937007874015748},{"duration":0.10000000000000142,"midi":37,"time":48.800000000000004,"velocity":0.3937007874015748},{"duration":0.09999999999999432,"midi":37,"time":49.400000000000006,"velocity":0.3937007874015748},{"duration":0.09999999999999432,"midi":37,"time":49.400000000000006,"velocity":0.3937007874015748},{"duration":0.09999999999999432,"midi":37,"time":49.400000000000006,"velocity":0.3937007874015748},{"duration":0.09999999999999432,"midi":37,"time":49.400000000000006,"velocity":0.3937007874015748},{"duration":0.09999999999999432,"midi":37,"time":49.400000000000006,"velocity":0.3937007874015748},{"duration":0.09999999999999432,"midi":37,"time":49.400000000000006,"velocity":0.3937007874015748},{"duration":0.10000000000000142,"midi":37,"time":50,"velocity":0.3937007874015748},{"duration":0.10000000000000142,"midi":37,"time":50,"velocity":0.3937007874015748},{"duration":0.10000000000000142,"midi":37,"time":50,"velocity":0.3937007874015748},{"duration":0.10000000000000142,"midi":37,"time":50,"velocity":0.3937007874015748},{"duration":0.10000000000000142,"midi":37,"time":50,"velocity":0.3937007874015748},{"duration":0.10000000000000142,"midi":37,"time":50,"velocity":0.3937007874015748},{"duration":0.10000000000000142,"midi":37,"time":50.6,"velocity":0.3937007874015748},{"duration":0.10000000000000142,"midi":37,"time":50.6,"velocity":0.3937007874015748},{"duration":0.10000000000000142,"midi":37,"time":50.6,"velocity":0.3937007874015748},{"duration":0.10000000000000142,"midi":37,"time":50.6,"velocity":0.3937007874015748},{"duration":0.10000000000000142,"midi":37,"time":50.6,"velocity":0.3937007874015748},{"duration":0.10000000000000142,"midi":37,"time":50.6,"velocity":0.3937007874015748},{"duration":0.10000000000000142,"midi":37,"time":51.2,"velocity":0.3937007874015748},{"duration":0.10000000000000142,"midi":37,"time":51.2,"velocity":0.3937007874015748},{"duration":0.10000000000000142,"midi":37,"time":51.2,"velocity":0.3937007874015748},{"duration":0.10000000000000142,"midi":37,"time":51.2,"velocity":0.3937007874015748},{"duration":0.10000000000000142,"midi":37,"time":51.2,"velocity":0.3937007874015748},{"duration":0.10000000000000142,"midi":37,"time":51.2,"velocity":0.3937007874015748},{"duration":0.10000000000000142,"midi":37,"time":51.800000000000004,"velocity":0.3937007874015748},{"duration":0.10000000000000142,"midi":37,"time":51.800000000000004,"velocity":0.3937007874015748},{"duration":0.10000000000000142,"midi":37,"time":51.800000000000004,"velocity":0.3937007874015748},{"duration":0.10000000000000142,"midi":37,"time":51.800000000000004,"velocity":0.3937007874015748},{"duration":0.10000000000000142,"midi":37,"time":51.800000000000004,"velocity":0.3937007874015748},{"duration":0.10000000000000142,"midi":37,"time":51.800000000000004,"velocity":0.3937007874015748},{"duration":0.09999999999999432,"midi":37,"time":52.400000000000006,"velocity":0.3937007874015748},{"duration":0.09999999999999432,"midi":37,"time":52.400000000000006,"velocity":0.3937007874015748},{"duration":0.09999999999999432,"midi":37,"time":52.400000000000006,"velocity":0.3937007874015748},{"duration":0.09999999999999432,"midi":37,"time":52.400000000000006,"velocity":0.3937007874015748},{"duration":0.09999999999999432,"midi":37,"time":52.400000000000006,"velocity":0.3937007874015748},{"duration":0.09999999999999432,"midi":37,"time":52.400000000000006,"velocity":0.3937007874015748},{"duration":0.10000000000000142,"midi":37,"time":53,"velocity":0.3937007874015748},{"duration":0.10000000000000142,"midi":37,"time":53,"velocity":0.3937007874015748},{"duration":0.10000000000000142,"midi":37,"time":53,"velocity":0.3937007874015748},{"duration":0.10000000000000142,"midi":37,"time":53,"velocity":0.3937007874015748},{"duration":0.10000000000000142,"midi":37,"time":53,"velocity":0.3937007874015748},{"duration":0.10000000000000142,"midi":37,"time":53,"velocity":0.3937007874015748},{"duration":0.10000000000000142,"midi":37,"time":53.6,"velocity":0.3937007874015748},{"duration":0.10000000000000142,"midi":37,"time":53.6,"velocity":0.3937007874015748},{"duration":0.10000000000000142,"midi":37,"time":53.6,"velocity":0.3937007874015748},{"duration":0.10000000000000142,"midi":37,"time":53.6,"velocity":0.3937007874015748},{"duration":0.10000000000000142,"midi":37,"time":53.6,"velocity":0.3937007874015748},{"duration":0.10000000000000142,"midi":37,"time":53.6,"velocity":0.3937007874015748},{"duration":0.10000000000000142,"midi":37,"time":54.2,"velocity":0.3937007874015748},{"duration":0.10000000000000142,"midi":37,"time":54.2,"velocity":0.3937007874015748},{"duration":0.10000000000000142,"midi":37,"time":54.2,"velocity":0.3937007874015748},{"duration":0.10000000000000142,"midi":37,"time":54.2,"velocity":0.3937007874015748},{"duration":0.10000000000000142,"midi":37,"time":54.2,"velocity":0.3937007874015748},{"duration":0.10000000000000142,"midi":37,"time":54.2,"velocity":0.3937007874015748},{"duration":0.10000000000000142,"midi":37,"time":54.800000000000004,"velocity":0.3937007874015748},{"duration":0.10000000000000142,"midi":37,"time":54.800000000000004,"velocity":0.3937007874015748},{"duration":0.10000000000000142,"midi":37,"time":54.800000000000004,"velocity":0.3937007874015748},{"duration":0.10000000000000142,"midi":37,"time":54.800000000000004,"velocity":0.3937007874015748},{"duration":0.10000000000000142,"midi":37,"time":54.800000000000004,"velocity":0.3937007874015748},{"duration":0.10000000000000142,"midi":37,"time":54.800000000000004,"velocity":0.3937007874015748},{"duration":0.09999999999999432,"midi":37,"time":55.400000000000006,"velocity":0.3937007874015748},{"duration":0.09999999999999432,"midi":37,"time":55.400000000000006,"velocity":0.3937007874015748},{"duration":0.09999999999999432,"midi":37,"time":55.400000000000006,"velocity":0.3937007874015748},{"duration":0.09999999999999432,"midi":37,"time":55.400000000000006,"velocity":0.3937007874015748},{"duration":0.09999999999999432,"midi":37,"time":55.400000000000006,"velocity":0.3937007874015748},{"duration":0.09999999999999432,"midi":37,"time":55.400000000000006,"velocity":0.3937007874015748},{"duration":0.10000000000000142,"midi":37,"time":56,"velocity":0.3937007874015748},{"duration":0.10000000000000142,"midi":37,"time":56,"velocity":0.3937007874015748},{"duration":0.10000000000000142,"midi":37,"time":56,"velocity":0.3937007874015748},{"duration":0.10000000000000142,"midi":37,"time":56,"velocity":0.3937007874015748},{"duration":0.10000000000000142,"midi":37,"time":56,"velocity":0.3937007874015748},{"duration":0.10000000000000142,"midi":37,"time":56,"velocity":0.3937007874015748},{"duration":0.10000000000000142,"midi":49,"time":56.300000000000004,"velocity":0.3937007874015748},{"duration":0.10000000000000142,"midi":49,"time":56.300000000000004,"velocity":0.3937007874015748},{"duration":0.10000000000000142,"midi":37,"time":56.6,"velocity":0.3937007874015748},{"duration":0.10000000000000142,"midi":37,"time":56.6,"velocity":0.3937007874015748},{"duration":0.10000000000000142,"midi":37,"time":56.6,"velocity":0.3937007874015748},{"duration":0.10000000000000142,"midi":37,"time":56.6,"velocity":0.3937007874015748},{"duration":0.10000000000000142,"midi":37,"time":56.6,"velocity":0.3937007874015748},{"duration":0.10000000000000142,"midi":37,"time":56.6,"velocity":0.3937007874015748},{"duration":0.10000000000000142,"midi":38,"time":56.800000000000004,"velocity":0.3937007874015748},{"duration":0.10000000000000142,"midi":49,"time":56.800000000000004,"velocity":0.3937007874015748},{"duration":0.10000000000000142,"midi":38,"time":56.800000000000004,"velocity":0.3937007874015748},{"duration":0.10000000000000142,"midi":38,"time":56.800000000000004,"velocity":0.3937007874015748},{"duration":0.10000000000000142,"midi":49,"time":56.800000000000004,"velocity":0.3937007874015748},{"duration":0.10000000000000142,"midi":38,"time":56.800000000000004,"velocity":0.3937007874015748},{"duration":0.10000000000000142,"midi":38,"time":56.800000000000004,"velocity":0.3937007874015748},{"duration":0.09999999999999432,"midi":38,"time":56.900000000000006,"velocity":0.3937007874015748},{"duration":0.09999999999999432,"midi":38,"time":56.900000000000006,"velocity":0.3937007874015748},{"duration":0.09999999999999432,"midi":38,"time":56.900000000000006,"velocity":0.3937007874015748},{"duration":0.09999999999999432,"midi":38,"time":56.900000000000006,"velocity":0.3937007874015748},{"duration":0.09999999999999432,"midi":38,"time":56.900000000000006,"velocity":0.3937007874015748},{"duration":0.10000000000000142,"midi":38,"time":57.1,"velocity":0.3937007874015748},{"duration":0.10000000000000142,"midi":38,"time":57.1,"velocity":0.3937007874015748},{"duration":0.10000000000000142,"midi":38,"time":57.1,"velocity":0.3937007874015748},{"duration":0.10000000000000142,"midi":38,"time":57.1,"velocity":0.3937007874015748},{"duration":0.10000000000000142,"midi":38,"time":57.1,"velocity":0.3937007874015748},{"duration":0.10000000000000142,"midi":37,"time":57.2,"velocity":0.3937007874015748},{"duration":0.10000000000000142,"midi":37,"time":57.2,"velocity":0.3937007874015748},{"duration":0.10000000000000142,"midi":37,"time":57.2,"velocity":0.3937007874015748},{"duration":0.10000000000000142,"midi":37,"time":57.2,"velocity":0.3937007874015748},{"duration":0.10000000000000142,"midi":37,"time":57.2,"velocity":0.3937007874015748},{"duration":0.10000000000000142,"midi":37,"time":57.2,"velocity":0.3937007874015748},{"duration":0.09999999999999432,"midi":49,"time":57.400000000000006,"velocity":0.3937007874015748},{"duration":0.09999999999999432,"midi":49,"time":57.400000000000006,"velocity":0.3937007874015748},{"duration":0.09999999999999432,"midi":38,"time":57.400000000000006,"velocity":0.3937007874015748},{"duration":0.09999999999999432,"midi":38,"time":57.400000000000006,"velocity":0.3937007874015748},{"duration":0.09999999999999432,"midi":38,"time":57.400000000000006,"velocity":0.3937007874015748},{"duration":0.09999999999999432,"midi":38,"time":57.400000000000006,"velocity":0.3937007874015748},{"duration":0.09999999999999432,"midi":38,"time":57.400000000000006,"velocity":0.3937007874015748},{"duration":0.10000000000000142,"midi":49,"time":57.5,"velocity":0.3937007874015748},{"duration":0.10000000000000142,"midi":38,"time":57.5,"velocity":0.3937007874015748},{"duration":0.10000000000000142,"midi":38,"time":57.5,"velocity":0.3937007874015748},{"duration":0.10000000000000142,"midi":49,"time":57.5,"velocity":0.3937007874015748},{"duration":0.10000000000000142,"midi":38,"time":57.5,"velocity":0.3937007874015748},{"duration":0.10000000000000142,"midi":38,"time":57.5,"velocity":0.3937007874015748},{"duration":0.10000000000000142,"midi":38,"time":57.5,"velocity":0.3937007874015748},{"duration":0.10000000000000142,"midi":38,"time":57.7,"velocity":0.3937007874015748},{"duration":0.10000000000000142,"midi":38,"time":57.7,"velocity":0.3937007874015748},{"duration":0.10000000000000142,"midi":38,"time":57.7,"velocity":0.3937007874015748},{"duration":0.10000000000000142,"midi":38,"time":57.7,"velocity":0.3937007874015748},{"duration":0.10000000000000142,"midi":38,"time":57.7,"velocity":0.3937007874015748},{"duration":0.10000000000000142,"midi":37,"time":57.800000000000004,"velocity":0.3937007874015748},{"duration":0.10000000000000142,"midi":37,"time":57.800000000000004,"velocity":0.3937007874015748},{"duration":0.10000000000000142,"midi":37,"time":57.800000000000004,"velocity":0.3937007874015748},{"duration":0.10000000000000142,"midi":37,"time":57.800000000000004,"velocity":0.3937007874015748},{"duration":0.10000000000000142,"midi":37,"time":57.800000000000004,"velocity":0.3937007874015748},{"duration":0.10000000000000142,"midi":37,"time":57.800000000000004,"velocity":0.3937007874015748},{"duration":0.10000000000000142,"midi":38,"time":58.1,"velocity":0.3937007874015748},{"duration":0.10000000000000142,"midi":38,"time":58.1,"velocity":0.3937007874015748},{"duration":0.10000000000000142,"midi":38,"time":58.1,"velocity":0.3937007874015748},{"duration":0.10000000000000142,"midi":38,"time":58.1,"velocity":0.3937007874015748},{"duration":0.10000000000000142,"midi":38,"time":58.1,"velocity":0.3937007874015748},{"duration":0.09999999999999432,"midi":38,"time":58.400000000000006,"velocity":0.3937007874015748},{"duration":0.09999999999999432,"midi":37,"time":58.400000000000006,"velocity":0.3937007874015748},{"duration":0.09999999999999432,"midi":37,"time":58.400000000000006,"velocity":0.3937007874015748},{"duration":0.09999999999999432,"midi":38,"time":58.400000000000006,"velocity":0.3937007874015748},{"duration":0.09999999999999432,"midi":38,"time":58.400000000000006,"velocity":0.3937007874015748},{"duration":0.09999999999999432,"midi":37,"time":58.400000000000006,"velocity":0.3937007874015748},{"duration":0.09999999999999432,"midi":38,"time":58.400000000000006,"velocity":0.3937007874015748},{"duration":0.09999999999999432,"midi":37,"time":58.400000000000006,"velocity":0.3937007874015748},{"duration":0.09999999999999432,"midi":37,"time":58.400000000000006,"velocity":0.3937007874015748},{"duration":0.09999999999999432,"midi":37,"time":58.400000000000006,"velocity":0.3937007874015748},{"duration":0.09999999999999432,"midi":38,"time":58.400000000000006,"velocity":0.3937007874015748},{"duration":0.10000000000000142,"midi":38,"time":58.7,"velocity":0.3937007874015748},{"duration":0.09999999999999432,"midi":38,"time":58.900000000000006,"velocity":0.3937007874015748},{"duration":0.10000000000000142,"midi":38,"time":59,"velocity":0.3937007874015748},{"duration":0.10000000000000142,"midi":38,"time":59.2,"velocity":0.3937007874015748},{"duration":0.10000000000000142,"midi":38,"time":59.300000000000004,"velocity":0.3937007874015748},{"duration":0.10000000000000142,"midi":38,"time":59.5,"velocity":0.3937007874015748},{"duration":0.10000000000000142,"midi":38,"time":59.800000000000004,"velocity":0.3937007874015748},{"duration":0.09999999999999432,"midi":49,"time":59.900000000000006,"velocity":0.3937007874015748},{"duration":0.09999999999999432,"midi":38,"time":59.900000000000006,"velocity":0.3937007874015748},{"duration":0.09999999999999432,"midi":38,"time":59.900000000000006,"velocity":0.3937007874015748},{"duration":0.09999999999999432,"midi":38,"time":59.900000000000006,"velocity":0.3937007874015748},{"duration":0.09999999999999432,"midi":49,"time":59.900000000000006,"velocity":0.3937007874015748},{"duration":0.09999999999999432,"midi":38,"time":59.900000000000006,"velocity":0.3937007874015748},{"duration":0.09999999999999432,"midi":38,"time":59.900000000000006,"velocity":0.3937007874015748},{"duration":0.10000000000000142,"midi":36,"time":60.7,"velocity":0.3937007874015748},{"duration":0.10000000000000142,"midi":36,"time":60.7,"velocity":0.3937007874015748},{"duration":0.10000000000000142,"midi":36,"time":60.7,"velocity":0.3937007874015748},{"duration":0.10000000000000142,"midi":36,"time":60.7,"velocity":0.3937007874015748},{"duration":0.10000000000000142,"midi":36,"time":60.7,"velocity":0.3937007874015748},{"duration":0.10000000000000142,"midi":38,"time":60.800000000000004,"velocity":0.3937007874015748},{"duration":0.10000000000000142,"midi":38,"time":60.800000000000004,"velocity":0.3937007874015748},{"duration":0.10000000000000142,"midi":38,"time":60.800000000000004,"velocity":0.3937007874015748},{"duration":0.10000000000000142,"midi":38,"time":60.800000000000004,"velocity":0.3937007874015748},{"duration":0.10000000000000142,"midi":38,"time":60.800000000000004,"velocity":0.3937007874015748},{"duration":0.10000000000000142,"midi":36,"time":61,"velocity":0.3937007874015748},{"duration":0.10000000000000142,"midi":36,"time":61,"velocity":0.3937007874015748},{"duration":0.10000000000000142,"midi":36,"time":61,"velocity":0.3937007874015748},{"duration":0.10000000000000142,"midi":36,"time":61,"velocity":0.3937007874015748},{"duration":0.10000000000000142,"midi":36,"time":61,"velocity":0.3937007874015748},{"duration":0.10000000000000142,"midi":49,"time":61.1,"velocity":0.3937007874015748},{"duration":0.10000000000000142,"midi":36,"time":61.300000000000004,"velocity":0.3937007874015748},{"duration":0.10000000000000142,"midi":36,"time":61.300000000000004,"velocity":0.3937007874015748},{"duration":0.10000000000000142,"midi":36,"time":61.300000000000004,"velocity":0.3937007874015748},{"duration":0.10000000000000142,"midi":36,"time":61.300000000000004,"velocity":0.3937007874015748},{"duration":0.10000000000000142,"midi":36,"time":61.300000000000004,"velocity":0.3937007874015748},{"duration":0.09999999999999432,"midi":38,"time":61.400000000000006,"velocity":0.3937007874015748},{"duration":0.09999999999999432,"midi":38,"time":61.400000000000006,"velocity":0.3937007874015748},{"duration":0.09999999999999432,"midi":38,"time":61.400000000000006,"velocity":0.3937007874015748},{"duration":0.09999999999999432,"midi":38,"time":61.400000000000006,"velocity":0.3937007874015748},{"duration":0.09999999999999432,"midi":49,"time":61.400000000000006,"velocity":0.3937007874015748},{"duration":0.09999999999999432,"midi":38,"time":61.400000000000006,"velocity":0.3937007874015748},{"duration":0.10000000000000142,"midi":36,"time":61.6,"velocity":0.3937007874015748},{"duration":0.10000000000000142,"midi":36,"time":61.6,"velocity":0.3937007874015748},{"duration":0.10000000000000142,"midi":36,"time":61.6,"velocity":0.3937007874015748},{"duration":0.10000000000000142,"midi":36,"time":61.6,"velocity":0.3937007874015748},{"duration":0.10000000000000142,"midi":36,"time":61.6,"velocity":0.3937007874015748},{"duration":0.10000000000000142,"midi":49,"time":61.7,"velocity":0.3937007874015748},{"duration":0.09999999999999432,"midi":36,"time":61.900000000000006,"velocity":0.3937007874015748},{"duration":0.09999999999999432,"midi":36,"time":61.900000000000006,"velocity":0.3937007874015748},{"duration":0.09999999999999432,"midi":36,"time":61.900000000000006,"velocity":0.3937007874015748},{"duration":0.09999999999999432,"midi":36,"time":61.900000000000006,"velocity":0.3937007874015748},{"duration":0.09999999999999432,"midi":36,"time":61.900000000000006,"velocity":0.3937007874015748},{"duration":0.10000000000000142,"midi":49,"time":62,"velocity":0.3937007874015748},{"duration":0.10000000000000142,"midi":38,"time":62,"velocity":0.3937007874015748},{"duration":0.10000000000000142,"midi":38,"time":62,"velocity":0.3937007874015748},{"duration":0.10000000000000142,"midi":38,"time":62,"velocity":0.3937007874015748},{"duration":0.10000000000000142,"midi":38,"time":62,"velocity":0.3937007874015748},{"duration":0.10000000000000142,"midi":38,"time":62,"velocity":0.3937007874015748},{"duration":0.10000000000000142,"midi":36,"time":62.2,"velocity":0.3937007874015748},{"duration":0.10000000000000142,"midi":36,"time":62.2,"velocity":0.3937007874015748},{"duration":0.10000000000000142,"midi":36,"time":62.2,"velocity":0.3937007874015748},{"duration":0.10000000000000142,"midi":36,"time":62.2,"velocity":0.3937007874015748},{"duration":0.10000000000000142,"midi":36,"time":62.2,"velocity":0.3937007874015748},{"duration":0.10000000000000142,"midi":49,"time":62.300000000000004,"velocity":0.3937007874015748},{"duration":0.10000000000000142,"midi":36,"time":62.5,"velocity":0.3937007874015748},{"duration":0.10000000000000142,"midi":36,"time":62.5,"velocity":0.3937007874015748},{"duration":0.10000000000000142,"midi":36,"time":62.5,"velocity":0.3937007874015748},{"duration":0.10000000000000142,"midi":36,"time":62.5,"velocity":0.3937007874015748},{"duration":0.10000000000000142,"midi":36,"time":62.5,"velocity":0.3937007874015748},{"duration":0.10000000000000142,"midi":38,"time":62.6,"velocity":0.3937007874015748},{"duration":0.10000000000000142,"midi":38,"time":62.6,"velocity":0.3937007874015748},{"duration":0.10000000000000142,"midi":49,"time":62.6,"velocity":0.3937007874015748},{"duration":0.10000000000000142,"midi":38,"time":62.6,"velocity":0.3937007874015748},{"duration":0.10000000000000142,"midi":38,"time":62.6,"velocity":0.3937007874015748},{"duration":0.10000000000000142,"midi":38,"time":62.6,"velocity":0.3937007874015748},{"duration":0.10000000000000142,"midi":36,"time":62.800000000000004,"velocity":0.3937007874015748},{"duration":0.10000000000000142,"midi":36,"time":62.800000000000004,"velocity":0.3937007874015748},{"duration":0.10000000000000142,"midi":36,"time":62.800000000000004,"velocity":0.3937007874015748},{"duration":0.10000000000000142,"midi":36,"time":62.800000000000004,"velocity":0.3937007874015748},{"duration":0.10000000000000142,"midi":36,"time":62.800000000000004,"velocity":0.3937007874015748},{"duration":0.09999999999999432,"midi":49,"time":62.900000000000006,"velocity":0.3937007874015748},{"duration":0.10000000000000142,"midi":36,"time":63.1,"velocity":0.3937007874015748},{"duration":0.10000000000000142,"midi":36,"time":63.1,"velocity":0.3937007874015748},{"duration":0.10000000000000142,"midi":36,"time":63.1,"velocity":0.3937007874015748},{"duration":0.10000000000000142,"midi":36,"time":63.1,"velocity":0.3937007874015748},{"duration":0.10000000000000142,"midi":36,"time":63.1,"velocity":0.3937007874015748},{"duration":0.10000000000000142,"midi":38,"time":63.2,"velocity":0.3937007874015748},{"duration":0.10000000000000142,"midi":49,"time":63.2,"velocity":0.3937007874015748},{"duration":0.10000000000000142,"midi":38,"time":63.2,"velocity":0.3937007874015748},{"duration":0.10000000000000142,"midi":38,"time":63.2,"velocity":0.3937007874015748},{"duration":0.10000000000000142,"midi":38,"time":63.2,"velocity":0.3937007874015748},{"duration":0.10000000000000142,"midi":38,"time":63.2,"velocity":0.3937007874015748},{"duration":0.09999999999999432,"midi":36,"time":63.400000000000006,"velocity":0.3937007874015748},{"duration":0.09999999999999432,"midi":36,"time":63.400000000000006,"velocity":0.3937007874015748},{"duration":0.09999999999999432,"midi":36,"time":63.400000000000006,"velocity":0.3937007874015748},{"duration":0.09999999999999432,"midi":36,"time":63.400000000000006,"velocity":0.3937007874015748},{"duration":0.09999999999999432,"midi":36,"time":63.400000000000006,"velocity":0.3937007874015748},{"duration":0.10000000000000142,"midi":49,"time":63.5,"velocity":0.3937007874015748},{"duration":0.10000000000000142,"midi":36,"time":63.7,"velocity":0.3937007874015748},{"duration":0.10000000000000142,"midi":36,"time":63.7,"velocity":0.3937007874015748},{"duration":0.10000000000000142,"midi":36,"time":63.7,"velocity":0.3937007874015748},{"duration":0.10000000000000142,"midi":36,"time":63.7,"velocity":0.3937007874015748},{"duration":0.10000000000000142,"midi":36,"time":63.7,"velocity":0.3937007874015748},{"duration":0.10000000000000142,"midi":38,"time":63.800000000000004,"velocity":0.3937007874015748},{"duration":0.10000000000000142,"midi":38,"time":63.800000000000004,"velocity":0.3937007874015748},{"duration":0.10000000000000142,"midi":38,"time":63.800000000000004,"velocity":0.3937007874015748},{"duration":0.10000000000000142,"midi":38,"time":63.800000000000004,"velocity":0.3937007874015748},{"duration":0.10000000000000142,"midi":49,"time":63.800000000000004,"velocity":0.3937007874015748},{"duration":0.10000000000000142,"midi":38,"time":63.800000000000004,"velocity":0.3937007874015748},{"duration":0.10000000000000853,"midi":36,"time":64,"velocity":0.3937007874015748},{"duration":0.10000000000000853,"midi":36,"time":64,"velocity":0.3937007874015748},{"duration":0.10000000000000853,"midi":36,"time":64,"velocity":0.3937007874015748},{"duration":0.10000000000000853,"midi":36,"time":64,"velocity":0.3937007874015748},{"duration":0.10000000000000853,"midi":36,"time":64,"velocity":0.3937007874015748},{"duration":0.09999999999999432,"midi":49,"time":64.10000000000001,"velocity":0.3937007874015748},{"duration":0.10000000000000853,"midi":36,"time":64.3,"velocity":0.3937007874015748},{"duration":0.10000000000000853,"midi":36,"time":64.3,"velocity":0.3937007874015748},{"duration":0.10000000000000853,"midi":36,"time":64.3,"velocity":0.3937007874015748},{"duration":0.10000000000000853,"midi":36,"time":64.3,"velocity":0.3937007874015748},{"duration":0.10000000000000853,"midi":36,"time":64.3,"velocity":0.3937007874015748},{"duration":0.09999999999999432,"midi":38,"time":64.4,"velocity":0.3937007874015748},{"duration":0.09999999999999432,"midi":49,"time":64.4,"velocity":0.3937007874015748},{"duration":0.09999999999999432,"midi":38,"time":64.4,"velocity":0.3937007874015748},{"duration":0.09999999999999432,"midi":38,"time":64.4,"velocity":0.3937007874015748},{"duration":0.09999999999999432,"midi":38,"time":64.4,"velocity":0.3937007874015748},{"duration":0.09999999999999432,"midi":38,"time":64.4,"velocity":0.3937007874015748},{"duration":0.09999999999999432,"midi":36,"time":64.60000000000001,"velocity":0.3937007874015748},{"duration":0.09999999999999432,"midi":36,"time":64.60000000000001,"velocity":0.3937007874015748},{"duration":0.09999999999999432,"midi":36,"time":64.60000000000001,"velocity":0.3937007874015748},{"duration":0.09999999999999432,"midi":36,"time":64.60000000000001,"velocity":0.3937007874015748},{"duration":0.09999999999999432,"midi":36,"time":64.60000000000001,"velocity":0.3937007874015748},{"duration":0.09999999999999432,"midi":49,"time":64.7,"velocity":0.3937007874015748},{"duration":0.09999999999999432,"midi":36,"time":64.9,"velocity":0.3937007874015748},{"duration":0.09999999999999432,"midi":36,"time":64.9,"velocity":0.3937007874015748},{"duration":0.09999999999999432,"midi":36,"time":64.9,"velocity":0.3937007874015748},{"duration":0.09999999999999432,"midi":36,"time":64.9,"velocity":0.3937007874015748},{"duration":0.09999999999999432,"midi":36,"time":64.9,"velocity":0.3937007874015748},{"duration":0.10000000000000853,"midi":38,"time":65,"velocity":0.3937007874015748},{"duration":0.10000000000000853,"midi":38,"time":65,"velocity":0.3937007874015748},{"duration":0.10000000000000853,"midi":49,"time":65,"velocity":0.3937007874015748},{"duration":0.10000000000000853,"midi":38,"time":65,"velocity":0.3937007874015748},{"duration":0.10000000000000853,"midi":38,"time":65,"velocity":0.3937007874015748},{"duration":0.10000000000000853,"midi":38,"time":65,"velocity":0.3937007874015748},{"duration":0.09999999999999432,"midi":36,"time":65.2,"velocity":0.3937007874015748},{"duration":0.09999999999999432,"midi":36,"time":65.2,"velocity":0.3937007874015748},{"duration":0.09999999999999432,"midi":36,"time":65.2,"velocity":0.3937007874015748},{"duration":0.09999999999999432,"midi":36,"time":65.2,"velocity":0.3937007874015748},{"duration":0.09999999999999432,"midi":36,"time":65.2,"velocity":0.3937007874015748},{"duration":0.10000000000000853,"midi":49,"time":65.3,"velocity":0.3937007874015748},{"duration":0.10000000000000853,"midi":36,"time":65.5,"velocity":0.3937007874015748},{"duration":0.10000000000000853,"midi":36,"time":65.5,"velocity":0.3937007874015748},{"duration":0.10000000000000853,"midi":36,"time":65.5,"velocity":0.3937007874015748},{"duration":0.10000000000000853,"midi":36,"time":65.5,"velocity":0.3937007874015748},{"duration":0.10000000000000853,"midi":36,"time":65.5,"velocity":0.3937007874015748},{"duration":0.09999999999999432,"midi":38,"time":65.60000000000001,"velocity":0.3937007874015748},{"duration":0.09999999999999432,"midi":38,"time":65.60000000000001,"velocity":0.3937007874015748},{"duration":0.09999999999999432,"midi":38,"time":65.60000000000001,"velocity":0.3937007874015748},{"duration":0.09999999999999432,"midi":38,"time":65.60000000000001,"velocity":0.3937007874015748},{"duration":0.09999999999999432,"midi":49,"time":65.60000000000001,"velocity":0.3937007874015748},{"duration":0.09999999999999432,"midi":38,"time":65.60000000000001,"velocity":0.3937007874015748},{"duration":0.10000000000000853,"midi":36,"time":65.8,"velocity":0.3937007874015748},{"duration":0.10000000000000853,"midi":36,"time":65.8,"velocity":0.3937007874015748},{"duration":0.10000000000000853,"midi":36,"time":65.8,"velocity":0.3937007874015748},{"duration":0.10000000000000853,"midi":36,"time":65.8,"velocity":0.3937007874015748},{"duration":0.10000000000000853,"midi":36,"time":65.8,"velocity":0.3937007874015748},{"duration":0.09999999999999432,"midi":49,"time":65.9,"velocity":0.3937007874015748},{"duration":0.09999999999999432,"midi":36,"time":66.10000000000001,"velocity":0.3937007874015748},{"duration":0.09999999999999432,"midi":36,"time":66.10000000000001,"velocity":0.3937007874015748},{"duration":0.09999999999999432,"midi":36,"time":66.10000000000001,"velocity":0.3937007874015748},{"duration":0.09999999999999432,"midi":36,"time":66.10000000000001,"velocity":0.3937007874015748},{"duration":0.09999999999999432,"midi":36,"time":66.10000000000001,"velocity":0.3937007874015748},{"duration":0.09999999999999432,"midi":49,"time":66.2,"velocity":0.3937007874015748},{"duration":0.09999999999999432,"midi":38,"time":66.2,"velocity":0.3937007874015748},{"duration":0.09999999999999432,"midi":38,"time":66.2,"velocity":0.3937007874015748},{"duration":0.09999999999999432,"midi":38,"time":66.2,"velocity":0.3937007874015748},{"duration":0.09999999999999432,"midi":38,"time":66.2,"velocity":0.3937007874015748},{"duration":0.09999999999999432,"midi":38,"time":66.2,"velocity":0.3937007874015748},{"duration":0.09999999999999432,"midi":36,"time":66.4,"velocity":0.3937007874015748},{"duration":0.09999999999999432,"midi":36,"time":66.4,"velocity":0.3937007874015748},{"duration":0.09999999999999432,"midi":36,"time":66.4,"velocity":0.3937007874015748},{"duration":0.09999999999999432,"midi":36,"time":66.4,"velocity":0.3937007874015748},{"duration":0.09999999999999432,"midi":36,"time":66.4,"velocity":0.3937007874015748},{"duration":0.10000000000000853,"midi":49,"time":66.5,"velocity":0.3937007874015748},{"duration":0.09999999999999432,"midi":36,"time":66.7,"velocity":0.3937007874015748},{"duration":0.09999999999999432,"midi":36,"time":66.7,"velocity":0.3937007874015748},{"duration":0.09999999999999432,"midi":36,"time":66.7,"velocity":0.3937007874015748},{"duration":0.09999999999999432,"midi":36,"time":66.7,"velocity":0.3937007874015748},{"duration":0.09999999999999432,"midi":36,"time":66.7,"velocity":0.3937007874015748},{"duration":0.10000000000000853,"midi":38,"time":66.8,"velocity":0.3937007874015748},{"duration":0.10000000000000853,"midi":38,"time":66.8,"velocity":0.3937007874015748},{"duration":0.10000000000000853,"midi":49,"time":66.8,"velocity":0.3937007874015748},{"duration":0.10000000000000853,"midi":38,"time":66.8,"velocity":0.3937007874015748},{"duration":0.10000000000000853,"midi":38,"time":66.8,"velocity":0.3937007874015748},{"duration":0.10000000000000853,"midi":38,"time":66.8,"velocity":0.3937007874015748},{"duration":0.10000000000000853,"midi":36,"time":67,"velocity":0.3937007874015748},{"duration":0.10000000000000853,"midi":36,"time":67,"velocity":0.3937007874015748},{"duration":0.10000000000000853,"midi":36,"time":67,"velocity":0.3937007874015748},{"duration":0.10000000000000853,"midi":36,"time":67,"velocity":0.3937007874015748},{"duration":0.10000000000000853,"midi":36,"time":67,"velocity":0.3937007874015748},{"duration":0.09999999999999432,"midi":49,"time":67.10000000000001,"velocity":0.3937007874015748},{"duration":0.10000000000000853,"midi":36,"time":67.3,"velocity":0.3937007874015748},{"duration":0.10000000000000853,"midi":36,"time":67.3,"velocity":0.3937007874015748},{"duration":0.10000000000000853,"midi":36,"time":67.3,"velocity":0.3937007874015748},{"duration":0.10000000000000853,"midi":36,"time":67.3,"velocity":0.3937007874015748},{"duration":0.10000000000000853,"midi":36,"time":67.3,"velocity":0.3937007874015748},{"duration":0.09999999999999432,"midi":49,"time":67.4,"velocity":0.3937007874015748},{"duration":0.09999999999999432,"midi":38,"time":67.4,"velocity":0.3937007874015748},{"duration":0.09999999999999432,"midi":38,"time":67.4,"velocity":0.3937007874015748},{"duration":0.09999999999999432,"midi":38,"time":67.4,"velocity":0.3937007874015748},{"duration":0.09999999999999432,"midi":38,"time":67.4,"velocity":0.3937007874015748},{"duration":0.09999999999999432,"midi":38,"time":67.4,"velocity":0.3937007874015748},{"duration":0.09999999999999432,"midi":36,"time":67.60000000000001,"velocity":0.3937007874015748},{"duration":0.09999999999999432,"midi":36,"time":67.60000000000001,"velocity":0.3937007874015748},{"duration":0.09999999999999432,"midi":36,"time":67.60000000000001,"velocity":0.3937007874015748},{"duration":0.09999999999999432,"midi":36,"time":67.60000000000001,"velocity":0.3937007874015748},{"duration":0.09999999999999432,"midi":36,"time":67.60000000000001,"velocity":0.3937007874015748},{"duration":0.09999999999999432,"midi":49,"time":67.7,"velocity":0.3937007874015748},{"duration":0.09999999999999432,"midi":36,"time":67.9,"velocity":0.3937007874015748},{"duration":0.09999999999999432,"midi":36,"time":67.9,"velocity":0.3937007874015748},{"duration":0.09999999999999432,"midi":36,"time":67.9,"velocity":0.3937007874015748},{"duration":0.09999999999999432,"midi":36,"time":67.9,"velocity":0.3937007874015748},{"duration":0.09999999999999432,"midi":36,"time":67.9,"velocity":0.3937007874015748},{"duration":0.10000000000000853,"midi":38,"time":68,"velocity":0.3937007874015748},{"duration":0.10000000000000853,"midi":38,"time":68,"velocity":0.3937007874015748},{"duration":0.10000000000000853,"midi":38,"time":68,"velocity":0.3937007874015748},{"duration":0.10000000000000853,"midi":38,"time":68,"velocity":0.3937007874015748},{"duration":0.10000000000000853,"midi":49,"time":68,"velocity":0.3937007874015748},{"duration":0.10000000000000853,"midi":38,"time":68,"velocity":0.3937007874015748},{"duration":0.09999999999999432,"midi":36,"time":68.2,"velocity":0.3937007874015748},{"duration":0.09999999999999432,"midi":36,"time":68.2,"velocity":0.3937007874015748},{"duration":0.09999999999999432,"midi":36,"time":68.2,"velocity":0.3937007874015748},{"duration":0.09999999999999432,"midi":36,"time":68.2,"velocity":0.3937007874015748},{"duration":0.09999999999999432,"midi":36,"time":68.2,"velocity":0.3937007874015748},{"duration":0.10000000000000853,"midi":49,"time":68.3,"velocity":0.3937007874015748},{"duration":0.10000000000000853,"midi":36,"time":68.5,"velocity":0.3937007874015748},{"duration":0.10000000000000853,"midi":36,"time":68.5,"velocity":0.3937007874015748},{"duration":0.10000000000000853,"midi":36,"time":68.5,"velocity":0.3937007874015748},{"duration":0.10000000000000853,"midi":36,"time":68.5,"velocity":0.3937007874015748},{"duration":0.10000000000000853,"midi":36,"time":68.5,"velocity":0.3937007874015748},{"duration":0.09999999999999432,"midi":38,"time":68.60000000000001,"velocity":0.3937007874015748},{"duration":0.09999999999999432,"midi":38,"time":68.60000000000001,"velocity":0.3937007874015748},{"duration":0.09999999999999432,"midi":38,"time":68.60000000000001,"velocity":0.3937007874015748},{"duration":0.09999999999999432,"midi":38,"time":68.60000000000001,"velocity":0.3937007874015748},{"duration":0.09999999999999432,"midi":49,"time":68.60000000000001,"velocity":0.3937007874015748},{"duration":0.09999999999999432,"midi":38,"time":68.60000000000001,"velocity":0.3937007874015748},{"duration":0.10000000000000853,"midi":36,"time":68.8,"velocity":0.3937007874015748},{"duration":0.10000000000000853,"midi":36,"time":68.8,"velocity":0.3937007874015748},{"duration":0.10000000000000853,"midi":36,"time":68.8,"velocity":0.3937007874015748},{"duration":0.10000000000000853,"midi":36,"time":68.8,"velocity":0.3937007874015748},{"duration":0.10000000000000853,"midi":36,"time":68.8,"velocity":0.3937007874015748},{"duration":0.09999999999999432,"midi":49,"time":68.9,"velocity":0.3937007874015748},{"duration":0.09999999999999432,"midi":36,"time":69.10000000000001,"velocity":0.3937007874015748},{"duration":0.09999999999999432,"midi":36,"time":69.10000000000001,"velocity":0.3937007874015748},{"duration":0.09999999999999432,"midi":36,"time":69.10000000000001,"velocity":0.3937007874015748},{"duration":0.09999999999999432,"midi":36,"time":69.10000000000001,"velocity":0.3937007874015748},{"duration":0.09999999999999432,"midi":36,"time":69.10000000000001,"velocity":0.3937007874015748},{"duration":0.09999999999999432,"midi":38,"time":69.2,"velocity":0.3937007874015748},{"duration":0.09999999999999432,"midi":38,"time":69.2,"velocity":0.3937007874015748},{"duration":0.09999999999999432,"midi":38,"time":69.2,"velocity":0.3937007874015748},{"duration":0.09999999999999432,"midi":38,"time":69.2,"velocity":0.3937007874015748},{"duration":0.09999999999999432,"midi":38,"time":69.2,"velocity":0.3937007874015748},{"duration":0.09999999999999432,"midi":49,"time":69.2,"velocity":0.3937007874015748},{"duration":0.09999999999999432,"midi":36,"time":69.4,"velocity":0.3937007874015748},{"duration":0.09999999999999432,"midi":36,"time":69.4,"velocity":0.3937007874015748},{"duration":0.09999999999999432,"midi":36,"time":69.4,"velocity":0.3937007874015748},{"duration":0.09999999999999432,"midi":36,"time":69.4,"velocity":0.3937007874015748},{"duration":0.09999999999999432,"midi":36,"time":69.4,"velocity":0.3937007874015748},{"duration":0.10000000000000853,"midi":49,"time":69.5,"velocity":0.3937007874015748},{"duration":0.09999999999999432,"midi":36,"time":69.7,"velocity":0.3937007874015748},{"duration":0.09999999999999432,"midi":36,"time":69.7,"velocity":0.3937007874015748},{"duration":0.09999999999999432,"midi":36,"time":69.7,"velocity":0.3937007874015748},{"duration":0.09999999999999432,"midi":36,"time":69.7,"velocity":0.3937007874015748},{"duration":0.09999999999999432,"midi":36,"time":69.7,"velocity":0.3937007874015748},{"duration":0.10000000000000853,"midi":38,"time":69.8,"velocity":0.3937007874015748},{"duration":0.10000000000000853,"midi":38,"time":69.8,"velocity":0.3937007874015748},{"duration":0.10000000000000853,"midi":38,"time":69.8,"velocity":0.3937007874015748},{"duration":0.10000000000000853,"midi":38,"time":69.8,"velocity":0.3937007874015748},{"duration":0.10000000000000853,"midi":49,"time":69.8,"velocity":0.3937007874015748},{"duration":0.10000000000000853,"midi":38,"time":69.8,"velocity":0.3937007874015748},{"duration":0.10000000000000853,"midi":36,"time":70,"velocity":0.3937007874015748},{"duration":0.10000000000000853,"midi":36,"time":70,"velocity":0.3937007874015748},{"duration":0.10000000000000853,"midi":36,"time":70,"velocity":0.3937007874015748},{"duration":0.10000000000000853,"midi":36,"time":70,"velocity":0.3937007874015748},{"duration":0.10000000000000853,"midi":36,"time":70,"velocity":0.3937007874015748},{"duration":0.09999999999999432,"midi":49,"time":70.10000000000001,"velocity":0.3937007874015748},{"duration":0.10000000000000853,"midi":36,"time":70.3,"velocity":0.3937007874015748},{"duration":0.10000000000000853,"midi":36,"time":70.3,"velocity":0.3937007874015748},{"duration":0.10000000000000853,"midi":36,"time":70.3,"velocity":0.3937007874015748},{"duration":0.10000000000000853,"midi":36,"time":70.3,"velocity":0.3937007874015748},{"duration":0.10000000000000853,"midi":36,"time":70.3,"velocity":0.3937007874015748},{"duration":0.09999999999999432,"midi":38,"time":70.4,"velocity":0.3937007874015748},{"duration":0.09999999999999432,"midi":49,"time":70.4,"velocity":0.3937007874015748},{"duration":0.09999999999999432,"midi":38,"time":70.4,"velocity":0.3937007874015748},{"duration":0.09999999999999432,"midi":38,"time":70.4,"velocity":0.3937007874015748},{"duration":0.09999999999999432,"midi":38,"time":70.4,"velocity":0.3937007874015748},{"duration":0.09999999999999432,"midi":38,"time":70.4,"velocity":0.3937007874015748},{"duration":0.09999999999999432,"midi":36,"time":70.60000000000001,"velocity":0.3937007874015748},{"duration":0.09999999999999432,"midi":36,"time":70.60000000000001,"velocity":0.3937007874015748},{"duration":0.09999999999999432,"midi":36,"time":70.60000000000001,"velocity":0.3937007874015748},{"duration":0.09999999999999432,"midi":36,"time":70.60000000000001,"velocity":0.3937007874015748},{"duration":0.09999999999999432,"midi":36,"time":70.60000000000001,"velocity":0.3937007874015748},{"duration":0.09999999999999432,"midi":49,"time":70.7,"velocity":0.3937007874015748},{"duration":0.09999999999999432,"midi":36,"time":70.9,"velocity":0.3937007874015748},{"duration":0.09999999999999432,"midi":36,"time":70.9,"velocity":0.3937007874015748},{"duration":0.09999999999999432,"midi":36,"time":70.9,"velocity":0.3937007874015748},{"duration":0.09999999999999432,"midi":36,"time":70.9,"velocity":0.3937007874015748},{"duration":0.09999999999999432,"midi":36,"time":70.9,"velocity":0.3937007874015748},{"duration":0.10000000000000853,"midi":38,"time":71,"velocity":0.3937007874015748},{"duration":0.10000000000000853,"midi":38,"time":71,"velocity":0.3937007874015748},{"duration":0.10000000000000853,"midi":49,"time":71,"velocity":0.3937007874015748},{"duration":0.10000000000000853,"midi":38,"time":71,"velocity":0.3937007874015748},{"duration":0.10000000000000853,"midi":38,"time":71,"velocity":0.3937007874015748},{"duration":0.10000000000000853,"midi":38,"time":71,"velocity":0.3937007874015748},{"duration":0.09999999999999432,"midi":36,"time":71.2,"velocity":0.3937007874015748},{"duration":0.09999999999999432,"midi":36,"time":71.2,"velocity":0.3937007874015748},{"duration":0.09999999999999432,"midi":36,"time":71.2,"velocity":0.3937007874015748},{"duration":0.09999999999999432,"midi":36,"time":71.2,"velocity":0.3937007874015748},{"duration":0.09999999999999432,"midi":36,"time":71.2,"velocity":0.3937007874015748},{"duration":0.10000000000000853,"midi":49,"time":71.3,"velocity":0.3937007874015748},{"duration":0.10000000000000853,"midi":36,"time":71.5,"velocity":0.3937007874015748},{"duration":0.10000000000000853,"midi":36,"time":71.5,"velocity":0.3937007874015748},{"duration":0.10000000000000853,"midi":36,"time":71.5,"velocity":0.3937007874015748},{"duration":0.10000000000000853,"midi":36,"time":71.5,"velocity":0.3937007874015748},{"duration":0.10000000000000853,"midi":36,"time":71.5,"velocity":0.3937007874015748},{"duration":0.09999999999999432,"midi":49,"time":71.60000000000001,"velocity":0.3937007874015748},{"duration":0.09999999999999432,"midi":38,"time":71.60000000000001,"velocity":0.3937007874015748},{"duration":0.09999999999999432,"midi":38,"time":71.60000000000001,"velocity":0.3937007874015748},{"duration":0.09999999999999432,"midi":38,"time":71.60000000000001,"velocity":0.3937007874015748},{"duration":0.09999999999999432,"midi":38,"time":71.60000000000001,"velocity":0.3937007874015748},{"duration":0.09999999999999432,"midi":38,"time":71.60000000000001,"velocity":0.3937007874015748},{"duration":0.10000000000000853,"midi":36,"time":71.8,"velocity":0.3937007874015748},{"duration":0.10000000000000853,"midi":36,"time":71.8,"velocity":0.3937007874015748},{"duration":0.10000000000000853,"midi":36,"time":71.8,"velocity":0.3937007874015748},{"duration":0.10000000000000853,"midi":36,"time":71.8,"velocity":0.3937007874015748},{"duration":0.10000000000000853,"midi":36,"time":71.8,"velocity":0.3937007874015748},{"duration":0.09999999999999432,"midi":49,"time":71.9,"velocity":0.3937007874015748},{"duration":0.09999999999999432,"midi":36,"time":72.10000000000001,"velocity":0.3937007874015748},{"duration":0.09999999999999432,"midi":36,"time":72.10000000000001,"velocity":0.3937007874015748},{"duration":0.09999999999999432,"midi":36,"time":72.10000000000001,"velocity":0.3937007874015748},{"duration":0.09999999999999432,"midi":36,"time":72.10000000000001,"velocity":0.3937007874015748},{"duration":0.09999999999999432,"midi":36,"time":72.10000000000001,"velocity":0.3937007874015748},{"duration":0.09999999999999432,"midi":38,"time":72.2,"velocity":0.3937007874015748},{"duration":0.09999999999999432,"midi":38,"time":72.2,"velocity":0.3937007874015748},{"duration":0.09999999999999432,"midi":38,"time":72.2,"velocity":0.3937007874015748},{"duration":0.09999999999999432,"midi":49,"time":72.2,"velocity":0.3937007874015748},{"duration":0.09999999999999432,"midi":38,"time":72.2,"velocity":0.3937007874015748},{"duration":0.09999999999999432,"midi":38,"time":72.2,"velocity":0.3937007874015748},{"duration":0.09999999999999432,"midi":36,"time":72.4,"velocity":0.3937007874015748},{"duration":0.09999999999999432,"midi":36,"time":72.4,"velocity":0.3937007874015748},{"duration":0.09999999999999432,"midi":36,"time":72.4,"velocity":0.3937007874015748},{"duration":0.09999999999999432,"midi":36,"time":72.4,"velocity":0.3937007874015748},{"duration":0.09999999999999432,"midi":36,"time":72.4,"velocity":0.3937007874015748},{"duration":0.10000000000000853,"midi":49,"time":72.5,"velocity":0.3937007874015748},{"duration":0.09999999999999432,"midi":36,"time":72.7,"velocity":0.3937007874015748},{"duration":0.09999999999999432,"midi":36,"time":72.7,"velocity":0.3937007874015748},{"duration":0.09999999999999432,"midi":36,"time":72.7,"velocity":0.3937007874015748},{"duration":0.09999999999999432,"midi":36,"time":72.7,"velocity":0.3937007874015748},{"duration":0.09999999999999432,"midi":36,"time":72.7,"velocity":0.3937007874015748},{"duration":0.10000000000000853,"midi":38,"time":72.8,"velocity":0.3937007874015748},{"duration":0.10000000000000853,"midi":38,"time":72.8,"velocity":0.3937007874015748},{"duration":0.10000000000000853,"midi":38,"time":72.8,"velocity":0.3937007874015748},{"duration":0.10000000000000853,"midi":38,"time":72.8,"velocity":0.3937007874015748},{"duration":0.10000000000000853,"midi":49,"time":72.8,"velocity":0.3937007874015748},{"duration":0.10000000000000853,"midi":38,"time":72.8,"velocity":0.3937007874015748},{"duration":0.10000000000000853,"midi":36,"time":73,"velocity":0.3937007874015748},{"duration":0.10000000000000853,"midi":36,"time":73,"velocity":0.3937007874015748},{"duration":0.10000000000000853,"midi":36,"time":73,"velocity":0.3937007874015748},{"duration":0.10000000000000853,"midi":36,"time":73,"velocity":0.3937007874015748},{"duration":0.10000000000000853,"midi":36,"time":73,"velocity":0.3937007874015748},{"duration":0.09999999999999432,"midi":49,"time":73.10000000000001,"velocity":0.3937007874015748},{"duration":0.10000000000000853,"midi":36,"time":73.3,"velocity":0.3937007874015748},{"duration":0.10000000000000853,"midi":36,"time":73.3,"velocity":0.3937007874015748},{"duration":0.10000000000000853,"midi":36,"time":73.3,"velocity":0.3937007874015748},{"duration":0.10000000000000853,"midi":36,"time":73.3,"velocity":0.3937007874015748},{"duration":0.10000000000000853,"midi":36,"time":73.3,"velocity":0.3937007874015748},{"duration":0.09999999999999432,"midi":38,"time":73.4,"velocity":0.3937007874015748},{"duration":0.09999999999999432,"midi":38,"time":73.4,"velocity":0.3937007874015748},{"duration":0.09999999999999432,"midi":49,"time":73.4,"velocity":0.3937007874015748},{"duration":0.09999999999999432,"midi":38,"time":73.4,"velocity":0.3937007874015748},{"duration":0.09999999999999432,"midi":38,"time":73.4,"velocity":0.3937007874015748},{"duration":0.09999999999999432,"midi":38,"time":73.4,"velocity":0.3937007874015748},{"duration":0.09999999999999432,"midi":36,"time":73.60000000000001,"velocity":0.3937007874015748},{"duration":0.09999999999999432,"midi":36,"time":73.60000000000001,"velocity":0.3937007874015748},{"duration":0.09999999999999432,"midi":36,"time":73.60000000000001,"velocity":0.3937007874015748},{"duration":0.09999999999999432,"midi":36,"time":73.60000000000001,"velocity":0.3937007874015748},{"duration":0.09999999999999432,"midi":36,"time":73.60000000000001,"velocity":0.3937007874015748},{"duration":0.09999999999999432,"midi":49,"time":73.7,"velocity":0.3937007874015748},{"duration":0.09999999999999432,"midi":36,"time":73.9,"velocity":0.3937007874015748},{"duration":0.09999999999999432,"midi":36,"time":73.9,"velocity":0.3937007874015748},{"duration":0.09999999999999432,"midi":36,"time":73.9,"velocity":0.3937007874015748},{"duration":0.09999999999999432,"midi":36,"time":73.9,"velocity":0.3937007874015748},{"duration":0.09999999999999432,"midi":36,"time":73.9,"velocity":0.3937007874015748},{"duration":0.10000000000000853,"midi":38,"time":74,"velocity":0.3937007874015748},{"duration":0.10000000000000853,"midi":38,"time":74,"velocity":0.3937007874015748},{"duration":0.10000000000000853,"midi":38,"time":74,"velocity":0.3937007874015748},{"duration":0.10000000000000853,"midi":38,"time":74,"velocity":0.3937007874015748},{"duration":0.10000000000000853,"midi":49,"time":74,"velocity":0.3937007874015748},{"duration":0.10000000000000853,"midi":38,"time":74,"velocity":0.3937007874015748},{"duration":0.09999999999999432,"midi":36,"time":74.2,"velocity":0.3937007874015748},{"duration":0.09999999999999432,"midi":36,"time":74.2,"velocity":0.3937007874015748},{"duration":0.09999999999999432,"midi":36,"time":74.2,"velocity":0.3937007874015748},{"duration":0.09999999999999432,"midi":36,"time":74.2,"velocity":0.3937007874015748},{"duration":0.09999999999999432,"midi":36,"time":74.2,"velocity":0.3937007874015748},{"duration":0.10000000000000853,"midi":49,"time":74.3,"velocity":0.3937007874015748},{"duration":0.10000000000000853,"midi":36,"time":74.5,"velocity":0.3937007874015748},{"duration":0.10000000000000853,"midi":36,"time":74.5,"velocity":0.3937007874015748},{"duration":0.10000000000000853,"midi":36,"time":74.5,"velocity":0.3937007874015748},{"duration":0.10000000000000853,"midi":36,"time":74.5,"velocity":0.3937007874015748},{"duration":0.10000000000000853,"midi":36,"time":74.5,"velocity":0.3937007874015748},{"duration":0.09999999999999432,"midi":38,"time":74.60000000000001,"velocity":0.3937007874015748},{"duration":0.09999999999999432,"midi":38,"time":74.60000000000001,"velocity":0.3937007874015748},{"duration":0.09999999999999432,"midi":49,"time":74.60000000000001,"velocity":0.3937007874015748},{"duration":0.09999999999999432,"midi":38,"time":74.60000000000001,"velocity":0.3937007874015748},{"duration":0.09999999999999432,"midi":38,"time":74.60000000000001,"velocity":0.3937007874015748},{"duration":0.09999999999999432,"midi":38,"time":74.60000000000001,"velocity":0.3937007874015748},{"duration":0.10000000000000853,"midi":36,"time":74.8,"velocity":0.3937007874015748},{"duration":0.10000000000000853,"midi":36,"time":74.8,"velocity":0.3937007874015748},{"duration":0.10000000000000853,"midi":36,"time":74.8,"velocity":0.3937007874015748},{"duration":0.10000000000000853,"midi":36,"time":74.8,"velocity":0.3937007874015748},{"duration":0.10000000000000853,"midi":36,"time":74.8,"velocity":0.3937007874015748},{"duration":0.09999999999999432,"midi":49,"time":74.9,"velocity":0.3937007874015748},{"duration":0.09999999999999432,"midi":36,"time":75.10000000000001,"velocity":0.3937007874015748},{"duration":0.09999999999999432,"midi":36,"time":75.10000000000001,"velocity":0.3937007874015748},{"duration":0.09999999999999432,"midi":36,"time":75.10000000000001,"velocity":0.3937007874015748},{"duration":0.09999999999999432,"midi":36,"time":75.10000000000001,"velocity":0.3937007874015748},{"duration":0.09999999999999432,"midi":36,"time":75.10000000000001,"velocity":0.3937007874015748},{"duration":0.09999999999999432,"midi":38,"time":75.2,"velocity":0.3937007874015748},{"duration":0.09999999999999432,"midi":49,"time":75.2,"velocity":0.3937007874015748},{"duration":0.09999999999999432,"midi":38,"time":75.2,"velocity":0.3937007874015748},{"duration":0.09999999999999432,"midi":38,"time":75.2,"velocity":0.3937007874015748},{"duration":0.09999999999999432,"midi":38,"time":75.2,"velocity":0.3937007874015748},{"duration":0.09999999999999432,"midi":38,"time":75.2,"velocity":0.3937007874015748},{"duration":0.09999999999999432,"midi":36,"time":75.4,"velocity":0.3937007874015748},{"duration":0.09999999999999432,"midi":36,"time":75.4,"velocity":0.3937007874015748},{"duration":0.09999999999999432,"midi":36,"time":75.4,"velocity":0.3937007874015748},{"duration":0.09999999999999432,"midi":36,"time":75.4,"velocity":0.3937007874015748},{"duration":0.09999999999999432,"midi":36,"time":75.4,"velocity":0.3937007874015748},{"duration":0.10000000000000853,"midi":49,"time":75.5,"velocity":0.3937007874015748},{"duration":0.10000000000000853,"midi":49,"time":75.5,"velocity":0.3937007874015748},{"duration":0.10000000000000853,"midi":49,"time":75.5,"velocity":0.3937007874015748},{"duration":0.09999999999999432,"midi":36,"time":75.7,"velocity":0.3937007874015748},{"duration":0.09999999999999432,"midi":36,"time":75.7,"velocity":0.3937007874015748},{"duration":0.09999999999999432,"midi":36,"time":75.7,"velocity":0.3937007874015748},{"duration":0.09999999999999432,"midi":36,"time":75.7,"velocity":0.3937007874015748},{"duration":0.09999999999999432,"midi":36,"time":75.7,"velocity":0.3937007874015748},{"duration":0.10000000000000853,"midi":38,"time":75.8,"velocity":0.3937007874015748},{"duration":0.10000000000000853,"midi":38,"time":75.8,"velocity":0.3937007874015748},{"duration":0.10000000000000853,"midi":38,"time":75.8,"velocity":0.3937007874015748},{"duration":0.10000000000000853,"midi":49,"time":75.8,"velocity":0.3937007874015748},{"duration":0.10000000000000853,"midi":38,"time":75.8,"velocity":0.3937007874015748},{"duration":0.10000000000000853,"midi":38,"time":75.8,"velocity":0.3937007874015748},{"duration":0.10000000000000853,"midi":36,"time":76,"velocity":0.3937007874015748},{"duration":0.10000000000000853,"midi":36,"time":76,"velocity":0.3937007874015748},{"duration":0.10000000000000853,"midi":36,"time":76,"velocity":0.3937007874015748},{"duration":0.10000000000000853,"midi":36,"time":76,"velocity":0.3937007874015748},{"duration":0.10000000000000853,"midi":36,"time":76,"velocity":0.3937007874015748},{"duration":0.09999999999999432,"midi":49,"time":76.10000000000001,"velocity":0.3937007874015748},{"duration":0.09999999999999432,"midi":49,"time":76.10000000000001,"velocity":0.3937007874015748},{"duration":0.09999999999999432,"midi":49,"time":76.10000000000001,"velocity":0.3937007874015748},{"duration":0.10000000000000853,"midi":36,"time":76.3,"velocity":0.3937007874015748},{"duration":0.10000000000000853,"midi":36,"time":76.3,"velocity":0.3937007874015748},{"duration":0.10000000000000853,"midi":36,"time":76.3,"velocity":0.3937007874015748},{"duration":0.10000000000000853,"midi":36,"time":76.3,"velocity":0.3937007874015748},{"duration":0.10000000000000853,"midi":36,"time":76.3,"velocity":0.3937007874015748},{"duration":0.09999999999999432,"midi":38,"time":76.4,"velocity":0.3937007874015748},{"duration":0.09999999999999432,"midi":49,"time":76.4,"velocity":0.3937007874015748},{"duration":0.09999999999999432,"midi":38,"time":76.4,"velocity":0.3937007874015748},{"duration":0.09999999999999432,"midi":38,"time":76.4,"velocity":0.3937007874015748},{"duration":0.09999999999999432,"midi":38,"time":76.4,"velocity":0.3937007874015748},{"duration":0.09999999999999432,"midi":38,"time":76.4,"velocity":0.3937007874015748},{"duration":0.09999999999999432,"midi":36,"time":76.60000000000001,"velocity":0.3937007874015748},{"duration":0.09999999999999432,"midi":36,"time":76.60000000000001,"velocity":0.3937007874015748},{"duration":0.09999999999999432,"midi":36,"time":76.60000000000001,"velocity":0.3937007874015748},{"duration":0.09999999999999432,"midi":36,"time":76.60000000000001,"velocity":0.3937007874015748},{"duration":0.09999999999999432,"midi":36,"time":76.60000000000001,"velocity":0.3937007874015748},{"duration":0.10000000000000853,"midi":49,"time":76.7,"velocity":0.3937007874015748},{"duration":0.10000000000000853,"midi":49,"time":76.7,"velocity":0.3937007874015748},{"duration":0.10000000000000853,"midi":49,"time":76.7,"velocity":0.3937007874015748},{"duration":0.09999999999999432,"midi":36,"time":76.9,"velocity":0.3937007874015748},{"duration":0.09999999999999432,"midi":36,"time":76.9,"velocity":0.3937007874015748},{"duration":0.09999999999999432,"midi":36,"time":76.9,"velocity":0.3937007874015748},{"duration":0.09999999999999432,"midi":36,"time":76.9,"velocity":0.3937007874015748},{"duration":0.09999999999999432,"midi":36,"time":76.9,"velocity":0.3937007874015748},{"duration":0.10000000000000853,"midi":38,"time":77,"velocity":0.3937007874015748},{"duration":0.10000000000000853,"midi":38,"time":77,"velocity":0.3937007874015748},{"duration":0.10000000000000853,"midi":38,"time":77,"velocity":0.3937007874015748},{"duration":0.10000000000000853,"midi":38,"time":77,"velocity":0.3937007874015748},{"duration":0.10000000000000853,"midi":49,"time":77,"velocity":0.3937007874015748},{"duration":0.10000000000000853,"midi":38,"time":77,"velocity":0.3937007874015748},{"duration":0.10000000000000853,"midi":36,"time":77.2,"velocity":0.3937007874015748},{"duration":0.10000000000000853,"midi":36,"time":77.2,"velocity":0.3937007874015748},{"duration":0.10000000000000853,"midi":36,"time":77.2,"velocity":0.3937007874015748},{"duration":0.10000000000000853,"midi":36,"time":77.2,"velocity":0.3937007874015748},{"duration":0.10000000000000853,"midi":36,"time":77.2,"velocity":0.3937007874015748},{"duration":0.09999999999999432,"midi":49,"time":77.30000000000001,"velocity":0.3937007874015748},{"duration":0.09999999999999432,"midi":49,"time":77.30000000000001,"velocity":0.3937007874015748},{"duration":0.09999999999999432,"midi":49,"time":77.30000000000001,"velocity":0.3937007874015748},{"duration":0.10000000000000853,"midi":36,"time":77.5,"velocity":0.3937007874015748},{"duration":0.10000000000000853,"midi":36,"time":77.5,"velocity":0.3937007874015748},{"duration":0.10000000000000853,"midi":36,"time":77.5,"velocity":0.3937007874015748},{"duration":0.10000000000000853,"midi":36,"time":77.5,"velocity":0.3937007874015748},{"duration":0.10000000000000853,"midi":36,"time":77.5,"velocity":0.3937007874015748},{"duration":0.09999999999999432,"midi":38,"time":77.60000000000001,"velocity":0.3937007874015748},{"duration":0.09999999999999432,"midi":38,"time":77.60000000000001,"velocity":0.3937007874015748},{"duration":0.09999999999999432,"midi":38,"time":77.60000000000001,"velocity":0.3937007874015748},{"duration":0.09999999999999432,"midi":38,"time":77.60000000000001,"velocity":0.3937007874015748},{"duration":0.09999999999999432,"midi":49,"time":77.60000000000001,"velocity":0.3937007874015748},{"duration":0.09999999999999432,"midi":38,"time":77.60000000000001,"velocity":0.3937007874015748},{"duration":0.09999999999999432,"midi":36,"time":77.80000000000001,"velocity":0.3937007874015748},{"duration":0.09999999999999432,"midi":36,"time":77.80000000000001,"velocity":0.3937007874015748},{"duration":0.09999999999999432,"midi":36,"time":77.80000000000001,"velocity":0.3937007874015748},{"duration":0.09999999999999432,"midi":36,"time":77.80000000000001,"velocity":0.3937007874015748},{"duration":0.09999999999999432,"midi":36,"time":77.80000000000001,"velocity":0.3937007874015748},{"duration":0.09999999999999432,"midi":49,"time":77.9,"velocity":0.3937007874015748},{"duration":0.09999999999999432,"midi":49,"time":77.9,"velocity":0.3937007874015748},{"duration":0.09999999999999432,"midi":49,"time":77.9,"velocity":0.3937007874015748},{"duration":0.09999999999999432,"midi":36,"time":78.10000000000001,"velocity":0.3937007874015748},{"duration":0.09999999999999432,"midi":36,"time":78.10000000000001,"velocity":0.3937007874015748},{"duration":0.09999999999999432,"midi":36,"time":78.10000000000001,"velocity":0.3937007874015748},{"duration":0.09999999999999432,"midi":36,"time":78.10000000000001,"velocity":0.3937007874015748},{"duration":0.09999999999999432,"midi":36,"time":78.10000000000001,"velocity":0.3937007874015748},{"duration":0.10000000000000853,"midi":49,"time":78.2,"velocity":0.3937007874015748},{"duration":0.10000000000000853,"midi":38,"time":78.2,"velocity":0.3937007874015748},{"duration":0.10000000000000853,"midi":38,"time":78.2,"velocity":0.3937007874015748},{"duration":0.10000000000000853,"midi":38,"time":78.2,"velocity":0.3937007874015748},{"duration":0.10000000000000853,"midi":38,"time":78.2,"velocity":0.3937007874015748},{"duration":0.10000000000000853,"midi":38,"time":78.2,"velocity":0.3937007874015748},{"duration":0.09999999999999432,"midi":36,"time":78.4,"velocity":0.3937007874015748},{"duration":0.09999999999999432,"midi":36,"time":78.4,"velocity":0.3937007874015748},{"duration":0.09999999999999432,"midi":36,"time":78.4,"velocity":0.3937007874015748},{"duration":0.09999999999999432,"midi":36,"time":78.4,"velocity":0.3937007874015748},{"duration":0.09999999999999432,"midi":36,"time":78.4,"velocity":0.3937007874015748},{"duration":0.10000000000000853,"midi":49,"time":78.5,"velocity":0.3937007874015748},{"duration":0.10000000000000853,"midi":49,"time":78.5,"velocity":0.3937007874015748},{"duration":0.10000000000000853,"midi":49,"time":78.5,"velocity":0.3937007874015748},{"duration":0.10000000000000853,"midi":36,"time":78.7,"velocity":0.3937007874015748},{"duration":0.10000000000000853,"midi":36,"time":78.7,"velocity":0.3937007874015748},{"duration":0.10000000000000853,"midi":36,"time":78.7,"velocity":0.3937007874015748},{"duration":0.10000000000000853,"midi":36,"time":78.7,"velocity":0.3937007874015748},{"duration":0.10000000000000853,"midi":36,"time":78.7,"velocity":0.3937007874015748},{"duration":0.09999999999999432,"midi":38,"time":78.80000000000001,"velocity":0.3937007874015748},{"duration":0.09999999999999432,"midi":38,"time":78.80000000000001,"velocity":0.3937007874015748},{"duration":0.09999999999999432,"midi":38,"time":78.80000000000001,"velocity":0.3937007874015748},{"duration":0.09999999999999432,"midi":38,"time":78.80000000000001,"velocity":0.3937007874015748},{"duration":0.09999999999999432,"midi":49,"time":78.80000000000001,"velocity":0.3937007874015748},{"duration":0.09999999999999432,"midi":38,"time":78.80000000000001,"velocity":0.3937007874015748},{"duration":0.10000000000000853,"midi":36,"time":79,"velocity":0.3937007874015748},{"duration":0.10000000000000853,"midi":36,"time":79,"velocity":0.3937007874015748},{"duration":0.10000000000000853,"midi":36,"time":79,"velocity":0.3937007874015748},{"duration":0.10000000000000853,"midi":36,"time":79,"velocity":0.3937007874015748},{"duration":0.10000000000000853,"midi":36,"time":79,"velocity":0.3937007874015748},{"duration":0.09999999999999432,"midi":49,"time":79.10000000000001,"velocity":0.3937007874015748},{"duration":0.09999999999999432,"midi":49,"time":79.10000000000001,"velocity":0.3937007874015748},{"duration":0.09999999999999432,"midi":49,"time":79.10000000000001,"velocity":0.3937007874015748},{"duration":0.09999999999999432,"midi":36,"time":79.30000000000001,"velocity":0.3937007874015748},{"duration":0.09999999999999432,"midi":36,"time":79.30000000000001,"velocity":0.3937007874015748},{"duration":0.09999999999999432,"midi":36,"time":79.30000000000001,"velocity":0.3937007874015748},{"duration":0.09999999999999432,"midi":36,"time":79.30000000000001,"velocity":0.3937007874015748},{"duration":0.09999999999999432,"midi":36,"time":79.30000000000001,"velocity":0.3937007874015748},{"duration":0.09999999999999432,"midi":38,"time":79.4,"velocity":0.3937007874015748},{"duration":0.09999999999999432,"midi":38,"time":79.4,"velocity":0.3937007874015748},{"duration":0.09999999999999432,"midi":38,"time":79.4,"velocity":0.3937007874015748},{"duration":0.09999999999999432,"midi":38,"time":79.4,"velocity":0.3937007874015748},{"duration":0.09999999999999432,"midi":49,"time":79.4,"velocity":0.3937007874015748},{"duration":0.09999999999999432,"midi":38,"time":79.4,"velocity":0.3937007874015748},{"duration":0.09999999999999432,"midi":36,"time":79.60000000000001,"velocity":0.3937007874015748},{"duration":0.09999999999999432,"midi":36,"time":79.60000000000001,"velocity":0.3937007874015748},{"duration":0.09999999999999432,"midi":36,"time":79.60000000000001,"velocity":0.3937007874015748},{"duration":0.09999999999999432,"midi":36,"time":79.60000000000001,"velocity":0.3937007874015748},{"duration":0.09999999999999432,"midi":36,"time":79.60000000000001,"velocity":0.3937007874015748},{"duration":0.10000000000000853,"midi":49,"time":79.7,"velocity":0.3937007874015748},{"duration":0.10000000000000853,"midi":49,"time":79.7,"velocity":0.3937007874015748},{"duration":0.10000000000000853,"midi":49,"time":79.7,"velocity":0.3937007874015748},{"duration":0.09999999999999432,"midi":36,"time":79.9,"velocity":0.3937007874015748},{"duration":0.09999999999999432,"midi":36,"time":79.9,"velocity":0.3937007874015748},{"duration":0.09999999999999432,"midi":36,"time":79.9,"velocity":0.3937007874015748},{"duration":0.09999999999999432,"midi":36,"time":79.9,"velocity":0.3937007874015748},{"duration":0.09999999999999432,"midi":36,"time":79.9,"velocity":0.3937007874015748},{"duration":0.10000000000000853,"midi":38,"time":80,"velocity":0.3937007874015748},{"duration":0.10000000000000853,"midi":38,"time":80,"velocity":0.3937007874015748},{"duration":0.10000000000000853,"midi":38,"time":80,"velocity":0.3937007874015748},{"duration":0.10000000000000853,"midi":49,"time":80,"velocity":0.3937007874015748},{"duration":0.10000000000000853,"midi":38,"time":80,"velocity":0.3937007874015748},{"duration":0.10000000000000853,"midi":38,"time":80,"velocity":0.3937007874015748},{"duration":0.10000000000000853,"midi":36,"time":80.2,"velocity":0.3937007874015748},{"duration":0.10000000000000853,"midi":36,"time":80.2,"velocity":0.3937007874015748},{"duration":0.10000000000000853,"midi":36,"time":80.2,"velocity":0.3937007874015748},{"duration":0.10000000000000853,"midi":36,"time":80.2,"velocity":0.3937007874015748},{"duration":0.10000000000000853,"midi":36,"time":80.2,"velocity":0.3937007874015748},{"duration":0.09999999999999432,"midi":49,"time":80.30000000000001,"velocity":0.3937007874015748},{"duration":0.09999999999999432,"midi":49,"time":80.30000000000001,"velocity":0.3937007874015748},{"duration":0.09999999999999432,"midi":49,"time":80.30000000000001,"velocity":0.3937007874015748},{"duration":0.10000000000000853,"midi":36,"time":80.5,"velocity":0.3937007874015748},{"duration":0.10000000000000853,"midi":36,"time":80.5,"velocity":0.3937007874015748},{"duration":0.10000000000000853,"midi":36,"time":80.5,"velocity":0.3937007874015748},{"duration":0.10000000000000853,"midi":36,"time":80.5,"velocity":0.3937007874015748},{"duration":0.10000000000000853,"midi":36,"time":80.5,"velocity":0.3937007874015748},{"duration":0.09999999999999432,"midi":38,"time":80.60000000000001,"velocity":0.3937007874015748},{"duration":0.09999999999999432,"midi":38,"time":80.60000000000001,"velocity":0.3937007874015748},{"duration":0.09999999999999432,"midi":38,"time":80.60000000000001,"velocity":0.3937007874015748},{"duration":0.09999999999999432,"midi":49,"time":80.60000000000001,"velocity":0.3937007874015748},{"duration":0.09999999999999432,"midi":38,"time":80.60000000000001,"velocity":0.3937007874015748},{"duration":0.09999999999999432,"midi":38,"time":80.60000000000001,"velocity":0.3937007874015748},{"duration":0.09999999999999432,"midi":36,"time":80.80000000000001,"velocity":0.3937007874015748},{"duration":0.09999999999999432,"midi":36,"time":80.80000000000001,"velocity":0.3937007874015748},{"duration":0.09999999999999432,"midi":36,"time":80.80000000000001,"velocity":0.3937007874015748},{"duration":0.09999999999999432,"midi":36,"time":80.80000000000001,"velocity":0.3937007874015748},{"duration":0.09999999999999432,"midi":36,"time":80.80000000000001,"velocity":0.3937007874015748},{"duration":0.09999999999999432,"midi":49,"time":80.9,"velocity":0.3937007874015748},{"duration":0.09999999999999432,"midi":49,"time":80.9,"velocity":0.3937007874015748},{"duration":0.09999999999999432,"midi":49,"time":80.9,"velocity":0.3937007874015748},{"duration":0.09999999999999432,"midi":36,"time":81.10000000000001,"velocity":0.3937007874015748},{"duration":0.09999999999999432,"midi":36,"time":81.10000000000001,"velocity":0.3937007874015748},{"duration":0.09999999999999432,"midi":36,"time":81.10000000000001,"velocity":0.3937007874015748},{"duration":0.09999999999999432,"midi":36,"time":81.10000000000001,"velocity":0.3937007874015748},{"duration":0.09999999999999432,"midi":36,"time":81.10000000000001,"velocity":0.3937007874015748},{"duration":0.10000000000000853,"midi":38,"time":81.2,"velocity":0.3937007874015748},{"duration":0.10000000000000853,"midi":38,"time":81.2,"velocity":0.3937007874015748},{"duration":0.10000000000000853,"midi":38,"time":81.2,"velocity":0.3937007874015748},{"duration":0.10000000000000853,"midi":38,"time":81.2,"velocity":0.3937007874015748},{"duration":0.10000000000000853,"midi":49,"time":81.2,"velocity":0.3937007874015748},{"duration":0.10000000000000853,"midi":38,"time":81.2,"velocity":0.3937007874015748},{"duration":0.09999999999999432,"midi":36,"time":81.4,"velocity":0.3937007874015748},{"duration":0.09999999999999432,"midi":36,"time":81.4,"velocity":0.3937007874015748},{"duration":0.09999999999999432,"midi":36,"time":81.4,"velocity":0.3937007874015748},{"duration":0.09999999999999432,"midi":36,"time":81.4,"velocity":0.3937007874015748},{"duration":0.09999999999999432,"midi":36,"time":81.4,"velocity":0.3937007874015748},{"duration":0.10000000000000853,"midi":49,"time":81.5,"velocity":0.3937007874015748},{"duration":0.10000000000000853,"midi":49,"time":81.5,"velocity":0.3937007874015748},{"duration":0.10000000000000853,"midi":49,"time":81.5,"velocity":0.3937007874015748},{"duration":0.4000000000000057,"midi":49,"time":81.5,"velocity":0.3937007874015748},{"duration":0.10000000000000853,"midi":36,"time":81.7,"velocity":0.3937007874015748},{"duration":0.10000000000000853,"midi":36,"time":81.7,"velocity":0.3937007874015748},{"duration":0.10000000000000853,"midi":36,"time":81.7,"velocity":0.3937007874015748},{"duration":0.10000000000000853,"midi":36,"time":81.7,"velocity":0.3937007874015748},{"duration":0.10000000000000853,"midi":36,"time":81.7,"velocity":0.3937007874015748},{"duration":0.09999999999999432,"midi":38,"time":81.80000000000001,"velocity":0.3937007874015748},{"duration":0.09999999999999432,"midi":38,"time":81.80000000000001,"velocity":0.3937007874015748},{"duration":0.3999999999999915,"midi":49,"time":81.80000000000001,"velocity":0.3937007874015748},{"duration":0.09999999999999432,"midi":38,"time":81.80000000000001,"velocity":0.3937007874015748},{"duration":0.09999999999999432,"midi":38,"time":81.80000000000001,"velocity":0.3937007874015748},{"duration":0.09999999999999432,"midi":38,"time":81.80000000000001,"velocity":0.3937007874015748},{"duration":0.10000000000000853,"midi":36,"time":82,"velocity":0.3937007874015748},{"duration":0.10000000000000853,"midi":36,"time":82,"velocity":0.3937007874015748},{"duration":0.10000000000000853,"midi":36,"time":82,"velocity":0.3937007874015748},{"duration":0.10000000000000853,"midi":36,"time":82,"velocity":0.3937007874015748},{"duration":0.10000000000000853,"midi":36,"time":82,"velocity":0.3937007874015748},{"duration":0.09999999999999432,"midi":49,"time":82.10000000000001,"velocity":0.3937007874015748},{"duration":0.09999999999999432,"midi":49,"time":82.10000000000001,"velocity":0.3937007874015748},{"duration":0.3999999999999915,"midi":49,"time":82.10000000000001,"velocity":0.3937007874015748},{"duration":0.09999999999999432,"midi":36,"time":82.30000000000001,"velocity":0.3937007874015748},{"duration":0.09999999999999432,"midi":36,"time":82.30000000000001,"velocity":0.3937007874015748},{"duration":0.09999999999999432,"midi":36,"time":82.30000000000001,"velocity":0.3937007874015748},{"duration":0.09999999999999432,"midi":36,"time":82.30000000000001,"velocity":0.3937007874015748},{"duration":0.09999999999999432,"midi":36,"time":82.30000000000001,"velocity":0.3937007874015748},{"duration":0.09999999999999432,"midi":38,"time":82.4,"velocity":0.3937007874015748},{"duration":0.09999999999999432,"midi":38,"time":82.4,"velocity":0.3937007874015748},{"duration":0.29999999999999716,"midi":49,"time":82.4,"velocity":0.3937007874015748},{"duration":0.09999999999999432,"midi":38,"time":82.4,"velocity":0.3937007874015748},{"duration":0.09999999999999432,"midi":38,"time":82.4,"velocity":0.3937007874015748},{"duration":0.09999999999999432,"midi":38,"time":82.4,"velocity":0.3937007874015748},{"duration":0.09999999999999432,"midi":36,"time":82.60000000000001,"velocity":0.3937007874015748},{"duration":0.09999999999999432,"midi":36,"time":82.60000000000001,"velocity":0.3937007874015748},{"duration":0.09999999999999432,"midi":36,"time":82.60000000000001,"velocity":0.3937007874015748},{"duration":0.09999999999999432,"midi":36,"time":82.60000000000001,"velocity":0.3937007874015748},{"duration":0.09999999999999432,"midi":36,"time":82.60000000000001,"velocity":0.3937007874015748},{"duration":0.10000000000000853,"midi":49,"time":82.7,"velocity":0.3937007874015748},{"duration":0.10000000000000853,"midi":49,"time":82.7,"velocity":0.3937007874015748},{"duration":0.10000000000000853,"midi":49,"time":82.7,"velocity":0.3937007874015748},{"duration":0.09999999999999432,"midi":36,"time":82.9,"velocity":0.3937007874015748},{"duration":0.09999999999999432,"midi":36,"time":82.9,"velocity":0.3937007874015748},{"duration":0.09999999999999432,"midi":36,"time":82.9,"velocity":0.3937007874015748},{"duration":0.09999999999999432,"midi":36,"time":82.9,"velocity":0.3937007874015748},{"duration":0.09999999999999432,"midi":36,"time":82.9,"velocity":0.3937007874015748},{"duration":0.10000000000000853,"midi":38,"time":83,"velocity":0.3937007874015748},{"duration":0.10000000000000853,"midi":38,"time":83,"velocity":0.3937007874015748},{"duration":0.10000000000000853,"midi":38,"time":83,"velocity":0.3937007874015748},{"duration":0.10000000000000853,"midi":38,"time":83,"velocity":0.3937007874015748},{"duration":0.10000000000000853,"midi":49,"time":83,"velocity":0.3937007874015748},{"duration":0.10000000000000853,"midi":38,"time":83,"velocity":0.3937007874015748},{"duration":0.10000000000000853,"midi":36,"time":83.2,"velocity":0.3937007874015748},{"duration":0.10000000000000853,"midi":36,"time":83.2,"velocity":0.3937007874015748},{"duration":0.10000000000000853,"midi":36,"time":83.2,"velocity":0.3937007874015748},{"duration":0.10000000000000853,"midi":36,"time":83.2,"velocity":0.3937007874015748},{"duration":0.10000000000000853,"midi":36,"time":83.2,"velocity":0.3937007874015748},{"duration":0.09999999999999432,"midi":49,"time":83.30000000000001,"velocity":0.3937007874015748},{"duration":0.09999999999999432,"midi":49,"time":83.30000000000001,"velocity":0.3937007874015748},{"duration":0.09999999999999432,"midi":49,"time":83.30000000000001,"velocity":0.3937007874015748},{"duration":0.10000000000000853,"midi":36,"time":83.5,"velocity":0.3937007874015748},{"duration":0.10000000000000853,"midi":36,"time":83.5,"velocity":0.3937007874015748},{"duration":0.10000000000000853,"midi":36,"time":83.5,"velocity":0.3937007874015748},{"duration":0.10000000000000853,"midi":36,"time":83.5,"velocity":0.3937007874015748},{"duration":0.10000000000000853,"midi":36,"time":83.5,"velocity":0.3937007874015748},{"duration":0.09999999999999432,"midi":38,"time":83.60000000000001,"velocity":0.3937007874015748},{"duration":0.09999999999999432,"midi":38,"time":83.60000000000001,"velocity":0.3937007874015748},{"duration":0.09999999999999432,"midi":38,"time":83.60000000000001,"velocity":0.3937007874015748},{"duration":0.09999999999999432,"midi":38,"time":83.60000000000001,"velocity":0.3937007874015748},{"duration":0.09999999999999432,"midi":49,"time":83.60000000000001,"velocity":0.3937007874015748},{"duration":0.09999999999999432,"midi":38,"time":83.60000000000001,"velocity":0.3937007874015748},{"duration":0.09999999999999432,"midi":36,"time":83.80000000000001,"velocity":0.3937007874015748},{"duration":0.09999999999999432,"midi":36,"time":83.80000000000001,"velocity":0.3937007874015748},{"duration":0.09999999999999432,"midi":36,"time":83.80000000000001,"velocity":0.3937007874015748},{"duration":0.09999999999999432,"midi":36,"time":83.80000000000001,"velocity":0.3937007874015748},{"duration":0.09999999999999432,"midi":36,"time":83.80000000000001,"velocity":0.3937007874015748},{"duration":0.09999999999999432,"midi":49,"time":83.9,"velocity":0.3937007874015748},{"duration":0.09999999999999432,"midi":49,"time":83.9,"velocity":0.3937007874015748},{"duration":0.09999999999999432,"midi":49,"time":83.9,"velocity":0.3937007874015748},{"duration":0.09999999999999432,"midi":36,"time":84.10000000000001,"velocity":0.3937007874015748},{"duration":0.09999999999999432,"midi":36,"time":84.10000000000001,"velocity":0.3937007874015748},{"duration":0.09999999999999432,"midi":36,"time":84.10000000000001,"velocity":0.3937007874015748},{"duration":0.09999999999999432,"midi":36,"time":84.10000000000001,"velocity":0.3937007874015748},{"duration":0.09999999999999432,"midi":36,"time":84.10000000000001,"velocity":0.3937007874015748},{"duration":0.10000000000000853,"midi":49,"time":84.2,"velocity":0.3937007874015748},{"duration":0.10000000000000853,"midi":38,"time":84.2,"velocity":0.3937007874015748},{"duration":0.10000000000000853,"midi":38,"time":84.2,"velocity":0.3937007874015748},{"duration":0.10000000000000853,"midi":49,"time":84.2,"velocity":0.3937007874015748},{"duration":0.10000000000000853,"midi":38,"time":84.2,"velocity":0.3937007874015748},{"duration":0.10000000000000853,"midi":49,"time":84.2,"velocity":0.3937007874015748},{"duration":0.10000000000000853,"midi":38,"time":84.2,"velocity":0.3937007874015748},{"duration":0.10000000000000853,"midi":38,"time":84.2,"velocity":0.3937007874015748},{"duration":0.10000000000000853,"midi":49,"time":84.2,"velocity":0.3937007874015748},{"duration":0.09999999999999432,"midi":49,"time":85.10000000000001,"velocity":0.3937007874015748},{"duration":0.09999999999999432,"midi":38,"time":85.10000000000001,"velocity":0.3937007874015748},{"duration":0.09999999999999432,"midi":38,"time":85.10000000000001,"velocity":0.3937007874015748},{"duration":0.09999999999999432,"midi":49,"time":85.10000000000001,"velocity":0.3937007874015748},{"duration":0.09999999999999432,"midi":38,"time":85.10000000000001,"velocity":0.3937007874015748},{"duration":0.09999999999999432,"midi":38,"time":85.10000000000001,"velocity":0.3937007874015748},{"duration":0.09999999999999432,"midi":49,"time":85.10000000000001,"velocity":0.3937007874015748},{"duration":0.09999999999999432,"midi":38,"time":85.10000000000001,"velocity":0.3937007874015748},{"duration":0.09999999999999432,"midi":35,"time":94.30000000000001,"velocity":0.3937007874015748},{"duration":0.09999999999999432,"midi":35,"time":94.30000000000001,"velocity":0.3937007874015748},{"duration":0.09999999999999432,"midi":35,"time":94.30000000000001,"velocity":0.3937007874015748},{"duration":0.09999999999999432,"midi":35,"time":94.30000000000001,"velocity":0.3937007874015748},{"duration":0.09999999999999432,"midi":35,"time":94.30000000000001,"velocity":0.3937007874015748},{"duration":0.09999999999999432,"midi":38,"time":94.4,"velocity":0.3937007874015748},{"duration":0.09999999999999432,"midi":38,"time":94.4,"velocity":0.3937007874015748},{"duration":0.09999999999999432,"midi":38,"time":94.4,"velocity":0.3937007874015748},{"duration":0.09999999999999432,"midi":38,"time":94.4,"velocity":0.3937007874015748},{"duration":0.09999999999999432,"midi":38,"time":94.4,"velocity":0.3937007874015748},{"duration":0.10000000000000853,"midi":49,"time":94.7,"velocity":0.3937007874015748},{"duration":0.10000000000000853,"midi":38,"time":95,"velocity":0.3937007874015748},{"duration":0.10000000000000853,"midi":38,"time":95,"velocity":0.3937007874015748},{"duration":0.10000000000000853,"midi":38,"time":95,"velocity":0.3937007874015748},{"duration":0.10000000000000853,"midi":49,"time":95,"velocity":0.3937007874015748},{"duration":0.10000000000000853,"midi":38,"time":95,"velocity":0.3937007874015748},{"duration":0.10000000000000853,"midi":38,"time":95,"velocity":0.3937007874015748},{"duration":0.09999999999999432,"midi":49,"time":95.30000000000001,"velocity":0.3937007874015748},{"duration":0.09999999999999432,"midi":38,"time":95.60000000000001,"velocity":0.3937007874015748},{"duration":0.09999999999999432,"midi":38,"time":95.60000000000001,"velocity":0.3937007874015748},{"duration":0.09999999999999432,"midi":49,"time":95.60000000000001,"velocity":0.3937007874015748},{"duration":0.09999999999999432,"midi":38,"time":95.60000000000001,"velocity":0.3937007874015748},{"duration":0.09999999999999432,"midi":38,"time":95.60000000000001,"velocity":0.3937007874015748},{"duration":0.09999999999999432,"midi":38,"time":95.60000000000001,"velocity":0.3937007874015748},{"duration":0.09999999999999432,"midi":49,"time":95.9,"velocity":0.3937007874015748},{"duration":0.10000000000000853,"midi":38,"time":96.2,"velocity":0.3937007874015748},{"duration":0.10000000000000853,"midi":38,"time":96.2,"velocity":0.3937007874015748},{"duration":0.10000000000000853,"midi":38,"time":96.2,"velocity":0.3937007874015748},{"duration":0.10000000000000853,"midi":49,"time":96.2,"velocity":0.3937007874015748},{"duration":0.10000000000000853,"midi":38,"time":96.2,"velocity":0.3937007874015748},{"duration":0.10000000000000853,"midi":38,"time":96.2,"velocity":0.3937007874015748},{"duration":0.10000000000000853,"midi":49,"time":96.5,"velocity":0.3937007874015748},{"duration":0.09999999999999432,"midi":38,"time":96.80000000000001,"velocity":0.3937007874015748},{"duration":0.09999999999999432,"midi":49,"time":96.80000000000001,"velocity":0.3937007874015748},{"duration":0.09999999999999432,"midi":38,"time":96.80000000000001,"velocity":0.3937007874015748},{"duration":0.09999999999999432,"midi":38,"time":96.80000000000001,"velocity":0.3937007874015748},{"duration":0.09999999999999432,"midi":38,"time":96.80000000000001,"velocity":0.3937007874015748},{"duration":0.09999999999999432,"midi":38,"time":96.80000000000001,"velocity":0.3937007874015748},{"duration":0.09999999999999432,"midi":49,"time":97.10000000000001,"velocity":0.3937007874015748},{"duration":0.09999999999999432,"midi":38,"time":97.4,"velocity":0.3937007874015748},{"duration":0.09999999999999432,"midi":38,"time":97.4,"velocity":0.3937007874015748},{"duration":0.09999999999999432,"midi":49,"time":97.4,"velocity":0.3937007874015748},{"duration":0.09999999999999432,"midi":38,"time":97.4,"velocity":0.3937007874015748},{"duration":0.09999999999999432,"midi":38,"time":97.4,"velocity":0.3937007874015748},{"duration":0.09999999999999432,"midi":38,"time":97.4,"velocity":0.3937007874015748},{"duration":0.10000000000000853,"midi":49,"time":97.7,"velocity":0.3937007874015748},{"duration":0.10000000000000853,"midi":38,"time":98,"velocity":0.3937007874015748},{"duration":0.10000000000000853,"midi":38,"time":98,"velocity":0.3937007874015748},{"duration":0.10000000000000853,"midi":38,"time":98,"velocity":0.3937007874015748},{"duration":0.10000000000000853,"midi":38,"time":98,"velocity":0.3937007874015748},{"duration":0.10000000000000853,"midi":38,"time":98,"velocity":0.3937007874015748},{"duration":0.10000000000000853,"midi":49,"time":98,"velocity":0.3937007874015748},{"duration":0.09999999999999432,"midi":49,"time":98.30000000000001,"velocity":0.3937007874015748},{"duration":0.09999999999999432,"midi":38,"time":98.60000000000001,"velocity":0.3937007874015748},{"duration":0.09999999999999432,"midi":38,"time":98.60000000000001,"velocity":0.3937007874015748},{"duration":0.09999999999999432,"midi":38,"time":98.60000000000001,"velocity":0.3937007874015748},{"duration":0.09999999999999432,"midi":38,"time":98.60000000000001,"velocity":0.3937007874015748},{"duration":0.09999999999999432,"midi":49,"time":98.60000000000001,"velocity":0.3937007874015748},{"duration":0.09999999999999432,"midi":38,"time":98.60000000000001,"velocity":0.3937007874015748},{"duration":0.09999999999999432,"midi":49,"time":98.9,"velocity":0.3937007874015748},{"duration":0.10000000000000853,"midi":38,"time":99.2,"velocity":0.3937007874015748},{"duration":0.10000000000000853,"midi":38,"time":99.2,"velocity":0.3937007874015748},{"duration":0.10000000000000853,"midi":38,"time":99.2,"velocity":0.3937007874015748},{"duration":0.10000000000000853,"midi":38,"time":99.2,"velocity":0.3937007874015748},{"duration":0.10000000000000853,"midi":49,"time":99.2,"velocity":0.3937007874015748},{"duration":0.10000000000000853,"midi":38,"time":99.2,"velocity":0.3937007874015748},{"duration":0.10000000000000853,"midi":49,"time":99.5,"velocity":0.3937007874015748},{"duration":0.09999999999999432,"midi":38,"time":99.80000000000001,"velocity":0.3937007874015748},{"duration":0.09999999999999432,"midi":38,"time":99.80000000000001,"velocity":0.3937007874015748},{"duration":0.09999999999999432,"midi":38,"time":99.80000000000001,"velocity":0.3937007874015748},{"duration":0.09999999999999432,"midi":49,"time":99.80000000000001,"velocity":0.3937007874015748},{"duration":0.09999999999999432,"midi":38,"time":99.80000000000001,"velocity":0.3937007874015748},{"duration":0.09999999999999432,"midi":38,"time":99.80000000000001,"velocity":0.3937007874015748},{"duration":0.09999999999999432,"midi":49,"time":100.10000000000001,"velocity":0.3937007874015748},{"duration":0.09999999999999432,"midi":38,"time":100.4,"velocity":0.3937007874015748},{"duration":0.09999999999999432,"midi":38,"time":100.4,"velocity":0.3937007874015748},{"duration":0.09999999999999432,"midi":38,"time":100.4,"velocity":0.3937007874015748},{"duration":0.09999999999999432,"midi":38,"time":100.4,"velocity":0.3937007874015748},{"duration":0.09999999999999432,"midi":38,"time":100.4,"velocity":0.3937007874015748},{"duration":0.09999999999999432,"midi":49,"time":100.4,"velocity":0.3937007874015748},{"duration":0.10000000000000853,"midi":49,"time":100.7,"velocity":0.3937007874015748},{"duration":0.10000000000000853,"midi":49,"time":101,"velocity":0.3937007874015748},{"duration":0.10000000000000853,"midi":38,"time":101,"velocity":0.3937007874015748},{"duration":0.10000000000000853,"midi":38,"time":101,"velocity":0.3937007874015748},{"duration":0.10000000000000853,"midi":38,"time":101,"velocity":0.3937007874015748},{"duration":0.10000000000000853,"midi":38,"time":101,"velocity":0.3937007874015748},{"duration":0.10000000000000853,"midi":38,"time":101,"velocity":0.3937007874015748},{"duration":0.09999999999999432,"midi":49,"time":101.30000000000001,"velocity":0.3937007874015748},{"duration":0.09999999999999432,"midi":38,"time":101.60000000000001,"velocity":0.3937007874015748},{"duration":0.09999999999999432,"midi":38,"time":101.60000000000001,"velocity":0.3937007874015748},{"duration":0.09999999999999432,"midi":38,"time":101.60000000000001,"velocity":0.3937007874015748},{"duration":0.09999999999999432,"midi":38,"time":101.60000000000001,"velocity":0.3937007874015748},{"duration":0.09999999999999432,"midi":38,"time":101.60000000000001,"velocity":0.3937007874015748},{"duration":0.09999999999999432,"midi":49,"time":101.60000000000001,"velocity":0.3937007874015748},{"duration":0.09999999999999432,"midi":49,"time":101.9,"velocity":0.3937007874015748},{"duration":0.10000000000000853,"midi":49,"time":102.2,"velocity":0.3937007874015748},{"duration":0.10000000000000853,"midi":38,"time":102.2,"velocity":0.3937007874015748},{"duration":0.10000000000000853,"midi":38,"time":102.2,"velocity":0.3937007874015748},{"duration":0.10000000000000853,"midi":38,"time":102.2,"velocity":0.3937007874015748},{"duration":0.10000000000000853,"midi":38,"time":102.2,"velocity":0.3937007874015748},{"duration":0.10000000000000853,"midi":38,"time":102.2,"velocity":0.3937007874015748},{"duration":0.10000000000000853,"midi":49,"time":102.5,"velocity":0.3937007874015748},{"duration":0.09999999999999432,"midi":49,"time":102.80000000000001,"velocity":0.3937007874015748},{"duration":0.09999999999999432,"midi":38,"time":102.80000000000001,"velocity":0.3937007874015748},{"duration":0.09999999999999432,"midi":38,"time":102.80000000000001,"velocity":0.3937007874015748},{"duration":0.09999999999999432,"midi":38,"time":102.80000000000001,"velocity":0.3937007874015748},{"duration":0.09999999999999432,"midi":38,"time":102.80000000000001,"velocity":0.3937007874015748},{"duration":0.09999999999999432,"midi":38,"time":102.80000000000001,"velocity":0.3937007874015748},{"duration":0.09999999999999432,"midi":49,"time":103.10000000000001,"velocity":0.3937007874015748},{"duration":0.09999999999999432,"midi":38,"time":103.4,"velocity":0.3937007874015748},{"duration":0.09999999999999432,"midi":38,"time":103.4,"velocity":0.3937007874015748},{"duration":0.09999999999999432,"midi":38,"time":103.4,"velocity":0.3937007874015748},{"duration":0.09999999999999432,"midi":38,"time":103.4,"velocity":0.3937007874015748},{"duration":0.09999999999999432,"midi":38,"time":103.4,"velocity":0.3937007874015748},{"duration":0.09999999999999432,"midi":49,"time":103.4,"velocity":0.3937007874015748},{"duration":0.09999999999999432,"midi":38,"time":103.60000000000001,"velocity":0.3937007874015748},{"duration":0.09999999999999432,"midi":38,"time":103.60000000000001,"velocity":0.3937007874015748},{"duration":0.09999999999999432,"midi":38,"time":103.60000000000001,"velocity":0.3937007874015748},{"duration":0.09999999999999432,"midi":38,"time":103.60000000000001,"velocity":0.3937007874015748},{"duration":0.09999999999999432,"midi":38,"time":103.60000000000001,"velocity":0.3937007874015748},{"duration":0.09999999999999432,"midi":49,"time":103.60000000000001,"velocity":0.3937007874015748},{"duration":0.10000000000000853,"midi":49,"time":103.7,"velocity":0.3937007874015748},{"duration":0.10000000000000853,"midi":38,"time":103.7,"velocity":0.3937007874015748},{"duration":0.10000000000000853,"midi":38,"time":103.7,"velocity":0.3937007874015748},{"duration":0.10000000000000853,"midi":38,"time":103.7,"velocity":0.3937007874015748},{"duration":0.10000000000000853,"midi":38,"time":103.7,"velocity":0.3937007874015748},{"duration":0.10000000000000853,"midi":38,"time":103.7,"velocity":0.3937007874015748},{"duration":0.09999999999999432,"midi":38,"time":103.80000000000001,"velocity":0.3937007874015748},{"duration":0.09999999999999432,"midi":38,"time":103.80000000000001,"velocity":0.3937007874015748},{"duration":0.09999999999999432,"midi":49,"time":103.80000000000001,"velocity":0.3937007874015748},{"duration":0.09999999999999432,"midi":38,"time":103.80000000000001,"velocity":0.3937007874015748},{"duration":0.09999999999999432,"midi":38,"time":103.80000000000001,"velocity":0.3937007874015748},{"duration":0.09999999999999432,"midi":38,"time":103.80000000000001,"velocity":0.3937007874015748},{"duration":0.09999999999999432,"midi":38,"time":103.9,"velocity":0.3937007874015748},{"duration":0.09999999999999432,"midi":38,"time":103.9,"velocity":0.3937007874015748},{"duration":0.09999999999999432,"midi":38,"time":103.9,"velocity":0.3937007874015748},{"duration":0.09999999999999432,"midi":38,"time":103.9,"velocity":0.3937007874015748},{"duration":0.09999999999999432,"midi":49,"time":103.9,"velocity":0.3937007874015748},{"duration":0.09999999999999432,"midi":38,"time":103.9,"velocity":0.3937007874015748},{"duration":0.10000000000000853,"midi":49,"time":104,"velocity":0.3937007874015748},{"duration":0.10000000000000853,"midi":38,"time":104,"velocity":0.3937007874015748},{"duration":0.10000000000000853,"midi":38,"time":104,"velocity":0.3937007874015748},{"duration":0.10000000000000853,"midi":38,"time":104,"velocity":0.3937007874015748},{"duration":0.10000000000000853,"midi":38,"time":104,"velocity":0.3937007874015748},{"duration":0.10000000000000853,"midi":38,"time":104,"velocity":0.3937007874015748},{"duration":0.09999999999999432,"midi":38,"time":104.10000000000001,"velocity":0.3937007874015748},{"duration":0.09999999999999432,"midi":38,"time":104.10000000000001,"velocity":0.3937007874015748},{"duration":0.09999999999999432,"midi":38,"time":104.10000000000001,"velocity":0.3937007874015748},{"duration":0.09999999999999432,"midi":38,"time":104.10000000000001,"velocity":0.3937007874015748},{"duration":0.09999999999999432,"midi":49,"time":104.10000000000001,"velocity":0.3937007874015748},{"duration":0.09999999999999432,"midi":38,"time":104.10000000000001,"velocity":0.3937007874015748},{"duration":0.10000000000000853,"midi":38,"time":104.2,"velocity":0.3937007874015748},{"duration":0.10000000000000853,"midi":38,"time":104.2,"velocity":0.3937007874015748},{"duration":0.10000000000000853,"midi":38,"time":104.2,"velocity":0.3937007874015748},{"duration":0.10000000000000853,"midi":49,"time":104.2,"velocity":0.3937007874015748},{"duration":0.10000000000000853,"midi":38,"time":104.2,"velocity":0.3937007874015748},{"duration":0.10000000000000853,"midi":49,"time":104.2,"velocity":0.3937007874015748},{"duration":0.10000000000000853,"midi":38,"time":104.2,"velocity":0.3937007874015748},{"duration":0.09999999999999432,"midi":38,"time":104.80000000000001,"velocity":0.3937007874015748},{"duration":0.09999999999999432,"midi":38,"time":104.80000000000001,"velocity":0.3937007874015748},{"duration":0.09999999999999432,"midi":49,"time":104.80000000000001,"velocity":0.3937007874015748},{"duration":0.09999999999999432,"midi":38,"time":104.80000000000001,"velocity":0.3937007874015748},{"duration":0.09999999999999432,"midi":38,"time":104.80000000000001,"velocity":0.3937007874015748},{"duration":0.09999999999999432,"midi":49,"time":104.80000000000001,"velocity":0.3937007874015748},{"duration":0.09999999999999432,"midi":38,"time":104.80000000000001,"velocity":0.3937007874015748},{"duration":0.09999999999999432,"midi":38,"time":105.4,"velocity":0.3937007874015748},{"duration":0.09999999999999432,"midi":49,"time":105.4,"velocity":0.3937007874015748},{"duration":0.09999999999999432,"midi":38,"time":105.4,"velocity":0.3937007874015748},{"duration":0.09999999999999432,"midi":38,"time":105.4,"velocity":0.3937007874015748},{"duration":0.09999999999999432,"midi":38,"time":105.4,"velocity":0.3937007874015748},{"duration":0.09999999999999432,"midi":38,"time":105.4,"velocity":0.3937007874015748},{"duration":0.09999999999999432,"midi":49,"time":105.4,"velocity":0.3937007874015748},{"duration":0.10000000000000853,"midi":38,"time":105.7,"velocity":0.3937007874015748},{"duration":0.10000000000000853,"midi":38,"time":105.7,"velocity":0.3937007874015748},{"duration":0.10000000000000853,"midi":38,"time":105.7,"velocity":0.3937007874015748},{"duration":0.10000000000000853,"midi":38,"time":105.7,"velocity":0.3937007874015748},{"duration":0.10000000000000853,"midi":38,"time":105.7,"velocity":0.3937007874015748},{"duration":0.09999999999999432,"midi":49,"time":106.10000000000001,"velocity":0.3937007874015748},{"duration":0.09999999999999432,"midi":38,"time":106.10000000000001,"velocity":0.3937007874015748},{"duration":0.09999999999999432,"midi":49,"time":106.10000000000001,"velocity":0.3937007874015748},{"duration":0.09999999999999432,"midi":38,"time":106.10000000000001,"velocity":0.3937007874015748},{"duration":0.09999999999999432,"midi":38,"time":106.10000000000001,"velocity":0.3937007874015748},{"duration":0.09999999999999432,"midi":38,"time":106.10000000000001,"velocity":0.3937007874015748},{"duration":0.09999999999999432,"midi":38,"time":106.10000000000001,"velocity":0.3937007874015748},{"duration":0.09999999999999432,"midi":38,"time":106.4,"velocity":0.3937007874015748},{"duration":0.09999999999999432,"midi":38,"time":106.4,"velocity":0.3937007874015748},{"duration":0.09999999999999432,"midi":38,"time":106.4,"velocity":0.3937007874015748},{"duration":0.09999999999999432,"midi":38,"time":106.4,"velocity":0.3937007874015748},{"duration":0.09999999999999432,"midi":38,"time":106.4,"velocity":0.3937007874015748},{"duration":0.10000000000000853,"midi":38,"time":106.7,"velocity":0.3937007874015748},{"duration":0.10000000000000853,"midi":49,"time":106.7,"velocity":0.3937007874015748},{"duration":0.10000000000000853,"midi":38,"time":106.7,"velocity":0.3937007874015748},{"duration":0.10000000000000853,"midi":38,"time":106.7,"velocity":0.3937007874015748},{"duration":0.10000000000000853,"midi":49,"time":106.7,"velocity":0.3937007874015748},{"duration":0.10000000000000853,"midi":38,"time":106.7,"velocity":0.3937007874015748},{"duration":0.10000000000000853,"midi":38,"time":106.7,"velocity":0.3937007874015748},{"duration":0.10000000000000853,"midi":38,"time":107,"velocity":0.3937007874015748},{"duration":0.10000000000000853,"midi":38,"time":107,"velocity":0.3937007874015748},{"duration":0.10000000000000853,"midi":38,"time":107,"velocity":0.3937007874015748},{"duration":0.10000000000000853,"midi":38,"time":107,"velocity":0.3937007874015748},{"duration":0.10000000000000853,"midi":38,"time":107,"velocity":0.3937007874015748},{"duration":0.09999999999999432,"midi":38,"time":107.30000000000001,"velocity":0.3937007874015748},{"duration":0.09999999999999432,"midi":38,"time":107.30000000000001,"velocity":0.3937007874015748},{"duration":0.09999999999999432,"midi":38,"time":107.30000000000001,"velocity":0.3937007874015748},{"duration":0.09999999999999432,"midi":49,"time":107.30000000000001,"velocity":0.3937007874015748},{"duration":0.09999999999999432,"midi":38,"time":107.30000000000001,"velocity":0.3937007874015748},{"duration":0.09999999999999432,"midi":49,"time":107.30000000000001,"velocity":0.3937007874015748},{"duration":0.09999999999999432,"midi":38,"time":107.30000000000001,"velocity":0.3937007874015748},{"duration":0.09999999999999432,"midi":38,"time":107.60000000000001,"velocity":0.3937007874015748},{"duration":0.09999999999999432,"midi":38,"time":107.60000000000001,"velocity":0.3937007874015748},{"duration":0.09999999999999432,"midi":38,"time":107.60000000000001,"velocity":0.3937007874015748},{"duration":0.09999999999999432,"midi":38,"time":107.60000000000001,"velocity":0.3937007874015748},{"duration":0.09999999999999432,"midi":38,"time":107.60000000000001,"velocity":0.3937007874015748},{"duration":0.09999999999999432,"midi":49,"time":107.9,"velocity":0.3937007874015748},{"duration":0.09999999999999432,"midi":49,"time":107.9,"velocity":0.3937007874015748},{"duration":0.09999999999999432,"midi":48,"time":108.10000000000001,"velocity":0.3937007874015748},{"duration":0.09999999999999432,"midi":48,"time":108.10000000000001,"velocity":0.3937007874015748},{"duration":0.09999999999999432,"midi":48,"time":108.10000000000001,"velocity":0.3937007874015748},{"duration":0.09999999999999432,"midi":48,"time":108.10000000000001,"velocity":0.3937007874015748},{"duration":0.09999999999999432,"midi":48,"time":108.10000000000001,"velocity":0.3937007874015748},{"duration":0.10000000000000853,"midi":47,"time":108.2,"velocity":0.3937007874015748},{"duration":0.10000000000000853,"midi":47,"time":108.2,"velocity":0.3937007874015748},{"duration":0.10000000000000853,"midi":47,"time":108.2,"velocity":0.3937007874015748},{"duration":0.10000000000000853,"midi":47,"time":108.2,"velocity":0.3937007874015748},{"duration":0.10000000000000853,"midi":47,"time":108.2,"velocity":0.3937007874015748},{"duration":0.10000000000000853,"midi":48,"time":108.5,"velocity":0.3937007874015748},{"duration":0.10000000000000853,"midi":48,"time":108.5,"velocity":0.3937007874015748},{"duration":0.10000000000000853,"midi":48,"time":108.5,"velocity":0.3937007874015748},{"duration":0.10000000000000853,"midi":48,"time":108.5,"velocity":0.3937007874015748},{"duration":0.10000000000000853,"midi":48,"time":108.5,"velocity":0.3937007874015748},{"duration":0.10000000000000853,"midi":47,"time":108.7,"velocity":0.3937007874015748},{"duration":0.10000000000000853,"midi":47,"time":108.7,"velocity":0.3937007874015748},{"duration":0.10000000000000853,"midi":47,"time":108.7,"velocity":0.3937007874015748},{"duration":0.10000000000000853,"midi":47,"time":108.7,"velocity":0.3937007874015748},{"duration":0.10000000000000853,"midi":47,"time":108.7,"velocity":0.3937007874015748},{"duration":0.09999999999999432,"midi":35,"time":109.10000000000001,"velocity":0.3937007874015748},{"duration":0.09999999999999432,"midi":35,"time":109.10000000000001,"velocity":0.3937007874015748},{"duration":0.09999999999999432,"midi":35,"time":109.10000000000001,"velocity":0.3937007874015748},{"duration":0.09999999999999432,"midi":35,"time":109.10000000000001,"velocity":0.3937007874015748},{"duration":0.09999999999999432,"midi":40,"time":109.10000000000001,"velocity":0.3937007874015748},{"duration":0.09999999999999432,"midi":40,"time":109.10000000000001,"velocity":0.3937007874015748},{"duration":0.09999999999999432,"midi":51,"time":109.10000000000001,"velocity":0.3937007874015748},{"duration":0.09999999999999432,"midi":49,"time":109.10000000000001,"velocity":0.3937007874015748},{"duration":0.09999999999999432,"midi":40,"time":109.10000000000001,"velocity":0.3937007874015748},{"duration":0.09999999999999432,"midi":38,"time":109.10000000000001,"velocity":0.3937007874015748},{"duration":0.09999999999999432,"midi":38,"time":109.10000000000001,"velocity":0.3937007874015748},{"duration":0.09999999999999432,"midi":35,"time":109.10000000000001,"velocity":0.3937007874015748},{"duration":0.09999999999999432,"midi":38,"time":109.10000000000001,"velocity":0.3937007874015748},{"duration":0.09999999999999432,"midi":40,"time":109.10000000000001,"velocity":0.3937007874015748},{"duration":0.09999999999999432,"midi":38,"time":109.10000000000001,"velocity":0.3937007874015748},{"duration":0.10000000000000853,"midi":40,"time":109.7,"velocity":0.3937007874015748},{"duration":0.10000000000000853,"midi":38,"time":109.7,"velocity":0.3937007874015748},{"duration":0.10000000000000853,"midi":35,"time":109.7,"velocity":0.3937007874015748},{"duration":0.10000000000000853,"midi":40,"time":109.7,"velocity":0.3937007874015748},{"duration":0.10000000000000853,"midi":35,"time":109.7,"velocity":0.3937007874015748},{"duration":0.10000000000000853,"midi":35,"time":109.7,"velocity":0.3937007874015748},{"duration":0.10000000000000853,"midi":35,"time":109.7,"velocity":0.3937007874015748},{"duration":0.10000000000000853,"midi":38,"time":109.7,"velocity":0.3937007874015748},{"duration":0.10000000000000853,"midi":40,"time":109.7,"velocity":0.3937007874015748},{"duration":0.10000000000000853,"midi":51,"time":109.7,"velocity":0.3937007874015748},{"duration":0.10000000000000853,"midi":49,"time":109.7,"velocity":0.3937007874015748},{"duration":0.10000000000000853,"midi":40,"time":109.7,"velocity":0.3937007874015748},{"duration":0.10000000000000853,"midi":38,"time":109.7,"velocity":0.3937007874015748},{"duration":0.10000000000000853,"midi":35,"time":109.7,"velocity":0.3937007874015748},{"duration":0.10000000000000853,"midi":38,"time":109.7,"velocity":0.3937007874015748},{"duration":0.09999999999999432,"midi":40,"time":110.30000000000001,"velocity":0.3937007874015748},{"duration":0.09999999999999432,"midi":49,"time":110.30000000000001,"velocity":0.3937007874015748},{"duration":0.09999999999999432,"midi":51,"time":110.30000000000001,"velocity":0.3937007874015748},{"duration":0.09999999999999432,"midi":35,"time":110.30000000000001,"velocity":0.3937007874015748},{"duration":0.09999999999999432,"midi":35,"time":110.30000000000001,"velocity":0.3937007874015748},{"duration":0.09999999999999432,"midi":38,"time":110.30000000000001,"velocity":0.3937007874015748},{"duration":0.09999999999999432,"midi":35,"time":110.30000000000001,"velocity":0.3937007874015748},{"duration":0.09999999999999432,"midi":35,"time":110.30000000000001,"velocity":0.3937007874015748},{"duration":0.09999999999999432,"midi":40,"time":110.30000000000001,"velocity":0.3937007874015748},{"duration":0.09999999999999432,"midi":38,"time":110.30000000000001,"velocity":0.3937007874015748},{"duration":0.09999999999999432,"midi":38,"time":110.30000000000001,"velocity":0.3937007874015748},{"duration":0.09999999999999432,"midi":40,"time":110.30000000000001,"velocity":0.3937007874015748},{"duration":0.09999999999999432,"midi":38,"time":110.30000000000001,"velocity":0.3937007874015748},{"duration":0.09999999999999432,"midi":35,"time":110.30000000000001,"velocity":0.3937007874015748},{"duration":0.09999999999999432,"midi":40,"time":110.30000000000001,"velocity":0.3937007874015748},{"duration":0.09999999999999432,"midi":35,"time":110.9,"velocity":0.3937007874015748},{"duration":0.09999999999999432,"midi":35,"time":110.9,"velocity":0.3937007874015748},{"duration":0.09999999999999432,"midi":38,"time":110.9,"velocity":0.3937007874015748},{"duration":0.09999999999999432,"midi":35,"time":110.9,"velocity":0.3937007874015748},{"duration":0.09999999999999432,"midi":49,"time":110.9,"velocity":0.3937007874015748},{"duration":0.09999999999999432,"midi":35,"time":110.9,"velocity":0.3937007874015748},{"duration":0.09999999999999432,"midi":40,"time":110.9,"velocity":0.3937007874015748},{"duration":0.09999999999999432,"midi":35,"time":110.9,"velocity":0.3937007874015748},{"duration":0.09999999999999432,"midi":38,"time":110.9,"velocity":0.3937007874015748},{"duration":0.09999999999999432,"midi":40,"time":110.9,"velocity":0.3937007874015748},{"duration":0.09999999999999432,"midi":40,"time":110.9,"velocity":0.3937007874015748},{"duration":0.09999999999999432,"midi":38,"time":110.9,"velocity":0.3937007874015748},{"duration":0.09999999999999432,"midi":38,"time":110.9,"velocity":0.3937007874015748},{"duration":0.09999999999999432,"midi":51,"time":110.9,"velocity":0.3937007874015748},{"duration":0.09999999999999432,"midi":40,"time":110.9,"velocity":0.3937007874015748},{"duration":0.09999999999999432,"midi":40,"time":111.4,"velocity":0.3937007874015748},{"duration":0.09999999999999432,"midi":38,"time":111.4,"velocity":0.3937007874015748},{"duration":0.09999999999999432,"midi":40,"time":111.4,"velocity":0.3937007874015748},{"duration":0.09999999999999432,"midi":51,"time":111.4,"velocity":0.3937007874015748},{"duration":0.09999999999999432,"midi":35,"time":111.4,"velocity":0.3937007874015748},{"duration":0.09999999999999432,"midi":38,"time":111.4,"velocity":0.3937007874015748},{"duration":0.09999999999999432,"midi":38,"time":111.4,"velocity":0.3937007874015748},{"duration":0.09999999999999432,"midi":35,"time":111.4,"velocity":0.3937007874015748},{"duration":0.09999999999999432,"midi":49,"time":111.4,"velocity":0.3937007874015748},{"duration":0.09999999999999432,"midi":35,"time":111.4,"velocity":0.3937007874015748},{"duration":0.09999999999999432,"midi":35,"time":111.4,"velocity":0.3937007874015748},{"duration":0.09999999999999432,"midi":38,"time":111.4,"velocity":0.3937007874015748},{"duration":0.09999999999999432,"midi":35,"time":111.4,"velocity":0.3937007874015748},{"duration":0.09999999999999432,"midi":40,"time":111.4,"velocity":0.3937007874015748},{"duration":0.09999999999999432,"midi":40,"time":111.4,"velocity":0.3937007874015748},{"duration":0.10000000000000853,"midi":48,"time":111.7,"velocity":0.3937007874015748},{"duration":0.10000000000000853,"midi":48,"time":111.7,"velocity":0.3937007874015748},{"duration":0.10000000000000853,"midi":48,"time":111.7,"velocity":0.3937007874015748},{"duration":0.10000000000000853,"midi":48,"time":111.7,"velocity":0.3937007874015748},{"duration":0.10000000000000853,"midi":48,"time":111.7,"velocity":0.3937007874015748},{"duration":0.09999999999999432,"midi":47,"time":111.80000000000001,"velocity":0.3937007874015748},{"duration":0.09999999999999432,"midi":47,"time":111.80000000000001,"velocity":0.3937007874015748},{"duration":0.09999999999999432,"midi":47,"time":111.80000000000001,"velocity":0.3937007874015748},{"duration":0.09999999999999432,"midi":47,"time":111.80000000000001,"velocity":0.3937007874015748},{"duration":0.09999999999999432,"midi":47,"time":111.80000000000001,"velocity":0.3937007874015748},{"duration":0.09999999999999432,"midi":48,"time":112.10000000000001,"velocity":0.3937007874015748},{"duration":0.09999999999999432,"midi":48,"time":112.10000000000001,"velocity":0.3937007874015748},{"duration":0.09999999999999432,"midi":48,"time":112.10000000000001,"velocity":0.3937007874015748},{"duration":0.09999999999999432,"midi":48,"time":112.10000000000001,"velocity":0.3937007874015748},{"duration":0.09999999999999432,"midi":48,"time":112.10000000000001,"velocity":0.3937007874015748},{"duration":0.09999999999999432,"midi":47,"time":112.4,"velocity":0.3937007874015748},{"duration":0.09999999999999432,"midi":47,"time":112.4,"velocity":0.3937007874015748},{"duration":0.09999999999999432,"midi":47,"time":112.4,"velocity":0.3937007874015748},{"duration":0.09999999999999432,"midi":47,"time":112.4,"velocity":0.3937007874015748},{"duration":0.09999999999999432,"midi":47,"time":112.4,"velocity":0.3937007874015748}]},{"instrument":{"family":"synth lead","number":80,"name":"lead 1 (square)"},"notes":[{"duration":0.10000000000000142,"midi":64,"time":39.5,"velocity":0.3937007874015748},{"duration":0.10000000000000142,"midi":66,"time":40,"velocity":0.3937007874015748},{"duration":0.10000000000000142,"midi":63,"time":40.7,"velocity":0.3937007874015748},{"duration":0.10000000000000142,"midi":71,"time":41.2,"velocity":0.3937007874015748},{"duration":0.09999999999999432,"midi":61,"time":41.900000000000006,"velocity":0.3937007874015748},{"duration":0.09999999999999432,"midi":63,"time":42.400000000000006,"velocity":0.3937007874015748},{"duration":0.10000000000000142,"midi":68,"time":43.1,"velocity":0.3937007874015748},{"duration":0.10000000000000142,"midi":63,"time":43.6,"velocity":0.3937007874015748},{"duration":0.09999999999999432,"midi":63,"time":43.900000000000006,"velocity":0.3937007874015748},{"duration":0.10000000000000142,"midi":63,"time":44.2,"velocity":0.3937007874015748},{"duration":0.10000000000000142,"midi":64,"time":44.300000000000004,"velocity":0.3937007874015748}]},{"instrument":{"family":"synth lead","number":87,"name":"lead 8 (bass + lead)"},"notes":[{"duration":0.10000000000000142,"midi":68,"time":23.1,"velocity":0.3937007874015748},{"duration":0.10000000000000142,"midi":63,"time":23.3,"velocity":0.3937007874015748},{"duration":0.09999999999999787,"midi":61,"time":23.400000000000002,"velocity":0.3937007874015748},{"duration":0.10000000000000142,"midi":59,"time":23.6,"velocity":0.3937007874015748},{"duration":0.09999999999999787,"midi":56,"time":23.700000000000003,"velocity":0.3937007874015748},{"duration":0.09999999999999787,"midi":54,"time":23.900000000000002,"velocity":0.3937007874015748},{"duration":0.09999999999999787,"midi":55,"time":24.200000000000003,"velocity":0.3937007874015748},{"duration":0.09999999999999787,"midi":68,"time":27.900000000000002,"velocity":0.3937007874015748},{"duration":0.10000000000000142,"midi":63,"time":28.1,"velocity":0.3937007874015748},{"duration":0.09999999999999787,"midi":61,"time":28.200000000000003,"velocity":0.3937007874015748},{"duration":0.09999999999999787,"midi":63,"time":28.400000000000002,"velocity":0.3937007874015748},{"duration":0.10000000000000142,"midi":61,"time":28.5,"velocity":0.3937007874015748},{"duration":0.09999999999999787,"midi":56,"time":28.700000000000003,"velocity":0.3937007874015748},{"duration":0.10000000000000142,"midi":59,"time":28.8,"velocity":0.3937007874015748},{"duration":0.3000000000000007,"midi":56,"time":30,"velocity":0.3937007874015748},{"duration":0.3000000000000007,"midi":54,"time":30.3,"velocity":0.3937007874015748},{"duration":0.1999999999999993,"midi":56,"time":30.6,"velocity":0.3937007874015748},{"duration":0.3000000000000007,"midi":59,"time":30.8,"velocity":0.3937007874015748},{"duration":0.3000000000000007,"midi":56,"time":31.1,"velocity":0.3937007874015748},{"duration":0.09999999999999787,"midi":56,"time":31.400000000000002,"velocity":0.3937007874015748},{"duration":0.3000000000000007,"midi":54,"time":31.5,"velocity":0.3937007874015748},{"duration":0.3000000000000007,"midi":51,"time":31.8,"velocity":0.3937007874015748},{"duration":0.29999999999999716,"midi":49,"time":32.1,"velocity":0.3937007874015748},{"duration":0.20000000000000284,"midi":51,"time":32.4,"velocity":0.3937007874015748},{"duration":0.20000000000000284,"midi":56,"time":32.6,"velocity":0.3937007874015748},{"duration":0.20000000000000284,"midi":59,"time":32.9,"velocity":0.3937007874015748},{"duration":1.3000000000000043,"midi":56,"time":33.5,"velocity":0.3937007874015748},{"duration":0.10000000000000142,"midi":52,"time":39.5,"velocity":0.3937007874015748},{"duration":0.10000000000000142,"midi":52,"time":39.5,"velocity":0.3937007874015748},{"duration":0.10000000000000142,"midi":52,"time":39.5,"velocity":0.3937007874015748},{"duration":0.10000000000000142,"midi":51,"time":39.7,"velocity":0.3937007874015748},{"duration":0.10000000000000142,"midi":51,"time":39.7,"velocity":0.3937007874015748},{"duration":0.10000000000000142,"midi":51,"time":39.7,"velocity":0.3937007874015748},{"duration":0.10000000000000142,"midi":52,"time":39.800000000000004,"velocity":0.3937007874015748},{"duration":0.10000000000000142,"midi":52,"time":39.800000000000004,"velocity":0.3937007874015748},{"duration":0.10000000000000142,"midi":52,"time":39.800000000000004,"velocity":0.3937007874015748},{"duration":0.10000000000000142,"midi":54,"time":40,"velocity":0.3937007874015748},{"duration":0.10000000000000142,"midi":54,"time":40,"velocity":0.3937007874015748},{"duration":0.10000000000000142,"midi":54,"time":40,"velocity":0.3937007874015748},{"duration":0.10000000000000142,"midi":56,"time":40.1,"velocity":0.3937007874015748},{"duration":0.10000000000000142,"midi":56,"time":40.1,"velocity":0.3937007874015748},{"duration":0.10000000000000142,"midi":56,"time":40.1,"velocity":0.3937007874015748},{"duration":0.10000000000000142,"midi":58,"time":40.300000000000004,"velocity":0.3937007874015748},{"duration":0.10000000000000142,"midi":58,"time":40.300000000000004,"velocity":0.3937007874015748},{"duration":0.10000000000000142,"midi":58,"time":40.300000000000004,"velocity":0.3937007874015748},{"duration":0.09999999999999432,"midi":59,"time":40.400000000000006,"velocity":0.3937007874015748},{"duration":0.09999999999999432,"midi":59,"time":40.400000000000006,"velocity":0.3937007874015748},{"duration":0.09999999999999432,"midi":59,"time":40.400000000000006,"velocity":0.3937007874015748},{"duration":0.10000000000000142,"midi":56,"time":40.6,"velocity":0.3937007874015748},{"duration":0.10000000000000142,"midi":56,"time":40.6,"velocity":0.3937007874015748},{"duration":0.10000000000000142,"midi":56,"time":40.6,"velocity":0.3937007874015748},{"duration":0.10000000000000142,"midi":58,"time":40.7,"velocity":0.3937007874015748},{"duration":0.10000000000000142,"midi":58,"time":40.7,"velocity":0.3937007874015748},{"duration":0.10000000000000142,"midi":58,"time":40.7,"velocity":0.3937007874015748},{"duration":0.09999999999999432,"midi":54,"time":40.900000000000006,"velocity":0.3937007874015748},{"duration":0.09999999999999432,"midi":54,"time":40.900000000000006,"velocity":0.3937007874015748},{"duration":0.09999999999999432,"midi":54,"time":40.900000000000006,"velocity":0.3937007874015748},{"duration":0.10000000000000142,"midi":51,"time":41,"velocity":0.3937007874015748},{"duration":0.10000000000000142,"midi":51,"time":41,"velocity":0.3937007874015748},{"duration":0.10000000000000142,"midi":51,"time":41,"velocity":0.3937007874015748},{"duration":0.10000000000000142,"midi":49,"time":41.2,"velocity":0.3937007874015748},{"duration":0.10000000000000142,"midi":49,"time":41.2,"velocity":0.3937007874015748},{"duration":0.10000000000000142,"midi":49,"time":41.2,"velocity":0.3937007874015748},{"duration":0.10000000000000142,"midi":51,"time":41.300000000000004,"velocity":0.3937007874015748},{"duration":0.10000000000000142,"midi":51,"time":41.300000000000004,"velocity":0.3937007874015748},{"duration":0.10000000000000142,"midi":51,"time":41.300000000000004,"velocity":0.3937007874015748},{"duration":0.10000000000000142,"midi":54,"time":41.5,"velocity":0.3937007874015748},{"duration":0.10000000000000142,"midi":54,"time":41.5,"velocity":0.3937007874015748},{"duration":0.10000000000000142,"midi":54,"time":41.5,"velocity":0.3937007874015748},{"duration":0.09999999999999432,"midi":56,"time":41.900000000000006,"velocity":0.3937007874015748},{"duration":0.09999999999999432,"midi":56,"time":41.900000000000006,"velocity":0.3937007874015748},{"duration":0.09999999999999432,"midi":56,"time":41.900000000000006,"velocity":0.3937007874015748},{"duration":0.10000000000000142,"midi":52,"time":42.1,"velocity":0.3937007874015748},{"duration":0.10000000000000142,"midi":52,"time":42.1,"velocity":0.3937007874015748},{"duration":0.10000000000000142,"midi":52,"time":42.1,"velocity":0.3937007874015748},{"duration":0.10000000000000142,"midi":49,"time":42.2,"velocity":0.3937007874015748},{"duration":0.10000000000000142,"midi":49,"time":42.2,"velocity":0.3937007874015748},{"duration":0.10000000000000142,"midi":49,"time":42.2,"velocity":0.3937007874015748},{"duration":0.09999999999999432,"midi":47,"time":42.400000000000006,"velocity":0.3937007874015748},{"duration":0.09999999999999432,"midi":47,"time":42.400000000000006,"velocity":0.3937007874015748},{"duration":0.09999999999999432,"midi":47,"time":42.400000000000006,"velocity":0.3937007874015748},{"duration":0.10000000000000142,"midi":46,"time":42.5,"velocity":0.3937007874015748},{"duration":0.10000000000000142,"midi":51,"time":42.7,"velocity":0.3937007874015748},{"duration":0.10000000000000142,"midi":51,"time":42.7,"velocity":0.3937007874015748},{"duration":0.10000000000000142,"midi":51,"time":42.7,"velocity":0.3937007874015748},{"duration":0.10000000000000142,"midi":46,"time":43,"velocity":0.3937007874015748},{"duration":0.10000000000000142,"midi":47,"time":43.1,"velocity":0.3937007874015748},{"duration":0.10000000000000142,"midi":47,"time":43.1,"velocity":0.3937007874015748},{"duration":0.10000000000000142,"midi":47,"time":43.1,"velocity":0.3937007874015748},{"duration":0.10000000000000142,"midi":44,"time":43.300000000000004,"velocity":0.3937007874015748},{"duration":0.10000000000000142,"midi":44,"time":43.300000000000004,"velocity":0.3937007874015748},{"duration":0.10000000000000142,"midi":44,"time":43.300000000000004,"velocity":0.3937007874015748},{"duration":0.09999999999999432,"midi":39,"time":43.400000000000006,"velocity":0.3937007874015748},{"duration":0.10000000000000142,"midi":49,"time":43.6,"velocity":0.3937007874015748},{"duration":0.10000000000000142,"midi":49,"time":43.6,"velocity":0.3937007874015748},{"duration":0.10000000000000142,"midi":49,"time":43.6,"velocity":0.3937007874015748},{"duration":0.09999999999999432,"midi":47,"time":43.900000000000006,"velocity":0.3937007874015748},{"duration":0.09999999999999432,"midi":47,"time":43.900000000000006,"velocity":0.3937007874015748},{"duration":0.09999999999999432,"midi":47,"time":43.900000000000006,"velocity":0.3937007874015748},{"duration":0.10000000000000142,"midi":51,"time":44,"velocity":0.3937007874015748},{"duration":0.10000000000000142,"midi":51,"time":44,"velocity":0.3937007874015748},{"duration":0.10000000000000142,"midi":51,"time":44,"velocity":0.3937007874015748},{"duration":0.10000000000000142,"midi":52,"time":44.300000000000004,"velocity":0.3937007874015748},{"duration":0.10000000000000142,"midi":52,"time":44.300000000000004,"velocity":0.3937007874015748},{"duration":0.10000000000000142,"midi":52,"time":44.300000000000004,"velocity":0.3937007874015748},{"duration":0.10000000000000142,"midi":51,"time":44.5,"velocity":0.3937007874015748},{"duration":0.10000000000000142,"midi":51,"time":44.5,"velocity":0.3937007874015748},{"duration":0.10000000000000142,"midi":51,"time":44.5,"velocity":0.3937007874015748},{"duration":0.10000000000000142,"midi":52,"time":44.6,"velocity":0.3937007874015748},{"duration":0.10000000000000142,"midi":52,"time":44.6,"velocity":0.3937007874015748},{"duration":0.10000000000000142,"midi":52,"time":44.6,"velocity":0.3937007874015748},{"duration":0.10000000000000142,"midi":54,"time":44.800000000000004,"velocity":0.3937007874015748},{"duration":0.10000000000000142,"midi":54,"time":44.800000000000004,"velocity":0.3937007874015748},{"duration":0.10000000000000142,"midi":54,"time":44.800000000000004,"velocity":0.3937007874015748},{"duration":0.09999999999999432,"midi":56,"time":44.900000000000006,"velocity":0.3937007874015748},{"duration":0.09999999999999432,"midi":56,"time":44.900000000000006,"velocity":0.3937007874015748},{"duration":0.09999999999999432,"midi":56,"time":44.900000000000006,"velocity":0.3937007874015748},{"duration":0.10000000000000142,"midi":58,"time":45.1,"velocity":0.3937007874015748},{"duration":0.10000000000000142,"midi":58,"time":45.1,"velocity":0.3937007874015748},{"duration":0.10000000000000142,"midi":58,"time":45.1,"velocity":0.3937007874015748},{"duration":0.10000000000000142,"midi":59,"time":45.2,"velocity":0.3937007874015748},{"duration":0.10000000000000142,"midi":59,"time":45.2,"velocity":0.3937007874015748},{"duration":0.10000000000000142,"midi":59,"time":45.2,"velocity":0.3937007874015748},{"duration":0.09999999999999432,"midi":56,"time":45.400000000000006,"velocity":0.3937007874015748},{"duration":0.09999999999999432,"midi":56,"time":45.400000000000006,"velocity":0.3937007874015748},{"duration":0.09999999999999432,"midi":56,"time":45.400000000000006,"velocity":0.3937007874015748},{"duration":0.10000000000000142,"midi":58,"time":45.5,"velocity":0.3937007874015748},{"duration":0.10000000000000142,"midi":58,"time":45.5,"velocity":0.3937007874015748},{"duration":0.10000000000000142,"midi":58,"time":45.5,"velocity":0.3937007874015748},{"duration":0.10000000000000142,"midi":54,"time":45.7,"velocity":0.3937007874015748},{"duration":0.10000000000000142,"midi":54,"time":45.7,"velocity":0.3937007874015748},{"duration":0.10000000000000142,"midi":54,"time":45.7,"velocity":0.3937007874015748},{"duration":0.10000000000000142,"midi":51,"time":45.800000000000004,"velocity":0.3937007874015748},{"duration":0.10000000000000142,"midi":51,"time":45.800000000000004,"velocity":0.3937007874015748},{"duration":0.10000000000000142,"midi":51,"time":45.800000000000004,"velocity":0.3937007874015748},{"duration":0.10000000000000142,"midi":49,"time":46,"velocity":0.3937007874015748},{"duration":0.10000000000000142,"midi":49,"time":46,"velocity":0.3937007874015748},{"duration":0.10000000000000142,"midi":49,"time":46,"velocity":0.3937007874015748},{"duration":0.10000000000000142,"midi":51,"time":46.1,"velocity":0.3937007874015748},{"duration":0.10000000000000142,"midi":51,"time":46.1,"velocity":0.3937007874015748},{"duration":0.10000000000000142,"midi":51,"time":46.1,"velocity":0.3937007874015748},{"duration":0.10000000000000142,"midi":54,"time":46.300000000000004,"velocity":0.3937007874015748},{"duration":0.10000000000000142,"midi":54,"time":46.300000000000004,"velocity":0.3937007874015748},{"duration":0.10000000000000142,"midi":54,"time":46.300000000000004,"velocity":0.3937007874015748},{"duration":0.10000000000000142,"midi":46,"time":46.7,"velocity":0.3937007874015748},{"duration":0.10000000000000142,"midi":56,"time":46.7,"velocity":0.3937007874015748},{"duration":0.10000000000000142,"midi":56,"time":46.7,"velocity":0.3937007874015748},{"duration":0.10000000000000142,"midi":56,"time":46.7,"velocity":0.3937007874015748},{"duration":0.09999999999999432,"midi":52,"time":46.900000000000006,"velocity":0.3937007874015748},{"duration":0.09999999999999432,"midi":52,"time":46.900000000000006,"velocity":0.3937007874015748},{"duration":0.09999999999999432,"midi":52,"time":46.900000000000006,"velocity":0.3937007874015748},{"duration":0.10000000000000142,"midi":49,"time":47,"velocity":0.3937007874015748},{"duration":0.10000000000000142,"midi":49,"time":47,"velocity":0.3937007874015748},{"duration":0.10000000000000142,"midi":49,"time":47,"velocity":0.3937007874015748},{"duration":0.10000000000000142,"midi":46,"time":47.2,"velocity":0.3937007874015748},{"duration":0.10000000000000142,"midi":47,"time":47.2,"velocity":0.3937007874015748},{"duration":0.10000000000000142,"midi":47,"time":47.2,"velocity":0.3937007874015748},{"duration":0.10000000000000142,"midi":47,"time":47.2,"velocity":0.3937007874015748},{"duration":0.10000000000000142,"midi":46,"time":47.300000000000004,"velocity":0.3937007874015748},{"duration":0.10000000000000142,"midi":46,"time":47.300000000000004,"velocity":0.3937007874015748},{"duration":0.10000000000000142,"midi":46,"time":47.300000000000004,"velocity":0.3937007874015748},{"duration":0.10000000000000142,"midi":51,"time":47.5,"velocity":0.3937007874015748},{"duration":0.10000000000000142,"midi":51,"time":47.5,"velocity":0.3937007874015748},{"duration":0.10000000000000142,"midi":51,"time":47.5,"velocity":0.3937007874015748},{"duration":0.10000000000000142,"midi":46,"time":47.800000000000004,"velocity":0.3937007874015748},{"duration":0.10000000000000142,"midi":46,"time":47.800000000000004,"velocity":0.3937007874015748},{"duration":0.10000000000000142,"midi":46,"time":47.800000000000004,"velocity":0.3937007874015748},{"duration":0.09999999999999432,"midi":47,"time":47.900000000000006,"velocity":0.3937007874015748},{"duration":0.09999999999999432,"midi":47,"time":47.900000000000006,"velocity":0.3937007874015748},{"duration":0.09999999999999432,"midi":47,"time":47.900000000000006,"velocity":0.3937007874015748},{"duration":0.10000000000000142,"midi":46,"time":48.2,"velocity":0.3937007874015748},{"duration":0.10000000000000142,"midi":46,"time":48.2,"velocity":0.3937007874015748},{"duration":0.10000000000000142,"midi":46,"time":48.2,"velocity":0.3937007874015748},{"duration":0.10000000000000142,"midi":44,"time":48.5,"velocity":0.3937007874015748},{"duration":0.10000000000000142,"midi":44,"time":48.5,"velocity":0.3937007874015748},{"duration":0.10000000000000142,"midi":44,"time":48.5,"velocity":0.3937007874015748},{"duration":0.10000000000000142,"midi":46,"time":48.7,"velocity":0.3937007874015748},{"duration":0.10000000000000142,"midi":46,"time":48.7,"velocity":0.3937007874015748},{"duration":0.10000000000000142,"midi":46,"time":48.7,"velocity":0.3937007874015748},{"duration":0.10000000000000142,"midi":47,"time":48.800000000000004,"velocity":0.3937007874015748},{"duration":0.10000000000000142,"midi":47,"time":48.800000000000004,"velocity":0.3937007874015748},{"duration":0.10000000000000142,"midi":47,"time":48.800000000000004,"velocity":0.3937007874015748},{"duration":0.10000000000000142,"midi":51,"time":49,"velocity":0.3937007874015748},{"duration":0.10000000000000142,"midi":51,"time":49,"velocity":0.3937007874015748},{"duration":0.10000000000000142,"midi":51,"time":49,"velocity":0.3937007874015748},{"duration":0.10000000000000142,"midi":52,"time":49.1,"velocity":0.3937007874015748},{"duration":0.10000000000000142,"midi":52,"time":49.1,"velocity":0.3937007874015748},{"duration":0.10000000000000142,"midi":52,"time":49.1,"velocity":0.3937007874015748},{"duration":0.10000000000000142,"midi":51,"time":49.300000000000004,"velocity":0.3937007874015748},{"duration":0.10000000000000142,"midi":51,"time":49.300000000000004,"velocity":0.3937007874015748},{"duration":0.10000000000000142,"midi":51,"time":49.300000000000004,"velocity":0.3937007874015748},{"duration":0.09999999999999432,"midi":52,"time":49.400000000000006,"velocity":0.3937007874015748},{"duration":0.09999999999999432,"midi":52,"time":49.400000000000006,"velocity":0.3937007874015748},{"duration":0.09999999999999432,"midi":52,"time":49.400000000000006,"velocity":0.3937007874015748},{"duration":0.10000000000000142,"midi":54,"time":49.6,"velocity":0.3937007874015748},{"duration":0.10000000000000142,"midi":54,"time":49.6,"velocity":0.3937007874015748},{"duration":0.10000000000000142,"midi":54,"time":49.6,"velocity":0.3937007874015748},{"duration":0.10000000000000142,"midi":56,"time":49.7,"velocity":0.3937007874015748},{"duration":0.10000000000000142,"midi":56,"time":49.7,"velocity":0.3937007874015748},{"duration":0.10000000000000142,"midi":56,"time":49.7,"velocity":0.3937007874015748},{"duration":0.09999999999999432,"midi":58,"time":49.900000000000006,"velocity":0.3937007874015748},{"duration":0.09999999999999432,"midi":58,"time":49.900000000000006,"velocity":0.3937007874015748},{"duration":0.09999999999999432,"midi":58,"time":49.900000000000006,"velocity":0.3937007874015748},{"duration":0.10000000000000142,"midi":59,"time":50,"velocity":0.3937007874015748},{"duration":0.10000000000000142,"midi":59,"time":50,"velocity":0.3937007874015748},{"duration":0.10000000000000142,"midi":59,"time":50,"velocity":0.3937007874015748},{"duration":0.10000000000000142,"midi":56,"time":50.2,"velocity":0.3937007874015748},{"duration":0.10000000000000142,"midi":56,"time":50.2,"velocity":0.3937007874015748},{"duration":0.10000000000000142,"midi":56,"time":50.2,"velocity":0.3937007874015748},{"duration":0.10000000000000142,"midi":58,"time":50.300000000000004,"velocity":0.3937007874015748},{"duration":0.10000000000000142,"midi":58,"time":50.300000000000004,"velocity":0.3937007874015748},{"duration":0.10000000000000142,"midi":58,"time":50.300000000000004,"velocity":0.3937007874015748},{"duration":0.10000000000000142,"midi":54,"time":50.5,"velocity":0.3937007874015748},{"duration":0.10000000000000142,"midi":54,"time":50.5,"velocity":0.3937007874015748},{"duration":0.10000000000000142,"midi":54,"time":50.5,"velocity":0.3937007874015748},{"duration":0.10000000000000142,"midi":51,"time":50.6,"velocity":0.3937007874015748},{"duration":0.10000000000000142,"midi":51,"time":50.6,"velocity":0.3937007874015748},{"duration":0.10000000000000142,"midi":51,"time":50.6,"velocity":0.3937007874015748},{"duration":0.10000000000000142,"midi":49,"time":50.800000000000004,"velocity":0.3937007874015748},{"duration":0.10000000000000142,"midi":49,"time":50.800000000000004,"velocity":0.3937007874015748},{"duration":0.10000000000000142,"midi":49,"time":50.800000000000004,"velocity":0.3937007874015748},{"duration":0.09999999999999432,"midi":51,"time":50.900000000000006,"velocity":0.3937007874015748},{"duration":0.09999999999999432,"midi":46,"time":50.900000000000006,"velocity":0.3937007874015748},{"duration":0.09999999999999432,"midi":51,"time":50.900000000000006,"velocity":0.3937007874015748},{"duration":0.09999999999999432,"midi":51,"time":50.900000000000006,"velocity":0.3937007874015748},{"duration":0.10000000000000142,"midi":54,"time":51.1,"velocity":0.3937007874015748},{"duration":0.10000000000000142,"midi":54,"time":51.1,"velocity":0.3937007874015748},{"duration":0.10000000000000142,"midi":54,"time":51.1,"velocity":0.3937007874015748},{"duration":0.09999999999999432,"midi":46,"time":51.400000000000006,"velocity":0.3937007874015748},{"duration":0.10000000000000142,"midi":56,"time":51.5,"velocity":0.3937007874015748},{"duration":0.10000000000000142,"midi":56,"time":51.5,"velocity":0.3937007874015748},{"duration":0.10000000000000142,"midi":56,"time":51.5,"velocity":0.3937007874015748},{"duration":0.10000000000000142,"midi":52,"time":51.7,"velocity":0.3937007874015748},{"duration":0.10000000000000142,"midi":52,"time":51.7,"velocity":0.3937007874015748},{"duration":0.10000000000000142,"midi":52,"time":51.7,"velocity":0.3937007874015748},{"duration":0.10000000000000142,"midi":49,"time":51.800000000000004,"velocity":0.3937007874015748},{"duration":0.10000000000000142,"midi":49,"time":51.800000000000004,"velocity":0.3937007874015748},{"duration":0.10000000000000142,"midi":49,"time":51.800000000000004,"velocity":0.3937007874015748},{"duration":0.10000000000000142,"midi":47,"time":52,"velocity":0.3937007874015748},{"duration":0.10000000000000142,"midi":47,"time":52,"velocity":0.3937007874015748},{"duration":0.10000000000000142,"midi":47,"time":52,"velocity":0.3937007874015748},{"duration":0.10000000000000142,"midi":46,"time":52.1,"velocity":0.3937007874015748},{"duration":0.10000000000000142,"midi":46,"time":52.1,"velocity":0.3937007874015748},{"duration":0.10000000000000142,"midi":51,"time":52.300000000000004,"velocity":0.3937007874015748},{"duration":0.10000000000000142,"midi":51,"time":52.300000000000004,"velocity":0.3937007874015748},{"duration":0.10000000000000142,"midi":51,"time":52.300000000000004,"velocity":0.3937007874015748},{"duration":0.09999999999999432,"midi":46,"time":52.400000000000006,"velocity":0.3937007874015748},{"duration":0.09999999999999432,"midi":46,"time":52.400000000000006,"velocity":0.3937007874015748},{"duration":0.09999999999999432,"midi":46,"time":52.400000000000006,"velocity":0.3937007874015748},{"duration":0.10000000000000142,"midi":47,"time":52.7,"velocity":0.3937007874015748},{"duration":0.10000000000000142,"midi":47,"time":52.7,"velocity":0.3937007874015748},{"duration":0.10000000000000142,"midi":47,"time":52.7,"velocity":0.3937007874015748},{"duration":0.09999999999999432,"midi":44,"time":52.900000000000006,"velocity":0.3937007874015748},{"duration":0.09999999999999432,"midi":44,"time":52.900000000000006,"velocity":0.3937007874015748},{"duration":0.09999999999999432,"midi":44,"time":52.900000000000006,"velocity":0.3937007874015748},{"duration":0.10000000000000142,"midi":39,"time":53,"velocity":0.3937007874015748},{"duration":0.10000000000000142,"midi":39,"time":53,"velocity":0.3937007874015748},{"duration":0.10000000000000142,"midi":39,"time":53,"velocity":0.3937007874015748},{"duration":0.10000000000000142,"midi":49,"time":53.2,"velocity":0.3937007874015748},{"duration":0.10000000000000142,"midi":49,"time":53.2,"velocity":0.3937007874015748},{"duration":0.10000000000000142,"midi":49,"time":53.2,"velocity":0.3937007874015748},{"duration":0.10000000000000142,"midi":47,"time":53.5,"velocity":0.3937007874015748},{"duration":0.10000000000000142,"midi":47,"time":53.5,"velocity":0.3937007874015748},{"duration":0.10000000000000142,"midi":47,"time":53.5,"velocity":0.3937007874015748},{"duration":0.10000000000000142,"midi":51,"time":53.6,"velocity":0.3937007874015748},{"duration":0.10000000000000142,"midi":51,"time":53.6,"velocity":0.3937007874015748},{"duration":0.10000000000000142,"midi":51,"time":53.6,"velocity":0.3937007874015748},{"duration":0.09999999999999432,"midi":52,"time":53.900000000000006,"velocity":0.3937007874015748},{"duration":0.09999999999999432,"midi":52,"time":53.900000000000006,"velocity":0.3937007874015748},{"duration":0.09999999999999432,"midi":52,"time":53.900000000000006,"velocity":0.3937007874015748},{"duration":0.10000000000000142,"midi":51,"time":54.1,"velocity":0.3937007874015748},{"duration":0.10000000000000142,"midi":51,"time":54.1,"velocity":0.3937007874015748},{"duration":0.10000000000000142,"midi":51,"time":54.1,"velocity":0.3937007874015748},{"duration":0.10000000000000142,"midi":52,"time":54.2,"velocity":0.3937007874015748},{"duration":0.10000000000000142,"midi":52,"time":54.2,"velocity":0.3937007874015748},{"duration":0.10000000000000142,"midi":52,"time":54.2,"velocity":0.3937007874015748},{"duration":0.09999999999999432,"midi":54,"time":54.400000000000006,"velocity":0.3937007874015748},{"duration":0.09999999999999432,"midi":54,"time":54.400000000000006,"velocity":0.3937007874015748},{"duration":0.09999999999999432,"midi":54,"time":54.400000000000006,"velocity":0.3937007874015748},{"duration":0.10000000000000142,"midi":56,"time":54.5,"velocity":0.3937007874015748},{"duration":0.10000000000000142,"midi":56,"time":54.5,"velocity":0.3937007874015748},{"duration":0.10000000000000142,"midi":56,"time":54.5,"velocity":0.3937007874015748},{"duration":0.10000000000000142,"midi":58,"time":54.7,"velocity":0.3937007874015748},{"duration":0.10000000000000142,"midi":58,"time":54.7,"velocity":0.3937007874015748},{"duration":0.10000000000000142,"midi":58,"time":54.7,"velocity":0.3937007874015748},{"duration":0.10000000000000142,"midi":59,"time":54.800000000000004,"velocity":0.3937007874015748},{"duration":0.10000000000000142,"midi":59,"time":54.800000000000004,"velocity":0.3937007874015748},{"duration":0.10000000000000142,"midi":59,"time":54.800000000000004,"velocity":0.3937007874015748},{"duration":0.10000000000000142,"midi":56,"time":55,"velocity":0.3937007874015748},{"duration":0.10000000000000142,"midi":56,"time":55,"velocity":0.3937007874015748},{"duration":0.10000000000000142,"midi":56,"time":55,"velocity":0.3937007874015748},{"duration":0.10000000000000142,"midi":58,"time":55.1,"velocity":0.3937007874015748},{"duration":0.10000000000000142,"midi":58,"time":55.1,"velocity":0.3937007874015748},{"duration":0.10000000000000142,"midi":58,"time":55.1,"velocity":0.3937007874015748},{"duration":0.10000000000000142,"midi":54,"time":55.300000000000004,"velocity":0.3937007874015748},{"duration":0.10000000000000142,"midi":54,"time":55.300000000000004,"velocity":0.3937007874015748},{"duration":0.10000000000000142,"midi":54,"time":55.300000000000004,"velocity":0.3937007874015748},{"duration":0.09999999999999432,"midi":51,"time":55.400000000000006,"velocity":0.3937007874015748},{"duration":0.09999999999999432,"midi":51,"time":55.400000000000006,"velocity":0.3937007874015748},{"duration":0.09999999999999432,"midi":51,"time":55.400000000000006,"velocity":0.3937007874015748},{"duration":0.10000000000000142,"midi":49,"time":55.6,"velocity":0.3937007874015748},{"duration":0.10000000000000142,"midi":49,"time":55.6,"velocity":0.3937007874015748},{"duration":0.10000000000000142,"midi":49,"time":55.6,"velocity":0.3937007874015748},{"duration":0.10000000000000142,"midi":51,"time":55.7,"velocity":0.3937007874015748},{"duration":0.10000000000000142,"midi":51,"time":55.7,"velocity":0.3937007874015748},{"duration":0.10000000000000142,"midi":51,"time":55.7,"velocity":0.3937007874015748},{"duration":0.10000000000000142,"midi":46,"time":55.7,"velocity":0.3937007874015748},{"duration":0.09999999999999432,"midi":54,"time":55.900000000000006,"velocity":0.3937007874015748},{"duration":0.09999999999999432,"midi":54,"time":55.900000000000006,"velocity":0.3937007874015748},{"duration":0.09999999999999432,"midi":54,"time":55.900000000000006,"velocity":0.3937007874015748},{"duration":0.10000000000000142,"midi":46,"time":56.2,"velocity":0.3937007874015748},{"duration":0.10000000000000142,"midi":56,"time":56.300000000000004,"velocity":0.3937007874015748},{"duration":0.10000000000000142,"midi":56,"time":56.300000000000004,"velocity":0.3937007874015748},{"duration":0.10000000000000142,"midi":56,"time":56.300000000000004,"velocity":0.3937007874015748},{"duration":0.10000000000000142,"midi":52,"time":56.5,"velocity":0.3937007874015748},{"duration":0.10000000000000142,"midi":52,"time":56.5,"velocity":0.3937007874015748},{"duration":0.10000000000000142,"midi":52,"time":56.5,"velocity":0.3937007874015748},{"duration":0.10000000000000142,"midi":49,"time":56.6,"velocity":0.3937007874015748},{"duration":0.10000000000000142,"midi":49,"time":56.6,"velocity":0.3937007874015748},{"duration":0.10000000000000142,"midi":49,"time":56.6,"velocity":0.3937007874015748},{"duration":0.10000000000000142,"midi":47,"time":56.800000000000004,"velocity":0.3937007874015748},{"duration":0.10000000000000142,"midi":47,"time":56.800000000000004,"velocity":0.3937007874015748},{"duration":0.10000000000000142,"midi":47,"time":56.800000000000004,"velocity":0.3937007874015748},{"duration":0.09999999999999432,"midi":46,"time":56.900000000000006,"velocity":0.3937007874015748},{"duration":0.09999999999999432,"midi":46,"time":56.900000000000006,"velocity":0.3937007874015748},{"duration":0.10000000000000142,"midi":51,"time":57.1,"velocity":0.3937007874015748},{"duration":0.10000000000000142,"midi":51,"time":57.1,"velocity":0.3937007874015748},{"duration":0.10000000000000142,"midi":51,"time":57.1,"velocity":0.3937007874015748},{"duration":0.10000000000000142,"midi":46,"time":57.2,"velocity":0.3937007874015748},{"duration":0.10000000000000142,"midi":46,"time":57.2,"velocity":0.3937007874015748},{"duration":0.10000000000000142,"midi":46,"time":57.2,"velocity":0.3937007874015748},{"duration":0.10000000000000142,"midi":47,"time":57.5,"velocity":0.3937007874015748},{"duration":0.10000000000000142,"midi":47,"time":57.5,"velocity":0.3937007874015748},{"duration":0.10000000000000142,"midi":47,"time":57.5,"velocity":0.3937007874015748},{"duration":0.10000000000000142,"midi":47,"time":57.800000000000004,"velocity":0.3937007874015748},{"duration":0.10000000000000142,"midi":47,"time":57.800000000000004,"velocity":0.3937007874015748},{"duration":0.10000000000000142,"midi":47,"time":57.800000000000004,"velocity":0.3937007874015748},{"duration":0.10000000000000142,"midi":47,"time":58.1,"velocity":0.3937007874015748},{"duration":0.10000000000000142,"midi":47,"time":58.1,"velocity":0.3937007874015748},{"duration":0.10000000000000142,"midi":47,"time":58.1,"velocity":0.3937007874015748},{"duration":0.09999999999999432,"midi":47,"time":58.400000000000006,"velocity":0.3937007874015748},{"duration":0.09999999999999432,"midi":47,"time":58.400000000000006,"velocity":0.3937007874015748},{"duration":0.09999999999999432,"midi":47,"time":58.400000000000006,"velocity":0.3937007874015748},{"duration":0.10000000000000853,"midi":71,"time":75.8,"velocity":0.3937007874015748},{"duration":0.10000000000000853,"midi":68,"time":75.8,"velocity":0.3937007874015748},{"duration":0.09999999999999432,"midi":71,"time":76.4,"velocity":0.3937007874015748},{"duration":0.09999999999999432,"midi":68,"time":76.4,"velocity":0.3937007874015748},{"duration":0.10000000000000853,"midi":67,"time":77,"velocity":0.3937007874015748},{"duration":0.10000000000000853,"midi":70,"time":77,"velocity":0.3937007874015748},{"duration":0.09999999999999432,"midi":70,"time":77.60000000000001,"velocity":0.3937007874015748},{"duration":0.09999999999999432,"midi":67,"time":77.60000000000001,"velocity":0.3937007874015748},{"duration":0.10000000000000853,"midi":71,"time":78.2,"velocity":0.3937007874015748},{"duration":0.10000000000000853,"midi":68,"time":78.2,"velocity":0.3937007874015748},{"duration":0.09999999999999432,"midi":71,"time":78.80000000000001,"velocity":0.3937007874015748},{"duration":0.09999999999999432,"midi":68,"time":78.80000000000001,"velocity":0.3937007874015748},{"duration":0.09999999999999432,"midi":70,"time":79.4,"velocity":0.3937007874015748},{"duration":0.09999999999999432,"midi":67,"time":79.4,"velocity":0.3937007874015748},{"duration":0.10000000000000853,"midi":70,"time":80,"velocity":0.3937007874015748},{"duration":0.10000000000000853,"midi":67,"time":80,"velocity":0.3937007874015748},{"duration":0.09999999999999432,"midi":68,"time":80.60000000000001,"velocity":0.3937007874015748},{"duration":0.09999999999999432,"midi":71,"time":80.60000000000001,"velocity":0.3937007874015748},{"duration":0.10000000000000853,"midi":68,"time":81.2,"velocity":0.3937007874015748},{"duration":0.10000000000000853,"midi":71,"time":81.2,"velocity":0.3937007874015748},{"duration":0.09999999999999432,"midi":76,"time":81.80000000000001,"velocity":0.3937007874015748},{"duration":0.09999999999999432,"midi":73,"time":81.80000000000001,"velocity":0.3937007874015748},{"duration":0.09999999999999432,"midi":73,"time":82.4,"velocity":0.3937007874015748},{"duration":0.09999999999999432,"midi":76,"time":82.4,"velocity":0.3937007874015748},{"duration":0.09999999999999432,"midi":70,"time":84.80000000000001,"velocity":0.3937007874015748},{"duration":0.09999999999999432,"midi":67,"time":84.80000000000001,"velocity":0.3937007874015748},{"duration":0.09999999999999432,"midi":71,"time":85.10000000000001,"velocity":0.3937007874015748},{"duration":0.09999999999999432,"midi":68,"time":85.10000000000001,"velocity":0.3937007874015748}]},{"instrument":{"family":"synth effects","number":99,"name":"fx 4 (atmosphere)"},"notes":[{"duration":0.09999999999999964,"midi":64,"time":8.4,"velocity":0.3937007874015748},{"duration":0.09999999999999964,"midi":64,"time":8.700000000000001,"velocity":0.3937007874015748},{"duration":0.09999999999999964,"midi":64,"time":9,"velocity":0.3937007874015748},{"duration":0.09999999999999964,"midi":64,"time":9.3,"velocity":0.3937007874015748},{"duration":0.09999999999999964,"midi":64,"time":9.600000000000001,"velocity":0.3937007874015748},{"duration":0.09999999999999964,"midi":64,"time":9.9,"velocity":0.3937007874015748},{"duration":0.09999999999999964,"midi":64,"time":10.200000000000001,"velocity":0.3937007874015748},{"duration":0.09999999999999787,"midi":75,"time":20.400000000000002,"velocity":0.3937007874015748},{"duration":0.09999999999999787,"midi":75,"time":20.400000000000002,"velocity":0.3937007874015748},{"duration":0.10000000000000142,"midi":71,"time":21.6,"velocity":0.3937007874015748},{"duration":0.10000000000000142,"midi":71,"time":21.6,"velocity":0.3937007874015748},{"duration":0.10000000000000142,"midi":73,"time":22.8,"velocity":0.3937007874015748},{"duration":0.10000000000000142,"midi":73,"time":22.8,"velocity":0.3937007874015748},{"duration":0.09999999999999787,"midi":67,"time":25.400000000000002,"velocity":0.3937007874015748},{"duration":0.10000000000000142,"midi":68,"time":25.5,"velocity":0.3937007874015748},{"duration":0.09999999999999787,"midi":70,"time":25.700000000000003,"velocity":0.3937007874015748},{"duration":0.10000000000000142,"midi":71,"time":25.8,"velocity":0.3937007874015748},{"duration":0.10000000000000142,"midi":73,"time":26,"velocity":0.3937007874015748},{"duration":0.10000000000000142,"midi":75,"time":26.1,"velocity":0.3937007874015748},{"duration":0.10000000000000142,"midi":76,"time":26.3,"velocity":0.3937007874015748},{"duration":0.09999999999999787,"midi":75,"time":26.400000000000002,"velocity":0.3937007874015748},{"duration":0.10000000000000142,"midi":64,"time":27.6,"velocity":0.3937007874015748},{"duration":0.09999999999999787,"midi":64,"time":27.900000000000002,"velocity":0.3937007874015748},{"duration":0.09999999999999787,"midi":64,"time":28.200000000000003,"velocity":0.3937007874015748},{"duration":0.10000000000000142,"midi":64,"time":28.5,"velocity":0.3937007874015748},{"duration":0.10000000000000142,"midi":64,"time":28.8,"velocity":0.3937007874015748},{"duration":0.10000000000000142,"midi":64,"time":29.1,"velocity":0.3937007874015748},{"duration":0.09999999999999787,"midi":64,"time":29.400000000000002,"velocity":0.3937007874015748},{"duration":0.10000000000000142,"midi":68,"time":49.1,"velocity":0.3937007874015748},{"duration":0.10000000000000142,"midi":66,"time":49.300000000000004,"velocity":0.3937007874015748},{"duration":0.09999999999999432,"midi":68,"time":49.400000000000006,"velocity":0.3937007874015748},{"duration":0.10000000000000142,"midi":70,"time":49.6,"velocity":0.3937007874015748},{"duration":0.10000000000000142,"midi":71,"time":49.7,"velocity":0.3937007874015748},{"duration":0.09999999999999432,"midi":73,"time":49.900000000000006,"velocity":0.3937007874015748},{"duration":0.10000000000000142,"midi":75,"time":50,"velocity":0.3937007874015748},{"duration":0.10000000000000142,"midi":73,"time":50.2,"velocity":0.3937007874015748},{"duration":0.10000000000000142,"midi":75,"time":50.300000000000004,"velocity":0.3937007874015748},{"duration":0.10000000000000142,"midi":71,"time":50.5,"velocity":0.3937007874015748},{"duration":0.10000000000000142,"midi":66,"time":50.6,"velocity":0.3937007874015748},{"duration":0.10000000000000142,"midi":64,"time":50.800000000000004,"velocity":0.3937007874015748},{"duration":0.09999999999999432,"midi":66,"time":50.900000000000006,"velocity":0.3937007874015748},{"duration":0.10000000000000142,"midi":70,"time":51.1,"velocity":0.3937007874015748},{"duration":0.10000000000000142,"midi":71,"time":51.5,"velocity":0.3937007874015748},{"duration":0.10000000000000142,"midi":68,"time":51.7,"velocity":0.3937007874015748},{"duration":0.10000000000000142,"midi":64,"time":51.800000000000004,"velocity":0.3937007874015748},{"duration":0.10000000000000142,"midi":63,"time":52,"velocity":0.3937007874015748},{"duration":0.10000000000000142,"midi":61,"time":52.1,"velocity":0.3937007874015748},{"duration":0.10000000000000142,"midi":67,"time":52.300000000000004,"velocity":0.3937007874015748},{"duration":0.10000000000000142,"midi":61,"time":52.6,"velocity":0.3937007874015748},{"duration":0.10000000000000142,"midi":63,"time":52.7,"velocity":0.3937007874015748},{"duration":0.09999999999999432,"midi":59,"time":52.900000000000006,"velocity":0.3937007874015748},{"duration":0.10000000000000142,"midi":56,"time":53,"velocity":0.3937007874015748},{"duration":0.10000000000000142,"midi":66,"time":53.2,"velocity":0.3937007874015748},{"duration":0.10000000000000142,"midi":63,"time":53.5,"velocity":0.3937007874015748},{"duration":0.10000000000000142,"midi":68,"time":53.6,"velocity":0.3937007874015748},{"duration":0.09999999999999432,"midi":68,"time":53.900000000000006,"velocity":0.3937007874015748},{"duration":0.10000000000000142,"midi":66,"time":54.1,"velocity":0.3937007874015748},{"duration":0.10000000000000142,"midi":68,"time":54.2,"velocity":0.3937007874015748},{"duration":0.09999999999999432,"midi":70,"time":54.400000000000006,"velocity":0.3937007874015748},{"duration":0.10000000000000142,"midi":71,"time":54.5,"velocity":0.3937007874015748},{"duration":0.10000000000000142,"midi":73,"time":54.7,"velocity":0.3937007874015748},{"duration":0.10000000000000142,"midi":75,"time":54.800000000000004,"velocity":0.3937007874015748},{"duration":0.10000000000000142,"midi":73,"time":55,"velocity":0.3937007874015748},{"duration":0.10000000000000142,"midi":75,"time":55.1,"velocity":0.3937007874015748},{"duration":0.10000000000000142,"midi":71,"time":55.300000000000004,"velocity":0.3937007874015748},{"duration":0.09999999999999432,"midi":66,"time":55.400000000000006,"velocity":0.3937007874015748},{"duration":0.10000000000000142,"midi":64,"time":55.6,"velocity":0.3937007874015748},{"duration":0.10000000000000142,"midi":66,"time":55.7,"velocity":0.3937007874015748},{"duration":0.09999999999999432,"midi":70,"time":55.900000000000006,"velocity":0.3937007874015748},{"duration":0.10000000000000142,"midi":71,"time":56.300000000000004,"velocity":0.3937007874015748},{"duration":0.10000000000000142,"midi":68,"time":56.5,"velocity":0.3937007874015748},{"duration":0.10000000000000142,"midi":64,"time":56.6,"velocity":0.3937007874015748},{"duration":0.10000000000000142,"midi":63,"time":56.800000000000004,"velocity":0.3937007874015748},{"duration":0.09999999999999432,"midi":61,"time":56.900000000000006,"velocity":0.3937007874015748},{"duration":0.10000000000000142,"midi":67,"time":57.1,"velocity":0.3937007874015748},{"duration":0.09999999999999432,"midi":61,"time":57.400000000000006,"velocity":0.3937007874015748},{"duration":0.10000000000000142,"midi":63,"time":57.5,"velocity":0.3937007874015748},{"duration":0.10000000000000142,"midi":63,"time":57.800000000000004,"velocity":0.3937007874015748},{"duration":0.10000000000000142,"midi":63,"time":58.1,"velocity":0.3937007874015748},{"duration":0.09999999999999432,"midi":63,"time":58.400000000000006,"velocity":0.3937007874015748},{"duration":0.10000000000000853,"midi":71,"time":75.8,"velocity":0.3937007874015748},{"duration":0.10000000000000853,"midi":68,"time":75.8,"velocity":0.3937007874015748},{"duration":0.10000000000000853,"midi":71,"time":75.8,"velocity":0.3937007874015748},{"duration":0.10000000000000853,"midi":68,"time":75.8,"velocity":0.3937007874015748},{"duration":0.09999999999999432,"midi":68,"time":76.4,"velocity":0.3937007874015748},{"duration":0.09999999999999432,"midi":71,"time":76.4,"velocity":0.3937007874015748},{"duration":0.09999999999999432,"midi":68,"time":76.4,"velocity":0.3937007874015748},{"duration":0.09999999999999432,"midi":71,"time":76.4,"velocity":0.3937007874015748},{"duration":0.10000000000000853,"midi":70,"time":77,"velocity":0.3937007874015748},{"duration":0.10000000000000853,"midi":67,"time":77,"velocity":0.3937007874015748},{"duration":0.10000000000000853,"midi":67,"time":77,"velocity":0.3937007874015748},{"duration":0.10000000000000853,"midi":70,"time":77,"velocity":0.3937007874015748},{"duration":0.09999999999999432,"midi":67,"time":77.60000000000001,"velocity":0.3937007874015748},{"duration":0.09999999999999432,"midi":70,"time":77.60000000000001,"velocity":0.3937007874015748},{"duration":0.09999999999999432,"midi":70,"time":77.60000000000001,"velocity":0.3937007874015748},{"duration":0.09999999999999432,"midi":67,"time":77.60000000000001,"velocity":0.3937007874015748},{"duration":0.10000000000000853,"midi":71,"time":78.2,"velocity":0.3937007874015748},{"duration":0.10000000000000853,"midi":68,"time":78.2,"velocity":0.3937007874015748},{"duration":0.10000000000000853,"midi":71,"time":78.2,"velocity":0.3937007874015748},{"duration":0.10000000000000853,"midi":68,"time":78.2,"velocity":0.3937007874015748},{"duration":0.09999999999999432,"midi":71,"time":78.80000000000001,"velocity":0.3937007874015748},{"duration":0.09999999999999432,"midi":68,"time":78.80000000000001,"velocity":0.3937007874015748},{"duration":0.09999999999999432,"midi":68,"time":78.80000000000001,"velocity":0.3937007874015748},{"duration":0.09999999999999432,"midi":71,"time":78.80000000000001,"velocity":0.3937007874015748},{"duration":0.09999999999999432,"midi":70,"time":79.4,"velocity":0.3937007874015748},{"duration":0.09999999999999432,"midi":67,"time":79.4,"velocity":0.3937007874015748},{"duration":0.09999999999999432,"midi":70,"time":79.4,"velocity":0.3937007874015748},{"duration":0.09999999999999432,"midi":67,"time":79.4,"velocity":0.3937007874015748},{"duration":0.10000000000000853,"midi":67,"time":80,"velocity":0.3937007874015748},{"duration":0.10000000000000853,"midi":70,"time":80,"velocity":0.3937007874015748},{"duration":0.10000000000000853,"midi":67,"time":80,"velocity":0.3937007874015748},{"duration":0.10000000000000853,"midi":70,"time":80,"velocity":0.3937007874015748},{"duration":0.09999999999999432,"midi":71,"time":80.60000000000001,"velocity":0.3937007874015748},{"duration":0.09999999999999432,"midi":68,"time":80.60000000000001,"velocity":0.3937007874015748},{"duration":0.09999999999999432,"midi":71,"time":80.60000000000001,"velocity":0.3937007874015748},{"duration":0.09999999999999432,"midi":68,"time":80.60000000000001,"velocity":0.3937007874015748},{"duration":0.10000000000000853,"midi":68,"time":81.2,"velocity":0.3937007874015748},{"duration":0.10000000000000853,"midi":71,"time":81.2,"velocity":0.3937007874015748},{"duration":0.10000000000000853,"midi":71,"time":81.2,"velocity":0.3937007874015748},{"duration":0.10000000000000853,"midi":68,"time":81.2,"velocity":0.3937007874015748},{"duration":0.09999999999999432,"midi":76,"time":81.80000000000001,"velocity":0.3937007874015748},{"duration":0.09999999999999432,"midi":73,"time":81.80000000000001,"velocity":0.3937007874015748},{"duration":0.09999999999999432,"midi":76,"time":81.80000000000001,"velocity":0.3937007874015748},{"duration":0.09999999999999432,"midi":73,"time":81.80000000000001,"velocity":0.3937007874015748},{"duration":0.09999999999999432,"midi":76,"time":82.4,"velocity":0.3937007874015748},{"duration":0.09999999999999432,"midi":76,"time":82.4,"velocity":0.3937007874015748},{"duration":0.09999999999999432,"midi":73,"time":82.4,"velocity":0.3937007874015748},{"duration":0.09999999999999432,"midi":73,"time":82.4,"velocity":0.3937007874015748},{"duration":0.09999999999999432,"midi":67,"time":84.80000000000001,"velocity":0.3937007874015748},{"duration":0.09999999999999432,"midi":70,"time":84.80000000000001,"velocity":0.3937007874015748},{"duration":0.09999999999999432,"midi":70,"time":84.80000000000001,"velocity":0.3937007874015748},{"duration":0.09999999999999432,"midi":67,"time":84.80000000000001,"velocity":0.3937007874015748},{"duration":0.09999999999999432,"midi":71,"time":85.10000000000001,"velocity":0.3937007874015748},{"duration":0.09999999999999432,"midi":68,"time":85.10000000000001,"velocity":0.3937007874015748},{"duration":0.09999999999999432,"midi":71,"time":85.10000000000001,"velocity":0.3937007874015748},{"duration":0.09999999999999432,"midi":68,"time":85.10000000000001,"velocity":0.3937007874015748}]},{"instrument":{"family":"piano","number":0,"name":"acoustic grand piano"},"notes":[{"duration":0.09999999999999964,"midi":73,"time":8.4,"velocity":0.3937007874015748},{"duration":0.09999999999999964,"midi":71,"time":8.700000000000001,"velocity":0.3937007874015748},{"duration":0.09999999999999964,"midi":71,"time":9,"velocity":0.3937007874015748},{"duration":0.09999999999999964,"midi":73,"time":9.3,"velocity":0.3937007874015748},{"duration":0.09999999999999964,"midi":74,"time":9.600000000000001,"velocity":0.3937007874015748},{"duration":0.09999999999999964,"midi":73,"time":9.9,"velocity":0.3937007874015748},{"duration":0.09999999999999964,"midi":71,"time":10.200000000000001,"velocity":0.3937007874015748},{"duration":0.10000000000000142,"midi":73,"time":27.6,"velocity":0.3937007874015748},{"duration":0.09999999999999787,"midi":71,"time":27.900000000000002,"velocity":0.3937007874015748},{"duration":0.09999999999999787,"midi":71,"time":28.200000000000003,"velocity":0.3937007874015748},{"duration":0.10000000000000142,"midi":73,"time":28.5,"velocity":0.3937007874015748},{"duration":0.10000000000000142,"midi":74,"time":28.8,"velocity":0.3937007874015748},{"duration":0.10000000000000142,"midi":73,"time":29.1,"velocity":0.3937007874015748},{"duration":0.09999999999999787,"midi":71,"time":29.400000000000002,"velocity":0.3937007874015748},{"duration":0.10000000000000853,"midi":56,"time":94,"velocity":0.3937007874015748},{"duration":0.09999999999999432,"midi":63,"time":94.10000000000001,"velocity":0.3937007874015748},{"duration":0.09999999999999432,"midi":68,"time":94.30000000000001,"velocity":0.3937007874015748},{"duration":0.09999999999999432,"midi":63,"time":94.4,"velocity":0.3937007874015748},{"duration":0.09999999999999432,"midi":59,"time":94.60000000000001,"velocity":0.3937007874015748},{"duration":0.10000000000000853,"midi":61,"time":94.7,"velocity":0.3937007874015748},{"duration":0.09999999999999432,"midi":56,"time":94.9,"velocity":0.3937007874015748},{"duration":0.09999999999999432,"midi":56,"time":94.9,"velocity":0.3937007874015748},{"duration":0.09999999999999432,"midi":56,"time":94.9,"velocity":0.3937007874015748},{"duration":0.09999999999999432,"midi":68,"time":95.30000000000001,"velocity":0.3937007874015748},{"duration":0.09999999999999432,"midi":71,"time":95.60000000000001,"velocity":0.3937007874015748},{"duration":0.09999999999999432,"midi":73,"time":95.9,"velocity":0.3937007874015748},{"duration":0.10000000000000853,"midi":71,"time":96.2,"velocity":0.3937007874015748},{"duration":0.10000000000000853,"midi":68,"time":96.5,"velocity":0.3937007874015748},{"duration":0.09999999999999432,"midi":73,"time":96.80000000000001,"velocity":0.3937007874015748},{"duration":0.10000000000000853,"midi":71,"time":97,"velocity":0.3937007874015748},{"duration":0.09999999999999432,"midi":73,"time":97.10000000000001,"velocity":0.3937007874015748},{"duration":0.09999999999999432,"midi":71,"time":97.30000000000001,"velocity":0.3937007874015748},{"duration":0.09999999999999432,"midi":66,"time":97.4,"velocity":0.3937007874015748},{"duration":0.09999999999999432,"midi":68,"time":97.60000000000001,"velocity":0.3937007874015748},{"duration":0.10000000000000853,"midi":71,"time":97.7,"velocity":0.3937007874015748},{"duration":0.10000000000000853,"midi":73,"time":98,"velocity":0.3937007874015748},{"duration":0.09999999999999432,"midi":75,"time":98.10000000000001,"velocity":0.3937007874015748},{"duration":0.10000000000000853,"midi":71,"time":98.2,"velocity":0.3937007874015748},{"duration":0.09999999999999432,"midi":73,"time":98.30000000000001,"velocity":0.3937007874015748},{"duration":0.10000000000000853,"midi":71,"time":98.5,"velocity":0.3937007874015748},{"duration":0.09999999999999432,"midi":68,"time":98.60000000000001,"velocity":0.3937007874015748},{"duration":0.09999999999999432,"midi":71,"time":98.9,"velocity":0.3937007874015748},{"duration":0.10000000000000853,"midi":75,"time":99.2,"velocity":0.3937007874015748},{"duration":0.09999999999999432,"midi":75,"time":99.4,"velocity":0.3937007874015748}]},{"instrument":{"family":"brass","number":57,"name":"trombone"},"notes":[{"duration":0.5999999999999943,"midi":52,"time":34.800000000000004,"velocity":0.3937007874015748},{"duration":0.5999999999999943,"midi":64,"time":34.800000000000004,"velocity":0.3937007874015748},{"duration":0.6000000000000014,"midi":66,"time":35.4,"velocity":0.3937007874015748},{"duration":0.6000000000000014,"midi":54,"time":35.4,"velocity":0.3937007874015748},{"duration":0.6000000000000014,"midi":68,"time":36,"velocity":0.3937007874015748},{"duration":0.6000000000000014,"midi":56,"time":36,"velocity":0.3937007874015748},{"duration":0.20000000000000284,"midi":58,"time":36.6,"velocity":0.3937007874015748},{"duration":0.20000000000000284,"midi":70,"time":36.6,"velocity":0.3937007874015748},{"duration":0.09999999999999432,"midi":71,"time":36.800000000000004,"velocity":0.3937007874015748},{"duration":0.09999999999999432,"midi":59,"time":36.800000000000004,"velocity":0.3937007874015748},{"duration":1.2000000000000028,"midi":70,"time":37.1,"velocity":0.3937007874015748},{"duration":1.2000000000000028,"midi":58,"time":37.1,"velocity":0.3937007874015748}]},{"instrument":{"family":"synth lead","number":82,"name":"lead 3 (calliope)"},"notes":[{"duration":3.700000000000003,"midi":68,"time":85.10000000000001,"velocity":0.3937007874015748},{"duration":3.700000000000003,"midi":63,"time":85.10000000000001,"velocity":0.3937007874015748}]},{"instrument":{"family":"synth lead","number":80,"name":"lead 1 (square)"},"notes":[{"duration":0.10000000000000003,"midi":55,"time":0.2,"velocity":0.3937007874015748},{"duration":0.19999999999999996,"midi":56,"time":0.30000000000000004,"velocity":0.3937007874015748},{"duration":0.10000000000000009,"midi":58,"time":0.5,"velocity":0.3937007874015748},{"duration":0.19999999999999996,"midi":59,"time":0.6000000000000001,"velocity":0.3937007874015748},{"duration":0.09999999999999998,"midi":61,"time":0.8,"velocity":0.3937007874015748},{"duration":0.20000000000000007,"midi":63,"time":0.9,"velocity":0.3937007874015748},{"duration":0.10000000000000009,"midi":64,"time":1.1,"velocity":0.3937007874015748},{"duration":2.4,"midi":47,"time":1.2000000000000002,"velocity":0.3937007874015748},{"duration":2.4,"midi":51,"time":1.2000000000000002,"velocity":0.3937007874015748},{"duration":2.4,"midi":56,"time":1.2000000000000002,"velocity":0.3937007874015748},{"duration":1.2999999999999998,"midi":63,"time":1.2000000000000002,"velocity":0.3937007874015748},{"duration":0.10000000000000009,"midi":63,"time":2.6,"velocity":0.3937007874015748},{"duration":0.20000000000000018,"midi":62,"time":2.7,"velocity":0.3937007874015748},{"duration":0.09999999999999964,"midi":63,"time":2.9000000000000004,"velocity":0.3937007874015748},{"duration":0.20000000000000018,"midi":62,"time":3,"velocity":0.3937007874015748},{"duration":0.10000000000000009,"midi":63,"time":3.2,"velocity":0.3937007874015748},{"duration":0.19999999999999973,"midi":62,"time":3.3000000000000003,"velocity":0.3937007874015748},{"duration":0.10000000000000009,"midi":63,"time":3.5,"velocity":0.3937007874015748},{"duration":0.5000000000000004,"midi":59,"time":3.6,"velocity":0.3937007874015748},{"duration":1.8000000000000003,"midi":52,"time":3.6,"velocity":0.3937007874015748},{"duration":1.8000000000000003,"midi":44,"time":3.6,"velocity":0.3937007874015748},{"duration":1.8000000000000003,"midi":47,"time":3.6,"velocity":0.3937007874015748},{"duration":0.7999999999999998,"midi":56,"time":4.1000000000000005,"velocity":0.3937007874015748},{"duration":0.10000000000000053,"midi":55,"time":5,"velocity":0.3937007874015748},{"duration":0.20000000000000018,"midi":56,"time":5.1000000000000005,"velocity":0.3937007874015748},{"duration":0.09999999999999964,"midi":58,"time":5.300000000000001,"velocity":0.3937007874015748},{"duration":0.5999999999999996,"midi":49,"time":5.4,"velocity":0.3937007874015748},{"duration":0.5999999999999996,"midi":46,"time":5.4,"velocity":0.3937007874015748},{"duration":0.20000000000000018,"midi":59,"time":5.4,"velocity":0.3937007874015748},{"duration":0.5999999999999996,"midi":54,"time":5.4,"velocity":0.3937007874015748},{"duration":0.09999999999999964,"midi":61,"time":5.6000000000000005,"velocity":0.3937007874015748},{"duration":0.20000000000000018,"midi":63,"time":5.7,"velocity":0.3937007874015748},{"duration":0.09999999999999964,"midi":64,"time":5.9,"velocity":0.3937007874015748},{"duration":1.3000000000000007,"midi":63,"time":6,"velocity":0.3937007874015748},{"duration":2.4000000000000004,"midi":56,"time":6,"velocity":0.3937007874015748},{"duration":2.4000000000000004,"midi":51,"time":6,"velocity":0.3937007874015748},{"duration":2.4000000000000004,"midi":47,"time":6,"velocity":0.3937007874015748},{"duration":0.09999999999999964,"midi":68,"time":7.4,"velocity":0.3937007874015748},{"duration":0.20000000000000018,"midi":66,"time":7.5,"velocity":0.3937007874015748},{"duration":0.10000000000000053,"midi":63,"time":7.7,"velocity":0.3937007874015748},{"duration":0.1999999999999993,"midi":61,"time":7.800000000000001,"velocity":0.3937007874015748},{"duration":0.09999999999999964,"midi":66,"time":8,"velocity":0.3937007874015748},{"duration":0.20000000000000107,"midi":63,"time":8.1,"velocity":0.3937007874015748},{"duration":0.09999999999999964,"midi":59,"time":8.3,"velocity":0.3937007874015748},{"duration":2.4000000000000004,"midi":52,"time":8.4,"velocity":0.3937007874015748},{"duration":1.3000000000000007,"midi":56,"time":8.4,"velocity":0.3937007874015748},{"duration":2.4000000000000004,"midi":44,"time":8.4,"velocity":0.3937007874015748},{"duration":2.4000000000000004,"midi":47,"time":8.4,"velocity":0.3937007874015748},{"duration":0.09999999999999964,"midi":55,"time":9.8,"velocity":0.3937007874015748},{"duration":0.20000000000000107,"midi":56,"time":9.9,"velocity":0.3937007874015748},{"duration":0.09999999999999964,"midi":58,"time":10.100000000000001,"velocity":0.3937007874015748},{"duration":0.1999999999999993,"midi":59,"time":10.200000000000001,"velocity":0.3937007874015748},{"duration":0.09999999999999964,"midi":61,"time":10.4,"velocity":0.3937007874015748},{"duration":0.20000000000000107,"midi":63,"time":10.5,"velocity":0.3937007874015748},{"duration":0.09999999999999964,"midi":64,"time":10.700000000000001,"velocity":0.3937007874015748},{"duration":1.0999999999999996,"midi":47,"time":10.8,"velocity":0.3937007874015748},{"duration":1.0999999999999996,"midi":56,"time":10.8,"velocity":0.3937007874015748},{"duration":1.0999999999999996,"midi":52,"time":10.8,"velocity":0.3937007874015748},{"duration":0.3000000000000007,"midi":63,"time":10.8,"velocity":0.3937007874015748},{"duration":0.29999999999999893,"midi":64,"time":11.100000000000001,"velocity":0.3937007874015748},{"duration":0.20000000000000107,"midi":63,"time":11.4,"velocity":0.3937007874015748},{"duration":0.29999999999999893,"midi":64,"time":11.600000000000001,"velocity":0.3937007874015748},{"duration":0.27500000000000036,"midi":63,"time":11.9,"velocity":0.3937007874015748},{"duration":0.7000000000000011,"midi":51,"time":11.9,"velocity":0.3937007874015748},{"duration":0.7000000000000011,"midi":46,"time":11.9,"velocity":0.3937007874015748},{"duration":0.7000000000000011,"midi":55,"time":11.9,"velocity":0.3937007874015748},{"duration":0.09999999999999964,"midi":63,"time":12.200000000000001,"velocity":0.3937007874015748},{"duration":0.3000000000000007,"midi":61,"time":12.3,"velocity":0.3937007874015748},{"duration":0.29999999999999893,"midi":47,"time":12.600000000000001,"velocity":0.3937007874015748},{"duration":0.29999999999999893,"midi":52,"time":12.600000000000001,"velocity":0.3937007874015748},{"duration":0.29999999999999893,"midi":56,"time":12.600000000000001,"velocity":0.3937007874015748},{"duration":0.29999999999999893,"midi":59,"time":12.600000000000001,"velocity":0.3937007874015748},{"duration":0.3000000000000007,"midi":46,"time":12.9,"velocity":0.3937007874015748},{"duration":0.3000000000000007,"midi":51,"time":12.9,"velocity":0.3937007874015748},{"duration":0.3000000000000007,"midi":58,"time":12.9,"velocity":0.3937007874015748},{"duration":0.3000000000000007,"midi":55,"time":12.9,"velocity":0.3937007874015748},{"duration":0.1999999999999993,"midi":59,"time":13.200000000000001,"velocity":0.3937007874015748},{"duration":0.5999999999999996,"midi":56,"time":13.200000000000001,"velocity":0.3937007874015748},{"duration":0.5999999999999996,"midi":51,"time":13.200000000000001,"velocity":0.3937007874015748},{"duration":0.5999999999999996,"midi":47,"time":13.200000000000001,"velocity":0.3937007874015748},{"duration":0.20000000000000107,"midi":61,"time":13.4,"velocity":0.3937007874015748},{"duration":0.1999999999999993,"midi":63,"time":13.700000000000001,"velocity":0.3937007874015748},{"duration":0.5,"midi":51,"time":13.8,"velocity":0.3937007874015748},{"duration":0.5,"midi":46,"time":13.8,"velocity":0.3937007874015748},{"duration":0.5,"midi":54,"time":13.8,"velocity":0.3937007874015748},{"duration":0.20000000000000107,"midi":59,"time":14,"velocity":0.3937007874015748},{"duration":1.3000000000000007,"midi":56,"time":14.3,"velocity":0.3937007874015748},{"duration":1.3000000000000007,"midi":61,"time":14.3,"velocity":0.3937007874015748},{"duration":1.3000000000000007,"midi":53,"time":14.3,"velocity":0.3937007874015748},{"duration":1.3000000000000007,"midi":49,"time":14.3,"velocity":0.3937007874015748},{"duration":1.3000000000000007,"midi":44,"time":14.3,"velocity":0.3937007874015748},{"duration":0.5999999999999979,"midi":44,"time":15.600000000000001,"velocity":0.3937007874015748},{"duration":0.5999999999999979,"midi":47,"time":15.600000000000001,"velocity":0.3937007874015748},{"duration":0.5999999999999979,"midi":52,"time":15.600000000000001,"velocity":0.3937007874015748},{"duration":0.5999999999999979,"midi":56,"time":15.600000000000001,"velocity":0.3937007874015748},{"duration":0.6000000000000014,"midi":46,"time":16.2,"velocity":0.3937007874015748},{"duration":0.6000000000000014,"midi":58,"time":16.2,"velocity":0.3937007874015748},{"duration":0.6000000000000014,"midi":54,"time":16.2,"velocity":0.3937007874015748},{"duration":0.6000000000000014,"midi":49,"time":16.2,"velocity":0.3937007874015748},{"duration":0.6000000000000014,"midi":47,"time":16.8,"velocity":0.3937007874015748},{"duration":0.6000000000000014,"midi":59,"time":16.8,"velocity":0.3937007874015748},{"duration":0.6000000000000014,"midi":52,"time":16.8,"velocity":0.3937007874015748},{"duration":0.6000000000000014,"midi":56,"time":16.8,"velocity":0.3937007874015748},{"duration":0.1999999999999993,"midi":46,"time":17.400000000000002,"velocity":0.3937007874015748},{"duration":0.1999999999999993,"midi":51,"time":17.400000000000002,"velocity":0.3937007874015748},{"duration":0.1999999999999993,"midi":55,"time":17.400000000000002,"velocity":0.3937007874015748},{"duration":0.1999999999999993,"midi":58,"time":17.400000000000002,"velocity":0.3937007874015748},{"duration":0.09999999999999787,"midi":59,"time":17.6,"velocity":0.3937007874015748},{"duration":1.3000000000000007,"midi":51,"time":17.900000000000002,"velocity":0.3937007874015748},{"duration":1.3000000000000007,"midi":55,"time":17.900000000000002,"velocity":0.3937007874015748},{"duration":1.3000000000000007,"midi":58,"time":17.900000000000002,"velocity":0.3937007874015748},{"duration":1,"midi":63,"time":19.200000000000003,"velocity":0.3937007874015748},{"duration":0.29999999999999716,"midi":55,"time":19.200000000000003,"velocity":0.3937007874015748},{"duration":0.5999999999999979,"midi":58,"time":19.200000000000003,"velocity":0.3937007874015748},{"duration":0.8999999999999986,"midi":55,"time":19.400000000000002,"velocity":0.3937007874015748},{"duration":0.20000000000000284,"midi":56,"time":19.5,"velocity":0.3937007874015748},{"duration":0.5999999999999979,"midi":58,"time":19.700000000000003,"velocity":0.3937007874015748},{"duration":0.1999999999999993,"midi":59,"time":19.8,"velocity":0.3937007874015748},{"duration":0.10000000000000142,"midi":61,"time":20,"velocity":0.3937007874015748},{"duration":0.1999999999999993,"midi":63,"time":20.1,"velocity":0.3937007874015748},{"duration":0.10000000000000142,"midi":55,"time":20.3,"velocity":0.3937007874015748},{"duration":0.10000000000000142,"midi":58,"time":20.3,"velocity":0.3937007874015748},{"duration":0.10000000000000142,"midi":63,"time":20.3,"velocity":0.3937007874015748},{"duration":0.10000000000000142,"midi":64,"time":20.3,"velocity":0.3937007874015748},{"duration":2.3999999999999986,"midi":47,"time":20.400000000000002,"velocity":0.3937007874015748},{"duration":1.3000000000000007,"midi":63,"time":20.400000000000002,"velocity":0.3937007874015748},{"duration":2.3999999999999986,"midi":51,"time":20.400000000000002,"velocity":0.3937007874015748},{"duration":2.3999999999999986,"midi":56,"time":20.400000000000002,"velocity":0.3937007874015748},{"duration":0.10000000000000142,"midi":63,"time":21.8,"velocity":0.3937007874015748},{"duration":0.1999999999999993,"midi":62,"time":21.900000000000002,"velocity":0.3937007874015748},{"duration":0.10000000000000142,"midi":63,"time":22.1,"velocity":0.3937007874015748},{"duration":0.1999999999999993,"midi":62,"time":22.200000000000003,"velocity":0.3937007874015748},{"duration":0.09999999999999787,"midi":63,"time":22.400000000000002,"velocity":0.3937007874015748},{"duration":0.20000000000000284,"midi":62,"time":22.5,"velocity":0.3937007874015748},{"duration":0.09999999999999787,"midi":63,"time":22.700000000000003,"velocity":0.3937007874015748},{"duration":0.5,"midi":59,"time":22.8,"velocity":0.3937007874015748},{"duration":1.8000000000000007,"midi":52,"time":22.8,"velocity":0.3937007874015748},{"duration":1.8000000000000007,"midi":47,"time":22.8,"velocity":0.3937007874015748},{"duration":1.8000000000000007,"midi":44,"time":22.8,"velocity":0.3937007874015748},{"duration":0.10000000000000142,"midi":68,"time":23.1,"velocity":0.3937007874015748},{"duration":0.10000000000000142,"midi":63,"time":23.3,"velocity":0.3937007874015748},{"duration":0.5,"midi":56,"time":23.3,"velocity":0.3937007874015748},{"duration":0.09999999999999787,"midi":61,"time":23.400000000000002,"velocity":0.3937007874015748},{"duration":0.10000000000000142,"midi":59,"time":23.6,"velocity":0.3937007874015748},{"duration":0.3999999999999986,"midi":56,"time":23.700000000000003,"velocity":0.3937007874015748},{"duration":0.09999999999999787,"midi":54,"time":23.900000000000002,"velocity":0.3937007874015748},{"duration":0.10000000000000142,"midi":56,"time":24,"velocity":0.3937007874015748},{"duration":0.09999999999999787,"midi":55,"time":24.200000000000003,"velocity":0.3937007874015748},{"duration":0.1999999999999993,"midi":56,"time":24.3,"velocity":0.3937007874015748},{"duration":0.10000000000000142,"midi":58,"time":24.5,"velocity":0.3937007874015748},{"duration":0.1999999999999993,"midi":59,"time":24.6,"velocity":0.3937007874015748},{"duration":0.6000000000000014,"midi":54,"time":24.6,"velocity":0.3937007874015748},{"duration":0.6000000000000014,"midi":49,"time":24.6,"velocity":0.3937007874015748},{"duration":0.6000000000000014,"midi":46,"time":24.6,"velocity":0.3937007874015748},{"duration":0.10000000000000142,"midi":61,"time":24.8,"velocity":0.3937007874015748},{"duration":0.1999999999999993,"midi":63,"time":24.900000000000002,"velocity":0.3937007874015748},{"duration":0.10000000000000142,"midi":64,"time":25.1,"velocity":0.3937007874015748},{"duration":2.3999999999999986,"midi":51,"time":25.200000000000003,"velocity":0.3937007874015748},{"duration":2.3999999999999986,"midi":56,"time":25.200000000000003,"velocity":0.3937007874015748},{"duration":2.3999999999999986,"midi":47,"time":25.200000000000003,"velocity":0.3937007874015748},{"duration":1.2999999999999972,"midi":63,"time":25.200000000000003,"velocity":0.3937007874015748},{"duration":0.10000000000000142,"midi":68,"time":26.6,"velocity":0.3937007874015748},{"duration":0.1999999999999993,"midi":66,"time":26.700000000000003,"velocity":0.3937007874015748},{"duration":0.09999999999999787,"midi":63,"time":26.900000000000002,"velocity":0.3937007874015748},{"duration":0.20000000000000284,"midi":61,"time":27,"velocity":0.3937007874015748},{"duration":0.09999999999999787,"midi":66,"time":27.200000000000003,"velocity":0.3937007874015748},{"duration":0.1999999999999993,"midi":63,"time":27.3,"velocity":0.3937007874015748},{"duration":0.10000000000000142,"midi":59,"time":27.5,"velocity":0.3937007874015748},{"duration":1.1999999999999993,"midi":56,"time":27.6,"velocity":0.3937007874015748},{"duration":2.3999999999999986,"midi":44,"time":27.6,"velocity":0.3937007874015748},{"duration":2.3999999999999986,"midi":47,"time":27.6,"velocity":0.3937007874015748},{"duration":2.3999999999999986,"midi":52,"time":27.6,"velocity":0.3937007874015748},{"duration":0.09999999999999787,"midi":68,"time":27.900000000000002,"velocity":0.3937007874015748},{"duration":0.10000000000000142,"midi":63,"time":28.1,"velocity":0.3937007874015748},{"duration":0.09999999999999787,"midi":61,"time":28.200000000000003,"velocity":0.3937007874015748},{"duration":0.09999999999999787,"midi":63,"time":28.400000000000002,"velocity":0.3937007874015748},{"duration":0.10000000000000142,"midi":61,"time":28.5,"velocity":0.3937007874015748},{"duration":0.09999999999999787,"midi":56,"time":28.700000000000003,"velocity":0.3937007874015748},{"duration":0.1999999999999993,"midi":56,"time":28.700000000000003,"velocity":0.3937007874015748},{"duration":0.10000000000000142,"midi":59,"time":28.8,"velocity":0.3937007874015748},{"duration":0.10000000000000142,"midi":55,"time":29,"velocity":0.3937007874015748},{"duration":0.1999999999999993,"midi":56,"time":29.1,"velocity":0.3937007874015748},{"duration":0.10000000000000142,"midi":58,"time":29.3,"velocity":0.3937007874015748},{"duration":0.1999999999999993,"midi":59,"time":29.400000000000002,"velocity":0.3937007874015748},{"duration":0.10000000000000142,"midi":61,"time":29.6,"velocity":0.3937007874015748},{"duration":0.1999999999999993,"midi":63,"time":29.700000000000003,"velocity":0.3937007874015748},{"duration":0.09999999999999787,"midi":64,"time":29.900000000000002,"velocity":0.3937007874015748},{"duration":0.3000000000000007,"midi":63,"time":30,"velocity":0.3937007874015748},{"duration":0.3000000000000007,"midi":56,"time":30,"velocity":0.3937007874015748},{"duration":0.8000000000000007,"midi":56,"time":30,"velocity":0.3937007874015748},{"duration":1.1000000000000014,"midi":52,"time":30,"velocity":0.3937007874015748},{"duration":1.1000000000000014,"midi":47,"time":30,"velocity":0.3937007874015748},{"duration":0.3000000000000007,"midi":54,"time":30.3,"velocity":0.3937007874015748},{"duration":0.3000000000000007,"midi":64,"time":30.3,"velocity":0.3937007874015748},{"duration":0.1999999999999993,"midi":63,"time":30.6,"velocity":0.3937007874015748},{"duration":0.5,"midi":56,"time":30.6,"velocity":0.3937007874015748},{"duration":0.3000000000000007,"midi":64,"time":30.8,"velocity":0.3937007874015748},{"duration":0.3000000000000007,"midi":59,"time":30.8,"velocity":0.3937007874015748},{"duration":0.3000000000000007,"midi":56,"time":31.1,"velocity":0.3937007874015748},{"duration":0.6999999999999993,"midi":46,"time":31.1,"velocity":0.3937007874015748},{"duration":0.2749999999999986,"midi":63,"time":31.1,"velocity":0.3937007874015748},{"duration":0.6999999999999993,"midi":51,"time":31.1,"velocity":0.3937007874015748},{"duration":0.6999999999999993,"midi":55,"time":31.1,"velocity":0.3937007874015748},{"duration":0.09999999999999787,"midi":63,"time":31.400000000000002,"velocity":0.3937007874015748},{"duration":0.09999999999999787,"midi":56,"time":31.400000000000002,"velocity":0.3937007874015748},{"duration":0.3000000000000007,"midi":54,"time":31.5,"velocity":0.3937007874015748},{"duration":0.3000000000000007,"midi":61,"time":31.5,"velocity":0.3937007874015748},{"duration":0.3000000000000007,"midi":51,"time":31.8,"velocity":0.3937007874015748},{"duration":0.3000000000000007,"midi":56,"time":31.8,"velocity":0.3937007874015748},{"duration":0.3000000000000007,"midi":59,"time":31.8,"velocity":0.3937007874015748},{"duration":0.3000000000000007,"midi":47,"time":31.8,"velocity":0.3937007874015748},{"duration":0.3000000000000007,"midi":52,"time":31.8,"velocity":0.3937007874015748},{"duration":0.29999999999999716,"midi":49,"time":32.1,"velocity":0.3937007874015748},{"duration":0.29999999999999716,"midi":46,"time":32.1,"velocity":0.3937007874015748},{"duration":0.29999999999999716,"midi":58,"time":32.1,"velocity":0.3937007874015748},{"duration":0.29999999999999716,"midi":51,"time":32.1,"velocity":0.3937007874015748},{"duration":0.29999999999999716,"midi":55,"time":32.1,"velocity":0.3937007874015748},{"duration":0.20000000000000284,"midi":51,"time":32.4,"velocity":0.3937007874015748},{"duration":0.20000000000000284,"midi":59,"time":32.4,"velocity":0.3937007874015748},{"duration":0.6000000000000014,"midi":47,"time":32.4,"velocity":0.3937007874015748},{"duration":0.4000000000000057,"midi":56,"time":32.4,"velocity":0.3937007874015748},{"duration":0.6000000000000014,"midi":51,"time":32.4,"velocity":0.3937007874015748},{"duration":0.3999999999999986,"midi":56,"time":32.6,"velocity":0.3937007874015748},{"duration":0.20000000000000284,"midi":61,"time":32.6,"velocity":0.3937007874015748},{"duration":0.20000000000000284,"midi":59,"time":32.9,"velocity":0.3937007874015748},{"duration":0.20000000000000284,"midi":63,"time":32.9,"velocity":0.3937007874015748},{"duration":0.5,"midi":51,"time":33,"velocity":0.3937007874015748},{"duration":0.5,"midi":54,"time":33,"velocity":0.3937007874015748},{"duration":0.5,"midi":46,"time":33,"velocity":0.3937007874015748},{"duration":0.19999999999999574,"midi":59,"time":33.2,"velocity":0.3937007874015748},{"duration":1.3000000000000043,"midi":56,"time":33.5,"velocity":0.3937007874015748},{"duration":1.3000000000000043,"midi":53,"time":33.5,"velocity":0.3937007874015748},{"duration":1.3000000000000043,"midi":44,"time":33.5,"velocity":0.3937007874015748},{"duration":1.3000000000000043,"midi":61,"time":33.5,"velocity":0.3937007874015748},{"duration":1.3000000000000043,"midi":49,"time":33.5,"velocity":0.3937007874015748},{"duration":0.5999999999999943,"midi":52,"time":34.800000000000004,"velocity":0.3937007874015748},{"duration":0.6000000000000014,"midi":54,"time":35.4,"velocity":0.3937007874015748},{"duration":0.6000000000000014,"midi":56,"time":36,"velocity":0.3937007874015748},{"duration":0.20000000000000284,"midi":58,"time":36.6,"velocity":0.3937007874015748},{"duration":0.09999999999999432,"midi":59,"time":36.800000000000004,"velocity":0.3937007874015748},{"duration":1.2000000000000028,"midi":58,"time":37.1,"velocity":0.3937007874015748},{"duration":0.10000000000000142,"midi":68,"time":43.7,"velocity":0.3937007874015748},{"duration":0.09999999999999432,"midi":66,"time":43.900000000000006,"velocity":0.3937007874015748},{"duration":0.10000000000000142,"midi":63,"time":44,"velocity":0.3937007874015748},{"duration":0.10000000000000142,"midi":59,"time":44.2,"velocity":0.3937007874015748},{"duration":0.10000000000000142,"midi":61,"time":44.300000000000004,"velocity":0.3937007874015748},{"duration":1,"midi":68,"time":44.5,"velocity":0.3937007874015748},{"duration":0.5,"midi":63,"time":45.5,"velocity":0.3937007874015748},{"duration":0.30000000000000426,"midi":71,"time":46,"velocity":0.3937007874015748},{"duration":0.10000000000000142,"midi":66,"time":46.300000000000004,"velocity":0.3937007874015748},{"duration":0.10000000000000142,"midi":61,"time":46.6,"velocity":0.3937007874015748},{"duration":0.10000000000000142,"midi":64,"time":46.7,"velocity":0.3937007874015748},{"duration":0.10000000000000142,"midi":63,"time":47,"velocity":0.3937007874015748},{"duration":0.10000000000000142,"midi":61,"time":47.300000000000004,"velocity":0.3937007874015748},{"duration":0.10000000000000142,"midi":58,"time":47.5,"velocity":0.3937007874015748},{"duration":0.10000000000000142,"midi":56,"time":47.800000000000004,"velocity":0.3937007874015748},{"duration":0.09999999999999432,"midi":59,"time":47.900000000000006,"velocity":0.3937007874015748},{"duration":0.10000000000000142,"midi":61,"time":48.1,"velocity":0.3937007874015748},{"duration":0.10000000000000142,"midi":63,"time":48.2,"velocity":0.3937007874015748},{"duration":0.09999999999999432,"midi":68,"time":48.400000000000006,"velocity":0.3937007874015748},{"duration":0.10000000000000142,"midi":66,"time":48.7,"velocity":0.3937007874015748},{"duration":0.10000000000000142,"midi":61,"time":49,"velocity":0.3937007874015748},{"duration":0.20000000000000284,"midi":56,"time":49.1,"velocity":0.3937007874015748},{"duration":0.20000000000000284,"midi":64,"time":49.1,"velocity":0.3937007874015748},{"duration":0.10000000000000142,"midi":63,"time":49.300000000000004,"velocity":0.3937007874015748},{"duration":0.10000000000000142,"midi":54,"time":49.300000000000004,"velocity":0.3937007874015748},{"duration":0.19999999999999574,"midi":64,"time":49.400000000000006,"velocity":0.3937007874015748},{"duration":0.19999999999999574,"midi":56,"time":49.400000000000006,"velocity":0.3937007874015748},{"duration":0.10000000000000142,"midi":66,"time":49.6,"velocity":0.3937007874015748},{"duration":0.10000000000000142,"midi":58,"time":49.6,"velocity":0.3937007874015748},{"duration":0.20000000000000284,"midi":68,"time":49.7,"velocity":0.3937007874015748},{"duration":0.20000000000000284,"midi":59,"time":49.7,"velocity":0.3937007874015748},{"duration":0.09999999999999432,"midi":70,"time":49.900000000000006,"velocity":0.3937007874015748},{"duration":0.09999999999999432,"midi":61,"time":49.900000000000006,"velocity":0.3937007874015748},{"duration":0.20000000000000284,"midi":71,"time":50,"velocity":0.3937007874015748},{"duration":0.20000000000000284,"midi":63,"time":50,"velocity":0.3937007874015748},{"duration":0.10000000000000142,"midi":68,"time":50.2,"velocity":0.3937007874015748},{"duration":0.10000000000000142,"midi":61,"time":50.2,"velocity":0.3937007874015748},{"duration":0.19999999999999574,"midi":63,"time":50.300000000000004,"velocity":0.3937007874015748},{"duration":0.19999999999999574,"midi":70,"time":50.300000000000004,"velocity":0.3937007874015748},{"duration":0.10000000000000142,"midi":58,"time":50.5,"velocity":0.3937007874015748},{"duration":0.10000000000000142,"midi":66,"time":50.5,"velocity":0.3937007874015748},{"duration":0.20000000000000284,"midi":63,"time":50.6,"velocity":0.3937007874015748},{"duration":0.20000000000000284,"midi":54,"time":50.6,"velocity":0.3937007874015748},{"duration":0.10000000000000142,"midi":51,"time":50.800000000000004,"velocity":0.3937007874015748},{"duration":0.10000000000000142,"midi":61,"time":50.800000000000004,"velocity":0.3937007874015748},{"duration":0.19999999999999574,"midi":63,"time":50.900000000000006,"velocity":0.3937007874015748},{"duration":0.19999999999999574,"midi":54,"time":50.900000000000006,"velocity":0.3937007874015748},{"duration":0.3999999999999986,"midi":66,"time":51.1,"velocity":0.3937007874015748},{"duration":0.3999999999999986,"midi":58,"time":51.1,"velocity":0.3937007874015748},{"duration":0.20000000000000284,"midi":68,"time":51.5,"velocity":0.3937007874015748},{"duration":0.20000000000000284,"midi":59,"time":51.5,"velocity":0.3937007874015748},{"duration":0.10000000000000142,"midi":56,"time":51.7,"velocity":0.3937007874015748},{"duration":0.10000000000000142,"midi":64,"time":51.7,"velocity":0.3937007874015748},{"duration":0.19999999999999574,"midi":61,"time":51.800000000000004,"velocity":0.3937007874015748},{"duration":0.19999999999999574,"midi":52,"time":51.800000000000004,"velocity":0.3937007874015748},{"duration":0.10000000000000142,"midi":59,"time":52,"velocity":0.3937007874015748},{"duration":0.10000000000000142,"midi":51,"time":52,"velocity":0.3937007874015748},{"duration":0.20000000000000284,"midi":58,"time":52.1,"velocity":0.3937007874015748},{"duration":0.20000000000000284,"midi":49,"time":52.1,"velocity":0.3937007874015748},{"duration":0.19999999999999574,"midi":63,"time":52.300000000000004,"velocity":0.3937007874015748},{"duration":0.19999999999999574,"midi":55,"time":52.300000000000004,"velocity":0.3937007874015748},{"duration":0.10000000000000142,"midi":58,"time":52.6,"velocity":0.3937007874015748},{"duration":0.10000000000000142,"midi":49,"time":52.6,"velocity":0.3937007874015748},{"duration":0.20000000000000284,"midi":59,"time":52.7,"velocity":0.3937007874015748},{"duration":0.20000000000000284,"midi":51,"time":52.7,"velocity":0.3937007874015748},{"duration":0.09999999999999432,"midi":56,"time":52.900000000000006,"velocity":0.3937007874015748},{"duration":0.09999999999999432,"midi":47,"time":52.900000000000006,"velocity":0.3937007874015748},{"duration":0.20000000000000284,"midi":51,"time":53,"velocity":0.3937007874015748},{"duration":0.20000000000000284,"midi":44,"time":53,"velocity":0.3937007874015748},{"duration":0.29999999999999716,"midi":54,"time":53.2,"velocity":0.3937007874015748},{"duration":0.29999999999999716,"midi":61,"time":53.2,"velocity":0.3937007874015748},{"duration":0.10000000000000142,"midi":59,"time":53.5,"velocity":0.3937007874015748},{"duration":0.10000000000000142,"midi":49,"time":53.5,"velocity":0.3937007874015748},{"duration":0.30000000000000426,"midi":63,"time":53.6,"velocity":0.3937007874015748},{"duration":0.30000000000000426,"midi":56,"time":53.6,"velocity":0.3937007874015748},{"duration":0.19999999999999574,"midi":64,"time":53.900000000000006,"velocity":0.3937007874015748},{"duration":0.19999999999999574,"midi":56,"time":53.900000000000006,"velocity":0.3937007874015748},{"duration":0.10000000000000142,"midi":63,"time":54.1,"velocity":0.3937007874015748},{"duration":0.10000000000000142,"midi":54,"time":54.1,"velocity":0.3937007874015748},{"duration":0.20000000000000284,"midi":64,"time":54.2,"velocity":0.3937007874015748},{"duration":0.20000000000000284,"midi":56,"time":54.2,"velocity":0.3937007874015748},{"duration":0.09999999999999432,"midi":66,"time":54.400000000000006,"velocity":0.3937007874015748},{"duration":0.09999999999999432,"midi":58,"time":54.400000000000006,"velocity":0.3937007874015748},{"duration":0.20000000000000284,"midi":59,"time":54.5,"velocity":0.3937007874015748},{"duration":0.20000000000000284,"midi":68,"time":54.5,"velocity":0.3937007874015748},{"duration":0.10000000000000142,"midi":70,"time":54.7,"velocity":0.3937007874015748},{"duration":0.10000000000000142,"midi":61,"time":54.7,"velocity":0.3937007874015748},{"duration":0.19999999999999574,"midi":63,"time":54.800000000000004,"velocity":0.3937007874015748},{"duration":0.19999999999999574,"midi":71,"time":54.800000000000004,"velocity":0.3937007874015748},{"duration":0.10000000000000142,"midi":61,"time":55,"velocity":0.3937007874015748},{"duration":0.10000000000000142,"midi":68,"time":55,"velocity":0.3937007874015748},{"duration":0.20000000000000284,"midi":70,"time":55.1,"velocity":0.3937007874015748},{"duration":0.20000000000000284,"midi":63,"time":55.1,"velocity":0.3937007874015748},{"duration":0.10000000000000142,"midi":66,"time":55.300000000000004,"velocity":0.3937007874015748},{"duration":0.10000000000000142,"midi":58,"time":55.300000000000004,"velocity":0.3937007874015748},{"duration":0.19999999999999574,"midi":63,"time":55.400000000000006,"velocity":0.3937007874015748},{"duration":0.19999999999999574,"midi":54,"time":55.400000000000006,"velocity":0.3937007874015748},{"duration":0.10000000000000142,"midi":61,"time":55.6,"velocity":0.3937007874015748},{"duration":0.10000000000000142,"midi":51,"time":55.6,"velocity":0.3937007874015748},{"duration":0.20000000000000284,"midi":54,"time":55.7,"velocity":0.3937007874015748},{"duration":0.20000000000000284,"midi":63,"time":55.7,"velocity":0.3937007874015748},{"duration":0.3999999999999986,"midi":66,"time":55.900000000000006,"velocity":0.3937007874015748},{"duration":0.3999999999999986,"midi":58,"time":55.900000000000006,"velocity":0.3937007874015748},{"duration":0.19999999999999574,"midi":59,"time":56.300000000000004,"velocity":0.3937007874015748},{"duration":0.19999999999999574,"midi":68,"time":56.300000000000004,"velocity":0.3937007874015748},{"duration":0.10000000000000142,"midi":56,"time":56.5,"velocity":0.3937007874015748},{"duration":0.10000000000000142,"midi":64,"time":56.5,"velocity":0.3937007874015748},{"duration":0.20000000000000284,"midi":61,"time":56.6,"velocity":0.3937007874015748},{"duration":0.20000000000000284,"midi":52,"time":56.6,"velocity":0.3937007874015748},{"duration":0.10000000000000142,"midi":59,"time":56.800000000000004,"velocity":0.3937007874015748},{"duration":0.10000000000000142,"midi":51,"time":56.800000000000004,"velocity":0.3937007874015748},{"duration":0.19999999999999574,"midi":58,"time":56.900000000000006,"velocity":0.3937007874015748},{"duration":0.19999999999999574,"midi":49,"time":56.900000000000006,"velocity":0.3937007874015748},{"duration":0.20000000000000284,"midi":55,"time":57.1,"velocity":0.3937007874015748},{"duration":0.20000000000000284,"midi":63,"time":57.1,"velocity":0.3937007874015748},{"duration":0.09999999999999432,"midi":58,"time":57.400000000000006,"velocity":0.3937007874015748},{"duration":0.09999999999999432,"midi":49,"time":57.400000000000006,"velocity":0.3937007874015748},{"duration":0.20000000000000284,"midi":59,"time":57.5,"velocity":0.3937007874015748},{"duration":0.20000000000000284,"midi":51,"time":57.5,"velocity":0.3937007874015748},{"duration":0.19999999999999574,"midi":59,"time":57.800000000000004,"velocity":0.3937007874015748},{"duration":0.19999999999999574,"midi":51,"time":57.800000000000004,"velocity":0.3937007874015748},{"duration":0.20000000000000284,"midi":51,"time":58.1,"velocity":0.3937007874015748},{"duration":0.20000000000000284,"midi":59,"time":58.1,"velocity":0.3937007874015748},{"duration":0.19999999999999574,"midi":59,"time":58.400000000000006,"velocity":0.3937007874015748},{"duration":0.19999999999999574,"midi":51,"time":58.400000000000006,"velocity":0.3937007874015748},{"duration":0.20000000000000284,"midi":56,"time":58.7,"velocity":0.3937007874015748},{"duration":0.09999999999999432,"midi":52,"time":58.900000000000006,"velocity":0.3937007874015748},{"duration":0.20000000000000284,"midi":49,"time":59,"velocity":0.3937007874015748},{"duration":0.10000000000000142,"midi":47,"time":59.2,"velocity":0.3937007874015748},{"duration":0.19999999999999574,"midi":46,"time":59.300000000000004,"velocity":0.3937007874015748},{"duration":0.30000000000000426,"midi":51,"time":59.5,"velocity":0.3937007874015748},{"duration":0.10000000000000142,"midi":46,"time":59.800000000000004,"velocity":0.3937007874015748},{"duration":0.5,"midi":44,"time":59.900000000000006,"velocity":0.3937007874015748},{"duration":0.04999999999999716,"midi":51,"time":60.400000000000006,"velocity":0.3937007874015748},{"duration":0.04999999999999716,"midi":55,"time":60.45,"velocity":0.3937007874015748},{"duration":0.20000000000000284,"midi":56,"time":60.5,"velocity":0.3937007874015748},{"duration":1.2000000000000028,"midi":51,"time":65.9,"velocity":0.3937007874015748},{"duration":1.2000000000000028,"midi":59,"time":65.9,"velocity":0.3937007874015748},{"duration":1.2000000000000028,"midi":56,"time":65.9,"velocity":0.3937007874015748},{"duration":1.1999999999999886,"midi":58,"time":67.10000000000001,"velocity":0.3937007874015748},{"duration":1.1999999999999886,"midi":55,"time":67.10000000000001,"velocity":0.3937007874015748},{"duration":1.1999999999999886,"midi":51,"time":67.10000000000001,"velocity":0.3937007874015748},{"duration":1.2000000000000028,"midi":51,"time":68.3,"velocity":0.3937007874015748},{"duration":1.2000000000000028,"midi":56,"time":68.3,"velocity":0.3937007874015748},{"duration":1.2000000000000028,"midi":59,"time":68.3,"velocity":0.3937007874015748},{"duration":1.2000000000000028,"midi":51,"time":69.5,"velocity":0.3937007874015748},{"duration":1.2000000000000028,"midi":55,"time":69.5,"velocity":0.3937007874015748},{"duration":1.2000000000000028,"midi":58,"time":69.5,"velocity":0.3937007874015748},{"duration":1.2000000000000028,"midi":59,"time":70.7,"velocity":0.3937007874015748},{"duration":1.2000000000000028,"midi":56,"time":70.7,"velocity":0.3937007874015748},{"duration":1.2000000000000028,"midi":51,"time":70.7,"velocity":0.3937007874015748},{"duration":1.2000000000000028,"midi":49,"time":71.9,"velocity":0.3937007874015748},{"duration":1.2000000000000028,"midi":56,"time":71.9,"velocity":0.3937007874015748},{"duration":1.2000000000000028,"midi":52,"time":71.9,"velocity":0.3937007874015748},{"duration":2.3999999999999915,"midi":58,"time":73.10000000000001,"velocity":0.3937007874015748},{"duration":2.3999999999999915,"midi":55,"time":73.10000000000001,"velocity":0.3937007874015748},{"duration":2.3999999999999915,"midi":51,"time":73.10000000000001,"velocity":0.3937007874015748},{"duration":1.2000000000000028,"midi":56,"time":75.5,"velocity":0.3937007874015748},{"duration":1.2000000000000028,"midi":59,"time":75.5,"velocity":0.3937007874015748},{"duration":1.2000000000000028,"midi":51,"time":75.5,"velocity":0.3937007874015748},{"duration":1.2000000000000028,"midi":55,"time":76.7,"velocity":0.3937007874015748},{"duration":1.2000000000000028,"midi":51,"time":76.7,"velocity":0.3937007874015748},{"duration":1.2000000000000028,"midi":58,"time":76.7,"velocity":0.3937007874015748},{"duration":1.2000000000000028,"midi":59,"time":77.9,"velocity":0.3937007874015748},{"duration":1.2000000000000028,"midi":56,"time":77.9,"velocity":0.3937007874015748},{"duration":1.2000000000000028,"midi":51,"time":77.9,"velocity":0.3937007874015748},{"duration":1.2000000000000028,"midi":51,"time":79.10000000000001,"velocity":0.3937007874015748},{"duration":1.2000000000000028,"midi":58,"time":79.10000000000001,"velocity":0.3937007874015748},{"duration":1.2000000000000028,"midi":55,"time":79.10000000000001,"velocity":0.3937007874015748},{"duration":1.1999999999999886,"midi":59,"time":80.30000000000001,"velocity":0.3937007874015748},{"duration":1.1999999999999886,"midi":56,"time":80.30000000000001,"velocity":0.3937007874015748},{"duration":1.1999999999999886,"midi":51,"time":80.30000000000001,"velocity":0.3937007874015748},{"duration":1.2000000000000028,"midi":49,"time":81.5,"velocity":0.3937007874015748},{"duration":1.2000000000000028,"midi":52,"time":81.5,"velocity":0.3937007874015748},{"duration":1.2000000000000028,"midi":56,"time":81.5,"velocity":0.3937007874015748},{"duration":1.2000000000000028,"midi":49,"time":81.5,"velocity":0.3937007874015748},{"duration":2.4000000000000057,"midi":55,"time":82.7,"velocity":0.3937007874015748},{"duration":2.4000000000000057,"midi":51,"time":82.7,"velocity":0.3937007874015748},{"duration":2.4000000000000057,"midi":58,"time":82.7,"velocity":0.3937007874015748},{"duration":0.20000000000000284,"midi":56,"time":85.10000000000001,"velocity":0.3937007874015748},{"duration":0.20000000000000284,"midi":51,"time":85.10000000000001,"velocity":0.3937007874015748},{"duration":0.20000000000000284,"midi":59,"time":85.10000000000001,"velocity":0.3937007874015748},{"duration":2.4000000000000057,"midi":56,"time":94.7,"velocity":0.3937007874015748},{"duration":2.4000000000000057,"midi":63,"time":94.7,"velocity":0.3937007874015748},{"duration":2.4000000000000057,"midi":59,"time":94.7,"velocity":0.3937007874015748},{"duration":2.3999999999999915,"midi":56,"time":97.10000000000001,"velocity":0.3937007874015748},{"duration":2.3999999999999915,"midi":64,"time":97.10000000000001,"velocity":0.3937007874015748},{"duration":2.3999999999999915,"midi":59,"time":97.10000000000001,"velocity":0.3937007874015748},{"duration":2.4000000000000057,"midi":59,"time":99.5,"velocity":0.3937007874015748},{"duration":2.4000000000000057,"midi":63,"time":99.5,"velocity":0.3937007874015748},{"duration":2.4000000000000057,"midi":56,"time":99.5,"velocity":0.3937007874015748},{"duration":2.4000000000000057,"midi":64,"time":101.9,"velocity":0.3937007874015748},{"duration":2.4000000000000057,"midi":56,"time":101.9,"velocity":0.3937007874015748},{"duration":2.4000000000000057,"midi":59,"time":101.9,"velocity":0.3937007874015748},{"duration":1.1999999999999886,"midi":64,"time":104.30000000000001,"velocity":0.3937007874015748},{"duration":1.1999999999999886,"midi":56,"time":104.30000000000001,"velocity":0.3937007874015748},{"duration":1.1999999999999886,"midi":59,"time":104.30000000000001,"velocity":0.3937007874015748},{"duration":1.1999999999999886,"midi":68,"time":104.30000000000001,"velocity":0.3937007874015748},{"duration":0.6000000000000085,"midi":55,"time":105.5,"velocity":0.3937007874015748},{"duration":0.6000000000000085,"midi":67,"time":105.5,"velocity":0.3937007874015748},{"duration":0.6000000000000085,"midi":63,"time":105.5,"velocity":0.3937007874015748},{"duration":0.6000000000000085,"midi":59,"time":105.5,"velocity":0.3937007874015748},{"duration":0.29999999999999716,"midi":56,"time":106.10000000000001,"velocity":0.3937007874015748},{"duration":0.29999999999999716,"midi":59,"time":106.10000000000001,"velocity":0.3937007874015748},{"duration":0.29999999999999716,"midi":68,"time":106.10000000000001,"velocity":0.3937007874015748},{"duration":0.29999999999999716,"midi":64,"time":106.10000000000001,"velocity":0.3937007874015748},{"duration":0.29999999999999716,"midi":67,"time":106.4,"velocity":0.3937007874015748},{"duration":0.29999999999999716,"midi":58,"time":106.4,"velocity":0.3937007874015748},{"duration":0.29999999999999716,"midi":70,"time":106.4,"velocity":0.3937007874015748},{"duration":0.29999999999999716,"midi":63,"time":106.4,"velocity":0.3937007874015748},{"duration":0.20000000000000284,"midi":59,"time":106.7,"velocity":0.3937007874015748},{"duration":0.20000000000000284,"midi":63,"time":106.7,"velocity":0.3937007874015748},{"duration":0.20000000000000284,"midi":68,"time":106.7,"velocity":0.3937007874015748},{"duration":0.20000000000000284,"midi":71,"time":106.7,"velocity":0.3937007874015748},{"duration":0.20000000000000284,"midi":70,"time":106.9,"velocity":0.3937007874015748},{"duration":0.20000000000000284,"midi":67,"time":106.9,"velocity":0.3937007874015748},{"duration":0.20000000000000284,"midi":63,"time":106.9,"velocity":0.3937007874015748},{"duration":0.20000000000000284,"midi":58,"time":106.9,"velocity":0.3937007874015748},{"duration":0.20000000000000284,"midi":56,"time":107.2,"velocity":0.3937007874015748},{"duration":0.20000000000000284,"midi":63,"time":107.2,"velocity":0.3937007874015748},{"duration":0.20000000000000284,"midi":59,"time":107.2,"velocity":0.3937007874015748},{"duration":0.20000000000000284,"midi":68,"time":107.2,"velocity":0.3937007874015748},{"duration":0.20000000000000284,"midi":66,"time":107.5,"velocity":0.3937007874015748},{"duration":0.20000000000000284,"midi":63,"time":107.5,"velocity":0.3937007874015748},{"duration":0.20000000000000284,"midi":59,"time":107.5,"velocity":0.3937007874015748},{"duration":0.20000000000000284,"midi":54,"time":107.5,"velocity":0.3937007874015748},{"duration":1.2999999999999972,"midi":61,"time":107.80000000000001,"velocity":0.3937007874015748},{"duration":1.2999999999999972,"midi":53,"time":107.80000000000001,"velocity":0.3937007874015748},{"duration":1.2999999999999972,"midi":56,"time":107.80000000000001,"velocity":0.3937007874015748},{"duration":1.2999999999999972,"midi":65,"time":107.80000000000001,"velocity":0.3937007874015748},{"duration":0.5999999999999943,"midi":56,"time":109.10000000000001,"velocity":0.3937007874015748},{"duration":0.5999999999999943,"midi":44,"time":109.10000000000001,"velocity":0.3937007874015748},{"duration":0.5999999999999943,"midi":52,"time":109.10000000000001,"velocity":0.3937007874015748},{"duration":0.5999999999999943,"midi":47,"time":109.10000000000001,"velocity":0.3937007874015748},{"duration":0.6000000000000085,"midi":49,"time":109.7,"velocity":0.3937007874015748},{"duration":0.6000000000000085,"midi":58,"time":109.7,"velocity":0.3937007874015748},{"duration":0.6000000000000085,"midi":54,"time":109.7,"velocity":0.3937007874015748},{"duration":0.6000000000000085,"midi":46,"time":109.7,"velocity":0.3937007874015748},{"duration":0.5999999999999943,"midi":52,"time":110.30000000000001,"velocity":0.3937007874015748},{"duration":0.5999999999999943,"midi":47,"time":110.30000000000001,"velocity":0.3937007874015748},{"duration":0.5999999999999943,"midi":59,"time":110.30000000000001,"velocity":0.3937007874015748},{"duration":0.5999999999999943,"midi":56,"time":110.30000000000001,"velocity":0.3937007874015748},{"duration":0.20000000000000284,"midi":55,"time":110.9,"velocity":0.3937007874015748},{"duration":0.20000000000000284,"midi":58,"time":110.9,"velocity":0.3937007874015748},{"duration":0.20000000000000284,"midi":51,"time":110.9,"velocity":0.3937007874015748},{"duration":0.20000000000000284,"midi":46,"time":110.9,"velocity":0.3937007874015748},{"duration":0.09999999999999432,"midi":59,"time":111.10000000000001,"velocity":0.3937007874015748},{"duration":1.2999999999999972,"midi":58,"time":111.4,"velocity":0.3937007874015748},{"duration":1.2999999999999972,"midi":55,"time":111.4,"velocity":0.3937007874015748},{"duration":1.2999999999999972,"midi":51,"time":111.4,"velocity":0.3937007874015748},{"duration":0.9000000000000057,"midi":63,"time":112.7,"velocity":0.3937007874015748},{"duration":0.9000000000000057,"midi":58,"time":112.7,"velocity":0.3937007874015748}]},{"instrument":{"family":"synth lead","number":81,"name":"lead 2 (sawtooth)"},"notes":[{"duration":0.10000000000000003,"midi":55,"time":0.2,"velocity":0.3937007874015748},{"duration":0.19999999999999996,"midi":56,"time":0.30000000000000004,"velocity":0.3937007874015748},{"duration":0.10000000000000009,"midi":58,"time":0.5,"velocity":0.3937007874015748},{"duration":0.19999999999999996,"midi":59,"time":0.6000000000000001,"velocity":0.3937007874015748},{"duration":0.09999999999999998,"midi":61,"time":0.8,"velocity":0.3937007874015748},{"duration":0.20000000000000007,"midi":63,"time":0.9,"velocity":0.3937007874015748},{"duration":0.10000000000000009,"midi":64,"time":1.1,"velocity":0.3937007874015748},{"duration":1.2999999999999998,"midi":63,"time":1.2000000000000002,"velocity":0.3937007874015748},{"duration":0.10000000000000009,"midi":63,"time":2.6,"velocity":0.3937007874015748},{"duration":0.20000000000000018,"midi":62,"time":2.7,"velocity":0.3937007874015748},{"duration":0.09999999999999964,"midi":63,"time":2.9000000000000004,"velocity":0.3937007874015748},{"duration":0.20000000000000018,"midi":62,"time":3,"velocity":0.3937007874015748},{"duration":0.10000000000000009,"midi":63,"time":3.2,"velocity":0.3937007874015748},{"duration":0.19999999999999973,"midi":62,"time":3.3000000000000003,"velocity":0.3937007874015748},{"duration":0.10000000000000009,"midi":63,"time":3.5,"velocity":0.3937007874015748},{"duration":0.5000000000000004,"midi":59,"time":3.6,"velocity":0.3937007874015748},{"duration":0.7999999999999998,"midi":56,"time":4.1000000000000005,"velocity":0.3937007874015748},{"duration":0.10000000000000053,"midi":55,"time":5,"velocity":0.3937007874015748},{"duration":0.20000000000000018,"midi":56,"time":5.1000000000000005,"velocity":0.3937007874015748},{"duration":0.09999999999999964,"midi":58,"time":5.300000000000001,"velocity":0.3937007874015748},{"duration":0.20000000000000018,"midi":59,"time":5.4,"velocity":0.3937007874015748},{"duration":0.09999999999999964,"midi":61,"time":5.6000000000000005,"velocity":0.3937007874015748},{"duration":0.20000000000000018,"midi":63,"time":5.7,"velocity":0.3937007874015748},{"duration":0.09999999999999964,"midi":64,"time":5.9,"velocity":0.3937007874015748},{"duration":1.3000000000000007,"midi":63,"time":6,"velocity":0.3937007874015748},{"duration":0.09999999999999964,"midi":68,"time":7.4,"velocity":0.3937007874015748},{"duration":0.20000000000000018,"midi":66,"time":7.5,"velocity":0.3937007874015748},{"duration":0.10000000000000053,"midi":63,"time":7.7,"velocity":0.3937007874015748},{"duration":0.1999999999999993,"midi":61,"time":7.800000000000001,"velocity":0.3937007874015748},{"duration":0.09999999999999964,"midi":66,"time":8,"velocity":0.3937007874015748},{"duration":0.20000000000000107,"midi":63,"time":8.1,"velocity":0.3937007874015748},{"duration":0.09999999999999964,"midi":59,"time":8.3,"velocity":0.3937007874015748},{"duration":1.3000000000000007,"midi":56,"time":8.4,"velocity":0.3937007874015748},{"duration":0.09999999999999964,"midi":55,"time":9.8,"velocity":0.3937007874015748},{"duration":0.20000000000000107,"midi":56,"time":9.9,"velocity":0.3937007874015748},{"duration":0.09999999999999964,"midi":58,"time":10.100000000000001,"velocity":0.3937007874015748},{"duration":0.1999999999999993,"midi":59,"time":10.200000000000001,"velocity":0.3937007874015748},{"duration":0.09999999999999964,"midi":61,"time":10.4,"velocity":0.3937007874015748},{"duration":0.20000000000000107,"midi":63,"time":10.5,"velocity":0.3937007874015748},{"duration":0.09999999999999964,"midi":64,"time":10.700000000000001,"velocity":0.3937007874015748},{"duration":0.3000000000000007,"midi":63,"time":10.8,"velocity":0.3937007874015748},{"duration":0.29999999999999893,"midi":64,"time":11.100000000000001,"velocity":0.3937007874015748},{"duration":0.20000000000000107,"midi":63,"time":11.4,"velocity":0.3937007874015748},{"duration":0.29999999999999893,"midi":64,"time":11.600000000000001,"velocity":0.3937007874015748},{"duration":0.27500000000000036,"midi":63,"time":11.9,"velocity":0.3937007874015748},{"duration":0.09999999999999964,"midi":63,"time":12.200000000000001,"velocity":0.3937007874015748},{"duration":0.3000000000000007,"midi":61,"time":12.3,"velocity":0.3937007874015748},{"duration":0.29999999999999893,"midi":59,"time":12.600000000000001,"velocity":0.3937007874015748},{"duration":0.3000000000000007,"midi":58,"time":12.9,"velocity":0.3937007874015748},{"duration":0.1999999999999993,"midi":59,"time":13.200000000000001,"velocity":0.3937007874015748},{"duration":0.20000000000000107,"midi":61,"time":13.4,"velocity":0.3937007874015748},{"duration":0.1999999999999993,"midi":63,"time":13.700000000000001,"velocity":0.3937007874015748},{"duration":0.20000000000000107,"midi":59,"time":14,"velocity":0.3937007874015748},{"duration":1.3000000000000007,"midi":56,"time":14.3,"velocity":0.3937007874015748},{"duration":0.5999999999999979,"midi":52,"time":15.600000000000001,"velocity":0.3937007874015748},{"duration":0.6000000000000014,"midi":54,"time":16.2,"velocity":0.3937007874015748},{"duration":0.6000000000000014,"midi":56,"time":16.8,"velocity":0.3937007874015748},{"duration":0.1999999999999993,"midi":58,"time":17.400000000000002,"velocity":0.3937007874015748},{"duration":0.09999999999999787,"midi":59,"time":17.6,"velocity":0.3937007874015748},{"duration":1.3000000000000007,"midi":58,"time":17.900000000000002,"velocity":0.3937007874015748},{"duration":1,"midi":63,"time":19.200000000000003,"velocity":0.3937007874015748},{"duration":0.09999999999999787,"midi":55,"time":19.400000000000002,"velocity":0.3937007874015748},{"duration":0.20000000000000284,"midi":56,"time":19.5,"velocity":0.3937007874015748},{"duration":0.09999999999999787,"midi":58,"time":19.700000000000003,"velocity":0.3937007874015748},{"duration":0.1999999999999993,"midi":59,"time":19.8,"velocity":0.3937007874015748},{"duration":0.10000000000000142,"midi":61,"time":20,"velocity":0.3937007874015748},{"duration":0.1999999999999993,"midi":63,"time":20.1,"velocity":0.3937007874015748},{"duration":0.10000000000000142,"midi":64,"time":20.3,"velocity":0.3937007874015748},{"duration":1.3000000000000007,"midi":63,"time":20.400000000000002,"velocity":0.3937007874015748},{"duration":0.10000000000000142,"midi":63,"time":21.8,"velocity":0.3937007874015748},{"duration":0.1999999999999993,"midi":62,"time":21.900000000000002,"velocity":0.3937007874015748},{"duration":0.10000000000000142,"midi":63,"time":22.1,"velocity":0.3937007874015748},{"duration":0.1999999999999993,"midi":62,"time":22.200000000000003,"velocity":0.3937007874015748},{"duration":0.09999999999999787,"midi":63,"time":22.400000000000002,"velocity":0.3937007874015748},{"duration":0.20000000000000284,"midi":62,"time":22.5,"velocity":0.3937007874015748},{"duration":0.09999999999999787,"midi":63,"time":22.700000000000003,"velocity":0.3937007874015748},{"duration":0.5,"midi":59,"time":22.8,"velocity":0.3937007874015748},{"duration":0.10000000000000142,"midi":73,"time":22.8,"velocity":0.3937007874015748},{"duration":0.10000000000000142,"midi":73,"time":22.8,"velocity":0.3937007874015748},{"duration":0.10000000000000142,"midi":68,"time":23.1,"velocity":0.3937007874015748},{"duration":0.5,"midi":56,"time":23.3,"velocity":0.3937007874015748},{"duration":0.10000000000000142,"midi":63,"time":23.3,"velocity":0.3937007874015748},{"duration":0.09999999999999787,"midi":61,"time":23.400000000000002,"velocity":0.3937007874015748},{"duration":0.10000000000000142,"midi":59,"time":23.6,"velocity":0.3937007874015748},{"duration":0.3999999999999986,"midi":56,"time":23.700000000000003,"velocity":0.3937007874015748},{"duration":0.09999999999999787,"midi":54,"time":23.900000000000002,"velocity":0.3937007874015748},{"duration":0.09999999999999787,"midi":55,"time":24.200000000000003,"velocity":0.3937007874015748},{"duration":0.09999999999999787,"midi":55,"time":24.200000000000003,"velocity":0.3937007874015748},{"duration":0.1999999999999993,"midi":56,"time":24.3,"velocity":0.3937007874015748},{"duration":0.10000000000000142,"midi":58,"time":24.5,"velocity":0.3937007874015748},{"duration":0.1999999999999993,"midi":59,"time":24.6,"velocity":0.3937007874015748},{"duration":0.10000000000000142,"midi":61,"time":24.8,"velocity":0.3937007874015748},{"duration":0.1999999999999993,"midi":63,"time":24.900000000000002,"velocity":0.3937007874015748},{"duration":0.10000000000000142,"midi":64,"time":25.1,"velocity":0.3937007874015748},{"duration":1.2999999999999972,"midi":63,"time":25.200000000000003,"velocity":0.3937007874015748},{"duration":0.10000000000000142,"midi":68,"time":26.6,"velocity":0.3937007874015748},{"duration":0.1999999999999993,"midi":66,"time":26.700000000000003,"velocity":0.3937007874015748},{"duration":0.09999999999999787,"midi":63,"time":26.900000000000002,"velocity":0.3937007874015748},{"duration":0.20000000000000284,"midi":61,"time":27,"velocity":0.3937007874015748},{"duration":0.09999999999999787,"midi":66,"time":27.200000000000003,"velocity":0.3937007874015748},{"duration":0.1999999999999993,"midi":63,"time":27.3,"velocity":0.3937007874015748},{"duration":0.10000000000000142,"midi":59,"time":27.5,"velocity":0.3937007874015748},{"duration":1.3000000000000007,"midi":56,"time":27.6,"velocity":0.3937007874015748},{"duration":0.09999999999999787,"midi":68,"time":27.900000000000002,"velocity":0.3937007874015748},{"duration":0.10000000000000142,"midi":63,"time":28.1,"velocity":0.3937007874015748},{"duration":0.09999999999999787,"midi":61,"time":28.200000000000003,"velocity":0.3937007874015748},{"duration":0.09999999999999787,"midi":63,"time":28.400000000000002,"velocity":0.3937007874015748},{"duration":0.10000000000000142,"midi":61,"time":28.5,"velocity":0.3937007874015748},{"duration":0.10000000000000142,"midi":59,"time":28.8,"velocity":0.3937007874015748},{"duration":0.10000000000000142,"midi":55,"time":29,"velocity":0.3937007874015748},{"duration":0.1999999999999993,"midi":56,"time":29.1,"velocity":0.3937007874015748},{"duration":0.10000000000000142,"midi":58,"time":29.3,"velocity":0.3937007874015748},{"duration":0.1999999999999993,"midi":59,"time":29.400000000000002,"velocity":0.3937007874015748},{"duration":0.10000000000000142,"midi":61,"time":29.6,"velocity":0.3937007874015748},{"duration":0.1999999999999993,"midi":63,"time":29.700000000000003,"velocity":0.3937007874015748},{"duration":0.09999999999999787,"midi":64,"time":29.900000000000002,"velocity":0.3937007874015748},{"duration":0.3000000000000007,"midi":56,"time":30,"velocity":0.3937007874015748},{"duration":0.3000000000000007,"midi":63,"time":30,"velocity":0.3937007874015748},{"duration":0.3000000000000007,"midi":64,"time":30.3,"velocity":0.3937007874015748},{"duration":0.3000000000000007,"midi":54,"time":30.3,"velocity":0.3937007874015748},{"duration":0.1999999999999993,"midi":56,"time":30.6,"velocity":0.3937007874015748},{"duration":0.1999999999999993,"midi":63,"time":30.6,"velocity":0.3937007874015748},{"duration":0.3000000000000007,"midi":64,"time":30.8,"velocity":0.3937007874015748},{"duration":0.3000000000000007,"midi":59,"time":30.8,"velocity":0.3937007874015748},{"duration":0.2749999999999986,"midi":63,"time":31.1,"velocity":0.3937007874015748},{"duration":0.3000000000000007,"midi":56,"time":31.1,"velocity":0.3937007874015748},{"duration":0.09999999999999787,"midi":56,"time":31.400000000000002,"velocity":0.3937007874015748},{"duration":0.09999999999999787,"midi":63,"time":31.400000000000002,"velocity":0.3937007874015748},{"duration":0.3000000000000007,"midi":54,"time":31.5,"velocity":0.3937007874015748},{"duration":0.3000000000000007,"midi":61,"time":31.5,"velocity":0.3937007874015748},{"duration":0.3000000000000007,"midi":51,"time":31.8,"velocity":0.3937007874015748},{"duration":0.3000000000000007,"midi":59,"time":31.8,"velocity":0.3937007874015748},{"duration":0.29999999999999716,"midi":58,"time":32.1,"velocity":0.3937007874015748},{"duration":0.29999999999999716,"midi":49,"time":32.1,"velocity":0.3937007874015748},{"duration":0.20000000000000284,"midi":51,"time":32.4,"velocity":0.3937007874015748},{"duration":0.20000000000000284,"midi":59,"time":32.4,"velocity":0.3937007874015748},{"duration":0.20000000000000284,"midi":61,"time":32.6,"velocity":0.3937007874015748},{"duration":0.20000000000000284,"midi":56,"time":32.6,"velocity":0.3937007874015748},{"duration":0.20000000000000284,"midi":63,"time":32.9,"velocity":0.3937007874015748},{"duration":0.20000000000000284,"midi":59,"time":32.9,"velocity":0.3937007874015748},{"duration":0.19999999999999574,"midi":59,"time":33.2,"velocity":0.3937007874015748},{"duration":1.3000000000000043,"midi":56,"time":33.5,"velocity":0.3937007874015748},{"duration":1.3000000000000043,"midi":56,"time":33.5,"velocity":0.3937007874015748},{"duration":0.5999999999999943,"midi":52,"time":34.800000000000004,"velocity":0.3937007874015748},{"duration":0.6000000000000014,"midi":54,"time":35.4,"velocity":0.3937007874015748},{"duration":0.6000000000000014,"midi":56,"time":36,"velocity":0.3937007874015748},{"duration":0.20000000000000284,"midi":58,"time":36.6,"velocity":0.3937007874015748},{"duration":0.09999999999999432,"midi":59,"time":36.800000000000004,"velocity":0.3937007874015748},{"duration":1.2000000000000028,"midi":58,"time":37.1,"velocity":0.3937007874015748},{"duration":0.20000000000000284,"midi":56,"time":61.1,"velocity":0.3937007874015748},{"duration":0.10000000000000142,"midi":59,"time":61.300000000000004,"velocity":0.3937007874015748},{"duration":0.19999999999999574,"midi":62,"time":61.400000000000006,"velocity":0.3937007874015748},{"duration":0.10000000000000142,"midi":63,"time":61.6,"velocity":0.3937007874015748},{"duration":0.20000000000000284,"midi":64,"time":61.7,"velocity":0.3937007874015748},{"duration":0.09999999999999432,"midi":63,"time":61.900000000000006,"velocity":0.3937007874015748},{"duration":0.20000000000000284,"midi":59,"time":62,"velocity":0.3937007874015748},{"duration":0.3999999999999986,"midi":56,"time":62.2,"velocity":0.3937007874015748},{"duration":0.20000000000000284,"midi":56,"time":63.5,"velocity":0.3937007874015748},{"duration":0.10000000000000142,"midi":59,"time":63.7,"velocity":0.3937007874015748},{"duration":0.19999999999999574,"midi":62,"time":63.800000000000004,"velocity":0.3937007874015748},{"duration":0.10000000000000853,"midi":63,"time":64,"velocity":0.3937007874015748},{"duration":0.19999999999998863,"midi":64,"time":64.10000000000001,"velocity":0.3937007874015748},{"duration":0.10000000000000853,"midi":63,"time":64.3,"velocity":0.3937007874015748},{"duration":0.20000000000000284,"midi":59,"time":64.4,"velocity":0.3937007874015748},{"duration":0.3999999999999915,"midi":56,"time":64.60000000000001,"velocity":0.3937007874015748},{"duration":0.5999999999999943,"midi":59,"time":65.9,"velocity":0.3937007874015748},{"duration":0.29999999999999716,"midi":56,"time":66.5,"velocity":0.3937007874015748},{"duration":0.20000000000000284,"midi":59,"time":66.8,"velocity":0.3937007874015748},{"duration":1.2999999999999972,"midi":58,"time":67,"velocity":0.3937007874015748},{"duration":0.6000000000000085,"midi":59,"time":68.3,"velocity":0.3937007874015748},{"duration":0.29999999999999716,"midi":61,"time":68.9,"velocity":0.3937007874015748},{"duration":0.20000000000000284,"midi":59,"time":69.2,"velocity":0.3937007874015748},{"duration":1.2999999999999972,"midi":58,"time":69.4,"velocity":0.3937007874015748},{"duration":0.20000000000000284,"midi":59,"time":70.7,"velocity":0.3937007874015748},{"duration":0.09999999999999432,"midi":58,"time":70.9,"velocity":0.3937007874015748},{"duration":0.20000000000000284,"midi":59,"time":71,"velocity":0.3937007874015748},{"duration":0.30000000000001137,"midi":59,"time":71.3,"velocity":0.3937007874015748},{"duration":0.29999999999999716,"midi":56,"time":71.60000000000001,"velocity":0.3937007874015748},{"duration":0.20000000000000284,"midi":61,"time":71.9,"velocity":0.3937007874015748},{"duration":0.09999999999999432,"midi":63,"time":72.10000000000001,"velocity":0.3937007874015748},{"duration":0.20000000000000284,"midi":64,"time":72.2,"velocity":0.3937007874015748},{"duration":0.29999999999999716,"midi":64,"time":72.5,"velocity":0.3937007874015748},{"duration":0.30000000000001137,"midi":61,"time":72.8,"velocity":0.3937007874015748},{"duration":2.3999999999999915,"midi":63,"time":73.10000000000001,"velocity":0.3937007874015748},{"duration":0.6000000000000085,"midi":59,"time":75.5,"velocity":0.3937007874015748},{"duration":0.29999999999999716,"midi":56,"time":76.10000000000001,"velocity":0.3937007874015748},{"duration":0.20000000000000284,"midi":59,"time":76.4,"velocity":0.3937007874015748},{"duration":1.2999999999999972,"midi":58,"time":76.60000000000001,"velocity":0.3937007874015748},{"duration":0.5999999999999943,"midi":59,"time":77.9,"velocity":0.3937007874015748},{"duration":0.30000000000001137,"midi":61,"time":78.5,"velocity":0.3937007874015748},{"duration":0.19999999999998863,"midi":59,"time":78.80000000000001,"velocity":0.3937007874015748},{"duration":1.3000000000000114,"midi":58,"time":79,"velocity":0.3937007874015748},{"duration":0.19999999999998863,"midi":59,"time":80.30000000000001,"velocity":0.3937007874015748},{"duration":0.10000000000000853,"midi":58,"time":80.5,"velocity":0.3937007874015748},{"duration":0.20000000000000284,"midi":59,"time":80.60000000000001,"velocity":0.3937007874015748},{"duration":0.29999999999999716,"midi":59,"time":80.9,"velocity":0.3937007874015748},{"duration":0.29999999999999716,"midi":56,"time":81.2,"velocity":0.3937007874015748},{"duration":0.20000000000000284,"midi":61,"time":81.5,"velocity":0.3937007874015748},{"duration":0.10000000000000853,"midi":63,"time":81.7,"velocity":0.3937007874015748},{"duration":0.19999999999998863,"midi":64,"time":81.80000000000001,"velocity":0.3937007874015748},{"duration":0.29999999999999716,"midi":64,"time":82.10000000000001,"velocity":0.3937007874015748},{"duration":0.29999999999999716,"midi":61,"time":82.4,"velocity":0.3937007874015748},{"duration":2.4000000000000057,"midi":63,"time":82.7,"velocity":0.3937007874015748},{"duration":0.20000000000000284,"midi":63,"time":85.10000000000001,"velocity":0.3937007874015748},{"duration":0.5999999999999943,"midi":52,"time":109.10000000000001,"velocity":0.3937007874015748},{"duration":0.6000000000000085,"midi":54,"time":109.7,"velocity":0.3937007874015748},{"duration":0.5999999999999943,"midi":56,"time":110.30000000000001,"velocity":0.3937007874015748},{"duration":0.20000000000000284,"midi":58,"time":110.9,"velocity":0.3937007874015748},{"duration":0.09999999999999432,"midi":59,"time":111.10000000000001,"velocity":0.3937007874015748},{"duration":1.2999999999999972,"midi":58,"time":111.4,"velocity":0.3937007874015748}]},{"instrument":{"family":"synth lead","number":87,"name":"lead 8 (bass + lead)"},"notes":[{"duration":0.10000000000000142,"midi":64,"time":39.5,"velocity":0.3937007874015748},{"duration":0.10000000000000142,"midi":66,"time":40,"velocity":0.3937007874015748},{"duration":0.10000000000000142,"midi":63,"time":40.7,"velocity":0.3937007874015748},{"duration":0.10000000000000142,"midi":71,"time":41.2,"velocity":0.3937007874015748},{"duration":0.09999999999999432,"midi":61,"time":41.900000000000006,"velocity":0.3937007874015748},{"duration":0.09999999999999432,"midi":63,"time":42.400000000000006,"velocity":0.3937007874015748},{"duration":0.10000000000000142,"midi":68,"time":43.1,"velocity":0.3937007874015748},{"duration":0.10000000000000142,"midi":63,"time":43.6,"velocity":0.3937007874015748},{"duration":0.09999999999999432,"midi":63,"time":43.900000000000006,"velocity":0.3937007874015748},{"duration":0.10000000000000142,"midi":63,"time":44.2,"velocity":0.3937007874015748},{"duration":0.10000000000000142,"midi":64,"time":44.300000000000004,"velocity":0.3937007874015748},{"duration":0.10000000000000142,"midi":46,"time":52.1,"velocity":0.3937007874015748},{"duration":0.09999999999999432,"midi":46,"time":56.900000000000006,"velocity":0.3937007874015748}]},{"instrument":{"family":"drums","number":0,"name":"standard kit"},"notes":[{"duration":0.10000000000000142,"midi":46,"time":39.5,"velocity":0.3937007874015748},{"duration":0.10000000000000142,"midi":46,"time":39.800000000000004,"velocity":0.3937007874015748},{"duration":0.10000000000000142,"midi":46,"time":40,"velocity":0.3937007874015748},{"duration":0.10000000000000142,"midi":46,"time":40.1,"velocity":0.3937007874015748},{"duration":0.09999999999999432,"midi":46,"time":40.400000000000006,"velocity":0.3937007874015748},{"duration":0.10000000000000142,"midi":46,"time":40.6,"velocity":0.3937007874015748},{"duration":0.10000000000000142,"midi":46,"time":40.7,"velocity":0.3937007874015748},{"duration":0.10000000000000142,"midi":46,"time":41,"velocity":0.3937007874015748},{"duration":0.10000000000000142,"midi":46,"time":41.2,"velocity":0.3937007874015748},{"duration":0.10000000000000142,"midi":46,"time":41.300000000000004,"velocity":0.3937007874015748},{"duration":0.10000000000000142,"midi":46,"time":41.6,"velocity":0.3937007874015748},{"duration":0.10000000000000142,"midi":46,"time":41.800000000000004,"velocity":0.3937007874015748},{"duration":0.09999999999999432,"midi":46,"time":41.900000000000006,"velocity":0.3937007874015748},{"duration":0.10000000000000142,"midi":46,"time":42.2,"velocity":0.3937007874015748},{"duration":0.09999999999999432,"midi":46,"time":42.400000000000006,"velocity":0.3937007874015748},{"duration":0.10000000000000142,"midi":46,"time":42.5,"velocity":0.3937007874015748},{"duration":0.10000000000000142,"midi":46,"time":42.800000000000004,"velocity":0.3937007874015748},{"duration":0.10000000000000142,"midi":46,"time":43,"velocity":0.3937007874015748},{"duration":0.10000000000000142,"midi":46,"time":43.1,"velocity":0.3937007874015748},{"duration":0.09999999999999432,"midi":46,"time":43.400000000000006,"velocity":0.3937007874015748},{"duration":0.10000000000000142,"midi":46,"time":43.6,"velocity":0.3937007874015748},{"duration":0.10000000000000142,"midi":46,"time":43.7,"velocity":0.3937007874015748},{"duration":0.10000000000000142,"midi":46,"time":44,"velocity":0.3937007874015748},{"duration":0.10000000000000142,"midi":46,"time":44.2,"velocity":0.3937007874015748},{"duration":0.10000000000000142,"midi":46,"time":44.300000000000004,"velocity":0.3937007874015748},{"duration":0.10000000000000142,"midi":46,"time":44.6,"velocity":0.3937007874015748},{"duration":0.10000000000000142,"midi":46,"time":44.800000000000004,"velocity":0.3937007874015748},{"duration":0.09999999999999432,"midi":46,"time":44.900000000000006,"velocity":0.3937007874015748},{"duration":0.10000000000000142,"midi":46,"time":45.2,"velocity":0.3937007874015748},{"duration":0.09999999999999432,"midi":46,"time":45.400000000000006,"velocity":0.3937007874015748},{"duration":0.10000000000000142,"midi":46,"time":45.5,"velocity":0.3937007874015748},{"duration":0.10000000000000142,"midi":46,"time":45.800000000000004,"velocity":0.3937007874015748},{"duration":0.10000000000000142,"midi":46,"time":46,"velocity":0.3937007874015748},{"duration":0.10000000000000142,"midi":46,"time":46.1,"velocity":0.3937007874015748},{"duration":0.09999999999999432,"midi":46,"time":46.400000000000006,"velocity":0.3937007874015748},{"duration":0.10000000000000142,"midi":46,"time":46.6,"velocity":0.3937007874015748},{"duration":0.10000000000000142,"midi":46,"time":46.7,"velocity":0.3937007874015748},{"duration":0.10000000000000142,"midi":46,"time":47,"velocity":0.3937007874015748},{"duration":0.10000000000000142,"midi":46,"time":47.2,"velocity":0.3937007874015748},{"duration":0.10000000000000142,"midi":46,"time":47.300000000000004,"velocity":0.3937007874015748},{"duration":0.10000000000000142,"midi":46,"time":47.6,"velocity":0.3937007874015748},{"duration":0.10000000000000142,"midi":46,"time":47.800000000000004,"velocity":0.3937007874015748},{"duration":0.09999999999999432,"midi":46,"time":47.900000000000006,"velocity":0.3937007874015748},{"duration":0.10000000000000142,"midi":46,"time":48.2,"velocity":0.3937007874015748},{"duration":0.09999999999999432,"midi":46,"time":48.400000000000006,"velocity":0.3937007874015748},{"duration":0.10000000000000142,"midi":46,"time":48.5,"velocity":0.3937007874015748},{"duration":0.10000000000000142,"midi":46,"time":48.800000000000004,"velocity":0.3937007874015748},{"duration":0.10000000000000142,"midi":46,"time":49,"velocity":0.3937007874015748},{"duration":0.10000000000000142,"midi":46,"time":49.1,"velocity":0.3937007874015748},{"duration":0.09999999999999432,"midi":46,"time":49.400000000000006,"velocity":0.3937007874015748},{"duration":0.10000000000000142,"midi":46,"time":49.6,"velocity":0.3937007874015748},{"duration":0.10000000000000142,"midi":46,"time":49.7,"velocity":0.3937007874015748},{"duration":0.10000000000000142,"midi":46,"time":50,"velocity":0.3937007874015748},{"duration":0.10000000000000142,"midi":46,"time":50.2,"velocity":0.3937007874015748},{"duration":0.10000000000000142,"midi":46,"time":50.300000000000004,"velocity":0.3937007874015748},{"duration":0.10000000000000142,"midi":46,"time":50.6,"velocity":0.3937007874015748},{"duration":0.10000000000000142,"midi":46,"time":50.800000000000004,"velocity":0.3937007874015748},{"duration":0.09999999999999432,"midi":46,"time":50.900000000000006,"velocity":0.3937007874015748},{"duration":0.10000000000000142,"midi":46,"time":51.2,"velocity":0.3937007874015748},{"duration":0.09999999999999432,"midi":46,"time":51.400000000000006,"velocity":0.3937007874015748},{"duration":0.10000000000000142,"midi":46,"time":51.5,"velocity":0.3937007874015748},{"duration":0.10000000000000142,"midi":46,"time":51.800000000000004,"velocity":0.3937007874015748},{"duration":0.10000000000000142,"midi":46,"time":52,"velocity":0.3937007874015748},{"duration":0.10000000000000142,"midi":46,"time":52.1,"velocity":0.3937007874015748},{"duration":0.09999999999999432,"midi":46,"time":52.400000000000006,"velocity":0.3937007874015748},{"duration":0.10000000000000142,"midi":46,"time":52.6,"velocity":0.3937007874015748},{"duration":0.10000000000000142,"midi":46,"time":52.7,"velocity":0.3937007874015748},{"duration":0.10000000000000142,"midi":46,"time":53,"velocity":0.3937007874015748},{"duration":0.10000000000000142,"midi":46,"time":53.2,"velocity":0.3937007874015748},{"duration":0.10000000000000142,"midi":46,"time":53.300000000000004,"velocity":0.3937007874015748},{"duration":0.10000000000000142,"midi":46,"time":53.6,"velocity":0.3937007874015748},{"duration":0.10000000000000142,"midi":46,"time":53.800000000000004,"velocity":0.3937007874015748},{"duration":0.09999999999999432,"midi":46,"time":53.900000000000006,"velocity":0.3937007874015748},{"duration":0.10000000000000142,"midi":46,"time":54.2,"velocity":0.3937007874015748},{"duration":0.09999999999999432,"midi":46,"time":54.400000000000006,"velocity":0.3937007874015748},{"duration":0.10000000000000142,"midi":46,"time":54.5,"velocity":0.3937007874015748},{"duration":0.10000000000000142,"midi":46,"time":54.800000000000004,"velocity":0.3937007874015748},{"duration":0.10000000000000142,"midi":46,"time":55,"velocity":0.3937007874015748},{"duration":0.10000000000000142,"midi":46,"time":55.1,"velocity":0.3937007874015748},{"duration":0.09999999999999432,"midi":46,"time":55.400000000000006,"velocity":0.3937007874015748},{"duration":0.10000000000000142,"midi":46,"time":55.6,"velocity":0.3937007874015748},{"duration":0.10000000000000142,"midi":46,"time":55.7,"velocity":0.3937007874015748},{"duration":0.10000000000000142,"midi":46,"time":56,"velocity":0.3937007874015748},{"duration":0.10000000000000142,"midi":46,"time":56.2,"velocity":0.3937007874015748},{"duration":0.10000000000000142,"midi":46,"time":56.300000000000004,"velocity":0.3937007874015748},{"duration":0.10000000000000142,"midi":46,"time":56.6,"velocity":0.3937007874015748},{"duration":0.10000000000000142,"midi":46,"time":56.800000000000004,"velocity":0.3937007874015748},{"duration":0.09999999999999432,"midi":46,"time":56.900000000000006,"velocity":0.3937007874015748},{"duration":0.10000000000000142,"midi":46,"time":57.2,"velocity":0.3937007874015748},{"duration":0.09999999999999432,"midi":46,"time":57.400000000000006,"velocity":0.3937007874015748},{"duration":0.10000000000000142,"midi":46,"time":57.5,"velocity":0.3937007874015748},{"duration":0.10000000000000142,"midi":46,"time":57.800000000000004,"velocity":0.3937007874015748},{"duration":0.10000000000000142,"midi":46,"time":58,"velocity":0.3937007874015748},{"duration":0.10000000000000142,"midi":46,"time":58.1,"velocity":0.3937007874015748},{"duration":0.09999999999999432,"midi":46,"time":58.400000000000006,"velocity":0.3937007874015748},{"duration":0.09999999999999432,"midi":46,"time":85.10000000000001,"velocity":0.3937007874015748},{"duration":0.09999999999999432,"midi":46,"time":85.4,"velocity":0.3937007874015748},{"duration":0.09999999999999432,"midi":46,"time":85.60000000000001,"velocity":0.3937007874015748},{"duration":0.10000000000000853,"midi":46,"time":85.7,"velocity":0.3937007874015748},{"duration":0.10000000000000853,"midi":46,"time":86,"velocity":0.3937007874015748},{"duration":0.10000000000000853,"midi":46,"time":86.2,"velocity":0.3937007874015748},{"duration":0.09999999999999432,"midi":46,"time":86.30000000000001,"velocity":0.3937007874015748},{"duration":0.09999999999999432,"midi":46,"time":86.60000000000001,"velocity":0.3937007874015748},{"duration":0.09999999999999432,"midi":46,"time":86.80000000000001,"velocity":0.3937007874015748},{"duration":0.09999999999999432,"midi":46,"time":86.9,"velocity":0.3937007874015748},{"duration":0.10000000000000853,"midi":46,"time":87.2,"velocity":0.3937007874015748},{"duration":0.09999999999999432,"midi":46,"time":87.4,"velocity":0.3937007874015748},{"duration":0.10000000000000853,"midi":46,"time":87.5,"velocity":0.3937007874015748},{"duration":0.09999999999999432,"midi":46,"time":87.80000000000001,"velocity":0.3937007874015748},{"duration":0.09999999999999432,"midi":46,"time":87.80000000000001,"velocity":0.3937007874015748},{"duration":0.10000000000000853,"midi":46,"time":88,"velocity":0.3937007874015748},{"duration":0.09999999999999432,"midi":46,"time":88.10000000000001,"velocity":0.3937007874015748},{"duration":0.09999999999999432,"midi":46,"time":88.4,"velocity":0.3937007874015748},{"duration":0.09999999999999432,"midi":46,"time":88.60000000000001,"velocity":0.3937007874015748},{"duration":0.10000000000000853,"midi":46,"time":88.7,"velocity":0.3937007874015748},{"duration":0.10000000000000853,"midi":46,"time":89,"velocity":0.3937007874015748},{"duration":0.10000000000000853,"midi":46,"time":89.2,"velocity":0.3937007874015748},{"duration":0.09999999999999432,"midi":46,"time":89.30000000000001,"velocity":0.3937007874015748},{"duration":0.09999999999999432,"midi":46,"time":89.60000000000001,"velocity":0.3937007874015748},{"duration":0.09999999999999432,"midi":46,"time":89.80000000000001,"velocity":0.3937007874015748},{"duration":0.09999999999999432,"midi":46,"time":89.9,"velocity":0.3937007874015748},{"duration":0.10000000000000853,"midi":46,"time":90.2,"velocity":0.3937007874015748},{"duration":0.09999999999999432,"midi":46,"time":90.4,"velocity":0.3937007874015748},{"duration":0.10000000000000853,"midi":46,"time":90.5,"velocity":0.3937007874015748},{"duration":0.09999999999999432,"midi":46,"time":90.80000000000001,"velocity":0.3937007874015748},{"duration":0.10000000000000853,"midi":46,"time":91,"velocity":0.3937007874015748},{"duration":0.09999999999999432,"midi":46,"time":91.10000000000001,"velocity":0.3937007874015748},{"duration":0.09999999999999432,"midi":46,"time":91.4,"velocity":0.3937007874015748},{"duration":0.09999999999999432,"midi":46,"time":91.60000000000001,"velocity":0.3937007874015748},{"duration":0.10000000000000853,"midi":46,"time":91.7,"velocity":0.3937007874015748},{"duration":0.10000000000000853,"midi":46,"time":92,"velocity":0.3937007874015748},{"duration":0.10000000000000853,"midi":46,"time":92.2,"velocity":0.3937007874015748},{"duration":0.09999999999999432,"midi":46,"time":92.30000000000001,"velocity":0.3937007874015748},{"duration":0.09999999999999432,"midi":46,"time":92.60000000000001,"velocity":0.3937007874015748},{"duration":0.09999999999999432,"midi":46,"time":92.60000000000001,"velocity":0.3937007874015748},{"duration":0.09999999999999432,"midi":46,"time":92.80000000000001,"velocity":0.3937007874015748},{"duration":0.09999999999999432,"midi":46,"time":92.9,"velocity":0.3937007874015748},{"duration":0.10000000000000853,"midi":46,"time":93.2,"velocity":0.3937007874015748},{"duration":0.09999999999999432,"midi":46,"time":93.4,"velocity":0.3937007874015748},{"duration":0.10000000000000853,"midi":46,"time":93.5,"velocity":0.3937007874015748},{"duration":0.09999999999999432,"midi":46,"time":93.80000000000001,"velocity":0.3937007874015748},{"duration":0.10000000000000853,"midi":46,"time":94,"velocity":0.3937007874015748},{"duration":0.09999999999999432,"midi":46,"time":94.10000000000001,"velocity":0.3937007874015748}]},{"instrument":{"family":"guitar","number":28,"name":"electric guitar (muted)"},"notes":[{"duration":0.09999999999999987,"midi":44,"time":1.2000000000000002,"velocity":0.3937007874015748},{"duration":0.09999999999999987,"midi":44,"time":1.4000000000000001,"velocity":0.3937007874015748},{"duration":0.10000000000000009,"midi":47,"time":1.5,"velocity":0.3937007874015748},{"duration":0.09999999999999987,"midi":47,"time":1.7000000000000002,"velocity":0.3937007874015748},{"duration":0.10000000000000009,"midi":39,"time":1.8,"velocity":0.3937007874015748},{"duration":0.10000000000000009,"midi":39,"time":2,"velocity":0.3937007874015748},{"duration":0.10000000000000009,"midi":42,"time":2.1,"velocity":0.3937007874015748},{"duration":0.10000000000000009,"midi":42,"time":2.3000000000000003,"velocity":0.3937007874015748},{"duration":0.09999999999999964,"midi":44,"time":2.4000000000000004,"velocity":0.3937007874015748},{"duration":0.10000000000000009,"midi":44,"time":2.6,"velocity":0.3937007874015748},{"duration":0.10000000000000009,"midi":47,"time":2.7,"velocity":0.3937007874015748},{"duration":0.09999999999999964,"midi":47,"time":2.9000000000000004,"velocity":0.3937007874015748},{"duration":0.10000000000000009,"midi":39,"time":3,"velocity":0.3937007874015748},{"duration":0.10000000000000009,"midi":39,"time":3.2,"velocity":0.3937007874015748},{"duration":0.10000000000000009,"midi":42,"time":3.3000000000000003,"velocity":0.3937007874015748},{"duration":0.10000000000000009,"midi":42,"time":3.5,"velocity":0.3937007874015748},{"duration":0.10000000000000009,"midi":40,"time":3.6,"velocity":0.3937007874015748},{"duration":0.10000000000000009,"midi":40,"time":3.8000000000000003,"velocity":0.3937007874015748},{"duration":0.09999999999999964,"midi":44,"time":3.9000000000000004,"velocity":0.3937007874015748},{"duration":0.09999999999999964,"midi":44,"time":4.1000000000000005,"velocity":0.3937007874015748},{"duration":0.09999999999999964,"midi":37,"time":4.2,"velocity":0.3937007874015748},{"duration":0.09999999999999964,"midi":37,"time":4.4,"velocity":0.3937007874015748},{"duration":0.10000000000000053,"midi":35,"time":4.5,"velocity":0.3937007874015748},{"duration":0.10000000000000053,"midi":35,"time":4.7,"velocity":0.3937007874015748},{"duration":0.09999999999999964,"midi":40,"time":4.800000000000001,"velocity":0.3937007874015748},{"duration":0.10000000000000053,"midi":40,"time":5,"velocity":0.3937007874015748},{"duration":0.09999999999999964,"midi":44,"time":5.1000000000000005,"velocity":0.3937007874015748},{"duration":0.09999999999999964,"midi":44,"time":5.300000000000001,"velocity":0.3937007874015748},{"duration":0.09999999999999964,"midi":37,"time":5.4,"velocity":0.3937007874015748},{"duration":0.09999999999999964,"midi":37,"time":5.6000000000000005,"velocity":0.3937007874015748},{"duration":0.10000000000000053,"midi":44,"time":5.7,"velocity":0.3937007874015748},{"duration":0.09999999999999964,"midi":44,"time":5.9,"velocity":0.3937007874015748},{"duration":0.10000000000000053,"midi":44,"time":6,"velocity":0.3937007874015748},{"duration":0.10000000000000053,"midi":44,"time":6.2,"velocity":0.3937007874015748},{"duration":0.09999999999999964,"midi":47,"time":6.300000000000001,"velocity":0.3937007874015748},{"duration":0.10000000000000053,"midi":47,"time":6.5,"velocity":0.3937007874015748},{"duration":0.09999999999999964,"midi":39,"time":6.6000000000000005,"velocity":0.3937007874015748},{"duration":0.09999999999999964,"midi":39,"time":6.800000000000001,"velocity":0.3937007874015748},{"duration":0.09999999999999964,"midi":42,"time":6.9,"velocity":0.3937007874015748},{"duration":0.09999999999999964,"midi":42,"time":7.1000000000000005,"velocity":0.3937007874015748},{"duration":0.10000000000000053,"midi":44,"time":7.2,"velocity":0.3937007874015748},{"duration":0.09999999999999964,"midi":44,"time":7.4,"velocity":0.3937007874015748},{"duration":0.10000000000000053,"midi":47,"time":7.5,"velocity":0.3937007874015748},{"duration":0.10000000000000053,"midi":47,"time":7.7,"velocity":0.3937007874015748},{"duration":0.09999999999999964,"midi":39,"time":7.800000000000001,"velocity":0.3937007874015748},{"duration":0.09999999999999964,"midi":39,"time":8,"velocity":0.3937007874015748},{"duration":0.10000000000000142,"midi":42,"time":8.1,"velocity":0.3937007874015748},{"duration":0.09999999999999964,"midi":42,"time":8.3,"velocity":0.3937007874015748},{"duration":0.09999999999999964,"midi":40,"time":8.4,"velocity":0.3937007874015748},{"duration":0.10000000000000142,"midi":40,"time":8.6,"velocity":0.3937007874015748},{"duration":0.09999999999999964,"midi":44,"time":8.700000000000001,"velocity":0.3937007874015748},{"duration":0.09999999999999964,"midi":44,"time":8.9,"velocity":0.3937007874015748},{"duration":0.09999999999999964,"midi":37,"time":9,"velocity":0.3937007874015748},{"duration":0.09999999999999964,"midi":37,"time":9.200000000000001,"velocity":0.3937007874015748},{"duration":0.09999999999999964,"midi":35,"time":9.3,"velocity":0.3937007874015748},{"duration":0.10000000000000142,"midi":35,"time":9.5,"velocity":0.3937007874015748},{"duration":0.09999999999999964,"midi":40,"time":9.600000000000001,"velocity":0.3937007874015748},{"duration":0.09999999999999964,"midi":40,"time":9.8,"velocity":0.3937007874015748},{"duration":0.09999999999999964,"midi":44,"time":9.9,"velocity":0.3937007874015748},{"duration":0.09999999999999964,"midi":44,"time":10.100000000000001,"velocity":0.3937007874015748},{"duration":0.09999999999999964,"midi":37,"time":10.200000000000001,"velocity":0.3937007874015748},{"duration":0.09999999999999964,"midi":37,"time":10.4,"velocity":0.3937007874015748},{"duration":0.10000000000000142,"midi":35,"time":10.5,"velocity":0.3937007874015748},{"duration":0.09999999999999964,"midi":35,"time":10.700000000000001,"velocity":0.3937007874015748},{"duration":0.09999999999999964,"midi":40,"time":10.8,"velocity":0.3937007874015748},{"duration":0.09999999999999964,"midi":40,"time":11.3,"velocity":0.3937007874015748},{"duration":0.09999999999999964,"midi":44,"time":11.4,"velocity":0.3937007874015748},{"duration":0.09999999999999964,"midi":47,"time":11.600000000000001,"velocity":0.3937007874015748},{"duration":0.09999999999999964,"midi":39,"time":11.9,"velocity":0.3937007874015748},{"duration":0.09999999999999964,"midi":39,"time":12.200000000000001,"velocity":0.3937007874015748},{"duration":0.09999999999999964,"midi":42,"time":12.600000000000001,"velocity":0.3937007874015748},{"duration":0.09999999999999964,"midi":46,"time":12.9,"velocity":0.3937007874015748},{"duration":0.09999999999999964,"midi":44,"time":13.200000000000001,"velocity":0.3937007874015748},{"duration":0.09999999999999964,"midi":35,"time":13.700000000000001,"velocity":0.3937007874015748},{"duration":0.09999999999999964,"midi":39,"time":13.8,"velocity":0.3937007874015748},{"duration":0.10000000000000142,"midi":35,"time":14,"velocity":0.3937007874015748},{"duration":0.09999999999999964,"midi":32,"time":14.3,"velocity":0.3937007874015748},{"duration":0.09999999999999964,"midi":40,"time":15.600000000000001,"velocity":0.3937007874015748},{"duration":0.10000000000000142,"midi":39,"time":16.2,"velocity":0.3937007874015748},{"duration":0.10000000000000142,"midi":37,"time":16.8,"velocity":0.3937007874015748},{"duration":0.09999999999999787,"midi":34,"time":17.400000000000002,"velocity":0.3937007874015748},{"duration":0.09999999999999787,"midi":31,"time":17.6,"velocity":0.3937007874015748},{"duration":0.09999999999999787,"midi":39,"time":17.900000000000002,"velocity":0.3937007874015748},{"duration":0.09999999999999787,"midi":44,"time":20.400000000000002,"velocity":0.3937007874015748},{"duration":0.10000000000000142,"midi":44,"time":20.6,"velocity":0.3937007874015748},{"duration":0.09999999999999787,"midi":47,"time":20.700000000000003,"velocity":0.3937007874015748},{"duration":0.09999999999999787,"midi":47,"time":20.900000000000002,"velocity":0.3937007874015748},{"duration":0.10000000000000142,"midi":39,"time":21,"velocity":0.3937007874015748},{"duration":0.09999999999999787,"midi":39,"time":21.200000000000003,"velocity":0.3937007874015748},{"duration":0.10000000000000142,"midi":42,"time":21.3,"velocity":0.3937007874015748},{"duration":0.10000000000000142,"midi":42,"time":21.5,"velocity":0.3937007874015748},{"duration":0.10000000000000142,"midi":44,"time":21.6,"velocity":0.3937007874015748},{"duration":0.10000000000000142,"midi":44,"time":21.8,"velocity":0.3937007874015748},{"duration":0.09999999999999787,"midi":47,"time":21.900000000000002,"velocity":0.3937007874015748},{"duration":0.10000000000000142,"midi":47,"time":22.1,"velocity":0.3937007874015748},{"duration":0.09999999999999787,"midi":39,"time":22.200000000000003,"velocity":0.3937007874015748},{"duration":0.09999999999999787,"midi":39,"time":22.400000000000002,"velocity":0.3937007874015748},{"duration":0.10000000000000142,"midi":42,"time":22.5,"velocity":0.3937007874015748},{"duration":0.09999999999999787,"midi":42,"time":22.700000000000003,"velocity":0.3937007874015748},{"duration":0.10000000000000142,"midi":40,"time":22.8,"velocity":0.3937007874015748},{"duration":0.10000000000000142,"midi":40,"time":23,"velocity":0.3937007874015748},{"duration":0.10000000000000142,"midi":44,"time":23.1,"velocity":0.3937007874015748},{"duration":0.10000000000000142,"midi":44,"time":23.3,"velocity":0.3937007874015748},{"duration":0.09999999999999787,"midi":37,"time":23.400000000000002,"velocity":0.3937007874015748},{"duration":0.10000000000000142,"midi":37,"time":23.6,"velocity":0.3937007874015748},{"duration":0.09999999999999787,"midi":35,"time":23.700000000000003,"velocity":0.3937007874015748},{"duration":0.09999999999999787,"midi":35,"time":23.900000000000002,"velocity":0.3937007874015748},{"duration":0.10000000000000142,"midi":40,"time":24,"velocity":0.3937007874015748},{"duration":0.09999999999999787,"midi":40,"time":24.200000000000003,"velocity":0.3937007874015748},{"duration":0.10000000000000142,"midi":44,"time":24.3,"velocity":0.3937007874015748},{"duration":0.10000000000000142,"midi":44,"time":24.5,"velocity":0.3937007874015748},{"duration":0.10000000000000142,"midi":37,"time":24.6,"velocity":0.3937007874015748},{"duration":0.10000000000000142,"midi":37,"time":24.8,"velocity":0.3937007874015748},{"duration":0.09999999999999787,"midi":44,"time":24.900000000000002,"velocity":0.3937007874015748},{"duration":0.10000000000000142,"midi":44,"time":25.1,"velocity":0.3937007874015748},{"duration":0.09999999999999787,"midi":44,"time":25.200000000000003,"velocity":0.3937007874015748},{"duration":0.09999999999999787,"midi":44,"time":25.400000000000002,"velocity":0.3937007874015748},{"duration":0.10000000000000142,"midi":47,"time":25.5,"velocity":0.3937007874015748},{"duration":0.09999999999999787,"midi":47,"time":25.700000000000003,"velocity":0.3937007874015748},{"duration":0.10000000000000142,"midi":39,"time":25.8,"velocity":0.3937007874015748},{"duration":0.10000000000000142,"midi":39,"time":26,"velocity":0.3937007874015748},{"duration":0.10000000000000142,"midi":42,"time":26.1,"velocity":0.3937007874015748},{"duration":0.10000000000000142,"midi":42,"time":26.3,"velocity":0.3937007874015748},{"duration":0.09999999999999787,"midi":44,"time":26.400000000000002,"velocity":0.3937007874015748},{"duration":0.10000000000000142,"midi":44,"time":26.6,"velocity":0.3937007874015748},{"duration":0.09999999999999787,"midi":47,"time":26.700000000000003,"velocity":0.3937007874015748},{"duration":0.09999999999999787,"midi":47,"time":26.900000000000002,"velocity":0.3937007874015748},{"duration":0.10000000000000142,"midi":39,"time":27,"velocity":0.3937007874015748},{"duration":0.09999999999999787,"midi":39,"time":27.200000000000003,"velocity":0.3937007874015748},{"duration":0.10000000000000142,"midi":42,"time":27.3,"velocity":0.3937007874015748},{"duration":0.10000000000000142,"midi":42,"time":27.5,"velocity":0.3937007874015748},{"duration":0.10000000000000142,"midi":40,"time":27.6,"velocity":0.3937007874015748},{"duration":0.10000000000000142,"midi":40,"time":27.8,"velocity":0.3937007874015748},{"duration":0.09999999999999787,"midi":44,"time":27.900000000000002,"velocity":0.3937007874015748},{"duration":0.10000000000000142,"midi":44,"time":28.1,"velocity":0.3937007874015748},{"duration":0.09999999999999787,"midi":37,"time":28.200000000000003,"velocity":0.3937007874015748},{"duration":0.09999999999999787,"midi":37,"time":28.400000000000002,"velocity":0.3937007874015748},{"duration":0.10000000000000142,"midi":35,"time":28.5,"velocity":0.3937007874015748},{"duration":0.09999999999999787,"midi":35,"time":28.700000000000003,"velocity":0.3937007874015748},{"duration":0.10000000000000142,"midi":40,"time":28.8,"velocity":0.3937007874015748},{"duration":0.10000000000000142,"midi":40,"time":29,"velocity":0.3937007874015748},{"duration":0.10000000000000142,"midi":44,"time":29.1,"velocity":0.3937007874015748},{"duration":0.10000000000000142,"midi":44,"time":29.3,"velocity":0.3937007874015748},{"duration":0.09999999999999787,"midi":37,"time":29.400000000000002,"velocity":0.3937007874015748},{"duration":0.10000000000000142,"midi":37,"time":29.6,"velocity":0.3937007874015748},{"duration":0.09999999999999787,"midi":35,"time":29.700000000000003,"velocity":0.3937007874015748},{"duration":0.09999999999999787,"midi":35,"time":29.900000000000002,"velocity":0.3937007874015748},{"duration":0.10000000000000142,"midi":40,"time":30,"velocity":0.3937007874015748},{"duration":0.10000000000000142,"midi":40,"time":30.5,"velocity":0.3937007874015748},{"duration":0.10000000000000142,"midi":44,"time":30.6,"velocity":0.3937007874015748},{"duration":0.10000000000000142,"midi":47,"time":30.8,"velocity":0.3937007874015748},{"duration":0.10000000000000142,"midi":39,"time":31.1,"velocity":0.3937007874015748},{"duration":0.09999999999999787,"midi":39,"time":31.400000000000002,"velocity":0.3937007874015748},{"duration":0.10000000000000142,"midi":42,"time":31.8,"velocity":0.3937007874015748},{"duration":0.10000000000000142,"midi":46,"time":32.1,"velocity":0.3937007874015748},{"duration":0.10000000000000142,"midi":44,"time":32.4,"velocity":0.3937007874015748},{"duration":0.10000000000000142,"midi":35,"time":32.9,"velocity":0.3937007874015748},{"duration":0.10000000000000142,"midi":39,"time":33,"velocity":0.3937007874015748},{"duration":0.10000000000000142,"midi":35,"time":33.2,"velocity":0.3937007874015748},{"duration":0.10000000000000142,"midi":32,"time":33.5,"velocity":0.3937007874015748},{"duration":0.09999999999999432,"midi":40,"time":34.800000000000004,"velocity":0.3937007874015748},{"duration":0.10000000000000142,"midi":46,"time":37.1,"velocity":0.3937007874015748},{"duration":0.10000000000000142,"midi":39,"time":38.300000000000004,"velocity":0.3937007874015748},{"duration":0.10000000000000142,"midi":68,"time":61.1,"velocity":0.3937007874015748},{"duration":1.6000000000000014,"midi":32,"time":61.1,"velocity":0.3937007874015748},{"duration":1.6000000000000014,"midi":44,"time":61.1,"velocity":0.3937007874015748},{"duration":0.10000000000000142,"midi":71,"time":61.300000000000004,"velocity":0.3937007874015748},{"duration":0.09999999999999432,"midi":74,"time":61.400000000000006,"velocity":0.3937007874015748},{"duration":0.10000000000000142,"midi":75,"time":61.6,"velocity":0.3937007874015748},{"duration":0.10000000000000142,"midi":76,"time":61.7,"velocity":0.3937007874015748},{"duration":0.09999999999999432,"midi":75,"time":61.900000000000006,"velocity":0.3937007874015748},{"duration":0.10000000000000142,"midi":71,"time":62,"velocity":0.3937007874015748},{"duration":0.10000000000000142,"midi":68,"time":62.2,"velocity":0.3937007874015748},{"duration":0.04999999999999716,"midi":39,"time":62.800000000000004,"velocity":0.3937007874015748},{"duration":0.05000000000000426,"midi":40,"time":62.85,"velocity":0.3937007874015748},{"duration":0.04999999999999716,"midi":39,"time":62.900000000000006,"velocity":0.3937007874015748},{"duration":0.04999999999999716,"midi":38,"time":62.95,"velocity":0.3937007874015748},{"duration":0.05000000000000426,"midi":39,"time":63,"velocity":0.3937007874015748},{"duration":0.10000000000000142,"midi":68,"time":63.5,"velocity":0.3937007874015748},{"duration":0.6000000000000085,"midi":32,"time":63.5,"velocity":0.3937007874015748},{"duration":0.6000000000000085,"midi":44,"time":63.5,"velocity":0.3937007874015748},{"duration":0.10000000000000142,"midi":71,"time":63.7,"velocity":0.3937007874015748},{"duration":0.10000000000000142,"midi":74,"time":63.800000000000004,"velocity":0.3937007874015748},{"duration":0.10000000000000853,"midi":75,"time":64,"velocity":0.3937007874015748},{"duration":1,"midi":39,"time":64.10000000000001,"velocity":0.3937007874015748},{"duration":0.09999999999999432,"midi":76,"time":64.10000000000001,"velocity":0.3937007874015748},{"duration":0.10000000000000853,"midi":75,"time":64.3,"velocity":0.3937007874015748},{"duration":0.09999999999999432,"midi":71,"time":64.4,"velocity":0.3937007874015748},{"duration":0.09999999999999432,"midi":68,"time":64.60000000000001,"velocity":0.3937007874015748},{"duration":0.04999999999999716,"midi":39,"time":65.2,"velocity":0.3937007874015748},{"duration":0.04999999999999716,"midi":40,"time":65.25,"velocity":0.3937007874015748},{"duration":0.05000000000001137,"midi":39,"time":65.3,"velocity":0.3937007874015748},{"duration":0.04999999999999716,"midi":38,"time":65.35000000000001,"velocity":0.3937007874015748},{"duration":0.04999999999999716,"midi":39,"time":65.4,"velocity":0.3937007874015748},{"duration":0.5999999999999943,"midi":71,"time":65.9,"velocity":0.3937007874015748},{"duration":0.5999999999999943,"midi":71,"time":65.9,"velocity":0.3937007874015748},{"duration":0.09999999999999432,"midi":44,"time":65.9,"velocity":0.3937007874015748},{"duration":0.5999999999999943,"midi":71,"time":65.9,"velocity":0.3937007874015748},{"duration":0.29999999999999716,"midi":68,"time":66.5,"velocity":0.3937007874015748},{"duration":0.29999999999999716,"midi":68,"time":66.5,"velocity":0.3937007874015748},{"duration":0.29999999999999716,"midi":68,"time":66.5,"velocity":0.3937007874015748},{"duration":0.10000000000000853,"midi":39,"time":66.5,"velocity":0.3937007874015748},{"duration":0.20000000000000284,"midi":71,"time":66.8,"velocity":0.3937007874015748},{"duration":0.20000000000000284,"midi":71,"time":66.8,"velocity":0.3937007874015748},{"duration":0.20000000000000284,"midi":71,"time":66.8,"velocity":0.3937007874015748},{"duration":1.2999999999999972,"midi":70,"time":67,"velocity":0.3937007874015748},{"duration":1.2999999999999972,"midi":70,"time":67,"velocity":0.3937007874015748},{"duration":1.2999999999999972,"midi":70,"time":67,"velocity":0.3937007874015748},{"duration":0.09999999999999432,"midi":46,"time":67.10000000000001,"velocity":0.3937007874015748},{"duration":0.09999999999999432,"midi":39,"time":67.7,"velocity":0.3937007874015748},{"duration":0.6000000000000085,"midi":71,"time":68.3,"velocity":0.3937007874015748},{"duration":0.10000000000000853,"midi":44,"time":68.3,"velocity":0.3937007874015748},{"duration":0.6000000000000085,"midi":71,"time":68.3,"velocity":0.3937007874015748},{"duration":0.6000000000000085,"midi":71,"time":68.3,"velocity":0.3937007874015748},{"duration":0.29999999999999716,"midi":73,"time":68.9,"velocity":0.3937007874015748},{"duration":0.09999999999999432,"midi":39,"time":68.9,"velocity":0.3937007874015748},{"duration":0.29999999999999716,"midi":73,"time":68.9,"velocity":0.3937007874015748},{"duration":0.29999999999999716,"midi":73,"time":68.9,"velocity":0.3937007874015748},{"duration":0.20000000000000284,"midi":71,"time":69.2,"velocity":0.3937007874015748},{"duration":0.20000000000000284,"midi":71,"time":69.2,"velocity":0.3937007874015748},{"duration":0.20000000000000284,"midi":71,"time":69.2,"velocity":0.3937007874015748},{"duration":1.2999999999999972,"midi":70,"time":69.4,"velocity":0.3937007874015748},{"duration":1.2999999999999972,"midi":70,"time":69.4,"velocity":0.3937007874015748},{"duration":1.2999999999999972,"midi":70,"time":69.4,"velocity":0.3937007874015748},{"duration":0.10000000000000853,"midi":46,"time":69.5,"velocity":0.3937007874015748},{"duration":0.09999999999999432,"midi":43,"time":70.10000000000001,"velocity":0.3937007874015748},{"duration":0.20000000000000284,"midi":71,"time":70.7,"velocity":0.3937007874015748},{"duration":0.20000000000000284,"midi":71,"time":70.7,"velocity":0.3937007874015748},{"duration":0.20000000000000284,"midi":71,"time":70.7,"velocity":0.3937007874015748},{"duration":0.09999999999999432,"midi":44,"time":70.7,"velocity":0.3937007874015748},{"duration":0.09999999999999432,"midi":39,"time":70.9,"velocity":0.3937007874015748},{"duration":0.09999999999999432,"midi":70,"time":70.9,"velocity":0.3937007874015748},{"duration":0.09999999999999432,"midi":70,"time":70.9,"velocity":0.3937007874015748},{"duration":0.09999999999999432,"midi":70,"time":70.9,"velocity":0.3937007874015748},{"duration":0.20000000000000284,"midi":71,"time":71,"velocity":0.3937007874015748},{"duration":0.10000000000000853,"midi":44,"time":71,"velocity":0.3937007874015748},{"duration":0.20000000000000284,"midi":71,"time":71,"velocity":0.3937007874015748},{"duration":0.20000000000000284,"midi":71,"time":71,"velocity":0.3937007874015748},{"duration":0.09999999999999432,"midi":46,"time":71.2,"velocity":0.3937007874015748},{"duration":0.30000000000001137,"midi":71,"time":71.3,"velocity":0.3937007874015748},{"duration":0.10000000000000853,"midi":47,"time":71.3,"velocity":0.3937007874015748},{"duration":0.30000000000001137,"midi":71,"time":71.3,"velocity":0.3937007874015748},{"duration":0.30000000000001137,"midi":71,"time":71.3,"velocity":0.3937007874015748},{"duration":0.29999999999999716,"midi":68,"time":71.60000000000001,"velocity":0.3937007874015748},{"duration":0.29999999999999716,"midi":68,"time":71.60000000000001,"velocity":0.3937007874015748},{"duration":0.09999999999999432,"midi":44,"time":71.60000000000001,"velocity":0.3937007874015748},{"duration":0.29999999999999716,"midi":68,"time":71.60000000000001,"velocity":0.3937007874015748},{"duration":0.09999999999999432,"midi":40,"time":71.9,"velocity":0.3937007874015748},{"duration":0.20000000000000284,"midi":73,"time":71.9,"velocity":0.3937007874015748},{"duration":0.20000000000000284,"midi":73,"time":71.9,"velocity":0.3937007874015748},{"duration":0.20000000000000284,"midi":73,"time":71.9,"velocity":0.3937007874015748},{"duration":0.09999999999999432,"midi":75,"time":72.10000000000001,"velocity":0.3937007874015748},{"duration":0.09999999999999432,"midi":75,"time":72.10000000000001,"velocity":0.3937007874015748},{"duration":0.09999999999999432,"midi":42,"time":72.10000000000001,"velocity":0.3937007874015748},{"duration":0.09999999999999432,"midi":75,"time":72.10000000000001,"velocity":0.3937007874015748},{"duration":0.09999999999999432,"midi":44,"time":72.2,"velocity":0.3937007874015748},{"duration":0.20000000000000284,"midi":76,"time":72.2,"velocity":0.3937007874015748},{"duration":0.20000000000000284,"midi":76,"time":72.2,"velocity":0.3937007874015748},{"duration":0.20000000000000284,"midi":76,"time":72.2,"velocity":0.3937007874015748},{"duration":0.09999999999999432,"midi":40,"time":72.4,"velocity":0.3937007874015748},{"duration":0.29999999999999716,"midi":76,"time":72.5,"velocity":0.3937007874015748},{"duration":0.10000000000000853,"midi":37,"time":72.5,"velocity":0.3937007874015748},{"duration":0.29999999999999716,"midi":76,"time":72.5,"velocity":0.3937007874015748},{"duration":0.29999999999999716,"midi":76,"time":72.5,"velocity":0.3937007874015748},{"duration":0.30000000000001137,"midi":73,"time":72.8,"velocity":0.3937007874015748},{"duration":0.30000000000001137,"midi":73,"time":72.8,"velocity":0.3937007874015748},{"duration":0.30000000000001137,"midi":73,"time":72.8,"velocity":0.3937007874015748},{"duration":0.09999999999999432,"midi":39,"time":73.10000000000001,"velocity":0.3937007874015748},{"duration":2.3999999999999915,"midi":75,"time":73.10000000000001,"velocity":0.3937007874015748},{"duration":2.3999999999999915,"midi":75,"time":73.10000000000001,"velocity":0.3937007874015748},{"duration":2.3999999999999915,"midi":75,"time":73.10000000000001,"velocity":0.3937007874015748},{"duration":0.6000000000000085,"midi":71,"time":75.5,"velocity":0.3937007874015748},{"duration":0.10000000000000853,"midi":44,"time":75.5,"velocity":0.3937007874015748},{"duration":0.6000000000000085,"midi":71,"time":75.5,"velocity":0.3937007874015748},{"duration":0.6000000000000085,"midi":71,"time":75.5,"velocity":0.3937007874015748},{"duration":0.09999999999999432,"midi":39,"time":76.10000000000001,"velocity":0.3937007874015748},{"duration":0.29999999999999716,"midi":68,"time":76.10000000000001,"velocity":0.3937007874015748},{"duration":0.29999999999999716,"midi":68,"time":76.10000000000001,"velocity":0.3937007874015748},{"duration":0.29999999999999716,"midi":68,"time":76.10000000000001,"velocity":0.3937007874015748},{"duration":0.20000000000000284,"midi":71,"time":76.4,"velocity":0.3937007874015748},{"duration":0.20000000000000284,"midi":71,"time":76.4,"velocity":0.3937007874015748},{"duration":0.20000000000000284,"midi":71,"time":76.4,"velocity":0.3937007874015748},{"duration":1.2999999999999972,"midi":70,"time":76.60000000000001,"velocity":0.3937007874015748},{"duration":1.2999999999999972,"midi":70,"time":76.60000000000001,"velocity":0.3937007874015748},{"duration":1.2999999999999972,"midi":70,"time":76.60000000000001,"velocity":0.3937007874015748},{"duration":0.10000000000000853,"midi":46,"time":76.7,"velocity":0.3937007874015748},{"duration":0.09999999999999432,"midi":39,"time":77.30000000000001,"velocity":0.3937007874015748},{"duration":0.5999999999999943,"midi":71,"time":77.9,"velocity":0.3937007874015748},{"duration":0.09999999999999432,"midi":44,"time":77.9,"velocity":0.3937007874015748},{"duration":0.5999999999999943,"midi":71,"time":77.9,"velocity":0.3937007874015748},{"duration":0.5999999999999943,"midi":71,"time":77.9,"velocity":0.3937007874015748},{"duration":0.10000000000000853,"midi":39,"time":78.5,"velocity":0.3937007874015748},{"duration":0.30000000000001137,"midi":73,"time":78.5,"velocity":0.3937007874015748},{"duration":0.30000000000001137,"midi":73,"time":78.5,"velocity":0.3937007874015748},{"duration":0.30000000000001137,"midi":73,"time":78.5,"velocity":0.3937007874015748},{"duration":0.19999999999998863,"midi":71,"time":78.80000000000001,"velocity":0.3937007874015748},{"duration":0.19999999999998863,"midi":71,"time":78.80000000000001,"velocity":0.3937007874015748},{"duration":0.19999999999998863,"midi":71,"time":78.80000000000001,"velocity":0.3937007874015748},{"duration":1.3000000000000114,"midi":70,"time":79,"velocity":0.3937007874015748},{"duration":1.3000000000000114,"midi":70,"time":79,"velocity":0.3937007874015748},{"duration":1.3000000000000114,"midi":70,"time":79,"velocity":0.3937007874015748},{"duration":0.09999999999999432,"midi":46,"time":79.10000000000001,"velocity":0.3937007874015748},{"duration":0.10000000000000853,"midi":43,"time":79.7,"velocity":0.3937007874015748},{"duration":0.19999999999998863,"midi":71,"time":80.30000000000001,"velocity":0.3937007874015748},{"duration":0.09999999999999432,"midi":44,"time":80.30000000000001,"velocity":0.3937007874015748},{"duration":0.19999999999998863,"midi":71,"time":80.30000000000001,"velocity":0.3937007874015748},{"duration":0.19999999999998863,"midi":71,"time":80.30000000000001,"velocity":0.3937007874015748},{"duration":0.10000000000000853,"midi":39,"time":80.5,"velocity":0.3937007874015748},{"duration":0.10000000000000853,"midi":70,"time":80.5,"velocity":0.3937007874015748},{"duration":0.10000000000000853,"midi":70,"time":80.5,"velocity":0.3937007874015748},{"duration":0.10000000000000853,"midi":70,"time":80.5,"velocity":0.3937007874015748},{"duration":0.09999999999999432,"midi":44,"time":80.60000000000001,"velocity":0.3937007874015748},{"duration":0.20000000000000284,"midi":71,"time":80.60000000000001,"velocity":0.3937007874015748},{"duration":0.20000000000000284,"midi":71,"time":80.60000000000001,"velocity":0.3937007874015748},{"duration":0.20000000000000284,"midi":71,"time":80.60000000000001,"velocity":0.3937007874015748},{"duration":0.09999999999999432,"midi":46,"time":80.80000000000001,"velocity":0.3937007874015748},{"duration":0.29999999999999716,"midi":71,"time":80.9,"velocity":0.3937007874015748},{"duration":0.09999999999999432,"midi":47,"time":80.9,"velocity":0.3937007874015748},{"duration":0.29999999999999716,"midi":71,"time":80.9,"velocity":0.3937007874015748},{"duration":0.29999999999999716,"midi":71,"time":80.9,"velocity":0.3937007874015748},{"duration":0.29999999999999716,"midi":68,"time":81.2,"velocity":0.3937007874015748},{"duration":0.29999999999999716,"midi":68,"time":81.2,"velocity":0.3937007874015748},{"duration":0.29999999999999716,"midi":68,"time":81.2,"velocity":0.3937007874015748},{"duration":0.10000000000000853,"midi":44,"time":81.2,"velocity":0.3937007874015748},{"duration":0.20000000000000284,"midi":73,"time":81.5,"velocity":0.3937007874015748},{"duration":0.20000000000000284,"midi":73,"time":81.5,"velocity":0.3937007874015748},{"duration":0.10000000000000853,"midi":40,"time":81.5,"velocity":0.3937007874015748},{"duration":0.20000000000000284,"midi":73,"time":81.5,"velocity":0.3937007874015748},{"duration":0.10000000000000853,"midi":75,"time":81.7,"velocity":0.3937007874015748},{"duration":0.10000000000000853,"midi":42,"time":81.7,"velocity":0.3937007874015748},{"duration":0.10000000000000853,"midi":75,"time":81.7,"velocity":0.3937007874015748},{"duration":0.10000000000000853,"midi":75,"time":81.7,"velocity":0.3937007874015748},{"duration":0.19999999999998863,"midi":76,"time":81.80000000000001,"velocity":0.3937007874015748},{"duration":0.09999999999999432,"midi":44,"time":81.80000000000001,"velocity":0.3937007874015748},{"duration":0.19999999999998863,"midi":76,"time":81.80000000000001,"velocity":0.3937007874015748},{"duration":0.19999999999998863,"midi":76,"time":81.80000000000001,"velocity":0.3937007874015748},{"duration":0.10000000000000853,"midi":40,"time":82,"velocity":0.3937007874015748},{"duration":0.29999999999999716,"midi":76,"time":82.10000000000001,"velocity":0.3937007874015748},{"duration":0.29999999999999716,"midi":76,"time":82.10000000000001,"velocity":0.3937007874015748},{"duration":0.29999999999999716,"midi":76,"time":82.10000000000001,"velocity":0.3937007874015748},{"duration":0.09999999999999432,"midi":37,"time":82.10000000000001,"velocity":0.3937007874015748},{"duration":0.29999999999999716,"midi":73,"time":82.4,"velocity":0.3937007874015748},{"duration":0.29999999999999716,"midi":73,"time":82.4,"velocity":0.3937007874015748},{"duration":0.29999999999999716,"midi":73,"time":82.4,"velocity":0.3937007874015748},{"duration":0.10000000000000853,"midi":39,"time":82.7,"velocity":0.3937007874015748},{"duration":2.4000000000000057,"midi":75,"time":82.7,"velocity":0.3937007874015748},{"duration":2.4000000000000057,"midi":75,"time":82.7,"velocity":0.3937007874015748},{"duration":2.4000000000000057,"midi":75,"time":82.7,"velocity":0.3937007874015748},{"duration":0.09999999999999432,"midi":75,"time":85.10000000000001,"velocity":0.3937007874015748},{"duration":0.09999999999999432,"midi":75,"time":85.10000000000001,"velocity":0.3937007874015748},{"duration":0.09999999999999432,"midi":75,"time":85.10000000000001,"velocity":0.3937007874015748},{"duration":0.09999999999999432,"midi":80,"time":85.10000000000001,"velocity":0.3937007874015748},{"duration":0.09999999999999432,"midi":80,"time":85.10000000000001,"velocity":0.3937007874015748},{"duration":0.09999999999999432,"midi":75,"time":85.10000000000001,"velocity":0.3937007874015748},{"duration":0.09999999999999432,"midi":80,"time":85.10000000000001,"velocity":0.3937007874015748},{"duration":0.09999999999999432,"midi":75,"time":85.10000000000001,"velocity":0.3937007874015748},{"duration":0.09999999999999432,"midi":32,"time":85.10000000000001,"velocity":0.3937007874015748},{"duration":0.09999999999999432,"midi":80,"time":85.10000000000001,"velocity":0.3937007874015748},{"duration":0.09999999999999432,"midi":32,"time":85.10000000000001,"velocity":0.3937007874015748},{"duration":0.09999999999999432,"midi":80,"time":85.10000000000001,"velocity":0.3937007874015748},{"duration":0.09999999999999432,"midi":56,"time":85.30000000000001,"velocity":0.3937007874015748},{"duration":0.09999999999999432,"midi":56,"time":85.30000000000001,"velocity":0.3937007874015748},{"duration":0.09999999999999432,"midi":35,"time":85.4,"velocity":0.3937007874015748},{"duration":0.09999999999999432,"midi":35,"time":85.4,"velocity":0.3937007874015748},{"duration":0.09999999999999432,"midi":59,"time":85.60000000000001,"velocity":0.3937007874015748},{"duration":0.09999999999999432,"midi":59,"time":85.60000000000001,"velocity":0.3937007874015748},{"duration":0.10000000000000853,"midi":39,"time":85.7,"velocity":0.3937007874015748},{"duration":0.10000000000000853,"midi":39,"time":85.7,"velocity":0.3937007874015748},{"duration":0.10000000000000853,"midi":31,"time":86,"velocity":0.3937007874015748},{"duration":0.10000000000000853,"midi":31,"time":86,"velocity":0.3937007874015748},{"duration":0.10000000000000853,"midi":43,"time":86.2,"velocity":0.3937007874015748},{"duration":0.10000000000000853,"midi":43,"time":86.2,"velocity":0.3937007874015748},{"duration":0.09999999999999432,"midi":32,"time":86.30000000000001,"velocity":0.3937007874015748},{"duration":0.09999999999999432,"midi":32,"time":86.30000000000001,"velocity":0.3937007874015748},{"duration":0.10000000000000853,"midi":56,"time":86.5,"velocity":0.3937007874015748},{"duration":0.09999999999999432,"midi":35,"time":86.60000000000001,"velocity":0.3937007874015748},{"duration":0.09999999999999432,"midi":59,"time":86.80000000000001,"velocity":0.3937007874015748},{"duration":0.09999999999999432,"midi":39,"time":86.9,"velocity":0.3937007874015748},{"duration":0.10000000000000853,"midi":56,"time":87.7,"velocity":0.3937007874015748},{"duration":0.10000000000000853,"midi":56,"time":87.7,"velocity":0.3937007874015748},{"duration":0.09999999999999432,"midi":35,"time":87.80000000000001,"velocity":0.3937007874015748},{"duration":0.09999999999999432,"midi":35,"time":87.80000000000001,"velocity":0.3937007874015748},{"duration":0.10000000000000853,"midi":59,"time":88,"velocity":0.3937007874015748},{"duration":0.10000000000000853,"midi":59,"time":88,"velocity":0.3937007874015748},{"duration":0.09999999999999432,"midi":39,"time":88.10000000000001,"velocity":0.3937007874015748},{"duration":0.09999999999999432,"midi":39,"time":88.10000000000001,"velocity":0.3937007874015748},{"duration":0.09999999999999432,"midi":31,"time":88.4,"velocity":0.3937007874015748},{"duration":0.09999999999999432,"midi":31,"time":88.4,"velocity":0.3937007874015748},{"duration":0.09999999999999432,"midi":43,"time":88.60000000000001,"velocity":0.3937007874015748},{"duration":0.09999999999999432,"midi":43,"time":88.60000000000001,"velocity":0.3937007874015748},{"duration":0.10000000000000853,"midi":44,"time":88.7,"velocity":0.3937007874015748},{"duration":0.10000000000000853,"midi":44,"time":88.7,"velocity":0.3937007874015748},{"duration":0.10000000000000853,"midi":32,"time":88.7,"velocity":0.3937007874015748},{"duration":0.10000000000000853,"midi":32,"time":88.7,"velocity":0.3937007874015748},{"duration":0.09999999999999432,"midi":32,"time":89.9,"velocity":0.3937007874015748},{"duration":0.09999999999999432,"midi":32,"time":89.9,"velocity":0.3937007874015748},{"duration":0.09999999999999432,"midi":56,"time":90.10000000000001,"velocity":0.3937007874015748},{"duration":0.09999999999999432,"midi":56,"time":90.10000000000001,"velocity":0.3937007874015748},{"duration":0.10000000000000853,"midi":35,"time":90.2,"velocity":0.3937007874015748},{"duration":0.10000000000000853,"midi":35,"time":90.2,"velocity":0.3937007874015748},{"duration":0.09999999999999432,"midi":59,"time":90.4,"velocity":0.3937007874015748},{"duration":0.09999999999999432,"midi":59,"time":90.4,"velocity":0.3937007874015748},{"duration":0.10000000000000853,"midi":39,"time":90.5,"velocity":0.3937007874015748},{"duration":0.10000000000000853,"midi":39,"time":90.5,"velocity":0.3937007874015748},{"duration":0.09999999999999432,"midi":31,"time":90.80000000000001,"velocity":0.3937007874015748},{"duration":0.09999999999999432,"midi":31,"time":90.80000000000001,"velocity":0.3937007874015748},{"duration":0.10000000000000853,"midi":43,"time":91,"velocity":0.3937007874015748},{"duration":0.10000000000000853,"midi":43,"time":91,"velocity":0.3937007874015748},{"duration":0.09999999999999432,"midi":32,"time":91.10000000000001,"velocity":0.3937007874015748},{"duration":0.09999999999999432,"midi":32,"time":91.10000000000001,"velocity":0.3937007874015748},{"duration":0.09999999999999432,"midi":56,"time":91.30000000000001,"velocity":0.3937007874015748},{"duration":0.09999999999999432,"midi":35,"time":91.4,"velocity":0.3937007874015748},{"duration":0.09999999999999432,"midi":59,"time":91.60000000000001,"velocity":0.3937007874015748},{"duration":0.10000000000000853,"midi":39,"time":91.7,"velocity":0.3937007874015748},{"duration":0.10000000000000853,"midi":56,"time":92.5,"velocity":0.3937007874015748},{"duration":0.10000000000000853,"midi":56,"time":92.5,"velocity":0.3937007874015748},{"duration":0.09999999999999432,"midi":35,"time":92.60000000000001,"velocity":0.3937007874015748},{"duration":0.09999999999999432,"midi":35,"time":92.60000000000001,"velocity":0.3937007874015748},{"duration":0.09999999999999432,"midi":59,"time":92.80000000000001,"velocity":0.3937007874015748},{"duration":0.09999999999999432,"midi":59,"time":92.80000000000001,"velocity":0.3937007874015748},{"duration":0.09999999999999432,"midi":39,"time":92.9,"velocity":0.3937007874015748},{"duration":0.09999999999999432,"midi":39,"time":92.9,"velocity":0.3937007874015748},{"duration":0.10000000000000853,"midi":31,"time":93.2,"velocity":0.3937007874015748},{"duration":0.10000000000000853,"midi":31,"time":93.2,"velocity":0.3937007874015748},{"duration":0.09999999999999432,"midi":43,"time":93.4,"velocity":0.3937007874015748},{"duration":0.09999999999999432,"midi":43,"time":93.4,"velocity":0.3937007874015748},{"duration":0.10000000000000853,"midi":32,"time":93.5,"velocity":0.3937007874015748},{"duration":0.10000000000000853,"midi":32,"time":93.5,"velocity":0.3937007874015748},{"duration":0.10000000000000853,"midi":44,"time":93.5,"velocity":0.3937007874015748},{"duration":0.10000000000000853,"midi":44,"time":93.5,"velocity":0.3937007874015748},{"duration":0.10000000000000853,"midi":32,"time":94.7,"velocity":0.3937007874015748},{"duration":0.10000000000000853,"midi":32,"time":94.7,"velocity":0.3937007874015748},{"duration":0.09999999999999432,"midi":56,"time":94.9,"velocity":0.3937007874015748},{"duration":0.09999999999999432,"midi":56,"time":94.9,"velocity":0.3937007874015748},{"duration":0.10000000000000853,"midi":35,"time":95,"velocity":0.3937007874015748},{"duration":0.10000000000000853,"midi":35,"time":95,"velocity":0.3937007874015748},{"duration":0.10000000000000853,"midi":59,"time":95.2,"velocity":0.3937007874015748},{"duration":0.10000000000000853,"midi":59,"time":95.2,"velocity":0.3937007874015748},{"duration":0.09999999999999432,"midi":39,"time":95.30000000000001,"velocity":0.3937007874015748},{"duration":0.09999999999999432,"midi":39,"time":95.30000000000001,"velocity":0.3937007874015748},{"duration":0.09999999999999432,"midi":31,"time":95.60000000000001,"velocity":0.3937007874015748},{"duration":0.09999999999999432,"midi":31,"time":95.60000000000001,"velocity":0.3937007874015748},{"duration":0.09999999999999432,"midi":43,"time":95.80000000000001,"velocity":0.3937007874015748},{"duration":0.09999999999999432,"midi":43,"time":95.80000000000001,"velocity":0.3937007874015748},{"duration":0.09999999999999432,"midi":32,"time":95.9,"velocity":0.3937007874015748},{"duration":0.09999999999999432,"midi":32,"time":95.9,"velocity":0.3937007874015748},{"duration":0.09999999999999432,"midi":56,"time":96.10000000000001,"velocity":0.3937007874015748},{"duration":0.10000000000000853,"midi":35,"time":96.2,"velocity":0.3937007874015748},{"duration":0.09999999999999432,"midi":59,"time":96.4,"velocity":0.3937007874015748},{"duration":0.10000000000000853,"midi":39,"time":96.5,"velocity":0.3937007874015748},{"duration":0.09999999999999432,"midi":42,"time":96.80000000000001,"velocity":0.3937007874015748},{"duration":0.09999999999999432,"midi":40,"time":97.10000000000001,"velocity":0.3937007874015748},{"duration":0.09999999999999432,"midi":64,"time":97.30000000000001,"velocity":0.3937007874015748},{"duration":0.09999999999999432,"midi":44,"time":97.4,"velocity":0.3937007874015748},{"duration":0.09999999999999432,"midi":61,"time":97.60000000000001,"velocity":0.3937007874015748},{"duration":0.10000000000000853,"midi":37,"time":97.7,"velocity":0.3937007874015748},{"duration":0.10000000000000853,"midi":35,"time":98,"velocity":0.3937007874015748},{"duration":0.09999999999999432,"midi":40,"time":98.30000000000001,"velocity":0.3937007874015748},{"duration":0.10000000000000853,"midi":64,"time":98.5,"velocity":0.3937007874015748},{"duration":0.09999999999999432,"midi":44,"time":98.60000000000001,"velocity":0.3937007874015748},{"duration":0.09999999999999432,"midi":68,"time":98.80000000000001,"velocity":0.3937007874015748},{"duration":0.09999999999999432,"midi":39,"time":98.9,"velocity":0.3937007874015748},{"duration":0.10000000000000853,"midi":42,"time":99.2,"velocity":0.3937007874015748},{"duration":0.10000000000000853,"midi":44,"time":99.5,"velocity":0.3937007874015748},{"duration":0.10000000000000853,"midi":71,"time":99.7,"velocity":0.3937007874015748},{"duration":0.09999999999999432,"midi":47,"time":99.80000000000001,"velocity":0.3937007874015748},{"duration":0.10000000000000853,"midi":75,"time":100,"velocity":0.3937007874015748},{"duration":0.09999999999999432,"midi":39,"time":100.10000000000001,"velocity":0.3937007874015748},{"duration":0.09999999999999432,"midi":42,"time":100.4,"velocity":0.3937007874015748},{"duration":0.10000000000000853,"midi":44,"time":100.7,"velocity":0.3937007874015748},{"duration":0.09999999999999432,"midi":68,"time":100.9,"velocity":0.3937007874015748},{"duration":0.10000000000000853,"midi":47,"time":101,"velocity":0.3937007874015748},{"duration":0.10000000000000853,"midi":71,"time":101.2,"velocity":0.3937007874015748},{"duration":0.09999999999999432,"midi":51,"time":101.30000000000001,"velocity":0.3937007874015748},{"duration":0.09999999999999432,"midi":47,"time":101.60000000000001,"velocity":0.3937007874015748},{"duration":0.09999999999999432,"midi":52,"time":101.9,"velocity":0.3937007874015748},{"duration":0.09999999999999432,"midi":76,"time":102.10000000000001,"velocity":0.3937007874015748},{"duration":0.10000000000000853,"midi":47,"time":102.2,"velocity":0.3937007874015748},{"duration":0.09999999999999432,"midi":75,"time":102.4,"velocity":0.3937007874015748},{"duration":0.10000000000000853,"midi":49,"time":102.5,"velocity":0.3937007874015748},{"duration":0.09999999999999432,"midi":47,"time":102.80000000000001,"velocity":0.3937007874015748},{"duration":0.09999999999999432,"midi":40,"time":103.10000000000001,"velocity":0.3937007874015748},{"duration":0.09999999999999432,"midi":68,"time":103.30000000000001,"velocity":0.3937007874015748},{"duration":0.09999999999999432,"midi":44,"time":103.4,"velocity":0.3937007874015748},{"duration":0.09999999999999432,"midi":66,"time":103.60000000000001,"velocity":0.3937007874015748},{"duration":0.10000000000000853,"midi":42,"time":103.7,"velocity":0.3937007874015748},{"duration":0.09999999999999432,"midi":70,"time":103.9,"velocity":0.3937007874015748},{"duration":0.10000000000000853,"midi":46,"time":104,"velocity":0.3937007874015748},{"duration":0.09999999999999432,"midi":40,"time":104.30000000000001,"velocity":0.3937007874015748},{"duration":0.09999999999999432,"midi":40,"time":104.80000000000001,"velocity":0.3937007874015748},{"duration":0.09999999999999432,"midi":44,"time":104.9,"velocity":0.3937007874015748},{"duration":0.09999999999999432,"midi":47,"time":105.10000000000001,"velocity":0.3937007874015748},{"duration":0.09999999999999432,"midi":39,"time":105.4,"velocity":0.3937007874015748},{"duration":0.10000000000000853,"midi":39,"time":105.7,"velocity":0.3937007874015748},{"duration":0.09999999999999432,"midi":42,"time":106.10000000000001,"velocity":0.3937007874015748},{"duration":0.09999999999999432,"midi":46,"time":106.4,"velocity":0.3937007874015748},{"duration":0.10000000000000853,"midi":39,"time":106.7,"velocity":0.3937007874015748},{"duration":0.09999999999999432,"midi":42,"time":106.9,"velocity":0.3937007874015748},{"duration":0.10000000000000853,"midi":47,"time":107,"velocity":0.3937007874015748},{"duration":0.10000000000000853,"midi":51,"time":107.2,"velocity":0.3937007874015748},{"duration":0.10000000000000853,"midi":47,"time":107.5,"velocity":0.3937007874015748},{"duration":0.09999999999999432,"midi":44,"time":107.80000000000001,"velocity":0.3937007874015748},{"duration":0.09999999999999432,"midi":40,"time":109.10000000000001,"velocity":0.3937007874015748},{"duration":0.10000000000000853,"midi":39,"time":109.7,"velocity":0.3937007874015748},{"duration":0.09999999999999432,"midi":37,"time":110.30000000000001,"velocity":0.3937007874015748},{"duration":0.09999999999999432,"midi":34,"time":110.9,"velocity":0.3937007874015748},{"duration":0.09999999999999432,"midi":31,"time":111.10000000000001,"velocity":0.3937007874015748},{"duration":0.09999999999999432,"midi":39,"time":111.4,"velocity":0.3937007874015748}]}]}
