{"tracks":[{"instrument":{"family":"piano","number":0,"name":"acoustic grand piano"},"notes":[{"duration":2.666664,"midi":61,"time":2.666664,"velocity":0.3858267716535433},{"duration":2.666664,"midi":61,"time":5.333328,"velocity":0.3858267716535433},{"duration":2.666664,"midi":61,"time":7.999992,"velocity":0.3858267716535433},{"duration":2.666664000000001,"midi":61,"time":10.666656,"velocity":0.3858267716535433},{"duration":0.4999994999999995,"midi":37,"time":13.33332,"velocity":0.3858267716535433},{"duration":0.4999994999999995,"midi":37,"time":13.8333195,"velocity":0.3858267716535433},{"duration":0.4999994999999995,"midi":37,"time":14.333319,"velocity":0.3858267716535433},{"duration":0.49999950000000126,"midi":37,"time":14.833318499999999,"velocity":0.3858267716535433},{"duration":0.4999994999999995,"midi":37,"time":15.333318,"velocity":0.3858267716535433},{"duration":0.16666649999999983,"midi":37,"time":15.8333175,"velocity":0.3858267716535433},{"duration":0.4999994999999995,"midi":44,"time":15.999984,"velocity":0.3858267716535433},{"duration":0.49999950000000126,"midi":44,"time":16.4999835,"velocity":0.3858267716535433},{"duration":0.4999994999999977,"midi":44,"time":16.999983,"velocity":0.3858267716535433},{"duration":0.49999950000000126,"midi":44,"time":17.499982499999998,"velocity":0.3858267716535433},{"duration":0.49999950000000126,"midi":44,"time":17.999982,"velocity":0.3858267716535433},{"duration":0.16666649999999805,"midi":44,"time":18.4999815,"velocity":0.3858267716535433},{"duration":0.49999950000000126,"midi":39,"time":18.666648,"velocity":0.3858267716535433},{"duration":0.49999950000000126,"midi":39,"time":19.1666475,"velocity":0.3858267716535433},{"duration":0.4999994999999977,"midi":39,"time":19.666647,"velocity":0.3858267716535433},{"duration":0.49999950000000126,"midi":39,"time":20.1666465,"velocity":0.3858267716535433},{"duration":0.4999994999999977,"midi":39,"time":20.666646,"velocity":0.3858267716535433},{"duration":0.1666665000000016,"midi":39,"time":21.166645499999998,"velocity":0.3858267716535433},{"duration":0.49999950000000126,"midi":38,"time":21.333312,"velocity":0.3858267716535433},{"duration":0.4999994999999977,"midi":38,"time":21.8333115,"velocity":0.3858267716535433},{"duration":0.49999950000000126,"midi":38,"time":22.333311,"velocity":0.3858267716535433},{"duration":0.33333299999999966,"midi":38,"time":22.666643999999998,"velocity":0.3858267716535433},{"duration":0.49999950000000126,"midi":38,"time":22.8333105,"velocity":0.3858267716535433},{"duration":0.3333330000000032,"midi":38,"time":22.999976999999998,"velocity":0.3858267716535433},{"duration":0.33333299999999966,"midi":38,"time":23.33331,"velocity":0.3858267716535433},{"duration":0.4999994999999977,"midi":38,"time":23.33331,"velocity":0.3858267716535433},{"duration":0.33333299999999966,"midi":38,"time":23.666643,"velocity":0.3858267716535433},{"duration":0.1666665000000016,"midi":38,"time":23.8333095,"velocity":0.3858267716535433},{"duration":0.999998999999999,"midi":61,"time":23.999976,"velocity":0.3858267716535433},{"duration":0.6666659999999993,"midi":35,"time":23.999976,"velocity":0.3858267716535433},{"duration":0.4999994999999977,"midi":36,"time":23.999976,"velocity":0.3858267716535433},{"duration":0.999998999999999,"midi":73,"time":23.999976,"velocity":0.3858267716535433},{"duration":0.8333325000000009,"midi":36,"time":24.499975499999998,"velocity":0.3858267716535433},{"duration":0.6666659999999993,"midi":39,"time":24.666642,"velocity":0.3858267716535433},{"duration":0.33333299999999966,"midi":76,"time":24.999975,"velocity":0.3858267716535433},{"duration":0.33333299999999966,"midi":64,"time":24.999975,"velocity":0.3858267716535433},{"duration":0.6666659999999993,"midi":35,"time":25.333308,"velocity":0.3858267716535433},{"duration":0.999998999999999,"midi":63,"time":25.333308,"velocity":0.3858267716535433},{"duration":0.999998999999999,"midi":75,"time":25.333308,"velocity":0.3858267716535433},{"duration":0.49999950000000126,"midi":36,"time":25.333308,"velocity":0.3858267716535433},{"duration":0.8333325000000009,"midi":36,"time":25.8333075,"velocity":0.3858267716535433},{"duration":0.6666660000000029,"midi":39,"time":25.999973999999998,"velocity":0.3858267716535433},{"duration":0.3333330000000032,"midi":68,"time":26.333306999999998,"velocity":0.3858267716535433},{"duration":0.3333330000000032,"midi":80,"time":26.333306999999998,"velocity":0.3858267716535433},{"duration":0.999998999999999,"midi":80,"time":26.66664,"velocity":0.3858267716535433},{"duration":0.999998999999999,"midi":68,"time":26.66664,"velocity":0.3858267716535433},{"duration":0.4999994999999977,"midi":36,"time":26.66664,"velocity":0.3858267716535433},{"duration":0.6666659999999993,"midi":35,"time":26.66664,"velocity":0.3858267716535433},{"duration":0.8333325000000009,"midi":36,"time":27.1666395,"velocity":0.3858267716535433},{"duration":0.6666659999999993,"midi":39,"time":27.333306,"velocity":0.3858267716535433},{"duration":0.16666649999999805,"midi":66,"time":27.666639,"velocity":0.3858267716535433},{"duration":0.16666649999999805,"midi":78,"time":27.666639,"velocity":0.3858267716535433},{"duration":0.1666665000000016,"midi":76,"time":27.833305499999998,"velocity":0.3858267716535433},{"duration":0.1666665000000016,"midi":64,"time":27.833305499999998,"velocity":0.3858267716535433},{"duration":0.49999950000000126,"midi":36,"time":27.999972,"velocity":0.3858267716535433},{"duration":0.33333299999999966,"midi":75,"time":27.999972,"velocity":0.3858267716535433},{"duration":0.6666659999999993,"midi":35,"time":27.999972,"velocity":0.3858267716535433},{"duration":0.33333299999999966,"midi":63,"time":27.999972,"velocity":0.3858267716535433},{"duration":0.33333299999999966,"midi":76,"time":28.333305,"velocity":0.3858267716535433},{"duration":0.33333299999999966,"midi":64,"time":28.333305,"velocity":0.3858267716535433},{"duration":0.8333324999999974,"midi":36,"time":28.4999715,"velocity":0.3858267716535433},{"duration":0.33333299999999966,"midi":71,"time":28.666638,"velocity":0.3858267716535433},{"duration":0.6666659999999993,"midi":39,"time":28.666638,"velocity":0.3858267716535433},{"duration":0.33333299999999966,"midi":68,"time":28.999971,"velocity":0.3858267716535433},{"duration":0.33333299999999966,"midi":36,"time":29.333304,"velocity":0.3858267716535433},{"duration":0.6666659999999993,"midi":69,"time":29.333304,"velocity":0.3858267716535433},{"duration":0.33333299999999966,"midi":39,"time":29.666636999999998,"velocity":0.3858267716535433},{"duration":0.3333330000000032,"midi":73,"time":29.999969999999998,"velocity":0.3858267716535433},{"duration":0.3333330000000032,"midi":61,"time":29.999969999999998,"velocity":0.3858267716535433},{"duration":0.3333330000000032,"midi":36,"time":29.999969999999998,"velocity":0.3858267716535433},{"duration":0.33333299999999966,"midi":76,"time":30.333303,"velocity":0.3858267716535433},{"duration":0.33333299999999966,"midi":39,"time":30.333303,"velocity":0.3858267716535433},{"duration":0.33333299999999966,"midi":64,"time":30.333303,"velocity":0.3858267716535433},{"duration":0.999998999999999,"midi":75,"time":30.666636,"velocity":0.3858267716535433},{"duration":0.33333299999999966,"midi":36,"time":30.666636,"velocity":0.3858267716535433},{"duration":0.999998999999999,"midi":63,"time":30.666636,"velocity":0.3858267716535433},{"duration":0.33333299999999966,"midi":39,"time":30.999969,"velocity":0.3858267716535433},{"duration":0.33333299999999966,"midi":36,"time":31.333302,"velocity":0.3858267716535433},{"duration":0.33333299999999966,"midi":78,"time":31.666635,"velocity":0.3858267716535433},{"duration":0.33333299999999966,"midi":66,"time":31.666635,"velocity":0.3858267716535433},{"duration":0.33333299999999966,"midi":39,"time":31.666635,"velocity":0.3858267716535433},{"duration":0.6666660000000029,"midi":76,"time":31.999968,"velocity":0.3858267716535433},{"duration":0.6666660000000029,"midi":64,"time":31.999968,"velocity":0.3858267716535433},{"duration":0.33333299999999966,"midi":36,"time":31.999968,"velocity":0.3858267716535433},{"duration":0.3333330000000032,"midi":39,"time":32.333301,"velocity":0.3858267716535433},{"duration":0.3333329999999961,"midi":36,"time":32.666634,"velocity":0.3858267716535433},{"duration":0.6666659999999993,"midi":80,"time":32.666634,"velocity":0.3858267716535433},{"duration":0.6666659999999993,"midi":68,"time":32.666634,"velocity":0.3858267716535433},{"duration":0.3333330000000032,"midi":39,"time":32.999967,"velocity":0.3858267716535433},{"duration":0.3333329999999961,"midi":66,"time":33.3333,"velocity":0.3858267716535433},{"duration":0.3333329999999961,"midi":78,"time":33.3333,"velocity":0.3858267716535433},{"duration":0.3333329999999961,"midi":36,"time":33.3333,"velocity":0.3858267716535433},{"duration":0.3333329999999961,"midi":39,"time":33.3333,"velocity":0.3858267716535433},{"duration":0.3333330000000032,"midi":83,"time":33.666633,"velocity":0.3858267716535433},{"duration":0.3333330000000032,"midi":71,"time":33.666633,"velocity":0.3858267716535433},{"duration":0.16666649999999805,"midi":39,"time":33.8332995,"velocity":0.3858267716535433},{"duration":0.16666649999999805,"midi":36,"time":33.8332995,"velocity":0.3858267716535433},{"duration":0.6666659999999993,"midi":80,"time":33.999966,"velocity":0.3858267716535433},{"duration":0.6666659999999993,"midi":68,"time":33.999966,"velocity":0.3858267716535433},{"duration":0.3333330000000032,"midi":36,"time":34.333299,"velocity":0.3858267716535433},{"duration":0.3333330000000032,"midi":39,"time":34.333299,"velocity":0.3858267716535433},{"duration":0.3333329999999961,"midi":34,"time":34.666632,"velocity":0.3858267716535433},{"duration":1.3333319999999986,"midi":37,"time":34.666632,"velocity":0.3858267716535433},{"duration":0.3333330000000032,"midi":39,"time":34.999964999999996,"velocity":0.3858267716535433},{"duration":0.3333330000000032,"midi":34,"time":35.333298,"velocity":0.3858267716535433},{"duration":0.3333329999999961,"midi":39,"time":35.666631,"velocity":0.3858267716535433},{"duration":0.3333330000000032,"midi":34,"time":35.999964,"velocity":0.3858267716535433},{"duration":1.3333319999999986,"midi":30,"time":35.999964,"velocity":0.3858267716535433},{"duration":0.3333329999999961,"midi":39,"time":36.333297,"velocity":0.3858267716535433},{"duration":0.3333330000000032,"midi":34,"time":36.66663,"velocity":0.3858267716535433},{"duration":0.3333329999999961,"midi":39,"time":36.999963,"velocity":0.3858267716535433},{"duration":0.3333330000000032,"midi":34,"time":37.333296,"velocity":0.3858267716535433},{"duration":1.3333319999999986,"midi":32,"time":37.333296,"velocity":0.3858267716535433},{"duration":0.3333329999999961,"midi":39,"time":37.666629,"velocity":0.3858267716535433},{"duration":0.3333330000000032,"midi":34,"time":37.999962,"velocity":0.3858267716535433},{"duration":0.3333329999999961,"midi":39,"time":38.333295,"velocity":0.3858267716535433},{"duration":0.6666660000000064,"midi":33,"time":38.666627999999996,"velocity":0.3858267716535433},{"duration":0.3333330000000032,"midi":34,"time":38.666627999999996,"velocity":0.3858267716535433},{"duration":0.3333330000000032,"midi":39,"time":38.999961,"velocity":0.3858267716535433},{"duration":0.3333329999999961,"midi":34,"time":39.333294,"velocity":0.3858267716535433},{"duration":0.6666659999999993,"midi":35,"time":39.333294,"velocity":0.3858267716535433},{"duration":0.3333330000000032,"midi":39,"time":39.666627,"velocity":0.3858267716535433},{"duration":1.3333319999999986,"midi":37,"time":39.99996,"velocity":0.3858267716535433},{"duration":0.3333329999999961,"midi":34,"time":39.99996,"velocity":0.3858267716535433},{"duration":0.3333330000000032,"midi":39,"time":40.333293,"velocity":0.3858267716535433},{"duration":0.3333329999999961,"midi":34,"time":40.666626,"velocity":0.3858267716535433},{"duration":0.3333330000000032,"midi":39,"time":40.999959,"velocity":0.3858267716535433},{"duration":1.3333319999999986,"midi":30,"time":41.333292,"velocity":0.3858267716535433},{"duration":0.3333329999999961,"midi":34,"time":41.333292,"velocity":0.3858267716535433},{"duration":0.3333330000000032,"midi":39,"time":41.666624999999996,"velocity":0.3858267716535433},{"duration":0.3333329999999961,"midi":34,"time":41.999958,"velocity":0.3858267716535433},{"duration":0.3333330000000032,"midi":39,"time":42.333290999999996,"velocity":0.3858267716535433},{"duration":1.3333319999999986,"midi":32,"time":42.666624,"velocity":0.3858267716535433},{"duration":0.3333330000000032,"midi":34,"time":42.666624,"velocity":0.3858267716535433},{"duration":0.3333329999999961,"midi":39,"time":42.999957,"velocity":0.3858267716535433},{"duration":0.3333330000000032,"midi":34,"time":43.33329,"velocity":0.3858267716535433},{"duration":0.3333329999999961,"midi":39,"time":43.666623,"velocity":0.3858267716535433},{"duration":0.3333330000000032,"midi":34,"time":43.999956,"velocity":0.3858267716535433},{"duration":0.6666659999999993,"midi":33,"time":43.999956,"velocity":0.3858267716535433},{"duration":0.3333329999999961,"midi":39,"time":44.333289,"velocity":0.3858267716535433},{"duration":0.3333330000000032,"midi":34,"time":44.666622,"velocity":0.3858267716535433},{"duration":0.3333330000000032,"midi":35,"time":44.666622,"velocity":0.3858267716535433},{"duration":0.3333329999999961,"midi":37,"time":44.999955,"velocity":0.3858267716535433},{"duration":0.3333329999999961,"midi":39,"time":44.999955,"velocity":0.3858267716535433},{"duration":2.6666640000000044,"midi":35,"time":45.333287999999996,"velocity":0.3858267716535433},{"duration":0.3333330000000032,"midi":34,"time":45.333287999999996,"velocity":0.3858267716535433},{"duration":0.3333329999999961,"midi":39,"time":45.666621,"velocity":0.3858267716535433},{"duration":0.3333330000000032,"midi":34,"time":45.999953999999995,"velocity":0.3858267716535433},{"duration":0.3333330000000032,"midi":39,"time":46.333287,"velocity":0.3858267716535433},{"duration":0.3333329999999961,"midi":34,"time":46.66662,"velocity":0.3858267716535433},{"duration":0.3333330000000032,"midi":39,"time":46.999953,"velocity":0.3858267716535433},{"duration":0.3333329999999961,"midi":34,"time":47.333286,"velocity":0.3858267716535433},{"duration":0.3333330000000032,"midi":39,"time":47.666619,"velocity":0.3858267716535433},{"duration":1.3333319999999986,"midi":33,"time":47.999952,"velocity":0.3858267716535433},{"duration":0.3333329999999961,"midi":34,"time":47.999952,"velocity":0.3858267716535433},{"duration":0.3333330000000032,"midi":39,"time":48.333285,"velocity":0.3858267716535433},{"duration":0.3333329999999961,"midi":34,"time":48.666618,"velocity":0.3858267716535433},{"duration":0.3333330000000032,"midi":39,"time":48.999950999999996,"velocity":0.3858267716535433},{"duration":0.3333329999999961,"midi":34,"time":49.333284,"velocity":0.3858267716535433},{"duration":1.3333319999999986,"midi":32,"time":49.333284,"velocity":0.3858267716535433},{"duration":0.3333330000000032,"midi":39,"time":49.666616999999995,"velocity":0.3858267716535433},{"duration":0.3333330000000032,"midi":34,"time":49.99995,"velocity":0.3858267716535433},{"duration":0.3333329999999961,"midi":39,"time":50.333283,"velocity":0.3858267716535433},{"duration":0.3333330000000032,"midi":34,"time":50.666616,"velocity":0.3858267716535433},{"duration":2.6666640000000044,"midi":30,"time":50.666616,"velocity":0.3858267716535433},{"duration":0.3333329999999961,"midi":39,"time":50.999949,"velocity":0.3858267716535433},{"duration":0.3333330000000032,"midi":34,"time":51.333282,"velocity":0.3858267716535433},{"duration":0.3333329999999961,"midi":39,"time":51.666615,"velocity":0.3858267716535433},{"duration":0.3333330000000032,"midi":34,"time":51.999947999999996,"velocity":0.3858267716535433},{"duration":0.3333329999999961,"midi":39,"time":52.333281,"velocity":0.3858267716535433},{"duration":0.3333330000000032,"midi":34,"time":52.666613999999996,"velocity":0.3858267716535433},{"duration":0.3333330000000032,"midi":39,"time":52.999947,"velocity":0.3858267716535433},{"duration":1.3333319999999986,"midi":27,"time":53.33328,"velocity":0.3858267716535433},{"duration":0.3333329999999961,"midi":34,"time":53.33328,"velocity":0.3858267716535433},{"duration":0.3333330000000032,"midi":39,"time":53.666613,"velocity":0.3858267716535433},{"duration":0.3333329999999961,"midi":34,"time":53.999946,"velocity":0.3858267716535433},{"duration":0.3333330000000032,"midi":39,"time":54.333279,"velocity":0.3858267716535433},{"duration":1.3333319999999986,"midi":32,"time":54.666612,"velocity":0.3858267716535433},{"duration":0.3333329999999961,"midi":34,"time":54.666612,"velocity":0.3858267716535433},{"duration":0.3333330000000032,"midi":39,"time":54.999945,"velocity":0.3858267716535433},{"duration":0.3333329999999961,"midi":34,"time":55.333278,"velocity":0.3858267716535433},{"duration":0.3333330000000032,"midi":39,"time":55.666610999999996,"velocity":0.3858267716535433},{"duration":1.3333319999999986,"midi":25,"time":55.999944,"velocity":0.3858267716535433},{"duration":0.6666659999999993,"midi":41,"time":55.999944,"velocity":0.3858267716535433},{"duration":0.6666659999999993,"midi":35,"time":55.999944,"velocity":0.3858267716535433},{"duration":0.6666659999999993,"midi":39,"time":56.66661,"velocity":0.3858267716535433},{"duration":0.49999950000000126,"midi":41,"time":57.333276,"velocity":0.3858267716535433},{"duration":1.3333319999999986,"midi":32,"time":57.333276,"velocity":0.3858267716535433},{"duration":0.49999950000000126,"midi":35,"time":57.333276,"velocity":0.3858267716535433},{"duration":0.16666649999999805,"midi":35,"time":57.8332755,"velocity":0.3858267716535433},{"duration":0.16666649999999805,"midi":41,"time":57.8332755,"velocity":0.3858267716535433},{"duration":0.6666659999999993,"midi":39,"time":57.999942,"velocity":0.3858267716535433},{"duration":0.6666659999999993,"midi":41,"time":58.666608,"velocity":0.3858267716535433},{"duration":1.3333319999999986,"midi":33,"time":58.666608,"velocity":0.3858267716535433},{"duration":0.6666659999999993,"midi":35,"time":58.666608,"velocity":0.3858267716535433},{"duration":0.6666659999999993,"midi":39,"time":59.333273999999996,"velocity":0.3858267716535433},{"duration":0.49999950000000126,"midi":35,"time":59.999939999999995,"velocity":0.3858267716535433},{"duration":0.49999950000000126,"midi":41,"time":59.999939999999995,"velocity":0.3858267716535433},{"duration":0.6666660000000064,"midi":35,"time":59.999939999999995,"velocity":0.3858267716535433},{"duration":0.8333325000000045,"midi":35,"time":60.499939499999996,"velocity":0.3858267716535433},{"duration":0.16666650000000516,"midi":41,"time":60.499939499999996,"velocity":0.3858267716535433},{"duration":0.6666659999999993,"midi":39,"time":60.666606,"velocity":0.3858267716535433},{"duration":0.6666659999999993,"midi":35,"time":61.333272,"velocity":0.3858267716535433},{"duration":0.6666659999999993,"midi":41,"time":61.333272,"velocity":0.3858267716535433},{"duration":1.3333319999999986,"midi":30,"time":61.333272,"velocity":0.3858267716535433},{"duration":0.6666659999999993,"midi":39,"time":61.999938,"velocity":0.3858267716535433},{"duration":1.3333319999999986,"midi":32,"time":62.666604,"velocity":0.3858267716535433},{"duration":0.49999950000000126,"midi":35,"time":62.666604,"velocity":0.3858267716535433},{"duration":0.49999950000000126,"midi":41,"time":62.666604,"velocity":0.3858267716535433},{"duration":0.16666649999999805,"midi":41,"time":63.1666035,"velocity":0.3858267716535433},{"duration":0.16666649999999805,"midi":35,"time":63.1666035,"velocity":0.3858267716535433},{"duration":0.6666659999999993,"midi":39,"time":63.33327,"velocity":0.3858267716535433},{"duration":0.6666659999999993,"midi":35,"time":63.999936,"velocity":0.3858267716535433},{"duration":1.3333320000000057,"midi":33,"time":63.999936,"velocity":0.3858267716535433},{"duration":0.6666659999999993,"midi":41,"time":63.999936,"velocity":0.3858267716535433},{"duration":0.6666660000000064,"midi":39,"time":64.666602,"velocity":0.3858267716535433},{"duration":0.49999950000000126,"midi":41,"time":65.333268,"velocity":0.3858267716535433},{"duration":0.49999950000000126,"midi":35,"time":65.333268,"velocity":0.3858267716535433},{"duration":0.6666659999999922,"midi":35,"time":65.333268,"velocity":0.3858267716535433},{"duration":0.16666649999999095,"midi":35,"time":65.8332675,"velocity":0.3858267716535433},{"duration":0.16666649999999095,"midi":41,"time":65.8332675,"velocity":0.3858267716535433},{"duration":0.6666660000000064,"midi":36,"time":65.999934,"velocity":0.3858267716535433},{"duration":0.6666660000000064,"midi":39,"time":65.999934,"velocity":0.3858267716535433},{"duration":0.6666659999999922,"midi":41,"time":66.6666,"velocity":0.3858267716535433},{"duration":1.3333319999999986,"midi":37,"time":66.6666,"velocity":0.3858267716535433},{"duration":0.6666659999999922,"midi":35,"time":66.6666,"velocity":0.3858267716535433},{"duration":0.6666660000000064,"midi":39,"time":67.333266,"velocity":0.3858267716535433},{"duration":0.49999950000000126,"midi":35,"time":67.999932,"velocity":0.3858267716535433},{"duration":0.6666659999999922,"midi":35,"time":67.999932,"velocity":0.3858267716535433},{"duration":0.49999950000000126,"midi":41,"time":67.999932,"velocity":0.3858267716535433},{"duration":0.16666649999999095,"midi":41,"time":68.4999315,"velocity":0.3858267716535433},{"duration":0.8333324999999974,"midi":35,"time":68.4999315,"velocity":0.3858267716535433},{"duration":0.6666660000000064,"midi":39,"time":68.666598,"velocity":0.3858267716535433},{"duration":1.3333319999999986,"midi":34,"time":69.333264,"velocity":0.3858267716535433},{"duration":0.6666659999999922,"midi":41,"time":69.333264,"velocity":0.3858267716535433},{"duration":0.6666659999999922,"midi":35,"time":69.333264,"velocity":0.3858267716535433},{"duration":0.6666660000000064,"midi":39,"time":69.99992999999999,"velocity":0.3858267716535433},{"duration":0.49999950000000126,"midi":41,"time":70.666596,"velocity":0.3858267716535433},{"duration":0.49999950000000126,"midi":35,"time":70.666596,"velocity":0.3858267716535433},{"duration":0.6666660000000064,"midi":30,"time":70.666596,"velocity":0.3858267716535433},{"duration":0.16666650000000516,"midi":41,"time":71.1665955,"velocity":0.3858267716535433},{"duration":0.16666650000000516,"midi":35,"time":71.1665955,"velocity":0.3858267716535433},{"duration":0.6666659999999922,"midi":39,"time":71.333262,"velocity":0.3858267716535433},{"duration":0.6666659999999922,"midi":28,"time":71.333262,"velocity":0.3858267716535433},{"duration":0.6666660000000064,"midi":41,"time":71.999928,"velocity":0.3858267716535433},{"duration":1.3333319999999986,"midi":26,"time":71.999928,"velocity":0.3858267716535433},{"duration":0.6666660000000064,"midi":35,"time":71.999928,"velocity":0.3858267716535433},{"duration":0.6666659999999922,"midi":39,"time":72.666594,"velocity":0.3858267716535433},{"duration":0.49999950000000126,"midi":41,"time":73.33326,"velocity":0.3858267716535433},{"duration":1.3333319999999986,"midi":33,"time":73.33326,"velocity":0.3858267716535433},{"duration":0.49999950000000126,"midi":35,"time":73.33326,"velocity":0.3858267716535433},{"duration":0.16666650000000516,"midi":35,"time":73.8332595,"velocity":0.3858267716535433},{"duration":0.16666650000000516,"midi":41,"time":73.8332595,"velocity":0.3858267716535433},{"duration":0.6666659999999922,"midi":39,"time":73.999926,"velocity":0.3858267716535433},{"duration":0.6666660000000064,"midi":35,"time":74.666592,"velocity":0.3858267716535433},{"duration":1.3333319999999986,"midi":35,"time":74.666592,"velocity":0.3858267716535433},{"duration":0.6666660000000064,"midi":41,"time":74.666592,"velocity":0.3858267716535433},{"duration":0.6666659999999922,"midi":39,"time":75.333258,"velocity":0.3858267716535433},{"duration":0.49999950000000126,"midi":35,"time":75.999924,"velocity":0.3858267716535433},{"duration":0.6666660000000064,"midi":35,"time":75.999924,"velocity":0.3858267716535433},{"duration":0.49999950000000126,"midi":41,"time":75.999924,"velocity":0.3858267716535433},{"duration":0.16666650000000516,"midi":35,"time":76.4999235,"velocity":0.3858267716535433},{"duration":0.16666650000000516,"midi":41,"time":76.4999235,"velocity":0.3858267716535433},{"duration":0.6666659999999922,"midi":39,"time":76.66659,"velocity":0.3858267716535433},{"duration":0.6666659999999922,"midi":32,"time":76.66659,"velocity":0.3858267716535433},{"duration":1.3333320000000128,"midi":73,"time":77.33325599999999,"velocity":0.3858267716535433},{"duration":1.3333320000000128,"midi":61,"time":77.33325599999999,"velocity":0.3858267716535433},{"duration":0.3333330000000103,"midi":34,"time":77.33325599999999,"velocity":0.3858267716535433},{"duration":0.3333329999999961,"midi":39,"time":77.666589,"velocity":0.3858267716535433},{"duration":0.3333329999999961,"midi":34,"time":77.999922,"velocity":0.3858267716535433},{"duration":0.3333330000000103,"midi":39,"time":78.333255,"velocity":0.3858267716535433},{"duration":1.3333319999999986,"midi":64,"time":78.666588,"velocity":0.3858267716535433},{"duration":1.3333319999999986,"midi":76,"time":78.666588,"velocity":0.3858267716535433},{"duration":0.3333329999999961,"midi":34,"time":78.666588,"velocity":0.3858267716535433},{"duration":0.3333329999999961,"midi":39,"time":78.999921,"velocity":0.3858267716535433},{"duration":0.3333329999999961,"midi":34,"time":79.333254,"velocity":0.3858267716535433},{"duration":0.3333330000000103,"midi":39,"time":79.66658699999999,"velocity":0.3858267716535433},{"duration":1.3333319999999986,"midi":74,"time":79.99992,"velocity":0.3858267716535433},{"duration":0.3333329999999961,"midi":34,"time":79.99992,"velocity":0.3858267716535433},{"duration":1.3333319999999986,"midi":62,"time":79.99992,"velocity":0.3858267716535433},{"duration":0.3333329999999961,"midi":39,"time":80.333253,"velocity":0.3858267716535433},{"duration":0.3333329999999961,"midi":34,"time":80.666586,"velocity":0.3858267716535433},{"duration":0.3333330000000103,"midi":39,"time":80.99991899999999,"velocity":0.3858267716535433},{"duration":1.3333319999999986,"midi":66,"time":81.333252,"velocity":0.3858267716535433},{"duration":0.3333329999999961,"midi":34,"time":81.333252,"velocity":0.3858267716535433},{"duration":1.3333319999999986,"midi":78,"time":81.333252,"velocity":0.3858267716535433},{"duration":0.3333329999999961,"midi":39,"time":81.666585,"velocity":0.3858267716535433},{"duration":0.3333330000000103,"midi":34,"time":81.999918,"velocity":0.3858267716535433},{"duration":0.3333329999999961,"midi":39,"time":82.333251,"velocity":0.3858267716535433},{"duration":1.3333319999999986,"midi":64,"time":82.666584,"velocity":0.3858267716535433},{"duration":0.3333329999999961,"midi":34,"time":82.666584,"velocity":0.3858267716535433},{"duration":1.3333319999999986,"midi":76,"time":82.666584,"velocity":0.3858267716535433},{"duration":0.3333329999999961,"midi":39,"time":82.999917,"velocity":0.3858267716535433},{"duration":0.3333330000000103,"midi":34,"time":83.33324999999999,"velocity":0.3858267716535433},{"duration":0.3333329999999961,"midi":39,"time":83.666583,"velocity":0.3858267716535433},{"duration":0.3333329999999961,"midi":34,"time":83.999916,"velocity":0.3858267716535433},{"duration":1.3333319999999986,"midi":80,"time":83.999916,"velocity":0.3858267716535433},{"duration":1.3333319999999986,"midi":68,"time":83.999916,"velocity":0.3858267716535433},{"duration":0.3333329999999961,"midi":39,"time":84.333249,"velocity":0.3858267716535433},{"duration":0.3333330000000103,"midi":34,"time":84.66658199999999,"velocity":0.3858267716535433},{"duration":0.3333329999999961,"midi":39,"time":84.999915,"velocity":0.3858267716535433},{"duration":1.3333319999999986,"midi":69,"time":85.333248,"velocity":0.3858267716535433},{"duration":0.3333329999999961,"midi":34,"time":85.333248,"velocity":0.3858267716535433},{"duration":1.3333319999999986,"midi":81,"time":85.333248,"velocity":0.3858267716535433},{"duration":0.3333330000000103,"midi":39,"time":85.666581,"velocity":0.3858267716535433},{"duration":0.3333329999999961,"midi":34,"time":85.999914,"velocity":0.3858267716535433},{"duration":0.3333329999999961,"midi":39,"time":86.333247,"velocity":0.3858267716535433},{"duration":1.3333319999999986,"midi":78,"time":86.66658,"velocity":0.3858267716535433},{"duration":1.3333319999999986,"midi":66,"time":86.66658,"velocity":0.3858267716535433},{"duration":0.3333329999999961,"midi":39,"time":104.333229,"velocity":0.3858267716535433},{"duration":0.3333329999999961,"midi":34,"time":104.666562,"velocity":0.3858267716535433},{"duration":0.3333329999999961,"midi":39,"time":104.999895,"velocity":0.3858267716535433},{"duration":0.3333330000000103,"midi":34,"time":105.33322799999999,"velocity":0.3858267716535433},{"duration":0.3333329999999961,"midi":39,"time":105.666561,"velocity":0.3858267716535433},{"duration":0.3333329999999961,"midi":34,"time":105.999894,"velocity":0.3858267716535433},{"duration":0.3333330000000103,"midi":39,"time":106.333227,"velocity":0.3858267716535433},{"duration":0.3333329999999961,"midi":34,"time":106.66656,"velocity":0.3858267716535433},{"duration":0.3333329999999961,"midi":39,"time":106.999893,"velocity":0.3858267716535433},{"duration":0.3333329999999961,"midi":34,"time":107.333226,"velocity":0.3858267716535433},{"duration":0.3333330000000103,"midi":39,"time":107.66655899999999,"velocity":0.3858267716535433},{"duration":0.3333329999999961,"midi":34,"time":107.999892,"velocity":0.3858267716535433},{"duration":0.3333329999999961,"midi":39,"time":108.333225,"velocity":0.3858267716535433},{"duration":0.3333329999999961,"midi":34,"time":108.666558,"velocity":0.3858267716535433},{"duration":0.3333330000000103,"midi":39,"time":108.99989099999999,"velocity":0.3858267716535433},{"duration":0.6666659999999922,"midi":35,"time":109.333224,"velocity":0.3858267716535433},{"duration":1.3333319999999986,"midi":25,"time":109.333224,"velocity":0.3858267716535433},{"duration":0.6666659999999922,"midi":41,"time":109.333224,"velocity":0.3858267716535433},{"duration":0.6666660000000064,"midi":39,"time":109.99989,"velocity":0.3858267716535433},{"duration":1.3333319999999986,"midi":32,"time":110.666556,"velocity":0.3858267716535433},{"duration":0.6666659999999922,"midi":41,"time":110.666556,"velocity":0.3858267716535433},{"duration":0.6666659999999922,"midi":35,"time":110.666556,"velocity":0.3858267716535433},{"duration":0.6666660000000064,"midi":39,"time":111.33322199999999,"velocity":0.3858267716535433},{"duration":0.6666659999999922,"midi":35,"time":111.999888,"velocity":0.3858267716535433},{"duration":0.6666659999999922,"midi":41,"time":111.999888,"velocity":0.3858267716535433},{"duration":1.3333319999999986,"midi":33,"time":111.999888,"velocity":0.3858267716535433},{"duration":0.6666660000000064,"midi":39,"time":112.66655399999999,"velocity":0.3858267716535433},{"duration":0.6666660000000064,"midi":41,"time":113.33322,"velocity":0.3858267716535433},{"duration":0.6666660000000064,"midi":35,"time":113.33322,"velocity":0.3858267716535433},{"duration":1.3333319999999986,"midi":35,"time":113.33322,"velocity":0.3858267716535433},{"duration":0.6666659999999922,"midi":39,"time":113.999886,"velocity":0.3858267716535433},{"duration":0.6666660000000064,"midi":35,"time":114.666552,"velocity":0.3858267716535433},{"duration":0.6666660000000064,"midi":41,"time":114.666552,"velocity":0.3858267716535433},{"duration":1.3333319999999986,"midi":30,"time":114.666552,"velocity":0.3858267716535433},{"duration":0.6666659999999922,"midi":39,"time":115.333218,"velocity":0.3858267716535433},{"duration":1.3333319999999986,"midi":32,"time":115.999884,"velocity":0.3858267716535433},{"duration":0.6666660000000064,"midi":35,"time":115.999884,"velocity":0.3858267716535433},{"duration":0.6666660000000064,"midi":41,"time":115.999884,"velocity":0.3858267716535433},{"duration":0.6666659999999922,"midi":39,"time":116.66655,"velocity":0.3858267716535433},{"duration":1.3333319999999986,"midi":33,"time":117.333216,"velocity":0.3858267716535433},{"duration":0.6666660000000064,"midi":41,"time":117.333216,"velocity":0.3858267716535433},{"duration":0.6666660000000064,"midi":35,"time":117.333216,"velocity":0.3858267716535433},{"duration":0.6666659999999922,"midi":39,"time":117.999882,"velocity":0.3858267716535433},{"duration":0.6666660000000064,"midi":35,"time":118.66654799999999,"velocity":0.3858267716535433},{"duration":0.6666660000000064,"midi":41,"time":118.66654799999999,"velocity":0.3858267716535433},{"duration":0.6666660000000064,"midi":35,"time":118.66654799999999,"velocity":0.3858267716535433},{"duration":0.6666659999999922,"midi":36,"time":119.333214,"velocity":0.3858267716535433},{"duration":0.6666659999999922,"midi":39,"time":119.333214,"velocity":0.3858267716535433},{"duration":1.3333320000000128,"midi":37,"time":119.99987999999999,"velocity":0.3858267716535433},{"duration":0.6666660000000064,"midi":35,"time":119.99987999999999,"velocity":0.3858267716535433},{"duration":0.6666660000000064,"midi":41,"time":119.99987999999999,"velocity":0.3858267716535433},{"duration":0.6666660000000064,"midi":39,"time":120.666546,"velocity":0.3858267716535433},{"duration":0.6666659999999922,"midi":41,"time":121.333212,"velocity":0.3858267716535433},{"duration":0.6666659999999922,"midi":35,"time":121.333212,"velocity":0.3858267716535433},{"duration":1.3333319999999986,"midi":35,"time":121.333212,"velocity":0.3858267716535433},{"duration":0.6666660000000064,"midi":39,"time":121.999878,"velocity":0.3858267716535433},{"duration":0.6666659999999922,"midi":41,"time":122.666544,"velocity":0.3858267716535433},{"duration":1.3333319999999986,"midi":34,"time":122.666544,"velocity":0.3858267716535433},{"duration":0.6666659999999922,"midi":35,"time":122.666544,"velocity":0.3858267716535433},{"duration":0.6666660000000064,"midi":39,"time":123.33321,"velocity":0.3858267716535433},{"duration":0.6666659999999922,"midi":41,"time":123.999876,"velocity":0.3858267716535433},{"duration":0.6666659999999922,"midi":30,"time":123.999876,"velocity":0.3858267716535433},{"duration":0.6666659999999922,"midi":35,"time":123.999876,"velocity":0.3858267716535433},{"duration":0.6666660000000064,"midi":28,"time":124.66654199999999,"velocity":0.3858267716535433},{"duration":0.6666660000000064,"midi":39,"time":124.66654199999999,"velocity":0.3858267716535433},{"duration":1.3333319999999986,"midi":26,"time":125.333208,"velocity":0.3858267716535433},{"duration":0.6666659999999922,"midi":35,"time":125.333208,"velocity":0.3858267716535433},{"duration":0.6666659999999922,"midi":41,"time":125.333208,"velocity":0.3858267716535433},{"duration":0.6666660000000064,"midi":39,"time":125.99987399999999,"velocity":0.3858267716535433},{"duration":1.3333319999999986,"midi":33,"time":126.66654,"velocity":0.3858267716535433},{"duration":0.6666659999999922,"midi":41,"time":126.66654,"velocity":0.3858267716535433},{"duration":0.6666659999999922,"midi":35,"time":126.66654,"velocity":0.3858267716535433},{"duration":0.6666660000000064,"midi":39,"time":127.33320599999999,"velocity":0.3858267716535433},{"duration":0.6666660000000064,"midi":35,"time":127.999872,"velocity":0.3858267716535433},{"duration":0.6666660000000064,"midi":41,"time":127.999872,"velocity":0.3858267716535433},{"duration":1.3333319999999986,"midi":35,"time":127.999872,"velocity":0.3858267716535433},{"duration":0.6666659999999922,"midi":39,"time":128.666538,"velocity":0.3858267716535433},{"duration":0.6666659999999922,"midi":35,"time":129.333204,"velocity":0.3858267716535433},{"duration":0.6666659999999922,"midi":41,"time":129.333204,"velocity":0.3858267716535433},{"duration":0.6666659999999922,"midi":35,"time":129.333204,"velocity":0.3858267716535433},{"duration":0.6666660000000206,"midi":32,"time":129.99987,"velocity":0.3858267716535433},{"duration":0.6666660000000206,"midi":39,"time":129.99987,"velocity":0.3858267716535433},{"duration":0.3333329999999819,"midi":34,"time":130.666536,"velocity":0.3858267716535433},{"duration":0.3333329999999819,"midi":37,"time":130.666536,"velocity":0.3858267716535433},{"duration":0.3333330000000103,"midi":37,"time":130.999869,"velocity":0.3858267716535433},{"duration":0.3333330000000103,"midi":39,"time":130.999869,"velocity":0.3858267716535433},{"duration":0.3333330000000103,"midi":34,"time":131.333202,"velocity":0.3858267716535433},{"duration":0.3333330000000103,"midi":37,"time":131.333202,"velocity":0.3858267716535433},{"duration":0.3333329999999819,"midi":37,"time":131.666535,"velocity":0.3858267716535433},{"duration":0.3333329999999819,"midi":39,"time":131.666535,"velocity":0.3858267716535433},{"duration":0.3333330000000103,"midi":34,"time":131.999868,"velocity":0.3858267716535433},{"duration":0.3333329999999819,"midi":39,"time":132.333201,"velocity":0.3858267716535433},{"duration":0.3333330000000103,"midi":34,"time":132.66653399999998,"velocity":0.3858267716535433},{"duration":0.3333330000000103,"midi":39,"time":132.999867,"velocity":0.3858267716535433},{"duration":0.3333329999999819,"midi":34,"time":133.3332,"velocity":0.3858267716535433},{"duration":0.3333330000000103,"midi":39,"time":133.666533,"velocity":0.3858267716535433},{"duration":0.3333330000000103,"midi":34,"time":133.999866,"velocity":0.3858267716535433},{"duration":0.3333329999999819,"midi":39,"time":134.333199,"velocity":0.3858267716535433},{"duration":0.3333330000000103,"midi":34,"time":134.666532,"velocity":0.3858267716535433},{"duration":0.3333330000000103,"midi":39,"time":134.999865,"velocity":0.3858267716535433},{"duration":0.3333329999999819,"midi":34,"time":135.333198,"velocity":0.3858267716535433},{"duration":0.3333330000000103,"midi":39,"time":135.666531,"velocity":0.3858267716535433},{"duration":0.3333329999999819,"midi":34,"time":135.999864,"velocity":0.3858267716535433},{"duration":0.3333330000000103,"midi":39,"time":136.33319699999998,"velocity":0.3858267716535433},{"duration":0.3333330000000103,"midi":34,"time":136.66653,"velocity":0.3858267716535433},{"duration":0.3333329999999819,"midi":39,"time":136.999863,"velocity":0.3858267716535433},{"duration":0.3333330000000103,"midi":34,"time":137.333196,"velocity":0.3858267716535433},{"duration":0.3333330000000103,"midi":39,"time":137.666529,"velocity":0.3858267716535433},{"duration":0.3333329999999819,"midi":34,"time":137.999862,"velocity":0.3858267716535433},{"duration":0.3333330000000103,"midi":39,"time":138.333195,"velocity":0.3858267716535433},{"duration":0.3333330000000103,"midi":34,"time":138.666528,"velocity":0.3858267716535433},{"duration":0.3333329999999819,"midi":39,"time":138.999861,"velocity":0.3858267716535433},{"duration":0.3333330000000103,"midi":34,"time":139.333194,"velocity":0.3858267716535433},{"duration":0.3333329999999819,"midi":39,"time":139.666527,"velocity":0.3858267716535433},{"duration":0.3333330000000103,"midi":34,"time":139.99985999999998,"velocity":0.3858267716535433},{"duration":0.3333330000000103,"midi":39,"time":140.333193,"velocity":0.3858267716535433},{"duration":0.3333329999999819,"midi":34,"time":140.666526,"velocity":0.3858267716535433},{"duration":0.3333330000000103,"midi":39,"time":140.999859,"velocity":0.3858267716535433},{"duration":0.3333330000000103,"midi":34,"time":141.333192,"velocity":0.3858267716535433},{"duration":0.3333329999999819,"midi":39,"time":141.666525,"velocity":0.3858267716535433},{"duration":0.3333330000000103,"midi":34,"time":141.999858,"velocity":0.3858267716535433},{"duration":0.3333330000000103,"midi":39,"time":142.333191,"velocity":0.3858267716535433},{"duration":0.3333329999999819,"midi":34,"time":142.666524,"velocity":0.3858267716535433},{"duration":0.3333330000000103,"midi":39,"time":142.999857,"velocity":0.3858267716535433},{"duration":0.3333329999999819,"midi":34,"time":143.33319,"velocity":0.3858267716535433},{"duration":0.3333330000000103,"midi":39,"time":143.66652299999998,"velocity":0.3858267716535433},{"duration":0.3333330000000103,"midi":34,"time":143.999856,"velocity":0.3858267716535433},{"duration":0.3333329999999819,"midi":39,"time":144.333189,"velocity":0.3858267716535433},{"duration":0.3333330000000103,"midi":34,"time":144.666522,"velocity":0.3858267716535433},{"duration":0.3333330000000103,"midi":39,"time":144.999855,"velocity":0.3858267716535433},{"duration":0.3333329999999819,"midi":34,"time":145.333188,"velocity":0.3858267716535433},{"duration":0.3333330000000103,"midi":39,"time":145.666521,"velocity":0.3858267716535433},{"duration":0.3333330000000103,"midi":34,"time":145.999854,"velocity":0.3858267716535433},{"duration":0.3333329999999819,"midi":39,"time":146.333187,"velocity":0.3858267716535433},{"duration":0.3333330000000103,"midi":34,"time":146.66652,"velocity":0.3858267716535433},{"duration":0.3333329999999819,"midi":39,"time":146.999853,"velocity":0.3858267716535433},{"duration":0.3333330000000103,"midi":34,"time":147.33318599999998,"velocity":0.3858267716535433},{"duration":0.3333330000000103,"midi":39,"time":147.666519,"velocity":0.3858267716535433},{"duration":0.3333329999999819,"midi":34,"time":147.999852,"velocity":0.3858267716535433},{"duration":0.3333330000000103,"midi":39,"time":148.333185,"velocity":0.3858267716535433},{"duration":0.3333330000000103,"midi":34,"time":148.666518,"velocity":0.3858267716535433},{"duration":0.3333329999999819,"midi":39,"time":148.999851,"velocity":0.3858267716535433},{"duration":0.3333330000000103,"midi":34,"time":149.333184,"velocity":0.3858267716535433},{"duration":0.3333330000000103,"midi":39,"time":149.666517,"velocity":0.3858267716535433},{"duration":0.3333329999999819,"midi":34,"time":149.99985,"velocity":0.3858267716535433},{"duration":0.3333330000000103,"midi":39,"time":150.333183,"velocity":0.3858267716535433},{"duration":0.3333329999999819,"midi":34,"time":150.666516,"velocity":0.3858267716535433},{"duration":0.3333330000000103,"midi":39,"time":150.99984899999998,"velocity":0.3858267716535433},{"duration":0.3333330000000103,"midi":34,"time":151.333182,"velocity":0.3858267716535433},{"duration":0.3333329999999819,"midi":39,"time":151.666515,"velocity":0.3858267716535433},{"duration":5.333328000000023,"midi":25,"time":151.999848,"velocity":0.3858267716535433},{"duration":5.3333279999999945,"midi":25,"time":157.333176,"velocity":0.3858267716535433},{"duration":2.6666639999999973,"midi":26,"time":162.666504,"velocity":0.3858267716535433},{"duration":1.999998000000005,"midi":25,"time":165.333168,"velocity":0.3858267716535433},{"duration":0.08333324999998126,"midi":28,"time":167.333166,"velocity":0.3858267716535433},{"duration":0.08333324999998126,"midi":29,"time":167.333166,"velocity":0.3858267716535433},{"duration":0.6666659999999922,"midi":32,"time":167.333166,"velocity":0.3858267716535433},{"duration":0.08333324999998126,"midi":31,"time":167.333166,"velocity":0.3858267716535433},{"duration":0.08333324999998126,"midi":30,"time":167.333166,"velocity":0.3858267716535433},{"duration":0.6666659999999922,"midi":30,"time":167.999832,"velocity":0.3858267716535433},{"duration":0.16666649999999095,"midi":30,"time":168.666498,"velocity":0.3858267716535433},{"duration":0.16666650000001937,"midi":37,"time":168.83316449999998,"velocity":0.3858267716535433},{"duration":0.16666649999999095,"midi":42,"time":168.999831,"velocity":0.3858267716535433},{"duration":0.16666649999999095,"midi":43,"time":169.1664975,"velocity":0.3858267716535433},{"duration":0.16666649999999095,"midi":42,"time":169.1664975,"velocity":0.3858267716535433},{"duration":0.49999950000000126,"midi":44,"time":169.1664975,"velocity":0.3858267716535433},{"duration":0.16666649999999095,"midi":42,"time":169.666497,"velocity":0.3858267716535433},{"duration":0.49999950000000126,"midi":37,"time":169.83316349999998,"velocity":0.3858267716535433},{"duration":0.3333330000000103,"midi":30,"time":170.33316299999998,"velocity":0.3858267716535433},{"duration":1.3333320000000128,"midi":28,"time":170.666496,"velocity":0.3858267716535433},{"duration":0.6666659999999922,"midi":28,"time":171.999828,"velocity":0.3858267716535433},{"duration":0.16666649999999095,"midi":28,"time":172.666494,"velocity":0.3858267716535433},{"duration":0.16666649999999095,"midi":30,"time":172.8331605,"velocity":0.3858267716535433},{"duration":0.16666650000001937,"midi":32,"time":172.99982699999998,"velocity":0.3858267716535433},{"duration":0.16666649999999095,"midi":32,"time":173.1664935,"velocity":0.3858267716535433},{"duration":1.3333320000000128,"midi":33,"time":173.33316,"velocity":0.3858267716535433},{"duration":1.3333320000000128,"midi":69,"time":173.33316,"velocity":0.3858267716535433},{"duration":1.3333319999999844,"midi":35,"time":174.666492,"velocity":0.3858267716535433},{"duration":1.3333319999999844,"midi":71,"time":174.666492,"velocity":0.3858267716535433},{"duration":1.999998000000005,"midi":68,"time":175.999824,"velocity":0.3858267716535433},{"duration":1.3333320000000128,"midi":37,"time":175.999824,"velocity":0.3858267716535433},{"duration":0.49999950000000126,"midi":40,"time":177.333156,"velocity":0.3858267716535433},{"duration":0.16666649999999095,"midi":38,"time":177.333156,"velocity":0.3858267716535433},{"duration":0.16666649999999095,"midi":39,"time":177.333156,"velocity":0.3858267716535433},{"duration":0.16666649999999095,"midi":37,"time":177.333156,"velocity":0.3858267716535433},{"duration":0.49999950000000126,"midi":39,"time":177.8331555,"velocity":0.3858267716535433},{"duration":0.6666659999999922,"midi":68,"time":177.999822,"velocity":0.3858267716535433},{"duration":0.3333329999999819,"midi":37,"time":178.333155,"velocity":0.3858267716535433},{"duration":1.6666649999999947,"midi":35,"time":178.666488,"velocity":0.3858267716535433},{"duration":1.3333320000000128,"midi":80,"time":178.666488,"velocity":0.3858267716535433},{"duration":1.3333320000000128,"midi":68,"time":178.666488,"velocity":0.3858267716535433},{"duration":1.3333319999999844,"midi":78,"time":179.99982,"velocity":0.3858267716535433},{"duration":1.3333319999999844,"midi":66,"time":179.99982,"velocity":0.3858267716535433},{"duration":0.3333330000000103,"midi":30,"time":180.33315299999998,"velocity":0.3858267716535433},{"duration":0.3333330000000103,"midi":35,"time":180.666486,"velocity":0.3858267716535433},{"duration":0.3333329999999819,"midi":37,"time":180.999819,"velocity":0.3858267716535433},{"duration":2.6666639999999973,"midi":73,"time":181.33315199999998,"velocity":0.3858267716535433},{"duration":2.6666639999999973,"midi":61,"time":181.33315199999998,"velocity":0.3858267716535433},{"duration":1.999998000000005,"midi":30,"time":181.33315199999998,"velocity":0.3858267716535433},{"duration":0.6666659999999922,"midi":32,"time":183.33315,"velocity":0.3858267716535433},{"duration":1.3333320000000128,"midi":73,"time":183.99981599999998,"velocity":0.3858267716535433},{"duration":1.3333320000000128,"midi":61,"time":183.99981599999998,"velocity":0.3858267716535433},{"duration":0.6666660000000206,"midi":33,"time":183.99981599999998,"velocity":0.3858267716535433},{"duration":0.16666649999999095,"midi":33,"time":184.666482,"velocity":0.3858267716535433},{"duration":0.16666649999999095,"midi":35,"time":184.8331485,"velocity":0.3858267716535433},{"duration":0.16666650000001937,"midi":37,"time":184.99981499999998,"velocity":0.3858267716535433},{"duration":0.16666649999999095,"midi":39,"time":185.1664815,"velocity":0.3858267716535433},{"duration":0.49999950000000126,"midi":40,"time":185.333148,"velocity":0.3858267716535433},{"duration":1.3333320000000128,"midi":75,"time":185.333148,"velocity":0.3858267716535433},{"duration":0.16666649999999095,"midi":39,"time":185.333148,"velocity":0.3858267716535433},{"duration":1.3333320000000128,"midi":63,"time":185.333148,"velocity":0.3858267716535433},{"duration":0.49999950000000126,"midi":39,"time":185.8331475,"velocity":0.3858267716535433},{"duration":0.16666649999999095,"midi":37,"time":186.333147,"velocity":0.3858267716535433},{"duration":0.16666650000001937,"midi":35,"time":186.4998135,"velocity":0.3858267716535433},{"duration":1.3333319999999844,"midi":64,"time":186.66648,"velocity":0.3858267716535433},{"duration":1.3333319999999844,"midi":76,"time":186.66648,"velocity":0.3858267716535433},{"duration":0.9999989999999741,"midi":37,"time":186.66648,"velocity":0.3858267716535433},{"duration":0.3333330000000103,"midi":37,"time":187.66647899999998,"velocity":0.3858267716535433},{"duration":0.6666659999999922,"midi":25,"time":187.999812,"velocity":0.3858267716535433},{"duration":0.6666659999999922,"midi":68,"time":187.999812,"velocity":0.3858267716535433},{"duration":0.6666659999999922,"midi":80,"time":187.999812,"velocity":0.3858267716535433},{"duration":0.6666660000000206,"midi":66,"time":188.66647799999998,"velocity":0.3858267716535433},{"duration":0.6666660000000206,"midi":78,"time":188.66647799999998,"velocity":0.3858267716535433},{"duration":0.08333325000000968,"midi":32,"time":188.66647799999998,"velocity":0.3858267716535433},{"duration":0.08333325000000968,"midi":34,"time":188.66647799999998,"velocity":0.3858267716535433},{"duration":0.6666660000000206,"midi":35,"time":188.66647799999998,"velocity":0.3858267716535433},{"duration":0.08333325000000968,"midi":33,"time":188.66647799999998,"velocity":0.3858267716535433},{"duration":1.3333319999999844,"midi":78,"time":189.333144,"velocity":0.3858267716535433},{"duration":0.9999990000000025,"midi":34,"time":189.333144,"velocity":0.3858267716535433},{"duration":1.3333319999999844,"midi":66,"time":189.333144,"velocity":0.3858267716535433},{"duration":0.3333329999999819,"midi":32,"time":190.333143,"velocity":0.3858267716535433},{"duration":0.9999990000000025,"midi":73,"time":190.666476,"velocity":0.3858267716535433},{"duration":0.9999990000000025,"midi":30,"time":190.666476,"velocity":0.3858267716535433},{"duration":0.9999990000000025,"midi":61,"time":190.666476,"velocity":0.3858267716535433},{"duration":0.16666649999999095,"midi":61,"time":191.666475,"velocity":0.3858267716535433},{"duration":0.16666649999999095,"midi":37,"time":191.666475,"velocity":0.3858267716535433},{"duration":0.16666649999999095,"midi":73,"time":191.666475,"velocity":0.3858267716535433},{"duration":0.16666650000001937,"midi":63,"time":191.83314149999998,"velocity":0.3858267716535433},{"duration":0.16666650000001937,"midi":75,"time":191.83314149999998,"velocity":0.3858267716535433},{"duration":0.16666650000001937,"midi":28,"time":191.83314149999998,"velocity":0.3858267716535433},{"duration":1.3333319999999844,"midi":64,"time":191.999808,"velocity":0.3858267716535433},{"duration":1.3333319999999844,"midi":30,"time":191.999808,"velocity":0.3858267716535433},{"duration":1.3333319999999844,"midi":76,"time":191.999808,"velocity":0.3858267716535433},{"duration":1.3333320000000128,"midi":32,"time":193.33314,"velocity":0.3858267716535433},{"duration":0.6666660000000206,"midi":66,"time":193.33314,"velocity":0.3858267716535433},{"duration":0.6666660000000206,"midi":78,"time":193.33314,"velocity":0.3858267716535433},{"duration":0.6666659999999922,"midi":71,"time":193.999806,"velocity":0.3858267716535433},{"duration":0.6666659999999922,"midi":83,"time":193.999806,"velocity":0.3858267716535433},{"duration":2.6666639999999973,"midi":33,"time":194.666472,"velocity":0.3858267716535433},{"duration":2.6666639999999973,"midi":85,"time":194.666472,"velocity":0.3858267716535433},{"duration":2.6666639999999973,"midi":73,"time":194.666472,"velocity":0.3858267716535433},{"duration":2.6666639999999973,"midi":35,"time":197.333136,"velocity":0.3858267716535433},{"duration":2.6666639999999973,"midi":73,"time":197.333136,"velocity":0.3858267716535433},{"duration":2.6666639999999973,"midi":85,"time":197.333136,"velocity":0.3858267716535433},{"duration":0.3333330000000103,"midi":38,"time":219.99978,"velocity":0.3858267716535433},{"duration":0.3333330000000103,"midi":38,"time":220.333113,"velocity":0.3858267716535433},{"duration":0.3333329999999819,"midi":38,"time":220.666446,"velocity":0.3858267716535433},{"duration":0.3333330000000103,"midi":39,"time":220.999779,"velocity":0.3858267716535433},{"duration":0.3333329999999819,"midi":49,"time":221.333112,"velocity":0.3858267716535433},{"duration":1.3333319999999844,"midi":68,"time":221.333112,"velocity":0.3858267716535433},{"duration":0.3333329999999819,"midi":39,"time":221.333112,"velocity":0.3858267716535433},{"duration":0.3333330000000103,"midi":39,"time":221.66644499999998,"velocity":0.3858267716535433},{"duration":0.3333330000000103,"midi":49,"time":221.66644499999998,"velocity":0.3858267716535433},{"duration":0.3333330000000103,"midi":39,"time":221.999778,"velocity":0.3858267716535433},{"duration":0.3333330000000103,"midi":49,"time":221.999778,"velocity":0.3858267716535433},{"duration":0.3333329999999819,"midi":49,"time":222.333111,"velocity":0.3858267716535433},{"duration":0.3333329999999819,"midi":39,"time":222.333111,"velocity":0.3858267716535433},{"duration":1.3333320000000128,"midi":69,"time":222.66644399999998,"velocity":0.3858267716535433},{"duration":0.3333330000000103,"midi":49,"time":222.66644399999998,"velocity":0.3858267716535433},{"duration":0.3333330000000103,"midi":39,"time":222.66644399999998,"velocity":0.3858267716535433},{"duration":0.3333330000000103,"midi":39,"time":222.999777,"velocity":0.3858267716535433},{"duration":0.3333330000000103,"midi":49,"time":222.999777,"velocity":0.3858267716535433},{"duration":0.3333329999999819,"midi":49,"time":223.33311,"velocity":0.3858267716535433},{"duration":0.3333329999999819,"midi":39,"time":223.33311,"velocity":0.3858267716535433},{"duration":0.3333330000000103,"midi":49,"time":223.666443,"velocity":0.3858267716535433},{"duration":0.3333330000000103,"midi":39,"time":223.666443,"velocity":0.3858267716535433},{"duration":0.3333330000000103,"midi":39,"time":223.999776,"velocity":0.3858267716535433},{"duration":0.3333330000000103,"midi":49,"time":223.999776,"velocity":0.3858267716535433},{"duration":1.3333319999999844,"midi":71,"time":223.999776,"velocity":0.3858267716535433},{"duration":0.3333329999999819,"midi":39,"time":224.333109,"velocity":0.3858267716535433},{"duration":0.3333329999999819,"midi":49,"time":224.333109,"velocity":0.3858267716535433},{"duration":0.3333330000000103,"midi":39,"time":224.666442,"velocity":0.3858267716535433},{"duration":0.3333330000000103,"midi":49,"time":224.666442,"velocity":0.3858267716535433},{"duration":0.3333329999999819,"midi":39,"time":224.999775,"velocity":0.3858267716535433},{"duration":0.3333329999999819,"midi":49,"time":224.999775,"velocity":0.3858267716535433},{"duration":0.3333330000000103,"midi":49,"time":225.33310799999998,"velocity":0.3858267716535433},{"duration":1.3333320000000128,"midi":66,"time":225.33310799999998,"velocity":0.3858267716535433},{"duration":0.3333330000000103,"midi":39,"time":225.33310799999998,"velocity":0.3858267716535433},{"duration":0.3333330000000103,"midi":39,"time":225.666441,"velocity":0.3858267716535433},{"duration":0.3333330000000103,"midi":49,"time":225.666441,"velocity":0.3858267716535433},{"duration":0.3333329999999819,"midi":39,"time":225.999774,"velocity":0.3858267716535433},{"duration":0.3333329999999819,"midi":49,"time":225.999774,"velocity":0.3858267716535433},{"duration":0.3333330000000103,"midi":49,"time":226.33310699999998,"velocity":0.3858267716535433},{"duration":0.3333330000000103,"midi":39,"time":226.33310699999998,"velocity":0.3858267716535433},{"duration":0.3333330000000103,"midi":39,"time":226.66644,"velocity":0.3858267716535433},{"duration":0.3333330000000103,"midi":49,"time":226.66644,"velocity":0.3858267716535433},{"duration":1.3333320000000128,"midi":68,"time":226.66644,"velocity":0.3858267716535433},{"duration":0.3333329999999819,"midi":49,"time":226.999773,"velocity":0.3858267716535433},{"duration":0.3333329999999819,"midi":39,"time":226.999773,"velocity":0.3858267716535433},{"duration":0.3333330000000103,"midi":39,"time":227.333106,"velocity":0.3858267716535433},{"duration":0.3333330000000103,"midi":49,"time":227.333106,"velocity":0.3858267716535433},{"duration":0.3333330000000103,"midi":49,"time":227.666439,"velocity":0.3858267716535433},{"duration":0.3333330000000103,"midi":39,"time":227.666439,"velocity":0.3858267716535433},{"duration":1.3333319999999844,"midi":69,"time":227.999772,"velocity":0.3858267716535433},{"duration":0.3333329999999819,"midi":49,"time":227.999772,"velocity":0.3858267716535433},{"duration":0.3333329999999819,"midi":39,"time":227.999772,"velocity":0.3858267716535433},{"duration":0.3333330000000103,"midi":49,"time":228.333105,"velocity":0.3858267716535433},{"duration":0.3333330000000103,"midi":39,"time":228.333105,"velocity":0.3858267716535433},{"duration":0.3333329999999819,"midi":39,"time":228.666438,"velocity":0.3858267716535433},{"duration":0.3333329999999819,"midi":49,"time":228.666438,"velocity":0.3858267716535433},{"duration":0.3333330000000103,"midi":39,"time":228.99977099999998,"velocity":0.3858267716535433},{"duration":0.3333330000000103,"midi":49,"time":228.99977099999998,"velocity":0.3858267716535433},{"duration":1.3333320000000128,"midi":71,"time":229.333104,"velocity":0.3858267716535433},{"duration":0.3333330000000103,"midi":49,"time":229.333104,"velocity":0.3858267716535433},{"duration":0.3333330000000103,"midi":39,"time":229.333104,"velocity":0.3858267716535433},{"duration":0.3333329999999819,"midi":39,"time":229.666437,"velocity":0.3858267716535433},{"duration":0.3333329999999819,"midi":49,"time":229.666437,"velocity":0.3858267716535433},{"duration":0.3333330000000103,"midi":39,"time":229.99976999999998,"velocity":0.3858267716535433},{"duration":0.3333330000000103,"midi":49,"time":229.99976999999998,"velocity":0.3858267716535433},{"duration":0.3333330000000103,"midi":49,"time":230.333103,"velocity":0.3858267716535433},{"duration":0.3333330000000103,"midi":39,"time":230.333103,"velocity":0.3858267716535433},{"duration":1.3333319999999844,"midi":63,"time":230.666436,"velocity":0.3858267716535433},{"duration":1.3333319999999844,"midi":75,"time":230.666436,"velocity":0.3858267716535433},{"duration":0.3333329999999819,"midi":39,"time":230.666436,"velocity":0.3858267716535433},{"duration":0.3333329999999819,"midi":49,"time":230.666436,"velocity":0.3858267716535433},{"duration":0.3333330000000103,"midi":39,"time":230.999769,"velocity":0.3858267716535433},{"duration":0.3333330000000103,"midi":49,"time":230.999769,"velocity":0.3858267716535433},{"duration":0.3333330000000103,"midi":39,"time":231.333102,"velocity":0.3858267716535433},{"duration":0.3333330000000103,"midi":49,"time":231.333102,"velocity":0.3858267716535433},{"duration":0.3333329999999819,"midi":39,"time":231.666435,"velocity":0.3858267716535433},{"duration":0.3333329999999819,"midi":49,"time":231.666435,"velocity":0.3858267716535433},{"duration":2.6666639999999973,"midi":61,"time":231.999768,"velocity":0.3858267716535433},{"duration":0.3333330000000103,"midi":39,"time":231.999768,"velocity":0.3858267716535433},{"duration":0.3333330000000103,"midi":49,"time":231.999768,"velocity":0.3858267716535433},{"duration":2.6666639999999973,"midi":73,"time":231.999768,"velocity":0.3858267716535433},{"duration":0.3333329999999819,"midi":49,"time":232.333101,"velocity":0.3858267716535433},{"duration":0.3333329999999819,"midi":39,"time":232.333101,"velocity":0.3858267716535433},{"duration":0.3333330000000103,"midi":39,"time":232.66643399999998,"velocity":0.3858267716535433},{"duration":0.3333330000000103,"midi":49,"time":232.66643399999998,"velocity":0.3858267716535433},{"duration":0.3333330000000103,"midi":49,"time":232.999767,"velocity":0.3858267716535433},{"duration":0.3333330000000103,"midi":39,"time":232.999767,"velocity":0.3858267716535433},{"duration":0.3333329999999819,"midi":39,"time":233.3331,"velocity":0.3858267716535433},{"duration":0.3333329999999819,"midi":49,"time":233.3331,"velocity":0.3858267716535433},{"duration":0.3333330000000103,"midi":49,"time":233.66643299999998,"velocity":0.3858267716535433},{"duration":0.3333330000000103,"midi":39,"time":233.66643299999998,"velocity":0.3858267716535433},{"duration":0.3333330000000103,"midi":49,"time":233.999766,"velocity":0.3858267716535433},{"duration":0.3333330000000103,"midi":39,"time":233.999766,"velocity":0.3858267716535433},{"duration":0.3333329999999819,"midi":49,"time":234.333099,"velocity":0.3858267716535433},{"duration":0.3333329999999819,"midi":39,"time":234.333099,"velocity":0.3858267716535433},{"duration":0.3333330000000103,"midi":49,"time":234.666432,"velocity":0.3858267716535433},{"duration":1.3333320000000128,"midi":61,"time":234.666432,"velocity":0.3858267716535433},{"duration":1.3333320000000128,"midi":73,"time":234.666432,"velocity":0.3858267716535433},{"duration":0.3333330000000103,"midi":39,"time":234.666432,"velocity":0.3858267716535433},{"duration":0.3333330000000103,"midi":49,"time":234.999765,"velocity":0.3858267716535433},{"duration":0.3333330000000103,"midi":39,"time":234.999765,"velocity":0.3858267716535433},{"duration":0.3333329999999819,"midi":39,"time":235.333098,"velocity":0.3858267716535433},{"duration":0.3333329999999819,"midi":49,"time":235.333098,"velocity":0.3858267716535433},{"duration":0.3333330000000103,"midi":39,"time":235.666431,"velocity":0.3858267716535433},{"duration":0.3333330000000103,"midi":49,"time":235.666431,"velocity":0.3858267716535433},{"duration":0.3333329999999819,"midi":39,"time":235.999764,"velocity":0.3858267716535433},{"duration":0.3333329999999819,"midi":49,"time":235.999764,"velocity":0.3858267716535433},{"duration":1.3333319999999844,"midi":76,"time":235.999764,"velocity":0.3858267716535433},{"duration":1.3333319999999844,"midi":64,"time":235.999764,"velocity":0.3858267716535433},{"duration":0.3333330000000103,"midi":49,"time":236.33309699999998,"velocity":0.3858267716535433},{"duration":0.3333330000000103,"midi":39,"time":236.33309699999998,"velocity":0.3858267716535433},{"duration":0.3333330000000103,"midi":39,"time":236.66643,"velocity":0.3858267716535433},{"duration":0.3333330000000103,"midi":49,"time":236.66643,"velocity":0.3858267716535433},{"duration":0.3333329999999819,"midi":49,"time":236.999763,"velocity":0.3858267716535433},{"duration":0.3333329999999819,"midi":39,"time":236.999763,"velocity":0.3858267716535433},{"duration":2.6666639999999973,"midi":74,"time":237.33309599999998,"velocity":0.3858267716535433},{"duration":2.6666639999999973,"midi":62,"time":237.33309599999998,"velocity":0.3858267716535433},{"duration":0.3333330000000103,"midi":39,"time":237.33309599999998,"velocity":0.3858267716535433},{"duration":0.3333330000000103,"midi":49,"time":237.33309599999998,"velocity":0.3858267716535433},{"duration":0.3333330000000103,"midi":39,"time":237.666429,"velocity":0.3858267716535433},{"duration":0.3333330000000103,"midi":49,"time":237.666429,"velocity":0.3858267716535433},{"duration":0.3333329999999819,"midi":39,"time":237.999762,"velocity":0.3858267716535433},{"duration":0.3333329999999819,"midi":49,"time":237.999762,"velocity":0.3858267716535433},{"duration":0.3333330000000103,"midi":39,"time":238.333095,"velocity":0.3858267716535433},{"duration":0.3333330000000103,"midi":49,"time":238.333095,"velocity":0.3858267716535433},{"duration":0.3333330000000103,"midi":49,"time":238.666428,"velocity":0.3858267716535433},{"duration":0.3333330000000103,"midi":39,"time":238.666428,"velocity":0.3858267716535433},{"duration":0.3333329999999819,"midi":39,"time":238.999761,"velocity":0.3858267716535433},{"duration":0.3333329999999819,"midi":49,"time":238.999761,"velocity":0.3858267716535433},{"duration":0.3333330000000103,"midi":49,"time":239.333094,"velocity":0.3858267716535433},{"duration":0.3333330000000103,"midi":39,"time":239.333094,"velocity":0.3858267716535433},{"duration":0.3333329999999819,"midi":49,"time":239.666427,"velocity":0.3858267716535433},{"duration":0.3333329999999819,"midi":39,"time":239.666427,"velocity":0.3858267716535433},{"duration":0.3333330000000103,"midi":49,"time":239.99975999999998,"velocity":0.3858267716535433},{"duration":1.3333320000000128,"midi":61,"time":239.99975999999998,"velocity":0.3858267716535433},{"duration":0.3333330000000103,"midi":39,"time":239.99975999999998,"velocity":0.3858267716535433},{"duration":1.3333320000000128,"midi":73,"time":239.99975999999998,"velocity":0.3858267716535433},{"duration":0.3333330000000103,"midi":49,"time":240.333093,"velocity":0.3858267716535433},{"duration":0.3333330000000103,"midi":39,"time":240.333093,"velocity":0.3858267716535433},{"duration":0.3333329999999819,"midi":49,"time":240.666426,"velocity":0.3858267716535433},{"duration":0.3333329999999819,"midi":39,"time":240.666426,"velocity":0.3858267716535433},{"duration":0.3333330000000103,"midi":39,"time":240.99975899999998,"velocity":0.3858267716535433},{"duration":0.3333330000000103,"midi":49,"time":240.99975899999998,"velocity":0.3858267716535433},{"duration":1.3333320000000128,"midi":75,"time":241.333092,"velocity":0.3858267716535433},{"duration":0.3333330000000103,"midi":39,"time":241.333092,"velocity":0.3858267716535433},{"duration":1.3333320000000128,"midi":63,"time":241.333092,"velocity":0.3858267716535433},{"duration":0.3333329999999819,"midi":39,"time":241.666425,"velocity":0.3858267716535433},{"duration":0.3333330000000103,"midi":39,"time":241.99975799999999,"velocity":0.3858267716535433},{"duration":0.3333330000000103,"midi":39,"time":242.333091,"velocity":0.3858267716535433},{"duration":0.9999989999999741,"midi":73,"time":242.666424,"velocity":0.3858267716535433},{"duration":0.9999989999999741,"midi":61,"time":242.666424,"velocity":0.3858267716535433},{"duration":0.49999949999997284,"midi":36,"time":242.666424,"velocity":0.3858267716535433},{"duration":0.6666659999999922,"midi":35,"time":242.666424,"velocity":0.3858267716535433},{"duration":0.8333325000000116,"midi":36,"time":243.16642349999998,"velocity":0.3858267716535433},{"duration":0.6666659999999922,"midi":39,"time":243.33309,"velocity":0.3858267716535433},{"duration":0.3333330000000103,"midi":64,"time":243.66642299999998,"velocity":0.3858267716535433},{"duration":0.3333330000000103,"midi":76,"time":243.66642299999998,"velocity":0.3858267716535433},{"duration":0.6666659999999922,"midi":35,"time":243.999756,"velocity":0.3858267716535433},{"duration":0.49999950000000126,"midi":36,"time":243.999756,"velocity":0.3858267716535433},{"duration":0.9999990000000025,"midi":63,"time":243.999756,"velocity":0.3858267716535433},{"duration":0.9999990000000025,"midi":75,"time":243.999756,"velocity":0.3858267716535433},{"duration":0.8333325000000116,"midi":36,"time":244.4997555,"velocity":0.3858267716535433},{"duration":0.6666660000000206,"midi":39,"time":244.66642199999998,"velocity":0.3858267716535433},{"duration":0.3333330000000103,"midi":68,"time":244.999755,"velocity":0.3858267716535433},{"duration":0.3333330000000103,"midi":80,"time":244.999755,"velocity":0.3858267716535433},{"duration":0.9999990000000025,"midi":68,"time":245.333088,"velocity":0.3858267716535433},{"duration":0.49999950000000126,"midi":36,"time":245.333088,"velocity":0.3858267716535433},{"duration":0.6666659999999922,"midi":35,"time":245.333088,"velocity":0.3858267716535433},{"duration":0.9999990000000025,"midi":80,"time":245.333088,"velocity":0.3858267716535433},{"duration":0.8333324999999832,"midi":36,"time":245.8330875,"velocity":0.3858267716535433},{"duration":0.6666659999999922,"midi":39,"time":245.999754,"velocity":0.3858267716535433},{"duration":0.16666649999999095,"midi":78,"time":246.333087,"velocity":0.3858267716535433},{"duration":0.16666649999999095,"midi":66,"time":246.333087,"velocity":0.3858267716535433},{"duration":0.16666649999999095,"midi":64,"time":246.4997535,"velocity":0.3858267716535433},{"duration":0.16666649999999095,"midi":76,"time":246.4997535,"velocity":0.3858267716535433},{"duration":0.3333330000000103,"midi":75,"time":246.66642,"velocity":0.3858267716535433},{"duration":0.49999950000000126,"midi":36,"time":246.66642,"velocity":0.3858267716535433},{"duration":0.6666659999999922,"midi":35,"time":246.66642,"velocity":0.3858267716535433},{"duration":0.3333330000000103,"midi":63,"time":246.66642,"velocity":0.3858267716535433},{"duration":0.3333329999999819,"midi":76,"time":246.999753,"velocity":0.3858267716535433},{"duration":0.3333329999999819,"midi":64,"time":246.999753,"velocity":0.3858267716535433},{"duration":0.8333325000000116,"midi":36,"time":247.1664195,"velocity":0.3858267716535433},{"duration":0.6666660000000206,"midi":39,"time":247.33308599999998,"velocity":0.3858267716535433},{"duration":0.3333330000000103,"midi":71,"time":247.33308599999998,"velocity":0.3858267716535433},{"duration":0.3333330000000103,"midi":68,"time":247.666419,"velocity":0.3858267716535433},{"duration":0.3333329999999819,"midi":36,"time":247.999752,"velocity":0.3858267716535433},{"duration":0.6666659999999922,"midi":69,"time":247.999752,"velocity":0.3858267716535433},{"duration":0.3333330000000103,"midi":39,"time":248.33308499999998,"velocity":0.3858267716535433},{"duration":0.3333330000000103,"midi":36,"time":248.666418,"velocity":0.3858267716535433},{"duration":0.3333330000000103,"midi":61,"time":248.666418,"velocity":0.3858267716535433},{"duration":0.3333330000000103,"midi":73,"time":248.666418,"velocity":0.3858267716535433},{"duration":0.3333329999999819,"midi":76,"time":248.999751,"velocity":0.3858267716535433},{"duration":0.3333329999999819,"midi":39,"time":248.999751,"velocity":0.3858267716535433},{"duration":0.3333329999999819,"midi":64,"time":248.999751,"velocity":0.3858267716535433},{"duration":0.9999990000000025,"midi":75,"time":249.33308399999999,"velocity":0.3858267716535433},{"duration":0.3333330000000103,"midi":36,"time":249.33308399999999,"velocity":0.3858267716535433},{"duration":0.9999990000000025,"midi":63,"time":249.33308399999999,"velocity":0.3858267716535433},{"duration":0.3333330000000103,"midi":39,"time":249.666417,"velocity":0.3858267716535433},{"duration":0.3333329999999819,"midi":36,"time":249.99975,"velocity":0.3858267716535433},{"duration":0.3333330000000103,"midi":66,"time":250.333083,"velocity":0.3858267716535433},{"duration":0.3333330000000103,"midi":78,"time":250.333083,"velocity":0.3858267716535433},{"duration":0.3333330000000103,"midi":39,"time":250.333083,"velocity":0.3858267716535433},{"duration":0.6666659999999922,"midi":76,"time":250.666416,"velocity":0.3858267716535433},{"duration":0.3333329999999819,"midi":36,"time":250.666416,"velocity":0.3858267716535433},{"duration":0.6666659999999922,"midi":64,"time":250.666416,"velocity":0.3858267716535433},{"duration":0.3333330000000103,"midi":39,"time":250.99974899999998,"velocity":0.3858267716535433},{"duration":0.6666659999999922,"midi":80,"time":251.333082,"velocity":0.3858267716535433},{"duration":0.3333330000000103,"midi":36,"time":251.333082,"velocity":0.3858267716535433},{"duration":0.6666659999999922,"midi":68,"time":251.333082,"velocity":0.3858267716535433},{"duration":0.3333329999999819,"midi":39,"time":251.666415,"velocity":0.3858267716535433},{"duration":0.3333330000000103,"midi":78,"time":251.99974799999998,"velocity":0.3858267716535433},{"duration":0.3333330000000103,"midi":39,"time":251.99974799999998,"velocity":0.3858267716535433},{"duration":0.3333330000000103,"midi":66,"time":251.99974799999998,"velocity":0.3858267716535433},{"duration":0.3333330000000103,"midi":36,"time":251.99974799999998,"velocity":0.3858267716535433},{"duration":0.3333330000000103,"midi":83,"time":252.333081,"velocity":0.3858267716535433},{"duration":0.3333330000000103,"midi":71,"time":252.333081,"velocity":0.3858267716535433},{"duration":0.16666650000001937,"midi":39,"time":252.49974749999998,"velocity":0.3858267716535433},{"duration":0.16666650000001937,"midi":36,"time":252.49974749999998,"velocity":0.3858267716535433},{"duration":0.6666659999999922,"midi":80,"time":252.666414,"velocity":0.3858267716535433},{"duration":0.6666659999999922,"midi":68,"time":252.666414,"velocity":0.3858267716535433},{"duration":0.3333330000000103,"midi":36,"time":252.99974699999999,"velocity":0.3858267716535433},{"duration":0.3333330000000103,"midi":39,"time":252.99974699999999,"velocity":0.3858267716535433},{"duration":1.3333319999999844,"midi":37,"time":253.33308,"velocity":0.3858267716535433},{"duration":0.3333330000000103,"midi":34,"time":253.33308,"velocity":0.3858267716535433},{"duration":0.3333329999999819,"midi":39,"time":253.666413,"velocity":0.3858267716535433},{"duration":0.3333330000000103,"midi":34,"time":253.999746,"velocity":0.3858267716535433},{"duration":0.3333329999999819,"midi":39,"time":254.333079,"velocity":0.3858267716535433},{"duration":0.3333330000000103,"midi":34,"time":254.66641199999998,"velocity":0.3858267716535433},{"duration":1.3333320000000128,"midi":30,"time":254.66641199999998,"velocity":0.3858267716535433},{"duration":0.3333330000000103,"midi":39,"time":254.999745,"velocity":0.3858267716535433},{"duration":0.3333329999999819,"midi":34,"time":255.333078,"velocity":0.3858267716535433},{"duration":0.3333330000000103,"midi":39,"time":255.66641099999998,"velocity":0.3858267716535433},{"duration":0.3333330000000103,"midi":34,"time":255.999744,"velocity":0.3858267716535433},{"duration":1.3333320000000128,"midi":32,"time":255.999744,"velocity":0.3858267716535433},{"duration":0.3333329999999819,"midi":39,"time":256.333077,"velocity":0.3858267716535433},{"duration":0.3333329999999819,"midi":34,"time":256.66641,"velocity":0.3858267716535433},{"duration":0.33333300000003874,"midi":39,"time":256.99974299999997,"velocity":0.3858267716535433},{"duration":0.6666659999999638,"midi":33,"time":257.333076,"velocity":0.3858267716535433},{"duration":0.3333329999999819,"midi":34,"time":257.333076,"velocity":0.3858267716535433},{"duration":0.3333329999999819,"midi":39,"time":257.666409,"velocity":0.3858267716535433},{"duration":0.6666660000000206,"midi":35,"time":257.99974199999997,"velocity":0.3858267716535433},{"duration":0.33333300000003874,"midi":34,"time":257.99974199999997,"velocity":0.3858267716535433},{"duration":0.3333329999999819,"midi":39,"time":258.333075,"velocity":0.3858267716535433},{"duration":0.3333329999999819,"midi":34,"time":258.666408,"velocity":0.3858267716535433},{"duration":1.3333319999999844,"midi":37,"time":258.666408,"velocity":0.3858267716535433},{"duration":0.33333300000003874,"midi":39,"time":258.999741,"velocity":0.3858267716535433},{"duration":0.3333329999999819,"midi":34,"time":259.333074,"velocity":0.3858267716535433},{"duration":0.3333329999999819,"midi":39,"time":259.666407,"velocity":0.3858267716535433},{"duration":1.3333320000000413,"midi":30,"time":259.99974,"velocity":0.3858267716535433},{"duration":0.33333300000003874,"midi":34,"time":259.99974,"velocity":0.3858267716535433},{"duration":0.3333329999999819,"midi":39,"time":260.333073,"velocity":0.3858267716535433},{"duration":0.3333329999999819,"midi":34,"time":260.666406,"velocity":0.3858267716535433},{"duration":0.33333300000003874,"midi":39,"time":260.999739,"velocity":0.3858267716535433},{"duration":0.3333329999999819,"midi":34,"time":261.333072,"velocity":0.3858267716535433},{"duration":1.3333319999999844,"midi":32,"time":261.333072,"velocity":0.3858267716535433},{"duration":0.3333329999999819,"midi":39,"time":261.666405,"velocity":0.3858267716535433},{"duration":0.33333300000003874,"midi":34,"time":261.999738,"velocity":0.3858267716535433},{"duration":0.3333329999999819,"midi":39,"time":262.333071,"velocity":0.3858267716535433},{"duration":0.6666660000000206,"midi":33,"time":262.666404,"velocity":0.3858267716535433},{"duration":0.3333329999999819,"midi":34,"time":262.666404,"velocity":0.3858267716535433},{"duration":0.33333300000003874,"midi":39,"time":262.999737,"velocity":0.3858267716535433},{"duration":0.3333329999999819,"midi":35,"time":263.33307,"velocity":0.3858267716535433},{"duration":0.3333329999999819,"midi":34,"time":263.33307,"velocity":0.3858267716535433},{"duration":0.3333329999999819,"midi":39,"time":263.666403,"velocity":0.3858267716535433},{"duration":0.3333329999999819,"midi":37,"time":263.666403,"velocity":0.3858267716535433},{"duration":2.6666640000000257,"midi":35,"time":263.999736,"velocity":0.3858267716535433},{"duration":0.3333329999999819,"midi":34,"time":263.999736,"velocity":0.3858267716535433},{"duration":0.33333300000003874,"midi":39,"time":264.33306899999997,"velocity":0.3858267716535433},{"duration":0.3333329999999819,"midi":34,"time":264.666402,"velocity":0.3858267716535433},{"duration":0.3333329999999819,"midi":39,"time":264.999735,"velocity":0.3858267716535433},{"duration":0.33333300000003874,"midi":34,"time":265.33306799999997,"velocity":0.3858267716535433},{"duration":0.3333329999999819,"midi":39,"time":265.666401,"velocity":0.3858267716535433},{"duration":0.3333329999999819,"midi":34,"time":265.999734,"velocity":0.3858267716535433},{"duration":0.33333300000003874,"midi":39,"time":266.33306699999997,"velocity":0.3858267716535433},{"duration":0.3333329999999819,"midi":34,"time":266.6664,"velocity":0.3858267716535433},{"duration":1.3333319999999844,"midi":33,"time":266.6664,"velocity":0.3858267716535433},{"duration":0.3333329999999819,"midi":39,"time":266.999733,"velocity":0.3858267716535433},{"duration":0.33333300000003874,"midi":34,"time":267.333066,"velocity":0.3858267716535433},{"duration":0.3333329999999819,"midi":39,"time":267.666399,"velocity":0.3858267716535433},{"duration":0.3333329999999819,"midi":34,"time":267.999732,"velocity":0.3858267716535433},{"duration":1.3333319999999844,"midi":32,"time":267.999732,"velocity":0.3858267716535433},{"duration":0.33333300000003874,"midi":39,"time":268.333065,"velocity":0.3858267716535433},{"duration":0.3333329999999819,"midi":34,"time":268.666398,"velocity":0.3858267716535433},{"duration":0.3333329999999819,"midi":39,"time":268.999731,"velocity":0.3858267716535433},{"duration":0.33333300000003874,"midi":34,"time":269.333064,"velocity":0.3858267716535433},{"duration":2.6666640000000257,"midi":30,"time":269.333064,"velocity":0.3858267716535433},{"duration":0.3333329999999819,"midi":39,"time":269.666397,"velocity":0.3858267716535433},{"duration":0.3333329999999819,"midi":34,"time":269.99973,"velocity":0.3858267716535433},{"duration":0.33333300000003874,"midi":39,"time":270.333063,"velocity":0.3858267716535433},{"duration":0.3333329999999819,"midi":34,"time":270.666396,"velocity":0.3858267716535433},{"duration":0.3333329999999819,"midi":39,"time":270.999729,"velocity":0.3858267716535433},{"duration":0.3333329999999819,"midi":34,"time":271.333062,"velocity":0.3858267716535433},{"duration":0.33333300000003874,"midi":39,"time":271.66639499999997,"velocity":0.3858267716535433},{"duration":0.3333329999999819,"midi":34,"time":271.999728,"velocity":0.3858267716535433},{"duration":1.3333319999999844,"midi":27,"time":271.999728,"velocity":0.3858267716535433},{"duration":0.3333329999999819,"midi":39,"time":272.333061,"velocity":0.3858267716535433},{"duration":0.33333300000003874,"midi":34,"time":272.66639399999997,"velocity":0.3858267716535433},{"duration":0.3333329999999819,"midi":39,"time":272.999727,"velocity":0.3858267716535433},{"duration":1.3333319999999844,"midi":32,"time":273.33306,"velocity":0.3858267716535433},{"duration":0.3333329999999819,"midi":34,"time":273.33306,"velocity":0.3858267716535433},{"duration":0.33333300000003874,"midi":39,"time":273.66639299999997,"velocity":0.3858267716535433},{"duration":0.3333329999999819,"midi":34,"time":273.999726,"velocity":0.3858267716535433},{"duration":0.3333329999999819,"midi":39,"time":274.333059,"velocity":0.3858267716535433},{"duration":0.6666660000000206,"midi":41,"time":274.666392,"velocity":0.3858267716535433},{"duration":0.6666660000000206,"midi":35,"time":274.666392,"velocity":0.3858267716535433},{"duration":1.3333320000000413,"midi":25,"time":274.666392,"velocity":0.3858267716535433},{"duration":0.6666660000000206,"midi":39,"time":275.333058,"velocity":0.3858267716535433},{"duration":0.49999950000000126,"midi":41,"time":275.999724,"velocity":0.3858267716535433},{"duration":0.49999950000000126,"midi":35,"time":275.999724,"velocity":0.3858267716535433},{"duration":1.3333319999999844,"midi":32,"time":275.999724,"velocity":0.3858267716535433},{"duration":0.16666649999996253,"midi":35,"time":276.4997235,"velocity":0.3858267716535433},{"duration":0.16666649999996253,"midi":41,"time":276.4997235,"velocity":0.3858267716535433},{"duration":0.6666660000000206,"midi":39,"time":276.66639,"velocity":0.3858267716535433},{"duration":1.3333319999999844,"midi":33,"time":277.333056,"velocity":0.3858267716535433},{"duration":0.6666660000000206,"midi":35,"time":277.333056,"velocity":0.3858267716535433},{"duration":0.6666660000000206,"midi":41,"time":277.333056,"velocity":0.3858267716535433},{"duration":0.6666659999999638,"midi":39,"time":277.999722,"velocity":0.3858267716535433},{"duration":0.49999950000000126,"midi":35,"time":278.666388,"velocity":0.3858267716535433},{"duration":0.6666660000000206,"midi":35,"time":278.666388,"velocity":0.3858267716535433},{"duration":0.49999950000000126,"midi":41,"time":278.666388,"velocity":0.3858267716535433},{"duration":0.16666650000001937,"midi":41,"time":279.1663875,"velocity":0.3858267716535433},{"duration":0.8333324999999832,"midi":35,"time":279.1663875,"velocity":0.3858267716535433},{"duration":0.6666659999999638,"midi":39,"time":279.333054,"velocity":0.3858267716535433},{"duration":0.6666660000000206,"midi":35,"time":279.99971999999997,"velocity":0.3858267716535433},{"duration":0.6666660000000206,"midi":41,"time":279.99971999999997,"velocity":0.3858267716535433},{"duration":1.3333320000000413,"midi":30,"time":279.99971999999997,"velocity":0.3858267716535433},{"duration":0.6666660000000206,"midi":39,"time":280.666386,"velocity":0.3858267716535433},{"duration":1.3333319999999844,"midi":32,"time":281.333052,"velocity":0.3858267716535433},{"duration":0.49999950000000126,"midi":41,"time":281.333052,"velocity":0.3858267716535433},{"duration":0.49999950000000126,"midi":35,"time":281.333052,"velocity":0.3858267716535433},{"duration":0.16666649999996253,"midi":35,"time":281.8330515,"velocity":0.3858267716535433},{"duration":0.16666649999996253,"midi":41,"time":281.8330515,"velocity":0.3858267716535433},{"duration":0.6666660000000206,"midi":39,"time":281.999718,"velocity":0.3858267716535433},{"duration":0.6666660000000206,"midi":35,"time":282.666384,"velocity":0.3858267716535433},{"duration":0.6666660000000206,"midi":41,"time":282.666384,"velocity":0.3858267716535433},{"duration":1.3333319999999844,"midi":33,"time":282.666384,"velocity":0.3858267716535433},{"duration":0.6666659999999638,"midi":39,"time":283.33305,"velocity":0.3858267716535433},{"duration":0.49999950000000126,"midi":35,"time":283.999716,"velocity":0.3858267716535433},{"duration":0.49999950000000126,"midi":41,"time":283.999716,"velocity":0.3858267716535433},{"duration":0.6666660000000206,"midi":35,"time":283.999716,"velocity":0.3858267716535433},{"duration":0.16666650000001937,"midi":41,"time":284.4997155,"velocity":0.3858267716535433},{"duration":0.16666650000001937,"midi":35,"time":284.4997155,"velocity":0.3858267716535433},{"duration":0.6666660000000206,"midi":36,"time":284.666382,"velocity":0.3858267716535433},{"duration":0.6666660000000206,"midi":39,"time":284.666382,"velocity":0.3858267716535433},{"duration":0.6666659999999638,"midi":41,"time":285.333048,"velocity":0.3858267716535433},{"duration":0.6666659999999638,"midi":35,"time":285.333048,"velocity":0.3858267716535433},{"duration":1.3333319999999844,"midi":37,"time":285.333048,"velocity":0.3858267716535433},{"duration":0.6666660000000206,"midi":39,"time":285.999714,"velocity":0.3858267716535433},{"duration":0.49999950000000126,"midi":35,"time":286.66638,"velocity":0.3858267716535433},{"duration":0.6666659999999638,"midi":35,"time":286.66638,"velocity":0.3858267716535433},{"duration":0.49999950000000126,"midi":41,"time":286.66638,"velocity":0.3858267716535433},{"duration":0.16666649999996253,"midi":41,"time":287.1663795,"velocity":0.3858267716535433},{"duration":0.8333324999999832,"midi":35,"time":287.1663795,"velocity":0.3858267716535433},{"duration":0.6666660000000206,"midi":39,"time":287.33304599999997,"velocity":0.3858267716535433},{"duration":1.3333319999999844,"midi":34,"time":287.999712,"velocity":0.3858267716535433},{"duration":0.6666660000000206,"midi":35,"time":287.999712,"velocity":0.3858267716535433},{"duration":0.6666660000000206,"midi":41,"time":287.999712,"velocity":0.3858267716535433},{"duration":0.6666659999999638,"midi":39,"time":288.666378,"velocity":0.3858267716535433},{"duration":0.6666660000000206,"midi":30,"time":289.333044,"velocity":0.3858267716535433},{"duration":0.49999950000000126,"midi":41,"time":289.333044,"velocity":0.3858267716535433},{"duration":0.49999950000000126,"midi":35,"time":289.333044,"velocity":0.3858267716535433},{"duration":0.16666650000001937,"midi":35,"time":289.8330435,"velocity":0.3858267716535433},{"duration":0.16666650000001937,"midi":41,"time":289.8330435,"velocity":0.3858267716535433},{"duration":0.6666660000000206,"midi":28,"time":289.99971,"velocity":0.3858267716535433},{"duration":0.6666660000000206,"midi":39,"time":289.99971,"velocity":0.3858267716535433},{"duration":1.3333319999999844,"midi":26,"time":290.666376,"velocity":0.3858267716535433},{"duration":0.6666659999999638,"midi":35,"time":290.666376,"velocity":0.3858267716535433},{"duration":0.6666659999999638,"midi":41,"time":290.666376,"velocity":0.3858267716535433},{"duration":0.6666660000000206,"midi":39,"time":291.333042,"velocity":0.3858267716535433},{"duration":0.49999950000000126,"midi":35,"time":291.999708,"velocity":0.3858267716535433},{"duration":0.49999950000000126,"midi":41,"time":291.999708,"velocity":0.3858267716535433},{"duration":1.3333319999999844,"midi":33,"time":291.999708,"velocity":0.3858267716535433},{"duration":0.16666650000001937,"midi":35,"time":292.4997075,"velocity":0.3858267716535433},{"duration":0.16666650000001937,"midi":41,"time":292.4997075,"velocity":0.3858267716535433},{"duration":0.6666659999999638,"midi":39,"time":292.666374,"velocity":0.3858267716535433},{"duration":0.6666660000000206,"midi":35,"time":293.33304,"velocity":0.3858267716535433},{"duration":1.3333319999999844,"midi":35,"time":293.33304,"velocity":0.3858267716535433},{"duration":0.6666660000000206,"midi":41,"time":293.33304,"velocity":0.3858267716535433},{"duration":0.6666659999999638,"midi":39,"time":293.999706,"velocity":0.3858267716535433},{"duration":0.49999950000000126,"midi":35,"time":294.66637199999997,"velocity":0.3858267716535433},{"duration":0.6666660000000206,"midi":35,"time":294.66637199999997,"velocity":0.3858267716535433},{"duration":0.49999950000000126,"midi":41,"time":294.66637199999997,"velocity":0.3858267716535433},{"duration":0.16666650000001937,"midi":35,"time":295.16637149999997,"velocity":0.3858267716535433},{"duration":0.16666650000001937,"midi":41,"time":295.16637149999997,"velocity":0.3858267716535433},{"duration":0.6666660000000206,"midi":39,"time":295.333038,"velocity":0.3858267716535433},{"duration":0.6666660000000206,"midi":32,"time":295.333038,"velocity":0.3858267716535433},{"duration":1.3333319999999844,"midi":61,"time":295.999704,"velocity":0.3858267716535433},{"duration":1.3333319999999844,"midi":73,"time":295.999704,"velocity":0.3858267716535433},{"duration":0.3333329999999819,"midi":34,"time":295.999704,"velocity":0.3858267716535433},{"duration":0.3333329999999819,"midi":39,"time":296.333037,"velocity":0.3858267716535433},{"duration":0.33333300000003874,"midi":34,"time":296.66637,"velocity":0.3858267716535433},{"duration":0.3333329999999819,"midi":39,"time":296.999703,"velocity":0.3858267716535433},{"duration":1.3333319999999844,"midi":76,"time":297.333036,"velocity":0.3858267716535433},{"duration":1.3333319999999844,"midi":64,"time":297.333036,"velocity":0.3858267716535433},{"duration":0.3333329999999819,"midi":34,"time":297.333036,"velocity":0.3858267716535433},{"duration":0.33333300000003874,"midi":39,"time":297.666369,"velocity":0.3858267716535433},{"duration":0.3333329999999819,"midi":34,"time":297.999702,"velocity":0.3858267716535433},{"duration":0.3333329999999819,"midi":39,"time":298.333035,"velocity":0.3858267716535433},{"duration":1.3333320000000413,"midi":62,"time":298.666368,"velocity":0.3858267716535433},{"duration":1.3333320000000413,"midi":74,"time":298.666368,"velocity":0.3858267716535433},{"duration":0.33333300000003874,"midi":34,"time":298.666368,"velocity":0.3858267716535433},{"duration":0.3333329999999819,"midi":39,"time":298.999701,"velocity":0.3858267716535433},{"duration":0.3333329999999819,"midi":34,"time":299.333034,"velocity":0.3858267716535433},{"duration":0.33333300000003874,"midi":39,"time":299.666367,"velocity":0.3858267716535433},{"duration":1.3333319999999844,"midi":66,"time":299.9997,"velocity":0.3858267716535433},{"duration":1.3333319999999844,"midi":78,"time":299.9997,"velocity":0.3858267716535433},{"duration":0.3333329999999819,"midi":34,"time":299.9997,"velocity":0.3858267716535433},{"duration":0.3333329999999819,"midi":39,"time":300.333033,"velocity":0.3858267716535433},{"duration":0.3333329999999819,"midi":34,"time":300.666366,"velocity":0.3858267716535433},{"duration":0.33333300000003874,"midi":39,"time":300.99969899999996,"velocity":0.3858267716535433},{"duration":0.3333329999999819,"midi":34,"time":301.333032,"velocity":0.3858267716535433},{"duration":1.3333319999999844,"midi":76,"time":301.333032,"velocity":0.3858267716535433},{"duration":1.3333319999999844,"midi":64,"time":301.333032,"velocity":0.3858267716535433},{"duration":0.3333329999999819,"midi":39,"time":301.666365,"velocity":0.3858267716535433},{"duration":0.33333300000003874,"midi":34,"time":301.99969799999997,"velocity":0.3858267716535433},{"duration":0.3333329999999819,"midi":39,"time":302.333031,"velocity":0.3858267716535433},{"duration":1.3333319999999844,"midi":80,"time":302.666364,"velocity":0.3858267716535433},{"duration":1.3333319999999844,"midi":68,"time":302.666364,"velocity":0.3858267716535433},{"duration":0.3333329999999819,"midi":34,"time":302.666364,"velocity":0.3858267716535433},{"duration":0.33333300000003874,"midi":39,"time":302.99969699999997,"velocity":0.3858267716535433},{"duration":0.3333329999999819,"midi":34,"time":303.33303,"velocity":0.3858267716535433},{"duration":0.3333329999999819,"midi":39,"time":303.666363,"velocity":0.3858267716535433},{"duration":1.3333320000000413,"midi":81,"time":303.999696,"velocity":0.3858267716535433},{"duration":0.33333300000003874,"midi":34,"time":303.999696,"velocity":0.3858267716535433},{"duration":1.3333320000000413,"midi":69,"time":303.999696,"velocity":0.3858267716535433},{"duration":0.3333329999999819,"midi":39,"time":304.333029,"velocity":0.3858267716535433},{"duration":0.3333329999999819,"midi":34,"time":304.666362,"velocity":0.3858267716535433},{"duration":0.33333300000003874,"midi":39,"time":304.999695,"velocity":0.3858267716535433},{"duration":1.3333319999999844,"midi":78,"time":305.333028,"velocity":0.3858267716535433},{"duration":1.3333319999999844,"midi":66,"time":305.333028,"velocity":0.3858267716535433},{"duration":0.33333300000003874,"midi":39,"time":322.99967699999996,"velocity":0.3858267716535433},{"duration":0.3333329999999819,"midi":34,"time":323.33301,"velocity":0.3858267716535433},{"duration":0.3333329999999819,"midi":39,"time":323.666343,"velocity":0.3858267716535433},{"duration":0.33333300000003874,"midi":34,"time":323.99967599999997,"velocity":0.3858267716535433},{"duration":0.3333329999999819,"midi":39,"time":324.333009,"velocity":0.3858267716535433},{"duration":0.3333329999999819,"midi":34,"time":324.666342,"velocity":0.3858267716535433},{"duration":0.33333300000003874,"midi":39,"time":324.99967499999997,"velocity":0.3858267716535433},{"duration":0.3333329999999819,"midi":34,"time":325.333008,"velocity":0.3858267716535433},{"duration":0.3333329999999819,"midi":39,"time":325.666341,"velocity":0.3858267716535433},{"duration":0.33333300000003874,"midi":34,"time":325.99967399999997,"velocity":0.3858267716535433},{"duration":0.3333329999999819,"midi":39,"time":326.333007,"velocity":0.3858267716535433},{"duration":0.3333329999999819,"midi":34,"time":326.66634,"velocity":0.3858267716535433},{"duration":0.33333300000003874,"midi":39,"time":326.999673,"velocity":0.3858267716535433},{"duration":0.3333329999999819,"midi":34,"time":327.333006,"velocity":0.3858267716535433},{"duration":0.3333329999999819,"midi":39,"time":327.666339,"velocity":0.3858267716535433},{"duration":0.6666660000000206,"midi":35,"time":327.999672,"velocity":0.3858267716535433},{"duration":1.3333320000000413,"midi":25,"time":327.999672,"velocity":0.3858267716535433},{"duration":0.6666660000000206,"midi":41,"time":327.999672,"velocity":0.3858267716535433},{"duration":0.6666660000000206,"midi":39,"time":328.666338,"velocity":0.3858267716535433},{"duration":1.3333319999999844,"midi":32,"time":329.333004,"velocity":0.3858267716535433},{"duration":0.6666659999999638,"midi":35,"time":329.333004,"velocity":0.3858267716535433},{"duration":0.6666659999999638,"midi":41,"time":329.333004,"velocity":0.3858267716535433},{"duration":0.6666660000000206,"midi":39,"time":329.99967,"velocity":0.3858267716535433},{"duration":0.6666659999999638,"midi":41,"time":330.666336,"velocity":0.3858267716535433},{"duration":1.3333319999999844,"midi":33,"time":330.666336,"velocity":0.3858267716535433},{"duration":0.6666659999999638,"midi":35,"time":330.666336,"velocity":0.3858267716535433},{"duration":0.6666660000000206,"midi":39,"time":331.33300199999996,"velocity":0.3858267716535433},{"duration":0.6666660000000206,"midi":41,"time":331.999668,"velocity":0.3858267716535433},{"duration":0.6666660000000206,"midi":35,"time":331.999668,"velocity":0.3858267716535433},{"duration":1.3333319999999844,"midi":35,"time":331.999668,"velocity":0.3858267716535433},{"duration":0.6666659999999638,"midi":39,"time":332.666334,"velocity":0.3858267716535433},{"duration":0.6666660000000206,"midi":41,"time":333.33299999999997,"velocity":0.3858267716535433},{"duration":0.6666660000000206,"midi":35,"time":333.33299999999997,"velocity":0.3858267716535433},{"duration":1.3333320000000413,"midi":30,"time":333.33299999999997,"velocity":0.3858267716535433},{"duration":0.6666660000000206,"midi":39,"time":333.999666,"velocity":0.3858267716535433},{"duration":0.6666659999999638,"midi":41,"time":334.666332,"velocity":0.3858267716535433},{"duration":0.6666659999999638,"midi":35,"time":334.666332,"velocity":0.3858267716535433},{"duration":1.3333319999999844,"midi":32,"time":334.666332,"velocity":0.3858267716535433},{"duration":0.6666660000000206,"midi":39,"time":335.332998,"velocity":0.3858267716535433},{"duration":1.3333319999999844,"midi":33,"time":335.999664,"velocity":0.3858267716535433},{"duration":0.6666660000000206,"midi":35,"time":335.999664,"velocity":0.3858267716535433},{"duration":0.6666660000000206,"midi":41,"time":335.999664,"velocity":0.3858267716535433},{"duration":0.6666659999999638,"midi":39,"time":336.66633,"velocity":0.3858267716535433},{"duration":0.6666660000000206,"midi":35,"time":337.332996,"velocity":0.3858267716535433},{"duration":0.6666660000000206,"midi":35,"time":337.332996,"velocity":0.3858267716535433},{"duration":0.6666660000000206,"midi":41,"time":337.332996,"velocity":0.3858267716535433},{"duration":0.6666659999999638,"midi":36,"time":337.999662,"velocity":0.3858267716535433},{"duration":0.6666659999999638,"midi":39,"time":337.999662,"velocity":0.3858267716535433},{"duration":1.3333320000000413,"midi":37,"time":338.66632799999996,"velocity":0.3858267716535433},{"duration":0.6666660000000206,"midi":35,"time":338.66632799999996,"velocity":0.3858267716535433},{"duration":0.6666660000000206,"midi":41,"time":338.66632799999996,"velocity":0.3858267716535433},{"duration":0.6666660000000206,"midi":39,"time":339.332994,"velocity":0.3858267716535433},{"duration":0.6666659999999638,"midi":41,"time":339.99966,"velocity":0.3858267716535433},{"duration":0.6666659999999638,"midi":35,"time":339.99966,"velocity":0.3858267716535433},{"duration":1.3333319999999844,"midi":35,"time":339.99966,"velocity":0.3858267716535433},{"duration":0.6666660000000206,"midi":39,"time":340.66632599999997,"velocity":0.3858267716535433},{"duration":0.6666660000000206,"midi":35,"time":341.332992,"velocity":0.3858267716535433},{"duration":0.6666660000000206,"midi":41,"time":341.332992,"velocity":0.3858267716535433},{"duration":1.3333319999999844,"midi":34,"time":341.332992,"velocity":0.3858267716535433},{"duration":0.6666659999999638,"midi":39,"time":341.999658,"velocity":0.3858267716535433},{"duration":0.6666660000000206,"midi":41,"time":342.666324,"velocity":0.3858267716535433},{"duration":0.6666660000000206,"midi":35,"time":342.666324,"velocity":0.3858267716535433},{"duration":0.6666660000000206,"midi":30,"time":342.666324,"velocity":0.3858267716535433},{"duration":0.6666660000000206,"midi":39,"time":343.33299,"velocity":0.3858267716535433},{"duration":0.6666660000000206,"midi":28,"time":343.33299,"velocity":0.3858267716535433},{"duration":1.3333319999999844,"midi":26,"time":343.999656,"velocity":0.3858267716535433},{"duration":0.6666659999999638,"midi":41,"time":343.999656,"velocity":0.3858267716535433},{"duration":0.6666659999999638,"midi":35,"time":343.999656,"velocity":0.3858267716535433},{"duration":0.6666660000000206,"midi":39,"time":344.666322,"velocity":0.3858267716535433},{"duration":0.6666659999999638,"midi":35,"time":345.332988,"velocity":0.3858267716535433},{"duration":0.6666659999999638,"midi":41,"time":345.332988,"velocity":0.3858267716535433},{"duration":1.3333319999999844,"midi":33,"time":345.332988,"velocity":0.3858267716535433},{"duration":0.6666660000000206,"midi":39,"time":345.99965399999996,"velocity":0.3858267716535433},{"duration":0.6666660000000206,"midi":35,"time":346.66632,"velocity":0.3858267716535433},{"duration":0.6666660000000206,"midi":41,"time":346.66632,"velocity":0.3858267716535433},{"duration":1.3333319999999844,"midi":35,"time":346.66632,"velocity":0.3858267716535433},{"duration":0.6666659999999638,"midi":39,"time":347.332986,"velocity":0.3858267716535433},{"duration":0.6666660000000206,"midi":35,"time":347.99965199999997,"velocity":0.3858267716535433},{"duration":0.6666660000000206,"midi":41,"time":347.99965199999997,"velocity":0.3858267716535433},{"duration":0.6666660000000206,"midi":35,"time":347.99965199999997,"velocity":0.3858267716535433},{"duration":0.6666660000000206,"midi":39,"time":348.666318,"velocity":0.3858267716535433},{"duration":0.6666660000000206,"midi":32,"time":348.666318,"velocity":0.3858267716535433},{"duration":0.3333329999999819,"midi":37,"time":349.332984,"velocity":0.3858267716535433},{"duration":0.3333329999999819,"midi":34,"time":349.332984,"velocity":0.3858267716535433},{"duration":0.3333329999999819,"midi":39,"time":349.666317,"velocity":0.3858267716535433},{"duration":0.3333329999999819,"midi":37,"time":349.666317,"velocity":0.3858267716535433},{"duration":0.33333300000003874,"midi":37,"time":349.99965,"velocity":0.3858267716535433},{"duration":0.33333300000003874,"midi":34,"time":349.99965,"velocity":0.3858267716535433},{"duration":0.3333329999999819,"midi":37,"time":350.332983,"velocity":0.3858267716535433},{"duration":0.3333329999999819,"midi":39,"time":350.332983,"velocity":0.3858267716535433},{"duration":0.3333329999999819,"midi":34,"time":350.666316,"velocity":0.3858267716535433},{"duration":0.33333300000003874,"midi":39,"time":350.999649,"velocity":0.3858267716535433},{"duration":0.3333329999999819,"midi":34,"time":351.332982,"velocity":0.3858267716535433},{"duration":0.3333329999999819,"midi":39,"time":351.666315,"velocity":0.3858267716535433},{"duration":0.33333300000003874,"midi":34,"time":351.999648,"velocity":0.3858267716535433},{"duration":0.3333329999999819,"midi":39,"time":352.332981,"velocity":0.3858267716535433},{"duration":0.3333329999999819,"midi":34,"time":352.666314,"velocity":0.3858267716535433},{"duration":0.3333329999999819,"midi":39,"time":352.999647,"velocity":0.3858267716535433},{"duration":0.33333300000003874,"midi":34,"time":353.33297999999996,"velocity":0.3858267716535433},{"duration":0.3333329999999819,"midi":39,"time":353.666313,"velocity":0.3858267716535433},{"duration":0.3333329999999819,"midi":34,"time":353.999646,"velocity":0.3858267716535433},{"duration":0.33333300000003874,"midi":39,"time":354.33297899999997,"velocity":0.3858267716535433},{"duration":0.3333329999999819,"midi":34,"time":354.666312,"velocity":0.3858267716535433},{"duration":0.3333329999999819,"midi":39,"time":354.999645,"velocity":0.3858267716535433},{"duration":0.33333300000003874,"midi":34,"time":355.33297799999997,"velocity":0.3858267716535433},{"duration":0.3333329999999819,"midi":39,"time":355.666311,"velocity":0.3858267716535433},{"duration":0.3333329999999819,"midi":34,"time":355.999644,"velocity":0.3858267716535433},{"duration":0.33333300000003874,"midi":39,"time":356.33297699999997,"velocity":0.3858267716535433},{"duration":0.3333329999999819,"midi":34,"time":356.66631,"velocity":0.3858267716535433},{"duration":0.3333329999999819,"midi":39,"time":356.999643,"velocity":0.3858267716535433},{"duration":0.33333300000003874,"midi":34,"time":357.332976,"velocity":0.3858267716535433},{"duration":0.3333329999999819,"midi":39,"time":357.666309,"velocity":0.3858267716535433},{"duration":0.3333329999999819,"midi":34,"time":357.999642,"velocity":0.3858267716535433},{"duration":0.33333300000003874,"midi":39,"time":358.332975,"velocity":0.3858267716535433},{"duration":0.3333329999999819,"midi":34,"time":358.666308,"velocity":0.3858267716535433},{"duration":0.3333329999999819,"midi":39,"time":358.999641,"velocity":0.3858267716535433},{"duration":0.33333300000003874,"midi":34,"time":359.332974,"velocity":0.3858267716535433},{"duration":0.3333329999999819,"midi":39,"time":359.666307,"velocity":0.3858267716535433},{"duration":0.3333329999999819,"midi":34,"time":359.99964,"velocity":0.3858267716535433},{"duration":0.3333329999999819,"midi":39,"time":360.332973,"velocity":0.3858267716535433},{"duration":0.33333300000003874,"midi":34,"time":360.66630599999996,"velocity":0.3858267716535433},{"duration":0.3333329999999819,"midi":39,"time":360.999639,"velocity":0.3858267716535433},{"duration":0.3333329999999819,"midi":34,"time":361.332972,"velocity":0.3858267716535433},{"duration":0.33333300000003874,"midi":39,"time":361.66630499999997,"velocity":0.3858267716535433},{"duration":0.3333329999999819,"midi":34,"time":361.999638,"velocity":0.3858267716535433},{"duration":0.3333329999999819,"midi":39,"time":362.332971,"velocity":0.3858267716535433},{"duration":0.33333300000003874,"midi":34,"time":362.66630399999997,"velocity":0.3858267716535433},{"duration":0.3333329999999819,"midi":39,"time":362.999637,"velocity":0.3858267716535433},{"duration":0.3333329999999819,"midi":34,"time":363.33297,"velocity":0.3858267716535433},{"duration":0.33333300000003874,"midi":39,"time":363.66630299999997,"velocity":0.3858267716535433},{"duration":0.3333329999999819,"midi":34,"time":363.999636,"velocity":0.3858267716535433},{"duration":0.3333329999999819,"midi":39,"time":364.332969,"velocity":0.3858267716535433},{"duration":0.33333300000003874,"midi":34,"time":364.666302,"velocity":0.3858267716535433},{"duration":0.3333329999999819,"midi":39,"time":364.999635,"velocity":0.3858267716535433},{"duration":0.3333329999999819,"midi":34,"time":365.332968,"velocity":0.3858267716535433},{"duration":0.33333300000003874,"midi":39,"time":365.666301,"velocity":0.3858267716535433},{"duration":0.3333329999999819,"midi":34,"time":365.999634,"velocity":0.3858267716535433},{"duration":0.3333329999999819,"midi":39,"time":366.332967,"velocity":0.3858267716535433},{"duration":0.33333300000003874,"midi":34,"time":366.6663,"velocity":0.3858267716535433},{"duration":0.3333329999999819,"midi":39,"time":366.999633,"velocity":0.3858267716535433},{"duration":0.3333329999999819,"midi":34,"time":367.332966,"velocity":0.3858267716535433},{"duration":0.3333329999999819,"midi":39,"time":367.666299,"velocity":0.3858267716535433},{"duration":0.33333300000003874,"midi":34,"time":367.99963199999996,"velocity":0.3858267716535433},{"duration":0.3333329999999819,"midi":39,"time":368.332965,"velocity":0.3858267716535433},{"duration":0.3333329999999819,"midi":34,"time":368.666298,"velocity":0.3858267716535433},{"duration":0.33333300000003874,"midi":39,"time":368.99963099999997,"velocity":0.3858267716535433},{"duration":0.3333329999999819,"midi":34,"time":369.332964,"velocity":0.3858267716535433},{"duration":0.3333329999999819,"midi":39,"time":369.666297,"velocity":0.3858267716535433},{"duration":0.33333300000003874,"midi":34,"time":369.99962999999997,"velocity":0.3858267716535433},{"duration":0.3333329999999819,"midi":39,"time":370.332963,"velocity":0.3858267716535433},{"duration":5.3333279999999945,"midi":25,"time":370.666296,"velocity":0.3858267716535433},{"duration":5.3333279999999945,"midi":25,"time":375.999624,"velocity":0.3858267716535433},{"duration":2.6666640000000257,"midi":26,"time":381.332952,"velocity":0.3858267716535433},{"duration":1.999998000000005,"midi":25,"time":383.999616,"velocity":0.3858267716535433},{"duration":0.08333324999995284,"midi":30,"time":385.999614,"velocity":0.3858267716535433},{"duration":0.08333324999995284,"midi":28,"time":385.999614,"velocity":0.3858267716535433},{"duration":0.08333324999995284,"midi":31,"time":385.999614,"velocity":0.3858267716535433},{"duration":0.6666659999999638,"midi":32,"time":385.999614,"velocity":0.3858267716535433},{"duration":0.08333324999995284,"midi":29,"time":385.999614,"velocity":0.3858267716535433},{"duration":0.6666660000000206,"midi":30,"time":386.66628,"velocity":0.3858267716535433},{"duration":0.16666650000001937,"midi":30,"time":387.332946,"velocity":0.3858267716535433},{"duration":0.16666649999996253,"midi":37,"time":387.4996125,"velocity":0.3858267716535433},{"duration":0.16666650000001937,"midi":42,"time":387.666279,"velocity":0.3858267716535433},{"duration":0.16666650000001937,"midi":43,"time":387.8329455,"velocity":0.3858267716535433},{"duration":0.16666650000001937,"midi":42,"time":387.8329455,"velocity":0.3858267716535433},{"duration":0.49999950000000126,"midi":44,"time":387.8329455,"velocity":0.3858267716535433},{"duration":0.16666650000001937,"midi":42,"time":388.332945,"velocity":0.3858267716535433},{"duration":0.49999950000000126,"midi":37,"time":388.4996115,"velocity":0.3858267716535433},{"duration":0.3333329999999819,"midi":30,"time":388.999611,"velocity":0.3858267716535433},{"duration":1.3333319999999844,"midi":28,"time":389.332944,"velocity":0.3858267716535433},{"duration":0.6666660000000206,"midi":28,"time":390.666276,"velocity":0.3858267716535433},{"duration":0.16666649999996253,"midi":28,"time":391.332942,"velocity":0.3858267716535433},{"duration":0.16666650000001937,"midi":30,"time":391.49960849999997,"velocity":0.3858267716535433},{"duration":0.16666650000001937,"midi":32,"time":391.666275,"velocity":0.3858267716535433},{"duration":0.16666649999996253,"midi":32,"time":391.8329415,"velocity":0.3858267716535433},{"duration":1.3333320000000413,"midi":69,"time":391.99960799999997,"velocity":0.3858267716535433},{"duration":1.3333320000000413,"midi":33,"time":391.99960799999997,"velocity":0.3858267716535433},{"duration":1.3333319999999844,"midi":71,"time":393.33294,"velocity":0.3858267716535433},{"duration":1.3333319999999844,"midi":35,"time":393.33294,"velocity":0.3858267716535433},{"duration":1.3333319999999844,"midi":37,"time":394.666272,"velocity":0.3858267716535433},{"duration":1.999998000000005,"midi":68,"time":394.666272,"velocity":0.3858267716535433},{"duration":0.49999950000000126,"midi":40,"time":395.999604,"velocity":0.3858267716535433},{"duration":0.16666650000001937,"midi":39,"time":395.999604,"velocity":0.3858267716535433},{"duration":0.16666650000001937,"midi":38,"time":395.999604,"velocity":0.3858267716535433},{"duration":0.16666650000001937,"midi":37,"time":395.999604,"velocity":0.3858267716535433},{"duration":0.49999950000000126,"midi":39,"time":396.4996035,"velocity":0.3858267716535433},{"duration":0.6666659999999638,"midi":68,"time":396.66627,"velocity":0.3858267716535433},{"duration":0.3333329999999819,"midi":37,"time":396.999603,"velocity":0.3858267716535433},{"duration":1.6666650000000232,"midi":35,"time":397.33293599999996,"velocity":0.3858267716535433},{"duration":1.3333320000000413,"midi":68,"time":397.33293599999996,"velocity":0.3858267716535433},{"duration":1.3333320000000413,"midi":80,"time":397.33293599999996,"velocity":0.3858267716535433},{"duration":1.3333319999999844,"midi":78,"time":398.666268,"velocity":0.3858267716535433},{"duration":1.3333319999999844,"midi":66,"time":398.666268,"velocity":0.3858267716535433},{"duration":0.3333329999999819,"midi":30,"time":398.999601,"velocity":0.3858267716535433},{"duration":0.33333300000003874,"midi":35,"time":399.33293399999997,"velocity":0.3858267716535433},{"duration":0.3333329999999819,"midi":37,"time":399.666267,"velocity":0.3858267716535433},{"duration":2.6666640000000257,"midi":61,"time":399.9996,"velocity":0.3858267716535433},{"duration":2.6666640000000257,"midi":73,"time":399.9996,"velocity":0.3858267716535433},{"duration":1.999998000000005,"midi":30,"time":399.9996,"velocity":0.3858267716535433},{"duration":0.6666660000000206,"midi":32,"time":401.999598,"velocity":0.3858267716535433},{"duration":1.3333319999999844,"midi":73,"time":402.666264,"velocity":0.3858267716535433},{"duration":1.3333319999999844,"midi":61,"time":402.666264,"velocity":0.3858267716535433},{"duration":0.6666659999999638,"midi":33,"time":402.666264,"velocity":0.3858267716535433},{"duration":0.16666650000001937,"midi":33,"time":403.33293,"velocity":0.3858267716535433},{"duration":0.16666650000001937,"midi":35,"time":403.4995965,"velocity":0.3858267716535433},{"duration":0.16666649999996253,"midi":37,"time":403.666263,"velocity":0.3858267716535433},{"duration":0.16666650000001937,"midi":39,"time":403.8329295,"velocity":0.3858267716535433},{"duration":0.16666650000001937,"midi":39,"time":403.999596,"velocity":0.3858267716535433},{"duration":1.3333319999999844,"midi":63,"time":403.999596,"velocity":0.3858267716535433},{"duration":0.49999950000000126,"midi":40,"time":403.999596,"velocity":0.3858267716535433},{"duration":1.3333319999999844,"midi":75,"time":403.999596,"velocity":0.3858267716535433},{"duration":0.49999950000000126,"midi":39,"time":404.4995955,"velocity":0.3858267716535433},{"duration":0.16666649999996253,"midi":37,"time":404.999595,"velocity":0.3858267716535433},{"duration":0.16666650000001937,"midi":35,"time":405.16626149999996,"velocity":0.3858267716535433},{"duration":1.3333319999999844,"midi":76,"time":405.332928,"velocity":0.3858267716535433},{"duration":1.3333319999999844,"midi":64,"time":405.332928,"velocity":0.3858267716535433},{"duration":0.9999990000000025,"midi":37,"time":405.332928,"velocity":0.3858267716535433},{"duration":0.3333329999999819,"midi":37,"time":406.332927,"velocity":0.3858267716535433},{"duration":0.6666660000000206,"midi":25,"time":406.66625999999997,"velocity":0.3858267716535433},{"duration":0.6666660000000206,"midi":68,"time":406.66625999999997,"velocity":0.3858267716535433},{"duration":0.6666660000000206,"midi":80,"time":406.66625999999997,"velocity":0.3858267716535433},{"duration":0.6666660000000206,"midi":66,"time":407.332926,"velocity":0.3858267716535433},{"duration":0.08333325000000968,"midi":32,"time":407.332926,"velocity":0.3858267716535433},{"duration":0.6666660000000206,"midi":35,"time":407.332926,"velocity":0.3858267716535433},{"duration":0.6666660000000206,"midi":78,"time":407.332926,"velocity":0.3858267716535433},{"duration":0.08333325000000968,"midi":34,"time":407.332926,"velocity":0.3858267716535433},{"duration":0.08333325000000968,"midi":33,"time":407.332926,"velocity":0.3858267716535433},{"duration":1.3333319999999844,"midi":66,"time":407.999592,"velocity":0.3858267716535433},{"duration":0.9999990000000025,"midi":34,"time":407.999592,"velocity":0.3858267716535433},{"duration":1.3333319999999844,"midi":78,"time":407.999592,"velocity":0.3858267716535433},{"duration":0.3333329999999819,"midi":32,"time":408.999591,"velocity":0.3858267716535433},{"duration":0.9999990000000025,"midi":61,"time":409.332924,"velocity":0.3858267716535433},{"duration":0.9999990000000025,"midi":30,"time":409.332924,"velocity":0.3858267716535433},{"duration":0.9999990000000025,"midi":73,"time":409.332924,"velocity":0.3858267716535433},{"duration":0.16666650000001937,"midi":73,"time":410.332923,"velocity":0.3858267716535433},{"duration":0.16666650000001937,"midi":61,"time":410.332923,"velocity":0.3858267716535433},{"duration":0.16666650000001937,"midi":37,"time":410.332923,"velocity":0.3858267716535433},{"duration":0.16666649999996253,"midi":63,"time":410.4995895,"velocity":0.3858267716535433},{"duration":0.16666649999996253,"midi":75,"time":410.4995895,"velocity":0.3858267716535433},{"duration":0.16666649999996253,"midi":28,"time":410.4995895,"velocity":0.3858267716535433},{"duration":1.3333319999999844,"midi":76,"time":410.666256,"velocity":0.3858267716535433},{"duration":1.3333319999999844,"midi":30,"time":410.666256,"velocity":0.3858267716535433},{"duration":1.3333319999999844,"midi":64,"time":410.666256,"velocity":0.3858267716535433},{"duration":1.3333320000000413,"midi":32,"time":411.99958799999996,"velocity":0.3858267716535433},{"duration":0.6666660000000206,"midi":66,"time":411.99958799999996,"velocity":0.3858267716535433},{"duration":0.6666660000000206,"midi":78,"time":411.99958799999996,"velocity":0.3858267716535433},{"duration":0.6666660000000206,"midi":83,"time":412.666254,"velocity":0.3858267716535433},{"duration":0.6666660000000206,"midi":71,"time":412.666254,"velocity":0.3858267716535433},{"duration":2.666663999999969,"midi":85,"time":413.33292,"velocity":0.3858267716535433},{"duration":2.666663999999969,"midi":73,"time":413.33292,"velocity":0.3858267716535433},{"duration":2.666663999999969,"midi":33,"time":413.33292,"velocity":0.3858267716535433},{"duration":2.6666640000000257,"midi":73,"time":415.99958399999997,"velocity":0.3858267716535433},{"duration":2.6666640000000257,"midi":35,"time":415.99958399999997,"velocity":0.3858267716535433},{"duration":2.6666640000000257,"midi":85,"time":415.99958399999997,"velocity":0.3858267716535433},{"duration":0.3333329999999819,"midi":38,"time":438.666228,"velocity":0.3858267716535433},{"duration":0.33333300000003874,"midi":38,"time":438.99956099999997,"velocity":0.3858267716535433},{"duration":0.3333329999999819,"midi":38,"time":439.332894,"velocity":0.3858267716535433},{"duration":0.3333329999999819,"midi":39,"time":439.666227,"velocity":0.3858267716535433},{"duration":1.3333320000000413,"midi":68,"time":439.99956,"velocity":0.3858267716535433},{"duration":0.33333300000003874,"midi":39,"time":439.99956,"velocity":0.3858267716535433},{"duration":0.33333300000003874,"midi":49,"time":439.99956,"velocity":0.3858267716535433},{"duration":0.3333329999999819,"midi":49,"time":440.332893,"velocity":0.3858267716535433},{"duration":0.3333329999999819,"midi":39,"time":440.332893,"velocity":0.3858267716535433},{"duration":0.3333329999999819,"midi":39,"time":440.666226,"velocity":0.3858267716535433},{"duration":0.3333329999999819,"midi":49,"time":440.666226,"velocity":0.3858267716535433},{"duration":0.33333300000003874,"midi":49,"time":440.999559,"velocity":0.3858267716535433},{"duration":0.33333300000003874,"midi":39,"time":440.999559,"velocity":0.3858267716535433},{"duration":1.3333319999999844,"midi":69,"time":441.332892,"velocity":0.3858267716535433},{"duration":0.3333329999999819,"midi":39,"time":441.332892,"velocity":0.3858267716535433},{"duration":0.3333329999999819,"midi":49,"time":441.332892,"velocity":0.3858267716535433},{"duration":0.3333329999999819,"midi":39,"time":441.666225,"velocity":0.3858267716535433},{"duration":0.3333329999999819,"midi":49,"time":441.666225,"velocity":0.3858267716535433},{"duration":0.3333329999999819,"midi":49,"time":441.999558,"velocity":0.3858267716535433},{"duration":0.3333329999999819,"midi":39,"time":441.999558,"velocity":0.3858267716535433},{"duration":0.33333300000003874,"midi":49,"time":442.33289099999996,"velocity":0.3858267716535433},{"duration":0.33333300000003874,"midi":39,"time":442.33289099999996,"velocity":0.3858267716535433},{"duration":1.3333319999999844,"midi":71,"time":442.666224,"velocity":0.3858267716535433},{"duration":0.3333329999999819,"midi":49,"time":442.666224,"velocity":0.3858267716535433},{"duration":0.3333329999999819,"midi":39,"time":442.666224,"velocity":0.3858267716535433},{"duration":0.3333329999999819,"midi":49,"time":442.999557,"velocity":0.3858267716535433},{"duration":0.3333329999999819,"midi":39,"time":442.999557,"velocity":0.3858267716535433},{"duration":0.33333300000003874,"midi":49,"time":443.33288999999996,"velocity":0.3858267716535433},{"duration":0.33333300000003874,"midi":39,"time":443.33288999999996,"velocity":0.3858267716535433},{"duration":0.3333329999999819,"midi":49,"time":443.666223,"velocity":0.3858267716535433},{"duration":0.3333329999999819,"midi":39,"time":443.666223,"velocity":0.3858267716535433},{"duration":0.3333329999999819,"midi":39,"time":443.999556,"velocity":0.3858267716535433},{"duration":1.3333319999999844,"midi":66,"time":443.999556,"velocity":0.3858267716535433},{"duration":0.3333329999999819,"midi":49,"time":443.999556,"velocity":0.3858267716535433},{"duration":0.33333300000003874,"midi":49,"time":444.33288899999997,"velocity":0.3858267716535433},{"duration":0.33333300000003874,"midi":39,"time":444.33288899999997,"velocity":0.3858267716535433},{"duration":0.3333329999999819,"midi":39,"time":444.666222,"velocity":0.3858267716535433},{"duration":0.3333329999999819,"midi":49,"time":444.666222,"velocity":0.3858267716535433},{"duration":0.3333329999999819,"midi":39,"time":444.999555,"velocity":0.3858267716535433},{"duration":0.3333329999999819,"midi":49,"time":444.999555,"velocity":0.3858267716535433},{"duration":1.3333320000000413,"midi":68,"time":445.33288799999997,"velocity":0.3858267716535433},{"duration":0.33333300000003874,"midi":39,"time":445.33288799999997,"velocity":0.3858267716535433},{"duration":0.33333300000003874,"midi":49,"time":445.33288799999997,"velocity":0.3858267716535433},{"duration":0.3333329999999819,"midi":49,"time":445.666221,"velocity":0.3858267716535433},{"duration":0.3333329999999819,"midi":39,"time":445.666221,"velocity":0.3858267716535433},{"duration":0.3333329999999819,"midi":39,"time":445.999554,"velocity":0.3858267716535433},{"duration":0.3333329999999819,"midi":49,"time":445.999554,"velocity":0.3858267716535433},{"duration":0.33333300000003874,"midi":39,"time":446.33288699999997,"velocity":0.3858267716535433},{"duration":0.33333300000003874,"midi":49,"time":446.33288699999997,"velocity":0.3858267716535433},{"duration":0.3333329999999819,"midi":49,"time":446.66622,"velocity":0.3858267716535433},{"duration":1.3333319999999844,"midi":69,"time":446.66622,"velocity":0.3858267716535433},{"duration":0.3333329999999819,"midi":39,"time":446.66622,"velocity":0.3858267716535433},{"duration":0.3333329999999819,"midi":39,"time":446.999553,"velocity":0.3858267716535433},{"duration":0.3333329999999819,"midi":49,"time":446.999553,"velocity":0.3858267716535433},{"duration":0.33333300000003874,"midi":49,"time":447.332886,"velocity":0.3858267716535433},{"duration":0.33333300000003874,"midi":39,"time":447.332886,"velocity":0.3858267716535433},{"duration":0.3333329999999819,"midi":49,"time":447.666219,"velocity":0.3858267716535433},{"duration":0.3333329999999819,"midi":39,"time":447.666219,"velocity":0.3858267716535433},{"duration":0.3333329999999819,"midi":39,"time":447.999552,"velocity":0.3858267716535433},{"duration":0.3333329999999819,"midi":49,"time":447.999552,"velocity":0.3858267716535433},{"duration":1.3333319999999844,"midi":71,"time":447.999552,"velocity":0.3858267716535433},{"duration":0.33333300000003874,"midi":49,"time":448.332885,"velocity":0.3858267716535433},{"duration":0.33333300000003874,"midi":39,"time":448.332885,"velocity":0.3858267716535433},{"duration":0.3333329999999819,"midi":49,"time":448.666218,"velocity":0.3858267716535433},{"duration":0.3333329999999819,"midi":39,"time":448.666218,"velocity":0.3858267716535433},{"duration":0.3333329999999819,"midi":39,"time":448.999551,"velocity":0.3858267716535433},{"duration":0.3333329999999819,"midi":49,"time":448.999551,"velocity":0.3858267716535433},{"duration":0.3333329999999819,"midi":39,"time":449.332884,"velocity":0.3858267716535433},{"duration":1.3333319999999844,"midi":75,"time":449.332884,"velocity":0.3858267716535433},{"duration":1.3333319999999844,"midi":63,"time":449.332884,"velocity":0.3858267716535433},{"duration":0.3333329999999819,"midi":49,"time":449.332884,"velocity":0.3858267716535433},{"duration":0.33333300000003874,"midi":39,"time":449.66621699999996,"velocity":0.3858267716535433},{"duration":0.33333300000003874,"midi":49,"time":449.66621699999996,"velocity":0.3858267716535433},{"duration":0.3333329999999819,"midi":49,"time":449.99955,"velocity":0.3858267716535433},{"duration":0.3333329999999819,"midi":39,"time":449.99955,"velocity":0.3858267716535433},{"duration":0.3333329999999819,"midi":39,"time":450.332883,"velocity":0.3858267716535433},{"duration":0.3333329999999819,"midi":49,"time":450.332883,"velocity":0.3858267716535433},{"duration":2.6666640000000257,"midi":73,"time":450.66621599999996,"velocity":0.3858267716535433},{"duration":0.33333300000003874,"midi":49,"time":450.66621599999996,"velocity":0.3858267716535433},{"duration":0.33333300000003874,"midi":39,"time":450.66621599999996,"velocity":0.3858267716535433},{"duration":2.6666640000000257,"midi":61,"time":450.66621599999996,"velocity":0.3858267716535433},{"duration":0.3333329999999819,"midi":39,"time":450.999549,"velocity":0.3858267716535433},{"duration":0.3333329999999819,"midi":49,"time":450.999549,"velocity":0.3858267716535433},{"duration":0.3333329999999819,"midi":39,"time":451.332882,"velocity":0.3858267716535433},{"duration":0.3333329999999819,"midi":49,"time":451.332882,"velocity":0.3858267716535433},{"duration":0.33333300000003874,"midi":49,"time":451.66621499999997,"velocity":0.3858267716535433},{"duration":0.33333300000003874,"midi":39,"time":451.66621499999997,"velocity":0.3858267716535433},{"duration":0.3333329999999819,"midi":49,"time":451.999548,"velocity":0.3858267716535433},{"duration":0.3333329999999819,"midi":39,"time":451.999548,"velocity":0.3858267716535433},{"duration":0.3333329999999819,"midi":49,"time":452.332881,"velocity":0.3858267716535433},{"duration":0.3333329999999819,"midi":39,"time":452.332881,"velocity":0.3858267716535433},{"duration":0.33333300000003874,"midi":39,"time":452.66621399999997,"velocity":0.3858267716535433},{"duration":0.33333300000003874,"midi":49,"time":452.66621399999997,"velocity":0.3858267716535433},{"duration":0.3333329999999819,"midi":39,"time":452.999547,"velocity":0.3858267716535433},{"duration":0.3333329999999819,"midi":49,"time":452.999547,"velocity":0.3858267716535433},{"duration":0.3333329999999819,"midi":49,"time":453.33288,"velocity":0.3858267716535433},{"duration":0.3333329999999819,"midi":39,"time":453.33288,"velocity":0.3858267716535433},{"duration":1.3333319999999844,"midi":61,"time":453.33288,"velocity":0.3858267716535433},{"duration":1.3333319999999844,"midi":73,"time":453.33288,"velocity":0.3858267716535433},{"duration":0.33333300000003874,"midi":39,"time":453.66621299999997,"velocity":0.3858267716535433},{"duration":0.33333300000003874,"midi":49,"time":453.66621299999997,"velocity":0.3858267716535433},{"duration":0.3333329999999819,"midi":49,"time":453.999546,"velocity":0.3858267716535433},{"duration":0.3333329999999819,"midi":39,"time":453.999546,"velocity":0.3858267716535433},{"duration":0.3333329999999819,"midi":49,"time":454.332879,"velocity":0.3858267716535433},{"duration":0.3333329999999819,"midi":39,"time":454.332879,"velocity":0.3858267716535433},{"duration":1.3333320000000413,"midi":76,"time":454.666212,"velocity":0.3858267716535433},{"duration":0.33333300000003874,"midi":39,"time":454.666212,"velocity":0.3858267716535433},{"duration":1.3333320000000413,"midi":64,"time":454.666212,"velocity":0.3858267716535433},{"duration":0.33333300000003874,"midi":49,"time":454.666212,"velocity":0.3858267716535433},{"duration":0.3333329999999819,"midi":39,"time":454.999545,"velocity":0.3858267716535433},{"duration":0.3333329999999819,"midi":49,"time":454.999545,"velocity":0.3858267716535433},{"duration":0.3333329999999819,"midi":39,"time":455.332878,"velocity":0.3858267716535433},{"duration":0.3333329999999819,"midi":49,"time":455.332878,"velocity":0.3858267716535433},{"duration":0.33333300000003874,"midi":39,"time":455.666211,"velocity":0.3858267716535433},{"duration":0.33333300000003874,"midi":49,"time":455.666211,"velocity":0.3858267716535433},{"duration":2.666663999999969,"midi":74,"time":455.999544,"velocity":0.3858267716535433},{"duration":2.666663999999969,"midi":62,"time":455.999544,"velocity":0.3858267716535433},{"duration":0.3333329999999819,"midi":39,"time":455.999544,"velocity":0.3858267716535433},{"duration":0.3333329999999819,"midi":49,"time":455.999544,"velocity":0.3858267716535433},{"duration":0.3333329999999819,"midi":39,"time":456.332877,"velocity":0.3858267716535433},{"duration":0.3333329999999819,"midi":49,"time":456.332877,"velocity":0.3858267716535433},{"duration":0.3333329999999819,"midi":39,"time":456.66621,"velocity":0.3858267716535433},{"duration":0.3333329999999819,"midi":49,"time":456.66621,"velocity":0.3858267716535433},{"duration":0.33333300000003874,"midi":39,"time":456.99954299999996,"velocity":0.3858267716535433},{"duration":0.33333300000003874,"midi":49,"time":456.99954299999996,"velocity":0.3858267716535433},{"duration":0.3333329999999819,"midi":49,"time":457.332876,"velocity":0.3858267716535433},{"duration":0.3333329999999819,"midi":39,"time":457.332876,"velocity":0.3858267716535433},{"duration":0.3333329999999819,"midi":39,"time":457.666209,"velocity":0.3858267716535433},{"duration":0.3333329999999819,"midi":49,"time":457.666209,"velocity":0.3858267716535433},{"duration":0.33333300000003874,"midi":39,"time":457.99954199999996,"velocity":0.3858267716535433},{"duration":0.33333300000003874,"midi":49,"time":457.99954199999996,"velocity":0.3858267716535433},{"duration":0.3333329999999819,"midi":49,"time":458.332875,"velocity":0.3858267716535433},{"duration":0.3333329999999819,"midi":39,"time":458.332875,"velocity":0.3858267716535433},{"duration":1.3333319999999844,"midi":61,"time":458.666208,"velocity":0.3858267716535433},{"duration":1.3333319999999844,"midi":73,"time":458.666208,"velocity":0.3858267716535433},{"duration":0.3333329999999819,"midi":39,"time":458.666208,"velocity":0.3858267716535433},{"duration":0.3333329999999819,"midi":49,"time":458.666208,"velocity":0.3858267716535433},{"duration":0.33333300000003874,"midi":39,"time":458.99954099999997,"velocity":0.3858267716535433},{"duration":0.33333300000003874,"midi":49,"time":458.99954099999997,"velocity":0.3858267716535433},{"duration":0.3333329999999819,"midi":39,"time":459.332874,"velocity":0.3858267716535433},{"duration":0.3333329999999819,"midi":49,"time":459.332874,"velocity":0.3858267716535433},{"duration":0.3333329999999819,"midi":39,"time":459.666207,"velocity":0.3858267716535433},{"duration":0.3333329999999819,"midi":49,"time":459.666207,"velocity":0.3858267716535433},{"duration":1.3333320000000413,"midi":63,"time":459.99953999999997,"velocity":0.3858267716535433},{"duration":0.33333300000003874,"midi":39,"time":459.99953999999997,"velocity":0.3858267716535433},{"duration":1.3333320000000413,"midi":75,"time":459.99953999999997,"velocity":0.3858267716535433},{"duration":0.3333329999999819,"midi":39,"time":460.332873,"velocity":0.3858267716535433},{"duration":0.3333329999999819,"midi":39,"time":460.666206,"velocity":0.3858267716535433},{"duration":0.33333300000003874,"midi":39,"time":460.99953899999997,"velocity":0.3858267716535433}]},{"instrument":{"family":"strings","number":40,"name":"violin"},"notes":[{"duration":2.666664,"midi":66,"time":0,"velocity":0.3858267716535433},{"duration":2.666664,"midi":73,"time":0,"velocity":0.3858267716535433},{"duration":2.666664,"midi":61,"time":0,"velocity":0.3858267716535433},{"duration":1.333332,"midi":80,"time":1.333332,"velocity":0.3858267716535433},{"duration":2.666664,"midi":37,"time":2.666664,"velocity":0.3858267716535433},{"duration":2.666664,"midi":64,"time":2.666664,"velocity":0.3858267716535433},{"duration":2.666664,"midi":73,"time":2.666664,"velocity":0.3858267716535433},{"duration":2.666664,"midi":61,"time":2.666664,"velocity":0.3858267716535433},{"duration":2.666664,"midi":76,"time":2.666664,"velocity":0.3858267716535433},{"duration":2.666664,"midi":73,"time":5.333328,"velocity":0.3858267716535433},{"duration":2.666664,"midi":63,"time":5.333328,"velocity":0.3858267716535433},{"duration":2.666664,"midi":61,"time":5.333328,"velocity":0.3858267716535433},{"duration":2.666664,"midi":75,"time":5.333328,"velocity":0.3858267716535433},{"duration":2.666664,"midi":44,"time":5.333328,"velocity":0.3858267716535433},{"duration":2.666664,"midi":61,"time":7.999992,"velocity":0.3858267716535433},{"duration":2.666664,"midi":73,"time":7.999992,"velocity":0.3858267716535433},{"duration":2.666664,"midi":39,"time":7.999992,"velocity":0.3858267716535433},{"duration":2.666664,"midi":63,"time":7.999992,"velocity":0.3858267716535433},{"duration":2.666664000000001,"midi":61,"time":10.666656,"velocity":0.3858267716535433},{"duration":2.666664000000001,"midi":73,"time":10.666656,"velocity":0.3858267716535433},{"duration":2.666664000000001,"midi":66,"time":10.666656,"velocity":0.3858267716535433},{"duration":2.666664000000001,"midi":38,"time":10.666656,"velocity":0.3858267716535433},{"duration":0.33333299999999966,"midi":68,"time":13.33332,"velocity":0.3858267716535433},{"duration":0.33333299999999966,"midi":76,"time":13.33332,"velocity":0.3858267716535433},{"duration":0.33333299999999966,"midi":73,"time":13.33332,"velocity":0.3858267716535433},{"duration":0.33333299999999966,"midi":49,"time":13.33332,"velocity":0.3858267716535433},{"duration":0.16666649999999983,"midi":37,"time":13.666653,"velocity":0.3858267716535433},{"duration":0.4999994999999995,"midi":76,"time":13.8333195,"velocity":0.3858267716535433},{"duration":0.4999994999999995,"midi":68,"time":13.8333195,"velocity":0.3858267716535433},{"duration":0.33333299999999966,"midi":49,"time":13.8333195,"velocity":0.3858267716535433},{"duration":0.4999994999999995,"midi":73,"time":13.8333195,"velocity":0.3858267716535433},{"duration":0.16666649999999983,"midi":37,"time":14.1666525,"velocity":0.3858267716535433},{"duration":0.33333299999999966,"midi":49,"time":14.333319,"velocity":0.3858267716535433},{"duration":0.33333299999999966,"midi":76,"time":14.333319,"velocity":0.3858267716535433},{"duration":0.33333299999999966,"midi":73,"time":14.333319,"velocity":0.3858267716535433},{"duration":0.33333299999999966,"midi":68,"time":14.333319,"velocity":0.3858267716535433},{"duration":0.16666649999999983,"midi":37,"time":14.666652,"velocity":0.3858267716535433},{"duration":0.33333300000000143,"midi":49,"time":14.833318499999999,"velocity":0.3858267716535433},{"duration":0.49999950000000126,"midi":68,"time":14.833318499999999,"velocity":0.3858267716535433},{"duration":0.49999950000000126,"midi":73,"time":14.833318499999999,"velocity":0.3858267716535433},{"duration":0.49999950000000126,"midi":76,"time":14.833318499999999,"velocity":0.3858267716535433},{"duration":0.16666649999999983,"midi":37,"time":15.1666515,"velocity":0.3858267716535433},{"duration":0.33333299999999966,"midi":68,"time":15.333318,"velocity":0.3858267716535433},{"duration":0.33333299999999966,"midi":73,"time":15.333318,"velocity":0.3858267716535433},{"duration":0.16666649999999983,"midi":49,"time":15.333318,"velocity":0.3858267716535433},{"duration":0.33333299999999966,"midi":76,"time":15.333318,"velocity":0.3858267716535433},{"duration":0.33333299999999966,"midi":47,"time":15.4999845,"velocity":0.3858267716535433},{"duration":0.16666649999999983,"midi":68,"time":15.8333175,"velocity":0.3858267716535433},{"duration":0.16666649999999983,"midi":76,"time":15.8333175,"velocity":0.3858267716535433},{"duration":0.16666649999999983,"midi":49,"time":15.8333175,"velocity":0.3858267716535433},{"duration":0.16666649999999983,"midi":73,"time":15.8333175,"velocity":0.3858267716535433},{"duration":0.33333300000000143,"midi":75,"time":15.999984,"velocity":0.3858267716535433},{"duration":0.33333300000000143,"midi":56,"time":15.999984,"velocity":0.3858267716535433},{"duration":0.33333300000000143,"midi":71,"time":15.999984,"velocity":0.3858267716535433},{"duration":0.33333300000000143,"midi":68,"time":15.999984,"velocity":0.3858267716535433},{"duration":0.16666649999999805,"midi":44,"time":16.333317,"velocity":0.3858267716535433},{"duration":0.49999950000000126,"midi":68,"time":16.4999835,"velocity":0.3858267716535433},{"duration":0.33333299999999966,"midi":56,"time":16.4999835,"velocity":0.3858267716535433},{"duration":0.49999950000000126,"midi":75,"time":16.4999835,"velocity":0.3858267716535433},{"duration":0.49999950000000126,"midi":71,"time":16.4999835,"velocity":0.3858267716535433},{"duration":0.1666665000000016,"midi":44,"time":16.8333165,"velocity":0.3858267716535433},{"duration":0.33333299999999966,"midi":71,"time":16.999983,"velocity":0.3858267716535433},{"duration":0.33333299999999966,"midi":56,"time":16.999983,"velocity":0.3858267716535433},{"duration":0.33333299999999966,"midi":68,"time":16.999983,"velocity":0.3858267716535433},{"duration":0.33333299999999966,"midi":75,"time":16.999983,"velocity":0.3858267716535433},{"duration":0.16666649999999805,"midi":44,"time":17.333316,"velocity":0.3858267716535433},{"duration":0.49999950000000126,"midi":68,"time":17.499982499999998,"velocity":0.3858267716535433},{"duration":0.3333330000000032,"midi":56,"time":17.499982499999998,"velocity":0.3858267716535433},{"duration":0.49999950000000126,"midi":75,"time":17.499982499999998,"velocity":0.3858267716535433},{"duration":0.49999950000000126,"midi":71,"time":17.499982499999998,"velocity":0.3858267716535433},{"duration":0.16666649999999805,"midi":44,"time":17.8333155,"velocity":0.3858267716535433},{"duration":0.1666665000000016,"midi":56,"time":17.999982,"velocity":0.3858267716535433},{"duration":0.33333299999999966,"midi":75,"time":17.999982,"velocity":0.3858267716535433},{"duration":0.33333299999999966,"midi":68,"time":17.999982,"velocity":0.3858267716535433},{"duration":0.33333299999999966,"midi":71,"time":17.999982,"velocity":0.3858267716535433},{"duration":0.33333299999999966,"midi":54,"time":18.1666485,"velocity":0.3858267716535433},{"duration":0.16666649999999805,"midi":75,"time":18.4999815,"velocity":0.3858267716535433},{"duration":0.16666649999999805,"midi":71,"time":18.4999815,"velocity":0.3858267716535433},{"duration":0.16666649999999805,"midi":56,"time":18.4999815,"velocity":0.3858267716535433},{"duration":0.16666649999999805,"midi":68,"time":18.4999815,"velocity":0.3858267716535433},{"duration":0.33333299999999966,"midi":51,"time":18.666648,"velocity":0.3858267716535433},{"duration":0.33333299999999966,"midi":63,"time":18.666648,"velocity":0.3858267716535433},{"duration":0.33333299999999966,"midi":73,"time":18.666648,"velocity":0.3858267716535433},{"duration":0.33333299999999966,"midi":70,"time":18.666648,"velocity":0.3858267716535433},{"duration":0.1666665000000016,"midi":39,"time":18.999981,"velocity":0.3858267716535433},{"duration":0.49999950000000126,"midi":63,"time":19.1666475,"velocity":0.3858267716535433},{"duration":0.49999950000000126,"midi":70,"time":19.1666475,"velocity":0.3858267716535433},{"duration":0.49999950000000126,"midi":73,"time":19.1666475,"velocity":0.3858267716535433},{"duration":0.33333299999999966,"midi":51,"time":19.1666475,"velocity":0.3858267716535433},{"duration":0.1666665000000016,"midi":39,"time":19.4999805,"velocity":0.3858267716535433},{"duration":0.33333299999999966,"midi":63,"time":19.666647,"velocity":0.3858267716535433},{"duration":0.33333299999999966,"midi":51,"time":19.666647,"velocity":0.3858267716535433},{"duration":0.33333299999999966,"midi":73,"time":19.666647,"velocity":0.3858267716535433},{"duration":0.33333299999999966,"midi":70,"time":19.666647,"velocity":0.3858267716535433},{"duration":0.16666649999999805,"midi":39,"time":19.99998,"velocity":0.3858267716535433},{"duration":0.49999950000000126,"midi":73,"time":20.1666465,"velocity":0.3858267716535433},{"duration":0.33333299999999966,"midi":51,"time":20.1666465,"velocity":0.3858267716535433},{"duration":0.49999950000000126,"midi":70,"time":20.1666465,"velocity":0.3858267716535433},{"duration":0.49999950000000126,"midi":63,"time":20.1666465,"velocity":0.3858267716535433},{"duration":0.1666665000000016,"midi":39,"time":20.4999795,"velocity":0.3858267716535433},{"duration":0.33333299999999966,"midi":73,"time":20.666646,"velocity":0.3858267716535433},{"duration":0.33333299999999966,"midi":70,"time":20.666646,"velocity":0.3858267716535433},{"duration":0.16666649999999805,"midi":51,"time":20.666646,"velocity":0.3858267716535433},{"duration":0.33333299999999966,"midi":63,"time":20.666646,"velocity":0.3858267716535433},{"duration":0.33333299999999966,"midi":49,"time":20.833312499999998,"velocity":0.3858267716535433},{"duration":0.1666665000000016,"midi":70,"time":21.166645499999998,"velocity":0.3858267716535433},{"duration":0.1666665000000016,"midi":73,"time":21.166645499999998,"velocity":0.3858267716535433},{"duration":0.1666665000000016,"midi":63,"time":21.166645499999998,"velocity":0.3858267716535433},{"duration":0.1666665000000016,"midi":51,"time":21.166645499999998,"velocity":0.3858267716535433},{"duration":0.33333299999999966,"midi":73,"time":21.333312,"velocity":0.3858267716535433},{"duration":0.33333299999999966,"midi":69,"time":21.333312,"velocity":0.3858267716535433},{"duration":0.33333299999999966,"midi":62,"time":21.333312,"velocity":0.3858267716535433},{"duration":0.33333299999999966,"midi":50,"time":21.333312,"velocity":0.3858267716535433},{"duration":0.1666665000000016,"midi":38,"time":21.666645,"velocity":0.3858267716535433},{"duration":0.4999994999999977,"midi":62,"time":21.8333115,"velocity":0.3858267716535433},{"duration":0.33333299999999966,"midi":50,"time":21.8333115,"velocity":0.3858267716535433},{"duration":0.4999994999999977,"midi":73,"time":21.8333115,"velocity":0.3858267716535433},{"duration":0.4999994999999977,"midi":69,"time":21.8333115,"velocity":0.3858267716535433},{"duration":0.16666649999999805,"midi":38,"time":22.1666445,"velocity":0.3858267716535433},{"duration":0.33333299999999966,"midi":73,"time":22.333311,"velocity":0.3858267716535433},{"duration":0.33333299999999966,"midi":69,"time":22.333311,"velocity":0.3858267716535433},{"duration":0.33333299999999966,"midi":62,"time":22.333311,"velocity":0.3858267716535433},{"duration":0.33333299999999966,"midi":50,"time":22.333311,"velocity":0.3858267716535433},{"duration":1.3333320000000022,"midi":81,"time":22.666643999999998,"velocity":0.3858267716535433},{"duration":1.3333320000000022,"midi":85,"time":22.666643999999998,"velocity":0.3858267716535433},{"duration":1.3333320000000022,"midi":74,"time":22.666643999999998,"velocity":0.3858267716535433},{"duration":0.1666665000000016,"midi":38,"time":22.666643999999998,"velocity":0.3858267716535433},{"duration":0.33333299999999966,"midi":50,"time":22.8333105,"velocity":0.3858267716535433},{"duration":0.1666665000000016,"midi":38,"time":23.1666435,"velocity":0.3858267716535433},{"duration":0.33333299999999966,"midi":50,"time":23.33331,"velocity":0.3858267716535433},{"duration":0.33333299999999966,"midi":50,"time":23.666643,"velocity":0.3858267716535433},{"duration":1.3333319999999986,"midi":61,"time":23.999976,"velocity":0.3858267716535433},{"duration":1.3333319999999986,"midi":56,"time":23.999976,"velocity":0.3858267716535433},{"duration":0.4999994999999977,"midi":37,"time":23.999976,"velocity":0.3858267716535433},{"duration":1.3333319999999986,"midi":64,"time":23.999976,"velocity":0.3858267716535433},{"duration":0.6666659999999993,"midi":37,"time":23.999976,"velocity":0.3858267716535433},{"duration":0.33333299999999966,"midi":37,"time":24.499975499999998,"velocity":0.3858267716535433},{"duration":0.6666659999999993,"midi":37,"time":24.666642,"velocity":0.3858267716535433},{"duration":0.1666665000000016,"midi":39,"time":24.833308499999998,"velocity":0.3858267716535433},{"duration":0.1666665000000016,"midi":40,"time":24.999975,"velocity":0.3858267716535433},{"duration":0.16666649999999805,"midi":42,"time":25.1666415,"velocity":0.3858267716535433},{"duration":0.49999950000000126,"midi":44,"time":25.333308,"velocity":0.3858267716535433},{"duration":1.3333320000000022,"midi":56,"time":25.333308,"velocity":0.3858267716535433},{"duration":1.3333320000000022,"midi":59,"time":25.333308,"velocity":0.3858267716535433},{"duration":0.6666659999999993,"midi":44,"time":25.333308,"velocity":0.3858267716535433},{"duration":1.3333320000000022,"midi":63,"time":25.333308,"velocity":0.3858267716535433},{"duration":0.33333299999999966,"midi":44,"time":25.8333075,"velocity":0.3858267716535433},{"duration":0.6666660000000029,"midi":44,"time":25.999973999999998,"velocity":0.3858267716535433},{"duration":0.16666649999999805,"midi":45,"time":26.1666405,"velocity":0.3858267716535433},{"duration":0.1666665000000016,"midi":47,"time":26.333306999999998,"velocity":0.3858267716535433},{"duration":0.1666665000000016,"midi":44,"time":26.4999735,"velocity":0.3858267716535433},{"duration":1.3333319999999986,"midi":57,"time":26.66664,"velocity":0.3858267716535433},{"duration":1.3333319999999986,"midi":61,"time":26.66664,"velocity":0.3858267716535433},{"duration":0.4999994999999977,"midi":45,"time":26.66664,"velocity":0.3858267716535433},{"duration":1.3333319999999986,"midi":64,"time":26.66664,"velocity":0.3858267716535433},{"duration":0.6666659999999993,"midi":45,"time":26.66664,"velocity":0.3858267716535433},{"duration":0.33333299999999966,"midi":45,"time":27.1666395,"velocity":0.3858267716535433},{"duration":0.4999994999999977,"midi":45,"time":27.333306,"velocity":0.3858267716535433},{"duration":0.1666665000000016,"midi":40,"time":27.4999725,"velocity":0.3858267716535433},{"duration":0.33333299999999966,"midi":45,"time":27.666639,"velocity":0.3858267716535433},{"duration":0.1666665000000016,"midi":52,"time":27.833305499999998,"velocity":0.3858267716535433},{"duration":1.3333319999999986,"midi":66,"time":27.999972,"velocity":0.3858267716535433},{"duration":1.3333319999999986,"midi":63,"time":27.999972,"velocity":0.3858267716535433},{"duration":0.49999950000000126,"midi":47,"time":27.999972,"velocity":0.3858267716535433},{"duration":0.6666659999999993,"midi":47,"time":27.999972,"velocity":0.3858267716535433},{"duration":1.3333319999999986,"midi":59,"time":27.999972,"velocity":0.3858267716535433},{"duration":0.33333299999999966,"midi":47,"time":28.4999715,"velocity":0.3858267716535433},{"duration":0.6666659999999993,"midi":47,"time":28.666638,"velocity":0.3858267716535433},{"duration":0.16666649999999805,"midi":45,"time":28.8333045,"velocity":0.3858267716535433},{"duration":0.1666665000000016,"midi":44,"time":28.999971,"velocity":0.3858267716535433},{"duration":0.16666649999999805,"midi":40,"time":29.1666375,"velocity":0.3858267716535433},{"duration":0.49999950000000126,"midi":42,"time":29.333304,"velocity":0.3858267716535433},{"duration":1.3333320000000022,"midi":61,"time":29.333304,"velocity":0.3858267716535433},{"duration":1.3333320000000022,"midi":54,"time":29.333304,"velocity":0.3858267716535433},{"duration":0.6666659999999993,"midi":42,"time":29.333304,"velocity":0.3858267716535433},{"duration":1.3333320000000022,"midi":57,"time":29.333304,"velocity":0.3858267716535433},{"duration":0.33333299999999966,"midi":42,"time":29.8333035,"velocity":0.3858267716535433},{"duration":0.49999950000000126,"midi":42,"time":29.999969999999998,"velocity":0.3858267716535433},{"duration":0.1666665000000016,"midi":37,"time":30.1666365,"velocity":0.3858267716535433},{"duration":0.33333299999999966,"midi":42,"time":30.333303,"velocity":0.3858267716535433},{"duration":0.1666665000000016,"midi":37,"time":30.4999695,"velocity":0.3858267716535433},{"duration":0.4999994999999977,"midi":44,"time":30.666636,"velocity":0.3858267716535433},{"duration":1.3333319999999986,"midi":59,"time":30.666636,"velocity":0.3858267716535433},{"duration":1.3333319999999986,"midi":56,"time":30.666636,"velocity":0.3858267716535433},{"duration":0.6666659999999993,"midi":44,"time":30.666636,"velocity":0.3858267716535433},{"duration":1.3333319999999986,"midi":63,"time":30.666636,"velocity":0.3858267716535433},{"duration":0.33333299999999966,"midi":44,"time":31.166635499999998,"velocity":0.3858267716535433},{"duration":0.4999994999999977,"midi":44,"time":31.333302,"velocity":0.3858267716535433},{"duration":0.1666665000000016,"midi":42,"time":31.499968499999998,"velocity":0.3858267716535433},{"duration":0.33333299999999966,"midi":44,"time":31.666635,"velocity":0.3858267716535433},{"duration":0.1666665000000016,"midi":39,"time":31.833301499999997,"velocity":0.3858267716535433},{"duration":0.4999994999999977,"midi":45,"time":31.999968,"velocity":0.3858267716535433},{"duration":1.3333320000000022,"midi":57,"time":31.999968,"velocity":0.3858267716535433},{"duration":1.3333320000000022,"midi":61,"time":31.999968,"velocity":0.3858267716535433},{"duration":0.6666660000000029,"midi":45,"time":31.999968,"velocity":0.3858267716535433},{"duration":1.3333320000000022,"midi":64,"time":31.999968,"velocity":0.3858267716535433},{"duration":0.3333330000000032,"midi":45,"time":32.4999675,"velocity":0.3858267716535433},{"duration":0.6666659999999993,"midi":45,"time":32.666634,"velocity":0.3858267716535433},{"duration":0.16666649999999805,"midi":44,"time":32.8333005,"velocity":0.3858267716535433},{"duration":0.16666649999999805,"midi":42,"time":32.999967,"velocity":0.3858267716535433},{"duration":0.16666650000000516,"midi":45,"time":33.166633499999996,"velocity":0.3858267716535433},{"duration":1.3333319999999986,"midi":63,"time":33.3333,"velocity":0.3858267716535433},{"duration":0.49999950000000126,"midi":47,"time":33.3333,"velocity":0.3858267716535433},{"duration":1.3333319999999986,"midi":66,"time":33.3333,"velocity":0.3858267716535433},{"duration":1.3333319999999986,"midi":59,"time":33.3333,"velocity":0.3858267716535433},{"duration":0.6666659999999993,"midi":47,"time":33.3333,"velocity":0.3858267716535433},{"duration":0.3333329999999961,"midi":47,"time":33.8332995,"velocity":0.3858267716535433},{"duration":0.6666659999999993,"midi":47,"time":33.999966,"velocity":0.3858267716535433},{"duration":0.16666649999999805,"midi":44,"time":34.1666325,"velocity":0.3858267716535433},{"duration":0.16666650000000516,"midi":45,"time":34.333299,"velocity":0.3858267716535433},{"duration":0.16666649999999805,"midi":44,"time":34.4999655,"velocity":0.3858267716535433},{"duration":1.3333319999999986,"midi":49,"time":34.666632,"velocity":0.3858267716535433},{"duration":1.3333319999999986,"midi":42,"time":35.999964,"velocity":0.3858267716535433},{"duration":1.3333319999999986,"midi":44,"time":37.333296,"velocity":0.3858267716535433},{"duration":0.16666650000000516,"midi":56,"time":37.333296,"velocity":0.3858267716535433},{"duration":0.16666649999999805,"midi":59,"time":37.4999625,"velocity":0.3858267716535433},{"duration":0.16666649999999805,"midi":56,"time":37.666629,"velocity":0.3858267716535433},{"duration":0.3333330000000032,"midi":63,"time":37.8332955,"velocity":0.3858267716535433},{"duration":0.16666649999999805,"midi":56,"time":38.1666285,"velocity":0.3858267716535433},{"duration":0.16666649999999805,"midi":59,"time":38.333295,"velocity":0.3858267716535433},{"duration":0.16666649999999805,"midi":63,"time":38.4999615,"velocity":0.3858267716535433},{"duration":0.16666650000000516,"midi":64,"time":38.666627999999996,"velocity":0.3858267716535433},{"duration":0.6666660000000064,"midi":45,"time":38.666627999999996,"velocity":0.3858267716535433},{"duration":0.16666649999999805,"midi":63,"time":38.8332945,"velocity":0.3858267716535433},{"duration":0.16666649999999805,"midi":61,"time":38.999961,"velocity":0.3858267716535433},{"duration":0.16666650000000516,"midi":59,"time":39.1666275,"velocity":0.3858267716535433},{"duration":0.6666659999999993,"midi":47,"time":39.333294,"velocity":0.3858267716535433},{"duration":0.16666649999999805,"midi":63,"time":39.333294,"velocity":0.3858267716535433},{"duration":0.16666649999999805,"midi":61,"time":39.4999605,"velocity":0.3858267716535433},{"duration":0.16666649999999805,"midi":59,"time":39.666627,"velocity":0.3858267716535433},{"duration":0.16666650000000516,"midi":56,"time":39.833293499999996,"velocity":0.3858267716535433},{"duration":0.16666649999999805,"midi":49,"time":39.99996,"velocity":0.3858267716535433},{"duration":1.1666655000000006,"midi":49,"time":39.99996,"velocity":0.3858267716535433},{"duration":0.16666649999999805,"midi":56,"time":40.1666265,"velocity":0.3858267716535433},{"duration":0.16666649999999805,"midi":61,"time":40.333293,"velocity":0.3858267716535433},{"duration":0.16666650000000516,"midi":61,"time":40.499959499999996,"velocity":0.3858267716535433},{"duration":0.16666649999999805,"midi":61,"time":40.666626,"velocity":0.3858267716535433},{"duration":0.16666649999999805,"midi":56,"time":40.8332925,"velocity":0.3858267716535433},{"duration":0.3333330000000032,"midi":49,"time":40.999959,"velocity":0.3858267716535433},{"duration":0.16666649999999805,"midi":49,"time":41.1666255,"velocity":0.3858267716535433},{"duration":0.16666649999999805,"midi":54,"time":41.333292,"velocity":0.3858267716535433},{"duration":1.3333319999999986,"midi":42,"time":41.333292,"velocity":0.3858267716535433},{"duration":0.16666649999999805,"midi":61,"time":41.4999585,"velocity":0.3858267716535433},{"duration":0.16666650000000516,"midi":61,"time":41.666624999999996,"velocity":0.3858267716535433},{"duration":0.16666649999999805,"midi":57,"time":41.8332915,"velocity":0.3858267716535433},{"duration":0.16666649999999805,"midi":49,"time":41.999958,"velocity":0.3858267716535433},{"duration":0.16666649999999805,"midi":54,"time":42.1666245,"velocity":0.3858267716535433},{"duration":0.16666650000000516,"midi":57,"time":42.333290999999996,"velocity":0.3858267716535433},{"duration":0.16666649999999805,"midi":61,"time":42.4999575,"velocity":0.3858267716535433},{"duration":1.3333319999999986,"midi":44,"time":42.666624,"velocity":0.3858267716535433},{"duration":0.16666649999999805,"midi":59,"time":42.666624,"velocity":0.3858267716535433},{"duration":0.16666650000000516,"midi":63,"time":42.8332905,"velocity":0.3858267716535433},{"duration":0.16666649999999805,"midi":68,"time":42.999957,"velocity":0.3858267716535433},{"duration":0.3333329999999961,"midi":71,"time":43.1666235,"velocity":0.3858267716535433},{"duration":0.16666650000000516,"midi":68,"time":43.499956499999996,"velocity":0.3858267716535433},{"duration":0.16666649999999805,"midi":71,"time":43.666623,"velocity":0.3858267716535433},{"duration":0.16666649999999805,"midi":75,"time":43.8332895,"velocity":0.3858267716535433},{"duration":0.6666659999999993,"midi":45,"time":43.999956,"velocity":0.3858267716535433},{"duration":0.16666649999999805,"midi":73,"time":43.999956,"velocity":0.3858267716535433},{"duration":0.16666650000000516,"midi":68,"time":44.166622499999995,"velocity":0.3858267716535433},{"duration":0.16666649999999805,"midi":64,"time":44.333289,"velocity":0.3858267716535433},{"duration":0.16666649999999805,"midi":61,"time":44.4999555,"velocity":0.3858267716535433},{"duration":0.16666650000000516,"midi":66,"time":44.666622,"velocity":0.3858267716535433},{"duration":0.3333330000000032,"midi":47,"time":44.666622,"velocity":0.3858267716535433},{"duration":0.16666649999999805,"midi":63,"time":44.8332885,"velocity":0.3858267716535433},{"duration":0.3333329999999961,"midi":49,"time":44.999955,"velocity":0.3858267716535433},{"duration":0.16666649999999805,"midi":68,"time":44.999955,"velocity":0.3858267716535433},{"duration":0.16666649999999805,"midi":64,"time":45.1666215,"velocity":0.3858267716535433},{"duration":2.6666640000000044,"midi":47,"time":45.333287999999996,"velocity":0.3858267716535433},{"duration":0.6666659999999993,"midi":69,"time":45.333287999999996,"velocity":0.3858267716535433},{"duration":0.16666650000000516,"midi":69,"time":45.999953999999995,"velocity":0.3858267716535433},{"duration":0.16666649999999805,"midi":68,"time":46.1666205,"velocity":0.3858267716535433},{"duration":0.16666649999999805,"midi":69,"time":46.333287,"velocity":0.3858267716535433},{"duration":0.16666650000000516,"midi":71,"time":46.4999535,"velocity":0.3858267716535433},{"duration":0.49999949999999416,"midi":73,"time":46.66662,"velocity":0.3858267716535433},{"duration":0.49999950000000126,"midi":71,"time":47.166619499999996,"velocity":0.3858267716535433},{"duration":0.3333330000000032,"midi":69,"time":47.666619,"velocity":0.3858267716535433},{"duration":0.16666649999999805,"midi":68,"time":47.999952,"velocity":0.3858267716535433},{"duration":1.3333319999999986,"midi":45,"time":47.999952,"velocity":0.3858267716535433},{"duration":0.16666649999999805,"midi":69,"time":48.1666185,"velocity":0.3858267716535433},{"duration":0.16666650000000516,"midi":68,"time":48.333285,"velocity":0.3858267716535433},{"duration":0.3333329999999961,"midi":64,"time":48.4999515,"velocity":0.3858267716535433},{"duration":0.16666649999999805,"midi":64,"time":48.8332845,"velocity":0.3858267716535433},{"duration":0.16666650000000516,"midi":66,"time":48.999950999999996,"velocity":0.3858267716535433},{"duration":0.16666649999999805,"midi":68,"time":49.1666175,"velocity":0.3858267716535433},{"duration":0.6666659999999993,"midi":66,"time":49.333284,"velocity":0.3858267716535433},{"duration":1.3333319999999986,"midi":44,"time":49.333284,"velocity":0.3858267716535433},{"duration":0.3333330000000032,"midi":63,"time":49.99995,"velocity":0.3858267716535433},{"duration":0.3333329999999961,"midi":68,"time":50.333283,"velocity":0.3858267716535433},{"duration":2.6666640000000044,"midi":42,"time":50.666616,"velocity":0.3858267716535433},{"duration":0.16666649999999805,"midi":56,"time":50.666616,"velocity":0.3858267716535433},{"duration":0.16666650000000516,"midi":54,"time":50.833282499999996,"velocity":0.3858267716535433},{"duration":0.16666649999999805,"midi":61,"time":50.999949,"velocity":0.3858267716535433},{"duration":0.16666649999999805,"midi":63,"time":51.1666155,"velocity":0.3858267716535433},{"duration":0.3333330000000032,"midi":64,"time":51.333282,"velocity":0.3858267716535433},{"duration":0.16666649999999805,"midi":63,"time":51.666615,"velocity":0.3858267716535433},{"duration":0.16666649999999805,"midi":61,"time":51.8332815,"velocity":0.3858267716535433},{"duration":0.16666650000000516,"midi":68,"time":51.999947999999996,"velocity":0.3858267716535433},{"duration":0.16666649999999805,"midi":66,"time":52.1666145,"velocity":0.3858267716535433},{"duration":0.16666649999999805,"midi":64,"time":52.333281,"velocity":0.3858267716535433},{"duration":0.16666649999999805,"midi":63,"time":52.4999475,"velocity":0.3858267716535433},{"duration":0.16666650000000516,"midi":61,"time":52.666613999999996,"velocity":0.3858267716535433},{"duration":0.16666649999999805,"midi":63,"time":52.8332805,"velocity":0.3858267716535433},{"duration":0.16666649999999805,"midi":64,"time":52.999947,"velocity":0.3858267716535433},{"duration":0.16666650000000516,"midi":68,"time":53.1666135,"velocity":0.3858267716535433},{"duration":0.3333329999999961,"midi":70,"time":53.33328,"velocity":0.3858267716535433},{"duration":1.3333319999999986,"midi":39,"time":53.33328,"velocity":0.3858267716535433},{"duration":0.3333330000000032,"midi":66,"time":53.666613,"velocity":0.3858267716535433},{"duration":0.3333329999999961,"midi":63,"time":53.999946,"velocity":0.3858267716535433},{"duration":0.3333330000000032,"midi":58,"time":54.333279,"velocity":0.3858267716535433},{"duration":1.3333319999999986,"midi":44,"time":54.666612,"velocity":0.3858267716535433},{"duration":0.16666649999999805,"midi":57,"time":54.666612,"velocity":0.3858267716535433},{"duration":0.16666649999999805,"midi":60,"time":54.8332785,"velocity":0.3858267716535433},{"duration":0.16666650000000516,"midi":63,"time":54.999945,"velocity":0.3858267716535433},{"duration":0.16666649999999805,"midi":66,"time":55.1666115,"velocity":0.3858267716535433},{"duration":0.16666649999999805,"midi":69,"time":55.333278,"velocity":0.3858267716535433},{"duration":0.16666649999999805,"midi":72,"time":55.4999445,"velocity":0.3858267716535433},{"duration":0.16666650000000516,"midi":75,"time":55.666610999999996,"velocity":0.3858267716535433},{"duration":0.16666649999999805,"midi":78,"time":55.8332775,"velocity":0.3858267716535433},{"duration":1.3333319999999986,"midi":73,"time":55.999944,"velocity":0.3858267716535433},{"duration":1.3333319999999986,"midi":37,"time":55.999944,"velocity":0.3858267716535433},{"duration":0.3333329999999961,"midi":49,"time":55.999944,"velocity":0.3858267716535433},{"duration":0.16666650000000516,"midi":49,"time":56.333276999999995,"velocity":0.3858267716535433},{"duration":0.16666649999999805,"midi":51,"time":56.4999435,"velocity":0.3858267716535433},{"duration":0.3333330000000032,"midi":52,"time":56.66661,"velocity":0.3858267716535433},{"duration":0.3333329999999961,"midi":56,"time":56.999943,"velocity":0.3858267716535433},{"duration":1.3333319999999986,"midi":44,"time":57.333276,"velocity":0.3858267716535433},{"duration":0.3333330000000032,"midi":59,"time":57.333276,"velocity":0.3858267716535433},{"duration":0.3333329999999961,"midi":56,"time":57.666609,"velocity":0.3858267716535433},{"duration":0.3333330000000032,"midi":51,"time":57.999942,"velocity":0.3858267716535433},{"duration":0.3333329999999961,"midi":56,"time":58.333275,"velocity":0.3858267716535433},{"duration":0.3333330000000032,"midi":61,"time":58.666608,"velocity":0.3858267716535433},{"duration":1.3333319999999986,"midi":45,"time":58.666608,"velocity":0.3858267716535433},{"duration":0.3333329999999961,"midi":56,"time":58.999941,"velocity":0.3858267716535433},{"duration":0.3333330000000032,"midi":52,"time":59.333273999999996,"velocity":0.3858267716535433},{"duration":0.3333329999999961,"midi":56,"time":59.666607,"velocity":0.3858267716535433},{"duration":1.3333320000000057,"midi":47,"time":59.999939999999995,"velocity":0.3858267716535433},{"duration":0.16666650000000516,"midi":59,"time":59.999939999999995,"velocity":0.3858267716535433},{"duration":0.16666649999999805,"midi":61,"time":60.1666065,"velocity":0.3858267716535433},{"duration":0.16666649999999805,"midi":59,"time":60.333273,"velocity":0.3858267716535433},{"duration":0.16666650000000516,"midi":54,"time":60.499939499999996,"velocity":0.3858267716535433},{"duration":0.16666649999999805,"midi":59,"time":60.666606,"velocity":0.3858267716535433},{"duration":0.16666649999999805,"midi":61,"time":60.8332725,"velocity":0.3858267716535433},{"duration":0.16666649999999805,"midi":66,"time":60.999939,"velocity":0.3858267716535433},{"duration":0.16666650000000516,"midi":63,"time":61.166605499999996,"velocity":0.3858267716535433},{"duration":0.3333329999999961,"midi":64,"time":61.333272,"velocity":0.3858267716535433},{"duration":1.3333319999999986,"midi":42,"time":61.333272,"velocity":0.3858267716535433},{"duration":0.16666649999999805,"midi":64,"time":61.666605,"velocity":0.3858267716535433},{"duration":0.16666650000000516,"midi":63,"time":61.833271499999995,"velocity":0.3858267716535433},{"duration":0.3333329999999961,"midi":61,"time":61.999938,"velocity":0.3858267716535433},{"duration":0.3333330000000032,"midi":57,"time":62.333270999999996,"velocity":0.3858267716535433},{"duration":0.3333329999999961,"midi":59,"time":62.666604,"velocity":0.3858267716535433},{"duration":1.3333319999999986,"midi":44,"time":62.666604,"velocity":0.3858267716535433},{"duration":0.3333330000000032,"midi":61,"time":62.999936999999996,"velocity":0.3858267716535433},{"duration":0.3333329999999961,"midi":63,"time":63.33327,"velocity":0.3858267716535433},{"duration":0.3333330000000032,"midi":66,"time":63.666602999999995,"velocity":0.3858267716535433},{"duration":1.3333320000000057,"midi":45,"time":63.999936,"velocity":0.3858267716535433},{"duration":0.3333330000000032,"midi":64,"time":63.999936,"velocity":0.3858267716535433},{"duration":0.3333329999999961,"midi":63,"time":64.333269,"velocity":0.3858267716535433},{"duration":0.3333329999999961,"midi":61,"time":64.666602,"velocity":0.3858267716535433},{"duration":0.3333330000000103,"midi":64,"time":64.999935,"velocity":0.3858267716535433},{"duration":0.16666649999999095,"midi":63,"time":65.333268,"velocity":0.3858267716535433},{"duration":0.6666659999999922,"midi":47,"time":65.333268,"velocity":0.3858267716535433},{"duration":0.16666650000000516,"midi":64,"time":65.4999345,"velocity":0.3858267716535433},{"duration":0.16666650000000516,"midi":63,"time":65.666601,"velocity":0.3858267716535433},{"duration":0.16666649999999095,"midi":61,"time":65.8332675,"velocity":0.3858267716535433},{"duration":0.16666650000000516,"midi":60,"time":65.999934,"velocity":0.3858267716535433},{"duration":0.6666660000000064,"midi":48,"time":65.999934,"velocity":0.3858267716535433},{"duration":0.16666649999999095,"midi":56,"time":66.1666005,"velocity":0.3858267716535433},{"duration":0.16666650000000516,"midi":63,"time":66.33326699999999,"velocity":0.3858267716535433},{"duration":0.16666650000000516,"midi":60,"time":66.4999335,"velocity":0.3858267716535433},{"duration":1.3333319999999986,"midi":49,"time":66.6666,"velocity":0.3858267716535433},{"duration":0.3333329999999961,"midi":61,"time":66.6666,"velocity":0.3858267716535433},{"duration":0.16666650000000516,"midi":61,"time":66.999933,"velocity":0.3858267716535433},{"duration":0.16666649999999095,"midi":63,"time":67.1665995,"velocity":0.3858267716535433},{"duration":0.3333330000000103,"midi":64,"time":67.333266,"velocity":0.3858267716535433},{"duration":0.3333329999999961,"midi":68,"time":67.666599,"velocity":0.3858267716535433},{"duration":1.3333319999999986,"midi":47,"time":67.999932,"velocity":0.3858267716535433},{"duration":0.3333329999999961,"midi":71,"time":67.999932,"velocity":0.3858267716535433},{"duration":0.3333329999999961,"midi":68,"time":68.333265,"velocity":0.3858267716535433},{"duration":0.3333330000000103,"midi":63,"time":68.666598,"velocity":0.3858267716535433},{"duration":0.3333329999999961,"midi":68,"time":68.999931,"velocity":0.3858267716535433},{"duration":1.3333319999999986,"midi":46,"time":69.333264,"velocity":0.3858267716535433},{"duration":0.3333329999999961,"midi":70,"time":69.333264,"velocity":0.3858267716535433},{"duration":0.3333329999999961,"midi":68,"time":69.666597,"velocity":0.3858267716535433},{"duration":0.3333330000000103,"midi":66,"time":69.99992999999999,"velocity":0.3858267716535433},{"duration":0.3333329999999961,"midi":61,"time":70.333263,"velocity":0.3858267716535433},{"duration":0.16666650000000516,"midi":58,"time":70.666596,"velocity":0.3858267716535433},{"duration":0.6666660000000064,"midi":42,"time":70.666596,"velocity":0.3858267716535433},{"duration":0.16666649999999095,"midi":59,"time":70.8332625,"velocity":0.3858267716535433},{"duration":0.16666650000000516,"midi":58,"time":70.999929,"velocity":0.3858267716535433},{"duration":0.16666650000000516,"midi":61,"time":71.1665955,"velocity":0.3858267716535433},{"duration":0.16666649999999095,"midi":66,"time":71.333262,"velocity":0.3858267716535433},{"duration":0.6666659999999922,"midi":40,"time":71.333262,"velocity":0.3858267716535433},{"duration":0.16666650000000516,"midi":68,"time":71.4999285,"velocity":0.3858267716535433},{"duration":0.16666649999999095,"midi":70,"time":71.666595,"velocity":0.3858267716535433},{"duration":0.16666650000000516,"midi":71,"time":71.83326149999999,"velocity":0.3858267716535433},{"duration":0.3333329999999961,"midi":73,"time":71.999928,"velocity":0.3858267716535433},{"duration":1.3333319999999986,"midi":38,"time":71.999928,"velocity":0.3858267716535433},{"duration":0.16666650000000516,"midi":73,"time":72.333261,"velocity":0.3858267716535433},{"duration":0.16666650000000516,"midi":71,"time":72.4999275,"velocity":0.3858267716535433},{"duration":0.3333329999999961,"midi":69,"time":72.666594,"velocity":0.3858267716535433},{"duration":0.3333329999999961,"midi":66,"time":72.999927,"velocity":0.3858267716535433},{"duration":1.3333319999999986,"midi":45,"time":73.33326,"velocity":0.3858267716535433},{"duration":0.3333329999999961,"midi":68,"time":73.33326,"velocity":0.3858267716535433},{"duration":0.3333330000000103,"midi":64,"time":73.66659299999999,"velocity":0.3858267716535433},{"duration":0.3333329999999961,"midi":68,"time":73.999926,"velocity":0.3858267716535433},{"duration":0.3333329999999961,"midi":73,"time":74.333259,"velocity":0.3858267716535433},{"duration":1.3333319999999986,"midi":47,"time":74.666592,"velocity":0.3858267716535433},{"duration":0.3333330000000103,"midi":71,"time":74.666592,"velocity":0.3858267716535433},{"duration":0.3333329999999961,"midi":66,"time":74.999925,"velocity":0.3858267716535433},{"duration":0.3333329999999961,"midi":71,"time":75.333258,"velocity":0.3858267716535433},{"duration":0.3333329999999961,"midi":75,"time":75.666591,"velocity":0.3858267716535433},{"duration":0.6666660000000064,"midi":47,"time":75.999924,"velocity":0.3858267716535433},{"duration":0.6666660000000064,"midi":71,"time":75.999924,"velocity":0.3858267716535433},{"duration":0.6666659999999922,"midi":68,"time":76.66659,"velocity":0.3858267716535433},{"duration":0.6666659999999922,"midi":44,"time":76.66659,"velocity":0.3858267716535433},{"duration":2.6666640000000115,"midi":37,"time":77.33325599999999,"velocity":0.3858267716535433},{"duration":2.6666639999999973,"midi":35,"time":79.99992,"velocity":0.3858267716535433},{"duration":2.6666639999999973,"midi":37,"time":82.666584,"velocity":0.3858267716535433},{"duration":2.6666639999999973,"midi":35,"time":85.333248,"velocity":0.3858267716535433},{"duration":2.6666639999999973,"midi":61,"time":87.999912,"velocity":0.3858267716535433},{"duration":2.6666639999999973,"midi":64,"time":87.999912,"velocity":0.3858267716535433},{"duration":1.3333319999999986,"midi":68,"time":87.999912,"velocity":0.3858267716535433},{"duration":1.3333319999999986,"midi":69,"time":89.333244,"velocity":0.3858267716535433},{"duration":0.16666650000000516,"midi":56,"time":90.66657599999999,"velocity":0.3858267716535433},{"duration":1.3333319999999986,"midi":66,"time":90.66657599999999,"velocity":0.3858267716535433},{"duration":0.8333325000000116,"midi":63,"time":90.66657599999999,"velocity":0.3858267716535433},{"duration":1.3333319999999986,"midi":71,"time":90.66657599999999,"velocity":0.3858267716535433},{"duration":0.16666650000000516,"midi":59,"time":90.8332425,"velocity":0.3858267716535433},{"duration":0.16666649999999095,"midi":56,"time":90.999909,"velocity":0.3858267716535433},{"duration":0.8333324999999974,"midi":63,"time":91.1665755,"velocity":0.3858267716535433},{"duration":0.16666649999999095,"midi":56,"time":91.4999085,"velocity":0.3858267716535433},{"duration":0.16666650000000516,"midi":59,"time":91.666575,"velocity":0.3858267716535433},{"duration":0.16666649999999095,"midi":63,"time":91.8332415,"velocity":0.3858267716535433},{"duration":0.16666650000000516,"midi":64,"time":91.99990799999999,"velocity":0.3858267716535433},{"duration":0.6666660000000064,"midi":69,"time":91.99990799999999,"velocity":0.3858267716535433},{"duration":0.6666660000000064,"midi":64,"time":91.99990799999999,"velocity":0.3858267716535433},{"duration":0.49999950000000126,"midi":61,"time":91.99990799999999,"velocity":0.3858267716535433},{"duration":0.16666650000000516,"midi":63,"time":92.1665745,"velocity":0.3858267716535433},{"duration":0.3333329999999961,"midi":61,"time":92.333241,"velocity":0.3858267716535433},{"duration":0.16666650000000516,"midi":59,"time":92.49990749999999,"velocity":0.3858267716535433},{"duration":0.16666650000000516,"midi":63,"time":92.666574,"velocity":0.3858267716535433},{"duration":0.6666660000000064,"midi":66,"time":92.666574,"velocity":0.3858267716535433},{"duration":0.6666660000000064,"midi":63,"time":92.666574,"velocity":0.3858267716535433},{"duration":0.6666660000000064,"midi":71,"time":92.666574,"velocity":0.3858267716535433},{"duration":0.16666649999999095,"midi":61,"time":92.8332405,"velocity":0.3858267716535433},{"duration":0.16666650000000516,"midi":59,"time":92.999907,"velocity":0.3858267716535433},{"duration":0.16666650000000516,"midi":56,"time":93.1665735,"velocity":0.3858267716535433},{"duration":0.16666649999999095,"midi":49,"time":93.33324,"velocity":0.3858267716535433},{"duration":1.3333319999999986,"midi":68,"time":93.33324,"velocity":0.3858267716535433},{"duration":2.6666639999999973,"midi":64,"time":93.33324,"velocity":0.3858267716535433},{"duration":0.49999949999998705,"midi":61,"time":93.33324,"velocity":0.3858267716535433},{"duration":0.16666650000000516,"midi":56,"time":93.4999065,"velocity":0.3858267716535433},{"duration":0.3333329999999961,"midi":61,"time":93.666573,"velocity":0.3858267716535433},{"duration":0.3333330000000103,"midi":61,"time":93.83323949999999,"velocity":0.3858267716535433},{"duration":0.9999990000000025,"midi":61,"time":93.999906,"velocity":0.3858267716535433},{"duration":0.16666649999999095,"midi":56,"time":94.1665725,"velocity":0.3858267716535433},{"duration":0.16666650000000516,"midi":49,"time":94.33323899999999,"velocity":0.3858267716535433},{"duration":0.16666650000000516,"midi":49,"time":94.4999055,"velocity":0.3858267716535433},{"duration":0.16666649999999095,"midi":54,"time":94.666572,"velocity":0.3858267716535433},{"duration":1.3333319999999986,"midi":69,"time":94.666572,"velocity":0.3858267716535433},{"duration":0.3333330000000103,"midi":61,"time":94.8332385,"velocity":0.3858267716535433},{"duration":0.9999990000000025,"midi":61,"time":94.999905,"velocity":0.3858267716535433},{"duration":0.16666649999999095,"midi":57,"time":95.1665715,"velocity":0.3858267716535433},{"duration":0.16666650000000516,"midi":49,"time":95.333238,"velocity":0.3858267716535433},{"duration":0.16666649999999095,"midi":54,"time":95.4999045,"velocity":0.3858267716535433},{"duration":0.16666650000000516,"midi":57,"time":95.66657099999999,"velocity":0.3858267716535433},{"duration":0.16666650000000516,"midi":61,"time":95.8332375,"velocity":0.3858267716535433},{"duration":0.16666649999999095,"midi":59,"time":95.999904,"velocity":0.3858267716535433},{"duration":0.3333329999999961,"midi":63,"time":95.999904,"velocity":0.3858267716535433},{"duration":0.8333324999999974,"midi":71,"time":95.999904,"velocity":0.3858267716535433},{"duration":1.3333319999999986,"midi":66,"time":95.999904,"velocity":0.3858267716535433},{"duration":1.1666655000000077,"midi":63,"time":96.16657049999999,"velocity":0.3858267716535433},{"duration":0.16666650000000516,"midi":68,"time":96.333237,"velocity":0.3858267716535433},{"duration":0.6666659999999922,"midi":71,"time":96.4999035,"velocity":0.3858267716535433},{"duration":0.16666650000000516,"midi":68,"time":96.8332365,"velocity":0.3858267716535433},{"duration":0.3333329999999961,"midi":71,"time":96.999903,"velocity":0.3858267716535433},{"duration":0.16666650000000516,"midi":75,"time":97.1665695,"velocity":0.3858267716535433},{"duration":0.6666659999999922,"midi":61,"time":97.333236,"velocity":0.3858267716535433},{"duration":0.49999950000000126,"midi":64,"time":97.333236,"velocity":0.3858267716535433},{"duration":0.16666649999999095,"midi":73,"time":97.333236,"velocity":0.3858267716535433},{"duration":0.6666659999999922,"midi":69,"time":97.333236,"velocity":0.3858267716535433},{"duration":0.16666650000000516,"midi":68,"time":97.49990249999999,"velocity":0.3858267716535433},{"duration":0.3333329999999961,"midi":64,"time":97.666569,"velocity":0.3858267716535433},{"duration":0.16666649999999095,"midi":61,"time":97.8332355,"velocity":0.3858267716535433},{"duration":0.16666650000000516,"midi":66,"time":97.99990199999999,"velocity":0.3858267716535433},{"duration":0.6666660000000064,"midi":66,"time":97.99990199999999,"velocity":0.3858267716535433},{"duration":0.6666660000000064,"midi":71,"time":97.99990199999999,"velocity":0.3858267716535433},{"duration":0.3333330000000103,"midi":63,"time":97.99990199999999,"velocity":0.3858267716535433},{"duration":0.49999950000000126,"midi":63,"time":98.1665685,"velocity":0.3858267716535433},{"duration":0.16666649999999095,"midi":68,"time":98.333235,"velocity":0.3858267716535433},{"duration":0.16666650000000516,"midi":64,"time":98.49990149999999,"velocity":0.3858267716535433},{"duration":2.6666639999999973,"midi":50,"time":98.666568,"velocity":0.3858267716535433},{"duration":0.3333329999999961,"midi":69,"time":98.666568,"velocity":0.3858267716535433},{"duration":0.3333329999999961,"midi":64,"time":98.666568,"velocity":0.3858267716535433},{"duration":0.3333329999999961,"midi":73,"time":98.666568,"velocity":0.3858267716535433},{"duration":0.6666659999999922,"midi":69,"time":98.666568,"velocity":0.3858267716535433},{"duration":0.3333329999999961,"midi":69,"time":98.999901,"velocity":0.3858267716535433},{"duration":0.3333329999999961,"midi":64,"time":98.999901,"velocity":0.3858267716535433},{"duration":0.3333329999999961,"midi":73,"time":98.999901,"velocity":0.3858267716535433},{"duration":0.3333330000000103,"midi":73,"time":99.33323399999999,"velocity":0.3858267716535433},{"duration":0.16666650000000516,"midi":69,"time":99.33323399999999,"velocity":0.3858267716535433},{"duration":0.3333330000000103,"midi":69,"time":99.33323399999999,"velocity":0.3858267716535433},{"duration":0.3333330000000103,"midi":64,"time":99.33323399999999,"velocity":0.3858267716535433},{"duration":0.16666650000000516,"midi":68,"time":99.4999005,"velocity":0.3858267716535433},{"duration":0.16666649999999095,"midi":69,"time":99.666567,"velocity":0.3858267716535433},{"duration":0.3333329999999961,"midi":73,"time":99.666567,"velocity":0.3858267716535433},{"duration":0.3333329999999961,"midi":69,"time":99.666567,"velocity":0.3858267716535433},{"duration":0.3333329999999961,"midi":64,"time":99.666567,"velocity":0.3858267716535433},{"duration":0.16666650000000516,"midi":71,"time":99.83323349999999,"velocity":0.3858267716535433},{"duration":0.3333329999999961,"midi":69,"time":99.9999,"velocity":0.3858267716535433},{"duration":0.3333329999999961,"midi":73,"time":99.9999,"velocity":0.3858267716535433},{"duration":0.49999950000000126,"midi":73,"time":99.9999,"velocity":0.3858267716535433},{"duration":0.3333329999999961,"midi":64,"time":99.9999,"velocity":0.3858267716535433},{"duration":0.3333330000000103,"midi":64,"time":100.33323299999999,"velocity":0.3858267716535433},{"duration":0.3333330000000103,"midi":69,"time":100.33323299999999,"velocity":0.3858267716535433},{"duration":0.3333330000000103,"midi":73,"time":100.33323299999999,"velocity":0.3858267716535433},{"duration":0.49999950000000126,"midi":71,"time":100.4998995,"velocity":0.3858267716535433},{"duration":0.3333329999999961,"midi":69,"time":100.666566,"velocity":0.3858267716535433},{"duration":0.3333329999999961,"midi":73,"time":100.666566,"velocity":0.3858267716535433},{"duration":0.3333329999999961,"midi":64,"time":100.666566,"velocity":0.3858267716535433},{"duration":0.3333329999999961,"midi":69,"time":100.999899,"velocity":0.3858267716535433},{"duration":0.3333329999999961,"midi":69,"time":100.999899,"velocity":0.3858267716535433},{"duration":0.3333329999999961,"midi":64,"time":100.999899,"velocity":0.3858267716535433},{"duration":0.3333329999999961,"midi":73,"time":100.999899,"velocity":0.3858267716535433},{"duration":1.3333319999999986,"midi":49,"time":101.333232,"velocity":0.3858267716535433},{"duration":0.16666650000000516,"midi":68,"time":101.333232,"velocity":0.3858267716535433},{"duration":0.3333329999999961,"midi":68,"time":101.333232,"velocity":0.3858267716535433},{"duration":0.3333329999999961,"midi":64,"time":101.333232,"velocity":0.3858267716535433},{"duration":0.3333329999999961,"midi":73,"time":101.333232,"velocity":0.3858267716535433},{"duration":0.16666649999999095,"midi":69,"time":101.4998985,"velocity":0.3858267716535433},{"duration":0.16666650000000516,"midi":68,"time":101.66656499999999,"velocity":0.3858267716535433},{"duration":0.3333330000000103,"midi":64,"time":101.66656499999999,"velocity":0.3858267716535433},{"duration":0.3333330000000103,"midi":68,"time":101.66656499999999,"velocity":0.3858267716535433},{"duration":0.3333330000000103,"midi":73,"time":101.66656499999999,"velocity":0.3858267716535433},{"duration":0.3333329999999961,"midi":64,"time":101.8332315,"velocity":0.3858267716535433},{"duration":0.3333329999999961,"midi":68,"time":101.999898,"velocity":0.3858267716535433},{"duration":0.3333329999999961,"midi":73,"time":101.999898,"velocity":0.3858267716535433},{"duration":0.3333329999999961,"midi":64,"time":101.999898,"velocity":0.3858267716535433},{"duration":0.16666650000000516,"midi":64,"time":102.16656449999999,"velocity":0.3858267716535433},{"duration":0.3333329999999961,"midi":73,"time":102.333231,"velocity":0.3858267716535433},{"duration":0.3333329999999961,"midi":64,"time":102.333231,"velocity":0.3858267716535433},{"duration":0.3333329999999961,"midi":68,"time":102.333231,"velocity":0.3858267716535433},{"duration":0.16666650000000516,"midi":66,"time":102.333231,"velocity":0.3858267716535433},{"duration":0.16666649999999095,"midi":68,"time":102.4998975,"velocity":0.3858267716535433},{"duration":0.3333329999999961,"midi":63,"time":102.666564,"velocity":0.3858267716535433},{"duration":0.3333329999999961,"midi":71,"time":102.666564,"velocity":0.3858267716535433},{"duration":0.3333329999999961,"midi":66,"time":102.666564,"velocity":0.3858267716535433},{"duration":1.3333319999999986,"midi":47,"time":102.666564,"velocity":0.3858267716535433},{"duration":0.6666660000000064,"midi":66,"time":102.666564,"velocity":0.3858267716535433},{"duration":0.3333330000000103,"midi":63,"time":102.99989699999999,"velocity":0.3858267716535433},{"duration":0.3333330000000103,"midi":66,"time":102.99989699999999,"velocity":0.3858267716535433},{"duration":0.3333330000000103,"midi":71,"time":102.99989699999999,"velocity":0.3858267716535433},{"duration":0.3333329999999961,"midi":63,"time":103.33323,"velocity":0.3858267716535433},{"duration":0.3333329999999961,"midi":66,"time":103.33323,"velocity":0.3858267716535433},{"duration":0.3333329999999961,"midi":63,"time":103.33323,"velocity":0.3858267716535433},{"duration":0.3333329999999961,"midi":71,"time":103.33323,"velocity":0.3858267716535433},{"duration":0.3333329999999961,"midi":71,"time":103.666563,"velocity":0.3858267716535433},{"duration":0.3333329999999961,"midi":66,"time":103.666563,"velocity":0.3858267716535433},{"duration":0.3333329999999961,"midi":63,"time":103.666563,"velocity":0.3858267716535433},{"duration":0.3333329999999961,"midi":68,"time":103.666563,"velocity":0.3858267716535433},{"duration":2.6666640000000115,"midi":42,"time":103.99989599999999,"velocity":0.3858267716535433},{"duration":0.16666650000000516,"midi":56,"time":103.99989599999999,"velocity":0.3858267716535433},{"duration":0.16666650000000516,"midi":54,"time":104.1665625,"velocity":0.3858267716535433},{"duration":0.16666649999999095,"midi":61,"time":104.333229,"velocity":0.3858267716535433},{"duration":0.16666650000000516,"midi":63,"time":104.4998955,"velocity":0.3858267716535433},{"duration":0.3333329999999961,"midi":64,"time":104.666562,"velocity":0.3858267716535433},{"duration":0.16666650000000516,"midi":63,"time":104.999895,"velocity":0.3858267716535433},{"duration":0.16666649999999095,"midi":61,"time":105.1665615,"velocity":0.3858267716535433},{"duration":0.16666650000000516,"midi":68,"time":105.33322799999999,"velocity":0.3858267716535433},{"duration":0.16666650000000516,"midi":66,"time":105.4998945,"velocity":0.3858267716535433},{"duration":0.16666649999999095,"midi":64,"time":105.666561,"velocity":0.3858267716535433},{"duration":0.16666650000000516,"midi":63,"time":105.83322749999999,"velocity":0.3858267716535433},{"duration":0.16666650000000516,"midi":61,"time":105.999894,"velocity":0.3858267716535433},{"duration":0.16666649999999095,"midi":63,"time":106.1665605,"velocity":0.3858267716535433},{"duration":0.16666650000000516,"midi":64,"time":106.333227,"velocity":0.3858267716535433},{"duration":0.16666650000000516,"midi":68,"time":106.4998935,"velocity":0.3858267716535433},{"duration":0.3333329999999961,"midi":70,"time":106.66656,"velocity":0.3858267716535433},{"duration":1.3333319999999986,"midi":39,"time":106.66656,"velocity":0.3858267716535433},{"duration":0.3333329999999961,"midi":66,"time":106.999893,"velocity":0.3858267716535433},{"duration":0.3333329999999961,"midi":63,"time":107.333226,"velocity":0.3858267716535433},{"duration":0.3333330000000103,"midi":58,"time":107.66655899999999,"velocity":0.3858267716535433},{"duration":0.16666649999999095,"midi":57,"time":107.999892,"velocity":0.3858267716535433},{"duration":1.3333319999999986,"midi":44,"time":107.999892,"velocity":0.3858267716535433},{"duration":0.16666650000000516,"midi":60,"time":108.1665585,"velocity":0.3858267716535433},{"duration":0.16666650000000516,"midi":63,"time":108.333225,"velocity":0.3858267716535433},{"duration":0.16666649999999095,"midi":66,"time":108.4998915,"velocity":0.3858267716535433},{"duration":0.16666650000000516,"midi":69,"time":108.666558,"velocity":0.3858267716535433},{"duration":0.16666649999999095,"midi":72,"time":108.8332245,"velocity":0.3858267716535433},{"duration":0.16666650000000516,"midi":75,"time":108.99989099999999,"velocity":0.3858267716535433},{"duration":0.16666650000000516,"midi":78,"time":109.1665575,"velocity":0.3858267716535433},{"duration":0.16666649999999095,"midi":76,"time":109.333224,"velocity":0.3858267716535433},{"duration":1.3333319999999986,"midi":37,"time":109.333224,"velocity":0.3858267716535433},{"duration":0.3333329999999961,"midi":49,"time":109.333224,"velocity":0.3858267716535433},{"duration":0.16666650000000516,"midi":80,"time":109.49989049999999,"velocity":0.3858267716535433},{"duration":0.16666650000000516,"midi":85,"time":109.666557,"velocity":0.3858267716535433},{"duration":0.16666650000000516,"midi":49,"time":109.666557,"velocity":0.3858267716535433},{"duration":0.16666649999999095,"midi":80,"time":109.8332235,"velocity":0.3858267716535433},{"duration":0.16666649999999095,"midi":51,"time":109.8332235,"velocity":0.3858267716535433},{"duration":0.16666650000000516,"midi":76,"time":109.99989,"velocity":0.3858267716535433},{"duration":0.3333330000000103,"midi":52,"time":109.99989,"velocity":0.3858267716535433},{"duration":0.16666650000000516,"midi":80,"time":110.1665565,"velocity":0.3858267716535433},{"duration":0.16666649999999095,"midi":85,"time":110.333223,"velocity":0.3858267716535433},{"duration":0.3333329999999961,"midi":56,"time":110.333223,"velocity":0.3858267716535433},{"duration":0.16666650000000516,"midi":80,"time":110.4998895,"velocity":0.3858267716535433},{"duration":1.3333319999999986,"midi":44,"time":110.666556,"velocity":0.3858267716535433},{"duration":0.16666649999999095,"midi":75,"time":110.666556,"velocity":0.3858267716535433},{"duration":0.3333329999999961,"midi":59,"time":110.666556,"velocity":0.3858267716535433},{"duration":0.16666650000000516,"midi":80,"time":110.83322249999999,"velocity":0.3858267716535433},{"duration":0.16666650000000516,"midi":83,"time":110.999889,"velocity":0.3858267716535433},{"duration":0.3333329999999961,"midi":56,"time":110.999889,"velocity":0.3858267716535433},{"duration":0.16666649999999095,"midi":80,"time":111.1665555,"velocity":0.3858267716535433},{"duration":0.3333330000000103,"midi":51,"time":111.33322199999999,"velocity":0.3858267716535433},{"duration":0.16666650000000516,"midi":75,"time":111.33322199999999,"velocity":0.3858267716535433},{"duration":0.16666650000000516,"midi":80,"time":111.4998885,"velocity":0.3858267716535433},{"duration":0.3333329999999961,"midi":56,"time":111.666555,"velocity":0.3858267716535433},{"duration":0.16666649999999095,"midi":83,"time":111.666555,"velocity":0.3858267716535433},{"duration":0.16666650000000516,"midi":80,"time":111.8332215,"velocity":0.3858267716535433},{"duration":0.16666650000000516,"midi":76,"time":111.999888,"velocity":0.3858267716535433},{"duration":0.3333329999999961,"midi":61,"time":111.999888,"velocity":0.3858267716535433},{"duration":1.3333319999999986,"midi":45,"time":111.999888,"velocity":0.3858267716535433},{"duration":0.16666649999999095,"midi":80,"time":112.1665545,"velocity":0.3858267716535433},{"duration":0.3333329999999961,"midi":56,"time":112.333221,"velocity":0.3858267716535433},{"duration":0.16666650000000516,"midi":85,"time":112.333221,"velocity":0.3858267716535433},{"duration":0.16666649999999095,"midi":80,"time":112.4998875,"velocity":0.3858267716535433},{"duration":0.3333330000000103,"midi":52,"time":112.66655399999999,"velocity":0.3858267716535433},{"duration":0.16666650000000516,"midi":76,"time":112.66655399999999,"velocity":0.3858267716535433},{"duration":0.16666650000000516,"midi":80,"time":112.8332205,"velocity":0.3858267716535433},{"duration":0.3333329999999961,"midi":56,"time":112.999887,"velocity":0.3858267716535433},{"duration":0.16666649999999095,"midi":85,"time":112.999887,"velocity":0.3858267716535433},{"duration":0.16666650000000516,"midi":80,"time":113.16655349999999,"velocity":0.3858267716535433},{"duration":0.16666650000000516,"midi":59,"time":113.33322,"velocity":0.3858267716535433},{"duration":0.16666650000000516,"midi":78,"time":113.33322,"velocity":0.3858267716535433},{"duration":1.3333319999999986,"midi":47,"time":113.33322,"velocity":0.3858267716535433},{"duration":0.16666649999999095,"midi":61,"time":113.4998865,"velocity":0.3858267716535433},{"duration":0.16666649999999095,"midi":83,"time":113.4998865,"velocity":0.3858267716535433},{"duration":0.16666650000000516,"midi":59,"time":113.666553,"velocity":0.3858267716535433},{"duration":0.16666650000000516,"midi":87,"time":113.666553,"velocity":0.3858267716535433},{"duration":0.16666650000000516,"midi":54,"time":113.8332195,"velocity":0.3858267716535433},{"duration":0.16666650000000516,"midi":83,"time":113.8332195,"velocity":0.3858267716535433},{"duration":0.16666649999999095,"midi":59,"time":113.999886,"velocity":0.3858267716535433},{"duration":0.16666649999999095,"midi":78,"time":113.999886,"velocity":0.3858267716535433},{"duration":0.16666650000000516,"midi":61,"time":114.1665525,"velocity":0.3858267716535433},{"duration":0.16666650000000516,"midi":83,"time":114.1665525,"velocity":0.3858267716535433},{"duration":0.16666649999999095,"midi":87,"time":114.333219,"velocity":0.3858267716535433},{"duration":0.16666649999999095,"midi":66,"time":114.333219,"velocity":0.3858267716535433},{"duration":0.16666650000000516,"midi":63,"time":114.49988549999999,"velocity":0.3858267716535433},{"duration":0.16666650000000516,"midi":83,"time":114.49988549999999,"velocity":0.3858267716535433},{"duration":1.3333319999999986,"midi":42,"time":114.666552,"velocity":0.3858267716535433},{"duration":0.16666650000000516,"midi":76,"time":114.666552,"velocity":0.3858267716535433},{"duration":0.3333329999999961,"midi":64,"time":114.666552,"velocity":0.3858267716535433},{"duration":0.16666649999999095,"midi":80,"time":114.8332185,"velocity":0.3858267716535433},{"duration":0.16666650000000516,"midi":64,"time":114.99988499999999,"velocity":0.3858267716535433},{"duration":0.16666650000000516,"midi":85,"time":114.99988499999999,"velocity":0.3858267716535433},{"duration":0.16666650000000516,"midi":63,"time":115.1665515,"velocity":0.3858267716535433},{"duration":0.16666650000000516,"midi":80,"time":115.1665515,"velocity":0.3858267716535433},{"duration":0.16666649999999095,"midi":76,"time":115.333218,"velocity":0.3858267716535433},{"duration":0.3333329999999961,"midi":61,"time":115.333218,"velocity":0.3858267716535433},{"duration":0.16666650000000516,"midi":80,"time":115.4998845,"velocity":0.3858267716535433},{"duration":0.16666650000000516,"midi":85,"time":115.666551,"velocity":0.3858267716535433},{"duration":0.3333329999999961,"midi":57,"time":115.666551,"velocity":0.3858267716535433},{"duration":0.16666649999999095,"midi":80,"time":115.8332175,"velocity":0.3858267716535433},{"duration":1.3333319999999986,"midi":44,"time":115.999884,"velocity":0.3858267716535433},{"duration":0.3333329999999961,"midi":59,"time":115.999884,"velocity":0.3858267716535433},{"duration":0.16666650000000516,"midi":75,"time":115.999884,"velocity":0.3858267716535433},{"duration":0.16666649999999095,"midi":78,"time":116.1665505,"velocity":0.3858267716535433},{"duration":0.16666650000000516,"midi":83,"time":116.33321699999999,"velocity":0.3858267716535433},{"duration":0.3333330000000103,"midi":61,"time":116.33321699999999,"velocity":0.3858267716535433},{"duration":0.16666650000000516,"midi":78,"time":116.4998835,"velocity":0.3858267716535433},{"duration":0.16666649999999095,"midi":75,"time":116.66655,"velocity":0.3858267716535433},{"duration":0.3333329999999961,"midi":63,"time":116.66655,"velocity":0.3858267716535433},{"duration":0.16666650000000516,"midi":78,"time":116.83321649999999,"velocity":0.3858267716535433},{"duration":0.3333329999999961,"midi":66,"time":116.999883,"velocity":0.3858267716535433},{"duration":0.16666650000000516,"midi":83,"time":116.999883,"velocity":0.3858267716535433},{"duration":0.16666649999999095,"midi":78,"time":117.1665495,"velocity":0.3858267716535433},{"duration":0.3333330000000103,"midi":64,"time":117.333216,"velocity":0.3858267716535433},{"duration":1.3333319999999986,"midi":45,"time":117.333216,"velocity":0.3858267716535433},{"duration":0.16666650000000516,"midi":76,"time":117.333216,"velocity":0.3858267716535433},{"duration":0.16666650000000516,"midi":80,"time":117.4998825,"velocity":0.3858267716535433},{"duration":0.3333329999999961,"midi":63,"time":117.666549,"velocity":0.3858267716535433},{"duration":0.16666649999999095,"midi":85,"time":117.666549,"velocity":0.3858267716535433},{"duration":0.16666650000000516,"midi":80,"time":117.8332155,"velocity":0.3858267716535433},{"duration":0.16666649999999095,"midi":76,"time":117.999882,"velocity":0.3858267716535433},{"duration":0.3333329999999961,"midi":61,"time":117.999882,"velocity":0.3858267716535433},{"duration":0.16666650000000516,"midi":80,"time":118.16654849999999,"velocity":0.3858267716535433},{"duration":0.16666650000000516,"midi":85,"time":118.333215,"velocity":0.3858267716535433},{"duration":0.3333329999999961,"midi":64,"time":118.333215,"velocity":0.3858267716535433},{"duration":0.16666649999999095,"midi":80,"time":118.4998815,"velocity":0.3858267716535433},{"duration":0.16666650000000516,"midi":78,"time":118.66654799999999,"velocity":0.3858267716535433},{"duration":0.6666660000000064,"midi":47,"time":118.66654799999999,"velocity":0.3858267716535433},{"duration":0.16666650000000516,"midi":63,"time":118.66654799999999,"velocity":0.3858267716535433},{"duration":0.16666650000000516,"midi":64,"time":118.8332145,"velocity":0.3858267716535433},{"duration":0.16666650000000516,"midi":80,"time":118.8332145,"velocity":0.3858267716535433},{"duration":0.16666649999999095,"midi":63,"time":118.999881,"velocity":0.3858267716535433},{"duration":0.16666649999999095,"midi":78,"time":118.999881,"velocity":0.3858267716535433},{"duration":0.16666650000000516,"midi":76,"time":119.1665475,"velocity":0.3858267716535433},{"duration":0.16666650000000516,"midi":61,"time":119.1665475,"velocity":0.3858267716535433},{"duration":0.16666650000000516,"midi":75,"time":119.333214,"velocity":0.3858267716535433},{"duration":0.6666659999999922,"midi":48,"time":119.333214,"velocity":0.3858267716535433},{"duration":0.16666650000000516,"midi":60,"time":119.333214,"velocity":0.3858267716535433},{"duration":0.16666649999999095,"midi":56,"time":119.4998805,"velocity":0.3858267716535433},{"duration":0.16666649999999095,"midi":72,"time":119.4998805,"velocity":0.3858267716535433},{"duration":0.16666650000000516,"midi":63,"time":119.666547,"velocity":0.3858267716535433},{"duration":0.16666650000000516,"midi":78,"time":119.666547,"velocity":0.3858267716535433},{"duration":0.16666649999999095,"midi":60,"time":119.8332135,"velocity":0.3858267716535433},{"duration":0.16666649999999095,"midi":75,"time":119.8332135,"velocity":0.3858267716535433},{"duration":0.3333330000000103,"midi":61,"time":119.99987999999999,"velocity":0.3858267716535433},{"duration":1.3333320000000128,"midi":49,"time":119.99987999999999,"velocity":0.3858267716535433},{"duration":0.16666650000000516,"midi":76,"time":119.99987999999999,"velocity":0.3858267716535433},{"duration":0.16666650000000516,"midi":80,"time":120.1665465,"velocity":0.3858267716535433},{"duration":0.16666649999999095,"midi":61,"time":120.333213,"velocity":0.3858267716535433},{"duration":0.16666649999999095,"midi":85,"time":120.333213,"velocity":0.3858267716535433},{"duration":0.16666650000000516,"midi":80,"time":120.49987949999999,"velocity":0.3858267716535433},{"duration":0.16666650000000516,"midi":63,"time":120.49987949999999,"velocity":0.3858267716535433},{"duration":0.16666650000000516,"midi":76,"time":120.666546,"velocity":0.3858267716535433},{"duration":0.3333329999999961,"midi":64,"time":120.666546,"velocity":0.3858267716535433},{"duration":0.16666649999999095,"midi":80,"time":120.8332125,"velocity":0.3858267716535433},{"duration":0.3333330000000103,"midi":68,"time":120.99987899999999,"velocity":0.3858267716535433},{"duration":0.16666650000000516,"midi":85,"time":120.99987899999999,"velocity":0.3858267716535433},{"duration":0.16666650000000516,"midi":80,"time":121.1665455,"velocity":0.3858267716535433},{"duration":0.16666649999999095,"midi":75,"time":121.333212,"velocity":0.3858267716535433},{"duration":1.3333319999999986,"midi":47,"time":121.333212,"velocity":0.3858267716535433},{"duration":0.3333329999999961,"midi":71,"time":121.333212,"velocity":0.3858267716535433},{"duration":0.16666650000000516,"midi":80,"time":121.4998785,"velocity":0.3858267716535433},{"duration":0.16666649999999095,"midi":83,"time":121.666545,"velocity":0.3858267716535433},{"duration":0.3333329999999961,"midi":68,"time":121.666545,"velocity":0.3858267716535433},{"duration":0.16666650000000516,"midi":80,"time":121.83321149999999,"velocity":0.3858267716535433},{"duration":0.3333329999999961,"midi":63,"time":121.999878,"velocity":0.3858267716535433},{"duration":0.16666650000000516,"midi":75,"time":121.999878,"velocity":0.3858267716535433},{"duration":0.16666649999999095,"midi":80,"time":122.1665445,"velocity":0.3858267716535433},{"duration":0.3333330000000103,"midi":68,"time":122.33321099999999,"velocity":0.3858267716535433},{"duration":0.16666650000000516,"midi":83,"time":122.33321099999999,"velocity":0.3858267716535433},{"duration":0.16666650000000516,"midi":80,"time":122.4998775,"velocity":0.3858267716535433},{"duration":1.3333319999999986,"midi":46,"time":122.666544,"velocity":0.3858267716535433},{"duration":0.16666649999999095,"midi":73,"time":122.666544,"velocity":0.3858267716535433},{"duration":0.3333329999999961,"midi":70,"time":122.666544,"velocity":0.3858267716535433},{"duration":0.16666650000000516,"midi":78,"time":122.83321049999999,"velocity":0.3858267716535433},{"duration":0.16666650000000516,"midi":82,"time":122.999877,"velocity":0.3858267716535433},{"duration":0.3333329999999961,"midi":68,"time":122.999877,"velocity":0.3858267716535433},{"duration":0.16666649999999095,"midi":78,"time":123.1665435,"velocity":0.3858267716535433},{"duration":0.16666650000000516,"midi":73,"time":123.33321,"velocity":0.3858267716535433},{"duration":0.3333329999999961,"midi":66,"time":123.33321,"velocity":0.3858267716535433},{"duration":0.16666649999999095,"midi":78,"time":123.4998765,"velocity":0.3858267716535433},{"duration":0.3333330000000103,"midi":61,"time":123.66654299999999,"velocity":0.3858267716535433},{"duration":0.16666650000000516,"midi":82,"time":123.66654299999999,"velocity":0.3858267716535433},{"duration":0.16666650000000516,"midi":78,"time":123.8332095,"velocity":0.3858267716535433},{"duration":0.16666649999999095,"midi":73,"time":123.999876,"velocity":0.3858267716535433},{"duration":0.16666649999999095,"midi":58,"time":123.999876,"velocity":0.3858267716535433},{"duration":0.6666659999999922,"midi":42,"time":123.999876,"velocity":0.3858267716535433},{"duration":0.16666650000000516,"midi":78,"time":124.16654249999999,"velocity":0.3858267716535433},{"duration":0.16666650000000516,"midi":59,"time":124.16654249999999,"velocity":0.3858267716535433},{"duration":0.16666650000000516,"midi":82,"time":124.333209,"velocity":0.3858267716535433},{"duration":0.16666650000000516,"midi":58,"time":124.333209,"velocity":0.3858267716535433},{"duration":0.16666649999999095,"midi":61,"time":124.4998755,"velocity":0.3858267716535433},{"duration":0.16666649999999095,"midi":78,"time":124.4998755,"velocity":0.3858267716535433},{"duration":0.16666650000000516,"midi":73,"time":124.66654199999999,"velocity":0.3858267716535433},{"duration":0.16666650000000516,"midi":66,"time":124.66654199999999,"velocity":0.3858267716535433},{"duration":0.6666660000000064,"midi":40,"time":124.66654199999999,"velocity":0.3858267716535433},{"duration":0.16666650000000516,"midi":78,"time":124.8332085,"velocity":0.3858267716535433},{"duration":0.16666650000000516,"midi":68,"time":124.8332085,"velocity":0.3858267716535433},{"duration":0.16666649999999095,"midi":69,"time":124.999875,"velocity":0.3858267716535433},{"duration":0.16666649999999095,"midi":82,"time":124.999875,"velocity":0.3858267716535433},{"duration":0.16666650000000516,"midi":78,"time":125.1665415,"velocity":0.3858267716535433},{"duration":0.16666650000000516,"midi":71,"time":125.1665415,"velocity":0.3858267716535433},{"duration":1.3333319999999986,"midi":38,"time":125.333208,"velocity":0.3858267716535433},{"duration":0.3333329999999961,"midi":73,"time":125.333208,"velocity":0.3858267716535433},{"duration":0.16666649999999095,"midi":76,"time":125.333208,"velocity":0.3858267716535433},{"duration":0.16666650000000516,"midi":80,"time":125.49987449999999,"velocity":0.3858267716535433},{"duration":0.16666650000000516,"midi":73,"time":125.666541,"velocity":0.3858267716535433},{"duration":0.16666650000000516,"midi":85,"time":125.666541,"velocity":0.3858267716535433},{"duration":0.16666649999999095,"midi":80,"time":125.8332075,"velocity":0.3858267716535433},{"duration":0.16666649999999095,"midi":71,"time":125.8332075,"velocity":0.3858267716535433},{"duration":0.16666650000000516,"midi":76,"time":125.99987399999999,"velocity":0.3858267716535433},{"duration":0.3333330000000103,"midi":69,"time":125.99987399999999,"velocity":0.3858267716535433},{"duration":0.16666650000000516,"midi":80,"time":126.1665405,"velocity":0.3858267716535433},{"duration":0.3333329999999961,"midi":66,"time":126.333207,"velocity":0.3858267716535433},{"duration":0.16666649999999095,"midi":85,"time":126.333207,"velocity":0.3858267716535433},{"duration":0.16666650000000516,"midi":80,"time":126.49987349999999,"velocity":0.3858267716535433},{"duration":1.3333319999999986,"midi":45,"time":126.66654,"velocity":0.3858267716535433},{"duration":0.3333329999999961,"midi":68,"time":126.66654,"velocity":0.3858267716535433},{"duration":0.16666650000000516,"midi":76,"time":126.66654,"velocity":0.3858267716535433},{"duration":0.16666649999999095,"midi":80,"time":126.8332065,"velocity":0.3858267716535433},{"duration":0.16666650000000516,"midi":85,"time":126.999873,"velocity":0.3858267716535433},{"duration":0.3333329999999961,"midi":64,"time":126.999873,"velocity":0.3858267716535433},{"duration":0.16666649999999095,"midi":80,"time":127.1665395,"velocity":0.3858267716535433},{"duration":0.3333330000000103,"midi":68,"time":127.33320599999999,"velocity":0.3858267716535433},{"duration":0.16666650000000516,"midi":76,"time":127.33320599999999,"velocity":0.3858267716535433},{"duration":0.16666650000000516,"midi":80,"time":127.4998725,"velocity":0.3858267716535433},{"duration":0.16666649999999095,"midi":85,"time":127.666539,"velocity":0.3858267716535433},{"duration":0.3333329999999961,"midi":73,"time":127.666539,"velocity":0.3858267716535433},{"duration":0.16666650000000516,"midi":80,"time":127.83320549999999,"velocity":0.3858267716535433},{"duration":0.3333329999999961,"midi":71,"time":127.999872,"velocity":0.3858267716535433},{"duration":1.3333319999999986,"midi":47,"time":127.999872,"velocity":0.3858267716535433},{"duration":0.16666650000000516,"midi":78,"time":127.999872,"velocity":0.3858267716535433},{"duration":0.16666649999999095,"midi":83,"time":128.1665385,"velocity":0.3858267716535433},{"duration":0.3333330000000103,"midi":66,"time":128.333205,"velocity":0.3858267716535433},{"duration":0.16666649999999095,"midi":87,"time":128.333205,"velocity":0.3858267716535433},{"duration":0.16666650000001937,"midi":83,"time":128.49987149999998,"velocity":0.3858267716535433},{"duration":0.16666649999999095,"midi":78,"time":128.666538,"velocity":0.3858267716535433},{"duration":0.3333329999999819,"midi":71,"time":128.666538,"velocity":0.3858267716535433},{"duration":0.16666649999999095,"midi":83,"time":128.8332045,"velocity":0.3858267716535433},{"duration":0.3333330000000103,"midi":75,"time":128.99987099999998,"velocity":0.3858267716535433},{"duration":0.16666650000001937,"midi":87,"time":128.99987099999998,"velocity":0.3858267716535433},{"duration":0.16666649999999095,"midi":83,"time":129.1665375,"velocity":0.3858267716535433},{"duration":0.16666649999999095,"midi":71,"time":129.333204,"velocity":0.3858267716535433},{"duration":0.6666659999999922,"midi":47,"time":129.333204,"velocity":0.3858267716535433},{"duration":0.49999950000000126,"midi":71,"time":129.4998705,"velocity":0.3858267716535433},{"duration":0.16666650000001937,"midi":68,"time":129.99987,"velocity":0.3858267716535433},{"duration":0.6666660000000206,"midi":44,"time":129.99987,"velocity":0.3858267716535433},{"duration":0.49999950000000126,"midi":68,"time":130.1665365,"velocity":0.3858267716535433},{"duration":2.333330999999987,"midi":73,"time":130.666536,"velocity":0.3858267716535433},{"duration":0.3333329999999819,"midi":49,"time":130.666536,"velocity":0.3858267716535433},{"duration":0.8333324999999832,"midi":49,"time":130.666536,"velocity":0.3858267716535433},{"duration":2.333330999999987,"midi":85,"time":130.666536,"velocity":0.3858267716535433},{"duration":0.16666650000001937,"midi":37,"time":130.999869,"velocity":0.3858267716535433},{"duration":0.8333324999999832,"midi":49,"time":131.1665355,"velocity":0.3858267716535433},{"duration":0.16666650000001937,"midi":37,"time":131.4998685,"velocity":0.3858267716535433},{"duration":0.8333324999999832,"midi":49,"time":131.666535,"velocity":0.3858267716535433},{"duration":0.16666649999999095,"midi":37,"time":131.999868,"velocity":0.3858267716535433},{"duration":0.6666660000000206,"midi":49,"time":132.16653449999998,"velocity":0.3858267716535433},{"duration":0.16666649999999095,"midi":37,"time":132.4998675,"velocity":0.3858267716535433},{"duration":0.6666660000000206,"midi":49,"time":132.66653399999998,"velocity":0.3858267716535433},{"duration":0.3333329999999819,"midi":47,"time":132.8332005,"velocity":0.3858267716535433},{"duration":0.3333330000000103,"midi":76,"time":132.999867,"velocity":0.3858267716535433},{"duration":0.3333330000000103,"midi":88,"time":132.999867,"velocity":0.3858267716535433},{"duration":0.16666650000001937,"midi":49,"time":133.16653349999999,"velocity":0.3858267716535433},{"duration":1.999998000000005,"midi":87,"time":133.3332,"velocity":0.3858267716535433},{"duration":1.999998000000005,"midi":75,"time":133.3332,"velocity":0.3858267716535433},{"duration":0.3333329999999819,"midi":56,"time":133.3332,"velocity":0.3858267716535433},{"duration":2.6666639999999973,"midi":47,"time":133.3332,"velocity":0.3858267716535433},{"duration":0.16666650000001937,"midi":44,"time":133.666533,"velocity":0.3858267716535433},{"duration":0.3333329999999819,"midi":56,"time":133.8331995,"velocity":0.3858267716535433},{"duration":0.16666650000001937,"midi":44,"time":134.1665325,"velocity":0.3858267716535433},{"duration":0.3333329999999819,"midi":56,"time":134.333199,"velocity":0.3858267716535433},{"duration":0.16666650000001937,"midi":44,"time":134.666532,"velocity":0.3858267716535433},{"duration":0.3333329999999819,"midi":56,"time":134.8331985,"velocity":0.3858267716535433},{"duration":0.16666650000001937,"midi":44,"time":135.1665315,"velocity":0.3858267716535433},{"duration":0.16666649999999095,"midi":56,"time":135.333198,"velocity":0.3858267716535433},{"duration":0.3333329999999819,"midi":68,"time":135.333198,"velocity":0.3858267716535433},{"duration":0.3333329999999819,"midi":80,"time":135.333198,"velocity":0.3858267716535433},{"duration":0.3333329999999819,"midi":54,"time":135.4998645,"velocity":0.3858267716535433},{"duration":0.3333330000000103,"midi":83,"time":135.666531,"velocity":0.3858267716535433},{"duration":0.3333330000000103,"midi":71,"time":135.666531,"velocity":0.3858267716535433},{"duration":0.16666650000001937,"midi":56,"time":135.83319749999998,"velocity":0.3858267716535433},{"duration":1.6666649999999947,"midi":73,"time":135.999864,"velocity":0.3858267716535433},{"duration":2.6666639999999973,"midi":46,"time":135.999864,"velocity":0.3858267716535433},{"duration":1.6666649999999947,"midi":85,"time":135.999864,"velocity":0.3858267716535433},{"duration":0.3333329999999819,"midi":51,"time":135.999864,"velocity":0.3858267716535433},{"duration":0.16666650000001937,"midi":39,"time":136.33319699999998,"velocity":0.3858267716535433},{"duration":0.3333329999999819,"midi":51,"time":136.4998635,"velocity":0.3858267716535433},{"duration":0.16666650000001937,"midi":39,"time":136.83319649999999,"velocity":0.3858267716535433},{"duration":0.3333329999999819,"midi":51,"time":136.999863,"velocity":0.3858267716535433},{"duration":0.16666650000001937,"midi":39,"time":137.333196,"velocity":0.3858267716535433},{"duration":0.3333329999999819,"midi":51,"time":137.4998625,"velocity":0.3858267716535433},{"duration":0.3333330000000103,"midi":71,"time":137.666529,"velocity":0.3858267716535433},{"duration":0.3333330000000103,"midi":83,"time":137.666529,"velocity":0.3858267716535433},{"duration":0.16666650000001937,"midi":39,"time":137.8331955,"velocity":0.3858267716535433},{"duration":0.3333329999999819,"midi":73,"time":137.999862,"velocity":0.3858267716535433},{"duration":0.3333329999999819,"midi":85,"time":137.999862,"velocity":0.3858267716535433},{"duration":0.16666649999999095,"midi":51,"time":137.999862,"velocity":0.3858267716535433},{"duration":0.3333330000000103,"midi":49,"time":138.1665285,"velocity":0.3858267716535433},{"duration":0.3333330000000103,"midi":80,"time":138.333195,"velocity":0.3858267716535433},{"duration":0.16666649999999095,"midi":51,"time":138.4998615,"velocity":0.3858267716535433},{"duration":1.3333319999999844,"midi":78,"time":138.666528,"velocity":0.3858267716535433},{"duration":0.3333330000000103,"midi":50,"time":138.666528,"velocity":0.3858267716535433},{"duration":2.6666639999999973,"midi":45,"time":138.666528,"velocity":0.3858267716535433},{"duration":0.16666649999999095,"midi":38,"time":138.999861,"velocity":0.3858267716535433},{"duration":0.3333329999999819,"midi":50,"time":139.1665275,"velocity":0.3858267716535433},{"duration":0.16666650000001937,"midi":38,"time":139.49986049999998,"velocity":0.3858267716535433},{"duration":0.3333329999999819,"midi":50,"time":139.666527,"velocity":0.3858267716535433},{"duration":0.3333330000000103,"midi":81,"time":139.99985999999998,"velocity":0.3858267716535433},{"duration":0.16666650000001937,"midi":38,"time":139.99985999999998,"velocity":0.3858267716535433},{"duration":0.3333329999999819,"midi":50,"time":140.1665265,"velocity":0.3858267716535433},{"duration":0.3333330000000103,"midi":80,"time":140.333193,"velocity":0.3858267716535433},{"duration":0.16666650000001937,"midi":38,"time":140.49985949999999,"velocity":0.3858267716535433},{"duration":0.3333329999999819,"midi":50,"time":140.666526,"velocity":0.3858267716535433},{"duration":0.3333329999999819,"midi":78,"time":140.666526,"velocity":0.3858267716535433},{"duration":0.3333330000000103,"midi":80,"time":140.999859,"velocity":0.3858267716535433},{"duration":0.3333330000000103,"midi":50,"time":140.999859,"velocity":0.3858267716535433},{"duration":0.3333330000000103,"midi":49,"time":141.333192,"velocity":0.3858267716535433},{"duration":0.8333325000000116,"midi":49,"time":141.333192,"velocity":0.3858267716535433},{"duration":1.6666649999999947,"midi":76,"time":141.333192,"velocity":0.3858267716535433},{"duration":1.6666649999999947,"midi":88,"time":141.333192,"velocity":0.3858267716535433},{"duration":0.16666649999999095,"midi":37,"time":141.666525,"velocity":0.3858267716535433},{"duration":0.8333325000000116,"midi":49,"time":141.8331915,"velocity":0.3858267716535433},{"duration":0.16666649999999095,"midi":37,"time":142.1665245,"velocity":0.3858267716535433},{"duration":0.8333324999999832,"midi":49,"time":142.333191,"velocity":0.3858267716535433},{"duration":0.16666649999999095,"midi":37,"time":142.666524,"velocity":0.3858267716535433},{"duration":0.6666659999999922,"midi":49,"time":142.8331905,"velocity":0.3858267716535433},{"duration":0.3333330000000103,"midi":73,"time":142.999857,"velocity":0.3858267716535433},{"duration":0.3333330000000103,"midi":85,"time":142.999857,"velocity":0.3858267716535433},{"duration":0.16666650000001937,"midi":37,"time":143.16652349999998,"velocity":0.3858267716535433},{"duration":0.6666659999999922,"midi":49,"time":143.33319,"velocity":0.3858267716535433},{"duration":0.3333329999999819,"midi":88,"time":143.33319,"velocity":0.3858267716535433},{"duration":0.3333329999999819,"midi":76,"time":143.33319,"velocity":0.3858267716535433},{"duration":0.3333330000000103,"midi":47,"time":143.4998565,"velocity":0.3858267716535433},{"duration":0.3333330000000103,"midi":80,"time":143.66652299999998,"velocity":0.3858267716535433},{"duration":0.16666649999999095,"midi":49,"time":143.8331895,"velocity":0.3858267716535433},{"duration":0.3333330000000103,"midi":50,"time":143.999856,"velocity":0.3858267716535433},{"duration":1.3333320000000128,"midi":80,"time":143.999856,"velocity":0.3858267716535433},{"duration":0.8333325000000116,"midi":50,"time":143.999856,"velocity":0.3858267716535433},{"duration":0.16666649999999095,"midi":38,"time":144.333189,"velocity":0.3858267716535433},{"duration":0.8333325000000116,"midi":50,"time":144.4998555,"velocity":0.3858267716535433},{"duration":0.16666649999999095,"midi":38,"time":144.8331885,"velocity":0.3858267716535433},{"duration":0.8333325000000116,"midi":50,"time":144.999855,"velocity":0.3858267716535433},{"duration":0.9999990000000025,"midi":78,"time":145.333188,"velocity":0.3858267716535433},{"duration":0.16666649999999095,"midi":38,"time":145.333188,"velocity":0.3858267716535433},{"duration":0.8333325000000116,"midi":50,"time":145.4998545,"velocity":0.3858267716535433},{"duration":0.16666649999999095,"midi":38,"time":145.8331875,"velocity":0.3858267716535433},{"duration":0.6666659999999922,"midi":50,"time":145.999854,"velocity":0.3858267716535433},{"duration":0.3333329999999819,"midi":80,"time":146.333187,"velocity":0.3858267716535433},{"duration":0.3333329999999819,"midi":50,"time":146.333187,"velocity":0.3858267716535433},{"duration":0.3333330000000103,"midi":51,"time":146.66652,"velocity":0.3858267716535433},{"duration":0.8333325000000116,"midi":51,"time":146.66652,"velocity":0.3858267716535433},{"duration":1.6666649999999947,"midi":73,"time":146.66652,"velocity":0.3858267716535433},{"duration":1.6666649999999947,"midi":85,"time":146.66652,"velocity":0.3858267716535433},{"duration":0.16666649999999095,"midi":39,"time":146.999853,"velocity":0.3858267716535433},{"duration":0.8333325000000116,"midi":51,"time":147.1665195,"velocity":0.3858267716535433},{"duration":0.16666649999999095,"midi":39,"time":147.4998525,"velocity":0.3858267716535433},{"duration":0.8333325000000116,"midi":51,"time":147.666519,"velocity":0.3858267716535433},{"duration":0.16666649999999095,"midi":39,"time":147.999852,"velocity":0.3858267716535433},{"duration":0.8333325000000116,"midi":51,"time":148.1665185,"velocity":0.3858267716535433},{"duration":0.3333330000000103,"midi":80,"time":148.333185,"velocity":0.3858267716535433},{"duration":0.3333330000000103,"midi":68,"time":148.333185,"velocity":0.3858267716535433},{"duration":0.16666649999999095,"midi":39,"time":148.4998515,"velocity":0.3858267716535433},{"duration":0.6666659999999922,"midi":51,"time":148.666518,"velocity":0.3858267716535433},{"duration":0.3333330000000103,"midi":85,"time":148.666518,"velocity":0.3858267716535433},{"duration":0.3333330000000103,"midi":73,"time":148.666518,"velocity":0.3858267716535433},{"duration":0.3333329999999819,"midi":80,"time":148.999851,"velocity":0.3858267716535433},{"duration":0.3333329999999819,"midi":51,"time":148.999851,"velocity":0.3858267716535433},{"duration":1.3333320000000128,"midi":85,"time":149.333184,"velocity":0.3858267716535433},{"duration":1.3333320000000128,"midi":85,"time":149.333184,"velocity":0.3858267716535433},{"duration":0.3333330000000103,"midi":44,"time":149.333184,"velocity":0.3858267716535433},{"duration":0.8333325000000116,"midi":44,"time":149.333184,"velocity":0.3858267716535433},{"duration":0.16666649999999095,"midi":32,"time":149.666517,"velocity":0.3858267716535433},{"duration":0.8333325000000116,"midi":44,"time":149.8331835,"velocity":0.3858267716535433},{"duration":0.16666649999999095,"midi":32,"time":150.1665165,"velocity":0.3858267716535433},{"duration":0.8333325000000116,"midi":44,"time":150.333183,"velocity":0.3858267716535433},{"duration":1.3333319999999844,"midi":84,"time":150.666516,"velocity":0.3858267716535433},{"duration":1.3333319999999844,"midi":84,"time":150.666516,"velocity":0.3858267716535433},{"duration":0.16666649999999095,"midi":32,"time":150.666516,"velocity":0.3858267716535433},{"duration":0.8333325000000116,"midi":44,"time":150.8331825,"velocity":0.3858267716535433},{"duration":0.16666649999999095,"midi":32,"time":151.1665155,"velocity":0.3858267716535433},{"duration":0.6666659999999922,"midi":44,"time":151.333182,"velocity":0.3858267716535433},{"duration":0.3333329999999819,"midi":44,"time":151.666515,"velocity":0.3858267716535433},{"duration":1.3333320000000128,"midi":37,"time":151.999848,"velocity":0.3858267716535433},{"duration":1.3333320000000128,"midi":64,"time":151.999848,"velocity":0.3858267716535433},{"duration":1.3333320000000128,"midi":73,"time":151.999848,"velocity":0.3858267716535433},{"duration":1.3333320000000128,"midi":68,"time":151.999848,"velocity":0.3858267716535433},{"duration":1.3333319999999844,"midi":71,"time":153.33318,"velocity":0.3858267716535433},{"duration":1.3333319999999844,"midi":63,"time":153.33318,"velocity":0.3858267716535433},{"duration":1.3333319999999844,"midi":37,"time":153.33318,"velocity":0.3858267716535433},{"duration":1.3333319999999844,"midi":66,"time":153.33318,"velocity":0.3858267716535433},{"duration":1.3333320000000128,"midi":63,"time":154.66651199999998,"velocity":0.3858267716535433},{"duration":2.6666640000000257,"midi":68,"time":154.66651199999998,"velocity":0.3858267716535433},{"duration":2.6666640000000257,"midi":61,"time":154.66651199999998,"velocity":0.3858267716535433},{"duration":1.3333320000000128,"midi":37,"time":154.66651199999998,"velocity":0.3858267716535433},{"duration":1.3333320000000128,"midi":64,"time":155.999844,"velocity":0.3858267716535433},{"duration":1.3333320000000128,"midi":37,"time":155.999844,"velocity":0.3858267716535433},{"duration":1.3333319999999844,"midi":68,"time":157.333176,"velocity":0.3858267716535433},{"duration":1.3333319999999844,"midi":37,"time":157.333176,"velocity":0.3858267716535433},{"duration":1.3333319999999844,"midi":61,"time":157.333176,"velocity":0.3858267716535433},{"duration":1.3333319999999844,"midi":64,"time":157.333176,"velocity":0.3858267716535433},{"duration":1.3333320000000128,"midi":37,"time":158.666508,"velocity":0.3858267716535433},{"duration":1.3333320000000128,"midi":63,"time":158.666508,"velocity":0.3858267716535433},{"duration":1.3333320000000128,"midi":59,"time":158.666508,"velocity":0.3858267716535433},{"duration":1.3333320000000128,"midi":66,"time":158.666508,"velocity":0.3858267716535433},{"duration":2.6666639999999973,"midi":64,"time":159.99984,"velocity":0.3858267716535433},{"duration":2.6666639999999973,"midi":56,"time":159.99984,"velocity":0.3858267716535433},{"duration":1.3333319999999844,"midi":37,"time":159.99984,"velocity":0.3858267716535433},{"duration":2.6666639999999973,"midi":61,"time":159.99984,"velocity":0.3858267716535433},{"duration":1.3333320000000128,"midi":37,"time":161.333172,"velocity":0.3858267716535433},{"duration":1.3333319999999844,"midi":38,"time":162.666504,"velocity":0.3858267716535433},{"duration":1.3333319999999844,"midi":68,"time":162.666504,"velocity":0.3858267716535433},{"duration":1.3333319999999844,"midi":64,"time":162.666504,"velocity":0.3858267716535433},{"duration":1.3333319999999844,"midi":62,"time":162.666504,"velocity":0.3858267716535433},{"duration":1.3333320000000128,"midi":69,"time":163.999836,"velocity":0.3858267716535433},{"duration":1.3333320000000128,"midi":38,"time":163.999836,"velocity":0.3858267716535433},{"duration":1.3333320000000128,"midi":62,"time":163.999836,"velocity":0.3858267716535433},{"duration":1.3333320000000128,"midi":66,"time":163.999836,"velocity":0.3858267716535433},{"duration":1.3333319999999844,"midi":68,"time":165.333168,"velocity":0.3858267716535433},{"duration":1.3333319999999844,"midi":61,"time":165.333168,"velocity":0.3858267716535433},{"duration":1.3333319999999844,"midi":71,"time":165.333168,"velocity":0.3858267716535433},{"duration":1.3333319999999844,"midi":37,"time":165.333168,"velocity":0.3858267716535433},{"duration":1.3333320000000128,"midi":68,"time":166.66649999999998,"velocity":0.3858267716535433},{"duration":0.6666660000000206,"midi":37,"time":166.66649999999998,"velocity":0.3858267716535433},{"duration":1.3333320000000128,"midi":61,"time":166.66649999999998,"velocity":0.3858267716535433},{"duration":1.3333320000000128,"midi":76,"time":166.66649999999998,"velocity":0.3858267716535433},{"duration":0.6666659999999922,"midi":44,"time":167.333166,"velocity":0.3858267716535433},{"duration":1.3333319999999844,"midi":42,"time":167.999832,"velocity":0.3858267716535433},{"duration":2.6666639999999973,"midi":66,"time":167.999832,"velocity":0.3858267716535433},{"duration":2.6666639999999973,"midi":73,"time":167.999832,"velocity":0.3858267716535433},{"duration":1.3333320000000128,"midi":42,"time":169.33316399999998,"velocity":0.3858267716535433},{"duration":2.6666639999999973,"midi":73,"time":170.666496,"velocity":0.3858267716535433},{"duration":1.3333320000000128,"midi":40,"time":170.666496,"velocity":0.3858267716535433},{"duration":2.6666639999999973,"midi":64,"time":170.666496,"velocity":0.3858267716535433},{"duration":1.3333319999999844,"midi":40,"time":171.999828,"velocity":0.3858267716535433},{"duration":1.3333320000000128,"midi":69,"time":173.33316,"velocity":0.3858267716535433},{"duration":1.3333320000000128,"midi":33,"time":173.33316,"velocity":0.3858267716535433},{"duration":0.49999950000000126,"midi":73,"time":173.33316,"velocity":0.3858267716535433},{"duration":1.3333320000000128,"midi":64,"time":173.33316,"velocity":0.3858267716535433},{"duration":0.16666649999999095,"midi":85,"time":173.33316,"velocity":0.3858267716535433},{"duration":0.16666650000001937,"midi":80,"time":173.49982649999998,"velocity":0.3858267716535433},{"duration":0.8333324999999832,"midi":73,"time":173.666493,"velocity":0.3858267716535433},{"duration":0.16666649999999095,"midi":68,"time":173.8331595,"velocity":0.3858267716535433},{"duration":0.16666650000001937,"midi":85,"time":173.99982599999998,"velocity":0.3858267716535433},{"duration":0.16666649999999095,"midi":80,"time":174.1664925,"velocity":0.3858267716535433},{"duration":0.3333330000000103,"midi":73,"time":174.333159,"velocity":0.3858267716535433},{"duration":0.16666650000001937,"midi":68,"time":174.4998255,"velocity":0.3858267716535433},{"duration":0.16666649999999095,"midi":85,"time":174.666492,"velocity":0.3858267716535433},{"duration":1.3333319999999844,"midi":35,"time":174.666492,"velocity":0.3858267716535433},{"duration":1.3333319999999844,"midi":71,"time":174.666492,"velocity":0.3858267716535433},{"duration":1.3333319999999844,"midi":66,"time":174.666492,"velocity":0.3858267716535433},{"duration":1.3333319999999844,"midi":63,"time":174.666492,"velocity":0.3858267716535433},{"duration":0.16666649999999095,"midi":80,"time":174.8331585,"velocity":0.3858267716535433},{"duration":0.16666650000001937,"midi":73,"time":174.999825,"velocity":0.3858267716535433},{"duration":0.16666649999999095,"midi":68,"time":175.1664915,"velocity":0.3858267716535433},{"duration":0.16666649999999095,"midi":85,"time":175.333158,"velocity":0.3858267716535433},{"duration":0.16666650000001937,"midi":80,"time":175.4998245,"velocity":0.3858267716535433},{"duration":0.16666649999999095,"midi":73,"time":175.666491,"velocity":0.3858267716535433},{"duration":0.16666649999999095,"midi":68,"time":175.8331575,"velocity":0.3858267716535433},{"duration":1.3333320000000128,"midi":37,"time":175.999824,"velocity":0.3858267716535433},{"duration":1.3333320000000128,"midi":63,"time":175.999824,"velocity":0.3858267716535433},{"duration":2.6666639999999973,"midi":61,"time":175.999824,"velocity":0.3858267716535433},{"duration":0.6666659999999922,"midi":68,"time":175.999824,"velocity":0.3858267716535433},{"duration":0.16666650000001937,"midi":85,"time":175.999824,"velocity":0.3858267716535433},{"duration":0.16666649999999095,"midi":80,"time":176.1664905,"velocity":0.3858267716535433},{"duration":0.16666649999999095,"midi":73,"time":176.333157,"velocity":0.3858267716535433},{"duration":0.8333325000000116,"midi":68,"time":176.4998235,"velocity":0.3858267716535433},{"duration":0.16666650000001937,"midi":85,"time":176.66648999999998,"velocity":0.3858267716535433},{"duration":0.16666649999999095,"midi":80,"time":176.8331565,"velocity":0.3858267716535433},{"duration":0.16666649999999095,"midi":73,"time":176.999823,"velocity":0.3858267716535433},{"duration":0.8333325000000116,"midi":68,"time":177.16648949999998,"velocity":0.3858267716535433},{"duration":1.3333319999999844,"midi":37,"time":177.333156,"velocity":0.3858267716535433},{"duration":1.3333319999999844,"midi":64,"time":177.333156,"velocity":0.3858267716535433},{"duration":0.16666649999999095,"midi":85,"time":177.333156,"velocity":0.3858267716535433},{"duration":0.16666649999999095,"midi":80,"time":177.4998225,"velocity":0.3858267716535433},{"duration":0.16666650000001937,"midi":73,"time":177.66648899999998,"velocity":0.3858267716535433},{"duration":0.8333324999999832,"midi":68,"time":177.8331555,"velocity":0.3858267716535433},{"duration":0.16666649999999095,"midi":85,"time":177.999822,"velocity":0.3858267716535433},{"duration":0.16666650000001937,"midi":80,"time":178.16648849999999,"velocity":0.3858267716535433},{"duration":0.16666649999999095,"midi":73,"time":178.333155,"velocity":0.3858267716535433},{"duration":0.16666649999999095,"midi":68,"time":178.4998215,"velocity":0.3858267716535433},{"duration":0.16666650000001937,"midi":85,"time":178.666488,"velocity":0.3858267716535433},{"duration":1.3333320000000128,"midi":71,"time":178.666488,"velocity":0.3858267716535433},{"duration":1.3333320000000128,"midi":76,"time":178.666488,"velocity":0.3858267716535433},{"duration":1.3333320000000128,"midi":80,"time":178.666488,"velocity":0.3858267716535433},{"duration":1.3333320000000128,"midi":35,"time":178.666488,"velocity":0.3858267716535433},{"duration":0.16666649999999095,"midi":78,"time":178.8331545,"velocity":0.3858267716535433},{"duration":0.16666649999999095,"midi":73,"time":178.999821,"velocity":0.3858267716535433},{"duration":0.16666650000001937,"midi":70,"time":179.1664875,"velocity":0.3858267716535433},{"duration":0.16666649999999095,"midi":85,"time":179.333154,"velocity":0.3858267716535433},{"duration":0.16666649999999095,"midi":78,"time":179.4998205,"velocity":0.3858267716535433},{"duration":0.16666650000001937,"midi":73,"time":179.666487,"velocity":0.3858267716535433},{"duration":0.16666649999999095,"midi":70,"time":179.8331535,"velocity":0.3858267716535433},{"duration":1.3333319999999844,"midi":35,"time":179.99982,"velocity":0.3858267716535433},{"duration":1.3333319999999844,"midi":71,"time":179.99982,"velocity":0.3858267716535433},{"duration":0.3333329999999819,"midi":78,"time":179.99982,"velocity":0.3858267716535433},{"duration":0.16666649999999095,"midi":85,"time":179.99982,"velocity":0.3858267716535433},{"duration":1.3333319999999844,"midi":75,"time":179.99982,"velocity":0.3858267716535433},{"duration":0.8333325000000116,"midi":78,"time":180.1664865,"velocity":0.3858267716535433},{"duration":0.16666650000001937,"midi":73,"time":180.33315299999998,"velocity":0.3858267716535433},{"duration":0.16666649999999095,"midi":70,"time":180.4998195,"velocity":0.3858267716535433},{"duration":0.16666649999999095,"midi":85,"time":180.666486,"velocity":0.3858267716535433},{"duration":0.49999950000000126,"midi":78,"time":180.83315249999998,"velocity":0.3858267716535433},{"duration":0.16666649999999095,"midi":73,"time":180.999819,"velocity":0.3858267716535433},{"duration":0.16666649999999095,"midi":70,"time":181.1664855,"velocity":0.3858267716535433},{"duration":2.6666639999999973,"midi":66,"time":181.33315199999998,"velocity":0.3858267716535433},{"duration":0.49999950000000126,"midi":73,"time":181.33315199999998,"velocity":0.3858267716535433},{"duration":0.6666660000000206,"midi":70,"time":181.33315199999998,"velocity":0.3858267716535433},{"duration":0.16666650000001937,"midi":85,"time":181.33315199999998,"velocity":0.3858267716535433},{"duration":1.3333320000000128,"midi":30,"time":181.33315199999998,"velocity":0.3858267716535433},{"duration":0.16666649999999095,"midi":78,"time":181.4998185,"velocity":0.3858267716535433},{"duration":0.8333325000000116,"midi":73,"time":181.666485,"velocity":0.3858267716535433},{"duration":0.8333325000000116,"midi":70,"time":181.83315149999999,"velocity":0.3858267716535433},{"duration":0.16666649999999095,"midi":85,"time":181.999818,"velocity":0.3858267716535433},{"duration":0.16666649999999095,"midi":78,"time":182.1664845,"velocity":0.3858267716535433},{"duration":0.8333325000000116,"midi":73,"time":182.333151,"velocity":0.3858267716535433},{"duration":0.8333324999999832,"midi":70,"time":182.4998175,"velocity":0.3858267716535433},{"duration":1.3333319999999844,"midi":30,"time":182.666484,"velocity":0.3858267716535433},{"duration":0.16666649999999095,"midi":85,"time":182.666484,"velocity":0.3858267716535433},{"duration":0.16666650000001937,"midi":78,"time":182.8331505,"velocity":0.3858267716535433},{"duration":0.8333324999999832,"midi":73,"time":182.999817,"velocity":0.3858267716535433},{"duration":0.8333324999999832,"midi":70,"time":183.1664835,"velocity":0.3858267716535433},{"duration":0.16666650000001937,"midi":85,"time":183.33315,"velocity":0.3858267716535433},{"duration":0.16666649999999095,"midi":78,"time":183.4998165,"velocity":0.3858267716535433},{"duration":0.3333329999999819,"midi":73,"time":183.666483,"velocity":0.3858267716535433},{"duration":0.16666649999999095,"midi":70,"time":183.8331495,"velocity":0.3858267716535433},{"duration":1.3333320000000128,"midi":33,"time":183.99981599999998,"velocity":0.3858267716535433},{"duration":0.6666660000000206,"midi":73,"time":183.99981599999998,"velocity":0.3858267716535433},{"duration":1.3333320000000128,"midi":66,"time":183.99981599999998,"velocity":0.3858267716535433},{"duration":1.3333320000000128,"midi":69,"time":183.99981599999998,"velocity":0.3858267716535433},{"duration":0.16666650000001937,"midi":85,"time":183.99981599999998,"velocity":0.3858267716535433},{"duration":0.16666649999999095,"midi":81,"time":184.1664825,"velocity":0.3858267716535433},{"duration":0.16666649999999095,"midi":76,"time":184.333149,"velocity":0.3858267716535433},{"duration":0.8333325000000116,"midi":73,"time":184.49981549999998,"velocity":0.3858267716535433},{"duration":0.16666649999999095,"midi":85,"time":184.666482,"velocity":0.3858267716535433},{"duration":0.16666649999999095,"midi":81,"time":184.8331485,"velocity":0.3858267716535433},{"duration":0.16666650000001937,"midi":76,"time":184.99981499999998,"velocity":0.3858267716535433},{"duration":0.16666649999999095,"midi":73,"time":185.1664815,"velocity":0.3858267716535433},{"duration":0.16666649999999095,"midi":87,"time":185.333148,"velocity":0.3858267716535433},{"duration":1.3333320000000128,"midi":68,"time":185.333148,"velocity":0.3858267716535433},{"duration":0.6666659999999922,"midi":75,"time":185.333148,"velocity":0.3858267716535433},{"duration":1.3333320000000128,"midi":35,"time":185.333148,"velocity":0.3858267716535433},{"duration":1.3333320000000128,"midi":71,"time":185.333148,"velocity":0.3858267716535433},{"duration":0.16666650000001937,"midi":83,"time":185.49981449999999,"velocity":0.3858267716535433},{"duration":0.16666649999999095,"midi":78,"time":185.666481,"velocity":0.3858267716535433},{"duration":0.8333325000000116,"midi":75,"time":185.8331475,"velocity":0.3858267716535433},{"duration":0.16666650000001937,"midi":87,"time":185.999814,"velocity":0.3858267716535433},{"duration":0.16666649999999095,"midi":83,"time":186.1664805,"velocity":0.3858267716535433},{"duration":0.16666649999999095,"midi":78,"time":186.333147,"velocity":0.3858267716535433},{"duration":0.16666650000001937,"midi":75,"time":186.4998135,"velocity":0.3858267716535433},{"duration":0.49999950000000126,"midi":73,"time":186.66648,"velocity":0.3858267716535433},{"duration":0.16666649999999095,"midi":85,"time":186.66648,"velocity":0.3858267716535433},{"duration":1.3333319999999844,"midi":37,"time":186.66648,"velocity":0.3858267716535433},{"duration":0.6666659999999922,"midi":68,"time":186.66648,"velocity":0.3858267716535433},{"duration":1.3333319999999844,"midi":76,"time":186.66648,"velocity":0.3858267716535433},{"duration":0.16666649999999095,"midi":78,"time":186.8331465,"velocity":0.3858267716535433},{"duration":0.8333325000000116,"midi":73,"time":186.999813,"velocity":0.3858267716535433},{"duration":0.8333324999999832,"midi":68,"time":187.1664795,"velocity":0.3858267716535433},{"duration":0.16666649999999095,"midi":85,"time":187.333146,"velocity":0.3858267716535433},{"duration":0.16666649999999095,"midi":78,"time":187.4998125,"velocity":0.3858267716535433},{"duration":0.3333330000000103,"midi":73,"time":187.66647899999998,"velocity":0.3858267716535433},{"duration":0.16666649999999095,"midi":68,"time":187.8331455,"velocity":0.3858267716535433},{"duration":0.16666649999999095,"midi":85,"time":187.999812,"velocity":0.3858267716535433},{"duration":0.6666659999999922,"midi":37,"time":187.999812,"velocity":0.3858267716535433},{"duration":0.6666659999999922,"midi":76,"time":187.999812,"velocity":0.3858267716535433},{"duration":0.6666659999999922,"midi":80,"time":187.999812,"velocity":0.3858267716535433},{"duration":0.49999950000000126,"midi":73,"time":187.999812,"velocity":0.3858267716535433},{"duration":0.16666650000001937,"midi":78,"time":188.16647849999998,"velocity":0.3858267716535433},{"duration":0.3333329999999819,"midi":73,"time":188.333145,"velocity":0.3858267716535433},{"duration":0.16666649999999095,"midi":68,"time":188.4998115,"velocity":0.3858267716535433},{"duration":0.16666650000001937,"midi":85,"time":188.66647799999998,"velocity":0.3858267716535433},{"duration":0.6666660000000206,"midi":35,"time":188.66647799999998,"velocity":0.3858267716535433},{"duration":0.3333330000000103,"midi":78,"time":188.66647799999998,"velocity":0.3858267716535433},{"duration":0.6666660000000206,"midi":71,"time":188.66647799999998,"velocity":0.3858267716535433},{"duration":0.6666660000000206,"midi":75,"time":188.66647799999998,"velocity":0.3858267716535433},{"duration":0.49999950000000126,"midi":78,"time":188.8331445,"velocity":0.3858267716535433},{"duration":0.16666649999999095,"midi":73,"time":188.999811,"velocity":0.3858267716535433},{"duration":0.16666650000001937,"midi":68,"time":189.16647749999998,"velocity":0.3858267716535433},{"duration":0.3333329999999819,"midi":78,"time":189.333144,"velocity":0.3858267716535433},{"duration":0.6666659999999922,"midi":70,"time":189.333144,"velocity":0.3858267716535433},{"duration":0.16666649999999095,"midi":85,"time":189.333144,"velocity":0.3858267716535433},{"duration":1.3333319999999844,"midi":34,"time":189.333144,"velocity":0.3858267716535433},{"duration":0.49999950000000126,"midi":73,"time":189.333144,"velocity":0.3858267716535433},{"duration":0.8333325000000116,"midi":78,"time":189.4998105,"velocity":0.3858267716535433},{"duration":0.8333325000000116,"midi":73,"time":189.666477,"velocity":0.3858267716535433},{"duration":0.8333324999999832,"midi":70,"time":189.8331435,"velocity":0.3858267716535433},{"duration":0.16666649999999095,"midi":85,"time":189.99981,"velocity":0.3858267716535433},{"duration":0.49999950000000126,"midi":78,"time":190.1664765,"velocity":0.3858267716535433},{"duration":0.3333329999999819,"midi":73,"time":190.333143,"velocity":0.3858267716535433},{"duration":0.16666649999999095,"midi":70,"time":190.4998095,"velocity":0.3858267716535433},{"duration":0.16666650000001937,"midi":85,"time":190.666476,"velocity":0.3858267716535433},{"duration":0.49999950000000126,"midi":73,"time":190.666476,"velocity":0.3858267716535433},{"duration":1.3333320000000128,"midi":66,"time":190.666476,"velocity":0.3858267716535433},{"duration":0.6666659999999922,"midi":70,"time":190.666476,"velocity":0.3858267716535433},{"duration":1.3333320000000128,"midi":30,"time":190.666476,"velocity":0.3858267716535433},{"duration":0.16666649999999095,"midi":78,"time":190.8331425,"velocity":0.3858267716535433},{"duration":0.8333324999999832,"midi":73,"time":190.999809,"velocity":0.3858267716535433},{"duration":0.8333325000000116,"midi":70,"time":191.1664755,"velocity":0.3858267716535433},{"duration":0.16666650000001937,"midi":85,"time":191.33314199999998,"velocity":0.3858267716535433},{"duration":0.16666649999999095,"midi":78,"time":191.4998085,"velocity":0.3858267716535433},{"duration":0.3333330000000103,"midi":73,"time":191.666475,"velocity":0.3858267716535433},{"duration":0.16666650000001937,"midi":70,"time":191.83314149999998,"velocity":0.3858267716535433},{"duration":1.3333319999999844,"midi":30,"time":191.999808,"velocity":0.3858267716535433},{"duration":0.3333329999999819,"midi":76,"time":191.999808,"velocity":0.3858267716535433},{"duration":0.16666649999999095,"midi":85,"time":191.999808,"velocity":0.3858267716535433},{"duration":0.8333325000000116,"midi":76,"time":192.1664745,"velocity":0.3858267716535433},{"duration":0.16666650000001937,"midi":73,"time":192.33314099999998,"velocity":0.3858267716535433},{"duration":0.16666649999999095,"midi":69,"time":192.4998075,"velocity":0.3858267716535433},{"duration":0.16666649999999095,"midi":85,"time":192.666474,"velocity":0.3858267716535433},{"duration":0.49999950000000126,"midi":76,"time":192.83314049999998,"velocity":0.3858267716535433},{"duration":0.16666649999999095,"midi":73,"time":192.999807,"velocity":0.3858267716535433},{"duration":0.16666649999999095,"midi":69,"time":193.1664735,"velocity":0.3858267716535433},{"duration":0.16666650000001937,"midi":87,"time":193.33314,"velocity":0.3858267716535433},{"duration":1.3333320000000128,"midi":32,"time":193.33314,"velocity":0.3858267716535433},{"duration":0.49999950000000126,"midi":78,"time":193.33314,"velocity":0.3858267716535433},{"duration":0.16666649999999095,"midi":83,"time":193.4998065,"velocity":0.3858267716535433},{"duration":0.8333325000000116,"midi":78,"time":193.666473,"velocity":0.3858267716535433},{"duration":0.16666650000001937,"midi":75,"time":193.8331395,"velocity":0.3858267716535433},{"duration":0.16666649999999095,"midi":87,"time":193.999806,"velocity":0.3858267716535433},{"duration":0.16666649999999095,"midi":83,"time":194.1664725,"velocity":0.3858267716535433},{"duration":0.3333330000000103,"midi":78,"time":194.333139,"velocity":0.3858267716535433},{"duration":0.16666649999999095,"midi":75,"time":194.4998055,"velocity":0.3858267716535433},{"duration":2.6666639999999973,"midi":80,"time":194.666472,"velocity":0.3858267716535433},{"duration":2.6666639999999973,"midi":76,"time":194.666472,"velocity":0.3858267716535433},{"duration":1.3333319999999844,"midi":33,"time":194.666472,"velocity":0.3858267716535433},{"duration":2.6666639999999973,"midi":85,"time":194.666472,"velocity":0.3858267716535433},{"duration":2.6666639999999973,"midi":69,"time":194.666472,"velocity":0.3858267716535433},{"duration":2.6666639999999973,"midi":73,"time":194.666472,"velocity":0.3858267716535433},{"duration":1.3333320000000128,"midi":33,"time":195.99980399999998,"velocity":0.3858267716535433},{"duration":2.6666639999999973,"midi":73,"time":197.333136,"velocity":0.3858267716535433},{"duration":2.6666639999999973,"midi":76,"time":197.333136,"velocity":0.3858267716535433},{"duration":2.6666639999999973,"midi":71,"time":197.333136,"velocity":0.3858267716535433},{"duration":1.3333319999999844,"midi":35,"time":197.333136,"velocity":0.3858267716535433},{"duration":2.6666639999999973,"midi":85,"time":197.333136,"velocity":0.3858267716535433},{"duration":2.6666639999999973,"midi":80,"time":197.333136,"velocity":0.3858267716535433},{"duration":1.3333320000000128,"midi":35,"time":198.66646799999998,"velocity":0.3858267716535433},{"duration":0.3333330000000103,"midi":49,"time":199.9998,"velocity":0.3858267716535433},{"duration":1.3333320000000128,"midi":61,"time":199.9998,"velocity":0.3858267716535433},{"duration":1.3333320000000128,"midi":68,"time":199.9998,"velocity":0.3858267716535433},{"duration":1.3333320000000128,"midi":64,"time":199.9998,"velocity":0.3858267716535433},{"duration":0.49999950000000126,"midi":37,"time":200.333133,"velocity":0.3858267716535433},{"duration":0.49999950000000126,"midi":37,"time":200.8331325,"velocity":0.3858267716535433},{"duration":1.3333319999999844,"midi":69,"time":201.333132,"velocity":0.3858267716535433},{"duration":0.49999950000000126,"midi":37,"time":201.333132,"velocity":0.3858267716535433},{"duration":1.3333319999999844,"midi":61,"time":201.333132,"velocity":0.3858267716535433},{"duration":1.3333319999999844,"midi":64,"time":201.333132,"velocity":0.3858267716535433},{"duration":0.3333329999999819,"midi":37,"time":201.8331315,"velocity":0.3858267716535433},{"duration":0.16666649999999095,"midi":37,"time":202.1664645,"velocity":0.3858267716535433},{"duration":0.16666650000001937,"midi":42,"time":202.33313099999998,"velocity":0.3858267716535433},{"duration":0.16666649999999095,"midi":44,"time":202.4997975,"velocity":0.3858267716535433},{"duration":1.3333320000000128,"midi":71,"time":202.666464,"velocity":0.3858267716535433},{"duration":0.3333330000000103,"midi":37,"time":202.666464,"velocity":0.3858267716535433},{"duration":1.3333320000000128,"midi":59,"time":202.666464,"velocity":0.3858267716535433},{"duration":1.3333320000000128,"midi":63,"time":202.666464,"velocity":0.3858267716535433},{"duration":0.49999950000000126,"midi":37,"time":202.999797,"velocity":0.3858267716535433},{"duration":0.49999950000000126,"midi":37,"time":203.4997965,"velocity":0.3858267716535433},{"duration":1.3333319999999844,"midi":59,"time":203.999796,"velocity":0.3858267716535433},{"duration":1.3333319999999844,"midi":63,"time":203.999796,"velocity":0.3858267716535433},{"duration":1.3333319999999844,"midi":66,"time":203.999796,"velocity":0.3858267716535433},{"duration":0.49999950000000126,"midi":37,"time":203.999796,"velocity":0.3858267716535433},{"duration":0.16666649999999095,"midi":37,"time":204.4997955,"velocity":0.3858267716535433},{"duration":0.16666649999999095,"midi":37,"time":204.666462,"velocity":0.3858267716535433},{"duration":0.16666650000001937,"midi":42,"time":204.8331285,"velocity":0.3858267716535433},{"duration":0.16666649999999095,"midi":44,"time":204.999795,"velocity":0.3858267716535433},{"duration":0.16666649999999095,"midi":47,"time":205.1664615,"velocity":0.3858267716535433},{"duration":1.3333320000000128,"midi":61,"time":205.333128,"velocity":0.3858267716535433},{"duration":1.3333320000000128,"midi":68,"time":205.333128,"velocity":0.3858267716535433},{"duration":0.3333330000000103,"midi":49,"time":205.333128,"velocity":0.3858267716535433},{"duration":1.3333320000000128,"midi":64,"time":205.333128,"velocity":0.3858267716535433},{"duration":0.49999950000000126,"midi":37,"time":205.666461,"velocity":0.3858267716535433},{"duration":0.49999950000000126,"midi":37,"time":206.1664605,"velocity":0.3858267716535433},{"duration":1.3333319999999844,"midi":69,"time":206.66646,"velocity":0.3858267716535433},{"duration":1.3333319999999844,"midi":61,"time":206.66646,"velocity":0.3858267716535433},{"duration":1.3333319999999844,"midi":64,"time":206.66646,"velocity":0.3858267716535433},{"duration":0.49999950000000126,"midi":37,"time":206.66646,"velocity":0.3858267716535433},{"duration":0.3333329999999819,"midi":37,"time":207.1664595,"velocity":0.3858267716535433},{"duration":0.16666650000001937,"midi":37,"time":207.49979249999998,"velocity":0.3858267716535433},{"duration":0.16666649999999095,"midi":42,"time":207.666459,"velocity":0.3858267716535433},{"duration":0.16666649999999095,"midi":44,"time":207.8331255,"velocity":0.3858267716535433},{"duration":1.3333320000000128,"midi":59,"time":207.99979199999999,"velocity":0.3858267716535433},{"duration":1.3333320000000128,"midi":63,"time":207.99979199999999,"velocity":0.3858267716535433},{"duration":1.3333320000000128,"midi":71,"time":207.99979199999999,"velocity":0.3858267716535433},{"duration":0.3333330000000103,"midi":37,"time":207.99979199999999,"velocity":0.3858267716535433},{"duration":0.49999950000000126,"midi":37,"time":208.333125,"velocity":0.3858267716535433},{"duration":0.49999950000000126,"midi":37,"time":208.8331245,"velocity":0.3858267716535433},{"duration":0.49999950000000126,"midi":37,"time":209.333124,"velocity":0.3858267716535433},{"duration":1.3333319999999844,"midi":59,"time":209.333124,"velocity":0.3858267716535433},{"duration":1.3333319999999844,"midi":66,"time":209.333124,"velocity":0.3858267716535433},{"duration":1.3333319999999844,"midi":63,"time":209.333124,"velocity":0.3858267716535433},{"duration":0.16666649999999095,"midi":37,"time":209.8331235,"velocity":0.3858267716535433},{"duration":0.16666649999999095,"midi":37,"time":209.99979,"velocity":0.3858267716535433},{"duration":0.16666650000001937,"midi":42,"time":210.16645649999998,"velocity":0.3858267716535433},{"duration":0.16666649999999095,"midi":44,"time":210.333123,"velocity":0.3858267716535433},{"duration":0.16666649999999095,"midi":49,"time":210.4997895,"velocity":0.3858267716535433},{"duration":0.3333330000000103,"midi":50,"time":210.66645599999998,"velocity":0.3858267716535433},{"duration":1.3333320000000128,"midi":62,"time":210.66645599999998,"velocity":0.3858267716535433},{"duration":1.3333320000000128,"midi":66,"time":210.66645599999998,"velocity":0.3858267716535433},{"duration":1.3333320000000128,"midi":69,"time":210.66645599999998,"velocity":0.3858267716535433},{"duration":0.49999950000000126,"midi":38,"time":210.999789,"velocity":0.3858267716535433},{"duration":0.49999950000000126,"midi":38,"time":211.4997885,"velocity":0.3858267716535433},{"duration":1.3333320000000128,"midi":66,"time":211.999788,"velocity":0.3858267716535433},{"duration":1.3333320000000128,"midi":62,"time":211.999788,"velocity":0.3858267716535433},{"duration":0.49999950000000126,"midi":38,"time":211.999788,"velocity":0.3858267716535433},{"duration":1.3333320000000128,"midi":73,"time":211.999788,"velocity":0.3858267716535433},{"duration":0.3333330000000103,"midi":38,"time":212.4997875,"velocity":0.3858267716535433},{"duration":0.16666649999999095,"midi":38,"time":212.8331205,"velocity":0.3858267716535433},{"duration":0.16666649999999095,"midi":42,"time":212.999787,"velocity":0.3858267716535433},{"duration":0.16666650000001937,"midi":45,"time":213.1664535,"velocity":0.3858267716535433},{"duration":0.3333329999999819,"midi":38,"time":213.33312,"velocity":0.3858267716535433},{"duration":1.3333319999999844,"midi":62,"time":213.33312,"velocity":0.3858267716535433},{"duration":1.3333319999999844,"midi":66,"time":213.33312,"velocity":0.3858267716535433},{"duration":1.3333319999999844,"midi":71,"time":213.33312,"velocity":0.3858267716535433},{"duration":0.49999950000000126,"midi":38,"time":213.666453,"velocity":0.3858267716535433},{"duration":0.49999950000000126,"midi":38,"time":214.1664525,"velocity":0.3858267716535433},{"duration":1.3333320000000128,"midi":62,"time":214.666452,"velocity":0.3858267716535433},{"duration":1.3333320000000128,"midi":66,"time":214.666452,"velocity":0.3858267716535433},{"duration":0.49999950000000126,"midi":38,"time":214.666452,"velocity":0.3858267716535433},{"duration":1.3333320000000128,"midi":69,"time":214.666452,"velocity":0.3858267716535433},{"duration":0.16666649999999095,"midi":38,"time":215.1664515,"velocity":0.3858267716535433},{"duration":0.16666650000001937,"midi":38,"time":215.33311799999998,"velocity":0.3858267716535433},{"duration":0.16666649999999095,"midi":38,"time":215.4997845,"velocity":0.3858267716535433},{"duration":0.16666649999999095,"midi":42,"time":215.666451,"velocity":0.3858267716535433},{"duration":0.16666650000001937,"midi":45,"time":215.8331175,"velocity":0.3858267716535433},{"duration":0.3333329999999819,"midi":37,"time":215.999784,"velocity":0.3858267716535433},{"duration":2.6666639999999973,"midi":61,"time":215.999784,"velocity":0.3858267716535433},{"duration":2.6666639999999973,"midi":68,"time":215.999784,"velocity":0.3858267716535433},{"duration":2.6666639999999973,"midi":64,"time":215.999784,"velocity":0.3858267716535433},{"duration":0.49999950000000126,"midi":37,"time":216.333117,"velocity":0.3858267716535433},{"duration":0.49999950000000126,"midi":37,"time":216.8331165,"velocity":0.3858267716535433},{"duration":0.49999950000000126,"midi":37,"time":217.333116,"velocity":0.3858267716535433},{"duration":0.3333330000000103,"midi":37,"time":217.8331155,"velocity":0.3858267716535433},{"duration":0.16666649999999095,"midi":37,"time":218.1664485,"velocity":0.3858267716535433},{"duration":0.16666649999999095,"midi":42,"time":218.333115,"velocity":0.3858267716535433},{"duration":0.16666650000001937,"midi":44,"time":218.49978149999998,"velocity":0.3858267716535433},{"duration":2.6666639999999973,"midi":68,"time":218.666448,"velocity":0.3858267716535433},{"duration":0.3333329999999819,"midi":35,"time":218.666448,"velocity":0.3858267716535433},{"duration":2.6666639999999973,"midi":59,"time":218.666448,"velocity":0.3858267716535433},{"duration":2.6666639999999973,"midi":63,"time":218.666448,"velocity":0.3858267716535433},{"duration":2.6666639999999973,"midi":66,"time":218.666448,"velocity":0.3858267716535433},{"duration":0.49999950000000126,"midi":35,"time":218.99978099999998,"velocity":0.3858267716535433},{"duration":0.49999950000000126,"midi":35,"time":219.49978049999999,"velocity":0.3858267716535433},{"duration":0.49999950000000126,"midi":35,"time":219.99978,"velocity":0.3858267716535433},{"duration":0.3333330000000103,"midi":35,"time":220.4997795,"velocity":0.3858267716535433},{"duration":0.16666649999999095,"midi":35,"time":220.8331125,"velocity":0.3858267716535433},{"duration":0.16666649999999095,"midi":42,"time":220.999779,"velocity":0.3858267716535433},{"duration":0.16666650000001937,"midi":44,"time":221.16644549999998,"velocity":0.3858267716535433},{"duration":2.6666639999999973,"midi":57,"time":221.333112,"velocity":0.3858267716535433},{"duration":0.3333329999999819,"midi":33,"time":221.333112,"velocity":0.3858267716535433},{"duration":2.6666639999999973,"midi":64,"time":221.333112,"velocity":0.3858267716535433},{"duration":2.6666639999999973,"midi":61,"time":221.333112,"velocity":0.3858267716535433},{"duration":0.49999950000000126,"midi":33,"time":221.66644499999998,"velocity":0.3858267716535433},{"duration":0.49999950000000126,"midi":33,"time":222.16644449999998,"velocity":0.3858267716535433},{"duration":0.49999950000000126,"midi":33,"time":222.66644399999998,"velocity":0.3858267716535433},{"duration":0.3333330000000103,"midi":33,"time":223.16644349999999,"velocity":0.3858267716535433},{"duration":0.16666649999999095,"midi":33,"time":223.4997765,"velocity":0.3858267716535433},{"duration":0.16666650000001937,"midi":40,"time":223.666443,"velocity":0.3858267716535433},{"duration":0.16666649999999095,"midi":42,"time":223.8331095,"velocity":0.3858267716535433},{"duration":2.6666639999999973,"midi":63,"time":223.999776,"velocity":0.3858267716535433},{"duration":0.3333330000000103,"midi":35,"time":223.999776,"velocity":0.3858267716535433},{"duration":2.6666639999999973,"midi":66,"time":223.999776,"velocity":0.3858267716535433},{"duration":2.6666639999999973,"midi":59,"time":223.999776,"velocity":0.3858267716535433},{"duration":0.49999949999997284,"midi":35,"time":224.333109,"velocity":0.3858267716535433},{"duration":0.49999950000000126,"midi":35,"time":224.83310849999998,"velocity":0.3858267716535433},{"duration":0.49999950000000126,"midi":35,"time":225.33310799999998,"velocity":0.3858267716535433},{"duration":0.3333330000000103,"midi":35,"time":225.83310749999998,"velocity":0.3858267716535433},{"duration":0.16666649999999095,"midi":35,"time":226.1664405,"velocity":0.3858267716535433},{"duration":0.16666650000001937,"midi":42,"time":226.33310699999998,"velocity":0.3858267716535433},{"duration":0.16666649999999095,"midi":44,"time":226.4997735,"velocity":0.3858267716535433},{"duration":2.6666639999999973,"midi":57,"time":226.66644,"velocity":0.3858267716535433},{"duration":2.6666639999999973,"midi":64,"time":226.66644,"velocity":0.3858267716535433},{"duration":0.3333330000000103,"midi":42,"time":226.66644,"velocity":0.3858267716535433},{"duration":2.6666639999999973,"midi":61,"time":226.66644,"velocity":0.3858267716535433},{"duration":0.49999950000000126,"midi":42,"time":226.999773,"velocity":0.3858267716535433},{"duration":0.49999950000000126,"midi":42,"time":227.4997725,"velocity":0.3858267716535433},{"duration":0.49999949999997284,"midi":42,"time":227.999772,"velocity":0.3858267716535433},{"duration":0.3333330000000103,"midi":42,"time":228.49977149999998,"velocity":0.3858267716535433},{"duration":0.16666649999999095,"midi":42,"time":228.8331045,"velocity":0.3858267716535433},{"duration":0.16666650000001937,"midi":44,"time":228.99977099999998,"velocity":0.3858267716535433},{"duration":0.16666649999999095,"midi":49,"time":229.1664375,"velocity":0.3858267716535433},{"duration":2.6666639999999973,"midi":59,"time":229.333104,"velocity":0.3858267716535433},{"duration":2.6666639999999973,"midi":63,"time":229.333104,"velocity":0.3858267716535433},{"duration":0.3333330000000103,"midi":44,"time":229.333104,"velocity":0.3858267716535433},{"duration":2.6666639999999973,"midi":66,"time":229.333104,"velocity":0.3858267716535433},{"duration":0.49999950000000126,"midi":44,"time":229.666437,"velocity":0.3858267716535433},{"duration":0.49999950000000126,"midi":44,"time":230.1664365,"velocity":0.3858267716535433},{"duration":0.49999950000000126,"midi":44,"time":230.666436,"velocity":0.3858267716535433},{"duration":0.3333329999999819,"midi":44,"time":231.1664355,"velocity":0.3858267716535433},{"duration":0.16666650000001937,"midi":44,"time":231.4997685,"velocity":0.3858267716535433},{"duration":0.16666649999999095,"midi":46,"time":231.666435,"velocity":0.3858267716535433},{"duration":0.16666649999999095,"midi":53,"time":231.8331015,"velocity":0.3858267716535433},{"duration":2.6666639999999973,"midi":73,"time":231.999768,"velocity":0.3858267716535433},{"duration":2.6666639999999973,"midi":70,"time":231.999768,"velocity":0.3858267716535433},{"duration":0.3333330000000103,"midi":51,"time":231.999768,"velocity":0.3858267716535433},{"duration":2.6666639999999973,"midi":65,"time":231.999768,"velocity":0.3858267716535433},{"duration":0.49999950000000126,"midi":51,"time":232.333101,"velocity":0.3858267716535433},{"duration":0.49999950000000126,"midi":51,"time":232.8331005,"velocity":0.3858267716535433},{"duration":0.49999950000000126,"midi":51,"time":233.3331,"velocity":0.3858267716535433},{"duration":0.3333329999999819,"midi":51,"time":233.8330995,"velocity":0.3858267716535433},{"duration":0.16666650000001937,"midi":51,"time":234.16643249999998,"velocity":0.3858267716535433},{"duration":0.16666649999999095,"midi":46,"time":234.333099,"velocity":0.3858267716535433},{"duration":0.16666649999999095,"midi":39,"time":234.4997655,"velocity":0.3858267716535433},{"duration":2.6666639999999973,"midi":73,"time":234.666432,"velocity":0.3858267716535433},{"duration":2.6666639999999973,"midi":69,"time":234.666432,"velocity":0.3858267716535433},{"duration":2.6666639999999973,"midi":62,"time":234.666432,"velocity":0.3858267716535433},{"duration":0.3333330000000103,"midi":38,"time":234.666432,"velocity":0.3858267716535433},{"duration":0.49999950000000126,"midi":38,"time":234.999765,"velocity":0.3858267716535433},{"duration":0.49999950000000126,"midi":38,"time":235.4997645,"velocity":0.3858267716535433},{"duration":0.49999950000000126,"midi":38,"time":235.999764,"velocity":0.3858267716535433},{"duration":0.16666649999999095,"midi":38,"time":236.4997635,"velocity":0.3858267716535433},{"duration":0.16666649999999095,"midi":38,"time":236.66643,"velocity":0.3858267716535433},{"duration":0.16666650000001937,"midi":38,"time":236.83309649999998,"velocity":0.3858267716535433},{"duration":0.16666649999999095,"midi":42,"time":236.999763,"velocity":0.3858267716535433},{"duration":0.16666649999999095,"midi":45,"time":237.1664295,"velocity":0.3858267716535433},{"duration":2.6666639999999973,"midi":71,"time":237.33309599999998,"velocity":0.3858267716535433},{"duration":2.6666639999999973,"midi":67,"time":237.33309599999998,"velocity":0.3858267716535433},{"duration":2.6666639999999973,"midi":74,"time":237.33309599999998,"velocity":0.3858267716535433},{"duration":0.3333330000000103,"midi":43,"time":237.33309599999998,"velocity":0.3858267716535433},{"duration":0.49999950000000126,"midi":43,"time":237.666429,"velocity":0.3858267716535433},{"duration":0.49999950000000126,"midi":43,"time":238.1664285,"velocity":0.3858267716535433},{"duration":0.49999950000000126,"midi":43,"time":238.666428,"velocity":0.3858267716535433},{"duration":0.16666649999999095,"midi":43,"time":239.1664275,"velocity":0.3858267716535433},{"duration":0.16666649999999095,"midi":43,"time":239.333094,"velocity":0.3858267716535433},{"duration":0.16666650000001937,"midi":43,"time":239.49976049999998,"velocity":0.3858267716535433},{"duration":0.16666649999999095,"midi":45,"time":239.666427,"velocity":0.3858267716535433},{"duration":0.16666649999999095,"midi":50,"time":239.8330935,"velocity":0.3858267716535433},{"duration":0.3333330000000103,"midi":44,"time":239.99975999999998,"velocity":0.3858267716535433},{"duration":1.3333320000000128,"midi":73,"time":239.99975999999998,"velocity":0.3858267716535433},{"duration":1.3333320000000128,"midi":64,"time":239.99975999999998,"velocity":0.3858267716535433},{"duration":1.3333320000000128,"midi":68,"time":239.99975999999998,"velocity":0.3858267716535433},{"duration":0.49999950000000126,"midi":44,"time":240.333093,"velocity":0.3858267716535433},{"duration":0.49999950000000126,"midi":44,"time":240.8330925,"velocity":0.3858267716535433},{"duration":1.3333320000000128,"midi":68,"time":241.333092,"velocity":0.3858267716535433},{"duration":1.3333320000000128,"midi":63,"time":241.333092,"velocity":0.3858267716535433},{"duration":1.3333320000000128,"midi":72,"time":241.333092,"velocity":0.3858267716535433},{"duration":1.3333320000000128,"midi":44,"time":241.333092,"velocity":0.3858267716535433},{"duration":0.49999949999997284,"midi":37,"time":242.666424,"velocity":0.3858267716535433},{"duration":1.3333319999999844,"midi":56,"time":242.666424,"velocity":0.3858267716535433},{"duration":1.3333319999999844,"midi":61,"time":242.666424,"velocity":0.3858267716535433},{"duration":1.3333319999999844,"midi":64,"time":242.666424,"velocity":0.3858267716535433},{"duration":0.6666659999999922,"midi":37,"time":242.666424,"velocity":0.3858267716535433},{"duration":0.3333330000000103,"midi":37,"time":243.16642349999998,"velocity":0.3858267716535433},{"duration":0.6666659999999922,"midi":37,"time":243.33309,"velocity":0.3858267716535433},{"duration":0.16666649999999095,"midi":39,"time":243.4997565,"velocity":0.3858267716535433},{"duration":0.16666650000001937,"midi":40,"time":243.66642299999998,"velocity":0.3858267716535433},{"duration":0.16666649999999095,"midi":42,"time":243.8330895,"velocity":0.3858267716535433},{"duration":0.49999950000000126,"midi":44,"time":243.999756,"velocity":0.3858267716535433},{"duration":1.3333320000000128,"midi":56,"time":243.999756,"velocity":0.3858267716535433},{"duration":1.3333320000000128,"midi":63,"time":243.999756,"velocity":0.3858267716535433},{"duration":0.6666659999999922,"midi":44,"time":243.999756,"velocity":0.3858267716535433},{"duration":1.3333320000000128,"midi":59,"time":243.999756,"velocity":0.3858267716535433},{"duration":0.3333330000000103,"midi":44,"time":244.4997555,"velocity":0.3858267716535433},{"duration":0.6666660000000206,"midi":44,"time":244.66642199999998,"velocity":0.3858267716535433},{"duration":0.16666649999999095,"midi":45,"time":244.8330885,"velocity":0.3858267716535433},{"duration":0.16666649999999095,"midi":47,"time":244.999755,"velocity":0.3858267716535433},{"duration":0.16666650000001937,"midi":44,"time":245.16642149999998,"velocity":0.3858267716535433},{"duration":1.3333319999999844,"midi":57,"time":245.333088,"velocity":0.3858267716535433},{"duration":1.3333319999999844,"midi":64,"time":245.333088,"velocity":0.3858267716535433},{"duration":0.49999950000000126,"midi":45,"time":245.333088,"velocity":0.3858267716535433},{"duration":1.3333319999999844,"midi":61,"time":245.333088,"velocity":0.3858267716535433},{"duration":0.6666659999999922,"midi":45,"time":245.333088,"velocity":0.3858267716535433},{"duration":0.3333329999999819,"midi":45,"time":245.8330875,"velocity":0.3858267716535433},{"duration":0.49999950000000126,"midi":45,"time":245.999754,"velocity":0.3858267716535433},{"duration":0.16666650000001937,"midi":40,"time":246.1664205,"velocity":0.3858267716535433},{"duration":0.3333329999999819,"midi":45,"time":246.333087,"velocity":0.3858267716535433},{"duration":0.16666649999999095,"midi":52,"time":246.4997535,"velocity":0.3858267716535433},{"duration":1.3333320000000128,"midi":66,"time":246.66642,"velocity":0.3858267716535433},{"duration":1.3333320000000128,"midi":59,"time":246.66642,"velocity":0.3858267716535433},{"duration":0.49999950000000126,"midi":47,"time":246.66642,"velocity":0.3858267716535433},{"duration":1.3333320000000128,"midi":63,"time":246.66642,"velocity":0.3858267716535433},{"duration":0.6666659999999922,"midi":47,"time":246.66642,"velocity":0.3858267716535433},{"duration":0.3333330000000103,"midi":47,"time":247.1664195,"velocity":0.3858267716535433},{"duration":0.6666660000000206,"midi":47,"time":247.33308599999998,"velocity":0.3858267716535433},{"duration":0.16666649999999095,"midi":45,"time":247.4997525,"velocity":0.3858267716535433},{"duration":0.16666649999999095,"midi":44,"time":247.666419,"velocity":0.3858267716535433},{"duration":0.16666650000001937,"midi":40,"time":247.83308549999998,"velocity":0.3858267716535433},{"duration":1.3333319999999844,"midi":54,"time":247.999752,"velocity":0.3858267716535433},{"duration":1.3333319999999844,"midi":57,"time":247.999752,"velocity":0.3858267716535433},{"duration":1.3333319999999844,"midi":61,"time":247.999752,"velocity":0.3858267716535433},{"duration":0.49999950000000126,"midi":42,"time":247.999752,"velocity":0.3858267716535433},{"duration":0.6666659999999922,"midi":42,"time":247.999752,"velocity":0.3858267716535433},{"duration":0.3333329999999819,"midi":42,"time":248.4997515,"velocity":0.3858267716535433},{"duration":0.49999950000000126,"midi":42,"time":248.666418,"velocity":0.3858267716535433},{"duration":0.16666650000001937,"midi":37,"time":248.83308449999998,"velocity":0.3858267716535433},{"duration":0.3333329999999819,"midi":42,"time":248.999751,"velocity":0.3858267716535433},{"duration":0.16666649999999095,"midi":37,"time":249.1664175,"velocity":0.3858267716535433},{"duration":1.3333320000000128,"midi":59,"time":249.33308399999999,"velocity":0.3858267716535433},{"duration":1.3333320000000128,"midi":63,"time":249.33308399999999,"velocity":0.3858267716535433},{"duration":1.3333320000000128,"midi":56,"time":249.33308399999999,"velocity":0.3858267716535433},{"duration":0.49999950000000126,"midi":44,"time":249.33308399999999,"velocity":0.3858267716535433},{"duration":0.6666660000000206,"midi":44,"time":249.33308399999999,"velocity":0.3858267716535433},{"duration":0.3333330000000103,"midi":44,"time":249.8330835,"velocity":0.3858267716535433},{"duration":0.49999949999997284,"midi":44,"time":249.99975,"velocity":0.3858267716535433},{"duration":0.16666649999999095,"midi":42,"time":250.1664165,"velocity":0.3858267716535433},{"duration":0.3333330000000103,"midi":44,"time":250.333083,"velocity":0.3858267716535433},{"duration":0.16666650000001937,"midi":39,"time":250.49974949999998,"velocity":0.3858267716535433},{"duration":1.3333319999999844,"midi":57,"time":250.666416,"velocity":0.3858267716535433},{"duration":1.3333319999999844,"midi":61,"time":250.666416,"velocity":0.3858267716535433},{"duration":0.49999950000000126,"midi":45,"time":250.666416,"velocity":0.3858267716535433},{"duration":0.6666659999999922,"midi":45,"time":250.666416,"velocity":0.3858267716535433},{"duration":1.3333319999999844,"midi":64,"time":250.666416,"velocity":0.3858267716535433},{"duration":0.3333329999999819,"midi":45,"time":251.1664155,"velocity":0.3858267716535433},{"duration":0.6666659999999922,"midi":45,"time":251.333082,"velocity":0.3858267716535433},{"duration":0.16666650000001937,"midi":44,"time":251.49974849999998,"velocity":0.3858267716535433},{"duration":0.16666649999999095,"midi":42,"time":251.666415,"velocity":0.3858267716535433},{"duration":0.16666649999999095,"midi":45,"time":251.8330815,"velocity":0.3858267716535433},{"duration":1.3333320000000128,"midi":59,"time":251.99974799999998,"velocity":0.3858267716535433},{"duration":0.49999950000000126,"midi":47,"time":251.99974799999998,"velocity":0.3858267716535433},{"duration":1.3333320000000128,"midi":63,"time":251.99974799999998,"velocity":0.3858267716535433},{"duration":1.3333320000000128,"midi":66,"time":251.99974799999998,"velocity":0.3858267716535433},{"duration":0.6666660000000206,"midi":47,"time":251.99974799999998,"velocity":0.3858267716535433},{"duration":0.3333330000000103,"midi":47,"time":252.49974749999998,"velocity":0.3858267716535433},{"duration":0.6666659999999922,"midi":47,"time":252.666414,"velocity":0.3858267716535433},{"duration":0.16666649999999095,"midi":44,"time":252.8330805,"velocity":0.3858267716535433},{"duration":0.16666650000001937,"midi":45,"time":252.99974699999999,"velocity":0.3858267716535433},{"duration":0.16666649999999095,"midi":44,"time":253.1664135,"velocity":0.3858267716535433},{"duration":1.3333319999999844,"midi":49,"time":253.33308,"velocity":0.3858267716535433},{"duration":1.3333320000000128,"midi":42,"time":254.66641199999998,"velocity":0.3858267716535433},{"duration":0.16666649999999095,"midi":56,"time":255.999744,"velocity":0.3858267716535433},{"duration":1.3333320000000128,"midi":44,"time":255.999744,"velocity":0.3858267716535433},{"duration":0.16666650000001937,"midi":59,"time":256.1664105,"velocity":0.3858267716535433},{"duration":0.16666649999996253,"midi":56,"time":256.333077,"velocity":0.3858267716535433},{"duration":0.33333300000003874,"midi":63,"time":256.49974349999997,"velocity":0.3858267716535433},{"duration":0.16666649999996253,"midi":56,"time":256.8330765,"velocity":0.3858267716535433},{"duration":0.16666650000001937,"midi":59,"time":256.99974299999997,"velocity":0.3858267716535433},{"duration":0.16666650000001937,"midi":63,"time":257.1664095,"velocity":0.3858267716535433},{"duration":0.6666659999999638,"midi":45,"time":257.333076,"velocity":0.3858267716535433},{"duration":0.16666649999996253,"midi":64,"time":257.333076,"velocity":0.3858267716535433},{"duration":0.16666650000001937,"midi":63,"time":257.49974249999997,"velocity":0.3858267716535433},{"duration":0.16666650000001937,"midi":61,"time":257.666409,"velocity":0.3858267716535433},{"duration":0.16666649999996253,"midi":59,"time":257.8330755,"velocity":0.3858267716535433},{"duration":0.6666660000000206,"midi":47,"time":257.99974199999997,"velocity":0.3858267716535433},{"duration":0.16666650000001937,"midi":63,"time":257.99974199999997,"velocity":0.3858267716535433},{"duration":0.16666650000001937,"midi":61,"time":258.1664085,"velocity":0.3858267716535433},{"duration":0.16666649999996253,"midi":59,"time":258.333075,"velocity":0.3858267716535433},{"duration":0.16666650000001937,"midi":56,"time":258.49974149999997,"velocity":0.3858267716535433},{"duration":0.16666650000001937,"midi":49,"time":258.666408,"velocity":0.3858267716535433},{"duration":1.166665500000022,"midi":49,"time":258.666408,"velocity":0.3858267716535433},{"duration":0.16666649999996253,"midi":56,"time":258.8330745,"velocity":0.3858267716535433},{"duration":0.16666650000001937,"midi":61,"time":258.999741,"velocity":0.3858267716535433},{"duration":0.16666650000001937,"midi":61,"time":259.1664075,"velocity":0.3858267716535433},{"duration":0.16666649999996253,"midi":61,"time":259.333074,"velocity":0.3858267716535433},{"duration":0.16666650000001937,"midi":56,"time":259.4997405,"velocity":0.3858267716535433},{"duration":0.3333329999999819,"midi":49,"time":259.666407,"velocity":0.3858267716535433},{"duration":0.16666649999996253,"midi":49,"time":259.8330735,"velocity":0.3858267716535433},{"duration":0.16666650000001937,"midi":54,"time":259.99974,"velocity":0.3858267716535433},{"duration":1.3333320000000413,"midi":42,"time":259.99974,"velocity":0.3858267716535433},{"duration":0.16666650000001937,"midi":61,"time":260.1664065,"velocity":0.3858267716535433},{"duration":0.16666649999996253,"midi":61,"time":260.333073,"velocity":0.3858267716535433},{"duration":0.16666650000001937,"midi":57,"time":260.4997395,"velocity":0.3858267716535433},{"duration":0.16666650000001937,"midi":49,"time":260.666406,"velocity":0.3858267716535433},{"duration":0.16666649999996253,"midi":54,"time":260.8330725,"velocity":0.3858267716535433},{"duration":0.16666650000001937,"midi":57,"time":260.999739,"velocity":0.3858267716535433},{"duration":0.16666650000001937,"midi":61,"time":261.1664055,"velocity":0.3858267716535433},{"duration":1.3333319999999844,"midi":44,"time":261.333072,"velocity":0.3858267716535433},{"duration":0.16666649999996253,"midi":59,"time":261.333072,"velocity":0.3858267716535433},{"duration":0.16666650000001937,"midi":63,"time":261.4997385,"velocity":0.3858267716535433},{"duration":0.16666650000001937,"midi":68,"time":261.666405,"velocity":0.3858267716535433},{"duration":0.3333329999999819,"midi":71,"time":261.8330715,"velocity":0.3858267716535433},{"duration":0.16666650000001937,"midi":68,"time":262.1664045,"velocity":0.3858267716535433},{"duration":0.16666649999996253,"midi":71,"time":262.333071,"velocity":0.3858267716535433},{"duration":0.16666650000001937,"midi":75,"time":262.4997375,"velocity":0.3858267716535433},{"duration":0.16666650000001937,"midi":73,"time":262.666404,"velocity":0.3858267716535433},{"duration":0.6666660000000206,"midi":45,"time":262.666404,"velocity":0.3858267716535433},{"duration":0.16666649999996253,"midi":68,"time":262.8330705,"velocity":0.3858267716535433},{"duration":0.16666650000001937,"midi":64,"time":262.999737,"velocity":0.3858267716535433},{"duration":0.16666650000001937,"midi":61,"time":263.1664035,"velocity":0.3858267716535433},{"duration":0.16666649999996253,"midi":66,"time":263.33307,"velocity":0.3858267716535433},{"duration":0.3333329999999819,"midi":47,"time":263.33307,"velocity":0.3858267716535433},{"duration":0.16666650000001937,"midi":63,"time":263.4997365,"velocity":0.3858267716535433},{"duration":0.16666649999996253,"midi":68,"time":263.666403,"velocity":0.3858267716535433},{"duration":0.3333329999999819,"midi":49,"time":263.666403,"velocity":0.3858267716535433},{"duration":0.16666650000001937,"midi":64,"time":263.83306949999997,"velocity":0.3858267716535433},{"duration":2.6666640000000257,"midi":47,"time":263.999736,"velocity":0.3858267716535433},{"duration":0.6666660000000206,"midi":69,"time":263.999736,"velocity":0.3858267716535433},{"duration":0.16666649999996253,"midi":69,"time":264.666402,"velocity":0.3858267716535433},{"duration":0.16666650000001937,"midi":68,"time":264.83306849999997,"velocity":0.3858267716535433},{"duration":0.16666650000001937,"midi":69,"time":264.999735,"velocity":0.3858267716535433},{"duration":0.16666649999996253,"midi":71,"time":265.1664015,"velocity":0.3858267716535433},{"duration":0.49999950000000126,"midi":73,"time":265.33306799999997,"velocity":0.3858267716535433},{"duration":0.49999950000000126,"midi":71,"time":265.83306749999997,"velocity":0.3858267716535433},{"duration":0.33333300000003874,"midi":69,"time":266.33306699999997,"velocity":0.3858267716535433},{"duration":0.16666649999996253,"midi":68,"time":266.6664,"velocity":0.3858267716535433},{"duration":1.3333319999999844,"midi":45,"time":266.6664,"velocity":0.3858267716535433},{"duration":0.16666650000001937,"midi":69,"time":266.8330665,"velocity":0.3858267716535433},{"duration":0.16666650000001937,"midi":68,"time":266.999733,"velocity":0.3858267716535433},{"duration":0.3333329999999819,"midi":64,"time":267.1663995,"velocity":0.3858267716535433},{"duration":0.16666650000001937,"midi":64,"time":267.4997325,"velocity":0.3858267716535433},{"duration":0.16666649999996253,"midi":66,"time":267.666399,"velocity":0.3858267716535433},{"duration":0.16666650000001937,"midi":68,"time":267.8330655,"velocity":0.3858267716535433},{"duration":0.6666660000000206,"midi":66,"time":267.999732,"velocity":0.3858267716535433},{"duration":1.3333319999999844,"midi":44,"time":267.999732,"velocity":0.3858267716535433},{"duration":0.3333329999999819,"midi":63,"time":268.666398,"velocity":0.3858267716535433},{"duration":0.3333329999999819,"midi":68,"time":268.999731,"velocity":0.3858267716535433},{"duration":0.16666650000001937,"midi":56,"time":269.333064,"velocity":0.3858267716535433},{"duration":2.6666640000000257,"midi":42,"time":269.333064,"velocity":0.3858267716535433},{"duration":0.16666650000001937,"midi":54,"time":269.4997305,"velocity":0.3858267716535433},{"duration":0.16666649999996253,"midi":61,"time":269.666397,"velocity":0.3858267716535433},{"duration":0.16666650000001937,"midi":63,"time":269.8330635,"velocity":0.3858267716535433},{"duration":0.3333329999999819,"midi":64,"time":269.99973,"velocity":0.3858267716535433},{"duration":0.16666650000001937,"midi":63,"time":270.333063,"velocity":0.3858267716535433},{"duration":0.16666650000001937,"midi":61,"time":270.4997295,"velocity":0.3858267716535433},{"duration":0.16666649999996253,"midi":68,"time":270.666396,"velocity":0.3858267716535433},{"duration":0.16666650000001937,"midi":66,"time":270.8330625,"velocity":0.3858267716535433},{"duration":0.16666649999996253,"midi":64,"time":270.999729,"velocity":0.3858267716535433},{"duration":0.16666650000001937,"midi":63,"time":271.16639549999996,"velocity":0.3858267716535433},{"duration":0.16666650000001937,"midi":61,"time":271.333062,"velocity":0.3858267716535433},{"duration":0.16666649999996253,"midi":63,"time":271.4997285,"velocity":0.3858267716535433},{"duration":0.16666650000001937,"midi":64,"time":271.66639499999997,"velocity":0.3858267716535433},{"duration":0.16666650000001937,"midi":68,"time":271.8330615,"velocity":0.3858267716535433},{"duration":0.3333329999999819,"midi":70,"time":271.999728,"velocity":0.3858267716535433},{"duration":1.3333319999999844,"midi":39,"time":271.999728,"velocity":0.3858267716535433},{"duration":0.3333329999999819,"midi":66,"time":272.333061,"velocity":0.3858267716535433},{"duration":0.33333300000003874,"midi":63,"time":272.66639399999997,"velocity":0.3858267716535433},{"duration":0.3333329999999819,"midi":58,"time":272.999727,"velocity":0.3858267716535433},{"duration":1.3333319999999844,"midi":44,"time":273.33306,"velocity":0.3858267716535433},{"duration":0.16666650000001937,"midi":57,"time":273.33306,"velocity":0.3858267716535433},{"duration":0.16666649999996253,"midi":60,"time":273.4997265,"velocity":0.3858267716535433},{"duration":0.16666650000001937,"midi":63,"time":273.66639299999997,"velocity":0.3858267716535433},{"duration":0.16666650000001937,"midi":66,"time":273.8330595,"velocity":0.3858267716535433},{"duration":0.16666649999996253,"midi":69,"time":273.999726,"velocity":0.3858267716535433},{"duration":0.16666650000001937,"midi":72,"time":274.1663925,"velocity":0.3858267716535433},{"duration":0.16666650000001937,"midi":75,"time":274.333059,"velocity":0.3858267716535433},{"duration":0.16666649999996253,"midi":78,"time":274.4997255,"velocity":0.3858267716535433},{"duration":1.3333320000000413,"midi":37,"time":274.666392,"velocity":0.3858267716535433},{"duration":0.33333300000003874,"midi":49,"time":274.666392,"velocity":0.3858267716535433},{"duration":1.3333320000000413,"midi":73,"time":274.666392,"velocity":0.3858267716535433},{"duration":0.16666649999996253,"midi":49,"time":274.999725,"velocity":0.3858267716535433},{"duration":0.16666650000001937,"midi":51,"time":275.1663915,"velocity":0.3858267716535433},{"duration":0.3333329999999819,"midi":52,"time":275.333058,"velocity":0.3858267716535433},{"duration":0.33333300000003874,"midi":56,"time":275.666391,"velocity":0.3858267716535433},{"duration":0.3333329999999819,"midi":59,"time":275.999724,"velocity":0.3858267716535433},{"duration":1.3333319999999844,"midi":44,"time":275.999724,"velocity":0.3858267716535433},{"duration":0.3333329999999819,"midi":56,"time":276.333057,"velocity":0.3858267716535433},{"duration":0.33333300000003874,"midi":51,"time":276.66639,"velocity":0.3858267716535433},{"duration":0.3333329999999819,"midi":56,"time":276.999723,"velocity":0.3858267716535433},{"duration":0.3333329999999819,"midi":61,"time":277.333056,"velocity":0.3858267716535433},{"duration":1.3333319999999844,"midi":45,"time":277.333056,"velocity":0.3858267716535433},{"duration":0.33333300000003874,"midi":56,"time":277.666389,"velocity":0.3858267716535433},{"duration":0.3333329999999819,"midi":52,"time":277.999722,"velocity":0.3858267716535433},{"duration":0.3333329999999819,"midi":56,"time":278.333055,"velocity":0.3858267716535433},{"duration":1.3333319999999844,"midi":47,"time":278.666388,"velocity":0.3858267716535433},{"duration":0.16666650000001937,"midi":59,"time":278.666388,"velocity":0.3858267716535433},{"duration":0.16666649999996253,"midi":61,"time":278.8330545,"velocity":0.3858267716535433},{"duration":0.16666650000001937,"midi":59,"time":278.99972099999997,"velocity":0.3858267716535433},{"duration":0.16666650000001937,"midi":54,"time":279.1663875,"velocity":0.3858267716535433},{"duration":0.16666649999996253,"midi":59,"time":279.333054,"velocity":0.3858267716535433},{"duration":0.16666650000001937,"midi":61,"time":279.49972049999997,"velocity":0.3858267716535433},{"duration":0.16666650000001937,"midi":66,"time":279.666387,"velocity":0.3858267716535433},{"duration":0.16666649999996253,"midi":63,"time":279.8330535,"velocity":0.3858267716535433},{"duration":1.3333320000000413,"midi":42,"time":279.99971999999997,"velocity":0.3858267716535433},{"duration":0.33333300000003874,"midi":64,"time":279.99971999999997,"velocity":0.3858267716535433},{"duration":0.16666649999996253,"midi":64,"time":280.333053,"velocity":0.3858267716535433},{"duration":0.16666650000001937,"midi":63,"time":280.49971949999997,"velocity":0.3858267716535433},{"duration":0.3333329999999819,"midi":61,"time":280.666386,"velocity":0.3858267716535433},{"duration":0.33333300000003874,"midi":57,"time":280.99971899999997,"velocity":0.3858267716535433},{"duration":1.3333319999999844,"midi":44,"time":281.333052,"velocity":0.3858267716535433},{"duration":0.3333329999999819,"midi":59,"time":281.333052,"velocity":0.3858267716535433},{"duration":0.3333329999999819,"midi":61,"time":281.666385,"velocity":0.3858267716535433},{"duration":0.33333300000003874,"midi":63,"time":281.999718,"velocity":0.3858267716535433},{"duration":0.3333329999999819,"midi":66,"time":282.333051,"velocity":0.3858267716535433},{"duration":0.3333329999999819,"midi":64,"time":282.666384,"velocity":0.3858267716535433},{"duration":1.3333319999999844,"midi":45,"time":282.666384,"velocity":0.3858267716535433},{"duration":0.33333300000003874,"midi":63,"time":282.999717,"velocity":0.3858267716535433},{"duration":0.3333329999999819,"midi":61,"time":283.33305,"velocity":0.3858267716535433},{"duration":0.3333329999999819,"midi":64,"time":283.666383,"velocity":0.3858267716535433},{"duration":0.16666650000001937,"midi":63,"time":283.999716,"velocity":0.3858267716535433},{"duration":0.6666660000000206,"midi":47,"time":283.999716,"velocity":0.3858267716535433},{"duration":0.16666650000001937,"midi":64,"time":284.1663825,"velocity":0.3858267716535433},{"duration":0.16666649999996253,"midi":63,"time":284.333049,"velocity":0.3858267716535433},{"duration":0.16666650000001937,"midi":61,"time":284.4997155,"velocity":0.3858267716535433},{"duration":0.6666660000000206,"midi":48,"time":284.666382,"velocity":0.3858267716535433},{"duration":0.16666650000001937,"midi":60,"time":284.666382,"velocity":0.3858267716535433},{"duration":0.16666649999996253,"midi":56,"time":284.8330485,"velocity":0.3858267716535433},{"duration":0.16666650000001937,"midi":63,"time":284.999715,"velocity":0.3858267716535433},{"duration":0.16666650000001937,"midi":60,"time":285.1663815,"velocity":0.3858267716535433},{"duration":1.3333319999999844,"midi":49,"time":285.333048,"velocity":0.3858267716535433},{"duration":0.3333329999999819,"midi":61,"time":285.333048,"velocity":0.3858267716535433},{"duration":0.16666649999996253,"midi":61,"time":285.666381,"velocity":0.3858267716535433},{"duration":0.16666650000001937,"midi":63,"time":285.83304749999996,"velocity":0.3858267716535433},{"duration":0.3333329999999819,"midi":64,"time":285.999714,"velocity":0.3858267716535433},{"duration":0.33333300000003874,"midi":68,"time":286.33304699999997,"velocity":0.3858267716535433},{"duration":1.3333319999999844,"midi":47,"time":286.66638,"velocity":0.3858267716535433},{"duration":0.3333329999999819,"midi":71,"time":286.66638,"velocity":0.3858267716535433},{"duration":0.3333329999999819,"midi":68,"time":286.999713,"velocity":0.3858267716535433},{"duration":0.33333300000003874,"midi":63,"time":287.33304599999997,"velocity":0.3858267716535433},{"duration":0.3333329999999819,"midi":68,"time":287.666379,"velocity":0.3858267716535433},{"duration":1.3333319999999844,"midi":46,"time":287.999712,"velocity":0.3858267716535433},{"duration":0.3333329999999819,"midi":70,"time":287.999712,"velocity":0.3858267716535433},{"duration":0.33333300000003874,"midi":68,"time":288.33304499999997,"velocity":0.3858267716535433},{"duration":0.3333329999999819,"midi":66,"time":288.666378,"velocity":0.3858267716535433},{"duration":0.3333329999999819,"midi":61,"time":288.999711,"velocity":0.3858267716535433},{"duration":0.16666650000001937,"midi":58,"time":289.333044,"velocity":0.3858267716535433},{"duration":0.6666660000000206,"midi":42,"time":289.333044,"velocity":0.3858267716535433},{"duration":0.16666650000001937,"midi":59,"time":289.4997105,"velocity":0.3858267716535433},{"duration":0.16666649999996253,"midi":58,"time":289.666377,"velocity":0.3858267716535433},{"duration":0.16666650000001937,"midi":61,"time":289.8330435,"velocity":0.3858267716535433},{"duration":0.6666660000000206,"midi":40,"time":289.99971,"velocity":0.3858267716535433},{"duration":0.16666650000001937,"midi":66,"time":289.99971,"velocity":0.3858267716535433},{"duration":0.16666649999996253,"midi":68,"time":290.1663765,"velocity":0.3858267716535433},{"duration":0.16666650000001937,"midi":70,"time":290.333043,"velocity":0.3858267716535433},{"duration":0.16666650000001937,"midi":71,"time":290.4997095,"velocity":0.3858267716535433},{"duration":1.3333319999999844,"midi":38,"time":290.666376,"velocity":0.3858267716535433},{"duration":0.3333329999999819,"midi":73,"time":290.666376,"velocity":0.3858267716535433},{"duration":0.16666650000001937,"midi":73,"time":290.999709,"velocity":0.3858267716535433},{"duration":0.16666649999996253,"midi":71,"time":291.1663755,"velocity":0.3858267716535433},{"duration":0.33333300000003874,"midi":69,"time":291.333042,"velocity":0.3858267716535433},{"duration":0.3333329999999819,"midi":66,"time":291.666375,"velocity":0.3858267716535433},{"duration":1.3333319999999844,"midi":45,"time":291.999708,"velocity":0.3858267716535433},{"duration":0.3333329999999819,"midi":68,"time":291.999708,"velocity":0.3858267716535433},{"duration":0.33333300000003874,"midi":64,"time":292.333041,"velocity":0.3858267716535433},{"duration":0.3333329999999819,"midi":68,"time":292.666374,"velocity":0.3858267716535433},{"duration":0.3333329999999819,"midi":73,"time":292.999707,"velocity":0.3858267716535433},{"duration":0.3333329999999819,"midi":71,"time":293.33304,"velocity":0.3858267716535433},{"duration":1.3333319999999844,"midi":47,"time":293.33304,"velocity":0.3858267716535433},{"duration":0.33333300000003874,"midi":66,"time":293.66637299999996,"velocity":0.3858267716535433},{"duration":0.3333329999999819,"midi":71,"time":293.999706,"velocity":0.3858267716535433},{"duration":0.3333329999999819,"midi":75,"time":294.333039,"velocity":0.3858267716535433},{"duration":0.6666660000000206,"midi":47,"time":294.66637199999997,"velocity":0.3858267716535433},{"duration":0.6666660000000206,"midi":71,"time":294.66637199999997,"velocity":0.3858267716535433},{"duration":0.6666660000000206,"midi":44,"time":295.333038,"velocity":0.3858267716535433},{"duration":0.6666660000000206,"midi":68,"time":295.333038,"velocity":0.3858267716535433},{"duration":2.666663999999969,"midi":37,"time":295.999704,"velocity":0.3858267716535433},{"duration":2.6666640000000257,"midi":35,"time":298.666368,"velocity":0.3858267716535433},{"duration":2.666663999999969,"midi":37,"time":301.333032,"velocity":0.3858267716535433},{"duration":2.6666640000000257,"midi":35,"time":303.999696,"velocity":0.3858267716535433},{"duration":2.666663999999969,"midi":61,"time":306.66636,"velocity":0.3858267716535433},{"duration":2.666663999999969,"midi":64,"time":306.66636,"velocity":0.3858267716535433},{"duration":1.3333319999999844,"midi":68,"time":306.66636,"velocity":0.3858267716535433},{"duration":1.3333319999999844,"midi":69,"time":307.999692,"velocity":0.3858267716535433},{"duration":0.16666650000001937,"midi":56,"time":309.33302399999997,"velocity":0.3858267716535433},{"duration":1.3333320000000413,"midi":71,"time":309.33302399999997,"velocity":0.3858267716535433},{"duration":1.3333320000000413,"midi":66,"time":309.33302399999997,"velocity":0.3858267716535433},{"duration":0.83333250000004,"midi":63,"time":309.33302399999997,"velocity":0.3858267716535433},{"duration":0.16666650000001937,"midi":59,"time":309.4996905,"velocity":0.3858267716535433},{"duration":0.16666649999996253,"midi":56,"time":309.666357,"velocity":0.3858267716535433},{"duration":0.83333250000004,"midi":63,"time":309.83302349999997,"velocity":0.3858267716535433},{"duration":0.16666649999996253,"midi":56,"time":310.1663565,"velocity":0.3858267716535433},{"duration":0.16666650000001937,"midi":59,"time":310.33302299999997,"velocity":0.3858267716535433},{"duration":0.16666650000001937,"midi":63,"time":310.4996895,"velocity":0.3858267716535433},{"duration":0.6666659999999638,"midi":69,"time":310.666356,"velocity":0.3858267716535433},{"duration":0.16666649999996253,"midi":64,"time":310.666356,"velocity":0.3858267716535433},{"duration":0.49999950000000126,"midi":61,"time":310.666356,"velocity":0.3858267716535433},{"duration":0.6666659999999638,"midi":64,"time":310.666356,"velocity":0.3858267716535433},{"duration":0.16666650000001937,"midi":63,"time":310.83302249999997,"velocity":0.3858267716535433},{"duration":0.3333329999999819,"midi":61,"time":310.999689,"velocity":0.3858267716535433},{"duration":0.16666649999996253,"midi":59,"time":311.1663555,"velocity":0.3858267716535433},{"duration":0.6666660000000206,"midi":71,"time":311.33302199999997,"velocity":0.3858267716535433},{"duration":0.16666650000001937,"midi":63,"time":311.33302199999997,"velocity":0.3858267716535433},{"duration":0.6666660000000206,"midi":63,"time":311.33302199999997,"velocity":0.3858267716535433},{"duration":0.6666660000000206,"midi":66,"time":311.33302199999997,"velocity":0.3858267716535433},{"duration":0.16666650000001937,"midi":61,"time":311.4996885,"velocity":0.3858267716535433},{"duration":0.16666649999996253,"midi":59,"time":311.666355,"velocity":0.3858267716535433},{"duration":0.16666650000001937,"midi":56,"time":311.8330215,"velocity":0.3858267716535433},{"duration":1.3333319999999844,"midi":68,"time":311.999688,"velocity":0.3858267716535433},{"duration":2.6666640000000257,"midi":64,"time":311.999688,"velocity":0.3858267716535433},{"duration":0.49999950000000126,"midi":61,"time":311.999688,"velocity":0.3858267716535433},{"duration":0.16666650000001937,"midi":49,"time":311.999688,"velocity":0.3858267716535433},{"duration":0.16666649999996253,"midi":56,"time":312.1663545,"velocity":0.3858267716535433},{"duration":0.33333300000003874,"midi":61,"time":312.333021,"velocity":0.3858267716535433},{"duration":0.3333329999999819,"midi":61,"time":312.4996875,"velocity":0.3858267716535433},{"duration":0.9999990000000025,"midi":61,"time":312.666354,"velocity":0.3858267716535433},{"duration":0.16666650000001937,"midi":56,"time":312.8330205,"velocity":0.3858267716535433},{"duration":0.16666650000001937,"midi":49,"time":312.999687,"velocity":0.3858267716535433},{"duration":0.16666649999996253,"midi":49,"time":313.1663535,"velocity":0.3858267716535433},{"duration":1.3333320000000413,"midi":69,"time":313.33302,"velocity":0.3858267716535433},{"duration":0.16666650000001937,"midi":54,"time":313.33302,"velocity":0.3858267716535433},{"duration":0.3333329999999819,"midi":61,"time":313.4996865,"velocity":0.3858267716535433},{"duration":0.9999990000000025,"midi":61,"time":313.666353,"velocity":0.3858267716535433},{"duration":0.16666650000001937,"midi":57,"time":313.8330195,"velocity":0.3858267716535433},{"duration":0.16666650000001937,"midi":49,"time":313.999686,"velocity":0.3858267716535433},{"duration":0.16666649999996253,"midi":54,"time":314.1663525,"velocity":0.3858267716535433},{"duration":0.16666650000001937,"midi":57,"time":314.333019,"velocity":0.3858267716535433},{"duration":0.16666650000001937,"midi":61,"time":314.4996855,"velocity":0.3858267716535433},{"duration":0.3333329999999819,"midi":63,"time":314.666352,"velocity":0.3858267716535433},{"duration":0.8333324999999832,"midi":71,"time":314.666352,"velocity":0.3858267716535433},{"duration":0.16666649999996253,"midi":59,"time":314.666352,"velocity":0.3858267716535433},{"duration":1.3333319999999844,"midi":66,"time":314.666352,"velocity":0.3858267716535433},{"duration":1.166665500000022,"midi":63,"time":314.8330185,"velocity":0.3858267716535433},{"duration":0.16666650000001937,"midi":68,"time":314.999685,"velocity":0.3858267716535433},{"duration":0.6666659999999638,"midi":71,"time":315.1663515,"velocity":0.3858267716535433},{"duration":0.16666649999996253,"midi":68,"time":315.4996845,"velocity":0.3858267716535433},{"duration":0.33333300000003874,"midi":71,"time":315.66635099999996,"velocity":0.3858267716535433},{"duration":0.16666650000001937,"midi":75,"time":315.8330175,"velocity":0.3858267716535433},{"duration":0.6666659999999638,"midi":69,"time":315.999684,"velocity":0.3858267716535433},{"duration":0.6666659999999638,"midi":61,"time":315.999684,"velocity":0.3858267716535433},{"duration":0.16666649999996253,"midi":73,"time":315.999684,"velocity":0.3858267716535433},{"duration":0.49999950000000126,"midi":64,"time":315.999684,"velocity":0.3858267716535433},{"duration":0.16666650000001937,"midi":68,"time":316.16635049999996,"velocity":0.3858267716535433},{"duration":0.3333329999999819,"midi":64,"time":316.333017,"velocity":0.3858267716535433},{"duration":0.16666649999996253,"midi":61,"time":316.4996835,"velocity":0.3858267716535433},{"duration":0.16666650000001937,"midi":66,"time":316.66634999999997,"velocity":0.3858267716535433},{"duration":0.6666660000000206,"midi":66,"time":316.66634999999997,"velocity":0.3858267716535433},{"duration":0.6666660000000206,"midi":71,"time":316.66634999999997,"velocity":0.3858267716535433},{"duration":0.33333300000003874,"midi":63,"time":316.66634999999997,"velocity":0.3858267716535433},{"duration":0.49999950000000126,"midi":63,"time":316.8330165,"velocity":0.3858267716535433},{"duration":0.16666649999996253,"midi":68,"time":316.999683,"velocity":0.3858267716535433},{"duration":0.16666650000001937,"midi":64,"time":317.16634949999997,"velocity":0.3858267716535433},{"duration":0.3333329999999819,"midi":64,"time":317.333016,"velocity":0.3858267716535433},{"duration":0.3333329999999819,"midi":69,"time":317.333016,"velocity":0.3858267716535433},{"duration":0.3333329999999819,"midi":73,"time":317.333016,"velocity":0.3858267716535433},{"duration":0.6666660000000206,"midi":69,"time":317.333016,"velocity":0.3858267716535433},{"duration":2.6666640000000257,"midi":50,"time":317.333016,"velocity":0.3858267716535433},{"duration":0.33333300000003874,"midi":69,"time":317.66634899999997,"velocity":0.3858267716535433},{"duration":0.33333300000003874,"midi":64,"time":317.66634899999997,"velocity":0.3858267716535433},{"duration":0.33333300000003874,"midi":73,"time":317.66634899999997,"velocity":0.3858267716535433},{"duration":0.16666649999996253,"midi":69,"time":317.999682,"velocity":0.3858267716535433},{"duration":0.3333329999999819,"midi":64,"time":317.999682,"velocity":0.3858267716535433},{"duration":0.3333329999999819,"midi":69,"time":317.999682,"velocity":0.3858267716535433},{"duration":0.3333329999999819,"midi":73,"time":317.999682,"velocity":0.3858267716535433},{"duration":0.16666650000001937,"midi":68,"time":318.16634849999997,"velocity":0.3858267716535433},{"duration":0.16666650000001937,"midi":69,"time":318.333015,"velocity":0.3858267716535433},{"duration":0.3333329999999819,"midi":64,"time":318.333015,"velocity":0.3858267716535433},{"duration":0.3333329999999819,"midi":69,"time":318.333015,"velocity":0.3858267716535433},{"duration":0.3333329999999819,"midi":73,"time":318.333015,"velocity":0.3858267716535433},{"duration":0.16666649999996253,"midi":71,"time":318.4996815,"velocity":0.3858267716535433},{"duration":0.33333300000003874,"midi":69,"time":318.66634799999997,"velocity":0.3858267716535433},{"duration":0.33333300000003874,"midi":64,"time":318.66634799999997,"velocity":0.3858267716535433},{"duration":0.33333300000003874,"midi":73,"time":318.66634799999997,"velocity":0.3858267716535433},{"duration":0.49999950000000126,"midi":73,"time":318.66634799999997,"velocity":0.3858267716535433},{"duration":0.3333329999999819,"midi":69,"time":318.999681,"velocity":0.3858267716535433},{"duration":0.3333329999999819,"midi":64,"time":318.999681,"velocity":0.3858267716535433},{"duration":0.3333329999999819,"midi":73,"time":318.999681,"velocity":0.3858267716535433},{"duration":0.49999950000000126,"midi":71,"time":319.1663475,"velocity":0.3858267716535433},{"duration":0.3333329999999819,"midi":64,"time":319.333014,"velocity":0.3858267716535433},{"duration":0.3333329999999819,"midi":73,"time":319.333014,"velocity":0.3858267716535433},{"duration":0.3333329999999819,"midi":69,"time":319.333014,"velocity":0.3858267716535433},{"duration":0.33333300000003874,"midi":69,"time":319.666347,"velocity":0.3858267716535433},{"duration":0.33333300000003874,"midi":64,"time":319.666347,"velocity":0.3858267716535433},{"duration":0.33333300000003874,"midi":69,"time":319.666347,"velocity":0.3858267716535433},{"duration":0.33333300000003874,"midi":73,"time":319.666347,"velocity":0.3858267716535433},{"duration":0.3333329999999819,"midi":73,"time":319.99968,"velocity":0.3858267716535433},{"duration":1.3333319999999844,"midi":49,"time":319.99968,"velocity":0.3858267716535433},{"duration":0.16666649999996253,"midi":68,"time":319.99968,"velocity":0.3858267716535433},{"duration":0.3333329999999819,"midi":68,"time":319.99968,"velocity":0.3858267716535433},{"duration":0.3333329999999819,"midi":64,"time":319.99968,"velocity":0.3858267716535433},{"duration":0.16666650000001937,"midi":69,"time":320.1663465,"velocity":0.3858267716535433},{"duration":0.3333329999999819,"midi":73,"time":320.333013,"velocity":0.3858267716535433},{"duration":0.16666650000001937,"midi":68,"time":320.333013,"velocity":0.3858267716535433},{"duration":0.3333329999999819,"midi":68,"time":320.333013,"velocity":0.3858267716535433},{"duration":0.3333329999999819,"midi":64,"time":320.333013,"velocity":0.3858267716535433},{"duration":0.3333329999999819,"midi":64,"time":320.4996795,"velocity":0.3858267716535433},{"duration":0.33333300000003874,"midi":68,"time":320.666346,"velocity":0.3858267716535433},{"duration":0.33333300000003874,"midi":64,"time":320.666346,"velocity":0.3858267716535433},{"duration":0.33333300000003874,"midi":73,"time":320.666346,"velocity":0.3858267716535433},{"duration":0.16666650000001937,"midi":64,"time":320.8330125,"velocity":0.3858267716535433},{"duration":0.3333329999999819,"midi":64,"time":320.999679,"velocity":0.3858267716535433},{"duration":0.3333329999999819,"midi":68,"time":320.999679,"velocity":0.3858267716535433},{"duration":0.16666649999996253,"midi":66,"time":320.999679,"velocity":0.3858267716535433},{"duration":0.3333329999999819,"midi":73,"time":320.999679,"velocity":0.3858267716535433},{"duration":0.16666650000001937,"midi":68,"time":321.1663455,"velocity":0.3858267716535433},{"duration":0.3333329999999819,"midi":66,"time":321.333012,"velocity":0.3858267716535433},{"duration":0.3333329999999819,"midi":63,"time":321.333012,"velocity":0.3858267716535433},{"duration":1.3333319999999844,"midi":47,"time":321.333012,"velocity":0.3858267716535433},{"duration":0.6666660000000206,"midi":66,"time":321.333012,"velocity":0.3858267716535433},{"duration":0.3333329999999819,"midi":71,"time":321.333012,"velocity":0.3858267716535433},{"duration":0.33333300000003874,"midi":63,"time":321.666345,"velocity":0.3858267716535433},{"duration":0.33333300000003874,"midi":66,"time":321.666345,"velocity":0.3858267716535433},{"duration":0.33333300000003874,"midi":71,"time":321.666345,"velocity":0.3858267716535433},{"duration":0.3333329999999819,"midi":63,"time":321.999678,"velocity":0.3858267716535433},{"duration":0.3333329999999819,"midi":63,"time":321.999678,"velocity":0.3858267716535433},{"duration":0.3333329999999819,"midi":66,"time":321.999678,"velocity":0.3858267716535433},{"duration":0.3333329999999819,"midi":71,"time":321.999678,"velocity":0.3858267716535433},{"duration":0.3333329999999819,"midi":68,"time":322.333011,"velocity":0.3858267716535433},{"duration":0.3333329999999819,"midi":71,"time":322.333011,"velocity":0.3858267716535433},{"duration":0.3333329999999819,"midi":63,"time":322.333011,"velocity":0.3858267716535433},{"duration":0.3333329999999819,"midi":66,"time":322.333011,"velocity":0.3858267716535433},{"duration":0.16666650000001937,"midi":56,"time":322.666344,"velocity":0.3858267716535433},{"duration":2.6666640000000257,"midi":42,"time":322.666344,"velocity":0.3858267716535433},{"duration":0.16666649999996253,"midi":54,"time":322.8330105,"velocity":0.3858267716535433},{"duration":0.16666650000001937,"midi":61,"time":322.99967699999996,"velocity":0.3858267716535433},{"duration":0.16666650000001937,"midi":63,"time":323.1663435,"velocity":0.3858267716535433},{"duration":0.3333329999999819,"midi":64,"time":323.33301,"velocity":0.3858267716535433},{"duration":0.16666650000001937,"midi":63,"time":323.666343,"velocity":0.3858267716535433},{"duration":0.16666649999996253,"midi":61,"time":323.8330095,"velocity":0.3858267716535433},{"duration":0.16666650000001937,"midi":68,"time":323.99967599999997,"velocity":0.3858267716535433},{"duration":0.16666650000001937,"midi":66,"time":324.1663425,"velocity":0.3858267716535433},{"duration":0.16666649999996253,"midi":64,"time":324.333009,"velocity":0.3858267716535433},{"duration":0.16666650000001937,"midi":63,"time":324.49967549999997,"velocity":0.3858267716535433},{"duration":0.16666650000001937,"midi":61,"time":324.666342,"velocity":0.3858267716535433},{"duration":0.16666649999996253,"midi":63,"time":324.8330085,"velocity":0.3858267716535433},{"duration":0.16666650000001937,"midi":64,"time":324.99967499999997,"velocity":0.3858267716535433},{"duration":0.16666650000001937,"midi":68,"time":325.1663415,"velocity":0.3858267716535433},{"duration":1.3333319999999844,"midi":39,"time":325.333008,"velocity":0.3858267716535433},{"duration":0.3333329999999819,"midi":70,"time":325.333008,"velocity":0.3858267716535433},{"duration":0.3333329999999819,"midi":66,"time":325.666341,"velocity":0.3858267716535433},{"duration":0.33333300000003874,"midi":63,"time":325.99967399999997,"velocity":0.3858267716535433},{"duration":0.3333329999999819,"midi":58,"time":326.333007,"velocity":0.3858267716535433},{"duration":1.3333319999999844,"midi":44,"time":326.66634,"velocity":0.3858267716535433},{"duration":0.16666650000001937,"midi":57,"time":326.66634,"velocity":0.3858267716535433},{"duration":0.16666649999996253,"midi":60,"time":326.8330065,"velocity":0.3858267716535433},{"duration":0.16666650000001937,"midi":63,"time":326.999673,"velocity":0.3858267716535433},{"duration":0.16666650000001937,"midi":66,"time":327.1663395,"velocity":0.3858267716535433},{"duration":0.16666649999996253,"midi":69,"time":327.333006,"velocity":0.3858267716535433},{"duration":0.16666650000001937,"midi":72,"time":327.4996725,"velocity":0.3858267716535433},{"duration":0.16666650000001937,"midi":75,"time":327.666339,"velocity":0.3858267716535433},{"duration":0.16666649999996253,"midi":78,"time":327.8330055,"velocity":0.3858267716535433},{"duration":0.16666650000001937,"midi":76,"time":327.999672,"velocity":0.3858267716535433},{"duration":1.3333320000000413,"midi":37,"time":327.999672,"velocity":0.3858267716535433},{"duration":0.33333300000003874,"midi":49,"time":327.999672,"velocity":0.3858267716535433},{"duration":0.16666650000001937,"midi":80,"time":328.1663385,"velocity":0.3858267716535433},{"duration":0.16666649999996253,"midi":49,"time":328.333005,"velocity":0.3858267716535433},{"duration":0.16666649999996253,"midi":85,"time":328.333005,"velocity":0.3858267716535433},{"duration":0.16666650000001937,"midi":80,"time":328.4996715,"velocity":0.3858267716535433},{"duration":0.16666650000001937,"midi":51,"time":328.4996715,"velocity":0.3858267716535433},{"duration":0.3333329999999819,"midi":52,"time":328.666338,"velocity":0.3858267716535433},{"duration":0.16666650000001937,"midi":76,"time":328.666338,"velocity":0.3858267716535433},{"duration":0.16666649999996253,"midi":80,"time":328.8330045,"velocity":0.3858267716535433},{"duration":0.33333300000003874,"midi":56,"time":328.999671,"velocity":0.3858267716535433},{"duration":0.16666650000001937,"midi":85,"time":328.999671,"velocity":0.3858267716535433},{"duration":0.16666650000001937,"midi":80,"time":329.1663375,"velocity":0.3858267716535433},{"duration":1.3333319999999844,"midi":44,"time":329.333004,"velocity":0.3858267716535433},{"duration":0.3333329999999819,"midi":59,"time":329.333004,"velocity":0.3858267716535433},{"duration":0.16666649999996253,"midi":75,"time":329.333004,"velocity":0.3858267716535433},{"duration":0.16666650000001937,"midi":80,"time":329.4996705,"velocity":0.3858267716535433},{"duration":0.3333329999999819,"midi":56,"time":329.666337,"velocity":0.3858267716535433},{"duration":0.16666650000001937,"midi":83,"time":329.666337,"velocity":0.3858267716535433},{"duration":0.16666649999996253,"midi":80,"time":329.8330035,"velocity":0.3858267716535433},{"duration":0.16666650000001937,"midi":75,"time":329.99967,"velocity":0.3858267716535433},{"duration":0.3333329999999819,"midi":51,"time":329.99967,"velocity":0.3858267716535433},{"duration":0.16666649999996253,"midi":80,"time":330.1663365,"velocity":0.3858267716535433},{"duration":0.33333300000003874,"midi":56,"time":330.33300299999996,"velocity":0.3858267716535433},{"duration":0.16666650000001937,"midi":83,"time":330.33300299999996,"velocity":0.3858267716535433},{"duration":0.16666650000001937,"midi":80,"time":330.4996695,"velocity":0.3858267716535433},{"duration":0.16666649999996253,"midi":76,"time":330.666336,"velocity":0.3858267716535433},{"duration":0.3333329999999819,"midi":61,"time":330.666336,"velocity":0.3858267716535433},{"duration":1.3333319999999844,"midi":45,"time":330.666336,"velocity":0.3858267716535433},{"duration":0.16666650000001937,"midi":80,"time":330.83300249999996,"velocity":0.3858267716535433},{"duration":0.3333329999999819,"midi":56,"time":330.999669,"velocity":0.3858267716535433},{"duration":0.16666650000001937,"midi":85,"time":330.999669,"velocity":0.3858267716535433},{"duration":0.16666649999996253,"midi":80,"time":331.1663355,"velocity":0.3858267716535433},{"duration":0.16666650000001937,"midi":76,"time":331.33300199999996,"velocity":0.3858267716535433},{"duration":0.33333300000003874,"midi":52,"time":331.33300199999996,"velocity":0.3858267716535433},{"duration":0.16666650000001937,"midi":80,"time":331.4996685,"velocity":0.3858267716535433},{"duration":0.16666649999996253,"midi":85,"time":331.666335,"velocity":0.3858267716535433},{"duration":0.3333329999999819,"midi":56,"time":331.666335,"velocity":0.3858267716535433},{"duration":0.16666650000001937,"midi":80,"time":331.83300149999997,"velocity":0.3858267716535433},{"duration":0.16666650000001937,"midi":78,"time":331.999668,"velocity":0.3858267716535433},{"duration":0.16666650000001937,"midi":59,"time":331.999668,"velocity":0.3858267716535433},{"duration":1.3333319999999844,"midi":47,"time":331.999668,"velocity":0.3858267716535433},{"duration":0.16666649999996253,"midi":61,"time":332.1663345,"velocity":0.3858267716535433},{"duration":0.16666649999996253,"midi":83,"time":332.1663345,"velocity":0.3858267716535433},{"duration":0.16666650000001937,"midi":87,"time":332.33300099999997,"velocity":0.3858267716535433},{"duration":0.16666650000001937,"midi":59,"time":332.33300099999997,"velocity":0.3858267716535433},{"duration":0.16666650000001937,"midi":54,"time":332.4996675,"velocity":0.3858267716535433},{"duration":0.16666650000001937,"midi":83,"time":332.4996675,"velocity":0.3858267716535433},{"duration":0.16666649999996253,"midi":78,"time":332.666334,"velocity":0.3858267716535433},{"duration":0.16666649999996253,"midi":59,"time":332.666334,"velocity":0.3858267716535433},{"duration":0.16666650000001937,"midi":61,"time":332.83300049999997,"velocity":0.3858267716535433},{"duration":0.16666650000001937,"midi":83,"time":332.83300049999997,"velocity":0.3858267716535433},{"duration":0.16666650000001937,"midi":66,"time":332.999667,"velocity":0.3858267716535433},{"duration":0.16666650000001937,"midi":87,"time":332.999667,"velocity":0.3858267716535433},{"duration":0.16666649999996253,"midi":83,"time":333.1663335,"velocity":0.3858267716535433},{"duration":0.16666649999996253,"midi":63,"time":333.1663335,"velocity":0.3858267716535433},{"duration":0.33333300000003874,"midi":64,"time":333.33299999999997,"velocity":0.3858267716535433},{"duration":0.16666650000001937,"midi":76,"time":333.33299999999997,"velocity":0.3858267716535433},{"duration":1.3333320000000413,"midi":42,"time":333.33299999999997,"velocity":0.3858267716535433},{"duration":0.16666650000001937,"midi":80,"time":333.4996665,"velocity":0.3858267716535433},{"duration":0.16666649999996253,"midi":64,"time":333.666333,"velocity":0.3858267716535433},{"duration":0.16666649999996253,"midi":85,"time":333.666333,"velocity":0.3858267716535433},{"duration":0.16666650000001937,"midi":63,"time":333.83299949999997,"velocity":0.3858267716535433},{"duration":0.16666650000001937,"midi":80,"time":333.83299949999997,"velocity":0.3858267716535433},{"duration":0.16666650000001937,"midi":76,"time":333.999666,"velocity":0.3858267716535433},{"duration":0.3333329999999819,"midi":61,"time":333.999666,"velocity":0.3858267716535433},{"duration":0.16666649999996253,"midi":80,"time":334.1663325,"velocity":0.3858267716535433},{"duration":0.33333300000003874,"midi":57,"time":334.332999,"velocity":0.3858267716535433},{"duration":0.16666650000001937,"midi":85,"time":334.332999,"velocity":0.3858267716535433},{"duration":0.16666650000001937,"midi":80,"time":334.4996655,"velocity":0.3858267716535433},{"duration":0.3333329999999819,"midi":59,"time":334.666332,"velocity":0.3858267716535433},{"duration":0.16666649999996253,"midi":75,"time":334.666332,"velocity":0.3858267716535433},{"duration":1.3333319999999844,"midi":44,"time":334.666332,"velocity":0.3858267716535433},{"duration":0.16666650000001937,"midi":78,"time":334.8329985,"velocity":0.3858267716535433},{"duration":0.16666650000001937,"midi":83,"time":334.999665,"velocity":0.3858267716535433},{"duration":0.3333329999999819,"midi":61,"time":334.999665,"velocity":0.3858267716535433},{"duration":0.16666649999996253,"midi":78,"time":335.1663315,"velocity":0.3858267716535433},{"duration":0.16666650000001937,"midi":75,"time":335.332998,"velocity":0.3858267716535433},{"duration":0.33333300000003874,"midi":63,"time":335.332998,"velocity":0.3858267716535433},{"duration":0.16666650000001937,"midi":78,"time":335.4996645,"velocity":0.3858267716535433},{"duration":0.3333329999999819,"midi":66,"time":335.666331,"velocity":0.3858267716535433},{"duration":0.16666649999996253,"midi":83,"time":335.666331,"velocity":0.3858267716535433},{"duration":0.16666650000001937,"midi":78,"time":335.8329975,"velocity":0.3858267716535433},{"duration":0.3333329999999819,"midi":64,"time":335.999664,"velocity":0.3858267716535433},{"duration":1.3333319999999844,"midi":45,"time":335.999664,"velocity":0.3858267716535433},{"duration":0.16666650000001937,"midi":76,"time":335.999664,"velocity":0.3858267716535433},{"duration":0.16666649999996253,"midi":80,"time":336.1663305,"velocity":0.3858267716535433},{"duration":0.33333300000003874,"midi":63,"time":336.332997,"velocity":0.3858267716535433},{"duration":0.16666650000001937,"midi":85,"time":336.332997,"velocity":0.3858267716535433},{"duration":0.16666650000001937,"midi":80,"time":336.4996635,"velocity":0.3858267716535433},{"duration":0.16666649999996253,"midi":76,"time":336.66633,"velocity":0.3858267716535433},{"duration":0.3333329999999819,"midi":61,"time":336.66633,"velocity":0.3858267716535433},{"duration":0.16666650000001937,"midi":80,"time":336.8329965,"velocity":0.3858267716535433},{"duration":0.3333329999999819,"midi":64,"time":336.999663,"velocity":0.3858267716535433},{"duration":0.16666650000001937,"midi":85,"time":336.999663,"velocity":0.3858267716535433},{"duration":0.16666649999996253,"midi":80,"time":337.1663295,"velocity":0.3858267716535433},{"duration":0.16666650000001937,"midi":78,"time":337.332996,"velocity":0.3858267716535433},{"duration":0.16666650000001937,"midi":63,"time":337.332996,"velocity":0.3858267716535433},{"duration":0.6666660000000206,"midi":47,"time":337.332996,"velocity":0.3858267716535433},{"duration":0.16666649999996253,"midi":80,"time":337.4996625,"velocity":0.3858267716535433},{"duration":0.16666649999996253,"midi":64,"time":337.4996625,"velocity":0.3858267716535433},{"duration":0.16666650000001937,"midi":63,"time":337.66632899999996,"velocity":0.3858267716535433},{"duration":0.16666650000001937,"midi":78,"time":337.66632899999996,"velocity":0.3858267716535433},{"duration":0.16666650000001937,"midi":76,"time":337.8329955,"velocity":0.3858267716535433},{"duration":0.16666650000001937,"midi":61,"time":337.8329955,"velocity":0.3858267716535433},{"duration":0.6666659999999638,"midi":48,"time":337.999662,"velocity":0.3858267716535433},{"duration":0.16666649999996253,"midi":60,"time":337.999662,"velocity":0.3858267716535433},{"duration":0.16666649999996253,"midi":75,"time":337.999662,"velocity":0.3858267716535433},{"duration":0.16666650000001937,"midi":72,"time":338.16632849999996,"velocity":0.3858267716535433},{"duration":0.16666650000001937,"midi":56,"time":338.16632849999996,"velocity":0.3858267716535433},{"duration":0.16666650000001937,"midi":63,"time":338.332995,"velocity":0.3858267716535433},{"duration":0.16666650000001937,"midi":78,"time":338.332995,"velocity":0.3858267716535433},{"duration":0.16666649999996253,"midi":75,"time":338.4996615,"velocity":0.3858267716535433},{"duration":0.16666649999996253,"midi":60,"time":338.4996615,"velocity":0.3858267716535433},{"duration":0.16666650000001937,"midi":76,"time":338.66632799999996,"velocity":0.3858267716535433},{"duration":1.3333320000000413,"midi":49,"time":338.66632799999996,"velocity":0.3858267716535433},{"duration":0.33333300000003874,"midi":61,"time":338.66632799999996,"velocity":0.3858267716535433},{"duration":0.16666650000001937,"midi":80,"time":338.8329945,"velocity":0.3858267716535433},{"duration":0.16666649999996253,"midi":61,"time":338.999661,"velocity":0.3858267716535433},{"duration":0.16666649999996253,"midi":85,"time":338.999661,"velocity":0.3858267716535433},{"duration":0.16666650000001937,"midi":80,"time":339.16632749999997,"velocity":0.3858267716535433},{"duration":0.16666650000001937,"midi":63,"time":339.16632749999997,"velocity":0.3858267716535433},{"duration":0.16666650000001937,"midi":76,"time":339.332994,"velocity":0.3858267716535433},{"duration":0.3333329999999819,"midi":64,"time":339.332994,"velocity":0.3858267716535433},{"duration":0.16666649999996253,"midi":80,"time":339.4996605,"velocity":0.3858267716535433},{"duration":0.16666650000001937,"midi":85,"time":339.66632699999997,"velocity":0.3858267716535433},{"duration":0.33333300000003874,"midi":68,"time":339.66632699999997,"velocity":0.3858267716535433},{"duration":0.16666650000001937,"midi":80,"time":339.8329935,"velocity":0.3858267716535433},{"duration":0.3333329999999819,"midi":71,"time":339.99966,"velocity":0.3858267716535433},{"duration":0.16666649999996253,"midi":75,"time":339.99966,"velocity":0.3858267716535433},{"duration":1.3333319999999844,"midi":47,"time":339.99966,"velocity":0.3858267716535433},{"duration":0.16666650000001937,"midi":80,"time":340.16632649999997,"velocity":0.3858267716535433},{"duration":0.3333329999999819,"midi":68,"time":340.332993,"velocity":0.3858267716535433},{"duration":0.16666650000001937,"midi":83,"time":340.332993,"velocity":0.3858267716535433},{"duration":0.16666649999996253,"midi":80,"time":340.4996595,"velocity":0.3858267716535433},{"duration":0.16666650000001937,"midi":75,"time":340.66632599999997,"velocity":0.3858267716535433},{"duration":0.33333300000003874,"midi":63,"time":340.66632599999997,"velocity":0.3858267716535433},{"duration":0.16666650000001937,"midi":80,"time":340.8329925,"velocity":0.3858267716535433},{"duration":0.16666649999996253,"midi":83,"time":340.999659,"velocity":0.3858267716535433},{"duration":0.3333329999999819,"midi":68,"time":340.999659,"velocity":0.3858267716535433},{"duration":0.16666650000001937,"midi":80,"time":341.16632549999997,"velocity":0.3858267716535433},{"duration":0.16666650000001937,"midi":73,"time":341.332992,"velocity":0.3858267716535433},{"duration":0.3333329999999819,"midi":70,"time":341.332992,"velocity":0.3858267716535433},{"duration":1.3333319999999844,"midi":46,"time":341.332992,"velocity":0.3858267716535433},{"duration":0.16666649999996253,"midi":78,"time":341.4996585,"velocity":0.3858267716535433},{"duration":0.33333300000003874,"midi":68,"time":341.666325,"velocity":0.3858267716535433},{"duration":0.16666650000001937,"midi":82,"time":341.666325,"velocity":0.3858267716535433},{"duration":0.16666650000001937,"midi":78,"time":341.8329915,"velocity":0.3858267716535433},{"duration":0.3333329999999819,"midi":66,"time":341.999658,"velocity":0.3858267716535433},{"duration":0.16666649999996253,"midi":73,"time":341.999658,"velocity":0.3858267716535433},{"duration":0.16666650000001937,"midi":78,"time":342.1663245,"velocity":0.3858267716535433},{"duration":0.16666650000001937,"midi":82,"time":342.332991,"velocity":0.3858267716535433},{"duration":0.3333329999999819,"midi":61,"time":342.332991,"velocity":0.3858267716535433},{"duration":0.16666649999996253,"midi":78,"time":342.4996575,"velocity":0.3858267716535433},{"duration":0.16666650000001937,"midi":73,"time":342.666324,"velocity":0.3858267716535433},{"duration":0.6666660000000206,"midi":42,"time":342.666324,"velocity":0.3858267716535433},{"duration":0.16666650000001937,"midi":58,"time":342.666324,"velocity":0.3858267716535433},{"duration":0.16666650000001937,"midi":78,"time":342.8329905,"velocity":0.3858267716535433},{"duration":0.16666650000001937,"midi":59,"time":342.8329905,"velocity":0.3858267716535433},{"duration":0.16666649999996253,"midi":58,"time":342.999657,"velocity":0.3858267716535433},{"duration":0.16666649999996253,"midi":82,"time":342.999657,"velocity":0.3858267716535433},{"duration":0.16666650000001937,"midi":78,"time":343.1663235,"velocity":0.3858267716535433},{"duration":0.16666650000001937,"midi":61,"time":343.1663235,"velocity":0.3858267716535433},{"duration":0.6666660000000206,"midi":40,"time":343.33299,"velocity":0.3858267716535433},{"duration":0.16666650000001937,"midi":66,"time":343.33299,"velocity":0.3858267716535433},{"duration":0.16666650000001937,"midi":73,"time":343.33299,"velocity":0.3858267716535433},{"duration":0.16666649999996253,"midi":68,"time":343.4996565,"velocity":0.3858267716535433},{"duration":0.16666649999996253,"midi":78,"time":343.4996565,"velocity":0.3858267716535433},{"duration":0.16666650000001937,"midi":69,"time":343.666323,"velocity":0.3858267716535433},{"duration":0.16666650000001937,"midi":82,"time":343.666323,"velocity":0.3858267716535433},{"duration":0.16666650000001937,"midi":78,"time":343.8329895,"velocity":0.3858267716535433},{"duration":0.16666650000001937,"midi":71,"time":343.8329895,"velocity":0.3858267716535433},{"duration":0.16666649999996253,"midi":76,"time":343.999656,"velocity":0.3858267716535433},{"duration":0.3333329999999819,"midi":73,"time":343.999656,"velocity":0.3858267716535433},{"duration":1.3333319999999844,"midi":38,"time":343.999656,"velocity":0.3858267716535433},{"duration":0.16666650000001937,"midi":80,"time":344.1663225,"velocity":0.3858267716535433},{"duration":0.16666650000001937,"midi":85,"time":344.332989,"velocity":0.3858267716535433},{"duration":0.16666650000001937,"midi":73,"time":344.332989,"velocity":0.3858267716535433},{"duration":0.16666649999996253,"midi":71,"time":344.4996555,"velocity":0.3858267716535433},{"duration":0.16666649999996253,"midi":80,"time":344.4996555,"velocity":0.3858267716535433},{"duration":0.16666650000001937,"midi":76,"time":344.666322,"velocity":0.3858267716535433},{"duration":0.33333300000003874,"midi":69,"time":344.666322,"velocity":0.3858267716535433},{"duration":0.16666650000001937,"midi":80,"time":344.8329885,"velocity":0.3858267716535433},{"duration":0.16666649999996253,"midi":85,"time":344.999655,"velocity":0.3858267716535433},{"duration":0.3333329999999819,"midi":66,"time":344.999655,"velocity":0.3858267716535433},{"duration":0.16666650000001937,"midi":80,"time":345.1663215,"velocity":0.3858267716535433},{"duration":0.16666649999996253,"midi":76,"time":345.332988,"velocity":0.3858267716535433},{"duration":0.3333329999999819,"midi":68,"time":345.332988,"velocity":0.3858267716535433},{"duration":1.3333319999999844,"midi":45,"time":345.332988,"velocity":0.3858267716535433},{"duration":0.16666650000001937,"midi":80,"time":345.49965449999996,"velocity":0.3858267716535433},{"duration":0.3333329999999819,"midi":64,"time":345.666321,"velocity":0.3858267716535433},{"duration":0.16666650000001937,"midi":85,"time":345.666321,"velocity":0.3858267716535433},{"duration":0.16666649999996253,"midi":80,"time":345.8329875,"velocity":0.3858267716535433},{"duration":0.16666650000001937,"midi":76,"time":345.99965399999996,"velocity":0.3858267716535433},{"duration":0.33333300000003874,"midi":68,"time":345.99965399999996,"velocity":0.3858267716535433},{"duration":0.16666650000001937,"midi":80,"time":346.1663205,"velocity":0.3858267716535433},{"duration":0.3333329999999819,"midi":73,"time":346.332987,"velocity":0.3858267716535433},{"duration":0.16666649999996253,"midi":85,"time":346.332987,"velocity":0.3858267716535433},{"duration":0.16666650000001937,"midi":80,"time":346.49965349999997,"velocity":0.3858267716535433},{"duration":1.3333319999999844,"midi":47,"time":346.66632,"velocity":0.3858267716535433},{"duration":0.16666650000001937,"midi":78,"time":346.66632,"velocity":0.3858267716535433},{"duration":0.3333329999999819,"midi":71,"time":346.66632,"velocity":0.3858267716535433},{"duration":0.16666649999996253,"midi":83,"time":346.8329865,"velocity":0.3858267716535433},{"duration":0.16666650000001937,"midi":87,"time":346.99965299999997,"velocity":0.3858267716535433},{"duration":0.33333300000003874,"midi":66,"time":346.99965299999997,"velocity":0.3858267716535433},{"duration":0.16666650000001937,"midi":83,"time":347.1663195,"velocity":0.3858267716535433},{"duration":0.3333329999999819,"midi":71,"time":347.332986,"velocity":0.3858267716535433},{"duration":0.16666649999996253,"midi":78,"time":347.332986,"velocity":0.3858267716535433},{"duration":0.16666650000001937,"midi":83,"time":347.49965249999997,"velocity":0.3858267716535433},{"duration":0.3333329999999819,"midi":75,"time":347.666319,"velocity":0.3858267716535433},{"duration":0.16666650000001937,"midi":87,"time":347.666319,"velocity":0.3858267716535433},{"duration":0.16666649999996253,"midi":83,"time":347.8329855,"velocity":0.3858267716535433},{"duration":0.16666650000001937,"midi":71,"time":347.99965199999997,"velocity":0.3858267716535433},{"duration":0.6666660000000206,"midi":47,"time":347.99965199999997,"velocity":0.3858267716535433},{"duration":0.49999950000000126,"midi":71,"time":348.1663185,"velocity":0.3858267716535433},{"duration":0.16666650000001937,"midi":68,"time":348.666318,"velocity":0.3858267716535433},{"duration":0.6666660000000206,"midi":44,"time":348.666318,"velocity":0.3858267716535433},{"duration":0.49999950000000126,"midi":68,"time":348.8329845,"velocity":0.3858267716535433},{"duration":0.3333329999999819,"midi":49,"time":349.332984,"velocity":0.3858267716535433},{"duration":2.333330999999987,"midi":73,"time":349.332984,"velocity":0.3858267716535433},{"duration":0.8333324999999832,"midi":49,"time":349.332984,"velocity":0.3858267716535433},{"duration":2.333330999999987,"midi":85,"time":349.332984,"velocity":0.3858267716535433},{"duration":0.16666650000001937,"midi":37,"time":349.666317,"velocity":0.3858267716535433},{"duration":0.8333324999999832,"midi":49,"time":349.8329835,"velocity":0.3858267716535433},{"duration":0.16666650000001937,"midi":37,"time":350.1663165,"velocity":0.3858267716535433},{"duration":0.8333324999999832,"midi":49,"time":350.332983,"velocity":0.3858267716535433},{"duration":0.16666650000001937,"midi":37,"time":350.666316,"velocity":0.3858267716535433},{"duration":0.6666659999999638,"midi":49,"time":350.8329825,"velocity":0.3858267716535433},{"duration":0.16666650000001937,"midi":37,"time":351.1663155,"velocity":0.3858267716535433},{"duration":0.6666659999999638,"midi":49,"time":351.332982,"velocity":0.3858267716535433},{"duration":0.33333300000003874,"midi":47,"time":351.4996485,"velocity":0.3858267716535433},{"duration":0.3333329999999819,"midi":76,"time":351.666315,"velocity":0.3858267716535433},{"duration":0.3333329999999819,"midi":88,"time":351.666315,"velocity":0.3858267716535433},{"duration":0.16666649999996253,"midi":49,"time":351.8329815,"velocity":0.3858267716535433},{"duration":2.6666640000000257,"midi":47,"time":351.999648,"velocity":0.3858267716535433},{"duration":1.999998000000005,"midi":75,"time":351.999648,"velocity":0.3858267716535433},{"duration":1.999998000000005,"midi":87,"time":351.999648,"velocity":0.3858267716535433},{"duration":0.33333300000003874,"midi":56,"time":351.999648,"velocity":0.3858267716535433},{"duration":0.16666649999996253,"midi":44,"time":352.332981,"velocity":0.3858267716535433},{"duration":0.3333329999999819,"midi":56,"time":352.4996475,"velocity":0.3858267716535433},{"duration":0.16666650000001937,"midi":44,"time":352.83298049999996,"velocity":0.3858267716535433},{"duration":0.3333329999999819,"midi":56,"time":352.999647,"velocity":0.3858267716535433},{"duration":0.16666650000001937,"midi":44,"time":353.33297999999996,"velocity":0.3858267716535433},{"duration":0.3333329999999819,"midi":56,"time":353.4996465,"velocity":0.3858267716535433},{"duration":0.16666650000001937,"midi":44,"time":353.83297949999996,"velocity":0.3858267716535433},{"duration":0.3333329999999819,"midi":68,"time":353.999646,"velocity":0.3858267716535433},{"duration":0.3333329999999819,"midi":80,"time":353.999646,"velocity":0.3858267716535433},{"duration":0.16666650000001937,"midi":56,"time":353.999646,"velocity":0.3858267716535433},{"duration":0.3333329999999819,"midi":54,"time":354.1663125,"velocity":0.3858267716535433},{"duration":0.33333300000003874,"midi":83,"time":354.33297899999997,"velocity":0.3858267716535433},{"duration":0.33333300000003874,"midi":71,"time":354.33297899999997,"velocity":0.3858267716535433},{"duration":0.16666650000001937,"midi":56,"time":354.4996455,"velocity":0.3858267716535433},{"duration":2.666663999999969,"midi":46,"time":354.666312,"velocity":0.3858267716535433},{"duration":1.6666649999999663,"midi":73,"time":354.666312,"velocity":0.3858267716535433},{"duration":1.6666649999999663,"midi":85,"time":354.666312,"velocity":0.3858267716535433},{"duration":0.3333329999999819,"midi":51,"time":354.666312,"velocity":0.3858267716535433},{"duration":0.16666650000001937,"midi":39,"time":354.999645,"velocity":0.3858267716535433},{"duration":0.3333329999999819,"midi":51,"time":355.1663115,"velocity":0.3858267716535433},{"duration":0.16666650000001937,"midi":39,"time":355.4996445,"velocity":0.3858267716535433},{"duration":0.3333329999999819,"midi":51,"time":355.666311,"velocity":0.3858267716535433},{"duration":0.16666650000001937,"midi":39,"time":355.999644,"velocity":0.3858267716535433},{"duration":0.3333329999999819,"midi":51,"time":356.1663105,"velocity":0.3858267716535433},{"duration":0.33333300000003874,"midi":71,"time":356.33297699999997,"velocity":0.3858267716535433},{"duration":0.33333300000003874,"midi":83,"time":356.33297699999997,"velocity":0.3858267716535433},{"duration":0.16666650000001937,"midi":39,"time":356.4996435,"velocity":0.3858267716535433},{"duration":0.3333329999999819,"midi":73,"time":356.66631,"velocity":0.3858267716535433},{"duration":0.3333329999999819,"midi":85,"time":356.66631,"velocity":0.3858267716535433},{"duration":0.16666649999996253,"midi":51,"time":356.66631,"velocity":0.3858267716535433},{"duration":0.33333300000003874,"midi":49,"time":356.8329765,"velocity":0.3858267716535433},{"duration":0.3333329999999819,"midi":80,"time":356.999643,"velocity":0.3858267716535433},{"duration":0.16666649999996253,"midi":51,"time":357.1663095,"velocity":0.3858267716535433},{"duration":0.33333300000003874,"midi":50,"time":357.332976,"velocity":0.3858267716535433},{"duration":1.3333320000000413,"midi":78,"time":357.332976,"velocity":0.3858267716535433},{"duration":2.6666640000000257,"midi":45,"time":357.332976,"velocity":0.3858267716535433},{"duration":0.16666649999996253,"midi":38,"time":357.666309,"velocity":0.3858267716535433},{"duration":0.33333300000003874,"midi":50,"time":357.8329755,"velocity":0.3858267716535433},{"duration":0.16666649999996253,"midi":38,"time":358.1663085,"velocity":0.3858267716535433},{"duration":0.33333300000003874,"midi":50,"time":358.332975,"velocity":0.3858267716535433},{"duration":0.3333329999999819,"midi":81,"time":358.666308,"velocity":0.3858267716535433},{"duration":0.16666649999996253,"midi":38,"time":358.666308,"velocity":0.3858267716535433},{"duration":0.33333300000003874,"midi":50,"time":358.8329745,"velocity":0.3858267716535433},{"duration":0.3333329999999819,"midi":80,"time":358.999641,"velocity":0.3858267716535433},{"duration":0.16666649999996253,"midi":38,"time":359.1663075,"velocity":0.3858267716535433},{"duration":0.33333300000003874,"midi":50,"time":359.332974,"velocity":0.3858267716535433},{"duration":0.33333300000003874,"midi":78,"time":359.332974,"velocity":0.3858267716535433},{"duration":0.3333329999999819,"midi":80,"time":359.666307,"velocity":0.3858267716535433},{"duration":0.3333329999999819,"midi":50,"time":359.666307,"velocity":0.3858267716535433},{"duration":1.6666649999999663,"midi":88,"time":359.99964,"velocity":0.3858267716535433},{"duration":0.3333329999999819,"midi":49,"time":359.99964,"velocity":0.3858267716535433},{"duration":1.6666649999999663,"midi":76,"time":359.99964,"velocity":0.3858267716535433},{"duration":0.8333324999999832,"midi":49,"time":359.99964,"velocity":0.3858267716535433},{"duration":0.16666650000001937,"midi":37,"time":360.332973,"velocity":0.3858267716535433},{"duration":0.8333324999999832,"midi":49,"time":360.4996395,"velocity":0.3858267716535433},{"duration":0.16666650000001937,"midi":37,"time":360.8329725,"velocity":0.3858267716535433},{"duration":0.8333324999999832,"midi":49,"time":360.999639,"velocity":0.3858267716535433},{"duration":0.16666650000001937,"midi":37,"time":361.332972,"velocity":0.3858267716535433},{"duration":0.6666659999999638,"midi":49,"time":361.4996385,"velocity":0.3858267716535433},{"duration":0.33333300000003874,"midi":85,"time":361.66630499999997,"velocity":0.3858267716535433},{"duration":0.33333300000003874,"midi":73,"time":361.66630499999997,"velocity":0.3858267716535433},{"duration":0.16666650000001937,"midi":37,"time":361.8329715,"velocity":0.3858267716535433},{"duration":0.3333329999999819,"midi":88,"time":361.999638,"velocity":0.3858267716535433},{"duration":0.6666659999999638,"midi":49,"time":361.999638,"velocity":0.3858267716535433},{"duration":0.3333329999999819,"midi":76,"time":361.999638,"velocity":0.3858267716535433},{"duration":0.33333300000003874,"midi":47,"time":362.16630449999997,"velocity":0.3858267716535433},{"duration":0.3333329999999819,"midi":80,"time":362.332971,"velocity":0.3858267716535433},{"duration":0.16666649999996253,"midi":49,"time":362.4996375,"velocity":0.3858267716535433},{"duration":1.3333320000000413,"midi":80,"time":362.66630399999997,"velocity":0.3858267716535433},{"duration":0.33333300000003874,"midi":50,"time":362.66630399999997,"velocity":0.3858267716535433},{"duration":0.83333250000004,"midi":50,"time":362.66630399999997,"velocity":0.3858267716535433},{"duration":0.16666649999996253,"midi":38,"time":362.999637,"velocity":0.3858267716535433},{"duration":0.83333250000004,"midi":50,"time":363.16630349999997,"velocity":0.3858267716535433},{"duration":0.16666649999996253,"midi":38,"time":363.4996365,"velocity":0.3858267716535433},{"duration":0.83333250000004,"midi":50,"time":363.66630299999997,"velocity":0.3858267716535433},{"duration":0.16666649999996253,"midi":38,"time":363.999636,"velocity":0.3858267716535433},{"duration":0.9999990000000025,"midi":78,"time":363.999636,"velocity":0.3858267716535433},{"duration":0.83333250000004,"midi":50,"time":364.1663025,"velocity":0.3858267716535433},{"duration":0.16666649999996253,"midi":38,"time":364.4996355,"velocity":0.3858267716535433},{"duration":0.6666660000000206,"midi":50,"time":364.666302,"velocity":0.3858267716535433},{"duration":0.3333329999999819,"midi":80,"time":364.999635,"velocity":0.3858267716535433},{"duration":0.3333329999999819,"midi":50,"time":364.999635,"velocity":0.3858267716535433},{"duration":1.6666650000000232,"midi":85,"time":365.332968,"velocity":0.3858267716535433},{"duration":1.6666650000000232,"midi":73,"time":365.332968,"velocity":0.3858267716535433},{"duration":0.3333329999999819,"midi":51,"time":365.332968,"velocity":0.3858267716535433},{"duration":0.8333324999999832,"midi":51,"time":365.332968,"velocity":0.3858267716535433},{"duration":0.16666650000001937,"midi":39,"time":365.666301,"velocity":0.3858267716535433},{"duration":0.8333324999999832,"midi":51,"time":365.8329675,"velocity":0.3858267716535433},{"duration":0.16666650000001937,"midi":39,"time":366.1663005,"velocity":0.3858267716535433},{"duration":0.8333324999999832,"midi":51,"time":366.332967,"velocity":0.3858267716535433},{"duration":0.16666650000001937,"midi":39,"time":366.6663,"velocity":0.3858267716535433},{"duration":0.8333324999999832,"midi":51,"time":366.8329665,"velocity":0.3858267716535433},{"duration":0.3333329999999819,"midi":68,"time":366.999633,"velocity":0.3858267716535433},{"duration":0.3333329999999819,"midi":80,"time":366.999633,"velocity":0.3858267716535433},{"duration":0.16666650000001937,"midi":39,"time":367.1662995,"velocity":0.3858267716535433},{"duration":0.6666659999999638,"midi":51,"time":367.332966,"velocity":0.3858267716535433},{"duration":0.3333329999999819,"midi":73,"time":367.332966,"velocity":0.3858267716535433},{"duration":0.3333329999999819,"midi":85,"time":367.332966,"velocity":0.3858267716535433},{"duration":0.3333329999999819,"midi":80,"time":367.666299,"velocity":0.3858267716535433},{"duration":0.3333329999999819,"midi":51,"time":367.666299,"velocity":0.3858267716535433},{"duration":0.33333300000003874,"midi":44,"time":367.99963199999996,"velocity":0.3858267716535433},{"duration":0.83333250000004,"midi":44,"time":367.99963199999996,"velocity":0.3858267716535433},{"duration":1.3333320000000413,"midi":85,"time":367.99963199999996,"velocity":0.3858267716535433},{"duration":1.3333320000000413,"midi":85,"time":367.99963199999996,"velocity":0.3858267716535433},{"duration":0.16666649999996253,"midi":32,"time":368.332965,"velocity":0.3858267716535433},{"duration":0.83333250000004,"midi":44,"time":368.49963149999996,"velocity":0.3858267716535433},{"duration":0.16666649999996253,"midi":32,"time":368.8329645,"velocity":0.3858267716535433},{"duration":0.83333250000004,"midi":44,"time":368.99963099999997,"velocity":0.3858267716535433},{"duration":1.3333319999999844,"midi":84,"time":369.332964,"velocity":0.3858267716535433},{"duration":1.3333319999999844,"midi":84,"time":369.332964,"velocity":0.3858267716535433},{"duration":0.16666649999996253,"midi":32,"time":369.332964,"velocity":0.3858267716535433},{"duration":0.83333250000004,"midi":44,"time":369.49963049999997,"velocity":0.3858267716535433},{"duration":0.16666649999996253,"midi":32,"time":369.8329635,"velocity":0.3858267716535433},{"duration":0.6666660000000206,"midi":44,"time":369.99962999999997,"velocity":0.3858267716535433},{"duration":0.3333329999999819,"midi":44,"time":370.332963,"velocity":0.3858267716535433},{"duration":1.3333319999999844,"midi":37,"time":370.666296,"velocity":0.3858267716535433},{"duration":1.3333319999999844,"midi":68,"time":370.666296,"velocity":0.3858267716535433},{"duration":1.3333319999999844,"midi":73,"time":370.666296,"velocity":0.3858267716535433},{"duration":1.3333319999999844,"midi":64,"time":370.666296,"velocity":0.3858267716535433},{"duration":1.3333320000000413,"midi":71,"time":371.999628,"velocity":0.3858267716535433},{"duration":1.3333320000000413,"midi":63,"time":371.999628,"velocity":0.3858267716535433},{"duration":1.3333320000000413,"midi":66,"time":371.999628,"velocity":0.3858267716535433},{"duration":1.3333320000000413,"midi":37,"time":371.999628,"velocity":0.3858267716535433},{"duration":2.666663999999969,"midi":61,"time":373.33296,"velocity":0.3858267716535433},{"duration":1.3333319999999844,"midi":63,"time":373.33296,"velocity":0.3858267716535433},{"duration":1.3333319999999844,"midi":37,"time":373.33296,"velocity":0.3858267716535433},{"duration":2.666663999999969,"midi":68,"time":373.33296,"velocity":0.3858267716535433},{"duration":1.3333319999999844,"midi":37,"time":374.666292,"velocity":0.3858267716535433},{"duration":1.3333319999999844,"midi":64,"time":374.666292,"velocity":0.3858267716535433},{"duration":1.3333319999999844,"midi":68,"time":375.999624,"velocity":0.3858267716535433},{"duration":1.3333319999999844,"midi":61,"time":375.999624,"velocity":0.3858267716535433},{"duration":1.3333319999999844,"midi":64,"time":375.999624,"velocity":0.3858267716535433},{"duration":1.3333319999999844,"midi":37,"time":375.999624,"velocity":0.3858267716535433},{"duration":1.3333320000000413,"midi":37,"time":377.33295599999997,"velocity":0.3858267716535433},{"duration":1.3333320000000413,"midi":66,"time":377.33295599999997,"velocity":0.3858267716535433},{"duration":1.3333320000000413,"midi":59,"time":377.33295599999997,"velocity":0.3858267716535433},{"duration":1.3333320000000413,"midi":63,"time":377.33295599999997,"velocity":0.3858267716535433},{"duration":2.666663999999969,"midi":61,"time":378.666288,"velocity":0.3858267716535433},{"duration":2.666663999999969,"midi":56,"time":378.666288,"velocity":0.3858267716535433},{"duration":1.3333319999999844,"midi":37,"time":378.666288,"velocity":0.3858267716535433},{"duration":2.666663999999969,"midi":64,"time":378.666288,"velocity":0.3858267716535433},{"duration":1.3333319999999844,"midi":37,"time":379.99962,"velocity":0.3858267716535433},{"duration":1.3333319999999844,"midi":68,"time":381.332952,"velocity":0.3858267716535433},{"duration":1.3333319999999844,"midi":64,"time":381.332952,"velocity":0.3858267716535433},{"duration":1.3333319999999844,"midi":62,"time":381.332952,"velocity":0.3858267716535433},{"duration":1.3333319999999844,"midi":38,"time":381.332952,"velocity":0.3858267716535433},{"duration":1.3333320000000413,"midi":38,"time":382.66628399999996,"velocity":0.3858267716535433},{"duration":1.3333320000000413,"midi":69,"time":382.66628399999996,"velocity":0.3858267716535433},{"duration":1.3333320000000413,"midi":66,"time":382.66628399999996,"velocity":0.3858267716535433},{"duration":1.3333320000000413,"midi":62,"time":382.66628399999996,"velocity":0.3858267716535433},{"duration":1.3333319999999844,"midi":71,"time":383.999616,"velocity":0.3858267716535433},{"duration":1.3333319999999844,"midi":37,"time":383.999616,"velocity":0.3858267716535433},{"duration":1.3333319999999844,"midi":61,"time":383.999616,"velocity":0.3858267716535433},{"duration":1.3333319999999844,"midi":68,"time":383.999616,"velocity":0.3858267716535433},{"duration":1.3333319999999844,"midi":68,"time":385.332948,"velocity":0.3858267716535433},{"duration":1.3333319999999844,"midi":61,"time":385.332948,"velocity":0.3858267716535433},{"duration":0.6666660000000206,"midi":37,"time":385.332948,"velocity":0.3858267716535433},{"duration":1.3333319999999844,"midi":76,"time":385.332948,"velocity":0.3858267716535433},{"duration":0.6666659999999638,"midi":44,"time":385.999614,"velocity":0.3858267716535433},{"duration":2.6666640000000257,"midi":66,"time":386.66628,"velocity":0.3858267716535433},{"duration":2.6666640000000257,"midi":73,"time":386.66628,"velocity":0.3858267716535433},{"duration":1.3333320000000413,"midi":42,"time":386.66628,"velocity":0.3858267716535433},{"duration":1.3333319999999844,"midi":42,"time":387.999612,"velocity":0.3858267716535433},{"duration":2.666663999999969,"midi":73,"time":389.332944,"velocity":0.3858267716535433},{"duration":1.3333319999999844,"midi":40,"time":389.332944,"velocity":0.3858267716535433},{"duration":2.666663999999969,"midi":64,"time":389.332944,"velocity":0.3858267716535433},{"duration":1.3333319999999844,"midi":40,"time":390.666276,"velocity":0.3858267716535433},{"duration":1.3333320000000413,"midi":64,"time":391.99960799999997,"velocity":0.3858267716535433},{"duration":1.3333320000000413,"midi":69,"time":391.99960799999997,"velocity":0.3858267716535433},{"duration":1.3333320000000413,"midi":33,"time":391.99960799999997,"velocity":0.3858267716535433},{"duration":0.16666650000001937,"midi":85,"time":391.99960799999997,"velocity":0.3858267716535433},{"duration":0.49999950000000126,"midi":73,"time":391.99960799999997,"velocity":0.3858267716535433},{"duration":0.16666650000001937,"midi":80,"time":392.1662745,"velocity":0.3858267716535433},{"duration":0.8333324999999832,"midi":73,"time":392.332941,"velocity":0.3858267716535433},{"duration":0.16666650000001937,"midi":68,"time":392.49960749999997,"velocity":0.3858267716535433},{"duration":0.16666650000001937,"midi":85,"time":392.666274,"velocity":0.3858267716535433},{"duration":0.16666649999996253,"midi":80,"time":392.8329405,"velocity":0.3858267716535433},{"duration":0.33333300000003874,"midi":73,"time":392.99960699999997,"velocity":0.3858267716535433},{"duration":0.16666650000001937,"midi":68,"time":393.1662735,"velocity":0.3858267716535433},{"duration":1.3333319999999844,"midi":35,"time":393.33294,"velocity":0.3858267716535433},{"duration":1.3333319999999844,"midi":63,"time":393.33294,"velocity":0.3858267716535433},{"duration":1.3333319999999844,"midi":66,"time":393.33294,"velocity":0.3858267716535433},{"duration":0.16666649999996253,"midi":85,"time":393.33294,"velocity":0.3858267716535433},{"duration":1.3333319999999844,"midi":71,"time":393.33294,"velocity":0.3858267716535433},{"duration":0.16666650000001937,"midi":80,"time":393.49960649999997,"velocity":0.3858267716535433},{"duration":0.16666650000001937,"midi":73,"time":393.666273,"velocity":0.3858267716535433},{"duration":0.16666649999996253,"midi":68,"time":393.8329395,"velocity":0.3858267716535433},{"duration":0.16666650000001937,"midi":85,"time":393.99960599999997,"velocity":0.3858267716535433},{"duration":0.16666650000001937,"midi":80,"time":394.1662725,"velocity":0.3858267716535433},{"duration":0.16666649999996253,"midi":73,"time":394.332939,"velocity":0.3858267716535433},{"duration":0.16666650000001937,"midi":68,"time":394.4996055,"velocity":0.3858267716535433},{"duration":2.666663999999969,"midi":61,"time":394.666272,"velocity":0.3858267716535433},{"duration":0.16666650000001937,"midi":85,"time":394.666272,"velocity":0.3858267716535433},{"duration":0.6666660000000206,"midi":68,"time":394.666272,"velocity":0.3858267716535433},{"duration":1.3333319999999844,"midi":63,"time":394.666272,"velocity":0.3858267716535433},{"duration":1.3333319999999844,"midi":37,"time":394.666272,"velocity":0.3858267716535433},{"duration":0.16666649999996253,"midi":80,"time":394.8329385,"velocity":0.3858267716535433},{"duration":0.16666650000001937,"midi":73,"time":394.999605,"velocity":0.3858267716535433},{"duration":0.8333324999999832,"midi":68,"time":395.1662715,"velocity":0.3858267716535433},{"duration":0.16666649999996253,"midi":85,"time":395.332938,"velocity":0.3858267716535433},{"duration":0.16666650000001937,"midi":80,"time":395.4996045,"velocity":0.3858267716535433},{"duration":0.16666650000001937,"midi":73,"time":395.666271,"velocity":0.3858267716535433},{"duration":0.8333324999999832,"midi":68,"time":395.8329375,"velocity":0.3858267716535433},{"duration":1.3333319999999844,"midi":64,"time":395.999604,"velocity":0.3858267716535433},{"duration":1.3333319999999844,"midi":37,"time":395.999604,"velocity":0.3858267716535433},{"duration":0.16666650000001937,"midi":85,"time":395.999604,"velocity":0.3858267716535433},{"duration":0.16666650000001937,"midi":80,"time":396.1662705,"velocity":0.3858267716535433},{"duration":0.16666649999996253,"midi":73,"time":396.332937,"velocity":0.3858267716535433},{"duration":0.8333324999999832,"midi":68,"time":396.4996035,"velocity":0.3858267716535433},{"duration":0.16666650000001937,"midi":85,"time":396.66627,"velocity":0.3858267716535433},{"duration":0.16666649999996253,"midi":80,"time":396.8329365,"velocity":0.3858267716535433},{"duration":0.16666650000001937,"midi":73,"time":396.999603,"velocity":0.3858267716535433},{"duration":0.16666649999996253,"midi":68,"time":397.1662695,"velocity":0.3858267716535433},{"duration":1.3333320000000413,"midi":71,"time":397.33293599999996,"velocity":0.3858267716535433},{"duration":0.16666650000001937,"midi":85,"time":397.33293599999996,"velocity":0.3858267716535433},{"duration":1.3333320000000413,"midi":76,"time":397.33293599999996,"velocity":0.3858267716535433},{"duration":1.3333320000000413,"midi":80,"time":397.33293599999996,"velocity":0.3858267716535433},{"duration":1.3333320000000413,"midi":35,"time":397.33293599999996,"velocity":0.3858267716535433},{"duration":0.16666650000001937,"midi":78,"time":397.4996025,"velocity":0.3858267716535433},{"duration":0.16666649999996253,"midi":73,"time":397.666269,"velocity":0.3858267716535433},{"duration":0.16666650000001937,"midi":70,"time":397.83293549999996,"velocity":0.3858267716535433},{"duration":0.16666650000001937,"midi":85,"time":397.999602,"velocity":0.3858267716535433},{"duration":0.16666649999996253,"midi":78,"time":398.1662685,"velocity":0.3858267716535433},{"duration":0.16666650000001937,"midi":73,"time":398.33293499999996,"velocity":0.3858267716535433},{"duration":0.16666650000001937,"midi":70,"time":398.4996015,"velocity":0.3858267716535433},{"duration":0.3333329999999819,"midi":78,"time":398.666268,"velocity":0.3858267716535433},{"duration":1.3333319999999844,"midi":75,"time":398.666268,"velocity":0.3858267716535433},{"duration":1.3333319999999844,"midi":35,"time":398.666268,"velocity":0.3858267716535433},{"duration":0.16666649999996253,"midi":85,"time":398.666268,"velocity":0.3858267716535433},{"duration":1.3333319999999844,"midi":71,"time":398.666268,"velocity":0.3858267716535433},{"duration":0.83333250000004,"midi":78,"time":398.83293449999996,"velocity":0.3858267716535433},{"duration":0.16666650000001937,"midi":73,"time":398.999601,"velocity":0.3858267716535433},{"duration":0.16666649999996253,"midi":70,"time":399.1662675,"velocity":0.3858267716535433},{"duration":0.16666650000001937,"midi":85,"time":399.33293399999997,"velocity":0.3858267716535433},{"duration":0.49999950000000126,"midi":78,"time":399.4996005,"velocity":0.3858267716535433},{"duration":0.16666649999996253,"midi":73,"time":399.666267,"velocity":0.3858267716535433},{"duration":0.16666650000001937,"midi":70,"time":399.83293349999997,"velocity":0.3858267716535433},{"duration":0.16666650000001937,"midi":85,"time":399.9996,"velocity":0.3858267716535433},{"duration":0.49999950000000126,"midi":73,"time":399.9996,"velocity":0.3858267716535433},{"duration":1.3333319999999844,"midi":30,"time":399.9996,"velocity":0.3858267716535433},{"duration":0.6666660000000206,"midi":70,"time":399.9996,"velocity":0.3858267716535433},{"duration":2.6666640000000257,"midi":66,"time":399.9996,"velocity":0.3858267716535433},{"duration":0.16666649999996253,"midi":78,"time":400.1662665,"velocity":0.3858267716535433},{"duration":0.83333250000004,"midi":73,"time":400.33293299999997,"velocity":0.3858267716535433},{"duration":0.8333324999999832,"midi":70,"time":400.4995995,"velocity":0.3858267716535433},{"duration":0.16666649999996253,"midi":85,"time":400.666266,"velocity":0.3858267716535433},{"duration":0.16666650000001937,"midi":78,"time":400.83293249999997,"velocity":0.3858267716535433},{"duration":0.8333324999999832,"midi":73,"time":400.999599,"velocity":0.3858267716535433},{"duration":0.8333324999999832,"midi":70,"time":401.1662655,"velocity":0.3858267716535433},{"duration":0.16666650000001937,"midi":85,"time":401.33293199999997,"velocity":0.3858267716535433},{"duration":1.3333320000000413,"midi":30,"time":401.33293199999997,"velocity":0.3858267716535433},{"duration":0.16666650000001937,"midi":78,"time":401.4995985,"velocity":0.3858267716535433},{"duration":0.8333324999999832,"midi":73,"time":401.666265,"velocity":0.3858267716535433},{"duration":0.83333250000004,"midi":70,"time":401.8329315,"velocity":0.3858267716535433},{"duration":0.16666650000001937,"midi":85,"time":401.999598,"velocity":0.3858267716535433},{"duration":0.16666649999996253,"midi":78,"time":402.1662645,"velocity":0.3858267716535433},{"duration":0.33333300000003874,"midi":73,"time":402.332931,"velocity":0.3858267716535433},{"duration":0.16666650000001937,"midi":70,"time":402.4995975,"velocity":0.3858267716535433},{"duration":1.3333319999999844,"midi":69,"time":402.666264,"velocity":0.3858267716535433},{"duration":1.3333319999999844,"midi":66,"time":402.666264,"velocity":0.3858267716535433},{"duration":0.6666659999999638,"midi":73,"time":402.666264,"velocity":0.3858267716535433},{"duration":1.3333319999999844,"midi":33,"time":402.666264,"velocity":0.3858267716535433},{"duration":0.16666649999996253,"midi":85,"time":402.666264,"velocity":0.3858267716535433},{"duration":0.16666650000001937,"midi":81,"time":402.8329305,"velocity":0.3858267716535433},{"duration":0.16666650000001937,"midi":76,"time":402.999597,"velocity":0.3858267716535433},{"duration":0.8333324999999832,"midi":73,"time":403.1662635,"velocity":0.3858267716535433},{"duration":0.16666650000001937,"midi":85,"time":403.33293,"velocity":0.3858267716535433},{"duration":0.16666650000001937,"midi":81,"time":403.4995965,"velocity":0.3858267716535433},{"duration":0.16666649999996253,"midi":76,"time":403.666263,"velocity":0.3858267716535433},{"duration":0.16666650000001937,"midi":73,"time":403.8329295,"velocity":0.3858267716535433},{"duration":1.3333319999999844,"midi":35,"time":403.999596,"velocity":0.3858267716535433},{"duration":0.6666659999999638,"midi":75,"time":403.999596,"velocity":0.3858267716535433},{"duration":1.3333319999999844,"midi":71,"time":403.999596,"velocity":0.3858267716535433},{"duration":1.3333319999999844,"midi":68,"time":403.999596,"velocity":0.3858267716535433},{"duration":0.16666650000001937,"midi":87,"time":403.999596,"velocity":0.3858267716535433},{"duration":0.16666649999996253,"midi":83,"time":404.1662625,"velocity":0.3858267716535433},{"duration":0.16666650000001937,"midi":78,"time":404.332929,"velocity":0.3858267716535433},{"duration":0.8333324999999832,"midi":75,"time":404.4995955,"velocity":0.3858267716535433},{"duration":0.16666650000001937,"midi":87,"time":404.66626199999996,"velocity":0.3858267716535433},{"duration":0.16666650000001937,"midi":83,"time":404.8329285,"velocity":0.3858267716535433},{"duration":0.16666649999996253,"midi":78,"time":404.999595,"velocity":0.3858267716535433},{"duration":0.16666650000001937,"midi":75,"time":405.16626149999996,"velocity":0.3858267716535433},{"duration":1.3333319999999844,"midi":76,"time":405.332928,"velocity":0.3858267716535433},{"duration":0.49999950000000126,"midi":73,"time":405.332928,"velocity":0.3858267716535433},{"duration":0.6666660000000206,"midi":68,"time":405.332928,"velocity":0.3858267716535433},{"duration":0.16666650000001937,"midi":85,"time":405.332928,"velocity":0.3858267716535433},{"duration":1.3333319999999844,"midi":37,"time":405.332928,"velocity":0.3858267716535433},{"duration":0.16666649999996253,"midi":78,"time":405.4995945,"velocity":0.3858267716535433},{"duration":0.83333250000004,"midi":73,"time":405.66626099999996,"velocity":0.3858267716535433},{"duration":0.8333324999999832,"midi":68,"time":405.8329275,"velocity":0.3858267716535433},{"duration":0.16666649999996253,"midi":85,"time":405.999594,"velocity":0.3858267716535433},{"duration":0.16666650000001937,"midi":78,"time":406.16626049999996,"velocity":0.3858267716535433},{"duration":0.3333329999999819,"midi":73,"time":406.332927,"velocity":0.3858267716535433},{"duration":0.16666649999996253,"midi":68,"time":406.4995935,"velocity":0.3858267716535433},{"duration":0.6666660000000206,"midi":37,"time":406.66625999999997,"velocity":0.3858267716535433},{"duration":0.16666650000001937,"midi":85,"time":406.66625999999997,"velocity":0.3858267716535433},{"duration":0.6666660000000206,"midi":80,"time":406.66625999999997,"velocity":0.3858267716535433},{"duration":0.6666660000000206,"midi":76,"time":406.66625999999997,"velocity":0.3858267716535433},{"duration":0.49999950000000126,"midi":73,"time":406.66625999999997,"velocity":0.3858267716535433},{"duration":0.16666650000001937,"midi":78,"time":406.8329265,"velocity":0.3858267716535433},{"duration":0.3333329999999819,"midi":73,"time":406.999593,"velocity":0.3858267716535433},{"duration":0.16666650000001937,"midi":68,"time":407.16625949999997,"velocity":0.3858267716535433},{"duration":0.6666660000000206,"midi":75,"time":407.332926,"velocity":0.3858267716535433},{"duration":0.16666650000001937,"midi":85,"time":407.332926,"velocity":0.3858267716535433},{"duration":0.6666660000000206,"midi":71,"time":407.332926,"velocity":0.3858267716535433},{"duration":0.3333329999999819,"midi":78,"time":407.332926,"velocity":0.3858267716535433},{"duration":0.6666660000000206,"midi":35,"time":407.332926,"velocity":0.3858267716535433},{"duration":0.49999950000000126,"midi":78,"time":407.4995925,"velocity":0.3858267716535433},{"duration":0.16666650000001937,"midi":73,"time":407.66625899999997,"velocity":0.3858267716535433},{"duration":0.16666650000001937,"midi":68,"time":407.8329255,"velocity":0.3858267716535433},{"duration":0.49999950000000126,"midi":73,"time":407.999592,"velocity":0.3858267716535433},{"duration":1.3333319999999844,"midi":34,"time":407.999592,"velocity":0.3858267716535433},{"duration":0.16666649999996253,"midi":85,"time":407.999592,"velocity":0.3858267716535433},{"duration":0.3333329999999819,"midi":78,"time":407.999592,"velocity":0.3858267716535433},{"duration":0.6666659999999638,"midi":70,"time":407.999592,"velocity":0.3858267716535433},{"duration":0.83333250000004,"midi":78,"time":408.16625849999997,"velocity":0.3858267716535433},{"duration":0.8333324999999832,"midi":73,"time":408.332925,"velocity":0.3858267716535433},{"duration":0.8333324999999832,"midi":70,"time":408.4995915,"velocity":0.3858267716535433},{"duration":0.16666650000001937,"midi":85,"time":408.66625799999997,"velocity":0.3858267716535433},{"duration":0.49999950000000126,"midi":78,"time":408.8329245,"velocity":0.3858267716535433},{"duration":0.3333329999999819,"midi":73,"time":408.999591,"velocity":0.3858267716535433},{"duration":0.16666650000001937,"midi":70,"time":409.1662575,"velocity":0.3858267716535433},{"duration":0.49999950000000126,"midi":73,"time":409.332924,"velocity":0.3858267716535433},{"duration":0.6666660000000206,"midi":70,"time":409.332924,"velocity":0.3858267716535433},{"duration":1.3333319999999844,"midi":66,"time":409.332924,"velocity":0.3858267716535433},{"duration":0.16666650000001937,"midi":85,"time":409.332924,"velocity":0.3858267716535433},{"duration":1.3333319999999844,"midi":30,"time":409.332924,"velocity":0.3858267716535433},{"duration":0.16666649999996253,"midi":78,"time":409.4995905,"velocity":0.3858267716535433},{"duration":0.83333250000004,"midi":73,"time":409.666257,"velocity":0.3858267716535433},{"duration":0.8333324999999832,"midi":70,"time":409.8329235,"velocity":0.3858267716535433},{"duration":0.16666649999996253,"midi":85,"time":409.99959,"velocity":0.3858267716535433},{"duration":0.16666650000001937,"midi":78,"time":410.1662565,"velocity":0.3858267716535433},{"duration":0.3333329999999819,"midi":73,"time":410.332923,"velocity":0.3858267716535433},{"duration":0.16666649999996253,"midi":70,"time":410.4995895,"velocity":0.3858267716535433},{"duration":1.3333319999999844,"midi":30,"time":410.666256,"velocity":0.3858267716535433},{"duration":0.33333300000003874,"midi":76,"time":410.666256,"velocity":0.3858267716535433},{"duration":0.16666650000001937,"midi":85,"time":410.666256,"velocity":0.3858267716535433},{"duration":0.8333324999999832,"midi":76,"time":410.8329225,"velocity":0.3858267716535433},{"duration":0.16666649999996253,"midi":73,"time":410.999589,"velocity":0.3858267716535433},{"duration":0.16666650000001937,"midi":69,"time":411.1662555,"velocity":0.3858267716535433},{"duration":0.16666650000001937,"midi":85,"time":411.332922,"velocity":0.3858267716535433},{"duration":0.4999994999999444,"midi":76,"time":411.4995885,"velocity":0.3858267716535433},{"duration":0.16666650000001937,"midi":73,"time":411.666255,"velocity":0.3858267716535433},{"duration":0.16666649999996253,"midi":69,"time":411.8329215,"velocity":0.3858267716535433},{"duration":1.3333320000000413,"midi":32,"time":411.99958799999996,"velocity":0.3858267716535433},{"duration":0.16666650000001937,"midi":87,"time":411.99958799999996,"velocity":0.3858267716535433},{"duration":0.49999950000000126,"midi":78,"time":411.99958799999996,"velocity":0.3858267716535433},{"duration":0.16666650000001937,"midi":83,"time":412.1662545,"velocity":0.3858267716535433},{"duration":0.8333324999999832,"midi":78,"time":412.332921,"velocity":0.3858267716535433},{"duration":0.16666650000001937,"midi":75,"time":412.49958749999996,"velocity":0.3858267716535433},{"duration":0.16666650000001937,"midi":87,"time":412.666254,"velocity":0.3858267716535433},{"duration":0.16666649999996253,"midi":83,"time":412.8329205,"velocity":0.3858267716535433},{"duration":0.33333300000003874,"midi":78,"time":412.99958699999996,"velocity":0.3858267716535433},{"duration":0.16666650000001937,"midi":75,"time":413.1662535,"velocity":0.3858267716535433},{"duration":2.666663999999969,"midi":69,"time":413.33292,"velocity":0.3858267716535433},{"duration":2.666663999999969,"midi":73,"time":413.33292,"velocity":0.3858267716535433},{"duration":1.3333319999999844,"midi":33,"time":413.33292,"velocity":0.3858267716535433},{"duration":2.666663999999969,"midi":85,"time":413.33292,"velocity":0.3858267716535433},{"duration":2.666663999999969,"midi":80,"time":413.33292,"velocity":0.3858267716535433},{"duration":2.666663999999969,"midi":76,"time":413.33292,"velocity":0.3858267716535433},{"duration":1.3333319999999844,"midi":33,"time":414.666252,"velocity":0.3858267716535433},{"duration":2.6666640000000257,"midi":73,"time":415.99958399999997,"velocity":0.3858267716535433},{"duration":2.6666640000000257,"midi":76,"time":415.99958399999997,"velocity":0.3858267716535433},{"duration":2.6666640000000257,"midi":71,"time":415.99958399999997,"velocity":0.3858267716535433},{"duration":2.6666640000000257,"midi":80,"time":415.99958399999997,"velocity":0.3858267716535433},{"duration":1.3333320000000413,"midi":35,"time":415.99958399999997,"velocity":0.3858267716535433},{"duration":2.6666640000000257,"midi":85,"time":415.99958399999997,"velocity":0.3858267716535433},{"duration":1.3333319999999844,"midi":35,"time":417.332916,"velocity":0.3858267716535433},{"duration":1.3333319999999844,"midi":61,"time":418.666248,"velocity":0.3858267716535433},{"duration":1.3333319999999844,"midi":68,"time":418.666248,"velocity":0.3858267716535433},{"duration":0.3333329999999819,"midi":49,"time":418.666248,"velocity":0.3858267716535433},{"duration":1.3333319999999844,"midi":64,"time":418.666248,"velocity":0.3858267716535433},{"duration":0.49999950000000126,"midi":37,"time":418.999581,"velocity":0.3858267716535433},{"duration":0.49999950000000126,"midi":37,"time":419.4995805,"velocity":0.3858267716535433},{"duration":1.3333319999999844,"midi":69,"time":419.99958,"velocity":0.3858267716535433},{"duration":0.49999950000000126,"midi":37,"time":419.99958,"velocity":0.3858267716535433},{"duration":1.3333319999999844,"midi":61,"time":419.99958,"velocity":0.3858267716535433},{"duration":1.3333319999999844,"midi":64,"time":419.99958,"velocity":0.3858267716535433},{"duration":0.3333329999999819,"midi":37,"time":420.4995795,"velocity":0.3858267716535433},{"duration":0.16666650000001937,"midi":37,"time":420.83291249999996,"velocity":0.3858267716535433},{"duration":0.16666650000001937,"midi":42,"time":420.999579,"velocity":0.3858267716535433},{"duration":0.16666649999996253,"midi":44,"time":421.1662455,"velocity":0.3858267716535433},{"duration":0.33333300000003874,"midi":37,"time":421.33291199999996,"velocity":0.3858267716535433},{"duration":1.3333320000000413,"midi":71,"time":421.33291199999996,"velocity":0.3858267716535433},{"duration":1.3333320000000413,"midi":59,"time":421.33291199999996,"velocity":0.3858267716535433},{"duration":1.3333320000000413,"midi":63,"time":421.33291199999996,"velocity":0.3858267716535433},{"duration":0.49999950000000126,"midi":37,"time":421.666245,"velocity":0.3858267716535433},{"duration":0.49999950000000126,"midi":37,"time":422.1662445,"velocity":0.3858267716535433},{"duration":1.3333319999999844,"midi":59,"time":422.666244,"velocity":0.3858267716535433},{"duration":1.3333319999999844,"midi":63,"time":422.666244,"velocity":0.3858267716535433},{"duration":1.3333319999999844,"midi":66,"time":422.666244,"velocity":0.3858267716535433},{"duration":0.49999950000000126,"midi":37,"time":422.666244,"velocity":0.3858267716535433},{"duration":0.16666649999996253,"midi":37,"time":423.1662435,"velocity":0.3858267716535433},{"duration":0.16666650000001937,"midi":37,"time":423.33290999999997,"velocity":0.3858267716535433},{"duration":0.16666650000001937,"midi":42,"time":423.4995765,"velocity":0.3858267716535433},{"duration":0.16666649999996253,"midi":44,"time":423.666243,"velocity":0.3858267716535433},{"duration":0.16666650000001937,"midi":47,"time":423.83290949999997,"velocity":0.3858267716535433},{"duration":0.3333329999999819,"midi":49,"time":423.999576,"velocity":0.3858267716535433},{"duration":1.3333319999999844,"midi":64,"time":423.999576,"velocity":0.3858267716535433},{"duration":1.3333319999999844,"midi":68,"time":423.999576,"velocity":0.3858267716535433},{"duration":1.3333319999999844,"midi":61,"time":423.999576,"velocity":0.3858267716535433},{"duration":0.49999950000000126,"midi":37,"time":424.332909,"velocity":0.3858267716535433},{"duration":0.49999950000000126,"midi":37,"time":424.8329085,"velocity":0.3858267716535433},{"duration":1.3333320000000413,"midi":61,"time":425.332908,"velocity":0.3858267716535433},{"duration":1.3333320000000413,"midi":64,"time":425.332908,"velocity":0.3858267716535433},{"duration":0.49999950000000126,"midi":37,"time":425.332908,"velocity":0.3858267716535433},{"duration":1.3333320000000413,"midi":69,"time":425.332908,"velocity":0.3858267716535433},{"duration":0.33333300000003874,"midi":37,"time":425.8329075,"velocity":0.3858267716535433},{"duration":0.16666649999996253,"midi":37,"time":426.1662405,"velocity":0.3858267716535433},{"duration":0.16666650000001937,"midi":42,"time":426.332907,"velocity":0.3858267716535433},{"duration":0.16666650000001937,"midi":44,"time":426.4995735,"velocity":0.3858267716535433},{"duration":0.3333329999999819,"midi":37,"time":426.66624,"velocity":0.3858267716535433},{"duration":1.3333319999999844,"midi":71,"time":426.66624,"velocity":0.3858267716535433},{"duration":1.3333319999999844,"midi":63,"time":426.66624,"velocity":0.3858267716535433},{"duration":1.3333319999999844,"midi":59,"time":426.66624,"velocity":0.3858267716535433},{"duration":0.49999950000000126,"midi":37,"time":426.999573,"velocity":0.3858267716535433},{"duration":0.49999950000000126,"midi":37,"time":427.4995725,"velocity":0.3858267716535433},{"duration":1.3333319999999844,"midi":59,"time":427.999572,"velocity":0.3858267716535433},{"duration":1.3333319999999844,"midi":66,"time":427.999572,"velocity":0.3858267716535433},{"duration":1.3333319999999844,"midi":63,"time":427.999572,"velocity":0.3858267716535433},{"duration":0.49999950000000126,"midi":37,"time":427.999572,"velocity":0.3858267716535433},{"duration":0.16666649999996253,"midi":37,"time":428.4995715,"velocity":0.3858267716535433},{"duration":0.16666650000001937,"midi":37,"time":428.66623799999996,"velocity":0.3858267716535433},{"duration":0.16666650000001937,"midi":42,"time":428.8329045,"velocity":0.3858267716535433},{"duration":0.16666649999996253,"midi":44,"time":428.999571,"velocity":0.3858267716535433},{"duration":0.16666650000001937,"midi":49,"time":429.16623749999997,"velocity":0.3858267716535433},{"duration":1.3333319999999844,"midi":69,"time":429.332904,"velocity":0.3858267716535433},{"duration":0.3333329999999819,"midi":50,"time":429.332904,"velocity":0.3858267716535433},{"duration":1.3333319999999844,"midi":66,"time":429.332904,"velocity":0.3858267716535433},{"duration":1.3333319999999844,"midi":62,"time":429.332904,"velocity":0.3858267716535433},{"duration":0.49999950000000126,"midi":38,"time":429.66623699999997,"velocity":0.3858267716535433},{"duration":0.49999950000000126,"midi":38,"time":430.16623649999997,"velocity":0.3858267716535433},{"duration":1.3333320000000413,"midi":62,"time":430.66623599999997,"velocity":0.3858267716535433},{"duration":0.49999950000000126,"midi":38,"time":430.66623599999997,"velocity":0.3858267716535433},{"duration":1.3333320000000413,"midi":66,"time":430.66623599999997,"velocity":0.3858267716535433},{"duration":1.3333320000000413,"midi":73,"time":430.66623599999997,"velocity":0.3858267716535433},{"duration":0.33333300000003874,"midi":38,"time":431.16623549999997,"velocity":0.3858267716535433},{"duration":0.16666649999996253,"midi":38,"time":431.4995685,"velocity":0.3858267716535433},{"duration":0.16666650000001937,"midi":42,"time":431.666235,"velocity":0.3858267716535433},{"duration":0.16666650000001937,"midi":45,"time":431.8329015,"velocity":0.3858267716535433},{"duration":1.3333319999999844,"midi":71,"time":431.999568,"velocity":0.3858267716535433},{"duration":1.3333319999999844,"midi":66,"time":431.999568,"velocity":0.3858267716535433},{"duration":0.3333329999999819,"midi":38,"time":431.999568,"velocity":0.3858267716535433},{"duration":1.3333319999999844,"midi":62,"time":431.999568,"velocity":0.3858267716535433},{"duration":0.49999950000000126,"midi":38,"time":432.332901,"velocity":0.3858267716535433},{"duration":0.49999950000000126,"midi":38,"time":432.8329005,"velocity":0.3858267716535433},{"duration":1.3333319999999844,"midi":62,"time":433.3329,"velocity":0.3858267716535433},{"duration":1.3333319999999844,"midi":66,"time":433.3329,"velocity":0.3858267716535433},{"duration":1.3333319999999844,"midi":69,"time":433.3329,"velocity":0.3858267716535433},{"duration":0.49999950000000126,"midi":38,"time":433.3329,"velocity":0.3858267716535433},{"duration":0.16666650000001937,"midi":38,"time":433.8328995,"velocity":0.3858267716535433},{"duration":0.16666649999996253,"midi":38,"time":433.999566,"velocity":0.3858267716535433},{"duration":0.16666650000001937,"midi":38,"time":434.1662325,"velocity":0.3858267716535433},{"duration":0.16666649999996253,"midi":42,"time":434.332899,"velocity":0.3858267716535433},{"duration":0.16666650000001937,"midi":45,"time":434.49956549999996,"velocity":0.3858267716535433},{"duration":0.3333329999999819,"midi":37,"time":434.666232,"velocity":0.3858267716535433},{"duration":2.6666640000000257,"midi":64,"time":434.666232,"velocity":0.3858267716535433},{"duration":2.6666640000000257,"midi":61,"time":434.666232,"velocity":0.3858267716535433},{"duration":2.6666640000000257,"midi":68,"time":434.666232,"velocity":0.3858267716535433},{"duration":0.49999950000000126,"midi":37,"time":434.99956499999996,"velocity":0.3858267716535433},{"duration":0.49999950000000126,"midi":37,"time":435.49956449999996,"velocity":0.3858267716535433},{"duration":0.49999950000000126,"midi":37,"time":435.99956399999996,"velocity":0.3858267716535433},{"duration":0.33333300000003874,"midi":37,"time":436.49956349999997,"velocity":0.3858267716535433},{"duration":0.16666649999996253,"midi":37,"time":436.8328965,"velocity":0.3858267716535433},{"duration":0.16666650000001937,"midi":42,"time":436.99956299999997,"velocity":0.3858267716535433},{"duration":0.16666650000001937,"midi":44,"time":437.1662295,"velocity":0.3858267716535433},{"duration":0.3333329999999819,"midi":35,"time":437.332896,"velocity":0.3858267716535433},{"duration":2.666663999999969,"midi":59,"time":437.332896,"velocity":0.3858267716535433},{"duration":2.666663999999969,"midi":63,"time":437.332896,"velocity":0.3858267716535433},{"duration":2.666663999999969,"midi":66,"time":437.332896,"velocity":0.3858267716535433},{"duration":2.666663999999969,"midi":68,"time":437.332896,"velocity":0.3858267716535433},{"duration":0.49999950000000126,"midi":35,"time":437.666229,"velocity":0.3858267716535433},{"duration":0.49999950000000126,"midi":35,"time":438.1662285,"velocity":0.3858267716535433},{"duration":0.49999950000000126,"midi":35,"time":438.666228,"velocity":0.3858267716535433},{"duration":0.3333329999999819,"midi":35,"time":439.1662275,"velocity":0.3858267716535433},{"duration":0.16666650000001937,"midi":35,"time":439.4995605,"velocity":0.3858267716535433},{"duration":0.16666650000001937,"midi":42,"time":439.666227,"velocity":0.3858267716535433},{"duration":0.16666649999996253,"midi":44,"time":439.8328935,"velocity":0.3858267716535433},{"duration":2.6666640000000257,"midi":61,"time":439.99956,"velocity":0.3858267716535433},{"duration":2.6666640000000257,"midi":64,"time":439.99956,"velocity":0.3858267716535433},{"duration":0.33333300000003874,"midi":33,"time":439.99956,"velocity":0.3858267716535433},{"duration":2.6666640000000257,"midi":57,"time":439.99956,"velocity":0.3858267716535433},{"duration":0.49999950000000126,"midi":33,"time":440.332893,"velocity":0.3858267716535433},{"duration":0.49999950000000126,"midi":33,"time":440.8328925,"velocity":0.3858267716535433},{"duration":0.4999994999999444,"midi":33,"time":441.332892,"velocity":0.3858267716535433},{"duration":0.33333300000003874,"midi":33,"time":441.83289149999996,"velocity":0.3858267716535433},{"duration":0.16666649999996253,"midi":33,"time":442.1662245,"velocity":0.3858267716535433},{"duration":0.16666650000001937,"midi":40,"time":442.33289099999996,"velocity":0.3858267716535433},{"duration":0.16666650000001937,"midi":42,"time":442.4995575,"velocity":0.3858267716535433},{"duration":2.666663999999969,"midi":63,"time":442.666224,"velocity":0.3858267716535433},{"duration":2.666663999999969,"midi":59,"time":442.666224,"velocity":0.3858267716535433},{"duration":2.666663999999969,"midi":66,"time":442.666224,"velocity":0.3858267716535433},{"duration":0.3333329999999819,"midi":35,"time":442.666224,"velocity":0.3858267716535433},{"duration":0.49999950000000126,"midi":35,"time":442.999557,"velocity":0.3858267716535433},{"duration":0.49999950000000126,"midi":35,"time":443.4995565,"velocity":0.3858267716535433},{"duration":0.49999950000000126,"midi":35,"time":443.999556,"velocity":0.3858267716535433},{"duration":0.3333329999999819,"midi":35,"time":444.4995555,"velocity":0.3858267716535433},{"duration":0.16666650000001937,"midi":35,"time":444.83288849999997,"velocity":0.3858267716535433},{"duration":0.16666650000001937,"midi":42,"time":444.999555,"velocity":0.3858267716535433},{"duration":0.16666649999996253,"midi":44,"time":445.1662215,"velocity":0.3858267716535433},{"duration":2.6666640000000257,"midi":57,"time":445.33288799999997,"velocity":0.3858267716535433},{"duration":2.6666640000000257,"midi":64,"time":445.33288799999997,"velocity":0.3858267716535433},{"duration":2.6666640000000257,"midi":61,"time":445.33288799999997,"velocity":0.3858267716535433},{"duration":0.33333300000003874,"midi":42,"time":445.33288799999997,"velocity":0.3858267716535433},{"duration":0.49999950000000126,"midi":42,"time":445.666221,"velocity":0.3858267716535433},{"duration":0.49999950000000126,"midi":42,"time":446.1662205,"velocity":0.3858267716535433},{"duration":0.49999950000000126,"midi":42,"time":446.66622,"velocity":0.3858267716535433},{"duration":0.3333329999999819,"midi":42,"time":447.1662195,"velocity":0.3858267716535433},{"duration":0.16666650000001937,"midi":42,"time":447.4995525,"velocity":0.3858267716535433},{"duration":0.16666649999996253,"midi":44,"time":447.666219,"velocity":0.3858267716535433},{"duration":0.16666650000001937,"midi":49,"time":447.8328855,"velocity":0.3858267716535433},{"duration":0.3333329999999819,"midi":44,"time":447.999552,"velocity":0.3858267716535433},{"duration":2.666663999999969,"midi":59,"time":447.999552,"velocity":0.3858267716535433},{"duration":2.666663999999969,"midi":63,"time":447.999552,"velocity":0.3858267716535433},{"duration":2.666663999999969,"midi":66,"time":447.999552,"velocity":0.3858267716535433},{"duration":0.49999950000000126,"midi":44,"time":448.332885,"velocity":0.3858267716535433},{"duration":0.49999950000000126,"midi":44,"time":448.8328845,"velocity":0.3858267716535433},{"duration":0.49999950000000126,"midi":44,"time":449.332884,"velocity":0.3858267716535433},{"duration":0.3333329999999819,"midi":44,"time":449.8328835,"velocity":0.3858267716535433},{"duration":0.16666650000001937,"midi":44,"time":450.16621649999996,"velocity":0.3858267716535433},{"duration":0.16666650000001937,"midi":46,"time":450.332883,"velocity":0.3858267716535433},{"duration":0.16666649999996253,"midi":53,"time":450.4995495,"velocity":0.3858267716535433},{"duration":2.6666640000000257,"midi":70,"time":450.66621599999996,"velocity":0.3858267716535433},{"duration":0.33333300000003874,"midi":51,"time":450.66621599999996,"velocity":0.3858267716535433},{"duration":2.6666640000000257,"midi":73,"time":450.66621599999996,"velocity":0.3858267716535433},{"duration":2.6666640000000257,"midi":65,"time":450.66621599999996,"velocity":0.3858267716535433},{"duration":0.49999950000000126,"midi":51,"time":450.999549,"velocity":0.3858267716535433},{"duration":0.49999950000000126,"midi":51,"time":451.4995485,"velocity":0.3858267716535433},{"duration":0.49999950000000126,"midi":51,"time":451.999548,"velocity":0.3858267716535433},{"duration":0.3333329999999819,"midi":51,"time":452.4995475,"velocity":0.3858267716535433},{"duration":0.16666650000001937,"midi":51,"time":452.8328805,"velocity":0.3858267716535433},{"duration":0.16666649999996253,"midi":46,"time":452.999547,"velocity":0.3858267716535433},{"duration":0.16666650000001937,"midi":39,"time":453.16621349999997,"velocity":0.3858267716535433},{"duration":0.3333329999999819,"midi":38,"time":453.33288,"velocity":0.3858267716535433},{"duration":2.6666640000000257,"midi":62,"time":453.33288,"velocity":0.3858267716535433},{"duration":2.6666640000000257,"midi":69,"time":453.33288,"velocity":0.3858267716535433},{"duration":2.6666640000000257,"midi":73,"time":453.33288,"velocity":0.3858267716535433},{"duration":0.49999950000000126,"midi":38,"time":453.66621299999997,"velocity":0.3858267716535433},{"duration":0.49999950000000126,"midi":38,"time":454.1662125,"velocity":0.3858267716535433},{"duration":0.49999950000000126,"midi":38,"time":454.666212,"velocity":0.3858267716535433},{"duration":0.16666650000001937,"midi":38,"time":455.1662115,"velocity":0.3858267716535433},{"duration":0.16666650000001937,"midi":38,"time":455.332878,"velocity":0.3858267716535433},{"duration":0.16666649999996253,"midi":38,"time":455.4995445,"velocity":0.3858267716535433},{"duration":0.16666650000001937,"midi":42,"time":455.666211,"velocity":0.3858267716535433},{"duration":0.16666650000001937,"midi":45,"time":455.8328775,"velocity":0.3858267716535433},{"duration":2.666663999999969,"midi":71,"time":455.999544,"velocity":0.3858267716535433},{"duration":2.666663999999969,"midi":74,"time":455.999544,"velocity":0.3858267716535433},{"duration":2.666663999999969,"midi":67,"time":455.999544,"velocity":0.3858267716535433},{"duration":0.3333329999999819,"midi":43,"time":455.999544,"velocity":0.3858267716535433},{"duration":0.49999950000000126,"midi":43,"time":456.332877,"velocity":0.3858267716535433},{"duration":0.49999950000000126,"midi":43,"time":456.8328765,"velocity":0.3858267716535433},{"duration":0.49999950000000126,"midi":43,"time":457.332876,"velocity":0.3858267716535433},{"duration":0.16666649999996253,"midi":43,"time":457.8328755,"velocity":0.3858267716535433},{"duration":0.16666650000001937,"midi":43,"time":457.99954199999996,"velocity":0.3858267716535433},{"duration":0.16666650000001937,"midi":43,"time":458.1662085,"velocity":0.3858267716535433},{"duration":0.16666649999996253,"midi":45,"time":458.332875,"velocity":0.3858267716535433},{"duration":0.16666650000001937,"midi":50,"time":458.49954149999996,"velocity":0.3858267716535433},{"duration":1.3333319999999844,"midi":73,"time":458.666208,"velocity":0.3858267716535433},{"duration":1.3333319999999844,"midi":64,"time":458.666208,"velocity":0.3858267716535433},{"duration":0.3333329999999819,"midi":44,"time":458.666208,"velocity":0.3858267716535433},{"duration":1.3333319999999844,"midi":68,"time":458.666208,"velocity":0.3858267716535433},{"duration":0.49999950000000126,"midi":44,"time":458.99954099999997,"velocity":0.3858267716535433},{"duration":0.49999950000000126,"midi":44,"time":459.49954049999997,"velocity":0.3858267716535433},{"duration":1.3333320000000413,"midi":44,"time":459.99953999999997,"velocity":0.3858267716535433},{"duration":1.3333320000000413,"midi":68,"time":459.99953999999997,"velocity":0.3858267716535433},{"duration":1.3333320000000413,"midi":72,"time":459.99953999999997,"velocity":0.3858267716535433},{"duration":1.3333320000000413,"midi":63,"time":459.99953999999997,"velocity":0.3858267716535433},{"duration":2.666663999999969,"midi":73,"time":461.332872,"velocity":0.3858267716535433},{"duration":2.666663999999969,"midi":37,"time":461.332872,"velocity":0.3858267716535433}]},{"instrument":{"family":"strings","number":42,"name":"cello"},"notes":[{"duration":0.33333299999999966,"midi":49,"time":13.33332,"velocity":0.3858267716535433},{"duration":0.16666649999999983,"midi":37,"time":13.666653,"velocity":0.3858267716535433},{"duration":0.33333299999999966,"midi":49,"time":13.8333195,"velocity":0.3858267716535433},{"duration":0.16666649999999983,"midi":37,"time":14.1666525,"velocity":0.3858267716535433},{"duration":0.33333299999999966,"midi":49,"time":14.333319,"velocity":0.3858267716535433},{"duration":0.16666649999999983,"midi":37,"time":14.666652,"velocity":0.3858267716535433},{"duration":0.33333300000000143,"midi":49,"time":14.833318499999999,"velocity":0.3858267716535433},{"duration":0.16666649999999983,"midi":37,"time":15.1666515,"velocity":0.3858267716535433},{"duration":0.16666649999999983,"midi":49,"time":15.333318,"velocity":0.3858267716535433},{"duration":0.33333299999999966,"midi":47,"time":15.4999845,"velocity":0.3858267716535433},{"duration":0.16666649999999983,"midi":49,"time":15.8333175,"velocity":0.3858267716535433},{"duration":0.33333300000000143,"midi":56,"time":15.999984,"velocity":0.3858267716535433},{"duration":0.16666649999999805,"midi":44,"time":16.333317,"velocity":0.3858267716535433},{"duration":0.33333299999999966,"midi":56,"time":16.4999835,"velocity":0.3858267716535433},{"duration":0.1666665000000016,"midi":44,"time":16.8333165,"velocity":0.3858267716535433},{"duration":0.33333299999999966,"midi":56,"time":16.999983,"velocity":0.3858267716535433},{"duration":0.16666649999999805,"midi":44,"time":17.333316,"velocity":0.3858267716535433},{"duration":0.3333330000000032,"midi":56,"time":17.499982499999998,"velocity":0.3858267716535433},{"duration":0.16666649999999805,"midi":44,"time":17.8333155,"velocity":0.3858267716535433},{"duration":0.1666665000000016,"midi":56,"time":17.999982,"velocity":0.3858267716535433},{"duration":0.33333299999999966,"midi":54,"time":18.1666485,"velocity":0.3858267716535433},{"duration":0.16666649999999805,"midi":56,"time":18.4999815,"velocity":0.3858267716535433},{"duration":0.33333299999999966,"midi":51,"time":18.666648,"velocity":0.3858267716535433},{"duration":0.1666665000000016,"midi":39,"time":18.999981,"velocity":0.3858267716535433},{"duration":0.33333299999999966,"midi":51,"time":19.1666475,"velocity":0.3858267716535433},{"duration":0.1666665000000016,"midi":39,"time":19.4999805,"velocity":0.3858267716535433},{"duration":0.33333299999999966,"midi":51,"time":19.666647,"velocity":0.3858267716535433},{"duration":0.16666649999999805,"midi":39,"time":19.99998,"velocity":0.3858267716535433},{"duration":0.33333299999999966,"midi":51,"time":20.1666465,"velocity":0.3858267716535433},{"duration":0.1666665000000016,"midi":39,"time":20.4999795,"velocity":0.3858267716535433},{"duration":0.16666649999999805,"midi":51,"time":20.666646,"velocity":0.3858267716535433},{"duration":0.33333299999999966,"midi":49,"time":20.833312499999998,"velocity":0.3858267716535433},{"duration":0.1666665000000016,"midi":51,"time":21.166645499999998,"velocity":0.3858267716535433},{"duration":0.33333299999999966,"midi":50,"time":21.333312,"velocity":0.3858267716535433},{"duration":0.1666665000000016,"midi":38,"time":21.666645,"velocity":0.3858267716535433},{"duration":0.33333299999999966,"midi":50,"time":21.8333115,"velocity":0.3858267716535433},{"duration":0.16666649999999805,"midi":38,"time":22.1666445,"velocity":0.3858267716535433},{"duration":0.33333299999999966,"midi":50,"time":22.333311,"velocity":0.3858267716535433},{"duration":0.1666665000000016,"midi":38,"time":22.666643999999998,"velocity":0.3858267716535433},{"duration":0.33333299999999966,"midi":50,"time":22.8333105,"velocity":0.3858267716535433},{"duration":0.1666665000000016,"midi":38,"time":23.1666435,"velocity":0.3858267716535433},{"duration":0.33333299999999966,"midi":50,"time":23.33331,"velocity":0.3858267716535433},{"duration":0.33333299999999966,"midi":50,"time":23.666643,"velocity":0.3858267716535433},{"duration":0.4999994999999977,"midi":37,"time":23.999976,"velocity":0.3858267716535433},{"duration":0.1666665000000016,"midi":37,"time":24.499975499999998,"velocity":0.3858267716535433},{"duration":0.16666649999999805,"midi":37,"time":24.666642,"velocity":0.3858267716535433},{"duration":0.1666665000000016,"midi":39,"time":24.833308499999998,"velocity":0.3858267716535433},{"duration":0.1666665000000016,"midi":40,"time":24.999975,"velocity":0.3858267716535433},{"duration":0.16666649999999805,"midi":42,"time":25.1666415,"velocity":0.3858267716535433},{"duration":0.49999950000000126,"midi":44,"time":25.333308,"velocity":0.3858267716535433},{"duration":0.16666649999999805,"midi":44,"time":25.8333075,"velocity":0.3858267716535433},{"duration":0.1666665000000016,"midi":44,"time":25.999973999999998,"velocity":0.3858267716535433},{"duration":0.16666649999999805,"midi":45,"time":26.1666405,"velocity":0.3858267716535433},{"duration":0.1666665000000016,"midi":47,"time":26.333306999999998,"velocity":0.3858267716535433},{"duration":0.1666665000000016,"midi":44,"time":26.4999735,"velocity":0.3858267716535433},{"duration":0.4999994999999977,"midi":45,"time":26.66664,"velocity":0.3858267716535433},{"duration":0.1666665000000016,"midi":45,"time":27.1666395,"velocity":0.3858267716535433},{"duration":0.16666649999999805,"midi":45,"time":27.333306,"velocity":0.3858267716535433},{"duration":0.1666665000000016,"midi":40,"time":27.4999725,"velocity":0.3858267716535433},{"duration":0.16666649999999805,"midi":45,"time":27.666639,"velocity":0.3858267716535433},{"duration":0.1666665000000016,"midi":52,"time":27.833305499999998,"velocity":0.3858267716535433},{"duration":0.49999950000000126,"midi":47,"time":27.999972,"velocity":0.3858267716535433},{"duration":0.16666649999999805,"midi":47,"time":28.4999715,"velocity":0.3858267716535433},{"duration":0.1666665000000016,"midi":47,"time":28.666638,"velocity":0.3858267716535433},{"duration":0.16666649999999805,"midi":45,"time":28.8333045,"velocity":0.3858267716535433},{"duration":0.1666665000000016,"midi":44,"time":28.999971,"velocity":0.3858267716535433},{"duration":0.16666649999999805,"midi":40,"time":29.1666375,"velocity":0.3858267716535433},{"duration":0.49999950000000126,"midi":42,"time":29.333304,"velocity":0.3858267716535433},{"duration":0.16666649999999805,"midi":42,"time":29.8333035,"velocity":0.3858267716535433},{"duration":0.1666665000000016,"midi":42,"time":29.999969999999998,"velocity":0.3858267716535433},{"duration":0.1666665000000016,"midi":37,"time":30.1666365,"velocity":0.3858267716535433},{"duration":0.16666649999999805,"midi":42,"time":30.333303,"velocity":0.3858267716535433},{"duration":0.1666665000000016,"midi":37,"time":30.4999695,"velocity":0.3858267716535433},{"duration":0.4999994999999977,"midi":44,"time":30.666636,"velocity":0.3858267716535433},{"duration":0.1666665000000016,"midi":44,"time":31.166635499999998,"velocity":0.3858267716535433},{"duration":0.16666649999999805,"midi":44,"time":31.333302,"velocity":0.3858267716535433},{"duration":0.1666665000000016,"midi":42,"time":31.499968499999998,"velocity":0.3858267716535433},{"duration":0.16666649999999805,"midi":44,"time":31.666635,"velocity":0.3858267716535433},{"duration":0.1666665000000016,"midi":39,"time":31.833301499999997,"velocity":0.3858267716535433},{"duration":0.4999994999999977,"midi":45,"time":31.999968,"velocity":0.3858267716535433},{"duration":0.16666650000000516,"midi":45,"time":32.4999675,"velocity":0.3858267716535433},{"duration":0.16666649999999805,"midi":45,"time":32.666634,"velocity":0.3858267716535433},{"duration":0.16666649999999805,"midi":44,"time":32.8333005,"velocity":0.3858267716535433},{"duration":0.16666649999999805,"midi":42,"time":32.999967,"velocity":0.3858267716535433},{"duration":0.16666650000000516,"midi":45,"time":33.166633499999996,"velocity":0.3858267716535433},{"duration":0.49999950000000126,"midi":47,"time":33.3333,"velocity":0.3858267716535433},{"duration":0.16666649999999805,"midi":47,"time":33.8332995,"velocity":0.3858267716535433},{"duration":0.16666649999999805,"midi":47,"time":33.999966,"velocity":0.3858267716535433},{"duration":0.16666649999999805,"midi":44,"time":34.1666325,"velocity":0.3858267716535433},{"duration":0.16666650000000516,"midi":45,"time":34.333299,"velocity":0.3858267716535433},{"duration":0.16666649999999805,"midi":44,"time":34.4999655,"velocity":0.3858267716535433},{"duration":0.16666649999999805,"midi":49,"time":34.666632,"velocity":0.3858267716535433},{"duration":0.16666649999999805,"midi":49,"time":34.8332985,"velocity":0.3858267716535433},{"duration":0.16666650000000516,"midi":49,"time":34.999964999999996,"velocity":0.3858267716535433},{"duration":0.16666649999999805,"midi":49,"time":35.1666315,"velocity":0.3858267716535433},{"duration":0.16666649999999805,"midi":49,"time":35.333298,"velocity":0.3858267716535433},{"duration":0.16666650000000516,"midi":49,"time":35.4999645,"velocity":0.3858267716535433},{"duration":0.16666649999999805,"midi":49,"time":35.666631,"velocity":0.3858267716535433},{"duration":0.16666649999999805,"midi":49,"time":35.8332975,"velocity":0.3858267716535433},{"duration":0.16666649999999805,"midi":42,"time":35.999964,"velocity":0.3858267716535433},{"duration":0.16666650000000516,"midi":42,"time":36.1666305,"velocity":0.3858267716535433},{"duration":0.16666649999999805,"midi":42,"time":36.333297,"velocity":0.3858267716535433},{"duration":0.16666649999999805,"midi":42,"time":36.4999635,"velocity":0.3858267716535433},{"duration":0.16666649999999805,"midi":42,"time":36.66663,"velocity":0.3858267716535433},{"duration":0.16666650000000516,"midi":42,"time":36.833296499999996,"velocity":0.3858267716535433},{"duration":0.16666649999999805,"midi":42,"time":36.999963,"velocity":0.3858267716535433},{"duration":0.16666649999999805,"midi":42,"time":37.1666295,"velocity":0.3858267716535433},{"duration":0.16666650000000516,"midi":44,"time":37.333296,"velocity":0.3858267716535433},{"duration":0.16666649999999805,"midi":44,"time":37.4999625,"velocity":0.3858267716535433},{"duration":0.16666649999999805,"midi":44,"time":37.666629,"velocity":0.3858267716535433},{"duration":0.16666649999999805,"midi":44,"time":37.8332955,"velocity":0.3858267716535433},{"duration":0.16666650000000516,"midi":44,"time":37.999962,"velocity":0.3858267716535433},{"duration":0.16666649999999805,"midi":44,"time":38.1666285,"velocity":0.3858267716535433},{"duration":0.16666649999999805,"midi":44,"time":38.333295,"velocity":0.3858267716535433},{"duration":0.16666649999999805,"midi":44,"time":38.4999615,"velocity":0.3858267716535433},{"duration":0.16666650000000516,"midi":45,"time":38.666627999999996,"velocity":0.3858267716535433},{"duration":0.16666649999999805,"midi":45,"time":38.8332945,"velocity":0.3858267716535433},{"duration":0.16666649999999805,"midi":45,"time":38.999961,"velocity":0.3858267716535433},{"duration":0.16666650000000516,"midi":45,"time":39.1666275,"velocity":0.3858267716535433},{"duration":0.16666649999999805,"midi":47,"time":39.333294,"velocity":0.3858267716535433},{"duration":0.16666649999999805,"midi":47,"time":39.4999605,"velocity":0.3858267716535433},{"duration":0.16666649999999805,"midi":47,"time":39.666627,"velocity":0.3858267716535433},{"duration":0.16666650000000516,"midi":47,"time":39.833293499999996,"velocity":0.3858267716535433},{"duration":0.16666649999999805,"midi":49,"time":39.99996,"velocity":0.3858267716535433},{"duration":0.16666649999999805,"midi":49,"time":40.1666265,"velocity":0.3858267716535433},{"duration":0.16666649999999805,"midi":49,"time":40.333293,"velocity":0.3858267716535433},{"duration":0.16666650000000516,"midi":49,"time":40.499959499999996,"velocity":0.3858267716535433},{"duration":0.16666649999999805,"midi":49,"time":40.666626,"velocity":0.3858267716535433},{"duration":0.16666649999999805,"midi":49,"time":40.8332925,"velocity":0.3858267716535433},{"duration":0.16666650000000516,"midi":49,"time":40.999959,"velocity":0.3858267716535433},{"duration":0.16666649999999805,"midi":49,"time":41.1666255,"velocity":0.3858267716535433},{"duration":0.16666649999999805,"midi":42,"time":41.333292,"velocity":0.3858267716535433},{"duration":0.16666649999999805,"midi":42,"time":41.4999585,"velocity":0.3858267716535433},{"duration":0.16666650000000516,"midi":42,"time":41.666624999999996,"velocity":0.3858267716535433},{"duration":0.16666649999999805,"midi":42,"time":41.8332915,"velocity":0.3858267716535433},{"duration":0.16666649999999805,"midi":42,"time":41.999958,"velocity":0.3858267716535433},{"duration":0.16666649999999805,"midi":42,"time":42.1666245,"velocity":0.3858267716535433},{"duration":0.16666650000000516,"midi":42,"time":42.333290999999996,"velocity":0.3858267716535433},{"duration":0.16666649999999805,"midi":42,"time":42.4999575,"velocity":0.3858267716535433},{"duration":0.16666649999999805,"midi":44,"time":42.666624,"velocity":0.3858267716535433},{"duration":0.16666650000000516,"midi":44,"time":42.8332905,"velocity":0.3858267716535433},{"duration":0.16666649999999805,"midi":44,"time":42.999957,"velocity":0.3858267716535433},{"duration":0.16666649999999805,"midi":44,"time":43.1666235,"velocity":0.3858267716535433},{"duration":0.16666649999999805,"midi":44,"time":43.33329,"velocity":0.3858267716535433},{"duration":0.16666650000000516,"midi":44,"time":43.499956499999996,"velocity":0.3858267716535433},{"duration":0.16666649999999805,"midi":44,"time":43.666623,"velocity":0.3858267716535433},{"duration":0.16666649999999805,"midi":44,"time":43.8332895,"velocity":0.3858267716535433},{"duration":0.16666649999999805,"midi":45,"time":43.999956,"velocity":0.3858267716535433},{"duration":0.16666650000000516,"midi":45,"time":44.166622499999995,"velocity":0.3858267716535433},{"duration":0.16666649999999805,"midi":45,"time":44.333289,"velocity":0.3858267716535433},{"duration":0.16666649999999805,"midi":45,"time":44.4999555,"velocity":0.3858267716535433},{"duration":0.16666650000000516,"midi":47,"time":44.666622,"velocity":0.3858267716535433},{"duration":0.16666649999999805,"midi":47,"time":44.8332885,"velocity":0.3858267716535433},{"duration":0.16666649999999805,"midi":49,"time":44.999955,"velocity":0.3858267716535433},{"duration":0.16666649999999805,"midi":49,"time":45.1666215,"velocity":0.3858267716535433},{"duration":0.16666650000000516,"midi":47,"time":45.333287999999996,"velocity":0.3858267716535433},{"duration":0.16666649999999805,"midi":47,"time":45.4999545,"velocity":0.3858267716535433},{"duration":0.16666649999999805,"midi":47,"time":45.666621,"velocity":0.3858267716535433},{"duration":0.16666649999999805,"midi":47,"time":45.8332875,"velocity":0.3858267716535433},{"duration":0.16666650000000516,"midi":47,"time":45.999953999999995,"velocity":0.3858267716535433},{"duration":0.16666649999999805,"midi":47,"time":46.1666205,"velocity":0.3858267716535433},{"duration":0.16666649999999805,"midi":47,"time":46.333287,"velocity":0.3858267716535433},{"duration":0.16666650000000516,"midi":47,"time":46.4999535,"velocity":0.3858267716535433},{"duration":0.16666649999999805,"midi":47,"time":46.66662,"velocity":0.3858267716535433},{"duration":0.16666649999999805,"midi":47,"time":46.8332865,"velocity":0.3858267716535433},{"duration":0.16666649999999805,"midi":47,"time":46.999953,"velocity":0.3858267716535433},{"duration":0.16666650000000516,"midi":47,"time":47.166619499999996,"velocity":0.3858267716535433},{"duration":0.16666649999999805,"midi":47,"time":47.333286,"velocity":0.3858267716535433},{"duration":0.16666649999999805,"midi":47,"time":47.4999525,"velocity":0.3858267716535433},{"duration":0.16666649999999805,"midi":47,"time":47.666619,"velocity":0.3858267716535433},{"duration":0.16666650000000516,"midi":47,"time":47.833285499999995,"velocity":0.3858267716535433},{"duration":0.16666649999999805,"midi":45,"time":47.999952,"velocity":0.3858267716535433},{"duration":0.16666649999999805,"midi":45,"time":48.1666185,"velocity":0.3858267716535433},{"duration":0.16666650000000516,"midi":45,"time":48.333285,"velocity":0.3858267716535433},{"duration":0.16666649999999805,"midi":45,"time":48.4999515,"velocity":0.3858267716535433},{"duration":0.16666649999999805,"midi":45,"time":48.666618,"velocity":0.3858267716535433},{"duration":0.16666649999999805,"midi":45,"time":48.8332845,"velocity":0.3858267716535433},{"duration":0.16666650000000516,"midi":45,"time":48.999950999999996,"velocity":0.3858267716535433},{"duration":0.16666649999999805,"midi":45,"time":49.1666175,"velocity":0.3858267716535433},{"duration":0.16666649999999805,"midi":44,"time":49.333284,"velocity":0.3858267716535433},{"duration":0.16666649999999805,"midi":44,"time":49.4999505,"velocity":0.3858267716535433},{"duration":0.16666650000000516,"midi":44,"time":49.666616999999995,"velocity":0.3858267716535433},{"duration":0.16666649999999805,"midi":44,"time":49.8332835,"velocity":0.3858267716535433},{"duration":0.16666649999999805,"midi":44,"time":49.99995,"velocity":0.3858267716535433},{"duration":0.16666650000000516,"midi":44,"time":50.166616499999996,"velocity":0.3858267716535433},{"duration":0.16666649999999805,"midi":44,"time":50.333283,"velocity":0.3858267716535433},{"duration":0.16666649999999805,"midi":44,"time":50.4999495,"velocity":0.3858267716535433},{"duration":0.16666649999999805,"midi":42,"time":50.666616,"velocity":0.3858267716535433},{"duration":0.16666650000000516,"midi":42,"time":50.833282499999996,"velocity":0.3858267716535433},{"duration":0.16666649999999805,"midi":42,"time":50.999949,"velocity":0.3858267716535433},{"duration":0.16666649999999805,"midi":42,"time":51.1666155,"velocity":0.3858267716535433},{"duration":0.16666649999999805,"midi":42,"time":51.333282,"velocity":0.3858267716535433},{"duration":0.16666650000000516,"midi":42,"time":51.499948499999995,"velocity":0.3858267716535433},{"duration":0.16666649999999805,"midi":42,"time":51.666615,"velocity":0.3858267716535433},{"duration":0.16666649999999805,"midi":42,"time":51.8332815,"velocity":0.3858267716535433},{"duration":0.16666650000000516,"midi":42,"time":51.999947999999996,"velocity":0.3858267716535433},{"duration":0.16666649999999805,"midi":42,"time":52.1666145,"velocity":0.3858267716535433},{"duration":0.16666649999999805,"midi":42,"time":52.333281,"velocity":0.3858267716535433},{"duration":0.16666649999999805,"midi":42,"time":52.4999475,"velocity":0.3858267716535433},{"duration":0.16666650000000516,"midi":42,"time":52.666613999999996,"velocity":0.3858267716535433},{"duration":0.16666649999999805,"midi":42,"time":52.8332805,"velocity":0.3858267716535433},{"duration":0.16666649999999805,"midi":42,"time":52.999947,"velocity":0.3858267716535433},{"duration":0.16666650000000516,"midi":42,"time":53.1666135,"velocity":0.3858267716535433},{"duration":0.16666649999999805,"midi":39,"time":53.33328,"velocity":0.3858267716535433},{"duration":0.16666649999999805,"midi":39,"time":53.4999465,"velocity":0.3858267716535433},{"duration":0.16666649999999805,"midi":39,"time":53.666613,"velocity":0.3858267716535433},{"duration":0.16666650000000516,"midi":39,"time":53.833279499999996,"velocity":0.3858267716535433},{"duration":0.16666649999999805,"midi":39,"time":53.999946,"velocity":0.3858267716535433},{"duration":0.16666649999999805,"midi":39,"time":54.1666125,"velocity":0.3858267716535433},{"duration":0.16666649999999805,"midi":39,"time":54.333279,"velocity":0.3858267716535433},{"duration":0.16666650000000516,"midi":39,"time":54.499945499999995,"velocity":0.3858267716535433},{"duration":0.16666649999999805,"midi":44,"time":54.666612,"velocity":0.3858267716535433},{"duration":0.16666649999999805,"midi":44,"time":54.8332785,"velocity":0.3858267716535433},{"duration":0.16666650000000516,"midi":44,"time":54.999945,"velocity":0.3858267716535433},{"duration":0.16666649999999805,"midi":44,"time":55.1666115,"velocity":0.3858267716535433},{"duration":0.16666649999999805,"midi":44,"time":55.333278,"velocity":0.3858267716535433},{"duration":0.16666649999999805,"midi":44,"time":55.4999445,"velocity":0.3858267716535433},{"duration":0.16666650000000516,"midi":44,"time":55.666610999999996,"velocity":0.3858267716535433},{"duration":0.16666649999999805,"midi":44,"time":55.8332775,"velocity":0.3858267716535433},{"duration":0.16666649999999805,"midi":37,"time":55.999944,"velocity":0.3858267716535433},{"duration":0.16666649999999805,"midi":37,"time":56.1666105,"velocity":0.3858267716535433},{"duration":0.16666650000000516,"midi":37,"time":56.333276999999995,"velocity":0.3858267716535433},{"duration":0.16666649999999805,"midi":37,"time":56.4999435,"velocity":0.3858267716535433},{"duration":0.16666649999999805,"midi":37,"time":56.66661,"velocity":0.3858267716535433},{"duration":0.16666650000000516,"midi":37,"time":56.8332765,"velocity":0.3858267716535433},{"duration":0.16666649999999805,"midi":37,"time":56.999943,"velocity":0.3858267716535433},{"duration":0.16666649999999805,"midi":37,"time":57.1666095,"velocity":0.3858267716535433},{"duration":0.16666649999999805,"midi":44,"time":57.333276,"velocity":0.3858267716535433},{"duration":0.16666650000000516,"midi":44,"time":57.499942499999996,"velocity":0.3858267716535433},{"duration":0.16666649999999805,"midi":44,"time":57.666609,"velocity":0.3858267716535433},{"duration":0.16666649999999805,"midi":44,"time":57.8332755,"velocity":0.3858267716535433},{"duration":0.16666649999999805,"midi":44,"time":57.999942,"velocity":0.3858267716535433},{"duration":0.16666650000000516,"midi":44,"time":58.166608499999995,"velocity":0.3858267716535433},{"duration":0.16666649999999805,"midi":44,"time":58.333275,"velocity":0.3858267716535433},{"duration":0.16666649999999805,"midi":44,"time":58.4999415,"velocity":0.3858267716535433},{"duration":0.16666650000000516,"midi":45,"time":58.666608,"velocity":0.3858267716535433},{"duration":0.16666649999999805,"midi":45,"time":58.8332745,"velocity":0.3858267716535433},{"duration":0.16666649999999805,"midi":45,"time":58.999941,"velocity":0.3858267716535433},{"duration":0.16666649999999805,"midi":45,"time":59.1666075,"velocity":0.3858267716535433},{"duration":0.16666650000000516,"midi":45,"time":59.333273999999996,"velocity":0.3858267716535433},{"duration":0.16666649999999805,"midi":45,"time":59.4999405,"velocity":0.3858267716535433},{"duration":0.16666649999999805,"midi":45,"time":59.666607,"velocity":0.3858267716535433},{"duration":0.16666649999999805,"midi":45,"time":59.8332735,"velocity":0.3858267716535433},{"duration":0.16666650000000516,"midi":47,"time":59.999939999999995,"velocity":0.3858267716535433},{"duration":0.16666649999999805,"midi":47,"time":60.1666065,"velocity":0.3858267716535433},{"duration":0.16666649999999805,"midi":47,"time":60.333273,"velocity":0.3858267716535433},{"duration":0.16666650000000516,"midi":47,"time":60.499939499999996,"velocity":0.3858267716535433},{"duration":0.16666649999999805,"midi":47,"time":60.666606,"velocity":0.3858267716535433},{"duration":0.16666649999999805,"midi":47,"time":60.8332725,"velocity":0.3858267716535433},{"duration":0.16666649999999805,"midi":47,"time":60.999939,"velocity":0.3858267716535433},{"duration":0.16666650000000516,"midi":47,"time":61.166605499999996,"velocity":0.3858267716535433},{"duration":0.16666649999999805,"midi":42,"time":61.333272,"velocity":0.3858267716535433},{"duration":0.16666649999999805,"midi":42,"time":61.4999385,"velocity":0.3858267716535433},{"duration":0.16666649999999805,"midi":42,"time":61.666605,"velocity":0.3858267716535433},{"duration":0.16666650000000516,"midi":42,"time":61.833271499999995,"velocity":0.3858267716535433},{"duration":0.16666649999999805,"midi":42,"time":61.999938,"velocity":0.3858267716535433},{"duration":0.16666649999999805,"midi":42,"time":62.1666045,"velocity":0.3858267716535433},{"duration":0.16666650000000516,"midi":42,"time":62.333270999999996,"velocity":0.3858267716535433},{"duration":0.16666649999999805,"midi":42,"time":62.4999375,"velocity":0.3858267716535433},{"duration":0.16666649999999805,"midi":44,"time":62.666604,"velocity":0.3858267716535433},{"duration":0.16666649999999805,"midi":44,"time":62.8332705,"velocity":0.3858267716535433},{"duration":0.16666650000000516,"midi":44,"time":62.999936999999996,"velocity":0.3858267716535433},{"duration":0.16666649999999805,"midi":44,"time":63.1666035,"velocity":0.3858267716535433},{"duration":0.16666649999999805,"midi":44,"time":63.33327,"velocity":0.3858267716535433},{"duration":0.16666649999999805,"midi":44,"time":63.4999365,"velocity":0.3858267716535433},{"duration":0.16666650000000516,"midi":44,"time":63.666602999999995,"velocity":0.3858267716535433},{"duration":0.16666649999999805,"midi":44,"time":63.8332695,"velocity":0.3858267716535433},{"duration":0.16666649999999805,"midi":45,"time":63.999936,"velocity":0.3858267716535433},{"duration":0.16666650000000516,"midi":45,"time":64.1666025,"velocity":0.3858267716535433},{"duration":0.16666649999999095,"midi":45,"time":64.333269,"velocity":0.3858267716535433},{"duration":0.16666650000000516,"midi":45,"time":64.49993549999999,"velocity":0.3858267716535433},{"duration":0.16666650000000516,"midi":45,"time":64.666602,"velocity":0.3858267716535433},{"duration":0.16666649999999095,"midi":45,"time":64.8332685,"velocity":0.3858267716535433},{"duration":0.16666650000000516,"midi":45,"time":64.999935,"velocity":0.3858267716535433},{"duration":0.16666650000000516,"midi":45,"time":65.1666015,"velocity":0.3858267716535433},{"duration":0.16666649999999095,"midi":47,"time":65.333268,"velocity":0.3858267716535433},{"duration":0.16666650000000516,"midi":47,"time":65.4999345,"velocity":0.3858267716535433},{"duration":0.16666650000000516,"midi":47,"time":65.666601,"velocity":0.3858267716535433},{"duration":0.16666649999999095,"midi":47,"time":65.8332675,"velocity":0.3858267716535433},{"duration":0.16666650000000516,"midi":48,"time":65.999934,"velocity":0.3858267716535433},{"duration":0.16666649999999095,"midi":48,"time":66.1666005,"velocity":0.3858267716535433},{"duration":0.16666650000000516,"midi":48,"time":66.33326699999999,"velocity":0.3858267716535433},{"duration":0.16666650000000516,"midi":48,"time":66.4999335,"velocity":0.3858267716535433},{"duration":0.16666649999999095,"midi":49,"time":66.6666,"velocity":0.3858267716535433},{"duration":0.16666650000000516,"midi":49,"time":66.8332665,"velocity":0.3858267716535433},{"duration":0.16666650000000516,"midi":49,"time":66.999933,"velocity":0.3858267716535433},{"duration":0.16666649999999095,"midi":49,"time":67.1665995,"velocity":0.3858267716535433},{"duration":0.16666650000000516,"midi":49,"time":67.333266,"velocity":0.3858267716535433},{"duration":0.16666650000000516,"midi":49,"time":67.4999325,"velocity":0.3858267716535433},{"duration":0.16666649999999095,"midi":49,"time":67.666599,"velocity":0.3858267716535433},{"duration":0.16666650000000516,"midi":49,"time":67.8332655,"velocity":0.3858267716535433},{"duration":0.16666649999999095,"midi":47,"time":67.999932,"velocity":0.3858267716535433},{"duration":0.16666650000000516,"midi":47,"time":68.16659849999999,"velocity":0.3858267716535433},{"duration":0.16666650000000516,"midi":47,"time":68.333265,"velocity":0.3858267716535433},{"duration":0.16666649999999095,"midi":47,"time":68.4999315,"velocity":0.3858267716535433},{"duration":0.16666650000000516,"midi":47,"time":68.666598,"velocity":0.3858267716535433},{"duration":0.16666650000000516,"midi":47,"time":68.8332645,"velocity":0.3858267716535433},{"duration":0.16666649999999095,"midi":47,"time":68.999931,"velocity":0.3858267716535433},{"duration":0.16666650000000516,"midi":47,"time":69.1665975,"velocity":0.3858267716535433},{"duration":0.16666650000000516,"midi":46,"time":69.333264,"velocity":0.3858267716535433},{"duration":0.16666649999999095,"midi":46,"time":69.4999305,"velocity":0.3858267716535433},{"duration":0.16666650000000516,"midi":46,"time":69.666597,"velocity":0.3858267716535433},{"duration":0.16666649999999095,"midi":46,"time":69.8332635,"velocity":0.3858267716535433},{"duration":0.16666650000000516,"midi":46,"time":69.99992999999999,"velocity":0.3858267716535433},{"duration":0.16666650000000516,"midi":46,"time":70.1665965,"velocity":0.3858267716535433},{"duration":0.16666649999999095,"midi":46,"time":70.333263,"velocity":0.3858267716535433},{"duration":0.16666650000000516,"midi":46,"time":70.4999295,"velocity":0.3858267716535433},{"duration":0.16666650000000516,"midi":42,"time":70.666596,"velocity":0.3858267716535433},{"duration":0.16666649999999095,"midi":42,"time":70.8332625,"velocity":0.3858267716535433},{"duration":0.16666650000000516,"midi":42,"time":70.999929,"velocity":0.3858267716535433},{"duration":0.16666650000000516,"midi":42,"time":71.1665955,"velocity":0.3858267716535433},{"duration":0.16666649999999095,"midi":40,"time":71.333262,"velocity":0.3858267716535433},{"duration":0.16666650000000516,"midi":40,"time":71.4999285,"velocity":0.3858267716535433},{"duration":0.16666649999999095,"midi":40,"time":71.666595,"velocity":0.3858267716535433},{"duration":0.16666650000000516,"midi":40,"time":71.83326149999999,"velocity":0.3858267716535433},{"duration":0.16666650000000516,"midi":38,"time":71.999928,"velocity":0.3858267716535433},{"duration":0.16666649999999095,"midi":38,"time":72.1665945,"velocity":0.3858267716535433},{"duration":0.16666650000000516,"midi":38,"time":72.333261,"velocity":0.3858267716535433},{"duration":0.16666650000000516,"midi":38,"time":72.4999275,"velocity":0.3858267716535433},{"duration":0.16666649999999095,"midi":38,"time":72.666594,"velocity":0.3858267716535433},{"duration":0.16666650000000516,"midi":38,"time":72.8332605,"velocity":0.3858267716535433},{"duration":0.16666650000000516,"midi":38,"time":72.999927,"velocity":0.3858267716535433},{"duration":0.16666649999999095,"midi":38,"time":73.1665935,"velocity":0.3858267716535433},{"duration":0.16666650000000516,"midi":45,"time":73.33326,"velocity":0.3858267716535433},{"duration":0.16666649999999095,"midi":45,"time":73.4999265,"velocity":0.3858267716535433},{"duration":0.16666650000000516,"midi":45,"time":73.66659299999999,"velocity":0.3858267716535433},{"duration":0.16666650000000516,"midi":45,"time":73.8332595,"velocity":0.3858267716535433},{"duration":0.16666649999999095,"midi":45,"time":73.999926,"velocity":0.3858267716535433},{"duration":0.16666650000000516,"midi":45,"time":74.1665925,"velocity":0.3858267716535433},{"duration":0.16666650000000516,"midi":45,"time":74.333259,"velocity":0.3858267716535433},{"duration":0.16666649999999095,"midi":45,"time":74.4999255,"velocity":0.3858267716535433},{"duration":0.16666650000000516,"midi":47,"time":74.666592,"velocity":0.3858267716535433},{"duration":0.16666650000000516,"midi":47,"time":74.8332585,"velocity":0.3858267716535433},{"duration":0.16666649999999095,"midi":47,"time":74.999925,"velocity":0.3858267716535433},{"duration":0.16666650000000516,"midi":47,"time":75.1665915,"velocity":0.3858267716535433},{"duration":0.16666649999999095,"midi":47,"time":75.333258,"velocity":0.3858267716535433},{"duration":0.16666650000000516,"midi":47,"time":75.49992449999999,"velocity":0.3858267716535433},{"duration":0.16666650000000516,"midi":47,"time":75.666591,"velocity":0.3858267716535433},{"duration":0.16666649999999095,"midi":47,"time":75.8332575,"velocity":0.3858267716535433},{"duration":0.16666650000000516,"midi":47,"time":75.999924,"velocity":0.3858267716535433},{"duration":0.16666650000000516,"midi":47,"time":76.1665905,"velocity":0.3858267716535433},{"duration":0.16666649999999095,"midi":47,"time":76.333257,"velocity":0.3858267716535433},{"duration":0.16666650000000516,"midi":47,"time":76.4999235,"velocity":0.3858267716535433},{"duration":0.16666650000000516,"midi":44,"time":76.66659,"velocity":0.3858267716535433},{"duration":0.16666649999999095,"midi":44,"time":76.8332565,"velocity":0.3858267716535433},{"duration":0.16666650000000516,"midi":44,"time":76.999923,"velocity":0.3858267716535433},{"duration":0.16666649999999095,"midi":44,"time":77.1665895,"velocity":0.3858267716535433},{"duration":0.16666650000000516,"midi":37,"time":77.33325599999999,"velocity":0.3858267716535433},{"duration":0.16666650000000516,"midi":37,"time":77.4999225,"velocity":0.3858267716535433},{"duration":0.16666649999999095,"midi":37,"time":77.666589,"velocity":0.3858267716535433},{"duration":0.16666650000000516,"midi":37,"time":77.83325549999999,"velocity":0.3858267716535433},{"duration":0.16666650000000516,"midi":37,"time":77.999922,"velocity":0.3858267716535433},{"duration":0.16666649999999095,"midi":37,"time":78.1665885,"velocity":0.3858267716535433},{"duration":0.16666650000000516,"midi":37,"time":78.333255,"velocity":0.3858267716535433},{"duration":0.16666650000000516,"midi":37,"time":78.4999215,"velocity":0.3858267716535433},{"duration":0.16666649999999095,"midi":37,"time":78.666588,"velocity":0.3858267716535433},{"duration":0.16666650000000516,"midi":37,"time":78.8332545,"velocity":0.3858267716535433},{"duration":0.16666649999999095,"midi":37,"time":78.999921,"velocity":0.3858267716535433},{"duration":0.16666650000000516,"midi":37,"time":79.16658749999999,"velocity":0.3858267716535433},{"duration":0.16666650000000516,"midi":37,"time":79.333254,"velocity":0.3858267716535433},{"duration":0.16666649999999095,"midi":37,"time":79.4999205,"velocity":0.3858267716535433},{"duration":0.16666650000000516,"midi":37,"time":79.66658699999999,"velocity":0.3858267716535433},{"duration":0.16666650000000516,"midi":37,"time":79.8332535,"velocity":0.3858267716535433},{"duration":0.16666649999999095,"midi":35,"time":79.99992,"velocity":0.3858267716535433},{"duration":0.16666650000000516,"midi":35,"time":80.1665865,"velocity":0.3858267716535433},{"duration":0.16666650000000516,"midi":35,"time":80.333253,"velocity":0.3858267716535433},{"duration":0.16666649999999095,"midi":35,"time":80.4999195,"velocity":0.3858267716535433},{"duration":0.16666650000000516,"midi":35,"time":80.666586,"velocity":0.3858267716535433},{"duration":0.16666649999999095,"midi":35,"time":80.8332525,"velocity":0.3858267716535433},{"duration":0.16666650000000516,"midi":35,"time":80.99991899999999,"velocity":0.3858267716535433},{"duration":0.16666650000000516,"midi":35,"time":81.1665855,"velocity":0.3858267716535433},{"duration":0.16666649999999095,"midi":35,"time":81.333252,"velocity":0.3858267716535433},{"duration":0.16666650000000516,"midi":35,"time":81.49991849999999,"velocity":0.3858267716535433},{"duration":0.16666650000000516,"midi":35,"time":81.666585,"velocity":0.3858267716535433},{"duration":0.16666649999999095,"midi":35,"time":81.8332515,"velocity":0.3858267716535433},{"duration":0.16666650000000516,"midi":35,"time":81.999918,"velocity":0.3858267716535433},{"duration":0.16666650000000516,"midi":35,"time":82.1665845,"velocity":0.3858267716535433},{"duration":0.16666649999999095,"midi":35,"time":82.333251,"velocity":0.3858267716535433},{"duration":0.16666650000000516,"midi":35,"time":82.4999175,"velocity":0.3858267716535433},{"duration":0.16666649999999095,"midi":37,"time":82.666584,"velocity":0.3858267716535433},{"duration":0.16666650000000516,"midi":37,"time":82.83325049999999,"velocity":0.3858267716535433},{"duration":0.16666650000000516,"midi":37,"time":82.999917,"velocity":0.3858267716535433},{"duration":0.16666649999999095,"midi":37,"time":83.1665835,"velocity":0.3858267716535433},{"duration":0.16666650000000516,"midi":37,"time":83.33324999999999,"velocity":0.3858267716535433},{"duration":0.16666650000000516,"midi":37,"time":83.4999165,"velocity":0.3858267716535433},{"duration":0.16666649999999095,"midi":37,"time":83.666583,"velocity":0.3858267716535433},{"duration":0.16666650000000516,"midi":37,"time":83.8332495,"velocity":0.3858267716535433},{"duration":0.16666650000000516,"midi":37,"time":83.999916,"velocity":0.3858267716535433},{"duration":0.16666649999999095,"midi":37,"time":84.1665825,"velocity":0.3858267716535433},{"duration":0.16666650000000516,"midi":37,"time":84.333249,"velocity":0.3858267716535433},{"duration":0.16666649999999095,"midi":37,"time":84.4999155,"velocity":0.3858267716535433},{"duration":0.16666650000000516,"midi":37,"time":84.66658199999999,"velocity":0.3858267716535433},{"duration":0.16666650000000516,"midi":37,"time":84.8332485,"velocity":0.3858267716535433},{"duration":0.16666649999999095,"midi":37,"time":84.999915,"velocity":0.3858267716535433},{"duration":0.16666650000000516,"midi":37,"time":85.16658149999999,"velocity":0.3858267716535433},{"duration":0.16666650000000516,"midi":35,"time":85.333248,"velocity":0.3858267716535433},{"duration":0.16666649999999095,"midi":35,"time":85.4999145,"velocity":0.3858267716535433},{"duration":0.16666650000000516,"midi":35,"time":85.666581,"velocity":0.3858267716535433},{"duration":0.16666650000000516,"midi":35,"time":85.8332475,"velocity":0.3858267716535433},{"duration":0.16666649999999095,"midi":35,"time":85.999914,"velocity":0.3858267716535433},{"duration":0.16666650000000516,"midi":35,"time":86.1665805,"velocity":0.3858267716535433},{"duration":0.16666649999999095,"midi":35,"time":86.333247,"velocity":0.3858267716535433},{"duration":0.16666650000000516,"midi":35,"time":86.49991349999999,"velocity":0.3858267716535433},{"duration":0.16666650000000516,"midi":35,"time":86.66658,"velocity":0.3858267716535433},{"duration":0.16666649999999095,"midi":35,"time":86.8332465,"velocity":0.3858267716535433},{"duration":0.16666650000000516,"midi":35,"time":86.99991299999999,"velocity":0.3858267716535433},{"duration":0.16666650000000516,"midi":35,"time":87.1665795,"velocity":0.3858267716535433},{"duration":0.16666649999999095,"midi":35,"time":87.333246,"velocity":0.3858267716535433},{"duration":0.16666650000000516,"midi":35,"time":87.4999125,"velocity":0.3858267716535433},{"duration":0.16666650000000516,"midi":35,"time":87.666579,"velocity":0.3858267716535433},{"duration":0.16666649999999095,"midi":35,"time":87.8332455,"velocity":0.3858267716535433},{"duration":0.16666650000000516,"midi":42,"time":103.99989599999999,"velocity":0.3858267716535433},{"duration":0.16666650000000516,"midi":42,"time":104.1665625,"velocity":0.3858267716535433},{"duration":0.16666649999999095,"midi":42,"time":104.333229,"velocity":0.3858267716535433},{"duration":0.16666650000000516,"midi":42,"time":104.4998955,"velocity":0.3858267716535433},{"duration":0.16666649999999095,"midi":42,"time":104.666562,"velocity":0.3858267716535433},{"duration":0.16666650000000516,"midi":42,"time":104.83322849999999,"velocity":0.3858267716535433},{"duration":0.16666650000000516,"midi":42,"time":104.999895,"velocity":0.3858267716535433},{"duration":0.16666649999999095,"midi":42,"time":105.1665615,"velocity":0.3858267716535433},{"duration":0.16666650000000516,"midi":42,"time":105.33322799999999,"velocity":0.3858267716535433},{"duration":0.16666650000000516,"midi":42,"time":105.4998945,"velocity":0.3858267716535433},{"duration":0.16666649999999095,"midi":42,"time":105.666561,"velocity":0.3858267716535433},{"duration":0.16666650000000516,"midi":42,"time":105.83322749999999,"velocity":0.3858267716535433},{"duration":0.16666650000000516,"midi":42,"time":105.999894,"velocity":0.3858267716535433},{"duration":0.16666649999999095,"midi":42,"time":106.1665605,"velocity":0.3858267716535433},{"duration":0.16666650000000516,"midi":42,"time":106.333227,"velocity":0.3858267716535433},{"duration":0.16666650000000516,"midi":42,"time":106.4998935,"velocity":0.3858267716535433},{"duration":0.16666649999999095,"midi":39,"time":106.66656,"velocity":0.3858267716535433},{"duration":0.16666650000000516,"midi":39,"time":106.8332265,"velocity":0.3858267716535433},{"duration":0.16666649999999095,"midi":39,"time":106.999893,"velocity":0.3858267716535433},{"duration":0.16666650000000516,"midi":39,"time":107.16655949999999,"velocity":0.3858267716535433},{"duration":0.16666650000000516,"midi":39,"time":107.333226,"velocity":0.3858267716535433},{"duration":0.16666649999999095,"midi":39,"time":107.4998925,"velocity":0.3858267716535433},{"duration":0.16666650000000516,"midi":39,"time":107.66655899999999,"velocity":0.3858267716535433},{"duration":0.16666650000000516,"midi":39,"time":107.8332255,"velocity":0.3858267716535433},{"duration":0.16666649999999095,"midi":44,"time":107.999892,"velocity":0.3858267716535433},{"duration":0.16666650000000516,"midi":44,"time":108.1665585,"velocity":0.3858267716535433},{"duration":0.16666650000000516,"midi":44,"time":108.333225,"velocity":0.3858267716535433},{"duration":0.16666649999999095,"midi":44,"time":108.4998915,"velocity":0.3858267716535433},{"duration":0.16666650000000516,"midi":44,"time":108.666558,"velocity":0.3858267716535433},{"duration":0.16666649999999095,"midi":44,"time":108.8332245,"velocity":0.3858267716535433},{"duration":0.16666650000000516,"midi":44,"time":108.99989099999999,"velocity":0.3858267716535433},{"duration":0.16666650000000516,"midi":44,"time":109.1665575,"velocity":0.3858267716535433},{"duration":0.16666649999999095,"midi":37,"time":109.333224,"velocity":0.3858267716535433},{"duration":0.16666650000000516,"midi":37,"time":109.49989049999999,"velocity":0.3858267716535433},{"duration":0.16666650000000516,"midi":37,"time":109.666557,"velocity":0.3858267716535433},{"duration":0.16666649999999095,"midi":37,"time":109.8332235,"velocity":0.3858267716535433},{"duration":0.16666650000000516,"midi":37,"time":109.99989,"velocity":0.3858267716535433},{"duration":0.16666650000000516,"midi":37,"time":110.1665565,"velocity":0.3858267716535433},{"duration":0.16666649999999095,"midi":37,"time":110.333223,"velocity":0.3858267716535433},{"duration":0.16666650000000516,"midi":37,"time":110.4998895,"velocity":0.3858267716535433},{"duration":0.16666649999999095,"midi":44,"time":110.666556,"velocity":0.3858267716535433},{"duration":0.16666650000000516,"midi":44,"time":110.83322249999999,"velocity":0.3858267716535433},{"duration":0.16666650000000516,"midi":44,"time":110.999889,"velocity":0.3858267716535433},{"duration":0.16666649999999095,"midi":44,"time":111.1665555,"velocity":0.3858267716535433},{"duration":0.16666650000000516,"midi":44,"time":111.33322199999999,"velocity":0.3858267716535433},{"duration":0.16666650000000516,"midi":44,"time":111.4998885,"velocity":0.3858267716535433},{"duration":0.16666649999999095,"midi":44,"time":111.666555,"velocity":0.3858267716535433},{"duration":0.16666650000000516,"midi":44,"time":111.8332215,"velocity":0.3858267716535433},{"duration":0.16666650000000516,"midi":45,"time":111.999888,"velocity":0.3858267716535433},{"duration":0.16666649999999095,"midi":45,"time":112.1665545,"velocity":0.3858267716535433},{"duration":0.16666650000000516,"midi":45,"time":112.333221,"velocity":0.3858267716535433},{"duration":0.16666649999999095,"midi":45,"time":112.4998875,"velocity":0.3858267716535433},{"duration":0.16666650000000516,"midi":45,"time":112.66655399999999,"velocity":0.3858267716535433},{"duration":0.16666650000000516,"midi":45,"time":112.8332205,"velocity":0.3858267716535433},{"duration":0.16666649999999095,"midi":45,"time":112.999887,"velocity":0.3858267716535433},{"duration":0.16666650000000516,"midi":45,"time":113.16655349999999,"velocity":0.3858267716535433},{"duration":0.16666650000000516,"midi":47,"time":113.33322,"velocity":0.3858267716535433},{"duration":0.16666649999999095,"midi":47,"time":113.4998865,"velocity":0.3858267716535433},{"duration":0.16666650000000516,"midi":47,"time":113.666553,"velocity":0.3858267716535433},{"duration":0.16666650000000516,"midi":47,"time":113.8332195,"velocity":0.3858267716535433},{"duration":0.16666649999999095,"midi":47,"time":113.999886,"velocity":0.3858267716535433},{"duration":0.16666650000000516,"midi":47,"time":114.1665525,"velocity":0.3858267716535433},{"duration":0.16666649999999095,"midi":47,"time":114.333219,"velocity":0.3858267716535433},{"duration":0.16666650000000516,"midi":47,"time":114.49988549999999,"velocity":0.3858267716535433},{"duration":0.16666650000000516,"midi":42,"time":114.666552,"velocity":0.3858267716535433},{"duration":0.16666649999999095,"midi":42,"time":114.8332185,"velocity":0.3858267716535433},{"duration":0.16666650000000516,"midi":42,"time":114.99988499999999,"velocity":0.3858267716535433},{"duration":0.16666650000000516,"midi":42,"time":115.1665515,"velocity":0.3858267716535433},{"duration":0.16666649999999095,"midi":42,"time":115.333218,"velocity":0.3858267716535433},{"duration":0.16666650000000516,"midi":42,"time":115.4998845,"velocity":0.3858267716535433},{"duration":0.16666650000000516,"midi":42,"time":115.666551,"velocity":0.3858267716535433},{"duration":0.16666649999999095,"midi":42,"time":115.8332175,"velocity":0.3858267716535433},{"duration":0.16666650000000516,"midi":44,"time":115.999884,"velocity":0.3858267716535433},{"duration":0.16666649999999095,"midi":44,"time":116.1665505,"velocity":0.3858267716535433},{"duration":0.16666650000000516,"midi":44,"time":116.33321699999999,"velocity":0.3858267716535433},{"duration":0.16666650000000516,"midi":44,"time":116.4998835,"velocity":0.3858267716535433},{"duration":0.16666649999999095,"midi":44,"time":116.66655,"velocity":0.3858267716535433},{"duration":0.16666650000000516,"midi":44,"time":116.83321649999999,"velocity":0.3858267716535433},{"duration":0.16666650000000516,"midi":44,"time":116.999883,"velocity":0.3858267716535433},{"duration":0.16666649999999095,"midi":44,"time":117.1665495,"velocity":0.3858267716535433},{"duration":0.16666650000000516,"midi":45,"time":117.333216,"velocity":0.3858267716535433},{"duration":0.16666650000000516,"midi":45,"time":117.4998825,"velocity":0.3858267716535433},{"duration":0.16666649999999095,"midi":45,"time":117.666549,"velocity":0.3858267716535433},{"duration":0.16666650000000516,"midi":45,"time":117.8332155,"velocity":0.3858267716535433},{"duration":0.16666649999999095,"midi":45,"time":117.999882,"velocity":0.3858267716535433},{"duration":0.16666650000000516,"midi":45,"time":118.16654849999999,"velocity":0.3858267716535433},{"duration":0.16666650000000516,"midi":45,"time":118.333215,"velocity":0.3858267716535433},{"duration":0.16666649999999095,"midi":45,"time":118.4998815,"velocity":0.3858267716535433},{"duration":0.16666650000000516,"midi":47,"time":118.66654799999999,"velocity":0.3858267716535433},{"duration":0.16666650000000516,"midi":47,"time":118.8332145,"velocity":0.3858267716535433},{"duration":0.16666649999999095,"midi":47,"time":118.999881,"velocity":0.3858267716535433},{"duration":0.16666650000000516,"midi":47,"time":119.1665475,"velocity":0.3858267716535433},{"duration":0.16666650000000516,"midi":48,"time":119.333214,"velocity":0.3858267716535433},{"duration":0.16666649999999095,"midi":48,"time":119.4998805,"velocity":0.3858267716535433},{"duration":0.16666650000000516,"midi":48,"time":119.666547,"velocity":0.3858267716535433},{"duration":0.16666649999999095,"midi":48,"time":119.8332135,"velocity":0.3858267716535433},{"duration":0.16666650000000516,"midi":49,"time":119.99987999999999,"velocity":0.3858267716535433},{"duration":0.16666650000000516,"midi":49,"time":120.1665465,"velocity":0.3858267716535433},{"duration":0.16666649999999095,"midi":49,"time":120.333213,"velocity":0.3858267716535433},{"duration":0.16666650000000516,"midi":49,"time":120.49987949999999,"velocity":0.3858267716535433},{"duration":0.16666650000000516,"midi":49,"time":120.666546,"velocity":0.3858267716535433},{"duration":0.16666649999999095,"midi":49,"time":120.8332125,"velocity":0.3858267716535433},{"duration":0.16666650000000516,"midi":49,"time":120.99987899999999,"velocity":0.3858267716535433},{"duration":0.16666650000000516,"midi":49,"time":121.1665455,"velocity":0.3858267716535433},{"duration":0.16666649999999095,"midi":47,"time":121.333212,"velocity":0.3858267716535433},{"duration":0.16666650000000516,"midi":47,"time":121.4998785,"velocity":0.3858267716535433},{"duration":0.16666649999999095,"midi":47,"time":121.666545,"velocity":0.3858267716535433},{"duration":0.16666650000000516,"midi":47,"time":121.83321149999999,"velocity":0.3858267716535433},{"duration":0.16666650000000516,"midi":47,"time":121.999878,"velocity":0.3858267716535433},{"duration":0.16666649999999095,"midi":47,"time":122.1665445,"velocity":0.3858267716535433},{"duration":0.16666650000000516,"midi":47,"time":122.33321099999999,"velocity":0.3858267716535433},{"duration":0.16666650000000516,"midi":47,"time":122.4998775,"velocity":0.3858267716535433},{"duration":0.16666649999999095,"midi":46,"time":122.666544,"velocity":0.3858267716535433},{"duration":0.16666650000000516,"midi":46,"time":122.83321049999999,"velocity":0.3858267716535433},{"duration":0.16666650000000516,"midi":46,"time":122.999877,"velocity":0.3858267716535433},{"duration":0.16666649999999095,"midi":46,"time":123.1665435,"velocity":0.3858267716535433},{"duration":0.16666650000000516,"midi":46,"time":123.33321,"velocity":0.3858267716535433},{"duration":0.16666649999999095,"midi":46,"time":123.4998765,"velocity":0.3858267716535433},{"duration":0.16666650000000516,"midi":46,"time":123.66654299999999,"velocity":0.3858267716535433},{"duration":0.16666650000000516,"midi":46,"time":123.8332095,"velocity":0.3858267716535433},{"duration":0.16666649999999095,"midi":42,"time":123.999876,"velocity":0.3858267716535433},{"duration":0.16666650000000516,"midi":42,"time":124.16654249999999,"velocity":0.3858267716535433},{"duration":0.16666650000000516,"midi":42,"time":124.333209,"velocity":0.3858267716535433},{"duration":0.16666649999999095,"midi":42,"time":124.4998755,"velocity":0.3858267716535433},{"duration":0.16666650000000516,"midi":40,"time":124.66654199999999,"velocity":0.3858267716535433},{"duration":0.16666650000000516,"midi":40,"time":124.8332085,"velocity":0.3858267716535433},{"duration":0.16666649999999095,"midi":40,"time":124.999875,"velocity":0.3858267716535433},{"duration":0.16666650000000516,"midi":40,"time":125.1665415,"velocity":0.3858267716535433},{"duration":0.16666649999999095,"midi":38,"time":125.333208,"velocity":0.3858267716535433},{"duration":0.16666650000000516,"midi":38,"time":125.49987449999999,"velocity":0.3858267716535433},{"duration":0.16666650000000516,"midi":38,"time":125.666541,"velocity":0.3858267716535433},{"duration":0.16666649999999095,"midi":38,"time":125.8332075,"velocity":0.3858267716535433},{"duration":0.16666650000000516,"midi":38,"time":125.99987399999999,"velocity":0.3858267716535433},{"duration":0.16666650000000516,"midi":38,"time":126.1665405,"velocity":0.3858267716535433},{"duration":0.16666649999999095,"midi":38,"time":126.333207,"velocity":0.3858267716535433},{"duration":0.16666650000000516,"midi":38,"time":126.49987349999999,"velocity":0.3858267716535433},{"duration":0.16666650000000516,"midi":45,"time":126.66654,"velocity":0.3858267716535433},{"duration":0.16666649999999095,"midi":45,"time":126.8332065,"velocity":0.3858267716535433},{"duration":0.16666650000000516,"midi":45,"time":126.999873,"velocity":0.3858267716535433},{"duration":0.16666649999999095,"midi":45,"time":127.1665395,"velocity":0.3858267716535433},{"duration":0.16666650000000516,"midi":45,"time":127.33320599999999,"velocity":0.3858267716535433},{"duration":0.16666650000000516,"midi":45,"time":127.4998725,"velocity":0.3858267716535433},{"duration":0.16666649999999095,"midi":45,"time":127.666539,"velocity":0.3858267716535433},{"duration":0.16666650000000516,"midi":45,"time":127.83320549999999,"velocity":0.3858267716535433},{"duration":0.16666650000000516,"midi":47,"time":127.999872,"velocity":0.3858267716535433},{"duration":0.16666649999999095,"midi":47,"time":128.1665385,"velocity":0.3858267716535433},{"duration":0.16666649999999095,"midi":47,"time":128.333205,"velocity":0.3858267716535433},{"duration":0.16666650000001937,"midi":47,"time":128.49987149999998,"velocity":0.3858267716535433},{"duration":0.16666649999999095,"midi":47,"time":128.666538,"velocity":0.3858267716535433},{"duration":0.16666649999999095,"midi":47,"time":128.8332045,"velocity":0.3858267716535433},{"duration":0.16666650000001937,"midi":47,"time":128.99987099999998,"velocity":0.3858267716535433},{"duration":0.16666649999999095,"midi":47,"time":129.1665375,"velocity":0.3858267716535433},{"duration":0.16666649999999095,"midi":47,"time":129.333204,"velocity":0.3858267716535433},{"duration":0.16666650000001937,"midi":47,"time":129.4998705,"velocity":0.3858267716535433},{"duration":0.16666650000001937,"midi":44,"time":129.99987,"velocity":0.3858267716535433},{"duration":0.16666649999999095,"midi":44,"time":130.1665365,"velocity":0.3858267716535433},{"duration":0.3333329999999819,"midi":56,"time":130.666536,"velocity":0.3858267716535433},{"duration":0.16666650000001937,"midi":44,"time":130.999869,"velocity":0.3858267716535433},{"duration":0.3333329999999819,"midi":56,"time":131.1665355,"velocity":0.3858267716535433},{"duration":0.16666650000001937,"midi":44,"time":131.4998685,"velocity":0.3858267716535433},{"duration":0.3333329999999819,"midi":56,"time":131.666535,"velocity":0.3858267716535433},{"duration":0.16666649999999095,"midi":37,"time":131.999868,"velocity":0.3858267716535433},{"duration":0.3333330000000103,"midi":49,"time":132.16653449999998,"velocity":0.3858267716535433},{"duration":0.16666649999999095,"midi":37,"time":132.4998675,"velocity":0.3858267716535433},{"duration":0.16666650000001937,"midi":49,"time":132.66653399999998,"velocity":0.3858267716535433},{"duration":0.3333329999999819,"midi":47,"time":132.8332005,"velocity":0.3858267716535433},{"duration":0.16666650000001937,"midi":49,"time":133.16653349999999,"velocity":0.3858267716535433},{"duration":0.3333329999999819,"midi":56,"time":133.3332,"velocity":0.3858267716535433},{"duration":0.16666650000001937,"midi":44,"time":133.666533,"velocity":0.3858267716535433},{"duration":0.3333329999999819,"midi":56,"time":133.8331995,"velocity":0.3858267716535433},{"duration":0.16666650000001937,"midi":44,"time":134.1665325,"velocity":0.3858267716535433},{"duration":0.3333329999999819,"midi":56,"time":134.333199,"velocity":0.3858267716535433},{"duration":0.16666650000001937,"midi":44,"time":134.666532,"velocity":0.3858267716535433},{"duration":0.3333329999999819,"midi":56,"time":134.8331985,"velocity":0.3858267716535433},{"duration":0.16666650000001937,"midi":44,"time":135.1665315,"velocity":0.3858267716535433},{"duration":0.16666649999999095,"midi":56,"time":135.333198,"velocity":0.3858267716535433},{"duration":0.3333329999999819,"midi":54,"time":135.4998645,"velocity":0.3858267716535433},{"duration":0.16666650000001937,"midi":56,"time":135.83319749999998,"velocity":0.3858267716535433},{"duration":0.3333329999999819,"midi":51,"time":135.999864,"velocity":0.3858267716535433},{"duration":0.16666650000001937,"midi":39,"time":136.33319699999998,"velocity":0.3858267716535433},{"duration":0.3333329999999819,"midi":51,"time":136.4998635,"velocity":0.3858267716535433},{"duration":0.16666650000001937,"midi":39,"time":136.83319649999999,"velocity":0.3858267716535433},{"duration":0.3333329999999819,"midi":51,"time":136.999863,"velocity":0.3858267716535433},{"duration":0.16666650000001937,"midi":39,"time":137.333196,"velocity":0.3858267716535433},{"duration":0.3333329999999819,"midi":51,"time":137.4998625,"velocity":0.3858267716535433},{"duration":0.16666650000001937,"midi":39,"time":137.8331955,"velocity":0.3858267716535433},{"duration":0.16666649999999095,"midi":51,"time":137.999862,"velocity":0.3858267716535433},{"duration":0.3333330000000103,"midi":49,"time":138.1665285,"velocity":0.3858267716535433},{"duration":0.16666649999999095,"midi":51,"time":138.4998615,"velocity":0.3858267716535433},{"duration":0.3333330000000103,"midi":50,"time":138.666528,"velocity":0.3858267716535433},{"duration":0.16666649999999095,"midi":38,"time":138.999861,"velocity":0.3858267716535433},{"duration":0.3333329999999819,"midi":50,"time":139.1665275,"velocity":0.3858267716535433},{"duration":0.16666650000001937,"midi":38,"time":139.49986049999998,"velocity":0.3858267716535433},{"duration":0.3333329999999819,"midi":50,"time":139.666527,"velocity":0.3858267716535433},{"duration":0.16666650000001937,"midi":38,"time":139.99985999999998,"velocity":0.3858267716535433},{"duration":0.3333329999999819,"midi":50,"time":140.1665265,"velocity":0.3858267716535433},{"duration":0.16666650000001937,"midi":38,"time":140.49985949999999,"velocity":0.3858267716535433},{"duration":0.3333329999999819,"midi":50,"time":140.666526,"velocity":0.3858267716535433},{"duration":0.3333330000000103,"midi":50,"time":140.999859,"velocity":0.3858267716535433},{"duration":0.3333330000000103,"midi":56,"time":141.333192,"velocity":0.3858267716535433},{"duration":0.16666649999999095,"midi":44,"time":141.666525,"velocity":0.3858267716535433},{"duration":0.3333330000000103,"midi":56,"time":141.8331915,"velocity":0.3858267716535433},{"duration":0.16666649999999095,"midi":44,"time":142.1665245,"velocity":0.3858267716535433},{"duration":0.3333330000000103,"midi":56,"time":142.333191,"velocity":0.3858267716535433},{"duration":0.16666649999999095,"midi":37,"time":142.666524,"velocity":0.3858267716535433},{"duration":0.3333329999999819,"midi":49,"time":142.8331905,"velocity":0.3858267716535433},{"duration":0.16666650000001937,"midi":37,"time":143.16652349999998,"velocity":0.3858267716535433},{"duration":0.16666649999999095,"midi":49,"time":143.33319,"velocity":0.3858267716535433},{"duration":0.3333330000000103,"midi":47,"time":143.4998565,"velocity":0.3858267716535433},{"duration":0.16666649999999095,"midi":49,"time":143.8331895,"velocity":0.3858267716535433},{"duration":0.3333330000000103,"midi":50,"time":143.999856,"velocity":0.3858267716535433},{"duration":0.16666649999999095,"midi":38,"time":144.333189,"velocity":0.3858267716535433},{"duration":0.3333330000000103,"midi":50,"time":144.4998555,"velocity":0.3858267716535433},{"duration":0.16666649999999095,"midi":38,"time":144.8331885,"velocity":0.3858267716535433},{"duration":0.3333330000000103,"midi":50,"time":144.999855,"velocity":0.3858267716535433},{"duration":0.16666649999999095,"midi":38,"time":145.333188,"velocity":0.3858267716535433},{"duration":0.3333330000000103,"midi":50,"time":145.4998545,"velocity":0.3858267716535433},{"duration":0.16666649999999095,"midi":38,"time":145.8331875,"velocity":0.3858267716535433},{"duration":0.3333330000000103,"midi":50,"time":145.999854,"velocity":0.3858267716535433},{"duration":0.3333329999999819,"midi":50,"time":146.333187,"velocity":0.3858267716535433},{"duration":0.3333330000000103,"midi":51,"time":146.66652,"velocity":0.3858267716535433},{"duration":0.16666649999999095,"midi":39,"time":146.999853,"velocity":0.3858267716535433},{"duration":0.3333330000000103,"midi":51,"time":147.1665195,"velocity":0.3858267716535433},{"duration":0.16666649999999095,"midi":39,"time":147.4998525,"velocity":0.3858267716535433},{"duration":0.3333330000000103,"midi":51,"time":147.666519,"velocity":0.3858267716535433},{"duration":0.16666649999999095,"midi":39,"time":147.999852,"velocity":0.3858267716535433},{"duration":0.3333330000000103,"midi":51,"time":148.1665185,"velocity":0.3858267716535433},{"duration":0.16666649999999095,"midi":39,"time":148.4998515,"velocity":0.3858267716535433},{"duration":0.3333330000000103,"midi":51,"time":148.666518,"velocity":0.3858267716535433},{"duration":0.3333329999999819,"midi":51,"time":148.999851,"velocity":0.3858267716535433},{"duration":0.3333330000000103,"midi":44,"time":149.333184,"velocity":0.3858267716535433},{"duration":0.16666649999999095,"midi":32,"time":149.666517,"velocity":0.3858267716535433},{"duration":0.3333330000000103,"midi":44,"time":149.8331835,"velocity":0.3858267716535433},{"duration":0.16666649999999095,"midi":32,"time":150.1665165,"velocity":0.3858267716535433},{"duration":0.3333330000000103,"midi":44,"time":150.333183,"velocity":0.3858267716535433},{"duration":0.16666649999999095,"midi":32,"time":150.666516,"velocity":0.3858267716535433},{"duration":0.3333330000000103,"midi":44,"time":150.8331825,"velocity":0.3858267716535433},{"duration":0.16666649999999095,"midi":32,"time":151.1665155,"velocity":0.3858267716535433},{"duration":0.3333330000000103,"midi":44,"time":151.333182,"velocity":0.3858267716535433},{"duration":0.3333329999999819,"midi":44,"time":151.666515,"velocity":0.3858267716535433},{"duration":0.49999949999997284,"midi":37,"time":242.666424,"velocity":0.3858267716535433},{"duration":0.16666650000001937,"midi":37,"time":243.16642349999998,"velocity":0.3858267716535433},{"duration":0.16666649999999095,"midi":37,"time":243.33309,"velocity":0.3858267716535433},{"duration":0.16666649999999095,"midi":39,"time":243.4997565,"velocity":0.3858267716535433},{"duration":0.16666650000001937,"midi":40,"time":243.66642299999998,"velocity":0.3858267716535433},{"duration":0.16666649999999095,"midi":42,"time":243.8330895,"velocity":0.3858267716535433},{"duration":0.49999950000000126,"midi":44,"time":243.999756,"velocity":0.3858267716535433},{"duration":0.16666649999999095,"midi":44,"time":244.4997555,"velocity":0.3858267716535433},{"duration":0.16666650000001937,"midi":44,"time":244.66642199999998,"velocity":0.3858267716535433},{"duration":0.16666649999999095,"midi":45,"time":244.8330885,"velocity":0.3858267716535433},{"duration":0.16666649999999095,"midi":47,"time":244.999755,"velocity":0.3858267716535433},{"duration":0.16666650000001937,"midi":44,"time":245.16642149999998,"velocity":0.3858267716535433},{"duration":0.49999950000000126,"midi":45,"time":245.333088,"velocity":0.3858267716535433},{"duration":0.16666649999999095,"midi":45,"time":245.8330875,"velocity":0.3858267716535433},{"duration":0.16666649999999095,"midi":45,"time":245.999754,"velocity":0.3858267716535433},{"duration":0.16666650000001937,"midi":40,"time":246.1664205,"velocity":0.3858267716535433},{"duration":0.16666649999999095,"midi":45,"time":246.333087,"velocity":0.3858267716535433},{"duration":0.16666649999999095,"midi":52,"time":246.4997535,"velocity":0.3858267716535433},{"duration":0.49999950000000126,"midi":47,"time":246.66642,"velocity":0.3858267716535433},{"duration":0.16666649999999095,"midi":47,"time":247.1664195,"velocity":0.3858267716535433},{"duration":0.16666650000001937,"midi":47,"time":247.33308599999998,"velocity":0.3858267716535433},{"duration":0.16666649999999095,"midi":45,"time":247.4997525,"velocity":0.3858267716535433},{"duration":0.16666649999999095,"midi":44,"time":247.666419,"velocity":0.3858267716535433},{"duration":0.16666650000001937,"midi":40,"time":247.83308549999998,"velocity":0.3858267716535433},{"duration":0.49999950000000126,"midi":42,"time":247.999752,"velocity":0.3858267716535433},{"duration":0.16666649999999095,"midi":42,"time":248.4997515,"velocity":0.3858267716535433},{"duration":0.16666649999999095,"midi":42,"time":248.666418,"velocity":0.3858267716535433},{"duration":0.16666650000001937,"midi":37,"time":248.83308449999998,"velocity":0.3858267716535433},{"duration":0.16666649999999095,"midi":42,"time":248.999751,"velocity":0.3858267716535433},{"duration":0.16666649999999095,"midi":37,"time":249.1664175,"velocity":0.3858267716535433},{"duration":0.49999950000000126,"midi":44,"time":249.33308399999999,"velocity":0.3858267716535433},{"duration":0.16666650000001937,"midi":44,"time":249.8330835,"velocity":0.3858267716535433},{"duration":0.16666649999999095,"midi":44,"time":249.99975,"velocity":0.3858267716535433},{"duration":0.16666649999999095,"midi":42,"time":250.1664165,"velocity":0.3858267716535433},{"duration":0.16666649999999095,"midi":44,"time":250.333083,"velocity":0.3858267716535433},{"duration":0.16666650000001937,"midi":39,"time":250.49974949999998,"velocity":0.3858267716535433},{"duration":0.49999950000000126,"midi":45,"time":250.666416,"velocity":0.3858267716535433},{"duration":0.16666649999999095,"midi":45,"time":251.1664155,"velocity":0.3858267716535433},{"duration":0.16666649999999095,"midi":45,"time":251.333082,"velocity":0.3858267716535433},{"duration":0.16666650000001937,"midi":44,"time":251.49974849999998,"velocity":0.3858267716535433},{"duration":0.16666649999999095,"midi":42,"time":251.666415,"velocity":0.3858267716535433},{"duration":0.16666649999999095,"midi":45,"time":251.8330815,"velocity":0.3858267716535433},{"duration":0.49999950000000126,"midi":47,"time":251.99974799999998,"velocity":0.3858267716535433},{"duration":0.16666650000001937,"midi":47,"time":252.49974749999998,"velocity":0.3858267716535433},{"duration":0.16666649999999095,"midi":47,"time":252.666414,"velocity":0.3858267716535433},{"duration":0.16666649999999095,"midi":44,"time":252.8330805,"velocity":0.3858267716535433},{"duration":0.16666650000001937,"midi":45,"time":252.99974699999999,"velocity":0.3858267716535433},{"duration":0.16666649999999095,"midi":44,"time":253.1664135,"velocity":0.3858267716535433},{"duration":0.16666649999999095,"midi":49,"time":253.33308,"velocity":0.3858267716535433},{"duration":0.16666650000001937,"midi":49,"time":253.4997465,"velocity":0.3858267716535433},{"duration":0.16666649999999095,"midi":49,"time":253.666413,"velocity":0.3858267716535433},{"duration":0.16666649999999095,"midi":49,"time":253.8330795,"velocity":0.3858267716535433},{"duration":0.16666649999999095,"midi":49,"time":253.999746,"velocity":0.3858267716535433},{"duration":0.16666650000001937,"midi":49,"time":254.16641249999998,"velocity":0.3858267716535433},{"duration":0.16666649999999095,"midi":49,"time":254.333079,"velocity":0.3858267716535433},{"duration":0.16666649999999095,"midi":49,"time":254.4997455,"velocity":0.3858267716535433},{"duration":0.16666650000001937,"midi":42,"time":254.66641199999998,"velocity":0.3858267716535433},{"duration":0.16666649999999095,"midi":42,"time":254.8330785,"velocity":0.3858267716535433},{"duration":0.16666649999999095,"midi":42,"time":254.999745,"velocity":0.3858267716535433},{"duration":0.16666650000001937,"midi":42,"time":255.16641149999998,"velocity":0.3858267716535433},{"duration":0.16666649999999095,"midi":42,"time":255.333078,"velocity":0.3858267716535433},{"duration":0.16666649999999095,"midi":42,"time":255.4997445,"velocity":0.3858267716535433},{"duration":0.16666650000001937,"midi":42,"time":255.66641099999998,"velocity":0.3858267716535433},{"duration":0.16666649999999095,"midi":42,"time":255.8330775,"velocity":0.3858267716535433},{"duration":0.16666649999999095,"midi":44,"time":255.999744,"velocity":0.3858267716535433},{"duration":0.16666650000001937,"midi":44,"time":256.1664105,"velocity":0.3858267716535433},{"duration":0.16666649999996253,"midi":44,"time":256.333077,"velocity":0.3858267716535433},{"duration":0.16666650000001937,"midi":44,"time":256.49974349999997,"velocity":0.3858267716535433},{"duration":0.16666650000001937,"midi":44,"time":256.66641,"velocity":0.3858267716535433},{"duration":0.16666649999996253,"midi":44,"time":256.8330765,"velocity":0.3858267716535433},{"duration":0.16666650000001937,"midi":44,"time":256.99974299999997,"velocity":0.3858267716535433},{"duration":0.16666650000001937,"midi":44,"time":257.1664095,"velocity":0.3858267716535433},{"duration":0.16666649999996253,"midi":45,"time":257.333076,"velocity":0.3858267716535433},{"duration":0.16666650000001937,"midi":45,"time":257.49974249999997,"velocity":0.3858267716535433},{"duration":0.16666650000001937,"midi":45,"time":257.666409,"velocity":0.3858267716535433},{"duration":0.16666649999996253,"midi":45,"time":257.8330755,"velocity":0.3858267716535433},{"duration":0.16666650000001937,"midi":47,"time":257.99974199999997,"velocity":0.3858267716535433},{"duration":0.16666650000001937,"midi":47,"time":258.1664085,"velocity":0.3858267716535433},{"duration":0.16666649999996253,"midi":47,"time":258.333075,"velocity":0.3858267716535433},{"duration":0.16666650000001937,"midi":47,"time":258.49974149999997,"velocity":0.3858267716535433},{"duration":0.16666650000001937,"midi":49,"time":258.666408,"velocity":0.3858267716535433},{"duration":0.16666649999996253,"midi":49,"time":258.8330745,"velocity":0.3858267716535433},{"duration":0.16666650000001937,"midi":49,"time":258.999741,"velocity":0.3858267716535433},{"duration":0.16666650000001937,"midi":49,"time":259.1664075,"velocity":0.3858267716535433},{"duration":0.16666649999996253,"midi":49,"time":259.333074,"velocity":0.3858267716535433},{"duration":0.16666650000001937,"midi":49,"time":259.4997405,"velocity":0.3858267716535433},{"duration":0.16666650000001937,"midi":49,"time":259.666407,"velocity":0.3858267716535433},{"duration":0.16666649999996253,"midi":49,"time":259.8330735,"velocity":0.3858267716535433},{"duration":0.16666650000001937,"midi":42,"time":259.99974,"velocity":0.3858267716535433},{"duration":0.16666650000001937,"midi":42,"time":260.1664065,"velocity":0.3858267716535433},{"duration":0.16666649999996253,"midi":42,"time":260.333073,"velocity":0.3858267716535433},{"duration":0.16666650000001937,"midi":42,"time":260.4997395,"velocity":0.3858267716535433},{"duration":0.16666650000001937,"midi":42,"time":260.666406,"velocity":0.3858267716535433},{"duration":0.16666649999996253,"midi":42,"time":260.8330725,"velocity":0.3858267716535433},{"duration":0.16666650000001937,"midi":42,"time":260.999739,"velocity":0.3858267716535433},{"duration":0.16666650000001937,"midi":42,"time":261.1664055,"velocity":0.3858267716535433},{"duration":0.16666649999996253,"midi":44,"time":261.333072,"velocity":0.3858267716535433},{"duration":0.16666650000001937,"midi":44,"time":261.4997385,"velocity":0.3858267716535433},{"duration":0.16666650000001937,"midi":44,"time":261.666405,"velocity":0.3858267716535433},{"duration":0.16666649999996253,"midi":44,"time":261.8330715,"velocity":0.3858267716535433},{"duration":0.16666650000001937,"midi":44,"time":261.999738,"velocity":0.3858267716535433},{"duration":0.16666650000001937,"midi":44,"time":262.1664045,"velocity":0.3858267716535433},{"duration":0.16666649999996253,"midi":44,"time":262.333071,"velocity":0.3858267716535433},{"duration":0.16666650000001937,"midi":44,"time":262.4997375,"velocity":0.3858267716535433},{"duration":0.16666650000001937,"midi":45,"time":262.666404,"velocity":0.3858267716535433},{"duration":0.16666649999996253,"midi":45,"time":262.8330705,"velocity":0.3858267716535433},{"duration":0.16666650000001937,"midi":45,"time":262.999737,"velocity":0.3858267716535433},{"duration":0.16666650000001937,"midi":45,"time":263.1664035,"velocity":0.3858267716535433},{"duration":0.16666649999996253,"midi":47,"time":263.33307,"velocity":0.3858267716535433},{"duration":0.16666650000001937,"midi":47,"time":263.4997365,"velocity":0.3858267716535433},{"duration":0.16666649999996253,"midi":49,"time":263.666403,"velocity":0.3858267716535433},{"duration":0.16666650000001937,"midi":49,"time":263.83306949999997,"velocity":0.3858267716535433},{"duration":0.16666650000001937,"midi":47,"time":263.999736,"velocity":0.3858267716535433},{"duration":0.16666649999996253,"midi":47,"time":264.1664025,"velocity":0.3858267716535433},{"duration":0.16666650000001937,"midi":47,"time":264.33306899999997,"velocity":0.3858267716535433},{"duration":0.16666650000001937,"midi":47,"time":264.4997355,"velocity":0.3858267716535433},{"duration":0.16666649999996253,"midi":47,"time":264.666402,"velocity":0.3858267716535433},{"duration":0.16666650000001937,"midi":47,"time":264.83306849999997,"velocity":0.3858267716535433},{"duration":0.16666650000001937,"midi":47,"time":264.999735,"velocity":0.3858267716535433},{"duration":0.16666649999996253,"midi":47,"time":265.1664015,"velocity":0.3858267716535433},{"duration":0.16666650000001937,"midi":47,"time":265.33306799999997,"velocity":0.3858267716535433},{"duration":0.16666650000001937,"midi":47,"time":265.4997345,"velocity":0.3858267716535433},{"duration":0.16666649999996253,"midi":47,"time":265.666401,"velocity":0.3858267716535433},{"duration":0.16666650000001937,"midi":47,"time":265.83306749999997,"velocity":0.3858267716535433},{"duration":0.16666650000001937,"midi":47,"time":265.999734,"velocity":0.3858267716535433},{"duration":0.16666649999996253,"midi":47,"time":266.1664005,"velocity":0.3858267716535433},{"duration":0.16666650000001937,"midi":47,"time":266.33306699999997,"velocity":0.3858267716535433},{"duration":0.16666650000001937,"midi":47,"time":266.4997335,"velocity":0.3858267716535433},{"duration":0.16666649999996253,"midi":45,"time":266.6664,"velocity":0.3858267716535433},{"duration":0.16666650000001937,"midi":45,"time":266.8330665,"velocity":0.3858267716535433},{"duration":0.16666650000001937,"midi":45,"time":266.999733,"velocity":0.3858267716535433},{"duration":0.16666649999996253,"midi":45,"time":267.1663995,"velocity":0.3858267716535433},{"duration":0.16666650000001937,"midi":45,"time":267.333066,"velocity":0.3858267716535433},{"duration":0.16666650000001937,"midi":45,"time":267.4997325,"velocity":0.3858267716535433},{"duration":0.16666649999996253,"midi":45,"time":267.666399,"velocity":0.3858267716535433},{"duration":0.16666650000001937,"midi":45,"time":267.8330655,"velocity":0.3858267716535433},{"duration":0.16666650000001937,"midi":44,"time":267.999732,"velocity":0.3858267716535433},{"duration":0.16666649999996253,"midi":44,"time":268.1663985,"velocity":0.3858267716535433},{"duration":0.16666650000001937,"midi":44,"time":268.333065,"velocity":0.3858267716535433},{"duration":0.16666650000001937,"midi":44,"time":268.4997315,"velocity":0.3858267716535433},{"duration":0.16666649999996253,"midi":44,"time":268.666398,"velocity":0.3858267716535433},{"duration":0.16666650000001937,"midi":44,"time":268.8330645,"velocity":0.3858267716535433},{"duration":0.16666650000001937,"midi":44,"time":268.999731,"velocity":0.3858267716535433},{"duration":0.16666649999996253,"midi":44,"time":269.1663975,"velocity":0.3858267716535433},{"duration":0.16666650000001937,"midi":42,"time":269.333064,"velocity":0.3858267716535433},{"duration":0.16666650000001937,"midi":42,"time":269.4997305,"velocity":0.3858267716535433},{"duration":0.16666649999996253,"midi":42,"time":269.666397,"velocity":0.3858267716535433},{"duration":0.16666650000001937,"midi":42,"time":269.8330635,"velocity":0.3858267716535433},{"duration":0.16666650000001937,"midi":42,"time":269.99973,"velocity":0.3858267716535433},{"duration":0.16666649999996253,"midi":42,"time":270.1663965,"velocity":0.3858267716535433},{"duration":0.16666650000001937,"midi":42,"time":270.333063,"velocity":0.3858267716535433},{"duration":0.16666650000001937,"midi":42,"time":270.4997295,"velocity":0.3858267716535433},{"duration":0.16666649999996253,"midi":42,"time":270.666396,"velocity":0.3858267716535433},{"duration":0.16666650000001937,"midi":42,"time":270.8330625,"velocity":0.3858267716535433},{"duration":0.16666649999996253,"midi":42,"time":270.999729,"velocity":0.3858267716535433},{"duration":0.16666650000001937,"midi":42,"time":271.16639549999996,"velocity":0.3858267716535433},{"duration":0.16666650000001937,"midi":42,"time":271.333062,"velocity":0.3858267716535433},{"duration":0.16666649999996253,"midi":42,"time":271.4997285,"velocity":0.3858267716535433},{"duration":0.16666650000001937,"midi":42,"time":271.66639499999997,"velocity":0.3858267716535433},{"duration":0.16666650000001937,"midi":42,"time":271.8330615,"velocity":0.3858267716535433},{"duration":0.16666649999996253,"midi":39,"time":271.999728,"velocity":0.3858267716535433},{"duration":0.16666650000001937,"midi":39,"time":272.16639449999997,"velocity":0.3858267716535433},{"duration":0.16666650000001937,"midi":39,"time":272.333061,"velocity":0.3858267716535433},{"duration":0.16666649999996253,"midi":39,"time":272.4997275,"velocity":0.3858267716535433},{"duration":0.16666650000001937,"midi":39,"time":272.66639399999997,"velocity":0.3858267716535433},{"duration":0.16666650000001937,"midi":39,"time":272.8330605,"velocity":0.3858267716535433},{"duration":0.16666649999996253,"midi":39,"time":272.999727,"velocity":0.3858267716535433},{"duration":0.16666650000001937,"midi":39,"time":273.16639349999997,"velocity":0.3858267716535433},{"duration":0.16666650000001937,"midi":44,"time":273.33306,"velocity":0.3858267716535433},{"duration":0.16666649999996253,"midi":44,"time":273.4997265,"velocity":0.3858267716535433},{"duration":0.16666650000001937,"midi":44,"time":273.66639299999997,"velocity":0.3858267716535433},{"duration":0.16666650000001937,"midi":44,"time":273.8330595,"velocity":0.3858267716535433},{"duration":0.16666649999996253,"midi":44,"time":273.999726,"velocity":0.3858267716535433},{"duration":0.16666650000001937,"midi":44,"time":274.1663925,"velocity":0.3858267716535433},{"duration":0.16666650000001937,"midi":44,"time":274.333059,"velocity":0.3858267716535433},{"duration":0.16666649999996253,"midi":44,"time":274.4997255,"velocity":0.3858267716535433},{"duration":0.16666650000001937,"midi":37,"time":274.666392,"velocity":0.3858267716535433},{"duration":0.16666650000001937,"midi":37,"time":274.8330585,"velocity":0.3858267716535433},{"duration":0.16666649999996253,"midi":37,"time":274.999725,"velocity":0.3858267716535433},{"duration":0.16666650000001937,"midi":37,"time":275.1663915,"velocity":0.3858267716535433},{"duration":0.16666650000001937,"midi":37,"time":275.333058,"velocity":0.3858267716535433},{"duration":0.16666649999996253,"midi":37,"time":275.4997245,"velocity":0.3858267716535433},{"duration":0.16666650000001937,"midi":37,"time":275.666391,"velocity":0.3858267716535433},{"duration":0.16666650000001937,"midi":37,"time":275.8330575,"velocity":0.3858267716535433},{"duration":0.16666649999996253,"midi":44,"time":275.999724,"velocity":0.3858267716535433},{"duration":0.16666650000001937,"midi":44,"time":276.1663905,"velocity":0.3858267716535433},{"duration":0.16666650000001937,"midi":44,"time":276.333057,"velocity":0.3858267716535433},{"duration":0.16666649999996253,"midi":44,"time":276.4997235,"velocity":0.3858267716535433},{"duration":0.16666650000001937,"midi":44,"time":276.66639,"velocity":0.3858267716535433},{"duration":0.16666650000001937,"midi":44,"time":276.8330565,"velocity":0.3858267716535433},{"duration":0.16666649999996253,"midi":44,"time":276.999723,"velocity":0.3858267716535433},{"duration":0.16666650000001937,"midi":44,"time":277.1663895,"velocity":0.3858267716535433},{"duration":0.16666650000001937,"midi":45,"time":277.333056,"velocity":0.3858267716535433},{"duration":0.16666649999996253,"midi":45,"time":277.4997225,"velocity":0.3858267716535433},{"duration":0.16666650000001937,"midi":45,"time":277.666389,"velocity":0.3858267716535433},{"duration":0.16666650000001937,"midi":45,"time":277.8330555,"velocity":0.3858267716535433},{"duration":0.16666649999996253,"midi":45,"time":277.999722,"velocity":0.3858267716535433},{"duration":0.16666650000001937,"midi":45,"time":278.1663885,"velocity":0.3858267716535433},{"duration":0.16666649999996253,"midi":45,"time":278.333055,"velocity":0.3858267716535433},{"duration":0.16666650000001937,"midi":45,"time":278.49972149999996,"velocity":0.3858267716535433},{"duration":0.16666650000001937,"midi":47,"time":278.666388,"velocity":0.3858267716535433},{"duration":0.16666649999996253,"midi":47,"time":278.8330545,"velocity":0.3858267716535433},{"duration":0.16666650000001937,"midi":47,"time":278.99972099999997,"velocity":0.3858267716535433},{"duration":0.16666650000001937,"midi":47,"time":279.1663875,"velocity":0.3858267716535433},{"duration":0.16666649999996253,"midi":47,"time":279.333054,"velocity":0.3858267716535433},{"duration":0.16666650000001937,"midi":47,"time":279.49972049999997,"velocity":0.3858267716535433},{"duration":0.16666650000001937,"midi":47,"time":279.666387,"velocity":0.3858267716535433},{"duration":0.16666649999996253,"midi":47,"time":279.8330535,"velocity":0.3858267716535433},{"duration":0.16666650000001937,"midi":42,"time":279.99971999999997,"velocity":0.3858267716535433},{"duration":0.16666650000001937,"midi":42,"time":280.1663865,"velocity":0.3858267716535433},{"duration":0.16666649999996253,"midi":42,"time":280.333053,"velocity":0.3858267716535433},{"duration":0.16666650000001937,"midi":42,"time":280.49971949999997,"velocity":0.3858267716535433},{"duration":0.16666650000001937,"midi":42,"time":280.666386,"velocity":0.3858267716535433},{"duration":0.16666649999996253,"midi":42,"time":280.8330525,"velocity":0.3858267716535433},{"duration":0.16666650000001937,"midi":42,"time":280.99971899999997,"velocity":0.3858267716535433},{"duration":0.16666650000001937,"midi":42,"time":281.1663855,"velocity":0.3858267716535433},{"duration":0.16666649999996253,"midi":44,"time":281.333052,"velocity":0.3858267716535433},{"duration":0.16666650000001937,"midi":44,"time":281.4997185,"velocity":0.3858267716535433},{"duration":0.16666650000001937,"midi":44,"time":281.666385,"velocity":0.3858267716535433},{"duration":0.16666649999996253,"midi":44,"time":281.8330515,"velocity":0.3858267716535433},{"duration":0.16666650000001937,"midi":44,"time":281.999718,"velocity":0.3858267716535433},{"duration":0.16666650000001937,"midi":44,"time":282.1663845,"velocity":0.3858267716535433},{"duration":0.16666649999996253,"midi":44,"time":282.333051,"velocity":0.3858267716535433},{"duration":0.16666650000001937,"midi":44,"time":282.4997175,"velocity":0.3858267716535433},{"duration":0.16666650000001937,"midi":45,"time":282.666384,"velocity":0.3858267716535433},{"duration":0.16666649999996253,"midi":45,"time":282.8330505,"velocity":0.3858267716535433},{"duration":0.16666650000001937,"midi":45,"time":282.999717,"velocity":0.3858267716535433},{"duration":0.16666650000001937,"midi":45,"time":283.1663835,"velocity":0.3858267716535433},{"duration":0.16666649999996253,"midi":45,"time":283.33305,"velocity":0.3858267716535433},{"duration":0.16666650000001937,"midi":45,"time":283.4997165,"velocity":0.3858267716535433},{"duration":0.16666650000001937,"midi":45,"time":283.666383,"velocity":0.3858267716535433},{"duration":0.16666649999996253,"midi":45,"time":283.8330495,"velocity":0.3858267716535433},{"duration":0.16666650000001937,"midi":47,"time":283.999716,"velocity":0.3858267716535433},{"duration":0.16666650000001937,"midi":47,"time":284.1663825,"velocity":0.3858267716535433},{"duration":0.16666649999996253,"midi":47,"time":284.333049,"velocity":0.3858267716535433},{"duration":0.16666650000001937,"midi":47,"time":284.4997155,"velocity":0.3858267716535433},{"duration":0.16666650000001937,"midi":48,"time":284.666382,"velocity":0.3858267716535433},{"duration":0.16666649999996253,"midi":48,"time":284.8330485,"velocity":0.3858267716535433},{"duration":0.16666650000001937,"midi":48,"time":284.999715,"velocity":0.3858267716535433},{"duration":0.16666650000001937,"midi":48,"time":285.1663815,"velocity":0.3858267716535433},{"duration":0.16666649999996253,"midi":49,"time":285.333048,"velocity":0.3858267716535433},{"duration":0.16666650000001937,"midi":49,"time":285.4997145,"velocity":0.3858267716535433},{"duration":0.16666649999996253,"midi":49,"time":285.666381,"velocity":0.3858267716535433},{"duration":0.16666650000001937,"midi":49,"time":285.83304749999996,"velocity":0.3858267716535433},{"duration":0.16666650000001937,"midi":49,"time":285.999714,"velocity":0.3858267716535433},{"duration":0.16666649999996253,"midi":49,"time":286.1663805,"velocity":0.3858267716535433},{"duration":0.16666650000001937,"midi":49,"time":286.33304699999997,"velocity":0.3858267716535433},{"duration":0.16666650000001937,"midi":49,"time":286.4997135,"velocity":0.3858267716535433},{"duration":0.16666649999996253,"midi":47,"time":286.66638,"velocity":0.3858267716535433},{"duration":0.16666650000001937,"midi":47,"time":286.83304649999997,"velocity":0.3858267716535433},{"duration":0.16666650000001937,"midi":47,"time":286.999713,"velocity":0.3858267716535433},{"duration":0.16666649999996253,"midi":47,"time":287.1663795,"velocity":0.3858267716535433},{"duration":0.16666650000001937,"midi":47,"time":287.33304599999997,"velocity":0.3858267716535433},{"duration":0.16666650000001937,"midi":47,"time":287.4997125,"velocity":0.3858267716535433},{"duration":0.16666649999996253,"midi":47,"time":287.666379,"velocity":0.3858267716535433},{"duration":0.16666650000001937,"midi":47,"time":287.83304549999997,"velocity":0.3858267716535433},{"duration":0.16666650000001937,"midi":46,"time":287.999712,"velocity":0.3858267716535433},{"duration":0.16666649999996253,"midi":46,"time":288.1663785,"velocity":0.3858267716535433},{"duration":0.16666650000001937,"midi":46,"time":288.33304499999997,"velocity":0.3858267716535433},{"duration":0.16666650000001937,"midi":46,"time":288.4997115,"velocity":0.3858267716535433},{"duration":0.16666649999996253,"midi":46,"time":288.666378,"velocity":0.3858267716535433},{"duration":0.16666650000001937,"midi":46,"time":288.83304449999997,"velocity":0.3858267716535433},{"duration":0.16666650000001937,"midi":46,"time":288.999711,"velocity":0.3858267716535433},{"duration":0.16666649999996253,"midi":46,"time":289.1663775,"velocity":0.3858267716535433},{"duration":0.16666650000001937,"midi":42,"time":289.333044,"velocity":0.3858267716535433},{"duration":0.16666650000001937,"midi":42,"time":289.4997105,"velocity":0.3858267716535433},{"duration":0.16666649999996253,"midi":42,"time":289.666377,"velocity":0.3858267716535433},{"duration":0.16666650000001937,"midi":42,"time":289.8330435,"velocity":0.3858267716535433},{"duration":0.16666650000001937,"midi":40,"time":289.99971,"velocity":0.3858267716535433},{"duration":0.16666649999996253,"midi":40,"time":290.1663765,"velocity":0.3858267716535433},{"duration":0.16666650000001937,"midi":40,"time":290.333043,"velocity":0.3858267716535433},{"duration":0.16666650000001937,"midi":40,"time":290.4997095,"velocity":0.3858267716535433},{"duration":0.16666649999996253,"midi":38,"time":290.666376,"velocity":0.3858267716535433},{"duration":0.16666650000001937,"midi":38,"time":290.8330425,"velocity":0.3858267716535433},{"duration":0.16666650000001937,"midi":38,"time":290.999709,"velocity":0.3858267716535433},{"duration":0.16666649999996253,"midi":38,"time":291.1663755,"velocity":0.3858267716535433},{"duration":0.16666650000001937,"midi":38,"time":291.333042,"velocity":0.3858267716535433},{"duration":0.16666650000001937,"midi":38,"time":291.4997085,"velocity":0.3858267716535433},{"duration":0.16666649999996253,"midi":38,"time":291.666375,"velocity":0.3858267716535433},{"duration":0.16666650000001937,"midi":38,"time":291.8330415,"velocity":0.3858267716535433},{"duration":0.16666650000001937,"midi":45,"time":291.999708,"velocity":0.3858267716535433},{"duration":0.16666649999996253,"midi":45,"time":292.1663745,"velocity":0.3858267716535433},{"duration":0.16666650000001937,"midi":45,"time":292.333041,"velocity":0.3858267716535433},{"duration":0.16666650000001937,"midi":45,"time":292.4997075,"velocity":0.3858267716535433},{"duration":0.16666649999996253,"midi":45,"time":292.666374,"velocity":0.3858267716535433},{"duration":0.16666650000001937,"midi":45,"time":292.8330405,"velocity":0.3858267716535433},{"duration":0.16666649999996253,"midi":45,"time":292.999707,"velocity":0.3858267716535433},{"duration":0.16666650000001937,"midi":45,"time":293.16637349999996,"velocity":0.3858267716535433},{"duration":0.16666650000001937,"midi":47,"time":293.33304,"velocity":0.3858267716535433},{"duration":0.16666649999996253,"midi":47,"time":293.4997065,"velocity":0.3858267716535433},{"duration":0.16666650000001937,"midi":47,"time":293.66637299999996,"velocity":0.3858267716535433},{"duration":0.16666650000001937,"midi":47,"time":293.8330395,"velocity":0.3858267716535433},{"duration":0.16666649999996253,"midi":47,"time":293.999706,"velocity":0.3858267716535433},{"duration":0.16666650000001937,"midi":47,"time":294.16637249999997,"velocity":0.3858267716535433},{"duration":0.16666650000001937,"midi":47,"time":294.333039,"velocity":0.3858267716535433},{"duration":0.16666649999996253,"midi":47,"time":294.4997055,"velocity":0.3858267716535433},{"duration":0.16666650000001937,"midi":47,"time":294.66637199999997,"velocity":0.3858267716535433},{"duration":0.16666650000001937,"midi":47,"time":294.8330385,"velocity":0.3858267716535433},{"duration":0.16666649999996253,"midi":47,"time":294.999705,"velocity":0.3858267716535433},{"duration":0.16666650000001937,"midi":47,"time":295.16637149999997,"velocity":0.3858267716535433},{"duration":0.16666650000001937,"midi":44,"time":295.333038,"velocity":0.3858267716535433},{"duration":0.16666649999996253,"midi":44,"time":295.4997045,"velocity":0.3858267716535433},{"duration":0.16666650000001937,"midi":44,"time":295.66637099999997,"velocity":0.3858267716535433},{"duration":0.16666650000001937,"midi":44,"time":295.8330375,"velocity":0.3858267716535433},{"duration":0.16666649999996253,"midi":37,"time":295.999704,"velocity":0.3858267716535433},{"duration":0.16666650000001937,"midi":37,"time":296.16637049999997,"velocity":0.3858267716535433},{"duration":0.16666650000001937,"midi":37,"time":296.333037,"velocity":0.3858267716535433},{"duration":0.16666649999996253,"midi":37,"time":296.4997035,"velocity":0.3858267716535433},{"duration":0.16666650000001937,"midi":37,"time":296.66637,"velocity":0.3858267716535433},{"duration":0.16666650000001937,"midi":37,"time":296.8330365,"velocity":0.3858267716535433},{"duration":0.16666649999996253,"midi":37,"time":296.999703,"velocity":0.3858267716535433},{"duration":0.16666650000001937,"midi":37,"time":297.1663695,"velocity":0.3858267716535433},{"duration":0.16666650000001937,"midi":37,"time":297.333036,"velocity":0.3858267716535433},{"duration":0.16666649999996253,"midi":37,"time":297.4997025,"velocity":0.3858267716535433},{"duration":0.16666650000001937,"midi":37,"time":297.666369,"velocity":0.3858267716535433},{"duration":0.16666650000001937,"midi":37,"time":297.8330355,"velocity":0.3858267716535433},{"duration":0.16666649999996253,"midi":37,"time":297.999702,"velocity":0.3858267716535433},{"duration":0.16666650000001937,"midi":37,"time":298.1663685,"velocity":0.3858267716535433},{"duration":0.16666650000001937,"midi":37,"time":298.333035,"velocity":0.3858267716535433},{"duration":0.16666649999996253,"midi":37,"time":298.4997015,"velocity":0.3858267716535433},{"duration":0.16666650000001937,"midi":35,"time":298.666368,"velocity":0.3858267716535433},{"duration":0.16666650000001937,"midi":35,"time":298.8330345,"velocity":0.3858267716535433},{"duration":0.16666649999996253,"midi":35,"time":298.999701,"velocity":0.3858267716535433},{"duration":0.16666650000001937,"midi":35,"time":299.1663675,"velocity":0.3858267716535433},{"duration":0.16666650000001937,"midi":35,"time":299.333034,"velocity":0.3858267716535433},{"duration":0.16666649999996253,"midi":35,"time":299.4997005,"velocity":0.3858267716535433},{"duration":0.16666650000001937,"midi":35,"time":299.666367,"velocity":0.3858267716535433},{"duration":0.16666650000001937,"midi":35,"time":299.8330335,"velocity":0.3858267716535433},{"duration":0.16666649999996253,"midi":35,"time":299.9997,"velocity":0.3858267716535433},{"duration":0.16666650000001937,"midi":35,"time":300.1663665,"velocity":0.3858267716535433},{"duration":0.16666650000001937,"midi":35,"time":300.333033,"velocity":0.3858267716535433},{"duration":0.16666649999996253,"midi":35,"time":300.4996995,"velocity":0.3858267716535433},{"duration":0.16666650000001937,"midi":35,"time":300.666366,"velocity":0.3858267716535433},{"duration":0.16666649999996253,"midi":35,"time":300.8330325,"velocity":0.3858267716535433},{"duration":0.16666650000001937,"midi":35,"time":300.99969899999996,"velocity":0.3858267716535433},{"duration":0.16666650000001937,"midi":35,"time":301.1663655,"velocity":0.3858267716535433},{"duration":0.16666649999996253,"midi":37,"time":301.333032,"velocity":0.3858267716535433},{"duration":0.16666650000001937,"midi":37,"time":301.49969849999997,"velocity":0.3858267716535433},{"duration":0.16666650000001937,"midi":37,"time":301.666365,"velocity":0.3858267716535433},{"duration":0.16666649999996253,"midi":37,"time":301.8330315,"velocity":0.3858267716535433},{"duration":0.16666650000001937,"midi":37,"time":301.99969799999997,"velocity":0.3858267716535433},{"duration":0.16666650000001937,"midi":37,"time":302.1663645,"velocity":0.3858267716535433},{"duration":0.16666649999996253,"midi":37,"time":302.333031,"velocity":0.3858267716535433},{"duration":0.16666650000001937,"midi":37,"time":302.49969749999997,"velocity":0.3858267716535433},{"duration":0.16666650000001937,"midi":37,"time":302.666364,"velocity":0.3858267716535433},{"duration":0.16666649999996253,"midi":37,"time":302.8330305,"velocity":0.3858267716535433},{"duration":0.16666650000001937,"midi":37,"time":302.99969699999997,"velocity":0.3858267716535433},{"duration":0.16666650000001937,"midi":37,"time":303.1663635,"velocity":0.3858267716535433},{"duration":0.16666649999996253,"midi":37,"time":303.33303,"velocity":0.3858267716535433},{"duration":0.16666650000001937,"midi":37,"time":303.49969649999997,"velocity":0.3858267716535433},{"duration":0.16666650000001937,"midi":37,"time":303.666363,"velocity":0.3858267716535433},{"duration":0.16666649999996253,"midi":37,"time":303.8330295,"velocity":0.3858267716535433},{"duration":0.16666650000001937,"midi":35,"time":303.999696,"velocity":0.3858267716535433},{"duration":0.16666650000001937,"midi":35,"time":304.1663625,"velocity":0.3858267716535433},{"duration":0.16666649999996253,"midi":35,"time":304.333029,"velocity":0.3858267716535433},{"duration":0.16666650000001937,"midi":35,"time":304.4996955,"velocity":0.3858267716535433},{"duration":0.16666650000001937,"midi":35,"time":304.666362,"velocity":0.3858267716535433},{"duration":0.16666649999996253,"midi":35,"time":304.8330285,"velocity":0.3858267716535433},{"duration":0.16666650000001937,"midi":35,"time":304.999695,"velocity":0.3858267716535433},{"duration":0.16666650000001937,"midi":35,"time":305.1663615,"velocity":0.3858267716535433},{"duration":0.16666649999996253,"midi":35,"time":305.333028,"velocity":0.3858267716535433},{"duration":0.16666650000001937,"midi":35,"time":305.4996945,"velocity":0.3858267716535433},{"duration":0.16666650000001937,"midi":35,"time":305.666361,"velocity":0.3858267716535433},{"duration":0.16666649999996253,"midi":35,"time":305.8330275,"velocity":0.3858267716535433},{"duration":0.16666650000001937,"midi":35,"time":305.999694,"velocity":0.3858267716535433},{"duration":0.16666650000001937,"midi":35,"time":306.1663605,"velocity":0.3858267716535433},{"duration":0.16666649999996253,"midi":35,"time":306.333027,"velocity":0.3858267716535433},{"duration":0.16666650000001937,"midi":35,"time":306.4996935,"velocity":0.3858267716535433},{"duration":0.16666650000001937,"midi":42,"time":322.666344,"velocity":0.3858267716535433},{"duration":0.16666649999996253,"midi":42,"time":322.8330105,"velocity":0.3858267716535433},{"duration":0.16666650000001937,"midi":42,"time":322.99967699999996,"velocity":0.3858267716535433},{"duration":0.16666650000001937,"midi":42,"time":323.1663435,"velocity":0.3858267716535433},{"duration":0.16666649999996253,"midi":42,"time":323.33301,"velocity":0.3858267716535433},{"duration":0.16666650000001937,"midi":42,"time":323.49967649999996,"velocity":0.3858267716535433},{"duration":0.16666650000001937,"midi":42,"time":323.666343,"velocity":0.3858267716535433},{"duration":0.16666649999996253,"midi":42,"time":323.8330095,"velocity":0.3858267716535433},{"duration":0.16666650000001937,"midi":42,"time":323.99967599999997,"velocity":0.3858267716535433},{"duration":0.16666650000001937,"midi":42,"time":324.1663425,"velocity":0.3858267716535433},{"duration":0.16666649999996253,"midi":42,"time":324.333009,"velocity":0.3858267716535433},{"duration":0.16666650000001937,"midi":42,"time":324.49967549999997,"velocity":0.3858267716535433},{"duration":0.16666650000001937,"midi":42,"time":324.666342,"velocity":0.3858267716535433},{"duration":0.16666649999996253,"midi":42,"time":324.8330085,"velocity":0.3858267716535433},{"duration":0.16666650000001937,"midi":42,"time":324.99967499999997,"velocity":0.3858267716535433},{"duration":0.16666650000001937,"midi":42,"time":325.1663415,"velocity":0.3858267716535433},{"duration":0.16666649999996253,"midi":39,"time":325.333008,"velocity":0.3858267716535433},{"duration":0.16666650000001937,"midi":39,"time":325.49967449999997,"velocity":0.3858267716535433},{"duration":0.16666650000001937,"midi":39,"time":325.666341,"velocity":0.3858267716535433},{"duration":0.16666649999996253,"midi":39,"time":325.8330075,"velocity":0.3858267716535433},{"duration":0.16666650000001937,"midi":39,"time":325.99967399999997,"velocity":0.3858267716535433},{"duration":0.16666650000001937,"midi":39,"time":326.1663405,"velocity":0.3858267716535433},{"duration":0.16666649999996253,"midi":39,"time":326.333007,"velocity":0.3858267716535433},{"duration":0.16666650000001937,"midi":39,"time":326.4996735,"velocity":0.3858267716535433},{"duration":0.16666650000001937,"midi":44,"time":326.66634,"velocity":0.3858267716535433},{"duration":0.16666649999996253,"midi":44,"time":326.8330065,"velocity":0.3858267716535433},{"duration":0.16666650000001937,"midi":44,"time":326.999673,"velocity":0.3858267716535433},{"duration":0.16666650000001937,"midi":44,"time":327.1663395,"velocity":0.3858267716535433},{"duration":0.16666649999996253,"midi":44,"time":327.333006,"velocity":0.3858267716535433},{"duration":0.16666650000001937,"midi":44,"time":327.4996725,"velocity":0.3858267716535433},{"duration":0.16666650000001937,"midi":44,"time":327.666339,"velocity":0.3858267716535433},{"duration":0.16666649999996253,"midi":44,"time":327.8330055,"velocity":0.3858267716535433},{"duration":0.16666650000001937,"midi":37,"time":327.999672,"velocity":0.3858267716535433},{"duration":0.16666650000001937,"midi":37,"time":328.1663385,"velocity":0.3858267716535433},{"duration":0.16666649999996253,"midi":37,"time":328.333005,"velocity":0.3858267716535433},{"duration":0.16666650000001937,"midi":37,"time":328.4996715,"velocity":0.3858267716535433},{"duration":0.16666650000001937,"midi":37,"time":328.666338,"velocity":0.3858267716535433},{"duration":0.16666649999996253,"midi":37,"time":328.8330045,"velocity":0.3858267716535433},{"duration":0.16666650000001937,"midi":37,"time":328.999671,"velocity":0.3858267716535433},{"duration":0.16666650000001937,"midi":37,"time":329.1663375,"velocity":0.3858267716535433},{"duration":0.16666649999996253,"midi":44,"time":329.333004,"velocity":0.3858267716535433},{"duration":0.16666650000001937,"midi":44,"time":329.4996705,"velocity":0.3858267716535433},{"duration":0.16666650000001937,"midi":44,"time":329.666337,"velocity":0.3858267716535433},{"duration":0.16666649999996253,"midi":44,"time":329.8330035,"velocity":0.3858267716535433},{"duration":0.16666650000001937,"midi":44,"time":329.99967,"velocity":0.3858267716535433},{"duration":0.16666649999996253,"midi":44,"time":330.1663365,"velocity":0.3858267716535433},{"duration":0.16666650000001937,"midi":44,"time":330.33300299999996,"velocity":0.3858267716535433},{"duration":0.16666650000001937,"midi":44,"time":330.4996695,"velocity":0.3858267716535433},{"duration":0.16666649999996253,"midi":45,"time":330.666336,"velocity":0.3858267716535433},{"duration":0.16666650000001937,"midi":45,"time":330.83300249999996,"velocity":0.3858267716535433},{"duration":0.16666650000001937,"midi":45,"time":330.999669,"velocity":0.3858267716535433},{"duration":0.16666649999996253,"midi":45,"time":331.1663355,"velocity":0.3858267716535433},{"duration":0.16666650000001937,"midi":45,"time":331.33300199999996,"velocity":0.3858267716535433},{"duration":0.16666650000001937,"midi":45,"time":331.4996685,"velocity":0.3858267716535433},{"duration":0.16666649999996253,"midi":45,"time":331.666335,"velocity":0.3858267716535433},{"duration":0.16666650000001937,"midi":45,"time":331.83300149999997,"velocity":0.3858267716535433},{"duration":0.16666650000001937,"midi":47,"time":331.999668,"velocity":0.3858267716535433},{"duration":0.16666649999996253,"midi":47,"time":332.1663345,"velocity":0.3858267716535433},{"duration":0.16666650000001937,"midi":47,"time":332.33300099999997,"velocity":0.3858267716535433},{"duration":0.16666650000001937,"midi":47,"time":332.4996675,"velocity":0.3858267716535433},{"duration":0.16666649999996253,"midi":47,"time":332.666334,"velocity":0.3858267716535433},{"duration":0.16666650000001937,"midi":47,"time":332.83300049999997,"velocity":0.3858267716535433},{"duration":0.16666650000001937,"midi":47,"time":332.999667,"velocity":0.3858267716535433},{"duration":0.16666649999996253,"midi":47,"time":333.1663335,"velocity":0.3858267716535433},{"duration":0.16666650000001937,"midi":42,"time":333.33299999999997,"velocity":0.3858267716535433},{"duration":0.16666650000001937,"midi":42,"time":333.4996665,"velocity":0.3858267716535433},{"duration":0.16666649999996253,"midi":42,"time":333.666333,"velocity":0.3858267716535433},{"duration":0.16666650000001937,"midi":42,"time":333.83299949999997,"velocity":0.3858267716535433},{"duration":0.16666650000001937,"midi":42,"time":333.999666,"velocity":0.3858267716535433},{"duration":0.16666649999996253,"midi":42,"time":334.1663325,"velocity":0.3858267716535433},{"duration":0.16666650000001937,"midi":42,"time":334.332999,"velocity":0.3858267716535433},{"duration":0.16666650000001937,"midi":42,"time":334.4996655,"velocity":0.3858267716535433},{"duration":0.16666649999996253,"midi":44,"time":334.666332,"velocity":0.3858267716535433},{"duration":0.16666650000001937,"midi":44,"time":334.8329985,"velocity":0.3858267716535433},{"duration":0.16666650000001937,"midi":44,"time":334.999665,"velocity":0.3858267716535433},{"duration":0.16666649999996253,"midi":44,"time":335.1663315,"velocity":0.3858267716535433},{"duration":0.16666650000001937,"midi":44,"time":335.332998,"velocity":0.3858267716535433},{"duration":0.16666650000001937,"midi":44,"time":335.4996645,"velocity":0.3858267716535433},{"duration":0.16666649999996253,"midi":44,"time":335.666331,"velocity":0.3858267716535433},{"duration":0.16666650000001937,"midi":44,"time":335.8329975,"velocity":0.3858267716535433},{"duration":0.16666650000001937,"midi":45,"time":335.999664,"velocity":0.3858267716535433},{"duration":0.16666649999996253,"midi":45,"time":336.1663305,"velocity":0.3858267716535433},{"duration":0.16666650000001937,"midi":45,"time":336.332997,"velocity":0.3858267716535433},{"duration":0.16666650000001937,"midi":45,"time":336.4996635,"velocity":0.3858267716535433},{"duration":0.16666649999996253,"midi":45,"time":336.66633,"velocity":0.3858267716535433},{"duration":0.16666650000001937,"midi":45,"time":336.8329965,"velocity":0.3858267716535433},{"duration":0.16666650000001937,"midi":45,"time":336.999663,"velocity":0.3858267716535433},{"duration":0.16666649999996253,"midi":45,"time":337.1663295,"velocity":0.3858267716535433},{"duration":0.16666650000001937,"midi":47,"time":337.332996,"velocity":0.3858267716535433},{"duration":0.16666649999996253,"midi":47,"time":337.4996625,"velocity":0.3858267716535433},{"duration":0.16666650000001937,"midi":47,"time":337.66632899999996,"velocity":0.3858267716535433},{"duration":0.16666650000001937,"midi":47,"time":337.8329955,"velocity":0.3858267716535433},{"duration":0.16666649999996253,"midi":48,"time":337.999662,"velocity":0.3858267716535433},{"duration":0.16666650000001937,"midi":48,"time":338.16632849999996,"velocity":0.3858267716535433},{"duration":0.16666650000001937,"midi":48,"time":338.332995,"velocity":0.3858267716535433},{"duration":0.16666649999996253,"midi":48,"time":338.4996615,"velocity":0.3858267716535433},{"duration":0.16666650000001937,"midi":49,"time":338.66632799999996,"velocity":0.3858267716535433},{"duration":0.16666650000001937,"midi":49,"time":338.8329945,"velocity":0.3858267716535433},{"duration":0.16666649999996253,"midi":49,"time":338.999661,"velocity":0.3858267716535433},{"duration":0.16666650000001937,"midi":49,"time":339.16632749999997,"velocity":0.3858267716535433},{"duration":0.16666650000001937,"midi":49,"time":339.332994,"velocity":0.3858267716535433},{"duration":0.16666649999996253,"midi":49,"time":339.4996605,"velocity":0.3858267716535433},{"duration":0.16666650000001937,"midi":49,"time":339.66632699999997,"velocity":0.3858267716535433},{"duration":0.16666650000001937,"midi":49,"time":339.8329935,"velocity":0.3858267716535433},{"duration":0.16666649999996253,"midi":47,"time":339.99966,"velocity":0.3858267716535433},{"duration":0.16666650000001937,"midi":47,"time":340.16632649999997,"velocity":0.3858267716535433},{"duration":0.16666650000001937,"midi":47,"time":340.332993,"velocity":0.3858267716535433},{"duration":0.16666649999996253,"midi":47,"time":340.4996595,"velocity":0.3858267716535433},{"duration":0.16666650000001937,"midi":47,"time":340.66632599999997,"velocity":0.3858267716535433},{"duration":0.16666650000001937,"midi":47,"time":340.8329925,"velocity":0.3858267716535433},{"duration":0.16666649999996253,"midi":47,"time":340.999659,"velocity":0.3858267716535433},{"duration":0.16666650000001937,"midi":47,"time":341.16632549999997,"velocity":0.3858267716535433},{"duration":0.16666650000001937,"midi":46,"time":341.332992,"velocity":0.3858267716535433},{"duration":0.16666649999996253,"midi":46,"time":341.4996585,"velocity":0.3858267716535433},{"duration":0.16666650000001937,"midi":46,"time":341.666325,"velocity":0.3858267716535433},{"duration":0.16666650000001937,"midi":46,"time":341.8329915,"velocity":0.3858267716535433},{"duration":0.16666649999996253,"midi":46,"time":341.999658,"velocity":0.3858267716535433},{"duration":0.16666650000001937,"midi":46,"time":342.1663245,"velocity":0.3858267716535433},{"duration":0.16666650000001937,"midi":46,"time":342.332991,"velocity":0.3858267716535433},{"duration":0.16666649999996253,"midi":46,"time":342.4996575,"velocity":0.3858267716535433},{"duration":0.16666650000001937,"midi":42,"time":342.666324,"velocity":0.3858267716535433},{"duration":0.16666650000001937,"midi":42,"time":342.8329905,"velocity":0.3858267716535433},{"duration":0.16666649999996253,"midi":42,"time":342.999657,"velocity":0.3858267716535433},{"duration":0.16666650000001937,"midi":42,"time":343.1663235,"velocity":0.3858267716535433},{"duration":0.16666650000001937,"midi":40,"time":343.33299,"velocity":0.3858267716535433},{"duration":0.16666649999996253,"midi":40,"time":343.4996565,"velocity":0.3858267716535433},{"duration":0.16666650000001937,"midi":40,"time":343.666323,"velocity":0.3858267716535433},{"duration":0.16666650000001937,"midi":40,"time":343.8329895,"velocity":0.3858267716535433},{"duration":0.16666649999996253,"midi":38,"time":343.999656,"velocity":0.3858267716535433},{"duration":0.16666650000001937,"midi":38,"time":344.1663225,"velocity":0.3858267716535433},{"duration":0.16666650000001937,"midi":38,"time":344.332989,"velocity":0.3858267716535433},{"duration":0.16666649999996253,"midi":38,"time":344.4996555,"velocity":0.3858267716535433},{"duration":0.16666650000001937,"midi":38,"time":344.666322,"velocity":0.3858267716535433},{"duration":0.16666650000001937,"midi":38,"time":344.8329885,"velocity":0.3858267716535433},{"duration":0.16666649999996253,"midi":38,"time":344.999655,"velocity":0.3858267716535433},{"duration":0.16666650000001937,"midi":38,"time":345.1663215,"velocity":0.3858267716535433},{"duration":0.16666649999996253,"midi":45,"time":345.332988,"velocity":0.3858267716535433},{"duration":0.16666650000001937,"midi":45,"time":345.49965449999996,"velocity":0.3858267716535433},{"duration":0.16666650000001937,"midi":45,"time":345.666321,"velocity":0.3858267716535433},{"duration":0.16666649999996253,"midi":45,"time":345.8329875,"velocity":0.3858267716535433},{"duration":0.16666650000001937,"midi":45,"time":345.99965399999996,"velocity":0.3858267716535433},{"duration":0.16666650000001937,"midi":45,"time":346.1663205,"velocity":0.3858267716535433},{"duration":0.16666649999996253,"midi":45,"time":346.332987,"velocity":0.3858267716535433},{"duration":0.16666650000001937,"midi":45,"time":346.49965349999997,"velocity":0.3858267716535433},{"duration":0.16666650000001937,"midi":47,"time":346.66632,"velocity":0.3858267716535433},{"duration":0.16666649999996253,"midi":47,"time":346.8329865,"velocity":0.3858267716535433},{"duration":0.16666650000001937,"midi":47,"time":346.99965299999997,"velocity":0.3858267716535433},{"duration":0.16666650000001937,"midi":47,"time":347.1663195,"velocity":0.3858267716535433},{"duration":0.16666649999996253,"midi":47,"time":347.332986,"velocity":0.3858267716535433},{"duration":0.16666650000001937,"midi":47,"time":347.49965249999997,"velocity":0.3858267716535433},{"duration":0.16666650000001937,"midi":47,"time":347.666319,"velocity":0.3858267716535433},{"duration":0.16666649999996253,"midi":47,"time":347.8329855,"velocity":0.3858267716535433},{"duration":0.16666650000001937,"midi":47,"time":347.99965199999997,"velocity":0.3858267716535433},{"duration":0.16666650000001937,"midi":47,"time":348.1663185,"velocity":0.3858267716535433},{"duration":0.16666650000001937,"midi":44,"time":348.666318,"velocity":0.3858267716535433},{"duration":0.16666649999996253,"midi":44,"time":348.8329845,"velocity":0.3858267716535433},{"duration":0.3333329999999819,"midi":56,"time":349.332984,"velocity":0.3858267716535433},{"duration":0.16666650000001937,"midi":44,"time":349.666317,"velocity":0.3858267716535433},{"duration":0.3333329999999819,"midi":56,"time":349.8329835,"velocity":0.3858267716535433},{"duration":0.16666650000001937,"midi":44,"time":350.1663165,"velocity":0.3858267716535433},{"duration":0.3333329999999819,"midi":56,"time":350.332983,"velocity":0.3858267716535433},{"duration":0.16666650000001937,"midi":37,"time":350.666316,"velocity":0.3858267716535433},{"duration":0.3333329999999819,"midi":49,"time":350.8329825,"velocity":0.3858267716535433},{"duration":0.16666650000001937,"midi":37,"time":351.1663155,"velocity":0.3858267716535433},{"duration":0.16666649999996253,"midi":49,"time":351.332982,"velocity":0.3858267716535433},{"duration":0.33333300000003874,"midi":47,"time":351.4996485,"velocity":0.3858267716535433},{"duration":0.16666649999996253,"midi":49,"time":351.8329815,"velocity":0.3858267716535433},{"duration":0.33333300000003874,"midi":56,"time":351.999648,"velocity":0.3858267716535433},{"duration":0.16666649999996253,"midi":44,"time":352.332981,"velocity":0.3858267716535433},{"duration":0.3333329999999819,"midi":56,"time":352.4996475,"velocity":0.3858267716535433},{"duration":0.16666650000001937,"midi":44,"time":352.83298049999996,"velocity":0.3858267716535433},{"duration":0.3333329999999819,"midi":56,"time":352.999647,"velocity":0.3858267716535433},{"duration":0.16666650000001937,"midi":44,"time":353.33297999999996,"velocity":0.3858267716535433},{"duration":0.3333329999999819,"midi":56,"time":353.4996465,"velocity":0.3858267716535433},{"duration":0.16666650000001937,"midi":44,"time":353.83297949999996,"velocity":0.3858267716535433},{"duration":0.16666650000001937,"midi":56,"time":353.999646,"velocity":0.3858267716535433},{"duration":0.3333329999999819,"midi":54,"time":354.1663125,"velocity":0.3858267716535433},{"duration":0.16666650000001937,"midi":56,"time":354.4996455,"velocity":0.3858267716535433},{"duration":0.3333329999999819,"midi":51,"time":354.666312,"velocity":0.3858267716535433},{"duration":0.16666650000001937,"midi":39,"time":354.999645,"velocity":0.3858267716535433},{"duration":0.3333329999999819,"midi":51,"time":355.1663115,"velocity":0.3858267716535433},{"duration":0.16666650000001937,"midi":39,"time":355.4996445,"velocity":0.3858267716535433},{"duration":0.3333329999999819,"midi":51,"time":355.666311,"velocity":0.3858267716535433},{"duration":0.16666650000001937,"midi":39,"time":355.999644,"velocity":0.3858267716535433},{"duration":0.3333329999999819,"midi":51,"time":356.1663105,"velocity":0.3858267716535433},{"duration":0.16666650000001937,"midi":39,"time":356.4996435,"velocity":0.3858267716535433},{"duration":0.16666649999996253,"midi":51,"time":356.66631,"velocity":0.3858267716535433},{"duration":0.33333300000003874,"midi":49,"time":356.8329765,"velocity":0.3858267716535433},{"duration":0.16666649999996253,"midi":51,"time":357.1663095,"velocity":0.3858267716535433},{"duration":0.33333300000003874,"midi":50,"time":357.332976,"velocity":0.3858267716535433},{"duration":0.16666649999996253,"midi":38,"time":357.666309,"velocity":0.3858267716535433},{"duration":0.33333300000003874,"midi":50,"time":357.8329755,"velocity":0.3858267716535433},{"duration":0.16666649999996253,"midi":38,"time":358.1663085,"velocity":0.3858267716535433},{"duration":0.33333300000003874,"midi":50,"time":358.332975,"velocity":0.3858267716535433},{"duration":0.16666649999996253,"midi":38,"time":358.666308,"velocity":0.3858267716535433},{"duration":0.33333300000003874,"midi":50,"time":358.8329745,"velocity":0.3858267716535433},{"duration":0.16666649999996253,"midi":38,"time":359.1663075,"velocity":0.3858267716535433},{"duration":0.33333300000003874,"midi":50,"time":359.332974,"velocity":0.3858267716535433},{"duration":0.3333329999999819,"midi":50,"time":359.666307,"velocity":0.3858267716535433},{"duration":0.3333329999999819,"midi":56,"time":359.99964,"velocity":0.3858267716535433},{"duration":0.16666650000001937,"midi":44,"time":360.332973,"velocity":0.3858267716535433},{"duration":0.3333329999999819,"midi":56,"time":360.4996395,"velocity":0.3858267716535433},{"duration":0.16666650000001937,"midi":44,"time":360.8329725,"velocity":0.3858267716535433},{"duration":0.3333329999999819,"midi":56,"time":360.999639,"velocity":0.3858267716535433},{"duration":0.16666650000001937,"midi":37,"time":361.332972,"velocity":0.3858267716535433},{"duration":0.3333329999999819,"midi":49,"time":361.4996385,"velocity":0.3858267716535433},{"duration":0.16666650000001937,"midi":37,"time":361.8329715,"velocity":0.3858267716535433},{"duration":0.16666649999996253,"midi":49,"time":361.999638,"velocity":0.3858267716535433},{"duration":0.33333300000003874,"midi":47,"time":362.16630449999997,"velocity":0.3858267716535433},{"duration":0.16666649999996253,"midi":49,"time":362.4996375,"velocity":0.3858267716535433},{"duration":0.33333300000003874,"midi":50,"time":362.66630399999997,"velocity":0.3858267716535433},{"duration":0.16666649999996253,"midi":38,"time":362.999637,"velocity":0.3858267716535433},{"duration":0.33333300000003874,"midi":50,"time":363.16630349999997,"velocity":0.3858267716535433},{"duration":0.16666649999996253,"midi":38,"time":363.4996365,"velocity":0.3858267716535433},{"duration":0.33333300000003874,"midi":50,"time":363.66630299999997,"velocity":0.3858267716535433},{"duration":0.16666649999996253,"midi":38,"time":363.999636,"velocity":0.3858267716535433},{"duration":0.33333300000003874,"midi":50,"time":364.1663025,"velocity":0.3858267716535433},{"duration":0.16666649999996253,"midi":38,"time":364.4996355,"velocity":0.3858267716535433},{"duration":0.33333300000003874,"midi":50,"time":364.666302,"velocity":0.3858267716535433},{"duration":0.3333329999999819,"midi":50,"time":364.999635,"velocity":0.3858267716535433},{"duration":0.3333329999999819,"midi":51,"time":365.332968,"velocity":0.3858267716535433},{"duration":0.16666650000001937,"midi":39,"time":365.666301,"velocity":0.3858267716535433},{"duration":0.3333329999999819,"midi":51,"time":365.8329675,"velocity":0.3858267716535433},{"duration":0.16666650000001937,"midi":39,"time":366.1663005,"velocity":0.3858267716535433},{"duration":0.3333329999999819,"midi":51,"time":366.332967,"velocity":0.3858267716535433},{"duration":0.16666650000001937,"midi":39,"time":366.6663,"velocity":0.3858267716535433},{"duration":0.3333329999999819,"midi":51,"time":366.8329665,"velocity":0.3858267716535433},{"duration":0.16666650000001937,"midi":39,"time":367.1662995,"velocity":0.3858267716535433},{"duration":0.3333329999999819,"midi":51,"time":367.332966,"velocity":0.3858267716535433},{"duration":0.3333329999999819,"midi":51,"time":367.666299,"velocity":0.3858267716535433},{"duration":0.33333300000003874,"midi":44,"time":367.99963199999996,"velocity":0.3858267716535433},{"duration":0.16666649999996253,"midi":32,"time":368.332965,"velocity":0.3858267716535433},{"duration":0.33333300000003874,"midi":44,"time":368.49963149999996,"velocity":0.3858267716535433},{"duration":0.16666649999996253,"midi":32,"time":368.8329645,"velocity":0.3858267716535433},{"duration":0.33333300000003874,"midi":44,"time":368.99963099999997,"velocity":0.3858267716535433},{"duration":0.16666649999996253,"midi":32,"time":369.332964,"velocity":0.3858267716535433},{"duration":0.33333300000003874,"midi":44,"time":369.49963049999997,"velocity":0.3858267716535433},{"duration":0.16666649999996253,"midi":32,"time":369.8329635,"velocity":0.3858267716535433},{"duration":0.33333300000003874,"midi":44,"time":369.99962999999997,"velocity":0.3858267716535433},{"duration":0.3333329999999819,"midi":44,"time":370.332963,"velocity":0.3858267716535433}]},{"instrument":{"family":"chromatic percussion","number":11,"name":"vibraphone"},"notes":[{"duration":0.16666649999999805,"midi":73,"time":34.666632,"velocity":0.7165354330708661},{"duration":0.16666649999999805,"midi":75,"time":34.8332985,"velocity":0.7165354330708661},{"duration":0.16666650000000516,"midi":73,"time":34.999964999999996,"velocity":0.7165354330708661},{"duration":0.3333329999999961,"midi":68,"time":35.1666315,"velocity":0.7165354330708661},{"duration":0.16666650000000516,"midi":61,"time":35.4999645,"velocity":0.7165354330708661},{"duration":0.16666649999999805,"midi":64,"time":35.666631,"velocity":0.7165354330708661},{"duration":0.16666649999999805,"midi":68,"time":35.8332975,"velocity":0.7165354330708661},{"duration":0.16666649999999805,"midi":71,"time":35.999964,"velocity":0.7165354330708661},{"duration":0.16666650000000516,"midi":69,"time":36.1666305,"velocity":0.7165354330708661},{"duration":0.16666649999999805,"midi":68,"time":36.333297,"velocity":0.7165354330708661},{"duration":0.3333329999999961,"midi":69,"time":36.4999635,"velocity":0.7165354330708661},{"duration":0.16666650000000516,"midi":68,"time":36.833296499999996,"velocity":0.7165354330708661},{"duration":0.16666649999999805,"midi":66,"time":36.999963,"velocity":0.7165354330708661},{"duration":0.16666649999999805,"midi":68,"time":37.1666295,"velocity":0.7165354330708661},{"duration":1.3333319999999986,"midi":63,"time":37.333296,"velocity":0.7165354330708661},{"duration":0.16666649999999805,"midi":73,"time":39.99996,"velocity":0.7165354330708661},{"duration":0.16666649999999805,"midi":75,"time":40.1666265,"velocity":0.7165354330708661},{"duration":0.16666649999999805,"midi":73,"time":40.333293,"velocity":0.7165354330708661},{"duration":0.3333330000000032,"midi":68,"time":40.499959499999996,"velocity":0.7165354330708661},{"duration":0.16666649999999805,"midi":61,"time":40.8332925,"velocity":0.7165354330708661},{"duration":0.16666650000000516,"midi":64,"time":40.999959,"velocity":0.7165354330708661},{"duration":0.16666649999999805,"midi":68,"time":41.1666255,"velocity":0.7165354330708661},{"duration":0.16666649999999805,"midi":71,"time":41.333292,"velocity":0.7165354330708661},{"duration":0.16666649999999805,"midi":73,"time":41.4999585,"velocity":0.7165354330708661},{"duration":0.16666650000000516,"midi":75,"time":41.666624999999996,"velocity":0.7165354330708661},{"duration":0.3333329999999961,"midi":73,"time":41.8332915,"velocity":0.7165354330708661},{"duration":0.16666649999999805,"midi":75,"time":42.1666245,"velocity":0.7165354330708661},{"duration":0.16666650000000516,"midi":76,"time":42.333290999999996,"velocity":0.7165354330708661},{"duration":0.16666649999999805,"midi":78,"time":42.4999575,"velocity":0.7165354330708661},{"duration":1.3333319999999986,"midi":75,"time":42.666624,"velocity":0.7165354330708661},{"duration":0.3333330000000032,"midi":68,"time":49.99995,"velocity":0.7165354330708661},{"duration":0.3333329999999961,"midi":71,"time":50.333283,"velocity":0.7165354330708661},{"duration":0.6666659999999993,"midi":73,"time":50.666616,"velocity":0.7165354330708661},{"duration":0.16666649999999805,"midi":73,"time":51.333282,"velocity":0.7165354330708661},{"duration":0.16666650000000516,"midi":68,"time":51.499948499999995,"velocity":0.7165354330708661},{"duration":0.16666649999999805,"midi":73,"time":51.666615,"velocity":0.7165354330708661},{"duration":0.16666649999999805,"midi":80,"time":51.8332815,"velocity":0.7165354330708661},{"duration":0.9999990000000025,"midi":80,"time":51.999947999999996,"velocity":0.7165354330708661},{"duration":0.16666649999999805,"midi":80,"time":52.999947,"velocity":0.7165354330708661},{"duration":0.16666650000000516,"midi":78,"time":53.1666135,"velocity":0.7165354330708661},{"duration":0.3333329999999961,"midi":77,"time":53.33328,"velocity":0.7165354330708661},{"duration":0.3333330000000032,"midi":73,"time":53.666613,"velocity":0.7165354330708661},{"duration":0.3333329999999961,"midi":70,"time":53.999946,"velocity":0.7165354330708661},{"duration":0.3333330000000032,"midi":66,"time":54.333279,"velocity":0.7165354330708661},{"duration":0.6666659999999993,"midi":69,"time":54.666612,"velocity":0.7165354330708661},{"duration":0.6666659999999993,"midi":68,"time":55.333278,"velocity":0.7165354330708661},{"duration":0.9999990000000025,"midi":73,"time":55.999944,"velocity":0.7165354330708661},{"duration":0.3333329999999961,"midi":76,"time":56.999943,"velocity":0.7165354330708661},{"duration":0.9999990000000025,"midi":75,"time":57.333276,"velocity":0.7165354330708661},{"duration":0.3333329999999961,"midi":80,"time":58.333275,"velocity":0.7165354330708661},{"duration":0.9999990000000025,"midi":80,"time":58.666608,"velocity":0.7165354330708661},{"duration":0.16666649999999805,"midi":78,"time":59.666607,"velocity":0.7165354330708661},{"duration":0.16666649999999805,"midi":76,"time":59.8332735,"velocity":0.7165354330708661},{"duration":0.3333330000000032,"midi":75,"time":59.999939999999995,"velocity":0.7165354330708661},{"duration":0.3333330000000032,"midi":76,"time":60.333273,"velocity":0.7165354330708661},{"duration":0.3333329999999961,"midi":71,"time":60.666606,"velocity":0.7165354330708661},{"duration":0.3333330000000032,"midi":68,"time":60.999939,"velocity":0.7165354330708661},{"duration":0.6666659999999993,"midi":69,"time":61.333272,"velocity":0.7165354330708661},{"duration":0.3333329999999961,"midi":73,"time":61.999938,"velocity":0.7165354330708661},{"duration":0.3333330000000032,"midi":76,"time":62.333270999999996,"velocity":0.7165354330708661},{"duration":0.6666659999999993,"midi":76,"time":62.666604,"velocity":0.7165354330708661},{"duration":0.3333329999999961,"midi":75,"time":63.33327,"velocity":0.7165354330708661},{"duration":0.3333330000000032,"midi":76,"time":63.666602999999995,"velocity":0.7165354330708661},{"duration":0.49999949999999416,"midi":83,"time":63.999936,"velocity":0.7165354330708661},{"duration":0.49999950000000126,"midi":81,"time":64.49993549999999,"velocity":0.7165354330708661},{"duration":0.3333330000000103,"midi":80,"time":64.999935,"velocity":0.7165354330708661},{"duration":1.3333319999999986,"midi":78,"time":65.333268,"velocity":0.7165354330708661},{"duration":0.49999950000000126,"midi":76,"time":66.6666,"velocity":0.7165354330708661},{"duration":0.49999950000000126,"midi":75,"time":67.1665995,"velocity":0.7165354330708661},{"duration":0.3333329999999961,"midi":76,"time":67.666599,"velocity":0.7165354330708661},{"duration":0.9999990000000025,"midi":80,"time":67.999932,"velocity":0.7165354330708661},{"duration":0.3333329999999961,"midi":75,"time":68.999931,"velocity":0.7165354330708661},{"duration":1.3333319999999986,"midi":73,"time":69.333264,"velocity":0.7165354330708661},{"duration":0.3333329999999961,"midi":73,"time":70.666596,"velocity":0.7165354330708661},{"duration":0.3333330000000103,"midi":76,"time":70.999929,"velocity":0.7165354330708661},{"duration":0.3333329999999961,"midi":78,"time":71.333262,"velocity":0.7165354330708661},{"duration":0.3333329999999961,"midi":80,"time":71.666595,"velocity":0.7165354330708661},{"duration":0.49999950000000126,"midi":81,"time":71.999928,"velocity":0.7165354330708661},{"duration":0.49999950000000126,"midi":80,"time":72.4999275,"velocity":0.7165354330708661},{"duration":0.3333329999999961,"midi":78,"time":72.999927,"velocity":0.7165354330708661},{"duration":0.3333329999999961,"midi":76,"time":73.33326,"velocity":0.7165354330708661},{"duration":0.3333330000000103,"midi":73,"time":73.66659299999999,"velocity":0.7165354330708661},{"duration":0.3333329999999961,"midi":76,"time":73.999926,"velocity":0.7165354330708661},{"duration":0.3333329999999961,"midi":80,"time":74.333259,"velocity":0.7165354330708661},{"duration":1.3333319999999986,"midi":78,"time":74.666592,"velocity":0.7165354330708661},{"duration":0.6666660000000064,"midi":75,"time":75.999924,"velocity":0.7165354330708661},{"duration":0.6666659999999922,"midi":71,"time":76.66659,"velocity":0.7165354330708661},{"duration":0.08333325000000968,"midi":80,"time":77.33325599999999,"velocity":0.7165354330708661},{"duration":0.08333324999999547,"midi":76,"time":77.41658925,"velocity":0.7165354330708661},{"duration":0.08333324999999547,"midi":73,"time":77.4999225,"velocity":0.7165354330708661},{"duration":0.08333325000000968,"midi":68,"time":77.58325574999999,"velocity":0.7165354330708661},{"duration":0.08333324999999547,"midi":64,"time":77.666589,"velocity":0.7165354330708661},{"duration":0.08333324999999547,"midi":61,"time":77.74992225,"velocity":0.7165354330708661},{"duration":0.08333325000000968,"midi":56,"time":77.83325549999999,"velocity":0.7165354330708661},{"duration":0.08333324999999547,"midi":52,"time":77.91658875,"velocity":0.7165354330708661},{"duration":0.08333324999999547,"midi":76,"time":77.999922,"velocity":0.7165354330708661},{"duration":0.08333325000000968,"midi":73,"time":78.08325525,"velocity":0.7165354330708661},{"duration":0.08333324999999547,"midi":68,"time":78.1665885,"velocity":0.7165354330708661},{"duration":0.08333324999999547,"midi":64,"time":78.24992175,"velocity":0.7165354330708661},{"duration":0.08333325000000968,"midi":88,"time":78.333255,"velocity":0.7165354330708661},{"duration":0.08333324999999547,"midi":85,"time":78.41658825,"velocity":0.7165354330708661},{"duration":0.08333324999999547,"midi":80,"time":78.4999215,"velocity":0.7165354330708661},{"duration":0.08333325000000968,"midi":76,"time":78.58325475,"velocity":0.7165354330708661},{"duration":0.08333324999999547,"midi":76,"time":78.666588,"velocity":0.7165354330708661},{"duration":0.08333324999999547,"midi":73,"time":78.74992125,"velocity":0.7165354330708661},{"duration":0.08333325000000968,"midi":88,"time":78.91658774999999,"velocity":0.7165354330708661},{"duration":0.08333324999999547,"midi":85,"time":78.999921,"velocity":0.7165354330708661},{"duration":0.08333324999999547,"midi":80,"time":79.08325425,"velocity":0.7165354330708661},{"duration":0.08333325000000968,"midi":76,"time":79.16658749999999,"velocity":0.7165354330708661},{"duration":0.08333324999999547,"midi":73,"time":79.24992075,"velocity":0.7165354330708661},{"duration":0.08333324999999547,"midi":85,"time":79.333254,"velocity":0.7165354330708661},{"duration":0.08333325000000968,"midi":80,"time":79.41658724999999,"velocity":0.7165354330708661},{"duration":0.08333324999999547,"midi":76,"time":79.4999205,"velocity":0.7165354330708661},{"duration":0.08333324999999547,"midi":73,"time":79.58325375,"velocity":0.7165354330708661},{"duration":0.08333325000000968,"midi":80,"time":79.66658699999999,"velocity":0.7165354330708661},{"duration":0.08333324999999547,"midi":76,"time":79.74992025,"velocity":0.7165354330708661},{"duration":0.08333324999999547,"midi":73,"time":79.8332535,"velocity":0.7165354330708661},{"duration":0.08333325000000968,"midi":68,"time":79.91658675,"velocity":0.7165354330708661},{"duration":0.08333324999999547,"midi":81,"time":79.99992,"velocity":0.7165354330708661},{"duration":0.08333324999999547,"midi":78,"time":80.08325325,"velocity":0.7165354330708661},{"duration":0.08333325000000968,"midi":74,"time":80.1665865,"velocity":0.7165354330708661},{"duration":0.08333324999999547,"midi":69,"time":80.24991975,"velocity":0.7165354330708661},{"duration":0.08333324999999547,"midi":66,"time":80.333253,"velocity":0.7165354330708661},{"duration":0.08333325000000968,"midi":62,"time":80.41658625,"velocity":0.7165354330708661},{"duration":0.08333324999999547,"midi":57,"time":80.4999195,"velocity":0.7165354330708661},{"duration":0.08333324999999547,"midi":54,"time":80.58325275,"velocity":0.7165354330708661},{"duration":0.08333324999999547,"midi":78,"time":80.666586,"velocity":0.7165354330708661},{"duration":0.08333325000000968,"midi":74,"time":80.74991924999999,"velocity":0.7165354330708661},{"duration":0.08333324999999547,"midi":69,"time":80.8332525,"velocity":0.7165354330708661},{"duration":0.08333324999999547,"midi":66,"time":80.91658575,"velocity":0.7165354330708661},{"duration":0.08333324999999547,"midi":86,"time":81.08325225,"velocity":0.7165354330708661},{"duration":0.08333324999999547,"midi":81,"time":81.1665855,"velocity":0.7165354330708661},{"duration":0.08333325000000968,"midi":78,"time":81.24991874999999,"velocity":0.7165354330708661},{"duration":0.08333324999999547,"midi":78,"time":81.333252,"velocity":0.7165354330708661},{"duration":0.08333324999999547,"midi":74,"time":81.41658525,"velocity":0.7165354330708661},{"duration":0.08333324999999547,"midi":86,"time":81.666585,"velocity":0.7165354330708661},{"duration":0.08333325000000968,"midi":81,"time":81.74991825,"velocity":0.7165354330708661},{"duration":0.08333324999999547,"midi":78,"time":81.8332515,"velocity":0.7165354330708661},{"duration":0.08333324999999547,"midi":74,"time":81.91658475,"velocity":0.7165354330708661},{"duration":0.08333325000000968,"midi":86,"time":81.999918,"velocity":0.7165354330708661},{"duration":0.08333324999999547,"midi":81,"time":82.08325125,"velocity":0.7165354330708661},{"duration":0.08333324999999547,"midi":78,"time":82.1665845,"velocity":0.7165354330708661},{"duration":0.08333325000000968,"midi":74,"time":82.24991775,"velocity":0.7165354330708661},{"duration":0.08333324999999547,"midi":81,"time":82.333251,"velocity":0.7165354330708661},{"duration":0.08333324999999547,"midi":78,"time":82.41658425,"velocity":0.7165354330708661},{"duration":0.08333324999999547,"midi":74,"time":82.4999175,"velocity":0.7165354330708661},{"duration":0.08333325000000968,"midi":69,"time":82.58325074999999,"velocity":0.7165354330708661},{"duration":0.08333324999999547,"midi":80,"time":82.666584,"velocity":0.7165354330708661},{"duration":0.08333324999999547,"midi":76,"time":82.74991725,"velocity":0.7165354330708661},{"duration":0.08333325000000968,"midi":73,"time":82.83325049999999,"velocity":0.7165354330708661},{"duration":0.08333324999999547,"midi":68,"time":82.91658375,"velocity":0.7165354330708661},{"duration":0.08333324999999547,"midi":64,"time":82.999917,"velocity":0.7165354330708661},{"duration":0.08333325000000968,"midi":61,"time":83.08325024999999,"velocity":0.7165354330708661},{"duration":0.08333324999999547,"midi":56,"time":83.1665835,"velocity":0.7165354330708661},{"duration":0.08333324999999547,"midi":52,"time":83.24991675,"velocity":0.7165354330708661},{"duration":0.08333325000000968,"midi":76,"time":83.33324999999999,"velocity":0.7165354330708661},{"duration":0.08333324999999547,"midi":73,"time":83.41658325,"velocity":0.7165354330708661},{"duration":0.08333324999999547,"midi":68,"time":83.4999165,"velocity":0.7165354330708661},{"duration":0.08333325000000968,"midi":64,"time":83.58324975,"velocity":0.7165354330708661},{"duration":0.08333324999999547,"midi":88,"time":83.666583,"velocity":0.7165354330708661},{"duration":0.08333324999999547,"midi":85,"time":83.74991625,"velocity":0.7165354330708661},{"duration":0.08333325000000968,"midi":80,"time":83.8332495,"velocity":0.7165354330708661},{"duration":0.08333324999999547,"midi":76,"time":83.91658275,"velocity":0.7165354330708661},{"duration":0.08333324999999547,"midi":76,"time":83.999916,"velocity":0.7165354330708661},{"duration":0.08333325000000968,"midi":73,"time":84.08324925,"velocity":0.7165354330708661},{"duration":0.08333324999999547,"midi":88,"time":84.24991575,"velocity":0.7165354330708661},{"duration":0.08333324999999547,"midi":85,"time":84.333249,"velocity":0.7165354330708661},{"duration":0.08333325000000968,"midi":80,"time":84.41658224999999,"velocity":0.7165354330708661},{"duration":0.08333324999999547,"midi":76,"time":84.4999155,"velocity":0.7165354330708661},{"duration":0.08333324999999547,"midi":73,"time":84.58324875,"velocity":0.7165354330708661},{"duration":0.08333325000000968,"midi":85,"time":84.66658199999999,"velocity":0.7165354330708661},{"duration":0.08333324999999547,"midi":80,"time":84.74991525,"velocity":0.7165354330708661},{"duration":0.08333324999999547,"midi":76,"time":84.8332485,"velocity":0.7165354330708661},{"duration":0.08333325000000968,"midi":73,"time":84.91658174999999,"velocity":0.7165354330708661},{"duration":0.08333324999999547,"midi":80,"time":84.999915,"velocity":0.7165354330708661},{"duration":0.08333324999999547,"midi":76,"time":85.08324825,"velocity":0.7165354330708661},{"duration":0.08333325000000968,"midi":73,"time":85.16658149999999,"velocity":0.7165354330708661},{"duration":0.08333324999999547,"midi":68,"time":85.24991475,"velocity":0.7165354330708661},{"duration":0.08333324999999547,"midi":81,"time":85.333248,"velocity":0.7165354330708661},{"duration":0.08333325000000968,"midi":78,"time":85.41658125,"velocity":0.7165354330708661},{"duration":0.08333324999999547,"midi":74,"time":85.4999145,"velocity":0.7165354330708661},{"duration":0.08333324999999547,"midi":69,"time":85.58324775,"velocity":0.7165354330708661},{"duration":0.08333325000000968,"midi":66,"time":85.666581,"velocity":0.7165354330708661},{"duration":0.08333324999999547,"midi":62,"time":85.74991425,"velocity":0.7165354330708661},{"duration":0.08333324999999547,"midi":57,"time":85.8332475,"velocity":0.7165354330708661},{"duration":0.08333325000000968,"midi":54,"time":85.91658075,"velocity":0.7165354330708661},{"duration":0.08333324999999547,"midi":78,"time":85.999914,"velocity":0.7165354330708661},{"duration":0.08333324999999547,"midi":74,"time":86.08324725,"velocity":0.7165354330708661},{"duration":0.08333325000000968,"midi":69,"time":86.1665805,"velocity":0.7165354330708661},{"duration":0.08333324999999547,"midi":66,"time":86.24991375,"velocity":0.7165354330708661},{"duration":0.08333324999999547,"midi":86,"time":86.41658025,"velocity":0.7165354330708661},{"duration":0.08333325000000968,"midi":81,"time":86.49991349999999,"velocity":0.7165354330708661},{"duration":0.08333324999999547,"midi":78,"time":86.58324675,"velocity":0.7165354330708661},{"duration":0.08333324999999547,"midi":78,"time":86.66658,"velocity":0.7165354330708661},{"duration":0.08333325000000968,"midi":74,"time":86.74991324999999,"velocity":0.7165354330708661},{"duration":0.08333325000000968,"midi":86,"time":86.99991299999999,"velocity":0.7165354330708661},{"duration":0.08333324999999547,"midi":81,"time":87.08324625,"velocity":0.7165354330708661},{"duration":0.08333324999999547,"midi":78,"time":87.1665795,"velocity":0.7165354330708661},{"duration":0.08333325000000968,"midi":74,"time":87.24991275,"velocity":0.7165354330708661},{"duration":0.08333324999999547,"midi":86,"time":87.333246,"velocity":0.7165354330708661},{"duration":0.08333324999999547,"midi":81,"time":87.41657925,"velocity":0.7165354330708661},{"duration":0.08333325000000968,"midi":78,"time":87.4999125,"velocity":0.7165354330708661},{"duration":0.08333324999999547,"midi":74,"time":87.58324575,"velocity":0.7165354330708661},{"duration":0.08333324999999547,"midi":81,"time":87.666579,"velocity":0.7165354330708661},{"duration":0.08333325000000968,"midi":78,"time":87.74991225,"velocity":0.7165354330708661},{"duration":0.08333324999999547,"midi":74,"time":87.8332455,"velocity":0.7165354330708661},{"duration":0.08333324999999547,"midi":69,"time":87.91657875,"velocity":0.7165354330708661},{"duration":0.16666650000000516,"midi":73,"time":87.999912,"velocity":0.7165354330708661},{"duration":0.16666649999999095,"midi":75,"time":88.1665785,"velocity":0.7165354330708661},{"duration":0.16666650000000516,"midi":73,"time":88.33324499999999,"velocity":0.7165354330708661},{"duration":0.3333329999999961,"midi":68,"time":88.4999115,"velocity":0.7165354330708661},{"duration":0.16666650000000516,"midi":61,"time":88.83324449999999,"velocity":0.7165354330708661},{"duration":0.16666650000000516,"midi":64,"time":88.999911,"velocity":0.7165354330708661},{"duration":0.16666649999999095,"midi":68,"time":89.1665775,"velocity":0.7165354330708661},{"duration":0.16666650000000516,"midi":71,"time":89.333244,"velocity":0.7165354330708661},{"duration":0.16666650000000516,"midi":69,"time":89.4999105,"velocity":0.7165354330708661},{"duration":0.16666649999999095,"midi":68,"time":89.666577,"velocity":0.7165354330708661},{"duration":0.3333329999999961,"midi":69,"time":89.8332435,"velocity":0.7165354330708661},{"duration":0.16666650000000516,"midi":68,"time":90.16657649999999,"velocity":0.7165354330708661},{"duration":0.16666650000000516,"midi":66,"time":90.333243,"velocity":0.7165354330708661},{"duration":0.16666649999999095,"midi":68,"time":90.4999095,"velocity":0.7165354330708661},{"duration":1.3333319999999986,"midi":63,"time":90.66657599999999,"velocity":0.7165354330708661},{"duration":0.16666649999999095,"midi":73,"time":93.33324,"velocity":0.7165354330708661},{"duration":0.16666650000000516,"midi":75,"time":93.4999065,"velocity":0.7165354330708661},{"duration":0.16666649999999095,"midi":73,"time":93.666573,"velocity":0.7165354330708661},{"duration":0.3333330000000103,"midi":68,"time":93.83323949999999,"velocity":0.7165354330708661},{"duration":0.16666649999999095,"midi":61,"time":94.1665725,"velocity":0.7165354330708661},{"duration":0.16666650000000516,"midi":64,"time":94.33323899999999,"velocity":0.7165354330708661},{"duration":0.16666650000000516,"midi":68,"time":94.4999055,"velocity":0.7165354330708661},{"duration":0.16666649999999095,"midi":71,"time":94.666572,"velocity":0.7165354330708661},{"duration":0.16666650000000516,"midi":73,"time":94.8332385,"velocity":0.7165354330708661},{"duration":0.16666650000000516,"midi":75,"time":94.999905,"velocity":0.7165354330708661},{"duration":0.3333329999999961,"midi":73,"time":95.1665715,"velocity":0.7165354330708661},{"duration":0.16666649999999095,"midi":75,"time":95.4999045,"velocity":0.7165354330708661},{"duration":0.16666650000000516,"midi":76,"time":95.66657099999999,"velocity":0.7165354330708661},{"duration":0.16666650000000516,"midi":78,"time":95.8332375,"velocity":0.7165354330708661},{"duration":1.3333319999999986,"midi":75,"time":95.999904,"velocity":0.7165354330708661},{"duration":0.3333329999999961,"midi":68,"time":103.33323,"velocity":0.7165354330708661},{"duration":0.3333329999999961,"midi":71,"time":103.666563,"velocity":0.7165354330708661},{"duration":0.6666660000000064,"midi":73,"time":103.99989599999999,"velocity":0.7165354330708661},{"duration":0.16666649999999095,"midi":73,"time":104.666562,"velocity":0.7165354330708661},{"duration":0.16666650000000516,"midi":68,"time":104.83322849999999,"velocity":0.7165354330708661},{"duration":0.16666650000000516,"midi":73,"time":104.999895,"velocity":0.7165354330708661},{"duration":0.16666649999999095,"midi":80,"time":105.1665615,"velocity":0.7165354330708661},{"duration":0.9999990000000025,"midi":80,"time":105.33322799999999,"velocity":0.7165354330708661},{"duration":0.16666650000000516,"midi":80,"time":106.333227,"velocity":0.7165354330708661},{"duration":0.16666650000000516,"midi":78,"time":106.4998935,"velocity":0.7165354330708661},{"duration":0.3333329999999961,"midi":77,"time":106.66656,"velocity":0.7165354330708661},{"duration":0.3333329999999961,"midi":73,"time":106.999893,"velocity":0.7165354330708661},{"duration":0.3333329999999961,"midi":70,"time":107.333226,"velocity":0.7165354330708661},{"duration":0.16666650000000516,"midi":66,"time":107.66655899999999,"velocity":0.7165354330708661},{"duration":0.08333324999999547,"midi":66,"time":107.874892125,"velocity":0.7165354330708661},{"duration":0.08333325000000968,"midi":67,"time":107.91655875,"velocity":0.7165354330708661},{"duration":0.08333324999999547,"midi":68,"time":107.958225375,"velocity":0.7165354330708661},{"duration":0.6666659999999922,"midi":69,"time":107.999892,"velocity":0.7165354330708661},{"duration":0.6666660000000064,"midi":68,"time":108.666558,"velocity":0.7165354330708661},{"duration":0.16666649999999095,"midi":76,"time":109.333224,"velocity":0.7165354330708661},{"duration":0.9999990000000025,"midi":73,"time":109.333224,"velocity":0.7165354330708661},{"duration":0.16666650000000516,"midi":80,"time":109.49989049999999,"velocity":0.7165354330708661},{"duration":0.16666650000000516,"midi":85,"time":109.666557,"velocity":0.7165354330708661},{"duration":0.16666649999999095,"midi":80,"time":109.8332235,"velocity":0.7165354330708661},{"duration":0.16666650000000516,"midi":76,"time":109.99989,"velocity":0.7165354330708661},{"duration":0.16666650000000516,"midi":80,"time":110.1665565,"velocity":0.7165354330708661},{"duration":0.3333329999999961,"midi":76,"time":110.333223,"velocity":0.7165354330708661},{"duration":0.16666649999999095,"midi":85,"time":110.333223,"velocity":0.7165354330708661},{"duration":0.16666650000000516,"midi":80,"time":110.4998895,"velocity":0.7165354330708661},{"duration":0.16666649999999095,"midi":75,"time":110.666556,"velocity":0.7165354330708661},{"duration":0.16666650000000516,"midi":80,"time":110.83322249999999,"velocity":0.7165354330708661},{"duration":0.16666650000000516,"midi":83,"time":110.999889,"velocity":0.7165354330708661},{"duration":0.16666649999999095,"midi":80,"time":111.1665555,"velocity":0.7165354330708661},{"duration":0.16666650000000516,"midi":75,"time":111.33322199999999,"velocity":0.7165354330708661},{"duration":0.3333330000000103,"midi":75,"time":111.33322199999999,"velocity":0.7165354330708661},{"duration":0.16666650000000516,"midi":80,"time":111.4998885,"velocity":0.7165354330708661},{"duration":0.16666649999999095,"midi":83,"time":111.666555,"velocity":0.7165354330708661},{"duration":0.16666650000000516,"midi":80,"time":111.8332215,"velocity":0.7165354330708661},{"duration":0.16666650000000516,"midi":80,"time":111.8332215,"velocity":0.7165354330708661},{"duration":0.16666650000000516,"midi":76,"time":111.999888,"velocity":0.7165354330708661},{"duration":0.16666649999999095,"midi":80,"time":112.1665545,"velocity":0.7165354330708661},{"duration":0.16666650000000516,"midi":85,"time":112.333221,"velocity":0.7165354330708661},{"duration":0.16666649999999095,"midi":80,"time":112.4998875,"velocity":0.7165354330708661},{"duration":0.16666650000000516,"midi":76,"time":112.66655399999999,"velocity":0.7165354330708661},{"duration":0.16666650000000516,"midi":80,"time":112.8332205,"velocity":0.7165354330708661},{"duration":0.16666650000000516,"midi":80,"time":112.8332205,"velocity":0.7165354330708661},{"duration":0.16666649999999095,"midi":85,"time":112.999887,"velocity":0.7165354330708661},{"duration":0.16666649999999095,"midi":78,"time":112.999887,"velocity":0.7165354330708661},{"duration":0.16666650000000516,"midi":76,"time":113.16655349999999,"velocity":0.7165354330708661},{"duration":0.16666650000000516,"midi":80,"time":113.16655349999999,"velocity":0.7165354330708661},{"duration":0.3333329999999961,"midi":75,"time":113.33322,"velocity":0.7165354330708661},{"duration":0.16666650000000516,"midi":78,"time":113.33322,"velocity":0.7165354330708661},{"duration":0.16666649999999095,"midi":83,"time":113.4998865,"velocity":0.7165354330708661},{"duration":0.16666650000000516,"midi":87,"time":113.666553,"velocity":0.7165354330708661},{"duration":0.3333330000000103,"midi":76,"time":113.666553,"velocity":0.7165354330708661},{"duration":0.16666650000000516,"midi":83,"time":113.8332195,"velocity":0.7165354330708661},{"duration":0.3333329999999961,"midi":71,"time":113.999886,"velocity":0.7165354330708661},{"duration":0.16666649999999095,"midi":78,"time":113.999886,"velocity":0.7165354330708661},{"duration":0.16666650000000516,"midi":83,"time":114.1665525,"velocity":0.7165354330708661},{"duration":0.16666649999999095,"midi":87,"time":114.333219,"velocity":0.7165354330708661},{"duration":0.3333329999999961,"midi":68,"time":114.333219,"velocity":0.7165354330708661},{"duration":0.16666650000000516,"midi":83,"time":114.49988549999999,"velocity":0.7165354330708661},{"duration":0.6666660000000064,"midi":69,"time":114.666552,"velocity":0.7165354330708661},{"duration":0.16666650000000516,"midi":76,"time":114.666552,"velocity":0.7165354330708661},{"duration":0.16666649999999095,"midi":80,"time":114.8332185,"velocity":0.7165354330708661},{"duration":0.16666650000000516,"midi":85,"time":114.99988499999999,"velocity":0.7165354330708661},{"duration":0.16666650000000516,"midi":80,"time":115.1665515,"velocity":0.7165354330708661},{"duration":0.16666649999999095,"midi":76,"time":115.333218,"velocity":0.7165354330708661},{"duration":0.3333329999999961,"midi":73,"time":115.333218,"velocity":0.7165354330708661},{"duration":0.16666650000000516,"midi":80,"time":115.4998845,"velocity":0.7165354330708661},{"duration":0.16666650000000516,"midi":85,"time":115.666551,"velocity":0.7165354330708661},{"duration":0.3333329999999961,"midi":76,"time":115.666551,"velocity":0.7165354330708661},{"duration":0.16666649999999095,"midi":80,"time":115.8332175,"velocity":0.7165354330708661},{"duration":0.6666660000000064,"midi":76,"time":115.999884,"velocity":0.7165354330708661},{"duration":0.16666650000000516,"midi":75,"time":115.999884,"velocity":0.7165354330708661},{"duration":0.16666649999999095,"midi":78,"time":116.1665505,"velocity":0.7165354330708661},{"duration":0.16666650000000516,"midi":83,"time":116.33321699999999,"velocity":0.7165354330708661},{"duration":0.16666650000000516,"midi":78,"time":116.4998835,"velocity":0.7165354330708661},{"duration":0.16666649999999095,"midi":75,"time":116.66655,"velocity":0.7165354330708661},{"duration":0.3333329999999961,"midi":75,"time":116.66655,"velocity":0.7165354330708661},{"duration":0.16666650000000516,"midi":78,"time":116.83321649999999,"velocity":0.7165354330708661},{"duration":0.16666650000000516,"midi":83,"time":116.999883,"velocity":0.7165354330708661},{"duration":0.3333329999999961,"midi":76,"time":116.999883,"velocity":0.7165354330708661},{"duration":0.16666649999999095,"midi":78,"time":117.1665495,"velocity":0.7165354330708661},{"duration":0.49999950000000126,"midi":83,"time":117.333216,"velocity":0.7165354330708661},{"duration":0.16666650000000516,"midi":76,"time":117.333216,"velocity":0.7165354330708661},{"duration":0.16666650000000516,"midi":80,"time":117.4998825,"velocity":0.7165354330708661},{"duration":0.16666649999999095,"midi":85,"time":117.666549,"velocity":0.7165354330708661},{"duration":0.16666650000000516,"midi":80,"time":117.8332155,"velocity":0.7165354330708661},{"duration":0.49999950000000126,"midi":81,"time":117.8332155,"velocity":0.7165354330708661},{"duration":0.16666649999999095,"midi":76,"time":117.999882,"velocity":0.7165354330708661},{"duration":0.16666650000000516,"midi":80,"time":118.16654849999999,"velocity":0.7165354330708661},{"duration":0.16666650000000516,"midi":85,"time":118.333215,"velocity":0.7165354330708661},{"duration":0.16666649999999095,"midi":80,"time":118.4998815,"velocity":0.7165354330708661},{"duration":0.16666649999999095,"midi":80,"time":118.4998815,"velocity":0.7165354330708661},{"duration":0.16666650000000516,"midi":78,"time":118.66654799999999,"velocity":0.7165354330708661},{"duration":0.16666650000000516,"midi":80,"time":118.8332145,"velocity":0.7165354330708661},{"duration":0.16666649999999095,"midi":78,"time":118.999881,"velocity":0.7165354330708661},{"duration":0.16666650000000516,"midi":76,"time":119.1665475,"velocity":0.7165354330708661},{"duration":0.16666650000000516,"midi":75,"time":119.333214,"velocity":0.7165354330708661},{"duration":0.16666649999999095,"midi":72,"time":119.4998805,"velocity":0.7165354330708661},{"duration":0.16666650000000516,"midi":78,"time":119.666547,"velocity":0.7165354330708661},{"duration":0.3333329999999961,"midi":78,"time":119.666547,"velocity":0.7165354330708661},{"duration":0.16666649999999095,"midi":75,"time":119.8332135,"velocity":0.7165354330708661},{"duration":0.16666650000000516,"midi":76,"time":119.99987999999999,"velocity":0.7165354330708661},{"duration":0.49999950000000126,"midi":76,"time":119.99987999999999,"velocity":0.7165354330708661},{"duration":0.16666650000000516,"midi":80,"time":120.1665465,"velocity":0.7165354330708661},{"duration":0.16666649999999095,"midi":85,"time":120.333213,"velocity":0.7165354330708661},{"duration":0.49999950000000126,"midi":75,"time":120.49987949999999,"velocity":0.7165354330708661},{"duration":0.16666650000000516,"midi":80,"time":120.49987949999999,"velocity":0.7165354330708661},{"duration":0.16666650000000516,"midi":76,"time":120.666546,"velocity":0.7165354330708661},{"duration":0.16666649999999095,"midi":80,"time":120.8332125,"velocity":0.7165354330708661},{"duration":0.16666650000000516,"midi":85,"time":120.99987899999999,"velocity":0.7165354330708661},{"duration":0.3333330000000103,"midi":76,"time":120.99987899999999,"velocity":0.7165354330708661},{"duration":0.16666650000000516,"midi":80,"time":121.1665455,"velocity":0.7165354330708661},{"duration":0.16666649999999095,"midi":75,"time":121.333212,"velocity":0.7165354330708661},{"duration":0.16666650000000516,"midi":80,"time":121.4998785,"velocity":0.7165354330708661},{"duration":0.16666649999999095,"midi":83,"time":121.666545,"velocity":0.7165354330708661},{"duration":0.16666650000000516,"midi":80,"time":121.83321149999999,"velocity":0.7165354330708661},{"duration":0.16666650000000516,"midi":75,"time":121.999878,"velocity":0.7165354330708661},{"duration":0.16666649999999095,"midi":80,"time":122.1665445,"velocity":0.7165354330708661},{"duration":0.16666649999999095,"midi":80,"time":122.1665445,"velocity":0.7165354330708661},{"duration":0.16666650000000516,"midi":83,"time":122.33321099999999,"velocity":0.7165354330708661},{"duration":0.3333330000000103,"midi":75,"time":122.33321099999999,"velocity":0.7165354330708661},{"duration":0.16666650000000516,"midi":80,"time":122.4998775,"velocity":0.7165354330708661},{"duration":0.16666649999999095,"midi":73,"time":122.666544,"velocity":0.7165354330708661},{"duration":0.16666650000000516,"midi":78,"time":122.83321049999999,"velocity":0.7165354330708661},{"duration":0.16666650000000516,"midi":82,"time":122.999877,"velocity":0.7165354330708661},{"duration":0.16666649999999095,"midi":78,"time":123.1665435,"velocity":0.7165354330708661},{"duration":0.16666650000000516,"midi":73,"time":123.33321,"velocity":0.7165354330708661},{"duration":0.6666660000000064,"midi":73,"time":123.33321,"velocity":0.7165354330708661},{"duration":0.16666649999999095,"midi":78,"time":123.4998765,"velocity":0.7165354330708661},{"duration":0.16666650000000516,"midi":82,"time":123.66654299999999,"velocity":0.7165354330708661},{"duration":0.16666650000000516,"midi":78,"time":123.8332095,"velocity":0.7165354330708661},{"duration":0.16666649999999095,"midi":73,"time":123.999876,"velocity":0.7165354330708661},{"duration":0.3333329999999961,"midi":73,"time":123.999876,"velocity":0.7165354330708661},{"duration":0.16666650000000516,"midi":78,"time":124.16654249999999,"velocity":0.7165354330708661},{"duration":0.16666650000000516,"midi":82,"time":124.333209,"velocity":0.7165354330708661},{"duration":0.3333329999999961,"midi":76,"time":124.333209,"velocity":0.7165354330708661},{"duration":0.16666649999999095,"midi":78,"time":124.4998755,"velocity":0.7165354330708661},{"duration":0.16666650000000516,"midi":73,"time":124.66654199999999,"velocity":0.7165354330708661},{"duration":0.16666650000000516,"midi":78,"time":124.8332085,"velocity":0.7165354330708661},{"duration":0.16666650000000516,"midi":78,"time":124.8332085,"velocity":0.7165354330708661},{"duration":0.16666649999999095,"midi":82,"time":124.999875,"velocity":0.7165354330708661},{"duration":0.3333329999999961,"midi":80,"time":124.999875,"velocity":0.7165354330708661},{"duration":0.16666650000000516,"midi":78,"time":125.1665415,"velocity":0.7165354330708661},{"duration":0.49999950000000126,"midi":81,"time":125.333208,"velocity":0.7165354330708661},{"duration":0.16666649999999095,"midi":76,"time":125.333208,"velocity":0.7165354330708661},{"duration":0.16666650000000516,"midi":80,"time":125.49987449999999,"velocity":0.7165354330708661},{"duration":0.16666650000000516,"midi":85,"time":125.666541,"velocity":0.7165354330708661},{"duration":0.16666649999999095,"midi":80,"time":125.8332075,"velocity":0.7165354330708661},{"duration":0.16666650000000516,"midi":76,"time":125.99987399999999,"velocity":0.7165354330708661},{"duration":0.16666650000000516,"midi":80,"time":126.1665405,"velocity":0.7165354330708661},{"duration":0.16666650000000516,"midi":80,"time":126.1665405,"velocity":0.7165354330708661},{"duration":0.16666649999999095,"midi":85,"time":126.333207,"velocity":0.7165354330708661},{"duration":0.3333329999999961,"midi":78,"time":126.333207,"velocity":0.7165354330708661},{"duration":0.16666650000000516,"midi":80,"time":126.49987349999999,"velocity":0.7165354330708661},{"duration":0.16666650000000516,"midi":76,"time":126.66654,"velocity":0.7165354330708661},{"duration":0.3333329999999961,"midi":76,"time":126.66654,"velocity":0.7165354330708661},{"duration":0.16666649999999095,"midi":80,"time":126.8332065,"velocity":0.7165354330708661},{"duration":0.16666650000000516,"midi":85,"time":126.999873,"velocity":0.7165354330708661},{"duration":0.3333329999999961,"midi":73,"time":126.999873,"velocity":0.7165354330708661},{"duration":0.16666649999999095,"midi":80,"time":127.1665395,"velocity":0.7165354330708661},{"duration":0.16666650000000516,"midi":76,"time":127.33320599999999,"velocity":0.7165354330708661},{"duration":0.3333330000000103,"midi":76,"time":127.33320599999999,"velocity":0.7165354330708661},{"duration":0.16666650000000516,"midi":80,"time":127.4998725,"velocity":0.7165354330708661},{"duration":0.16666649999999095,"midi":85,"time":127.666539,"velocity":0.7165354330708661},{"duration":0.16666650000000516,"midi":80,"time":127.83320549999999,"velocity":0.7165354330708661},{"duration":0.16666650000000516,"midi":80,"time":127.83320549999999,"velocity":0.7165354330708661},{"duration":0.16666650000000516,"midi":78,"time":127.999872,"velocity":0.7165354330708661},{"duration":0.16666649999999095,"midi":83,"time":128.1665385,"velocity":0.7165354330708661},{"duration":0.16666649999999095,"midi":87,"time":128.333205,"velocity":0.7165354330708661},{"duration":0.16666650000001937,"midi":83,"time":128.49987149999998,"velocity":0.7165354330708661},{"duration":0.16666649999999095,"midi":78,"time":128.666538,"velocity":0.7165354330708661},{"duration":0.6666659999999922,"midi":78,"time":128.666538,"velocity":0.7165354330708661},{"duration":0.16666649999999095,"midi":83,"time":128.8332045,"velocity":0.7165354330708661},{"duration":0.16666650000001937,"midi":87,"time":128.99987099999998,"velocity":0.7165354330708661},{"duration":0.16666649999999095,"midi":83,"time":129.1665375,"velocity":0.7165354330708661},{"duration":0.16666649999999095,"midi":75,"time":129.333204,"velocity":0.7165354330708661},{"duration":0.49999950000000126,"midi":75,"time":129.4998705,"velocity":0.7165354330708661},{"duration":0.16666650000001937,"midi":71,"time":129.99987,"velocity":0.7165354330708661},{"duration":0.49999950000000126,"midi":71,"time":130.1665365,"velocity":0.7165354330708661},{"duration":0.08333324999998126,"midi":61,"time":130.666536,"velocity":0.7165354330708661},{"duration":0.08333325000000968,"midi":64,"time":130.74986925,"velocity":0.7165354330708661},{"duration":0.08333325000000968,"midi":68,"time":130.8332025,"velocity":0.7165354330708661},{"duration":0.08333324999998126,"midi":73,"time":130.91653575,"velocity":0.7165354330708661},{"duration":0.08333325000000968,"midi":80,"time":130.999869,"velocity":0.7165354330708661},{"duration":0.08333325000000968,"midi":85,"time":131.08320225,"velocity":0.7165354330708661},{"duration":0.08333324999998126,"midi":88,"time":131.1665355,"velocity":0.7165354330708661},{"duration":0.08333325000000968,"midi":85,"time":131.333202,"velocity":0.7165354330708661},{"duration":0.08333325000000968,"midi":88,"time":131.4998685,"velocity":0.7165354330708661},{"duration":0.08333325000000968,"midi":85,"time":131.58320175,"velocity":0.7165354330708661},{"duration":0.08333324999998126,"midi":76,"time":131.666535,"velocity":0.7165354330708661},{"duration":0.08333325000000968,"midi":73,"time":131.74986825,"velocity":0.7165354330708661},{"duration":0.08333324999998126,"midi":68,"time":131.8332015,"velocity":0.7165354330708661},{"duration":0.08333325000000968,"midi":64,"time":131.91653474999998,"velocity":0.7165354330708661},{"duration":0.08333325000000968,"midi":61,"time":131.999868,"velocity":0.7165354330708661},{"duration":0.08333324999998126,"midi":64,"time":132.08320125,"velocity":0.7165354330708661},{"duration":0.08333325000000968,"midi":68,"time":132.16653449999998,"velocity":0.7165354330708661},{"duration":0.08333325000000968,"midi":73,"time":132.24986775,"velocity":0.7165354330708661},{"duration":0.6666659999999922,"midi":73,"time":132.24986775,"velocity":0.7165354330708661},{"duration":0.08333324999998126,"midi":80,"time":132.333201,"velocity":0.7165354330708661},{"duration":0.08333325000000968,"midi":85,"time":132.41653424999998,"velocity":0.7165354330708661},{"duration":0.3333330000000103,"midi":85,"time":132.41653424999998,"velocity":0.7165354330708661},{"duration":0.08333325000000968,"midi":88,"time":132.4998675,"velocity":0.7165354330708661},{"duration":0.24999975000000063,"midi":85,"time":132.66653399999998,"velocity":0.7165354330708661},{"duration":0.08333324999998126,"midi":88,"time":132.8332005,"velocity":0.7165354330708661},{"duration":0.08333325000000968,"midi":85,"time":132.91653374999999,"velocity":0.7165354330708661},{"duration":0.3333330000000103,"midi":88,"time":132.999867,"velocity":0.7165354330708661},{"duration":0.08333325000000968,"midi":76,"time":132.999867,"velocity":0.7165354330708661},{"duration":0.3333330000000103,"midi":76,"time":132.999867,"velocity":0.7165354330708661},{"duration":0.08333324999998126,"midi":73,"time":133.08320025,"velocity":0.7165354330708661},{"duration":0.08333325000000968,"midi":68,"time":133.16653349999999,"velocity":0.7165354330708661},{"duration":0.08333325000000968,"midi":64,"time":133.24986675,"velocity":0.7165354330708661},{"duration":0.08333324999998126,"midi":59,"time":133.3332,"velocity":0.7165354330708661},{"duration":0.08333325000000968,"midi":63,"time":133.41653325,"velocity":0.7165354330708661},{"duration":0.08333325000000968,"midi":66,"time":133.4998665,"velocity":0.7165354330708661},{"duration":0.08333324999998126,"midi":71,"time":133.58319975,"velocity":0.7165354330708661},{"duration":0.08333325000000968,"midi":78,"time":133.666533,"velocity":0.7165354330708661},{"duration":0.08333325000000968,"midi":83,"time":133.74986625,"velocity":0.7165354330708661},{"duration":0.08333324999998126,"midi":87,"time":133.8331995,"velocity":0.7165354330708661},{"duration":0.08333325000000968,"midi":87,"time":134.1665325,"velocity":0.7165354330708661},{"duration":0.08333325000000968,"midi":83,"time":134.24986575,"velocity":0.7165354330708661},{"duration":0.08333324999998126,"midi":75,"time":134.333199,"velocity":0.7165354330708661},{"duration":0.9166657499999928,"midi":75,"time":134.333199,"velocity":0.7165354330708661},{"duration":0.08333325000000968,"midi":71,"time":134.41653225,"velocity":0.7165354330708661},{"duration":0.08333325000000968,"midi":66,"time":134.4998655,"velocity":0.7165354330708661},{"duration":0.08333324999998126,"midi":63,"time":134.58319875,"velocity":0.7165354330708661},{"duration":0.08333325000000968,"midi":59,"time":134.666532,"velocity":0.7165354330708661},{"duration":0.08333325000000968,"midi":63,"time":134.74986525,"velocity":0.7165354330708661},{"duration":0.08333324999998126,"midi":66,"time":134.8331985,"velocity":0.7165354330708661},{"duration":0.08333325000000968,"midi":71,"time":134.91653175,"velocity":0.7165354330708661},{"duration":0.08333325000000968,"midi":78,"time":134.999865,"velocity":0.7165354330708661},{"duration":0.08333324999998126,"midi":83,"time":135.08319825,"velocity":0.7165354330708661},{"duration":0.08333325000000968,"midi":87,"time":135.1665315,"velocity":0.7165354330708661},{"duration":0.08333325000000968,"midi":87,"time":135.1665315,"velocity":0.7165354330708661},{"duration":0.3333329999999819,"midi":68,"time":135.333198,"velocity":0.7165354330708661},{"duration":0.3333329999999819,"midi":80,"time":135.333198,"velocity":0.7165354330708661},{"duration":0.08333324999998126,"midi":87,"time":135.4998645,"velocity":0.7165354330708661},{"duration":0.08333325000000968,"midi":83,"time":135.58319774999998,"velocity":0.7165354330708661},{"duration":0.08333325000000968,"midi":75,"time":135.666531,"velocity":0.7165354330708661},{"duration":0.3333330000000103,"midi":83,"time":135.666531,"velocity":0.7165354330708661},{"duration":0.08333324999998126,"midi":71,"time":135.74986425,"velocity":0.7165354330708661},{"duration":0.24999975000000063,"midi":71,"time":135.74986425,"velocity":0.7165354330708661},{"duration":0.08333325000000968,"midi":66,"time":135.83319749999998,"velocity":0.7165354330708661},{"duration":0.08333325000000968,"midi":63,"time":135.91653075,"velocity":0.7165354330708661},{"duration":0.08333324999998126,"midi":58,"time":135.999864,"velocity":0.7165354330708661},{"duration":1.583331749999985,"midi":73,"time":135.999864,"velocity":0.7165354330708661},{"duration":1.583331749999985,"midi":85,"time":135.999864,"velocity":0.7165354330708661},{"duration":0.08333325000000968,"midi":63,"time":136.08319724999998,"velocity":0.7165354330708661},{"duration":0.08333325000000968,"midi":66,"time":136.1665305,"velocity":0.7165354330708661},{"duration":0.08333324999998126,"midi":70,"time":136.24986375,"velocity":0.7165354330708661},{"duration":0.08333325000000968,"midi":78,"time":136.33319699999998,"velocity":0.7165354330708661},{"duration":0.08333325000000968,"midi":82,"time":136.41653025,"velocity":0.7165354330708661},{"duration":0.08333324999998126,"midi":87,"time":136.4998635,"velocity":0.7165354330708661},{"duration":0.08333325000000968,"midi":87,"time":136.83319649999999,"velocity":0.7165354330708661},{"duration":0.08333325000000968,"midi":82,"time":136.91652975,"velocity":0.7165354330708661},{"duration":0.08333324999998126,"midi":75,"time":136.999863,"velocity":0.7165354330708661},{"duration":0.08333325000000968,"midi":70,"time":137.08319625,"velocity":0.7165354330708661},{"duration":0.08333325000000968,"midi":66,"time":137.1665295,"velocity":0.7165354330708661},{"duration":0.08333324999998126,"midi":63,"time":137.24986275,"velocity":0.7165354330708661},{"duration":0.08333325000000968,"midi":58,"time":137.333196,"velocity":0.7165354330708661},{"duration":0.08333325000000968,"midi":63,"time":137.41652925,"velocity":0.7165354330708661},{"duration":0.08333324999998126,"midi":66,"time":137.4998625,"velocity":0.7165354330708661},{"duration":0.08333325000000968,"midi":70,"time":137.58319575,"velocity":0.7165354330708661},{"duration":0.3333330000000103,"midi":83,"time":137.666529,"velocity":0.7165354330708661},{"duration":0.3333330000000103,"midi":71,"time":137.666529,"velocity":0.7165354330708661},{"duration":0.08333325000000968,"midi":78,"time":137.666529,"velocity":0.7165354330708661},{"duration":0.08333324999998126,"midi":82,"time":137.74986225,"velocity":0.7165354330708661},{"duration":0.08333325000000968,"midi":87,"time":137.8331955,"velocity":0.7165354330708661},{"duration":0.3333329999999819,"midi":73,"time":137.999862,"velocity":0.7165354330708661},{"duration":0.3333329999999819,"midi":85,"time":137.999862,"velocity":0.7165354330708661},{"duration":0.08333325000000968,"midi":87,"time":138.1665285,"velocity":0.7165354330708661},{"duration":0.08333324999998126,"midi":82,"time":138.24986175,"velocity":0.7165354330708661},{"duration":0.08333325000000968,"midi":75,"time":138.333195,"velocity":0.7165354330708661},{"duration":0.3333330000000103,"midi":80,"time":138.333195,"velocity":0.7165354330708661},{"duration":0.08333325000000968,"midi":70,"time":138.41652825,"velocity":0.7165354330708661},{"duration":0.08333324999998126,"midi":66,"time":138.4998615,"velocity":0.7165354330708661},{"duration":0.08333325000000968,"midi":63,"time":138.58319475,"velocity":0.7165354330708661},{"duration":0.08333325000000968,"midi":57,"time":138.666528,"velocity":0.7165354330708661},{"duration":0.08333324999998126,"midi":62,"time":138.74986125,"velocity":0.7165354330708661},{"duration":0.08333325000000968,"midi":66,"time":138.8331945,"velocity":0.7165354330708661},{"duration":0.08333325000000968,"midi":69,"time":138.91652775,"velocity":0.7165354330708661},{"duration":0.08333324999998126,"midi":78,"time":138.999861,"velocity":0.7165354330708661},{"duration":0.9999989999999741,"midi":78,"time":138.999861,"velocity":0.7165354330708661},{"duration":0.08333325000000968,"midi":81,"time":139.08319425,"velocity":0.7165354330708661},{"duration":0.08333324999998126,"midi":86,"time":139.1665275,"velocity":0.7165354330708661},{"duration":0.08333325000000968,"midi":86,"time":139.49986049999998,"velocity":0.7165354330708661},{"duration":0.08333325000000968,"midi":81,"time":139.58319375,"velocity":0.7165354330708661},{"duration":0.08333324999998126,"midi":74,"time":139.666527,"velocity":0.7165354330708661},{"duration":0.08333325000000968,"midi":69,"time":139.74986024999998,"velocity":0.7165354330708661},{"duration":0.08333325000000968,"midi":66,"time":139.8331935,"velocity":0.7165354330708661},{"duration":0.08333324999998126,"midi":62,"time":139.91652675,"velocity":0.7165354330708661},{"duration":0.3333330000000103,"midi":81,"time":139.99985999999998,"velocity":0.7165354330708661},{"duration":0.08333325000000968,"midi":57,"time":139.99985999999998,"velocity":0.7165354330708661},{"duration":0.08333325000000968,"midi":62,"time":140.08319325,"velocity":0.7165354330708661},{"duration":0.08333324999998126,"midi":66,"time":140.1665265,"velocity":0.7165354330708661},{"duration":0.08333325000000968,"midi":69,"time":140.24985974999998,"velocity":0.7165354330708661},{"duration":0.08333325000000968,"midi":78,"time":140.333193,"velocity":0.7165354330708661},{"duration":0.3333330000000103,"midi":80,"time":140.333193,"velocity":0.7165354330708661},{"duration":0.08333324999998126,"midi":81,"time":140.41652625,"velocity":0.7165354330708661},{"duration":0.08333325000000968,"midi":86,"time":140.49985949999999,"velocity":0.7165354330708661},{"duration":0.3333329999999819,"midi":78,"time":140.666526,"velocity":0.7165354330708661},{"duration":0.08333325000000968,"midi":86,"time":140.8331925,"velocity":0.7165354330708661},{"duration":0.08333324999998126,"midi":81,"time":140.91652575,"velocity":0.7165354330708661},{"duration":0.08333325000000968,"midi":74,"time":140.999859,"velocity":0.7165354330708661},{"duration":0.3333330000000103,"midi":80,"time":140.999859,"velocity":0.7165354330708661},{"duration":0.08333325000000968,"midi":69,"time":141.08319225,"velocity":0.7165354330708661},{"duration":0.08333324999998126,"midi":66,"time":141.1665255,"velocity":0.7165354330708661},{"duration":0.08333325000000968,"midi":62,"time":141.24985875,"velocity":0.7165354330708661},{"duration":0.08333325000000968,"midi":61,"time":141.333192,"velocity":0.7165354330708661},{"duration":0.08333324999998126,"midi":64,"time":141.41652525,"velocity":0.7165354330708661},{"duration":0.08333325000000968,"midi":68,"time":141.4998585,"velocity":0.7165354330708661},{"duration":0.08333325000000968,"midi":73,"time":141.58319175,"velocity":0.7165354330708661},{"duration":0.08333324999998126,"midi":80,"time":141.666525,"velocity":0.7165354330708661},{"duration":0.08333325000000968,"midi":85,"time":141.74985825,"velocity":0.7165354330708661},{"duration":0.08333325000000968,"midi":88,"time":141.8331915,"velocity":0.7165354330708661},{"duration":0.08333325000000968,"midi":85,"time":141.999858,"velocity":0.7165354330708661},{"duration":0.08333324999998126,"midi":88,"time":142.1665245,"velocity":0.7165354330708661},{"duration":0.7499992499999735,"midi":88,"time":142.1665245,"velocity":0.7165354330708661},{"duration":0.08333325000000968,"midi":85,"time":142.24985775,"velocity":0.7165354330708661},{"duration":0.08333325000000968,"midi":76,"time":142.333191,"velocity":0.7165354330708661},{"duration":0.5833327499999825,"midi":76,"time":142.333191,"velocity":0.7165354330708661},{"duration":0.08333324999998126,"midi":73,"time":142.41652425,"velocity":0.7165354330708661},{"duration":0.08333325000000968,"midi":68,"time":142.4998575,"velocity":0.7165354330708661},{"duration":0.08333325000000968,"midi":64,"time":142.58319075,"velocity":0.7165354330708661},{"duration":0.08333324999998126,"midi":61,"time":142.666524,"velocity":0.7165354330708661},{"duration":0.08333325000000968,"midi":64,"time":142.74985725,"velocity":0.7165354330708661},{"duration":0.08333324999998126,"midi":68,"time":142.8331905,"velocity":0.7165354330708661},{"duration":0.08333325000000968,"midi":73,"time":142.91652374999998,"velocity":0.7165354330708661},{"duration":0.08333325000000968,"midi":80,"time":142.999857,"velocity":0.7165354330708661},{"duration":0.3333330000000103,"midi":73,"time":142.999857,"velocity":0.7165354330708661},{"duration":0.08333324999998126,"midi":85,"time":143.08319025,"velocity":0.7165354330708661},{"duration":0.24999975000000063,"midi":85,"time":143.08319025,"velocity":0.7165354330708661},{"duration":0.08333325000000968,"midi":88,"time":143.16652349999998,"velocity":0.7165354330708661},{"duration":0.08333324999998126,"midi":85,"time":143.33319,"velocity":0.7165354330708661},{"duration":0.3333329999999819,"midi":76,"time":143.33319,"velocity":0.7165354330708661},{"duration":0.08333325000000968,"midi":88,"time":143.4998565,"velocity":0.7165354330708661},{"duration":0.16666649999999095,"midi":88,"time":143.4998565,"velocity":0.7165354330708661},{"duration":0.08333324999998126,"midi":85,"time":143.58318975,"velocity":0.7165354330708661},{"duration":0.3333330000000103,"midi":80,"time":143.66652299999998,"velocity":0.7165354330708661},{"duration":0.08333325000000968,"midi":76,"time":143.66652299999998,"velocity":0.7165354330708661},{"duration":0.08333325000000968,"midi":73,"time":143.74985625,"velocity":0.7165354330708661},{"duration":0.08333324999998126,"midi":68,"time":143.8331895,"velocity":0.7165354330708661},{"duration":0.08333325000000968,"midi":64,"time":143.91652274999998,"velocity":0.7165354330708661},{"duration":0.08333325000000968,"midi":62,"time":143.999856,"velocity":0.7165354330708661},{"duration":0.08333324999998126,"midi":66,"time":144.08318925,"velocity":0.7165354330708661},{"duration":0.08333325000000968,"midi":68,"time":144.16652249999999,"velocity":0.7165354330708661},{"duration":0.08333325000000968,"midi":74,"time":144.24985575,"velocity":0.7165354330708661},{"duration":0.08333324999998126,"midi":80,"time":144.333189,"velocity":0.7165354330708661},{"duration":0.9999990000000025,"midi":80,"time":144.333189,"velocity":0.7165354330708661},{"duration":0.08333325000000968,"midi":86,"time":144.41652224999999,"velocity":0.7165354330708661},{"duration":0.08333325000000968,"midi":85,"time":144.666522,"velocity":0.7165354330708661},{"duration":0.08333325000000968,"midi":86,"time":144.91652175,"velocity":0.7165354330708661},{"duration":0.08333325000000968,"midi":81,"time":144.999855,"velocity":0.7165354330708661},{"duration":0.08333324999998126,"midi":74,"time":145.08318825,"velocity":0.7165354330708661},{"duration":0.08333325000000968,"midi":68,"time":145.1665215,"velocity":0.7165354330708661},{"duration":0.08333325000000968,"midi":66,"time":145.24985475,"velocity":0.7165354330708661},{"duration":0.9999990000000025,"midi":78,"time":145.333188,"velocity":0.7165354330708661},{"duration":0.08333324999998126,"midi":62,"time":145.333188,"velocity":0.7165354330708661},{"duration":0.08333325000000968,"midi":66,"time":145.41652125,"velocity":0.7165354330708661},{"duration":0.08333325000000968,"midi":68,"time":145.4998545,"velocity":0.7165354330708661},{"duration":0.08333324999998126,"midi":74,"time":145.58318775,"velocity":0.7165354330708661},{"duration":0.08333325000000968,"midi":80,"time":145.666521,"velocity":0.7165354330708661},{"duration":0.08333325000000968,"midi":86,"time":145.74985425,"velocity":0.7165354330708661},{"duration":0.08333325000000968,"midi":85,"time":145.999854,"velocity":0.7165354330708661},{"duration":0.08333325000000968,"midi":86,"time":146.24985375,"velocity":0.7165354330708661},{"duration":0.08333324999998126,"midi":81,"time":146.333187,"velocity":0.7165354330708661},{"duration":0.3333329999999819,"midi":80,"time":146.333187,"velocity":0.7165354330708661},{"duration":0.08333325000000968,"midi":74,"time":146.41652025,"velocity":0.7165354330708661},{"duration":0.08333324999998126,"midi":68,"time":146.4998535,"velocity":0.7165354330708661},{"duration":0.08333325000000968,"midi":66,"time":146.58318674999998,"velocity":0.7165354330708661},{"duration":0.08333325000000968,"midi":63,"time":146.66652,"velocity":0.7165354330708661},{"duration":1.5833317500000135,"midi":73,"time":146.66652,"velocity":0.7165354330708661},{"duration":1.5833317500000135,"midi":85,"time":146.66652,"velocity":0.7165354330708661},{"duration":0.08333324999998126,"midi":66,"time":146.74985325,"velocity":0.7165354330708661},{"duration":0.08333325000000968,"midi":70,"time":146.83318649999998,"velocity":0.7165354330708661},{"duration":0.08333325000000968,"midi":75,"time":146.91651975,"velocity":0.7165354330708661},{"duration":0.08333324999998126,"midi":82,"time":146.999853,"velocity":0.7165354330708661},{"duration":0.08333325000000968,"midi":87,"time":147.08318624999998,"velocity":0.7165354330708661},{"duration":0.08333325000000968,"midi":87,"time":147.33318599999998,"velocity":0.7165354330708661},{"duration":0.08333325000000968,"midi":87,"time":147.58318574999998,"velocity":0.7165354330708661},{"duration":0.08333325000000968,"midi":82,"time":147.666519,"velocity":0.7165354330708661},{"duration":0.08333324999998126,"midi":75,"time":147.74985225,"velocity":0.7165354330708661},{"duration":0.08333325000000968,"midi":70,"time":147.83318549999998,"velocity":0.7165354330708661},{"duration":0.08333325000000968,"midi":66,"time":147.91651875,"velocity":0.7165354330708661},{"duration":0.08333324999998126,"midi":63,"time":147.999852,"velocity":0.7165354330708661},{"duration":0.08333325000000968,"midi":66,"time":148.08318524999999,"velocity":0.7165354330708661},{"duration":0.08333325000000968,"midi":70,"time":148.1665185,"velocity":0.7165354330708661},{"duration":0.08333324999998126,"midi":75,"time":148.24985175,"velocity":0.7165354330708661},{"duration":0.3333330000000103,"midi":80,"time":148.333185,"velocity":0.7165354330708661},{"duration":0.3333330000000103,"midi":68,"time":148.333185,"velocity":0.7165354330708661},{"duration":0.08333325000000968,"midi":82,"time":148.333185,"velocity":0.7165354330708661},{"duration":0.08333325000000968,"midi":87,"time":148.41651825,"velocity":0.7165354330708661},{"duration":0.3333330000000103,"midi":73,"time":148.666518,"velocity":0.7165354330708661},{"duration":0.3333330000000103,"midi":85,"time":148.666518,"velocity":0.7165354330708661},{"duration":0.08333325000000968,"midi":87,"time":148.666518,"velocity":0.7165354330708661},{"duration":0.08333325000000968,"midi":87,"time":148.91651775,"velocity":0.7165354330708661},{"duration":0.08333324999998126,"midi":82,"time":148.999851,"velocity":0.7165354330708661},{"duration":0.3333329999999819,"midi":80,"time":148.999851,"velocity":0.7165354330708661},{"duration":0.08333325000000968,"midi":75,"time":149.08318425,"velocity":0.7165354330708661},{"duration":0.08333325000000968,"midi":70,"time":149.1665175,"velocity":0.7165354330708661},{"duration":0.08333324999998126,"midi":66,"time":149.24985075,"velocity":0.7165354330708661},{"duration":0.08333325000000968,"midi":60,"time":149.333184,"velocity":0.7165354330708661},{"duration":0.7499992500000019,"midi":85,"time":149.333184,"velocity":0.7165354330708661},{"duration":0.08333325000000968,"midi":63,"time":149.41651725,"velocity":0.7165354330708661},{"duration":0.08333324999998126,"midi":68,"time":149.4998505,"velocity":0.7165354330708661},{"duration":0.08333325000000968,"midi":72,"time":149.58318375,"velocity":0.7165354330708661},{"duration":0.08333325000000968,"midi":80,"time":149.666517,"velocity":0.7165354330708661},{"duration":0.08333324999998126,"midi":84,"time":149.74985025,"velocity":0.7165354330708661},{"duration":0.08333325000000968,"midi":87,"time":149.8331835,"velocity":0.7165354330708661},{"duration":0.6666659999999922,"midi":85,"time":149.99985,"velocity":0.7165354330708661},{"duration":0.6666659999999922,"midi":85,"time":149.99985,"velocity":0.7165354330708661},{"duration":0.08333325000000968,"midi":87,"time":150.1665165,"velocity":0.7165354330708661},{"duration":0.08333324999998126,"midi":84,"time":150.24984975,"velocity":0.7165354330708661},{"duration":0.08333325000000968,"midi":80,"time":150.333183,"velocity":0.7165354330708661},{"duration":0.08333324999998126,"midi":75,"time":150.41651625,"velocity":0.7165354330708661},{"duration":0.08333325000000968,"midi":72,"time":150.49984949999998,"velocity":0.7165354330708661},{"duration":0.08333325000000968,"midi":68,"time":150.58318275,"velocity":0.7165354330708661},{"duration":0.08333324999998126,"midi":60,"time":150.666516,"velocity":0.7165354330708661},{"duration":0.08333325000000968,"midi":63,"time":150.74984924999998,"velocity":0.7165354330708661},{"duration":0.08333325000000968,"midi":68,"time":150.8331825,"velocity":0.7165354330708661},{"duration":0.08333324999998126,"midi":72,"time":150.91651575,"velocity":0.7165354330708661},{"duration":0.08333325000000968,"midi":80,"time":150.99984899999998,"velocity":0.7165354330708661},{"duration":0.08333325000000968,"midi":84,"time":151.08318225,"velocity":0.7165354330708661},{"duration":0.08333324999998126,"midi":87,"time":151.1665155,"velocity":0.7165354330708661},{"duration":0.08333325000000968,"midi":84,"time":151.333182,"velocity":0.7165354330708661},{"duration":0.3333330000000103,"midi":84,"time":151.333182,"velocity":0.7165354330708661},{"duration":0.08333325000000968,"midi":87,"time":151.49984849999998,"velocity":0.7165354330708661},{"duration":0.4166662499999916,"midi":84,"time":151.58318175,"velocity":0.7165354330708661},{"duration":0.4166662499999916,"midi":84,"time":151.58318175,"velocity":0.7165354330708661},{"duration":0.08333324999998126,"midi":80,"time":151.666515,"velocity":0.7165354330708661},{"duration":0.08333325000000968,"midi":75,"time":151.74984824999999,"velocity":0.7165354330708661},{"duration":0.08333325000000968,"midi":72,"time":151.8331815,"velocity":0.7165354330708661},{"duration":0.08333324999998126,"midi":68,"time":151.91651475,"velocity":0.7165354330708661},{"duration":0.16666649999999095,"midi":73,"time":253.33308,"velocity":0.7165354330708661},{"duration":0.16666650000001937,"midi":75,"time":253.4997465,"velocity":0.7165354330708661},{"duration":0.16666649999999095,"midi":73,"time":253.666413,"velocity":0.7165354330708661},{"duration":0.3333329999999819,"midi":68,"time":253.8330795,"velocity":0.7165354330708661},{"duration":0.16666650000001937,"midi":61,"time":254.16641249999998,"velocity":0.7165354330708661},{"duration":0.16666649999999095,"midi":64,"time":254.333079,"velocity":0.7165354330708661},{"duration":0.16666649999999095,"midi":68,"time":254.4997455,"velocity":0.7165354330708661},{"duration":0.16666650000001937,"midi":71,"time":254.66641199999998,"velocity":0.7165354330708661},{"duration":0.16666649999999095,"midi":69,"time":254.8330785,"velocity":0.7165354330708661},{"duration":0.16666649999999095,"midi":68,"time":254.999745,"velocity":0.7165354330708661},{"duration":0.3333330000000103,"midi":69,"time":255.16641149999998,"velocity":0.7165354330708661},{"duration":0.16666649999999095,"midi":68,"time":255.4997445,"velocity":0.7165354330708661},{"duration":0.16666650000001937,"midi":66,"time":255.66641099999998,"velocity":0.7165354330708661},{"duration":0.16666649999999095,"midi":68,"time":255.8330775,"velocity":0.7165354330708661},{"duration":1.3333320000000128,"midi":63,"time":255.999744,"velocity":0.7165354330708661},{"duration":0.16666650000001937,"midi":73,"time":258.666408,"velocity":0.7165354330708661},{"duration":0.16666649999996253,"midi":75,"time":258.8330745,"velocity":0.7165354330708661},{"duration":0.16666650000001937,"midi":73,"time":258.999741,"velocity":0.7165354330708661},{"duration":0.3333329999999819,"midi":68,"time":259.1664075,"velocity":0.7165354330708661},{"duration":0.16666650000001937,"midi":61,"time":259.4997405,"velocity":0.7165354330708661},{"duration":0.16666650000001937,"midi":64,"time":259.666407,"velocity":0.7165354330708661},{"duration":0.16666649999996253,"midi":68,"time":259.8330735,"velocity":0.7165354330708661},{"duration":0.16666650000001937,"midi":71,"time":259.99974,"velocity":0.7165354330708661},{"duration":0.16666650000001937,"midi":73,"time":260.1664065,"velocity":0.7165354330708661},{"duration":0.16666649999996253,"midi":75,"time":260.333073,"velocity":0.7165354330708661},{"duration":0.33333300000003874,"midi":73,"time":260.4997395,"velocity":0.7165354330708661},{"duration":0.16666649999996253,"midi":75,"time":260.8330725,"velocity":0.7165354330708661},{"duration":0.16666650000001937,"midi":76,"time":260.999739,"velocity":0.7165354330708661},{"duration":0.16666650000001937,"midi":78,"time":261.1664055,"velocity":0.7165354330708661},{"duration":1.3333319999999844,"midi":75,"time":261.333072,"velocity":0.7165354330708661},{"duration":0.3333329999999819,"midi":68,"time":268.666398,"velocity":0.7165354330708661},{"duration":0.3333329999999819,"midi":71,"time":268.999731,"velocity":0.7165354330708661},{"duration":0.6666660000000206,"midi":73,"time":269.333064,"velocity":0.7165354330708661},{"duration":0.16666650000001937,"midi":73,"time":269.99973,"velocity":0.7165354330708661},{"duration":0.16666649999996253,"midi":68,"time":270.1663965,"velocity":0.7165354330708661},{"duration":0.16666650000001937,"midi":73,"time":270.333063,"velocity":0.7165354330708661},{"duration":0.16666650000001937,"midi":80,"time":270.4997295,"velocity":0.7165354330708661},{"duration":0.9999989999999457,"midi":80,"time":270.666396,"velocity":0.7165354330708661},{"duration":0.16666650000001937,"midi":80,"time":271.66639499999997,"velocity":0.7165354330708661},{"duration":0.16666650000001937,"midi":78,"time":271.8330615,"velocity":0.7165354330708661},{"duration":0.3333329999999819,"midi":77,"time":271.999728,"velocity":0.7165354330708661},{"duration":0.3333329999999819,"midi":73,"time":272.333061,"velocity":0.7165354330708661},{"duration":0.33333300000003874,"midi":70,"time":272.66639399999997,"velocity":0.7165354330708661},{"duration":0.3333329999999819,"midi":66,"time":272.999727,"velocity":0.7165354330708661},{"duration":0.6666660000000206,"midi":69,"time":273.33306,"velocity":0.7165354330708661},{"duration":0.6666659999999638,"midi":68,"time":273.999726,"velocity":0.7165354330708661},{"duration":0.9999990000000025,"midi":73,"time":274.666392,"velocity":0.7165354330708661},{"duration":0.33333300000003874,"midi":76,"time":275.666391,"velocity":0.7165354330708661},{"duration":0.9999990000000025,"midi":75,"time":275.999724,"velocity":0.7165354330708661},{"duration":0.3333329999999819,"midi":80,"time":276.999723,"velocity":0.7165354330708661},{"duration":0.9999990000000025,"midi":80,"time":277.333056,"velocity":0.7165354330708661},{"duration":0.16666649999996253,"midi":78,"time":278.333055,"velocity":0.7165354330708661},{"duration":0.16666650000001937,"midi":76,"time":278.49972149999996,"velocity":0.7165354330708661},{"duration":0.3333329999999819,"midi":75,"time":278.666388,"velocity":0.7165354330708661},{"duration":0.33333300000003874,"midi":76,"time":278.99972099999997,"velocity":0.7165354330708661},{"duration":0.3333329999999819,"midi":71,"time":279.333054,"velocity":0.7165354330708661},{"duration":0.3333329999999819,"midi":68,"time":279.666387,"velocity":0.7165354330708661},{"duration":0.6666660000000206,"midi":69,"time":279.99971999999997,"velocity":0.7165354330708661},{"duration":0.3333329999999819,"midi":73,"time":280.666386,"velocity":0.7165354330708661},{"duration":0.33333300000003874,"midi":76,"time":280.99971899999997,"velocity":0.7165354330708661},{"duration":0.6666659999999638,"midi":76,"time":281.333052,"velocity":0.7165354330708661},{"duration":0.33333300000003874,"midi":75,"time":281.999718,"velocity":0.7165354330708661},{"duration":0.3333329999999819,"midi":76,"time":282.333051,"velocity":0.7165354330708661},{"duration":0.49999950000000126,"midi":83,"time":282.666384,"velocity":0.7165354330708661},{"duration":0.49999950000000126,"midi":81,"time":283.1663835,"velocity":0.7165354330708661},{"duration":0.3333329999999819,"midi":80,"time":283.666383,"velocity":0.7165354330708661},{"duration":1.3333320000000413,"midi":78,"time":283.999716,"velocity":0.7165354330708661},{"duration":0.4999994999999444,"midi":76,"time":285.333048,"velocity":0.7165354330708661},{"duration":0.49999950000000126,"midi":75,"time":285.83304749999996,"velocity":0.7165354330708661},{"duration":0.33333300000003874,"midi":76,"time":286.33304699999997,"velocity":0.7165354330708661},{"duration":0.9999990000000025,"midi":80,"time":286.66638,"velocity":0.7165354330708661},{"duration":0.3333329999999819,"midi":75,"time":287.666379,"velocity":0.7165354330708661},{"duration":1.3333319999999844,"midi":73,"time":287.999712,"velocity":0.7165354330708661},{"duration":0.33333300000003874,"midi":73,"time":289.333044,"velocity":0.7165354330708661},{"duration":0.3333329999999819,"midi":76,"time":289.666377,"velocity":0.7165354330708661},{"duration":0.3333329999999819,"midi":78,"time":289.99971,"velocity":0.7165354330708661},{"duration":0.33333300000003874,"midi":80,"time":290.333043,"velocity":0.7165354330708661},{"duration":0.49999950000000126,"midi":81,"time":290.666376,"velocity":0.7165354330708661},{"duration":0.49999950000000126,"midi":80,"time":291.1663755,"velocity":0.7165354330708661},{"duration":0.3333329999999819,"midi":78,"time":291.666375,"velocity":0.7165354330708661},{"duration":0.3333329999999819,"midi":76,"time":291.999708,"velocity":0.7165354330708661},{"duration":0.33333300000003874,"midi":73,"time":292.333041,"velocity":0.7165354330708661},{"duration":0.3333329999999819,"midi":76,"time":292.666374,"velocity":0.7165354330708661},{"duration":0.3333329999999819,"midi":80,"time":292.999707,"velocity":0.7165354330708661},{"duration":1.3333319999999844,"midi":78,"time":293.33304,"velocity":0.7165354330708661},{"duration":0.6666660000000206,"midi":75,"time":294.66637199999997,"velocity":0.7165354330708661},{"duration":0.6666660000000206,"midi":71,"time":295.333038,"velocity":0.7165354330708661},{"duration":0.08333325000000968,"midi":80,"time":295.999704,"velocity":0.7165354330708661},{"duration":0.08333324999995284,"midi":76,"time":296.08303725,"velocity":0.7165354330708661},{"duration":0.08333325000000968,"midi":73,"time":296.16637049999997,"velocity":0.7165354330708661},{"duration":0.08333325000000968,"midi":68,"time":296.24970375,"velocity":0.7165354330708661},{"duration":0.08333325000000968,"midi":64,"time":296.333037,"velocity":0.7165354330708661},{"duration":0.08333325000000968,"midi":61,"time":296.41637025,"velocity":0.7165354330708661},{"duration":0.08333325000000968,"midi":56,"time":296.4997035,"velocity":0.7165354330708661},{"duration":0.08333324999995284,"midi":52,"time":296.58303675,"velocity":0.7165354330708661},{"duration":0.08333325000000968,"midi":76,"time":296.66637,"velocity":0.7165354330708661},{"duration":0.08333325000000968,"midi":73,"time":296.74970325,"velocity":0.7165354330708661},{"duration":0.08333325000000968,"midi":68,"time":296.8330365,"velocity":0.7165354330708661},{"duration":0.08333325000000968,"midi":64,"time":296.91636975,"velocity":0.7165354330708661},{"duration":0.08333324999995284,"midi":88,"time":296.999703,"velocity":0.7165354330708661},{"duration":0.08333325000000968,"midi":85,"time":297.08303624999996,"velocity":0.7165354330708661},{"duration":0.08333325000000968,"midi":80,"time":297.1663695,"velocity":0.7165354330708661},{"duration":0.08333325000000968,"midi":76,"time":297.24970275,"velocity":0.7165354330708661},{"duration":0.08333325000000968,"midi":76,"time":297.333036,"velocity":0.7165354330708661},{"duration":0.08333325000000968,"midi":73,"time":297.41636925,"velocity":0.7165354330708661},{"duration":0.08333325000000968,"midi":88,"time":297.58303574999996,"velocity":0.7165354330708661},{"duration":0.08333325000000968,"midi":85,"time":297.666369,"velocity":0.7165354330708661},{"duration":0.08333325000000968,"midi":80,"time":297.74970225,"velocity":0.7165354330708661},{"duration":0.08333325000000968,"midi":76,"time":297.8330355,"velocity":0.7165354330708661},{"duration":0.08333325000000968,"midi":73,"time":297.91636875,"velocity":0.7165354330708661},{"duration":0.08333324999995284,"midi":85,"time":297.999702,"velocity":0.7165354330708661},{"duration":0.08333325000000968,"midi":80,"time":298.08303524999997,"velocity":0.7165354330708661},{"duration":0.08333325000000968,"midi":76,"time":298.1663685,"velocity":0.7165354330708661},{"duration":0.08333325000000968,"midi":73,"time":298.24970175,"velocity":0.7165354330708661},{"duration":0.08333325000000968,"midi":80,"time":298.333035,"velocity":0.7165354330708661},{"duration":0.08333325000000968,"midi":76,"time":298.41636825,"velocity":0.7165354330708661},{"duration":0.08333324999995284,"midi":73,"time":298.4997015,"velocity":0.7165354330708661},{"duration":0.08333325000000968,"midi":68,"time":298.58303474999997,"velocity":0.7165354330708661},{"duration":0.08333325000000968,"midi":81,"time":298.666368,"velocity":0.7165354330708661},{"duration":0.08333325000000968,"midi":78,"time":298.74970125,"velocity":0.7165354330708661},{"duration":0.08333325000000968,"midi":74,"time":298.8330345,"velocity":0.7165354330708661},{"duration":0.08333325000000968,"midi":69,"time":298.91636775,"velocity":0.7165354330708661},{"duration":0.08333324999995284,"midi":66,"time":298.999701,"velocity":0.7165354330708661},{"duration":0.08333325000000968,"midi":62,"time":299.08303424999997,"velocity":0.7165354330708661},{"duration":0.08333325000000968,"midi":57,"time":299.1663675,"velocity":0.7165354330708661},{"duration":0.08333325000000968,"midi":54,"time":299.24970075,"velocity":0.7165354330708661},{"duration":0.08333325000000968,"midi":78,"time":299.333034,"velocity":0.7165354330708661},{"duration":0.08333325000000968,"midi":74,"time":299.41636725,"velocity":0.7165354330708661},{"duration":0.08333324999995284,"midi":69,"time":299.4997005,"velocity":0.7165354330708661},{"duration":0.08333325000000968,"midi":66,"time":299.58303374999997,"velocity":0.7165354330708661},{"duration":0.08333325000000968,"midi":86,"time":299.74970025,"velocity":0.7165354330708661},{"duration":0.08333325000000968,"midi":81,"time":299.8330335,"velocity":0.7165354330708661},{"duration":0.08333325000000968,"midi":78,"time":299.91636675,"velocity":0.7165354330708661},{"duration":0.08333324999995284,"midi":78,"time":299.9997,"velocity":0.7165354330708661},{"duration":0.08333325000000968,"midi":74,"time":300.08303324999997,"velocity":0.7165354330708661},{"duration":0.08333325000000968,"midi":86,"time":300.333033,"velocity":0.7165354330708661},{"duration":0.08333325000000968,"midi":81,"time":300.41636625,"velocity":0.7165354330708661},{"duration":0.08333324999995284,"midi":78,"time":300.4996995,"velocity":0.7165354330708661},{"duration":0.08333325000000968,"midi":74,"time":300.58303275,"velocity":0.7165354330708661},{"duration":0.08333325000000968,"midi":86,"time":300.666366,"velocity":0.7165354330708661},{"duration":0.08333325000000968,"midi":81,"time":300.74969925,"velocity":0.7165354330708661},{"duration":0.08333325000000968,"midi":78,"time":300.8330325,"velocity":0.7165354330708661},{"duration":0.08333324999995284,"midi":74,"time":300.91636575,"velocity":0.7165354330708661},{"duration":0.08333325000000968,"midi":81,"time":300.99969899999996,"velocity":0.7165354330708661},{"duration":0.08333325000000968,"midi":78,"time":301.08303225,"velocity":0.7165354330708661},{"duration":0.08333325000000968,"midi":74,"time":301.1663655,"velocity":0.7165354330708661},{"duration":0.08333325000000968,"midi":69,"time":301.24969875,"velocity":0.7165354330708661},{"duration":0.08333325000000968,"midi":80,"time":301.333032,"velocity":0.7165354330708661},{"duration":0.08333324999995284,"midi":76,"time":301.41636525,"velocity":0.7165354330708661},{"duration":0.08333325000000968,"midi":73,"time":301.49969849999997,"velocity":0.7165354330708661},{"duration":0.08333325000000968,"midi":68,"time":301.58303175,"velocity":0.7165354330708661},{"duration":0.08333325000000968,"midi":64,"time":301.666365,"velocity":0.7165354330708661},{"duration":0.08333325000000968,"midi":61,"time":301.74969825,"velocity":0.7165354330708661},{"duration":0.08333325000000968,"midi":56,"time":301.8330315,"velocity":0.7165354330708661},{"duration":0.08333324999995284,"midi":52,"time":301.91636475,"velocity":0.7165354330708661},{"duration":0.08333325000000968,"midi":76,"time":301.99969799999997,"velocity":0.7165354330708661},{"duration":0.08333325000000968,"midi":73,"time":302.08303125,"velocity":0.7165354330708661},{"duration":0.08333325000000968,"midi":68,"time":302.1663645,"velocity":0.7165354330708661},{"duration":0.08333325000000968,"midi":64,"time":302.24969775,"velocity":0.7165354330708661},{"duration":0.08333325000000968,"midi":88,"time":302.333031,"velocity":0.7165354330708661},{"duration":0.08333324999995284,"midi":85,"time":302.41636425,"velocity":0.7165354330708661},{"duration":0.08333325000000968,"midi":80,"time":302.49969749999997,"velocity":0.7165354330708661},{"duration":0.08333325000000968,"midi":76,"time":302.58303075,"velocity":0.7165354330708661},{"duration":0.08333325000000968,"midi":76,"time":302.666364,"velocity":0.7165354330708661},{"duration":0.08333325000000968,"midi":73,"time":302.74969725,"velocity":0.7165354330708661},{"duration":0.08333324999995284,"midi":88,"time":302.91636375,"velocity":0.7165354330708661},{"duration":0.08333325000000968,"midi":85,"time":302.99969699999997,"velocity":0.7165354330708661},{"duration":0.08333325000000968,"midi":80,"time":303.08303025,"velocity":0.7165354330708661},{"duration":0.08333325000000968,"midi":76,"time":303.1663635,"velocity":0.7165354330708661},{"duration":0.08333325000000968,"midi":73,"time":303.24969675,"velocity":0.7165354330708661},{"duration":0.08333325000000968,"midi":85,"time":303.33303,"velocity":0.7165354330708661},{"duration":0.08333324999995284,"midi":80,"time":303.41636325,"velocity":0.7165354330708661},{"duration":0.08333325000000968,"midi":76,"time":303.49969649999997,"velocity":0.7165354330708661},{"duration":0.08333325000000968,"midi":73,"time":303.58302975,"velocity":0.7165354330708661},{"duration":0.08333325000000968,"midi":80,"time":303.666363,"velocity":0.7165354330708661},{"duration":0.08333325000000968,"midi":76,"time":303.74969625,"velocity":0.7165354330708661},{"duration":0.08333325000000968,"midi":73,"time":303.8330295,"velocity":0.7165354330708661},{"duration":0.08333324999995284,"midi":68,"time":303.91636275,"velocity":0.7165354330708661},{"duration":0.08333325000000968,"midi":81,"time":303.999696,"velocity":0.7165354330708661},{"duration":0.08333325000000968,"midi":78,"time":304.08302925,"velocity":0.7165354330708661},{"duration":0.08333325000000968,"midi":74,"time":304.1663625,"velocity":0.7165354330708661},{"duration":0.08333325000000968,"midi":69,"time":304.24969575,"velocity":0.7165354330708661},{"duration":0.08333324999995284,"midi":66,"time":304.333029,"velocity":0.7165354330708661},{"duration":0.08333325000000968,"midi":62,"time":304.41636224999996,"velocity":0.7165354330708661},{"duration":0.08333325000000968,"midi":57,"time":304.4996955,"velocity":0.7165354330708661},{"duration":0.08333325000000968,"midi":54,"time":304.58302875,"velocity":0.7165354330708661},{"duration":0.08333325000000968,"midi":78,"time":304.666362,"velocity":0.7165354330708661},{"duration":0.08333325000000968,"midi":74,"time":304.74969525,"velocity":0.7165354330708661},{"duration":0.08333324999995284,"midi":69,"time":304.8330285,"velocity":0.7165354330708661},{"duration":0.08333325000000968,"midi":66,"time":304.91636174999996,"velocity":0.7165354330708661},{"duration":0.08333325000000968,"midi":86,"time":305.08302825,"velocity":0.7165354330708661},{"duration":0.08333325000000968,"midi":81,"time":305.1663615,"velocity":0.7165354330708661},{"duration":0.08333325000000968,"midi":78,"time":305.24969475,"velocity":0.7165354330708661},{"duration":0.08333324999995284,"midi":78,"time":305.333028,"velocity":0.7165354330708661},{"duration":0.08333325000000968,"midi":74,"time":305.41636124999997,"velocity":0.7165354330708661},{"duration":0.08333325000000968,"midi":86,"time":305.666361,"velocity":0.7165354330708661},{"duration":0.08333325000000968,"midi":81,"time":305.74969425,"velocity":0.7165354330708661},{"duration":0.08333324999995284,"midi":78,"time":305.8330275,"velocity":0.7165354330708661},{"duration":0.08333325000000968,"midi":74,"time":305.91636074999997,"velocity":0.7165354330708661},{"duration":0.08333325000000968,"midi":86,"time":305.999694,"velocity":0.7165354330708661},{"duration":0.08333325000000968,"midi":81,"time":306.08302725,"velocity":0.7165354330708661},{"duration":0.08333325000000968,"midi":78,"time":306.1663605,"velocity":0.7165354330708661},{"duration":0.08333325000000968,"midi":74,"time":306.24969375,"velocity":0.7165354330708661},{"duration":0.08333324999995284,"midi":81,"time":306.333027,"velocity":0.7165354330708661},{"duration":0.08333325000000968,"midi":78,"time":306.41636024999997,"velocity":0.7165354330708661},{"duration":0.08333325000000968,"midi":74,"time":306.4996935,"velocity":0.7165354330708661},{"duration":0.08333325000000968,"midi":69,"time":306.58302675,"velocity":0.7165354330708661},{"duration":0.16666650000001937,"midi":73,"time":306.66636,"velocity":0.7165354330708661},{"duration":0.16666649999996253,"midi":75,"time":306.8330265,"velocity":0.7165354330708661},{"duration":0.16666650000001937,"midi":73,"time":306.999693,"velocity":0.7165354330708661},{"duration":0.3333329999999819,"midi":68,"time":307.1663595,"velocity":0.7165354330708661},{"duration":0.16666650000001937,"midi":61,"time":307.4996925,"velocity":0.7165354330708661},{"duration":0.16666650000001937,"midi":64,"time":307.666359,"velocity":0.7165354330708661},{"duration":0.16666649999996253,"midi":68,"time":307.8330255,"velocity":0.7165354330708661},{"duration":0.16666650000001937,"midi":71,"time":307.999692,"velocity":0.7165354330708661},{"duration":0.16666649999996253,"midi":69,"time":308.1663585,"velocity":0.7165354330708661},{"duration":0.16666650000001937,"midi":68,"time":308.33302499999996,"velocity":0.7165354330708661},{"duration":0.3333329999999819,"midi":69,"time":308.4996915,"velocity":0.7165354330708661},{"duration":0.16666650000001937,"midi":68,"time":308.83302449999996,"velocity":0.7165354330708661},{"duration":0.16666650000001937,"midi":66,"time":308.999691,"velocity":0.7165354330708661},{"duration":0.16666649999996253,"midi":68,"time":309.1663575,"velocity":0.7165354330708661},{"duration":1.3333320000000413,"midi":63,"time":309.33302399999997,"velocity":0.7165354330708661},{"duration":0.16666650000001937,"midi":73,"time":311.999688,"velocity":0.7165354330708661},{"duration":0.16666649999996253,"midi":75,"time":312.1663545,"velocity":0.7165354330708661},{"duration":0.16666650000001937,"midi":73,"time":312.333021,"velocity":0.7165354330708661},{"duration":0.3333329999999819,"midi":68,"time":312.4996875,"velocity":0.7165354330708661},{"duration":0.16666650000001937,"midi":61,"time":312.8330205,"velocity":0.7165354330708661},{"duration":0.16666650000001937,"midi":64,"time":312.999687,"velocity":0.7165354330708661},{"duration":0.16666649999996253,"midi":68,"time":313.1663535,"velocity":0.7165354330708661},{"duration":0.16666650000001937,"midi":71,"time":313.33302,"velocity":0.7165354330708661},{"duration":0.16666650000001937,"midi":73,"time":313.4996865,"velocity":0.7165354330708661},{"duration":0.16666649999996253,"midi":75,"time":313.666353,"velocity":0.7165354330708661},{"duration":0.33333300000003874,"midi":73,"time":313.8330195,"velocity":0.7165354330708661},{"duration":0.16666649999996253,"midi":75,"time":314.1663525,"velocity":0.7165354330708661},{"duration":0.16666650000001937,"midi":76,"time":314.333019,"velocity":0.7165354330708661},{"duration":0.16666650000001937,"midi":78,"time":314.4996855,"velocity":0.7165354330708661},{"duration":1.3333319999999844,"midi":75,"time":314.666352,"velocity":0.7165354330708661},{"duration":0.3333329999999819,"midi":68,"time":321.999678,"velocity":0.7165354330708661},{"duration":0.3333329999999819,"midi":71,"time":322.333011,"velocity":0.7165354330708661},{"duration":0.6666660000000206,"midi":73,"time":322.666344,"velocity":0.7165354330708661},{"duration":0.16666649999996253,"midi":73,"time":323.33301,"velocity":0.7165354330708661},{"duration":0.16666650000001937,"midi":68,"time":323.49967649999996,"velocity":0.7165354330708661},{"duration":0.16666650000001937,"midi":73,"time":323.666343,"velocity":0.7165354330708661},{"duration":0.16666649999996253,"midi":80,"time":323.8330095,"velocity":0.7165354330708661},{"duration":0.9999990000000025,"midi":80,"time":323.99967599999997,"velocity":0.7165354330708661},{"duration":0.16666650000001937,"midi":80,"time":324.99967499999997,"velocity":0.7165354330708661},{"duration":0.16666650000001937,"midi":78,"time":325.1663415,"velocity":0.7165354330708661},{"duration":0.3333329999999819,"midi":77,"time":325.333008,"velocity":0.7165354330708661},{"duration":0.3333329999999819,"midi":73,"time":325.666341,"velocity":0.7165354330708661},{"duration":0.33333300000003874,"midi":70,"time":325.99967399999997,"velocity":0.7165354330708661},{"duration":0.16666649999996253,"midi":66,"time":326.333007,"velocity":0.7165354330708661},{"duration":0.08333325000000968,"midi":66,"time":326.541340125,"velocity":0.7165354330708661},{"duration":0.08333325000000968,"midi":67,"time":326.58300675,"velocity":0.7165354330708661},{"duration":0.08333325000000968,"midi":68,"time":326.624673375,"velocity":0.7165354330708661},{"duration":0.6666660000000206,"midi":69,"time":326.66634,"velocity":0.7165354330708661},{"duration":0.6666659999999638,"midi":68,"time":327.333006,"velocity":0.7165354330708661},{"duration":0.16666650000001937,"midi":76,"time":327.999672,"velocity":0.7165354330708661},{"duration":0.9999990000000025,"midi":73,"time":327.999672,"velocity":0.7165354330708661},{"duration":0.16666650000001937,"midi":80,"time":328.1663385,"velocity":0.7165354330708661},{"duration":0.16666649999996253,"midi":85,"time":328.333005,"velocity":0.7165354330708661},{"duration":0.16666650000001937,"midi":80,"time":328.4996715,"velocity":0.7165354330708661},{"duration":0.16666650000001937,"midi":76,"time":328.666338,"velocity":0.7165354330708661},{"duration":0.16666649999996253,"midi":80,"time":328.8330045,"velocity":0.7165354330708661},{"duration":0.33333300000003874,"midi":76,"time":328.999671,"velocity":0.7165354330708661},{"duration":0.16666650000001937,"midi":85,"time":328.999671,"velocity":0.7165354330708661},{"duration":0.16666650000001937,"midi":80,"time":329.1663375,"velocity":0.7165354330708661},{"duration":0.16666649999996253,"midi":75,"time":329.333004,"velocity":0.7165354330708661},{"duration":0.16666650000001937,"midi":80,"time":329.4996705,"velocity":0.7165354330708661},{"duration":0.16666650000001937,"midi":83,"time":329.666337,"velocity":0.7165354330708661},{"duration":0.16666649999996253,"midi":80,"time":329.8330035,"velocity":0.7165354330708661},{"duration":0.16666650000001937,"midi":75,"time":329.99967,"velocity":0.7165354330708661},{"duration":0.3333329999999819,"midi":75,"time":329.99967,"velocity":0.7165354330708661},{"duration":0.16666649999996253,"midi":80,"time":330.1663365,"velocity":0.7165354330708661},{"duration":0.16666650000001937,"midi":83,"time":330.33300299999996,"velocity":0.7165354330708661},{"duration":0.16666650000001937,"midi":80,"time":330.4996695,"velocity":0.7165354330708661},{"duration":0.16666650000001937,"midi":80,"time":330.4996695,"velocity":0.7165354330708661},{"duration":0.16666649999996253,"midi":76,"time":330.666336,"velocity":0.7165354330708661},{"duration":0.16666650000001937,"midi":80,"time":330.83300249999996,"velocity":0.7165354330708661},{"duration":0.16666650000001937,"midi":85,"time":330.999669,"velocity":0.7165354330708661},{"duration":0.16666649999996253,"midi":80,"time":331.1663355,"velocity":0.7165354330708661},{"duration":0.16666650000001937,"midi":76,"time":331.33300199999996,"velocity":0.7165354330708661},{"duration":0.16666650000001937,"midi":80,"time":331.4996685,"velocity":0.7165354330708661},{"duration":0.16666650000001937,"midi":80,"time":331.4996685,"velocity":0.7165354330708661},{"duration":0.16666649999996253,"midi":85,"time":331.666335,"velocity":0.7165354330708661},{"duration":0.16666649999996253,"midi":78,"time":331.666335,"velocity":0.7165354330708661},{"duration":0.16666650000001937,"midi":76,"time":331.83300149999997,"velocity":0.7165354330708661},{"duration":0.16666650000001937,"midi":80,"time":331.83300149999997,"velocity":0.7165354330708661},{"duration":0.3333329999999819,"midi":75,"time":331.999668,"velocity":0.7165354330708661},{"duration":0.16666650000001937,"midi":78,"time":331.999668,"velocity":0.7165354330708661},{"duration":0.16666649999996253,"midi":83,"time":332.1663345,"velocity":0.7165354330708661},{"duration":0.16666650000001937,"midi":87,"time":332.33300099999997,"velocity":0.7165354330708661},{"duration":0.33333300000003874,"midi":76,"time":332.33300099999997,"velocity":0.7165354330708661},{"duration":0.16666650000001937,"midi":83,"time":332.4996675,"velocity":0.7165354330708661},{"duration":0.3333329999999819,"midi":71,"time":332.666334,"velocity":0.7165354330708661},{"duration":0.16666649999996253,"midi":78,"time":332.666334,"velocity":0.7165354330708661},{"duration":0.16666650000001937,"midi":83,"time":332.83300049999997,"velocity":0.7165354330708661},{"duration":0.16666650000001937,"midi":87,"time":332.999667,"velocity":0.7165354330708661},{"duration":0.3333329999999819,"midi":68,"time":332.999667,"velocity":0.7165354330708661},{"duration":0.16666649999996253,"midi":83,"time":333.1663335,"velocity":0.7165354330708661},{"duration":0.6666660000000206,"midi":69,"time":333.33299999999997,"velocity":0.7165354330708661},{"duration":0.16666650000001937,"midi":76,"time":333.33299999999997,"velocity":0.7165354330708661},{"duration":0.16666650000001937,"midi":80,"time":333.4996665,"velocity":0.7165354330708661},{"duration":0.16666649999996253,"midi":85,"time":333.666333,"velocity":0.7165354330708661},{"duration":0.16666650000001937,"midi":80,"time":333.83299949999997,"velocity":0.7165354330708661},{"duration":0.16666650000001937,"midi":76,"time":333.999666,"velocity":0.7165354330708661},{"duration":0.3333329999999819,"midi":73,"time":333.999666,"velocity":0.7165354330708661},{"duration":0.16666649999996253,"midi":80,"time":334.1663325,"velocity":0.7165354330708661},{"duration":0.16666650000001937,"midi":85,"time":334.332999,"velocity":0.7165354330708661},{"duration":0.33333300000003874,"midi":76,"time":334.332999,"velocity":0.7165354330708661},{"duration":0.16666650000001937,"midi":80,"time":334.4996655,"velocity":0.7165354330708661},{"duration":0.6666659999999638,"midi":76,"time":334.666332,"velocity":0.7165354330708661},{"duration":0.16666649999996253,"midi":75,"time":334.666332,"velocity":0.7165354330708661},{"duration":0.16666650000001937,"midi":78,"time":334.8329985,"velocity":0.7165354330708661},{"duration":0.16666650000001937,"midi":83,"time":334.999665,"velocity":0.7165354330708661},{"duration":0.16666649999996253,"midi":78,"time":335.1663315,"velocity":0.7165354330708661},{"duration":0.16666650000001937,"midi":75,"time":335.332998,"velocity":0.7165354330708661},{"duration":0.33333300000003874,"midi":75,"time":335.332998,"velocity":0.7165354330708661},{"duration":0.16666650000001937,"midi":78,"time":335.4996645,"velocity":0.7165354330708661},{"duration":0.16666649999996253,"midi":83,"time":335.666331,"velocity":0.7165354330708661},{"duration":0.3333329999999819,"midi":76,"time":335.666331,"velocity":0.7165354330708661},{"duration":0.16666650000001937,"midi":78,"time":335.8329975,"velocity":0.7165354330708661},{"duration":0.49999950000000126,"midi":83,"time":335.999664,"velocity":0.7165354330708661},{"duration":0.16666650000001937,"midi":76,"time":335.999664,"velocity":0.7165354330708661},{"duration":0.16666649999996253,"midi":80,"time":336.1663305,"velocity":0.7165354330708661},{"duration":0.16666650000001937,"midi":85,"time":336.332997,"velocity":0.7165354330708661},{"duration":0.16666650000001937,"midi":80,"time":336.4996635,"velocity":0.7165354330708661},{"duration":0.49999950000000126,"midi":81,"time":336.4996635,"velocity":0.7165354330708661},{"duration":0.16666649999996253,"midi":76,"time":336.66633,"velocity":0.7165354330708661},{"duration":0.16666650000001937,"midi":80,"time":336.8329965,"velocity":0.7165354330708661},{"duration":0.16666650000001937,"midi":85,"time":336.999663,"velocity":0.7165354330708661},{"duration":0.16666649999996253,"midi":80,"time":337.1663295,"velocity":0.7165354330708661},{"duration":0.16666649999996253,"midi":80,"time":337.1663295,"velocity":0.7165354330708661},{"duration":0.16666650000001937,"midi":78,"time":337.332996,"velocity":0.7165354330708661},{"duration":0.16666649999996253,"midi":80,"time":337.4996625,"velocity":0.7165354330708661},{"duration":0.16666650000001937,"midi":78,"time":337.66632899999996,"velocity":0.7165354330708661},{"duration":0.16666650000001937,"midi":76,"time":337.8329955,"velocity":0.7165354330708661},{"duration":0.16666649999996253,"midi":75,"time":337.999662,"velocity":0.7165354330708661},{"duration":0.16666650000001937,"midi":72,"time":338.16632849999996,"velocity":0.7165354330708661},{"duration":0.16666650000001937,"midi":78,"time":338.332995,"velocity":0.7165354330708661},{"duration":0.3333329999999819,"midi":78,"time":338.332995,"velocity":0.7165354330708661},{"duration":0.16666649999996253,"midi":75,"time":338.4996615,"velocity":0.7165354330708661},{"duration":0.16666650000001937,"midi":76,"time":338.66632799999996,"velocity":0.7165354330708661},{"duration":0.49999950000000126,"midi":76,"time":338.66632799999996,"velocity":0.7165354330708661},{"duration":0.16666650000001937,"midi":80,"time":338.8329945,"velocity":0.7165354330708661},{"duration":0.16666649999996253,"midi":85,"time":338.999661,"velocity":0.7165354330708661},{"duration":0.49999950000000126,"midi":75,"time":339.16632749999997,"velocity":0.7165354330708661},{"duration":0.16666650000001937,"midi":80,"time":339.16632749999997,"velocity":0.7165354330708661},{"duration":0.16666650000001937,"midi":76,"time":339.332994,"velocity":0.7165354330708661},{"duration":0.16666649999996253,"midi":80,"time":339.4996605,"velocity":0.7165354330708661},{"duration":0.16666650000001937,"midi":85,"time":339.66632699999997,"velocity":0.7165354330708661},{"duration":0.33333300000003874,"midi":76,"time":339.66632699999997,"velocity":0.7165354330708661},{"duration":0.16666650000001937,"midi":80,"time":339.8329935,"velocity":0.7165354330708661},{"duration":0.16666649999996253,"midi":75,"time":339.99966,"velocity":0.7165354330708661},{"duration":0.16666650000001937,"midi":80,"time":340.16632649999997,"velocity":0.7165354330708661},{"duration":0.16666650000001937,"midi":83,"time":340.332993,"velocity":0.7165354330708661},{"duration":0.16666649999996253,"midi":80,"time":340.4996595,"velocity":0.7165354330708661},{"duration":0.16666650000001937,"midi":75,"time":340.66632599999997,"velocity":0.7165354330708661},{"duration":0.16666650000001937,"midi":80,"time":340.8329925,"velocity":0.7165354330708661},{"duration":0.16666650000001937,"midi":80,"time":340.8329925,"velocity":0.7165354330708661},{"duration":0.16666649999996253,"midi":83,"time":340.999659,"velocity":0.7165354330708661},{"duration":0.3333329999999819,"midi":75,"time":340.999659,"velocity":0.7165354330708661},{"duration":0.16666650000001937,"midi":80,"time":341.16632549999997,"velocity":0.7165354330708661},{"duration":0.16666650000001937,"midi":73,"time":341.332992,"velocity":0.7165354330708661},{"duration":0.16666649999996253,"midi":78,"time":341.4996585,"velocity":0.7165354330708661},{"duration":0.16666650000001937,"midi":82,"time":341.666325,"velocity":0.7165354330708661},{"duration":0.16666650000001937,"midi":78,"time":341.8329915,"velocity":0.7165354330708661},{"duration":0.16666649999996253,"midi":73,"time":341.999658,"velocity":0.7165354330708661},{"duration":0.6666659999999638,"midi":73,"time":341.999658,"velocity":0.7165354330708661},{"duration":0.16666650000001937,"midi":78,"time":342.1663245,"velocity":0.7165354330708661},{"duration":0.16666650000001937,"midi":82,"time":342.332991,"velocity":0.7165354330708661},{"duration":0.16666649999996253,"midi":78,"time":342.4996575,"velocity":0.7165354330708661},{"duration":0.16666650000001937,"midi":73,"time":342.666324,"velocity":0.7165354330708661},{"duration":0.33333300000003874,"midi":73,"time":342.666324,"velocity":0.7165354330708661},{"duration":0.16666650000001937,"midi":78,"time":342.8329905,"velocity":0.7165354330708661},{"duration":0.16666649999996253,"midi":82,"time":342.999657,"velocity":0.7165354330708661},{"duration":0.3333329999999819,"midi":76,"time":342.999657,"velocity":0.7165354330708661},{"duration":0.16666650000001937,"midi":78,"time":343.1663235,"velocity":0.7165354330708661},{"duration":0.16666650000001937,"midi":73,"time":343.33299,"velocity":0.7165354330708661},{"duration":0.16666649999996253,"midi":78,"time":343.4996565,"velocity":0.7165354330708661},{"duration":0.16666649999996253,"midi":78,"time":343.4996565,"velocity":0.7165354330708661},{"duration":0.16666650000001937,"midi":82,"time":343.666323,"velocity":0.7165354330708661},{"duration":0.33333300000003874,"midi":80,"time":343.666323,"velocity":0.7165354330708661},{"duration":0.16666650000001937,"midi":78,"time":343.8329895,"velocity":0.7165354330708661},{"duration":0.49999950000000126,"midi":81,"time":343.999656,"velocity":0.7165354330708661},{"duration":0.16666649999996253,"midi":76,"time":343.999656,"velocity":0.7165354330708661},{"duration":0.16666650000001937,"midi":80,"time":344.1663225,"velocity":0.7165354330708661},{"duration":0.16666650000001937,"midi":85,"time":344.332989,"velocity":0.7165354330708661},{"duration":0.16666649999996253,"midi":80,"time":344.4996555,"velocity":0.7165354330708661},{"duration":0.16666650000001937,"midi":76,"time":344.666322,"velocity":0.7165354330708661},{"duration":0.16666650000001937,"midi":80,"time":344.8329885,"velocity":0.7165354330708661},{"duration":0.16666650000001937,"midi":80,"time":344.8329885,"velocity":0.7165354330708661},{"duration":0.16666649999996253,"midi":85,"time":344.999655,"velocity":0.7165354330708661},{"duration":0.3333329999999819,"midi":78,"time":344.999655,"velocity":0.7165354330708661},{"duration":0.16666650000001937,"midi":80,"time":345.1663215,"velocity":0.7165354330708661},{"duration":0.16666649999996253,"midi":76,"time":345.332988,"velocity":0.7165354330708661},{"duration":0.3333329999999819,"midi":76,"time":345.332988,"velocity":0.7165354330708661},{"duration":0.16666650000001937,"midi":80,"time":345.49965449999996,"velocity":0.7165354330708661},{"duration":0.16666650000001937,"midi":85,"time":345.666321,"velocity":0.7165354330708661},{"duration":0.3333329999999819,"midi":73,"time":345.666321,"velocity":0.7165354330708661},{"duration":0.16666649999996253,"midi":80,"time":345.8329875,"velocity":0.7165354330708661},{"duration":0.16666650000001937,"midi":76,"time":345.99965399999996,"velocity":0.7165354330708661},{"duration":0.33333300000003874,"midi":76,"time":345.99965399999996,"velocity":0.7165354330708661},{"duration":0.16666650000001937,"midi":80,"time":346.1663205,"velocity":0.7165354330708661},{"duration":0.16666649999996253,"midi":85,"time":346.332987,"velocity":0.7165354330708661},{"duration":0.16666650000001937,"midi":80,"time":346.49965349999997,"velocity":0.7165354330708661},{"duration":0.16666650000001937,"midi":80,"time":346.49965349999997,"velocity":0.7165354330708661},{"duration":0.16666650000001937,"midi":78,"time":346.66632,"velocity":0.7165354330708661},{"duration":0.16666649999996253,"midi":83,"time":346.8329865,"velocity":0.7165354330708661},{"duration":0.16666650000001937,"midi":87,"time":346.99965299999997,"velocity":0.7165354330708661},{"duration":0.16666650000001937,"midi":83,"time":347.1663195,"velocity":0.7165354330708661},{"duration":0.16666649999996253,"midi":78,"time":347.332986,"velocity":0.7165354330708661},{"duration":0.6666659999999638,"midi":78,"time":347.332986,"velocity":0.7165354330708661},{"duration":0.16666650000001937,"midi":83,"time":347.49965249999997,"velocity":0.7165354330708661},{"duration":0.16666650000001937,"midi":87,"time":347.666319,"velocity":0.7165354330708661},{"duration":0.16666649999996253,"midi":83,"time":347.8329855,"velocity":0.7165354330708661},{"duration":0.16666650000001937,"midi":75,"time":347.99965199999997,"velocity":0.7165354330708661},{"duration":0.49999950000000126,"midi":75,"time":348.1663185,"velocity":0.7165354330708661},{"duration":0.16666650000001937,"midi":71,"time":348.666318,"velocity":0.7165354330708661},{"duration":0.49999950000000126,"midi":71,"time":348.8329845,"velocity":0.7165354330708661},{"duration":0.08333324999995284,"midi":61,"time":349.332984,"velocity":0.7165354330708661},{"duration":0.08333325000000968,"midi":64,"time":349.41631724999996,"velocity":0.7165354330708661},{"duration":0.08333325000000968,"midi":68,"time":349.4996505,"velocity":0.7165354330708661},{"duration":0.08333325000000968,"midi":73,"time":349.58298375,"velocity":0.7165354330708661},{"duration":0.08333325000000968,"midi":80,"time":349.666317,"velocity":0.7165354330708661},{"duration":0.08333325000000968,"midi":85,"time":349.74965025,"velocity":0.7165354330708661},{"duration":0.08333324999995284,"midi":88,"time":349.8329835,"velocity":0.7165354330708661},{"duration":0.08333325000000968,"midi":85,"time":349.99965,"velocity":0.7165354330708661},{"duration":0.08333325000000968,"midi":88,"time":350.1663165,"velocity":0.7165354330708661},{"duration":0.08333325000000968,"midi":85,"time":350.24964975,"velocity":0.7165354330708661},{"duration":0.08333324999995284,"midi":76,"time":350.332983,"velocity":0.7165354330708661},{"duration":0.08333325000000968,"midi":73,"time":350.41631624999997,"velocity":0.7165354330708661},{"duration":0.08333325000000968,"midi":68,"time":350.4996495,"velocity":0.7165354330708661},{"duration":0.08333325000000968,"midi":64,"time":350.58298275,"velocity":0.7165354330708661},{"duration":0.08333325000000968,"midi":61,"time":350.666316,"velocity":0.7165354330708661},{"duration":0.08333325000000968,"midi":64,"time":350.74964925,"velocity":0.7165354330708661},{"duration":0.08333324999995284,"midi":68,"time":350.8329825,"velocity":0.7165354330708661},{"duration":0.08333325000000968,"midi":73,"time":350.91631574999997,"velocity":0.7165354330708661},{"duration":0.6666660000000206,"midi":73,"time":350.91631574999997,"velocity":0.7165354330708661},{"duration":0.08333325000000968,"midi":80,"time":350.999649,"velocity":0.7165354330708661},{"duration":0.08333325000000968,"midi":85,"time":351.08298225,"velocity":0.7165354330708661},{"duration":0.3333329999999819,"midi":85,"time":351.08298225,"velocity":0.7165354330708661},{"duration":0.08333325000000968,"midi":88,"time":351.1663155,"velocity":0.7165354330708661},{"duration":0.2499997499999722,"midi":85,"time":351.332982,"velocity":0.7165354330708661},{"duration":0.08333325000000968,"midi":88,"time":351.4996485,"velocity":0.7165354330708661},{"duration":0.08333325000000968,"midi":85,"time":351.58298175,"velocity":0.7165354330708661},{"duration":0.3333329999999819,"midi":88,"time":351.666315,"velocity":0.7165354330708661},{"duration":0.08333325000000968,"midi":76,"time":351.666315,"velocity":0.7165354330708661},{"duration":0.3333329999999819,"midi":76,"time":351.666315,"velocity":0.7165354330708661},{"duration":0.08333325000000968,"midi":73,"time":351.74964825,"velocity":0.7165354330708661},{"duration":0.08333324999995284,"midi":68,"time":351.8329815,"velocity":0.7165354330708661},{"duration":0.08333325000000968,"midi":64,"time":351.91631474999997,"velocity":0.7165354330708661},{"duration":0.08333325000000968,"midi":59,"time":351.999648,"velocity":0.7165354330708661},{"duration":0.08333325000000968,"midi":63,"time":352.08298125,"velocity":0.7165354330708661},{"duration":0.08333325000000968,"midi":66,"time":352.1663145,"velocity":0.7165354330708661},{"duration":0.08333325000000968,"midi":71,"time":352.24964775,"velocity":0.7165354330708661},{"duration":0.08333324999995284,"midi":78,"time":352.332981,"velocity":0.7165354330708661},{"duration":0.08333325000000968,"midi":83,"time":352.41631424999997,"velocity":0.7165354330708661},{"duration":0.08333325000000968,"midi":87,"time":352.4996475,"velocity":0.7165354330708661},{"duration":0.08333325000000968,"midi":87,"time":352.83298049999996,"velocity":0.7165354330708661},{"duration":0.08333325000000968,"midi":83,"time":352.91631375,"velocity":0.7165354330708661},{"duration":0.08333325000000968,"midi":75,"time":352.999647,"velocity":0.7165354330708661},{"duration":0.9166657499999928,"midi":75,"time":352.999647,"velocity":0.7165354330708661},{"duration":0.08333325000000968,"midi":71,"time":353.08298025,"velocity":0.7165354330708661},{"duration":0.08333325000000968,"midi":66,"time":353.1663135,"velocity":0.7165354330708661},{"duration":0.08333324999995284,"midi":63,"time":353.24964675,"velocity":0.7165354330708661},{"duration":0.08333325000000968,"midi":59,"time":353.33297999999996,"velocity":0.7165354330708661},{"duration":0.08333325000000968,"midi":63,"time":353.41631325,"velocity":0.7165354330708661},{"duration":0.08333325000000968,"midi":66,"time":353.4996465,"velocity":0.7165354330708661},{"duration":0.08333325000000968,"midi":71,"time":353.58297975,"velocity":0.7165354330708661},{"duration":0.08333325000000968,"midi":78,"time":353.666313,"velocity":0.7165354330708661},{"duration":0.08333324999995284,"midi":83,"time":353.74964625,"velocity":0.7165354330708661},{"duration":0.08333325000000968,"midi":87,"time":353.83297949999996,"velocity":0.7165354330708661},{"duration":0.08333325000000968,"midi":87,"time":353.83297949999996,"velocity":0.7165354330708661},{"duration":0.3333329999999819,"midi":68,"time":353.999646,"velocity":0.7165354330708661},{"duration":0.3333329999999819,"midi":80,"time":353.999646,"velocity":0.7165354330708661},{"duration":0.08333325000000968,"midi":87,"time":354.1663125,"velocity":0.7165354330708661},{"duration":0.08333324999995284,"midi":83,"time":354.24964575,"velocity":0.7165354330708661},{"duration":0.08333325000000968,"midi":75,"time":354.33297899999997,"velocity":0.7165354330708661},{"duration":0.33333300000003874,"midi":83,"time":354.33297899999997,"velocity":0.7165354330708661},{"duration":0.08333325000000968,"midi":71,"time":354.41631225,"velocity":0.7165354330708661},{"duration":0.24999975000002905,"midi":71,"time":354.41631225,"velocity":0.7165354330708661},{"duration":0.08333325000000968,"midi":66,"time":354.4996455,"velocity":0.7165354330708661},{"duration":0.08333325000000968,"midi":63,"time":354.58297875,"velocity":0.7165354330708661},{"duration":0.08333325000000968,"midi":58,"time":354.666312,"velocity":0.7165354330708661},{"duration":1.5833317499999566,"midi":73,"time":354.666312,"velocity":0.7165354330708661},{"duration":1.5833317499999566,"midi":85,"time":354.666312,"velocity":0.7165354330708661},{"duration":0.08333324999995284,"midi":63,"time":354.74964525,"velocity":0.7165354330708661},{"duration":0.08333325000000968,"midi":66,"time":354.83297849999997,"velocity":0.7165354330708661},{"duration":0.08333325000000968,"midi":70,"time":354.91631175,"velocity":0.7165354330708661},{"duration":0.08333325000000968,"midi":78,"time":354.999645,"velocity":0.7165354330708661},{"duration":0.08333325000000968,"midi":82,"time":355.08297825,"velocity":0.7165354330708661},{"duration":0.08333325000000968,"midi":87,"time":355.1663115,"velocity":0.7165354330708661},{"duration":0.08333325000000968,"midi":87,"time":355.4996445,"velocity":0.7165354330708661},{"duration":0.08333325000000968,"midi":82,"time":355.58297775,"velocity":0.7165354330708661},{"duration":0.08333325000000968,"midi":75,"time":355.666311,"velocity":0.7165354330708661},{"duration":0.08333324999995284,"midi":70,"time":355.74964425,"velocity":0.7165354330708661},{"duration":0.08333325000000968,"midi":66,"time":355.83297749999997,"velocity":0.7165354330708661},{"duration":0.08333325000000968,"midi":63,"time":355.91631075,"velocity":0.7165354330708661},{"duration":0.08333325000000968,"midi":58,"time":355.999644,"velocity":0.7165354330708661},{"duration":0.08333325000000968,"midi":63,"time":356.08297725,"velocity":0.7165354330708661},{"duration":0.08333324999995284,"midi":66,"time":356.1663105,"velocity":0.7165354330708661},{"duration":0.08333325000000968,"midi":70,"time":356.24964374999996,"velocity":0.7165354330708661},{"duration":0.33333300000003874,"midi":83,"time":356.33297699999997,"velocity":0.7165354330708661},{"duration":0.33333300000003874,"midi":71,"time":356.33297699999997,"velocity":0.7165354330708661},{"duration":0.08333325000000968,"midi":78,"time":356.33297699999997,"velocity":0.7165354330708661},{"duration":0.08333325000000968,"midi":82,"time":356.41631025,"velocity":0.7165354330708661},{"duration":0.08333325000000968,"midi":87,"time":356.4996435,"velocity":0.7165354330708661},{"duration":0.3333329999999819,"midi":73,"time":356.66631,"velocity":0.7165354330708661},{"duration":0.3333329999999819,"midi":85,"time":356.66631,"velocity":0.7165354330708661},{"duration":0.08333325000000968,"midi":87,"time":356.8329765,"velocity":0.7165354330708661},{"duration":0.08333325000000968,"midi":82,"time":356.91630975,"velocity":0.7165354330708661},{"duration":0.08333325000000968,"midi":75,"time":356.999643,"velocity":0.7165354330708661},{"duration":0.3333329999999819,"midi":80,"time":356.999643,"velocity":0.7165354330708661},{"duration":0.08333325000000968,"midi":70,"time":357.08297625,"velocity":0.7165354330708661},{"duration":0.08333324999995284,"midi":66,"time":357.1663095,"velocity":0.7165354330708661},{"duration":0.08333325000000968,"midi":63,"time":357.24964274999996,"velocity":0.7165354330708661},{"duration":0.08333325000000968,"midi":57,"time":357.332976,"velocity":0.7165354330708661},{"duration":0.08333325000000968,"midi":62,"time":357.41630925,"velocity":0.7165354330708661},{"duration":0.08333325000000968,"midi":66,"time":357.4996425,"velocity":0.7165354330708661},{"duration":0.08333325000000968,"midi":69,"time":357.58297575,"velocity":0.7165354330708661},{"duration":0.08333324999995284,"midi":78,"time":357.666309,"velocity":0.7165354330708661},{"duration":0.9999990000000025,"midi":78,"time":357.666309,"velocity":0.7165354330708661},{"duration":0.08333325000000968,"midi":81,"time":357.74964224999997,"velocity":0.7165354330708661},{"duration":0.08333325000000968,"midi":86,"time":357.8329755,"velocity":0.7165354330708661},{"duration":0.08333324999995284,"midi":86,"time":358.1663085,"velocity":0.7165354330708661},{"duration":0.08333325000000968,"midi":81,"time":358.24964174999997,"velocity":0.7165354330708661},{"duration":0.08333325000000968,"midi":74,"time":358.332975,"velocity":0.7165354330708661},{"duration":0.08333325000000968,"midi":69,"time":358.41630825,"velocity":0.7165354330708661},{"duration":0.08333325000000968,"midi":66,"time":358.4996415,"velocity":0.7165354330708661},{"duration":0.08333325000000968,"midi":62,"time":358.58297475,"velocity":0.7165354330708661},{"duration":0.3333329999999819,"midi":81,"time":358.666308,"velocity":0.7165354330708661},{"duration":0.08333324999995284,"midi":57,"time":358.666308,"velocity":0.7165354330708661},{"duration":0.08333325000000968,"midi":62,"time":358.74964124999997,"velocity":0.7165354330708661},{"duration":0.08333325000000968,"midi":66,"time":358.8329745,"velocity":0.7165354330708661},{"duration":0.08333325000000968,"midi":69,"time":358.91630775,"velocity":0.7165354330708661},{"duration":0.08333325000000968,"midi":78,"time":358.999641,"velocity":0.7165354330708661},{"duration":0.3333329999999819,"midi":80,"time":358.999641,"velocity":0.7165354330708661},{"duration":0.08333325000000968,"midi":81,"time":359.08297425,"velocity":0.7165354330708661},{"duration":0.08333324999995284,"midi":86,"time":359.1663075,"velocity":0.7165354330708661},{"duration":0.33333300000003874,"midi":78,"time":359.332974,"velocity":0.7165354330708661},{"duration":0.08333325000000968,"midi":86,"time":359.4996405,"velocity":0.7165354330708661},{"duration":0.08333325000000968,"midi":81,"time":359.58297375,"velocity":0.7165354330708661},{"duration":0.08333324999995284,"midi":74,"time":359.666307,"velocity":0.7165354330708661},{"duration":0.3333329999999819,"midi":80,"time":359.666307,"velocity":0.7165354330708661},{"duration":0.08333325000000968,"midi":69,"time":359.74964024999997,"velocity":0.7165354330708661},{"duration":0.08333325000000968,"midi":66,"time":359.8329735,"velocity":0.7165354330708661},{"duration":0.08333325000000968,"midi":62,"time":359.91630675,"velocity":0.7165354330708661},{"duration":0.08333325000000968,"midi":61,"time":359.99964,"velocity":0.7165354330708661},{"duration":0.08333324999995284,"midi":64,"time":360.08297325,"velocity":0.7165354330708661},{"duration":0.08333325000000968,"midi":68,"time":360.16630649999996,"velocity":0.7165354330708661},{"duration":0.08333325000000968,"midi":73,"time":360.24963975,"velocity":0.7165354330708661},{"duration":0.08333325000000968,"midi":80,"time":360.332973,"velocity":0.7165354330708661},{"duration":0.08333325000000968,"midi":85,"time":360.41630625,"velocity":0.7165354330708661},{"duration":0.08333325000000968,"midi":88,"time":360.4996395,"velocity":0.7165354330708661},{"duration":0.08333325000000968,"midi":85,"time":360.66630599999996,"velocity":0.7165354330708661},{"duration":0.08333325000000968,"midi":88,"time":360.8329725,"velocity":0.7165354330708661},{"duration":0.7499992500000303,"midi":88,"time":360.8329725,"velocity":0.7165354330708661},{"duration":0.08333325000000968,"midi":85,"time":360.91630575,"velocity":0.7165354330708661},{"duration":0.08333325000000968,"midi":76,"time":360.999639,"velocity":0.7165354330708661},{"duration":0.583332750000011,"midi":76,"time":360.999639,"velocity":0.7165354330708661},{"duration":0.08333324999995284,"midi":73,"time":361.08297225,"velocity":0.7165354330708661},{"duration":0.08333325000000968,"midi":68,"time":361.16630549999996,"velocity":0.7165354330708661},{"duration":0.08333325000000968,"midi":64,"time":361.24963875,"velocity":0.7165354330708661},{"duration":0.08333325000000968,"midi":61,"time":361.332972,"velocity":0.7165354330708661},{"duration":0.08333325000000968,"midi":64,"time":361.41630525,"velocity":0.7165354330708661},{"duration":0.08333325000000968,"midi":68,"time":361.4996385,"velocity":0.7165354330708661},{"duration":0.08333324999995284,"midi":73,"time":361.58297175,"velocity":0.7165354330708661},{"duration":0.08333325000000968,"midi":80,"time":361.66630499999997,"velocity":0.7165354330708661},{"duration":0.33333300000003874,"midi":73,"time":361.66630499999997,"velocity":0.7165354330708661},{"duration":0.08333325000000968,"midi":85,"time":361.74963825,"velocity":0.7165354330708661},{"duration":0.24999975000002905,"midi":85,"time":361.74963825,"velocity":0.7165354330708661},{"duration":0.08333325000000968,"midi":88,"time":361.8329715,"velocity":0.7165354330708661},{"duration":0.08333325000000968,"midi":85,"time":361.999638,"velocity":0.7165354330708661},{"duration":0.3333329999999819,"midi":76,"time":361.999638,"velocity":0.7165354330708661},{"duration":0.08333325000000968,"midi":88,"time":362.16630449999997,"velocity":0.7165354330708661},{"duration":0.16666650000001937,"midi":88,"time":362.16630449999997,"velocity":0.7165354330708661},{"duration":0.08333325000000968,"midi":85,"time":362.24963775,"velocity":0.7165354330708661},{"duration":0.3333329999999819,"midi":80,"time":362.332971,"velocity":0.7165354330708661},{"duration":0.08333325000000968,"midi":76,"time":362.332971,"velocity":0.7165354330708661},{"duration":0.08333325000000968,"midi":73,"time":362.41630425,"velocity":0.7165354330708661},{"duration":0.08333325000000968,"midi":68,"time":362.4996375,"velocity":0.7165354330708661},{"duration":0.08333324999995284,"midi":64,"time":362.58297075,"velocity":0.7165354330708661},{"duration":0.08333325000000968,"midi":62,"time":362.66630399999997,"velocity":0.7165354330708661},{"duration":0.08333325000000968,"midi":66,"time":362.74963725,"velocity":0.7165354330708661},{"duration":0.08333325000000968,"midi":68,"time":362.8329705,"velocity":0.7165354330708661},{"duration":0.08333325000000968,"midi":74,"time":362.91630375,"velocity":0.7165354330708661},{"duration":0.08333325000000968,"midi":80,"time":362.999637,"velocity":0.7165354330708661},{"duration":0.9999990000000025,"midi":80,"time":362.999637,"velocity":0.7165354330708661},{"duration":0.08333324999995284,"midi":86,"time":363.08297025,"velocity":0.7165354330708661},{"duration":0.08333325000000968,"midi":85,"time":363.33297,"velocity":0.7165354330708661},{"duration":0.08333324999995284,"midi":86,"time":363.58296975,"velocity":0.7165354330708661},{"duration":0.08333325000000968,"midi":81,"time":363.66630299999997,"velocity":0.7165354330708661},{"duration":0.08333325000000968,"midi":74,"time":363.74963625,"velocity":0.7165354330708661},{"duration":0.08333325000000968,"midi":68,"time":363.8329695,"velocity":0.7165354330708661},{"duration":0.08333325000000968,"midi":66,"time":363.91630275,"velocity":0.7165354330708661},{"duration":0.9999990000000025,"midi":78,"time":363.999636,"velocity":0.7165354330708661},{"duration":0.08333324999995284,"midi":62,"time":363.999636,"velocity":0.7165354330708661},{"duration":0.08333325000000968,"midi":66,"time":364.08296924999996,"velocity":0.7165354330708661},{"duration":0.08333325000000968,"midi":68,"time":364.1663025,"velocity":0.7165354330708661},{"duration":0.08333325000000968,"midi":74,"time":364.24963575,"velocity":0.7165354330708661},{"duration":0.08333325000000968,"midi":80,"time":364.332969,"velocity":0.7165354330708661},{"duration":0.08333325000000968,"midi":86,"time":364.41630225,"velocity":0.7165354330708661},{"duration":0.08333325000000968,"midi":85,"time":364.666302,"velocity":0.7165354330708661},{"duration":0.08333325000000968,"midi":86,"time":364.91630175,"velocity":0.7165354330708661},{"duration":0.08333324999995284,"midi":81,"time":364.999635,"velocity":0.7165354330708661},{"duration":0.3333329999999819,"midi":80,"time":364.999635,"velocity":0.7165354330708661},{"duration":0.08333325000000968,"midi":74,"time":365.08296824999996,"velocity":0.7165354330708661},{"duration":0.08333325000000968,"midi":68,"time":365.1663015,"velocity":0.7165354330708661},{"duration":0.08333325000000968,"midi":66,"time":365.24963475,"velocity":0.7165354330708661},{"duration":0.08333325000000968,"midi":63,"time":365.332968,"velocity":0.7165354330708661},{"duration":1.5833317500000135,"midi":73,"time":365.332968,"velocity":0.7165354330708661},{"duration":1.5833317500000135,"midi":85,"time":365.332968,"velocity":0.7165354330708661},{"duration":0.08333325000000968,"midi":66,"time":365.41630125,"velocity":0.7165354330708661},{"duration":0.08333324999995284,"midi":70,"time":365.4996345,"velocity":0.7165354330708661},{"duration":0.08333325000000968,"midi":75,"time":365.58296774999997,"velocity":0.7165354330708661},{"duration":0.08333325000000968,"midi":82,"time":365.666301,"velocity":0.7165354330708661},{"duration":0.08333325000000968,"midi":87,"time":365.74963425,"velocity":0.7165354330708661},{"duration":0.08333324999995284,"midi":87,"time":365.999634,"velocity":0.7165354330708661},{"duration":0.08333325000000968,"midi":87,"time":366.24963375,"velocity":0.7165354330708661},{"duration":0.08333325000000968,"midi":82,"time":366.332967,"velocity":0.7165354330708661},{"duration":0.08333325000000968,"midi":75,"time":366.41630025,"velocity":0.7165354330708661},{"duration":0.08333324999995284,"midi":70,"time":366.4996335,"velocity":0.7165354330708661},{"duration":0.08333325000000968,"midi":66,"time":366.58296674999997,"velocity":0.7165354330708661},{"duration":0.08333325000000968,"midi":63,"time":366.6663,"velocity":0.7165354330708661},{"duration":0.08333325000000968,"midi":66,"time":366.74963325,"velocity":0.7165354330708661},{"duration":0.08333325000000968,"midi":70,"time":366.8329665,"velocity":0.7165354330708661},{"duration":0.08333325000000968,"midi":75,"time":366.91629975,"velocity":0.7165354330708661},{"duration":0.3333329999999819,"midi":80,"time":366.999633,"velocity":0.7165354330708661},{"duration":0.3333329999999819,"midi":68,"time":366.999633,"velocity":0.7165354330708661},{"duration":0.08333324999995284,"midi":82,"time":366.999633,"velocity":0.7165354330708661},{"duration":0.08333325000000968,"midi":87,"time":367.08296624999997,"velocity":0.7165354330708661},{"duration":0.3333329999999819,"midi":73,"time":367.332966,"velocity":0.7165354330708661},{"duration":0.3333329999999819,"midi":85,"time":367.332966,"velocity":0.7165354330708661},{"duration":0.08333325000000968,"midi":87,"time":367.332966,"velocity":0.7165354330708661},{"duration":0.08333325000000968,"midi":87,"time":367.58296574999997,"velocity":0.7165354330708661},{"duration":0.08333325000000968,"midi":82,"time":367.666299,"velocity":0.7165354330708661},{"duration":0.3333329999999819,"midi":80,"time":367.666299,"velocity":0.7165354330708661},{"duration":0.08333325000000968,"midi":75,"time":367.74963225,"velocity":0.7165354330708661},{"duration":0.08333325000000968,"midi":70,"time":367.8329655,"velocity":0.7165354330708661},{"duration":0.08333324999995284,"midi":66,"time":367.91629875,"velocity":0.7165354330708661},{"duration":0.08333325000000968,"midi":60,"time":367.99963199999996,"velocity":0.7165354330708661},{"duration":0.7499992500000303,"midi":85,"time":367.99963199999996,"velocity":0.7165354330708661},{"duration":0.08333325000000968,"midi":63,"time":368.08296525,"velocity":0.7165354330708661},{"duration":0.08333325000000968,"midi":68,"time":368.1662985,"velocity":0.7165354330708661},{"duration":0.08333325000000968,"midi":72,"time":368.24963175,"velocity":0.7165354330708661},{"duration":0.08333325000000968,"midi":80,"time":368.332965,"velocity":0.7165354330708661},{"duration":0.08333324999995284,"midi":84,"time":368.41629825,"velocity":0.7165354330708661},{"duration":0.08333325000000968,"midi":87,"time":368.49963149999996,"velocity":0.7165354330708661},{"duration":0.6666660000000206,"midi":85,"time":368.666298,"velocity":0.7165354330708661},{"duration":0.6666660000000206,"midi":85,"time":368.666298,"velocity":0.7165354330708661},{"duration":0.08333325000000968,"midi":87,"time":368.8329645,"velocity":0.7165354330708661},{"duration":0.08333324999995284,"midi":84,"time":368.91629775,"velocity":0.7165354330708661},{"duration":0.08333325000000968,"midi":80,"time":368.99963099999997,"velocity":0.7165354330708661},{"duration":0.08333325000000968,"midi":75,"time":369.08296425,"velocity":0.7165354330708661},{"duration":0.08333325000000968,"midi":72,"time":369.1662975,"velocity":0.7165354330708661},{"duration":0.08333325000000968,"midi":68,"time":369.24963075,"velocity":0.7165354330708661},{"duration":0.08333325000000968,"midi":60,"time":369.332964,"velocity":0.7165354330708661},{"duration":0.08333324999995284,"midi":63,"time":369.41629725,"velocity":0.7165354330708661},{"duration":0.08333325000000968,"midi":68,"time":369.49963049999997,"velocity":0.7165354330708661},{"duration":0.08333325000000968,"midi":72,"time":369.58296375,"velocity":0.7165354330708661},{"duration":0.08333325000000968,"midi":80,"time":369.666297,"velocity":0.7165354330708661},{"duration":0.08333325000000968,"midi":84,"time":369.74963025,"velocity":0.7165354330708661},{"duration":0.08333325000000968,"midi":87,"time":369.8329635,"velocity":0.7165354330708661},{"duration":0.08333325000000968,"midi":84,"time":369.99962999999997,"velocity":0.7165354330708661},{"duration":0.33333300000003874,"midi":84,"time":369.99962999999997,"velocity":0.7165354330708661},{"duration":0.08333325000000968,"midi":87,"time":370.1662965,"velocity":0.7165354330708661},{"duration":0.4166662499999916,"midi":84,"time":370.24962975,"velocity":0.7165354330708661},{"duration":0.4166662499999916,"midi":84,"time":370.24962975,"velocity":0.7165354330708661},{"duration":0.08333325000000968,"midi":80,"time":370.332963,"velocity":0.7165354330708661},{"duration":0.08333324999995284,"midi":75,"time":370.41629625,"velocity":0.7165354330708661},{"duration":0.08333325000000968,"midi":72,"time":370.49962949999997,"velocity":0.7165354330708661},{"duration":0.08333325000000968,"midi":68,"time":370.58296275,"velocity":0.7165354330708661}]},{"instrument":{"family":"drums","number":255},"notes":[{"duration":0.16666649999999983,"midi":42,"time":12.666654,"velocity":0.23622047244094488},{"duration":0.16666649999999983,"midi":45,"time":12.8333205,"velocity":0.23622047244094488},{"duration":0.16666649999999983,"midi":42,"time":12.999986999999999,"velocity":0.23622047244094488},{"duration":0.1666665000000016,"midi":45,"time":13.166653499999999,"velocity":0.23622047244094488},{"duration":0.16666649999999983,"midi":40,"time":13.33332,"velocity":0.23622047244094488},{"duration":0.16666649999999983,"midi":40,"time":13.4999865,"velocity":0.23622047244094488},{"duration":0.16666649999999983,"midi":42,"time":13.666653,"velocity":0.23622047244094488},{"duration":0.16666649999999983,"midi":40,"time":13.8333195,"velocity":0.23622047244094488},{"duration":0.16666649999999983,"midi":40,"time":13.999986,"velocity":0.23622047244094488},{"duration":0.16666649999999983,"midi":42,"time":14.1666525,"velocity":0.23622047244094488},{"duration":0.16666649999999983,"midi":40,"time":14.333319,"velocity":0.23622047244094488},{"duration":0.16666649999999983,"midi":40,"time":14.4999855,"velocity":0.23622047244094488},{"duration":0.16666649999999983,"midi":41,"time":14.666652,"velocity":0.23622047244094488},{"duration":0.16666649999999983,"midi":40,"time":14.666652,"velocity":0.23622047244094488},{"duration":0.16666649999999983,"midi":40,"time":14.833318499999999,"velocity":0.23622047244094488},{"duration":0.16666649999999983,"midi":41,"time":14.833318499999999,"velocity":0.23622047244094488},{"duration":0.1666665000000016,"midi":42,"time":14.999984999999999,"velocity":0.23622047244094488},{"duration":0.16666649999999983,"midi":40,"time":15.1666515,"velocity":0.23622047244094488},{"duration":0.16666649999999983,"midi":40,"time":15.333318,"velocity":0.23622047244094488},{"duration":0.16666649999999983,"midi":42,"time":15.4999845,"velocity":0.23622047244094488},{"duration":0.16666649999999983,"midi":40,"time":15.666651,"velocity":0.23622047244094488},{"duration":0.16666649999999983,"midi":40,"time":15.8333175,"velocity":0.23622047244094488},{"duration":0.16666649999999983,"midi":41,"time":15.999984,"velocity":0.23622047244094488},{"duration":0.16666649999999983,"midi":40,"time":15.999984,"velocity":0.23622047244094488},{"duration":0.1666665000000016,"midi":40,"time":16.1666505,"velocity":0.23622047244094488},{"duration":0.1666665000000016,"midi":41,"time":16.1666505,"velocity":0.23622047244094488},{"duration":0.16666649999999805,"midi":42,"time":16.333317,"velocity":0.23622047244094488},{"duration":0.1666665000000016,"midi":40,"time":16.4999835,"velocity":0.23622047244094488},{"duration":0.16666649999999805,"midi":40,"time":16.66665,"velocity":0.23622047244094488},{"duration":0.1666665000000016,"midi":42,"time":16.8333165,"velocity":0.23622047244094488},{"duration":0.16666649999999805,"midi":40,"time":16.999983,"velocity":0.23622047244094488},{"duration":0.1666665000000016,"midi":40,"time":17.1666495,"velocity":0.23622047244094488},{"duration":0.16666649999999805,"midi":41,"time":17.333316,"velocity":0.23622047244094488},{"duration":0.16666649999999805,"midi":40,"time":17.333316,"velocity":0.23622047244094488},{"duration":0.1666665000000016,"midi":41,"time":17.499982499999998,"velocity":0.23622047244094488},{"duration":0.1666665000000016,"midi":40,"time":17.499982499999998,"velocity":0.23622047244094488},{"duration":0.1666665000000016,"midi":42,"time":17.666649,"velocity":0.23622047244094488},{"duration":0.16666649999999805,"midi":40,"time":17.8333155,"velocity":0.23622047244094488},{"duration":0.1666665000000016,"midi":40,"time":17.999982,"velocity":0.23622047244094488},{"duration":0.16666649999999805,"midi":42,"time":18.1666485,"velocity":0.23622047244094488},{"duration":0.1666665000000016,"midi":40,"time":18.333315,"velocity":0.23622047244094488},{"duration":0.16666649999999805,"midi":40,"time":18.4999815,"velocity":0.23622047244094488},{"duration":0.1666665000000016,"midi":41,"time":18.666648,"velocity":0.23622047244094488},{"duration":0.1666665000000016,"midi":40,"time":18.666648,"velocity":0.23622047244094488},{"duration":0.16666649999999805,"midi":41,"time":18.8333145,"velocity":0.23622047244094488},{"duration":0.16666649999999805,"midi":40,"time":18.8333145,"velocity":0.23622047244094488},{"duration":0.1666665000000016,"midi":42,"time":18.999981,"velocity":0.23622047244094488},{"duration":0.16666649999999805,"midi":40,"time":19.1666475,"velocity":0.23622047244094488},{"duration":0.1666665000000016,"midi":40,"time":19.333313999999998,"velocity":0.23622047244094488},{"duration":0.1666665000000016,"midi":42,"time":19.4999805,"velocity":0.23622047244094488},{"duration":0.16666649999999805,"midi":40,"time":19.666647,"velocity":0.23622047244094488},{"duration":0.1666665000000016,"midi":40,"time":19.8333135,"velocity":0.23622047244094488},{"duration":0.16666649999999805,"midi":41,"time":19.99998,"velocity":0.23622047244094488},{"duration":0.16666649999999805,"midi":40,"time":19.99998,"velocity":0.23622047244094488},{"duration":0.1666665000000016,"midi":40,"time":20.1666465,"velocity":0.23622047244094488},{"duration":0.1666665000000016,"midi":41,"time":20.1666465,"velocity":0.23622047244094488},{"duration":0.16666649999999805,"midi":42,"time":20.333313,"velocity":0.23622047244094488},{"duration":0.1666665000000016,"midi":40,"time":20.4999795,"velocity":0.23622047244094488},{"duration":0.16666649999999805,"midi":40,"time":20.666646,"velocity":0.23622047244094488},{"duration":0.1666665000000016,"midi":42,"time":20.833312499999998,"velocity":0.23622047244094488},{"duration":0.16666649999999805,"midi":40,"time":20.999979,"velocity":0.23622047244094488},{"duration":0.1666665000000016,"midi":40,"time":21.166645499999998,"velocity":0.23622047244094488},{"duration":0.1666665000000016,"midi":40,"time":21.333312,"velocity":0.23622047244094488},{"duration":0.1666665000000016,"midi":41,"time":21.333312,"velocity":0.23622047244094488},{"duration":0.16666649999999805,"midi":40,"time":21.4999785,"velocity":0.23622047244094488},{"duration":0.16666649999999805,"midi":41,"time":21.4999785,"velocity":0.23622047244094488},{"duration":0.1666665000000016,"midi":42,"time":21.666645,"velocity":0.23622047244094488},{"duration":0.16666649999999805,"midi":40,"time":21.8333115,"velocity":0.23622047244094488},{"duration":0.1666665000000016,"midi":40,"time":21.999978,"velocity":0.23622047244094488},{"duration":0.16666649999999805,"midi":42,"time":22.1666445,"velocity":0.23622047244094488},{"duration":0.1666665000000016,"midi":40,"time":22.333311,"velocity":0.23622047244094488},{"duration":0.16666649999999805,"midi":40,"time":22.4999775,"velocity":0.23622047244094488},{"duration":0.33333299999999966,"midi":41,"time":22.666643999999998,"velocity":0.23622047244094488},{"duration":0.3333330000000032,"midi":41,"time":22.999976999999998,"velocity":0.23622047244094488},{"duration":0.33333299999999966,"midi":41,"time":23.33331,"velocity":0.23622047244094488},{"duration":0.33333299999999966,"midi":41,"time":23.666643,"velocity":0.23622047244094488},{"duration":0.16666649999999805,"midi":40,"time":23.999976,"velocity":0.23622047244094488},{"duration":0.16666649999999805,"midi":41,"time":23.999976,"velocity":0.23622047244094488},{"duration":0.16666649999999805,"midi":45,"time":23.999976,"velocity":0.23622047244094488},{"duration":0.1666665000000016,"midi":45,"time":24.1666425,"velocity":0.23622047244094488},{"duration":0.16666649999999805,"midi":45,"time":24.333309,"velocity":0.23622047244094488},{"duration":0.1666665000000016,"midi":41,"time":24.499975499999998,"velocity":0.23622047244094488},{"duration":0.1666665000000016,"midi":40,"time":24.499975499999998,"velocity":0.23622047244094488},{"duration":0.1666665000000016,"midi":45,"time":24.499975499999998,"velocity":0.23622047244094488},{"duration":0.16666649999999805,"midi":42,"time":24.666642,"velocity":0.23622047244094488},{"duration":0.16666649999999805,"midi":45,"time":24.666642,"velocity":0.23622047244094488},{"duration":0.1666665000000016,"midi":45,"time":24.833308499999998,"velocity":0.23622047244094488},{"duration":0.1666665000000016,"midi":45,"time":24.999975,"velocity":0.23622047244094488},{"duration":0.16666649999999805,"midi":45,"time":25.1666415,"velocity":0.23622047244094488},{"duration":0.1666665000000016,"midi":40,"time":25.333308,"velocity":0.23622047244094488},{"duration":0.1666665000000016,"midi":41,"time":25.333308,"velocity":0.23622047244094488},{"duration":0.1666665000000016,"midi":45,"time":25.333308,"velocity":0.23622047244094488},{"duration":0.16666649999999805,"midi":45,"time":25.4999745,"velocity":0.23622047244094488},{"duration":0.1666665000000016,"midi":45,"time":25.666641,"velocity":0.23622047244094488},{"duration":0.16666649999999805,"midi":41,"time":25.8333075,"velocity":0.23622047244094488},{"duration":0.16666649999999805,"midi":45,"time":25.8333075,"velocity":0.23622047244094488},{"duration":0.16666649999999805,"midi":40,"time":25.8333075,"velocity":0.23622047244094488},{"duration":0.1666665000000016,"midi":45,"time":25.999973999999998,"velocity":0.23622047244094488},{"duration":0.1666665000000016,"midi":42,"time":25.999973999999998,"velocity":0.23622047244094488},{"duration":0.16666649999999805,"midi":45,"time":26.1666405,"velocity":0.23622047244094488},{"duration":0.1666665000000016,"midi":45,"time":26.333306999999998,"velocity":0.23622047244094488},{"duration":0.1666665000000016,"midi":45,"time":26.4999735,"velocity":0.23622047244094488},{"duration":0.16666649999999805,"midi":45,"time":26.66664,"velocity":0.23622047244094488},{"duration":0.16666649999999805,"midi":41,"time":26.66664,"velocity":0.23622047244094488},{"duration":0.16666649999999805,"midi":40,"time":26.66664,"velocity":0.23622047244094488},{"duration":0.1666665000000016,"midi":45,"time":26.8333065,"velocity":0.23622047244094488},{"duration":0.16666649999999805,"midi":45,"time":26.999973,"velocity":0.23622047244094488},{"duration":0.1666665000000016,"midi":41,"time":27.1666395,"velocity":0.23622047244094488},{"duration":0.1666665000000016,"midi":45,"time":27.1666395,"velocity":0.23622047244094488},{"duration":0.1666665000000016,"midi":40,"time":27.1666395,"velocity":0.23622047244094488},{"duration":0.16666649999999805,"midi":42,"time":27.333306,"velocity":0.23622047244094488},{"duration":0.16666649999999805,"midi":45,"time":27.333306,"velocity":0.23622047244094488},{"duration":0.1666665000000016,"midi":45,"time":27.4999725,"velocity":0.23622047244094488},{"duration":0.16666649999999805,"midi":45,"time":27.666639,"velocity":0.23622047244094488},{"duration":0.1666665000000016,"midi":45,"time":27.833305499999998,"velocity":0.23622047244094488},{"duration":0.16666649999999805,"midi":40,"time":27.999972,"velocity":0.23622047244094488},{"duration":0.16666649999999805,"midi":41,"time":27.999972,"velocity":0.23622047244094488},{"duration":0.16666649999999805,"midi":45,"time":27.999972,"velocity":0.23622047244094488},{"duration":0.1666665000000016,"midi":45,"time":28.166638499999998,"velocity":0.23622047244094488},{"duration":0.1666665000000016,"midi":45,"time":28.333305,"velocity":0.23622047244094488},{"duration":0.16666649999999805,"midi":45,"time":28.4999715,"velocity":0.23622047244094488},{"duration":0.16666649999999805,"midi":40,"time":28.4999715,"velocity":0.23622047244094488},{"duration":0.16666649999999805,"midi":41,"time":28.4999715,"velocity":0.23622047244094488},{"duration":0.1666665000000016,"midi":42,"time":28.666638,"velocity":0.23622047244094488},{"duration":0.1666665000000016,"midi":45,"time":28.666638,"velocity":0.23622047244094488},{"duration":0.16666649999999805,"midi":45,"time":28.8333045,"velocity":0.23622047244094488},{"duration":0.1666665000000016,"midi":45,"time":28.999971,"velocity":0.23622047244094488},{"duration":0.16666649999999805,"midi":45,"time":29.1666375,"velocity":0.23622047244094488},{"duration":0.33333299999999966,"midi":53,"time":29.333304,"velocity":0.23622047244094488},{"duration":0.33333299999999966,"midi":53,"time":29.666636999999998,"velocity":0.23622047244094488},{"duration":0.3333330000000032,"midi":53,"time":29.999969999999998,"velocity":0.23622047244094488},{"duration":0.33333299999999966,"midi":53,"time":30.333303,"velocity":0.23622047244094488},{"duration":0.33333299999999966,"midi":53,"time":30.666636,"velocity":0.23622047244094488},{"duration":0.33333299999999966,"midi":53,"time":30.999969,"velocity":0.23622047244094488},{"duration":0.33333299999999966,"midi":53,"time":31.333302,"velocity":0.23622047244094488},{"duration":0.33333299999999966,"midi":53,"time":31.666635,"velocity":0.23622047244094488},{"duration":0.33333299999999966,"midi":53,"time":31.999968,"velocity":0.23622047244094488},{"duration":0.3333330000000032,"midi":53,"time":32.333301,"velocity":0.23622047244094488},{"duration":0.3333329999999961,"midi":53,"time":32.666634,"velocity":0.23622047244094488},{"duration":0.3333330000000032,"midi":53,"time":32.999967,"velocity":0.23622047244094488},{"duration":0.3333329999999961,"midi":45,"time":33.3333,"velocity":0.23622047244094488},{"duration":0.3333329999999961,"midi":41,"time":33.3333,"velocity":0.23622047244094488},{"duration":0.16666649999999805,"midi":41,"time":33.8332995,"velocity":0.23622047244094488},{"duration":0.16666649999999805,"midi":41,"time":33.999966,"velocity":0.23622047244094488},{"duration":0.3333330000000032,"midi":41,"time":34.333299,"velocity":0.23622047244094488},{"duration":0.16666649999999805,"midi":40,"time":34.666632,"velocity":0.23622047244094488},{"duration":0.16666649999999805,"midi":43,"time":34.8332985,"velocity":0.23622047244094488},{"duration":0.16666650000000516,"midi":42,"time":34.999964999999996,"velocity":0.23622047244094488},{"duration":0.16666649999999805,"midi":43,"time":35.1666315,"velocity":0.23622047244094488},{"duration":0.16666649999999805,"midi":40,"time":35.333298,"velocity":0.23622047244094488},{"duration":0.16666650000000516,"midi":43,"time":35.4999645,"velocity":0.23622047244094488},{"duration":0.16666649999999805,"midi":42,"time":35.666631,"velocity":0.23622047244094488},{"duration":0.16666649999999805,"midi":43,"time":35.8332975,"velocity":0.23622047244094488},{"duration":0.16666649999999805,"midi":40,"time":35.999964,"velocity":0.23622047244094488},{"duration":0.16666650000000516,"midi":43,"time":36.1666305,"velocity":0.23622047244094488},{"duration":0.16666649999999805,"midi":42,"time":36.333297,"velocity":0.23622047244094488},{"duration":0.16666649999999805,"midi":43,"time":36.4999635,"velocity":0.23622047244094488},{"duration":0.16666649999999805,"midi":40,"time":36.66663,"velocity":0.23622047244094488},{"duration":0.16666650000000516,"midi":43,"time":36.833296499999996,"velocity":0.23622047244094488},{"duration":0.16666649999999805,"midi":42,"time":36.999963,"velocity":0.23622047244094488},{"duration":0.16666649999999805,"midi":43,"time":37.1666295,"velocity":0.23622047244094488},{"duration":0.16666650000000516,"midi":40,"time":37.333296,"velocity":0.23622047244094488},{"duration":0.16666649999999805,"midi":43,"time":37.4999625,"velocity":0.23622047244094488},{"duration":0.16666649999999805,"midi":42,"time":37.666629,"velocity":0.23622047244094488},{"duration":0.16666649999999805,"midi":43,"time":37.8332955,"velocity":0.23622047244094488},{"duration":0.16666650000000516,"midi":40,"time":37.999962,"velocity":0.23622047244094488},{"duration":0.16666649999999805,"midi":43,"time":38.1666285,"velocity":0.23622047244094488},{"duration":0.16666649999999805,"midi":42,"time":38.333295,"velocity":0.23622047244094488},{"duration":0.16666649999999805,"midi":43,"time":38.4999615,"velocity":0.23622047244094488},{"duration":0.16666650000000516,"midi":40,"time":38.666627999999996,"velocity":0.23622047244094488},{"duration":0.16666649999999805,"midi":43,"time":38.8332945,"velocity":0.23622047244094488},{"duration":0.16666649999999805,"midi":42,"time":38.999961,"velocity":0.23622047244094488},{"duration":0.16666650000000516,"midi":43,"time":39.1666275,"velocity":0.23622047244094488},{"duration":0.16666649999999805,"midi":40,"time":39.333294,"velocity":0.23622047244094488},{"duration":0.16666649999999805,"midi":43,"time":39.4999605,"velocity":0.23622047244094488},{"duration":0.16666649999999805,"midi":42,"time":39.666627,"velocity":0.23622047244094488},{"duration":0.16666650000000516,"midi":43,"time":39.833293499999996,"velocity":0.23622047244094488},{"duration":0.16666649999999805,"midi":40,"time":39.99996,"velocity":0.23622047244094488},{"duration":0.16666649999999805,"midi":43,"time":40.1666265,"velocity":0.23622047244094488},{"duration":0.16666649999999805,"midi":42,"time":40.333293,"velocity":0.23622047244094488},{"duration":0.16666650000000516,"midi":43,"time":40.499959499999996,"velocity":0.23622047244094488},{"duration":0.16666649999999805,"midi":40,"time":40.666626,"velocity":0.23622047244094488},{"duration":0.16666649999999805,"midi":43,"time":40.8332925,"velocity":0.23622047244094488},{"duration":0.16666650000000516,"midi":42,"time":40.999959,"velocity":0.23622047244094488},{"duration":0.16666649999999805,"midi":43,"time":41.1666255,"velocity":0.23622047244094488},{"duration":0.16666649999999805,"midi":40,"time":41.333292,"velocity":0.23622047244094488},{"duration":0.16666649999999805,"midi":43,"time":41.4999585,"velocity":0.23622047244094488},{"duration":0.16666650000000516,"midi":42,"time":41.666624999999996,"velocity":0.23622047244094488},{"duration":0.16666649999999805,"midi":43,"time":41.8332915,"velocity":0.23622047244094488},{"duration":0.16666649999999805,"midi":40,"time":41.999958,"velocity":0.23622047244094488},{"duration":0.16666649999999805,"midi":43,"time":42.1666245,"velocity":0.23622047244094488},{"duration":0.16666650000000516,"midi":42,"time":42.333290999999996,"velocity":0.23622047244094488},{"duration":0.16666649999999805,"midi":43,"time":42.4999575,"velocity":0.23622047244094488},{"duration":0.16666649999999805,"midi":40,"time":42.666624,"velocity":0.23622047244094488},{"duration":0.16666650000000516,"midi":43,"time":42.8332905,"velocity":0.23622047244094488},{"duration":0.16666649999999805,"midi":42,"time":42.999957,"velocity":0.23622047244094488},{"duration":0.16666649999999805,"midi":43,"time":43.1666235,"velocity":0.23622047244094488},{"duration":0.16666649999999805,"midi":40,"time":43.33329,"velocity":0.23622047244094488},{"duration":0.16666650000000516,"midi":43,"time":43.499956499999996,"velocity":0.23622047244094488},{"duration":0.16666649999999805,"midi":42,"time":43.666623,"velocity":0.23622047244094488},{"duration":0.16666649999999805,"midi":43,"time":43.8332895,"velocity":0.23622047244094488},{"duration":0.16666649999999805,"midi":40,"time":43.999956,"velocity":0.23622047244094488},{"duration":0.16666650000000516,"midi":43,"time":44.166622499999995,"velocity":0.23622047244094488},{"duration":0.16666649999999805,"midi":42,"time":44.333289,"velocity":0.23622047244094488},{"duration":0.16666649999999805,"midi":43,"time":44.4999555,"velocity":0.23622047244094488},{"duration":0.16666650000000516,"midi":40,"time":44.666622,"velocity":0.23622047244094488},{"duration":0.16666649999999805,"midi":43,"time":44.8332885,"velocity":0.23622047244094488},{"duration":0.16666649999999805,"midi":42,"time":44.999955,"velocity":0.23622047244094488},{"duration":0.16666649999999805,"midi":43,"time":45.1666215,"velocity":0.23622047244094488},{"duration":0.16666650000000516,"midi":40,"time":45.333287999999996,"velocity":0.23622047244094488},{"duration":0.16666649999999805,"midi":43,"time":45.4999545,"velocity":0.23622047244094488},{"duration":0.16666649999999805,"midi":42,"time":45.666621,"velocity":0.23622047244094488},{"duration":0.16666649999999805,"midi":43,"time":45.8332875,"velocity":0.23622047244094488},{"duration":0.16666650000000516,"midi":40,"time":45.999953999999995,"velocity":0.23622047244094488},{"duration":0.16666649999999805,"midi":43,"time":46.1666205,"velocity":0.23622047244094488},{"duration":0.16666649999999805,"midi":42,"time":46.333287,"velocity":0.23622047244094488},{"duration":0.16666650000000516,"midi":43,"time":46.4999535,"velocity":0.23622047244094488},{"duration":0.16666649999999805,"midi":40,"time":46.66662,"velocity":0.23622047244094488},{"duration":0.16666649999999805,"midi":43,"time":46.8332865,"velocity":0.23622047244094488},{"duration":0.16666649999999805,"midi":42,"time":46.999953,"velocity":0.23622047244094488},{"duration":0.16666650000000516,"midi":43,"time":47.166619499999996,"velocity":0.23622047244094488},{"duration":0.16666649999999805,"midi":40,"time":47.333286,"velocity":0.23622047244094488},{"duration":0.16666649999999805,"midi":43,"time":47.4999525,"velocity":0.23622047244094488},{"duration":0.16666649999999805,"midi":42,"time":47.666619,"velocity":0.23622047244094488},{"duration":0.16666650000000516,"midi":43,"time":47.833285499999995,"velocity":0.23622047244094488},{"duration":0.16666649999999805,"midi":40,"time":47.999952,"velocity":0.23622047244094488},{"duration":0.16666649999999805,"midi":43,"time":48.1666185,"velocity":0.23622047244094488},{"duration":0.16666650000000516,"midi":42,"time":48.333285,"velocity":0.23622047244094488},{"duration":0.16666649999999805,"midi":43,"time":48.4999515,"velocity":0.23622047244094488},{"duration":0.16666649999999805,"midi":40,"time":48.666618,"velocity":0.23622047244094488},{"duration":0.16666649999999805,"midi":43,"time":48.8332845,"velocity":0.23622047244094488},{"duration":0.16666650000000516,"midi":42,"time":48.999950999999996,"velocity":0.23622047244094488},{"duration":0.16666649999999805,"midi":43,"time":49.1666175,"velocity":0.23622047244094488},{"duration":0.16666649999999805,"midi":40,"time":49.333284,"velocity":0.23622047244094488},{"duration":0.16666649999999805,"midi":43,"time":49.4999505,"velocity":0.23622047244094488},{"duration":0.16666650000000516,"midi":42,"time":49.666616999999995,"velocity":0.23622047244094488},{"duration":0.16666649999999805,"midi":43,"time":49.8332835,"velocity":0.23622047244094488},{"duration":0.16666649999999805,"midi":40,"time":49.99995,"velocity":0.23622047244094488},{"duration":0.16666650000000516,"midi":43,"time":50.166616499999996,"velocity":0.23622047244094488},{"duration":0.16666649999999805,"midi":42,"time":50.333283,"velocity":0.23622047244094488},{"duration":0.16666649999999805,"midi":43,"time":50.4999495,"velocity":0.23622047244094488},{"duration":0.16666649999999805,"midi":40,"time":50.666616,"velocity":0.23622047244094488},{"duration":0.16666650000000516,"midi":43,"time":50.833282499999996,"velocity":0.23622047244094488},{"duration":0.16666649999999805,"midi":42,"time":50.999949,"velocity":0.23622047244094488},{"duration":0.16666649999999805,"midi":43,"time":51.1666155,"velocity":0.23622047244094488},{"duration":0.16666649999999805,"midi":40,"time":51.333282,"velocity":0.23622047244094488},{"duration":0.16666650000000516,"midi":43,"time":51.499948499999995,"velocity":0.23622047244094488},{"duration":0.16666649999999805,"midi":42,"time":51.666615,"velocity":0.23622047244094488},{"duration":0.16666649999999805,"midi":43,"time":51.8332815,"velocity":0.23622047244094488},{"duration":0.16666650000000516,"midi":40,"time":51.999947999999996,"velocity":0.23622047244094488},{"duration":0.16666649999999805,"midi":43,"time":52.1666145,"velocity":0.23622047244094488},{"duration":0.16666649999999805,"midi":42,"time":52.333281,"velocity":0.23622047244094488},{"duration":0.16666649999999805,"midi":43,"time":52.4999475,"velocity":0.23622047244094488},{"duration":0.16666650000000516,"midi":40,"time":52.666613999999996,"velocity":0.23622047244094488},{"duration":0.16666649999999805,"midi":43,"time":52.8332805,"velocity":0.23622047244094488},{"duration":0.16666649999999805,"midi":42,"time":52.999947,"velocity":0.23622047244094488},{"duration":0.16666650000000516,"midi":43,"time":53.1666135,"velocity":0.23622047244094488},{"duration":0.16666649999999805,"midi":40,"time":53.33328,"velocity":0.23622047244094488},{"duration":0.16666649999999805,"midi":43,"time":53.4999465,"velocity":0.23622047244094488},{"duration":0.16666649999999805,"midi":42,"time":53.666613,"velocity":0.23622047244094488},{"duration":0.16666650000000516,"midi":43,"time":53.833279499999996,"velocity":0.23622047244094488},{"duration":0.16666649999999805,"midi":40,"time":53.999946,"velocity":0.23622047244094488},{"duration":0.16666649999999805,"midi":43,"time":54.1666125,"velocity":0.23622047244094488},{"duration":0.16666649999999805,"midi":42,"time":54.333279,"velocity":0.23622047244094488},{"duration":0.16666650000000516,"midi":43,"time":54.499945499999995,"velocity":0.23622047244094488},{"duration":0.16666649999999805,"midi":40,"time":54.666612,"velocity":0.23622047244094488},{"duration":0.16666649999999805,"midi":43,"time":54.8332785,"velocity":0.23622047244094488},{"duration":0.16666650000000516,"midi":42,"time":54.999945,"velocity":0.23622047244094488},{"duration":0.16666649999999805,"midi":43,"time":55.1666115,"velocity":0.23622047244094488},{"duration":0.16666649999999805,"midi":40,"time":55.333278,"velocity":0.23622047244094488},{"duration":0.16666649999999805,"midi":43,"time":55.4999445,"velocity":0.23622047244094488},{"duration":0.16666650000000516,"midi":42,"time":55.666610999999996,"velocity":0.23622047244094488},{"duration":0.16666649999999805,"midi":43,"time":55.8332775,"velocity":0.23622047244094488},{"duration":0.16666649999999805,"midi":45,"time":55.999944,"velocity":0.23622047244094488},{"duration":0.16666649999999805,"midi":45,"time":56.1666105,"velocity":0.23622047244094488},{"duration":0.16666650000000516,"midi":45,"time":56.333276999999995,"velocity":0.23622047244094488},{"duration":0.16666649999999805,"midi":45,"time":56.4999435,"velocity":0.23622047244094488},{"duration":0.16666649999999805,"midi":45,"time":56.66661,"velocity":0.23622047244094488},{"duration":0.16666650000000516,"midi":45,"time":56.8332765,"velocity":0.23622047244094488},{"duration":0.16666649999999805,"midi":45,"time":56.999943,"velocity":0.23622047244094488},{"duration":0.16666649999999805,"midi":45,"time":57.1666095,"velocity":0.23622047244094488},{"duration":0.16666649999999805,"midi":45,"time":57.333276,"velocity":0.23622047244094488},{"duration":0.16666650000000516,"midi":45,"time":57.499942499999996,"velocity":0.23622047244094488},{"duration":0.16666649999999805,"midi":45,"time":57.666609,"velocity":0.23622047244094488},{"duration":0.16666649999999805,"midi":45,"time":57.8332755,"velocity":0.23622047244094488},{"duration":0.16666649999999805,"midi":45,"time":57.999942,"velocity":0.23622047244094488},{"duration":0.16666650000000516,"midi":45,"time":58.166608499999995,"velocity":0.23622047244094488},{"duration":0.16666649999999805,"midi":45,"time":58.333275,"velocity":0.23622047244094488},{"duration":0.16666649999999805,"midi":45,"time":58.4999415,"velocity":0.23622047244094488},{"duration":0.16666650000000516,"midi":45,"time":58.666608,"velocity":0.23622047244094488},{"duration":0.16666649999999805,"midi":45,"time":58.8332745,"velocity":0.23622047244094488},{"duration":0.16666649999999805,"midi":45,"time":58.999941,"velocity":0.23622047244094488},{"duration":0.16666649999999805,"midi":45,"time":59.1666075,"velocity":0.23622047244094488},{"duration":0.16666650000000516,"midi":45,"time":59.333273999999996,"velocity":0.23622047244094488},{"duration":0.16666649999999805,"midi":45,"time":59.4999405,"velocity":0.23622047244094488},{"duration":0.16666649999999805,"midi":45,"time":59.666607,"velocity":0.23622047244094488},{"duration":0.16666649999999805,"midi":45,"time":59.8332735,"velocity":0.23622047244094488},{"duration":0.16666650000000516,"midi":45,"time":59.999939999999995,"velocity":0.23622047244094488},{"duration":0.16666649999999805,"midi":45,"time":60.1666065,"velocity":0.23622047244094488},{"duration":0.16666649999999805,"midi":45,"time":60.333273,"velocity":0.23622047244094488},{"duration":0.16666650000000516,"midi":45,"time":60.499939499999996,"velocity":0.23622047244094488},{"duration":0.16666649999999805,"midi":45,"time":60.666606,"velocity":0.23622047244094488},{"duration":0.16666649999999805,"midi":45,"time":60.8332725,"velocity":0.23622047244094488},{"duration":0.16666649999999805,"midi":45,"time":60.999939,"velocity":0.23622047244094488},{"duration":0.16666650000000516,"midi":45,"time":61.166605499999996,"velocity":0.23622047244094488},{"duration":0.16666649999999805,"midi":45,"time":61.333272,"velocity":0.23622047244094488},{"duration":0.16666649999999805,"midi":45,"time":61.4999385,"velocity":0.23622047244094488},{"duration":0.16666649999999805,"midi":45,"time":61.666605,"velocity":0.23622047244094488},{"duration":0.16666650000000516,"midi":45,"time":61.833271499999995,"velocity":0.23622047244094488},{"duration":0.16666649999999805,"midi":45,"time":61.999938,"velocity":0.23622047244094488},{"duration":0.16666649999999805,"midi":45,"time":62.1666045,"velocity":0.23622047244094488},{"duration":0.16666650000000516,"midi":45,"time":62.333270999999996,"velocity":0.23622047244094488},{"duration":0.16666649999999805,"midi":45,"time":62.4999375,"velocity":0.23622047244094488},{"duration":0.16666649999999805,"midi":45,"time":62.666604,"velocity":0.23622047244094488},{"duration":0.16666649999999805,"midi":45,"time":62.8332705,"velocity":0.23622047244094488},{"duration":0.16666650000000516,"midi":45,"time":62.999936999999996,"velocity":0.23622047244094488},{"duration":0.16666649999999805,"midi":45,"time":63.1666035,"velocity":0.23622047244094488},{"duration":0.16666649999999805,"midi":45,"time":63.33327,"velocity":0.23622047244094488},{"duration":0.16666649999999805,"midi":45,"time":63.4999365,"velocity":0.23622047244094488},{"duration":0.16666650000000516,"midi":45,"time":63.666602999999995,"velocity":0.23622047244094488},{"duration":0.16666649999999805,"midi":45,"time":63.8332695,"velocity":0.23622047244094488},{"duration":0.16666649999999805,"midi":45,"time":63.999936,"velocity":0.23622047244094488},{"duration":0.16666650000000516,"midi":45,"time":64.1666025,"velocity":0.23622047244094488},{"duration":0.16666649999999095,"midi":45,"time":64.333269,"velocity":0.23622047244094488},{"duration":0.16666650000000516,"midi":45,"time":64.49993549999999,"velocity":0.23622047244094488},{"duration":0.16666650000000516,"midi":45,"time":64.666602,"velocity":0.23622047244094488},{"duration":0.16666649999999095,"midi":45,"time":64.8332685,"velocity":0.23622047244094488},{"duration":0.16666650000000516,"midi":45,"time":64.999935,"velocity":0.23622047244094488},{"duration":0.16666650000000516,"midi":45,"time":65.1666015,"velocity":0.23622047244094488},{"duration":0.16666649999999095,"midi":45,"time":65.333268,"velocity":0.23622047244094488},{"duration":0.16666650000000516,"midi":45,"time":65.4999345,"velocity":0.23622047244094488},{"duration":0.16666650000000516,"midi":45,"time":65.666601,"velocity":0.23622047244094488},{"duration":0.16666649999999095,"midi":45,"time":65.8332675,"velocity":0.23622047244094488},{"duration":0.16666650000000516,"midi":45,"time":65.999934,"velocity":0.23622047244094488},{"duration":0.16666649999999095,"midi":45,"time":66.1666005,"velocity":0.23622047244094488},{"duration":0.16666650000000516,"midi":45,"time":66.33326699999999,"velocity":0.23622047244094488},{"duration":0.16666650000000516,"midi":45,"time":66.4999335,"velocity":0.23622047244094488},{"duration":0.16666649999999095,"midi":45,"time":66.6666,"velocity":0.23622047244094488},{"duration":0.16666650000000516,"midi":45,"time":66.8332665,"velocity":0.23622047244094488},{"duration":0.16666650000000516,"midi":45,"time":66.999933,"velocity":0.23622047244094488},{"duration":0.16666649999999095,"midi":45,"time":67.1665995,"velocity":0.23622047244094488},{"duration":0.16666650000000516,"midi":45,"time":67.333266,"velocity":0.23622047244094488},{"duration":0.16666650000000516,"midi":45,"time":67.4999325,"velocity":0.23622047244094488},{"duration":0.16666649999999095,"midi":45,"time":67.666599,"velocity":0.23622047244094488},{"duration":0.16666650000000516,"midi":45,"time":67.8332655,"velocity":0.23622047244094488},{"duration":0.16666649999999095,"midi":45,"time":67.999932,"velocity":0.23622047244094488},{"duration":0.16666650000000516,"midi":45,"time":68.16659849999999,"velocity":0.23622047244094488},{"duration":0.16666650000000516,"midi":45,"time":68.333265,"velocity":0.23622047244094488},{"duration":0.16666649999999095,"midi":45,"time":68.4999315,"velocity":0.23622047244094488},{"duration":0.16666650000000516,"midi":45,"time":68.666598,"velocity":0.23622047244094488},{"duration":0.16666650000000516,"midi":45,"time":68.8332645,"velocity":0.23622047244094488},{"duration":0.16666649999999095,"midi":45,"time":68.999931,"velocity":0.23622047244094488},{"duration":0.16666650000000516,"midi":45,"time":69.1665975,"velocity":0.23622047244094488},{"duration":0.16666650000000516,"midi":45,"time":69.333264,"velocity":0.23622047244094488},{"duration":0.16666649999999095,"midi":45,"time":69.4999305,"velocity":0.23622047244094488},{"duration":0.16666650000000516,"midi":45,"time":69.666597,"velocity":0.23622047244094488},{"duration":0.16666649999999095,"midi":45,"time":69.8332635,"velocity":0.23622047244094488},{"duration":0.16666650000000516,"midi":45,"time":69.99992999999999,"velocity":0.23622047244094488},{"duration":0.16666650000000516,"midi":45,"time":70.1665965,"velocity":0.23622047244094488},{"duration":0.16666649999999095,"midi":45,"time":70.333263,"velocity":0.23622047244094488},{"duration":0.16666650000000516,"midi":45,"time":70.4999295,"velocity":0.23622047244094488},{"duration":0.16666650000000516,"midi":45,"time":70.666596,"velocity":0.23622047244094488},{"duration":0.16666649999999095,"midi":45,"time":70.8332625,"velocity":0.23622047244094488},{"duration":0.16666650000000516,"midi":45,"time":70.999929,"velocity":0.23622047244094488},{"duration":0.16666650000000516,"midi":45,"time":71.1665955,"velocity":0.23622047244094488},{"duration":0.16666649999999095,"midi":45,"time":71.333262,"velocity":0.23622047244094488},{"duration":0.16666650000000516,"midi":45,"time":71.4999285,"velocity":0.23622047244094488},{"duration":0.16666649999999095,"midi":45,"time":71.666595,"velocity":0.23622047244094488},{"duration":0.16666650000000516,"midi":45,"time":71.83326149999999,"velocity":0.23622047244094488},{"duration":0.16666650000000516,"midi":45,"time":71.999928,"velocity":0.23622047244094488},{"duration":0.16666649999999095,"midi":45,"time":72.1665945,"velocity":0.23622047244094488},{"duration":0.16666650000000516,"midi":45,"time":72.333261,"velocity":0.23622047244094488},{"duration":0.16666650000000516,"midi":45,"time":72.4999275,"velocity":0.23622047244094488},{"duration":0.16666649999999095,"midi":45,"time":72.666594,"velocity":0.23622047244094488},{"duration":0.16666650000000516,"midi":45,"time":72.8332605,"velocity":0.23622047244094488},{"duration":0.16666650000000516,"midi":45,"time":72.999927,"velocity":0.23622047244094488},{"duration":0.16666649999999095,"midi":45,"time":73.1665935,"velocity":0.23622047244094488},{"duration":0.16666650000000516,"midi":45,"time":73.33326,"velocity":0.23622047244094488},{"duration":0.16666649999999095,"midi":45,"time":73.4999265,"velocity":0.23622047244094488},{"duration":0.16666650000000516,"midi":45,"time":73.66659299999999,"velocity":0.23622047244094488},{"duration":0.16666650000000516,"midi":45,"time":73.8332595,"velocity":0.23622047244094488},{"duration":0.16666649999999095,"midi":45,"time":73.999926,"velocity":0.23622047244094488},{"duration":0.16666650000000516,"midi":45,"time":74.1665925,"velocity":0.23622047244094488},{"duration":0.16666650000000516,"midi":45,"time":74.333259,"velocity":0.23622047244094488},{"duration":0.16666649999999095,"midi":45,"time":74.4999255,"velocity":0.23622047244094488},{"duration":0.16666650000000516,"midi":45,"time":74.666592,"velocity":0.23622047244094488},{"duration":0.16666650000000516,"midi":45,"time":74.8332585,"velocity":0.23622047244094488},{"duration":0.16666649999999095,"midi":45,"time":74.999925,"velocity":0.23622047244094488},{"duration":0.16666650000000516,"midi":45,"time":75.1665915,"velocity":0.23622047244094488},{"duration":0.16666649999999095,"midi":45,"time":75.333258,"velocity":0.23622047244094488},{"duration":0.16666650000000516,"midi":45,"time":75.49992449999999,"velocity":0.23622047244094488},{"duration":0.16666650000000516,"midi":45,"time":75.666591,"velocity":0.23622047244094488},{"duration":0.16666649999999095,"midi":45,"time":75.8332575,"velocity":0.23622047244094488},{"duration":0.16666650000000516,"midi":45,"time":75.999924,"velocity":0.23622047244094488},{"duration":0.16666650000000516,"midi":45,"time":76.1665905,"velocity":0.23622047244094488},{"duration":0.16666649999999095,"midi":45,"time":76.333257,"velocity":0.23622047244094488},{"duration":0.16666650000000516,"midi":45,"time":76.4999235,"velocity":0.23622047244094488},{"duration":0.16666650000000516,"midi":45,"time":76.66659,"velocity":0.23622047244094488},{"duration":0.16666649999999095,"midi":45,"time":76.8332565,"velocity":0.23622047244094488},{"duration":0.16666650000000516,"midi":45,"time":76.999923,"velocity":0.23622047244094488},{"duration":0.16666649999999095,"midi":45,"time":77.1665895,"velocity":0.23622047244094488},{"duration":0.16666650000000516,"midi":40,"time":77.33325599999999,"velocity":0.23622047244094488},{"duration":0.16666650000000516,"midi":43,"time":77.4999225,"velocity":0.23622047244094488},{"duration":0.16666649999999095,"midi":42,"time":77.666589,"velocity":0.23622047244094488},{"duration":0.16666650000000516,"midi":43,"time":77.83325549999999,"velocity":0.23622047244094488},{"duration":0.16666650000000516,"midi":40,"time":77.999922,"velocity":0.23622047244094488},{"duration":0.16666649999999095,"midi":43,"time":78.1665885,"velocity":0.23622047244094488},{"duration":0.16666650000000516,"midi":42,"time":78.333255,"velocity":0.23622047244094488},{"duration":0.16666650000000516,"midi":43,"time":78.4999215,"velocity":0.23622047244094488},{"duration":0.16666649999999095,"midi":40,"time":78.666588,"velocity":0.23622047244094488},{"duration":0.16666650000000516,"midi":43,"time":78.8332545,"velocity":0.23622047244094488},{"duration":0.16666649999999095,"midi":42,"time":78.999921,"velocity":0.23622047244094488},{"duration":0.16666650000000516,"midi":43,"time":79.16658749999999,"velocity":0.23622047244094488},{"duration":0.16666650000000516,"midi":40,"time":79.333254,"velocity":0.23622047244094488},{"duration":0.16666649999999095,"midi":43,"time":79.4999205,"velocity":0.23622047244094488},{"duration":0.16666650000000516,"midi":42,"time":79.66658699999999,"velocity":0.23622047244094488},{"duration":0.16666650000000516,"midi":43,"time":79.8332535,"velocity":0.23622047244094488},{"duration":0.16666649999999095,"midi":40,"time":79.99992,"velocity":0.23622047244094488},{"duration":0.16666650000000516,"midi":43,"time":80.1665865,"velocity":0.23622047244094488},{"duration":0.16666650000000516,"midi":42,"time":80.333253,"velocity":0.23622047244094488},{"duration":0.16666649999999095,"midi":43,"time":80.4999195,"velocity":0.23622047244094488},{"duration":0.16666650000000516,"midi":40,"time":80.666586,"velocity":0.23622047244094488},{"duration":0.16666649999999095,"midi":43,"time":80.8332525,"velocity":0.23622047244094488},{"duration":0.16666650000000516,"midi":42,"time":80.99991899999999,"velocity":0.23622047244094488},{"duration":0.16666650000000516,"midi":43,"time":81.1665855,"velocity":0.23622047244094488},{"duration":0.16666649999999095,"midi":40,"time":81.333252,"velocity":0.23622047244094488},{"duration":0.16666650000000516,"midi":43,"time":81.49991849999999,"velocity":0.23622047244094488},{"duration":0.16666650000000516,"midi":42,"time":81.666585,"velocity":0.23622047244094488},{"duration":0.16666649999999095,"midi":43,"time":81.8332515,"velocity":0.23622047244094488},{"duration":0.16666650000000516,"midi":40,"time":81.999918,"velocity":0.23622047244094488},{"duration":0.16666650000000516,"midi":43,"time":82.1665845,"velocity":0.23622047244094488},{"duration":0.16666649999999095,"midi":42,"time":82.333251,"velocity":0.23622047244094488},{"duration":0.16666650000000516,"midi":43,"time":82.4999175,"velocity":0.23622047244094488},{"duration":0.16666649999999095,"midi":40,"time":82.666584,"velocity":0.23622047244094488},{"duration":0.16666650000000516,"midi":43,"time":82.83325049999999,"velocity":0.23622047244094488},{"duration":0.16666650000000516,"midi":42,"time":82.999917,"velocity":0.23622047244094488},{"duration":0.16666649999999095,"midi":43,"time":83.1665835,"velocity":0.23622047244094488},{"duration":0.16666650000000516,"midi":40,"time":83.33324999999999,"velocity":0.23622047244094488},{"duration":0.16666650000000516,"midi":43,"time":83.4999165,"velocity":0.23622047244094488},{"duration":0.16666649999999095,"midi":42,"time":83.666583,"velocity":0.23622047244094488},{"duration":0.16666650000000516,"midi":43,"time":83.8332495,"velocity":0.23622047244094488},{"duration":0.16666650000000516,"midi":40,"time":83.999916,"velocity":0.23622047244094488},{"duration":0.16666649999999095,"midi":43,"time":84.1665825,"velocity":0.23622047244094488},{"duration":0.16666650000000516,"midi":42,"time":84.333249,"velocity":0.23622047244094488},{"duration":0.16666649999999095,"midi":43,"time":84.4999155,"velocity":0.23622047244094488},{"duration":0.16666650000000516,"midi":40,"time":84.66658199999999,"velocity":0.23622047244094488},{"duration":0.16666650000000516,"midi":43,"time":84.8332485,"velocity":0.23622047244094488},{"duration":0.16666649999999095,"midi":42,"time":84.999915,"velocity":0.23622047244094488},{"duration":0.16666650000000516,"midi":43,"time":85.16658149999999,"velocity":0.23622047244094488},{"duration":0.16666650000000516,"midi":40,"time":85.333248,"velocity":0.23622047244094488},{"duration":0.16666649999999095,"midi":43,"time":85.4999145,"velocity":0.23622047244094488},{"duration":0.16666650000000516,"midi":42,"time":85.666581,"velocity":0.23622047244094488},{"duration":0.16666650000000516,"midi":43,"time":85.8332475,"velocity":0.23622047244094488},{"duration":0.16666649999999095,"midi":40,"time":85.999914,"velocity":0.23622047244094488},{"duration":0.16666650000000516,"midi":43,"time":86.1665805,"velocity":0.23622047244094488},{"duration":0.16666649999999095,"midi":42,"time":86.333247,"velocity":0.23622047244094488},{"duration":0.16666650000000516,"midi":43,"time":86.49991349999999,"velocity":0.23622047244094488},{"duration":0.49999950000000126,"midi":53,"time":86.66658,"velocity":0.23622047244094488},{"duration":0.49999950000000126,"midi":52,"time":86.66658,"velocity":0.23622047244094488},{"duration":0.49999950000000126,"midi":56,"time":86.66658,"velocity":0.23622047244094488},{"duration":0.49999950000000126,"midi":53,"time":86.66658,"velocity":0.23622047244094488},{"duration":0.49999950000000126,"midi":52,"time":87.1665795,"velocity":0.23622047244094488},{"duration":0.49999950000000126,"midi":53,"time":87.1665795,"velocity":0.23622047244094488},{"duration":0.49999950000000126,"midi":53,"time":87.1665795,"velocity":0.23622047244094488},{"duration":0.49999950000000126,"midi":56,"time":87.1665795,"velocity":0.23622047244094488},{"duration":0.3333329999999961,"midi":53,"time":87.666579,"velocity":0.23622047244094488},{"duration":0.3333329999999961,"midi":56,"time":87.666579,"velocity":0.23622047244094488},{"duration":0.3333329999999961,"midi":52,"time":87.666579,"velocity":0.23622047244094488},{"duration":0.3333329999999961,"midi":53,"time":87.666579,"velocity":0.23622047244094488},{"duration":0.3333329999999961,"midi":52,"time":103.666563,"velocity":0.23622047244094488},{"duration":0.3333329999999961,"midi":56,"time":103.666563,"velocity":0.23622047244094488},{"duration":0.3333329999999961,"midi":53,"time":103.666563,"velocity":0.23622047244094488},{"duration":0.3333329999999961,"midi":53,"time":103.666563,"velocity":0.23622047244094488},{"duration":0.3333330000000103,"midi":53,"time":103.99989599999999,"velocity":0.23622047244094488},{"duration":0.3333330000000103,"midi":56,"time":103.99989599999999,"velocity":0.23622047244094488},{"duration":0.3333330000000103,"midi":52,"time":103.99989599999999,"velocity":0.23622047244094488},{"duration":0.3333330000000103,"midi":53,"time":103.99989599999999,"velocity":0.23622047244094488},{"duration":0.16666649999999095,"midi":42,"time":104.333229,"velocity":0.23622047244094488},{"duration":0.16666650000000516,"midi":43,"time":104.4998955,"velocity":0.23622047244094488},{"duration":0.16666649999999095,"midi":40,"time":104.666562,"velocity":0.23622047244094488},{"duration":0.16666650000000516,"midi":43,"time":104.83322849999999,"velocity":0.23622047244094488},{"duration":0.16666650000000516,"midi":42,"time":104.999895,"velocity":0.23622047244094488},{"duration":0.16666649999999095,"midi":43,"time":105.1665615,"velocity":0.23622047244094488},{"duration":0.16666650000000516,"midi":40,"time":105.33322799999999,"velocity":0.23622047244094488},{"duration":0.16666650000000516,"midi":43,"time":105.4998945,"velocity":0.23622047244094488},{"duration":0.16666649999999095,"midi":42,"time":105.666561,"velocity":0.23622047244094488},{"duration":0.16666650000000516,"midi":43,"time":105.83322749999999,"velocity":0.23622047244094488},{"duration":0.16666650000000516,"midi":40,"time":105.999894,"velocity":0.23622047244094488},{"duration":0.16666649999999095,"midi":43,"time":106.1665605,"velocity":0.23622047244094488},{"duration":0.16666650000000516,"midi":42,"time":106.333227,"velocity":0.23622047244094488},{"duration":0.16666650000000516,"midi":43,"time":106.4998935,"velocity":0.23622047244094488},{"duration":0.16666649999999095,"midi":40,"time":106.66656,"velocity":0.23622047244094488},{"duration":0.16666650000000516,"midi":43,"time":106.8332265,"velocity":0.23622047244094488},{"duration":0.16666649999999095,"midi":42,"time":106.999893,"velocity":0.23622047244094488},{"duration":0.16666650000000516,"midi":43,"time":107.16655949999999,"velocity":0.23622047244094488},{"duration":0.16666650000000516,"midi":40,"time":107.333226,"velocity":0.23622047244094488},{"duration":0.16666649999999095,"midi":43,"time":107.4998925,"velocity":0.23622047244094488},{"duration":0.16666650000000516,"midi":42,"time":107.66655899999999,"velocity":0.23622047244094488},{"duration":0.16666650000000516,"midi":43,"time":107.8332255,"velocity":0.23622047244094488},{"duration":0.16666649999999095,"midi":40,"time":107.999892,"velocity":0.23622047244094488},{"duration":0.16666650000000516,"midi":43,"time":108.1665585,"velocity":0.23622047244094488},{"duration":0.16666650000000516,"midi":42,"time":108.333225,"velocity":0.23622047244094488},{"duration":0.16666649999999095,"midi":43,"time":108.4998915,"velocity":0.23622047244094488},{"duration":0.16666650000000516,"midi":40,"time":108.666558,"velocity":0.23622047244094488},{"duration":0.16666649999999095,"midi":43,"time":108.8332245,"velocity":0.23622047244094488},{"duration":0.16666650000000516,"midi":42,"time":108.99989099999999,"velocity":0.23622047244094488},{"duration":0.16666650000000516,"midi":43,"time":109.1665575,"velocity":0.23622047244094488},{"duration":0.16666649999999095,"midi":45,"time":109.333224,"velocity":0.23622047244094488},{"duration":0.16666650000000516,"midi":45,"time":109.49989049999999,"velocity":0.23622047244094488},{"duration":0.16666650000000516,"midi":45,"time":109.666557,"velocity":0.23622047244094488},{"duration":0.16666649999999095,"midi":45,"time":109.8332235,"velocity":0.23622047244094488},{"duration":0.16666650000000516,"midi":45,"time":109.99989,"velocity":0.23622047244094488},{"duration":0.16666650000000516,"midi":45,"time":110.1665565,"velocity":0.23622047244094488},{"duration":0.16666649999999095,"midi":45,"time":110.333223,"velocity":0.23622047244094488},{"duration":0.16666650000000516,"midi":45,"time":110.4998895,"velocity":0.23622047244094488},{"duration":0.16666649999999095,"midi":45,"time":110.666556,"velocity":0.23622047244094488},{"duration":0.16666650000000516,"midi":45,"time":110.83322249999999,"velocity":0.23622047244094488},{"duration":0.16666650000000516,"midi":45,"time":110.999889,"velocity":0.23622047244094488},{"duration":0.16666649999999095,"midi":45,"time":111.1665555,"velocity":0.23622047244094488},{"duration":0.16666650000000516,"midi":45,"time":111.33322199999999,"velocity":0.23622047244094488},{"duration":0.16666650000000516,"midi":45,"time":111.4998885,"velocity":0.23622047244094488},{"duration":0.16666649999999095,"midi":45,"time":111.666555,"velocity":0.23622047244094488},{"duration":0.16666650000000516,"midi":45,"time":111.8332215,"velocity":0.23622047244094488},{"duration":0.16666650000000516,"midi":45,"time":111.999888,"velocity":0.23622047244094488},{"duration":0.16666649999999095,"midi":45,"time":112.1665545,"velocity":0.23622047244094488},{"duration":0.16666650000000516,"midi":45,"time":112.333221,"velocity":0.23622047244094488},{"duration":0.16666649999999095,"midi":45,"time":112.4998875,"velocity":0.23622047244094488},{"duration":0.16666650000000516,"midi":45,"time":112.66655399999999,"velocity":0.23622047244094488},{"duration":0.16666650000000516,"midi":45,"time":112.8332205,"velocity":0.23622047244094488},{"duration":0.16666649999999095,"midi":45,"time":112.999887,"velocity":0.23622047244094488},{"duration":0.16666650000000516,"midi":45,"time":113.16655349999999,"velocity":0.23622047244094488},{"duration":0.16666650000000516,"midi":45,"time":113.33322,"velocity":0.23622047244094488},{"duration":0.16666649999999095,"midi":45,"time":113.4998865,"velocity":0.23622047244094488},{"duration":0.16666650000000516,"midi":45,"time":113.666553,"velocity":0.23622047244094488},{"duration":0.16666650000000516,"midi":45,"time":113.8332195,"velocity":0.23622047244094488},{"duration":0.16666649999999095,"midi":45,"time":113.999886,"velocity":0.23622047244094488},{"duration":0.16666650000000516,"midi":45,"time":114.1665525,"velocity":0.23622047244094488},{"duration":0.16666649999999095,"midi":45,"time":114.333219,"velocity":0.23622047244094488},{"duration":0.16666650000000516,"midi":45,"time":114.49988549999999,"velocity":0.23622047244094488},{"duration":0.16666650000000516,"midi":45,"time":114.666552,"velocity":0.23622047244094488},{"duration":0.16666649999999095,"midi":45,"time":114.8332185,"velocity":0.23622047244094488},{"duration":0.16666650000000516,"midi":45,"time":114.99988499999999,"velocity":0.23622047244094488},{"duration":0.16666650000000516,"midi":45,"time":115.1665515,"velocity":0.23622047244094488},{"duration":0.16666649999999095,"midi":45,"time":115.333218,"velocity":0.23622047244094488},{"duration":0.16666650000000516,"midi":45,"time":115.4998845,"velocity":0.23622047244094488},{"duration":0.16666650000000516,"midi":45,"time":115.666551,"velocity":0.23622047244094488},{"duration":0.16666649999999095,"midi":45,"time":115.8332175,"velocity":0.23622047244094488},{"duration":0.16666650000000516,"midi":45,"time":115.999884,"velocity":0.23622047244094488},{"duration":0.16666649999999095,"midi":45,"time":116.1665505,"velocity":0.23622047244094488},{"duration":0.16666650000000516,"midi":45,"time":116.33321699999999,"velocity":0.23622047244094488},{"duration":0.16666650000000516,"midi":45,"time":116.4998835,"velocity":0.23622047244094488},{"duration":0.16666649999999095,"midi":45,"time":116.66655,"velocity":0.23622047244094488},{"duration":0.16666650000000516,"midi":45,"time":116.83321649999999,"velocity":0.23622047244094488},{"duration":0.16666650000000516,"midi":45,"time":116.999883,"velocity":0.23622047244094488},{"duration":0.16666649999999095,"midi":45,"time":117.1665495,"velocity":0.23622047244094488},{"duration":0.16666650000000516,"midi":45,"time":117.333216,"velocity":0.23622047244094488},{"duration":0.16666650000000516,"midi":45,"time":117.4998825,"velocity":0.23622047244094488},{"duration":0.16666649999999095,"midi":45,"time":117.666549,"velocity":0.23622047244094488},{"duration":0.16666650000000516,"midi":45,"time":117.8332155,"velocity":0.23622047244094488},{"duration":0.16666649999999095,"midi":45,"time":117.999882,"velocity":0.23622047244094488},{"duration":0.16666650000000516,"midi":45,"time":118.16654849999999,"velocity":0.23622047244094488},{"duration":0.16666650000000516,"midi":45,"time":118.333215,"velocity":0.23622047244094488},{"duration":0.16666649999999095,"midi":45,"time":118.4998815,"velocity":0.23622047244094488},{"duration":0.16666650000000516,"midi":45,"time":118.66654799999999,"velocity":0.23622047244094488},{"duration":0.16666650000000516,"midi":45,"time":118.8332145,"velocity":0.23622047244094488},{"duration":0.16666649999999095,"midi":45,"time":118.999881,"velocity":0.23622047244094488},{"duration":0.16666650000000516,"midi":45,"time":119.1665475,"velocity":0.23622047244094488},{"duration":0.16666650000000516,"midi":45,"time":119.333214,"velocity":0.23622047244094488},{"duration":0.16666649999999095,"midi":45,"time":119.4998805,"velocity":0.23622047244094488},{"duration":0.16666650000000516,"midi":45,"time":119.666547,"velocity":0.23622047244094488},{"duration":0.16666649999999095,"midi":45,"time":119.8332135,"velocity":0.23622047244094488},{"duration":0.16666650000000516,"midi":45,"time":119.99987999999999,"velocity":0.23622047244094488},{"duration":0.16666650000000516,"midi":45,"time":120.1665465,"velocity":0.23622047244094488},{"duration":0.16666649999999095,"midi":45,"time":120.333213,"velocity":0.23622047244094488},{"duration":0.16666650000000516,"midi":45,"time":120.49987949999999,"velocity":0.23622047244094488},{"duration":0.16666650000000516,"midi":45,"time":120.666546,"velocity":0.23622047244094488},{"duration":0.16666649999999095,"midi":45,"time":120.8332125,"velocity":0.23622047244094488},{"duration":0.16666650000000516,"midi":45,"time":120.99987899999999,"velocity":0.23622047244094488},{"duration":0.16666650000000516,"midi":45,"time":121.1665455,"velocity":0.23622047244094488},{"duration":0.16666649999999095,"midi":45,"time":121.333212,"velocity":0.23622047244094488},{"duration":0.16666650000000516,"midi":45,"time":121.4998785,"velocity":0.23622047244094488},{"duration":0.16666649999999095,"midi":45,"time":121.666545,"velocity":0.23622047244094488},{"duration":0.16666650000000516,"midi":45,"time":121.83321149999999,"velocity":0.23622047244094488},{"duration":0.16666650000000516,"midi":45,"time":121.999878,"velocity":0.23622047244094488},{"duration":0.16666649999999095,"midi":45,"time":122.1665445,"velocity":0.23622047244094488},{"duration":0.16666650000000516,"midi":45,"time":122.33321099999999,"velocity":0.23622047244094488},{"duration":0.16666650000000516,"midi":45,"time":122.4998775,"velocity":0.23622047244094488},{"duration":0.16666649999999095,"midi":45,"time":122.666544,"velocity":0.23622047244094488},{"duration":0.16666650000000516,"midi":45,"time":122.83321049999999,"velocity":0.23622047244094488},{"duration":0.16666650000000516,"midi":45,"time":122.999877,"velocity":0.23622047244094488},{"duration":0.16666649999999095,"midi":45,"time":123.1665435,"velocity":0.23622047244094488},{"duration":0.16666650000000516,"midi":45,"time":123.33321,"velocity":0.23622047244094488},{"duration":0.16666649999999095,"midi":45,"time":123.4998765,"velocity":0.23622047244094488},{"duration":0.16666650000000516,"midi":45,"time":123.66654299999999,"velocity":0.23622047244094488},{"duration":0.16666650000000516,"midi":45,"time":123.8332095,"velocity":0.23622047244094488},{"duration":0.16666649999999095,"midi":45,"time":123.999876,"velocity":0.23622047244094488},{"duration":0.16666650000000516,"midi":45,"time":124.16654249999999,"velocity":0.23622047244094488},{"duration":0.16666650000000516,"midi":45,"time":124.333209,"velocity":0.23622047244094488},{"duration":0.16666649999999095,"midi":45,"time":124.4998755,"velocity":0.23622047244094488},{"duration":0.16666650000000516,"midi":45,"time":124.66654199999999,"velocity":0.23622047244094488},{"duration":0.16666650000000516,"midi":45,"time":124.8332085,"velocity":0.23622047244094488},{"duration":0.16666649999999095,"midi":45,"time":124.999875,"velocity":0.23622047244094488},{"duration":0.16666650000000516,"midi":45,"time":125.1665415,"velocity":0.23622047244094488},{"duration":0.16666649999999095,"midi":45,"time":125.333208,"velocity":0.23622047244094488},{"duration":0.16666650000000516,"midi":45,"time":125.49987449999999,"velocity":0.23622047244094488},{"duration":0.16666650000000516,"midi":45,"time":125.666541,"velocity":0.23622047244094488},{"duration":0.16666649999999095,"midi":45,"time":125.8332075,"velocity":0.23622047244094488},{"duration":0.16666650000000516,"midi":45,"time":125.99987399999999,"velocity":0.23622047244094488},{"duration":0.16666650000000516,"midi":45,"time":126.1665405,"velocity":0.23622047244094488},{"duration":0.16666649999999095,"midi":45,"time":126.333207,"velocity":0.23622047244094488},{"duration":0.16666650000000516,"midi":45,"time":126.49987349999999,"velocity":0.23622047244094488},{"duration":0.16666650000000516,"midi":45,"time":126.66654,"velocity":0.23622047244094488},{"duration":0.16666649999999095,"midi":45,"time":126.8332065,"velocity":0.23622047244094488},{"duration":0.16666650000000516,"midi":45,"time":126.999873,"velocity":0.23622047244094488},{"duration":0.16666649999999095,"midi":45,"time":127.1665395,"velocity":0.23622047244094488},{"duration":0.16666650000000516,"midi":45,"time":127.33320599999999,"velocity":0.23622047244094488},{"duration":0.16666650000000516,"midi":45,"time":127.4998725,"velocity":0.23622047244094488},{"duration":0.16666649999999095,"midi":45,"time":127.666539,"velocity":0.23622047244094488},{"duration":0.16666650000000516,"midi":45,"time":127.83320549999999,"velocity":0.23622047244094488},{"duration":0.16666650000000516,"midi":45,"time":127.999872,"velocity":0.23622047244094488},{"duration":0.16666649999999095,"midi":45,"time":128.1665385,"velocity":0.23622047244094488},{"duration":0.16666649999999095,"midi":45,"time":128.333205,"velocity":0.23622047244094488},{"duration":0.16666650000001937,"midi":45,"time":128.49987149999998,"velocity":0.23622047244094488},{"duration":0.16666649999999095,"midi":45,"time":128.666538,"velocity":0.23622047244094488},{"duration":0.16666649999999095,"midi":45,"time":128.8332045,"velocity":0.23622047244094488},{"duration":0.16666650000001937,"midi":45,"time":128.99987099999998,"velocity":0.23622047244094488},{"duration":0.16666649999999095,"midi":45,"time":129.1665375,"velocity":0.23622047244094488},{"duration":0.16666649999999095,"midi":45,"time":129.333204,"velocity":0.23622047244094488},{"duration":0.16666650000001937,"midi":45,"time":129.4998705,"velocity":0.23622047244094488},{"duration":0.16666650000001937,"midi":45,"time":129.99987,"velocity":0.23622047244094488},{"duration":0.16666649999999095,"midi":45,"time":130.1665365,"velocity":0.23622047244094488},{"duration":0.16666649999999095,"midi":40,"time":130.666536,"velocity":0.23622047244094488},{"duration":0.16666649999999095,"midi":43,"time":130.8332025,"velocity":0.23622047244094488},{"duration":0.16666650000001937,"midi":42,"time":130.999869,"velocity":0.23622047244094488},{"duration":0.16666649999999095,"midi":43,"time":131.1665355,"velocity":0.23622047244094488},{"duration":0.16666649999999095,"midi":40,"time":131.333202,"velocity":0.23622047244094488},{"duration":0.16666650000001937,"midi":43,"time":131.4998685,"velocity":0.23622047244094488},{"duration":0.16666649999999095,"midi":42,"time":131.666535,"velocity":0.23622047244094488},{"duration":0.16666649999999095,"midi":43,"time":131.8332015,"velocity":0.23622047244094488},{"duration":0.16666649999999095,"midi":40,"time":131.999868,"velocity":0.23622047244094488},{"duration":0.16666650000001937,"midi":43,"time":132.16653449999998,"velocity":0.23622047244094488},{"duration":0.16666649999999095,"midi":42,"time":132.333201,"velocity":0.23622047244094488},{"duration":0.16666649999999095,"midi":43,"time":132.4998675,"velocity":0.23622047244094488},{"duration":0.16666650000001937,"midi":40,"time":132.66653399999998,"velocity":0.23622047244094488},{"duration":0.16666649999999095,"midi":43,"time":132.8332005,"velocity":0.23622047244094488},{"duration":0.16666649999999095,"midi":42,"time":132.999867,"velocity":0.23622047244094488},{"duration":0.16666650000001937,"midi":43,"time":133.16653349999999,"velocity":0.23622047244094488},{"duration":0.16666649999999095,"midi":40,"time":133.3332,"velocity":0.23622047244094488},{"duration":0.16666649999999095,"midi":43,"time":133.4998665,"velocity":0.23622047244094488},{"duration":0.16666650000001937,"midi":42,"time":133.666533,"velocity":0.23622047244094488},{"duration":0.16666649999999095,"midi":43,"time":133.8331995,"velocity":0.23622047244094488},{"duration":0.16666649999999095,"midi":40,"time":133.999866,"velocity":0.23622047244094488},{"duration":0.16666650000001937,"midi":43,"time":134.1665325,"velocity":0.23622047244094488},{"duration":0.16666649999999095,"midi":42,"time":134.333199,"velocity":0.23622047244094488},{"duration":0.16666649999999095,"midi":43,"time":134.4998655,"velocity":0.23622047244094488},{"duration":0.16666650000001937,"midi":40,"time":134.666532,"velocity":0.23622047244094488},{"duration":0.16666649999999095,"midi":43,"time":134.8331985,"velocity":0.23622047244094488},{"duration":0.16666649999999095,"midi":42,"time":134.999865,"velocity":0.23622047244094488},{"duration":0.16666650000001937,"midi":43,"time":135.1665315,"velocity":0.23622047244094488},{"duration":0.16666649999999095,"midi":40,"time":135.333198,"velocity":0.23622047244094488},{"duration":0.16666649999999095,"midi":43,"time":135.4998645,"velocity":0.23622047244094488},{"duration":0.16666649999999095,"midi":42,"time":135.666531,"velocity":0.23622047244094488},{"duration":0.16666650000001937,"midi":43,"time":135.83319749999998,"velocity":0.23622047244094488},{"duration":0.16666649999999095,"midi":40,"time":135.999864,"velocity":0.23622047244094488},{"duration":0.16666649999999095,"midi":43,"time":136.1665305,"velocity":0.23622047244094488},{"duration":0.16666650000001937,"midi":42,"time":136.33319699999998,"velocity":0.23622047244094488},{"duration":0.16666649999999095,"midi":43,"time":136.4998635,"velocity":0.23622047244094488},{"duration":0.16666649999999095,"midi":40,"time":136.66653,"velocity":0.23622047244094488},{"duration":0.16666650000001937,"midi":43,"time":136.83319649999999,"velocity":0.23622047244094488},{"duration":0.16666649999999095,"midi":42,"time":136.999863,"velocity":0.23622047244094488},{"duration":0.16666649999999095,"midi":43,"time":137.1665295,"velocity":0.23622047244094488},{"duration":0.16666650000001937,"midi":40,"time":137.333196,"velocity":0.23622047244094488},{"duration":0.16666649999999095,"midi":43,"time":137.4998625,"velocity":0.23622047244094488},{"duration":0.16666649999999095,"midi":42,"time":137.666529,"velocity":0.23622047244094488},{"duration":0.16666650000001937,"midi":43,"time":137.8331955,"velocity":0.23622047244094488},{"duration":0.16666649999999095,"midi":40,"time":137.999862,"velocity":0.23622047244094488},{"duration":0.16666649999999095,"midi":43,"time":138.1665285,"velocity":0.23622047244094488},{"duration":0.16666650000001937,"midi":42,"time":138.333195,"velocity":0.23622047244094488},{"duration":0.16666649999999095,"midi":43,"time":138.4998615,"velocity":0.23622047244094488},{"duration":0.16666649999999095,"midi":40,"time":138.666528,"velocity":0.23622047244094488},{"duration":0.16666650000001937,"midi":43,"time":138.8331945,"velocity":0.23622047244094488},{"duration":0.16666649999999095,"midi":42,"time":138.999861,"velocity":0.23622047244094488},{"duration":0.16666649999999095,"midi":43,"time":139.1665275,"velocity":0.23622047244094488},{"duration":0.16666649999999095,"midi":40,"time":139.333194,"velocity":0.23622047244094488},{"duration":0.16666650000001937,"midi":43,"time":139.49986049999998,"velocity":0.23622047244094488},{"duration":0.16666649999999095,"midi":42,"time":139.666527,"velocity":0.23622047244094488},{"duration":0.16666649999999095,"midi":43,"time":139.8331935,"velocity":0.23622047244094488},{"duration":0.16666650000001937,"midi":40,"time":139.99985999999998,"velocity":0.23622047244094488},{"duration":0.16666649999999095,"midi":43,"time":140.1665265,"velocity":0.23622047244094488},{"duration":0.16666649999999095,"midi":42,"time":140.333193,"velocity":0.23622047244094488},{"duration":0.16666650000001937,"midi":43,"time":140.49985949999999,"velocity":0.23622047244094488},{"duration":0.16666649999999095,"midi":40,"time":140.666526,"velocity":0.23622047244094488},{"duration":0.16666649999999095,"midi":43,"time":140.8331925,"velocity":0.23622047244094488},{"duration":0.16666650000001937,"midi":42,"time":140.999859,"velocity":0.23622047244094488},{"duration":0.16666649999999095,"midi":43,"time":141.1665255,"velocity":0.23622047244094488},{"duration":0.16666649999999095,"midi":40,"time":141.333192,"velocity":0.23622047244094488},{"duration":0.16666650000001937,"midi":43,"time":141.4998585,"velocity":0.23622047244094488},{"duration":0.16666649999999095,"midi":42,"time":141.666525,"velocity":0.23622047244094488},{"duration":0.16666649999999095,"midi":43,"time":141.8331915,"velocity":0.23622047244094488},{"duration":0.16666650000001937,"midi":40,"time":141.999858,"velocity":0.23622047244094488},{"duration":0.16666649999999095,"midi":43,"time":142.1665245,"velocity":0.23622047244094488},{"duration":0.16666649999999095,"midi":42,"time":142.333191,"velocity":0.23622047244094488},{"duration":0.16666650000001937,"midi":43,"time":142.4998575,"velocity":0.23622047244094488},{"duration":0.16666649999999095,"midi":40,"time":142.666524,"velocity":0.23622047244094488},{"duration":0.16666649999999095,"midi":43,"time":142.8331905,"velocity":0.23622047244094488},{"duration":0.16666649999999095,"midi":42,"time":142.999857,"velocity":0.23622047244094488},{"duration":0.16666650000001937,"midi":43,"time":143.16652349999998,"velocity":0.23622047244094488},{"duration":0.16666649999999095,"midi":40,"time":143.33319,"velocity":0.23622047244094488},{"duration":0.16666649999999095,"midi":43,"time":143.4998565,"velocity":0.23622047244094488},{"duration":0.16666650000001937,"midi":42,"time":143.66652299999998,"velocity":0.23622047244094488},{"duration":0.16666649999999095,"midi":43,"time":143.8331895,"velocity":0.23622047244094488},{"duration":0.16666649999999095,"midi":40,"time":143.999856,"velocity":0.23622047244094488},{"duration":0.16666650000001937,"midi":43,"time":144.16652249999999,"velocity":0.23622047244094488},{"duration":0.16666649999999095,"midi":42,"time":144.333189,"velocity":0.23622047244094488},{"duration":0.16666649999999095,"midi":43,"time":144.4998555,"velocity":0.23622047244094488},{"duration":0.16666650000001937,"midi":40,"time":144.666522,"velocity":0.23622047244094488},{"duration":0.16666649999999095,"midi":43,"time":144.8331885,"velocity":0.23622047244094488},{"duration":0.16666649999999095,"midi":42,"time":144.999855,"velocity":0.23622047244094488},{"duration":0.16666650000001937,"midi":43,"time":145.1665215,"velocity":0.23622047244094488},{"duration":0.16666649999999095,"midi":40,"time":145.333188,"velocity":0.23622047244094488},{"duration":0.16666649999999095,"midi":43,"time":145.4998545,"velocity":0.23622047244094488},{"duration":0.16666650000001937,"midi":42,"time":145.666521,"velocity":0.23622047244094488},{"duration":0.16666649999999095,"midi":43,"time":145.8331875,"velocity":0.23622047244094488},{"duration":0.16666649999999095,"midi":40,"time":145.999854,"velocity":0.23622047244094488},{"duration":0.16666650000001937,"midi":43,"time":146.1665205,"velocity":0.23622047244094488},{"duration":0.16666649999999095,"midi":42,"time":146.333187,"velocity":0.23622047244094488},{"duration":0.16666649999999095,"midi":43,"time":146.4998535,"velocity":0.23622047244094488},{"duration":0.16666649999999095,"midi":40,"time":146.66652,"velocity":0.23622047244094488},{"duration":0.16666650000001937,"midi":43,"time":146.83318649999998,"velocity":0.23622047244094488},{"duration":0.16666649999999095,"midi":42,"time":146.999853,"velocity":0.23622047244094488},{"duration":0.16666649999999095,"midi":43,"time":147.1665195,"velocity":0.23622047244094488},{"duration":0.16666650000001937,"midi":40,"time":147.33318599999998,"velocity":0.23622047244094488},{"duration":0.16666649999999095,"midi":43,"time":147.4998525,"velocity":0.23622047244094488},{"duration":0.16666649999999095,"midi":42,"time":147.666519,"velocity":0.23622047244094488},{"duration":0.16666650000001937,"midi":43,"time":147.83318549999998,"velocity":0.23622047244094488},{"duration":0.16666649999999095,"midi":40,"time":147.999852,"velocity":0.23622047244094488},{"duration":0.16666649999999095,"midi":43,"time":148.1665185,"velocity":0.23622047244094488},{"duration":0.16666650000001937,"midi":42,"time":148.333185,"velocity":0.23622047244094488},{"duration":0.16666649999999095,"midi":43,"time":148.4998515,"velocity":0.23622047244094488},{"duration":0.16666649999999095,"midi":40,"time":148.666518,"velocity":0.23622047244094488},{"duration":0.16666650000001937,"midi":43,"time":148.8331845,"velocity":0.23622047244094488},{"duration":0.16666649999999095,"midi":42,"time":148.999851,"velocity":0.23622047244094488},{"duration":0.16666649999999095,"midi":43,"time":149.1665175,"velocity":0.23622047244094488},{"duration":0.16666650000001937,"midi":40,"time":149.333184,"velocity":0.23622047244094488},{"duration":0.16666649999999095,"midi":43,"time":149.4998505,"velocity":0.23622047244094488},{"duration":0.16666649999999095,"midi":42,"time":149.666517,"velocity":0.23622047244094488},{"duration":0.16666650000001937,"midi":43,"time":149.8331835,"velocity":0.23622047244094488},{"duration":0.16666649999999095,"midi":40,"time":149.99985,"velocity":0.23622047244094488},{"duration":0.16666649999999095,"midi":43,"time":150.1665165,"velocity":0.23622047244094488},{"duration":0.16666649999999095,"midi":42,"time":150.333183,"velocity":0.23622047244094488},{"duration":0.16666650000001937,"midi":43,"time":150.49984949999998,"velocity":0.23622047244094488},{"duration":0.16666649999999095,"midi":40,"time":150.666516,"velocity":0.23622047244094488},{"duration":0.16666649999999095,"midi":43,"time":150.8331825,"velocity":0.23622047244094488},{"duration":0.16666650000001937,"midi":42,"time":150.99984899999998,"velocity":0.23622047244094488},{"duration":0.16666649999999095,"midi":43,"time":151.1665155,"velocity":0.23622047244094488},{"duration":0.16666649999999095,"midi":40,"time":151.333182,"velocity":0.23622047244094488},{"duration":0.16666650000001937,"midi":43,"time":151.49984849999998,"velocity":0.23622047244094488},{"duration":0.16666649999999095,"midi":42,"time":151.666515,"velocity":0.23622047244094488},{"duration":0.16666649999999095,"midi":43,"time":151.8331815,"velocity":0.23622047244094488},{"duration":0.16666649999999095,"midi":40,"time":199.9998,"velocity":0.23622047244094488},{"duration":0.16666650000001937,"midi":40,"time":200.16646649999998,"velocity":0.23622047244094488},{"duration":0.16666649999999095,"midi":42,"time":200.333133,"velocity":0.23622047244094488},{"duration":0.16666649999999095,"midi":40,"time":200.4997995,"velocity":0.23622047244094488},{"duration":0.16666650000001937,"midi":40,"time":200.66646599999999,"velocity":0.23622047244094488},{"duration":0.16666649999999095,"midi":42,"time":200.8331325,"velocity":0.23622047244094488},{"duration":0.16666649999999095,"midi":40,"time":200.999799,"velocity":0.23622047244094488},{"duration":0.16666650000001937,"midi":40,"time":201.1664655,"velocity":0.23622047244094488},{"duration":0.16666649999999095,"midi":40,"time":201.333132,"velocity":0.23622047244094488},{"duration":0.16666649999999095,"midi":41,"time":201.333132,"velocity":0.23622047244094488},{"duration":0.16666649999999095,"midi":41,"time":201.4997985,"velocity":0.23622047244094488},{"duration":0.16666649999999095,"midi":40,"time":201.4997985,"velocity":0.23622047244094488},{"duration":0.16666650000001937,"midi":42,"time":201.666465,"velocity":0.23622047244094488},{"duration":0.16666649999999095,"midi":40,"time":201.8331315,"velocity":0.23622047244094488},{"duration":0.16666649999999095,"midi":40,"time":201.999798,"velocity":0.23622047244094488},{"duration":0.16666649999999095,"midi":42,"time":202.1664645,"velocity":0.23622047244094488},{"duration":0.16666650000001937,"midi":40,"time":202.33313099999998,"velocity":0.23622047244094488},{"duration":0.16666649999999095,"midi":40,"time":202.4997975,"velocity":0.23622047244094488},{"duration":0.16666649999999095,"midi":41,"time":202.666464,"velocity":0.23622047244094488},{"duration":0.16666649999999095,"midi":40,"time":202.666464,"velocity":0.23622047244094488},{"duration":0.16666650000001937,"midi":41,"time":202.83313049999998,"velocity":0.23622047244094488},{"duration":0.16666650000001937,"midi":40,"time":202.83313049999998,"velocity":0.23622047244094488},{"duration":0.16666649999999095,"midi":42,"time":202.999797,"velocity":0.23622047244094488},{"duration":0.16666649999999095,"midi":40,"time":203.1664635,"velocity":0.23622047244094488},{"duration":0.16666650000001937,"midi":40,"time":203.33312999999998,"velocity":0.23622047244094488},{"duration":0.16666649999999095,"midi":42,"time":203.4997965,"velocity":0.23622047244094488},{"duration":0.16666649999999095,"midi":40,"time":203.666463,"velocity":0.23622047244094488},{"duration":0.16666650000001937,"midi":40,"time":203.83312949999998,"velocity":0.23622047244094488},{"duration":0.16666649999999095,"midi":41,"time":203.999796,"velocity":0.23622047244094488},{"duration":0.16666649999999095,"midi":40,"time":203.999796,"velocity":0.23622047244094488},{"duration":0.16666649999999095,"midi":41,"time":204.1664625,"velocity":0.23622047244094488},{"duration":0.16666649999999095,"midi":40,"time":204.1664625,"velocity":0.23622047244094488},{"duration":0.16666650000001937,"midi":42,"time":204.33312899999999,"velocity":0.23622047244094488},{"duration":0.16666649999999095,"midi":40,"time":204.4997955,"velocity":0.23622047244094488},{"duration":0.16666649999999095,"midi":40,"time":204.666462,"velocity":0.23622047244094488},{"duration":0.16666650000001937,"midi":42,"time":204.8331285,"velocity":0.23622047244094488},{"duration":0.16666649999999095,"midi":40,"time":204.999795,"velocity":0.23622047244094488},{"duration":0.16666649999999095,"midi":40,"time":205.1664615,"velocity":0.23622047244094488},{"duration":0.16666650000001937,"midi":40,"time":205.333128,"velocity":0.23622047244094488},{"duration":0.16666649999999095,"midi":40,"time":205.4997945,"velocity":0.23622047244094488},{"duration":0.16666649999999095,"midi":42,"time":205.666461,"velocity":0.23622047244094488},{"duration":0.16666649999999095,"midi":40,"time":205.8331275,"velocity":0.23622047244094488},{"duration":0.16666650000001937,"midi":40,"time":205.99979399999998,"velocity":0.23622047244094488},{"duration":0.16666649999999095,"midi":42,"time":206.1664605,"velocity":0.23622047244094488},{"duration":0.16666649999999095,"midi":40,"time":206.333127,"velocity":0.23622047244094488},{"duration":0.16666650000001937,"midi":40,"time":206.49979349999998,"velocity":0.23622047244094488},{"duration":0.16666649999999095,"midi":40,"time":206.66646,"velocity":0.23622047244094488},{"duration":0.16666649999999095,"midi":41,"time":206.66646,"velocity":0.23622047244094488},{"duration":0.16666649999999095,"midi":41,"time":206.8331265,"velocity":0.23622047244094488},{"duration":0.16666649999999095,"midi":40,"time":206.8331265,"velocity":0.23622047244094488},{"duration":0.16666650000001937,"midi":42,"time":206.99979299999998,"velocity":0.23622047244094488},{"duration":0.16666649999999095,"midi":40,"time":207.1664595,"velocity":0.23622047244094488},{"duration":0.16666649999999095,"midi":40,"time":207.333126,"velocity":0.23622047244094488},{"duration":0.16666650000001937,"midi":42,"time":207.49979249999998,"velocity":0.23622047244094488},{"duration":0.16666649999999095,"midi":40,"time":207.666459,"velocity":0.23622047244094488},{"duration":0.16666649999999095,"midi":40,"time":207.8331255,"velocity":0.23622047244094488},{"duration":0.16666650000001937,"midi":41,"time":207.99979199999999,"velocity":0.23622047244094488},{"duration":0.16666650000001937,"midi":40,"time":207.99979199999999,"velocity":0.23622047244094488},{"duration":0.16666649999999095,"midi":41,"time":208.1664585,"velocity":0.23622047244094488},{"duration":0.16666649999999095,"midi":40,"time":208.1664585,"velocity":0.23622047244094488},{"duration":0.16666649999999095,"midi":42,"time":208.333125,"velocity":0.23622047244094488},{"duration":0.16666650000001937,"midi":40,"time":208.4997915,"velocity":0.23622047244094488},{"duration":0.16666649999999095,"midi":40,"time":208.666458,"velocity":0.23622047244094488},{"duration":0.16666649999999095,"midi":42,"time":208.8331245,"velocity":0.23622047244094488},{"duration":0.16666650000001937,"midi":40,"time":208.999791,"velocity":0.23622047244094488},{"duration":0.16666649999999095,"midi":40,"time":209.1664575,"velocity":0.23622047244094488},{"duration":0.16666649999999095,"midi":41,"time":209.333124,"velocity":0.23622047244094488},{"duration":0.16666649999999095,"midi":40,"time":209.333124,"velocity":0.23622047244094488},{"duration":0.16666649999999095,"midi":41,"time":209.4997905,"velocity":0.23622047244094488},{"duration":0.16666649999999095,"midi":40,"time":209.4997905,"velocity":0.23622047244094488},{"duration":0.16666650000001937,"midi":42,"time":209.66645699999998,"velocity":0.23622047244094488},{"duration":0.16666649999999095,"midi":40,"time":209.8331235,"velocity":0.23622047244094488},{"duration":0.16666649999999095,"midi":40,"time":209.99979,"velocity":0.23622047244094488},{"duration":0.16666650000001937,"midi":42,"time":210.16645649999998,"velocity":0.23622047244094488},{"duration":0.16666649999999095,"midi":40,"time":210.333123,"velocity":0.23622047244094488},{"duration":0.16666649999999095,"midi":40,"time":210.4997895,"velocity":0.23622047244094488},{"duration":0.16666650000001937,"midi":40,"time":210.66645599999998,"velocity":0.23622047244094488},{"duration":0.16666649999999095,"midi":40,"time":210.8331225,"velocity":0.23622047244094488},{"duration":0.16666649999999095,"midi":42,"time":210.999789,"velocity":0.23622047244094488},{"duration":0.16666650000001937,"midi":40,"time":211.16645549999998,"velocity":0.23622047244094488},{"duration":0.16666649999999095,"midi":40,"time":211.333122,"velocity":0.23622047244094488},{"duration":0.16666649999999095,"midi":42,"time":211.4997885,"velocity":0.23622047244094488},{"duration":0.16666650000001937,"midi":40,"time":211.66645499999998,"velocity":0.23622047244094488},{"duration":0.16666649999999095,"midi":40,"time":211.8331215,"velocity":0.23622047244094488},{"duration":0.16666649999999095,"midi":41,"time":211.999788,"velocity":0.23622047244094488},{"duration":0.16666649999999095,"midi":40,"time":211.999788,"velocity":0.23622047244094488},{"duration":0.16666650000001937,"midi":41,"time":212.1664545,"velocity":0.23622047244094488},{"duration":0.16666650000001937,"midi":40,"time":212.1664545,"velocity":0.23622047244094488},{"duration":0.16666649999999095,"midi":42,"time":212.333121,"velocity":0.23622047244094488},{"duration":0.16666649999999095,"midi":40,"time":212.4997875,"velocity":0.23622047244094488},{"duration":0.16666650000001937,"midi":40,"time":212.666454,"velocity":0.23622047244094488},{"duration":0.16666649999999095,"midi":42,"time":212.8331205,"velocity":0.23622047244094488},{"duration":0.16666649999999095,"midi":40,"time":212.999787,"velocity":0.23622047244094488},{"duration":0.16666650000001937,"midi":40,"time":213.1664535,"velocity":0.23622047244094488},{"duration":0.16666649999999095,"midi":40,"time":213.33312,"velocity":0.23622047244094488},{"duration":0.16666649999999095,"midi":41,"time":213.33312,"velocity":0.23622047244094488},{"duration":0.16666649999999095,"midi":41,"time":213.4997865,"velocity":0.23622047244094488},{"duration":0.16666649999999095,"midi":40,"time":213.4997865,"velocity":0.23622047244094488},{"duration":0.16666649999999095,"midi":42,"time":213.666453,"velocity":0.23622047244094488},{"duration":0.16666650000001937,"midi":40,"time":213.83311949999998,"velocity":0.23622047244094488},{"duration":0.16666649999999095,"midi":40,"time":213.999786,"velocity":0.23622047244094488},{"duration":0.16666649999999095,"midi":42,"time":214.1664525,"velocity":0.23622047244094488},{"duration":0.16666650000001937,"midi":40,"time":214.33311899999998,"velocity":0.23622047244094488},{"duration":0.16666649999999095,"midi":40,"time":214.4997855,"velocity":0.23622047244094488},{"duration":0.16666649999999095,"midi":41,"time":214.666452,"velocity":0.23622047244094488},{"duration":0.16666649999999095,"midi":40,"time":214.666452,"velocity":0.23622047244094488},{"duration":0.16666650000001937,"midi":41,"time":214.83311849999998,"velocity":0.23622047244094488},{"duration":0.16666650000001937,"midi":40,"time":214.83311849999998,"velocity":0.23622047244094488},{"duration":0.16666649999999095,"midi":42,"time":214.999785,"velocity":0.23622047244094488},{"duration":0.16666649999999095,"midi":40,"time":215.1664515,"velocity":0.23622047244094488},{"duration":0.16666650000001937,"midi":40,"time":215.33311799999998,"velocity":0.23622047244094488},{"duration":0.16666649999999095,"midi":42,"time":215.4997845,"velocity":0.23622047244094488},{"duration":0.16666649999999095,"midi":40,"time":215.666451,"velocity":0.23622047244094488},{"duration":0.16666650000001937,"midi":40,"time":215.8331175,"velocity":0.23622047244094488},{"duration":0.16666649999999095,"midi":40,"time":215.999784,"velocity":0.23622047244094488},{"duration":0.16666649999999095,"midi":40,"time":216.1664505,"velocity":0.23622047244094488},{"duration":0.16666650000001937,"midi":42,"time":216.333117,"velocity":0.23622047244094488},{"duration":0.16666649999999095,"midi":40,"time":216.4997835,"velocity":0.23622047244094488},{"duration":0.16666649999999095,"midi":40,"time":216.66645,"velocity":0.23622047244094488},{"duration":0.16666650000001937,"midi":42,"time":216.8331165,"velocity":0.23622047244094488},{"duration":0.16666649999999095,"midi":40,"time":216.999783,"velocity":0.23622047244094488},{"duration":0.16666649999999095,"midi":40,"time":217.1664495,"velocity":0.23622047244094488},{"duration":0.16666649999999095,"midi":41,"time":217.333116,"velocity":0.23622047244094488},{"duration":0.16666649999999095,"midi":40,"time":217.333116,"velocity":0.23622047244094488},{"duration":0.16666650000001937,"midi":41,"time":217.49978249999998,"velocity":0.23622047244094488},{"duration":0.16666650000001937,"midi":40,"time":217.49978249999998,"velocity":0.23622047244094488},{"duration":0.16666649999999095,"midi":42,"time":217.666449,"velocity":0.23622047244094488},{"duration":0.16666649999999095,"midi":40,"time":217.8331155,"velocity":0.23622047244094488},{"duration":0.16666650000001937,"midi":40,"time":217.99978199999998,"velocity":0.23622047244094488},{"duration":0.16666649999999095,"midi":42,"time":218.1664485,"velocity":0.23622047244094488},{"duration":0.16666649999999095,"midi":40,"time":218.333115,"velocity":0.23622047244094488},{"duration":0.16666650000001937,"midi":40,"time":218.49978149999998,"velocity":0.23622047244094488},{"duration":0.16666649999999095,"midi":41,"time":218.666448,"velocity":0.23622047244094488},{"duration":0.16666649999999095,"midi":40,"time":218.666448,"velocity":0.23622047244094488},{"duration":0.16666649999999095,"midi":40,"time":218.8331145,"velocity":0.23622047244094488},{"duration":0.16666649999999095,"midi":41,"time":218.8331145,"velocity":0.23622047244094488},{"duration":0.16666650000001937,"midi":42,"time":218.99978099999998,"velocity":0.23622047244094488},{"duration":0.16666649999999095,"midi":40,"time":219.1664475,"velocity":0.23622047244094488},{"duration":0.16666649999999095,"midi":40,"time":219.333114,"velocity":0.23622047244094488},{"duration":0.16666650000001937,"midi":42,"time":219.49978049999999,"velocity":0.23622047244094488},{"duration":0.16666649999999095,"midi":40,"time":219.666447,"velocity":0.23622047244094488},{"duration":0.16666649999999095,"midi":40,"time":219.8331135,"velocity":0.23622047244094488},{"duration":0.16666650000001937,"midi":41,"time":219.99978,"velocity":0.23622047244094488},{"duration":0.16666650000001937,"midi":40,"time":219.99978,"velocity":0.23622047244094488},{"duration":0.16666649999999095,"midi":40,"time":220.1664465,"velocity":0.23622047244094488},{"duration":0.16666649999999095,"midi":41,"time":220.1664465,"velocity":0.23622047244094488},{"duration":0.16666649999999095,"midi":42,"time":220.333113,"velocity":0.23622047244094488},{"duration":0.16666650000001937,"midi":40,"time":220.4997795,"velocity":0.23622047244094488},{"duration":0.16666649999999095,"midi":40,"time":220.666446,"velocity":0.23622047244094488},{"duration":0.16666649999999095,"midi":42,"time":220.8331125,"velocity":0.23622047244094488},{"duration":0.16666649999999095,"midi":40,"time":220.999779,"velocity":0.23622047244094488},{"duration":0.16666650000001937,"midi":40,"time":221.16644549999998,"velocity":0.23622047244094488},{"duration":0.16666649999999095,"midi":40,"time":221.333112,"velocity":0.23622047244094488},{"duration":0.16666649999999095,"midi":40,"time":221.4997785,"velocity":0.23622047244094488},{"duration":0.16666650000001937,"midi":42,"time":221.66644499999998,"velocity":0.23622047244094488},{"duration":0.16666649999999095,"midi":40,"time":221.8331115,"velocity":0.23622047244094488},{"duration":0.16666649999999095,"midi":40,"time":221.999778,"velocity":0.23622047244094488},{"duration":0.16666650000001937,"midi":42,"time":222.16644449999998,"velocity":0.23622047244094488},{"duration":0.16666649999999095,"midi":40,"time":222.333111,"velocity":0.23622047244094488},{"duration":0.16666649999999095,"midi":40,"time":222.4997775,"velocity":0.23622047244094488},{"duration":0.16666650000001937,"midi":41,"time":222.66644399999998,"velocity":0.23622047244094488},{"duration":0.16666650000001937,"midi":40,"time":222.66644399999998,"velocity":0.23622047244094488},{"duration":0.16666649999999095,"midi":41,"time":222.8331105,"velocity":0.23622047244094488},{"duration":0.16666649999999095,"midi":40,"time":222.8331105,"velocity":0.23622047244094488},{"duration":0.16666649999999095,"midi":42,"time":222.999777,"velocity":0.23622047244094488},{"duration":0.16666650000001937,"midi":40,"time":223.16644349999999,"velocity":0.23622047244094488},{"duration":0.16666649999999095,"midi":40,"time":223.33311,"velocity":0.23622047244094488},{"duration":0.16666649999999095,"midi":42,"time":223.4997765,"velocity":0.23622047244094488},{"duration":0.16666650000001937,"midi":40,"time":223.666443,"velocity":0.23622047244094488},{"duration":0.16666649999999095,"midi":40,"time":223.8331095,"velocity":0.23622047244094488},{"duration":0.16666649999999095,"midi":41,"time":223.999776,"velocity":0.23622047244094488},{"duration":0.16666649999999095,"midi":40,"time":223.999776,"velocity":0.23622047244094488},{"duration":0.16666650000001937,"midi":41,"time":224.1664425,"velocity":0.23622047244094488},{"duration":0.16666650000001937,"midi":40,"time":224.1664425,"velocity":0.23622047244094488},{"duration":0.16666649999999095,"midi":42,"time":224.333109,"velocity":0.23622047244094488},{"duration":0.16666649999999095,"midi":40,"time":224.4997755,"velocity":0.23622047244094488},{"duration":0.16666649999999095,"midi":40,"time":224.666442,"velocity":0.23622047244094488},{"duration":0.16666650000001937,"midi":42,"time":224.83310849999998,"velocity":0.23622047244094488},{"duration":0.16666649999999095,"midi":40,"time":224.999775,"velocity":0.23622047244094488},{"duration":0.16666649999999095,"midi":40,"time":225.1664415,"velocity":0.23622047244094488},{"duration":0.16666650000001937,"midi":41,"time":225.33310799999998,"velocity":0.23622047244094488},{"duration":0.16666650000001937,"midi":40,"time":225.33310799999998,"velocity":0.23622047244094488},{"duration":0.16666649999999095,"midi":41,"time":225.4997745,"velocity":0.23622047244094488},{"duration":0.16666649999999095,"midi":40,"time":225.4997745,"velocity":0.23622047244094488},{"duration":0.16666649999999095,"midi":42,"time":225.666441,"velocity":0.23622047244094488},{"duration":0.16666650000001937,"midi":40,"time":225.83310749999998,"velocity":0.23622047244094488},{"duration":0.16666649999999095,"midi":40,"time":225.999774,"velocity":0.23622047244094488},{"duration":0.16666649999999095,"midi":42,"time":226.1664405,"velocity":0.23622047244094488},{"duration":0.16666650000001937,"midi":40,"time":226.33310699999998,"velocity":0.23622047244094488},{"duration":0.16666649999999095,"midi":40,"time":226.4997735,"velocity":0.23622047244094488},{"duration":0.16666649999999095,"midi":40,"time":226.66644,"velocity":0.23622047244094488},{"duration":0.16666650000001937,"midi":40,"time":226.83310649999999,"velocity":0.23622047244094488},{"duration":0.16666649999999095,"midi":42,"time":226.999773,"velocity":0.23622047244094488},{"duration":0.16666649999999095,"midi":40,"time":227.1664395,"velocity":0.23622047244094488},{"duration":0.16666650000001937,"midi":40,"time":227.333106,"velocity":0.23622047244094488},{"duration":0.16666649999999095,"midi":42,"time":227.4997725,"velocity":0.23622047244094488},{"duration":0.16666649999999095,"midi":40,"time":227.666439,"velocity":0.23622047244094488},{"duration":0.16666650000001937,"midi":40,"time":227.8331055,"velocity":0.23622047244094488},{"duration":0.16666649999999095,"midi":40,"time":227.999772,"velocity":0.23622047244094488},{"duration":0.16666649999999095,"midi":41,"time":227.999772,"velocity":0.23622047244094488},{"duration":0.16666649999999095,"midi":41,"time":228.1664385,"velocity":0.23622047244094488},{"duration":0.16666649999999095,"midi":40,"time":228.1664385,"velocity":0.23622047244094488},{"duration":0.16666649999999095,"midi":42,"time":228.333105,"velocity":0.23622047244094488},{"duration":0.16666650000001937,"midi":40,"time":228.49977149999998,"velocity":0.23622047244094488},{"duration":0.16666649999999095,"midi":40,"time":228.666438,"velocity":0.23622047244094488},{"duration":0.16666649999999095,"midi":42,"time":228.8331045,"velocity":0.23622047244094488},{"duration":0.16666650000001937,"midi":40,"time":228.99977099999998,"velocity":0.23622047244094488},{"duration":0.16666649999999095,"midi":40,"time":229.1664375,"velocity":0.23622047244094488},{"duration":0.16666649999999095,"midi":41,"time":229.333104,"velocity":0.23622047244094488},{"duration":0.16666649999999095,"midi":40,"time":229.333104,"velocity":0.23622047244094488},{"duration":0.16666650000001937,"midi":41,"time":229.49977049999998,"velocity":0.23622047244094488},{"duration":0.16666650000001937,"midi":40,"time":229.49977049999998,"velocity":0.23622047244094488},{"duration":0.16666649999999095,"midi":42,"time":229.666437,"velocity":0.23622047244094488},{"duration":0.16666649999999095,"midi":40,"time":229.8331035,"velocity":0.23622047244094488},{"duration":0.16666650000001937,"midi":40,"time":229.99976999999998,"velocity":0.23622047244094488},{"duration":0.16666649999999095,"midi":42,"time":230.1664365,"velocity":0.23622047244094488},{"duration":0.16666649999999095,"midi":40,"time":230.333103,"velocity":0.23622047244094488},{"duration":0.16666650000001937,"midi":40,"time":230.49976949999999,"velocity":0.23622047244094488},{"duration":0.16666649999999095,"midi":41,"time":230.666436,"velocity":0.23622047244094488},{"duration":0.16666649999999095,"midi":40,"time":230.666436,"velocity":0.23622047244094488},{"duration":0.16666649999999095,"midi":41,"time":230.8331025,"velocity":0.23622047244094488},{"duration":0.16666649999999095,"midi":40,"time":230.8331025,"velocity":0.23622047244094488},{"duration":0.16666650000001937,"midi":42,"time":230.999769,"velocity":0.23622047244094488},{"duration":0.16666649999999095,"midi":40,"time":231.1664355,"velocity":0.23622047244094488},{"duration":0.16666649999999095,"midi":40,"time":231.333102,"velocity":0.23622047244094488},{"duration":0.16666650000001937,"midi":42,"time":231.4997685,"velocity":0.23622047244094488},{"duration":0.16666649999999095,"midi":40,"time":231.666435,"velocity":0.23622047244094488},{"duration":0.16666649999999095,"midi":40,"time":231.8331015,"velocity":0.23622047244094488},{"duration":0.16666649999999095,"midi":40,"time":231.999768,"velocity":0.23622047244094488},{"duration":0.16666650000001937,"midi":40,"time":232.16643449999998,"velocity":0.23622047244094488},{"duration":0.16666649999999095,"midi":42,"time":232.333101,"velocity":0.23622047244094488},{"duration":0.16666649999999095,"midi":40,"time":232.4997675,"velocity":0.23622047244094488},{"duration":0.16666650000001937,"midi":40,"time":232.66643399999998,"velocity":0.23622047244094488},{"duration":0.16666649999999095,"midi":42,"time":232.8331005,"velocity":0.23622047244094488},{"duration":0.16666649999999095,"midi":40,"time":232.999767,"velocity":0.23622047244094488},{"duration":0.16666650000001937,"midi":40,"time":233.16643349999998,"velocity":0.23622047244094488},{"duration":0.16666649999999095,"midi":41,"time":233.3331,"velocity":0.23622047244094488},{"duration":0.16666649999999095,"midi":40,"time":233.3331,"velocity":0.23622047244094488},{"duration":0.16666649999999095,"midi":40,"time":233.4997665,"velocity":0.23622047244094488},{"duration":0.16666649999999095,"midi":41,"time":233.4997665,"velocity":0.23622047244094488},{"duration":0.16666650000001937,"midi":42,"time":233.66643299999998,"velocity":0.23622047244094488},{"duration":0.16666649999999095,"midi":40,"time":233.8330995,"velocity":0.23622047244094488},{"duration":0.16666649999999095,"midi":40,"time":233.999766,"velocity":0.23622047244094488},{"duration":0.16666650000001937,"midi":42,"time":234.16643249999998,"velocity":0.23622047244094488},{"duration":0.16666649999999095,"midi":40,"time":234.333099,"velocity":0.23622047244094488},{"duration":0.16666649999999095,"midi":40,"time":234.4997655,"velocity":0.23622047244094488},{"duration":0.16666650000001937,"midi":41,"time":234.666432,"velocity":0.23622047244094488},{"duration":0.16666650000001937,"midi":40,"time":234.666432,"velocity":0.23622047244094488},{"duration":0.16666649999999095,"midi":41,"time":234.8330985,"velocity":0.23622047244094488},{"duration":0.16666649999999095,"midi":40,"time":234.8330985,"velocity":0.23622047244094488},{"duration":0.16666649999999095,"midi":42,"time":234.999765,"velocity":0.23622047244094488},{"duration":0.16666650000001937,"midi":40,"time":235.1664315,"velocity":0.23622047244094488},{"duration":0.16666649999999095,"midi":40,"time":235.333098,"velocity":0.23622047244094488},{"duration":0.16666649999999095,"midi":42,"time":235.4997645,"velocity":0.23622047244094488},{"duration":0.16666649999999095,"midi":40,"time":235.666431,"velocity":0.23622047244094488},{"duration":0.16666650000001937,"midi":40,"time":235.83309749999998,"velocity":0.23622047244094488},{"duration":0.16666649999999095,"midi":41,"time":235.999764,"velocity":0.23622047244094488},{"duration":0.16666649999999095,"midi":40,"time":235.999764,"velocity":0.23622047244094488},{"duration":0.16666649999999095,"midi":41,"time":236.1664305,"velocity":0.23622047244094488},{"duration":0.16666649999999095,"midi":40,"time":236.1664305,"velocity":0.23622047244094488},{"duration":0.16666650000001937,"midi":42,"time":236.33309699999998,"velocity":0.23622047244094488},{"duration":0.16666649999999095,"midi":40,"time":236.4997635,"velocity":0.23622047244094488},{"duration":0.16666649999999095,"midi":40,"time":236.66643,"velocity":0.23622047244094488},{"duration":0.16666650000001937,"midi":42,"time":236.83309649999998,"velocity":0.23622047244094488},{"duration":0.16666649999999095,"midi":40,"time":236.999763,"velocity":0.23622047244094488},{"duration":0.16666649999999095,"midi":40,"time":237.1664295,"velocity":0.23622047244094488},{"duration":0.16666650000001937,"midi":41,"time":237.33309599999998,"velocity":0.23622047244094488},{"duration":0.16666650000001937,"midi":40,"time":237.33309599999998,"velocity":0.23622047244094488},{"duration":0.16666649999999095,"midi":41,"time":237.4997625,"velocity":0.23622047244094488},{"duration":0.16666649999999095,"midi":40,"time":237.4997625,"velocity":0.23622047244094488},{"duration":0.16666649999999095,"midi":42,"time":237.666429,"velocity":0.23622047244094488},{"duration":0.16666650000001937,"midi":40,"time":237.83309549999998,"velocity":0.23622047244094488},{"duration":0.16666649999999095,"midi":40,"time":237.999762,"velocity":0.23622047244094488},{"duration":0.16666649999999095,"midi":42,"time":238.1664285,"velocity":0.23622047244094488},{"duration":0.16666650000001937,"midi":40,"time":238.333095,"velocity":0.23622047244094488},{"duration":0.16666649999999095,"midi":40,"time":238.4997615,"velocity":0.23622047244094488},{"duration":0.16666649999999095,"midi":41,"time":238.666428,"velocity":0.23622047244094488},{"duration":0.16666649999999095,"midi":40,"time":238.666428,"velocity":0.23622047244094488},{"duration":0.16666650000001937,"midi":41,"time":238.8330945,"velocity":0.23622047244094488},{"duration":0.16666650000001937,"midi":40,"time":238.8330945,"velocity":0.23622047244094488},{"duration":0.16666649999999095,"midi":42,"time":238.999761,"velocity":0.23622047244094488},{"duration":0.16666649999999095,"midi":40,"time":239.1664275,"velocity":0.23622047244094488},{"duration":0.16666649999999095,"midi":40,"time":239.333094,"velocity":0.23622047244094488},{"duration":0.16666650000001937,"midi":42,"time":239.49976049999998,"velocity":0.23622047244094488},{"duration":0.16666649999999095,"midi":40,"time":239.666427,"velocity":0.23622047244094488},{"duration":0.16666649999999095,"midi":40,"time":239.8330935,"velocity":0.23622047244094488},{"duration":0.16666650000001937,"midi":40,"time":239.99975999999998,"velocity":0.23622047244094488},{"duration":0.16666650000001937,"midi":41,"time":239.99975999999998,"velocity":0.23622047244094488},{"duration":0.16666649999999095,"midi":41,"time":240.1664265,"velocity":0.23622047244094488},{"duration":0.16666649999999095,"midi":40,"time":240.1664265,"velocity":0.23622047244094488},{"duration":0.16666649999999095,"midi":42,"time":240.333093,"velocity":0.23622047244094488},{"duration":0.16666650000001937,"midi":40,"time":240.49975949999998,"velocity":0.23622047244094488},{"duration":0.16666649999999095,"midi":40,"time":240.666426,"velocity":0.23622047244094488},{"duration":0.16666649999999095,"midi":42,"time":240.8330925,"velocity":0.23622047244094488},{"duration":0.16666650000001937,"midi":40,"time":240.99975899999998,"velocity":0.23622047244094488},{"duration":0.16666649999999095,"midi":40,"time":241.1664255,"velocity":0.23622047244094488},{"duration":0.3333330000000103,"midi":41,"time":241.333092,"velocity":0.23622047244094488},{"duration":0.3333329999999819,"midi":41,"time":241.666425,"velocity":0.23622047244094488},{"duration":0.3333330000000103,"midi":41,"time":241.99975799999999,"velocity":0.23622047244094488},{"duration":0.3333330000000103,"midi":41,"time":242.333091,"velocity":0.23622047244094488},{"duration":0.16666649999999095,"midi":45,"time":242.666424,"velocity":0.23622047244094488},{"duration":0.16666649999999095,"midi":41,"time":242.666424,"velocity":0.23622047244094488},{"duration":0.16666649999999095,"midi":40,"time":242.666424,"velocity":0.23622047244094488},{"duration":0.16666649999999095,"midi":45,"time":242.8330905,"velocity":0.23622047244094488},{"duration":0.16666649999999095,"midi":45,"time":242.999757,"velocity":0.23622047244094488},{"duration":0.16666650000001937,"midi":41,"time":243.16642349999998,"velocity":0.23622047244094488},{"duration":0.16666650000001937,"midi":45,"time":243.16642349999998,"velocity":0.23622047244094488},{"duration":0.16666650000001937,"midi":40,"time":243.16642349999998,"velocity":0.23622047244094488},{"duration":0.16666649999999095,"midi":42,"time":243.33309,"velocity":0.23622047244094488},{"duration":0.16666649999999095,"midi":45,"time":243.33309,"velocity":0.23622047244094488},{"duration":0.16666649999999095,"midi":45,"time":243.4997565,"velocity":0.23622047244094488},{"duration":0.16666650000001937,"midi":45,"time":243.66642299999998,"velocity":0.23622047244094488},{"duration":0.16666649999999095,"midi":45,"time":243.8330895,"velocity":0.23622047244094488},{"duration":0.16666649999999095,"midi":40,"time":243.999756,"velocity":0.23622047244094488},{"duration":0.16666649999999095,"midi":41,"time":243.999756,"velocity":0.23622047244094488},{"duration":0.16666649999999095,"midi":45,"time":243.999756,"velocity":0.23622047244094488},{"duration":0.16666650000001937,"midi":45,"time":244.16642249999998,"velocity":0.23622047244094488},{"duration":0.16666649999999095,"midi":45,"time":244.333089,"velocity":0.23622047244094488},{"duration":0.16666649999999095,"midi":45,"time":244.4997555,"velocity":0.23622047244094488},{"duration":0.16666649999999095,"midi":40,"time":244.4997555,"velocity":0.23622047244094488},{"duration":0.16666649999999095,"midi":41,"time":244.4997555,"velocity":0.23622047244094488},{"duration":0.16666650000001937,"midi":42,"time":244.66642199999998,"velocity":0.23622047244094488},{"duration":0.16666650000001937,"midi":45,"time":244.66642199999998,"velocity":0.23622047244094488},{"duration":0.16666649999999095,"midi":45,"time":244.8330885,"velocity":0.23622047244094488},{"duration":0.16666649999999095,"midi":45,"time":244.999755,"velocity":0.23622047244094488},{"duration":0.16666650000001937,"midi":45,"time":245.16642149999998,"velocity":0.23622047244094488},{"duration":0.16666649999999095,"midi":41,"time":245.333088,"velocity":0.23622047244094488},{"duration":0.16666649999999095,"midi":40,"time":245.333088,"velocity":0.23622047244094488},{"duration":0.16666649999999095,"midi":45,"time":245.333088,"velocity":0.23622047244094488},{"duration":0.16666649999999095,"midi":45,"time":245.4997545,"velocity":0.23622047244094488},{"duration":0.16666650000001937,"midi":45,"time":245.66642099999999,"velocity":0.23622047244094488},{"duration":0.16666649999999095,"midi":40,"time":245.8330875,"velocity":0.23622047244094488},{"duration":0.16666649999999095,"midi":41,"time":245.8330875,"velocity":0.23622047244094488},{"duration":0.16666649999999095,"midi":45,"time":245.8330875,"velocity":0.23622047244094488},{"duration":0.16666649999999095,"midi":45,"time":245.999754,"velocity":0.23622047244094488},{"duration":0.16666649999999095,"midi":42,"time":245.999754,"velocity":0.23622047244094488},{"duration":0.16666650000001937,"midi":45,"time":246.1664205,"velocity":0.23622047244094488},{"duration":0.16666649999999095,"midi":45,"time":246.333087,"velocity":0.23622047244094488},{"duration":0.16666649999999095,"midi":45,"time":246.4997535,"velocity":0.23622047244094488},{"duration":0.16666649999999095,"midi":40,"time":246.66642,"velocity":0.23622047244094488},{"duration":0.16666649999999095,"midi":41,"time":246.66642,"velocity":0.23622047244094488},{"duration":0.16666649999999095,"midi":45,"time":246.66642,"velocity":0.23622047244094488},{"duration":0.16666650000001937,"midi":45,"time":246.83308649999998,"velocity":0.23622047244094488},{"duration":0.16666649999999095,"midi":45,"time":246.999753,"velocity":0.23622047244094488},{"duration":0.16666649999999095,"midi":40,"time":247.1664195,"velocity":0.23622047244094488},{"duration":0.16666649999999095,"midi":45,"time":247.1664195,"velocity":0.23622047244094488},{"duration":0.16666649999999095,"midi":41,"time":247.1664195,"velocity":0.23622047244094488},{"duration":0.16666650000001937,"midi":42,"time":247.33308599999998,"velocity":0.23622047244094488},{"duration":0.16666650000001937,"midi":45,"time":247.33308599999998,"velocity":0.23622047244094488},{"duration":0.16666649999999095,"midi":45,"time":247.4997525,"velocity":0.23622047244094488},{"duration":0.16666649999999095,"midi":45,"time":247.666419,"velocity":0.23622047244094488},{"duration":0.16666650000001937,"midi":45,"time":247.83308549999998,"velocity":0.23622047244094488},{"duration":0.3333329999999819,"midi":53,"time":247.999752,"velocity":0.23622047244094488},{"duration":0.3333330000000103,"midi":53,"time":248.33308499999998,"velocity":0.23622047244094488},{"duration":0.3333330000000103,"midi":53,"time":248.666418,"velocity":0.23622047244094488},{"duration":0.3333329999999819,"midi":53,"time":248.999751,"velocity":0.23622047244094488},{"duration":0.3333330000000103,"midi":53,"time":249.33308399999999,"velocity":0.23622047244094488},{"duration":0.3333330000000103,"midi":53,"time":249.666417,"velocity":0.23622047244094488},{"duration":0.3333329999999819,"midi":53,"time":249.99975,"velocity":0.23622047244094488},{"duration":0.3333330000000103,"midi":53,"time":250.333083,"velocity":0.23622047244094488},{"duration":0.3333329999999819,"midi":53,"time":250.666416,"velocity":0.23622047244094488},{"duration":0.3333330000000103,"midi":53,"time":250.99974899999998,"velocity":0.23622047244094488},{"duration":0.3333330000000103,"midi":53,"time":251.333082,"velocity":0.23622047244094488},{"duration":0.3333329999999819,"midi":53,"time":251.666415,"velocity":0.23622047244094488},{"duration":0.3333330000000103,"midi":45,"time":251.99974799999998,"velocity":0.23622047244094488},{"duration":0.3333330000000103,"midi":41,"time":251.99974799999998,"velocity":0.23622047244094488},{"duration":0.16666650000001937,"midi":41,"time":252.49974749999998,"velocity":0.23622047244094488},{"duration":0.16666649999999095,"midi":41,"time":252.666414,"velocity":0.23622047244094488},{"duration":0.3333330000000103,"midi":41,"time":252.99974699999999,"velocity":0.23622047244094488},{"duration":0.16666649999999095,"midi":40,"time":253.33308,"velocity":0.23622047244094488},{"duration":0.16666650000001937,"midi":43,"time":253.4997465,"velocity":0.23622047244094488},{"duration":0.16666649999999095,"midi":42,"time":253.666413,"velocity":0.23622047244094488},{"duration":0.16666649999999095,"midi":43,"time":253.8330795,"velocity":0.23622047244094488},{"duration":0.16666649999999095,"midi":40,"time":253.999746,"velocity":0.23622047244094488},{"duration":0.16666650000001937,"midi":43,"time":254.16641249999998,"velocity":0.23622047244094488},{"duration":0.16666649999999095,"midi":42,"time":254.333079,"velocity":0.23622047244094488},{"duration":0.16666649999999095,"midi":43,"time":254.4997455,"velocity":0.23622047244094488},{"duration":0.16666650000001937,"midi":40,"time":254.66641199999998,"velocity":0.23622047244094488},{"duration":0.16666649999999095,"midi":43,"time":254.8330785,"velocity":0.23622047244094488},{"duration":0.16666649999999095,"midi":42,"time":254.999745,"velocity":0.23622047244094488},{"duration":0.16666650000001937,"midi":43,"time":255.16641149999998,"velocity":0.23622047244094488},{"duration":0.16666649999999095,"midi":40,"time":255.333078,"velocity":0.23622047244094488},{"duration":0.16666649999999095,"midi":43,"time":255.4997445,"velocity":0.23622047244094488},{"duration":0.16666650000001937,"midi":42,"time":255.66641099999998,"velocity":0.23622047244094488},{"duration":0.16666649999999095,"midi":43,"time":255.8330775,"velocity":0.23622047244094488},{"duration":0.16666649999999095,"midi":40,"time":255.999744,"velocity":0.23622047244094488},{"duration":0.16666650000001937,"midi":43,"time":256.1664105,"velocity":0.23622047244094488},{"duration":0.16666649999996253,"midi":42,"time":256.333077,"velocity":0.23622047244094488},{"duration":0.16666650000001937,"midi":43,"time":256.49974349999997,"velocity":0.23622047244094488},{"duration":0.16666650000001937,"midi":40,"time":256.66641,"velocity":0.23622047244094488},{"duration":0.16666649999996253,"midi":43,"time":256.8330765,"velocity":0.23622047244094488},{"duration":0.16666650000001937,"midi":42,"time":256.99974299999997,"velocity":0.23622047244094488},{"duration":0.16666650000001937,"midi":43,"time":257.1664095,"velocity":0.23622047244094488},{"duration":0.16666649999996253,"midi":40,"time":257.333076,"velocity":0.23622047244094488},{"duration":0.16666650000001937,"midi":43,"time":257.49974249999997,"velocity":0.23622047244094488},{"duration":0.16666650000001937,"midi":42,"time":257.666409,"velocity":0.23622047244094488},{"duration":0.16666649999996253,"midi":43,"time":257.8330755,"velocity":0.23622047244094488},{"duration":0.16666650000001937,"midi":40,"time":257.99974199999997,"velocity":0.23622047244094488},{"duration":0.16666650000001937,"midi":43,"time":258.1664085,"velocity":0.23622047244094488},{"duration":0.16666649999996253,"midi":42,"time":258.333075,"velocity":0.23622047244094488},{"duration":0.16666650000001937,"midi":43,"time":258.49974149999997,"velocity":0.23622047244094488},{"duration":0.16666650000001937,"midi":40,"time":258.666408,"velocity":0.23622047244094488},{"duration":0.16666649999996253,"midi":43,"time":258.8330745,"velocity":0.23622047244094488},{"duration":0.16666650000001937,"midi":42,"time":258.999741,"velocity":0.23622047244094488},{"duration":0.16666650000001937,"midi":43,"time":259.1664075,"velocity":0.23622047244094488},{"duration":0.16666649999996253,"midi":40,"time":259.333074,"velocity":0.23622047244094488},{"duration":0.16666650000001937,"midi":43,"time":259.4997405,"velocity":0.23622047244094488},{"duration":0.16666650000001937,"midi":42,"time":259.666407,"velocity":0.23622047244094488},{"duration":0.16666649999996253,"midi":43,"time":259.8330735,"velocity":0.23622047244094488},{"duration":0.16666650000001937,"midi":40,"time":259.99974,"velocity":0.23622047244094488},{"duration":0.16666650000001937,"midi":43,"time":260.1664065,"velocity":0.23622047244094488},{"duration":0.16666649999996253,"midi":42,"time":260.333073,"velocity":0.23622047244094488},{"duration":0.16666650000001937,"midi":43,"time":260.4997395,"velocity":0.23622047244094488},{"duration":0.16666650000001937,"midi":40,"time":260.666406,"velocity":0.23622047244094488},{"duration":0.16666649999996253,"midi":43,"time":260.8330725,"velocity":0.23622047244094488},{"duration":0.16666650000001937,"midi":42,"time":260.999739,"velocity":0.23622047244094488},{"duration":0.16666650000001937,"midi":43,"time":261.1664055,"velocity":0.23622047244094488},{"duration":0.16666649999996253,"midi":40,"time":261.333072,"velocity":0.23622047244094488},{"duration":0.16666650000001937,"midi":43,"time":261.4997385,"velocity":0.23622047244094488},{"duration":0.16666650000001937,"midi":42,"time":261.666405,"velocity":0.23622047244094488},{"duration":0.16666649999996253,"midi":43,"time":261.8330715,"velocity":0.23622047244094488},{"duration":0.16666650000001937,"midi":40,"time":261.999738,"velocity":0.23622047244094488},{"duration":0.16666650000001937,"midi":43,"time":262.1664045,"velocity":0.23622047244094488},{"duration":0.16666649999996253,"midi":42,"time":262.333071,"velocity":0.23622047244094488},{"duration":0.16666650000001937,"midi":43,"time":262.4997375,"velocity":0.23622047244094488},{"duration":0.16666650000001937,"midi":40,"time":262.666404,"velocity":0.23622047244094488},{"duration":0.16666649999996253,"midi":43,"time":262.8330705,"velocity":0.23622047244094488},{"duration":0.16666650000001937,"midi":42,"time":262.999737,"velocity":0.23622047244094488},{"duration":0.16666650000001937,"midi":43,"time":263.1664035,"velocity":0.23622047244094488},{"duration":0.16666649999996253,"midi":40,"time":263.33307,"velocity":0.23622047244094488},{"duration":0.16666650000001937,"midi":43,"time":263.4997365,"velocity":0.23622047244094488},{"duration":0.16666649999996253,"midi":42,"time":263.666403,"velocity":0.23622047244094488},{"duration":0.16666650000001937,"midi":43,"time":263.83306949999997,"velocity":0.23622047244094488},{"duration":0.16666650000001937,"midi":40,"time":263.999736,"velocity":0.23622047244094488},{"duration":0.16666649999996253,"midi":43,"time":264.1664025,"velocity":0.23622047244094488},{"duration":0.16666650000001937,"midi":42,"time":264.33306899999997,"velocity":0.23622047244094488},{"duration":0.16666650000001937,"midi":43,"time":264.4997355,"velocity":0.23622047244094488},{"duration":0.16666649999996253,"midi":40,"time":264.666402,"velocity":0.23622047244094488},{"duration":0.16666650000001937,"midi":43,"time":264.83306849999997,"velocity":0.23622047244094488},{"duration":0.16666650000001937,"midi":42,"time":264.999735,"velocity":0.23622047244094488},{"duration":0.16666649999996253,"midi":43,"time":265.1664015,"velocity":0.23622047244094488},{"duration":0.16666650000001937,"midi":40,"time":265.33306799999997,"velocity":0.23622047244094488},{"duration":0.16666650000001937,"midi":43,"time":265.4997345,"velocity":0.23622047244094488},{"duration":0.16666649999996253,"midi":42,"time":265.666401,"velocity":0.23622047244094488},{"duration":0.16666650000001937,"midi":43,"time":265.83306749999997,"velocity":0.23622047244094488},{"duration":0.16666650000001937,"midi":40,"time":265.999734,"velocity":0.23622047244094488},{"duration":0.16666649999996253,"midi":43,"time":266.1664005,"velocity":0.23622047244094488},{"duration":0.16666650000001937,"midi":42,"time":266.33306699999997,"velocity":0.23622047244094488},{"duration":0.16666650000001937,"midi":43,"time":266.4997335,"velocity":0.23622047244094488},{"duration":0.16666649999996253,"midi":40,"time":266.6664,"velocity":0.23622047244094488},{"duration":0.16666650000001937,"midi":43,"time":266.8330665,"velocity":0.23622047244094488},{"duration":0.16666650000001937,"midi":42,"time":266.999733,"velocity":0.23622047244094488},{"duration":0.16666649999996253,"midi":43,"time":267.1663995,"velocity":0.23622047244094488},{"duration":0.16666650000001937,"midi":40,"time":267.333066,"velocity":0.23622047244094488},{"duration":0.16666650000001937,"midi":43,"time":267.4997325,"velocity":0.23622047244094488},{"duration":0.16666649999996253,"midi":42,"time":267.666399,"velocity":0.23622047244094488},{"duration":0.16666650000001937,"midi":43,"time":267.8330655,"velocity":0.23622047244094488},{"duration":0.16666650000001937,"midi":40,"time":267.999732,"velocity":0.23622047244094488},{"duration":0.16666649999996253,"midi":43,"time":268.1663985,"velocity":0.23622047244094488},{"duration":0.16666650000001937,"midi":42,"time":268.333065,"velocity":0.23622047244094488},{"duration":0.16666650000001937,"midi":43,"time":268.4997315,"velocity":0.23622047244094488},{"duration":0.16666649999996253,"midi":40,"time":268.666398,"velocity":0.23622047244094488},{"duration":0.16666650000001937,"midi":43,"time":268.8330645,"velocity":0.23622047244094488},{"duration":0.16666650000001937,"midi":42,"time":268.999731,"velocity":0.23622047244094488},{"duration":0.16666649999996253,"midi":43,"time":269.1663975,"velocity":0.23622047244094488},{"duration":0.16666650000001937,"midi":40,"time":269.333064,"velocity":0.23622047244094488},{"duration":0.16666650000001937,"midi":43,"time":269.4997305,"velocity":0.23622047244094488},{"duration":0.16666649999996253,"midi":42,"time":269.666397,"velocity":0.23622047244094488},{"duration":0.16666650000001937,"midi":43,"time":269.8330635,"velocity":0.23622047244094488},{"duration":0.16666650000001937,"midi":40,"time":269.99973,"velocity":0.23622047244094488},{"duration":0.16666649999996253,"midi":43,"time":270.1663965,"velocity":0.23622047244094488},{"duration":0.16666650000001937,"midi":42,"time":270.333063,"velocity":0.23622047244094488},{"duration":0.16666650000001937,"midi":43,"time":270.4997295,"velocity":0.23622047244094488},{"duration":0.16666649999996253,"midi":40,"time":270.666396,"velocity":0.23622047244094488},{"duration":0.16666650000001937,"midi":43,"time":270.8330625,"velocity":0.23622047244094488},{"duration":0.16666649999996253,"midi":42,"time":270.999729,"velocity":0.23622047244094488},{"duration":0.16666650000001937,"midi":43,"time":271.16639549999996,"velocity":0.23622047244094488},{"duration":0.16666650000001937,"midi":40,"time":271.333062,"velocity":0.23622047244094488},{"duration":0.16666649999996253,"midi":43,"time":271.4997285,"velocity":0.23622047244094488},{"duration":0.16666650000001937,"midi":42,"time":271.66639499999997,"velocity":0.23622047244094488},{"duration":0.16666650000001937,"midi":43,"time":271.8330615,"velocity":0.23622047244094488},{"duration":0.16666649999996253,"midi":40,"time":271.999728,"velocity":0.23622047244094488},{"duration":0.16666650000001937,"midi":43,"time":272.16639449999997,"velocity":0.23622047244094488},{"duration":0.16666650000001937,"midi":42,"time":272.333061,"velocity":0.23622047244094488},{"duration":0.16666649999996253,"midi":43,"time":272.4997275,"velocity":0.23622047244094488},{"duration":0.16666650000001937,"midi":40,"time":272.66639399999997,"velocity":0.23622047244094488},{"duration":0.16666650000001937,"midi":43,"time":272.8330605,"velocity":0.23622047244094488},{"duration":0.16666649999996253,"midi":42,"time":272.999727,"velocity":0.23622047244094488},{"duration":0.16666650000001937,"midi":43,"time":273.16639349999997,"velocity":0.23622047244094488},{"duration":0.16666650000001937,"midi":40,"time":273.33306,"velocity":0.23622047244094488},{"duration":0.16666649999996253,"midi":43,"time":273.4997265,"velocity":0.23622047244094488},{"duration":0.16666650000001937,"midi":42,"time":273.66639299999997,"velocity":0.23622047244094488},{"duration":0.16666650000001937,"midi":43,"time":273.8330595,"velocity":0.23622047244094488},{"duration":0.16666649999996253,"midi":40,"time":273.999726,"velocity":0.23622047244094488},{"duration":0.16666650000001937,"midi":43,"time":274.1663925,"velocity":0.23622047244094488},{"duration":0.16666650000001937,"midi":42,"time":274.333059,"velocity":0.23622047244094488},{"duration":0.16666649999996253,"midi":43,"time":274.4997255,"velocity":0.23622047244094488},{"duration":0.16666650000001937,"midi":45,"time":274.666392,"velocity":0.23622047244094488},{"duration":0.16666650000001937,"midi":45,"time":274.8330585,"velocity":0.23622047244094488},{"duration":0.16666649999996253,"midi":45,"time":274.999725,"velocity":0.23622047244094488},{"duration":0.16666650000001937,"midi":45,"time":275.1663915,"velocity":0.23622047244094488},{"duration":0.16666650000001937,"midi":45,"time":275.333058,"velocity":0.23622047244094488},{"duration":0.16666649999996253,"midi":45,"time":275.4997245,"velocity":0.23622047244094488},{"duration":0.16666650000001937,"midi":45,"time":275.666391,"velocity":0.23622047244094488},{"duration":0.16666650000001937,"midi":45,"time":275.8330575,"velocity":0.23622047244094488},{"duration":0.16666649999996253,"midi":45,"time":275.999724,"velocity":0.23622047244094488},{"duration":0.16666650000001937,"midi":45,"time":276.1663905,"velocity":0.23622047244094488},{"duration":0.16666650000001937,"midi":45,"time":276.333057,"velocity":0.23622047244094488},{"duration":0.16666649999996253,"midi":45,"time":276.4997235,"velocity":0.23622047244094488},{"duration":0.16666650000001937,"midi":45,"time":276.66639,"velocity":0.23622047244094488},{"duration":0.16666650000001937,"midi":45,"time":276.8330565,"velocity":0.23622047244094488},{"duration":0.16666649999996253,"midi":45,"time":276.999723,"velocity":0.23622047244094488},{"duration":0.16666650000001937,"midi":45,"time":277.1663895,"velocity":0.23622047244094488},{"duration":0.16666650000001937,"midi":45,"time":277.333056,"velocity":0.23622047244094488},{"duration":0.16666649999996253,"midi":45,"time":277.4997225,"velocity":0.23622047244094488},{"duration":0.16666650000001937,"midi":45,"time":277.666389,"velocity":0.23622047244094488},{"duration":0.16666650000001937,"midi":45,"time":277.8330555,"velocity":0.23622047244094488},{"duration":0.16666649999996253,"midi":45,"time":277.999722,"velocity":0.23622047244094488},{"duration":0.16666650000001937,"midi":45,"time":278.1663885,"velocity":0.23622047244094488},{"duration":0.16666649999996253,"midi":45,"time":278.333055,"velocity":0.23622047244094488},{"duration":0.16666650000001937,"midi":45,"time":278.49972149999996,"velocity":0.23622047244094488},{"duration":0.16666650000001937,"midi":45,"time":278.666388,"velocity":0.23622047244094488},{"duration":0.16666649999996253,"midi":45,"time":278.8330545,"velocity":0.23622047244094488},{"duration":0.16666650000001937,"midi":45,"time":278.99972099999997,"velocity":0.23622047244094488},{"duration":0.16666650000001937,"midi":45,"time":279.1663875,"velocity":0.23622047244094488},{"duration":0.16666649999996253,"midi":45,"time":279.333054,"velocity":0.23622047244094488},{"duration":0.16666650000001937,"midi":45,"time":279.49972049999997,"velocity":0.23622047244094488},{"duration":0.16666650000001937,"midi":45,"time":279.666387,"velocity":0.23622047244094488},{"duration":0.16666649999996253,"midi":45,"time":279.8330535,"velocity":0.23622047244094488},{"duration":0.16666650000001937,"midi":45,"time":279.99971999999997,"velocity":0.23622047244094488},{"duration":0.16666650000001937,"midi":45,"time":280.1663865,"velocity":0.23622047244094488},{"duration":0.16666649999996253,"midi":45,"time":280.333053,"velocity":0.23622047244094488},{"duration":0.16666650000001937,"midi":45,"time":280.49971949999997,"velocity":0.23622047244094488},{"duration":0.16666650000001937,"midi":45,"time":280.666386,"velocity":0.23622047244094488},{"duration":0.16666649999996253,"midi":45,"time":280.8330525,"velocity":0.23622047244094488},{"duration":0.16666650000001937,"midi":45,"time":280.99971899999997,"velocity":0.23622047244094488},{"duration":0.16666650000001937,"midi":45,"time":281.1663855,"velocity":0.23622047244094488},{"duration":0.16666649999996253,"midi":45,"time":281.333052,"velocity":0.23622047244094488},{"duration":0.16666650000001937,"midi":45,"time":281.4997185,"velocity":0.23622047244094488},{"duration":0.16666650000001937,"midi":45,"time":281.666385,"velocity":0.23622047244094488},{"duration":0.16666649999996253,"midi":45,"time":281.8330515,"velocity":0.23622047244094488},{"duration":0.16666650000001937,"midi":45,"time":281.999718,"velocity":0.23622047244094488},{"duration":0.16666650000001937,"midi":45,"time":282.1663845,"velocity":0.23622047244094488},{"duration":0.16666649999996253,"midi":45,"time":282.333051,"velocity":0.23622047244094488},{"duration":0.16666650000001937,"midi":45,"time":282.4997175,"velocity":0.23622047244094488},{"duration":0.16666650000001937,"midi":45,"time":282.666384,"velocity":0.23622047244094488},{"duration":0.16666649999996253,"midi":45,"time":282.8330505,"velocity":0.23622047244094488},{"duration":0.16666650000001937,"midi":45,"time":282.999717,"velocity":0.23622047244094488},{"duration":0.16666650000001937,"midi":45,"time":283.1663835,"velocity":0.23622047244094488},{"duration":0.16666649999996253,"midi":45,"time":283.33305,"velocity":0.23622047244094488},{"duration":0.16666650000001937,"midi":45,"time":283.4997165,"velocity":0.23622047244094488},{"duration":0.16666650000001937,"midi":45,"time":283.666383,"velocity":0.23622047244094488},{"duration":0.16666649999996253,"midi":45,"time":283.8330495,"velocity":0.23622047244094488},{"duration":0.16666650000001937,"midi":45,"time":283.999716,"velocity":0.23622047244094488},{"duration":0.16666650000001937,"midi":45,"time":284.1663825,"velocity":0.23622047244094488},{"duration":0.16666649999996253,"midi":45,"time":284.333049,"velocity":0.23622047244094488},{"duration":0.16666650000001937,"midi":45,"time":284.4997155,"velocity":0.23622047244094488},{"duration":0.16666650000001937,"midi":45,"time":284.666382,"velocity":0.23622047244094488},{"duration":0.16666649999996253,"midi":45,"time":284.8330485,"velocity":0.23622047244094488},{"duration":0.16666650000001937,"midi":45,"time":284.999715,"velocity":0.23622047244094488},{"duration":0.16666650000001937,"midi":45,"time":285.1663815,"velocity":0.23622047244094488},{"duration":0.16666649999996253,"midi":45,"time":285.333048,"velocity":0.23622047244094488},{"duration":0.16666650000001937,"midi":45,"time":285.4997145,"velocity":0.23622047244094488},{"duration":0.16666649999996253,"midi":45,"time":285.666381,"velocity":0.23622047244094488},{"duration":0.16666650000001937,"midi":45,"time":285.83304749999996,"velocity":0.23622047244094488},{"duration":0.16666650000001937,"midi":45,"time":285.999714,"velocity":0.23622047244094488},{"duration":0.16666649999996253,"midi":45,"time":286.1663805,"velocity":0.23622047244094488},{"duration":0.16666650000001937,"midi":45,"time":286.33304699999997,"velocity":0.23622047244094488},{"duration":0.16666650000001937,"midi":45,"time":286.4997135,"velocity":0.23622047244094488},{"duration":0.16666649999996253,"midi":45,"time":286.66638,"velocity":0.23622047244094488},{"duration":0.16666650000001937,"midi":45,"time":286.83304649999997,"velocity":0.23622047244094488},{"duration":0.16666650000001937,"midi":45,"time":286.999713,"velocity":0.23622047244094488},{"duration":0.16666649999996253,"midi":45,"time":287.1663795,"velocity":0.23622047244094488},{"duration":0.16666650000001937,"midi":45,"time":287.33304599999997,"velocity":0.23622047244094488},{"duration":0.16666650000001937,"midi":45,"time":287.4997125,"velocity":0.23622047244094488},{"duration":0.16666649999996253,"midi":45,"time":287.666379,"velocity":0.23622047244094488},{"duration":0.16666650000001937,"midi":45,"time":287.83304549999997,"velocity":0.23622047244094488},{"duration":0.16666650000001937,"midi":45,"time":287.999712,"velocity":0.23622047244094488},{"duration":0.16666649999996253,"midi":45,"time":288.1663785,"velocity":0.23622047244094488},{"duration":0.16666650000001937,"midi":45,"time":288.33304499999997,"velocity":0.23622047244094488},{"duration":0.16666650000001937,"midi":45,"time":288.4997115,"velocity":0.23622047244094488},{"duration":0.16666649999996253,"midi":45,"time":288.666378,"velocity":0.23622047244094488},{"duration":0.16666650000001937,"midi":45,"time":288.83304449999997,"velocity":0.23622047244094488},{"duration":0.16666650000001937,"midi":45,"time":288.999711,"velocity":0.23622047244094488},{"duration":0.16666649999996253,"midi":45,"time":289.1663775,"velocity":0.23622047244094488},{"duration":0.16666650000001937,"midi":45,"time":289.333044,"velocity":0.23622047244094488},{"duration":0.16666650000001937,"midi":45,"time":289.4997105,"velocity":0.23622047244094488},{"duration":0.16666649999996253,"midi":45,"time":289.666377,"velocity":0.23622047244094488},{"duration":0.16666650000001937,"midi":45,"time":289.8330435,"velocity":0.23622047244094488},{"duration":0.16666650000001937,"midi":45,"time":289.99971,"velocity":0.23622047244094488},{"duration":0.16666649999996253,"midi":45,"time":290.1663765,"velocity":0.23622047244094488},{"duration":0.16666650000001937,"midi":45,"time":290.333043,"velocity":0.23622047244094488},{"duration":0.16666650000001937,"midi":45,"time":290.4997095,"velocity":0.23622047244094488},{"duration":0.16666649999996253,"midi":45,"time":290.666376,"velocity":0.23622047244094488},{"duration":0.16666650000001937,"midi":45,"time":290.8330425,"velocity":0.23622047244094488},{"duration":0.16666650000001937,"midi":45,"time":290.999709,"velocity":0.23622047244094488},{"duration":0.16666649999996253,"midi":45,"time":291.1663755,"velocity":0.23622047244094488},{"duration":0.16666650000001937,"midi":45,"time":291.333042,"velocity":0.23622047244094488},{"duration":0.16666650000001937,"midi":45,"time":291.4997085,"velocity":0.23622047244094488},{"duration":0.16666649999996253,"midi":45,"time":291.666375,"velocity":0.23622047244094488},{"duration":0.16666650000001937,"midi":45,"time":291.8330415,"velocity":0.23622047244094488},{"duration":0.16666650000001937,"midi":45,"time":291.999708,"velocity":0.23622047244094488},{"duration":0.16666649999996253,"midi":45,"time":292.1663745,"velocity":0.23622047244094488},{"duration":0.16666650000001937,"midi":45,"time":292.333041,"velocity":0.23622047244094488},{"duration":0.16666650000001937,"midi":45,"time":292.4997075,"velocity":0.23622047244094488},{"duration":0.16666649999996253,"midi":45,"time":292.666374,"velocity":0.23622047244094488},{"duration":0.16666650000001937,"midi":45,"time":292.8330405,"velocity":0.23622047244094488},{"duration":0.16666649999996253,"midi":45,"time":292.999707,"velocity":0.23622047244094488},{"duration":0.16666650000001937,"midi":45,"time":293.16637349999996,"velocity":0.23622047244094488},{"duration":0.16666650000001937,"midi":45,"time":293.33304,"velocity":0.23622047244094488},{"duration":0.16666649999996253,"midi":45,"time":293.4997065,"velocity":0.23622047244094488},{"duration":0.16666650000001937,"midi":45,"time":293.66637299999996,"velocity":0.23622047244094488},{"duration":0.16666650000001937,"midi":45,"time":293.8330395,"velocity":0.23622047244094488},{"duration":0.16666649999996253,"midi":45,"time":293.999706,"velocity":0.23622047244094488},{"duration":0.16666650000001937,"midi":45,"time":294.16637249999997,"velocity":0.23622047244094488},{"duration":0.16666650000001937,"midi":45,"time":294.333039,"velocity":0.23622047244094488},{"duration":0.16666649999996253,"midi":45,"time":294.4997055,"velocity":0.23622047244094488},{"duration":0.16666650000001937,"midi":45,"time":294.66637199999997,"velocity":0.23622047244094488},{"duration":0.16666650000001937,"midi":45,"time":294.8330385,"velocity":0.23622047244094488},{"duration":0.16666649999996253,"midi":45,"time":294.999705,"velocity":0.23622047244094488},{"duration":0.16666650000001937,"midi":45,"time":295.16637149999997,"velocity":0.23622047244094488},{"duration":0.16666650000001937,"midi":45,"time":295.333038,"velocity":0.23622047244094488},{"duration":0.16666649999996253,"midi":45,"time":295.4997045,"velocity":0.23622047244094488},{"duration":0.16666650000001937,"midi":45,"time":295.66637099999997,"velocity":0.23622047244094488},{"duration":0.16666650000001937,"midi":45,"time":295.8330375,"velocity":0.23622047244094488},{"duration":0.16666649999996253,"midi":40,"time":295.999704,"velocity":0.23622047244094488},{"duration":0.16666650000001937,"midi":43,"time":296.16637049999997,"velocity":0.23622047244094488},{"duration":0.16666650000001937,"midi":42,"time":296.333037,"velocity":0.23622047244094488},{"duration":0.16666649999996253,"midi":43,"time":296.4997035,"velocity":0.23622047244094488},{"duration":0.16666650000001937,"midi":40,"time":296.66637,"velocity":0.23622047244094488},{"duration":0.16666650000001937,"midi":43,"time":296.8330365,"velocity":0.23622047244094488},{"duration":0.16666649999996253,"midi":42,"time":296.999703,"velocity":0.23622047244094488},{"duration":0.16666650000001937,"midi":43,"time":297.1663695,"velocity":0.23622047244094488},{"duration":0.16666650000001937,"midi":40,"time":297.333036,"velocity":0.23622047244094488},{"duration":0.16666649999996253,"midi":43,"time":297.4997025,"velocity":0.23622047244094488},{"duration":0.16666650000001937,"midi":42,"time":297.666369,"velocity":0.23622047244094488},{"duration":0.16666650000001937,"midi":43,"time":297.8330355,"velocity":0.23622047244094488},{"duration":0.16666649999996253,"midi":40,"time":297.999702,"velocity":0.23622047244094488},{"duration":0.16666650000001937,"midi":43,"time":298.1663685,"velocity":0.23622047244094488},{"duration":0.16666650000001937,"midi":42,"time":298.333035,"velocity":0.23622047244094488},{"duration":0.16666649999996253,"midi":43,"time":298.4997015,"velocity":0.23622047244094488},{"duration":0.16666650000001937,"midi":40,"time":298.666368,"velocity":0.23622047244094488},{"duration":0.16666650000001937,"midi":43,"time":298.8330345,"velocity":0.23622047244094488},{"duration":0.16666649999996253,"midi":42,"time":298.999701,"velocity":0.23622047244094488},{"duration":0.16666650000001937,"midi":43,"time":299.1663675,"velocity":0.23622047244094488},{"duration":0.16666650000001937,"midi":40,"time":299.333034,"velocity":0.23622047244094488},{"duration":0.16666649999996253,"midi":43,"time":299.4997005,"velocity":0.23622047244094488},{"duration":0.16666650000001937,"midi":42,"time":299.666367,"velocity":0.23622047244094488},{"duration":0.16666650000001937,"midi":43,"time":299.8330335,"velocity":0.23622047244094488},{"duration":0.16666649999996253,"midi":40,"time":299.9997,"velocity":0.23622047244094488},{"duration":0.16666650000001937,"midi":43,"time":300.1663665,"velocity":0.23622047244094488},{"duration":0.16666650000001937,"midi":42,"time":300.333033,"velocity":0.23622047244094488},{"duration":0.16666649999996253,"midi":43,"time":300.4996995,"velocity":0.23622047244094488},{"duration":0.16666650000001937,"midi":40,"time":300.666366,"velocity":0.23622047244094488},{"duration":0.16666649999996253,"midi":43,"time":300.8330325,"velocity":0.23622047244094488},{"duration":0.16666650000001937,"midi":42,"time":300.99969899999996,"velocity":0.23622047244094488},{"duration":0.16666650000001937,"midi":43,"time":301.1663655,"velocity":0.23622047244094488},{"duration":0.16666649999996253,"midi":40,"time":301.333032,"velocity":0.23622047244094488},{"duration":0.16666650000001937,"midi":43,"time":301.49969849999997,"velocity":0.23622047244094488},{"duration":0.16666650000001937,"midi":42,"time":301.666365,"velocity":0.23622047244094488},{"duration":0.16666649999996253,"midi":43,"time":301.8330315,"velocity":0.23622047244094488},{"duration":0.16666650000001937,"midi":40,"time":301.99969799999997,"velocity":0.23622047244094488},{"duration":0.16666650000001937,"midi":43,"time":302.1663645,"velocity":0.23622047244094488},{"duration":0.16666649999996253,"midi":42,"time":302.333031,"velocity":0.23622047244094488},{"duration":0.16666650000001937,"midi":43,"time":302.49969749999997,"velocity":0.23622047244094488},{"duration":0.16666650000001937,"midi":40,"time":302.666364,"velocity":0.23622047244094488},{"duration":0.16666649999996253,"midi":43,"time":302.8330305,"velocity":0.23622047244094488},{"duration":0.16666650000001937,"midi":42,"time":302.99969699999997,"velocity":0.23622047244094488},{"duration":0.16666650000001937,"midi":43,"time":303.1663635,"velocity":0.23622047244094488},{"duration":0.16666649999996253,"midi":40,"time":303.33303,"velocity":0.23622047244094488},{"duration":0.16666650000001937,"midi":43,"time":303.49969649999997,"velocity":0.23622047244094488},{"duration":0.16666650000001937,"midi":42,"time":303.666363,"velocity":0.23622047244094488},{"duration":0.16666649999996253,"midi":43,"time":303.8330295,"velocity":0.23622047244094488},{"duration":0.16666650000001937,"midi":40,"time":303.999696,"velocity":0.23622047244094488},{"duration":0.16666650000001937,"midi":43,"time":304.1663625,"velocity":0.23622047244094488},{"duration":0.16666649999996253,"midi":42,"time":304.333029,"velocity":0.23622047244094488},{"duration":0.16666650000001937,"midi":43,"time":304.4996955,"velocity":0.23622047244094488},{"duration":0.16666650000001937,"midi":40,"time":304.666362,"velocity":0.23622047244094488},{"duration":0.16666649999996253,"midi":43,"time":304.8330285,"velocity":0.23622047244094488},{"duration":0.16666650000001937,"midi":42,"time":304.999695,"velocity":0.23622047244094488},{"duration":0.16666650000001937,"midi":43,"time":305.1663615,"velocity":0.23622047244094488},{"duration":0.49999950000000126,"midi":53,"time":305.333028,"velocity":0.23622047244094488},{"duration":0.49999950000000126,"midi":52,"time":305.333028,"velocity":0.23622047244094488},{"duration":0.49999950000000126,"midi":56,"time":305.333028,"velocity":0.23622047244094488},{"duration":0.49999950000000126,"midi":53,"time":305.333028,"velocity":0.23622047244094488},{"duration":0.49999950000000126,"midi":52,"time":305.8330275,"velocity":0.23622047244094488},{"duration":0.49999950000000126,"midi":56,"time":305.8330275,"velocity":0.23622047244094488},{"duration":0.49999950000000126,"midi":53,"time":305.8330275,"velocity":0.23622047244094488},{"duration":0.49999950000000126,"midi":53,"time":305.8330275,"velocity":0.23622047244094488},{"duration":0.3333329999999819,"midi":53,"time":306.333027,"velocity":0.23622047244094488},{"duration":0.3333329999999819,"midi":52,"time":306.333027,"velocity":0.23622047244094488},{"duration":0.3333329999999819,"midi":56,"time":306.333027,"velocity":0.23622047244094488},{"duration":0.3333329999999819,"midi":53,"time":306.333027,"velocity":0.23622047244094488},{"duration":0.3333329999999819,"midi":56,"time":322.333011,"velocity":0.23622047244094488},{"duration":0.3333329999999819,"midi":52,"time":322.333011,"velocity":0.23622047244094488},{"duration":0.3333329999999819,"midi":53,"time":322.333011,"velocity":0.23622047244094488},{"duration":0.3333329999999819,"midi":53,"time":322.333011,"velocity":0.23622047244094488},{"duration":0.3333329999999819,"midi":53,"time":322.666344,"velocity":0.23622047244094488},{"duration":0.3333329999999819,"midi":56,"time":322.666344,"velocity":0.23622047244094488},{"duration":0.3333329999999819,"midi":52,"time":322.666344,"velocity":0.23622047244094488},{"duration":0.3333329999999819,"midi":53,"time":322.666344,"velocity":0.23622047244094488},{"duration":0.16666650000001937,"midi":42,"time":322.99967699999996,"velocity":0.23622047244094488},{"duration":0.16666650000001937,"midi":43,"time":323.1663435,"velocity":0.23622047244094488},{"duration":0.16666649999996253,"midi":40,"time":323.33301,"velocity":0.23622047244094488},{"duration":0.16666650000001937,"midi":43,"time":323.49967649999996,"velocity":0.23622047244094488},{"duration":0.16666650000001937,"midi":42,"time":323.666343,"velocity":0.23622047244094488},{"duration":0.16666649999996253,"midi":43,"time":323.8330095,"velocity":0.23622047244094488},{"duration":0.16666650000001937,"midi":40,"time":323.99967599999997,"velocity":0.23622047244094488},{"duration":0.16666650000001937,"midi":43,"time":324.1663425,"velocity":0.23622047244094488},{"duration":0.16666649999996253,"midi":42,"time":324.333009,"velocity":0.23622047244094488},{"duration":0.16666650000001937,"midi":43,"time":324.49967549999997,"velocity":0.23622047244094488},{"duration":0.16666650000001937,"midi":40,"time":324.666342,"velocity":0.23622047244094488},{"duration":0.16666649999996253,"midi":43,"time":324.8330085,"velocity":0.23622047244094488},{"duration":0.16666650000001937,"midi":42,"time":324.99967499999997,"velocity":0.23622047244094488},{"duration":0.16666650000001937,"midi":43,"time":325.1663415,"velocity":0.23622047244094488},{"duration":0.16666649999996253,"midi":40,"time":325.333008,"velocity":0.23622047244094488},{"duration":0.16666650000001937,"midi":43,"time":325.49967449999997,"velocity":0.23622047244094488},{"duration":0.16666650000001937,"midi":42,"time":325.666341,"velocity":0.23622047244094488},{"duration":0.16666649999996253,"midi":43,"time":325.8330075,"velocity":0.23622047244094488},{"duration":0.16666650000001937,"midi":40,"time":325.99967399999997,"velocity":0.23622047244094488},{"duration":0.16666650000001937,"midi":43,"time":326.1663405,"velocity":0.23622047244094488},{"duration":0.16666649999996253,"midi":42,"time":326.333007,"velocity":0.23622047244094488},{"duration":0.16666650000001937,"midi":43,"time":326.4996735,"velocity":0.23622047244094488},{"duration":0.16666650000001937,"midi":40,"time":326.66634,"velocity":0.23622047244094488},{"duration":0.16666649999996253,"midi":43,"time":326.8330065,"velocity":0.23622047244094488},{"duration":0.16666650000001937,"midi":42,"time":326.999673,"velocity":0.23622047244094488},{"duration":0.16666650000001937,"midi":43,"time":327.1663395,"velocity":0.23622047244094488},{"duration":0.16666649999996253,"midi":40,"time":327.333006,"velocity":0.23622047244094488},{"duration":0.16666650000001937,"midi":43,"time":327.4996725,"velocity":0.23622047244094488},{"duration":0.16666650000001937,"midi":42,"time":327.666339,"velocity":0.23622047244094488},{"duration":0.16666649999996253,"midi":43,"time":327.8330055,"velocity":0.23622047244094488},{"duration":0.16666650000001937,"midi":45,"time":327.999672,"velocity":0.23622047244094488},{"duration":0.16666650000001937,"midi":45,"time":328.1663385,"velocity":0.23622047244094488},{"duration":0.16666649999996253,"midi":45,"time":328.333005,"velocity":0.23622047244094488},{"duration":0.16666650000001937,"midi":45,"time":328.4996715,"velocity":0.23622047244094488},{"duration":0.16666650000001937,"midi":45,"time":328.666338,"velocity":0.23622047244094488},{"duration":0.16666649999996253,"midi":45,"time":328.8330045,"velocity":0.23622047244094488},{"duration":0.16666650000001937,"midi":45,"time":328.999671,"velocity":0.23622047244094488},{"duration":0.16666650000001937,"midi":45,"time":329.1663375,"velocity":0.23622047244094488},{"duration":0.16666649999996253,"midi":45,"time":329.333004,"velocity":0.23622047244094488},{"duration":0.16666650000001937,"midi":45,"time":329.4996705,"velocity":0.23622047244094488},{"duration":0.16666650000001937,"midi":45,"time":329.666337,"velocity":0.23622047244094488},{"duration":0.16666649999996253,"midi":45,"time":329.8330035,"velocity":0.23622047244094488},{"duration":0.16666650000001937,"midi":45,"time":329.99967,"velocity":0.23622047244094488},{"duration":0.16666649999996253,"midi":45,"time":330.1663365,"velocity":0.23622047244094488},{"duration":0.16666650000001937,"midi":45,"time":330.33300299999996,"velocity":0.23622047244094488},{"duration":0.16666650000001937,"midi":45,"time":330.4996695,"velocity":0.23622047244094488},{"duration":0.16666649999996253,"midi":45,"time":330.666336,"velocity":0.23622047244094488},{"duration":0.16666650000001937,"midi":45,"time":330.83300249999996,"velocity":0.23622047244094488},{"duration":0.16666650000001937,"midi":45,"time":330.999669,"velocity":0.23622047244094488},{"duration":0.16666649999996253,"midi":45,"time":331.1663355,"velocity":0.23622047244094488},{"duration":0.16666650000001937,"midi":45,"time":331.33300199999996,"velocity":0.23622047244094488},{"duration":0.16666650000001937,"midi":45,"time":331.4996685,"velocity":0.23622047244094488},{"duration":0.16666649999996253,"midi":45,"time":331.666335,"velocity":0.23622047244094488},{"duration":0.16666650000001937,"midi":45,"time":331.83300149999997,"velocity":0.23622047244094488},{"duration":0.16666650000001937,"midi":45,"time":331.999668,"velocity":0.23622047244094488},{"duration":0.16666649999996253,"midi":45,"time":332.1663345,"velocity":0.23622047244094488},{"duration":0.16666650000001937,"midi":45,"time":332.33300099999997,"velocity":0.23622047244094488},{"duration":0.16666650000001937,"midi":45,"time":332.4996675,"velocity":0.23622047244094488},{"duration":0.16666649999996253,"midi":45,"time":332.666334,"velocity":0.23622047244094488},{"duration":0.16666650000001937,"midi":45,"time":332.83300049999997,"velocity":0.23622047244094488},{"duration":0.16666650000001937,"midi":45,"time":332.999667,"velocity":0.23622047244094488},{"duration":0.16666649999996253,"midi":45,"time":333.1663335,"velocity":0.23622047244094488},{"duration":0.16666650000001937,"midi":45,"time":333.33299999999997,"velocity":0.23622047244094488},{"duration":0.16666650000001937,"midi":45,"time":333.4996665,"velocity":0.23622047244094488},{"duration":0.16666649999996253,"midi":45,"time":333.666333,"velocity":0.23622047244094488},{"duration":0.16666650000001937,"midi":45,"time":333.83299949999997,"velocity":0.23622047244094488},{"duration":0.16666650000001937,"midi":45,"time":333.999666,"velocity":0.23622047244094488},{"duration":0.16666649999996253,"midi":45,"time":334.1663325,"velocity":0.23622047244094488},{"duration":0.16666650000001937,"midi":45,"time":334.332999,"velocity":0.23622047244094488},{"duration":0.16666650000001937,"midi":45,"time":334.4996655,"velocity":0.23622047244094488},{"duration":0.16666649999996253,"midi":45,"time":334.666332,"velocity":0.23622047244094488},{"duration":0.16666650000001937,"midi":45,"time":334.8329985,"velocity":0.23622047244094488},{"duration":0.16666650000001937,"midi":45,"time":334.999665,"velocity":0.23622047244094488},{"duration":0.16666649999996253,"midi":45,"time":335.1663315,"velocity":0.23622047244094488},{"duration":0.16666650000001937,"midi":45,"time":335.332998,"velocity":0.23622047244094488},{"duration":0.16666650000001937,"midi":45,"time":335.4996645,"velocity":0.23622047244094488},{"duration":0.16666649999996253,"midi":45,"time":335.666331,"velocity":0.23622047244094488},{"duration":0.16666650000001937,"midi":45,"time":335.8329975,"velocity":0.23622047244094488},{"duration":0.16666650000001937,"midi":45,"time":335.999664,"velocity":0.23622047244094488},{"duration":0.16666649999996253,"midi":45,"time":336.1663305,"velocity":0.23622047244094488},{"duration":0.16666650000001937,"midi":45,"time":336.332997,"velocity":0.23622047244094488},{"duration":0.16666650000001937,"midi":45,"time":336.4996635,"velocity":0.23622047244094488},{"duration":0.16666649999996253,"midi":45,"time":336.66633,"velocity":0.23622047244094488},{"duration":0.16666650000001937,"midi":45,"time":336.8329965,"velocity":0.23622047244094488},{"duration":0.16666650000001937,"midi":45,"time":336.999663,"velocity":0.23622047244094488},{"duration":0.16666649999996253,"midi":45,"time":337.1663295,"velocity":0.23622047244094488},{"duration":0.16666650000001937,"midi":45,"time":337.332996,"velocity":0.23622047244094488},{"duration":0.16666649999996253,"midi":45,"time":337.4996625,"velocity":0.23622047244094488},{"duration":0.16666650000001937,"midi":45,"time":337.66632899999996,"velocity":0.23622047244094488},{"duration":0.16666650000001937,"midi":45,"time":337.8329955,"velocity":0.23622047244094488},{"duration":0.16666649999996253,"midi":45,"time":337.999662,"velocity":0.23622047244094488},{"duration":0.16666650000001937,"midi":45,"time":338.16632849999996,"velocity":0.23622047244094488},{"duration":0.16666650000001937,"midi":45,"time":338.332995,"velocity":0.23622047244094488},{"duration":0.16666649999996253,"midi":45,"time":338.4996615,"velocity":0.23622047244094488},{"duration":0.16666650000001937,"midi":45,"time":338.66632799999996,"velocity":0.23622047244094488},{"duration":0.16666650000001937,"midi":45,"time":338.8329945,"velocity":0.23622047244094488},{"duration":0.16666649999996253,"midi":45,"time":338.999661,"velocity":0.23622047244094488},{"duration":0.16666650000001937,"midi":45,"time":339.16632749999997,"velocity":0.23622047244094488},{"duration":0.16666650000001937,"midi":45,"time":339.332994,"velocity":0.23622047244094488},{"duration":0.16666649999996253,"midi":45,"time":339.4996605,"velocity":0.23622047244094488},{"duration":0.16666650000001937,"midi":45,"time":339.66632699999997,"velocity":0.23622047244094488},{"duration":0.16666650000001937,"midi":45,"time":339.8329935,"velocity":0.23622047244094488},{"duration":0.16666649999996253,"midi":45,"time":339.99966,"velocity":0.23622047244094488},{"duration":0.16666650000001937,"midi":45,"time":340.16632649999997,"velocity":0.23622047244094488},{"duration":0.16666650000001937,"midi":45,"time":340.332993,"velocity":0.23622047244094488},{"duration":0.16666649999996253,"midi":45,"time":340.4996595,"velocity":0.23622047244094488},{"duration":0.16666650000001937,"midi":45,"time":340.66632599999997,"velocity":0.23622047244094488},{"duration":0.16666650000001937,"midi":45,"time":340.8329925,"velocity":0.23622047244094488},{"duration":0.16666649999996253,"midi":45,"time":340.999659,"velocity":0.23622047244094488},{"duration":0.16666650000001937,"midi":45,"time":341.16632549999997,"velocity":0.23622047244094488},{"duration":0.16666650000001937,"midi":45,"time":341.332992,"velocity":0.23622047244094488},{"duration":0.16666649999996253,"midi":45,"time":341.4996585,"velocity":0.23622047244094488},{"duration":0.16666650000001937,"midi":45,"time":341.666325,"velocity":0.23622047244094488},{"duration":0.16666650000001937,"midi":45,"time":341.8329915,"velocity":0.23622047244094488},{"duration":0.16666649999996253,"midi":45,"time":341.999658,"velocity":0.23622047244094488},{"duration":0.16666650000001937,"midi":45,"time":342.1663245,"velocity":0.23622047244094488},{"duration":0.16666650000001937,"midi":45,"time":342.332991,"velocity":0.23622047244094488},{"duration":0.16666649999996253,"midi":45,"time":342.4996575,"velocity":0.23622047244094488},{"duration":0.16666650000001937,"midi":45,"time":342.666324,"velocity":0.23622047244094488},{"duration":0.16666650000001937,"midi":45,"time":342.8329905,"velocity":0.23622047244094488},{"duration":0.16666649999996253,"midi":45,"time":342.999657,"velocity":0.23622047244094488},{"duration":0.16666650000001937,"midi":45,"time":343.1663235,"velocity":0.23622047244094488},{"duration":0.16666650000001937,"midi":45,"time":343.33299,"velocity":0.23622047244094488},{"duration":0.16666649999996253,"midi":45,"time":343.4996565,"velocity":0.23622047244094488},{"duration":0.16666650000001937,"midi":45,"time":343.666323,"velocity":0.23622047244094488},{"duration":0.16666650000001937,"midi":45,"time":343.8329895,"velocity":0.23622047244094488},{"duration":0.16666649999996253,"midi":45,"time":343.999656,"velocity":0.23622047244094488},{"duration":0.16666650000001937,"midi":45,"time":344.1663225,"velocity":0.23622047244094488},{"duration":0.16666650000001937,"midi":45,"time":344.332989,"velocity":0.23622047244094488},{"duration":0.16666649999996253,"midi":45,"time":344.4996555,"velocity":0.23622047244094488},{"duration":0.16666650000001937,"midi":45,"time":344.666322,"velocity":0.23622047244094488},{"duration":0.16666650000001937,"midi":45,"time":344.8329885,"velocity":0.23622047244094488},{"duration":0.16666649999996253,"midi":45,"time":344.999655,"velocity":0.23622047244094488},{"duration":0.16666650000001937,"midi":45,"time":345.1663215,"velocity":0.23622047244094488},{"duration":0.16666649999996253,"midi":45,"time":345.332988,"velocity":0.23622047244094488},{"duration":0.16666650000001937,"midi":45,"time":345.49965449999996,"velocity":0.23622047244094488},{"duration":0.16666650000001937,"midi":45,"time":345.666321,"velocity":0.23622047244094488},{"duration":0.16666649999996253,"midi":45,"time":345.8329875,"velocity":0.23622047244094488},{"duration":0.16666650000001937,"midi":45,"time":345.99965399999996,"velocity":0.23622047244094488},{"duration":0.16666650000001937,"midi":45,"time":346.1663205,"velocity":0.23622047244094488},{"duration":0.16666649999996253,"midi":45,"time":346.332987,"velocity":0.23622047244094488},{"duration":0.16666650000001937,"midi":45,"time":346.49965349999997,"velocity":0.23622047244094488},{"duration":0.16666650000001937,"midi":45,"time":346.66632,"velocity":0.23622047244094488},{"duration":0.16666649999996253,"midi":45,"time":346.8329865,"velocity":0.23622047244094488},{"duration":0.16666650000001937,"midi":45,"time":346.99965299999997,"velocity":0.23622047244094488},{"duration":0.16666650000001937,"midi":45,"time":347.1663195,"velocity":0.23622047244094488},{"duration":0.16666649999996253,"midi":45,"time":347.332986,"velocity":0.23622047244094488},{"duration":0.16666650000001937,"midi":45,"time":347.49965249999997,"velocity":0.23622047244094488},{"duration":0.16666650000001937,"midi":45,"time":347.666319,"velocity":0.23622047244094488},{"duration":0.16666649999996253,"midi":45,"time":347.8329855,"velocity":0.23622047244094488},{"duration":0.16666650000001937,"midi":45,"time":347.99965199999997,"velocity":0.23622047244094488},{"duration":0.16666650000001937,"midi":45,"time":348.1663185,"velocity":0.23622047244094488},{"duration":0.16666650000001937,"midi":45,"time":348.666318,"velocity":0.23622047244094488},{"duration":0.16666649999996253,"midi":45,"time":348.8329845,"velocity":0.23622047244094488},{"duration":0.16666649999996253,"midi":40,"time":349.332984,"velocity":0.23622047244094488},{"duration":0.16666650000001937,"midi":43,"time":349.4996505,"velocity":0.23622047244094488},{"duration":0.16666650000001937,"midi":42,"time":349.666317,"velocity":0.23622047244094488},{"duration":0.16666649999996253,"midi":43,"time":349.8329835,"velocity":0.23622047244094488},{"duration":0.16666650000001937,"midi":40,"time":349.99965,"velocity":0.23622047244094488},{"duration":0.16666650000001937,"midi":43,"time":350.1663165,"velocity":0.23622047244094488},{"duration":0.16666649999996253,"midi":42,"time":350.332983,"velocity":0.23622047244094488},{"duration":0.16666650000001937,"midi":43,"time":350.4996495,"velocity":0.23622047244094488},{"duration":0.16666650000001937,"midi":40,"time":350.666316,"velocity":0.23622047244094488},{"duration":0.16666649999996253,"midi":43,"time":350.8329825,"velocity":0.23622047244094488},{"duration":0.16666650000001937,"midi":42,"time":350.999649,"velocity":0.23622047244094488},{"duration":0.16666650000001937,"midi":43,"time":351.1663155,"velocity":0.23622047244094488},{"duration":0.16666649999996253,"midi":40,"time":351.332982,"velocity":0.23622047244094488},{"duration":0.16666650000001937,"midi":43,"time":351.4996485,"velocity":0.23622047244094488},{"duration":0.16666650000001937,"midi":42,"time":351.666315,"velocity":0.23622047244094488},{"duration":0.16666649999996253,"midi":43,"time":351.8329815,"velocity":0.23622047244094488},{"duration":0.16666650000001937,"midi":40,"time":351.999648,"velocity":0.23622047244094488},{"duration":0.16666650000001937,"midi":43,"time":352.1663145,"velocity":0.23622047244094488},{"duration":0.16666649999996253,"midi":42,"time":352.332981,"velocity":0.23622047244094488},{"duration":0.16666650000001937,"midi":43,"time":352.4996475,"velocity":0.23622047244094488},{"duration":0.16666649999996253,"midi":40,"time":352.666314,"velocity":0.23622047244094488},{"duration":0.16666650000001937,"midi":43,"time":352.83298049999996,"velocity":0.23622047244094488},{"duration":0.16666650000001937,"midi":42,"time":352.999647,"velocity":0.23622047244094488},{"duration":0.16666649999996253,"midi":43,"time":353.1663135,"velocity":0.23622047244094488},{"duration":0.16666650000001937,"midi":40,"time":353.33297999999996,"velocity":0.23622047244094488},{"duration":0.16666650000001937,"midi":43,"time":353.4996465,"velocity":0.23622047244094488},{"duration":0.16666649999996253,"midi":42,"time":353.666313,"velocity":0.23622047244094488},{"duration":0.16666650000001937,"midi":43,"time":353.83297949999996,"velocity":0.23622047244094488},{"duration":0.16666650000001937,"midi":40,"time":353.999646,"velocity":0.23622047244094488},{"duration":0.16666649999996253,"midi":43,"time":354.1663125,"velocity":0.23622047244094488},{"duration":0.16666650000001937,"midi":42,"time":354.33297899999997,"velocity":0.23622047244094488},{"duration":0.16666650000001937,"midi":43,"time":354.4996455,"velocity":0.23622047244094488},{"duration":0.16666649999996253,"midi":40,"time":354.666312,"velocity":0.23622047244094488},{"duration":0.16666650000001937,"midi":43,"time":354.83297849999997,"velocity":0.23622047244094488},{"duration":0.16666650000001937,"midi":42,"time":354.999645,"velocity":0.23622047244094488},{"duration":0.16666649999996253,"midi":43,"time":355.1663115,"velocity":0.23622047244094488},{"duration":0.16666650000001937,"midi":40,"time":355.33297799999997,"velocity":0.23622047244094488},{"duration":0.16666650000001937,"midi":43,"time":355.4996445,"velocity":0.23622047244094488},{"duration":0.16666649999996253,"midi":42,"time":355.666311,"velocity":0.23622047244094488},{"duration":0.16666650000001937,"midi":43,"time":355.83297749999997,"velocity":0.23622047244094488},{"duration":0.16666650000001937,"midi":40,"time":355.999644,"velocity":0.23622047244094488},{"duration":0.16666649999996253,"midi":43,"time":356.1663105,"velocity":0.23622047244094488},{"duration":0.16666650000001937,"midi":42,"time":356.33297699999997,"velocity":0.23622047244094488},{"duration":0.16666650000001937,"midi":43,"time":356.4996435,"velocity":0.23622047244094488},{"duration":0.16666649999996253,"midi":40,"time":356.66631,"velocity":0.23622047244094488},{"duration":0.16666650000001937,"midi":43,"time":356.8329765,"velocity":0.23622047244094488},{"duration":0.16666650000001937,"midi":42,"time":356.999643,"velocity":0.23622047244094488},{"duration":0.16666649999996253,"midi":43,"time":357.1663095,"velocity":0.23622047244094488},{"duration":0.16666650000001937,"midi":40,"time":357.332976,"velocity":0.23622047244094488},{"duration":0.16666650000001937,"midi":43,"time":357.4996425,"velocity":0.23622047244094488},{"duration":0.16666649999996253,"midi":42,"time":357.666309,"velocity":0.23622047244094488},{"duration":0.16666650000001937,"midi":43,"time":357.8329755,"velocity":0.23622047244094488},{"duration":0.16666650000001937,"midi":40,"time":357.999642,"velocity":0.23622047244094488},{"duration":0.16666649999996253,"midi":43,"time":358.1663085,"velocity":0.23622047244094488},{"duration":0.16666650000001937,"midi":42,"time":358.332975,"velocity":0.23622047244094488},{"duration":0.16666650000001937,"midi":43,"time":358.4996415,"velocity":0.23622047244094488},{"duration":0.16666649999996253,"midi":40,"time":358.666308,"velocity":0.23622047244094488},{"duration":0.16666650000001937,"midi":43,"time":358.8329745,"velocity":0.23622047244094488},{"duration":0.16666650000001937,"midi":42,"time":358.999641,"velocity":0.23622047244094488},{"duration":0.16666649999996253,"midi":43,"time":359.1663075,"velocity":0.23622047244094488},{"duration":0.16666650000001937,"midi":40,"time":359.332974,"velocity":0.23622047244094488},{"duration":0.16666650000001937,"midi":43,"time":359.4996405,"velocity":0.23622047244094488},{"duration":0.16666649999996253,"midi":42,"time":359.666307,"velocity":0.23622047244094488},{"duration":0.16666650000001937,"midi":43,"time":359.8329735,"velocity":0.23622047244094488},{"duration":0.16666649999996253,"midi":40,"time":359.99964,"velocity":0.23622047244094488},{"duration":0.16666650000001937,"midi":43,"time":360.16630649999996,"velocity":0.23622047244094488},{"duration":0.16666650000001937,"midi":42,"time":360.332973,"velocity":0.23622047244094488},{"duration":0.16666649999996253,"midi":43,"time":360.4996395,"velocity":0.23622047244094488},{"duration":0.16666650000001937,"midi":40,"time":360.66630599999996,"velocity":0.23622047244094488},{"duration":0.16666650000001937,"midi":43,"time":360.8329725,"velocity":0.23622047244094488},{"duration":0.16666649999996253,"midi":42,"time":360.999639,"velocity":0.23622047244094488},{"duration":0.16666650000001937,"midi":43,"time":361.16630549999996,"velocity":0.23622047244094488},{"duration":0.16666650000001937,"midi":40,"time":361.332972,"velocity":0.23622047244094488},{"duration":0.16666649999996253,"midi":43,"time":361.4996385,"velocity":0.23622047244094488},{"duration":0.16666650000001937,"midi":42,"time":361.66630499999997,"velocity":0.23622047244094488},{"duration":0.16666650000001937,"midi":43,"time":361.8329715,"velocity":0.23622047244094488},{"duration":0.16666649999996253,"midi":40,"time":361.999638,"velocity":0.23622047244094488},{"duration":0.16666650000001937,"midi":43,"time":362.16630449999997,"velocity":0.23622047244094488},{"duration":0.16666650000001937,"midi":42,"time":362.332971,"velocity":0.23622047244094488},{"duration":0.16666649999996253,"midi":43,"time":362.4996375,"velocity":0.23622047244094488},{"duration":0.16666650000001937,"midi":40,"time":362.66630399999997,"velocity":0.23622047244094488},{"duration":0.16666650000001937,"midi":43,"time":362.8329705,"velocity":0.23622047244094488},{"duration":0.16666649999996253,"midi":42,"time":362.999637,"velocity":0.23622047244094488},{"duration":0.16666650000001937,"midi":43,"time":363.16630349999997,"velocity":0.23622047244094488},{"duration":0.16666650000001937,"midi":40,"time":363.33297,"velocity":0.23622047244094488},{"duration":0.16666649999996253,"midi":43,"time":363.4996365,"velocity":0.23622047244094488},{"duration":0.16666650000001937,"midi":42,"time":363.66630299999997,"velocity":0.23622047244094488},{"duration":0.16666650000001937,"midi":43,"time":363.8329695,"velocity":0.23622047244094488},{"duration":0.16666649999996253,"midi":40,"time":363.999636,"velocity":0.23622047244094488},{"duration":0.16666650000001937,"midi":43,"time":364.1663025,"velocity":0.23622047244094488},{"duration":0.16666650000001937,"midi":42,"time":364.332969,"velocity":0.23622047244094488},{"duration":0.16666649999996253,"midi":43,"time":364.4996355,"velocity":0.23622047244094488},{"duration":0.16666650000001937,"midi":40,"time":364.666302,"velocity":0.23622047244094488},{"duration":0.16666650000001937,"midi":43,"time":364.8329685,"velocity":0.23622047244094488},{"duration":0.16666649999996253,"midi":42,"time":364.999635,"velocity":0.23622047244094488},{"duration":0.16666650000001937,"midi":43,"time":365.1663015,"velocity":0.23622047244094488},{"duration":0.16666650000001937,"midi":40,"time":365.332968,"velocity":0.23622047244094488},{"duration":0.16666649999996253,"midi":43,"time":365.4996345,"velocity":0.23622047244094488},{"duration":0.16666650000001937,"midi":42,"time":365.666301,"velocity":0.23622047244094488},{"duration":0.16666650000001937,"midi":43,"time":365.8329675,"velocity":0.23622047244094488},{"duration":0.16666649999996253,"midi":40,"time":365.999634,"velocity":0.23622047244094488},{"duration":0.16666650000001937,"midi":43,"time":366.1663005,"velocity":0.23622047244094488},{"duration":0.16666650000001937,"midi":42,"time":366.332967,"velocity":0.23622047244094488},{"duration":0.16666649999996253,"midi":43,"time":366.4996335,"velocity":0.23622047244094488},{"duration":0.16666650000001937,"midi":40,"time":366.6663,"velocity":0.23622047244094488},{"duration":0.16666650000001937,"midi":43,"time":366.8329665,"velocity":0.23622047244094488},{"duration":0.16666649999996253,"midi":42,"time":366.999633,"velocity":0.23622047244094488},{"duration":0.16666650000001937,"midi":43,"time":367.1662995,"velocity":0.23622047244094488},{"duration":0.16666649999996253,"midi":40,"time":367.332966,"velocity":0.23622047244094488},{"duration":0.16666650000001937,"midi":43,"time":367.49963249999996,"velocity":0.23622047244094488},{"duration":0.16666650000001937,"midi":42,"time":367.666299,"velocity":0.23622047244094488},{"duration":0.16666649999996253,"midi":43,"time":367.8329655,"velocity":0.23622047244094488},{"duration":0.16666650000001937,"midi":40,"time":367.99963199999996,"velocity":0.23622047244094488},{"duration":0.16666650000001937,"midi":43,"time":368.1662985,"velocity":0.23622047244094488},{"duration":0.16666649999996253,"midi":42,"time":368.332965,"velocity":0.23622047244094488},{"duration":0.16666650000001937,"midi":43,"time":368.49963149999996,"velocity":0.23622047244094488},{"duration":0.16666650000001937,"midi":40,"time":368.666298,"velocity":0.23622047244094488},{"duration":0.16666649999996253,"midi":43,"time":368.8329645,"velocity":0.23622047244094488},{"duration":0.16666650000001937,"midi":42,"time":368.99963099999997,"velocity":0.23622047244094488},{"duration":0.16666650000001937,"midi":43,"time":369.1662975,"velocity":0.23622047244094488},{"duration":0.16666649999996253,"midi":40,"time":369.332964,"velocity":0.23622047244094488},{"duration":0.16666650000001937,"midi":43,"time":369.49963049999997,"velocity":0.23622047244094488},{"duration":0.16666650000001937,"midi":42,"time":369.666297,"velocity":0.23622047244094488},{"duration":0.16666649999996253,"midi":43,"time":369.8329635,"velocity":0.23622047244094488},{"duration":0.16666650000001937,"midi":40,"time":369.99962999999997,"velocity":0.23622047244094488},{"duration":0.16666650000001937,"midi":43,"time":370.1662965,"velocity":0.23622047244094488},{"duration":0.16666649999996253,"midi":42,"time":370.332963,"velocity":0.23622047244094488},{"duration":0.16666650000001937,"midi":43,"time":370.49962949999997,"velocity":0.23622047244094488},{"duration":0.16666650000001937,"midi":40,"time":418.666248,"velocity":0.23622047244094488},{"duration":0.16666649999996253,"midi":40,"time":418.8329145,"velocity":0.23622047244094488},{"duration":0.16666650000001937,"midi":42,"time":418.999581,"velocity":0.23622047244094488},{"duration":0.16666649999996253,"midi":40,"time":419.1662475,"velocity":0.23622047244094488},{"duration":0.16666650000001937,"midi":40,"time":419.33291399999996,"velocity":0.23622047244094488},{"duration":0.16666650000001937,"midi":42,"time":419.4995805,"velocity":0.23622047244094488},{"duration":0.16666649999996253,"midi":40,"time":419.666247,"velocity":0.23622047244094488},{"duration":0.16666650000001937,"midi":40,"time":419.83291349999996,"velocity":0.23622047244094488},{"duration":0.16666650000001937,"midi":41,"time":419.99958,"velocity":0.23622047244094488},{"duration":0.16666650000001937,"midi":40,"time":419.99958,"velocity":0.23622047244094488},{"duration":0.16666649999996253,"midi":41,"time":420.1662465,"velocity":0.23622047244094488},{"duration":0.16666649999996253,"midi":40,"time":420.1662465,"velocity":0.23622047244094488},{"duration":0.16666650000001937,"midi":42,"time":420.33291299999996,"velocity":0.23622047244094488},{"duration":0.16666650000001937,"midi":40,"time":420.4995795,"velocity":0.23622047244094488},{"duration":0.16666649999996253,"midi":40,"time":420.666246,"velocity":0.23622047244094488},{"duration":0.16666650000001937,"midi":42,"time":420.83291249999996,"velocity":0.23622047244094488},{"duration":0.16666650000001937,"midi":40,"time":420.999579,"velocity":0.23622047244094488},{"duration":0.16666649999996253,"midi":40,"time":421.1662455,"velocity":0.23622047244094488},{"duration":0.16666650000001937,"midi":41,"time":421.33291199999996,"velocity":0.23622047244094488},{"duration":0.16666650000001937,"midi":40,"time":421.33291199999996,"velocity":0.23622047244094488},{"duration":0.16666650000001937,"midi":40,"time":421.4995785,"velocity":0.23622047244094488},{"duration":0.16666650000001937,"midi":41,"time":421.4995785,"velocity":0.23622047244094488},{"duration":0.16666649999996253,"midi":42,"time":421.666245,"velocity":0.23622047244094488},{"duration":0.16666650000001937,"midi":40,"time":421.83291149999997,"velocity":0.23622047244094488},{"duration":0.16666650000001937,"midi":40,"time":421.999578,"velocity":0.23622047244094488},{"duration":0.16666649999996253,"midi":42,"time":422.1662445,"velocity":0.23622047244094488},{"duration":0.16666650000001937,"midi":40,"time":422.33291099999997,"velocity":0.23622047244094488},{"duration":0.16666650000001937,"midi":40,"time":422.4995775,"velocity":0.23622047244094488},{"duration":0.16666649999996253,"midi":40,"time":422.666244,"velocity":0.23622047244094488},{"duration":0.16666649999996253,"midi":41,"time":422.666244,"velocity":0.23622047244094488},{"duration":0.16666650000001937,"midi":41,"time":422.83291049999997,"velocity":0.23622047244094488},{"duration":0.16666650000001937,"midi":40,"time":422.83291049999997,"velocity":0.23622047244094488},{"duration":0.16666650000001937,"midi":42,"time":422.999577,"velocity":0.23622047244094488},{"duration":0.16666649999996253,"midi":40,"time":423.1662435,"velocity":0.23622047244094488},{"duration":0.16666650000001937,"midi":40,"time":423.33290999999997,"velocity":0.23622047244094488},{"duration":0.16666650000001937,"midi":42,"time":423.4995765,"velocity":0.23622047244094488},{"duration":0.16666649999996253,"midi":40,"time":423.666243,"velocity":0.23622047244094488},{"duration":0.16666650000001937,"midi":40,"time":423.83290949999997,"velocity":0.23622047244094488},{"duration":0.16666650000001937,"midi":40,"time":423.999576,"velocity":0.23622047244094488},{"duration":0.16666649999996253,"midi":40,"time":424.1662425,"velocity":0.23622047244094488},{"duration":0.16666650000001937,"midi":42,"time":424.332909,"velocity":0.23622047244094488},{"duration":0.16666650000001937,"midi":40,"time":424.4995755,"velocity":0.23622047244094488},{"duration":0.16666649999996253,"midi":40,"time":424.666242,"velocity":0.23622047244094488},{"duration":0.16666650000001937,"midi":42,"time":424.8329085,"velocity":0.23622047244094488},{"duration":0.16666650000001937,"midi":40,"time":424.999575,"velocity":0.23622047244094488},{"duration":0.16666649999996253,"midi":40,"time":425.1662415,"velocity":0.23622047244094488},{"duration":0.16666650000001937,"midi":40,"time":425.332908,"velocity":0.23622047244094488},{"duration":0.16666650000001937,"midi":41,"time":425.332908,"velocity":0.23622047244094488},{"duration":0.16666650000001937,"midi":41,"time":425.4995745,"velocity":0.23622047244094488},{"duration":0.16666650000001937,"midi":40,"time":425.4995745,"velocity":0.23622047244094488},{"duration":0.16666649999996253,"midi":42,"time":425.666241,"velocity":0.23622047244094488},{"duration":0.16666650000001937,"midi":40,"time":425.8329075,"velocity":0.23622047244094488},{"duration":0.16666650000001937,"midi":40,"time":425.999574,"velocity":0.23622047244094488},{"duration":0.16666649999996253,"midi":42,"time":426.1662405,"velocity":0.23622047244094488},{"duration":0.16666650000001937,"midi":40,"time":426.332907,"velocity":0.23622047244094488},{"duration":0.16666650000001937,"midi":40,"time":426.4995735,"velocity":0.23622047244094488},{"duration":0.16666649999996253,"midi":41,"time":426.66624,"velocity":0.23622047244094488},{"duration":0.16666649999996253,"midi":40,"time":426.66624,"velocity":0.23622047244094488},{"duration":0.16666650000001937,"midi":41,"time":426.8329065,"velocity":0.23622047244094488},{"duration":0.16666650000001937,"midi":40,"time":426.8329065,"velocity":0.23622047244094488},{"duration":0.16666649999996253,"midi":42,"time":426.999573,"velocity":0.23622047244094488},{"duration":0.16666650000001937,"midi":40,"time":427.16623949999996,"velocity":0.23622047244094488},{"duration":0.16666650000001937,"midi":40,"time":427.332906,"velocity":0.23622047244094488},{"duration":0.16666649999996253,"midi":42,"time":427.4995725,"velocity":0.23622047244094488},{"duration":0.16666650000001937,"midi":40,"time":427.66623899999996,"velocity":0.23622047244094488},{"duration":0.16666650000001937,"midi":40,"time":427.8329055,"velocity":0.23622047244094488},{"duration":0.16666649999996253,"midi":41,"time":427.999572,"velocity":0.23622047244094488},{"duration":0.16666649999996253,"midi":40,"time":427.999572,"velocity":0.23622047244094488},{"duration":0.16666650000001937,"midi":41,"time":428.16623849999996,"velocity":0.23622047244094488},{"duration":0.16666650000001937,"midi":40,"time":428.16623849999996,"velocity":0.23622047244094488},{"duration":0.16666650000001937,"midi":42,"time":428.332905,"velocity":0.23622047244094488},{"duration":0.16666649999996253,"midi":40,"time":428.4995715,"velocity":0.23622047244094488},{"duration":0.16666650000001937,"midi":40,"time":428.66623799999996,"velocity":0.23622047244094488},{"duration":0.16666650000001937,"midi":42,"time":428.8329045,"velocity":0.23622047244094488},{"duration":0.16666649999996253,"midi":40,"time":428.999571,"velocity":0.23622047244094488},{"duration":0.16666650000001937,"midi":40,"time":429.16623749999997,"velocity":0.23622047244094488},{"duration":0.16666650000001937,"midi":40,"time":429.332904,"velocity":0.23622047244094488},{"duration":0.16666649999996253,"midi":40,"time":429.4995705,"velocity":0.23622047244094488},{"duration":0.16666650000001937,"midi":42,"time":429.66623699999997,"velocity":0.23622047244094488},{"duration":0.16666650000001937,"midi":40,"time":429.8329035,"velocity":0.23622047244094488},{"duration":0.16666649999996253,"midi":40,"time":429.99957,"velocity":0.23622047244094488},{"duration":0.16666650000001937,"midi":42,"time":430.16623649999997,"velocity":0.23622047244094488},{"duration":0.16666650000001937,"midi":40,"time":430.332903,"velocity":0.23622047244094488},{"duration":0.16666649999996253,"midi":40,"time":430.4995695,"velocity":0.23622047244094488},{"duration":0.16666650000001937,"midi":40,"time":430.66623599999997,"velocity":0.23622047244094488},{"duration":0.16666650000001937,"midi":41,"time":430.66623599999997,"velocity":0.23622047244094488},{"duration":0.16666650000001937,"midi":41,"time":430.8329025,"velocity":0.23622047244094488},{"duration":0.16666650000001937,"midi":40,"time":430.8329025,"velocity":0.23622047244094488},{"duration":0.16666649999996253,"midi":42,"time":430.999569,"velocity":0.23622047244094488},{"duration":0.16666650000001937,"midi":40,"time":431.16623549999997,"velocity":0.23622047244094488},{"duration":0.16666650000001937,"midi":40,"time":431.332902,"velocity":0.23622047244094488},{"duration":0.16666649999996253,"midi":42,"time":431.4995685,"velocity":0.23622047244094488},{"duration":0.16666650000001937,"midi":40,"time":431.666235,"velocity":0.23622047244094488},{"duration":0.16666650000001937,"midi":40,"time":431.8329015,"velocity":0.23622047244094488},{"duration":0.16666649999996253,"midi":41,"time":431.999568,"velocity":0.23622047244094488},{"duration":0.16666649999996253,"midi":40,"time":431.999568,"velocity":0.23622047244094488},{"duration":0.16666650000001937,"midi":41,"time":432.1662345,"velocity":0.23622047244094488},{"duration":0.16666650000001937,"midi":40,"time":432.1662345,"velocity":0.23622047244094488},{"duration":0.16666650000001937,"midi":42,"time":432.332901,"velocity":0.23622047244094488},{"duration":0.16666649999996253,"midi":40,"time":432.4995675,"velocity":0.23622047244094488},{"duration":0.16666650000001937,"midi":40,"time":432.666234,"velocity":0.23622047244094488},{"duration":0.16666650000001937,"midi":42,"time":432.8329005,"velocity":0.23622047244094488},{"duration":0.16666649999996253,"midi":40,"time":432.999567,"velocity":0.23622047244094488},{"duration":0.16666650000001937,"midi":40,"time":433.1662335,"velocity":0.23622047244094488},{"duration":0.16666650000001937,"midi":41,"time":433.3329,"velocity":0.23622047244094488},{"duration":0.16666650000001937,"midi":40,"time":433.3329,"velocity":0.23622047244094488},{"duration":0.16666649999996253,"midi":41,"time":433.4995665,"velocity":0.23622047244094488},{"duration":0.16666649999996253,"midi":40,"time":433.4995665,"velocity":0.23622047244094488},{"duration":0.16666650000001937,"midi":42,"time":433.666233,"velocity":0.23622047244094488},{"duration":0.16666650000001937,"midi":40,"time":433.8328995,"velocity":0.23622047244094488},{"duration":0.16666649999996253,"midi":40,"time":433.999566,"velocity":0.23622047244094488},{"duration":0.16666650000001937,"midi":42,"time":434.1662325,"velocity":0.23622047244094488},{"duration":0.16666649999996253,"midi":40,"time":434.332899,"velocity":0.23622047244094488},{"duration":0.16666650000001937,"midi":40,"time":434.49956549999996,"velocity":0.23622047244094488},{"duration":0.16666650000001937,"midi":40,"time":434.666232,"velocity":0.23622047244094488},{"duration":0.16666649999996253,"midi":40,"time":434.8328985,"velocity":0.23622047244094488},{"duration":0.16666650000001937,"midi":42,"time":434.99956499999996,"velocity":0.23622047244094488},{"duration":0.16666650000001937,"midi":40,"time":435.1662315,"velocity":0.23622047244094488},{"duration":0.16666649999996253,"midi":40,"time":435.332898,"velocity":0.23622047244094488},{"duration":0.16666650000001937,"midi":42,"time":435.49956449999996,"velocity":0.23622047244094488},{"duration":0.16666650000001937,"midi":40,"time":435.666231,"velocity":0.23622047244094488},{"duration":0.16666649999996253,"midi":40,"time":435.8328975,"velocity":0.23622047244094488},{"duration":0.16666650000001937,"midi":41,"time":435.99956399999996,"velocity":0.23622047244094488},{"duration":0.16666650000001937,"midi":40,"time":435.99956399999996,"velocity":0.23622047244094488},{"duration":0.16666650000001937,"midi":41,"time":436.1662305,"velocity":0.23622047244094488},{"duration":0.16666650000001937,"midi":40,"time":436.1662305,"velocity":0.23622047244094488},{"duration":0.16666649999996253,"midi":42,"time":436.332897,"velocity":0.23622047244094488},{"duration":0.16666650000001937,"midi":40,"time":436.49956349999997,"velocity":0.23622047244094488},{"duration":0.16666650000001937,"midi":40,"time":436.66623,"velocity":0.23622047244094488},{"duration":0.16666649999996253,"midi":42,"time":436.8328965,"velocity":0.23622047244094488},{"duration":0.16666650000001937,"midi":40,"time":436.99956299999997,"velocity":0.23622047244094488},{"duration":0.16666650000001937,"midi":40,"time":437.1662295,"velocity":0.23622047244094488},{"duration":0.16666649999996253,"midi":40,"time":437.332896,"velocity":0.23622047244094488},{"duration":0.16666649999996253,"midi":41,"time":437.332896,"velocity":0.23622047244094488},{"duration":0.16666650000001937,"midi":41,"time":437.49956249999997,"velocity":0.23622047244094488},{"duration":0.16666650000001937,"midi":40,"time":437.49956249999997,"velocity":0.23622047244094488},{"duration":0.16666650000001937,"midi":42,"time":437.666229,"velocity":0.23622047244094488},{"duration":0.16666649999996253,"midi":40,"time":437.8328955,"velocity":0.23622047244094488},{"duration":0.16666650000001937,"midi":40,"time":437.99956199999997,"velocity":0.23622047244094488},{"duration":0.16666650000001937,"midi":42,"time":438.1662285,"velocity":0.23622047244094488},{"duration":0.16666649999996253,"midi":40,"time":438.332895,"velocity":0.23622047244094488},{"duration":0.16666650000001937,"midi":40,"time":438.49956149999997,"velocity":0.23622047244094488},{"duration":0.16666650000001937,"midi":41,"time":438.666228,"velocity":0.23622047244094488},{"duration":0.16666650000001937,"midi":40,"time":438.666228,"velocity":0.23622047244094488},{"duration":0.16666649999996253,"midi":41,"time":438.8328945,"velocity":0.23622047244094488},{"duration":0.16666649999996253,"midi":40,"time":438.8328945,"velocity":0.23622047244094488},{"duration":0.16666650000001937,"midi":42,"time":438.99956099999997,"velocity":0.23622047244094488},{"duration":0.16666650000001937,"midi":40,"time":439.1662275,"velocity":0.23622047244094488},{"duration":0.16666649999996253,"midi":40,"time":439.332894,"velocity":0.23622047244094488},{"duration":0.16666650000001937,"midi":42,"time":439.4995605,"velocity":0.23622047244094488},{"duration":0.16666650000001937,"midi":40,"time":439.666227,"velocity":0.23622047244094488},{"duration":0.16666649999996253,"midi":40,"time":439.8328935,"velocity":0.23622047244094488},{"duration":0.16666650000001937,"midi":40,"time":439.99956,"velocity":0.23622047244094488},{"duration":0.16666650000001937,"midi":40,"time":440.1662265,"velocity":0.23622047244094488},{"duration":0.16666649999996253,"midi":42,"time":440.332893,"velocity":0.23622047244094488},{"duration":0.16666650000001937,"midi":40,"time":440.4995595,"velocity":0.23622047244094488},{"duration":0.16666650000001937,"midi":40,"time":440.666226,"velocity":0.23622047244094488},{"duration":0.16666649999996253,"midi":42,"time":440.8328925,"velocity":0.23622047244094488},{"duration":0.16666650000001937,"midi":40,"time":440.999559,"velocity":0.23622047244094488},{"duration":0.16666650000001937,"midi":40,"time":441.1662255,"velocity":0.23622047244094488},{"duration":0.16666649999996253,"midi":41,"time":441.332892,"velocity":0.23622047244094488},{"duration":0.16666649999996253,"midi":40,"time":441.332892,"velocity":0.23622047244094488},{"duration":0.16666650000001937,"midi":41,"time":441.4995585,"velocity":0.23622047244094488},{"duration":0.16666650000001937,"midi":40,"time":441.4995585,"velocity":0.23622047244094488},{"duration":0.16666649999996253,"midi":42,"time":441.666225,"velocity":0.23622047244094488},{"duration":0.16666650000001937,"midi":40,"time":441.83289149999996,"velocity":0.23622047244094488},{"duration":0.16666650000001937,"midi":40,"time":441.999558,"velocity":0.23622047244094488},{"duration":0.16666649999996253,"midi":42,"time":442.1662245,"velocity":0.23622047244094488},{"duration":0.16666650000001937,"midi":40,"time":442.33289099999996,"velocity":0.23622047244094488},{"duration":0.16666650000001937,"midi":40,"time":442.4995575,"velocity":0.23622047244094488},{"duration":0.16666649999996253,"midi":41,"time":442.666224,"velocity":0.23622047244094488},{"duration":0.16666649999996253,"midi":40,"time":442.666224,"velocity":0.23622047244094488},{"duration":0.16666650000001937,"midi":40,"time":442.83289049999996,"velocity":0.23622047244094488},{"duration":0.16666650000001937,"midi":41,"time":442.83289049999996,"velocity":0.23622047244094488},{"duration":0.16666650000001937,"midi":42,"time":442.999557,"velocity":0.23622047244094488},{"duration":0.16666649999996253,"midi":40,"time":443.1662235,"velocity":0.23622047244094488},{"duration":0.16666650000001937,"midi":40,"time":443.33288999999996,"velocity":0.23622047244094488},{"duration":0.16666650000001937,"midi":42,"time":443.4995565,"velocity":0.23622047244094488},{"duration":0.16666649999996253,"midi":40,"time":443.666223,"velocity":0.23622047244094488},{"duration":0.16666650000001937,"midi":40,"time":443.83288949999996,"velocity":0.23622047244094488},{"duration":0.16666650000001937,"midi":41,"time":443.999556,"velocity":0.23622047244094488},{"duration":0.16666650000001937,"midi":40,"time":443.999556,"velocity":0.23622047244094488},{"duration":0.16666649999996253,"midi":40,"time":444.1662225,"velocity":0.23622047244094488},{"duration":0.16666649999996253,"midi":41,"time":444.1662225,"velocity":0.23622047244094488},{"duration":0.16666650000001937,"midi":42,"time":444.33288899999997,"velocity":0.23622047244094488},{"duration":0.16666650000001937,"midi":40,"time":444.4995555,"velocity":0.23622047244094488},{"duration":0.16666649999996253,"midi":40,"time":444.666222,"velocity":0.23622047244094488},{"duration":0.16666650000001937,"midi":42,"time":444.83288849999997,"velocity":0.23622047244094488},{"duration":0.16666650000001937,"midi":40,"time":444.999555,"velocity":0.23622047244094488},{"duration":0.16666649999996253,"midi":40,"time":445.1662215,"velocity":0.23622047244094488},{"duration":0.16666650000001937,"midi":40,"time":445.33288799999997,"velocity":0.23622047244094488},{"duration":0.16666650000001937,"midi":40,"time":445.4995545,"velocity":0.23622047244094488},{"duration":0.16666649999996253,"midi":42,"time":445.666221,"velocity":0.23622047244094488},{"duration":0.16666650000001937,"midi":40,"time":445.83288749999997,"velocity":0.23622047244094488},{"duration":0.16666650000001937,"midi":40,"time":445.999554,"velocity":0.23622047244094488},{"duration":0.16666649999996253,"midi":42,"time":446.1662205,"velocity":0.23622047244094488},{"duration":0.16666650000001937,"midi":40,"time":446.33288699999997,"velocity":0.23622047244094488},{"duration":0.16666650000001937,"midi":40,"time":446.4995535,"velocity":0.23622047244094488},{"duration":0.16666649999996253,"midi":41,"time":446.66622,"velocity":0.23622047244094488},{"duration":0.16666649999996253,"midi":40,"time":446.66622,"velocity":0.23622047244094488},{"duration":0.16666650000001937,"midi":41,"time":446.8328865,"velocity":0.23622047244094488},{"duration":0.16666650000001937,"midi":40,"time":446.8328865,"velocity":0.23622047244094488},{"duration":0.16666650000001937,"midi":42,"time":446.999553,"velocity":0.23622047244094488},{"duration":0.16666649999996253,"midi":40,"time":447.1662195,"velocity":0.23622047244094488},{"duration":0.16666650000001937,"midi":40,"time":447.332886,"velocity":0.23622047244094488},{"duration":0.16666650000001937,"midi":42,"time":447.4995525,"velocity":0.23622047244094488},{"duration":0.16666649999996253,"midi":40,"time":447.666219,"velocity":0.23622047244094488},{"duration":0.16666650000001937,"midi":40,"time":447.8328855,"velocity":0.23622047244094488},{"duration":0.16666650000001937,"midi":41,"time":447.999552,"velocity":0.23622047244094488},{"duration":0.16666650000001937,"midi":40,"time":447.999552,"velocity":0.23622047244094488},{"duration":0.16666649999996253,"midi":41,"time":448.1662185,"velocity":0.23622047244094488},{"duration":0.16666649999996253,"midi":40,"time":448.1662185,"velocity":0.23622047244094488},{"duration":0.16666650000001937,"midi":42,"time":448.332885,"velocity":0.23622047244094488},{"duration":0.16666650000001937,"midi":40,"time":448.4995515,"velocity":0.23622047244094488},{"duration":0.16666649999996253,"midi":40,"time":448.666218,"velocity":0.23622047244094488},{"duration":0.16666650000001937,"midi":42,"time":448.8328845,"velocity":0.23622047244094488},{"duration":0.16666649999996253,"midi":40,"time":448.999551,"velocity":0.23622047244094488},{"duration":0.16666650000001937,"midi":40,"time":449.16621749999996,"velocity":0.23622047244094488},{"duration":0.16666650000001937,"midi":41,"time":449.332884,"velocity":0.23622047244094488},{"duration":0.16666650000001937,"midi":40,"time":449.332884,"velocity":0.23622047244094488},{"duration":0.16666649999996253,"midi":41,"time":449.4995505,"velocity":0.23622047244094488},{"duration":0.16666649999996253,"midi":40,"time":449.4995505,"velocity":0.23622047244094488},{"duration":0.16666650000001937,"midi":42,"time":449.66621699999996,"velocity":0.23622047244094488},{"duration":0.16666650000001937,"midi":40,"time":449.8328835,"velocity":0.23622047244094488},{"duration":0.16666649999996253,"midi":40,"time":449.99955,"velocity":0.23622047244094488},{"duration":0.16666650000001937,"midi":42,"time":450.16621649999996,"velocity":0.23622047244094488},{"duration":0.16666650000001937,"midi":40,"time":450.332883,"velocity":0.23622047244094488},{"duration":0.16666649999996253,"midi":40,"time":450.4995495,"velocity":0.23622047244094488},{"duration":0.16666650000001937,"midi":40,"time":450.66621599999996,"velocity":0.23622047244094488},{"duration":0.16666650000001937,"midi":40,"time":450.8328825,"velocity":0.23622047244094488},{"duration":0.16666649999996253,"midi":42,"time":450.999549,"velocity":0.23622047244094488},{"duration":0.16666650000001937,"midi":40,"time":451.16621549999996,"velocity":0.23622047244094488},{"duration":0.16666650000001937,"midi":40,"time":451.332882,"velocity":0.23622047244094488},{"duration":0.16666649999996253,"midi":42,"time":451.4995485,"velocity":0.23622047244094488},{"duration":0.16666650000001937,"midi":40,"time":451.66621499999997,"velocity":0.23622047244094488},{"duration":0.16666650000001937,"midi":40,"time":451.8328815,"velocity":0.23622047244094488},{"duration":0.16666649999996253,"midi":40,"time":451.999548,"velocity":0.23622047244094488},{"duration":0.16666649999996253,"midi":41,"time":451.999548,"velocity":0.23622047244094488},{"duration":0.16666650000001937,"midi":40,"time":452.16621449999997,"velocity":0.23622047244094488},{"duration":0.16666650000001937,"midi":41,"time":452.16621449999997,"velocity":0.23622047244094488},{"duration":0.16666650000001937,"midi":42,"time":452.332881,"velocity":0.23622047244094488},{"duration":0.16666649999996253,"midi":40,"time":452.4995475,"velocity":0.23622047244094488},{"duration":0.16666650000001937,"midi":40,"time":452.66621399999997,"velocity":0.23622047244094488},{"duration":0.16666650000001937,"midi":42,"time":452.8328805,"velocity":0.23622047244094488},{"duration":0.16666649999996253,"midi":40,"time":452.999547,"velocity":0.23622047244094488},{"duration":0.16666650000001937,"midi":40,"time":453.16621349999997,"velocity":0.23622047244094488},{"duration":0.16666650000001937,"midi":41,"time":453.33288,"velocity":0.23622047244094488},{"duration":0.16666650000001937,"midi":40,"time":453.33288,"velocity":0.23622047244094488},{"duration":0.16666649999996253,"midi":41,"time":453.4995465,"velocity":0.23622047244094488},{"duration":0.16666649999996253,"midi":40,"time":453.4995465,"velocity":0.23622047244094488},{"duration":0.16666650000001937,"midi":42,"time":453.66621299999997,"velocity":0.23622047244094488},{"duration":0.16666650000001937,"midi":40,"time":453.8328795,"velocity":0.23622047244094488},{"duration":0.16666649999996253,"midi":40,"time":453.999546,"velocity":0.23622047244094488},{"duration":0.16666650000001937,"midi":42,"time":454.1662125,"velocity":0.23622047244094488},{"duration":0.16666650000001937,"midi":40,"time":454.332879,"velocity":0.23622047244094488},{"duration":0.16666649999996253,"midi":40,"time":454.4995455,"velocity":0.23622047244094488},{"duration":0.16666650000001937,"midi":41,"time":454.666212,"velocity":0.23622047244094488},{"duration":0.16666650000001937,"midi":40,"time":454.666212,"velocity":0.23622047244094488},{"duration":0.16666650000001937,"midi":41,"time":454.8328785,"velocity":0.23622047244094488},{"duration":0.16666650000001937,"midi":40,"time":454.8328785,"velocity":0.23622047244094488},{"duration":0.16666649999996253,"midi":42,"time":454.999545,"velocity":0.23622047244094488},{"duration":0.16666650000001937,"midi":40,"time":455.1662115,"velocity":0.23622047244094488},{"duration":0.16666650000001937,"midi":40,"time":455.332878,"velocity":0.23622047244094488},{"duration":0.16666649999996253,"midi":42,"time":455.4995445,"velocity":0.23622047244094488},{"duration":0.16666650000001937,"midi":40,"time":455.666211,"velocity":0.23622047244094488},{"duration":0.16666650000001937,"midi":40,"time":455.8328775,"velocity":0.23622047244094488},{"duration":0.16666649999996253,"midi":41,"time":455.999544,"velocity":0.23622047244094488},{"duration":0.16666649999996253,"midi":40,"time":455.999544,"velocity":0.23622047244094488},{"duration":0.16666650000001937,"midi":40,"time":456.1662105,"velocity":0.23622047244094488},{"duration":0.16666650000001937,"midi":41,"time":456.1662105,"velocity":0.23622047244094488},{"duration":0.16666649999996253,"midi":42,"time":456.332877,"velocity":0.23622047244094488},{"duration":0.16666650000001937,"midi":40,"time":456.49954349999996,"velocity":0.23622047244094488},{"duration":0.16666650000001937,"midi":40,"time":456.66621,"velocity":0.23622047244094488},{"duration":0.16666649999996253,"midi":42,"time":456.8328765,"velocity":0.23622047244094488},{"duration":0.16666650000001937,"midi":40,"time":456.99954299999996,"velocity":0.23622047244094488},{"duration":0.16666650000001937,"midi":40,"time":457.1662095,"velocity":0.23622047244094488},{"duration":0.16666649999996253,"midi":40,"time":457.332876,"velocity":0.23622047244094488},{"duration":0.16666649999996253,"midi":41,"time":457.332876,"velocity":0.23622047244094488},{"duration":0.16666650000001937,"midi":41,"time":457.49954249999996,"velocity":0.23622047244094488},{"duration":0.16666650000001937,"midi":40,"time":457.49954249999996,"velocity":0.23622047244094488},{"duration":0.16666650000001937,"midi":42,"time":457.666209,"velocity":0.23622047244094488},{"duration":0.16666649999996253,"midi":40,"time":457.8328755,"velocity":0.23622047244094488},{"duration":0.16666650000001937,"midi":40,"time":457.99954199999996,"velocity":0.23622047244094488},{"duration":0.16666650000001937,"midi":42,"time":458.1662085,"velocity":0.23622047244094488},{"duration":0.16666649999996253,"midi":40,"time":458.332875,"velocity":0.23622047244094488},{"duration":0.16666650000001937,"midi":40,"time":458.49954149999996,"velocity":0.23622047244094488},{"duration":0.16666650000001937,"midi":41,"time":458.666208,"velocity":0.23622047244094488},{"duration":0.16666650000001937,"midi":40,"time":458.666208,"velocity":0.23622047244094488},{"duration":0.16666649999996253,"midi":41,"time":458.8328745,"velocity":0.23622047244094488},{"duration":0.16666649999996253,"midi":40,"time":458.8328745,"velocity":0.23622047244094488},{"duration":0.16666650000001937,"midi":42,"time":458.99954099999997,"velocity":0.23622047244094488},{"duration":0.16666650000001937,"midi":40,"time":459.1662075,"velocity":0.23622047244094488},{"duration":0.16666649999996253,"midi":40,"time":459.332874,"velocity":0.23622047244094488},{"duration":0.16666650000001937,"midi":42,"time":459.49954049999997,"velocity":0.23622047244094488},{"duration":0.16666650000001937,"midi":40,"time":459.666207,"velocity":0.23622047244094488},{"duration":0.16666649999996253,"midi":40,"time":459.8328735,"velocity":0.23622047244094488},{"duration":0.33333300000003874,"midi":41,"time":459.99953999999997,"velocity":0.23622047244094488},{"duration":0.3333329999999819,"midi":41,"time":460.332873,"velocity":0.23622047244094488},{"duration":0.3333329999999819,"midi":41,"time":460.666206,"velocity":0.23622047244094488},{"duration":0.33333300000003874,"midi":41,"time":460.99953899999997,"velocity":0.23622047244094488}]}]}
