{"tracks":[{"instrument":{"family":"piano","number":0,"name":"acoustic grand piano"},"notes":[{"duration":0.3870960000000001,"midi":43,"time":1.548384,"velocity":0.3937007874015748},{"duration":0.3870960000000001,"midi":55,"time":1.548384,"velocity":0.3937007874015748},{"duration":0.3870960000000001,"midi":59,"time":1.548384,"velocity":0.3937007874015748},{"duration":0.3870960000000001,"midi":47,"time":1.548384,"velocity":0.3937007874015748},{"duration":0.3870960000000001,"midi":50,"time":1.548384,"velocity":0.3937007874015748},{"duration":0.3870960000000001,"midi":67,"time":1.548384,"velocity":0.3937007874015748},{"duration":0.19354799999999983,"midi":59,"time":1.93548,"velocity":0.3937007874015748},{"duration":0.19354799999999983,"midi":43,"time":1.93548,"velocity":0.3937007874015748},{"duration":0.19354799999999983,"midi":50,"time":1.93548,"velocity":0.3937007874015748},{"duration":0.19354799999999983,"midi":47,"time":1.93548,"velocity":0.3937007874015748},{"duration":0.19354799999999983,"midi":67,"time":1.93548,"velocity":0.3937007874015748},{"duration":0.19354799999999983,"midi":55,"time":1.93548,"velocity":0.3937007874015748},{"duration":0.3870960000000001,"midi":59,"time":2.129028,"velocity":0.3937007874015748},{"duration":0.3870960000000001,"midi":55,"time":2.129028,"velocity":0.3937007874015748},{"duration":0.3870960000000001,"midi":43,"time":2.129028,"velocity":0.3937007874015748},{"duration":0.3870960000000001,"midi":47,"time":2.129028,"velocity":0.3937007874015748},{"duration":0.3870960000000001,"midi":50,"time":2.129028,"velocity":0.3937007874015748},{"duration":0.3870960000000001,"midi":67,"time":2.129028,"velocity":0.3937007874015748},{"duration":0.19354799999999983,"midi":55,"time":2.516124,"velocity":0.3937007874015748},{"duration":0.19354799999999983,"midi":59,"time":2.516124,"velocity":0.3937007874015748},{"duration":0.19354799999999983,"midi":43,"time":2.516124,"velocity":0.3937007874015748},{"duration":0.19354799999999983,"midi":47,"time":2.516124,"velocity":0.3937007874015748},{"duration":0.19354799999999983,"midi":67,"time":2.516124,"velocity":0.3937007874015748},{"duration":0.19354799999999983,"midi":50,"time":2.516124,"velocity":0.3937007874015748},{"duration":0.19354800000000028,"midi":47,"time":2.709672,"velocity":0.3937007874015748},{"duration":0.19354800000000028,"midi":50,"time":2.709672,"velocity":0.3937007874015748},{"duration":0.19354800000000028,"midi":67,"time":2.709672,"velocity":0.3937007874015748},{"duration":0.19354800000000028,"midi":43,"time":2.709672,"velocity":0.3937007874015748},{"duration":0.19354800000000028,"midi":55,"time":2.709672,"velocity":0.3937007874015748},{"duration":0.19354800000000028,"midi":59,"time":2.709672,"velocity":0.3937007874015748},{"duration":0.19354799999999983,"midi":59,"time":2.90322,"velocity":0.3937007874015748},{"duration":0.19354799999999983,"midi":55,"time":2.90322,"velocity":0.3937007874015748},{"duration":0.19354799999999983,"midi":43,"time":2.90322,"velocity":0.3937007874015748},{"duration":0.19354799999999983,"midi":67,"time":2.90322,"velocity":0.3937007874015748},{"duration":0.19354799999999983,"midi":50,"time":2.90322,"velocity":0.3937007874015748},{"duration":0.19354799999999983,"midi":47,"time":2.90322,"velocity":0.3937007874015748},{"duration":0.3870960000000001,"midi":55,"time":3.096768,"velocity":0.3937007874015748},{"duration":0.3870960000000001,"midi":48,"time":3.096768,"velocity":0.3937007874015748},{"duration":0.3870960000000001,"midi":60,"time":3.096768,"velocity":0.3937007874015748},{"duration":0.3870960000000001,"midi":64,"time":3.096768,"velocity":0.3937007874015748},{"duration":0.3870960000000001,"midi":52,"time":3.096768,"velocity":0.3937007874015748},{"duration":0.19354799999999983,"midi":64,"time":3.483864,"velocity":0.3937007874015748},{"duration":0.19354799999999983,"midi":48,"time":3.483864,"velocity":0.3937007874015748},{"duration":0.19354799999999983,"midi":52,"time":3.483864,"velocity":0.3937007874015748},{"duration":0.19354799999999983,"midi":55,"time":3.483864,"velocity":0.3937007874015748},{"duration":0.19354799999999983,"midi":60,"time":3.483864,"velocity":0.3937007874015748},{"duration":0.3870960000000001,"midi":60,"time":3.677412,"velocity":0.3937007874015748},{"duration":0.3870960000000001,"midi":55,"time":3.677412,"velocity":0.3937007874015748},{"duration":0.3870960000000001,"midi":52,"time":3.677412,"velocity":0.3937007874015748},{"duration":0.3870960000000001,"midi":48,"time":3.677412,"velocity":0.3937007874015748},{"duration":0.3870960000000001,"midi":64,"time":3.677412,"velocity":0.3937007874015748},{"duration":0.19354799999999983,"midi":48,"time":4.064508,"velocity":0.3937007874015748},{"duration":0.19354799999999983,"midi":55,"time":4.064508,"velocity":0.3937007874015748},{"duration":0.19354799999999983,"midi":60,"time":4.064508,"velocity":0.3937007874015748},{"duration":0.19354799999999983,"midi":64,"time":4.064508,"velocity":0.3937007874015748},{"duration":0.19354799999999983,"midi":52,"time":4.064508,"velocity":0.3937007874015748},{"duration":0.19354799999999983,"midi":64,"time":4.258056,"velocity":0.3937007874015748},{"duration":0.19354799999999983,"midi":48,"time":4.258056,"velocity":0.3937007874015748},{"duration":0.19354799999999983,"midi":52,"time":4.258056,"velocity":0.3937007874015748},{"duration":0.19354799999999983,"midi":55,"time":4.258056,"velocity":0.3937007874015748},{"duration":0.19354799999999983,"midi":60,"time":4.258056,"velocity":0.3937007874015748},{"duration":0.19354799999999983,"midi":60,"time":4.451604,"velocity":0.3937007874015748},{"duration":0.19354799999999983,"midi":64,"time":4.451604,"velocity":0.3937007874015748},{"duration":0.19354799999999983,"midi":48,"time":4.451604,"velocity":0.3937007874015748},{"duration":0.19354799999999983,"midi":55,"time":4.451604,"velocity":0.3937007874015748},{"duration":0.19354799999999983,"midi":52,"time":4.451604,"velocity":0.3937007874015748},{"duration":0.38709600000000055,"midi":48,"time":4.6451519999999995,"velocity":0.3937007874015748},{"duration":0.38709600000000055,"midi":55,"time":4.6451519999999995,"velocity":0.3937007874015748},{"duration":0.38709600000000055,"midi":60,"time":4.6451519999999995,"velocity":0.3937007874015748},{"duration":0.38709600000000055,"midi":52,"time":4.6451519999999995,"velocity":0.3937007874015748},{"duration":0.38709600000000055,"midi":64,"time":4.6451519999999995,"velocity":0.3937007874015748},{"duration":0.19354799999999983,"midi":64,"time":5.032248,"velocity":0.3937007874015748},{"duration":0.19354799999999983,"midi":48,"time":5.032248,"velocity":0.3937007874015748},{"duration":0.19354799999999983,"midi":52,"time":5.032248,"velocity":0.3937007874015748},{"duration":0.19354799999999983,"midi":55,"time":5.032248,"velocity":0.3937007874015748},{"duration":0.19354799999999983,"midi":60,"time":5.032248,"velocity":0.3937007874015748},{"duration":0.38709599999999966,"midi":64,"time":5.225796,"velocity":0.3937007874015748},{"duration":0.38709599999999966,"midi":60,"time":5.225796,"velocity":0.3937007874015748},{"duration":0.38709599999999966,"midi":52,"time":5.225796,"velocity":0.3937007874015748},{"duration":0.38709599999999966,"midi":48,"time":5.225796,"velocity":0.3937007874015748},{"duration":0.38709599999999966,"midi":55,"time":5.225796,"velocity":0.3937007874015748},{"duration":0.19354800000000072,"midi":52,"time":5.6128919999999995,"velocity":0.3937007874015748},{"duration":0.19354800000000072,"midi":64,"time":5.6128919999999995,"velocity":0.3937007874015748},{"duration":0.19354800000000072,"midi":55,"time":5.6128919999999995,"velocity":0.3937007874015748},{"duration":0.19354800000000072,"midi":60,"time":5.6128919999999995,"velocity":0.3937007874015748},{"duration":0.19354800000000072,"midi":48,"time":5.6128919999999995,"velocity":0.3937007874015748},{"duration":0.19354799999999983,"midi":64,"time":5.80644,"velocity":0.3937007874015748},{"duration":0.19354799999999983,"midi":48,"time":5.80644,"velocity":0.3937007874015748},{"duration":0.19354799999999983,"midi":52,"time":5.80644,"velocity":0.3937007874015748},{"duration":0.19354799999999983,"midi":55,"time":5.80644,"velocity":0.3937007874015748},{"duration":0.19354799999999983,"midi":60,"time":5.80644,"velocity":0.3937007874015748},{"duration":0.19354799999999983,"midi":64,"time":5.999988,"velocity":0.3937007874015748},{"duration":0.19354799999999983,"midi":60,"time":5.999988,"velocity":0.3937007874015748},{"duration":0.19354799999999983,"midi":52,"time":5.999988,"velocity":0.3937007874015748},{"duration":0.19354799999999983,"midi":48,"time":5.999988,"velocity":0.3937007874015748},{"duration":0.19354799999999983,"midi":55,"time":5.999988,"velocity":0.3937007874015748},{"duration":0.38709599999999966,"midi":50,"time":6.193536,"velocity":0.3937007874015748},{"duration":0.38709599999999966,"midi":66,"time":6.193536,"velocity":0.3937007874015748},{"duration":0.38709599999999966,"midi":57,"time":6.193536,"velocity":0.3937007874015748},{"duration":0.38709599999999966,"midi":62,"time":6.193536,"velocity":0.3937007874015748},{"duration":0.38709600000000055,"midi":57,"time":6.580632,"velocity":0.3937007874015748},{"duration":0.38709600000000055,"midi":50,"time":6.580632,"velocity":0.3937007874015748},{"duration":0.38709600000000055,"midi":66,"time":6.580632,"velocity":0.3937007874015748},{"duration":0.38709600000000055,"midi":62,"time":6.580632,"velocity":0.3937007874015748},{"duration":0.38709599999999966,"midi":52,"time":6.967728,"velocity":0.3937007874015748},{"duration":0.38709599999999966,"midi":55,"time":6.967728,"velocity":0.3937007874015748},{"duration":0.38709599999999966,"midi":40,"time":6.967728,"velocity":0.3937007874015748},{"duration":0.38709599999999966,"midi":59,"time":6.967728,"velocity":0.3937007874015748},{"duration":0.38709599999999966,"midi":64,"time":6.967728,"velocity":0.3937007874015748},{"duration":0.38709599999999966,"midi":47,"time":6.967728,"velocity":0.3937007874015748},{"duration":0.19354799999999983,"midi":40,"time":7.354824,"velocity":0.3937007874015748},{"duration":0.19354799999999983,"midi":47,"time":7.354824,"velocity":0.3937007874015748},{"duration":0.19354799999999983,"midi":55,"time":7.354824,"velocity":0.3937007874015748},{"duration":0.19354799999999983,"midi":52,"time":7.354824,"velocity":0.3937007874015748},{"duration":0.19354799999999983,"midi":59,"time":7.354824,"velocity":0.3937007874015748},{"duration":0.19354799999999983,"midi":64,"time":7.354824,"velocity":0.3937007874015748},{"duration":0.38709600000000055,"midi":52,"time":7.548372,"velocity":0.3937007874015748},{"duration":0.38709600000000055,"midi":55,"time":7.548372,"velocity":0.3937007874015748},{"duration":0.38709600000000055,"midi":40,"time":7.548372,"velocity":0.3937007874015748},{"duration":0.38709600000000055,"midi":59,"time":7.548372,"velocity":0.3937007874015748},{"duration":0.38709600000000055,"midi":64,"time":7.548372,"velocity":0.3937007874015748},{"duration":0.38709600000000055,"midi":47,"time":7.548372,"velocity":0.3937007874015748},{"duration":0.19354799999999983,"midi":64,"time":7.935468,"velocity":0.3937007874015748},{"duration":0.19354799999999983,"midi":59,"time":7.935468,"velocity":0.3937007874015748},{"duration":0.19354799999999983,"midi":52,"time":7.935468,"velocity":0.3937007874015748},{"duration":0.19354799999999983,"midi":55,"time":7.935468,"velocity":0.3937007874015748},{"duration":0.19354799999999983,"midi":47,"time":7.935468,"velocity":0.3937007874015748},{"duration":0.19354799999999983,"midi":40,"time":7.935468,"velocity":0.3937007874015748},{"duration":0.19354799999999983,"midi":64,"time":8.129016,"velocity":0.3937007874015748},{"duration":0.19354799999999983,"midi":40,"time":8.129016,"velocity":0.3937007874015748},{"duration":0.19354799999999983,"midi":52,"time":8.129016,"velocity":0.3937007874015748},{"duration":0.19354799999999983,"midi":55,"time":8.129016,"velocity":0.3937007874015748},{"duration":0.19354799999999983,"midi":59,"time":8.129016,"velocity":0.3937007874015748},{"duration":0.19354799999999983,"midi":47,"time":8.129016,"velocity":0.3937007874015748},{"duration":0.19354799999999983,"midi":59,"time":8.322564,"velocity":0.3937007874015748},{"duration":0.19354799999999983,"midi":52,"time":8.322564,"velocity":0.3937007874015748},{"duration":0.19354799999999983,"midi":64,"time":8.322564,"velocity":0.3937007874015748},{"duration":0.19354799999999983,"midi":40,"time":8.322564,"velocity":0.3937007874015748},{"duration":0.19354799999999983,"midi":47,"time":8.322564,"velocity":0.3937007874015748},{"duration":0.19354799999999983,"midi":55,"time":8.322564,"velocity":0.3937007874015748},{"duration":0.38709599999999966,"midi":59,"time":8.516112,"velocity":0.3937007874015748},{"duration":0.38709599999999966,"midi":52,"time":8.516112,"velocity":0.3937007874015748},{"duration":0.38709599999999966,"midi":47,"time":8.516112,"velocity":0.3937007874015748},{"duration":0.38709599999999966,"midi":55,"time":8.516112,"velocity":0.3937007874015748},{"duration":0.38709599999999966,"midi":40,"time":8.516112,"velocity":0.3937007874015748},{"duration":0.38709599999999966,"midi":64,"time":8.516112,"velocity":0.3937007874015748},{"duration":0.19354799999999983,"midi":55,"time":8.903208,"velocity":0.3937007874015748},{"duration":0.19354799999999983,"midi":40,"time":8.903208,"velocity":0.3937007874015748},{"duration":0.19354799999999983,"midi":59,"time":8.903208,"velocity":0.3937007874015748},{"duration":0.19354799999999983,"midi":47,"time":8.903208,"velocity":0.3937007874015748},{"duration":0.19354799999999983,"midi":64,"time":8.903208,"velocity":0.3937007874015748},{"duration":0.19354799999999983,"midi":52,"time":8.903208,"velocity":0.3937007874015748},{"duration":0.38709600000000144,"midi":55,"time":9.096756,"velocity":0.3937007874015748},{"duration":0.38709600000000144,"midi":59,"time":9.096756,"velocity":0.3937007874015748},{"duration":0.38709600000000144,"midi":40,"time":9.096756,"velocity":0.3937007874015748},{"duration":0.38709600000000144,"midi":52,"time":9.096756,"velocity":0.3937007874015748},{"duration":0.38709600000000144,"midi":64,"time":9.096756,"velocity":0.3937007874015748},{"duration":0.38709600000000144,"midi":47,"time":9.096756,"velocity":0.3937007874015748},{"duration":0.19354799999999983,"midi":52,"time":9.483852,"velocity":0.3937007874015748},{"duration":0.19354799999999983,"midi":40,"time":9.483852,"velocity":0.3937007874015748},{"duration":0.19354799999999983,"midi":64,"time":9.483852,"velocity":0.3937007874015748},{"duration":0.19354799999999983,"midi":47,"time":9.483852,"velocity":0.3937007874015748},{"duration":0.19354799999999983,"midi":55,"time":9.483852,"velocity":0.3937007874015748},{"duration":0.19354799999999983,"midi":59,"time":9.483852,"velocity":0.3937007874015748},{"duration":0.19354799999999983,"midi":64,"time":9.6774,"velocity":0.3937007874015748},{"duration":0.19354799999999983,"midi":47,"time":9.6774,"velocity":0.3937007874015748},{"duration":0.19354799999999983,"midi":52,"time":9.6774,"velocity":0.3937007874015748},{"duration":0.19354799999999983,"midi":55,"time":9.6774,"velocity":0.3937007874015748},{"duration":0.19354799999999983,"midi":40,"time":9.6774,"velocity":0.3937007874015748},{"duration":0.19354799999999983,"midi":59,"time":9.6774,"velocity":0.3937007874015748},{"duration":0.19354799999999983,"midi":59,"time":9.870948,"velocity":0.3937007874015748},{"duration":0.19354799999999983,"midi":55,"time":9.870948,"velocity":0.3937007874015748},{"duration":0.19354799999999983,"midi":64,"time":9.870948,"velocity":0.3937007874015748},{"duration":0.19354799999999983,"midi":52,"time":9.870948,"velocity":0.3937007874015748},{"duration":0.19354799999999983,"midi":40,"time":9.870948,"velocity":0.3937007874015748},{"duration":0.19354799999999983,"midi":47,"time":9.870948,"velocity":0.3937007874015748},{"duration":0.38709599999999966,"midi":59,"time":10.064496,"velocity":0.3937007874015748},{"duration":0.38709599999999966,"midi":55,"time":10.064496,"velocity":0.3937007874015748},{"duration":0.38709599999999966,"midi":67,"time":10.064496,"velocity":0.3937007874015748},{"duration":0.38709599999999966,"midi":50,"time":10.064496,"velocity":0.3937007874015748},{"duration":0.38709599999999966,"midi":43,"time":10.064496,"velocity":0.3937007874015748},{"duration":0.38709599999999966,"midi":47,"time":10.064496,"velocity":0.3937007874015748},{"duration":0.19354799999999983,"midi":67,"time":10.451592,"velocity":0.3937007874015748},{"duration":0.19354799999999983,"midi":59,"time":10.451592,"velocity":0.3937007874015748},{"duration":0.19354799999999983,"midi":43,"time":10.451592,"velocity":0.3937007874015748},{"duration":0.19354799999999983,"midi":47,"time":10.451592,"velocity":0.3937007874015748},{"duration":0.19354799999999983,"midi":50,"time":10.451592,"velocity":0.3937007874015748},{"duration":0.19354799999999983,"midi":55,"time":10.451592,"velocity":0.3937007874015748},{"duration":0.38709599999999966,"midi":50,"time":10.64514,"velocity":0.3937007874015748},{"duration":0.38709599999999966,"midi":47,"time":10.64514,"velocity":0.3937007874015748},{"duration":0.38709599999999966,"midi":43,"time":10.64514,"velocity":0.3937007874015748},{"duration":0.38709599999999966,"midi":67,"time":10.64514,"velocity":0.3937007874015748},{"duration":0.38709599999999966,"midi":55,"time":10.64514,"velocity":0.3937007874015748},{"duration":0.38709599999999966,"midi":59,"time":10.64514,"velocity":0.3937007874015748},{"duration":0.19354799999999983,"midi":59,"time":11.032236,"velocity":0.3937007874015748},{"duration":0.19354799999999983,"midi":43,"time":11.032236,"velocity":0.3937007874015748},{"duration":0.19354799999999983,"midi":47,"time":11.032236,"velocity":0.3937007874015748},{"duration":0.19354799999999983,"midi":50,"time":11.032236,"velocity":0.3937007874015748},{"duration":0.19354799999999983,"midi":67,"time":11.032236,"velocity":0.3937007874015748},{"duration":0.19354799999999983,"midi":55,"time":11.032236,"velocity":0.3937007874015748},{"duration":0.1935480000000016,"midi":67,"time":11.225783999999999,"velocity":0.3937007874015748},{"duration":0.1935480000000016,"midi":50,"time":11.225783999999999,"velocity":0.3937007874015748},{"duration":0.1935480000000016,"midi":55,"time":11.225783999999999,"velocity":0.3937007874015748},{"duration":0.1935480000000016,"midi":43,"time":11.225783999999999,"velocity":0.3937007874015748},{"duration":0.1935480000000016,"midi":47,"time":11.225783999999999,"velocity":0.3937007874015748},{"duration":0.1935480000000016,"midi":59,"time":11.225783999999999,"velocity":0.3937007874015748},{"duration":0.19354799999999983,"midi":55,"time":11.419332,"velocity":0.3937007874015748},{"duration":0.19354799999999983,"midi":50,"time":11.419332,"velocity":0.3937007874015748},{"duration":0.19354799999999983,"midi":47,"time":11.419332,"velocity":0.3937007874015748},{"duration":0.19354799999999983,"midi":59,"time":11.419332,"velocity":0.3937007874015748},{"duration":0.19354799999999983,"midi":67,"time":11.419332,"velocity":0.3937007874015748},{"duration":0.19354799999999983,"midi":43,"time":11.419332,"velocity":0.3937007874015748},{"duration":0.38709599999999966,"midi":52,"time":11.61288,"velocity":0.3937007874015748},{"duration":0.38709599999999966,"midi":55,"time":11.61288,"velocity":0.3937007874015748},{"duration":0.38709599999999966,"midi":48,"time":11.61288,"velocity":0.3937007874015748},{"duration":0.38709599999999966,"midi":60,"time":11.61288,"velocity":0.3937007874015748},{"duration":0.38709599999999966,"midi":64,"time":11.61288,"velocity":0.3937007874015748},{"duration":0.19354799999999983,"midi":48,"time":11.999976,"velocity":0.3937007874015748},{"duration":0.19354799999999983,"midi":55,"time":11.999976,"velocity":0.3937007874015748},{"duration":0.19354799999999983,"midi":60,"time":11.999976,"velocity":0.3937007874015748},{"duration":0.19354799999999983,"midi":64,"time":11.999976,"velocity":0.3937007874015748},{"duration":0.19354799999999983,"midi":52,"time":11.999976,"velocity":0.3937007874015748},{"duration":0.38709599999999966,"midi":60,"time":12.193524,"velocity":0.3937007874015748},{"duration":0.38709599999999966,"midi":55,"time":12.193524,"velocity":0.3937007874015748},{"duration":0.38709599999999966,"midi":64,"time":12.193524,"velocity":0.3937007874015748},{"duration":0.38709599999999966,"midi":48,"time":12.193524,"velocity":0.3937007874015748},{"duration":0.38709599999999966,"midi":52,"time":12.193524,"velocity":0.3937007874015748},{"duration":0.19354799999999983,"midi":60,"time":12.58062,"velocity":0.3937007874015748},{"duration":0.19354799999999983,"midi":48,"time":12.58062,"velocity":0.3937007874015748},{"duration":0.19354799999999983,"midi":52,"time":12.58062,"velocity":0.3937007874015748},{"duration":0.19354799999999983,"midi":64,"time":12.58062,"velocity":0.3937007874015748},{"duration":0.19354799999999983,"midi":55,"time":12.58062,"velocity":0.3937007874015748},{"duration":0.19354799999999983,"midi":64,"time":12.774168,"velocity":0.3937007874015748},{"duration":0.19354799999999983,"midi":60,"time":12.774168,"velocity":0.3937007874015748},{"duration":0.19354799999999983,"midi":55,"time":12.774168,"velocity":0.3937007874015748},{"duration":0.19354799999999983,"midi":48,"time":12.774168,"velocity":0.3937007874015748},{"duration":0.19354799999999983,"midi":52,"time":12.774168,"velocity":0.3937007874015748},{"duration":0.19354799999999983,"midi":60,"time":12.967716,"velocity":0.3937007874015748},{"duration":0.19354799999999983,"midi":52,"time":12.967716,"velocity":0.3937007874015748},{"duration":0.19354799999999983,"midi":48,"time":12.967716,"velocity":0.3937007874015748},{"duration":0.19354799999999983,"midi":64,"time":12.967716,"velocity":0.3937007874015748},{"duration":0.19354799999999983,"midi":55,"time":12.967716,"velocity":0.3937007874015748},{"duration":0.38709600000000144,"midi":60,"time":13.161264,"velocity":0.3937007874015748},{"duration":0.38709600000000144,"midi":48,"time":13.161264,"velocity":0.3937007874015748},{"duration":0.38709600000000144,"midi":52,"time":13.161264,"velocity":0.3937007874015748},{"duration":0.38709600000000144,"midi":55,"time":13.161264,"velocity":0.3937007874015748},{"duration":0.38709600000000144,"midi":64,"time":13.161264,"velocity":0.3937007874015748},{"duration":0.19354799999999983,"midi":60,"time":13.54836,"velocity":0.3937007874015748},{"duration":0.19354799999999983,"midi":55,"time":13.54836,"velocity":0.3937007874015748},{"duration":0.19354799999999983,"midi":64,"time":13.54836,"velocity":0.3937007874015748},{"duration":0.19354799999999983,"midi":48,"time":13.54836,"velocity":0.3937007874015748},{"duration":0.19354799999999983,"midi":52,"time":13.54836,"velocity":0.3937007874015748},{"duration":0.38709599999999966,"midi":48,"time":13.741908,"velocity":0.3937007874015748},{"duration":0.38709599999999966,"midi":55,"time":13.741908,"velocity":0.3937007874015748},{"duration":0.38709599999999966,"midi":60,"time":13.741908,"velocity":0.3937007874015748},{"duration":0.38709599999999966,"midi":52,"time":13.741908,"velocity":0.3937007874015748},{"duration":0.38709599999999966,"midi":64,"time":13.741908,"velocity":0.3937007874015748},{"duration":0.19354799999999983,"midi":64,"time":14.129004,"velocity":0.3937007874015748},{"duration":0.19354799999999983,"midi":48,"time":14.129004,"velocity":0.3937007874015748},{"duration":0.19354799999999983,"midi":52,"time":14.129004,"velocity":0.3937007874015748},{"duration":0.19354799999999983,"midi":55,"time":14.129004,"velocity":0.3937007874015748},{"duration":0.19354799999999983,"midi":60,"time":14.129004,"velocity":0.3937007874015748},{"duration":0.19354799999999983,"midi":64,"time":14.322552,"velocity":0.3937007874015748},{"duration":0.19354799999999983,"midi":60,"time":14.322552,"velocity":0.3937007874015748},{"duration":0.19354799999999983,"midi":55,"time":14.322552,"velocity":0.3937007874015748},{"duration":0.19354799999999983,"midi":52,"time":14.322552,"velocity":0.3937007874015748},{"duration":0.19354799999999983,"midi":48,"time":14.322552,"velocity":0.3937007874015748},{"duration":0.19354799999999983,"midi":60,"time":14.5161,"velocity":0.3937007874015748},{"duration":0.19354799999999983,"midi":55,"time":14.5161,"velocity":0.3937007874015748},{"duration":0.19354799999999983,"midi":48,"time":14.5161,"velocity":0.3937007874015748},{"duration":0.19354799999999983,"midi":64,"time":14.5161,"velocity":0.3937007874015748},{"duration":0.19354799999999983,"midi":52,"time":14.5161,"velocity":0.3937007874015748},{"duration":0.38709599999999966,"midi":50,"time":14.709648,"velocity":0.3937007874015748},{"duration":0.38709599999999966,"midi":62,"time":14.709648,"velocity":0.3937007874015748},{"duration":0.38709599999999966,"midi":66,"time":14.709648,"velocity":0.3937007874015748},{"duration":0.38709599999999966,"midi":57,"time":14.709648,"velocity":0.3937007874015748},{"duration":0.38709600000000144,"midi":66,"time":15.096744,"velocity":0.3937007874015748},{"duration":0.38709600000000144,"midi":62,"time":15.096744,"velocity":0.3937007874015748},{"duration":0.38709600000000144,"midi":50,"time":15.096744,"velocity":0.3937007874015748},{"duration":0.38709600000000144,"midi":57,"time":15.096744,"velocity":0.3937007874015748},{"duration":0.38709599999999966,"midi":40,"time":15.48384,"velocity":0.3937007874015748},{"duration":0.38709599999999966,"midi":47,"time":15.48384,"velocity":0.3937007874015748},{"duration":0.38709599999999966,"midi":52,"time":15.48384,"velocity":0.3937007874015748},{"duration":0.38709599999999966,"midi":55,"time":15.48384,"velocity":0.3937007874015748},{"duration":0.38709599999999966,"midi":59,"time":15.48384,"velocity":0.3937007874015748},{"duration":0.38709599999999966,"midi":64,"time":15.48384,"velocity":0.3937007874015748},{"duration":0.19354799999999983,"midi":52,"time":15.870936,"velocity":0.3937007874015748},{"duration":0.19354799999999983,"midi":40,"time":15.870936,"velocity":0.3937007874015748},{"duration":0.19354799999999983,"midi":47,"time":15.870936,"velocity":0.3937007874015748},{"duration":0.19354799999999983,"midi":55,"time":15.870936,"velocity":0.3937007874015748},{"duration":0.19354799999999983,"midi":59,"time":15.870936,"velocity":0.3937007874015748},{"duration":0.19354799999999983,"midi":64,"time":15.870936,"velocity":0.3937007874015748},{"duration":0.38709599999999966,"midi":55,"time":16.064484,"velocity":0.3937007874015748},{"duration":0.38709599999999966,"midi":40,"time":16.064484,"velocity":0.3937007874015748},{"duration":0.38709599999999966,"midi":59,"time":16.064484,"velocity":0.3937007874015748},{"duration":0.38709599999999966,"midi":47,"time":16.064484,"velocity":0.3937007874015748},{"duration":0.38709599999999966,"midi":52,"time":16.064484,"velocity":0.3937007874015748},{"duration":0.38709599999999966,"midi":64,"time":16.064484,"velocity":0.3937007874015748},{"duration":0.19354799999999983,"midi":59,"time":16.45158,"velocity":0.3937007874015748},{"duration":0.19354799999999983,"midi":55,"time":16.45158,"velocity":0.3937007874015748},{"duration":0.19354799999999983,"midi":64,"time":16.45158,"velocity":0.3937007874015748},{"duration":0.19354799999999983,"midi":52,"time":16.45158,"velocity":0.3937007874015748},{"duration":0.19354799999999983,"midi":40,"time":16.45158,"velocity":0.3937007874015748},{"duration":0.19354799999999983,"midi":47,"time":16.45158,"velocity":0.3937007874015748},{"duration":0.19354799999999983,"midi":64,"time":16.645128,"velocity":0.3937007874015748},{"duration":0.19354799999999983,"midi":47,"time":16.645128,"velocity":0.3937007874015748},{"duration":0.19354799999999983,"midi":52,"time":16.645128,"velocity":0.3937007874015748},{"duration":0.19354799999999983,"midi":55,"time":16.645128,"velocity":0.3937007874015748},{"duration":0.19354799999999983,"midi":40,"time":16.645128,"velocity":0.3937007874015748},{"duration":0.19354799999999983,"midi":59,"time":16.645128,"velocity":0.3937007874015748},{"duration":0.19354799999999983,"midi":64,"time":16.838676,"velocity":0.3937007874015748},{"duration":0.19354799999999983,"midi":59,"time":16.838676,"velocity":0.3937007874015748},{"duration":0.19354799999999983,"midi":40,"time":16.838676,"velocity":0.3937007874015748},{"duration":0.19354799999999983,"midi":52,"time":16.838676,"velocity":0.3937007874015748},{"duration":0.19354799999999983,"midi":55,"time":16.838676,"velocity":0.3937007874015748},{"duration":0.19354799999999983,"midi":47,"time":16.838676,"velocity":0.3937007874015748},{"duration":0.38709599999999966,"midi":59,"time":17.032224,"velocity":0.3937007874015748},{"duration":0.38709599999999966,"midi":55,"time":17.032224,"velocity":0.3937007874015748},{"duration":0.38709599999999966,"midi":47,"time":17.032224,"velocity":0.3937007874015748},{"duration":0.38709599999999966,"midi":40,"time":17.032224,"velocity":0.3937007874015748},{"duration":0.38709599999999966,"midi":64,"time":17.032224,"velocity":0.3937007874015748},{"duration":0.38709599999999966,"midi":52,"time":17.032224,"velocity":0.3937007874015748},{"duration":0.19354799999999983,"midi":64,"time":17.41932,"velocity":0.3937007874015748},{"duration":0.19354799999999983,"midi":47,"time":17.41932,"velocity":0.3937007874015748},{"duration":0.19354799999999983,"midi":59,"time":17.41932,"velocity":0.3937007874015748},{"duration":0.19354799999999983,"midi":40,"time":17.41932,"velocity":0.3937007874015748},{"duration":0.19354799999999983,"midi":55,"time":17.41932,"velocity":0.3937007874015748},{"duration":0.19354799999999983,"midi":52,"time":17.41932,"velocity":0.3937007874015748},{"duration":0.38709599999999966,"midi":40,"time":17.612868,"velocity":0.3937007874015748},{"duration":0.38709599999999966,"midi":52,"time":17.612868,"velocity":0.3937007874015748},{"duration":0.38709599999999966,"midi":47,"time":17.612868,"velocity":0.3937007874015748},{"duration":0.38709599999999966,"midi":55,"time":17.612868,"velocity":0.3937007874015748},{"duration":0.38709599999999966,"midi":59,"time":17.612868,"velocity":0.3937007874015748},{"duration":0.38709599999999966,"midi":64,"time":17.612868,"velocity":0.3937007874015748},{"duration":0.19354799999999983,"midi":64,"time":17.999964,"velocity":0.3937007874015748},{"duration":0.19354799999999983,"midi":47,"time":17.999964,"velocity":0.3937007874015748},{"duration":0.19354799999999983,"midi":52,"time":17.999964,"velocity":0.3937007874015748},{"duration":0.19354799999999983,"midi":55,"time":17.999964,"velocity":0.3937007874015748},{"duration":0.19354799999999983,"midi":59,"time":17.999964,"velocity":0.3937007874015748},{"duration":0.19354799999999983,"midi":40,"time":17.999964,"velocity":0.3937007874015748},{"duration":0.19354799999999983,"midi":64,"time":18.193512,"velocity":0.3937007874015748},{"duration":0.19354799999999983,"midi":59,"time":18.193512,"velocity":0.3937007874015748},{"duration":0.19354799999999983,"midi":40,"time":18.193512,"velocity":0.3937007874015748},{"duration":0.19354799999999983,"midi":52,"time":18.193512,"velocity":0.3937007874015748},{"duration":0.19354799999999983,"midi":55,"time":18.193512,"velocity":0.3937007874015748},{"duration":0.19354799999999983,"midi":47,"time":18.193512,"velocity":0.3937007874015748},{"duration":0.19354799999999983,"midi":59,"time":18.387059999999998,"velocity":0.3937007874015748},{"duration":0.19354799999999983,"midi":55,"time":18.387059999999998,"velocity":0.3937007874015748},{"duration":0.19354799999999983,"midi":47,"time":18.387059999999998,"velocity":0.3937007874015748},{"duration":0.19354799999999983,"midi":64,"time":18.387059999999998,"velocity":0.3937007874015748},{"duration":0.19354799999999983,"midi":40,"time":18.387059999999998,"velocity":0.3937007874015748},{"duration":0.19354799999999983,"midi":52,"time":18.387059999999998,"velocity":0.3937007874015748},{"duration":0.3870960000000032,"midi":67,"time":18.580607999999998,"velocity":0.3937007874015748},{"duration":0.3870960000000032,"midi":47,"time":18.580607999999998,"velocity":0.3937007874015748},{"duration":0.3870960000000032,"midi":50,"time":18.580607999999998,"velocity":0.3937007874015748},{"duration":0.3870960000000032,"midi":55,"time":18.580607999999998,"velocity":0.3937007874015748},{"duration":0.3870960000000032,"midi":43,"time":18.580607999999998,"velocity":0.3937007874015748},{"duration":0.3870960000000032,"midi":59,"time":18.580607999999998,"velocity":0.3937007874015748},{"duration":0.19354799999999983,"midi":59,"time":18.967704,"velocity":0.3937007874015748},{"duration":0.19354799999999983,"midi":55,"time":18.967704,"velocity":0.3937007874015748},{"duration":0.19354799999999983,"midi":67,"time":18.967704,"velocity":0.3937007874015748},{"duration":0.19354799999999983,"midi":43,"time":18.967704,"velocity":0.3937007874015748},{"duration":0.19354799999999983,"midi":50,"time":18.967704,"velocity":0.3937007874015748},{"duration":0.19354799999999983,"midi":47,"time":18.967704,"velocity":0.3937007874015748},{"duration":0.38709599999999966,"midi":59,"time":19.161252,"velocity":0.3937007874015748},{"duration":0.38709599999999966,"midi":55,"time":19.161252,"velocity":0.3937007874015748},{"duration":0.38709599999999966,"midi":67,"time":19.161252,"velocity":0.3937007874015748},{"duration":0.38709599999999966,"midi":50,"time":19.161252,"velocity":0.3937007874015748},{"duration":0.38709599999999966,"midi":43,"time":19.161252,"velocity":0.3937007874015748},{"duration":0.38709599999999966,"midi":47,"time":19.161252,"velocity":0.3937007874015748},{"duration":0.19354799999999983,"midi":67,"time":19.548348,"velocity":0.3937007874015748},{"duration":0.19354799999999983,"midi":59,"time":19.548348,"velocity":0.3937007874015748},{"duration":0.19354799999999983,"midi":43,"time":19.548348,"velocity":0.3937007874015748},{"duration":0.19354799999999983,"midi":50,"time":19.548348,"velocity":0.3937007874015748},{"duration":0.19354799999999983,"midi":47,"time":19.548348,"velocity":0.3937007874015748},{"duration":0.19354799999999983,"midi":55,"time":19.548348,"velocity":0.3937007874015748},{"duration":0.19354799999999983,"midi":47,"time":19.741896,"velocity":0.3937007874015748},{"duration":0.19354799999999983,"midi":43,"time":19.741896,"velocity":0.3937007874015748},{"duration":0.19354799999999983,"midi":67,"time":19.741896,"velocity":0.3937007874015748},{"duration":0.19354799999999983,"midi":50,"time":19.741896,"velocity":0.3937007874015748},{"duration":0.19354799999999983,"midi":55,"time":19.741896,"velocity":0.3937007874015748},{"duration":0.19354799999999983,"midi":59,"time":19.741896,"velocity":0.3937007874015748},{"duration":0.19354799999999983,"midi":67,"time":19.935444,"velocity":0.3937007874015748},{"duration":0.19354799999999983,"midi":43,"time":19.935444,"velocity":0.3937007874015748},{"duration":0.19354799999999983,"midi":47,"time":19.935444,"velocity":0.3937007874015748},{"duration":0.19354799999999983,"midi":50,"time":19.935444,"velocity":0.3937007874015748},{"duration":0.19354799999999983,"midi":55,"time":19.935444,"velocity":0.3937007874015748},{"duration":0.19354799999999983,"midi":59,"time":19.935444,"velocity":0.3937007874015748},{"duration":0.38709599999999966,"midi":64,"time":20.128992,"velocity":0.3937007874015748},{"duration":0.38709599999999966,"midi":60,"time":20.128992,"velocity":0.3937007874015748},{"duration":0.38709599999999966,"midi":52,"time":20.128992,"velocity":0.3937007874015748},{"duration":0.38709599999999966,"midi":48,"time":20.128992,"velocity":0.3937007874015748},{"duration":0.38709599999999966,"midi":55,"time":20.128992,"velocity":0.3937007874015748},{"duration":0.19354799999999983,"midi":52,"time":20.516088,"velocity":0.3937007874015748},{"duration":0.19354799999999983,"midi":64,"time":20.516088,"velocity":0.3937007874015748},{"duration":0.19354799999999983,"midi":55,"time":20.516088,"velocity":0.3937007874015748},{"duration":0.19354799999999983,"midi":60,"time":20.516088,"velocity":0.3937007874015748},{"duration":0.19354799999999983,"midi":48,"time":20.516088,"velocity":0.3937007874015748},{"duration":0.38709599999999966,"midi":48,"time":20.709636,"velocity":0.3937007874015748},{"duration":0.38709599999999966,"midi":52,"time":20.709636,"velocity":0.3937007874015748},{"duration":0.38709599999999966,"midi":55,"time":20.709636,"velocity":0.3937007874015748},{"duration":0.38709599999999966,"midi":60,"time":20.709636,"velocity":0.3937007874015748},{"duration":0.38709599999999966,"midi":64,"time":20.709636,"velocity":0.3937007874015748},{"duration":0.19354799999999983,"midi":60,"time":21.096732,"velocity":0.3937007874015748},{"duration":0.19354799999999983,"midi":64,"time":21.096732,"velocity":0.3937007874015748},{"duration":0.19354799999999983,"midi":55,"time":21.096732,"velocity":0.3937007874015748},{"duration":0.19354799999999983,"midi":52,"time":21.096732,"velocity":0.3937007874015748},{"duration":0.19354799999999983,"midi":48,"time":21.096732,"velocity":0.3937007874015748},{"duration":0.19354799999999983,"midi":52,"time":21.29028,"velocity":0.3937007874015748},{"duration":0.19354799999999983,"midi":64,"time":21.29028,"velocity":0.3937007874015748},{"duration":0.19354799999999983,"midi":48,"time":21.29028,"velocity":0.3937007874015748},{"duration":0.19354799999999983,"midi":55,"time":21.29028,"velocity":0.3937007874015748},{"duration":0.19354799999999983,"midi":60,"time":21.29028,"velocity":0.3937007874015748},{"duration":0.19354799999999983,"midi":64,"time":21.483828,"velocity":0.3937007874015748},{"duration":0.19354799999999983,"midi":48,"time":21.483828,"velocity":0.3937007874015748},{"duration":0.19354799999999983,"midi":52,"time":21.483828,"velocity":0.3937007874015748},{"duration":0.19354799999999983,"midi":55,"time":21.483828,"velocity":0.3937007874015748},{"duration":0.19354799999999983,"midi":60,"time":21.483828,"velocity":0.3937007874015748},{"duration":0.38709599999999966,"midi":64,"time":21.677376,"velocity":0.3937007874015748},{"duration":0.38709599999999966,"midi":60,"time":21.677376,"velocity":0.3937007874015748},{"duration":0.38709599999999966,"midi":55,"time":21.677376,"velocity":0.3937007874015748},{"duration":0.38709599999999966,"midi":52,"time":21.677376,"velocity":0.3937007874015748},{"duration":0.38709599999999966,"midi":48,"time":21.677376,"velocity":0.3937007874015748},{"duration":0.19354799999999983,"midi":52,"time":22.064472,"velocity":0.3937007874015748},{"duration":0.19354799999999983,"midi":64,"time":22.064472,"velocity":0.3937007874015748},{"duration":0.19354799999999983,"midi":55,"time":22.064472,"velocity":0.3937007874015748},{"duration":0.19354799999999983,"midi":60,"time":22.064472,"velocity":0.3937007874015748},{"duration":0.19354799999999983,"midi":48,"time":22.064472,"velocity":0.3937007874015748},{"duration":0.38709599999999966,"midi":64,"time":22.25802,"velocity":0.3937007874015748},{"duration":0.38709599999999966,"midi":60,"time":22.25802,"velocity":0.3937007874015748},{"duration":0.38709599999999966,"midi":52,"time":22.25802,"velocity":0.3937007874015748},{"duration":0.38709599999999966,"midi":55,"time":22.25802,"velocity":0.3937007874015748},{"duration":0.38709599999999966,"midi":48,"time":22.25802,"velocity":0.3937007874015748},{"duration":0.19354800000000338,"midi":55,"time":22.645115999999998,"velocity":0.3937007874015748},{"duration":0.19354800000000338,"midi":48,"time":22.645115999999998,"velocity":0.3937007874015748},{"duration":0.19354800000000338,"midi":60,"time":22.645115999999998,"velocity":0.3937007874015748},{"duration":0.19354800000000338,"midi":64,"time":22.645115999999998,"velocity":0.3937007874015748},{"duration":0.19354800000000338,"midi":52,"time":22.645115999999998,"velocity":0.3937007874015748},{"duration":0.19354799999999983,"midi":60,"time":22.838664,"velocity":0.3937007874015748},{"duration":0.19354799999999983,"midi":55,"time":22.838664,"velocity":0.3937007874015748},{"duration":0.19354799999999983,"midi":48,"time":22.838664,"velocity":0.3937007874015748},{"duration":0.19354799999999983,"midi":64,"time":22.838664,"velocity":0.3937007874015748},{"duration":0.19354799999999983,"midi":52,"time":22.838664,"velocity":0.3937007874015748},{"duration":0.19354799999999983,"midi":48,"time":23.032212,"velocity":0.3937007874015748},{"duration":0.19354799999999983,"midi":60,"time":23.032212,"velocity":0.3937007874015748},{"duration":0.19354799999999983,"midi":64,"time":23.032212,"velocity":0.3937007874015748},{"duration":0.19354799999999983,"midi":52,"time":23.032212,"velocity":0.3937007874015748},{"duration":0.19354799999999983,"midi":55,"time":23.032212,"velocity":0.3937007874015748},{"duration":0.38709599999999966,"midi":50,"time":23.22576,"velocity":0.3937007874015748},{"duration":0.38709599999999966,"midi":57,"time":23.22576,"velocity":0.3937007874015748},{"duration":0.38709599999999966,"midi":62,"time":23.22576,"velocity":0.3937007874015748},{"duration":0.38709599999999966,"midi":66,"time":23.22576,"velocity":0.3937007874015748},{"duration":0.38709599999999966,"midi":66,"time":23.612856,"velocity":0.3937007874015748},{"duration":0.38709599999999966,"midi":57,"time":23.612856,"velocity":0.3937007874015748},{"duration":0.38709599999999966,"midi":62,"time":23.612856,"velocity":0.3937007874015748},{"duration":0.38709599999999966,"midi":50,"time":23.612856,"velocity":0.3937007874015748},{"duration":0.38709599999999966,"midi":64,"time":23.999952,"velocity":0.3937007874015748},{"duration":0.38709599999999966,"midi":47,"time":23.999952,"velocity":0.3937007874015748},{"duration":0.38709599999999966,"midi":52,"time":23.999952,"velocity":0.3937007874015748},{"duration":0.38709599999999966,"midi":55,"time":23.999952,"velocity":0.3937007874015748},{"duration":0.38709599999999966,"midi":59,"time":23.999952,"velocity":0.3937007874015748},{"duration":0.38709599999999966,"midi":40,"time":23.999952,"velocity":0.3937007874015748},{"duration":0.19354799999999983,"midi":64,"time":24.387048,"velocity":0.3937007874015748},{"duration":0.19354799999999983,"midi":59,"time":24.387048,"velocity":0.3937007874015748},{"duration":0.19354799999999983,"midi":55,"time":24.387048,"velocity":0.3937007874015748},{"duration":0.19354799999999983,"midi":40,"time":24.387048,"velocity":0.3937007874015748},{"duration":0.19354799999999983,"midi":47,"time":24.387048,"velocity":0.3937007874015748},{"duration":0.19354799999999983,"midi":52,"time":24.387048,"velocity":0.3937007874015748},{"duration":0.38709599999999966,"midi":59,"time":24.580596,"velocity":0.3937007874015748},{"duration":0.38709599999999966,"midi":55,"time":24.580596,"velocity":0.3937007874015748},{"duration":0.38709599999999966,"midi":47,"time":24.580596,"velocity":0.3937007874015748},{"duration":0.38709599999999966,"midi":64,"time":24.580596,"velocity":0.3937007874015748},{"duration":0.38709599999999966,"midi":40,"time":24.580596,"velocity":0.3937007874015748},{"duration":0.38709599999999966,"midi":52,"time":24.580596,"velocity":0.3937007874015748},{"duration":0.19354799999999983,"midi":64,"time":24.967692,"velocity":0.3937007874015748},{"duration":0.19354799999999983,"midi":47,"time":24.967692,"velocity":0.3937007874015748},{"duration":0.19354799999999983,"midi":59,"time":24.967692,"velocity":0.3937007874015748},{"duration":0.19354799999999983,"midi":40,"time":24.967692,"velocity":0.3937007874015748},{"duration":0.19354799999999983,"midi":52,"time":24.967692,"velocity":0.3937007874015748},{"duration":0.19354799999999983,"midi":55,"time":24.967692,"velocity":0.3937007874015748},{"duration":0.19354799999999983,"midi":40,"time":25.16124,"velocity":0.3937007874015748},{"duration":0.19354799999999983,"midi":47,"time":25.16124,"velocity":0.3937007874015748},{"duration":0.19354799999999983,"midi":52,"time":25.16124,"velocity":0.3937007874015748},{"duration":0.19354799999999983,"midi":55,"time":25.16124,"velocity":0.3937007874015748},{"duration":0.19354799999999983,"midi":59,"time":25.16124,"velocity":0.3937007874015748},{"duration":0.19354799999999983,"midi":64,"time":25.16124,"velocity":0.3937007874015748},{"duration":0.19354799999999983,"midi":59,"time":25.354788,"velocity":0.3937007874015748},{"duration":0.19354799999999983,"midi":55,"time":25.354788,"velocity":0.3937007874015748},{"duration":0.19354799999999983,"midi":47,"time":25.354788,"velocity":0.3937007874015748},{"duration":0.19354799999999983,"midi":52,"time":25.354788,"velocity":0.3937007874015748},{"duration":0.19354799999999983,"midi":40,"time":25.354788,"velocity":0.3937007874015748},{"duration":0.19354799999999983,"midi":64,"time":25.354788,"velocity":0.3937007874015748},{"duration":0.38709599999999966,"midi":64,"time":25.548336,"velocity":0.3937007874015748},{"duration":0.38709599999999966,"midi":59,"time":25.548336,"velocity":0.3937007874015748},{"duration":0.38709599999999966,"midi":40,"time":25.548336,"velocity":0.3937007874015748},{"duration":0.38709599999999966,"midi":52,"time":25.548336,"velocity":0.3937007874015748},{"duration":0.38709599999999966,"midi":55,"time":25.548336,"velocity":0.3937007874015748},{"duration":0.38709599999999966,"midi":47,"time":25.548336,"velocity":0.3937007874015748},{"duration":0.19354799999999983,"midi":47,"time":25.935432,"velocity":0.3937007874015748},{"duration":0.19354799999999983,"midi":40,"time":25.935432,"velocity":0.3937007874015748},{"duration":0.19354799999999983,"midi":52,"time":25.935432,"velocity":0.3937007874015748},{"duration":0.19354799999999983,"midi":64,"time":25.935432,"velocity":0.3937007874015748},{"duration":0.19354799999999983,"midi":55,"time":25.935432,"velocity":0.3937007874015748},{"duration":0.19354799999999983,"midi":59,"time":25.935432,"velocity":0.3937007874015748},{"duration":0.38709599999999966,"midi":59,"time":26.12898,"velocity":0.3937007874015748},{"duration":0.38709599999999966,"midi":52,"time":26.12898,"velocity":0.3937007874015748},{"duration":0.38709599999999966,"midi":40,"time":26.12898,"velocity":0.3937007874015748},{"duration":0.38709599999999966,"midi":64,"time":26.12898,"velocity":0.3937007874015748},{"duration":0.38709599999999966,"midi":47,"time":26.12898,"velocity":0.3937007874015748},{"duration":0.38709599999999966,"midi":55,"time":26.12898,"velocity":0.3937007874015748},{"duration":0.19354799999999983,"midi":55,"time":26.516075999999998,"velocity":0.3937007874015748},{"duration":0.19354799999999983,"midi":59,"time":26.516075999999998,"velocity":0.3937007874015748},{"duration":0.19354799999999983,"midi":40,"time":26.516075999999998,"velocity":0.3937007874015748},{"duration":0.19354799999999983,"midi":47,"time":26.516075999999998,"velocity":0.3937007874015748},{"duration":0.19354799999999983,"midi":64,"time":26.516075999999998,"velocity":0.3937007874015748},{"duration":0.19354799999999983,"midi":52,"time":26.516075999999998,"velocity":0.3937007874015748},{"duration":0.19354800000000338,"midi":59,"time":26.709623999999998,"velocity":0.3937007874015748},{"duration":0.19354800000000338,"midi":52,"time":26.709623999999998,"velocity":0.3937007874015748},{"duration":0.19354800000000338,"midi":64,"time":26.709623999999998,"velocity":0.3937007874015748},{"duration":0.19354800000000338,"midi":40,"time":26.709623999999998,"velocity":0.3937007874015748},{"duration":0.19354800000000338,"midi":47,"time":26.709623999999998,"velocity":0.3937007874015748},{"duration":0.19354800000000338,"midi":55,"time":26.709623999999998,"velocity":0.3937007874015748},{"duration":0.19354799999999983,"midi":59,"time":26.903172,"velocity":0.3937007874015748},{"duration":0.19354799999999983,"midi":55,"time":26.903172,"velocity":0.3937007874015748},{"duration":0.19354799999999983,"midi":52,"time":26.903172,"velocity":0.3937007874015748},{"duration":0.19354799999999983,"midi":47,"time":26.903172,"velocity":0.3937007874015748},{"duration":0.19354799999999983,"midi":40,"time":26.903172,"velocity":0.3937007874015748},{"duration":0.19354799999999983,"midi":64,"time":26.903172,"velocity":0.3937007874015748},{"duration":0.38709599999999966,"midi":67,"time":27.09672,"velocity":0.3937007874015748},{"duration":0.38709599999999966,"midi":59,"time":27.09672,"velocity":0.3937007874015748},{"duration":0.38709599999999966,"midi":50,"time":27.09672,"velocity":0.3937007874015748},{"duration":0.38709599999999966,"midi":55,"time":27.09672,"velocity":0.3937007874015748},{"duration":0.38709599999999966,"midi":47,"time":27.09672,"velocity":0.3937007874015748},{"duration":0.38709599999999966,"midi":43,"time":27.09672,"velocity":0.3937007874015748},{"duration":0.19354799999999983,"midi":43,"time":27.483816,"velocity":0.3937007874015748},{"duration":0.19354799999999983,"midi":47,"time":27.483816,"velocity":0.3937007874015748},{"duration":0.19354799999999983,"midi":67,"time":27.483816,"velocity":0.3937007874015748},{"duration":0.19354799999999983,"midi":59,"time":27.483816,"velocity":0.3937007874015748},{"duration":0.19354799999999983,"midi":55,"time":27.483816,"velocity":0.3937007874015748},{"duration":0.19354799999999983,"midi":50,"time":27.483816,"velocity":0.3937007874015748},{"duration":0.38709599999999966,"midi":50,"time":27.677364,"velocity":0.3937007874015748},{"duration":0.38709599999999966,"midi":55,"time":27.677364,"velocity":0.3937007874015748},{"duration":0.38709599999999966,"midi":67,"time":27.677364,"velocity":0.3937007874015748},{"duration":0.38709599999999966,"midi":59,"time":27.677364,"velocity":0.3937007874015748},{"duration":0.38709599999999966,"midi":43,"time":27.677364,"velocity":0.3937007874015748},{"duration":0.38709599999999966,"midi":47,"time":27.677364,"velocity":0.3937007874015748},{"duration":0.19354799999999983,"midi":43,"time":28.06446,"velocity":0.3937007874015748},{"duration":0.19354799999999983,"midi":47,"time":28.06446,"velocity":0.3937007874015748},{"duration":0.19354799999999983,"midi":50,"time":28.06446,"velocity":0.3937007874015748},{"duration":0.19354799999999983,"midi":55,"time":28.06446,"velocity":0.3937007874015748},{"duration":0.19354799999999983,"midi":59,"time":28.06446,"velocity":0.3937007874015748},{"duration":0.19354799999999983,"midi":67,"time":28.06446,"velocity":0.3937007874015748},{"duration":0.19354799999999983,"midi":59,"time":28.258008,"velocity":0.3937007874015748},{"duration":0.19354799999999983,"midi":47,"time":28.258008,"velocity":0.3937007874015748},{"duration":0.19354799999999983,"midi":43,"time":28.258008,"velocity":0.3937007874015748},{"duration":0.19354799999999983,"midi":50,"time":28.258008,"velocity":0.3937007874015748},{"duration":0.19354799999999983,"midi":67,"time":28.258008,"velocity":0.3937007874015748},{"duration":0.19354799999999983,"midi":55,"time":28.258008,"velocity":0.3937007874015748},{"duration":0.19354799999999983,"midi":67,"time":28.451556,"velocity":0.3937007874015748},{"duration":0.19354799999999983,"midi":59,"time":28.451556,"velocity":0.3937007874015748},{"duration":0.19354799999999983,"midi":50,"time":28.451556,"velocity":0.3937007874015748},{"duration":0.19354799999999983,"midi":43,"time":28.451556,"velocity":0.3937007874015748},{"duration":0.19354799999999983,"midi":47,"time":28.451556,"velocity":0.3937007874015748},{"duration":0.19354799999999983,"midi":55,"time":28.451556,"velocity":0.3937007874015748},{"duration":0.38709599999999966,"midi":64,"time":28.645104,"velocity":0.3937007874015748},{"duration":0.38709599999999966,"midi":55,"time":28.645104,"velocity":0.3937007874015748},{"duration":0.38709599999999966,"midi":48,"time":28.645104,"velocity":0.3937007874015748},{"duration":0.38709599999999966,"midi":60,"time":28.645104,"velocity":0.3937007874015748},{"duration":0.38709599999999966,"midi":52,"time":28.645104,"velocity":0.3937007874015748},{"duration":0.19354799999999983,"midi":55,"time":29.0322,"velocity":0.3937007874015748},{"duration":0.19354799999999983,"midi":48,"time":29.0322,"velocity":0.3937007874015748},{"duration":0.19354799999999983,"midi":60,"time":29.0322,"velocity":0.3937007874015748},{"duration":0.19354799999999983,"midi":64,"time":29.0322,"velocity":0.3937007874015748},{"duration":0.19354799999999983,"midi":52,"time":29.0322,"velocity":0.3937007874015748},{"duration":0.38709599999999966,"midi":60,"time":29.225748,"velocity":0.3937007874015748},{"duration":0.38709599999999966,"midi":55,"time":29.225748,"velocity":0.3937007874015748},{"duration":0.38709599999999966,"midi":48,"time":29.225748,"velocity":0.3937007874015748},{"duration":0.38709599999999966,"midi":64,"time":29.225748,"velocity":0.3937007874015748},{"duration":0.38709599999999966,"midi":52,"time":29.225748,"velocity":0.3937007874015748},{"duration":0.19354799999999983,"midi":55,"time":29.612844,"velocity":0.3937007874015748},{"duration":0.19354799999999983,"midi":48,"time":29.612844,"velocity":0.3937007874015748},{"duration":0.19354799999999983,"midi":60,"time":29.612844,"velocity":0.3937007874015748},{"duration":0.19354799999999983,"midi":64,"time":29.612844,"velocity":0.3937007874015748},{"duration":0.19354799999999983,"midi":52,"time":29.612844,"velocity":0.3937007874015748},{"duration":0.19354799999999983,"midi":52,"time":29.806392,"velocity":0.3937007874015748},{"duration":0.19354799999999983,"midi":55,"time":29.806392,"velocity":0.3937007874015748},{"duration":0.19354799999999983,"midi":64,"time":29.806392,"velocity":0.3937007874015748},{"duration":0.19354799999999983,"midi":60,"time":29.806392,"velocity":0.3937007874015748},{"duration":0.19354799999999983,"midi":48,"time":29.806392,"velocity":0.3937007874015748},{"duration":0.19354799999999983,"midi":48,"time":29.99994,"velocity":0.3937007874015748},{"duration":0.19354799999999983,"midi":52,"time":29.99994,"velocity":0.3937007874015748},{"duration":0.19354799999999983,"midi":55,"time":29.99994,"velocity":0.3937007874015748},{"duration":0.19354799999999983,"midi":60,"time":29.99994,"velocity":0.3937007874015748},{"duration":0.19354799999999983,"midi":64,"time":29.99994,"velocity":0.3937007874015748},{"duration":0.38709599999999966,"midi":64,"time":30.193488,"velocity":0.3937007874015748},{"duration":0.38709599999999966,"midi":60,"time":30.193488,"velocity":0.3937007874015748},{"duration":0.38709599999999966,"midi":52,"time":30.193488,"velocity":0.3937007874015748},{"duration":0.38709599999999966,"midi":48,"time":30.193488,"velocity":0.3937007874015748},{"duration":0.38709599999999966,"midi":55,"time":30.193488,"velocity":0.3937007874015748},{"duration":0.19354799999999983,"midi":64,"time":30.580583999999998,"velocity":0.3937007874015748},{"duration":0.19354799999999983,"midi":52,"time":30.580583999999998,"velocity":0.3937007874015748},{"duration":0.19354799999999983,"midi":48,"time":30.580583999999998,"velocity":0.3937007874015748},{"duration":0.19354799999999983,"midi":55,"time":30.580583999999998,"velocity":0.3937007874015748},{"duration":0.19354799999999983,"midi":60,"time":30.580583999999998,"velocity":0.3937007874015748},{"duration":0.3870960000000032,"midi":52,"time":30.774131999999998,"velocity":0.3937007874015748},{"duration":0.3870960000000032,"midi":64,"time":30.774131999999998,"velocity":0.3937007874015748},{"duration":0.3870960000000032,"midi":55,"time":30.774131999999998,"velocity":0.3937007874015748},{"duration":0.3870960000000032,"midi":48,"time":30.774131999999998,"velocity":0.3937007874015748},{"duration":0.3870960000000032,"midi":60,"time":30.774131999999998,"velocity":0.3937007874015748},{"duration":0.19354799999999983,"midi":60,"time":31.161228,"velocity":0.3937007874015748},{"duration":0.19354799999999983,"midi":48,"time":31.161228,"velocity":0.3937007874015748},{"duration":0.19354799999999983,"midi":52,"time":31.161228,"velocity":0.3937007874015748},{"duration":0.19354799999999983,"midi":55,"time":31.161228,"velocity":0.3937007874015748},{"duration":0.19354799999999983,"midi":64,"time":31.161228,"velocity":0.3937007874015748},{"duration":0.19354799999999983,"midi":55,"time":31.354776,"velocity":0.3937007874015748},{"duration":0.19354799999999983,"midi":52,"time":31.354776,"velocity":0.3937007874015748},{"duration":0.19354799999999983,"midi":64,"time":31.354776,"velocity":0.3937007874015748},{"duration":0.19354799999999983,"midi":60,"time":31.354776,"velocity":0.3937007874015748},{"duration":0.19354799999999983,"midi":48,"time":31.354776,"velocity":0.3937007874015748},{"duration":0.19354799999999983,"midi":48,"time":31.548324,"velocity":0.3937007874015748},{"duration":0.19354799999999983,"midi":52,"time":31.548324,"velocity":0.3937007874015748},{"duration":0.19354799999999983,"midi":55,"time":31.548324,"velocity":0.3937007874015748},{"duration":0.19354799999999983,"midi":60,"time":31.548324,"velocity":0.3937007874015748},{"duration":0.19354799999999983,"midi":64,"time":31.548324,"velocity":0.3937007874015748},{"duration":0.38709599999999966,"midi":66,"time":31.741872,"velocity":0.3937007874015748},{"duration":0.38709599999999966,"midi":62,"time":31.741872,"velocity":0.3937007874015748},{"duration":0.38709599999999966,"midi":50,"time":31.741872,"velocity":0.3937007874015748},{"duration":0.38709599999999966,"midi":57,"time":31.741872,"velocity":0.3937007874015748},{"duration":0.38709599999999966,"midi":50,"time":32.128968,"velocity":0.3937007874015748},{"duration":0.38709599999999966,"midi":57,"time":32.128968,"velocity":0.3937007874015748},{"duration":0.38709599999999966,"midi":62,"time":32.128968,"velocity":0.3937007874015748},{"duration":0.38709599999999966,"midi":66,"time":32.128968,"velocity":0.3937007874015748},{"duration":0.38709599999999966,"midi":64,"time":32.516064,"velocity":0.3937007874015748},{"duration":0.38709599999999966,"midi":40,"time":32.516064,"velocity":0.3937007874015748},{"duration":0.38709599999999966,"midi":52,"time":32.516064,"velocity":0.3937007874015748},{"duration":0.38709599999999966,"midi":55,"time":32.516064,"velocity":0.3937007874015748},{"duration":0.38709599999999966,"midi":59,"time":32.516064,"velocity":0.3937007874015748},{"duration":0.38709599999999966,"midi":47,"time":32.516064,"velocity":0.3937007874015748},{"duration":0.19354799999999983,"midi":59,"time":32.90316,"velocity":0.3937007874015748},{"duration":0.19354799999999983,"midi":55,"time":32.90316,"velocity":0.3937007874015748},{"duration":0.19354799999999983,"midi":40,"time":32.90316,"velocity":0.3937007874015748},{"duration":0.19354799999999983,"midi":52,"time":32.90316,"velocity":0.3937007874015748},{"duration":0.19354799999999983,"midi":64,"time":32.90316,"velocity":0.3937007874015748},{"duration":0.19354799999999983,"midi":47,"time":32.90316,"velocity":0.3937007874015748},{"duration":0.38709599999999966,"midi":59,"time":33.096708,"velocity":0.3937007874015748},{"duration":0.38709599999999966,"midi":55,"time":33.096708,"velocity":0.3937007874015748},{"duration":0.38709599999999966,"midi":52,"time":33.096708,"velocity":0.3937007874015748},{"duration":0.38709599999999966,"midi":64,"time":33.096708,"velocity":0.3937007874015748},{"duration":0.38709599999999966,"midi":40,"time":33.096708,"velocity":0.3937007874015748},{"duration":0.38709599999999966,"midi":47,"time":33.096708,"velocity":0.3937007874015748},{"duration":0.19354799999999983,"midi":64,"time":33.483804,"velocity":0.3937007874015748},{"duration":0.19354799999999983,"midi":47,"time":33.483804,"velocity":0.3937007874015748},{"duration":0.19354799999999983,"midi":40,"time":33.483804,"velocity":0.3937007874015748},{"duration":0.19354799999999983,"midi":55,"time":33.483804,"velocity":0.3937007874015748},{"duration":0.19354799999999983,"midi":59,"time":33.483804,"velocity":0.3937007874015748},{"duration":0.19354799999999983,"midi":52,"time":33.483804,"velocity":0.3937007874015748},{"duration":0.19354799999999983,"midi":40,"time":33.677352,"velocity":0.3937007874015748},{"duration":0.19354799999999983,"midi":52,"time":33.677352,"velocity":0.3937007874015748},{"duration":0.19354799999999983,"midi":47,"time":33.677352,"velocity":0.3937007874015748},{"duration":0.19354799999999983,"midi":55,"time":33.677352,"velocity":0.3937007874015748},{"duration":0.19354799999999983,"midi":59,"time":33.677352,"velocity":0.3937007874015748},{"duration":0.19354799999999983,"midi":64,"time":33.677352,"velocity":0.3937007874015748},{"duration":0.19354799999999983,"midi":59,"time":33.8709,"velocity":0.3937007874015748},{"duration":0.19354799999999983,"midi":55,"time":33.8709,"velocity":0.3937007874015748},{"duration":0.19354799999999983,"midi":52,"time":33.8709,"velocity":0.3937007874015748},{"duration":0.19354799999999983,"midi":64,"time":33.8709,"velocity":0.3937007874015748},{"duration":0.19354799999999983,"midi":47,"time":33.8709,"velocity":0.3937007874015748},{"duration":0.19354799999999983,"midi":40,"time":33.8709,"velocity":0.3937007874015748},{"duration":0.38709599999999966,"midi":55,"time":34.064448,"velocity":0.3937007874015748},{"duration":0.38709599999999966,"midi":40,"time":34.064448,"velocity":0.3937007874015748},{"duration":0.38709599999999966,"midi":59,"time":34.064448,"velocity":0.3937007874015748},{"duration":0.38709599999999966,"midi":47,"time":34.064448,"velocity":0.3937007874015748},{"duration":0.38709599999999966,"midi":64,"time":34.064448,"velocity":0.3937007874015748},{"duration":0.38709599999999966,"midi":52,"time":34.064448,"velocity":0.3937007874015748},{"duration":0.19354799999999983,"midi":59,"time":34.451544,"velocity":0.3937007874015748},{"duration":0.19354799999999983,"midi":55,"time":34.451544,"velocity":0.3937007874015748},{"duration":0.19354799999999983,"midi":40,"time":34.451544,"velocity":0.3937007874015748},{"duration":0.19354799999999983,"midi":52,"time":34.451544,"velocity":0.3937007874015748},{"duration":0.19354799999999983,"midi":64,"time":34.451544,"velocity":0.3937007874015748},{"duration":0.19354799999999983,"midi":47,"time":34.451544,"velocity":0.3937007874015748},{"duration":0.38709599999999966,"midi":59,"time":34.645092,"velocity":0.3937007874015748},{"duration":0.38709599999999966,"midi":55,"time":34.645092,"velocity":0.3937007874015748},{"duration":0.38709599999999966,"midi":64,"time":34.645092,"velocity":0.3937007874015748},{"duration":0.38709599999999966,"midi":52,"time":34.645092,"velocity":0.3937007874015748},{"duration":0.38709599999999966,"midi":40,"time":34.645092,"velocity":0.3937007874015748},{"duration":0.38709599999999966,"midi":47,"time":34.645092,"velocity":0.3937007874015748},{"duration":0.19354799999999983,"midi":59,"time":35.032188,"velocity":0.3937007874015748},{"duration":0.19354799999999983,"midi":64,"time":35.032188,"velocity":0.3937007874015748},{"duration":0.19354799999999983,"midi":52,"time":35.032188,"velocity":0.3937007874015748},{"duration":0.19354799999999983,"midi":40,"time":35.032188,"velocity":0.3937007874015748},{"duration":0.19354799999999983,"midi":47,"time":35.032188,"velocity":0.3937007874015748},{"duration":0.19354799999999983,"midi":55,"time":35.032188,"velocity":0.3937007874015748},{"duration":0.19354799999999983,"midi":59,"time":35.225736,"velocity":0.3937007874015748},{"duration":0.19354799999999983,"midi":55,"time":35.225736,"velocity":0.3937007874015748},{"duration":0.19354799999999983,"midi":40,"time":35.225736,"velocity":0.3937007874015748},{"duration":0.19354799999999983,"midi":47,"time":35.225736,"velocity":0.3937007874015748},{"duration":0.19354799999999983,"midi":52,"time":35.225736,"velocity":0.3937007874015748},{"duration":0.19354799999999983,"midi":64,"time":35.225736,"velocity":0.3937007874015748},{"duration":0.19354799999999983,"midi":64,"time":35.419284,"velocity":0.3937007874015748},{"duration":0.19354799999999983,"midi":47,"time":35.419284,"velocity":0.3937007874015748},{"duration":0.19354799999999983,"midi":55,"time":35.419284,"velocity":0.3937007874015748},{"duration":0.19354799999999983,"midi":40,"time":35.419284,"velocity":0.3937007874015748},{"duration":0.19354799999999983,"midi":52,"time":35.419284,"velocity":0.3937007874015748},{"duration":0.19354799999999983,"midi":59,"time":35.419284,"velocity":0.3937007874015748},{"duration":0.38709599999999966,"midi":59,"time":35.612832,"velocity":0.3937007874015748},{"duration":0.38709599999999966,"midi":55,"time":35.612832,"velocity":0.3937007874015748},{"duration":0.38709599999999966,"midi":43,"time":35.612832,"velocity":0.3937007874015748},{"duration":0.38709599999999966,"midi":50,"time":35.612832,"velocity":0.3937007874015748},{"duration":0.38709599999999966,"midi":67,"time":35.612832,"velocity":0.3937007874015748},{"duration":0.38709599999999966,"midi":47,"time":35.612832,"velocity":0.3937007874015748},{"duration":0.19354799999999983,"midi":59,"time":35.999928,"velocity":0.3937007874015748},{"duration":0.19354799999999983,"midi":55,"time":35.999928,"velocity":0.3937007874015748},{"duration":0.19354799999999983,"midi":43,"time":35.999928,"velocity":0.3937007874015748},{"duration":0.19354799999999983,"midi":67,"time":35.999928,"velocity":0.3937007874015748},{"duration":0.19354799999999983,"midi":50,"time":35.999928,"velocity":0.3937007874015748},{"duration":0.19354799999999983,"midi":47,"time":35.999928,"velocity":0.3937007874015748},{"duration":0.38709599999999966,"midi":55,"time":36.193476,"velocity":0.3937007874015748},{"duration":0.38709599999999966,"midi":43,"time":36.193476,"velocity":0.3937007874015748},{"duration":0.38709599999999966,"midi":59,"time":36.193476,"velocity":0.3937007874015748},{"duration":0.38709599999999966,"midi":47,"time":36.193476,"velocity":0.3937007874015748},{"duration":0.38709599999999966,"midi":67,"time":36.193476,"velocity":0.3937007874015748},{"duration":0.38709599999999966,"midi":50,"time":36.193476,"velocity":0.3937007874015748},{"duration":0.19354799999999983,"midi":43,"time":36.580572,"velocity":0.3937007874015748},{"duration":0.19354799999999983,"midi":47,"time":36.580572,"velocity":0.3937007874015748},{"duration":0.19354799999999983,"midi":50,"time":36.580572,"velocity":0.3937007874015748},{"duration":0.19354799999999983,"midi":55,"time":36.580572,"velocity":0.3937007874015748},{"duration":0.19354799999999983,"midi":59,"time":36.580572,"velocity":0.3937007874015748},{"duration":0.19354799999999983,"midi":67,"time":36.580572,"velocity":0.3937007874015748},{"duration":0.19354799999999983,"midi":59,"time":36.774119999999996,"velocity":0.3937007874015748},{"duration":0.19354799999999983,"midi":55,"time":36.774119999999996,"velocity":0.3937007874015748},{"duration":0.19354799999999983,"midi":67,"time":36.774119999999996,"velocity":0.3937007874015748},{"duration":0.19354799999999983,"midi":43,"time":36.774119999999996,"velocity":0.3937007874015748},{"duration":0.19354799999999983,"midi":50,"time":36.774119999999996,"velocity":0.3937007874015748},{"duration":0.19354799999999983,"midi":47,"time":36.774119999999996,"velocity":0.3937007874015748},{"duration":0.19354799999999983,"midi":55,"time":36.967667999999996,"velocity":0.3937007874015748},{"duration":0.19354799999999983,"midi":43,"time":36.967667999999996,"velocity":0.3937007874015748},{"duration":0.19354799999999983,"midi":59,"time":36.967667999999996,"velocity":0.3937007874015748},{"duration":0.19354799999999983,"midi":50,"time":36.967667999999996,"velocity":0.3937007874015748},{"duration":0.19354799999999983,"midi":47,"time":36.967667999999996,"velocity":0.3937007874015748},{"duration":0.19354799999999983,"midi":67,"time":36.967667999999996,"velocity":0.3937007874015748},{"duration":0.38709600000000677,"midi":48,"time":37.161215999999996,"velocity":0.3937007874015748},{"duration":0.38709600000000677,"midi":52,"time":37.161215999999996,"velocity":0.3937007874015748},{"duration":0.38709600000000677,"midi":55,"time":37.161215999999996,"velocity":0.3937007874015748},{"duration":0.38709600000000677,"midi":60,"time":37.161215999999996,"velocity":0.3937007874015748},{"duration":0.38709600000000677,"midi":64,"time":37.161215999999996,"velocity":0.3937007874015748},{"duration":0.19354799999999983,"midi":60,"time":37.548312,"velocity":0.3937007874015748},{"duration":0.19354799999999983,"midi":55,"time":37.548312,"velocity":0.3937007874015748},{"duration":0.19354799999999983,"midi":64,"time":37.548312,"velocity":0.3937007874015748},{"duration":0.19354799999999983,"midi":52,"time":37.548312,"velocity":0.3937007874015748},{"duration":0.19354799999999983,"midi":48,"time":37.548312,"velocity":0.3937007874015748},{"duration":0.38709599999999966,"midi":64,"time":37.74186,"velocity":0.3937007874015748},{"duration":0.38709599999999966,"midi":60,"time":37.74186,"velocity":0.3937007874015748},{"duration":0.38709599999999966,"midi":55,"time":37.74186,"velocity":0.3937007874015748},{"duration":0.38709599999999966,"midi":48,"time":37.74186,"velocity":0.3937007874015748},{"duration":0.38709599999999966,"midi":52,"time":37.74186,"velocity":0.3937007874015748},{"duration":0.19354799999999983,"midi":52,"time":38.128956,"velocity":0.3937007874015748},{"duration":0.19354799999999983,"midi":48,"time":38.128956,"velocity":0.3937007874015748},{"duration":0.19354799999999983,"midi":55,"time":38.128956,"velocity":0.3937007874015748},{"duration":0.19354799999999983,"midi":64,"time":38.128956,"velocity":0.3937007874015748},{"duration":0.19354799999999983,"midi":60,"time":38.128956,"velocity":0.3937007874015748},{"duration":0.19354799999999983,"midi":64,"time":38.322504,"velocity":0.3937007874015748},{"duration":0.19354799999999983,"midi":60,"time":38.322504,"velocity":0.3937007874015748},{"duration":0.19354799999999983,"midi":52,"time":38.322504,"velocity":0.3937007874015748},{"duration":0.19354799999999983,"midi":48,"time":38.322504,"velocity":0.3937007874015748},{"duration":0.19354799999999983,"midi":55,"time":38.322504,"velocity":0.3937007874015748},{"duration":0.19354799999999983,"midi":52,"time":38.516052,"velocity":0.3937007874015748},{"duration":0.19354799999999983,"midi":64,"time":38.516052,"velocity":0.3937007874015748},{"duration":0.19354799999999983,"midi":55,"time":38.516052,"velocity":0.3937007874015748},{"duration":0.19354799999999983,"midi":60,"time":38.516052,"velocity":0.3937007874015748},{"duration":0.19354799999999983,"midi":48,"time":38.516052,"velocity":0.3937007874015748},{"duration":0.38709599999999966,"midi":55,"time":38.7096,"velocity":0.3937007874015748},{"duration":0.38709599999999966,"midi":48,"time":38.7096,"velocity":0.3937007874015748},{"duration":0.38709599999999966,"midi":60,"time":38.7096,"velocity":0.3937007874015748},{"duration":0.38709599999999966,"midi":64,"time":38.7096,"velocity":0.3937007874015748},{"duration":0.38709599999999966,"midi":52,"time":38.7096,"velocity":0.3937007874015748},{"duration":0.19354799999999983,"midi":55,"time":39.096696,"velocity":0.3937007874015748},{"duration":0.19354799999999983,"midi":48,"time":39.096696,"velocity":0.3937007874015748},{"duration":0.19354799999999983,"midi":52,"time":39.096696,"velocity":0.3937007874015748},{"duration":0.19354799999999983,"midi":64,"time":39.096696,"velocity":0.3937007874015748},{"duration":0.19354799999999983,"midi":60,"time":39.096696,"velocity":0.3937007874015748},{"duration":0.38709599999999966,"midi":64,"time":39.290244,"velocity":0.3937007874015748},{"duration":0.38709599999999966,"midi":60,"time":39.290244,"velocity":0.3937007874015748},{"duration":0.38709599999999966,"midi":52,"time":39.290244,"velocity":0.3937007874015748},{"duration":0.38709599999999966,"midi":48,"time":39.290244,"velocity":0.3937007874015748},{"duration":0.38709599999999966,"midi":55,"time":39.290244,"velocity":0.3937007874015748},{"duration":0.19354799999999983,"midi":48,"time":39.67734,"velocity":0.3937007874015748},{"duration":0.19354799999999983,"midi":52,"time":39.67734,"velocity":0.3937007874015748},{"duration":0.19354799999999983,"midi":55,"time":39.67734,"velocity":0.3937007874015748},{"duration":0.19354799999999983,"midi":60,"time":39.67734,"velocity":0.3937007874015748},{"duration":0.19354799999999983,"midi":64,"time":39.67734,"velocity":0.3937007874015748},{"duration":0.19354799999999983,"midi":60,"time":39.870888,"velocity":0.3937007874015748},{"duration":0.19354799999999983,"midi":64,"time":39.870888,"velocity":0.3937007874015748},{"duration":0.19354799999999983,"midi":55,"time":39.870888,"velocity":0.3937007874015748},{"duration":0.19354799999999983,"midi":48,"time":39.870888,"velocity":0.3937007874015748},{"duration":0.19354799999999983,"midi":52,"time":39.870888,"velocity":0.3937007874015748},{"duration":0.19354799999999983,"midi":60,"time":40.064436,"velocity":0.3937007874015748},{"duration":0.19354799999999983,"midi":48,"time":40.064436,"velocity":0.3937007874015748},{"duration":0.19354799999999983,"midi":64,"time":40.064436,"velocity":0.3937007874015748},{"duration":0.19354799999999983,"midi":52,"time":40.064436,"velocity":0.3937007874015748},{"duration":0.19354799999999983,"midi":55,"time":40.064436,"velocity":0.3937007874015748},{"duration":0.38709599999999966,"midi":50,"time":40.257984,"velocity":0.3937007874015748},{"duration":0.38709599999999966,"midi":57,"time":40.257984,"velocity":0.3937007874015748},{"duration":0.38709599999999966,"midi":62,"time":40.257984,"velocity":0.3937007874015748},{"duration":0.38709599999999966,"midi":66,"time":40.257984,"velocity":0.3937007874015748},{"duration":0.38709599999999966,"midi":62,"time":40.64508,"velocity":0.3937007874015748},{"duration":0.38709599999999966,"midi":66,"time":40.64508,"velocity":0.3937007874015748},{"duration":0.38709599999999966,"midi":50,"time":40.64508,"velocity":0.3937007874015748},{"duration":0.38709599999999966,"midi":57,"time":40.64508,"velocity":0.3937007874015748},{"duration":0.38709599999999966,"midi":59,"time":41.032176,"velocity":0.3937007874015748},{"duration":0.38709599999999966,"midi":52,"time":41.032176,"velocity":0.3937007874015748},{"duration":0.38709599999999966,"midi":40,"time":41.032176,"velocity":0.3937007874015748},{"duration":0.38709599999999966,"midi":64,"time":41.032176,"velocity":0.3937007874015748},{"duration":0.38709599999999966,"midi":47,"time":41.032176,"velocity":0.3937007874015748},{"duration":0.38709599999999966,"midi":55,"time":41.032176,"velocity":0.3937007874015748},{"duration":0.19354799999999983,"midi":64,"time":41.419272,"velocity":0.3937007874015748},{"duration":0.19354799999999983,"midi":59,"time":41.419272,"velocity":0.3937007874015748},{"duration":0.19354799999999983,"midi":52,"time":41.419272,"velocity":0.3937007874015748},{"duration":0.19354799999999983,"midi":40,"time":41.419272,"velocity":0.3937007874015748},{"duration":0.19354799999999983,"midi":47,"time":41.419272,"velocity":0.3937007874015748},{"duration":0.19354799999999983,"midi":55,"time":41.419272,"velocity":0.3937007874015748},{"duration":0.38709599999999966,"midi":59,"time":41.61282,"velocity":0.3937007874015748},{"duration":0.38709599999999966,"midi":55,"time":41.61282,"velocity":0.3937007874015748},{"duration":0.38709599999999966,"midi":47,"time":41.61282,"velocity":0.3937007874015748},{"duration":0.38709599999999966,"midi":52,"time":41.61282,"velocity":0.3937007874015748},{"duration":0.38709599999999966,"midi":40,"time":41.61282,"velocity":0.3937007874015748},{"duration":0.38709599999999966,"midi":64,"time":41.61282,"velocity":0.3937007874015748},{"duration":0.19354799999999983,"midi":47,"time":41.999916,"velocity":0.3937007874015748},{"duration":0.19354799999999983,"midi":64,"time":41.999916,"velocity":0.3937007874015748},{"duration":0.19354799999999983,"midi":59,"time":41.999916,"velocity":0.3937007874015748},{"duration":0.19354799999999983,"midi":40,"time":41.999916,"velocity":0.3937007874015748},{"duration":0.19354799999999983,"midi":52,"time":41.999916,"velocity":0.3937007874015748},{"duration":0.19354799999999983,"midi":55,"time":41.999916,"velocity":0.3937007874015748},{"duration":0.19354799999999983,"midi":59,"time":42.193464,"velocity":0.3937007874015748},{"duration":0.19354799999999983,"midi":55,"time":42.193464,"velocity":0.3937007874015748},{"duration":0.19354799999999983,"midi":40,"time":42.193464,"velocity":0.3937007874015748},{"duration":0.19354799999999983,"midi":52,"time":42.193464,"velocity":0.3937007874015748},{"duration":0.19354799999999983,"midi":64,"time":42.193464,"velocity":0.3937007874015748},{"duration":0.19354799999999983,"midi":47,"time":42.193464,"velocity":0.3937007874015748},{"duration":0.19354799999999983,"midi":59,"time":42.387012,"velocity":0.3937007874015748},{"duration":0.19354799999999983,"midi":55,"time":42.387012,"velocity":0.3937007874015748},{"duration":0.19354799999999983,"midi":52,"time":42.387012,"velocity":0.3937007874015748},{"duration":0.19354799999999983,"midi":64,"time":42.387012,"velocity":0.3937007874015748},{"duration":0.19354799999999983,"midi":47,"time":42.387012,"velocity":0.3937007874015748},{"duration":0.19354799999999983,"midi":40,"time":42.387012,"velocity":0.3937007874015748},{"duration":0.38709599999999966,"midi":52,"time":42.58056,"velocity":0.3937007874015748},{"duration":0.38709599999999966,"midi":40,"time":42.58056,"velocity":0.3937007874015748},{"duration":0.38709599999999966,"midi":55,"time":42.58056,"velocity":0.3937007874015748},{"duration":0.38709599999999966,"midi":59,"time":42.58056,"velocity":0.3937007874015748},{"duration":0.38709599999999966,"midi":64,"time":42.58056,"velocity":0.3937007874015748},{"duration":0.38709599999999966,"midi":47,"time":42.58056,"velocity":0.3937007874015748},{"duration":0.19354799999999983,"midi":59,"time":42.967656,"velocity":0.3937007874015748},{"duration":0.19354799999999983,"midi":55,"time":42.967656,"velocity":0.3937007874015748},{"duration":0.19354799999999983,"midi":64,"time":42.967656,"velocity":0.3937007874015748},{"duration":0.19354799999999983,"midi":47,"time":42.967656,"velocity":0.3937007874015748},{"duration":0.19354799999999983,"midi":52,"time":42.967656,"velocity":0.3937007874015748},{"duration":0.19354799999999983,"midi":40,"time":42.967656,"velocity":0.3937007874015748},{"duration":0.38709599999999966,"midi":55,"time":43.161204,"velocity":0.3937007874015748},{"duration":0.38709599999999966,"midi":40,"time":43.161204,"velocity":0.3937007874015748},{"duration":0.38709599999999966,"midi":59,"time":43.161204,"velocity":0.3937007874015748},{"duration":0.38709599999999966,"midi":47,"time":43.161204,"velocity":0.3937007874015748},{"duration":0.38709599999999966,"midi":64,"time":43.161204,"velocity":0.3937007874015748},{"duration":0.38709599999999966,"midi":52,"time":43.161204,"velocity":0.3937007874015748},{"duration":0.19354799999999983,"midi":59,"time":43.5483,"velocity":0.3937007874015748},{"duration":0.19354799999999983,"midi":55,"time":43.5483,"velocity":0.3937007874015748},{"duration":0.19354799999999983,"midi":40,"time":43.5483,"velocity":0.3937007874015748},{"duration":0.19354799999999983,"midi":52,"time":43.5483,"velocity":0.3937007874015748},{"duration":0.19354799999999983,"midi":64,"time":43.5483,"velocity":0.3937007874015748},{"duration":0.19354799999999983,"midi":47,"time":43.5483,"velocity":0.3937007874015748},{"duration":0.19354799999999983,"midi":59,"time":43.741848,"velocity":0.3937007874015748},{"duration":0.19354799999999983,"midi":55,"time":43.741848,"velocity":0.3937007874015748},{"duration":0.19354799999999983,"midi":64,"time":43.741848,"velocity":0.3937007874015748},{"duration":0.19354799999999983,"midi":52,"time":43.741848,"velocity":0.3937007874015748},{"duration":0.19354799999999983,"midi":40,"time":43.741848,"velocity":0.3937007874015748},{"duration":0.19354799999999983,"midi":47,"time":43.741848,"velocity":0.3937007874015748},{"duration":0.19354799999999983,"midi":59,"time":43.935396,"velocity":0.3937007874015748},{"duration":0.19354799999999983,"midi":64,"time":43.935396,"velocity":0.3937007874015748},{"duration":0.19354799999999983,"midi":47,"time":43.935396,"velocity":0.3937007874015748},{"duration":0.19354799999999983,"midi":40,"time":43.935396,"velocity":0.3937007874015748},{"duration":0.19354799999999983,"midi":52,"time":43.935396,"velocity":0.3937007874015748},{"duration":0.19354799999999983,"midi":55,"time":43.935396,"velocity":0.3937007874015748},{"duration":0.38709599999999966,"midi":47,"time":44.128944,"velocity":0.3937007874015748},{"duration":0.38709599999999966,"midi":55,"time":44.128944,"velocity":0.3937007874015748},{"duration":0.38709599999999966,"midi":50,"time":44.128944,"velocity":0.3937007874015748},{"duration":0.38709599999999966,"midi":67,"time":44.128944,"velocity":0.3937007874015748},{"duration":0.38709599999999966,"midi":59,"time":44.128944,"velocity":0.3937007874015748},{"duration":0.38709599999999966,"midi":43,"time":44.128944,"velocity":0.3937007874015748},{"duration":0.19354799999999983,"midi":55,"time":44.51604,"velocity":0.3937007874015748},{"duration":0.19354799999999983,"midi":43,"time":44.51604,"velocity":0.3937007874015748},{"duration":0.19354799999999983,"midi":59,"time":44.51604,"velocity":0.3937007874015748},{"duration":0.19354799999999983,"midi":47,"time":44.51604,"velocity":0.3937007874015748},{"duration":0.19354799999999983,"midi":67,"time":44.51604,"velocity":0.3937007874015748},{"duration":0.19354799999999983,"midi":50,"time":44.51604,"velocity":0.3937007874015748},{"duration":0.38709599999999966,"midi":59,"time":44.709588,"velocity":0.3937007874015748},{"duration":0.38709599999999966,"midi":55,"time":44.709588,"velocity":0.3937007874015748},{"duration":0.38709599999999966,"midi":67,"time":44.709588,"velocity":0.3937007874015748},{"duration":0.38709599999999966,"midi":47,"time":44.709588,"velocity":0.3937007874015748},{"duration":0.38709599999999966,"midi":43,"time":44.709588,"velocity":0.3937007874015748},{"duration":0.38709599999999966,"midi":50,"time":44.709588,"velocity":0.3937007874015748},{"duration":0.19354799999999983,"midi":50,"time":45.096683999999996,"velocity":0.3937007874015748},{"duration":0.19354799999999983,"midi":67,"time":45.096683999999996,"velocity":0.3937007874015748},{"duration":0.19354799999999983,"midi":47,"time":45.096683999999996,"velocity":0.3937007874015748},{"duration":0.19354799999999983,"midi":55,"time":45.096683999999996,"velocity":0.3937007874015748},{"duration":0.19354799999999983,"midi":59,"time":45.096683999999996,"velocity":0.3937007874015748},{"duration":0.19354799999999983,"midi":43,"time":45.096683999999996,"velocity":0.3937007874015748},{"duration":0.19354800000000694,"midi":43,"time":45.290231999999996,"velocity":0.3937007874015748},{"duration":0.19354800000000694,"midi":47,"time":45.290231999999996,"velocity":0.3937007874015748},{"duration":0.19354800000000694,"midi":50,"time":45.290231999999996,"velocity":0.3937007874015748},{"duration":0.19354800000000694,"midi":55,"time":45.290231999999996,"velocity":0.3937007874015748},{"duration":0.19354800000000694,"midi":59,"time":45.290231999999996,"velocity":0.3937007874015748},{"duration":0.19354800000000694,"midi":67,"time":45.290231999999996,"velocity":0.3937007874015748},{"duration":0.19354799999999983,"midi":67,"time":45.48378,"velocity":0.3937007874015748},{"duration":0.19354799999999983,"midi":59,"time":45.48378,"velocity":0.3937007874015748},{"duration":0.19354799999999983,"midi":55,"time":45.48378,"velocity":0.3937007874015748},{"duration":0.19354799999999983,"midi":43,"time":45.48378,"velocity":0.3937007874015748},{"duration":0.19354799999999983,"midi":47,"time":45.48378,"velocity":0.3937007874015748},{"duration":0.19354799999999983,"midi":50,"time":45.48378,"velocity":0.3937007874015748},{"duration":0.38709599999999966,"midi":55,"time":45.677328,"velocity":0.3937007874015748},{"duration":0.38709599999999966,"midi":52,"time":45.677328,"velocity":0.3937007874015748},{"duration":0.38709599999999966,"midi":64,"time":45.677328,"velocity":0.3937007874015748},{"duration":0.38709599999999966,"midi":60,"time":45.677328,"velocity":0.3937007874015748},{"duration":0.38709599999999966,"midi":48,"time":45.677328,"velocity":0.3937007874015748},{"duration":0.19354799999999983,"midi":64,"time":46.064424,"velocity":0.3937007874015748},{"duration":0.19354799999999983,"midi":60,"time":46.064424,"velocity":0.3937007874015748},{"duration":0.19354799999999983,"midi":52,"time":46.064424,"velocity":0.3937007874015748},{"duration":0.19354799999999983,"midi":48,"time":46.064424,"velocity":0.3937007874015748},{"duration":0.19354799999999983,"midi":55,"time":46.064424,"velocity":0.3937007874015748},{"duration":0.38709599999999966,"midi":60,"time":46.257972,"velocity":0.3937007874015748},{"duration":0.38709599999999966,"midi":48,"time":46.257972,"velocity":0.3937007874015748},{"duration":0.38709599999999966,"midi":52,"time":46.257972,"velocity":0.3937007874015748},{"duration":0.38709599999999966,"midi":55,"time":46.257972,"velocity":0.3937007874015748},{"duration":0.38709599999999966,"midi":64,"time":46.257972,"velocity":0.3937007874015748},{"duration":0.19354799999999983,"midi":60,"time":46.645068,"velocity":0.3937007874015748},{"duration":0.19354799999999983,"midi":55,"time":46.645068,"velocity":0.3937007874015748},{"duration":0.19354799999999983,"midi":52,"time":46.645068,"velocity":0.3937007874015748},{"duration":0.19354799999999983,"midi":64,"time":46.645068,"velocity":0.3937007874015748},{"duration":0.19354799999999983,"midi":48,"time":46.645068,"velocity":0.3937007874015748},{"duration":0.19354799999999983,"midi":48,"time":46.838616,"velocity":0.3937007874015748},{"duration":0.19354799999999983,"midi":55,"time":46.838616,"velocity":0.3937007874015748},{"duration":0.19354799999999983,"midi":60,"time":46.838616,"velocity":0.3937007874015748},{"duration":0.19354799999999983,"midi":64,"time":46.838616,"velocity":0.3937007874015748},{"duration":0.19354799999999983,"midi":52,"time":46.838616,"velocity":0.3937007874015748},{"duration":0.19354799999999983,"midi":55,"time":47.032164,"velocity":0.3937007874015748},{"duration":0.19354799999999983,"midi":60,"time":47.032164,"velocity":0.3937007874015748},{"duration":0.19354799999999983,"midi":64,"time":47.032164,"velocity":0.3937007874015748},{"duration":0.19354799999999983,"midi":52,"time":47.032164,"velocity":0.3937007874015748},{"duration":0.19354799999999983,"midi":48,"time":47.032164,"velocity":0.3937007874015748},{"duration":0.38709599999999966,"midi":60,"time":47.225712,"velocity":0.3937007874015748},{"duration":0.38709599999999966,"midi":55,"time":47.225712,"velocity":0.3937007874015748},{"duration":0.38709599999999966,"midi":48,"time":47.225712,"velocity":0.3937007874015748},{"duration":0.38709599999999966,"midi":64,"time":47.225712,"velocity":0.3937007874015748},{"duration":0.38709599999999966,"midi":52,"time":47.225712,"velocity":0.3937007874015748},{"duration":0.19354799999999983,"midi":55,"time":47.612808,"velocity":0.3937007874015748},{"duration":0.19354799999999983,"midi":48,"time":47.612808,"velocity":0.3937007874015748},{"duration":0.19354799999999983,"midi":60,"time":47.612808,"velocity":0.3937007874015748},{"duration":0.19354799999999983,"midi":64,"time":47.612808,"velocity":0.3937007874015748},{"duration":0.19354799999999983,"midi":52,"time":47.612808,"velocity":0.3937007874015748},{"duration":0.38709599999999966,"midi":64,"time":47.806356,"velocity":0.3937007874015748},{"duration":0.38709599999999966,"midi":48,"time":47.806356,"velocity":0.3937007874015748},{"duration":0.38709599999999966,"midi":52,"time":47.806356,"velocity":0.3937007874015748},{"duration":0.38709599999999966,"midi":55,"time":47.806356,"velocity":0.3937007874015748},{"duration":0.38709599999999966,"midi":60,"time":47.806356,"velocity":0.3937007874015748},{"duration":0.19354799999999983,"midi":60,"time":48.193452,"velocity":0.3937007874015748},{"duration":0.19354799999999983,"midi":55,"time":48.193452,"velocity":0.3937007874015748},{"duration":0.19354799999999983,"midi":48,"time":48.193452,"velocity":0.3937007874015748},{"duration":0.19354799999999983,"midi":64,"time":48.193452,"velocity":0.3937007874015748},{"duration":0.19354799999999983,"midi":52,"time":48.193452,"velocity":0.3937007874015748},{"duration":0.19354799999999983,"midi":48,"time":48.387,"velocity":0.3937007874015748},{"duration":0.19354799999999983,"midi":60,"time":48.387,"velocity":0.3937007874015748},{"duration":0.19354799999999983,"midi":55,"time":48.387,"velocity":0.3937007874015748},{"duration":0.19354799999999983,"midi":64,"time":48.387,"velocity":0.3937007874015748},{"duration":0.19354799999999983,"midi":52,"time":48.387,"velocity":0.3937007874015748},{"duration":0.19354799999999983,"midi":64,"time":48.580548,"velocity":0.3937007874015748},{"duration":0.19354799999999983,"midi":48,"time":48.580548,"velocity":0.3937007874015748},{"duration":0.19354799999999983,"midi":52,"time":48.580548,"velocity":0.3937007874015748},{"duration":0.19354799999999983,"midi":55,"time":48.580548,"velocity":0.3937007874015748},{"duration":0.19354799999999983,"midi":60,"time":48.580548,"velocity":0.3937007874015748},{"duration":0.38709599999999966,"midi":62,"time":48.774096,"velocity":0.3937007874015748},{"duration":0.38709599999999966,"midi":66,"time":48.774096,"velocity":0.3937007874015748},{"duration":0.38709599999999966,"midi":50,"time":48.774096,"velocity":0.3937007874015748},{"duration":0.38709599999999966,"midi":57,"time":48.774096,"velocity":0.3937007874015748},{"duration":0.38709599999999966,"midi":57,"time":49.161192,"velocity":0.3937007874015748},{"duration":0.38709599999999966,"midi":66,"time":49.161192,"velocity":0.3937007874015748},{"duration":0.38709599999999966,"midi":50,"time":49.161192,"velocity":0.3937007874015748},{"duration":0.38709599999999966,"midi":62,"time":49.161192,"velocity":0.3937007874015748},{"duration":0.38709599999999966,"midi":64,"time":49.548288,"velocity":0.3937007874015748},{"duration":0.38709599999999966,"midi":59,"time":49.548288,"velocity":0.3937007874015748},{"duration":0.38709599999999966,"midi":55,"time":49.548288,"velocity":0.3937007874015748},{"duration":0.38709599999999966,"midi":40,"time":49.548288,"velocity":0.3937007874015748},{"duration":0.38709599999999966,"midi":47,"time":49.548288,"velocity":0.3937007874015748},{"duration":0.38709599999999966,"midi":52,"time":49.548288,"velocity":0.3937007874015748},{"duration":0.19354799999999983,"midi":52,"time":49.935384,"velocity":0.3937007874015748},{"duration":0.19354799999999983,"midi":59,"time":49.935384,"velocity":0.3937007874015748},{"duration":0.19354799999999983,"midi":64,"time":49.935384,"velocity":0.3937007874015748},{"duration":0.19354799999999983,"midi":40,"time":49.935384,"velocity":0.3937007874015748},{"duration":0.19354799999999983,"midi":55,"time":49.935384,"velocity":0.3937007874015748},{"duration":0.19354799999999983,"midi":47,"time":49.935384,"velocity":0.3937007874015748},{"duration":0.38709599999999966,"midi":40,"time":50.128932,"velocity":0.3937007874015748},{"duration":0.38709599999999966,"midi":47,"time":50.128932,"velocity":0.3937007874015748},{"duration":0.38709599999999966,"midi":52,"time":50.128932,"velocity":0.3937007874015748},{"duration":0.38709599999999966,"midi":55,"time":50.128932,"velocity":0.3937007874015748},{"duration":0.38709599999999966,"midi":59,"time":50.128932,"velocity":0.3937007874015748},{"duration":0.38709599999999966,"midi":64,"time":50.128932,"velocity":0.3937007874015748},{"duration":0.19354799999999983,"midi":59,"time":50.516028,"velocity":0.3937007874015748},{"duration":0.19354799999999983,"midi":55,"time":50.516028,"velocity":0.3937007874015748},{"duration":0.19354799999999983,"midi":40,"time":50.516028,"velocity":0.3937007874015748},{"duration":0.19354799999999983,"midi":64,"time":50.516028,"velocity":0.3937007874015748},{"duration":0.19354799999999983,"midi":47,"time":50.516028,"velocity":0.3937007874015748},{"duration":0.19354799999999983,"midi":52,"time":50.516028,"velocity":0.3937007874015748},{"duration":0.19354799999999983,"midi":59,"time":50.709576,"velocity":0.3937007874015748},{"duration":0.19354799999999983,"midi":55,"time":50.709576,"velocity":0.3937007874015748},{"duration":0.19354799999999983,"midi":47,"time":50.709576,"velocity":0.3937007874015748},{"duration":0.19354799999999983,"midi":40,"time":50.709576,"velocity":0.3937007874015748},{"duration":0.19354799999999983,"midi":52,"time":50.709576,"velocity":0.3937007874015748},{"duration":0.19354799999999983,"midi":64,"time":50.709576,"velocity":0.3937007874015748},{"duration":0.19354799999999983,"midi":55,"time":50.903124,"velocity":0.3937007874015748},{"duration":0.19354799999999983,"midi":59,"time":50.903124,"velocity":0.3937007874015748},{"duration":0.19354799999999983,"midi":40,"time":50.903124,"velocity":0.3937007874015748},{"duration":0.19354799999999983,"midi":47,"time":50.903124,"velocity":0.3937007874015748},{"duration":0.19354799999999983,"midi":64,"time":50.903124,"velocity":0.3937007874015748},{"duration":0.19354799999999983,"midi":52,"time":50.903124,"velocity":0.3937007874015748},{"duration":0.38709599999999966,"midi":59,"time":51.096672,"velocity":0.3937007874015748},{"duration":0.38709599999999966,"midi":52,"time":51.096672,"velocity":0.3937007874015748},{"duration":0.38709599999999966,"midi":64,"time":51.096672,"velocity":0.3937007874015748},{"duration":0.38709599999999966,"midi":40,"time":51.096672,"velocity":0.3937007874015748},{"duration":0.38709599999999966,"midi":47,"time":51.096672,"velocity":0.3937007874015748},{"duration":0.38709599999999966,"midi":55,"time":51.096672,"velocity":0.3937007874015748},{"duration":0.19354799999999983,"midi":59,"time":51.483768,"velocity":0.3937007874015748},{"duration":0.19354799999999983,"midi":55,"time":51.483768,"velocity":0.3937007874015748},{"duration":0.19354799999999983,"midi":64,"time":51.483768,"velocity":0.3937007874015748},{"duration":0.19354799999999983,"midi":52,"time":51.483768,"velocity":0.3937007874015748},{"duration":0.19354799999999983,"midi":40,"time":51.483768,"velocity":0.3937007874015748},{"duration":0.19354799999999983,"midi":47,"time":51.483768,"velocity":0.3937007874015748},{"duration":0.38709599999999966,"midi":64,"time":51.677316,"velocity":0.3937007874015748},{"duration":0.38709599999999966,"midi":59,"time":51.677316,"velocity":0.3937007874015748},{"duration":0.38709599999999966,"midi":52,"time":51.677316,"velocity":0.3937007874015748},{"duration":0.38709599999999966,"midi":40,"time":51.677316,"velocity":0.3937007874015748},{"duration":0.38709599999999966,"midi":47,"time":51.677316,"velocity":0.3937007874015748},{"duration":0.38709599999999966,"midi":55,"time":51.677316,"velocity":0.3937007874015748},{"duration":0.19354799999999983,"midi":55,"time":52.064412,"velocity":0.3937007874015748},{"duration":0.19354799999999983,"midi":59,"time":52.064412,"velocity":0.3937007874015748},{"duration":0.19354799999999983,"midi":52,"time":52.064412,"velocity":0.3937007874015748},{"duration":0.19354799999999983,"midi":64,"time":52.064412,"velocity":0.3937007874015748},{"duration":0.19354799999999983,"midi":40,"time":52.064412,"velocity":0.3937007874015748},{"duration":0.19354799999999983,"midi":47,"time":52.064412,"velocity":0.3937007874015748},{"duration":0.19354799999999983,"midi":55,"time":52.25796,"velocity":0.3937007874015748},{"duration":0.19354799999999983,"midi":47,"time":52.25796,"velocity":0.3937007874015748},{"duration":0.19354799999999983,"midi":59,"time":52.25796,"velocity":0.3937007874015748},{"duration":0.19354799999999983,"midi":64,"time":52.25796,"velocity":0.3937007874015748},{"duration":0.19354799999999983,"midi":40,"time":52.25796,"velocity":0.3937007874015748},{"duration":0.19354799999999983,"midi":52,"time":52.25796,"velocity":0.3937007874015748},{"duration":0.19354799999999983,"midi":40,"time":52.451508,"velocity":0.3937007874015748},{"duration":0.19354799999999983,"midi":47,"time":52.451508,"velocity":0.3937007874015748},{"duration":0.19354799999999983,"midi":52,"time":52.451508,"velocity":0.3937007874015748},{"duration":0.19354799999999983,"midi":55,"time":52.451508,"velocity":0.3937007874015748},{"duration":0.19354799999999983,"midi":59,"time":52.451508,"velocity":0.3937007874015748},{"duration":0.19354799999999983,"midi":64,"time":52.451508,"velocity":0.3937007874015748},{"duration":0.38709599999999966,"midi":59,"time":52.645056,"velocity":0.3937007874015748},{"duration":0.38709599999999966,"midi":55,"time":52.645056,"velocity":0.3937007874015748},{"duration":0.38709599999999966,"midi":43,"time":52.645056,"velocity":0.3937007874015748},{"duration":0.38709599999999966,"midi":50,"time":52.645056,"velocity":0.3937007874015748},{"duration":0.38709599999999966,"midi":67,"time":52.645056,"velocity":0.3937007874015748},{"duration":0.38709599999999966,"midi":47,"time":52.645056,"velocity":0.3937007874015748},{"duration":0.19354799999999983,"midi":50,"time":53.032151999999996,"velocity":0.3937007874015748},{"duration":0.19354799999999983,"midi":47,"time":53.032151999999996,"velocity":0.3937007874015748},{"duration":0.19354799999999983,"midi":55,"time":53.032151999999996,"velocity":0.3937007874015748},{"duration":0.19354799999999983,"midi":43,"time":53.032151999999996,"velocity":0.3937007874015748},{"duration":0.19354799999999983,"midi":59,"time":53.032151999999996,"velocity":0.3937007874015748},{"duration":0.19354799999999983,"midi":67,"time":53.032151999999996,"velocity":0.3937007874015748},{"duration":0.38709599999999966,"midi":67,"time":53.225699999999996,"velocity":0.3937007874015748},{"duration":0.38709599999999966,"midi":59,"time":53.225699999999996,"velocity":0.3937007874015748},{"duration":0.38709599999999966,"midi":43,"time":53.225699999999996,"velocity":0.3937007874015748},{"duration":0.38709599999999966,"midi":47,"time":53.225699999999996,"velocity":0.3937007874015748},{"duration":0.38709599999999966,"midi":50,"time":53.225699999999996,"velocity":0.3937007874015748},{"duration":0.38709599999999966,"midi":55,"time":53.225699999999996,"velocity":0.3937007874015748},{"duration":0.19354800000000694,"midi":59,"time":53.612795999999996,"velocity":0.3937007874015748},{"duration":0.19354800000000694,"midi":55,"time":53.612795999999996,"velocity":0.3937007874015748},{"duration":0.19354800000000694,"midi":47,"time":53.612795999999996,"velocity":0.3937007874015748},{"duration":0.19354800000000694,"midi":50,"time":53.612795999999996,"velocity":0.3937007874015748},{"duration":0.19354800000000694,"midi":43,"time":53.612795999999996,"velocity":0.3937007874015748},{"duration":0.19354800000000694,"midi":67,"time":53.612795999999996,"velocity":0.3937007874015748},{"duration":0.19354799999999983,"midi":67,"time":53.806344,"velocity":0.3937007874015748},{"duration":0.19354799999999983,"midi":47,"time":53.806344,"velocity":0.3937007874015748},{"duration":0.19354799999999983,"midi":50,"time":53.806344,"velocity":0.3937007874015748},{"duration":0.19354799999999983,"midi":43,"time":53.806344,"velocity":0.3937007874015748},{"duration":0.19354799999999983,"midi":55,"time":53.806344,"velocity":0.3937007874015748},{"duration":0.19354799999999983,"midi":59,"time":53.806344,"velocity":0.3937007874015748},{"duration":0.19354799999999983,"midi":43,"time":53.999892,"velocity":0.3937007874015748},{"duration":0.19354799999999983,"midi":47,"time":53.999892,"velocity":0.3937007874015748},{"duration":0.19354799999999983,"midi":59,"time":53.999892,"velocity":0.3937007874015748},{"duration":0.19354799999999983,"midi":50,"time":53.999892,"velocity":0.3937007874015748},{"duration":0.19354799999999983,"midi":55,"time":53.999892,"velocity":0.3937007874015748},{"duration":0.19354799999999983,"midi":67,"time":53.999892,"velocity":0.3937007874015748},{"duration":0.38709599999999966,"midi":52,"time":54.19344,"velocity":0.3937007874015748},{"duration":0.38709599999999966,"midi":64,"time":54.19344,"velocity":0.3937007874015748},{"duration":0.38709599999999966,"midi":55,"time":54.19344,"velocity":0.3937007874015748},{"duration":0.38709599999999966,"midi":48,"time":54.19344,"velocity":0.3937007874015748},{"duration":0.38709599999999966,"midi":60,"time":54.19344,"velocity":0.3937007874015748},{"duration":0.19354799999999983,"midi":55,"time":54.580536,"velocity":0.3937007874015748},{"duration":0.19354799999999983,"midi":48,"time":54.580536,"velocity":0.3937007874015748},{"duration":0.19354799999999983,"midi":60,"time":54.580536,"velocity":0.3937007874015748},{"duration":0.19354799999999983,"midi":64,"time":54.580536,"velocity":0.3937007874015748},{"duration":0.19354799999999983,"midi":52,"time":54.580536,"velocity":0.3937007874015748},{"duration":0.38709599999999966,"midi":48,"time":54.774084,"velocity":0.3937007874015748},{"duration":0.38709599999999966,"midi":60,"time":54.774084,"velocity":0.3937007874015748},{"duration":0.38709599999999966,"midi":52,"time":54.774084,"velocity":0.3937007874015748},{"duration":0.38709599999999966,"midi":55,"time":54.774084,"velocity":0.3937007874015748},{"duration":0.38709599999999966,"midi":64,"time":54.774084,"velocity":0.3937007874015748},{"duration":0.19354799999999983,"midi":48,"time":55.16118,"velocity":0.3937007874015748},{"duration":0.19354799999999983,"midi":52,"time":55.16118,"velocity":0.3937007874015748},{"duration":0.19354799999999983,"midi":55,"time":55.16118,"velocity":0.3937007874015748},{"duration":0.19354799999999983,"midi":60,"time":55.16118,"velocity":0.3937007874015748},{"duration":0.19354799999999983,"midi":64,"time":55.16118,"velocity":0.3937007874015748},{"duration":0.19354799999999983,"midi":64,"time":55.354728,"velocity":0.3937007874015748},{"duration":0.19354799999999983,"midi":60,"time":55.354728,"velocity":0.3937007874015748},{"duration":0.19354799999999983,"midi":52,"time":55.354728,"velocity":0.3937007874015748},{"duration":0.19354799999999983,"midi":48,"time":55.354728,"velocity":0.3937007874015748},{"duration":0.19354799999999983,"midi":55,"time":55.354728,"velocity":0.3937007874015748},{"duration":0.19354799999999983,"midi":55,"time":55.548276,"velocity":0.3937007874015748},{"duration":0.19354799999999983,"midi":64,"time":55.548276,"velocity":0.3937007874015748},{"duration":0.19354799999999983,"midi":48,"time":55.548276,"velocity":0.3937007874015748},{"duration":0.19354799999999983,"midi":52,"time":55.548276,"velocity":0.3937007874015748},{"duration":0.19354799999999983,"midi":60,"time":55.548276,"velocity":0.3937007874015748},{"duration":0.38709599999999966,"midi":64,"time":55.741824,"velocity":0.3937007874015748},{"duration":0.38709599999999966,"midi":60,"time":55.741824,"velocity":0.3937007874015748},{"duration":0.38709599999999966,"midi":55,"time":55.741824,"velocity":0.3937007874015748},{"duration":0.38709599999999966,"midi":48,"time":55.741824,"velocity":0.3937007874015748},{"duration":0.38709599999999966,"midi":52,"time":55.741824,"velocity":0.3937007874015748},{"duration":0.19354799999999983,"midi":64,"time":56.12892,"velocity":0.3937007874015748},{"duration":0.19354799999999983,"midi":60,"time":56.12892,"velocity":0.3937007874015748},{"duration":0.19354799999999983,"midi":55,"time":56.12892,"velocity":0.3937007874015748},{"duration":0.19354799999999983,"midi":48,"time":56.12892,"velocity":0.3937007874015748},{"duration":0.19354799999999983,"midi":52,"time":56.12892,"velocity":0.3937007874015748},{"duration":0.38709599999999966,"midi":52,"time":56.322468,"velocity":0.3937007874015748},{"duration":0.38709599999999966,"midi":55,"time":56.322468,"velocity":0.3937007874015748},{"duration":0.38709599999999966,"midi":64,"time":56.322468,"velocity":0.3937007874015748},{"duration":0.38709599999999966,"midi":60,"time":56.322468,"velocity":0.3937007874015748},{"duration":0.38709599999999966,"midi":48,"time":56.322468,"velocity":0.3937007874015748},{"duration":0.19354799999999983,"midi":60,"time":56.709564,"velocity":0.3937007874015748},{"duration":0.19354799999999983,"midi":64,"time":56.709564,"velocity":0.3937007874015748},{"duration":0.19354799999999983,"midi":52,"time":56.709564,"velocity":0.3937007874015748},{"duration":0.19354799999999983,"midi":48,"time":56.709564,"velocity":0.3937007874015748},{"duration":0.19354799999999983,"midi":55,"time":56.709564,"velocity":0.3937007874015748},{"duration":0.19354799999999983,"midi":48,"time":56.903112,"velocity":0.3937007874015748},{"duration":0.19354799999999983,"midi":55,"time":56.903112,"velocity":0.3937007874015748},{"duration":0.19354799999999983,"midi":64,"time":56.903112,"velocity":0.3937007874015748},{"duration":0.19354799999999983,"midi":60,"time":56.903112,"velocity":0.3937007874015748},{"duration":0.19354799999999983,"midi":52,"time":56.903112,"velocity":0.3937007874015748},{"duration":0.19354799999999983,"midi":48,"time":57.09666,"velocity":0.3937007874015748},{"duration":0.19354799999999983,"midi":55,"time":57.09666,"velocity":0.3937007874015748},{"duration":0.19354799999999983,"midi":60,"time":57.09666,"velocity":0.3937007874015748},{"duration":0.19354799999999983,"midi":52,"time":57.09666,"velocity":0.3937007874015748},{"duration":0.19354799999999983,"midi":64,"time":57.09666,"velocity":0.3937007874015748},{"duration":0.38709599999999966,"midi":57,"time":57.290208,"velocity":0.3937007874015748},{"duration":0.38709599999999966,"midi":50,"time":57.290208,"velocity":0.3937007874015748},{"duration":0.38709599999999966,"midi":62,"time":57.290208,"velocity":0.3937007874015748},{"duration":0.38709599999999966,"midi":66,"time":57.290208,"velocity":0.3937007874015748},{"duration":0.38709599999999966,"midi":50,"time":57.677304,"velocity":0.3937007874015748},{"duration":0.38709599999999966,"midi":57,"time":57.677304,"velocity":0.3937007874015748},{"duration":0.38709599999999966,"midi":62,"time":57.677304,"velocity":0.3937007874015748},{"duration":0.38709599999999966,"midi":66,"time":57.677304,"velocity":0.3937007874015748},{"duration":0.38709599999999966,"midi":64,"time":58.0644,"velocity":0.3937007874015748},{"duration":0.38709599999999966,"midi":52,"time":58.0644,"velocity":0.3937007874015748},{"duration":0.38709599999999966,"midi":40,"time":58.0644,"velocity":0.3937007874015748},{"duration":0.38709599999999966,"midi":55,"time":58.0644,"velocity":0.3937007874015748},{"duration":0.38709599999999966,"midi":47,"time":58.0644,"velocity":0.3937007874015748},{"duration":0.38709599999999966,"midi":59,"time":58.0644,"velocity":0.3937007874015748},{"duration":0.19354799999999983,"midi":55,"time":58.451496,"velocity":0.3937007874015748},{"duration":0.19354799999999983,"midi":40,"time":58.451496,"velocity":0.3937007874015748},{"duration":0.19354799999999983,"midi":47,"time":58.451496,"velocity":0.3937007874015748},{"duration":0.19354799999999983,"midi":52,"time":58.451496,"velocity":0.3937007874015748},{"duration":0.19354799999999983,"midi":64,"time":58.451496,"velocity":0.3937007874015748},{"duration":0.19354799999999983,"midi":59,"time":58.451496,"velocity":0.3937007874015748},{"duration":0.38709599999999966,"midi":64,"time":58.645044,"velocity":0.3937007874015748},{"duration":0.38709599999999966,"midi":47,"time":58.645044,"velocity":0.3937007874015748},{"duration":0.38709599999999966,"midi":55,"time":58.645044,"velocity":0.3937007874015748},{"duration":0.38709599999999966,"midi":52,"time":58.645044,"velocity":0.3937007874015748},{"duration":0.38709599999999966,"midi":59,"time":58.645044,"velocity":0.3937007874015748},{"duration":0.38709599999999966,"midi":40,"time":58.645044,"velocity":0.3937007874015748},{"duration":0.19354799999999983,"midi":52,"time":59.03214,"velocity":0.3937007874015748},{"duration":0.19354799999999983,"midi":55,"time":59.03214,"velocity":0.3937007874015748},{"duration":0.19354799999999983,"midi":59,"time":59.03214,"velocity":0.3937007874015748},{"duration":0.19354799999999983,"midi":47,"time":59.03214,"velocity":0.3937007874015748},{"duration":0.19354799999999983,"midi":40,"time":59.03214,"velocity":0.3937007874015748},{"duration":0.19354799999999983,"midi":64,"time":59.03214,"velocity":0.3937007874015748},{"duration":0.19354799999999983,"midi":59,"time":59.225688,"velocity":0.3937007874015748},{"duration":0.19354799999999983,"midi":55,"time":59.225688,"velocity":0.3937007874015748},{"duration":0.19354799999999983,"midi":40,"time":59.225688,"velocity":0.3937007874015748},{"duration":0.19354799999999983,"midi":47,"time":59.225688,"velocity":0.3937007874015748},{"duration":0.19354799999999983,"midi":64,"time":59.225688,"velocity":0.3937007874015748},{"duration":0.19354799999999983,"midi":52,"time":59.225688,"velocity":0.3937007874015748},{"duration":0.19354799999999983,"midi":52,"time":59.419236,"velocity":0.3937007874015748},{"duration":0.19354799999999983,"midi":55,"time":59.419236,"velocity":0.3937007874015748},{"duration":0.19354799999999983,"midi":40,"time":59.419236,"velocity":0.3937007874015748},{"duration":0.19354799999999983,"midi":59,"time":59.419236,"velocity":0.3937007874015748},{"duration":0.19354799999999983,"midi":64,"time":59.419236,"velocity":0.3937007874015748},{"duration":0.19354799999999983,"midi":47,"time":59.419236,"velocity":0.3937007874015748},{"duration":0.38709599999999966,"midi":47,"time":59.612784,"velocity":0.3937007874015748},{"duration":0.38709599999999966,"midi":52,"time":59.612784,"velocity":0.3937007874015748},{"duration":0.38709599999999966,"midi":55,"time":59.612784,"velocity":0.3937007874015748},{"duration":0.38709599999999966,"midi":64,"time":59.612784,"velocity":0.3937007874015748},{"duration":0.38709599999999966,"midi":59,"time":59.612784,"velocity":0.3937007874015748},{"duration":0.38709599999999966,"midi":40,"time":59.612784,"velocity":0.3937007874015748},{"duration":0.19354799999999983,"midi":47,"time":59.99988,"velocity":0.3937007874015748},{"duration":0.19354799999999983,"midi":64,"time":59.99988,"velocity":0.3937007874015748},{"duration":0.19354799999999983,"midi":40,"time":59.99988,"velocity":0.3937007874015748},{"duration":0.19354799999999983,"midi":55,"time":59.99988,"velocity":0.3937007874015748},{"duration":0.19354799999999983,"midi":52,"time":59.99988,"velocity":0.3937007874015748},{"duration":0.19354799999999983,"midi":59,"time":59.99988,"velocity":0.3937007874015748},{"duration":0.38709599999999966,"midi":40,"time":60.193428,"velocity":0.3937007874015748},{"duration":0.38709599999999966,"midi":52,"time":60.193428,"velocity":0.3937007874015748},{"duration":0.38709599999999966,"midi":47,"time":60.193428,"velocity":0.3937007874015748},{"duration":0.38709599999999966,"midi":55,"time":60.193428,"velocity":0.3937007874015748},{"duration":0.38709599999999966,"midi":59,"time":60.193428,"velocity":0.3937007874015748},{"duration":0.38709599999999966,"midi":64,"time":60.193428,"velocity":0.3937007874015748},{"duration":0.19354799999999983,"midi":64,"time":60.580524,"velocity":0.3937007874015748},{"duration":0.19354799999999983,"midi":52,"time":60.580524,"velocity":0.3937007874015748},{"duration":0.19354799999999983,"midi":47,"time":60.580524,"velocity":0.3937007874015748},{"duration":0.19354799999999983,"midi":55,"time":60.580524,"velocity":0.3937007874015748},{"duration":0.19354799999999983,"midi":59,"time":60.580524,"velocity":0.3937007874015748},{"duration":0.19354799999999983,"midi":40,"time":60.580524,"velocity":0.3937007874015748},{"duration":0.19354799999999983,"midi":64,"time":60.774072,"velocity":0.3937007874015748},{"duration":0.19354799999999983,"midi":59,"time":60.774072,"velocity":0.3937007874015748},{"duration":0.19354799999999983,"midi":47,"time":60.774072,"velocity":0.3937007874015748},{"duration":0.19354799999999983,"midi":55,"time":60.774072,"velocity":0.3937007874015748},{"duration":0.19354799999999983,"midi":52,"time":60.774072,"velocity":0.3937007874015748},{"duration":0.19354799999999983,"midi":40,"time":60.774072,"velocity":0.3937007874015748},{"duration":0.19354799999999983,"midi":47,"time":60.96762,"velocity":0.3937007874015748},{"duration":0.19354799999999983,"midi":52,"time":60.96762,"velocity":0.3937007874015748},{"duration":0.19354799999999983,"midi":64,"time":60.96762,"velocity":0.3937007874015748},{"duration":0.19354799999999983,"midi":55,"time":60.96762,"velocity":0.3937007874015748},{"duration":0.19354799999999983,"midi":59,"time":60.96762,"velocity":0.3937007874015748},{"duration":0.19354799999999983,"midi":40,"time":60.96762,"velocity":0.3937007874015748},{"duration":0.38709599999999966,"midi":43,"time":61.161167999999996,"velocity":0.3937007874015748},{"duration":0.38709599999999966,"midi":50,"time":61.161167999999996,"velocity":0.3937007874015748},{"duration":0.38709599999999966,"midi":55,"time":61.161167999999996,"velocity":0.3937007874015748},{"duration":0.38709599999999966,"midi":59,"time":61.161167999999996,"velocity":0.3937007874015748},{"duration":0.38709599999999966,"midi":47,"time":61.161167999999996,"velocity":0.3937007874015748},{"duration":0.38709599999999966,"midi":67,"time":61.161167999999996,"velocity":0.3937007874015748},{"duration":0.19354799999999983,"midi":59,"time":61.548263999999996,"velocity":0.3937007874015748},{"duration":0.19354799999999983,"midi":55,"time":61.548263999999996,"velocity":0.3937007874015748},{"duration":0.19354799999999983,"midi":67,"time":61.548263999999996,"velocity":0.3937007874015748},{"duration":0.19354799999999983,"midi":50,"time":61.548263999999996,"velocity":0.3937007874015748},{"duration":0.19354799999999983,"midi":43,"time":61.548263999999996,"velocity":0.3937007874015748},{"duration":0.19354799999999983,"midi":47,"time":61.548263999999996,"velocity":0.3937007874015748},{"duration":0.38709600000000677,"midi":67,"time":61.741811999999996,"velocity":0.3937007874015748},{"duration":0.38709600000000677,"midi":47,"time":61.741811999999996,"velocity":0.3937007874015748},{"duration":0.38709600000000677,"midi":50,"time":61.741811999999996,"velocity":0.3937007874015748},{"duration":0.38709600000000677,"midi":55,"time":61.741811999999996,"velocity":0.3937007874015748},{"duration":0.38709600000000677,"midi":59,"time":61.741811999999996,"velocity":0.3937007874015748},{"duration":0.38709600000000677,"midi":43,"time":61.741811999999996,"velocity":0.3937007874015748},{"duration":0.19354799999999983,"midi":50,"time":62.128908,"velocity":0.3937007874015748},{"duration":0.19354799999999983,"midi":47,"time":62.128908,"velocity":0.3937007874015748},{"duration":0.19354799999999983,"midi":55,"time":62.128908,"velocity":0.3937007874015748},{"duration":0.19354799999999983,"midi":43,"time":62.128908,"velocity":0.3937007874015748},{"duration":0.19354799999999983,"midi":59,"time":62.128908,"velocity":0.3937007874015748},{"duration":0.19354799999999983,"midi":67,"time":62.128908,"velocity":0.3937007874015748},{"duration":0.19354799999999983,"midi":59,"time":62.322456,"velocity":0.3937007874015748},{"duration":0.19354799999999983,"midi":47,"time":62.322456,"velocity":0.3937007874015748},{"duration":0.19354799999999983,"midi":55,"time":62.322456,"velocity":0.3937007874015748},{"duration":0.19354799999999983,"midi":43,"time":62.322456,"velocity":0.3937007874015748},{"duration":0.19354799999999983,"midi":67,"time":62.322456,"velocity":0.3937007874015748},{"duration":0.19354799999999983,"midi":50,"time":62.322456,"velocity":0.3937007874015748},{"duration":0.19354799999999983,"midi":67,"time":62.516004,"velocity":0.3937007874015748},{"duration":0.19354799999999983,"midi":59,"time":62.516004,"velocity":0.3937007874015748},{"duration":0.19354799999999983,"midi":43,"time":62.516004,"velocity":0.3937007874015748},{"duration":0.19354799999999983,"midi":47,"time":62.516004,"velocity":0.3937007874015748},{"duration":0.19354799999999983,"midi":55,"time":62.516004,"velocity":0.3937007874015748},{"duration":0.19354799999999983,"midi":50,"time":62.516004,"velocity":0.3937007874015748},{"duration":0.38709599999999966,"midi":52,"time":62.709552,"velocity":0.3937007874015748},{"duration":0.38709599999999966,"midi":64,"time":62.709552,"velocity":0.3937007874015748},{"duration":0.38709599999999966,"midi":55,"time":62.709552,"velocity":0.3937007874015748},{"duration":0.38709599999999966,"midi":60,"time":62.709552,"velocity":0.3937007874015748},{"duration":0.38709599999999966,"midi":48,"time":62.709552,"velocity":0.3937007874015748},{"duration":0.19354799999999983,"midi":48,"time":63.096648,"velocity":0.3937007874015748},{"duration":0.19354799999999983,"midi":52,"time":63.096648,"velocity":0.3937007874015748},{"duration":0.19354799999999983,"midi":55,"time":63.096648,"velocity":0.3937007874015748},{"duration":0.19354799999999983,"midi":60,"time":63.096648,"velocity":0.3937007874015748},{"duration":0.19354799999999983,"midi":64,"time":63.096648,"velocity":0.3937007874015748},{"duration":0.38709599999999966,"midi":60,"time":63.290196,"velocity":0.3937007874015748},{"duration":0.38709599999999966,"midi":52,"time":63.290196,"velocity":0.3937007874015748},{"duration":0.38709599999999966,"midi":55,"time":63.290196,"velocity":0.3937007874015748},{"duration":0.38709599999999966,"midi":48,"time":63.290196,"velocity":0.3937007874015748},{"duration":0.38709599999999966,"midi":64,"time":63.290196,"velocity":0.3937007874015748},{"duration":0.19354799999999983,"midi":48,"time":63.677292,"velocity":0.3937007874015748},{"duration":0.19354799999999983,"midi":55,"time":63.677292,"velocity":0.3937007874015748},{"duration":0.19354799999999983,"midi":60,"time":63.677292,"velocity":0.3937007874015748},{"duration":0.19354799999999983,"midi":64,"time":63.677292,"velocity":0.3937007874015748},{"duration":0.19354799999999983,"midi":52,"time":63.677292,"velocity":0.3937007874015748},{"duration":0.19354799999999273,"midi":48,"time":63.87084,"velocity":0.3937007874015748},{"duration":0.19354799999999273,"midi":55,"time":63.87084,"velocity":0.3937007874015748},{"duration":0.19354799999999273,"midi":60,"time":63.87084,"velocity":0.3937007874015748},{"duration":0.19354799999999273,"midi":64,"time":63.87084,"velocity":0.3937007874015748},{"duration":0.19354799999999273,"midi":52,"time":63.87084,"velocity":0.3937007874015748},{"duration":0.19354800000000694,"midi":60,"time":64.064388,"velocity":0.3937007874015748},{"duration":0.19354800000000694,"midi":55,"time":64.064388,"velocity":0.3937007874015748},{"duration":0.19354800000000694,"midi":48,"time":64.064388,"velocity":0.3937007874015748},{"duration":0.19354800000000694,"midi":52,"time":64.064388,"velocity":0.3937007874015748},{"duration":0.19354800000000694,"midi":64,"time":64.064388,"velocity":0.3937007874015748},{"duration":0.38709599999999966,"midi":52,"time":64.257936,"velocity":0.3937007874015748},{"duration":0.38709599999999966,"midi":55,"time":64.257936,"velocity":0.3937007874015748},{"duration":0.38709599999999966,"midi":48,"time":64.257936,"velocity":0.3937007874015748},{"duration":0.38709599999999966,"midi":60,"time":64.257936,"velocity":0.3937007874015748},{"duration":0.38709599999999966,"midi":64,"time":64.257936,"velocity":0.3937007874015748},{"duration":0.19354799999999273,"midi":64,"time":64.645032,"velocity":0.3937007874015748},{"duration":0.19354799999999273,"midi":60,"time":64.645032,"velocity":0.3937007874015748},{"duration":0.19354799999999273,"midi":52,"time":64.645032,"velocity":0.3937007874015748},{"duration":0.19354799999999273,"midi":48,"time":64.645032,"velocity":0.3937007874015748},{"duration":0.19354799999999273,"midi":55,"time":64.645032,"velocity":0.3937007874015748},{"duration":0.38709599999999966,"midi":64,"time":64.83858,"velocity":0.3937007874015748},{"duration":0.38709599999999966,"midi":52,"time":64.83858,"velocity":0.3937007874015748},{"duration":0.38709599999999966,"midi":55,"time":64.83858,"velocity":0.3937007874015748},{"duration":0.38709599999999966,"midi":60,"time":64.83858,"velocity":0.3937007874015748},{"duration":0.38709599999999966,"midi":48,"time":64.83858,"velocity":0.3937007874015748},{"duration":0.19354800000000694,"midi":48,"time":65.22567599999999,"velocity":0.3937007874015748},{"duration":0.19354800000000694,"midi":55,"time":65.22567599999999,"velocity":0.3937007874015748},{"duration":0.19354800000000694,"midi":60,"time":65.22567599999999,"velocity":0.3937007874015748},{"duration":0.19354800000000694,"midi":52,"time":65.22567599999999,"velocity":0.3937007874015748},{"duration":0.19354800000000694,"midi":64,"time":65.22567599999999,"velocity":0.3937007874015748},{"duration":0.19354799999999273,"midi":64,"time":65.419224,"velocity":0.3937007874015748},{"duration":0.19354799999999273,"midi":60,"time":65.419224,"velocity":0.3937007874015748},{"duration":0.19354799999999273,"midi":52,"time":65.419224,"velocity":0.3937007874015748},{"duration":0.19354799999999273,"midi":48,"time":65.419224,"velocity":0.3937007874015748},{"duration":0.19354799999999273,"midi":55,"time":65.419224,"velocity":0.3937007874015748},{"duration":0.19354800000000694,"midi":55,"time":65.61277199999999,"velocity":0.3937007874015748},{"duration":0.19354800000000694,"midi":52,"time":65.61277199999999,"velocity":0.3937007874015748},{"duration":0.19354800000000694,"midi":48,"time":65.61277199999999,"velocity":0.3937007874015748},{"duration":0.19354800000000694,"midi":64,"time":65.61277199999999,"velocity":0.3937007874015748},{"duration":0.19354800000000694,"midi":60,"time":65.61277199999999,"velocity":0.3937007874015748},{"duration":0.38709599999999966,"midi":50,"time":65.80632,"velocity":0.3937007874015748},{"duration":0.38709599999999966,"midi":62,"time":65.80632,"velocity":0.3937007874015748},{"duration":0.38709599999999966,"midi":66,"time":65.80632,"velocity":0.3937007874015748},{"duration":0.38709599999999966,"midi":57,"time":65.80632,"velocity":0.3937007874015748},{"duration":0.38709599999999966,"midi":50,"time":66.193416,"velocity":0.3937007874015748},{"duration":0.38709599999999966,"midi":62,"time":66.193416,"velocity":0.3937007874015748},{"duration":0.38709599999999966,"midi":66,"time":66.193416,"velocity":0.3937007874015748},{"duration":0.38709599999999966,"midi":57,"time":66.193416,"velocity":0.3937007874015748},{"duration":0.38709599999999966,"midi":64,"time":66.580512,"velocity":0.3937007874015748},{"duration":0.38709599999999966,"midi":59,"time":66.580512,"velocity":0.3937007874015748},{"duration":0.38709599999999966,"midi":52,"time":66.580512,"velocity":0.3937007874015748},{"duration":0.38709599999999966,"midi":55,"time":66.580512,"velocity":0.3937007874015748},{"duration":0.38709599999999966,"midi":47,"time":66.580512,"velocity":0.3937007874015748},{"duration":0.38709599999999966,"midi":40,"time":66.580512,"velocity":0.3937007874015748},{"duration":0.19354800000000694,"midi":55,"time":66.967608,"velocity":0.3937007874015748},{"duration":0.19354800000000694,"midi":47,"time":66.967608,"velocity":0.3937007874015748},{"duration":0.19354800000000694,"midi":59,"time":66.967608,"velocity":0.3937007874015748},{"duration":0.19354800000000694,"midi":52,"time":66.967608,"velocity":0.3937007874015748},{"duration":0.19354800000000694,"midi":40,"time":66.967608,"velocity":0.3937007874015748},{"duration":0.19354800000000694,"midi":64,"time":66.967608,"velocity":0.3937007874015748},{"duration":0.38709599999999966,"midi":64,"time":67.161156,"velocity":0.3937007874015748},{"duration":0.38709599999999966,"midi":52,"time":67.161156,"velocity":0.3937007874015748},{"duration":0.38709599999999966,"midi":40,"time":67.161156,"velocity":0.3937007874015748},{"duration":0.38709599999999966,"midi":55,"time":67.161156,"velocity":0.3937007874015748},{"duration":0.38709599999999966,"midi":47,"time":67.161156,"velocity":0.3937007874015748},{"duration":0.38709599999999966,"midi":59,"time":67.161156,"velocity":0.3937007874015748},{"duration":0.19354799999999273,"midi":59,"time":67.548252,"velocity":0.3937007874015748},{"duration":0.19354799999999273,"midi":64,"time":67.548252,"velocity":0.3937007874015748},{"duration":0.19354799999999273,"midi":40,"time":67.548252,"velocity":0.3937007874015748},{"duration":0.19354799999999273,"midi":47,"time":67.548252,"velocity":0.3937007874015748},{"duration":0.19354799999999273,"midi":52,"time":67.548252,"velocity":0.3937007874015748},{"duration":0.19354799999999273,"midi":55,"time":67.548252,"velocity":0.3937007874015748},{"duration":0.19354800000000694,"midi":64,"time":67.7418,"velocity":0.3937007874015748},{"duration":0.19354800000000694,"midi":47,"time":67.7418,"velocity":0.3937007874015748},{"duration":0.19354800000000694,"midi":55,"time":67.7418,"velocity":0.3937007874015748},{"duration":0.19354800000000694,"midi":52,"time":67.7418,"velocity":0.3937007874015748},{"duration":0.19354800000000694,"midi":59,"time":67.7418,"velocity":0.3937007874015748},{"duration":0.19354800000000694,"midi":40,"time":67.7418,"velocity":0.3937007874015748},{"duration":0.19354799999999273,"midi":52,"time":67.935348,"velocity":0.3937007874015748},{"duration":0.19354799999999273,"midi":55,"time":67.935348,"velocity":0.3937007874015748},{"duration":0.19354799999999273,"midi":59,"time":67.935348,"velocity":0.3937007874015748},{"duration":0.19354799999999273,"midi":47,"time":67.935348,"velocity":0.3937007874015748},{"duration":0.19354799999999273,"midi":40,"time":67.935348,"velocity":0.3937007874015748},{"duration":0.19354799999999273,"midi":64,"time":67.935348,"velocity":0.3937007874015748},{"duration":0.38709599999999966,"midi":59,"time":68.128896,"velocity":0.3937007874015748},{"duration":0.38709599999999966,"midi":55,"time":68.128896,"velocity":0.3937007874015748},{"duration":0.38709599999999966,"midi":40,"time":68.128896,"velocity":0.3937007874015748},{"duration":0.38709599999999966,"midi":47,"time":68.128896,"velocity":0.3937007874015748},{"duration":0.38709599999999966,"midi":64,"time":68.128896,"velocity":0.3937007874015748},{"duration":0.38709599999999966,"midi":52,"time":68.128896,"velocity":0.3937007874015748},{"duration":0.19354800000000694,"midi":52,"time":68.515992,"velocity":0.3937007874015748},{"duration":0.19354800000000694,"midi":55,"time":68.515992,"velocity":0.3937007874015748},{"duration":0.19354800000000694,"midi":40,"time":68.515992,"velocity":0.3937007874015748},{"duration":0.19354800000000694,"midi":59,"time":68.515992,"velocity":0.3937007874015748},{"duration":0.19354800000000694,"midi":64,"time":68.515992,"velocity":0.3937007874015748},{"duration":0.19354800000000694,"midi":47,"time":68.515992,"velocity":0.3937007874015748},{"duration":0.38709599999999966,"midi":47,"time":68.70954,"velocity":0.3937007874015748},{"duration":0.38709599999999966,"midi":52,"time":68.70954,"velocity":0.3937007874015748},{"duration":0.38709599999999966,"midi":40,"time":68.70954,"velocity":0.3937007874015748},{"duration":0.38709599999999966,"midi":55,"time":68.70954,"velocity":0.3937007874015748},{"duration":0.38709599999999966,"midi":59,"time":68.70954,"velocity":0.3937007874015748},{"duration":0.38709599999999966,"midi":64,"time":68.70954,"velocity":0.3937007874015748},{"duration":0.19354799999999273,"midi":47,"time":69.096636,"velocity":0.3937007874015748},{"duration":0.19354799999999273,"midi":64,"time":69.096636,"velocity":0.3937007874015748},{"duration":0.19354799999999273,"midi":40,"time":69.096636,"velocity":0.3937007874015748},{"duration":0.19354799999999273,"midi":55,"time":69.096636,"velocity":0.3937007874015748},{"duration":0.19354799999999273,"midi":52,"time":69.096636,"velocity":0.3937007874015748},{"duration":0.19354799999999273,"midi":59,"time":69.096636,"velocity":0.3937007874015748},{"duration":0.19354800000000694,"midi":40,"time":69.290184,"velocity":0.3937007874015748},{"duration":0.19354800000000694,"midi":52,"time":69.290184,"velocity":0.3937007874015748},{"duration":0.19354800000000694,"midi":47,"time":69.290184,"velocity":0.3937007874015748},{"duration":0.19354800000000694,"midi":55,"time":69.290184,"velocity":0.3937007874015748},{"duration":0.19354800000000694,"midi":59,"time":69.290184,"velocity":0.3937007874015748},{"duration":0.19354800000000694,"midi":64,"time":69.290184,"velocity":0.3937007874015748},{"duration":0.19354799999999273,"midi":64,"time":69.483732,"velocity":0.3937007874015748},{"duration":0.19354799999999273,"midi":52,"time":69.483732,"velocity":0.3937007874015748},{"duration":0.19354799999999273,"midi":47,"time":69.483732,"velocity":0.3937007874015748},{"duration":0.19354799999999273,"midi":55,"time":69.483732,"velocity":0.3937007874015748},{"duration":0.19354799999999273,"midi":59,"time":69.483732,"velocity":0.3937007874015748},{"duration":0.19354799999999273,"midi":40,"time":69.483732,"velocity":0.3937007874015748},{"duration":0.38709599999999966,"midi":67,"time":69.67728,"velocity":0.3937007874015748},{"duration":0.38709599999999966,"midi":59,"time":69.67728,"velocity":0.3937007874015748},{"duration":0.38709599999999966,"midi":47,"time":69.67728,"velocity":0.3937007874015748},{"duration":0.38709599999999966,"midi":55,"time":69.67728,"velocity":0.3937007874015748},{"duration":0.38709599999999966,"midi":50,"time":69.67728,"velocity":0.3937007874015748},{"duration":0.38709599999999966,"midi":43,"time":69.67728,"velocity":0.3937007874015748},{"duration":0.19354800000000694,"midi":47,"time":70.064376,"velocity":0.3937007874015748},{"duration":0.19354800000000694,"midi":50,"time":70.064376,"velocity":0.3937007874015748},{"duration":0.19354800000000694,"midi":67,"time":70.064376,"velocity":0.3937007874015748},{"duration":0.19354800000000694,"midi":55,"time":70.064376,"velocity":0.3937007874015748},{"duration":0.19354800000000694,"midi":59,"time":70.064376,"velocity":0.3937007874015748},{"duration":0.19354800000000694,"midi":43,"time":70.064376,"velocity":0.3937007874015748},{"duration":0.38709599999999966,"midi":43,"time":70.257924,"velocity":0.3937007874015748},{"duration":0.38709599999999966,"midi":50,"time":70.257924,"velocity":0.3937007874015748},{"duration":0.38709599999999966,"midi":55,"time":70.257924,"velocity":0.3937007874015748},{"duration":0.38709599999999966,"midi":59,"time":70.257924,"velocity":0.3937007874015748},{"duration":0.38709599999999966,"midi":47,"time":70.257924,"velocity":0.3937007874015748},{"duration":0.38709599999999966,"midi":67,"time":70.257924,"velocity":0.3937007874015748},{"duration":0.19354799999999273,"midi":59,"time":70.64502,"velocity":0.3937007874015748},{"duration":0.19354799999999273,"midi":55,"time":70.64502,"velocity":0.3937007874015748},{"duration":0.19354799999999273,"midi":67,"time":70.64502,"velocity":0.3937007874015748},{"duration":0.19354799999999273,"midi":50,"time":70.64502,"velocity":0.3937007874015748},{"duration":0.19354799999999273,"midi":43,"time":70.64502,"velocity":0.3937007874015748},{"duration":0.19354799999999273,"midi":47,"time":70.64502,"velocity":0.3937007874015748},{"duration":0.19354800000000694,"midi":67,"time":70.838568,"velocity":0.3937007874015748},{"duration":0.19354800000000694,"midi":47,"time":70.838568,"velocity":0.3937007874015748},{"duration":0.19354800000000694,"midi":50,"time":70.838568,"velocity":0.3937007874015748},{"duration":0.19354800000000694,"midi":55,"time":70.838568,"velocity":0.3937007874015748},{"duration":0.19354800000000694,"midi":59,"time":70.838568,"velocity":0.3937007874015748},{"duration":0.19354800000000694,"midi":43,"time":70.838568,"velocity":0.3937007874015748},{"duration":0.19354799999999273,"midi":47,"time":71.032116,"velocity":0.3937007874015748},{"duration":0.19354799999999273,"midi":50,"time":71.032116,"velocity":0.3937007874015748},{"duration":0.19354799999999273,"midi":55,"time":71.032116,"velocity":0.3937007874015748},{"duration":0.19354799999999273,"midi":43,"time":71.032116,"velocity":0.3937007874015748},{"duration":0.19354799999999273,"midi":59,"time":71.032116,"velocity":0.3937007874015748},{"duration":0.19354799999999273,"midi":67,"time":71.032116,"velocity":0.3937007874015748},{"duration":0.38709599999999966,"midi":64,"time":71.225664,"velocity":0.3937007874015748},{"duration":0.38709599999999966,"midi":52,"time":71.225664,"velocity":0.3937007874015748},{"duration":0.38709599999999966,"midi":55,"time":71.225664,"velocity":0.3937007874015748},{"duration":0.38709599999999966,"midi":60,"time":71.225664,"velocity":0.3937007874015748},{"duration":0.38709599999999966,"midi":48,"time":71.225664,"velocity":0.3937007874015748},{"duration":0.19354800000000694,"midi":48,"time":71.61276,"velocity":0.3937007874015748},{"duration":0.19354800000000694,"midi":55,"time":71.61276,"velocity":0.3937007874015748},{"duration":0.19354800000000694,"midi":60,"time":71.61276,"velocity":0.3937007874015748},{"duration":0.19354800000000694,"midi":64,"time":71.61276,"velocity":0.3937007874015748},{"duration":0.19354800000000694,"midi":52,"time":71.61276,"velocity":0.3937007874015748},{"duration":0.38709599999999966,"midi":48,"time":71.806308,"velocity":0.3937007874015748},{"duration":0.38709599999999966,"midi":55,"time":71.806308,"velocity":0.3937007874015748},{"duration":0.38709599999999966,"midi":60,"time":71.806308,"velocity":0.3937007874015748},{"duration":0.38709599999999966,"midi":64,"time":71.806308,"velocity":0.3937007874015748},{"duration":0.38709599999999966,"midi":52,"time":71.806308,"velocity":0.3937007874015748},{"duration":0.19354799999999273,"midi":64,"time":72.193404,"velocity":0.3937007874015748},{"duration":0.19354799999999273,"midi":55,"time":72.193404,"velocity":0.3937007874015748},{"duration":0.19354799999999273,"midi":60,"time":72.193404,"velocity":0.3937007874015748},{"duration":0.19354799999999273,"midi":52,"time":72.193404,"velocity":0.3937007874015748},{"duration":0.19354799999999273,"midi":48,"time":72.193404,"velocity":0.3937007874015748},{"duration":0.19354800000000694,"midi":64,"time":72.386952,"velocity":0.3937007874015748},{"duration":0.19354800000000694,"midi":48,"time":72.386952,"velocity":0.3937007874015748},{"duration":0.19354800000000694,"midi":60,"time":72.386952,"velocity":0.3937007874015748},{"duration":0.19354800000000694,"midi":52,"time":72.386952,"velocity":0.3937007874015748},{"duration":0.19354800000000694,"midi":55,"time":72.386952,"velocity":0.3937007874015748},{"duration":0.19354799999999273,"midi":55,"time":72.5805,"velocity":0.3937007874015748},{"duration":0.19354799999999273,"midi":48,"time":72.5805,"velocity":0.3937007874015748},{"duration":0.19354799999999273,"midi":60,"time":72.5805,"velocity":0.3937007874015748},{"duration":0.19354799999999273,"midi":64,"time":72.5805,"velocity":0.3937007874015748},{"duration":0.19354799999999273,"midi":52,"time":72.5805,"velocity":0.3937007874015748},{"duration":0.38709599999999966,"midi":52,"time":72.774048,"velocity":0.3937007874015748},{"duration":0.38709599999999966,"midi":64,"time":72.774048,"velocity":0.3937007874015748},{"duration":0.38709599999999966,"midi":55,"time":72.774048,"velocity":0.3937007874015748},{"duration":0.38709599999999966,"midi":60,"time":72.774048,"velocity":0.3937007874015748},{"duration":0.38709599999999966,"midi":48,"time":72.774048,"velocity":0.3937007874015748},{"duration":0.19354800000000694,"midi":48,"time":73.161144,"velocity":0.3937007874015748},{"duration":0.19354800000000694,"midi":52,"time":73.161144,"velocity":0.3937007874015748},{"duration":0.19354800000000694,"midi":55,"time":73.161144,"velocity":0.3937007874015748},{"duration":0.19354800000000694,"midi":60,"time":73.161144,"velocity":0.3937007874015748},{"duration":0.19354800000000694,"midi":64,"time":73.161144,"velocity":0.3937007874015748},{"duration":0.38709599999999966,"midi":64,"time":73.354692,"velocity":0.3937007874015748},{"duration":0.38709599999999966,"midi":60,"time":73.354692,"velocity":0.3937007874015748},{"duration":0.38709599999999966,"midi":48,"time":73.354692,"velocity":0.3937007874015748},{"duration":0.38709599999999966,"midi":52,"time":73.354692,"velocity":0.3937007874015748},{"duration":0.38709599999999966,"midi":55,"time":73.354692,"velocity":0.3937007874015748},{"duration":0.19354799999999273,"midi":55,"time":73.741788,"velocity":0.3937007874015748},{"duration":0.19354799999999273,"midi":64,"time":73.741788,"velocity":0.3937007874015748},{"duration":0.19354799999999273,"midi":48,"time":73.741788,"velocity":0.3937007874015748},{"duration":0.19354799999999273,"midi":52,"time":73.741788,"velocity":0.3937007874015748},{"duration":0.19354799999999273,"midi":60,"time":73.741788,"velocity":0.3937007874015748},{"duration":0.19354800000000694,"midi":64,"time":73.93533599999999,"velocity":0.3937007874015748},{"duration":0.19354800000000694,"midi":60,"time":73.93533599999999,"velocity":0.3937007874015748},{"duration":0.19354800000000694,"midi":48,"time":73.93533599999999,"velocity":0.3937007874015748},{"duration":0.19354800000000694,"midi":52,"time":73.93533599999999,"velocity":0.3937007874015748},{"duration":0.19354800000000694,"midi":55,"time":73.93533599999999,"velocity":0.3937007874015748},{"duration":0.19354799999999273,"midi":64,"time":74.128884,"velocity":0.3937007874015748},{"duration":0.19354799999999273,"midi":60,"time":74.128884,"velocity":0.3937007874015748},{"duration":0.19354799999999273,"midi":48,"time":74.128884,"velocity":0.3937007874015748},{"duration":0.19354799999999273,"midi":52,"time":74.128884,"velocity":0.3937007874015748},{"duration":0.19354799999999273,"midi":55,"time":74.128884,"velocity":0.3937007874015748},{"duration":0.3870960000000139,"midi":50,"time":74.32243199999999,"velocity":0.3937007874015748},{"duration":0.3870960000000139,"midi":57,"time":74.32243199999999,"velocity":0.3937007874015748},{"duration":0.3870960000000139,"midi":62,"time":74.32243199999999,"velocity":0.3937007874015748},{"duration":0.3870960000000139,"midi":66,"time":74.32243199999999,"velocity":0.3937007874015748},{"duration":0.38709599999999966,"midi":57,"time":74.709528,"velocity":0.3937007874015748},{"duration":0.38709599999999966,"midi":50,"time":74.709528,"velocity":0.3937007874015748},{"duration":0.38709599999999966,"midi":62,"time":74.709528,"velocity":0.3937007874015748},{"duration":0.38709599999999966,"midi":66,"time":74.709528,"velocity":0.3937007874015748},{"duration":0.38709599999999966,"midi":40,"time":75.096624,"velocity":0.3937007874015748},{"duration":0.38709599999999966,"midi":52,"time":75.096624,"velocity":0.3937007874015748},{"duration":0.38709599999999966,"midi":55,"time":75.096624,"velocity":0.3937007874015748},{"duration":0.38709599999999966,"midi":59,"time":75.096624,"velocity":0.3937007874015748},{"duration":0.38709599999999966,"midi":47,"time":75.096624,"velocity":0.3937007874015748},{"duration":0.38709599999999966,"midi":64,"time":75.096624,"velocity":0.3937007874015748},{"duration":0.19354799999999273,"midi":59,"time":75.48372,"velocity":0.3937007874015748},{"duration":0.19354799999999273,"midi":55,"time":75.48372,"velocity":0.3937007874015748},{"duration":0.19354799999999273,"midi":64,"time":75.48372,"velocity":0.3937007874015748},{"duration":0.19354799999999273,"midi":52,"time":75.48372,"velocity":0.3937007874015748},{"duration":0.19354799999999273,"midi":40,"time":75.48372,"velocity":0.3937007874015748},{"duration":0.19354799999999273,"midi":47,"time":75.48372,"velocity":0.3937007874015748},{"duration":0.38709599999999966,"midi":64,"time":75.677268,"velocity":0.3937007874015748},{"duration":0.38709599999999966,"midi":47,"time":75.677268,"velocity":0.3937007874015748},{"duration":0.38709599999999966,"midi":52,"time":75.677268,"velocity":0.3937007874015748},{"duration":0.38709599999999966,"midi":55,"time":75.677268,"velocity":0.3937007874015748},{"duration":0.38709599999999966,"midi":59,"time":75.677268,"velocity":0.3937007874015748},{"duration":0.38709599999999966,"midi":40,"time":75.677268,"velocity":0.3937007874015748},{"duration":0.19354800000000694,"midi":52,"time":76.064364,"velocity":0.3937007874015748},{"duration":0.19354800000000694,"midi":55,"time":76.064364,"velocity":0.3937007874015748},{"duration":0.19354800000000694,"midi":40,"time":76.064364,"velocity":0.3937007874015748},{"duration":0.19354800000000694,"midi":59,"time":76.064364,"velocity":0.3937007874015748},{"duration":0.19354800000000694,"midi":47,"time":76.064364,"velocity":0.3937007874015748},{"duration":0.19354800000000694,"midi":64,"time":76.064364,"velocity":0.3937007874015748},{"duration":0.19354799999999273,"midi":59,"time":76.257912,"velocity":0.3937007874015748},{"duration":0.19354799999999273,"midi":64,"time":76.257912,"velocity":0.3937007874015748},{"duration":0.19354799999999273,"midi":55,"time":76.257912,"velocity":0.3937007874015748},{"duration":0.19354799999999273,"midi":40,"time":76.257912,"velocity":0.3937007874015748},{"duration":0.19354799999999273,"midi":47,"time":76.257912,"velocity":0.3937007874015748},{"duration":0.19354799999999273,"midi":52,"time":76.257912,"velocity":0.3937007874015748},{"duration":0.19354800000000694,"midi":64,"time":76.45146,"velocity":0.3937007874015748},{"duration":0.19354800000000694,"midi":47,"time":76.45146,"velocity":0.3937007874015748},{"duration":0.19354800000000694,"midi":55,"time":76.45146,"velocity":0.3937007874015748},{"duration":0.19354800000000694,"midi":40,"time":76.45146,"velocity":0.3937007874015748},{"duration":0.19354800000000694,"midi":52,"time":76.45146,"velocity":0.3937007874015748},{"duration":0.19354800000000694,"midi":59,"time":76.45146,"velocity":0.3937007874015748},{"duration":0.38709599999999966,"midi":59,"time":76.645008,"velocity":0.3937007874015748},{"duration":0.38709599999999966,"midi":55,"time":76.645008,"velocity":0.3937007874015748},{"duration":0.38709599999999966,"midi":40,"time":76.645008,"velocity":0.3937007874015748},{"duration":0.38709599999999966,"midi":52,"time":76.645008,"velocity":0.3937007874015748},{"duration":0.38709599999999966,"midi":64,"time":76.645008,"velocity":0.3937007874015748},{"duration":0.38709599999999966,"midi":47,"time":76.645008,"velocity":0.3937007874015748},{"duration":0.19354799999999273,"midi":59,"time":77.032104,"velocity":0.3937007874015748},{"duration":0.19354799999999273,"midi":55,"time":77.032104,"velocity":0.3937007874015748},{"duration":0.19354799999999273,"midi":64,"time":77.032104,"velocity":0.3937007874015748},{"duration":0.19354799999999273,"midi":52,"time":77.032104,"velocity":0.3937007874015748},{"duration":0.19354799999999273,"midi":40,"time":77.032104,"velocity":0.3937007874015748},{"duration":0.19354799999999273,"midi":47,"time":77.032104,"velocity":0.3937007874015748},{"duration":0.38709599999999966,"midi":40,"time":77.225652,"velocity":0.3937007874015748},{"duration":0.38709599999999966,"midi":47,"time":77.225652,"velocity":0.3937007874015748},{"duration":0.38709599999999966,"midi":52,"time":77.225652,"velocity":0.3937007874015748},{"duration":0.38709599999999966,"midi":55,"time":77.225652,"velocity":0.3937007874015748},{"duration":0.38709599999999966,"midi":59,"time":77.225652,"velocity":0.3937007874015748},{"duration":0.38709599999999966,"midi":64,"time":77.225652,"velocity":0.3937007874015748},{"duration":0.19354800000000694,"midi":59,"time":77.612748,"velocity":0.3937007874015748},{"duration":0.19354800000000694,"midi":55,"time":77.612748,"velocity":0.3937007874015748},{"duration":0.19354800000000694,"midi":47,"time":77.612748,"velocity":0.3937007874015748},{"duration":0.19354800000000694,"midi":64,"time":77.612748,"velocity":0.3937007874015748},{"duration":0.19354800000000694,"midi":40,"time":77.612748,"velocity":0.3937007874015748},{"duration":0.19354800000000694,"midi":52,"time":77.612748,"velocity":0.3937007874015748},{"duration":0.19354799999999273,"midi":59,"time":77.806296,"velocity":0.3937007874015748},{"duration":0.19354799999999273,"midi":55,"time":77.806296,"velocity":0.3937007874015748},{"duration":0.19354799999999273,"midi":52,"time":77.806296,"velocity":0.3937007874015748},{"duration":0.19354799999999273,"midi":40,"time":77.806296,"velocity":0.3937007874015748},{"duration":0.19354799999999273,"midi":47,"time":77.806296,"velocity":0.3937007874015748},{"duration":0.19354799999999273,"midi":64,"time":77.806296,"velocity":0.3937007874015748},{"duration":0.19354800000000694,"midi":47,"time":77.999844,"velocity":0.3937007874015748},{"duration":0.19354800000000694,"midi":64,"time":77.999844,"velocity":0.3937007874015748},{"duration":0.19354800000000694,"midi":55,"time":77.999844,"velocity":0.3937007874015748},{"duration":0.19354800000000694,"midi":40,"time":77.999844,"velocity":0.3937007874015748},{"duration":0.19354800000000694,"midi":52,"time":77.999844,"velocity":0.3937007874015748},{"duration":0.19354800000000694,"midi":59,"time":77.999844,"velocity":0.3937007874015748},{"duration":0.38709599999999966,"midi":50,"time":78.193392,"velocity":0.3937007874015748},{"duration":0.38709599999999966,"midi":67,"time":78.193392,"velocity":0.3937007874015748},{"duration":0.38709599999999966,"midi":43,"time":78.193392,"velocity":0.3937007874015748},{"duration":0.38709599999999966,"midi":47,"time":78.193392,"velocity":0.3937007874015748},{"duration":0.38709599999999966,"midi":55,"time":78.193392,"velocity":0.3937007874015748},{"duration":0.38709599999999966,"midi":59,"time":78.193392,"velocity":0.3937007874015748},{"duration":0.19354799999999273,"midi":59,"time":78.580488,"velocity":0.3937007874015748},{"duration":0.19354799999999273,"midi":55,"time":78.580488,"velocity":0.3937007874015748},{"duration":0.19354799999999273,"midi":50,"time":78.580488,"velocity":0.3937007874015748},{"duration":0.19354799999999273,"midi":47,"time":78.580488,"velocity":0.3937007874015748},{"duration":0.19354799999999273,"midi":43,"time":78.580488,"velocity":0.3937007874015748},{"duration":0.19354799999999273,"midi":67,"time":78.580488,"velocity":0.3937007874015748},{"duration":0.38709599999999966,"midi":67,"time":78.774036,"velocity":0.3937007874015748},{"duration":0.38709599999999966,"midi":59,"time":78.774036,"velocity":0.3937007874015748},{"duration":0.38709599999999966,"midi":50,"time":78.774036,"velocity":0.3937007874015748},{"duration":0.38709599999999966,"midi":43,"time":78.774036,"velocity":0.3937007874015748},{"duration":0.38709599999999966,"midi":47,"time":78.774036,"velocity":0.3937007874015748},{"duration":0.38709599999999966,"midi":55,"time":78.774036,"velocity":0.3937007874015748},{"duration":0.19354800000000694,"midi":55,"time":79.161132,"velocity":0.3937007874015748},{"duration":0.19354800000000694,"midi":50,"time":79.161132,"velocity":0.3937007874015748},{"duration":0.19354800000000694,"midi":43,"time":79.161132,"velocity":0.3937007874015748},{"duration":0.19354800000000694,"midi":59,"time":79.161132,"velocity":0.3937007874015748},{"duration":0.19354800000000694,"midi":47,"time":79.161132,"velocity":0.3937007874015748},{"duration":0.19354800000000694,"midi":67,"time":79.161132,"velocity":0.3937007874015748},{"duration":0.19354799999999273,"midi":67,"time":79.35468,"velocity":0.3937007874015748},{"duration":0.19354799999999273,"midi":59,"time":79.35468,"velocity":0.3937007874015748},{"duration":0.19354799999999273,"midi":50,"time":79.35468,"velocity":0.3937007874015748},{"duration":0.19354799999999273,"midi":43,"time":79.35468,"velocity":0.3937007874015748},{"duration":0.19354799999999273,"midi":47,"time":79.35468,"velocity":0.3937007874015748},{"duration":0.19354799999999273,"midi":55,"time":79.35468,"velocity":0.3937007874015748},{"duration":0.19354800000000694,"midi":59,"time":79.548228,"velocity":0.3937007874015748},{"duration":0.19354800000000694,"midi":55,"time":79.548228,"velocity":0.3937007874015748},{"duration":0.19354800000000694,"midi":50,"time":79.548228,"velocity":0.3937007874015748},{"duration":0.19354800000000694,"midi":47,"time":79.548228,"velocity":0.3937007874015748},{"duration":0.19354800000000694,"midi":67,"time":79.548228,"velocity":0.3937007874015748},{"duration":0.19354800000000694,"midi":43,"time":79.548228,"velocity":0.3937007874015748},{"duration":0.38709599999999966,"midi":60,"time":79.741776,"velocity":0.3937007874015748},{"duration":0.38709599999999966,"midi":52,"time":79.741776,"velocity":0.3937007874015748},{"duration":0.38709599999999966,"midi":55,"time":79.741776,"velocity":0.3937007874015748},{"duration":0.38709599999999966,"midi":48,"time":79.741776,"velocity":0.3937007874015748},{"duration":0.38709599999999966,"midi":64,"time":79.741776,"velocity":0.3937007874015748},{"duration":0.19354799999999273,"midi":52,"time":80.128872,"velocity":0.3937007874015748},{"duration":0.19354799999999273,"midi":55,"time":80.128872,"velocity":0.3937007874015748},{"duration":0.19354799999999273,"midi":48,"time":80.128872,"velocity":0.3937007874015748},{"duration":0.19354799999999273,"midi":60,"time":80.128872,"velocity":0.3937007874015748},{"duration":0.19354799999999273,"midi":64,"time":80.128872,"velocity":0.3937007874015748},{"duration":0.38709599999999966,"midi":52,"time":80.32242,"velocity":0.3937007874015748},{"duration":0.38709599999999966,"midi":60,"time":80.32242,"velocity":0.3937007874015748},{"duration":0.38709599999999966,"midi":55,"time":80.32242,"velocity":0.3937007874015748},{"duration":0.38709599999999966,"midi":64,"time":80.32242,"velocity":0.3937007874015748},{"duration":0.38709599999999966,"midi":48,"time":80.32242,"velocity":0.3937007874015748},{"duration":0.19354800000000694,"midi":48,"time":80.709516,"velocity":0.3937007874015748},{"duration":0.19354800000000694,"midi":52,"time":80.709516,"velocity":0.3937007874015748},{"duration":0.19354800000000694,"midi":55,"time":80.709516,"velocity":0.3937007874015748},{"duration":0.19354800000000694,"midi":60,"time":80.709516,"velocity":0.3937007874015748},{"duration":0.19354800000000694,"midi":64,"time":80.709516,"velocity":0.3937007874015748},{"duration":0.19354799999999273,"midi":60,"time":80.903064,"velocity":0.3937007874015748},{"duration":0.19354799999999273,"midi":55,"time":80.903064,"velocity":0.3937007874015748},{"duration":0.19354799999999273,"midi":48,"time":80.903064,"velocity":0.3937007874015748},{"duration":0.19354799999999273,"midi":64,"time":80.903064,"velocity":0.3937007874015748},{"duration":0.19354799999999273,"midi":52,"time":80.903064,"velocity":0.3937007874015748},{"duration":0.19354800000000694,"midi":64,"time":81.096612,"velocity":0.3937007874015748},{"duration":0.19354800000000694,"midi":60,"time":81.096612,"velocity":0.3937007874015748},{"duration":0.19354800000000694,"midi":55,"time":81.096612,"velocity":0.3937007874015748},{"duration":0.19354800000000694,"midi":52,"time":81.096612,"velocity":0.3937007874015748},{"duration":0.19354800000000694,"midi":48,"time":81.096612,"velocity":0.3937007874015748},{"duration":0.38709599999999966,"midi":60,"time":81.29016,"velocity":0.3937007874015748},{"duration":0.38709599999999966,"midi":64,"time":81.29016,"velocity":0.3937007874015748},{"duration":0.38709599999999966,"midi":55,"time":81.29016,"velocity":0.3937007874015748},{"duration":0.38709599999999966,"midi":52,"time":81.29016,"velocity":0.3937007874015748},{"duration":0.38709599999999966,"midi":48,"time":81.29016,"velocity":0.3937007874015748},{"duration":0.19354799999999273,"midi":64,"time":81.677256,"velocity":0.3937007874015748},{"duration":0.19354799999999273,"midi":60,"time":81.677256,"velocity":0.3937007874015748},{"duration":0.19354799999999273,"midi":52,"time":81.677256,"velocity":0.3937007874015748},{"duration":0.19354799999999273,"midi":48,"time":81.677256,"velocity":0.3937007874015748},{"duration":0.19354799999999273,"midi":55,"time":81.677256,"velocity":0.3937007874015748},{"duration":0.38709599999999966,"midi":55,"time":81.87080399999999,"velocity":0.3937007874015748},{"duration":0.38709599999999966,"midi":48,"time":81.87080399999999,"velocity":0.3937007874015748},{"duration":0.38709599999999966,"midi":60,"time":81.87080399999999,"velocity":0.3937007874015748},{"duration":0.38709599999999966,"midi":64,"time":81.87080399999999,"velocity":0.3937007874015748},{"duration":0.38709599999999966,"midi":52,"time":81.87080399999999,"velocity":0.3937007874015748},{"duration":0.19354800000000694,"midi":52,"time":82.25789999999999,"velocity":0.3937007874015748},{"duration":0.19354800000000694,"midi":55,"time":82.25789999999999,"velocity":0.3937007874015748},{"duration":0.19354800000000694,"midi":64,"time":82.25789999999999,"velocity":0.3937007874015748},{"duration":0.19354800000000694,"midi":60,"time":82.25789999999999,"velocity":0.3937007874015748},{"duration":0.19354800000000694,"midi":48,"time":82.25789999999999,"velocity":0.3937007874015748},{"duration":0.19354800000000694,"midi":48,"time":82.451448,"velocity":0.3937007874015748},{"duration":0.19354800000000694,"midi":55,"time":82.451448,"velocity":0.3937007874015748},{"duration":0.19354800000000694,"midi":60,"time":82.451448,"velocity":0.3937007874015748},{"duration":0.19354800000000694,"midi":52,"time":82.451448,"velocity":0.3937007874015748},{"duration":0.19354800000000694,"midi":64,"time":82.451448,"velocity":0.3937007874015748},{"duration":0.19354799999999273,"midi":55,"time":82.644996,"velocity":0.3937007874015748},{"duration":0.19354799999999273,"midi":52,"time":82.644996,"velocity":0.3937007874015748},{"duration":0.19354799999999273,"midi":60,"time":82.644996,"velocity":0.3937007874015748},{"duration":0.19354799999999273,"midi":48,"time":82.644996,"velocity":0.3937007874015748},{"duration":0.19354799999999273,"midi":64,"time":82.644996,"velocity":0.3937007874015748},{"duration":0.38709599999999966,"midi":50,"time":82.838544,"velocity":0.3937007874015748},{"duration":0.38709599999999966,"midi":62,"time":82.838544,"velocity":0.3937007874015748},{"duration":0.38709599999999966,"midi":66,"time":82.838544,"velocity":0.3937007874015748},{"duration":0.38709599999999966,"midi":57,"time":82.838544,"velocity":0.3937007874015748},{"duration":0.38709599999999966,"midi":50,"time":83.22564,"velocity":0.3937007874015748},{"duration":0.38709599999999966,"midi":66,"time":83.22564,"velocity":0.3937007874015748},{"duration":0.38709599999999966,"midi":57,"time":83.22564,"velocity":0.3937007874015748},{"duration":0.38709599999999966,"midi":62,"time":83.22564,"velocity":0.3937007874015748},{"duration":0.38709599999999966,"midi":64,"time":83.612736,"velocity":0.3937007874015748},{"duration":0.38709599999999966,"midi":59,"time":83.612736,"velocity":0.3937007874015748},{"duration":0.38709599999999966,"midi":52,"time":83.612736,"velocity":0.3937007874015748},{"duration":0.38709599999999966,"midi":55,"time":83.612736,"velocity":0.3937007874015748},{"duration":0.38709599999999966,"midi":47,"time":83.612736,"velocity":0.3937007874015748},{"duration":0.38709599999999966,"midi":40,"time":83.612736,"velocity":0.3937007874015748},{"duration":0.19354800000000694,"midi":47,"time":83.999832,"velocity":0.3937007874015748},{"duration":0.19354800000000694,"midi":52,"time":83.999832,"velocity":0.3937007874015748},{"duration":0.19354800000000694,"midi":55,"time":83.999832,"velocity":0.3937007874015748},{"duration":0.19354800000000694,"midi":64,"time":83.999832,"velocity":0.3937007874015748},{"duration":0.19354800000000694,"midi":59,"time":83.999832,"velocity":0.3937007874015748},{"duration":0.19354800000000694,"midi":40,"time":83.999832,"velocity":0.3937007874015748},{"duration":0.38709599999999966,"midi":64,"time":84.19338,"velocity":0.3937007874015748},{"duration":0.38709599999999966,"midi":40,"time":84.19338,"velocity":0.3937007874015748},{"duration":0.38709599999999966,"midi":47,"time":84.19338,"velocity":0.3937007874015748},{"duration":0.38709599999999966,"midi":52,"time":84.19338,"velocity":0.3937007874015748},{"duration":0.38709599999999966,"midi":55,"time":84.19338,"velocity":0.3937007874015748},{"duration":0.38709599999999966,"midi":59,"time":84.19338,"velocity":0.3937007874015748},{"duration":0.19354799999999273,"midi":59,"time":84.580476,"velocity":0.3937007874015748},{"duration":0.19354799999999273,"midi":55,"time":84.580476,"velocity":0.3937007874015748},{"duration":0.19354799999999273,"midi":52,"time":84.580476,"velocity":0.3937007874015748},{"duration":0.19354799999999273,"midi":40,"time":84.580476,"velocity":0.3937007874015748},{"duration":0.19354799999999273,"midi":64,"time":84.580476,"velocity":0.3937007874015748},{"duration":0.19354799999999273,"midi":47,"time":84.580476,"velocity":0.3937007874015748},{"duration":0.19354800000000694,"midi":64,"time":84.774024,"velocity":0.3937007874015748},{"duration":0.19354800000000694,"midi":47,"time":84.774024,"velocity":0.3937007874015748},{"duration":0.19354800000000694,"midi":52,"time":84.774024,"velocity":0.3937007874015748},{"duration":0.19354800000000694,"midi":55,"time":84.774024,"velocity":0.3937007874015748},{"duration":0.19354800000000694,"midi":59,"time":84.774024,"velocity":0.3937007874015748},{"duration":0.19354800000000694,"midi":40,"time":84.774024,"velocity":0.3937007874015748},{"duration":0.19354799999999273,"midi":52,"time":84.967572,"velocity":0.3937007874015748},{"duration":0.19354799999999273,"midi":40,"time":84.967572,"velocity":0.3937007874015748},{"duration":0.19354799999999273,"midi":55,"time":84.967572,"velocity":0.3937007874015748},{"duration":0.19354799999999273,"midi":59,"time":84.967572,"velocity":0.3937007874015748},{"duration":0.19354799999999273,"midi":47,"time":84.967572,"velocity":0.3937007874015748},{"duration":0.19354799999999273,"midi":64,"time":84.967572,"velocity":0.3937007874015748},{"duration":0.38709599999999966,"midi":64,"time":85.16112,"velocity":0.3937007874015748},{"duration":0.38709599999999966,"midi":40,"time":85.16112,"velocity":0.3937007874015748},{"duration":0.38709599999999966,"midi":47,"time":85.16112,"velocity":0.3937007874015748},{"duration":0.38709599999999966,"midi":52,"time":85.16112,"velocity":0.3937007874015748},{"duration":0.38709599999999966,"midi":55,"time":85.16112,"velocity":0.3937007874015748},{"duration":0.38709599999999966,"midi":59,"time":85.16112,"velocity":0.3937007874015748},{"duration":0.19354800000000694,"midi":64,"time":85.548216,"velocity":0.3937007874015748},{"duration":0.19354800000000694,"midi":47,"time":85.548216,"velocity":0.3937007874015748},{"duration":0.19354800000000694,"midi":55,"time":85.548216,"velocity":0.3937007874015748},{"duration":0.19354800000000694,"midi":40,"time":85.548216,"velocity":0.3937007874015748},{"duration":0.19354800000000694,"midi":52,"time":85.548216,"velocity":0.3937007874015748},{"duration":0.19354800000000694,"midi":59,"time":85.548216,"velocity":0.3937007874015748},{"duration":0.38709599999999966,"midi":40,"time":85.741764,"velocity":0.3937007874015748},{"duration":0.38709599999999966,"midi":52,"time":85.741764,"velocity":0.3937007874015748},{"duration":0.38709599999999966,"midi":47,"time":85.741764,"velocity":0.3937007874015748},{"duration":0.38709599999999966,"midi":55,"time":85.741764,"velocity":0.3937007874015748},{"duration":0.38709599999999966,"midi":59,"time":85.741764,"velocity":0.3937007874015748},{"duration":0.38709599999999966,"midi":64,"time":85.741764,"velocity":0.3937007874015748},{"duration":0.19354799999999273,"midi":64,"time":86.12886,"velocity":0.3937007874015748},{"duration":0.19354799999999273,"midi":55,"time":86.12886,"velocity":0.3937007874015748},{"duration":0.19354799999999273,"midi":47,"time":86.12886,"velocity":0.3937007874015748},{"duration":0.19354799999999273,"midi":59,"time":86.12886,"velocity":0.3937007874015748},{"duration":0.19354799999999273,"midi":40,"time":86.12886,"velocity":0.3937007874015748},{"duration":0.19354799999999273,"midi":52,"time":86.12886,"velocity":0.3937007874015748},{"duration":0.19354800000000694,"midi":52,"time":86.322408,"velocity":0.3937007874015748},{"duration":0.19354800000000694,"midi":55,"time":86.322408,"velocity":0.3937007874015748},{"duration":0.19354800000000694,"midi":40,"time":86.322408,"velocity":0.3937007874015748},{"duration":0.19354800000000694,"midi":59,"time":86.322408,"velocity":0.3937007874015748},{"duration":0.19354800000000694,"midi":64,"time":86.322408,"velocity":0.3937007874015748},{"duration":0.19354800000000694,"midi":47,"time":86.322408,"velocity":0.3937007874015748},{"duration":0.19354799999999273,"midi":59,"time":86.515956,"velocity":0.3937007874015748},{"duration":0.19354799999999273,"midi":64,"time":86.515956,"velocity":0.3937007874015748},{"duration":0.19354799999999273,"midi":52,"time":86.515956,"velocity":0.3937007874015748},{"duration":0.19354799999999273,"midi":55,"time":86.515956,"velocity":0.3937007874015748},{"duration":0.19354799999999273,"midi":47,"time":86.515956,"velocity":0.3937007874015748},{"duration":0.19354799999999273,"midi":40,"time":86.515956,"velocity":0.3937007874015748},{"duration":0.38709599999999966,"midi":55,"time":86.709504,"velocity":0.3937007874015748},{"duration":0.38709599999999966,"midi":43,"time":86.709504,"velocity":0.3937007874015748},{"duration":0.38709599999999966,"midi":59,"time":86.709504,"velocity":0.3937007874015748},{"duration":0.38709599999999966,"midi":47,"time":86.709504,"velocity":0.3937007874015748},{"duration":0.38709599999999966,"midi":67,"time":86.709504,"velocity":0.3937007874015748},{"duration":0.38709599999999966,"midi":50,"time":86.709504,"velocity":0.3937007874015748},{"duration":0.19354800000000694,"midi":55,"time":87.0966,"velocity":0.3937007874015748},{"duration":0.19354800000000694,"midi":67,"time":87.0966,"velocity":0.3937007874015748},{"duration":0.19354800000000694,"midi":59,"time":87.0966,"velocity":0.3937007874015748},{"duration":0.19354800000000694,"midi":47,"time":87.0966,"velocity":0.3937007874015748},{"duration":0.19354800000000694,"midi":50,"time":87.0966,"velocity":0.3937007874015748},{"duration":0.19354800000000694,"midi":43,"time":87.0966,"velocity":0.3937007874015748},{"duration":0.38709599999999966,"midi":67,"time":87.290148,"velocity":0.3937007874015748},{"duration":0.38709599999999966,"midi":43,"time":87.290148,"velocity":0.3937007874015748},{"duration":0.38709599999999966,"midi":50,"time":87.290148,"velocity":0.3937007874015748},{"duration":0.38709599999999966,"midi":47,"time":87.290148,"velocity":0.3937007874015748},{"duration":0.38709599999999966,"midi":55,"time":87.290148,"velocity":0.3937007874015748},{"duration":0.38709599999999966,"midi":59,"time":87.290148,"velocity":0.3937007874015748},{"duration":0.19354799999999273,"midi":67,"time":87.677244,"velocity":0.3937007874015748},{"duration":0.19354799999999273,"midi":47,"time":87.677244,"velocity":0.3937007874015748},{"duration":0.19354799999999273,"midi":50,"time":87.677244,"velocity":0.3937007874015748},{"duration":0.19354799999999273,"midi":43,"time":87.677244,"velocity":0.3937007874015748},{"duration":0.19354799999999273,"midi":55,"time":87.677244,"velocity":0.3937007874015748},{"duration":0.19354799999999273,"midi":59,"time":87.677244,"velocity":0.3937007874015748},{"duration":0.19354800000000694,"midi":43,"time":87.870792,"velocity":0.3937007874015748},{"duration":0.19354800000000694,"midi":47,"time":87.870792,"velocity":0.3937007874015748},{"duration":0.19354800000000694,"midi":50,"time":87.870792,"velocity":0.3937007874015748},{"duration":0.19354800000000694,"midi":55,"time":87.870792,"velocity":0.3937007874015748},{"duration":0.19354800000000694,"midi":59,"time":87.870792,"velocity":0.3937007874015748},{"duration":0.19354800000000694,"midi":67,"time":87.870792,"velocity":0.3937007874015748},{"duration":0.19354799999999273,"midi":67,"time":88.06434,"velocity":0.3937007874015748},{"duration":0.19354799999999273,"midi":50,"time":88.06434,"velocity":0.3937007874015748},{"duration":0.19354799999999273,"midi":47,"time":88.06434,"velocity":0.3937007874015748},{"duration":0.19354799999999273,"midi":43,"time":88.06434,"velocity":0.3937007874015748},{"duration":0.19354799999999273,"midi":55,"time":88.06434,"velocity":0.3937007874015748},{"duration":0.19354799999999273,"midi":59,"time":88.06434,"velocity":0.3937007874015748},{"duration":0.38709599999999966,"midi":52,"time":88.257888,"velocity":0.3937007874015748},{"duration":0.38709599999999966,"midi":48,"time":88.257888,"velocity":0.3937007874015748},{"duration":0.38709599999999966,"midi":55,"time":88.257888,"velocity":0.3937007874015748},{"duration":0.38709599999999966,"midi":64,"time":88.257888,"velocity":0.3937007874015748},{"duration":0.38709599999999966,"midi":60,"time":88.257888,"velocity":0.3937007874015748},{"duration":0.19354800000000694,"midi":55,"time":88.644984,"velocity":0.3937007874015748},{"duration":0.19354800000000694,"midi":48,"time":88.644984,"velocity":0.3937007874015748},{"duration":0.19354800000000694,"midi":60,"time":88.644984,"velocity":0.3937007874015748},{"duration":0.19354800000000694,"midi":64,"time":88.644984,"velocity":0.3937007874015748},{"duration":0.19354800000000694,"midi":52,"time":88.644984,"velocity":0.3937007874015748},{"duration":0.38709599999999966,"midi":52,"time":88.838532,"velocity":0.3937007874015748},{"duration":0.38709599999999966,"midi":64,"time":88.838532,"velocity":0.3937007874015748},{"duration":0.38709599999999966,"midi":55,"time":88.838532,"velocity":0.3937007874015748},{"duration":0.38709599999999966,"midi":60,"time":88.838532,"velocity":0.3937007874015748},{"duration":0.38709599999999966,"midi":48,"time":88.838532,"velocity":0.3937007874015748},{"duration":0.19354799999999273,"midi":48,"time":89.225628,"velocity":0.3937007874015748},{"duration":0.19354799999999273,"midi":60,"time":89.225628,"velocity":0.3937007874015748},{"duration":0.19354799999999273,"midi":55,"time":89.225628,"velocity":0.3937007874015748},{"duration":0.19354799999999273,"midi":64,"time":89.225628,"velocity":0.3937007874015748},{"duration":0.19354799999999273,"midi":52,"time":89.225628,"velocity":0.3937007874015748},{"duration":0.19354800000000694,"midi":64,"time":89.419176,"velocity":0.3937007874015748},{"duration":0.19354800000000694,"midi":48,"time":89.419176,"velocity":0.3937007874015748},{"duration":0.19354800000000694,"midi":55,"time":89.419176,"velocity":0.3937007874015748},{"duration":0.19354800000000694,"midi":52,"time":89.419176,"velocity":0.3937007874015748},{"duration":0.19354800000000694,"midi":60,"time":89.419176,"velocity":0.3937007874015748},{"duration":0.19354799999999273,"midi":60,"time":89.612724,"velocity":0.3937007874015748},{"duration":0.19354799999999273,"midi":55,"time":89.612724,"velocity":0.3937007874015748},{"duration":0.19354799999999273,"midi":64,"time":89.612724,"velocity":0.3937007874015748},{"duration":0.19354799999999273,"midi":48,"time":89.612724,"velocity":0.3937007874015748},{"duration":0.19354799999999273,"midi":52,"time":89.612724,"velocity":0.3937007874015748},{"duration":0.38709599999999966,"midi":64,"time":89.80627199999999,"velocity":0.3937007874015748},{"duration":0.38709599999999966,"midi":60,"time":89.80627199999999,"velocity":0.3937007874015748},{"duration":0.38709599999999966,"midi":52,"time":89.80627199999999,"velocity":0.3937007874015748},{"duration":0.38709599999999966,"midi":48,"time":89.80627199999999,"velocity":0.3937007874015748},{"duration":0.38709599999999966,"midi":55,"time":89.80627199999999,"velocity":0.3937007874015748},{"duration":0.19354800000000694,"midi":55,"time":90.19336799999999,"velocity":0.3937007874015748},{"duration":0.19354800000000694,"midi":64,"time":90.19336799999999,"velocity":0.3937007874015748},{"duration":0.19354800000000694,"midi":48,"time":90.19336799999999,"velocity":0.3937007874015748},{"duration":0.19354800000000694,"midi":52,"time":90.19336799999999,"velocity":0.3937007874015748},{"duration":0.19354800000000694,"midi":60,"time":90.19336799999999,"velocity":0.3937007874015748},{"duration":0.38709599999999966,"midi":64,"time":90.386916,"velocity":0.3937007874015748},{"duration":0.38709599999999966,"midi":60,"time":90.386916,"velocity":0.3937007874015748},{"duration":0.38709599999999966,"midi":48,"time":90.386916,"velocity":0.3937007874015748},{"duration":0.38709599999999966,"midi":52,"time":90.386916,"velocity":0.3937007874015748},{"duration":0.38709599999999966,"midi":55,"time":90.386916,"velocity":0.3937007874015748},{"duration":0.19354800000000694,"midi":52,"time":90.774012,"velocity":0.3937007874015748},{"duration":0.19354800000000694,"midi":55,"time":90.774012,"velocity":0.3937007874015748},{"duration":0.19354800000000694,"midi":48,"time":90.774012,"velocity":0.3937007874015748},{"duration":0.19354800000000694,"midi":64,"time":90.774012,"velocity":0.3937007874015748},{"duration":0.19354800000000694,"midi":60,"time":90.774012,"velocity":0.3937007874015748},{"duration":0.19354799999999273,"midi":48,"time":90.96756,"velocity":0.3937007874015748},{"duration":0.19354799999999273,"midi":60,"time":90.96756,"velocity":0.3937007874015748},{"duration":0.19354799999999273,"midi":64,"time":90.96756,"velocity":0.3937007874015748},{"duration":0.19354799999999273,"midi":55,"time":90.96756,"velocity":0.3937007874015748},{"duration":0.19354799999999273,"midi":52,"time":90.96756,"velocity":0.3937007874015748},{"duration":0.19354800000000694,"midi":64,"time":91.161108,"velocity":0.3937007874015748},{"duration":0.19354800000000694,"midi":60,"time":91.161108,"velocity":0.3937007874015748},{"duration":0.19354800000000694,"midi":48,"time":91.161108,"velocity":0.3937007874015748},{"duration":0.19354800000000694,"midi":52,"time":91.161108,"velocity":0.3937007874015748},{"duration":0.19354800000000694,"midi":55,"time":91.161108,"velocity":0.3937007874015748},{"duration":0.38709599999999966,"midi":66,"time":91.354656,"velocity":0.3937007874015748},{"duration":0.38709599999999966,"midi":57,"time":91.354656,"velocity":0.3937007874015748},{"duration":0.38709599999999966,"midi":62,"time":91.354656,"velocity":0.3937007874015748},{"duration":0.38709599999999966,"midi":50,"time":91.354656,"velocity":0.3937007874015748},{"duration":0.38709599999999966,"midi":66,"time":91.741752,"velocity":0.3937007874015748},{"duration":0.38709599999999966,"midi":57,"time":91.741752,"velocity":0.3937007874015748},{"duration":0.38709599999999966,"midi":50,"time":91.741752,"velocity":0.3937007874015748},{"duration":0.38709599999999966,"midi":62,"time":91.741752,"velocity":0.3937007874015748},{"duration":0.38709599999999966,"midi":52,"time":92.128848,"velocity":0.3937007874015748},{"duration":0.38709599999999966,"midi":40,"time":92.128848,"velocity":0.3937007874015748},{"duration":0.38709599999999966,"midi":55,"time":92.128848,"velocity":0.3937007874015748},{"duration":0.38709599999999966,"midi":59,"time":92.128848,"velocity":0.3937007874015748},{"duration":0.38709599999999966,"midi":64,"time":92.128848,"velocity":0.3937007874015748},{"duration":0.38709599999999966,"midi":47,"time":92.128848,"velocity":0.3937007874015748},{"duration":0.19354799999999273,"midi":55,"time":92.515944,"velocity":0.3937007874015748},{"duration":0.19354799999999273,"midi":64,"time":92.515944,"velocity":0.3937007874015748},{"duration":0.19354799999999273,"midi":40,"time":92.515944,"velocity":0.3937007874015748},{"duration":0.19354799999999273,"midi":47,"time":92.515944,"velocity":0.3937007874015748},{"duration":0.19354799999999273,"midi":52,"time":92.515944,"velocity":0.3937007874015748},{"duration":0.19354799999999273,"midi":59,"time":92.515944,"velocity":0.3937007874015748},{"duration":0.38709599999999966,"midi":64,"time":92.709492,"velocity":0.3937007874015748},{"duration":0.38709599999999966,"midi":59,"time":92.709492,"velocity":0.3937007874015748},{"duration":0.38709599999999966,"midi":52,"time":92.709492,"velocity":0.3937007874015748},{"duration":0.38709599999999966,"midi":40,"time":92.709492,"velocity":0.3937007874015748},{"duration":0.38709599999999966,"midi":47,"time":92.709492,"velocity":0.3937007874015748},{"duration":0.38709599999999966,"midi":55,"time":92.709492,"velocity":0.3937007874015748},{"duration":0.19354800000000694,"midi":59,"time":93.096588,"velocity":0.3937007874015748},{"duration":0.19354800000000694,"midi":55,"time":93.096588,"velocity":0.3937007874015748},{"duration":0.19354800000000694,"midi":40,"time":93.096588,"velocity":0.3937007874015748},{"duration":0.19354800000000694,"midi":64,"time":93.096588,"velocity":0.3937007874015748},{"duration":0.19354800000000694,"midi":52,"time":93.096588,"velocity":0.3937007874015748},{"duration":0.19354800000000694,"midi":47,"time":93.096588,"velocity":0.3937007874015748},{"duration":0.19354799999999273,"midi":64,"time":93.290136,"velocity":0.3937007874015748},{"duration":0.19354799999999273,"midi":47,"time":93.290136,"velocity":0.3937007874015748},{"duration":0.19354799999999273,"midi":55,"time":93.290136,"velocity":0.3937007874015748},{"duration":0.19354799999999273,"midi":40,"time":93.290136,"velocity":0.3937007874015748},{"duration":0.19354799999999273,"midi":52,"time":93.290136,"velocity":0.3937007874015748},{"duration":0.19354799999999273,"midi":59,"time":93.290136,"velocity":0.3937007874015748},{"duration":0.19354800000000694,"midi":59,"time":93.483684,"velocity":0.3937007874015748},{"duration":0.19354800000000694,"midi":55,"time":93.483684,"velocity":0.3937007874015748},{"duration":0.19354800000000694,"midi":64,"time":93.483684,"velocity":0.3937007874015748},{"duration":0.19354800000000694,"midi":52,"time":93.483684,"velocity":0.3937007874015748},{"duration":0.19354800000000694,"midi":40,"time":93.483684,"velocity":0.3937007874015748},{"duration":0.19354800000000694,"midi":47,"time":93.483684,"velocity":0.3937007874015748},{"duration":0.38709599999999966,"midi":64,"time":93.677232,"velocity":0.3937007874015748},{"duration":0.38709599999999966,"midi":47,"time":93.677232,"velocity":0.3937007874015748},{"duration":0.38709599999999966,"midi":52,"time":93.677232,"velocity":0.3937007874015748},{"duration":0.38709599999999966,"midi":55,"time":93.677232,"velocity":0.3937007874015748},{"duration":0.38709599999999966,"midi":59,"time":93.677232,"velocity":0.3937007874015748},{"duration":0.38709599999999966,"midi":40,"time":93.677232,"velocity":0.3937007874015748},{"duration":0.19354799999999273,"midi":47,"time":94.064328,"velocity":0.3937007874015748},{"duration":0.19354799999999273,"midi":52,"time":94.064328,"velocity":0.3937007874015748},{"duration":0.19354799999999273,"midi":55,"time":94.064328,"velocity":0.3937007874015748},{"duration":0.19354799999999273,"midi":40,"time":94.064328,"velocity":0.3937007874015748},{"duration":0.19354799999999273,"midi":59,"time":94.064328,"velocity":0.3937007874015748},{"duration":0.19354799999999273,"midi":64,"time":94.064328,"velocity":0.3937007874015748},{"duration":0.38709599999999966,"midi":59,"time":94.257876,"velocity":0.3937007874015748},{"duration":0.38709599999999966,"midi":64,"time":94.257876,"velocity":0.3937007874015748},{"duration":0.38709599999999966,"midi":40,"time":94.257876,"velocity":0.3937007874015748},{"duration":0.38709599999999966,"midi":47,"time":94.257876,"velocity":0.3937007874015748},{"duration":0.38709599999999966,"midi":52,"time":94.257876,"velocity":0.3937007874015748},{"duration":0.38709599999999966,"midi":55,"time":94.257876,"velocity":0.3937007874015748},{"duration":0.19354800000000694,"midi":64,"time":94.644972,"velocity":0.3937007874015748},{"duration":0.19354800000000694,"midi":47,"time":94.644972,"velocity":0.3937007874015748},{"duration":0.19354800000000694,"midi":55,"time":94.644972,"velocity":0.3937007874015748},{"duration":0.19354800000000694,"midi":40,"time":94.644972,"velocity":0.3937007874015748},{"duration":0.19354800000000694,"midi":52,"time":94.644972,"velocity":0.3937007874015748},{"duration":0.19354800000000694,"midi":59,"time":94.644972,"velocity":0.3937007874015748},{"duration":0.19354799999999273,"midi":59,"time":94.83852,"velocity":0.3937007874015748},{"duration":0.19354799999999273,"midi":55,"time":94.83852,"velocity":0.3937007874015748},{"duration":0.19354799999999273,"midi":40,"time":94.83852,"velocity":0.3937007874015748},{"duration":0.19354799999999273,"midi":52,"time":94.83852,"velocity":0.3937007874015748},{"duration":0.19354799999999273,"midi":64,"time":94.83852,"velocity":0.3937007874015748},{"duration":0.19354799999999273,"midi":47,"time":94.83852,"velocity":0.3937007874015748},{"duration":0.19354800000000694,"midi":59,"time":95.032068,"velocity":0.3937007874015748},{"duration":0.19354800000000694,"midi":55,"time":95.032068,"velocity":0.3937007874015748},{"duration":0.19354800000000694,"midi":40,"time":95.032068,"velocity":0.3937007874015748},{"duration":0.19354800000000694,"midi":52,"time":95.032068,"velocity":0.3937007874015748},{"duration":0.19354800000000694,"midi":64,"time":95.032068,"velocity":0.3937007874015748},{"duration":0.19354800000000694,"midi":47,"time":95.032068,"velocity":0.3937007874015748},{"duration":0.38709599999999966,"midi":50,"time":95.225616,"velocity":0.3937007874015748},{"duration":0.38709599999999966,"midi":43,"time":95.225616,"velocity":0.3937007874015748},{"duration":0.38709599999999966,"midi":55,"time":95.225616,"velocity":0.3937007874015748},{"duration":0.38709599999999966,"midi":59,"time":95.225616,"velocity":0.3937007874015748},{"duration":0.38709599999999966,"midi":67,"time":95.225616,"velocity":0.3937007874015748},{"duration":0.38709599999999966,"midi":47,"time":95.225616,"velocity":0.3937007874015748},{"duration":0.19354799999999273,"midi":47,"time":95.612712,"velocity":0.3937007874015748},{"duration":0.19354799999999273,"midi":50,"time":95.612712,"velocity":0.3937007874015748},{"duration":0.19354799999999273,"midi":67,"time":95.612712,"velocity":0.3937007874015748},{"duration":0.19354799999999273,"midi":55,"time":95.612712,"velocity":0.3937007874015748},{"duration":0.19354799999999273,"midi":59,"time":95.612712,"velocity":0.3937007874015748},{"duration":0.19354799999999273,"midi":43,"time":95.612712,"velocity":0.3937007874015748},{"duration":0.38709599999999966,"midi":59,"time":95.80626,"velocity":0.3937007874015748},{"duration":0.38709599999999966,"midi":55,"time":95.80626,"velocity":0.3937007874015748},{"duration":0.38709599999999966,"midi":47,"time":95.80626,"velocity":0.3937007874015748},{"duration":0.38709599999999966,"midi":43,"time":95.80626,"velocity":0.3937007874015748},{"duration":0.38709599999999966,"midi":50,"time":95.80626,"velocity":0.3937007874015748},{"duration":0.38709599999999966,"midi":67,"time":95.80626,"velocity":0.3937007874015748},{"duration":0.19354800000000694,"midi":55,"time":96.193356,"velocity":0.3937007874015748},{"duration":0.19354800000000694,"midi":47,"time":96.193356,"velocity":0.3937007874015748},{"duration":0.19354800000000694,"midi":59,"time":96.193356,"velocity":0.3937007874015748},{"duration":0.19354800000000694,"midi":43,"time":96.193356,"velocity":0.3937007874015748},{"duration":0.19354800000000694,"midi":50,"time":96.193356,"velocity":0.3937007874015748},{"duration":0.19354800000000694,"midi":67,"time":96.193356,"velocity":0.3937007874015748},{"duration":0.19354799999999273,"midi":55,"time":96.386904,"velocity":0.3937007874015748},{"duration":0.19354799999999273,"midi":59,"time":96.386904,"velocity":0.3937007874015748},{"duration":0.19354799999999273,"midi":67,"time":96.386904,"velocity":0.3937007874015748},{"duration":0.19354799999999273,"midi":43,"time":96.386904,"velocity":0.3937007874015748},{"duration":0.19354799999999273,"midi":47,"time":96.386904,"velocity":0.3937007874015748},{"duration":0.19354799999999273,"midi":50,"time":96.386904,"velocity":0.3937007874015748},{"duration":0.19354800000000694,"midi":67,"time":96.580452,"velocity":0.3937007874015748},{"duration":0.19354800000000694,"midi":59,"time":96.580452,"velocity":0.3937007874015748},{"duration":0.19354800000000694,"midi":50,"time":96.580452,"velocity":0.3937007874015748},{"duration":0.19354800000000694,"midi":43,"time":96.580452,"velocity":0.3937007874015748},{"duration":0.19354800000000694,"midi":47,"time":96.580452,"velocity":0.3937007874015748},{"duration":0.19354800000000694,"midi":55,"time":96.580452,"velocity":0.3937007874015748},{"duration":0.38709599999999966,"midi":64,"time":96.774,"velocity":0.3937007874015748},{"duration":0.38709599999999966,"midi":60,"time":96.774,"velocity":0.3937007874015748},{"duration":0.38709599999999966,"midi":52,"time":96.774,"velocity":0.3937007874015748},{"duration":0.38709599999999966,"midi":48,"time":96.774,"velocity":0.3937007874015748},{"duration":0.38709599999999966,"midi":55,"time":96.774,"velocity":0.3937007874015748},{"duration":0.19354799999999273,"midi":52,"time":97.161096,"velocity":0.3937007874015748},{"duration":0.19354799999999273,"midi":48,"time":97.161096,"velocity":0.3937007874015748},{"duration":0.19354799999999273,"midi":55,"time":97.161096,"velocity":0.3937007874015748},{"duration":0.19354799999999273,"midi":60,"time":97.161096,"velocity":0.3937007874015748},{"duration":0.19354799999999273,"midi":64,"time":97.161096,"velocity":0.3937007874015748},{"duration":0.38709599999999966,"midi":64,"time":97.354644,"velocity":0.3937007874015748},{"duration":0.38709599999999966,"midi":52,"time":97.354644,"velocity":0.3937007874015748},{"duration":0.38709599999999966,"midi":55,"time":97.354644,"velocity":0.3937007874015748},{"duration":0.38709599999999966,"midi":48,"time":97.354644,"velocity":0.3937007874015748},{"duration":0.38709599999999966,"midi":60,"time":97.354644,"velocity":0.3937007874015748},{"duration":0.19354800000000694,"midi":55,"time":97.74174,"velocity":0.3937007874015748},{"duration":0.19354800000000694,"midi":48,"time":97.74174,"velocity":0.3937007874015748},{"duration":0.19354800000000694,"midi":60,"time":97.74174,"velocity":0.3937007874015748},{"duration":0.19354800000000694,"midi":64,"time":97.74174,"velocity":0.3937007874015748},{"duration":0.19354800000000694,"midi":52,"time":97.74174,"velocity":0.3937007874015748},{"duration":0.19354799999999273,"midi":48,"time":97.935288,"velocity":0.3937007874015748},{"duration":0.19354799999999273,"midi":55,"time":97.935288,"velocity":0.3937007874015748},{"duration":0.19354799999999273,"midi":52,"time":97.935288,"velocity":0.3937007874015748},{"duration":0.19354799999999273,"midi":60,"time":97.935288,"velocity":0.3937007874015748},{"duration":0.19354799999999273,"midi":64,"time":97.935288,"velocity":0.3937007874015748},{"duration":0.19354800000000694,"midi":48,"time":98.12883599999999,"velocity":0.3937007874015748},{"duration":0.19354800000000694,"midi":52,"time":98.12883599999999,"velocity":0.3937007874015748},{"duration":0.19354800000000694,"midi":55,"time":98.12883599999999,"velocity":0.3937007874015748},{"duration":0.19354800000000694,"midi":60,"time":98.12883599999999,"velocity":0.3937007874015748},{"duration":0.19354800000000694,"midi":64,"time":98.12883599999999,"velocity":0.3937007874015748},{"duration":0.38709599999999966,"midi":55,"time":98.322384,"velocity":0.3937007874015748},{"duration":0.38709599999999966,"midi":60,"time":98.322384,"velocity":0.3937007874015748},{"duration":0.38709599999999966,"midi":64,"time":98.322384,"velocity":0.3937007874015748},{"duration":0.38709599999999966,"midi":48,"time":98.322384,"velocity":0.3937007874015748},{"duration":0.38709599999999966,"midi":52,"time":98.322384,"velocity":0.3937007874015748},{"duration":0.19354799999999273,"midi":48,"time":98.70948,"velocity":0.3937007874015748},{"duration":0.19354799999999273,"midi":55,"time":98.70948,"velocity":0.3937007874015748},{"duration":0.19354799999999273,"midi":64,"time":98.70948,"velocity":0.3937007874015748},{"duration":0.19354799999999273,"midi":52,"time":98.70948,"velocity":0.3937007874015748},{"duration":0.19354799999999273,"midi":60,"time":98.70948,"velocity":0.3937007874015748},{"duration":0.3870960000000139,"midi":55,"time":98.90302799999999,"velocity":0.3937007874015748},{"duration":0.3870960000000139,"midi":48,"time":98.90302799999999,"velocity":0.3937007874015748},{"duration":0.3870960000000139,"midi":60,"time":98.90302799999999,"velocity":0.3937007874015748},{"duration":0.3870960000000139,"midi":64,"time":98.90302799999999,"velocity":0.3937007874015748},{"duration":0.3870960000000139,"midi":52,"time":98.90302799999999,"velocity":0.3937007874015748},{"duration":0.19354799999999273,"midi":64,"time":99.290124,"velocity":0.3937007874015748},{"duration":0.19354799999999273,"midi":48,"time":99.290124,"velocity":0.3937007874015748},{"duration":0.19354799999999273,"midi":52,"time":99.290124,"velocity":0.3937007874015748},{"duration":0.19354799999999273,"midi":55,"time":99.290124,"velocity":0.3937007874015748},{"duration":0.19354799999999273,"midi":60,"time":99.290124,"velocity":0.3937007874015748},{"duration":0.19354800000000694,"midi":64,"time":99.483672,"velocity":0.3937007874015748},{"duration":0.19354800000000694,"midi":60,"time":99.483672,"velocity":0.3937007874015748},{"duration":0.19354800000000694,"midi":52,"time":99.483672,"velocity":0.3937007874015748},{"duration":0.19354800000000694,"midi":48,"time":99.483672,"velocity":0.3937007874015748},{"duration":0.19354800000000694,"midi":55,"time":99.483672,"velocity":0.3937007874015748},{"duration":0.19354799999999273,"midi":64,"time":99.67722,"velocity":0.3937007874015748},{"duration":0.19354799999999273,"midi":52,"time":99.67722,"velocity":0.3937007874015748},{"duration":0.19354799999999273,"midi":55,"time":99.67722,"velocity":0.3937007874015748},{"duration":0.19354799999999273,"midi":60,"time":99.67722,"velocity":0.3937007874015748},{"duration":0.19354799999999273,"midi":48,"time":99.67722,"velocity":0.3937007874015748},{"duration":0.38709599999999966,"midi":50,"time":99.870768,"velocity":0.3937007874015748},{"duration":0.38709599999999966,"midi":57,"time":99.870768,"velocity":0.3937007874015748},{"duration":0.38709599999999966,"midi":62,"time":99.870768,"velocity":0.3937007874015748},{"duration":0.38709599999999966,"midi":66,"time":99.870768,"velocity":0.3937007874015748},{"duration":0.38709599999999966,"midi":66,"time":100.257864,"velocity":0.3937007874015748},{"duration":0.38709599999999966,"midi":57,"time":100.257864,"velocity":0.3937007874015748},{"duration":0.38709599999999966,"midi":50,"time":100.257864,"velocity":0.3937007874015748},{"duration":0.38709599999999966,"midi":62,"time":100.257864,"velocity":0.3937007874015748},{"duration":0.38709599999999966,"midi":47,"time":103.741728,"velocity":0.3937007874015748},{"duration":0.38709599999999966,"midi":55,"time":103.741728,"velocity":0.3937007874015748},{"duration":0.38709599999999966,"midi":50,"time":103.741728,"velocity":0.3937007874015748},{"duration":0.38709599999999966,"midi":67,"time":103.741728,"velocity":0.3937007874015748},{"duration":0.38709599999999966,"midi":59,"time":103.741728,"velocity":0.3937007874015748},{"duration":0.38709599999999966,"midi":43,"time":103.741728,"velocity":0.3937007874015748},{"duration":0.19354800000000694,"midi":55,"time":104.128824,"velocity":0.3937007874015748},{"duration":0.19354800000000694,"midi":43,"time":104.128824,"velocity":0.3937007874015748},{"duration":0.19354800000000694,"midi":59,"time":104.128824,"velocity":0.3937007874015748},{"duration":0.19354800000000694,"midi":47,"time":104.128824,"velocity":0.3937007874015748},{"duration":0.19354800000000694,"midi":67,"time":104.128824,"velocity":0.3937007874015748},{"duration":0.19354800000000694,"midi":50,"time":104.128824,"velocity":0.3937007874015748},{"duration":0.38709599999999966,"midi":59,"time":104.322372,"velocity":0.3937007874015748},{"duration":0.38709599999999966,"midi":43,"time":104.322372,"velocity":0.3937007874015748},{"duration":0.38709599999999966,"midi":50,"time":104.322372,"velocity":0.3937007874015748},{"duration":0.38709599999999966,"midi":47,"time":104.322372,"velocity":0.3937007874015748},{"duration":0.38709599999999966,"midi":55,"time":104.322372,"velocity":0.3937007874015748},{"duration":0.38709599999999966,"midi":67,"time":104.322372,"velocity":0.3937007874015748},{"duration":0.19354799999999273,"midi":67,"time":104.709468,"velocity":0.3937007874015748},{"duration":0.19354799999999273,"midi":47,"time":104.709468,"velocity":0.3937007874015748},{"duration":0.19354799999999273,"midi":50,"time":104.709468,"velocity":0.3937007874015748},{"duration":0.19354799999999273,"midi":55,"time":104.709468,"velocity":0.3937007874015748},{"duration":0.19354799999999273,"midi":59,"time":104.709468,"velocity":0.3937007874015748},{"duration":0.19354799999999273,"midi":43,"time":104.709468,"velocity":0.3937007874015748},{"duration":0.19354800000000694,"midi":67,"time":104.903016,"velocity":0.3937007874015748},{"duration":0.19354800000000694,"midi":59,"time":104.903016,"velocity":0.3937007874015748},{"duration":0.19354800000000694,"midi":50,"time":104.903016,"velocity":0.3937007874015748},{"duration":0.19354800000000694,"midi":43,"time":104.903016,"velocity":0.3937007874015748},{"duration":0.19354800000000694,"midi":47,"time":104.903016,"velocity":0.3937007874015748},{"duration":0.19354800000000694,"midi":55,"time":104.903016,"velocity":0.3937007874015748},{"duration":0.19354799999999273,"midi":59,"time":105.096564,"velocity":0.3937007874015748},{"duration":0.19354799999999273,"midi":55,"time":105.096564,"velocity":0.3937007874015748},{"duration":0.19354799999999273,"midi":67,"time":105.096564,"velocity":0.3937007874015748},{"duration":0.19354799999999273,"midi":43,"time":105.096564,"velocity":0.3937007874015748},{"duration":0.19354799999999273,"midi":50,"time":105.096564,"velocity":0.3937007874015748},{"duration":0.19354799999999273,"midi":47,"time":105.096564,"velocity":0.3937007874015748},{"duration":0.38709599999999966,"midi":48,"time":105.290112,"velocity":0.3937007874015748},{"duration":0.38709599999999966,"midi":55,"time":105.290112,"velocity":0.3937007874015748},{"duration":0.38709599999999966,"midi":60,"time":105.290112,"velocity":0.3937007874015748},{"duration":0.38709599999999966,"midi":64,"time":105.290112,"velocity":0.3937007874015748},{"duration":0.38709599999999966,"midi":52,"time":105.290112,"velocity":0.3937007874015748},{"duration":0.19354800000000694,"midi":60,"time":105.677208,"velocity":0.3937007874015748},{"duration":0.19354800000000694,"midi":55,"time":105.677208,"velocity":0.3937007874015748},{"duration":0.19354800000000694,"midi":48,"time":105.677208,"velocity":0.3937007874015748},{"duration":0.19354800000000694,"midi":64,"time":105.677208,"velocity":0.3937007874015748},{"duration":0.19354800000000694,"midi":52,"time":105.677208,"velocity":0.3937007874015748},{"duration":0.38709599999999966,"midi":64,"time":105.870756,"velocity":0.3937007874015748},{"duration":0.38709599999999966,"midi":60,"time":105.870756,"velocity":0.3937007874015748},{"duration":0.38709599999999966,"midi":52,"time":105.870756,"velocity":0.3937007874015748},{"duration":0.38709599999999966,"midi":48,"time":105.870756,"velocity":0.3937007874015748},{"duration":0.38709599999999966,"midi":55,"time":105.870756,"velocity":0.3937007874015748},{"duration":0.19354799999999273,"midi":52,"time":106.257852,"velocity":0.3937007874015748},{"duration":0.19354799999999273,"midi":55,"time":106.257852,"velocity":0.3937007874015748},{"duration":0.19354799999999273,"midi":64,"time":106.257852,"velocity":0.3937007874015748},{"duration":0.19354799999999273,"midi":60,"time":106.257852,"velocity":0.3937007874015748},{"duration":0.19354799999999273,"midi":48,"time":106.257852,"velocity":0.3937007874015748},{"duration":0.19354800000000694,"midi":64,"time":106.45139999999999,"velocity":0.3937007874015748},{"duration":0.19354800000000694,"midi":52,"time":106.45139999999999,"velocity":0.3937007874015748},{"duration":0.19354800000000694,"midi":55,"time":106.45139999999999,"velocity":0.3937007874015748},{"duration":0.19354800000000694,"midi":60,"time":106.45139999999999,"velocity":0.3937007874015748},{"duration":0.19354800000000694,"midi":48,"time":106.45139999999999,"velocity":0.3937007874015748},{"duration":0.19354799999999273,"midi":55,"time":106.644948,"velocity":0.3937007874015748},{"duration":0.19354799999999273,"midi":48,"time":106.644948,"velocity":0.3937007874015748},{"duration":0.19354799999999273,"midi":52,"time":106.644948,"velocity":0.3937007874015748},{"duration":0.19354799999999273,"midi":60,"time":106.644948,"velocity":0.3937007874015748},{"duration":0.19354799999999273,"midi":64,"time":106.644948,"velocity":0.3937007874015748},{"duration":0.38709599999999966,"midi":60,"time":106.83849599999999,"velocity":0.3937007874015748},{"duration":0.38709599999999966,"midi":55,"time":106.83849599999999,"velocity":0.3937007874015748},{"duration":0.38709599999999966,"midi":48,"time":106.83849599999999,"velocity":0.3937007874015748},{"duration":0.38709599999999966,"midi":52,"time":106.83849599999999,"velocity":0.3937007874015748},{"duration":0.38709599999999966,"midi":64,"time":106.83849599999999,"velocity":0.3937007874015748},{"duration":0.19354800000000694,"midi":55,"time":107.22559199999999,"velocity":0.3937007874015748},{"duration":0.19354800000000694,"midi":48,"time":107.22559199999999,"velocity":0.3937007874015748},{"duration":0.19354800000000694,"midi":60,"time":107.22559199999999,"velocity":0.3937007874015748},{"duration":0.19354800000000694,"midi":64,"time":107.22559199999999,"velocity":0.3937007874015748},{"duration":0.19354800000000694,"midi":52,"time":107.22559199999999,"velocity":0.3937007874015748},{"duration":0.38709599999999966,"midi":48,"time":107.41914,"velocity":0.3937007874015748},{"duration":0.38709599999999966,"midi":55,"time":107.41914,"velocity":0.3937007874015748},{"duration":0.38709599999999966,"midi":60,"time":107.41914,"velocity":0.3937007874015748},{"duration":0.38709599999999966,"midi":52,"time":107.41914,"velocity":0.3937007874015748},{"duration":0.38709599999999966,"midi":64,"time":107.41914,"velocity":0.3937007874015748},{"duration":0.19354800000000694,"midi":64,"time":107.806236,"velocity":0.3937007874015748},{"duration":0.19354800000000694,"midi":48,"time":107.806236,"velocity":0.3937007874015748},{"duration":0.19354800000000694,"midi":52,"time":107.806236,"velocity":0.3937007874015748},{"duration":0.19354800000000694,"midi":55,"time":107.806236,"velocity":0.3937007874015748},{"duration":0.19354800000000694,"midi":60,"time":107.806236,"velocity":0.3937007874015748},{"duration":0.19354799999999273,"midi":64,"time":107.999784,"velocity":0.3937007874015748},{"duration":0.19354799999999273,"midi":60,"time":107.999784,"velocity":0.3937007874015748},{"duration":0.19354799999999273,"midi":52,"time":107.999784,"velocity":0.3937007874015748},{"duration":0.19354799999999273,"midi":48,"time":107.999784,"velocity":0.3937007874015748},{"duration":0.19354799999999273,"midi":55,"time":107.999784,"velocity":0.3937007874015748},{"duration":0.19354800000000694,"midi":48,"time":108.193332,"velocity":0.3937007874015748},{"duration":0.19354800000000694,"midi":64,"time":108.193332,"velocity":0.3937007874015748},{"duration":0.19354800000000694,"midi":55,"time":108.193332,"velocity":0.3937007874015748},{"duration":0.19354800000000694,"midi":52,"time":108.193332,"velocity":0.3937007874015748},{"duration":0.19354800000000694,"midi":60,"time":108.193332,"velocity":0.3937007874015748},{"duration":0.38709599999999966,"midi":62,"time":108.38688,"velocity":0.3937007874015748},{"duration":0.38709599999999966,"midi":50,"time":108.38688,"velocity":0.3937007874015748},{"duration":0.38709599999999966,"midi":66,"time":108.38688,"velocity":0.3937007874015748},{"duration":0.38709599999999966,"midi":57,"time":108.38688,"velocity":0.3937007874015748},{"duration":0.38709599999999966,"midi":66,"time":108.773976,"velocity":0.3937007874015748},{"duration":0.38709599999999966,"midi":57,"time":108.773976,"velocity":0.3937007874015748},{"duration":0.38709599999999966,"midi":50,"time":108.773976,"velocity":0.3937007874015748},{"duration":0.38709599999999966,"midi":62,"time":108.773976,"velocity":0.3937007874015748},{"duration":0.38709599999999966,"midi":64,"time":109.161072,"velocity":0.3937007874015748},{"duration":0.38709599999999966,"midi":59,"time":109.161072,"velocity":0.3937007874015748},{"duration":0.38709599999999966,"midi":40,"time":109.161072,"velocity":0.3937007874015748},{"duration":0.38709599999999966,"midi":47,"time":109.161072,"velocity":0.3937007874015748},{"duration":0.38709599999999966,"midi":52,"time":109.161072,"velocity":0.3937007874015748},{"duration":0.38709599999999966,"midi":55,"time":109.161072,"velocity":0.3937007874015748},{"duration":0.19354799999999273,"midi":59,"time":109.548168,"velocity":0.3937007874015748},{"duration":0.19354799999999273,"midi":55,"time":109.548168,"velocity":0.3937007874015748},{"duration":0.19354799999999273,"midi":47,"time":109.548168,"velocity":0.3937007874015748},{"duration":0.19354799999999273,"midi":40,"time":109.548168,"velocity":0.3937007874015748},{"duration":0.19354799999999273,"midi":64,"time":109.548168,"velocity":0.3937007874015748},{"duration":0.19354799999999273,"midi":52,"time":109.548168,"velocity":0.3937007874015748},{"duration":0.38709599999999966,"midi":59,"time":109.741716,"velocity":0.3937007874015748},{"duration":0.38709599999999966,"midi":55,"time":109.741716,"velocity":0.3937007874015748},{"duration":0.38709599999999966,"midi":52,"time":109.741716,"velocity":0.3937007874015748},{"duration":0.38709599999999966,"midi":40,"time":109.741716,"velocity":0.3937007874015748},{"duration":0.38709599999999966,"midi":64,"time":109.741716,"velocity":0.3937007874015748},{"duration":0.38709599999999966,"midi":47,"time":109.741716,"velocity":0.3937007874015748},{"duration":0.19354800000000694,"midi":64,"time":110.128812,"velocity":0.3937007874015748},{"duration":0.19354800000000694,"midi":59,"time":110.128812,"velocity":0.3937007874015748},{"duration":0.19354800000000694,"midi":52,"time":110.128812,"velocity":0.3937007874015748},{"duration":0.19354800000000694,"midi":40,"time":110.128812,"velocity":0.3937007874015748},{"duration":0.19354800000000694,"midi":47,"time":110.128812,"velocity":0.3937007874015748},{"duration":0.19354800000000694,"midi":55,"time":110.128812,"velocity":0.3937007874015748},{"duration":0.19354799999999273,"midi":59,"time":110.32236,"velocity":0.3937007874015748},{"duration":0.19354799999999273,"midi":64,"time":110.32236,"velocity":0.3937007874015748},{"duration":0.19354799999999273,"midi":40,"time":110.32236,"velocity":0.3937007874015748},{"duration":0.19354799999999273,"midi":55,"time":110.32236,"velocity":0.3937007874015748},{"duration":0.19354799999999273,"midi":52,"time":110.32236,"velocity":0.3937007874015748},{"duration":0.19354799999999273,"midi":47,"time":110.32236,"velocity":0.3937007874015748},{"duration":0.19354800000000694,"midi":64,"time":110.515908,"velocity":0.3937007874015748},{"duration":0.19354800000000694,"midi":47,"time":110.515908,"velocity":0.3937007874015748},{"duration":0.19354800000000694,"midi":52,"time":110.515908,"velocity":0.3937007874015748},{"duration":0.19354800000000694,"midi":40,"time":110.515908,"velocity":0.3937007874015748},{"duration":0.19354800000000694,"midi":55,"time":110.515908,"velocity":0.3937007874015748},{"duration":0.19354800000000694,"midi":59,"time":110.515908,"velocity":0.3937007874015748},{"duration":0.38709599999999966,"midi":59,"time":110.709456,"velocity":0.3937007874015748},{"duration":0.38709599999999966,"midi":55,"time":110.709456,"velocity":0.3937007874015748},{"duration":0.38709599999999966,"midi":40,"time":110.709456,"velocity":0.3937007874015748},{"duration":0.38709599999999966,"midi":52,"time":110.709456,"velocity":0.3937007874015748},{"duration":0.38709599999999966,"midi":64,"time":110.709456,"velocity":0.3937007874015748},{"duration":0.38709599999999966,"midi":47,"time":110.709456,"velocity":0.3937007874015748},{"duration":0.19354799999999273,"midi":55,"time":111.096552,"velocity":0.3937007874015748},{"duration":0.19354799999999273,"midi":59,"time":111.096552,"velocity":0.3937007874015748},{"duration":0.19354799999999273,"midi":40,"time":111.096552,"velocity":0.3937007874015748},{"duration":0.19354799999999273,"midi":52,"time":111.096552,"velocity":0.3937007874015748},{"duration":0.19354799999999273,"midi":64,"time":111.096552,"velocity":0.3937007874015748},{"duration":0.19354799999999273,"midi":47,"time":111.096552,"velocity":0.3937007874015748},{"duration":0.38709599999999966,"midi":40,"time":111.2901,"velocity":0.3937007874015748},{"duration":0.38709599999999966,"midi":47,"time":111.2901,"velocity":0.3937007874015748},{"duration":0.38709599999999966,"midi":52,"time":111.2901,"velocity":0.3937007874015748},{"duration":0.38709599999999966,"midi":55,"time":111.2901,"velocity":0.3937007874015748},{"duration":0.38709599999999966,"midi":59,"time":111.2901,"velocity":0.3937007874015748},{"duration":0.38709599999999966,"midi":64,"time":111.2901,"velocity":0.3937007874015748},{"duration":0.19354800000000694,"midi":59,"time":111.677196,"velocity":0.3937007874015748},{"duration":0.19354800000000694,"midi":55,"time":111.677196,"velocity":0.3937007874015748},{"duration":0.19354800000000694,"midi":40,"time":111.677196,"velocity":0.3937007874015748},{"duration":0.19354800000000694,"midi":47,"time":111.677196,"velocity":0.3937007874015748},{"duration":0.19354800000000694,"midi":52,"time":111.677196,"velocity":0.3937007874015748},{"duration":0.19354800000000694,"midi":64,"time":111.677196,"velocity":0.3937007874015748},{"duration":0.19354799999999273,"midi":59,"time":111.870744,"velocity":0.3937007874015748},{"duration":0.19354799999999273,"midi":55,"time":111.870744,"velocity":0.3937007874015748},{"duration":0.19354799999999273,"midi":47,"time":111.870744,"velocity":0.3937007874015748},{"duration":0.19354799999999273,"midi":40,"time":111.870744,"velocity":0.3937007874015748},{"duration":0.19354799999999273,"midi":52,"time":111.870744,"velocity":0.3937007874015748},{"duration":0.19354799999999273,"midi":64,"time":111.870744,"velocity":0.3937007874015748},{"duration":0.19354800000000694,"midi":64,"time":112.064292,"velocity":0.3937007874015748},{"duration":0.19354800000000694,"midi":47,"time":112.064292,"velocity":0.3937007874015748},{"duration":0.19354800000000694,"midi":55,"time":112.064292,"velocity":0.3937007874015748},{"duration":0.19354800000000694,"midi":40,"time":112.064292,"velocity":0.3937007874015748},{"duration":0.19354800000000694,"midi":52,"time":112.064292,"velocity":0.3937007874015748},{"duration":0.19354800000000694,"midi":59,"time":112.064292,"velocity":0.3937007874015748},{"duration":0.38709599999999966,"midi":55,"time":112.25784,"velocity":0.3937007874015748},{"duration":0.38709599999999966,"midi":47,"time":112.25784,"velocity":0.3937007874015748},{"duration":0.38709599999999966,"midi":50,"time":112.25784,"velocity":0.3937007874015748},{"duration":0.38709599999999966,"midi":67,"time":112.25784,"velocity":0.3937007874015748},{"duration":0.38709599999999966,"midi":43,"time":112.25784,"velocity":0.3937007874015748},{"duration":0.38709599999999966,"midi":59,"time":112.25784,"velocity":0.3937007874015748},{"duration":0.19354799999999273,"midi":59,"time":112.644936,"velocity":0.3937007874015748},{"duration":0.19354799999999273,"midi":67,"time":112.644936,"velocity":0.3937007874015748},{"duration":0.19354799999999273,"midi":47,"time":112.644936,"velocity":0.3937007874015748},{"duration":0.19354799999999273,"midi":43,"time":112.644936,"velocity":0.3937007874015748},{"duration":0.19354799999999273,"midi":50,"time":112.644936,"velocity":0.3937007874015748},{"duration":0.19354799999999273,"midi":55,"time":112.644936,"velocity":0.3937007874015748},{"duration":0.38709599999999966,"midi":55,"time":112.838484,"velocity":0.3937007874015748},{"duration":0.38709599999999966,"midi":50,"time":112.838484,"velocity":0.3937007874015748},{"duration":0.38709599999999966,"midi":43,"time":112.838484,"velocity":0.3937007874015748},{"duration":0.38709599999999966,"midi":59,"time":112.838484,"velocity":0.3937007874015748},{"duration":0.38709599999999966,"midi":67,"time":112.838484,"velocity":0.3937007874015748},{"duration":0.38709599999999966,"midi":47,"time":112.838484,"velocity":0.3937007874015748},{"duration":0.19354800000000694,"midi":67,"time":113.22558,"velocity":0.3937007874015748},{"duration":0.19354800000000694,"midi":47,"time":113.22558,"velocity":0.3937007874015748},{"duration":0.19354800000000694,"midi":55,"time":113.22558,"velocity":0.3937007874015748},{"duration":0.19354800000000694,"midi":43,"time":113.22558,"velocity":0.3937007874015748},{"duration":0.19354800000000694,"midi":59,"time":113.22558,"velocity":0.3937007874015748},{"duration":0.19354800000000694,"midi":50,"time":113.22558,"velocity":0.3937007874015748},{"duration":0.19354799999999273,"midi":43,"time":113.419128,"velocity":0.3937007874015748},{"duration":0.19354799999999273,"midi":47,"time":113.419128,"velocity":0.3937007874015748},{"duration":0.19354799999999273,"midi":50,"time":113.419128,"velocity":0.3937007874015748},{"duration":0.19354799999999273,"midi":55,"time":113.419128,"velocity":0.3937007874015748},{"duration":0.19354799999999273,"midi":59,"time":113.419128,"velocity":0.3937007874015748},{"duration":0.19354799999999273,"midi":67,"time":113.419128,"velocity":0.3937007874015748},{"duration":0.19354800000000694,"midi":47,"time":113.612676,"velocity":0.3937007874015748},{"duration":0.19354800000000694,"midi":43,"time":113.612676,"velocity":0.3937007874015748},{"duration":0.19354800000000694,"midi":50,"time":113.612676,"velocity":0.3937007874015748},{"duration":0.19354800000000694,"midi":67,"time":113.612676,"velocity":0.3937007874015748},{"duration":0.19354800000000694,"midi":55,"time":113.612676,"velocity":0.3937007874015748},{"duration":0.19354800000000694,"midi":59,"time":113.612676,"velocity":0.3937007874015748},{"duration":0.38709599999999966,"midi":64,"time":113.806224,"velocity":0.3937007874015748},{"duration":0.38709599999999966,"midi":60,"time":113.806224,"velocity":0.3937007874015748},{"duration":0.38709599999999966,"midi":52,"time":113.806224,"velocity":0.3937007874015748},{"duration":0.38709599999999966,"midi":48,"time":113.806224,"velocity":0.3937007874015748},{"duration":0.38709599999999966,"midi":55,"time":113.806224,"velocity":0.3937007874015748},{"duration":0.19354799999999273,"midi":64,"time":114.19332,"velocity":0.3937007874015748},{"duration":0.19354799999999273,"midi":52,"time":114.19332,"velocity":0.3937007874015748},{"duration":0.19354799999999273,"midi":55,"time":114.19332,"velocity":0.3937007874015748},{"duration":0.19354799999999273,"midi":48,"time":114.19332,"velocity":0.3937007874015748},{"duration":0.19354799999999273,"midi":60,"time":114.19332,"velocity":0.3937007874015748},{"duration":0.38709599999999966,"midi":48,"time":114.38686799999999,"velocity":0.3937007874015748},{"duration":0.38709599999999966,"midi":52,"time":114.38686799999999,"velocity":0.3937007874015748},{"duration":0.38709599999999966,"midi":55,"time":114.38686799999999,"velocity":0.3937007874015748},{"duration":0.38709599999999966,"midi":60,"time":114.38686799999999,"velocity":0.3937007874015748},{"duration":0.38709599999999966,"midi":64,"time":114.38686799999999,"velocity":0.3937007874015748},{"duration":0.19354800000000694,"midi":60,"time":114.77396399999999,"velocity":0.3937007874015748},{"duration":0.19354800000000694,"midi":55,"time":114.77396399999999,"velocity":0.3937007874015748},{"duration":0.19354800000000694,"midi":48,"time":114.77396399999999,"velocity":0.3937007874015748},{"duration":0.19354800000000694,"midi":64,"time":114.77396399999999,"velocity":0.3937007874015748},{"duration":0.19354800000000694,"midi":52,"time":114.77396399999999,"velocity":0.3937007874015748},{"duration":0.19354799999999273,"midi":55,"time":114.967512,"velocity":0.3937007874015748},{"duration":0.19354799999999273,"midi":48,"time":114.967512,"velocity":0.3937007874015748},{"duration":0.19354799999999273,"midi":60,"time":114.967512,"velocity":0.3937007874015748},{"duration":0.19354799999999273,"midi":64,"time":114.967512,"velocity":0.3937007874015748},{"duration":0.19354799999999273,"midi":52,"time":114.967512,"velocity":0.3937007874015748},{"duration":0.19354800000000694,"midi":60,"time":115.16105999999999,"velocity":0.3937007874015748},{"duration":0.19354800000000694,"midi":55,"time":115.16105999999999,"velocity":0.3937007874015748},{"duration":0.19354800000000694,"midi":48,"time":115.16105999999999,"velocity":0.3937007874015748},{"duration":0.19354800000000694,"midi":52,"time":115.16105999999999,"velocity":0.3937007874015748},{"duration":0.19354800000000694,"midi":64,"time":115.16105999999999,"velocity":0.3937007874015748},{"duration":0.38709599999999966,"midi":64,"time":115.354608,"velocity":0.3937007874015748},{"duration":0.38709599999999966,"midi":60,"time":115.354608,"velocity":0.3937007874015748},{"duration":0.38709599999999966,"midi":52,"time":115.354608,"velocity":0.3937007874015748},{"duration":0.38709599999999966,"midi":48,"time":115.354608,"velocity":0.3937007874015748},{"duration":0.38709599999999966,"midi":55,"time":115.354608,"velocity":0.3937007874015748},{"duration":0.19354800000000694,"midi":55,"time":115.741704,"velocity":0.3937007874015748},{"duration":0.19354800000000694,"midi":48,"time":115.741704,"velocity":0.3937007874015748},{"duration":0.19354800000000694,"midi":60,"time":115.741704,"velocity":0.3937007874015748},{"duration":0.19354800000000694,"midi":64,"time":115.741704,"velocity":0.3937007874015748},{"duration":0.19354800000000694,"midi":52,"time":115.741704,"velocity":0.3937007874015748},{"duration":0.38709599999999966,"midi":64,"time":115.935252,"velocity":0.3937007874015748},{"duration":0.38709599999999966,"midi":48,"time":115.935252,"velocity":0.3937007874015748},{"duration":0.38709599999999966,"midi":52,"time":115.935252,"velocity":0.3937007874015748},{"duration":0.38709599999999966,"midi":55,"time":115.935252,"velocity":0.3937007874015748},{"duration":0.38709599999999966,"midi":60,"time":115.935252,"velocity":0.3937007874015748},{"duration":0.19354799999999273,"midi":60,"time":116.322348,"velocity":0.3937007874015748},{"duration":0.19354799999999273,"midi":64,"time":116.322348,"velocity":0.3937007874015748},{"duration":0.19354799999999273,"midi":52,"time":116.322348,"velocity":0.3937007874015748},{"duration":0.19354799999999273,"midi":48,"time":116.322348,"velocity":0.3937007874015748},{"duration":0.19354799999999273,"midi":55,"time":116.322348,"velocity":0.3937007874015748},{"duration":0.19354800000000694,"midi":55,"time":116.515896,"velocity":0.3937007874015748},{"duration":0.19354800000000694,"midi":48,"time":116.515896,"velocity":0.3937007874015748},{"duration":0.19354800000000694,"midi":64,"time":116.515896,"velocity":0.3937007874015748},{"duration":0.19354800000000694,"midi":60,"time":116.515896,"velocity":0.3937007874015748},{"duration":0.19354800000000694,"midi":52,"time":116.515896,"velocity":0.3937007874015748},{"duration":0.19354799999999273,"midi":48,"time":116.709444,"velocity":0.3937007874015748},{"duration":0.19354799999999273,"midi":52,"time":116.709444,"velocity":0.3937007874015748},{"duration":0.19354799999999273,"midi":55,"time":116.709444,"velocity":0.3937007874015748},{"duration":0.19354799999999273,"midi":60,"time":116.709444,"velocity":0.3937007874015748},{"duration":0.19354799999999273,"midi":64,"time":116.709444,"velocity":0.3937007874015748},{"duration":0.38709599999999966,"midi":50,"time":116.902992,"velocity":0.3937007874015748},{"duration":0.38709599999999966,"midi":57,"time":116.902992,"velocity":0.3937007874015748},{"duration":0.38709599999999966,"midi":66,"time":116.902992,"velocity":0.3937007874015748},{"duration":0.38709599999999966,"midi":62,"time":116.902992,"velocity":0.3937007874015748},{"duration":0.38709599999999966,"midi":66,"time":117.290088,"velocity":0.3937007874015748},{"duration":0.38709599999999966,"midi":50,"time":117.290088,"velocity":0.3937007874015748},{"duration":0.38709599999999966,"midi":62,"time":117.290088,"velocity":0.3937007874015748},{"duration":0.38709599999999966,"midi":57,"time":117.290088,"velocity":0.3937007874015748},{"duration":0.38709599999999966,"midi":64,"time":117.677184,"velocity":0.3937007874015748},{"duration":0.38709599999999966,"midi":59,"time":117.677184,"velocity":0.3937007874015748},{"duration":0.38709599999999966,"midi":52,"time":117.677184,"velocity":0.3937007874015748},{"duration":0.38709599999999966,"midi":40,"time":117.677184,"velocity":0.3937007874015748},{"duration":0.38709599999999966,"midi":47,"time":117.677184,"velocity":0.3937007874015748},{"duration":0.38709599999999966,"midi":55,"time":117.677184,"velocity":0.3937007874015748},{"duration":0.19354800000000694,"midi":47,"time":118.06428,"velocity":0.3937007874015748},{"duration":0.19354800000000694,"midi":52,"time":118.06428,"velocity":0.3937007874015748},{"duration":0.19354800000000694,"midi":40,"time":118.06428,"velocity":0.3937007874015748},{"duration":0.19354800000000694,"midi":55,"time":118.06428,"velocity":0.3937007874015748},{"duration":0.19354800000000694,"midi":59,"time":118.06428,"velocity":0.3937007874015748},{"duration":0.19354800000000694,"midi":64,"time":118.06428,"velocity":0.3937007874015748},{"duration":0.38709599999999966,"midi":64,"time":118.257828,"velocity":0.3937007874015748},{"duration":0.38709599999999966,"midi":47,"time":118.257828,"velocity":0.3937007874015748},{"duration":0.38709599999999966,"midi":40,"time":118.257828,"velocity":0.3937007874015748},{"duration":0.38709599999999966,"midi":52,"time":118.257828,"velocity":0.3937007874015748},{"duration":0.38709599999999966,"midi":59,"time":118.257828,"velocity":0.3937007874015748},{"duration":0.38709599999999966,"midi":55,"time":118.257828,"velocity":0.3937007874015748},{"duration":0.19354799999999273,"midi":40,"time":118.644924,"velocity":0.3937007874015748},{"duration":0.19354799999999273,"midi":47,"time":118.644924,"velocity":0.3937007874015748},{"duration":0.19354799999999273,"midi":52,"time":118.644924,"velocity":0.3937007874015748},{"duration":0.19354799999999273,"midi":55,"time":118.644924,"velocity":0.3937007874015748},{"duration":0.19354799999999273,"midi":59,"time":118.644924,"velocity":0.3937007874015748},{"duration":0.19354799999999273,"midi":64,"time":118.644924,"velocity":0.3937007874015748},{"duration":0.19354800000000694,"midi":59,"time":118.838472,"velocity":0.3937007874015748},{"duration":0.19354800000000694,"midi":64,"time":118.838472,"velocity":0.3937007874015748},{"duration":0.19354800000000694,"midi":52,"time":118.838472,"velocity":0.3937007874015748},{"duration":0.19354800000000694,"midi":47,"time":118.838472,"velocity":0.3937007874015748},{"duration":0.19354800000000694,"midi":40,"time":118.838472,"velocity":0.3937007874015748},{"duration":0.19354800000000694,"midi":55,"time":118.838472,"velocity":0.3937007874015748},{"duration":0.19354799999999273,"midi":64,"time":119.03202,"velocity":0.3937007874015748},{"duration":0.19354799999999273,"midi":59,"time":119.03202,"velocity":0.3937007874015748},{"duration":0.19354799999999273,"midi":47,"time":119.03202,"velocity":0.3937007874015748},{"duration":0.19354799999999273,"midi":40,"time":119.03202,"velocity":0.3937007874015748},{"duration":0.19354799999999273,"midi":52,"time":119.03202,"velocity":0.3937007874015748},{"duration":0.19354799999999273,"midi":55,"time":119.03202,"velocity":0.3937007874015748},{"duration":0.38709599999999966,"midi":47,"time":119.225568,"velocity":0.3937007874015748},{"duration":0.38709599999999966,"midi":52,"time":119.225568,"velocity":0.3937007874015748},{"duration":0.38709599999999966,"midi":64,"time":119.225568,"velocity":0.3937007874015748},{"duration":0.38709599999999966,"midi":55,"time":119.225568,"velocity":0.3937007874015748},{"duration":0.38709599999999966,"midi":59,"time":119.225568,"velocity":0.3937007874015748},{"duration":0.38709599999999966,"midi":40,"time":119.225568,"velocity":0.3937007874015748},{"duration":0.19354800000000694,"midi":55,"time":119.612664,"velocity":0.3937007874015748},{"duration":0.19354800000000694,"midi":59,"time":119.612664,"velocity":0.3937007874015748},{"duration":0.19354800000000694,"midi":40,"time":119.612664,"velocity":0.3937007874015748},{"duration":0.19354800000000694,"midi":47,"time":119.612664,"velocity":0.3937007874015748},{"duration":0.19354800000000694,"midi":64,"time":119.612664,"velocity":0.3937007874015748},{"duration":0.19354800000000694,"midi":52,"time":119.612664,"velocity":0.3937007874015748},{"duration":0.38709599999999966,"midi":40,"time":119.806212,"velocity":0.3937007874015748},{"duration":0.38709599999999966,"midi":47,"time":119.806212,"velocity":0.3937007874015748},{"duration":0.38709599999999966,"midi":52,"time":119.806212,"velocity":0.3937007874015748},{"duration":0.38709599999999966,"midi":55,"time":119.806212,"velocity":0.3937007874015748},{"duration":0.38709599999999966,"midi":59,"time":119.806212,"velocity":0.3937007874015748},{"duration":0.38709599999999966,"midi":64,"time":119.806212,"velocity":0.3937007874015748},{"duration":0.19354799999999273,"midi":55,"time":120.193308,"velocity":0.3937007874015748},{"duration":0.19354799999999273,"midi":59,"time":120.193308,"velocity":0.3937007874015748},{"duration":0.19354799999999273,"midi":40,"time":120.193308,"velocity":0.3937007874015748},{"duration":0.19354799999999273,"midi":52,"time":120.193308,"velocity":0.3937007874015748},{"duration":0.19354799999999273,"midi":64,"time":120.193308,"velocity":0.3937007874015748},{"duration":0.19354799999999273,"midi":47,"time":120.193308,"velocity":0.3937007874015748},{"duration":0.19354800000000694,"midi":40,"time":120.386856,"velocity":0.3937007874015748},{"duration":0.19354800000000694,"midi":47,"time":120.386856,"velocity":0.3937007874015748},{"duration":0.19354800000000694,"midi":52,"time":120.386856,"velocity":0.3937007874015748},{"duration":0.19354800000000694,"midi":55,"time":120.386856,"velocity":0.3937007874015748},{"duration":0.19354800000000694,"midi":59,"time":120.386856,"velocity":0.3937007874015748},{"duration":0.19354800000000694,"midi":64,"time":120.386856,"velocity":0.3937007874015748},{"duration":0.19354799999999273,"midi":59,"time":120.580404,"velocity":0.3937007874015748},{"duration":0.19354799999999273,"midi":55,"time":120.580404,"velocity":0.3937007874015748},{"duration":0.19354799999999273,"midi":64,"time":120.580404,"velocity":0.3937007874015748},{"duration":0.19354799999999273,"midi":47,"time":120.580404,"velocity":0.3937007874015748},{"duration":0.19354799999999273,"midi":40,"time":120.580404,"velocity":0.3937007874015748},{"duration":0.19354799999999273,"midi":52,"time":120.580404,"velocity":0.3937007874015748},{"duration":0.38709599999999966,"midi":59,"time":120.773952,"velocity":0.3937007874015748},{"duration":0.38709599999999966,"midi":55,"time":120.773952,"velocity":0.3937007874015748},{"duration":0.38709599999999966,"midi":47,"time":120.773952,"velocity":0.3937007874015748},{"duration":0.38709599999999966,"midi":43,"time":120.773952,"velocity":0.3937007874015748},{"duration":0.38709599999999966,"midi":50,"time":120.773952,"velocity":0.3937007874015748},{"duration":0.38709599999999966,"midi":67,"time":120.773952,"velocity":0.3937007874015748},{"duration":0.19354800000000694,"midi":67,"time":121.161048,"velocity":0.3937007874015748},{"duration":0.19354800000000694,"midi":47,"time":121.161048,"velocity":0.3937007874015748},{"duration":0.19354800000000694,"midi":55,"time":121.161048,"velocity":0.3937007874015748},{"duration":0.19354800000000694,"midi":43,"time":121.161048,"velocity":0.3937007874015748},{"duration":0.19354800000000694,"midi":50,"time":121.161048,"velocity":0.3937007874015748},{"duration":0.19354800000000694,"midi":59,"time":121.161048,"velocity":0.3937007874015748},{"duration":0.38709599999999966,"midi":59,"time":121.354596,"velocity":0.3937007874015748},{"duration":0.38709599999999966,"midi":55,"time":121.354596,"velocity":0.3937007874015748},{"duration":0.38709599999999966,"midi":43,"time":121.354596,"velocity":0.3937007874015748},{"duration":0.38709599999999966,"midi":67,"time":121.354596,"velocity":0.3937007874015748},{"duration":0.38709599999999966,"midi":50,"time":121.354596,"velocity":0.3937007874015748},{"duration":0.38709599999999966,"midi":47,"time":121.354596,"velocity":0.3937007874015748},{"duration":0.19354799999999273,"midi":50,"time":121.741692,"velocity":0.3937007874015748},{"duration":0.19354799999999273,"midi":67,"time":121.741692,"velocity":0.3937007874015748},{"duration":0.19354799999999273,"midi":47,"time":121.741692,"velocity":0.3937007874015748},{"duration":0.19354799999999273,"midi":55,"time":121.741692,"velocity":0.3937007874015748},{"duration":0.19354799999999273,"midi":59,"time":121.741692,"velocity":0.3937007874015748},{"duration":0.19354799999999273,"midi":43,"time":121.741692,"velocity":0.3937007874015748},{"duration":0.19354800000000694,"midi":43,"time":121.93524,"velocity":0.3937007874015748},{"duration":0.19354800000000694,"midi":47,"time":121.93524,"velocity":0.3937007874015748},{"duration":0.19354800000000694,"midi":50,"time":121.93524,"velocity":0.3937007874015748},{"duration":0.19354800000000694,"midi":55,"time":121.93524,"velocity":0.3937007874015748},{"duration":0.19354800000000694,"midi":59,"time":121.93524,"velocity":0.3937007874015748},{"duration":0.19354800000000694,"midi":67,"time":121.93524,"velocity":0.3937007874015748},{"duration":0.19354799999999273,"midi":47,"time":122.128788,"velocity":0.3937007874015748},{"duration":0.19354799999999273,"midi":67,"time":122.128788,"velocity":0.3937007874015748},{"duration":0.19354799999999273,"midi":55,"time":122.128788,"velocity":0.3937007874015748},{"duration":0.19354799999999273,"midi":43,"time":122.128788,"velocity":0.3937007874015748},{"duration":0.19354799999999273,"midi":59,"time":122.128788,"velocity":0.3937007874015748},{"duration":0.19354799999999273,"midi":50,"time":122.128788,"velocity":0.3937007874015748},{"duration":0.38709599999999966,"midi":55,"time":122.32233599999999,"velocity":0.3937007874015748},{"duration":0.38709599999999966,"midi":48,"time":122.32233599999999,"velocity":0.3937007874015748},{"duration":0.38709599999999966,"midi":60,"time":122.32233599999999,"velocity":0.3937007874015748},{"duration":0.38709599999999966,"midi":64,"time":122.32233599999999,"velocity":0.3937007874015748},{"duration":0.38709599999999966,"midi":52,"time":122.32233599999999,"velocity":0.3937007874015748},{"duration":0.19354800000000694,"midi":48,"time":122.70943199999999,"velocity":0.3937007874015748},{"duration":0.19354800000000694,"midi":64,"time":122.70943199999999,"velocity":0.3937007874015748},{"duration":0.19354800000000694,"midi":52,"time":122.70943199999999,"velocity":0.3937007874015748},{"duration":0.19354800000000694,"midi":55,"time":122.70943199999999,"velocity":0.3937007874015748},{"duration":0.19354800000000694,"midi":60,"time":122.70943199999999,"velocity":0.3937007874015748},{"duration":0.38709599999999966,"midi":60,"time":122.90298,"velocity":0.3937007874015748},{"duration":0.38709599999999966,"midi":52,"time":122.90298,"velocity":0.3937007874015748},{"duration":0.38709599999999966,"midi":64,"time":122.90298,"velocity":0.3937007874015748},{"duration":0.38709599999999966,"midi":48,"time":122.90298,"velocity":0.3937007874015748},{"duration":0.38709599999999966,"midi":55,"time":122.90298,"velocity":0.3937007874015748},{"duration":0.19354799999999273,"midi":55,"time":123.290076,"velocity":0.3937007874015748},{"duration":0.19354799999999273,"midi":48,"time":123.290076,"velocity":0.3937007874015748},{"duration":0.19354799999999273,"midi":60,"time":123.290076,"velocity":0.3937007874015748},{"duration":0.19354799999999273,"midi":64,"time":123.290076,"velocity":0.3937007874015748},{"duration":0.19354799999999273,"midi":52,"time":123.290076,"velocity":0.3937007874015748},{"duration":0.19354800000000694,"midi":60,"time":123.48362399999999,"velocity":0.3937007874015748},{"duration":0.19354800000000694,"midi":48,"time":123.48362399999999,"velocity":0.3937007874015748},{"duration":0.19354800000000694,"midi":52,"time":123.48362399999999,"velocity":0.3937007874015748},{"duration":0.19354800000000694,"midi":55,"time":123.48362399999999,"velocity":0.3937007874015748},{"duration":0.19354800000000694,"midi":64,"time":123.48362399999999,"velocity":0.3937007874015748},{"duration":0.19354800000000694,"midi":60,"time":123.677172,"velocity":0.3937007874015748},{"duration":0.19354800000000694,"midi":64,"time":123.677172,"velocity":0.3937007874015748},{"duration":0.19354800000000694,"midi":52,"time":123.677172,"velocity":0.3937007874015748},{"duration":0.19354800000000694,"midi":48,"time":123.677172,"velocity":0.3937007874015748},{"duration":0.19354800000000694,"midi":55,"time":123.677172,"velocity":0.3937007874015748},{"duration":0.38709599999999966,"midi":55,"time":123.87072,"velocity":0.3937007874015748},{"duration":0.38709599999999966,"midi":48,"time":123.87072,"velocity":0.3937007874015748},{"duration":0.38709599999999966,"midi":60,"time":123.87072,"velocity":0.3937007874015748},{"duration":0.38709599999999966,"midi":64,"time":123.87072,"velocity":0.3937007874015748},{"duration":0.38709599999999966,"midi":52,"time":123.87072,"velocity":0.3937007874015748},{"duration":0.19354799999999273,"midi":64,"time":124.257816,"velocity":0.3937007874015748},{"duration":0.19354799999999273,"midi":48,"time":124.257816,"velocity":0.3937007874015748},{"duration":0.19354799999999273,"midi":52,"time":124.257816,"velocity":0.3937007874015748},{"duration":0.19354799999999273,"midi":55,"time":124.257816,"velocity":0.3937007874015748},{"duration":0.19354799999999273,"midi":60,"time":124.257816,"velocity":0.3937007874015748},{"duration":0.38709599999999966,"midi":64,"time":124.451364,"velocity":0.3937007874015748},{"duration":0.38709599999999966,"midi":55,"time":124.451364,"velocity":0.3937007874015748},{"duration":0.38709599999999966,"midi":52,"time":124.451364,"velocity":0.3937007874015748},{"duration":0.38709599999999966,"midi":48,"time":124.451364,"velocity":0.3937007874015748},{"duration":0.38709599999999966,"midi":60,"time":124.451364,"velocity":0.3937007874015748},{"duration":0.19354800000000694,"midi":55,"time":124.83846,"velocity":0.3937007874015748},{"duration":0.19354800000000694,"midi":48,"time":124.83846,"velocity":0.3937007874015748},{"duration":0.19354800000000694,"midi":60,"time":124.83846,"velocity":0.3937007874015748},{"duration":0.19354800000000694,"midi":64,"time":124.83846,"velocity":0.3937007874015748},{"duration":0.19354800000000694,"midi":52,"time":124.83846,"velocity":0.3937007874015748},{"duration":0.19354799999999273,"midi":60,"time":125.032008,"velocity":0.3937007874015748},{"duration":0.19354799999999273,"midi":64,"time":125.032008,"velocity":0.3937007874015748},{"duration":0.19354799999999273,"midi":48,"time":125.032008,"velocity":0.3937007874015748},{"duration":0.19354799999999273,"midi":52,"time":125.032008,"velocity":0.3937007874015748},{"duration":0.19354799999999273,"midi":55,"time":125.032008,"velocity":0.3937007874015748},{"duration":0.19354800000000694,"midi":52,"time":125.225556,"velocity":0.3937007874015748},{"duration":0.19354800000000694,"midi":64,"time":125.225556,"velocity":0.3937007874015748},{"duration":0.19354800000000694,"midi":55,"time":125.225556,"velocity":0.3937007874015748},{"duration":0.19354800000000694,"midi":48,"time":125.225556,"velocity":0.3937007874015748},{"duration":0.19354800000000694,"midi":60,"time":125.225556,"velocity":0.3937007874015748},{"duration":0.38709599999999966,"midi":57,"time":125.419104,"velocity":0.3937007874015748},{"duration":0.38709599999999966,"midi":62,"time":125.419104,"velocity":0.3937007874015748},{"duration":0.38709599999999966,"midi":66,"time":125.419104,"velocity":0.3937007874015748},{"duration":0.38709599999999966,"midi":50,"time":125.419104,"velocity":0.3937007874015748},{"duration":0.38709599999999966,"midi":66,"time":125.8062,"velocity":0.3937007874015748},{"duration":0.38709599999999966,"midi":57,"time":125.8062,"velocity":0.3937007874015748},{"duration":0.38709599999999966,"midi":62,"time":125.8062,"velocity":0.3937007874015748},{"duration":0.38709599999999966,"midi":50,"time":125.8062,"velocity":0.3937007874015748},{"duration":0.38709599999999966,"midi":40,"time":126.193296,"velocity":0.3937007874015748},{"duration":0.38709599999999966,"midi":64,"time":126.193296,"velocity":0.3937007874015748},{"duration":0.38709599999999966,"midi":52,"time":126.193296,"velocity":0.3937007874015748},{"duration":0.38709599999999966,"midi":47,"time":126.193296,"velocity":0.3937007874015748},{"duration":0.38709599999999966,"midi":55,"time":126.193296,"velocity":0.3937007874015748},{"duration":0.38709599999999966,"midi":59,"time":126.193296,"velocity":0.3937007874015748},{"duration":0.19354799999999273,"midi":59,"time":126.580392,"velocity":0.3937007874015748},{"duration":0.19354799999999273,"midi":64,"time":126.580392,"velocity":0.3937007874015748},{"duration":0.19354799999999273,"midi":47,"time":126.580392,"velocity":0.3937007874015748},{"duration":0.19354799999999273,"midi":40,"time":126.580392,"velocity":0.3937007874015748},{"duration":0.19354799999999273,"midi":52,"time":126.580392,"velocity":0.3937007874015748},{"duration":0.19354799999999273,"midi":55,"time":126.580392,"velocity":0.3937007874015748},{"duration":0.38709599999999966,"midi":64,"time":126.77394,"velocity":0.3937007874015748},{"duration":0.38709599999999966,"midi":55,"time":126.77394,"velocity":0.3937007874015748},{"duration":0.38709599999999966,"midi":40,"time":126.77394,"velocity":0.3937007874015748},{"duration":0.38709599999999966,"midi":52,"time":126.77394,"velocity":0.3937007874015748},{"duration":0.38709599999999966,"midi":47,"time":126.77394,"velocity":0.3937007874015748},{"duration":0.38709599999999966,"midi":59,"time":126.77394,"velocity":0.3937007874015748},{"duration":0.19354800000000694,"midi":55,"time":127.161036,"velocity":0.3937007874015748},{"duration":0.19354800000000694,"midi":59,"time":127.161036,"velocity":0.3937007874015748},{"duration":0.19354800000000694,"midi":40,"time":127.161036,"velocity":0.3937007874015748},{"duration":0.19354800000000694,"midi":47,"time":127.161036,"velocity":0.3937007874015748},{"duration":0.19354800000000694,"midi":64,"time":127.161036,"velocity":0.3937007874015748},{"duration":0.19354800000000694,"midi":52,"time":127.161036,"velocity":0.3937007874015748},{"duration":0.19354799999999273,"midi":59,"time":127.354584,"velocity":0.3937007874015748},{"duration":0.19354799999999273,"midi":55,"time":127.354584,"velocity":0.3937007874015748},{"duration":0.19354799999999273,"midi":47,"time":127.354584,"velocity":0.3937007874015748},{"duration":0.19354799999999273,"midi":52,"time":127.354584,"velocity":0.3937007874015748},{"duration":0.19354799999999273,"midi":64,"time":127.354584,"velocity":0.3937007874015748},{"duration":0.19354799999999273,"midi":40,"time":127.354584,"velocity":0.3937007874015748},{"duration":0.19354800000000694,"midi":59,"time":127.548132,"velocity":0.3937007874015748},{"duration":0.19354800000000694,"midi":55,"time":127.548132,"velocity":0.3937007874015748},{"duration":0.19354800000000694,"midi":64,"time":127.548132,"velocity":0.3937007874015748},{"duration":0.19354800000000694,"midi":52,"time":127.548132,"velocity":0.3937007874015748},{"duration":0.19354800000000694,"midi":47,"time":127.548132,"velocity":0.3937007874015748},{"duration":0.19354800000000694,"midi":40,"time":127.548132,"velocity":0.3937007874015748},{"duration":0.38709599999998545,"midi":55,"time":127.74168,"velocity":0.3937007874015748},{"duration":0.38709599999998545,"midi":40,"time":127.74168,"velocity":0.3937007874015748},{"duration":0.38709599999998545,"midi":59,"time":127.74168,"velocity":0.3937007874015748},{"duration":0.38709599999998545,"midi":47,"time":127.74168,"velocity":0.3937007874015748},{"duration":0.38709599999998545,"midi":52,"time":127.74168,"velocity":0.3937007874015748},{"duration":0.38709599999998545,"midi":64,"time":127.74168,"velocity":0.3937007874015748},{"duration":0.19354800000002115,"midi":40,"time":128.128776,"velocity":0.3937007874015748},{"duration":0.19354800000002115,"midi":47,"time":128.128776,"velocity":0.3937007874015748},{"duration":0.19354800000002115,"midi":52,"time":128.128776,"velocity":0.3937007874015748},{"duration":0.19354800000002115,"midi":55,"time":128.128776,"velocity":0.3937007874015748},{"duration":0.19354800000002115,"midi":59,"time":128.128776,"velocity":0.3937007874015748},{"duration":0.19354800000002115,"midi":64,"time":128.128776,"velocity":0.3937007874015748},{"duration":0.38709599999998545,"midi":59,"time":128.322324,"velocity":0.3937007874015748},{"duration":0.38709599999998545,"midi":55,"time":128.322324,"velocity":0.3937007874015748},{"duration":0.38709599999998545,"midi":47,"time":128.322324,"velocity":0.3937007874015748},{"duration":0.38709599999998545,"midi":52,"time":128.322324,"velocity":0.3937007874015748},{"duration":0.38709599999998545,"midi":40,"time":128.322324,"velocity":0.3937007874015748},{"duration":0.38709599999998545,"midi":64,"time":128.322324,"velocity":0.3937007874015748},{"duration":0.19354799999999273,"midi":64,"time":128.70942,"velocity":0.3937007874015748},{"duration":0.19354799999999273,"midi":47,"time":128.70942,"velocity":0.3937007874015748},{"duration":0.19354799999999273,"midi":55,"time":128.70942,"velocity":0.3937007874015748},{"duration":0.19354799999999273,"midi":40,"time":128.70942,"velocity":0.3937007874015748},{"duration":0.19354799999999273,"midi":52,"time":128.70942,"velocity":0.3937007874015748},{"duration":0.19354799999999273,"midi":59,"time":128.70942,"velocity":0.3937007874015748},{"duration":0.19354800000002115,"midi":55,"time":128.902968,"velocity":0.3937007874015748},{"duration":0.19354800000002115,"midi":59,"time":128.902968,"velocity":0.3937007874015748},{"duration":0.19354800000002115,"midi":64,"time":128.902968,"velocity":0.3937007874015748},{"duration":0.19354800000002115,"midi":47,"time":128.902968,"velocity":0.3937007874015748},{"duration":0.19354800000002115,"midi":52,"time":128.902968,"velocity":0.3937007874015748},{"duration":0.19354800000002115,"midi":40,"time":128.902968,"velocity":0.3937007874015748},{"duration":0.19354799999999273,"midi":52,"time":129.096516,"velocity":0.3937007874015748},{"duration":0.19354799999999273,"midi":55,"time":129.096516,"velocity":0.3937007874015748},{"duration":0.19354799999999273,"midi":59,"time":129.096516,"velocity":0.3937007874015748},{"duration":0.19354799999999273,"midi":47,"time":129.096516,"velocity":0.3937007874015748},{"duration":0.19354799999999273,"midi":64,"time":129.096516,"velocity":0.3937007874015748},{"duration":0.19354799999999273,"midi":40,"time":129.096516,"velocity":0.3937007874015748},{"duration":0.38709599999998545,"midi":50,"time":129.290064,"velocity":0.3937007874015748},{"duration":0.38709599999998545,"midi":55,"time":129.290064,"velocity":0.3937007874015748},{"duration":0.38709599999998545,"midi":43,"time":129.290064,"velocity":0.3937007874015748},{"duration":0.38709599999998545,"midi":59,"time":129.290064,"velocity":0.3937007874015748},{"duration":0.38709599999998545,"midi":67,"time":129.290064,"velocity":0.3937007874015748},{"duration":0.38709599999998545,"midi":47,"time":129.290064,"velocity":0.3937007874015748},{"duration":0.19354800000002115,"midi":59,"time":129.67716,"velocity":0.3937007874015748},{"duration":0.19354800000002115,"midi":47,"time":129.67716,"velocity":0.3937007874015748},{"duration":0.19354800000002115,"midi":43,"time":129.67716,"velocity":0.3937007874015748},{"duration":0.19354800000002115,"midi":67,"time":129.67716,"velocity":0.3937007874015748},{"duration":0.19354800000002115,"midi":50,"time":129.67716,"velocity":0.3937007874015748},{"duration":0.19354800000002115,"midi":55,"time":129.67716,"velocity":0.3937007874015748},{"duration":0.38709599999998545,"midi":67,"time":129.870708,"velocity":0.3937007874015748},{"duration":0.38709599999998545,"midi":47,"time":129.870708,"velocity":0.3937007874015748},{"duration":0.38709599999998545,"midi":59,"time":129.870708,"velocity":0.3937007874015748},{"duration":0.38709599999998545,"midi":43,"time":129.870708,"velocity":0.3937007874015748},{"duration":0.38709599999998545,"midi":50,"time":129.870708,"velocity":0.3937007874015748},{"duration":0.38709599999998545,"midi":55,"time":129.870708,"velocity":0.3937007874015748},{"duration":0.19354799999999273,"midi":59,"time":130.257804,"velocity":0.3937007874015748},{"duration":0.19354799999999273,"midi":55,"time":130.257804,"velocity":0.3937007874015748},{"duration":0.19354799999999273,"midi":67,"time":130.257804,"velocity":0.3937007874015748},{"duration":0.19354799999999273,"midi":50,"time":130.257804,"velocity":0.3937007874015748},{"duration":0.19354799999999273,"midi":43,"time":130.257804,"velocity":0.3937007874015748},{"duration":0.19354799999999273,"midi":47,"time":130.257804,"velocity":0.3937007874015748},{"duration":0.19354800000002115,"midi":59,"time":130.45135199999999,"velocity":0.3937007874015748},{"duration":0.19354800000002115,"midi":55,"time":130.45135199999999,"velocity":0.3937007874015748},{"duration":0.19354800000002115,"midi":67,"time":130.45135199999999,"velocity":0.3937007874015748},{"duration":0.19354800000002115,"midi":50,"time":130.45135199999999,"velocity":0.3937007874015748},{"duration":0.19354800000002115,"midi":43,"time":130.45135199999999,"velocity":0.3937007874015748},{"duration":0.19354800000002115,"midi":47,"time":130.45135199999999,"velocity":0.3937007874015748},{"duration":0.19354799999999273,"midi":67,"time":130.6449,"velocity":0.3937007874015748},{"duration":0.19354799999999273,"midi":59,"time":130.6449,"velocity":0.3937007874015748},{"duration":0.19354799999999273,"midi":50,"time":130.6449,"velocity":0.3937007874015748},{"duration":0.19354799999999273,"midi":43,"time":130.6449,"velocity":0.3937007874015748},{"duration":0.19354799999999273,"midi":47,"time":130.6449,"velocity":0.3937007874015748},{"duration":0.19354799999999273,"midi":55,"time":130.6449,"velocity":0.3937007874015748},{"duration":0.38709599999998545,"midi":60,"time":130.838448,"velocity":0.3937007874015748},{"duration":0.38709599999998545,"midi":55,"time":130.838448,"velocity":0.3937007874015748},{"duration":0.38709599999998545,"midi":64,"time":130.838448,"velocity":0.3937007874015748},{"duration":0.38709599999998545,"midi":48,"time":130.838448,"velocity":0.3937007874015748},{"duration":0.38709599999998545,"midi":52,"time":130.838448,"velocity":0.3937007874015748},{"duration":0.19354800000002115,"midi":52,"time":131.22554399999999,"velocity":0.3937007874015748},{"duration":0.19354800000002115,"midi":64,"time":131.22554399999999,"velocity":0.3937007874015748},{"duration":0.19354800000002115,"midi":60,"time":131.22554399999999,"velocity":0.3937007874015748},{"duration":0.19354800000002115,"midi":48,"time":131.22554399999999,"velocity":0.3937007874015748},{"duration":0.19354800000002115,"midi":55,"time":131.22554399999999,"velocity":0.3937007874015748},{"duration":0.38709599999998545,"midi":48,"time":131.419092,"velocity":0.3937007874015748},{"duration":0.38709599999998545,"midi":55,"time":131.419092,"velocity":0.3937007874015748},{"duration":0.38709599999998545,"midi":52,"time":131.419092,"velocity":0.3937007874015748},{"duration":0.38709599999998545,"midi":60,"time":131.419092,"velocity":0.3937007874015748},{"duration":0.38709599999998545,"midi":64,"time":131.419092,"velocity":0.3937007874015748},{"duration":0.19354799999999273,"midi":55,"time":131.806188,"velocity":0.3937007874015748},{"duration":0.19354799999999273,"midi":52,"time":131.806188,"velocity":0.3937007874015748},{"duration":0.19354799999999273,"midi":64,"time":131.806188,"velocity":0.3937007874015748},{"duration":0.19354799999999273,"midi":60,"time":131.806188,"velocity":0.3937007874015748},{"duration":0.19354799999999273,"midi":48,"time":131.806188,"velocity":0.3937007874015748},{"duration":0.19354800000002115,"midi":48,"time":131.99973599999998,"velocity":0.3937007874015748},{"duration":0.19354800000002115,"midi":55,"time":131.99973599999998,"velocity":0.3937007874015748},{"duration":0.19354800000002115,"midi":60,"time":131.99973599999998,"velocity":0.3937007874015748},{"duration":0.19354800000002115,"midi":64,"time":131.99973599999998,"velocity":0.3937007874015748},{"duration":0.19354800000002115,"midi":52,"time":131.99973599999998,"velocity":0.3937007874015748},{"duration":0.19354799999999273,"midi":48,"time":132.193284,"velocity":0.3937007874015748},{"duration":0.19354799999999273,"midi":55,"time":132.193284,"velocity":0.3937007874015748},{"duration":0.19354799999999273,"midi":60,"time":132.193284,"velocity":0.3937007874015748},{"duration":0.19354799999999273,"midi":52,"time":132.193284,"velocity":0.3937007874015748},{"duration":0.19354799999999273,"midi":64,"time":132.193284,"velocity":0.3937007874015748},{"duration":0.3870960000000139,"midi":52,"time":132.386832,"velocity":0.3937007874015748},{"duration":0.3870960000000139,"midi":64,"time":132.386832,"velocity":0.3937007874015748},{"duration":0.3870960000000139,"midi":55,"time":132.386832,"velocity":0.3937007874015748},{"duration":0.3870960000000139,"midi":60,"time":132.386832,"velocity":0.3937007874015748},{"duration":0.3870960000000139,"midi":48,"time":132.386832,"velocity":0.3937007874015748},{"duration":0.19354799999999273,"midi":48,"time":132.773928,"velocity":0.3937007874015748},{"duration":0.19354799999999273,"midi":52,"time":132.773928,"velocity":0.3937007874015748},{"duration":0.19354799999999273,"midi":55,"time":132.773928,"velocity":0.3937007874015748},{"duration":0.19354799999999273,"midi":60,"time":132.773928,"velocity":0.3937007874015748},{"duration":0.19354799999999273,"midi":64,"time":132.773928,"velocity":0.3937007874015748},{"duration":0.38709599999998545,"midi":55,"time":132.967476,"velocity":0.3937007874015748},{"duration":0.38709599999998545,"midi":52,"time":132.967476,"velocity":0.3937007874015748},{"duration":0.38709599999998545,"midi":64,"time":132.967476,"velocity":0.3937007874015748},{"duration":0.38709599999998545,"midi":60,"time":132.967476,"velocity":0.3937007874015748},{"duration":0.38709599999998545,"midi":48,"time":132.967476,"velocity":0.3937007874015748},{"duration":0.19354800000002115,"midi":48,"time":133.354572,"velocity":0.3937007874015748},{"duration":0.19354800000002115,"midi":55,"time":133.354572,"velocity":0.3937007874015748},{"duration":0.19354800000002115,"midi":60,"time":133.354572,"velocity":0.3937007874015748},{"duration":0.19354800000002115,"midi":64,"time":133.354572,"velocity":0.3937007874015748},{"duration":0.19354800000002115,"midi":52,"time":133.354572,"velocity":0.3937007874015748},{"duration":0.19354799999999273,"midi":60,"time":133.54812,"velocity":0.3937007874015748},{"duration":0.19354799999999273,"midi":48,"time":133.54812,"velocity":0.3937007874015748},{"duration":0.19354799999999273,"midi":64,"time":133.54812,"velocity":0.3937007874015748},{"duration":0.19354799999999273,"midi":52,"time":133.54812,"velocity":0.3937007874015748},{"duration":0.19354799999999273,"midi":55,"time":133.54812,"velocity":0.3937007874015748},{"duration":0.19354799999999273,"midi":64,"time":133.741668,"velocity":0.3937007874015748},{"duration":0.19354799999999273,"midi":60,"time":133.741668,"velocity":0.3937007874015748},{"duration":0.19354799999999273,"midi":52,"time":133.741668,"velocity":0.3937007874015748},{"duration":0.19354799999999273,"midi":48,"time":133.741668,"velocity":0.3937007874015748},{"duration":0.19354799999999273,"midi":55,"time":133.741668,"velocity":0.3937007874015748},{"duration":0.3870960000000139,"midi":57,"time":133.935216,"velocity":0.3937007874015748},{"duration":0.3870960000000139,"midi":50,"time":133.935216,"velocity":0.3937007874015748},{"duration":0.3870960000000139,"midi":62,"time":133.935216,"velocity":0.3937007874015748},{"duration":0.3870960000000139,"midi":66,"time":133.935216,"velocity":0.3937007874015748},{"duration":0.38709599999998545,"midi":62,"time":134.322312,"velocity":0.3937007874015748},{"duration":0.38709599999998545,"midi":57,"time":134.322312,"velocity":0.3937007874015748},{"duration":0.38709599999998545,"midi":50,"time":134.322312,"velocity":0.3937007874015748},{"duration":0.38709599999998545,"midi":66,"time":134.322312,"velocity":0.3937007874015748},{"duration":0.3870960000000139,"midi":64,"time":134.709408,"velocity":0.3937007874015748},{"duration":0.3870960000000139,"midi":47,"time":134.709408,"velocity":0.3937007874015748},{"duration":0.3870960000000139,"midi":40,"time":134.709408,"velocity":0.3937007874015748},{"duration":0.3870960000000139,"midi":52,"time":134.709408,"velocity":0.3937007874015748},{"duration":0.3870960000000139,"midi":55,"time":134.709408,"velocity":0.3937007874015748},{"duration":0.3870960000000139,"midi":59,"time":134.709408,"velocity":0.3937007874015748},{"duration":0.19354799999999273,"midi":59,"time":135.096504,"velocity":0.3937007874015748},{"duration":0.19354799999999273,"midi":55,"time":135.096504,"velocity":0.3937007874015748},{"duration":0.19354799999999273,"midi":64,"time":135.096504,"velocity":0.3937007874015748},{"duration":0.19354799999999273,"midi":52,"time":135.096504,"velocity":0.3937007874015748},{"duration":0.19354799999999273,"midi":40,"time":135.096504,"velocity":0.3937007874015748},{"duration":0.19354799999999273,"midi":47,"time":135.096504,"velocity":0.3937007874015748},{"duration":0.38709599999998545,"midi":59,"time":135.290052,"velocity":0.3937007874015748},{"duration":0.38709599999998545,"midi":52,"time":135.290052,"velocity":0.3937007874015748},{"duration":0.38709599999998545,"midi":55,"time":135.290052,"velocity":0.3937007874015748},{"duration":0.38709599999998545,"midi":40,"time":135.290052,"velocity":0.3937007874015748},{"duration":0.38709599999998545,"midi":64,"time":135.290052,"velocity":0.3937007874015748},{"duration":0.38709599999998545,"midi":47,"time":135.290052,"velocity":0.3937007874015748},{"duration":0.19354800000002115,"midi":64,"time":135.677148,"velocity":0.3937007874015748},{"duration":0.19354800000002115,"midi":59,"time":135.677148,"velocity":0.3937007874015748},{"duration":0.19354800000002115,"midi":47,"time":135.677148,"velocity":0.3937007874015748},{"duration":0.19354800000002115,"midi":40,"time":135.677148,"velocity":0.3937007874015748},{"duration":0.19354800000002115,"midi":52,"time":135.677148,"velocity":0.3937007874015748},{"duration":0.19354800000002115,"midi":55,"time":135.677148,"velocity":0.3937007874015748},{"duration":0.19354799999999273,"midi":59,"time":135.870696,"velocity":0.3937007874015748},{"duration":0.19354799999999273,"midi":64,"time":135.870696,"velocity":0.3937007874015748},{"duration":0.19354799999999273,"midi":40,"time":135.870696,"velocity":0.3937007874015748},{"duration":0.19354799999999273,"midi":55,"time":135.870696,"velocity":0.3937007874015748},{"duration":0.19354799999999273,"midi":47,"time":135.870696,"velocity":0.3937007874015748},{"duration":0.19354799999999273,"midi":52,"time":135.870696,"velocity":0.3937007874015748},{"duration":0.19354799999999273,"midi":55,"time":136.064244,"velocity":0.3937007874015748},{"duration":0.19354799999999273,"midi":59,"time":136.064244,"velocity":0.3937007874015748},{"duration":0.19354799999999273,"midi":40,"time":136.064244,"velocity":0.3937007874015748},{"duration":0.19354799999999273,"midi":47,"time":136.064244,"velocity":0.3937007874015748},{"duration":0.19354799999999273,"midi":64,"time":136.064244,"velocity":0.3937007874015748},{"duration":0.19354799999999273,"midi":52,"time":136.064244,"velocity":0.3937007874015748},{"duration":0.3870960000000139,"midi":59,"time":136.257792,"velocity":0.3937007874015748},{"duration":0.3870960000000139,"midi":55,"time":136.257792,"velocity":0.3937007874015748},{"duration":0.3870960000000139,"midi":40,"time":136.257792,"velocity":0.3937007874015748},{"duration":0.3870960000000139,"midi":52,"time":136.257792,"velocity":0.3937007874015748},{"duration":0.3870960000000139,"midi":64,"time":136.257792,"velocity":0.3937007874015748},{"duration":0.3870960000000139,"midi":47,"time":136.257792,"velocity":0.3937007874015748},{"duration":0.19354799999999273,"midi":59,"time":136.644888,"velocity":0.3937007874015748},{"duration":0.19354799999999273,"midi":55,"time":136.644888,"velocity":0.3937007874015748},{"duration":0.19354799999999273,"midi":52,"time":136.644888,"velocity":0.3937007874015748},{"duration":0.19354799999999273,"midi":64,"time":136.644888,"velocity":0.3937007874015748},{"duration":0.19354799999999273,"midi":47,"time":136.644888,"velocity":0.3937007874015748},{"duration":0.19354799999999273,"midi":40,"time":136.644888,"velocity":0.3937007874015748},{"duration":0.38709599999998545,"midi":47,"time":136.838436,"velocity":0.3937007874015748},{"duration":0.38709599999998545,"midi":52,"time":136.838436,"velocity":0.3937007874015748},{"duration":0.38709599999998545,"midi":55,"time":136.838436,"velocity":0.3937007874015748},{"duration":0.38709599999998545,"midi":40,"time":136.838436,"velocity":0.3937007874015748},{"duration":0.38709599999998545,"midi":59,"time":136.838436,"velocity":0.3937007874015748},{"duration":0.38709599999998545,"midi":64,"time":136.838436,"velocity":0.3937007874015748},{"duration":0.19354800000002115,"midi":47,"time":137.225532,"velocity":0.3937007874015748},{"duration":0.19354800000002115,"midi":52,"time":137.225532,"velocity":0.3937007874015748},{"duration":0.19354800000002115,"midi":64,"time":137.225532,"velocity":0.3937007874015748},{"duration":0.19354800000002115,"midi":55,"time":137.225532,"velocity":0.3937007874015748},{"duration":0.19354800000002115,"midi":59,"time":137.225532,"velocity":0.3937007874015748},{"duration":0.19354800000002115,"midi":40,"time":137.225532,"velocity":0.3937007874015748},{"duration":0.19354799999999273,"midi":64,"time":137.41908,"velocity":0.3937007874015748},{"duration":0.19354799999999273,"midi":40,"time":137.41908,"velocity":0.3937007874015748},{"duration":0.19354799999999273,"midi":52,"time":137.41908,"velocity":0.3937007874015748},{"duration":0.19354799999999273,"midi":55,"time":137.41908,"velocity":0.3937007874015748},{"duration":0.19354799999999273,"midi":59,"time":137.41908,"velocity":0.3937007874015748},{"duration":0.19354799999999273,"midi":47,"time":137.41908,"velocity":0.3937007874015748},{"duration":0.19354799999999273,"midi":59,"time":137.612628,"velocity":0.3937007874015748},{"duration":0.19354799999999273,"midi":55,"time":137.612628,"velocity":0.3937007874015748},{"duration":0.19354799999999273,"midi":47,"time":137.612628,"velocity":0.3937007874015748},{"duration":0.19354799999999273,"midi":40,"time":137.612628,"velocity":0.3937007874015748},{"duration":0.19354799999999273,"midi":64,"time":137.612628,"velocity":0.3937007874015748},{"duration":0.19354799999999273,"midi":52,"time":137.612628,"velocity":0.3937007874015748},{"duration":0.3870960000000139,"midi":67,"time":137.806176,"velocity":0.3937007874015748},{"duration":0.3870960000000139,"midi":47,"time":137.806176,"velocity":0.3937007874015748},{"duration":0.3870960000000139,"midi":50,"time":137.806176,"velocity":0.3937007874015748},{"duration":0.3870960000000139,"midi":55,"time":137.806176,"velocity":0.3937007874015748},{"duration":0.3870960000000139,"midi":59,"time":137.806176,"velocity":0.3937007874015748},{"duration":0.3870960000000139,"midi":43,"time":137.806176,"velocity":0.3937007874015748},{"duration":0.19354799999999273,"midi":43,"time":138.193272,"velocity":0.3937007874015748},{"duration":0.19354799999999273,"midi":47,"time":138.193272,"velocity":0.3937007874015748},{"duration":0.19354799999999273,"midi":50,"time":138.193272,"velocity":0.3937007874015748},{"duration":0.19354799999999273,"midi":55,"time":138.193272,"velocity":0.3937007874015748},{"duration":0.19354799999999273,"midi":59,"time":138.193272,"velocity":0.3937007874015748},{"duration":0.19354799999999273,"midi":67,"time":138.193272,"velocity":0.3937007874015748},{"duration":0.38709599999998545,"midi":67,"time":138.38682,"velocity":0.3937007874015748},{"duration":0.38709599999998545,"midi":47,"time":138.38682,"velocity":0.3937007874015748},{"duration":0.38709599999998545,"midi":59,"time":138.38682,"velocity":0.3937007874015748},{"duration":0.38709599999998545,"midi":50,"time":138.38682,"velocity":0.3937007874015748},{"duration":0.38709599999998545,"midi":43,"time":138.38682,"velocity":0.3937007874015748},{"duration":0.38709599999998545,"midi":55,"time":138.38682,"velocity":0.3937007874015748},{"duration":0.19354800000002115,"midi":43,"time":138.77391599999999,"velocity":0.3937007874015748},{"duration":0.19354800000002115,"midi":47,"time":138.77391599999999,"velocity":0.3937007874015748},{"duration":0.19354800000002115,"midi":50,"time":138.77391599999999,"velocity":0.3937007874015748},{"duration":0.19354800000002115,"midi":55,"time":138.77391599999999,"velocity":0.3937007874015748},{"duration":0.19354800000002115,"midi":59,"time":138.77391599999999,"velocity":0.3937007874015748},{"duration":0.19354800000002115,"midi":67,"time":138.77391599999999,"velocity":0.3937007874015748},{"duration":0.19354799999999273,"midi":59,"time":138.967464,"velocity":0.3937007874015748},{"duration":0.19354799999999273,"midi":55,"time":138.967464,"velocity":0.3937007874015748},{"duration":0.19354799999999273,"midi":67,"time":138.967464,"velocity":0.3937007874015748},{"duration":0.19354799999999273,"midi":47,"time":138.967464,"velocity":0.3937007874015748},{"duration":0.19354799999999273,"midi":43,"time":138.967464,"velocity":0.3937007874015748},{"duration":0.19354799999999273,"midi":50,"time":138.967464,"velocity":0.3937007874015748},{"duration":0.19354799999999273,"midi":50,"time":139.161012,"velocity":0.3937007874015748},{"duration":0.19354799999999273,"midi":55,"time":139.161012,"velocity":0.3937007874015748},{"duration":0.19354799999999273,"midi":43,"time":139.161012,"velocity":0.3937007874015748},{"duration":0.19354799999999273,"midi":59,"time":139.161012,"velocity":0.3937007874015748},{"duration":0.19354799999999273,"midi":67,"time":139.161012,"velocity":0.3937007874015748},{"duration":0.19354799999999273,"midi":47,"time":139.161012,"velocity":0.3937007874015748},{"duration":0.3870960000000139,"midi":48,"time":139.35456,"velocity":0.3937007874015748},{"duration":0.3870960000000139,"midi":64,"time":139.35456,"velocity":0.3937007874015748},{"duration":0.3870960000000139,"midi":52,"time":139.35456,"velocity":0.3937007874015748},{"duration":0.3870960000000139,"midi":55,"time":139.35456,"velocity":0.3937007874015748},{"duration":0.3870960000000139,"midi":60,"time":139.35456,"velocity":0.3937007874015748},{"duration":0.19354799999999273,"midi":64,"time":139.741656,"velocity":0.3937007874015748},{"duration":0.19354799999999273,"midi":60,"time":139.741656,"velocity":0.3937007874015748},{"duration":0.19354799999999273,"midi":55,"time":139.741656,"velocity":0.3937007874015748},{"duration":0.19354799999999273,"midi":48,"time":139.741656,"velocity":0.3937007874015748},{"duration":0.19354799999999273,"midi":52,"time":139.741656,"velocity":0.3937007874015748},{"duration":0.38709599999998545,"midi":64,"time":139.935204,"velocity":0.3937007874015748},{"duration":0.38709599999998545,"midi":60,"time":139.935204,"velocity":0.3937007874015748},{"duration":0.38709599999998545,"midi":52,"time":139.935204,"velocity":0.3937007874015748},{"duration":0.38709599999998545,"midi":48,"time":139.935204,"velocity":0.3937007874015748},{"duration":0.38709599999998545,"midi":55,"time":139.935204,"velocity":0.3937007874015748},{"duration":0.19354800000002115,"midi":60,"time":140.32229999999998,"velocity":0.3937007874015748},{"duration":0.19354800000002115,"midi":55,"time":140.32229999999998,"velocity":0.3937007874015748},{"duration":0.19354800000002115,"midi":64,"time":140.32229999999998,"velocity":0.3937007874015748},{"duration":0.19354800000002115,"midi":48,"time":140.32229999999998,"velocity":0.3937007874015748},{"duration":0.19354800000002115,"midi":52,"time":140.32229999999998,"velocity":0.3937007874015748},{"duration":0.19354799999999273,"midi":64,"time":140.515848,"velocity":0.3937007874015748},{"duration":0.19354799999999273,"midi":60,"time":140.515848,"velocity":0.3937007874015748},{"duration":0.19354799999999273,"midi":52,"time":140.515848,"velocity":0.3937007874015748},{"duration":0.19354799999999273,"midi":48,"time":140.515848,"velocity":0.3937007874015748},{"duration":0.19354799999999273,"midi":55,"time":140.515848,"velocity":0.3937007874015748},{"duration":0.19354799999999273,"midi":55,"time":140.709396,"velocity":0.3937007874015748},{"duration":0.19354799999999273,"midi":48,"time":140.709396,"velocity":0.3937007874015748},{"duration":0.19354799999999273,"midi":60,"time":140.709396,"velocity":0.3937007874015748},{"duration":0.19354799999999273,"midi":64,"time":140.709396,"velocity":0.3937007874015748},{"duration":0.19354799999999273,"midi":52,"time":140.709396,"velocity":0.3937007874015748},{"duration":0.3870960000000139,"midi":64,"time":140.902944,"velocity":0.3937007874015748},{"duration":0.3870960000000139,"midi":48,"time":140.902944,"velocity":0.3937007874015748},{"duration":0.3870960000000139,"midi":52,"time":140.902944,"velocity":0.3937007874015748},{"duration":0.3870960000000139,"midi":55,"time":140.902944,"velocity":0.3937007874015748},{"duration":0.3870960000000139,"midi":60,"time":140.902944,"velocity":0.3937007874015748},{"duration":0.19354799999999273,"midi":60,"time":141.29004,"velocity":0.3937007874015748},{"duration":0.19354799999999273,"midi":64,"time":141.29004,"velocity":0.3937007874015748},{"duration":0.19354799999999273,"midi":48,"time":141.29004,"velocity":0.3937007874015748},{"duration":0.19354799999999273,"midi":52,"time":141.29004,"velocity":0.3937007874015748},{"duration":0.19354799999999273,"midi":55,"time":141.29004,"velocity":0.3937007874015748},{"duration":0.3870960000000139,"midi":55,"time":141.483588,"velocity":0.3937007874015748},{"duration":0.3870960000000139,"midi":48,"time":141.483588,"velocity":0.3937007874015748},{"duration":0.3870960000000139,"midi":60,"time":141.483588,"velocity":0.3937007874015748},{"duration":0.3870960000000139,"midi":64,"time":141.483588,"velocity":0.3937007874015748},{"duration":0.3870960000000139,"midi":52,"time":141.483588,"velocity":0.3937007874015748},{"duration":0.19354799999999273,"midi":60,"time":141.870684,"velocity":0.3937007874015748},{"duration":0.19354799999999273,"midi":55,"time":141.870684,"velocity":0.3937007874015748},{"duration":0.19354799999999273,"midi":64,"time":141.870684,"velocity":0.3937007874015748},{"duration":0.19354799999999273,"midi":52,"time":141.870684,"velocity":0.3937007874015748},{"duration":0.19354799999999273,"midi":48,"time":141.870684,"velocity":0.3937007874015748},{"duration":0.19354799999999273,"midi":60,"time":142.064232,"velocity":0.3937007874015748},{"duration":0.19354799999999273,"midi":48,"time":142.064232,"velocity":0.3937007874015748},{"duration":0.19354799999999273,"midi":52,"time":142.064232,"velocity":0.3937007874015748},{"duration":0.19354799999999273,"midi":64,"time":142.064232,"velocity":0.3937007874015748},{"duration":0.19354799999999273,"midi":55,"time":142.064232,"velocity":0.3937007874015748},{"duration":0.19354799999999273,"midi":60,"time":142.25778,"velocity":0.3937007874015748},{"duration":0.19354799999999273,"midi":64,"time":142.25778,"velocity":0.3937007874015748},{"duration":0.19354799999999273,"midi":48,"time":142.25778,"velocity":0.3937007874015748},{"duration":0.19354799999999273,"midi":52,"time":142.25778,"velocity":0.3937007874015748},{"duration":0.19354799999999273,"midi":55,"time":142.25778,"velocity":0.3937007874015748},{"duration":0.3870960000000139,"midi":66,"time":142.451328,"velocity":0.3937007874015748},{"duration":0.3870960000000139,"midi":62,"time":142.451328,"velocity":0.3937007874015748},{"duration":0.3870960000000139,"midi":50,"time":142.451328,"velocity":0.3937007874015748},{"duration":0.3870960000000139,"midi":57,"time":142.451328,"velocity":0.3937007874015748},{"duration":0.38709599999998545,"midi":50,"time":142.838424,"velocity":0.3937007874015748},{"duration":0.38709599999998545,"midi":66,"time":142.838424,"velocity":0.3937007874015748},{"duration":0.38709599999998545,"midi":57,"time":142.838424,"velocity":0.3937007874015748},{"duration":0.38709599999998545,"midi":62,"time":142.838424,"velocity":0.3937007874015748},{"duration":0.3870960000000139,"midi":64,"time":143.22552,"velocity":0.3937007874015748},{"duration":0.3870960000000139,"midi":59,"time":143.22552,"velocity":0.3937007874015748},{"duration":0.3870960000000139,"midi":40,"time":143.22552,"velocity":0.3937007874015748},{"duration":0.3870960000000139,"midi":52,"time":143.22552,"velocity":0.3937007874015748},{"duration":0.3870960000000139,"midi":55,"time":143.22552,"velocity":0.3937007874015748},{"duration":0.3870960000000139,"midi":47,"time":143.22552,"velocity":0.3937007874015748},{"duration":0.19354799999999273,"midi":59,"time":143.612616,"velocity":0.3937007874015748},{"duration":0.19354799999999273,"midi":55,"time":143.612616,"velocity":0.3937007874015748},{"duration":0.19354799999999273,"midi":47,"time":143.612616,"velocity":0.3937007874015748},{"duration":0.19354799999999273,"midi":64,"time":143.612616,"velocity":0.3937007874015748},{"duration":0.19354799999999273,"midi":40,"time":143.612616,"velocity":0.3937007874015748},{"duration":0.19354799999999273,"midi":52,"time":143.612616,"velocity":0.3937007874015748},{"duration":0.3870960000000139,"midi":64,"time":143.806164,"velocity":0.3937007874015748},{"duration":0.3870960000000139,"midi":47,"time":143.806164,"velocity":0.3937007874015748},{"duration":0.3870960000000139,"midi":40,"time":143.806164,"velocity":0.3937007874015748},{"duration":0.3870960000000139,"midi":52,"time":143.806164,"velocity":0.3937007874015748},{"duration":0.3870960000000139,"midi":59,"time":143.806164,"velocity":0.3937007874015748},{"duration":0.3870960000000139,"midi":55,"time":143.806164,"velocity":0.3937007874015748},{"duration":0.19354799999999273,"midi":40,"time":144.19326,"velocity":0.3937007874015748},{"duration":0.19354799999999273,"midi":47,"time":144.19326,"velocity":0.3937007874015748},{"duration":0.19354799999999273,"midi":52,"time":144.19326,"velocity":0.3937007874015748},{"duration":0.19354799999999273,"midi":55,"time":144.19326,"velocity":0.3937007874015748},{"duration":0.19354799999999273,"midi":59,"time":144.19326,"velocity":0.3937007874015748},{"duration":0.19354799999999273,"midi":64,"time":144.19326,"velocity":0.3937007874015748},{"duration":0.19354799999999273,"midi":64,"time":144.386808,"velocity":0.3937007874015748},{"duration":0.19354799999999273,"midi":47,"time":144.386808,"velocity":0.3937007874015748},{"duration":0.19354799999999273,"midi":52,"time":144.386808,"velocity":0.3937007874015748},{"duration":0.19354799999999273,"midi":55,"time":144.386808,"velocity":0.3937007874015748},{"duration":0.19354799999999273,"midi":59,"time":144.386808,"velocity":0.3937007874015748},{"duration":0.19354799999999273,"midi":40,"time":144.386808,"velocity":0.3937007874015748},{"duration":0.19354799999999273,"midi":52,"time":144.580356,"velocity":0.3937007874015748},{"duration":0.19354799999999273,"midi":47,"time":144.580356,"velocity":0.3937007874015748},{"duration":0.19354799999999273,"midi":55,"time":144.580356,"velocity":0.3937007874015748},{"duration":0.19354799999999273,"midi":40,"time":144.580356,"velocity":0.3937007874015748},{"duration":0.19354799999999273,"midi":59,"time":144.580356,"velocity":0.3937007874015748},{"duration":0.19354799999999273,"midi":64,"time":144.580356,"velocity":0.3937007874015748},{"duration":0.3870960000000139,"midi":47,"time":144.773904,"velocity":0.3937007874015748},{"duration":0.3870960000000139,"midi":64,"time":144.773904,"velocity":0.3937007874015748},{"duration":0.3870960000000139,"midi":52,"time":144.773904,"velocity":0.3937007874015748},{"duration":0.3870960000000139,"midi":55,"time":144.773904,"velocity":0.3937007874015748},{"duration":0.3870960000000139,"midi":59,"time":144.773904,"velocity":0.3937007874015748},{"duration":0.3870960000000139,"midi":40,"time":144.773904,"velocity":0.3937007874015748},{"duration":0.19354799999999273,"midi":64,"time":145.161,"velocity":0.3937007874015748},{"duration":0.19354799999999273,"midi":40,"time":145.161,"velocity":0.3937007874015748},{"duration":0.19354799999999273,"midi":52,"time":145.161,"velocity":0.3937007874015748},{"duration":0.19354799999999273,"midi":55,"time":145.161,"velocity":0.3937007874015748},{"duration":0.19354799999999273,"midi":59,"time":145.161,"velocity":0.3937007874015748},{"duration":0.19354799999999273,"midi":47,"time":145.161,"velocity":0.3937007874015748},{"duration":0.3870960000000139,"midi":59,"time":145.354548,"velocity":0.3937007874015748},{"duration":0.3870960000000139,"midi":55,"time":145.354548,"velocity":0.3937007874015748},{"duration":0.3870960000000139,"midi":47,"time":145.354548,"velocity":0.3937007874015748},{"duration":0.3870960000000139,"midi":52,"time":145.354548,"velocity":0.3937007874015748},{"duration":0.3870960000000139,"midi":64,"time":145.354548,"velocity":0.3937007874015748},{"duration":0.3870960000000139,"midi":40,"time":145.354548,"velocity":0.3937007874015748},{"duration":0.19354799999999273,"midi":59,"time":145.741644,"velocity":0.3937007874015748},{"duration":0.19354799999999273,"midi":55,"time":145.741644,"velocity":0.3937007874015748},{"duration":0.19354799999999273,"midi":40,"time":145.741644,"velocity":0.3937007874015748},{"duration":0.19354799999999273,"midi":64,"time":145.741644,"velocity":0.3937007874015748},{"duration":0.19354799999999273,"midi":52,"time":145.741644,"velocity":0.3937007874015748},{"duration":0.19354799999999273,"midi":47,"time":145.741644,"velocity":0.3937007874015748},{"duration":0.19354799999999273,"midi":64,"time":145.935192,"velocity":0.3937007874015748},{"duration":0.19354799999999273,"midi":47,"time":145.935192,"velocity":0.3937007874015748},{"duration":0.19354799999999273,"midi":55,"time":145.935192,"velocity":0.3937007874015748},{"duration":0.19354799999999273,"midi":40,"time":145.935192,"velocity":0.3937007874015748},{"duration":0.19354799999999273,"midi":52,"time":145.935192,"velocity":0.3937007874015748},{"duration":0.19354799999999273,"midi":59,"time":145.935192,"velocity":0.3937007874015748},{"duration":0.19354799999999273,"midi":59,"time":146.12874,"velocity":0.3937007874015748},{"duration":0.19354799999999273,"midi":55,"time":146.12874,"velocity":0.3937007874015748},{"duration":0.19354799999999273,"midi":52,"time":146.12874,"velocity":0.3937007874015748},{"duration":0.19354799999999273,"midi":40,"time":146.12874,"velocity":0.3937007874015748},{"duration":0.19354799999999273,"midi":47,"time":146.12874,"velocity":0.3937007874015748},{"duration":0.19354799999999273,"midi":64,"time":146.12874,"velocity":0.3937007874015748},{"duration":0.3870960000000139,"midi":59,"time":146.322288,"velocity":0.3937007874015748},{"duration":0.3870960000000139,"midi":55,"time":146.322288,"velocity":0.3937007874015748},{"duration":0.3870960000000139,"midi":67,"time":146.322288,"velocity":0.3937007874015748},{"duration":0.3870960000000139,"midi":50,"time":146.322288,"velocity":0.3937007874015748},{"duration":0.3870960000000139,"midi":43,"time":146.322288,"velocity":0.3937007874015748},{"duration":0.3870960000000139,"midi":47,"time":146.322288,"velocity":0.3937007874015748},{"duration":0.19354799999999273,"midi":67,"time":146.709384,"velocity":0.3937007874015748},{"duration":0.19354799999999273,"midi":47,"time":146.709384,"velocity":0.3937007874015748},{"duration":0.19354799999999273,"midi":50,"time":146.709384,"velocity":0.3937007874015748},{"duration":0.19354799999999273,"midi":55,"time":146.709384,"velocity":0.3937007874015748},{"duration":0.19354799999999273,"midi":43,"time":146.709384,"velocity":0.3937007874015748},{"duration":0.19354799999999273,"midi":59,"time":146.709384,"velocity":0.3937007874015748},{"duration":0.3870960000000139,"midi":59,"time":146.902932,"velocity":0.3937007874015748},{"duration":0.3870960000000139,"midi":55,"time":146.902932,"velocity":0.3937007874015748},{"duration":0.3870960000000139,"midi":67,"time":146.902932,"velocity":0.3937007874015748},{"duration":0.3870960000000139,"midi":50,"time":146.902932,"velocity":0.3937007874015748},{"duration":0.3870960000000139,"midi":43,"time":146.902932,"velocity":0.3937007874015748},{"duration":0.3870960000000139,"midi":47,"time":146.902932,"velocity":0.3937007874015748},{"duration":0.19354799999999273,"midi":59,"time":147.290028,"velocity":0.3937007874015748},{"duration":0.19354799999999273,"midi":55,"time":147.290028,"velocity":0.3937007874015748},{"duration":0.19354799999999273,"midi":67,"time":147.290028,"velocity":0.3937007874015748},{"duration":0.19354799999999273,"midi":50,"time":147.290028,"velocity":0.3937007874015748},{"duration":0.19354799999999273,"midi":43,"time":147.290028,"velocity":0.3937007874015748},{"duration":0.19354799999999273,"midi":47,"time":147.290028,"velocity":0.3937007874015748},{"duration":0.19354799999999273,"midi":67,"time":147.483576,"velocity":0.3937007874015748},{"duration":0.19354799999999273,"midi":59,"time":147.483576,"velocity":0.3937007874015748},{"duration":0.19354799999999273,"midi":47,"time":147.483576,"velocity":0.3937007874015748},{"duration":0.19354799999999273,"midi":50,"time":147.483576,"velocity":0.3937007874015748},{"duration":0.19354799999999273,"midi":55,"time":147.483576,"velocity":0.3937007874015748},{"duration":0.19354799999999273,"midi":43,"time":147.483576,"velocity":0.3937007874015748},{"duration":0.19354799999999273,"midi":59,"time":147.677124,"velocity":0.3937007874015748},{"duration":0.19354799999999273,"midi":47,"time":147.677124,"velocity":0.3937007874015748},{"duration":0.19354799999999273,"midi":43,"time":147.677124,"velocity":0.3937007874015748},{"duration":0.19354799999999273,"midi":50,"time":147.677124,"velocity":0.3937007874015748},{"duration":0.19354799999999273,"midi":55,"time":147.677124,"velocity":0.3937007874015748},{"duration":0.19354799999999273,"midi":67,"time":147.677124,"velocity":0.3937007874015748},{"duration":0.3870960000000139,"midi":64,"time":147.87067199999998,"velocity":0.3937007874015748},{"duration":0.3870960000000139,"midi":48,"time":147.87067199999998,"velocity":0.3937007874015748},{"duration":0.3870960000000139,"midi":52,"time":147.87067199999998,"velocity":0.3937007874015748},{"duration":0.3870960000000139,"midi":55,"time":147.87067199999998,"velocity":0.3937007874015748},{"duration":0.3870960000000139,"midi":60,"time":147.87067199999998,"velocity":0.3937007874015748},{"duration":0.19354799999999273,"midi":64,"time":148.257768,"velocity":0.3937007874015748},{"duration":0.19354799999999273,"midi":60,"time":148.257768,"velocity":0.3937007874015748},{"duration":0.19354799999999273,"midi":52,"time":148.257768,"velocity":0.3937007874015748},{"duration":0.19354799999999273,"midi":48,"time":148.257768,"velocity":0.3937007874015748},{"duration":0.19354799999999273,"midi":55,"time":148.257768,"velocity":0.3937007874015748},{"duration":0.3870960000000139,"midi":52,"time":148.451316,"velocity":0.3937007874015748},{"duration":0.3870960000000139,"midi":64,"time":148.451316,"velocity":0.3937007874015748},{"duration":0.3870960000000139,"midi":55,"time":148.451316,"velocity":0.3937007874015748},{"duration":0.3870960000000139,"midi":60,"time":148.451316,"velocity":0.3937007874015748},{"duration":0.3870960000000139,"midi":48,"time":148.451316,"velocity":0.3937007874015748},{"duration":0.19354799999999273,"midi":64,"time":148.838412,"velocity":0.3937007874015748},{"duration":0.19354799999999273,"midi":60,"time":148.838412,"velocity":0.3937007874015748},{"duration":0.19354799999999273,"midi":52,"time":148.838412,"velocity":0.3937007874015748},{"duration":0.19354799999999273,"midi":55,"time":148.838412,"velocity":0.3937007874015748},{"duration":0.19354799999999273,"midi":48,"time":148.838412,"velocity":0.3937007874015748},{"duration":0.19354799999999273,"midi":55,"time":149.03196,"velocity":0.3937007874015748},{"duration":0.19354799999999273,"midi":48,"time":149.03196,"velocity":0.3937007874015748},{"duration":0.19354799999999273,"midi":60,"time":149.03196,"velocity":0.3937007874015748},{"duration":0.19354799999999273,"midi":64,"time":149.03196,"velocity":0.3937007874015748},{"duration":0.19354799999999273,"midi":52,"time":149.03196,"velocity":0.3937007874015748},{"duration":0.19354800000002115,"midi":52,"time":149.225508,"velocity":0.3937007874015748},{"duration":0.19354800000002115,"midi":55,"time":149.225508,"velocity":0.3937007874015748},{"duration":0.19354800000002115,"midi":64,"time":149.225508,"velocity":0.3937007874015748},{"duration":0.19354800000002115,"midi":60,"time":149.225508,"velocity":0.3937007874015748},{"duration":0.19354800000002115,"midi":48,"time":149.225508,"velocity":0.3937007874015748},{"duration":0.38709599999998545,"midi":64,"time":149.419056,"velocity":0.3937007874015748},{"duration":0.38709599999998545,"midi":48,"time":149.419056,"velocity":0.3937007874015748},{"duration":0.38709599999998545,"midi":55,"time":149.419056,"velocity":0.3937007874015748},{"duration":0.38709599999998545,"midi":60,"time":149.419056,"velocity":0.3937007874015748},{"duration":0.38709599999998545,"midi":52,"time":149.419056,"velocity":0.3937007874015748},{"duration":0.19354799999999273,"midi":64,"time":149.806152,"velocity":0.3937007874015748},{"duration":0.19354799999999273,"midi":60,"time":149.806152,"velocity":0.3937007874015748},{"duration":0.19354799999999273,"midi":52,"time":149.806152,"velocity":0.3937007874015748},{"duration":0.19354799999999273,"midi":48,"time":149.806152,"velocity":0.3937007874015748},{"duration":0.19354799999999273,"midi":55,"time":149.806152,"velocity":0.3937007874015748},{"duration":0.3870960000000139,"midi":48,"time":149.9997,"velocity":0.3937007874015748},{"duration":0.3870960000000139,"midi":55,"time":149.9997,"velocity":0.3937007874015748},{"duration":0.3870960000000139,"midi":52,"time":149.9997,"velocity":0.3937007874015748},{"duration":0.3870960000000139,"midi":60,"time":149.9997,"velocity":0.3937007874015748},{"duration":0.3870960000000139,"midi":64,"time":149.9997,"velocity":0.3937007874015748},{"duration":0.19354799999999273,"midi":64,"time":150.386796,"velocity":0.3937007874015748},{"duration":0.19354799999999273,"midi":60,"time":150.386796,"velocity":0.3937007874015748},{"duration":0.19354799999999273,"midi":52,"time":150.386796,"velocity":0.3937007874015748},{"duration":0.19354799999999273,"midi":48,"time":150.386796,"velocity":0.3937007874015748},{"duration":0.19354799999999273,"midi":55,"time":150.386796,"velocity":0.3937007874015748},{"duration":0.19354799999999273,"midi":60,"time":150.580344,"velocity":0.3937007874015748},{"duration":0.19354799999999273,"midi":52,"time":150.580344,"velocity":0.3937007874015748},{"duration":0.19354799999999273,"midi":48,"time":150.580344,"velocity":0.3937007874015748},{"duration":0.19354799999999273,"midi":55,"time":150.580344,"velocity":0.3937007874015748},{"duration":0.19354799999999273,"midi":64,"time":150.580344,"velocity":0.3937007874015748},{"duration":0.19354800000002115,"midi":60,"time":150.773892,"velocity":0.3937007874015748},{"duration":0.19354800000002115,"midi":64,"time":150.773892,"velocity":0.3937007874015748},{"duration":0.19354800000002115,"midi":52,"time":150.773892,"velocity":0.3937007874015748},{"duration":0.19354800000002115,"midi":48,"time":150.773892,"velocity":0.3937007874015748},{"duration":0.19354800000002115,"midi":55,"time":150.773892,"velocity":0.3937007874015748},{"duration":0.38709599999998545,"midi":57,"time":150.96744,"velocity":0.3937007874015748},{"duration":0.38709599999998545,"midi":62,"time":150.96744,"velocity":0.3937007874015748},{"duration":0.38709599999998545,"midi":66,"time":150.96744,"velocity":0.3937007874015748},{"duration":0.38709599999998545,"midi":50,"time":150.96744,"velocity":0.3937007874015748},{"duration":0.3870960000000139,"midi":57,"time":151.354536,"velocity":0.3937007874015748},{"duration":0.3870960000000139,"midi":50,"time":151.354536,"velocity":0.3937007874015748},{"duration":0.3870960000000139,"midi":62,"time":151.354536,"velocity":0.3937007874015748},{"duration":0.3870960000000139,"midi":66,"time":151.354536,"velocity":0.3937007874015748},{"duration":0.38709599999998545,"midi":64,"time":151.741632,"velocity":0.3937007874015748},{"duration":0.38709599999998545,"midi":59,"time":151.741632,"velocity":0.3937007874015748},{"duration":0.38709599999998545,"midi":47,"time":151.741632,"velocity":0.3937007874015748},{"duration":0.38709599999998545,"midi":52,"time":151.741632,"velocity":0.3937007874015748},{"duration":0.38709599999998545,"midi":55,"time":151.741632,"velocity":0.3937007874015748},{"duration":0.38709599999998545,"midi":40,"time":151.741632,"velocity":0.3937007874015748},{"duration":0.19354799999999273,"midi":47,"time":152.128728,"velocity":0.3937007874015748},{"duration":0.19354799999999273,"midi":40,"time":152.128728,"velocity":0.3937007874015748},{"duration":0.19354799999999273,"midi":59,"time":152.128728,"velocity":0.3937007874015748},{"duration":0.19354799999999273,"midi":55,"time":152.128728,"velocity":0.3937007874015748},{"duration":0.19354799999999273,"midi":52,"time":152.128728,"velocity":0.3937007874015748},{"duration":0.19354799999999273,"midi":64,"time":152.128728,"velocity":0.3937007874015748},{"duration":0.3870960000000139,"midi":52,"time":152.322276,"velocity":0.3937007874015748},{"duration":0.3870960000000139,"midi":47,"time":152.322276,"velocity":0.3937007874015748},{"duration":0.3870960000000139,"midi":55,"time":152.322276,"velocity":0.3937007874015748},{"duration":0.3870960000000139,"midi":40,"time":152.322276,"velocity":0.3937007874015748},{"duration":0.3870960000000139,"midi":59,"time":152.322276,"velocity":0.3937007874015748},{"duration":0.3870960000000139,"midi":64,"time":152.322276,"velocity":0.3937007874015748},{"duration":0.19354799999999273,"midi":52,"time":152.709372,"velocity":0.3937007874015748},{"duration":0.19354799999999273,"midi":55,"time":152.709372,"velocity":0.3937007874015748},{"duration":0.19354799999999273,"midi":59,"time":152.709372,"velocity":0.3937007874015748},{"duration":0.19354799999999273,"midi":40,"time":152.709372,"velocity":0.3937007874015748},{"duration":0.19354799999999273,"midi":47,"time":152.709372,"velocity":0.3937007874015748},{"duration":0.19354799999999273,"midi":64,"time":152.709372,"velocity":0.3937007874015748},{"duration":0.19354799999999273,"midi":64,"time":152.90292,"velocity":0.3937007874015748},{"duration":0.19354799999999273,"midi":40,"time":152.90292,"velocity":0.3937007874015748},{"duration":0.19354799999999273,"midi":47,"time":152.90292,"velocity":0.3937007874015748},{"duration":0.19354799999999273,"midi":52,"time":152.90292,"velocity":0.3937007874015748},{"duration":0.19354799999999273,"midi":55,"time":152.90292,"velocity":0.3937007874015748},{"duration":0.19354799999999273,"midi":59,"time":152.90292,"velocity":0.3937007874015748},{"duration":0.19354800000002115,"midi":59,"time":153.096468,"velocity":0.3937007874015748},{"duration":0.19354800000002115,"midi":55,"time":153.096468,"velocity":0.3937007874015748},{"duration":0.19354800000002115,"midi":52,"time":153.096468,"velocity":0.3937007874015748},{"duration":0.19354800000002115,"midi":40,"time":153.096468,"velocity":0.3937007874015748},{"duration":0.19354800000002115,"midi":64,"time":153.096468,"velocity":0.3937007874015748},{"duration":0.19354800000002115,"midi":47,"time":153.096468,"velocity":0.3937007874015748},{"duration":0.38709599999998545,"midi":52,"time":153.290016,"velocity":0.3937007874015748},{"duration":0.38709599999998545,"midi":64,"time":153.290016,"velocity":0.3937007874015748},{"duration":0.38709599999998545,"midi":47,"time":153.290016,"velocity":0.3937007874015748},{"duration":0.38709599999998545,"midi":55,"time":153.290016,"velocity":0.3937007874015748},{"duration":0.38709599999998545,"midi":59,"time":153.290016,"velocity":0.3937007874015748},{"duration":0.38709599999998545,"midi":40,"time":153.290016,"velocity":0.3937007874015748},{"duration":0.19354799999999273,"midi":40,"time":153.677112,"velocity":0.3937007874015748},{"duration":0.19354799999999273,"midi":47,"time":153.677112,"velocity":0.3937007874015748},{"duration":0.19354799999999273,"midi":52,"time":153.677112,"velocity":0.3937007874015748},{"duration":0.19354799999999273,"midi":55,"time":153.677112,"velocity":0.3937007874015748},{"duration":0.19354799999999273,"midi":59,"time":153.677112,"velocity":0.3937007874015748},{"duration":0.19354799999999273,"midi":64,"time":153.677112,"velocity":0.3937007874015748},{"duration":0.3870960000000139,"midi":64,"time":153.87066,"velocity":0.3937007874015748},{"duration":0.3870960000000139,"midi":47,"time":153.87066,"velocity":0.3937007874015748},{"duration":0.3870960000000139,"midi":59,"time":153.87066,"velocity":0.3937007874015748},{"duration":0.3870960000000139,"midi":52,"time":153.87066,"velocity":0.3937007874015748},{"duration":0.3870960000000139,"midi":40,"time":153.87066,"velocity":0.3937007874015748},{"duration":0.3870960000000139,"midi":55,"time":153.87066,"velocity":0.3937007874015748},{"duration":0.19354799999999273,"midi":55,"time":154.257756,"velocity":0.3937007874015748},{"duration":0.19354799999999273,"midi":59,"time":154.257756,"velocity":0.3937007874015748},{"duration":0.19354799999999273,"midi":40,"time":154.257756,"velocity":0.3937007874015748},{"duration":0.19354799999999273,"midi":47,"time":154.257756,"velocity":0.3937007874015748},{"duration":0.19354799999999273,"midi":64,"time":154.257756,"velocity":0.3937007874015748},{"duration":0.19354799999999273,"midi":52,"time":154.257756,"velocity":0.3937007874015748},{"duration":0.19354799999999273,"midi":59,"time":154.451304,"velocity":0.3937007874015748},{"duration":0.19354799999999273,"midi":55,"time":154.451304,"velocity":0.3937007874015748},{"duration":0.19354799999999273,"midi":52,"time":154.451304,"velocity":0.3937007874015748},{"duration":0.19354799999999273,"midi":64,"time":154.451304,"velocity":0.3937007874015748},{"duration":0.19354799999999273,"midi":47,"time":154.451304,"velocity":0.3937007874015748},{"duration":0.19354799999999273,"midi":40,"time":154.451304,"velocity":0.3937007874015748},{"duration":0.19354800000002115,"midi":52,"time":154.644852,"velocity":0.3937007874015748},{"duration":0.19354800000002115,"midi":47,"time":154.644852,"velocity":0.3937007874015748},{"duration":0.19354800000002115,"midi":64,"time":154.644852,"velocity":0.3937007874015748},{"duration":0.19354800000002115,"midi":55,"time":154.644852,"velocity":0.3937007874015748},{"duration":0.19354800000002115,"midi":59,"time":154.644852,"velocity":0.3937007874015748},{"duration":0.19354800000002115,"midi":40,"time":154.644852,"velocity":0.3937007874015748},{"duration":0.38709599999998545,"midi":67,"time":154.8384,"velocity":0.3937007874015748},{"duration":0.38709599999998545,"midi":47,"time":154.8384,"velocity":0.3937007874015748},{"duration":0.38709599999998545,"midi":50,"time":154.8384,"velocity":0.3937007874015748},{"duration":0.38709599999998545,"midi":43,"time":154.8384,"velocity":0.3937007874015748},{"duration":0.38709599999998545,"midi":55,"time":154.8384,"velocity":0.3937007874015748},{"duration":0.38709599999998545,"midi":59,"time":154.8384,"velocity":0.3937007874015748},{"duration":0.19354799999999273,"midi":43,"time":155.225496,"velocity":0.3937007874015748},{"duration":0.19354799999999273,"midi":50,"time":155.225496,"velocity":0.3937007874015748},{"duration":0.19354799999999273,"midi":47,"time":155.225496,"velocity":0.3937007874015748},{"duration":0.19354799999999273,"midi":67,"time":155.225496,"velocity":0.3937007874015748},{"duration":0.19354799999999273,"midi":55,"time":155.225496,"velocity":0.3937007874015748},{"duration":0.19354799999999273,"midi":59,"time":155.225496,"velocity":0.3937007874015748},{"duration":0.3870960000000139,"midi":47,"time":155.41904399999999,"velocity":0.3937007874015748},{"duration":0.3870960000000139,"midi":43,"time":155.41904399999999,"velocity":0.3937007874015748},{"duration":0.3870960000000139,"midi":50,"time":155.41904399999999,"velocity":0.3937007874015748},{"duration":0.3870960000000139,"midi":67,"time":155.41904399999999,"velocity":0.3937007874015748},{"duration":0.3870960000000139,"midi":55,"time":155.41904399999999,"velocity":0.3937007874015748},{"duration":0.3870960000000139,"midi":59,"time":155.41904399999999,"velocity":0.3937007874015748},{"duration":0.19354799999999273,"midi":67,"time":155.80614,"velocity":0.3937007874015748},{"duration":0.19354799999999273,"midi":47,"time":155.80614,"velocity":0.3937007874015748},{"duration":0.19354799999999273,"midi":55,"time":155.80614,"velocity":0.3937007874015748},{"duration":0.19354799999999273,"midi":43,"time":155.80614,"velocity":0.3937007874015748},{"duration":0.19354799999999273,"midi":50,"time":155.80614,"velocity":0.3937007874015748},{"duration":0.19354799999999273,"midi":59,"time":155.80614,"velocity":0.3937007874015748},{"duration":0.19354799999999273,"midi":59,"time":155.999688,"velocity":0.3937007874015748},{"duration":0.19354799999999273,"midi":55,"time":155.999688,"velocity":0.3937007874015748},{"duration":0.19354799999999273,"midi":67,"time":155.999688,"velocity":0.3937007874015748},{"duration":0.19354799999999273,"midi":43,"time":155.999688,"velocity":0.3937007874015748},{"duration":0.19354799999999273,"midi":47,"time":155.999688,"velocity":0.3937007874015748},{"duration":0.19354799999999273,"midi":50,"time":155.999688,"velocity":0.3937007874015748},{"duration":0.19354800000002115,"midi":50,"time":156.19323599999998,"velocity":0.3937007874015748},{"duration":0.19354800000002115,"midi":67,"time":156.19323599999998,"velocity":0.3937007874015748},{"duration":0.19354800000002115,"midi":47,"time":156.19323599999998,"velocity":0.3937007874015748},{"duration":0.19354800000002115,"midi":55,"time":156.19323599999998,"velocity":0.3937007874015748},{"duration":0.19354800000002115,"midi":59,"time":156.19323599999998,"velocity":0.3937007874015748},{"duration":0.19354800000002115,"midi":43,"time":156.19323599999998,"velocity":0.3937007874015748},{"duration":0.38709599999998545,"midi":55,"time":156.386784,"velocity":0.3937007874015748},{"duration":0.38709599999998545,"midi":48,"time":156.386784,"velocity":0.3937007874015748},{"duration":0.38709599999998545,"midi":60,"time":156.386784,"velocity":0.3937007874015748},{"duration":0.38709599999998545,"midi":52,"time":156.386784,"velocity":0.3937007874015748},{"duration":0.38709599999998545,"midi":64,"time":156.386784,"velocity":0.3937007874015748},{"duration":0.19354800000002115,"midi":64,"time":156.77388,"velocity":0.3937007874015748},{"duration":0.19354800000002115,"midi":52,"time":156.77388,"velocity":0.3937007874015748},{"duration":0.19354800000002115,"midi":55,"time":156.77388,"velocity":0.3937007874015748},{"duration":0.19354800000002115,"midi":60,"time":156.77388,"velocity":0.3937007874015748},{"duration":0.19354800000002115,"midi":48,"time":156.77388,"velocity":0.3937007874015748},{"duration":0.38709599999998545,"midi":64,"time":156.967428,"velocity":0.3937007874015748},{"duration":0.38709599999998545,"midi":48,"time":156.967428,"velocity":0.3937007874015748},{"duration":0.38709599999998545,"midi":52,"time":156.967428,"velocity":0.3937007874015748},{"duration":0.38709599999998545,"midi":55,"time":156.967428,"velocity":0.3937007874015748},{"duration":0.38709599999998545,"midi":60,"time":156.967428,"velocity":0.3937007874015748},{"duration":0.19354799999999273,"midi":60,"time":157.354524,"velocity":0.3937007874015748},{"duration":0.19354799999999273,"midi":55,"time":157.354524,"velocity":0.3937007874015748},{"duration":0.19354799999999273,"midi":48,"time":157.354524,"velocity":0.3937007874015748},{"duration":0.19354799999999273,"midi":64,"time":157.354524,"velocity":0.3937007874015748},{"duration":0.19354799999999273,"midi":52,"time":157.354524,"velocity":0.3937007874015748},{"duration":0.19354800000002115,"midi":55,"time":157.548072,"velocity":0.3937007874015748},{"duration":0.19354800000002115,"midi":48,"time":157.548072,"velocity":0.3937007874015748},{"duration":0.19354800000002115,"midi":60,"time":157.548072,"velocity":0.3937007874015748},{"duration":0.19354800000002115,"midi":64,"time":157.548072,"velocity":0.3937007874015748},{"duration":0.19354800000002115,"midi":52,"time":157.548072,"velocity":0.3937007874015748},{"duration":0.19354799999999273,"midi":60,"time":157.74162,"velocity":0.3937007874015748},{"duration":0.19354799999999273,"midi":64,"time":157.74162,"velocity":0.3937007874015748},{"duration":0.19354799999999273,"midi":48,"time":157.74162,"velocity":0.3937007874015748},{"duration":0.19354799999999273,"midi":55,"time":157.74162,"velocity":0.3937007874015748},{"duration":0.19354799999999273,"midi":52,"time":157.74162,"velocity":0.3937007874015748},{"duration":0.38709599999998545,"midi":55,"time":157.935168,"velocity":0.3937007874015748},{"duration":0.38709599999998545,"midi":48,"time":157.935168,"velocity":0.3937007874015748},{"duration":0.38709599999998545,"midi":60,"time":157.935168,"velocity":0.3937007874015748},{"duration":0.38709599999998545,"midi":52,"time":157.935168,"velocity":0.3937007874015748},{"duration":0.38709599999998545,"midi":64,"time":157.935168,"velocity":0.3937007874015748},{"duration":0.19354800000002115,"midi":64,"time":158.322264,"velocity":0.3937007874015748},{"duration":0.19354800000002115,"midi":60,"time":158.322264,"velocity":0.3937007874015748},{"duration":0.19354800000002115,"midi":52,"time":158.322264,"velocity":0.3937007874015748},{"duration":0.19354800000002115,"midi":48,"time":158.322264,"velocity":0.3937007874015748},{"duration":0.19354800000002115,"midi":55,"time":158.322264,"velocity":0.3937007874015748},{"duration":0.38709599999998545,"midi":52,"time":158.515812,"velocity":0.3937007874015748},{"duration":0.38709599999998545,"midi":64,"time":158.515812,"velocity":0.3937007874015748},{"duration":0.38709599999998545,"midi":55,"time":158.515812,"velocity":0.3937007874015748},{"duration":0.38709599999998545,"midi":60,"time":158.515812,"velocity":0.3937007874015748},{"duration":0.38709599999998545,"midi":48,"time":158.515812,"velocity":0.3937007874015748},{"duration":0.19354799999999273,"midi":55,"time":158.902908,"velocity":0.3937007874015748},{"duration":0.19354799999999273,"midi":48,"time":158.902908,"velocity":0.3937007874015748},{"duration":0.19354799999999273,"midi":60,"time":158.902908,"velocity":0.3937007874015748},{"duration":0.19354799999999273,"midi":52,"time":158.902908,"velocity":0.3937007874015748},{"duration":0.19354799999999273,"midi":64,"time":158.902908,"velocity":0.3937007874015748},{"duration":0.19354800000002115,"midi":48,"time":159.096456,"velocity":0.3937007874015748},{"duration":0.19354800000002115,"midi":52,"time":159.096456,"velocity":0.3937007874015748},{"duration":0.19354800000002115,"midi":55,"time":159.096456,"velocity":0.3937007874015748},{"duration":0.19354800000002115,"midi":60,"time":159.096456,"velocity":0.3937007874015748},{"duration":0.19354800000002115,"midi":64,"time":159.096456,"velocity":0.3937007874015748},{"duration":0.19354799999999273,"midi":60,"time":159.290004,"velocity":0.3937007874015748},{"duration":0.19354799999999273,"midi":55,"time":159.290004,"velocity":0.3937007874015748},{"duration":0.19354799999999273,"midi":52,"time":159.290004,"velocity":0.3937007874015748},{"duration":0.19354799999999273,"midi":64,"time":159.290004,"velocity":0.3937007874015748},{"duration":0.19354799999999273,"midi":48,"time":159.290004,"velocity":0.3937007874015748},{"duration":0.38709599999998545,"midi":66,"time":159.483552,"velocity":0.3937007874015748},{"duration":0.38709599999998545,"midi":62,"time":159.483552,"velocity":0.3937007874015748},{"duration":0.38709599999998545,"midi":50,"time":159.483552,"velocity":0.3937007874015748},{"duration":0.38709599999998545,"midi":57,"time":159.483552,"velocity":0.3937007874015748},{"duration":0.3870960000000139,"midi":50,"time":159.870648,"velocity":0.3937007874015748},{"duration":0.3870960000000139,"midi":62,"time":159.870648,"velocity":0.3937007874015748},{"duration":0.3870960000000139,"midi":57,"time":159.870648,"velocity":0.3937007874015748},{"duration":0.3870960000000139,"midi":66,"time":159.870648,"velocity":0.3937007874015748},{"duration":0.38709599999998545,"midi":55,"time":160.257744,"velocity":0.3937007874015748},{"duration":0.38709599999998545,"midi":40,"time":160.257744,"velocity":0.3937007874015748},{"duration":0.38709599999998545,"midi":47,"time":160.257744,"velocity":0.3937007874015748},{"duration":0.38709599999998545,"midi":52,"time":160.257744,"velocity":0.3937007874015748},{"duration":0.38709599999998545,"midi":64,"time":160.257744,"velocity":0.3937007874015748},{"duration":0.38709599999998545,"midi":59,"time":160.257744,"velocity":0.3937007874015748},{"duration":0.19354800000002115,"midi":64,"time":160.64484,"velocity":0.3937007874015748},{"duration":0.19354800000002115,"midi":47,"time":160.64484,"velocity":0.3937007874015748},{"duration":0.19354800000002115,"midi":55,"time":160.64484,"velocity":0.3937007874015748},{"duration":0.19354800000002115,"midi":40,"time":160.64484,"velocity":0.3937007874015748},{"duration":0.19354800000002115,"midi":52,"time":160.64484,"velocity":0.3937007874015748},{"duration":0.19354800000002115,"midi":59,"time":160.64484,"velocity":0.3937007874015748},{"duration":0.38709599999998545,"midi":52,"time":160.838388,"velocity":0.3937007874015748},{"duration":0.38709599999998545,"midi":55,"time":160.838388,"velocity":0.3937007874015748},{"duration":0.38709599999998545,"midi":59,"time":160.838388,"velocity":0.3937007874015748},{"duration":0.38709599999998545,"midi":47,"time":160.838388,"velocity":0.3937007874015748},{"duration":0.38709599999998545,"midi":64,"time":160.838388,"velocity":0.3937007874015748},{"duration":0.38709599999998545,"midi":40,"time":160.838388,"velocity":0.3937007874015748},{"duration":0.19354799999999273,"midi":64,"time":161.225484,"velocity":0.3937007874015748},{"duration":0.19354799999999273,"midi":47,"time":161.225484,"velocity":0.3937007874015748},{"duration":0.19354799999999273,"midi":52,"time":161.225484,"velocity":0.3937007874015748},{"duration":0.19354799999999273,"midi":55,"time":161.225484,"velocity":0.3937007874015748},{"duration":0.19354799999999273,"midi":59,"time":161.225484,"velocity":0.3937007874015748},{"duration":0.19354799999999273,"midi":40,"time":161.225484,"velocity":0.3937007874015748},{"duration":0.19354800000002115,"midi":64,"time":161.419032,"velocity":0.3937007874015748},{"duration":0.19354800000002115,"midi":59,"time":161.419032,"velocity":0.3937007874015748},{"duration":0.19354800000002115,"midi":55,"time":161.419032,"velocity":0.3937007874015748},{"duration":0.19354800000002115,"midi":40,"time":161.419032,"velocity":0.3937007874015748},{"duration":0.19354800000002115,"midi":47,"time":161.419032,"velocity":0.3937007874015748},{"duration":0.19354800000002115,"midi":52,"time":161.419032,"velocity":0.3937007874015748},{"duration":0.19354799999999273,"midi":59,"time":161.61258,"velocity":0.3937007874015748},{"duration":0.19354799999999273,"midi":55,"time":161.61258,"velocity":0.3937007874015748},{"duration":0.19354799999999273,"midi":47,"time":161.61258,"velocity":0.3937007874015748},{"duration":0.19354799999999273,"midi":64,"time":161.61258,"velocity":0.3937007874015748},{"duration":0.19354799999999273,"midi":40,"time":161.61258,"velocity":0.3937007874015748},{"duration":0.19354799999999273,"midi":52,"time":161.61258,"velocity":0.3937007874015748},{"duration":0.38709599999998545,"midi":64,"time":161.806128,"velocity":0.3937007874015748},{"duration":0.38709599999998545,"midi":47,"time":161.806128,"velocity":0.3937007874015748},{"duration":0.38709599999998545,"midi":59,"time":161.806128,"velocity":0.3937007874015748},{"duration":0.38709599999998545,"midi":40,"time":161.806128,"velocity":0.3937007874015748},{"duration":0.38709599999998545,"midi":52,"time":161.806128,"velocity":0.3937007874015748},{"duration":0.38709599999998545,"midi":55,"time":161.806128,"velocity":0.3937007874015748},{"duration":0.19354800000002115,"midi":40,"time":162.193224,"velocity":0.3937007874015748},{"duration":0.19354800000002115,"midi":47,"time":162.193224,"velocity":0.3937007874015748},{"duration":0.19354800000002115,"midi":52,"time":162.193224,"velocity":0.3937007874015748},{"duration":0.19354800000002115,"midi":55,"time":162.193224,"velocity":0.3937007874015748},{"duration":0.19354800000002115,"midi":59,"time":162.193224,"velocity":0.3937007874015748},{"duration":0.19354800000002115,"midi":64,"time":162.193224,"velocity":0.3937007874015748},{"duration":0.38709599999998545,"midi":59,"time":162.386772,"velocity":0.3937007874015748},{"duration":0.38709599999998545,"midi":55,"time":162.386772,"velocity":0.3937007874015748},{"duration":0.38709599999998545,"midi":47,"time":162.386772,"velocity":0.3937007874015748},{"duration":0.38709599999998545,"midi":52,"time":162.386772,"velocity":0.3937007874015748},{"duration":0.38709599999998545,"midi":40,"time":162.386772,"velocity":0.3937007874015748},{"duration":0.38709599999998545,"midi":64,"time":162.386772,"velocity":0.3937007874015748},{"duration":0.19354799999999273,"midi":64,"time":162.773868,"velocity":0.3937007874015748},{"duration":0.19354799999999273,"midi":59,"time":162.773868,"velocity":0.3937007874015748},{"duration":0.19354799999999273,"midi":40,"time":162.773868,"velocity":0.3937007874015748},{"duration":0.19354799999999273,"midi":52,"time":162.773868,"velocity":0.3937007874015748},{"duration":0.19354799999999273,"midi":55,"time":162.773868,"velocity":0.3937007874015748},{"duration":0.19354799999999273,"midi":47,"time":162.773868,"velocity":0.3937007874015748},{"duration":0.19354800000002115,"midi":47,"time":162.967416,"velocity":0.3937007874015748},{"duration":0.19354800000002115,"midi":52,"time":162.967416,"velocity":0.3937007874015748},{"duration":0.19354800000002115,"midi":64,"time":162.967416,"velocity":0.3937007874015748},{"duration":0.19354800000002115,"midi":55,"time":162.967416,"velocity":0.3937007874015748},{"duration":0.19354800000002115,"midi":40,"time":162.967416,"velocity":0.3937007874015748},{"duration":0.19354800000002115,"midi":59,"time":162.967416,"velocity":0.3937007874015748},{"duration":0.19354799999999273,"midi":64,"time":163.160964,"velocity":0.3937007874015748},{"duration":0.19354799999999273,"midi":40,"time":163.160964,"velocity":0.3937007874015748},{"duration":0.19354799999999273,"midi":52,"time":163.160964,"velocity":0.3937007874015748},{"duration":0.19354799999999273,"midi":55,"time":163.160964,"velocity":0.3937007874015748},{"duration":0.19354799999999273,"midi":59,"time":163.160964,"velocity":0.3937007874015748},{"duration":0.19354799999999273,"midi":47,"time":163.160964,"velocity":0.3937007874015748},{"duration":0.38709599999998545,"midi":59,"time":163.354512,"velocity":0.3937007874015748},{"duration":0.38709599999998545,"midi":50,"time":163.354512,"velocity":0.3937007874015748},{"duration":0.38709599999998545,"midi":67,"time":163.354512,"velocity":0.3937007874015748},{"duration":0.38709599999998545,"midi":43,"time":163.354512,"velocity":0.3937007874015748},{"duration":0.38709599999998545,"midi":47,"time":163.354512,"velocity":0.3937007874015748},{"duration":0.38709599999998545,"midi":55,"time":163.354512,"velocity":0.3937007874015748},{"duration":0.19354800000002115,"midi":59,"time":163.74160799999999,"velocity":0.3937007874015748},{"duration":0.19354800000002115,"midi":50,"time":163.74160799999999,"velocity":0.3937007874015748},{"duration":0.19354800000002115,"midi":47,"time":163.74160799999999,"velocity":0.3937007874015748},{"duration":0.19354800000002115,"midi":55,"time":163.74160799999999,"velocity":0.3937007874015748},{"duration":0.19354800000002115,"midi":43,"time":163.74160799999999,"velocity":0.3937007874015748},{"duration":0.19354800000002115,"midi":67,"time":163.74160799999999,"velocity":0.3937007874015748},{"duration":0.38709599999998545,"midi":55,"time":163.935156,"velocity":0.3937007874015748},{"duration":0.38709599999998545,"midi":43,"time":163.935156,"velocity":0.3937007874015748},{"duration":0.38709599999998545,"midi":59,"time":163.935156,"velocity":0.3937007874015748},{"duration":0.38709599999998545,"midi":47,"time":163.935156,"velocity":0.3937007874015748},{"duration":0.38709599999998545,"midi":67,"time":163.935156,"velocity":0.3937007874015748},{"duration":0.38709599999998545,"midi":50,"time":163.935156,"velocity":0.3937007874015748},{"duration":0.19354799999999273,"midi":55,"time":164.322252,"velocity":0.3937007874015748},{"duration":0.19354799999999273,"midi":59,"time":164.322252,"velocity":0.3937007874015748},{"duration":0.19354799999999273,"midi":67,"time":164.322252,"velocity":0.3937007874015748},{"duration":0.19354799999999273,"midi":43,"time":164.322252,"velocity":0.3937007874015748},{"duration":0.19354799999999273,"midi":50,"time":164.322252,"velocity":0.3937007874015748},{"duration":0.19354799999999273,"midi":47,"time":164.322252,"velocity":0.3937007874015748},{"duration":0.19354800000002115,"midi":59,"time":164.51579999999998,"velocity":0.3937007874015748},{"duration":0.19354800000002115,"midi":67,"time":164.51579999999998,"velocity":0.3937007874015748},{"duration":0.19354800000002115,"midi":43,"time":164.51579999999998,"velocity":0.3937007874015748},{"duration":0.19354800000002115,"midi":55,"time":164.51579999999998,"velocity":0.3937007874015748},{"duration":0.19354800000002115,"midi":50,"time":164.51579999999998,"velocity":0.3937007874015748},{"duration":0.19354800000002115,"midi":47,"time":164.51579999999998,"velocity":0.3937007874015748},{"duration":0.19354799999999273,"midi":50,"time":164.709348,"velocity":0.3937007874015748},{"duration":0.19354799999999273,"midi":55,"time":164.709348,"velocity":0.3937007874015748},{"duration":0.19354799999999273,"midi":43,"time":164.709348,"velocity":0.3937007874015748},{"duration":0.19354799999999273,"midi":59,"time":164.709348,"velocity":0.3937007874015748},{"duration":0.19354799999999273,"midi":67,"time":164.709348,"velocity":0.3937007874015748},{"duration":0.19354799999999273,"midi":47,"time":164.709348,"velocity":0.3937007874015748},{"duration":0.3870960000000139,"midi":64,"time":164.902896,"velocity":0.3937007874015748},{"duration":0.3870960000000139,"midi":60,"time":164.902896,"velocity":0.3937007874015748},{"duration":0.3870960000000139,"midi":52,"time":164.902896,"velocity":0.3937007874015748},{"duration":0.3870960000000139,"midi":48,"time":164.902896,"velocity":0.3937007874015748},{"duration":0.3870960000000139,"midi":55,"time":164.902896,"velocity":0.3937007874015748},{"duration":0.19354799999999273,"midi":64,"time":165.289992,"velocity":0.3937007874015748},{"duration":0.19354799999999273,"midi":55,"time":165.289992,"velocity":0.3937007874015748},{"duration":0.19354799999999273,"midi":60,"time":165.289992,"velocity":0.3937007874015748},{"duration":0.19354799999999273,"midi":48,"time":165.289992,"velocity":0.3937007874015748},{"duration":0.19354799999999273,"midi":52,"time":165.289992,"velocity":0.3937007874015748},{"duration":0.38709599999998545,"midi":48,"time":165.48354,"velocity":0.3937007874015748},{"duration":0.38709599999998545,"midi":52,"time":165.48354,"velocity":0.3937007874015748},{"duration":0.38709599999998545,"midi":55,"time":165.48354,"velocity":0.3937007874015748},{"duration":0.38709599999998545,"midi":60,"time":165.48354,"velocity":0.3937007874015748},{"duration":0.38709599999998545,"midi":64,"time":165.48354,"velocity":0.3937007874015748},{"duration":0.19354800000002115,"midi":60,"time":165.870636,"velocity":0.3937007874015748},{"duration":0.19354800000002115,"midi":64,"time":165.870636,"velocity":0.3937007874015748},{"duration":0.19354800000002115,"midi":52,"time":165.870636,"velocity":0.3937007874015748},{"duration":0.19354800000002115,"midi":48,"time":165.870636,"velocity":0.3937007874015748},{"duration":0.19354800000002115,"midi":55,"time":165.870636,"velocity":0.3937007874015748},{"duration":0.19354799999999273,"midi":64,"time":166.064184,"velocity":0.3937007874015748},{"duration":0.19354799999999273,"midi":52,"time":166.064184,"velocity":0.3937007874015748},{"duration":0.19354799999999273,"midi":55,"time":166.064184,"velocity":0.3937007874015748},{"duration":0.19354799999999273,"midi":60,"time":166.064184,"velocity":0.3937007874015748},{"duration":0.19354799999999273,"midi":48,"time":166.064184,"velocity":0.3937007874015748},{"duration":0.19354799999999273,"midi":48,"time":166.257732,"velocity":0.3937007874015748},{"duration":0.19354799999999273,"midi":52,"time":166.257732,"velocity":0.3937007874015748},{"duration":0.19354799999999273,"midi":55,"time":166.257732,"velocity":0.3937007874015748},{"duration":0.19354799999999273,"midi":60,"time":166.257732,"velocity":0.3937007874015748},{"duration":0.19354799999999273,"midi":64,"time":166.257732,"velocity":0.3937007874015748},{"duration":0.3870960000000139,"midi":60,"time":166.45128,"velocity":0.3937007874015748},{"duration":0.3870960000000139,"midi":55,"time":166.45128,"velocity":0.3937007874015748},{"duration":0.3870960000000139,"midi":48,"time":166.45128,"velocity":0.3937007874015748},{"duration":0.3870960000000139,"midi":64,"time":166.45128,"velocity":0.3937007874015748},{"duration":0.3870960000000139,"midi":52,"time":166.45128,"velocity":0.3937007874015748},{"duration":0.19354799999999273,"midi":55,"time":166.838376,"velocity":0.3937007874015748},{"duration":0.19354799999999273,"midi":48,"time":166.838376,"velocity":0.3937007874015748},{"duration":0.19354799999999273,"midi":60,"time":166.838376,"velocity":0.3937007874015748},{"duration":0.19354799999999273,"midi":64,"time":166.838376,"velocity":0.3937007874015748},{"duration":0.19354799999999273,"midi":52,"time":166.838376,"velocity":0.3937007874015748},{"duration":0.38709599999998545,"midi":55,"time":167.031924,"velocity":0.3937007874015748},{"duration":0.38709599999998545,"midi":48,"time":167.031924,"velocity":0.3937007874015748},{"duration":0.38709599999998545,"midi":52,"time":167.031924,"velocity":0.3937007874015748},{"duration":0.38709599999998545,"midi":64,"time":167.031924,"velocity":0.3937007874015748},{"duration":0.38709599999998545,"midi":60,"time":167.031924,"velocity":0.3937007874015748},{"duration":0.19354800000002115,"midi":60,"time":167.41902,"velocity":0.3937007874015748},{"duration":0.19354800000002115,"midi":64,"time":167.41902,"velocity":0.3937007874015748},{"duration":0.19354800000002115,"midi":52,"time":167.41902,"velocity":0.3937007874015748},{"duration":0.19354800000002115,"midi":48,"time":167.41902,"velocity":0.3937007874015748},{"duration":0.19354800000002115,"midi":55,"time":167.41902,"velocity":0.3937007874015748},{"duration":0.19354799999999273,"midi":55,"time":167.612568,"velocity":0.3937007874015748},{"duration":0.19354799999999273,"midi":48,"time":167.612568,"velocity":0.3937007874015748},{"duration":0.19354799999999273,"midi":60,"time":167.612568,"velocity":0.3937007874015748},{"duration":0.19354799999999273,"midi":64,"time":167.612568,"velocity":0.3937007874015748},{"duration":0.19354799999999273,"midi":52,"time":167.612568,"velocity":0.3937007874015748},{"duration":0.19354799999999273,"midi":48,"time":167.806116,"velocity":0.3937007874015748},{"duration":0.19354799999999273,"midi":64,"time":167.806116,"velocity":0.3937007874015748},{"duration":0.19354799999999273,"midi":52,"time":167.806116,"velocity":0.3937007874015748},{"duration":0.19354799999999273,"midi":55,"time":167.806116,"velocity":0.3937007874015748},{"duration":0.19354799999999273,"midi":60,"time":167.806116,"velocity":0.3937007874015748},{"duration":0.3870960000000139,"midi":66,"time":167.999664,"velocity":0.3937007874015748},{"duration":0.3870960000000139,"midi":57,"time":167.999664,"velocity":0.3937007874015748},{"duration":0.3870960000000139,"midi":50,"time":167.999664,"velocity":0.3937007874015748},{"duration":0.3870960000000139,"midi":62,"time":167.999664,"velocity":0.3937007874015748},{"duration":0.38709599999998545,"midi":57,"time":168.38676,"velocity":0.3937007874015748},{"duration":0.38709599999998545,"midi":62,"time":168.38676,"velocity":0.3937007874015748},{"duration":0.38709599999998545,"midi":66,"time":168.38676,"velocity":0.3937007874015748},{"duration":0.38709599999998545,"midi":50,"time":168.38676,"velocity":0.3937007874015748},{"duration":0.3870960000000139,"midi":40,"time":168.773856,"velocity":0.3937007874015748},{"duration":0.3870960000000139,"midi":47,"time":168.773856,"velocity":0.3937007874015748},{"duration":0.3870960000000139,"midi":59,"time":168.773856,"velocity":0.3937007874015748},{"duration":0.3870960000000139,"midi":52,"time":168.773856,"velocity":0.3937007874015748},{"duration":0.3870960000000139,"midi":55,"time":168.773856,"velocity":0.3937007874015748},{"duration":0.3870960000000139,"midi":64,"time":168.773856,"velocity":0.3937007874015748},{"duration":0.19354799999999273,"midi":40,"time":169.160952,"velocity":0.3937007874015748},{"duration":0.19354799999999273,"midi":47,"time":169.160952,"velocity":0.3937007874015748},{"duration":0.19354799999999273,"midi":52,"time":169.160952,"velocity":0.3937007874015748},{"duration":0.19354799999999273,"midi":55,"time":169.160952,"velocity":0.3937007874015748},{"duration":0.19354799999999273,"midi":59,"time":169.160952,"velocity":0.3937007874015748},{"duration":0.19354799999999273,"midi":64,"time":169.160952,"velocity":0.3937007874015748},{"duration":0.38709599999998545,"midi":59,"time":169.3545,"velocity":0.3937007874015748},{"duration":0.38709599999998545,"midi":64,"time":169.3545,"velocity":0.3937007874015748},{"duration":0.38709599999998545,"midi":47,"time":169.3545,"velocity":0.3937007874015748},{"duration":0.38709599999998545,"midi":52,"time":169.3545,"velocity":0.3937007874015748},{"duration":0.38709599999998545,"midi":40,"time":169.3545,"velocity":0.3937007874015748},{"duration":0.38709599999998545,"midi":55,"time":169.3545,"velocity":0.3937007874015748},{"duration":0.19354800000002115,"midi":55,"time":169.741596,"velocity":0.3937007874015748},{"duration":0.19354800000002115,"midi":59,"time":169.741596,"velocity":0.3937007874015748},{"duration":0.19354800000002115,"midi":40,"time":169.741596,"velocity":0.3937007874015748},{"duration":0.19354800000002115,"midi":47,"time":169.741596,"velocity":0.3937007874015748},{"duration":0.19354800000002115,"midi":64,"time":169.741596,"velocity":0.3937007874015748},{"duration":0.19354800000002115,"midi":52,"time":169.741596,"velocity":0.3937007874015748},{"duration":0.19354799999999273,"midi":59,"time":169.935144,"velocity":0.3937007874015748},{"duration":0.19354799999999273,"midi":55,"time":169.935144,"velocity":0.3937007874015748},{"duration":0.19354799999999273,"midi":47,"time":169.935144,"velocity":0.3937007874015748},{"duration":0.19354799999999273,"midi":52,"time":169.935144,"velocity":0.3937007874015748},{"duration":0.19354799999999273,"midi":64,"time":169.935144,"velocity":0.3937007874015748},{"duration":0.19354799999999273,"midi":40,"time":169.935144,"velocity":0.3937007874015748},{"duration":0.19354799999999273,"midi":59,"time":170.128692,"velocity":0.3937007874015748},{"duration":0.19354799999999273,"midi":55,"time":170.128692,"velocity":0.3937007874015748},{"duration":0.19354799999999273,"midi":64,"time":170.128692,"velocity":0.3937007874015748},{"duration":0.19354799999999273,"midi":52,"time":170.128692,"velocity":0.3937007874015748},{"duration":0.19354799999999273,"midi":40,"time":170.128692,"velocity":0.3937007874015748},{"duration":0.19354799999999273,"midi":47,"time":170.128692,"velocity":0.3937007874015748},{"duration":0.3870960000000139,"midi":59,"time":170.32224,"velocity":0.3937007874015748},{"duration":0.3870960000000139,"midi":64,"time":170.32224,"velocity":0.3937007874015748},{"duration":0.3870960000000139,"midi":47,"time":170.32224,"velocity":0.3937007874015748},{"duration":0.3870960000000139,"midi":55,"time":170.32224,"velocity":0.3937007874015748},{"duration":0.3870960000000139,"midi":40,"time":170.32224,"velocity":0.3937007874015748},{"duration":0.3870960000000139,"midi":52,"time":170.32224,"velocity":0.3937007874015748},{"duration":0.19354799999999273,"midi":64,"time":170.709336,"velocity":0.3937007874015748},{"duration":0.19354799999999273,"midi":55,"time":170.709336,"velocity":0.3937007874015748},{"duration":0.19354799999999273,"midi":59,"time":170.709336,"velocity":0.3937007874015748},{"duration":0.19354799999999273,"midi":52,"time":170.709336,"velocity":0.3937007874015748},{"duration":0.19354799999999273,"midi":40,"time":170.709336,"velocity":0.3937007874015748},{"duration":0.19354799999999273,"midi":47,"time":170.709336,"velocity":0.3937007874015748},{"duration":0.38709599999998545,"midi":40,"time":170.902884,"velocity":0.3937007874015748},{"duration":0.38709599999998545,"midi":59,"time":170.902884,"velocity":0.3937007874015748},{"duration":0.38709599999998545,"midi":55,"time":170.902884,"velocity":0.3937007874015748},{"duration":0.38709599999998545,"midi":47,"time":170.902884,"velocity":0.3937007874015748},{"duration":0.38709599999998545,"midi":52,"time":170.902884,"velocity":0.3937007874015748},{"duration":0.38709599999998545,"midi":64,"time":170.902884,"velocity":0.3937007874015748},{"duration":0.19354800000002115,"midi":40,"time":171.28997999999999,"velocity":0.3937007874015748},{"duration":0.19354800000002115,"midi":47,"time":171.28997999999999,"velocity":0.3937007874015748},{"duration":0.19354800000002115,"midi":52,"time":171.28997999999999,"velocity":0.3937007874015748},{"duration":0.19354800000002115,"midi":55,"time":171.28997999999999,"velocity":0.3937007874015748},{"duration":0.19354800000002115,"midi":59,"time":171.28997999999999,"velocity":0.3937007874015748},{"duration":0.19354800000002115,"midi":64,"time":171.28997999999999,"velocity":0.3937007874015748},{"duration":0.19354799999999273,"midi":64,"time":171.483528,"velocity":0.3937007874015748},{"duration":0.19354799999999273,"midi":47,"time":171.483528,"velocity":0.3937007874015748},{"duration":0.19354799999999273,"midi":52,"time":171.483528,"velocity":0.3937007874015748},{"duration":0.19354799999999273,"midi":55,"time":171.483528,"velocity":0.3937007874015748},{"duration":0.19354799999999273,"midi":59,"time":171.483528,"velocity":0.3937007874015748},{"duration":0.19354799999999273,"midi":40,"time":171.483528,"velocity":0.3937007874015748},{"duration":0.19354799999999273,"midi":40,"time":171.677076,"velocity":0.3937007874015748},{"duration":0.19354799999999273,"midi":47,"time":171.677076,"velocity":0.3937007874015748},{"duration":0.19354799999999273,"midi":52,"time":171.677076,"velocity":0.3937007874015748},{"duration":0.19354799999999273,"midi":55,"time":171.677076,"velocity":0.3937007874015748},{"duration":0.19354799999999273,"midi":59,"time":171.677076,"velocity":0.3937007874015748},{"duration":0.19354799999999273,"midi":64,"time":171.677076,"velocity":0.3937007874015748},{"duration":0.3870960000000139,"midi":59,"time":205.935072,"velocity":0.3937007874015748},{"duration":0.3870960000000139,"midi":55,"time":205.935072,"velocity":0.3937007874015748},{"duration":0.3870960000000139,"midi":50,"time":205.935072,"velocity":0.3937007874015748},{"duration":0.3870960000000139,"midi":67,"time":205.935072,"velocity":0.3937007874015748},{"duration":0.3870960000000139,"midi":47,"time":205.935072,"velocity":0.3937007874015748},{"duration":0.3870960000000139,"midi":43,"time":205.935072,"velocity":0.3937007874015748},{"duration":0.19354799999999273,"midi":55,"time":206.322168,"velocity":0.3937007874015748},{"duration":0.19354799999999273,"midi":43,"time":206.322168,"velocity":0.3937007874015748},{"duration":0.19354799999999273,"midi":59,"time":206.322168,"velocity":0.3937007874015748},{"duration":0.19354799999999273,"midi":47,"time":206.322168,"velocity":0.3937007874015748},{"duration":0.19354799999999273,"midi":67,"time":206.322168,"velocity":0.3937007874015748},{"duration":0.19354799999999273,"midi":50,"time":206.322168,"velocity":0.3937007874015748},{"duration":0.3870960000000139,"midi":43,"time":206.515716,"velocity":0.3937007874015748},{"duration":0.3870960000000139,"midi":47,"time":206.515716,"velocity":0.3937007874015748},{"duration":0.3870960000000139,"midi":50,"time":206.515716,"velocity":0.3937007874015748},{"duration":0.3870960000000139,"midi":55,"time":206.515716,"velocity":0.3937007874015748},{"duration":0.3870960000000139,"midi":59,"time":206.515716,"velocity":0.3937007874015748},{"duration":0.3870960000000139,"midi":67,"time":206.515716,"velocity":0.3937007874015748},{"duration":0.19354799999999273,"midi":59,"time":206.902812,"velocity":0.3937007874015748},{"duration":0.19354799999999273,"midi":55,"time":206.902812,"velocity":0.3937007874015748},{"duration":0.19354799999999273,"midi":47,"time":206.902812,"velocity":0.3937007874015748},{"duration":0.19354799999999273,"midi":50,"time":206.902812,"velocity":0.3937007874015748},{"duration":0.19354799999999273,"midi":43,"time":206.902812,"velocity":0.3937007874015748},{"duration":0.19354799999999273,"midi":67,"time":206.902812,"velocity":0.3937007874015748},{"duration":0.19354799999999273,"midi":67,"time":207.09636,"velocity":0.3937007874015748},{"duration":0.19354799999999273,"midi":59,"time":207.09636,"velocity":0.3937007874015748},{"duration":0.19354799999999273,"midi":43,"time":207.09636,"velocity":0.3937007874015748},{"duration":0.19354799999999273,"midi":50,"time":207.09636,"velocity":0.3937007874015748},{"duration":0.19354799999999273,"midi":55,"time":207.09636,"velocity":0.3937007874015748},{"duration":0.19354799999999273,"midi":47,"time":207.09636,"velocity":0.3937007874015748},{"duration":0.19354799999999273,"midi":47,"time":207.289908,"velocity":0.3937007874015748},{"duration":0.19354799999999273,"midi":43,"time":207.289908,"velocity":0.3937007874015748},{"duration":0.19354799999999273,"midi":50,"time":207.289908,"velocity":0.3937007874015748},{"duration":0.19354799999999273,"midi":67,"time":207.289908,"velocity":0.3937007874015748},{"duration":0.19354799999999273,"midi":55,"time":207.289908,"velocity":0.3937007874015748},{"duration":0.19354799999999273,"midi":59,"time":207.289908,"velocity":0.3937007874015748},{"duration":0.3870960000000139,"midi":55,"time":207.483456,"velocity":0.3937007874015748},{"duration":0.3870960000000139,"midi":48,"time":207.483456,"velocity":0.3937007874015748},{"duration":0.3870960000000139,"midi":60,"time":207.483456,"velocity":0.3937007874015748},{"duration":0.3870960000000139,"midi":64,"time":207.483456,"velocity":0.3937007874015748},{"duration":0.3870960000000139,"midi":52,"time":207.483456,"velocity":0.3937007874015748},{"duration":0.19354799999999273,"midi":64,"time":207.870552,"velocity":0.3937007874015748},{"duration":0.19354799999999273,"midi":48,"time":207.870552,"velocity":0.3937007874015748},{"duration":0.19354799999999273,"midi":52,"time":207.870552,"velocity":0.3937007874015748},{"duration":0.19354799999999273,"midi":55,"time":207.870552,"velocity":0.3937007874015748},{"duration":0.19354799999999273,"midi":60,"time":207.870552,"velocity":0.3937007874015748},{"duration":0.3870960000000139,"midi":60,"time":208.0641,"velocity":0.3937007874015748},{"duration":0.3870960000000139,"midi":55,"time":208.0641,"velocity":0.3937007874015748},{"duration":0.3870960000000139,"midi":48,"time":208.0641,"velocity":0.3937007874015748},{"duration":0.3870960000000139,"midi":64,"time":208.0641,"velocity":0.3937007874015748},{"duration":0.3870960000000139,"midi":52,"time":208.0641,"velocity":0.3937007874015748},{"duration":0.19354799999999273,"midi":55,"time":208.451196,"velocity":0.3937007874015748},{"duration":0.19354799999999273,"midi":48,"time":208.451196,"velocity":0.3937007874015748},{"duration":0.19354799999999273,"midi":60,"time":208.451196,"velocity":0.3937007874015748},{"duration":0.19354799999999273,"midi":64,"time":208.451196,"velocity":0.3937007874015748},{"duration":0.19354799999999273,"midi":52,"time":208.451196,"velocity":0.3937007874015748},{"duration":0.19354799999999273,"midi":64,"time":208.644744,"velocity":0.3937007874015748},{"duration":0.19354799999999273,"midi":60,"time":208.644744,"velocity":0.3937007874015748},{"duration":0.19354799999999273,"midi":52,"time":208.644744,"velocity":0.3937007874015748},{"duration":0.19354799999999273,"midi":48,"time":208.644744,"velocity":0.3937007874015748},{"duration":0.19354799999999273,"midi":55,"time":208.644744,"velocity":0.3937007874015748},{"duration":0.19354799999999273,"midi":55,"time":208.838292,"velocity":0.3937007874015748},{"duration":0.19354799999999273,"midi":52,"time":208.838292,"velocity":0.3937007874015748},{"duration":0.19354799999999273,"midi":48,"time":208.838292,"velocity":0.3937007874015748},{"duration":0.19354799999999273,"midi":64,"time":208.838292,"velocity":0.3937007874015748},{"duration":0.19354799999999273,"midi":60,"time":208.838292,"velocity":0.3937007874015748},{"duration":0.3870960000000139,"midi":48,"time":209.03184,"velocity":0.3937007874015748},{"duration":0.3870960000000139,"midi":52,"time":209.03184,"velocity":0.3937007874015748},{"duration":0.3870960000000139,"midi":55,"time":209.03184,"velocity":0.3937007874015748},{"duration":0.3870960000000139,"midi":60,"time":209.03184,"velocity":0.3937007874015748},{"duration":0.3870960000000139,"midi":64,"time":209.03184,"velocity":0.3937007874015748},{"duration":0.19354799999999273,"midi":60,"time":209.418936,"velocity":0.3937007874015748},{"duration":0.19354799999999273,"midi":55,"time":209.418936,"velocity":0.3937007874015748},{"duration":0.19354799999999273,"midi":48,"time":209.418936,"velocity":0.3937007874015748},{"duration":0.19354799999999273,"midi":64,"time":209.418936,"velocity":0.3937007874015748},{"duration":0.19354799999999273,"midi":52,"time":209.418936,"velocity":0.3937007874015748},{"duration":0.3870960000000139,"midi":48,"time":209.612484,"velocity":0.3937007874015748},{"duration":0.3870960000000139,"midi":55,"time":209.612484,"velocity":0.3937007874015748},{"duration":0.3870960000000139,"midi":60,"time":209.612484,"velocity":0.3937007874015748},{"duration":0.3870960000000139,"midi":64,"time":209.612484,"velocity":0.3937007874015748},{"duration":0.3870960000000139,"midi":52,"time":209.612484,"velocity":0.3937007874015748},{"duration":0.19354799999999273,"midi":52,"time":209.99958,"velocity":0.3937007874015748},{"duration":0.19354799999999273,"midi":64,"time":209.99958,"velocity":0.3937007874015748},{"duration":0.19354799999999273,"midi":55,"time":209.99958,"velocity":0.3937007874015748},{"duration":0.19354799999999273,"midi":60,"time":209.99958,"velocity":0.3937007874015748},{"duration":0.19354799999999273,"midi":48,"time":209.99958,"velocity":0.3937007874015748},{"duration":0.19354799999999273,"midi":52,"time":210.193128,"velocity":0.3937007874015748},{"duration":0.19354799999999273,"midi":60,"time":210.193128,"velocity":0.3937007874015748},{"duration":0.19354799999999273,"midi":48,"time":210.193128,"velocity":0.3937007874015748},{"duration":0.19354799999999273,"midi":55,"time":210.193128,"velocity":0.3937007874015748},{"duration":0.19354799999999273,"midi":64,"time":210.193128,"velocity":0.3937007874015748},{"duration":0.19354799999999273,"midi":48,"time":210.386676,"velocity":0.3937007874015748},{"duration":0.19354799999999273,"midi":60,"time":210.386676,"velocity":0.3937007874015748},{"duration":0.19354799999999273,"midi":55,"time":210.386676,"velocity":0.3937007874015748},{"duration":0.19354799999999273,"midi":64,"time":210.386676,"velocity":0.3937007874015748},{"duration":0.19354799999999273,"midi":52,"time":210.386676,"velocity":0.3937007874015748},{"duration":0.3870960000000139,"midi":66,"time":210.580224,"velocity":0.3937007874015748},{"duration":0.3870960000000139,"midi":50,"time":210.580224,"velocity":0.3937007874015748},{"duration":0.3870960000000139,"midi":57,"time":210.580224,"velocity":0.3937007874015748},{"duration":0.3870960000000139,"midi":62,"time":210.580224,"velocity":0.3937007874015748},{"duration":0.38709599999998545,"midi":66,"time":210.96732,"velocity":0.3937007874015748},{"duration":0.38709599999998545,"midi":57,"time":210.96732,"velocity":0.3937007874015748},{"duration":0.38709599999998545,"midi":62,"time":210.96732,"velocity":0.3937007874015748},{"duration":0.38709599999998545,"midi":50,"time":210.96732,"velocity":0.3937007874015748},{"duration":0.3870960000000139,"midi":52,"time":211.354416,"velocity":0.3937007874015748},{"duration":0.3870960000000139,"midi":55,"time":211.354416,"velocity":0.3937007874015748},{"duration":0.3870960000000139,"midi":59,"time":211.354416,"velocity":0.3937007874015748},{"duration":0.3870960000000139,"midi":40,"time":211.354416,"velocity":0.3937007874015748},{"duration":0.3870960000000139,"midi":64,"time":211.354416,"velocity":0.3937007874015748},{"duration":0.3870960000000139,"midi":47,"time":211.354416,"velocity":0.3937007874015748},{"duration":0.19354799999999273,"midi":59,"time":211.741512,"velocity":0.3937007874015748},{"duration":0.19354799999999273,"midi":40,"time":211.741512,"velocity":0.3937007874015748},{"duration":0.19354799999999273,"midi":55,"time":211.741512,"velocity":0.3937007874015748},{"duration":0.19354799999999273,"midi":64,"time":211.741512,"velocity":0.3937007874015748},{"duration":0.19354799999999273,"midi":47,"time":211.741512,"velocity":0.3937007874015748},{"duration":0.19354799999999273,"midi":52,"time":211.741512,"velocity":0.3937007874015748},{"duration":0.3870960000000139,"midi":59,"time":211.93506,"velocity":0.3937007874015748},{"duration":0.3870960000000139,"midi":55,"time":211.93506,"velocity":0.3937007874015748},{"duration":0.3870960000000139,"midi":47,"time":211.93506,"velocity":0.3937007874015748},{"duration":0.3870960000000139,"midi":40,"time":211.93506,"velocity":0.3937007874015748},{"duration":0.3870960000000139,"midi":52,"time":211.93506,"velocity":0.3937007874015748},{"duration":0.3870960000000139,"midi":64,"time":211.93506,"velocity":0.3937007874015748},{"duration":0.19354799999999273,"midi":52,"time":212.322156,"velocity":0.3937007874015748},{"duration":0.19354799999999273,"midi":40,"time":212.322156,"velocity":0.3937007874015748},{"duration":0.19354799999999273,"midi":55,"time":212.322156,"velocity":0.3937007874015748},{"duration":0.19354799999999273,"midi":59,"time":212.322156,"velocity":0.3937007874015748},{"duration":0.19354799999999273,"midi":47,"time":212.322156,"velocity":0.3937007874015748},{"duration":0.19354799999999273,"midi":64,"time":212.322156,"velocity":0.3937007874015748},{"duration":0.19354799999999273,"midi":59,"time":212.515704,"velocity":0.3937007874015748},{"duration":0.19354799999999273,"midi":55,"time":212.515704,"velocity":0.3937007874015748},{"duration":0.19354799999999273,"midi":47,"time":212.515704,"velocity":0.3937007874015748},{"duration":0.19354799999999273,"midi":40,"time":212.515704,"velocity":0.3937007874015748},{"duration":0.19354799999999273,"midi":52,"time":212.515704,"velocity":0.3937007874015748},{"duration":0.19354799999999273,"midi":64,"time":212.515704,"velocity":0.3937007874015748},{"duration":0.19354799999999273,"midi":55,"time":212.709252,"velocity":0.3937007874015748},{"duration":0.19354799999999273,"midi":59,"time":212.709252,"velocity":0.3937007874015748},{"duration":0.19354799999999273,"midi":40,"time":212.709252,"velocity":0.3937007874015748},{"duration":0.19354799999999273,"midi":47,"time":212.709252,"velocity":0.3937007874015748},{"duration":0.19354799999999273,"midi":64,"time":212.709252,"velocity":0.3937007874015748},{"duration":0.19354799999999273,"midi":52,"time":212.709252,"velocity":0.3937007874015748},{"duration":0.3870960000000139,"midi":59,"time":212.90279999999998,"velocity":0.3937007874015748},{"duration":0.3870960000000139,"midi":52,"time":212.90279999999998,"velocity":0.3937007874015748},{"duration":0.3870960000000139,"midi":64,"time":212.90279999999998,"velocity":0.3937007874015748},{"duration":0.3870960000000139,"midi":40,"time":212.90279999999998,"velocity":0.3937007874015748},{"duration":0.3870960000000139,"midi":47,"time":212.90279999999998,"velocity":0.3937007874015748},{"duration":0.3870960000000139,"midi":55,"time":212.90279999999998,"velocity":0.3937007874015748},{"duration":0.19354799999999273,"midi":59,"time":213.289896,"velocity":0.3937007874015748},{"duration":0.19354799999999273,"midi":55,"time":213.289896,"velocity":0.3937007874015748},{"duration":0.19354799999999273,"midi":64,"time":213.289896,"velocity":0.3937007874015748},{"duration":0.19354799999999273,"midi":52,"time":213.289896,"velocity":0.3937007874015748},{"duration":0.19354799999999273,"midi":40,"time":213.289896,"velocity":0.3937007874015748},{"duration":0.19354799999999273,"midi":47,"time":213.289896,"velocity":0.3937007874015748},{"duration":0.3870960000000139,"midi":52,"time":213.483444,"velocity":0.3937007874015748},{"duration":0.3870960000000139,"midi":59,"time":213.483444,"velocity":0.3937007874015748},{"duration":0.3870960000000139,"midi":55,"time":213.483444,"velocity":0.3937007874015748},{"duration":0.3870960000000139,"midi":64,"time":213.483444,"velocity":0.3937007874015748},{"duration":0.3870960000000139,"midi":47,"time":213.483444,"velocity":0.3937007874015748},{"duration":0.3870960000000139,"midi":40,"time":213.483444,"velocity":0.3937007874015748},{"duration":0.19354799999999273,"midi":47,"time":213.87054,"velocity":0.3937007874015748},{"duration":0.19354799999999273,"midi":52,"time":213.87054,"velocity":0.3937007874015748},{"duration":0.19354799999999273,"midi":64,"time":213.87054,"velocity":0.3937007874015748},{"duration":0.19354799999999273,"midi":55,"time":213.87054,"velocity":0.3937007874015748},{"duration":0.19354799999999273,"midi":59,"time":213.87054,"velocity":0.3937007874015748},{"duration":0.19354799999999273,"midi":40,"time":213.87054,"velocity":0.3937007874015748},{"duration":0.19354799999999273,"midi":64,"time":214.064088,"velocity":0.3937007874015748},{"duration":0.19354799999999273,"midi":47,"time":214.064088,"velocity":0.3937007874015748},{"duration":0.19354799999999273,"midi":40,"time":214.064088,"velocity":0.3937007874015748},{"duration":0.19354799999999273,"midi":52,"time":214.064088,"velocity":0.3937007874015748},{"duration":0.19354799999999273,"midi":59,"time":214.064088,"velocity":0.3937007874015748},{"duration":0.19354799999999273,"midi":55,"time":214.064088,"velocity":0.3937007874015748},{"duration":0.19354799999999273,"midi":40,"time":214.257636,"velocity":0.3937007874015748},{"duration":0.19354799999999273,"midi":47,"time":214.257636,"velocity":0.3937007874015748},{"duration":0.19354799999999273,"midi":52,"time":214.257636,"velocity":0.3937007874015748},{"duration":0.19354799999999273,"midi":55,"time":214.257636,"velocity":0.3937007874015748},{"duration":0.19354799999999273,"midi":59,"time":214.257636,"velocity":0.3937007874015748},{"duration":0.19354799999999273,"midi":64,"time":214.257636,"velocity":0.3937007874015748},{"duration":0.3870960000000139,"midi":59,"time":214.45118399999998,"velocity":0.3937007874015748},{"duration":0.3870960000000139,"midi":55,"time":214.45118399999998,"velocity":0.3937007874015748},{"duration":0.3870960000000139,"midi":67,"time":214.45118399999998,"velocity":0.3937007874015748},{"duration":0.3870960000000139,"midi":50,"time":214.45118399999998,"velocity":0.3937007874015748},{"duration":0.3870960000000139,"midi":43,"time":214.45118399999998,"velocity":0.3937007874015748},{"duration":0.3870960000000139,"midi":47,"time":214.45118399999998,"velocity":0.3937007874015748},{"duration":0.19354799999999273,"midi":43,"time":214.83828,"velocity":0.3937007874015748},{"duration":0.19354799999999273,"midi":59,"time":214.83828,"velocity":0.3937007874015748},{"duration":0.19354799999999273,"midi":55,"time":214.83828,"velocity":0.3937007874015748},{"duration":0.19354799999999273,"midi":67,"time":214.83828,"velocity":0.3937007874015748},{"duration":0.19354799999999273,"midi":50,"time":214.83828,"velocity":0.3937007874015748},{"duration":0.19354799999999273,"midi":47,"time":214.83828,"velocity":0.3937007874015748},{"duration":0.3870960000000139,"midi":59,"time":215.031828,"velocity":0.3937007874015748},{"duration":0.3870960000000139,"midi":47,"time":215.031828,"velocity":0.3937007874015748},{"duration":0.3870960000000139,"midi":50,"time":215.031828,"velocity":0.3937007874015748},{"duration":0.3870960000000139,"midi":67,"time":215.031828,"velocity":0.3937007874015748},{"duration":0.3870960000000139,"midi":43,"time":215.031828,"velocity":0.3937007874015748},{"duration":0.3870960000000139,"midi":55,"time":215.031828,"velocity":0.3937007874015748},{"duration":0.19354799999999273,"midi":59,"time":215.418924,"velocity":0.3937007874015748},{"duration":0.19354799999999273,"midi":43,"time":215.418924,"velocity":0.3937007874015748},{"duration":0.19354799999999273,"midi":47,"time":215.418924,"velocity":0.3937007874015748},{"duration":0.19354799999999273,"midi":50,"time":215.418924,"velocity":0.3937007874015748},{"duration":0.19354799999999273,"midi":67,"time":215.418924,"velocity":0.3937007874015748},{"duration":0.19354799999999273,"midi":55,"time":215.418924,"velocity":0.3937007874015748},{"duration":0.19354799999999273,"midi":67,"time":215.612472,"velocity":0.3937007874015748},{"duration":0.19354799999999273,"midi":47,"time":215.612472,"velocity":0.3937007874015748},{"duration":0.19354799999999273,"midi":43,"time":215.612472,"velocity":0.3937007874015748},{"duration":0.19354799999999273,"midi":55,"time":215.612472,"velocity":0.3937007874015748},{"duration":0.19354799999999273,"midi":50,"time":215.612472,"velocity":0.3937007874015748},{"duration":0.19354799999999273,"midi":59,"time":215.612472,"velocity":0.3937007874015748},{"duration":0.19354800000002115,"midi":55,"time":215.80602,"velocity":0.3937007874015748},{"duration":0.19354800000002115,"midi":50,"time":215.80602,"velocity":0.3937007874015748},{"duration":0.19354800000002115,"midi":59,"time":215.80602,"velocity":0.3937007874015748},{"duration":0.19354800000002115,"midi":43,"time":215.80602,"velocity":0.3937007874015748},{"duration":0.19354800000002115,"midi":67,"time":215.80602,"velocity":0.3937007874015748},{"duration":0.19354800000002115,"midi":47,"time":215.80602,"velocity":0.3937007874015748},{"duration":0.38709599999998545,"midi":48,"time":215.999568,"velocity":0.3937007874015748},{"duration":0.38709599999998545,"midi":55,"time":215.999568,"velocity":0.3937007874015748},{"duration":0.38709599999998545,"midi":60,"time":215.999568,"velocity":0.3937007874015748},{"duration":0.38709599999998545,"midi":64,"time":215.999568,"velocity":0.3937007874015748},{"duration":0.38709599999998545,"midi":52,"time":215.999568,"velocity":0.3937007874015748},{"duration":0.19354799999999273,"midi":64,"time":216.386664,"velocity":0.3937007874015748},{"duration":0.19354799999999273,"midi":60,"time":216.386664,"velocity":0.3937007874015748},{"duration":0.19354799999999273,"midi":55,"time":216.386664,"velocity":0.3937007874015748},{"duration":0.19354799999999273,"midi":52,"time":216.386664,"velocity":0.3937007874015748},{"duration":0.19354799999999273,"midi":48,"time":216.386664,"velocity":0.3937007874015748},{"duration":0.3870960000000139,"midi":48,"time":216.580212,"velocity":0.3937007874015748},{"duration":0.3870960000000139,"midi":60,"time":216.580212,"velocity":0.3937007874015748},{"duration":0.3870960000000139,"midi":64,"time":216.580212,"velocity":0.3937007874015748},{"duration":0.3870960000000139,"midi":52,"time":216.580212,"velocity":0.3937007874015748},{"duration":0.3870960000000139,"midi":55,"time":216.580212,"velocity":0.3937007874015748},{"duration":0.19354799999999273,"midi":64,"time":216.967308,"velocity":0.3937007874015748},{"duration":0.19354799999999273,"midi":48,"time":216.967308,"velocity":0.3937007874015748},{"duration":0.19354799999999273,"midi":52,"time":216.967308,"velocity":0.3937007874015748},{"duration":0.19354799999999273,"midi":55,"time":216.967308,"velocity":0.3937007874015748},{"duration":0.19354799999999273,"midi":60,"time":216.967308,"velocity":0.3937007874015748},{"duration":0.19354799999999273,"midi":64,"time":217.160856,"velocity":0.3937007874015748},{"duration":0.19354799999999273,"midi":60,"time":217.160856,"velocity":0.3937007874015748},{"duration":0.19354799999999273,"midi":55,"time":217.160856,"velocity":0.3937007874015748},{"duration":0.19354799999999273,"midi":52,"time":217.160856,"velocity":0.3937007874015748},{"duration":0.19354799999999273,"midi":48,"time":217.160856,"velocity":0.3937007874015748},{"duration":0.19354800000002115,"midi":52,"time":217.354404,"velocity":0.3937007874015748},{"duration":0.19354800000002115,"midi":64,"time":217.354404,"velocity":0.3937007874015748},{"duration":0.19354800000002115,"midi":55,"time":217.354404,"velocity":0.3937007874015748},{"duration":0.19354800000002115,"midi":60,"time":217.354404,"velocity":0.3937007874015748},{"duration":0.19354800000002115,"midi":48,"time":217.354404,"velocity":0.3937007874015748},{"duration":0.38709599999998545,"midi":64,"time":217.547952,"velocity":0.3937007874015748},{"duration":0.38709599999998545,"midi":60,"time":217.547952,"velocity":0.3937007874015748},{"duration":0.38709599999998545,"midi":52,"time":217.547952,"velocity":0.3937007874015748},{"duration":0.38709599999998545,"midi":55,"time":217.547952,"velocity":0.3937007874015748},{"duration":0.38709599999998545,"midi":48,"time":217.547952,"velocity":0.3937007874015748},{"duration":0.19354799999999273,"midi":55,"time":217.935048,"velocity":0.3937007874015748},{"duration":0.19354799999999273,"midi":48,"time":217.935048,"velocity":0.3937007874015748},{"duration":0.19354799999999273,"midi":60,"time":217.935048,"velocity":0.3937007874015748},{"duration":0.19354799999999273,"midi":64,"time":217.935048,"velocity":0.3937007874015748},{"duration":0.19354799999999273,"midi":52,"time":217.935048,"velocity":0.3937007874015748},{"duration":0.3870960000000139,"midi":60,"time":218.128596,"velocity":0.3937007874015748},{"duration":0.3870960000000139,"midi":55,"time":218.128596,"velocity":0.3937007874015748},{"duration":0.3870960000000139,"midi":48,"time":218.128596,"velocity":0.3937007874015748},{"duration":0.3870960000000139,"midi":52,"time":218.128596,"velocity":0.3937007874015748},{"duration":0.3870960000000139,"midi":64,"time":218.128596,"velocity":0.3937007874015748},{"duration":0.19354799999999273,"midi":60,"time":218.515692,"velocity":0.3937007874015748},{"duration":0.19354799999999273,"midi":48,"time":218.515692,"velocity":0.3937007874015748},{"duration":0.19354799999999273,"midi":52,"time":218.515692,"velocity":0.3937007874015748},{"duration":0.19354799999999273,"midi":55,"time":218.515692,"velocity":0.3937007874015748},{"duration":0.19354799999999273,"midi":64,"time":218.515692,"velocity":0.3937007874015748},{"duration":0.19354799999999273,"midi":60,"time":218.70924,"velocity":0.3937007874015748},{"duration":0.19354799999999273,"midi":64,"time":218.70924,"velocity":0.3937007874015748},{"duration":0.19354799999999273,"midi":48,"time":218.70924,"velocity":0.3937007874015748},{"duration":0.19354799999999273,"midi":52,"time":218.70924,"velocity":0.3937007874015748},{"duration":0.19354799999999273,"midi":55,"time":218.70924,"velocity":0.3937007874015748},{"duration":0.19354800000002115,"midi":55,"time":218.902788,"velocity":0.3937007874015748},{"duration":0.19354800000002115,"midi":48,"time":218.902788,"velocity":0.3937007874015748},{"duration":0.19354800000002115,"midi":60,"time":218.902788,"velocity":0.3937007874015748},{"duration":0.19354800000002115,"midi":64,"time":218.902788,"velocity":0.3937007874015748},{"duration":0.19354800000002115,"midi":52,"time":218.902788,"velocity":0.3937007874015748},{"duration":0.38709599999998545,"midi":57,"time":219.096336,"velocity":0.3937007874015748},{"duration":0.38709599999998545,"midi":62,"time":219.096336,"velocity":0.3937007874015748},{"duration":0.38709599999998545,"midi":66,"time":219.096336,"velocity":0.3937007874015748},{"duration":0.38709599999998545,"midi":50,"time":219.096336,"velocity":0.3937007874015748},{"duration":0.3870960000000139,"midi":50,"time":219.483432,"velocity":0.3937007874015748},{"duration":0.3870960000000139,"midi":57,"time":219.483432,"velocity":0.3937007874015748},{"duration":0.3870960000000139,"midi":62,"time":219.483432,"velocity":0.3937007874015748},{"duration":0.3870960000000139,"midi":66,"time":219.483432,"velocity":0.3937007874015748},{"duration":0.38709599999998545,"midi":64,"time":219.870528,"velocity":0.3937007874015748},{"duration":0.38709599999998545,"midi":59,"time":219.870528,"velocity":0.3937007874015748},{"duration":0.38709599999998545,"midi":40,"time":219.870528,"velocity":0.3937007874015748},{"duration":0.38709599999998545,"midi":52,"time":219.870528,"velocity":0.3937007874015748},{"duration":0.38709599999998545,"midi":55,"time":219.870528,"velocity":0.3937007874015748},{"duration":0.38709599999998545,"midi":47,"time":219.870528,"velocity":0.3937007874015748},{"duration":0.19354799999999273,"midi":59,"time":220.257624,"velocity":0.3937007874015748},{"duration":0.19354799999999273,"midi":55,"time":220.257624,"velocity":0.3937007874015748},{"duration":0.19354799999999273,"midi":47,"time":220.257624,"velocity":0.3937007874015748},{"duration":0.19354799999999273,"midi":40,"time":220.257624,"velocity":0.3937007874015748},{"duration":0.19354799999999273,"midi":64,"time":220.257624,"velocity":0.3937007874015748},{"duration":0.19354799999999273,"midi":52,"time":220.257624,"velocity":0.3937007874015748},{"duration":0.3870960000000139,"midi":64,"time":220.45117199999999,"velocity":0.3937007874015748},{"duration":0.3870960000000139,"midi":59,"time":220.45117199999999,"velocity":0.3937007874015748},{"duration":0.3870960000000139,"midi":47,"time":220.45117199999999,"velocity":0.3937007874015748},{"duration":0.3870960000000139,"midi":40,"time":220.45117199999999,"velocity":0.3937007874015748},{"duration":0.3870960000000139,"midi":55,"time":220.45117199999999,"velocity":0.3937007874015748},{"duration":0.3870960000000139,"midi":52,"time":220.45117199999999,"velocity":0.3937007874015748},{"duration":0.19354799999999273,"midi":59,"time":220.838268,"velocity":0.3937007874015748},{"duration":0.19354799999999273,"midi":55,"time":220.838268,"velocity":0.3937007874015748},{"duration":0.19354799999999273,"midi":40,"time":220.838268,"velocity":0.3937007874015748},{"duration":0.19354799999999273,"midi":64,"time":220.838268,"velocity":0.3937007874015748},{"duration":0.19354799999999273,"midi":47,"time":220.838268,"velocity":0.3937007874015748},{"duration":0.19354799999999273,"midi":52,"time":220.838268,"velocity":0.3937007874015748},{"duration":0.19354799999999273,"midi":64,"time":221.031816,"velocity":0.3937007874015748},{"duration":0.19354799999999273,"midi":59,"time":221.031816,"velocity":0.3937007874015748},{"duration":0.19354799999999273,"midi":52,"time":221.031816,"velocity":0.3937007874015748},{"duration":0.19354799999999273,"midi":40,"time":221.031816,"velocity":0.3937007874015748},{"duration":0.19354799999999273,"midi":47,"time":221.031816,"velocity":0.3937007874015748},{"duration":0.19354799999999273,"midi":55,"time":221.031816,"velocity":0.3937007874015748},{"duration":0.19354800000002115,"midi":55,"time":221.22536399999998,"velocity":0.3937007874015748},{"duration":0.19354800000002115,"midi":59,"time":221.22536399999998,"velocity":0.3937007874015748},{"duration":0.19354800000002115,"midi":40,"time":221.22536399999998,"velocity":0.3937007874015748},{"duration":0.19354800000002115,"midi":64,"time":221.22536399999998,"velocity":0.3937007874015748},{"duration":0.19354800000002115,"midi":47,"time":221.22536399999998,"velocity":0.3937007874015748},{"duration":0.19354800000002115,"midi":52,"time":221.22536399999998,"velocity":0.3937007874015748},{"duration":0.38709599999998545,"midi":55,"time":221.418912,"velocity":0.3937007874015748},{"duration":0.38709599999998545,"midi":40,"time":221.418912,"velocity":0.3937007874015748},{"duration":0.38709599999998545,"midi":59,"time":221.418912,"velocity":0.3937007874015748},{"duration":0.38709599999998545,"midi":47,"time":221.418912,"velocity":0.3937007874015748},{"duration":0.38709599999998545,"midi":64,"time":221.418912,"velocity":0.3937007874015748},{"duration":0.38709599999998545,"midi":52,"time":221.418912,"velocity":0.3937007874015748},{"duration":0.19354799999999273,"midi":40,"time":221.806008,"velocity":0.3937007874015748},{"duration":0.19354799999999273,"midi":47,"time":221.806008,"velocity":0.3937007874015748},{"duration":0.19354799999999273,"midi":52,"time":221.806008,"velocity":0.3937007874015748},{"duration":0.19354799999999273,"midi":55,"time":221.806008,"velocity":0.3937007874015748},{"duration":0.19354799999999273,"midi":59,"time":221.806008,"velocity":0.3937007874015748},{"duration":0.19354799999999273,"midi":64,"time":221.806008,"velocity":0.3937007874015748},{"duration":0.3870960000000139,"midi":59,"time":221.99955599999998,"velocity":0.3937007874015748},{"duration":0.3870960000000139,"midi":55,"time":221.99955599999998,"velocity":0.3937007874015748},{"duration":0.3870960000000139,"midi":47,"time":221.99955599999998,"velocity":0.3937007874015748},{"duration":0.3870960000000139,"midi":64,"time":221.99955599999998,"velocity":0.3937007874015748},{"duration":0.3870960000000139,"midi":40,"time":221.99955599999998,"velocity":0.3937007874015748},{"duration":0.3870960000000139,"midi":52,"time":221.99955599999998,"velocity":0.3937007874015748},{"duration":0.19354799999999273,"midi":64,"time":222.386652,"velocity":0.3937007874015748},{"duration":0.19354799999999273,"midi":47,"time":222.386652,"velocity":0.3937007874015748},{"duration":0.19354799999999273,"midi":40,"time":222.386652,"velocity":0.3937007874015748},{"duration":0.19354799999999273,"midi":55,"time":222.386652,"velocity":0.3937007874015748},{"duration":0.19354799999999273,"midi":59,"time":222.386652,"velocity":0.3937007874015748},{"duration":0.19354799999999273,"midi":52,"time":222.386652,"velocity":0.3937007874015748},{"duration":0.19354799999999273,"midi":40,"time":222.5802,"velocity":0.3937007874015748},{"duration":0.19354799999999273,"midi":52,"time":222.5802,"velocity":0.3937007874015748},{"duration":0.19354799999999273,"midi":47,"time":222.5802,"velocity":0.3937007874015748},{"duration":0.19354799999999273,"midi":55,"time":222.5802,"velocity":0.3937007874015748},{"duration":0.19354799999999273,"midi":64,"time":222.5802,"velocity":0.3937007874015748},{"duration":0.19354799999999273,"midi":59,"time":222.5802,"velocity":0.3937007874015748},{"duration":0.19354800000002115,"midi":64,"time":222.77374799999998,"velocity":0.3937007874015748},{"duration":0.19354800000002115,"midi":47,"time":222.77374799999998,"velocity":0.3937007874015748},{"duration":0.19354800000002115,"midi":52,"time":222.77374799999998,"velocity":0.3937007874015748},{"duration":0.19354800000002115,"midi":55,"time":222.77374799999998,"velocity":0.3937007874015748},{"duration":0.19354800000002115,"midi":59,"time":222.77374799999998,"velocity":0.3937007874015748},{"duration":0.19354800000002115,"midi":40,"time":222.77374799999998,"velocity":0.3937007874015748},{"duration":0.38709599999998545,"midi":67,"time":222.967296,"velocity":0.3937007874015748},{"duration":0.38709599999998545,"midi":47,"time":222.967296,"velocity":0.3937007874015748},{"duration":0.38709599999998545,"midi":59,"time":222.967296,"velocity":0.3937007874015748},{"duration":0.38709599999998545,"midi":43,"time":222.967296,"velocity":0.3937007874015748},{"duration":0.38709599999998545,"midi":50,"time":222.967296,"velocity":0.3937007874015748},{"duration":0.38709599999998545,"midi":55,"time":222.967296,"velocity":0.3937007874015748},{"duration":0.19354800000002115,"midi":59,"time":223.354392,"velocity":0.3937007874015748},{"duration":0.19354800000002115,"midi":55,"time":223.354392,"velocity":0.3937007874015748},{"duration":0.19354800000002115,"midi":43,"time":223.354392,"velocity":0.3937007874015748},{"duration":0.19354800000002115,"midi":50,"time":223.354392,"velocity":0.3937007874015748},{"duration":0.19354800000002115,"midi":67,"time":223.354392,"velocity":0.3937007874015748},{"duration":0.19354800000002115,"midi":47,"time":223.354392,"velocity":0.3937007874015748},{"duration":0.38709599999998545,"midi":59,"time":223.54794,"velocity":0.3937007874015748},{"duration":0.38709599999998545,"midi":55,"time":223.54794,"velocity":0.3937007874015748},{"duration":0.38709599999998545,"midi":67,"time":223.54794,"velocity":0.3937007874015748},{"duration":0.38709599999998545,"midi":50,"time":223.54794,"velocity":0.3937007874015748},{"duration":0.38709599999998545,"midi":43,"time":223.54794,"velocity":0.3937007874015748},{"duration":0.38709599999998545,"midi":47,"time":223.54794,"velocity":0.3937007874015748},{"duration":0.19354799999999273,"midi":67,"time":223.935036,"velocity":0.3937007874015748},{"duration":0.19354799999999273,"midi":59,"time":223.935036,"velocity":0.3937007874015748},{"duration":0.19354799999999273,"midi":47,"time":223.935036,"velocity":0.3937007874015748},{"duration":0.19354799999999273,"midi":50,"time":223.935036,"velocity":0.3937007874015748},{"duration":0.19354799999999273,"midi":55,"time":223.935036,"velocity":0.3937007874015748},{"duration":0.19354799999999273,"midi":43,"time":223.935036,"velocity":0.3937007874015748},{"duration":0.19354800000002115,"midi":59,"time":224.128584,"velocity":0.3937007874015748},{"duration":0.19354800000002115,"midi":67,"time":224.128584,"velocity":0.3937007874015748},{"duration":0.19354800000002115,"midi":43,"time":224.128584,"velocity":0.3937007874015748},{"duration":0.19354800000002115,"midi":55,"time":224.128584,"velocity":0.3937007874015748},{"duration":0.19354800000002115,"midi":47,"time":224.128584,"velocity":0.3937007874015748},{"duration":0.19354800000002115,"midi":50,"time":224.128584,"velocity":0.3937007874015748},{"duration":0.19354799999999273,"midi":47,"time":224.322132,"velocity":0.3937007874015748},{"duration":0.19354799999999273,"midi":59,"time":224.322132,"velocity":0.3937007874015748},{"duration":0.19354799999999273,"midi":67,"time":224.322132,"velocity":0.3937007874015748},{"duration":0.19354799999999273,"midi":50,"time":224.322132,"velocity":0.3937007874015748},{"duration":0.19354799999999273,"midi":55,"time":224.322132,"velocity":0.3937007874015748},{"duration":0.19354799999999273,"midi":43,"time":224.322132,"velocity":0.3937007874015748},{"duration":0.38709599999998545,"midi":60,"time":224.51568,"velocity":0.3937007874015748},{"duration":0.38709599999998545,"midi":52,"time":224.51568,"velocity":0.3937007874015748},{"duration":0.38709599999998545,"midi":64,"time":224.51568,"velocity":0.3937007874015748},{"duration":0.38709599999998545,"midi":48,"time":224.51568,"velocity":0.3937007874015748},{"duration":0.38709599999998545,"midi":55,"time":224.51568,"velocity":0.3937007874015748},{"duration":0.19354800000002115,"midi":64,"time":224.902776,"velocity":0.3937007874015748},{"duration":0.19354800000002115,"midi":48,"time":224.902776,"velocity":0.3937007874015748},{"duration":0.19354800000002115,"midi":52,"time":224.902776,"velocity":0.3937007874015748},{"duration":0.19354800000002115,"midi":55,"time":224.902776,"velocity":0.3937007874015748},{"duration":0.19354800000002115,"midi":60,"time":224.902776,"velocity":0.3937007874015748},{"duration":0.38709599999998545,"midi":64,"time":225.096324,"velocity":0.3937007874015748},{"duration":0.38709599999998545,"midi":48,"time":225.096324,"velocity":0.3937007874015748},{"duration":0.38709599999998545,"midi":52,"time":225.096324,"velocity":0.3937007874015748},{"duration":0.38709599999998545,"midi":55,"time":225.096324,"velocity":0.3937007874015748},{"duration":0.38709599999998545,"midi":60,"time":225.096324,"velocity":0.3937007874015748},{"duration":0.19354799999999273,"midi":60,"time":225.48342,"velocity":0.3937007874015748},{"duration":0.19354799999999273,"midi":52,"time":225.48342,"velocity":0.3937007874015748},{"duration":0.19354799999999273,"midi":64,"time":225.48342,"velocity":0.3937007874015748},{"duration":0.19354799999999273,"midi":48,"time":225.48342,"velocity":0.3937007874015748},{"duration":0.19354799999999273,"midi":55,"time":225.48342,"velocity":0.3937007874015748},{"duration":0.19354800000002115,"midi":64,"time":225.676968,"velocity":0.3937007874015748},{"duration":0.19354800000002115,"midi":48,"time":225.676968,"velocity":0.3937007874015748},{"duration":0.19354800000002115,"midi":52,"time":225.676968,"velocity":0.3937007874015748},{"duration":0.19354800000002115,"midi":55,"time":225.676968,"velocity":0.3937007874015748},{"duration":0.19354800000002115,"midi":60,"time":225.676968,"velocity":0.3937007874015748},{"duration":0.19354799999999273,"midi":64,"time":225.870516,"velocity":0.3937007874015748},{"duration":0.19354799999999273,"midi":60,"time":225.870516,"velocity":0.3937007874015748},{"duration":0.19354799999999273,"midi":52,"time":225.870516,"velocity":0.3937007874015748},{"duration":0.19354799999999273,"midi":48,"time":225.870516,"velocity":0.3937007874015748},{"duration":0.19354799999999273,"midi":55,"time":225.870516,"velocity":0.3937007874015748},{"duration":0.38709599999998545,"midi":55,"time":226.064064,"velocity":0.3937007874015748},{"duration":0.38709599999998545,"midi":48,"time":226.064064,"velocity":0.3937007874015748},{"duration":0.38709599999998545,"midi":60,"time":226.064064,"velocity":0.3937007874015748},{"duration":0.38709599999998545,"midi":64,"time":226.064064,"velocity":0.3937007874015748},{"duration":0.38709599999998545,"midi":52,"time":226.064064,"velocity":0.3937007874015748},{"duration":0.19354800000002115,"midi":64,"time":226.45116,"velocity":0.3937007874015748},{"duration":0.19354800000002115,"midi":48,"time":226.45116,"velocity":0.3937007874015748},{"duration":0.19354800000002115,"midi":52,"time":226.45116,"velocity":0.3937007874015748},{"duration":0.19354800000002115,"midi":55,"time":226.45116,"velocity":0.3937007874015748},{"duration":0.19354800000002115,"midi":60,"time":226.45116,"velocity":0.3937007874015748},{"duration":0.38709599999998545,"midi":64,"time":226.644708,"velocity":0.3937007874015748},{"duration":0.38709599999998545,"midi":48,"time":226.644708,"velocity":0.3937007874015748},{"duration":0.38709599999998545,"midi":52,"time":226.644708,"velocity":0.3937007874015748},{"duration":0.38709599999998545,"midi":55,"time":226.644708,"velocity":0.3937007874015748},{"duration":0.38709599999998545,"midi":60,"time":226.644708,"velocity":0.3937007874015748},{"duration":0.19354799999999273,"midi":48,"time":227.031804,"velocity":0.3937007874015748},{"duration":0.19354799999999273,"midi":60,"time":227.031804,"velocity":0.3937007874015748},{"duration":0.19354799999999273,"midi":55,"time":227.031804,"velocity":0.3937007874015748},{"duration":0.19354799999999273,"midi":64,"time":227.031804,"velocity":0.3937007874015748},{"duration":0.19354799999999273,"midi":52,"time":227.031804,"velocity":0.3937007874015748},{"duration":0.19354800000002115,"midi":55,"time":227.225352,"velocity":0.3937007874015748},{"duration":0.19354800000002115,"midi":48,"time":227.225352,"velocity":0.3937007874015748},{"duration":0.19354800000002115,"midi":52,"time":227.225352,"velocity":0.3937007874015748},{"duration":0.19354800000002115,"midi":64,"time":227.225352,"velocity":0.3937007874015748},{"duration":0.19354800000002115,"midi":60,"time":227.225352,"velocity":0.3937007874015748},{"duration":0.19354799999999273,"midi":64,"time":227.4189,"velocity":0.3937007874015748},{"duration":0.19354799999999273,"midi":60,"time":227.4189,"velocity":0.3937007874015748},{"duration":0.19354799999999273,"midi":52,"time":227.4189,"velocity":0.3937007874015748},{"duration":0.19354799999999273,"midi":48,"time":227.4189,"velocity":0.3937007874015748},{"duration":0.19354799999999273,"midi":55,"time":227.4189,"velocity":0.3937007874015748},{"duration":0.38709599999998545,"midi":57,"time":227.612448,"velocity":0.3937007874015748},{"duration":0.38709599999998545,"midi":62,"time":227.612448,"velocity":0.3937007874015748},{"duration":0.38709599999998545,"midi":66,"time":227.612448,"velocity":0.3937007874015748},{"duration":0.38709599999998545,"midi":50,"time":227.612448,"velocity":0.3937007874015748},{"duration":0.3870960000000139,"midi":62,"time":227.999544,"velocity":0.3937007874015748},{"duration":0.3870960000000139,"midi":57,"time":227.999544,"velocity":0.3937007874015748},{"duration":0.3870960000000139,"midi":66,"time":227.999544,"velocity":0.3937007874015748},{"duration":0.3870960000000139,"midi":50,"time":227.999544,"velocity":0.3937007874015748},{"duration":0.38709599999998545,"midi":52,"time":228.38664,"velocity":0.3937007874015748},{"duration":0.38709599999998545,"midi":55,"time":228.38664,"velocity":0.3937007874015748},{"duration":0.38709599999998545,"midi":40,"time":228.38664,"velocity":0.3937007874015748},{"duration":0.38709599999998545,"midi":59,"time":228.38664,"velocity":0.3937007874015748},{"duration":0.38709599999998545,"midi":47,"time":228.38664,"velocity":0.3937007874015748},{"duration":0.38709599999998545,"midi":64,"time":228.38664,"velocity":0.3937007874015748},{"duration":0.19354800000002115,"midi":59,"time":228.77373599999999,"velocity":0.3937007874015748},{"duration":0.19354800000002115,"midi":47,"time":228.77373599999999,"velocity":0.3937007874015748},{"duration":0.19354800000002115,"midi":64,"time":228.77373599999999,"velocity":0.3937007874015748},{"duration":0.19354800000002115,"midi":55,"time":228.77373599999999,"velocity":0.3937007874015748},{"duration":0.19354800000002115,"midi":40,"time":228.77373599999999,"velocity":0.3937007874015748},{"duration":0.19354800000002115,"midi":52,"time":228.77373599999999,"velocity":0.3937007874015748},{"duration":0.38709599999998545,"midi":55,"time":228.967284,"velocity":0.3937007874015748},{"duration":0.38709599999998545,"midi":59,"time":228.967284,"velocity":0.3937007874015748},{"duration":0.38709599999998545,"midi":40,"time":228.967284,"velocity":0.3937007874015748},{"duration":0.38709599999998545,"midi":47,"time":228.967284,"velocity":0.3937007874015748},{"duration":0.38709599999998545,"midi":64,"time":228.967284,"velocity":0.3937007874015748},{"duration":0.38709599999998545,"midi":52,"time":228.967284,"velocity":0.3937007874015748},{"duration":0.19354799999999273,"midi":40,"time":229.35438,"velocity":0.3937007874015748},{"duration":0.19354799999999273,"midi":47,"time":229.35438,"velocity":0.3937007874015748},{"duration":0.19354799999999273,"midi":52,"time":229.35438,"velocity":0.3937007874015748},{"duration":0.19354799999999273,"midi":55,"time":229.35438,"velocity":0.3937007874015748},{"duration":0.19354799999999273,"midi":59,"time":229.35438,"velocity":0.3937007874015748},{"duration":0.19354799999999273,"midi":64,"time":229.35438,"velocity":0.3937007874015748},{"duration":0.19354800000002115,"midi":64,"time":229.54792799999998,"velocity":0.3937007874015748},{"duration":0.19354800000002115,"midi":40,"time":229.54792799999998,"velocity":0.3937007874015748},{"duration":0.19354800000002115,"midi":52,"time":229.54792799999998,"velocity":0.3937007874015748},{"duration":0.19354800000002115,"midi":47,"time":229.54792799999998,"velocity":0.3937007874015748},{"duration":0.19354800000002115,"midi":55,"time":229.54792799999998,"velocity":0.3937007874015748},{"duration":0.19354800000002115,"midi":59,"time":229.54792799999998,"velocity":0.3937007874015748},{"duration":0.19354799999999273,"midi":55,"time":229.741476,"velocity":0.3937007874015748},{"duration":0.19354799999999273,"midi":47,"time":229.741476,"velocity":0.3937007874015748},{"duration":0.19354799999999273,"midi":59,"time":229.741476,"velocity":0.3937007874015748},{"duration":0.19354799999999273,"midi":40,"time":229.741476,"velocity":0.3937007874015748},{"duration":0.19354799999999273,"midi":47,"time":229.741476,"velocity":0.3937007874015748},{"duration":0.19354799999999273,"midi":40,"time":229.741476,"velocity":0.3937007874015748},{"duration":0.5806439999999782,"midi":47,"time":229.741476,"velocity":0.3937007874015748},{"duration":0.19354799999999273,"midi":52,"time":229.741476,"velocity":0.3937007874015748},{"duration":0.5806439999999782,"midi":47,"time":229.741476,"velocity":0.3937007874015748},{"duration":0.5806439999999782,"midi":40,"time":229.741476,"velocity":0.3937007874015748},{"duration":0.19354799999999273,"midi":59,"time":229.741476,"velocity":0.3937007874015748},{"duration":0.5806439999999782,"midi":40,"time":229.741476,"velocity":0.3937007874015748},{"duration":0.7741919999999993,"midi":47,"time":229.741476,"velocity":0.3937007874015748},{"duration":0.7741919999999993,"midi":40,"time":229.741476,"velocity":0.3937007874015748},{"duration":0.19354799999999273,"midi":64,"time":229.741476,"velocity":0.3937007874015748},{"duration":0.19354799999999273,"midi":52,"time":229.741476,"velocity":0.3937007874015748},{"duration":0.19354799999999273,"midi":55,"time":229.741476,"velocity":0.3937007874015748},{"duration":0.5806439999999782,"midi":52,"time":229.741476,"velocity":0.3937007874015748},{"duration":0.5806439999999782,"midi":59,"time":229.741476,"velocity":0.3937007874015748},{"duration":0.5806439999999782,"midi":52,"time":229.741476,"velocity":0.3937007874015748},{"duration":0.19354799999999273,"midi":64,"time":229.741476,"velocity":0.3937007874015748},{"duration":0.7741919999999993,"midi":52,"time":229.741476,"velocity":0.3937007874015748},{"duration":0.7741919999999993,"midi":47,"time":229.741476,"velocity":0.3937007874015748},{"duration":0.5806439999999782,"midi":64,"time":229.741476,"velocity":0.3937007874015748},{"duration":0.5806439999999782,"midi":64,"time":229.741476,"velocity":0.3937007874015748},{"duration":0.5806439999999782,"midi":59,"time":229.741476,"velocity":0.3937007874015748},{"duration":0.7741919999999993,"midi":52,"time":229.741476,"velocity":0.3937007874015748},{"duration":0.7741919999999993,"midi":40,"time":229.741476,"velocity":0.3937007874015748},{"duration":1.1612879999999848,"midi":52,"time":229.741476,"velocity":0.3937007874015748},{"duration":0.7741919999999993,"midi":59,"time":229.741476,"velocity":0.3937007874015748},{"duration":0.7741919999999993,"midi":59,"time":229.741476,"velocity":0.3937007874015748},{"duration":0.5806439999999782,"midi":55,"time":229.741476,"velocity":0.3937007874015748},{"duration":0.5806439999999782,"midi":55,"time":229.741476,"velocity":0.3937007874015748},{"duration":1.1612879999999848,"midi":52,"time":229.741476,"velocity":0.3937007874015748},{"duration":0.7741919999999993,"midi":55,"time":229.741476,"velocity":0.3937007874015748},{"duration":0.7741919999999993,"midi":64,"time":229.741476,"velocity":0.3937007874015748},{"duration":1.1612879999999848,"midi":40,"time":229.741476,"velocity":0.3937007874015748},{"duration":1.1612879999999848,"midi":40,"time":229.741476,"velocity":0.3937007874015748},{"duration":1.1612879999999848,"midi":47,"time":229.741476,"velocity":0.3937007874015748},{"duration":1.1612879999999848,"midi":59,"time":229.741476,"velocity":0.3937007874015748},{"duration":1.1612879999999848,"midi":47,"time":229.741476,"velocity":0.3937007874015748},{"duration":0.7741919999999993,"midi":55,"time":229.741476,"velocity":0.3937007874015748},{"duration":1.1612879999999848,"midi":55,"time":229.741476,"velocity":0.3937007874015748},{"duration":1.3548359999999775,"midi":47,"time":229.741476,"velocity":0.3937007874015748},{"duration":1.1612879999999848,"midi":59,"time":229.741476,"velocity":0.3937007874015748},{"duration":1.3548359999999775,"midi":52,"time":229.741476,"velocity":0.3937007874015748},{"duration":0.7741919999999993,"midi":64,"time":229.741476,"velocity":0.3937007874015748},{"duration":1.1612879999999848,"midi":55,"time":229.741476,"velocity":0.3937007874015748},{"duration":1.3548359999999775,"midi":40,"time":229.741476,"velocity":0.3937007874015748},{"duration":1.1612879999999848,"midi":64,"time":229.741476,"velocity":0.3937007874015748},{"duration":1.3548359999999775,"midi":47,"time":229.741476,"velocity":0.3937007874015748},{"duration":1.1612879999999848,"midi":64,"time":229.741476,"velocity":0.3937007874015748},{"duration":1.3548359999999775,"midi":40,"time":229.741476,"velocity":0.3937007874015748},{"duration":1.3548359999999775,"midi":52,"time":229.741476,"velocity":0.3937007874015748},{"duration":1.5483839999999987,"midi":52,"time":229.741476,"velocity":0.3937007874015748},{"duration":1.3548359999999775,"midi":59,"time":229.741476,"velocity":0.3937007874015748},{"duration":1.3548359999999775,"midi":59,"time":229.741476,"velocity":0.3937007874015748},{"duration":1.5483839999999987,"midi":59,"time":229.741476,"velocity":0.3937007874015748},{"duration":1.3548359999999775,"midi":64,"time":229.741476,"velocity":0.3937007874015748},{"duration":1.3548359999999775,"midi":64,"time":229.741476,"velocity":0.3937007874015748},{"duration":1.5483839999999987,"midi":40,"time":229.741476,"velocity":0.3937007874015748},{"duration":1.5483839999999987,"midi":64,"time":229.741476,"velocity":0.3937007874015748},{"duration":1.3548359999999775,"midi":55,"time":229.741476,"velocity":0.3937007874015748},{"duration":1.5483839999999987,"midi":64,"time":229.741476,"velocity":0.3937007874015748},{"duration":1.5483839999999987,"midi":59,"time":229.741476,"velocity":0.3937007874015748},{"duration":1.5483839999999987,"midi":47,"time":229.741476,"velocity":0.3937007874015748},{"duration":1.5483839999999987,"midi":47,"time":229.741476,"velocity":0.3937007874015748},{"duration":1.5483839999999987,"midi":40,"time":229.741476,"velocity":0.3937007874015748},{"duration":1.3548359999999775,"midi":55,"time":229.741476,"velocity":0.3937007874015748},{"duration":3.0967679999999973,"midi":40,"time":229.741476,"velocity":0.3937007874015748},{"duration":1.5483839999999987,"midi":55,"time":229.741476,"velocity":0.3937007874015748},{"duration":3.0967679999999973,"midi":64,"time":229.741476,"velocity":0.3937007874015748},{"duration":1.5483839999999987,"midi":55,"time":229.741476,"velocity":0.3937007874015748},{"duration":3.0967679999999973,"midi":59,"time":229.741476,"velocity":0.3937007874015748},{"duration":1.5483839999999987,"midi":52,"time":229.741476,"velocity":0.3937007874015748},{"duration":3.0967679999999973,"midi":47,"time":229.741476,"velocity":0.3937007874015748},{"duration":3.0967679999999973,"midi":52,"time":229.741476,"velocity":0.3937007874015748},{"duration":3.0967679999999973,"midi":55,"time":229.741476,"velocity":0.3937007874015748}]},{"instrument":{"family":"drums","number":0,"name":"standard kit"},"notes":[{"duration":0.096774,"midi":36,"time":0,"velocity":0.3937007874015748},{"duration":0.09677400000000003,"midi":36,"time":0.387096,"velocity":0.3937007874015748},{"duration":0.09677400000000003,"midi":36,"time":0.774192,"velocity":0.3937007874015748},{"duration":0.7741920000000002,"midi":40,"time":1.1612879999999999,"velocity":0.3937007874015748},{"duration":0.3870960000000001,"midi":36,"time":1.548384,"velocity":0.3937007874015748},{"duration":0.7741919999999998,"midi":40,"time":1.93548,"velocity":0.3937007874015748},{"duration":0.3870960000000001,"midi":36,"time":2.129028,"velocity":0.3937007874015748},{"duration":0.19354799999999983,"midi":36,"time":2.516124,"velocity":0.3937007874015748},{"duration":0.7741920000000002,"midi":40,"time":2.709672,"velocity":0.3937007874015748},{"duration":0.3870960000000001,"midi":36,"time":3.096768,"velocity":0.3937007874015748},{"duration":0.7741919999999998,"midi":40,"time":3.483864,"velocity":0.3937007874015748},{"duration":0.3870960000000001,"midi":36,"time":3.677412,"velocity":0.3937007874015748},{"duration":0.19354799999999983,"midi":36,"time":4.064508,"velocity":0.3937007874015748},{"duration":0.7741920000000002,"midi":40,"time":4.258056,"velocity":0.3937007874015748},{"duration":0.38709600000000055,"midi":36,"time":4.6451519999999995,"velocity":0.3937007874015748},{"duration":0.7741920000000002,"midi":40,"time":5.032248,"velocity":0.3937007874015748},{"duration":0.38709599999999966,"midi":36,"time":5.225796,"velocity":0.3937007874015748},{"duration":0.19354800000000072,"midi":36,"time":5.6128919999999995,"velocity":0.3937007874015748},{"duration":0.7741919999999993,"midi":40,"time":5.80644,"velocity":0.3937007874015748},{"duration":0.38709599999999966,"midi":36,"time":6.193536,"velocity":0.3937007874015748},{"duration":0.7741920000000002,"midi":40,"time":6.580632,"velocity":0.3937007874015748},{"duration":0.38709599999999966,"midi":36,"time":6.967728,"velocity":0.3937007874015748},{"duration":0.7741920000000002,"midi":40,"time":7.354824,"velocity":0.3937007874015748},{"duration":0.38709600000000055,"midi":36,"time":7.548372,"velocity":0.3937007874015748},{"duration":0.19354799999999983,"midi":36,"time":7.935468,"velocity":0.3937007874015748},{"duration":0.7741919999999993,"midi":40,"time":8.129016,"velocity":0.3937007874015748},{"duration":0.38709599999999966,"midi":36,"time":8.516112,"velocity":0.3937007874015748},{"duration":0.7741920000000011,"midi":40,"time":8.903208,"velocity":0.3937007874015748},{"duration":0.38709599999999966,"midi":39,"time":8.903208,"velocity":0.3937007874015748},{"duration":0.38709600000000144,"midi":36,"time":9.096756,"velocity":0.3937007874015748},{"duration":0.38709600000000144,"midi":39,"time":9.290303999999999,"velocity":0.3937007874015748},{"duration":0.19354799999999983,"midi":36,"time":9.483852,"velocity":0.3937007874015748},{"duration":7.741919999999999,"midi":39,"time":9.6774,"velocity":0.3937007874015748},{"duration":0.7741919999999993,"midi":40,"time":9.6774,"velocity":0.3937007874015748},{"duration":0.38709599999999966,"midi":36,"time":10.064496,"velocity":0.3937007874015748},{"duration":0.7741919999999993,"midi":40,"time":10.451592,"velocity":0.3937007874015748},{"duration":0.38709599999999966,"midi":36,"time":10.64514,"velocity":0.3937007874015748},{"duration":0.19354799999999983,"midi":36,"time":11.032236,"velocity":0.3937007874015748},{"duration":0.7741920000000011,"midi":40,"time":11.225783999999999,"velocity":0.3937007874015748},{"duration":0.38709599999999966,"midi":36,"time":11.61288,"velocity":0.3937007874015748},{"duration":0.7741919999999993,"midi":40,"time":11.999976,"velocity":0.3937007874015748},{"duration":0.38709599999999966,"midi":36,"time":12.193524,"velocity":0.3937007874015748},{"duration":0.19354799999999983,"midi":36,"time":12.58062,"velocity":0.3937007874015748},{"duration":0.7741920000000011,"midi":40,"time":12.774168,"velocity":0.3937007874015748},{"duration":0.38709600000000144,"midi":36,"time":13.161264,"velocity":0.3937007874015748},{"duration":0.7741919999999993,"midi":40,"time":13.54836,"velocity":0.3937007874015748},{"duration":0.38709599999999966,"midi":36,"time":13.741908,"velocity":0.3937007874015748},{"duration":0.19354799999999983,"midi":36,"time":14.129004,"velocity":0.3937007874015748},{"duration":0.7741919999999993,"midi":40,"time":14.322552,"velocity":0.3937007874015748},{"duration":0.38709599999999966,"midi":36,"time":14.709648,"velocity":0.3937007874015748},{"duration":0.7741920000000011,"midi":40,"time":15.096744,"velocity":0.3937007874015748},{"duration":0.38709599999999966,"midi":36,"time":15.48384,"velocity":0.3937007874015748},{"duration":0.7741919999999993,"midi":40,"time":15.870936,"velocity":0.3937007874015748},{"duration":0.38709599999999966,"midi":36,"time":16.064484,"velocity":0.3937007874015748},{"duration":0.19354799999999983,"midi":36,"time":16.45158,"velocity":0.3937007874015748},{"duration":0.7741919999999993,"midi":40,"time":16.645128,"velocity":0.3937007874015748},{"duration":0.38709599999999966,"midi":36,"time":17.032224,"velocity":0.3937007874015748},{"duration":0.7741919999999993,"midi":40,"time":17.41932,"velocity":0.3937007874015748},{"duration":0.38709599999999966,"midi":39,"time":17.41932,"velocity":0.3937007874015748},{"duration":0.38709599999999966,"midi":36,"time":17.612868,"velocity":0.3937007874015748},{"duration":0.38709599999999966,"midi":39,"time":17.806416,"velocity":0.3937007874015748},{"duration":0.19354799999999983,"midi":36,"time":17.999964,"velocity":0.3937007874015748},{"duration":7.74192,"midi":39,"time":18.193512,"velocity":0.3937007874015748},{"duration":0.7741920000000029,"midi":40,"time":18.193512,"velocity":0.3937007874015748},{"duration":0.3870960000000032,"midi":36,"time":18.580607999999998,"velocity":0.3937007874015748},{"duration":0.7741919999999993,"midi":40,"time":18.967704,"velocity":0.3937007874015748},{"duration":0.38709599999999966,"midi":36,"time":19.161252,"velocity":0.3937007874015748},{"duration":0.19354799999999983,"midi":36,"time":19.548348,"velocity":0.3937007874015748},{"duration":0.7741919999999993,"midi":40,"time":19.741896,"velocity":0.3937007874015748},{"duration":0.38709599999999966,"midi":36,"time":20.128992,"velocity":0.3937007874015748},{"duration":0.7741919999999993,"midi":40,"time":20.516088,"velocity":0.3937007874015748},{"duration":0.38709599999999966,"midi":36,"time":20.709636,"velocity":0.3937007874015748},{"duration":0.19354799999999983,"midi":36,"time":21.096732,"velocity":0.3937007874015748},{"duration":0.7741919999999993,"midi":40,"time":21.29028,"velocity":0.3937007874015748},{"duration":0.38709599999999966,"midi":36,"time":21.677376,"velocity":0.3937007874015748},{"duration":0.7741920000000029,"midi":40,"time":22.064472,"velocity":0.3937007874015748},{"duration":0.38709599999999966,"midi":36,"time":22.25802,"velocity":0.3937007874015748},{"duration":0.19354800000000338,"midi":36,"time":22.645115999999998,"velocity":0.3937007874015748},{"duration":0.7741919999999993,"midi":40,"time":22.838664,"velocity":0.3937007874015748},{"duration":0.38709599999999966,"midi":36,"time":23.22576,"velocity":0.3937007874015748},{"duration":0.7741919999999993,"midi":40,"time":23.612856,"velocity":0.3937007874015748},{"duration":0.38709599999999966,"midi":36,"time":23.999952,"velocity":0.3937007874015748},{"duration":0.7741919999999993,"midi":40,"time":24.387048,"velocity":0.3937007874015748},{"duration":0.38709599999999966,"midi":36,"time":24.580596,"velocity":0.3937007874015748},{"duration":0.19354799999999983,"midi":36,"time":24.967692,"velocity":0.3937007874015748},{"duration":0.7741919999999993,"midi":40,"time":25.16124,"velocity":0.3937007874015748},{"duration":0.38709599999999966,"midi":36,"time":25.548336,"velocity":0.3937007874015748},{"duration":0.7741919999999993,"midi":40,"time":25.935432,"velocity":0.3937007874015748},{"duration":0.38709599999999966,"midi":39,"time":25.935432,"velocity":0.3937007874015748},{"duration":0.38709599999999966,"midi":36,"time":26.12898,"velocity":0.3937007874015748},{"duration":0.38709599999999966,"midi":39,"time":26.322528,"velocity":0.3937007874015748},{"duration":0.19354799999999983,"midi":36,"time":26.516075999999998,"velocity":0.3937007874015748},{"duration":0.7741920000000029,"midi":40,"time":26.709623999999998,"velocity":0.3937007874015748},{"duration":7.74192,"midi":39,"time":26.709623999999998,"velocity":0.3937007874015748},{"duration":0.38709599999999966,"midi":36,"time":27.09672,"velocity":0.3937007874015748},{"duration":0.7741919999999993,"midi":40,"time":27.483816,"velocity":0.3937007874015748},{"duration":0.38709599999999966,"midi":36,"time":27.677364,"velocity":0.3937007874015748},{"duration":0.19354799999999983,"midi":36,"time":28.06446,"velocity":0.3937007874015748},{"duration":0.7741919999999993,"midi":40,"time":28.258008,"velocity":0.3937007874015748},{"duration":0.38709599999999966,"midi":36,"time":28.645104,"velocity":0.3937007874015748},{"duration":0.7741919999999993,"midi":40,"time":29.0322,"velocity":0.3937007874015748},{"duration":0.38709599999999966,"midi":36,"time":29.225748,"velocity":0.3937007874015748},{"duration":0.19354799999999983,"midi":36,"time":29.612844,"velocity":0.3937007874015748},{"duration":0.7741919999999993,"midi":40,"time":29.806392,"velocity":0.3937007874015748},{"duration":0.38709599999999966,"midi":36,"time":30.193488,"velocity":0.3937007874015748},{"duration":0.7741920000000029,"midi":40,"time":30.580583999999998,"velocity":0.3937007874015748},{"duration":0.3870960000000032,"midi":36,"time":30.774131999999998,"velocity":0.3937007874015748},{"duration":0.19354799999999983,"midi":36,"time":31.161228,"velocity":0.3937007874015748},{"duration":0.7741919999999993,"midi":40,"time":31.354776,"velocity":0.3937007874015748},{"duration":0.38709599999999966,"midi":36,"time":31.741872,"velocity":0.3937007874015748},{"duration":0.7741919999999993,"midi":40,"time":32.128968,"velocity":0.3937007874015748},{"duration":0.38709599999999966,"midi":36,"time":32.516064,"velocity":0.3937007874015748},{"duration":0.7741919999999993,"midi":40,"time":32.90316,"velocity":0.3937007874015748},{"duration":0.38709599999999966,"midi":36,"time":33.096708,"velocity":0.3937007874015748},{"duration":0.19354799999999983,"midi":36,"time":33.483804,"velocity":0.3937007874015748},{"duration":0.7741919999999993,"midi":40,"time":33.677352,"velocity":0.3937007874015748},{"duration":0.38709599999999966,"midi":36,"time":34.064448,"velocity":0.3937007874015748},{"duration":0.7741919999999993,"midi":40,"time":34.451544,"velocity":0.3937007874015748},{"duration":0.38709599999999966,"midi":39,"time":34.451544,"velocity":0.3937007874015748},{"duration":0.38709599999999966,"midi":36,"time":34.645092,"velocity":0.3937007874015748},{"duration":0.38709599999999966,"midi":39,"time":34.83864,"velocity":0.3937007874015748},{"duration":0.19354799999999983,"midi":36,"time":35.032188,"velocity":0.3937007874015748},{"duration":7.74192,"midi":39,"time":35.225736,"velocity":0.3937007874015748},{"duration":0.7741919999999993,"midi":40,"time":35.225736,"velocity":0.3937007874015748},{"duration":0.38709599999999966,"midi":36,"time":35.612832,"velocity":0.3937007874015748},{"duration":0.7741919999999993,"midi":40,"time":35.999928,"velocity":0.3937007874015748},{"duration":0.38709599999999966,"midi":36,"time":36.193476,"velocity":0.3937007874015748},{"duration":0.19354799999999983,"midi":36,"time":36.580572,"velocity":0.3937007874015748},{"duration":0.7741920000000064,"midi":40,"time":36.774119999999996,"velocity":0.3937007874015748},{"duration":0.38709600000000677,"midi":36,"time":37.161215999999996,"velocity":0.3937007874015748},{"duration":0.7741919999999993,"midi":40,"time":37.548312,"velocity":0.3937007874015748},{"duration":0.38709599999999966,"midi":36,"time":37.74186,"velocity":0.3937007874015748},{"duration":0.19354799999999983,"midi":36,"time":38.128956,"velocity":0.3937007874015748},{"duration":0.7741919999999993,"midi":40,"time":38.322504,"velocity":0.3937007874015748},{"duration":0.38709599999999966,"midi":36,"time":38.7096,"velocity":0.3937007874015748},{"duration":0.7741919999999993,"midi":40,"time":39.096696,"velocity":0.3937007874015748},{"duration":0.38709599999999966,"midi":36,"time":39.290244,"velocity":0.3937007874015748},{"duration":0.19354799999999983,"midi":36,"time":39.67734,"velocity":0.3937007874015748},{"duration":0.7741919999999993,"midi":40,"time":39.870888,"velocity":0.3937007874015748},{"duration":0.38709599999999966,"midi":36,"time":40.257984,"velocity":0.3937007874015748},{"duration":0.7741919999999993,"midi":40,"time":40.64508,"velocity":0.3937007874015748},{"duration":0.38709599999999966,"midi":36,"time":41.032176,"velocity":0.3937007874015748},{"duration":0.7741919999999993,"midi":40,"time":41.419272,"velocity":0.3937007874015748},{"duration":0.38709599999999966,"midi":36,"time":41.61282,"velocity":0.3937007874015748},{"duration":0.19354799999999983,"midi":36,"time":41.999916,"velocity":0.3937007874015748},{"duration":0.7741919999999993,"midi":40,"time":42.193464,"velocity":0.3937007874015748},{"duration":0.38709599999999966,"midi":36,"time":42.58056,"velocity":0.3937007874015748},{"duration":0.7741919999999993,"midi":40,"time":42.967656,"velocity":0.3937007874015748},{"duration":0.38709599999999966,"midi":39,"time":42.967656,"velocity":0.3937007874015748},{"duration":0.38709599999999966,"midi":36,"time":43.161204,"velocity":0.3937007874015748},{"duration":0.38709599999999966,"midi":39,"time":43.354752,"velocity":0.3937007874015748},{"duration":0.19354799999999983,"midi":36,"time":43.5483,"velocity":0.3937007874015748},{"duration":0.7741919999999993,"midi":40,"time":43.741848,"velocity":0.3937007874015748},{"duration":7.74192,"midi":39,"time":43.741848,"velocity":0.3937007874015748},{"duration":0.38709599999999966,"midi":36,"time":44.128944,"velocity":0.3937007874015748},{"duration":0.7741919999999993,"midi":40,"time":44.51604,"velocity":0.3937007874015748},{"duration":0.38709599999999966,"midi":36,"time":44.709588,"velocity":0.3937007874015748},{"duration":0.19354799999999983,"midi":36,"time":45.096683999999996,"velocity":0.3937007874015748},{"duration":0.7741920000000064,"midi":40,"time":45.290231999999996,"velocity":0.3937007874015748},{"duration":0.38709599999999966,"midi":36,"time":45.677328,"velocity":0.3937007874015748},{"duration":0.7741919999999993,"midi":40,"time":46.064424,"velocity":0.3937007874015748},{"duration":0.38709599999999966,"midi":36,"time":46.257972,"velocity":0.3937007874015748},{"duration":0.19354799999999983,"midi":36,"time":46.645068,"velocity":0.3937007874015748},{"duration":0.7741919999999993,"midi":40,"time":46.838616,"velocity":0.3937007874015748},{"duration":0.38709599999999966,"midi":36,"time":47.225712,"velocity":0.3937007874015748},{"duration":0.7741919999999993,"midi":40,"time":47.612808,"velocity":0.3937007874015748},{"duration":0.38709599999999966,"midi":36,"time":47.806356,"velocity":0.3937007874015748},{"duration":0.19354799999999983,"midi":36,"time":48.193452,"velocity":0.3937007874015748},{"duration":0.7741919999999993,"midi":40,"time":48.387,"velocity":0.3937007874015748},{"duration":0.38709599999999966,"midi":36,"time":48.774096,"velocity":0.3937007874015748},{"duration":0.7741919999999993,"midi":40,"time":49.161192,"velocity":0.3937007874015748},{"duration":0.38709599999999966,"midi":36,"time":49.548288,"velocity":0.3937007874015748},{"duration":0.7741919999999993,"midi":40,"time":49.935384,"velocity":0.3937007874015748},{"duration":0.38709599999999966,"midi":36,"time":50.128932,"velocity":0.3937007874015748},{"duration":0.19354799999999983,"midi":36,"time":50.516028,"velocity":0.3937007874015748},{"duration":0.7741919999999993,"midi":40,"time":50.709576,"velocity":0.3937007874015748},{"duration":0.38709599999999966,"midi":36,"time":51.096672,"velocity":0.3937007874015748},{"duration":0.38709599999999966,"midi":39,"time":51.483768,"velocity":0.3937007874015748},{"duration":0.7741919999999993,"midi":40,"time":51.483768,"velocity":0.3937007874015748},{"duration":0.38709599999999966,"midi":36,"time":51.677316,"velocity":0.3937007874015748},{"duration":0.38709599999999966,"midi":39,"time":51.870864,"velocity":0.3937007874015748},{"duration":0.19354799999999983,"midi":36,"time":52.064412,"velocity":0.3937007874015748},{"duration":7.74192,"midi":39,"time":52.25796,"velocity":0.3937007874015748},{"duration":0.7741919999999993,"midi":40,"time":52.25796,"velocity":0.3937007874015748},{"duration":0.38709599999999966,"midi":36,"time":52.645056,"velocity":0.3937007874015748},{"duration":0.7741920000000064,"midi":40,"time":53.032151999999996,"velocity":0.3937007874015748},{"duration":0.38709599999999966,"midi":36,"time":53.225699999999996,"velocity":0.3937007874015748},{"duration":0.19354800000000694,"midi":36,"time":53.612795999999996,"velocity":0.3937007874015748},{"duration":0.7741919999999993,"midi":40,"time":53.806344,"velocity":0.3937007874015748},{"duration":0.38709599999999966,"midi":36,"time":54.19344,"velocity":0.3937007874015748},{"duration":0.7741919999999993,"midi":40,"time":54.580536,"velocity":0.3937007874015748},{"duration":0.38709599999999966,"midi":36,"time":54.774084,"velocity":0.3937007874015748},{"duration":0.19354799999999983,"midi":36,"time":55.16118,"velocity":0.3937007874015748},{"duration":0.7741919999999993,"midi":40,"time":55.354728,"velocity":0.3937007874015748},{"duration":0.38709599999999966,"midi":36,"time":55.741824,"velocity":0.3937007874015748},{"duration":0.7741919999999993,"midi":40,"time":56.12892,"velocity":0.3937007874015748},{"duration":0.38709599999999966,"midi":36,"time":56.322468,"velocity":0.3937007874015748},{"duration":0.19354799999999983,"midi":36,"time":56.709564,"velocity":0.3937007874015748},{"duration":0.7741919999999993,"midi":40,"time":56.903112,"velocity":0.3937007874015748},{"duration":0.38709599999999966,"midi":36,"time":57.290208,"velocity":0.3937007874015748},{"duration":0.7741919999999993,"midi":40,"time":57.677304,"velocity":0.3937007874015748},{"duration":0.38709599999999966,"midi":36,"time":58.0644,"velocity":0.3937007874015748},{"duration":0.7741919999999993,"midi":40,"time":58.451496,"velocity":0.3937007874015748},{"duration":0.38709599999999966,"midi":36,"time":58.645044,"velocity":0.3937007874015748},{"duration":0.19354799999999983,"midi":36,"time":59.03214,"velocity":0.3937007874015748},{"duration":0.7741919999999993,"midi":40,"time":59.225688,"velocity":0.3937007874015748},{"duration":0.38709599999999966,"midi":36,"time":59.612784,"velocity":0.3937007874015748},{"duration":0.38709599999999966,"midi":39,"time":59.99988,"velocity":0.3937007874015748},{"duration":0.7741919999999993,"midi":40,"time":59.99988,"velocity":0.3937007874015748},{"duration":0.38709599999999966,"midi":36,"time":60.193428,"velocity":0.3937007874015748},{"duration":0.38709599999999966,"midi":39,"time":60.386976,"velocity":0.3937007874015748},{"duration":0.19354799999999983,"midi":36,"time":60.580524,"velocity":0.3937007874015748},{"duration":7.74192,"midi":39,"time":60.774072,"velocity":0.3937007874015748},{"duration":0.7741919999999993,"midi":40,"time":60.774072,"velocity":0.3937007874015748},{"duration":0.38709599999999966,"midi":36,"time":61.161167999999996,"velocity":0.3937007874015748},{"duration":0.7741920000000064,"midi":40,"time":61.548263999999996,"velocity":0.3937007874015748},{"duration":0.38709600000000677,"midi":36,"time":61.741811999999996,"velocity":0.3937007874015748},{"duration":0.19354799999999983,"midi":36,"time":62.128908,"velocity":0.3937007874015748},{"duration":0.7741919999999993,"midi":40,"time":62.322456,"velocity":0.3937007874015748},{"duration":0.38709599999999966,"midi":36,"time":62.709552,"velocity":0.3937007874015748},{"duration":0.7741919999999993,"midi":40,"time":63.096648,"velocity":0.3937007874015748},{"duration":0.38709599999999966,"midi":36,"time":63.290196,"velocity":0.3937007874015748},{"duration":0.19354799999999983,"midi":36,"time":63.677292,"velocity":0.3937007874015748},{"duration":0.7741919999999993,"midi":40,"time":63.87084,"velocity":0.3937007874015748},{"duration":0.38709599999999966,"midi":36,"time":64.257936,"velocity":0.3937007874015748},{"duration":0.7741919999999993,"midi":40,"time":64.645032,"velocity":0.3937007874015748},{"duration":0.38709599999999966,"midi":36,"time":64.83858,"velocity":0.3937007874015748},{"duration":0.19354800000000694,"midi":36,"time":65.22567599999999,"velocity":0.3937007874015748},{"duration":0.7741919999999993,"midi":40,"time":65.419224,"velocity":0.3937007874015748},{"duration":0.38709599999999966,"midi":36,"time":65.80632,"velocity":0.3937007874015748},{"duration":0.7741919999999993,"midi":40,"time":66.193416,"velocity":0.3937007874015748},{"duration":0.38709599999999966,"midi":36,"time":66.580512,"velocity":0.3937007874015748},{"duration":0.7741919999999993,"midi":40,"time":66.967608,"velocity":0.3937007874015748},{"duration":0.38709599999999966,"midi":36,"time":67.161156,"velocity":0.3937007874015748},{"duration":0.19354799999999273,"midi":36,"time":67.548252,"velocity":0.3937007874015748},{"duration":0.7741919999999993,"midi":40,"time":67.7418,"velocity":0.3937007874015748},{"duration":0.38709599999999966,"midi":36,"time":68.128896,"velocity":0.3937007874015748},{"duration":0.7741919999999993,"midi":40,"time":68.515992,"velocity":0.3937007874015748},{"duration":0.38709599999999966,"midi":39,"time":68.515992,"velocity":0.3937007874015748},{"duration":0.38709599999999966,"midi":36,"time":68.70954,"velocity":0.3937007874015748},{"duration":0.38709599999999966,"midi":39,"time":68.903088,"velocity":0.3937007874015748},{"duration":0.19354799999999273,"midi":36,"time":69.096636,"velocity":0.3937007874015748},{"duration":0.7741919999999993,"midi":40,"time":69.290184,"velocity":0.3937007874015748},{"duration":7.7419200000000075,"midi":39,"time":69.290184,"velocity":0.3937007874015748},{"duration":0.38709599999999966,"midi":36,"time":69.67728,"velocity":0.3937007874015748},{"duration":0.7741919999999993,"midi":40,"time":70.064376,"velocity":0.3937007874015748},{"duration":0.38709599999999966,"midi":36,"time":70.257924,"velocity":0.3937007874015748},{"duration":0.19354799999999273,"midi":36,"time":70.64502,"velocity":0.3937007874015748},{"duration":0.7741919999999993,"midi":40,"time":70.838568,"velocity":0.3937007874015748},{"duration":0.38709599999999966,"midi":36,"time":71.225664,"velocity":0.3937007874015748},{"duration":0.7741919999999993,"midi":40,"time":71.61276,"velocity":0.3937007874015748},{"duration":0.38709599999999966,"midi":36,"time":71.806308,"velocity":0.3937007874015748},{"duration":0.19354799999999273,"midi":36,"time":72.193404,"velocity":0.3937007874015748},{"duration":0.7741919999999993,"midi":40,"time":72.386952,"velocity":0.3937007874015748},{"duration":0.38709599999999966,"midi":36,"time":72.774048,"velocity":0.3937007874015748},{"duration":0.7741919999999993,"midi":40,"time":73.161144,"velocity":0.3937007874015748},{"duration":0.38709599999999966,"midi":36,"time":73.354692,"velocity":0.3937007874015748},{"duration":0.19354799999999273,"midi":36,"time":73.741788,"velocity":0.3937007874015748},{"duration":0.7741920000000135,"midi":40,"time":73.93533599999999,"velocity":0.3937007874015748},{"duration":0.3870960000000139,"midi":36,"time":74.32243199999999,"velocity":0.3937007874015748},{"duration":0.7741919999999993,"midi":40,"time":74.709528,"velocity":0.3937007874015748},{"duration":0.38709599999999966,"midi":36,"time":75.096624,"velocity":0.3937007874015748},{"duration":0.7741919999999993,"midi":40,"time":75.48372,"velocity":0.3937007874015748},{"duration":0.38709599999999966,"midi":36,"time":75.677268,"velocity":0.3937007874015748},{"duration":0.19354800000000694,"midi":36,"time":76.064364,"velocity":0.3937007874015748},{"duration":0.7741919999999993,"midi":40,"time":76.257912,"velocity":0.3937007874015748},{"duration":0.38709599999999966,"midi":36,"time":76.645008,"velocity":0.3937007874015748},{"duration":0.38709599999999966,"midi":39,"time":77.032104,"velocity":0.3937007874015748},{"duration":0.7741919999999993,"midi":40,"time":77.032104,"velocity":0.3937007874015748},{"duration":0.38709599999999966,"midi":36,"time":77.225652,"velocity":0.3937007874015748},{"duration":0.38709599999999966,"midi":39,"time":77.4192,"velocity":0.3937007874015748},{"duration":0.19354800000000694,"midi":36,"time":77.612748,"velocity":0.3937007874015748},{"duration":0.7741919999999993,"midi":40,"time":77.806296,"velocity":0.3937007874015748},{"duration":7.741919999999993,"midi":39,"time":77.806296,"velocity":0.3937007874015748},{"duration":0.38709599999999966,"midi":36,"time":78.193392,"velocity":0.3937007874015748},{"duration":0.7741919999999993,"midi":40,"time":78.580488,"velocity":0.3937007874015748},{"duration":0.38709599999999966,"midi":36,"time":78.774036,"velocity":0.3937007874015748},{"duration":0.19354800000000694,"midi":36,"time":79.161132,"velocity":0.3937007874015748},{"duration":0.7741919999999993,"midi":40,"time":79.35468,"velocity":0.3937007874015748},{"duration":0.38709599999999966,"midi":36,"time":79.741776,"velocity":0.3937007874015748},{"duration":0.7741919999999993,"midi":40,"time":80.128872,"velocity":0.3937007874015748},{"duration":0.38709599999999966,"midi":36,"time":80.32242,"velocity":0.3937007874015748},{"duration":0.19354800000000694,"midi":36,"time":80.709516,"velocity":0.3937007874015748},{"duration":0.7741919999999993,"midi":40,"time":80.903064,"velocity":0.3937007874015748},{"duration":0.38709599999999966,"midi":36,"time":81.29016,"velocity":0.3937007874015748},{"duration":0.7741919999999993,"midi":40,"time":81.677256,"velocity":0.3937007874015748},{"duration":0.38709599999999966,"midi":36,"time":81.87080399999999,"velocity":0.3937007874015748},{"duration":0.19354800000000694,"midi":36,"time":82.25789999999999,"velocity":0.3937007874015748},{"duration":0.7741919999999993,"midi":40,"time":82.451448,"velocity":0.3937007874015748},{"duration":0.38709599999999966,"midi":36,"time":82.838544,"velocity":0.3937007874015748},{"duration":0.7741919999999993,"midi":40,"time":83.22564,"velocity":0.3937007874015748},{"duration":0.38709599999999966,"midi":36,"time":83.612736,"velocity":0.3937007874015748},{"duration":0.7741919999999993,"midi":40,"time":83.999832,"velocity":0.3937007874015748},{"duration":0.38709599999999966,"midi":36,"time":84.19338,"velocity":0.3937007874015748},{"duration":0.19354799999999273,"midi":36,"time":84.580476,"velocity":0.3937007874015748},{"duration":0.7741919999999993,"midi":40,"time":84.774024,"velocity":0.3937007874015748},{"duration":0.38709599999999966,"midi":36,"time":85.16112,"velocity":0.3937007874015748},{"duration":0.38709599999999966,"midi":39,"time":85.548216,"velocity":0.3937007874015748},{"duration":0.7741919999999993,"midi":40,"time":85.548216,"velocity":0.3937007874015748},{"duration":0.38709599999999966,"midi":36,"time":85.741764,"velocity":0.3937007874015748},{"duration":0.38709599999999966,"midi":39,"time":85.935312,"velocity":0.3937007874015748},{"duration":0.19354799999999273,"midi":36,"time":86.12886,"velocity":0.3937007874015748},{"duration":7.7419200000000075,"midi":39,"time":86.322408,"velocity":0.3937007874015748},{"duration":0.7741919999999993,"midi":40,"time":86.322408,"velocity":0.3937007874015748},{"duration":0.38709599999999966,"midi":36,"time":86.709504,"velocity":0.3937007874015748},{"duration":0.7741919999999993,"midi":40,"time":87.0966,"velocity":0.3937007874015748},{"duration":0.38709599999999966,"midi":36,"time":87.290148,"velocity":0.3937007874015748},{"duration":0.19354799999999273,"midi":36,"time":87.677244,"velocity":0.3937007874015748},{"duration":0.7741919999999993,"midi":40,"time":87.870792,"velocity":0.3937007874015748},{"duration":0.38709599999999966,"midi":36,"time":88.257888,"velocity":0.3937007874015748},{"duration":0.7741919999999993,"midi":40,"time":88.644984,"velocity":0.3937007874015748},{"duration":0.38709599999999966,"midi":36,"time":88.838532,"velocity":0.3937007874015748},{"duration":0.19354799999999273,"midi":36,"time":89.225628,"velocity":0.3937007874015748},{"duration":0.7741919999999993,"midi":40,"time":89.419176,"velocity":0.3937007874015748},{"duration":0.38709599999999966,"midi":36,"time":89.80627199999999,"velocity":0.3937007874015748},{"duration":0.7741920000000135,"midi":40,"time":90.19336799999999,"velocity":0.3937007874015748},{"duration":0.38709599999999966,"midi":36,"time":90.386916,"velocity":0.3937007874015748},{"duration":0.19354800000000694,"midi":36,"time":90.774012,"velocity":0.3937007874015748},{"duration":0.7741919999999993,"midi":40,"time":90.96756,"velocity":0.3937007874015748},{"duration":0.38709599999999966,"midi":36,"time":91.354656,"velocity":0.3937007874015748},{"duration":0.7741919999999993,"midi":40,"time":91.741752,"velocity":0.3937007874015748},{"duration":0.38709599999999966,"midi":36,"time":92.128848,"velocity":0.3937007874015748},{"duration":0.7741919999999993,"midi":40,"time":92.515944,"velocity":0.3937007874015748},{"duration":0.38709599999999966,"midi":36,"time":92.709492,"velocity":0.3937007874015748},{"duration":0.19354800000000694,"midi":36,"time":93.096588,"velocity":0.3937007874015748},{"duration":0.7741919999999993,"midi":40,"time":93.290136,"velocity":0.3937007874015748},{"duration":0.38709599999999966,"midi":36,"time":93.677232,"velocity":0.3937007874015748},{"duration":0.7741919999999993,"midi":40,"time":94.064328,"velocity":0.3937007874015748},{"duration":0.38709599999999966,"midi":39,"time":94.064328,"velocity":0.3937007874015748},{"duration":0.38709599999999966,"midi":36,"time":94.257876,"velocity":0.3937007874015748},{"duration":0.38709599999999966,"midi":39,"time":94.451424,"velocity":0.3937007874015748},{"duration":0.19354800000000694,"midi":36,"time":94.644972,"velocity":0.3937007874015748},{"duration":0.7741919999999993,"midi":40,"time":94.83852,"velocity":0.3937007874015748},{"duration":16.258032,"midi":39,"time":94.83852,"velocity":0.3937007874015748},{"duration":0.38709599999999966,"midi":36,"time":95.225616,"velocity":0.3937007874015748},{"duration":0.7741919999999993,"midi":40,"time":95.612712,"velocity":0.3937007874015748},{"duration":0.38709599999999966,"midi":36,"time":95.80626,"velocity":0.3937007874015748},{"duration":0.19354800000000694,"midi":36,"time":96.193356,"velocity":0.3937007874015748},{"duration":0.7741919999999993,"midi":40,"time":96.386904,"velocity":0.3937007874015748},{"duration":0.38709599999999966,"midi":36,"time":96.774,"velocity":0.3937007874015748},{"duration":0.7741919999999993,"midi":40,"time":97.161096,"velocity":0.3937007874015748},{"duration":0.38709599999999966,"midi":36,"time":97.354644,"velocity":0.3937007874015748},{"duration":0.19354800000000694,"midi":36,"time":97.74174,"velocity":0.3937007874015748},{"duration":0.7741919999999993,"midi":40,"time":97.935288,"velocity":0.3937007874015748},{"duration":0.38709599999999966,"midi":36,"time":98.322384,"velocity":0.3937007874015748},{"duration":0.7741919999999993,"midi":40,"time":98.70948,"velocity":0.3937007874015748},{"duration":0.3870960000000139,"midi":36,"time":98.90302799999999,"velocity":0.3937007874015748},{"duration":0.19354799999999273,"midi":36,"time":99.290124,"velocity":0.3937007874015748},{"duration":0.7741919999999993,"midi":40,"time":99.483672,"velocity":0.3937007874015748},{"duration":0.38709599999999966,"midi":36,"time":99.870768,"velocity":0.3937007874015748},{"duration":3.8709599999999966,"midi":40,"time":100.257864,"velocity":0.3937007874015748},{"duration":3.0967679999999973,"midi":36,"time":100.64496,"velocity":0.3937007874015748},{"duration":0.38709599999999966,"midi":36,"time":103.741728,"velocity":0.3937007874015748},{"duration":0.7741919999999993,"midi":40,"time":104.128824,"velocity":0.3937007874015748},{"duration":0.38709599999999966,"midi":36,"time":104.322372,"velocity":0.3937007874015748},{"duration":0.19354799999999273,"midi":36,"time":104.709468,"velocity":0.3937007874015748},{"duration":0.7741919999999993,"midi":40,"time":104.903016,"velocity":0.3937007874015748},{"duration":0.38709599999999966,"midi":36,"time":105.290112,"velocity":0.3937007874015748},{"duration":0.7741919999999993,"midi":40,"time":105.677208,"velocity":0.3937007874015748},{"duration":0.38709599999999966,"midi":36,"time":105.870756,"velocity":0.3937007874015748},{"duration":0.19354799999999273,"midi":36,"time":106.257852,"velocity":0.3937007874015748},{"duration":0.7741919999999993,"midi":40,"time":106.45139999999999,"velocity":0.3937007874015748},{"duration":0.38709599999999966,"midi":36,"time":106.83849599999999,"velocity":0.3937007874015748},{"duration":0.7741920000000135,"midi":40,"time":107.22559199999999,"velocity":0.3937007874015748},{"duration":0.38709599999999966,"midi":36,"time":107.41914,"velocity":0.3937007874015748},{"duration":0.19354800000000694,"midi":36,"time":107.806236,"velocity":0.3937007874015748},{"duration":0.7741919999999993,"midi":40,"time":107.999784,"velocity":0.3937007874015748},{"duration":0.38709599999999966,"midi":36,"time":108.38688,"velocity":0.3937007874015748},{"duration":0.7741919999999993,"midi":40,"time":108.773976,"velocity":0.3937007874015748},{"duration":0.38709599999999966,"midi":36,"time":109.161072,"velocity":0.3937007874015748},{"duration":0.7741919999999993,"midi":40,"time":109.548168,"velocity":0.3937007874015748},{"duration":0.38709599999999966,"midi":36,"time":109.741716,"velocity":0.3937007874015748},{"duration":0.19354800000000694,"midi":36,"time":110.128812,"velocity":0.3937007874015748},{"duration":0.7741919999999993,"midi":40,"time":110.32236,"velocity":0.3937007874015748},{"duration":0.38709599999999966,"midi":36,"time":110.709456,"velocity":0.3937007874015748},{"duration":0.7741919999999993,"midi":40,"time":111.096552,"velocity":0.3937007874015748},{"duration":0.38709599999999966,"midi":39,"time":111.096552,"velocity":0.3937007874015748},{"duration":0.38709599999999966,"midi":36,"time":111.2901,"velocity":0.3937007874015748},{"duration":0.38709599999999966,"midi":39,"time":111.483648,"velocity":0.3937007874015748},{"duration":0.19354800000000694,"midi":36,"time":111.677196,"velocity":0.3937007874015748},{"duration":7.741919999999993,"midi":39,"time":111.870744,"velocity":0.3937007874015748},{"duration":0.7741919999999993,"midi":40,"time":111.870744,"velocity":0.3937007874015748},{"duration":0.38709599999999966,"midi":36,"time":112.25784,"velocity":0.3937007874015748},{"duration":0.7741919999999993,"midi":40,"time":112.644936,"velocity":0.3937007874015748},{"duration":0.38709599999999966,"midi":36,"time":112.838484,"velocity":0.3937007874015748},{"duration":0.19354800000000694,"midi":36,"time":113.22558,"velocity":0.3937007874015748},{"duration":0.7741919999999993,"midi":40,"time":113.419128,"velocity":0.3937007874015748},{"duration":0.38709599999999966,"midi":36,"time":113.806224,"velocity":0.3937007874015748},{"duration":0.7741919999999993,"midi":40,"time":114.19332,"velocity":0.3937007874015748},{"duration":0.38709599999999966,"midi":36,"time":114.38686799999999,"velocity":0.3937007874015748},{"duration":0.19354800000000694,"midi":36,"time":114.77396399999999,"velocity":0.3937007874015748},{"duration":0.7741919999999993,"midi":40,"time":114.967512,"velocity":0.3937007874015748},{"duration":0.38709599999999966,"midi":36,"time":115.354608,"velocity":0.3937007874015748},{"duration":0.7741919999999993,"midi":40,"time":115.741704,"velocity":0.3937007874015748},{"duration":0.38709599999999966,"midi":36,"time":115.935252,"velocity":0.3937007874015748},{"duration":0.19354799999999273,"midi":36,"time":116.322348,"velocity":0.3937007874015748},{"duration":0.7741919999999993,"midi":40,"time":116.515896,"velocity":0.3937007874015748},{"duration":0.38709599999999966,"midi":36,"time":116.902992,"velocity":0.3937007874015748},{"duration":0.7741919999999993,"midi":40,"time":117.290088,"velocity":0.3937007874015748},{"duration":0.38709599999999966,"midi":36,"time":117.677184,"velocity":0.3937007874015748},{"duration":0.7741919999999993,"midi":40,"time":118.06428,"velocity":0.3937007874015748},{"duration":0.38709599999999966,"midi":36,"time":118.257828,"velocity":0.3937007874015748},{"duration":0.19354799999999273,"midi":36,"time":118.644924,"velocity":0.3937007874015748},{"duration":0.7741919999999993,"midi":40,"time":118.838472,"velocity":0.3937007874015748},{"duration":0.38709599999999966,"midi":36,"time":119.225568,"velocity":0.3937007874015748},{"duration":0.38709599999999966,"midi":39,"time":119.612664,"velocity":0.3937007874015748},{"duration":0.7741919999999993,"midi":40,"time":119.612664,"velocity":0.3937007874015748},{"duration":0.38709599999999966,"midi":36,"time":119.806212,"velocity":0.3937007874015748},{"duration":0.38709599999999966,"midi":39,"time":119.99976,"velocity":0.3937007874015748},{"duration":0.19354799999999273,"midi":36,"time":120.193308,"velocity":0.3937007874015748},{"duration":0.7741919999999993,"midi":40,"time":120.386856,"velocity":0.3937007874015748},{"duration":7.741919999999993,"midi":39,"time":120.386856,"velocity":0.3937007874015748},{"duration":0.38709599999999966,"midi":36,"time":120.773952,"velocity":0.3937007874015748},{"duration":0.7741919999999993,"midi":40,"time":121.161048,"velocity":0.3937007874015748},{"duration":0.38709599999999966,"midi":36,"time":121.354596,"velocity":0.3937007874015748},{"duration":0.19354799999999273,"midi":36,"time":121.741692,"velocity":0.3937007874015748},{"duration":0.7741919999999993,"midi":40,"time":121.93524,"velocity":0.3937007874015748},{"duration":0.38709599999999966,"midi":36,"time":122.32233599999999,"velocity":0.3937007874015748},{"duration":0.7741919999999993,"midi":40,"time":122.70943199999999,"velocity":0.3937007874015748},{"duration":0.38709599999999966,"midi":36,"time":122.90298,"velocity":0.3937007874015748},{"duration":0.19354799999999273,"midi":36,"time":123.290076,"velocity":0.3937007874015748},{"duration":0.7741920000000135,"midi":40,"time":123.48362399999999,"velocity":0.3937007874015748},{"duration":0.38709599999999966,"midi":36,"time":123.87072,"velocity":0.3937007874015748},{"duration":0.7741919999999993,"midi":40,"time":124.257816,"velocity":0.3937007874015748},{"duration":0.38709599999999966,"midi":36,"time":124.451364,"velocity":0.3937007874015748},{"duration":0.19354800000000694,"midi":36,"time":124.83846,"velocity":0.3937007874015748},{"duration":0.7741919999999993,"midi":40,"time":125.032008,"velocity":0.3937007874015748},{"duration":0.38709599999999966,"midi":36,"time":125.419104,"velocity":0.3937007874015748},{"duration":0.7741919999999993,"midi":40,"time":125.8062,"velocity":0.3937007874015748},{"duration":0.38709599999999966,"midi":36,"time":126.193296,"velocity":0.3937007874015748},{"duration":0.7741919999999993,"midi":40,"time":126.580392,"velocity":0.3937007874015748},{"duration":0.38709599999999966,"midi":36,"time":126.77394,"velocity":0.3937007874015748},{"duration":0.19354800000000694,"midi":36,"time":127.161036,"velocity":0.3937007874015748},{"duration":0.7741919999999851,"midi":40,"time":127.354584,"velocity":0.3937007874015748},{"duration":0.38709599999998545,"midi":36,"time":127.74168,"velocity":0.3937007874015748},{"duration":0.7741919999999993,"midi":40,"time":128.128776,"velocity":0.3937007874015748},{"duration":0.3870960000000139,"midi":39,"time":128.128776,"velocity":0.3937007874015748},{"duration":0.38709599999998545,"midi":36,"time":128.322324,"velocity":0.3937007874015748},{"duration":0.38709599999998545,"midi":39,"time":128.515872,"velocity":0.3937007874015748},{"duration":0.19354799999999273,"midi":36,"time":128.70942,"velocity":0.3937007874015748},{"duration":7.741920000000022,"midi":39,"time":128.902968,"velocity":0.3937007874015748},{"duration":0.7741919999999993,"midi":40,"time":128.902968,"velocity":0.3937007874015748},{"duration":0.38709599999998545,"midi":36,"time":129.290064,"velocity":0.3937007874015748},{"duration":0.7741919999999993,"midi":40,"time":129.67716,"velocity":0.3937007874015748},{"duration":0.38709599999998545,"midi":36,"time":129.870708,"velocity":0.3937007874015748},{"duration":0.19354799999999273,"midi":36,"time":130.257804,"velocity":0.3937007874015748},{"duration":0.7741919999999993,"midi":40,"time":130.45135199999999,"velocity":0.3937007874015748},{"duration":0.38709599999998545,"midi":36,"time":130.838448,"velocity":0.3937007874015748},{"duration":0.7741919999999993,"midi":40,"time":131.22554399999999,"velocity":0.3937007874015748},{"duration":0.38709599999998545,"midi":36,"time":131.419092,"velocity":0.3937007874015748},{"duration":0.19354799999999273,"midi":36,"time":131.806188,"velocity":0.3937007874015748},{"duration":0.7741920000000277,"midi":40,"time":131.99973599999998,"velocity":0.3937007874015748},{"duration":0.3870960000000139,"midi":36,"time":132.386832,"velocity":0.3937007874015748},{"duration":0.7741919999999993,"midi":40,"time":132.773928,"velocity":0.3937007874015748},{"duration":0.38709599999998545,"midi":36,"time":132.967476,"velocity":0.3937007874015748},{"duration":0.19354800000002115,"midi":36,"time":133.354572,"velocity":0.3937007874015748},{"duration":0.7741919999999993,"midi":40,"time":133.54812,"velocity":0.3937007874015748},{"duration":0.3870960000000139,"midi":36,"time":133.935216,"velocity":0.3937007874015748},{"duration":0.7741919999999993,"midi":40,"time":134.322312,"velocity":0.3937007874015748},{"duration":0.3870960000000139,"midi":36,"time":134.709408,"velocity":0.3937007874015748},{"duration":0.7741919999999993,"midi":40,"time":135.096504,"velocity":0.3937007874015748},{"duration":0.38709599999998545,"midi":36,"time":135.290052,"velocity":0.3937007874015748},{"duration":0.19354800000002115,"midi":36,"time":135.677148,"velocity":0.3937007874015748},{"duration":0.7741919999999993,"midi":40,"time":135.870696,"velocity":0.3937007874015748},{"duration":0.3870960000000139,"midi":36,"time":136.257792,"velocity":0.3937007874015748},{"duration":0.7741919999999993,"midi":40,"time":136.644888,"velocity":0.3937007874015748},{"duration":0.38709599999998545,"midi":39,"time":136.644888,"velocity":0.3937007874015748},{"duration":0.38709599999998545,"midi":36,"time":136.838436,"velocity":0.3937007874015748},{"duration":0.3870960000000139,"midi":39,"time":137.031984,"velocity":0.3937007874015748},{"duration":0.19354800000002115,"midi":36,"time":137.225532,"velocity":0.3937007874015748},{"duration":7.741919999999993,"midi":39,"time":137.41908,"velocity":0.3937007874015748},{"duration":0.7741919999999993,"midi":40,"time":137.41908,"velocity":0.3937007874015748},{"duration":0.3870960000000139,"midi":36,"time":137.806176,"velocity":0.3937007874015748},{"duration":0.7741919999999993,"midi":40,"time":138.193272,"velocity":0.3937007874015748},{"duration":0.38709599999998545,"midi":36,"time":138.38682,"velocity":0.3937007874015748},{"duration":0.19354800000002115,"midi":36,"time":138.77391599999999,"velocity":0.3937007874015748},{"duration":0.7741919999999993,"midi":40,"time":138.967464,"velocity":0.3937007874015748},{"duration":0.3870960000000139,"midi":36,"time":139.35456,"velocity":0.3937007874015748},{"duration":0.7741919999999993,"midi":40,"time":139.741656,"velocity":0.3937007874015748},{"duration":0.38709599999998545,"midi":36,"time":139.935204,"velocity":0.3937007874015748},{"duration":0.19354800000002115,"midi":36,"time":140.32229999999998,"velocity":0.3937007874015748},{"duration":0.7741919999999993,"midi":40,"time":140.515848,"velocity":0.3937007874015748},{"duration":0.3870960000000139,"midi":36,"time":140.902944,"velocity":0.3937007874015748},{"duration":0.7741919999999993,"midi":40,"time":141.29004,"velocity":0.3937007874015748},{"duration":0.3870960000000139,"midi":36,"time":141.483588,"velocity":0.3937007874015748},{"duration":0.19354799999999273,"midi":36,"time":141.870684,"velocity":0.3937007874015748},{"duration":0.7741919999999993,"midi":40,"time":142.064232,"velocity":0.3937007874015748},{"duration":0.3870960000000139,"midi":36,"time":142.451328,"velocity":0.3937007874015748},{"duration":0.7741919999999993,"midi":40,"time":142.838424,"velocity":0.3937007874015748},{"duration":0.3870960000000139,"midi":36,"time":143.22552,"velocity":0.3937007874015748},{"duration":0.7741919999999993,"midi":40,"time":143.612616,"velocity":0.3937007874015748},{"duration":0.3870960000000139,"midi":36,"time":143.806164,"velocity":0.3937007874015748},{"duration":0.19354799999999273,"midi":36,"time":144.19326,"velocity":0.3937007874015748},{"duration":0.7741919999999993,"midi":40,"time":144.386808,"velocity":0.3937007874015748},{"duration":0.3870960000000139,"midi":36,"time":144.773904,"velocity":0.3937007874015748},{"duration":0.38709599999998545,"midi":39,"time":145.161,"velocity":0.3937007874015748},{"duration":0.7741919999999993,"midi":40,"time":145.161,"velocity":0.3937007874015748},{"duration":0.3870960000000139,"midi":36,"time":145.354548,"velocity":0.3937007874015748},{"duration":0.3870960000000139,"midi":39,"time":145.548096,"velocity":0.3937007874015748},{"duration":0.19354799999999273,"midi":36,"time":145.741644,"velocity":0.3937007874015748},{"duration":7.741919999999993,"midi":39,"time":145.935192,"velocity":0.3937007874015748},{"duration":0.7741919999999993,"midi":40,"time":145.935192,"velocity":0.3937007874015748},{"duration":0.3870960000000139,"midi":36,"time":146.322288,"velocity":0.3937007874015748},{"duration":0.7741919999999993,"midi":40,"time":146.709384,"velocity":0.3937007874015748},{"duration":0.3870960000000139,"midi":36,"time":146.902932,"velocity":0.3937007874015748},{"duration":0.19354799999999273,"midi":36,"time":147.290028,"velocity":0.3937007874015748},{"duration":0.7741919999999993,"midi":40,"time":147.483576,"velocity":0.3937007874015748},{"duration":0.3870960000000139,"midi":36,"time":147.87067199999998,"velocity":0.3937007874015748},{"duration":0.7741919999999993,"midi":40,"time":148.257768,"velocity":0.3937007874015748},{"duration":0.3870960000000139,"midi":36,"time":148.451316,"velocity":0.3937007874015748},{"duration":0.19354799999999273,"midi":36,"time":148.838412,"velocity":0.3937007874015748},{"duration":0.7741919999999993,"midi":40,"time":149.03196,"velocity":0.3937007874015748},{"duration":0.38709599999998545,"midi":36,"time":149.419056,"velocity":0.3937007874015748},{"duration":0.7741919999999993,"midi":40,"time":149.806152,"velocity":0.3937007874015748},{"duration":0.3870960000000139,"midi":36,"time":149.9997,"velocity":0.3937007874015748},{"duration":0.19354799999999273,"midi":36,"time":150.386796,"velocity":0.3937007874015748},{"duration":0.7741919999999993,"midi":40,"time":150.580344,"velocity":0.3937007874015748},{"duration":0.38709599999998545,"midi":36,"time":150.96744,"velocity":0.3937007874015748},{"duration":0.7741919999999993,"midi":40,"time":151.354536,"velocity":0.3937007874015748},{"duration":0.38709599999998545,"midi":36,"time":151.741632,"velocity":0.3937007874015748},{"duration":0.7741919999999993,"midi":40,"time":152.128728,"velocity":0.3937007874015748},{"duration":0.3870960000000139,"midi":36,"time":152.322276,"velocity":0.3937007874015748},{"duration":0.19354799999999273,"midi":36,"time":152.709372,"velocity":0.3937007874015748},{"duration":0.7741919999999993,"midi":40,"time":152.90292,"velocity":0.3937007874015748},{"duration":0.38709599999998545,"midi":36,"time":153.290016,"velocity":0.3937007874015748},{"duration":0.3870960000000139,"midi":39,"time":153.677112,"velocity":0.3937007874015748},{"duration":0.7741919999999993,"midi":40,"time":153.677112,"velocity":0.3937007874015748},{"duration":0.3870960000000139,"midi":36,"time":153.87066,"velocity":0.3937007874015748},{"duration":0.38709599999998545,"midi":39,"time":154.064208,"velocity":0.3937007874015748},{"duration":0.19354799999999273,"midi":36,"time":154.257756,"velocity":0.3937007874015748},{"duration":0.7741919999999993,"midi":40,"time":154.451304,"velocity":0.3937007874015748},{"duration":7.741919999999993,"midi":39,"time":154.451304,"velocity":0.3937007874015748},{"duration":0.38709599999998545,"midi":36,"time":154.8384,"velocity":0.3937007874015748},{"duration":0.7741919999999993,"midi":40,"time":155.225496,"velocity":0.3937007874015748},{"duration":0.3870960000000139,"midi":36,"time":155.41904399999999,"velocity":0.3937007874015748},{"duration":0.19354799999999273,"midi":36,"time":155.80614,"velocity":0.3937007874015748},{"duration":0.7741919999999993,"midi":40,"time":155.999688,"velocity":0.3937007874015748},{"duration":0.38709599999998545,"midi":36,"time":156.386784,"velocity":0.3937007874015748},{"duration":0.7741919999999993,"midi":40,"time":156.77388,"velocity":0.3937007874015748},{"duration":0.38709599999998545,"midi":36,"time":156.967428,"velocity":0.3937007874015748},{"duration":0.19354799999999273,"midi":36,"time":157.354524,"velocity":0.3937007874015748},{"duration":0.7741919999999993,"midi":40,"time":157.548072,"velocity":0.3937007874015748},{"duration":0.38709599999998545,"midi":36,"time":157.935168,"velocity":0.3937007874015748},{"duration":0.7741919999999993,"midi":40,"time":158.322264,"velocity":0.3937007874015748},{"duration":0.38709599999998545,"midi":36,"time":158.515812,"velocity":0.3937007874015748},{"duration":0.19354799999999273,"midi":36,"time":158.902908,"velocity":0.3937007874015748},{"duration":0.7741919999999993,"midi":40,"time":159.096456,"velocity":0.3937007874015748},{"duration":0.38709599999998545,"midi":36,"time":159.483552,"velocity":0.3937007874015748},{"duration":0.7741919999999993,"midi":40,"time":159.870648,"velocity":0.3937007874015748},{"duration":0.38709599999998545,"midi":36,"time":160.257744,"velocity":0.3937007874015748},{"duration":0.7741919999999993,"midi":40,"time":160.64484,"velocity":0.3937007874015748},{"duration":0.38709599999998545,"midi":36,"time":160.838388,"velocity":0.3937007874015748},{"duration":0.19354799999999273,"midi":36,"time":161.225484,"velocity":0.3937007874015748},{"duration":0.7741919999999993,"midi":40,"time":161.419032,"velocity":0.3937007874015748},{"duration":0.38709599999998545,"midi":36,"time":161.806128,"velocity":0.3937007874015748},{"duration":0.7741919999999993,"midi":40,"time":162.193224,"velocity":0.3937007874015748},{"duration":0.3870960000000139,"midi":39,"time":162.193224,"velocity":0.3937007874015748},{"duration":0.38709599999998545,"midi":36,"time":162.386772,"velocity":0.3937007874015748},{"duration":0.38709599999998545,"midi":39,"time":162.58032,"velocity":0.3937007874015748},{"duration":0.19354799999999273,"midi":36,"time":162.773868,"velocity":0.3937007874015748},{"duration":7.741920000000022,"midi":39,"time":162.967416,"velocity":0.3937007874015748},{"duration":0.7741919999999993,"midi":40,"time":162.967416,"velocity":0.3937007874015748},{"duration":0.38709599999998545,"midi":36,"time":163.354512,"velocity":0.3937007874015748},{"duration":0.7741919999999993,"midi":40,"time":163.74160799999999,"velocity":0.3937007874015748},{"duration":0.38709599999998545,"midi":36,"time":163.935156,"velocity":0.3937007874015748},{"duration":0.19354799999999273,"midi":36,"time":164.322252,"velocity":0.3937007874015748},{"duration":0.7741920000000277,"midi":40,"time":164.51579999999998,"velocity":0.3937007874015748},{"duration":0.3870960000000139,"midi":36,"time":164.902896,"velocity":0.3937007874015748},{"duration":0.7741919999999993,"midi":40,"time":165.289992,"velocity":0.3937007874015748},{"duration":0.38709599999998545,"midi":36,"time":165.48354,"velocity":0.3937007874015748},{"duration":0.19354800000002115,"midi":36,"time":165.870636,"velocity":0.3937007874015748},{"duration":0.7741919999999993,"midi":40,"time":166.064184,"velocity":0.3937007874015748},{"duration":0.3870960000000139,"midi":36,"time":166.45128,"velocity":0.3937007874015748},{"duration":0.7741919999999993,"midi":40,"time":166.838376,"velocity":0.3937007874015748},{"duration":0.38709599999998545,"midi":36,"time":167.031924,"velocity":0.3937007874015748},{"duration":0.19354800000002115,"midi":36,"time":167.41902,"velocity":0.3937007874015748},{"duration":0.7741919999999993,"midi":40,"time":167.612568,"velocity":0.3937007874015748},{"duration":0.3870960000000139,"midi":36,"time":167.999664,"velocity":0.3937007874015748},{"duration":0.7741919999999993,"midi":40,"time":168.38676,"velocity":0.3937007874015748},{"duration":0.3870960000000139,"midi":36,"time":168.773856,"velocity":0.3937007874015748},{"duration":0.7741919999999993,"midi":40,"time":169.160952,"velocity":0.3937007874015748},{"duration":0.38709599999998545,"midi":36,"time":169.3545,"velocity":0.3937007874015748},{"duration":0.19354800000002115,"midi":36,"time":169.741596,"velocity":0.3937007874015748},{"duration":0.7741919999999993,"midi":40,"time":169.935144,"velocity":0.3937007874015748},{"duration":0.3870960000000139,"midi":36,"time":170.32224,"velocity":0.3937007874015748},{"duration":0.38709599999998545,"midi":39,"time":170.709336,"velocity":0.3937007874015748},{"duration":0.7741919999999993,"midi":40,"time":170.709336,"velocity":0.3937007874015748},{"duration":0.38709599999998545,"midi":36,"time":170.902884,"velocity":0.3937007874015748},{"duration":0.3870960000000139,"midi":39,"time":171.096432,"velocity":0.3937007874015748},{"duration":0.19354800000002115,"midi":36,"time":171.28997999999999,"velocity":0.3937007874015748},{"duration":7.741919999999993,"midi":39,"time":171.483528,"velocity":0.3937007874015748},{"duration":0.7741919999999993,"midi":40,"time":171.483528,"velocity":0.3937007874015748},{"duration":0.3870960000000139,"midi":36,"time":171.870624,"velocity":0.3937007874015748},{"duration":0.7741919999999993,"midi":40,"time":172.25772,"velocity":0.3937007874015748},{"duration":0.38709599999998545,"midi":36,"time":172.451268,"velocity":0.3937007874015748},{"duration":0.19354800000002115,"midi":36,"time":172.83836399999998,"velocity":0.3937007874015748},{"duration":0.7741919999999993,"midi":40,"time":173.031912,"velocity":0.3937007874015748},{"duration":0.3870960000000139,"midi":36,"time":173.419008,"velocity":0.3937007874015748},{"duration":0.7741919999999993,"midi":40,"time":173.806104,"velocity":0.3937007874015748},{"duration":0.3870960000000139,"midi":36,"time":173.999652,"velocity":0.3937007874015748},{"duration":0.19354799999999273,"midi":36,"time":174.386748,"velocity":0.3937007874015748},{"duration":0.7741919999999993,"midi":40,"time":174.580296,"velocity":0.3937007874015748},{"duration":0.3870960000000139,"midi":36,"time":174.967392,"velocity":0.3937007874015748},{"duration":0.7741919999999993,"midi":40,"time":175.354488,"velocity":0.3937007874015748},{"duration":0.3870960000000139,"midi":36,"time":175.548036,"velocity":0.3937007874015748},{"duration":0.19354799999999273,"midi":36,"time":175.935132,"velocity":0.3937007874015748},{"duration":0.7741919999999993,"midi":40,"time":176.12868,"velocity":0.3937007874015748},{"duration":0.3870960000000139,"midi":36,"time":176.515776,"velocity":0.3937007874015748},{"duration":0.7741919999999993,"midi":40,"time":176.902872,"velocity":0.3937007874015748},{"duration":0.3870960000000139,"midi":36,"time":177.289968,"velocity":0.3937007874015748},{"duration":0.7741919999999993,"midi":40,"time":177.677064,"velocity":0.3937007874015748},{"duration":0.3870960000000139,"midi":36,"time":177.870612,"velocity":0.3937007874015748},{"duration":0.19354799999999273,"midi":36,"time":178.257708,"velocity":0.3937007874015748},{"duration":0.7741919999999993,"midi":40,"time":178.451256,"velocity":0.3937007874015748},{"duration":0.3870960000000139,"midi":36,"time":178.838352,"velocity":0.3937007874015748},{"duration":0.38709599999998545,"midi":39,"time":179.225448,"velocity":0.3937007874015748},{"duration":0.7741919999999993,"midi":40,"time":179.225448,"velocity":0.3937007874015748},{"duration":0.3870960000000139,"midi":36,"time":179.418996,"velocity":0.3937007874015748},{"duration":0.3870960000000139,"midi":39,"time":179.61254399999999,"velocity":0.3937007874015748},{"duration":0.19354799999999273,"midi":36,"time":179.806092,"velocity":0.3937007874015748},{"duration":0.7741919999999993,"midi":40,"time":179.99964,"velocity":0.3937007874015748},{"duration":7.741919999999993,"midi":39,"time":179.99964,"velocity":0.3937007874015748},{"duration":0.3870960000000139,"midi":36,"time":180.38673599999998,"velocity":0.3937007874015748},{"duration":0.7741919999999993,"midi":40,"time":180.773832,"velocity":0.3937007874015748},{"duration":0.3870960000000139,"midi":36,"time":180.96738,"velocity":0.3937007874015748},{"duration":0.19354799999999273,"midi":36,"time":181.354476,"velocity":0.3937007874015748},{"duration":0.7741919999999993,"midi":40,"time":181.548024,"velocity":0.3937007874015748},{"duration":0.38709599999998545,"midi":36,"time":181.93512,"velocity":0.3937007874015748},{"duration":0.7741919999999993,"midi":40,"time":182.322216,"velocity":0.3937007874015748},{"duration":0.3870960000000139,"midi":36,"time":182.515764,"velocity":0.3937007874015748},{"duration":0.19354799999999273,"midi":36,"time":182.90286,"velocity":0.3937007874015748},{"duration":0.7741919999999993,"midi":40,"time":183.096408,"velocity":0.3937007874015748},{"duration":0.38709599999998545,"midi":36,"time":183.483504,"velocity":0.3937007874015748},{"duration":0.7741919999999993,"midi":40,"time":183.8706,"velocity":0.3937007874015748},{"duration":0.3870960000000139,"midi":36,"time":184.064148,"velocity":0.3937007874015748},{"duration":0.19354799999999273,"midi":36,"time":184.451244,"velocity":0.3937007874015748},{"duration":0.7741919999999993,"midi":40,"time":184.644792,"velocity":0.3937007874015748},{"duration":0.38709599999998545,"midi":36,"time":185.031888,"velocity":0.3937007874015748},{"duration":0.7741919999999993,"midi":40,"time":185.418984,"velocity":0.3937007874015748},{"duration":0.38709599999998545,"midi":36,"time":185.80608,"velocity":0.3937007874015748},{"duration":0.7741919999999993,"midi":40,"time":186.193176,"velocity":0.3937007874015748},{"duration":0.3870960000000139,"midi":36,"time":186.386724,"velocity":0.3937007874015748},{"duration":0.19354799999999273,"midi":36,"time":186.77382,"velocity":0.3937007874015748},{"duration":0.7741919999999993,"midi":40,"time":186.967368,"velocity":0.3937007874015748},{"duration":0.38709599999998545,"midi":36,"time":187.354464,"velocity":0.3937007874015748},{"duration":0.3870960000000139,"midi":39,"time":187.74156,"velocity":0.3937007874015748},{"duration":0.7741919999999993,"midi":40,"time":187.74156,"velocity":0.3937007874015748},{"duration":0.3870960000000139,"midi":36,"time":187.93510799999999,"velocity":0.3937007874015748},{"duration":0.38709599999998545,"midi":39,"time":188.128656,"velocity":0.3937007874015748},{"duration":0.19354799999999273,"midi":36,"time":188.322204,"velocity":0.3937007874015748},{"duration":7.741919999999993,"midi":39,"time":188.515752,"velocity":0.3937007874015748},{"duration":0.7741919999999993,"midi":40,"time":188.515752,"velocity":0.3937007874015748},{"duration":0.38709599999998545,"midi":36,"time":188.902848,"velocity":0.3937007874015748},{"duration":0.7741919999999993,"midi":40,"time":189.289944,"velocity":0.3937007874015748},{"duration":0.3870960000000139,"midi":36,"time":189.48349199999998,"velocity":0.3937007874015748},{"duration":0.19354799999999273,"midi":36,"time":189.870588,"velocity":0.3937007874015748},{"duration":0.7741919999999993,"midi":40,"time":190.064136,"velocity":0.3937007874015748},{"duration":0.38709599999998545,"midi":36,"time":190.451232,"velocity":0.3937007874015748},{"duration":0.7741919999999993,"midi":40,"time":190.838328,"velocity":0.3937007874015748},{"duration":0.38709599999998545,"midi":36,"time":191.031876,"velocity":0.3937007874015748},{"duration":0.19354799999999273,"midi":36,"time":191.418972,"velocity":0.3937007874015748},{"duration":0.7741919999999993,"midi":40,"time":191.61252,"velocity":0.3937007874015748},{"duration":0.38709599999998545,"midi":36,"time":191.999616,"velocity":0.3937007874015748},{"duration":0.7741919999999993,"midi":40,"time":192.386712,"velocity":0.3937007874015748},{"duration":0.38709599999998545,"midi":36,"time":192.58026,"velocity":0.3937007874015748},{"duration":0.19354799999999273,"midi":36,"time":192.967356,"velocity":0.3937007874015748},{"duration":0.7741919999999993,"midi":40,"time":193.160904,"velocity":0.3937007874015748},{"duration":0.38709599999998545,"midi":36,"time":193.548,"velocity":0.3937007874015748},{"duration":0.7741919999999993,"midi":40,"time":193.935096,"velocity":0.3937007874015748},{"duration":0.38709599999998545,"midi":36,"time":194.322192,"velocity":0.3937007874015748},{"duration":0.7741919999999993,"midi":40,"time":194.709288,"velocity":0.3937007874015748},{"duration":0.38709599999998545,"midi":36,"time":194.902836,"velocity":0.3937007874015748},{"duration":0.19354799999999273,"midi":36,"time":195.289932,"velocity":0.3937007874015748},{"duration":0.7741919999999993,"midi":40,"time":195.48348,"velocity":0.3937007874015748},{"duration":0.38709599999998545,"midi":36,"time":195.870576,"velocity":0.3937007874015748},{"duration":0.3870960000000139,"midi":39,"time":196.25767199999999,"velocity":0.3937007874015748},{"duration":0.7741919999999993,"midi":40,"time":196.25767199999999,"velocity":0.3937007874015748},{"duration":0.38709599999998545,"midi":36,"time":196.45122,"velocity":0.3937007874015748},{"duration":0.38709599999998545,"midi":39,"time":196.644768,"velocity":0.3937007874015748},{"duration":0.19354799999999273,"midi":36,"time":196.838316,"velocity":0.3937007874015748},{"duration":7.741920000000022,"midi":39,"time":197.03186399999998,"velocity":0.3937007874015748},{"duration":0.7741919999999993,"midi":40,"time":197.03186399999998,"velocity":0.3937007874015748},{"duration":0.38709599999998545,"midi":36,"time":197.41896,"velocity":0.3937007874015748},{"duration":0.7741920000000277,"midi":40,"time":197.80605599999998,"velocity":0.3937007874015748},{"duration":0.38709599999998545,"midi":36,"time":197.999604,"velocity":0.3937007874015748},{"duration":0.19354800000002115,"midi":36,"time":198.3867,"velocity":0.3937007874015748},{"duration":0.7741919999999993,"midi":40,"time":198.580248,"velocity":0.3937007874015748},{"duration":0.3870960000000139,"midi":36,"time":198.967344,"velocity":0.3937007874015748},{"duration":0.7741919999999993,"midi":40,"time":199.35444,"velocity":0.3937007874015748},{"duration":0.38709599999998545,"midi":36,"time":199.547988,"velocity":0.3937007874015748},{"duration":0.19354800000002115,"midi":36,"time":199.935084,"velocity":0.3937007874015748},{"duration":0.7741919999999993,"midi":40,"time":200.128632,"velocity":0.3937007874015748},{"duration":0.3870960000000139,"midi":36,"time":200.515728,"velocity":0.3937007874015748},{"duration":0.7741919999999993,"midi":40,"time":200.902824,"velocity":0.3937007874015748},{"duration":0.38709599999998545,"midi":36,"time":201.096372,"velocity":0.3937007874015748},{"duration":0.19354800000002115,"midi":36,"time":201.483468,"velocity":0.3937007874015748},{"duration":0.7741919999999993,"midi":40,"time":201.677016,"velocity":0.3937007874015748},{"duration":0.3870960000000139,"midi":36,"time":202.064112,"velocity":0.3937007874015748},{"duration":0.7741919999999993,"midi":40,"time":202.451208,"velocity":0.3937007874015748},{"duration":0.3870960000000139,"midi":36,"time":202.838304,"velocity":0.3937007874015748},{"duration":0.7741919999999993,"midi":40,"time":203.2254,"velocity":0.3937007874015748},{"duration":0.38709599999998545,"midi":36,"time":203.418948,"velocity":0.3937007874015748},{"duration":0.19354800000002115,"midi":36,"time":203.80604399999999,"velocity":0.3937007874015748},{"duration":0.7741919999999993,"midi":40,"time":203.999592,"velocity":0.3937007874015748},{"duration":0.3870960000000139,"midi":36,"time":204.386688,"velocity":0.3937007874015748},{"duration":0.7741919999999993,"midi":40,"time":204.773784,"velocity":0.3937007874015748},{"duration":0.38709599999998545,"midi":39,"time":204.773784,"velocity":0.3937007874015748},{"duration":0.38709599999998545,"midi":36,"time":204.967332,"velocity":0.3937007874015748},{"duration":0.3870960000000139,"midi":39,"time":205.16088,"velocity":0.3937007874015748},{"duration":0.19354800000002115,"midi":36,"time":205.35442799999998,"velocity":0.3937007874015748},{"duration":7.741919999999993,"midi":39,"time":205.547976,"velocity":0.3937007874015748},{"duration":0.7741919999999993,"midi":40,"time":205.547976,"velocity":0.3937007874015748},{"duration":0.3870960000000139,"midi":36,"time":205.935072,"velocity":0.3937007874015748},{"duration":0.7741919999999993,"midi":40,"time":206.322168,"velocity":0.3937007874015748},{"duration":0.3870960000000139,"midi":36,"time":206.515716,"velocity":0.3937007874015748},{"duration":0.19354799999999273,"midi":36,"time":206.902812,"velocity":0.3937007874015748},{"duration":0.7741919999999993,"midi":40,"time":207.09636,"velocity":0.3937007874015748},{"duration":0.3870960000000139,"midi":36,"time":207.483456,"velocity":0.3937007874015748},{"duration":0.7741919999999993,"midi":40,"time":207.870552,"velocity":0.3937007874015748},{"duration":0.3870960000000139,"midi":36,"time":208.0641,"velocity":0.3937007874015748},{"duration":0.19354799999999273,"midi":36,"time":208.451196,"velocity":0.3937007874015748},{"duration":0.7741919999999993,"midi":40,"time":208.644744,"velocity":0.3937007874015748},{"duration":0.3870960000000139,"midi":36,"time":209.03184,"velocity":0.3937007874015748},{"duration":0.7741919999999993,"midi":40,"time":209.418936,"velocity":0.3937007874015748},{"duration":0.3870960000000139,"midi":36,"time":209.612484,"velocity":0.3937007874015748},{"duration":0.19354799999999273,"midi":36,"time":209.99958,"velocity":0.3937007874015748},{"duration":0.7741919999999993,"midi":40,"time":210.193128,"velocity":0.3937007874015748},{"duration":0.3870960000000139,"midi":36,"time":210.580224,"velocity":0.3937007874015748},{"duration":0.7741919999999993,"midi":40,"time":210.96732,"velocity":0.3937007874015748},{"duration":0.3870960000000139,"midi":36,"time":211.354416,"velocity":0.3937007874015748},{"duration":0.7741919999999993,"midi":40,"time":211.741512,"velocity":0.3937007874015748},{"duration":0.3870960000000139,"midi":36,"time":211.93506,"velocity":0.3937007874015748},{"duration":0.19354799999999273,"midi":36,"time":212.322156,"velocity":0.3937007874015748},{"duration":0.7741919999999993,"midi":40,"time":212.515704,"velocity":0.3937007874015748},{"duration":0.3870960000000139,"midi":36,"time":212.90279999999998,"velocity":0.3937007874015748},{"duration":0.38709599999998545,"midi":39,"time":213.289896,"velocity":0.3937007874015748},{"duration":0.7741919999999993,"midi":40,"time":213.289896,"velocity":0.3937007874015748},{"duration":0.3870960000000139,"midi":36,"time":213.483444,"velocity":0.3937007874015748},{"duration":0.3870960000000139,"midi":39,"time":213.67699199999998,"velocity":0.3937007874015748},{"duration":0.19354799999999273,"midi":36,"time":213.87054,"velocity":0.3937007874015748},{"duration":7.741919999999993,"midi":39,"time":214.064088,"velocity":0.3937007874015748},{"duration":0.7741919999999993,"midi":40,"time":214.064088,"velocity":0.3937007874015748},{"duration":0.3870960000000139,"midi":36,"time":214.45118399999998,"velocity":0.3937007874015748},{"duration":0.7741919999999993,"midi":40,"time":214.83828,"velocity":0.3937007874015748},{"duration":0.3870960000000139,"midi":36,"time":215.031828,"velocity":0.3937007874015748},{"duration":0.19354799999999273,"midi":36,"time":215.418924,"velocity":0.3937007874015748},{"duration":0.7741919999999993,"midi":40,"time":215.612472,"velocity":0.3937007874015748},{"duration":0.38709599999998545,"midi":36,"time":215.999568,"velocity":0.3937007874015748},{"duration":0.7741919999999993,"midi":40,"time":216.386664,"velocity":0.3937007874015748},{"duration":0.3870960000000139,"midi":36,"time":216.580212,"velocity":0.3937007874015748},{"duration":0.19354799999999273,"midi":36,"time":216.967308,"velocity":0.3937007874015748},{"duration":0.7741919999999993,"midi":40,"time":217.160856,"velocity":0.3937007874015748},{"duration":0.38709599999998545,"midi":36,"time":217.547952,"velocity":0.3937007874015748},{"duration":0.7741919999999993,"midi":40,"time":217.935048,"velocity":0.3937007874015748},{"duration":0.3870960000000139,"midi":36,"time":218.128596,"velocity":0.3937007874015748},{"duration":0.19354799999999273,"midi":36,"time":218.515692,"velocity":0.3937007874015748},{"duration":0.7741919999999993,"midi":40,"time":218.70924,"velocity":0.3937007874015748},{"duration":0.38709599999998545,"midi":36,"time":219.096336,"velocity":0.3937007874015748},{"duration":0.7741919999999993,"midi":40,"time":219.483432,"velocity":0.3937007874015748},{"duration":0.38709599999998545,"midi":36,"time":219.870528,"velocity":0.3937007874015748},{"duration":0.7741919999999993,"midi":40,"time":220.257624,"velocity":0.3937007874015748},{"duration":0.3870960000000139,"midi":36,"time":220.45117199999999,"velocity":0.3937007874015748},{"duration":0.19354799999999273,"midi":36,"time":220.838268,"velocity":0.3937007874015748},{"duration":0.7741919999999993,"midi":40,"time":221.031816,"velocity":0.3937007874015748},{"duration":0.38709599999998545,"midi":36,"time":221.418912,"velocity":0.3937007874015748},{"duration":0.3870960000000139,"midi":39,"time":221.806008,"velocity":0.3937007874015748},{"duration":0.7741919999999993,"midi":40,"time":221.806008,"velocity":0.3937007874015748},{"duration":0.3870960000000139,"midi":36,"time":221.99955599999998,"velocity":0.3937007874015748},{"duration":0.38709599999998545,"midi":39,"time":222.193104,"velocity":0.3937007874015748},{"duration":0.19354799999999273,"midi":36,"time":222.386652,"velocity":0.3937007874015748},{"duration":7.741919999999993,"midi":39,"time":222.5802,"velocity":0.3937007874015748},{"duration":7.741919999999993,"midi":39,"time":222.5802,"velocity":0.3937007874015748},{"duration":7.741919999999993,"midi":39,"time":222.5802,"velocity":0.3937007874015748},{"duration":7.741919999999993,"midi":39,"time":222.5802,"velocity":0.3937007874015748},{"duration":8.129016000000007,"midi":39,"time":222.5802,"velocity":0.3937007874015748},{"duration":0.7741919999999993,"midi":40,"time":222.5802,"velocity":0.3937007874015748},{"duration":8.129016000000007,"midi":39,"time":222.5802,"velocity":0.3937007874015748},{"duration":8.129016000000007,"midi":39,"time":222.5802,"velocity":0.3937007874015748},{"duration":8.129016000000007,"midi":39,"time":222.5802,"velocity":0.3937007874015748},{"duration":8.516111999999993,"midi":39,"time":222.5802,"velocity":0.3937007874015748},{"duration":8.516111999999993,"midi":39,"time":222.5802,"velocity":0.3937007874015748},{"duration":8.516111999999993,"midi":39,"time":222.5802,"velocity":0.3937007874015748},{"duration":8.516111999999993,"midi":39,"time":222.5802,"velocity":0.3937007874015748},{"duration":10.06449600000002,"midi":39,"time":222.5802,"velocity":0.3937007874015748},{"duration":0.38709599999998545,"midi":36,"time":222.967296,"velocity":0.3937007874015748},{"duration":0.7741919999999993,"midi":40,"time":223.354392,"velocity":0.3937007874015748},{"duration":0.38709599999998545,"midi":36,"time":223.54794,"velocity":0.3937007874015748},{"duration":0.19354799999999273,"midi":36,"time":223.935036,"velocity":0.3937007874015748},{"duration":0.7741919999999993,"midi":40,"time":224.128584,"velocity":0.3937007874015748},{"duration":0.38709599999998545,"midi":36,"time":224.51568,"velocity":0.3937007874015748},{"duration":0.7741919999999993,"midi":40,"time":224.902776,"velocity":0.3937007874015748},{"duration":0.38709599999998545,"midi":36,"time":225.096324,"velocity":0.3937007874015748},{"duration":0.19354799999999273,"midi":36,"time":225.48342,"velocity":0.3937007874015748},{"duration":0.7741919999999993,"midi":40,"time":225.676968,"velocity":0.3937007874015748},{"duration":0.38709599999998545,"midi":36,"time":226.064064,"velocity":0.3937007874015748},{"duration":0.7741919999999993,"midi":40,"time":226.45116,"velocity":0.3937007874015748},{"duration":0.38709599999998545,"midi":36,"time":226.644708,"velocity":0.3937007874015748},{"duration":0.19354799999999273,"midi":36,"time":227.031804,"velocity":0.3937007874015748},{"duration":0.7741919999999993,"midi":40,"time":227.225352,"velocity":0.3937007874015748},{"duration":0.38709599999998545,"midi":36,"time":227.612448,"velocity":0.3937007874015748},{"duration":0.7741919999999993,"midi":40,"time":227.999544,"velocity":0.3937007874015748},{"duration":0.38709599999998545,"midi":36,"time":228.38664,"velocity":0.3937007874015748},{"duration":0.7741919999999993,"midi":40,"time":228.77373599999999,"velocity":0.3937007874015748},{"duration":0.38709599999998545,"midi":36,"time":228.967284,"velocity":0.3937007874015748},{"duration":0.19354799999999273,"midi":36,"time":229.35438,"velocity":0.3937007874015748},{"duration":0.5806440000000066,"midi":36,"time":229.35438,"velocity":0.3937007874015748},{"duration":0.5806440000000066,"midi":36,"time":229.35438,"velocity":0.3937007874015748},{"duration":0.5806440000000066,"midi":36,"time":229.35438,"velocity":0.3937007874015748},{"duration":0.967739999999992,"midi":36,"time":229.35438,"velocity":0.3937007874015748},{"duration":1.1612880000000132,"midi":36,"time":229.35438,"velocity":0.3937007874015748},{"duration":1.1612880000000132,"midi":36,"time":229.35438,"velocity":0.3937007874015748},{"duration":1.1612880000000132,"midi":36,"time":229.35438,"velocity":0.3937007874015748},{"duration":1.5483839999999987,"midi":36,"time":229.35438,"velocity":0.3937007874015748},{"duration":1.5483839999999987,"midi":36,"time":229.35438,"velocity":0.3937007874015748},{"duration":1.5483839999999987,"midi":36,"time":229.35438,"velocity":0.3937007874015748},{"duration":1.5483839999999987,"midi":36,"time":229.35438,"velocity":0.3937007874015748},{"duration":1.7419319999999914,"midi":36,"time":229.35438,"velocity":0.3937007874015748},{"duration":0.7741919999999993,"midi":40,"time":229.54792799999998,"velocity":0.3937007874015748},{"duration":0.7741919999999993,"midi":40,"time":229.54792799999998,"velocity":0.3937007874015748},{"duration":0.7741919999999993,"midi":40,"time":229.54792799999998,"velocity":0.3937007874015748},{"duration":0.7741919999999993,"midi":40,"time":229.54792799999998,"velocity":0.3937007874015748},{"duration":1.5483839999999987,"midi":40,"time":229.54792799999998,"velocity":0.3937007874015748},{"duration":1.5483839999999987,"midi":40,"time":229.54792799999998,"velocity":0.3937007874015748},{"duration":1.5483839999999987,"midi":40,"time":229.54792799999998,"velocity":0.3937007874015748},{"duration":1.5483839999999987,"midi":40,"time":229.54792799999998,"velocity":0.3937007874015748},{"duration":3.0967680000000257,"midi":40,"time":229.54792799999998,"velocity":0.3937007874015748}]},{"instrument":{"family":"bass","number":32,"name":"acoustic bass"},"notes":[{"duration":0.19354799999999983,"midi":31,"time":35.612832,"velocity":0.3937007874015748},{"duration":0.19354799999999983,"midi":31,"time":36.193476,"velocity":0.3937007874015748},{"duration":0.19354799999999983,"midi":31,"time":36.580572,"velocity":0.3937007874015748},{"duration":0.19354799999999983,"midi":38,"time":36.774119999999996,"velocity":0.3937007874015748},{"duration":0.19354800000000694,"midi":36,"time":37.161215999999996,"velocity":0.3937007874015748},{"duration":0.19354799999999983,"midi":40,"time":37.74186,"velocity":0.3937007874015748},{"duration":0.19354799999999983,"midi":36,"time":38.128956,"velocity":0.3937007874015748},{"duration":0.19354799999999983,"midi":36,"time":38.322504,"velocity":0.3937007874015748},{"duration":0.19354799999999983,"midi":40,"time":38.7096,"velocity":0.3937007874015748},{"duration":0.19354799999999983,"midi":43,"time":39.290244,"velocity":0.3937007874015748},{"duration":0.19354799999999983,"midi":43,"time":39.67734,"velocity":0.3937007874015748},{"duration":0.19354799999999983,"midi":36,"time":39.870888,"velocity":0.3937007874015748},{"duration":0.19354799999999983,"midi":38,"time":40.257984,"velocity":0.3937007874015748},{"duration":0.19354799999999983,"midi":45,"time":40.64508,"velocity":0.3937007874015748},{"duration":0.19354799999999983,"midi":40,"time":41.032176,"velocity":0.3937007874015748},{"duration":0.19354799999999983,"midi":40,"time":41.61282,"velocity":0.3937007874015748},{"duration":0.19354799999999983,"midi":40,"time":41.999916,"velocity":0.3937007874015748},{"duration":0.19354799999999983,"midi":40,"time":42.193464,"velocity":0.3937007874015748},{"duration":0.19354799999999983,"midi":28,"time":42.58056,"velocity":0.3937007874015748},{"duration":0.19354799999999983,"midi":40,"time":43.161204,"velocity":0.3937007874015748},{"duration":0.19354799999999983,"midi":40,"time":43.5483,"velocity":0.3937007874015748},{"duration":0.19354799999999983,"midi":43,"time":43.741848,"velocity":0.3937007874015748},{"duration":0.19354799999999983,"midi":31,"time":44.128944,"velocity":0.3937007874015748},{"duration":0.19354799999999983,"midi":31,"time":44.709588,"velocity":0.3937007874015748},{"duration":0.19354799999999983,"midi":31,"time":45.096683999999996,"velocity":0.3937007874015748},{"duration":0.19354800000000694,"midi":38,"time":45.290231999999996,"velocity":0.3937007874015748},{"duration":0.19354799999999983,"midi":36,"time":45.677328,"velocity":0.3937007874015748},{"duration":0.19354799999999983,"midi":40,"time":46.257972,"velocity":0.3937007874015748},{"duration":0.19354799999999983,"midi":36,"time":46.645068,"velocity":0.3937007874015748},{"duration":0.19354799999999983,"midi":36,"time":46.838616,"velocity":0.3937007874015748},{"duration":0.19354799999999983,"midi":40,"time":47.225712,"velocity":0.3937007874015748},{"duration":0.19354799999999983,"midi":43,"time":47.806356,"velocity":0.3937007874015748},{"duration":0.19354799999999983,"midi":43,"time":48.193452,"velocity":0.3937007874015748},{"duration":0.19354799999999983,"midi":36,"time":48.387,"velocity":0.3937007874015748},{"duration":0.19354799999999983,"midi":38,"time":48.774096,"velocity":0.3937007874015748},{"duration":0.19354799999999983,"midi":45,"time":49.161192,"velocity":0.3937007874015748},{"duration":0.19354799999999983,"midi":40,"time":49.548288,"velocity":0.3937007874015748},{"duration":0.19354799999999983,"midi":40,"time":50.128932,"velocity":0.3937007874015748},{"duration":0.19354799999999983,"midi":40,"time":50.516028,"velocity":0.3937007874015748},{"duration":0.19354799999999983,"midi":40,"time":50.709576,"velocity":0.3937007874015748},{"duration":0.19354799999999983,"midi":28,"time":51.096672,"velocity":0.3937007874015748},{"duration":0.19354799999999983,"midi":40,"time":51.677316,"velocity":0.3937007874015748},{"duration":0.19354799999999983,"midi":40,"time":52.064412,"velocity":0.3937007874015748},{"duration":0.19354799999999983,"midi":43,"time":52.25796,"velocity":0.3937007874015748},{"duration":0.19354799999999983,"midi":31,"time":52.645056,"velocity":0.3937007874015748},{"duration":0.19354799999999983,"midi":31,"time":53.225699999999996,"velocity":0.3937007874015748},{"duration":0.19354800000000694,"midi":31,"time":53.612795999999996,"velocity":0.3937007874015748},{"duration":0.19354799999999983,"midi":38,"time":53.806344,"velocity":0.3937007874015748},{"duration":0.19354799999999983,"midi":36,"time":54.19344,"velocity":0.3937007874015748},{"duration":0.19354799999999983,"midi":40,"time":54.774084,"velocity":0.3937007874015748},{"duration":0.19354799999999983,"midi":36,"time":55.16118,"velocity":0.3937007874015748},{"duration":0.19354799999999983,"midi":36,"time":55.354728,"velocity":0.3937007874015748},{"duration":0.19354799999999983,"midi":40,"time":55.741824,"velocity":0.3937007874015748},{"duration":0.19354799999999983,"midi":43,"time":56.322468,"velocity":0.3937007874015748},{"duration":0.19354799999999983,"midi":43,"time":56.709564,"velocity":0.3937007874015748},{"duration":0.19354799999999983,"midi":36,"time":56.903112,"velocity":0.3937007874015748},{"duration":0.19354799999999983,"midi":38,"time":57.290208,"velocity":0.3937007874015748},{"duration":0.19354799999999983,"midi":45,"time":57.677304,"velocity":0.3937007874015748},{"duration":0.19354799999999983,"midi":40,"time":58.0644,"velocity":0.3937007874015748},{"duration":0.19354799999999983,"midi":40,"time":58.645044,"velocity":0.3937007874015748},{"duration":0.19354799999999983,"midi":40,"time":59.03214,"velocity":0.3937007874015748},{"duration":0.19354799999999983,"midi":40,"time":59.225688,"velocity":0.3937007874015748},{"duration":0.19354799999999983,"midi":28,"time":59.612784,"velocity":0.3937007874015748},{"duration":0.19354799999999983,"midi":40,"time":60.193428,"velocity":0.3937007874015748},{"duration":0.19354799999999983,"midi":40,"time":60.580524,"velocity":0.3937007874015748},{"duration":0.19354799999999983,"midi":43,"time":60.774072,"velocity":0.3937007874015748},{"duration":0.19354799999999983,"midi":31,"time":61.161167999999996,"velocity":0.3937007874015748},{"duration":0.19354800000000694,"midi":31,"time":61.741811999999996,"velocity":0.3937007874015748},{"duration":0.19354799999999983,"midi":31,"time":62.128908,"velocity":0.3937007874015748},{"duration":0.19354799999999983,"midi":38,"time":62.322456,"velocity":0.3937007874015748},{"duration":0.19354799999999983,"midi":36,"time":62.709552,"velocity":0.3937007874015748},{"duration":0.19354799999999983,"midi":40,"time":63.290196,"velocity":0.3937007874015748},{"duration":0.19354799999999983,"midi":36,"time":63.677292,"velocity":0.3937007874015748},{"duration":0.19354799999999273,"midi":36,"time":63.87084,"velocity":0.3937007874015748},{"duration":0.19354799999999273,"midi":40,"time":64.257936,"velocity":0.3937007874015748},{"duration":0.19354800000000694,"midi":43,"time":64.83858,"velocity":0.3937007874015748},{"duration":0.19354800000000694,"midi":43,"time":65.22567599999999,"velocity":0.3937007874015748},{"duration":0.19354799999999273,"midi":36,"time":65.419224,"velocity":0.3937007874015748},{"duration":0.19354799999999273,"midi":38,"time":65.80632,"velocity":0.3937007874015748},{"duration":0.19354800000000694,"midi":45,"time":66.193416,"velocity":0.3937007874015748},{"duration":0.19354800000000694,"midi":40,"time":66.580512,"velocity":0.3937007874015748},{"duration":0.19354799999999273,"midi":40,"time":67.161156,"velocity":0.3937007874015748},{"duration":0.19354799999999273,"midi":40,"time":67.548252,"velocity":0.3937007874015748},{"duration":0.19354800000000694,"midi":40,"time":67.7418,"velocity":0.3937007874015748},{"duration":0.19354800000000694,"midi":28,"time":68.128896,"velocity":0.3937007874015748},{"duration":0.19354799999999273,"midi":40,"time":68.70954,"velocity":0.3937007874015748},{"duration":0.19354799999999273,"midi":40,"time":69.096636,"velocity":0.3937007874015748},{"duration":0.19354800000000694,"midi":43,"time":69.290184,"velocity":0.3937007874015748},{"duration":0.19354800000000694,"midi":31,"time":69.67728,"velocity":0.3937007874015748},{"duration":0.19354799999999273,"midi":31,"time":70.257924,"velocity":0.3937007874015748},{"duration":0.19354799999999273,"midi":31,"time":70.64502,"velocity":0.3937007874015748},{"duration":0.19354800000000694,"midi":38,"time":70.838568,"velocity":0.3937007874015748},{"duration":0.19354800000000694,"midi":36,"time":71.225664,"velocity":0.3937007874015748},{"duration":0.19354799999999273,"midi":40,"time":71.806308,"velocity":0.3937007874015748},{"duration":0.19354799999999273,"midi":36,"time":72.193404,"velocity":0.3937007874015748},{"duration":0.19354800000000694,"midi":36,"time":72.386952,"velocity":0.3937007874015748},{"duration":0.19354800000000694,"midi":40,"time":72.774048,"velocity":0.3937007874015748},{"duration":0.19354799999999273,"midi":43,"time":73.354692,"velocity":0.3937007874015748},{"duration":0.19354799999999273,"midi":43,"time":73.741788,"velocity":0.3937007874015748},{"duration":0.19354800000000694,"midi":36,"time":73.93533599999999,"velocity":0.3937007874015748},{"duration":0.19354800000000694,"midi":38,"time":74.32243199999999,"velocity":0.3937007874015748},{"duration":0.19354799999999273,"midi":45,"time":74.709528,"velocity":0.3937007874015748},{"duration":0.19354799999999273,"midi":40,"time":75.096624,"velocity":0.3937007874015748},{"duration":0.19354800000000694,"midi":40,"time":75.677268,"velocity":0.3937007874015748},{"duration":0.19354800000000694,"midi":40,"time":76.064364,"velocity":0.3937007874015748},{"duration":0.19354799999999273,"midi":40,"time":76.257912,"velocity":0.3937007874015748},{"duration":0.19354799999999273,"midi":28,"time":76.645008,"velocity":0.3937007874015748},{"duration":0.19354800000000694,"midi":40,"time":77.225652,"velocity":0.3937007874015748},{"duration":0.19354800000000694,"midi":40,"time":77.612748,"velocity":0.3937007874015748},{"duration":0.19354799999999273,"midi":43,"time":77.806296,"velocity":0.3937007874015748},{"duration":0.19354799999999273,"midi":31,"time":78.193392,"velocity":0.3937007874015748},{"duration":0.19354800000000694,"midi":31,"time":78.774036,"velocity":0.3937007874015748},{"duration":0.19354800000000694,"midi":31,"time":79.161132,"velocity":0.3937007874015748},{"duration":0.19354799999999273,"midi":38,"time":79.35468,"velocity":0.3937007874015748},{"duration":0.19354799999999273,"midi":36,"time":79.741776,"velocity":0.3937007874015748},{"duration":0.19354800000000694,"midi":40,"time":80.32242,"velocity":0.3937007874015748},{"duration":0.19354800000000694,"midi":36,"time":80.709516,"velocity":0.3937007874015748},{"duration":0.19354799999999273,"midi":36,"time":80.903064,"velocity":0.3937007874015748},{"duration":0.19354799999999273,"midi":40,"time":81.29016,"velocity":0.3937007874015748},{"duration":0.19354800000000694,"midi":43,"time":81.87080399999999,"velocity":0.3937007874015748},{"duration":0.19354800000000694,"midi":43,"time":82.25789999999999,"velocity":0.3937007874015748},{"duration":0.19354800000000694,"midi":36,"time":82.451448,"velocity":0.3937007874015748},{"duration":0.19354800000000694,"midi":38,"time":82.838544,"velocity":0.3937007874015748},{"duration":0.19354800000000694,"midi":45,"time":83.22564,"velocity":0.3937007874015748},{"duration":0.19354800000000694,"midi":40,"time":83.612736,"velocity":0.3937007874015748},{"duration":0.19354799999999273,"midi":40,"time":84.19338,"velocity":0.3937007874015748},{"duration":0.19354799999999273,"midi":40,"time":84.580476,"velocity":0.3937007874015748},{"duration":0.19354800000000694,"midi":40,"time":84.774024,"velocity":0.3937007874015748},{"duration":0.19354800000000694,"midi":28,"time":85.16112,"velocity":0.3937007874015748},{"duration":0.19354799999999273,"midi":40,"time":85.741764,"velocity":0.3937007874015748},{"duration":0.19354799999999273,"midi":40,"time":86.12886,"velocity":0.3937007874015748},{"duration":0.19354800000000694,"midi":43,"time":86.322408,"velocity":0.3937007874015748},{"duration":0.19354800000000694,"midi":31,"time":86.709504,"velocity":0.3937007874015748},{"duration":0.19354799999999273,"midi":31,"time":87.290148,"velocity":0.3937007874015748},{"duration":0.19354799999999273,"midi":31,"time":87.677244,"velocity":0.3937007874015748},{"duration":0.19354800000000694,"midi":38,"time":87.870792,"velocity":0.3937007874015748},{"duration":0.19354800000000694,"midi":36,"time":88.257888,"velocity":0.3937007874015748},{"duration":0.19354799999999273,"midi":40,"time":88.838532,"velocity":0.3937007874015748},{"duration":0.19354799999999273,"midi":36,"time":89.225628,"velocity":0.3937007874015748},{"duration":0.19354800000000694,"midi":36,"time":89.419176,"velocity":0.3937007874015748},{"duration":0.19354800000000694,"midi":40,"time":89.80627199999999,"velocity":0.3937007874015748},{"duration":0.19354799999999273,"midi":43,"time":90.386916,"velocity":0.3937007874015748},{"duration":0.19354800000000694,"midi":43,"time":90.774012,"velocity":0.3937007874015748},{"duration":0.19354799999999273,"midi":36,"time":90.96756,"velocity":0.3937007874015748},{"duration":0.19354799999999273,"midi":38,"time":91.354656,"velocity":0.3937007874015748},{"duration":0.19354799999999273,"midi":45,"time":91.741752,"velocity":0.3937007874015748},{"duration":0.19354799999999273,"midi":40,"time":92.128848,"velocity":0.3937007874015748},{"duration":0.19354800000000694,"midi":40,"time":92.709492,"velocity":0.3937007874015748},{"duration":0.19354800000000694,"midi":40,"time":93.096588,"velocity":0.3937007874015748},{"duration":0.19354799999999273,"midi":40,"time":93.290136,"velocity":0.3937007874015748},{"duration":0.19354799999999273,"midi":28,"time":93.677232,"velocity":0.3937007874015748},{"duration":0.19354800000000694,"midi":40,"time":94.257876,"velocity":0.3937007874015748},{"duration":0.19354800000000694,"midi":40,"time":94.644972,"velocity":0.3937007874015748},{"duration":0.19354799999999273,"midi":43,"time":94.83852,"velocity":0.3937007874015748},{"duration":0.19354799999999273,"midi":31,"time":95.225616,"velocity":0.3937007874015748},{"duration":0.19354800000000694,"midi":31,"time":95.80626,"velocity":0.3937007874015748},{"duration":0.19354800000000694,"midi":31,"time":96.193356,"velocity":0.3937007874015748},{"duration":0.19354799999999273,"midi":38,"time":96.386904,"velocity":0.3937007874015748},{"duration":0.19354799999999273,"midi":36,"time":96.774,"velocity":0.3937007874015748},{"duration":0.19354800000000694,"midi":40,"time":97.354644,"velocity":0.3937007874015748},{"duration":0.19354800000000694,"midi":36,"time":97.74174,"velocity":0.3937007874015748},{"duration":0.19354799999999273,"midi":36,"time":97.935288,"velocity":0.3937007874015748},{"duration":0.19354799999999273,"midi":40,"time":98.322384,"velocity":0.3937007874015748},{"duration":0.19354800000000694,"midi":43,"time":98.90302799999999,"velocity":0.3937007874015748},{"duration":0.19354799999999273,"midi":43,"time":99.290124,"velocity":0.3937007874015748},{"duration":0.19354800000000694,"midi":36,"time":99.483672,"velocity":0.3937007874015748},{"duration":0.19354800000000694,"midi":38,"time":99.870768,"velocity":0.3937007874015748},{"duration":0.19354800000000694,"midi":45,"time":100.257864,"velocity":0.3937007874015748},{"duration":0.19354800000000694,"midi":40,"time":100.64496,"velocity":0.3937007874015748},{"duration":0.19354800000000694,"midi":35,"time":102.967536,"velocity":0.3937007874015748},{"duration":0.19354799999999273,"midi":36,"time":103.161084,"velocity":0.3937007874015748},{"duration":0.19354800000000694,"midi":38,"time":103.354632,"velocity":0.3937007874015748},{"duration":0.19354799999999273,"midi":40,"time":103.54818,"velocity":0.3937007874015748},{"duration":0.19354800000000694,"midi":31,"time":103.741728,"velocity":0.3937007874015748},{"duration":0.19354799999999273,"midi":31,"time":104.322372,"velocity":0.3937007874015748},{"duration":0.19354799999999273,"midi":43,"time":104.709468,"velocity":0.3937007874015748},{"duration":0.19354800000000694,"midi":38,"time":104.903016,"velocity":0.3937007874015748},{"duration":0.19354800000000694,"midi":36,"time":105.290112,"velocity":0.3937007874015748},{"duration":0.19354799999999273,"midi":40,"time":105.870756,"velocity":0.3937007874015748},{"duration":0.19354799999999273,"midi":36,"time":106.257852,"velocity":0.3937007874015748},{"duration":0.19354800000000694,"midi":48,"time":106.45139999999999,"velocity":0.3937007874015748},{"duration":0.19354800000000694,"midi":40,"time":106.83849599999999,"velocity":0.3937007874015748},{"duration":0.19354800000000694,"midi":43,"time":107.41914,"velocity":0.3937007874015748},{"duration":0.19354800000000694,"midi":43,"time":107.806236,"velocity":0.3937007874015748},{"duration":0.19354799999999273,"midi":36,"time":107.999784,"velocity":0.3937007874015748},{"duration":0.19354799999999273,"midi":38,"time":108.38688,"velocity":0.3937007874015748},{"duration":0.19354799999999273,"midi":45,"time":108.773976,"velocity":0.3937007874015748},{"duration":0.19354799999999273,"midi":40,"time":109.161072,"velocity":0.3937007874015748},{"duration":0.19354800000000694,"midi":40,"time":109.741716,"velocity":0.3937007874015748},{"duration":0.19354800000000694,"midi":40,"time":110.128812,"velocity":0.3937007874015748},{"duration":0.19354799999999273,"midi":40,"time":110.32236,"velocity":0.3937007874015748},{"duration":0.19354799999999273,"midi":28,"time":110.709456,"velocity":0.3937007874015748},{"duration":0.19354800000000694,"midi":40,"time":111.2901,"velocity":0.3937007874015748},{"duration":0.19354800000000694,"midi":40,"time":111.677196,"velocity":0.3937007874015748},{"duration":0.19354799999999273,"midi":43,"time":111.870744,"velocity":0.3937007874015748},{"duration":0.19354799999999273,"midi":43,"time":112.25784,"velocity":0.3937007874015748},{"duration":0.19354800000000694,"midi":31,"time":112.838484,"velocity":0.3937007874015748},{"duration":0.19354800000000694,"midi":43,"time":113.22558,"velocity":0.3937007874015748},{"duration":0.19354799999999273,"midi":38,"time":113.419128,"velocity":0.3937007874015748},{"duration":0.19354799999999273,"midi":36,"time":113.806224,"velocity":0.3937007874015748},{"duration":0.19354800000000694,"midi":40,"time":114.38686799999999,"velocity":0.3937007874015748},{"duration":0.19354800000000694,"midi":36,"time":114.77396399999999,"velocity":0.3937007874015748},{"duration":0.19354799999999273,"midi":48,"time":114.967512,"velocity":0.3937007874015748},{"duration":0.19354799999999273,"midi":40,"time":115.354608,"velocity":0.3937007874015748},{"duration":0.19354799999999273,"midi":43,"time":115.935252,"velocity":0.3937007874015748},{"duration":0.19354799999999273,"midi":43,"time":116.322348,"velocity":0.3937007874015748},{"duration":0.19354800000000694,"midi":36,"time":116.515896,"velocity":0.3937007874015748},{"duration":0.19354800000000694,"midi":38,"time":116.902992,"velocity":0.3937007874015748},{"duration":0.19354800000000694,"midi":45,"time":117.290088,"velocity":0.3937007874015748},{"duration":0.19354800000000694,"midi":40,"time":117.677184,"velocity":0.3937007874015748},{"duration":0.19354799999999273,"midi":40,"time":118.257828,"velocity":0.3937007874015748},{"duration":0.19354799999999273,"midi":40,"time":118.644924,"velocity":0.3937007874015748},{"duration":0.19354800000000694,"midi":40,"time":118.838472,"velocity":0.3937007874015748},{"duration":0.19354800000000694,"midi":28,"time":119.225568,"velocity":0.3937007874015748},{"duration":0.19354799999999273,"midi":40,"time":119.806212,"velocity":0.3937007874015748},{"duration":0.19354799999999273,"midi":40,"time":120.193308,"velocity":0.3937007874015748},{"duration":0.19354800000000694,"midi":43,"time":120.386856,"velocity":0.3937007874015748},{"duration":0.19354800000000694,"midi":43,"time":120.773952,"velocity":0.3937007874015748},{"duration":0.19354799999999273,"midi":31,"time":121.354596,"velocity":0.3937007874015748},{"duration":0.19354799999999273,"midi":43,"time":121.741692,"velocity":0.3937007874015748},{"duration":0.19354800000000694,"midi":38,"time":121.93524,"velocity":0.3937007874015748},{"duration":0.19354800000000694,"midi":36,"time":122.32233599999999,"velocity":0.3937007874015748},{"duration":0.19354799999999273,"midi":40,"time":122.90298,"velocity":0.3937007874015748},{"duration":0.19354799999999273,"midi":36,"time":123.290076,"velocity":0.3937007874015748},{"duration":0.19354800000000694,"midi":48,"time":123.48362399999999,"velocity":0.3937007874015748},{"duration":0.19354799999999273,"midi":40,"time":123.87072,"velocity":0.3937007874015748},{"duration":0.19354800000000694,"midi":43,"time":124.451364,"velocity":0.3937007874015748},{"duration":0.19354800000000694,"midi":43,"time":124.83846,"velocity":0.3937007874015748},{"duration":0.19354799999999273,"midi":36,"time":125.032008,"velocity":0.3937007874015748},{"duration":0.19354799999999273,"midi":38,"time":125.419104,"velocity":0.3937007874015748},{"duration":0.19354799999999273,"midi":45,"time":125.8062,"velocity":0.3937007874015748},{"duration":0.19354799999999273,"midi":40,"time":126.193296,"velocity":0.3937007874015748},{"duration":0.19354800000000694,"midi":40,"time":126.77394,"velocity":0.3937007874015748},{"duration":0.19354800000000694,"midi":40,"time":127.161036,"velocity":0.3937007874015748},{"duration":0.19354799999999273,"midi":40,"time":127.354584,"velocity":0.3937007874015748},{"duration":0.19354799999999273,"midi":28,"time":127.74168,"velocity":0.3937007874015748},{"duration":0.19354799999999273,"midi":40,"time":128.322324,"velocity":0.3937007874015748},{"duration":0.19354799999999273,"midi":40,"time":128.70942,"velocity":0.3937007874015748},{"duration":0.19354800000002115,"midi":43,"time":128.902968,"velocity":0.3937007874015748},{"duration":0.19354799999999273,"midi":43,"time":129.290064,"velocity":0.3937007874015748},{"duration":0.19354799999999273,"midi":31,"time":129.870708,"velocity":0.3937007874015748},{"duration":0.19354799999999273,"midi":43,"time":130.257804,"velocity":0.3937007874015748},{"duration":0.19354800000002115,"midi":38,"time":130.45135199999999,"velocity":0.3937007874015748},{"duration":0.19354799999999273,"midi":36,"time":130.838448,"velocity":0.3937007874015748},{"duration":0.19354799999999273,"midi":40,"time":131.419092,"velocity":0.3937007874015748},{"duration":0.19354799999999273,"midi":36,"time":131.806188,"velocity":0.3937007874015748},{"duration":0.19354800000002115,"midi":48,"time":131.99973599999998,"velocity":0.3937007874015748},{"duration":0.19354799999999273,"midi":40,"time":132.386832,"velocity":0.3937007874015748},{"duration":0.19354799999999273,"midi":43,"time":132.967476,"velocity":0.3937007874015748},{"duration":0.19354800000002115,"midi":43,"time":133.354572,"velocity":0.3937007874015748},{"duration":0.19354799999999273,"midi":36,"time":133.54812,"velocity":0.3937007874015748},{"duration":0.19354799999999273,"midi":38,"time":133.935216,"velocity":0.3937007874015748},{"duration":0.19354799999999273,"midi":45,"time":134.322312,"velocity":0.3937007874015748},{"duration":0.19354799999999273,"midi":40,"time":134.709408,"velocity":0.3937007874015748},{"duration":0.19354799999999273,"midi":40,"time":135.290052,"velocity":0.3937007874015748},{"duration":0.19354800000002115,"midi":40,"time":135.677148,"velocity":0.3937007874015748},{"duration":0.19354799999999273,"midi":40,"time":135.870696,"velocity":0.3937007874015748},{"duration":0.19354799999999273,"midi":28,"time":136.257792,"velocity":0.3937007874015748},{"duration":0.19354799999999273,"midi":40,"time":136.838436,"velocity":0.3937007874015748},{"duration":0.19354800000002115,"midi":40,"time":137.225532,"velocity":0.3937007874015748},{"duration":0.19354799999999273,"midi":43,"time":137.41908,"velocity":0.3937007874015748},{"duration":0.19354799999999273,"midi":43,"time":137.806176,"velocity":0.3937007874015748},{"duration":0.19354799999999273,"midi":31,"time":138.38682,"velocity":0.3937007874015748},{"duration":0.19354800000002115,"midi":43,"time":138.77391599999999,"velocity":0.3937007874015748},{"duration":0.19354799999999273,"midi":38,"time":138.967464,"velocity":0.3937007874015748},{"duration":0.19354799999999273,"midi":36,"time":139.35456,"velocity":0.3937007874015748},{"duration":0.19354799999999273,"midi":40,"time":139.935204,"velocity":0.3937007874015748},{"duration":0.19354800000002115,"midi":36,"time":140.32229999999998,"velocity":0.3937007874015748},{"duration":0.19354799999999273,"midi":48,"time":140.515848,"velocity":0.3937007874015748},{"duration":0.19354800000002115,"midi":40,"time":140.902944,"velocity":0.3937007874015748},{"duration":0.19354799999999273,"midi":43,"time":141.483588,"velocity":0.3937007874015748},{"duration":0.19354799999999273,"midi":43,"time":141.870684,"velocity":0.3937007874015748},{"duration":0.19354799999999273,"midi":36,"time":142.064232,"velocity":0.3937007874015748},{"duration":0.19354800000002115,"midi":38,"time":142.451328,"velocity":0.3937007874015748},{"duration":0.19354799999999273,"midi":45,"time":142.838424,"velocity":0.3937007874015748},{"duration":0.19354800000002115,"midi":40,"time":143.22552,"velocity":0.3937007874015748},{"duration":0.19354799999999273,"midi":40,"time":143.806164,"velocity":0.3937007874015748},{"duration":0.19354799999999273,"midi":40,"time":144.19326,"velocity":0.3937007874015748},{"duration":0.19354799999999273,"midi":40,"time":144.386808,"velocity":0.3937007874015748},{"duration":0.19354800000002115,"midi":28,"time":144.773904,"velocity":0.3937007874015748},{"duration":0.19354799999999273,"midi":40,"time":145.354548,"velocity":0.3937007874015748},{"duration":0.19354799999999273,"midi":40,"time":145.741644,"velocity":0.3937007874015748},{"duration":0.19354799999999273,"midi":43,"time":145.935192,"velocity":0.3937007874015748},{"duration":0.19354800000002115,"midi":43,"time":146.322288,"velocity":0.3937007874015748},{"duration":0.19354799999999273,"midi":31,"time":146.902932,"velocity":0.3937007874015748},{"duration":0.19354799999999273,"midi":43,"time":147.290028,"velocity":0.3937007874015748},{"duration":0.19354799999999273,"midi":38,"time":147.483576,"velocity":0.3937007874015748},{"duration":0.19354800000002115,"midi":36,"time":147.87067199999998,"velocity":0.3937007874015748},{"duration":0.19354799999999273,"midi":40,"time":148.451316,"velocity":0.3937007874015748},{"duration":0.19354799999999273,"midi":36,"time":148.838412,"velocity":0.3937007874015748},{"duration":0.19354799999999273,"midi":48,"time":149.03196,"velocity":0.3937007874015748},{"duration":0.19354799999999273,"midi":40,"time":149.419056,"velocity":0.3937007874015748},{"duration":0.19354800000002115,"midi":43,"time":149.9997,"velocity":0.3937007874015748},{"duration":0.19354799999999273,"midi":43,"time":150.386796,"velocity":0.3937007874015748},{"duration":0.19354799999999273,"midi":36,"time":150.580344,"velocity":0.3937007874015748},{"duration":0.19354799999999273,"midi":38,"time":150.96744,"velocity":0.3937007874015748},{"duration":0.19354799999999273,"midi":45,"time":151.354536,"velocity":0.3937007874015748},{"duration":0.19354799999999273,"midi":40,"time":151.741632,"velocity":0.3937007874015748},{"duration":0.19354800000002115,"midi":40,"time":152.322276,"velocity":0.3937007874015748},{"duration":0.19354799999999273,"midi":40,"time":152.709372,"velocity":0.3937007874015748},{"duration":0.19354799999999273,"midi":40,"time":152.90292,"velocity":0.3937007874015748},{"duration":0.19354799999999273,"midi":28,"time":153.290016,"velocity":0.3937007874015748},{"duration":0.19354800000002115,"midi":40,"time":153.87066,"velocity":0.3937007874015748},{"duration":0.19354799999999273,"midi":40,"time":154.257756,"velocity":0.3937007874015748},{"duration":0.19354799999999273,"midi":43,"time":154.451304,"velocity":0.3937007874015748},{"duration":0.19354799999999273,"midi":43,"time":154.8384,"velocity":0.3937007874015748},{"duration":0.19354800000002115,"midi":31,"time":155.41904399999999,"velocity":0.3937007874015748},{"duration":0.19354799999999273,"midi":43,"time":155.80614,"velocity":0.3937007874015748},{"duration":0.19354799999999273,"midi":38,"time":155.999688,"velocity":0.3937007874015748},{"duration":0.19354799999999273,"midi":36,"time":156.386784,"velocity":0.3937007874015748},{"duration":0.19354799999999273,"midi":40,"time":156.967428,"velocity":0.3937007874015748},{"duration":0.19354799999999273,"midi":36,"time":157.354524,"velocity":0.3937007874015748},{"duration":0.19354800000002115,"midi":48,"time":157.548072,"velocity":0.3937007874015748},{"duration":0.19354799999999273,"midi":40,"time":157.935168,"velocity":0.3937007874015748},{"duration":0.19354799999999273,"midi":43,"time":158.515812,"velocity":0.3937007874015748},{"duration":0.19354799999999273,"midi":43,"time":158.902908,"velocity":0.3937007874015748},{"duration":0.19354800000002115,"midi":36,"time":159.096456,"velocity":0.3937007874015748},{"duration":0.19354799999999273,"midi":38,"time":159.483552,"velocity":0.3937007874015748},{"duration":0.19354800000002115,"midi":45,"time":159.870648,"velocity":0.3937007874015748},{"duration":0.19354799999999273,"midi":40,"time":160.257744,"velocity":0.3937007874015748},{"duration":0.19354799999999273,"midi":40,"time":160.838388,"velocity":0.3937007874015748},{"duration":0.19354799999999273,"midi":40,"time":161.225484,"velocity":0.3937007874015748},{"duration":0.19354800000002115,"midi":40,"time":161.419032,"velocity":0.3937007874015748},{"duration":0.19354799999999273,"midi":28,"time":161.806128,"velocity":0.3937007874015748},{"duration":0.19354799999999273,"midi":40,"time":162.386772,"velocity":0.3937007874015748},{"duration":0.19354799999999273,"midi":40,"time":162.773868,"velocity":0.3937007874015748},{"duration":0.19354800000002115,"midi":43,"time":162.967416,"velocity":0.3937007874015748},{"duration":0.19354799999999273,"midi":43,"time":163.354512,"velocity":0.3937007874015748},{"duration":0.19354799999999273,"midi":31,"time":163.935156,"velocity":0.3937007874015748},{"duration":0.19354799999999273,"midi":43,"time":164.322252,"velocity":0.3937007874015748},{"duration":0.19354800000002115,"midi":38,"time":164.51579999999998,"velocity":0.3937007874015748},{"duration":0.19354799999999273,"midi":36,"time":164.902896,"velocity":0.3937007874015748},{"duration":0.19354799999999273,"midi":40,"time":165.48354,"velocity":0.3937007874015748},{"duration":0.19354800000002115,"midi":36,"time":165.870636,"velocity":0.3937007874015748},{"duration":0.19354799999999273,"midi":48,"time":166.064184,"velocity":0.3937007874015748},{"duration":0.19354799999999273,"midi":40,"time":166.45128,"velocity":0.3937007874015748},{"duration":0.19354799999999273,"midi":43,"time":167.031924,"velocity":0.3937007874015748},{"duration":0.19354800000002115,"midi":43,"time":167.41902,"velocity":0.3937007874015748},{"duration":0.19354799999999273,"midi":36,"time":167.612568,"velocity":0.3937007874015748},{"duration":0.19354799999999273,"midi":38,"time":167.999664,"velocity":0.3937007874015748},{"duration":0.19354799999999273,"midi":45,"time":168.38676,"velocity":0.3937007874015748},{"duration":0.19354799999999273,"midi":40,"time":168.773856,"velocity":0.3937007874015748},{"duration":0.19354799999999273,"midi":40,"time":169.3545,"velocity":0.3937007874015748},{"duration":0.19354800000002115,"midi":40,"time":169.741596,"velocity":0.3937007874015748},{"duration":0.19354799999999273,"midi":40,"time":169.935144,"velocity":0.3937007874015748},{"duration":0.19354799999999273,"midi":28,"time":170.32224,"velocity":0.3937007874015748},{"duration":0.19354799999999273,"midi":40,"time":170.902884,"velocity":0.3937007874015748},{"duration":0.19354800000002115,"midi":40,"time":171.28997999999999,"velocity":0.3937007874015748},{"duration":0.19354799999999273,"midi":43,"time":171.483528,"velocity":0.3937007874015748},{"duration":0.19354799999999273,"midi":43,"time":171.870624,"velocity":0.3937007874015748},{"duration":0.38709599999998545,"midi":31,"time":172.451268,"velocity":0.3937007874015748},{"duration":0.19354800000002115,"midi":43,"time":172.83836399999998,"velocity":0.3937007874015748},{"duration":0.19354799999999273,"midi":38,"time":173.031912,"velocity":0.3937007874015748},{"duration":0.19354799999999273,"midi":40,"time":173.22546,"velocity":0.3937007874015748},{"duration":0.19354800000002115,"midi":36,"time":173.419008,"velocity":0.3937007874015748},{"duration":0.19354799999999273,"midi":40,"time":173.999652,"velocity":0.3937007874015748},{"duration":0.19354799999999273,"midi":36,"time":174.386748,"velocity":0.3937007874015748},{"duration":0.19354799999999273,"midi":48,"time":174.580296,"velocity":0.3937007874015748},{"duration":0.19354799999999273,"midi":38,"time":174.773844,"velocity":0.3937007874015748},{"duration":0.19354800000002115,"midi":40,"time":174.967392,"velocity":0.3937007874015748},{"duration":0.19354799999999273,"midi":43,"time":175.548036,"velocity":0.3937007874015748},{"duration":0.19354799999999273,"midi":43,"time":175.935132,"velocity":0.3937007874015748},{"duration":0.19354799999999273,"midi":36,"time":176.12868,"velocity":0.3937007874015748},{"duration":0.19354799999999273,"midi":37,"time":176.322228,"velocity":0.3937007874015748},{"duration":0.19354800000002115,"midi":38,"time":176.515776,"velocity":0.3937007874015748},{"duration":0.19354799999999273,"midi":45,"time":176.902872,"velocity":0.3937007874015748},{"duration":0.19354800000002115,"midi":40,"time":177.289968,"velocity":0.3937007874015748},{"duration":0.19354799999999273,"midi":40,"time":177.870612,"velocity":0.3937007874015748},{"duration":0.19354799999999273,"midi":38,"time":178.257708,"velocity":0.3937007874015748},{"duration":0.19354799999999273,"midi":40,"time":178.451256,"velocity":0.3937007874015748},{"duration":0.19354800000002115,"midi":28,"time":178.838352,"velocity":0.3937007874015748},{"duration":0.19354799999999273,"midi":40,"time":179.418996,"velocity":0.3937007874015748},{"duration":0.19354800000002115,"midi":28,"time":179.61254399999999,"velocity":0.3937007874015748},{"duration":0.19354799999999273,"midi":40,"time":179.806092,"velocity":0.3937007874015748},{"duration":0.19354799999999273,"midi":43,"time":179.99964,"velocity":0.3937007874015748},{"duration":0.19354799999999273,"midi":45,"time":180.193188,"velocity":0.3937007874015748},{"duration":0.19354800000002115,"midi":43,"time":180.38673599999998,"velocity":0.3937007874015748},{"duration":0.3870960000000139,"midi":31,"time":180.96738,"velocity":0.3937007874015748},{"duration":0.19354799999999273,"midi":43,"time":181.354476,"velocity":0.3937007874015748},{"duration":0.19354799999999273,"midi":38,"time":181.548024,"velocity":0.3937007874015748},{"duration":0.19354800000002115,"midi":40,"time":181.741572,"velocity":0.3937007874015748},{"duration":0.19354799999999273,"midi":36,"time":181.93512,"velocity":0.3937007874015748},{"duration":0.19354800000002115,"midi":40,"time":182.515764,"velocity":0.3937007874015748},{"duration":0.19354799999999273,"midi":36,"time":182.90286,"velocity":0.3937007874015748},{"duration":0.19354799999999273,"midi":48,"time":183.096408,"velocity":0.3937007874015748},{"duration":0.19354800000002115,"midi":38,"time":183.289956,"velocity":0.3937007874015748},{"duration":0.19354799999999273,"midi":40,"time":183.483504,"velocity":0.3937007874015748},{"duration":0.19354800000002115,"midi":43,"time":184.064148,"velocity":0.3937007874015748},{"duration":0.19354799999999273,"midi":43,"time":184.451244,"velocity":0.3937007874015748},{"duration":0.19354799999999273,"midi":36,"time":184.644792,"velocity":0.3937007874015748},{"duration":0.19354800000002115,"midi":37,"time":184.83834,"velocity":0.3937007874015748},{"duration":0.19354799999999273,"midi":38,"time":185.031888,"velocity":0.3937007874015748},{"duration":0.19354799999999273,"midi":45,"time":185.418984,"velocity":0.3937007874015748},{"duration":0.19354799999999273,"midi":40,"time":185.80608,"velocity":0.3937007874015748},{"duration":0.19354800000002115,"midi":40,"time":186.386724,"velocity":0.3937007874015748},{"duration":0.19354799999999273,"midi":38,"time":186.77382,"velocity":0.3937007874015748},{"duration":0.19354799999999273,"midi":40,"time":186.967368,"velocity":0.3937007874015748},{"duration":0.19354799999999273,"midi":28,"time":187.354464,"velocity":0.3937007874015748},{"duration":0.19354800000002115,"midi":40,"time":187.93510799999999,"velocity":0.3937007874015748},{"duration":0.19354799999999273,"midi":28,"time":188.128656,"velocity":0.3937007874015748},{"duration":0.19354799999999273,"midi":40,"time":188.322204,"velocity":0.3937007874015748},{"duration":0.19354799999999273,"midi":43,"time":188.515752,"velocity":0.3937007874015748},{"duration":0.19354800000002115,"midi":45,"time":188.70929999999998,"velocity":0.3937007874015748},{"duration":0.19354799999999273,"midi":43,"time":188.902848,"velocity":0.3937007874015748},{"duration":0.3870960000000139,"midi":31,"time":189.48349199999998,"velocity":0.3937007874015748},{"duration":0.19354799999999273,"midi":43,"time":189.870588,"velocity":0.3937007874015748},{"duration":0.19354800000002115,"midi":38,"time":190.064136,"velocity":0.3937007874015748},{"duration":0.19354799999999273,"midi":40,"time":190.257684,"velocity":0.3937007874015748},{"duration":0.19354799999999273,"midi":36,"time":190.451232,"velocity":0.3937007874015748},{"duration":0.19354799999999273,"midi":40,"time":191.031876,"velocity":0.3937007874015748},{"duration":0.19354799999999273,"midi":36,"time":191.418972,"velocity":0.3937007874015748},{"duration":0.19354800000002115,"midi":48,"time":191.61252,"velocity":0.3937007874015748},{"duration":0.19354799999999273,"midi":38,"time":191.806068,"velocity":0.3937007874015748},{"duration":0.19354799999999273,"midi":40,"time":191.999616,"velocity":0.3937007874015748},{"duration":0.19354799999999273,"midi":43,"time":192.58026,"velocity":0.3937007874015748},{"duration":0.19354799999999273,"midi":43,"time":192.967356,"velocity":0.3937007874015748},{"duration":0.19354800000002115,"midi":36,"time":193.160904,"velocity":0.3937007874015748},{"duration":0.19354799999999273,"midi":37,"time":193.354452,"velocity":0.3937007874015748},{"duration":0.19354799999999273,"midi":38,"time":193.548,"velocity":0.3937007874015748},{"duration":0.19354800000002115,"midi":45,"time":193.935096,"velocity":0.3937007874015748},{"duration":0.19354799999999273,"midi":40,"time":194.322192,"velocity":0.3937007874015748},{"duration":0.19354799999999273,"midi":40,"time":194.902836,"velocity":0.3937007874015748},{"duration":0.19354799999999273,"midi":38,"time":195.289932,"velocity":0.3937007874015748},{"duration":0.19354800000002115,"midi":40,"time":195.48348,"velocity":0.3937007874015748},{"duration":0.19354799999999273,"midi":28,"time":195.870576,"velocity":0.3937007874015748},{"duration":0.19354799999999273,"midi":40,"time":196.45122,"velocity":0.3937007874015748},{"duration":0.19354799999999273,"midi":28,"time":196.644768,"velocity":0.3937007874015748},{"duration":0.19354799999999273,"midi":40,"time":196.838316,"velocity":0.3937007874015748},{"duration":0.19354800000002115,"midi":43,"time":197.03186399999998,"velocity":0.3937007874015748},{"duration":0.19354799999999273,"midi":45,"time":197.225412,"velocity":0.3937007874015748},{"duration":0.19354799999999273,"midi":43,"time":197.41896,"velocity":0.3937007874015748},{"duration":0.38709599999998545,"midi":31,"time":197.999604,"velocity":0.3937007874015748},{"duration":0.19354800000002115,"midi":43,"time":198.3867,"velocity":0.3937007874015748},{"duration":0.19354799999999273,"midi":38,"time":198.580248,"velocity":0.3937007874015748},{"duration":0.19354799999999273,"midi":40,"time":198.773796,"velocity":0.3937007874015748},{"duration":0.19354799999999273,"midi":36,"time":198.967344,"velocity":0.3937007874015748},{"duration":0.19354799999999273,"midi":40,"time":199.547988,"velocity":0.3937007874015748},{"duration":0.19354800000002115,"midi":36,"time":199.935084,"velocity":0.3937007874015748},{"duration":0.19354799999999273,"midi":48,"time":200.128632,"velocity":0.3937007874015748},{"duration":0.19354799999999273,"midi":38,"time":200.32218,"velocity":0.3937007874015748},{"duration":0.19354799999999273,"midi":40,"time":200.515728,"velocity":0.3937007874015748},{"duration":0.19354799999999273,"midi":43,"time":201.096372,"velocity":0.3937007874015748},{"duration":0.19354800000002115,"midi":43,"time":201.483468,"velocity":0.3937007874015748},{"duration":0.19354799999999273,"midi":36,"time":201.677016,"velocity":0.3937007874015748},{"duration":0.19354799999999273,"midi":37,"time":201.870564,"velocity":0.3937007874015748},{"duration":0.19354799999999273,"midi":38,"time":202.064112,"velocity":0.3937007874015748},{"duration":0.19354799999999273,"midi":45,"time":202.451208,"velocity":0.3937007874015748},{"duration":0.19354799999999273,"midi":40,"time":202.838304,"velocity":0.3937007874015748},{"duration":0.19354799999999273,"midi":40,"time":203.418948,"velocity":0.3937007874015748},{"duration":0.19354800000002115,"midi":38,"time":203.80604399999999,"velocity":0.3937007874015748},{"duration":0.19354799999999273,"midi":40,"time":203.999592,"velocity":0.3937007874015748},{"duration":0.19354799999999273,"midi":28,"time":204.386688,"velocity":0.3937007874015748},{"duration":0.19354799999999273,"midi":40,"time":204.967332,"velocity":0.3937007874015748},{"duration":0.19354799999999273,"midi":28,"time":205.16088,"velocity":0.3937007874015748},{"duration":0.19354800000002115,"midi":40,"time":205.35442799999998,"velocity":0.3937007874015748},{"duration":0.19354799999999273,"midi":43,"time":205.547976,"velocity":0.3937007874015748},{"duration":0.19354799999999273,"midi":45,"time":205.741524,"velocity":0.3937007874015748},{"duration":0.19354799999999273,"midi":31,"time":205.935072,"velocity":0.3937007874015748},{"duration":0.19354799999999273,"midi":31,"time":206.515716,"velocity":0.3937007874015748},{"duration":0.19354799999999273,"midi":43,"time":206.902812,"velocity":0.3937007874015748},{"duration":0.19354799999999273,"midi":38,"time":207.09636,"velocity":0.3937007874015748},{"duration":0.19354800000002115,"midi":36,"time":207.483456,"velocity":0.3937007874015748},{"duration":0.19354799999999273,"midi":40,"time":208.0641,"velocity":0.3937007874015748},{"duration":0.19354799999999273,"midi":36,"time":208.451196,"velocity":0.3937007874015748},{"duration":0.19354799999999273,"midi":48,"time":208.644744,"velocity":0.3937007874015748},{"duration":0.19354800000002115,"midi":40,"time":209.03184,"velocity":0.3937007874015748},{"duration":0.19354799999999273,"midi":43,"time":209.612484,"velocity":0.3937007874015748},{"duration":0.19354799999999273,"midi":43,"time":209.99958,"velocity":0.3937007874015748},{"duration":0.19354799999999273,"midi":36,"time":210.193128,"velocity":0.3937007874015748},{"duration":0.19354800000002115,"midi":38,"time":210.580224,"velocity":0.3937007874015748},{"duration":0.19354799999999273,"midi":45,"time":210.96732,"velocity":0.3937007874015748},{"duration":0.19354800000002115,"midi":40,"time":211.354416,"velocity":0.3937007874015748},{"duration":0.19354799999999273,"midi":40,"time":211.93506,"velocity":0.3937007874015748},{"duration":0.19354799999999273,"midi":40,"time":212.322156,"velocity":0.3937007874015748},{"duration":0.19354799999999273,"midi":40,"time":212.515704,"velocity":0.3937007874015748},{"duration":0.19354800000002115,"midi":28,"time":212.90279999999998,"velocity":0.3937007874015748},{"duration":0.19354799999999273,"midi":40,"time":213.483444,"velocity":0.3937007874015748},{"duration":0.19354799999999273,"midi":40,"time":213.87054,"velocity":0.3937007874015748},{"duration":0.19354799999999273,"midi":43,"time":214.064088,"velocity":0.3937007874015748},{"duration":0.19354800000002115,"midi":31,"time":214.45118399999998,"velocity":0.3937007874015748},{"duration":0.19354800000002115,"midi":31,"time":215.031828,"velocity":0.3937007874015748},{"duration":0.19354799999999273,"midi":43,"time":215.418924,"velocity":0.3937007874015748},{"duration":0.19354799999999273,"midi":38,"time":215.612472,"velocity":0.3937007874015748},{"duration":0.19354799999999273,"midi":36,"time":215.999568,"velocity":0.3937007874015748},{"duration":0.19354800000002115,"midi":40,"time":216.580212,"velocity":0.3937007874015748},{"duration":0.19354799999999273,"midi":36,"time":216.967308,"velocity":0.3937007874015748},{"duration":0.19354799999999273,"midi":48,"time":217.160856,"velocity":0.3937007874015748},{"duration":0.19354799999999273,"midi":40,"time":217.547952,"velocity":0.3937007874015748},{"duration":0.19354800000002115,"midi":43,"time":218.128596,"velocity":0.3937007874015748},{"duration":0.19354799999999273,"midi":43,"time":218.515692,"velocity":0.3937007874015748},{"duration":0.19354799999999273,"midi":36,"time":218.70924,"velocity":0.3937007874015748},{"duration":0.19354799999999273,"midi":38,"time":219.096336,"velocity":0.3937007874015748},{"duration":0.19354799999999273,"midi":45,"time":219.483432,"velocity":0.3937007874015748},{"duration":0.19354799999999273,"midi":40,"time":219.870528,"velocity":0.3937007874015748},{"duration":0.19354800000002115,"midi":40,"time":220.45117199999999,"velocity":0.3937007874015748},{"duration":0.19354799999999273,"midi":40,"time":220.838268,"velocity":0.3937007874015748},{"duration":0.19354799999999273,"midi":40,"time":221.031816,"velocity":0.3937007874015748},{"duration":0.19354799999999273,"midi":28,"time":221.418912,"velocity":0.3937007874015748},{"duration":8.516111999999993,"midi":28,"time":221.418912,"velocity":0.3937007874015748},{"duration":8.709659999999985,"midi":28,"time":221.418912,"velocity":0.3937007874015748},{"duration":0.19354800000002115,"midi":40,"time":221.99955599999998,"velocity":0.3937007874015748},{"duration":0.19354799999999273,"midi":40,"time":222.386652,"velocity":0.3937007874015748},{"duration":0.19354799999999273,"midi":43,"time":222.5802,"velocity":0.3937007874015748},{"duration":0.19354799999999273,"midi":31,"time":222.967296,"velocity":0.3937007874015748},{"duration":0.19354799999999273,"midi":31,"time":223.54794,"velocity":0.3937007874015748},{"duration":0.19354799999999273,"midi":43,"time":223.935036,"velocity":0.3937007874015748},{"duration":0.19354800000002115,"midi":38,"time":224.128584,"velocity":0.3937007874015748},{"duration":0.19354799999999273,"midi":36,"time":224.51568,"velocity":0.3937007874015748},{"duration":0.19354799999999273,"midi":40,"time":225.096324,"velocity":0.3937007874015748},{"duration":0.19354799999999273,"midi":36,"time":225.48342,"velocity":0.3937007874015748},{"duration":0.19354800000002115,"midi":48,"time":225.676968,"velocity":0.3937007874015748},{"duration":0.19354799999999273,"midi":40,"time":226.064064,"velocity":0.3937007874015748},{"duration":0.19354799999999273,"midi":43,"time":226.644708,"velocity":0.3937007874015748},{"duration":0.19354799999999273,"midi":43,"time":227.031804,"velocity":0.3937007874015748},{"duration":4.064507999999989,"midi":43,"time":227.031804,"velocity":0.3937007874015748},{"duration":4.2580560000000105,"midi":43,"time":227.031804,"velocity":0.3937007874015748},{"duration":0.19354800000002115,"midi":36,"time":227.225352,"velocity":0.3937007874015748},{"duration":0.19354799999999273,"midi":38,"time":227.612448,"velocity":0.3937007874015748},{"duration":0.19354800000002115,"midi":45,"time":227.999544,"velocity":0.3937007874015748},{"duration":0.19354799999999273,"midi":40,"time":228.38664,"velocity":0.3937007874015748},{"duration":0.19354799999999273,"midi":40,"time":228.967284,"velocity":0.3937007874015748},{"duration":0.19354799999999273,"midi":40,"time":229.35438,"velocity":0.3937007874015748},{"duration":0.19354800000002115,"midi":40,"time":229.54792799999998,"velocity":0.3937007874015748},{"duration":0.9677400000000205,"midi":40,"time":229.54792799999998,"velocity":0.3937007874015748},{"duration":1.1612880000000132,"midi":40,"time":229.54792799999998,"velocity":0.3937007874015748},{"duration":1.354836000000006,"midi":40,"time":229.54792799999998,"velocity":0.3937007874015748},{"duration":1.5483839999999987,"midi":40,"time":229.54792799999998,"velocity":0.3937007874015748}]},{"instrument":{"family":"piano","number":0,"name":"acoustic grand piano"},"notes":[{"duration":0.3870960000000001,"midi":31,"time":1.548384,"velocity":0.3937007874015748},{"duration":0.19354799999999983,"midi":31,"time":1.93548,"velocity":0.3937007874015748},{"duration":0.3870960000000001,"midi":31,"time":2.129028,"velocity":0.3937007874015748},{"duration":0.19354799999999983,"midi":31,"time":2.516124,"velocity":0.3937007874015748},{"duration":0.19354800000000028,"midi":31,"time":2.709672,"velocity":0.3937007874015748},{"duration":0.19354799999999983,"midi":31,"time":2.90322,"velocity":0.3937007874015748},{"duration":0.3870960000000001,"midi":36,"time":3.096768,"velocity":0.3937007874015748},{"duration":0.19354799999999983,"midi":36,"time":3.483864,"velocity":0.3937007874015748},{"duration":0.3870960000000001,"midi":36,"time":3.677412,"velocity":0.3937007874015748},{"duration":0.19354799999999983,"midi":36,"time":4.064508,"velocity":0.3937007874015748},{"duration":0.19354799999999983,"midi":36,"time":4.258056,"velocity":0.3937007874015748},{"duration":0.19354799999999983,"midi":36,"time":4.451604,"velocity":0.3937007874015748},{"duration":0.38709600000000055,"midi":36,"time":4.6451519999999995,"velocity":0.3937007874015748},{"duration":0.19354799999999983,"midi":36,"time":5.032248,"velocity":0.3937007874015748},{"duration":0.38709599999999966,"midi":36,"time":5.225796,"velocity":0.3937007874015748},{"duration":0.19354800000000072,"midi":36,"time":5.6128919999999995,"velocity":0.3937007874015748},{"duration":0.19354799999999983,"midi":36,"time":5.80644,"velocity":0.3937007874015748},{"duration":0.19354799999999983,"midi":36,"time":5.999988,"velocity":0.3937007874015748},{"duration":0.38709599999999966,"midi":38,"time":6.193536,"velocity":0.3937007874015748},{"duration":0.38709600000000055,"midi":38,"time":6.580632,"velocity":0.3937007874015748},{"duration":0.38709599999999966,"midi":28,"time":6.967728,"velocity":0.3937007874015748},{"duration":0.19354799999999983,"midi":28,"time":7.354824,"velocity":0.3937007874015748},{"duration":0.38709600000000055,"midi":28,"time":7.548372,"velocity":0.3937007874015748},{"duration":0.19354799999999983,"midi":28,"time":7.935468,"velocity":0.3937007874015748},{"duration":0.19354799999999983,"midi":28,"time":8.129016,"velocity":0.3937007874015748},{"duration":0.19354799999999983,"midi":28,"time":8.322564,"velocity":0.3937007874015748},{"duration":0.38709599999999966,"midi":28,"time":8.516112,"velocity":0.3937007874015748},{"duration":0.19354799999999983,"midi":28,"time":8.903208,"velocity":0.3937007874015748},{"duration":0.38709600000000144,"midi":28,"time":9.096756,"velocity":0.3937007874015748},{"duration":0.19354799999999983,"midi":28,"time":9.483852,"velocity":0.3937007874015748},{"duration":0.19354799999999983,"midi":28,"time":9.6774,"velocity":0.3937007874015748},{"duration":0.19354799999999983,"midi":28,"time":9.870948,"velocity":0.3937007874015748},{"duration":0.38709599999999966,"midi":31,"time":10.064496,"velocity":0.3937007874015748},{"duration":0.19354799999999983,"midi":31,"time":10.451592,"velocity":0.3937007874015748},{"duration":0.38709599999999966,"midi":31,"time":10.64514,"velocity":0.3937007874015748},{"duration":0.19354799999999983,"midi":31,"time":11.032236,"velocity":0.3937007874015748},{"duration":0.1935480000000016,"midi":31,"time":11.225783999999999,"velocity":0.3937007874015748},{"duration":0.19354799999999983,"midi":31,"time":11.419332,"velocity":0.3937007874015748},{"duration":0.38709599999999966,"midi":36,"time":11.61288,"velocity":0.3937007874015748},{"duration":0.19354799999999983,"midi":36,"time":11.999976,"velocity":0.3937007874015748},{"duration":0.38709599999999966,"midi":36,"time":12.193524,"velocity":0.3937007874015748},{"duration":0.19354799999999983,"midi":36,"time":12.58062,"velocity":0.3937007874015748},{"duration":0.19354799999999983,"midi":36,"time":12.774168,"velocity":0.3937007874015748},{"duration":0.19354799999999983,"midi":36,"time":12.967716,"velocity":0.3937007874015748},{"duration":0.38709600000000144,"midi":36,"time":13.161264,"velocity":0.3937007874015748},{"duration":0.19354799999999983,"midi":36,"time":13.54836,"velocity":0.3937007874015748},{"duration":0.38709599999999966,"midi":36,"time":13.741908,"velocity":0.3937007874015748},{"duration":0.19354799999999983,"midi":36,"time":14.129004,"velocity":0.3937007874015748},{"duration":0.19354799999999983,"midi":36,"time":14.322552,"velocity":0.3937007874015748},{"duration":0.19354799999999983,"midi":36,"time":14.5161,"velocity":0.3937007874015748},{"duration":0.38709599999999966,"midi":38,"time":14.709648,"velocity":0.3937007874015748},{"duration":0.38709600000000144,"midi":38,"time":15.096744,"velocity":0.3937007874015748},{"duration":0.38709599999999966,"midi":28,"time":15.48384,"velocity":0.3937007874015748},{"duration":0.19354799999999983,"midi":28,"time":15.870936,"velocity":0.3937007874015748},{"duration":0.38709599999999966,"midi":28,"time":16.064484,"velocity":0.3937007874015748},{"duration":0.19354799999999983,"midi":28,"time":16.45158,"velocity":0.3937007874015748},{"duration":0.19354799999999983,"midi":28,"time":16.645128,"velocity":0.3937007874015748},{"duration":0.19354799999999983,"midi":28,"time":16.838676,"velocity":0.3937007874015748},{"duration":0.38709599999999966,"midi":28,"time":17.032224,"velocity":0.3937007874015748},{"duration":0.19354799999999983,"midi":28,"time":17.41932,"velocity":0.3937007874015748},{"duration":0.38709599999999966,"midi":28,"time":17.612868,"velocity":0.3937007874015748},{"duration":0.19354799999999983,"midi":28,"time":17.999964,"velocity":0.3937007874015748},{"duration":0.19354799999999983,"midi":28,"time":18.193512,"velocity":0.3937007874015748},{"duration":0.19354799999999983,"midi":28,"time":18.387059999999998,"velocity":0.3937007874015748},{"duration":0.3870960000000032,"midi":31,"time":18.580607999999998,"velocity":0.3937007874015748},{"duration":0.19354799999999983,"midi":31,"time":18.967704,"velocity":0.3937007874015748},{"duration":0.38709599999999966,"midi":31,"time":19.161252,"velocity":0.3937007874015748},{"duration":0.19354799999999983,"midi":31,"time":19.548348,"velocity":0.3937007874015748},{"duration":0.19354799999999983,"midi":31,"time":19.741896,"velocity":0.3937007874015748},{"duration":0.19354799999999983,"midi":31,"time":19.935444,"velocity":0.3937007874015748},{"duration":0.38709599999999966,"midi":36,"time":20.128992,"velocity":0.3937007874015748},{"duration":0.19354799999999983,"midi":36,"time":20.516088,"velocity":0.3937007874015748},{"duration":0.38709599999999966,"midi":36,"time":20.709636,"velocity":0.3937007874015748},{"duration":0.19354799999999983,"midi":36,"time":21.096732,"velocity":0.3937007874015748},{"duration":0.19354799999999983,"midi":36,"time":21.29028,"velocity":0.3937007874015748},{"duration":0.19354799999999983,"midi":36,"time":21.483828,"velocity":0.3937007874015748},{"duration":0.38709599999999966,"midi":36,"time":21.677376,"velocity":0.3937007874015748},{"duration":0.19354799999999983,"midi":36,"time":22.064472,"velocity":0.3937007874015748},{"duration":0.38709599999999966,"midi":36,"time":22.25802,"velocity":0.3937007874015748},{"duration":0.19354800000000338,"midi":36,"time":22.645115999999998,"velocity":0.3937007874015748},{"duration":0.19354799999999983,"midi":36,"time":22.838664,"velocity":0.3937007874015748},{"duration":0.19354799999999983,"midi":36,"time":23.032212,"velocity":0.3937007874015748},{"duration":0.38709599999999966,"midi":38,"time":23.22576,"velocity":0.3937007874015748},{"duration":0.38709599999999966,"midi":38,"time":23.612856,"velocity":0.3937007874015748},{"duration":0.38709599999999966,"midi":28,"time":23.999952,"velocity":0.3937007874015748},{"duration":0.19354799999999983,"midi":28,"time":24.387048,"velocity":0.3937007874015748},{"duration":0.38709599999999966,"midi":28,"time":24.580596,"velocity":0.3937007874015748},{"duration":0.19354799999999983,"midi":28,"time":24.967692,"velocity":0.3937007874015748},{"duration":0.19354799999999983,"midi":28,"time":25.16124,"velocity":0.3937007874015748},{"duration":0.19354799999999983,"midi":28,"time":25.354788,"velocity":0.3937007874015748},{"duration":0.38709599999999966,"midi":28,"time":25.548336,"velocity":0.3937007874015748},{"duration":0.19354799999999983,"midi":28,"time":25.935432,"velocity":0.3937007874015748},{"duration":0.38709599999999966,"midi":28,"time":26.12898,"velocity":0.3937007874015748},{"duration":0.19354799999999983,"midi":28,"time":26.516075999999998,"velocity":0.3937007874015748},{"duration":0.19354800000000338,"midi":28,"time":26.709623999999998,"velocity":0.3937007874015748},{"duration":0.19354799999999983,"midi":28,"time":26.903172,"velocity":0.3937007874015748},{"duration":0.38709599999999966,"midi":31,"time":27.09672,"velocity":0.3937007874015748},{"duration":0.19354799999999983,"midi":31,"time":27.483816,"velocity":0.3937007874015748},{"duration":0.38709599999999966,"midi":31,"time":27.677364,"velocity":0.3937007874015748},{"duration":0.19354799999999983,"midi":31,"time":28.06446,"velocity":0.3937007874015748},{"duration":0.19354799999999983,"midi":31,"time":28.258008,"velocity":0.3937007874015748},{"duration":0.19354799999999983,"midi":31,"time":28.451556,"velocity":0.3937007874015748},{"duration":0.38709599999999966,"midi":36,"time":28.645104,"velocity":0.3937007874015748},{"duration":0.19354799999999983,"midi":36,"time":29.0322,"velocity":0.3937007874015748},{"duration":0.38709599999999966,"midi":36,"time":29.225748,"velocity":0.3937007874015748},{"duration":0.19354799999999983,"midi":36,"time":29.612844,"velocity":0.3937007874015748},{"duration":0.19354799999999983,"midi":36,"time":29.806392,"velocity":0.3937007874015748},{"duration":0.19354799999999983,"midi":36,"time":29.99994,"velocity":0.3937007874015748},{"duration":0.38709599999999966,"midi":36,"time":30.193488,"velocity":0.3937007874015748},{"duration":0.19354799999999983,"midi":36,"time":30.580583999999998,"velocity":0.3937007874015748},{"duration":0.3870960000000032,"midi":36,"time":30.774131999999998,"velocity":0.3937007874015748},{"duration":0.19354799999999983,"midi":36,"time":31.161228,"velocity":0.3937007874015748},{"duration":0.19354799999999983,"midi":36,"time":31.354776,"velocity":0.3937007874015748},{"duration":0.19354799999999983,"midi":36,"time":31.548324,"velocity":0.3937007874015748},{"duration":0.38709599999999966,"midi":38,"time":31.741872,"velocity":0.3937007874015748},{"duration":0.38709599999999966,"midi":38,"time":32.128968,"velocity":0.3937007874015748},{"duration":0.38709599999999966,"midi":28,"time":32.516064,"velocity":0.3937007874015748},{"duration":0.19354799999999983,"midi":28,"time":32.90316,"velocity":0.3937007874015748},{"duration":0.38709599999999966,"midi":28,"time":33.096708,"velocity":0.3937007874015748},{"duration":0.19354799999999983,"midi":28,"time":33.483804,"velocity":0.3937007874015748},{"duration":0.19354799999999983,"midi":28,"time":33.677352,"velocity":0.3937007874015748},{"duration":0.19354799999999983,"midi":28,"time":33.8709,"velocity":0.3937007874015748},{"duration":0.38709599999999966,"midi":28,"time":34.064448,"velocity":0.3937007874015748},{"duration":0.19354799999999983,"midi":28,"time":34.451544,"velocity":0.3937007874015748},{"duration":0.38709599999999966,"midi":28,"time":34.645092,"velocity":0.3937007874015748},{"duration":0.19354799999999983,"midi":28,"time":35.032188,"velocity":0.3937007874015748},{"duration":0.19354799999999983,"midi":28,"time":35.225736,"velocity":0.3937007874015748},{"duration":0.19354799999999983,"midi":28,"time":35.419284,"velocity":0.3937007874015748},{"duration":0.38709599999999966,"midi":31,"time":35.612832,"velocity":0.3937007874015748},{"duration":0.19354799999999983,"midi":31,"time":35.999928,"velocity":0.3937007874015748},{"duration":0.38709599999999966,"midi":31,"time":36.193476,"velocity":0.3937007874015748},{"duration":0.19354799999999983,"midi":31,"time":36.580572,"velocity":0.3937007874015748},{"duration":0.19354799999999983,"midi":31,"time":36.774119999999996,"velocity":0.3937007874015748},{"duration":0.19354799999999983,"midi":31,"time":36.967667999999996,"velocity":0.3937007874015748},{"duration":0.38709600000000677,"midi":36,"time":37.161215999999996,"velocity":0.3937007874015748},{"duration":0.19354799999999983,"midi":36,"time":37.548312,"velocity":0.3937007874015748},{"duration":0.38709599999999966,"midi":36,"time":37.74186,"velocity":0.3937007874015748},{"duration":0.19354799999999983,"midi":36,"time":38.128956,"velocity":0.3937007874015748},{"duration":0.19354799999999983,"midi":36,"time":38.322504,"velocity":0.3937007874015748},{"duration":0.19354799999999983,"midi":36,"time":38.516052,"velocity":0.3937007874015748},{"duration":0.38709599999999966,"midi":36,"time":38.7096,"velocity":0.3937007874015748},{"duration":0.19354799999999983,"midi":36,"time":39.096696,"velocity":0.3937007874015748},{"duration":0.38709599999999966,"midi":36,"time":39.290244,"velocity":0.3937007874015748},{"duration":0.19354799999999983,"midi":36,"time":39.67734,"velocity":0.3937007874015748},{"duration":0.19354799999999983,"midi":36,"time":39.870888,"velocity":0.3937007874015748},{"duration":0.19354799999999983,"midi":36,"time":40.064436,"velocity":0.3937007874015748},{"duration":0.38709599999999966,"midi":38,"time":40.257984,"velocity":0.3937007874015748},{"duration":0.38709599999999966,"midi":38,"time":40.64508,"velocity":0.3937007874015748},{"duration":0.38709599999999966,"midi":28,"time":41.032176,"velocity":0.3937007874015748},{"duration":0.19354799999999983,"midi":28,"time":41.419272,"velocity":0.3937007874015748},{"duration":0.38709599999999966,"midi":28,"time":41.61282,"velocity":0.3937007874015748},{"duration":0.19354799999999983,"midi":28,"time":41.999916,"velocity":0.3937007874015748},{"duration":0.19354799999999983,"midi":28,"time":42.193464,"velocity":0.3937007874015748},{"duration":0.19354799999999983,"midi":28,"time":42.387012,"velocity":0.3937007874015748},{"duration":0.38709599999999966,"midi":28,"time":42.58056,"velocity":0.3937007874015748},{"duration":0.19354799999999983,"midi":28,"time":42.967656,"velocity":0.3937007874015748},{"duration":0.38709599999999966,"midi":28,"time":43.161204,"velocity":0.3937007874015748},{"duration":0.19354799999999983,"midi":28,"time":43.5483,"velocity":0.3937007874015748},{"duration":0.19354799999999983,"midi":28,"time":43.741848,"velocity":0.3937007874015748},{"duration":0.19354799999999983,"midi":28,"time":43.935396,"velocity":0.3937007874015748},{"duration":0.38709599999999966,"midi":31,"time":44.128944,"velocity":0.3937007874015748},{"duration":0.19354799999999983,"midi":31,"time":44.51604,"velocity":0.3937007874015748},{"duration":0.38709599999999966,"midi":31,"time":44.709588,"velocity":0.3937007874015748},{"duration":0.19354799999999983,"midi":31,"time":45.096683999999996,"velocity":0.3937007874015748},{"duration":0.19354800000000694,"midi":31,"time":45.290231999999996,"velocity":0.3937007874015748},{"duration":0.19354799999999983,"midi":31,"time":45.48378,"velocity":0.3937007874015748},{"duration":0.38709599999999966,"midi":36,"time":45.677328,"velocity":0.3937007874015748},{"duration":0.19354799999999983,"midi":36,"time":46.064424,"velocity":0.3937007874015748},{"duration":0.38709599999999966,"midi":36,"time":46.257972,"velocity":0.3937007874015748},{"duration":0.19354799999999983,"midi":36,"time":46.645068,"velocity":0.3937007874015748},{"duration":0.19354799999999983,"midi":36,"time":46.838616,"velocity":0.3937007874015748},{"duration":0.19354799999999983,"midi":36,"time":47.032164,"velocity":0.3937007874015748},{"duration":0.38709599999999966,"midi":36,"time":47.225712,"velocity":0.3937007874015748},{"duration":0.19354799999999983,"midi":36,"time":47.612808,"velocity":0.3937007874015748},{"duration":0.38709599999999966,"midi":36,"time":47.806356,"velocity":0.3937007874015748},{"duration":0.19354799999999983,"midi":36,"time":48.193452,"velocity":0.3937007874015748},{"duration":0.19354799999999983,"midi":36,"time":48.387,"velocity":0.3937007874015748},{"duration":0.19354799999999983,"midi":36,"time":48.580548,"velocity":0.3937007874015748},{"duration":0.38709599999999966,"midi":38,"time":48.774096,"velocity":0.3937007874015748},{"duration":0.38709599999999966,"midi":38,"time":49.161192,"velocity":0.3937007874015748},{"duration":0.38709599999999966,"midi":28,"time":49.548288,"velocity":0.3937007874015748},{"duration":0.19354799999999983,"midi":28,"time":49.935384,"velocity":0.3937007874015748},{"duration":0.38709599999999966,"midi":28,"time":50.128932,"velocity":0.3937007874015748},{"duration":0.19354799999999983,"midi":28,"time":50.516028,"velocity":0.3937007874015748},{"duration":0.19354799999999983,"midi":28,"time":50.709576,"velocity":0.3937007874015748},{"duration":0.19354799999999983,"midi":28,"time":50.903124,"velocity":0.3937007874015748},{"duration":0.38709599999999966,"midi":28,"time":51.096672,"velocity":0.3937007874015748},{"duration":0.19354799999999983,"midi":28,"time":51.483768,"velocity":0.3937007874015748},{"duration":0.38709599999999966,"midi":28,"time":51.677316,"velocity":0.3937007874015748},{"duration":0.19354799999999983,"midi":28,"time":52.064412,"velocity":0.3937007874015748},{"duration":0.19354799999999983,"midi":28,"time":52.25796,"velocity":0.3937007874015748},{"duration":0.19354799999999983,"midi":28,"time":52.451508,"velocity":0.3937007874015748},{"duration":0.38709599999999966,"midi":31,"time":52.645056,"velocity":0.3937007874015748},{"duration":0.19354799999999983,"midi":31,"time":53.032151999999996,"velocity":0.3937007874015748},{"duration":0.38709599999999966,"midi":31,"time":53.225699999999996,"velocity":0.3937007874015748},{"duration":0.19354800000000694,"midi":31,"time":53.612795999999996,"velocity":0.3937007874015748},{"duration":0.19354799999999983,"midi":31,"time":53.806344,"velocity":0.3937007874015748},{"duration":0.19354799999999983,"midi":31,"time":53.999892,"velocity":0.3937007874015748},{"duration":0.38709599999999966,"midi":36,"time":54.19344,"velocity":0.3937007874015748},{"duration":0.19354799999999983,"midi":36,"time":54.580536,"velocity":0.3937007874015748},{"duration":0.38709599999999966,"midi":36,"time":54.774084,"velocity":0.3937007874015748},{"duration":0.19354799999999983,"midi":36,"time":55.16118,"velocity":0.3937007874015748},{"duration":0.19354799999999983,"midi":36,"time":55.354728,"velocity":0.3937007874015748},{"duration":0.19354799999999983,"midi":36,"time":55.548276,"velocity":0.3937007874015748},{"duration":0.38709599999999966,"midi":36,"time":55.741824,"velocity":0.3937007874015748},{"duration":0.19354799999999983,"midi":36,"time":56.12892,"velocity":0.3937007874015748},{"duration":0.38709599999999966,"midi":36,"time":56.322468,"velocity":0.3937007874015748},{"duration":0.19354799999999983,"midi":36,"time":56.709564,"velocity":0.3937007874015748},{"duration":0.19354799999999983,"midi":36,"time":56.903112,"velocity":0.3937007874015748},{"duration":0.19354799999999983,"midi":36,"time":57.09666,"velocity":0.3937007874015748},{"duration":0.38709599999999966,"midi":38,"time":57.290208,"velocity":0.3937007874015748},{"duration":0.38709599999999966,"midi":38,"time":57.677304,"velocity":0.3937007874015748},{"duration":0.38709599999999966,"midi":28,"time":58.0644,"velocity":0.3937007874015748},{"duration":0.19354799999999983,"midi":28,"time":58.451496,"velocity":0.3937007874015748},{"duration":0.38709599999999966,"midi":28,"time":58.645044,"velocity":0.3937007874015748},{"duration":0.19354799999999983,"midi":28,"time":59.03214,"velocity":0.3937007874015748},{"duration":0.19354799999999983,"midi":28,"time":59.225688,"velocity":0.3937007874015748},{"duration":0.19354799999999983,"midi":28,"time":59.419236,"velocity":0.3937007874015748},{"duration":0.38709599999999966,"midi":28,"time":59.612784,"velocity":0.3937007874015748},{"duration":0.19354799999999983,"midi":28,"time":59.99988,"velocity":0.3937007874015748},{"duration":0.38709599999999966,"midi":28,"time":60.193428,"velocity":0.3937007874015748},{"duration":0.19354799999999983,"midi":28,"time":60.580524,"velocity":0.3937007874015748},{"duration":0.19354799999999983,"midi":28,"time":60.774072,"velocity":0.3937007874015748},{"duration":0.19354799999999983,"midi":28,"time":60.96762,"velocity":0.3937007874015748},{"duration":0.38709599999999966,"midi":31,"time":61.161167999999996,"velocity":0.3937007874015748},{"duration":0.19354799999999983,"midi":31,"time":61.548263999999996,"velocity":0.3937007874015748},{"duration":0.38709600000000677,"midi":31,"time":61.741811999999996,"velocity":0.3937007874015748},{"duration":0.19354799999999983,"midi":31,"time":62.128908,"velocity":0.3937007874015748},{"duration":0.19354799999999983,"midi":31,"time":62.322456,"velocity":0.3937007874015748},{"duration":0.19354799999999983,"midi":31,"time":62.516004,"velocity":0.3937007874015748},{"duration":0.38709599999999966,"midi":36,"time":62.709552,"velocity":0.3937007874015748},{"duration":0.19354799999999983,"midi":36,"time":63.096648,"velocity":0.3937007874015748},{"duration":0.38709599999999966,"midi":36,"time":63.290196,"velocity":0.3937007874015748},{"duration":0.19354799999999983,"midi":36,"time":63.677292,"velocity":0.3937007874015748},{"duration":0.19354799999999273,"midi":36,"time":63.87084,"velocity":0.3937007874015748},{"duration":0.19354800000000694,"midi":36,"time":64.064388,"velocity":0.3937007874015748},{"duration":0.38709599999999966,"midi":36,"time":64.257936,"velocity":0.3937007874015748},{"duration":0.19354799999999273,"midi":36,"time":64.645032,"velocity":0.3937007874015748},{"duration":0.38709599999999966,"midi":36,"time":64.83858,"velocity":0.3937007874015748},{"duration":0.19354800000000694,"midi":36,"time":65.22567599999999,"velocity":0.3937007874015748},{"duration":0.19354799999999273,"midi":36,"time":65.419224,"velocity":0.3937007874015748},{"duration":0.19354800000000694,"midi":36,"time":65.61277199999999,"velocity":0.3937007874015748},{"duration":0.38709599999999966,"midi":38,"time":65.80632,"velocity":0.3937007874015748},{"duration":0.38709599999999966,"midi":38,"time":66.193416,"velocity":0.3937007874015748},{"duration":0.38709599999999966,"midi":28,"time":66.580512,"velocity":0.3937007874015748},{"duration":0.19354800000000694,"midi":28,"time":66.967608,"velocity":0.3937007874015748},{"duration":0.38709599999999966,"midi":28,"time":67.161156,"velocity":0.3937007874015748},{"duration":0.19354799999999273,"midi":28,"time":67.548252,"velocity":0.3937007874015748},{"duration":0.19354800000000694,"midi":28,"time":67.7418,"velocity":0.3937007874015748},{"duration":0.19354799999999273,"midi":28,"time":67.935348,"velocity":0.3937007874015748},{"duration":0.38709599999999966,"midi":28,"time":68.128896,"velocity":0.3937007874015748},{"duration":0.19354800000000694,"midi":28,"time":68.515992,"velocity":0.3937007874015748},{"duration":0.38709599999999966,"midi":28,"time":68.70954,"velocity":0.3937007874015748},{"duration":0.19354799999999273,"midi":28,"time":69.096636,"velocity":0.3937007874015748},{"duration":0.19354800000000694,"midi":28,"time":69.290184,"velocity":0.3937007874015748},{"duration":0.19354799999999273,"midi":28,"time":69.483732,"velocity":0.3937007874015748},{"duration":0.38709599999999966,"midi":31,"time":69.67728,"velocity":0.3937007874015748},{"duration":0.19354800000000694,"midi":31,"time":70.064376,"velocity":0.3937007874015748},{"duration":0.38709599999999966,"midi":31,"time":70.257924,"velocity":0.3937007874015748},{"duration":0.19354799999999273,"midi":31,"time":70.64502,"velocity":0.3937007874015748},{"duration":0.19354800000000694,"midi":31,"time":70.838568,"velocity":0.3937007874015748},{"duration":0.19354799999999273,"midi":31,"time":71.032116,"velocity":0.3937007874015748},{"duration":0.38709599999999966,"midi":36,"time":71.225664,"velocity":0.3937007874015748},{"duration":0.19354800000000694,"midi":36,"time":71.61276,"velocity":0.3937007874015748},{"duration":0.38709599999999966,"midi":36,"time":71.806308,"velocity":0.3937007874015748},{"duration":0.19354799999999273,"midi":36,"time":72.193404,"velocity":0.3937007874015748},{"duration":0.19354800000000694,"midi":36,"time":72.386952,"velocity":0.3937007874015748},{"duration":0.19354799999999273,"midi":36,"time":72.5805,"velocity":0.3937007874015748},{"duration":0.38709599999999966,"midi":36,"time":72.774048,"velocity":0.3937007874015748},{"duration":0.19354800000000694,"midi":36,"time":73.161144,"velocity":0.3937007874015748},{"duration":0.38709599999999966,"midi":36,"time":73.354692,"velocity":0.3937007874015748},{"duration":0.19354799999999273,"midi":36,"time":73.741788,"velocity":0.3937007874015748},{"duration":0.19354800000000694,"midi":36,"time":73.93533599999999,"velocity":0.3937007874015748},{"duration":0.19354799999999273,"midi":36,"time":74.128884,"velocity":0.3937007874015748},{"duration":0.3870960000000139,"midi":38,"time":74.32243199999999,"velocity":0.3937007874015748},{"duration":0.38709599999999966,"midi":38,"time":74.709528,"velocity":0.3937007874015748},{"duration":0.38709599999999966,"midi":28,"time":75.096624,"velocity":0.3937007874015748},{"duration":0.19354799999999273,"midi":28,"time":75.48372,"velocity":0.3937007874015748},{"duration":0.38709599999999966,"midi":28,"time":75.677268,"velocity":0.3937007874015748},{"duration":0.19354800000000694,"midi":28,"time":76.064364,"velocity":0.3937007874015748},{"duration":0.19354799999999273,"midi":28,"time":76.257912,"velocity":0.3937007874015748},{"duration":0.19354800000000694,"midi":28,"time":76.45146,"velocity":0.3937007874015748},{"duration":0.38709599999999966,"midi":28,"time":76.645008,"velocity":0.3937007874015748},{"duration":0.19354799999999273,"midi":28,"time":77.032104,"velocity":0.3937007874015748},{"duration":0.38709599999999966,"midi":28,"time":77.225652,"velocity":0.3937007874015748},{"duration":0.19354800000000694,"midi":28,"time":77.612748,"velocity":0.3937007874015748},{"duration":0.19354799999999273,"midi":28,"time":77.806296,"velocity":0.3937007874015748},{"duration":0.19354800000000694,"midi":28,"time":77.999844,"velocity":0.3937007874015748},{"duration":0.38709599999999966,"midi":31,"time":78.193392,"velocity":0.3937007874015748},{"duration":0.19354799999999273,"midi":31,"time":78.580488,"velocity":0.3937007874015748},{"duration":0.38709599999999966,"midi":31,"time":78.774036,"velocity":0.3937007874015748},{"duration":0.19354800000000694,"midi":31,"time":79.161132,"velocity":0.3937007874015748},{"duration":0.19354799999999273,"midi":31,"time":79.35468,"velocity":0.3937007874015748},{"duration":0.19354800000000694,"midi":31,"time":79.548228,"velocity":0.3937007874015748},{"duration":0.38709599999999966,"midi":36,"time":79.741776,"velocity":0.3937007874015748},{"duration":0.19354799999999273,"midi":36,"time":80.128872,"velocity":0.3937007874015748},{"duration":0.38709599999999966,"midi":36,"time":80.32242,"velocity":0.3937007874015748},{"duration":0.19354800000000694,"midi":36,"time":80.709516,"velocity":0.3937007874015748},{"duration":0.19354799999999273,"midi":36,"time":80.903064,"velocity":0.3937007874015748},{"duration":0.19354800000000694,"midi":36,"time":81.096612,"velocity":0.3937007874015748},{"duration":0.38709599999999966,"midi":36,"time":81.29016,"velocity":0.3937007874015748},{"duration":0.19354799999999273,"midi":36,"time":81.677256,"velocity":0.3937007874015748},{"duration":0.38709599999999966,"midi":36,"time":81.87080399999999,"velocity":0.3937007874015748},{"duration":0.19354800000000694,"midi":36,"time":82.25789999999999,"velocity":0.3937007874015748},{"duration":0.19354800000000694,"midi":36,"time":82.451448,"velocity":0.3937007874015748},{"duration":0.19354799999999273,"midi":36,"time":82.644996,"velocity":0.3937007874015748},{"duration":0.38709599999999966,"midi":38,"time":82.838544,"velocity":0.3937007874015748},{"duration":0.38709599999999966,"midi":38,"time":83.22564,"velocity":0.3937007874015748},{"duration":0.38709599999999966,"midi":28,"time":83.612736,"velocity":0.3937007874015748},{"duration":0.19354800000000694,"midi":28,"time":83.999832,"velocity":0.3937007874015748},{"duration":0.38709599999999966,"midi":28,"time":84.19338,"velocity":0.3937007874015748},{"duration":0.19354799999999273,"midi":28,"time":84.580476,"velocity":0.3937007874015748},{"duration":0.19354800000000694,"midi":28,"time":84.774024,"velocity":0.3937007874015748},{"duration":0.19354799999999273,"midi":28,"time":84.967572,"velocity":0.3937007874015748},{"duration":0.38709599999999966,"midi":28,"time":85.16112,"velocity":0.3937007874015748},{"duration":0.19354800000000694,"midi":28,"time":85.548216,"velocity":0.3937007874015748},{"duration":0.38709599999999966,"midi":28,"time":85.741764,"velocity":0.3937007874015748},{"duration":0.19354799999999273,"midi":28,"time":86.12886,"velocity":0.3937007874015748},{"duration":0.19354800000000694,"midi":28,"time":86.322408,"velocity":0.3937007874015748},{"duration":0.19354799999999273,"midi":28,"time":86.515956,"velocity":0.3937007874015748},{"duration":0.38709599999999966,"midi":31,"time":86.709504,"velocity":0.3937007874015748},{"duration":0.19354800000000694,"midi":31,"time":87.0966,"velocity":0.3937007874015748},{"duration":0.38709599999999966,"midi":31,"time":87.290148,"velocity":0.3937007874015748},{"duration":0.19354799999999273,"midi":31,"time":87.677244,"velocity":0.3937007874015748},{"duration":0.19354800000000694,"midi":31,"time":87.870792,"velocity":0.3937007874015748},{"duration":0.19354799999999273,"midi":31,"time":88.06434,"velocity":0.3937007874015748},{"duration":0.38709599999999966,"midi":36,"time":88.257888,"velocity":0.3937007874015748},{"duration":0.19354800000000694,"midi":36,"time":88.644984,"velocity":0.3937007874015748},{"duration":0.38709599999999966,"midi":36,"time":88.838532,"velocity":0.3937007874015748},{"duration":0.19354799999999273,"midi":36,"time":89.225628,"velocity":0.3937007874015748},{"duration":0.19354800000000694,"midi":36,"time":89.419176,"velocity":0.3937007874015748},{"duration":0.19354799999999273,"midi":36,"time":89.612724,"velocity":0.3937007874015748},{"duration":0.38709599999999966,"midi":36,"time":89.80627199999999,"velocity":0.3937007874015748},{"duration":0.19354800000000694,"midi":36,"time":90.19336799999999,"velocity":0.3937007874015748},{"duration":0.38709599999999966,"midi":36,"time":90.386916,"velocity":0.3937007874015748},{"duration":0.19354800000000694,"midi":36,"time":90.774012,"velocity":0.3937007874015748},{"duration":0.19354799999999273,"midi":36,"time":90.96756,"velocity":0.3937007874015748},{"duration":0.19354800000000694,"midi":36,"time":91.161108,"velocity":0.3937007874015748},{"duration":0.38709599999999966,"midi":38,"time":91.354656,"velocity":0.3937007874015748},{"duration":0.38709599999999966,"midi":38,"time":91.741752,"velocity":0.3937007874015748},{"duration":0.38709599999999966,"midi":28,"time":92.128848,"velocity":0.3937007874015748},{"duration":0.19354799999999273,"midi":28,"time":92.515944,"velocity":0.3937007874015748},{"duration":0.38709599999999966,"midi":28,"time":92.709492,"velocity":0.3937007874015748},{"duration":0.19354800000000694,"midi":28,"time":93.096588,"velocity":0.3937007874015748},{"duration":0.19354799999999273,"midi":28,"time":93.290136,"velocity":0.3937007874015748},{"duration":0.19354800000000694,"midi":28,"time":93.483684,"velocity":0.3937007874015748},{"duration":0.38709599999999966,"midi":28,"time":93.677232,"velocity":0.3937007874015748},{"duration":0.19354799999999273,"midi":28,"time":94.064328,"velocity":0.3937007874015748},{"duration":0.38709599999999966,"midi":28,"time":94.257876,"velocity":0.3937007874015748},{"duration":0.19354800000000694,"midi":28,"time":94.644972,"velocity":0.3937007874015748},{"duration":0.19354799999999273,"midi":28,"time":94.83852,"velocity":0.3937007874015748},{"duration":0.19354800000000694,"midi":28,"time":95.032068,"velocity":0.3937007874015748},{"duration":0.38709599999999966,"midi":31,"time":95.225616,"velocity":0.3937007874015748},{"duration":0.19354799999999273,"midi":31,"time":95.612712,"velocity":0.3937007874015748},{"duration":0.38709599999999966,"midi":31,"time":95.80626,"velocity":0.3937007874015748},{"duration":0.19354800000000694,"midi":31,"time":96.193356,"velocity":0.3937007874015748},{"duration":0.19354799999999273,"midi":31,"time":96.386904,"velocity":0.3937007874015748},{"duration":0.19354800000000694,"midi":31,"time":96.580452,"velocity":0.3937007874015748},{"duration":0.38709599999999966,"midi":36,"time":96.774,"velocity":0.3937007874015748},{"duration":0.19354799999999273,"midi":36,"time":97.161096,"velocity":0.3937007874015748},{"duration":0.38709599999999966,"midi":36,"time":97.354644,"velocity":0.3937007874015748},{"duration":0.19354800000000694,"midi":36,"time":97.74174,"velocity":0.3937007874015748},{"duration":0.19354799999999273,"midi":36,"time":97.935288,"velocity":0.3937007874015748},{"duration":0.19354800000000694,"midi":36,"time":98.12883599999999,"velocity":0.3937007874015748},{"duration":0.38709599999999966,"midi":36,"time":98.322384,"velocity":0.3937007874015748},{"duration":0.19354799999999273,"midi":36,"time":98.70948,"velocity":0.3937007874015748},{"duration":0.3870960000000139,"midi":36,"time":98.90302799999999,"velocity":0.3937007874015748},{"duration":0.19354799999999273,"midi":36,"time":99.290124,"velocity":0.3937007874015748},{"duration":0.19354800000000694,"midi":36,"time":99.483672,"velocity":0.3937007874015748},{"duration":0.19354799999999273,"midi":36,"time":99.67722,"velocity":0.3937007874015748},{"duration":0.38709599999999966,"midi":38,"time":99.870768,"velocity":0.3937007874015748},{"duration":0.38709599999999966,"midi":38,"time":100.257864,"velocity":0.3937007874015748},{"duration":0.19354800000000694,"midi":28,"time":100.64496,"velocity":0.3937007874015748},{"duration":0.19354800000000694,"midi":35,"time":102.967536,"velocity":0.3937007874015748},{"duration":0.19354799999999273,"midi":36,"time":103.161084,"velocity":0.3937007874015748},{"duration":0.19354800000000694,"midi":38,"time":103.354632,"velocity":0.3937007874015748},{"duration":0.19354799999999273,"midi":40,"time":103.54818,"velocity":0.3937007874015748},{"duration":0.38709599999999966,"midi":31,"time":103.741728,"velocity":0.3937007874015748},{"duration":0.19354800000000694,"midi":31,"time":104.128824,"velocity":0.3937007874015748},{"duration":0.38709599999999966,"midi":31,"time":104.322372,"velocity":0.3937007874015748},{"duration":0.19354799999999273,"midi":31,"time":104.709468,"velocity":0.3937007874015748},{"duration":0.19354800000000694,"midi":31,"time":104.903016,"velocity":0.3937007874015748},{"duration":0.19354799999999273,"midi":31,"time":105.096564,"velocity":0.3937007874015748},{"duration":0.38709599999999966,"midi":36,"time":105.290112,"velocity":0.3937007874015748},{"duration":0.19354800000000694,"midi":36,"time":105.677208,"velocity":0.3937007874015748},{"duration":0.38709599999999966,"midi":36,"time":105.870756,"velocity":0.3937007874015748},{"duration":0.19354799999999273,"midi":36,"time":106.257852,"velocity":0.3937007874015748},{"duration":0.19354800000000694,"midi":36,"time":106.45139999999999,"velocity":0.3937007874015748},{"duration":0.19354799999999273,"midi":36,"time":106.644948,"velocity":0.3937007874015748},{"duration":0.38709599999999966,"midi":36,"time":106.83849599999999,"velocity":0.3937007874015748},{"duration":0.19354800000000694,"midi":36,"time":107.22559199999999,"velocity":0.3937007874015748},{"duration":0.38709599999999966,"midi":36,"time":107.41914,"velocity":0.3937007874015748},{"duration":0.19354800000000694,"midi":36,"time":107.806236,"velocity":0.3937007874015748},{"duration":0.19354799999999273,"midi":36,"time":107.999784,"velocity":0.3937007874015748},{"duration":0.19354800000000694,"midi":36,"time":108.193332,"velocity":0.3937007874015748},{"duration":0.38709599999999966,"midi":38,"time":108.38688,"velocity":0.3937007874015748},{"duration":0.38709599999999966,"midi":38,"time":108.773976,"velocity":0.3937007874015748},{"duration":0.38709599999999966,"midi":28,"time":109.161072,"velocity":0.3937007874015748},{"duration":0.19354799999999273,"midi":28,"time":109.548168,"velocity":0.3937007874015748},{"duration":0.38709599999999966,"midi":28,"time":109.741716,"velocity":0.3937007874015748},{"duration":0.19354800000000694,"midi":28,"time":110.128812,"velocity":0.3937007874015748},{"duration":0.19354799999999273,"midi":28,"time":110.32236,"velocity":0.3937007874015748},{"duration":0.19354800000000694,"midi":28,"time":110.515908,"velocity":0.3937007874015748},{"duration":0.38709599999999966,"midi":28,"time":110.709456,"velocity":0.3937007874015748},{"duration":0.19354799999999273,"midi":28,"time":111.096552,"velocity":0.3937007874015748},{"duration":0.38709599999999966,"midi":28,"time":111.2901,"velocity":0.3937007874015748},{"duration":0.19354800000000694,"midi":28,"time":111.677196,"velocity":0.3937007874015748},{"duration":0.19354799999999273,"midi":28,"time":111.870744,"velocity":0.3937007874015748},{"duration":0.19354800000000694,"midi":28,"time":112.064292,"velocity":0.3937007874015748},{"duration":0.38709599999999966,"midi":31,"time":112.25784,"velocity":0.3937007874015748},{"duration":0.19354799999999273,"midi":31,"time":112.644936,"velocity":0.3937007874015748},{"duration":0.38709599999999966,"midi":31,"time":112.838484,"velocity":0.3937007874015748},{"duration":0.19354800000000694,"midi":31,"time":113.22558,"velocity":0.3937007874015748},{"duration":0.19354799999999273,"midi":31,"time":113.419128,"velocity":0.3937007874015748},{"duration":0.19354800000000694,"midi":31,"time":113.612676,"velocity":0.3937007874015748},{"duration":0.38709599999999966,"midi":36,"time":113.806224,"velocity":0.3937007874015748},{"duration":0.19354799999999273,"midi":36,"time":114.19332,"velocity":0.3937007874015748},{"duration":0.38709599999999966,"midi":36,"time":114.38686799999999,"velocity":0.3937007874015748},{"duration":0.19354800000000694,"midi":36,"time":114.77396399999999,"velocity":0.3937007874015748},{"duration":0.19354799999999273,"midi":36,"time":114.967512,"velocity":0.3937007874015748},{"duration":0.19354800000000694,"midi":36,"time":115.16105999999999,"velocity":0.3937007874015748},{"duration":0.38709599999999966,"midi":36,"time":115.354608,"velocity":0.3937007874015748},{"duration":0.19354800000000694,"midi":36,"time":115.741704,"velocity":0.3937007874015748},{"duration":0.38709599999999966,"midi":36,"time":115.935252,"velocity":0.3937007874015748},{"duration":0.19354799999999273,"midi":36,"time":116.322348,"velocity":0.3937007874015748},{"duration":0.19354800000000694,"midi":36,"time":116.515896,"velocity":0.3937007874015748},{"duration":0.19354799999999273,"midi":36,"time":116.709444,"velocity":0.3937007874015748},{"duration":0.38709599999999966,"midi":38,"time":116.902992,"velocity":0.3937007874015748},{"duration":0.38709599999999966,"midi":38,"time":117.290088,"velocity":0.3937007874015748},{"duration":0.38709599999999966,"midi":28,"time":117.677184,"velocity":0.3937007874015748},{"duration":0.19354800000000694,"midi":28,"time":118.06428,"velocity":0.3937007874015748},{"duration":0.38709599999999966,"midi":28,"time":118.257828,"velocity":0.3937007874015748},{"duration":0.19354799999999273,"midi":28,"time":118.644924,"velocity":0.3937007874015748},{"duration":0.19354800000000694,"midi":28,"time":118.838472,"velocity":0.3937007874015748},{"duration":0.19354799999999273,"midi":28,"time":119.03202,"velocity":0.3937007874015748},{"duration":0.38709599999999966,"midi":28,"time":119.225568,"velocity":0.3937007874015748},{"duration":0.19354800000000694,"midi":28,"time":119.612664,"velocity":0.3937007874015748},{"duration":0.38709599999999966,"midi":28,"time":119.806212,"velocity":0.3937007874015748},{"duration":0.19354799999999273,"midi":28,"time":120.193308,"velocity":0.3937007874015748},{"duration":0.19354800000000694,"midi":28,"time":120.386856,"velocity":0.3937007874015748},{"duration":0.19354799999999273,"midi":28,"time":120.580404,"velocity":0.3937007874015748},{"duration":0.38709599999999966,"midi":31,"time":120.773952,"velocity":0.3937007874015748},{"duration":0.19354800000000694,"midi":31,"time":121.161048,"velocity":0.3937007874015748},{"duration":0.38709599999999966,"midi":31,"time":121.354596,"velocity":0.3937007874015748},{"duration":0.19354799999999273,"midi":31,"time":121.741692,"velocity":0.3937007874015748},{"duration":0.19354800000000694,"midi":31,"time":121.93524,"velocity":0.3937007874015748},{"duration":0.19354799999999273,"midi":31,"time":122.128788,"velocity":0.3937007874015748},{"duration":0.38709599999999966,"midi":36,"time":122.32233599999999,"velocity":0.3937007874015748},{"duration":0.19354800000000694,"midi":36,"time":122.70943199999999,"velocity":0.3937007874015748},{"duration":0.38709599999999966,"midi":36,"time":122.90298,"velocity":0.3937007874015748},{"duration":0.19354799999999273,"midi":36,"time":123.290076,"velocity":0.3937007874015748},{"duration":0.19354800000000694,"midi":36,"time":123.48362399999999,"velocity":0.3937007874015748},{"duration":0.19354800000000694,"midi":36,"time":123.677172,"velocity":0.3937007874015748},{"duration":0.38709599999999966,"midi":36,"time":123.87072,"velocity":0.3937007874015748},{"duration":0.19354799999999273,"midi":36,"time":124.257816,"velocity":0.3937007874015748},{"duration":0.38709599999999966,"midi":36,"time":124.451364,"velocity":0.3937007874015748},{"duration":0.19354800000000694,"midi":36,"time":124.83846,"velocity":0.3937007874015748},{"duration":0.19354799999999273,"midi":36,"time":125.032008,"velocity":0.3937007874015748},{"duration":0.19354800000000694,"midi":36,"time":125.225556,"velocity":0.3937007874015748},{"duration":0.38709599999999966,"midi":38,"time":125.419104,"velocity":0.3937007874015748},{"duration":0.38709599999999966,"midi":38,"time":125.8062,"velocity":0.3937007874015748},{"duration":0.38709599999999966,"midi":28,"time":126.193296,"velocity":0.3937007874015748},{"duration":0.19354799999999273,"midi":28,"time":126.580392,"velocity":0.3937007874015748},{"duration":0.38709599999999966,"midi":28,"time":126.77394,"velocity":0.3937007874015748},{"duration":0.19354800000000694,"midi":28,"time":127.161036,"velocity":0.3937007874015748},{"duration":0.19354799999999273,"midi":28,"time":127.354584,"velocity":0.3937007874015748},{"duration":0.19354800000000694,"midi":28,"time":127.548132,"velocity":0.3937007874015748},{"duration":0.38709599999998545,"midi":28,"time":127.74168,"velocity":0.3937007874015748},{"duration":0.19354800000002115,"midi":28,"time":128.128776,"velocity":0.3937007874015748},{"duration":0.38709599999998545,"midi":28,"time":128.322324,"velocity":0.3937007874015748},{"duration":0.19354799999999273,"midi":28,"time":128.70942,"velocity":0.3937007874015748},{"duration":0.19354800000002115,"midi":28,"time":128.902968,"velocity":0.3937007874015748},{"duration":0.19354799999999273,"midi":28,"time":129.096516,"velocity":0.3937007874015748},{"duration":0.38709599999998545,"midi":31,"time":129.290064,"velocity":0.3937007874015748},{"duration":0.19354800000002115,"midi":31,"time":129.67716,"velocity":0.3937007874015748},{"duration":0.38709599999998545,"midi":31,"time":129.870708,"velocity":0.3937007874015748},{"duration":0.19354799999999273,"midi":31,"time":130.257804,"velocity":0.3937007874015748},{"duration":0.19354800000002115,"midi":31,"time":130.45135199999999,"velocity":0.3937007874015748},{"duration":0.19354799999999273,"midi":31,"time":130.6449,"velocity":0.3937007874015748},{"duration":0.38709599999998545,"midi":36,"time":130.838448,"velocity":0.3937007874015748},{"duration":0.19354800000002115,"midi":36,"time":131.22554399999999,"velocity":0.3937007874015748},{"duration":0.38709599999998545,"midi":36,"time":131.419092,"velocity":0.3937007874015748},{"duration":0.19354799999999273,"midi":36,"time":131.806188,"velocity":0.3937007874015748},{"duration":0.19354800000002115,"midi":36,"time":131.99973599999998,"velocity":0.3937007874015748},{"duration":0.19354799999999273,"midi":36,"time":132.193284,"velocity":0.3937007874015748},{"duration":0.3870960000000139,"midi":36,"time":132.386832,"velocity":0.3937007874015748},{"duration":0.19354799999999273,"midi":36,"time":132.773928,"velocity":0.3937007874015748},{"duration":0.38709599999998545,"midi":36,"time":132.967476,"velocity":0.3937007874015748},{"duration":0.19354800000002115,"midi":36,"time":133.354572,"velocity":0.3937007874015748},{"duration":0.19354799999999273,"midi":36,"time":133.54812,"velocity":0.3937007874015748},{"duration":0.19354799999999273,"midi":36,"time":133.741668,"velocity":0.3937007874015748},{"duration":0.3870960000000139,"midi":38,"time":133.935216,"velocity":0.3937007874015748},{"duration":0.38709599999998545,"midi":38,"time":134.322312,"velocity":0.3937007874015748},{"duration":0.3870960000000139,"midi":28,"time":134.709408,"velocity":0.3937007874015748},{"duration":0.19354799999999273,"midi":28,"time":135.096504,"velocity":0.3937007874015748},{"duration":0.38709599999998545,"midi":28,"time":135.290052,"velocity":0.3937007874015748},{"duration":0.19354800000002115,"midi":28,"time":135.677148,"velocity":0.3937007874015748},{"duration":0.19354799999999273,"midi":28,"time":135.870696,"velocity":0.3937007874015748},{"duration":0.19354799999999273,"midi":28,"time":136.064244,"velocity":0.3937007874015748},{"duration":0.3870960000000139,"midi":28,"time":136.257792,"velocity":0.3937007874015748},{"duration":0.19354799999999273,"midi":28,"time":136.644888,"velocity":0.3937007874015748},{"duration":0.38709599999998545,"midi":28,"time":136.838436,"velocity":0.3937007874015748},{"duration":0.19354800000002115,"midi":28,"time":137.225532,"velocity":0.3937007874015748},{"duration":0.19354799999999273,"midi":28,"time":137.41908,"velocity":0.3937007874015748},{"duration":0.19354799999999273,"midi":28,"time":137.612628,"velocity":0.3937007874015748},{"duration":0.3870960000000139,"midi":31,"time":137.806176,"velocity":0.3937007874015748},{"duration":0.19354799999999273,"midi":31,"time":138.193272,"velocity":0.3937007874015748},{"duration":0.38709599999998545,"midi":31,"time":138.38682,"velocity":0.3937007874015748},{"duration":0.19354800000002115,"midi":31,"time":138.77391599999999,"velocity":0.3937007874015748},{"duration":0.19354799999999273,"midi":31,"time":138.967464,"velocity":0.3937007874015748},{"duration":0.19354799999999273,"midi":31,"time":139.161012,"velocity":0.3937007874015748},{"duration":0.3870960000000139,"midi":36,"time":139.35456,"velocity":0.3937007874015748},{"duration":0.19354799999999273,"midi":36,"time":139.741656,"velocity":0.3937007874015748},{"duration":0.38709599999998545,"midi":36,"time":139.935204,"velocity":0.3937007874015748},{"duration":0.19354800000002115,"midi":36,"time":140.32229999999998,"velocity":0.3937007874015748},{"duration":0.19354799999999273,"midi":36,"time":140.515848,"velocity":0.3937007874015748},{"duration":0.19354799999999273,"midi":36,"time":140.709396,"velocity":0.3937007874015748},{"duration":0.3870960000000139,"midi":36,"time":140.902944,"velocity":0.3937007874015748},{"duration":0.19354799999999273,"midi":36,"time":141.29004,"velocity":0.3937007874015748},{"duration":0.3870960000000139,"midi":36,"time":141.483588,"velocity":0.3937007874015748},{"duration":0.19354799999999273,"midi":36,"time":141.870684,"velocity":0.3937007874015748},{"duration":0.19354799999999273,"midi":36,"time":142.064232,"velocity":0.3937007874015748},{"duration":0.19354799999999273,"midi":36,"time":142.25778,"velocity":0.3937007874015748},{"duration":0.3870960000000139,"midi":38,"time":142.451328,"velocity":0.3937007874015748},{"duration":0.38709599999998545,"midi":38,"time":142.838424,"velocity":0.3937007874015748},{"duration":0.3870960000000139,"midi":28,"time":143.22552,"velocity":0.3937007874015748},{"duration":0.19354799999999273,"midi":28,"time":143.612616,"velocity":0.3937007874015748},{"duration":0.3870960000000139,"midi":28,"time":143.806164,"velocity":0.3937007874015748},{"duration":0.19354799999999273,"midi":28,"time":144.19326,"velocity":0.3937007874015748},{"duration":0.19354799999999273,"midi":28,"time":144.386808,"velocity":0.3937007874015748},{"duration":0.19354799999999273,"midi":28,"time":144.580356,"velocity":0.3937007874015748},{"duration":0.3870960000000139,"midi":28,"time":144.773904,"velocity":0.3937007874015748},{"duration":0.19354799999999273,"midi":28,"time":145.161,"velocity":0.3937007874015748},{"duration":0.3870960000000139,"midi":28,"time":145.354548,"velocity":0.3937007874015748},{"duration":0.19354799999999273,"midi":28,"time":145.741644,"velocity":0.3937007874015748},{"duration":0.19354799999999273,"midi":28,"time":145.935192,"velocity":0.3937007874015748},{"duration":0.19354799999999273,"midi":28,"time":146.12874,"velocity":0.3937007874015748},{"duration":0.3870960000000139,"midi":31,"time":146.322288,"velocity":0.3937007874015748},{"duration":0.19354799999999273,"midi":31,"time":146.709384,"velocity":0.3937007874015748},{"duration":0.3870960000000139,"midi":31,"time":146.902932,"velocity":0.3937007874015748},{"duration":0.19354799999999273,"midi":31,"time":147.290028,"velocity":0.3937007874015748},{"duration":0.19354799999999273,"midi":31,"time":147.483576,"velocity":0.3937007874015748},{"duration":0.19354799999999273,"midi":31,"time":147.677124,"velocity":0.3937007874015748},{"duration":0.3870960000000139,"midi":36,"time":147.87067199999998,"velocity":0.3937007874015748},{"duration":0.19354799999999273,"midi":36,"time":148.257768,"velocity":0.3937007874015748},{"duration":0.3870960000000139,"midi":36,"time":148.451316,"velocity":0.3937007874015748},{"duration":0.19354799999999273,"midi":36,"time":148.838412,"velocity":0.3937007874015748},{"duration":0.19354799999999273,"midi":36,"time":149.03196,"velocity":0.3937007874015748},{"duration":0.19354800000002115,"midi":36,"time":149.225508,"velocity":0.3937007874015748},{"duration":0.38709599999998545,"midi":36,"time":149.419056,"velocity":0.3937007874015748},{"duration":0.19354799999999273,"midi":36,"time":149.806152,"velocity":0.3937007874015748},{"duration":0.3870960000000139,"midi":36,"time":149.9997,"velocity":0.3937007874015748},{"duration":0.19354799999999273,"midi":36,"time":150.386796,"velocity":0.3937007874015748},{"duration":0.19354799999999273,"midi":36,"time":150.580344,"velocity":0.3937007874015748},{"duration":0.19354800000002115,"midi":36,"time":150.773892,"velocity":0.3937007874015748},{"duration":0.38709599999998545,"midi":38,"time":150.96744,"velocity":0.3937007874015748},{"duration":0.3870960000000139,"midi":38,"time":151.354536,"velocity":0.3937007874015748},{"duration":0.38709599999998545,"midi":28,"time":151.741632,"velocity":0.3937007874015748},{"duration":0.19354799999999273,"midi":28,"time":152.128728,"velocity":0.3937007874015748},{"duration":0.3870960000000139,"midi":28,"time":152.322276,"velocity":0.3937007874015748},{"duration":0.19354799999999273,"midi":28,"time":152.709372,"velocity":0.3937007874015748},{"duration":0.19354799999999273,"midi":28,"time":152.90292,"velocity":0.3937007874015748},{"duration":0.19354800000002115,"midi":28,"time":153.096468,"velocity":0.3937007874015748},{"duration":0.38709599999998545,"midi":28,"time":153.290016,"velocity":0.3937007874015748},{"duration":0.19354799999999273,"midi":28,"time":153.677112,"velocity":0.3937007874015748},{"duration":0.3870960000000139,"midi":28,"time":153.87066,"velocity":0.3937007874015748},{"duration":0.19354799999999273,"midi":28,"time":154.257756,"velocity":0.3937007874015748},{"duration":0.19354799999999273,"midi":28,"time":154.451304,"velocity":0.3937007874015748},{"duration":0.19354800000002115,"midi":28,"time":154.644852,"velocity":0.3937007874015748},{"duration":0.38709599999998545,"midi":31,"time":154.8384,"velocity":0.3937007874015748},{"duration":0.19354799999999273,"midi":31,"time":155.225496,"velocity":0.3937007874015748},{"duration":0.3870960000000139,"midi":31,"time":155.41904399999999,"velocity":0.3937007874015748},{"duration":0.19354799999999273,"midi":31,"time":155.80614,"velocity":0.3937007874015748},{"duration":0.19354799999999273,"midi":31,"time":155.999688,"velocity":0.3937007874015748},{"duration":0.19354800000002115,"midi":31,"time":156.19323599999998,"velocity":0.3937007874015748},{"duration":0.38709599999998545,"midi":36,"time":156.386784,"velocity":0.3937007874015748},{"duration":0.19354800000002115,"midi":36,"time":156.77388,"velocity":0.3937007874015748},{"duration":0.38709599999998545,"midi":36,"time":156.967428,"velocity":0.3937007874015748},{"duration":0.19354799999999273,"midi":36,"time":157.354524,"velocity":0.3937007874015748},{"duration":0.19354800000002115,"midi":36,"time":157.548072,"velocity":0.3937007874015748},{"duration":0.19354799999999273,"midi":36,"time":157.74162,"velocity":0.3937007874015748},{"duration":0.38709599999998545,"midi":36,"time":157.935168,"velocity":0.3937007874015748},{"duration":0.19354800000002115,"midi":36,"time":158.322264,"velocity":0.3937007874015748},{"duration":0.38709599999998545,"midi":36,"time":158.515812,"velocity":0.3937007874015748},{"duration":0.19354799999999273,"midi":36,"time":158.902908,"velocity":0.3937007874015748},{"duration":0.19354800000002115,"midi":36,"time":159.096456,"velocity":0.3937007874015748},{"duration":0.19354799999999273,"midi":36,"time":159.290004,"velocity":0.3937007874015748},{"duration":0.38709599999998545,"midi":38,"time":159.483552,"velocity":0.3937007874015748},{"duration":0.3870960000000139,"midi":38,"time":159.870648,"velocity":0.3937007874015748},{"duration":0.38709599999998545,"midi":28,"time":160.257744,"velocity":0.3937007874015748},{"duration":0.19354800000002115,"midi":28,"time":160.64484,"velocity":0.3937007874015748},{"duration":0.38709599999998545,"midi":28,"time":160.838388,"velocity":0.3937007874015748},{"duration":0.19354799999999273,"midi":28,"time":161.225484,"velocity":0.3937007874015748},{"duration":0.19354800000002115,"midi":28,"time":161.419032,"velocity":0.3937007874015748},{"duration":0.19354799999999273,"midi":28,"time":161.61258,"velocity":0.3937007874015748},{"duration":0.38709599999998545,"midi":28,"time":161.806128,"velocity":0.3937007874015748},{"duration":0.19354800000002115,"midi":28,"time":162.193224,"velocity":0.3937007874015748},{"duration":0.38709599999998545,"midi":28,"time":162.386772,"velocity":0.3937007874015748},{"duration":0.19354799999999273,"midi":28,"time":162.773868,"velocity":0.3937007874015748},{"duration":0.19354800000002115,"midi":28,"time":162.967416,"velocity":0.3937007874015748},{"duration":0.19354799999999273,"midi":28,"time":163.160964,"velocity":0.3937007874015748},{"duration":0.38709599999998545,"midi":31,"time":163.354512,"velocity":0.3937007874015748},{"duration":0.19354800000002115,"midi":31,"time":163.74160799999999,"velocity":0.3937007874015748},{"duration":0.38709599999998545,"midi":31,"time":163.935156,"velocity":0.3937007874015748},{"duration":0.19354799999999273,"midi":31,"time":164.322252,"velocity":0.3937007874015748},{"duration":0.19354800000002115,"midi":31,"time":164.51579999999998,"velocity":0.3937007874015748},{"duration":0.19354799999999273,"midi":31,"time":164.709348,"velocity":0.3937007874015748},{"duration":0.3870960000000139,"midi":36,"time":164.902896,"velocity":0.3937007874015748},{"duration":0.19354799999999273,"midi":36,"time":165.289992,"velocity":0.3937007874015748},{"duration":0.38709599999998545,"midi":36,"time":165.48354,"velocity":0.3937007874015748},{"duration":0.19354800000002115,"midi":36,"time":165.870636,"velocity":0.3937007874015748},{"duration":0.19354799999999273,"midi":36,"time":166.064184,"velocity":0.3937007874015748},{"duration":0.19354799999999273,"midi":36,"time":166.257732,"velocity":0.3937007874015748},{"duration":0.3870960000000139,"midi":36,"time":166.45128,"velocity":0.3937007874015748},{"duration":0.19354799999999273,"midi":36,"time":166.838376,"velocity":0.3937007874015748},{"duration":0.38709599999998545,"midi":36,"time":167.031924,"velocity":0.3937007874015748},{"duration":0.19354800000002115,"midi":36,"time":167.41902,"velocity":0.3937007874015748},{"duration":0.19354799999999273,"midi":36,"time":167.612568,"velocity":0.3937007874015748},{"duration":0.19354799999999273,"midi":36,"time":167.806116,"velocity":0.3937007874015748},{"duration":0.3870960000000139,"midi":38,"time":167.999664,"velocity":0.3937007874015748},{"duration":0.38709599999998545,"midi":38,"time":168.38676,"velocity":0.3937007874015748},{"duration":0.3870960000000139,"midi":28,"time":168.773856,"velocity":0.3937007874015748},{"duration":0.19354799999999273,"midi":28,"time":169.160952,"velocity":0.3937007874015748},{"duration":0.38709599999998545,"midi":28,"time":169.3545,"velocity":0.3937007874015748},{"duration":0.19354800000002115,"midi":28,"time":169.741596,"velocity":0.3937007874015748},{"duration":0.19354799999999273,"midi":28,"time":169.935144,"velocity":0.3937007874015748},{"duration":0.19354799999999273,"midi":28,"time":170.128692,"velocity":0.3937007874015748},{"duration":0.3870960000000139,"midi":28,"time":170.32224,"velocity":0.3937007874015748},{"duration":0.19354799999999273,"midi":28,"time":170.709336,"velocity":0.3937007874015748},{"duration":0.38709599999998545,"midi":28,"time":170.902884,"velocity":0.3937007874015748},{"duration":0.19354800000002115,"midi":28,"time":171.28997999999999,"velocity":0.3937007874015748},{"duration":0.19354799999999273,"midi":28,"time":171.483528,"velocity":0.3937007874015748},{"duration":34.25799599999999,"midi":28,"time":171.677076,"velocity":0.3937007874015748},{"duration":0.3870960000000139,"midi":31,"time":205.935072,"velocity":0.3937007874015748},{"duration":0.19354799999999273,"midi":31,"time":206.322168,"velocity":0.3937007874015748},{"duration":0.3870960000000139,"midi":31,"time":206.515716,"velocity":0.3937007874015748},{"duration":0.19354799999999273,"midi":31,"time":206.902812,"velocity":0.3937007874015748},{"duration":0.19354799999999273,"midi":31,"time":207.09636,"velocity":0.3937007874015748},{"duration":0.19354799999999273,"midi":31,"time":207.289908,"velocity":0.3937007874015748},{"duration":0.3870960000000139,"midi":36,"time":207.483456,"velocity":0.3937007874015748},{"duration":0.19354799999999273,"midi":36,"time":207.870552,"velocity":0.3937007874015748},{"duration":0.3870960000000139,"midi":36,"time":208.0641,"velocity":0.3937007874015748},{"duration":0.19354799999999273,"midi":36,"time":208.451196,"velocity":0.3937007874015748},{"duration":0.19354799999999273,"midi":36,"time":208.644744,"velocity":0.3937007874015748},{"duration":0.19354799999999273,"midi":36,"time":208.838292,"velocity":0.3937007874015748},{"duration":0.3870960000000139,"midi":36,"time":209.03184,"velocity":0.3937007874015748},{"duration":0.19354799999999273,"midi":36,"time":209.418936,"velocity":0.3937007874015748},{"duration":0.3870960000000139,"midi":36,"time":209.612484,"velocity":0.3937007874015748},{"duration":0.19354799999999273,"midi":36,"time":209.99958,"velocity":0.3937007874015748},{"duration":0.19354799999999273,"midi":36,"time":210.193128,"velocity":0.3937007874015748},{"duration":0.19354799999999273,"midi":36,"time":210.386676,"velocity":0.3937007874015748},{"duration":0.3870960000000139,"midi":38,"time":210.580224,"velocity":0.3937007874015748},{"duration":0.38709599999998545,"midi":38,"time":210.96732,"velocity":0.3937007874015748},{"duration":0.3870960000000139,"midi":28,"time":211.354416,"velocity":0.3937007874015748},{"duration":0.19354799999999273,"midi":28,"time":211.741512,"velocity":0.3937007874015748},{"duration":0.3870960000000139,"midi":28,"time":211.93506,"velocity":0.3937007874015748},{"duration":0.19354799999999273,"midi":28,"time":212.322156,"velocity":0.3937007874015748},{"duration":0.19354799999999273,"midi":28,"time":212.515704,"velocity":0.3937007874015748},{"duration":0.19354799999999273,"midi":28,"time":212.709252,"velocity":0.3937007874015748},{"duration":0.3870960000000139,"midi":28,"time":212.90279999999998,"velocity":0.3937007874015748},{"duration":0.19354799999999273,"midi":28,"time":213.289896,"velocity":0.3937007874015748},{"duration":0.3870960000000139,"midi":28,"time":213.483444,"velocity":0.3937007874015748},{"duration":0.19354799999999273,"midi":28,"time":213.87054,"velocity":0.3937007874015748},{"duration":0.19354799999999273,"midi":28,"time":214.064088,"velocity":0.3937007874015748},{"duration":0.19354799999999273,"midi":28,"time":214.257636,"velocity":0.3937007874015748},{"duration":0.3870960000000139,"midi":31,"time":214.45118399999998,"velocity":0.3937007874015748},{"duration":0.19354799999999273,"midi":31,"time":214.83828,"velocity":0.3937007874015748},{"duration":0.3870960000000139,"midi":31,"time":215.031828,"velocity":0.3937007874015748},{"duration":0.19354799999999273,"midi":31,"time":215.418924,"velocity":0.3937007874015748},{"duration":0.19354799999999273,"midi":31,"time":215.612472,"velocity":0.3937007874015748},{"duration":0.19354800000002115,"midi":31,"time":215.80602,"velocity":0.3937007874015748},{"duration":0.38709599999998545,"midi":36,"time":215.999568,"velocity":0.3937007874015748},{"duration":0.19354799999999273,"midi":36,"time":216.386664,"velocity":0.3937007874015748},{"duration":0.3870960000000139,"midi":36,"time":216.580212,"velocity":0.3937007874015748},{"duration":0.19354799999999273,"midi":36,"time":216.967308,"velocity":0.3937007874015748},{"duration":0.19354799999999273,"midi":36,"time":217.160856,"velocity":0.3937007874015748},{"duration":0.19354800000002115,"midi":36,"time":217.354404,"velocity":0.3937007874015748},{"duration":0.38709599999998545,"midi":36,"time":217.547952,"velocity":0.3937007874015748},{"duration":0.19354799999999273,"midi":36,"time":217.935048,"velocity":0.3937007874015748},{"duration":0.3870960000000139,"midi":36,"time":218.128596,"velocity":0.3937007874015748},{"duration":0.19354799999999273,"midi":36,"time":218.515692,"velocity":0.3937007874015748},{"duration":0.19354799999999273,"midi":36,"time":218.70924,"velocity":0.3937007874015748},{"duration":0.19354800000002115,"midi":36,"time":218.902788,"velocity":0.3937007874015748},{"duration":0.38709599999998545,"midi":38,"time":219.096336,"velocity":0.3937007874015748},{"duration":0.3870960000000139,"midi":38,"time":219.483432,"velocity":0.3937007874015748},{"duration":0.38709599999998545,"midi":28,"time":219.870528,"velocity":0.3937007874015748},{"duration":0.19354799999999273,"midi":28,"time":220.257624,"velocity":0.3937007874015748},{"duration":0.3870960000000139,"midi":28,"time":220.45117199999999,"velocity":0.3937007874015748},{"duration":0.19354799999999273,"midi":28,"time":220.838268,"velocity":0.3937007874015748},{"duration":0.19354799999999273,"midi":28,"time":221.031816,"velocity":0.3937007874015748},{"duration":0.19354800000002115,"midi":28,"time":221.22536399999998,"velocity":0.3937007874015748},{"duration":0.38709599999998545,"midi":28,"time":221.418912,"velocity":0.3937007874015748},{"duration":0.19354799999999273,"midi":28,"time":221.806008,"velocity":0.3937007874015748},{"duration":0.3870960000000139,"midi":28,"time":221.99955599999998,"velocity":0.3937007874015748},{"duration":0.19354799999999273,"midi":28,"time":222.386652,"velocity":0.3937007874015748},{"duration":0.19354799999999273,"midi":28,"time":222.5802,"velocity":0.3937007874015748},{"duration":0.19354800000002115,"midi":28,"time":222.77374799999998,"velocity":0.3937007874015748},{"duration":0.38709599999998545,"midi":31,"time":222.967296,"velocity":0.3937007874015748},{"duration":0.19354800000002115,"midi":31,"time":223.354392,"velocity":0.3937007874015748},{"duration":0.38709599999998545,"midi":31,"time":223.54794,"velocity":0.3937007874015748},{"duration":0.19354799999999273,"midi":31,"time":223.935036,"velocity":0.3937007874015748},{"duration":0.19354800000002115,"midi":31,"time":224.128584,"velocity":0.3937007874015748},{"duration":0.19354799999999273,"midi":31,"time":224.322132,"velocity":0.3937007874015748},{"duration":0.38709599999998545,"midi":36,"time":224.51568,"velocity":0.3937007874015748},{"duration":0.19354800000002115,"midi":36,"time":224.902776,"velocity":0.3937007874015748},{"duration":0.38709599999998545,"midi":36,"time":225.096324,"velocity":0.3937007874015748},{"duration":0.19354799999999273,"midi":36,"time":225.48342,"velocity":0.3937007874015748},{"duration":0.19354800000002115,"midi":36,"time":225.676968,"velocity":0.3937007874015748},{"duration":0.19354799999999273,"midi":36,"time":225.870516,"velocity":0.3937007874015748},{"duration":0.38709599999998545,"midi":36,"time":226.064064,"velocity":0.3937007874015748},{"duration":0.19354800000002115,"midi":36,"time":226.45116,"velocity":0.3937007874015748},{"duration":0.38709599999998545,"midi":36,"time":226.644708,"velocity":0.3937007874015748},{"duration":0.19354799999999273,"midi":36,"time":227.031804,"velocity":0.3937007874015748},{"duration":0.19354800000002115,"midi":36,"time":227.225352,"velocity":0.3937007874015748},{"duration":0.19354799999999273,"midi":36,"time":227.4189,"velocity":0.3937007874015748},{"duration":0.38709599999998545,"midi":38,"time":227.612448,"velocity":0.3937007874015748},{"duration":0.3870960000000139,"midi":38,"time":227.999544,"velocity":0.3937007874015748},{"duration":0.38709599999998545,"midi":28,"time":228.38664,"velocity":0.3937007874015748},{"duration":0.19354800000002115,"midi":28,"time":228.77373599999999,"velocity":0.3937007874015748},{"duration":0.38709599999998545,"midi":28,"time":228.967284,"velocity":0.3937007874015748},{"duration":0.19354799999999273,"midi":28,"time":229.35438,"velocity":0.3937007874015748},{"duration":0.19354800000002115,"midi":28,"time":229.54792799999998,"velocity":0.3937007874015748},{"duration":0.19354799999999273,"midi":28,"time":229.741476,"velocity":0.3937007874015748},{"duration":0.19354799999999273,"midi":28,"time":229.741476,"velocity":0.3937007874015748},{"duration":0.5806439999999782,"midi":28,"time":229.741476,"velocity":0.3937007874015748},{"duration":0.5806439999999782,"midi":28,"time":229.741476,"velocity":0.3937007874015748},{"duration":0.7741919999999993,"midi":28,"time":229.741476,"velocity":0.3937007874015748},{"duration":0.7741919999999993,"midi":28,"time":229.741476,"velocity":0.3937007874015748},{"duration":1.1612879999999848,"midi":28,"time":229.741476,"velocity":0.3937007874015748},{"duration":1.1612879999999848,"midi":28,"time":229.741476,"velocity":0.3937007874015748},{"duration":1.3548359999999775,"midi":28,"time":229.741476,"velocity":0.3937007874015748},{"duration":1.3548359999999775,"midi":28,"time":229.741476,"velocity":0.3937007874015748},{"duration":1.5483839999999987,"midi":28,"time":229.741476,"velocity":0.3937007874015748},{"duration":1.5483839999999987,"midi":28,"time":229.741476,"velocity":0.3937007874015748},{"duration":3.0967679999999973,"midi":28,"time":229.741476,"velocity":0.3937007874015748}]},{"instrument":{"family":"percussive","number":114,"name":"steel drums"},"notes":[{"duration":0.19354799999999273,"midi":52,"time":106.257852,"velocity":0.5669291338582677},{"duration":0.19354799999999273,"midi":64,"time":106.257852,"velocity":0.5669291338582677},{"duration":0.19354799999999273,"midi":50,"time":106.644948,"velocity":0.5669291338582677},{"duration":0.19354799999999273,"midi":62,"time":106.644948,"velocity":0.5669291338582677},{"duration":0.19354800000000694,"midi":52,"time":110.128812,"velocity":0.5669291338582677},{"duration":0.19354800000000694,"midi":64,"time":110.128812,"velocity":0.5669291338582677},{"duration":0.19354800000000694,"midi":62,"time":110.515908,"velocity":0.5669291338582677},{"duration":0.19354800000000694,"midi":50,"time":110.515908,"velocity":0.5669291338582677},{"duration":0.19354800000000694,"midi":59,"time":111.2901,"velocity":0.5669291338582677},{"duration":0.19354799999999273,"midi":60,"time":111.483648,"velocity":0.5669291338582677},{"duration":0.19354800000000694,"midi":59,"time":111.677196,"velocity":0.5669291338582677},{"duration":0.19354799999999273,"midi":60,"time":111.870744,"velocity":0.5669291338582677},{"duration":0.19354800000000694,"midi":59,"time":112.064292,"velocity":0.5669291338582677},{"duration":0.19354799999999273,"midi":60,"time":112.25784,"velocity":0.5669291338582677},{"duration":0.19354800000000694,"midi":59,"time":112.451388,"velocity":0.5669291338582677},{"duration":0.19354800000000694,"midi":52,"time":113.22558,"velocity":0.5669291338582677},{"duration":0.19354800000000694,"midi":64,"time":113.22558,"velocity":0.5669291338582677},{"duration":0.19354800000000694,"midi":50,"time":113.612676,"velocity":0.5669291338582677},{"duration":0.19354800000000694,"midi":62,"time":113.612676,"velocity":0.5669291338582677},{"duration":0.19354800000000694,"midi":59,"time":114.38686799999999,"velocity":0.5669291338582677},{"duration":0.19354799999999273,"midi":60,"time":114.580416,"velocity":0.5669291338582677},{"duration":0.19354800000000694,"midi":59,"time":114.77396399999999,"velocity":0.5669291338582677},{"duration":0.19354799999999273,"midi":60,"time":114.967512,"velocity":0.5669291338582677},{"duration":0.19354800000000694,"midi":59,"time":115.16105999999999,"velocity":0.5669291338582677},{"duration":0.19354799999999273,"midi":60,"time":115.354608,"velocity":0.5669291338582677},{"duration":0.19354800000000694,"midi":59,"time":115.54815599999999,"velocity":0.5669291338582677},{"duration":0.19354799999999273,"midi":52,"time":116.322348,"velocity":0.5669291338582677},{"duration":0.19354799999999273,"midi":64,"time":116.322348,"velocity":0.5669291338582677},{"duration":0.19354799999999273,"midi":50,"time":116.709444,"velocity":0.5669291338582677},{"duration":0.19354799999999273,"midi":62,"time":116.709444,"velocity":0.5669291338582677},{"duration":0.19354799999999273,"midi":52,"time":118.644924,"velocity":0.5669291338582677},{"duration":0.19354799999999273,"midi":64,"time":118.644924,"velocity":0.5669291338582677},{"duration":0.19354799999999273,"midi":62,"time":119.03202,"velocity":0.5669291338582677},{"duration":0.19354799999999273,"midi":50,"time":119.03202,"velocity":0.5669291338582677},{"duration":0.19354799999999273,"midi":59,"time":119.806212,"velocity":0.5669291338582677},{"duration":0.19354800000000694,"midi":60,"time":119.99976,"velocity":0.5669291338582677},{"duration":0.19354799999999273,"midi":59,"time":120.193308,"velocity":0.5669291338582677},{"duration":0.19354800000000694,"midi":60,"time":120.386856,"velocity":0.5669291338582677},{"duration":0.19354799999999273,"midi":59,"time":120.580404,"velocity":0.5669291338582677},{"duration":0.19354800000000694,"midi":60,"time":120.773952,"velocity":0.5669291338582677},{"duration":0.19354799999999273,"midi":59,"time":120.9675,"velocity":0.5669291338582677},{"duration":0.19354799999999273,"midi":52,"time":121.741692,"velocity":0.5669291338582677},{"duration":0.19354799999999273,"midi":64,"time":121.741692,"velocity":0.5669291338582677},{"duration":0.19354799999999273,"midi":50,"time":122.128788,"velocity":0.5669291338582677},{"duration":0.19354799999999273,"midi":62,"time":122.128788,"velocity":0.5669291338582677},{"duration":0.19354799999999273,"midi":59,"time":122.90298,"velocity":0.5669291338582677},{"duration":0.19354800000000694,"midi":60,"time":123.09652799999999,"velocity":0.5669291338582677},{"duration":0.19354799999999273,"midi":59,"time":123.290076,"velocity":0.5669291338582677},{"duration":0.19354800000000694,"midi":60,"time":123.48362399999999,"velocity":0.5669291338582677},{"duration":0.19354800000000694,"midi":59,"time":123.677172,"velocity":0.5669291338582677},{"duration":0.19354799999999273,"midi":60,"time":123.87072,"velocity":0.5669291338582677},{"duration":0.19354800000000694,"midi":59,"time":124.064268,"velocity":0.5669291338582677},{"duration":0.19354800000000694,"midi":52,"time":124.83846,"velocity":0.5669291338582677},{"duration":0.19354800000000694,"midi":64,"time":124.83846,"velocity":0.5669291338582677},{"duration":0.19354800000000694,"midi":50,"time":125.225556,"velocity":0.5669291338582677},{"duration":0.19354800000000694,"midi":62,"time":125.225556,"velocity":0.5669291338582677},{"duration":0.19354799999999273,"midi":57,"time":126.580392,"velocity":0.5669291338582677},{"duration":0.19354800000000694,"midi":59,"time":126.77394,"velocity":0.5669291338582677},{"duration":0.19354800000000694,"midi":52,"time":127.161036,"velocity":0.5669291338582677},{"duration":0.19354800000000694,"midi":64,"time":127.161036,"velocity":0.5669291338582677},{"duration":0.19354800000000694,"midi":62,"time":127.548132,"velocity":0.5669291338582677},{"duration":0.19354800000000694,"midi":50,"time":127.548132,"velocity":0.5669291338582677},{"duration":0.19354800000002115,"midi":57,"time":128.128776,"velocity":0.5669291338582677},{"duration":0.19354799999999273,"midi":59,"time":128.322324,"velocity":0.5669291338582677},{"duration":0.19354799999999273,"midi":52,"time":128.70942,"velocity":0.5669291338582677},{"duration":0.19354799999999273,"midi":64,"time":128.70942,"velocity":0.5669291338582677},{"duration":0.19354799999999273,"midi":50,"time":129.096516,"velocity":0.5669291338582677},{"duration":0.19354799999999273,"midi":62,"time":129.096516,"velocity":0.5669291338582677},{"duration":0.19354800000002115,"midi":57,"time":129.67716,"velocity":0.5669291338582677},{"duration":0.19354799999999273,"midi":59,"time":129.870708,"velocity":0.5669291338582677},{"duration":0.19354799999999273,"midi":57,"time":130.257804,"velocity":0.5669291338582677},{"duration":0.19354800000002115,"midi":59,"time":130.45135199999999,"velocity":0.5669291338582677},{"duration":0.19354799999999273,"midi":59,"time":130.6449,"velocity":0.5669291338582677},{"duration":0.19354799999999273,"midi":55,"time":130.838448,"velocity":0.5669291338582677},{"duration":0.2903220000000033,"midi":52,"time":131.031996,"velocity":0.5669291338582677},{"duration":0.19354799999999273,"midi":64,"time":131.806188,"velocity":0.5669291338582677},{"duration":0.19354799999999273,"midi":52,"time":131.806188,"velocity":0.5669291338582677},{"duration":0.19354799999999273,"midi":50,"time":132.193284,"velocity":0.5669291338582677},{"duration":0.19354799999999273,"midi":62,"time":132.193284,"velocity":0.5669291338582677},{"duration":0.19354799999999273,"midi":57,"time":132.773928,"velocity":0.5669291338582677},{"duration":0.19354799999999273,"midi":59,"time":132.967476,"velocity":0.5669291338582677},{"duration":0.19354800000002115,"midi":57,"time":133.354572,"velocity":0.5669291338582677},{"duration":0.19354799999999273,"midi":59,"time":133.54812,"velocity":0.5669291338582677},{"duration":0.19354799999999273,"midi":59,"time":133.741668,"velocity":0.5669291338582677},{"duration":0.19354799999999273,"midi":55,"time":133.935216,"velocity":0.5669291338582677},{"duration":0.2903220000000033,"midi":52,"time":134.128764,"velocity":0.5669291338582677},{"duration":0.19354799999999273,"midi":52,"time":208.451196,"velocity":0.5669291338582677},{"duration":0.19354799999999273,"midi":64,"time":208.451196,"velocity":0.5669291338582677},{"duration":0.19354799999999273,"midi":50,"time":208.838292,"velocity":0.5669291338582677},{"duration":0.19354799999999273,"midi":62,"time":208.838292,"velocity":0.5669291338582677},{"duration":0.19354799999999273,"midi":64,"time":212.322156,"velocity":0.5669291338582677},{"duration":0.19354799999999273,"midi":52,"time":212.322156,"velocity":0.5669291338582677},{"duration":0.19354799999999273,"midi":50,"time":212.709252,"velocity":0.5669291338582677},{"duration":0.19354799999999273,"midi":62,"time":212.709252,"velocity":0.5669291338582677},{"duration":0.19354799999999273,"midi":52,"time":216.967308,"velocity":0.5669291338582677},{"duration":0.19354799999999273,"midi":64,"time":216.967308,"velocity":0.5669291338582677},{"duration":0.19354800000002115,"midi":50,"time":217.354404,"velocity":0.5669291338582677},{"duration":0.19354800000002115,"midi":62,"time":217.354404,"velocity":0.5669291338582677},{"duration":0.19354799999999273,"midi":64,"time":220.838268,"velocity":0.5669291338582677},{"duration":0.19354799999999273,"midi":52,"time":220.838268,"velocity":0.5669291338582677},{"duration":0.19354800000002115,"midi":50,"time":221.22536399999998,"velocity":0.5669291338582677},{"duration":0.19354800000002115,"midi":62,"time":221.22536399999998,"velocity":0.5669291338582677},{"duration":0.19354799999999273,"midi":64,"time":225.48342,"velocity":0.5669291338582677},{"duration":0.19354799999999273,"midi":52,"time":225.48342,"velocity":0.5669291338582677},{"duration":0.19354799999999273,"midi":50,"time":225.870516,"velocity":0.5669291338582677},{"duration":0.19354799999999273,"midi":62,"time":225.870516,"velocity":0.5669291338582677},{"duration":0.19354799999999273,"midi":52,"time":229.35438,"velocity":0.5669291338582677},{"duration":0.19354799999999273,"midi":64,"time":229.35438,"velocity":0.5669291338582677},{"duration":0.19354799999999273,"midi":50,"time":229.741476,"velocity":0.5669291338582677},{"duration":0.19354799999999273,"midi":62,"time":229.741476,"velocity":0.5669291338582677}]},{"instrument":{"family":"pipe","number":73,"name":"flute"},"notes":[{"duration":0.38709599999999966,"midi":64,"time":1.93548,"velocity":0.7322834645669292},{"duration":0.19354800000000028,"midi":62,"time":2.3225759999999998,"velocity":0.7322834645669292},{"duration":0.19354799999999983,"midi":60,"time":2.516124,"velocity":0.7322834645669292},{"duration":0.3870960000000001,"midi":59,"time":2.709672,"velocity":0.7322834645669292},{"duration":0.3870960000000001,"midi":59,"time":3.096768,"velocity":0.7322834645669292},{"duration":0.19354799999999983,"midi":60,"time":3.483864,"velocity":0.7322834645669292},{"duration":0.3870960000000001,"midi":59,"time":3.677412,"velocity":0.7322834645669292},{"duration":0.19354799999999983,"midi":57,"time":4.064508,"velocity":0.7322834645669292},{"duration":0.19354799999999983,"midi":55,"time":4.258056,"velocity":0.7322834645669292},{"duration":0.19354799999999983,"midi":57,"time":4.451604,"velocity":0.7322834645669292},{"duration":0.38709600000000055,"midi":59,"time":4.6451519999999995,"velocity":0.7322834645669292},{"duration":0.19354799999999983,"midi":60,"time":5.032248,"velocity":0.7322834645669292},{"duration":0.38709599999999966,"midi":59,"time":5.225796,"velocity":0.7322834645669292},{"duration":0.19354800000000072,"midi":57,"time":5.6128919999999995,"velocity":0.7322834645669292},{"duration":0.19354799999999983,"midi":55,"time":5.80644,"velocity":0.7322834645669292},{"duration":0.19354799999999983,"midi":57,"time":5.999988,"velocity":0.7322834645669292},{"duration":0.38709599999999966,"midi":59,"time":6.193536,"velocity":0.7322834645669292},{"duration":0.38709600000000055,"midi":60,"time":6.580632,"velocity":0.7322834645669292},{"duration":1.5483839999999995,"midi":59,"time":6.967728,"velocity":0.7322834645669292},{"duration":0.38709599999999966,"midi":64,"time":10.451592,"velocity":0.7322834645669292},{"duration":0.19354799999999983,"midi":62,"time":10.838688,"velocity":0.7322834645669292},{"duration":0.19354799999999983,"midi":60,"time":11.032236,"velocity":0.7322834645669292},{"duration":0.1935480000000016,"midi":59,"time":11.225783999999999,"velocity":0.7322834645669292},{"duration":0.19354799999999983,"midi":59,"time":11.419332,"velocity":0.7322834645669292},{"duration":0.38709599999999966,"midi":59,"time":11.61288,"velocity":0.7322834645669292},{"duration":0.19354799999999983,"midi":60,"time":11.999976,"velocity":0.7322834645669292},{"duration":0.38709599999999966,"midi":59,"time":12.193524,"velocity":0.7322834645669292},{"duration":0.19354799999999983,"midi":57,"time":12.58062,"velocity":0.7322834645669292},{"duration":0.19354799999999983,"midi":55,"time":12.774168,"velocity":0.7322834645669292},{"duration":0.19354799999999983,"midi":57,"time":12.967716,"velocity":0.7322834645669292},{"duration":0.38709600000000144,"midi":59,"time":13.161264,"velocity":0.7322834645669292},{"duration":0.19354799999999983,"midi":60,"time":13.54836,"velocity":0.7322834645669292},{"duration":0.38709599999999966,"midi":59,"time":13.741908,"velocity":0.7322834645669292},{"duration":0.19354799999999983,"midi":57,"time":14.129004,"velocity":0.7322834645669292},{"duration":0.19354799999999983,"midi":55,"time":14.322552,"velocity":0.7322834645669292},{"duration":0.19354799999999983,"midi":57,"time":14.5161,"velocity":0.7322834645669292},{"duration":0.38709599999999966,"midi":59,"time":14.709648,"velocity":0.7322834645669292},{"duration":0.38709600000000144,"midi":60,"time":15.096744,"velocity":0.7322834645669292},{"duration":1.5483839999999987,"midi":59,"time":15.48384,"velocity":0.7322834645669292},{"duration":0.38709599999999966,"midi":64,"time":18.967704,"velocity":0.7322834645669292},{"duration":0.19354799999999983,"midi":62,"time":19.3548,"velocity":0.7322834645669292},{"duration":0.19354799999999983,"midi":60,"time":19.548348,"velocity":0.7322834645669292},{"duration":0.19354799999999983,"midi":59,"time":19.741896,"velocity":0.7322834645669292},{"duration":0.19354799999999983,"midi":59,"time":19.935444,"velocity":0.7322834645669292},{"duration":0.38709599999999966,"midi":59,"time":20.128992,"velocity":0.7322834645669292},{"duration":0.19354799999999983,"midi":60,"time":20.516088,"velocity":0.7322834645669292},{"duration":0.38709599999999966,"midi":59,"time":20.709636,"velocity":0.7322834645669292},{"duration":0.19354799999999983,"midi":57,"time":21.096732,"velocity":0.7322834645669292},{"duration":0.19354799999999983,"midi":55,"time":21.29028,"velocity":0.7322834645669292},{"duration":0.19354799999999983,"midi":57,"time":21.483828,"velocity":0.7322834645669292},{"duration":0.38709599999999966,"midi":59,"time":21.677376,"velocity":0.7322834645669292},{"duration":0.19354799999999983,"midi":60,"time":22.064472,"velocity":0.7322834645669292},{"duration":0.38709599999999966,"midi":59,"time":22.25802,"velocity":0.7322834645669292},{"duration":0.19354800000000338,"midi":57,"time":22.645115999999998,"velocity":0.7322834645669292},{"duration":0.19354799999999983,"midi":55,"time":22.838664,"velocity":0.7322834645669292},{"duration":0.19354799999999983,"midi":57,"time":23.032212,"velocity":0.7322834645669292},{"duration":0.38709599999999966,"midi":59,"time":23.22576,"velocity":0.7322834645669292},{"duration":0.38709599999999966,"midi":60,"time":23.612856,"velocity":0.7322834645669292},{"duration":1.5483839999999987,"midi":59,"time":23.999952,"velocity":0.7322834645669292},{"duration":0.38709599999999966,"midi":64,"time":27.483816,"velocity":0.7322834645669292},{"duration":0.38709599999999966,"midi":62,"time":27.870912,"velocity":0.7322834645669292},{"duration":0.19354799999999983,"midi":59,"time":28.451556,"velocity":0.7322834645669292},{"duration":0.38709599999999966,"midi":59,"time":28.645104,"velocity":0.7322834645669292},{"duration":0.19354799999999983,"midi":60,"time":29.0322,"velocity":0.7322834645669292},{"duration":0.38709599999999966,"midi":59,"time":29.225748,"velocity":0.7322834645669292},{"duration":0.19354799999999983,"midi":57,"time":29.612844,"velocity":0.7322834645669292},{"duration":0.19354799999999983,"midi":55,"time":29.806392,"velocity":0.7322834645669292},{"duration":0.19354799999999983,"midi":57,"time":29.99994,"velocity":0.7322834645669292},{"duration":0.38709599999999966,"midi":59,"time":30.193488,"velocity":0.7322834645669292},{"duration":0.19354799999999983,"midi":60,"time":30.580583999999998,"velocity":0.7322834645669292},{"duration":0.3870960000000032,"midi":59,"time":30.774131999999998,"velocity":0.7322834645669292},{"duration":0.19354799999999983,"midi":57,"time":31.161228,"velocity":0.7322834645669292},{"duration":0.19354799999999983,"midi":55,"time":31.354776,"velocity":0.7322834645669292},{"duration":0.19354799999999983,"midi":57,"time":31.548324,"velocity":0.7322834645669292},{"duration":0.38709599999999966,"midi":59,"time":31.741872,"velocity":0.7322834645669292},{"duration":0.38709599999999966,"midi":60,"time":32.128968,"velocity":0.7322834645669292},{"duration":1.5483839999999987,"midi":59,"time":32.516064,"velocity":0.7322834645669292},{"duration":0.9677399999999992,"midi":71,"time":35.612832,"velocity":0.7322834645669292},{"duration":0.9677399999999992,"midi":64,"time":35.612832,"velocity":0.7322834645669292},{"duration":0.19354799999999983,"midi":62,"time":36.580572,"velocity":0.7322834645669292},{"duration":0.19354799999999983,"midi":69,"time":36.580572,"velocity":0.7322834645669292},{"duration":0.19354799999999983,"midi":64,"time":36.774119999999996,"velocity":0.7322834645669292},{"duration":0.19354799999999983,"midi":71,"time":36.774119999999996,"velocity":0.7322834645669292},{"duration":0.19354799999999983,"midi":69,"time":36.967667999999996,"velocity":0.7322834645669292},{"duration":0.19354799999999983,"midi":62,"time":36.967667999999996,"velocity":0.7322834645669292},{"duration":2.322576000000005,"midi":64,"time":37.161215999999996,"velocity":0.7322834645669292},{"duration":2.322576000000005,"midi":69,"time":37.161215999999996,"velocity":0.7322834645669292},{"duration":0.7741919999999993,"midi":62,"time":40.257984,"velocity":0.7322834645669292},{"duration":0.7741919999999993,"midi":71,"time":40.257984,"velocity":0.7322834645669292},{"duration":2.322575999999998,"midi":64,"time":41.032176,"velocity":0.7322834645669292},{"duration":2.322575999999998,"midi":67,"time":41.032176,"velocity":0.7322834645669292},{"duration":0.9677399999999992,"midi":64,"time":44.128944,"velocity":0.7322834645669292},{"duration":0.9677399999999992,"midi":71,"time":44.128944,"velocity":0.7322834645669292},{"duration":0.19354799999999983,"midi":62,"time":45.096683999999996,"velocity":0.7322834645669292},{"duration":0.19354799999999983,"midi":69,"time":45.096683999999996,"velocity":0.7322834645669292},{"duration":0.19354800000000694,"midi":71,"time":45.290231999999996,"velocity":0.7322834645669292},{"duration":0.19354800000000694,"midi":64,"time":45.290231999999996,"velocity":0.7322834645669292},{"duration":0.19354799999999983,"midi":62,"time":45.48378,"velocity":0.7322834645669292},{"duration":0.19354799999999983,"midi":69,"time":45.48378,"velocity":0.7322834645669292},{"duration":2.322575999999998,"midi":64,"time":45.677328,"velocity":0.7322834645669292},{"duration":2.322575999999998,"midi":69,"time":45.677328,"velocity":0.7322834645669292},{"duration":0.7741919999999993,"midi":62,"time":48.774096,"velocity":0.7322834645669292},{"duration":0.7741919999999993,"midi":71,"time":48.774096,"velocity":0.7322834645669292},{"duration":2.322575999999998,"midi":64,"time":49.548288,"velocity":0.7322834645669292},{"duration":2.322575999999998,"midi":67,"time":49.548288,"velocity":0.7322834645669292},{"duration":0.9677399999999992,"midi":71,"time":52.645056,"velocity":0.7322834645669292},{"duration":0.9677399999999992,"midi":64,"time":52.645056,"velocity":0.7322834645669292},{"duration":0.19354800000000694,"midi":62,"time":53.612795999999996,"velocity":0.7322834645669292},{"duration":0.19354800000000694,"midi":69,"time":53.612795999999996,"velocity":0.7322834645669292},{"duration":0.19354799999999983,"midi":64,"time":53.806344,"velocity":0.7322834645669292},{"duration":0.19354799999999983,"midi":71,"time":53.806344,"velocity":0.7322834645669292},{"duration":0.19354799999999983,"midi":62,"time":53.999892,"velocity":0.7322834645669292},{"duration":0.19354799999999983,"midi":69,"time":53.999892,"velocity":0.7322834645669292},{"duration":2.322575999999998,"midi":69,"time":54.19344,"velocity":0.7322834645669292},{"duration":2.322575999999998,"midi":64,"time":54.19344,"velocity":0.7322834645669292},{"duration":0.7741919999999993,"midi":71,"time":57.290208,"velocity":0.7322834645669292},{"duration":0.7741919999999993,"midi":62,"time":57.290208,"velocity":0.7322834645669292},{"duration":2.322575999999998,"midi":67,"time":58.0644,"velocity":0.7322834645669292},{"duration":2.322575999999998,"midi":64,"time":58.0644,"velocity":0.7322834645669292},{"duration":0.9677400000000063,"midi":64,"time":61.161167999999996,"velocity":0.7322834645669292},{"duration":0.9677400000000063,"midi":71,"time":61.161167999999996,"velocity":0.7322834645669292},{"duration":0.19354799999999983,"midi":62,"time":62.128908,"velocity":0.7322834645669292},{"duration":0.19354799999999983,"midi":69,"time":62.128908,"velocity":0.7322834645669292},{"duration":0.19354799999999983,"midi":71,"time":62.322456,"velocity":0.7322834645669292},{"duration":0.19354799999999983,"midi":64,"time":62.322456,"velocity":0.7322834645669292},{"duration":0.19354799999999983,"midi":69,"time":62.516004,"velocity":0.7322834645669292},{"duration":0.19354799999999983,"midi":62,"time":62.516004,"velocity":0.7322834645669292},{"duration":2.322575999999998,"midi":64,"time":62.709552,"velocity":0.7322834645669292},{"duration":2.322575999999998,"midi":69,"time":62.709552,"velocity":0.7322834645669292},{"duration":0.7741919999999993,"midi":71,"time":65.80632,"velocity":0.7322834645669292},{"duration":0.7741919999999993,"midi":62,"time":65.80632,"velocity":0.7322834645669292},{"duration":2.322575999999998,"midi":64,"time":66.580512,"velocity":0.7322834645669292},{"duration":2.322575999999998,"midi":67,"time":66.580512,"velocity":0.7322834645669292},{"duration":0.19354799999999273,"midi":57,"time":69.870828,"velocity":0.7322834645669292},{"duration":0.19354800000000694,"midi":59,"time":70.064376,"velocity":0.7322834645669292},{"duration":0.19354799999999273,"midi":57,"time":70.257924,"velocity":0.7322834645669292},{"duration":0.19354800000000694,"midi":59,"time":70.451472,"velocity":0.7322834645669292},{"duration":0.19354799999999273,"midi":57,"time":70.64502,"velocity":0.7322834645669292},{"duration":0.38709599999999966,"midi":60,"time":71.032116,"velocity":0.7322834645669292},{"duration":0.19354799999999273,"midi":59,"time":71.419212,"velocity":0.7322834645669292},{"duration":0.19354800000000694,"midi":60,"time":71.61276,"velocity":0.7322834645669292},{"duration":0.19354799999999273,"midi":59,"time":71.806308,"velocity":0.7322834645669292},{"duration":0.19354800000000694,"midi":60,"time":71.999856,"velocity":0.7322834645669292},{"duration":0.19354799999999273,"midi":59,"time":72.193404,"velocity":0.7322834645669292},{"duration":0.19354799999999273,"midi":59,"time":72.5805,"velocity":0.7322834645669292},{"duration":0.19354800000000694,"midi":60,"time":72.774048,"velocity":0.7322834645669292},{"duration":0.19354799999999273,"midi":59,"time":72.967596,"velocity":0.7322834645669292},{"duration":0.19354800000000694,"midi":60,"time":73.161144,"velocity":0.7322834645669292},{"duration":0.19354799999999273,"midi":59,"time":73.354692,"velocity":0.7322834645669292},{"duration":0.19354800000000694,"midi":60,"time":73.54823999999999,"velocity":0.7322834645669292},{"duration":0.19354799999999273,"midi":59,"time":73.741788,"velocity":0.7322834645669292},{"duration":0.19354800000000694,"midi":60,"time":73.93533599999999,"velocity":0.7322834645669292},{"duration":0.19354799999999273,"midi":59,"time":74.128884,"velocity":0.7322834645669292},{"duration":0.19354800000000694,"midi":62,"time":74.32243199999999,"velocity":0.7322834645669292},{"duration":0.19354800000000694,"midi":59,"time":74.51598,"velocity":0.7322834645669292},{"duration":0.19354799999999273,"midi":62,"time":74.709528,"velocity":0.7322834645669292},{"duration":0.5806440000000066,"midi":59,"time":74.903076,"velocity":0.7322834645669292},{"duration":0.19354799999999273,"midi":62,"time":75.48372,"velocity":0.7322834645669292},{"duration":0.5806440000000066,"midi":59,"time":75.677268,"velocity":0.7322834645669292},{"duration":0.19354799999999273,"midi":62,"time":76.257912,"velocity":0.7322834645669292},{"duration":0.38709599999999966,"midi":59,"time":76.45146,"velocity":0.7322834645669292},{"duration":0.19354800000000694,"midi":62,"time":76.838556,"velocity":0.7322834645669292},{"duration":0.19354799999999273,"midi":59,"time":77.032104,"velocity":0.7322834645669292},{"duration":0.19354800000000694,"midi":62,"time":77.225652,"velocity":0.7322834645669292},{"duration":0.19354799999999273,"midi":59,"time":77.4192,"velocity":0.7322834645669292},{"duration":0.19354800000000694,"midi":62,"time":77.612748,"velocity":0.7322834645669292},{"duration":0.19354799999999273,"midi":59,"time":77.806296,"velocity":0.7322834645669292},{"duration":0.19354800000000694,"midi":57,"time":78.38694,"velocity":0.7322834645669292},{"duration":0.19354799999999273,"midi":59,"time":78.580488,"velocity":0.7322834645669292},{"duration":0.19354800000000694,"midi":57,"time":78.774036,"velocity":0.7322834645669292},{"duration":0.19354799999999273,"midi":59,"time":78.967584,"velocity":0.7322834645669292},{"duration":0.19354800000000694,"midi":57,"time":79.161132,"velocity":0.7322834645669292},{"duration":0.38709599999999966,"midi":60,"time":79.548228,"velocity":0.7322834645669292},{"duration":0.19354800000000694,"midi":59,"time":79.935324,"velocity":0.7322834645669292},{"duration":0.19354799999999273,"midi":60,"time":80.128872,"velocity":0.7322834645669292},{"duration":0.19354800000000694,"midi":59,"time":80.32242,"velocity":0.7322834645669292},{"duration":0.19354799999999273,"midi":60,"time":80.515968,"velocity":0.7322834645669292},{"duration":0.19354800000000694,"midi":59,"time":80.709516,"velocity":0.7322834645669292},{"duration":0.19354800000000694,"midi":59,"time":81.096612,"velocity":0.7322834645669292},{"duration":0.19354799999999273,"midi":60,"time":81.29016,"velocity":0.7322834645669292},{"duration":0.19354800000000694,"midi":59,"time":81.483708,"velocity":0.7322834645669292},{"duration":0.19354799999999273,"midi":60,"time":81.677256,"velocity":0.7322834645669292},{"duration":0.19354800000000694,"midi":59,"time":81.87080399999999,"velocity":0.7322834645669292},{"duration":0.19354799999999273,"midi":60,"time":82.064352,"velocity":0.7322834645669292},{"duration":0.19354800000000694,"midi":59,"time":82.25789999999999,"velocity":0.7322834645669292},{"duration":0.19354800000000694,"midi":60,"time":82.451448,"velocity":0.7322834645669292},{"duration":0.19354799999999273,"midi":59,"time":82.644996,"velocity":0.7322834645669292},{"duration":0.19354800000000694,"midi":62,"time":82.838544,"velocity":0.7322834645669292},{"duration":0.19354799999999273,"midi":59,"time":83.032092,"velocity":0.7322834645669292},{"duration":0.19354800000000694,"midi":62,"time":83.22564,"velocity":0.7322834645669292},{"duration":0.5806439999999924,"midi":59,"time":83.419188,"velocity":0.7322834645669292},{"duration":0.19354800000000694,"midi":62,"time":83.999832,"velocity":0.7322834645669292},{"duration":0.5806439999999924,"midi":59,"time":84.19338,"velocity":0.7322834645669292},{"duration":0.19354800000000694,"midi":62,"time":84.774024,"velocity":0.7322834645669292},{"duration":0.7741919999999993,"midi":59,"time":84.967572,"velocity":0.7322834645669292},{"duration":0.19354799999999273,"midi":62,"time":85.741764,"velocity":0.7322834645669292},{"duration":0.19354800000000694,"midi":59,"time":85.935312,"velocity":0.7322834645669292},{"duration":0.19354799999999273,"midi":62,"time":86.12886,"velocity":0.7322834645669292},{"duration":0.19354800000000694,"midi":59,"time":86.322408,"velocity":0.7322834645669292},{"duration":0.19354799999999273,"midi":62,"time":86.515956,"velocity":0.7322834645669292},{"duration":0.19354799999999273,"midi":57,"time":86.903052,"velocity":0.7322834645669292},{"duration":0.19354800000000694,"midi":59,"time":87.0966,"velocity":0.7322834645669292},{"duration":0.19354799999999273,"midi":57,"time":87.290148,"velocity":0.7322834645669292},{"duration":0.19354800000000694,"midi":59,"time":87.483696,"velocity":0.7322834645669292},{"duration":0.19354799999999273,"midi":57,"time":87.677244,"velocity":0.7322834645669292},{"duration":0.38709599999999966,"midi":67,"time":88.06434,"velocity":0.7322834645669292},{"duration":0.19354799999999273,"midi":66,"time":88.451436,"velocity":0.7322834645669292},{"duration":0.19354800000000694,"midi":64,"time":88.644984,"velocity":0.7322834645669292},{"duration":0.19354799999999273,"midi":66,"time":88.838532,"velocity":0.7322834645669292},{"duration":0.38709599999999966,"midi":64,"time":89.03208,"velocity":0.7322834645669292},{"duration":0.19354800000000694,"midi":62,"time":89.419176,"velocity":0.7322834645669292},{"duration":0.19354799999999273,"midi":59,"time":89.612724,"velocity":0.7322834645669292},{"duration":0.19354800000000694,"midi":62,"time":89.80627199999999,"velocity":0.7322834645669292},{"duration":0.19354799999999273,"midi":59,"time":89.99982,"velocity":0.7322834645669292},{"duration":0.19354799999999273,"midi":59,"time":90.386916,"velocity":0.7322834645669292},{"duration":0.19354800000000694,"midi":62,"time":90.58046399999999,"velocity":0.7322834645669292},{"duration":0.19354800000000694,"midi":59,"time":90.774012,"velocity":0.7322834645669292},{"duration":0.19354800000000694,"midi":59,"time":91.161108,"velocity":0.7322834645669292},{"duration":0.19354799999999273,"midi":62,"time":91.354656,"velocity":0.7322834645669292},{"duration":0.19354800000000694,"midi":59,"time":91.548204,"velocity":0.7322834645669292},{"duration":0.19354800000000694,"midi":59,"time":91.9353,"velocity":0.7322834645669292},{"duration":0.19354799999999273,"midi":62,"time":92.128848,"velocity":0.7322834645669292},{"duration":0.19354800000000694,"midi":59,"time":92.322396,"velocity":0.7322834645669292},{"duration":0.19354799999999273,"midi":71,"time":92.515944,"velocity":0.7322834645669292},{"duration":0.19354800000000694,"midi":67,"time":92.709492,"velocity":0.7322834645669292},{"duration":0.19354800000000694,"midi":59,"time":92.709492,"velocity":0.7322834645669292},{"duration":0.19354799999999273,"midi":62,"time":92.90304,"velocity":0.7322834645669292},{"duration":0.19354800000000694,"midi":59,"time":93.096588,"velocity":0.7322834645669292},{"duration":0.19354799999999273,"midi":71,"time":93.290136,"velocity":0.7322834645669292},{"duration":0.19354800000000694,"midi":67,"time":93.483684,"velocity":0.7322834645669292},{"duration":0.38709599999999966,"midi":64,"time":93.677232,"velocity":0.7322834645669292},{"duration":0.38709599999999966,"midi":67,"time":94.064328,"velocity":0.7322834645669292},{"duration":0.38709599999999966,"midi":69,"time":94.451424,"velocity":0.7322834645669292},{"duration":0.19354799999999273,"midi":71,"time":94.83852,"velocity":0.7322834645669292},{"duration":0.38709599999999966,"midi":67,"time":95.032068,"velocity":0.7322834645669292},{"duration":0.19354800000000694,"midi":57,"time":95.419164,"velocity":0.7322834645669292},{"duration":0.19354799999999273,"midi":59,"time":95.612712,"velocity":0.7322834645669292},{"duration":0.19354800000000694,"midi":57,"time":95.80626,"velocity":0.7322834645669292},{"duration":0.19354799999999273,"midi":59,"time":95.999808,"velocity":0.7322834645669292},{"duration":0.19354800000000694,"midi":57,"time":96.193356,"velocity":0.7322834645669292},{"duration":0.38709599999999966,"midi":60,"time":96.580452,"velocity":0.7322834645669292},{"duration":0.19354800000000694,"midi":59,"time":96.967548,"velocity":0.7322834645669292},{"duration":0.19354799999999273,"midi":60,"time":97.161096,"velocity":0.7322834645669292},{"duration":0.19354800000000694,"midi":59,"time":97.354644,"velocity":0.7322834645669292},{"duration":0.19354799999999273,"midi":60,"time":97.548192,"velocity":0.7322834645669292},{"duration":0.19354800000000694,"midi":59,"time":97.74174,"velocity":0.7322834645669292},{"duration":0.19354800000000694,"midi":59,"time":98.12883599999999,"velocity":0.7322834645669292},{"duration":0.19354799999999273,"midi":60,"time":98.322384,"velocity":0.7322834645669292},{"duration":0.19354800000000694,"midi":59,"time":98.51593199999999,"velocity":0.7322834645669292},{"duration":0.19354799999999273,"midi":60,"time":98.70948,"velocity":0.7322834645669292},{"duration":0.19354800000000694,"midi":59,"time":98.90302799999999,"velocity":0.7322834645669292},{"duration":0.19354800000000694,"midi":60,"time":99.096576,"velocity":0.7322834645669292},{"duration":0.19354799999999273,"midi":59,"time":99.290124,"velocity":0.7322834645669292},{"duration":0.19354800000000694,"midi":60,"time":99.483672,"velocity":0.7322834645669292},{"duration":0.19354799999999273,"midi":59,"time":99.67722,"velocity":0.7322834645669292},{"duration":0.19354800000000694,"midi":62,"time":99.870768,"velocity":0.7322834645669292},{"duration":0.19354799999999273,"midi":59,"time":100.064316,"velocity":0.7322834645669292},{"duration":0.38709599999999966,"midi":59,"time":100.257864,"velocity":0.7322834645669292},{"duration":0.19354800000000694,"midi":62,"time":100.64496,"velocity":0.7322834645669292},{"duration":0.38709599999999966,"midi":59,"time":100.838508,"velocity":0.7322834645669292},{"duration":0.19354799999999273,"midi":55,"time":101.225604,"velocity":0.7322834645669292},{"duration":1.5483839999999987,"midi":52,"time":101.419152,"velocity":0.7322834645669292},{"duration":0.9677400000000063,"midi":64,"time":103.741728,"velocity":0.7322834645669292},{"duration":0.9677400000000063,"midi":71,"time":103.741728,"velocity":0.7322834645669292},{"duration":0.19354799999999273,"midi":69,"time":104.709468,"velocity":0.7322834645669292},{"duration":0.19354799999999273,"midi":62,"time":104.709468,"velocity":0.7322834645669292},{"duration":0.19354800000000694,"midi":64,"time":104.903016,"velocity":0.7322834645669292},{"duration":0.19354800000000694,"midi":71,"time":104.903016,"velocity":0.7322834645669292},{"duration":0.19354799999999273,"midi":62,"time":105.096564,"velocity":0.7322834645669292},{"duration":0.19354799999999273,"midi":69,"time":105.096564,"velocity":0.7322834645669292},{"duration":2.4193500000000085,"midi":69,"time":105.290112,"velocity":0.7322834645669292},{"duration":2.4193500000000085,"midi":64,"time":105.290112,"velocity":0.7322834645669292},{"duration":0.7741919999999993,"midi":71,"time":108.38688,"velocity":0.7322834645669292},{"duration":0.7741919999999993,"midi":62,"time":108.38688,"velocity":0.7322834645669292},{"duration":2.322575999999998,"midi":67,"time":109.161072,"velocity":0.7322834645669292},{"duration":2.322575999999998,"midi":64,"time":109.161072,"velocity":0.7322834645669292},{"duration":0.967739999999992,"midi":71,"time":112.25784,"velocity":0.7322834645669292},{"duration":0.967739999999992,"midi":64,"time":112.25784,"velocity":0.7322834645669292},{"duration":0.19354800000000694,"midi":62,"time":113.22558,"velocity":0.7322834645669292},{"duration":0.19354800000000694,"midi":69,"time":113.22558,"velocity":0.7322834645669292},{"duration":0.19354799999999273,"midi":71,"time":113.419128,"velocity":0.7322834645669292},{"duration":0.19354799999999273,"midi":64,"time":113.419128,"velocity":0.7322834645669292},{"duration":0.19354800000000694,"midi":62,"time":113.612676,"velocity":0.7322834645669292},{"duration":0.19354800000000694,"midi":69,"time":113.612676,"velocity":0.7322834645669292},{"duration":2.4193499999999943,"midi":64,"time":113.806224,"velocity":0.7322834645669292},{"duration":2.4193499999999943,"midi":69,"time":113.806224,"velocity":0.7322834645669292},{"duration":0.7741919999999993,"midi":71,"time":116.902992,"velocity":0.7322834645669292},{"duration":0.7741919999999993,"midi":62,"time":116.902992,"velocity":0.7322834645669292},{"duration":2.322575999999998,"midi":64,"time":117.677184,"velocity":0.7322834645669292},{"duration":2.322575999999998,"midi":67,"time":117.677184,"velocity":0.7322834645669292},{"duration":0.9677400000000063,"midi":64,"time":120.773952,"velocity":0.7322834645669292},{"duration":0.9677400000000063,"midi":71,"time":120.773952,"velocity":0.7322834645669292},{"duration":0.19354799999999273,"midi":62,"time":121.741692,"velocity":0.7322834645669292},{"duration":0.19354799999999273,"midi":69,"time":121.741692,"velocity":0.7322834645669292},{"duration":0.19354800000000694,"midi":64,"time":121.93524,"velocity":0.7322834645669292},{"duration":0.19354800000000694,"midi":71,"time":121.93524,"velocity":0.7322834645669292},{"duration":0.19354799999999273,"midi":69,"time":122.128788,"velocity":0.7322834645669292},{"duration":0.19354799999999273,"midi":62,"time":122.128788,"velocity":0.7322834645669292},{"duration":2.4193500000000085,"midi":69,"time":122.32233599999999,"velocity":0.7322834645669292},{"duration":2.4193500000000085,"midi":64,"time":122.32233599999999,"velocity":0.7322834645669292},{"duration":0.7741919999999993,"midi":62,"time":125.419104,"velocity":0.7322834645669292},{"duration":0.7741919999999993,"midi":71,"time":125.419104,"velocity":0.7322834645669292},{"duration":2.322575999999998,"midi":64,"time":126.193296,"velocity":0.7322834645669292},{"duration":2.322575999999998,"midi":67,"time":126.193296,"velocity":0.7322834645669292},{"duration":0.967739999999992,"midi":71,"time":129.290064,"velocity":0.7322834645669292},{"duration":0.967739999999992,"midi":64,"time":129.290064,"velocity":0.7322834645669292},{"duration":0.19354799999999273,"midi":62,"time":130.257804,"velocity":0.7322834645669292},{"duration":0.19354799999999273,"midi":69,"time":130.257804,"velocity":0.7322834645669292},{"duration":0.19354800000002115,"midi":71,"time":130.45135199999999,"velocity":0.7322834645669292},{"duration":0.19354800000002115,"midi":64,"time":130.45135199999999,"velocity":0.7322834645669292},{"duration":0.19354799999999273,"midi":62,"time":130.6449,"velocity":0.7322834645669292},{"duration":0.19354799999999273,"midi":69,"time":130.6449,"velocity":0.7322834645669292},{"duration":2.4193500000000085,"midi":64,"time":130.838448,"velocity":0.7322834645669292},{"duration":2.4193500000000085,"midi":69,"time":130.838448,"velocity":0.7322834645669292},{"duration":0.7741919999999993,"midi":71,"time":133.935216,"velocity":0.7322834645669292},{"duration":0.7741919999999993,"midi":62,"time":133.935216,"velocity":0.7322834645669292},{"duration":2.322575999999998,"midi":64,"time":134.709408,"velocity":0.7322834645669292},{"duration":2.322575999999998,"midi":67,"time":134.709408,"velocity":0.7322834645669292},{"duration":0.9677400000000205,"midi":71,"time":205.935072,"velocity":0.7322834645669292},{"duration":0.9677400000000205,"midi":64,"time":205.935072,"velocity":0.7322834645669292},{"duration":0.19354799999999273,"midi":69,"time":206.902812,"velocity":0.7322834645669292},{"duration":0.19354799999999273,"midi":62,"time":206.902812,"velocity":0.7322834645669292},{"duration":0.19354799999999273,"midi":64,"time":207.09636,"velocity":0.7322834645669292},{"duration":0.19354799999999273,"midi":71,"time":207.09636,"velocity":0.7322834645669292},{"duration":0.19354799999999273,"midi":62,"time":207.289908,"velocity":0.7322834645669292},{"duration":0.19354799999999273,"midi":69,"time":207.289908,"velocity":0.7322834645669292},{"duration":2.4193500000000085,"midi":69,"time":207.483456,"velocity":0.7322834645669292},{"duration":2.4193500000000085,"midi":64,"time":207.483456,"velocity":0.7322834645669292},{"duration":0.7741919999999993,"midi":62,"time":210.580224,"velocity":0.7322834645669292},{"duration":0.7741919999999993,"midi":71,"time":210.580224,"velocity":0.7322834645669292},{"duration":2.322575999999998,"midi":67,"time":211.354416,"velocity":0.7322834645669292},{"duration":2.322575999999998,"midi":64,"time":211.354416,"velocity":0.7322834645669292},{"duration":0.9677400000000205,"midi":64,"time":214.45118399999998,"velocity":0.7322834645669292},{"duration":0.9677400000000205,"midi":71,"time":214.45118399999998,"velocity":0.7322834645669292},{"duration":0.19354799999999273,"midi":62,"time":215.418924,"velocity":0.7322834645669292},{"duration":0.19354799999999273,"midi":69,"time":215.418924,"velocity":0.7322834645669292},{"duration":0.19354799999999273,"midi":64,"time":215.612472,"velocity":0.7322834645669292},{"duration":0.19354799999999273,"midi":71,"time":215.612472,"velocity":0.7322834645669292},{"duration":0.19354800000002115,"midi":62,"time":215.80602,"velocity":0.7322834645669292},{"duration":0.19354800000002115,"midi":69,"time":215.80602,"velocity":0.7322834645669292},{"duration":2.41934999999998,"midi":69,"time":215.999568,"velocity":0.7322834645669292},{"duration":2.41934999999998,"midi":64,"time":215.999568,"velocity":0.7322834645669292},{"duration":0.7741919999999993,"midi":71,"time":219.096336,"velocity":0.7322834645669292},{"duration":0.7741919999999993,"midi":62,"time":219.096336,"velocity":0.7322834645669292},{"duration":2.322575999999998,"midi":64,"time":219.870528,"velocity":0.7322834645669292},{"duration":2.322575999999998,"midi":67,"time":219.870528,"velocity":0.7322834645669292},{"duration":0.967739999999992,"midi":64,"time":222.967296,"velocity":0.7322834645669292},{"duration":0.967739999999992,"midi":71,"time":222.967296,"velocity":0.7322834645669292},{"duration":0.19354799999999273,"midi":69,"time":223.935036,"velocity":0.7322834645669292},{"duration":0.19354799999999273,"midi":62,"time":223.935036,"velocity":0.7322834645669292},{"duration":0.19354800000002115,"midi":71,"time":224.128584,"velocity":0.7322834645669292},{"duration":0.19354800000002115,"midi":64,"time":224.128584,"velocity":0.7322834645669292},{"duration":0.19354799999999273,"midi":62,"time":224.322132,"velocity":0.7322834645669292},{"duration":0.19354799999999273,"midi":69,"time":224.322132,"velocity":0.7322834645669292},{"duration":2.41934999999998,"midi":69,"time":224.51568,"velocity":0.7322834645669292},{"duration":2.41934999999998,"midi":64,"time":224.51568,"velocity":0.7322834645669292},{"duration":0.7741919999999993,"midi":62,"time":227.612448,"velocity":0.7322834645669292},{"duration":0.7741919999999993,"midi":71,"time":227.612448,"velocity":0.7322834645669292},{"duration":2.322575999999998,"midi":64,"time":228.38664,"velocity":0.7322834645669292},{"duration":2.322575999999998,"midi":67,"time":228.38664,"velocity":0.7322834645669292}]},{"instrument":{"family":"bass","number":36,"name":"slap bass 1"},"notes":[{"duration":0.19354799999999983,"midi":31,"time":35.612832,"velocity":0.47244094488188976},{"duration":0.19354799999999983,"midi":31,"time":36.193476,"velocity":0.47244094488188976},{"duration":0.19354799999999983,"midi":31,"time":36.580572,"velocity":0.47244094488188976},{"duration":0.19354799999999983,"midi":38,"time":36.774119999999996,"velocity":0.47244094488188976},{"duration":0.19354800000000694,"midi":36,"time":37.161215999999996,"velocity":0.47244094488188976},{"duration":0.19354799999999983,"midi":40,"time":37.74186,"velocity":0.47244094488188976},{"duration":0.19354799999999983,"midi":36,"time":38.128956,"velocity":0.47244094488188976},{"duration":0.19354799999999983,"midi":36,"time":38.322504,"velocity":0.47244094488188976},{"duration":0.19354799999999983,"midi":40,"time":38.7096,"velocity":0.47244094488188976},{"duration":0.19354799999999983,"midi":43,"time":39.290244,"velocity":0.47244094488188976},{"duration":0.19354799999999983,"midi":43,"time":39.67734,"velocity":0.47244094488188976},{"duration":0.19354799999999983,"midi":36,"time":39.870888,"velocity":0.47244094488188976},{"duration":0.19354799999999983,"midi":38,"time":40.257984,"velocity":0.47244094488188976},{"duration":0.19354799999999983,"midi":45,"time":40.64508,"velocity":0.47244094488188976},{"duration":0.19354799999999983,"midi":40,"time":41.032176,"velocity":0.47244094488188976},{"duration":0.19354799999999983,"midi":40,"time":41.61282,"velocity":0.47244094488188976},{"duration":0.19354799999999983,"midi":40,"time":41.999916,"velocity":0.47244094488188976},{"duration":0.19354799999999983,"midi":40,"time":42.193464,"velocity":0.47244094488188976},{"duration":0.19354799999999983,"midi":28,"time":42.58056,"velocity":0.47244094488188976},{"duration":0.19354799999999983,"midi":40,"time":43.161204,"velocity":0.47244094488188976},{"duration":0.19354799999999983,"midi":40,"time":43.5483,"velocity":0.47244094488188976},{"duration":0.19354799999999983,"midi":43,"time":43.741848,"velocity":0.47244094488188976},{"duration":0.19354799999999983,"midi":31,"time":44.128944,"velocity":0.47244094488188976},{"duration":0.19354799999999983,"midi":31,"time":44.709588,"velocity":0.47244094488188976},{"duration":0.19354799999999983,"midi":31,"time":45.096683999999996,"velocity":0.47244094488188976},{"duration":0.19354800000000694,"midi":38,"time":45.290231999999996,"velocity":0.47244094488188976},{"duration":0.19354799999999983,"midi":36,"time":45.677328,"velocity":0.47244094488188976},{"duration":0.19354799999999983,"midi":40,"time":46.257972,"velocity":0.47244094488188976},{"duration":0.19354799999999983,"midi":36,"time":46.645068,"velocity":0.47244094488188976},{"duration":0.19354799999999983,"midi":36,"time":46.838616,"velocity":0.47244094488188976},{"duration":0.19354799999999983,"midi":40,"time":47.225712,"velocity":0.47244094488188976},{"duration":0.19354799999999983,"midi":43,"time":47.806356,"velocity":0.47244094488188976},{"duration":0.19354799999999983,"midi":43,"time":48.193452,"velocity":0.47244094488188976},{"duration":0.19354799999999983,"midi":36,"time":48.387,"velocity":0.47244094488188976},{"duration":0.19354799999999983,"midi":38,"time":48.774096,"velocity":0.47244094488188976},{"duration":0.19354799999999983,"midi":45,"time":49.161192,"velocity":0.47244094488188976},{"duration":0.19354799999999983,"midi":40,"time":49.548288,"velocity":0.47244094488188976},{"duration":0.19354799999999983,"midi":40,"time":50.128932,"velocity":0.47244094488188976},{"duration":0.19354799999999983,"midi":40,"time":50.516028,"velocity":0.47244094488188976},{"duration":0.19354799999999983,"midi":40,"time":50.709576,"velocity":0.47244094488188976},{"duration":0.19354799999999983,"midi":28,"time":51.096672,"velocity":0.47244094488188976},{"duration":0.19354799999999983,"midi":40,"time":51.677316,"velocity":0.47244094488188976},{"duration":0.19354799999999983,"midi":40,"time":52.064412,"velocity":0.47244094488188976},{"duration":0.19354799999999983,"midi":43,"time":52.25796,"velocity":0.47244094488188976},{"duration":0.19354799999999983,"midi":31,"time":52.645056,"velocity":0.47244094488188976},{"duration":0.19354799999999983,"midi":31,"time":53.225699999999996,"velocity":0.47244094488188976},{"duration":0.19354800000000694,"midi":31,"time":53.612795999999996,"velocity":0.47244094488188976},{"duration":0.19354799999999983,"midi":38,"time":53.806344,"velocity":0.47244094488188976},{"duration":0.19354799999999983,"midi":36,"time":54.19344,"velocity":0.47244094488188976},{"duration":0.19354799999999983,"midi":40,"time":54.774084,"velocity":0.47244094488188976},{"duration":0.19354799999999983,"midi":36,"time":55.16118,"velocity":0.47244094488188976},{"duration":0.19354799999999983,"midi":36,"time":55.354728,"velocity":0.47244094488188976},{"duration":0.19354799999999983,"midi":40,"time":55.741824,"velocity":0.47244094488188976},{"duration":0.19354799999999983,"midi":43,"time":56.322468,"velocity":0.47244094488188976},{"duration":0.19354799999999983,"midi":43,"time":56.709564,"velocity":0.47244094488188976},{"duration":0.19354799999999983,"midi":36,"time":56.903112,"velocity":0.47244094488188976},{"duration":0.19354799999999983,"midi":38,"time":57.290208,"velocity":0.47244094488188976},{"duration":0.19354799999999983,"midi":45,"time":57.677304,"velocity":0.47244094488188976},{"duration":0.19354799999999983,"midi":40,"time":58.0644,"velocity":0.47244094488188976},{"duration":0.19354799999999983,"midi":40,"time":58.645044,"velocity":0.47244094488188976},{"duration":0.19354799999999983,"midi":40,"time":59.03214,"velocity":0.47244094488188976},{"duration":0.19354799999999983,"midi":40,"time":59.225688,"velocity":0.47244094488188976},{"duration":0.19354799999999983,"midi":28,"time":59.612784,"velocity":0.47244094488188976},{"duration":0.19354799999999983,"midi":40,"time":60.193428,"velocity":0.47244094488188976},{"duration":0.19354799999999983,"midi":40,"time":60.580524,"velocity":0.47244094488188976},{"duration":0.19354799999999983,"midi":43,"time":60.774072,"velocity":0.47244094488188976},{"duration":0.19354799999999983,"midi":31,"time":61.161167999999996,"velocity":0.47244094488188976},{"duration":0.19354800000000694,"midi":31,"time":61.741811999999996,"velocity":0.47244094488188976},{"duration":0.19354799999999983,"midi":31,"time":62.128908,"velocity":0.47244094488188976},{"duration":0.19354799999999983,"midi":38,"time":62.322456,"velocity":0.47244094488188976},{"duration":0.19354799999999983,"midi":36,"time":62.709552,"velocity":0.47244094488188976},{"duration":0.19354799999999983,"midi":40,"time":63.290196,"velocity":0.47244094488188976},{"duration":0.19354799999999983,"midi":36,"time":63.677292,"velocity":0.47244094488188976},{"duration":0.19354799999999273,"midi":36,"time":63.87084,"velocity":0.47244094488188976},{"duration":0.19354799999999273,"midi":40,"time":64.257936,"velocity":0.47244094488188976},{"duration":0.19354800000000694,"midi":43,"time":64.83858,"velocity":0.47244094488188976},{"duration":0.19354800000000694,"midi":43,"time":65.22567599999999,"velocity":0.47244094488188976},{"duration":0.19354799999999273,"midi":36,"time":65.419224,"velocity":0.47244094488188976},{"duration":0.19354799999999273,"midi":38,"time":65.80632,"velocity":0.47244094488188976},{"duration":0.19354800000000694,"midi":45,"time":66.193416,"velocity":0.47244094488188976},{"duration":0.19354800000000694,"midi":40,"time":66.580512,"velocity":0.47244094488188976},{"duration":0.19354799999999273,"midi":40,"time":67.161156,"velocity":0.47244094488188976},{"duration":0.19354799999999273,"midi":40,"time":67.548252,"velocity":0.47244094488188976},{"duration":0.19354800000000694,"midi":40,"time":67.7418,"velocity":0.47244094488188976},{"duration":0.19354800000000694,"midi":28,"time":68.128896,"velocity":0.47244094488188976},{"duration":0.19354799999999273,"midi":40,"time":68.70954,"velocity":0.47244094488188976},{"duration":0.19354799999999273,"midi":40,"time":69.096636,"velocity":0.47244094488188976},{"duration":0.19354800000000694,"midi":43,"time":69.290184,"velocity":0.47244094488188976},{"duration":0.19354800000000694,"midi":31,"time":69.67728,"velocity":0.47244094488188976},{"duration":0.19354799999999273,"midi":31,"time":70.257924,"velocity":0.47244094488188976},{"duration":0.19354799999999273,"midi":31,"time":70.64502,"velocity":0.47244094488188976},{"duration":0.19354800000000694,"midi":38,"time":70.838568,"velocity":0.47244094488188976},{"duration":0.19354800000000694,"midi":36,"time":71.225664,"velocity":0.47244094488188976},{"duration":0.19354799999999273,"midi":40,"time":71.806308,"velocity":0.47244094488188976},{"duration":0.19354799999999273,"midi":36,"time":72.193404,"velocity":0.47244094488188976},{"duration":0.19354800000000694,"midi":36,"time":72.386952,"velocity":0.47244094488188976},{"duration":0.19354800000000694,"midi":40,"time":72.774048,"velocity":0.47244094488188976},{"duration":0.19354799999999273,"midi":43,"time":73.354692,"velocity":0.47244094488188976},{"duration":0.19354799999999273,"midi":43,"time":73.741788,"velocity":0.47244094488188976},{"duration":0.19354800000000694,"midi":36,"time":73.93533599999999,"velocity":0.47244094488188976},{"duration":0.19354800000000694,"midi":38,"time":74.32243199999999,"velocity":0.47244094488188976},{"duration":0.19354799999999273,"midi":45,"time":74.709528,"velocity":0.47244094488188976},{"duration":0.19354799999999273,"midi":40,"time":75.096624,"velocity":0.47244094488188976},{"duration":0.19354800000000694,"midi":40,"time":75.677268,"velocity":0.47244094488188976},{"duration":0.19354800000000694,"midi":40,"time":76.064364,"velocity":0.47244094488188976},{"duration":0.19354799999999273,"midi":40,"time":76.257912,"velocity":0.47244094488188976},{"duration":0.19354799999999273,"midi":28,"time":76.645008,"velocity":0.47244094488188976},{"duration":0.19354800000000694,"midi":40,"time":77.225652,"velocity":0.47244094488188976},{"duration":0.19354800000000694,"midi":40,"time":77.612748,"velocity":0.47244094488188976},{"duration":0.19354799999999273,"midi":43,"time":77.806296,"velocity":0.47244094488188976},{"duration":0.19354799999999273,"midi":31,"time":78.193392,"velocity":0.47244094488188976},{"duration":0.19354800000000694,"midi":31,"time":78.774036,"velocity":0.47244094488188976},{"duration":0.19354800000000694,"midi":31,"time":79.161132,"velocity":0.47244094488188976},{"duration":0.19354799999999273,"midi":38,"time":79.35468,"velocity":0.47244094488188976},{"duration":0.19354799999999273,"midi":36,"time":79.741776,"velocity":0.47244094488188976},{"duration":0.19354800000000694,"midi":40,"time":80.32242,"velocity":0.47244094488188976},{"duration":0.19354800000000694,"midi":36,"time":80.709516,"velocity":0.47244094488188976},{"duration":0.19354799999999273,"midi":36,"time":80.903064,"velocity":0.47244094488188976},{"duration":0.19354799999999273,"midi":40,"time":81.29016,"velocity":0.47244094488188976},{"duration":0.19354800000000694,"midi":43,"time":81.87080399999999,"velocity":0.47244094488188976},{"duration":0.19354800000000694,"midi":43,"time":82.25789999999999,"velocity":0.47244094488188976},{"duration":0.19354800000000694,"midi":36,"time":82.451448,"velocity":0.47244094488188976},{"duration":0.19354800000000694,"midi":38,"time":82.838544,"velocity":0.47244094488188976},{"duration":0.19354800000000694,"midi":45,"time":83.22564,"velocity":0.47244094488188976},{"duration":0.19354800000000694,"midi":40,"time":83.612736,"velocity":0.47244094488188976},{"duration":0.19354799999999273,"midi":40,"time":84.19338,"velocity":0.47244094488188976},{"duration":0.19354799999999273,"midi":40,"time":84.580476,"velocity":0.47244094488188976},{"duration":0.19354800000000694,"midi":40,"time":84.774024,"velocity":0.47244094488188976},{"duration":0.19354800000000694,"midi":28,"time":85.16112,"velocity":0.47244094488188976},{"duration":0.19354799999999273,"midi":40,"time":85.741764,"velocity":0.47244094488188976},{"duration":0.19354799999999273,"midi":40,"time":86.12886,"velocity":0.47244094488188976},{"duration":0.19354800000000694,"midi":43,"time":86.322408,"velocity":0.47244094488188976},{"duration":0.19354800000000694,"midi":31,"time":86.709504,"velocity":0.47244094488188976},{"duration":0.19354799999999273,"midi":31,"time":87.290148,"velocity":0.47244094488188976},{"duration":0.19354799999999273,"midi":31,"time":87.677244,"velocity":0.47244094488188976},{"duration":0.19354800000000694,"midi":38,"time":87.870792,"velocity":0.47244094488188976},{"duration":0.19354800000000694,"midi":36,"time":88.257888,"velocity":0.47244094488188976},{"duration":0.19354799999999273,"midi":40,"time":88.838532,"velocity":0.47244094488188976},{"duration":0.19354799999999273,"midi":36,"time":89.225628,"velocity":0.47244094488188976},{"duration":0.19354800000000694,"midi":36,"time":89.419176,"velocity":0.47244094488188976},{"duration":0.19354800000000694,"midi":40,"time":89.80627199999999,"velocity":0.47244094488188976},{"duration":0.19354799999999273,"midi":43,"time":90.386916,"velocity":0.47244094488188976},{"duration":0.19354800000000694,"midi":43,"time":90.774012,"velocity":0.47244094488188976},{"duration":0.19354799999999273,"midi":36,"time":90.96756,"velocity":0.47244094488188976},{"duration":0.19354799999999273,"midi":38,"time":91.354656,"velocity":0.47244094488188976},{"duration":0.19354799999999273,"midi":45,"time":91.741752,"velocity":0.47244094488188976},{"duration":0.19354799999999273,"midi":40,"time":92.128848,"velocity":0.47244094488188976},{"duration":0.19354800000000694,"midi":40,"time":92.709492,"velocity":0.47244094488188976},{"duration":0.19354800000000694,"midi":40,"time":93.096588,"velocity":0.47244094488188976},{"duration":0.19354799999999273,"midi":40,"time":93.290136,"velocity":0.47244094488188976},{"duration":0.19354799999999273,"midi":28,"time":93.677232,"velocity":0.47244094488188976},{"duration":0.19354800000000694,"midi":40,"time":94.257876,"velocity":0.47244094488188976},{"duration":0.19354800000000694,"midi":40,"time":94.644972,"velocity":0.47244094488188976},{"duration":0.19354799999999273,"midi":43,"time":94.83852,"velocity":0.47244094488188976},{"duration":0.19354799999999273,"midi":31,"time":95.225616,"velocity":0.47244094488188976},{"duration":0.19354800000000694,"midi":31,"time":95.80626,"velocity":0.47244094488188976},{"duration":0.19354800000000694,"midi":31,"time":96.193356,"velocity":0.47244094488188976},{"duration":0.19354799999999273,"midi":38,"time":96.386904,"velocity":0.47244094488188976},{"duration":0.19354799999999273,"midi":36,"time":96.774,"velocity":0.47244094488188976},{"duration":0.19354800000000694,"midi":40,"time":97.354644,"velocity":0.47244094488188976},{"duration":0.19354800000000694,"midi":36,"time":97.74174,"velocity":0.47244094488188976},{"duration":0.19354799999999273,"midi":36,"time":97.935288,"velocity":0.47244094488188976},{"duration":0.19354799999999273,"midi":40,"time":98.322384,"velocity":0.47244094488188976},{"duration":0.19354800000000694,"midi":43,"time":98.90302799999999,"velocity":0.47244094488188976},{"duration":0.19354799999999273,"midi":43,"time":99.290124,"velocity":0.47244094488188976},{"duration":0.19354800000000694,"midi":36,"time":99.483672,"velocity":0.47244094488188976},{"duration":0.19354800000000694,"midi":38,"time":99.870768,"velocity":0.47244094488188976},{"duration":0.19354800000000694,"midi":45,"time":100.257864,"velocity":0.47244094488188976},{"duration":0.19354800000000694,"midi":40,"time":100.64496,"velocity":0.47244094488188976},{"duration":0.19354800000000694,"midi":35,"time":102.967536,"velocity":0.47244094488188976},{"duration":0.19354799999999273,"midi":36,"time":103.161084,"velocity":0.47244094488188976},{"duration":0.19354800000000694,"midi":38,"time":103.354632,"velocity":0.47244094488188976},{"duration":0.19354799999999273,"midi":40,"time":103.54818,"velocity":0.47244094488188976},{"duration":0.19354800000000694,"midi":31,"time":103.741728,"velocity":0.47244094488188976},{"duration":0.19354799999999273,"midi":31,"time":104.322372,"velocity":0.47244094488188976},{"duration":0.19354799999999273,"midi":43,"time":104.709468,"velocity":0.47244094488188976},{"duration":0.19354800000000694,"midi":38,"time":104.903016,"velocity":0.47244094488188976},{"duration":0.19354800000000694,"midi":36,"time":105.290112,"velocity":0.47244094488188976},{"duration":0.19354799999999273,"midi":40,"time":105.870756,"velocity":0.47244094488188976},{"duration":0.19354799999999273,"midi":36,"time":106.257852,"velocity":0.47244094488188976},{"duration":0.19354800000000694,"midi":48,"time":106.45139999999999,"velocity":0.47244094488188976},{"duration":0.19354800000000694,"midi":40,"time":106.83849599999999,"velocity":0.47244094488188976},{"duration":0.19354800000000694,"midi":43,"time":107.41914,"velocity":0.47244094488188976},{"duration":0.19354800000000694,"midi":43,"time":107.806236,"velocity":0.47244094488188976},{"duration":0.19354799999999273,"midi":36,"time":107.999784,"velocity":0.47244094488188976},{"duration":0.19354799999999273,"midi":38,"time":108.38688,"velocity":0.47244094488188976},{"duration":0.19354799999999273,"midi":45,"time":108.773976,"velocity":0.47244094488188976},{"duration":0.19354799999999273,"midi":40,"time":109.161072,"velocity":0.47244094488188976},{"duration":0.19354800000000694,"midi":40,"time":109.741716,"velocity":0.47244094488188976},{"duration":0.19354800000000694,"midi":40,"time":110.128812,"velocity":0.47244094488188976},{"duration":0.19354799999999273,"midi":40,"time":110.32236,"velocity":0.47244094488188976},{"duration":0.19354799999999273,"midi":28,"time":110.709456,"velocity":0.47244094488188976},{"duration":0.19354800000000694,"midi":40,"time":111.2901,"velocity":0.47244094488188976},{"duration":0.19354800000000694,"midi":40,"time":111.677196,"velocity":0.47244094488188976},{"duration":0.19354799999999273,"midi":43,"time":111.870744,"velocity":0.47244094488188976},{"duration":0.19354799999999273,"midi":43,"time":112.25784,"velocity":0.47244094488188976},{"duration":0.19354800000000694,"midi":31,"time":112.838484,"velocity":0.47244094488188976},{"duration":0.19354800000000694,"midi":43,"time":113.22558,"velocity":0.47244094488188976},{"duration":0.19354799999999273,"midi":38,"time":113.419128,"velocity":0.47244094488188976},{"duration":0.19354799999999273,"midi":36,"time":113.806224,"velocity":0.47244094488188976},{"duration":0.19354800000000694,"midi":40,"time":114.38686799999999,"velocity":0.47244094488188976},{"duration":0.19354800000000694,"midi":36,"time":114.77396399999999,"velocity":0.47244094488188976},{"duration":0.19354799999999273,"midi":48,"time":114.967512,"velocity":0.47244094488188976},{"duration":0.19354799999999273,"midi":40,"time":115.354608,"velocity":0.47244094488188976},{"duration":0.19354799999999273,"midi":43,"time":115.935252,"velocity":0.47244094488188976},{"duration":0.19354799999999273,"midi":43,"time":116.322348,"velocity":0.47244094488188976},{"duration":0.19354800000000694,"midi":36,"time":116.515896,"velocity":0.47244094488188976},{"duration":0.19354800000000694,"midi":38,"time":116.902992,"velocity":0.47244094488188976},{"duration":0.19354800000000694,"midi":45,"time":117.290088,"velocity":0.47244094488188976},{"duration":0.19354800000000694,"midi":40,"time":117.677184,"velocity":0.47244094488188976},{"duration":0.19354799999999273,"midi":40,"time":118.257828,"velocity":0.47244094488188976},{"duration":0.19354799999999273,"midi":40,"time":118.644924,"velocity":0.47244094488188976},{"duration":0.19354800000000694,"midi":40,"time":118.838472,"velocity":0.47244094488188976},{"duration":0.19354800000000694,"midi":28,"time":119.225568,"velocity":0.47244094488188976},{"duration":0.19354799999999273,"midi":40,"time":119.806212,"velocity":0.47244094488188976},{"duration":0.19354799999999273,"midi":40,"time":120.193308,"velocity":0.47244094488188976},{"duration":0.19354800000000694,"midi":43,"time":120.386856,"velocity":0.47244094488188976},{"duration":0.19354800000000694,"midi":43,"time":120.773952,"velocity":0.47244094488188976},{"duration":0.19354799999999273,"midi":31,"time":121.354596,"velocity":0.47244094488188976},{"duration":0.19354799999999273,"midi":43,"time":121.741692,"velocity":0.47244094488188976},{"duration":0.19354800000000694,"midi":38,"time":121.93524,"velocity":0.47244094488188976},{"duration":0.19354800000000694,"midi":36,"time":122.32233599999999,"velocity":0.47244094488188976},{"duration":0.19354799999999273,"midi":40,"time":122.90298,"velocity":0.47244094488188976},{"duration":0.19354799999999273,"midi":36,"time":123.290076,"velocity":0.47244094488188976},{"duration":0.19354800000000694,"midi":48,"time":123.48362399999999,"velocity":0.47244094488188976},{"duration":0.19354799999999273,"midi":40,"time":123.87072,"velocity":0.47244094488188976},{"duration":0.19354800000000694,"midi":43,"time":124.451364,"velocity":0.47244094488188976},{"duration":0.19354800000000694,"midi":43,"time":124.83846,"velocity":0.47244094488188976},{"duration":0.19354799999999273,"midi":36,"time":125.032008,"velocity":0.47244094488188976},{"duration":0.19354799999999273,"midi":38,"time":125.419104,"velocity":0.47244094488188976},{"duration":0.19354799999999273,"midi":45,"time":125.8062,"velocity":0.47244094488188976},{"duration":0.19354799999999273,"midi":40,"time":126.193296,"velocity":0.47244094488188976},{"duration":0.19354800000000694,"midi":40,"time":126.77394,"velocity":0.47244094488188976},{"duration":0.19354800000000694,"midi":40,"time":127.161036,"velocity":0.47244094488188976},{"duration":0.19354799999999273,"midi":40,"time":127.354584,"velocity":0.47244094488188976},{"duration":0.19354799999999273,"midi":28,"time":127.74168,"velocity":0.47244094488188976},{"duration":0.19354799999999273,"midi":40,"time":128.322324,"velocity":0.47244094488188976},{"duration":0.19354799999999273,"midi":40,"time":128.70942,"velocity":0.47244094488188976},{"duration":0.19354800000002115,"midi":43,"time":128.902968,"velocity":0.47244094488188976},{"duration":0.19354799999999273,"midi":43,"time":129.290064,"velocity":0.47244094488188976},{"duration":0.19354799999999273,"midi":31,"time":129.870708,"velocity":0.47244094488188976},{"duration":0.19354799999999273,"midi":43,"time":130.257804,"velocity":0.47244094488188976},{"duration":0.19354800000002115,"midi":38,"time":130.45135199999999,"velocity":0.47244094488188976},{"duration":0.19354799999999273,"midi":36,"time":130.838448,"velocity":0.47244094488188976},{"duration":0.19354799999999273,"midi":40,"time":131.419092,"velocity":0.47244094488188976},{"duration":0.19354799999999273,"midi":36,"time":131.806188,"velocity":0.47244094488188976},{"duration":0.19354800000002115,"midi":48,"time":131.99973599999998,"velocity":0.47244094488188976},{"duration":0.19354799999999273,"midi":40,"time":132.386832,"velocity":0.47244094488188976},{"duration":0.19354799999999273,"midi":43,"time":132.967476,"velocity":0.47244094488188976},{"duration":0.19354800000002115,"midi":43,"time":133.354572,"velocity":0.47244094488188976},{"duration":0.19354799999999273,"midi":36,"time":133.54812,"velocity":0.47244094488188976},{"duration":0.19354799999999273,"midi":38,"time":133.935216,"velocity":0.47244094488188976},{"duration":0.19354799999999273,"midi":45,"time":134.322312,"velocity":0.47244094488188976},{"duration":0.19354799999999273,"midi":40,"time":134.709408,"velocity":0.47244094488188976},{"duration":0.19354799999999273,"midi":40,"time":135.290052,"velocity":0.47244094488188976},{"duration":0.19354800000002115,"midi":40,"time":135.677148,"velocity":0.47244094488188976},{"duration":0.19354799999999273,"midi":40,"time":135.870696,"velocity":0.47244094488188976},{"duration":0.19354799999999273,"midi":28,"time":136.257792,"velocity":0.47244094488188976},{"duration":0.19354799999999273,"midi":40,"time":136.838436,"velocity":0.47244094488188976},{"duration":0.19354800000002115,"midi":40,"time":137.225532,"velocity":0.47244094488188976},{"duration":0.19354799999999273,"midi":43,"time":137.41908,"velocity":0.47244094488188976},{"duration":0.19354799999999273,"midi":43,"time":137.806176,"velocity":0.47244094488188976},{"duration":0.19354799999999273,"midi":31,"time":138.38682,"velocity":0.47244094488188976},{"duration":0.19354800000002115,"midi":43,"time":138.77391599999999,"velocity":0.47244094488188976},{"duration":0.19354799999999273,"midi":38,"time":138.967464,"velocity":0.47244094488188976},{"duration":0.19354799999999273,"midi":36,"time":139.35456,"velocity":0.47244094488188976},{"duration":0.19354799999999273,"midi":40,"time":139.935204,"velocity":0.47244094488188976},{"duration":0.19354800000002115,"midi":36,"time":140.32229999999998,"velocity":0.47244094488188976},{"duration":0.19354799999999273,"midi":48,"time":140.515848,"velocity":0.47244094488188976},{"duration":0.19354800000002115,"midi":40,"time":140.902944,"velocity":0.47244094488188976},{"duration":0.19354799999999273,"midi":43,"time":141.483588,"velocity":0.47244094488188976},{"duration":0.19354799999999273,"midi":43,"time":141.870684,"velocity":0.47244094488188976},{"duration":0.19354799999999273,"midi":36,"time":142.064232,"velocity":0.47244094488188976},{"duration":0.19354800000002115,"midi":38,"time":142.451328,"velocity":0.47244094488188976},{"duration":0.19354799999999273,"midi":45,"time":142.838424,"velocity":0.47244094488188976},{"duration":0.19354800000002115,"midi":40,"time":143.22552,"velocity":0.47244094488188976},{"duration":0.19354799999999273,"midi":40,"time":143.806164,"velocity":0.47244094488188976},{"duration":0.19354799999999273,"midi":40,"time":144.19326,"velocity":0.47244094488188976},{"duration":0.19354799999999273,"midi":40,"time":144.386808,"velocity":0.47244094488188976},{"duration":0.19354800000002115,"midi":28,"time":144.773904,"velocity":0.47244094488188976},{"duration":0.19354799999999273,"midi":40,"time":145.354548,"velocity":0.47244094488188976},{"duration":0.19354799999999273,"midi":40,"time":145.741644,"velocity":0.47244094488188976},{"duration":0.19354799999999273,"midi":43,"time":145.935192,"velocity":0.47244094488188976},{"duration":0.19354800000002115,"midi":43,"time":146.322288,"velocity":0.47244094488188976},{"duration":0.19354799999999273,"midi":31,"time":146.902932,"velocity":0.47244094488188976},{"duration":0.19354799999999273,"midi":43,"time":147.290028,"velocity":0.47244094488188976},{"duration":0.19354799999999273,"midi":38,"time":147.483576,"velocity":0.47244094488188976},{"duration":0.19354800000002115,"midi":36,"time":147.87067199999998,"velocity":0.47244094488188976},{"duration":0.19354799999999273,"midi":40,"time":148.451316,"velocity":0.47244094488188976},{"duration":0.19354799999999273,"midi":36,"time":148.838412,"velocity":0.47244094488188976},{"duration":0.19354799999999273,"midi":48,"time":149.03196,"velocity":0.47244094488188976},{"duration":0.19354799999999273,"midi":40,"time":149.419056,"velocity":0.47244094488188976},{"duration":0.19354800000002115,"midi":43,"time":149.9997,"velocity":0.47244094488188976},{"duration":0.19354799999999273,"midi":43,"time":150.386796,"velocity":0.47244094488188976},{"duration":0.19354799999999273,"midi":36,"time":150.580344,"velocity":0.47244094488188976},{"duration":0.19354799999999273,"midi":38,"time":150.96744,"velocity":0.47244094488188976},{"duration":0.19354799999999273,"midi":45,"time":151.354536,"velocity":0.47244094488188976},{"duration":0.19354799999999273,"midi":40,"time":151.741632,"velocity":0.47244094488188976},{"duration":0.19354800000002115,"midi":40,"time":152.322276,"velocity":0.47244094488188976},{"duration":0.19354799999999273,"midi":40,"time":152.709372,"velocity":0.47244094488188976},{"duration":0.19354799999999273,"midi":40,"time":152.90292,"velocity":0.47244094488188976},{"duration":0.19354799999999273,"midi":28,"time":153.290016,"velocity":0.47244094488188976},{"duration":0.19354800000002115,"midi":40,"time":153.87066,"velocity":0.47244094488188976},{"duration":0.19354799999999273,"midi":40,"time":154.257756,"velocity":0.47244094488188976},{"duration":0.19354799999999273,"midi":43,"time":154.451304,"velocity":0.47244094488188976},{"duration":0.19354799999999273,"midi":43,"time":154.8384,"velocity":0.47244094488188976},{"duration":0.19354800000002115,"midi":31,"time":155.41904399999999,"velocity":0.47244094488188976},{"duration":0.19354799999999273,"midi":43,"time":155.80614,"velocity":0.47244094488188976},{"duration":0.19354799999999273,"midi":38,"time":155.999688,"velocity":0.47244094488188976},{"duration":0.19354799999999273,"midi":36,"time":156.386784,"velocity":0.47244094488188976},{"duration":0.19354799999999273,"midi":40,"time":156.967428,"velocity":0.47244094488188976},{"duration":0.19354799999999273,"midi":36,"time":157.354524,"velocity":0.47244094488188976},{"duration":0.19354800000002115,"midi":48,"time":157.548072,"velocity":0.47244094488188976},{"duration":0.19354799999999273,"midi":40,"time":157.935168,"velocity":0.47244094488188976},{"duration":0.19354799999999273,"midi":43,"time":158.515812,"velocity":0.47244094488188976},{"duration":0.19354799999999273,"midi":43,"time":158.902908,"velocity":0.47244094488188976},{"duration":0.19354800000002115,"midi":36,"time":159.096456,"velocity":0.47244094488188976},{"duration":0.19354799999999273,"midi":38,"time":159.483552,"velocity":0.47244094488188976},{"duration":0.19354800000002115,"midi":45,"time":159.870648,"velocity":0.47244094488188976},{"duration":0.19354799999999273,"midi":40,"time":160.257744,"velocity":0.47244094488188976},{"duration":0.19354799999999273,"midi":40,"time":160.838388,"velocity":0.47244094488188976},{"duration":0.19354799999999273,"midi":40,"time":161.225484,"velocity":0.47244094488188976},{"duration":0.19354800000002115,"midi":40,"time":161.419032,"velocity":0.47244094488188976},{"duration":0.19354799999999273,"midi":28,"time":161.806128,"velocity":0.47244094488188976},{"duration":0.19354799999999273,"midi":40,"time":162.386772,"velocity":0.47244094488188976},{"duration":0.19354799999999273,"midi":40,"time":162.773868,"velocity":0.47244094488188976},{"duration":0.19354800000002115,"midi":43,"time":162.967416,"velocity":0.47244094488188976},{"duration":0.19354799999999273,"midi":43,"time":163.354512,"velocity":0.47244094488188976},{"duration":0.19354799999999273,"midi":31,"time":163.935156,"velocity":0.47244094488188976},{"duration":0.19354799999999273,"midi":43,"time":164.322252,"velocity":0.47244094488188976},{"duration":0.19354800000002115,"midi":38,"time":164.51579999999998,"velocity":0.47244094488188976},{"duration":0.19354799999999273,"midi":36,"time":164.902896,"velocity":0.47244094488188976},{"duration":0.19354799999999273,"midi":40,"time":165.48354,"velocity":0.47244094488188976},{"duration":0.19354800000002115,"midi":36,"time":165.870636,"velocity":0.47244094488188976},{"duration":0.19354799999999273,"midi":48,"time":166.064184,"velocity":0.47244094488188976},{"duration":0.19354799999999273,"midi":40,"time":166.45128,"velocity":0.47244094488188976},{"duration":0.19354799999999273,"midi":43,"time":167.031924,"velocity":0.47244094488188976},{"duration":0.19354800000002115,"midi":43,"time":167.41902,"velocity":0.47244094488188976},{"duration":0.19354799999999273,"midi":36,"time":167.612568,"velocity":0.47244094488188976},{"duration":0.19354799999999273,"midi":38,"time":167.999664,"velocity":0.47244094488188976},{"duration":0.19354799999999273,"midi":45,"time":168.38676,"velocity":0.47244094488188976},{"duration":0.19354799999999273,"midi":40,"time":168.773856,"velocity":0.47244094488188976},{"duration":0.19354799999999273,"midi":40,"time":169.3545,"velocity":0.47244094488188976},{"duration":0.19354800000002115,"midi":40,"time":169.741596,"velocity":0.47244094488188976},{"duration":0.19354799999999273,"midi":40,"time":169.935144,"velocity":0.47244094488188976},{"duration":0.19354799999999273,"midi":28,"time":170.32224,"velocity":0.47244094488188976},{"duration":0.19354799999999273,"midi":40,"time":170.902884,"velocity":0.47244094488188976},{"duration":0.19354800000002115,"midi":40,"time":171.28997999999999,"velocity":0.47244094488188976},{"duration":0.19354799999999273,"midi":43,"time":171.483528,"velocity":0.47244094488188976},{"duration":0.19354799999999273,"midi":43,"time":171.870624,"velocity":0.47244094488188976},{"duration":0.38709599999998545,"midi":31,"time":172.451268,"velocity":0.47244094488188976},{"duration":0.19354800000002115,"midi":43,"time":172.83836399999998,"velocity":0.47244094488188976},{"duration":0.19354799999999273,"midi":38,"time":173.031912,"velocity":0.47244094488188976},{"duration":0.19354799999999273,"midi":40,"time":173.22546,"velocity":0.47244094488188976},{"duration":0.19354800000002115,"midi":36,"time":173.419008,"velocity":0.47244094488188976},{"duration":0.19354799999999273,"midi":40,"time":173.999652,"velocity":0.47244094488188976},{"duration":0.19354799999999273,"midi":36,"time":174.386748,"velocity":0.47244094488188976},{"duration":0.19354799999999273,"midi":48,"time":174.580296,"velocity":0.47244094488188976},{"duration":0.19354799999999273,"midi":38,"time":174.773844,"velocity":0.47244094488188976},{"duration":0.19354800000002115,"midi":40,"time":174.967392,"velocity":0.47244094488188976},{"duration":0.19354799999999273,"midi":43,"time":175.548036,"velocity":0.47244094488188976},{"duration":0.19354799999999273,"midi":43,"time":175.935132,"velocity":0.47244094488188976},{"duration":0.19354799999999273,"midi":36,"time":176.12868,"velocity":0.47244094488188976},{"duration":0.19354799999999273,"midi":37,"time":176.322228,"velocity":0.47244094488188976},{"duration":0.19354800000002115,"midi":38,"time":176.515776,"velocity":0.47244094488188976},{"duration":0.19354799999999273,"midi":45,"time":176.902872,"velocity":0.47244094488188976},{"duration":0.19354800000002115,"midi":40,"time":177.289968,"velocity":0.47244094488188976},{"duration":0.19354799999999273,"midi":40,"time":177.870612,"velocity":0.47244094488188976},{"duration":0.19354799999999273,"midi":38,"time":178.257708,"velocity":0.47244094488188976},{"duration":0.19354799999999273,"midi":40,"time":178.451256,"velocity":0.47244094488188976},{"duration":0.19354800000002115,"midi":28,"time":178.838352,"velocity":0.47244094488188976},{"duration":0.19354799999999273,"midi":40,"time":179.418996,"velocity":0.47244094488188976},{"duration":0.19354800000002115,"midi":28,"time":179.61254399999999,"velocity":0.47244094488188976},{"duration":0.19354799999999273,"midi":40,"time":179.806092,"velocity":0.47244094488188976},{"duration":0.19354799999999273,"midi":43,"time":179.99964,"velocity":0.47244094488188976},{"duration":0.19354799999999273,"midi":45,"time":180.193188,"velocity":0.47244094488188976},{"duration":0.19354800000002115,"midi":43,"time":180.38673599999998,"velocity":0.47244094488188976},{"duration":0.3870960000000139,"midi":31,"time":180.96738,"velocity":0.47244094488188976},{"duration":0.19354799999999273,"midi":43,"time":181.354476,"velocity":0.47244094488188976},{"duration":0.19354799999999273,"midi":38,"time":181.548024,"velocity":0.47244094488188976},{"duration":0.19354800000002115,"midi":40,"time":181.741572,"velocity":0.47244094488188976},{"duration":0.19354799999999273,"midi":36,"time":181.93512,"velocity":0.47244094488188976},{"duration":0.19354800000002115,"midi":40,"time":182.515764,"velocity":0.47244094488188976},{"duration":0.19354799999999273,"midi":36,"time":182.90286,"velocity":0.47244094488188976},{"duration":0.19354799999999273,"midi":48,"time":183.096408,"velocity":0.47244094488188976},{"duration":0.19354800000002115,"midi":38,"time":183.289956,"velocity":0.47244094488188976},{"duration":0.19354799999999273,"midi":40,"time":183.483504,"velocity":0.47244094488188976},{"duration":0.19354800000002115,"midi":43,"time":184.064148,"velocity":0.47244094488188976},{"duration":0.19354799999999273,"midi":43,"time":184.451244,"velocity":0.47244094488188976},{"duration":0.19354799999999273,"midi":36,"time":184.644792,"velocity":0.47244094488188976},{"duration":0.19354800000002115,"midi":37,"time":184.83834,"velocity":0.47244094488188976},{"duration":0.19354799999999273,"midi":38,"time":185.031888,"velocity":0.47244094488188976},{"duration":0.19354799999999273,"midi":45,"time":185.418984,"velocity":0.47244094488188976},{"duration":0.19354799999999273,"midi":40,"time":185.80608,"velocity":0.47244094488188976},{"duration":0.19354800000002115,"midi":40,"time":186.386724,"velocity":0.47244094488188976},{"duration":0.19354799999999273,"midi":38,"time":186.77382,"velocity":0.47244094488188976},{"duration":0.19354799999999273,"midi":40,"time":186.967368,"velocity":0.47244094488188976},{"duration":0.19354799999999273,"midi":28,"time":187.354464,"velocity":0.47244094488188976},{"duration":0.19354800000002115,"midi":40,"time":187.93510799999999,"velocity":0.47244094488188976},{"duration":0.19354799999999273,"midi":28,"time":188.128656,"velocity":0.47244094488188976},{"duration":0.19354799999999273,"midi":40,"time":188.322204,"velocity":0.47244094488188976},{"duration":0.19354799999999273,"midi":43,"time":188.515752,"velocity":0.47244094488188976},{"duration":0.19354800000002115,"midi":45,"time":188.70929999999998,"velocity":0.47244094488188976},{"duration":0.19354799999999273,"midi":43,"time":188.902848,"velocity":0.47244094488188976},{"duration":0.3870960000000139,"midi":31,"time":189.48349199999998,"velocity":0.47244094488188976},{"duration":0.19354799999999273,"midi":43,"time":189.870588,"velocity":0.47244094488188976},{"duration":0.19354800000002115,"midi":38,"time":190.064136,"velocity":0.47244094488188976},{"duration":0.19354799999999273,"midi":40,"time":190.257684,"velocity":0.47244094488188976},{"duration":0.19354799999999273,"midi":36,"time":190.451232,"velocity":0.47244094488188976},{"duration":0.19354799999999273,"midi":40,"time":191.031876,"velocity":0.47244094488188976},{"duration":0.19354799999999273,"midi":36,"time":191.418972,"velocity":0.47244094488188976},{"duration":0.19354800000002115,"midi":48,"time":191.61252,"velocity":0.47244094488188976},{"duration":0.19354799999999273,"midi":38,"time":191.806068,"velocity":0.47244094488188976},{"duration":0.19354799999999273,"midi":40,"time":191.999616,"velocity":0.47244094488188976},{"duration":0.19354799999999273,"midi":43,"time":192.58026,"velocity":0.47244094488188976},{"duration":0.19354799999999273,"midi":43,"time":192.967356,"velocity":0.47244094488188976},{"duration":0.19354800000002115,"midi":36,"time":193.160904,"velocity":0.47244094488188976},{"duration":0.19354799999999273,"midi":37,"time":193.354452,"velocity":0.47244094488188976},{"duration":0.19354799999999273,"midi":38,"time":193.548,"velocity":0.47244094488188976},{"duration":0.19354800000002115,"midi":45,"time":193.935096,"velocity":0.47244094488188976},{"duration":0.19354799999999273,"midi":40,"time":194.322192,"velocity":0.47244094488188976},{"duration":0.19354799999999273,"midi":40,"time":194.902836,"velocity":0.47244094488188976},{"duration":0.19354799999999273,"midi":38,"time":195.289932,"velocity":0.47244094488188976},{"duration":0.19354800000002115,"midi":40,"time":195.48348,"velocity":0.47244094488188976},{"duration":0.19354799999999273,"midi":28,"time":195.870576,"velocity":0.47244094488188976},{"duration":0.19354799999999273,"midi":40,"time":196.45122,"velocity":0.47244094488188976},{"duration":0.19354799999999273,"midi":28,"time":196.644768,"velocity":0.47244094488188976},{"duration":0.19354799999999273,"midi":40,"time":196.838316,"velocity":0.47244094488188976},{"duration":0.19354800000002115,"midi":43,"time":197.03186399999998,"velocity":0.47244094488188976},{"duration":0.19354799999999273,"midi":45,"time":197.225412,"velocity":0.47244094488188976},{"duration":0.19354799999999273,"midi":43,"time":197.41896,"velocity":0.47244094488188976},{"duration":0.38709599999998545,"midi":31,"time":197.999604,"velocity":0.47244094488188976},{"duration":0.19354800000002115,"midi":43,"time":198.3867,"velocity":0.47244094488188976},{"duration":0.19354799999999273,"midi":38,"time":198.580248,"velocity":0.47244094488188976},{"duration":0.19354799999999273,"midi":40,"time":198.773796,"velocity":0.47244094488188976},{"duration":0.19354799999999273,"midi":36,"time":198.967344,"velocity":0.47244094488188976},{"duration":0.19354799999999273,"midi":40,"time":199.547988,"velocity":0.47244094488188976},{"duration":0.19354800000002115,"midi":36,"time":199.935084,"velocity":0.47244094488188976},{"duration":0.19354799999999273,"midi":48,"time":200.128632,"velocity":0.47244094488188976},{"duration":0.19354799999999273,"midi":38,"time":200.32218,"velocity":0.47244094488188976},{"duration":0.19354799999999273,"midi":40,"time":200.515728,"velocity":0.47244094488188976},{"duration":0.19354799999999273,"midi":43,"time":201.096372,"velocity":0.47244094488188976},{"duration":0.19354800000002115,"midi":43,"time":201.483468,"velocity":0.47244094488188976},{"duration":0.19354799999999273,"midi":36,"time":201.677016,"velocity":0.47244094488188976},{"duration":0.19354799999999273,"midi":37,"time":201.870564,"velocity":0.47244094488188976},{"duration":0.19354799999999273,"midi":38,"time":202.064112,"velocity":0.47244094488188976},{"duration":0.19354799999999273,"midi":45,"time":202.451208,"velocity":0.47244094488188976},{"duration":0.19354799999999273,"midi":40,"time":202.838304,"velocity":0.47244094488188976},{"duration":0.19354799999999273,"midi":40,"time":203.418948,"velocity":0.47244094488188976},{"duration":0.19354800000002115,"midi":38,"time":203.80604399999999,"velocity":0.47244094488188976},{"duration":0.19354799999999273,"midi":40,"time":203.999592,"velocity":0.47244094488188976},{"duration":0.19354799999999273,"midi":28,"time":204.386688,"velocity":0.47244094488188976},{"duration":0.19354799999999273,"midi":40,"time":204.967332,"velocity":0.47244094488188976},{"duration":0.19354799999999273,"midi":28,"time":205.16088,"velocity":0.47244094488188976},{"duration":0.19354800000002115,"midi":40,"time":205.35442799999998,"velocity":0.47244094488188976},{"duration":0.19354799999999273,"midi":43,"time":205.547976,"velocity":0.47244094488188976},{"duration":0.19354799999999273,"midi":45,"time":205.741524,"velocity":0.47244094488188976},{"duration":0.19354799999999273,"midi":31,"time":205.935072,"velocity":0.47244094488188976},{"duration":0.19354799999999273,"midi":31,"time":206.515716,"velocity":0.47244094488188976},{"duration":0.19354799999999273,"midi":43,"time":206.902812,"velocity":0.47244094488188976},{"duration":0.19354799999999273,"midi":38,"time":207.09636,"velocity":0.47244094488188976},{"duration":0.19354800000002115,"midi":36,"time":207.483456,"velocity":0.47244094488188976},{"duration":0.19354799999999273,"midi":40,"time":208.0641,"velocity":0.47244094488188976},{"duration":0.19354799999999273,"midi":36,"time":208.451196,"velocity":0.47244094488188976},{"duration":0.19354799999999273,"midi":48,"time":208.644744,"velocity":0.47244094488188976},{"duration":0.19354800000002115,"midi":40,"time":209.03184,"velocity":0.47244094488188976},{"duration":0.19354799999999273,"midi":43,"time":209.612484,"velocity":0.47244094488188976},{"duration":0.19354799999999273,"midi":43,"time":209.99958,"velocity":0.47244094488188976},{"duration":0.19354799999999273,"midi":36,"time":210.193128,"velocity":0.47244094488188976},{"duration":0.19354800000002115,"midi":38,"time":210.580224,"velocity":0.47244094488188976},{"duration":0.19354799999999273,"midi":45,"time":210.96732,"velocity":0.47244094488188976},{"duration":0.19354800000002115,"midi":40,"time":211.354416,"velocity":0.47244094488188976},{"duration":0.19354799999999273,"midi":40,"time":211.93506,"velocity":0.47244094488188976},{"duration":0.19354799999999273,"midi":40,"time":212.322156,"velocity":0.47244094488188976},{"duration":0.19354799999999273,"midi":40,"time":212.515704,"velocity":0.47244094488188976},{"duration":0.19354800000002115,"midi":28,"time":212.90279999999998,"velocity":0.47244094488188976},{"duration":0.19354799999999273,"midi":40,"time":213.483444,"velocity":0.47244094488188976},{"duration":0.19354799999999273,"midi":40,"time":213.87054,"velocity":0.47244094488188976},{"duration":0.19354799999999273,"midi":43,"time":214.064088,"velocity":0.47244094488188976},{"duration":0.19354800000002115,"midi":31,"time":214.45118399999998,"velocity":0.47244094488188976},{"duration":0.19354800000002115,"midi":31,"time":215.031828,"velocity":0.47244094488188976},{"duration":0.19354799999999273,"midi":43,"time":215.418924,"velocity":0.47244094488188976},{"duration":0.19354799999999273,"midi":38,"time":215.612472,"velocity":0.47244094488188976},{"duration":0.19354799999999273,"midi":36,"time":215.999568,"velocity":0.47244094488188976},{"duration":0.19354800000002115,"midi":40,"time":216.580212,"velocity":0.47244094488188976},{"duration":0.19354799999999273,"midi":36,"time":216.967308,"velocity":0.47244094488188976},{"duration":0.19354799999999273,"midi":48,"time":217.160856,"velocity":0.47244094488188976},{"duration":0.19354799999999273,"midi":40,"time":217.547952,"velocity":0.47244094488188976},{"duration":0.19354800000002115,"midi":43,"time":218.128596,"velocity":0.47244094488188976},{"duration":0.19354799999999273,"midi":43,"time":218.515692,"velocity":0.47244094488188976},{"duration":0.19354799999999273,"midi":36,"time":218.70924,"velocity":0.47244094488188976},{"duration":0.19354799999999273,"midi":38,"time":219.096336,"velocity":0.47244094488188976},{"duration":0.19354799999999273,"midi":45,"time":219.483432,"velocity":0.47244094488188976},{"duration":0.19354799999999273,"midi":40,"time":219.870528,"velocity":0.47244094488188976},{"duration":0.19354800000002115,"midi":40,"time":220.45117199999999,"velocity":0.47244094488188976},{"duration":0.19354799999999273,"midi":40,"time":220.838268,"velocity":0.47244094488188976},{"duration":0.19354799999999273,"midi":40,"time":221.031816,"velocity":0.47244094488188976},{"duration":0.19354799999999273,"midi":28,"time":221.418912,"velocity":0.47244094488188976},{"duration":8.516111999999993,"midi":28,"time":221.418912,"velocity":0.47244094488188976},{"duration":8.709659999999985,"midi":28,"time":221.418912,"velocity":0.47244094488188976},{"duration":0.19354800000002115,"midi":40,"time":221.99955599999998,"velocity":0.47244094488188976},{"duration":0.19354799999999273,"midi":40,"time":222.386652,"velocity":0.47244094488188976},{"duration":0.19354799999999273,"midi":43,"time":222.5802,"velocity":0.47244094488188976},{"duration":0.19354799999999273,"midi":31,"time":222.967296,"velocity":0.47244094488188976},{"duration":0.19354799999999273,"midi":31,"time":223.54794,"velocity":0.47244094488188976},{"duration":0.19354799999999273,"midi":43,"time":223.935036,"velocity":0.47244094488188976},{"duration":0.19354800000002115,"midi":38,"time":224.128584,"velocity":0.47244094488188976},{"duration":0.19354799999999273,"midi":36,"time":224.51568,"velocity":0.47244094488188976},{"duration":0.19354799999999273,"midi":40,"time":225.096324,"velocity":0.47244094488188976},{"duration":0.19354799999999273,"midi":36,"time":225.48342,"velocity":0.47244094488188976},{"duration":0.19354800000002115,"midi":48,"time":225.676968,"velocity":0.47244094488188976},{"duration":0.19354799999999273,"midi":40,"time":226.064064,"velocity":0.47244094488188976},{"duration":0.19354799999999273,"midi":43,"time":226.644708,"velocity":0.47244094488188976},{"duration":0.19354799999999273,"midi":43,"time":227.031804,"velocity":0.47244094488188976},{"duration":4.064507999999989,"midi":43,"time":227.031804,"velocity":0.47244094488188976},{"duration":4.2580560000000105,"midi":43,"time":227.031804,"velocity":0.47244094488188976},{"duration":0.19354800000002115,"midi":36,"time":227.225352,"velocity":0.47244094488188976},{"duration":0.19354799999999273,"midi":38,"time":227.612448,"velocity":0.47244094488188976},{"duration":0.19354800000002115,"midi":45,"time":227.999544,"velocity":0.47244094488188976},{"duration":0.19354799999999273,"midi":40,"time":228.38664,"velocity":0.47244094488188976},{"duration":0.19354799999999273,"midi":40,"time":228.967284,"velocity":0.47244094488188976},{"duration":0.19354799999999273,"midi":40,"time":229.35438,"velocity":0.47244094488188976},{"duration":0.19354800000002115,"midi":40,"time":229.54792799999998,"velocity":0.47244094488188976},{"duration":0.9677400000000205,"midi":40,"time":229.54792799999998,"velocity":0.47244094488188976},{"duration":1.1612880000000132,"midi":40,"time":229.54792799999998,"velocity":0.47244094488188976},{"duration":1.354836000000006,"midi":40,"time":229.54792799999998,"velocity":0.47244094488188976},{"duration":1.5483839999999987,"midi":40,"time":229.54792799999998,"velocity":0.47244094488188976}]},{"instrument":{"family":"guitar","number":26,"name":"electric guitar (jazz)"},"notes":[{"duration":0.3870960000000001,"midi":31,"time":1.548384,"velocity":0.3937007874015748},{"duration":0.19354799999999983,"midi":31,"time":1.93548,"velocity":0.3937007874015748},{"duration":0.3870960000000001,"midi":31,"time":2.129028,"velocity":0.3937007874015748},{"duration":0.19354799999999983,"midi":31,"time":2.516124,"velocity":0.3937007874015748},{"duration":0.19354800000000028,"midi":31,"time":2.709672,"velocity":0.3937007874015748},{"duration":0.19354799999999983,"midi":31,"time":2.90322,"velocity":0.3937007874015748},{"duration":0.3870960000000001,"midi":36,"time":3.096768,"velocity":0.3937007874015748},{"duration":0.19354799999999983,"midi":36,"time":3.483864,"velocity":0.3937007874015748},{"duration":0.3870960000000001,"midi":36,"time":3.677412,"velocity":0.3937007874015748},{"duration":0.19354799999999983,"midi":36,"time":4.064508,"velocity":0.3937007874015748},{"duration":0.19354799999999983,"midi":36,"time":4.258056,"velocity":0.3937007874015748},{"duration":0.19354799999999983,"midi":36,"time":4.451604,"velocity":0.3937007874015748},{"duration":0.38709600000000055,"midi":36,"time":4.6451519999999995,"velocity":0.3937007874015748},{"duration":0.19354799999999983,"midi":36,"time":5.032248,"velocity":0.3937007874015748},{"duration":0.38709599999999966,"midi":36,"time":5.225796,"velocity":0.3937007874015748},{"duration":0.19354800000000072,"midi":36,"time":5.6128919999999995,"velocity":0.3937007874015748},{"duration":0.19354799999999983,"midi":36,"time":5.80644,"velocity":0.3937007874015748},{"duration":0.19354799999999983,"midi":36,"time":5.999988,"velocity":0.3937007874015748},{"duration":0.38709599999999966,"midi":38,"time":6.193536,"velocity":0.3937007874015748},{"duration":0.38709600000000055,"midi":38,"time":6.580632,"velocity":0.3937007874015748},{"duration":0.38709599999999966,"midi":28,"time":6.967728,"velocity":0.3937007874015748},{"duration":0.19354799999999983,"midi":28,"time":7.354824,"velocity":0.3937007874015748},{"duration":0.38709600000000055,"midi":28,"time":7.548372,"velocity":0.3937007874015748},{"duration":0.19354799999999983,"midi":28,"time":7.935468,"velocity":0.3937007874015748},{"duration":0.19354799999999983,"midi":28,"time":8.129016,"velocity":0.3937007874015748},{"duration":0.19354799999999983,"midi":28,"time":8.322564,"velocity":0.3937007874015748},{"duration":0.38709599999999966,"midi":28,"time":8.516112,"velocity":0.3937007874015748},{"duration":0.19354799999999983,"midi":28,"time":8.903208,"velocity":0.3937007874015748},{"duration":0.38709600000000144,"midi":28,"time":9.096756,"velocity":0.3937007874015748},{"duration":0.19354799999999983,"midi":28,"time":9.483852,"velocity":0.3937007874015748},{"duration":0.19354799999999983,"midi":28,"time":9.6774,"velocity":0.3937007874015748},{"duration":0.19354799999999983,"midi":28,"time":9.870948,"velocity":0.3937007874015748},{"duration":0.38709599999999966,"midi":31,"time":10.064496,"velocity":0.3937007874015748},{"duration":0.19354799999999983,"midi":31,"time":10.451592,"velocity":0.3937007874015748},{"duration":0.38709599999999966,"midi":31,"time":10.64514,"velocity":0.3937007874015748},{"duration":0.19354799999999983,"midi":31,"time":11.032236,"velocity":0.3937007874015748},{"duration":0.1935480000000016,"midi":31,"time":11.225783999999999,"velocity":0.3937007874015748},{"duration":0.19354799999999983,"midi":31,"time":11.419332,"velocity":0.3937007874015748},{"duration":0.38709599999999966,"midi":36,"time":11.61288,"velocity":0.3937007874015748},{"duration":0.19354799999999983,"midi":36,"time":11.999976,"velocity":0.3937007874015748},{"duration":0.38709599999999966,"midi":36,"time":12.193524,"velocity":0.3937007874015748},{"duration":0.19354799999999983,"midi":36,"time":12.58062,"velocity":0.3937007874015748},{"duration":0.19354799999999983,"midi":36,"time":12.774168,"velocity":0.3937007874015748},{"duration":0.19354799999999983,"midi":36,"time":12.967716,"velocity":0.3937007874015748},{"duration":0.38709600000000144,"midi":36,"time":13.161264,"velocity":0.3937007874015748},{"duration":0.19354799999999983,"midi":36,"time":13.54836,"velocity":0.3937007874015748},{"duration":0.38709599999999966,"midi":36,"time":13.741908,"velocity":0.3937007874015748},{"duration":0.19354799999999983,"midi":36,"time":14.129004,"velocity":0.3937007874015748},{"duration":0.19354799999999983,"midi":36,"time":14.322552,"velocity":0.3937007874015748},{"duration":0.19354799999999983,"midi":36,"time":14.5161,"velocity":0.3937007874015748},{"duration":0.38709599999999966,"midi":38,"time":14.709648,"velocity":0.3937007874015748},{"duration":0.38709600000000144,"midi":38,"time":15.096744,"velocity":0.3937007874015748},{"duration":0.38709599999999966,"midi":28,"time":15.48384,"velocity":0.3937007874015748},{"duration":0.19354799999999983,"midi":28,"time":15.870936,"velocity":0.3937007874015748},{"duration":0.38709599999999966,"midi":28,"time":16.064484,"velocity":0.3937007874015748},{"duration":0.19354799999999983,"midi":28,"time":16.45158,"velocity":0.3937007874015748},{"duration":0.19354799999999983,"midi":28,"time":16.645128,"velocity":0.3937007874015748},{"duration":0.19354799999999983,"midi":28,"time":16.838676,"velocity":0.3937007874015748},{"duration":0.38709599999999966,"midi":28,"time":17.032224,"velocity":0.3937007874015748},{"duration":0.19354799999999983,"midi":28,"time":17.41932,"velocity":0.3937007874015748},{"duration":0.38709599999999966,"midi":28,"time":17.612868,"velocity":0.3937007874015748},{"duration":0.19354799999999983,"midi":28,"time":17.999964,"velocity":0.3937007874015748},{"duration":0.19354799999999983,"midi":28,"time":18.193512,"velocity":0.3937007874015748},{"duration":0.19354799999999983,"midi":28,"time":18.387059999999998,"velocity":0.3937007874015748},{"duration":0.3870960000000032,"midi":31,"time":18.580607999999998,"velocity":0.3937007874015748},{"duration":0.19354799999999983,"midi":31,"time":18.967704,"velocity":0.3937007874015748},{"duration":0.38709599999999966,"midi":31,"time":19.161252,"velocity":0.3937007874015748},{"duration":0.19354799999999983,"midi":31,"time":19.548348,"velocity":0.3937007874015748},{"duration":0.19354799999999983,"midi":31,"time":19.741896,"velocity":0.3937007874015748},{"duration":0.19354799999999983,"midi":31,"time":19.935444,"velocity":0.3937007874015748},{"duration":0.38709599999999966,"midi":36,"time":20.128992,"velocity":0.3937007874015748},{"duration":0.19354799999999983,"midi":36,"time":20.516088,"velocity":0.3937007874015748},{"duration":0.38709599999999966,"midi":36,"time":20.709636,"velocity":0.3937007874015748},{"duration":0.19354799999999983,"midi":36,"time":21.096732,"velocity":0.3937007874015748},{"duration":0.19354799999999983,"midi":36,"time":21.29028,"velocity":0.3937007874015748},{"duration":0.19354799999999983,"midi":36,"time":21.483828,"velocity":0.3937007874015748},{"duration":0.38709599999999966,"midi":36,"time":21.677376,"velocity":0.3937007874015748},{"duration":0.19354799999999983,"midi":36,"time":22.064472,"velocity":0.3937007874015748},{"duration":0.38709599999999966,"midi":36,"time":22.25802,"velocity":0.3937007874015748},{"duration":0.19354800000000338,"midi":36,"time":22.645115999999998,"velocity":0.3937007874015748},{"duration":0.19354799999999983,"midi":36,"time":22.838664,"velocity":0.3937007874015748},{"duration":0.19354799999999983,"midi":36,"time":23.032212,"velocity":0.3937007874015748},{"duration":0.38709599999999966,"midi":38,"time":23.22576,"velocity":0.3937007874015748},{"duration":0.38709599999999966,"midi":38,"time":23.612856,"velocity":0.3937007874015748},{"duration":0.38709599999999966,"midi":28,"time":23.999952,"velocity":0.3937007874015748},{"duration":0.19354799999999983,"midi":28,"time":24.387048,"velocity":0.3937007874015748},{"duration":0.38709599999999966,"midi":28,"time":24.580596,"velocity":0.3937007874015748},{"duration":0.19354799999999983,"midi":28,"time":24.967692,"velocity":0.3937007874015748},{"duration":0.19354799999999983,"midi":28,"time":25.16124,"velocity":0.3937007874015748},{"duration":0.19354799999999983,"midi":28,"time":25.354788,"velocity":0.3937007874015748},{"duration":0.38709599999999966,"midi":28,"time":25.548336,"velocity":0.3937007874015748},{"duration":0.19354799999999983,"midi":28,"time":25.935432,"velocity":0.3937007874015748},{"duration":0.38709599999999966,"midi":28,"time":26.12898,"velocity":0.3937007874015748},{"duration":0.19354799999999983,"midi":28,"time":26.516075999999998,"velocity":0.3937007874015748},{"duration":0.19354800000000338,"midi":28,"time":26.709623999999998,"velocity":0.3937007874015748},{"duration":0.19354799999999983,"midi":28,"time":26.903172,"velocity":0.3937007874015748},{"duration":0.38709599999999966,"midi":31,"time":27.09672,"velocity":0.3937007874015748},{"duration":0.19354799999999983,"midi":31,"time":27.483816,"velocity":0.3937007874015748},{"duration":0.38709599999999966,"midi":31,"time":27.677364,"velocity":0.3937007874015748},{"duration":0.19354799999999983,"midi":31,"time":28.06446,"velocity":0.3937007874015748},{"duration":0.19354799999999983,"midi":31,"time":28.258008,"velocity":0.3937007874015748},{"duration":0.19354799999999983,"midi":31,"time":28.451556,"velocity":0.3937007874015748},{"duration":0.38709599999999966,"midi":36,"time":28.645104,"velocity":0.3937007874015748},{"duration":0.19354799999999983,"midi":36,"time":29.0322,"velocity":0.3937007874015748},{"duration":0.38709599999999966,"midi":36,"time":29.225748,"velocity":0.3937007874015748},{"duration":0.19354799999999983,"midi":36,"time":29.612844,"velocity":0.3937007874015748},{"duration":0.19354799999999983,"midi":36,"time":29.806392,"velocity":0.3937007874015748},{"duration":0.19354799999999983,"midi":36,"time":29.99994,"velocity":0.3937007874015748},{"duration":0.38709599999999966,"midi":36,"time":30.193488,"velocity":0.3937007874015748},{"duration":0.19354799999999983,"midi":36,"time":30.580583999999998,"velocity":0.3937007874015748},{"duration":0.3870960000000032,"midi":36,"time":30.774131999999998,"velocity":0.3937007874015748},{"duration":0.19354799999999983,"midi":36,"time":31.161228,"velocity":0.3937007874015748},{"duration":0.19354799999999983,"midi":36,"time":31.354776,"velocity":0.3937007874015748},{"duration":0.19354799999999983,"midi":36,"time":31.548324,"velocity":0.3937007874015748},{"duration":0.38709599999999966,"midi":38,"time":31.741872,"velocity":0.3937007874015748},{"duration":0.38709599999999966,"midi":38,"time":32.128968,"velocity":0.3937007874015748},{"duration":0.38709599999999966,"midi":28,"time":32.516064,"velocity":0.3937007874015748},{"duration":0.19354799999999983,"midi":28,"time":32.90316,"velocity":0.3937007874015748},{"duration":0.38709599999999966,"midi":28,"time":33.096708,"velocity":0.3937007874015748},{"duration":0.19354799999999983,"midi":28,"time":33.483804,"velocity":0.3937007874015748},{"duration":0.19354799999999983,"midi":28,"time":33.677352,"velocity":0.3937007874015748},{"duration":0.19354799999999983,"midi":28,"time":33.8709,"velocity":0.3937007874015748},{"duration":0.38709599999999966,"midi":28,"time":34.064448,"velocity":0.3937007874015748},{"duration":0.19354799999999983,"midi":28,"time":34.451544,"velocity":0.3937007874015748},{"duration":0.38709599999999966,"midi":28,"time":34.645092,"velocity":0.3937007874015748},{"duration":0.19354799999999983,"midi":28,"time":35.032188,"velocity":0.3937007874015748},{"duration":0.19354799999999983,"midi":28,"time":35.225736,"velocity":0.3937007874015748},{"duration":0.19354799999999983,"midi":28,"time":35.419284,"velocity":0.3937007874015748},{"duration":0.38709599999999966,"midi":31,"time":35.612832,"velocity":0.3937007874015748},{"duration":0.19354799999999983,"midi":31,"time":35.999928,"velocity":0.3937007874015748},{"duration":0.38709599999999966,"midi":31,"time":36.193476,"velocity":0.3937007874015748},{"duration":0.19354799999999983,"midi":31,"time":36.580572,"velocity":0.3937007874015748},{"duration":0.19354799999999983,"midi":31,"time":36.774119999999996,"velocity":0.3937007874015748},{"duration":0.19354799999999983,"midi":31,"time":36.967667999999996,"velocity":0.3937007874015748},{"duration":0.38709600000000677,"midi":36,"time":37.161215999999996,"velocity":0.3937007874015748},{"duration":0.19354799999999983,"midi":36,"time":37.548312,"velocity":0.3937007874015748},{"duration":0.38709599999999966,"midi":36,"time":37.74186,"velocity":0.3937007874015748},{"duration":0.19354799999999983,"midi":36,"time":38.128956,"velocity":0.3937007874015748},{"duration":0.19354799999999983,"midi":36,"time":38.322504,"velocity":0.3937007874015748},{"duration":0.19354799999999983,"midi":36,"time":38.516052,"velocity":0.3937007874015748},{"duration":0.38709599999999966,"midi":36,"time":38.7096,"velocity":0.3937007874015748},{"duration":0.19354799999999983,"midi":36,"time":39.096696,"velocity":0.3937007874015748},{"duration":0.38709599999999966,"midi":36,"time":39.290244,"velocity":0.3937007874015748},{"duration":0.19354799999999983,"midi":36,"time":39.67734,"velocity":0.3937007874015748},{"duration":0.19354799999999983,"midi":36,"time":39.870888,"velocity":0.3937007874015748},{"duration":0.19354799999999983,"midi":36,"time":40.064436,"velocity":0.3937007874015748},{"duration":0.38709599999999966,"midi":38,"time":40.257984,"velocity":0.3937007874015748},{"duration":0.38709599999999966,"midi":38,"time":40.64508,"velocity":0.3937007874015748},{"duration":0.38709599999999966,"midi":28,"time":41.032176,"velocity":0.3937007874015748},{"duration":0.19354799999999983,"midi":28,"time":41.419272,"velocity":0.3937007874015748},{"duration":0.38709599999999966,"midi":28,"time":41.61282,"velocity":0.3937007874015748},{"duration":0.19354799999999983,"midi":28,"time":41.999916,"velocity":0.3937007874015748},{"duration":0.19354799999999983,"midi":28,"time":42.193464,"velocity":0.3937007874015748},{"duration":0.19354799999999983,"midi":28,"time":42.387012,"velocity":0.3937007874015748},{"duration":0.38709599999999966,"midi":28,"time":42.58056,"velocity":0.3937007874015748},{"duration":0.19354799999999983,"midi":28,"time":42.967656,"velocity":0.3937007874015748},{"duration":0.38709599999999966,"midi":28,"time":43.161204,"velocity":0.3937007874015748},{"duration":0.19354799999999983,"midi":28,"time":43.5483,"velocity":0.3937007874015748},{"duration":0.19354799999999983,"midi":28,"time":43.741848,"velocity":0.3937007874015748},{"duration":0.19354799999999983,"midi":28,"time":43.935396,"velocity":0.3937007874015748},{"duration":0.38709599999999966,"midi":31,"time":44.128944,"velocity":0.3937007874015748},{"duration":0.19354799999999983,"midi":31,"time":44.51604,"velocity":0.3937007874015748},{"duration":0.38709599999999966,"midi":31,"time":44.709588,"velocity":0.3937007874015748},{"duration":0.19354799999999983,"midi":31,"time":45.096683999999996,"velocity":0.3937007874015748},{"duration":0.19354800000000694,"midi":31,"time":45.290231999999996,"velocity":0.3937007874015748},{"duration":0.19354799999999983,"midi":31,"time":45.48378,"velocity":0.3937007874015748},{"duration":0.38709599999999966,"midi":36,"time":45.677328,"velocity":0.3937007874015748},{"duration":0.19354799999999983,"midi":36,"time":46.064424,"velocity":0.3937007874015748},{"duration":0.38709599999999966,"midi":36,"time":46.257972,"velocity":0.3937007874015748},{"duration":0.19354799999999983,"midi":36,"time":46.645068,"velocity":0.3937007874015748},{"duration":0.19354799999999983,"midi":36,"time":46.838616,"velocity":0.3937007874015748},{"duration":0.19354799999999983,"midi":36,"time":47.032164,"velocity":0.3937007874015748},{"duration":0.38709599999999966,"midi":36,"time":47.225712,"velocity":0.3937007874015748},{"duration":0.19354799999999983,"midi":36,"time":47.612808,"velocity":0.3937007874015748},{"duration":0.38709599999999966,"midi":36,"time":47.806356,"velocity":0.3937007874015748},{"duration":0.19354799999999983,"midi":36,"time":48.193452,"velocity":0.3937007874015748},{"duration":0.19354799999999983,"midi":36,"time":48.387,"velocity":0.3937007874015748},{"duration":0.19354799999999983,"midi":36,"time":48.580548,"velocity":0.3937007874015748},{"duration":0.38709599999999966,"midi":38,"time":48.774096,"velocity":0.3937007874015748},{"duration":0.38709599999999966,"midi":38,"time":49.161192,"velocity":0.3937007874015748},{"duration":0.38709599999999966,"midi":28,"time":49.548288,"velocity":0.3937007874015748},{"duration":0.19354799999999983,"midi":28,"time":49.935384,"velocity":0.3937007874015748},{"duration":0.38709599999999966,"midi":28,"time":50.128932,"velocity":0.3937007874015748},{"duration":0.19354799999999983,"midi":28,"time":50.516028,"velocity":0.3937007874015748},{"duration":0.19354799999999983,"midi":28,"time":50.709576,"velocity":0.3937007874015748},{"duration":0.19354799999999983,"midi":28,"time":50.903124,"velocity":0.3937007874015748},{"duration":0.38709599999999966,"midi":28,"time":51.096672,"velocity":0.3937007874015748},{"duration":0.19354799999999983,"midi":28,"time":51.483768,"velocity":0.3937007874015748},{"duration":0.38709599999999966,"midi":28,"time":51.677316,"velocity":0.3937007874015748},{"duration":0.19354799999999983,"midi":28,"time":52.064412,"velocity":0.3937007874015748},{"duration":0.19354799999999983,"midi":28,"time":52.25796,"velocity":0.3937007874015748},{"duration":0.19354799999999983,"midi":28,"time":52.451508,"velocity":0.3937007874015748},{"duration":0.38709599999999966,"midi":31,"time":52.645056,"velocity":0.3937007874015748},{"duration":0.19354799999999983,"midi":31,"time":53.032151999999996,"velocity":0.3937007874015748},{"duration":0.38709599999999966,"midi":31,"time":53.225699999999996,"velocity":0.3937007874015748},{"duration":0.19354800000000694,"midi":31,"time":53.612795999999996,"velocity":0.3937007874015748},{"duration":0.19354799999999983,"midi":31,"time":53.806344,"velocity":0.3937007874015748},{"duration":0.19354799999999983,"midi":31,"time":53.999892,"velocity":0.3937007874015748},{"duration":0.38709599999999966,"midi":36,"time":54.19344,"velocity":0.3937007874015748},{"duration":0.19354799999999983,"midi":36,"time":54.580536,"velocity":0.3937007874015748},{"duration":0.38709599999999966,"midi":36,"time":54.774084,"velocity":0.3937007874015748},{"duration":0.19354799999999983,"midi":36,"time":55.16118,"velocity":0.3937007874015748},{"duration":0.19354799999999983,"midi":36,"time":55.354728,"velocity":0.3937007874015748},{"duration":0.19354799999999983,"midi":36,"time":55.548276,"velocity":0.3937007874015748},{"duration":0.38709599999999966,"midi":36,"time":55.741824,"velocity":0.3937007874015748},{"duration":0.19354799999999983,"midi":36,"time":56.12892,"velocity":0.3937007874015748},{"duration":0.38709599999999966,"midi":36,"time":56.322468,"velocity":0.3937007874015748},{"duration":0.19354799999999983,"midi":36,"time":56.709564,"velocity":0.3937007874015748},{"duration":0.19354799999999983,"midi":36,"time":56.903112,"velocity":0.3937007874015748},{"duration":0.19354799999999983,"midi":36,"time":57.09666,"velocity":0.3937007874015748},{"duration":0.38709599999999966,"midi":38,"time":57.290208,"velocity":0.3937007874015748},{"duration":0.38709599999999966,"midi":38,"time":57.677304,"velocity":0.3937007874015748},{"duration":0.38709599999999966,"midi":28,"time":58.0644,"velocity":0.3937007874015748},{"duration":0.19354799999999983,"midi":28,"time":58.451496,"velocity":0.3937007874015748},{"duration":0.38709599999999966,"midi":28,"time":58.645044,"velocity":0.3937007874015748},{"duration":0.19354799999999983,"midi":28,"time":59.03214,"velocity":0.3937007874015748},{"duration":0.19354799999999983,"midi":28,"time":59.225688,"velocity":0.3937007874015748},{"duration":0.19354799999999983,"midi":28,"time":59.419236,"velocity":0.3937007874015748},{"duration":0.38709599999999966,"midi":28,"time":59.612784,"velocity":0.3937007874015748},{"duration":0.19354799999999983,"midi":28,"time":59.99988,"velocity":0.3937007874015748},{"duration":0.38709599999999966,"midi":28,"time":60.193428,"velocity":0.3937007874015748},{"duration":0.19354799999999983,"midi":28,"time":60.580524,"velocity":0.3937007874015748},{"duration":0.19354799999999983,"midi":28,"time":60.774072,"velocity":0.3937007874015748},{"duration":0.19354799999999983,"midi":28,"time":60.96762,"velocity":0.3937007874015748},{"duration":0.38709599999999966,"midi":31,"time":61.161167999999996,"velocity":0.3937007874015748},{"duration":0.19354799999999983,"midi":31,"time":61.548263999999996,"velocity":0.3937007874015748},{"duration":0.38709600000000677,"midi":31,"time":61.741811999999996,"velocity":0.3937007874015748},{"duration":0.19354799999999983,"midi":31,"time":62.128908,"velocity":0.3937007874015748},{"duration":0.19354799999999983,"midi":31,"time":62.322456,"velocity":0.3937007874015748},{"duration":0.19354799999999983,"midi":31,"time":62.516004,"velocity":0.3937007874015748},{"duration":0.38709599999999966,"midi":36,"time":62.709552,"velocity":0.3937007874015748},{"duration":0.19354799999999983,"midi":36,"time":63.096648,"velocity":0.3937007874015748},{"duration":0.38709599999999966,"midi":36,"time":63.290196,"velocity":0.3937007874015748},{"duration":0.19354799999999983,"midi":36,"time":63.677292,"velocity":0.3937007874015748},{"duration":0.19354799999999273,"midi":36,"time":63.87084,"velocity":0.3937007874015748},{"duration":0.19354800000000694,"midi":36,"time":64.064388,"velocity":0.3937007874015748},{"duration":0.38709599999999966,"midi":36,"time":64.257936,"velocity":0.3937007874015748},{"duration":0.19354799999999273,"midi":36,"time":64.645032,"velocity":0.3937007874015748},{"duration":0.38709599999999966,"midi":36,"time":64.83858,"velocity":0.3937007874015748},{"duration":0.19354800000000694,"midi":36,"time":65.22567599999999,"velocity":0.3937007874015748},{"duration":0.19354799999999273,"midi":36,"time":65.419224,"velocity":0.3937007874015748},{"duration":0.19354800000000694,"midi":36,"time":65.61277199999999,"velocity":0.3937007874015748},{"duration":0.38709599999999966,"midi":38,"time":65.80632,"velocity":0.3937007874015748},{"duration":0.38709599999999966,"midi":38,"time":66.193416,"velocity":0.3937007874015748},{"duration":0.38709599999999966,"midi":28,"time":66.580512,"velocity":0.3937007874015748},{"duration":0.19354800000000694,"midi":28,"time":66.967608,"velocity":0.3937007874015748},{"duration":0.38709599999999966,"midi":28,"time":67.161156,"velocity":0.3937007874015748},{"duration":0.19354799999999273,"midi":28,"time":67.548252,"velocity":0.3937007874015748},{"duration":0.19354800000000694,"midi":28,"time":67.7418,"velocity":0.3937007874015748},{"duration":0.19354799999999273,"midi":28,"time":67.935348,"velocity":0.3937007874015748},{"duration":0.38709599999999966,"midi":28,"time":68.128896,"velocity":0.3937007874015748},{"duration":0.19354800000000694,"midi":28,"time":68.515992,"velocity":0.3937007874015748},{"duration":0.38709599999999966,"midi":28,"time":68.70954,"velocity":0.3937007874015748},{"duration":0.19354799999999273,"midi":28,"time":69.096636,"velocity":0.3937007874015748},{"duration":0.19354800000000694,"midi":28,"time":69.290184,"velocity":0.3937007874015748},{"duration":0.19354799999999273,"midi":28,"time":69.483732,"velocity":0.3937007874015748},{"duration":0.38709599999999966,"midi":31,"time":69.67728,"velocity":0.3937007874015748},{"duration":0.19354800000000694,"midi":31,"time":70.064376,"velocity":0.3937007874015748},{"duration":0.38709599999999966,"midi":31,"time":70.257924,"velocity":0.3937007874015748},{"duration":0.19354799999999273,"midi":31,"time":70.64502,"velocity":0.3937007874015748},{"duration":0.19354800000000694,"midi":31,"time":70.838568,"velocity":0.3937007874015748},{"duration":0.19354799999999273,"midi":31,"time":71.032116,"velocity":0.3937007874015748},{"duration":0.38709599999999966,"midi":36,"time":71.225664,"velocity":0.3937007874015748},{"duration":0.19354800000000694,"midi":36,"time":71.61276,"velocity":0.3937007874015748},{"duration":0.38709599999999966,"midi":36,"time":71.806308,"velocity":0.3937007874015748},{"duration":0.19354799999999273,"midi":36,"time":72.193404,"velocity":0.3937007874015748},{"duration":0.19354800000000694,"midi":36,"time":72.386952,"velocity":0.3937007874015748},{"duration":0.19354799999999273,"midi":36,"time":72.5805,"velocity":0.3937007874015748},{"duration":0.38709599999999966,"midi":36,"time":72.774048,"velocity":0.3937007874015748},{"duration":0.19354800000000694,"midi":36,"time":73.161144,"velocity":0.3937007874015748},{"duration":0.38709599999999966,"midi":36,"time":73.354692,"velocity":0.3937007874015748},{"duration":0.19354799999999273,"midi":36,"time":73.741788,"velocity":0.3937007874015748},{"duration":0.19354800000000694,"midi":36,"time":73.93533599999999,"velocity":0.3937007874015748},{"duration":0.19354799999999273,"midi":36,"time":74.128884,"velocity":0.3937007874015748},{"duration":0.3870960000000139,"midi":38,"time":74.32243199999999,"velocity":0.3937007874015748},{"duration":0.38709599999999966,"midi":38,"time":74.709528,"velocity":0.3937007874015748},{"duration":0.38709599999999966,"midi":28,"time":75.096624,"velocity":0.3937007874015748},{"duration":0.19354799999999273,"midi":28,"time":75.48372,"velocity":0.3937007874015748},{"duration":0.38709599999999966,"midi":28,"time":75.677268,"velocity":0.3937007874015748},{"duration":0.19354800000000694,"midi":28,"time":76.064364,"velocity":0.3937007874015748},{"duration":0.19354799999999273,"midi":28,"time":76.257912,"velocity":0.3937007874015748},{"duration":0.19354800000000694,"midi":28,"time":76.45146,"velocity":0.3937007874015748},{"duration":0.38709599999999966,"midi":28,"time":76.645008,"velocity":0.3937007874015748},{"duration":0.19354799999999273,"midi":28,"time":77.032104,"velocity":0.3937007874015748},{"duration":0.38709599999999966,"midi":28,"time":77.225652,"velocity":0.3937007874015748},{"duration":0.19354800000000694,"midi":28,"time":77.612748,"velocity":0.3937007874015748},{"duration":0.19354799999999273,"midi":28,"time":77.806296,"velocity":0.3937007874015748},{"duration":0.19354800000000694,"midi":28,"time":77.999844,"velocity":0.3937007874015748},{"duration":0.38709599999999966,"midi":31,"time":78.193392,"velocity":0.3937007874015748},{"duration":0.19354799999999273,"midi":31,"time":78.580488,"velocity":0.3937007874015748},{"duration":0.38709599999999966,"midi":31,"time":78.774036,"velocity":0.3937007874015748},{"duration":0.19354800000000694,"midi":31,"time":79.161132,"velocity":0.3937007874015748},{"duration":0.19354799999999273,"midi":31,"time":79.35468,"velocity":0.3937007874015748},{"duration":0.19354800000000694,"midi":31,"time":79.548228,"velocity":0.3937007874015748},{"duration":0.38709599999999966,"midi":36,"time":79.741776,"velocity":0.3937007874015748},{"duration":0.19354799999999273,"midi":36,"time":80.128872,"velocity":0.3937007874015748},{"duration":0.38709599999999966,"midi":36,"time":80.32242,"velocity":0.3937007874015748},{"duration":0.19354800000000694,"midi":36,"time":80.709516,"velocity":0.3937007874015748},{"duration":0.19354799999999273,"midi":36,"time":80.903064,"velocity":0.3937007874015748},{"duration":0.19354800000000694,"midi":36,"time":81.096612,"velocity":0.3937007874015748},{"duration":0.38709599999999966,"midi":36,"time":81.29016,"velocity":0.3937007874015748},{"duration":0.19354799999999273,"midi":36,"time":81.677256,"velocity":0.3937007874015748},{"duration":0.38709599999999966,"midi":36,"time":81.87080399999999,"velocity":0.3937007874015748},{"duration":0.19354800000000694,"midi":36,"time":82.25789999999999,"velocity":0.3937007874015748},{"duration":0.19354800000000694,"midi":36,"time":82.451448,"velocity":0.3937007874015748},{"duration":0.19354799999999273,"midi":36,"time":82.644996,"velocity":0.3937007874015748},{"duration":0.38709599999999966,"midi":38,"time":82.838544,"velocity":0.3937007874015748},{"duration":0.38709599999999966,"midi":38,"time":83.22564,"velocity":0.3937007874015748},{"duration":0.38709599999999966,"midi":28,"time":83.612736,"velocity":0.3937007874015748},{"duration":0.19354800000000694,"midi":28,"time":83.999832,"velocity":0.3937007874015748},{"duration":0.38709599999999966,"midi":28,"time":84.19338,"velocity":0.3937007874015748},{"duration":0.19354799999999273,"midi":28,"time":84.580476,"velocity":0.3937007874015748},{"duration":0.19354800000000694,"midi":28,"time":84.774024,"velocity":0.3937007874015748},{"duration":0.19354799999999273,"midi":28,"time":84.967572,"velocity":0.3937007874015748},{"duration":0.38709599999999966,"midi":28,"time":85.16112,"velocity":0.3937007874015748},{"duration":0.19354800000000694,"midi":28,"time":85.548216,"velocity":0.3937007874015748},{"duration":0.38709599999999966,"midi":28,"time":85.741764,"velocity":0.3937007874015748},{"duration":0.19354799999999273,"midi":28,"time":86.12886,"velocity":0.3937007874015748},{"duration":0.19354800000000694,"midi":28,"time":86.322408,"velocity":0.3937007874015748},{"duration":0.19354799999999273,"midi":28,"time":86.515956,"velocity":0.3937007874015748},{"duration":0.38709599999999966,"midi":31,"time":86.709504,"velocity":0.3937007874015748},{"duration":0.19354800000000694,"midi":31,"time":87.0966,"velocity":0.3937007874015748},{"duration":0.38709599999999966,"midi":31,"time":87.290148,"velocity":0.3937007874015748},{"duration":0.19354799999999273,"midi":31,"time":87.677244,"velocity":0.3937007874015748},{"duration":0.19354800000000694,"midi":31,"time":87.870792,"velocity":0.3937007874015748},{"duration":0.19354799999999273,"midi":31,"time":88.06434,"velocity":0.3937007874015748},{"duration":0.38709599999999966,"midi":36,"time":88.257888,"velocity":0.3937007874015748},{"duration":0.19354800000000694,"midi":36,"time":88.644984,"velocity":0.3937007874015748},{"duration":0.38709599999999966,"midi":36,"time":88.838532,"velocity":0.3937007874015748},{"duration":0.19354799999999273,"midi":36,"time":89.225628,"velocity":0.3937007874015748},{"duration":0.19354800000000694,"midi":36,"time":89.419176,"velocity":0.3937007874015748},{"duration":0.19354799999999273,"midi":36,"time":89.612724,"velocity":0.3937007874015748},{"duration":0.38709599999999966,"midi":36,"time":89.80627199999999,"velocity":0.3937007874015748},{"duration":0.19354800000000694,"midi":36,"time":90.19336799999999,"velocity":0.3937007874015748},{"duration":0.38709599999999966,"midi":36,"time":90.386916,"velocity":0.3937007874015748},{"duration":0.19354800000000694,"midi":36,"time":90.774012,"velocity":0.3937007874015748},{"duration":0.19354799999999273,"midi":36,"time":90.96756,"velocity":0.3937007874015748},{"duration":0.19354800000000694,"midi":36,"time":91.161108,"velocity":0.3937007874015748},{"duration":0.38709599999999966,"midi":38,"time":91.354656,"velocity":0.3937007874015748},{"duration":0.38709599999999966,"midi":38,"time":91.741752,"velocity":0.3937007874015748},{"duration":0.38709599999999966,"midi":28,"time":92.128848,"velocity":0.3937007874015748},{"duration":0.19354799999999273,"midi":28,"time":92.515944,"velocity":0.3937007874015748},{"duration":0.38709599999999966,"midi":28,"time":92.709492,"velocity":0.3937007874015748},{"duration":0.19354800000000694,"midi":28,"time":93.096588,"velocity":0.3937007874015748},{"duration":0.19354799999999273,"midi":28,"time":93.290136,"velocity":0.3937007874015748},{"duration":0.19354800000000694,"midi":28,"time":93.483684,"velocity":0.3937007874015748},{"duration":0.38709599999999966,"midi":28,"time":93.677232,"velocity":0.3937007874015748},{"duration":0.19354799999999273,"midi":28,"time":94.064328,"velocity":0.3937007874015748},{"duration":0.38709599999999966,"midi":28,"time":94.257876,"velocity":0.3937007874015748},{"duration":0.19354800000000694,"midi":28,"time":94.644972,"velocity":0.3937007874015748},{"duration":0.19354799999999273,"midi":28,"time":94.83852,"velocity":0.3937007874015748},{"duration":0.19354800000000694,"midi":28,"time":95.032068,"velocity":0.3937007874015748},{"duration":0.38709599999999966,"midi":31,"time":95.225616,"velocity":0.3937007874015748},{"duration":0.19354799999999273,"midi":31,"time":95.612712,"velocity":0.3937007874015748},{"duration":0.38709599999999966,"midi":31,"time":95.80626,"velocity":0.3937007874015748},{"duration":0.19354800000000694,"midi":31,"time":96.193356,"velocity":0.3937007874015748},{"duration":0.19354799999999273,"midi":31,"time":96.386904,"velocity":0.3937007874015748},{"duration":0.19354800000000694,"midi":31,"time":96.580452,"velocity":0.3937007874015748},{"duration":0.38709599999999966,"midi":36,"time":96.774,"velocity":0.3937007874015748},{"duration":0.19354799999999273,"midi":36,"time":97.161096,"velocity":0.3937007874015748},{"duration":0.38709599999999966,"midi":36,"time":97.354644,"velocity":0.3937007874015748},{"duration":0.19354800000000694,"midi":36,"time":97.74174,"velocity":0.3937007874015748},{"duration":0.19354799999999273,"midi":36,"time":97.935288,"velocity":0.3937007874015748},{"duration":0.19354800000000694,"midi":36,"time":98.12883599999999,"velocity":0.3937007874015748},{"duration":0.38709599999999966,"midi":36,"time":98.322384,"velocity":0.3937007874015748},{"duration":0.19354799999999273,"midi":36,"time":98.70948,"velocity":0.3937007874015748},{"duration":0.3870960000000139,"midi":36,"time":98.90302799999999,"velocity":0.3937007874015748},{"duration":0.19354799999999273,"midi":36,"time":99.290124,"velocity":0.3937007874015748},{"duration":0.19354800000000694,"midi":36,"time":99.483672,"velocity":0.3937007874015748},{"duration":0.19354799999999273,"midi":36,"time":99.67722,"velocity":0.3937007874015748},{"duration":0.38709599999999966,"midi":38,"time":99.870768,"velocity":0.3937007874015748},{"duration":0.38709599999999966,"midi":38,"time":100.257864,"velocity":0.3937007874015748},{"duration":0.19354800000000694,"midi":28,"time":100.64496,"velocity":0.3937007874015748},{"duration":0.19354800000000694,"midi":35,"time":102.967536,"velocity":0.3937007874015748},{"duration":0.19354799999999273,"midi":36,"time":103.161084,"velocity":0.3937007874015748},{"duration":0.19354800000000694,"midi":38,"time":103.354632,"velocity":0.3937007874015748},{"duration":0.19354799999999273,"midi":40,"time":103.54818,"velocity":0.3937007874015748},{"duration":0.38709599999999966,"midi":31,"time":103.741728,"velocity":0.3937007874015748},{"duration":0.19354800000000694,"midi":31,"time":104.128824,"velocity":0.3937007874015748},{"duration":0.38709599999999966,"midi":31,"time":104.322372,"velocity":0.3937007874015748},{"duration":0.19354799999999273,"midi":31,"time":104.709468,"velocity":0.3937007874015748},{"duration":0.19354800000000694,"midi":31,"time":104.903016,"velocity":0.3937007874015748},{"duration":0.19354799999999273,"midi":31,"time":105.096564,"velocity":0.3937007874015748},{"duration":0.38709599999999966,"midi":36,"time":105.290112,"velocity":0.3937007874015748},{"duration":0.19354800000000694,"midi":36,"time":105.677208,"velocity":0.3937007874015748},{"duration":0.38709599999999966,"midi":36,"time":105.870756,"velocity":0.3937007874015748},{"duration":0.19354799999999273,"midi":36,"time":106.257852,"velocity":0.3937007874015748},{"duration":0.19354800000000694,"midi":36,"time":106.45139999999999,"velocity":0.3937007874015748},{"duration":0.19354799999999273,"midi":36,"time":106.644948,"velocity":0.3937007874015748},{"duration":0.38709599999999966,"midi":36,"time":106.83849599999999,"velocity":0.3937007874015748},{"duration":0.19354800000000694,"midi":36,"time":107.22559199999999,"velocity":0.3937007874015748},{"duration":0.38709599999999966,"midi":36,"time":107.41914,"velocity":0.3937007874015748},{"duration":0.19354800000000694,"midi":36,"time":107.806236,"velocity":0.3937007874015748},{"duration":0.19354799999999273,"midi":36,"time":107.999784,"velocity":0.3937007874015748},{"duration":0.19354800000000694,"midi":36,"time":108.193332,"velocity":0.3937007874015748},{"duration":0.38709599999999966,"midi":38,"time":108.38688,"velocity":0.3937007874015748},{"duration":0.38709599999999966,"midi":38,"time":108.773976,"velocity":0.3937007874015748},{"duration":0.38709599999999966,"midi":28,"time":109.161072,"velocity":0.3937007874015748},{"duration":0.19354799999999273,"midi":28,"time":109.548168,"velocity":0.3937007874015748},{"duration":0.38709599999999966,"midi":28,"time":109.741716,"velocity":0.3937007874015748},{"duration":0.19354800000000694,"midi":28,"time":110.128812,"velocity":0.3937007874015748},{"duration":0.19354799999999273,"midi":28,"time":110.32236,"velocity":0.3937007874015748},{"duration":0.19354800000000694,"midi":28,"time":110.515908,"velocity":0.3937007874015748},{"duration":0.38709599999999966,"midi":28,"time":110.709456,"velocity":0.3937007874015748},{"duration":0.19354799999999273,"midi":28,"time":111.096552,"velocity":0.3937007874015748},{"duration":0.38709599999999966,"midi":28,"time":111.2901,"velocity":0.3937007874015748},{"duration":0.19354800000000694,"midi":28,"time":111.677196,"velocity":0.3937007874015748},{"duration":0.19354799999999273,"midi":28,"time":111.870744,"velocity":0.3937007874015748},{"duration":0.19354800000000694,"midi":28,"time":112.064292,"velocity":0.3937007874015748},{"duration":0.38709599999999966,"midi":31,"time":112.25784,"velocity":0.3937007874015748},{"duration":0.19354799999999273,"midi":31,"time":112.644936,"velocity":0.3937007874015748},{"duration":0.38709599999999966,"midi":31,"time":112.838484,"velocity":0.3937007874015748},{"duration":0.19354800000000694,"midi":31,"time":113.22558,"velocity":0.3937007874015748},{"duration":0.19354799999999273,"midi":31,"time":113.419128,"velocity":0.3937007874015748},{"duration":0.19354800000000694,"midi":31,"time":113.612676,"velocity":0.3937007874015748},{"duration":0.38709599999999966,"midi":36,"time":113.806224,"velocity":0.3937007874015748},{"duration":0.19354799999999273,"midi":36,"time":114.19332,"velocity":0.3937007874015748},{"duration":0.38709599999999966,"midi":36,"time":114.38686799999999,"velocity":0.3937007874015748},{"duration":0.19354800000000694,"midi":36,"time":114.77396399999999,"velocity":0.3937007874015748},{"duration":0.19354799999999273,"midi":36,"time":114.967512,"velocity":0.3937007874015748},{"duration":0.19354800000000694,"midi":36,"time":115.16105999999999,"velocity":0.3937007874015748},{"duration":0.38709599999999966,"midi":36,"time":115.354608,"velocity":0.3937007874015748},{"duration":0.19354800000000694,"midi":36,"time":115.741704,"velocity":0.3937007874015748},{"duration":0.38709599999999966,"midi":36,"time":115.935252,"velocity":0.3937007874015748},{"duration":0.19354799999999273,"midi":36,"time":116.322348,"velocity":0.3937007874015748},{"duration":0.19354800000000694,"midi":36,"time":116.515896,"velocity":0.3937007874015748},{"duration":0.19354799999999273,"midi":36,"time":116.709444,"velocity":0.3937007874015748},{"duration":0.38709599999999966,"midi":38,"time":116.902992,"velocity":0.3937007874015748},{"duration":0.38709599999999966,"midi":38,"time":117.290088,"velocity":0.3937007874015748},{"duration":0.38709599999999966,"midi":28,"time":117.677184,"velocity":0.3937007874015748},{"duration":0.19354800000000694,"midi":28,"time":118.06428,"velocity":0.3937007874015748},{"duration":0.38709599999999966,"midi":28,"time":118.257828,"velocity":0.3937007874015748},{"duration":0.19354799999999273,"midi":28,"time":118.644924,"velocity":0.3937007874015748},{"duration":0.19354800000000694,"midi":28,"time":118.838472,"velocity":0.3937007874015748},{"duration":0.19354799999999273,"midi":28,"time":119.03202,"velocity":0.3937007874015748},{"duration":0.38709599999999966,"midi":28,"time":119.225568,"velocity":0.3937007874015748},{"duration":0.19354800000000694,"midi":28,"time":119.612664,"velocity":0.3937007874015748},{"duration":0.38709599999999966,"midi":28,"time":119.806212,"velocity":0.3937007874015748},{"duration":0.19354799999999273,"midi":28,"time":120.193308,"velocity":0.3937007874015748},{"duration":0.19354800000000694,"midi":28,"time":120.386856,"velocity":0.3937007874015748},{"duration":0.19354799999999273,"midi":28,"time":120.580404,"velocity":0.3937007874015748},{"duration":0.38709599999999966,"midi":31,"time":120.773952,"velocity":0.3937007874015748},{"duration":0.19354800000000694,"midi":31,"time":121.161048,"velocity":0.3937007874015748},{"duration":0.38709599999999966,"midi":31,"time":121.354596,"velocity":0.3937007874015748},{"duration":0.19354799999999273,"midi":31,"time":121.741692,"velocity":0.3937007874015748},{"duration":0.19354800000000694,"midi":31,"time":121.93524,"velocity":0.3937007874015748},{"duration":0.19354799999999273,"midi":31,"time":122.128788,"velocity":0.3937007874015748},{"duration":0.38709599999999966,"midi":36,"time":122.32233599999999,"velocity":0.3937007874015748},{"duration":0.19354800000000694,"midi":36,"time":122.70943199999999,"velocity":0.3937007874015748},{"duration":0.38709599999999966,"midi":36,"time":122.90298,"velocity":0.3937007874015748},{"duration":0.19354799999999273,"midi":36,"time":123.290076,"velocity":0.3937007874015748},{"duration":0.19354800000000694,"midi":36,"time":123.48362399999999,"velocity":0.3937007874015748},{"duration":0.19354800000000694,"midi":36,"time":123.677172,"velocity":0.3937007874015748},{"duration":0.38709599999999966,"midi":36,"time":123.87072,"velocity":0.3937007874015748},{"duration":0.19354799999999273,"midi":36,"time":124.257816,"velocity":0.3937007874015748},{"duration":0.38709599999999966,"midi":36,"time":124.451364,"velocity":0.3937007874015748},{"duration":0.19354800000000694,"midi":36,"time":124.83846,"velocity":0.3937007874015748},{"duration":0.19354799999999273,"midi":36,"time":125.032008,"velocity":0.3937007874015748},{"duration":0.19354800000000694,"midi":36,"time":125.225556,"velocity":0.3937007874015748},{"duration":0.38709599999999966,"midi":38,"time":125.419104,"velocity":0.3937007874015748},{"duration":0.38709599999999966,"midi":38,"time":125.8062,"velocity":0.3937007874015748},{"duration":0.38709599999999966,"midi":28,"time":126.193296,"velocity":0.3937007874015748},{"duration":0.19354799999999273,"midi":28,"time":126.580392,"velocity":0.3937007874015748},{"duration":0.38709599999999966,"midi":28,"time":126.77394,"velocity":0.3937007874015748},{"duration":0.19354800000000694,"midi":28,"time":127.161036,"velocity":0.3937007874015748},{"duration":0.19354799999999273,"midi":28,"time":127.354584,"velocity":0.3937007874015748},{"duration":0.19354800000000694,"midi":28,"time":127.548132,"velocity":0.3937007874015748},{"duration":0.38709599999998545,"midi":28,"time":127.74168,"velocity":0.3937007874015748},{"duration":0.19354800000002115,"midi":28,"time":128.128776,"velocity":0.3937007874015748},{"duration":0.38709599999998545,"midi":28,"time":128.322324,"velocity":0.3937007874015748},{"duration":0.19354799999999273,"midi":28,"time":128.70942,"velocity":0.3937007874015748},{"duration":0.19354800000002115,"midi":28,"time":128.902968,"velocity":0.3937007874015748},{"duration":0.19354799999999273,"midi":28,"time":129.096516,"velocity":0.3937007874015748},{"duration":0.38709599999998545,"midi":31,"time":129.290064,"velocity":0.3937007874015748},{"duration":0.19354800000002115,"midi":31,"time":129.67716,"velocity":0.3937007874015748},{"duration":0.38709599999998545,"midi":31,"time":129.870708,"velocity":0.3937007874015748},{"duration":0.19354799999999273,"midi":31,"time":130.257804,"velocity":0.3937007874015748},{"duration":0.19354800000002115,"midi":31,"time":130.45135199999999,"velocity":0.3937007874015748},{"duration":0.19354799999999273,"midi":31,"time":130.6449,"velocity":0.3937007874015748},{"duration":0.38709599999998545,"midi":36,"time":130.838448,"velocity":0.3937007874015748},{"duration":0.19354800000002115,"midi":36,"time":131.22554399999999,"velocity":0.3937007874015748},{"duration":0.38709599999998545,"midi":36,"time":131.419092,"velocity":0.3937007874015748},{"duration":0.19354799999999273,"midi":36,"time":131.806188,"velocity":0.3937007874015748},{"duration":0.19354800000002115,"midi":36,"time":131.99973599999998,"velocity":0.3937007874015748},{"duration":0.19354799999999273,"midi":36,"time":132.193284,"velocity":0.3937007874015748},{"duration":0.3870960000000139,"midi":36,"time":132.386832,"velocity":0.3937007874015748},{"duration":0.19354799999999273,"midi":36,"time":132.773928,"velocity":0.3937007874015748},{"duration":0.38709599999998545,"midi":36,"time":132.967476,"velocity":0.3937007874015748},{"duration":0.19354800000002115,"midi":36,"time":133.354572,"velocity":0.3937007874015748},{"duration":0.19354799999999273,"midi":36,"time":133.54812,"velocity":0.3937007874015748},{"duration":0.19354799999999273,"midi":36,"time":133.741668,"velocity":0.3937007874015748},{"duration":0.3870960000000139,"midi":38,"time":133.935216,"velocity":0.3937007874015748},{"duration":0.38709599999998545,"midi":38,"time":134.322312,"velocity":0.3937007874015748},{"duration":0.3870960000000139,"midi":28,"time":134.709408,"velocity":0.3937007874015748},{"duration":0.19354799999999273,"midi":28,"time":135.096504,"velocity":0.3937007874015748},{"duration":0.38709599999998545,"midi":28,"time":135.290052,"velocity":0.3937007874015748},{"duration":0.19354800000002115,"midi":28,"time":135.677148,"velocity":0.3937007874015748},{"duration":0.19354799999999273,"midi":28,"time":135.870696,"velocity":0.3937007874015748},{"duration":0.19354799999999273,"midi":28,"time":136.064244,"velocity":0.3937007874015748},{"duration":0.3870960000000139,"midi":28,"time":136.257792,"velocity":0.3937007874015748},{"duration":0.19354799999999273,"midi":28,"time":136.644888,"velocity":0.3937007874015748},{"duration":0.38709599999998545,"midi":28,"time":136.838436,"velocity":0.3937007874015748},{"duration":0.19354800000002115,"midi":28,"time":137.225532,"velocity":0.3937007874015748},{"duration":0.19354799999999273,"midi":28,"time":137.41908,"velocity":0.3937007874015748},{"duration":0.19354799999999273,"midi":28,"time":137.612628,"velocity":0.3937007874015748},{"duration":0.3870960000000139,"midi":31,"time":137.806176,"velocity":0.3937007874015748},{"duration":0.19354799999999273,"midi":31,"time":138.193272,"velocity":0.3937007874015748},{"duration":0.38709599999998545,"midi":31,"time":138.38682,"velocity":0.3937007874015748},{"duration":0.19354800000002115,"midi":31,"time":138.77391599999999,"velocity":0.3937007874015748},{"duration":0.19354799999999273,"midi":31,"time":138.967464,"velocity":0.3937007874015748},{"duration":0.19354799999999273,"midi":31,"time":139.161012,"velocity":0.3937007874015748},{"duration":0.3870960000000139,"midi":36,"time":139.35456,"velocity":0.3937007874015748},{"duration":0.19354799999999273,"midi":36,"time":139.741656,"velocity":0.3937007874015748},{"duration":0.38709599999998545,"midi":36,"time":139.935204,"velocity":0.3937007874015748},{"duration":0.19354800000002115,"midi":36,"time":140.32229999999998,"velocity":0.3937007874015748},{"duration":0.19354799999999273,"midi":36,"time":140.515848,"velocity":0.3937007874015748},{"duration":0.19354799999999273,"midi":36,"time":140.709396,"velocity":0.3937007874015748},{"duration":0.3870960000000139,"midi":36,"time":140.902944,"velocity":0.3937007874015748},{"duration":0.19354799999999273,"midi":36,"time":141.29004,"velocity":0.3937007874015748},{"duration":0.3870960000000139,"midi":36,"time":141.483588,"velocity":0.3937007874015748},{"duration":0.19354799999999273,"midi":36,"time":141.870684,"velocity":0.3937007874015748},{"duration":0.19354799999999273,"midi":36,"time":142.064232,"velocity":0.3937007874015748},{"duration":0.19354799999999273,"midi":36,"time":142.25778,"velocity":0.3937007874015748},{"duration":0.3870960000000139,"midi":38,"time":142.451328,"velocity":0.3937007874015748},{"duration":0.38709599999998545,"midi":38,"time":142.838424,"velocity":0.3937007874015748},{"duration":0.3870960000000139,"midi":28,"time":143.22552,"velocity":0.3937007874015748},{"duration":0.19354799999999273,"midi":28,"time":143.612616,"velocity":0.3937007874015748},{"duration":0.3870960000000139,"midi":28,"time":143.806164,"velocity":0.3937007874015748},{"duration":0.19354799999999273,"midi":28,"time":144.19326,"velocity":0.3937007874015748},{"duration":0.19354799999999273,"midi":28,"time":144.386808,"velocity":0.3937007874015748},{"duration":0.19354799999999273,"midi":28,"time":144.580356,"velocity":0.3937007874015748},{"duration":0.3870960000000139,"midi":28,"time":144.773904,"velocity":0.3937007874015748},{"duration":0.19354799999999273,"midi":28,"time":145.161,"velocity":0.3937007874015748},{"duration":0.3870960000000139,"midi":28,"time":145.354548,"velocity":0.3937007874015748},{"duration":0.19354799999999273,"midi":28,"time":145.741644,"velocity":0.3937007874015748},{"duration":0.19354799999999273,"midi":28,"time":145.935192,"velocity":0.3937007874015748},{"duration":0.19354799999999273,"midi":28,"time":146.12874,"velocity":0.3937007874015748},{"duration":0.3870960000000139,"midi":31,"time":146.322288,"velocity":0.3937007874015748},{"duration":0.19354799999999273,"midi":31,"time":146.709384,"velocity":0.3937007874015748},{"duration":0.3870960000000139,"midi":31,"time":146.902932,"velocity":0.3937007874015748},{"duration":0.19354799999999273,"midi":31,"time":147.290028,"velocity":0.3937007874015748},{"duration":0.19354799999999273,"midi":31,"time":147.483576,"velocity":0.3937007874015748},{"duration":0.19354799999999273,"midi":31,"time":147.677124,"velocity":0.3937007874015748},{"duration":0.3870960000000139,"midi":36,"time":147.87067199999998,"velocity":0.3937007874015748},{"duration":0.19354799999999273,"midi":36,"time":148.257768,"velocity":0.3937007874015748},{"duration":0.3870960000000139,"midi":36,"time":148.451316,"velocity":0.3937007874015748},{"duration":0.19354799999999273,"midi":36,"time":148.838412,"velocity":0.3937007874015748},{"duration":0.19354799999999273,"midi":36,"time":149.03196,"velocity":0.3937007874015748},{"duration":0.19354800000002115,"midi":36,"time":149.225508,"velocity":0.3937007874015748},{"duration":0.38709599999998545,"midi":36,"time":149.419056,"velocity":0.3937007874015748},{"duration":0.19354799999999273,"midi":36,"time":149.806152,"velocity":0.3937007874015748},{"duration":0.3870960000000139,"midi":36,"time":149.9997,"velocity":0.3937007874015748},{"duration":0.19354799999999273,"midi":36,"time":150.386796,"velocity":0.3937007874015748},{"duration":0.19354799999999273,"midi":36,"time":150.580344,"velocity":0.3937007874015748},{"duration":0.19354800000002115,"midi":36,"time":150.773892,"velocity":0.3937007874015748},{"duration":0.38709599999998545,"midi":38,"time":150.96744,"velocity":0.3937007874015748},{"duration":0.3870960000000139,"midi":38,"time":151.354536,"velocity":0.3937007874015748},{"duration":0.38709599999998545,"midi":28,"time":151.741632,"velocity":0.3937007874015748},{"duration":0.19354799999999273,"midi":28,"time":152.128728,"velocity":0.3937007874015748},{"duration":0.3870960000000139,"midi":28,"time":152.322276,"velocity":0.3937007874015748},{"duration":0.19354799999999273,"midi":28,"time":152.709372,"velocity":0.3937007874015748},{"duration":0.19354799999999273,"midi":28,"time":152.90292,"velocity":0.3937007874015748},{"duration":0.19354800000002115,"midi":28,"time":153.096468,"velocity":0.3937007874015748},{"duration":0.38709599999998545,"midi":28,"time":153.290016,"velocity":0.3937007874015748},{"duration":0.19354799999999273,"midi":28,"time":153.677112,"velocity":0.3937007874015748},{"duration":0.3870960000000139,"midi":28,"time":153.87066,"velocity":0.3937007874015748},{"duration":0.19354799999999273,"midi":28,"time":154.257756,"velocity":0.3937007874015748},{"duration":0.19354799999999273,"midi":28,"time":154.451304,"velocity":0.3937007874015748},{"duration":0.19354800000002115,"midi":28,"time":154.644852,"velocity":0.3937007874015748},{"duration":0.38709599999998545,"midi":31,"time":154.8384,"velocity":0.3937007874015748},{"duration":0.19354799999999273,"midi":31,"time":155.225496,"velocity":0.3937007874015748},{"duration":0.3870960000000139,"midi":31,"time":155.41904399999999,"velocity":0.3937007874015748},{"duration":0.19354799999999273,"midi":31,"time":155.80614,"velocity":0.3937007874015748},{"duration":0.19354799999999273,"midi":31,"time":155.999688,"velocity":0.3937007874015748},{"duration":0.19354800000002115,"midi":31,"time":156.19323599999998,"velocity":0.3937007874015748},{"duration":0.38709599999998545,"midi":36,"time":156.386784,"velocity":0.3937007874015748},{"duration":0.19354800000002115,"midi":36,"time":156.77388,"velocity":0.3937007874015748},{"duration":0.38709599999998545,"midi":36,"time":156.967428,"velocity":0.3937007874015748},{"duration":0.19354799999999273,"midi":36,"time":157.354524,"velocity":0.3937007874015748},{"duration":0.19354800000002115,"midi":36,"time":157.548072,"velocity":0.3937007874015748},{"duration":0.19354799999999273,"midi":36,"time":157.74162,"velocity":0.3937007874015748},{"duration":0.38709599999998545,"midi":36,"time":157.935168,"velocity":0.3937007874015748},{"duration":0.19354800000002115,"midi":36,"time":158.322264,"velocity":0.3937007874015748},{"duration":0.38709599999998545,"midi":36,"time":158.515812,"velocity":0.3937007874015748},{"duration":0.19354799999999273,"midi":36,"time":158.902908,"velocity":0.3937007874015748},{"duration":0.19354800000002115,"midi":36,"time":159.096456,"velocity":0.3937007874015748},{"duration":0.19354799999999273,"midi":36,"time":159.290004,"velocity":0.3937007874015748},{"duration":0.38709599999998545,"midi":38,"time":159.483552,"velocity":0.3937007874015748},{"duration":0.3870960000000139,"midi":38,"time":159.870648,"velocity":0.3937007874015748},{"duration":0.38709599999998545,"midi":28,"time":160.257744,"velocity":0.3937007874015748},{"duration":0.19354800000002115,"midi":28,"time":160.64484,"velocity":0.3937007874015748},{"duration":0.38709599999998545,"midi":28,"time":160.838388,"velocity":0.3937007874015748},{"duration":0.19354799999999273,"midi":28,"time":161.225484,"velocity":0.3937007874015748},{"duration":0.19354800000002115,"midi":28,"time":161.419032,"velocity":0.3937007874015748},{"duration":0.19354799999999273,"midi":28,"time":161.61258,"velocity":0.3937007874015748},{"duration":0.38709599999998545,"midi":28,"time":161.806128,"velocity":0.3937007874015748},{"duration":0.19354800000002115,"midi":28,"time":162.193224,"velocity":0.3937007874015748},{"duration":0.38709599999998545,"midi":28,"time":162.386772,"velocity":0.3937007874015748},{"duration":0.19354799999999273,"midi":28,"time":162.773868,"velocity":0.3937007874015748},{"duration":0.19354800000002115,"midi":28,"time":162.967416,"velocity":0.3937007874015748},{"duration":0.19354799999999273,"midi":28,"time":163.160964,"velocity":0.3937007874015748},{"duration":0.38709599999998545,"midi":31,"time":163.354512,"velocity":0.3937007874015748},{"duration":0.19354800000002115,"midi":31,"time":163.74160799999999,"velocity":0.3937007874015748},{"duration":0.38709599999998545,"midi":31,"time":163.935156,"velocity":0.3937007874015748},{"duration":0.19354799999999273,"midi":31,"time":164.322252,"velocity":0.3937007874015748},{"duration":0.19354800000002115,"midi":31,"time":164.51579999999998,"velocity":0.3937007874015748},{"duration":0.19354799999999273,"midi":31,"time":164.709348,"velocity":0.3937007874015748},{"duration":0.3870960000000139,"midi":36,"time":164.902896,"velocity":0.3937007874015748},{"duration":0.19354799999999273,"midi":36,"time":165.289992,"velocity":0.3937007874015748},{"duration":0.38709599999998545,"midi":36,"time":165.48354,"velocity":0.3937007874015748},{"duration":0.19354800000002115,"midi":36,"time":165.870636,"velocity":0.3937007874015748},{"duration":0.19354799999999273,"midi":36,"time":166.064184,"velocity":0.3937007874015748},{"duration":0.19354799999999273,"midi":36,"time":166.257732,"velocity":0.3937007874015748},{"duration":0.3870960000000139,"midi":36,"time":166.45128,"velocity":0.3937007874015748},{"duration":0.19354799999999273,"midi":36,"time":166.838376,"velocity":0.3937007874015748},{"duration":0.38709599999998545,"midi":36,"time":167.031924,"velocity":0.3937007874015748},{"duration":0.19354800000002115,"midi":36,"time":167.41902,"velocity":0.3937007874015748},{"duration":0.19354799999999273,"midi":36,"time":167.612568,"velocity":0.3937007874015748},{"duration":0.19354799999999273,"midi":36,"time":167.806116,"velocity":0.3937007874015748},{"duration":0.3870960000000139,"midi":38,"time":167.999664,"velocity":0.3937007874015748},{"duration":0.38709599999998545,"midi":38,"time":168.38676,"velocity":0.3937007874015748},{"duration":0.3870960000000139,"midi":28,"time":168.773856,"velocity":0.3937007874015748},{"duration":0.19354799999999273,"midi":28,"time":169.160952,"velocity":0.3937007874015748},{"duration":0.38709599999998545,"midi":28,"time":169.3545,"velocity":0.3937007874015748},{"duration":0.19354800000002115,"midi":28,"time":169.741596,"velocity":0.3937007874015748},{"duration":0.19354799999999273,"midi":28,"time":169.935144,"velocity":0.3937007874015748},{"duration":0.19354799999999273,"midi":28,"time":170.128692,"velocity":0.3937007874015748},{"duration":0.3870960000000139,"midi":28,"time":170.32224,"velocity":0.3937007874015748},{"duration":0.19354799999999273,"midi":28,"time":170.709336,"velocity":0.3937007874015748},{"duration":0.38709599999998545,"midi":28,"time":170.902884,"velocity":0.3937007874015748},{"duration":0.19354800000002115,"midi":28,"time":171.28997999999999,"velocity":0.3937007874015748},{"duration":0.19354799999999273,"midi":28,"time":171.483528,"velocity":0.3937007874015748},{"duration":34.25799599999999,"midi":28,"time":171.677076,"velocity":0.3937007874015748},{"duration":0.3870960000000139,"midi":31,"time":205.935072,"velocity":0.3937007874015748},{"duration":0.19354799999999273,"midi":31,"time":206.322168,"velocity":0.3937007874015748},{"duration":0.3870960000000139,"midi":31,"time":206.515716,"velocity":0.3937007874015748},{"duration":0.19354799999999273,"midi":31,"time":206.902812,"velocity":0.3937007874015748},{"duration":0.19354799999999273,"midi":31,"time":207.09636,"velocity":0.3937007874015748},{"duration":0.19354799999999273,"midi":31,"time":207.289908,"velocity":0.3937007874015748},{"duration":0.3870960000000139,"midi":36,"time":207.483456,"velocity":0.3937007874015748},{"duration":0.19354799999999273,"midi":36,"time":207.870552,"velocity":0.3937007874015748},{"duration":0.3870960000000139,"midi":36,"time":208.0641,"velocity":0.3937007874015748},{"duration":0.19354799999999273,"midi":36,"time":208.451196,"velocity":0.3937007874015748},{"duration":0.19354799999999273,"midi":36,"time":208.644744,"velocity":0.3937007874015748},{"duration":0.19354799999999273,"midi":36,"time":208.838292,"velocity":0.3937007874015748},{"duration":0.3870960000000139,"midi":36,"time":209.03184,"velocity":0.3937007874015748},{"duration":0.19354799999999273,"midi":36,"time":209.418936,"velocity":0.3937007874015748},{"duration":0.3870960000000139,"midi":36,"time":209.612484,"velocity":0.3937007874015748},{"duration":0.19354799999999273,"midi":36,"time":209.99958,"velocity":0.3937007874015748},{"duration":0.19354799999999273,"midi":36,"time":210.193128,"velocity":0.3937007874015748},{"duration":0.19354799999999273,"midi":36,"time":210.386676,"velocity":0.3937007874015748},{"duration":0.3870960000000139,"midi":38,"time":210.580224,"velocity":0.3937007874015748},{"duration":0.38709599999998545,"midi":38,"time":210.96732,"velocity":0.3937007874015748},{"duration":0.3870960000000139,"midi":28,"time":211.354416,"velocity":0.3937007874015748},{"duration":0.19354799999999273,"midi":28,"time":211.741512,"velocity":0.3937007874015748},{"duration":0.3870960000000139,"midi":28,"time":211.93506,"velocity":0.3937007874015748},{"duration":0.19354799999999273,"midi":28,"time":212.322156,"velocity":0.3937007874015748},{"duration":0.19354799999999273,"midi":28,"time":212.515704,"velocity":0.3937007874015748},{"duration":0.19354799999999273,"midi":28,"time":212.709252,"velocity":0.3937007874015748},{"duration":0.3870960000000139,"midi":28,"time":212.90279999999998,"velocity":0.3937007874015748},{"duration":0.19354799999999273,"midi":28,"time":213.289896,"velocity":0.3937007874015748},{"duration":0.3870960000000139,"midi":28,"time":213.483444,"velocity":0.3937007874015748},{"duration":0.19354799999999273,"midi":28,"time":213.87054,"velocity":0.3937007874015748},{"duration":0.19354799999999273,"midi":28,"time":214.064088,"velocity":0.3937007874015748},{"duration":0.19354799999999273,"midi":28,"time":214.257636,"velocity":0.3937007874015748},{"duration":0.3870960000000139,"midi":31,"time":214.45118399999998,"velocity":0.3937007874015748},{"duration":0.19354799999999273,"midi":31,"time":214.83828,"velocity":0.3937007874015748},{"duration":0.3870960000000139,"midi":31,"time":215.031828,"velocity":0.3937007874015748},{"duration":0.19354799999999273,"midi":31,"time":215.418924,"velocity":0.3937007874015748},{"duration":0.19354799999999273,"midi":31,"time":215.612472,"velocity":0.3937007874015748},{"duration":0.19354800000002115,"midi":31,"time":215.80602,"velocity":0.3937007874015748},{"duration":0.38709599999998545,"midi":36,"time":215.999568,"velocity":0.3937007874015748},{"duration":0.19354799999999273,"midi":36,"time":216.386664,"velocity":0.3937007874015748},{"duration":0.3870960000000139,"midi":36,"time":216.580212,"velocity":0.3937007874015748},{"duration":0.19354799999999273,"midi":36,"time":216.967308,"velocity":0.3937007874015748},{"duration":0.19354799999999273,"midi":36,"time":217.160856,"velocity":0.3937007874015748},{"duration":0.19354800000002115,"midi":36,"time":217.354404,"velocity":0.3937007874015748},{"duration":0.38709599999998545,"midi":36,"time":217.547952,"velocity":0.3937007874015748},{"duration":0.19354799999999273,"midi":36,"time":217.935048,"velocity":0.3937007874015748},{"duration":0.3870960000000139,"midi":36,"time":218.128596,"velocity":0.3937007874015748},{"duration":0.19354799999999273,"midi":36,"time":218.515692,"velocity":0.3937007874015748},{"duration":0.19354799999999273,"midi":36,"time":218.70924,"velocity":0.3937007874015748},{"duration":0.19354800000002115,"midi":36,"time":218.902788,"velocity":0.3937007874015748},{"duration":0.38709599999998545,"midi":38,"time":219.096336,"velocity":0.3937007874015748},{"duration":0.3870960000000139,"midi":38,"time":219.483432,"velocity":0.3937007874015748},{"duration":0.38709599999998545,"midi":28,"time":219.870528,"velocity":0.3937007874015748},{"duration":0.19354799999999273,"midi":28,"time":220.257624,"velocity":0.3937007874015748},{"duration":0.3870960000000139,"midi":28,"time":220.45117199999999,"velocity":0.3937007874015748},{"duration":0.19354799999999273,"midi":28,"time":220.838268,"velocity":0.3937007874015748},{"duration":0.19354799999999273,"midi":28,"time":221.031816,"velocity":0.3937007874015748},{"duration":0.19354800000002115,"midi":28,"time":221.22536399999998,"velocity":0.3937007874015748},{"duration":0.38709599999998545,"midi":28,"time":221.418912,"velocity":0.3937007874015748},{"duration":0.19354799999999273,"midi":28,"time":221.806008,"velocity":0.3937007874015748},{"duration":0.3870960000000139,"midi":28,"time":221.99955599999998,"velocity":0.3937007874015748},{"duration":0.19354799999999273,"midi":28,"time":222.386652,"velocity":0.3937007874015748},{"duration":0.19354799999999273,"midi":28,"time":222.5802,"velocity":0.3937007874015748},{"duration":0.19354800000002115,"midi":28,"time":222.77374799999998,"velocity":0.3937007874015748},{"duration":0.38709599999998545,"midi":31,"time":222.967296,"velocity":0.3937007874015748},{"duration":0.19354800000002115,"midi":31,"time":223.354392,"velocity":0.3937007874015748},{"duration":0.38709599999998545,"midi":31,"time":223.54794,"velocity":0.3937007874015748},{"duration":0.19354799999999273,"midi":31,"time":223.935036,"velocity":0.3937007874015748},{"duration":0.19354800000002115,"midi":31,"time":224.128584,"velocity":0.3937007874015748},{"duration":0.19354799999999273,"midi":31,"time":224.322132,"velocity":0.3937007874015748},{"duration":0.38709599999998545,"midi":36,"time":224.51568,"velocity":0.3937007874015748},{"duration":0.19354800000002115,"midi":36,"time":224.902776,"velocity":0.3937007874015748},{"duration":0.38709599999998545,"midi":36,"time":225.096324,"velocity":0.3937007874015748},{"duration":0.19354799999999273,"midi":36,"time":225.48342,"velocity":0.3937007874015748},{"duration":0.19354800000002115,"midi":36,"time":225.676968,"velocity":0.3937007874015748},{"duration":0.19354799999999273,"midi":36,"time":225.870516,"velocity":0.3937007874015748},{"duration":0.38709599999998545,"midi":36,"time":226.064064,"velocity":0.3937007874015748},{"duration":0.19354800000002115,"midi":36,"time":226.45116,"velocity":0.3937007874015748},{"duration":0.38709599999998545,"midi":36,"time":226.644708,"velocity":0.3937007874015748},{"duration":0.19354799999999273,"midi":36,"time":227.031804,"velocity":0.3937007874015748},{"duration":0.19354800000002115,"midi":36,"time":227.225352,"velocity":0.3937007874015748},{"duration":0.19354799999999273,"midi":36,"time":227.4189,"velocity":0.3937007874015748},{"duration":0.38709599999998545,"midi":38,"time":227.612448,"velocity":0.3937007874015748},{"duration":0.3870960000000139,"midi":38,"time":227.999544,"velocity":0.3937007874015748},{"duration":0.38709599999998545,"midi":28,"time":228.38664,"velocity":0.3937007874015748},{"duration":0.19354800000002115,"midi":28,"time":228.77373599999999,"velocity":0.3937007874015748},{"duration":0.38709599999998545,"midi":28,"time":228.967284,"velocity":0.3937007874015748},{"duration":0.19354799999999273,"midi":28,"time":229.35438,"velocity":0.3937007874015748},{"duration":0.19354800000002115,"midi":28,"time":229.54792799999998,"velocity":0.3937007874015748},{"duration":0.19354799999999273,"midi":28,"time":229.741476,"velocity":0.3937007874015748},{"duration":0.19354799999999273,"midi":28,"time":229.741476,"velocity":0.3937007874015748},{"duration":0.5806439999999782,"midi":28,"time":229.741476,"velocity":0.3937007874015748},{"duration":0.5806439999999782,"midi":28,"time":229.741476,"velocity":0.3937007874015748},{"duration":0.7741919999999993,"midi":28,"time":229.741476,"velocity":0.3937007874015748},{"duration":0.7741919999999993,"midi":28,"time":229.741476,"velocity":0.3937007874015748},{"duration":1.1612879999999848,"midi":28,"time":229.741476,"velocity":0.3937007874015748},{"duration":1.1612879999999848,"midi":28,"time":229.741476,"velocity":0.3937007874015748},{"duration":1.3548359999999775,"midi":28,"time":229.741476,"velocity":0.3937007874015748},{"duration":1.3548359999999775,"midi":28,"time":229.741476,"velocity":0.3937007874015748},{"duration":1.5483839999999987,"midi":28,"time":229.741476,"velocity":0.3937007874015748},{"duration":1.5483839999999987,"midi":28,"time":229.741476,"velocity":0.3937007874015748},{"duration":3.0967679999999973,"midi":28,"time":229.741476,"velocity":0.3937007874015748}]},{"instrument":{"family":"chromatic percussion","number":11,"name":"vibraphone"},"notes":[{"duration":0.19354799999999983,"midi":83,"time":36.387024,"velocity":0.3937007874015748},{"duration":0.19354799999999983,"midi":84,"time":36.580572,"velocity":0.3937007874015748},{"duration":0.19354799999999983,"midi":86,"time":36.774119999999996,"velocity":0.3937007874015748},{"duration":0.19354799999999983,"midi":88,"time":36.967667999999996,"velocity":0.3937007874015748},{"duration":0.19354799999999983,"midi":83,"time":39.483792,"velocity":0.3937007874015748},{"duration":0.19354799999999983,"midi":84,"time":39.67734,"velocity":0.3937007874015748},{"duration":0.19354799999999983,"midi":86,"time":39.870888,"velocity":0.3937007874015748},{"duration":0.19354799999999983,"midi":88,"time":40.064436,"velocity":0.3937007874015748},{"duration":0.19354799999999983,"midi":86,"time":40.257984,"velocity":0.3937007874015748},{"duration":0.19354799999999983,"midi":84,"time":40.451532,"velocity":0.3937007874015748},{"duration":0.19354799999999983,"midi":83,"time":40.64508,"velocity":0.3937007874015748},{"duration":0.19354799999999983,"midi":83,"time":41.032176,"velocity":0.3937007874015748},{"duration":0.19354799999999983,"midi":79,"time":41.225724,"velocity":0.3937007874015748},{"duration":0.19354799999999983,"midi":76,"time":41.419272,"velocity":0.3937007874015748},{"duration":0.19354799999999983,"midi":83,"time":44.903135999999996,"velocity":0.3937007874015748},{"duration":0.19354799999999983,"midi":84,"time":45.096683999999996,"velocity":0.3937007874015748},{"duration":0.19354800000000694,"midi":86,"time":45.290231999999996,"velocity":0.3937007874015748},{"duration":0.19354799999999983,"midi":88,"time":45.48378,"velocity":0.3937007874015748},{"duration":0.19354799999999983,"midi":83,"time":47.999904,"velocity":0.3937007874015748},{"duration":0.19354799999999983,"midi":84,"time":48.193452,"velocity":0.3937007874015748},{"duration":0.19354799999999983,"midi":86,"time":48.387,"velocity":0.3937007874015748},{"duration":0.19354799999999983,"midi":88,"time":48.580548,"velocity":0.3937007874015748},{"duration":0.19354799999999983,"midi":86,"time":48.774096,"velocity":0.3937007874015748},{"duration":0.19354799999999983,"midi":84,"time":48.967644,"velocity":0.3937007874015748},{"duration":0.19354799999999983,"midi":83,"time":49.161192,"velocity":0.3937007874015748},{"duration":0.19354799999999983,"midi":83,"time":49.548288,"velocity":0.3937007874015748},{"duration":0.19354799999999983,"midi":79,"time":49.741836,"velocity":0.3937007874015748},{"duration":0.19354799999999983,"midi":76,"time":49.935384,"velocity":0.3937007874015748},{"duration":0.19354799999999983,"midi":83,"time":53.419247999999996,"velocity":0.3937007874015748},{"duration":0.19354800000000694,"midi":84,"time":53.612795999999996,"velocity":0.3937007874015748},{"duration":0.19354799999999983,"midi":86,"time":53.806344,"velocity":0.3937007874015748},{"duration":0.19354799999999983,"midi":88,"time":53.999892,"velocity":0.3937007874015748},{"duration":0.19354799999999983,"midi":83,"time":56.516016,"velocity":0.3937007874015748},{"duration":0.19354799999999983,"midi":84,"time":56.709564,"velocity":0.3937007874015748},{"duration":0.19354799999999983,"midi":86,"time":56.903112,"velocity":0.3937007874015748},{"duration":0.19354799999999983,"midi":88,"time":57.09666,"velocity":0.3937007874015748},{"duration":0.19354799999999983,"midi":86,"time":57.290208,"velocity":0.3937007874015748},{"duration":0.19354799999999983,"midi":84,"time":57.483756,"velocity":0.3937007874015748},{"duration":0.19354799999999983,"midi":83,"time":57.677304,"velocity":0.3937007874015748},{"duration":0.19354799999999983,"midi":83,"time":58.0644,"velocity":0.3937007874015748},{"duration":0.19354799999999983,"midi":79,"time":58.257948,"velocity":0.3937007874015748},{"duration":0.19354799999999983,"midi":76,"time":58.451496,"velocity":0.3937007874015748},{"duration":0.19354799999999983,"midi":83,"time":61.93536,"velocity":0.3937007874015748},{"duration":0.19354799999999983,"midi":84,"time":62.128908,"velocity":0.3937007874015748},{"duration":0.19354799999999983,"midi":86,"time":62.322456,"velocity":0.3937007874015748},{"duration":0.19354799999999983,"midi":88,"time":62.516004,"velocity":0.3937007874015748},{"duration":0.19354799999999273,"midi":83,"time":65.032128,"velocity":0.3937007874015748},{"duration":0.19354800000000694,"midi":84,"time":65.22567599999999,"velocity":0.3937007874015748},{"duration":0.19354799999999273,"midi":86,"time":65.419224,"velocity":0.3937007874015748},{"duration":0.19354800000000694,"midi":88,"time":65.61277199999999,"velocity":0.3937007874015748},{"duration":0.19354799999999273,"midi":86,"time":65.80632,"velocity":0.3937007874015748},{"duration":0.19354800000000694,"midi":84,"time":65.99986799999999,"velocity":0.3937007874015748},{"duration":0.19354800000000694,"midi":83,"time":66.193416,"velocity":0.3937007874015748},{"duration":0.19354800000000694,"midi":83,"time":66.580512,"velocity":0.3937007874015748},{"duration":0.19354799999999273,"midi":79,"time":66.77406,"velocity":0.3937007874015748},{"duration":0.19354800000000694,"midi":76,"time":66.967608,"velocity":0.3937007874015748},{"duration":0.19354800000000694,"midi":83,"time":104.51592,"velocity":0.3937007874015748},{"duration":0.19354799999999273,"midi":84,"time":104.709468,"velocity":0.3937007874015748},{"duration":0.19354800000000694,"midi":86,"time":104.903016,"velocity":0.3937007874015748},{"duration":0.19354799999999273,"midi":88,"time":105.096564,"velocity":0.3937007874015748},{"duration":0.19354799999999273,"midi":83,"time":107.612688,"velocity":0.3937007874015748},{"duration":0.19354800000000694,"midi":84,"time":107.806236,"velocity":0.3937007874015748},{"duration":0.19354799999999273,"midi":86,"time":107.999784,"velocity":0.3937007874015748},{"duration":0.19354800000000694,"midi":88,"time":108.193332,"velocity":0.3937007874015748},{"duration":0.19354799999999273,"midi":86,"time":108.38688,"velocity":0.3937007874015748},{"duration":0.19354800000000694,"midi":84,"time":108.580428,"velocity":0.3937007874015748},{"duration":0.19354799999999273,"midi":83,"time":108.773976,"velocity":0.3937007874015748},{"duration":3.8709599999999966,"midi":83,"time":109.161072,"velocity":0.3937007874015748},{"duration":0.19354800000000694,"midi":79,"time":109.35462,"velocity":0.3937007874015748},{"duration":0.19354799999999273,"midi":76,"time":109.548168,"velocity":0.3937007874015748},{"duration":0.19354799999999273,"midi":83,"time":113.032032,"velocity":0.3937007874015748},{"duration":0.19354800000000694,"midi":84,"time":113.22558,"velocity":0.3937007874015748},{"duration":0.19354799999999273,"midi":86,"time":113.419128,"velocity":0.3937007874015748},{"duration":0.19354800000000694,"midi":88,"time":113.612676,"velocity":0.3937007874015748},{"duration":0.19354800000000694,"midi":83,"time":116.1288,"velocity":0.3937007874015748},{"duration":0.19354799999999273,"midi":84,"time":116.322348,"velocity":0.3937007874015748},{"duration":0.19354800000000694,"midi":86,"time":116.515896,"velocity":0.3937007874015748},{"duration":0.19354799999999273,"midi":88,"time":116.709444,"velocity":0.3937007874015748},{"duration":0.19354800000000694,"midi":86,"time":116.902992,"velocity":0.3937007874015748},{"duration":0.19354799999999273,"midi":84,"time":117.09654,"velocity":0.3937007874015748},{"duration":0.19354800000000694,"midi":83,"time":117.290088,"velocity":0.3937007874015748},{"duration":3.8709599999999966,"midi":83,"time":117.677184,"velocity":0.3937007874015748},{"duration":0.19354799999999273,"midi":79,"time":117.870732,"velocity":0.3937007874015748},{"duration":0.19354800000000694,"midi":76,"time":118.06428,"velocity":0.3937007874015748},{"duration":0.19354800000000694,"midi":83,"time":121.548144,"velocity":0.3937007874015748},{"duration":0.19354799999999273,"midi":84,"time":121.741692,"velocity":0.3937007874015748},{"duration":0.19354800000000694,"midi":86,"time":121.93524,"velocity":0.3937007874015748},{"duration":0.19354799999999273,"midi":88,"time":122.128788,"velocity":0.3937007874015748},{"duration":0.19354799999999273,"midi":83,"time":124.644912,"velocity":0.3937007874015748},{"duration":0.19354800000000694,"midi":84,"time":124.83846,"velocity":0.3937007874015748},{"duration":0.19354799999999273,"midi":86,"time":125.032008,"velocity":0.3937007874015748},{"duration":0.19354800000000694,"midi":88,"time":125.225556,"velocity":0.3937007874015748},{"duration":0.19354799999999273,"midi":86,"time":125.419104,"velocity":0.3937007874015748},{"duration":0.19354800000000694,"midi":84,"time":125.612652,"velocity":0.3937007874015748},{"duration":0.19354799999999273,"midi":83,"time":125.8062,"velocity":0.3937007874015748},{"duration":3.8709599999999966,"midi":83,"time":126.193296,"velocity":0.3937007874015748},{"duration":0.19354800000000694,"midi":79,"time":126.386844,"velocity":0.3937007874015748},{"duration":0.19354799999999273,"midi":76,"time":126.580392,"velocity":0.3937007874015748},{"duration":0.19354799999999273,"midi":83,"time":130.064256,"velocity":0.3937007874015748},{"duration":0.19354799999999273,"midi":84,"time":130.257804,"velocity":0.3937007874015748},{"duration":0.19354800000002115,"midi":86,"time":130.45135199999999,"velocity":0.3937007874015748},{"duration":0.19354799999999273,"midi":88,"time":130.6449,"velocity":0.3937007874015748},{"duration":0.19354799999999273,"midi":83,"time":133.161024,"velocity":0.3937007874015748},{"duration":0.19354800000002115,"midi":84,"time":133.354572,"velocity":0.3937007874015748},{"duration":0.19354799999999273,"midi":86,"time":133.54812,"velocity":0.3937007874015748},{"duration":0.19354799999999273,"midi":88,"time":133.741668,"velocity":0.3937007874015748},{"duration":0.19354799999999273,"midi":86,"time":133.935216,"velocity":0.3937007874015748},{"duration":0.19354800000002115,"midi":84,"time":134.128764,"velocity":0.3937007874015748},{"duration":0.19354799999999273,"midi":83,"time":134.322312,"velocity":0.3937007874015748},{"duration":71.999856,"midi":83,"time":134.709408,"velocity":0.3937007874015748},{"duration":0.19354800000002115,"midi":79,"time":134.902956,"velocity":0.3937007874015748},{"duration":0.19354799999999273,"midi":76,"time":135.096504,"velocity":0.3937007874015748},{"duration":1.5483839999999987,"midi":59,"time":137.806176,"velocity":0.3937007874015748},{"duration":1.5483839999999987,"midi":60,"time":139.35456,"velocity":0.3937007874015748},{"duration":0.7741919999999993,"midi":64,"time":140.902944,"velocity":0.3937007874015748},{"duration":0.7741919999999993,"midi":66,"time":141.677136,"velocity":0.3937007874015748},{"duration":0.7741919999999993,"midi":67,"time":142.451328,"velocity":0.3937007874015748},{"duration":0.19354799999999273,"midi":71,"time":143.031972,"velocity":0.3937007874015748},{"duration":0.19354800000002115,"midi":67,"time":143.22552,"velocity":0.3937007874015748},{"duration":0.19354799999999273,"midi":66,"time":143.419068,"velocity":0.3937007874015748},{"duration":0.6774179999999888,"midi":64,"time":143.612616,"velocity":0.3937007874015748},{"duration":6.387083999999987,"midi":71,"time":145.161,"velocity":0.3937007874015748},{"duration":0.7741919999999993,"midi":66,"time":145.548096,"velocity":0.3937007874015748},{"duration":1.5483839999999987,"midi":59,"time":146.322288,"velocity":0.3937007874015748},{"duration":1.548384000000027,"midi":60,"time":147.87067199999998,"velocity":0.3937007874015748},{"duration":0.7741919999999993,"midi":64,"time":149.419056,"velocity":0.3937007874015748},{"duration":0.7741919999999993,"midi":66,"time":150.193248,"velocity":0.3937007874015748},{"duration":0.7741919999999993,"midi":67,"time":150.96744,"velocity":0.3937007874015748},{"duration":0.19354800000002115,"midi":71,"time":151.548084,"velocity":0.3937007874015748},{"duration":0.19354799999999273,"midi":67,"time":151.741632,"velocity":0.3937007874015748},{"duration":0.19354799999999273,"midi":66,"time":151.93518,"velocity":0.3937007874015748},{"duration":0.6774180000000172,"midi":64,"time":152.128728,"velocity":0.3937007874015748},{"duration":6.387084000000016,"midi":71,"time":153.677112,"velocity":0.3937007874015748},{"duration":0.7741919999999993,"midi":66,"time":154.064208,"velocity":0.3937007874015748},{"duration":1.5483839999999987,"midi":59,"time":154.8384,"velocity":0.3937007874015748},{"duration":1.5483839999999987,"midi":60,"time":156.386784,"velocity":0.3937007874015748},{"duration":0.7741919999999993,"midi":64,"time":157.935168,"velocity":0.3937007874015748},{"duration":0.7741919999999993,"midi":66,"time":158.70936,"velocity":0.3937007874015748},{"duration":0.7741919999999993,"midi":67,"time":159.483552,"velocity":0.3937007874015748},{"duration":0.19354799999999273,"midi":71,"time":160.064196,"velocity":0.3937007874015748},{"duration":0.19354799999999273,"midi":67,"time":160.257744,"velocity":0.3937007874015748},{"duration":0.19354799999999273,"midi":66,"time":160.451292,"velocity":0.3937007874015748},{"duration":0.6774180000000172,"midi":64,"time":160.64484,"velocity":0.3937007874015748},{"duration":6.387084000000016,"midi":71,"time":162.193224,"velocity":0.3937007874015748},{"duration":0.7741919999999993,"midi":66,"time":162.58032,"velocity":0.3937007874015748},{"duration":1.5483839999999987,"midi":59,"time":163.354512,"velocity":0.3937007874015748},{"duration":1.5483839999999987,"midi":60,"time":164.902896,"velocity":0.3937007874015748},{"duration":0.7741919999999993,"midi":64,"time":166.45128,"velocity":0.3937007874015748},{"duration":0.7741919999999993,"midi":66,"time":167.225472,"velocity":0.3937007874015748},{"duration":0.7741919999999993,"midi":67,"time":167.999664,"velocity":0.3937007874015748},{"duration":0.19354799999999273,"midi":71,"time":168.580308,"velocity":0.3937007874015748},{"duration":0.19354799999999273,"midi":67,"time":168.773856,"velocity":0.3937007874015748},{"duration":0.19354800000002115,"midi":66,"time":168.967404,"velocity":0.3937007874015748},{"duration":0.6774179999999888,"midi":64,"time":169.160952,"velocity":0.3937007874015748},{"duration":59.806332,"midi":71,"time":170.709336,"velocity":0.3937007874015748},{"duration":0.7741919999999993,"midi":66,"time":171.096432,"velocity":0.3937007874015748},{"duration":0.19354800000002115,"midi":83,"time":206.709264,"velocity":0.3937007874015748},{"duration":0.19354799999999273,"midi":84,"time":206.902812,"velocity":0.3937007874015748},{"duration":0.19354799999999273,"midi":86,"time":207.09636,"velocity":0.3937007874015748},{"duration":0.19354799999999273,"midi":88,"time":207.289908,"velocity":0.3937007874015748},{"duration":0.19354800000002115,"midi":83,"time":209.806032,"velocity":0.3937007874015748},{"duration":0.19354799999999273,"midi":84,"time":209.99958,"velocity":0.3937007874015748},{"duration":0.19354799999999273,"midi":86,"time":210.193128,"velocity":0.3937007874015748},{"duration":0.19354799999999273,"midi":88,"time":210.386676,"velocity":0.3937007874015748},{"duration":0.19354800000002115,"midi":86,"time":210.580224,"velocity":0.3937007874015748},{"duration":0.19354799999999273,"midi":84,"time":210.773772,"velocity":0.3937007874015748},{"duration":0.19354799999999273,"midi":83,"time":210.96732,"velocity":0.3937007874015748},{"duration":3.870960000000025,"midi":83,"time":211.354416,"velocity":0.3937007874015748},{"duration":0.19354799999999273,"midi":79,"time":211.547964,"velocity":0.3937007874015748},{"duration":0.19354799999999273,"midi":76,"time":211.741512,"velocity":0.3937007874015748},{"duration":0.19354799999999273,"midi":83,"time":215.225376,"velocity":0.3937007874015748},{"duration":0.19354799999999273,"midi":84,"time":215.418924,"velocity":0.3937007874015748},{"duration":0.19354799999999273,"midi":86,"time":215.612472,"velocity":0.3937007874015748},{"duration":0.19354800000002115,"midi":88,"time":215.80602,"velocity":0.3937007874015748},{"duration":0.19354799999999273,"midi":83,"time":218.322144,"velocity":0.3937007874015748},{"duration":0.19354799999999273,"midi":84,"time":218.515692,"velocity":0.3937007874015748},{"duration":0.19354799999999273,"midi":86,"time":218.70924,"velocity":0.3937007874015748},{"duration":0.19354800000002115,"midi":88,"time":218.902788,"velocity":0.3937007874015748},{"duration":0.19354799999999273,"midi":86,"time":219.096336,"velocity":0.3937007874015748},{"duration":0.19354799999999273,"midi":84,"time":219.289884,"velocity":0.3937007874015748},{"duration":0.19354799999999273,"midi":83,"time":219.483432,"velocity":0.3937007874015748},{"duration":3.8709599999999966,"midi":83,"time":219.870528,"velocity":0.3937007874015748},{"duration":0.19354799999999273,"midi":79,"time":220.064076,"velocity":0.3937007874015748},{"duration":0.19354799999999273,"midi":76,"time":220.257624,"velocity":0.3937007874015748},{"duration":0.19354799999999273,"midi":83,"time":223.741488,"velocity":0.3937007874015748},{"duration":0.19354799999999273,"midi":84,"time":223.935036,"velocity":0.3937007874015748},{"duration":0.19354800000002115,"midi":86,"time":224.128584,"velocity":0.3937007874015748},{"duration":0.19354799999999273,"midi":88,"time":224.322132,"velocity":0.3937007874015748},{"duration":0.19354799999999273,"midi":83,"time":226.838256,"velocity":0.3937007874015748},{"duration":0.19354799999999273,"midi":84,"time":227.031804,"velocity":0.3937007874015748},{"duration":0.19354800000002115,"midi":86,"time":227.225352,"velocity":0.3937007874015748},{"duration":0.19354799999999273,"midi":88,"time":227.4189,"velocity":0.3937007874015748},{"duration":0.19354799999999273,"midi":86,"time":227.612448,"velocity":0.3937007874015748},{"duration":0.19354799999999273,"midi":84,"time":227.805996,"velocity":0.3937007874015748},{"duration":0.19354800000002115,"midi":83,"time":227.999544,"velocity":0.3937007874015748},{"duration":2.1290280000000052,"midi":83,"time":228.38664,"velocity":0.3937007874015748},{"duration":0.19354799999999273,"midi":79,"time":228.580188,"velocity":0.3937007874015748},{"duration":0.19354800000002115,"midi":76,"time":228.77373599999999,"velocity":0.3937007874015748}]}]}
